{"ticks_per_beat": 192, "tracks": [[{"type": "track_name", "name": "Melody", "time": 0}, {"type": "set_tempo", "tempo": 198019, "time": 0}, {"type": "key_signature", "key": "Eb", "time": 0}, {"type": "time_signature", "numerator": 4, "denominator": 4, "clocks_per_click": 24, "notated_32nd_notes_per_beat": 8, "time": 0}, {"type": "note_on", "time": 3765, "note": 82, "velocity": 115, "channel": 0}, {"type": "note_off", "time": 1171, "note": 82, "velocity": 115, "channel": 0}, {"type": "note_on", "time": 146, "note": 78, "velocity": 107, "channel": 0}, {"type": "note_off", "time": 87, "note": 78, "velocity": 107, "channel": 0}, {"type": "note_on", "time": 15, "note": 79, "velocity": 92, "channel": 0}, {"type": "note_off", "time": 79, "note": 79, "velocity": 92, "channel": 0}, {"type": "note_on", "time": 31, "note": 75, "velocity": 108, "channel": 0}, {"type": "note_off", "time": 71, "note": 75, "velocity": 108, "channel": 0}, {"type": "note_on", "time": 27, "note": 72, "velocity": 92, "channel": 0}, {"type": "note_off", "time": 87, "note": 72, "velocity": 92, "channel": 0}, {"type": "note_on", "time": 0, "note": 75, "velocity": 90, "channel": 0}, {"type": "note_off", "time": 209, "note": 75, "velocity": 90, "channel": 0}, {"type": "note_on", "time": 98, "note": 72, "velocity": 104, "channel": 0}, {"type": "note_off", "time": 110, "note": 72, "velocity": 104, "channel": 0}, {"type": "note_on", "time": 154, "note": 78, "velocity": 111, "channel": 0}, {"type": "note_off", "time": 98, "note": 78, "velocity": 111, "channel": 0}, {"type": "note_on", "time": 23, "note": 79, "velocity": 100, "channel": 0}, {"type": "note_off", "time": 56, "note": 79, "velocity": 100, "channel": 0}, {"type": "note_on", "time": 58, "note": 75, "velocity": 91, "channel": 0}, {"type": "note_off", "time": 98, "note": 75, "velocity": 91, "channel": 0}, {"type": "note_on", "time": 30, "note": 72, "velocity": 108, "channel": 0}, {"type": "note_off", "time": 97, "note": 72, "velocity": 108, "channel": 0}, {"type": "note_on", "time": 102, "note": 78, "velocity": 107, "channel": 0}, {"type": "note_off", "time": 98, "note": 78, "velocity": 107, "channel": 0}, {"type": "note_on", "time": 85, "note": 75, "velocity": 110, "channel": 0}, {"type": "note_off", "time": 98, "note": 75, "velocity": 110, "channel": 0}, {"type": "note_on", "time": 80, "note": 77, "velocity": 98, "channel": 0}, {"type": "note_off", "time": 130, "note": 77, "velocity": 98, "channel": 0}, {"type": "note_on", "time": 225, "note": 68, "velocity": 96, "channel": 0}, {"type": "note_off", "time": 55, "note": 68, "velocity": 96, "channel": 0}, {"type": "note_on", "time": 3, "note": 73, "velocity": 120, "channel": 0}, {"type": "note_off", "time": 91, "note": 73, "velocity": 120, "channel": 0}, {"type": "note_on", "time": 31, "note": 74, "velocity": 114, "channel": 0}, {"type": "note_off", "time": 63, "note": 74, "velocity": 114, "channel": 0}, {"type": "note_on", "time": 3, "note": 77, "velocity": 112, "channel": 0}, {"type": "note_off", "time": 91, "note": 77, "velocity": 112, "channel": 0}, {"type": "note_on", "time": 13, "note": 74, "velocity": 105, "channel": 0}, {"type": "note_off", "time": 81, "note": 74, "velocity": 105, "channel": 0}, {"type": "note_on", "time": 0, "note": 79, "velocity": 110, "channel": 0}, {"type": "note_off", "time": 96, "note": 79, "velocity": 110, "channel": 0}, {"type": "note_on", "time": 10, "note": 77, "velocity": 101, "channel": 0}, {"type": "note_off", "time": 82, "note": 77, "velocity": 101, "channel": 0}, {"type": "note_on", "time": 13, "note": 82, "velocity": 111, "channel": 0}, {"type": "note_off", "time": 100, "note": 82, "velocity": 111, "channel": 0}, {"type": "note_on", "time": 5, "note": 81, "velocity": 115, "channel": 0}, {"type": "note_off", "time": 99, "note": 81, "velocity": 115, "channel": 0}, {"type": "note_on", "time": 8, "note": 80, "velocity": 105, "channel": 0}, {"type": "note_off", "time": 102, "note": 80, "velocity": 105, "channel": 0}, {"type": "note_on", "time": 4, "note": 77, "velocity": 106, "channel": 0}, {"type": "note_off", "time": 53, "note": 77, "velocity": 106, "channel": 0}, {"type": "note_on", "time": 26, "note": 74, "velocity": 104, "channel": 0}, {"type": "note_off", "time": 83, "note": 74, "velocity": 104, "channel": 0}, {"type": "note_on", "time": 21, "note": 70, "velocity": 98, "channel": 0}, {"type": "note_off", "time": 91, "note": 70, "velocity": 98, "channel": 0}, {"type": "note_on", "time": 7, "note": 68, "velocity": 98, "channel": 0}, {"type": "note_off", "time": 59, "note": 68, "velocity": 98, "channel": 0}, {"type": "note_on", "time": 11, "note": 65, "velocity": 94, "channel": 0}, {"type": "note_off", "time": 91, "note": 65, "velocity": 94, "channel": 0}, {"type": "note_on", "time": 44, "note": 62, "velocity": 103, "channel": 0}, {"type": "note_off", "time": 51, "note": 62, "velocity": 103, "channel": 0}, {"type": "note_on", "time": 44, "note": 65, "velocity": 93, "channel": 0}, {"type": "note_off", "time": 87, "note": 65, "velocity": 93, "channel": 0}, {"type": "note_on", "time": 105, "note": 65, "velocity": 115, "channel": 0}, {"type": "note_off", "time": 87, "note": 65, "velocity": 115, "channel": 0}, {"type": "note_on", "time": 63, "note": 68, "velocity": 93, "channel": 0}, {"type": "note_off", "time": 63, "note": 68, "velocity": 93, "channel": 0}, {"type": "note_on", "time": 67, "note": 75, "velocity": 93, "channel": 0}, {"type": "note_off", "time": 209, "note": 75, "velocity": 93, "channel": 0}, {"type": "note_on", "time": 244, "note": 75, "velocity": 96, "channel": 0}, {"type": "note_off", "time": 98, "note": 75, "velocity": 96, "channel": 0}, {"type": "note_on", "time": 17, "note": 79, "velocity": 109, "channel": 0}, {"type": "note_off", "time": 83, "note": 79, "velocity": 109, "channel": 0}, {"type": "note_on", "time": 0, "note": 82, "velocity": 123, "channel": 0}, {"type": "note_off", "time": 88, "note": 82, "velocity": 123, "channel": 0}, {"type": "note_on", "time": 0, "note": 86, "velocity": 92, "channel": 0}, {"type": "note_off", "time": 94, "note": 86, "velocity": 92, "channel": 0}, {"type": "note_on", "time": 8, "note": 87, "velocity": 99, "channel": 0}, {"type": "note_off", "time": 1536, "note": 87, "velocity": 99, "channel": 0}, {"type": "note_on", "time": 22, "note": 86, "velocity": 111, "channel": 0}, {"type": "note_off", "time": 166, "note": 86, "velocity": 111, "channel": 0}, {"type": "note_on", "time": 11, "note": 85, "velocity": 122, "channel": 0}, {"type": "note_off", "time": 87, "note": 85, "velocity": 122, "channel": 0}, {"type": "note_on", "time": 7, "note": 84, "velocity": 117, "channel": 0}, {"type": "note_off", "time": 110, "note": 84, "velocity": 117, "channel": 0}, {"type": "note_on", "time": 7, "note": 83, "velocity": 116, "channel": 0}, {"type": "note_on", "time": 94, "note": 82, "velocity": 118, "channel": 0}, {"type": "note_off", "time": 0, "note": 83, "velocity": 116, "channel": 0}, {"type": "note_off", "time": 75, "note": 82, "velocity": 118, "channel": 0}, {"type": "note_on", "time": 11, "note": 81, "velocity": 118, "channel": 0}, {"type": "note_off", "time": 94, "note": 81, "velocity": 118, "channel": 0}, {"type": "note_on", "time": 0, "note": 80, "velocity": 112, "channel": 0}, {"type": "note_off", "time": 91, "note": 80, "velocity": 112, "channel": 0}, {"type": "note_on", "time": 3, "note": 79, "velocity": 100, "channel": 0}, {"type": "note_off", "time": 83, "note": 79, "velocity": 100, "channel": 0}, {"type": "note_on", "time": 7, "note": 78, "velocity": 113, "channel": 0}, {"type": "note_off", "time": 102, "note": 78, "velocity": 113, "channel": 0}, {"type": "note_on", "time": 11, "note": 77, "velocity": 107, "channel": 0}, {"type": "note_off", "time": 91, "note": 77, "velocity": 107, "channel": 0}, {"type": "note_on", "time": 11, "note": 76, "velocity": 116, "channel": 0}, {"type": "note_off", "time": 71, "note": 76, "velocity": 116, "channel": 0}, {"type": "note_on", "time": 3, "note": 75, "velocity": 115, "channel": 0}, {"type": "note_off", "time": 63, "note": 75, "velocity": 115, "channel": 0}, {"type": "note_on", "time": 7, "note": 74, "velocity": 116, "channel": 0}, {"type": "note_off", "time": 118, "note": 74, "velocity": 116, "channel": 0}, {"type": "note_on", "time": 0, "note": 73, "velocity": 121, "channel": 0}, {"type": "note_off", "time": 94, "note": 73, "velocity": 121, "channel": 0}, {"type": "note_on", "time": 7, "note": 72, "velocity": 106, "channel": 0}, {"type": "note_off", "time": 158, "note": 72, "velocity": 106, "channel": 0}, {"type": "note_on", "time": 110, "note": 82, "velocity": 119, "channel": 0}, {"type": "note_off", "time": 102, "note": 82, "velocity": 119, "channel": 0}, {"type": "note_on", "time": 721, "note": 68, "velocity": 97, "channel": 0}, {"type": "note_off", "time": 84, "note": 68, "velocity": 97, "channel": 0}, {"type": "note_on", "time": 5, "note": 73, "velocity": 127, "channel": 0}, {"type": "note_off", "time": 83, "note": 73, "velocity": 127, "channel": 0}, {"type": "note_on", "time": 0, "note": 74, "velocity": 118, "channel": 0}, {"type": "note_off", "time": 79, "note": 74, "velocity": 118, "channel": 0}, {"type": "note_on", "time": 19, "note": 77, "velocity": 114, "channel": 0}, {"type": "note_off", "time": 94, "note": 77, "velocity": 114, "channel": 0}, {"type": "note_on", "time": 3, "note": 74, "velocity": 113, "channel": 0}, {"type": "note_off", "time": 75, "note": 74, "velocity": 113, "channel": 0}, {"type": "note_on", "time": 15, "note": 77, "velocity": 109, "channel": 0}, {"type": "note_off", "time": 79, "note": 77, "velocity": 109, "channel": 0}, {"type": "note_on", "time": 3, "note": 74, "velocity": 105, "channel": 0}, {"type": "note_off", "time": 91, "note": 74, "velocity": 105, "channel": 0}, {"type": "note_on", "time": 23, "note": 77, "velocity": 102, "channel": 0}, {"type": "note_off", "time": 67, "note": 77, "velocity": 102, "channel": 0}, {"type": "note_on", "time": 3, "note": 79, "velocity": 96, "channel": 0}, {"type": "note_off", "time": 91, "note": 79, "velocity": 96, "channel": 0}, {"type": "note_on", "time": 14, "note": 79, "velocity": 107, "channel": 0}, {"type": "note_off", "time": 91, "note": 79, "velocity": 107, "channel": 0}, {"type": "note_on", "time": 4, "note": 77, "velocity": 107, "channel": 0}, {"type": "note_off", "time": 87, "note": 77, "velocity": 107, "channel": 0}, {"type": "note_on", "time": 27, "note": 74, "velocity": 112, "channel": 0}, {"type": "note_off", "time": 91, "note": 74, "velocity": 112, "channel": 0}, {"type": "note_on", "time": 3, "note": 75, "velocity": 105, "channel": 0}, {"type": "note_off", "time": 91, "note": 75, "velocity": 105, "channel": 0}, {"type": "note_on", "time": 31, "note": 75, "velocity": 100, "channel": 0}, {"type": "note_off", "time": 126, "note": 75, "velocity": 100, "channel": 0}, {"type": "note_on", "time": 79, "note": 62, "velocity": 103, "channel": 0}, {"type": "note_off", "time": 55, "note": 62, "velocity": 103, "channel": 0}, {"type": "note_on", "time": 23, "note": 67, "velocity": 100, "channel": 0}, {"type": "note_off", "time": 47, "note": 67, "velocity": 100, "channel": 0}, {"type": "note_on", "time": 19, "note": 70, "velocity": 118, "channel": 0}, {"type": "note_off", "time": 75, "note": 70, "velocity": 118, "channel": 0}, {"type": "note_on", "time": 7, "note": 72, "velocity": 116, "channel": 0}, {"type": "note_off", "time": 83, "note": 72, "velocity": 116, "channel": 0}, {"type": "note_on", "time": 15, "note": 75, "velocity": 112, "channel": 0}, {"type": "note_off", "time": 87, "note": 75, "velocity": 112, "channel": 0}, {"type": "note_on", "time": 3, "note": 72, "velocity": 110, "channel": 0}, {"type": "note_off", "time": 79, "note": 72, "velocity": 110, "channel": 0}, {"type": "note_on", "time": 19, "note": 79, "velocity": 114, "channel": 0}, {"type": "note_off", "time": 98, "note": 79, "velocity": 114, "channel": 0}, {"type": "note_on", "time": 7, "note": 80, "velocity": 112, "channel": 0}, {"type": "note_off", "time": 63, "note": 80, "velocity": 112, "channel": 0}, {"type": "note_on", "time": 3, "note": 81, "velocity": 112, "channel": 0}, {"type": "note_off", "time": 94, "note": 81, "velocity": 112, "channel": 0}, {"type": "note_on", "time": 7, "note": 82, "velocity": 113, "channel": 0}, {"type": "note_off", "time": 91, "note": 82, "velocity": 113, "channel": 0}, {"type": "note_on", "time": 7, "note": 79, "velocity": 106, "channel": 0}, {"type": "note_off", "time": 134, "note": 79, "velocity": 106, "channel": 0}, {"type": "note_on", "time": 47, "note": 78, "velocity": 95, "channel": 0}, {"type": "note_off", "time": 166, "note": 78, "velocity": 95, "channel": 0}, {"type": "end_of_track", "time": 0}]]}