{"ticks_per_beat": 192, "tracks": [[{"type": "track_name", "name": "Melody", "time": 0}, {"type": "set_tempo", "tempo": 209059, "time": 0}, {"type": "key_signature", "key": "Bb", "time": 0}, {"type": "time_signature", "numerator": 4, "denominator": 4, "clocks_per_click": 24, "notated_32nd_notes_per_beat": 8, "time": 0}, {"type": "note_on", "time": 3049, "note": 78, "velocity": 122, "channel": 0}, {"type": "note_off", "time": 111, "note": 78, "velocity": 122, "channel": 0}, {"type": "note_on", "time": 15, "note": 79, "velocity": 110, "channel": 0}, {"type": "note_off", "time": 730, "note": 79, "velocity": 110, "channel": 0}, {"type": "note_on", "time": 68, "note": 77, "velocity": 108, "channel": 0}, {"type": "note_off", "time": 54, "note": 77, "velocity": 108, "channel": 0}, {"type": "note_on", "time": 8, "note": 74, "velocity": 105, "channel": 0}, {"type": "note_off", "time": 97, "note": 74, "velocity": 105, "channel": 0}, {"type": "note_on", "time": 11, "note": 70, "velocity": 105, "channel": 0}, {"type": "note_off", "time": 59, "note": 70, "velocity": 105, "channel": 0}, {"type": "note_on", "time": 35, "note": 67, "velocity": 109, "channel": 0}, {"type": "note_off", "time": 73, "note": 67, "velocity": 109, "channel": 0}, {"type": "note_on", "time": 11, "note": 65, "velocity": 98, "channel": 0}, {"type": "note_off", "time": 63, "note": 65, "velocity": 98, "channel": 0}, {"type": "note_on", "time": 7, "note": 73, "velocity": 113, "channel": 0}, {"type": "note_off", "time": 138, "note": 73, "velocity": 113, "channel": 0}, {"type": "note_on", "time": 9, "note": 72, "velocity": 99, "channel": 0}, {"type": "note_off", "time": 63, "note": 72, "velocity": 99, "channel": 0}, {"type": "note_on", "time": 5, "note": 73, "velocity": 111, "channel": 0}, {"type": "note_off", "time": 172, "note": 73, "velocity": 111, "channel": 0}, {"type": "note_on", "time": 18, "note": 72, "velocity": 107, "channel": 0}, {"type": "note_off", "time": 95, "note": 72, "velocity": 107, "channel": 0}, {"type": "note_on", "time": 15, "note": 70, "velocity": 101, "channel": 0}, {"type": "note_off", "time": 51, "note": 70, "velocity": 101, "channel": 0}, {"type": "note_on", "time": 14, "note": 67, "velocity": 108, "channel": 0}, {"type": "note_off", "time": 115, "note": 67, "velocity": 108, "channel": 0}, {"type": "note_on", "time": 26, "note": 65, "velocity": 95, "channel": 0}, {"type": "note_off", "time": 43, "note": 65, "velocity": 95, "channel": 0}, {"type": "note_on", "time": 5, "note": 70, "velocity": 104, "channel": 0}, {"type": "note_off", "time": 283, "note": 70, "velocity": 104, "channel": 0}, {"type": "note_on", "time": 33, "note": 65, "velocity": 100, "channel": 0}, {"type": "note_off", "time": 302, "note": 65, "velocity": 100, "channel": 0}, {"type": "note_on", "time": 337, "note": 82, "velocity": 100, "channel": 0}, {"type": "note_off", "time": 714, "note": 82, "velocity": 100, "channel": 0}, {"type": "note_on", "time": 67, "note": 79, "velocity": 117, "channel": 0}, {"type": "note_off", "time": 122, "note": 79, "velocity": 117, "channel": 0}, {"type": "note_on", "time": 3, "note": 82, "velocity": 98, "channel": 0}, {"type": "note_off", "time": 37, "note": 82, "velocity": 98, "channel": 0}, {"type": "note_on", "time": 9, "note": 79, "velocity": 102, "channel": 0}, {"type": "note_off", "time": 53, "note": 79, "velocity": 102, "channel": 0}, {"type": "note_on", "time": 5, "note": 82, "velocity": 93, "channel": 0}, {"type": "note_off", "time": 34, "note": 82, "velocity": 93, "channel": 0}, {"type": "note_on", "time": 10, "note": 79, "velocity": 110, "channel": 0}, {"type": "note_off", "time": 86, "note": 79, "velocity": 110, "channel": 0}, {"type": "note_on", "time": 17, "note": 77, "velocity": 108, "channel": 0}, {"type": "note_off", "time": 115, "note": 77, "velocity": 108, "channel": 0}, {"type": "note_on", "time": 5, "note": 79, "velocity": 112, "channel": 0}, {"type": "note_off", "time": 79, "note": 79, "velocity": 112, "channel": 0}, {"type": "note_on", "time": 6, "note": 77, "velocity": 99, "channel": 0}, {"type": "note_off", "time": 23, "note": 77, "velocity": 99, "channel": 0}, {"type": "note_on", "time": 11, "note": 79, "velocity": 105, "channel": 0}, {"type": "note_off", "time": 25, "note": 79, "velocity": 105, "channel": 0}, {"type": "note_on", "time": 23, "note": 77, "velocity": 101, "channel": 0}, {"type": "note_off", "time": 67, "note": 77, "velocity": 101, "channel": 0}, {"type": "note_on", "time": 27, "note": 75, "velocity": 104, "channel": 0}, {"type": "note_off", "time": 57, "note": 75, "velocity": 104, "channel": 0}, {"type": "note_on", "time": 42, "note": 77, "velocity": 106, "channel": 0}, {"type": "note_off", "time": 49, "note": 77, "velocity": 106, "channel": 0}, {"type": "note_on", "time": 23, "note": 75, "velocity": 104, "channel": 0}, {"type": "note_off", "time": 30, "note": 75, "velocity": 104, "channel": 0}, {"type": "note_on", "time": 7, "note": 77, "velocity": 103, "channel": 0}, {"type": "note_off", "time": 49, "note": 77, "velocity": 103, "channel": 0}, {"type": "note_on", "time": 13, "note": 75, "velocity": 99, "channel": 0}, {"type": "note_off", "time": 74, "note": 75, "velocity": 99, "channel": 0}, {"type": "note_on", "time": 22, "note": 72, "velocity": 107, "channel": 0}, {"type": "note_off", "time": 105, "note": 72, "velocity": 107, "channel": 0}, {"type": "note_on", "time": 11, "note": 75, "velocity": 106, "channel": 0}, {"type": "note_off", "time": 54, "note": 75, "velocity": 106, "channel": 0}, {"type": "note_on", "time": 18, "note": 74, "velocity": 102, "channel": 0}, {"type": "note_off", "time": 226, "note": 74, "velocity": 102, "channel": 0}, {"type": "note_on", "time": 108, "note": 70, "velocity": 95, "channel": 0}, {"type": "note_off", "time": 53, "note": 70, "velocity": 95, "channel": 0}, {"type": "note_on", "time": 23, "note": 72, "velocity": 111, "channel": 0}, {"type": "note_off", "time": 93, "note": 72, "velocity": 111, "channel": 0}, {"type": "note_on", "time": 22, "note": 74, "velocity": 111, "channel": 0}, {"type": "note_off", "time": 45, "note": 74, "velocity": 111, "channel": 0}, {"type": "note_on", "time": 22, "note": 77, "velocity": 99, "channel": 0}, {"type": "note_off", "time": 90, "note": 77, "velocity": 99, "channel": 0}, {"type": "note_on", "time": 19, "note": 74, "velocity": 102, "channel": 0}, {"type": "note_off", "time": 77, "note": 74, "velocity": 102, "channel": 0}, {"type": "note_on", "time": 10, "note": 79, "velocity": 115, "channel": 0}, {"type": "note_off", "time": 98, "note": 79, "velocity": 115, "channel": 0}, {"type": "note_on", "time": 7, "note": 77, "velocity": 104, "channel": 0}, {"type": "note_off", "time": 47, "note": 77, "velocity": 104, "channel": 0}, {"type": "note_on", "time": 18, "note": 74, "velocity": 106, "channel": 0}, {"type": "note_off", "time": 94, "note": 74, "velocity": 106, "channel": 0}, {"type": "note_on", "time": 33, "note": 70, "velocity": 95, "channel": 0}, {"type": "note_off", "time": 50, "note": 70, "velocity": 95, "channel": 0}, {"type": "note_on", "time": 8, "note": 67, "velocity": 102, "channel": 0}, {"type": "note_off", "time": 99, "note": 67, "velocity": 102, "channel": 0}, {"type": "note_on", "time": 26, "note": 65, "velocity": 99, "channel": 0}, {"type": "note_off", "time": 77, "note": 65, "velocity": 99, "channel": 0}, {"type": "note_on", "time": 15, "note": 73, "velocity": 115, "channel": 0}, {"type": "note_off", "time": 98, "note": 73, "velocity": 115, "channel": 0}, {"type": "note_on", "time": 6, "note": 74, "velocity": 110, "channel": 0}, {"type": "note_off", "time": 57, "note": 74, "velocity": 110, "channel": 0}, {"type": "note_on", "time": 10, "note": 75, "velocity": 112, "channel": 0}, {"type": "note_off", "time": 107, "note": 75, "velocity": 112, "channel": 0}, {"type": "note_on", "time": 176, "note": 65, "velocity": 110, "channel": 0}, {"type": "note_off", "time": 42, "note": 65, "velocity": 110, "channel": 0}, {"type": "note_on", "time": 6, "note": 67, "velocity": 106, "channel": 0}, {"type": "note_off", "time": 48, "note": 67, "velocity": 106, "channel": 0}, {"type": "note_on", "time": 12, "note": 72, "velocity": 112, "channel": 0}, {"type": "note_off", "time": 98, "note": 72, "velocity": 112, "channel": 0}, {"type": "note_on", "time": 18, "note": 75, "velocity": 107, "channel": 0}, {"type": "note_off", "time": 58, "note": 75, "velocity": 107, "channel": 0}, {"type": "note_on", "time": 21, "note": 79, "velocity": 120, "channel": 0}, {"type": "note_off", "time": 106, "note": 79, "velocity": 120, "channel": 0}, {"type": "note_on", "time": 14, "note": 82, "velocity": 108, "channel": 0}, {"type": "note_off", "time": 47, "note": 82, "velocity": 108, "channel": 0}, {"type": "note_on", "time": 9, "note": 86, "velocity": 117, "channel": 0}, {"type": "note_off", "time": 573, "note": 86, "velocity": 117, "channel": 0}, {"type": "note_on", "time": 18, "note": 84, "velocity": 104, "channel": 0}, {"type": "note_off", "time": 93, "note": 84, "velocity": 104, "channel": 0}, {"type": "note_on", "time": 24, "note": 82, "velocity": 103, "channel": 0}, {"type": "note_off", "time": 89, "note": 82, "velocity": 103, "channel": 0}, {"type": "note_on", "time": 82, "note": 79, "velocity": 98, "channel": 0}, {"type": "note_off", "time": 387, "note": 79, "velocity": 98, "channel": 0}, {"type": "note_on", "time": 401, "note": 67, "velocity": 108, "channel": 0}, {"type": "note_off", "time": 42, "note": 67, "velocity": 108, "channel": 0}, {"type": "note_on", "time": 22, "note": 70, "velocity": 113, "channel": 0}, {"type": "note_off", "time": 87, "note": 70, "velocity": 113, "channel": 0}, {"type": "note_on", "time": 26, "note": 74, "velocity": 112, "channel": 0}, {"type": "note_off", "time": 42, "note": 74, "velocity": 112, "channel": 0}, {"type": "note_on", "time": 25, "note": 79, "velocity": 123, "channel": 0}, {"type": "note_off", "time": 106, "note": 79, "velocity": 123, "channel": 0}, {"type": "note_on", "time": 198, "note": 67, "velocity": 106, "channel": 0}, {"type": "note_off", "time": 59, "note": 67, "velocity": 106, "channel": 0}, {"type": "note_on", "time": 10, "note": 69, "velocity": 125, "channel": 0}, {"type": "note_off", "time": 110, "note": 69, "velocity": 125, "channel": 0}, {"type": "note_on", "time": 21, "note": 72, "velocity": 113, "channel": 0}, {"type": "note_off", "time": 42, "note": 72, "velocity": 113, "channel": 0}, {"type": "note_on", "time": 34, "note": 77, "velocity": 107, "channel": 0}, {"type": "note_off", "time": 107, "note": 77, "velocity": 107, "channel": 0}, {"type": "note_on", "time": 4, "note": 81, "velocity": 101, "channel": 0}, {"type": "note_off", "time": 50, "note": 81, "velocity": 101, "channel": 0}, {"type": "note_on", "time": 11, "note": 84, "velocity": 109, "channel": 0}, {"type": "note_off", "time": 94, "note": 84, "velocity": 109, "channel": 0}, {"type": "note_on", "time": 86, "note": 84, "velocity": 106, "channel": 0}, {"type": "note_off", "time": 113, "note": 84, "velocity": 106, "channel": 0}, {"type": "note_on", "time": 87, "note": 84, "velocity": 100, "channel": 0}, {"type": "note_off", "time": 293, "note": 84, "velocity": 100, "channel": 0}, {"type": "note_on", "time": 25, "note": 81, "velocity": 109, "channel": 0}, {"type": "note_off", "time": 78, "note": 81, "velocity": 109, "channel": 0}, {"type": "note_on", "time": 18, "note": 83, "velocity": 113, "channel": 0}, {"type": "note_off", "time": 162, "note": 83, "velocity": 113, "channel": 0}, {"type": "note_on", "time": 7, "note": 84, "velocity": 107, "channel": 0}, {"type": "note_off", "time": 77, "note": 84, "velocity": 107, "channel": 0}, {"type": "note_on", "time": 120, "note": 79, "velocity": 120, "channel": 0}, {"type": "note_off", "time": 132, "note": 79, "velocity": 120, "channel": 0}, {"type": "note_on", "time": 3, "note": 80, "velocity": 109, "channel": 0}, {"type": "note_off", "time": 167, "note": 80, "velocity": 109, "channel": 0}, {"type": "note_on", "time": 8, "note": 79, "velocity": 104, "channel": 0}, {"type": "note_off", "time": 233, "note": 79, "velocity": 104, "channel": 0}, {"type": "note_on", "time": 30, "note": 77, "velocity": 104, "channel": 0}, {"type": "note_off", "time": 95, "note": 77, "velocity": 104, "channel": 0}, {"type": "note_on", "time": 14, "note": 79, "velocity": 117, "channel": 0}, {"type": "note_off", "time": 81, "note": 79, "velocity": 117, "channel": 0}, {"type": "note_on", "time": 6, "note": 80, "velocity": 99, "channel": 0}, {"type": "note_off", "time": 85, "note": 80, "velocity": 99, "channel": 0}, {"type": "note_on", "time": 8, "note": 80, "velocity": 113, "channel": 0}, {"type": "note_off", "time": 259, "note": 80, "velocity": 113, "channel": 0}, {"type": "note_on", "time": 6, "note": 79, "velocity": 112, "channel": 0}, {"type": "note_off", "time": 131, "note": 79, "velocity": 112, "channel": 0}, {"type": "note_on", "time": 119, "note": 72, "velocity": 119, "channel": 0}, {"type": "note_off", "time": 22, "note": 72, "velocity": 119, "channel": 0}, {"type": "note_on", "time": 4, "note": 73, "velocity": 114, "channel": 0}, {"type": "note_off", "time": 60, "note": 73, "velocity": 114, "channel": 0}, {"type": "note_on", "time": 5, "note": 74, "velocity": 105, "channel": 0}, {"type": "note_off", "time": 39, "note": 74, "velocity": 105, "channel": 0}, {"type": "note_on", "time": 15, "note": 77, "velocity": 111, "channel": 0}, {"type": "note_off", "time": 85, "note": 77, "velocity": 111, "channel": 0}, {"type": "note_on", "time": 112, "note": 77, "velocity": 109, "channel": 0}, {"type": "note_off", "time": 118, "note": 77, "velocity": 109, "channel": 0}, {"type": "note_on", "time": 70, "note": 80, "velocity": 115, "channel": 0}, {"type": "note_off", "time": 67, "note": 80, "velocity": 115, "channel": 0}, {"type": "note_on", "time": 13, "note": 79, "velocity": 112, "channel": 0}, {"type": "note_off", "time": 47, "note": 79, "velocity": 112, "channel": 0}, {"type": "note_on", "time": 7, "note": 77, "velocity": 108, "channel": 0}, {"type": "note_off", "time": 33, "note": 77, "velocity": 108, "channel": 0}, {"type": "note_on", "time": 5, "note": 73, "velocity": 116, "channel": 0}, {"type": "note_off", "time": 138, "note": 73, "velocity": 116, "channel": 0}, {"type": "note_on", "time": 8, "note": 74, "velocity": 100, "channel": 0}, {"type": "note_off", "time": 42, "note": 74, "velocity": 100, "channel": 0}, {"type": "note_on", "time": 3, "note": 77, "velocity": 108, "channel": 0}, {"type": "note_off", "time": 126, "note": 77, "velocity": 108, "channel": 0}, {"type": "note_on", "time": 51, "note": 77, "velocity": 113, "channel": 0}, {"type": "note_off", "time": 111, "note": 77, "velocity": 113, "channel": 0}, {"type": "note_on", "time": 95, "note": 80, "velocity": 117, "channel": 0}, {"type": "note_off", "time": 78, "note": 80, "velocity": 117, "channel": 0}, {"type": "note_on", "time": 5, "note": 79, "velocity": 114, "channel": 0}, {"type": "note_off", "time": 42, "note": 79, "velocity": 114, "channel": 0}, {"type": "note_on", "time": 11, "note": 77, "velocity": 114, "channel": 0}, {"type": "note_off", "time": 31, "note": 77, "velocity": 114, "channel": 0}, {"type": "note_on", "time": 30, "note": 73, "velocity": 120, "channel": 0}, {"type": "note_off", "time": 78, "note": 73, "velocity": 120, "channel": 0}, {"type": "note_on", "time": 15, "note": 74, "velocity": 101, "channel": 0}, {"type": "note_off", "time": 47, "note": 74, "velocity": 101, "channel": 0}, {"type": "note_on", "time": 37, "note": 77, "velocity": 107, "channel": 0}, {"type": "note_off", "time": 97, "note": 77, "velocity": 107, "channel": 0}, {"type": "note_on", "time": 94, "note": 77, "velocity": 111, "channel": 0}, {"type": "note_off", "time": 111, "note": 77, "velocity": 111, "channel": 0}, {"type": "note_on", "time": 71, "note": 80, "velocity": 116, "channel": 0}, {"type": "note_off", "time": 82, "note": 80, "velocity": 116, "channel": 0}, {"type": "note_on", "time": 10, "note": 79, "velocity": 112, "channel": 0}, {"type": "note_off", "time": 54, "note": 79, "velocity": 112, "channel": 0}, {"type": "note_on", "time": 13, "note": 77, "velocity": 106, "channel": 0}, {"type": "note_off", "time": 23, "note": 77, "velocity": 106, "channel": 0}, {"type": "note_on", "time": 13, "note": 73, "velocity": 118, "channel": 0}, {"type": "note_off", "time": 85, "note": 73, "velocity": 118, "channel": 0}, {"type": "note_on", "time": 19, "note": 74, "velocity": 108, "channel": 0}, {"type": "note_off", "time": 51, "note": 74, "velocity": 108, "channel": 0}, {"type": "note_on", "time": 39, "note": 82, "velocity": 97, "channel": 0}, {"type": "note_off", "time": 94, "note": 82, "velocity": 97, "channel": 0}, {"type": "note_on", "time": 9, "note": 81, "velocity": 102, "channel": 0}, {"type": "note_off", "time": 70, "note": 81, "velocity": 102, "channel": 0}, {"type": "note_on", "time": 3, "note": 82, "velocity": 96, "channel": 0}, {"type": "note_off", "time": 79, "note": 82, "velocity": 96, "channel": 0}, {"type": "note_on", "time": 15, "note": 81, "velocity": 102, "channel": 0}, {"type": "note_off", "time": 79, "note": 81, "velocity": 102, "channel": 0}, {"type": "note_on", "time": 10, "note": 80, "velocity": 104, "channel": 0}, {"type": "note_off", "time": 85, "note": 80, "velocity": 104, "channel": 0}, {"type": "note_on", "time": 29, "note": 77, "velocity": 106, "channel": 0}, {"type": "note_off", "time": 53, "note": 77, "velocity": 106, "channel": 0}, {"type": "note_on", "time": 13, "note": 74, "velocity": 100, "channel": 0}, {"type": "note_off", "time": 93, "note": 74, "velocity": 100, "channel": 0}, {"type": "note_on", "time": 15, "note": 72, "velocity": 94, "channel": 0}, {"type": "note_off", "time": 35, "note": 72, "velocity": 94, "channel": 0}, {"type": "note_on", "time": 2, "note": 74, "velocity": 80, "channel": 0}, {"type": "note_off", "time": 47, "note": 74, "velocity": 80, "channel": 0}, {"type": "note_on", "time": 1, "note": 79, "velocity": 100, "channel": 0}, {"type": "note_off", "time": 251, "note": 79, "velocity": 100, "channel": 0}, {"type": "note_on", "time": 167, "note": 63, "velocity": 104, "channel": 0}, {"type": "note_off", "time": 86, "note": 63, "velocity": 104, "channel": 0}, {"type": "note_on", "time": 17, "note": 67, "velocity": 105, "channel": 0}, {"type": "note_off", "time": 75, "note": 67, "velocity": 105, "channel": 0}, {"type": "note_on", "time": 10, "note": 70, "velocity": 111, "channel": 0}, {"type": "note_off", "time": 93, "note": 70, "velocity": 111, "channel": 0}, {"type": "note_on", "time": 10, "note": 75, "velocity": 104, "channel": 0}, {"type": "note_off", "time": 74, "note": 75, "velocity": 104, "channel": 0}, {"type": "note_on", "time": 7, "note": 79, "velocity": 118, "channel": 0}, {"type": "note_off", "time": 105, "note": 79, "velocity": 118, "channel": 0}, {"type": "note_on", "time": 17, "note": 82, "velocity": 107, "channel": 0}, {"type": "note_off", "time": 34, "note": 82, "velocity": 107, "channel": 0}, {"type": "note_on", "time": 16, "note": 87, "velocity": 98, "channel": 0}, {"type": "note_off", "time": 521, "note": 87, "velocity": 98, "channel": 0}, {"type": "note_on", "time": 55, "note": 86, "velocity": 118, "channel": 0}, {"type": "note_off", "time": 157, "note": 86, "velocity": 118, "channel": 0}, {"type": "note_on", "time": 270, "note": 75, "velocity": 115, "channel": 0}, {"type": "note_off", "time": 175, "note": 75, "velocity": 115, "channel": 0}, {"type": "note_on", "time": 9, "note": 74, "velocity": 121, "channel": 0}, {"type": "note_off", "time": 141, "note": 74, "velocity": 121, "channel": 0}, {"type": "note_on", "time": 235, "note": 62, "velocity": 120, "channel": 0}, {"type": "note_off", "time": 65, "note": 62, "velocity": 120, "channel": 0}, {"type": "note_on", "time": 3, "note": 63, "velocity": 108, "channel": 0}, {"type": "note_off", "time": 149, "note": 63, "velocity": 108, "channel": 0}, {"type": "note_on", "time": 7, "note": 62, "velocity": 105, "channel": 0}, {"type": "note_off", "time": 118, "note": 62, "velocity": 105, "channel": 0}, {"type": "note_on", "time": 469, "note": 72, "velocity": 127, "channel": 0}, {"type": "note_off", "time": 65, "note": 72, "velocity": 127, "channel": 0}, {"type": "note_on", "time": 10, "note": 73, "velocity": 120, "channel": 0}, {"type": "note_off", "time": 331, "note": 73, "velocity": 120, "channel": 0}, {"type": "note_on", "time": 22, "note": 72, "velocity": 112, "channel": 0}, {"type": "note_off", "time": 493, "note": 72, "velocity": 112, "channel": 0}, {"type": "note_on", "time": 51, "note": 70, "velocity": 112, "channel": 0}, {"type": "note_off", "time": 114, "note": 70, "velocity": 112, "channel": 0}, {"type": "note_on", "time": 110, "note": 72, "velocity": 120, "channel": 0}, {"type": "note_off", "time": 113, "note": 72, "velocity": 120, "channel": 0}, {"type": "note_on", "time": 3, "note": 73, "velocity": 112, "channel": 0}, {"type": "note_off", "time": 223, "note": 73, "velocity": 112, "channel": 0}, {"type": "note_on", "time": 31, "note": 70, "velocity": 111, "channel": 0}, {"type": "note_off", "time": 122, "note": 70, "velocity": 111, "channel": 0}, {"type": "note_on", "time": 59, "note": 72, "velocity": 115, "channel": 0}, {"type": "note_off", "time": 47, "note": 72, "velocity": 115, "channel": 0}, {"type": "note_on", "time": 1, "note": 73, "velocity": 112, "channel": 0}, {"type": "note_off", "time": 128, "note": 73, "velocity": 112, "channel": 0}, {"type": "note_on", "time": 43, "note": 70, "velocity": 105, "channel": 0}, {"type": "note_off", "time": 59, "note": 70, "velocity": 105, "channel": 0}, {"type": "note_on", "time": 102, "note": 77, "velocity": 113, "channel": 0}, {"type": "note_off", "time": 138, "note": 77, "velocity": 113, "channel": 0}, {"type": "note_on", "time": 58, "note": 75, "velocity": 107, "channel": 0}, {"type": "note_off", "time": 121, "note": 75, "velocity": 107, "channel": 0}, {"type": "note_on", "time": 89, "note": 73, "velocity": 110, "channel": 0}, {"type": "note_off", "time": 155, "note": 73, "velocity": 110, "channel": 0}, {"type": "note_on", "time": 41, "note": 70, "velocity": 112, "channel": 0}, {"type": "note_off", "time": 138, "note": 70, "velocity": 112, "channel": 0}, {"type": "note_on", "time": 80, "note": 73, "velocity": 110, "channel": 0}, {"type": "note_off", "time": 140, "note": 73, "velocity": 110, "channel": 0}, {"type": "note_on", "time": 55, "note": 70, "velocity": 103, "channel": 0}, {"type": "note_off", "time": 130, "note": 70, "velocity": 103, "channel": 0}, {"type": "note_on", "time": 45, "note": 73, "velocity": 114, "channel": 0}, {"type": "note_off", "time": 157, "note": 73, "velocity": 114, "channel": 0}, {"type": "note_on", "time": 48, "note": 70, "velocity": 94, "channel": 0}, {"type": "note_off", "time": 50, "note": 70, "velocity": 94, "channel": 0}, {"type": "note_on", "time": 60, "note": 77, "velocity": 104, "channel": 0}, {"type": "note_off", "time": 149, "note": 77, "velocity": 104, "channel": 0}, {"type": "note_on", "time": 51, "note": 75, "velocity": 100, "channel": 0}, {"type": "note_off", "time": 205, "note": 75, "velocity": 100, "channel": 0}, {"type": "note_on", "time": 46, "note": 73, "velocity": 116, "channel": 0}, {"type": "note_off", "time": 130, "note": 73, "velocity": 116, "channel": 0}, {"type": "note_on", "time": 10, "note": 70, "velocity": 107, "channel": 0}, {"type": "note_off", "time": 67, "note": 70, "velocity": 107, "channel": 0}, {"type": "note_on", "time": 21, "note": 67, "velocity": 111, "channel": 0}, {"type": "note_off", "time": 105, "note": 67, "velocity": 111, "channel": 0}, {"type": "note_on", "time": 7, "note": 65, "velocity": 100, "channel": 0}, {"type": "note_off", "time": 39, "note": 65, "velocity": 100, "channel": 0}, {"type": "note_on", "time": 15, "note": 70, "velocity": 111, "channel": 0}, {"type": "note_off", "time": 118, "note": 70, "velocity": 111, "channel": 0}, {"type": "note_on", "time": 97, "note": 70, "velocity": 107, "channel": 0}, {"type": "note_off", "time": 170, "note": 70, "velocity": 107, "channel": 0}, {"type": "note_on", "time": 21, "note": 67, "velocity": 113, "channel": 0}, {"type": "note_off", "time": 122, "note": 67, "velocity": 113, "channel": 0}, {"type": "note_on", "time": 9, "note": 65, "velocity": 104, "channel": 0}, {"type": "note_off", "time": 66, "note": 65, "velocity": 104, "channel": 0}, {"type": "note_on", "time": 171, "note": 70, "velocity": 96, "channel": 0}, {"type": "note_off", "time": 273, "note": 70, "velocity": 96, "channel": 0}, {"type": "note_on", "time": 229, "note": 67, "velocity": 105, "channel": 0}, {"type": "note_off", "time": 59, "note": 67, "velocity": 105, "channel": 0}, {"type": "note_on", "time": 26, "note": 70, "velocity": 112, "channel": 0}, {"type": "note_off", "time": 83, "note": 70, "velocity": 112, "channel": 0}, {"type": "note_on", "time": 23, "note": 74, "velocity": 113, "channel": 0}, {"type": "note_off", "time": 87, "note": 74, "velocity": 113, "channel": 0}, {"type": "note_on", "time": 3, "note": 77, "velocity": 102, "channel": 0}, {"type": "note_off", "time": 162, "note": 77, "velocity": 102, "channel": 0}, {"type": "end_of_track", "time": 0}]]}