{"ticks_per_beat": 192, "tracks": [[{"type": "track_name", "name": "Melody", "time": 0}, {"type": "set_tempo", "tempo": 247933, "time": 0}, {"type": "key_signature", "key": "Eb", "time": 0}, {"type": "time_signature", "numerator": 4, "denominator": 4, "clocks_per_click": 24, "notated_32nd_notes_per_beat": 8, "time": 0}, {"type": "note_on", "time": 3405, "note": 81, "velocity": 116, "channel": 0}, {"type": "note_off", "time": 312, "note": 81, "velocity": 116, "channel": 0}, {"type": "note_on", "time": 18, "note": 82, "velocity": 113, "channel": 0}, {"type": "note_off", "time": 521, "note": 82, "velocity": 113, "channel": 0}, {"type": "note_on", "time": 120, "note": 81, "velocity": 122, "channel": 0}, {"type": "note_off", "time": 56, "note": 81, "velocity": 122, "channel": 0}, {"type": "note_on", "time": 4, "note": 82, "velocity": 118, "channel": 0}, {"type": "note_off", "time": 37, "note": 82, "velocity": 118, "channel": 0}, {"type": "note_on", "time": 11, "note": 81, "velocity": 120, "channel": 0}, {"type": "note_off", "time": 53, "note": 81, "velocity": 120, "channel": 0}, {"type": "note_on", "time": 31, "note": 80, "velocity": 107, "channel": 0}, {"type": "note_off", "time": 161, "note": 80, "velocity": 107, "channel": 0}, {"type": "note_on", "time": 23, "note": 79, "velocity": 109, "channel": 0}, {"type": "note_off", "time": 178, "note": 79, "velocity": 109, "channel": 0}, {"type": "note_on", "time": 14, "note": 78, "velocity": 116, "channel": 0}, {"type": "note_off", "time": 161, "note": 78, "velocity": 116, "channel": 0}, {"type": "note_on", "time": 56, "note": 77, "velocity": 117, "channel": 0}, {"type": "note_off", "time": 143, "note": 77, "velocity": 117, "channel": 0}, {"type": "note_on", "time": 15, "note": 75, "velocity": 120, "channel": 0}, {"type": "note_off", "time": 118, "note": 75, "velocity": 120, "channel": 0}, {"type": "note_on", "time": 30, "note": 72, "velocity": 106, "channel": 0}, {"type": "note_off", "time": 99, "note": 72, "velocity": 106, "channel": 0}, {"type": "note_on", "time": 115, "note": 72, "velocity": 89, "channel": 0}, {"type": "note_off", "time": 433, "note": 72, "velocity": 89, "channel": 0}, {"type": "note_on", "time": 219, "note": 70, "velocity": 102, "channel": 0}, {"type": "note_off", "time": 94, "note": 70, "velocity": 102, "channel": 0}, {"type": "note_on", "time": 12, "note": 72, "velocity": 105, "channel": 0}, {"type": "note_off", "time": 69, "note": 72, "velocity": 105, "channel": 0}, {"type": "note_on", "time": 11, "note": 75, "velocity": 117, "channel": 0}, {"type": "note_off", "time": 116, "note": 75, "velocity": 117, "channel": 0}, {"type": "note_on", "time": 14, "note": 77, "velocity": 125, "channel": 0}, {"type": "note_off", "time": 71, "note": 77, "velocity": 125, "channel": 0}, {"type": "note_on", "time": 0, "note": 78, "velocity": 110, "channel": 0}, {"type": "note_off", "time": 58, "note": 78, "velocity": 110, "channel": 0}, {"type": "note_on", "time": 48, "note": 75, "velocity": 115, "channel": 0}, {"type": "note_off", "time": 74, "note": 75, "velocity": 115, "channel": 0}, {"type": "note_on", "time": 15, "note": 77, "velocity": 121, "channel": 0}, {"type": "note_off", "time": 107, "note": 77, "velocity": 121, "channel": 0}, {"type": "note_on", "time": 74, "note": 77, "velocity": 117, "channel": 0}, {"type": "note_off", "time": 118, "note": 77, "velocity": 117, "channel": 0}, {"type": "note_on", "time": 14, "note": 75, "velocity": 111, "channel": 0}, {"type": "note_off", "time": 69, "note": 75, "velocity": 111, "channel": 0}, {"type": "note_on", "time": 12, "note": 72, "velocity": 80, "channel": 0}, {"type": "note_off", "time": 137, "note": 72, "velocity": 80, "channel": 0}, {"type": "note_on", "time": 42, "note": 75, "velocity": 97, "channel": 0}, {"type": "note_off", "time": 337, "note": 75, "velocity": 97, "channel": 0}, {"type": "note_on", "time": 481, "note": 72, "velocity": 111, "channel": 0}, {"type": "note_off", "time": 69, "note": 72, "velocity": 111, "channel": 0}, {"type": "note_on", "time": 15, "note": 75, "velocity": 109, "channel": 0}, {"type": "note_off", "time": 28, "note": 75, "velocity": 109, "channel": 0}, {"type": "note_on", "time": 7, "note": 79, "velocity": 102, "channel": 0}, {"type": "note_off", "time": 40, "note": 79, "velocity": 102, "channel": 0}, {"type": "note_on", "time": 3, "note": 84, "velocity": 118, "channel": 0}, {"type": "note_off", "time": 105, "note": 84, "velocity": 118, "channel": 0}, {"type": "note_on", "time": 75, "note": 79, "velocity": 117, "channel": 0}, {"type": "note_off", "time": 151, "note": 79, "velocity": 117, "channel": 0}, {"type": "note_on", "time": 41, "note": 82, "velocity": 104, "channel": 0}, {"type": "note_off", "time": 178, "note": 82, "velocity": 104, "channel": 0}, {"type": "note_on", "time": 348, "note": 66, "velocity": 98, "channel": 0}, {"type": "note_off", "time": 35, "note": 66, "velocity": 98, "channel": 0}, {"type": "note_on", "time": 9, "note": 68, "velocity": 112, "channel": 0}, {"type": "note_off", "time": 28, "note": 68, "velocity": 112, "channel": 0}, {"type": "note_on", "time": 3, "note": 70, "velocity": 112, "channel": 0}, {"type": "note_off", "time": 91, "note": 70, "velocity": 112, "channel": 0}, {"type": "note_on", "time": 20, "note": 75, "velocity": 127, "channel": 0}, {"type": "note_off", "time": 64, "note": 75, "velocity": 127, "channel": 0}, {"type": "note_on", "time": 12, "note": 79, "velocity": 113, "channel": 0}, {"type": "note_off", "time": 91, "note": 79, "velocity": 113, "channel": 0}, {"type": "note_on", "time": 12, "note": 82, "velocity": 117, "channel": 0}, {"type": "note_off", "time": 79, "note": 82, "velocity": 117, "channel": 0}, {"type": "note_on", "time": 11, "note": 81, "velocity": 113, "channel": 0}, {"type": "note_off", "time": 94, "note": 81, "velocity": 113, "channel": 0}, {"type": "note_on", "time": 9, "note": 82, "velocity": 117, "channel": 0}, {"type": "note_off", "time": 67, "note": 82, "velocity": 117, "channel": 0}, {"type": "note_on", "time": 18, "note": 80, "velocity": 109, "channel": 0}, {"type": "note_off", "time": 96, "note": 80, "velocity": 109, "channel": 0}, {"type": "note_on", "time": 15, "note": 82, "velocity": 113, "channel": 0}, {"type": "note_off", "time": 72, "note": 82, "velocity": 113, "channel": 0}, {"type": "note_on", "time": 18, "note": 79, "velocity": 109, "channel": 0}, {"type": "note_off", "time": 99, "note": 79, "velocity": 109, "channel": 0}, {"type": "note_on", "time": 17, "note": 82, "velocity": 113, "channel": 0}, {"type": "note_off", "time": 55, "note": 82, "velocity": 113, "channel": 0}, {"type": "note_on", "time": 12, "note": 78, "velocity": 106, "channel": 0}, {"type": "note_off", "time": 85, "note": 78, "velocity": 106, "channel": 0}, {"type": "note_on", "time": 112, "note": 77, "velocity": 105, "channel": 0}, {"type": "note_off", "time": 207, "note": 77, "velocity": 105, "channel": 0}, {"type": "note_on", "time": 170, "note": 73, "velocity": 112, "channel": 0}, {"type": "note_off", "time": 126, "note": 73, "velocity": 112, "channel": 0}, {"type": "note_on", "time": 4, "note": 74, "velocity": 118, "channel": 0}, {"type": "note_off", "time": 50, "note": 74, "velocity": 118, "channel": 0}, {"type": "note_on", "time": 17, "note": 79, "velocity": 115, "channel": 0}, {"type": "note_off", "time": 101, "note": 79, "velocity": 115, "channel": 0}, {"type": "note_on", "time": 14, "note": 76, "velocity": 108, "channel": 0}, {"type": "note_off", "time": 67, "note": 76, "velocity": 108, "channel": 0}, {"type": "note_on", "time": 29, "note": 77, "velocity": 118, "channel": 0}, {"type": "note_off", "time": 93, "note": 77, "velocity": 118, "channel": 0}, {"type": "note_on", "time": 7, "note": 74, "velocity": 110, "channel": 0}, {"type": "note_off", "time": 50, "note": 74, "velocity": 110, "channel": 0}, {"type": "note_on", "time": 23, "note": 70, "velocity": 106, "channel": 0}, {"type": "note_off", "time": 82, "note": 70, "velocity": 106, "channel": 0}, {"type": "note_on", "time": 23, "note": 68, "velocity": 108, "channel": 0}, {"type": "note_off", "time": 80, "note": 68, "velocity": 108, "channel": 0}, {"type": "note_on", "time": 26, "note": 65, "velocity": 107, "channel": 0}, {"type": "note_off", "time": 85, "note": 65, "velocity": 107, "channel": 0}, {"type": "note_on", "time": 25, "note": 62, "velocity": 92, "channel": 0}, {"type": "note_off", "time": 77, "note": 62, "velocity": 92, "channel": 0}, {"type": "note_on", "time": 124, "note": 62, "velocity": 89, "channel": 0}, {"type": "note_off", "time": 173, "note": 62, "velocity": 89, "channel": 0}, {"type": "note_on", "time": 451, "note": 73, "velocity": 121, "channel": 0}, {"type": "note_off", "time": 102, "note": 73, "velocity": 121, "channel": 0}, {"type": "note_on", "time": 15, "note": 74, "velocity": 112, "channel": 0}, {"type": "note_off", "time": 41, "note": 74, "velocity": 112, "channel": 0}, {"type": "note_on", "time": 26, "note": 77, "velocity": 119, "channel": 0}, {"type": "note_off", "time": 109, "note": 77, "velocity": 119, "channel": 0}, {"type": "note_on", "time": 23, "note": 74, "velocity": 109, "channel": 0}, {"type": "note_off", "time": 39, "note": 74, "velocity": 109, "channel": 0}, {"type": "note_on", "time": 26, "note": 79, "velocity": 116, "channel": 0}, {"type": "note_off", "time": 105, "note": 79, "velocity": 116, "channel": 0}, {"type": "note_on", "time": 18, "note": 76, "velocity": 111, "channel": 0}, {"type": "note_off", "time": 60, "note": 76, "velocity": 111, "channel": 0}, {"type": "note_on", "time": 6, "note": 77, "velocity": 123, "channel": 0}, {"type": "note_off", "time": 101, "note": 77, "velocity": 123, "channel": 0}, {"type": "note_on", "time": 17, "note": 75, "velocity": 107, "channel": 0}, {"type": "note_off", "time": 48, "note": 75, "velocity": 107, "channel": 0}, {"type": "note_on", "time": 17, "note": 72, "velocity": 111, "channel": 0}, {"type": "note_off", "time": 107, "note": 72, "velocity": 111, "channel": 0}, {"type": "note_on", "time": 25, "note": 70, "velocity": 94, "channel": 0}, {"type": "note_off", "time": 52, "note": 70, "velocity": 94, "channel": 0}, {"type": "note_on", "time": 30, "note": 75, "velocity": 103, "channel": 0}, {"type": "note_off", "time": 180, "note": 75, "velocity": 103, "channel": 0}, {"type": "note_on", "time": 20, "note": 72, "velocity": 105, "channel": 0}, {"type": "note_off", "time": 58, "note": 72, "velocity": 105, "channel": 0}, {"type": "note_on", "time": 148, "note": 75, "velocity": 118, "channel": 0}, {"type": "note_off", "time": 94, "note": 75, "velocity": 118, "channel": 0}, {"type": "note_on", "time": 193, "note": 78, "velocity": 123, "channel": 0}, {"type": "note_off", "time": 93, "note": 78, "velocity": 123, "channel": 0}, {"type": "note_on", "time": 7, "note": 77, "velocity": 103, "channel": 0}, {"type": "note_off", "time": 74, "note": 77, "velocity": 103, "channel": 0}, {"type": "note_on", "time": 26, "note": 75, "velocity": 113, "channel": 0}, {"type": "note_off", "time": 58, "note": 75, "velocity": 113, "channel": 0}, {"type": "note_on", "time": 25, "note": 72, "velocity": 106, "channel": 0}, {"type": "note_off", "time": 105, "note": 72, "velocity": 106, "channel": 0}, {"type": "note_on", "time": 93, "note": 75, "velocity": 107, "channel": 0}, {"type": "note_off", "time": 181, "note": 75, "velocity": 107, "channel": 0}, {"type": "note_on", "time": 121, "note": 72, "velocity": 96, "channel": 0}, {"type": "note_off", "time": 284, "note": 72, "velocity": 96, "channel": 0}, {"type": "note_on", "time": 360, "note": 79, "velocity": 121, "channel": 0}, {"type": "note_off", "time": 134, "note": 79, "velocity": 121, "channel": 0}, {"type": "note_on", "time": 44, "note": 79, "velocity": 118, "channel": 0}, {"type": "note_off", "time": 105, "note": 79, "velocity": 118, "channel": 0}, {"type": "note_on", "time": 41, "note": 79, "velocity": 115, "channel": 0}, {"type": "note_off", "time": 118, "note": 79, "velocity": 115, "channel": 0}, {"type": "note_on", "time": 61, "note": 76, "velocity": 115, "channel": 0}, {"type": "note_off", "time": 72, "note": 76, "velocity": 115, "channel": 0}, {"type": "note_on", "time": 28, "note": 79, "velocity": 99, "channel": 0}, {"type": "note_off", "time": 278, "note": 79, "velocity": 99, "channel": 0}, {"type": "note_on", "time": 416, "note": 64, "velocity": 100, "channel": 0}, {"type": "note_off", "time": 50, "note": 64, "velocity": 100, "channel": 0}, {"type": "note_on", "time": 3, "note": 70, "velocity": 118, "channel": 0}, {"type": "note_off", "time": 72, "note": 70, "velocity": 118, "channel": 0}, {"type": "note_on", "time": 25, "note": 72, "velocity": 116, "channel": 0}, {"type": "note_off", "time": 56, "note": 72, "velocity": 116, "channel": 0}, {"type": "note_on", "time": 36, "note": 76, "velocity": 115, "channel": 0}, {"type": "note_off", "time": 86, "note": 76, "velocity": 115, "channel": 0}, {"type": "note_on", "time": 20, "note": 79, "velocity": 118, "channel": 0}, {"type": "note_off", "time": 63, "note": 79, "velocity": 118, "channel": 0}, {"type": "note_on", "time": 20, "note": 83, "velocity": 116, "channel": 0}, {"type": "note_off", "time": 72, "note": 83, "velocity": 116, "channel": 0}, {"type": "note_on", "time": 19, "note": 84, "velocity": 120, "channel": 0}, {"type": "note_off", "time": 69, "note": 84, "velocity": 120, "channel": 0}, {"type": "note_on", "time": 11, "note": 82, "velocity": 115, "channel": 0}, {"type": "note_off", "time": 97, "note": 82, "velocity": 115, "channel": 0}, {"type": "note_on", "time": 30, "note": 79, "velocity": 113, "channel": 0}, {"type": "note_off", "time": 52, "note": 79, "velocity": 113, "channel": 0}, {"type": "note_on", "time": 39, "note": 76, "velocity": 108, "channel": 0}, {"type": "note_off", "time": 63, "note": 76, "velocity": 108, "channel": 0}, {"type": "note_on", "time": 17, "note": 72, "velocity": 99, "channel": 0}, {"type": "note_off", "time": 48, "note": 72, "velocity": 99, "channel": 0}, {"type": "note_on", "time": 25, "note": 79, "velocity": 113, "channel": 0}, {"type": "note_off", "time": 96, "note": 79, "velocity": 113, "channel": 0}, {"type": "note_on", "time": 11, "note": 82, "velocity": 113, "channel": 0}, {"type": "note_off", "time": 71, "note": 82, "velocity": 113, "channel": 0}, {"type": "note_on", "time": 15, "note": 80, "velocity": 111, "channel": 0}, {"type": "note_off", "time": 128, "note": 80, "velocity": 111, "channel": 0}, {"type": "note_on", "time": 26, "note": 79, "velocity": 109, "channel": 0}, {"type": "note_off", "time": 93, "note": 79, "velocity": 109, "channel": 0}, {"type": "note_on", "time": 23, "note": 77, "velocity": 113, "channel": 0}, {"type": "note_off", "time": 80, "note": 77, "velocity": 113, "channel": 0}, {"type": "note_on", "time": 25, "note": 76, "velocity": 119, "channel": 0}, {"type": "note_off", "time": 148, "note": 76, "velocity": 119, "channel": 0}, {"type": "note_on", "time": 134, "note": 79, "velocity": 101, "channel": 0}, {"type": "note_off", "time": 282, "note": 79, "velocity": 101, "channel": 0}, {"type": "note_on", "time": 372, "note": 79, "velocity": 116, "channel": 0}, {"type": "note_off", "time": 116, "note": 79, "velocity": 116, "channel": 0}, {"type": "note_on", "time": 9, "note": 80, "velocity": 112, "channel": 0}, {"type": "note_off", "time": 56, "note": 80, "velocity": 112, "channel": 0}, {"type": "note_on", "time": 23, "note": 82, "velocity": 118, "channel": 0}, {"type": "note_off", "time": 75, "note": 82, "velocity": 118, "channel": 0}, {"type": "note_on", "time": 20, "note": 80, "velocity": 113, "channel": 0}, {"type": "note_off", "time": 82, "note": 80, "velocity": 113, "channel": 0}, {"type": "note_on", "time": 7, "note": 79, "velocity": 110, "channel": 0}, {"type": "note_off", "time": 101, "note": 79, "velocity": 110, "channel": 0}, {"type": "note_on", "time": 25, "note": 77, "velocity": 109, "channel": 0}, {"type": "note_off", "time": 60, "note": 77, "velocity": 109, "channel": 0}, {"type": "note_on", "time": 20, "note": 80, "velocity": 115, "channel": 0}, {"type": "note_off", "time": 109, "note": 80, "velocity": 115, "channel": 0}, {"type": "note_on", "time": 9, "note": 79, "velocity": 112, "channel": 0}, {"type": "note_off", "time": 60, "note": 79, "velocity": 112, "channel": 0}, {"type": "note_on", "time": 22, "note": 77, "velocity": 111, "channel": 0}, {"type": "note_off", "time": 83, "note": 77, "velocity": 111, "channel": 0}, {"type": "note_on", "time": 12, "note": 76, "velocity": 118, "channel": 0}, {"type": "note_off", "time": 85, "note": 76, "velocity": 118, "channel": 0}, {"type": "note_on", "time": 9, "note": 79, "velocity": 115, "channel": 0}, {"type": "note_off", "time": 93, "note": 79, "velocity": 115, "channel": 0}, {"type": "note_on", "time": 14, "note": 77, "velocity": 115, "channel": 0}, {"type": "note_off", "time": 74, "note": 77, "velocity": 115, "channel": 0}, {"type": "note_on", "time": 18, "note": 76, "velocity": 111, "channel": 0}, {"type": "note_off", "time": 96, "note": 76, "velocity": 111, "channel": 0}, {"type": "note_on", "time": 9, "note": 77, "velocity": 111, "channel": 0}, {"type": "note_off", "time": 60, "note": 77, "velocity": 111, "channel": 0}, {"type": "note_on", "time": 14, "note": 79, "velocity": 113, "channel": 0}, {"type": "note_off", "time": 105, "note": 79, "velocity": 113, "channel": 0}, {"type": "note_on", "time": 14, "note": 77, "velocity": 110, "channel": 0}, {"type": "note_off", "time": 74, "note": 77, "velocity": 110, "channel": 0}, {"type": "note_on", "time": 15, "note": 80, "velocity": 115, "channel": 0}, {"type": "note_off", "time": 77, "note": 80, "velocity": 115, "channel": 0}, {"type": "note_on", "time": 22, "note": 77, "velocity": 111, "channel": 0}, {"type": "note_off", "time": 74, "note": 77, "velocity": 111, "channel": 0}, {"type": "note_on", "time": 23, "note": 75, "velocity": 117, "channel": 0}, {"type": "note_off", "time": 69, "note": 75, "velocity": 117, "channel": 0}, {"type": "note_on", "time": 9, "note": 71, "velocity": 108, "channel": 0}, {"type": "note_off", "time": 52, "note": 71, "velocity": 108, "channel": 0}, {"type": "note_on", "time": 20, "note": 68, "velocity": 108, "channel": 0}, {"type": "note_off", "time": 91, "note": 68, "velocity": 108, "channel": 0}, {"type": "note_on", "time": 112, "note": 75, "velocity": 118, "channel": 0}, {"type": "note_off", "time": 309, "note": 75, "velocity": 118, "channel": 0}, {"type": "note_on", "time": 12, "note": 77, "velocity": 99, "channel": 0}, {"type": "note_off", "time": 466, "note": 77, "velocity": 99, "channel": 0}, {"type": "note_on", "time": 380, "note": 75, "velocity": 120, "channel": 0}, {"type": "note_off", "time": 47, "note": 75, "velocity": 120, "channel": 0}, {"type": "note_on", "time": 17, "note": 78, "velocity": 108, "channel": 0}, {"type": "note_off", "time": 28, "note": 78, "velocity": 108, "channel": 0}, {"type": "note_on", "time": 11, "note": 75, "velocity": 119, "channel": 0}, {"type": "note_off", "time": 55, "note": 75, "velocity": 119, "channel": 0}, {"type": "note_on", "time": 15, "note": 74, "velocity": 119, "channel": 0}, {"type": "note_off", "time": 110, "note": 74, "velocity": 119, "channel": 0}, {"type": "note_on", "time": 94, "note": 75, "velocity": 117, "channel": 0}, {"type": "note_off", "time": 137, "note": 75, "velocity": 117, "channel": 0}, {"type": "note_on", "time": 31, "note": 72, "velocity": 109, "channel": 0}, {"type": "note_off", "time": 93, "note": 72, "velocity": 109, "channel": 0}, {"type": "note_on", "time": 95, "note": 74, "velocity": 120, "channel": 0}, {"type": "note_off", "time": 134, "note": 74, "velocity": 120, "channel": 0}, {"type": "note_on", "time": 214, "note": 74, "velocity": 110, "channel": 0}, {"type": "note_off", "time": 131, "note": 74, "velocity": 110, "channel": 0}, {"type": "note_on", "time": 148, "note": 72, "velocity": 93, "channel": 0}, {"type": "note_off", "time": 447, "note": 72, "velocity": 93, "channel": 0}, {"type": "note_on", "time": 110, "note": 72, "velocity": 110, "channel": 0}, {"type": "note_off", "time": 64, "note": 72, "velocity": 110, "channel": 0}, {"type": "note_on", "time": 22, "note": 74, "velocity": 117, "channel": 0}, {"type": "note_off", "time": 79, "note": 74, "velocity": 117, "channel": 0}, {"type": "note_on", "time": 15, "note": 79, "velocity": 116, "channel": 0}, {"type": "note_off", "time": 77, "note": 79, "velocity": 116, "channel": 0}, {"type": "note_on", "time": 28, "note": 82, "velocity": 114, "channel": 0}, {"type": "note_off", "time": 45, "note": 82, "velocity": 114, "channel": 0}, {"type": "note_on", "time": 17, "note": 86, "velocity": 116, "channel": 0}, {"type": "note_off", "time": 90, "note": 86, "velocity": 116, "channel": 0}, {"type": "note_on", "time": 12, "note": 84, "velocity": 111, "channel": 0}, {"type": "note_off", "time": 58, "note": 84, "velocity": 111, "channel": 0}, {"type": "note_on", "time": 18, "note": 82, "velocity": 111, "channel": 0}, {"type": "note_off", "time": 82, "note": 82, "velocity": 111, "channel": 0}, {"type": "note_on", "time": 20, "note": 79, "velocity": 104, "channel": 0}, {"type": "note_off", "time": 79, "note": 79, "velocity": 104, "channel": 0}, {"type": "note_on", "time": 29, "note": 72, "velocity": 94, "channel": 0}, {"type": "note_off", "time": 301, "note": 72, "velocity": 94, "channel": 0}, {"type": "note_on", "time": 252, "note": 72, "velocity": 113, "channel": 0}, {"type": "note_off", "time": 83, "note": 72, "velocity": 113, "channel": 0}, {"type": "note_on", "time": 17, "note": 75, "velocity": 116, "channel": 0}, {"type": "note_off", "time": 67, "note": 75, "velocity": 116, "channel": 0}, {"type": "note_on", "time": 20, "note": 79, "velocity": 119, "channel": 0}, {"type": "note_off", "time": 97, "note": 79, "velocity": 119, "channel": 0}, {"type": "note_on", "time": 6, "note": 82, "velocity": 115, "channel": 0}, {"type": "note_off", "time": 77, "note": 82, "velocity": 115, "channel": 0}, {"type": "note_on", "time": 14, "note": 80, "velocity": 115, "channel": 0}, {"type": "note_off", "time": 75, "note": 80, "velocity": 115, "channel": 0}, {"type": "note_on", "time": 25, "note": 77, "velocity": 110, "channel": 0}, {"type": "note_off", "time": 64, "note": 77, "velocity": 110, "channel": 0}, {"type": "note_on", "time": 21, "note": 74, "velocity": 105, "channel": 0}, {"type": "note_off", "time": 189, "note": 74, "velocity": 105, "channel": 0}, {"type": "note_on", "time": 6, "note": 79, "velocity": 119, "channel": 0}, {"type": "note_off", "time": 80, "note": 79, "velocity": 119, "channel": 0}, {"type": "note_on", "time": 23, "note": 75, "velocity": 107, "channel": 0}, {"type": "note_off", "time": 67, "note": 75, "velocity": 107, "channel": 0}, {"type": "note_on", "time": 14, "note": 77, "velocity": 112, "channel": 0}, {"type": "note_off", "time": 99, "note": 77, "velocity": 112, "channel": 0}, {"type": "note_on", "time": 18, "note": 75, "velocity": 118, "channel": 0}, {"type": "note_off", "time": 71, "note": 75, "velocity": 118, "channel": 0}, {"type": "note_on", "time": 17, "note": 77, "velocity": 108, "channel": 0}, {"type": "note_off", "time": 102, "note": 77, "velocity": 108, "channel": 0}, {"type": "note_on", "time": 20, "note": 75, "velocity": 95, "channel": 0}, {"type": "note_off", "time": 47, "note": 75, "velocity": 95, "channel": 0}, {"type": "note_on", "time": 12, "note": 77, "velocity": 113, "channel": 0}, {"type": "note_off", "time": 109, "note": 77, "velocity": 113, "channel": 0}, {"type": "note_on", "time": 11, "note": 75, "velocity": 118, "channel": 0}, {"type": "note_off", "time": 61, "note": 75, "velocity": 118, "channel": 0}, {"type": "note_on", "time": 11, "note": 72, "velocity": 105, "channel": 0}, {"type": "note_off", "time": 93, "note": 72, "velocity": 105, "channel": 0}, {"type": "note_on", "time": 24, "note": 70, "velocity": 90, "channel": 0}, {"type": "note_off", "time": 50, "note": 70, "velocity": 90, "channel": 0}, {"type": "note_on", "time": 18, "note": 75, "velocity": 92, "channel": 0}, {"type": "note_off", "time": 240, "note": 75, "velocity": 92, "channel": 0}, {"type": "note_on", "time": 65, "note": 66, "velocity": 102, "channel": 0}, {"type": "note_off", "time": 47, "note": 66, "velocity": 102, "channel": 0}, {"type": "note_on", "time": 11, "note": 70, "velocity": 109, "channel": 0}, {"type": "note_off", "time": 42, "note": 70, "velocity": 109, "channel": 0}, {"type": "note_on", "time": 4, "note": 71, "velocity": 107, "channel": 0}, {"type": "note_off", "time": 65, "note": 71, "velocity": 107, "channel": 0}, {"type": "note_on", "time": 6, "note": 72, "velocity": 116, "channel": 0}, {"type": "note_off", "time": 92, "note": 72, "velocity": 116, "channel": 0}, {"type": "note_on", "time": 7, "note": 71, "velocity": 99, "channel": 0}, {"type": "note_off", "time": 92, "note": 71, "velocity": 99, "channel": 0}, {"type": "note_on", "time": 2, "note": 72, "velocity": 110, "channel": 0}, {"type": "note_off", "time": 76, "note": 72, "velocity": 110, "channel": 0}, {"type": "note_on", "time": 15, "note": 70, "velocity": 89, "channel": 0}, {"type": "note_off", "time": 369, "note": 70, "velocity": 89, "channel": 0}, {"type": "end_of_track", "time": 0}]]}