{"ticks_per_beat": 840, "tracks": [[{"type": "track_name", "name": "Melody", "time": 0}, {"type": "set_tempo", "tempo": 483870, "time": 0}, {"type": "key_signature", "key": "C", "time": 0}, {"type": "time_signature", "numerator": 4, "denominator": 4, "clocks_per_click": 24, "notated_32nd_notes_per_beat": 8, "time": 0}, {"type": "note_on", "time": 7756, "note": 71, "velocity": 117, "channel": 0}, {"type": "note_off", "time": 198, "note": 71, "velocity": 117, "channel": 0}, {"type": "note_on", "time": 42, "note": 74, "velocity": 116, "channel": 0}, {"type": "note_off", "time": 148, "note": 74, "velocity": 116, "channel": 0}, {"type": "note_on", "time": 46, "note": 72, "velocity": 114, "channel": 0}, {"type": "note_off", "time": 191, "note": 72, "velocity": 114, "channel": 0}, {"type": "note_on", "time": 56, "note": 67, "velocity": 115, "channel": 0}, {"type": "note_off", "time": 198, "note": 67, "velocity": 115, "channel": 0}, {"type": "note_on", "time": 38, "note": 64, "velocity": 104, "channel": 0}, {"type": "note_off", "time": 318, "note": 64, "velocity": 104, "channel": 0}, {"type": "note_on", "time": 1512, "note": 59, "velocity": 116, "channel": 0}, {"type": "note_off", "time": 141, "note": 59, "velocity": 116, "channel": 0}, {"type": "note_on", "time": 74, "note": 62, "velocity": 101, "channel": 0}, {"type": "note_off", "time": 166, "note": 62, "velocity": 101, "channel": 0}, {"type": "note_on", "time": 60, "note": 61, "velocity": 106, "channel": 0}, {"type": "note_off", "time": 124, "note": 61, "velocity": 106, "channel": 0}, {"type": "note_on", "time": 17, "note": 60, "velocity": 103, "channel": 0}, {"type": "note_off", "time": 279, "note": 60, "velocity": 103, "channel": 0}, {"type": "note_on", "time": 21, "note": 64, "velocity": 101, "channel": 0}, {"type": "note_off", "time": 148, "note": 64, "velocity": 101, "channel": 0}, {"type": "note_on", "time": 53, "note": 67, "velocity": 106, "channel": 0}, {"type": "note_off", "time": 209, "note": 67, "velocity": 106, "channel": 0}, {"type": "note_on", "time": 46, "note": 69, "velocity": 120, "channel": 0}, {"type": "note_off", "time": 148, "note": 69, "velocity": 120, "channel": 0}, {"type": "note_on", "time": 46, "note": 71, "velocity": 118, "channel": 0}, {"type": "note_off", "time": 148, "note": 71, "velocity": 118, "channel": 0}, {"type": "note_on", "time": 31, "note": 72, "velocity": 112, "channel": 0}, {"type": "note_off", "time": 152, "note": 72, "velocity": 112, "channel": 0}, {"type": "note_on", "time": 67, "note": 69, "velocity": 118, "channel": 0}, {"type": "note_off", "time": 148, "note": 69, "velocity": 118, "channel": 0}, {"type": "note_on", "time": 60, "note": 70, "velocity": 108, "channel": 0}, {"type": "note_off", "time": 173, "note": 70, "velocity": 108, "channel": 0}, {"type": "note_on", "time": 53, "note": 68, "velocity": 115, "channel": 0}, {"type": "note_off", "time": 123, "note": 68, "velocity": 115, "channel": 0}, {"type": "note_on", "time": 14, "note": 70, "velocity": 111, "channel": 0}, {"type": "note_off", "time": 74, "note": 70, "velocity": 111, "channel": 0}, {"type": "note_on", "time": 28, "note": 68, "velocity": 108, "channel": 0}, {"type": "note_off", "time": 99, "note": 68, "velocity": 108, "channel": 0}, {"type": "note_on", "time": 10, "note": 66, "velocity": 103, "channel": 0}, {"type": "note_off", "time": 85, "note": 66, "velocity": 103, "channel": 0}, {"type": "note_on", "time": 42, "note": 62, "velocity": 108, "channel": 0}, {"type": "note_off", "time": 198, "note": 62, "velocity": 108, "channel": 0}, {"type": "note_on", "time": 49, "note": 60, "velocity": 111, "channel": 0}, {"type": "note_off", "time": 120, "note": 60, "velocity": 111, "channel": 0}, {"type": "note_on", "time": 28, "note": 59, "velocity": 110, "channel": 0}, {"type": "note_off", "time": 70, "note": 59, "velocity": 110, "channel": 0}, {"type": "note_on", "time": 56, "note": 58, "velocity": 113, "channel": 0}, {"type": "note_off", "time": 131, "note": 58, "velocity": 113, "channel": 0}, {"type": "note_on", "time": 63, "note": 56, "velocity": 111, "channel": 0}, {"type": "note_off", "time": 155, "note": 56, "velocity": 111, "channel": 0}, {"type": "note_on", "time": 255, "note": 60, "velocity": 103, "channel": 0}, {"type": "note_off", "time": 240, "note": 60, "velocity": 103, "channel": 0}, {"type": "note_on", "time": 46, "note": 56, "velocity": 110, "channel": 0}, {"type": "note_off", "time": 410, "note": 56, "velocity": 110, "channel": 0}, {"type": "note_on", "time": 60, "note": 55, "velocity": 111, "channel": 0}, {"type": "note_off", "time": 219, "note": 55, "velocity": 111, "channel": 0}, {"type": "note_on", "time": 102, "note": 54, "velocity": 107, "channel": 0}, {"type": "note_off", "time": 357, "note": 54, "velocity": 107, "channel": 0}, {"type": "note_on", "time": 276, "note": 60, "velocity": 104, "channel": 0}, {"type": "note_off", "time": 258, "note": 60, "velocity": 104, "channel": 0}, {"type": "note_on", "time": 155, "note": 57, "velocity": 107, "channel": 0}, {"type": "note_off", "time": 233, "note": 57, "velocity": 107, "channel": 0}, {"type": "note_on", "time": 49, "note": 55, "velocity": 101, "channel": 0}, {"type": "note_off", "time": 354, "note": 55, "velocity": 101, "channel": 0}, {"type": "note_on", "time": 258, "note": 59, "velocity": 109, "channel": 0}, {"type": "note_off", "time": 347, "note": 59, "velocity": 109, "channel": 0}, {"type": "note_on", "time": 180, "note": 55, "velocity": 105, "channel": 0}, {"type": "note_off", "time": 329, "note": 55, "velocity": 105, "channel": 0}, {"type": "note_on", "time": 134, "note": 52, "velocity": 110, "channel": 0}, {"type": "note_off", "time": 364, "note": 52, "velocity": 110, "channel": 0}, {"type": "note_on", "time": 318, "note": 52, "velocity": 109, "channel": 0}, {"type": "note_off", "time": 162, "note": 52, "velocity": 109, "channel": 0}, {"type": "note_on", "time": 17, "note": 51, "velocity": 111, "channel": 0}, {"type": "note_off", "time": 407, "note": 51, "velocity": 111, "channel": 0}, {"type": "note_on", "time": 28, "note": 52, "velocity": 107, "channel": 0}, {"type": "note_off", "time": 375, "note": 52, "velocity": 107, "channel": 0}, {"type": "note_on", "time": 85, "note": 57, "velocity": 105, "channel": 0}, {"type": "note_off", "time": 836, "note": 57, "velocity": 105, "channel": 0}, {"type": "note_on", "time": 1147, "note": 55, "velocity": 113, "channel": 0}, {"type": "note_off", "time": 145, "note": 55, "velocity": 113, "channel": 0}, {"type": "note_on", "time": 60, "note": 57, "velocity": 105, "channel": 0}, {"type": "note_off", "time": 269, "note": 57, "velocity": 105, "channel": 0}, {"type": "note_on", "time": 24, "note": 59, "velocity": 107, "channel": 0}, {"type": "note_off", "time": 102, "note": 59, "velocity": 107, "channel": 0}, {"type": "note_on", "time": 35, "note": 62, "velocity": 102, "channel": 0}, {"type": "note_off", "time": 173, "note": 62, "velocity": 102, "channel": 0}, {"type": "note_on", "time": 56, "note": 60, "velocity": 98, "channel": 0}, {"type": "note_off", "time": 184, "note": 60, "velocity": 98, "channel": 0}, {"type": "note_on", "time": 124, "note": 64, "velocity": 94, "channel": 0}, {"type": "note_off", "time": 138, "note": 64, "velocity": 94, "channel": 0}, {"type": "note_on", "time": 60, "note": 67, "velocity": 110, "channel": 0}, {"type": "note_off", "time": 162, "note": 67, "velocity": 110, "channel": 0}, {"type": "note_on", "time": 38, "note": 69, "velocity": 117, "channel": 0}, {"type": "note_off", "time": 209, "note": 69, "velocity": 117, "channel": 0}, {"type": "note_on", "time": 53, "note": 71, "velocity": 109, "channel": 0}, {"type": "note_off", "time": 124, "note": 71, "velocity": 109, "channel": 0}, {"type": "note_on", "time": 63, "note": 74, "velocity": 110, "channel": 0}, {"type": "note_off", "time": 170, "note": 74, "velocity": 110, "channel": 0}, {"type": "note_on", "time": 38, "note": 73, "velocity": 106, "channel": 0}, {"type": "note_off", "time": 184, "note": 73, "velocity": 106, "channel": 0}, {"type": "note_on", "time": 31, "note": 72, "velocity": 108, "channel": 0}, {"type": "note_off", "time": 155, "note": 72, "velocity": 108, "channel": 0}, {"type": "note_on", "time": 28, "note": 69, "velocity": 120, "channel": 0}, {"type": "note_off", "time": 170, "note": 69, "velocity": 120, "channel": 0}, {"type": "note_on", "time": 17, "note": 70, "velocity": 117, "channel": 0}, {"type": "note_off", "time": 233, "note": 70, "velocity": 117, "channel": 0}, {"type": "note_on", "time": 24, "note": 69, "velocity": 108, "channel": 0}, {"type": "note_off", "time": 219, "note": 69, "velocity": 108, "channel": 0}, {"type": "note_on", "time": 1654, "note": 70, "velocity": 111, "channel": 0}, {"type": "note_off", "time": 53, "note": 70, "velocity": 111, "channel": 0}, {"type": "note_on", "time": 17, "note": 72, "velocity": 108, "channel": 0}, {"type": "note_off", "time": 46, "note": 72, "velocity": 108, "channel": 0}, {"type": "note_on", "time": 21, "note": 70, "velocity": 113, "channel": 0}, {"type": "note_off", "time": 102, "note": 70, "velocity": 113, "channel": 0}, {"type": "note_on", "time": 74, "note": 67, "velocity": 117, "channel": 0}, {"type": "note_off", "time": 187, "note": 67, "velocity": 117, "channel": 0}, {"type": "note_on", "time": 28, "note": 68, "velocity": 121, "channel": 0}, {"type": "note_off", "time": 251, "note": 68, "velocity": 121, "channel": 0}, {"type": "note_on", "time": 24, "note": 69, "velocity": 122, "channel": 0}, {"type": "note_off", "time": 219, "note": 69, "velocity": 122, "channel": 0}, {"type": "note_on", "time": 120, "note": 64, "velocity": 113, "channel": 0}, {"type": "note_off", "time": 184, "note": 64, "velocity": 113, "channel": 0}, {"type": "note_on", "time": 28, "note": 67, "velocity": 116, "channel": 0}, {"type": "note_off", "time": 240, "note": 67, "velocity": 116, "channel": 0}, {"type": "note_on", "time": 38, "note": 66, "velocity": 115, "channel": 0}, {"type": "note_off", "time": 265, "note": 66, "velocity": 115, "channel": 0}, {"type": "note_on", "time": 70, "note": 64, "velocity": 107, "channel": 0}, {"type": "note_off", "time": 226, "note": 64, "velocity": 107, "channel": 0}, {"type": "note_on", "time": 46, "note": 60, "velocity": 115, "channel": 0}, {"type": "note_off", "time": 187, "note": 60, "velocity": 115, "channel": 0}, {"type": "note_on", "time": 81, "note": 57, "velocity": 108, "channel": 0}, {"type": "note_off", "time": 418, "note": 57, "velocity": 108, "channel": 0}, {"type": "note_on", "time": 99, "note": 62, "velocity": 103, "channel": 0}, {"type": "note_off", "time": 421, "note": 62, "velocity": 103, "channel": 0}, {"type": "note_on", "time": 917, "note": 61, "velocity": 104, "channel": 0}, {"type": "note_off", "time": 134, "note": 61, "velocity": 104, "channel": 0}, {"type": "note_on", "time": 14, "note": 64, "velocity": 109, "channel": 0}, {"type": "note_off", "time": 166, "note": 64, "velocity": 109, "channel": 0}, {"type": "note_on", "time": 262, "note": 67, "velocity": 118, "channel": 0}, {"type": "note_off", "time": 357, "note": 67, "velocity": 118, "channel": 0}, {"type": "note_on", "time": 1838, "note": 62, "velocity": 114, "channel": 0}, {"type": "note_off", "time": 106, "note": 62, "velocity": 114, "channel": 0}, {"type": "note_on", "time": 28, "note": 63, "velocity": 114, "channel": 0}, {"type": "note_off", "time": 152, "note": 63, "velocity": 114, "channel": 0}, {"type": "note_on", "time": 56, "note": 64, "velocity": 116, "channel": 0}, {"type": "note_off", "time": 237, "note": 64, "velocity": 116, "channel": 0}, {"type": "note_on", "time": 38, "note": 67, "velocity": 121, "channel": 0}, {"type": "note_off", "time": 248, "note": 67, "velocity": 121, "channel": 0}, {"type": "note_on", "time": 28, "note": 69, "velocity": 122, "channel": 0}, {"type": "note_off", "time": 226, "note": 69, "velocity": 122, "channel": 0}, {"type": "note_on", "time": 148, "note": 72, "velocity": 112, "channel": 0}, {"type": "note_off", "time": 251, "note": 72, "velocity": 112, "channel": 0}, {"type": "note_on", "time": 21, "note": 74, "velocity": 100, "channel": 0}, {"type": "note_off", "time": 53, "note": 74, "velocity": 100, "channel": 0}, {"type": "note_on", "time": 35, "note": 72, "velocity": 103, "channel": 0}, {"type": "note_off", "time": 53, "note": 72, "velocity": 103, "channel": 0}, {"type": "note_on", "time": 67, "note": 69, "velocity": 121, "channel": 0}, {"type": "note_off", "time": 269, "note": 69, "velocity": 121, "channel": 0}, {"type": "note_on", "time": 42, "note": 70, "velocity": 112, "channel": 0}, {"type": "note_off", "time": 301, "note": 70, "velocity": 112, "channel": 0}, {"type": "note_on", "time": 173, "note": 74, "velocity": 112, "channel": 0}, {"type": "note_off", "time": 322, "note": 74, "velocity": 112, "channel": 0}, {"type": "note_on", "time": 42, "note": 69, "velocity": 118, "channel": 0}, {"type": "note_off", "time": 308, "note": 69, "velocity": 118, "channel": 0}, {"type": "note_on", "time": 177, "note": 67, "velocity": 112, "channel": 0}, {"type": "note_off", "time": 233, "note": 67, "velocity": 112, "channel": 0}, {"type": "note_on", "time": 198, "note": 62, "velocity": 101, "channel": 0}, {"type": "note_off", "time": 265, "note": 62, "velocity": 101, "channel": 0}, {"type": "note_on", "time": 113, "note": 65, "velocity": 112, "channel": 0}, {"type": "note_off", "time": 230, "note": 65, "velocity": 112, "channel": 0}, {"type": "note_on", "time": 77, "note": 64, "velocity": 108, "channel": 0}, {"type": "note_off", "time": 449, "note": 64, "velocity": 108, "channel": 0}, {"type": "note_on", "time": 336, "note": 63, "velocity": 104, "channel": 0}, {"type": "note_off", "time": 492, "note": 63, "velocity": 104, "channel": 0}, {"type": "note_on", "time": 124, "note": 62, "velocity": 103, "channel": 0}, {"type": "note_off", "time": 662, "note": 62, "velocity": 103, "channel": 0}, {"type": "note_on", "time": 818, "note": 57, "velocity": 105, "channel": 0}, {"type": "note_off", "time": 166, "note": 57, "velocity": 105, "channel": 0}, {"type": "note_on", "time": 67, "note": 60, "velocity": 109, "channel": 0}, {"type": "note_off", "time": 255, "note": 60, "velocity": 109, "channel": 0}, {"type": "note_on", "time": 85, "note": 65, "velocity": 117, "channel": 0}, {"type": "note_off", "time": 201, "note": 65, "velocity": 117, "channel": 0}, {"type": "note_on", "time": 85, "note": 63, "velocity": 102, "channel": 0}, {"type": "note_off", "time": 152, "note": 63, "velocity": 102, "channel": 0}, {"type": "note_on", "time": 74, "note": 67, "velocity": 117, "channel": 0}, {"type": "note_off", "time": 276, "note": 67, "velocity": 117, "channel": 0}, {"type": "note_on", "time": 70, "note": 64, "velocity": 99, "channel": 0}, {"type": "note_off", "time": 113, "note": 64, "velocity": 99, "channel": 0}, {"type": "note_on", "time": 10, "note": 65, "velocity": 116, "channel": 0}, {"type": "note_off", "time": 276, "note": 65, "velocity": 116, "channel": 0}, {"type": "note_on", "time": 99, "note": 69, "velocity": 120, "channel": 0}, {"type": "note_off", "time": 329, "note": 69, "velocity": 120, "channel": 0}, {"type": "note_on", "time": 170, "note": 72, "velocity": 110, "channel": 0}, {"type": "note_off", "time": 340, "note": 72, "velocity": 110, "channel": 0}, {"type": "note_on", "time": 63, "note": 74, "velocity": 112, "channel": 0}, {"type": "note_off", "time": 364, "note": 74, "velocity": 112, "channel": 0}, {"type": "note_on", "time": 90, "note": 72, "velocity": 109, "channel": 0}, {"type": "note_off", "time": 294, "note": 72, "velocity": 109, "channel": 0}, {"type": "note_on", "time": 193, "note": 74, "velocity": 116, "channel": 0}, {"type": "note_off", "time": 173, "note": 74, "velocity": 116, "channel": 0}, {"type": "note_on", "time": 12, "note": 75, "velocity": 114, "channel": 0}, {"type": "note_off", "time": 229, "note": 75, "velocity": 114, "channel": 0}, {"type": "note_on", "time": 80, "note": 72, "velocity": 108, "channel": 0}, {"type": "note_off", "time": 221, "note": 72, "velocity": 108, "channel": 0}, {"type": "note_on", "time": 32, "note": 74, "velocity": 106, "channel": 0}, {"type": "note_off", "time": 362, "note": 74, "velocity": 106, "channel": 0}, {"type": "note_on", "time": 246, "note": 67, "velocity": 116, "channel": 0}, {"type": "note_off", "time": 156, "note": 67, "velocity": 116, "channel": 0}, {"type": "note_on", "time": 20, "note": 68, "velocity": 115, "channel": 0}, {"type": "note_off", "time": 236, "note": 68, "velocity": 115, "channel": 0}, {"type": "note_on", "time": 24, "note": 70, "velocity": 115, "channel": 0}, {"type": "note_off", "time": 109, "note": 70, "velocity": 115, "channel": 0}, {"type": "note_on", "time": 17, "note": 71, "velocity": 115, "channel": 0}, {"type": "note_off", "time": 113, "note": 71, "velocity": 115, "channel": 0}, {"type": "note_on", "time": 28, "note": 72, "velocity": 114, "channel": 0}, {"type": "note_off", "time": 286, "note": 72, "velocity": 114, "channel": 0}, {"type": "note_on", "time": 67, "note": 68, "velocity": 122, "channel": 0}, {"type": "note_off", "time": 269, "note": 68, "velocity": 122, "channel": 0}, {"type": "note_on", "time": 95, "note": 65, "velocity": 111, "channel": 0}, {"type": "note_off", "time": 92, "note": 65, "velocity": 111, "channel": 0}, {"type": "note_on", "time": 38, "note": 64, "velocity": 100, "channel": 0}, {"type": "note_off", "time": 201, "note": 64, "velocity": 100, "channel": 0}, {"type": "note_on", "time": 173, "note": 67, "velocity": 111, "channel": 0}, {"type": "note_off", "time": 194, "note": 67, "velocity": 111, "channel": 0}, {"type": "note_on", "time": 67, "note": 64, "velocity": 107, "channel": 0}, {"type": "note_off", "time": 251, "note": 64, "velocity": 107, "channel": 0}, {"type": "note_on", "time": 248, "note": 55, "velocity": 111, "channel": 0}, {"type": "note_off", "time": 223, "note": 55, "velocity": 111, "channel": 0}, {"type": "note_on", "time": 361, "note": 62, "velocity": 104, "channel": 0}, {"type": "note_off", "time": 248, "note": 62, "velocity": 104, "channel": 0}, {"type": "note_on", "time": 88, "note": 60, "velocity": 102, "channel": 0}, {"type": "note_off", "time": 290, "note": 60, "velocity": 102, "channel": 0}, {"type": "note_on", "time": 1286, "note": 68, "velocity": 121, "channel": 0}, {"type": "note_off", "time": 81, "note": 68, "velocity": 121, "channel": 0}, {"type": "note_on", "time": 46, "note": 70, "velocity": 115, "channel": 0}, {"type": "note_off", "time": 141, "note": 70, "velocity": 115, "channel": 0}, {"type": "note_on", "time": 35, "note": 68, "velocity": 113, "channel": 0}, {"type": "note_off", "time": 329, "note": 68, "velocity": 113, "channel": 0}, {"type": "note_on", "time": 237, "note": 62, "velocity": 105, "channel": 0}, {"type": "note_off", "time": 244, "note": 62, "velocity": 105, "channel": 0}, {"type": "note_on", "time": 354, "note": 67, "velocity": 108, "channel": 0}, {"type": "note_off", "time": 336, "note": 67, "velocity": 108, "channel": 0}, {"type": "note_on", "time": 60, "note": 64, "velocity": 104, "channel": 0}, {"type": "note_off", "time": 410, "note": 64, "velocity": 104, "channel": 0}, {"type": "note_on", "time": 1027, "note": 71, "velocity": 118, "channel": 0}, {"type": "note_off", "time": 244, "note": 71, "velocity": 118, "channel": 0}, {"type": "note_on", "time": 24, "note": 69, "velocity": 118, "channel": 0}, {"type": "note_off", "time": 283, "note": 69, "velocity": 118, "channel": 0}, {"type": "note_on", "time": 329, "note": 57, "velocity": 111, "channel": 0}, {"type": "note_off", "time": 251, "note": 57, "velocity": 111, "channel": 0}, {"type": "note_on", "time": 350, "note": 65, "velocity": 109, "channel": 0}, {"type": "note_off", "time": 191, "note": 65, "velocity": 109, "channel": 0}, {"type": "note_on", "time": 449, "note": 64, "velocity": 105, "channel": 0}, {"type": "note_off", "time": 279, "note": 64, "velocity": 105, "channel": 0}, {"type": "note_on", "time": 290, "note": 55, "velocity": 104, "channel": 0}, {"type": "note_off", "time": 247, "note": 55, "velocity": 104, "channel": 0}, {"type": "note_on", "time": 325, "note": 62, "velocity": 107, "channel": 0}, {"type": "note_off", "time": 223, "note": 62, "velocity": 107, "channel": 0}, {"type": "note_on", "time": 49, "note": 60, "velocity": 88, "channel": 0}, {"type": "note_off", "time": 648, "note": 60, "velocity": 88, "channel": 0}, {"type": "note_on", "time": 712, "note": 63, "velocity": 113, "channel": 0}, {"type": "note_off", "time": 123, "note": 63, "velocity": 113, "channel": 0}, {"type": "note_on", "time": 49, "note": 64, "velocity": 117, "channel": 0}, {"type": "note_off", "time": 194, "note": 64, "velocity": 117, "channel": 0}, {"type": "note_on", "time": 21, "note": 67, "velocity": 123, "channel": 0}, {"type": "note_off", "time": 205, "note": 67, "velocity": 123, "channel": 0}, {"type": "note_on", "time": 31, "note": 69, "velocity": 124, "channel": 0}, {"type": "note_off", "time": 294, "note": 69, "velocity": 124, "channel": 0}, {"type": "note_on", "time": 67, "note": 73, "velocity": 113, "channel": 0}, {"type": "note_off", "time": 187, "note": 73, "velocity": 113, "channel": 0}, {"type": "note_on", "time": 17, "note": 74, "velocity": 116, "channel": 0}, {"type": "note_off", "time": 237, "note": 74, "velocity": 116, "channel": 0}, {"type": "note_on", "time": 216, "note": 72, "velocity": 121, "channel": 0}, {"type": "note_off", "time": 198, "note": 72, "velocity": 121, "channel": 0}, {"type": "note_on", "time": 336, "note": 67, "velocity": 116, "channel": 0}, {"type": "note_off", "time": 216, "note": 67, "velocity": 116, "channel": 0}, {"type": "note_on", "time": 109, "note": 64, "velocity": 111, "channel": 0}, {"type": "note_off", "time": 269, "note": 64, "velocity": 111, "channel": 0}, {"type": "note_on", "time": 21, "note": 60, "velocity": 113, "channel": 0}, {"type": "note_off", "time": 81, "note": 60, "velocity": 113, "channel": 0}, {"type": "note_on", "time": 17, "note": 62, "velocity": 109, "channel": 0}, {"type": "note_off", "time": 63, "note": 62, "velocity": 109, "channel": 0}, {"type": "note_on", "time": 31, "note": 60, "velocity": 108, "channel": 0}, {"type": "note_off", "time": 85, "note": 60, "velocity": 108, "channel": 0}, {"type": "note_on", "time": 60, "note": 57, "velocity": 109, "channel": 0}, {"type": "note_off", "time": 279, "note": 57, "velocity": 109, "channel": 0}, {"type": "note_on", "time": 99, "note": 62, "velocity": 112, "channel": 0}, {"type": "note_off", "time": 226, "note": 62, "velocity": 112, "channel": 0}, {"type": "note_on", "time": 41, "note": 60, "velocity": 109, "channel": 0}, {"type": "note_off", "time": 241, "note": 60, "velocity": 109, "channel": 0}, {"type": "note_on", "time": 821, "note": 60, "velocity": 114, "channel": 0}, {"type": "note_off", "time": 83, "note": 60, "velocity": 114, "channel": 0}, {"type": "note_on", "time": 27, "note": 62, "velocity": 109, "channel": 0}, {"type": "note_off", "time": 55, "note": 62, "velocity": 109, "channel": 0}, {"type": "note_on", "time": 27, "note": 60, "velocity": 112, "channel": 0}, {"type": "note_off", "time": 85, "note": 60, "velocity": 112, "channel": 0}, {"type": "note_on", "time": 5, "note": 59, "velocity": 116, "channel": 0}, {"type": "note_off", "time": 80, "note": 59, "velocity": 116, "channel": 0}, {"type": "note_on", "time": 32, "note": 58, "velocity": 118, "channel": 0}, {"type": "note_off", "time": 214, "note": 58, "velocity": 118, "channel": 0}, {"type": "note_on", "time": 35, "note": 57, "velocity": 113, "channel": 0}, {"type": "note_off", "time": 151, "note": 57, "velocity": 113, "channel": 0}, {"type": "note_on", "time": 73, "note": 56, "velocity": 115, "channel": 0}, {"type": "note_off", "time": 249, "note": 56, "velocity": 115, "channel": 0}, {"type": "note_on", "time": 110, "note": 68, "velocity": 121, "channel": 0}, {"type": "note_off", "time": 272, "note": 68, "velocity": 121, "channel": 0}, {"type": "note_on", "time": 57, "note": 65, "velocity": 111, "channel": 0}, {"type": "note_off", "time": 234, "note": 65, "velocity": 111, "channel": 0}, {"type": "note_on", "time": 123, "note": 62, "velocity": 107, "channel": 0}, {"type": "note_off", "time": 241, "note": 62, "velocity": 107, "channel": 0}, {"type": "note_on", "time": 229, "note": 61, "velocity": 105, "channel": 0}, {"type": "note_off", "time": 244, "note": 61, "velocity": 105, "channel": 0}, {"type": "note_on", "time": 347, "note": 69, "velocity": 114, "channel": 0}, {"type": "note_off", "time": 251, "note": 69, "velocity": 114, "channel": 0}, {"type": "note_on", "time": 133, "note": 67, "velocity": 107, "channel": 0}, {"type": "note_off", "time": 206, "note": 67, "velocity": 107, "channel": 0}, {"type": "note_on", "time": 357, "note": 66, "velocity": 108, "channel": 0}, {"type": "note_off", "time": 239, "note": 66, "velocity": 108, "channel": 0}, {"type": "note_on", "time": 347, "note": 74, "velocity": 105, "channel": 0}, {"type": "note_off", "time": 254, "note": 74, "velocity": 105, "channel": 0}, {"type": "note_on", "time": 302, "note": 72, "velocity": 110, "channel": 0}, {"type": "note_off", "time": 234, "note": 72, "velocity": 110, "channel": 0}, {"type": "note_on", "time": 372, "note": 71, "velocity": 114, "channel": 0}, {"type": "note_off", "time": 284, "note": 71, "velocity": 114, "channel": 0}, {"type": "note_on", "time": 287, "note": 79, "velocity": 104, "channel": 0}, {"type": "note_off", "time": 319, "note": 79, "velocity": 104, "channel": 0}, {"type": "note_on", "time": 259, "note": 77, "velocity": 113, "channel": 0}, {"type": "note_off", "time": 309, "note": 77, "velocity": 113, "channel": 0}, {"type": "note_on", "time": 272, "note": 76, "velocity": 111, "channel": 0}, {"type": "note_off", "time": 244, "note": 76, "velocity": 111, "channel": 0}, {"type": "note_on", "time": 478, "note": 67, "velocity": 106, "channel": 0}, {"type": "note_off", "time": 526, "note": 67, "velocity": 106, "channel": 0}, {"type": "note_on", "time": 1158, "note": 76, "velocity": 112, "channel": 0}, {"type": "note_off", "time": 251, "note": 76, "velocity": 112, "channel": 0}, {"type": "note_on", "time": 211, "note": 79, "velocity": 104, "channel": 0}, {"type": "note_off", "time": 239, "note": 79, "velocity": 104, "channel": 0}, {"type": "note_on", "time": 236, "note": 84, "velocity": 108, "channel": 0}, {"type": "note_off", "time": 216, "note": 84, "velocity": 108, "channel": 0}, {"type": "note_on", "time": 141, "note": 79, "velocity": 104, "channel": 0}, {"type": "note_off", "time": 158, "note": 79, "velocity": 104, "channel": 0}, {"type": "note_on", "time": 224, "note": 75, "velocity": 116, "channel": 0}, {"type": "note_off", "time": 272, "note": 75, "velocity": 116, "channel": 0}, {"type": "note_on", "time": 12, "note": 76, "velocity": 110, "channel": 0}, {"type": "note_off", "time": 186, "note": 76, "velocity": 110, "channel": 0}, {"type": "note_on", "time": 120, "note": 72, "velocity": 107, "channel": 0}, {"type": "note_off", "time": 183, "note": 72, "velocity": 107, "channel": 0}, {"type": "note_on", "time": 103, "note": 67, "velocity": 113, "channel": 0}, {"type": "note_off", "time": 186, "note": 67, "velocity": 113, "channel": 0}, {"type": "note_on", "time": 93, "note": 64, "velocity": 108, "channel": 0}, {"type": "note_off", "time": 171, "note": 64, "velocity": 108, "channel": 0}, {"type": "note_on", "time": 30, "note": 61, "velocity": 106, "channel": 0}, {"type": "note_off", "time": 70, "note": 61, "velocity": 106, "channel": 0}, {"type": "note_on", "time": 22, "note": 60, "velocity": 114, "channel": 0}, {"type": "note_off", "time": 75, "note": 60, "velocity": 114, "channel": 0}, {"type": "note_on", "time": 27, "note": 58, "velocity": 115, "channel": 0}, {"type": "note_off", "time": 204, "note": 58, "velocity": 115, "channel": 0}, {"type": "note_on", "time": 55, "note": 57, "velocity": 107, "channel": 0}, {"type": "note_off", "time": 191, "note": 57, "velocity": 107, "channel": 0}, {"type": "note_on", "time": 241, "note": 60, "velocity": 102, "channel": 0}, {"type": "note_off", "time": 146, "note": 60, "velocity": 102, "channel": 0}, {"type": "note_on", "time": 47, "note": 55, "velocity": 109, "channel": 0}, {"type": "note_off", "time": 181, "note": 55, "velocity": 109, "channel": 0}, {"type": "note_on", "time": 42, "note": 54, "velocity": 106, "channel": 0}, {"type": "note_off", "time": 158, "note": 54, "velocity": 106, "channel": 0}, {"type": "note_on", "time": 75, "note": 53, "velocity": 105, "channel": 0}, {"type": "note_off", "time": 178, "note": 53, "velocity": 105, "channel": 0}, {"type": "note_on", "time": 60, "note": 52, "velocity": 111, "channel": 0}, {"type": "note_off", "time": 168, "note": 52, "velocity": 111, "channel": 0}, {"type": "note_on", "time": 62, "note": 51, "velocity": 113, "channel": 0}, {"type": "note_off", "time": 183, "note": 51, "velocity": 113, "channel": 0}, {"type": "note_on", "time": 57, "note": 50, "velocity": 114, "channel": 0}, {"type": "note_off", "time": 264, "note": 50, "velocity": 114, "channel": 0}, {"type": "note_on", "time": 168, "note": 58, "velocity": 113, "channel": 0}, {"type": "note_off", "time": 274, "note": 58, "velocity": 113, "channel": 0}, {"type": "note_on", "time": 95, "note": 56, "velocity": 114, "channel": 0}, {"type": "note_off", "time": 272, "note": 56, "velocity": 114, "channel": 0}, {"type": "note_on", "time": 62, "note": 57, "velocity": 111, "channel": 0}, {"type": "note_off", "time": 279, "note": 57, "velocity": 111, "channel": 0}, {"type": "note_on", "time": 118, "note": 69, "velocity": 109, "channel": 0}, {"type": "note_off", "time": 365, "note": 69, "velocity": 109, "channel": 0}, {"type": "note_on", "time": 60, "note": 68, "velocity": 116, "channel": 0}, {"type": "note_off", "time": 231, "note": 68, "velocity": 116, "channel": 0}, {"type": "note_on", "time": 60, "note": 67, "velocity": 110, "channel": 0}, {"type": "note_off", "time": 219, "note": 67, "velocity": 110, "channel": 0}, {"type": "note_on", "time": 60, "note": 66, "velocity": 109, "channel": 0}, {"type": "note_off", "time": 287, "note": 66, "velocity": 109, "channel": 0}, {"type": "note_on", "time": 62, "note": 71, "velocity": 106, "channel": 0}, {"type": "note_off", "time": 229, "note": 71, "velocity": 106, "channel": 0}, {"type": "note_on", "time": 37, "note": 70, "velocity": 103, "channel": 0}, {"type": "note_off", "time": 256, "note": 70, "velocity": 103, "channel": 0}, {"type": "note_on", "time": 42, "note": 69, "velocity": 110, "channel": 0}, {"type": "note_off", "time": 251, "note": 69, "velocity": 110, "channel": 0}, {"type": "note_on", "time": 113, "note": 64, "velocity": 92, "channel": 0}, {"type": "note_off", "time": 335, "note": 64, "velocity": 92, "channel": 0}, {"type": "note_on", "time": 68, "note": 60, "velocity": 97, "channel": 0}, {"type": "note_off", "time": 846, "note": 60, "velocity": 97, "channel": 0}, {"type": "note_on", "time": 148, "note": 57, "velocity": 113, "channel": 0}, {"type": "note_off", "time": 248, "note": 57, "velocity": 113, "channel": 0}, {"type": "note_on", "time": 99, "note": 62, "velocity": 102, "channel": 0}, {"type": "note_off", "time": 240, "note": 62, "velocity": 102, "channel": 0}, {"type": "note_on", "time": 1328, "note": 60, "velocity": 99, "channel": 0}, {"type": "note_off", "time": 269, "note": 60, "velocity": 99, "channel": 0}, {"type": "note_on", "time": 14, "note": 64, "velocity": 117, "channel": 0}, {"type": "note_off", "time": 279, "note": 64, "velocity": 117, "channel": 0}, {"type": "note_on", "time": 35, "note": 67, "velocity": 123, "channel": 0}, {"type": "note_off", "time": 269, "note": 67, "velocity": 123, "channel": 0}, {"type": "note_on", "time": 46, "note": 69, "velocity": 127, "channel": 0}, {"type": "note_off", "time": 488, "note": 69, "velocity": 127, "channel": 0}, {"type": "note_on", "time": 46, "note": 67, "velocity": 116, "channel": 0}, {"type": "note_off", "time": 223, "note": 67, "velocity": 116, "channel": 0}, {"type": "note_on", "time": 169, "note": 72, "velocity": 116, "channel": 0}, {"type": "note_off", "time": 866, "note": 72, "velocity": 116, "channel": 0}, {"type": "note_on", "time": 80, "note": 74, "velocity": 115, "channel": 0}, {"type": "note_off", "time": 312, "note": 74, "velocity": 115, "channel": 0}, {"type": "note_on", "time": 55, "note": 72, "velocity": 110, "channel": 0}, {"type": "note_off", "time": 156, "note": 72, "velocity": 110, "channel": 0}, {"type": "note_on", "time": 371, "note": 81, "velocity": 104, "channel": 0}, {"type": "note_off", "time": 201, "note": 81, "velocity": 104, "channel": 0}, {"type": "note_on", "time": 283, "note": 74, "velocity": 118, "channel": 0}, {"type": "note_off", "time": 60, "note": 74, "velocity": 118, "channel": 0}, {"type": "note_on", "time": 14, "note": 75, "velocity": 118, "channel": 0}, {"type": "note_off", "time": 240, "note": 75, "velocity": 118, "channel": 0}, {"type": "note_on", "time": 247, "note": 72, "velocity": 116, "channel": 0}, {"type": "note_off", "time": 212, "note": 72, "velocity": 116, "channel": 0}, {"type": "note_on", "time": 1367, "note": 66, "velocity": 103, "channel": 0}, {"type": "note_off", "time": 127, "note": 66, "velocity": 103, "channel": 0}, {"type": "note_on", "time": 301, "note": 70, "velocity": 114, "channel": 0}, {"type": "note_off", "time": 187, "note": 70, "velocity": 114, "channel": 0}, {"type": "note_on", "time": 28, "note": 72, "velocity": 106, "channel": 0}, {"type": "note_off", "time": 77, "note": 72, "velocity": 106, "channel": 0}, {"type": "note_on", "time": 24, "note": 71, "velocity": 108, "channel": 0}, {"type": "note_off", "time": 81, "note": 71, "velocity": 108, "channel": 0}, {"type": "note_on", "time": 21, "note": 69, "velocity": 120, "channel": 0}, {"type": "note_off", "time": 219, "note": 69, "velocity": 120, "channel": 0}, {"type": "note_on", "time": 49, "note": 72, "velocity": 110, "channel": 0}, {"type": "note_off", "time": 131, "note": 72, "velocity": 110, "channel": 0}, {"type": "note_on", "time": 46, "note": 70, "velocity": 108, "channel": 0}, {"type": "note_off", "time": 159, "note": 70, "velocity": 108, "channel": 0}, {"type": "note_on", "time": 74, "note": 67, "velocity": 113, "channel": 0}, {"type": "note_off", "time": 134, "note": 67, "velocity": 113, "channel": 0}, {"type": "note_on", "time": 113, "note": 64, "velocity": 102, "channel": 0}, {"type": "note_off", "time": 152, "note": 64, "velocity": 102, "channel": 0}, {"type": "note_on", "time": 24, "note": 60, "velocity": 102, "channel": 0}, {"type": "note_off", "time": 92, "note": 60, "velocity": 102, "channel": 0}, {"type": "note_on", "time": 21, "note": 59, "velocity": 114, "channel": 0}, {"type": "note_off", "time": 95, "note": 59, "velocity": 114, "channel": 0}, {"type": "note_on", "time": 28, "note": 58, "velocity": 116, "channel": 0}, {"type": "note_off", "time": 209, "note": 58, "velocity": 116, "channel": 0}, {"type": "note_on", "time": 31, "note": 56, "velocity": 109, "channel": 0}, {"type": "note_off", "time": 201, "note": 56, "velocity": 109, "channel": 0}, {"type": "note_on", "time": 127, "note": 60, "velocity": 101, "channel": 0}, {"type": "note_off", "time": 113, "note": 60, "velocity": 101, "channel": 0}, {"type": "note_on", "time": 106, "note": 67, "velocity": 110, "channel": 0}, {"type": "note_off", "time": 247, "note": 67, "velocity": 110, "channel": 0}, {"type": "note_on", "time": 70, "note": 64, "velocity": 103, "channel": 0}, {"type": "note_off", "time": 99, "note": 64, "velocity": 103, "channel": 0}, {"type": "note_on", "time": 67, "note": 65, "velocity": 110, "channel": 0}, {"type": "note_off", "time": 138, "note": 65, "velocity": 110, "channel": 0}, {"type": "note_on", "time": 21, "note": 69, "velocity": 111, "channel": 0}, {"type": "note_off", "time": 74, "note": 69, "velocity": 111, "channel": 0}, {"type": "note_on", "time": 60, "note": 72, "velocity": 93, "channel": 0}, {"type": "note_off", "time": 106, "note": 72, "velocity": 93, "channel": 0}, {"type": "note_on", "time": 31, "note": 76, "velocity": 110, "channel": 0}, {"type": "note_off", "time": 240, "note": 76, "velocity": 110, "channel": 0}, {"type": "note_on", "time": 31, "note": 79, "velocity": 89, "channel": 0}, {"type": "note_off", "time": 191, "note": 79, "velocity": 89, "channel": 0}, {"type": "note_on", "time": 216, "note": 74, "velocity": 99, "channel": 0}, {"type": "note_off", "time": 248, "note": 74, "velocity": 99, "channel": 0}, {"type": "note_on", "time": 116, "note": 77, "velocity": 106, "channel": 0}, {"type": "note_off", "time": 212, "note": 77, "velocity": 106, "channel": 0}, {"type": "note_on", "time": 42, "note": 76, "velocity": 103, "channel": 0}, {"type": "note_off", "time": 219, "note": 76, "velocity": 103, "channel": 0}, {"type": "note_on", "time": 88, "note": 72, "velocity": 104, "channel": 0}, {"type": "note_off", "time": 269, "note": 72, "velocity": 104, "channel": 0}, {"type": "note_on", "time": 123, "note": 68, "velocity": 117, "channel": 0}, {"type": "note_off", "time": 233, "note": 68, "velocity": 117, "channel": 0}, {"type": "note_on", "time": 157, "note": 74, "velocity": 103, "channel": 0}, {"type": "note_off", "time": 193, "note": 74, "velocity": 103, "channel": 0}, {"type": "note_on", "time": 154, "note": 72, "velocity": 103, "channel": 0}, {"type": "note_off", "time": 200, "note": 72, "velocity": 103, "channel": 0}, {"type": "note_on", "time": 116, "note": 68, "velocity": 114, "channel": 0}, {"type": "note_off", "time": 228, "note": 68, "velocity": 114, "channel": 0}, {"type": "note_on", "time": 107, "note": 62, "velocity": 103, "channel": 0}, {"type": "note_off", "time": 153, "note": 62, "velocity": 103, "channel": 0}, {"type": "note_on", "time": 93, "note": 60, "velocity": 103, "channel": 0}, {"type": "note_off", "time": 156, "note": 60, "velocity": 103, "channel": 0}, {"type": "note_on", "time": 12, "note": 59, "velocity": 111, "channel": 0}, {"type": "note_off", "time": 110, "note": 59, "velocity": 111, "channel": 0}, {"type": "note_on", "time": 7, "note": 58, "velocity": 111, "channel": 0}, {"type": "note_off", "time": 128, "note": 58, "velocity": 111, "channel": 0}, {"type": "note_on", "time": 7, "note": 57, "velocity": 113, "channel": 0}, {"type": "note_off", "time": 92, "note": 57, "velocity": 113, "channel": 0}, {"type": "note_on", "time": 14, "note": 56, "velocity": 114, "channel": 0}, {"type": "note_off", "time": 77, "note": 56, "velocity": 114, "channel": 0}, {"type": "note_on", "time": 35, "note": 55, "velocity": 105, "channel": 0}, {"type": "note_off", "time": 191, "note": 55, "velocity": 105, "channel": 0}, {"type": "note_on", "time": 191, "note": 64, "velocity": 102, "channel": 0}, {"type": "note_off", "time": 129, "note": 64, "velocity": 102, "channel": 0}, {"type": "note_on", "time": 24, "note": 55, "velocity": 102, "channel": 0}, {"type": "note_off", "time": 230, "note": 55, "velocity": 102, "channel": 0}, {"type": "note_on", "time": 108, "note": 52, "velocity": 103, "channel": 0}, {"type": "note_off", "time": 506, "note": 52, "velocity": 103, "channel": 0}, {"type": "note_on", "time": 1286, "note": 59, "velocity": 112, "channel": 0}, {"type": "note_off", "time": 251, "note": 59, "velocity": 112, "channel": 0}, {"type": "note_on", "time": 40, "note": 60, "velocity": 113, "channel": 0}, {"type": "note_off", "time": 251, "note": 60, "velocity": 113, "channel": 0}, {"type": "note_on", "time": 38, "note": 64, "velocity": 110, "channel": 0}, {"type": "note_off", "time": 246, "note": 64, "velocity": 110, "channel": 0}, {"type": "note_on", "time": 31, "note": 67, "velocity": 121, "channel": 0}, {"type": "note_off", "time": 242, "note": 67, "velocity": 121, "channel": 0}, {"type": "note_on", "time": 29, "note": 69, "velocity": 120, "channel": 0}, {"type": "note_off", "time": 317, "note": 69, "velocity": 120, "channel": 0}, {"type": "note_on", "time": 97, "note": 68, "velocity": 110, "channel": 0}, {"type": "note_off", "time": 120, "note": 68, "velocity": 110, "channel": 0}, {"type": "note_on", "time": 3, "note": 71, "velocity": 116, "channel": 0}, {"type": "note_off", "time": 267, "note": 71, "velocity": 116, "channel": 0}, {"type": "note_on", "time": 163, "note": 70, "velocity": 51, "channel": 0}, {"type": "note_off", "time": 183, "note": 70, "velocity": 51, "channel": 0}, {"type": "note_on", "time": 7, "note": 71, "velocity": 113, "channel": 0}, {"type": "note_off", "time": 269, "note": 71, "velocity": 113, "channel": 0}, {"type": "note_on", "time": 138, "note": 70, "velocity": 112, "channel": 0}, {"type": "note_off", "time": 128, "note": 70, "velocity": 112, "channel": 0}, {"type": "note_on", "time": 10, "note": 71, "velocity": 111, "channel": 0}, {"type": "note_off", "time": 221, "note": 71, "velocity": 111, "channel": 0}, {"type": "note_on", "time": 27, "note": 70, "velocity": 109, "channel": 0}, {"type": "note_off", "time": 138, "note": 70, "velocity": 109, "channel": 0}, {"type": "note_on", "time": 330, "note": 64, "velocity": 103, "channel": 0}, {"type": "note_off", "time": 226, "note": 64, "velocity": 103, "channel": 0}, {"type": "note_on", "time": 100, "note": 69, "velocity": 105, "channel": 0}, {"type": "note_off", "time": 387, "note": 69, "velocity": 105, "channel": 0}, {"type": "note_on", "time": 156, "note": 71, "velocity": 113, "channel": 0}, {"type": "note_off", "time": 259, "note": 71, "velocity": 113, "channel": 0}, {"type": "note_on", "time": 32, "note": 72, "velocity": 105, "channel": 0}, {"type": "note_off", "time": 322, "note": 72, "velocity": 105, "channel": 0}, {"type": "note_on", "time": 162, "note": 69, "velocity": 114, "channel": 0}, {"type": "note_off", "time": 265, "note": 69, "velocity": 114, "channel": 0}, {"type": "note_on", "time": 141, "note": 63, "velocity": 109, "channel": 0}, {"type": "note_off", "time": 265, "note": 63, "velocity": 109, "channel": 0}, {"type": "note_on", "time": 17, "note": 62, "velocity": 91, "channel": 0}, {"type": "note_off", "time": 141, "note": 62, "velocity": 91, "channel": 0}, {"type": "note_on", "time": 120, "note": 60, "velocity": 96, "channel": 0}, {"type": "note_off", "time": 95, "note": 60, "velocity": 96, "channel": 0}, {"type": "note_on", "time": 85, "note": 62, "velocity": 98, "channel": 0}, {"type": "note_off", "time": 772, "note": 62, "velocity": 98, "channel": 0}, {"type": "note_on", "time": 216, "note": 57, "velocity": 102, "channel": 0}, {"type": "note_off", "time": 166, "note": 57, "velocity": 102, "channel": 0}, {"type": "note_on", "time": 333, "note": 60, "velocity": 108, "channel": 0}, {"type": "note_off", "time": 170, "note": 60, "velocity": 108, "channel": 0}, {"type": "note_on", "time": 318, "note": 69, "velocity": 112, "channel": 0}, {"type": "note_off", "time": 301, "note": 69, "velocity": 112, "channel": 0}, {"type": "note_on", "time": 318, "note": 63, "velocity": 110, "channel": 0}, {"type": "note_off", "time": 187, "note": 63, "velocity": 110, "channel": 0}, {"type": "note_on", "time": 478, "note": 57, "velocity": 109, "channel": 0}, {"type": "note_off", "time": 162, "note": 57, "velocity": 109, "channel": 0}, {"type": "note_on", "time": 219, "note": 60, "velocity": 108, "channel": 0}, {"type": "note_off", "time": 226, "note": 60, "velocity": 108, "channel": 0}, {"type": "note_on", "time": 286, "note": 69, "velocity": 118, "channel": 0}, {"type": "note_off", "time": 258, "note": 69, "velocity": 118, "channel": 0}, {"type": "note_on", "time": 372, "note": 63, "velocity": 110, "channel": 0}, {"type": "note_off", "time": 201, "note": 63, "velocity": 110, "channel": 0}, {"type": "note_on", "time": 308, "note": 57, "velocity": 99, "channel": 0}, {"type": "note_off", "time": 361, "note": 57, "velocity": 99, "channel": 0}, {"type": "note_on", "time": 74, "note": 60, "velocity": 103, "channel": 0}, {"type": "note_off", "time": 513, "note": 60, "velocity": 103, "channel": 0}, {"type": "note_on", "time": 1038, "note": 69, "velocity": 121, "channel": 0}, {"type": "note_off", "time": 198, "note": 69, "velocity": 121, "channel": 0}, {"type": "note_on", "time": 315, "note": 63, "velocity": 106, "channel": 0}, {"type": "note_off", "time": 336, "note": 63, "velocity": 106, "channel": 0}, {"type": "note_on", "time": 311, "note": 57, "velocity": 103, "channel": 0}, {"type": "note_off", "time": 223, "note": 57, "velocity": 103, "channel": 0}, {"type": "note_on", "time": 265, "note": 60, "velocity": 105, "channel": 0}, {"type": "note_off", "time": 333, "note": 60, "velocity": 105, "channel": 0}, {"type": "note_on", "time": 1243, "note": 69, "velocity": 122, "channel": 0}, {"type": "note_off", "time": 166, "note": 69, "velocity": 122, "channel": 0}, {"type": "note_on", "time": 499, "note": 63, "velocity": 108, "channel": 0}, {"type": "note_off", "time": 244, "note": 63, "velocity": 108, "channel": 0}, {"type": "note_on", "time": 347, "note": 57, "velocity": 100, "channel": 0}, {"type": "note_off", "time": 290, "note": 57, "velocity": 100, "channel": 0}, {"type": "note_on", "time": 233, "note": 60, "velocity": 97, "channel": 0}, {"type": "note_off", "time": 503, "note": 60, "velocity": 97, "channel": 0}, {"type": "note_on", "time": 53, "note": 59, "velocity": 108, "channel": 0}, {"type": "note_off", "time": 138, "note": 59, "velocity": 108, "channel": 0}, {"type": "note_on", "time": 31, "note": 57, "velocity": 104, "channel": 0}, {"type": "note_off", "time": 145, "note": 57, "velocity": 104, "channel": 0}, {"type": "note_on", "time": 294, "note": 69, "velocity": 116, "channel": 0}, {"type": "note_off", "time": 244, "note": 69, "velocity": 116, "channel": 0}, {"type": "note_on", "time": 262, "note": 62, "velocity": 107, "channel": 0}, {"type": "note_off", "time": 194, "note": 62, "velocity": 107, "channel": 0}, {"type": "note_on", "time": 357, "note": 57, "velocity": 102, "channel": 0}, {"type": "note_off", "time": 223, "note": 57, "velocity": 102, "channel": 0}, {"type": "note_on", "time": 382, "note": 60, "velocity": 106, "channel": 0}, {"type": "note_off", "time": 290, "note": 60, "velocity": 106, "channel": 0}, {"type": "note_on", "time": 829, "note": 59, "velocity": 114, "channel": 0}, {"type": "note_off", "time": 148, "note": 59, "velocity": 114, "channel": 0}, {"type": "note_on", "time": 14, "note": 60, "velocity": 112, "channel": 0}, {"type": "note_off", "time": 74, "note": 60, "velocity": 112, "channel": 0}, {"type": "note_on", "time": 17, "note": 62, "velocity": 107, "channel": 0}, {"type": "note_off", "time": 106, "note": 62, "velocity": 107, "channel": 0}, {"type": "note_on", "time": 46, "note": 67, "velocity": 110, "channel": 0}, {"type": "note_off", "time": 141, "note": 67, "velocity": 110, "channel": 0}, {"type": "note_on", "time": 60, "note": 71, "velocity": 117, "channel": 0}, {"type": "note_off", "time": 286, "note": 71, "velocity": 117, "channel": 0}, {"type": "note_on", "time": 85, "note": 74, "velocity": 114, "channel": 0}, {"type": "note_off", "time": 201, "note": 74, "velocity": 114, "channel": 0}, {"type": "note_on", "time": 240, "note": 71, "velocity": 115, "channel": 0}, {"type": "note_off", "time": 155, "note": 71, "velocity": 115, "channel": 0}, {"type": "note_on", "time": 184, "note": 67, "velocity": 118, "channel": 0}, {"type": "note_off", "time": 170, "note": 67, "velocity": 118, "channel": 0}, {"type": "note_on", "time": 49, "note": 64, "velocity": 113, "channel": 0}, {"type": "note_off", "time": 198, "note": 64, "velocity": 113, "channel": 0}, {"type": "note_on", "time": 38, "note": 60, "velocity": 115, "channel": 0}, {"type": "note_off", "time": 131, "note": 60, "velocity": 115, "channel": 0}, {"type": "note_on", "time": 60, "note": 58, "velocity": 117, "channel": 0}, {"type": "note_off", "time": 162, "note": 58, "velocity": 117, "channel": 0}, {"type": "note_on", "time": 70, "note": 55, "velocity": 113, "channel": 0}, {"type": "note_off", "time": 81, "note": 55, "velocity": 113, "channel": 0}, {"type": "note_on", "time": 49, "note": 50, "velocity": 106, "channel": 0}, {"type": "note_off", "time": 102, "note": 50, "velocity": 106, "channel": 0}, {"type": "note_on", "time": 38, "note": 57, "velocity": 106, "channel": 0}, {"type": "note_off", "time": 88, "note": 57, "velocity": 106, "channel": 0}, {"type": "note_on", "time": 38, "note": 64, "velocity": 102, "channel": 0}, {"type": "note_off", "time": 205, "note": 64, "velocity": 102, "channel": 0}, {"type": "note_on", "time": 35, "note": 60, "velocity": 105, "channel": 0}, {"type": "note_off", "time": 237, "note": 60, "velocity": 105, "channel": 0}, {"type": "note_on", "time": 92, "note": 55, "velocity": 109, "channel": 0}, {"type": "note_off", "time": 166, "note": 55, "velocity": 109, "channel": 0}, {"type": "note_on", "time": 244, "note": 64, "velocity": 107, "channel": 0}, {"type": "note_off", "time": 205, "note": 64, "velocity": 107, "channel": 0}, {"type": "note_on", "time": 1172, "note": 53, "velocity": 108, "channel": 0}, {"type": "note_off", "time": 127, "note": 53, "velocity": 108, "channel": 0}, {"type": "note_on", "time": 244, "note": 58, "velocity": 112, "channel": 0}, {"type": "note_off", "time": 191, "note": 58, "velocity": 112, "channel": 0}, {"type": "note_on", "time": 152, "note": 62, "velocity": 105, "channel": 0}, {"type": "note_off", "time": 205, "note": 62, "velocity": 105, "channel": 0}, {"type": "note_on", "time": 77, "note": 65, "velocity": 115, "channel": 0}, {"type": "note_off", "time": 201, "note": 65, "velocity": 115, "channel": 0}, {"type": "note_on", "time": 109, "note": 70, "velocity": 112, "channel": 0}, {"type": "note_off", "time": 134, "note": 70, "velocity": 112, "channel": 0}, {"type": "note_on", "time": 131, "note": 74, "velocity": 110, "channel": 0}, {"type": "note_off", "time": 198, "note": 74, "velocity": 110, "channel": 0}, {"type": "note_on", "time": 237, "note": 79, "velocity": 98, "channel": 0}, {"type": "note_off", "time": 177, "note": 79, "velocity": 98, "channel": 0}, {"type": "note_on", "time": 244, "note": 80, "velocity": 102, "channel": 0}, {"type": "note_off", "time": 180, "note": 80, "velocity": 102, "channel": 0}, {"type": "note_on", "time": 233, "note": 80, "velocity": 100, "channel": 0}, {"type": "note_off", "time": 31, "note": 80, "velocity": 100, "channel": 0}, {"type": "note_on", "time": 14, "note": 81, "velocity": 106, "channel": 0}, {"type": "note_off", "time": 124, "note": 81, "velocity": 106, "channel": 0}, {"type": "note_on", "time": 251, "note": 69, "velocity": 112, "channel": 0}, {"type": "note_off", "time": 184, "note": 69, "velocity": 112, "channel": 0}, {"type": "note_on", "time": 244, "note": 71, "velocity": 111, "channel": 0}, {"type": "note_off", "time": 223, "note": 71, "velocity": 111, "channel": 0}, {"type": "note_on", "time": 120, "note": 72, "velocity": 105, "channel": 0}, {"type": "note_off", "time": 180, "note": 72, "velocity": 105, "channel": 0}, {"type": "note_on", "time": 180, "note": 68, "velocity": 114, "channel": 0}, {"type": "note_off", "time": 209, "note": 68, "velocity": 114, "channel": 0}, {"type": "note_on", "time": 124, "note": 71, "velocity": 112, "channel": 0}, {"type": "note_off", "time": 184, "note": 71, "velocity": 112, "channel": 0}, {"type": "note_on", "time": 159, "note": 69, "velocity": 119, "channel": 0}, {"type": "note_off", "time": 159, "note": 69, "velocity": 119, "channel": 0}, {"type": "note_on", "time": 159, "note": 64, "velocity": 99, "channel": 0}, {"type": "note_off", "time": 99, "note": 64, "velocity": 99, "channel": 0}, {"type": "note_on", "time": 116, "note": 66, "velocity": 113, "channel": 0}, {"type": "note_off", "time": 240, "note": 66, "velocity": 113, "channel": 0}, {"type": "note_on", "time": 138, "note": 64, "velocity": 106, "channel": 0}, {"type": "note_off", "time": 187, "note": 64, "velocity": 106, "channel": 0}, {"type": "note_on", "time": 209, "note": 60, "velocity": 109, "channel": 0}, {"type": "note_off", "time": 209, "note": 60, "velocity": 109, "channel": 0}, {"type": "note_on", "time": 442, "note": 62, "velocity": 108, "channel": 0}, {"type": "note_off", "time": 343, "note": 62, "velocity": 108, "channel": 0}, {"type": "note_on", "time": 1530, "note": 59, "velocity": 119, "channel": 0}, {"type": "note_off", "time": 159, "note": 59, "velocity": 119, "channel": 0}, {"type": "note_on", "time": 46, "note": 62, "velocity": 110, "channel": 0}, {"type": "note_off", "time": 113, "note": 62, "velocity": 110, "channel": 0}, {"type": "note_on", "time": 85, "note": 65, "velocity": 123, "channel": 0}, {"type": "note_off", "time": 187, "note": 65, "velocity": 123, "channel": 0}, {"type": "note_on", "time": 42, "note": 64, "velocity": 117, "channel": 0}, {"type": "note_off", "time": 155, "note": 64, "velocity": 117, "channel": 0}, {"type": "note_on", "time": 49, "note": 67, "velocity": 123, "channel": 0}, {"type": "note_off", "time": 166, "note": 67, "velocity": 123, "channel": 0}, {"type": "note_on", "time": 53, "note": 71, "velocity": 121, "channel": 0}, {"type": "note_off", "time": 187, "note": 71, "velocity": 121, "channel": 0}, {"type": "note_on", "time": 56, "note": 74, "velocity": 116, "channel": 0}, {"type": "note_off", "time": 166, "note": 74, "velocity": 116, "channel": 0}, {"type": "note_on", "time": 21, "note": 72, "velocity": 115, "channel": 0}, {"type": "note_off", "time": 85, "note": 72, "velocity": 115, "channel": 0}, {"type": "note_on", "time": 38, "note": 74, "velocity": 108, "channel": 0}, {"type": "note_off", "time": 88, "note": 74, "velocity": 108, "channel": 0}, {"type": "note_on", "time": 24, "note": 72, "velocity": 115, "channel": 0}, {"type": "note_off", "time": 70, "note": 72, "velocity": 115, "channel": 0}, {"type": "note_on", "time": 56, "note": 69, "velocity": 118, "channel": 0}, {"type": "note_off", "time": 340, "note": 69, "velocity": 118, "channel": 0}, {"type": "note_on", "time": 63, "note": 70, "velocity": 119, "channel": 0}, {"type": "note_off", "time": 269, "note": 70, "velocity": 119, "channel": 0}, {"type": "note_on", "time": 212, "note": 62, "velocity": 113, "channel": 0}, {"type": "note_off", "time": 212, "note": 62, "velocity": 113, "channel": 0}, {"type": "note_on", "time": 166, "note": 66, "velocity": 116, "channel": 0}, {"type": "note_off", "time": 216, "note": 66, "velocity": 116, "channel": 0}, {"type": "note_on", "time": 42, "note": 69, "velocity": 117, "channel": 0}, {"type": "note_off", "time": 279, "note": 69, "velocity": 117, "channel": 0}, {"type": "note_on", "time": 109, "note": 62, "velocity": 115, "channel": 0}, {"type": "note_off", "time": 375, "note": 62, "velocity": 115, "channel": 0}, {"type": "note_on", "time": 49, "note": 54, "velocity": 113, "channel": 0}, {"type": "note_off", "time": 141, "note": 54, "velocity": 113, "channel": 0}, {"type": "note_on", "time": 38, "note": 57, "velocity": 108, "channel": 0}, {"type": "note_off", "time": 81, "note": 57, "velocity": 108, "channel": 0}, {"type": "note_on", "time": 35, "note": 54, "velocity": 114, "channel": 0}, {"type": "note_off", "time": 141, "note": 54, "velocity": 114, "channel": 0}, {"type": "note_on", "time": 67, "note": 57, "velocity": 114, "channel": 0}, {"type": "note_off", "time": 106, "note": 57, "velocity": 114, "channel": 0}, {"type": "note_on", "time": 31, "note": 62, "velocity": 113, "channel": 0}, {"type": "note_off", "time": 63, "note": 62, "velocity": 113, "channel": 0}, {"type": "note_on", "time": 35, "note": 58, "velocity": 115, "channel": 0}, {"type": "note_off", "time": 95, "note": 58, "velocity": 115, "channel": 0}, {"type": "note_on", "time": 53, "note": 62, "velocity": 103, "channel": 0}, {"type": "note_off", "time": 127, "note": 62, "velocity": 103, "channel": 0}, {"type": "note_on", "time": 31, "note": 65, "velocity": 104, "channel": 0}, {"type": "note_off", "time": 120, "note": 65, "velocity": 104, "channel": 0}, {"type": "note_on", "time": 120, "note": 66, "velocity": 109, "channel": 0}, {"type": "note_off", "time": 127, "note": 66, "velocity": 109, "channel": 0}, {"type": "note_on", "time": 77, "note": 70, "velocity": 115, "channel": 0}, {"type": "note_off", "time": 99, "note": 70, "velocity": 115, "channel": 0}, {"type": "note_on", "time": 35, "note": 66, "velocity": 114, "channel": 0}, {"type": "note_off", "time": 85, "note": 66, "velocity": 114, "channel": 0}, {"type": "note_on", "time": 35, "note": 70, "velocity": 108, "channel": 0}, {"type": "note_off", "time": 67, "note": 70, "velocity": 108, "channel": 0}, {"type": "note_on", "time": 42, "note": 74, "velocity": 105, "channel": 0}, {"type": "note_off", "time": 102, "note": 74, "velocity": 105, "channel": 0}, {"type": "note_on", "time": 38, "note": 70, "velocity": 117, "channel": 0}, {"type": "note_off", "time": 134, "note": 70, "velocity": 117, "channel": 0}, {"type": "note_on", "time": 53, "note": 74, "velocity": 112, "channel": 0}, {"type": "note_off", "time": 60, "note": 74, "velocity": 112, "channel": 0}, {"type": "note_on", "time": 60, "note": 78, "velocity": 120, "channel": 0}, {"type": "note_off", "time": 226, "note": 78, "velocity": 120, "channel": 0}, {"type": "note_on", "time": 860, "note": 78, "velocity": 112, "channel": 0}, {"type": "note_off", "time": 42, "note": 78, "velocity": 112, "channel": 0}, {"type": "note_on", "time": 31, "note": 79, "velocity": 109, "channel": 0}, {"type": "note_off", "time": 131, "note": 79, "velocity": 109, "channel": 0}, {"type": "note_on", "time": 389, "note": 76, "velocity": 116, "channel": 0}, {"type": "note_off", "time": 173, "note": 76, "velocity": 116, "channel": 0}, {"type": "note_on", "time": 138, "note": 72, "velocity": 114, "channel": 0}, {"type": "note_off", "time": 201, "note": 72, "velocity": 114, "channel": 0}, {"type": "note_on", "time": 138, "note": 68, "velocity": 124, "channel": 0}, {"type": "note_off", "time": 389, "note": 68, "velocity": 124, "channel": 0}, {"type": "note_on", "time": 0, "note": 70, "velocity": 123, "channel": 0}, {"type": "note_off", "time": 63, "note": 70, "velocity": 123, "channel": 0}, {"type": "note_on", "time": 14, "note": 71, "velocity": 123, "channel": 0}, {"type": "note_off", "time": 109, "note": 71, "velocity": 123, "channel": 0}, {"type": "note_on", "time": 67, "note": 72, "velocity": 118, "channel": 0}, {"type": "note_off", "time": 145, "note": 72, "velocity": 118, "channel": 0}, {"type": "note_on", "time": 63, "note": 69, "velocity": 125, "channel": 0}, {"type": "note_off", "time": 180, "note": 69, "velocity": 125, "channel": 0}, {"type": "note_on", "time": 46, "note": 64, "velocity": 111, "channel": 0}, {"type": "note_off", "time": 166, "note": 64, "velocity": 111, "channel": 0}, {"type": "note_on", "time": 42, "note": 60, "velocity": 113, "channel": 0}, {"type": "note_off", "time": 155, "note": 60, "velocity": 113, "channel": 0}, {"type": "note_on", "time": 67, "note": 58, "velocity": 119, "channel": 0}, {"type": "note_off", "time": 148, "note": 58, "velocity": 119, "channel": 0}, {"type": "note_on", "time": 67, "note": 56, "velocity": 107, "channel": 0}, {"type": "note_off", "time": 77, "note": 56, "velocity": 107, "channel": 0}, {"type": "note_on", "time": 42, "note": 55, "velocity": 113, "channel": 0}, {"type": "note_off", "time": 106, "note": 55, "velocity": 113, "channel": 0}, {"type": "note_on", "time": 42, "note": 56, "velocity": 106, "channel": 0}, {"type": "note_off", "time": 124, "note": 56, "velocity": 106, "channel": 0}, {"type": "note_on", "time": 24, "note": 59, "velocity": 111, "channel": 0}, {"type": "note_off", "time": 85, "note": 59, "velocity": 111, "channel": 0}, {"type": "note_on", "time": 53, "note": 63, "velocity": 106, "channel": 0}, {"type": "note_off", "time": 38, "note": 63, "velocity": 106, "channel": 0}, {"type": "note_on", "time": 102, "note": 67, "velocity": 110, "channel": 0}, {"type": "note_off", "time": 230, "note": 67, "velocity": 110, "channel": 0}, {"type": "note_on", "time": 226, "note": 65, "velocity": 114, "channel": 0}, {"type": "note_off", "time": 226, "note": 65, "velocity": 114, "channel": 0}, {"type": "note_on", "time": 67, "note": 62, "velocity": 110, "channel": 0}, {"type": "note_off", "time": 184, "note": 62, "velocity": 110, "channel": 0}, {"type": "note_on", "time": 364, "note": 56, "velocity": 110, "channel": 0}, {"type": "note_off", "time": 612, "note": 56, "velocity": 110, "channel": 0}, {"type": "note_on", "time": 1130, "note": 63, "velocity": 109, "channel": 0}, {"type": "note_off", "time": 70, "note": 63, "velocity": 109, "channel": 0}, {"type": "note_on", "time": 10, "note": 64, "velocity": 108, "channel": 0}, {"type": "note_off", "time": 77, "note": 64, "velocity": 108, "channel": 0}, {"type": "note_on", "time": 198, "note": 59, "velocity": 113, "channel": 0}, {"type": "note_off", "time": 184, "note": 59, "velocity": 113, "channel": 0}, {"type": "note_on", "time": 46, "note": 62, "velocity": 105, "channel": 0}, {"type": "note_off", "time": 226, "note": 62, "velocity": 105, "channel": 0}, {"type": "note_on", "time": 63, "note": 60, "velocity": 108, "channel": 0}, {"type": "note_off", "time": 248, "note": 60, "velocity": 108, "channel": 0}, {"type": "note_on", "time": 159, "note": 71, "velocity": 111, "channel": 0}, {"type": "note_off", "time": 251, "note": 71, "velocity": 111, "channel": 0}, {"type": "note_on", "time": 141, "note": 68, "velocity": 118, "channel": 0}, {"type": "note_off", "time": 173, "note": 68, "velocity": 118, "channel": 0}, {"type": "note_on", "time": 21, "note": 69, "velocity": 113, "channel": 0}, {"type": "note_off", "time": 272, "note": 69, "velocity": 113, "channel": 0}, {"type": "note_on", "time": 120, "note": 64, "velocity": 106, "channel": 0}, {"type": "note_off", "time": 212, "note": 64, "velocity": 106, "channel": 0}, {"type": "note_on", "time": 81, "note": 67, "velocity": 110, "channel": 0}, {"type": "note_off", "time": 237, "note": 67, "velocity": 110, "channel": 0}, {"type": "note_on", "time": 113, "note": 64, "velocity": 104, "channel": 0}, {"type": "note_off", "time": 223, "note": 64, "velocity": 104, "channel": 0}, {"type": "note_on", "time": 106, "note": 60, "velocity": 109, "channel": 0}, {"type": "note_off", "time": 258, "note": 60, "velocity": 109, "channel": 0}, {"type": "note_on", "time": 67, "note": 59, "velocity": 111, "channel": 0}, {"type": "note_off", "time": 286, "note": 59, "velocity": 111, "channel": 0}, {"type": "note_on", "time": 99, "note": 58, "velocity": 118, "channel": 0}, {"type": "note_off", "time": 442, "note": 58, "velocity": 118, "channel": 0}, {"type": "note_on", "time": 77, "note": 57, "velocity": 108, "channel": 0}, {"type": "note_off", "time": 294, "note": 57, "velocity": 108, "channel": 0}, {"type": "note_on", "time": 85, "note": 56, "velocity": 114, "channel": 0}, {"type": "note_off", "time": 478, "note": 56, "velocity": 114, "channel": 0}, {"type": "note_on", "time": 286, "note": 63, "velocity": 111, "channel": 0}, {"type": "note_off", "time": 35, "note": 63, "velocity": 111, "channel": 0}, {"type": "note_on", "time": 17, "note": 64, "velocity": 106, "channel": 0}, {"type": "note_off", "time": 145, "note": 64, "velocity": 106, "channel": 0}, {"type": "note_on", "time": 223, "note": 57, "velocity": 111, "channel": 0}, {"type": "note_off", "time": 286, "note": 57, "velocity": 111, "channel": 0}, {"type": "note_on", "time": 1177, "note": 62, "velocity": 106, "channel": 0}, {"type": "note_off", "time": 110, "note": 62, "velocity": 106, "channel": 0}, {"type": "note_on", "time": 22, "note": 64, "velocity": 106, "channel": 0}, {"type": "note_off", "time": 205, "note": 64, "velocity": 106, "channel": 0}, {"type": "note_on", "time": 294, "note": 57, "velocity": 109, "channel": 0}, {"type": "note_off", "time": 439, "note": 57, "velocity": 109, "channel": 0}, {"type": "note_on", "time": 318, "note": 61, "velocity": 105, "channel": 0}, {"type": "note_off", "time": 131, "note": 61, "velocity": 105, "channel": 0}, {"type": "note_on", "time": 4, "note": 63, "velocity": 103, "channel": 0}, {"type": "note_off", "time": 184, "note": 63, "velocity": 103, "channel": 0}, {"type": "note_on", "time": 226, "note": 57, "velocity": 107, "channel": 0}, {"type": "note_off", "time": 379, "note": 57, "velocity": 107, "channel": 0}, {"type": "note_on", "time": 253, "note": 60, "velocity": 103, "channel": 0}, {"type": "note_off", "time": 192, "note": 60, "velocity": 103, "channel": 0}, {"type": "note_on", "time": 0, "note": 62, "velocity": 102, "channel": 0}, {"type": "note_off", "time": 283, "note": 62, "velocity": 102, "channel": 0}, {"type": "note_on", "time": 74, "note": 60, "velocity": 105, "channel": 0}, {"type": "note_off", "time": 340, "note": 60, "velocity": 105, "channel": 0}, {"type": "note_on", "time": 623, "note": 60, "velocity": 111, "channel": 0}, {"type": "note_off", "time": 85, "note": 60, "velocity": 111, "channel": 0}, {"type": "note_on", "time": 27, "note": 62, "velocity": 104, "channel": 0}, {"type": "note_off", "time": 50, "note": 62, "velocity": 104, "channel": 0}, {"type": "note_on", "time": 30, "note": 60, "velocity": 110, "channel": 0}, {"type": "note_off", "time": 88, "note": 60, "velocity": 110, "channel": 0}, {"type": "note_on", "time": 20, "note": 59, "velocity": 108, "channel": 0}, {"type": "note_off", "time": 153, "note": 59, "velocity": 108, "channel": 0}, {"type": "note_on", "time": 15, "note": 60, "velocity": 107, "channel": 0}, {"type": "note_off", "time": 148, "note": 60, "velocity": 107, "channel": 0}, {"type": "note_on", "time": 102, "note": 69, "velocity": 115, "channel": 0}, {"type": "note_off", "time": 223, "note": 69, "velocity": 115, "channel": 0}, {"type": "note_on", "time": 79, "note": 65, "velocity": 112, "channel": 0}, {"type": "note_off", "time": 110, "note": 65, "velocity": 112, "channel": 0}, {"type": "note_on", "time": 60, "note": 62, "velocity": 111, "channel": 0}, {"type": "note_off", "time": 361, "note": 62, "velocity": 111, "channel": 0}, {"type": "note_on", "time": 78, "note": 59, "velocity": 114, "channel": 0}, {"type": "note_off", "time": 226, "note": 59, "velocity": 114, "channel": 0}, {"type": "note_on", "time": 502, "note": 64, "velocity": 103, "channel": 0}, {"type": "note_off", "time": 186, "note": 64, "velocity": 103, "channel": 0}, {"type": "note_on", "time": 105, "note": 60, "velocity": 96, "channel": 0}, {"type": "note_off", "time": 1148, "note": 60, "velocity": 96, "channel": 0}, {"type": "end_of_track", "time": 0}]]}