{"ticks_per_beat": 192, "tracks": [[{"type": "track_name", "name": "Melody", "time": 0}, {"type": "set_tempo", "tempo": 301507, "time": 0}, {"type": "key_signature", "key": "Eb", "time": 0}, {"type": "time_signature", "numerator": 4, "denominator": 4, "clocks_per_click": 24, "notated_32nd_notes_per_beat": 8, "time": 0}, {"type": "note_on", "time": 2387, "note": 78, "velocity": 118, "channel": 0}, {"type": "note_off", "time": 101, "note": 78, "velocity": 118, "channel": 0}, {"type": "note_on", "time": 25, "note": 79, "velocity": 110, "channel": 0}, {"type": "note_off", "time": 67, "note": 79, "velocity": 110, "channel": 0}, {"type": "note_on", "time": 13, "note": 78, "velocity": 99, "channel": 0}, {"type": "note_off", "time": 35, "note": 78, "velocity": 99, "channel": 0}, {"type": "note_on", "time": 7, "note": 79, "velocity": 91, "channel": 0}, {"type": "note_off", "time": 24, "note": 79, "velocity": 91, "channel": 0}, {"type": "note_on", "time": 25, "note": 78, "velocity": 86, "channel": 0}, {"type": "note_off", "time": 42, "note": 78, "velocity": 86, "channel": 0}, {"type": "note_on", "time": 24, "note": 77, "velocity": 101, "channel": 0}, {"type": "note_off", "time": 101, "note": 77, "velocity": 101, "channel": 0}, {"type": "note_on", "time": 118, "note": 75, "velocity": 111, "channel": 0}, {"type": "note_off", "time": 79, "note": 75, "velocity": 111, "channel": 0}, {"type": "note_on", "time": 20, "note": 72, "velocity": 101, "channel": 0}, {"type": "note_off", "time": 81, "note": 72, "velocity": 101, "channel": 0}, {"type": "note_on", "time": 25, "note": 70, "velocity": 104, "channel": 0}, {"type": "note_off", "time": 88, "note": 70, "velocity": 104, "channel": 0}, {"type": "note_on", "time": 66, "note": 75, "velocity": 94, "channel": 0}, {"type": "note_off", "time": 258, "note": 75, "velocity": 94, "channel": 0}, {"type": "note_on", "time": 60, "note": 67, "velocity": 73, "channel": 0}, {"type": "note_off", "time": 48, "note": 67, "velocity": 73, "channel": 0}, {"type": "note_on", "time": 18, "note": 70, "velocity": 112, "channel": 0}, {"type": "note_off", "time": 118, "note": 70, "velocity": 112, "channel": 0}, {"type": "note_on", "time": 18, "note": 72, "velocity": 102, "channel": 0}, {"type": "note_off", "time": 72, "note": 72, "velocity": 102, "channel": 0}, {"type": "note_on", "time": 18, "note": 75, "velocity": 117, "channel": 0}, {"type": "note_off", "time": 81, "note": 75, "velocity": 117, "channel": 0}, {"type": "note_on", "time": 16, "note": 79, "velocity": 106, "channel": 0}, {"type": "note_off", "time": 59, "note": 79, "velocity": 106, "channel": 0}, {"type": "note_on", "time": 42, "note": 74, "velocity": 88, "channel": 0}, {"type": "note_off", "time": 240, "note": 74, "velocity": 88, "channel": 0}, {"type": "note_on", "time": 293, "note": 66, "velocity": 92, "channel": 0}, {"type": "note_off", "time": 133, "note": 66, "velocity": 92, "channel": 0}, {"type": "note_on", "time": 16, "note": 72, "velocity": 87, "channel": 0}, {"type": "note_off", "time": 521, "note": 72, "velocity": 87, "channel": 0}, {"type": "note_on", "time": 693, "note": 84, "velocity": 127, "channel": 0}, {"type": "note_off", "time": 116, "note": 84, "velocity": 127, "channel": 0}, {"type": "note_on", "time": 9, "note": 82, "velocity": 104, "channel": 0}, {"type": "note_off", "time": 53, "note": 82, "velocity": 104, "channel": 0}, {"type": "note_on", "time": 16, "note": 79, "velocity": 116, "channel": 0}, {"type": "note_off", "time": 94, "note": 79, "velocity": 116, "channel": 0}, {"type": "note_on", "time": 18, "note": 77, "velocity": 120, "channel": 0}, {"type": "note_off", "time": 79, "note": 77, "velocity": 120, "channel": 0}, {"type": "note_on", "time": 3, "note": 75, "velocity": 113, "channel": 0}, {"type": "note_off", "time": 70, "note": 75, "velocity": 113, "channel": 0}, {"type": "note_on", "time": 22, "note": 72, "velocity": 118, "channel": 0}, {"type": "note_off", "time": 75, "note": 72, "velocity": 118, "channel": 0}, {"type": "note_on", "time": 20, "note": 70, "velocity": 112, "channel": 0}, {"type": "note_off", "time": 96, "note": 70, "velocity": 112, "channel": 0}, {"type": "note_on", "time": 20, "note": 67, "velocity": 107, "channel": 0}, {"type": "note_off", "time": 81, "note": 67, "velocity": 107, "channel": 0}, {"type": "note_on", "time": 5, "note": 65, "velocity": 100, "channel": 0}, {"type": "note_off", "time": 94, "note": 65, "velocity": 100, "channel": 0}, {"type": "note_on", "time": 35, "note": 64, "velocity": 81, "channel": 0}, {"type": "note_off", "time": 20, "note": 64, "velocity": 81, "channel": 0}, {"type": "note_on", "time": 27, "note": 70, "velocity": 115, "channel": 0}, {"type": "note_off", "time": 120, "note": 70, "velocity": 115, "channel": 0}, {"type": "note_on", "time": 7, "note": 75, "velocity": 114, "channel": 0}, {"type": "note_off", "time": 59, "note": 75, "velocity": 114, "channel": 0}, {"type": "note_on", "time": 18, "note": 80, "velocity": 106, "channel": 0}, {"type": "note_off", "time": 149, "note": 80, "velocity": 106, "channel": 0}, {"type": "note_on", "time": 179, "note": 67, "velocity": 93, "channel": 0}, {"type": "note_off", "time": 38, "note": 67, "velocity": 93, "channel": 0}, {"type": "note_on", "time": 20, "note": 70, "velocity": 114, "channel": 0}, {"type": "note_off", "time": 86, "note": 70, "velocity": 114, "channel": 0}, {"type": "note_on", "time": 22, "note": 72, "velocity": 105, "channel": 0}, {"type": "note_off", "time": 68, "note": 72, "velocity": 105, "channel": 0}, {"type": "note_on", "time": 9, "note": 80, "velocity": 112, "channel": 0}, {"type": "note_off", "time": 92, "note": 80, "velocity": 112, "channel": 0}, {"type": "note_on", "time": 20, "note": 80, "velocity": 113, "channel": 0}, {"type": "note_off", "time": 70, "note": 80, "velocity": 113, "channel": 0}, {"type": "note_on", "time": 14, "note": 79, "velocity": 111, "channel": 0}, {"type": "note_off", "time": 112, "note": 79, "velocity": 111, "channel": 0}, {"type": "note_on", "time": 171, "note": 72, "velocity": 68, "channel": 0}, {"type": "note_off", "time": 48, "note": 72, "velocity": 68, "channel": 0}, {"type": "note_on", "time": 16, "note": 76, "velocity": 118, "channel": 0}, {"type": "note_off", "time": 110, "note": 76, "velocity": 118, "channel": 0}, {"type": "note_on", "time": 18, "note": 79, "velocity": 110, "channel": 0}, {"type": "note_off", "time": 53, "note": 79, "velocity": 110, "channel": 0}, {"type": "note_on", "time": 25, "note": 74, "velocity": 107, "channel": 0}, {"type": "note_off", "time": 105, "note": 74, "velocity": 107, "channel": 0}, {"type": "note_on", "time": 9, "note": 75, "velocity": 112, "channel": 0}, {"type": "note_off", "time": 59, "note": 75, "velocity": 112, "channel": 0}, {"type": "note_on", "time": 20, "note": 79, "velocity": 106, "channel": 0}, {"type": "note_off", "time": 107, "note": 79, "velocity": 106, "channel": 0}, {"type": "note_on", "time": 88, "note": 67, "velocity": 84, "channel": 0}, {"type": "note_off", "time": 97, "note": 67, "velocity": 84, "channel": 0}, {"type": "note_on", "time": 97, "note": 72, "velocity": 88, "channel": 0}, {"type": "note_off", "time": 297, "note": 72, "velocity": 88, "channel": 0}, {"type": "note_on", "time": 245, "note": 79, "velocity": 113, "channel": 0}, {"type": "note_off", "time": 83, "note": 79, "velocity": 113, "channel": 0}, {"type": "note_on", "time": 3, "note": 82, "velocity": 108, "channel": 0}, {"type": "note_off", "time": 46, "note": 82, "velocity": 108, "channel": 0}, {"type": "note_on", "time": 16, "note": 79, "velocity": 109, "channel": 0}, {"type": "note_off", "time": 121, "note": 79, "velocity": 109, "channel": 0}, {"type": "note_on", "time": 12, "note": 79, "velocity": 82, "channel": 0}, {"type": "note_off", "time": 77, "note": 79, "velocity": 82, "channel": 0}, {"type": "note_on", "time": 35, "note": 79, "velocity": 111, "channel": 0}, {"type": "note_off", "time": 70, "note": 79, "velocity": 111, "channel": 0}, {"type": "note_on", "time": 5, "note": 82, "velocity": 103, "channel": 0}, {"type": "note_off", "time": 35, "note": 82, "velocity": 103, "channel": 0}, {"type": "note_on", "time": 11, "note": 79, "velocity": 108, "channel": 0}, {"type": "note_off", "time": 44, "note": 79, "velocity": 108, "channel": 0}, {"type": "note_on", "time": 14, "note": 78, "velocity": 111, "channel": 0}, {"type": "note_off", "time": 105, "note": 78, "velocity": 111, "channel": 0}, {"type": "note_on", "time": 92, "note": 78, "velocity": 108, "channel": 0}, {"type": "note_off", "time": 110, "note": 78, "velocity": 108, "channel": 0}, {"type": "note_on", "time": 97, "note": 78, "velocity": 112, "channel": 0}, {"type": "note_off", "time": 110, "note": 78, "velocity": 112, "channel": 0}, {"type": "note_on", "time": 57, "note": 78, "velocity": 114, "channel": 0}, {"type": "note_off", "time": 83, "note": 78, "velocity": 114, "channel": 0}, {"type": "note_on", "time": 12, "note": 82, "velocity": 98, "channel": 0}, {"type": "note_off", "time": 38, "note": 82, "velocity": 98, "channel": 0}, {"type": "note_on", "time": 12, "note": 78, "velocity": 91, "channel": 0}, {"type": "note_off", "time": 44, "note": 78, "velocity": 91, "channel": 0}, {"type": "note_on", "time": 7, "note": 77, "velocity": 114, "channel": 0}, {"type": "note_off", "time": 134, "note": 77, "velocity": 114, "channel": 0}, {"type": "note_on", "time": 42, "note": 77, "velocity": 113, "channel": 0}, {"type": "note_off", "time": 146, "note": 77, "velocity": 113, "channel": 0}, {"type": "note_on", "time": 55, "note": 77, "velocity": 116, "channel": 0}, {"type": "note_off", "time": 127, "note": 77, "velocity": 116, "channel": 0}, {"type": "note_on", "time": 59, "note": 82, "velocity": 112, "channel": 0}, {"type": "note_off", "time": 101, "note": 82, "velocity": 112, "channel": 0}, {"type": "note_on", "time": 18, "note": 79, "velocity": 112, "channel": 0}, {"type": "note_off", "time": 70, "note": 79, "velocity": 112, "channel": 0}, {"type": "note_on", "time": 16, "note": 77, "velocity": 114, "channel": 0}, {"type": "note_off", "time": 88, "note": 77, "velocity": 114, "channel": 0}, {"type": "note_on", "time": 20, "note": 75, "velocity": 113, "channel": 0}, {"type": "note_off", "time": 57, "note": 75, "velocity": 113, "channel": 0}, {"type": "note_on", "time": 25, "note": 74, "velocity": 111, "channel": 0}, {"type": "note_off", "time": 105, "note": 74, "velocity": 111, "channel": 0}, {"type": "note_on", "time": 20, "note": 75, "velocity": 116, "channel": 0}, {"type": "note_off", "time": 51, "note": 75, "velocity": 116, "channel": 0}, {"type": "note_on", "time": 20, "note": 74, "velocity": 112, "channel": 0}, {"type": "note_off", "time": 120, "note": 74, "velocity": 112, "channel": 0}, {"type": "note_on", "time": 44, "note": 67, "velocity": 91, "channel": 0}, {"type": "note_off", "time": 59, "note": 67, "velocity": 91, "channel": 0}, {"type": "note_on", "time": 16, "note": 69, "velocity": 74, "channel": 0}, {"type": "note_off", "time": 59, "note": 69, "velocity": 74, "channel": 0}, {"type": "note_on", "time": 1, "note": 70, "velocity": 70, "channel": 0}, {"type": "note_off", "time": 53, "note": 70, "velocity": 70, "channel": 0}, {"type": "note_on", "time": 9, "note": 74, "velocity": 114, "channel": 0}, {"type": "note_off", "time": 103, "note": 74, "velocity": 114, "channel": 0}, {"type": "note_on", "time": 27, "note": 75, "velocity": 107, "channel": 0}, {"type": "note_off", "time": 72, "note": 75, "velocity": 107, "channel": 0}, {"type": "note_on", "time": 16, "note": 72, "velocity": 82, "channel": 0}, {"type": "note_off", "time": 101, "note": 72, "velocity": 82, "channel": 0}, {"type": "note_on", "time": 48, "note": 74, "velocity": 115, "channel": 0}, {"type": "note_off", "time": 94, "note": 74, "velocity": 115, "channel": 0}, {"type": "note_on", "time": 36, "note": 72, "velocity": 101, "channel": 0}, {"type": "note_off", "time": 75, "note": 72, "velocity": 101, "channel": 0}, {"type": "note_on", "time": 18, "note": 79, "velocity": 111, "channel": 0}, {"type": "note_off", "time": 75, "note": 79, "velocity": 111, "channel": 0}, {"type": "note_on", "time": 16, "note": 76, "velocity": 110, "channel": 0}, {"type": "note_off", "time": 57, "note": 76, "velocity": 110, "channel": 0}, {"type": "note_on", "time": 25, "note": 77, "velocity": 112, "channel": 0}, {"type": "note_off", "time": 88, "note": 77, "velocity": 112, "channel": 0}, {"type": "note_on", "time": 12, "note": 75, "velocity": 111, "channel": 0}, {"type": "note_off", "time": 75, "note": 75, "velocity": 111, "channel": 0}, {"type": "note_on", "time": 24, "note": 72, "velocity": 107, "channel": 0}, {"type": "note_off", "time": 105, "note": 72, "velocity": 107, "channel": 0}, {"type": "note_on", "time": 14, "note": 68, "velocity": 89, "channel": 0}, {"type": "note_off", "time": 38, "note": 68, "velocity": 89, "channel": 0}, {"type": "note_on", "time": 22, "note": 65, "velocity": 91, "channel": 0}, {"type": "note_off", "time": 158, "note": 65, "velocity": 91, "channel": 0}, {"type": "note_on", "time": 340, "note": 84, "velocity": 123, "channel": 0}, {"type": "note_off", "time": 94, "note": 84, "velocity": 123, "channel": 0}, {"type": "note_on", "time": 75, "note": 79, "velocity": 122, "channel": 0}, {"type": "note_off", "time": 68, "note": 79, "velocity": 122, "channel": 0}, {"type": "note_on", "time": 33, "note": 82, "velocity": 117, "channel": 0}, {"type": "note_off", "time": 92, "note": 82, "velocity": 117, "channel": 0}, {"type": "note_on", "time": 12, "note": 79, "velocity": 117, "channel": 0}, {"type": "note_off", "time": 53, "note": 79, "velocity": 117, "channel": 0}, {"type": "note_on", "time": 16, "note": 75, "velocity": 115, "channel": 0}, {"type": "note_off", "time": 79, "note": 75, "velocity": 115, "channel": 0}, {"type": "note_on", "time": 35, "note": 72, "velocity": 101, "channel": 0}, {"type": "note_off", "time": 64, "note": 72, "velocity": 101, "channel": 0}, {"type": "note_on", "time": 14, "note": 75, "velocity": 101, "channel": 0}, {"type": "note_off", "time": 221, "note": 75, "velocity": 101, "channel": 0}, {"type": "note_on", "time": 149, "note": 69, "velocity": 92, "channel": 0}, {"type": "note_off", "time": 12, "note": 69, "velocity": 92, "channel": 0}, {"type": "note_on", "time": 1, "note": 70, "velocity": 109, "channel": 0}, {"type": "note_off", "time": 153, "note": 70, "velocity": 109, "channel": 0}, {"type": "note_on", "time": 31, "note": 72, "velocity": 110, "channel": 0}, {"type": "note_off", "time": 133, "note": 72, "velocity": 110, "channel": 0}, {"type": "note_on", "time": 59, "note": 75, "velocity": 114, "channel": 0}, {"type": "note_off", "time": 127, "note": 75, "velocity": 114, "channel": 0}, {"type": "note_on", "time": 27, "note": 79, "velocity": 109, "channel": 0}, {"type": "note_off", "time": 123, "note": 79, "velocity": 109, "channel": 0}, {"type": "note_on", "time": 29, "note": 82, "velocity": 102, "channel": 0}, {"type": "note_off", "time": 236, "note": 82, "velocity": 102, "channel": 0}, {"type": "note_on", "time": 22, "note": 79, "velocity": 107, "channel": 0}, {"type": "note_off", "time": 120, "note": 79, "velocity": 107, "channel": 0}, {"type": "note_on", "time": 24, "note": 74, "velocity": 98, "channel": 0}, {"type": "note_off", "time": 109, "note": 74, "velocity": 98, "channel": 0}, {"type": "note_on", "time": 55, "note": 74, "velocity": 91, "channel": 0}, {"type": "note_off", "time": 489, "note": 74, "velocity": 91, "channel": 0}, {"type": "note_on", "time": 16, "note": 69, "velocity": 79, "channel": 0}, {"type": "note_off", "time": 55, "note": 69, "velocity": 79, "channel": 0}, {"type": "note_on", "time": 24, "note": 72, "velocity": 93, "channel": 0}, {"type": "note_off", "time": 343, "note": 72, "velocity": 93, "channel": 0}, {"type": "note_on", "time": 674, "note": 70, "velocity": 121, "channel": 0}, {"type": "note_off", "time": 96, "note": 70, "velocity": 121, "channel": 0}, {"type": "note_on", "time": 25, "note": 72, "velocity": 115, "channel": 0}, {"type": "note_off", "time": 68, "note": 72, "velocity": 115, "channel": 0}, {"type": "note_on", "time": 22, "note": 69, "velocity": 119, "channel": 0}, {"type": "note_off", "time": 81, "note": 69, "velocity": 119, "channel": 0}, {"type": "note_on", "time": 9, "note": 70, "velocity": 115, "channel": 0}, {"type": "note_off", "time": 72, "note": 70, "velocity": 115, "channel": 0}, {"type": "note_on", "time": 22, "note": 66, "velocity": 101, "channel": 0}, {"type": "note_off", "time": 88, "note": 66, "velocity": 101, "channel": 0}, {"type": "note_on", "time": 12, "note": 67, "velocity": 98, "channel": 0}, {"type": "note_off", "time": 75, "note": 67, "velocity": 98, "channel": 0}, {"type": "note_on", "time": 7, "note": 58, "velocity": 89, "channel": 0}, {"type": "note_off", "time": 101, "note": 58, "velocity": 89, "channel": 0}, {"type": "note_on", "time": 29, "note": 60, "velocity": 87, "channel": 0}, {"type": "note_off", "time": 46, "note": 60, "velocity": 87, "channel": 0}, {"type": "note_on", "time": 20, "note": 63, "velocity": 97, "channel": 0}, {"type": "note_off", "time": 105, "note": 63, "velocity": 97, "channel": 0}, {"type": "note_on", "time": 9, "note": 66, "velocity": 90, "channel": 0}, {"type": "note_off", "time": 38, "note": 66, "velocity": 90, "channel": 0}, {"type": "note_on", "time": 24, "note": 70, "velocity": 117, "channel": 0}, {"type": "note_off", "time": 81, "note": 70, "velocity": 117, "channel": 0}, {"type": "note_on", "time": 38, "note": 75, "velocity": 109, "channel": 0}, {"type": "note_off", "time": 59, "note": 75, "velocity": 109, "channel": 0}, {"type": "note_on", "time": 33, "note": 79, "velocity": 116, "channel": 0}, {"type": "note_off", "time": 73, "note": 79, "velocity": 116, "channel": 0}, {"type": "note_on", "time": 29, "note": 82, "velocity": 113, "channel": 0}, {"type": "note_off", "time": 60, "note": 82, "velocity": 113, "channel": 0}, {"type": "note_on", "time": 27, "note": 80, "velocity": 105, "channel": 0}, {"type": "note_off", "time": 395, "note": 80, "velocity": 105, "channel": 0}, {"type": "note_on", "time": 77, "note": 80, "velocity": 113, "channel": 0}, {"type": "note_off", "time": 120, "note": 80, "velocity": 113, "channel": 0}, {"type": "note_on", "time": 9, "note": 79, "velocity": 91, "channel": 0}, {"type": "note_off", "time": 12, "note": 79, "velocity": 91, "channel": 0}, {"type": "note_on", "time": 118, "note": 79, "velocity": 110, "channel": 0}, {"type": "note_off", "time": 168, "note": 79, "velocity": 110, "channel": 0}, {"type": "note_on", "time": 173, "note": 79, "velocity": 97, "channel": 0}, {"type": "note_off", "time": 598, "note": 79, "velocity": 97, "channel": 0}, {"type": "note_on", "time": 35, "note": 78, "velocity": 105, "channel": 0}, {"type": "note_off", "time": 140, "note": 78, "velocity": 105, "channel": 0}, {"type": "note_on", "time": 62, "note": 79, "velocity": 110, "channel": 0}, {"type": "note_off", "time": 107, "note": 79, "velocity": 110, "channel": 0}, {"type": "note_on", "time": 16, "note": 75, "velocity": 112, "channel": 0}, {"type": "note_off", "time": 68, "note": 75, "velocity": 112, "channel": 0}, {"type": "note_on", "time": 31, "note": 72, "velocity": 99, "channel": 0}, {"type": "note_off", "time": 109, "note": 72, "velocity": 99, "channel": 0}, {"type": "note_on", "time": 48, "note": 75, "velocity": 94, "channel": 0}, {"type": "note_off", "time": 181, "note": 75, "velocity": 94, "channel": 0}, {"type": "note_on", "time": 216, "note": 71, "velocity": 117, "channel": 0}, {"type": "note_off", "time": 103, "note": 71, "velocity": 117, "channel": 0}, {"type": "note_on", "time": 12, "note": 72, "velocity": 105, "channel": 0}, {"type": "note_off", "time": 36, "note": 72, "velocity": 105, "channel": 0}, {"type": "note_on", "time": 27, "note": 75, "velocity": 115, "channel": 0}, {"type": "note_off", "time": 142, "note": 75, "velocity": 115, "channel": 0}, {"type": "note_on", "time": 53, "note": 79, "velocity": 113, "channel": 0}, {"type": "note_off", "time": 107, "note": 79, "velocity": 113, "channel": 0}, {"type": "note_on", "time": 79, "note": 79, "velocity": 114, "channel": 0}, {"type": "note_off", "time": 120, "note": 79, "velocity": 114, "channel": 0}, {"type": "note_on", "time": 60, "note": 79, "velocity": 108, "channel": 0}, {"type": "note_off", "time": 168, "note": 79, "velocity": 108, "channel": 0}, {"type": "note_on", "time": 73, "note": 75, "velocity": 103, "channel": 0}, {"type": "note_off", "time": 175, "note": 75, "velocity": 103, "channel": 0}, {"type": "note_on", "time": 29, "note": 82, "velocity": 102, "channel": 0}, {"type": "note_off", "time": 515, "note": 82, "velocity": 102, "channel": 0}, {"type": "note_on", "time": 64, "note": 79, "velocity": 109, "channel": 0}, {"type": "note_off", "time": 97, "note": 79, "velocity": 109, "channel": 0}, {"type": "note_on", "time": 36, "note": 77, "velocity": 113, "channel": 0}, {"type": "note_off", "time": 144, "note": 77, "velocity": 113, "channel": 0}, {"type": "note_on", "time": 14, "note": 75, "velocity": 107, "channel": 0}, {"type": "note_off", "time": 256, "note": 75, "velocity": 107, "channel": 0}, {"type": "note_on", "time": 24, "note": 72, "velocity": 111, "channel": 0}, {"type": "note_off", "time": 134, "note": 72, "velocity": 111, "channel": 0}, {"type": "note_on", "time": 9, "note": 68, "velocity": 95, "channel": 0}, {"type": "note_off", "time": 38, "note": 68, "velocity": 95, "channel": 0}, {"type": "note_on", "time": 24, "note": 66, "velocity": 101, "channel": 0}, {"type": "note_off", "time": 83, "note": 66, "velocity": 101, "channel": 0}, {"type": "note_on", "time": 33, "note": 63, "velocity": 83, "channel": 0}, {"type": "note_off", "time": 48, "note": 63, "velocity": 83, "channel": 0}, {"type": "note_on", "time": 11, "note": 70, "velocity": 115, "channel": 0}, {"type": "note_off", "time": 86, "note": 70, "velocity": 115, "channel": 0}, {"type": "note_on", "time": 18, "note": 72, "velocity": 105, "channel": 0}, {"type": "note_off", "time": 60, "note": 72, "velocity": 105, "channel": 0}, {"type": "note_on", "time": 24, "note": 75, "velocity": 116, "channel": 0}, {"type": "note_off", "time": 97, "note": 75, "velocity": 116, "channel": 0}, {"type": "note_on", "time": 36, "note": 79, "velocity": 101, "channel": 0}, {"type": "note_off", "time": 221, "note": 79, "velocity": 101, "channel": 0}, {"type": "note_on", "time": 48, "note": 70, "velocity": 115, "channel": 0}, {"type": "note_off", "time": 110, "note": 70, "velocity": 115, "channel": 0}, {"type": "note_on", "time": 14, "note": 75, "velocity": 104, "channel": 0}, {"type": "note_off", "time": 155, "note": 75, "velocity": 104, "channel": 0}, {"type": "note_on", "time": 282, "note": 70, "velocity": 117, "channel": 0}, {"type": "note_off", "time": 107, "note": 70, "velocity": 117, "channel": 0}, {"type": "note_on", "time": 18, "note": 72, "velocity": 111, "channel": 0}, {"type": "note_off", "time": 62, "note": 72, "velocity": 111, "channel": 0}, {"type": "note_on", "time": 20, "note": 75, "velocity": 116, "channel": 0}, {"type": "note_off", "time": 88, "note": 75, "velocity": 116, "channel": 0}, {"type": "note_on", "time": 14, "note": 79, "velocity": 110, "channel": 0}, {"type": "note_off", "time": 81, "note": 79, "velocity": 110, "channel": 0}, {"type": "note_on", "time": 0, "note": 82, "velocity": 106, "channel": 0}, {"type": "note_off", "time": 129, "note": 82, "velocity": 106, "channel": 0}, {"type": "note_on", "time": 3, "note": 75, "velocity": 105, "channel": 0}, {"type": "note_off", "time": 42, "note": 75, "velocity": 105, "channel": 0}, {"type": "note_on", "time": 16, "note": 79, "velocity": 111, "channel": 0}, {"type": "note_off", "time": 97, "note": 79, "velocity": 111, "channel": 0}, {"type": "note_on", "time": 27, "note": 72, "velocity": 105, "channel": 0}, {"type": "note_off", "time": 53, "note": 72, "velocity": 105, "channel": 0}, {"type": "note_on", "time": 18, "note": 75, "velocity": 110, "channel": 0}, {"type": "note_off", "time": 97, "note": 75, "velocity": 110, "channel": 0}, {"type": "note_on", "time": 14, "note": 72, "velocity": 114, "channel": 0}, {"type": "note_off", "time": 88, "note": 72, "velocity": 114, "channel": 0}, {"type": "note_on", "time": 5, "note": 70, "velocity": 101, "channel": 0}, {"type": "note_off", "time": 146, "note": 70, "velocity": 101, "channel": 0}, {"type": "note_on", "time": 20, "note": 75, "velocity": 92, "channel": 0}, {"type": "note_off", "time": 293, "note": 75, "velocity": 92, "channel": 0}, {"type": "end_of_track", "time": 0}]]}