{"ticks_per_beat": 192, "tracks": [[{"type": "track_name", "name": "Melody", "time": 0}, {"type": "set_tempo", "tempo": 193548, "time": 0}, {"type": "key_signature", "key": "Ab", "time": 0}, {"type": "time_signature", "numerator": 4, "denominator": 4, "clocks_per_click": 24, "notated_32nd_notes_per_beat": 8, "time": 0}, {"type": "note_on", "time": 4650, "note": 80, "velocity": 124, "channel": 0}, {"type": "note_off", "time": 137, "note": 80, "velocity": 124, "channel": 0}, {"type": "note_on", "time": 32, "note": 77, "velocity": 118, "channel": 0}, {"type": "note_off", "time": 70, "note": 77, "velocity": 118, "channel": 0}, {"type": "note_on", "time": 14, "note": 80, "velocity": 120, "channel": 0}, {"type": "note_off", "time": 161, "note": 80, "velocity": 120, "channel": 0}, {"type": "note_on", "time": 12, "note": 77, "velocity": 115, "channel": 0}, {"type": "note_off", "time": 109, "note": 77, "velocity": 115, "channel": 0}, {"type": "note_on", "time": 24, "note": 75, "velocity": 112, "channel": 0}, {"type": "note_off", "time": 70, "note": 75, "velocity": 112, "channel": 0}, {"type": "note_on", "time": 18, "note": 77, "velocity": 114, "channel": 0}, {"type": "note_off", "time": 143, "note": 77, "velocity": 114, "channel": 0}, {"type": "note_on", "time": 20, "note": 75, "velocity": 116, "channel": 0}, {"type": "note_off", "time": 116, "note": 75, "velocity": 116, "channel": 0}, {"type": "note_on", "time": 10, "note": 72, "velocity": 109, "channel": 0}, {"type": "note_off", "time": 92, "note": 72, "velocity": 109, "channel": 0}, {"type": "note_on", "time": 11, "note": 75, "velocity": 113, "channel": 0}, {"type": "note_off", "time": 155, "note": 75, "velocity": 113, "channel": 0}, {"type": "note_on", "time": 4, "note": 72, "velocity": 120, "channel": 0}, {"type": "note_off", "time": 141, "note": 72, "velocity": 120, "channel": 0}, {"type": "note_on", "time": 54, "note": 72, "velocity": 113, "channel": 0}, {"type": "note_off", "time": 166, "note": 72, "velocity": 113, "channel": 0}, {"type": "note_on", "time": 30, "note": 69, "velocity": 118, "channel": 0}, {"type": "note_off", "time": 100, "note": 69, "velocity": 118, "channel": 0}, {"type": "note_on", "time": 100, "note": 69, "velocity": 111, "channel": 0}, {"type": "note_off", "time": 240, "note": 69, "velocity": 111, "channel": 0}, {"type": "note_on", "time": 25, "note": 65, "velocity": 91, "channel": 0}, {"type": "note_off", "time": 323, "note": 65, "velocity": 91, "channel": 0}, {"type": "note_on", "time": 357, "note": 83, "velocity": 122, "channel": 0}, {"type": "note_off", "time": 122, "note": 83, "velocity": 122, "channel": 0}, {"type": "note_on", "time": 15, "note": 84, "velocity": 127, "channel": 0}, {"type": "note_off", "time": 131, "note": 84, "velocity": 127, "channel": 0}, {"type": "note_on", "time": 25, "note": 82, "velocity": 109, "channel": 0}, {"type": "note_off", "time": 116, "note": 82, "velocity": 109, "channel": 0}, {"type": "note_on", "time": 12, "note": 80, "velocity": 113, "channel": 0}, {"type": "note_off", "time": 66, "note": 80, "velocity": 113, "channel": 0}, {"type": "note_on", "time": 20, "note": 77, "velocity": 113, "channel": 0}, {"type": "note_off", "time": 64, "note": 77, "velocity": 113, "channel": 0}, {"type": "note_on", "time": 11, "note": 74, "velocity": 116, "channel": 0}, {"type": "note_off", "time": 89, "note": 74, "velocity": 116, "channel": 0}, {"type": "note_on", "time": 31, "note": 70, "velocity": 114, "channel": 0}, {"type": "note_off", "time": 70, "note": 70, "velocity": 114, "channel": 0}, {"type": "note_on", "time": 165, "note": 72, "velocity": 125, "channel": 0}, {"type": "note_off", "time": 115, "note": 72, "velocity": 125, "channel": 0}, {"type": "note_on", "time": 12, "note": 73, "velocity": 120, "channel": 0}, {"type": "note_off", "time": 74, "note": 73, "velocity": 120, "channel": 0}, {"type": "note_on", "time": 5, "note": 74, "velocity": 114, "channel": 0}, {"type": "note_off", "time": 77, "note": 74, "velocity": 114, "channel": 0}, {"type": "note_on", "time": 14, "note": 72, "velocity": 115, "channel": 0}, {"type": "note_off", "time": 97, "note": 72, "velocity": 115, "channel": 0}, {"type": "note_on", "time": 4, "note": 80, "velocity": 115, "channel": 0}, {"type": "note_off", "time": 113, "note": 80, "velocity": 115, "channel": 0}, {"type": "note_on", "time": 11, "note": 77, "velocity": 116, "channel": 0}, {"type": "note_off", "time": 51, "note": 77, "velocity": 116, "channel": 0}, {"type": "note_on", "time": 17, "note": 74, "velocity": 111, "channel": 0}, {"type": "note_off", "time": 128, "note": 74, "velocity": 111, "channel": 0}, {"type": "note_on", "time": 11, "note": 70, "velocity": 109, "channel": 0}, {"type": "note_off", "time": 66, "note": 70, "velocity": 109, "channel": 0}, {"type": "note_on", "time": 7, "note": 68, "velocity": 95, "channel": 0}, {"type": "note_off", "time": 76, "note": 68, "velocity": 95, "channel": 0}, {"type": "note_on", "time": 99, "note": 72, "velocity": 122, "channel": 0}, {"type": "note_off", "time": 116, "note": 72, "velocity": 122, "channel": 0}, {"type": "note_on", "time": 11, "note": 70, "velocity": 110, "channel": 0}, {"type": "note_off", "time": 54, "note": 70, "velocity": 110, "channel": 0}, {"type": "note_on", "time": 5, "note": 79, "velocity": 111, "channel": 0}, {"type": "note_off", "time": 174, "note": 79, "velocity": 111, "channel": 0}, {"type": "note_on", "time": 15, "note": 74, "velocity": 112, "channel": 0}, {"type": "note_off", "time": 102, "note": 74, "velocity": 112, "channel": 0}, {"type": "note_on", "time": 8, "note": 77, "velocity": 101, "channel": 0}, {"type": "note_off", "time": 276, "note": 77, "velocity": 101, "channel": 0}, {"type": "note_on", "time": 493, "note": 63, "velocity": 101, "channel": 0}, {"type": "note_off", "time": 26, "note": 63, "velocity": 101, "channel": 0}, {"type": "note_on", "time": 5, "note": 67, "velocity": 112, "channel": 0}, {"type": "note_off", "time": 31, "note": 67, "velocity": 112, "channel": 0}, {"type": "note_on", "time": 14, "note": 70, "velocity": 122, "channel": 0}, {"type": "note_off", "time": 109, "note": 70, "velocity": 122, "channel": 0}, {"type": "note_on", "time": 139, "note": 67, "velocity": 101, "channel": 0}, {"type": "note_off", "time": 40, "note": 67, "velocity": 101, "channel": 0}, {"type": "note_on", "time": 10, "note": 70, "velocity": 118, "channel": 0}, {"type": "note_off", "time": 54, "note": 70, "velocity": 118, "channel": 0}, {"type": "note_on", "time": 12, "note": 75, "velocity": 121, "channel": 0}, {"type": "note_off", "time": 99, "note": 75, "velocity": 121, "channel": 0}, {"type": "note_on", "time": 229, "note": 70, "velocity": 112, "channel": 0}, {"type": "note_off", "time": 47, "note": 70, "velocity": 112, "channel": 0}, {"type": "note_on", "time": 7, "note": 75, "velocity": 108, "channel": 0}, {"type": "note_off", "time": 47, "note": 75, "velocity": 108, "channel": 0}, {"type": "note_on", "time": 14, "note": 79, "velocity": 107, "channel": 0}, {"type": "note_off", "time": 121, "note": 79, "velocity": 107, "channel": 0}, {"type": "note_on", "time": 101, "note": 75, "velocity": 115, "channel": 0}, {"type": "note_off", "time": 40, "note": 75, "velocity": 115, "channel": 0}, {"type": "note_on", "time": 12, "note": 79, "velocity": 117, "channel": 0}, {"type": "note_off", "time": 40, "note": 79, "velocity": 117, "channel": 0}, {"type": "note_on", "time": 0, "note": 82, "velocity": 116, "channel": 0}, {"type": "note_off", "time": 51, "note": 82, "velocity": 116, "channel": 0}, {"type": "note_on", "time": 8, "note": 87, "velocity": 125, "channel": 0}, {"type": "note_off", "time": 281, "note": 87, "velocity": 125, "channel": 0}, {"type": "note_on", "time": 15, "note": 84, "velocity": 115, "channel": 0}, {"type": "note_off", "time": 226, "note": 84, "velocity": 115, "channel": 0}, {"type": "note_on", "time": 12, "note": 79, "velocity": 120, "channel": 0}, {"type": "note_off", "time": 105, "note": 79, "velocity": 120, "channel": 0}, {"type": "note_on", "time": 14, "note": 82, "velocity": 114, "channel": 0}, {"type": "note_off", "time": 116, "note": 82, "velocity": 114, "channel": 0}, {"type": "note_on", "time": 66, "note": 80, "velocity": 121, "channel": 0}, {"type": "note_off", "time": 90, "note": 80, "velocity": 121, "channel": 0}, {"type": "note_on", "time": 5, "note": 75, "velocity": 106, "channel": 0}, {"type": "note_off", "time": 84, "note": 75, "velocity": 106, "channel": 0}, {"type": "note_on", "time": 20, "note": 72, "velocity": 109, "channel": 0}, {"type": "note_off", "time": 63, "note": 72, "velocity": 109, "channel": 0}, {"type": "note_on", "time": 5, "note": 75, "velocity": 124, "channel": 0}, {"type": "note_off", "time": 92, "note": 75, "velocity": 124, "channel": 0}, {"type": "note_on", "time": 12, "note": 72, "velocity": 117, "channel": 0}, {"type": "note_off", "time": 73, "note": 72, "velocity": 117, "channel": 0}, {"type": "note_on", "time": 12, "note": 79, "velocity": 117, "channel": 0}, {"type": "note_off", "time": 96, "note": 79, "velocity": 117, "channel": 0}, {"type": "note_on", "time": 8, "note": 77, "velocity": 114, "channel": 0}, {"type": "note_off", "time": 70, "note": 77, "velocity": 114, "channel": 0}, {"type": "note_on", "time": 17, "note": 76, "velocity": 124, "channel": 0}, {"type": "note_off", "time": 80, "note": 76, "velocity": 124, "channel": 0}, {"type": "note_on", "time": 14, "note": 77, "velocity": 118, "channel": 0}, {"type": "note_off", "time": 71, "note": 77, "velocity": 118, "channel": 0}, {"type": "note_on", "time": 40, "note": 68, "velocity": 100, "channel": 0}, {"type": "note_off", "time": 120, "note": 68, "velocity": 100, "channel": 0}, {"type": "note_on", "time": 38, "note": 71, "velocity": 112, "channel": 0}, {"type": "note_off", "time": 99, "note": 71, "velocity": 112, "channel": 0}, {"type": "note_on", "time": 12, "note": 72, "velocity": 114, "channel": 0}, {"type": "note_off", "time": 92, "note": 72, "velocity": 114, "channel": 0}, {"type": "note_on", "time": 14, "note": 77, "velocity": 111, "channel": 0}, {"type": "note_off", "time": 80, "note": 77, "velocity": 111, "channel": 0}, {"type": "note_on", "time": 11, "note": 72, "velocity": 111, "channel": 0}, {"type": "note_off", "time": 84, "note": 72, "velocity": 111, "channel": 0}, {"type": "note_on", "time": 2, "note": 77, "velocity": 116, "channel": 0}, {"type": "note_off", "time": 122, "note": 77, "velocity": 116, "channel": 0}, {"type": "note_on", "time": 274, "note": 73, "velocity": 117, "channel": 0}, {"type": "note_off", "time": 135, "note": 73, "velocity": 117, "channel": 0}, {"type": "note_on", "time": 12, "note": 75, "velocity": 111, "channel": 0}, {"type": "note_off", "time": 43, "note": 75, "velocity": 111, "channel": 0}, {"type": "note_on", "time": 4, "note": 77, "velocity": 114, "channel": 0}, {"type": "note_off", "time": 109, "note": 77, "velocity": 114, "channel": 0}, {"type": "note_on", "time": 8, "note": 81, "velocity": 91, "channel": 0}, {"type": "note_off", "time": 47, "note": 81, "velocity": 91, "channel": 0}, {"type": "note_on", "time": 7, "note": 82, "velocity": 105, "channel": 0}, {"type": "note_off", "time": 109, "note": 82, "velocity": 105, "channel": 0}, {"type": "note_on", "time": 7, "note": 79, "velocity": 107, "channel": 0}, {"type": "note_off", "time": 74, "note": 79, "velocity": 107, "channel": 0}, {"type": "note_on", "time": 11, "note": 82, "velocity": 106, "channel": 0}, {"type": "note_off", "time": 115, "note": 82, "velocity": 106, "channel": 0}, {"type": "note_on", "time": 15, "note": 79, "velocity": 106, "channel": 0}, {"type": "note_off", "time": 162, "note": 79, "velocity": 106, "channel": 0}, {"type": "note_on", "time": 14, "note": 77, "velocity": 118, "channel": 0}, {"type": "note_off", "time": 64, "note": 77, "velocity": 118, "channel": 0}, {"type": "note_on", "time": 15, "note": 74, "velocity": 111, "channel": 0}, {"type": "note_off", "time": 99, "note": 74, "velocity": 111, "channel": 0}, {"type": "note_on", "time": 79, "note": 77, "velocity": 103, "channel": 0}, {"type": "note_off", "time": 188, "note": 77, "velocity": 103, "channel": 0}, {"type": "note_on", "time": 35, "note": 72, "velocity": 110, "channel": 0}, {"type": "note_off", "time": 135, "note": 72, "velocity": 110, "channel": 0}, {"type": "note_on", "time": 33, "note": 75, "velocity": 109, "channel": 0}, {"type": "note_off", "time": 172, "note": 75, "velocity": 109, "channel": 0}, {"type": "note_on", "time": 423, "note": 83, "velocity": 123, "channel": 0}, {"type": "note_off", "time": 96, "note": 83, "velocity": 123, "channel": 0}, {"type": "note_on", "time": 7, "note": 84, "velocity": 116, "channel": 0}, {"type": "note_off", "time": 653, "note": 84, "velocity": 116, "channel": 0}, {"type": "note_on", "time": 41, "note": 83, "velocity": 121, "channel": 0}, {"type": "note_off", "time": 109, "note": 83, "velocity": 121, "channel": 0}, {"type": "note_on", "time": 4, "note": 84, "velocity": 114, "channel": 0}, {"type": "note_off", "time": 46, "note": 84, "velocity": 114, "channel": 0}, {"type": "note_on", "time": 20, "note": 79, "velocity": 112, "channel": 0}, {"type": "note_off", "time": 66, "note": 79, "velocity": 112, "channel": 0}, {"type": "note_on", "time": 0, "note": 80, "velocity": 111, "channel": 0}, {"type": "note_off", "time": 110, "note": 80, "velocity": 111, "channel": 0}, {"type": "note_on", "time": 11, "note": 74, "velocity": 115, "channel": 0}, {"type": "note_off", "time": 66, "note": 74, "velocity": 115, "channel": 0}, {"type": "note_on", "time": 10, "note": 75, "velocity": 110, "channel": 0}, {"type": "note_off", "time": 87, "note": 75, "velocity": 110, "channel": 0}, {"type": "note_on", "time": 8, "note": 71, "velocity": 109, "channel": 0}, {"type": "note_off", "time": 79, "note": 71, "velocity": 109, "channel": 0}, {"type": "note_on", "time": 14, "note": 72, "velocity": 117, "channel": 0}, {"type": "note_off", "time": 86, "note": 72, "velocity": 117, "channel": 0}, {"type": "note_on", "time": 21, "note": 68, "velocity": 108, "channel": 0}, {"type": "note_off", "time": 158, "note": 68, "velocity": 108, "channel": 0}, {"type": "note_on", "time": 30, "note": 71, "velocity": 117, "channel": 0}, {"type": "note_off", "time": 84, "note": 71, "velocity": 117, "channel": 0}, {"type": "note_on", "time": 17, "note": 72, "velocity": 118, "channel": 0}, {"type": "note_off", "time": 69, "note": 72, "velocity": 118, "channel": 0}, {"type": "note_on", "time": 17, "note": 75, "velocity": 119, "channel": 0}, {"type": "note_off", "time": 83, "note": 75, "velocity": 119, "channel": 0}, {"type": "note_on", "time": 20, "note": 72, "velocity": 110, "channel": 0}, {"type": "note_off", "time": 69, "note": 72, "velocity": 110, "channel": 0}, {"type": "note_on", "time": 27, "note": 79, "velocity": 110, "channel": 0}, {"type": "note_off", "time": 158, "note": 79, "velocity": 110, "channel": 0}, {"type": "note_on", "time": 18, "note": 75, "velocity": 113, "channel": 0}, {"type": "note_off", "time": 174, "note": 75, "velocity": 113, "channel": 0}, {"type": "note_on", "time": 31, "note": 77, "velocity": 107, "channel": 0}, {"type": "note_off", "time": 218, "note": 77, "velocity": 107, "channel": 0}, {"type": "note_on", "time": 647, "note": 80, "velocity": 119, "channel": 0}, {"type": "note_off", "time": 149, "note": 80, "velocity": 119, "channel": 0}, {"type": "note_on", "time": 28, "note": 77, "velocity": 106, "channel": 0}, {"type": "note_off", "time": 50, "note": 77, "velocity": 106, "channel": 0}, {"type": "note_on", "time": 21, "note": 80, "velocity": 115, "channel": 0}, {"type": "note_off", "time": 177, "note": 80, "velocity": 115, "channel": 0}, {"type": "note_on", "time": 27, "note": 77, "velocity": 118, "channel": 0}, {"type": "note_off", "time": 135, "note": 77, "velocity": 118, "channel": 0}, {"type": "note_on", "time": 8, "note": 74, "velocity": 115, "channel": 0}, {"type": "note_off", "time": 83, "note": 74, "velocity": 115, "channel": 0}, {"type": "note_on", "time": 5, "note": 70, "velocity": 111, "channel": 0}, {"type": "note_off", "time": 89, "note": 70, "velocity": 111, "channel": 0}, {"type": "note_on", "time": 15, "note": 68, "velocity": 106, "channel": 0}, {"type": "note_off", "time": 63, "note": 68, "velocity": 106, "channel": 0}, {"type": "note_on", "time": 18, "note": 65, "velocity": 105, "channel": 0}, {"type": "note_off", "time": 70, "note": 65, "velocity": 105, "channel": 0}, {"type": "note_on", "time": 82, "note": 72, "velocity": 123, "channel": 0}, {"type": "note_off", "time": 109, "note": 72, "velocity": 123, "channel": 0}, {"type": "note_on", "time": 4, "note": 70, "velocity": 108, "channel": 0}, {"type": "note_off", "time": 80, "note": 70, "velocity": 108, "channel": 0}, {"type": "note_on", "time": 11, "note": 79, "velocity": 106, "channel": 0}, {"type": "note_off", "time": 105, "note": 79, "velocity": 106, "channel": 0}, {"type": "note_on", "time": 11, "note": 77, "velocity": 109, "channel": 0}, {"type": "note_off", "time": 50, "note": 77, "velocity": 109, "channel": 0}, {"type": "note_on", "time": 34, "note": 82, "velocity": 108, "channel": 0}, {"type": "note_off", "time": 83, "note": 82, "velocity": 108, "channel": 0}, {"type": "note_on", "time": 14, "note": 80, "velocity": 111, "channel": 0}, {"type": "note_off", "time": 67, "note": 80, "velocity": 111, "channel": 0}, {"type": "note_on", "time": 24, "note": 77, "velocity": 116, "channel": 0}, {"type": "note_off", "time": 71, "note": 77, "velocity": 116, "channel": 0}, {"type": "note_on", "time": 17, "note": 74, "velocity": 116, "channel": 0}, {"type": "note_off", "time": 77, "note": 74, "velocity": 116, "channel": 0}, {"type": "note_on", "time": 24, "note": 70, "velocity": 118, "channel": 0}, {"type": "note_off", "time": 73, "note": 70, "velocity": 118, "channel": 0}, {"type": "note_on", "time": 14, "note": 68, "velocity": 105, "channel": 0}, {"type": "note_off", "time": 70, "note": 68, "velocity": 105, "channel": 0}, {"type": "note_on", "time": 23, "note": 65, "velocity": 104, "channel": 0}, {"type": "note_off", "time": 105, "note": 65, "velocity": 104, "channel": 0}, {"type": "note_on", "time": 11, "note": 62, "velocity": 98, "channel": 0}, {"type": "note_off", "time": 60, "note": 62, "velocity": 98, "channel": 0}, {"type": "note_on", "time": 33, "note": 70, "velocity": 118, "channel": 0}, {"type": "note_off", "time": 214, "note": 70, "velocity": 118, "channel": 0}, {"type": "note_on", "time": 354, "note": 82, "velocity": 104, "channel": 0}, {"type": "note_off", "time": 564, "note": 82, "velocity": 104, "channel": 0}, {"type": "note_on", "time": 217, "note": 73, "velocity": 123, "channel": 0}, {"type": "note_off", "time": 83, "note": 73, "velocity": 123, "channel": 0}, {"type": "note_on", "time": 12, "note": 75, "velocity": 117, "channel": 0}, {"type": "note_off", "time": 79, "note": 75, "velocity": 117, "channel": 0}, {"type": "note_on", "time": 12, "note": 77, "velocity": 117, "channel": 0}, {"type": "note_off", "time": 79, "note": 77, "velocity": 117, "channel": 0}, {"type": "note_on", "time": 24, "note": 82, "velocity": 104, "channel": 0}, {"type": "note_off", "time": 60, "note": 82, "velocity": 104, "channel": 0}, {"type": "note_on", "time": 7, "note": 80, "velocity": 108, "channel": 0}, {"type": "note_off", "time": 56, "note": 80, "velocity": 108, "channel": 0}, {"type": "note_on", "time": 20, "note": 82, "velocity": 102, "channel": 0}, {"type": "note_off", "time": 44, "note": 82, "velocity": 102, "channel": 0}, {"type": "note_on", "time": 12, "note": 80, "velocity": 109, "channel": 0}, {"type": "note_off", "time": 44, "note": 80, "velocity": 109, "channel": 0}, {"type": "note_on", "time": 7, "note": 77, "velocity": 114, "channel": 0}, {"type": "note_off", "time": 82, "note": 77, "velocity": 114, "channel": 0}, {"type": "note_on", "time": 18, "note": 75, "velocity": 112, "channel": 0}, {"type": "note_off", "time": 44, "note": 75, "velocity": 112, "channel": 0}, {"type": "note_on", "time": 7, "note": 73, "velocity": 112, "channel": 0}, {"type": "note_off", "time": 54, "note": 73, "velocity": 112, "channel": 0}, {"type": "note_on", "time": 14, "note": 70, "velocity": 110, "channel": 0}, {"type": "note_off", "time": 79, "note": 70, "velocity": 110, "channel": 0}, {"type": "note_on", "time": 4, "note": 68, "velocity": 95, "channel": 0}, {"type": "note_off", "time": 47, "note": 68, "velocity": 95, "channel": 0}, {"type": "note_on", "time": 17, "note": 73, "velocity": 116, "channel": 0}, {"type": "note_off", "time": 188, "note": 73, "velocity": 116, "channel": 0}, {"type": "note_on", "time": 30, "note": 70, "velocity": 121, "channel": 0}, {"type": "note_off", "time": 116, "note": 70, "velocity": 121, "channel": 0}, {"type": "note_on", "time": 190, "note": 85, "velocity": 113, "channel": 0}, {"type": "note_off", "time": 227, "note": 85, "velocity": 113, "channel": 0}, {"type": "note_on", "time": 15, "note": 82, "velocity": 107, "channel": 0}, {"type": "note_off", "time": 83, "note": 82, "velocity": 107, "channel": 0}, {"type": "note_on", "time": 17, "note": 80, "velocity": 117, "channel": 0}, {"type": "note_off", "time": 80, "note": 80, "velocity": 117, "channel": 0}, {"type": "note_on", "time": 8, "note": 76, "velocity": 118, "channel": 0}, {"type": "note_off", "time": 93, "note": 76, "velocity": 118, "channel": 0}, {"type": "note_on", "time": 12, "note": 73, "velocity": 109, "channel": 0}, {"type": "note_off", "time": 74, "note": 73, "velocity": 109, "channel": 0}, {"type": "note_on", "time": 17, "note": 80, "velocity": 105, "channel": 0}, {"type": "note_off", "time": 290, "note": 80, "velocity": 105, "channel": 0}, {"type": "note_on", "time": 69, "note": 73, "velocity": 118, "channel": 0}, {"type": "note_off", "time": 107, "note": 73, "velocity": 118, "channel": 0}, {"type": "note_on", "time": 17, "note": 75, "velocity": 116, "channel": 0}, {"type": "note_off", "time": 56, "note": 75, "velocity": 116, "channel": 0}, {"type": "note_on", "time": 11, "note": 77, "velocity": 116, "channel": 0}, {"type": "note_off", "time": 86, "note": 77, "velocity": 116, "channel": 0}, {"type": "note_on", "time": 11, "note": 73, "velocity": 118, "channel": 0}, {"type": "note_off", "time": 76, "note": 73, "velocity": 118, "channel": 0}, {"type": "note_on", "time": 14, "note": 72, "velocity": 110, "channel": 0}, {"type": "note_off", "time": 322, "note": 72, "velocity": 110, "channel": 0}, {"type": "note_on", "time": 34, "note": 71, "velocity": 111, "channel": 0}, {"type": "note_off", "time": 125, "note": 71, "velocity": 111, "channel": 0}, {"type": "note_on", "time": 7, "note": 72, "velocity": 114, "channel": 0}, {"type": "note_off", "time": 73, "note": 72, "velocity": 114, "channel": 0}, {"type": "note_on", "time": 12, "note": 75, "velocity": 123, "channel": 0}, {"type": "note_off", "time": 126, "note": 75, "velocity": 123, "channel": 0}, {"type": "note_on", "time": 5, "note": 72, "velocity": 110, "channel": 0}, {"type": "note_off", "time": 61, "note": 72, "velocity": 110, "channel": 0}, {"type": "note_on", "time": 14, "note": 79, "velocity": 106, "channel": 0}, {"type": "note_off", "time": 145, "note": 79, "velocity": 106, "channel": 0}, {"type": "note_on", "time": 13, "note": 71, "velocity": 112, "channel": 0}, {"type": "note_off", "time": 113, "note": 71, "velocity": 112, "channel": 0}, {"type": "note_on", "time": 10, "note": 72, "velocity": 115, "channel": 0}, {"type": "note_off", "time": 66, "note": 72, "velocity": 115, "channel": 0}, {"type": "note_on", "time": 10, "note": 75, "velocity": 118, "channel": 0}, {"type": "note_off", "time": 80, "note": 75, "velocity": 118, "channel": 0}, {"type": "note_on", "time": 11, "note": 72, "velocity": 118, "channel": 0}, {"type": "note_off", "time": 59, "note": 72, "velocity": 118, "channel": 0}, {"type": "note_on", "time": 35, "note": 79, "velocity": 108, "channel": 0}, {"type": "note_off", "time": 63, "note": 79, "velocity": 108, "channel": 0}, {"type": "note_on", "time": 24, "note": 77, "velocity": 107, "channel": 0}, {"type": "note_off", "time": 43, "note": 77, "velocity": 107, "channel": 0}, {"type": "note_on", "time": 56, "note": 71, "velocity": 112, "channel": 0}, {"type": "note_off", "time": 84, "note": 71, "velocity": 112, "channel": 0}, {"type": "note_on", "time": 21, "note": 72, "velocity": 115, "channel": 0}, {"type": "note_off", "time": 57, "note": 72, "velocity": 115, "channel": 0}, {"type": "note_on", "time": 15, "note": 75, "velocity": 116, "channel": 0}, {"type": "note_off", "time": 76, "note": 75, "velocity": 116, "channel": 0}, {"type": "note_on", "time": 27, "note": 72, "velocity": 117, "channel": 0}, {"type": "note_off", "time": 83, "note": 72, "velocity": 117, "channel": 0}, {"type": "note_on", "time": 27, "note": 79, "velocity": 105, "channel": 0}, {"type": "note_off", "time": 67, "note": 79, "velocity": 105, "channel": 0}, {"type": "note_on", "time": 20, "note": 77, "velocity": 107, "channel": 0}, {"type": "note_off", "time": 59, "note": 77, "velocity": 107, "channel": 0}, {"type": "note_on", "time": 87, "note": 71, "velocity": 117, "channel": 0}, {"type": "note_off", "time": 51, "note": 71, "velocity": 117, "channel": 0}, {"type": "note_on", "time": 10, "note": 72, "velocity": 119, "channel": 0}, {"type": "note_off", "time": 59, "note": 72, "velocity": 119, "channel": 0}, {"type": "note_on", "time": 15, "note": 75, "velocity": 117, "channel": 0}, {"type": "note_off", "time": 89, "note": 75, "velocity": 117, "channel": 0}, {"type": "note_on", "time": 12, "note": 72, "velocity": 115, "channel": 0}, {"type": "note_off", "time": 83, "note": 72, "velocity": 115, "channel": 0}, {"type": "note_on", "time": 21, "note": 79, "velocity": 109, "channel": 0}, {"type": "note_off", "time": 51, "note": 79, "velocity": 109, "channel": 0}, {"type": "note_on", "time": 25, "note": 77, "velocity": 113, "channel": 0}, {"type": "note_off", "time": 66, "note": 77, "velocity": 113, "channel": 0}, {"type": "note_on", "time": 27, "note": 71, "velocity": 111, "channel": 0}, {"type": "note_off", "time": 113, "note": 71, "velocity": 111, "channel": 0}, {"type": "note_on", "time": 5, "note": 72, "velocity": 115, "channel": 0}, {"type": "note_off", "time": 61, "note": 72, "velocity": 115, "channel": 0}, {"type": "note_on", "time": 17, "note": 75, "velocity": 121, "channel": 0}, {"type": "note_off", "time": 66, "note": 75, "velocity": 121, "channel": 0}, {"type": "note_on", "time": 21, "note": 72, "velocity": 114, "channel": 0}, {"type": "note_off", "time": 92, "note": 72, "velocity": 114, "channel": 0}, {"type": "note_on", "time": 15, "note": 79, "velocity": 109, "channel": 0}, {"type": "note_off", "time": 89, "note": 79, "velocity": 109, "channel": 0}, {"type": "note_on", "time": 14, "note": 77, "velocity": 114, "channel": 0}, {"type": "note_off", "time": 63, "note": 77, "velocity": 114, "channel": 0}, {"type": "note_on", "time": 14, "note": 75, "velocity": 117, "channel": 0}, {"type": "note_off", "time": 103, "note": 75, "velocity": 117, "channel": 0}, {"type": "note_on", "time": 15, "note": 72, "velocity": 111, "channel": 0}, {"type": "note_off", "time": 73, "note": 72, "velocity": 111, "channel": 0}, {"type": "note_on", "time": 182, "note": 72, "velocity": 120, "channel": 0}, {"type": "note_off", "time": 110, "note": 72, "velocity": 120, "channel": 0}, {"type": "note_on", "time": 17, "note": 75, "velocity": 113, "channel": 0}, {"type": "note_off", "time": 63, "note": 75, "velocity": 113, "channel": 0}, {"type": "note_on", "time": 28, "note": 72, "velocity": 108, "channel": 0}, {"type": "note_off", "time": 349, "note": 72, "velocity": 108, "channel": 0}, {"type": "note_on", "time": 20, "note": 75, "velocity": 117, "channel": 0}, {"type": "note_off", "time": 82, "note": 75, "velocity": 117, "channel": 0}, {"type": "note_on", "time": 31, "note": 72, "velocity": 110, "channel": 0}, {"type": "note_off", "time": 56, "note": 72, "velocity": 110, "channel": 0}, {"type": "note_on", "time": 25, "note": 75, "velocity": 114, "channel": 0}, {"type": "note_off", "time": 83, "note": 75, "velocity": 114, "channel": 0}, {"type": "note_on", "time": 93, "note": 72, "velocity": 108, "channel": 0}, {"type": "note_off", "time": 276, "note": 72, "velocity": 108, "channel": 0}, {"type": "note_on", "time": 27, "note": 69, "velocity": 99, "channel": 0}, {"type": "note_off", "time": 306, "note": 69, "velocity": 99, "channel": 0}, {"type": "note_on", "time": 413, "note": 76, "velocity": 112, "channel": 0}, {"type": "note_off", "time": 172, "note": 76, "velocity": 112, "channel": 0}, {"type": "note_on", "time": 14, "note": 77, "velocity": 112, "channel": 0}, {"type": "note_off", "time": 591, "note": 77, "velocity": 112, "channel": 0}, {"type": "note_on", "time": 89, "note": 75, "velocity": 119, "channel": 0}, {"type": "note_off", "time": 107, "note": 75, "velocity": 119, "channel": 0}, {"type": "note_on", "time": 24, "note": 73, "velocity": 115, "channel": 0}, {"type": "note_off", "time": 67, "note": 73, "velocity": 115, "channel": 0}, {"type": "note_on", "time": 24, "note": 82, "velocity": 114, "channel": 0}, {"type": "note_off", "time": 79, "note": 82, "velocity": 114, "channel": 0}, {"type": "note_on", "time": 14, "note": 80, "velocity": 110, "channel": 0}, {"type": "note_off", "time": 67, "note": 80, "velocity": 110, "channel": 0}, {"type": "note_on", "time": 20, "note": 79, "velocity": 114, "channel": 0}, {"type": "note_off", "time": 71, "note": 79, "velocity": 114, "channel": 0}, {"type": "note_on", "time": 2, "note": 77, "velocity": 108, "channel": 0}, {"type": "note_off", "time": 89, "note": 77, "velocity": 108, "channel": 0}, {"type": "note_on", "time": 30, "note": 75, "velocity": 114, "channel": 0}, {"type": "note_off", "time": 97, "note": 75, "velocity": 114, "channel": 0}, {"type": "note_on", "time": 74, "note": 75, "velocity": 110, "channel": 0}, {"type": "note_off", "time": 241, "note": 75, "velocity": 110, "channel": 0}, {"type": "note_on", "time": 151, "note": 71, "velocity": 113, "channel": 0}, {"type": "note_off", "time": 89, "note": 71, "velocity": 113, "channel": 0}, {"type": "note_on", "time": 11, "note": 72, "velocity": 120, "channel": 0}, {"type": "note_off", "time": 46, "note": 72, "velocity": 120, "channel": 0}, {"type": "note_on", "time": 25, "note": 75, "velocity": 118, "channel": 0}, {"type": "note_off", "time": 93, "note": 75, "velocity": 118, "channel": 0}, {"type": "note_on", "time": 11, "note": 72, "velocity": 116, "channel": 0}, {"type": "note_off", "time": 84, "note": 72, "velocity": 116, "channel": 0}, {"type": "note_on", "time": 17, "note": 80, "velocity": 105, "channel": 0}, {"type": "note_off", "time": 427, "note": 80, "velocity": 105, "channel": 0}, {"type": "end_of_track", "time": 0}]]}