{"ticks_per_beat": 192, "tracks": [[{"type": "track_name", "name": "Melody", "time": 0}, {"type": "set_tempo", "tempo": 324324, "time": 0}, {"type": "key_signature", "key": "F", "time": 0}, {"type": "time_signature", "numerator": 4, "denominator": 4, "clocks_per_click": 24, "notated_32nd_notes_per_beat": 8, "time": 0}, {"type": "note_on", "time": 2181, "note": 60, "velocity": 113, "channel": 0}, {"type": "note_off", "time": 57, "note": 60, "velocity": 113, "channel": 0}, {"type": "note_on", "time": 18, "note": 62, "velocity": 92, "channel": 0}, {"type": "note_off", "time": 94, "note": 62, "velocity": 92, "channel": 0}, {"type": "note_on", "time": 17, "note": 65, "velocity": 115, "channel": 0}, {"type": "note_off", "time": 81, "note": 65, "velocity": 115, "channel": 0}, {"type": "note_on", "time": 6, "note": 67, "velocity": 123, "channel": 0}, {"type": "note_off", "time": 109, "note": 67, "velocity": 123, "channel": 0}, {"type": "note_on", "time": 6, "note": 65, "velocity": 93, "channel": 0}, {"type": "note_off", "time": 62, "note": 65, "velocity": 93, "channel": 0}, {"type": "note_on", "time": 8, "note": 67, "velocity": 122, "channel": 0}, {"type": "note_off", "time": 107, "note": 67, "velocity": 122, "channel": 0}, {"type": "note_on", "time": 8, "note": 65, "velocity": 88, "channel": 0}, {"type": "note_off", "time": 48, "note": 65, "velocity": 88, "channel": 0}, {"type": "note_on", "time": 20, "note": 67, "velocity": 120, "channel": 0}, {"type": "note_off", "time": 101, "note": 67, "velocity": 120, "channel": 0}, {"type": "note_on", "time": 12, "note": 65, "velocity": 93, "channel": 0}, {"type": "note_off", "time": 66, "note": 65, "velocity": 93, "channel": 0}, {"type": "note_on", "time": 7, "note": 67, "velocity": 118, "channel": 0}, {"type": "note_off", "time": 115, "note": 67, "velocity": 118, "channel": 0}, {"type": "note_on", "time": 4, "note": 65, "velocity": 93, "channel": 0}, {"type": "note_off", "time": 71, "note": 65, "velocity": 93, "channel": 0}, {"type": "note_on", "time": 15, "note": 72, "velocity": 104, "channel": 0}, {"type": "note_off", "time": 83, "note": 72, "velocity": 104, "channel": 0}, {"type": "note_on", "time": 12, "note": 67, "velocity": 117, "channel": 0}, {"type": "note_off", "time": 78, "note": 67, "velocity": 117, "channel": 0}, {"type": "note_on", "time": 185, "note": 67, "velocity": 109, "channel": 0}, {"type": "note_off", "time": 96, "note": 67, "velocity": 109, "channel": 0}, {"type": "note_on", "time": 4, "note": 65, "velocity": 82, "channel": 0}, {"type": "note_off", "time": 76, "note": 65, "velocity": 82, "channel": 0}, {"type": "note_on", "time": 6, "note": 67, "velocity": 115, "channel": 0}, {"type": "note_off", "time": 98, "note": 67, "velocity": 115, "channel": 0}, {"type": "note_on", "time": 10, "note": 65, "velocity": 85, "channel": 0}, {"type": "note_off", "time": 67, "note": 65, "velocity": 85, "channel": 0}, {"type": "note_on", "time": 12, "note": 72, "velocity": 121, "channel": 0}, {"type": "note_off", "time": 94, "note": 72, "velocity": 121, "channel": 0}, {"type": "note_on", "time": 13, "note": 67, "velocity": 112, "channel": 0}, {"type": "note_off", "time": 71, "note": 67, "velocity": 112, "channel": 0}, {"type": "note_on", "time": 22, "note": 65, "velocity": 85, "channel": 0}, {"type": "note_off", "time": 67, "note": 65, "velocity": 85, "channel": 0}, {"type": "note_on", "time": 54, "note": 64, "velocity": 92, "channel": 0}, {"type": "note_off", "time": 50, "note": 64, "velocity": 92, "channel": 0}, {"type": "note_on", "time": 11, "note": 65, "velocity": 107, "channel": 0}, {"type": "note_off", "time": 115, "note": 65, "velocity": 107, "channel": 0}, {"type": "note_on", "time": 79, "note": 65, "velocity": 105, "channel": 0}, {"type": "note_off", "time": 77, "note": 65, "velocity": 105, "channel": 0}, {"type": "note_on", "time": 35, "note": 65, "velocity": 103, "channel": 0}, {"type": "note_off", "time": 79, "note": 65, "velocity": 103, "channel": 0}, {"type": "note_on", "time": 5, "note": 67, "velocity": 106, "channel": 0}, {"type": "note_off", "time": 183, "note": 67, "velocity": 106, "channel": 0}, {"type": "note_on", "time": 25, "note": 60, "velocity": 91, "channel": 0}, {"type": "note_off", "time": 102, "note": 60, "velocity": 91, "channel": 0}, {"type": "note_on", "time": 8, "note": 62, "velocity": 88, "channel": 0}, {"type": "note_off", "time": 49, "note": 62, "velocity": 88, "channel": 0}, {"type": "note_on", "time": 18, "note": 65, "velocity": 105, "channel": 0}, {"type": "note_off", "time": 103, "note": 65, "velocity": 105, "channel": 0}, {"type": "note_on", "time": 12, "note": 64, "velocity": 86, "channel": 0}, {"type": "note_off", "time": 50, "note": 64, "velocity": 86, "channel": 0}, {"type": "note_on", "time": 18, "note": 67, "velocity": 112, "channel": 0}, {"type": "note_off", "time": 44, "note": 67, "velocity": 112, "channel": 0}, {"type": "note_on", "time": 4, "note": 69, "velocity": 93, "channel": 0}, {"type": "note_off", "time": 16, "note": 69, "velocity": 93, "channel": 0}, {"type": "note_on", "time": 4, "note": 67, "velocity": 102, "channel": 0}, {"type": "note_off", "time": 50, "note": 67, "velocity": 102, "channel": 0}, {"type": "note_on", "time": 18, "note": 65, "velocity": 93, "channel": 0}, {"type": "note_off", "time": 44, "note": 65, "velocity": 93, "channel": 0}, {"type": "note_on", "time": 13, "note": 64, "velocity": 106, "channel": 0}, {"type": "note_off", "time": 85, "note": 64, "velocity": 106, "channel": 0}, {"type": "note_on", "time": 8, "note": 62, "velocity": 101, "channel": 0}, {"type": "note_off", "time": 68, "note": 62, "velocity": 101, "channel": 0}, {"type": "note_on", "time": 140, "note": 58, "velocity": 107, "channel": 0}, {"type": "note_off", "time": 60, "note": 58, "velocity": 107, "channel": 0}, {"type": "note_on", "time": 14, "note": 57, "velocity": 106, "channel": 0}, {"type": "note_off", "time": 101, "note": 57, "velocity": 106, "channel": 0}, {"type": "note_on", "time": 14, "note": 59, "velocity": 97, "channel": 0}, {"type": "note_off", "time": 56, "note": 59, "velocity": 97, "channel": 0}, {"type": "note_on", "time": 6, "note": 60, "velocity": 89, "channel": 0}, {"type": "note_off", "time": 83, "note": 60, "velocity": 89, "channel": 0}, {"type": "note_on", "time": 29, "note": 65, "velocity": 106, "channel": 0}, {"type": "note_off", "time": 70, "note": 65, "velocity": 106, "channel": 0}, {"type": "note_on", "time": 8, "note": 64, "velocity": 87, "channel": 0}, {"type": "note_off", "time": 77, "note": 64, "velocity": 87, "channel": 0}, {"type": "note_on", "time": 7, "note": 65, "velocity": 107, "channel": 0}, {"type": "note_off", "time": 90, "note": 65, "velocity": 107, "channel": 0}, {"type": "note_on", "time": 6, "note": 69, "velocity": 117, "channel": 0}, {"type": "note_off", "time": 97, "note": 69, "velocity": 117, "channel": 0}, {"type": "note_on", "time": 10, "note": 72, "velocity": 118, "channel": 0}, {"type": "note_off", "time": 88, "note": 72, "velocity": 118, "channel": 0}, {"type": "note_on", "time": 3, "note": 74, "velocity": 117, "channel": 0}, {"type": "note_off", "time": 85, "note": 74, "velocity": 117, "channel": 0}, {"type": "note_on", "time": 15, "note": 70, "velocity": 113, "channel": 0}, {"type": "note_off", "time": 68, "note": 70, "velocity": 113, "channel": 0}, {"type": "note_on", "time": 9, "note": 67, "velocity": 93, "channel": 0}, {"type": "note_off", "time": 90, "note": 67, "velocity": 93, "channel": 0}, {"type": "note_on", "time": 100, "note": 72, "velocity": 118, "channel": 0}, {"type": "note_off", "time": 111, "note": 72, "velocity": 118, "channel": 0}, {"type": "note_on", "time": 58, "note": 70, "velocity": 110, "channel": 0}, {"type": "note_off", "time": 107, "note": 70, "velocity": 110, "channel": 0}, {"type": "note_on", "time": 49, "note": 67, "velocity": 114, "channel": 0}, {"type": "note_off", "time": 32, "note": 67, "velocity": 114, "channel": 0}, {"type": "note_on", "time": 6, "note": 69, "velocity": 110, "channel": 0}, {"type": "note_off", "time": 107, "note": 69, "velocity": 110, "channel": 0}, {"type": "note_on", "time": 11, "note": 70, "velocity": 94, "channel": 0}, {"type": "note_off", "time": 42, "note": 70, "velocity": 94, "channel": 0}, {"type": "note_on", "time": 4, "note": 71, "velocity": 100, "channel": 0}, {"type": "note_off", "time": 39, "note": 71, "velocity": 100, "channel": 0}, {"type": "note_on", "time": 9, "note": 72, "velocity": 98, "channel": 0}, {"type": "note_off", "time": 72, "note": 72, "velocity": 98, "channel": 0}, {"type": "note_on", "time": 28, "note": 65, "velocity": 104, "channel": 0}, {"type": "note_off", "time": 63, "note": 65, "velocity": 104, "channel": 0}, {"type": "note_on", "time": 53, "note": 60, "velocity": 84, "channel": 0}, {"type": "note_off", "time": 57, "note": 60, "velocity": 84, "channel": 0}, {"type": "note_on", "time": 7, "note": 61, "velocity": 96, "channel": 0}, {"type": "note_off", "time": 76, "note": 61, "velocity": 96, "channel": 0}, {"type": "note_on", "time": 16, "note": 62, "velocity": 95, "channel": 0}, {"type": "note_off", "time": 68, "note": 62, "velocity": 95, "channel": 0}, {"type": "note_on", "time": 23, "note": 65, "velocity": 99, "channel": 0}, {"type": "note_off", "time": 79, "note": 65, "velocity": 99, "channel": 0}, {"type": "note_on", "time": 16, "note": 62, "velocity": 98, "channel": 0}, {"type": "note_off", "time": 80, "note": 62, "velocity": 98, "channel": 0}, {"type": "note_on", "time": 90, "note": 64, "velocity": 106, "channel": 0}, {"type": "note_off", "time": 28, "note": 64, "velocity": 106, "channel": 0}, {"type": "note_on", "time": 3, "note": 65, "velocity": 100, "channel": 0}, {"type": "note_off", "time": 86, "note": 65, "velocity": 100, "channel": 0}, {"type": "note_on", "time": 10, "note": 67, "velocity": 107, "channel": 0}, {"type": "note_off", "time": 64, "note": 67, "velocity": 107, "channel": 0}, {"type": "note_on", "time": 8, "note": 69, "velocity": 97, "channel": 0}, {"type": "note_off", "time": 165, "note": 69, "velocity": 97, "channel": 0}, {"type": "note_on", "time": 7, "note": 67, "velocity": 91, "channel": 0}, {"type": "note_off", "time": 99, "note": 67, "velocity": 91, "channel": 0}, {"type": "note_on", "time": 93, "note": 68, "velocity": 110, "channel": 0}, {"type": "note_off", "time": 147, "note": 68, "velocity": 110, "channel": 0}, {"type": "note_on", "time": 535, "note": 63, "velocity": 105, "channel": 0}, {"type": "note_off", "time": 83, "note": 63, "velocity": 105, "channel": 0}, {"type": "note_on", "time": 1, "note": 68, "velocity": 118, "channel": 0}, {"type": "note_off", "time": 88, "note": 68, "velocity": 118, "channel": 0}, {"type": "note_on", "time": 10, "note": 70, "velocity": 123, "channel": 0}, {"type": "note_off", "time": 73, "note": 70, "velocity": 123, "channel": 0}, {"type": "note_on", "time": 16, "note": 69, "velocity": 103, "channel": 0}, {"type": "note_off", "time": 16, "note": 69, "velocity": 103, "channel": 0}, {"type": "note_on", "time": 3, "note": 70, "velocity": 111, "channel": 0}, {"type": "note_off", "time": 43, "note": 70, "velocity": 111, "channel": 0}, {"type": "note_on", "time": 4, "note": 68, "velocity": 99, "channel": 0}, {"type": "note_off", "time": 33, "note": 68, "velocity": 99, "channel": 0}, {"type": "note_on", "time": 6, "note": 65, "velocity": 98, "channel": 0}, {"type": "note_off", "time": 54, "note": 65, "velocity": 98, "channel": 0}, {"type": "note_on", "time": 7, "note": 63, "velocity": 112, "channel": 0}, {"type": "note_off", "time": 97, "note": 63, "velocity": 112, "channel": 0}, {"type": "note_on", "time": 11, "note": 61, "velocity": 105, "channel": 0}, {"type": "note_off", "time": 68, "note": 61, "velocity": 105, "channel": 0}, {"type": "note_on", "time": 130, "note": 58, "velocity": 111, "channel": 0}, {"type": "note_off", "time": 64, "note": 58, "velocity": 111, "channel": 0}, {"type": "note_on", "time": 12, "note": 56, "velocity": 106, "channel": 0}, {"type": "note_off", "time": 105, "note": 56, "velocity": 106, "channel": 0}, {"type": "note_on", "time": 21, "note": 63, "velocity": 102, "channel": 0}, {"type": "note_off", "time": 59, "note": 63, "velocity": 102, "channel": 0}, {"type": "note_on", "time": 14, "note": 60, "velocity": 92, "channel": 0}, {"type": "note_off", "time": 67, "note": 60, "velocity": 92, "channel": 0}, {"type": "note_on", "time": 39, "note": 55, "velocity": 109, "channel": 0}, {"type": "note_off", "time": 82, "note": 55, "velocity": 109, "channel": 0}, {"type": "note_on", "time": 97, "note": 63, "velocity": 101, "channel": 0}, {"type": "note_off", "time": 64, "note": 63, "velocity": 101, "channel": 0}, {"type": "note_on", "time": 13, "note": 60, "velocity": 89, "channel": 0}, {"type": "note_off", "time": 80, "note": 60, "velocity": 89, "channel": 0}, {"type": "note_on", "time": 29, "note": 54, "velocity": 104, "channel": 0}, {"type": "note_off", "time": 123, "note": 54, "velocity": 104, "channel": 0}, {"type": "note_on", "time": 74, "note": 63, "velocity": 98, "channel": 0}, {"type": "note_off", "time": 57, "note": 63, "velocity": 98, "channel": 0}, {"type": "note_on", "time": 22, "note": 60, "velocity": 85, "channel": 0}, {"type": "note_off", "time": 70, "note": 60, "velocity": 85, "channel": 0}, {"type": "note_on", "time": 24, "note": 53, "velocity": 105, "channel": 0}, {"type": "note_off", "time": 141, "note": 53, "velocity": 105, "channel": 0}, {"type": "note_on", "time": 49, "note": 59, "velocity": 107, "channel": 0}, {"type": "note_off", "time": 75, "note": 59, "velocity": 107, "channel": 0}, {"type": "note_on", "time": 12, "note": 62, "velocity": 91, "channel": 0}, {"type": "note_off", "time": 80, "note": 62, "velocity": 91, "channel": 0}, {"type": "note_on", "time": 15, "note": 67, "velocity": 117, "channel": 0}, {"type": "note_off", "time": 70, "note": 67, "velocity": 117, "channel": 0}, {"type": "note_on", "time": 11, "note": 64, "velocity": 94, "channel": 0}, {"type": "note_off", "time": 135, "note": 64, "velocity": 94, "channel": 0}, {"type": "note_on", "time": 358, "note": 60, "velocity": 105, "channel": 0}, {"type": "note_off", "time": 90, "note": 60, "velocity": 105, "channel": 0}, {"type": "note_on", "time": 16, "note": 64, "velocity": 87, "channel": 0}, {"type": "note_off", "time": 72, "note": 64, "velocity": 87, "channel": 0}, {"type": "note_on", "time": 12, "note": 69, "velocity": 124, "channel": 0}, {"type": "note_off", "time": 85, "note": 69, "velocity": 124, "channel": 0}, {"type": "note_on", "time": 7, "note": 65, "velocity": 91, "channel": 0}, {"type": "note_off", "time": 200, "note": 65, "velocity": 91, "channel": 0}, {"type": "note_on", "time": 280, "note": 62, "velocity": 112, "channel": 0}, {"type": "note_off", "time": 73, "note": 62, "velocity": 112, "channel": 0}, {"type": "note_on", "time": 18, "note": 65, "velocity": 107, "channel": 0}, {"type": "note_off", "time": 99, "note": 65, "velocity": 107, "channel": 0}, {"type": "note_on", "time": 8, "note": 69, "velocity": 115, "channel": 0}, {"type": "note_off", "time": 60, "note": 69, "velocity": 115, "channel": 0}, {"type": "note_on", "time": 3, "note": 72, "velocity": 121, "channel": 0}, {"type": "note_off", "time": 119, "note": 72, "velocity": 121, "channel": 0}, {"type": "note_on", "time": 12, "note": 69, "velocity": 97, "channel": 0}, {"type": "note_off", "time": 58, "note": 69, "velocity": 97, "channel": 0}, {"type": "note_on", "time": 4, "note": 70, "velocity": 119, "channel": 0}, {"type": "note_off", "time": 115, "note": 70, "velocity": 119, "channel": 0}, {"type": "note_on", "time": 8, "note": 74, "velocity": 120, "channel": 0}, {"type": "note_off", "time": 75, "note": 74, "velocity": 120, "channel": 0}, {"type": "note_on", "time": 8, "note": 77, "velocity": 116, "channel": 0}, {"type": "note_off", "time": 96, "note": 77, "velocity": 116, "channel": 0}, {"type": "note_on", "time": 10, "note": 76, "velocity": 113, "channel": 0}, {"type": "note_off", "time": 76, "note": 76, "velocity": 113, "channel": 0}, {"type": "note_on", "time": 4, "note": 72, "velocity": 105, "channel": 0}, {"type": "note_off", "time": 32, "note": 72, "velocity": 105, "channel": 0}, {"type": "note_on", "time": 5, "note": 74, "velocity": 107, "channel": 0}, {"type": "note_off", "time": 31, "note": 74, "velocity": 107, "channel": 0}, {"type": "note_on", "time": 7, "note": 72, "velocity": 105, "channel": 0}, {"type": "note_off", "time": 35, "note": 72, "velocity": 105, "channel": 0}, {"type": "note_on", "time": 5, "note": 69, "velocity": 109, "channel": 0}, {"type": "note_off", "time": 59, "note": 69, "velocity": 109, "channel": 0}, {"type": "note_on", "time": 9, "note": 70, "velocity": 118, "channel": 0}, {"type": "note_off", "time": 94, "note": 70, "velocity": 118, "channel": 0}, {"type": "note_on", "time": 10, "note": 67, "velocity": 119, "channel": 0}, {"type": "note_off", "time": 68, "note": 67, "velocity": 119, "channel": 0}, {"type": "note_on", "time": 6, "note": 64, "velocity": 103, "channel": 0}, {"type": "note_off", "time": 50, "note": 64, "velocity": 103, "channel": 0}, {"type": "note_on", "time": 11, "note": 61, "velocity": 101, "channel": 0}, {"type": "note_off", "time": 41, "note": 61, "velocity": 101, "channel": 0}, {"type": "note_on", "time": 12, "note": 60, "velocity": 102, "channel": 0}, {"type": "note_off", "time": 22, "note": 60, "velocity": 102, "channel": 0}, {"type": "note_on", "time": 5, "note": 59, "velocity": 112, "channel": 0}, {"type": "note_off", "time": 36, "note": 59, "velocity": 112, "channel": 0}, {"type": "note_on", "time": 8, "note": 58, "velocity": 109, "channel": 0}, {"type": "note_off", "time": 65, "note": 58, "velocity": 109, "channel": 0}, {"type": "note_on", "time": 9, "note": 56, "velocity": 98, "channel": 0}, {"type": "note_off", "time": 37, "note": 56, "velocity": 98, "channel": 0}, {"type": "note_on", "time": 5, "note": 57, "velocity": 101, "channel": 0}, {"type": "note_off", "time": 41, "note": 57, "velocity": 101, "channel": 0}, {"type": "note_on", "time": 9, "note": 60, "velocity": 96, "channel": 0}, {"type": "note_off", "time": 28, "note": 60, "velocity": 96, "channel": 0}, {"type": "note_on", "time": 9, "note": 64, "velocity": 102, "channel": 0}, {"type": "note_off", "time": 33, "note": 64, "velocity": 102, "channel": 0}, {"type": "note_on", "time": 9, "note": 67, "velocity": 106, "channel": 0}, {"type": "note_off", "time": 55, "note": 67, "velocity": 106, "channel": 0}, {"type": "note_on", "time": 17, "note": 62, "velocity": 96, "channel": 0}, {"type": "note_off", "time": 193, "note": 62, "velocity": 96, "channel": 0}, {"type": "note_on", "time": 11, "note": 60, "velocity": 96, "channel": 0}, {"type": "note_off", "time": 57, "note": 60, "velocity": 96, "channel": 0}, {"type": "note_on", "time": 40, "note": 65, "velocity": 107, "channel": 0}, {"type": "note_off", "time": 98, "note": 65, "velocity": 107, "channel": 0}, {"type": "note_on", "time": 68, "note": 65, "velocity": 91, "channel": 0}, {"type": "note_off", "time": 175, "note": 65, "velocity": 91, "channel": 0}, {"type": "note_on", "time": 277, "note": 57, "velocity": 113, "channel": 0}, {"type": "note_off", "time": 103, "note": 57, "velocity": 113, "channel": 0}, {"type": "note_on", "time": 13, "note": 58, "velocity": 101, "channel": 0}, {"type": "note_off", "time": 90, "note": 58, "velocity": 101, "channel": 0}, {"type": "note_on", "time": 7, "note": 62, "velocity": 110, "channel": 0}, {"type": "note_off", "time": 73, "note": 62, "velocity": 110, "channel": 0}, {"type": "note_on", "time": 4, "note": 65, "velocity": 104, "channel": 0}, {"type": "note_off", "time": 102, "note": 65, "velocity": 104, "channel": 0}, {"type": "note_on", "time": 11, "note": 69, "velocity": 118, "channel": 0}, {"type": "note_off", "time": 80, "note": 69, "velocity": 118, "channel": 0}, {"type": "note_on", "time": 10, "note": 72, "velocity": 121, "channel": 0}, {"type": "note_off", "time": 65, "note": 72, "velocity": 121, "channel": 0}, {"type": "note_on", "time": 4, "note": 74, "velocity": 113, "channel": 0}, {"type": "note_off", "time": 26, "note": 74, "velocity": 113, "channel": 0}, {"type": "note_on", "time": 5, "note": 73, "velocity": 117, "channel": 0}, {"type": "note_off", "time": 33, "note": 73, "velocity": 117, "channel": 0}, {"type": "note_on", "time": 6, "note": 71, "velocity": 115, "channel": 0}, {"type": "note_off", "time": 58, "note": 71, "velocity": 115, "channel": 0}, {"type": "note_on", "time": 3, "note": 70, "velocity": 122, "channel": 0}, {"type": "note_off", "time": 82, "note": 70, "velocity": 122, "channel": 0}, {"type": "note_on", "time": 5, "note": 68, "velocity": 118, "channel": 0}, {"type": "note_off", "time": 62, "note": 68, "velocity": 118, "channel": 0}, {"type": "note_on", "time": 6, "note": 69, "velocity": 114, "channel": 0}, {"type": "note_off", "time": 108, "note": 69, "velocity": 114, "channel": 0}, {"type": "note_on", "time": 16, "note": 72, "velocity": 118, "channel": 0}, {"type": "note_off", "time": 82, "note": 72, "velocity": 118, "channel": 0}, {"type": "note_on", "time": 9, "note": 77, "velocity": 113, "channel": 0}, {"type": "note_off", "time": 100, "note": 77, "velocity": 113, "channel": 0}, {"type": "note_on", "time": 11, "note": 76, "velocity": 116, "channel": 0}, {"type": "note_off", "time": 72, "note": 76, "velocity": 116, "channel": 0}, {"type": "note_on", "time": 8, "note": 72, "velocity": 85, "channel": 0}, {"type": "note_off", "time": 28, "note": 72, "velocity": 85, "channel": 0}, {"type": "note_on", "time": 3, "note": 74, "velocity": 84, "channel": 0}, {"type": "note_off", "time": 20, "note": 74, "velocity": 84, "channel": 0}, {"type": "note_on", "time": 7, "note": 72, "velocity": 100, "channel": 0}, {"type": "note_off", "time": 34, "note": 72, "velocity": 100, "channel": 0}, {"type": "note_on", "time": 2, "note": 69, "velocity": 108, "channel": 0}, {"type": "note_off", "time": 80, "note": 69, "velocity": 108, "channel": 0}, {"type": "note_on", "time": 5, "note": 74, "velocity": 122, "channel": 0}, {"type": "note_off", "time": 100, "note": 74, "velocity": 122, "channel": 0}, {"type": "note_on", "time": 6, "note": 70, "velocity": 119, "channel": 0}, {"type": "note_off", "time": 68, "note": 70, "velocity": 119, "channel": 0}, {"type": "note_on", "time": 128, "note": 68, "velocity": 118, "channel": 0}, {"type": "note_off", "time": 83, "note": 68, "velocity": 118, "channel": 0}, {"type": "note_on", "time": 9, "note": 69, "velocity": 118, "channel": 0}, {"type": "note_off", "time": 94, "note": 69, "velocity": 118, "channel": 0}, {"type": "note_on", "time": 9, "note": 67, "velocity": 117, "channel": 0}, {"type": "note_off", "time": 67, "note": 67, "velocity": 117, "channel": 0}, {"type": "note_on", "time": 13, "note": 64, "velocity": 94, "channel": 0}, {"type": "note_off", "time": 81, "note": 64, "velocity": 94, "channel": 0}, {"type": "note_on", "time": 28, "note": 60, "velocity": 100, "channel": 0}, {"type": "note_off", "time": 62, "note": 60, "velocity": 100, "channel": 0}, {"type": "note_on", "time": 12, "note": 67, "velocity": 108, "channel": 0}, {"type": "note_off", "time": 104, "note": 67, "velocity": 108, "channel": 0}, {"type": "note_on", "time": 12, "note": 65, "velocity": 101, "channel": 0}, {"type": "note_off", "time": 67, "note": 65, "velocity": 101, "channel": 0}, {"type": "note_on", "time": 20, "note": 62, "velocity": 87, "channel": 0}, {"type": "note_off", "time": 82, "note": 62, "velocity": 87, "channel": 0}, {"type": "note_on", "time": 6, "note": 57, "velocity": 90, "channel": 0}, {"type": "note_off", "time": 195, "note": 57, "velocity": 90, "channel": 0}, {"type": "note_on", "time": 387, "note": 57, "velocity": 112, "channel": 0}, {"type": "note_off", "time": 137, "note": 57, "velocity": 112, "channel": 0}, {"type": "note_on", "time": 11, "note": 59, "velocity": 104, "channel": 0}, {"type": "note_off", "time": 33, "note": 59, "velocity": 104, "channel": 0}, {"type": "note_on", "time": 7, "note": 60, "velocity": 99, "channel": 0}, {"type": "note_off", "time": 28, "note": 60, "velocity": 99, "channel": 0}, {"type": "note_on", "time": 13, "note": 64, "velocity": 96, "channel": 0}, {"type": "note_off", "time": 33, "note": 64, "velocity": 96, "channel": 0}, {"type": "note_on", "time": 9, "note": 69, "velocity": 119, "channel": 0}, {"type": "note_off", "time": 96, "note": 69, "velocity": 119, "channel": 0}, {"type": "note_on", "time": 9, "note": 67, "velocity": 119, "channel": 0}, {"type": "note_off", "time": 53, "note": 67, "velocity": 119, "channel": 0}, {"type": "note_on", "time": 16, "note": 64, "velocity": 98, "channel": 0}, {"type": "note_off", "time": 50, "note": 64, "velocity": 98, "channel": 0}, {"type": "note_on", "time": 3, "note": 61, "velocity": 95, "channel": 0}, {"type": "note_off", "time": 52, "note": 61, "velocity": 95, "channel": 0}, {"type": "note_on", "time": 8, "note": 60, "velocity": 99, "channel": 0}, {"type": "note_off", "time": 28, "note": 60, "velocity": 99, "channel": 0}, {"type": "note_on", "time": 7, "note": 58, "velocity": 109, "channel": 0}, {"type": "note_off", "time": 54, "note": 58, "velocity": 109, "channel": 0}, {"type": "note_on", "time": 11, "note": 57, "velocity": 111, "channel": 0}, {"type": "note_off", "time": 129, "note": 57, "velocity": 111, "channel": 0}, {"type": "note_on", "time": 45, "note": 65, "velocity": 106, "channel": 0}, {"type": "note_off", "time": 90, "note": 65, "velocity": 106, "channel": 0}, {"type": "note_on", "time": 13, "note": 62, "velocity": 97, "channel": 0}, {"type": "note_off", "time": 86, "note": 62, "velocity": 97, "channel": 0}, {"type": "note_on", "time": 311, "note": 60, "velocity": 107, "channel": 0}, {"type": "note_off", "time": 70, "note": 60, "velocity": 107, "channel": 0}, {"type": "note_on", "time": 4, "note": 58, "velocity": 100, "channel": 0}, {"type": "note_off", "time": 102, "note": 58, "velocity": 100, "channel": 0}, {"type": "note_on", "time": 25, "note": 62, "velocity": 101, "channel": 0}, {"type": "note_off", "time": 39, "note": 62, "velocity": 101, "channel": 0}, {"type": "note_on", "time": 12, "note": 65, "velocity": 107, "channel": 0}, {"type": "note_off", "time": 112, "note": 65, "velocity": 107, "channel": 0}, {"type": "note_on", "time": 18, "note": 67, "velocity": 119, "channel": 0}, {"type": "note_off", "time": 77, "note": 67, "velocity": 119, "channel": 0}, {"type": "note_on", "time": 4, "note": 69, "velocity": 118, "channel": 0}, {"type": "note_off", "time": 93, "note": 69, "velocity": 118, "channel": 0}, {"type": "note_on", "time": 7, "note": 68, "velocity": 118, "channel": 0}, {"type": "note_off", "time": 83, "note": 68, "velocity": 118, "channel": 0}, {"type": "note_on", "time": 6, "note": 67, "velocity": 96, "channel": 0}, {"type": "note_off", "time": 95, "note": 67, "velocity": 96, "channel": 0}, {"type": "note_on", "time": 13, "note": 66, "velocity": 105, "channel": 0}, {"type": "note_off", "time": 73, "note": 66, "velocity": 105, "channel": 0}, {"type": "note_on", "time": 6, "note": 65, "velocity": 107, "channel": 0}, {"type": "note_off", "time": 101, "note": 65, "velocity": 107, "channel": 0}, {"type": "note_on", "time": 8, "note": 64, "velocity": 108, "channel": 0}, {"type": "note_off", "time": 65, "note": 64, "velocity": 108, "channel": 0}, {"type": "note_on", "time": 9, "note": 63, "velocity": 105, "channel": 0}, {"type": "note_off", "time": 116, "note": 63, "velocity": 105, "channel": 0}, {"type": "note_on", "time": 13, "note": 67, "velocity": 95, "channel": 0}, {"type": "note_off", "time": 50, "note": 67, "velocity": 95, "channel": 0}, {"type": "note_on", "time": 18, "note": 70, "velocity": 118, "channel": 0}, {"type": "note_off", "time": 105, "note": 70, "velocity": 118, "channel": 0}, {"type": "note_on", "time": 6, "note": 74, "velocity": 121, "channel": 0}, {"type": "note_off", "time": 75, "note": 74, "velocity": 121, "channel": 0}, {"type": "note_on", "time": 6, "note": 72, "velocity": 118, "channel": 0}, {"type": "note_off", "time": 102, "note": 72, "velocity": 118, "channel": 0}, {"type": "note_on", "time": 8, "note": 67, "velocity": 92, "channel": 0}, {"type": "note_off", "time": 65, "note": 67, "velocity": 92, "channel": 0}, {"type": "note_on", "time": 9, "note": 71, "velocity": 121, "channel": 0}, {"type": "note_off", "time": 119, "note": 71, "velocity": 121, "channel": 0}, {"type": "note_on", "time": 6, "note": 67, "velocity": 119, "channel": 0}, {"type": "note_off", "time": 67, "note": 67, "velocity": 119, "channel": 0}, {"type": "note_on", "time": 7, "note": 63, "velocity": 86, "channel": 0}, {"type": "note_off", "time": 67, "note": 63, "velocity": 86, "channel": 0}, {"type": "note_on", "time": 44, "note": 59, "velocity": 104, "channel": 0}, {"type": "note_off", "time": 82, "note": 59, "velocity": 104, "channel": 0}, {"type": "note_on", "time": 9, "note": 55, "velocity": 104, "channel": 0}, {"type": "note_off", "time": 147, "note": 55, "velocity": 104, "channel": 0}, {"type": "note_on", "time": 22, "note": 53, "velocity": 100, "channel": 0}, {"type": "note_off", "time": 127, "note": 53, "velocity": 100, "channel": 0}, {"type": "note_on", "time": 0, "note": 60, "velocity": 96, "channel": 0}, {"type": "note_off", "time": 82, "note": 60, "velocity": 96, "channel": 0}, {"type": "note_on", "time": 5, "note": 62, "velocity": 96, "channel": 0}, {"type": "note_off", "time": 75, "note": 62, "velocity": 96, "channel": 0}, {"type": "note_on", "time": 969, "note": 61, "velocity": 115, "channel": 0}, {"type": "note_off", "time": 84, "note": 61, "velocity": 115, "channel": 0}, {"type": "note_on", "time": 8, "note": 65, "velocity": 117, "channel": 0}, {"type": "note_off", "time": 88, "note": 65, "velocity": 117, "channel": 0}, {"type": "note_on", "time": 9, "note": 69, "velocity": 100, "channel": 0}, {"type": "note_off", "time": 60, "note": 69, "velocity": 100, "channel": 0}, {"type": "note_on", "time": 7, "note": 72, "velocity": 127, "channel": 0}, {"type": "note_off", "time": 131, "note": 72, "velocity": 127, "channel": 0}, {"type": "note_on", "time": 3, "note": 70, "velocity": 123, "channel": 0}, {"type": "note_off", "time": 79, "note": 70, "velocity": 123, "channel": 0}, {"type": "note_on", "time": 6, "note": 69, "velocity": 122, "channel": 0}, {"type": "note_off", "time": 119, "note": 69, "velocity": 122, "channel": 0}, {"type": "note_on", "time": 8, "note": 71, "velocity": 117, "channel": 0}, {"type": "note_off", "time": 47, "note": 71, "velocity": 117, "channel": 0}, {"type": "note_on", "time": 7, "note": 72, "velocity": 118, "channel": 0}, {"type": "note_off", "time": 108, "note": 72, "velocity": 118, "channel": 0}, {"type": "note_on", "time": 4, "note": 77, "velocity": 112, "channel": 0}, {"type": "note_off", "time": 77, "note": 77, "velocity": 112, "channel": 0}, {"type": "note_on", "time": 6, "note": 74, "velocity": 116, "channel": 0}, {"type": "note_off", "time": 100, "note": 74, "velocity": 116, "channel": 0}, {"type": "note_on", "time": 10, "note": 71, "velocity": 113, "channel": 0}, {"type": "note_off", "time": 61, "note": 71, "velocity": 113, "channel": 0}, {"type": "note_on", "time": 1, "note": 69, "velocity": 100, "channel": 0}, {"type": "note_off", "time": 27, "note": 69, "velocity": 100, "channel": 0}, {"type": "note_on", "time": 6, "note": 70, "velocity": 106, "channel": 0}, {"type": "note_off", "time": 38, "note": 70, "velocity": 106, "channel": 0}, {"type": "note_on", "time": 3, "note": 69, "velocity": 107, "channel": 0}, {"type": "note_off", "time": 39, "note": 69, "velocity": 107, "channel": 0}, {"type": "note_on", "time": 13, "note": 66, "velocity": 97, "channel": 0}, {"type": "note_off", "time": 42, "note": 66, "velocity": 97, "channel": 0}, {"type": "note_on", "time": 22, "note": 74, "velocity": 118, "channel": 0}, {"type": "note_off", "time": 108, "note": 74, "velocity": 118, "channel": 0}, {"type": "note_on", "time": 21, "note": 69, "velocity": 97, "channel": 0}, {"type": "note_off", "time": 58, "note": 69, "velocity": 97, "channel": 0}, {"type": "note_on", "time": 7, "note": 70, "velocity": 120, "channel": 0}, {"type": "note_off", "time": 107, "note": 70, "velocity": 120, "channel": 0}, {"type": "note_on", "time": 5, "note": 67, "velocity": 117, "channel": 0}, {"type": "note_off", "time": 79, "note": 67, "velocity": 117, "channel": 0}, {"type": "note_on", "time": 4, "note": 64, "velocity": 92, "channel": 0}, {"type": "note_off", "time": 85, "note": 64, "velocity": 92, "channel": 0}, {"type": "note_on", "time": 21, "note": 61, "velocity": 103, "channel": 0}, {"type": "note_off", "time": 68, "note": 61, "velocity": 103, "channel": 0}, {"type": "note_on", "time": 5, "note": 60, "velocity": 90, "channel": 0}, {"type": "note_off", "time": 89, "note": 60, "velocity": 90, "channel": 0}, {"type": "note_on", "time": 24, "note": 58, "velocity": 109, "channel": 0}, {"type": "note_off", "time": 70, "note": 58, "velocity": 109, "channel": 0}, {"type": "note_on", "time": 6, "note": 57, "velocity": 108, "channel": 0}, {"type": "note_off", "time": 100, "note": 57, "velocity": 108, "channel": 0}, {"type": "note_on", "time": 4, "note": 58, "velocity": 105, "channel": 0}, {"type": "note_off", "time": 35, "note": 58, "velocity": 105, "channel": 0}, {"type": "note_on", "time": 8, "note": 59, "velocity": 107, "channel": 0}, {"type": "note_off", "time": 50, "note": 59, "velocity": 107, "channel": 0}, {"type": "note_on", "time": 9, "note": 60, "velocity": 93, "channel": 0}, {"type": "note_off", "time": 86, "note": 60, "velocity": 93, "channel": 0}, {"type": "note_on", "time": 8, "note": 65, "velocity": 109, "channel": 0}, {"type": "note_off", "time": 81, "note": 65, "velocity": 109, "channel": 0}, {"type": "note_on", "time": 9, "note": 64, "velocity": 87, "channel": 0}, {"type": "note_off", "time": 88, "note": 64, "velocity": 87, "channel": 0}, {"type": "note_on", "time": 6, "note": 65, "velocity": 109, "channel": 0}, {"type": "note_off", "time": 76, "note": 65, "velocity": 109, "channel": 0}, {"type": "note_on", "time": 8, "note": 68, "velocity": 118, "channel": 0}, {"type": "note_off", "time": 97, "note": 68, "velocity": 118, "channel": 0}, {"type": "note_on", "time": 7, "note": 71, "velocity": 116, "channel": 0}, {"type": "note_off", "time": 76, "note": 71, "velocity": 116, "channel": 0}, {"type": "note_on", "time": 5, "note": 74, "velocity": 118, "channel": 0}, {"type": "note_off", "time": 108, "note": 74, "velocity": 118, "channel": 0}, {"type": "note_on", "time": 13, "note": 69, "velocity": 92, "channel": 0}, {"type": "note_off", "time": 53, "note": 69, "velocity": 92, "channel": 0}, {"type": "note_on", "time": 12, "note": 70, "velocity": 116, "channel": 0}, {"type": "note_off", "time": 100, "note": 70, "velocity": 116, "channel": 0}, {"type": "note_on", "time": 15, "note": 71, "velocity": 109, "channel": 0}, {"type": "note_off", "time": 82, "note": 71, "velocity": 109, "channel": 0}, {"type": "note_on", "time": 6, "note": 72, "velocity": 118, "channel": 0}, {"type": "note_off", "time": 176, "note": 72, "velocity": 118, "channel": 0}, {"type": "note_on", "time": 9, "note": 70, "velocity": 117, "channel": 0}, {"type": "note_off", "time": 91, "note": 70, "velocity": 117, "channel": 0}, {"type": "note_on", "time": 7, "note": 67, "velocity": 115, "channel": 0}, {"type": "note_off", "time": 61, "note": 67, "velocity": 115, "channel": 0}, {"type": "note_on", "time": 4, "note": 69, "velocity": 116, "channel": 0}, {"type": "note_off", "time": 119, "note": 69, "velocity": 116, "channel": 0}, {"type": "note_on", "time": 3, "note": 70, "velocity": 105, "channel": 0}, {"type": "note_off", "time": 38, "note": 70, "velocity": 105, "channel": 0}, {"type": "note_on", "time": 6, "note": 71, "velocity": 105, "channel": 0}, {"type": "note_off", "time": 36, "note": 71, "velocity": 105, "channel": 0}, {"type": "note_on", "time": 4, "note": 72, "velocity": 113, "channel": 0}, {"type": "note_off", "time": 107, "note": 72, "velocity": 113, "channel": 0}, {"type": "note_on", "time": 0, "note": 67, "velocity": 113, "channel": 0}, {"type": "note_off", "time": 43, "note": 67, "velocity": 113, "channel": 0}, {"type": "note_on", "time": 4, "note": 68, "velocity": 112, "channel": 0}, {"type": "note_off", "time": 152, "note": 68, "velocity": 112, "channel": 0}, {"type": "note_on", "time": 401, "note": 61, "velocity": 105, "channel": 0}, {"type": "note_off", "time": 67, "note": 61, "velocity": 105, "channel": 0}, {"type": "note_on", "time": 11, "note": 62, "velocity": 91, "channel": 0}, {"type": "note_off", "time": 41, "note": 62, "velocity": 91, "channel": 0}, {"type": "note_on", "time": 1, "note": 65, "velocity": 85, "channel": 0}, {"type": "note_off", "time": 32, "note": 65, "velocity": 85, "channel": 0}, {"type": "note_on", "time": 8, "note": 69, "velocity": 100, "channel": 0}, {"type": "note_off", "time": 76, "note": 69, "velocity": 100, "channel": 0}, {"type": "note_on", "time": 14, "note": 72, "velocity": 119, "channel": 0}, {"type": "note_off", "time": 106, "note": 72, "velocity": 119, "channel": 0}, {"type": "note_on", "time": 87, "note": 70, "velocity": 116, "channel": 0}, {"type": "note_off", "time": 96, "note": 70, "velocity": 116, "channel": 0}, {"type": "note_on", "time": 205, "note": 77, "velocity": 120, "channel": 0}, {"type": "note_off", "time": 82, "note": 77, "velocity": 120, "channel": 0}, {"type": "note_on", "time": 9, "note": 72, "velocity": 122, "channel": 0}, {"type": "note_off", "time": 93, "note": 72, "velocity": 122, "channel": 0}, {"type": "note_on", "time": 4, "note": 70, "velocity": 118, "channel": 0}, {"type": "note_off", "time": 78, "note": 70, "velocity": 118, "channel": 0}, {"type": "note_on", "time": 1, "note": 69, "velocity": 120, "channel": 0}, {"type": "note_off", "time": 110, "note": 69, "velocity": 120, "channel": 0}, {"type": "note_on", "time": 4, "note": 70, "velocity": 115, "channel": 0}, {"type": "note_off", "time": 45, "note": 70, "velocity": 115, "channel": 0}, {"type": "note_on", "time": 6, "note": 71, "velocity": 114, "channel": 0}, {"type": "note_off", "time": 43, "note": 71, "velocity": 114, "channel": 0}, {"type": "note_on", "time": 4, "note": 72, "velocity": 110, "channel": 0}, {"type": "note_off", "time": 86, "note": 72, "velocity": 110, "channel": 0}, {"type": "note_on", "time": 6, "note": 69, "velocity": 115, "channel": 0}, {"type": "note_off", "time": 85, "note": 69, "velocity": 115, "channel": 0}, {"type": "note_on", "time": 2, "note": 65, "velocity": 106, "channel": 0}, {"type": "note_off", "time": 112, "note": 65, "velocity": 106, "channel": 0}, {"type": "note_on", "time": 29, "note": 64, "velocity": 87, "channel": 0}, {"type": "note_off", "time": 44, "note": 64, "velocity": 87, "channel": 0}, {"type": "note_on", "time": 3, "note": 67, "velocity": 114, "channel": 0}, {"type": "note_off", "time": 115, "note": 67, "velocity": 114, "channel": 0}, {"type": "note_on", "time": 6, "note": 65, "velocity": 78, "channel": 0}, {"type": "note_off", "time": 1317, "note": 65, "velocity": 78, "channel": 0}, {"type": "end_of_track", "time": 0}]]}