{"ticks_per_beat": 840, "tracks": [[{"type": "track_name", "name": "Melody", "time": 0}, {"type": "set_tempo", "tempo": 508474, "time": 0}, {"type": "key_signature", "key": "Ab", "time": 0}, {"type": "time_signature", "numerator": 4, "denominator": 4, "clocks_per_click": 24, "notated_32nd_notes_per_beat": 8, "time": 0}, {"type": "note_on", "time": 12669, "note": 67, "velocity": 117, "channel": 0}, {"type": "note_off", "time": 505, "note": 67, "velocity": 117, "channel": 0}, {"type": "note_on", "time": 53, "note": 68, "velocity": 97, "channel": 0}, {"type": "note_off", "time": 943, "note": 68, "velocity": 97, "channel": 0}, {"type": "note_on", "time": 202, "note": 65, "velocity": 118, "channel": 0}, {"type": "note_off", "time": 411, "note": 65, "velocity": 118, "channel": 0}, {"type": "note_on", "time": 128, "note": 62, "velocity": 120, "channel": 0}, {"type": "note_off", "time": 276, "note": 62, "velocity": 120, "channel": 0}, {"type": "note_on", "time": 40, "note": 61, "velocity": 113, "channel": 0}, {"type": "note_off", "time": 236, "note": 61, "velocity": 113, "channel": 0}, {"type": "note_on", "time": 60, "note": 63, "velocity": 117, "channel": 0}, {"type": "note_off", "time": 215, "note": 63, "velocity": 117, "channel": 0}, {"type": "note_on", "time": 20, "note": 60, "velocity": 111, "channel": 0}, {"type": "note_off", "time": 195, "note": 60, "velocity": 111, "channel": 0}, {"type": "note_on", "time": 54, "note": 58, "velocity": 92, "channel": 0}, {"type": "note_off", "time": 676, "note": 58, "velocity": 92, "channel": 0}, {"type": "note_on", "time": 2359, "note": 62, "velocity": 125, "channel": 0}, {"type": "note_off", "time": 306, "note": 62, "velocity": 125, "channel": 0}, {"type": "note_on", "time": 28, "note": 63, "velocity": 127, "channel": 0}, {"type": "note_off", "time": 369, "note": 63, "velocity": 127, "channel": 0}, {"type": "note_on", "time": 81, "note": 66, "velocity": 109, "channel": 0}, {"type": "note_off", "time": 393, "note": 66, "velocity": 109, "channel": 0}, {"type": "note_on", "time": 220, "note": 66, "velocity": 118, "channel": 0}, {"type": "note_off", "time": 273, "note": 66, "velocity": 118, "channel": 0}, {"type": "note_on", "time": 57, "note": 67, "velocity": 108, "channel": 0}, {"type": "note_off", "time": 234, "note": 67, "velocity": 108, "channel": 0}, {"type": "note_on", "time": 119, "note": 65, "velocity": 105, "channel": 0}, {"type": "note_off", "time": 330, "note": 65, "velocity": 105, "channel": 0}, {"type": "note_on", "time": 106, "note": 63, "velocity": 108, "channel": 0}, {"type": "note_off", "time": 268, "note": 63, "velocity": 108, "channel": 0}, {"type": "note_on", "time": 27, "note": 68, "velocity": 113, "channel": 0}, {"type": "note_off", "time": 206, "note": 68, "velocity": 113, "channel": 0}, {"type": "note_on", "time": 100, "note": 65, "velocity": 102, "channel": 0}, {"type": "note_off", "time": 268, "note": 65, "velocity": 102, "channel": 0}, {"type": "note_on", "time": 153, "note": 59, "velocity": 99, "channel": 0}, {"type": "note_off", "time": 407, "note": 59, "velocity": 99, "channel": 0}, {"type": "note_on", "time": 47, "note": 60, "velocity": 84, "channel": 0}, {"type": "note_off", "time": 738, "note": 60, "velocity": 84, "channel": 0}, {"type": "note_on", "time": 1988, "note": 63, "velocity": 118, "channel": 0}, {"type": "note_off", "time": 482, "note": 63, "velocity": 118, "channel": 0}, {"type": "note_on", "time": 13, "note": 65, "velocity": 110, "channel": 0}, {"type": "note_off", "time": 333, "note": 65, "velocity": 110, "channel": 0}, {"type": "note_on", "time": 77, "note": 61, "velocity": 107, "channel": 0}, {"type": "note_off", "time": 161, "note": 61, "velocity": 107, "channel": 0}, {"type": "note_on", "time": 101, "note": 68, "velocity": 121, "channel": 0}, {"type": "note_off", "time": 474, "note": 68, "velocity": 121, "channel": 0}, {"type": "note_on", "time": 44, "note": 65, "velocity": 95, "channel": 0}, {"type": "note_off", "time": 196, "note": 65, "velocity": 95, "channel": 0}, {"type": "note_on", "time": 33, "note": 64, "velocity": 118, "channel": 0}, {"type": "note_off", "time": 527, "note": 64, "velocity": 118, "channel": 0}, {"type": "note_on", "time": 119, "note": 60, "velocity": 93, "channel": 0}, {"type": "note_off", "time": 129, "note": 60, "velocity": 93, "channel": 0}, {"type": "note_on", "time": 38, "note": 63, "velocity": 113, "channel": 0}, {"type": "note_off", "time": 589, "note": 63, "velocity": 113, "channel": 0}, {"type": "note_on", "time": 47, "note": 60, "velocity": 102, "channel": 0}, {"type": "note_off", "time": 153, "note": 60, "velocity": 102, "channel": 0}, {"type": "note_on", "time": 71, "note": 56, "velocity": 98, "channel": 0}, {"type": "note_off", "time": 513, "note": 56, "velocity": 98, "channel": 0}, {"type": "note_on", "time": 455, "note": 54, "velocity": 101, "channel": 0}, {"type": "note_off", "time": 393, "note": 54, "velocity": 101, "channel": 0}, {"type": "note_on", "time": 57, "note": 56, "velocity": 98, "channel": 0}, {"type": "note_off", "time": 810, "note": 56, "velocity": 98, "channel": 0}, {"type": "note_on", "time": 2028, "note": 55, "velocity": 105, "channel": 0}, {"type": "note_off", "time": 249, "note": 55, "velocity": 105, "channel": 0}, {"type": "note_on", "time": 19, "note": 58, "velocity": 100, "channel": 0}, {"type": "note_off", "time": 244, "note": 58, "velocity": 100, "channel": 0}, {"type": "note_on", "time": 23, "note": 61, "velocity": 115, "channel": 0}, {"type": "note_off", "time": 282, "note": 61, "velocity": 115, "channel": 0}, {"type": "note_on", "time": 182, "note": 62, "velocity": 115, "channel": 0}, {"type": "note_off", "time": 244, "note": 62, "velocity": 115, "channel": 0}, {"type": "note_on", "time": 23, "note": 65, "velocity": 108, "channel": 0}, {"type": "note_off", "time": 201, "note": 65, "velocity": 108, "channel": 0}, {"type": "note_on", "time": 163, "note": 68, "velocity": 115, "channel": 0}, {"type": "note_off", "time": 359, "note": 68, "velocity": 115, "channel": 0}, {"type": "note_on", "time": 86, "note": 70, "velocity": 103, "channel": 0}, {"type": "note_off", "time": 249, "note": 70, "velocity": 103, "channel": 0}, {"type": "note_on", "time": 316, "note": 61, "velocity": 108, "channel": 0}, {"type": "note_off", "time": 335, "note": 61, "velocity": 108, "channel": 0}, {"type": "note_on", "time": 76, "note": 61, "velocity": 101, "channel": 0}, {"type": "note_off", "time": 1023, "note": 61, "velocity": 101, "channel": 0}, {"type": "note_on", "time": 1762, "note": 58, "velocity": 105, "channel": 0}, {"type": "note_off", "time": 249, "note": 58, "velocity": 105, "channel": 0}, {"type": "note_on", "time": 129, "note": 60, "velocity": 117, "channel": 0}, {"type": "note_off", "time": 278, "note": 60, "velocity": 117, "channel": 0}, {"type": "note_on", "time": 81, "note": 61, "velocity": 110, "channel": 0}, {"type": "note_off", "time": 412, "note": 61, "velocity": 110, "channel": 0}, {"type": "note_on", "time": 76, "note": 63, "velocity": 120, "channel": 0}, {"type": "note_off", "time": 340, "note": 63, "velocity": 120, "channel": 0}, {"type": "note_on", "time": 43, "note": 64, "velocity": 121, "channel": 0}, {"type": "note_off", "time": 359, "note": 64, "velocity": 121, "channel": 0}, {"type": "note_on", "time": 129, "note": 67, "velocity": 104, "channel": 0}, {"type": "note_off", "time": 220, "note": 67, "velocity": 104, "channel": 0}, {"type": "note_on", "time": 67, "note": 68, "velocity": 111, "channel": 0}, {"type": "note_off", "time": 321, "note": 68, "velocity": 111, "channel": 0}, {"type": "note_on", "time": 148, "note": 56, "velocity": 84, "channel": 0}, {"type": "note_off", "time": 858, "note": 56, "velocity": 84, "channel": 0}, {"type": "note_on", "time": 134, "note": 59, "velocity": 88, "channel": 0}, {"type": "note_off", "time": 805, "note": 59, "velocity": 88, "channel": 0}, {"type": "note_on", "time": 47, "note": 58, "velocity": 102, "channel": 0}, {"type": "note_off", "time": 810, "note": 58, "velocity": 102, "channel": 0}, {"type": "note_on", "time": 52, "note": 56, "velocity": 78, "channel": 0}, {"type": "note_off", "time": 196, "note": 56, "velocity": 78, "channel": 0}, {"type": "note_on", "time": 71, "note": 60, "velocity": 96, "channel": 0}, {"type": "note_off", "time": 484, "note": 60, "velocity": 96, "channel": 0}, {"type": "note_on", "time": 71, "note": 63, "velocity": 105, "channel": 0}, {"type": "note_off", "time": 278, "note": 63, "velocity": 105, "channel": 0}, {"type": "note_on", "time": 1424, "note": 55, "velocity": 106, "channel": 0}, {"type": "note_off", "time": 274, "note": 55, "velocity": 106, "channel": 0}, {"type": "note_on", "time": 5, "note": 57, "velocity": 110, "channel": 0}, {"type": "note_off", "time": 165, "note": 57, "velocity": 110, "channel": 0}, {"type": "note_on", "time": 65, "note": 60, "velocity": 113, "channel": 0}, {"type": "note_off", "time": 254, "note": 60, "velocity": 113, "channel": 0}, {"type": "note_on", "time": 68, "note": 62, "velocity": 121, "channel": 0}, {"type": "note_off", "time": 220, "note": 62, "velocity": 121, "channel": 0}, {"type": "note_on", "time": 148, "note": 65, "velocity": 108, "channel": 0}, {"type": "note_off", "time": 187, "note": 65, "velocity": 108, "channel": 0}, {"type": "note_on", "time": 57, "note": 67, "velocity": 100, "channel": 0}, {"type": "note_off", "time": 220, "note": 67, "velocity": 100, "channel": 0}, {"type": "note_on", "time": 110, "note": 62, "velocity": 111, "channel": 0}, {"type": "note_off", "time": 220, "note": 62, "velocity": 111, "channel": 0}, {"type": "note_on", "time": 115, "note": 65, "velocity": 105, "channel": 0}, {"type": "note_off", "time": 177, "note": 65, "velocity": 105, "channel": 0}, {"type": "note_on", "time": 81, "note": 60, "velocity": 106, "channel": 0}, {"type": "note_off", "time": 167, "note": 60, "velocity": 106, "channel": 0}, {"type": "note_on", "time": 129, "note": 62, "velocity": 110, "channel": 0}, {"type": "note_off", "time": 187, "note": 62, "velocity": 110, "channel": 0}, {"type": "note_on", "time": 52, "note": 57, "velocity": 100, "channel": 0}, {"type": "note_off", "time": 191, "note": 57, "velocity": 100, "channel": 0}, {"type": "note_on", "time": 86, "note": 60, "velocity": 113, "channel": 0}, {"type": "note_off", "time": 263, "note": 60, "velocity": 113, "channel": 0}, {"type": "note_on", "time": 76, "note": 55, "velocity": 103, "channel": 0}, {"type": "note_off", "time": 311, "note": 55, "velocity": 103, "channel": 0}, {"type": "note_on", "time": 1587, "note": 55, "velocity": 105, "channel": 0}, {"type": "note_off", "time": 100, "note": 55, "velocity": 105, "channel": 0}, {"type": "note_on", "time": 33, "note": 57, "velocity": 103, "channel": 0}, {"type": "note_off", "time": 86, "note": 57, "velocity": 103, "channel": 0}, {"type": "note_on", "time": 23, "note": 62, "velocity": 113, "channel": 0}, {"type": "note_off", "time": 134, "note": 62, "velocity": 113, "channel": 0}, {"type": "note_on", "time": 38, "note": 64, "velocity": 100, "channel": 0}, {"type": "note_off", "time": 71, "note": 64, "velocity": 100, "channel": 0}, {"type": "note_on", "time": 59, "note": 68, "velocity": 96, "channel": 0}, {"type": "note_off", "time": 148, "note": 68, "velocity": 96, "channel": 0}, {"type": "note_on", "time": 23, "note": 67, "velocity": 117, "channel": 0}, {"type": "note_off", "time": 179, "note": 67, "velocity": 117, "channel": 0}, {"type": "note_on", "time": 14, "note": 68, "velocity": 118, "channel": 0}, {"type": "note_off", "time": 258, "note": 68, "velocity": 118, "channel": 0}, {"type": "note_on", "time": 57, "note": 68, "velocity": 106, "channel": 0}, {"type": "note_off", "time": 803, "note": 68, "velocity": 106, "channel": 0}, {"type": "note_on", "time": 38, "note": 68, "velocity": 107, "channel": 0}, {"type": "note_off", "time": 297, "note": 68, "velocity": 107, "channel": 0}, {"type": "note_on", "time": 246, "note": 68, "velocity": 90, "channel": 0}, {"type": "note_off", "time": 170, "note": 68, "velocity": 90, "channel": 0}, {"type": "note_on", "time": 67, "note": 65, "velocity": 98, "channel": 0}, {"type": "note_off", "time": 177, "note": 65, "velocity": 98, "channel": 0}, {"type": "note_on", "time": 74, "note": 61, "velocity": 117, "channel": 0}, {"type": "note_off", "time": 436, "note": 61, "velocity": 117, "channel": 0}, {"type": "note_on", "time": 86, "note": 62, "velocity": 118, "channel": 0}, {"type": "note_off", "time": 273, "note": 62, "velocity": 118, "channel": 0}, {"type": "note_on", "time": 249, "note": 67, "velocity": 113, "channel": 0}, {"type": "note_off", "time": 316, "note": 67, "velocity": 113, "channel": 0}, {"type": "note_on", "time": 99, "note": 65, "velocity": 106, "channel": 0}, {"type": "note_off", "time": 340, "note": 65, "velocity": 106, "channel": 0}, {"type": "note_on", "time": 254, "note": 66, "velocity": 116, "channel": 0}, {"type": "note_off", "time": 116, "note": 66, "velocity": 116, "channel": 0}, {"type": "note_on", "time": 16, "note": 67, "velocity": 117, "channel": 0}, {"type": "note_off", "time": 166, "note": 67, "velocity": 117, "channel": 0}, {"type": "note_on", "time": 164, "note": 70, "velocity": 105, "channel": 0}, {"type": "note_off", "time": 239, "note": 70, "velocity": 105, "channel": 0}, {"type": "note_on", "time": 86, "note": 63, "velocity": 114, "channel": 0}, {"type": "note_off", "time": 244, "note": 63, "velocity": 114, "channel": 0}, {"type": "note_on", "time": 47, "note": 62, "velocity": 106, "channel": 0}, {"type": "note_off", "time": 148, "note": 62, "velocity": 106, "channel": 0}, {"type": "note_on", "time": 52, "note": 63, "velocity": 107, "channel": 0}, {"type": "note_off", "time": 561, "note": 63, "velocity": 107, "channel": 0}, {"type": "note_on", "time": 1663, "note": 64, "velocity": 122, "channel": 0}, {"type": "note_off", "time": 287, "note": 64, "velocity": 122, "channel": 0}, {"type": "note_on", "time": 19, "note": 65, "velocity": 112, "channel": 0}, {"type": "note_off", "time": 465, "note": 65, "velocity": 112, "channel": 0}, {"type": "note_on", "time": 100, "note": 58, "velocity": 99, "channel": 0}, {"type": "note_off", "time": 465, "note": 58, "velocity": 99, "channel": 0}, {"type": "note_on", "time": 81, "note": 59, "velocity": 92, "channel": 0}, {"type": "note_off", "time": 268, "note": 59, "velocity": 92, "channel": 0}, {"type": "note_on", "time": 239, "note": 60, "velocity": 114, "channel": 0}, {"type": "note_off", "time": 220, "note": 60, "velocity": 114, "channel": 0}, {"type": "note_on", "time": 91, "note": 55, "velocity": 110, "channel": 0}, {"type": "note_off", "time": 215, "note": 55, "velocity": 110, "channel": 0}, {"type": "note_on", "time": 23, "note": 57, "velocity": 96, "channel": 0}, {"type": "note_off", "time": 263, "note": 57, "velocity": 96, "channel": 0}, {"type": "note_on", "time": 115, "note": 60, "velocity": 114, "channel": 0}, {"type": "note_off", "time": 335, "note": 60, "velocity": 114, "channel": 0}, {"type": "note_on", "time": 139, "note": 65, "velocity": 114, "channel": 0}, {"type": "note_off", "time": 278, "note": 65, "velocity": 114, "channel": 0}, {"type": "note_on", "time": 201, "note": 60, "velocity": 106, "channel": 0}, {"type": "note_off", "time": 345, "note": 60, "velocity": 106, "channel": 0}, {"type": "note_on", "time": 139, "note": 60, "velocity": 100, "channel": 0}, {"type": "note_off", "time": 1045, "note": 60, "velocity": 100, "channel": 0}, {"type": "note_on", "time": 1098, "note": 56, "velocity": 99, "channel": 0}, {"type": "note_off", "time": 225, "note": 56, "velocity": 99, "channel": 0}, {"type": "note_on", "time": 62, "note": 60, "velocity": 103, "channel": 0}, {"type": "note_off", "time": 225, "note": 60, "velocity": 103, "channel": 0}, {"type": "note_on", "time": 57, "note": 61, "velocity": 116, "channel": 0}, {"type": "note_off", "time": 215, "note": 61, "velocity": 116, "channel": 0}, {"type": "note_on", "time": 62, "note": 62, "velocity": 116, "channel": 0}, {"type": "note_off", "time": 321, "note": 62, "velocity": 116, "channel": 0}, {"type": "note_on", "time": 47, "note": 58, "velocity": 83, "channel": 0}, {"type": "note_off", "time": 148, "note": 58, "velocity": 83, "channel": 0}, {"type": "note_on", "time": 23, "note": 61, "velocity": 113, "channel": 0}, {"type": "note_off", "time": 201, "note": 61, "velocity": 113, "channel": 0}, {"type": "note_on", "time": 52, "note": 62, "velocity": 117, "channel": 0}, {"type": "note_off", "time": 350, "note": 62, "velocity": 117, "channel": 0}, {"type": "note_on", "time": 43, "note": 59, "velocity": 83, "channel": 0}, {"type": "note_off", "time": 158, "note": 59, "velocity": 83, "channel": 0}, {"type": "note_on", "time": 43, "note": 61, "velocity": 105, "channel": 0}, {"type": "note_off", "time": 230, "note": 61, "velocity": 105, "channel": 0}, {"type": "note_on", "time": 62, "note": 62, "velocity": 121, "channel": 0}, {"type": "note_off", "time": 278, "note": 62, "velocity": 121, "channel": 0}, {"type": "note_on", "time": 81, "note": 58, "velocity": 90, "channel": 0}, {"type": "note_off", "time": 105, "note": 58, "velocity": 90, "channel": 0}, {"type": "note_on", "time": 62, "note": 62, "velocity": 113, "channel": 0}, {"type": "note_off", "time": 268, "note": 62, "velocity": 113, "channel": 0}, {"type": "note_on", "time": 19, "note": 63, "velocity": 122, "channel": 0}, {"type": "note_off", "time": 278, "note": 63, "velocity": 122, "channel": 0}, {"type": "note_on", "time": 23, "note": 60, "velocity": 106, "channel": 0}, {"type": "note_off", "time": 163, "note": 60, "velocity": 106, "channel": 0}, {"type": "note_on", "time": 43, "note": 63, "velocity": 105, "channel": 0}, {"type": "note_off", "time": 690, "note": 63, "velocity": 105, "channel": 0}, {"type": "note_on", "time": 704, "note": 64, "velocity": 116, "channel": 0}, {"type": "note_off", "time": 220, "note": 64, "velocity": 116, "channel": 0}, {"type": "note_on", "time": 14, "note": 65, "velocity": 111, "channel": 0}, {"type": "note_off", "time": 321, "note": 65, "velocity": 111, "channel": 0}, {"type": "note_on", "time": 326, "note": 56, "velocity": 107, "channel": 0}, {"type": "note_off", "time": 436, "note": 56, "velocity": 107, "channel": 0}, {"type": "note_on", "time": 62, "note": 58, "velocity": 102, "channel": 0}, {"type": "note_off", "time": 87, "note": 58, "velocity": 102, "channel": 0}, {"type": "note_on", "time": 23, "note": 56, "velocity": 105, "channel": 0}, {"type": "note_off", "time": 151, "note": 56, "velocity": 105, "channel": 0}, {"type": "note_on", "time": 24, "note": 55, "velocity": 107, "channel": 0}, {"type": "note_off", "time": 273, "note": 55, "velocity": 107, "channel": 0}, {"type": "note_on", "time": 18, "note": 56, "velocity": 112, "channel": 0}, {"type": "note_off", "time": 128, "note": 56, "velocity": 112, "channel": 0}, {"type": "note_on", "time": 37, "note": 56, "velocity": 110, "channel": 0}, {"type": "note_off", "time": 315, "note": 56, "velocity": 110, "channel": 0}, {"type": "note_on", "time": 66, "note": 63, "velocity": 118, "channel": 0}, {"type": "note_off", "time": 220, "note": 63, "velocity": 118, "channel": 0}, {"type": "note_on", "time": 240, "note": 60, "velocity": 114, "channel": 0}, {"type": "note_off", "time": 286, "note": 60, "velocity": 114, "channel": 0}, {"type": "note_on", "time": 1434, "note": 65, "velocity": 119, "channel": 0}, {"type": "note_off", "time": 220, "note": 65, "velocity": 119, "channel": 0}, {"type": "note_on", "time": 67, "note": 63, "velocity": 118, "channel": 0}, {"type": "note_off", "time": 263, "note": 63, "velocity": 118, "channel": 0}, {"type": "note_on", "time": 239, "note": 67, "velocity": 117, "channel": 0}, {"type": "note_off", "time": 205, "note": 67, "velocity": 117, "channel": 0}, {"type": "note_on", "time": 6, "note": 68, "velocity": 114, "channel": 0}, {"type": "note_off", "time": 273, "note": 68, "velocity": 114, "channel": 0}, {"type": "note_on", "time": 137, "note": 65, "velocity": 102, "channel": 0}, {"type": "note_off", "time": 244, "note": 65, "velocity": 102, "channel": 0}, {"type": "note_on", "time": 57, "note": 63, "velocity": 111, "channel": 0}, {"type": "note_off", "time": 316, "note": 63, "velocity": 111, "channel": 0}, {"type": "note_on", "time": 220, "note": 70, "velocity": 110, "channel": 0}, {"type": "note_off", "time": 239, "note": 70, "velocity": 110, "channel": 0}, {"type": "note_on", "time": 302, "note": 65, "velocity": 108, "channel": 0}, {"type": "note_off", "time": 297, "note": 65, "velocity": 108, "channel": 0}, {"type": "note_on", "time": 76, "note": 63, "velocity": 118, "channel": 0}, {"type": "note_off", "time": 263, "note": 63, "velocity": 118, "channel": 0}, {"type": "note_on", "time": 91, "note": 58, "velocity": 92, "channel": 0}, {"type": "note_off", "time": 234, "note": 58, "velocity": 92, "channel": 0}, {"type": "note_on", "time": 26, "note": 61, "velocity": 112, "channel": 0}, {"type": "note_off", "time": 292, "note": 61, "velocity": 112, "channel": 0}, {"type": "note_on", "time": 38, "note": 60, "velocity": 115, "channel": 0}, {"type": "note_off", "time": 196, "note": 60, "velocity": 115, "channel": 0}, {"type": "note_on", "time": 55, "note": 56, "velocity": 106, "channel": 0}, {"type": "note_off", "time": 263, "note": 56, "velocity": 106, "channel": 0}, {"type": "note_on", "time": 43, "note": 54, "velocity": 97, "channel": 0}, {"type": "note_off", "time": 508, "note": 54, "velocity": 97, "channel": 0}, {"type": "note_on", "time": 1179, "note": 63, "velocity": 123, "channel": 0}, {"type": "note_off", "time": 133, "note": 63, "velocity": 123, "channel": 0}, {"type": "note_on", "time": 3, "note": 65, "velocity": 120, "channel": 0}, {"type": "note_off", "time": 201, "note": 65, "velocity": 120, "channel": 0}, {"type": "note_on", "time": 553, "note": 58, "velocity": 87, "channel": 0}, {"type": "note_off", "time": 210, "note": 58, "velocity": 87, "channel": 0}, {"type": "note_on", "time": 58, "note": 61, "velocity": 114, "channel": 0}, {"type": "note_off", "time": 230, "note": 61, "velocity": 114, "channel": 0}, {"type": "note_on", "time": 86, "note": 58, "velocity": 93, "channel": 0}, {"type": "note_off", "time": 172, "note": 58, "velocity": 93, "channel": 0}, {"type": "note_on", "time": 34, "note": 63, "velocity": 112, "channel": 0}, {"type": "note_off", "time": 772, "note": 63, "velocity": 112, "channel": 0}, {"type": "note_on", "time": 28, "note": 65, "velocity": 97, "channel": 0}, {"type": "note_off", "time": 1054, "note": 65, "velocity": 97, "channel": 0}, {"type": "note_on", "time": 335, "note": 54, "velocity": 97, "channel": 0}, {"type": "note_off", "time": 306, "note": 54, "velocity": 97, "channel": 0}, {"type": "note_on", "time": 28, "note": 53, "velocity": 92, "channel": 0}, {"type": "note_off", "time": 527, "note": 53, "velocity": 92, "channel": 0}, {"type": "note_on", "time": 23, "note": 51, "velocity": 105, "channel": 0}, {"type": "note_off", "time": 127, "note": 51, "velocity": 105, "channel": 0}, {"type": "note_on", "time": 500, "note": 51, "velocity": 106, "channel": 0}, {"type": "note_off", "time": 141, "note": 51, "velocity": 106, "channel": 0}, {"type": "note_on", "time": 148, "note": 51, "velocity": 89, "channel": 0}, {"type": "note_off", "time": 121, "note": 51, "velocity": 89, "channel": 0}, {"type": "note_on", "time": 2039, "note": 56, "velocity": 100, "channel": 0}, {"type": "note_off", "time": 215, "note": 56, "velocity": 100, "channel": 0}, {"type": "note_on", "time": 52, "note": 59, "velocity": 92, "channel": 0}, {"type": "note_off", "time": 124, "note": 59, "velocity": 92, "channel": 0}, {"type": "note_on", "time": 95, "note": 61, "velocity": 112, "channel": 0}, {"type": "note_off", "time": 493, "note": 61, "velocity": 112, "channel": 0}, {"type": "note_on", "time": 110, "note": 61, "velocity": 108, "channel": 0}, {"type": "note_off", "time": 469, "note": 61, "velocity": 108, "channel": 0}, {"type": "note_on", "time": 997, "note": 56, "velocity": 98, "channel": 0}, {"type": "note_off", "time": 220, "note": 56, "velocity": 98, "channel": 0}, {"type": "note_on", "time": 38, "note": 58, "velocity": 115, "channel": 0}, {"type": "note_off", "time": 239, "note": 58, "velocity": 115, "channel": 0}, {"type": "note_on", "time": 28, "note": 61, "velocity": 113, "channel": 0}, {"type": "note_off", "time": 206, "note": 61, "velocity": 113, "channel": 0}, {"type": "note_on", "time": 52, "note": 62, "velocity": 121, "channel": 0}, {"type": "note_off", "time": 292, "note": 62, "velocity": 121, "channel": 0}, {"type": "note_on", "time": 38, "note": 61, "velocity": 114, "channel": 0}, {"type": "note_off", "time": 268, "note": 61, "velocity": 114, "channel": 0}, {"type": "note_on", "time": 52, "note": 61, "velocity": 112, "channel": 0}, {"type": "note_off", "time": 187, "note": 61, "velocity": 112, "channel": 0}, {"type": "note_on", "time": 19, "note": 60, "velocity": 101, "channel": 0}, {"type": "note_off", "time": 225, "note": 60, "velocity": 101, "channel": 0}, {"type": "note_on", "time": 920, "note": 56, "velocity": 99, "channel": 0}, {"type": "note_off", "time": 182, "note": 56, "velocity": 99, "channel": 0}, {"type": "note_on", "time": 76, "note": 59, "velocity": 107, "channel": 0}, {"type": "note_off", "time": 469, "note": 59, "velocity": 107, "channel": 0}, {"type": "note_on", "time": 105, "note": 62, "velocity": 119, "channel": 0}, {"type": "note_off", "time": 215, "note": 62, "velocity": 119, "channel": 0}, {"type": "note_on", "time": 38, "note": 63, "velocity": 9, "channel": 0}, {"type": "note_off", "time": 604, "note": 63, "velocity": 9, "channel": 0}, {"type": "note_on", "time": 39, "note": 59, "velocity": 82, "channel": 0}, {"type": "note_off", "time": 212, "note": 59, "velocity": 82, "channel": 0}, {"type": "note_on", "time": 30, "note": 60, "velocity": 109, "channel": 0}, {"type": "note_off", "time": 407, "note": 60, "velocity": 109, "channel": 0}, {"type": "note_on", "time": 407, "note": 63, "velocity": 107, "channel": 0}, {"type": "note_off", "time": 421, "note": 63, "velocity": 107, "channel": 0}, {"type": "note_on", "time": 949, "note": 56, "velocity": 110, "channel": 0}, {"type": "note_off", "time": 206, "note": 56, "velocity": 110, "channel": 0}, {"type": "note_on", "time": 47, "note": 57, "velocity": 107, "channel": 0}, {"type": "note_off", "time": 268, "note": 57, "velocity": 107, "channel": 0}, {"type": "note_on", "time": 57, "note": 60, "velocity": 107, "channel": 0}, {"type": "note_off", "time": 201, "note": 60, "velocity": 107, "channel": 0}, {"type": "note_on", "time": 33, "note": 62, "velocity": 115, "channel": 0}, {"type": "note_off", "time": 268, "note": 62, "velocity": 115, "channel": 0}, {"type": "note_on", "time": 81, "note": 65, "velocity": 102, "channel": 0}, {"type": "note_off", "time": 278, "note": 65, "velocity": 102, "channel": 0}, {"type": "note_on", "time": 38, "note": 67, "velocity": 91, "channel": 0}, {"type": "note_off", "time": 354, "note": 67, "velocity": 91, "channel": 0}, {"type": "note_on", "time": 76, "note": 62, "velocity": 109, "channel": 0}, {"type": "note_off", "time": 258, "note": 62, "velocity": 109, "channel": 0}, {"type": "note_on", "time": 57, "note": 61, "velocity": 99, "channel": 0}, {"type": "note_off", "time": 306, "note": 61, "velocity": 99, "channel": 0}, {"type": "note_on", "time": 43, "note": 60, "velocity": 103, "channel": 0}, {"type": "note_off", "time": 225, "note": 60, "velocity": 103, "channel": 0}, {"type": "note_on", "time": 67, "note": 57, "velocity": 95, "channel": 0}, {"type": "note_off", "time": 383, "note": 57, "velocity": 95, "channel": 0}, {"type": "note_on", "time": 57, "note": 55, "velocity": 113, "channel": 0}, {"type": "note_off", "time": 292, "note": 55, "velocity": 113, "channel": 0}, {"type": "note_on", "time": 9, "note": 56, "velocity": 109, "channel": 0}, {"type": "note_off", "time": 479, "note": 56, "velocity": 109, "channel": 0}, {"type": "note_on", "time": 1285, "note": 66, "velocity": 117, "channel": 0}, {"type": "note_off", "time": 115, "note": 66, "velocity": 117, "channel": 0}, {"type": "note_on", "time": 38, "note": 67, "velocity": 117, "channel": 0}, {"type": "note_off", "time": 124, "note": 67, "velocity": 117, "channel": 0}, {"type": "note_on", "time": 33, "note": 66, "velocity": 109, "channel": 0}, {"type": "note_off", "time": 105, "note": 66, "velocity": 109, "channel": 0}, {"type": "note_on", "time": 43, "note": 65, "velocity": 107, "channel": 0}, {"type": "note_off", "time": 139, "note": 65, "velocity": 107, "channel": 0}, {"type": "note_on", "time": 139, "note": 62, "velocity": 109, "channel": 0}, {"type": "note_off", "time": 206, "note": 62, "velocity": 109, "channel": 0}, {"type": "note_on", "time": 81, "note": 67, "velocity": 101, "channel": 0}, {"type": "note_off", "time": 268, "note": 67, "velocity": 101, "channel": 0}, {"type": "note_on", "time": 287, "note": 55, "velocity": 106, "channel": 0}, {"type": "note_off", "time": 249, "note": 55, "velocity": 106, "channel": 0}, {"type": "note_on", "time": 28, "note": 63, "velocity": 114, "channel": 0}, {"type": "note_off", "time": 254, "note": 63, "velocity": 114, "channel": 0}, {"type": "note_on", "time": 52, "note": 60, "velocity": 109, "channel": 0}, {"type": "note_off", "time": 230, "note": 60, "velocity": 109, "channel": 0}, {"type": "note_on", "time": 47, "note": 59, "velocity": 92, "channel": 0}, {"type": "note_off", "time": 335, "note": 59, "velocity": 92, "channel": 0}, {"type": "note_on", "time": 1309, "note": 51, "velocity": 99, "channel": 0}, {"type": "note_off", "time": 465, "note": 51, "velocity": 99, "channel": 0}, {"type": "note_on", "time": 119, "note": 61, "velocity": 112, "channel": 0}, {"type": "note_off", "time": 201, "note": 61, "velocity": 112, "channel": 0}, {"type": "note_on", "time": 33, "note": 60, "velocity": 116, "channel": 0}, {"type": "note_off", "time": 421, "note": 60, "velocity": 116, "channel": 0}, {"type": "note_on", "time": 282, "note": 56, "velocity": 106, "channel": 0}, {"type": "note_off", "time": 374, "note": 56, "velocity": 106, "channel": 0}, {"type": "note_on", "time": 38, "note": 58, "velocity": 94, "channel": 0}, {"type": "note_off", "time": 105, "note": 58, "velocity": 94, "channel": 0}, {"type": "note_on", "time": 47, "note": 56, "velocity": 100, "channel": 0}, {"type": "note_off", "time": 115, "note": 56, "velocity": 100, "channel": 0}, {"type": "note_on", "time": 67, "note": 55, "velocity": 97, "channel": 0}, {"type": "note_off", "time": 225, "note": 55, "velocity": 97, "channel": 0}, {"type": "note_on", "time": 57, "note": 56, "velocity": 111, "channel": 0}, {"type": "note_off", "time": 311, "note": 56, "velocity": 111, "channel": 0}, {"type": "note_on", "time": 2182, "note": 64, "velocity": 120, "channel": 0}, {"type": "note_off", "time": 141, "note": 64, "velocity": 120, "channel": 0}, {"type": "note_on", "time": 20, "note": 65, "velocity": 108, "channel": 0}, {"type": "note_off", "time": 350, "note": 65, "velocity": 108, "channel": 0}, {"type": "note_on", "time": 43, "note": 68, "velocity": 109, "channel": 0}, {"type": "note_off", "time": 225, "note": 68, "velocity": 109, "channel": 0}, {"type": "note_on", "time": 19, "note": 70, "velocity": 110, "channel": 0}, {"type": "note_off", "time": 292, "note": 70, "velocity": 110, "channel": 0}, {"type": "note_on", "time": 47, "note": 71, "velocity": 104, "channel": 0}, {"type": "note_off", "time": 383, "note": 71, "velocity": 104, "channel": 0}, {"type": "note_on", "time": 28, "note": 72, "velocity": 102, "channel": 0}, {"type": "note_off", "time": 652, "note": 72, "velocity": 102, "channel": 0}, {"type": "note_on", "time": 71, "note": 68, "velocity": 102, "channel": 0}, {"type": "note_off", "time": 153, "note": 68, "velocity": 102, "channel": 0}, {"type": "note_on", "time": 119, "note": 70, "velocity": 114, "channel": 0}, {"type": "note_off", "time": 239, "note": 70, "velocity": 114, "channel": 0}, {"type": "note_on", "time": 62, "note": 71, "velocity": 105, "channel": 0}, {"type": "note_off", "time": 273, "note": 71, "velocity": 105, "channel": 0}, {"type": "note_on", "time": 2800, "note": 65, "velocity": 110, "channel": 0}, {"type": "note_off", "time": 541, "note": 65, "velocity": 110, "channel": 0}, {"type": "note_on", "time": 182, "note": 68, "velocity": 108, "channel": 0}, {"type": "note_off", "time": 81, "note": 68, "velocity": 108, "channel": 0}, {"type": "note_on", "time": 57, "note": 71, "velocity": 106, "channel": 0}, {"type": "note_off", "time": 426, "note": 71, "velocity": 106, "channel": 0}, {"type": "note_on", "time": 115, "note": 68, "velocity": 105, "channel": 0}, {"type": "note_off", "time": 767, "note": 68, "velocity": 105, "channel": 0}, {"type": "note_on", "time": 316, "note": 65, "velocity": 109, "channel": 0}, {"type": "note_off", "time": 508, "note": 65, "velocity": 109, "channel": 0}, {"type": "note_on", "time": 86, "note": 63, "velocity": 100, "channel": 0}, {"type": "note_off", "time": 143, "note": 63, "velocity": 100, "channel": 0}, {"type": "note_on", "time": 124, "note": 68, "velocity": 112, "channel": 0}, {"type": "note_off", "time": 503, "note": 68, "velocity": 112, "channel": 0}, {"type": "note_on", "time": 64, "note": 63, "velocity": 114, "channel": 0}, {"type": "note_off", "time": 126, "note": 63, "velocity": 114, "channel": 0}, {"type": "note_on", "time": 35, "note": 61, "velocity": 102, "channel": 0}, {"type": "note_off", "time": 99, "note": 61, "velocity": 102, "channel": 0}, {"type": "note_on", "time": 24, "note": 59, "velocity": 91, "channel": 0}, {"type": "note_off", "time": 431, "note": 59, "velocity": 91, "channel": 0}, {"type": "note_on", "time": 397, "note": 61, "velocity": 105, "channel": 0}, {"type": "note_off", "time": 412, "note": 61, "velocity": 105, "channel": 0}, {"type": "note_on", "time": 67, "note": 63, "velocity": 106, "channel": 0}, {"type": "note_off", "time": 632, "note": 63, "velocity": 106, "channel": 0}, {"type": "note_on", "time": 1850, "note": 67, "velocity": 114, "channel": 0}, {"type": "note_off", "time": 191, "note": 67, "velocity": 114, "channel": 0}, {"type": "note_on", "time": 9, "note": 68, "velocity": 110, "channel": 0}, {"type": "note_off", "time": 393, "note": 68, "velocity": 110, "channel": 0}, {"type": "note_on", "time": 19, "note": 70, "velocity": 96, "channel": 0}, {"type": "note_off", "time": 86, "note": 70, "velocity": 96, "channel": 0}, {"type": "note_on", "time": 19, "note": 68, "velocity": 90, "channel": 0}, {"type": "note_off", "time": 86, "note": 68, "velocity": 90, "channel": 0}, {"type": "note_on", "time": 302, "note": 67, "velocity": 114, "channel": 0}, {"type": "note_off", "time": 230, "note": 67, "velocity": 114, "channel": 0}, {"type": "note_on", "time": 19, "note": 68, "velocity": 114, "channel": 0}, {"type": "note_off", "time": 340, "note": 68, "velocity": 114, "channel": 0}, {"type": "note_on", "time": 47, "note": 70, "velocity": 91, "channel": 0}, {"type": "note_off", "time": 167, "note": 70, "velocity": 91, "channel": 0}, {"type": "note_on", "time": 62, "note": 66, "velocity": 87, "channel": 0}, {"type": "note_off", "time": 278, "note": 66, "velocity": 87, "channel": 0}, {"type": "note_on", "time": 196, "note": 67, "velocity": 115, "channel": 0}, {"type": "note_off", "time": 287, "note": 67, "velocity": 115, "channel": 0}, {"type": "note_on", "time": 23, "note": 68, "velocity": 109, "channel": 0}, {"type": "note_off", "time": 321, "note": 68, "velocity": 109, "channel": 0}, {"type": "note_on", "time": 71, "note": 70, "velocity": 88, "channel": 0}, {"type": "note_off", "time": 187, "note": 70, "velocity": 88, "channel": 0}, {"type": "note_on", "time": 33, "note": 65, "velocity": 89, "channel": 0}, {"type": "note_off", "time": 230, "note": 65, "velocity": 89, "channel": 0}, {"type": "note_on", "time": 19, "note": 67, "velocity": 114, "channel": 0}, {"type": "note_off", "time": 220, "note": 67, "velocity": 114, "channel": 0}, {"type": "note_on", "time": 19, "note": 68, "velocity": 114, "channel": 0}, {"type": "note_off", "time": 354, "note": 68, "velocity": 114, "channel": 0}, {"type": "note_on", "time": 28, "note": 70, "velocity": 99, "channel": 0}, {"type": "note_off", "time": 86, "note": 70, "velocity": 99, "channel": 0}, {"type": "note_on", "time": 43, "note": 68, "velocity": 97, "channel": 0}, {"type": "note_off", "time": 76, "note": 68, "velocity": 97, "channel": 0}, {"type": "note_on", "time": 105, "note": 66, "velocity": 99, "channel": 0}, {"type": "note_off", "time": 335, "note": 66, "velocity": 99, "channel": 0}, {"type": "note_on", "time": 556, "note": 65, "velocity": 100, "channel": 0}, {"type": "note_off", "time": 402, "note": 65, "velocity": 100, "channel": 0}, {"type": "note_on", "time": 86, "note": 68, "velocity": 108, "channel": 0}, {"type": "note_off", "time": 167, "note": 68, "velocity": 108, "channel": 0}, {"type": "note_on", "time": 115, "note": 64, "velocity": 116, "channel": 0}, {"type": "note_off", "time": 484, "note": 64, "velocity": 116, "channel": 0}, {"type": "note_on", "time": 52, "note": 62, "velocity": 94, "channel": 0}, {"type": "note_off", "time": 115, "note": 62, "velocity": 94, "channel": 0}, {"type": "note_on", "time": 52, "note": 63, "velocity": 103, "channel": 0}, {"type": "note_off", "time": 508, "note": 63, "velocity": 103, "channel": 0}, {"type": "note_on", "time": 2095, "note": 63, "velocity": 117, "channel": 0}, {"type": "note_off", "time": 270, "note": 63, "velocity": 117, "channel": 0}, {"type": "note_on", "time": 14, "note": 65, "velocity": 108, "channel": 0}, {"type": "note_off", "time": 256, "note": 65, "velocity": 108, "channel": 0}, {"type": "note_on", "time": 62, "note": 68, "velocity": 109, "channel": 0}, {"type": "note_off", "time": 263, "note": 68, "velocity": 109, "channel": 0}, {"type": "note_on", "time": 1611, "note": 58, "velocity": 94, "channel": 0}, {"type": "note_off", "time": 244, "note": 58, "velocity": 94, "channel": 0}, {"type": "note_on", "time": 47, "note": 61, "velocity": 113, "channel": 0}, {"type": "note_off", "time": 234, "note": 61, "velocity": 113, "channel": 0}, {"type": "note_on", "time": 38, "note": 63, "velocity": 119, "channel": 0}, {"type": "note_off", "time": 187, "note": 63, "velocity": 119, "channel": 0}, {"type": "note_on", "time": 52, "note": 61, "velocity": 95, "channel": 0}, {"type": "note_off", "time": 767, "note": 61, "velocity": 95, "channel": 0}, {"type": "note_on", "time": 3526, "note": 63, "velocity": 114, "channel": 0}, {"type": "note_off", "time": 347, "note": 63, "velocity": 114, "channel": 0}, {"type": "note_on", "time": 20, "note": 65, "velocity": 106, "channel": 0}, {"type": "note_off", "time": 209, "note": 65, "velocity": 106, "channel": 0}, {"type": "note_on", "time": 33, "note": 68, "velocity": 108, "channel": 0}, {"type": "note_off", "time": 182, "note": 68, "velocity": 108, "channel": 0}, {"type": "note_on", "time": 52, "note": 70, "velocity": 106, "channel": 0}, {"type": "note_off", "time": 489, "note": 70, "velocity": 106, "channel": 0}, {"type": "note_on", "time": 384, "note": 70, "velocity": 106, "channel": 0}, {"type": "note_off", "time": 229, "note": 70, "velocity": 106, "channel": 0}, {"type": "note_on", "time": 19, "note": 71, "velocity": 108, "channel": 0}, {"type": "note_off", "time": 402, "note": 71, "velocity": 108, "channel": 0}, {"type": "note_on", "time": 184, "note": 70, "velocity": 103, "channel": 0}, {"type": "note_off", "time": 489, "note": 70, "velocity": 103, "channel": 0}, {"type": "note_on", "time": 26, "note": 68, "velocity": 93, "channel": 0}, {"type": "note_off", "time": 786, "note": 68, "velocity": 93, "channel": 0}, {"type": "note_on", "time": 38, "note": 70, "velocity": 93, "channel": 0}, {"type": "note_off", "time": 67, "note": 70, "velocity": 93, "channel": 0}, {"type": "note_on", "time": 38, "note": 68, "velocity": 114, "channel": 0}, {"type": "note_off", "time": 91, "note": 68, "velocity": 114, "channel": 0}, {"type": "note_on", "time": 57, "note": 65, "velocity": 108, "channel": 0}, {"type": "note_off", "time": 278, "note": 65, "velocity": 108, "channel": 0}, {"type": "note_on", "time": 1467, "note": 57, "velocity": 103, "channel": 0}, {"type": "note_off", "time": 306, "note": 57, "velocity": 103, "channel": 0}, {"type": "note_on", "time": 57, "note": 58, "velocity": 92, "channel": 0}, {"type": "note_off", "time": 134, "note": 58, "velocity": 92, "channel": 0}, {"type": "note_on", "time": 38, "note": 59, "velocity": 85, "channel": 0}, {"type": "note_off", "time": 249, "note": 59, "velocity": 85, "channel": 0}, {"type": "note_on", "time": 9, "note": 60, "velocity": 111, "channel": 0}, {"type": "note_off", "time": 254, "note": 60, "velocity": 111, "channel": 0}, {"type": "note_on", "time": 19, "note": 61, "velocity": 107, "channel": 0}, {"type": "note_off", "time": 278, "note": 61, "velocity": 107, "channel": 0}, {"type": "note_on", "time": 52, "note": 59, "velocity": 84, "channel": 0}, {"type": "note_off", "time": 201, "note": 59, "velocity": 84, "channel": 0}, {"type": "note_on", "time": 0, "note": 62, "velocity": 112, "channel": 0}, {"type": "note_off", "time": 359, "note": 62, "velocity": 112, "channel": 0}, {"type": "note_on", "time": 67, "note": 59, "velocity": 81, "channel": 0}, {"type": "note_off", "time": 81, "note": 59, "velocity": 81, "channel": 0}, {"type": "note_on", "time": 57, "note": 63, "velocity": 108, "channel": 0}, {"type": "note_off", "time": 417, "note": 63, "velocity": 108, "channel": 0}, {"type": "note_on", "time": 148, "note": 59, "velocity": 84, "channel": 0}, {"type": "note_off", "time": 139, "note": 59, "velocity": 84, "channel": 0}, {"type": "note_on", "time": 86, "note": 64, "velocity": 113, "channel": 0}, {"type": "note_off", "time": 263, "note": 64, "velocity": 113, "channel": 0}, {"type": "note_on", "time": 47, "note": 65, "velocity": 107, "channel": 0}, {"type": "note_off", "time": 417, "note": 65, "velocity": 107, "channel": 0}, {"type": "note_on", "time": 143, "note": 58, "velocity": 96, "channel": 0}, {"type": "note_off", "time": 316, "note": 58, "velocity": 96, "channel": 0}, {"type": "note_on", "time": 43, "note": 57, "velocity": 103, "channel": 0}, {"type": "note_off", "time": 196, "note": 57, "velocity": 103, "channel": 0}, {"type": "note_on", "time": 57, "note": 60, "velocity": 108, "channel": 0}, {"type": "note_off", "time": 215, "note": 60, "velocity": 108, "channel": 0}, {"type": "note_on", "time": 91, "note": 61, "velocity": 103, "channel": 0}, {"type": "note_off", "time": 210, "note": 61, "velocity": 103, "channel": 0}, {"type": "note_on", "time": 14, "note": 65, "velocity": 114, "channel": 0}, {"type": "note_off", "time": 297, "note": 65, "velocity": 114, "channel": 0}, {"type": "note_on", "time": 11, "note": 66, "velocity": 96, "channel": 0}, {"type": "note_off", "time": 191, "note": 66, "velocity": 96, "channel": 0}, {"type": "note_on", "time": 64, "note": 65, "velocity": 105, "channel": 0}, {"type": "note_off", "time": 201, "note": 65, "velocity": 105, "channel": 0}, {"type": "note_on", "time": 76, "note": 63, "velocity": 115, "channel": 0}, {"type": "note_off", "time": 244, "note": 63, "velocity": 115, "channel": 0}, {"type": "note_on", "time": 33, "note": 62, "velocity": 105, "channel": 0}, {"type": "note_off", "time": 119, "note": 62, "velocity": 105, "channel": 0}, {"type": "note_on", "time": 108, "note": 65, "velocity": 102, "channel": 0}, {"type": "note_off", "time": 115, "note": 65, "velocity": 102, "channel": 0}, {"type": "note_on", "time": 102, "note": 60, "velocity": 105, "channel": 0}, {"type": "note_off", "time": 196, "note": 60, "velocity": 105, "channel": 0}, {"type": "note_on", "time": 57, "note": 58, "velocity": 96, "channel": 0}, {"type": "note_off", "time": 215, "note": 58, "velocity": 96, "channel": 0}, {"type": "note_on", "time": 52, "note": 60, "velocity": 100, "channel": 0}, {"type": "note_off", "time": 604, "note": 60, "velocity": 100, "channel": 0}, {"type": "note_on", "time": 1318, "note": 55, "velocity": 112, "channel": 0}, {"type": "note_off", "time": 321, "note": 55, "velocity": 112, "channel": 0}, {"type": "note_on", "time": 9, "note": 56, "velocity": 109, "channel": 0}, {"type": "note_off", "time": 278, "note": 56, "velocity": 109, "channel": 0}, {"type": "note_on", "time": 214, "note": 65, "velocity": 112, "channel": 0}, {"type": "note_off", "time": 237, "note": 65, "velocity": 112, "channel": 0}, {"type": "note_on", "time": 30, "note": 67, "velocity": 114, "channel": 0}, {"type": "note_off", "time": 163, "note": 67, "velocity": 114, "channel": 0}, {"type": "note_on", "time": 26, "note": 68, "velocity": 115, "channel": 0}, {"type": "note_off", "time": 210, "note": 68, "velocity": 115, "channel": 0}, {"type": "note_on", "time": 30, "note": 67, "velocity": 100, "channel": 0}, {"type": "note_off", "time": 129, "note": 67, "velocity": 100, "channel": 0}, {"type": "note_on", "time": 25, "note": 65, "velocity": 101, "channel": 0}, {"type": "note_off", "time": 182, "note": 65, "velocity": 101, "channel": 0}, {"type": "note_on", "time": 100, "note": 67, "velocity": 110, "channel": 0}, {"type": "note_off", "time": 306, "note": 67, "velocity": 110, "channel": 0}, {"type": "note_on", "time": 220, "note": 56, "velocity": 101, "channel": 0}, {"type": "note_off", "time": 728, "note": 56, "velocity": 101, "channel": 0}, {"type": "note_on", "time": 52, "note": 55, "velocity": 100, "channel": 0}, {"type": "note_off", "time": 239, "note": 55, "velocity": 100, "channel": 0}, {"type": "note_on", "time": 38, "note": 63, "velocity": 113, "channel": 0}, {"type": "note_off", "time": 311, "note": 63, "velocity": 113, "channel": 0}, {"type": "note_on", "time": 43, "note": 60, "velocity": 103, "channel": 0}, {"type": "note_off", "time": 378, "note": 60, "velocity": 103, "channel": 0}, {"type": "note_on", "time": 14, "note": 61, "velocity": 109, "channel": 0}, {"type": "note_off", "time": 191, "note": 61, "velocity": 109, "channel": 0}, {"type": "note_on", "time": 47, "note": 63, "velocity": 116, "channel": 0}, {"type": "note_off", "time": 249, "note": 63, "velocity": 116, "channel": 0}, {"type": "note_on", "time": 110, "note": 60, "velocity": 109, "channel": 0}, {"type": "note_off", "time": 292, "note": 60, "velocity": 109, "channel": 0}, {"type": "note_on", "time": 62, "note": 58, "velocity": 91, "channel": 0}, {"type": "note_off", "time": 450, "note": 58, "velocity": 91, "channel": 0}, {"type": "note_on", "time": 1567, "note": 52, "velocity": 99, "channel": 0}, {"type": "note_off", "time": 172, "note": 52, "velocity": 99, "channel": 0}, {"type": "note_on", "time": 38, "note": 53, "velocity": 101, "channel": 0}, {"type": "note_off", "time": 177, "note": 53, "velocity": 101, "channel": 0}, {"type": "note_on", "time": 33, "note": 54, "velocity": 105, "channel": 0}, {"type": "note_off", "time": 230, "note": 54, "velocity": 105, "channel": 0}, {"type": "note_on", "time": 172, "note": 53, "velocity": 94, "channel": 0}, {"type": "note_off", "time": 71, "note": 53, "velocity": 94, "channel": 0}, {"type": "note_on", "time": 0, "note": 57, "velocity": 103, "channel": 0}, {"type": "note_off", "time": 273, "note": 57, "velocity": 103, "channel": 0}, {"type": "note_on", "time": 62, "note": 53, "velocity": 108, "channel": 0}, {"type": "note_off", "time": 47, "note": 53, "velocity": 108, "channel": 0}, {"type": "note_on", "time": 0, "note": 60, "velocity": 114, "channel": 0}, {"type": "note_off", "time": 278, "note": 60, "velocity": 114, "channel": 0}, {"type": "note_on", "time": 57, "note": 53, "velocity": 98, "channel": 0}, {"type": "note_off", "time": 100, "note": 53, "velocity": 98, "channel": 0}, {"type": "note_on", "time": 0, "note": 63, "velocity": 111, "channel": 0}, {"type": "note_off", "time": 278, "note": 63, "velocity": 111, "channel": 0}, {"type": "note_on", "time": 124, "note": 65, "velocity": 113, "channel": 0}, {"type": "note_off", "time": 338, "note": 65, "velocity": 113, "channel": 0}, {"type": "note_on", "time": 23, "note": 66, "velocity": 107, "channel": 0}, {"type": "note_off", "time": 323, "note": 66, "velocity": 107, "channel": 0}, {"type": "note_on", "time": 57, "note": 64, "velocity": 98, "channel": 0}, {"type": "note_off", "time": 91, "note": 64, "velocity": 98, "channel": 0}, {"type": "note_on", "time": 33, "note": 65, "velocity": 105, "channel": 0}, {"type": "note_off", "time": 227, "note": 65, "velocity": 105, "channel": 0}, {"type": "note_on", "time": 23, "note": 58, "velocity": 81, "channel": 0}, {"type": "note_off", "time": 237, "note": 58, "velocity": 81, "channel": 0}, {"type": "note_on", "time": 43, "note": 60, "velocity": 102, "channel": 0}, {"type": "note_off", "time": 676, "note": 60, "velocity": 102, "channel": 0}, {"type": "note_on", "time": 1022, "note": 66, "velocity": 113, "channel": 0}, {"type": "note_off", "time": 379, "note": 66, "velocity": 113, "channel": 0}, {"type": "note_on", "time": 21, "note": 68, "velocity": 112, "channel": 0}, {"type": "note_off", "time": 182, "note": 68, "velocity": 112, "channel": 0}, {"type": "note_on", "time": 18, "note": 70, "velocity": 89, "channel": 0}, {"type": "note_off", "time": 72, "note": 70, "velocity": 89, "channel": 0}, {"type": "note_on", "time": 9, "note": 68, "velocity": 96, "channel": 0}, {"type": "note_off", "time": 166, "note": 68, "velocity": 96, "channel": 0}, {"type": "note_on", "time": 26, "note": 65, "velocity": 83, "channel": 0}, {"type": "note_off", "time": 139, "note": 65, "velocity": 83, "channel": 0}, {"type": "note_on", "time": 110, "note": 61, "velocity": 109, "channel": 0}, {"type": "note_off", "time": 417, "note": 61, "velocity": 109, "channel": 0}, {"type": "note_on", "time": 1347, "note": 72, "velocity": 106, "channel": 0}, {"type": "note_off", "time": 397, "note": 72, "velocity": 106, "channel": 0}, {"type": "note_on", "time": 67, "note": 70, "velocity": 110, "channel": 0}, {"type": "note_off", "time": 234, "note": 70, "velocity": 110, "channel": 0}, {"type": "note_on", "time": 62, "note": 60, "velocity": 108, "channel": 0}, {"type": "note_off", "time": 65, "note": 60, "velocity": 108, "channel": 0}, {"type": "note_on", "time": 11, "note": 61, "velocity": 104, "channel": 0}, {"type": "note_off", "time": 487, "note": 61, "velocity": 104, "channel": 0}, {"type": "note_on", "time": 24, "note": 55, "velocity": 89, "channel": 0}, {"type": "note_off", "time": 153, "note": 55, "velocity": 89, "channel": 0}, {"type": "note_on", "time": 55, "note": 60, "velocity": 115, "channel": 0}, {"type": "note_off", "time": 489, "note": 60, "velocity": 115, "channel": 0}, {"type": "note_on", "time": 131, "note": 67, "velocity": 111, "channel": 0}, {"type": "note_off", "time": 182, "note": 67, "velocity": 111, "channel": 0}, {"type": "note_on", "time": 19, "note": 68, "velocity": 107, "channel": 0}, {"type": "note_off", "time": 354, "note": 68, "velocity": 107, "channel": 0}, {"type": "note_on", "time": 43, "note": 70, "velocity": 85, "channel": 0}, {"type": "note_off", "time": 129, "note": 70, "velocity": 85, "channel": 0}, {"type": "note_on", "time": 14, "note": 68, "velocity": 84, "channel": 0}, {"type": "note_off", "time": 43, "note": 68, "velocity": 84, "channel": 0}, {"type": "note_on", "time": 33, "note": 65, "velocity": 92, "channel": 0}, {"type": "note_off", "time": 187, "note": 65, "velocity": 92, "channel": 0}, {"type": "note_on", "time": 62, "note": 58, "velocity": 103, "channel": 0}, {"type": "note_off", "time": 486, "note": 58, "velocity": 103, "channel": 0}, {"type": "note_on", "time": 28, "note": 59, "velocity": 82, "channel": 0}, {"type": "note_off", "time": 230, "note": 59, "velocity": 82, "channel": 0}, {"type": "note_on", "time": 43, "note": 60, "velocity": 107, "channel": 0}, {"type": "note_off", "time": 525, "note": 60, "velocity": 107, "channel": 0}, {"type": "note_on", "time": 942, "note": 56, "velocity": 99, "channel": 0}, {"type": "note_off", "time": 163, "note": 56, "velocity": 99, "channel": 0}, {"type": "note_on", "time": 40, "note": 57, "velocity": 107, "channel": 0}, {"type": "note_off", "time": 100, "note": 57, "velocity": 107, "channel": 0}, {"type": "note_on", "time": 28, "note": 59, "velocity": 100, "channel": 0}, {"type": "note_off", "time": 728, "note": 59, "velocity": 100, "channel": 0}, {"type": "note_on", "time": 43, "note": 60, "velocity": 112, "channel": 0}, {"type": "note_off", "time": 460, "note": 60, "velocity": 112, "channel": 0}, {"type": "note_on", "time": 81, "note": 61, "velocity": 105, "channel": 0}, {"type": "note_off", "time": 599, "note": 61, "velocity": 105, "channel": 0}, {"type": "note_on", "time": 21, "note": 58, "velocity": 84, "channel": 0}, {"type": "note_off", "time": 151, "note": 58, "velocity": 84, "channel": 0}, {"type": "note_on", "time": 33, "note": 60, "velocity": 107, "channel": 0}, {"type": "note_off", "time": 582, "note": 60, "velocity": 107, "channel": 0}, {"type": "note_on", "time": 52, "note": 58, "velocity": 85, "channel": 0}, {"type": "note_off", "time": 110, "note": 58, "velocity": 85, "channel": 0}, {"type": "note_on", "time": 35, "note": 61, "velocity": 112, "channel": 0}, {"type": "note_off", "time": 335, "note": 61, "velocity": 112, "channel": 0}, {"type": "note_on", "time": 50, "note": 58, "velocity": 88, "channel": 0}, {"type": "note_off", "time": 517, "note": 58, "velocity": 88, "channel": 0}, {"type": "note_on", "time": 31, "note": 60, "velocity": 87, "channel": 0}, {"type": "note_off", "time": 210, "note": 60, "velocity": 87, "channel": 0}, {"type": "note_on", "time": 62, "note": 60, "velocity": 111, "channel": 0}, {"type": "note_off", "time": 479, "note": 60, "velocity": 111, "channel": 0}, {"type": "note_on", "time": 52, "note": 56, "velocity": 104, "channel": 0}, {"type": "note_off", "time": 187, "note": 56, "velocity": 104, "channel": 0}, {"type": "note_on", "time": 81, "note": 54, "velocity": 102, "channel": 0}, {"type": "note_off", "time": 479, "note": 54, "velocity": 102, "channel": 0}, {"type": "note_on", "time": 990, "note": 63, "velocity": 123, "channel": 0}, {"type": "note_off", "time": 115, "note": 63, "velocity": 123, "channel": 0}, {"type": "note_on", "time": 21, "note": 64, "velocity": 123, "channel": 0}, {"type": "note_off", "time": 527, "note": 64, "velocity": 123, "channel": 0}, {"type": "note_on", "time": 14, "note": 65, "velocity": 108, "channel": 0}, {"type": "note_off", "time": 364, "note": 65, "velocity": 108, "channel": 0}, {"type": "note_on", "time": 67, "note": 63, "velocity": 123, "channel": 0}, {"type": "note_off", "time": 244, "note": 63, "velocity": 123, "channel": 0}, {"type": "note_on", "time": 38, "note": 64, "velocity": 113, "channel": 0}, {"type": "note_off", "time": 273, "note": 64, "velocity": 113, "channel": 0}, {"type": "note_on", "time": 67, "note": 61, "velocity": 103, "channel": 0}, {"type": "note_off", "time": 191, "note": 61, "velocity": 103, "channel": 0}, {"type": "note_on", "time": 52, "note": 63, "velocity": 117, "channel": 0}, {"type": "note_off", "time": 522, "note": 63, "velocity": 117, "channel": 0}, {"type": "note_on", "time": 81, "note": 60, "velocity": 93, "channel": 0}, {"type": "note_off", "time": 187, "note": 60, "velocity": 93, "channel": 0}, {"type": "note_on", "time": 47, "note": 61, "velocity": 110, "channel": 0}, {"type": "note_off", "time": 469, "note": 61, "velocity": 110, "channel": 0}, {"type": "note_on", "time": 95, "note": 56, "velocity": 105, "channel": 0}, {"type": "note_off", "time": 201, "note": 56, "velocity": 105, "channel": 0}, {"type": "note_on", "time": 38, "note": 52, "velocity": 86, "channel": 0}, {"type": "note_off", "time": 276, "note": 52, "velocity": 86, "channel": 0}, {"type": "note_on", "time": 566, "note": 64, "velocity": 121, "channel": 0}, {"type": "note_off", "time": 215, "note": 64, "velocity": 121, "channel": 0}, {"type": "note_on", "time": 28, "note": 65, "velocity": 106, "channel": 0}, {"type": "note_off", "time": 326, "note": 65, "velocity": 106, "channel": 0}, {"type": "note_on", "time": 28, "note": 61, "velocity": 93, "channel": 0}, {"type": "note_off", "time": 676, "note": 61, "velocity": 93, "channel": 0}, {"type": "note_on", "time": 1783, "note": 56, "velocity": 101, "channel": 0}, {"type": "note_off", "time": 306, "note": 56, "velocity": 101, "channel": 0}, {"type": "note_on", "time": 23, "note": 59, "velocity": 91, "channel": 0}, {"type": "note_off", "time": 479, "note": 59, "velocity": 91, "channel": 0}, {"type": "note_on", "time": 52, "note": 61, "velocity": 9, "channel": 0}, {"type": "note_off", "time": 287, "note": 61, "velocity": 9, "channel": 0}, {"type": "note_on", "time": 23, "note": 62, "velocity": 121, "channel": 0}, {"type": "note_off", "time": 484, "note": 62, "velocity": 121, "channel": 0}, {"type": "note_on", "time": 23, "note": 63, "velocity": 122, "channel": 0}, {"type": "note_off", "time": 273, "note": 63, "velocity": 122, "channel": 0}, {"type": "note_on", "time": 95, "note": 61, "velocity": 118, "channel": 0}, {"type": "note_off", "time": 100, "note": 61, "velocity": 118, "channel": 0}, {"type": "note_on", "time": 9, "note": 63, "velocity": 118, "channel": 0}, {"type": "note_off", "time": 167, "note": 63, "velocity": 118, "channel": 0}, {"type": "note_on", "time": 19, "note": 61, "velocity": 94, "channel": 0}, {"type": "note_off", "time": 124, "note": 61, "velocity": 94, "channel": 0}, {"type": "note_on", "time": 484, "note": 62, "velocity": 120, "channel": 0}, {"type": "note_off", "time": 479, "note": 62, "velocity": 120, "channel": 0}, {"type": "note_on", "time": 57, "note": 62, "velocity": 121, "channel": 0}, {"type": "note_off", "time": 234, "note": 62, "velocity": 121, "channel": 0}, {"type": "note_on", "time": 28, "note": 63, "velocity": 124, "channel": 0}, {"type": "note_off", "time": 282, "note": 63, "velocity": 124, "channel": 0}, {"type": "note_on", "time": 302, "note": 56, "velocity": 102, "channel": 0}, {"type": "note_off", "time": 397, "note": 56, "velocity": 102, "channel": 0}, {"type": "note_on", "time": 762, "note": 56, "velocity": 103, "channel": 0}, {"type": "note_off", "time": 431, "note": 56, "velocity": 103, "channel": 0}, {"type": "note_on", "time": 86, "note": 58, "velocity": 83, "channel": 0}, {"type": "note_off", "time": 647, "note": 58, "velocity": 83, "channel": 0}, {"type": "note_on", "time": 1279, "note": 54, "velocity": 108, "channel": 0}, {"type": "note_off", "time": 206, "note": 54, "velocity": 108, "channel": 0}, {"type": "note_on", "time": 33, "note": 56, "velocity": 108, "channel": 0}, {"type": "note_off", "time": 225, "note": 56, "velocity": 108, "channel": 0}, {"type": "note_on", "time": 81, "note": 60, "velocity": 118, "channel": 0}, {"type": "note_off", "time": 254, "note": 60, "velocity": 118, "channel": 0}, {"type": "note_on", "time": 81, "note": 63, "velocity": 117, "channel": 0}, {"type": "note_off", "time": 297, "note": 63, "velocity": 117, "channel": 0}, {"type": "note_on", "time": 124, "note": 66, "velocity": 114, "channel": 0}, {"type": "note_off", "time": 148, "note": 66, "velocity": 114, "channel": 0}, {"type": "note_on", "time": 14, "note": 67, "velocity": 117, "channel": 0}, {"type": "note_off", "time": 172, "note": 67, "velocity": 117, "channel": 0}, {"type": "note_on", "time": 206, "note": 66, "velocity": 118, "channel": 0}, {"type": "note_off", "time": 124, "note": 66, "velocity": 118, "channel": 0}, {"type": "note_on", "time": 4, "note": 67, "velocity": 111, "channel": 0}, {"type": "note_off", "time": 182, "note": 67, "velocity": 111, "channel": 0}, {"type": "note_on", "time": 158, "note": 66, "velocity": 118, "channel": 0}, {"type": "note_off", "time": 167, "note": 66, "velocity": 118, "channel": 0}, {"type": "note_on", "time": 4, "note": 67, "velocity": 108, "channel": 0}, {"type": "note_off", "time": 206, "note": 67, "velocity": 108, "channel": 0}, {"type": "note_on", "time": 91, "note": 65, "velocity": 112, "channel": 0}, {"type": "note_off", "time": 258, "note": 65, "velocity": 112, "channel": 0}, {"type": "note_on", "time": 105, "note": 72, "velocity": 112, "channel": 0}, {"type": "note_off", "time": 167, "note": 72, "velocity": 112, "channel": 0}, {"type": "note_on", "time": 172, "note": 67, "velocity": 114, "channel": 0}, {"type": "note_off", "time": 215, "note": 67, "velocity": 114, "channel": 0}, {"type": "note_on", "time": 76, "note": 65, "velocity": 103, "channel": 0}, {"type": "note_off", "time": 191, "note": 65, "velocity": 103, "channel": 0}, {"type": "note_on", "time": 76, "note": 67, "velocity": 112, "channel": 0}, {"type": "note_off", "time": 522, "note": 67, "velocity": 112, "channel": 0}, {"type": "note_on", "time": 1241, "note": 61, "velocity": 118, "channel": 0}, {"type": "note_off", "time": 163, "note": 61, "velocity": 118, "channel": 0}, {"type": "note_on", "time": 23, "note": 62, "velocity": 110, "channel": 0}, {"type": "note_off", "time": 455, "note": 62, "velocity": 110, "channel": 0}, {"type": "note_on", "time": 254, "note": 68, "velocity": 122, "channel": 0}, {"type": "note_off", "time": 445, "note": 68, "velocity": 122, "channel": 0}, {"type": "note_on", "time": 86, "note": 68, "velocity": 111, "channel": 0}, {"type": "note_off", "time": 503, "note": 68, "velocity": 111, "channel": 0}, {"type": "note_on", "time": 1301, "note": 55, "velocity": 121, "channel": 0}, {"type": "note_off", "time": 76, "note": 55, "velocity": 121, "channel": 0}, {"type": "note_on", "time": 21, "note": 57, "velocity": 119, "channel": 0}, {"type": "note_off", "time": 115, "note": 57, "velocity": 119, "channel": 0}, {"type": "note_on", "time": 47, "note": 62, "velocity": 120, "channel": 0}, {"type": "note_off", "time": 201, "note": 62, "velocity": 120, "channel": 0}, {"type": "note_on", "time": 43, "note": 65, "velocity": 108, "channel": 0}, {"type": "note_off", "time": 91, "note": 65, "velocity": 108, "channel": 0}, {"type": "note_on", "time": 62, "note": 67, "velocity": 94, "channel": 0}, {"type": "note_off", "time": 100, "note": 67, "velocity": 94, "channel": 0}, {"type": "note_on", "time": 33, "note": 68, "velocity": 101, "channel": 0}, {"type": "note_off", "time": 124, "note": 68, "velocity": 101, "channel": 0}, {"type": "note_on", "time": 55, "note": 68, "velocity": 119, "channel": 0}, {"type": "note_off", "time": 522, "note": 68, "velocity": 119, "channel": 0}, {"type": "note_on", "time": 83, "note": 68, "velocity": 112, "channel": 0}, {"type": "note_off", "time": 599, "note": 68, "velocity": 112, "channel": 0}, {"type": "note_on", "time": 1313, "note": 64, "velocity": 124, "channel": 0}, {"type": "note_off", "time": 124, "note": 64, "velocity": 124, "channel": 0}, {"type": "note_on", "time": 19, "note": 65, "velocity": 118, "channel": 0}, {"type": "note_off", "time": 350, "note": 65, "velocity": 118, "channel": 0}, {"type": "note_on", "time": 52, "note": 68, "velocity": 117, "channel": 0}, {"type": "note_off", "time": 215, "note": 68, "velocity": 117, "channel": 0}, {"type": "note_on", "time": 86, "note": 70, "velocity": 112, "channel": 0}, {"type": "note_off", "time": 172, "note": 70, "velocity": 112, "channel": 0}, {"type": "note_on", "time": 14, "note": 71, "velocity": 108, "channel": 0}, {"type": "note_off", "time": 330, "note": 71, "velocity": 108, "channel": 0}, {"type": "note_on", "time": 129, "note": 72, "velocity": 110, "channel": 0}, {"type": "note_off", "time": 143, "note": 72, "velocity": 110, "channel": 0}, {"type": "note_on", "time": 40, "note": 72, "velocity": 104, "channel": 0}, {"type": "note_off", "time": 433, "note": 72, "velocity": 104, "channel": 0}, {"type": "note_on", "time": 59, "note": 71, "velocity": 106, "channel": 0}, {"type": "note_off", "time": 254, "note": 71, "velocity": 106, "channel": 0}, {"type": "note_on", "time": 93, "note": 68, "velocity": 124, "channel": 0}, {"type": "note_off", "time": 503, "note": 68, "velocity": 124, "channel": 0}, {"type": "note_on", "time": 57, "note": 63, "velocity": 117, "channel": 0}, {"type": "note_off", "time": 239, "note": 63, "velocity": 117, "channel": 0}, {"type": "note_on", "time": 14, "note": 68, "velocity": 104, "channel": 0}, {"type": "note_off", "time": 613, "note": 68, "velocity": 104, "channel": 0}, {"type": "note_on", "time": 834, "note": 65, "velocity": 123, "channel": 0}, {"type": "note_off", "time": 244, "note": 65, "velocity": 123, "channel": 0}, {"type": "note_on", "time": 95, "note": 63, "velocity": 119, "channel": 0}, {"type": "note_off", "time": 124, "note": 63, "velocity": 119, "channel": 0}, {"type": "note_on", "time": 62, "note": 68, "velocity": 119, "channel": 0}, {"type": "note_off", "time": 206, "note": 68, "velocity": 119, "channel": 0}, {"type": "note_on", "time": 326, "note": 61, "velocity": 115, "channel": 0}, {"type": "note_off", "time": 239, "note": 61, "velocity": 115, "channel": 0}, {"type": "note_on", "time": 67, "note": 68, "velocity": 119, "channel": 0}, {"type": "note_off", "time": 158, "note": 68, "velocity": 119, "channel": 0}, {"type": "note_on", "time": 378, "note": 60, "velocity": 121, "channel": 0}, {"type": "note_off", "time": 364, "note": 60, "velocity": 121, "channel": 0}, {"type": "note_on", "time": 278, "note": 59, "velocity": 113, "channel": 0}, {"type": "note_off", "time": 311, "note": 59, "velocity": 113, "channel": 0}, {"type": "note_on", "time": 28, "note": 58, "velocity": 105, "channel": 0}, {"type": "note_off", "time": 350, "note": 58, "velocity": 105, "channel": 0}, {"type": "note_on", "time": 59, "note": 53, "velocity": 99, "channel": 0}, {"type": "note_off", "time": 236, "note": 53, "velocity": 99, "channel": 0}, {"type": "note_on", "time": 63, "note": 56, "velocity": 108, "channel": 0}, {"type": "note_off", "time": 485, "note": 56, "velocity": 108, "channel": 0}, {"type": "end_of_track", "time": 0}]]}