{"ticks_per_beat": 192, "tracks": [[{"type": "track_name", "name": "Melody", "time": 0}, {"type": "set_tempo", "tempo": 425531, "time": 0}, {"type": "key_signature", "key": "G", "time": 0}, {"type": "time_signature", "numerator": 4, "denominator": 4, "clocks_per_click": 24, "notated_32nd_notes_per_beat": 8, "time": 0}, {"type": "note_on", "time": 4201, "note": 59, "velocity": 97, "channel": 0}, {"type": "note_off", "time": 45, "note": 59, "velocity": 97, "channel": 0}, {"type": "note_on", "time": 9, "note": 60, "velocity": 104, "channel": 0}, {"type": "note_off", "time": 152, "note": 60, "velocity": 104, "channel": 0}, {"type": "note_on", "time": 1, "note": 59, "velocity": 102, "channel": 0}, {"type": "note_off", "time": 40, "note": 59, "velocity": 102, "channel": 0}, {"type": "note_on", "time": 2, "note": 60, "velocity": 108, "channel": 0}, {"type": "note_off", "time": 142, "note": 60, "velocity": 108, "channel": 0}, {"type": "note_on", "time": 9, "note": 59, "velocity": 97, "channel": 0}, {"type": "note_off", "time": 167, "note": 59, "velocity": 97, "channel": 0}, {"type": "note_on", "time": 87, "note": 60, "velocity": 108, "channel": 0}, {"type": "note_off", "time": 118, "note": 60, "velocity": 108, "channel": 0}, {"type": "note_on", "time": 7, "note": 59, "velocity": 98, "channel": 0}, {"type": "note_off", "time": 34, "note": 59, "velocity": 98, "channel": 0}, {"type": "note_on", "time": 6, "note": 60, "velocity": 102, "channel": 0}, {"type": "note_off", "time": 145, "note": 60, "velocity": 102, "channel": 0}, {"type": "note_on", "time": 24, "note": 59, "velocity": 95, "channel": 0}, {"type": "note_off", "time": 128, "note": 59, "velocity": 95, "channel": 0}, {"type": "note_on", "time": 491, "note": 59, "velocity": 105, "channel": 0}, {"type": "note_off", "time": 183, "note": 59, "velocity": 105, "channel": 0}, {"type": "note_on", "time": 7, "note": 60, "velocity": 105, "channel": 0}, {"type": "note_off", "time": 143, "note": 60, "velocity": 105, "channel": 0}, {"type": "note_on", "time": 11, "note": 59, "velocity": 101, "channel": 0}, {"type": "note_off", "time": 161, "note": 59, "velocity": 101, "channel": 0}, {"type": "note_on", "time": 18, "note": 61, "velocity": 111, "channel": 0}, {"type": "note_off", "time": 155, "note": 61, "velocity": 111, "channel": 0}, {"type": "note_on", "time": 22, "note": 64, "velocity": 109, "channel": 0}, {"type": "note_off", "time": 178, "note": 64, "velocity": 109, "channel": 0}, {"type": "note_on", "time": 16, "note": 62, "velocity": 109, "channel": 0}, {"type": "note_off", "time": 147, "note": 62, "velocity": 109, "channel": 0}, {"type": "note_on", "time": 58, "note": 59, "velocity": 101, "channel": 0}, {"type": "note_off", "time": 65, "note": 59, "velocity": 101, "channel": 0}, {"type": "note_on", "time": 143, "note": 57, "velocity": 105, "channel": 0}, {"type": "note_off", "time": 60, "note": 57, "velocity": 105, "channel": 0}, {"type": "note_on", "time": 14, "note": 52, "velocity": 101, "channel": 0}, {"type": "note_off", "time": 157, "note": 52, "velocity": 101, "channel": 0}, {"type": "note_on", "time": 345, "note": 57, "velocity": 103, "channel": 0}, {"type": "note_off", "time": 75, "note": 57, "velocity": 103, "channel": 0}, {"type": "note_on", "time": 0, "note": 59, "velocity": 98, "channel": 0}, {"type": "note_off", "time": 112, "note": 59, "velocity": 98, "channel": 0}, {"type": "note_on", "time": 17, "note": 62, "velocity": 109, "channel": 0}, {"type": "note_off", "time": 102, "note": 62, "velocity": 109, "channel": 0}, {"type": "note_on", "time": 107, "note": 53, "velocity": 89, "channel": 0}, {"type": "note_off", "time": 138, "note": 53, "velocity": 89, "channel": 0}, {"type": "note_on", "time": 231, "note": 57, "velocity": 102, "channel": 0}, {"type": "note_off", "time": 75, "note": 57, "velocity": 102, "channel": 0}, {"type": "note_on", "time": 8, "note": 59, "velocity": 105, "channel": 0}, {"type": "note_off", "time": 91, "note": 59, "velocity": 105, "channel": 0}, {"type": "note_on", "time": 10, "note": 62, "velocity": 111, "channel": 0}, {"type": "note_off", "time": 92, "note": 62, "velocity": 111, "channel": 0}, {"type": "note_on", "time": 124, "note": 52, "velocity": 104, "channel": 0}, {"type": "note_off", "time": 42, "note": 52, "velocity": 104, "channel": 0}, {"type": "note_on", "time": 14, "note": 55, "velocity": 109, "channel": 0}, {"type": "note_off", "time": 119, "note": 55, "velocity": 109, "channel": 0}, {"type": "note_on", "time": 70, "note": 54, "velocity": 95, "channel": 0}, {"type": "note_off", "time": 168, "note": 54, "velocity": 95, "channel": 0}, {"type": "note_on", "time": 515, "note": 55, "velocity": 118, "channel": 0}, {"type": "note_off", "time": 75, "note": 55, "velocity": 118, "channel": 0}, {"type": "note_on", "time": 5, "note": 56, "velocity": 112, "channel": 0}, {"type": "note_off", "time": 127, "note": 56, "velocity": 112, "channel": 0}, {"type": "note_on", "time": 12, "note": 59, "velocity": 103, "channel": 0}, {"type": "note_off", "time": 39, "note": 59, "velocity": 103, "channel": 0}, {"type": "note_on", "time": 11, "note": 65, "velocity": 113, "channel": 0}, {"type": "note_off", "time": 118, "note": 65, "velocity": 113, "channel": 0}, {"type": "note_on", "time": 10, "note": 63, "velocity": 106, "channel": 0}, {"type": "note_off", "time": 43, "note": 63, "velocity": 106, "channel": 0}, {"type": "note_on", "time": 12, "note": 64, "velocity": 118, "channel": 0}, {"type": "note_off", "time": 126, "note": 64, "velocity": 118, "channel": 0}, {"type": "note_on", "time": 16, "note": 60, "velocity": 111, "channel": 0}, {"type": "note_off", "time": 65, "note": 60, "velocity": 111, "channel": 0}, {"type": "note_on", "time": 11, "note": 59, "velocity": 100, "channel": 0}, {"type": "note_off", "time": 20, "note": 59, "velocity": 100, "channel": 0}, {"type": "note_on", "time": 4, "note": 60, "velocity": 99, "channel": 0}, {"type": "note_off", "time": 41, "note": 60, "velocity": 99, "channel": 0}, {"type": "note_on", "time": 9, "note": 59, "velocity": 97, "channel": 0}, {"type": "note_off", "time": 44, "note": 59, "velocity": 97, "channel": 0}, {"type": "note_on", "time": 9, "note": 57, "velocity": 99, "channel": 0}, {"type": "note_off", "time": 51, "note": 57, "velocity": 99, "channel": 0}, {"type": "note_on", "time": 14, "note": 59, "velocity": 92, "channel": 0}, {"type": "note_off", "time": 116, "note": 59, "velocity": 92, "channel": 0}, {"type": "note_on", "time": 20, "note": 52, "velocity": 90, "channel": 0}, {"type": "note_off", "time": 227, "note": 52, "velocity": 90, "channel": 0}, {"type": "note_on", "time": 27, "note": 54, "velocity": 103, "channel": 0}, {"type": "note_off", "time": 119, "note": 54, "velocity": 103, "channel": 0}, {"type": "note_on", "time": 59, "note": 59, "velocity": 94, "channel": 0}, {"type": "note_off", "time": 133, "note": 59, "velocity": 94, "channel": 0}, {"type": "note_on", "time": 14, "note": 57, "velocity": 90, "channel": 0}, {"type": "note_off", "time": 211, "note": 57, "velocity": 90, "channel": 0}, {"type": "note_on", "time": 357, "note": 55, "velocity": 105, "channel": 0}, {"type": "note_off", "time": 73, "note": 55, "velocity": 105, "channel": 0}, {"type": "note_on", "time": 6, "note": 56, "velocity": 114, "channel": 0}, {"type": "note_off", "time": 123, "note": 56, "velocity": 114, "channel": 0}, {"type": "note_on", "time": 7, "note": 59, "velocity": 105, "channel": 0}, {"type": "note_off", "time": 47, "note": 59, "velocity": 105, "channel": 0}, {"type": "note_on", "time": 10, "note": 62, "velocity": 115, "channel": 0}, {"type": "note_off", "time": 143, "note": 62, "velocity": 115, "channel": 0}, {"type": "note_on", "time": 57, "note": 65, "velocity": 109, "channel": 0}, {"type": "note_off", "time": 106, "note": 65, "velocity": 109, "channel": 0}, {"type": "note_on", "time": 9, "note": 63, "velocity": 103, "channel": 0}, {"type": "note_off", "time": 39, "note": 63, "velocity": 103, "channel": 0}, {"type": "note_on", "time": 6, "note": 64, "velocity": 105, "channel": 0}, {"type": "note_off", "time": 181, "note": 64, "velocity": 105, "channel": 0}, {"type": "note_on", "time": 379, "note": 62, "velocity": 113, "channel": 0}, {"type": "note_off", "time": 58, "note": 62, "velocity": 113, "channel": 0}, {"type": "note_on", "time": 12, "note": 63, "velocity": 114, "channel": 0}, {"type": "note_off", "time": 95, "note": 63, "velocity": 114, "channel": 0}, {"type": "note_on", "time": 17, "note": 61, "velocity": 104, "channel": 0}, {"type": "note_off", "time": 43, "note": 61, "velocity": 104, "channel": 0}, {"type": "note_on", "time": 6, "note": 62, "velocity": 95, "channel": 0}, {"type": "note_off", "time": 195, "note": 62, "velocity": 95, "channel": 0}, {"type": "note_on", "time": 21, "note": 61, "velocity": 101, "channel": 0}, {"type": "note_off", "time": 123, "note": 61, "velocity": 101, "channel": 0}, {"type": "note_on", "time": 5, "note": 59, "velocity": 91, "channel": 0}, {"type": "note_off", "time": 52, "note": 59, "velocity": 91, "channel": 0}, {"type": "note_on", "time": 8, "note": 60, "velocity": 90, "channel": 0}, {"type": "note_off", "time": 169, "note": 60, "velocity": 90, "channel": 0}, {"type": "note_on", "time": 34, "note": 59, "velocity": 94, "channel": 0}, {"type": "note_off", "time": 122, "note": 59, "velocity": 94, "channel": 0}, {"type": "note_on", "time": 76, "note": 58, "velocity": 94, "channel": 0}, {"type": "note_off", "time": 114, "note": 58, "velocity": 94, "channel": 0}, {"type": "note_on", "time": 193, "note": 56, "velocity": 106, "channel": 0}, {"type": "note_off", "time": 52, "note": 56, "velocity": 106, "channel": 0}, {"type": "note_on", "time": 7, "note": 57, "velocity": 101, "channel": 0}, {"type": "note_off", "time": 115, "note": 57, "velocity": 101, "channel": 0}, {"type": "note_on", "time": 10, "note": 54, "velocity": 99, "channel": 0}, {"type": "note_off", "time": 69, "note": 54, "velocity": 99, "channel": 0}, {"type": "note_on", "time": 10, "note": 50, "velocity": 89, "channel": 0}, {"type": "note_off", "time": 120, "note": 50, "velocity": 89, "channel": 0}, {"type": "note_on", "time": 91, "note": 56, "velocity": 99, "channel": 0}, {"type": "note_off", "time": 37, "note": 56, "velocity": 99, "channel": 0}, {"type": "note_on", "time": 0, "note": 57, "velocity": 91, "channel": 0}, {"type": "note_off", "time": 244, "note": 57, "velocity": 91, "channel": 0}, {"type": "note_on", "time": 21, "note": 54, "velocity": 99, "channel": 0}, {"type": "note_off", "time": 30, "note": 54, "velocity": 99, "channel": 0}, {"type": "note_on", "time": 11, "note": 55, "velocity": 99, "channel": 0}, {"type": "note_off", "time": 68, "note": 55, "velocity": 99, "channel": 0}, {"type": "note_on", "time": 16, "note": 53, "velocity": 80, "channel": 0}, {"type": "note_off", "time": 53, "note": 53, "velocity": 80, "channel": 0}, {"type": "note_on", "time": 13, "note": 52, "velocity": 95, "channel": 0}, {"type": "note_off", "time": 51, "note": 52, "velocity": 95, "channel": 0}, {"type": "note_on", "time": 727, "note": 55, "velocity": 107, "channel": 0}, {"type": "note_off", "time": 52, "note": 55, "velocity": 107, "channel": 0}, {"type": "note_on", "time": 30, "note": 56, "velocity": 104, "channel": 0}, {"type": "note_off", "time": 111, "note": 56, "velocity": 104, "channel": 0}, {"type": "note_on", "time": 10, "note": 59, "velocity": 108, "channel": 0}, {"type": "note_off", "time": 57, "note": 59, "velocity": 108, "channel": 0}, {"type": "note_on", "time": 5, "note": 62, "velocity": 107, "channel": 0}, {"type": "note_off", "time": 114, "note": 62, "velocity": 107, "channel": 0}, {"type": "note_on", "time": 571, "note": 55, "velocity": 105, "channel": 0}, {"type": "note_off", "time": 63, "note": 55, "velocity": 105, "channel": 0}, {"type": "note_on", "time": 16, "note": 59, "velocity": 100, "channel": 0}, {"type": "note_off", "time": 94, "note": 59, "velocity": 100, "channel": 0}, {"type": "note_on", "time": 12, "note": 60, "velocity": 120, "channel": 0}, {"type": "note_off", "time": 81, "note": 60, "velocity": 120, "channel": 0}, {"type": "note_on", "time": 9, "note": 61, "velocity": 103, "channel": 0}, {"type": "note_off", "time": 143, "note": 61, "velocity": 103, "channel": 0}, {"type": "note_on", "time": 38, "note": 64, "velocity": 114, "channel": 0}, {"type": "note_off", "time": 133, "note": 64, "velocity": 114, "channel": 0}, {"type": "note_on", "time": 5, "note": 61, "velocity": 97, "channel": 0}, {"type": "note_off", "time": 41, "note": 61, "velocity": 97, "channel": 0}, {"type": "note_on", "time": 5, "note": 62, "velocity": 99, "channel": 0}, {"type": "note_off", "time": 128, "note": 62, "velocity": 99, "channel": 0}, {"type": "note_on", "time": 11, "note": 64, "velocity": 106, "channel": 0}, {"type": "note_off", "time": 62, "note": 64, "velocity": 106, "channel": 0}, {"type": "note_on", "time": 17, "note": 65, "velocity": 103, "channel": 0}, {"type": "note_off", "time": 110, "note": 65, "velocity": 103, "channel": 0}, {"type": "note_on", "time": 401, "note": 62, "velocity": 102, "channel": 0}, {"type": "note_off", "time": 64, "note": 62, "velocity": 102, "channel": 0}, {"type": "note_on", "time": 9, "note": 63, "velocity": 106, "channel": 0}, {"type": "note_off", "time": 109, "note": 63, "velocity": 106, "channel": 0}, {"type": "note_on", "time": 11, "note": 64, "velocity": 110, "channel": 0}, {"type": "note_off", "time": 96, "note": 64, "velocity": 110, "channel": 0}, {"type": "note_on", "time": 25, "note": 59, "velocity": 94, "channel": 0}, {"type": "note_off", "time": 63, "note": 59, "velocity": 94, "channel": 0}, {"type": "note_on", "time": 17, "note": 54, "velocity": 94, "channel": 0}, {"type": "note_off", "time": 87, "note": 54, "velocity": 94, "channel": 0}, {"type": "note_on", "time": 30, "note": 57, "velocity": 99, "channel": 0}, {"type": "note_off", "time": 86, "note": 57, "velocity": 99, "channel": 0}, {"type": "note_on", "time": 11, "note": 56, "velocity": 97, "channel": 0}, {"type": "note_off", "time": 99, "note": 56, "velocity": 97, "channel": 0}, {"type": "note_on", "time": 26, "note": 52, "velocity": 91, "channel": 0}, {"type": "note_off", "time": 64, "note": 52, "velocity": 91, "channel": 0}, {"type": "note_on", "time": 53, "note": 56, "velocity": 89, "channel": 0}, {"type": "note_off", "time": 59, "note": 56, "velocity": 89, "channel": 0}, {"type": "note_on", "time": 8, "note": 60, "velocity": 89, "channel": 0}, {"type": "note_off", "time": 79, "note": 60, "velocity": 89, "channel": 0}, {"type": "note_on", "time": 26, "note": 60, "velocity": 98, "channel": 0}, {"type": "note_off", "time": 89, "note": 60, "velocity": 98, "channel": 0}, {"type": "note_on", "time": 104, "note": 52, "velocity": 96, "channel": 0}, {"type": "note_off", "time": 113, "note": 52, "velocity": 96, "channel": 0}, {"type": "note_on", "time": 10, "note": 54, "velocity": 86, "channel": 0}, {"type": "note_off", "time": 155, "note": 54, "velocity": 86, "channel": 0}, {"type": "note_on", "time": 433, "note": 56, "velocity": 94, "channel": 0}, {"type": "note_off", "time": 116, "note": 56, "velocity": 94, "channel": 0}, {"type": "note_on", "time": 1, "note": 59, "velocity": 87, "channel": 0}, {"type": "note_off", "time": 485, "note": 59, "velocity": 87, "channel": 0}, {"type": "note_on", "time": 25, "note": 62, "velocity": 97, "channel": 0}, {"type": "note_off", "time": 106, "note": 62, "velocity": 97, "channel": 0}, {"type": "note_on", "time": 64, "note": 60, "velocity": 103, "channel": 0}, {"type": "note_off", "time": 126, "note": 60, "velocity": 103, "channel": 0}, {"type": "note_on", "time": 33, "note": 51, "velocity": 91, "channel": 0}, {"type": "note_off", "time": 229, "note": 51, "velocity": 91, "channel": 0}, {"type": "note_on", "time": 729, "note": 51, "velocity": 98, "channel": 0}, {"type": "note_off", "time": 26, "note": 51, "velocity": 98, "channel": 0}, {"type": "note_on", "time": 5, "note": 50, "velocity": 100, "channel": 0}, {"type": "note_off", "time": 30, "note": 50, "velocity": 100, "channel": 0}, {"type": "note_on", "time": 20, "note": 49, "velocity": 98, "channel": 0}, {"type": "note_off", "time": 111, "note": 49, "velocity": 98, "channel": 0}, {"type": "note_on", "time": 7, "note": 50, "velocity": 99, "channel": 0}, {"type": "note_off", "time": 60, "note": 50, "velocity": 99, "channel": 0}, {"type": "note_on", "time": 12, "note": 62, "velocity": 102, "channel": 0}, {"type": "note_off", "time": 99, "note": 62, "velocity": 102, "channel": 0}, {"type": "note_on", "time": 20, "note": 59, "velocity": 95, "channel": 0}, {"type": "note_off", "time": 58, "note": 59, "velocity": 95, "channel": 0}, {"type": "note_on", "time": 9, "note": 59, "velocity": 89, "channel": 0}, {"type": "note_off", "time": 166, "note": 59, "velocity": 89, "channel": 0}, {"type": "note_on", "time": 21, "note": 57, "velocity": 99, "channel": 0}, {"type": "note_off", "time": 98, "note": 57, "velocity": 99, "channel": 0}, {"type": "note_on", "time": 11, "note": 52, "velocity": 97, "channel": 0}, {"type": "note_off", "time": 61, "note": 52, "velocity": 97, "channel": 0}, {"type": "note_on", "time": 15, "note": 52, "velocity": 110, "channel": 0}, {"type": "note_off", "time": 71, "note": 52, "velocity": 110, "channel": 0}, {"type": "note_on", "time": 451, "note": 50, "velocity": 103, "channel": 0}, {"type": "note_off", "time": 52, "note": 50, "velocity": 103, "channel": 0}, {"type": "note_on", "time": 24, "note": 54, "velocity": 106, "channel": 0}, {"type": "note_off", "time": 110, "note": 54, "velocity": 106, "channel": 0}, {"type": "note_on", "time": 10, "note": 55, "velocity": 108, "channel": 0}, {"type": "note_off", "time": 46, "note": 55, "velocity": 108, "channel": 0}, {"type": "note_on", "time": 16, "note": 57, "velocity": 100, "channel": 0}, {"type": "note_off", "time": 116, "note": 57, "velocity": 100, "channel": 0}, {"type": "note_on", "time": 7, "note": 59, "velocity": 101, "channel": 0}, {"type": "note_off", "time": 47, "note": 59, "velocity": 101, "channel": 0}, {"type": "note_on", "time": 16, "note": 55, "velocity": 105, "channel": 0}, {"type": "note_off", "time": 126, "note": 55, "velocity": 105, "channel": 0}, {"type": "note_on", "time": 372, "note": 55, "velocity": 118, "channel": 0}, {"type": "note_off", "time": 75, "note": 55, "velocity": 118, "channel": 0}, {"type": "note_on", "time": 15, "note": 56, "velocity": 112, "channel": 0}, {"type": "note_off", "time": 110, "note": 56, "velocity": 112, "channel": 0}, {"type": "note_on", "time": 11, "note": 54, "velocity": 98, "channel": 0}, {"type": "note_off", "time": 39, "note": 54, "velocity": 98, "channel": 0}, {"type": "note_on", "time": 21, "note": 59, "velocity": 102, "channel": 0}, {"type": "note_off", "time": 113, "note": 59, "velocity": 102, "channel": 0}, {"type": "note_on", "time": 84, "note": 65, "velocity": 101, "channel": 0}, {"type": "note_off", "time": 118, "note": 65, "velocity": 101, "channel": 0}, {"type": "note_on", "time": 7, "note": 64, "velocity": 115, "channel": 0}, {"type": "note_off", "time": 116, "note": 64, "velocity": 115, "channel": 0}, {"type": "note_on", "time": 69, "note": 67, "velocity": 91, "channel": 0}, {"type": "note_off", "time": 270, "note": 67, "velocity": 91, "channel": 0}, {"type": "note_on", "time": 159, "note": 58, "velocity": 101, "channel": 0}, {"type": "note_off", "time": 146, "note": 58, "velocity": 101, "channel": 0}, {"type": "note_on", "time": 10, "note": 55, "velocity": 98, "channel": 0}, {"type": "note_off", "time": 45, "note": 55, "velocity": 98, "channel": 0}, {"type": "note_on", "time": 6, "note": 57, "velocity": 90, "channel": 0}, {"type": "note_off", "time": 172, "note": 57, "velocity": 90, "channel": 0}, {"type": "note_on", "time": 345, "note": 55, "velocity": 114, "channel": 0}, {"type": "note_off", "time": 54, "note": 55, "velocity": 114, "channel": 0}, {"type": "note_on", "time": 13, "note": 59, "velocity": 108, "channel": 0}, {"type": "note_off", "time": 107, "note": 59, "velocity": 108, "channel": 0}, {"type": "note_on", "time": 8, "note": 60, "velocity": 122, "channel": 0}, {"type": "note_off", "time": 73, "note": 60, "velocity": 122, "channel": 0}, {"type": "note_on", "time": 8, "note": 61, "velocity": 9, "channel": 0}, {"type": "note_off", "time": 97, "note": 61, "velocity": 9, "channel": 0}, {"type": "note_on", "time": 9, "note": 62, "velocity": 109, "channel": 0}, {"type": "note_off", "time": 59, "note": 62, "velocity": 109, "channel": 0}, {"type": "note_on", "time": 7, "note": 61, "velocity": 108, "channel": 0}, {"type": "note_off", "time": 132, "note": 61, "velocity": 108, "channel": 0}, {"type": "note_on", "time": 6, "note": 58, "velocity": 103, "channel": 0}, {"type": "note_off", "time": 53, "note": 58, "velocity": 103, "channel": 0}, {"type": "note_on", "time": 20, "note": 61, "velocity": 107, "channel": 0}, {"type": "note_off", "time": 74, "note": 61, "velocity": 107, "channel": 0}, {"type": "note_on", "time": 13, "note": 60, "velocity": 98, "channel": 0}, {"type": "note_off", "time": 67, "note": 60, "velocity": 98, "channel": 0}, {"type": "note_on", "time": 19, "note": 55, "velocity": 109, "channel": 0}, {"type": "note_off", "time": 139, "note": 55, "velocity": 109, "channel": 0}, {"type": "note_on", "time": 63, "note": 55, "velocity": 96, "channel": 0}, {"type": "note_off", "time": 146, "note": 55, "velocity": 96, "channel": 0}, {"type": "note_on", "time": 732, "note": 54, "velocity": 101, "channel": 0}, {"type": "note_off", "time": 279, "note": 54, "velocity": 101, "channel": 0}, {"type": "note_on", "time": 22, "note": 59, "velocity": 103, "channel": 0}, {"type": "note_off", "time": 75, "note": 59, "velocity": 103, "channel": 0}, {"type": "note_on", "time": 25, "note": 62, "velocity": 116, "channel": 0}, {"type": "note_off", "time": 70, "note": 62, "velocity": 116, "channel": 0}, {"type": "note_on", "time": 104, "note": 62, "velocity": 103, "channel": 0}, {"type": "note_off", "time": 83, "note": 62, "velocity": 103, "channel": 0}, {"type": "note_on", "time": 41, "note": 59, "velocity": 86, "channel": 0}, {"type": "note_off", "time": 43, "note": 59, "velocity": 86, "channel": 0}, {"type": "note_on", "time": 22, "note": 62, "velocity": 115, "channel": 0}, {"type": "note_off", "time": 56, "note": 62, "velocity": 115, "channel": 0}, {"type": "note_on", "time": 43, "note": 59, "velocity": 81, "channel": 0}, {"type": "note_off", "time": 64, "note": 59, "velocity": 81, "channel": 0}, {"type": "note_on", "time": 16, "note": 62, "velocity": 106, "channel": 0}, {"type": "note_off", "time": 75, "note": 62, "velocity": 106, "channel": 0}, {"type": "note_on", "time": 14, "note": 59, "velocity": 88, "channel": 0}, {"type": "note_off", "time": 90, "note": 59, "velocity": 88, "channel": 0}, {"type": "note_on", "time": 14, "note": 62, "velocity": 105, "channel": 0}, {"type": "note_off", "time": 66, "note": 62, "velocity": 105, "channel": 0}, {"type": "note_on", "time": 11, "note": 59, "velocity": 87, "channel": 0}, {"type": "note_off", "time": 165, "note": 59, "velocity": 87, "channel": 0}, {"type": "note_on", "time": 9, "note": 62, "velocity": 95, "channel": 0}, {"type": "note_off", "time": 157, "note": 62, "velocity": 95, "channel": 0}, {"type": "note_on", "time": 473, "note": 58, "velocity": 100, "channel": 0}, {"type": "note_off", "time": 26, "note": 58, "velocity": 100, "channel": 0}, {"type": "note_on", "time": 1, "note": 60, "velocity": 97, "channel": 0}, {"type": "note_off", "time": 38, "note": 60, "velocity": 97, "channel": 0}, {"type": "note_on", "time": 3, "note": 59, "velocity": 95, "channel": 0}, {"type": "note_off", "time": 31, "note": 59, "velocity": 95, "channel": 0}, {"type": "note_on", "time": 11, "note": 57, "velocity": 92, "channel": 0}, {"type": "note_off", "time": 33, "note": 57, "velocity": 92, "channel": 0}, {"type": "note_on", "time": 21, "note": 64, "velocity": 112, "channel": 0}, {"type": "note_off", "time": 100, "note": 64, "velocity": 112, "channel": 0}, {"type": "note_on", "time": 10, "note": 60, "velocity": 93, "channel": 0}, {"type": "note_off", "time": 44, "note": 60, "velocity": 93, "channel": 0}, {"type": "note_on", "time": 6, "note": 59, "velocity": 93, "channel": 0}, {"type": "note_off", "time": 30, "note": 59, "velocity": 93, "channel": 0}, {"type": "note_on", "time": 6, "note": 57, "velocity": 96, "channel": 0}, {"type": "note_off", "time": 21, "note": 57, "velocity": 96, "channel": 0}, {"type": "note_on", "time": 38, "note": 63, "velocity": 102, "channel": 0}, {"type": "note_off", "time": 74, "note": 63, "velocity": 102, "channel": 0}, {"type": "note_on", "time": 53, "note": 60, "velocity": 97, "channel": 0}, {"type": "note_off", "time": 36, "note": 60, "velocity": 97, "channel": 0}, {"type": "note_on", "time": 3, "note": 59, "velocity": 94, "channel": 0}, {"type": "note_off", "time": 36, "note": 59, "velocity": 94, "channel": 0}, {"type": "note_on", "time": 8, "note": 57, "velocity": 95, "channel": 0}, {"type": "note_off", "time": 39, "note": 57, "velocity": 95, "channel": 0}, {"type": "note_on", "time": 3, "note": 62, "velocity": 99, "channel": 0}, {"type": "note_off", "time": 56, "note": 62, "velocity": 99, "channel": 0}, {"type": "note_on", "time": 12, "note": 59, "velocity": 89, "channel": 0}, {"type": "note_off", "time": 188, "note": 59, "velocity": 89, "channel": 0}, {"type": "note_on", "time": 483, "note": 58, "velocity": 96, "channel": 0}, {"type": "note_off", "time": 103, "note": 58, "velocity": 96, "channel": 0}, {"type": "note_on", "time": 7, "note": 59, "velocity": 100, "channel": 0}, {"type": "note_off", "time": 54, "note": 59, "velocity": 100, "channel": 0}, {"type": "note_on", "time": 19, "note": 62, "velocity": 112, "channel": 0}, {"type": "note_off", "time": 143, "note": 62, "velocity": 112, "channel": 0}, {"type": "note_on", "time": 39, "note": 65, "velocity": 107, "channel": 0}, {"type": "note_off", "time": 64, "note": 65, "velocity": 107, "channel": 0}, {"type": "note_on", "time": 12, "note": 66, "velocity": 107, "channel": 0}, {"type": "note_off", "time": 117, "note": 66, "velocity": 107, "channel": 0}, {"type": "note_on", "time": 12, "note": 62, "velocity": 98, "channel": 0}, {"type": "note_off", "time": 40, "note": 62, "velocity": 98, "channel": 0}, {"type": "note_on", "time": 29, "note": 64, "velocity": 112, "channel": 0}, {"type": "note_off", "time": 84, "note": 64, "velocity": 112, "channel": 0}, {"type": "note_on", "time": 11, "note": 65, "velocity": 98, "channel": 0}, {"type": "note_off", "time": 81, "note": 65, "velocity": 98, "channel": 0}, {"type": "note_on", "time": 3, "note": 62, "velocity": 104, "channel": 0}, {"type": "note_off", "time": 130, "note": 62, "velocity": 104, "channel": 0}, {"type": "note_on", "time": 9, "note": 62, "velocity": 104, "channel": 0}, {"type": "note_off", "time": 116, "note": 62, "velocity": 104, "channel": 0}, {"type": "note_on", "time": 71, "note": 64, "velocity": 108, "channel": 0}, {"type": "note_off", "time": 97, "note": 64, "velocity": 108, "channel": 0}, {"type": "note_on", "time": 4, "note": 65, "velocity": 96, "channel": 0}, {"type": "note_off", "time": 68, "note": 65, "velocity": 96, "channel": 0}, {"type": "note_on", "time": 9, "note": 62, "velocity": 98, "channel": 0}, {"type": "note_off", "time": 67, "note": 62, "velocity": 98, "channel": 0}, {"type": "note_on", "time": 20, "note": 64, "velocity": 107, "channel": 0}, {"type": "note_off", "time": 97, "note": 64, "velocity": 107, "channel": 0}, {"type": "note_on", "time": 19, "note": 60, "velocity": 100, "channel": 0}, {"type": "note_off", "time": 42, "note": 60, "velocity": 100, "channel": 0}, {"type": "note_on", "time": 10, "note": 55, "velocity": 96, "channel": 0}, {"type": "note_off", "time": 140, "note": 55, "velocity": 96, "channel": 0}, {"type": "note_on", "time": 19, "note": 50, "velocity": 84, "channel": 0}, {"type": "note_off", "time": 46, "note": 50, "velocity": 84, "channel": 0}, {"type": "note_on", "time": 13, "note": 54, "velocity": 92, "channel": 0}, {"type": "note_off", "time": 145, "note": 54, "velocity": 92, "channel": 0}, {"type": "note_on", "time": 422, "note": 69, "velocity": 103, "channel": 0}, {"type": "note_off", "time": 128, "note": 69, "velocity": 103, "channel": 0}, {"type": "note_on", "time": 5, "note": 67, "velocity": 91, "channel": 0}, {"type": "note_off", "time": 59, "note": 67, "velocity": 91, "channel": 0}, {"type": "note_on", "time": 5, "note": 68, "velocity": 86, "channel": 0}, {"type": "note_off", "time": 227, "note": 68, "velocity": 86, "channel": 0}, {"type": "note_on", "time": 628, "note": 63, "velocity": 91, "channel": 0}, {"type": "note_off", "time": 31, "note": 63, "velocity": 91, "channel": 0}, {"type": "note_on", "time": 4, "note": 64, "velocity": 112, "channel": 0}, {"type": "note_off", "time": 36, "note": 64, "velocity": 112, "channel": 0}, {"type": "note_on", "time": 6, "note": 65, "velocity": 108, "channel": 0}, {"type": "note_off", "time": 43, "note": 65, "velocity": 108, "channel": 0}, {"type": "note_on", "time": 4, "note": 69, "velocity": 94, "channel": 0}, {"type": "note_off", "time": 62, "note": 69, "velocity": 94, "channel": 0}, {"type": "note_on", "time": 105, "note": 69, "velocity": 89, "channel": 0}, {"type": "note_off", "time": 161, "note": 69, "velocity": 89, "channel": 0}, {"type": "note_on", "time": 19, "note": 65, "velocity": 97, "channel": 0}, {"type": "note_off", "time": 60, "note": 65, "velocity": 97, "channel": 0}, {"type": "note_on", "time": 16, "note": 57, "velocity": 88, "channel": 0}, {"type": "note_off", "time": 91, "note": 57, "velocity": 88, "channel": 0}, {"type": "note_on", "time": 13, "note": 57, "velocity": 82, "channel": 0}, {"type": "note_off", "time": 195, "note": 57, "velocity": 82, "channel": 0}, {"type": "note_on", "time": 200, "note": 58, "velocity": 89, "channel": 0}, {"type": "note_off", "time": 58, "note": 58, "velocity": 89, "channel": 0}, {"type": "note_on", "time": 5, "note": 60, "velocity": 89, "channel": 0}, {"type": "note_off", "time": 69, "note": 60, "velocity": 89, "channel": 0}, {"type": "note_on", "time": 10, "note": 64, "velocity": 102, "channel": 0}, {"type": "note_off", "time": 55, "note": 64, "velocity": 102, "channel": 0}, {"type": "note_on", "time": 12, "note": 64, "velocity": 90, "channel": 0}, {"type": "note_off", "time": 160, "note": 64, "velocity": 90, "channel": 0}, {"type": "note_on", "time": 12, "note": 60, "velocity": 91, "channel": 0}, {"type": "note_off", "time": 43, "note": 60, "velocity": 91, "channel": 0}, {"type": "note_on", "time": 36, "note": 52, "velocity": 87, "channel": 0}, {"type": "note_off", "time": 82, "note": 52, "velocity": 87, "channel": 0}, {"type": "note_on", "time": 20, "note": 52, "velocity": 89, "channel": 0}, {"type": "note_off", "time": 191, "note": 52, "velocity": 89, "channel": 0}, {"type": "note_on", "time": 536, "note": 55, "velocity": 101, "channel": 0}, {"type": "note_off", "time": 73, "note": 55, "velocity": 101, "channel": 0}, {"type": "note_on", "time": 5, "note": 59, "velocity": 101, "channel": 0}, {"type": "note_off", "time": 96, "note": 59, "velocity": 101, "channel": 0}, {"type": "note_on", "time": 11, "note": 62, "velocity": 93, "channel": 0}, {"type": "note_off", "time": 186, "note": 62, "velocity": 93, "channel": 0}, {"type": "note_on", "time": 7, "note": 59, "velocity": 101, "channel": 0}, {"type": "note_off", "time": 29, "note": 59, "velocity": 101, "channel": 0}, {"type": "note_on", "time": 4, "note": 58, "velocity": 103, "channel": 0}, {"type": "note_off", "time": 23, "note": 58, "velocity": 103, "channel": 0}, {"type": "note_on", "time": 5, "note": 52, "velocity": 96, "channel": 0}, {"type": "note_off", "time": 137, "note": 52, "velocity": 96, "channel": 0}, {"type": "note_on", "time": 5, "note": 53, "velocity": 94, "channel": 0}, {"type": "note_off", "time": 40, "note": 53, "velocity": 94, "channel": 0}, {"type": "note_on", "time": 9, "note": 54, "velocity": 91, "channel": 0}, {"type": "note_off", "time": 181, "note": 54, "velocity": 91, "channel": 0}, {"type": "note_on", "time": 349, "note": 55, "velocity": 97, "channel": 0}, {"type": "note_off", "time": 149, "note": 55, "velocity": 97, "channel": 0}, {"type": "note_on", "time": 5, "note": 59, "velocity": 103, "channel": 0}, {"type": "note_off", "time": 84, "note": 59, "velocity": 103, "channel": 0}, {"type": "note_on", "time": 5, "note": 62, "velocity": 106, "channel": 0}, {"type": "note_off", "time": 120, "note": 62, "velocity": 106, "channel": 0}, {"type": "note_on", "time": 15, "note": 64, "velocity": 117, "channel": 0}, {"type": "note_off", "time": 75, "note": 64, "velocity": 117, "channel": 0}, {"type": "note_on", "time": 5, "note": 62, "velocity": 97, "channel": 0}, {"type": "note_off", "time": 30, "note": 62, "velocity": 97, "channel": 0}, {"type": "note_on", "time": 3, "note": 64, "velocity": 102, "channel": 0}, {"type": "note_off", "time": 26, "note": 64, "velocity": 102, "channel": 0}, {"type": "note_on", "time": 2, "note": 62, "velocity": 101, "channel": 0}, {"type": "note_off", "time": 42, "note": 62, "velocity": 101, "channel": 0}, {"type": "note_on", "time": 9, "note": 59, "velocity": 94, "channel": 0}, {"type": "note_off", "time": 40, "note": 59, "velocity": 94, "channel": 0}, {"type": "note_on", "time": 1, "note": 57, "velocity": 97, "channel": 0}, {"type": "note_off", "time": 149, "note": 57, "velocity": 97, "channel": 0}, {"type": "note_on", "time": 10, "note": 55, "velocity": 102, "channel": 0}, {"type": "note_off", "time": 30, "note": 55, "velocity": 102, "channel": 0}, {"type": "note_on", "time": 21, "note": 62, "velocity": 97, "channel": 0}, {"type": "note_off", "time": 115, "note": 62, "velocity": 97, "channel": 0}, {"type": "note_on", "time": 14, "note": 58, "velocity": 99, "channel": 0}, {"type": "note_off", "time": 47, "note": 58, "velocity": 99, "channel": 0}, {"type": "note_on", "time": 5, "note": 59, "velocity": 91, "channel": 0}, {"type": "note_off", "time": 106, "note": 59, "velocity": 91, "channel": 0}, {"type": "note_on", "time": 764, "note": 55, "velocity": 96, "channel": 0}, {"type": "note_off", "time": 125, "note": 55, "velocity": 96, "channel": 0}, {"type": "note_on", "time": 19, "note": 59, "velocity": 100, "channel": 0}, {"type": "note_on", "time": 58, "note": 62, "velocity": 113, "channel": 0}, {"type": "note_off", "time": 0, "note": 59, "velocity": 100, "channel": 0}, {"type": "note_off", "time": 144, "note": 62, "velocity": 113, "channel": 0}, {"type": "note_on", "time": 18, "note": 64, "velocity": 114, "channel": 0}, {"type": "note_off", "time": 60, "note": 64, "velocity": 114, "channel": 0}, {"type": "note_on", "time": 7, "note": 65, "velocity": 116, "channel": 0}, {"type": "note_off", "time": 97, "note": 65, "velocity": 116, "channel": 0}, {"type": "note_on", "time": 42, "note": 62, "velocity": 100, "channel": 0}, {"type": "note_off", "time": 116, "note": 62, "velocity": 100, "channel": 0}, {"type": "note_on", "time": 47, "note": 64, "velocity": 113, "channel": 0}, {"type": "note_off", "time": 49, "note": 64, "velocity": 113, "channel": 0}, {"type": "note_on", "time": 3, "note": 65, "velocity": 102, "channel": 0}, {"type": "note_off", "time": 70, "note": 65, "velocity": 102, "channel": 0}, {"type": "note_on", "time": 12, "note": 62, "velocity": 99, "channel": 0}, {"type": "note_off", "time": 85, "note": 62, "velocity": 99, "channel": 0}, {"type": "note_on", "time": 25, "note": 65, "velocity": 102, "channel": 0}, {"type": "note_off", "time": 106, "note": 65, "velocity": 102, "channel": 0}, {"type": "note_on", "time": 34, "note": 65, "velocity": 102, "channel": 0}, {"type": "note_off", "time": 93, "note": 65, "velocity": 102, "channel": 0}, {"type": "note_on", "time": 27, "note": 62, "velocity": 99, "channel": 0}, {"type": "note_off", "time": 86, "note": 62, "velocity": 99, "channel": 0}, {"type": "note_on", "time": 13, "note": 64, "velocity": 104, "channel": 0}, {"type": "note_off", "time": 160, "note": 64, "velocity": 104, "channel": 0}, {"type": "note_on", "time": 474, "note": 55, "velocity": 97, "channel": 0}, {"type": "note_off", "time": 138, "note": 55, "velocity": 97, "channel": 0}, {"type": "note_on", "time": 7, "note": 56, "velocity": 98, "channel": 0}, {"type": "note_off", "time": 44, "note": 56, "velocity": 98, "channel": 0}, {"type": "note_on", "time": 13, "note": 59, "velocity": 94, "channel": 0}, {"type": "note_off", "time": 119, "note": 59, "velocity": 94, "channel": 0}, {"type": "note_on", "time": 20, "note": 62, "velocity": 99, "channel": 0}, {"type": "note_off", "time": 36, "note": 62, "velocity": 99, "channel": 0}, {"type": "note_on", "time": 7, "note": 65, "velocity": 105, "channel": 0}, {"type": "note_off", "time": 133, "note": 65, "velocity": 105, "channel": 0}, {"type": "note_on", "time": 15, "note": 62, "velocity": 102, "channel": 0}, {"type": "note_off", "time": 33, "note": 62, "velocity": 102, "channel": 0}, {"type": "note_on", "time": 9, "note": 64, "velocity": 112, "channel": 0}, {"type": "note_off", "time": 133, "note": 64, "velocity": 112, "channel": 0}, {"type": "note_on", "time": 9, "note": 59, "velocity": 98, "channel": 0}, {"type": "note_off", "time": 52, "note": 59, "velocity": 98, "channel": 0}, {"type": "note_on", "time": 14, "note": 54, "velocity": 98, "channel": 0}, {"type": "note_off", "time": 116, "note": 54, "velocity": 98, "channel": 0}, {"type": "note_on", "time": 5, "note": 55, "velocity": 99, "channel": 0}, {"type": "note_off", "time": 50, "note": 55, "velocity": 99, "channel": 0}, {"type": "note_on", "time": 11, "note": 56, "velocity": 97, "channel": 0}, {"type": "note_off", "time": 120, "note": 56, "velocity": 97, "channel": 0}, {"type": "note_on", "time": 478, "note": 59, "velocity": 105, "channel": 0}, {"type": "note_off", "time": 29, "note": 59, "velocity": 105, "channel": 0}, {"type": "note_on", "time": 5, "note": 60, "velocity": 97, "channel": 0}, {"type": "note_off", "time": 265, "note": 60, "velocity": 97, "channel": 0}, {"type": "note_on", "time": 12, "note": 58, "velocity": 110, "channel": 0}, {"type": "note_off", "time": 24, "note": 58, "velocity": 110, "channel": 0}, {"type": "note_on", "time": 6, "note": 55, "velocity": 109, "channel": 0}, {"type": "note_off", "time": 25, "note": 55, "velocity": 109, "channel": 0}, {"type": "note_on", "time": 18, "note": 52, "velocity": 99, "channel": 0}, {"type": "note_off", "time": 109, "note": 52, "velocity": 99, "channel": 0}, {"type": "note_on", "time": 17, "note": 51, "velocity": 95, "channel": 0}, {"type": "note_off", "time": 155, "note": 51, "velocity": 95, "channel": 0}, {"type": "note_on", "time": 17, "note": 51, "velocity": 97, "channel": 0}, {"type": "note_off", "time": 66, "note": 51, "velocity": 97, "channel": 0}, {"type": "note_on", "time": 23, "note": 60, "velocity": 92, "channel": 0}, {"type": "note_off", "time": 298, "note": 60, "velocity": 92, "channel": 0}, {"type": "note_on", "time": 11, "note": 57, "velocity": 108, "channel": 0}, {"type": "note_off", "time": 21, "note": 57, "velocity": 108, "channel": 0}, {"type": "note_on", "time": 5, "note": 56, "velocity": 113, "channel": 0}, {"type": "note_off", "time": 24, "note": 56, "velocity": 113, "channel": 0}, {"type": "note_on", "time": 9, "note": 50, "velocity": 92, "channel": 0}, {"type": "note_off", "time": 174, "note": 50, "velocity": 92, "channel": 0}, {"type": "note_on", "time": 18, "note": 59, "velocity": 101, "channel": 0}, {"type": "note_off", "time": 172, "note": 59, "velocity": 101, "channel": 0}, {"type": "note_on", "time": 33, "note": 57, "velocity": 101, "channel": 0}, {"type": "note_off", "time": 120, "note": 57, "velocity": 101, "channel": 0}, {"type": "note_on", "time": 377, "note": 53, "velocity": 99, "channel": 0}, {"type": "note_off", "time": 44, "note": 53, "velocity": 99, "channel": 0}, {"type": "note_on", "time": 8, "note": 55, "velocity": 106, "channel": 0}, {"type": "note_off", "time": 131, "note": 55, "velocity": 106, "channel": 0}, {"type": "note_on", "time": 9, "note": 53, "velocity": 100, "channel": 0}, {"type": "note_off", "time": 34, "note": 53, "velocity": 100, "channel": 0}, {"type": "note_on", "time": 7, "note": 54, "velocity": 108, "channel": 0}, {"type": "note_off", "time": 127, "note": 54, "velocity": 108, "channel": 0}, {"type": "note_on", "time": 626, "note": 55, "velocity": 110, "channel": 0}, {"type": "note_off", "time": 164, "note": 55, "velocity": 110, "channel": 0}, {"type": "note_on", "time": 15, "note": 58, "velocity": 109, "channel": 0}, {"type": "note_off", "time": 93, "note": 58, "velocity": 109, "channel": 0}, {"type": "note_on", "time": 4, "note": 59, "velocity": 101, "channel": 0}, {"type": "note_off", "time": 66, "note": 59, "velocity": 101, "channel": 0}, {"type": "note_on", "time": 9, "note": 62, "velocity": 110, "channel": 0}, {"type": "note_off", "time": 35, "note": 62, "velocity": 110, "channel": 0}, {"type": "note_on", "time": 9, "note": 64, "velocity": 119, "channel": 0}, {"type": "note_off", "time": 148, "note": 64, "velocity": 119, "channel": 0}, {"type": "note_on", "time": 52, "note": 67, "velocity": 88, "channel": 0}, {"type": "note_off", "time": 311, "note": 67, "velocity": 88, "channel": 0}, {"type": "note_on", "time": 9, "note": 70, "velocity": 103, "channel": 0}, {"type": "note_off", "time": 66, "note": 70, "velocity": 103, "channel": 0}, {"type": "note_on", "time": 6, "note": 71, "velocity": 106, "channel": 0}, {"type": "note_off", "time": 53, "note": 71, "velocity": 106, "channel": 0}, {"type": "note_on", "time": 536, "note": 69, "velocity": 117, "channel": 0}, {"type": "note_off", "time": 117, "note": 69, "velocity": 117, "channel": 0}, {"type": "note_on", "time": 11, "note": 70, "velocity": 100, "channel": 0}, {"type": "note_off", "time": 106, "note": 70, "velocity": 100, "channel": 0}, {"type": "note_on", "time": 47, "note": 69, "velocity": 105, "channel": 0}, {"type": "note_off", "time": 66, "note": 69, "velocity": 105, "channel": 0}, {"type": "note_on", "time": 54, "note": 67, "velocity": 103, "channel": 0}, {"type": "note_off", "time": 30, "note": 67, "velocity": 103, "channel": 0}, {"type": "note_on", "time": 5, "note": 69, "velocity": 100, "channel": 0}, {"type": "note_off", "time": 53, "note": 69, "velocity": 100, "channel": 0}, {"type": "note_on", "time": 4, "note": 67, "velocity": 100, "channel": 0}, {"type": "note_off", "time": 23, "note": 67, "velocity": 100, "channel": 0}, {"type": "note_on", "time": 2, "note": 65, "velocity": 101, "channel": 0}, {"type": "note_off", "time": 21, "note": 65, "velocity": 101, "channel": 0}, {"type": "note_on", "time": 2, "note": 64, "velocity": 105, "channel": 0}, {"type": "note_off", "time": 121, "note": 64, "velocity": 105, "channel": 0}, {"type": "note_on", "time": 194, "note": 58, "velocity": 102, "channel": 0}, {"type": "note_off", "time": 101, "note": 58, "velocity": 102, "channel": 0}, {"type": "note_on", "time": 86, "note": 59, "velocity": 99, "channel": 0}, {"type": "note_off", "time": 69, "note": 59, "velocity": 99, "channel": 0}, {"type": "note_on", "time": 14, "note": 62, "velocity": 109, "channel": 0}, {"type": "note_off", "time": 110, "note": 62, "velocity": 109, "channel": 0}, {"type": "note_on", "time": 9, "note": 60, "velocity": 108, "channel": 0}, {"type": "note_off", "time": 87, "note": 60, "velocity": 108, "channel": 0}, {"type": "note_on", "time": 43, "note": 52, "velocity": 101, "channel": 0}, {"type": "note_off", "time": 69, "note": 52, "velocity": 101, "channel": 0}, {"type": "note_on", "time": 363, "note": 64, "velocity": 117, "channel": 0}, {"type": "note_off", "time": 48, "note": 64, "velocity": 117, "channel": 0}, {"type": "note_on", "time": 5, "note": 66, "velocity": 102, "channel": 0}, {"type": "note_off", "time": 121, "note": 66, "velocity": 102, "channel": 0}, {"type": "note_on", "time": 15, "note": 64, "velocity": 112, "channel": 0}, {"type": "note_off", "time": 69, "note": 64, "velocity": 112, "channel": 0}, {"type": "note_on", "time": 11, "note": 62, "velocity": 101, "channel": 0}, {"type": "note_off", "time": 175, "note": 62, "velocity": 101, "channel": 0}, {"type": "note_on", "time": 102, "note": 60, "velocity": 102, "channel": 0}, {"type": "note_off", "time": 84, "note": 60, "velocity": 102, "channel": 0}, {"type": "note_on", "time": 11, "note": 59, "velocity": 91, "channel": 0}, {"type": "note_off", "time": 110, "note": 59, "velocity": 91, "channel": 0}, {"type": "note_on", "time": 7, "note": 52, "velocity": 98, "channel": 0}, {"type": "note_off", "time": 47, "note": 52, "velocity": 98, "channel": 0}, {"type": "note_on", "time": 11, "note": 54, "velocity": 98, "channel": 0}, {"type": "note_off", "time": 122, "note": 54, "velocity": 98, "channel": 0}, {"type": "note_on", "time": 11, "note": 55, "velocity": 104, "channel": 0}, {"type": "note_off", "time": 87, "note": 55, "velocity": 104, "channel": 0}, {"type": "note_on", "time": 1113, "note": 66, "velocity": 113, "channel": 0}, {"type": "note_off", "time": 26, "note": 66, "velocity": 113, "channel": 0}, {"type": "note_on", "time": 4, "note": 67, "velocity": 105, "channel": 0}, {"type": "note_off", "time": 119, "note": 67, "velocity": 105, "channel": 0}, {"type": "note_on", "time": 23, "note": 67, "velocity": 101, "channel": 0}, {"type": "note_off", "time": 150, "note": 67, "velocity": 101, "channel": 0}, {"type": "note_on", "time": 19, "note": 67, "velocity": 100, "channel": 0}, {"type": "note_off", "time": 163, "note": 67, "velocity": 100, "channel": 0}, {"type": "note_on", "time": 11, "note": 62, "velocity": 110, "channel": 0}, {"type": "note_off", "time": 36, "note": 62, "velocity": 110, "channel": 0}, {"type": "note_on", "time": 5, "note": 60, "velocity": 100, "channel": 0}, {"type": "note_off", "time": 36, "note": 60, "velocity": 100, "channel": 0}, {"type": "note_on", "time": 21, "note": 58, "velocity": 89, "channel": 0}, {"type": "note_off", "time": 99, "note": 58, "velocity": 89, "channel": 0}, {"type": "note_on", "time": 67, "note": 59, "velocity": 94, "channel": 0}, {"type": "note_off", "time": 130, "note": 59, "velocity": 94, "channel": 0}, {"type": "note_on", "time": 230, "note": 67, "velocity": 107, "channel": 0}, {"type": "note_off", "time": 113, "note": 67, "velocity": 107, "channel": 0}, {"type": "note_on", "time": 10, "note": 62, "velocity": 118, "channel": 0}, {"type": "note_off", "time": 27, "note": 62, "velocity": 118, "channel": 0}, {"type": "note_on", "time": 5, "note": 60, "velocity": 121, "channel": 0}, {"type": "note_off", "time": 38, "note": 60, "velocity": 121, "channel": 0}, {"type": "note_on", "time": 6, "note": 58, "velocity": 98, "channel": 0}, {"type": "note_off", "time": 64, "note": 58, "velocity": 98, "channel": 0}, {"type": "note_on", "time": 37, "note": 59, "velocity": 113, "channel": 0}, {"type": "note_off", "time": 52, "note": 59, "velocity": 113, "channel": 0}, {"type": "note_on", "time": 10, "note": 59, "velocity": 105, "channel": 0}, {"type": "note_off", "time": 89, "note": 59, "velocity": 105, "channel": 0}, {"type": "note_on", "time": 37, "note": 67, "velocity": 103, "channel": 0}, {"type": "note_off", "time": 194, "note": 67, "velocity": 103, "channel": 0}, {"type": "note_on", "time": 11, "note": 67, "velocity": 104, "channel": 0}, {"type": "note_off", "time": 166, "note": 67, "velocity": 104, "channel": 0}, {"type": "note_on", "time": 11, "note": 62, "velocity": 110, "channel": 0}, {"type": "note_off", "time": 62, "note": 62, "velocity": 110, "channel": 0}, {"type": "note_on", "time": 18, "note": 58, "velocity": 93, "channel": 0}, {"type": "note_off", "time": 116, "note": 58, "velocity": 93, "channel": 0}, {"type": "note_on", "time": 42, "note": 59, "velocity": 100, "channel": 0}, {"type": "note_off", "time": 106, "note": 59, "velocity": 100, "channel": 0}, {"type": "note_on", "time": 398, "note": 59, "velocity": 95, "channel": 0}, {"type": "note_off", "time": 59, "note": 59, "velocity": 95, "channel": 0}, {"type": "note_on", "time": 13, "note": 60, "velocity": 117, "channel": 0}, {"type": "note_off", "time": 79, "note": 60, "velocity": 117, "channel": 0}, {"type": "note_on", "time": 32, "note": 61, "velocity": 114, "channel": 0}, {"type": "note_off", "time": 73, "note": 61, "velocity": 114, "channel": 0}, {"type": "note_on", "time": 55, "note": 60, "velocity": 114, "channel": 0}, {"type": "note_off", "time": 82, "note": 60, "velocity": 114, "channel": 0}, {"type": "note_on", "time": 45, "note": 61, "velocity": 109, "channel": 0}, {"type": "note_off", "time": 85, "note": 61, "velocity": 109, "channel": 0}, {"type": "note_on", "time": 71, "note": 62, "velocity": 110, "channel": 0}, {"type": "note_off", "time": 227, "note": 62, "velocity": 110, "channel": 0}, {"type": "note_on", "time": 15, "note": 59, "velocity": 98, "channel": 0}, {"type": "note_off", "time": 84, "note": 59, "velocity": 98, "channel": 0}, {"type": "note_on", "time": 506, "note": 53, "velocity": 102, "channel": 0}, {"type": "note_off", "time": 23, "note": 53, "velocity": 102, "channel": 0}, {"type": "note_on", "time": 7, "note": 55, "velocity": 106, "channel": 0}, {"type": "note_off", "time": 25, "note": 55, "velocity": 106, "channel": 0}, {"type": "note_on", "time": 10, "note": 53, "velocity": 102, "channel": 0}, {"type": "note_off", "time": 29, "note": 53, "velocity": 102, "channel": 0}, {"type": "note_on", "time": 10, "note": 50, "velocity": 97, "channel": 0}, {"type": "note_off", "time": 30, "note": 50, "velocity": 97, "channel": 0}, {"type": "note_on", "time": 11, "note": 56, "velocity": 109, "channel": 0}, {"type": "note_off", "time": 127, "note": 56, "velocity": 109, "channel": 0}, {"type": "note_on", "time": 9, "note": 53, "velocity": 98, "channel": 0}, {"type": "note_off", "time": 49, "note": 53, "velocity": 98, "channel": 0}, {"type": "note_on", "time": 23, "note": 59, "velocity": 101, "channel": 0}, {"type": "note_off", "time": 105, "note": 59, "velocity": 101, "channel": 0}, {"type": "note_on", "time": 10, "note": 56, "velocity": 103, "channel": 0}, {"type": "note_off", "time": 54, "note": 56, "velocity": 103, "channel": 0}, {"type": "note_on", "time": 12, "note": 62, "velocity": 108, "channel": 0}, {"type": "note_off", "time": 117, "note": 62, "velocity": 108, "channel": 0}, {"type": "note_on", "time": 25, "note": 59, "velocity": 101, "channel": 0}, {"type": "note_off", "time": 34, "note": 59, "velocity": 101, "channel": 0}, {"type": "note_on", "time": 9, "note": 60, "velocity": 108, "channel": 0}, {"type": "note_off", "time": 118, "note": 60, "velocity": 108, "channel": 0}, {"type": "note_on", "time": 9, "note": 62, "velocity": 110, "channel": 0}, {"type": "note_off", "time": 66, "note": 62, "velocity": 110, "channel": 0}, {"type": "note_on", "time": 13, "note": 59, "velocity": 96, "channel": 0}, {"type": "note_off", "time": 23, "note": 59, "velocity": 96, "channel": 0}, {"type": "note_on", "time": 4, "note": 60, "velocity": 98, "channel": 0}, {"type": "note_off", "time": 50, "note": 60, "velocity": 98, "channel": 0}, {"type": "note_on", "time": 5, "note": 59, "velocity": 99, "channel": 0}, {"type": "note_off", "time": 27, "note": 59, "velocity": 99, "channel": 0}, {"type": "note_on", "time": 10, "note": 57, "velocity": 102, "channel": 0}, {"type": "note_off", "time": 28, "note": 57, "velocity": 102, "channel": 0}, {"type": "note_on", "time": 21, "note": 52, "velocity": 103, "channel": 0}, {"type": "note_off", "time": 119, "note": 52, "velocity": 103, "channel": 0}, {"type": "note_on", "time": 0, "note": 55, "velocity": 108, "channel": 0}, {"type": "note_off", "time": 73, "note": 55, "velocity": 108, "channel": 0}, {"type": "note_on", "time": 6, "note": 54, "velocity": 103, "channel": 0}, {"type": "note_off", "time": 91, "note": 54, "velocity": 103, "channel": 0}, {"type": "note_on", "time": 270, "note": 59, "velocity": 105, "channel": 0}, {"type": "note_off", "time": 133, "note": 59, "velocity": 105, "channel": 0}, {"type": "note_on", "time": 12, "note": 55, "velocity": 108, "channel": 0}, {"type": "note_off", "time": 45, "note": 55, "velocity": 108, "channel": 0}, {"type": "note_on", "time": 2, "note": 56, "velocity": 117, "channel": 0}, {"type": "note_off", "time": 112, "note": 56, "velocity": 117, "channel": 0}, {"type": "note_on", "time": 15, "note": 53, "velocity": 111, "channel": 0}, {"type": "note_off", "time": 51, "note": 53, "velocity": 111, "channel": 0}, {"type": "note_on", "time": 24, "note": 62, "velocity": 114, "channel": 0}, {"type": "note_off", "time": 121, "note": 62, "velocity": 114, "channel": 0}, {"type": "note_on", "time": 7, "note": 63, "velocity": 113, "channel": 0}, {"type": "note_off", "time": 33, "note": 63, "velocity": 113, "channel": 0}, {"type": "note_on", "time": 13, "note": 64, "velocity": 117, "channel": 0}, {"type": "note_off", "time": 125, "note": 64, "velocity": 117, "channel": 0}, {"type": "note_on", "time": 8, "note": 60, "velocity": 116, "channel": 0}, {"type": "note_off", "time": 60, "note": 60, "velocity": 116, "channel": 0}, {"type": "note_on", "time": 17, "note": 59, "velocity": 98, "channel": 0}, {"type": "note_off", "time": 112, "note": 59, "velocity": 98, "channel": 0}, {"type": "note_on", "time": 19, "note": 57, "velocity": 97, "channel": 0}, {"type": "note_off", "time": 44, "note": 57, "velocity": 97, "channel": 0}, {"type": "note_on", "time": 13, "note": 59, "velocity": 94, "channel": 0}, {"type": "note_off", "time": 153, "note": 59, "velocity": 94, "channel": 0}, {"type": "note_on", "time": 1071, "note": 67, "velocity": 124, "channel": 0}, {"type": "note_off", "time": 34, "note": 67, "velocity": 124, "channel": 0}, {"type": "note_on", "time": 3, "note": 69, "velocity": 117, "channel": 0}, {"type": "note_off", "time": 71, "note": 69, "velocity": 117, "channel": 0}, {"type": "note_on", "time": 47, "note": 67, "velocity": 122, "channel": 0}, {"type": "note_off", "time": 58, "note": 67, "velocity": 122, "channel": 0}, {"type": "note_on", "time": 0, "note": 69, "velocity": 108, "channel": 0}, {"type": "note_off", "time": 55, "note": 69, "velocity": 108, "channel": 0}, {"type": "note_on", "time": 28, "note": 71, "velocity": 105, "channel": 0}, {"type": "note_off", "time": 65, "note": 71, "velocity": 105, "channel": 0}, {"type": "note_on", "time": 12, "note": 72, "velocity": 102, "channel": 0}, {"type": "note_off", "time": 33, "note": 72, "velocity": 102, "channel": 0}, {"type": "note_on", "time": 3, "note": 71, "velocity": 99, "channel": 0}, {"type": "note_off", "time": 20, "note": 71, "velocity": 99, "channel": 0}, {"type": "note_on", "time": 3, "note": 69, "velocity": 105, "channel": 0}, {"type": "note_off", "time": 21, "note": 69, "velocity": 105, "channel": 0}, {"type": "note_on", "time": 37, "note": 71, "velocity": 101, "channel": 0}, {"type": "note_off", "time": 73, "note": 71, "velocity": 101, "channel": 0}, {"type": "note_on", "time": 26, "note": 66, "velocity": 114, "channel": 0}, {"type": "note_off", "time": 29, "note": 66, "velocity": 114, "channel": 0}, {"type": "note_on", "time": 11, "note": 64, "velocity": 116, "channel": 0}, {"type": "note_off", "time": 33, "note": 64, "velocity": 116, "channel": 0}, {"type": "note_on", "time": 12, "note": 62, "velocity": 104, "channel": 0}, {"type": "note_off", "time": 32, "note": 62, "velocity": 104, "channel": 0}, {"type": "note_on", "time": 18, "note": 64, "velocity": 111, "channel": 0}, {"type": "note_off", "time": 86, "note": 64, "velocity": 111, "channel": 0}, {"type": "note_on", "time": 25, "note": 60, "velocity": 100, "channel": 0}, {"type": "note_off", "time": 39, "note": 60, "velocity": 100, "channel": 0}, {"type": "note_on", "time": 5, "note": 59, "velocity": 102, "channel": 0}, {"type": "note_off", "time": 29, "note": 59, "velocity": 102, "channel": 0}, {"type": "note_on", "time": 10, "note": 57, "velocity": 101, "channel": 0}, {"type": "note_off", "time": 45, "note": 57, "velocity": 101, "channel": 0}, {"type": "note_on", "time": 3, "note": 59, "velocity": 91, "channel": 0}, {"type": "note_off", "time": 187, "note": 59, "velocity": 91, "channel": 0}, {"type": "note_on", "time": 383, "note": 53, "velocity": 105, "channel": 0}, {"type": "note_off", "time": 55, "note": 53, "velocity": 105, "channel": 0}, {"type": "note_on", "time": 8, "note": 54, "velocity": 111, "channel": 0}, {"type": "note_off", "time": 145, "note": 54, "velocity": 111, "channel": 0}, {"type": "note_on", "time": 5, "note": 57, "velocity": 102, "channel": 0}, {"type": "note_off", "time": 32, "note": 57, "velocity": 102, "channel": 0}, {"type": "note_on", "time": 3, "note": 62, "velocity": 106, "channel": 0}, {"type": "note_off", "time": 178, "note": 62, "velocity": 106, "channel": 0}, {"type": "note_on", "time": 13, "note": 56, "velocity": 101, "channel": 0}, {"type": "note_off", "time": 33, "note": 56, "velocity": 101, "channel": 0}, {"type": "note_on", "time": 302, "note": 54, "velocity": 110, "channel": 0}, {"type": "note_off", "time": 45, "note": 54, "velocity": 110, "channel": 0}, {"type": "note_on", "time": 9, "note": 58, "velocity": 100, "channel": 0}, {"type": "note_off", "time": 171, "note": 58, "velocity": 100, "channel": 0}, {"type": "note_on", "time": 15, "note": 62, "velocity": 119, "channel": 0}, {"type": "note_off", "time": 130, "note": 62, "velocity": 119, "channel": 0}, {"type": "note_on", "time": 12, "note": 64, "velocity": 117, "channel": 0}, {"type": "note_off", "time": 61, "note": 64, "velocity": 117, "channel": 0}, {"type": "note_on", "time": 9, "note": 62, "velocity": 114, "channel": 0}, {"type": "note_off", "time": 28, "note": 62, "velocity": 114, "channel": 0}, {"type": "note_on", "time": 1, "note": 64, "velocity": 113, "channel": 0}, {"type": "note_off", "time": 34, "note": 64, "velocity": 113, "channel": 0}, {"type": "note_on", "time": 9, "note": 62, "velocity": 111, "channel": 0}, {"type": "note_off", "time": 36, "note": 62, "velocity": 111, "channel": 0}, {"type": "note_on", "time": 17, "note": 59, "velocity": 104, "channel": 0}, {"type": "note_off", "time": 36, "note": 59, "velocity": 104, "channel": 0}, {"type": "note_on", "time": 11, "note": 57, "velocity": 105, "channel": 0}, {"type": "note_off", "time": 130, "note": 57, "velocity": 105, "channel": 0}, {"type": "note_on", "time": 19, "note": 54, "velocity": 102, "channel": 0}, {"type": "note_off", "time": 38, "note": 54, "velocity": 102, "channel": 0}, {"type": "note_on", "time": 7, "note": 55, "velocity": 111, "channel": 0}, {"type": "note_off", "time": 110, "note": 55, "velocity": 111, "channel": 0}, {"type": "note_on", "time": 11, "note": 62, "velocity": 112, "channel": 0}, {"type": "note_off", "time": 51, "note": 62, "velocity": 112, "channel": 0}, {"type": "note_on", "time": 19, "note": 59, "velocity": 95, "channel": 0}, {"type": "note_off", "time": 201, "note": 59, "velocity": 95, "channel": 0}, {"type": "note_on", "time": 673, "note": 56, "velocity": 111, "channel": 0}, {"type": "note_off", "time": 127, "note": 56, "velocity": 111, "channel": 0}, {"type": "note_on", "time": 5, "note": 59, "velocity": 108, "channel": 0}, {"type": "note_off", "time": 119, "note": 59, "velocity": 108, "channel": 0}, {"type": "note_on", "time": 31, "note": 62, "velocity": 120, "channel": 0}, {"type": "note_off", "time": 126, "note": 62, "velocity": 120, "channel": 0}, {"type": "note_on", "time": 41, "note": 67, "velocity": 111, "channel": 0}, {"type": "note_off", "time": 134, "note": 67, "velocity": 111, "channel": 0}, {"type": "note_on", "time": 15, "note": 67, "velocity": 103, "channel": 0}, {"type": "note_off", "time": 238, "note": 67, "velocity": 103, "channel": 0}, {"type": "note_on", "time": 24, "note": 64, "velocity": 118, "channel": 0}, {"type": "note_off", "time": 117, "note": 64, "velocity": 118, "channel": 0}, {"type": "note_on", "time": 72, "note": 67, "velocity": 113, "channel": 0}, {"type": "note_off", "time": 149, "note": 67, "velocity": 113, "channel": 0}, {"type": "note_on", "time": 245, "note": 62, "velocity": 117, "channel": 0}, {"type": "note_off", "time": 112, "note": 62, "velocity": 117, "channel": 0}, {"type": "note_on", "time": 14, "note": 64, "velocity": 102, "channel": 0}, {"type": "note_off", "time": 37, "note": 64, "velocity": 102, "channel": 0}, {"type": "note_on", "time": 12, "note": 65, "velocity": 109, "channel": 0}, {"type": "note_off", "time": 125, "note": 65, "velocity": 109, "channel": 0}, {"type": "note_on", "time": 20, "note": 65, "velocity": 108, "channel": 0}, {"type": "note_off", "time": 174, "note": 65, "velocity": 108, "channel": 0}, {"type": "note_on", "time": 7, "note": 62, "velocity": 103, "channel": 0}, {"type": "note_off", "time": 41, "note": 62, "velocity": 103, "channel": 0}, {"type": "note_on", "time": 12, "note": 65, "velocity": 104, "channel": 0}, {"type": "note_off", "time": 172, "note": 65, "velocity": 104, "channel": 0}, {"type": "note_on", "time": 15, "note": 64, "velocity": 104, "channel": 0}, {"type": "note_off", "time": 173, "note": 64, "velocity": 104, "channel": 0}, {"type": "note_on", "time": 321, "note": 55, "velocity": 109, "channel": 0}, {"type": "note_off", "time": 89, "note": 55, "velocity": 109, "channel": 0}, {"type": "note_on", "time": 11, "note": 56, "velocity": 111, "channel": 0}, {"type": "note_off", "time": 113, "note": 56, "velocity": 111, "channel": 0}, {"type": "note_on", "time": 18, "note": 59, "velocity": 103, "channel": 0}, {"type": "note_off", "time": 34, "note": 59, "velocity": 103, "channel": 0}, {"type": "note_on", "time": 12, "note": 65, "velocity": 112, "channel": 0}, {"type": "note_off", "time": 104, "note": 65, "velocity": 112, "channel": 0}, {"type": "note_on", "time": 11, "note": 63, "velocity": 109, "channel": 0}, {"type": "note_off", "time": 48, "note": 63, "velocity": 109, "channel": 0}, {"type": "note_on", "time": 17, "note": 64, "velocity": 113, "channel": 0}, {"type": "note_off", "time": 111, "note": 64, "velocity": 113, "channel": 0}, {"type": "note_on", "time": 31, "note": 59, "velocity": 104, "channel": 0}, {"type": "note_off", "time": 81, "note": 59, "velocity": 104, "channel": 0}, {"type": "note_on", "time": 29, "note": 58, "velocity": 104, "channel": 0}, {"type": "note_off", "time": 40, "note": 58, "velocity": 104, "channel": 0}, {"type": "note_on", "time": 0, "note": 59, "velocity": 101, "channel": 0}, {"type": "note_off", "time": 31, "note": 59, "velocity": 101, "channel": 0}, {"type": "note_on", "time": 8, "note": 58, "velocity": 97, "channel": 0}, {"type": "note_off", "time": 32, "note": 58, "velocity": 97, "channel": 0}, {"type": "note_on", "time": 30, "note": 64, "velocity": 115, "channel": 0}, {"type": "note_off", "time": 124, "note": 64, "velocity": 115, "channel": 0}, {"type": "note_on", "time": 281, "note": 59, "velocity": 101, "channel": 0}, {"type": "note_off", "time": 83, "note": 59, "velocity": 101, "channel": 0}, {"type": "note_on", "time": 71, "note": 62, "velocity": 125, "channel": 0}, {"type": "note_off", "time": 69, "note": 62, "velocity": 125, "channel": 0}, {"type": "note_on", "time": 5, "note": 63, "velocity": 118, "channel": 0}, {"type": "note_off", "time": 78, "note": 63, "velocity": 118, "channel": 0}, {"type": "note_on", "time": 16, "note": 60, "velocity": 106, "channel": 0}, {"type": "note_off", "time": 29, "note": 60, "velocity": 106, "channel": 0}, {"type": "note_on", "time": 11, "note": 59, "velocity": 102, "channel": 0}, {"type": "note_off", "time": 27, "note": 59, "velocity": 102, "channel": 0}, {"type": "note_on", "time": 7, "note": 57, "velocity": 103, "channel": 0}, {"type": "note_off", "time": 22, "note": 57, "velocity": 103, "channel": 0}, {"type": "note_on", "time": 9, "note": 55, "velocity": 101, "channel": 0}, {"type": "note_off", "time": 29, "note": 55, "velocity": 101, "channel": 0}, {"type": "note_on", "time": 8, "note": 62, "velocity": 108, "channel": 0}, {"type": "note_off", "time": 89, "note": 62, "velocity": 108, "channel": 0}, {"type": "note_on", "time": 285, "note": 63, "velocity": 113, "channel": 0}, {"type": "note_off", "time": 44, "note": 63, "velocity": 113, "channel": 0}, {"type": "note_on", "time": 15, "note": 64, "velocity": 111, "channel": 0}, {"type": "note_off", "time": 128, "note": 64, "velocity": 111, "channel": 0}, {"type": "note_on", "time": 7, "note": 62, "velocity": 96, "channel": 0}, {"type": "note_off", "time": 45, "note": 62, "velocity": 96, "channel": 0}, {"type": "note_on", "time": 26, "note": 57, "velocity": 102, "channel": 0}, {"type": "note_off", "time": 108, "note": 57, "velocity": 102, "channel": 0}, {"type": "note_on", "time": 10, "note": 56, "velocity": 105, "channel": 0}, {"type": "note_off", "time": 50, "note": 56, "velocity": 105, "channel": 0}, {"type": "note_on", "time": 10, "note": 57, "velocity": 98, "channel": 0}, {"type": "note_off", "time": 185, "note": 57, "velocity": 98, "channel": 0}, {"type": "note_on", "time": 116, "note": 54, "velocity": 111, "channel": 0}, {"type": "note_off", "time": 54, "note": 54, "velocity": 111, "channel": 0}, {"type": "note_on", "time": 17, "note": 55, "velocity": 104, "channel": 0}, {"type": "note_off", "time": 164, "note": 55, "velocity": 104, "channel": 0}, {"type": "note_on", "time": 28, "note": 55, "velocity": 106, "channel": 0}, {"type": "note_off", "time": 160, "note": 55, "velocity": 106, "channel": 0}, {"type": "note_on", "time": 14, "note": 50, "velocity": 106, "channel": 0}, {"type": "note_off", "time": 81, "note": 50, "velocity": 106, "channel": 0}, {"type": "note_on", "time": 445, "note": 56, "velocity": 105, "channel": 0}, {"type": "note_off", "time": 123, "note": 56, "velocity": 105, "channel": 0}, {"type": "note_on", "time": 15, "note": 59, "velocity": 110, "channel": 0}, {"type": "note_off", "time": 104, "note": 59, "velocity": 110, "channel": 0}, {"type": "note_on", "time": 26, "note": 62, "velocity": 120, "channel": 0}, {"type": "note_off", "time": 139, "note": 62, "velocity": 120, "channel": 0}, {"type": "note_on", "time": 58, "note": 67, "velocity": 111, "channel": 0}, {"type": "note_off", "time": 100, "note": 67, "velocity": 111, "channel": 0}, {"type": "note_on", "time": 23, "note": 67, "velocity": 101, "channel": 0}, {"type": "note_off", "time": 226, "note": 67, "velocity": 101, "channel": 0}, {"type": "note_on", "time": 14, "note": 69, "velocity": 110, "channel": 0}, {"type": "note_off", "time": 61, "note": 69, "velocity": 110, "channel": 0}, {"type": "note_on", "time": 7, "note": 71, "velocity": 114, "channel": 0}, {"type": "note_off", "time": 64, "note": 71, "velocity": 114, "channel": 0}, {"type": "note_on", "time": 558, "note": 60, "velocity": 93, "channel": 0}, {"type": "note_off", "time": 31, "note": 60, "velocity": 93, "channel": 0}, {"type": "note_on", "time": 17, "note": 72, "velocity": 90, "channel": 0}, {"type": "note_off", "time": 779, "note": 72, "velocity": 90, "channel": 0}, {"type": "note_on", "time": 15, "note": 71, "velocity": 98, "channel": 0}, {"type": "note_off", "time": 105, "note": 71, "velocity": 98, "channel": 0}, {"type": "note_on", "time": 20, "note": 67, "velocity": 103, "channel": 0}, {"type": "note_off", "time": 76, "note": 67, "velocity": 103, "channel": 0}, {"type": "note_on", "time": 70, "note": 72, "velocity": 100, "channel": 0}, {"type": "note_off", "time": 89, "note": 72, "velocity": 100, "channel": 0}, {"type": "note_on", "time": 29, "note": 71, "velocity": 99, "channel": 0}, {"type": "note_off", "time": 83, "note": 71, "velocity": 99, "channel": 0}, {"type": "note_on", "time": 23, "note": 67, "velocity": 109, "channel": 0}, {"type": "note_off", "time": 159, "note": 67, "velocity": 109, "channel": 0}, {"type": "note_on", "time": 419, "note": 55, "velocity": 105, "channel": 0}, {"type": "note_off", "time": 63, "note": 55, "velocity": 105, "channel": 0}, {"type": "note_on", "time": 17, "note": 59, "velocity": 109, "channel": 0}, {"type": "note_off", "time": 82, "note": 59, "velocity": 109, "channel": 0}, {"type": "note_on", "time": 35, "note": 62, "velocity": 127, "channel": 0}, {"type": "note_off", "time": 99, "note": 62, "velocity": 127, "channel": 0}, {"type": "note_on", "time": 88, "note": 64, "velocity": 113, "channel": 0}, {"type": "note_off", "time": 40, "note": 64, "velocity": 113, "channel": 0}, {"type": "note_on", "time": 5, "note": 67, "velocity": 111, "channel": 0}, {"type": "note_off", "time": 83, "note": 67, "velocity": 111, "channel": 0}, {"type": "note_on", "time": 12, "note": 67, "velocity": 102, "channel": 0}, {"type": "note_off", "time": 229, "note": 67, "velocity": 102, "channel": 0}, {"type": "note_on", "time": 46, "note": 58, "velocity": 107, "channel": 0}, {"type": "note_off", "time": 116, "note": 58, "velocity": 107, "channel": 0}, {"type": "note_on", "time": 19, "note": 55, "velocity": 110, "channel": 0}, {"type": "note_off", "time": 78, "note": 55, "velocity": 110, "channel": 0}, {"type": "note_on", "time": 16, "note": 58, "velocity": 103, "channel": 0}, {"type": "note_off", "time": 94, "note": 58, "velocity": 103, "channel": 0}, {"type": "note_on", "time": 16, "note": 59, "velocity": 99, "channel": 0}, {"type": "note_off", "time": 66, "note": 59, "velocity": 99, "channel": 0}, {"type": "note_on", "time": 7, "note": 59, "velocity": 104, "channel": 0}, {"type": "note_off", "time": 142, "note": 59, "velocity": 104, "channel": 0}, {"type": "end_of_track", "time": 0}]]}