{"ticks_per_beat": 1320, "tracks": [[{"type": "track_name", "name": "Melody", "time": 0}, {"type": "set_tempo", "tempo": 810810, "time": 0}, {"type": "key_signature", "key": "Bb", "time": 0}, {"type": "time_signature", "numerator": 4, "denominator": 4, "clocks_per_click": 24, "notated_32nd_notes_per_beat": 8, "time": 0}, {"type": "note_on", "time": 102050, "note": 65, "velocity": 10, "channel": 0}, {"type": "note_off", "time": 533, "note": 65, "velocity": 10, "channel": 0}, {"type": "note_on", "time": 14, "note": 67, "velocity": 115, "channel": 0}, {"type": "note_off", "time": 108, "note": 67, "velocity": 115, "channel": 0}, {"type": "note_on", "time": 28, "note": 65, "velocity": 120, "channel": 0}, {"type": "note_off", "time": 165, "note": 65, "velocity": 120, "channel": 0}, {"type": "note_on", "time": 47, "note": 64, "velocity": 121, "channel": 0}, {"type": "note_off", "time": 269, "note": 64, "velocity": 121, "channel": 0}, {"type": "note_on", "time": 14, "note": 65, "velocity": 115, "channel": 0}, {"type": "note_off", "time": 302, "note": 65, "velocity": 115, "channel": 0}, {"type": "note_on", "time": 94, "note": 62, "velocity": 117, "channel": 0}, {"type": "note_off", "time": 311, "note": 62, "velocity": 117, "channel": 0}, {"type": "note_on", "time": 14, "note": 58, "velocity": 107, "channel": 0}, {"type": "note_off", "time": 330, "note": 58, "velocity": 107, "channel": 0}, {"type": "note_on", "time": 66, "note": 55, "velocity": 96, "channel": 0}, {"type": "note_off", "time": 803, "note": 55, "velocity": 96, "channel": 0}, {"type": "note_on", "time": 75, "note": 53, "velocity": 100, "channel": 0}, {"type": "note_off", "time": 283, "note": 53, "velocity": 100, "channel": 0}, {"type": "note_on", "time": 189, "note": 59, "velocity": 85, "channel": 0}, {"type": "note_off", "time": 576, "note": 59, "velocity": 85, "channel": 0}, {"type": "note_on", "time": 85, "note": 62, "velocity": 114, "channel": 0}, {"type": "note_off", "time": 406, "note": 62, "velocity": 114, "channel": 0}, {"type": "note_on", "time": 66, "note": 67, "velocity": 87, "channel": 0}, {"type": "note_off", "time": 1332, "note": 67, "velocity": 87, "channel": 0}, {"type": "note_on", "time": 1479, "note": 55, "velocity": 98, "channel": 0}, {"type": "note_off", "time": 373, "note": 55, "velocity": 98, "channel": 0}, {"type": "note_on", "time": 28, "note": 58, "velocity": 102, "channel": 0}, {"type": "note_off", "time": 292, "note": 58, "velocity": 102, "channel": 0}, {"type": "note_on", "time": 89, "note": 62, "velocity": 122, "channel": 0}, {"type": "note_off", "time": 415, "note": 62, "velocity": 122, "channel": 0}, {"type": "note_on", "time": 89, "note": 64, "velocity": 120, "channel": 0}, {"type": "note_off", "time": 212, "note": 64, "velocity": 120, "channel": 0}, {"type": "note_on", "time": 37, "note": 65, "velocity": 119, "channel": 0}, {"type": "note_off", "time": 288, "note": 65, "velocity": 119, "channel": 0}, {"type": "note_on", "time": 51, "note": 63, "velocity": 93, "channel": 0}, {"type": "note_off", "time": 278, "note": 63, "velocity": 93, "channel": 0}, {"type": "note_on", "time": 70, "note": 65, "velocity": 109, "channel": 0}, {"type": "note_off", "time": 387, "note": 65, "velocity": 109, "channel": 0}, {"type": "note_on", "time": 85, "note": 63, "velocity": 95, "channel": 0}, {"type": "note_off", "time": 406, "note": 63, "velocity": 95, "channel": 0}, {"type": "note_on", "time": 174, "note": 53, "velocity": 98, "channel": 0}, {"type": "note_off", "time": 434, "note": 53, "velocity": 98, "channel": 0}, {"type": "note_on", "time": 42, "note": 54, "velocity": 96, "channel": 0}, {"type": "note_off", "time": 751, "note": 54, "velocity": 96, "channel": 0}, {"type": "note_on", "time": 694, "note": 58, "velocity": 94, "channel": 0}, {"type": "note_off", "time": 302, "note": 58, "velocity": 94, "channel": 0}, {"type": "note_on", "time": 23, "note": 60, "velocity": 102, "channel": 0}, {"type": "note_off", "time": 321, "note": 60, "velocity": 102, "channel": 0}, {"type": "note_on", "time": 18, "note": 63, "velocity": 96, "channel": 0}, {"type": "note_off", "time": 311, "note": 63, "velocity": 96, "channel": 0}, {"type": "note_on", "time": 51, "note": 62, "velocity": 110, "channel": 0}, {"type": "note_off", "time": 378, "note": 62, "velocity": 110, "channel": 0}, {"type": "note_on", "time": 42, "note": 53, "velocity": 93, "channel": 0}, {"type": "note_off", "time": 1228, "note": 53, "velocity": 93, "channel": 0}, {"type": "note_on", "time": 1653, "note": 50, "velocity": 111, "channel": 0}, {"type": "note_off", "time": 392, "note": 50, "velocity": 111, "channel": 0}, {"type": "note_on", "time": 33, "note": 51, "velocity": 111, "channel": 0}, {"type": "note_off", "time": 231, "note": 51, "velocity": 111, "channel": 0}, {"type": "note_on", "time": 33, "note": 52, "velocity": 104, "channel": 0}, {"type": "note_off", "time": 519, "note": 52, "velocity": 104, "channel": 0}, {"type": "note_on", "time": 448, "note": 55, "velocity": 97, "channel": 0}, {"type": "note_off", "time": 330, "note": 55, "velocity": 97, "channel": 0}, {"type": "note_on", "time": 26, "note": 57, "velocity": 97, "channel": 0}, {"type": "note_off", "time": 418, "note": 57, "velocity": 97, "channel": 0}, {"type": "note_on", "time": 12, "note": 60, "velocity": 103, "channel": 0}, {"type": "note_off", "time": 349, "note": 60, "velocity": 103, "channel": 0}, {"type": "note_on", "time": 75, "note": 58, "velocity": 91, "channel": 0}, {"type": "note_off", "time": 722, "note": 58, "velocity": 91, "channel": 0}, {"type": "note_on", "time": 1738, "note": 54, "velocity": 100, "channel": 0}, {"type": "note_off", "time": 288, "note": 54, "velocity": 100, "channel": 0}, {"type": "note_on", "time": 42, "note": 56, "velocity": 108, "channel": 0}, {"type": "note_off", "time": 193, "note": 56, "velocity": 108, "channel": 0}, {"type": "note_on", "time": 33, "note": 57, "velocity": 107, "channel": 0}, {"type": "note_off", "time": 193, "note": 57, "velocity": 107, "channel": 0}, {"type": "note_on", "time": 47, "note": 60, "velocity": 116, "channel": 0}, {"type": "note_off", "time": 245, "note": 60, "velocity": 116, "channel": 0}, {"type": "note_on", "time": 61, "note": 62, "velocity": 124, "channel": 0}, {"type": "note_off", "time": 349, "note": 62, "velocity": 124, "channel": 0}, {"type": "note_on", "time": 122, "note": 63, "velocity": 109, "channel": 0}, {"type": "note_off", "time": 141, "note": 63, "velocity": 109, "channel": 0}, {"type": "note_on", "time": 94, "note": 65, "velocity": 111, "channel": 0}, {"type": "note_off", "time": 600, "note": 65, "velocity": 111, "channel": 0}, {"type": "note_on", "time": 70, "note": 62, "velocity": 115, "channel": 0}, {"type": "note_off", "time": 330, "note": 62, "velocity": 115, "channel": 0}, {"type": "note_on", "time": 71, "note": 60, "velocity": 100, "channel": 0}, {"type": "note_off", "time": 325, "note": 60, "velocity": 100, "channel": 0}, {"type": "note_on", "time": 26, "note": 57, "velocity": 99, "channel": 0}, {"type": "note_off", "time": 265, "note": 57, "velocity": 99, "channel": 0}, {"type": "note_on", "time": 86, "note": 55, "velocity": 92, "channel": 0}, {"type": "note_off", "time": 259, "note": 55, "velocity": 92, "channel": 0}, {"type": "note_on", "time": 18, "note": 53, "velocity": 96, "channel": 0}, {"type": "note_off", "time": 373, "note": 53, "velocity": 96, "channel": 0}, {"type": "note_on", "time": 75, "note": 55, "velocity": 90, "channel": 0}, {"type": "note_off", "time": 415, "note": 55, "velocity": 90, "channel": 0}, {"type": "note_on", "time": 80, "note": 57, "velocity": 96, "channel": 0}, {"type": "note_off", "time": 420, "note": 57, "velocity": 96, "channel": 0}, {"type": "note_on", "time": 28, "note": 55, "velocity": 110, "channel": 0}, {"type": "note_off", "time": 61, "note": 55, "velocity": 110, "channel": 0}, {"type": "note_on", "time": 14, "note": 57, "velocity": 100, "channel": 0}, {"type": "note_off", "time": 382, "note": 57, "velocity": 100, "channel": 0}, {"type": "note_on", "time": 23, "note": 55, "velocity": 106, "channel": 0}, {"type": "note_off", "time": 75, "note": 55, "velocity": 106, "channel": 0}, {"type": "note_on", "time": 0, "note": 57, "velocity": 102, "channel": 0}, {"type": "note_off", "time": 415, "note": 57, "velocity": 102, "channel": 0}, {"type": "note_on", "time": 9, "note": 55, "velocity": 106, "channel": 0}, {"type": "note_off", "time": 89, "note": 55, "velocity": 106, "channel": 0}, {"type": "note_on", "time": 14, "note": 57, "velocity": 94, "channel": 0}, {"type": "note_off", "time": 344, "note": 57, "velocity": 94, "channel": 0}, {"type": "note_on", "time": 23, "note": 65, "velocity": 94, "channel": 0}, {"type": "note_off", "time": 283, "note": 65, "velocity": 94, "channel": 0}, {"type": "note_on", "time": 33, "note": 62, "velocity": 85, "channel": 0}, {"type": "note_off", "time": 1332, "note": 62, "velocity": 85, "channel": 0}, {"type": "note_on", "time": 1975, "note": 53, "velocity": 99, "channel": 0}, {"type": "note_off", "time": 236, "note": 53, "velocity": 99, "channel": 0}, {"type": "note_on", "time": 94, "note": 62, "velocity": 124, "channel": 0}, {"type": "note_off", "time": 307, "note": 62, "velocity": 124, "channel": 0}, {"type": "note_on", "time": 18, "note": 63, "velocity": 101, "channel": 0}, {"type": "note_off", "time": 302, "note": 63, "velocity": 101, "channel": 0}, {"type": "note_on", "time": 94, "note": 64, "velocity": 127, "channel": 0}, {"type": "note_off", "time": 448, "note": 64, "velocity": 127, "channel": 0}, {"type": "note_on", "time": 70, "note": 63, "velocity": 101, "channel": 0}, {"type": "note_off", "time": 378, "note": 63, "velocity": 101, "channel": 0}, {"type": "note_on", "time": 42, "note": 62, "velocity": 110, "channel": 0}, {"type": "note_off", "time": 425, "note": 62, "velocity": 110, "channel": 0}, {"type": "note_on", "time": 89, "note": 55, "velocity": 92, "channel": 0}, {"type": "note_off", "time": 292, "note": 55, "velocity": 92, "channel": 0}, {"type": "note_on", "time": 80, "note": 58, "velocity": 95, "channel": 0}, {"type": "note_off", "time": 302, "note": 58, "velocity": 95, "channel": 0}, {"type": "note_on", "time": 4, "note": 60, "velocity": 96, "channel": 0}, {"type": "note_off", "time": 434, "note": 60, "velocity": 96, "channel": 0}, {"type": "note_on", "time": 1582, "note": 55, "velocity": 87, "channel": 0}, {"type": "note_off", "time": 515, "note": 55, "velocity": 87, "channel": 0}, {"type": "note_on", "time": 23, "note": 58, "velocity": 100, "channel": 0}, {"type": "note_off", "time": 283, "note": 58, "velocity": 100, "channel": 0}, {"type": "note_on", "time": 18, "note": 59, "velocity": 90, "channel": 0}, {"type": "note_off", "time": 359, "note": 59, "velocity": 90, "channel": 0}, {"type": "note_on", "time": 9, "note": 60, "velocity": 92, "channel": 0}, {"type": "note_off", "time": 326, "note": 60, "velocity": 92, "channel": 0}, {"type": "note_on", "time": 18, "note": 59, "velocity": 81, "channel": 0}, {"type": "note_off", "time": 288, "note": 59, "velocity": 81, "channel": 0}, {"type": "note_on", "time": 23, "note": 58, "velocity": 96, "channel": 0}, {"type": "note_off", "time": 307, "note": 58, "velocity": 96, "channel": 0}, {"type": "note_on", "time": 23, "note": 57, "velocity": 98, "channel": 0}, {"type": "note_off", "time": 382, "note": 57, "velocity": 98, "channel": 0}, {"type": "note_on", "time": 37, "note": 53, "velocity": 103, "channel": 0}, {"type": "note_off", "time": 245, "note": 53, "velocity": 103, "channel": 0}, {"type": "note_on", "time": 56, "note": 50, "velocity": 97, "channel": 0}, {"type": "note_off", "time": 387, "note": 50, "velocity": 97, "channel": 0}, {"type": "note_on", "time": 23, "note": 52, "velocity": 92, "channel": 0}, {"type": "note_off", "time": 231, "note": 52, "velocity": 92, "channel": 0}, {"type": "note_on", "time": 61, "note": 61, "velocity": 108, "channel": 0}, {"type": "note_off", "time": 255, "note": 61, "velocity": 108, "channel": 0}, {"type": "note_on", "time": 28, "note": 57, "velocity": 101, "channel": 0}, {"type": "note_off", "time": 330, "note": 57, "velocity": 101, "channel": 0}, {"type": "note_on", "time": 23, "note": 54, "velocity": 98, "channel": 0}, {"type": "note_off", "time": 259, "note": 54, "velocity": 98, "channel": 0}, {"type": "note_on", "time": 18, "note": 51, "velocity": 95, "channel": 0}, {"type": "note_off", "time": 274, "note": 51, "velocity": 95, "channel": 0}, {"type": "note_on", "time": 33, "note": 50, "velocity": 96, "channel": 0}, {"type": "note_off", "time": 477, "note": 50, "velocity": 96, "channel": 0}, {"type": "note_on", "time": 344, "note": 60, "velocity": 88, "channel": 0}, {"type": "note_off", "time": 401, "note": 60, "velocity": 88, "channel": 0}, {"type": "note_on", "time": 14, "note": 58, "velocity": 95, "channel": 0}, {"type": "note_off", "time": 155, "note": 58, "velocity": 95, "channel": 0}, {"type": "note_on", "time": 9, "note": 57, "velocity": 112, "channel": 0}, {"type": "note_off", "time": 236, "note": 57, "velocity": 112, "channel": 0}, {"type": "note_on", "time": 18, "note": 56, "velocity": 92, "channel": 0}, {"type": "note_off", "time": 585, "note": 56, "velocity": 92, "channel": 0}, {"type": "note_on", "time": 609, "note": 55, "velocity": 93, "channel": 0}, {"type": "note_off", "time": 581, "note": 55, "velocity": 93, "channel": 0}, {"type": "note_on", "time": 14, "note": 62, "velocity": 105, "channel": 0}, {"type": "note_off", "time": 510, "note": 62, "velocity": 105, "channel": 0}, {"type": "note_on", "time": 9, "note": 63, "velocity": 92, "channel": 0}, {"type": "note_off", "time": 425, "note": 63, "velocity": 92, "channel": 0}, {"type": "note_on", "time": 37, "note": 62, "velocity": 108, "channel": 0}, {"type": "note_off", "time": 363, "note": 62, "velocity": 108, "channel": 0}, {"type": "note_on", "time": 89, "note": 55, "velocity": 97, "channel": 0}, {"type": "note_off", "time": 406, "note": 55, "velocity": 97, "channel": 0}, {"type": "note_on", "time": 174, "note": 62, "velocity": 108, "channel": 0}, {"type": "note_off", "time": 467, "note": 62, "velocity": 108, "channel": 0}, {"type": "note_on", "time": 42, "note": 63, "velocity": 84, "channel": 0}, {"type": "note_off", "time": 401, "note": 63, "velocity": 84, "channel": 0}, {"type": "note_on", "time": 170, "note": 55, "velocity": 84, "channel": 0}, {"type": "note_off", "time": 940, "note": 55, "velocity": 84, "channel": 0}, {"type": "note_on", "time": 2509, "note": 51, "velocity": 113, "channel": 0}, {"type": "note_off", "time": 368, "note": 51, "velocity": 113, "channel": 0}, {"type": "note_on", "time": 47, "note": 53, "velocity": 108, "channel": 0}, {"type": "note_off", "time": 231, "note": 53, "velocity": 108, "channel": 0}, {"type": "note_on", "time": 40, "note": 54, "velocity": 97, "channel": 0}, {"type": "note_off", "time": 445, "note": 54, "velocity": 97, "channel": 0}, {"type": "note_on", "time": 43, "note": 65, "velocity": 110, "channel": 0}, {"type": "note_off", "time": 604, "note": 65, "velocity": 110, "channel": 0}, {"type": "note_on", "time": 33, "note": 64, "velocity": 95, "channel": 0}, {"type": "note_off", "time": 94, "note": 64, "velocity": 95, "channel": 0}, {"type": "note_on", "time": 28, "note": 65, "velocity": 112, "channel": 0}, {"type": "note_off", "time": 99, "note": 65, "velocity": 112, "channel": 0}, {"type": "note_on", "time": 47, "note": 64, "velocity": 90, "channel": 0}, {"type": "note_off", "time": 132, "note": 64, "velocity": 90, "channel": 0}, {"type": "note_on", "time": 122, "note": 54, "velocity": 99, "channel": 0}, {"type": "note_off", "time": 713, "note": 54, "velocity": 99, "channel": 0}, {"type": "note_on", "time": 37, "note": 53, "velocity": 99, "channel": 0}, {"type": "note_off", "time": 600, "note": 53, "velocity": 99, "channel": 0}, {"type": "note_on", "time": 23, "note": 62, "velocity": 103, "channel": 0}, {"type": "note_off", "time": 212, "note": 62, "velocity": 103, "channel": 0}, {"type": "note_on", "time": 9, "note": 63, "velocity": 86, "channel": 0}, {"type": "note_off", "time": 382, "note": 63, "velocity": 86, "channel": 0}, {"type": "note_on", "time": 37, "note": 62, "velocity": 101, "channel": 0}, {"type": "note_off", "time": 122, "note": 62, "velocity": 101, "channel": 0}, {"type": "note_on", "time": 14, "note": 63, "velocity": 87, "channel": 0}, {"type": "note_off", "time": 85, "note": 63, "velocity": 87, "channel": 0}, {"type": "note_on", "time": 28, "note": 62, "velocity": 108, "channel": 0}, {"type": "note_off", "time": 118, "note": 62, "velocity": 108, "channel": 0}, {"type": "note_on", "time": 236, "note": 53, "velocity": 98, "channel": 0}, {"type": "note_off", "time": 467, "note": 53, "velocity": 98, "channel": 0}, {"type": "note_on", "time": 18, "note": 50, "velocity": 99, "channel": 0}, {"type": "note_off", "time": 463, "note": 50, "velocity": 99, "channel": 0}, {"type": "note_on", "time": 37, "note": 51, "velocity": 102, "channel": 0}, {"type": "note_off", "time": 722, "note": 51, "velocity": 102, "channel": 0}, {"type": "note_on", "time": 33, "note": 61, "velocity": 102, "channel": 0}, {"type": "note_off", "time": 160, "note": 61, "velocity": 102, "channel": 0}, {"type": "note_on", "time": 28, "note": 62, "velocity": 98, "channel": 0}, {"type": "note_off", "time": 387, "note": 62, "velocity": 98, "channel": 0}, {"type": "note_on", "time": 51, "note": 58, "velocity": 88, "channel": 0}, {"type": "note_off", "time": 283, "note": 58, "velocity": 88, "channel": 0}, {"type": "note_on", "time": 23, "note": 60, "velocity": 90, "channel": 0}, {"type": "note_off", "time": 326, "note": 60, "velocity": 90, "channel": 0}, {"type": "note_on", "time": 28, "note": 62, "velocity": 99, "channel": 0}, {"type": "note_off", "time": 302, "note": 62, "velocity": 99, "channel": 0}, {"type": "note_on", "time": 94, "note": 55, "velocity": 85, "channel": 0}, {"type": "note_off", "time": 340, "note": 55, "velocity": 85, "channel": 0}, {"type": "note_on", "time": 14, "note": 58, "velocity": 86, "channel": 0}, {"type": "note_off", "time": 770, "note": 58, "velocity": 86, "channel": 0}, {"type": "note_on", "time": 2372, "note": 58, "velocity": 112, "channel": 0}, {"type": "note_off", "time": 278, "note": 58, "velocity": 112, "channel": 0}, {"type": "note_on", "time": 9, "note": 60, "velocity": 115, "channel": 0}, {"type": "note_off", "time": 288, "note": 60, "velocity": 115, "channel": 0}, {"type": "note_on", "time": 47, "note": 62, "velocity": 122, "channel": 0}, {"type": "note_off", "time": 321, "note": 62, "velocity": 122, "channel": 0}, {"type": "note_on", "time": 18, "note": 65, "velocity": 119, "channel": 0}, {"type": "note_off", "time": 330, "note": 65, "velocity": 119, "channel": 0}, {"type": "note_on", "time": 56, "note": 63, "velocity": 103, "channel": 0}, {"type": "note_off", "time": 278, "note": 63, "velocity": 103, "channel": 0}, {"type": "note_on", "time": 14, "note": 65, "velocity": 113, "channel": 0}, {"type": "note_off", "time": 354, "note": 65, "velocity": 113, "channel": 0}, {"type": "note_on", "time": 56, "note": 63, "velocity": 103, "channel": 0}, {"type": "note_off", "time": 326, "note": 63, "velocity": 103, "channel": 0}, {"type": "note_on", "time": 47, "note": 65, "velocity": 107, "channel": 0}, {"type": "note_off", "time": 146, "note": 65, "velocity": 107, "channel": 0}, {"type": "note_on", "time": 37, "note": 66, "velocity": 93, "channel": 0}, {"type": "note_off", "time": 434, "note": 66, "velocity": 93, "channel": 0}, {"type": "note_on", "time": 33, "note": 58, "velocity": 95, "channel": 0}, {"type": "note_off", "time": 392, "note": 58, "velocity": 95, "channel": 0}, {"type": "note_on", "time": 61, "note": 61, "velocity": 115, "channel": 0}, {"type": "note_off", "time": 141, "note": 61, "velocity": 115, "channel": 0}, {"type": "note_on", "time": 28, "note": 62, "velocity": 98, "channel": 0}, {"type": "note_off", "time": 288, "note": 62, "velocity": 98, "channel": 0}, {"type": "note_on", "time": 23, "note": 61, "velocity": 109, "channel": 0}, {"type": "note_off", "time": 160, "note": 61, "velocity": 109, "channel": 0}, {"type": "note_on", "time": 9, "note": 62, "velocity": 106, "channel": 0}, {"type": "note_off", "time": 302, "note": 62, "velocity": 106, "channel": 0}, {"type": "note_on", "time": 75, "note": 58, "velocity": 91, "channel": 0}, {"type": "note_off", "time": 363, "note": 58, "velocity": 91, "channel": 0}, {"type": "note_on", "time": 85, "note": 60, "velocity": 100, "channel": 0}, {"type": "note_off", "time": 335, "note": 60, "velocity": 100, "channel": 0}, {"type": "note_on", "time": 1204, "note": 58, "velocity": 96, "channel": 0}, {"type": "note_off", "time": 264, "note": 58, "velocity": 96, "channel": 0}, {"type": "note_on", "time": 28, "note": 57, "velocity": 91, "channel": 0}, {"type": "note_off", "time": 103, "note": 57, "velocity": 91, "channel": 0}, {"type": "note_on", "time": 42, "note": 58, "velocity": 99, "channel": 0}, {"type": "note_off", "time": 75, "note": 58, "velocity": 99, "channel": 0}, {"type": "note_on", "time": 42, "note": 57, "velocity": 89, "channel": 0}, {"type": "note_off", "time": 151, "note": 57, "velocity": 89, "channel": 0}, {"type": "note_on", "time": 47, "note": 55, "velocity": 101, "channel": 0}, {"type": "note_off", "time": 269, "note": 55, "velocity": 101, "channel": 0}, {"type": "note_on", "time": 75, "note": 65, "velocity": 101, "channel": 0}, {"type": "note_off", "time": 278, "note": 65, "velocity": 101, "channel": 0}, {"type": "note_on", "time": 18, "note": 62, "velocity": 105, "channel": 0}, {"type": "note_off", "time": 311, "note": 62, "velocity": 105, "channel": 0}, {"type": "note_on", "time": 4, "note": 58, "velocity": 95, "channel": 0}, {"type": "note_off", "time": 264, "note": 58, "velocity": 95, "channel": 0}, {"type": "note_on", "time": 42, "note": 55, "velocity": 93, "channel": 0}, {"type": "note_off", "time": 297, "note": 55, "velocity": 93, "channel": 0}, {"type": "note_on", "time": 51, "note": 57, "velocity": 96, "channel": 0}, {"type": "note_off", "time": 340, "note": 57, "velocity": 96, "channel": 0}, {"type": "note_on", "time": 23, "note": 55, "velocity": 87, "channel": 0}, {"type": "note_off", "time": 269, "note": 55, "velocity": 87, "channel": 0}, {"type": "note_on", "time": 80, "note": 53, "velocity": 96, "channel": 0}, {"type": "note_off", "time": 307, "note": 53, "velocity": 96, "channel": 0}, {"type": "note_on", "time": 42, "note": 50, "velocity": 95, "channel": 0}, {"type": "note_off", "time": 406, "note": 50, "velocity": 95, "channel": 0}, {"type": "note_on", "time": 274, "note": 62, "velocity": 96, "channel": 0}, {"type": "note_off", "time": 604, "note": 62, "velocity": 96, "channel": 0}, {"type": "note_on", "time": 18, "note": 58, "velocity": 91, "channel": 0}, {"type": "note_off", "time": 401, "note": 58, "velocity": 91, "channel": 0}, {"type": "note_on", "time": 165, "note": 55, "velocity": 87, "channel": 0}, {"type": "note_off", "time": 269, "note": 55, "velocity": 87, "channel": 0}, {"type": "note_on", "time": 193, "note": 56, "velocity": 104, "channel": 0}, {"type": "note_off", "time": 297, "note": 56, "velocity": 104, "channel": 0}, {"type": "note_on", "time": 66, "note": 57, "velocity": 90, "channel": 0}, {"type": "note_off", "time": 236, "note": 57, "velocity": 90, "channel": 0}, {"type": "note_on", "time": 108, "note": 65, "velocity": 93, "channel": 0}, {"type": "note_off", "time": 907, "note": 65, "velocity": 93, "channel": 0}, {"type": "note_on", "time": 42, "note": 62, "velocity": 102, "channel": 0}, {"type": "note_off", "time": 467, "note": 62, "velocity": 102, "channel": 0}, {"type": "note_on", "time": 198, "note": 53, "velocity": 95, "channel": 0}, {"type": "note_off", "time": 396, "note": 53, "velocity": 95, "channel": 0}, {"type": "note_on", "time": 56, "note": 55, "velocity": 89, "channel": 0}, {"type": "note_off", "time": 245, "note": 55, "velocity": 89, "channel": 0}, {"type": "note_on", "time": 33, "note": 58, "velocity": 89, "channel": 0}, {"type": "note_off", "time": 571, "note": 58, "velocity": 89, "channel": 0}, {"type": "note_on", "time": 2575, "note": 53, "velocity": 100, "channel": 0}, {"type": "note_off", "time": 198, "note": 53, "velocity": 100, "channel": 0}, {"type": "note_on", "time": 18, "note": 58, "velocity": 104, "channel": 0}, {"type": "note_off", "time": 439, "note": 58, "velocity": 104, "channel": 0}, {"type": "note_on", "time": 0, "note": 60, "velocity": 117, "channel": 0}, {"type": "note_off", "time": 335, "note": 60, "velocity": 117, "channel": 0}, {"type": "note_on", "time": 51, "note": 58, "velocity": 96, "channel": 0}, {"type": "note_off", "time": 231, "note": 58, "velocity": 96, "channel": 0}, {"type": "note_on", "time": 61, "note": 61, "velocity": 119, "channel": 0}, {"type": "note_off", "time": 359, "note": 61, "velocity": 119, "channel": 0}, {"type": "note_on", "time": 80, "note": 58, "velocity": 94, "channel": 0}, {"type": "note_off", "time": 278, "note": 58, "velocity": 94, "channel": 0}, {"type": "note_on", "time": 179, "note": 60, "velocity": 117, "channel": 0}, {"type": "note_off", "time": 288, "note": 60, "velocity": 117, "channel": 0}, {"type": "note_on", "time": 56, "note": 62, "velocity": 112, "channel": 0}, {"type": "note_off", "time": 340, "note": 62, "velocity": 112, "channel": 0}, {"type": "note_on", "time": 9, "note": 65, "velocity": 110, "channel": 0}, {"type": "note_off", "time": 335, "note": 65, "velocity": 110, "channel": 0}, {"type": "note_on", "time": 99, "note": 58, "velocity": 113, "channel": 0}, {"type": "note_off", "time": 70, "note": 58, "velocity": 113, "channel": 0}, {"type": "note_on", "time": 37, "note": 61, "velocity": 109, "channel": 0}, {"type": "note_off", "time": 222, "note": 61, "velocity": 109, "channel": 0}, {"type": "note_on", "time": 354, "note": 53, "velocity": 106, "channel": 0}, {"type": "note_off", "time": 652, "note": 53, "velocity": 106, "channel": 0}, {"type": "note_on", "time": 33, "note": 55, "velocity": 72, "channel": 0}, {"type": "note_off", "time": 859, "note": 55, "velocity": 72, "channel": 0}, {"type": "note_on", "time": 2688, "note": 61, "velocity": 118, "channel": 0}, {"type": "note_off", "time": 373, "note": 61, "velocity": 118, "channel": 0}, {"type": "note_on", "time": 9, "note": 62, "velocity": 119, "channel": 0}, {"type": "note_off", "time": 467, "note": 62, "velocity": 119, "channel": 0}, {"type": "note_on", "time": 23, "note": 64, "velocity": 117, "channel": 0}, {"type": "note_off", "time": 340, "note": 64, "velocity": 117, "channel": 0}, {"type": "note_on", "time": 18, "note": 65, "velocity": 120, "channel": 0}, {"type": "note_off", "time": 321, "note": 65, "velocity": 120, "channel": 0}, {"type": "note_on", "time": 47, "note": 62, "velocity": 115, "channel": 0}, {"type": "note_off", "time": 368, "note": 62, "velocity": 115, "channel": 0}, {"type": "note_on", "time": 18, "note": 65, "velocity": 112, "channel": 0}, {"type": "note_off", "time": 307, "note": 65, "velocity": 112, "channel": 0}, {"type": "note_on", "time": 28, "note": 63, "velocity": 96, "channel": 0}, {"type": "note_off", "time": 283, "note": 63, "velocity": 96, "channel": 0}, {"type": "note_on", "time": 316, "note": 64, "velocity": 114, "channel": 0}, {"type": "note_off", "time": 174, "note": 64, "velocity": 114, "channel": 0}, {"type": "note_on", "time": 23, "note": 65, "velocity": 108, "channel": 0}, {"type": "note_off", "time": 727, "note": 65, "velocity": 108, "channel": 0}, {"type": "note_on", "time": 4, "note": 63, "velocity": 94, "channel": 0}, {"type": "note_off", "time": 382, "note": 63, "velocity": 94, "channel": 0}, {"type": "note_on", "time": 132, "note": 65, "velocity": 100, "channel": 0}, {"type": "note_off", "time": 585, "note": 65, "velocity": 100, "channel": 0}, {"type": "note_on", "time": 4, "note": 63, "velocity": 93, "channel": 0}, {"type": "note_off", "time": 694, "note": 63, "velocity": 93, "channel": 0}, {"type": "note_on", "time": 1587, "note": 61, "velocity": 114, "channel": 0}, {"type": "note_off", "time": 269, "note": 61, "velocity": 114, "channel": 0}, {"type": "note_on", "time": 33, "note": 62, "velocity": 114, "channel": 0}, {"type": "note_off", "time": 259, "note": 62, "velocity": 114, "channel": 0}, {"type": "note_on", "time": 70, "note": 63, "velocity": 111, "channel": 0}, {"type": "note_off", "time": 264, "note": 63, "velocity": 111, "channel": 0}, {"type": "note_on", "time": 56, "note": 61, "velocity": 103, "channel": 0}, {"type": "note_off", "time": 274, "note": 61, "velocity": 103, "channel": 0}, {"type": "note_on", "time": 99, "note": 62, "velocity": 116, "channel": 0}, {"type": "note_off", "time": 340, "note": 62, "velocity": 116, "channel": 0}, {"type": "note_on", "time": 103, "note": 58, "velocity": 78, "channel": 0}, {"type": "note_off", "time": 203, "note": 58, "velocity": 78, "channel": 0}, {"type": "note_on", "time": 160, "note": 53, "velocity": 102, "channel": 0}, {"type": "note_off", "time": 255, "note": 53, "velocity": 102, "channel": 0}, {"type": "note_on", "time": 42, "note": 51, "velocity": 105, "channel": 0}, {"type": "note_off", "time": 245, "note": 51, "velocity": 105, "channel": 0}, {"type": "note_on", "time": 23, "note": 52, "velocity": 92, "channel": 0}, {"type": "note_off", "time": 548, "note": 52, "velocity": 92, "channel": 0}, {"type": "note_on", "time": 2225, "note": 52, "velocity": 95, "channel": 0}, {"type": "note_off", "time": 415, "note": 52, "velocity": 95, "channel": 0}, {"type": "note_on", "time": 28, "note": 53, "velocity": 115, "channel": 0}, {"type": "note_off", "time": 193, "note": 53, "velocity": 115, "channel": 0}, {"type": "note_on", "time": 51, "note": 54, "velocity": 104, "channel": 0}, {"type": "note_off", "time": 118, "note": 54, "velocity": 104, "channel": 0}, {"type": "note_on", "time": 18, "note": 57, "velocity": 110, "channel": 0}, {"type": "note_off", "time": 146, "note": 57, "velocity": 110, "channel": 0}, {"type": "note_on", "time": 14, "note": 62, "velocity": 117, "channel": 0}, {"type": "note_off", "time": 193, "note": 62, "velocity": 117, "channel": 0}, {"type": "note_on", "time": 94, "note": 63, "velocity": 111, "channel": 0}, {"type": "note_off", "time": 179, "note": 63, "velocity": 111, "channel": 0}, {"type": "note_on", "time": 23, "note": 64, "velocity": 124, "channel": 0}, {"type": "note_off", "time": 207, "note": 64, "velocity": 124, "channel": 0}, {"type": "note_on", "time": 37, "note": 65, "velocity": 116, "channel": 0}, {"type": "note_off", "time": 264, "note": 65, "velocity": 116, "channel": 0}, {"type": "note_on", "time": 4, "note": 67, "velocity": 107, "channel": 0}, {"type": "note_off", "time": 151, "note": 67, "velocity": 107, "channel": 0}, {"type": "note_on", "time": 14, "note": 65, "velocity": 118, "channel": 0}, {"type": "note_off", "time": 151, "note": 65, "velocity": 118, "channel": 0}, {"type": "note_on", "time": 9, "note": 64, "velocity": 115, "channel": 0}, {"type": "note_off", "time": 217, "note": 64, "velocity": 115, "channel": 0}, {"type": "note_on", "time": 51, "note": 63, "velocity": 106, "channel": 0}, {"type": "note_off", "time": 321, "note": 63, "velocity": 106, "channel": 0}, {"type": "note_on", "time": 283, "note": 70, "velocity": 117, "channel": 0}, {"type": "note_off", "time": 269, "note": 70, "velocity": 117, "channel": 0}, {"type": "note_on", "time": 75, "note": 67, "velocity": 105, "channel": 0}, {"type": "note_off", "time": 240, "note": 67, "velocity": 105, "channel": 0}, {"type": "note_on", "time": 80, "note": 65, "velocity": 105, "channel": 0}, {"type": "note_off", "time": 274, "note": 65, "velocity": 105, "channel": 0}, {"type": "note_on", "time": 51, "note": 63, "velocity": 98, "channel": 0}, {"type": "note_off", "time": 245, "note": 63, "velocity": 98, "channel": 0}, {"type": "note_on", "time": 51, "note": 58, "velocity": 115, "channel": 0}, {"type": "note_off", "time": 297, "note": 58, "velocity": 115, "channel": 0}, {"type": "note_on", "time": 80, "note": 55, "velocity": 92, "channel": 0}, {"type": "note_off", "time": 326, "note": 55, "velocity": 92, "channel": 0}, {"type": "note_on", "time": 37, "note": 61, "velocity": 105, "channel": 0}, {"type": "note_off", "time": 70, "note": 61, "velocity": 105, "channel": 0}, {"type": "note_on", "time": 9, "note": 62, "velocity": 107, "channel": 0}, {"type": "note_off", "time": 311, "note": 62, "velocity": 107, "channel": 0}, {"type": "note_on", "time": 42, "note": 65, "velocity": 102, "channel": 0}, {"type": "note_off", "time": 359, "note": 65, "velocity": 102, "channel": 0}, {"type": "note_on", "time": 75, "note": 60, "velocity": 91, "channel": 0}, {"type": "note_off", "time": 774, "note": 60, "velocity": 91, "channel": 0}, {"type": "note_on", "time": 1526, "note": 56, "velocity": 121, "channel": 0}, {"type": "note_off", "time": 330, "note": 56, "velocity": 121, "channel": 0}, {"type": "note_on", "time": 51, "note": 55, "velocity": 101, "channel": 0}, {"type": "note_off", "time": 217, "note": 55, "velocity": 101, "channel": 0}, {"type": "note_on", "time": 47, "note": 53, "velocity": 94, "channel": 0}, {"type": "note_off", "time": 264, "note": 53, "velocity": 94, "channel": 0}, {"type": "note_on", "time": 71, "note": 60, "velocity": 113, "channel": 0}, {"type": "note_off", "time": 279, "note": 60, "velocity": 113, "channel": 0}, {"type": "note_on", "time": 328, "note": 63, "velocity": 98, "channel": 0}, {"type": "note_off", "time": 285, "note": 63, "velocity": 98, "channel": 0}, {"type": "note_on", "time": 386, "note": 66, "velocity": 106, "channel": 0}, {"type": "note_off", "time": 255, "note": 66, "velocity": 106, "channel": 0}, {"type": "note_on", "time": 330, "note": 69, "velocity": 83, "channel": 0}, {"type": "note_off", "time": 741, "note": 69, "velocity": 83, "channel": 0}, {"type": "note_on", "time": 163, "note": 62, "velocity": 109, "channel": 0}, {"type": "note_off", "time": 272, "note": 62, "velocity": 109, "channel": 0}, {"type": "note_on", "time": 76, "note": 64, "velocity": 115, "channel": 0}, {"type": "note_off", "time": 345, "note": 64, "velocity": 115, "channel": 0}, {"type": "note_on", "time": 425, "note": 69, "velocity": 92, "channel": 0}, {"type": "note_off", "time": 348, "note": 69, "velocity": 92, "channel": 0}, {"type": "note_on", "time": 6, "note": 70, "velocity": 83, "channel": 0}, {"type": "note_off", "time": 99, "note": 70, "velocity": 83, "channel": 0}, {"type": "note_on", "time": 19, "note": 69, "velocity": 94, "channel": 0}, {"type": "note_off", "time": 139, "note": 69, "velocity": 94, "channel": 0}, {"type": "note_on", "time": 19, "note": 67, "velocity": 95, "channel": 0}, {"type": "note_off", "time": 242, "note": 67, "velocity": 95, "channel": 0}, {"type": "note_on", "time": 56, "note": 69, "velocity": 96, "channel": 0}, {"type": "note_off", "time": 312, "note": 69, "velocity": 96, "channel": 0}, {"type": "note_on", "time": 41, "note": 67, "velocity": 95, "channel": 0}, {"type": "note_off", "time": 359, "note": 67, "velocity": 95, "channel": 0}, {"type": "note_on", "time": 4, "note": 62, "velocity": 105, "channel": 0}, {"type": "note_off", "time": 488, "note": 62, "velocity": 105, "channel": 0}, {"type": "note_on", "time": 281, "note": 58, "velocity": 88, "channel": 0}, {"type": "note_off", "time": 311, "note": 58, "velocity": 88, "channel": 0}, {"type": "note_on", "time": 37, "note": 60, "velocity": 92, "channel": 0}, {"type": "note_off", "time": 491, "note": 60, "velocity": 92, "channel": 0}, {"type": "note_on", "time": 47, "note": 58, "velocity": 93, "channel": 0}, {"type": "note_off", "time": 737, "note": 58, "velocity": 93, "channel": 0}, {"type": "note_on", "time": 1544, "note": 53, "velocity": 106, "channel": 0}, {"type": "note_off", "time": 318, "note": 53, "velocity": 106, "channel": 0}, {"type": "note_on", "time": 46, "note": 54, "velocity": 98, "channel": 0}, {"type": "note_off", "time": 505, "note": 54, "velocity": 98, "channel": 0}, {"type": "note_on", "time": 42, "note": 56, "velocity": 99, "channel": 0}, {"type": "note_off", "time": 708, "note": 56, "velocity": 99, "channel": 0}, {"type": "note_on", "time": 940, "note": 50, "velocity": 97, "channel": 0}, {"type": "note_off", "time": 349, "note": 50, "velocity": 97, "channel": 0}, {"type": "note_on", "time": 170, "note": 53, "velocity": 94, "channel": 0}, {"type": "note_off", "time": 614, "note": 53, "velocity": 94, "channel": 0}, {"type": "note_on", "time": 85, "note": 49, "velocity": 94, "channel": 0}, {"type": "note_off", "time": 349, "note": 49, "velocity": 94, "channel": 0}, {"type": "note_on", "time": 28, "note": 50, "velocity": 98, "channel": 0}, {"type": "note_off", "time": 538, "note": 50, "velocity": 98, "channel": 0}, {"type": "note_on", "time": 870, "note": 52, "velocity": 117, "channel": 0}, {"type": "note_off", "time": 392, "note": 52, "velocity": 117, "channel": 0}, {"type": "note_on", "time": 36, "note": 53, "velocity": 119, "channel": 0}, {"type": "note_off", "time": 285, "note": 53, "velocity": 119, "channel": 0}, {"type": "note_on", "time": 39, "note": 54, "velocity": 111, "channel": 0}, {"type": "note_off", "time": 385, "note": 54, "velocity": 111, "channel": 0}, {"type": "note_on", "time": 30, "note": 55, "velocity": 107, "channel": 0}, {"type": "note_off", "time": 528, "note": 55, "velocity": 107, "channel": 0}, {"type": "note_on", "time": 133, "note": 56, "velocity": 104, "channel": 0}, {"type": "note_off", "time": 259, "note": 56, "velocity": 104, "channel": 0}, {"type": "note_on", "time": 47, "note": 58, "velocity": 109, "channel": 0}, {"type": "note_off", "time": 321, "note": 58, "velocity": 109, "channel": 0}, {"type": "note_on", "time": 91, "note": 62, "velocity": 112, "channel": 0}, {"type": "note_off", "time": 461, "note": 62, "velocity": 112, "channel": 0}, {"type": "note_on", "time": 66, "note": 63, "velocity": 100, "channel": 0}, {"type": "note_off", "time": 362, "note": 63, "velocity": 100, "channel": 0}, {"type": "note_on", "time": 36, "note": 62, "velocity": 116, "channel": 0}, {"type": "note_off", "time": 375, "note": 62, "velocity": 116, "channel": 0}, {"type": "note_on", "time": 79, "note": 62, "velocity": 110, "channel": 0}, {"type": "note_off", "time": 448, "note": 62, "velocity": 110, "channel": 0}, {"type": "note_on", "time": 16, "note": 64, "velocity": 114, "channel": 0}, {"type": "note_off", "time": 142, "note": 64, "velocity": 114, "channel": 0}, {"type": "note_on", "time": 3, "note": 65, "velocity": 108, "channel": 0}, {"type": "note_off", "time": 495, "note": 65, "velocity": 108, "channel": 0}, {"type": "note_on", "time": 38, "note": 63, "velocity": 94, "channel": 0}, {"type": "note_off", "time": 207, "note": 63, "velocity": 94, "channel": 0}, {"type": "note_on", "time": 75, "note": 55, "velocity": 89, "channel": 0}, {"type": "note_off", "time": 1063, "note": 55, "velocity": 89, "channel": 0}, {"type": "note_on", "time": 1927, "note": 67, "velocity": 111, "channel": 0}, {"type": "note_off", "time": 305, "note": 67, "velocity": 111, "channel": 0}, {"type": "note_on", "time": 93, "note": 72, "velocity": 111, "channel": 0}, {"type": "note_off", "time": 272, "note": 72, "velocity": 111, "channel": 0}, {"type": "note_on", "time": 19, "note": 71, "velocity": 113, "channel": 0}, {"type": "note_off", "time": 252, "note": 71, "velocity": 113, "channel": 0}, {"type": "note_on", "time": 119, "note": 70, "velocity": 110, "channel": 0}, {"type": "note_off", "time": 378, "note": 70, "velocity": 110, "channel": 0}, {"type": "note_on", "time": 89, "note": 69, "velocity": 103, "channel": 0}, {"type": "note_off", "time": 448, "note": 69, "velocity": 103, "channel": 0}, {"type": "note_on", "time": 39, "note": 68, "velocity": 97, "channel": 0}, {"type": "note_off", "time": 445, "note": 68, "velocity": 97, "channel": 0}, {"type": "note_on", "time": 89, "note": 66, "velocity": 109, "channel": 0}, {"type": "note_off", "time": 461, "note": 66, "velocity": 109, "channel": 0}, {"type": "note_on", "time": 66, "note": 66, "velocity": 98, "channel": 0}, {"type": "note_off", "time": 302, "note": 66, "velocity": 98, "channel": 0}, {"type": "note_on", "time": 9, "note": 67, "velocity": 94, "channel": 0}, {"type": "note_off", "time": 438, "note": 67, "velocity": 94, "channel": 0}, {"type": "note_on", "time": 86, "note": 62, "velocity": 99, "channel": 0}, {"type": "note_off", "time": 475, "note": 62, "velocity": 99, "channel": 0}, {"type": "note_on", "time": 136, "note": 58, "velocity": 100, "channel": 0}, {"type": "note_off", "time": 307, "note": 58, "velocity": 100, "channel": 0}, {"type": "note_on", "time": 410, "note": 55, "velocity": 83, "channel": 0}, {"type": "note_off", "time": 285, "note": 55, "velocity": 83, "channel": 0}, {"type": "note_on", "time": 23, "note": 57, "velocity": 100, "channel": 0}, {"type": "note_off", "time": 392, "note": 57, "velocity": 100, "channel": 0}, {"type": "note_on", "time": 308, "note": 61, "velocity": 102, "channel": 0}, {"type": "note_off", "time": 252, "note": 61, "velocity": 102, "channel": 0}, {"type": "note_on", "time": 29, "note": 62, "velocity": 94, "channel": 0}, {"type": "note_off", "time": 315, "note": 62, "velocity": 94, "channel": 0}, {"type": "note_on", "time": 69, "note": 55, "velocity": 86, "channel": 0}, {"type": "note_off", "time": 468, "note": 55, "velocity": 86, "channel": 0}, {"type": "note_on", "time": 39, "note": 58, "velocity": 76, "channel": 0}, {"type": "note_off", "time": 843, "note": 58, "velocity": 76, "channel": 0}, {"type": "note_on", "time": 2468, "note": 58, "velocity": 111, "channel": 0}, {"type": "note_off", "time": 338, "note": 58, "velocity": 111, "channel": 0}, {"type": "note_on", "time": 73, "note": 58, "velocity": 108, "channel": 0}, {"type": "note_off", "time": 362, "note": 58, "velocity": 108, "channel": 0}, {"type": "note_on", "time": 63, "note": 62, "velocity": 117, "channel": 0}, {"type": "note_off", "time": 126, "note": 62, "velocity": 117, "channel": 0}, {"type": "note_on", "time": 2, "note": 65, "velocity": 121, "channel": 0}, {"type": "note_off", "time": 465, "note": 65, "velocity": 121, "channel": 0}, {"type": "note_on", "time": 60, "note": 62, "velocity": 110, "channel": 0}, {"type": "note_off", "time": 99, "note": 62, "velocity": 110, "channel": 0}, {"type": "note_on", "time": 12, "note": 65, "velocity": 117, "channel": 0}, {"type": "note_off", "time": 441, "note": 65, "velocity": 117, "channel": 0}, {"type": "note_on", "time": 49, "note": 62, "velocity": 113, "channel": 0}, {"type": "note_off", "time": 127, "note": 62, "velocity": 113, "channel": 0}, {"type": "note_on", "time": 89, "note": 65, "velocity": 119, "channel": 0}, {"type": "note_off", "time": 395, "note": 65, "velocity": 119, "channel": 0}, {"type": "note_on", "time": 72, "note": 65, "velocity": 114, "channel": 0}, {"type": "note_off", "time": 165, "note": 65, "velocity": 114, "channel": 0}, {"type": "note_on", "time": 31, "note": 64, "velocity": 118, "channel": 0}, {"type": "note_off", "time": 159, "note": 64, "velocity": 118, "channel": 0}, {"type": "note_on", "time": 26, "note": 62, "velocity": 113, "channel": 0}, {"type": "note_off", "time": 269, "note": 62, "velocity": 113, "channel": 0}, {"type": "note_on", "time": 59, "note": 63, "velocity": 115, "channel": 0}, {"type": "note_off", "time": 172, "note": 63, "velocity": 115, "channel": 0}, {"type": "note_on", "time": 16, "note": 64, "velocity": 125, "channel": 0}, {"type": "note_off", "time": 255, "note": 64, "velocity": 125, "channel": 0}, {"type": "note_on", "time": 23, "note": 65, "velocity": 106, "channel": 0}, {"type": "note_off", "time": 299, "note": 65, "velocity": 106, "channel": 0}, {"type": "note_on", "time": 122, "note": 58, "velocity": 91, "channel": 0}, {"type": "note_off", "time": 305, "note": 58, "velocity": 91, "channel": 0}, {"type": "note_on", "time": 73, "note": 63, "velocity": 95, "channel": 0}, {"type": "note_off", "time": 328, "note": 63, "velocity": 95, "channel": 0}, {"type": "note_on", "time": 49, "note": 65, "velocity": 108, "channel": 0}, {"type": "note_off", "time": 265, "note": 65, "velocity": 108, "channel": 0}, {"type": "note_on", "time": 46, "note": 61, "velocity": 108, "channel": 0}, {"type": "note_off", "time": 325, "note": 61, "velocity": 108, "channel": 0}, {"type": "note_on", "time": 36, "note": 62, "velocity": 108, "channel": 0}, {"type": "note_off", "time": 288, "note": 62, "velocity": 108, "channel": 0}, {"type": "note_on", "time": 30, "note": 67, "velocity": 101, "channel": 0}, {"type": "note_off", "time": 252, "note": 67, "velocity": 101, "channel": 0}, {"type": "note_on", "time": 33, "note": 65, "velocity": 99, "channel": 0}, {"type": "note_off", "time": 289, "note": 65, "velocity": 99, "channel": 0}, {"type": "note_on", "time": 60, "note": 62, "velocity": 105, "channel": 0}, {"type": "note_off", "time": 373, "note": 62, "velocity": 105, "channel": 0}, {"type": "note_on", "time": 61, "note": 57, "velocity": 86, "channel": 0}, {"type": "note_off", "time": 1043, "note": 57, "velocity": 86, "channel": 0}, {"type": "note_on", "time": 1584, "note": 55, "velocity": 100, "channel": 0}, {"type": "note_off", "time": 282, "note": 55, "velocity": 100, "channel": 0}, {"type": "note_on", "time": 39, "note": 53, "velocity": 96, "channel": 0}, {"type": "note_off", "time": 259, "note": 53, "velocity": 96, "channel": 0}, {"type": "note_on", "time": 29, "note": 62, "velocity": 103, "channel": 0}, {"type": "note_off", "time": 385, "note": 62, "velocity": 103, "channel": 0}, {"type": "note_on", "time": 32, "note": 58, "velocity": 93, "channel": 0}, {"type": "note_off", "time": 245, "note": 58, "velocity": 93, "channel": 0}, {"type": "note_on", "time": 9, "note": 55, "velocity": 90, "channel": 0}, {"type": "note_off", "time": 297, "note": 55, "velocity": 90, "channel": 0}, {"type": "note_on", "time": 19, "note": 53, "velocity": 101, "channel": 0}, {"type": "note_off", "time": 245, "note": 53, "velocity": 101, "channel": 0}, {"type": "note_on", "time": 46, "note": 50, "velocity": 92, "channel": 0}, {"type": "note_off", "time": 392, "note": 50, "velocity": 92, "channel": 0}, {"type": "note_on", "time": 14, "note": 51, "velocity": 103, "channel": 0}, {"type": "note_off", "time": 179, "note": 51, "velocity": 103, "channel": 0}, {"type": "note_on", "time": 44, "note": 52, "velocity": 107, "channel": 0}, {"type": "note_off", "time": 415, "note": 52, "velocity": 107, "channel": 0}, {"type": "note_on", "time": 43, "note": 62, "velocity": 105, "channel": 0}, {"type": "note_off", "time": 272, "note": 62, "velocity": 105, "channel": 0}, {"type": "note_on", "time": 43, "note": 58, "velocity": 108, "channel": 0}, {"type": "note_off", "time": 328, "note": 58, "velocity": 108, "channel": 0}, {"type": "note_on", "time": 428, "note": 56, "velocity": 106, "channel": 0}, {"type": "note_off", "time": 282, "note": 56, "velocity": 106, "channel": 0}, {"type": "note_on", "time": 9, "note": 57, "velocity": 102, "channel": 0}, {"type": "note_off", "time": 292, "note": 57, "velocity": 102, "channel": 0}, {"type": "note_on", "time": 39, "note": 60, "velocity": 98, "channel": 0}, {"type": "note_off", "time": 259, "note": 60, "velocity": 98, "channel": 0}, {"type": "note_on", "time": 342, "note": 53, "velocity": 93, "channel": 0}, {"type": "note_off", "time": 388, "note": 53, "velocity": 93, "channel": 0}, {"type": "note_on", "time": 3, "note": 55, "velocity": 83, "channel": 0}, {"type": "note_off", "time": 249, "note": 55, "velocity": 83, "channel": 0}, {"type": "note_on", "time": 5, "note": 58, "velocity": 89, "channel": 0}, {"type": "note_off", "time": 4281, "note": 58, "velocity": 89, "channel": 0}, {"type": "end_of_track", "time": 0}]]}