{"ticks_per_beat": 192, "tracks": [[{"type": "track_name", "name": "Melody", "time": 0}, {"type": "set_tempo", "tempo": 342857, "time": 0}, {"type": "key_signature", "key": "Bb", "time": 0}, {"type": "time_signature", "numerator": 4, "denominator": 4, "clocks_per_click": 24, "notated_32nd_notes_per_beat": 8, "time": 0}, {"type": "note_on", "time": 1762, "note": 58, "velocity": 107, "channel": 0}, {"type": "note_off", "time": 60, "note": 58, "velocity": 107, "channel": 0}, {"type": "note_on", "time": 8, "note": 62, "velocity": 103, "channel": 0}, {"type": "note_off", "time": 41, "note": 62, "velocity": 103, "channel": 0}, {"type": "note_on", "time": 21, "note": 65, "velocity": 117, "channel": 0}, {"type": "note_off", "time": 67, "note": 65, "velocity": 117, "channel": 0}, {"type": "note_on", "time": 6, "note": 67, "velocity": 111, "channel": 0}, {"type": "note_off", "time": 67, "note": 67, "velocity": 111, "channel": 0}, {"type": "note_on", "time": 4, "note": 70, "velocity": 117, "channel": 0}, {"type": "note_off", "time": 113, "note": 70, "velocity": 117, "channel": 0}, {"type": "note_on", "time": 20, "note": 74, "velocity": 120, "channel": 0}, {"type": "note_off", "time": 55, "note": 74, "velocity": 120, "channel": 0}, {"type": "note_on", "time": 22, "note": 72, "velocity": 125, "channel": 0}, {"type": "note_off", "time": 90, "note": 72, "velocity": 125, "channel": 0}, {"type": "note_on", "time": 34, "note": 74, "velocity": 113, "channel": 0}, {"type": "note_off", "time": 51, "note": 74, "velocity": 113, "channel": 0}, {"type": "note_on", "time": 12, "note": 72, "velocity": 124, "channel": 0}, {"type": "note_off", "time": 53, "note": 72, "velocity": 124, "channel": 0}, {"type": "note_on", "time": 10, "note": 74, "velocity": 114, "channel": 0}, {"type": "note_off", "time": 30, "note": 74, "velocity": 114, "channel": 0}, {"type": "note_on", "time": 21, "note": 72, "velocity": 121, "channel": 0}, {"type": "note_off", "time": 52, "note": 72, "velocity": 121, "channel": 0}, {"type": "note_on", "time": 11, "note": 70, "velocity": 120, "channel": 0}, {"type": "note_off", "time": 49, "note": 70, "velocity": 120, "channel": 0}, {"type": "note_on", "time": 18, "note": 68, "velocity": 110, "channel": 0}, {"type": "note_off", "time": 45, "note": 68, "velocity": 110, "channel": 0}, {"type": "note_on", "time": 5, "note": 67, "velocity": 107, "channel": 0}, {"type": "note_off", "time": 27, "note": 67, "velocity": 107, "channel": 0}, {"type": "note_on", "time": 25, "note": 65, "velocity": 116, "channel": 0}, {"type": "note_off", "time": 60, "note": 65, "velocity": 116, "channel": 0}, {"type": "note_on", "time": 32, "note": 63, "velocity": 108, "channel": 0}, {"type": "note_off", "time": 42, "note": 63, "velocity": 108, "channel": 0}, {"type": "note_on", "time": 11, "note": 65, "velocity": 119, "channel": 0}, {"type": "note_off", "time": 64, "note": 65, "velocity": 119, "channel": 0}, {"type": "note_on", "time": 21, "note": 63, "velocity": 104, "channel": 0}, {"type": "note_off", "time": 49, "note": 63, "velocity": 104, "channel": 0}, {"type": "note_on", "time": 11, "note": 65, "velocity": 119, "channel": 0}, {"type": "note_off", "time": 38, "note": 65, "velocity": 119, "channel": 0}, {"type": "note_on", "time": 10, "note": 63, "velocity": 107, "channel": 0}, {"type": "note_off", "time": 58, "note": 63, "velocity": 107, "channel": 0}, {"type": "note_on", "time": 27, "note": 62, "velocity": 97, "channel": 0}, {"type": "note_off", "time": 77, "note": 62, "velocity": 97, "channel": 0}, {"type": "note_on", "time": 111, "note": 58, "velocity": 107, "channel": 0}, {"type": "note_off", "time": 85, "note": 58, "velocity": 107, "channel": 0}, {"type": "note_on", "time": 18, "note": 62, "velocity": 99, "channel": 0}, {"type": "note_off", "time": 45, "note": 62, "velocity": 99, "channel": 0}, {"type": "note_on", "time": 23, "note": 65, "velocity": 121, "channel": 0}, {"type": "note_off", "time": 65, "note": 65, "velocity": 121, "channel": 0}, {"type": "note_on", "time": 61, "note": 74, "velocity": 118, "channel": 0}, {"type": "note_off", "time": 67, "note": 74, "velocity": 118, "channel": 0}, {"type": "note_on", "time": 11, "note": 72, "velocity": 119, "channel": 0}, {"type": "note_off", "time": 93, "note": 72, "velocity": 119, "channel": 0}, {"type": "note_on", "time": 38, "note": 68, "velocity": 106, "channel": 0}, {"type": "note_off", "time": 57, "note": 68, "velocity": 106, "channel": 0}, {"type": "note_on", "time": 11, "note": 67, "velocity": 105, "channel": 0}, {"type": "note_off", "time": 72, "note": 67, "velocity": 105, "channel": 0}, {"type": "note_on", "time": 5, "note": 70, "velocity": 111, "channel": 0}, {"type": "note_off", "time": 91, "note": 70, "velocity": 111, "channel": 0}, {"type": "note_on", "time": 127, "note": 62, "velocity": 104, "channel": 0}, {"type": "note_off", "time": 59, "note": 62, "velocity": 104, "channel": 0}, {"type": "note_on", "time": 2, "note": 65, "velocity": 115, "channel": 0}, {"type": "note_off", "time": 89, "note": 65, "velocity": 115, "channel": 0}, {"type": "note_on", "time": 29, "note": 70, "velocity": 117, "channel": 0}, {"type": "note_off", "time": 69, "note": 70, "velocity": 117, "channel": 0}, {"type": "note_on", "time": 17, "note": 68, "velocity": 109, "channel": 0}, {"type": "note_off", "time": 74, "note": 68, "velocity": 109, "channel": 0}, {"type": "note_on", "time": 48, "note": 63, "velocity": 84, "channel": 0}, {"type": "note_on", "time": 50, "note": 67, "velocity": 115, "channel": 0}, {"type": "note_off", "time": 0, "note": 63, "velocity": 84, "channel": 0}, {"type": "note_off", "time": 84, "note": 67, "velocity": 115, "channel": 0}, {"type": "note_on", "time": 12, "note": 63, "velocity": 95, "channel": 0}, {"type": "note_off", "time": 67, "note": 63, "velocity": 95, "channel": 0}, {"type": "note_on", "time": 33, "note": 65, "velocity": 121, "channel": 0}, {"type": "note_off", "time": 91, "note": 65, "velocity": 121, "channel": 0}, {"type": "note_on", "time": 60, "note": 63, "velocity": 91, "channel": 0}, {"type": "note_off", "time": 47, "note": 63, "velocity": 91, "channel": 0}, {"type": "note_on", "time": 3, "note": 65, "velocity": 120, "channel": 0}, {"type": "note_off", "time": 96, "note": 65, "velocity": 120, "channel": 0}, {"type": "note_on", "time": 20, "note": 63, "velocity": 98, "channel": 0}, {"type": "note_off", "time": 137, "note": 63, "velocity": 98, "channel": 0}, {"type": "note_on", "time": 254, "note": 78, "velocity": 125, "channel": 0}, {"type": "note_off", "time": 89, "note": 78, "velocity": 125, "channel": 0}, {"type": "note_on", "time": 10, "note": 77, "velocity": 125, "channel": 0}, {"type": "note_off", "time": 70, "note": 77, "velocity": 125, "channel": 0}, {"type": "note_on", "time": 28, "note": 75, "velocity": 119, "channel": 0}, {"type": "note_off", "time": 59, "note": 75, "velocity": 119, "channel": 0}, {"type": "note_on", "time": 34, "note": 72, "velocity": 118, "channel": 0}, {"type": "note_off", "time": 74, "note": 72, "velocity": 118, "channel": 0}, {"type": "note_on", "time": 113, "note": 70, "velocity": 115, "channel": 0}, {"type": "note_off", "time": 92, "note": 70, "velocity": 115, "channel": 0}, {"type": "note_on", "time": 102, "note": 70, "velocity": 107, "channel": 0}, {"type": "note_off", "time": 180, "note": 70, "velocity": 107, "channel": 0}, {"type": "note_on", "time": 179, "note": 65, "velocity": 112, "channel": 0}, {"type": "note_off", "time": 101, "note": 65, "velocity": 112, "channel": 0}, {"type": "note_on", "time": 27, "note": 74, "velocity": 119, "channel": 0}, {"type": "note_off", "time": 66, "note": 74, "velocity": 119, "channel": 0}, {"type": "note_on", "time": 13, "note": 75, "velocity": 122, "channel": 0}, {"type": "note_off", "time": 114, "note": 75, "velocity": 122, "channel": 0}, {"type": "note_on", "time": 15, "note": 74, "velocity": 118, "channel": 0}, {"type": "note_off", "time": 61, "note": 74, "velocity": 118, "channel": 0}, {"type": "note_on", "time": 30, "note": 67, "velocity": 92, "channel": 0}, {"type": "note_off", "time": 297, "note": 67, "velocity": 92, "channel": 0}, {"type": "note_on", "time": 212, "note": 74, "velocity": 111, "channel": 0}, {"type": "note_off", "time": 517, "note": 74, "velocity": 111, "channel": 0}, {"type": "note_on", "time": 38, "note": 71, "velocity": 119, "channel": 0}, {"type": "note_off", "time": 84, "note": 71, "velocity": 119, "channel": 0}, {"type": "note_on", "time": 43, "note": 72, "velocity": 120, "channel": 0}, {"type": "note_off", "time": 105, "note": 72, "velocity": 120, "channel": 0}, {"type": "note_on", "time": 8, "note": 73, "velocity": 122, "channel": 0}, {"type": "note_off", "time": 65, "note": 73, "velocity": 122, "channel": 0}, {"type": "note_on", "time": 14, "note": 74, "velocity": 104, "channel": 0}, {"type": "note_off", "time": 53, "note": 74, "velocity": 104, "channel": 0}, {"type": "note_on", "time": 22, "note": 70, "velocity": 117, "channel": 0}, {"type": "note_off", "time": 114, "note": 70, "velocity": 117, "channel": 0}, {"type": "note_on", "time": 12, "note": 70, "velocity": 112, "channel": 0}, {"type": "note_off", "time": 28, "note": 70, "velocity": 112, "channel": 0}, {"type": "note_on", "time": 14, "note": 72, "velocity": 127, "channel": 0}, {"type": "note_off", "time": 34, "note": 72, "velocity": 127, "channel": 0}, {"type": "note_on", "time": 21, "note": 70, "velocity": 113, "channel": 0}, {"type": "note_off", "time": 62, "note": 70, "velocity": 113, "channel": 0}, {"type": "note_on", "time": 33, "note": 73, "velocity": 115, "channel": 0}, {"type": "note_off", "time": 91, "note": 73, "velocity": 115, "channel": 0}, {"type": "note_on", "time": 22, "note": 72, "velocity": 122, "channel": 0}, {"type": "note_off", "time": 75, "note": 72, "velocity": 122, "channel": 0}, {"type": "note_on", "time": 33, "note": 70, "velocity": 115, "channel": 0}, {"type": "note_off", "time": 78, "note": 70, "velocity": 115, "channel": 0}, {"type": "note_on", "time": 24, "note": 67, "velocity": 113, "channel": 0}, {"type": "note_off", "time": 51, "note": 67, "velocity": 113, "channel": 0}, {"type": "note_on", "time": 15, "note": 70, "velocity": 115, "channel": 0}, {"type": "note_off", "time": 59, "note": 70, "velocity": 115, "channel": 0}, {"type": "note_on", "time": 8, "note": 67, "velocity": 109, "channel": 0}, {"type": "note_off", "time": 31, "note": 67, "velocity": 109, "channel": 0}, {"type": "note_on", "time": 25, "note": 70, "velocity": 104, "channel": 0}, {"type": "note_off", "time": 288, "note": 70, "velocity": 104, "channel": 0}, {"type": "note_on", "time": 13, "note": 65, "velocity": 113, "channel": 0}, {"type": "note_off", "time": 92, "note": 65, "velocity": 113, "channel": 0}, {"type": "note_on", "time": 4, "note": 68, "velocity": 109, "channel": 0}, {"type": "note_off", "time": 164, "note": 68, "velocity": 109, "channel": 0}, {"type": "note_on", "time": 5, "note": 60, "velocity": 107, "channel": 0}, {"type": "note_off", "time": 94, "note": 60, "velocity": 107, "channel": 0}, {"type": "note_on", "time": 16, "note": 63, "velocity": 102, "channel": 0}, {"type": "note_off", "time": 81, "note": 63, "velocity": 102, "channel": 0}, {"type": "note_on", "time": 9, "note": 62, "velocity": 101, "channel": 0}, {"type": "note_off", "time": 187, "note": 62, "velocity": 101, "channel": 0}, {"type": "end_of_track", "time": 0}]]}