{"ticks_per_beat": 192, "tracks": [[{"type": "track_name", "name": "Melody", "time": 0}, {"type": "set_tempo", "tempo": 458015, "time": 0}, {"type": "key_signature", "key": "F", "time": 0}, {"type": "time_signature", "numerator": 4, "denominator": 4, "clocks_per_click": 24, "notated_32nd_notes_per_beat": 8, "time": 0}, {"type": "note_on", "time": 1055, "note": 72, "velocity": 94, "channel": 0}, {"type": "note_off", "time": 137, "note": 72, "velocity": 94, "channel": 0}, {"type": "note_on", "time": 8, "note": 74, "velocity": 94, "channel": 0}, {"type": "note_off", "time": 236, "note": 74, "velocity": 94, "channel": 0}, {"type": "note_on", "time": 46, "note": 72, "velocity": 117, "channel": 0}, {"type": "note_off", "time": 59, "note": 72, "velocity": 117, "channel": 0}, {"type": "note_on", "time": 7, "note": 74, "velocity": 119, "channel": 0}, {"type": "note_off", "time": 58, "note": 74, "velocity": 119, "channel": 0}, {"type": "note_on", "time": 3, "note": 77, "velocity": 100, "channel": 0}, {"type": "note_off", "time": 366, "note": 77, "velocity": 100, "channel": 0}, {"type": "note_on", "time": 54, "note": 68, "velocity": 101, "channel": 0}, {"type": "note_off", "time": 377, "note": 68, "velocity": 101, "channel": 0}, {"type": "note_on", "time": 203, "note": 72, "velocity": 122, "channel": 0}, {"type": "note_off", "time": 87, "note": 72, "velocity": 122, "channel": 0}, {"type": "note_on", "time": 12, "note": 74, "velocity": 121, "channel": 0}, {"type": "note_off", "time": 80, "note": 74, "velocity": 121, "channel": 0}, {"type": "note_on", "time": 9, "note": 72, "velocity": 114, "channel": 0}, {"type": "note_off", "time": 89, "note": 72, "velocity": 114, "channel": 0}, {"type": "note_on", "time": 17, "note": 68, "velocity": 108, "channel": 0}, {"type": "note_off", "time": 77, "note": 68, "velocity": 108, "channel": 0}, {"type": "note_on", "time": 75, "note": 69, "velocity": 109, "channel": 0}, {"type": "note_off", "time": 116, "note": 69, "velocity": 109, "channel": 0}, {"type": "note_on", "time": 37, "note": 69, "velocity": 88, "channel": 0}, {"type": "note_off", "time": 687, "note": 69, "velocity": 88, "channel": 0}, {"type": "note_on", "time": 124, "note": 69, "velocity": 114, "channel": 0}, {"type": "note_off", "time": 70, "note": 69, "velocity": 114, "channel": 0}, {"type": "note_on", "time": 3, "note": 71, "velocity": 115, "channel": 0}, {"type": "note_off", "time": 75, "note": 71, "velocity": 115, "channel": 0}, {"type": "note_on", "time": 3, "note": 72, "velocity": 110, "channel": 0}, {"type": "note_off", "time": 35, "note": 72, "velocity": 110, "channel": 0}, {"type": "note_on", "time": 19, "note": 74, "velocity": 115, "channel": 0}, {"type": "note_off", "time": 63, "note": 74, "velocity": 115, "channel": 0}, {"type": "note_on", "time": 5, "note": 72, "velocity": 112, "channel": 0}, {"type": "note_off", "time": 168, "note": 72, "velocity": 112, "channel": 0}, {"type": "note_on", "time": 66, "note": 67, "velocity": 105, "channel": 0}, {"type": "note_off", "time": 24, "note": 67, "velocity": 105, "channel": 0}, {"type": "note_on", "time": 0, "note": 68, "velocity": 104, "channel": 0}, {"type": "note_off", "time": 170, "note": 68, "velocity": 104, "channel": 0}, {"type": "note_on", "time": 38, "note": 65, "velocity": 96, "channel": 0}, {"type": "note_off", "time": 70, "note": 65, "velocity": 96, "channel": 0}, {"type": "note_on", "time": 92, "note": 65, "velocity": 91, "channel": 0}, {"type": "note_off", "time": 86, "note": 65, "velocity": 91, "channel": 0}, {"type": "note_on", "time": 55, "note": 65, "velocity": 92, "channel": 0}, {"type": "note_off", "time": 269, "note": 65, "velocity": 92, "channel": 0}, {"type": "note_on", "time": 236, "note": 69, "velocity": 110, "channel": 0}, {"type": "note_off", "time": 105, "note": 69, "velocity": 110, "channel": 0}, {"type": "note_on", "time": 6, "note": 70, "velocity": 105, "channel": 0}, {"type": "note_off", "time": 95, "note": 70, "velocity": 105, "channel": 0}, {"type": "note_on", "time": 3, "note": 71, "velocity": 105, "channel": 0}, {"type": "note_off", "time": 78, "note": 71, "velocity": 105, "channel": 0}, {"type": "note_on", "time": 13, "note": 72, "velocity": 114, "channel": 0}, {"type": "note_off", "time": 74, "note": 72, "velocity": 114, "channel": 0}, {"type": "note_on", "time": 42, "note": 60, "velocity": 97, "channel": 0}, {"type": "note_off", "time": 47, "note": 60, "velocity": 97, "channel": 0}, {"type": "note_on", "time": 4, "note": 62, "velocity": 96, "channel": 0}, {"type": "note_off", "time": 37, "note": 62, "velocity": 96, "channel": 0}, {"type": "note_on", "time": 9, "note": 65, "velocity": 90, "channel": 0}, {"type": "note_off", "time": 599, "note": 65, "velocity": 90, "channel": 0}, {"type": "note_on", "time": 376, "note": 72, "velocity": 120, "channel": 0}, {"type": "note_off", "time": 105, "note": 72, "velocity": 120, "channel": 0}, {"type": "note_on", "time": 49, "note": 74, "velocity": 111, "channel": 0}, {"type": "note_off", "time": 169, "note": 74, "velocity": 111, "channel": 0}, {"type": "note_on", "time": 20, "note": 74, "velocity": 109, "channel": 0}, {"type": "note_off", "time": 145, "note": 74, "velocity": 109, "channel": 0}, {"type": "note_on", "time": 15, "note": 72, "velocity": 119, "channel": 0}, {"type": "note_off", "time": 67, "note": 72, "velocity": 119, "channel": 0}, {"type": "note_on", "time": 24, "note": 77, "velocity": 103, "channel": 0}, {"type": "note_off", "time": 116, "note": 77, "velocity": 103, "channel": 0}, {"type": "note_on", "time": 41, "note": 77, "velocity": 99, "channel": 0}, {"type": "note_off", "time": 150, "note": 77, "velocity": 99, "channel": 0}, {"type": "note_on", "time": 34, "note": 77, "velocity": 97, "channel": 0}, {"type": "note_off", "time": 429, "note": 77, "velocity": 97, "channel": 0}, {"type": "note_on", "time": 156, "note": 72, "velocity": 123, "channel": 0}, {"type": "note_off", "time": 90, "note": 72, "velocity": 123, "channel": 0}, {"type": "note_on", "time": 4, "note": 73, "velocity": 119, "channel": 0}, {"type": "note_off", "time": 68, "note": 73, "velocity": 119, "channel": 0}, {"type": "note_on", "time": 17, "note": 74, "velocity": 97, "channel": 0}, {"type": "note_off", "time": 92, "note": 74, "velocity": 97, "channel": 0}, {"type": "note_on", "time": 9, "note": 72, "velocity": 118, "channel": 0}, {"type": "note_off", "time": 79, "note": 72, "velocity": 118, "channel": 0}, {"type": "note_on", "time": 10, "note": 69, "velocity": 104, "channel": 0}, {"type": "note_off", "time": 99, "note": 69, "velocity": 104, "channel": 0}, {"type": "note_on", "time": 4, "note": 72, "velocity": 123, "channel": 0}, {"type": "note_off", "time": 69, "note": 72, "velocity": 123, "channel": 0}, {"type": "note_on", "time": 8, "note": 76, "velocity": 103, "channel": 0}, {"type": "note_off", "time": 175, "note": 76, "velocity": 103, "channel": 0}, {"type": "note_on", "time": 30, "note": 64, "velocity": 110, "channel": 0}, {"type": "note_off", "time": 92, "note": 64, "velocity": 110, "channel": 0}, {"type": "note_on", "time": 94, "note": 66, "velocity": 93, "channel": 0}, {"type": "note_off", "time": 112, "note": 66, "velocity": 93, "channel": 0}, {"type": "note_on", "time": 172, "note": 68, "velocity": 102, "channel": 0}, {"type": "note_off", "time": 69, "note": 68, "velocity": 102, "channel": 0}, {"type": "note_on", "time": 18, "note": 71, "velocity": 105, "channel": 0}, {"type": "note_off", "time": 78, "note": 71, "velocity": 105, "channel": 0}, {"type": "note_on", "time": 17, "note": 69, "velocity": 107, "channel": 0}, {"type": "note_off", "time": 59, "note": 69, "velocity": 107, "channel": 0}, {"type": "note_on", "time": 14, "note": 72, "velocity": 118, "channel": 0}, {"type": "note_off", "time": 99, "note": 72, "velocity": 118, "channel": 0}, {"type": "note_on", "time": 3, "note": 64, "velocity": 98, "channel": 0}, {"type": "note_off", "time": 76, "note": 64, "velocity": 98, "channel": 0}, {"type": "note_on", "time": 26, "note": 71, "velocity": 94, "channel": 0}, {"type": "note_off", "time": 188, "note": 71, "velocity": 94, "channel": 0}, {"type": "note_on", "time": 10, "note": 69, "velocity": 93, "channel": 0}, {"type": "note_off", "time": 106, "note": 69, "velocity": 93, "channel": 0}, {"type": "note_on", "time": 29, "note": 74, "velocity": 114, "channel": 0}, {"type": "note_off", "time": 79, "note": 74, "velocity": 114, "channel": 0}, {"type": "note_on", "time": 100, "note": 74, "velocity": 114, "channel": 0}, {"type": "note_off", "time": 54, "note": 74, "velocity": 114, "channel": 0}, {"type": "note_on", "time": 90, "note": 74, "velocity": 111, "channel": 0}, {"type": "note_off", "time": 90, "note": 74, "velocity": 111, "channel": 0}, {"type": "note_on", "time": 14, "note": 74, "velocity": 101, "channel": 0}, {"type": "note_off", "time": 91, "note": 74, "velocity": 101, "channel": 0}, {"type": "note_on", "time": 246, "note": 72, "velocity": 123, "channel": 0}, {"type": "note_off", "time": 111, "note": 72, "velocity": 123, "channel": 0}, {"type": "note_on", "time": 11, "note": 69, "velocity": 99, "channel": 0}, {"type": "note_off", "time": 63, "note": 69, "velocity": 99, "channel": 0}, {"type": "note_on", "time": 8, "note": 72, "velocity": 118, "channel": 0}, {"type": "note_off", "time": 86, "note": 72, "velocity": 118, "channel": 0}, {"type": "note_on", "time": 15, "note": 69, "velocity": 112, "channel": 0}, {"type": "note_off", "time": 69, "note": 69, "velocity": 112, "channel": 0}, {"type": "note_on", "time": 20, "note": 72, "velocity": 112, "channel": 0}, {"type": "note_off", "time": 147, "note": 72, "velocity": 112, "channel": 0}, {"type": "note_on", "time": 25, "note": 69, "velocity": 98, "channel": 0}, {"type": "note_off", "time": 122, "note": 69, "velocity": 98, "channel": 0}, {"type": "note_on", "time": 9, "note": 70, "velocity": 96, "channel": 0}, {"type": "note_off", "time": 139, "note": 70, "velocity": 96, "channel": 0}, {"type": "note_on", "time": 30, "note": 77, "velocity": 98, "channel": 0}, {"type": "note_off", "time": 168, "note": 77, "velocity": 98, "channel": 0}, {"type": "note_on", "time": 27, "note": 69, "velocity": 113, "channel": 0}, {"type": "note_off", "time": 37, "note": 69, "velocity": 113, "channel": 0}, {"type": "note_on", "time": 2, "note": 69, "velocity": 92, "channel": 0}, {"type": "note_off", "time": 65, "note": 69, "velocity": 92, "channel": 0}, {"type": "note_on", "time": 451, "note": 68, "velocity": 112, "channel": 0}, {"type": "note_off", "time": 71, "note": 68, "velocity": 112, "channel": 0}, {"type": "note_on", "time": 0, "note": 69, "velocity": 90, "channel": 0}, {"type": "note_off", "time": 472, "note": 69, "velocity": 90, "channel": 0}, {"type": "note_on", "time": 9, "note": 65, "velocity": 93, "channel": 0}, {"type": "note_off", "time": 69, "note": 65, "velocity": 93, "channel": 0}, {"type": "note_on", "time": 4, "note": 68, "velocity": 95, "channel": 0}, {"type": "note_off", "time": 133, "note": 68, "velocity": 95, "channel": 0}, {"type": "note_on", "time": 5, "note": 67, "velocity": 109, "channel": 0}, {"type": "note_off", "time": 59, "note": 67, "velocity": 109, "channel": 0}, {"type": "note_on", "time": 103, "note": 67, "velocity": 91, "channel": 0}, {"type": "note_off", "time": 265, "note": 67, "velocity": 91, "channel": 0}, {"type": "note_on", "time": 194, "note": 65, "velocity": 96, "channel": 0}, {"type": "note_off", "time": 154, "note": 65, "velocity": 96, "channel": 0}, {"type": "note_on", "time": 9, "note": 58, "velocity": 95, "channel": 0}, {"type": "note_off", "time": 38, "note": 58, "velocity": 95, "channel": 0}, {"type": "note_on", "time": 5, "note": 61, "velocity": 110, "channel": 0}, {"type": "note_off", "time": 93, "note": 61, "velocity": 110, "channel": 0}, {"type": "note_on", "time": 23, "note": 65, "velocity": 96, "channel": 0}, {"type": "note_off", "time": 55, "note": 65, "velocity": 96, "channel": 0}, {"type": "note_on", "time": 6, "note": 69, "velocity": 103, "channel": 0}, {"type": "note_off", "time": 103, "note": 69, "velocity": 103, "channel": 0}, {"type": "note_on", "time": 13, "note": 65, "velocity": 93, "channel": 0}, {"type": "note_off", "time": 71, "note": 65, "velocity": 93, "channel": 0}, {"type": "note_on", "time": 6, "note": 69, "velocity": 110, "channel": 0}, {"type": "note_off", "time": 108, "note": 69, "velocity": 110, "channel": 0}, {"type": "note_on", "time": 4, "note": 65, "velocity": 101, "channel": 0}, {"type": "note_off", "time": 59, "note": 65, "velocity": 101, "channel": 0}, {"type": "note_on", "time": 11, "note": 67, "velocity": 106, "channel": 0}, {"type": "note_off", "time": 100, "note": 67, "velocity": 106, "channel": 0}, {"type": "note_on", "time": 45, "note": 67, "velocity": 92, "channel": 0}, {"type": "note_off", "time": 133, "note": 67, "velocity": 92, "channel": 0}, {"type": "note_on", "time": 44, "note": 67, "velocity": 86, "channel": 0}, {"type": "note_off", "time": 388, "note": 67, "velocity": 86, "channel": 0}, {"type": "note_on", "time": 220, "note": 81, "velocity": 91, "channel": 0}, {"type": "note_off", "time": 108, "note": 81, "velocity": 91, "channel": 0}, {"type": "note_on", "time": 12, "note": 77, "velocity": 107, "channel": 0}, {"type": "note_off", "time": 71, "note": 77, "velocity": 107, "channel": 0}, {"type": "note_on", "time": 10, "note": 75, "velocity": 107, "channel": 0}, {"type": "note_off", "time": 94, "note": 75, "velocity": 107, "channel": 0}, {"type": "note_on", "time": 3, "note": 74, "velocity": 116, "channel": 0}, {"type": "note_off", "time": 77, "note": 74, "velocity": 116, "channel": 0}, {"type": "note_on", "time": 15, "note": 72, "velocity": 118, "channel": 0}, {"type": "note_off", "time": 86, "note": 72, "velocity": 118, "channel": 0}, {"type": "note_on", "time": 3, "note": 77, "velocity": 105, "channel": 0}, {"type": "note_off", "time": 90, "note": 77, "velocity": 105, "channel": 0}, {"type": "note_on", "time": 1, "note": 68, "velocity": 102, "channel": 0}, {"type": "note_off", "time": 94, "note": 68, "velocity": 102, "channel": 0}, {"type": "note_on", "time": 17, "note": 74, "velocity": 105, "channel": 0}, {"type": "note_off", "time": 201, "note": 74, "velocity": 105, "channel": 0}, {"type": "note_on", "time": 71, "note": 65, "velocity": 103, "channel": 0}, {"type": "note_off", "time": 113, "note": 65, "velocity": 103, "channel": 0}, {"type": "note_on", "time": 0, "note": 60, "velocity": 102, "channel": 0}, {"type": "note_off", "time": 63, "note": 60, "velocity": 102, "channel": 0}, {"type": "note_on", "time": 192, "note": 74, "velocity": 114, "channel": 0}, {"type": "note_off", "time": 105, "note": 74, "velocity": 114, "channel": 0}, {"type": "note_on", "time": 13, "note": 69, "velocity": 110, "channel": 0}, {"type": "note_off", "time": 73, "note": 69, "velocity": 110, "channel": 0}, {"type": "note_on", "time": 29, "note": 70, "velocity": 106, "channel": 0}, {"type": "note_off", "time": 41, "note": 70, "velocity": 106, "channel": 0}, {"type": "note_on", "time": 4, "note": 71, "velocity": 111, "channel": 0}, {"type": "note_off", "time": 35, "note": 71, "velocity": 111, "channel": 0}, {"type": "note_on", "time": 7, "note": 72, "velocity": 119, "channel": 0}, {"type": "note_off", "time": 78, "note": 72, "velocity": 119, "channel": 0}, {"type": "note_on", "time": 104, "note": 60, "velocity": 87, "channel": 0}, {"type": "note_off", "time": 57, "note": 60, "velocity": 87, "channel": 0}, {"type": "note_on", "time": 46, "note": 62, "velocity": 105, "channel": 0}, {"type": "note_off", "time": 74, "note": 62, "velocity": 105, "channel": 0}, {"type": "note_on", "time": 7, "note": 69, "velocity": 79, "channel": 0}, {"type": "note_off", "time": 452, "note": 69, "velocity": 79, "channel": 0}, {"type": "note_on", "time": 22, "note": 65, "velocity": 96, "channel": 0}, {"type": "note_off", "time": 96, "note": 65, "velocity": 96, "channel": 0}, {"type": "note_on", "time": 8, "note": 62, "velocity": 108, "channel": 0}, {"type": "note_off", "time": 74, "note": 62, "velocity": 108, "channel": 0}, {"type": "note_on", "time": 8, "note": 65, "velocity": 84, "channel": 0}, {"type": "note_off", "time": 155, "note": 65, "velocity": 84, "channel": 0}, {"type": "note_on", "time": 14, "note": 62, "velocity": 107, "channel": 0}, {"type": "note_off", "time": 94, "note": 62, "velocity": 107, "channel": 0}, {"type": "note_on", "time": 12, "note": 65, "velocity": 86, "channel": 0}, {"type": "note_off", "time": 236, "note": 65, "velocity": 86, "channel": 0}, {"type": "note_on", "time": 297, "note": 72, "velocity": 117, "channel": 0}, {"type": "note_off", "time": 61, "note": 72, "velocity": 117, "channel": 0}, {"type": "note_on", "time": 40, "note": 74, "velocity": 120, "channel": 0}, {"type": "note_off", "time": 60, "note": 74, "velocity": 120, "channel": 0}, {"type": "note_on", "time": 39, "note": 77, "velocity": 108, "channel": 0}, {"type": "note_off", "time": 161, "note": 77, "velocity": 108, "channel": 0}, {"type": "note_on", "time": 18, "note": 74, "velocity": 112, "channel": 0}, {"type": "note_off", "time": 93, "note": 74, "velocity": 112, "channel": 0}, {"type": "note_on", "time": 23, "note": 77, "velocity": 109, "channel": 0}, {"type": "note_off", "time": 66, "note": 77, "velocity": 109, "channel": 0}, {"type": "note_on", "time": 23, "note": 74, "velocity": 110, "channel": 0}, {"type": "note_off", "time": 176, "note": 74, "velocity": 110, "channel": 0}, {"type": "note_on", "time": 394, "note": 72, "velocity": 118, "channel": 0}, {"type": "note_off", "time": 101, "note": 72, "velocity": 118, "channel": 0}, {"type": "note_on", "time": 23, "note": 73, "velocity": 118, "channel": 0}, {"type": "note_off", "time": 100, "note": 73, "velocity": 118, "channel": 0}, {"type": "note_on", "time": 69, "note": 74, "velocity": 104, "channel": 0}, {"type": "note_off", "time": 79, "note": 74, "velocity": 104, "channel": 0}, {"type": "note_on", "time": 5, "note": 72, "velocity": 120, "channel": 0}, {"type": "note_off", "time": 74, "note": 72, "velocity": 120, "channel": 0}, {"type": "note_on", "time": 39, "note": 65, "velocity": 95, "channel": 0}, {"type": "note_off", "time": 61, "note": 65, "velocity": 95, "channel": 0}, {"type": "note_on", "time": 11, "note": 69, "velocity": 115, "channel": 0}, {"type": "note_off", "time": 85, "note": 69, "velocity": 115, "channel": 0}, {"type": "note_on", "time": 133, "note": 69, "velocity": 109, "channel": 0}, {"type": "note_off", "time": 100, "note": 69, "velocity": 109, "channel": 0}, {"type": "note_on", "time": 62, "note": 69, "velocity": 92, "channel": 0}, {"type": "note_off", "time": 321, "note": 69, "velocity": 92, "channel": 0}, {"type": "note_on", "time": 62, "note": 72, "velocity": 116, "channel": 0}, {"type": "note_off", "time": 72, "note": 72, "velocity": 116, "channel": 0}, {"type": "note_on", "time": 57, "note": 72, "velocity": 110, "channel": 0}, {"type": "note_off", "time": 158, "note": 72, "velocity": 110, "channel": 0}, {"type": "note_on", "time": 20, "note": 72, "velocity": 121, "channel": 0}, {"type": "note_off", "time": 70, "note": 72, "velocity": 121, "channel": 0}, {"type": "note_on", "time": 9, "note": 74, "velocity": 110, "channel": 0}, {"type": "note_off", "time": 102, "note": 74, "velocity": 110, "channel": 0}, {"type": "note_on", "time": 7, "note": 72, "velocity": 117, "channel": 0}, {"type": "note_off", "time": 68, "note": 72, "velocity": 117, "channel": 0}, {"type": "note_on", "time": 27, "note": 74, "velocity": 111, "channel": 0}, {"type": "note_off", "time": 66, "note": 74, "velocity": 111, "channel": 0}, {"type": "note_on", "time": 12, "note": 65, "velocity": 95, "channel": 0}, {"type": "note_off", "time": 75, "note": 65, "velocity": 95, "channel": 0}, {"type": "note_on", "time": 1, "note": 69, "velocity": 106, "channel": 0}, {"type": "note_off", "time": 73, "note": 69, "velocity": 106, "channel": 0}, {"type": "note_on", "time": 37, "note": 65, "velocity": 100, "channel": 0}, {"type": "note_off", "time": 75, "note": 65, "velocity": 100, "channel": 0}, {"type": "note_on", "time": 9, "note": 62, "velocity": 110, "channel": 0}, {"type": "note_off", "time": 96, "note": 62, "velocity": 110, "channel": 0}, {"type": "note_on", "time": 20, "note": 58, "velocity": 96, "channel": 0}, {"type": "note_off", "time": 65, "note": 58, "velocity": 96, "channel": 0}, {"type": "note_on", "time": 13, "note": 65, "velocity": 91, "channel": 0}, {"type": "note_off", "time": 393, "note": 65, "velocity": 91, "channel": 0}, {"type": "note_on", "time": 216, "note": 68, "velocity": 97, "channel": 0}, {"type": "note_off", "time": 100, "note": 68, "velocity": 97, "channel": 0}, {"type": "note_on", "time": 2, "note": 69, "velocity": 116, "channel": 0}, {"type": "note_off", "time": 76, "note": 69, "velocity": 116, "channel": 0}, {"type": "note_on", "time": 19, "note": 67, "velocity": 98, "channel": 0}, {"type": "note_off", "time": 210, "note": 67, "velocity": 98, "channel": 0}, {"type": "note_on", "time": 13, "note": 65, "velocity": 98, "channel": 0}, {"type": "note_off", "time": 68, "note": 65, "velocity": 98, "channel": 0}, {"type": "note_on", "time": 18, "note": 62, "velocity": 93, "channel": 0}, {"type": "note_off", "time": 60, "note": 62, "velocity": 93, "channel": 0}, {"type": "note_on", "time": 7, "note": 65, "velocity": 91, "channel": 0}, {"type": "note_off", "time": 374, "note": 65, "velocity": 91, "channel": 0}, {"type": "note_on", "time": 597, "note": 77, "velocity": 107, "channel": 0}, {"type": "note_off", "time": 49, "note": 77, "velocity": 107, "channel": 0}, {"type": "note_on", "time": 3, "note": 78, "velocity": 105, "channel": 0}, {"type": "note_off", "time": 41, "note": 78, "velocity": 105, "channel": 0}, {"type": "note_on", "time": 5, "note": 77, "velocity": 96, "channel": 0}, {"type": "note_off", "time": 77, "note": 77, "velocity": 96, "channel": 0}, {"type": "note_on", "time": 5, "note": 80, "velocity": 115, "channel": 0}, {"type": "note_off", "time": 56, "note": 80, "velocity": 115, "channel": 0}, {"type": "note_on", "time": 50, "note": 79, "velocity": 114, "channel": 0}, {"type": "note_off", "time": 74, "note": 79, "velocity": 114, "channel": 0}, {"type": "note_on", "time": 8, "note": 77, "velocity": 125, "channel": 0}, {"type": "note_off", "time": 92, "note": 77, "velocity": 125, "channel": 0}, {"type": "note_on", "time": 23, "note": 74, "velocity": 110, "channel": 0}, {"type": "note_off", "time": 82, "note": 74, "velocity": 110, "channel": 0}, {"type": "note_on", "time": 1, "note": 77, "velocity": 117, "channel": 0}, {"type": "note_off", "time": 71, "note": 77, "velocity": 117, "channel": 0}, {"type": "note_on", "time": 60, "note": 77, "velocity": 120, "channel": 0}, {"type": "note_off", "time": 74, "note": 77, "velocity": 120, "channel": 0}, {"type": "note_on", "time": 94, "note": 77, "velocity": 110, "channel": 0}, {"type": "note_off", "time": 200, "note": 77, "velocity": 110, "channel": 0}, {"type": "note_on", "time": 11, "note": 72, "velocity": 125, "channel": 0}, {"type": "note_off", "time": 61, "note": 72, "velocity": 125, "channel": 0}, {"type": "note_on", "time": 28, "note": 74, "velocity": 100, "channel": 0}, {"type": "note_off", "time": 86, "note": 74, "velocity": 100, "channel": 0}, {"type": "note_on", "time": 5, "note": 68, "velocity": 115, "channel": 0}, {"type": "note_off", "time": 71, "note": 68, "velocity": 115, "channel": 0}, {"type": "note_on", "time": 5, "note": 69, "velocity": 97, "channel": 0}, {"type": "note_off", "time": 162, "note": 69, "velocity": 97, "channel": 0}, {"type": "note_on", "time": 41, "note": 72, "velocity": 117, "channel": 0}, {"type": "note_off", "time": 101, "note": 72, "velocity": 117, "channel": 0}, {"type": "note_on", "time": 188, "note": 65, "velocity": 109, "channel": 0}, {"type": "note_off", "time": 50, "note": 65, "velocity": 109, "channel": 0}, {"type": "note_on", "time": 8, "note": 69, "velocity": 107, "channel": 0}, {"type": "note_off", "time": 83, "note": 69, "velocity": 107, "channel": 0}, {"type": "note_on", "time": 32, "note": 72, "velocity": 122, "channel": 0}, {"type": "note_off", "time": 75, "note": 72, "velocity": 122, "channel": 0}, {"type": "note_on", "time": 7, "note": 76, "velocity": 107, "channel": 0}, {"type": "note_off", "time": 110, "note": 76, "velocity": 107, "channel": 0}, {"type": "note_on", "time": 10, "note": 69, "velocity": 108, "channel": 0}, {"type": "note_off", "time": 67, "note": 69, "velocity": 108, "channel": 0}, {"type": "note_on", "time": 60, "note": 71, "velocity": 109, "channel": 0}, {"type": "note_off", "time": 66, "note": 71, "velocity": 109, "channel": 0}, {"type": "note_on", "time": 77, "note": 72, "velocity": 94, "channel": 0}, {"type": "note_off", "time": 361, "note": 72, "velocity": 94, "channel": 0}, {"type": "note_on", "time": 209, "note": 69, "velocity": 106, "channel": 0}, {"type": "note_off", "time": 373, "note": 69, "velocity": 106, "channel": 0}, {"type": "note_on", "time": 24, "note": 71, "velocity": 118, "channel": 0}, {"type": "note_off", "time": 64, "note": 71, "velocity": 118, "channel": 0}, {"type": "note_on", "time": 49, "note": 72, "velocity": 127, "channel": 0}, {"type": "note_off", "time": 66, "note": 72, "velocity": 127, "channel": 0}, {"type": "note_on", "time": 59, "note": 74, "velocity": 116, "channel": 0}, {"type": "note_off", "time": 78, "note": 74, "velocity": 116, "channel": 0}, {"type": "note_on", "time": 48, "note": 74, "velocity": 113, "channel": 0}, {"type": "note_off", "time": 107, "note": 74, "velocity": 113, "channel": 0}, {"type": "note_on", "time": 32, "note": 74, "velocity": 112, "channel": 0}, {"type": "note_off", "time": 252, "note": 74, "velocity": 112, "channel": 0}, {"type": "note_on", "time": 185, "note": 72, "velocity": 125, "channel": 0}, {"type": "note_off", "time": 72, "note": 72, "velocity": 125, "channel": 0}, {"type": "note_on", "time": 61, "note": 75, "velocity": 110, "channel": 0}, {"type": "note_off", "time": 83, "note": 75, "velocity": 110, "channel": 0}, {"type": "note_on", "time": 9, "note": 74, "velocity": 114, "channel": 0}, {"type": "note_off", "time": 75, "note": 74, "velocity": 114, "channel": 0}, {"type": "note_on", "time": 15, "note": 72, "velocity": 123, "channel": 0}, {"type": "note_off", "time": 61, "note": 72, "velocity": 123, "channel": 0}, {"type": "note_on", "time": 6, "note": 69, "velocity": 116, "channel": 0}, {"type": "note_off", "time": 27, "note": 69, "velocity": 116, "channel": 0}, {"type": "note_on", "time": 12, "note": 72, "velocity": 101, "channel": 0}, {"type": "note_off", "time": 195, "note": 72, "velocity": 101, "channel": 0}, {"type": "note_on", "time": 146, "note": 70, "velocity": 114, "channel": 0}, {"type": "note_off", "time": 65, "note": 70, "velocity": 114, "channel": 0}, {"type": "note_on", "time": 55, "note": 77, "velocity": 118, "channel": 0}, {"type": "note_off", "time": 83, "note": 77, "velocity": 118, "channel": 0}, {"type": "note_on", "time": 15, "note": 73, "velocity": 113, "channel": 0}, {"type": "note_off", "time": 92, "note": 73, "velocity": 113, "channel": 0}, {"type": "note_on", "time": 5, "note": 70, "velocity": 110, "channel": 0}, {"type": "note_off", "time": 59, "note": 70, "velocity": 110, "channel": 0}, {"type": "note_on", "time": 14, "note": 67, "velocity": 112, "channel": 0}, {"type": "note_off", "time": 105, "note": 67, "velocity": 112, "channel": 0}, {"type": "note_on", "time": 12, "note": 69, "velocity": 111, "channel": 0}, {"type": "note_off", "time": 63, "note": 69, "velocity": 111, "channel": 0}, {"type": "note_on", "time": 10, "note": 72, "velocity": 120, "channel": 0}, {"type": "note_off", "time": 96, "note": 72, "velocity": 120, "channel": 0}, {"type": "note_on", "time": 10, "note": 69, "velocity": 112, "channel": 0}, {"type": "note_off", "time": 56, "note": 69, "velocity": 112, "channel": 0}, {"type": "note_on", "time": 18, "note": 68, "velocity": 110, "channel": 0}, {"type": "note_off", "time": 67, "note": 68, "velocity": 110, "channel": 0}, {"type": "note_on", "time": 92, "note": 67, "velocity": 105, "channel": 0}, {"type": "note_off", "time": 73, "note": 67, "velocity": 105, "channel": 0}, {"type": "note_on", "time": 76, "note": 67, "velocity": 107, "channel": 0}, {"type": "note_off", "time": 262, "note": 67, "velocity": 107, "channel": 0}, {"type": "note_on", "time": 31, "note": 69, "velocity": 111, "channel": 0}, {"type": "note_off", "time": 110, "note": 69, "velocity": 111, "channel": 0}, {"type": "note_on", "time": 4, "note": 65, "velocity": 115, "channel": 0}, {"type": "note_off", "time": 43, "note": 65, "velocity": 115, "channel": 0}, {"type": "note_on", "time": 10, "note": 67, "velocity": 111, "channel": 0}, {"type": "note_off", "time": 106, "note": 67, "velocity": 111, "channel": 0}, {"type": "note_on", "time": 46, "note": 67, "velocity": 115, "channel": 0}, {"type": "note_off", "time": 101, "note": 67, "velocity": 115, "channel": 0}, {"type": "note_on", "time": 65, "note": 67, "velocity": 101, "channel": 0}, {"type": "note_off", "time": 253, "note": 67, "velocity": 101, "channel": 0}, {"type": "note_on", "time": 337, "note": 65, "velocity": 112, "channel": 0}, {"type": "note_off", "time": 68, "note": 65, "velocity": 112, "channel": 0}, {"type": "note_on", "time": 13, "note": 68, "velocity": 107, "channel": 0}, {"type": "note_off", "time": 98, "note": 68, "velocity": 107, "channel": 0}, {"type": "note_on", "time": 14, "note": 69, "velocity": 117, "channel": 0}, {"type": "note_off", "time": 71, "note": 69, "velocity": 117, "channel": 0}, {"type": "note_on", "time": 10, "note": 68, "velocity": 109, "channel": 0}, {"type": "note_off", "time": 80, "note": 68, "velocity": 109, "channel": 0}, {"type": "note_on", "time": 6, "note": 69, "velocity": 110, "channel": 0}, {"type": "note_off", "time": 63, "note": 69, "velocity": 110, "channel": 0}, {"type": "note_on", "time": 10, "note": 68, "velocity": 113, "channel": 0}, {"type": "note_off", "time": 27, "note": 68, "velocity": 113, "channel": 0}, {"type": "note_on", "time": 7, "note": 69, "velocity": 112, "channel": 0}, {"type": "note_off", "time": 38, "note": 69, "velocity": 112, "channel": 0}, {"type": "note_on", "time": 3, "note": 68, "velocity": 113, "channel": 0}, {"type": "note_off", "time": 27, "note": 68, "velocity": 113, "channel": 0}, {"type": "note_on", "time": 5, "note": 69, "velocity": 112, "channel": 0}, {"type": "note_off", "time": 59, "note": 69, "velocity": 112, "channel": 0}, {"type": "note_on", "time": 24, "note": 63, "velocity": 101, "channel": 0}, {"type": "note_off", "time": 42, "note": 63, "velocity": 101, "channel": 0}, {"type": "note_on", "time": 7, "note": 67, "velocity": 112, "channel": 0}, {"type": "note_off", "time": 70, "note": 67, "velocity": 112, "channel": 0}, {"type": "note_on", "time": 34, "note": 67, "velocity": 96, "channel": 0}, {"type": "note_off", "time": 57, "note": 67, "velocity": 96, "channel": 0}, {"type": "note_on", "time": 41, "note": 67, "velocity": 92, "channel": 0}, {"type": "note_off", "time": 335, "note": 67, "velocity": 92, "channel": 0}, {"type": "note_on", "time": 284, "note": 81, "velocity": 111, "channel": 0}, {"type": "note_off", "time": 92, "note": 81, "velocity": 111, "channel": 0}, {"type": "note_on", "time": 4, "note": 77, "velocity": 116, "channel": 0}, {"type": "note_off", "time": 78, "note": 77, "velocity": 116, "channel": 0}, {"type": "note_on", "time": 18, "note": 75, "velocity": 120, "channel": 0}, {"type": "note_off", "time": 82, "note": 75, "velocity": 120, "channel": 0}, {"type": "note_on", "time": 5, "note": 74, "velocity": 113, "channel": 0}, {"type": "note_off", "time": 186, "note": 74, "velocity": 113, "channel": 0}, {"type": "note_on", "time": 24, "note": 72, "velocity": 121, "channel": 0}, {"type": "note_off", "time": 73, "note": 72, "velocity": 121, "channel": 0}, {"type": "note_on", "time": 31, "note": 74, "velocity": 117, "channel": 0}, {"type": "note_off", "time": 76, "note": 74, "velocity": 117, "channel": 0}, {"type": "note_on", "time": 2, "note": 77, "velocity": 109, "channel": 0}, {"type": "note_off", "time": 214, "note": 77, "velocity": 109, "channel": 0}, {"type": "note_on", "time": 0, "note": 74, "velocity": 122, "channel": 0}, {"type": "note_off", "time": 85, "note": 74, "velocity": 122, "channel": 0}, {"type": "note_on", "time": 34, "note": 68, "velocity": 111, "channel": 0}, {"type": "note_off", "time": 73, "note": 68, "velocity": 111, "channel": 0}, {"type": "note_on", "time": 8, "note": 67, "velocity": 106, "channel": 0}, {"type": "note_off", "time": 88, "note": 67, "velocity": 106, "channel": 0}, {"type": "note_on", "time": 11, "note": 65, "velocity": 110, "channel": 0}, {"type": "note_off", "time": 71, "note": 65, "velocity": 110, "channel": 0}, {"type": "note_on", "time": 8, "note": 67, "velocity": 100, "channel": 0}, {"type": "note_off", "time": 137, "note": 67, "velocity": 100, "channel": 0}, {"type": "note_on", "time": 49, "note": 67, "velocity": 111, "channel": 0}, {"type": "note_off", "time": 73, "note": 67, "velocity": 111, "channel": 0}, {"type": "note_on", "time": 27, "note": 68, "velocity": 108, "channel": 0}, {"type": "note_off", "time": 38, "note": 68, "velocity": 108, "channel": 0}, {"type": "note_on", "time": 29, "note": 70, "velocity": 117, "channel": 0}, {"type": "note_off", "time": 40, "note": 70, "velocity": 117, "channel": 0}, {"type": "note_on", "time": 1, "note": 71, "velocity": 121, "channel": 0}, {"type": "note_off", "time": 26, "note": 71, "velocity": 121, "channel": 0}, {"type": "note_on", "time": 7, "note": 72, "velocity": 116, "channel": 0}, {"type": "note_off", "time": 48, "note": 72, "velocity": 116, "channel": 0}, {"type": "note_on", "time": 12, "note": 74, "velocity": 115, "channel": 0}, {"type": "note_off", "time": 40, "note": 74, "velocity": 115, "channel": 0}, {"type": "note_on", "time": 6, "note": 72, "velocity": 111, "channel": 0}, {"type": "note_off", "time": 195, "note": 72, "velocity": 111, "channel": 0}, {"type": "note_on", "time": 60, "note": 60, "velocity": 107, "channel": 0}, {"type": "note_off", "time": 68, "note": 60, "velocity": 107, "channel": 0}, {"type": "note_on", "time": 14, "note": 62, "velocity": 98, "channel": 0}, {"type": "note_off", "time": 69, "note": 62, "velocity": 98, "channel": 0}, {"type": "note_on", "time": 32, "note": 65, "velocity": 101, "channel": 0}, {"type": "note_off", "time": 394, "note": 65, "velocity": 101, "channel": 0}, {"type": "note_on", "time": 416, "note": 69, "velocity": 92, "channel": 0}, {"type": "note_off", "time": 366, "note": 69, "velocity": 92, "channel": 0}, {"type": "note_on", "time": 20, "note": 72, "velocity": 97, "channel": 0}, {"type": "note_off", "time": 59, "note": 72, "velocity": 97, "channel": 0}, {"type": "end_of_track", "time": 0}]]}