{"ticks_per_beat": 192, "tracks": [[{"type": "track_name", "name": "Melody", "time": 0}, {"type": "set_tempo", "tempo": 242914, "time": 0}, {"type": "key_signature", "key": "Eb", "time": 0}, {"type": "time_signature", "numerator": 4, "denominator": 4, "clocks_per_click": 24, "notated_32nd_notes_per_beat": 8, "time": 0}, {"type": "note_on", "time": 3028, "note": 75, "velocity": 109, "channel": 0}, {"type": "note_off", "time": 1426, "note": 75, "velocity": 109, "channel": 0}, {"type": "note_on", "time": 0, "note": 72, "velocity": 112, "channel": 0}, {"type": "note_off", "time": 53, "note": 72, "velocity": 112, "channel": 0}, {"type": "note_on", "time": 6, "note": 71, "velocity": 114, "channel": 0}, {"type": "note_off", "time": 48, "note": 71, "velocity": 114, "channel": 0}, {"type": "note_on", "time": 5, "note": 70, "velocity": 114, "channel": 0}, {"type": "note_off", "time": 863, "note": 70, "velocity": 114, "channel": 0}, {"type": "note_on", "time": 55, "note": 70, "velocity": 114, "channel": 0}, {"type": "note_off", "time": 122, "note": 70, "velocity": 114, "channel": 0}, {"type": "note_on", "time": 55, "note": 70, "velocity": 113, "channel": 0}, {"type": "note_off", "time": 161, "note": 70, "velocity": 113, "channel": 0}, {"type": "note_on", "time": 53, "note": 75, "velocity": 104, "channel": 0}, {"type": "note_off", "time": 836, "note": 75, "velocity": 104, "channel": 0}, {"type": "note_on", "time": 24, "note": 72, "velocity": 106, "channel": 0}, {"type": "note_off", "time": 65, "note": 72, "velocity": 106, "channel": 0}, {"type": "note_on", "time": 0, "note": 70, "velocity": 112, "channel": 0}, {"type": "note_off", "time": 266, "note": 70, "velocity": 112, "channel": 0}, {"type": "note_on", "time": 41, "note": 70, "velocity": 112, "channel": 0}, {"type": "note_off", "time": 291, "note": 70, "velocity": 112, "channel": 0}, {"type": "note_on", "time": 48, "note": 72, "velocity": 103, "channel": 0}, {"type": "note_off", "time": 60, "note": 72, "velocity": 103, "channel": 0}, {"type": "note_on", "time": 0, "note": 65, "velocity": 104, "channel": 0}, {"type": "note_off", "time": 46, "note": 65, "velocity": 104, "channel": 0}, {"type": "note_on", "time": 1, "note": 70, "velocity": 118, "channel": 0}, {"type": "note_off", "time": 104, "note": 70, "velocity": 118, "channel": 0}, {"type": "note_on", "time": 39, "note": 65, "velocity": 116, "channel": 0}, {"type": "note_off", "time": 180, "note": 65, "velocity": 116, "channel": 0}, {"type": "note_on", "time": 708, "note": 70, "velocity": 110, "channel": 0}, {"type": "note_off", "time": 134, "note": 70, "velocity": 110, "channel": 0}, {"type": "note_on", "time": 5, "note": 74, "velocity": 101, "channel": 0}, {"type": "note_off", "time": 49, "note": 74, "velocity": 101, "channel": 0}, {"type": "note_on", "time": 8, "note": 75, "velocity": 104, "channel": 0}, {"type": "note_off", "time": 462, "note": 75, "velocity": 104, "channel": 0}, {"type": "note_on", "time": 10, "note": 73, "velocity": 109, "channel": 0}, {"type": "note_off", "time": 68, "note": 73, "velocity": 109, "channel": 0}, {"type": "note_on", "time": 25, "note": 71, "velocity": 114, "channel": 0}, {"type": "note_off", "time": 67, "note": 71, "velocity": 114, "channel": 0}, {"type": "note_on", "time": 17, "note": 70, "velocity": 109, "channel": 0}, {"type": "note_off", "time": 72, "note": 70, "velocity": 109, "channel": 0}, {"type": "note_on", "time": 13, "note": 69, "velocity": 114, "channel": 0}, {"type": "note_off", "time": 72, "note": 69, "velocity": 114, "channel": 0}, {"type": "note_on", "time": 29, "note": 68, "velocity": 116, "channel": 0}, {"type": "note_off", "time": 71, "note": 68, "velocity": 116, "channel": 0}, {"type": "note_on", "time": 32, "note": 67, "velocity": 115, "channel": 0}, {"type": "note_off", "time": 67, "note": 67, "velocity": 115, "channel": 0}, {"type": "note_on", "time": 22, "note": 66, "velocity": 111, "channel": 0}, {"type": "note_off", "time": 83, "note": 66, "velocity": 111, "channel": 0}, {"type": "note_on", "time": 12, "note": 67, "velocity": 105, "channel": 0}, {"type": "note_off", "time": 71, "note": 67, "velocity": 105, "channel": 0}, {"type": "note_on", "time": 21, "note": 68, "velocity": 118, "channel": 0}, {"type": "note_off", "time": 78, "note": 68, "velocity": 118, "channel": 0}, {"type": "note_on", "time": 20, "note": 66, "velocity": 101, "channel": 0}, {"type": "note_off", "time": 74, "note": 66, "velocity": 101, "channel": 0}, {"type": "note_on", "time": 21, "note": 67, "velocity": 115, "channel": 0}, {"type": "note_off", "time": 81, "note": 67, "velocity": 115, "channel": 0}, {"type": "note_on", "time": 11, "note": 66, "velocity": 112, "channel": 0}, {"type": "note_off", "time": 83, "note": 66, "velocity": 112, "channel": 0}, {"type": "note_on", "time": 17, "note": 65, "velocity": 117, "channel": 0}, {"type": "note_off", "time": 79, "note": 65, "velocity": 117, "channel": 0}, {"type": "note_on", "time": 8, "note": 64, "velocity": 123, "channel": 0}, {"type": "note_off", "time": 71, "note": 64, "velocity": 123, "channel": 0}, {"type": "note_on", "time": 24, "note": 63, "velocity": 119, "channel": 0}, {"type": "note_off", "time": 72, "note": 63, "velocity": 119, "channel": 0}, {"type": "note_on", "time": 22, "note": 61, "velocity": 117, "channel": 0}, {"type": "note_off", "time": 66, "note": 61, "velocity": 117, "channel": 0}, {"type": "note_on", "time": 36, "note": 56, "velocity": 109, "channel": 0}, {"type": "note_off", "time": 65, "note": 56, "velocity": 109, "channel": 0}, {"type": "note_on", "time": 12, "note": 51, "velocity": 106, "channel": 0}, {"type": "note_off", "time": 61, "note": 51, "velocity": 106, "channel": 0}, {"type": "note_on", "time": 19, "note": 53, "velocity": 120, "channel": 0}, {"type": "note_off", "time": 35, "note": 53, "velocity": 120, "channel": 0}, {"type": "note_on", "time": 6, "note": 58, "velocity": 112, "channel": 0}, {"type": "note_off", "time": 56, "note": 58, "velocity": 112, "channel": 0}, {"type": "note_on", "time": 11, "note": 53, "velocity": 120, "channel": 0}, {"type": "note_off", "time": 64, "note": 53, "velocity": 120, "channel": 0}, {"type": "note_on", "time": 19, "note": 49, "velocity": 113, "channel": 0}, {"type": "note_off", "time": 75, "note": 49, "velocity": 113, "channel": 0}, {"type": "note_on", "time": 32, "note": 53, "velocity": 116, "channel": 0}, {"type": "note_off", "time": 82, "note": 53, "velocity": 116, "channel": 0}, {"type": "note_on", "time": 20, "note": 51, "velocity": 116, "channel": 0}, {"type": "note_off", "time": 134, "note": 51, "velocity": 116, "channel": 0}, {"type": "note_on", "time": 32, "note": 46, "velocity": 118, "channel": 0}, {"type": "note_off", "time": 94, "note": 46, "velocity": 118, "channel": 0}, {"type": "note_on", "time": 41, "note": 44, "velocity": 118, "channel": 0}, {"type": "note_off", "time": 251, "note": 44, "velocity": 118, "channel": 0}, {"type": "note_on", "time": 654, "note": 67, "velocity": 116, "channel": 0}, {"type": "note_off", "time": 103, "note": 67, "velocity": 116, "channel": 0}, {"type": "note_on", "time": 9, "note": 65, "velocity": 115, "channel": 0}, {"type": "note_off", "time": 78, "note": 65, "velocity": 115, "channel": 0}, {"type": "note_on", "time": 0, "note": 67, "velocity": 114, "channel": 0}, {"type": "note_off", "time": 381, "note": 67, "velocity": 114, "channel": 0}, {"type": "note_on", "time": 28, "note": 67, "velocity": 114, "channel": 0}, {"type": "note_off", "time": 229, "note": 67, "velocity": 114, "channel": 0}, {"type": "note_on", "time": 34, "note": 66, "velocity": 111, "channel": 0}, {"type": "note_off", "time": 87, "note": 66, "velocity": 111, "channel": 0}, {"type": "note_on", "time": 33, "note": 68, "velocity": 113, "channel": 0}, {"type": "note_on", "time": 115, "note": 67, "velocity": 112, "channel": 0}, {"type": "note_off", "time": 0, "note": 68, "velocity": 113, "channel": 0}, {"type": "note_off", "time": 71, "note": 67, "velocity": 112, "channel": 0}, {"type": "note_on", "time": 0, "note": 63, "velocity": 120, "channel": 0}, {"type": "note_off", "time": 69, "note": 63, "velocity": 120, "channel": 0}, {"type": "note_on", "time": 5, "note": 59, "velocity": 104, "channel": 0}, {"type": "note_off", "time": 61, "note": 59, "velocity": 104, "channel": 0}, {"type": "note_on", "time": 0, "note": 56, "velocity": 110, "channel": 0}, {"type": "note_off", "time": 79, "note": 56, "velocity": 110, "channel": 0}, {"type": "note_on", "time": 24, "note": 63, "velocity": 120, "channel": 0}, {"type": "note_off", "time": 110, "note": 63, "velocity": 120, "channel": 0}, {"type": "note_on", "time": 12, "note": 62, "velocity": 117, "channel": 0}, {"type": "note_off", "time": 72, "note": 62, "velocity": 117, "channel": 0}, {"type": "note_on", "time": 0, "note": 59, "velocity": 102, "channel": 0}, {"type": "note_off", "time": 86, "note": 59, "velocity": 102, "channel": 0}, {"type": "note_on", "time": 19, "note": 55, "velocity": 104, "channel": 0}, {"type": "note_off", "time": 98, "note": 55, "velocity": 104, "channel": 0}, {"type": "note_on", "time": 6, "note": 60, "velocity": 118, "channel": 0}, {"type": "note_off", "time": 71, "note": 60, "velocity": 118, "channel": 0}, {"type": "note_on", "time": 5, "note": 62, "velocity": 116, "channel": 0}, {"type": "note_off", "time": 47, "note": 62, "velocity": 116, "channel": 0}, {"type": "note_on", "time": 5, "note": 63, "velocity": 119, "channel": 0}, {"type": "note_off", "time": 114, "note": 63, "velocity": 119, "channel": 0}, {"type": "note_on", "time": 6, "note": 65, "velocity": 96, "channel": 0}, {"type": "note_off", "time": 76, "note": 65, "velocity": 96, "channel": 0}, {"type": "note_on", "time": 10, "note": 67, "velocity": 110, "channel": 0}, {"type": "note_off", "time": 89, "note": 67, "velocity": 110, "channel": 0}, {"type": "note_on", "time": 0, "note": 68, "velocity": 112, "channel": 0}, {"type": "note_off", "time": 94, "note": 68, "velocity": 112, "channel": 0}, {"type": "note_on", "time": 0, "note": 67, "velocity": 110, "channel": 0}, {"type": "note_off", "time": 87, "note": 67, "velocity": 110, "channel": 0}, {"type": "note_on", "time": 11, "note": 65, "velocity": 114, "channel": 0}, {"type": "note_off", "time": 96, "note": 65, "velocity": 114, "channel": 0}, {"type": "note_on", "time": 14, "note": 64, "velocity": 117, "channel": 0}, {"type": "note_off", "time": 92, "note": 64, "velocity": 117, "channel": 0}, {"type": "note_on", "time": 10, "note": 65, "velocity": 102, "channel": 0}, {"type": "note_off", "time": 50, "note": 65, "velocity": 102, "channel": 0}, {"type": "note_on", "time": 20, "note": 67, "velocity": 111, "channel": 0}, {"type": "note_off", "time": 75, "note": 67, "velocity": 111, "channel": 0}, {"type": "note_on", "time": 16, "note": 68, "velocity": 114, "channel": 0}, {"type": "note_off", "time": 86, "note": 68, "velocity": 114, "channel": 0}, {"type": "note_on", "time": 3, "note": 65, "velocity": 114, "channel": 0}, {"type": "note_off", "time": 103, "note": 65, "velocity": 114, "channel": 0}, {"type": "note_on", "time": 0, "note": 67, "velocity": 96, "channel": 0}, {"type": "note_off", "time": 84, "note": 67, "velocity": 96, "channel": 0}, {"type": "note_on", "time": 5, "note": 68, "velocity": 115, "channel": 0}, {"type": "note_off", "time": 71, "note": 68, "velocity": 115, "channel": 0}, {"type": "note_on", "time": 9, "note": 70, "velocity": 109, "channel": 0}, {"type": "note_off", "time": 86, "note": 70, "velocity": 109, "channel": 0}, {"type": "note_on", "time": 20, "note": 72, "velocity": 104, "channel": 0}, {"type": "note_off", "time": 89, "note": 72, "velocity": 104, "channel": 0}, {"type": "note_on", "time": 14, "note": 75, "velocity": 120, "channel": 0}, {"type": "note_off", "time": 79, "note": 75, "velocity": 120, "channel": 0}, {"type": "note_on", "time": 0, "note": 72, "velocity": 104, "channel": 0}, {"type": "note_off", "time": 102, "note": 72, "velocity": 104, "channel": 0}, {"type": "note_on", "time": 3, "note": 68, "velocity": 115, "channel": 0}, {"type": "note_off", "time": 79, "note": 68, "velocity": 115, "channel": 0}, {"type": "note_on", "time": 9, "note": 67, "velocity": 111, "channel": 0}, {"type": "note_off", "time": 72, "note": 67, "velocity": 111, "channel": 0}, {"type": "note_on", "time": 9, "note": 70, "velocity": 106, "channel": 0}, {"type": "note_off", "time": 91, "note": 70, "velocity": 106, "channel": 0}, {"type": "note_on", "time": 16, "note": 68, "velocity": 117, "channel": 0}, {"type": "note_off", "time": 68, "note": 68, "velocity": 117, "channel": 0}, {"type": "note_on", "time": 4, "note": 64, "velocity": 107, "channel": 0}, {"type": "note_off", "time": 84, "note": 64, "velocity": 107, "channel": 0}, {"type": "note_on", "time": 16, "note": 66, "velocity": 114, "channel": 0}, {"type": "note_off", "time": 33, "note": 66, "velocity": 114, "channel": 0}, {"type": "note_on", "time": 0, "note": 67, "velocity": 112, "channel": 0}, {"type": "note_off", "time": 59, "note": 67, "velocity": 112, "channel": 0}, {"type": "note_on", "time": 18, "note": 66, "velocity": 110, "channel": 0}, {"type": "note_off", "time": 86, "note": 66, "velocity": 110, "channel": 0}, {"type": "note_on", "time": 13, "note": 65, "velocity": 110, "channel": 0}, {"type": "note_off", "time": 74, "note": 65, "velocity": 110, "channel": 0}, {"type": "note_on", "time": 0, "note": 64, "velocity": 117, "channel": 0}, {"type": "note_off", "time": 97, "note": 64, "velocity": 117, "channel": 0}, {"type": "note_on", "time": 8, "note": 63, "velocity": 114, "channel": 0}, {"type": "note_on", "time": 97, "note": 65, "velocity": 94, "channel": 0}, {"type": "note_off", "time": 0, "note": 63, "velocity": 114, "channel": 0}, {"type": "note_off", "time": 63, "note": 65, "velocity": 94, "channel": 0}, {"type": "note_on", "time": 10, "note": 67, "velocity": 111, "channel": 0}, {"type": "note_off", "time": 106, "note": 67, "velocity": 111, "channel": 0}, {"type": "note_on", "time": 8, "note": 63, "velocity": 121, "channel": 0}, {"type": "note_off", "time": 92, "note": 63, "velocity": 121, "channel": 0}, {"type": "note_on", "time": 8, "note": 63, "velocity": 119, "channel": 0}, {"type": "note_off", "time": 51, "note": 63, "velocity": 119, "channel": 0}, {"type": "note_on", "time": 10, "note": 61, "velocity": 103, "channel": 0}, {"type": "note_off", "time": 29, "note": 61, "velocity": 103, "channel": 0}, {"type": "note_on", "time": 0, "note": 63, "velocity": 120, "channel": 0}, {"type": "note_off", "time": 57, "note": 63, "velocity": 120, "channel": 0}, {"type": "note_on", "time": 10, "note": 60, "velocity": 114, "channel": 0}, {"type": "note_off", "time": 130, "note": 60, "velocity": 114, "channel": 0}, {"type": "note_on", "time": 575, "note": 72, "velocity": 113, "channel": 0}, {"type": "note_off", "time": 94, "note": 72, "velocity": 113, "channel": 0}, {"type": "note_on", "time": 0, "note": 70, "velocity": 115, "channel": 0}, {"type": "note_off", "time": 66, "note": 70, "velocity": 115, "channel": 0}, {"type": "note_on", "time": 76, "note": 72, "velocity": 110, "channel": 0}, {"type": "note_off", "time": 152, "note": 72, "velocity": 110, "channel": 0}, {"type": "note_on", "time": 1, "note": 70, "velocity": 110, "channel": 0}, {"type": "note_off", "time": 130, "note": 70, "velocity": 110, "channel": 0}, {"type": "note_on", "time": 21, "note": 72, "velocity": 110, "channel": 0}, {"type": "note_off", "time": 231, "note": 72, "velocity": 110, "channel": 0}, {"type": "note_on", "time": 12, "note": 72, "velocity": 115, "channel": 0}, {"type": "note_off", "time": 137, "note": 72, "velocity": 115, "channel": 0}, {"type": "note_on", "time": 26, "note": 71, "velocity": 117, "channel": 0}, {"type": "note_off", "time": 340, "note": 71, "velocity": 117, "channel": 0}, {"type": "note_on", "time": 29, "note": 71, "velocity": 112, "channel": 0}, {"type": "note_off", "time": 83, "note": 71, "velocity": 112, "channel": 0}, {"type": "note_on", "time": 6, "note": 70, "velocity": 112, "channel": 0}, {"type": "note_off", "time": 74, "note": 70, "velocity": 112, "channel": 0}, {"type": "note_on", "time": 11, "note": 69, "velocity": 112, "channel": 0}, {"type": "note_off", "time": 63, "note": 69, "velocity": 112, "channel": 0}, {"type": "note_on", "time": 16, "note": 68, "velocity": 112, "channel": 0}, {"type": "note_off", "time": 99, "note": 68, "velocity": 112, "channel": 0}, {"type": "note_on", "time": 11, "note": 70, "velocity": 110, "channel": 0}, {"type": "note_off", "time": 74, "note": 70, "velocity": 110, "channel": 0}, {"type": "note_on", "time": 10, "note": 68, "velocity": 111, "channel": 0}, {"type": "note_off", "time": 72, "note": 68, "velocity": 111, "channel": 0}, {"type": "note_on", "time": 5, "note": 67, "velocity": 110, "channel": 0}, {"type": "note_off", "time": 69, "note": 67, "velocity": 110, "channel": 0}, {"type": "note_on", "time": 8, "note": 66, "velocity": 107, "channel": 0}, {"type": "note_off", "time": 74, "note": 66, "velocity": 107, "channel": 0}, {"type": "note_on", "time": 0, "note": 68, "velocity": 112, "channel": 0}, {"type": "note_off", "time": 111, "note": 68, "velocity": 112, "channel": 0}, {"type": "note_on", "time": 19, "note": 67, "velocity": 110, "channel": 0}, {"type": "note_off", "time": 91, "note": 67, "velocity": 110, "channel": 0}, {"type": "note_on", "time": 1, "note": 66, "velocity": 107, "channel": 0}, {"type": "note_on", "time": 87, "note": 65, "velocity": 111, "channel": 0}, {"type": "note_off", "time": 0, "note": 66, "velocity": 107, "channel": 0}, {"type": "note_off", "time": 83, "note": 65, "velocity": 111, "channel": 0}, {"type": "note_on", "time": 4, "note": 64, "velocity": 124, "channel": 0}, {"type": "note_off", "time": 72, "note": 64, "velocity": 124, "channel": 0}, {"type": "note_on", "time": 12, "note": 63, "velocity": 116, "channel": 0}, {"type": "note_off", "time": 78, "note": 63, "velocity": 116, "channel": 0}, {"type": "note_on", "time": 16, "note": 65, "velocity": 111, "channel": 0}, {"type": "note_off", "time": 84, "note": 65, "velocity": 111, "channel": 0}, {"type": "note_on", "time": 0, "note": 67, "velocity": 110, "channel": 0}, {"type": "note_off", "time": 74, "note": 67, "velocity": 110, "channel": 0}, {"type": "note_on", "time": 5, "note": 66, "velocity": 108, "channel": 0}, {"type": "note_off", "time": 33, "note": 66, "velocity": 108, "channel": 0}, {"type": "note_on", "time": 0, "note": 63, "velocity": 113, "channel": 0}, {"type": "note_off", "time": 79, "note": 63, "velocity": 113, "channel": 0}, {"type": "note_on", "time": 2, "note": 65, "velocity": 114, "channel": 0}, {"type": "note_off", "time": 99, "note": 65, "velocity": 114, "channel": 0}, {"type": "note_on", "time": 6, "note": 63, "velocity": 116, "channel": 0}, {"type": "note_off", "time": 73, "note": 63, "velocity": 116, "channel": 0}, {"type": "note_on", "time": 5, "note": 58, "velocity": 99, "channel": 0}, {"type": "note_off", "time": 72, "note": 58, "velocity": 99, "channel": 0}, {"type": "note_on", "time": 25, "note": 55, "velocity": 103, "channel": 0}, {"type": "note_off", "time": 84, "note": 55, "velocity": 103, "channel": 0}, {"type": "note_on", "time": 6, "note": 63, "velocity": 122, "channel": 0}, {"type": "note_off", "time": 61, "note": 63, "velocity": 122, "channel": 0}, {"type": "note_on", "time": 65, "note": 54, "velocity": 108, "channel": 0}, {"type": "note_off", "time": 68, "note": 54, "velocity": 108, "channel": 0}, {"type": "note_on", "time": 0, "note": 56, "velocity": 105, "channel": 0}, {"type": "note_off", "time": 79, "note": 56, "velocity": 105, "channel": 0}, {"type": "note_on", "time": 558, "note": 45, "velocity": 118, "channel": 0}, {"type": "note_off", "time": 82, "note": 45, "velocity": 118, "channel": 0}, {"type": "note_on", "time": 4, "note": 51, "velocity": 111, "channel": 0}, {"type": "note_off", "time": 56, "note": 51, "velocity": 111, "channel": 0}, {"type": "note_on", "time": 22, "note": 58, "velocity": 107, "channel": 0}, {"type": "note_off", "time": 72, "note": 58, "velocity": 107, "channel": 0}, {"type": "note_on", "time": 40, "note": 48, "velocity": 117, "channel": 0}, {"type": "note_off", "time": 68, "note": 48, "velocity": 117, "channel": 0}, {"type": "note_on", "time": 17, "note": 50, "velocity": 104, "channel": 0}, {"type": "note_off", "time": 84, "note": 50, "velocity": 104, "channel": 0}, {"type": "note_on", "time": 35, "note": 53, "velocity": 112, "channel": 0}, {"type": "note_off", "time": 84, "note": 53, "velocity": 112, "channel": 0}, {"type": "note_on", "time": 0, "note": 52, "velocity": 114, "channel": 0}, {"type": "note_off", "time": 69, "note": 52, "velocity": 114, "channel": 0}, {"type": "note_on", "time": 5, "note": 51, "velocity": 113, "channel": 0}, {"type": "note_off", "time": 81, "note": 51, "velocity": 113, "channel": 0}, {"type": "note_on", "time": 18, "note": 56, "velocity": 97, "channel": 0}, {"type": "note_off", "time": 76, "note": 56, "velocity": 97, "channel": 0}, {"type": "note_on", "time": 29, "note": 59, "velocity": 101, "channel": 0}, {"type": "note_off", "time": 96, "note": 59, "velocity": 101, "channel": 0}, {"type": "note_on", "time": 6, "note": 61, "velocity": 116, "channel": 0}, {"type": "note_off", "time": 83, "note": 61, "velocity": 116, "channel": 0}, {"type": "note_on", "time": 0, "note": 62, "velocity": 118, "channel": 0}, {"type": "note_off", "time": 95, "note": 62, "velocity": 118, "channel": 0}, {"type": "note_on", "time": 6, "note": 61, "velocity": 115, "channel": 0}, {"type": "note_off", "time": 94, "note": 61, "velocity": 115, "channel": 0}, {"type": "note_on", "time": 6, "note": 59, "velocity": 96, "channel": 0}, {"type": "note_off", "time": 81, "note": 59, "velocity": 96, "channel": 0}, {"type": "note_on", "time": 0, "note": 56, "velocity": 99, "channel": 0}, {"type": "note_off", "time": 42, "note": 56, "velocity": 99, "channel": 0}, {"type": "note_on", "time": 39, "note": 61, "velocity": 110, "channel": 0}, {"type": "note_off", "time": 96, "note": 61, "velocity": 110, "channel": 0}, {"type": "note_on", "time": 200, "note": 71, "velocity": 111, "channel": 0}, {"type": "note_off", "time": 79, "note": 71, "velocity": 111, "channel": 0}, {"type": "note_on", "time": 14, "note": 66, "velocity": 104, "channel": 0}, {"type": "note_off", "time": 99, "note": 66, "velocity": 104, "channel": 0}, {"type": "note_on", "time": 76, "note": 68, "velocity": 114, "channel": 0}, {"type": "note_off", "time": 102, "note": 68, "velocity": 114, "channel": 0}, {"type": "note_on", "time": 0, "note": 71, "velocity": 107, "channel": 0}, {"type": "note_off", "time": 47, "note": 71, "velocity": 107, "channel": 0}, {"type": "note_on", "time": 0, "note": 72, "velocity": 98, "channel": 0}, {"type": "note_off", "time": 37, "note": 72, "velocity": 98, "channel": 0}, {"type": "note_on", "time": 0, "note": 73, "velocity": 104, "channel": 0}, {"type": "note_off", "time": 84, "note": 73, "velocity": 104, "channel": 0}, {"type": "note_on", "time": 183, "note": 72, "velocity": 107, "channel": 0}, {"type": "note_off", "time": 92, "note": 72, "velocity": 107, "channel": 0}, {"type": "note_on", "time": 2, "note": 71, "velocity": 104, "channel": 0}, {"type": "note_off", "time": 30, "note": 71, "velocity": 104, "channel": 0}, {"type": "note_on", "time": 0, "note": 70, "velocity": 103, "channel": 0}, {"type": "note_off", "time": 27, "note": 70, "velocity": 103, "channel": 0}, {"type": "note_on", "time": 2, "note": 66, "velocity": 103, "channel": 0}, {"type": "note_off", "time": 41, "note": 66, "velocity": 103, "channel": 0}, {"type": "note_on", "time": 172, "note": 72, "velocity": 109, "channel": 0}, {"type": "note_off", "time": 29, "note": 72, "velocity": 109, "channel": 0}, {"type": "note_on", "time": 9, "note": 71, "velocity": 108, "channel": 0}, {"type": "note_off", "time": 25, "note": 71, "velocity": 108, "channel": 0}, {"type": "note_on", "time": 11, "note": 70, "velocity": 113, "channel": 0}, {"type": "note_off", "time": 63, "note": 70, "velocity": 113, "channel": 0}, {"type": "note_on", "time": 16, "note": 67, "velocity": 107, "channel": 0}, {"type": "note_off", "time": 40, "note": 67, "velocity": 107, "channel": 0}, {"type": "note_on", "time": 6, "note": 66, "velocity": 107, "channel": 0}, {"type": "note_off", "time": 35, "note": 66, "velocity": 107, "channel": 0}, {"type": "note_on", "time": 12, "note": 63, "velocity": 116, "channel": 0}, {"type": "note_off", "time": 111, "note": 63, "velocity": 116, "channel": 0}, {"type": "note_on", "time": 16, "note": 55, "velocity": 101, "channel": 0}, {"type": "note_off", "time": 55, "note": 55, "velocity": 101, "channel": 0}, {"type": "note_on", "time": 24, "note": 65, "velocity": 117, "channel": 0}, {"type": "note_off", "time": 91, "note": 65, "velocity": 117, "channel": 0}, {"type": "note_on", "time": 1, "note": 63, "velocity": 118, "channel": 0}, {"type": "note_off", "time": 81, "note": 63, "velocity": 118, "channel": 0}, {"type": "note_on", "time": 0, "note": 59, "velocity": 100, "channel": 0}, {"type": "note_off", "time": 48, "note": 59, "velocity": 100, "channel": 0}, {"type": "note_on", "time": 18, "note": 56, "velocity": 99, "channel": 0}, {"type": "note_off", "time": 75, "note": 56, "velocity": 99, "channel": 0}, {"type": "note_on", "time": 39, "note": 63, "velocity": 121, "channel": 0}, {"type": "note_off", "time": 107, "note": 63, "velocity": 121, "channel": 0}, {"type": "note_on", "time": 8, "note": 62, "velocity": 110, "channel": 0}, {"type": "note_off", "time": 107, "note": 62, "velocity": 110, "channel": 0}, {"type": "note_on", "time": 6, "note": 59, "velocity": 102, "channel": 0}, {"type": "note_off", "time": 44, "note": 59, "velocity": 102, "channel": 0}, {"type": "note_on", "time": 0, "note": 55, "velocity": 102, "channel": 0}, {"type": "note_off", "time": 84, "note": 55, "velocity": 102, "channel": 0}, {"type": "note_on", "time": 13, "note": 60, "velocity": 114, "channel": 0}, {"type": "note_off", "time": 95, "note": 60, "velocity": 114, "channel": 0}, {"type": "note_on", "time": 25, "note": 62, "velocity": 114, "channel": 0}, {"type": "note_off", "time": 86, "note": 62, "velocity": 114, "channel": 0}, {"type": "note_on", "time": 8, "note": 63, "velocity": 116, "channel": 0}, {"type": "note_off", "time": 91, "note": 63, "velocity": 116, "channel": 0}, {"type": "note_on", "time": 14, "note": 65, "velocity": 107, "channel": 0}, {"type": "note_off", "time": 65, "note": 65, "velocity": 107, "channel": 0}, {"type": "note_on", "time": 6, "note": 66, "velocity": 91, "channel": 0}, {"type": "note_off", "time": 73, "note": 66, "velocity": 91, "channel": 0}, {"type": "note_on", "time": 5, "note": 67, "velocity": 91, "channel": 0}, {"type": "note_off", "time": 83, "note": 67, "velocity": 91, "channel": 0}, {"type": "note_on", "time": 16, "note": 68, "velocity": 114, "channel": 0}, {"type": "note_off", "time": 92, "note": 68, "velocity": 114, "channel": 0}, {"type": "note_on", "time": 6, "note": 66, "velocity": 93, "channel": 0}, {"type": "note_off", "time": 81, "note": 66, "velocity": 93, "channel": 0}, {"type": "note_on", "time": 9, "note": 67, "velocity": 109, "channel": 0}, {"type": "note_off", "time": 58, "note": 67, "velocity": 109, "channel": 0}, {"type": "note_on", "time": 4, "note": 66, "velocity": 108, "channel": 0}, {"type": "note_off", "time": 82, "note": 66, "velocity": 108, "channel": 0}, {"type": "note_on", "time": 8, "note": 65, "velocity": 111, "channel": 0}, {"type": "note_off", "time": 83, "note": 65, "velocity": 111, "channel": 0}, {"type": "note_on", "time": 9, "note": 64, "velocity": 119, "channel": 0}, {"type": "note_off", "time": 76, "note": 64, "velocity": 119, "channel": 0}, {"type": "note_on", "time": 0, "note": 63, "velocity": 119, "channel": 0}, {"type": "note_off", "time": 98, "note": 63, "velocity": 119, "channel": 0}, {"type": "note_on", "time": 26, "note": 60, "velocity": 113, "channel": 0}, {"type": "note_off", "time": 69, "note": 60, "velocity": 113, "channel": 0}, {"type": "note_on", "time": 14, "note": 56, "velocity": 106, "channel": 0}, {"type": "note_off", "time": 83, "note": 56, "velocity": 106, "channel": 0}, {"type": "note_on", "time": 14, "note": 51, "velocity": 104, "channel": 0}, {"type": "note_off", "time": 69, "note": 51, "velocity": 104, "channel": 0}, {"type": "note_on", "time": 13, "note": 58, "velocity": 92, "channel": 0}, {"type": "note_off", "time": 309, "note": 58, "velocity": 92, "channel": 0}, {"type": "note_on", "time": 557, "note": 70, "velocity": 116, "channel": 0}, {"type": "note_off", "time": 105, "note": 70, "velocity": 116, "channel": 0}, {"type": "note_on", "time": 4, "note": 68, "velocity": 109, "channel": 0}, {"type": "note_off", "time": 149, "note": 68, "velocity": 109, "channel": 0}, {"type": "note_on", "time": 6, "note": 70, "velocity": 111, "channel": 0}, {"type": "note_off", "time": 135, "note": 70, "velocity": 111, "channel": 0}, {"type": "note_on", "time": 0, "note": 68, "velocity": 116, "channel": 0}, {"type": "note_off", "time": 121, "note": 68, "velocity": 116, "channel": 0}, {"type": "note_on", "time": 16, "note": 69, "velocity": 101, "channel": 0}, {"type": "note_off", "time": 28, "note": 69, "velocity": 101, "channel": 0}, {"type": "note_on", "time": 6, "note": 70, "velocity": 110, "channel": 0}, {"type": "note_off", "time": 91, "note": 70, "velocity": 110, "channel": 0}, {"type": "note_on", "time": 12, "note": 68, "velocity": 113, "channel": 0}, {"type": "note_off", "time": 134, "note": 68, "velocity": 113, "channel": 0}, {"type": "note_on", "time": 48, "note": 70, "velocity": 109, "channel": 0}, {"type": "note_on", "time": 87, "note": 66, "velocity": 100, "channel": 0}, {"type": "note_off", "time": 0, "note": 70, "velocity": 109, "channel": 0}, {"type": "note_off", "time": 53, "note": 66, "velocity": 100, "channel": 0}, {"type": "note_on", "time": 6, "note": 70, "velocity": 110, "channel": 0}, {"type": "note_off", "time": 178, "note": 70, "velocity": 110, "channel": 0}, {"type": "note_on", "time": 5, "note": 75, "velocity": 102, "channel": 0}, {"type": "note_off", "time": 855, "note": 75, "velocity": 102, "channel": 0}, {"type": "note_on", "time": 128, "note": 67, "velocity": 112, "channel": 0}, {"type": "note_off", "time": 137, "note": 67, "velocity": 112, "channel": 0}, {"type": "note_on", "time": 5, "note": 69, "velocity": 115, "channel": 0}, {"type": "note_off", "time": 118, "note": 69, "velocity": 115, "channel": 0}, {"type": "note_on", "time": 430, "note": 67, "velocity": 112, "channel": 0}, {"type": "note_off", "time": 107, "note": 67, "velocity": 112, "channel": 0}, {"type": "note_on", "time": 170, "note": 75, "velocity": 112, "channel": 0}, {"type": "note_off", "time": 79, "note": 75, "velocity": 112, "channel": 0}, {"type": "note_on", "time": 114, "note": 77, "velocity": 105, "channel": 0}, {"type": "note_off", "time": 42, "note": 77, "velocity": 105, "channel": 0}, {"type": "note_on", "time": 0, "note": 79, "velocity": 110, "channel": 0}, {"type": "note_off", "time": 28, "note": 79, "velocity": 110, "channel": 0}, {"type": "note_on", "time": 0, "note": 81, "velocity": 112, "channel": 0}, {"type": "note_off", "time": 544, "note": 81, "velocity": 112, "channel": 0}, {"type": "note_on", "time": 0, "note": 79, "velocity": 108, "channel": 0}, {"type": "note_off", "time": 49, "note": 79, "velocity": 108, "channel": 0}, {"type": "note_on", "time": 4, "note": 70, "velocity": 93, "channel": 0}, {"type": "note_off", "time": 63, "note": 70, "velocity": 93, "channel": 0}, {"type": "note_on", "time": 11, "note": 74, "velocity": 112, "channel": 0}, {"type": "note_off", "time": 83, "note": 74, "velocity": 112, "channel": 0}, {"type": "note_on", "time": 7, "note": 70, "velocity": 113, "channel": 0}, {"type": "note_off", "time": 88, "note": 70, "velocity": 113, "channel": 0}, {"type": "note_on", "time": 13, "note": 67, "velocity": 103, "channel": 0}, {"type": "note_off", "time": 45, "note": 67, "velocity": 103, "channel": 0}, {"type": "note_on", "time": 0, "note": 69, "velocity": 112, "channel": 0}, {"type": "note_off", "time": 98, "note": 69, "velocity": 112, "channel": 0}, {"type": "note_on", "time": 16, "note": 65, "velocity": 116, "channel": 0}, {"type": "note_off", "time": 65, "note": 65, "velocity": 116, "channel": 0}, {"type": "note_on", "time": 0, "note": 62, "velocity": 119, "channel": 0}, {"type": "note_off", "time": 100, "note": 62, "velocity": 119, "channel": 0}, {"type": "note_on", "time": 20, "note": 58, "velocity": 108, "channel": 0}, {"type": "note_off", "time": 52, "note": 58, "velocity": 108, "channel": 0}, {"type": "note_on", "time": 20, "note": 63, "velocity": 117, "channel": 0}, {"type": "note_off", "time": 96, "note": 63, "velocity": 117, "channel": 0}, {"type": "note_on", "time": 0, "note": 60, "velocity": 115, "channel": 0}, {"type": "note_off", "time": 69, "note": 60, "velocity": 115, "channel": 0}, {"type": "note_on", "time": 25, "note": 56, "velocity": 109, "channel": 0}, {"type": "note_off", "time": 81, "note": 56, "velocity": 109, "channel": 0}, {"type": "note_on", "time": 12, "note": 53, "velocity": 91, "channel": 0}, {"type": "note_off", "time": 51, "note": 53, "velocity": 91, "channel": 0}, {"type": "note_on", "time": 14, "note": 57, "velocity": 109, "channel": 0}, {"type": "note_off", "time": 112, "note": 57, "velocity": 109, "channel": 0}, {"type": "note_on", "time": 33, "note": 53, "velocity": 118, "channel": 0}, {"type": "note_off", "time": 73, "note": 53, "velocity": 118, "channel": 0}, {"type": "note_on", "time": 14, "note": 45, "velocity": 115, "channel": 0}, {"type": "note_off", "time": 74, "note": 45, "velocity": 115, "channel": 0}, {"type": "note_on", "time": 7, "note": 53, "velocity": 117, "channel": 0}, {"type": "note_off", "time": 76, "note": 53, "velocity": 117, "channel": 0}, {"type": "note_on", "time": 13, "note": 50, "velocity": 116, "channel": 0}, {"type": "note_off", "time": 82, "note": 50, "velocity": 116, "channel": 0}, {"type": "note_on", "time": 1, "note": 51, "velocity": 114, "channel": 0}, {"type": "note_off", "time": 68, "note": 51, "velocity": 114, "channel": 0}, {"type": "note_on", "time": 23, "note": 46, "velocity": 115, "channel": 0}, {"type": "note_off", "time": 103, "note": 46, "velocity": 115, "channel": 0}, {"type": "note_on", "time": 0, "note": 44, "velocity": 118, "channel": 0}, {"type": "note_off", "time": 275, "note": 44, "velocity": 118, "channel": 0}, {"type": "note_on", "time": 966, "note": 70, "velocity": 116, "channel": 0}, {"type": "note_off", "time": 156, "note": 70, "velocity": 116, "channel": 0}, {"type": "note_on", "time": 0, "note": 72, "velocity": 109, "channel": 0}, {"type": "note_off", "time": 89, "note": 72, "velocity": 109, "channel": 0}, {"type": "note_on", "time": 21, "note": 70, "velocity": 108, "channel": 0}, {"type": "note_on", "time": 76, "note": 71, "velocity": 110, "channel": 0}, {"type": "note_off", "time": 0, "note": 70, "velocity": 108, "channel": 0}, {"type": "note_off", "time": 76, "note": 71, "velocity": 110, "channel": 0}, {"type": "note_on", "time": 0, "note": 70, "velocity": 111, "channel": 0}, {"type": "note_off", "time": 88, "note": 70, "velocity": 111, "channel": 0}, {"type": "note_on", "time": 13, "note": 69, "velocity": 112, "channel": 0}, {"type": "note_off", "time": 98, "note": 69, "velocity": 112, "channel": 0}, {"type": "note_on", "time": 6, "note": 70, "velocity": 112, "channel": 0}, {"type": "note_off", "time": 83, "note": 70, "velocity": 112, "channel": 0}, {"type": "note_on", "time": 4, "note": 68, "velocity": 114, "channel": 0}, {"type": "note_off", "time": 86, "note": 68, "velocity": 114, "channel": 0}, {"type": "note_on", "time": 1, "note": 67, "velocity": 111, "channel": 0}, {"type": "note_off", "time": 89, "note": 67, "velocity": 111, "channel": 0}, {"type": "note_on", "time": 14, "note": 66, "velocity": 105, "channel": 0}, {"type": "note_off", "time": 64, "note": 66, "velocity": 105, "channel": 0}, {"type": "note_on", "time": 0, "note": 68, "velocity": 114, "channel": 0}, {"type": "note_off", "time": 99, "note": 68, "velocity": 114, "channel": 0}, {"type": "note_on", "time": 8, "note": 67, "velocity": 110, "channel": 0}, {"type": "note_off", "time": 89, "note": 67, "velocity": 110, "channel": 0}, {"type": "note_on", "time": 2, "note": 66, "velocity": 108, "channel": 0}, {"type": "note_off", "time": 68, "note": 66, "velocity": 108, "channel": 0}, {"type": "note_on", "time": 1, "note": 65, "velocity": 111, "channel": 0}, {"type": "note_off", "time": 89, "note": 65, "velocity": 111, "channel": 0}, {"type": "note_on", "time": 3, "note": 64, "velocity": 121, "channel": 0}, {"type": "note_off", "time": 83, "note": 64, "velocity": 121, "channel": 0}, {"type": "note_on", "time": 12, "note": 63, "velocity": 117, "channel": 0}, {"type": "note_off", "time": 90, "note": 63, "velocity": 117, "channel": 0}, {"type": "note_on", "time": 14, "note": 65, "velocity": 112, "channel": 0}, {"type": "note_off", "time": 88, "note": 65, "velocity": 112, "channel": 0}, {"type": "note_on", "time": 0, "note": 67, "velocity": 111, "channel": 0}, {"type": "note_off", "time": 79, "note": 67, "velocity": 111, "channel": 0}, {"type": "note_on", "time": 16, "note": 63, "velocity": 113, "channel": 0}, {"type": "note_off", "time": 82, "note": 63, "velocity": 113, "channel": 0}, {"type": "note_on", "time": 3, "note": 65, "velocity": 114, "channel": 0}, {"type": "note_off", "time": 76, "note": 65, "velocity": 114, "channel": 0}, {"type": "note_on", "time": 8, "note": 64, "velocity": 120, "channel": 0}, {"type": "note_off", "time": 82, "note": 64, "velocity": 120, "channel": 0}, {"type": "note_on", "time": 1, "note": 63, "velocity": 115, "channel": 0}, {"type": "note_off", "time": 89, "note": 63, "velocity": 115, "channel": 0}, {"type": "note_on", "time": 40, "note": 67, "velocity": 112, "channel": 0}, {"type": "note_off", "time": 63, "note": 67, "velocity": 112, "channel": 0}, {"type": "note_on", "time": 2, "note": 65, "velocity": 113, "channel": 0}, {"type": "note_off", "time": 92, "note": 65, "velocity": 113, "channel": 0}, {"type": "note_on", "time": 10, "note": 62, "velocity": 115, "channel": 0}, {"type": "note_off", "time": 44, "note": 62, "velocity": 115, "channel": 0}, {"type": "note_on", "time": 0, "note": 59, "velocity": 100, "channel": 0}, {"type": "note_off", "time": 134, "note": 59, "velocity": 100, "channel": 0}, {"type": "note_on", "time": 0, "note": 55, "velocity": 102, "channel": 0}, {"type": "note_off", "time": 81, "note": 55, "velocity": 102, "channel": 0}, {"type": "note_on", "time": 12, "note": 63, "velocity": 121, "channel": 0}, {"type": "note_off", "time": 95, "note": 63, "velocity": 121, "channel": 0}, {"type": "note_on", "time": 0, "note": 62, "velocity": 111, "channel": 0}, {"type": "note_off", "time": 78, "note": 62, "velocity": 111, "channel": 0}, {"type": "note_on", "time": 20, "note": 59, "velocity": 98, "channel": 0}, {"type": "note_off", "time": 74, "note": 59, "velocity": 98, "channel": 0}, {"type": "note_on", "time": 6, "note": 55, "velocity": 99, "channel": 0}, {"type": "note_off", "time": 72, "note": 55, "velocity": 99, "channel": 0}, {"type": "note_on", "time": 42, "note": 62, "velocity": 120, "channel": 0}, {"type": "note_off", "time": 53, "note": 62, "velocity": 120, "channel": 0}, {"type": "note_on", "time": 0, "note": 63, "velocity": 119, "channel": 0}, {"type": "note_off", "time": 650, "note": 63, "velocity": 119, "channel": 0}, {"type": "note_on", "time": 2, "note": 62, "velocity": 117, "channel": 0}, {"type": "note_off", "time": 34, "note": 62, "velocity": 117, "channel": 0}, {"type": "note_on", "time": 6, "note": 64, "velocity": 120, "channel": 0}, {"type": "note_off", "time": 37, "note": 64, "velocity": 120, "channel": 0}, {"type": "note_on", "time": 8, "note": 61, "velocity": 111, "channel": 0}, {"type": "note_off", "time": 55, "note": 61, "velocity": 111, "channel": 0}, {"type": "note_on", "time": 14, "note": 59, "velocity": 103, "channel": 0}, {"type": "note_off", "time": 44, "note": 59, "velocity": 103, "channel": 0}, {"type": "note_on", "time": 9, "note": 58, "velocity": 102, "channel": 0}, {"type": "note_off", "time": 50, "note": 58, "velocity": 102, "channel": 0}, {"type": "note_on", "time": 2, "note": 56, "velocity": 102, "channel": 0}, {"type": "note_off", "time": 44, "note": 56, "velocity": 102, "channel": 0}, {"type": "note_on", "time": 0, "note": 63, "velocity": 119, "channel": 0}, {"type": "note_off", "time": 68, "note": 63, "velocity": 119, "channel": 0}, {"type": "note_on", "time": 5, "note": 61, "velocity": 113, "channel": 0}, {"type": "note_off", "time": 22, "note": 61, "velocity": 113, "channel": 0}, {"type": "note_on", "time": 0, "note": 59, "velocity": 104, "channel": 0}, {"type": "note_off", "time": 72, "note": 59, "velocity": 104, "channel": 0}, {"type": "note_on", "time": 17, "note": 58, "velocity": 103, "channel": 0}, {"type": "note_off", "time": 25, "note": 58, "velocity": 103, "channel": 0}, {"type": "note_on", "time": 1, "note": 56, "velocity": 102, "channel": 0}, {"type": "note_off", "time": 25, "note": 56, "velocity": 102, "channel": 0}, {"type": "note_on", "time": 2, "note": 63, "velocity": 119, "channel": 0}, {"type": "note_off", "time": 61, "note": 63, "velocity": 119, "channel": 0}, {"type": "note_on", "time": 2, "note": 61, "velocity": 115, "channel": 0}, {"type": "note_off", "time": 51, "note": 61, "velocity": 115, "channel": 0}, {"type": "note_on", "time": 12, "note": 59, "velocity": 104, "channel": 0}, {"type": "note_off", "time": 57, "note": 59, "velocity": 104, "channel": 0}, {"type": "note_on", "time": 22, "note": 58, "velocity": 105, "channel": 0}, {"type": "note_off", "time": 60, "note": 58, "velocity": 105, "channel": 0}, {"type": "note_on", "time": 412, "note": 63, "velocity": 121, "channel": 0}, {"type": "note_off", "time": 64, "note": 63, "velocity": 121, "channel": 0}, {"type": "note_on", "time": 11, "note": 61, "velocity": 113, "channel": 0}, {"type": "note_off", "time": 57, "note": 61, "velocity": 113, "channel": 0}, {"type": "note_on", "time": 10, "note": 59, "velocity": 102, "channel": 0}, {"type": "note_off", "time": 60, "note": 59, "velocity": 102, "channel": 0}, {"type": "note_on", "time": 8, "note": 58, "velocity": 105, "channel": 0}, {"type": "note_off", "time": 55, "note": 58, "velocity": 105, "channel": 0}, {"type": "note_on", "time": 3, "note": 63, "velocity": 120, "channel": 0}, {"type": "note_on", "time": 63, "note": 61, "velocity": 118, "channel": 0}, {"type": "note_off", "time": 0, "note": 63, "velocity": 120, "channel": 0}, {"type": "note_off", "time": 61, "note": 61, "velocity": 118, "channel": 0}, {"type": "note_on", "time": 19, "note": 59, "velocity": 104, "channel": 0}, {"type": "note_off", "time": 58, "note": 59, "velocity": 104, "channel": 0}, {"type": "note_on", "time": 0, "note": 58, "velocity": 106, "channel": 0}, {"type": "note_off", "time": 60, "note": 58, "velocity": 106, "channel": 0}, {"type": "note_on", "time": 4, "note": 63, "velocity": 120, "channel": 0}, {"type": "note_off", "time": 59, "note": 63, "velocity": 120, "channel": 0}, {"type": "note_on", "time": 1, "note": 61, "velocity": 119, "channel": 0}, {"type": "note_off", "time": 57, "note": 61, "velocity": 119, "channel": 0}, {"type": "note_on", "time": 0, "note": 59, "velocity": 106, "channel": 0}, {"type": "note_off", "time": 66, "note": 59, "velocity": 106, "channel": 0}, {"type": "note_on", "time": 12, "note": 58, "velocity": 108, "channel": 0}, {"type": "note_off", "time": 55, "note": 58, "velocity": 108, "channel": 0}, {"type": "note_on", "time": 11, "note": 63, "velocity": 120, "channel": 0}, {"type": "note_off", "time": 71, "note": 63, "velocity": 120, "channel": 0}, {"type": "note_on", "time": 8, "note": 61, "velocity": 113, "channel": 0}, {"type": "note_off", "time": 59, "note": 61, "velocity": 113, "channel": 0}, {"type": "note_on", "time": 5, "note": 59, "velocity": 105, "channel": 0}, {"type": "note_off", "time": 66, "note": 59, "velocity": 105, "channel": 0}, {"type": "note_on", "time": 1, "note": 58, "velocity": 112, "channel": 0}, {"type": "note_off", "time": 143, "note": 58, "velocity": 112, "channel": 0}, {"type": "note_on", "time": 492, "note": 66, "velocity": 119, "channel": 0}, {"type": "note_off", "time": 52, "note": 66, "velocity": 119, "channel": 0}, {"type": "note_on", "time": 2, "note": 68, "velocity": 117, "channel": 0}, {"type": "note_off", "time": 624, "note": 68, "velocity": 117, "channel": 0}, {"type": "note_on", "time": 16, "note": 67, "velocity": 113, "channel": 0}, {"type": "note_off", "time": 130, "note": 67, "velocity": 113, "channel": 0}, {"type": "note_on", "time": 37, "note": 68, "velocity": 116, "channel": 0}, {"type": "note_off", "time": 111, "note": 68, "velocity": 116, "channel": 0}, {"type": "note_on", "time": 11, "note": 64, "velocity": 123, "channel": 0}, {"type": "note_off", "time": 96, "note": 64, "velocity": 123, "channel": 0}, {"type": "note_on", "time": 13, "note": 66, "velocity": 118, "channel": 0}, {"type": "note_off", "time": 66, "note": 66, "velocity": 118, "channel": 0}, {"type": "note_on", "time": 4, "note": 68, "velocity": 105, "channel": 0}, {"type": "note_off", "time": 98, "note": 68, "velocity": 105, "channel": 0}, {"type": "note_on", "time": 5, "note": 65, "velocity": 114, "channel": 0}, {"type": "note_off", "time": 86, "note": 65, "velocity": 114, "channel": 0}, {"type": "note_on", "time": 10, "note": 61, "velocity": 119, "channel": 0}, {"type": "note_off", "time": 81, "note": 61, "velocity": 119, "channel": 0}, {"type": "note_on", "time": 11, "note": 59, "velocity": 104, "channel": 0}, {"type": "note_off", "time": 67, "note": 59, "velocity": 104, "channel": 0}, {"type": "note_on", "time": 11, "note": 55, "velocity": 103, "channel": 0}, {"type": "note_on", "time": 67, "note": 62, "velocity": 122, "channel": 0}, {"type": "note_off", "time": 0, "note": 55, "velocity": 103, "channel": 0}, {"type": "note_off", "time": 129, "note": 62, "velocity": 122, "channel": 0}, {"type": "note_on", "time": 0, "note": 61, "velocity": 114, "channel": 0}, {"type": "note_off", "time": 87, "note": 61, "velocity": 114, "channel": 0}, {"type": "note_on", "time": 0, "note": 56, "velocity": 107, "channel": 0}, {"type": "note_off", "time": 92, "note": 56, "velocity": 107, "channel": 0}, {"type": "note_on", "time": 8, "note": 50, "velocity": 106, "channel": 0}, {"type": "note_off", "time": 76, "note": 50, "velocity": 106, "channel": 0}, {"type": "note_on", "time": 0, "note": 59, "velocity": 104, "channel": 0}, {"type": "note_off", "time": 88, "note": 59, "velocity": 104, "channel": 0}, {"type": "note_on", "time": 29, "note": 53, "velocity": 116, "channel": 0}, {"type": "note_off", "time": 75, "note": 53, "velocity": 116, "channel": 0}, {"type": "note_on", "time": 10, "note": 49, "velocity": 109, "channel": 0}, {"type": "note_off", "time": 76, "note": 49, "velocity": 109, "channel": 0}, {"type": "note_on", "time": 3, "note": 53, "velocity": 117, "channel": 0}, {"type": "note_off", "time": 82, "note": 53, "velocity": 117, "channel": 0}, {"type": "note_on", "time": 5, "note": 51, "velocity": 111, "channel": 0}, {"type": "note_off", "time": 128, "note": 51, "velocity": 111, "channel": 0}, {"type": "note_on", "time": 36, "note": 53, "velocity": 100, "channel": 0}, {"type": "note_off", "time": 86, "note": 53, "velocity": 100, "channel": 0}, {"type": "note_on", "time": 35, "note": 55, "velocity": 107, "channel": 0}, {"type": "note_off", "time": 191, "note": 55, "velocity": 107, "channel": 0}, {"type": "note_on", "time": 362, "note": 51, "velocity": 115, "channel": 0}, {"type": "note_off", "time": 63, "note": 51, "velocity": 115, "channel": 0}, {"type": "note_on", "time": 0, "note": 53, "velocity": 111, "channel": 0}, {"type": "note_off", "time": 56, "note": 53, "velocity": 111, "channel": 0}, {"type": "note_on", "time": 10, "note": 56, "velocity": 104, "channel": 0}, {"type": "note_off", "time": 59, "note": 56, "velocity": 104, "channel": 0}, {"type": "note_on", "time": 2, "note": 59, "velocity": 102, "channel": 0}, {"type": "note_off", "time": 40, "note": 59, "velocity": 102, "channel": 0}, {"type": "note_on", "time": 20, "note": 53, "velocity": 112, "channel": 0}, {"type": "note_off", "time": 56, "note": 53, "velocity": 112, "channel": 0}, {"type": "note_on", "time": 19, "note": 56, "velocity": 95, "channel": 0}, {"type": "note_off", "time": 66, "note": 56, "velocity": 95, "channel": 0}, {"type": "note_on", "time": 9, "note": 55, "velocity": 96, "channel": 0}, {"type": "note_off", "time": 33, "note": 55, "velocity": 96, "channel": 0}, {"type": "note_on", "time": 13, "note": 59, "velocity": 102, "channel": 0}, {"type": "note_off", "time": 78, "note": 59, "velocity": 102, "channel": 0}, {"type": "note_on", "time": 37, "note": 63, "velocity": 120, "channel": 0}, {"type": "note_off", "time": 69, "note": 63, "velocity": 120, "channel": 0}, {"type": "note_on", "time": 10, "note": 59, "velocity": 101, "channel": 0}, {"type": "note_off", "time": 69, "note": 59, "velocity": 101, "channel": 0}, {"type": "note_on", "time": 20, "note": 63, "velocity": 114, "channel": 0}, {"type": "note_off", "time": 83, "note": 63, "velocity": 114, "channel": 0}, {"type": "note_on", "time": 6, "note": 65, "velocity": 111, "channel": 0}, {"type": "note_off", "time": 60, "note": 65, "velocity": 111, "channel": 0}, {"type": "note_on", "time": 20, "note": 68, "velocity": 114, "channel": 0}, {"type": "note_off", "time": 84, "note": 68, "velocity": 114, "channel": 0}, {"type": "note_on", "time": 13, "note": 63, "velocity": 116, "channel": 0}, {"type": "note_off", "time": 90, "note": 63, "velocity": 116, "channel": 0}, {"type": "note_on", "time": 16, "note": 65, "velocity": 109, "channel": 0}, {"type": "note_off", "time": 53, "note": 65, "velocity": 109, "channel": 0}, {"type": "note_on", "time": 26, "note": 68, "velocity": 113, "channel": 0}, {"type": "note_off", "time": 64, "note": 68, "velocity": 113, "channel": 0}, {"type": "note_on", "time": 4, "note": 71, "velocity": 106, "channel": 0}, {"type": "note_off", "time": 90, "note": 71, "velocity": 106, "channel": 0}, {"type": "note_on", "time": 3, "note": 75, "velocity": 98, "channel": 0}, {"type": "note_off", "time": 86, "note": 75, "velocity": 98, "channel": 0}, {"type": "note_on", "time": 8, "note": 71, "velocity": 110, "channel": 0}, {"type": "note_on", "time": 67, "note": 70, "velocity": 114, "channel": 0}, {"type": "note_off", "time": 0, "note": 71, "velocity": 110, "channel": 0}, {"type": "note_off", "time": 149, "note": 70, "velocity": 114, "channel": 0}, {"type": "note_on", "time": 427, "note": 67, "velocity": 111, "channel": 0}, {"type": "note_off", "time": 102, "note": 67, "velocity": 111, "channel": 0}, {"type": "note_on", "time": 0, "note": 70, "velocity": 92, "channel": 0}, {"type": "note_off", "time": 69, "note": 70, "velocity": 92, "channel": 0}, {"type": "note_on", "time": 0, "note": 72, "velocity": 99, "channel": 0}, {"type": "note_off", "time": 94, "note": 72, "velocity": 99, "channel": 0}, {"type": "note_on", "time": 24, "note": 75, "velocity": 9, "channel": 0}, {"type": "note_off", "time": 81, "note": 75, "velocity": 9, "channel": 0}, {"type": "note_on", "time": 41, "note": 78, "velocity": 113, "channel": 0}, {"type": "note_off", "time": 82, "note": 78, "velocity": 113, "channel": 0}, {"type": "note_on", "time": 0, "note": 80, "velocity": 110, "channel": 0}, {"type": "note_off", "time": 48, "note": 80, "velocity": 110, "channel": 0}, {"type": "note_on", "time": 0, "note": 81, "velocity": 117, "channel": 0}, {"type": "note_off", "time": 1989, "note": 81, "velocity": 117, "channel": 0}, {"type": "note_on", "time": 0, "note": 67, "velocity": 113, "channel": 0}, {"type": "note_off", "time": 96, "note": 67, "velocity": 113, "channel": 0}, {"type": "note_on", "time": 0, "note": 69, "velocity": 103, "channel": 0}, {"type": "note_off", "time": 80, "note": 69, "velocity": 103, "channel": 0}, {"type": "note_on", "time": 20, "note": 72, "velocity": 110, "channel": 0}, {"type": "note_off", "time": 103, "note": 72, "velocity": 110, "channel": 0}, {"type": "note_on", "time": 0, "note": 75, "velocity": 111, "channel": 0}, {"type": "note_off", "time": 103, "note": 75, "velocity": 111, "channel": 0}, {"type": "note_on", "time": 27, "note": 79, "velocity": 112, "channel": 0}, {"type": "note_on", "time": 66, "note": 81, "velocity": 113, "channel": 0}, {"type": "note_off", "time": 0, "note": 79, "velocity": 112, "channel": 0}, {"type": "note_off", "time": 309, "note": 81, "velocity": 113, "channel": 0}, {"type": "note_on", "time": 495, "note": 67, "velocity": 115, "channel": 0}, {"type": "note_off", "time": 112, "note": 67, "velocity": 115, "channel": 0}, {"type": "note_on", "time": 0, "note": 69, "velocity": 91, "channel": 0}, {"type": "note_off", "time": 66, "note": 69, "velocity": 91, "channel": 0}, {"type": "note_on", "time": 2, "note": 72, "velocity": 108, "channel": 0}, {"type": "note_off", "time": 89, "note": 72, "velocity": 108, "channel": 0}, {"type": "note_on", "time": 29, "note": 75, "velocity": 112, "channel": 0}, {"type": "note_off", "time": 82, "note": 75, "velocity": 112, "channel": 0}, {"type": "note_on", "time": 2, "note": 79, "velocity": 115, "channel": 0}, {"type": "note_off", "time": 128, "note": 79, "velocity": 115, "channel": 0}, {"type": "note_on", "time": 0, "note": 82, "velocity": 119, "channel": 0}, {"type": "note_off", "time": 763, "note": 82, "velocity": 119, "channel": 0}, {"type": "note_on", "time": 2, "note": 67, "velocity": 115, "channel": 0}, {"type": "note_off", "time": 105, "note": 67, "velocity": 115, "channel": 0}, {"type": "note_on", "time": 0, "note": 70, "velocity": 100, "channel": 0}, {"type": "note_off", "time": 73, "note": 70, "velocity": 100, "channel": 0}, {"type": "note_on", "time": 9, "note": 72, "velocity": 107, "channel": 0}, {"type": "note_off", "time": 100, "note": 72, "velocity": 107, "channel": 0}, {"type": "note_on", "time": 13, "note": 75, "velocity": 113, "channel": 0}, {"type": "note_off", "time": 100, "note": 75, "velocity": 113, "channel": 0}, {"type": "note_on", "time": 0, "note": 79, "velocity": 113, "channel": 0}, {"type": "note_off", "time": 105, "note": 79, "velocity": 113, "channel": 0}, {"type": "note_on", "time": 0, "note": 81, "velocity": 115, "channel": 0}, {"type": "note_off", "time": 669, "note": 81, "velocity": 115, "channel": 0}, {"type": "note_on", "time": 624, "note": 63, "velocity": 125, "channel": 0}, {"type": "note_off", "time": 135, "note": 63, "velocity": 125, "channel": 0}, {"type": "note_on", "time": 4, "note": 65, "velocity": 100, "channel": 0}, {"type": "note_on", "time": 71, "note": 68, "velocity": 114, "channel": 0}, {"type": "note_off", "time": 0, "note": 65, "velocity": 100, "channel": 0}, {"type": "note_off", "time": 91, "note": 68, "velocity": 114, "channel": 0}, {"type": "note_on", "time": 0, "note": 71, "velocity": 105, "channel": 0}, {"type": "note_off", "time": 98, "note": 71, "velocity": 105, "channel": 0}, {"type": "note_on", "time": 0, "note": 75, "velocity": 112, "channel": 0}, {"type": "note_on", "time": 107, "note": 77, "velocity": 104, "channel": 0}, {"type": "note_off", "time": 0, "note": 75, "velocity": 112, "channel": 0}, {"type": "note_off", "time": 91, "note": 77, "velocity": 104, "channel": 0}, {"type": "note_on", "time": 6, "note": 75, "velocity": 107, "channel": 0}, {"type": "note_off", "time": 89, "note": 75, "velocity": 107, "channel": 0}, {"type": "note_on", "time": 9, "note": 71, "velocity": 111, "channel": 0}, {"type": "note_off", "time": 82, "note": 71, "velocity": 111, "channel": 0}, {"type": "note_on", "time": 9, "note": 70, "velocity": 114, "channel": 0}, {"type": "note_off", "time": 66, "note": 70, "velocity": 114, "channel": 0}, {"type": "note_on", "time": 20, "note": 69, "velocity": 111, "channel": 0}, {"type": "note_off", "time": 100, "note": 69, "velocity": 111, "channel": 0}, {"type": "note_on", "time": 20, "note": 68, "velocity": 114, "channel": 0}, {"type": "note_off", "time": 64, "note": 68, "velocity": 114, "channel": 0}, {"type": "note_on", "time": 18, "note": 70, "velocity": 111, "channel": 0}, {"type": "note_on", "time": 61, "note": 68, "velocity": 116, "channel": 0}, {"type": "note_off", "time": 0, "note": 70, "velocity": 111, "channel": 0}, {"type": "note_off", "time": 100, "note": 68, "velocity": 116, "channel": 0}, {"type": "note_on", "time": 13, "note": 67, "velocity": 112, "channel": 0}, {"type": "note_off", "time": 87, "note": 67, "velocity": 112, "channel": 0}, {"type": "note_on", "time": 11, "note": 66, "velocity": 104, "channel": 0}, {"type": "note_off", "time": 80, "note": 66, "velocity": 104, "channel": 0}, {"type": "note_on", "time": 2, "note": 67, "velocity": 116, "channel": 0}, {"type": "note_off", "time": 91, "note": 67, "velocity": 116, "channel": 0}, {"type": "note_on", "time": 0, "note": 67, "velocity": 111, "channel": 0}, {"type": "note_off", "time": 84, "note": 67, "velocity": 111, "channel": 0}, {"type": "note_on", "time": 4, "note": 66, "velocity": 111, "channel": 0}, {"type": "note_off", "time": 87, "note": 66, "velocity": 111, "channel": 0}, {"type": "note_on", "time": 2, "note": 65, "velocity": 113, "channel": 0}, {"type": "note_off", "time": 78, "note": 65, "velocity": 113, "channel": 0}, {"type": "note_on", "time": 4, "note": 64, "velocity": 123, "channel": 0}, {"type": "note_off", "time": 100, "note": 64, "velocity": 123, "channel": 0}, {"type": "note_on", "time": 4, "note": 63, "velocity": 120, "channel": 0}, {"type": "note_off", "time": 87, "note": 63, "velocity": 120, "channel": 0}, {"type": "note_on", "time": 13, "note": 65, "velocity": 114, "channel": 0}, {"type": "note_off", "time": 64, "note": 65, "velocity": 114, "channel": 0}, {"type": "note_on", "time": 6, "note": 67, "velocity": 115, "channel": 0}, {"type": "note_off", "time": 80, "note": 67, "velocity": 115, "channel": 0}, {"type": "note_on", "time": 27, "note": 63, "velocity": 116, "channel": 0}, {"type": "note_on", "time": 61, "note": 65, "velocity": 118, "channel": 0}, {"type": "note_off", "time": 0, "note": 63, "velocity": 116, "channel": 0}, {"type": "note_off", "time": 80, "note": 65, "velocity": 118, "channel": 0}, {"type": "note_on", "time": 16, "note": 62, "velocity": 122, "channel": 0}, {"type": "note_off", "time": 82, "note": 62, "velocity": 122, "channel": 0}, {"type": "note_on", "time": 9, "note": 59, "velocity": 107, "channel": 0}, {"type": "note_on", "time": 61, "note": 55, "velocity": 112, "channel": 0}, {"type": "note_off", "time": 0, "note": 59, "velocity": 107, "channel": 0}, {"type": "note_off", "time": 80, "note": 55, "velocity": 112, "channel": 0}, {"type": "note_on", "time": 13, "note": 63, "velocity": 124, "channel": 0}, {"type": "note_off", "time": 112, "note": 63, "velocity": 124, "channel": 0}, {"type": "note_on", "time": 2, "note": 62, "velocity": 119, "channel": 0}, {"type": "note_off", "time": 98, "note": 62, "velocity": 119, "channel": 0}, {"type": "note_on", "time": 11, "note": 59, "velocity": 105, "channel": 0}, {"type": "note_off", "time": 64, "note": 59, "velocity": 105, "channel": 0}, {"type": "note_on", "time": 0, "note": 55, "velocity": 100, "channel": 0}, {"type": "note_off", "time": 100, "note": 55, "velocity": 100, "channel": 0}, {"type": "note_on", "time": 0, "note": 57, "velocity": 113, "channel": 0}, {"type": "note_off", "time": 89, "note": 57, "velocity": 113, "channel": 0}, {"type": "note_on", "time": 13, "note": 53, "velocity": 120, "channel": 0}, {"type": "note_off", "time": 71, "note": 53, "velocity": 120, "channel": 0}, {"type": "note_on", "time": 0, "note": 46, "velocity": 123, "channel": 0}, {"type": "note_off", "time": 75, "note": 46, "velocity": 123, "channel": 0}, {"type": "note_on", "time": 0, "note": 53, "velocity": 121, "channel": 0}, {"type": "note_off", "time": 78, "note": 53, "velocity": 121, "channel": 0}, {"type": "note_on", "time": 48, "note": 43, "velocity": 123, "channel": 0}, {"type": "note_off", "time": 148, "note": 43, "velocity": 123, "channel": 0}, {"type": "note_on", "time": 23, "note": 62, "velocity": 122, "channel": 0}, {"type": "note_off", "time": 103, "note": 62, "velocity": 122, "channel": 0}, {"type": "note_on", "time": 43, "note": 59, "velocity": 117, "channel": 0}, {"type": "note_off", "time": 162, "note": 59, "velocity": 117, "channel": 0}, {"type": "note_on", "time": 353, "note": 46, "velocity": 122, "channel": 0}, {"type": "note_off", "time": 55, "note": 46, "velocity": 122, "channel": 0}, {"type": "note_on", "time": 0, "note": 58, "velocity": 103, "channel": 0}, {"type": "note_off", "time": 52, "note": 58, "velocity": 103, "channel": 0}, {"type": "note_on", "time": 18, "note": 69, "velocity": 97, "channel": 0}, {"type": "note_off", "time": 11, "note": 69, "velocity": 97, "channel": 0}, {"type": "note_on", "time": 0, "note": 70, "velocity": 104, "channel": 0}, {"type": "note_off", "time": 48, "note": 70, "velocity": 104, "channel": 0}, {"type": "note_on", "time": 5, "note": 58, "velocity": 113, "channel": 0}, {"type": "note_off", "time": 48, "note": 58, "velocity": 113, "channel": 0}, {"type": "note_on", "time": 12, "note": 48, "velocity": 119, "channel": 0}, {"type": "note_off", "time": 87, "note": 48, "velocity": 119, "channel": 0}, {"type": "note_on", "time": 22, "note": 53, "velocity": 104, "channel": 0}, {"type": "note_off", "time": 77, "note": 53, "velocity": 104, "channel": 0}, {"type": "note_on", "time": 3, "note": 57, "velocity": 114, "channel": 0}, {"type": "note_off", "time": 70, "note": 57, "velocity": 114, "channel": 0}, {"type": "note_on", "time": 0, "note": 61, "velocity": 111, "channel": 0}, {"type": "note_off", "time": 87, "note": 61, "velocity": 111, "channel": 0}, {"type": "note_on", "time": 25, "note": 70, "velocity": 109, "channel": 0}, {"type": "note_off", "time": 106, "note": 70, "velocity": 109, "channel": 0}, {"type": "note_on", "time": 0, "note": 68, "velocity": 119, "channel": 0}, {"type": "note_off", "time": 80, "note": 68, "velocity": 119, "channel": 0}, {"type": "note_on", "time": 0, "note": 66, "velocity": 111, "channel": 0}, {"type": "note_off", "time": 96, "note": 66, "velocity": 111, "channel": 0}, {"type": "note_on", "time": 0, "note": 70, "velocity": 100, "channel": 0}, {"type": "note_off", "time": 45, "note": 70, "velocity": 100, "channel": 0}, {"type": "note_on", "time": 0, "note": 68, "velocity": 111, "channel": 0}, {"type": "note_off", "time": 54, "note": 68, "velocity": 111, "channel": 0}, {"type": "note_on", "time": 3, "note": 63, "velocity": 124, "channel": 0}, {"type": "note_off", "time": 87, "note": 63, "velocity": 124, "channel": 0}, {"type": "note_on", "time": 3, "note": 65, "velocity": 103, "channel": 0}, {"type": "note_off", "time": 51, "note": 65, "velocity": 103, "channel": 0}, {"type": "note_on", "time": 48, "note": 69, "velocity": 113, "channel": 0}, {"type": "note_off", "time": 79, "note": 69, "velocity": 113, "channel": 0}, {"type": "note_on", "time": 0, "note": 71, "velocity": 108, "channel": 0}, {"type": "note_off", "time": 70, "note": 71, "velocity": 108, "channel": 0}, {"type": "note_on", "time": 8, "note": 67, "velocity": 117, "channel": 0}, {"type": "note_off", "time": 124, "note": 67, "velocity": 117, "channel": 0}, {"type": "note_on", "time": 9, "note": 65, "velocity": 115, "channel": 0}, {"type": "note_off", "time": 25, "note": 65, "velocity": 115, "channel": 0}, {"type": "note_on", "time": 0, "note": 68, "velocity": 112, "channel": 0}, {"type": "note_off", "time": 143, "note": 68, "velocity": 112, "channel": 0}, {"type": "note_on", "time": 1, "note": 71, "velocity": 108, "channel": 0}, {"type": "note_off", "time": 46, "note": 71, "velocity": 108, "channel": 0}, {"type": "note_on", "time": 0, "note": 70, "velocity": 116, "channel": 0}, {"type": "note_off", "time": 59, "note": 70, "velocity": 116, "channel": 0}, {"type": "note_on", "time": 20, "note": 71, "velocity": 109, "channel": 0}, {"type": "note_on", "time": 27, "note": 69, "velocity": 112, "channel": 0}, {"type": "note_off", "time": 0, "note": 71, "velocity": 109, "channel": 0}, {"type": "note_off", "time": 103, "note": 69, "velocity": 112, "channel": 0}, {"type": "note_on", "time": 0, "note": 68, "velocity": 112, "channel": 0}, {"type": "note_off", "time": 77, "note": 68, "velocity": 112, "channel": 0}, {"type": "note_on", "time": 0, "note": 67, "velocity": 113, "channel": 0}, {"type": "note_off", "time": 90, "note": 67, "velocity": 113, "channel": 0}, {"type": "note_on", "time": 0, "note": 66, "velocity": 112, "channel": 0}, {"type": "note_off", "time": 80, "note": 66, "velocity": 112, "channel": 0}, {"type": "note_on", "time": 0, "note": 67, "velocity": 102, "channel": 0}, {"type": "note_off", "time": 103, "note": 67, "velocity": 102, "channel": 0}, {"type": "note_on", "time": 22, "note": 68, "velocity": 116, "channel": 0}, {"type": "note_off", "time": 158, "note": 68, "velocity": 116, "channel": 0}, {"type": "note_on", "time": 0, "note": 66, "velocity": 98, "channel": 0}, {"type": "note_off", "time": 46, "note": 66, "velocity": 98, "channel": 0}, {"type": "note_on", "time": 16, "note": 68, "velocity": 116, "channel": 0}, {"type": "note_off", "time": 91, "note": 68, "velocity": 116, "channel": 0}, {"type": "note_on", "time": 0, "note": 66, "velocity": 112, "channel": 0}, {"type": "note_off", "time": 62, "note": 66, "velocity": 112, "channel": 0}, {"type": "note_on", "time": 2, "note": 61, "velocity": 115, "channel": 0}, {"type": "note_off", "time": 126, "note": 61, "velocity": 115, "channel": 0}, {"type": "note_on", "time": 457, "note": 54, "velocity": 113, "channel": 0}, {"type": "note_off", "time": 70, "note": 54, "velocity": 113, "channel": 0}, {"type": "note_on", "time": 9, "note": 56, "velocity": 109, "channel": 0}, {"type": "note_off", "time": 79, "note": 56, "velocity": 109, "channel": 0}, {"type": "note_on", "time": 14, "note": 58, "velocity": 105, "channel": 0}, {"type": "note_off", "time": 35, "note": 58, "velocity": 105, "channel": 0}, {"type": "note_on", "time": 8, "note": 59, "velocity": 103, "channel": 0}, {"type": "note_off", "time": 25, "note": 59, "velocity": 103, "channel": 0}, {"type": "note_on", "time": 1, "note": 61, "velocity": 119, "channel": 0}, {"type": "note_off", "time": 119, "note": 61, "velocity": 119, "channel": 0}, {"type": "note_on", "time": 27, "note": 59, "velocity": 102, "channel": 0}, {"type": "note_off", "time": 58, "note": 59, "velocity": 102, "channel": 0}, {"type": "note_on", "time": 0, "note": 61, "velocity": 110, "channel": 0}, {"type": "note_off", "time": 90, "note": 61, "velocity": 110, "channel": 0}, {"type": "note_on", "time": 27, "note": 66, "velocity": 114, "channel": 0}, {"type": "note_off", "time": 66, "note": 66, "velocity": 114, "channel": 0}, {"type": "note_on", "time": 14, "note": 68, "velocity": 121, "channel": 0}, {"type": "note_off", "time": 141, "note": 68, "velocity": 121, "channel": 0}, {"type": "note_on", "time": 30, "note": 66, "velocity": 108, "channel": 0}, {"type": "note_off", "time": 50, "note": 66, "velocity": 108, "channel": 0}, {"type": "note_on", "time": 0, "note": 68, "velocity": 110, "channel": 0}, {"type": "note_off", "time": 120, "note": 68, "velocity": 110, "channel": 0}, {"type": "note_on", "time": 20, "note": 71, "velocity": 112, "channel": 0}, {"type": "note_off", "time": 66, "note": 71, "velocity": 112, "channel": 0}, {"type": "note_on", "time": 12, "note": 73, "velocity": 107, "channel": 0}, {"type": "note_off", "time": 214, "note": 73, "velocity": 107, "channel": 0}, {"type": "note_on", "time": 291, "note": 74, "velocity": 106, "channel": 0}, {"type": "note_off", "time": 46, "note": 74, "velocity": 106, "channel": 0}, {"type": "note_on", "time": 6, "note": 73, "velocity": 111, "channel": 0}, {"type": "note_off", "time": 50, "note": 73, "velocity": 111, "channel": 0}, {"type": "note_on", "time": 30, "note": 71, "velocity": 113, "channel": 0}, {"type": "note_off", "time": 59, "note": 71, "velocity": 113, "channel": 0}, {"type": "note_on", "time": 0, "note": 70, "velocity": 117, "channel": 0}, {"type": "note_off", "time": 314, "note": 70, "velocity": 117, "channel": 0}, {"type": "note_on", "time": 62, "note": 74, "velocity": 105, "channel": 0}, {"type": "note_off", "time": 114, "note": 74, "velocity": 105, "channel": 0}, {"type": "note_on", "time": 16, "note": 70, "velocity": 112, "channel": 0}, {"type": "note_off", "time": 161, "note": 70, "velocity": 112, "channel": 0}, {"type": "note_on", "time": 214, "note": 74, "velocity": 109, "channel": 0}, {"type": "note_off", "time": 77, "note": 74, "velocity": 109, "channel": 0}, {"type": "note_on", "time": 11, "note": 70, "velocity": 115, "channel": 0}, {"type": "note_off", "time": 72, "note": 70, "velocity": 115, "channel": 0}, {"type": "note_on", "time": 32, "note": 68, "velocity": 117, "channel": 0}, {"type": "note_off", "time": 74, "note": 68, "velocity": 117, "channel": 0}, {"type": "note_on", "time": 1, "note": 66, "velocity": 107, "channel": 0}, {"type": "note_off", "time": 80, "note": 66, "velocity": 107, "channel": 0}, {"type": "note_on", "time": 0, "note": 68, "velocity": 103, "channel": 0}, {"type": "note_off", "time": 56, "note": 68, "velocity": 103, "channel": 0}, {"type": "note_on", "time": 19, "note": 70, "velocity": 106, "channel": 0}, {"type": "note_off", "time": 83, "note": 70, "velocity": 106, "channel": 0}, {"type": "note_on", "time": 8, "note": 73, "velocity": 106, "channel": 0}, {"type": "note_off", "time": 100, "note": 73, "velocity": 106, "channel": 0}, {"type": "note_on", "time": 9, "note": 74, "velocity": 109, "channel": 0}, {"type": "note_off", "time": 208, "note": 74, "velocity": 109, "channel": 0}, {"type": "note_on", "time": 101, "note": 74, "velocity": 107, "channel": 0}, {"type": "note_off", "time": 129, "note": 74, "velocity": 107, "channel": 0}, {"type": "note_on", "time": 19, "note": 70, "velocity": 112, "channel": 0}, {"type": "note_off", "time": 120, "note": 70, "velocity": 112, "channel": 0}, {"type": "note_on", "time": 48, "note": 75, "velocity": 108, "channel": 0}, {"type": "note_off", "time": 172, "note": 75, "velocity": 108, "channel": 0}, {"type": "note_on", "time": 16, "note": 73, "velocity": 110, "channel": 0}, {"type": "note_off", "time": 20, "note": 73, "velocity": 110, "channel": 0}, {"type": "note_on", "time": 1, "note": 72, "velocity": 109, "channel": 0}, {"type": "note_off", "time": 22, "note": 72, "velocity": 109, "channel": 0}, {"type": "note_on", "time": 0, "note": 71, "velocity": 111, "channel": 0}, {"type": "note_off", "time": 30, "note": 71, "velocity": 111, "channel": 0}, {"type": "note_on", "time": 3, "note": 70, "velocity": 114, "channel": 0}, {"type": "note_off", "time": 275, "note": 70, "velocity": 114, "channel": 0}, {"type": "note_on", "time": 204, "note": 70, "velocity": 115, "channel": 0}, {"type": "note_off", "time": 172, "note": 70, "velocity": 115, "channel": 0}, {"type": "note_on", "time": 10, "note": 68, "velocity": 113, "channel": 0}, {"type": "note_off", "time": 42, "note": 68, "velocity": 113, "channel": 0}, {"type": "note_on", "time": 0, "note": 70, "velocity": 104, "channel": 0}, {"type": "note_off", "time": 29, "note": 70, "velocity": 104, "channel": 0}, {"type": "note_on", "time": 0, "note": 68, "velocity": 113, "channel": 0}, {"type": "note_off", "time": 98, "note": 68, "velocity": 113, "channel": 0}, {"type": "note_on", "time": 19, "note": 70, "velocity": 109, "channel": 0}, {"type": "note_off", "time": 56, "note": 70, "velocity": 109, "channel": 0}, {"type": "note_on", "time": 0, "note": 68, "velocity": 113, "channel": 0}, {"type": "note_off", "time": 103, "note": 68, "velocity": 113, "channel": 0}, {"type": "note_on", "time": 19, "note": 67, "velocity": 112, "channel": 0}, {"type": "note_off", "time": 51, "note": 67, "velocity": 112, "channel": 0}, {"type": "note_on", "time": 1, "note": 66, "velocity": 109, "channel": 0}, {"type": "note_off", "time": 83, "note": 66, "velocity": 109, "channel": 0}, {"type": "note_on", "time": 22, "note": 68, "velocity": 115, "channel": 0}, {"type": "note_off", "time": 85, "note": 68, "velocity": 115, "channel": 0}, {"type": "note_on", "time": 8, "note": 67, "velocity": 110, "channel": 0}, {"type": "note_off", "time": 75, "note": 67, "velocity": 110, "channel": 0}, {"type": "note_on", "time": 1, "note": 66, "velocity": 111, "channel": 0}, {"type": "note_off", "time": 91, "note": 66, "velocity": 111, "channel": 0}, {"type": "note_on", "time": 9, "note": 65, "velocity": 115, "channel": 0}, {"type": "note_off", "time": 98, "note": 65, "velocity": 115, "channel": 0}, {"type": "note_on", "time": 6, "note": 64, "velocity": 125, "channel": 0}, {"type": "note_off", "time": 82, "note": 64, "velocity": 125, "channel": 0}, {"type": "note_on", "time": 16, "note": 63, "velocity": 119, "channel": 0}, {"type": "note_off", "time": 85, "note": 63, "velocity": 119, "channel": 0}, {"type": "note_on", "time": 9, "note": 65, "velocity": 105, "channel": 0}, {"type": "note_off", "time": 37, "note": 65, "velocity": 105, "channel": 0}, {"type": "note_on", "time": 6, "note": 67, "velocity": 110, "channel": 0}, {"type": "note_off", "time": 91, "note": 67, "velocity": 110, "channel": 0}, {"type": "note_on", "time": 30, "note": 63, "velocity": 110, "channel": 0}, {"type": "note_off", "time": 93, "note": 63, "velocity": 110, "channel": 0}, {"type": "note_on", "time": 0, "note": 65, "velocity": 115, "channel": 0}, {"type": "note_off", "time": 225, "note": 65, "velocity": 115, "channel": 0}, {"type": "note_on", "time": 124, "note": 75, "velocity": 107, "channel": 0}, {"type": "note_off", "time": 88, "note": 75, "velocity": 107, "channel": 0}, {"type": "note_on", "time": 1, "note": 73, "velocity": 105, "channel": 0}, {"type": "note_off", "time": 19, "note": 73, "velocity": 105, "channel": 0}, {"type": "note_on", "time": 0, "note": 72, "velocity": 113, "channel": 0}, {"type": "note_off", "time": 95, "note": 72, "velocity": 113, "channel": 0}, {"type": "note_on", "time": 472, "note": 72, "velocity": 105, "channel": 0}, {"type": "note_off", "time": 62, "note": 72, "velocity": 105, "channel": 0}, {"type": "note_on", "time": 4, "note": 74, "velocity": 109, "channel": 0}, {"type": "note_off", "time": 70, "note": 74, "velocity": 109, "channel": 0}, {"type": "note_on", "time": 0, "note": 77, "velocity": 105, "channel": 0}, {"type": "note_off", "time": 721, "note": 77, "velocity": 105, "channel": 0}, {"type": "note_on", "time": 9, "note": 80, "velocity": 95, "channel": 0}, {"type": "note_off", "time": 201, "note": 80, "velocity": 95, "channel": 0}, {"type": "note_on", "time": 54, "note": 75, "velocity": 103, "channel": 0}, {"type": "note_off", "time": 77, "note": 75, "velocity": 103, "channel": 0}, {"type": "note_on", "time": 17, "note": 77, "velocity": 100, "channel": 0}, {"type": "note_off", "time": 61, "note": 77, "velocity": 100, "channel": 0}, {"type": "note_on", "time": 17, "note": 75, "velocity": 106, "channel": 0}, {"type": "note_off", "time": 64, "note": 75, "velocity": 106, "channel": 0}, {"type": "note_on", "time": 11, "note": 71, "velocity": 109, "channel": 0}, {"type": "note_off", "time": 101, "note": 71, "velocity": 109, "channel": 0}, {"type": "note_on", "time": 37, "note": 68, "velocity": 107, "channel": 0}, {"type": "note_off", "time": 62, "note": 68, "velocity": 107, "channel": 0}, {"type": "note_on", "time": 8, "note": 69, "velocity": 115, "channel": 0}, {"type": "note_off", "time": 54, "note": 69, "velocity": 115, "channel": 0}, {"type": "note_on", "time": 14, "note": 65, "velocity": 119, "channel": 0}, {"type": "note_off", "time": 82, "note": 65, "velocity": 119, "channel": 0}, {"type": "note_on", "time": 0, "note": 62, "velocity": 120, "channel": 0}, {"type": "note_off", "time": 119, "note": 62, "velocity": 120, "channel": 0}, {"type": "note_on", "time": 6, "note": 58, "velocity": 107, "channel": 0}, {"type": "note_off", "time": 54, "note": 58, "velocity": 107, "channel": 0}, {"type": "note_on", "time": 11, "note": 63, "velocity": 124, "channel": 0}, {"type": "note_off", "time": 106, "note": 63, "velocity": 124, "channel": 0}, {"type": "note_on", "time": 4, "note": 62, "velocity": 118, "channel": 0}, {"type": "note_off", "time": 82, "note": 62, "velocity": 118, "channel": 0}, {"type": "note_on", "time": 0, "note": 59, "velocity": 104, "channel": 0}, {"type": "note_off", "time": 48, "note": 59, "velocity": 104, "channel": 0}, {"type": "note_on", "time": 9, "note": 55, "velocity": 102, "channel": 0}, {"type": "note_off", "time": 87, "note": 55, "velocity": 102, "channel": 0}, {"type": "note_on", "time": 33, "note": 60, "velocity": 119, "channel": 0}, {"type": "note_off", "time": 93, "note": 60, "velocity": 119, "channel": 0}, {"type": "note_on", "time": 19, "note": 62, "velocity": 120, "channel": 0}, {"type": "note_off", "time": 79, "note": 62, "velocity": 120, "channel": 0}, {"type": "note_on", "time": 4, "note": 63, "velocity": 121, "channel": 0}, {"type": "note_off", "time": 85, "note": 63, "velocity": 121, "channel": 0}, {"type": "note_on", "time": 0, "note": 65, "velocity": 116, "channel": 0}, {"type": "note_off", "time": 59, "note": 65, "velocity": 116, "channel": 0}, {"type": "note_on", "time": 0, "note": 66, "velocity": 109, "channel": 0}, {"type": "note_off", "time": 106, "note": 66, "velocity": 109, "channel": 0}, {"type": "note_on", "time": 14, "note": 67, "velocity": 109, "channel": 0}, {"type": "note_off", "time": 66, "note": 67, "velocity": 109, "channel": 0}, {"type": "note_on", "time": 4, "note": 68, "velocity": 120, "channel": 0}, {"type": "note_off", "time": 75, "note": 68, "velocity": 120, "channel": 0}, {"type": "note_on", "time": 14, "note": 66, "velocity": 101, "channel": 0}, {"type": "note_off", "time": 87, "note": 66, "velocity": 101, "channel": 0}, {"type": "note_on", "time": 14, "note": 67, "velocity": 117, "channel": 0}, {"type": "note_off", "time": 77, "note": 67, "velocity": 117, "channel": 0}, {"type": "note_on", "time": 12, "note": 66, "velocity": 114, "channel": 0}, {"type": "note_off", "time": 88, "note": 66, "velocity": 114, "channel": 0}, {"type": "note_on", "time": 6, "note": 65, "velocity": 119, "channel": 0}, {"type": "note_off", "time": 82, "note": 65, "velocity": 119, "channel": 0}, {"type": "note_on", "time": 12, "note": 64, "velocity": 127, "channel": 0}, {"type": "note_off", "time": 79, "note": 64, "velocity": 127, "channel": 0}, {"type": "note_on", "time": 0, "note": 63, "velocity": 123, "channel": 0}, {"type": "note_off", "time": 93, "note": 63, "velocity": 123, "channel": 0}, {"type": "note_on", "time": 9, "note": 65, "velocity": 115, "channel": 0}, {"type": "note_off", "time": 66, "note": 65, "velocity": 115, "channel": 0}, {"type": "note_on", "time": 0, "note": 67, "velocity": 113, "channel": 0}, {"type": "note_off", "time": 77, "note": 67, "velocity": 113, "channel": 0}, {"type": "note_on", "time": 37, "note": 63, "velocity": 119, "channel": 0}, {"type": "note_off", "time": 53, "note": 63, "velocity": 119, "channel": 0}, {"type": "note_on", "time": 16, "note": 65, "velocity": 119, "channel": 0}, {"type": "note_off", "time": 93, "note": 65, "velocity": 119, "channel": 0}, {"type": "note_on", "time": 0, "note": 63, "velocity": 122, "channel": 0}, {"type": "note_off", "time": 77, "note": 63, "velocity": 122, "channel": 0}, {"type": "note_on", "time": 0, "note": 59, "velocity": 104, "channel": 0}, {"type": "note_off", "time": 70, "note": 59, "velocity": 104, "channel": 0}, {"type": "note_on", "time": 487, "note": 74, "velocity": 108, "channel": 0}, {"type": "note_off", "time": 80, "note": 74, "velocity": 108, "channel": 0}, {"type": "note_on", "time": 9, "note": 73, "velocity": 115, "channel": 0}, {"type": "note_off", "time": 32, "note": 73, "velocity": 115, "channel": 0}, {"type": "note_on", "time": 8, "note": 72, "velocity": 116, "channel": 0}, {"type": "note_off", "time": 37, "note": 72, "velocity": 116, "channel": 0}, {"type": "note_on", "time": 3, "note": 71, "velocity": 110, "channel": 0}, {"type": "note_off", "time": 79, "note": 71, "velocity": 110, "channel": 0}, {"type": "note_on", "time": 6, "note": 72, "velocity": 101, "channel": 0}, {"type": "note_off", "time": 30, "note": 72, "velocity": 101, "channel": 0}, {"type": "note_on", "time": 3, "note": 69, "velocity": 117, "channel": 0}, {"type": "note_off", "time": 70, "note": 69, "velocity": 117, "channel": 0}, {"type": "note_on", "time": 3, "note": 68, "velocity": 115, "channel": 0}, {"type": "note_off", "time": 77, "note": 68, "velocity": 115, "channel": 0}, {"type": "note_on", "time": 27, "note": 67, "velocity": 117, "channel": 0}, {"type": "note_off", "time": 95, "note": 67, "velocity": 117, "channel": 0}, {"type": "note_on", "time": 14, "note": 66, "velocity": 114, "channel": 0}, {"type": "note_off", "time": 80, "note": 66, "velocity": 114, "channel": 0}, {"type": "note_on", "time": 6, "note": 68, "velocity": 118, "channel": 0}, {"type": "note_off", "time": 111, "note": 68, "velocity": 118, "channel": 0}, {"type": "note_on", "time": 0, "note": 67, "velocity": 114, "channel": 0}, {"type": "note_off", "time": 132, "note": 67, "velocity": 114, "channel": 0}, {"type": "note_on", "time": 14, "note": 66, "velocity": 111, "channel": 0}, {"type": "note_off", "time": 40, "note": 66, "velocity": 111, "channel": 0}, {"type": "note_on", "time": 12, "note": 65, "velocity": 117, "channel": 0}, {"type": "note_off", "time": 37, "note": 65, "velocity": 117, "channel": 0}, {"type": "note_on", "time": 6, "note": 64, "velocity": 126, "channel": 0}, {"type": "note_off", "time": 90, "note": 64, "velocity": 126, "channel": 0}, {"type": "note_on", "time": 4, "note": 63, "velocity": 116, "channel": 0}, {"type": "note_off", "time": 301, "note": 63, "velocity": 116, "channel": 0}, {"type": "end_of_track", "time": 0}]]}