{"ticks_per_beat": 192, "tracks": [[{"type": "track_name", "name": "Melody", "time": 0}, {"type": "set_tempo", "tempo": 357142, "time": 0}, {"type": "key_signature", "key": "Bb", "time": 0}, {"type": "time_signature", "numerator": 4, "denominator": 4, "clocks_per_click": 24, "notated_32nd_notes_per_beat": 8, "time": 0}, {"type": "note_on", "time": 446, "note": 57, "velocity": 113, "channel": 0}, {"type": "note_off", "time": 89, "note": 57, "velocity": 113, "channel": 0}, {"type": "note_on", "time": 3, "note": 60, "velocity": 98, "channel": 0}, {"type": "note_off", "time": 43, "note": 60, "velocity": 98, "channel": 0}, {"type": "note_on", "time": 1, "note": 58, "velocity": 107, "channel": 0}, {"type": "note_off", "time": 52, "note": 58, "velocity": 107, "channel": 0}, {"type": "note_on", "time": 3, "note": 65, "velocity": 99, "channel": 0}, {"type": "note_off", "time": 50, "note": 65, "velocity": 99, "channel": 0}, {"type": "note_on", "time": 2, "note": 68, "velocity": 97, "channel": 0}, {"type": "note_off", "time": 34, "note": 68, "velocity": 97, "channel": 0}, {"type": "note_on", "time": 4, "note": 65, "velocity": 101, "channel": 0}, {"type": "note_off", "time": 52, "note": 65, "velocity": 101, "channel": 0}, {"type": "note_on", "time": 1, "note": 70, "velocity": 95, "channel": 0}, {"type": "note_off", "time": 42, "note": 70, "velocity": 95, "channel": 0}, {"type": "note_on", "time": 13, "note": 70, "velocity": 93, "channel": 0}, {"type": "note_off", "time": 42, "note": 70, "velocity": 93, "channel": 0}, {"type": "note_on", "time": 5, "note": 72, "velocity": 87, "channel": 0}, {"type": "note_off", "time": 28, "note": 72, "velocity": 87, "channel": 0}, {"type": "note_on", "time": 1, "note": 68, "velocity": 98, "channel": 0}, {"type": "note_off", "time": 48, "note": 68, "velocity": 98, "channel": 0}, {"type": "note_on", "time": 4, "note": 65, "velocity": 102, "channel": 0}, {"type": "note_off", "time": 38, "note": 65, "velocity": 102, "channel": 0}, {"type": "note_on", "time": 6, "note": 64, "velocity": 107, "channel": 0}, {"type": "note_off", "time": 43, "note": 64, "velocity": 107, "channel": 0}, {"type": "note_on", "time": 7, "note": 63, "velocity": 107, "channel": 0}, {"type": "note_off", "time": 52, "note": 63, "velocity": 107, "channel": 0}, {"type": "note_on", "time": 1, "note": 67, "velocity": 99, "channel": 0}, {"type": "note_off", "time": 35, "note": 67, "velocity": 99, "channel": 0}, {"type": "note_on", "time": 1, "note": 65, "velocity": 102, "channel": 0}, {"type": "note_off", "time": 48, "note": 65, "velocity": 102, "channel": 0}, {"type": "note_on", "time": 1, "note": 63, "velocity": 108, "channel": 0}, {"type": "note_off", "time": 48, "note": 63, "velocity": 108, "channel": 0}, {"type": "note_on", "time": 6, "note": 62, "velocity": 106, "channel": 0}, {"type": "note_off", "time": 32, "note": 62, "velocity": 106, "channel": 0}, {"type": "note_on", "time": 2, "note": 60, "velocity": 102, "channel": 0}, {"type": "note_off", "time": 41, "note": 60, "velocity": 102, "channel": 0}, {"type": "note_on", "time": 4, "note": 59, "velocity": 95, "channel": 0}, {"type": "note_off", "time": 58, "note": 59, "velocity": 95, "channel": 0}, {"type": "note_on", "time": 0, "note": 53, "velocity": 92, "channel": 0}, {"type": "note_off", "time": 37, "note": 53, "velocity": 92, "channel": 0}, {"type": "note_on", "time": 7, "note": 56, "velocity": 99, "channel": 0}, {"type": "note_off", "time": 29, "note": 56, "velocity": 99, "channel": 0}, {"type": "note_on", "time": 2, "note": 60, "velocity": 104, "channel": 0}, {"type": "note_off", "time": 48, "note": 60, "velocity": 104, "channel": 0}, {"type": "note_on", "time": 4, "note": 59, "velocity": 99, "channel": 0}, {"type": "note_off", "time": 41, "note": 59, "velocity": 99, "channel": 0}, {"type": "note_on", "time": 0, "note": 60, "velocity": 99, "channel": 0}, {"type": "note_off", "time": 49, "note": 60, "velocity": 99, "channel": 0}, {"type": "note_on", "time": 2, "note": 65, "velocity": 97, "channel": 0}, {"type": "note_off", "time": 38, "note": 65, "velocity": 97, "channel": 0}, {"type": "note_on", "time": 0, "note": 68, "velocity": 98, "channel": 0}, {"type": "note_off", "time": 51, "note": 68, "velocity": 98, "channel": 0}, {"type": "note_on", "time": 1, "note": 67, "velocity": 95, "channel": 0}, {"type": "note_off", "time": 59, "note": 67, "velocity": 95, "channel": 0}, {"type": "note_on", "time": 5, "note": 62, "velocity": 90, "channel": 0}, {"type": "note_off", "time": 36, "note": 62, "velocity": 90, "channel": 0}, {"type": "note_on", "time": 4, "note": 63, "velocity": 99, "channel": 0}, {"type": "note_off", "time": 39, "note": 63, "velocity": 99, "channel": 0}, {"type": "note_on", "time": 4, "note": 65, "velocity": 96, "channel": 0}, {"type": "note_off", "time": 48, "note": 65, "velocity": 96, "channel": 0}, {"type": "note_on", "time": 8, "note": 67, "velocity": 88, "channel": 0}, {"type": "note_off", "time": 196, "note": 67, "velocity": 88, "channel": 0}, {"type": "note_on", "time": 396, "note": 68, "velocity": 104, "channel": 0}, {"type": "note_off", "time": 42, "note": 68, "velocity": 104, "channel": 0}, {"type": "note_on", "time": 0, "note": 67, "velocity": 99, "channel": 0}, {"type": "note_off", "time": 148, "note": 67, "velocity": 99, "channel": 0}, {"type": "note_on", "time": 13, "note": 68, "velocity": 103, "channel": 0}, {"type": "note_off", "time": 34, "note": 68, "velocity": 103, "channel": 0}, {"type": "note_on", "time": 3, "note": 67, "velocity": 97, "channel": 0}, {"type": "note_off", "time": 112, "note": 67, "velocity": 97, "channel": 0}, {"type": "note_on", "time": 11, "note": 67, "velocity": 100, "channel": 0}, {"type": "note_off", "time": 28, "note": 67, "velocity": 100, "channel": 0}, {"type": "note_on", "time": 388, "note": 68, "velocity": 97, "channel": 0}, {"type": "note_off", "time": 31, "note": 68, "velocity": 97, "channel": 0}, {"type": "note_on", "time": 7, "note": 67, "velocity": 98, "channel": 0}, {"type": "note_off", "time": 121, "note": 67, "velocity": 98, "channel": 0}, {"type": "note_on", "time": 7, "note": 68, "velocity": 92, "channel": 0}, {"type": "note_off", "time": 35, "note": 68, "velocity": 92, "channel": 0}, {"type": "note_on", "time": 13, "note": 67, "velocity": 96, "channel": 0}, {"type": "note_off", "time": 161, "note": 67, "velocity": 96, "channel": 0}, {"type": "note_on", "time": 3, "note": 67, "velocity": 89, "channel": 0}, {"type": "note_off", "time": 120, "note": 67, "velocity": 89, "channel": 0}, {"type": "note_on", "time": 7, "note": 67, "velocity": 94, "channel": 0}, {"type": "note_off", "time": 84, "note": 67, "velocity": 94, "channel": 0}, {"type": "note_on", "time": 23, "note": 67, "velocity": 97, "channel": 0}, {"type": "note_off", "time": 135, "note": 67, "velocity": 97, "channel": 0}, {"type": "note_on", "time": 0, "note": 72, "velocity": 96, "channel": 0}, {"type": "note_off", "time": 35, "note": 72, "velocity": 96, "channel": 0}, {"type": "note_on", "time": 77, "note": 67, "velocity": 95, "channel": 0}, {"type": "note_off", "time": 110, "note": 67, "velocity": 95, "channel": 0}, {"type": "note_on", "time": 28, "note": 65, "velocity": 98, "channel": 0}, {"type": "note_off", "time": 135, "note": 65, "velocity": 98, "channel": 0}, {"type": "note_on", "time": 9, "note": 65, "velocity": 99, "channel": 0}, {"type": "note_off", "time": 37, "note": 65, "velocity": 99, "channel": 0}, {"type": "note_on", "time": 376, "note": 65, "velocity": 97, "channel": 0}, {"type": "note_off", "time": 18, "note": 65, "velocity": 97, "channel": 0}, {"type": "note_on", "time": 6, "note": 67, "velocity": 98, "channel": 0}, {"type": "note_off", "time": 135, "note": 67, "velocity": 98, "channel": 0}, {"type": "note_on", "time": 7, "note": 64, "velocity": 98, "channel": 0}, {"type": "note_off", "time": 30, "note": 64, "velocity": 98, "channel": 0}, {"type": "note_on", "time": 7, "note": 65, "velocity": 100, "channel": 0}, {"type": "note_off", "time": 138, "note": 65, "velocity": 100, "channel": 0}, {"type": "note_on", "time": 20, "note": 65, "velocity": 102, "channel": 0}, {"type": "note_off", "time": 37, "note": 65, "velocity": 102, "channel": 0}, {"type": "note_on", "time": 282, "note": 66, "velocity": 101, "channel": 0}, {"type": "note_off", "time": 40, "note": 66, "velocity": 101, "channel": 0}, {"type": "note_on", "time": 3, "note": 64, "velocity": 107, "channel": 0}, {"type": "note_off", "time": 42, "note": 64, "velocity": 107, "channel": 0}, {"type": "note_on", "time": 5, "note": 65, "velocity": 100, "channel": 0}, {"type": "note_off", "time": 34, "note": 65, "velocity": 100, "channel": 0}, {"type": "note_on", "time": 10, "note": 67, "velocity": 97, "channel": 0}, {"type": "note_off", "time": 46, "note": 67, "velocity": 97, "channel": 0}, {"type": "note_on", "time": 4, "note": 68, "velocity": 96, "channel": 0}, {"type": "note_off", "time": 46, "note": 68, "velocity": 96, "channel": 0}, {"type": "note_on", "time": 3, "note": 71, "velocity": 91, "channel": 0}, {"type": "note_off", "time": 45, "note": 71, "velocity": 91, "channel": 0}, {"type": "note_on", "time": 1, "note": 67, "velocity": 96, "channel": 0}, {"type": "note_off", "time": 51, "note": 67, "velocity": 96, "channel": 0}, {"type": "note_on", "time": 4, "note": 70, "velocity": 94, "channel": 0}, {"type": "note_off", "time": 43, "note": 70, "velocity": 94, "channel": 0}, {"type": "note_on", "time": 7, "note": 68, "velocity": 93, "channel": 0}, {"type": "note_off", "time": 49, "note": 68, "velocity": 93, "channel": 0}, {"type": "note_on", "time": 0, "note": 65, "velocity": 93, "channel": 0}, {"type": "note_off", "time": 49, "note": 65, "velocity": 93, "channel": 0}, {"type": "note_on", "time": 0, "note": 67, "velocity": 96, "channel": 0}, {"type": "note_off", "time": 56, "note": 67, "velocity": 96, "channel": 0}, {"type": "note_on", "time": 2, "note": 66, "velocity": 98, "channel": 0}, {"type": "note_off", "time": 42, "note": 66, "velocity": 98, "channel": 0}, {"type": "note_on", "time": 2, "note": 65, "velocity": 97, "channel": 0}, {"type": "note_off", "time": 39, "note": 65, "velocity": 97, "channel": 0}, {"type": "note_on", "time": 10, "note": 64, "velocity": 108, "channel": 0}, {"type": "note_off", "time": 42, "note": 64, "velocity": 108, "channel": 0}, {"type": "note_on", "time": 6, "note": 63, "velocity": 100, "channel": 0}, {"type": "note_off", "time": 42, "note": 63, "velocity": 100, "channel": 0}, {"type": "note_on", "time": 6, "note": 61, "velocity": 100, "channel": 0}, {"type": "note_off", "time": 46, "note": 61, "velocity": 100, "channel": 0}, {"type": "note_on", "time": 0, "note": 58, "velocity": 98, "channel": 0}, {"type": "note_off", "time": 46, "note": 58, "velocity": 98, "channel": 0}, {"type": "note_on", "time": 3, "note": 56, "velocity": 100, "channel": 0}, {"type": "note_off", "time": 42, "note": 56, "velocity": 100, "channel": 0}, {"type": "note_on", "time": 5, "note": 55, "velocity": 96, "channel": 0}, {"type": "note_off", "time": 39, "note": 55, "velocity": 96, "channel": 0}, {"type": "note_on", "time": 6, "note": 57, "velocity": 92, "channel": 0}, {"type": "note_off", "time": 43, "note": 57, "velocity": 92, "channel": 0}, {"type": "note_on", "time": 9, "note": 59, "velocity": 93, "channel": 0}, {"type": "note_off", "time": 47, "note": 59, "velocity": 93, "channel": 0}, {"type": "note_on", "time": 3, "note": 62, "velocity": 97, "channel": 0}, {"type": "note_off", "time": 35, "note": 62, "velocity": 97, "channel": 0}, {"type": "note_on", "time": 14, "note": 59, "velocity": 97, "channel": 0}, {"type": "note_off", "time": 43, "note": 59, "velocity": 97, "channel": 0}, {"type": "note_on", "time": 6, "note": 60, "velocity": 93, "channel": 0}, {"type": "note_off", "time": 53, "note": 60, "velocity": 93, "channel": 0}, {"type": "note_on", "time": 0, "note": 64, "velocity": 90, "channel": 0}, {"type": "note_off", "time": 37, "note": 64, "velocity": 90, "channel": 0}, {"type": "note_on", "time": 6, "note": 67, "velocity": 89, "channel": 0}, {"type": "note_off", "time": 42, "note": 67, "velocity": 89, "channel": 0}, {"type": "note_on", "time": 3, "note": 71, "velocity": 95, "channel": 0}, {"type": "note_off", "time": 59, "note": 71, "velocity": 95, "channel": 0}, {"type": "note_on", "time": 0, "note": 74, "velocity": 97, "channel": 0}, {"type": "note_off", "time": 45, "note": 74, "velocity": 97, "channel": 0}, {"type": "note_on", "time": 1, "note": 72, "velocity": 98, "channel": 0}, {"type": "note_off", "time": 48, "note": 72, "velocity": 98, "channel": 0}, {"type": "note_on", "time": 6, "note": 67, "velocity": 94, "channel": 0}, {"type": "note_off", "time": 28, "note": 67, "velocity": 94, "channel": 0}, {"type": "note_on", "time": 5, "note": 69, "velocity": 96, "channel": 0}, {"type": "note_off", "time": 53, "note": 69, "velocity": 96, "channel": 0}, {"type": "note_on", "time": 1, "note": 65, "velocity": 97, "channel": 0}, {"type": "note_off", "time": 48, "note": 65, "velocity": 97, "channel": 0}, {"type": "note_on", "time": 2, "note": 64, "velocity": 99, "channel": 0}, {"type": "note_off", "time": 31, "note": 64, "velocity": 99, "channel": 0}, {"type": "note_on", "time": 2, "note": 62, "velocity": 95, "channel": 0}, {"type": "note_off", "time": 42, "note": 62, "velocity": 95, "channel": 0}, {"type": "note_on", "time": 3, "note": 67, "velocity": 96, "channel": 0}, {"type": "note_off", "time": 56, "note": 67, "velocity": 96, "channel": 0}, {"type": "note_on", "time": 2, "note": 66, "velocity": 97, "channel": 0}, {"type": "note_off", "time": 39, "note": 66, "velocity": 97, "channel": 0}, {"type": "note_on", "time": 7, "note": 65, "velocity": 97, "channel": 0}, {"type": "note_off", "time": 45, "note": 65, "velocity": 97, "channel": 0}, {"type": "note_on", "time": 1, "note": 64, "velocity": 106, "channel": 0}, {"type": "note_off", "time": 40, "note": 64, "velocity": 106, "channel": 0}, {"type": "note_on", "time": 6, "note": 63, "velocity": 106, "channel": 0}, {"type": "note_off", "time": 42, "note": 63, "velocity": 106, "channel": 0}, {"type": "note_on", "time": 7, "note": 61, "velocity": 100, "channel": 0}, {"type": "note_off", "time": 53, "note": 61, "velocity": 100, "channel": 0}, {"type": "note_on", "time": 4, "note": 58, "velocity": 97, "channel": 0}, {"type": "note_off", "time": 46, "note": 58, "velocity": 97, "channel": 0}, {"type": "note_on", "time": 3, "note": 56, "velocity": 99, "channel": 0}, {"type": "note_off", "time": 51, "note": 56, "velocity": 99, "channel": 0}, {"type": "note_on", "time": 0, "note": 55, "velocity": 98, "channel": 0}, {"type": "note_off", "time": 35, "note": 55, "velocity": 98, "channel": 0}, {"type": "note_on", "time": 7, "note": 57, "velocity": 92, "channel": 0}, {"type": "note_off", "time": 42, "note": 57, "velocity": 92, "channel": 0}, {"type": "note_on", "time": 6, "note": 59, "velocity": 92, "channel": 0}, {"type": "note_off", "time": 39, "note": 59, "velocity": 92, "channel": 0}, {"type": "note_on", "time": 9, "note": 63, "velocity": 97, "channel": 0}, {"type": "note_off", "time": 35, "note": 63, "velocity": 97, "channel": 0}, {"type": "note_on", "time": 7, "note": 67, "velocity": 96, "channel": 0}, {"type": "note_off", "time": 45, "note": 67, "velocity": 96, "channel": 0}, {"type": "note_on", "time": 10, "note": 66, "velocity": 97, "channel": 0}, {"type": "note_off", "time": 49, "note": 66, "velocity": 97, "channel": 0}, {"type": "note_on", "time": 3, "note": 65, "velocity": 95, "channel": 0}, {"type": "note_off", "time": 28, "note": 65, "velocity": 95, "channel": 0}, {"type": "note_on", "time": 5, "note": 64, "velocity": 105, "channel": 0}, {"type": "note_off", "time": 45, "note": 64, "velocity": 105, "channel": 0}, {"type": "note_on", "time": 0, "note": 63, "velocity": 107, "channel": 0}, {"type": "note_off", "time": 49, "note": 63, "velocity": 107, "channel": 0}, {"type": "note_on", "time": 3, "note": 61, "velocity": 98, "channel": 0}, {"type": "note_off", "time": 53, "note": 61, "velocity": 98, "channel": 0}, {"type": "note_on", "time": 9, "note": 59, "velocity": 91, "channel": 0}, {"type": "note_off", "time": 45, "note": 59, "velocity": 91, "channel": 0}, {"type": "note_on", "time": 1, "note": 56, "velocity": 91, "channel": 0}, {"type": "note_off", "time": 34, "note": 56, "velocity": 91, "channel": 0}, {"type": "note_on", "time": 15, "note": 60, "velocity": 100, "channel": 0}, {"type": "note_off", "time": 123, "note": 60, "velocity": 100, "channel": 0}, {"type": "note_on", "time": 450, "note": 64, "velocity": 95, "channel": 0}, {"type": "note_off", "time": 20, "note": 64, "velocity": 95, "channel": 0}, {"type": "note_on", "time": 3, "note": 67, "velocity": 98, "channel": 0}, {"type": "note_off", "time": 156, "note": 67, "velocity": 98, "channel": 0}, {"type": "note_on", "time": 15, "note": 65, "velocity": 104, "channel": 0}, {"type": "note_off", "time": 56, "note": 65, "velocity": 104, "channel": 0}, {"type": "note_on", "time": 9, "note": 67, "velocity": 99, "channel": 0}, {"type": "note_off", "time": 46, "note": 67, "velocity": 99, "channel": 0}, {"type": "note_on", "time": 0, "note": 68, "velocity": 103, "channel": 0}, {"type": "note_off", "time": 40, "note": 68, "velocity": 103, "channel": 0}, {"type": "note_on", "time": 6, "note": 65, "velocity": 96, "channel": 0}, {"type": "note_off", "time": 37, "note": 65, "velocity": 96, "channel": 0}, {"type": "note_on", "time": 4, "note": 69, "velocity": 101, "channel": 0}, {"type": "note_off", "time": 46, "note": 69, "velocity": 101, "channel": 0}, {"type": "note_on", "time": 10, "note": 69, "velocity": 93, "channel": 0}, {"type": "note_off", "time": 35, "note": 69, "velocity": 93, "channel": 0}, {"type": "note_on", "time": 7, "note": 68, "velocity": 98, "channel": 0}, {"type": "note_off", "time": 37, "note": 68, "velocity": 98, "channel": 0}, {"type": "note_on", "time": 4, "note": 69, "velocity": 97, "channel": 0}, {"type": "note_off", "time": 45, "note": 69, "velocity": 97, "channel": 0}, {"type": "note_on", "time": 3, "note": 67, "velocity": 100, "channel": 0}, {"type": "note_off", "time": 46, "note": 67, "velocity": 100, "channel": 0}, {"type": "note_on", "time": 4, "note": 66, "velocity": 99, "channel": 0}, {"type": "note_off", "time": 41, "note": 66, "velocity": 99, "channel": 0}, {"type": "note_on", "time": 0, "note": 65, "velocity": 98, "channel": 0}, {"type": "note_off", "time": 31, "note": 65, "velocity": 98, "channel": 0}, {"type": "note_on", "time": 3, "note": 64, "velocity": 106, "channel": 0}, {"type": "note_off", "time": 53, "note": 64, "velocity": 106, "channel": 0}, {"type": "note_on", "time": 1, "note": 63, "velocity": 107, "channel": 0}, {"type": "note_off", "time": 42, "note": 63, "velocity": 107, "channel": 0}, {"type": "note_on", "time": 6, "note": 61, "velocity": 101, "channel": 0}, {"type": "note_off", "time": 43, "note": 61, "velocity": 101, "channel": 0}, {"type": "note_on", "time": 1, "note": 58, "velocity": 96, "channel": 0}, {"type": "note_off", "time": 40, "note": 58, "velocity": 96, "channel": 0}, {"type": "note_on", "time": 10, "note": 56, "velocity": 98, "channel": 0}, {"type": "note_off", "time": 56, "note": 56, "velocity": 98, "channel": 0}, {"type": "note_on", "time": 0, "note": 55, "velocity": 101, "channel": 0}, {"type": "note_off", "time": 33, "note": 55, "velocity": 101, "channel": 0}, {"type": "note_on", "time": 3, "note": 57, "velocity": 95, "channel": 0}, {"type": "note_off", "time": 36, "note": 57, "velocity": 95, "channel": 0}, {"type": "note_on", "time": 6, "note": 59, "velocity": 93, "channel": 0}, {"type": "note_off", "time": 42, "note": 59, "velocity": 93, "channel": 0}, {"type": "note_on", "time": 7, "note": 62, "velocity": 97, "channel": 0}, {"type": "note_off", "time": 46, "note": 62, "velocity": 97, "channel": 0}, {"type": "note_on", "time": 7, "note": 59, "velocity": 95, "channel": 0}, {"type": "note_off", "time": 42, "note": 59, "velocity": 95, "channel": 0}, {"type": "note_on", "time": 5, "note": 60, "velocity": 98, "channel": 0}, {"type": "note_off", "time": 44, "note": 60, "velocity": 98, "channel": 0}, {"type": "note_on", "time": 3, "note": 64, "velocity": 101, "channel": 0}, {"type": "note_off", "time": 49, "note": 64, "velocity": 101, "channel": 0}, {"type": "note_on", "time": 6, "note": 67, "velocity": 98, "channel": 0}, {"type": "note_off", "time": 53, "note": 67, "velocity": 98, "channel": 0}, {"type": "note_on", "time": 0, "note": 63, "velocity": 103, "channel": 0}, {"type": "note_off", "time": 39, "note": 63, "velocity": 103, "channel": 0}, {"type": "note_on", "time": 1, "note": 64, "velocity": 101, "channel": 0}, {"type": "note_off", "time": 45, "note": 64, "velocity": 101, "channel": 0}, {"type": "note_on", "time": 0, "note": 67, "velocity": 93, "channel": 0}, {"type": "note_off", "time": 46, "note": 67, "velocity": 93, "channel": 0}, {"type": "note_on", "time": 1, "note": 70, "velocity": 91, "channel": 0}, {"type": "note_off", "time": 24, "note": 70, "velocity": 91, "channel": 0}, {"type": "note_on", "time": 18, "note": 75, "velocity": 110, "channel": 0}, {"type": "note_off", "time": 326, "note": 75, "velocity": 110, "channel": 0}, {"type": "note_on", "time": 3, "note": 72, "velocity": 94, "channel": 0}, {"type": "note_off", "time": 68, "note": 72, "velocity": 94, "channel": 0}, {"type": "note_on", "time": 62, "note": 68, "velocity": 105, "channel": 0}, {"type": "note_on", "time": 56, "note": 67, "velocity": 95, "channel": 0}, {"type": "note_off", "time": 0, "note": 68, "velocity": 105, "channel": 0}, {"type": "note_off", "time": 28, "note": 67, "velocity": 95, "channel": 0}, {"type": "note_on", "time": 0, "note": 66, "velocity": 91, "channel": 0}, {"type": "note_off", "time": 43, "note": 66, "velocity": 91, "channel": 0}, {"type": "note_on", "time": 2, "note": 70, "velocity": 96, "channel": 0}, {"type": "note_off", "time": 59, "note": 70, "velocity": 96, "channel": 0}, {"type": "note_on", "time": 0, "note": 68, "velocity": 99, "channel": 0}, {"type": "note_off", "time": 43, "note": 68, "velocity": 99, "channel": 0}, {"type": "note_on", "time": 3, "note": 64, "velocity": 96, "channel": 0}, {"type": "note_off", "time": 39, "note": 64, "velocity": 96, "channel": 0}, {"type": "note_on", "time": 12, "note": 61, "velocity": 100, "channel": 0}, {"type": "note_off", "time": 25, "note": 61, "velocity": 100, "channel": 0}, {"type": "note_on", "time": 9, "note": 67, "velocity": 97, "channel": 0}, {"type": "note_off", "time": 40, "note": 67, "velocity": 97, "channel": 0}, {"type": "note_on", "time": 6, "note": 66, "velocity": 97, "channel": 0}, {"type": "note_off", "time": 43, "note": 66, "velocity": 97, "channel": 0}, {"type": "note_on", "time": 9, "note": 65, "velocity": 98, "channel": 0}, {"type": "note_off", "time": 42, "note": 65, "velocity": 98, "channel": 0}, {"type": "note_on", "time": 7, "note": 64, "velocity": 106, "channel": 0}, {"type": "note_off", "time": 40, "note": 64, "velocity": 106, "channel": 0}, {"type": "note_on", "time": 4, "note": 63, "velocity": 104, "channel": 0}, {"type": "note_off", "time": 39, "note": 63, "velocity": 104, "channel": 0}, {"type": "note_on", "time": 1, "note": 60, "velocity": 102, "channel": 0}, {"type": "note_off", "time": 49, "note": 60, "velocity": 102, "channel": 0}, {"type": "note_on", "time": 1, "note": 56, "velocity": 99, "channel": 0}, {"type": "note_off", "time": 40, "note": 56, "velocity": 99, "channel": 0}, {"type": "note_on", "time": 4, "note": 53, "velocity": 99, "channel": 0}, {"type": "note_off", "time": 42, "note": 53, "velocity": 99, "channel": 0}, {"type": "note_on", "time": 3, "note": 58, "velocity": 103, "channel": 0}, {"type": "note_off", "time": 37, "note": 58, "velocity": 103, "channel": 0}, {"type": "note_on", "time": 3, "note": 53, "velocity": 99, "channel": 0}, {"type": "note_off", "time": 39, "note": 53, "velocity": 99, "channel": 0}, {"type": "note_on", "time": 9, "note": 46, "velocity": 101, "channel": 0}, {"type": "note_off", "time": 53, "note": 46, "velocity": 101, "channel": 0}, {"type": "note_on", "time": 0, "note": 53, "velocity": 108, "channel": 0}, {"type": "note_off", "time": 32, "note": 53, "velocity": 108, "channel": 0}, {"type": "note_on", "time": 1, "note": 50, "velocity": 104, "channel": 0}, {"type": "note_off", "time": 33, "note": 50, "velocity": 104, "channel": 0}, {"type": "note_on", "time": 8, "note": 46, "velocity": 110, "channel": 0}, {"type": "note_off", "time": 47, "note": 46, "velocity": 110, "channel": 0}, {"type": "note_on", "time": 1, "note": 44, "velocity": 116, "channel": 0}, {"type": "note_off", "time": 188, "note": 44, "velocity": 116, "channel": 0}, {"type": "note_on", "time": 945, "note": 55, "velocity": 9, "channel": 0}, {"type": "note_off", "time": 37, "note": 55, "velocity": 9, "channel": 0}, {"type": "note_on", "time": 6, "note": 57, "velocity": 9, "channel": 0}, {"type": "note_off", "time": 54, "note": 57, "velocity": 9, "channel": 0}, {"type": "note_on", "time": 5, "note": 62, "velocity": 9, "channel": 0}, {"type": "note_off", "time": 35, "note": 62, "velocity": 9, "channel": 0}, {"type": "note_on", "time": 0, "note": 59, "velocity": 9, "channel": 0}, {"type": "note_off", "time": 43, "note": 59, "velocity": 9, "channel": 0}, {"type": "note_on", "time": 5, "note": 60, "velocity": 9, "channel": 0}, {"type": "note_off", "time": 52, "note": 60, "velocity": 9, "channel": 0}, {"type": "note_on", "time": 2, "note": 64, "velocity": 9, "channel": 0}, {"type": "note_off", "time": 46, "note": 64, "velocity": 9, "channel": 0}, {"type": "note_on", "time": 3, "note": 67, "velocity": 9, "channel": 0}, {"type": "note_off", "time": 45, "note": 67, "velocity": 9, "channel": 0}, {"type": "note_on", "time": 0, "note": 72, "velocity": 9, "channel": 0}, {"type": "note_off", "time": 35, "note": 72, "velocity": 9, "channel": 0}, {"type": "note_on", "time": 5, "note": 74, "velocity": 9, "channel": 0}, {"type": "note_off", "time": 59, "note": 74, "velocity": 9, "channel": 0}, {"type": "note_on", "time": 0, "note": 72, "velocity": 9, "channel": 0}, {"type": "note_off", "time": 31, "note": 72, "velocity": 9, "channel": 0}, {"type": "note_on", "time": 15, "note": 67, "velocity": 9, "channel": 0}, {"type": "note_off", "time": 42, "note": 67, "velocity": 9, "channel": 0}, {"type": "note_on", "time": 0, "note": 69, "velocity": 9, "channel": 0}, {"type": "note_on", "time": 45, "note": 65, "velocity": 9, "channel": 0}, {"type": "note_off", "time": 0, "note": 69, "velocity": 9, "channel": 0}, {"type": "note_off", "time": 46, "note": 65, "velocity": 9, "channel": 0}, {"type": "note_on", "time": 0, "note": 64, "velocity": 9, "channel": 0}, {"type": "note_off", "time": 45, "note": 64, "velocity": 9, "channel": 0}, {"type": "note_on", "time": 7, "note": 62, "velocity": 9, "channel": 0}, {"type": "note_off", "time": 32, "note": 62, "velocity": 9, "channel": 0}, {"type": "note_on", "time": 2, "note": 67, "velocity": 9, "channel": 0}, {"type": "note_off", "time": 54, "note": 67, "velocity": 9, "channel": 0}, {"type": "note_on", "time": 0, "note": 66, "velocity": 9, "channel": 0}, {"type": "note_off", "time": 46, "note": 66, "velocity": 9, "channel": 0}, {"type": "note_on", "time": 6, "note": 65, "velocity": 9, "channel": 0}, {"type": "note_off", "time": 42, "note": 65, "velocity": 9, "channel": 0}, {"type": "note_on", "time": 4, "note": 64, "velocity": 9, "channel": 0}, {"type": "note_off", "time": 49, "note": 64, "velocity": 9, "channel": 0}, {"type": "note_on", "time": 9, "note": 63, "velocity": 9, "channel": 0}, {"type": "note_off", "time": 39, "note": 63, "velocity": 9, "channel": 0}, {"type": "note_on", "time": 7, "note": 61, "velocity": 9, "channel": 0}, {"type": "note_off", "time": 46, "note": 61, "velocity": 9, "channel": 0}, {"type": "note_on", "time": 3, "note": 59, "velocity": 9, "channel": 0}, {"type": "note_off", "time": 32, "note": 59, "velocity": 9, "channel": 0}, {"type": "note_on", "time": 9, "note": 56, "velocity": 9, "channel": 0}, {"type": "note_off", "time": 48, "note": 56, "velocity": 9, "channel": 0}, {"type": "note_on", "time": 4, "note": 55, "velocity": 9, "channel": 0}, {"type": "note_off", "time": 39, "note": 55, "velocity": 9, "channel": 0}, {"type": "note_on", "time": 13, "note": 56, "velocity": 9, "channel": 0}, {"type": "note_off", "time": 32, "note": 56, "velocity": 9, "channel": 0}, {"type": "note_on", "time": 12, "note": 59, "velocity": 9, "channel": 0}, {"type": "note_off", "time": 21, "note": 59, "velocity": 9, "channel": 0}, {"type": "note_on", "time": 12, "note": 57, "velocity": 9, "channel": 0}, {"type": "note_off", "time": 39, "note": 57, "velocity": 9, "channel": 0}, {"type": "note_on", "time": 0, "note": 59, "velocity": 9, "channel": 0}, {"type": "note_off", "time": 48, "note": 59, "velocity": 9, "channel": 0}, {"type": "note_on", "time": 6, "note": 60, "velocity": 9, "channel": 0}, {"type": "note_off", "time": 46, "note": 60, "velocity": 9, "channel": 0}, {"type": "note_on", "time": 1, "note": 64, "velocity": 9, "channel": 0}, {"type": "note_off", "time": 39, "note": 64, "velocity": 9, "channel": 0}, {"type": "note_on", "time": 1, "note": 67, "velocity": 9, "channel": 0}, {"type": "note_off", "time": 48, "note": 67, "velocity": 9, "channel": 0}, {"type": "note_on", "time": 15, "note": 72, "velocity": 9, "channel": 0}, {"type": "note_off", "time": 53, "note": 72, "velocity": 9, "channel": 0}, {"type": "note_on", "time": 12, "note": 72, "velocity": 9, "channel": 0}, {"type": "note_off", "time": 53, "note": 72, "velocity": 9, "channel": 0}, {"type": "note_on", "time": 335, "note": 70, "velocity": 9, "channel": 0}, {"type": "note_off", "time": 15, "note": 70, "velocity": 9, "channel": 0}, {"type": "note_on", "time": 4, "note": 72, "velocity": 9, "channel": 0}, {"type": "note_off", "time": 48, "note": 72, "velocity": 9, "channel": 0}, {"type": "note_on", "time": 6, "note": 70, "velocity": 9, "channel": 0}, {"type": "note_off", "time": 65, "note": 70, "velocity": 9, "channel": 0}, {"type": "note_on", "time": 17, "note": 70, "velocity": 9, "channel": 0}, {"type": "note_off", "time": 15, "note": 70, "velocity": 9, "channel": 0}, {"type": "note_on", "time": 1, "note": 72, "velocity": 9, "channel": 0}, {"type": "note_on", "time": 39, "note": 75, "velocity": 9, "channel": 0}, {"type": "note_off", "time": 0, "note": 72, "velocity": 9, "channel": 0}, {"type": "note_off", "time": 641, "note": 75, "velocity": 9, "channel": 0}, {"type": "note_on", "time": 28, "note": 74, "velocity": 9, "channel": 0}, {"type": "note_off", "time": 92, "note": 74, "velocity": 9, "channel": 0}, {"type": "note_on", "time": 12, "note": 69, "velocity": 9, "channel": 0}, {"type": "note_off", "time": 87, "note": 69, "velocity": 9, "channel": 0}, {"type": "note_on", "time": 14, "note": 72, "velocity": 9, "channel": 0}, {"type": "note_off", "time": 87, "note": 72, "velocity": 9, "channel": 0}, {"type": "note_on", "time": 7, "note": 70, "velocity": 9, "channel": 0}, {"type": "note_off", "time": 46, "note": 70, "velocity": 9, "channel": 0}, {"type": "note_on", "time": 34, "note": 65, "velocity": 9, "channel": 0}, {"type": "note_off", "time": 68, "note": 65, "velocity": 9, "channel": 0}, {"type": "note_on", "time": 1, "note": 62, "velocity": 9, "channel": 0}, {"type": "note_off", "time": 56, "note": 62, "velocity": 9, "channel": 0}, {"type": "note_on", "time": 6, "note": 60, "velocity": 9, "channel": 0}, {"type": "note_off", "time": 40, "note": 60, "velocity": 9, "channel": 0}, {"type": "note_on", "time": 10, "note": 58, "velocity": 9, "channel": 0}, {"type": "note_off", "time": 195, "note": 58, "velocity": 9, "channel": 0}, {"type": "note_on", "time": 316, "note": 53, "velocity": 9, "channel": 0}, {"type": "note_off", "time": 31, "note": 53, "velocity": 9, "channel": 0}, {"type": "note_on", "time": 0, "note": 58, "velocity": 9, "channel": 0}, {"type": "note_off", "time": 52, "note": 58, "velocity": 9, "channel": 0}, {"type": "note_on", "time": 3, "note": 58, "velocity": 9, "channel": 0}, {"type": "note_off", "time": 46, "note": 58, "velocity": 9, "channel": 0}, {"type": "note_on", "time": 0, "note": 53, "velocity": 9, "channel": 0}, {"type": "note_off", "time": 32, "note": 53, "velocity": 9, "channel": 0}, {"type": "note_on", "time": 3, "note": 57, "velocity": 9, "channel": 0}, {"type": "note_off", "time": 46, "note": 57, "velocity": 9, "channel": 0}, {"type": "note_on", "time": 13, "note": 58, "velocity": 9, "channel": 0}, {"type": "note_off", "time": 45, "note": 58, "velocity": 9, "channel": 0}, {"type": "note_on", "time": 4, "note": 58, "velocity": 9, "channel": 0}, {"type": "note_off", "time": 43, "note": 58, "velocity": 9, "channel": 0}, {"type": "note_on", "time": 45, "note": 57, "velocity": 9, "channel": 0}, {"type": "note_off", "time": 39, "note": 57, "velocity": 9, "channel": 0}, {"type": "note_on", "time": 0, "note": 59, "velocity": 9, "channel": 0}, {"type": "note_off", "time": 51, "note": 59, "velocity": 9, "channel": 0}, {"type": "note_on", "time": 3, "note": 69, "velocity": 9, "channel": 0}, {"type": "note_off", "time": 51, "note": 69, "velocity": 9, "channel": 0}, {"type": "note_on", "time": 0, "note": 70, "velocity": 9, "channel": 0}, {"type": "note_off", "time": 46, "note": 70, "velocity": 9, "channel": 0}, {"type": "note_on", "time": 0, "note": 72, "velocity": 9, "channel": 0}, {"type": "note_off", "time": 46, "note": 72, "velocity": 9, "channel": 0}, {"type": "note_on", "time": 0, "note": 68, "velocity": 9, "channel": 0}, {"type": "note_off", "time": 51, "note": 68, "velocity": 9, "channel": 0}, {"type": "note_on", "time": 6, "note": 66, "velocity": 9, "channel": 0}, {"type": "note_off", "time": 35, "note": 66, "velocity": 9, "channel": 0}, {"type": "note_on", "time": 3, "note": 64, "velocity": 9, "channel": 0}, {"type": "note_off", "time": 53, "note": 64, "velocity": 9, "channel": 0}, {"type": "note_on", "time": 0, "note": 63, "velocity": 9, "channel": 0}, {"type": "note_off", "time": 42, "note": 63, "velocity": 9, "channel": 0}, {"type": "note_on", "time": 0, "note": 67, "velocity": 9, "channel": 0}, {"type": "note_off", "time": 46, "note": 67, "velocity": 9, "channel": 0}, {"type": "note_on", "time": 3, "note": 65, "velocity": 9, "channel": 0}, {"type": "note_off", "time": 39, "note": 65, "velocity": 9, "channel": 0}, {"type": "note_on", "time": 1, "note": 61, "velocity": 9, "channel": 0}, {"type": "note_off", "time": 45, "note": 61, "velocity": 9, "channel": 0}, {"type": "note_on", "time": 2, "note": 58, "velocity": 9, "channel": 0}, {"type": "note_off", "time": 24, "note": 58, "velocity": 9, "channel": 0}, {"type": "note_on", "time": 9, "note": 56, "velocity": 9, "channel": 0}, {"type": "note_off", "time": 58, "note": 56, "velocity": 9, "channel": 0}, {"type": "note_on", "time": 21, "note": 65, "velocity": 9, "channel": 0}, {"type": "note_off", "time": 43, "note": 65, "velocity": 9, "channel": 0}, {"type": "note_on", "time": 6, "note": 61, "velocity": 9, "channel": 0}, {"type": "note_off", "time": 42, "note": 61, "velocity": 9, "channel": 0}, {"type": "note_on", "time": 1, "note": 58, "velocity": 9, "channel": 0}, {"type": "note_off", "time": 40, "note": 58, "velocity": 9, "channel": 0}, {"type": "note_on", "time": 0, "note": 55, "velocity": 9, "channel": 0}, {"type": "note_off", "time": 37, "note": 55, "velocity": 9, "channel": 0}, {"type": "note_on", "time": 12, "note": 56, "velocity": 9, "channel": 0}, {"type": "note_off", "time": 48, "note": 56, "velocity": 9, "channel": 0}, {"type": "note_on", "time": 7, "note": 61, "velocity": 9, "channel": 0}, {"type": "note_off", "time": 47, "note": 61, "velocity": 9, "channel": 0}, {"type": "note_on", "time": 0, "note": 59, "velocity": 9, "channel": 0}, {"type": "note_off", "time": 44, "note": 59, "velocity": 9, "channel": 0}, {"type": "note_on", "time": 6, "note": 57, "velocity": 9, "channel": 0}, {"type": "note_off", "time": 42, "note": 57, "velocity": 9, "channel": 0}, {"type": "note_on", "time": 2, "note": 55, "velocity": 9, "channel": 0}, {"type": "note_off", "time": 35, "note": 55, "velocity": 9, "channel": 0}, {"type": "note_on", "time": 5, "note": 57, "velocity": 9, "channel": 0}, {"type": "note_off", "time": 31, "note": 57, "velocity": 9, "channel": 0}, {"type": "note_on", "time": 4, "note": 59, "velocity": 9, "channel": 0}, {"type": "note_off", "time": 45, "note": 59, "velocity": 9, "channel": 0}, {"type": "note_on", "time": 8, "note": 61, "velocity": 9, "channel": 0}, {"type": "note_off", "time": 49, "note": 61, "velocity": 9, "channel": 0}, {"type": "note_on", "time": 17, "note": 68, "velocity": 9, "channel": 0}, {"type": "note_off", "time": 34, "note": 68, "velocity": 9, "channel": 0}, {"type": "note_on", "time": 7, "note": 66, "velocity": 98, "channel": 0}, {"type": "note_off", "time": 49, "note": 66, "velocity": 98, "channel": 0}, {"type": "note_on", "time": 3, "note": 65, "velocity": 98, "channel": 0}, {"type": "note_off", "time": 49, "note": 65, "velocity": 98, "channel": 0}, {"type": "note_on", "time": 10, "note": 64, "velocity": 112, "channel": 0}, {"type": "note_off", "time": 46, "note": 64, "velocity": 112, "channel": 0}, {"type": "note_on", "time": 4, "note": 63, "velocity": 109, "channel": 0}, {"type": "note_off", "time": 40, "note": 63, "velocity": 109, "channel": 0}, {"type": "note_on", "time": 7, "note": 65, "velocity": 101, "channel": 0}, {"type": "note_off", "time": 26, "note": 65, "velocity": 101, "channel": 0}, {"type": "note_on", "time": 7, "note": 68, "velocity": 98, "channel": 0}, {"type": "note_off", "time": 37, "note": 68, "velocity": 98, "channel": 0}, {"type": "note_on", "time": 0, "note": 72, "velocity": 84, "channel": 0}, {"type": "note_off", "time": 31, "note": 72, "velocity": 84, "channel": 0}, {"type": "note_on", "time": 1, "note": 75, "velocity": 94, "channel": 0}, {"type": "note_off", "time": 42, "note": 75, "velocity": 94, "channel": 0}, {"type": "note_on", "time": 1, "note": 79, "velocity": 99, "channel": 0}, {"type": "note_off", "time": 318, "note": 79, "velocity": 99, "channel": 0}, {"type": "note_on", "time": 67, "note": 77, "velocity": 94, "channel": 0}, {"type": "note_off", "time": 37, "note": 77, "velocity": 94, "channel": 0}, {"type": "note_on", "time": 54, "note": 73, "velocity": 100, "channel": 0}, {"type": "note_off", "time": 106, "note": 73, "velocity": 100, "channel": 0}, {"type": "note_on", "time": 14, "note": 71, "velocity": 104, "channel": 0}, {"type": "note_off", "time": 93, "note": 71, "velocity": 104, "channel": 0}, {"type": "note_on", "time": 62, "note": 67, "velocity": 100, "channel": 0}, {"type": "note_off", "time": 118, "note": 67, "velocity": 100, "channel": 0}, {"type": "note_on", "time": 1, "note": 65, "velocity": 9, "channel": 0}, {"type": "note_off", "time": 84, "note": 65, "velocity": 9, "channel": 0}, {"type": "note_on", "time": 67, "note": 61, "velocity": 9, "channel": 0}, {"type": "note_off", "time": 109, "note": 61, "velocity": 9, "channel": 0}, {"type": "note_on", "time": 7, "note": 59, "velocity": 9, "channel": 0}, {"type": "note_off", "time": 93, "note": 59, "velocity": 9, "channel": 0}, {"type": "note_on", "time": 56, "note": 55, "velocity": 9, "channel": 0}, {"type": "note_off", "time": 152, "note": 55, "velocity": 9, "channel": 0}, {"type": "note_on", "time": 389, "note": 68, "velocity": 9, "channel": 0}, {"type": "note_off", "time": 48, "note": 68, "velocity": 9, "channel": 0}, {"type": "note_on", "time": 4, "note": 68, "velocity": 9, "channel": 0}, {"type": "note_off", "time": 46, "note": 68, "velocity": 9, "channel": 0}, {"type": "note_on", "time": 4, "note": 67, "velocity": 9, "channel": 0}, {"type": "note_off", "time": 85, "note": 67, "velocity": 9, "channel": 0}, {"type": "note_on", "time": 9, "note": 68, "velocity": 9, "channel": 0}, {"type": "note_off", "time": 48, "note": 68, "velocity": 9, "channel": 0}, {"type": "note_on", "time": 9, "note": 68, "velocity": 9, "channel": 0}, {"type": "note_off", "time": 46, "note": 68, "velocity": 9, "channel": 0}, {"type": "note_on", "time": 0, "note": 67, "velocity": 9, "channel": 0}, {"type": "note_off", "time": 96, "note": 67, "velocity": 9, "channel": 0}, {"type": "note_on", "time": 3, "note": 68, "velocity": 9, "channel": 0}, {"type": "note_off", "time": 39, "note": 68, "velocity": 9, "channel": 0}, {"type": "note_on", "time": 2, "note": 68, "velocity": 9, "channel": 0}, {"type": "note_off", "time": 39, "note": 68, "velocity": 9, "channel": 0}, {"type": "note_on", "time": 11, "note": 67, "velocity": 9, "channel": 0}, {"type": "note_off", "time": 93, "note": 67, "velocity": 9, "channel": 0}, {"type": "note_on", "time": 15, "note": 68, "velocity": 9, "channel": 0}, {"type": "note_off", "time": 43, "note": 68, "velocity": 9, "channel": 0}, {"type": "note_on", "time": 4, "note": 67, "velocity": 9, "channel": 0}, {"type": "note_off", "time": 42, "note": 67, "velocity": 9, "channel": 0}, {"type": "note_on", "time": 3, "note": 67, "velocity": 9, "channel": 0}, {"type": "note_off", "time": 93, "note": 67, "velocity": 9, "channel": 0}, {"type": "note_on", "time": 1, "note": 68, "velocity": 9, "channel": 0}, {"type": "note_off", "time": 35, "note": 68, "velocity": 9, "channel": 0}, {"type": "note_on", "time": 10, "note": 67, "velocity": 9, "channel": 0}, {"type": "note_off", "time": 37, "note": 67, "velocity": 9, "channel": 0}, {"type": "note_on", "time": 4, "note": 67, "velocity": 9, "channel": 0}, {"type": "note_off", "time": 88, "note": 67, "velocity": 9, "channel": 0}, {"type": "note_on", "time": 6, "note": 68, "velocity": 94, "channel": 0}, {"type": "note_off", "time": 53, "note": 68, "velocity": 94, "channel": 0}, {"type": "note_on", "time": 4, "note": 67, "velocity": 100, "channel": 0}, {"type": "note_off", "time": 37, "note": 67, "velocity": 100, "channel": 0}, {"type": "note_on", "time": 0, "note": 67, "velocity": 98, "channel": 0}, {"type": "note_off", "time": 109, "note": 67, "velocity": 98, "channel": 0}, {"type": "note_on", "time": 4, "note": 68, "velocity": 98, "channel": 0}, {"type": "note_off", "time": 40, "note": 68, "velocity": 98, "channel": 0}, {"type": "note_on", "time": 1, "note": 67, "velocity": 99, "channel": 0}, {"type": "note_off", "time": 99, "note": 67, "velocity": 99, "channel": 0}, {"type": "note_on", "time": 7, "note": 68, "velocity": 95, "channel": 0}, {"type": "note_off", "time": 40, "note": 68, "velocity": 95, "channel": 0}, {"type": "note_on", "time": 7, "note": 70, "velocity": 97, "channel": 0}, {"type": "note_off", "time": 28, "note": 70, "velocity": 97, "channel": 0}, {"type": "note_on", "time": 12, "note": 70, "velocity": 97, "channel": 0}, {"type": "note_off", "time": 60, "note": 70, "velocity": 97, "channel": 0}, {"type": "note_on", "time": 14, "note": 68, "velocity": 96, "channel": 0}, {"type": "note_off", "time": 60, "note": 68, "velocity": 96, "channel": 0}, {"type": "note_on", "time": 1, "note": 70, "velocity": 96, "channel": 0}, {"type": "note_off", "time": 26, "note": 70, "velocity": 96, "channel": 0}, {"type": "note_on", "time": 14, "note": 70, "velocity": 95, "channel": 0}, {"type": "note_off", "time": 42, "note": 70, "velocity": 95, "channel": 0}, {"type": "note_on", "time": 4, "note": 68, "velocity": 93, "channel": 0}, {"type": "note_off", "time": 63, "note": 68, "velocity": 93, "channel": 0}, {"type": "note_on", "time": 0, "note": 70, "velocity": 92, "channel": 0}, {"type": "note_off", "time": 39, "note": 70, "velocity": 92, "channel": 0}, {"type": "note_on", "time": 12, "note": 70, "velocity": 98, "channel": 0}, {"type": "note_off", "time": 78, "note": 70, "velocity": 98, "channel": 0}, {"type": "note_on", "time": 3, "note": 68, "velocity": 95, "channel": 0}, {"type": "note_off", "time": 51, "note": 68, "velocity": 95, "channel": 0}, {"type": "note_on", "time": 12, "note": 69, "velocity": 92, "channel": 0}, {"type": "note_off", "time": 32, "note": 69, "velocity": 92, "channel": 0}, {"type": "note_on", "time": 6, "note": 70, "velocity": 97, "channel": 0}, {"type": "note_off", "time": 51, "note": 70, "velocity": 97, "channel": 0}, {"type": "note_on", "time": 3, "note": 70, "velocity": 98, "channel": 0}, {"type": "note_off", "time": 40, "note": 70, "velocity": 98, "channel": 0}, {"type": "note_on", "time": 7, "note": 68, "velocity": 99, "channel": 0}, {"type": "note_off", "time": 63, "note": 68, "velocity": 99, "channel": 0}, {"type": "note_on", "time": 9, "note": 70, "velocity": 94, "channel": 0}, {"type": "note_off", "time": 46, "note": 70, "velocity": 94, "channel": 0}, {"type": "note_on", "time": 8, "note": 70, "velocity": 83, "channel": 0}, {"type": "note_off", "time": 59, "note": 70, "velocity": 83, "channel": 0}, {"type": "note_on", "time": 0, "note": 68, "velocity": 95, "channel": 0}, {"type": "note_off", "time": 28, "note": 68, "velocity": 95, "channel": 0}, {"type": "note_on", "time": 7, "note": 70, "velocity": 97, "channel": 0}, {"type": "note_off", "time": 40, "note": 70, "velocity": 97, "channel": 0}, {"type": "note_on", "time": 5, "note": 72, "velocity": 98, "channel": 0}, {"type": "note_off", "time": 49, "note": 72, "velocity": 98, "channel": 0}, {"type": "note_on", "time": 12, "note": 72, "velocity": 94, "channel": 0}, {"type": "note_off", "time": 50, "note": 72, "velocity": 94, "channel": 0}, {"type": "note_on", "time": 1, "note": 68, "velocity": 96, "channel": 0}, {"type": "note_off", "time": 35, "note": 68, "velocity": 96, "channel": 0}, {"type": "note_on", "time": 3, "note": 70, "velocity": 97, "channel": 0}, {"type": "note_off", "time": 42, "note": 70, "velocity": 97, "channel": 0}, {"type": "note_on", "time": 5, "note": 72, "velocity": 100, "channel": 0}, {"type": "note_off", "time": 41, "note": 72, "velocity": 100, "channel": 0}, {"type": "note_on", "time": 4, "note": 72, "velocity": 102, "channel": 0}, {"type": "note_off", "time": 34, "note": 72, "velocity": 102, "channel": 0}, {"type": "note_on", "time": 7, "note": 68, "velocity": 95, "channel": 0}, {"type": "note_off", "time": 42, "note": 68, "velocity": 95, "channel": 0}, {"type": "note_on", "time": 14, "note": 70, "velocity": 96, "channel": 0}, {"type": "note_off", "time": 36, "note": 70, "velocity": 96, "channel": 0}, {"type": "note_on", "time": 5, "note": 72, "velocity": 92, "channel": 0}, {"type": "note_off", "time": 32, "note": 72, "velocity": 92, "channel": 0}, {"type": "note_on", "time": 5, "note": 70, "velocity": 96, "channel": 0}, {"type": "note_off", "time": 42, "note": 70, "velocity": 96, "channel": 0}, {"type": "note_on", "time": 69, "note": 70, "velocity": 95, "channel": 0}, {"type": "note_off", "time": 30, "note": 70, "velocity": 95, "channel": 0}, {"type": "note_on", "time": 4, "note": 68, "velocity": 101, "channel": 0}, {"type": "note_off", "time": 46, "note": 68, "velocity": 101, "channel": 0}, {"type": "note_on", "time": 3, "note": 67, "velocity": 99, "channel": 0}, {"type": "note_off", "time": 38, "note": 67, "velocity": 99, "channel": 0}, {"type": "note_on", "time": 447, "note": 45, "velocity": 9, "channel": 0}, {"type": "note_off", "time": 42, "note": 45, "velocity": 9, "channel": 0}, {"type": "note_on", "time": 3, "note": 51, "velocity": 9, "channel": 0}, {"type": "note_off", "time": 48, "note": 51, "velocity": 9, "channel": 0}, {"type": "note_on", "time": 18, "note": 56, "velocity": 9, "channel": 0}, {"type": "note_off", "time": 23, "note": 56, "velocity": 9, "channel": 0}, {"type": "note_on", "time": 1, "note": 51, "velocity": 9, "channel": 0}, {"type": "note_off", "time": 40, "note": 51, "velocity": 9, "channel": 0}, {"type": "note_on", "time": 0, "note": 53, "velocity": 9, "channel": 0}, {"type": "note_off", "time": 48, "note": 53, "velocity": 9, "channel": 0}, {"type": "note_on", "time": 7, "note": 56, "velocity": 9, "channel": 0}, {"type": "note_off", "time": 42, "note": 56, "velocity": 9, "channel": 0}, {"type": "note_on", "time": 3, "note": 62, "velocity": 9, "channel": 0}, {"type": "note_off", "time": 53, "note": 62, "velocity": 9, "channel": 0}, {"type": "note_on", "time": 3, "note": 59, "velocity": 9, "channel": 0}, {"type": "note_off", "time": 29, "note": 59, "velocity": 9, "channel": 0}, {"type": "note_on", "time": 3, "note": 62, "velocity": 9, "channel": 0}, {"type": "note_off", "time": 41, "note": 62, "velocity": 9, "channel": 0}, {"type": "note_on", "time": 7, "note": 65, "velocity": 9, "channel": 0}, {"type": "note_off", "time": 46, "note": 65, "velocity": 9, "channel": 0}, {"type": "note_on", "time": 1, "note": 68, "velocity": 9, "channel": 0}, {"type": "note_off", "time": 65, "note": 68, "velocity": 9, "channel": 0}, {"type": "note_on", "time": 3, "note": 67, "velocity": 9, "channel": 0}, {"type": "note_off", "time": 39, "note": 67, "velocity": 9, "channel": 0}, {"type": "note_on", "time": 4, "note": 68, "velocity": 9, "channel": 0}, {"type": "note_off", "time": 34, "note": 68, "velocity": 9, "channel": 0}, {"type": "note_on", "time": 3, "note": 69, "velocity": 9, "channel": 0}, {"type": "note_off", "time": 35, "note": 69, "velocity": 9, "channel": 0}, {"type": "note_on", "time": 0, "note": 63, "velocity": 9, "channel": 0}, {"type": "note_off", "time": 19, "note": 63, "velocity": 9, "channel": 0}, {"type": "note_on", "time": 3, "note": 60, "velocity": 9, "channel": 0}, {"type": "note_off", "time": 29, "note": 60, "velocity": 9, "channel": 0}, {"type": "note_on", "time": 6, "note": 65, "velocity": 9, "channel": 0}, {"type": "note_off", "time": 47, "note": 65, "velocity": 9, "channel": 0}, {"type": "note_on", "time": 2, "note": 64, "velocity": 106, "channel": 0}, {"type": "note_off", "time": 47, "note": 64, "velocity": 106, "channel": 0}, {"type": "note_on", "time": 4, "note": 63, "velocity": 109, "channel": 0}, {"type": "note_off", "time": 47, "note": 63, "velocity": 109, "channel": 0}, {"type": "note_on", "time": 2, "note": 67, "velocity": 97, "channel": 0}, {"type": "note_off", "time": 52, "note": 67, "velocity": 97, "channel": 0}, {"type": "note_on", "time": 7, "note": 65, "velocity": 103, "channel": 0}, {"type": "note_off", "time": 36, "note": 65, "velocity": 103, "channel": 0}, {"type": "note_on", "time": 2, "note": 63, "velocity": 108, "channel": 0}, {"type": "note_off", "time": 40, "note": 63, "velocity": 108, "channel": 0}, {"type": "note_on", "time": 3, "note": 62, "velocity": 105, "channel": 0}, {"type": "note_off", "time": 38, "note": 62, "velocity": 105, "channel": 0}, {"type": "note_on", "time": 9, "note": 60, "velocity": 102, "channel": 0}, {"type": "note_off", "time": 38, "note": 60, "velocity": 102, "channel": 0}, {"type": "note_on", "time": 2, "note": 58, "velocity": 97, "channel": 0}, {"type": "note_off", "time": 39, "note": 58, "velocity": 97, "channel": 0}, {"type": "note_on", "time": 14, "note": 53, "velocity": 97, "channel": 0}, {"type": "note_off", "time": 48, "note": 53, "velocity": 97, "channel": 0}, {"type": "note_on", "time": 0, "note": 56, "velocity": 102, "channel": 0}, {"type": "note_off", "time": 53, "note": 56, "velocity": 102, "channel": 0}, {"type": "note_on", "time": 2, "note": 61, "velocity": 104, "channel": 0}, {"type": "note_off", "time": 43, "note": 61, "velocity": 104, "channel": 0}, {"type": "note_on", "time": 4, "note": 59, "velocity": 97, "channel": 0}, {"type": "note_off", "time": 55, "note": 59, "velocity": 97, "channel": 0}, {"type": "note_on", "time": 0, "note": 61, "velocity": 103, "channel": 0}, {"type": "note_off", "time": 35, "note": 61, "velocity": 103, "channel": 0}, {"type": "note_on", "time": 5, "note": 65, "velocity": 101, "channel": 0}, {"type": "note_off", "time": 44, "note": 65, "velocity": 101, "channel": 0}, {"type": "note_on", "time": 4, "note": 68, "velocity": 100, "channel": 0}, {"type": "note_off", "time": 46, "note": 68, "velocity": 100, "channel": 0}, {"type": "note_on", "time": 4, "note": 68, "velocity": 103, "channel": 0}, {"type": "note_off", "time": 40, "note": 68, "velocity": 103, "channel": 0}, {"type": "note_on", "time": 10, "note": 72, "velocity": 95, "channel": 0}, {"type": "note_off", "time": 31, "note": 72, "velocity": 95, "channel": 0}, {"type": "note_on", "time": 11, "note": 68, "velocity": 90, "channel": 0}, {"type": "note_off", "time": 36, "note": 68, "velocity": 90, "channel": 0}, {"type": "note_on", "time": 6, "note": 71, "velocity": 90, "channel": 0}, {"type": "note_off", "time": 34, "note": 71, "velocity": 90, "channel": 0}, {"type": "note_on", "time": 0, "note": 73, "velocity": 94, "channel": 0}, {"type": "note_off", "time": 56, "note": 73, "velocity": 94, "channel": 0}, {"type": "note_on", "time": 6, "note": 73, "velocity": 94, "channel": 0}, {"type": "note_off", "time": 39, "note": 73, "velocity": 94, "channel": 0}, {"type": "note_on", "time": 7, "note": 71, "velocity": 81, "channel": 0}, {"type": "note_off", "time": 29, "note": 71, "velocity": 81, "channel": 0}, {"type": "note_on", "time": 3, "note": 73, "velocity": 88, "channel": 0}, {"type": "note_off", "time": 43, "note": 73, "velocity": 88, "channel": 0}, {"type": "note_on", "time": 7, "note": 70, "velocity": 98, "channel": 0}, {"type": "note_off", "time": 50, "note": 70, "velocity": 98, "channel": 0}, {"type": "note_on", "time": 3, "note": 66, "velocity": 97, "channel": 0}, {"type": "note_off", "time": 41, "note": 66, "velocity": 97, "channel": 0}, {"type": "note_on", "time": 5, "note": 61, "velocity": 102, "channel": 0}, {"type": "note_off", "time": 35, "note": 61, "velocity": 102, "channel": 0}, {"type": "note_on", "time": 18, "note": 59, "velocity": 100, "channel": 0}, {"type": "note_off", "time": 38, "note": 59, "velocity": 100, "channel": 0}, {"type": "note_on", "time": 0, "note": 65, "velocity": 103, "channel": 0}, {"type": "note_off", "time": 41, "note": 65, "velocity": 103, "channel": 0}, {"type": "note_on", "time": 8, "note": 64, "velocity": 110, "channel": 0}, {"type": "note_off", "time": 37, "note": 64, "velocity": 110, "channel": 0}, {"type": "note_on", "time": 9, "note": 63, "velocity": 107, "channel": 0}, {"type": "note_off", "time": 43, "note": 63, "velocity": 107, "channel": 0}, {"type": "note_on", "time": 4, "note": 67, "velocity": 100, "channel": 0}, {"type": "note_off", "time": 43, "note": 67, "velocity": 100, "channel": 0}, {"type": "note_on", "time": 1, "note": 65, "velocity": 98, "channel": 0}, {"type": "note_off", "time": 47, "note": 65, "velocity": 98, "channel": 0}, {"type": "note_on", "time": 5, "note": 63, "velocity": 108, "channel": 0}, {"type": "note_off", "time": 47, "note": 63, "velocity": 108, "channel": 0}, {"type": "note_on", "time": 2, "note": 62, "velocity": 106, "channel": 0}, {"type": "note_off", "time": 41, "note": 62, "velocity": 106, "channel": 0}, {"type": "note_on", "time": 5, "note": 60, "velocity": 99, "channel": 0}, {"type": "note_off", "time": 38, "note": 60, "velocity": 99, "channel": 0}, {"type": "note_on", "time": 25, "note": 59, "velocity": 98, "channel": 0}, {"type": "note_off", "time": 36, "note": 59, "velocity": 98, "channel": 0}, {"type": "note_on", "time": 1, "note": 60, "velocity": 102, "channel": 0}, {"type": "note_off", "time": 35, "note": 60, "velocity": 102, "channel": 0}, {"type": "note_on", "time": 4, "note": 63, "velocity": 99, "channel": 0}, {"type": "note_off", "time": 37, "note": 63, "velocity": 99, "channel": 0}, {"type": "note_on", "time": 0, "note": 67, "velocity": 93, "channel": 0}, {"type": "note_off", "time": 30, "note": 67, "velocity": 93, "channel": 0}, {"type": "note_on", "time": 0, "note": 71, "velocity": 91, "channel": 0}, {"type": "note_off", "time": 23, "note": 71, "velocity": 91, "channel": 0}, {"type": "note_on", "time": 1, "note": 75, "velocity": 99, "channel": 0}, {"type": "note_off", "time": 35, "note": 75, "velocity": 99, "channel": 0}, {"type": "note_on", "time": 6, "note": 79, "velocity": 94, "channel": 0}, {"type": "note_off", "time": 82, "note": 79, "velocity": 94, "channel": 0}, {"type": "note_on", "time": 412, "note": 77, "velocity": 97, "channel": 0}, {"type": "note_off", "time": 31, "note": 77, "velocity": 97, "channel": 0}, {"type": "note_on", "time": 2, "note": 79, "velocity": 107, "channel": 0}, {"type": "note_off", "time": 121, "note": 79, "velocity": 107, "channel": 0}, {"type": "note_on", "time": 7, "note": 79, "velocity": 96, "channel": 0}, {"type": "note_off", "time": 96, "note": 79, "velocity": 96, "channel": 0}, {"type": "note_on", "time": 12, "note": 79, "velocity": 105, "channel": 0}, {"type": "note_off", "time": 218, "note": 79, "velocity": 105, "channel": 0}, {"type": "note_on", "time": 245, "note": 77, "velocity": 102, "channel": 0}, {"type": "note_off", "time": 44, "note": 77, "velocity": 102, "channel": 0}, {"type": "note_on", "time": 4, "note": 79, "velocity": 106, "channel": 0}, {"type": "note_off", "time": 125, "note": 79, "velocity": 106, "channel": 0}, {"type": "note_on", "time": 7, "note": 79, "velocity": 107, "channel": 0}, {"type": "note_off", "time": 93, "note": 79, "velocity": 107, "channel": 0}, {"type": "note_on", "time": 10, "note": 79, "velocity": 108, "channel": 0}, {"type": "note_off", "time": 86, "note": 79, "velocity": 108, "channel": 0}, {"type": "note_on", "time": 15, "note": 76, "velocity": 112, "channel": 0}, {"type": "note_off", "time": 45, "note": 76, "velocity": 112, "channel": 0}, {"type": "note_on", "time": 4, "note": 72, "velocity": 95, "channel": 0}, {"type": "note_off", "time": 163, "note": 72, "velocity": 95, "channel": 0}, {"type": "note_on", "time": 162, "note": 77, "velocity": 100, "channel": 0}, {"type": "note_off", "time": 15, "note": 77, "velocity": 100, "channel": 0}, {"type": "note_on", "time": 5, "note": 79, "velocity": 107, "channel": 0}, {"type": "note_off", "time": 167, "note": 79, "velocity": 107, "channel": 0}, {"type": "note_on", "time": 5, "note": 79, "velocity": 106, "channel": 0}, {"type": "note_off", "time": 94, "note": 79, "velocity": 106, "channel": 0}, {"type": "note_on", "time": 7, "note": 79, "velocity": 106, "channel": 0}, {"type": "note_off", "time": 93, "note": 79, "velocity": 106, "channel": 0}, {"type": "note_on", "time": 6, "note": 75, "velocity": 101, "channel": 0}, {"type": "note_off", "time": 91, "note": 75, "velocity": 101, "channel": 0}, {"type": "note_on", "time": 8, "note": 72, "velocity": 97, "channel": 0}, {"type": "note_off", "time": 74, "note": 72, "velocity": 97, "channel": 0}, {"type": "note_on", "time": 15, "note": 68, "velocity": 107, "channel": 0}, {"type": "note_off", "time": 61, "note": 68, "velocity": 107, "channel": 0}, {"type": "note_on", "time": 0, "note": 67, "velocity": 104, "channel": 0}, {"type": "note_off", "time": 88, "note": 67, "velocity": 104, "channel": 0}, {"type": "note_on", "time": 8, "note": 65, "velocity": 104, "channel": 0}, {"type": "note_off", "time": 57, "note": 65, "velocity": 104, "channel": 0}, {"type": "note_on", "time": 9, "note": 64, "velocity": 101, "channel": 0}, {"type": "note_off", "time": 28, "note": 64, "velocity": 101, "channel": 0}, {"type": "note_on", "time": 25, "note": 69, "velocity": 105, "channel": 0}, {"type": "note_off", "time": 39, "note": 69, "velocity": 105, "channel": 0}, {"type": "note_on", "time": 7, "note": 69, "velocity": 97, "channel": 0}, {"type": "note_off", "time": 43, "note": 69, "velocity": 97, "channel": 0}, {"type": "note_on", "time": 6, "note": 68, "velocity": 99, "channel": 0}, {"type": "note_off", "time": 39, "note": 68, "velocity": 99, "channel": 0}, {"type": "note_on", "time": 6, "note": 67, "velocity": 99, "channel": 0}, {"type": "note_off", "time": 43, "note": 67, "velocity": 99, "channel": 0}, {"type": "note_on", "time": 8, "note": 66, "velocity": 100, "channel": 0}, {"type": "note_off", "time": 44, "note": 66, "velocity": 100, "channel": 0}, {"type": "note_on", "time": 9, "note": 67, "velocity": 92, "channel": 0}, {"type": "note_off", "time": 40, "note": 67, "velocity": 92, "channel": 0}, {"type": "note_on", "time": 1, "note": 68, "velocity": 95, "channel": 0}, {"type": "note_off", "time": 54, "note": 68, "velocity": 95, "channel": 0}, {"type": "note_on", "time": 0, "note": 66, "velocity": 95, "channel": 0}, {"type": "note_off", "time": 49, "note": 66, "velocity": 95, "channel": 0}, {"type": "note_on", "time": 6, "note": 67, "velocity": 100, "channel": 0}, {"type": "note_off", "time": 41, "note": 67, "velocity": 100, "channel": 0}, {"type": "note_on", "time": 5, "note": 66, "velocity": 100, "channel": 0}, {"type": "note_off", "time": 49, "note": 66, "velocity": 100, "channel": 0}, {"type": "note_on", "time": 4, "note": 65, "velocity": 101, "channel": 0}, {"type": "note_off", "time": 41, "note": 65, "velocity": 101, "channel": 0}, {"type": "note_on", "time": 0, "note": 64, "velocity": 104, "channel": 0}, {"type": "note_off", "time": 51, "note": 64, "velocity": 104, "channel": 0}, {"type": "note_on", "time": 4, "note": 63, "velocity": 9, "channel": 0}, {"type": "note_off", "time": 41, "note": 63, "velocity": 9, "channel": 0}, {"type": "note_on", "time": 4, "note": 65, "velocity": 9, "channel": 0}, {"type": "note_off", "time": 41, "note": 65, "velocity": 9, "channel": 0}, {"type": "note_on", "time": 6, "note": 67, "velocity": 9, "channel": 0}, {"type": "note_off", "time": 35, "note": 67, "velocity": 9, "channel": 0}, {"type": "note_on", "time": 0, "note": 64, "velocity": 9, "channel": 0}, {"type": "note_off", "time": 35, "note": 64, "velocity": 9, "channel": 0}, {"type": "note_on", "time": 8, "note": 65, "velocity": 9, "channel": 0}, {"type": "note_off", "time": 29, "note": 65, "velocity": 9, "channel": 0}, {"type": "note_on", "time": 2, "note": 64, "velocity": 9, "channel": 0}, {"type": "note_off", "time": 58, "note": 64, "velocity": 9, "channel": 0}, {"type": "note_on", "time": 5, "note": 63, "velocity": 9, "channel": 0}, {"type": "note_off", "time": 28, "note": 63, "velocity": 9, "channel": 0}, {"type": "note_on", "time": 12, "note": 65, "velocity": 9, "channel": 0}, {"type": "note_off", "time": 20, "note": 65, "velocity": 9, "channel": 0}, {"type": "note_on", "time": 9, "note": 67, "velocity": 9, "channel": 0}, {"type": "note_off", "time": 28, "note": 67, "velocity": 9, "channel": 0}, {"type": "note_on", "time": 2, "note": 65, "velocity": 9, "channel": 0}, {"type": "note_off", "time": 49, "note": 65, "velocity": 9, "channel": 0}, {"type": "note_on", "time": 3, "note": 63, "velocity": 9, "channel": 0}, {"type": "note_off", "time": 34, "note": 63, "velocity": 9, "channel": 0}, {"type": "note_on", "time": 3, "note": 62, "velocity": 9, "channel": 0}, {"type": "note_off", "time": 35, "note": 62, "velocity": 9, "channel": 0}, {"type": "note_on", "time": 14, "note": 60, "velocity": 9, "channel": 0}, {"type": "note_off", "time": 46, "note": 60, "velocity": 9, "channel": 0}, {"type": "note_on", "time": 3, "note": 59, "velocity": 9, "channel": 0}, {"type": "note_off", "time": 34, "note": 59, "velocity": 9, "channel": 0}, {"type": "note_on", "time": 19, "note": 54, "velocity": 9, "channel": 0}, {"type": "note_off", "time": 36, "note": 54, "velocity": 9, "channel": 0}, {"type": "note_on", "time": 21, "note": 56, "velocity": 9, "channel": 0}, {"type": "note_off", "time": 37, "note": 56, "velocity": 9, "channel": 0}, {"type": "note_on", "time": 6, "note": 65, "velocity": 9, "channel": 0}, {"type": "note_off", "time": 31, "note": 65, "velocity": 9, "channel": 0}, {"type": "note_on", "time": 3, "note": 59, "velocity": 9, "channel": 0}, {"type": "note_off", "time": 52, "note": 59, "velocity": 9, "channel": 0}, {"type": "note_on", "time": 13, "note": 60, "velocity": 9, "channel": 0}, {"type": "note_on", "time": 34, "note": 66, "velocity": 9, "channel": 0}, {"type": "note_off", "time": 0, "note": 60, "velocity": 9, "channel": 0}, {"type": "note_off", "time": 42, "note": 66, "velocity": 9, "channel": 0}, {"type": "note_on", "time": 4, "note": 68, "velocity": 9, "channel": 0}, {"type": "note_off", "time": 48, "note": 68, "velocity": 9, "channel": 0}, {"type": "note_on", "time": 7, "note": 67, "velocity": 9, "channel": 0}, {"type": "note_off", "time": 19, "note": 67, "velocity": 9, "channel": 0}, {"type": "note_on", "time": 7, "note": 69, "velocity": 9, "channel": 0}, {"type": "note_off", "time": 34, "note": 69, "velocity": 9, "channel": 0}, {"type": "note_on", "time": 5, "note": 65, "velocity": 93, "channel": 0}, {"type": "note_off", "time": 38, "note": 65, "velocity": 93, "channel": 0}, {"type": "note_on", "time": 1, "note": 66, "velocity": 97, "channel": 0}, {"type": "note_off", "time": 30, "note": 66, "velocity": 97, "channel": 0}, {"type": "note_on", "time": 2, "note": 67, "velocity": 95, "channel": 0}, {"type": "note_off", "time": 29, "note": 67, "velocity": 95, "channel": 0}, {"type": "note_on", "time": 20, "note": 65, "velocity": 106, "channel": 0}, {"type": "note_off", "time": 43, "note": 65, "velocity": 106, "channel": 0}, {"type": "note_on", "time": 7, "note": 62, "velocity": 85, "channel": 0}, {"type": "note_off", "time": 35, "note": 62, "velocity": 85, "channel": 0}, {"type": "note_on", "time": 0, "note": 59, "velocity": 9, "channel": 0}, {"type": "note_off", "time": 38, "note": 59, "velocity": 9, "channel": 0}, {"type": "note_on", "time": 0, "note": 55, "velocity": 9, "channel": 0}, {"type": "note_off", "time": 54, "note": 55, "velocity": 9, "channel": 0}, {"type": "note_on", "time": 7, "note": 57, "velocity": 9, "channel": 0}, {"type": "note_off", "time": 126, "note": 57, "velocity": 9, "channel": 0}, {"type": "note_on", "time": 488, "note": 55, "velocity": 9, "channel": 0}, {"type": "note_off", "time": 40, "note": 55, "velocity": 9, "channel": 0}, {"type": "note_on", "time": 4, "note": 56, "velocity": 9, "channel": 0}, {"type": "note_off", "time": 55, "note": 56, "velocity": 9, "channel": 0}, {"type": "note_on", "time": 6, "note": 62, "velocity": 9, "channel": 0}, {"type": "note_off", "time": 38, "note": 62, "velocity": 9, "channel": 0}, {"type": "note_on", "time": 5, "note": 59, "velocity": 9, "channel": 0}, {"type": "note_off", "time": 50, "note": 59, "velocity": 9, "channel": 0}, {"type": "note_on", "time": 2, "note": 62, "velocity": 9, "channel": 0}, {"type": "note_off", "time": 35, "note": 62, "velocity": 9, "channel": 0}, {"type": "note_on", "time": 3, "note": 65, "velocity": 9, "channel": 0}, {"type": "note_off", "time": 32, "note": 65, "velocity": 9, "channel": 0}, {"type": "note_on", "time": 4, "note": 68, "velocity": 9, "channel": 0}, {"type": "note_off", "time": 49, "note": 68, "velocity": 9, "channel": 0}, {"type": "note_on", "time": 8, "note": 67, "velocity": 9, "channel": 0}, {"type": "note_off", "time": 42, "note": 67, "velocity": 9, "channel": 0}, {"type": "note_on", "time": 7, "note": 68, "velocity": 9, "channel": 0}, {"type": "note_off", "time": 30, "note": 68, "velocity": 9, "channel": 0}, {"type": "note_on", "time": 7, "note": 69, "velocity": 9, "channel": 0}, {"type": "note_off", "time": 51, "note": 69, "velocity": 9, "channel": 0}, {"type": "note_on", "time": 38, "note": 65, "velocity": 9, "channel": 0}, {"type": "note_off", "time": 60, "note": 65, "velocity": 9, "channel": 0}, {"type": "note_on", "time": 7, "note": 67, "velocity": 9, "channel": 0}, {"type": "note_off", "time": 42, "note": 67, "velocity": 9, "channel": 0}, {"type": "note_on", "time": 275, "note": 66, "velocity": 9, "channel": 0}, {"type": "note_off", "time": 17, "note": 66, "velocity": 9, "channel": 0}, {"type": "note_on", "time": 9, "note": 67, "velocity": 9, "channel": 0}, {"type": "note_off", "time": 184, "note": 67, "velocity": 9, "channel": 0}, {"type": "note_on", "time": 9, "note": 63, "velocity": 9, "channel": 0}, {"type": "note_off", "time": 49, "note": 63, "velocity": 9, "channel": 0}, {"type": "note_on", "time": 3, "note": 65, "velocity": 9, "channel": 0}, {"type": "note_off", "time": 38, "note": 65, "velocity": 9, "channel": 0}, {"type": "note_on", "time": 2, "note": 67, "velocity": 9, "channel": 0}, {"type": "note_off", "time": 31, "note": 67, "velocity": 9, "channel": 0}, {"type": "note_on", "time": 10, "note": 67, "velocity": 9, "channel": 0}, {"type": "note_off", "time": 40, "note": 67, "velocity": 9, "channel": 0}, {"type": "note_on", "time": 14, "note": 63, "velocity": 9, "channel": 0}, {"type": "note_off", "time": 28, "note": 63, "velocity": 9, "channel": 0}, {"type": "note_on", "time": 12, "note": 65, "velocity": 9, "channel": 0}, {"type": "note_off", "time": 29, "note": 65, "velocity": 9, "channel": 0}, {"type": "note_on", "time": 5, "note": 67, "velocity": 9, "channel": 0}, {"type": "note_off", "time": 48, "note": 67, "velocity": 9, "channel": 0}, {"type": "note_on", "time": 2, "note": 67, "velocity": 9, "channel": 0}, {"type": "note_off", "time": 35, "note": 67, "velocity": 9, "channel": 0}, {"type": "note_on", "time": 1, "note": 65, "velocity": 9, "channel": 0}, {"type": "note_off", "time": 53, "note": 65, "velocity": 9, "channel": 0}, {"type": "note_on", "time": 1, "note": 67, "velocity": 9, "channel": 0}, {"type": "note_off", "time": 51, "note": 67, "velocity": 9, "channel": 0}, {"type": "note_on", "time": 1, "note": 68, "velocity": 9, "channel": 0}, {"type": "note_off", "time": 34, "note": 68, "velocity": 9, "channel": 0}, {"type": "note_on", "time": 2, "note": 67, "velocity": 9, "channel": 0}, {"type": "note_off", "time": 48, "note": 67, "velocity": 9, "channel": 0}, {"type": "note_on", "time": 11, "note": 72, "velocity": 9, "channel": 0}, {"type": "note_off", "time": 35, "note": 72, "velocity": 9, "channel": 0}, {"type": "note_on", "time": 11, "note": 67, "velocity": 9, "channel": 0}, {"type": "note_off", "time": 46, "note": 67, "velocity": 9, "channel": 0}, {"type": "note_on", "time": 6, "note": 68, "velocity": 9, "channel": 0}, {"type": "note_off", "time": 44, "note": 68, "velocity": 9, "channel": 0}, {"type": "note_on", "time": 2, "note": 67, "velocity": 9, "channel": 0}, {"type": "note_off", "time": 32, "note": 67, "velocity": 9, "channel": 0}, {"type": "note_on", "time": 2, "note": 65, "velocity": 9, "channel": 0}, {"type": "note_off", "time": 52, "note": 65, "velocity": 9, "channel": 0}, {"type": "note_on", "time": 12, "note": 67, "velocity": 9, "channel": 0}, {"type": "note_off", "time": 51, "note": 67, "velocity": 9, "channel": 0}, {"type": "note_on", "time": 5, "note": 68, "velocity": 9, "channel": 0}, {"type": "note_off", "time": 38, "note": 68, "velocity": 9, "channel": 0}, {"type": "note_on", "time": 2, "note": 67, "velocity": 9, "channel": 0}, {"type": "note_off", "time": 43, "note": 67, "velocity": 9, "channel": 0}, {"type": "note_on", "time": 0, "note": 65, "velocity": 9, "channel": 0}, {"type": "note_off", "time": 78, "note": 65, "velocity": 9, "channel": 0}, {"type": "note_on", "time": 340, "note": 53, "velocity": 121, "channel": 0}, {"type": "note_off", "time": 42, "note": 53, "velocity": 121, "channel": 0}, {"type": "note_on", "time": 0, "note": 56, "velocity": 120, "channel": 0}, {"type": "note_off", "time": 44, "note": 56, "velocity": 120, "channel": 0}, {"type": "note_on", "time": 18, "note": 58, "velocity": 127, "channel": 0}, {"type": "note_off", "time": 40, "note": 58, "velocity": 127, "channel": 0}, {"type": "note_on", "time": 7, "note": 59, "velocity": 9, "channel": 0}, {"type": "note_off", "time": 58, "note": 59, "velocity": 9, "channel": 0}, {"type": "note_on", "time": 27, "note": 65, "velocity": 9, "channel": 0}, {"type": "note_off", "time": 42, "note": 65, "velocity": 9, "channel": 0}, {"type": "note_on", "time": 9, "note": 68, "velocity": 9, "channel": 0}, {"type": "note_off", "time": 34, "note": 68, "velocity": 9, "channel": 0}, {"type": "note_on", "time": 18, "note": 64, "velocity": 9, "channel": 0}, {"type": "note_off", "time": 44, "note": 64, "velocity": 9, "channel": 0}, {"type": "note_on", "time": 4, "note": 65, "velocity": 9, "channel": 0}, {"type": "note_off", "time": 38, "note": 65, "velocity": 9, "channel": 0}, {"type": "note_on", "time": 14, "note": 67, "velocity": 9, "channel": 0}, {"type": "note_off", "time": 34, "note": 67, "velocity": 9, "channel": 0}, {"type": "note_on", "time": 13, "note": 64, "velocity": 9, "channel": 0}, {"type": "note_off", "time": 40, "note": 64, "velocity": 9, "channel": 0}, {"type": "note_on", "time": 4, "note": 65, "velocity": 9, "channel": 0}, {"type": "note_off", "time": 40, "note": 65, "velocity": 9, "channel": 0}, {"type": "note_on", "time": 7, "note": 67, "velocity": 9, "channel": 0}, {"type": "note_off", "time": 27, "note": 67, "velocity": 9, "channel": 0}, {"type": "note_on", "time": 1, "note": 68, "velocity": 9, "channel": 0}, {"type": "note_off", "time": 48, "note": 68, "velocity": 9, "channel": 0}, {"type": "note_on", "time": 16, "note": 70, "velocity": 9, "channel": 0}, {"type": "note_off", "time": 28, "note": 70, "velocity": 9, "channel": 0}, {"type": "note_on", "time": 3, "note": 72, "velocity": 9, "channel": 0}, {"type": "note_off", "time": 54, "note": 72, "velocity": 9, "channel": 0}, {"type": "note_on", "time": 14, "note": 68, "velocity": 9, "channel": 0}, {"type": "note_off", "time": 39, "note": 68, "velocity": 9, "channel": 0}, {"type": "note_on", "time": 4, "note": 67, "velocity": 9, "channel": 0}, {"type": "note_off", "time": 34, "note": 67, "velocity": 9, "channel": 0}, {"type": "note_on", "time": 0, "note": 70, "velocity": 9, "channel": 0}, {"type": "note_off", "time": 46, "note": 70, "velocity": 9, "channel": 0}, {"type": "note_on", "time": 6, "note": 68, "velocity": 9, "channel": 0}, {"type": "note_off", "time": 45, "note": 68, "velocity": 9, "channel": 0}, {"type": "note_on", "time": 14, "note": 65, "velocity": 9, "channel": 0}, {"type": "note_off", "time": 28, "note": 65, "velocity": 9, "channel": 0}, {"type": "note_on", "time": 7, "note": 67, "velocity": 9, "channel": 0}, {"type": "note_off", "time": 44, "note": 67, "velocity": 9, "channel": 0}, {"type": "note_on", "time": 1, "note": 66, "velocity": 9, "channel": 0}, {"type": "note_off", "time": 59, "note": 66, "velocity": 9, "channel": 0}, {"type": "note_on", "time": 0, "note": 65, "velocity": 9, "channel": 0}, {"type": "note_off", "time": 39, "note": 65, "velocity": 9, "channel": 0}, {"type": "note_on", "time": 7, "note": 64, "velocity": 9, "channel": 0}, {"type": "note_off", "time": 31, "note": 64, "velocity": 9, "channel": 0}, {"type": "note_on", "time": 4, "note": 63, "velocity": 9, "channel": 0}, {"type": "note_off", "time": 47, "note": 63, "velocity": 9, "channel": 0}, {"type": "note_on", "time": 10, "note": 62, "velocity": 9, "channel": 0}, {"type": "note_off", "time": 35, "note": 62, "velocity": 9, "channel": 0}, {"type": "note_on", "time": 3, "note": 60, "velocity": 9, "channel": 0}, {"type": "note_off", "time": 38, "note": 60, "velocity": 9, "channel": 0}, {"type": "note_on", "time": 4, "note": 62, "velocity": 9, "channel": 0}, {"type": "note_off", "time": 42, "note": 62, "velocity": 9, "channel": 0}, {"type": "note_on", "time": 2, "note": 63, "velocity": 9, "channel": 0}, {"type": "note_off", "time": 46, "note": 63, "velocity": 9, "channel": 0}, {"type": "note_on", "time": 2, "note": 65, "velocity": 9, "channel": 0}, {"type": "note_off", "time": 64, "note": 65, "velocity": 9, "channel": 0}, {"type": "note_on", "time": 0, "note": 62, "velocity": 9, "channel": 0}, {"type": "note_off", "time": 28, "note": 62, "velocity": 9, "channel": 0}, {"type": "note_on", "time": 6, "note": 60, "velocity": 9, "channel": 0}, {"type": "note_off", "time": 49, "note": 60, "velocity": 9, "channel": 0}, {"type": "note_on", "time": 1, "note": 56, "velocity": 9, "channel": 0}, {"type": "note_off", "time": 43, "note": 56, "velocity": 9, "channel": 0}, {"type": "note_on", "time": 8, "note": 53, "velocity": 9, "channel": 0}, {"type": "note_off", "time": 37, "note": 53, "velocity": 9, "channel": 0}, {"type": "note_on", "time": 8, "note": 58, "velocity": 9, "channel": 0}, {"type": "note_off", "time": 53, "note": 58, "velocity": 9, "channel": 0}, {"type": "note_on", "time": 3, "note": 53, "velocity": 9, "channel": 0}, {"type": "note_off", "time": 37, "note": 53, "velocity": 9, "channel": 0}, {"type": "note_on", "time": 5, "note": 46, "velocity": 9, "channel": 0}, {"type": "note_on", "time": 40, "note": 53, "velocity": 9, "channel": 0}, {"type": "note_off", "time": 0, "note": 46, "velocity": 9, "channel": 0}, {"type": "note_off", "time": 48, "note": 53, "velocity": 9, "channel": 0}, {"type": "note_on", "time": 1, "note": 50, "velocity": 9, "channel": 0}, {"type": "note_off", "time": 24, "note": 50, "velocity": 9, "channel": 0}, {"type": "note_on", "time": 0, "note": 46, "velocity": 9, "channel": 0}, {"type": "note_off", "time": 46, "note": 46, "velocity": 9, "channel": 0}, {"type": "note_on", "time": 13, "note": 45, "velocity": 9, "channel": 0}, {"type": "note_off", "time": 49, "note": 45, "velocity": 9, "channel": 0}, {"type": "note_on", "time": 6, "note": 44, "velocity": 9, "channel": 0}, {"type": "note_off", "time": 109, "note": 44, "velocity": 9, "channel": 0}, {"type": "note_on", "time": 361, "note": 67, "velocity": 9, "channel": 0}, {"type": "note_off", "time": 42, "note": 67, "velocity": 9, "channel": 0}, {"type": "note_on", "time": 1, "note": 69, "velocity": 9, "channel": 0}, {"type": "note_off", "time": 47, "note": 69, "velocity": 9, "channel": 0}, {"type": "note_on", "time": 8, "note": 71, "velocity": 9, "channel": 0}, {"type": "note_off", "time": 43, "note": 71, "velocity": 9, "channel": 0}, {"type": "note_on", "time": 6, "note": 67, "velocity": 9, "channel": 0}, {"type": "note_off", "time": 31, "note": 67, "velocity": 9, "channel": 0}, {"type": "note_on", "time": 3, "note": 69, "velocity": 9, "channel": 0}, {"type": "note_off", "time": 47, "note": 69, "velocity": 9, "channel": 0}, {"type": "note_on", "time": 2, "note": 65, "velocity": 9, "channel": 0}, {"type": "note_off", "time": 37, "note": 65, "velocity": 9, "channel": 0}, {"type": "note_on", "time": 7, "note": 64, "velocity": 9, "channel": 0}, {"type": "note_off", "time": 45, "note": 64, "velocity": 9, "channel": 0}, {"type": "note_on", "time": 4, "note": 62, "velocity": 9, "channel": 0}, {"type": "note_off", "time": 32, "note": 62, "velocity": 9, "channel": 0}, {"type": "note_on", "time": 6, "note": 67, "velocity": 9, "channel": 0}, {"type": "note_off", "time": 37, "note": 67, "velocity": 9, "channel": 0}, {"type": "note_on", "time": 4, "note": 66, "velocity": 9, "channel": 0}, {"type": "note_off", "time": 57, "note": 66, "velocity": 9, "channel": 0}, {"type": "note_on", "time": 6, "note": 65, "velocity": 9, "channel": 0}, {"type": "note_off", "time": 32, "note": 65, "velocity": 9, "channel": 0}, {"type": "note_on", "time": 3, "note": 64, "velocity": 9, "channel": 0}, {"type": "note_off", "time": 46, "note": 64, "velocity": 9, "channel": 0}, {"type": "note_on", "time": 0, "note": 63, "velocity": 9, "channel": 0}, {"type": "note_off", "time": 49, "note": 63, "velocity": 9, "channel": 0}, {"type": "note_on", "time": 2, "note": 61, "velocity": 9, "channel": 0}, {"type": "note_off", "time": 39, "note": 61, "velocity": 9, "channel": 0}, {"type": "note_on", "time": 4, "note": 58, "velocity": 9, "channel": 0}, {"type": "note_off", "time": 55, "note": 58, "velocity": 9, "channel": 0}, {"type": "note_on", "time": 4, "note": 55, "velocity": 9, "channel": 0}, {"type": "note_off", "time": 46, "note": 55, "velocity": 9, "channel": 0}, {"type": "note_on", "time": 12, "note": 57, "velocity": 9, "channel": 0}, {"type": "note_off", "time": 46, "note": 57, "velocity": 9, "channel": 0}, {"type": "note_on", "time": 3, "note": 59, "velocity": 9, "channel": 0}, {"type": "note_off", "time": 53, "note": 59, "velocity": 9, "channel": 0}, {"type": "note_on", "time": 4, "note": 62, "velocity": 9, "channel": 0}, {"type": "note_off", "time": 36, "note": 62, "velocity": 9, "channel": 0}, {"type": "note_on", "time": 27, "note": 59, "velocity": 9, "channel": 0}, {"type": "note_off", "time": 36, "note": 59, "velocity": 9, "channel": 0}, {"type": "note_on", "time": 4, "note": 60, "velocity": 9, "channel": 0}, {"type": "note_off", "time": 46, "note": 60, "velocity": 9, "channel": 0}, {"type": "note_on", "time": 3, "note": 64, "velocity": 9, "channel": 0}, {"type": "note_off", "time": 37, "note": 64, "velocity": 9, "channel": 0}, {"type": "note_on", "time": 6, "note": 67, "velocity": 9, "channel": 0}, {"type": "note_off", "time": 42, "note": 67, "velocity": 9, "channel": 0}, {"type": "note_on", "time": 12, "note": 72, "velocity": 9, "channel": 0}, {"type": "note_off", "time": 1788, "note": 72, "velocity": 9, "channel": 0}, {"type": "note_on", "time": 226, "note": 69, "velocity": 9, "channel": 0}, {"type": "note_off", "time": 28, "note": 69, "velocity": 9, "channel": 0}, {"type": "note_on", "time": 20, "note": 72, "velocity": 9, "channel": 0}, {"type": "note_off", "time": 772, "note": 72, "velocity": 9, "channel": 0}, {"type": "note_on", "time": 62, "note": 45, "velocity": 9, "channel": 0}, {"type": "note_off", "time": 37, "note": 45, "velocity": 9, "channel": 0}, {"type": "note_on", "time": 20, "note": 53, "velocity": 9, "channel": 0}, {"type": "note_off", "time": 29, "note": 53, "velocity": 9, "channel": 0}, {"type": "note_on", "time": 0, "note": 57, "velocity": 9, "channel": 0}, {"type": "note_off", "time": 37, "note": 57, "velocity": 9, "channel": 0}, {"type": "note_on", "time": 5, "note": 57, "velocity": 9, "channel": 0}, {"type": "note_off", "time": 42, "note": 57, "velocity": 9, "channel": 0}, {"type": "note_on", "time": 10, "note": 53, "velocity": 9, "channel": 0}, {"type": "note_off", "time": 41, "note": 53, "velocity": 9, "channel": 0}, {"type": "note_on", "time": 0, "note": 58, "velocity": 9, "channel": 0}, {"type": "note_off", "time": 40, "note": 58, "velocity": 9, "channel": 0}, {"type": "note_on", "time": 0, "note": 59, "velocity": 9, "channel": 0}, {"type": "note_off", "time": 47, "note": 59, "velocity": 9, "channel": 0}, {"type": "note_on", "time": 7, "note": 69, "velocity": 9, "channel": 0}, {"type": "note_off", "time": 43, "note": 69, "velocity": 9, "channel": 0}, {"type": "note_on", "time": 0, "note": 65, "velocity": 9, "channel": 0}, {"type": "note_off", "time": 50, "note": 65, "velocity": 9, "channel": 0}, {"type": "note_on", "time": 5, "note": 69, "velocity": 9, "channel": 0}, {"type": "note_off", "time": 48, "note": 69, "velocity": 9, "channel": 0}, {"type": "note_on", "time": 2, "note": 65, "velocity": 9, "channel": 0}, {"type": "note_off", "time": 48, "note": 65, "velocity": 9, "channel": 0}, {"type": "note_on", "time": 4, "note": 69, "velocity": 9, "channel": 0}, {"type": "note_off", "time": 42, "note": 69, "velocity": 9, "channel": 0}, {"type": "note_on", "time": 4, "note": 70, "velocity": 9, "channel": 0}, {"type": "note_off", "time": 41, "note": 70, "velocity": 9, "channel": 0}, {"type": "note_on", "time": 1, "note": 72, "velocity": 9, "channel": 0}, {"type": "note_off", "time": 42, "note": 72, "velocity": 9, "channel": 0}, {"type": "note_on", "time": 3, "note": 69, "velocity": 9, "channel": 0}, {"type": "note_off", "time": 57, "note": 69, "velocity": 9, "channel": 0}, {"type": "note_on", "time": 3, "note": 70, "velocity": 9, "channel": 0}, {"type": "note_off", "time": 39, "note": 70, "velocity": 9, "channel": 0}, {"type": "note_on", "time": 10, "note": 72, "velocity": 9, "channel": 0}, {"type": "note_off", "time": 40, "note": 72, "velocity": 9, "channel": 0}, {"type": "note_on", "time": 15, "note": 69, "velocity": 9, "channel": 0}, {"type": "note_off", "time": 41, "note": 69, "velocity": 9, "channel": 0}, {"type": "note_on", "time": 4, "note": 72, "velocity": 9, "channel": 0}, {"type": "note_off", "time": 42, "note": 72, "velocity": 9, "channel": 0}, {"type": "note_on", "time": 4, "note": 74, "velocity": 9, "channel": 0}, {"type": "note_off", "time": 121, "note": 74, "velocity": 9, "channel": 0}, {"type": "note_on", "time": 316, "note": 74, "velocity": 9, "channel": 0}, {"type": "note_off", "time": 32, "note": 74, "velocity": 9, "channel": 0}, {"type": "note_on", "time": 3, "note": 73, "velocity": 9, "channel": 0}, {"type": "note_off", "time": 82, "note": 73, "velocity": 9, "channel": 0}, {"type": "note_on", "time": 7, "note": 77, "velocity": 9, "channel": 0}, {"type": "note_on", "time": 560, "note": 75, "velocity": 9, "channel": 0}, {"type": "note_off", "time": 0, "note": 77, "velocity": 9, "channel": 0}, {"type": "note_off", "time": 56, "note": 75, "velocity": 9, "channel": 0}, {"type": "note_on", "time": 3, "note": 76, "velocity": 9, "channel": 0}, {"type": "note_off", "time": 92, "note": 76, "velocity": 9, "channel": 0}, {"type": "note_on", "time": 35, "note": 71, "velocity": 9, "channel": 0}, {"type": "note_off", "time": 48, "note": 71, "velocity": 9, "channel": 0}, {"type": "note_on", "time": 12, "note": 67, "velocity": 9, "channel": 0}, {"type": "note_off", "time": 48, "note": 67, "velocity": 9, "channel": 0}, {"type": "note_on", "time": 35, "note": 64, "velocity": 9, "channel": 0}, {"type": "note_off", "time": 24, "note": 64, "velocity": 9, "channel": 0}, {"type": "note_on", "time": 23, "note": 70, "velocity": 9, "channel": 0}, {"type": "note_off", "time": 108, "note": 70, "velocity": 9, "channel": 0}, {"type": "note_on", "time": 7, "note": 69, "velocity": 9, "channel": 0}, {"type": "note_off", "time": 35, "note": 69, "velocity": 9, "channel": 0}, {"type": "note_on", "time": 0, "note": 70, "velocity": 9, "channel": 0}, {"type": "note_off", "time": 53, "note": 70, "velocity": 9, "channel": 0}, {"type": "note_on", "time": 23, "note": 67, "velocity": 9, "channel": 0}, {"type": "note_off", "time": 48, "note": 67, "velocity": 9, "channel": 0}, {"type": "note_on", "time": 9, "note": 67, "velocity": 9, "channel": 0}, {"type": "note_off", "time": 53, "note": 67, "velocity": 9, "channel": 0}, {"type": "note_on", "time": 2, "note": 67, "velocity": 9, "channel": 0}, {"type": "note_off", "time": 35, "note": 67, "velocity": 9, "channel": 0}, {"type": "note_on", "time": 4, "note": 68, "velocity": 9, "channel": 0}, {"type": "note_off", "time": 27, "note": 68, "velocity": 9, "channel": 0}, {"type": "note_on", "time": 0, "note": 66, "velocity": 9, "channel": 0}, {"type": "note_off", "time": 39, "note": 66, "velocity": 9, "channel": 0}, {"type": "note_on", "time": 1, "note": 65, "velocity": 9, "channel": 0}, {"type": "note_off", "time": 35, "note": 65, "velocity": 9, "channel": 0}, {"type": "note_on", "time": 1, "note": 64, "velocity": 9, "channel": 0}, {"type": "note_off", "time": 45, "note": 64, "velocity": 9, "channel": 0}, {"type": "note_on", "time": 7, "note": 63, "velocity": 9, "channel": 0}, {"type": "note_off", "time": 34, "note": 63, "velocity": 9, "channel": 0}, {"type": "note_on", "time": 7, "note": 65, "velocity": 9, "channel": 0}, {"type": "note_off", "time": 52, "note": 65, "velocity": 9, "channel": 0}, {"type": "note_on", "time": 7, "note": 67, "velocity": 9, "channel": 0}, {"type": "note_off", "time": 73, "note": 67, "velocity": 9, "channel": 0}, {"type": "note_on", "time": 19, "note": 65, "velocity": 9, "channel": 0}, {"type": "note_off", "time": 50, "note": 65, "velocity": 9, "channel": 0}, {"type": "note_on", "time": 0, "note": 64, "velocity": 9, "channel": 0}, {"type": "note_off", "time": 50, "note": 64, "velocity": 9, "channel": 0}, {"type": "note_on", "time": 1, "note": 63, "velocity": 9, "channel": 0}, {"type": "note_off", "time": 53, "note": 63, "velocity": 9, "channel": 0}, {"type": "note_on", "time": 3, "note": 67, "velocity": 9, "channel": 0}, {"type": "note_off", "time": 46, "note": 67, "velocity": 9, "channel": 0}, {"type": "note_on", "time": 6, "note": 66, "velocity": 9, "channel": 0}, {"type": "note_off", "time": 43, "note": 66, "velocity": 9, "channel": 0}, {"type": "note_on", "time": 7, "note": 64, "velocity": 9, "channel": 0}, {"type": "note_off", "time": 34, "note": 64, "velocity": 9, "channel": 0}, {"type": "note_on", "time": 3, "note": 63, "velocity": 9, "channel": 0}, {"type": "note_off", "time": 46, "note": 63, "velocity": 9, "channel": 0}, {"type": "note_on", "time": 5, "note": 60, "velocity": 9, "channel": 0}, {"type": "note_off", "time": 44, "note": 60, "velocity": 9, "channel": 0}, {"type": "note_on", "time": 34, "note": 59, "velocity": 9, "channel": 0}, {"type": "note_off", "time": 44, "note": 59, "velocity": 9, "channel": 0}, {"type": "note_on", "time": 27, "note": 59, "velocity": 9, "channel": 0}, {"type": "note_off", "time": 39, "note": 59, "velocity": 9, "channel": 0}, {"type": "note_on", "time": 1, "note": 63, "velocity": 9, "channel": 0}, {"type": "note_off", "time": 39, "note": 63, "velocity": 9, "channel": 0}, {"type": "note_on", "time": 12, "note": 67, "velocity": 9, "channel": 0}, {"type": "note_off", "time": 39, "note": 67, "velocity": 9, "channel": 0}, {"type": "note_on", "time": 12, "note": 63, "velocity": 9, "channel": 0}, {"type": "note_off", "time": 36, "note": 63, "velocity": 9, "channel": 0}, {"type": "note_on", "time": 7, "note": 59, "velocity": 9, "channel": 0}, {"type": "note_off", "time": 41, "note": 59, "velocity": 9, "channel": 0}, {"type": "note_on", "time": 12, "note": 55, "velocity": 9, "channel": 0}, {"type": "note_off", "time": 46, "note": 55, "velocity": 9, "channel": 0}, {"type": "note_on", "time": 9, "note": 60, "velocity": 9, "channel": 0}, {"type": "note_off", "time": 32, "note": 60, "velocity": 9, "channel": 0}, {"type": "note_on", "time": 7, "note": 63, "velocity": 9, "channel": 0}, {"type": "note_off", "time": 34, "note": 63, "velocity": 9, "channel": 0}, {"type": "note_on", "time": 1, "note": 67, "velocity": 9, "channel": 0}, {"type": "note_off", "time": 28, "note": 67, "velocity": 9, "channel": 0}, {"type": "note_on", "time": 5, "note": 72, "velocity": 9, "channel": 0}, {"type": "note_off", "time": 66, "note": 72, "velocity": 9, "channel": 0}, {"type": "note_on", "time": 7, "note": 75, "velocity": 9, "channel": 0}, {"type": "note_off", "time": 156, "note": 75, "velocity": 9, "channel": 0}, {"type": "note_on", "time": 359, "note": 77, "velocity": 9, "channel": 0}, {"type": "note_off", "time": 136, "note": 77, "velocity": 9, "channel": 0}, {"type": "note_on", "time": 2, "note": 75, "velocity": 9, "channel": 0}, {"type": "note_off", "time": 71, "note": 75, "velocity": 9, "channel": 0}, {"type": "note_on", "time": 56, "note": 74, "velocity": 9, "channel": 0}, {"type": "note_off", "time": 84, "note": 74, "velocity": 9, "channel": 0}, {"type": "note_on", "time": 3, "note": 72, "velocity": 9, "channel": 0}, {"type": "note_off", "time": 61, "note": 72, "velocity": 9, "channel": 0}, {"type": "note_on", "time": 50, "note": 70, "velocity": 9, "channel": 0}, {"type": "note_off", "time": 131, "note": 70, "velocity": 9, "channel": 0}, {"type": "note_on", "time": 27, "note": 68, "velocity": 9, "channel": 0}, {"type": "note_off", "time": 41, "note": 68, "velocity": 9, "channel": 0}, {"type": "note_on", "time": 10, "note": 67, "velocity": 9, "channel": 0}, {"type": "note_off", "time": 94, "note": 67, "velocity": 9, "channel": 0}, {"type": "note_on", "time": 20, "note": 65, "velocity": 9, "channel": 0}, {"type": "note_off", "time": 48, "note": 65, "velocity": 9, "channel": 0}, {"type": "note_on", "time": 5, "note": 64, "velocity": 9, "channel": 0}, {"type": "note_off", "time": 40, "note": 64, "velocity": 9, "channel": 0}, {"type": "note_on", "time": 1, "note": 65, "velocity": 9, "channel": 0}, {"type": "note_off", "time": 39, "note": 65, "velocity": 9, "channel": 0}, {"type": "note_on", "time": 2, "note": 67, "velocity": 9, "channel": 0}, {"type": "note_off", "time": 47, "note": 67, "velocity": 9, "channel": 0}, {"type": "note_on", "time": 0, "note": 64, "velocity": 9, "channel": 0}, {"type": "note_off", "time": 38, "note": 64, "velocity": 9, "channel": 0}, {"type": "note_on", "time": 31, "note": 58, "velocity": 9, "channel": 0}, {"type": "note_off", "time": 41, "note": 58, "velocity": 9, "channel": 0}, {"type": "note_on", "time": 4, "note": 60, "velocity": 9, "channel": 0}, {"type": "note_off", "time": 37, "note": 60, "velocity": 9, "channel": 0}, {"type": "note_on", "time": 0, "note": 64, "velocity": 9, "channel": 0}, {"type": "note_off", "time": 40, "note": 64, "velocity": 9, "channel": 0}, {"type": "note_on", "time": 7, "note": 67, "velocity": 9, "channel": 0}, {"type": "note_off", "time": 23, "note": 67, "velocity": 9, "channel": 0}, {"type": "note_on", "time": 9, "note": 71, "velocity": 9, "channel": 0}, {"type": "note_off", "time": 21, "note": 71, "velocity": 9, "channel": 0}, {"type": "note_on", "time": 30, "note": 75, "velocity": 9, "channel": 0}, {"type": "note_off", "time": 232, "note": 75, "velocity": 9, "channel": 0}, {"type": "note_on", "time": 2, "note": 73, "velocity": 9, "channel": 0}, {"type": "note_off", "time": 73, "note": 73, "velocity": 9, "channel": 0}, {"type": "note_on", "time": 44, "note": 71, "velocity": 9, "channel": 0}, {"type": "note_off", "time": 12, "note": 71, "velocity": 9, "channel": 0}, {"type": "note_on", "time": 6, "note": 72, "velocity": 9, "channel": 0}, {"type": "note_off", "time": 78, "note": 72, "velocity": 9, "channel": 0}, {"type": "note_on", "time": 5, "note": 68, "velocity": 9, "channel": 0}, {"type": "note_off", "time": 48, "note": 68, "velocity": 9, "channel": 0}, {"type": "note_on", "time": 2, "note": 65, "velocity": 9, "channel": 0}, {"type": "note_off", "time": 209, "note": 65, "velocity": 9, "channel": 0}, {"type": "note_on", "time": 309, "note": 67, "velocity": 9, "channel": 0}, {"type": "note_off", "time": 51, "note": 67, "velocity": 9, "channel": 0}, {"type": "note_on", "time": 10, "note": 64, "velocity": 9, "channel": 0}, {"type": "note_off", "time": 44, "note": 64, "velocity": 9, "channel": 0}, {"type": "note_on", "time": 12, "note": 65, "velocity": 9, "channel": 0}, {"type": "note_off", "time": 113, "note": 65, "velocity": 9, "channel": 0}, {"type": "note_on", "time": 9, "note": 67, "velocity": 9, "channel": 0}, {"type": "note_off", "time": 49, "note": 67, "velocity": 9, "channel": 0}, {"type": "note_on", "time": 4, "note": 64, "velocity": 9, "channel": 0}, {"type": "note_off", "time": 32, "note": 64, "velocity": 9, "channel": 0}, {"type": "note_on", "time": 8, "note": 65, "velocity": 9, "channel": 0}, {"type": "note_off", "time": 65, "note": 65, "velocity": 9, "channel": 0}, {"type": "note_on", "time": 6, "note": 65, "velocity": 9, "channel": 0}, {"type": "note_off", "time": 39, "note": 65, "velocity": 9, "channel": 0}, {"type": "note_on", "time": 7, "note": 67, "velocity": 9, "channel": 0}, {"type": "note_off", "time": 54, "note": 67, "velocity": 9, "channel": 0}, {"type": "note_on", "time": 18, "note": 64, "velocity": 9, "channel": 0}, {"type": "note_off", "time": 57, "note": 64, "velocity": 9, "channel": 0}, {"type": "note_on", "time": 4, "note": 65, "velocity": 9, "channel": 0}, {"type": "note_off", "time": 148, "note": 65, "velocity": 9, "channel": 0}, {"type": "note_on", "time": 20, "note": 67, "velocity": 9, "channel": 0}, {"type": "note_off", "time": 63, "note": 67, "velocity": 9, "channel": 0}, {"type": "note_on", "time": 5, "note": 68, "velocity": 9, "channel": 0}, {"type": "note_off", "time": 63, "note": 68, "velocity": 9, "channel": 0}, {"type": "note_on", "time": 15, "note": 67, "velocity": 9, "channel": 0}, {"type": "note_off", "time": 159, "note": 67, "velocity": 9, "channel": 0}, {"type": "note_on", "time": 6, "note": 67, "velocity": 9, "channel": 0}, {"type": "note_off", "time": 62, "note": 67, "velocity": 9, "channel": 0}, {"type": "note_on", "time": 3, "note": 69, "velocity": 9, "channel": 0}, {"type": "note_off", "time": 168, "note": 69, "velocity": 9, "channel": 0}, {"type": "note_on", "time": 3, "note": 69, "velocity": 9, "channel": 0}, {"type": "note_off", "time": 29, "note": 69, "velocity": 9, "channel": 0}, {"type": "note_on", "time": 2, "note": 71, "velocity": 9, "channel": 0}, {"type": "note_off", "time": 86, "note": 71, "velocity": 9, "channel": 0}, {"type": "note_on", "time": 25, "note": 72, "velocity": 9, "channel": 0}, {"type": "note_off", "time": 102, "note": 72, "velocity": 9, "channel": 0}, {"type": "note_on", "time": 4, "note": 74, "velocity": 9, "channel": 0}, {"type": "note_off", "time": 108, "note": 74, "velocity": 9, "channel": 0}, {"type": "note_on", "time": 1, "note": 75, "velocity": 9, "channel": 0}, {"type": "note_off", "time": 209, "note": 75, "velocity": 9, "channel": 0}, {"type": "note_on", "time": 275, "note": 67, "velocity": 9, "channel": 0}, {"type": "note_off", "time": 94, "note": 67, "velocity": 9, "channel": 0}, {"type": "note_on", "time": 27, "note": 75, "velocity": 9, "channel": 0}, {"type": "note_off", "time": 60, "note": 75, "velocity": 9, "channel": 0}, {"type": "note_on", "time": 30, "note": 71, "velocity": 9, "channel": 0}, {"type": "note_off", "time": 71, "note": 71, "velocity": 9, "channel": 0}, {"type": "note_on", "time": 16, "note": 74, "velocity": 9, "channel": 0}, {"type": "note_off", "time": 76, "note": 74, "velocity": 9, "channel": 0}, {"type": "note_on", "time": 7, "note": 72, "velocity": 9, "channel": 0}, {"type": "note_off", "time": 69, "note": 72, "velocity": 9, "channel": 0}, {"type": "note_on", "time": 4, "note": 67, "velocity": 9, "channel": 0}, {"type": "note_off", "time": 78, "note": 67, "velocity": 9, "channel": 0}, {"type": "note_on", "time": 3, "note": 63, "velocity": 9, "channel": 0}, {"type": "note_off", "time": 78, "note": 63, "velocity": 9, "channel": 0}, {"type": "note_on", "time": 4, "note": 60, "velocity": 9, "channel": 0}, {"type": "note_off", "time": 68, "note": 60, "velocity": 9, "channel": 0}, {"type": "note_on", "time": 0, "note": 70, "velocity": 9, "channel": 0}, {"type": "note_off", "time": 51, "note": 70, "velocity": 9, "channel": 0}, {"type": "note_on", "time": 9, "note": 68, "velocity": 9, "channel": 0}, {"type": "note_off", "time": 37, "note": 68, "velocity": 9, "channel": 0}, {"type": "note_on", "time": 1, "note": 64, "velocity": 9, "channel": 0}, {"type": "note_off", "time": 44, "note": 64, "velocity": 9, "channel": 0}, {"type": "note_on", "time": 1, "note": 59, "velocity": 9, "channel": 0}, {"type": "note_off", "time": 41, "note": 59, "velocity": 9, "channel": 0}, {"type": "note_on", "time": 0, "note": 58, "velocity": 9, "channel": 0}, {"type": "note_off", "time": 43, "note": 58, "velocity": 9, "channel": 0}, {"type": "note_on", "time": 0, "note": 56, "velocity": 9, "channel": 0}, {"type": "note_off", "time": 80, "note": 56, "velocity": 9, "channel": 0}, {"type": "note_on", "time": 46, "note": 52, "velocity": 9, "channel": 0}, {"type": "note_off", "time": 42, "note": 52, "velocity": 9, "channel": 0}, {"type": "note_on", "time": 1, "note": 55, "velocity": 9, "channel": 0}, {"type": "note_off", "time": 161, "note": 55, "velocity": 9, "channel": 0}, {"type": "end_of_track", "time": 0}]]}