{"ticks_per_beat": 360, "tracks": [[{"type": "track_name", "name": "Melody", "time": 0}, {"type": "set_tempo", "tempo": 526315, "time": 0}, {"type": "key_signature", "key": "Bb", "time": 0}, {"type": "time_signature", "numerator": 4, "denominator": 4, "clocks_per_click": 24, "notated_32nd_notes_per_beat": 8, "time": 0}, {"type": "note_on", "time": 3674, "note": 70, "velocity": 100, "channel": 0}, {"type": "note_off", "time": 55, "note": 70, "velocity": 100, "channel": 0}, {"type": "note_on", "time": 0, "note": 68, "velocity": 113, "channel": 0}, {"type": "note_off", "time": 72, "note": 68, "velocity": 113, "channel": 0}, {"type": "note_on", "time": 36, "note": 65, "velocity": 115, "channel": 0}, {"type": "note_off", "time": 78, "note": 65, "velocity": 115, "channel": 0}, {"type": "note_on", "time": 3, "note": 62, "velocity": 117, "channel": 0}, {"type": "note_off", "time": 91, "note": 62, "velocity": 117, "channel": 0}, {"type": "note_on", "time": 10, "note": 58, "velocity": 97, "channel": 0}, {"type": "note_off", "time": 66, "note": 58, "velocity": 97, "channel": 0}, {"type": "note_on", "time": 7, "note": 63, "velocity": 121, "channel": 0}, {"type": "note_off", "time": 95, "note": 63, "velocity": 121, "channel": 0}, {"type": "note_on", "time": 3, "note": 65, "velocity": 111, "channel": 0}, {"type": "note_off", "time": 83, "note": 65, "velocity": 111, "channel": 0}, {"type": "note_on", "time": 5, "note": 61, "velocity": 111, "channel": 0}, {"type": "note_off", "time": 63, "note": 61, "velocity": 111, "channel": 0}, {"type": "note_on", "time": 4, "note": 62, "velocity": 115, "channel": 0}, {"type": "note_off", "time": 115, "note": 62, "velocity": 115, "channel": 0}, {"type": "note_on", "time": 13, "note": 60, "velocity": 110, "channel": 0}, {"type": "note_off", "time": 355, "note": 60, "velocity": 110, "channel": 0}, {"type": "note_on", "time": 4, "note": 60, "velocity": 113, "channel": 0}, {"type": "note_off", "time": 329, "note": 60, "velocity": 113, "channel": 0}, {"type": "note_on", "time": 29, "note": 60, "velocity": 110, "channel": 0}, {"type": "note_off", "time": 156, "note": 60, "velocity": 110, "channel": 0}, {"type": "note_on", "time": 6, "note": 60, "velocity": 107, "channel": 0}, {"type": "note_off", "time": 122, "note": 60, "velocity": 107, "channel": 0}, {"type": "note_on", "time": 101, "note": 60, "velocity": 111, "channel": 0}, {"type": "note_off", "time": 142, "note": 60, "velocity": 111, "channel": 0}, {"type": "note_on", "time": 14, "note": 56, "velocity": 92, "channel": 0}, {"type": "note_off", "time": 75, "note": 56, "velocity": 92, "channel": 0}, {"type": "note_on", "time": 48, "note": 53, "velocity": 95, "channel": 0}, {"type": "note_off", "time": 230, "note": 53, "velocity": 95, "channel": 0}, {"type": "note_on", "time": 1058, "note": 61, "velocity": 100, "channel": 0}, {"type": "note_off", "time": 45, "note": 61, "velocity": 100, "channel": 0}, {"type": "note_on", "time": 3, "note": 62, "velocity": 104, "channel": 0}, {"type": "note_off", "time": 178, "note": 62, "velocity": 104, "channel": 0}, {"type": "note_on", "time": 15, "note": 62, "velocity": 112, "channel": 0}, {"type": "note_off", "time": 156, "note": 62, "velocity": 112, "channel": 0}, {"type": "note_on", "time": 22, "note": 62, "velocity": 116, "channel": 0}, {"type": "note_off", "time": 144, "note": 62, "velocity": 116, "channel": 0}, {"type": "note_on", "time": 26, "note": 62, "velocity": 110, "channel": 0}, {"type": "note_off", "time": 254, "note": 62, "velocity": 110, "channel": 0}, {"type": "note_on", "time": 29, "note": 63, "velocity": 113, "channel": 0}, {"type": "note_off", "time": 93, "note": 63, "velocity": 113, "channel": 0}, {"type": "note_on", "time": 0, "note": 65, "velocity": 108, "channel": 0}, {"type": "note_off", "time": 115, "note": 65, "velocity": 108, "channel": 0}, {"type": "note_on", "time": 7, "note": 74, "velocity": 93, "channel": 0}, {"type": "note_off", "time": 123, "note": 74, "velocity": 93, "channel": 0}, {"type": "note_on", "time": 11, "note": 70, "velocity": 105, "channel": 0}, {"type": "note_off", "time": 319, "note": 70, "velocity": 105, "channel": 0}, {"type": "note_on", "time": 11, "note": 65, "velocity": 102, "channel": 0}, {"type": "note_off", "time": 61, "note": 65, "velocity": 102, "channel": 0}, {"type": "note_on", "time": 11, "note": 72, "velocity": 102, "channel": 0}, {"type": "note_off", "time": 113, "note": 72, "velocity": 102, "channel": 0}, {"type": "note_on", "time": 17, "note": 68, "velocity": 110, "channel": 0}, {"type": "note_off", "time": 101, "note": 68, "velocity": 110, "channel": 0}, {"type": "note_on", "time": 162, "note": 70, "velocity": 105, "channel": 0}, {"type": "note_off", "time": 101, "note": 70, "velocity": 105, "channel": 0}, {"type": "note_on", "time": 57, "note": 68, "velocity": 104, "channel": 0}, {"type": "note_off", "time": 99, "note": 68, "velocity": 104, "channel": 0}, {"type": "note_on", "time": 29, "note": 69, "velocity": 101, "channel": 0}, {"type": "note_off", "time": 33, "note": 69, "velocity": 101, "channel": 0}, {"type": "note_on", "time": 37, "note": 65, "velocity": 101, "channel": 0}, {"type": "note_off", "time": 210, "note": 65, "velocity": 101, "channel": 0}, {"type": "note_on", "time": 61, "note": 70, "velocity": 104, "channel": 0}, {"type": "note_off", "time": 67, "note": 70, "velocity": 104, "channel": 0}, {"type": "note_on", "time": 13, "note": 68, "velocity": 103, "channel": 0}, {"type": "note_off", "time": 92, "note": 68, "velocity": 103, "channel": 0}, {"type": "note_on", "time": 7, "note": 65, "velocity": 106, "channel": 0}, {"type": "note_off", "time": 66, "note": 65, "velocity": 106, "channel": 0}, {"type": "note_on", "time": 4, "note": 61, "velocity": 114, "channel": 0}, {"type": "note_off", "time": 99, "note": 61, "velocity": 114, "channel": 0}, {"type": "note_on", "time": 13, "note": 58, "velocity": 92, "channel": 0}, {"type": "note_off", "time": 55, "note": 58, "velocity": 92, "channel": 0}, {"type": "note_on", "time": 2, "note": 63, "velocity": 120, "channel": 0}, {"type": "note_off", "time": 92, "note": 63, "velocity": 120, "channel": 0}, {"type": "note_on", "time": 7, "note": 61, "velocity": 114, "channel": 0}, {"type": "note_off", "time": 61, "note": 61, "velocity": 114, "channel": 0}, {"type": "note_on", "time": 0, "note": 56, "velocity": 104, "channel": 0}, {"type": "note_off", "time": 107, "note": 56, "velocity": 104, "channel": 0}, {"type": "note_on", "time": 79, "note": 58, "velocity": 101, "channel": 0}, {"type": "note_off", "time": 99, "note": 58, "velocity": 101, "channel": 0}, {"type": "note_on", "time": 4, "note": 53, "velocity": 107, "channel": 0}, {"type": "note_off", "time": 64, "note": 53, "velocity": 107, "channel": 0}, {"type": "note_on", "time": 11, "note": 49, "velocity": 105, "channel": 0}, {"type": "note_off", "time": 65, "note": 49, "velocity": 105, "channel": 0}, {"type": "note_on", "time": 24, "note": 53, "velocity": 104, "channel": 0}, {"type": "note_off", "time": 91, "note": 53, "velocity": 104, "channel": 0}, {"type": "note_on", "time": 5, "note": 51, "velocity": 106, "channel": 0}, {"type": "note_off", "time": 77, "note": 51, "velocity": 106, "channel": 0}, {"type": "note_on", "time": 29, "note": 53, "velocity": 97, "channel": 0}, {"type": "note_off", "time": 53, "note": 53, "velocity": 97, "channel": 0}, {"type": "note_on", "time": 5, "note": 55, "velocity": 93, "channel": 0}, {"type": "note_off", "time": 202, "note": 55, "velocity": 93, "channel": 0}, {"type": "note_on", "time": 854, "note": 65, "velocity": 100, "channel": 0}, {"type": "note_off", "time": 60, "note": 65, "velocity": 100, "channel": 0}, {"type": "note_on", "time": 0, "note": 67, "velocity": 103, "channel": 0}, {"type": "note_off", "time": 113, "note": 67, "velocity": 103, "channel": 0}, {"type": "note_on", "time": 0, "note": 63, "velocity": 111, "channel": 0}, {"type": "note_off", "time": 57, "note": 63, "velocity": 111, "channel": 0}, {"type": "note_on", "time": 5, "note": 65, "velocity": 114, "channel": 0}, {"type": "note_off", "time": 91, "note": 65, "velocity": 114, "channel": 0}, {"type": "note_on", "time": 1, "note": 63, "velocity": 120, "channel": 0}, {"type": "note_off", "time": 71, "note": 63, "velocity": 120, "channel": 0}, {"type": "note_on", "time": 1, "note": 58, "velocity": 90, "channel": 0}, {"type": "note_off", "time": 61, "note": 58, "velocity": 90, "channel": 0}, {"type": "note_on", "time": 41, "note": 55, "velocity": 94, "channel": 0}, {"type": "note_off", "time": 75, "note": 55, "velocity": 94, "channel": 0}, {"type": "note_on", "time": 7, "note": 63, "velocity": 122, "channel": 0}, {"type": "note_off", "time": 89, "note": 63, "velocity": 122, "channel": 0}, {"type": "note_on", "time": 13, "note": 62, "velocity": 113, "channel": 0}, {"type": "note_off", "time": 95, "note": 62, "velocity": 113, "channel": 0}, {"type": "note_on", "time": 1, "note": 58, "velocity": 101, "channel": 0}, {"type": "note_off", "time": 73, "note": 58, "velocity": 101, "channel": 0}, {"type": "note_on", "time": 21, "note": 53, "velocity": 99, "channel": 0}, {"type": "note_off", "time": 55, "note": 53, "velocity": 99, "channel": 0}, {"type": "note_on", "time": 0, "note": 56, "velocity": 104, "channel": 0}, {"type": "note_off", "time": 99, "note": 56, "velocity": 104, "channel": 0}, {"type": "note_on", "time": 0, "note": 53, "velocity": 108, "channel": 0}, {"type": "note_off", "time": 55, "note": 53, "velocity": 108, "channel": 0}, {"type": "note_on", "time": 11, "note": 48, "velocity": 102, "channel": 0}, {"type": "note_off", "time": 107, "note": 48, "velocity": 102, "channel": 0}, {"type": "note_on", "time": 13, "note": 51, "velocity": 106, "channel": 0}, {"type": "note_off", "time": 69, "note": 51, "velocity": 106, "channel": 0}, {"type": "note_on", "time": 19, "note": 50, "velocity": 99, "channel": 0}, {"type": "note_off", "time": 85, "note": 50, "velocity": 99, "channel": 0}, {"type": "note_on", "time": 13, "note": 53, "velocity": 100, "channel": 0}, {"type": "note_off", "time": 69, "note": 53, "velocity": 100, "channel": 0}, {"type": "note_on", "time": 23, "note": 58, "velocity": 96, "channel": 0}, {"type": "note_off", "time": 77, "note": 58, "velocity": 96, "channel": 0}, {"type": "note_on", "time": 9, "note": 60, "velocity": 115, "channel": 0}, {"type": "note_off", "time": 71, "note": 60, "velocity": 115, "channel": 0}, {"type": "note_on", "time": 5, "note": 62, "velocity": 115, "channel": 0}, {"type": "note_off", "time": 85, "note": 62, "velocity": 115, "channel": 0}, {"type": "note_on", "time": 9, "note": 65, "velocity": 104, "channel": 0}, {"type": "note_off", "time": 73, "note": 65, "velocity": 104, "channel": 0}, {"type": "note_on", "time": 9, "note": 70, "velocity": 106, "channel": 0}, {"type": "note_off", "time": 89, "note": 70, "velocity": 106, "channel": 0}, {"type": "note_on", "time": 3, "note": 72, "velocity": 104, "channel": 0}, {"type": "note_off", "time": 63, "note": 72, "velocity": 104, "channel": 0}, {"type": "note_on", "time": 27, "note": 74, "velocity": 99, "channel": 0}, {"type": "note_off", "time": 97, "note": 74, "velocity": 99, "channel": 0}, {"type": "note_on", "time": 0, "note": 70, "velocity": 103, "channel": 0}, {"type": "note_off", "time": 109, "note": 70, "velocity": 103, "channel": 0}, {"type": "note_on", "time": 1021, "note": 68, "velocity": 118, "channel": 0}, {"type": "note_off", "time": 140, "note": 68, "velocity": 118, "channel": 0}, {"type": "note_on", "time": 44, "note": 68, "velocity": 117, "channel": 0}, {"type": "note_off", "time": 200, "note": 68, "velocity": 117, "channel": 0}, {"type": "note_on", "time": 0, "note": 73, "velocity": 97, "channel": 0}, {"type": "note_off", "time": 63, "note": 73, "velocity": 97, "channel": 0}, {"type": "note_on", "time": 782, "note": 73, "velocity": 111, "channel": 0}, {"type": "note_off", "time": 133, "note": 73, "velocity": 111, "channel": 0}, {"type": "note_on", "time": 5, "note": 72, "velocity": 112, "channel": 0}, {"type": "note_off", "time": 371, "note": 72, "velocity": 112, "channel": 0}, {"type": "note_on", "time": 37, "note": 68, "velocity": 102, "channel": 0}, {"type": "note_off", "time": 85, "note": 68, "velocity": 102, "channel": 0}, {"type": "note_on", "time": 59, "note": 63, "velocity": 99, "channel": 0}, {"type": "note_off", "time": 309, "note": 63, "velocity": 99, "channel": 0}, {"type": "note_on", "time": 446, "note": 75, "velocity": 96, "channel": 0}, {"type": "note_off", "time": 101, "note": 75, "velocity": 96, "channel": 0}, {"type": "note_on", "time": 5, "note": 74, "velocity": 109, "channel": 0}, {"type": "note_off", "time": 430, "note": 74, "velocity": 109, "channel": 0}, {"type": "note_on", "time": 3, "note": 70, "velocity": 96, "channel": 0}, {"type": "note_off", "time": 67, "note": 70, "velocity": 96, "channel": 0}, {"type": "note_on", "time": 31, "note": 65, "velocity": 100, "channel": 0}, {"type": "note_off", "time": 391, "note": 65, "velocity": 100, "channel": 0}, {"type": "note_on", "time": 7, "note": 68, "velocity": 112, "channel": 0}, {"type": "note_on", "time": 140, "note": 67, "velocity": 110, "channel": 0}, {"type": "note_off", "time": 0, "note": 68, "velocity": 112, "channel": 0}, {"type": "note_off", "time": 184, "note": 67, "velocity": 110, "channel": 0}, {"type": "note_on", "time": 15, "note": 63, "velocity": 118, "channel": 0}, {"type": "note_off", "time": 105, "note": 63, "velocity": 118, "channel": 0}, {"type": "note_on", "time": 3, "note": 60, "velocity": 113, "channel": 0}, {"type": "note_off", "time": 216, "note": 60, "velocity": 113, "channel": 0}, {"type": "note_on", "time": 7, "note": 67, "velocity": 108, "channel": 0}, {"type": "note_off", "time": 91, "note": 67, "velocity": 108, "channel": 0}, {"type": "note_on", "time": 5, "note": 65, "velocity": 107, "channel": 0}, {"type": "note_off", "time": 156, "note": 65, "velocity": 107, "channel": 0}, {"type": "note_on", "time": 9, "note": 62, "velocity": 109, "channel": 0}, {"type": "note_off", "time": 91, "note": 62, "velocity": 109, "channel": 0}, {"type": "note_on", "time": 3, "note": 58, "velocity": 90, "channel": 0}, {"type": "note_off", "time": 295, "note": 58, "velocity": 90, "channel": 0}, {"type": "note_on", "time": 252, "note": 53, "velocity": 97, "channel": 0}, {"type": "note_off", "time": 73, "note": 53, "velocity": 97, "channel": 0}, {"type": "note_on", "time": 3, "note": 56, "velocity": 100, "channel": 0}, {"type": "note_on", "time": 63, "note": 58, "velocity": 104, "channel": 0}, {"type": "note_off", "time": 0, "note": 56, "velocity": 100, "channel": 0}, {"type": "note_off", "time": 55, "note": 58, "velocity": 104, "channel": 0}, {"type": "note_on", "time": 1, "note": 60, "velocity": 111, "channel": 0}, {"type": "note_off", "time": 117, "note": 60, "velocity": 111, "channel": 0}, {"type": "note_on", "time": 0, "note": 63, "velocity": 119, "channel": 0}, {"type": "note_off", "time": 99, "note": 63, "velocity": 119, "channel": 0}, {"type": "note_on", "time": 0, "note": 62, "velocity": 112, "channel": 0}, {"type": "note_off", "time": 95, "note": 62, "velocity": 112, "channel": 0}, {"type": "note_on", "time": 15, "note": 65, "velocity": 97, "channel": 0}, {"type": "note_off", "time": 47, "note": 65, "velocity": 97, "channel": 0}, {"type": "note_on", "time": 5, "note": 70, "velocity": 106, "channel": 0}, {"type": "note_off", "time": 93, "note": 70, "velocity": 106, "channel": 0}, {"type": "note_on", "time": 19, "note": 72, "velocity": 105, "channel": 0}, {"type": "note_off", "time": 72, "note": 72, "velocity": 105, "channel": 0}, {"type": "note_on", "time": 1, "note": 74, "velocity": 102, "channel": 0}, {"type": "note_off", "time": 101, "note": 74, "velocity": 102, "channel": 0}, {"type": "note_on", "time": 96, "note": 74, "velocity": 103, "channel": 0}, {"type": "note_off", "time": 91, "note": 74, "velocity": 103, "channel": 0}, {"type": "note_on", "time": 18, "note": 70, "velocity": 106, "channel": 0}, {"type": "note_off", "time": 156, "note": 70, "velocity": 106, "channel": 0}, {"type": "note_on", "time": 61, "note": 72, "velocity": 107, "channel": 0}, {"type": "note_off", "time": 136, "note": 72, "velocity": 107, "channel": 0}, {"type": "note_on", "time": 46, "note": 72, "velocity": 106, "channel": 0}, {"type": "note_off", "time": 115, "note": 72, "velocity": 106, "channel": 0}, {"type": "note_on", "time": 13, "note": 68, "velocity": 115, "channel": 0}, {"type": "note_off", "time": 151, "note": 68, "velocity": 115, "channel": 0}, {"type": "note_on", "time": 622, "note": 70, "velocity": 114, "channel": 0}, {"type": "note_off", "time": 84, "note": 70, "velocity": 114, "channel": 0}, {"type": "note_on", "time": 14, "note": 70, "velocity": 119, "channel": 0}, {"type": "note_off", "time": 73, "note": 70, "velocity": 119, "channel": 0}, {"type": "note_on", "time": 1, "note": 72, "velocity": 112, "channel": 0}, {"type": "note_off", "time": 87, "note": 72, "velocity": 112, "channel": 0}, {"type": "note_on", "time": 7, "note": 70, "velocity": 107, "channel": 0}, {"type": "note_off", "time": 85, "note": 70, "velocity": 107, "channel": 0}, {"type": "note_on", "time": 12, "note": 71, "velocity": 106, "channel": 0}, {"type": "note_off", "time": 81, "note": 71, "velocity": 106, "channel": 0}, {"type": "note_on", "time": 3, "note": 70, "velocity": 109, "channel": 0}, {"type": "note_off", "time": 69, "note": 70, "velocity": 109, "channel": 0}, {"type": "note_on", "time": 1, "note": 69, "velocity": 110, "channel": 0}, {"type": "note_off", "time": 83, "note": 69, "velocity": 110, "channel": 0}, {"type": "note_on", "time": 1, "note": 70, "velocity": 107, "channel": 0}, {"type": "note_off", "time": 91, "note": 70, "velocity": 107, "channel": 0}, {"type": "note_on", "time": 21, "note": 68, "velocity": 112, "channel": 0}, {"type": "note_off", "time": 79, "note": 68, "velocity": 112, "channel": 0}, {"type": "note_on", "time": 3, "note": 67, "velocity": 111, "channel": 0}, {"type": "note_off", "time": 71, "note": 67, "velocity": 111, "channel": 0}, {"type": "note_on", "time": 1, "note": 66, "velocity": 104, "channel": 0}, {"type": "note_off", "time": 97, "note": 66, "velocity": 104, "channel": 0}, {"type": "note_on", "time": 5, "note": 67, "velocity": 115, "channel": 0}, {"type": "note_off", "time": 115, "note": 67, "velocity": 115, "channel": 0}, {"type": "note_on", "time": 0, "note": 66, "velocity": 109, "channel": 0}, {"type": "note_off", "time": 33, "note": 66, "velocity": 109, "channel": 0}, {"type": "note_on", "time": 7, "note": 67, "velocity": 108, "channel": 0}, {"type": "note_off", "time": 49, "note": 67, "velocity": 108, "channel": 0}, {"type": "note_on", "time": 5, "note": 66, "velocity": 108, "channel": 0}, {"type": "note_off", "time": 53, "note": 66, "velocity": 108, "channel": 0}, {"type": "note_on", "time": 9, "note": 65, "velocity": 113, "channel": 0}, {"type": "note_off", "time": 71, "note": 65, "velocity": 113, "channel": 0}, {"type": "note_on", "time": 31, "note": 64, "velocity": 123, "channel": 0}, {"type": "note_off", "time": 91, "note": 64, "velocity": 123, "channel": 0}, {"type": "note_on", "time": 0, "note": 63, "velocity": 118, "channel": 0}, {"type": "note_off", "time": 87, "note": 63, "velocity": 118, "channel": 0}, {"type": "note_on", "time": 9, "note": 65, "velocity": 94, "channel": 0}, {"type": "note_off", "time": 67, "note": 65, "velocity": 94, "channel": 0}, {"type": "note_on", "time": 9, "note": 66, "velocity": 106, "channel": 0}, {"type": "note_off", "time": 83, "note": 66, "velocity": 106, "channel": 0}, {"type": "note_on", "time": 39, "note": 64, "velocity": 106, "channel": 0}, {"type": "note_off", "time": 46, "note": 64, "velocity": 106, "channel": 0}, {"type": "note_on", "time": 7, "note": 65, "velocity": 112, "channel": 0}, {"type": "note_off", "time": 69, "note": 65, "velocity": 112, "channel": 0}, {"type": "note_on", "time": 5, "note": 64, "velocity": 121, "channel": 0}, {"type": "note_off", "time": 107, "note": 64, "velocity": 121, "channel": 0}, {"type": "note_on", "time": 10, "note": 63, "velocity": 120, "channel": 0}, {"type": "note_off", "time": 83, "note": 63, "velocity": 120, "channel": 0}, {"type": "note_on", "time": 13, "note": 67, "velocity": 111, "channel": 0}, {"type": "note_off", "time": 74, "note": 67, "velocity": 111, "channel": 0}, {"type": "note_on", "time": 18, "note": 65, "velocity": 114, "channel": 0}, {"type": "note_off", "time": 71, "note": 65, "velocity": 114, "channel": 0}, {"type": "note_on", "time": 11, "note": 62, "velocity": 115, "channel": 0}, {"type": "note_off", "time": 77, "note": 62, "velocity": 115, "channel": 0}, {"type": "note_on", "time": 3, "note": 58, "velocity": 91, "channel": 0}, {"type": "note_off", "time": 79, "note": 58, "velocity": 91, "channel": 0}, {"type": "note_on", "time": 5, "note": 56, "velocity": 94, "channel": 0}, {"type": "note_off", "time": 81, "note": 56, "velocity": 94, "channel": 0}, {"type": "note_on", "time": 1, "note": 63, "velocity": 119, "channel": 0}, {"type": "note_off", "time": 99, "note": 63, "velocity": 119, "channel": 0}, {"type": "note_on", "time": 0, "note": 65, "velocity": 108, "channel": 0}, {"type": "note_off", "time": 71, "note": 65, "velocity": 108, "channel": 0}, {"type": "note_on", "time": 0, "note": 62, "velocity": 113, "channel": 0}, {"type": "note_off", "time": 97, "note": 62, "velocity": 113, "channel": 0}, {"type": "note_on", "time": 13, "note": 53, "velocity": 103, "channel": 0}, {"type": "note_off", "time": 75, "note": 53, "velocity": 103, "channel": 0}, {"type": "note_on", "time": 1, "note": 60, "velocity": 116, "channel": 0}, {"type": "note_off", "time": 91, "note": 60, "velocity": 116, "channel": 0}, {"type": "note_on", "time": 21, "note": 56, "velocity": 105, "channel": 0}, {"type": "note_off", "time": 79, "note": 56, "velocity": 105, "channel": 0}, {"type": "note_on", "time": 1, "note": 53, "velocity": 107, "channel": 0}, {"type": "note_off", "time": 65, "note": 53, "velocity": 107, "channel": 0}, {"type": "note_on", "time": 79, "note": 51, "velocity": 104, "channel": 0}, {"type": "note_off", "time": 73, "note": 51, "velocity": 104, "channel": 0}, {"type": "note_on", "time": 25, "note": 48, "velocity": 97, "channel": 0}, {"type": "note_off", "time": 67, "note": 48, "velocity": 97, "channel": 0}, {"type": "note_on", "time": 1, "note": 50, "velocity": 98, "channel": 0}, {"type": "note_off", "time": 103, "note": 50, "velocity": 98, "channel": 0}, {"type": "note_on", "time": 21, "note": 58, "velocity": 99, "channel": 0}, {"type": "note_off", "time": 262, "note": 58, "velocity": 99, "channel": 0}, {"type": "note_on", "time": 91, "note": 58, "velocity": 101, "channel": 0}, {"type": "note_off", "time": 79, "note": 58, "velocity": 101, "channel": 0}, {"type": "note_on", "time": 0, "note": 61, "velocity": 116, "channel": 0}, {"type": "note_off", "time": 133, "note": 61, "velocity": 116, "channel": 0}, {"type": "note_on", "time": 333, "note": 57, "velocity": 99, "channel": 0}, {"type": "note_off", "time": 32, "note": 57, "velocity": 99, "channel": 0}, {"type": "note_on", "time": 6, "note": 59, "velocity": 106, "channel": 0}, {"type": "note_off", "time": 58, "note": 59, "velocity": 106, "channel": 0}, {"type": "note_on", "time": 2, "note": 61, "velocity": 112, "channel": 0}, {"type": "note_off", "time": 53, "note": 61, "velocity": 112, "channel": 0}, {"type": "note_on", "time": 0, "note": 63, "velocity": 118, "channel": 0}, {"type": "note_off", "time": 113, "note": 63, "velocity": 118, "channel": 0}, {"type": "note_on", "time": 3, "note": 65, "velocity": 112, "channel": 0}, {"type": "note_off", "time": 79, "note": 65, "velocity": 112, "channel": 0}, {"type": "note_on", "time": 3, "note": 63, "velocity": 116, "channel": 0}, {"type": "note_off", "time": 85, "note": 63, "velocity": 116, "channel": 0}, {"type": "note_on", "time": 2, "note": 61, "velocity": 113, "channel": 0}, {"type": "note_off", "time": 85, "note": 61, "velocity": 113, "channel": 0}, {"type": "note_on", "time": 11, "note": 58, "velocity": 94, "channel": 0}, {"type": "note_off", "time": 57, "note": 58, "velocity": 94, "channel": 0}, {"type": "note_on", "time": 7, "note": 63, "velocity": 120, "channel": 0}, {"type": "note_off", "time": 115, "note": 63, "velocity": 120, "channel": 0}, {"type": "note_on", "time": 9, "note": 61, "velocity": 112, "channel": 0}, {"type": "note_off", "time": 77, "note": 61, "velocity": 112, "channel": 0}, {"type": "note_on", "time": 0, "note": 58, "velocity": 99, "channel": 0}, {"type": "note_off", "time": 83, "note": 58, "velocity": 99, "channel": 0}, {"type": "note_on", "time": 1, "note": 56, "velocity": 96, "channel": 0}, {"type": "note_off", "time": 63, "note": 56, "velocity": 96, "channel": 0}, {"type": "note_on", "time": 15, "note": 63, "velocity": 122, "channel": 0}, {"type": "note_off", "time": 113, "note": 63, "velocity": 122, "channel": 0}, {"type": "note_on", "time": 7, "note": 65, "velocity": 110, "channel": 0}, {"type": "note_off", "time": 95, "note": 65, "velocity": 110, "channel": 0}, {"type": "note_on", "time": 49, "note": 70, "velocity": 106, "channel": 0}, {"type": "note_off", "time": 93, "note": 70, "velocity": 106, "channel": 0}, {"type": "note_on", "time": 16, "note": 75, "velocity": 112, "channel": 0}, {"type": "note_off", "time": 86, "note": 75, "velocity": 112, "channel": 0}, {"type": "note_on", "time": 17, "note": 70, "velocity": 110, "channel": 0}, {"type": "note_off", "time": 31, "note": 70, "velocity": 110, "channel": 0}, {"type": "note_on", "time": 20, "note": 67, "velocity": 109, "channel": 0}, {"type": "note_off", "time": 51, "note": 67, "velocity": 109, "channel": 0}, {"type": "note_on", "time": 7, "note": 66, "velocity": 107, "channel": 0}, {"type": "note_off", "time": 49, "note": 66, "velocity": 107, "channel": 0}, {"type": "note_on", "time": 0, "note": 63, "velocity": 104, "channel": 0}, {"type": "note_off", "time": 47, "note": 63, "velocity": 104, "channel": 0}, {"type": "note_on", "time": 17, "note": 68, "velocity": 109, "channel": 0}, {"type": "note_off", "time": 95, "note": 68, "velocity": 109, "channel": 0}, {"type": "note_on", "time": 7, "note": 70, "velocity": 102, "channel": 0}, {"type": "note_off", "time": 75, "note": 70, "velocity": 102, "channel": 0}, {"type": "note_on", "time": 13, "note": 66, "velocity": 109, "channel": 0}, {"type": "note_off", "time": 69, "note": 66, "velocity": 109, "channel": 0}, {"type": "note_on", "time": 7, "note": 67, "velocity": 107, "channel": 0}, {"type": "note_off", "time": 91, "note": 67, "velocity": 107, "channel": 0}, {"type": "note_on", "time": 4, "note": 63, "velocity": 119, "channel": 0}, {"type": "note_off", "time": 171, "note": 63, "velocity": 119, "channel": 0}, {"type": "note_on", "time": 1004, "note": 70, "velocity": 112, "channel": 0}, {"type": "note_off", "time": 77, "note": 70, "velocity": 112, "channel": 0}, {"type": "note_on", "time": 5, "note": 68, "velocity": 116, "channel": 0}, {"type": "note_off", "time": 97, "note": 68, "velocity": 116, "channel": 0}, {"type": "note_on", "time": 3, "note": 67, "velocity": 114, "channel": 0}, {"type": "note_off", "time": 85, "note": 67, "velocity": 114, "channel": 0}, {"type": "note_on", "time": 5, "note": 65, "velocity": 112, "channel": 0}, {"type": "note_off", "time": 89, "note": 65, "velocity": 112, "channel": 0}, {"type": "note_on", "time": 17, "note": 67, "velocity": 97, "channel": 0}, {"type": "note_off", "time": 59, "note": 67, "velocity": 97, "channel": 0}, {"type": "note_on", "time": 3, "note": 68, "velocity": 113, "channel": 0}, {"type": "note_off", "time": 97, "note": 68, "velocity": 113, "channel": 0}, {"type": "note_on", "time": 11, "note": 70, "velocity": 109, "channel": 0}, {"type": "note_off", "time": 67, "note": 70, "velocity": 109, "channel": 0}, {"type": "note_on", "time": 7, "note": 67, "velocity": 111, "channel": 0}, {"type": "note_on", "time": 91, "note": 70, "velocity": 108, "channel": 0}, {"type": "note_off", "time": 0, "note": 67, "velocity": 111, "channel": 0}, {"type": "note_off", "time": 91, "note": 70, "velocity": 108, "channel": 0}, {"type": "note_on", "time": 0, "note": 68, "velocity": 115, "channel": 0}, {"type": "note_off", "time": 87, "note": 68, "velocity": 115, "channel": 0}, {"type": "note_on", "time": 65, "note": 67, "velocity": 111, "channel": 0}, {"type": "note_off", "time": 101, "note": 67, "velocity": 111, "channel": 0}, {"type": "note_on", "time": 3, "note": 66, "velocity": 107, "channel": 0}, {"type": "note_off", "time": 75, "note": 66, "velocity": 107, "channel": 0}, {"type": "note_on", "time": 15, "note": 65, "velocity": 112, "channel": 0}, {"type": "note_off", "time": 79, "note": 65, "velocity": 112, "channel": 0}, {"type": "note_on", "time": 1, "note": 64, "velocity": 120, "channel": 0}, {"type": "note_off", "time": 93, "note": 64, "velocity": 120, "channel": 0}, {"type": "note_on", "time": 1, "note": 63, "velocity": 119, "channel": 0}, {"type": "note_off", "time": 89, "note": 63, "velocity": 119, "channel": 0}, {"type": "note_on", "time": 0, "note": 62, "velocity": 105, "channel": 0}, {"type": "note_off", "time": 75, "note": 62, "velocity": 105, "channel": 0}, {"type": "note_on", "time": 11, "note": 56, "velocity": 114, "channel": 0}, {"type": "note_off", "time": 77, "note": 56, "velocity": 114, "channel": 0}, {"type": "note_on", "time": 0, "note": 53, "velocity": 108, "channel": 0}, {"type": "note_off", "time": 83, "note": 53, "velocity": 108, "channel": 0}, {"type": "note_on", "time": 1, "note": 58, "velocity": 104, "channel": 0}, {"type": "note_off", "time": 67, "note": 58, "velocity": 104, "channel": 0}, {"type": "note_on", "time": 7, "note": 60, "velocity": 110, "channel": 0}, {"type": "note_off", "time": 75, "note": 60, "velocity": 110, "channel": 0}, {"type": "note_on", "time": 0, "note": 62, "velocity": 115, "channel": 0}, {"type": "note_off", "time": 91, "note": 62, "velocity": 115, "channel": 0}, {"type": "note_on", "time": 5, "note": 65, "velocity": 109, "channel": 0}, {"type": "note_off", "time": 103, "note": 65, "velocity": 109, "channel": 0}, {"type": "note_on", "time": 0, "note": 61, "velocity": 111, "channel": 0}, {"type": "note_off", "time": 184, "note": 61, "velocity": 111, "channel": 0}, {"type": "note_on", "time": 295, "note": 65, "velocity": 112, "channel": 0}, {"type": "note_off", "time": 45, "note": 65, "velocity": 112, "channel": 0}, {"type": "note_on", "time": 1, "note": 66, "velocity": 107, "channel": 0}, {"type": "note_off", "time": 63, "note": 66, "velocity": 107, "channel": 0}, {"type": "note_on", "time": 0, "note": 68, "velocity": 109, "channel": 0}, {"type": "note_off", "time": 79, "note": 68, "velocity": 109, "channel": 0}, {"type": "note_on", "time": 0, "note": 70, "velocity": 107, "channel": 0}, {"type": "note_off", "time": 89, "note": 70, "velocity": 107, "channel": 0}, {"type": "note_on", "time": 35, "note": 73, "velocity": 102, "channel": 0}, {"type": "note_off", "time": 125, "note": 73, "velocity": 102, "channel": 0}, {"type": "note_on", "time": 37, "note": 70, "velocity": 107, "channel": 0}, {"type": "note_off", "time": 69, "note": 70, "velocity": 107, "channel": 0}, {"type": "note_on", "time": 1, "note": 68, "velocity": 112, "channel": 0}, {"type": "note_off", "time": 93, "note": 68, "velocity": 112, "channel": 0}, {"type": "note_on", "time": 17, "note": 66, "velocity": 109, "channel": 0}, {"type": "note_off", "time": 87, "note": 66, "velocity": 109, "channel": 0}, {"type": "note_on", "time": 13, "note": 68, "velocity": 94, "channel": 0}, {"type": "note_off", "time": 57, "note": 68, "velocity": 94, "channel": 0}, {"type": "note_on", "time": 8, "note": 70, "velocity": 107, "channel": 0}, {"type": "note_off", "time": 73, "note": 70, "velocity": 107, "channel": 0}, {"type": "note_on", "time": 9, "note": 71, "velocity": 99, "channel": 0}, {"type": "note_off", "time": 36, "note": 71, "velocity": 99, "channel": 0}, {"type": "note_on", "time": 4, "note": 73, "velocity": 104, "channel": 0}, {"type": "note_off", "time": 33, "note": 73, "velocity": 104, "channel": 0}, {"type": "note_on", "time": 95, "note": 75, "velocity": 98, "channel": 0}, {"type": "note_off", "time": 75, "note": 75, "velocity": 98, "channel": 0}, {"type": "note_on", "time": 21, "note": 72, "velocity": 105, "channel": 0}, {"type": "note_off", "time": 85, "note": 72, "velocity": 105, "channel": 0}, {"type": "note_on", "time": 15, "note": 70, "velocity": 107, "channel": 0}, {"type": "note_off", "time": 87, "note": 70, "velocity": 107, "channel": 0}, {"type": "note_on", "time": 3, "note": 68, "velocity": 113, "channel": 0}, {"type": "note_off", "time": 91, "note": 68, "velocity": 113, "channel": 0}, {"type": "note_on", "time": 3, "note": 70, "velocity": 91, "channel": 0}, {"type": "note_off", "time": 89, "note": 70, "velocity": 91, "channel": 0}, {"type": "note_on", "time": 5, "note": 72, "velocity": 107, "channel": 0}, {"type": "note_off", "time": 85, "note": 72, "velocity": 107, "channel": 0}, {"type": "note_on", "time": 0, "note": 68, "velocity": 90, "channel": 0}, {"type": "note_off", "time": 59, "note": 68, "velocity": 90, "channel": 0}, {"type": "note_on", "time": 0, "note": 70, "velocity": 104, "channel": 0}, {"type": "note_off", "time": 85, "note": 70, "velocity": 104, "channel": 0}, {"type": "note_on", "time": 13, "note": 68, "velocity": 113, "channel": 0}, {"type": "note_off", "time": 115, "note": 68, "velocity": 113, "channel": 0}, {"type": "note_on", "time": 7, "note": 65, "velocity": 111, "channel": 0}, {"type": "note_off", "time": 85, "note": 65, "velocity": 111, "channel": 0}, {"type": "note_on", "time": 15, "note": 61, "velocity": 97, "channel": 0}, {"type": "note_off", "time": 53, "note": 61, "velocity": 97, "channel": 0}, {"type": "note_on", "time": 13, "note": 68, "velocity": 110, "channel": 0}, {"type": "note_off", "time": 97, "note": 68, "velocity": 110, "channel": 0}, {"type": "note_on", "time": 0, "note": 65, "velocity": 111, "channel": 0}, {"type": "note_off", "time": 69, "note": 65, "velocity": 111, "channel": 0}, {"type": "note_on", "time": 19, "note": 61, "velocity": 114, "channel": 0}, {"type": "note_off", "time": 138, "note": 61, "velocity": 114, "channel": 0}, {"type": "note_on", "time": 35, "note": 63, "velocity": 119, "channel": 0}, {"type": "note_off", "time": 99, "note": 63, "velocity": 119, "channel": 0}, {"type": "note_on", "time": 0, "note": 65, "velocity": 110, "channel": 0}, {"type": "note_off", "time": 67, "note": 65, "velocity": 110, "channel": 0}, {"type": "note_on", "time": 0, "note": 60, "velocity": 111, "channel": 0}, {"type": "note_off", "time": 91, "note": 60, "velocity": 111, "channel": 0}, {"type": "note_on", "time": 0, "note": 62, "velocity": 112, "channel": 0}, {"type": "note_off", "time": 87, "note": 62, "velocity": 112, "channel": 0}, {"type": "note_on", "time": 25, "note": 58, "velocity": 98, "channel": 0}, {"type": "note_off", "time": 147, "note": 58, "velocity": 98, "channel": 0}, {"type": "note_on", "time": 741, "note": 70, "velocity": 115, "channel": 0}, {"type": "note_off", "time": 121, "note": 70, "velocity": 115, "channel": 0}, {"type": "note_on", "time": 47, "note": 77, "velocity": 113, "channel": 0}, {"type": "note_off", "time": 57, "note": 77, "velocity": 113, "channel": 0}, {"type": "note_on", "time": 0, "note": 79, "velocity": 119, "channel": 0}, {"type": "note_off", "time": 321, "note": 79, "velocity": 119, "channel": 0}, {"type": "note_on", "time": 13, "note": 77, "velocity": 103, "channel": 0}, {"type": "note_off", "time": 101, "note": 77, "velocity": 103, "channel": 0}, {"type": "note_on", "time": 19, "note": 74, "velocity": 102, "channel": 0}, {"type": "note_off", "time": 91, "note": 74, "velocity": 102, "channel": 0}, {"type": "note_on", "time": 158, "note": 75, "velocity": 107, "channel": 0}, {"type": "note_off", "time": 105, "note": 75, "velocity": 107, "channel": 0}, {"type": "note_on", "time": 15, "note": 74, "velocity": 108, "channel": 0}, {"type": "note_off", "time": 121, "note": 74, "velocity": 108, "channel": 0}, {"type": "note_on", "time": 29, "note": 70, "velocity": 115, "channel": 0}, {"type": "note_off", "time": 99, "note": 70, "velocity": 115, "channel": 0}, {"type": "note_on", "time": 5, "note": 70, "velocity": 110, "channel": 0}, {"type": "note_off", "time": 101, "note": 70, "velocity": 110, "channel": 0}, {"type": "note_on", "time": 15, "note": 68, "velocity": 114, "channel": 0}, {"type": "note_off", "time": 142, "note": 68, "velocity": 114, "channel": 0}, {"type": "note_on", "time": 57, "note": 70, "velocity": 116, "channel": 0}, {"type": "note_off", "time": 145, "note": 70, "velocity": 116, "channel": 0}, {"type": "note_on", "time": 10, "note": 67, "velocity": 81, "channel": 0}, {"type": "note_off", "time": 45, "note": 67, "velocity": 81, "channel": 0}, {"type": "note_on", "time": 510, "note": 70, "velocity": 114, "channel": 0}, {"type": "note_off", "time": 93, "note": 70, "velocity": 114, "channel": 0}, {"type": "note_on", "time": 9, "note": 68, "velocity": 116, "channel": 0}, {"type": "note_off", "time": 73, "note": 68, "velocity": 116, "channel": 0}, {"type": "note_on", "time": 23, "note": 65, "velocity": 115, "channel": 0}, {"type": "note_off", "time": 69, "note": 65, "velocity": 115, "channel": 0}, {"type": "note_on", "time": 11, "note": 58, "velocity": 102, "channel": 0}, {"type": "note_off", "time": 77, "note": 58, "velocity": 102, "channel": 0}, {"type": "note_on", "time": 7, "note": 62, "velocity": 95, "channel": 0}, {"type": "note_off", "time": 73, "note": 62, "velocity": 95, "channel": 0}, {"type": "note_on", "time": 3, "note": 72, "velocity": 103, "channel": 0}, {"type": "note_on", "time": 101, "note": 68, "velocity": 115, "channel": 0}, {"type": "note_off", "time": 0, "note": 72, "velocity": 103, "channel": 0}, {"type": "note_off", "time": 85, "note": 68, "velocity": 115, "channel": 0}, {"type": "note_on", "time": 0, "note": 67, "velocity": 108, "channel": 0}, {"type": "note_off", "time": 73, "note": 67, "velocity": 108, "channel": 0}, {"type": "note_on", "time": 17, "note": 65, "velocity": 110, "channel": 0}, {"type": "note_off", "time": 97, "note": 65, "velocity": 110, "channel": 0}, {"type": "note_on", "time": 60, "note": 70, "velocity": 105, "channel": 0}, {"type": "note_off", "time": 71, "note": 70, "velocity": 105, "channel": 0}, {"type": "note_on", "time": 19, "note": 72, "velocity": 110, "channel": 0}, {"type": "note_off", "time": 89, "note": 72, "velocity": 110, "channel": 0}, {"type": "note_on", "time": 3, "note": 68, "velocity": 115, "channel": 0}, {"type": "note_off", "time": 43, "note": 68, "velocity": 115, "channel": 0}, {"type": "note_on", "time": 3, "note": 67, "velocity": 112, "channel": 0}, {"type": "note_off", "time": 47, "note": 67, "velocity": 112, "channel": 0}, {"type": "note_on", "time": 9, "note": 67, "velocity": 110, "channel": 0}, {"type": "note_off", "time": 73, "note": 67, "velocity": 110, "channel": 0}, {"type": "note_on", "time": 9, "note": 65, "velocity": 111, "channel": 0}, {"type": "note_off", "time": 89, "note": 65, "velocity": 111, "channel": 0}, {"type": "note_on", "time": 23, "note": 58, "velocity": 95, "channel": 0}, {"type": "note_off", "time": 91, "note": 58, "velocity": 95, "channel": 0}, {"type": "note_on", "time": 27, "note": 70, "velocity": 99, "channel": 0}, {"type": "note_off", "time": 41, "note": 70, "velocity": 99, "channel": 0}, {"type": "note_on", "time": 0, "note": 72, "velocity": 104, "channel": 0}, {"type": "note_off", "time": 73, "note": 72, "velocity": 104, "channel": 0}, {"type": "note_on", "time": 9, "note": 68, "velocity": 114, "channel": 0}, {"type": "note_off", "time": 29, "note": 68, "velocity": 114, "channel": 0}, {"type": "note_on", "time": 0, "note": 67, "velocity": 113, "channel": 0}, {"type": "note_off", "time": 57, "note": 67, "velocity": 113, "channel": 0}, {"type": "note_on", "time": 9, "note": 67, "velocity": 109, "channel": 0}, {"type": "note_off", "time": 91, "note": 67, "velocity": 109, "channel": 0}, {"type": "note_on", "time": 5, "note": 65, "velocity": 114, "channel": 0}, {"type": "note_off", "time": 69, "note": 65, "velocity": 114, "channel": 0}, {"type": "note_on", "time": 13, "note": 58, "velocity": 100, "channel": 0}, {"type": "note_off", "time": 35, "note": 58, "velocity": 100, "channel": 0}, {"type": "note_on", "time": 55, "note": 70, "velocity": 111, "channel": 0}, {"type": "note_off", "time": 63, "note": 70, "velocity": 111, "channel": 0}, {"type": "note_on", "time": 13, "note": 72, "velocity": 106, "channel": 0}, {"type": "note_off", "time": 65, "note": 72, "velocity": 106, "channel": 0}, {"type": "note_on", "time": 27, "note": 67, "velocity": 112, "channel": 0}, {"type": "note_off", "time": 49, "note": 67, "velocity": 112, "channel": 0}, {"type": "note_on", "time": 5, "note": 68, "velocity": 111, "channel": 0}, {"type": "note_off", "time": 35, "note": 68, "velocity": 111, "channel": 0}, {"type": "note_on", "time": 0, "note": 67, "velocity": 112, "channel": 0}, {"type": "note_off", "time": 73, "note": 67, "velocity": 112, "channel": 0}, {"type": "note_on", "time": 0, "note": 65, "velocity": 111, "channel": 0}, {"type": "note_off", "time": 95, "note": 65, "velocity": 111, "channel": 0}, {"type": "note_on", "time": 7, "note": 62, "velocity": 99, "channel": 0}, {"type": "note_off", "time": 79, "note": 62, "velocity": 99, "channel": 0}, {"type": "note_on", "time": 1, "note": 58, "velocity": 101, "channel": 0}, {"type": "note_off", "time": 101, "note": 58, "velocity": 101, "channel": 0}, {"type": "note_on", "time": 0, "note": 72, "velocity": 105, "channel": 0}, {"type": "note_on", "time": 91, "note": 68, "velocity": 116, "channel": 0}, {"type": "note_off", "time": 0, "note": 72, "velocity": 105, "channel": 0}, {"type": "note_off", "time": 87, "note": 68, "velocity": 116, "channel": 0}, {"type": "note_on", "time": 1, "note": 67, "velocity": 113, "channel": 0}, {"type": "note_off", "time": 77, "note": 67, "velocity": 113, "channel": 0}, {"type": "note_on", "time": 5, "note": 65, "velocity": 114, "channel": 0}, {"type": "note_off", "time": 97, "note": 65, "velocity": 114, "channel": 0}, {"type": "note_on", "time": 31, "note": 58, "velocity": 97, "channel": 0}, {"type": "note_off", "time": 65, "note": 58, "velocity": 97, "channel": 0}, {"type": "note_on", "time": 0, "note": 70, "velocity": 107, "channel": 0}, {"type": "note_off", "time": 67, "note": 70, "velocity": 107, "channel": 0}, {"type": "note_on", "time": 3, "note": 72, "velocity": 101, "channel": 0}, {"type": "note_on", "time": 95, "note": 67, "velocity": 114, "channel": 0}, {"type": "note_off", "time": 0, "note": 72, "velocity": 101, "channel": 0}, {"type": "note_off", "time": 99, "note": 67, "velocity": 114, "channel": 0}, {"type": "note_on", "time": 0, "note": 67, "velocity": 109, "channel": 0}, {"type": "note_off", "time": 83, "note": 67, "velocity": 109, "channel": 0}, {"type": "note_on", "time": 22, "note": 65, "velocity": 113, "channel": 0}, {"type": "note_off", "time": 74, "note": 65, "velocity": 113, "channel": 0}, {"type": "note_on", "time": 5, "note": 61, "velocity": 104, "channel": 0}, {"type": "note_off", "time": 61, "note": 61, "velocity": 104, "channel": 0}, {"type": "note_on", "time": 7, "note": 70, "velocity": 99, "channel": 0}, {"type": "note_off", "time": 246, "note": 70, "velocity": 99, "channel": 0}, {"type": "note_on", "time": 659, "note": 63, "velocity": 127, "channel": 0}, {"type": "note_off", "time": 82, "note": 63, "velocity": 127, "channel": 0}, {"type": "note_on", "time": 28, "note": 68, "velocity": 118, "channel": 0}, {"type": "note_off", "time": 72, "note": 68, "velocity": 118, "channel": 0}, {"type": "note_on", "time": 1, "note": 65, "velocity": 118, "channel": 0}, {"type": "note_off", "time": 99, "note": 65, "velocity": 118, "channel": 0}, {"type": "note_on", "time": 3, "note": 63, "velocity": 119, "channel": 0}, {"type": "note_off", "time": 93, "note": 63, "velocity": 119, "channel": 0}, {"type": "note_on", "time": 3, "note": 61, "velocity": 118, "channel": 0}, {"type": "note_on", "time": 113, "note": 56, "velocity": 110, "channel": 0}, {"type": "note_off", "time": 0, "note": 61, "velocity": 118, "channel": 0}, {"type": "note_off", "time": 49, "note": 56, "velocity": 110, "channel": 0}, {"type": "note_on", "time": 0, "note": 63, "velocity": 122, "channel": 0}, {"type": "note_off", "time": 89, "note": 63, "velocity": 122, "channel": 0}, {"type": "note_on", "time": 9, "note": 65, "velocity": 114, "channel": 0}, {"type": "note_off", "time": 71, "note": 65, "velocity": 114, "channel": 0}, {"type": "note_on", "time": 0, "note": 66, "velocity": 111, "channel": 0}, {"type": "note_off", "time": 89, "note": 66, "velocity": 111, "channel": 0}, {"type": "note_on", "time": 9, "note": 68, "velocity": 116, "channel": 0}, {"type": "note_off", "time": 75, "note": 68, "velocity": 116, "channel": 0}, {"type": "note_on", "time": 0, "note": 65, "velocity": 110, "channel": 0}, {"type": "note_off", "time": 95, "note": 65, "velocity": 110, "channel": 0}, {"type": "note_on", "time": 3, "note": 68, "velocity": 111, "channel": 0}, {"type": "note_off", "time": 69, "note": 68, "velocity": 111, "channel": 0}, {"type": "note_on", "time": 0, "note": 73, "velocity": 111, "channel": 0}, {"type": "note_off", "time": 93, "note": 73, "velocity": 111, "channel": 0}, {"type": "note_on", "time": 5, "note": 75, "velocity": 119, "channel": 0}, {"type": "note_off", "time": 93, "note": 75, "velocity": 119, "channel": 0}, {"type": "note_on", "time": 11, "note": 77, "velocity": 107, "channel": 0}, {"type": "note_off", "time": 154, "note": 77, "velocity": 107, "channel": 0}, {"type": "note_on", "time": 7, "note": 75, "velocity": 115, "channel": 0}, {"type": "note_off", "time": 101, "note": 75, "velocity": 115, "channel": 0}, {"type": "note_on", "time": 5, "note": 73, "velocity": 111, "channel": 0}, {"type": "note_off", "time": 127, "note": 73, "velocity": 111, "channel": 0}, {"type": "note_on", "time": 9, "note": 73, "velocity": 105, "channel": 0}, {"type": "note_off", "time": 111, "note": 73, "velocity": 105, "channel": 0}, {"type": "note_on", "time": 8, "note": 68, "velocity": 119, "channel": 0}, {"type": "note_off", "time": 80, "note": 68, "velocity": 119, "channel": 0}, {"type": "note_on", "time": 11, "note": 67, "velocity": 102, "channel": 0}, {"type": "note_off", "time": 43, "note": 67, "velocity": 102, "channel": 0}, {"type": "note_on", "time": 394, "note": 78, "velocity": 120, "channel": 0}, {"type": "note_off", "time": 68, "note": 78, "velocity": 120, "channel": 0}, {"type": "note_on", "time": 6, "note": 79, "velocity": 117, "channel": 0}, {"type": "note_off", "time": 367, "note": 79, "velocity": 117, "channel": 0}, {"type": "note_on", "time": 0, "note": 75, "velocity": 121, "channel": 0}, {"type": "note_off", "time": 123, "note": 75, "velocity": 121, "channel": 0}, {"type": "note_on", "time": 5, "note": 70, "velocity": 107, "channel": 0}, {"type": "note_off", "time": 63, "note": 70, "velocity": 107, "channel": 0}, {"type": "note_on", "time": 9, "note": 68, "velocity": 118, "channel": 0}, {"type": "note_off", "time": 91, "note": 68, "velocity": 118, "channel": 0}, {"type": "note_on", "time": 10, "note": 67, "velocity": 114, "channel": 0}, {"type": "note_off", "time": 56, "note": 67, "velocity": 114, "channel": 0}, {"type": "note_on", "time": 15, "note": 63, "velocity": 121, "channel": 0}, {"type": "note_off", "time": 77, "note": 63, "velocity": 121, "channel": 0}, {"type": "note_on", "time": 28, "note": 58, "velocity": 99, "channel": 0}, {"type": "note_off", "time": 80, "note": 58, "velocity": 99, "channel": 0}, {"type": "note_on", "time": 13, "note": 55, "velocity": 102, "channel": 0}, {"type": "note_off", "time": 55, "note": 55, "velocity": 102, "channel": 0}, {"type": "note_on", "time": 13, "note": 65, "velocity": 109, "channel": 0}, {"type": "note_off", "time": 250, "note": 65, "velocity": 109, "channel": 0}, {"type": "note_on", "time": 569, "note": 58, "velocity": 101, "channel": 0}, {"type": "note_off", "time": 75, "note": 58, "velocity": 101, "channel": 0}, {"type": "note_on", "time": 7, "note": 63, "velocity": 120, "channel": 0}, {"type": "note_off", "time": 75, "note": 63, "velocity": 120, "channel": 0}, {"type": "note_on", "time": 0, "note": 65, "velocity": 115, "channel": 0}, {"type": "note_off", "time": 93, "note": 65, "velocity": 115, "channel": 0}, {"type": "note_on", "time": 5, "note": 62, "velocity": 118, "channel": 0}, {"type": "note_off", "time": 81, "note": 62, "velocity": 118, "channel": 0}, {"type": "note_on", "time": 3, "note": 60, "velocity": 116, "channel": 0}, {"type": "note_off", "time": 91, "note": 60, "velocity": 116, "channel": 0}, {"type": "note_on", "time": 9, "note": 58, "velocity": 101, "channel": 0}, {"type": "note_off", "time": 63, "note": 58, "velocity": 101, "channel": 0}, {"type": "note_on", "time": 7, "note": 53, "velocity": 95, "channel": 0}, {"type": "note_off", "time": 81, "note": 53, "velocity": 95, "channel": 0}, {"type": "note_on", "time": 5, "note": 56, "velocity": 104, "channel": 0}, {"type": "note_off", "time": 89, "note": 56, "velocity": 104, "channel": 0}, {"type": "note_on", "time": 7, "note": 58, "velocity": 104, "channel": 0}, {"type": "note_off", "time": 69, "note": 58, "velocity": 104, "channel": 0}, {"type": "note_on", "time": 19, "note": 60, "velocity": 116, "channel": 0}, {"type": "note_off", "time": 69, "note": 60, "velocity": 116, "channel": 0}, {"type": "note_on", "time": 0, "note": 63, "velocity": 118, "channel": 0}, {"type": "note_off", "time": 113, "note": 63, "velocity": 118, "channel": 0}, {"type": "note_on", "time": 1, "note": 62, "velocity": 110, "channel": 0}, {"type": "note_off", "time": 208, "note": 62, "velocity": 110, "channel": 0}, {"type": "note_on", "time": 226, "note": 58, "velocity": 101, "channel": 0}, {"type": "note_off", "time": 101, "note": 58, "velocity": 101, "channel": 0}, {"type": "note_on", "time": 13, "note": 62, "velocity": 122, "channel": 0}, {"type": "note_off", "time": 127, "note": 62, "velocity": 122, "channel": 0}, {"type": "note_on", "time": 5, "note": 65, "velocity": 115, "channel": 0}, {"type": "note_off", "time": 105, "note": 65, "velocity": 115, "channel": 0}, {"type": "note_on", "time": 31, "note": 70, "velocity": 110, "channel": 0}, {"type": "note_off", "time": 101, "note": 70, "velocity": 110, "channel": 0}, {"type": "note_on", "time": 9, "note": 72, "velocity": 107, "channel": 0}, {"type": "note_off", "time": 113, "note": 72, "velocity": 107, "channel": 0}, {"type": "note_on", "time": 19, "note": 73, "velocity": 111, "channel": 0}, {"type": "note_off", "time": 111, "note": 73, "velocity": 111, "channel": 0}, {"type": "note_on", "time": 0, "note": 72, "velocity": 107, "channel": 0}, {"type": "note_off", "time": 101, "note": 72, "velocity": 107, "channel": 0}, {"type": "note_on", "time": 5, "note": 70, "velocity": 109, "channel": 0}, {"type": "note_off", "time": 289, "note": 70, "velocity": 109, "channel": 0}, {"type": "note_on", "time": 17, "note": 72, "velocity": 100, "channel": 0}, {"type": "note_off", "time": 105, "note": 72, "velocity": 100, "channel": 0}, {"type": "note_on", "time": 1, "note": 73, "velocity": 102, "channel": 0}, {"type": "note_off", "time": 63, "note": 73, "velocity": 102, "channel": 0}, {"type": "note_on", "time": 5, "note": 72, "velocity": 104, "channel": 0}, {"type": "note_off", "time": 264, "note": 72, "velocity": 104, "channel": 0}, {"type": "note_on", "time": 3, "note": 70, "velocity": 103, "channel": 0}, {"type": "note_off", "time": 69, "note": 70, "velocity": 103, "channel": 0}, {"type": "note_on", "time": 9, "note": 72, "velocity": 101, "channel": 0}, {"type": "note_off", "time": 192, "note": 72, "velocity": 101, "channel": 0}, {"type": "note_on", "time": 7, "note": 68, "velocity": 111, "channel": 0}, {"type": "note_off", "time": 176, "note": 68, "velocity": 111, "channel": 0}, {"type": "note_on", "time": 9, "note": 71, "velocity": 104, "channel": 0}, {"type": "note_off", "time": 113, "note": 71, "velocity": 104, "channel": 0}, {"type": "note_on", "time": 0, "note": 70, "velocity": 105, "channel": 0}, {"type": "note_off", "time": 51, "note": 70, "velocity": 105, "channel": 0}, {"type": "note_on", "time": 17, "note": 68, "velocity": 111, "channel": 0}, {"type": "note_off", "time": 162, "note": 68, "velocity": 111, "channel": 0}, {"type": "note_on", "time": 3, "note": 68, "velocity": 110, "channel": 0}, {"type": "note_off", "time": 105, "note": 68, "velocity": 110, "channel": 0}, {"type": "note_on", "time": 0, "note": 70, "velocity": 103, "channel": 0}, {"type": "note_off", "time": 61, "note": 70, "velocity": 103, "channel": 0}, {"type": "note_on", "time": 0, "note": 71, "velocity": 102, "channel": 0}, {"type": "note_off", "time": 105, "note": 71, "velocity": 102, "channel": 0}, {"type": "note_on", "time": 3, "note": 73, "velocity": 98, "channel": 0}, {"type": "note_off", "time": 83, "note": 73, "velocity": 98, "channel": 0}, {"type": "note_on", "time": 9, "note": 70, "velocity": 103, "channel": 0}, {"type": "note_off", "time": 174, "note": 70, "velocity": 103, "channel": 0}, {"type": "note_on", "time": 19, "note": 73, "velocity": 99, "channel": 0}, {"type": "note_off", "time": 65, "note": 73, "velocity": 99, "channel": 0}, {"type": "note_on", "time": 94, "note": 66, "velocity": 99, "channel": 0}, {"type": "note_off", "time": 194, "note": 66, "velocity": 99, "channel": 0}, {"type": "note_on", "time": 189, "note": 65, "velocity": 115, "channel": 0}, {"type": "note_off", "time": 75, "note": 65, "velocity": 115, "channel": 0}, {"type": "note_on", "time": 11, "note": 63, "velocity": 122, "channel": 0}, {"type": "note_off", "time": 97, "note": 63, "velocity": 122, "channel": 0}, {"type": "note_on", "time": 7, "note": 62, "velocity": 115, "channel": 0}, {"type": "note_off", "time": 148, "note": 62, "velocity": 115, "channel": 0}, {"type": "note_on", "time": 9, "note": 62, "velocity": 111, "channel": 0}, {"type": "note_off", "time": 156, "note": 62, "velocity": 111, "channel": 0}, {"type": "note_on", "time": 17, "note": 63, "velocity": 111, "channel": 0}, {"type": "note_off", "time": 71, "note": 63, "velocity": 111, "channel": 0}, {"type": "note_on", "time": 15, "note": 65, "velocity": 102, "channel": 0}, {"type": "note_off", "time": 83, "note": 65, "velocity": 102, "channel": 0}, {"type": "note_on", "time": 0, "note": 63, "velocity": 119, "channel": 0}, {"type": "note_off", "time": 81, "note": 63, "velocity": 119, "channel": 0}, {"type": "note_on", "time": 0, "note": 62, "velocity": 115, "channel": 0}, {"type": "note_off", "time": 83, "note": 62, "velocity": 115, "channel": 0}, {"type": "note_on", "time": 25, "note": 60, "velocity": 116, "channel": 0}, {"type": "note_off", "time": 89, "note": 60, "velocity": 116, "channel": 0}, {"type": "note_on", "time": 101, "note": 67, "velocity": 105, "channel": 0}, {"type": "note_off", "time": 93, "note": 67, "velocity": 105, "channel": 0}, {"type": "note_on", "time": 0, "note": 69, "velocity": 106, "channel": 0}, {"type": "note_off", "time": 95, "note": 69, "velocity": 106, "channel": 0}, {"type": "note_on", "time": 13, "note": 70, "velocity": 91, "channel": 0}, {"type": "note_off", "time": 393, "note": 70, "velocity": 91, "channel": 0}, {"type": "note_on", "time": 7, "note": 72, "velocity": 93, "channel": 0}, {"type": "note_off", "time": 21, "note": 72, "velocity": 93, "channel": 0}, {"type": "note_on", "time": 0, "note": 70, "velocity": 93, "channel": 0}, {"type": "note_off", "time": 21, "note": 70, "velocity": 93, "channel": 0}, {"type": "note_on", "time": 7, "note": 72, "velocity": 89, "channel": 0}, {"type": "note_off", "time": 35, "note": 72, "velocity": 89, "channel": 0}, {"type": "note_on", "time": 0, "note": 70, "velocity": 89, "channel": 0}, {"type": "note_off", "time": 21, "note": 70, "velocity": 89, "channel": 0}, {"type": "note_on", "time": 11, "note": 72, "velocity": 89, "channel": 0}, {"type": "note_off", "time": 27, "note": 72, "velocity": 89, "channel": 0}, {"type": "note_on", "time": 11, "note": 70, "velocity": 97, "channel": 0}, {"type": "note_off", "time": 25, "note": 70, "velocity": 97, "channel": 0}, {"type": "note_on", "time": 5, "note": 72, "velocity": 98, "channel": 0}, {"type": "note_off", "time": 35, "note": 72, "velocity": 98, "channel": 0}, {"type": "note_on", "time": 13, "note": 70, "velocity": 99, "channel": 0}, {"type": "note_off", "time": 27, "note": 70, "velocity": 99, "channel": 0}, {"type": "note_on", "time": 7, "note": 72, "velocity": 102, "channel": 0}, {"type": "note_off", "time": 25, "note": 72, "velocity": 102, "channel": 0}, {"type": "note_on", "time": 7, "note": 70, "velocity": 102, "channel": 0}, {"type": "note_off", "time": 21, "note": 70, "velocity": 102, "channel": 0}, {"type": "note_on", "time": 17, "note": 72, "velocity": 103, "channel": 0}, {"type": "note_off", "time": 29, "note": 72, "velocity": 103, "channel": 0}, {"type": "note_on", "time": 7, "note": 70, "velocity": 102, "channel": 0}, {"type": "note_off", "time": 27, "note": 70, "velocity": 102, "channel": 0}, {"type": "note_on", "time": 0, "note": 72, "velocity": 103, "channel": 0}, {"type": "note_off", "time": 41, "note": 72, "velocity": 103, "channel": 0}, {"type": "note_on", "time": 0, "note": 70, "velocity": 103, "channel": 0}, {"type": "note_off", "time": 31, "note": 70, "velocity": 103, "channel": 0}, {"type": "note_on", "time": 0, "note": 72, "velocity": 101, "channel": 0}, {"type": "note_off", "time": 29, "note": 72, "velocity": 101, "channel": 0}, {"type": "note_on", "time": 9, "note": 70, "velocity": 104, "channel": 0}, {"type": "note_off", "time": 33, "note": 70, "velocity": 104, "channel": 0}, {"type": "note_on", "time": 0, "note": 72, "velocity": 100, "channel": 0}, {"type": "note_off", "time": 41, "note": 72, "velocity": 100, "channel": 0}, {"type": "note_on", "time": 5, "note": 70, "velocity": 103, "channel": 0}, {"type": "note_off", "time": 21, "note": 70, "velocity": 103, "channel": 0}, {"type": "note_on", "time": 0, "note": 72, "velocity": 98, "channel": 0}, {"type": "note_off", "time": 43, "note": 72, "velocity": 98, "channel": 0}, {"type": "note_on", "time": 0, "note": 70, "velocity": 97, "channel": 0}, {"type": "note_off", "time": 27, "note": 70, "velocity": 97, "channel": 0}, {"type": "note_on", "time": 0, "note": 72, "velocity": 94, "channel": 0}, {"type": "note_off", "time": 35, "note": 72, "velocity": 94, "channel": 0}, {"type": "note_on", "time": 7, "note": 70, "velocity": 93, "channel": 0}, {"type": "note_off", "time": 19, "note": 70, "velocity": 93, "channel": 0}, {"type": "note_on", "time": 7, "note": 72, "velocity": 90, "channel": 0}, {"type": "note_off", "time": 23, "note": 72, "velocity": 90, "channel": 0}, {"type": "note_on", "time": 0, "note": 70, "velocity": 86, "channel": 0}, {"type": "note_off", "time": 33, "note": 70, "velocity": 86, "channel": 0}, {"type": "note_on", "time": 17, "note": 72, "velocity": 86, "channel": 0}, {"type": "note_off", "time": 17, "note": 72, "velocity": 86, "channel": 0}, {"type": "note_on", "time": 13, "note": 70, "velocity": 81, "channel": 0}, {"type": "note_off", "time": 29, "note": 70, "velocity": 81, "channel": 0}, {"type": "note_on", "time": 1, "note": 72, "velocity": 83, "channel": 0}, {"type": "note_off", "time": 29, "note": 72, "velocity": 83, "channel": 0}, {"type": "note_on", "time": 7, "note": 70, "velocity": 80, "channel": 0}, {"type": "note_off", "time": 31, "note": 70, "velocity": 80, "channel": 0}, {"type": "note_on", "time": 0, "note": 72, "velocity": 84, "channel": 0}, {"type": "note_off", "time": 33, "note": 72, "velocity": 84, "channel": 0}, {"type": "note_on", "time": 0, "note": 70, "velocity": 78, "channel": 0}, {"type": "note_off", "time": 33, "note": 70, "velocity": 78, "channel": 0}, {"type": "note_on", "time": 11, "note": 72, "velocity": 77, "channel": 0}, {"type": "note_off", "time": 21, "note": 72, "velocity": 77, "channel": 0}, {"type": "note_on", "time": 3, "note": 70, "velocity": 77, "channel": 0}, {"type": "note_off", "time": 27, "note": 70, "velocity": 77, "channel": 0}, {"type": "note_on", "time": 7, "note": 72, "velocity": 71, "channel": 0}, {"type": "note_off", "time": 37, "note": 72, "velocity": 71, "channel": 0}, {"type": "note_on", "time": 13, "note": 70, "velocity": 73, "channel": 0}, {"type": "note_off", "time": 29, "note": 70, "velocity": 73, "channel": 0}, {"type": "note_on", "time": 21, "note": 72, "velocity": 73, "channel": 0}, {"type": "note_off", "time": 27, "note": 72, "velocity": 73, "channel": 0}, {"type": "note_on", "time": 1, "note": 70, "velocity": 73, "channel": 0}, {"type": "note_off", "time": 25, "note": 70, "velocity": 73, "channel": 0}, {"type": "note_on", "time": 0, "note": 72, "velocity": 76, "channel": 0}, {"type": "note_off", "time": 31, "note": 72, "velocity": 76, "channel": 0}, {"type": "note_on", "time": 9, "note": 70, "velocity": 70, "channel": 0}, {"type": "note_off", "time": 39, "note": 70, "velocity": 70, "channel": 0}, {"type": "note_on", "time": 3, "note": 72, "velocity": 74, "channel": 0}, {"type": "note_off", "time": 35, "note": 72, "velocity": 74, "channel": 0}, {"type": "note_on", "time": 3, "note": 70, "velocity": 73, "channel": 0}, {"type": "note_off", "time": 37, "note": 70, "velocity": 73, "channel": 0}, {"type": "note_on", "time": 1, "note": 72, "velocity": 75, "channel": 0}, {"type": "note_off", "time": 31, "note": 72, "velocity": 75, "channel": 0}, {"type": "note_on", "time": 1, "note": 70, "velocity": 70, "channel": 0}, {"type": "note_off", "time": 39, "note": 70, "velocity": 70, "channel": 0}, {"type": "note_on", "time": 3, "note": 72, "velocity": 69, "channel": 0}, {"type": "note_off", "time": 55, "note": 72, "velocity": 69, "channel": 0}, {"type": "note_on", "time": 13, "note": 73, "velocity": 78, "channel": 0}, {"type": "note_off", "time": 73, "note": 73, "velocity": 78, "channel": 0}, {"type": "end_of_track", "time": 0}]]}