{"ticks_per_beat": 192, "tracks": [[{"type": "track_name", "name": "Melody", "time": 0}, {"type": "set_tempo", "tempo": 283018, "time": 0}, {"type": "key_signature", "key": "Db", "time": 0}, {"type": "time_signature", "numerator": 4, "denominator": 4, "clocks_per_click": 24, "notated_32nd_notes_per_beat": 8, "time": 0}, {"type": "note_on", "time": 5627, "note": 51, "velocity": 114, "channel": 0}, {"type": "note_off", "time": 80, "note": 51, "velocity": 114, "channel": 0}, {"type": "note_on", "time": 99, "note": 58, "velocity": 110, "channel": 0}, {"type": "note_off", "time": 163, "note": 58, "velocity": 110, "channel": 0}, {"type": "note_on", "time": 454, "note": 51, "velocity": 111, "channel": 0}, {"type": "note_off", "time": 98, "note": 51, "velocity": 111, "channel": 0}, {"type": "note_on", "time": 82, "note": 58, "velocity": 112, "channel": 0}, {"type": "note_off", "time": 122, "note": 58, "velocity": 112, "channel": 0}, {"type": "note_on", "time": 3, "note": 63, "velocity": 117, "channel": 0}, {"type": "note_off", "time": 77, "note": 63, "velocity": 117, "channel": 0}, {"type": "note_on", "time": 449, "note": 51, "velocity": 91, "channel": 0}, {"type": "note_off", "time": 67, "note": 51, "velocity": 91, "channel": 0}, {"type": "note_on", "time": 48, "note": 58, "velocity": 103, "channel": 0}, {"type": "note_off", "time": 129, "note": 58, "velocity": 103, "channel": 0}, {"type": "note_on", "time": 55, "note": 63, "velocity": 118, "channel": 0}, {"type": "note_off", "time": 163, "note": 63, "velocity": 118, "channel": 0}, {"type": "note_on", "time": 3, "note": 58, "velocity": 97, "channel": 0}, {"type": "note_off", "time": 39, "note": 58, "velocity": 97, "channel": 0}, {"type": "note_on", "time": 12, "note": 65, "velocity": 105, "channel": 0}, {"type": "note_off", "time": 206, "note": 65, "velocity": 105, "channel": 0}, {"type": "note_on", "time": 589, "note": 63, "velocity": 116, "channel": 0}, {"type": "note_off", "time": 125, "note": 63, "velocity": 116, "channel": 0}, {"type": "note_on", "time": 68, "note": 68, "velocity": 120, "channel": 0}, {"type": "note_off", "time": 120, "note": 68, "velocity": 120, "channel": 0}, {"type": "note_on", "time": 103, "note": 65, "velocity": 99, "channel": 0}, {"type": "note_off", "time": 113, "note": 65, "velocity": 99, "channel": 0}, {"type": "note_on", "time": 55, "note": 68, "velocity": 113, "channel": 0}, {"type": "note_off", "time": 132, "note": 68, "velocity": 113, "channel": 0}, {"type": "note_on", "time": 5, "note": 68, "velocity": 106, "channel": 0}, {"type": "note_off", "time": 74, "note": 68, "velocity": 106, "channel": 0}, {"type": "note_on", "time": 7, "note": 63, "velocity": 98, "channel": 0}, {"type": "note_off", "time": 111, "note": 63, "velocity": 98, "channel": 0}, {"type": "note_on", "time": 80, "note": 68, "velocity": 110, "channel": 0}, {"type": "note_off", "time": 139, "note": 68, "velocity": 110, "channel": 0}, {"type": "note_on", "time": 55, "note": 65, "velocity": 101, "channel": 0}, {"type": "note_off", "time": 120, "note": 65, "velocity": 101, "channel": 0}, {"type": "note_on", "time": 96, "note": 66, "velocity": 109, "channel": 0}, {"type": "note_off", "time": 77, "note": 66, "velocity": 109, "channel": 0}, {"type": "note_on", "time": 117, "note": 68, "velocity": 107, "channel": 0}, {"type": "note_off", "time": 106, "note": 68, "velocity": 107, "channel": 0}, {"type": "note_on", "time": 304, "note": 71, "velocity": 122, "channel": 0}, {"type": "note_off", "time": 84, "note": 71, "velocity": 122, "channel": 0}, {"type": "note_on", "time": 11, "note": 70, "velocity": 110, "channel": 0}, {"type": "note_off", "time": 34, "note": 70, "velocity": 110, "channel": 0}, {"type": "note_on", "time": 2, "note": 71, "velocity": 109, "channel": 0}, {"type": "note_off", "time": 22, "note": 71, "velocity": 109, "channel": 0}, {"type": "note_on", "time": 2, "note": 69, "velocity": 105, "channel": 0}, {"type": "note_off", "time": 23, "note": 69, "velocity": 105, "channel": 0}, {"type": "note_on", "time": 8, "note": 68, "velocity": 106, "channel": 0}, {"type": "note_off", "time": 77, "note": 68, "velocity": 106, "channel": 0}, {"type": "note_on", "time": 44, "note": 66, "velocity": 106, "channel": 0}, {"type": "note_off", "time": 74, "note": 66, "velocity": 106, "channel": 0}, {"type": "note_on", "time": 27, "note": 65, "velocity": 100, "channel": 0}, {"type": "note_off", "time": 80, "note": 65, "velocity": 100, "channel": 0}, {"type": "note_on", "time": 5, "note": 66, "velocity": 106, "channel": 0}, {"type": "note_off", "time": 79, "note": 66, "velocity": 106, "channel": 0}, {"type": "note_on", "time": 12, "note": 65, "velocity": 104, "channel": 0}, {"type": "note_off", "time": 93, "note": 65, "velocity": 104, "channel": 0}, {"type": "note_on", "time": 5, "note": 63, "velocity": 118, "channel": 0}, {"type": "note_off", "time": 86, "note": 63, "velocity": 118, "channel": 0}, {"type": "note_on", "time": 15, "note": 62, "velocity": 118, "channel": 0}, {"type": "note_off", "time": 84, "note": 62, "velocity": 118, "channel": 0}, {"type": "note_on", "time": 103, "note": 57, "velocity": 111, "channel": 0}, {"type": "note_off", "time": 130, "note": 57, "velocity": 111, "channel": 0}, {"type": "note_on", "time": 58, "note": 59, "velocity": 103, "channel": 0}, {"type": "note_off", "time": 99, "note": 59, "velocity": 103, "channel": 0}, {"type": "note_on", "time": 110, "note": 64, "velocity": 116, "channel": 0}, {"type": "note_off", "time": 113, "note": 64, "velocity": 116, "channel": 0}, {"type": "note_on", "time": 20, "note": 59, "velocity": 101, "channel": 0}, {"type": "note_off", "time": 34, "note": 59, "velocity": 101, "channel": 0}, {"type": "note_on", "time": 20, "note": 66, "velocity": 109, "channel": 0}, {"type": "note_off", "time": 98, "note": 66, "velocity": 109, "channel": 0}, {"type": "note_on", "time": 101, "note": 69, "velocity": 115, "channel": 0}, {"type": "note_off", "time": 98, "note": 69, "velocity": 115, "channel": 0}, {"type": "note_on", "time": 90, "note": 70, "velocity": 101, "channel": 0}, {"type": "note_off", "time": 277, "note": 70, "velocity": 101, "channel": 0}, {"type": "note_on", "time": 469, "note": 65, "velocity": 98, "channel": 0}, {"type": "note_off", "time": 36, "note": 65, "velocity": 98, "channel": 0}, {"type": "note_on", "time": 41, "note": 68, "velocity": 119, "channel": 0}, {"type": "note_off", "time": 91, "note": 68, "velocity": 119, "channel": 0}, {"type": "note_on", "time": 27, "note": 66, "velocity": 102, "channel": 0}, {"type": "note_off", "time": 53, "note": 66, "velocity": 102, "channel": 0}, {"type": "note_on", "time": 54, "note": 62, "velocity": 98, "channel": 0}, {"type": "note_off", "time": 47, "note": 62, "velocity": 98, "channel": 0}, {"type": "note_on", "time": 8, "note": 65, "velocity": 114, "channel": 0}, {"type": "note_off", "time": 67, "note": 65, "velocity": 114, "channel": 0}, {"type": "note_on", "time": 24, "note": 64, "velocity": 106, "channel": 0}, {"type": "note_off", "time": 93, "note": 64, "velocity": 106, "channel": 0}, {"type": "note_on", "time": 18, "note": 62, "velocity": 104, "channel": 0}, {"type": "note_off", "time": 48, "note": 62, "velocity": 104, "channel": 0}, {"type": "note_on", "time": 20, "note": 63, "velocity": 118, "channel": 0}, {"type": "note_off", "time": 106, "note": 63, "velocity": 118, "channel": 0}, {"type": "note_on", "time": 44, "note": 58, "velocity": 97, "channel": 0}, {"type": "note_off", "time": 46, "note": 58, "velocity": 97, "channel": 0}, {"type": "note_on", "time": 10, "note": 61, "velocity": 123, "channel": 0}, {"type": "note_off", "time": 99, "note": 61, "velocity": 123, "channel": 0}, {"type": "note_on", "time": 27, "note": 58, "velocity": 110, "channel": 0}, {"type": "note_off", "time": 65, "note": 58, "velocity": 110, "channel": 0}, {"type": "note_on", "time": 5, "note": 54, "velocity": 98, "channel": 0}, {"type": "note_off", "time": 106, "note": 54, "velocity": 98, "channel": 0}, {"type": "note_on", "time": 24, "note": 51, "velocity": 96, "channel": 0}, {"type": "note_off", "time": 25, "note": 51, "velocity": 96, "channel": 0}, {"type": "note_on", "time": 41, "note": 60, "velocity": 124, "channel": 0}, {"type": "note_off", "time": 115, "note": 60, "velocity": 124, "channel": 0}, {"type": "note_on", "time": 6, "note": 58, "velocity": 110, "channel": 0}, {"type": "note_off", "time": 68, "note": 58, "velocity": 110, "channel": 0}, {"type": "note_on", "time": 17, "note": 56, "velocity": 106, "channel": 0}, {"type": "note_off", "time": 74, "note": 56, "velocity": 106, "channel": 0}, {"type": "note_on", "time": 48, "note": 54, "velocity": 103, "channel": 0}, {"type": "note_off", "time": 77, "note": 54, "velocity": 103, "channel": 0}, {"type": "note_on", "time": 8, "note": 53, "velocity": 95, "channel": 0}, {"type": "note_off", "time": 67, "note": 53, "velocity": 95, "channel": 0}, {"type": "note_on", "time": 60, "note": 56, "velocity": 105, "channel": 0}, {"type": "note_off", "time": 53, "note": 56, "velocity": 105, "channel": 0}, {"type": "note_on", "time": 6, "note": 58, "velocity": 98, "channel": 0}, {"type": "note_off", "time": 84, "note": 58, "velocity": 98, "channel": 0}, {"type": "note_on", "time": 12, "note": 60, "velocity": 111, "channel": 0}, {"type": "note_off", "time": 72, "note": 60, "velocity": 111, "channel": 0}, {"type": "note_on", "time": 12, "note": 63, "velocity": 124, "channel": 0}, {"type": "note_off", "time": 110, "note": 63, "velocity": 124, "channel": 0}, {"type": "note_on", "time": 13, "note": 60, "velocity": 113, "channel": 0}, {"type": "note_off", "time": 91, "note": 60, "velocity": 113, "channel": 0}, {"type": "note_on", "time": 10, "note": 61, "velocity": 101, "channel": 0}, {"type": "note_off", "time": 56, "note": 61, "velocity": 101, "channel": 0}, {"type": "note_on", "time": 22, "note": 63, "velocity": 108, "channel": 0}, {"type": "note_off", "time": 75, "note": 63, "velocity": 108, "channel": 0}, {"type": "note_on", "time": 44, "note": 64, "velocity": 115, "channel": 0}, {"type": "note_off", "time": 60, "note": 64, "velocity": 115, "channel": 0}, {"type": "note_on", "time": 18, "note": 65, "velocity": 100, "channel": 0}, {"type": "note_off", "time": 75, "note": 65, "velocity": 100, "channel": 0}, {"type": "note_on", "time": 27, "note": 70, "velocity": 113, "channel": 0}, {"type": "note_off", "time": 101, "note": 70, "velocity": 113, "channel": 0}, {"type": "note_on", "time": 6, "note": 68, "velocity": 110, "channel": 0}, {"type": "note_off", "time": 80, "note": 68, "velocity": 110, "channel": 0}, {"type": "note_on", "time": 31, "note": 66, "velocity": 103, "channel": 0}, {"type": "note_off", "time": 77, "note": 66, "velocity": 103, "channel": 0}, {"type": "note_on", "time": 318, "note": 68, "velocity": 116, "channel": 0}, {"type": "note_off", "time": 98, "note": 68, "velocity": 116, "channel": 0}, {"type": "note_on", "time": 10, "note": 65, "velocity": 101, "channel": 0}, {"type": "note_off", "time": 39, "note": 65, "velocity": 101, "channel": 0}, {"type": "note_on", "time": 10, "note": 66, "velocity": 111, "channel": 0}, {"type": "note_off", "time": 79, "note": 66, "velocity": 111, "channel": 0}, {"type": "note_on", "time": 22, "note": 67, "velocity": 100, "channel": 0}, {"type": "note_off", "time": 27, "note": 67, "velocity": 100, "channel": 0}, {"type": "note_on", "time": 10, "note": 66, "velocity": 109, "channel": 0}, {"type": "note_off", "time": 48, "note": 66, "velocity": 109, "channel": 0}, {"type": "note_on", "time": 12, "note": 65, "velocity": 106, "channel": 0}, {"type": "note_off", "time": 101, "note": 65, "velocity": 106, "channel": 0}, {"type": "note_on", "time": 220, "note": 63, "velocity": 124, "channel": 0}, {"type": "note_off", "time": 89, "note": 63, "velocity": 124, "channel": 0}, {"type": "note_on", "time": 3, "note": 61, "velocity": 122, "channel": 0}, {"type": "note_off", "time": 98, "note": 61, "velocity": 122, "channel": 0}, {"type": "note_on", "time": 5, "note": 60, "velocity": 108, "channel": 0}, {"type": "note_off", "time": 55, "note": 60, "velocity": 108, "channel": 0}, {"type": "note_on", "time": 13, "note": 58, "velocity": 105, "channel": 0}, {"type": "note_off", "time": 99, "note": 58, "velocity": 105, "channel": 0}, {"type": "note_on", "time": 29, "note": 61, "velocity": 120, "channel": 0}, {"type": "note_off", "time": 74, "note": 61, "velocity": 120, "channel": 0}, {"type": "note_on", "time": 8, "note": 57, "velocity": 110, "channel": 0}, {"type": "note_off", "time": 63, "note": 57, "velocity": 110, "channel": 0}, {"type": "note_on", "time": 0, "note": 58, "velocity": 108, "channel": 0}, {"type": "note_off", "time": 120, "note": 58, "velocity": 108, "channel": 0}, {"type": "note_on", "time": 12, "note": 56, "velocity": 105, "channel": 0}, {"type": "note_off", "time": 94, "note": 56, "velocity": 105, "channel": 0}, {"type": "note_on", "time": 98, "note": 61, "velocity": 122, "channel": 0}, {"type": "note_off", "time": 113, "note": 61, "velocity": 122, "channel": 0}, {"type": "note_on", "time": 101, "note": 58, "velocity": 108, "channel": 0}, {"type": "note_off", "time": 94, "note": 58, "velocity": 108, "channel": 0}, {"type": "note_on", "time": 12, "note": 56, "velocity": 108, "channel": 0}, {"type": "note_off", "time": 75, "note": 56, "velocity": 108, "channel": 0}, {"type": "note_on", "time": 34, "note": 54, "velocity": 103, "channel": 0}, {"type": "note_off", "time": 77, "note": 54, "velocity": 103, "channel": 0}, {"type": "note_on", "time": 18, "note": 56, "velocity": 105, "channel": 0}, {"type": "note_off", "time": 60, "note": 56, "velocity": 105, "channel": 0}, {"type": "note_on", "time": 27, "note": 58, "velocity": 103, "channel": 0}, {"type": "note_off", "time": 113, "note": 58, "velocity": 103, "channel": 0}, {"type": "note_on", "time": 0, "note": 61, "velocity": 103, "channel": 0}, {"type": "note_off", "time": 60, "note": 61, "velocity": 103, "channel": 0}, {"type": "note_on", "time": 10, "note": 62, "velocity": 120, "channel": 0}, {"type": "note_off", "time": 99, "note": 62, "velocity": 120, "channel": 0}, {"type": "note_on", "time": 22, "note": 60, "velocity": 117, "channel": 0}, {"type": "note_off", "time": 63, "note": 60, "velocity": 117, "channel": 0}, {"type": "note_on", "time": 201, "note": 64, "velocity": 116, "channel": 0}, {"type": "note_off", "time": 108, "note": 64, "velocity": 116, "channel": 0}, {"type": "note_on", "time": 10, "note": 62, "velocity": 114, "channel": 0}, {"type": "note_off", "time": 70, "note": 62, "velocity": 114, "channel": 0}, {"type": "note_on", "time": 12, "note": 60, "velocity": 117, "channel": 0}, {"type": "note_off", "time": 103, "note": 60, "velocity": 117, "channel": 0}, {"type": "note_on", "time": 10, "note": 57, "velocity": 116, "channel": 0}, {"type": "note_off", "time": 86, "note": 57, "velocity": 116, "channel": 0}, {"type": "note_on", "time": 6, "note": 55, "velocity": 96, "channel": 0}, {"type": "note_off", "time": 87, "note": 55, "velocity": 96, "channel": 0}, {"type": "note_on", "time": 6, "note": 60, "velocity": 122, "channel": 0}, {"type": "note_off", "time": 98, "note": 60, "velocity": 122, "channel": 0}, {"type": "note_on", "time": 22, "note": 57, "velocity": 109, "channel": 0}, {"type": "note_off", "time": 146, "note": 57, "velocity": 109, "channel": 0}, {"type": "note_on", "time": 22, "note": 55, "velocity": 103, "channel": 0}, {"type": "note_off", "time": 86, "note": 55, "velocity": 103, "channel": 0}, {"type": "note_on", "time": 36, "note": 60, "velocity": 119, "channel": 0}, {"type": "note_off", "time": 82, "note": 60, "velocity": 119, "channel": 0}, {"type": "note_on", "time": 5, "note": 57, "velocity": 105, "channel": 0}, {"type": "note_off", "time": 120, "note": 57, "velocity": 105, "channel": 0}, {"type": "note_on", "time": 65, "note": 52, "velocity": 104, "channel": 0}, {"type": "note_off", "time": 103, "note": 52, "velocity": 104, "channel": 0}, {"type": "note_on", "time": 10, "note": 53, "velocity": 109, "channel": 0}, {"type": "note_off", "time": 49, "note": 53, "velocity": 109, "channel": 0}, {"type": "note_on", "time": 20, "note": 57, "velocity": 104, "channel": 0}, {"type": "note_off", "time": 91, "note": 57, "velocity": 104, "channel": 0}, {"type": "note_on", "time": 43, "note": 61, "velocity": 99, "channel": 0}, {"type": "note_off", "time": 41, "note": 61, "velocity": 99, "channel": 0}, {"type": "note_on", "time": 6, "note": 64, "velocity": 110, "channel": 0}, {"type": "note_off", "time": 124, "note": 64, "velocity": 110, "channel": 0}, {"type": "note_on", "time": 10, "note": 65, "velocity": 111, "channel": 0}, {"type": "note_off", "time": 62, "note": 65, "velocity": 111, "channel": 0}, {"type": "note_on", "time": 328, "note": 68, "velocity": 113, "channel": 0}, {"type": "note_off", "time": 183, "note": 68, "velocity": 113, "channel": 0}, {"type": "note_on", "time": 13, "note": 68, "velocity": 111, "channel": 0}, {"type": "note_off", "time": 183, "note": 68, "velocity": 111, "channel": 0}, {"type": "note_on", "time": 19, "note": 70, "velocity": 115, "channel": 0}, {"type": "note_off", "time": 190, "note": 70, "velocity": 115, "channel": 0}, {"type": "note_on", "time": 9, "note": 71, "velocity": 117, "channel": 0}, {"type": "note_off", "time": 187, "note": 71, "velocity": 117, "channel": 0}, {"type": "note_on", "time": 11, "note": 69, "velocity": 109, "channel": 0}, {"type": "note_off", "time": 64, "note": 69, "velocity": 109, "channel": 0}, {"type": "note_on", "time": 11, "note": 68, "velocity": 94, "channel": 0}, {"type": "note_off", "time": 88, "note": 68, "velocity": 94, "channel": 0}, {"type": "note_on", "time": 6, "note": 66, "velocity": 109, "channel": 0}, {"type": "note_off", "time": 82, "note": 66, "velocity": 109, "channel": 0}, {"type": "note_on", "time": 5, "note": 65, "velocity": 105, "channel": 0}, {"type": "note_off", "time": 96, "note": 65, "velocity": 105, "channel": 0}, {"type": "note_on", "time": 16, "note": 62, "velocity": 116, "channel": 0}, {"type": "note_off", "time": 108, "note": 62, "velocity": 116, "channel": 0}, {"type": "note_on", "time": 3, "note": 61, "velocity": 96, "channel": 0}, {"type": "note_off", "time": 41, "note": 61, "velocity": 96, "channel": 0}, {"type": "note_on", "time": 307, "note": 61, "velocity": 120, "channel": 0}, {"type": "note_off", "time": 127, "note": 61, "velocity": 120, "channel": 0}, {"type": "note_on", "time": 21, "note": 57, "velocity": 106, "channel": 0}, {"type": "note_off", "time": 64, "note": 57, "velocity": 106, "channel": 0}, {"type": "note_on", "time": 1, "note": 59, "velocity": 106, "channel": 0}, {"type": "note_off", "time": 92, "note": 59, "velocity": 106, "channel": 0}, {"type": "note_on", "time": 11, "note": 57, "velocity": 114, "channel": 0}, {"type": "note_off", "time": 80, "note": 57, "velocity": 114, "channel": 0}, {"type": "note_on", "time": 194, "note": 56, "velocity": 113, "channel": 0}, {"type": "note_off", "time": 110, "note": 56, "velocity": 113, "channel": 0}, {"type": "note_on", "time": 13, "note": 58, "velocity": 112, "channel": 0}, {"type": "note_off", "time": 70, "note": 58, "velocity": 112, "channel": 0}, {"type": "note_on", "time": 3, "note": 60, "velocity": 119, "channel": 0}, {"type": "note_off", "time": 122, "note": 60, "velocity": 119, "channel": 0}, {"type": "note_on", "time": 9, "note": 64, "velocity": 104, "channel": 0}, {"type": "note_off", "time": 51, "note": 64, "velocity": 104, "channel": 0}, {"type": "note_on", "time": 13, "note": 68, "velocity": 117, "channel": 0}, {"type": "note_off", "time": 108, "note": 68, "velocity": 117, "channel": 0}, {"type": "note_on", "time": 281, "note": 68, "velocity": 113, "channel": 0}, {"type": "note_off", "time": 106, "note": 68, "velocity": 113, "channel": 0}, {"type": "note_on", "time": 94, "note": 71, "velocity": 118, "channel": 0}, {"type": "note_off", "time": 94, "note": 71, "velocity": 118, "channel": 0}, {"type": "note_on", "time": 99, "note": 70, "velocity": 112, "channel": 0}, {"type": "note_off", "time": 35, "note": 70, "velocity": 112, "channel": 0}, {"type": "note_on", "time": 13, "note": 71, "velocity": 111, "channel": 0}, {"type": "note_off", "time": 149, "note": 71, "velocity": 111, "channel": 0}, {"type": "note_on", "time": 8, "note": 70, "velocity": 108, "channel": 0}, {"type": "note_off", "time": 96, "note": 70, "velocity": 108, "channel": 0}, {"type": "note_on", "time": 35, "note": 68, "velocity": 111, "channel": 0}, {"type": "note_off", "time": 86, "note": 68, "velocity": 111, "channel": 0}, {"type": "note_on", "time": 0, "note": 66, "velocity": 105, "channel": 0}, {"type": "note_off", "time": 90, "note": 66, "velocity": 105, "channel": 0}, {"type": "note_on", "time": 17, "note": 68, "velocity": 111, "channel": 0}, {"type": "note_off", "time": 86, "note": 68, "velocity": 111, "channel": 0}, {"type": "note_on", "time": 7, "note": 66, "velocity": 111, "channel": 0}, {"type": "note_off", "time": 64, "note": 66, "velocity": 111, "channel": 0}, {"type": "note_on", "time": 19, "note": 64, "velocity": 102, "channel": 0}, {"type": "note_off", "time": 78, "note": 64, "velocity": 102, "channel": 0}, {"type": "note_on", "time": 17, "note": 65, "velocity": 112, "channel": 0}, {"type": "note_off", "time": 94, "note": 65, "velocity": 112, "channel": 0}, {"type": "note_on", "time": 23, "note": 63, "velocity": 119, "channel": 0}, {"type": "note_off", "time": 84, "note": 63, "velocity": 119, "channel": 0}, {"type": "note_on", "time": 5, "note": 62, "velocity": 105, "channel": 0}, {"type": "note_off", "time": 80, "note": 62, "velocity": 105, "channel": 0}, {"type": "note_on", "time": 19, "note": 65, "velocity": 116, "channel": 0}, {"type": "note_off", "time": 74, "note": 65, "velocity": 116, "channel": 0}, {"type": "note_on", "time": 13, "note": 64, "velocity": 97, "channel": 0}, {"type": "note_off", "time": 84, "note": 64, "velocity": 97, "channel": 0}, {"type": "note_on", "time": 23, "note": 62, "velocity": 97, "channel": 0}, {"type": "note_off", "time": 51, "note": 62, "velocity": 97, "channel": 0}, {"type": "note_on", "time": 19, "note": 63, "velocity": 117, "channel": 0}, {"type": "note_off", "time": 126, "note": 63, "velocity": 117, "channel": 0}, {"type": "note_on", "time": 7, "note": 58, "velocity": 107, "channel": 0}, {"type": "note_off", "time": 70, "note": 58, "velocity": 107, "channel": 0}, {"type": "note_on", "time": 15, "note": 54, "velocity": 101, "channel": 0}, {"type": "note_off", "time": 72, "note": 54, "velocity": 101, "channel": 0}, {"type": "note_on", "time": 11, "note": 51, "velocity": 90, "channel": 0}, {"type": "note_off", "time": 51, "note": 51, "velocity": 90, "channel": 0}, {"type": "note_on", "time": 55, "note": 61, "velocity": 118, "channel": 0}, {"type": "note_off", "time": 94, "note": 61, "velocity": 118, "channel": 0}, {"type": "note_on", "time": 35, "note": 58, "velocity": 107, "channel": 0}, {"type": "note_off", "time": 55, "note": 58, "velocity": 107, "channel": 0}, {"type": "note_on", "time": 9, "note": 56, "velocity": 108, "channel": 0}, {"type": "note_off", "time": 64, "note": 56, "velocity": 108, "channel": 0}, {"type": "note_on", "time": 346, "note": 56, "velocity": 105, "channel": 0}, {"type": "note_off", "time": 80, "note": 56, "velocity": 105, "channel": 0}, {"type": "note_on", "time": 21, "note": 58, "velocity": 110, "channel": 0}, {"type": "note_off", "time": 78, "note": 58, "velocity": 110, "channel": 0}, {"type": "note_on", "time": 1, "note": 60, "velocity": 113, "channel": 0}, {"type": "note_off", "time": 108, "note": 60, "velocity": 113, "channel": 0}, {"type": "note_on", "time": 15, "note": 63, "velocity": 106, "channel": 0}, {"type": "note_off", "time": 70, "note": 63, "velocity": 106, "channel": 0}, {"type": "note_on", "time": 1, "note": 67, "velocity": 109, "channel": 0}, {"type": "note_off", "time": 120, "note": 67, "velocity": 109, "channel": 0}, {"type": "note_on", "time": 66, "note": 63, "velocity": 118, "channel": 0}, {"type": "note_off", "time": 129, "note": 63, "velocity": 118, "channel": 0}, {"type": "note_on", "time": 9, "note": 65, "velocity": 96, "channel": 0}, {"type": "note_off", "time": 64, "note": 65, "velocity": 96, "channel": 0}, {"type": "note_on", "time": 5, "note": 67, "velocity": 104, "channel": 0}, {"type": "note_off", "time": 86, "note": 67, "velocity": 104, "channel": 0}, {"type": "note_on", "time": 31, "note": 63, "velocity": 111, "channel": 0}, {"type": "note_off", "time": 70, "note": 63, "velocity": 111, "channel": 0}, {"type": "note_on", "time": 7, "note": 65, "velocity": 106, "channel": 0}, {"type": "note_off", "time": 110, "note": 65, "velocity": 106, "channel": 0}, {"type": "note_on", "time": 21, "note": 67, "velocity": 101, "channel": 0}, {"type": "note_off", "time": 70, "note": 67, "velocity": 101, "channel": 0}, {"type": "note_on", "time": 13, "note": 68, "velocity": 109, "channel": 0}, {"type": "note_off", "time": 84, "note": 68, "velocity": 109, "channel": 0}, {"type": "note_on", "time": 33, "note": 65, "velocity": 102, "channel": 0}, {"type": "note_off", "time": 57, "note": 65, "velocity": 102, "channel": 0}, {"type": "note_on", "time": 9, "note": 61, "velocity": 115, "channel": 0}, {"type": "note_off", "time": 110, "note": 61, "velocity": 115, "channel": 0}, {"type": "note_on", "time": 31, "note": 58, "velocity": 83, "channel": 0}, {"type": "note_off", "time": 33, "note": 58, "velocity": 83, "channel": 0}, {"type": "note_on", "time": 7, "note": 63, "velocity": 114, "channel": 0}, {"type": "note_off", "time": 137, "note": 63, "velocity": 114, "channel": 0}, {"type": "note_on", "time": 289, "note": 69, "velocity": 119, "channel": 0}, {"type": "note_off", "time": 100, "note": 69, "velocity": 119, "channel": 0}, {"type": "note_on", "time": 9, "note": 65, "velocity": 97, "channel": 0}, {"type": "note_off", "time": 53, "note": 65, "velocity": 97, "channel": 0}, {"type": "note_on", "time": 5, "note": 67, "velocity": 109, "channel": 0}, {"type": "note_off", "time": 131, "note": 67, "velocity": 109, "channel": 0}, {"type": "note_on", "time": 3, "note": 69, "velocity": 118, "channel": 0}, {"type": "note_off", "time": 82, "note": 69, "velocity": 118, "channel": 0}, {"type": "note_on", "time": 118, "note": 65, "velocity": 111, "channel": 0}, {"type": "note_off", "time": 70, "note": 65, "velocity": 111, "channel": 0}, {"type": "note_on", "time": 0, "note": 67, "velocity": 103, "channel": 0}, {"type": "note_off", "time": 104, "note": 67, "velocity": 103, "channel": 0}, {"type": "note_on", "time": 5, "note": 69, "velocity": 111, "channel": 0}, {"type": "note_off", "time": 66, "note": 69, "velocity": 111, "channel": 0}, {"type": "note_on", "time": 7, "note": 68, "velocity": 108, "channel": 0}, {"type": "note_off", "time": 139, "note": 68, "velocity": 108, "channel": 0}, {"type": "note_on", "time": 74, "note": 68, "velocity": 103, "channel": 0}, {"type": "note_off", "time": 149, "note": 68, "velocity": 103, "channel": 0}, {"type": "note_on", "time": 59, "note": 70, "velocity": 113, "channel": 0}, {"type": "note_off", "time": 118, "note": 70, "velocity": 113, "channel": 0}, {"type": "note_on", "time": 15, "note": 68, "velocity": 99, "channel": 0}, {"type": "note_off", "time": 41, "note": 68, "velocity": 99, "channel": 0}, {"type": "note_on", "time": 9, "note": 70, "velocity": 111, "channel": 0}, {"type": "note_off", "time": 155, "note": 70, "velocity": 111, "channel": 0}, {"type": "note_on", "time": 53, "note": 71, "velocity": 115, "channel": 0}, {"type": "note_off", "time": 120, "note": 71, "velocity": 115, "channel": 0}, {"type": "note_on", "time": 11, "note": 70, "velocity": 95, "channel": 0}, {"type": "note_off", "time": 41, "note": 70, "velocity": 95, "channel": 0}, {"type": "note_on", "time": 9, "note": 71, "velocity": 114, "channel": 0}, {"type": "note_off", "time": 118, "note": 71, "velocity": 114, "channel": 0}, {"type": "note_on", "time": 70, "note": 73, "velocity": 108, "channel": 0}, {"type": "note_off", "time": 147, "note": 73, "velocity": 108, "channel": 0}, {"type": "note_on", "time": 7, "note": 72, "velocity": 93, "channel": 0}, {"type": "note_off", "time": 35, "note": 72, "velocity": 93, "channel": 0}, {"type": "note_on", "time": 1, "note": 73, "velocity": 108, "channel": 0}, {"type": "note_off", "time": 177, "note": 73, "velocity": 108, "channel": 0}, {"type": "note_on", "time": 52, "note": 73, "velocity": 110, "channel": 0}, {"type": "note_off", "time": 51, "note": 73, "velocity": 110, "channel": 0}, {"type": "note_on", "time": 12, "note": 74, "velocity": 114, "channel": 0}, {"type": "note_off", "time": 139, "note": 74, "velocity": 114, "channel": 0}, {"type": "note_on", "time": 2, "note": 73, "velocity": 114, "channel": 0}, {"type": "note_off", "time": 114, "note": 73, "velocity": 114, "channel": 0}, {"type": "note_on", "time": 0, "note": 71, "velocity": 111, "channel": 0}, {"type": "note_off", "time": 78, "note": 71, "velocity": 111, "channel": 0}, {"type": "note_on", "time": 7, "note": 70, "velocity": 102, "channel": 0}, {"type": "note_off", "time": 279, "note": 70, "velocity": 102, "channel": 0}, {"type": "note_on", "time": 443, "note": 65, "velocity": 100, "channel": 0}, {"type": "note_off", "time": 37, "note": 65, "velocity": 100, "channel": 0}, {"type": "note_on", "time": 61, "note": 68, "velocity": 113, "channel": 0}, {"type": "note_off", "time": 86, "note": 68, "velocity": 113, "channel": 0}, {"type": "note_on", "time": 15, "note": 66, "velocity": 111, "channel": 0}, {"type": "note_off", "time": 61, "note": 66, "velocity": 111, "channel": 0}, {"type": "note_on", "time": 11, "note": 62, "velocity": 113, "channel": 0}, {"type": "note_off", "time": 90, "note": 62, "velocity": 113, "channel": 0}, {"type": "note_on", "time": 39, "note": 58, "velocity": 98, "channel": 0}, {"type": "note_off", "time": 45, "note": 58, "velocity": 98, "channel": 0}, {"type": "note_on", "time": 0, "note": 65, "velocity": 108, "channel": 0}, {"type": "note_off", "time": 141, "note": 65, "velocity": 108, "channel": 0}, {"type": "note_on", "time": 1, "note": 63, "velocity": 121, "channel": 0}, {"type": "note_off", "time": 80, "note": 63, "velocity": 121, "channel": 0}, {"type": "note_on", "time": 9, "note": 58, "velocity": 102, "channel": 0}, {"type": "note_off", "time": 92, "note": 58, "velocity": 102, "channel": 0}, {"type": "note_on", "time": 20, "note": 55, "velocity": 87, "channel": 0}, {"type": "note_off", "time": 55, "note": 55, "velocity": 87, "channel": 0}, {"type": "note_on", "time": 22, "note": 61, "velocity": 122, "channel": 0}, {"type": "note_off", "time": 85, "note": 61, "velocity": 122, "channel": 0}, {"type": "note_on", "time": 0, "note": 63, "velocity": 113, "channel": 0}, {"type": "note_off", "time": 102, "note": 63, "velocity": 113, "channel": 0}, {"type": "note_on", "time": 2, "note": 60, "velocity": 120, "channel": 0}, {"type": "note_off", "time": 119, "note": 60, "velocity": 120, "channel": 0}, {"type": "note_on", "time": 0, "note": 58, "velocity": 107, "channel": 0}, {"type": "note_off", "time": 83, "note": 58, "velocity": 107, "channel": 0}, {"type": "note_on", "time": 8, "note": 56, "velocity": 99, "channel": 0}, {"type": "note_off", "time": 116, "note": 56, "velocity": 99, "channel": 0}, {"type": "note_on", "time": 69, "note": 56, "velocity": 105, "channel": 0}, {"type": "note_off", "time": 119, "note": 56, "velocity": 105, "channel": 0}, {"type": "note_on", "time": 99, "note": 61, "velocity": 116, "channel": 0}, {"type": "note_off", "time": 146, "note": 61, "velocity": 116, "channel": 0}, {"type": "note_on", "time": 0, "note": 58, "velocity": 97, "channel": 0}, {"type": "note_off", "time": 44, "note": 58, "velocity": 97, "channel": 0}, {"type": "note_on", "time": 8, "note": 61, "velocity": 119, "channel": 0}, {"type": "note_off", "time": 116, "note": 61, "velocity": 119, "channel": 0}, {"type": "note_on", "time": 0, "note": 58, "velocity": 107, "channel": 0}, {"type": "note_off", "time": 63, "note": 58, "velocity": 107, "channel": 0}, {"type": "note_on", "time": 0, "note": 64, "velocity": 118, "channel": 0}, {"type": "note_off", "time": 105, "note": 64, "velocity": 118, "channel": 0}, {"type": "note_on", "time": 13, "note": 65, "velocity": 110, "channel": 0}, {"type": "note_off", "time": 91, "note": 65, "velocity": 110, "channel": 0}, {"type": "note_on", "time": 5, "note": 66, "velocity": 115, "channel": 0}, {"type": "note_off", "time": 121, "note": 66, "velocity": 115, "channel": 0}, {"type": "note_on", "time": 0, "note": 65, "velocity": 114, "channel": 0}, {"type": "note_off", "time": 88, "note": 65, "velocity": 114, "channel": 0}, {"type": "note_on", "time": 94, "note": 61, "velocity": 122, "channel": 0}, {"type": "note_off", "time": 83, "note": 61, "velocity": 122, "channel": 0}, {"type": "note_on", "time": 5, "note": 58, "velocity": 101, "channel": 0}, {"type": "note_off", "time": 135, "note": 58, "velocity": 101, "channel": 0}, {"type": "note_on", "time": 8, "note": 55, "velocity": 90, "channel": 0}, {"type": "note_off", "time": 35, "note": 55, "velocity": 90, "channel": 0}, {"type": "note_on", "time": 11, "note": 63, "velocity": 122, "channel": 0}, {"type": "note_off", "time": 135, "note": 63, "velocity": 122, "channel": 0}, {"type": "note_on", "time": 13, "note": 58, "velocity": 95, "channel": 0}, {"type": "note_off", "time": 47, "note": 58, "velocity": 95, "channel": 0}, {"type": "note_on", "time": 5, "note": 63, "velocity": 107, "channel": 0}, {"type": "note_off", "time": 254, "note": 63, "velocity": 107, "channel": 0}, {"type": "note_on", "time": 1113, "note": 69, "velocity": 119, "channel": 0}, {"type": "note_off", "time": 127, "note": 69, "velocity": 119, "channel": 0}, {"type": "note_on", "time": 0, "note": 71, "velocity": 118, "channel": 0}, {"type": "note_off", "time": 85, "note": 71, "velocity": 118, "channel": 0}, {"type": "note_on", "time": 2, "note": 73, "velocity": 118, "channel": 0}, {"type": "note_off", "time": 141, "note": 73, "velocity": 118, "channel": 0}, {"type": "note_on", "time": 0, "note": 69, "velocity": 95, "channel": 0}, {"type": "note_off", "time": 44, "note": 69, "velocity": 95, "channel": 0}, {"type": "note_on", "time": 11, "note": 71, "velocity": 120, "channel": 0}, {"type": "note_off", "time": 146, "note": 71, "velocity": 120, "channel": 0}, {"type": "note_on", "time": 8, "note": 69, "velocity": 114, "channel": 0}, {"type": "note_off", "time": 80, "note": 69, "velocity": 114, "channel": 0}, {"type": "note_on", "time": 185, "note": 68, "velocity": 120, "channel": 0}, {"type": "note_off", "time": 113, "note": 68, "velocity": 120, "channel": 0}, {"type": "note_on", "time": 0, "note": 70, "velocity": 106, "channel": 0}, {"type": "note_off", "time": 77, "note": 70, "velocity": 106, "channel": 0}, {"type": "note_on", "time": 13, "note": 72, "velocity": 115, "channel": 0}, {"type": "note_off", "time": 102, "note": 72, "velocity": 115, "channel": 0}, {"type": "note_on", "time": 5, "note": 68, "velocity": 93, "channel": 0}, {"type": "note_off", "time": 41, "note": 68, "velocity": 93, "channel": 0}, {"type": "note_on", "time": 5, "note": 70, "velocity": 116, "channel": 0}, {"type": "note_off", "time": 157, "note": 70, "velocity": 116, "channel": 0}, {"type": "note_on", "time": 11, "note": 68, "velocity": 117, "channel": 0}, {"type": "note_off", "time": 63, "note": 68, "velocity": 117, "channel": 0}, {"type": "note_on", "time": 193, "note": 69, "velocity": 111, "channel": 0}, {"type": "note_off", "time": 110, "note": 69, "velocity": 111, "channel": 0}, {"type": "note_on", "time": 94, "note": 73, "velocity": 116, "channel": 0}, {"type": "note_off", "time": 110, "note": 73, "velocity": 116, "channel": 0}, {"type": "note_on", "time": 16, "note": 69, "velocity": 106, "channel": 0}, {"type": "note_off", "time": 71, "note": 69, "velocity": 106, "channel": 0}, {"type": "note_on", "time": 11, "note": 64, "velocity": 110, "channel": 0}, {"type": "note_off", "time": 107, "note": 64, "velocity": 110, "channel": 0}, {"type": "note_on", "time": 0, "note": 59, "velocity": 101, "channel": 0}, {"type": "note_off", "time": 60, "note": 59, "velocity": 101, "channel": 0}, {"type": "note_on", "time": 30, "note": 66, "velocity": 106, "channel": 0}, {"type": "note_off", "time": 74, "note": 66, "velocity": 106, "channel": 0}, {"type": "note_on", "time": 24, "note": 64, "velocity": 119, "channel": 0}, {"type": "note_off", "time": 77, "note": 64, "velocity": 119, "channel": 0}, {"type": "note_on", "time": 119, "note": 68, "velocity": 116, "channel": 0}, {"type": "note_off", "time": 77, "note": 68, "velocity": 116, "channel": 0}, {"type": "note_on", "time": 24, "note": 65, "velocity": 108, "channel": 0}, {"type": "note_off", "time": 71, "note": 65, "velocity": 108, "channel": 0}, {"type": "note_on", "time": 13, "note": 61, "velocity": 122, "channel": 0}, {"type": "note_off", "time": 80, "note": 61, "velocity": 122, "channel": 0}, {"type": "note_on", "time": 5, "note": 58, "velocity": 99, "channel": 0}, {"type": "note_off", "time": 116, "note": 58, "velocity": 99, "channel": 0}, {"type": "note_on", "time": 24, "note": 55, "velocity": 94, "channel": 0}, {"type": "note_off", "time": 33, "note": 55, "velocity": 94, "channel": 0}, {"type": "note_on", "time": 0, "note": 63, "velocity": 119, "channel": 0}, {"type": "note_off", "time": 146, "note": 63, "velocity": 119, "channel": 0}, {"type": "note_on", "time": 71, "note": 60, "velocity": 122, "channel": 0}, {"type": "note_off", "time": 102, "note": 60, "velocity": 122, "channel": 0}, {"type": "note_on", "time": 0, "note": 63, "velocity": 116, "channel": 0}, {"type": "note_off", "time": 113, "note": 63, "velocity": 116, "channel": 0}, {"type": "note_on", "time": 0, "note": 60, "velocity": 106, "channel": 0}, {"type": "note_off", "time": 96, "note": 60, "velocity": 106, "channel": 0}, {"type": "note_on", "time": 0, "note": 58, "velocity": 9, "channel": 0}, {"type": "note_off", "time": 80, "note": 58, "velocity": 9, "channel": 0}, {"type": "note_on", "time": 2, "note": 56, "velocity": 9, "channel": 0}, {"type": "note_off", "time": 110, "note": 56, "velocity": 9, "channel": 0}, {"type": "note_on", "time": 16, "note": 58, "velocity": 113, "channel": 0}, {"type": "note_off", "time": 69, "note": 58, "velocity": 113, "channel": 0}, {"type": "note_on", "time": 0, "note": 60, "velocity": 115, "channel": 0}, {"type": "note_on", "time": 119, "note": 63, "velocity": 97, "channel": 0}, {"type": "note_off", "time": 0, "note": 60, "velocity": 115, "channel": 0}, {"type": "note_off", "time": 77, "note": 63, "velocity": 97, "channel": 0}, {"type": "note_on", "time": 24, "note": 68, "velocity": 122, "channel": 0}, {"type": "note_off", "time": 91, "note": 68, "velocity": 122, "channel": 0}, {"type": "note_on", "time": 22, "note": 68, "velocity": 104, "channel": 0}, {"type": "note_off", "time": 69, "note": 68, "velocity": 104, "channel": 0}, {"type": "note_on", "time": 30, "note": 67, "velocity": 102, "channel": 0}, {"type": "note_off", "time": 66, "note": 67, "velocity": 102, "channel": 0}, {"type": "note_on", "time": 27, "note": 67, "velocity": 108, "channel": 0}, {"type": "note_off", "time": 63, "note": 67, "velocity": 108, "channel": 0}, {"type": "note_on", "time": 44, "note": 66, "velocity": 103, "channel": 0}, {"type": "note_off", "time": 55, "note": 66, "velocity": 103, "channel": 0}, {"type": "note_on", "time": 24, "note": 66, "velocity": 102, "channel": 0}, {"type": "note_off", "time": 71, "note": 66, "velocity": 102, "channel": 0}, {"type": "note_on", "time": 33, "note": 65, "velocity": 103, "channel": 0}, {"type": "note_off", "time": 58, "note": 65, "velocity": 103, "channel": 0}, {"type": "note_on", "time": 11, "note": 65, "velocity": 105, "channel": 0}, {"type": "note_off", "time": 74, "note": 65, "velocity": 105, "channel": 0}, {"type": "note_on", "time": 24, "note": 63, "velocity": 123, "channel": 0}, {"type": "note_off", "time": 88, "note": 63, "velocity": 123, "channel": 0}, {"type": "note_on", "time": 13, "note": 63, "velocity": 119, "channel": 0}, {"type": "note_off", "time": 94, "note": 63, "velocity": 119, "channel": 0}, {"type": "note_on", "time": 13, "note": 58, "velocity": 103, "channel": 0}, {"type": "note_off", "time": 96, "note": 58, "velocity": 103, "channel": 0}, {"type": "note_on", "time": 8, "note": 58, "velocity": 93, "channel": 0}, {"type": "note_off", "time": 88, "note": 58, "velocity": 93, "channel": 0}, {"type": "note_on", "time": 11, "note": 61, "velocity": 118, "channel": 0}, {"type": "note_off", "time": 185, "note": 61, "velocity": 118, "channel": 0}, {"type": "note_on", "time": 318, "note": 58, "velocity": 101, "channel": 0}, {"type": "note_off", "time": 85, "note": 58, "velocity": 101, "channel": 0}, {"type": "note_on", "time": 30, "note": 63, "velocity": 113, "channel": 0}, {"type": "note_off", "time": 35, "note": 63, "velocity": 113, "channel": 0}, {"type": "note_on", "time": 4, "note": 65, "velocity": 107, "channel": 0}, {"type": "note_off", "time": 43, "note": 65, "velocity": 107, "channel": 0}, {"type": "note_on", "time": 2, "note": 70, "velocity": 116, "channel": 0}, {"type": "note_off", "time": 69, "note": 70, "velocity": 116, "channel": 0}, {"type": "note_on", "time": 2, "note": 68, "velocity": 119, "channel": 0}, {"type": "note_off", "time": 199, "note": 68, "velocity": 119, "channel": 0}, {"type": "note_on", "time": 13, "note": 70, "velocity": 112, "channel": 0}, {"type": "note_off", "time": 130, "note": 70, "velocity": 112, "channel": 0}, {"type": "note_on", "time": 58, "note": 65, "velocity": 113, "channel": 0}, {"type": "note_off", "time": 96, "note": 65, "velocity": 113, "channel": 0}, {"type": "note_on", "time": 107, "note": 61, "velocity": 122, "channel": 0}, {"type": "note_off", "time": 127, "note": 61, "velocity": 122, "channel": 0}, {"type": "note_on", "time": 94, "note": 63, "velocity": 118, "channel": 0}, {"type": "note_off", "time": 113, "note": 63, "velocity": 118, "channel": 0}, {"type": "note_on", "time": 13, "note": 65, "velocity": 104, "channel": 0}, {"type": "note_off", "time": 41, "note": 65, "velocity": 104, "channel": 0}, {"type": "note_on", "time": 243, "note": 65, "velocity": 113, "channel": 0}, {"type": "note_off", "time": 63, "note": 65, "velocity": 113, "channel": 0}, {"type": "note_on", "time": 108, "note": 62, "velocity": 125, "channel": 0}, {"type": "note_off", "time": 80, "note": 62, "velocity": 125, "channel": 0}, {"type": "note_on", "time": 124, "note": 64, "velocity": 117, "channel": 0}, {"type": "note_off", "time": 110, "note": 64, "velocity": 117, "channel": 0}, {"type": "note_on", "time": 318, "note": 64, "velocity": 120, "channel": 0}, {"type": "note_off", "time": 119, "note": 64, "velocity": 120, "channel": 0}, {"type": "note_on", "time": 11, "note": 55, "velocity": 89, "channel": 0}, {"type": "note_off", "time": 41, "note": 55, "velocity": 89, "channel": 0}, {"type": "note_on", "time": 24, "note": 60, "velocity": 113, "channel": 0}, {"type": "note_off", "time": 121, "note": 60, "velocity": 113, "channel": 0}, {"type": "note_on", "time": 13, "note": 55, "velocity": 85, "channel": 0}, {"type": "note_off", "time": 33, "note": 55, "velocity": 85, "channel": 0}, {"type": "note_on", "time": 16, "note": 62, "velocity": 124, "channel": 0}, {"type": "note_off", "time": 119, "note": 62, "velocity": 124, "channel": 0}, {"type": "note_on", "time": 19, "note": 64, "velocity": 110, "channel": 0}, {"type": "note_off", "time": 55, "note": 64, "velocity": 110, "channel": 0}, {"type": "note_on", "time": 224, "note": 64, "velocity": 118, "channel": 0}, {"type": "note_off", "time": 96, "note": 64, "velocity": 118, "channel": 0}, {"type": "note_on", "time": 11, "note": 60, "velocity": 115, "channel": 0}, {"type": "note_off", "time": 83, "note": 60, "velocity": 115, "channel": 0}, {"type": "note_on", "time": 11, "note": 62, "velocity": 121, "channel": 0}, {"type": "note_off", "time": 96, "note": 62, "velocity": 121, "channel": 0}, {"type": "note_on", "time": 13, "note": 64, "velocity": 119, "channel": 0}, {"type": "note_off", "time": 85, "note": 64, "velocity": 119, "channel": 0}, {"type": "note_on", "time": 204, "note": 64, "velocity": 112, "channel": 0}, {"type": "note_off", "time": 124, "note": 64, "velocity": 112, "channel": 0}, {"type": "note_on", "time": 47, "note": 68, "velocity": 109, "channel": 0}, {"type": "note_off", "time": 141, "note": 68, "velocity": 109, "channel": 0}, {"type": "note_on", "time": 55, "note": 64, "velocity": 111, "channel": 0}, {"type": "note_off", "time": 121, "note": 64, "velocity": 111, "channel": 0}, {"type": "note_on", "time": 35, "note": 59, "velocity": 101, "channel": 0}, {"type": "note_off", "time": 38, "note": 59, "velocity": 101, "channel": 0}, {"type": "note_on", "time": 2, "note": 66, "velocity": 108, "channel": 0}, {"type": "note_off", "time": 121, "note": 66, "velocity": 108, "channel": 0}, {"type": "note_on", "time": 24, "note": 68, "velocity": 112, "channel": 0}, {"type": "note_off", "time": 63, "note": 68, "velocity": 112, "channel": 0}, {"type": "note_on", "time": 202, "note": 71, "velocity": 122, "channel": 0}, {"type": "note_off", "time": 110, "note": 71, "velocity": 122, "channel": 0}, {"type": "note_on", "time": 16, "note": 68, "velocity": 98, "channel": 0}, {"type": "note_off", "time": 49, "note": 68, "velocity": 98, "channel": 0}, {"type": "note_on", "time": 8, "note": 69, "velocity": 115, "channel": 0}, {"type": "note_off", "time": 113, "note": 69, "velocity": 115, "channel": 0}, {"type": "note_on", "time": 11, "note": 71, "velocity": 116, "channel": 0}, {"type": "note_off", "time": 88, "note": 71, "velocity": 116, "channel": 0}, {"type": "note_on", "time": 121, "note": 69, "velocity": 113, "channel": 0}, {"type": "note_off", "time": 66, "note": 69, "velocity": 113, "channel": 0}, {"type": "note_on", "time": 96, "note": 68, "velocity": 108, "channel": 0}, {"type": "note_off", "time": 60, "note": 68, "velocity": 108, "channel": 0}, {"type": "note_on", "time": 88, "note": 64, "velocity": 109, "channel": 0}, {"type": "note_off", "time": 94, "note": 64, "velocity": 109, "channel": 0}, {"type": "note_on", "time": 16, "note": 66, "velocity": 105, "channel": 0}, {"type": "note_off", "time": 44, "note": 66, "velocity": 105, "channel": 0}, {"type": "note_on", "time": 102, "note": 68, "velocity": 112, "channel": 0}, {"type": "note_off", "time": 85, "note": 68, "velocity": 112, "channel": 0}, {"type": "note_on", "time": 71, "note": 66, "velocity": 107, "channel": 0}, {"type": "note_off", "time": 74, "note": 66, "velocity": 107, "channel": 0}, {"type": "note_on", "time": 135, "note": 65, "velocity": 109, "channel": 0}, {"type": "note_off", "time": 77, "note": 65, "velocity": 109, "channel": 0}, {"type": "note_on", "time": 0, "note": 61, "velocity": 111, "channel": 0}, {"type": "note_off", "time": 47, "note": 61, "velocity": 111, "channel": 0}, {"type": "note_on", "time": 110, "note": 63, "velocity": 117, "channel": 0}, {"type": "note_off", "time": 110, "note": 63, "velocity": 117, "channel": 0}, {"type": "note_on", "time": 16, "note": 65, "velocity": 97, "channel": 0}, {"type": "note_off", "time": 107, "note": 65, "velocity": 97, "channel": 0}, {"type": "note_on", "time": 49, "note": 61, "velocity": 121, "channel": 0}, {"type": "note_off", "time": 99, "note": 61, "velocity": 121, "channel": 0}, {"type": "note_on", "time": 0, "note": 63, "velocity": 103, "channel": 0}, {"type": "note_off", "time": 74, "note": 63, "velocity": 103, "channel": 0}, {"type": "note_on", "time": 58, "note": 65, "velocity": 112, "channel": 0}, {"type": "note_off", "time": 138, "note": 65, "velocity": 112, "channel": 0}, {"type": "note_on", "time": 16, "note": 61, "velocity": 116, "channel": 0}, {"type": "note_off", "time": 60, "note": 61, "velocity": 116, "channel": 0}, {"type": "note_on", "time": 91, "note": 59, "velocity": 105, "channel": 0}, {"type": "note_off", "time": 96, "note": 59, "velocity": 105, "channel": 0}, {"type": "note_on", "time": 38, "note": 56, "velocity": 89, "channel": 0}, {"type": "note_off", "time": 52, "note": 56, "velocity": 89, "channel": 0}, {"type": "note_on", "time": 58, "note": 59, "velocity": 103, "channel": 0}, {"type": "note_off", "time": 116, "note": 59, "velocity": 103, "channel": 0}, {"type": "note_on", "time": 0, "note": 56, "velocity": 97, "channel": 0}, {"type": "note_off", "time": 58, "note": 56, "velocity": 97, "channel": 0}, {"type": "note_on", "time": 91, "note": 59, "velocity": 102, "channel": 0}, {"type": "note_off", "time": 121, "note": 59, "velocity": 102, "channel": 0}, {"type": "note_on", "time": 5, "note": 56, "velocity": 88, "channel": 0}, {"type": "note_off", "time": 96, "note": 56, "velocity": 88, "channel": 0}, {"type": "note_on", "time": 19, "note": 58, "velocity": 98, "channel": 0}, {"type": "note_off", "time": 243, "note": 58, "velocity": 98, "channel": 0}, {"type": "note_on", "time": 418, "note": 69, "velocity": 108, "channel": 0}, {"type": "note_off", "time": 33, "note": 69, "velocity": 108, "channel": 0}, {"type": "note_on", "time": 16, "note": 71, "velocity": 107, "channel": 0}, {"type": "note_off", "time": 24, "note": 71, "velocity": 107, "channel": 0}, {"type": "note_on", "time": 24, "note": 69, "velocity": 100, "channel": 0}, {"type": "note_off", "time": 16, "note": 69, "velocity": 100, "channel": 0}, {"type": "note_on", "time": 19, "note": 66, "velocity": 104, "channel": 0}, {"type": "note_off", "time": 38, "note": 66, "velocity": 104, "channel": 0}, {"type": "note_on", "time": 33, "note": 69, "velocity": 113, "channel": 0}, {"type": "note_off", "time": 38, "note": 69, "velocity": 113, "channel": 0}, {"type": "note_on", "time": 11, "note": 71, "velocity": 99, "channel": 0}, {"type": "note_off", "time": 24, "note": 71, "velocity": 99, "channel": 0}, {"type": "note_on", "time": 16, "note": 69, "velocity": 100, "channel": 0}, {"type": "note_off", "time": 24, "note": 69, "velocity": 100, "channel": 0}, {"type": "note_on", "time": 14, "note": 66, "velocity": 92, "channel": 0}, {"type": "note_off", "time": 35, "note": 66, "velocity": 92, "channel": 0}, {"type": "note_on", "time": 21, "note": 69, "velocity": 107, "channel": 0}, {"type": "note_off", "time": 37, "note": 69, "velocity": 107, "channel": 0}, {"type": "note_on", "time": 1, "note": 71, "velocity": 101, "channel": 0}, {"type": "note_off", "time": 41, "note": 71, "velocity": 101, "channel": 0}, {"type": "note_on", "time": 1, "note": 69, "velocity": 106, "channel": 0}, {"type": "note_off", "time": 29, "note": 69, "velocity": 106, "channel": 0}, {"type": "note_on", "time": 19, "note": 66, "velocity": 91, "channel": 0}, {"type": "note_off", "time": 45, "note": 66, "velocity": 91, "channel": 0}, {"type": "note_on", "time": 39, "note": 69, "velocity": 112, "channel": 0}, {"type": "note_off", "time": 29, "note": 69, "velocity": 112, "channel": 0}, {"type": "note_on", "time": 5, "note": 71, "velocity": 99, "channel": 0}, {"type": "note_off", "time": 23, "note": 71, "velocity": 99, "channel": 0}, {"type": "note_on", "time": 15, "note": 69, "velocity": 93, "channel": 0}, {"type": "note_off", "time": 41, "note": 69, "velocity": 93, "channel": 0}, {"type": "note_on", "time": 7, "note": 66, "velocity": 92, "channel": 0}, {"type": "note_off", "time": 49, "note": 66, "velocity": 92, "channel": 0}, {"type": "note_on", "time": 23, "note": 69, "velocity": 99, "channel": 0}, {"type": "note_off", "time": 137, "note": 69, "velocity": 99, "channel": 0}, {"type": "note_on", "time": 13, "note": 66, "velocity": 97, "channel": 0}, {"type": "note_off", "time": 66, "note": 66, "velocity": 97, "channel": 0}, {"type": "note_on", "time": 14, "note": 70, "velocity": 106, "channel": 0}, {"type": "note_off", "time": 104, "note": 70, "velocity": 106, "channel": 0}, {"type": "note_on", "time": 634, "note": 67, "velocity": 110, "channel": 0}, {"type": "note_off", "time": 110, "note": 67, "velocity": 110, "channel": 0}, {"type": "note_on", "time": 7, "note": 70, "velocity": 107, "channel": 0}, {"type": "note_off", "time": 90, "note": 70, "velocity": 107, "channel": 0}, {"type": "note_on", "time": 5, "note": 67, "velocity": 98, "channel": 0}, {"type": "note_off", "time": 92, "note": 67, "velocity": 98, "channel": 0}, {"type": "note_on", "time": 15, "note": 65, "velocity": 116, "channel": 0}, {"type": "note_off", "time": 66, "note": 65, "velocity": 116, "channel": 0}, {"type": "note_on", "time": 3, "note": 63, "velocity": 123, "channel": 0}, {"type": "note_off", "time": 129, "note": 63, "velocity": 123, "channel": 0}, {"type": "note_on", "time": 0, "note": 58, "velocity": 110, "channel": 0}, {"type": "note_off", "time": 70, "note": 58, "velocity": 110, "channel": 0}, {"type": "note_on", "time": 21, "note": 56, "velocity": 103, "channel": 0}, {"type": "note_off", "time": 80, "note": 56, "velocity": 103, "channel": 0}, {"type": "note_on", "time": 17, "note": 58, "velocity": 109, "channel": 0}, {"type": "note_off", "time": 82, "note": 58, "velocity": 109, "channel": 0}, {"type": "note_on", "time": 21, "note": 60, "velocity": 105, "channel": 0}, {"type": "note_off", "time": 114, "note": 60, "velocity": 105, "channel": 0}, {"type": "note_on", "time": 94, "note": 63, "velocity": 125, "channel": 0}, {"type": "note_off", "time": 84, "note": 63, "velocity": 125, "channel": 0}, {"type": "note_on", "time": 27, "note": 60, "velocity": 109, "channel": 0}, {"type": "note_off", "time": 61, "note": 60, "velocity": 109, "channel": 0}, {"type": "note_on", "time": 7, "note": 61, "velocity": 118, "channel": 0}, {"type": "note_off", "time": 82, "note": 61, "velocity": 118, "channel": 0}, {"type": "note_on", "time": 9, "note": 63, "velocity": 125, "channel": 0}, {"type": "note_off", "time": 110, "note": 63, "velocity": 125, "channel": 0}, {"type": "note_on", "time": 25, "note": 65, "velocity": 107, "channel": 0}, {"type": "note_off", "time": 68, "note": 65, "velocity": 107, "channel": 0}, {"type": "note_on", "time": 23, "note": 67, "velocity": 100, "channel": 0}, {"type": "note_off", "time": 64, "note": 67, "velocity": 100, "channel": 0}, {"type": "note_on", "time": 11, "note": 70, "velocity": 105, "channel": 0}, {"type": "note_off", "time": 96, "note": 70, "velocity": 105, "channel": 0}, {"type": "note_on", "time": 3, "note": 75, "velocity": 110, "channel": 0}, {"type": "note_off", "time": 76, "note": 75, "velocity": 110, "channel": 0}, {"type": "note_on", "time": 0, "note": 77, "velocity": 117, "channel": 0}, {"type": "note_off", "time": 33, "note": 77, "velocity": 117, "channel": 0}, {"type": "note_on", "time": 7, "note": 79, "velocity": 113, "channel": 0}, {"type": "note_off", "time": 268, "note": 79, "velocity": 113, "channel": 0}, {"type": "note_on", "time": 8, "note": 80, "velocity": 106, "channel": 0}, {"type": "note_off", "time": 370, "note": 80, "velocity": 106, "channel": 0}, {"type": "note_on", "time": 1189, "note": 53, "velocity": 119, "channel": 0}, {"type": "note_off", "time": 53, "note": 53, "velocity": 119, "channel": 0}, {"type": "note_on", "time": 9, "note": 56, "velocity": 114, "channel": 0}, {"type": "note_off", "time": 61, "note": 56, "velocity": 114, "channel": 0}, {"type": "note_on", "time": 0, "note": 53, "velocity": 107, "channel": 0}, {"type": "note_off", "time": 51, "note": 53, "velocity": 107, "channel": 0}, {"type": "note_on", "time": 3, "note": 56, "velocity": 108, "channel": 0}, {"type": "note_off", "time": 74, "note": 56, "velocity": 108, "channel": 0}, {"type": "note_on", "time": 11, "note": 61, "velocity": 118, "channel": 0}, {"type": "note_off", "time": 63, "note": 61, "velocity": 118, "channel": 0}, {"type": "note_on", "time": 7, "note": 58, "velocity": 107, "channel": 0}, {"type": "note_off", "time": 49, "note": 58, "velocity": 107, "channel": 0}, {"type": "note_on", "time": 0, "note": 61, "velocity": 118, "channel": 0}, {"type": "note_off", "time": 59, "note": 61, "velocity": 118, "channel": 0}, {"type": "note_on", "time": 19, "note": 65, "velocity": 114, "channel": 0}, {"type": "note_off", "time": 51, "note": 65, "velocity": 114, "channel": 0}, {"type": "note_on", "time": 15, "note": 61, "velocity": 115, "channel": 0}, {"type": "note_off", "time": 29, "note": 61, "velocity": 115, "channel": 0}, {"type": "note_on", "time": 11, "note": 65, "velocity": 112, "channel": 0}, {"type": "note_off", "time": 61, "note": 65, "velocity": 112, "channel": 0}, {"type": "note_on", "time": 15, "note": 68, "velocity": 107, "channel": 0}, {"type": "note_off", "time": 53, "note": 68, "velocity": 107, "channel": 0}, {"type": "note_on", "time": 9, "note": 65, "velocity": 108, "channel": 0}, {"type": "note_off", "time": 39, "note": 65, "velocity": 108, "channel": 0}, {"type": "note_on", "time": 1, "note": 68, "velocity": 108, "channel": 0}, {"type": "note_off", "time": 61, "note": 68, "velocity": 108, "channel": 0}, {"type": "note_on", "time": 21, "note": 66, "velocity": 102, "channel": 0}, {"type": "note_off", "time": 230, "note": 66, "velocity": 102, "channel": 0}, {"type": "note_on", "time": 541, "note": 66, "velocity": 113, "channel": 0}, {"type": "note_off", "time": 72, "note": 66, "velocity": 113, "channel": 0}, {"type": "note_on", "time": 92, "note": 70, "velocity": 117, "channel": 0}, {"type": "note_off", "time": 94, "note": 70, "velocity": 117, "channel": 0}, {"type": "note_on", "time": 98, "note": 68, "velocity": 114, "channel": 0}, {"type": "note_off", "time": 86, "note": 68, "velocity": 114, "channel": 0}, {"type": "note_on", "time": 317, "note": 72, "velocity": 122, "channel": 0}, {"type": "note_off", "time": 114, "note": 72, "velocity": 122, "channel": 0}, {"type": "note_on", "time": 279, "note": 69, "velocity": 117, "channel": 0}, {"type": "note_off", "time": 86, "note": 69, "velocity": 117, "channel": 0}, {"type": "note_on", "time": 27, "note": 67, "velocity": 102, "channel": 0}, {"type": "note_off", "time": 98, "note": 67, "velocity": 102, "channel": 0}, {"type": "note_on", "time": 173, "note": 65, "velocity": 115, "channel": 0}, {"type": "note_off", "time": 94, "note": 65, "velocity": 115, "channel": 0}, {"type": "note_on", "time": 4, "note": 60, "velocity": 112, "channel": 0}, {"type": "note_off", "time": 85, "note": 60, "velocity": 112, "channel": 0}, {"type": "note_on", "time": 5, "note": 57, "velocity": 112, "channel": 0}, {"type": "note_off", "time": 110, "note": 57, "velocity": 112, "channel": 0}, {"type": "note_on", "time": 2, "note": 53, "velocity": 98, "channel": 0}, {"type": "note_off", "time": 52, "note": 53, "velocity": 98, "channel": 0}, {"type": "note_on", "time": 0, "note": 61, "velocity": 125, "channel": 0}, {"type": "note_off", "time": 135, "note": 61, "velocity": 125, "channel": 0}, {"type": "note_on", "time": 191, "note": 62, "velocity": 107, "channel": 0}, {"type": "note_off", "time": 66, "note": 62, "velocity": 107, "channel": 0}, {"type": "note_on", "time": 13, "note": 63, "velocity": 123, "channel": 0}, {"type": "note_off", "time": 127, "note": 63, "velocity": 123, "channel": 0}, {"type": "note_on", "time": 2, "note": 61, "velocity": 113, "channel": 0}, {"type": "note_off", "time": 60, "note": 61, "velocity": 113, "channel": 0}, {"type": "note_on", "time": 5, "note": 63, "velocity": 125, "channel": 0}, {"type": "note_off", "time": 107, "note": 63, "velocity": 125, "channel": 0}, {"type": "note_on", "time": 24, "note": 62, "velocity": 115, "channel": 0}, {"type": "note_off", "time": 49, "note": 62, "velocity": 115, "channel": 0}, {"type": "note_on", "time": 0, "note": 64, "velocity": 119, "channel": 0}, {"type": "note_off", "time": 88, "note": 64, "velocity": 119, "channel": 0}, {"type": "note_on", "time": 16, "note": 61, "velocity": 125, "channel": 0}, {"type": "note_off", "time": 74, "note": 61, "velocity": 125, "channel": 0}, {"type": "note_on", "time": 11, "note": 57, "velocity": 109, "channel": 0}, {"type": "note_off", "time": 85, "note": 57, "velocity": 109, "channel": 0}, {"type": "note_on", "time": 11, "note": 54, "velocity": 97, "channel": 0}, {"type": "note_off", "time": 88, "note": 54, "velocity": 97, "channel": 0}, {"type": "note_on", "time": 4, "note": 59, "velocity": 106, "channel": 0}, {"type": "note_off", "time": 113, "note": 59, "velocity": 106, "channel": 0}, {"type": "note_on", "time": 13, "note": 55, "velocity": 99, "channel": 0}, {"type": "note_off", "time": 55, "note": 55, "velocity": 99, "channel": 0}, {"type": "note_on", "time": 16, "note": 56, "velocity": 105, "channel": 0}, {"type": "note_off", "time": 74, "note": 56, "velocity": 105, "channel": 0}, {"type": "note_on", "time": 33, "note": 58, "velocity": 111, "channel": 0}, {"type": "note_off", "time": 63, "note": 58, "velocity": 111, "channel": 0}, {"type": "note_on", "time": 27, "note": 59, "velocity": 103, "channel": 0}, {"type": "note_off", "time": 69, "note": 59, "velocity": 103, "channel": 0}, {"type": "note_on", "time": 27, "note": 64, "velocity": 115, "channel": 0}, {"type": "note_off", "time": 83, "note": 64, "velocity": 115, "channel": 0}, {"type": "note_on", "time": 16, "note": 65, "velocity": 105, "channel": 0}, {"type": "note_off", "time": 74, "note": 65, "velocity": 105, "channel": 0}, {"type": "note_on", "time": 19, "note": 67, "velocity": 103, "channel": 0}, {"type": "note_off", "time": 63, "note": 67, "velocity": 103, "channel": 0}, {"type": "note_on", "time": 35, "note": 68, "velocity": 93, "channel": 0}, {"type": "note_off", "time": 58, "note": 68, "velocity": 93, "channel": 0}, {"type": "note_on", "time": 30, "note": 70, "velocity": 77, "channel": 0}, {"type": "note_off", "time": 63, "note": 70, "velocity": 77, "channel": 0}, {"type": "note_on", "time": 27, "note": 71, "velocity": 110, "channel": 0}, {"type": "note_off", "time": 66, "note": 71, "velocity": 110, "channel": 0}, {"type": "note_on", "time": 35, "note": 70, "velocity": 109, "channel": 0}, {"type": "note_off", "time": 80, "note": 70, "velocity": 109, "channel": 0}, {"type": "note_on", "time": 11, "note": 66, "velocity": 107, "channel": 0}, {"type": "note_off", "time": 83, "note": 66, "velocity": 107, "channel": 0}, {"type": "note_on", "time": 0, "note": 62, "velocity": 106, "channel": 0}, {"type": "note_off", "time": 77, "note": 62, "velocity": 106, "channel": 0}, {"type": "note_on", "time": 13, "note": 63, "velocity": 119, "channel": 0}, {"type": "note_off", "time": 110, "note": 63, "velocity": 119, "channel": 0}, {"type": "note_on", "time": 30, "note": 67, "velocity": 105, "channel": 0}, {"type": "note_off", "time": 157, "note": 67, "velocity": 105, "channel": 0}, {"type": "note_on", "time": 22, "note": 65, "velocity": 115, "channel": 0}, {"type": "note_off", "time": 74, "note": 65, "velocity": 115, "channel": 0}, {"type": "note_on", "time": 8, "note": 63, "velocity": 119, "channel": 0}, {"type": "note_off", "time": 80, "note": 63, "velocity": 119, "channel": 0}, {"type": "note_on", "time": 35, "note": 58, "velocity": 115, "channel": 0}, {"type": "note_off", "time": 47, "note": 58, "velocity": 115, "channel": 0}, {"type": "note_on", "time": 0, "note": 54, "velocity": 103, "channel": 0}, {"type": "note_off", "time": 127, "note": 54, "velocity": 103, "channel": 0}, {"type": "note_on", "time": 16, "note": 58, "velocity": 105, "channel": 0}, {"type": "note_off", "time": 41, "note": 58, "velocity": 105, "channel": 0}, {"type": "note_on", "time": 2, "note": 61, "velocity": 121, "channel": 0}, {"type": "note_off", "time": 124, "note": 61, "velocity": 121, "channel": 0}, {"type": "note_on", "time": 38, "note": 58, "velocity": 102, "channel": 0}, {"type": "note_off", "time": 30, "note": 58, "velocity": 102, "channel": 0}, {"type": "note_on", "time": 2, "note": 60, "velocity": 112, "channel": 0}, {"type": "note_off", "time": 213, "note": 60, "velocity": 112, "channel": 0}, {"type": "note_on", "time": 542, "note": 63, "velocity": 122, "channel": 0}, {"type": "note_off", "time": 88, "note": 63, "velocity": 122, "channel": 0}, {"type": "note_on", "time": 2, "note": 61, "velocity": 119, "channel": 0}, {"type": "note_off", "time": 38, "note": 61, "velocity": 119, "channel": 0}, {"type": "note_on", "time": 10, "note": 58, "velocity": 110, "channel": 0}, {"type": "note_off", "time": 44, "note": 58, "velocity": 110, "channel": 0}, {"type": "note_on", "time": 11, "note": 56, "velocity": 104, "channel": 0}, {"type": "note_off", "time": 58, "note": 56, "velocity": 104, "channel": 0}, {"type": "note_on", "time": 63, "note": 63, "velocity": 126, "channel": 0}, {"type": "note_off", "time": 63, "note": 63, "velocity": 126, "channel": 0}, {"type": "note_on", "time": 2, "note": 61, "velocity": 116, "channel": 0}, {"type": "note_off", "time": 33, "note": 61, "velocity": 116, "channel": 0}, {"type": "note_on", "time": 8, "note": 59, "velocity": 110, "channel": 0}, {"type": "note_off", "time": 33, "note": 59, "velocity": 110, "channel": 0}, {"type": "note_on", "time": 22, "note": 56, "velocity": 108, "channel": 0}, {"type": "note_off", "time": 55, "note": 56, "velocity": 108, "channel": 0}, {"type": "note_on", "time": 19, "note": 63, "velocity": 122, "channel": 0}, {"type": "note_off", "time": 127, "note": 63, "velocity": 122, "channel": 0}, {"type": "note_on", "time": 16, "note": 60, "velocity": 119, "channel": 0}, {"type": "note_off", "time": 77, "note": 60, "velocity": 119, "channel": 0}, {"type": "note_on", "time": 8, "note": 58, "velocity": 105, "channel": 0}, {"type": "note_off", "time": 66, "note": 58, "velocity": 105, "channel": 0}, {"type": "note_on", "time": 16, "note": 56, "velocity": 85, "channel": 0}, {"type": "note_off", "time": 41, "note": 56, "velocity": 85, "channel": 0}, {"type": "note_on", "time": 22, "note": 60, "velocity": 113, "channel": 0}, {"type": "note_off", "time": 157, "note": 60, "velocity": 113, "channel": 0}, {"type": "note_on", "time": 80, "note": 56, "velocity": 102, "channel": 0}, {"type": "note_off", "time": 71, "note": 56, "velocity": 102, "channel": 0}, {"type": "note_on", "time": 94, "note": 60, "velocity": 119, "channel": 0}, {"type": "note_off", "time": 132, "note": 60, "velocity": 119, "channel": 0}, {"type": "note_on", "time": 87, "note": 58, "velocity": 103, "channel": 0}, {"type": "note_off", "time": 36, "note": 58, "velocity": 103, "channel": 0}, {"type": "note_on", "time": 4, "note": 58, "velocity": 98, "channel": 0}, {"type": "note_off", "time": 33, "note": 58, "velocity": 98, "channel": 0}, {"type": "note_on", "time": 58, "note": 61, "velocity": 117, "channel": 0}, {"type": "note_off", "time": 143, "note": 61, "velocity": 117, "channel": 0}, {"type": "note_on", "time": 20, "note": 58, "velocity": 100, "channel": 0}, {"type": "note_off", "time": 35, "note": 58, "velocity": 100, "channel": 0}, {"type": "note_on", "time": 0, "note": 60, "velocity": 113, "channel": 0}, {"type": "note_off", "time": 141, "note": 60, "velocity": 113, "channel": 0}, {"type": "note_on", "time": 11, "note": 58, "velocity": 98, "channel": 0}, {"type": "note_off", "time": 43, "note": 58, "velocity": 98, "channel": 0}, {"type": "note_on", "time": 0, "note": 63, "velocity": 120, "channel": 0}, {"type": "note_off", "time": 118, "note": 63, "velocity": 120, "channel": 0}, {"type": "note_on", "time": 19, "note": 58, "velocity": 101, "channel": 0}, {"type": "note_off", "time": 39, "note": 58, "velocity": 101, "channel": 0}, {"type": "note_on", "time": 11, "note": 65, "velocity": 105, "channel": 0}, {"type": "note_off", "time": 153, "note": 65, "velocity": 105, "channel": 0}, {"type": "note_on", "time": 282, "note": 66, "velocity": 108, "channel": 0}, {"type": "note_off", "time": 66, "note": 66, "velocity": 108, "channel": 0}, {"type": "note_on", "time": 24, "note": 66, "velocity": 105, "channel": 0}, {"type": "note_off", "time": 69, "note": 66, "velocity": 105, "channel": 0}, {"type": "note_on", "time": 11, "note": 65, "velocity": 107, "channel": 0}, {"type": "note_off", "time": 83, "note": 65, "velocity": 107, "channel": 0}, {"type": "note_on", "time": 10, "note": 63, "velocity": 116, "channel": 0}, {"type": "note_off", "time": 78, "note": 63, "velocity": 116, "channel": 0}, {"type": "note_on", "time": 31, "note": 61, "velocity": 116, "channel": 0}, {"type": "note_off", "time": 78, "note": 61, "velocity": 116, "channel": 0}, {"type": "note_on", "time": 23, "note": 63, "velocity": 109, "channel": 0}, {"type": "note_off", "time": 47, "note": 63, "velocity": 109, "channel": 0}, {"type": "note_on", "time": 3, "note": 65, "velocity": 111, "channel": 0}, {"type": "note_off", "time": 85, "note": 65, "velocity": 111, "channel": 0}, {"type": "note_on", "time": 44, "note": 70, "velocity": 93, "channel": 0}, {"type": "note_off", "time": 44, "note": 70, "velocity": 93, "channel": 0}, {"type": "note_on", "time": 35, "note": 73, "velocity": 110, "channel": 0}, {"type": "note_off", "time": 113, "note": 73, "velocity": 110, "channel": 0}, {"type": "note_on", "time": 0, "note": 70, "velocity": 105, "channel": 0}, {"type": "note_off", "time": 58, "note": 70, "velocity": 105, "channel": 0}, {"type": "note_on", "time": 119, "note": 70, "velocity": 115, "channel": 0}, {"type": "note_off", "time": 77, "note": 70, "velocity": 115, "channel": 0}, {"type": "note_on", "time": 110, "note": 68, "velocity": 112, "channel": 0}, {"type": "note_off", "time": 91, "note": 68, "velocity": 112, "channel": 0}, {"type": "note_on", "time": 83, "note": 70, "velocity": 112, "channel": 0}, {"type": "note_off", "time": 83, "note": 70, "velocity": 112, "channel": 0}, {"type": "note_on", "time": 121, "note": 68, "velocity": 106, "channel": 0}, {"type": "note_off", "time": 77, "note": 68, "velocity": 106, "channel": 0}, {"type": "note_on", "time": 99, "note": 69, "velocity": 108, "channel": 0}, {"type": "note_off", "time": 71, "note": 69, "velocity": 108, "channel": 0}, {"type": "note_on", "time": 116, "note": 72, "velocity": 121, "channel": 0}, {"type": "note_off", "time": 66, "note": 72, "velocity": 121, "channel": 0}, {"type": "note_on", "time": 143, "note": 70, "velocity": 107, "channel": 0}, {"type": "note_off", "time": 66, "note": 70, "velocity": 107, "channel": 0}, {"type": "note_on", "time": 96, "note": 72, "velocity": 117, "channel": 0}, {"type": "note_off", "time": 74, "note": 72, "velocity": 117, "channel": 0}, {"type": "note_on", "time": 130, "note": 72, "velocity": 115, "channel": 0}, {"type": "note_off", "time": 74, "note": 72, "velocity": 115, "channel": 0}, {"type": "note_on", "time": 110, "note": 69, "velocity": 107, "channel": 0}, {"type": "note_off", "time": 49, "note": 69, "velocity": 107, "channel": 0}, {"type": "note_on", "time": 202, "note": 72, "velocity": 124, "channel": 0}, {"type": "note_off", "time": 88, "note": 72, "velocity": 124, "channel": 0}, {"type": "note_on", "time": 55, "note": 65, "velocity": 91, "channel": 0}, {"type": "note_off", "time": 35, "note": 65, "velocity": 91, "channel": 0}, {"type": "note_on", "time": 38, "note": 69, "velocity": 103, "channel": 0}, {"type": "note_off", "time": 74, "note": 69, "velocity": 103, "channel": 0}, {"type": "note_on", "time": 91, "note": 69, "velocity": 107, "channel": 0}, {"type": "note_off", "time": 88, "note": 69, "velocity": 107, "channel": 0}, {"type": "note_on", "time": 99, "note": 72, "velocity": 113, "channel": 0}, {"type": "note_off", "time": 74, "note": 72, "velocity": 113, "channel": 0}, {"type": "note_on", "time": 221, "note": 69, "velocity": 109, "channel": 0}, {"type": "note_off", "time": 69, "note": 69, "velocity": 109, "channel": 0}, {"type": "note_on", "time": 121, "note": 69, "velocity": 118, "channel": 0}, {"type": "note_off", "time": 83, "note": 69, "velocity": 118, "channel": 0}, {"type": "note_on", "time": 107, "note": 71, "velocity": 123, "channel": 0}, {"type": "note_off", "time": 94, "note": 71, "velocity": 123, "channel": 0}, {"type": "note_on", "time": 105, "note": 68, "velocity": 105, "channel": 0}, {"type": "note_off", "time": 58, "note": 68, "velocity": 105, "channel": 0}, {"type": "note_on", "time": 116, "note": 71, "velocity": 120, "channel": 0}, {"type": "note_off", "time": 102, "note": 71, "velocity": 120, "channel": 0}, {"type": "note_on", "time": 91, "note": 69, "velocity": 105, "channel": 0}, {"type": "note_off", "time": 66, "note": 69, "velocity": 105, "channel": 0}, {"type": "note_on", "time": 116, "note": 68, "velocity": 110, "channel": 0}, {"type": "note_off", "time": 88, "note": 68, "velocity": 110, "channel": 0}, {"type": "note_on", "time": 94, "note": 71, "velocity": 120, "channel": 0}, {"type": "note_off", "time": 83, "note": 71, "velocity": 120, "channel": 0}, {"type": "note_on", "time": 113, "note": 69, "velocity": 111, "channel": 0}, {"type": "note_off", "time": 60, "note": 69, "velocity": 111, "channel": 0}, {"type": "note_on", "time": 127, "note": 68, "velocity": 111, "channel": 0}, {"type": "note_off", "time": 60, "note": 68, "velocity": 111, "channel": 0}, {"type": "note_on", "time": 121, "note": 64, "velocity": 106, "channel": 0}, {"type": "note_off", "time": 63, "note": 64, "velocity": 106, "channel": 0}, {"type": "note_on", "time": 127, "note": 66, "velocity": 103, "channel": 0}, {"type": "note_off", "time": 52, "note": 66, "velocity": 103, "channel": 0}, {"type": "note_on", "time": 124, "note": 68, "velocity": 115, "channel": 0}, {"type": "note_off", "time": 69, "note": 68, "velocity": 115, "channel": 0}, {"type": "note_on", "time": 113, "note": 67, "velocity": 103, "channel": 0}, {"type": "note_off", "time": 30, "note": 67, "velocity": 103, "channel": 0}, {"type": "note_on", "time": 4, "note": 65, "velocity": 116, "channel": 0}, {"type": "note_off", "time": 52, "note": 65, "velocity": 116, "channel": 0}, {"type": "note_on", "time": 103, "note": 61, "velocity": 122, "channel": 0}, {"type": "note_off", "time": 74, "note": 61, "velocity": 122, "channel": 0}, {"type": "note_on", "time": 105, "note": 63, "velocity": 112, "channel": 0}, {"type": "note_off", "time": 94, "note": 63, "velocity": 112, "channel": 0}, {"type": "note_on", "time": 91, "note": 65, "velocity": 104, "channel": 0}, {"type": "note_off", "time": 69, "note": 65, "velocity": 104, "channel": 0}, {"type": "note_on", "time": 124, "note": 68, "velocity": 117, "channel": 0}, {"type": "note_off", "time": 63, "note": 68, "velocity": 117, "channel": 0}, {"type": "note_on", "time": 135, "note": 61, "velocity": 115, "channel": 0}, {"type": "note_off", "time": 60, "note": 61, "velocity": 115, "channel": 0}, {"type": "note_on", "time": 121, "note": 63, "velocity": 121, "channel": 0}, {"type": "note_off", "time": 105, "note": 63, "velocity": 121, "channel": 0}, {"type": "note_on", "time": 96, "note": 65, "velocity": 112, "channel": 0}, {"type": "note_off", "time": 110, "note": 65, "velocity": 112, "channel": 0}, {"type": "note_on", "time": 141, "note": 68, "velocity": 113, "channel": 0}, {"type": "note_off", "time": 102, "note": 68, "velocity": 113, "channel": 0}, {"type": "note_on", "time": 135, "note": 61, "velocity": 117, "channel": 0}, {"type": "note_off", "time": 99, "note": 61, "velocity": 117, "channel": 0}, {"type": "note_on", "time": 164, "note": 63, "velocity": 117, "channel": 0}, {"type": "note_off", "time": 101, "note": 63, "velocity": 117, "channel": 0}, {"type": "note_on", "time": 202, "note": 65, "velocity": 111, "channel": 0}, {"type": "note_off", "time": 109, "note": 65, "velocity": 111, "channel": 0}, {"type": "note_on", "time": 234, "note": 69, "velocity": 107, "channel": 0}, {"type": "note_off", "time": 293, "note": 69, "velocity": 107, "channel": 0}, {"type": "note_on", "time": 713, "note": 68, "velocity": 121, "channel": 0}, {"type": "note_off", "time": 91, "note": 68, "velocity": 121, "channel": 0}, {"type": "note_on", "time": 13, "note": 67, "velocity": 113, "channel": 0}, {"type": "note_off", "time": 66, "note": 67, "velocity": 113, "channel": 0}, {"type": "note_on", "time": 138, "note": 70, "velocity": 121, "channel": 0}, {"type": "note_off", "time": 71, "note": 70, "velocity": 121, "channel": 0}, {"type": "note_on", "time": 19, "note": 67, "velocity": 112, "channel": 0}, {"type": "note_off", "time": 52, "note": 67, "velocity": 112, "channel": 0}, {"type": "note_on", "time": 33, "note": 63, "velocity": 123, "channel": 0}, {"type": "note_off", "time": 69, "note": 63, "velocity": 123, "channel": 0}, {"type": "note_on", "time": 8, "note": 65, "velocity": 110, "channel": 0}, {"type": "note_off", "time": 71, "note": 65, "velocity": 110, "channel": 0}, {"type": "note_on", "time": 13, "note": 67, "velocity": 110, "channel": 0}, {"type": "note_off", "time": 71, "note": 67, "velocity": 110, "channel": 0}, {"type": "note_on", "time": 8, "note": 63, "velocity": 115, "channel": 0}, {"type": "note_off", "time": 63, "note": 63, "velocity": 115, "channel": 0}, {"type": "note_on", "time": 38, "note": 65, "velocity": 119, "channel": 0}, {"type": "note_off", "time": 77, "note": 65, "velocity": 119, "channel": 0}, {"type": "note_on", "time": 13, "note": 63, "velocity": 124, "channel": 0}, {"type": "note_off", "time": 55, "note": 63, "velocity": 124, "channel": 0}, {"type": "note_on", "time": 11, "note": 58, "velocity": 109, "channel": 0}, {"type": "note_off", "time": 49, "note": 58, "velocity": 109, "channel": 0}, {"type": "note_on", "time": 5, "note": 55, "velocity": 110, "channel": 0}, {"type": "note_off", "time": 35, "note": 55, "velocity": 110, "channel": 0}, {"type": "note_on", "time": 52, "note": 64, "velocity": 116, "channel": 0}, {"type": "note_off", "time": 66, "note": 64, "velocity": 116, "channel": 0}, {"type": "note_on", "time": 35, "note": 69, "velocity": 108, "channel": 0}, {"type": "note_off", "time": 80, "note": 69, "velocity": 108, "channel": 0}, {"type": "note_on", "time": 66, "note": 66, "velocity": 107, "channel": 0}, {"type": "note_off", "time": 41, "note": 66, "velocity": 107, "channel": 0}, {"type": "note_on", "time": 2, "note": 64, "velocity": 106, "channel": 0}, {"type": "note_off", "time": 66, "note": 64, "velocity": 106, "channel": 0}, {"type": "note_on", "time": 27, "note": 59, "velocity": 103, "channel": 0}, {"type": "note_off", "time": 41, "note": 59, "velocity": 103, "channel": 0}, {"type": "note_on", "time": 41, "note": 64, "velocity": 110, "channel": 0}, {"type": "note_off", "time": 63, "note": 64, "velocity": 110, "channel": 0}, {"type": "note_on", "time": 0, "note": 61, "velocity": 119, "channel": 0}, {"type": "note_off", "time": 83, "note": 61, "velocity": 119, "channel": 0}, {"type": "note_on", "time": 5, "note": 59, "velocity": 107, "channel": 0}, {"type": "note_off", "time": 33, "note": 59, "velocity": 107, "channel": 0}, {"type": "note_on", "time": 19, "note": 57, "velocity": 107, "channel": 0}, {"type": "note_off", "time": 80, "note": 57, "velocity": 107, "channel": 0}, {"type": "note_on", "time": 14, "note": 54, "velocity": 103, "channel": 0}, {"type": "note_off", "time": 71, "note": 54, "velocity": 103, "channel": 0}, {"type": "note_on", "time": 18, "note": 59, "velocity": 106, "channel": 0}, {"type": "note_off", "time": 74, "note": 59, "velocity": 106, "channel": 0}, {"type": "note_on", "time": 53, "note": 52, "velocity": 111, "channel": 0}, {"type": "note_off", "time": 27, "note": 52, "velocity": 111, "channel": 0}, {"type": "note_on", "time": 9, "note": 54, "velocity": 105, "channel": 0}, {"type": "note_off", "time": 45, "note": 54, "velocity": 105, "channel": 0}, {"type": "note_on", "time": 37, "note": 59, "velocity": 100, "channel": 0}, {"type": "note_off", "time": 47, "note": 59, "velocity": 100, "channel": 0}, {"type": "note_on", "time": 1, "note": 57, "velocity": 107, "channel": 0}, {"type": "note_off", "time": 43, "note": 57, "velocity": 107, "channel": 0}, {"type": "note_on", "time": 45, "note": 59, "velocity": 100, "channel": 0}, {"type": "note_off", "time": 41, "note": 59, "velocity": 100, "channel": 0}, {"type": "note_on", "time": 5, "note": 58, "velocity": 105, "channel": 0}, {"type": "note_off", "time": 41, "note": 58, "velocity": 105, "channel": 0}, {"type": "note_on", "time": 3, "note": 70, "velocity": 106, "channel": 0}, {"type": "note_off", "time": 45, "note": 70, "velocity": 106, "channel": 0}, {"type": "note_on", "time": 11, "note": 65, "velocity": 101, "channel": 0}, {"type": "note_off", "time": 53, "note": 65, "velocity": 101, "channel": 0}, {"type": "note_on", "time": 31, "note": 67, "velocity": 106, "channel": 0}, {"type": "note_off", "time": 80, "note": 67, "velocity": 106, "channel": 0}, {"type": "note_on", "time": 5, "note": 65, "velocity": 98, "channel": 0}, {"type": "note_off", "time": 72, "note": 65, "velocity": 98, "channel": 0}, {"type": "note_on", "time": 17, "note": 63, "velocity": 119, "channel": 0}, {"type": "note_off", "time": 47, "note": 63, "velocity": 119, "channel": 0}, {"type": "note_on", "time": 17, "note": 58, "velocity": 105, "channel": 0}, {"type": "note_off", "time": 39, "note": 58, "velocity": 105, "channel": 0}, {"type": "note_on", "time": 45, "note": 63, "velocity": 121, "channel": 0}, {"type": "note_off", "time": 80, "note": 63, "velocity": 121, "channel": 0}, {"type": "note_on", "time": 7, "note": 61, "velocity": 116, "channel": 0}, {"type": "note_off", "time": 57, "note": 61, "velocity": 116, "channel": 0}, {"type": "note_on", "time": 9, "note": 58, "velocity": 105, "channel": 0}, {"type": "note_off", "time": 55, "note": 58, "velocity": 105, "channel": 0}, {"type": "note_on", "time": 29, "note": 54, "velocity": 106, "channel": 0}, {"type": "note_off", "time": 45, "note": 54, "velocity": 106, "channel": 0}, {"type": "note_on", "time": 17, "note": 52, "velocity": 110, "channel": 0}, {"type": "note_off", "time": 31, "note": 52, "velocity": 110, "channel": 0}, {"type": "note_on", "time": 35, "note": 56, "velocity": 111, "channel": 0}, {"type": "note_off", "time": 33, "note": 56, "velocity": 111, "channel": 0}, {"type": "note_on", "time": 13, "note": 54, "velocity": 103, "channel": 0}, {"type": "note_off", "time": 33, "note": 54, "velocity": 103, "channel": 0}, {"type": "note_on", "time": 19, "note": 46, "velocity": 110, "channel": 0}, {"type": "note_off", "time": 35, "note": 46, "velocity": 110, "channel": 0}, {"type": "note_on", "time": 15, "note": 51, "velocity": 113, "channel": 0}, {"type": "note_off", "time": 47, "note": 51, "velocity": 113, "channel": 0}, {"type": "note_on", "time": 29, "note": 46, "velocity": 119, "channel": 0}, {"type": "note_off", "time": 53, "note": 46, "velocity": 119, "channel": 0}, {"type": "note_on", "time": 33, "note": 44, "velocity": 127, "channel": 0}, {"type": "note_off", "time": 59, "note": 44, "velocity": 127, "channel": 0}, {"type": "note_on", "time": 529, "note": 46, "velocity": 119, "channel": 0}, {"type": "note_off", "time": 92, "note": 46, "velocity": 119, "channel": 0}, {"type": "note_on", "time": 23, "note": 53, "velocity": 111, "channel": 0}, {"type": "note_off", "time": 47, "note": 53, "velocity": 111, "channel": 0}, {"type": "note_on", "time": 15, "note": 58, "velocity": 104, "channel": 0}, {"type": "note_off", "time": 143, "note": 58, "velocity": 104, "channel": 0}, {"type": "note_on", "time": 53, "note": 70, "velocity": 109, "channel": 0}, {"type": "note_off", "time": 110, "note": 70, "velocity": 109, "channel": 0}, {"type": "note_on", "time": 27, "note": 65, "velocity": 107, "channel": 0}, {"type": "note_off", "time": 55, "note": 65, "velocity": 107, "channel": 0}, {"type": "note_on", "time": 11, "note": 58, "velocity": 100, "channel": 0}, {"type": "note_off", "time": 108, "note": 58, "velocity": 100, "channel": 0}, {"type": "note_on", "time": 68, "note": 63, "velocity": 103, "channel": 0}, {"type": "note_off", "time": 78, "note": 63, "velocity": 103, "channel": 0}, {"type": "note_on", "time": 33, "note": 58, "velocity": 114, "channel": 0}, {"type": "note_off", "time": 80, "note": 58, "velocity": 114, "channel": 0}, {"type": "note_on", "time": 23, "note": 63, "velocity": 102, "channel": 0}, {"type": "note_off", "time": 70, "note": 63, "velocity": 102, "channel": 0}, {"type": "note_on", "time": 13, "note": 68, "velocity": 106, "channel": 0}, {"type": "note_off", "time": 64, "note": 68, "velocity": 106, "channel": 0}, {"type": "note_on", "time": 17, "note": 68, "velocity": 107, "channel": 0}, {"type": "note_off", "time": 86, "note": 68, "velocity": 107, "channel": 0}, {"type": "note_on", "time": 17, "note": 68, "velocity": 110, "channel": 0}, {"type": "note_off", "time": 51, "note": 68, "velocity": 110, "channel": 0}, {"type": "note_on", "time": 11, "note": 66, "velocity": 101, "channel": 0}, {"type": "note_off", "time": 102, "note": 66, "velocity": 101, "channel": 0}, {"type": "note_on", "time": 25, "note": 63, "velocity": 120, "channel": 0}, {"type": "note_off", "time": 66, "note": 63, "velocity": 120, "channel": 0}, {"type": "note_on", "time": 7, "note": 58, "velocity": 101, "channel": 0}, {"type": "note_off", "time": 110, "note": 58, "velocity": 101, "channel": 0}, {"type": "note_on", "time": 61, "note": 63, "velocity": 119, "channel": 0}, {"type": "note_off", "time": 133, "note": 63, "velocity": 119, "channel": 0}, {"type": "note_on", "time": 23, "note": 58, "velocity": 102, "channel": 0}, {"type": "note_off", "time": 53, "note": 58, "velocity": 102, "channel": 0}, {"type": "note_on", "time": 23, "note": 60, "velocity": 115, "channel": 0}, {"type": "note_off", "time": 120, "note": 60, "velocity": 115, "channel": 0}, {"type": "note_on", "time": 72, "note": 61, "velocity": 117, "channel": 0}, {"type": "note_off", "time": 80, "note": 61, "velocity": 117, "channel": 0}, {"type": "note_on", "time": 108, "note": 63, "velocity": 115, "channel": 0}, {"type": "note_off", "time": 74, "note": 63, "velocity": 115, "channel": 0}, {"type": "note_on", "time": 94, "note": 65, "velocity": 112, "channel": 0}, {"type": "note_off", "time": 98, "note": 65, "velocity": 112, "channel": 0}, {"type": "note_on", "time": 106, "note": 66, "velocity": 110, "channel": 0}, {"type": "note_off", "time": 88, "note": 66, "velocity": 110, "channel": 0}, {"type": "note_on", "time": 37, "note": 68, "velocity": 96, "channel": 0}, {"type": "note_off", "time": 53, "note": 68, "velocity": 96, "channel": 0}, {"type": "note_on", "time": 7, "note": 70, "velocity": 104, "channel": 0}, {"type": "note_off", "time": 104, "note": 70, "velocity": 104, "channel": 0}, {"type": "note_on", "time": 9, "note": 66, "velocity": 113, "channel": 0}, {"type": "note_off", "time": 86, "note": 66, "velocity": 113, "channel": 0}, {"type": "note_on", "time": 21, "note": 65, "velocity": 105, "channel": 0}, {"type": "note_off", "time": 137, "note": 65, "velocity": 105, "channel": 0}, {"type": "note_on", "time": 7, "note": 63, "velocity": 106, "channel": 0}, {"type": "note_off", "time": 104, "note": 63, "velocity": 106, "channel": 0}, {"type": "note_on", "time": 23, "note": 65, "velocity": 118, "channel": 0}, {"type": "note_off", "time": 84, "note": 65, "velocity": 118, "channel": 0}, {"type": "note_on", "time": 378, "note": 71, "velocity": 108, "channel": 0}, {"type": "note_off", "time": 88, "note": 71, "velocity": 108, "channel": 0}, {"type": "note_on", "time": 3, "note": 70, "velocity": 108, "channel": 0}, {"type": "note_off", "time": 31, "note": 70, "velocity": 108, "channel": 0}, {"type": "note_on", "time": 7, "note": 69, "velocity": 111, "channel": 0}, {"type": "note_off", "time": 53, "note": 69, "velocity": 111, "channel": 0}, {"type": "note_on", "time": 11, "note": 68, "velocity": 112, "channel": 0}, {"type": "note_off", "time": 72, "note": 68, "velocity": 112, "channel": 0}, {"type": "note_on", "time": 29, "note": 66, "velocity": 107, "channel": 0}, {"type": "note_off", "time": 61, "note": 66, "velocity": 107, "channel": 0}, {"type": "note_on", "time": 13, "note": 65, "velocity": 103, "channel": 0}, {"type": "note_off", "time": 70, "note": 65, "velocity": 103, "channel": 0}, {"type": "note_on", "time": 21, "note": 63, "velocity": 126, "channel": 0}, {"type": "note_off", "time": 76, "note": 63, "velocity": 126, "channel": 0}, {"type": "note_on", "time": 19, "note": 62, "velocity": 118, "channel": 0}, {"type": "note_off", "time": 72, "note": 62, "velocity": 118, "channel": 0}, {"type": "note_on", "time": 31, "note": 59, "velocity": 107, "channel": 0}, {"type": "note_off", "time": 66, "note": 59, "velocity": 107, "channel": 0}, {"type": "note_on", "time": 11, "note": 58, "velocity": 107, "channel": 0}, {"type": "note_off", "time": 82, "note": 58, "velocity": 107, "channel": 0}, {"type": "note_on", "time": 29, "note": 56, "velocity": 111, "channel": 0}, {"type": "note_off", "time": 51, "note": 56, "velocity": 111, "channel": 0}, {"type": "note_on", "time": 23, "note": 54, "velocity": 103, "channel": 0}, {"type": "note_off", "time": 104, "note": 54, "velocity": 103, "channel": 0}, {"type": "note_on", "time": 9, "note": 56, "velocity": 108, "channel": 0}, {"type": "note_off", "time": 78, "note": 56, "velocity": 108, "channel": 0}, {"type": "note_on", "time": 13, "note": 58, "velocity": 95, "channel": 0}, {"type": "note_off", "time": 84, "note": 58, "velocity": 95, "channel": 0}, {"type": "note_on", "time": 33, "note": 61, "velocity": 116, "channel": 0}, {"type": "note_off", "time": 63, "note": 61, "velocity": 116, "channel": 0}, {"type": "note_on", "time": 7, "note": 58, "velocity": 101, "channel": 0}, {"type": "note_off", "time": 83, "note": 58, "velocity": 101, "channel": 0}, {"type": "note_on", "time": 17, "note": 59, "velocity": 103, "channel": 0}, {"type": "note_off", "time": 56, "note": 59, "velocity": 103, "channel": 0}, {"type": "note_on", "time": 6, "note": 63, "velocity": 115, "channel": 0}, {"type": "note_off", "time": 112, "note": 63, "velocity": 115, "channel": 0}, {"type": "note_on", "time": 5, "note": 66, "velocity": 90, "channel": 0}, {"type": "note_off", "time": 68, "note": 66, "velocity": 90, "channel": 0}, {"type": "note_on", "time": 7, "note": 67, "velocity": 108, "channel": 0}, {"type": "note_off", "time": 88, "note": 67, "velocity": 108, "channel": 0}, {"type": "note_on", "time": 13, "note": 69, "velocity": 115, "channel": 0}, {"type": "note_off", "time": 49, "note": 69, "velocity": 115, "channel": 0}, {"type": "note_on", "time": 5, "note": 68, "velocity": 113, "channel": 0}, {"type": "note_off", "time": 104, "note": 68, "velocity": 113, "channel": 0}, {"type": "note_on", "time": 305, "note": 68, "velocity": 114, "channel": 0}, {"type": "note_off", "time": 82, "note": 68, "velocity": 114, "channel": 0}, {"type": "note_on", "time": 25, "note": 70, "velocity": 107, "channel": 0}, {"type": "note_off", "time": 59, "note": 70, "velocity": 107, "channel": 0}, {"type": "note_on", "time": 11, "note": 71, "velocity": 110, "channel": 0}, {"type": "note_off", "time": 124, "note": 71, "velocity": 110, "channel": 0}, {"type": "note_on", "time": 13, "note": 69, "velocity": 94, "channel": 0}, {"type": "note_off", "time": 47, "note": 69, "velocity": 94, "channel": 0}, {"type": "note_on", "time": 11, "note": 70, "velocity": 104, "channel": 0}, {"type": "note_off", "time": 78, "note": 70, "velocity": 104, "channel": 0}, {"type": "note_on", "time": 255, "note": 65, "velocity": 95, "channel": 0}, {"type": "note_off", "time": 41, "note": 65, "velocity": 95, "channel": 0}, {"type": "note_on", "time": 35, "note": 68, "velocity": 118, "channel": 0}, {"type": "note_off", "time": 98, "note": 68, "velocity": 118, "channel": 0}, {"type": "note_on", "time": 3, "note": 66, "velocity": 100, "channel": 0}, {"type": "note_off", "time": 39, "note": 66, "velocity": 100, "channel": 0}, {"type": "note_on", "time": 0, "note": 65, "velocity": 105, "channel": 0}, {"type": "note_off", "time": 31, "note": 65, "velocity": 105, "channel": 0}, {"type": "note_on", "time": 15, "note": 61, "velocity": 116, "channel": 0}, {"type": "note_off", "time": 96, "note": 61, "velocity": 116, "channel": 0}, {"type": "note_on", "time": 37, "note": 58, "velocity": 103, "channel": 0}, {"type": "note_off", "time": 35, "note": 58, "velocity": 103, "channel": 0}, {"type": "note_on", "time": 1, "note": 62, "velocity": 120, "channel": 0}, {"type": "note_off", "time": 94, "note": 62, "velocity": 120, "channel": 0}, {"type": "note_on", "time": 84, "note": 65, "velocity": 113, "channel": 0}, {"type": "note_off", "time": 127, "note": 65, "velocity": 113, "channel": 0}, {"type": "note_on", "time": 0, "note": 63, "velocity": 119, "channel": 0}, {"type": "note_off", "time": 78, "note": 63, "velocity": 119, "channel": 0}, {"type": "note_on", "time": 0, "note": 58, "velocity": 105, "channel": 0}, {"type": "note_off", "time": 96, "note": 58, "velocity": 105, "channel": 0}, {"type": "note_on", "time": 27, "note": 54, "velocity": 96, "channel": 0}, {"type": "note_off", "time": 51, "note": 54, "velocity": 96, "channel": 0}, {"type": "note_on", "time": 9, "note": 61, "velocity": 118, "channel": 0}, {"type": "note_off", "time": 106, "note": 61, "velocity": 118, "channel": 0}, {"type": "note_on", "time": 7, "note": 63, "velocity": 118, "channel": 0}, {"type": "note_off", "time": 90, "note": 63, "velocity": 118, "channel": 0}, {"type": "note_on", "time": 5, "note": 60, "velocity": 109, "channel": 0}, {"type": "note_off", "time": 90, "note": 60, "velocity": 109, "channel": 0}, {"type": "note_on", "time": 3, "note": 63, "velocity": 121, "channel": 0}, {"type": "note_off", "time": 70, "note": 63, "velocity": 121, "channel": 0}, {"type": "note_on", "time": 21, "note": 60, "velocity": 111, "channel": 0}, {"type": "note_off", "time": 108, "note": 60, "velocity": 111, "channel": 0}, {"type": "note_on", "time": 0, "note": 58, "velocity": 108, "channel": 0}, {"type": "note_off", "time": 70, "note": 58, "velocity": 108, "channel": 0}, {"type": "note_on", "time": 29, "note": 56, "velocity": 97, "channel": 0}, {"type": "note_off", "time": 72, "note": 56, "velocity": 97, "channel": 0}, {"type": "note_on", "time": 5, "note": 63, "velocity": 119, "channel": 0}, {"type": "note_off", "time": 90, "note": 63, "velocity": 119, "channel": 0}, {"type": "note_on", "time": 9, "note": 60, "velocity": 111, "channel": 0}, {"type": "note_off", "time": 74, "note": 60, "velocity": 111, "channel": 0}, {"type": "note_on", "time": 0, "note": 63, "velocity": 121, "channel": 0}, {"type": "note_off", "time": 108, "note": 63, "velocity": 121, "channel": 0}, {"type": "note_on", "time": 7, "note": 60, "velocity": 102, "channel": 0}, {"type": "note_off", "time": 78, "note": 60, "velocity": 102, "channel": 0}, {"type": "note_on", "time": 19, "note": 58, "velocity": 107, "channel": 0}, {"type": "note_off", "time": 59, "note": 58, "velocity": 107, "channel": 0}, {"type": "note_on", "time": 17, "note": 56, "velocity": 106, "channel": 0}, {"type": "note_off", "time": 70, "note": 56, "velocity": 106, "channel": 0}, {"type": "note_on", "time": 31, "note": 63, "velocity": 120, "channel": 0}, {"type": "note_off", "time": 78, "note": 63, "velocity": 120, "channel": 0}, {"type": "note_on", "time": 5, "note": 60, "velocity": 108, "channel": 0}, {"type": "note_off", "time": 100, "note": 60, "velocity": 108, "channel": 0}, {"type": "note_on", "time": 5, "note": 63, "velocity": 117, "channel": 0}, {"type": "note_off", "time": 88, "note": 63, "velocity": 117, "channel": 0}, {"type": "note_on", "time": 27, "note": 58, "velocity": 103, "channel": 0}, {"type": "note_off", "time": 47, "note": 58, "velocity": 103, "channel": 0}, {"type": "note_on", "time": 232, "note": 63, "velocity": 123, "channel": 0}, {"type": "note_off", "time": 88, "note": 63, "velocity": 123, "channel": 0}, {"type": "note_on", "time": 1, "note": 60, "velocity": 112, "channel": 0}, {"type": "note_off", "time": 88, "note": 60, "velocity": 112, "channel": 0}, {"type": "note_on", "time": 1, "note": 63, "velocity": 119, "channel": 0}, {"type": "note_off", "time": 74, "note": 63, "velocity": 119, "channel": 0}, {"type": "note_on", "time": 0, "note": 61, "velocity": 117, "channel": 0}, {"type": "note_off", "time": 84, "note": 61, "velocity": 117, "channel": 0}, {"type": "note_on", "time": 27, "note": 63, "velocity": 122, "channel": 0}, {"type": "note_off", "time": 78, "note": 63, "velocity": 122, "channel": 0}, {"type": "note_on", "time": 1, "note": 61, "velocity": 117, "channel": 0}, {"type": "note_off", "time": 86, "note": 61, "velocity": 117, "channel": 0}, {"type": "note_on", "time": 15, "note": 63, "velocity": 118, "channel": 0}, {"type": "note_off", "time": 84, "note": 63, "velocity": 118, "channel": 0}, {"type": "note_on", "time": 5, "note": 59, "velocity": 101, "channel": 0}, {"type": "note_off", "time": 86, "note": 59, "velocity": 101, "channel": 0}, {"type": "note_on", "time": 21, "note": 63, "velocity": 118, "channel": 0}, {"type": "note_off", "time": 92, "note": 63, "velocity": 118, "channel": 0}, {"type": "note_on", "time": 3, "note": 59, "velocity": 102, "channel": 0}, {"type": "note_off", "time": 70, "note": 59, "velocity": 102, "channel": 0}, {"type": "note_on", "time": 19, "note": 63, "velocity": 113, "channel": 0}, {"type": "note_off", "time": 66, "note": 63, "velocity": 113, "channel": 0}, {"type": "note_on", "time": 15, "note": 58, "velocity": 108, "channel": 0}, {"type": "note_off", "time": 84, "note": 58, "velocity": 108, "channel": 0}, {"type": "note_on", "time": 17, "note": 63, "velocity": 114, "channel": 0}, {"type": "note_off", "time": 70, "note": 63, "velocity": 114, "channel": 0}, {"type": "note_on", "time": 5, "note": 58, "velocity": 104, "channel": 0}, {"type": "note_off", "time": 76, "note": 58, "velocity": 104, "channel": 0}, {"type": "note_on", "time": 261, "note": 63, "velocity": 122, "channel": 0}, {"type": "note_off", "time": 64, "note": 63, "velocity": 122, "channel": 0}, {"type": "note_on", "time": 5, "note": 58, "velocity": 105, "channel": 0}, {"type": "note_off", "time": 94, "note": 58, "velocity": 105, "channel": 0}, {"type": "note_on", "time": 0, "note": 63, "velocity": 123, "channel": 0}, {"type": "note_off", "time": 72, "note": 63, "velocity": 123, "channel": 0}, {"type": "note_on", "time": 25, "note": 58, "velocity": 105, "channel": 0}, {"type": "note_off", "time": 78, "note": 58, "velocity": 105, "channel": 0}, {"type": "note_on", "time": 19, "note": 63, "velocity": 119, "channel": 0}, {"type": "note_off", "time": 78, "note": 63, "velocity": 119, "channel": 0}, {"type": "note_on", "time": 11, "note": 58, "velocity": 106, "channel": 0}, {"type": "note_off", "time": 76, "note": 58, "velocity": 106, "channel": 0}, {"type": "note_on", "time": 9, "note": 63, "velocity": 117, "channel": 0}, {"type": "note_off", "time": 82, "note": 63, "velocity": 117, "channel": 0}, {"type": "note_on", "time": 7, "note": 58, "velocity": 108, "channel": 0}, {"type": "note_off", "time": 76, "note": 58, "velocity": 108, "channel": 0}, {"type": "note_on", "time": 11, "note": 62, "velocity": 109, "channel": 0}, {"type": "note_off", "time": 74, "note": 62, "velocity": 109, "channel": 0}, {"type": "note_on", "time": 1, "note": 58, "velocity": 103, "channel": 0}, {"type": "note_off", "time": 88, "note": 58, "velocity": 103, "channel": 0}, {"type": "note_on", "time": 19, "note": 62, "velocity": 109, "channel": 0}, {"type": "note_off", "time": 72, "note": 62, "velocity": 109, "channel": 0}, {"type": "note_on", "time": 27, "note": 58, "velocity": 105, "channel": 0}, {"type": "note_off", "time": 90, "note": 58, "velocity": 105, "channel": 0}, {"type": "note_on", "time": 15, "note": 62, "velocity": 112, "channel": 0}, {"type": "note_off", "time": 78, "note": 62, "velocity": 112, "channel": 0}, {"type": "note_on", "time": 0, "note": 58, "velocity": 102, "channel": 0}, {"type": "note_off", "time": 90, "note": 58, "velocity": 102, "channel": 0}, {"type": "note_on", "time": 206, "note": 60, "velocity": 122, "channel": 0}, {"type": "note_off", "time": 86, "note": 60, "velocity": 122, "channel": 0}, {"type": "note_on", "time": 11, "note": 55, "velocity": 104, "channel": 0}, {"type": "note_off", "time": 70, "note": 55, "velocity": 104, "channel": 0}, {"type": "note_on", "time": 0, "note": 60, "velocity": 115, "channel": 0}, {"type": "note_off", "time": 106, "note": 60, "velocity": 115, "channel": 0}, {"type": "note_on", "time": 1, "note": 55, "velocity": 102, "channel": 0}, {"type": "note_off", "time": 80, "note": 55, "velocity": 102, "channel": 0}, {"type": "note_on", "time": 31, "note": 60, "velocity": 115, "channel": 0}, {"type": "note_off", "time": 72, "note": 60, "velocity": 115, "channel": 0}, {"type": "note_on", "time": 1, "note": 57, "velocity": 105, "channel": 0}, {"type": "note_off", "time": 94, "note": 57, "velocity": 105, "channel": 0}, {"type": "note_on", "time": 0, "note": 60, "velocity": 118, "channel": 0}, {"type": "note_off", "time": 84, "note": 60, "velocity": 118, "channel": 0}, {"type": "note_on", "time": 17, "note": 57, "velocity": 107, "channel": 0}, {"type": "note_off", "time": 68, "note": 57, "velocity": 107, "channel": 0}, {"type": "note_on", "time": 21, "note": 60, "velocity": 110, "channel": 0}, {"type": "note_off", "time": 84, "note": 60, "velocity": 110, "channel": 0}, {"type": "note_on", "time": 9, "note": 55, "velocity": 100, "channel": 0}, {"type": "note_off", "time": 76, "note": 55, "velocity": 100, "channel": 0}, {"type": "note_on", "time": 13, "note": 60, "velocity": 114, "channel": 0}, {"type": "note_off", "time": 88, "note": 60, "velocity": 114, "channel": 0}, {"type": "note_on", "time": 13, "note": 53, "velocity": 103, "channel": 0}, {"type": "note_off", "time": 90, "note": 53, "velocity": 103, "channel": 0}, {"type": "note_on", "time": 0, "note": 60, "velocity": 116, "channel": 0}, {"type": "note_off", "time": 74, "note": 60, "velocity": 116, "channel": 0}, {"type": "note_on", "time": 19, "note": 52, "velocity": 106, "channel": 0}, {"type": "note_off", "time": 94, "note": 52, "velocity": 106, "channel": 0}, {"type": "note_on", "time": 224, "note": 59, "velocity": 111, "channel": 0}, {"type": "note_off", "time": 41, "note": 59, "velocity": 111, "channel": 0}, {"type": "note_on", "time": 29, "note": 56, "velocity": 109, "channel": 0}, {"type": "note_off", "time": 84, "note": 56, "velocity": 109, "channel": 0}, {"type": "note_on", "time": 13, "note": 59, "velocity": 107, "channel": 0}, {"type": "note_off", "time": 78, "note": 59, "velocity": 107, "channel": 0}, {"type": "note_on", "time": 9, "note": 56, "velocity": 112, "channel": 0}, {"type": "note_off", "time": 78, "note": 56, "velocity": 112, "channel": 0}, {"type": "note_on", "time": 25, "note": 59, "velocity": 104, "channel": 0}, {"type": "note_off", "time": 66, "note": 59, "velocity": 104, "channel": 0}, {"type": "note_on", "time": 19, "note": 54, "velocity": 106, "channel": 0}, {"type": "note_off", "time": 94, "note": 54, "velocity": 106, "channel": 0}, {"type": "note_on", "time": 21, "note": 59, "velocity": 103, "channel": 0}, {"type": "note_off", "time": 53, "note": 59, "velocity": 103, "channel": 0}, {"type": "note_on", "time": 11, "note": 56, "velocity": 108, "channel": 0}, {"type": "note_off", "time": 84, "note": 56, "velocity": 108, "channel": 0}, {"type": "note_on", "time": 11, "note": 59, "velocity": 103, "channel": 0}, {"type": "note_off", "time": 76, "note": 59, "velocity": 103, "channel": 0}, {"type": "note_on", "time": 13, "note": 57, "velocity": 108, "channel": 0}, {"type": "note_off", "time": 88, "note": 57, "velocity": 108, "channel": 0}, {"type": "note_on", "time": 19, "note": 59, "velocity": 105, "channel": 0}, {"type": "note_off", "time": 64, "note": 59, "velocity": 105, "channel": 0}, {"type": "note_on", "time": 3, "note": 56, "velocity": 109, "channel": 0}, {"type": "note_off", "time": 84, "note": 56, "velocity": 109, "channel": 0}, {"type": "note_on", "time": 216, "note": 56, "velocity": 117, "channel": 0}, {"type": "note_off", "time": 55, "note": 56, "velocity": 117, "channel": 0}, {"type": "note_on", "time": 9, "note": 57, "velocity": 112, "channel": 0}, {"type": "note_off", "time": 78, "note": 57, "velocity": 112, "channel": 0}, {"type": "note_on", "time": 242, "note": 55, "velocity": 106, "channel": 0}, {"type": "note_off", "time": 88, "note": 55, "velocity": 106, "channel": 0}, {"type": "note_on", "time": 100, "note": 53, "velocity": 112, "channel": 0}, {"type": "note_off", "time": 106, "note": 53, "velocity": 112, "channel": 0}, {"type": "note_on", "time": 63, "note": 53, "velocity": 103, "channel": 0}, {"type": "note_off", "time": 66, "note": 53, "velocity": 103, "channel": 0}, {"type": "note_on", "time": 11, "note": 54, "velocity": 103, "channel": 0}, {"type": "note_off", "time": 35, "note": 54, "velocity": 103, "channel": 0}, {"type": "note_on", "time": 3, "note": 57, "velocity": 104, "channel": 0}, {"type": "note_off", "time": 55, "note": 57, "velocity": 104, "channel": 0}, {"type": "note_on", "time": 9, "note": 53, "velocity": 101, "channel": 0}, {"type": "note_off", "time": 98, "note": 53, "velocity": 101, "channel": 0}, {"type": "note_on", "time": 7, "note": 54, "velocity": 106, "channel": 0}, {"type": "note_off", "time": 76, "note": 54, "velocity": 106, "channel": 0}, {"type": "note_on", "time": 29, "note": 56, "velocity": 109, "channel": 0}, {"type": "note_off", "time": 66, "note": 56, "velocity": 109, "channel": 0}, {"type": "note_on", "time": 33, "note": 58, "velocity": 105, "channel": 0}, {"type": "note_off", "time": 74, "note": 58, "velocity": 105, "channel": 0}, {"type": "note_on", "time": 31, "note": 59, "velocity": 104, "channel": 0}, {"type": "note_off", "time": 59, "note": 59, "velocity": 104, "channel": 0}, {"type": "note_on", "time": 3, "note": 61, "velocity": 113, "channel": 0}, {"type": "note_off", "time": 90, "note": 61, "velocity": 113, "channel": 0}, {"type": "note_on", "time": 25, "note": 63, "velocity": 120, "channel": 0}, {"type": "note_off", "time": 76, "note": 63, "velocity": 120, "channel": 0}, {"type": "note_on", "time": 23, "note": 65, "velocity": 110, "channel": 0}, {"type": "note_off", "time": 74, "note": 65, "velocity": 110, "channel": 0}, {"type": "note_on", "time": 13, "note": 65, "velocity": 115, "channel": 0}, {"type": "note_off", "time": 74, "note": 65, "velocity": 115, "channel": 0}, {"type": "note_on", "time": 25, "note": 66, "velocity": 114, "channel": 0}, {"type": "note_off", "time": 102, "note": 66, "velocity": 114, "channel": 0}, {"type": "note_on", "time": 0, "note": 64, "velocity": 109, "channel": 0}, {"type": "note_off", "time": 61, "note": 64, "velocity": 109, "channel": 0}, {"type": "note_on", "time": 17, "note": 65, "velocity": 116, "channel": 0}, {"type": "note_off", "time": 90, "note": 65, "velocity": 116, "channel": 0}, {"type": "note_on", "time": 0, "note": 61, "velocity": 122, "channel": 0}, {"type": "note_off", "time": 80, "note": 61, "velocity": 122, "channel": 0}, {"type": "note_on", "time": 21, "note": 58, "velocity": 101, "channel": 0}, {"type": "note_off", "time": 78, "note": 58, "velocity": 101, "channel": 0}, {"type": "note_on", "time": 23, "note": 55, "velocity": 88, "channel": 0}, {"type": "note_off", "time": 53, "note": 55, "velocity": 88, "channel": 0}, {"type": "note_on", "time": 39, "note": 63, "velocity": 124, "channel": 0}, {"type": "note_off", "time": 86, "note": 63, "velocity": 124, "channel": 0}, {"type": "note_on", "time": 5, "note": 61, "velocity": 119, "channel": 0}, {"type": "note_off", "time": 74, "note": 61, "velocity": 119, "channel": 0}, {"type": "note_on", "time": 21, "note": 60, "velocity": 111, "channel": 0}, {"type": "note_off", "time": 104, "note": 60, "velocity": 111, "channel": 0}, {"type": "note_on", "time": 5, "note": 58, "velocity": 108, "channel": 0}, {"type": "note_off", "time": 66, "note": 58, "velocity": 108, "channel": 0}, {"type": "note_on", "time": 15, "note": 56, "velocity": 108, "channel": 0}, {"type": "note_off", "time": 76, "note": 56, "velocity": 108, "channel": 0}, {"type": "note_on", "time": 116, "note": 65, "velocity": 107, "channel": 0}, {"type": "note_off", "time": 166, "note": 65, "velocity": 107, "channel": 0}, {"type": "note_on", "time": 8, "note": 63, "velocity": 105, "channel": 0}, {"type": "note_off", "time": 252, "note": 63, "velocity": 105, "channel": 0}, {"type": "note_on", "time": 1248, "note": 69, "velocity": 121, "channel": 0}, {"type": "note_off", "time": 122, "note": 69, "velocity": 121, "channel": 0}, {"type": "note_on", "time": 9, "note": 72, "velocity": 125, "channel": 0}, {"type": "note_off", "time": 254, "note": 72, "velocity": 125, "channel": 0}, {"type": "note_on", "time": 3, "note": 69, "velocity": 116, "channel": 0}, {"type": "note_off", "time": 110, "note": 69, "velocity": 116, "channel": 0}, {"type": "note_on", "time": 0, "note": 65, "velocity": 112, "channel": 0}, {"type": "note_off", "time": 94, "note": 65, "velocity": 112, "channel": 0}, {"type": "note_on", "time": 360, "note": 68, "velocity": 118, "channel": 0}, {"type": "note_off", "time": 137, "note": 68, "velocity": 118, "channel": 0}, {"type": "note_on", "time": 0, "note": 72, "velocity": 118, "channel": 0}, {"type": "note_off", "time": 257, "note": 72, "velocity": 118, "channel": 0}, {"type": "note_on", "time": 25, "note": 68, "velocity": 116, "channel": 0}, {"type": "note_off", "time": 70, "note": 68, "velocity": 116, "channel": 0}, {"type": "note_on", "time": 14, "note": 69, "velocity": 114, "channel": 0}, {"type": "note_off", "time": 100, "note": 69, "velocity": 114, "channel": 0}, {"type": "note_on", "time": 363, "note": 72, "velocity": 116, "channel": 0}, {"type": "note_off", "time": 108, "note": 72, "velocity": 116, "channel": 0}, {"type": "note_on", "time": 3, "note": 69, "velocity": 114, "channel": 0}, {"type": "note_off", "time": 226, "note": 69, "velocity": 114, "channel": 0}, {"type": "note_on", "time": 9, "note": 65, "velocity": 114, "channel": 0}, {"type": "note_off", "time": 112, "note": 65, "velocity": 114, "channel": 0}, {"type": "note_on", "time": 27, "note": 68, "velocity": 113, "channel": 0}, {"type": "note_off", "time": 86, "note": 68, "velocity": 113, "channel": 0}, {"type": "note_on", "time": 354, "note": 68, "velocity": 117, "channel": 0}, {"type": "note_off", "time": 131, "note": 68, "velocity": 117, "channel": 0}, {"type": "note_on", "time": 15, "note": 71, "velocity": 116, "channel": 0}, {"type": "note_on", "time": 248, "note": 68, "velocity": 118, "channel": 0}, {"type": "note_off", "time": 0, "note": 71, "velocity": 116, "channel": 0}, {"type": "note_off", "time": 124, "note": 68, "velocity": 118, "channel": 0}, {"type": "note_on", "time": 15, "note": 65, "velocity": 119, "channel": 0}, {"type": "note_off", "time": 76, "note": 65, "velocity": 119, "channel": 0}, {"type": "note_on", "time": 348, "note": 68, "velocity": 118, "channel": 0}, {"type": "note_off", "time": 134, "note": 68, "velocity": 118, "channel": 0}, {"type": "note_on", "time": 1, "note": 71, "velocity": 121, "channel": 0}, {"type": "note_off", "time": 252, "note": 71, "velocity": 121, "channel": 0}, {"type": "note_on", "time": 0, "note": 68, "velocity": 113, "channel": 0}, {"type": "note_off", "time": 112, "note": 68, "velocity": 113, "channel": 0}, {"type": "note_on", "time": 23, "note": 70, "velocity": 114, "channel": 0}, {"type": "note_off", "time": 74, "note": 70, "velocity": 114, "channel": 0}, {"type": "note_on", "time": 398, "note": 70, "velocity": 119, "channel": 0}, {"type": "note_off", "time": 120, "note": 70, "velocity": 119, "channel": 0}, {"type": "note_on", "time": 3, "note": 67, "velocity": 103, "channel": 0}, {"type": "note_off", "time": 28, "note": 67, "velocity": 103, "channel": 0}, {"type": "note_on", "time": 7, "note": 69, "velocity": 112, "channel": 0}, {"type": "note_off", "time": 78, "note": 69, "velocity": 112, "channel": 0}, {"type": "note_on", "time": 31, "note": 73, "velocity": 115, "channel": 0}, {"type": "note_off", "time": 90, "note": 73, "velocity": 115, "channel": 0}, {"type": "note_on", "time": 11, "note": 69, "velocity": 110, "channel": 0}, {"type": "note_off", "time": 126, "note": 69, "velocity": 110, "channel": 0}, {"type": "note_on", "time": 15, "note": 64, "velocity": 101, "channel": 0}, {"type": "note_off", "time": 59, "note": 64, "velocity": 101, "channel": 0}, {"type": "note_on", "time": 0, "note": 71, "velocity": 107, "channel": 0}, {"type": "note_off", "time": 90, "note": 71, "velocity": 107, "channel": 0}, {"type": "note_on", "time": 11, "note": 66, "velocity": 108, "channel": 0}, {"type": "note_off", "time": 82, "note": 66, "velocity": 108, "channel": 0}, {"type": "note_on", "time": 7, "note": 61, "velocity": 118, "channel": 0}, {"type": "note_off", "time": 82, "note": 61, "velocity": 118, "channel": 0}, {"type": "note_on", "time": 23, "note": 59, "velocity": 99, "channel": 0}, {"type": "note_off", "time": 55, "note": 59, "velocity": 99, "channel": 0}, {"type": "note_on", "time": 47, "note": 66, "velocity": 114, "channel": 0}, {"type": "note_off", "time": 89, "note": 66, "velocity": 114, "channel": 0}, {"type": "note_on", "time": 0, "note": 61, "velocity": 118, "channel": 0}, {"type": "note_off", "time": 74, "note": 61, "velocity": 118, "channel": 0}, {"type": "note_on", "time": 122, "note": 67, "velocity": 110, "channel": 0}, {"type": "note_off", "time": 66, "note": 67, "velocity": 110, "channel": 0}, {"type": "note_on", "time": 31, "note": 67, "velocity": 124, "channel": 0}, {"type": "note_off", "time": 47, "note": 67, "velocity": 124, "channel": 0}, {"type": "note_on", "time": 39, "note": 67, "velocity": 111, "channel": 0}, {"type": "note_on", "time": 55, "note": 65, "velocity": 114, "channel": 0}, {"type": "note_off", "time": 0, "note": 67, "velocity": 111, "channel": 0}, {"type": "note_off", "time": 94, "note": 65, "velocity": 114, "channel": 0}, {"type": "note_on", "time": 27, "note": 63, "velocity": 121, "channel": 0}, {"type": "note_off", "time": 82, "note": 63, "velocity": 121, "channel": 0}, {"type": "note_on", "time": 0, "note": 58, "velocity": 107, "channel": 0}, {"type": "note_off", "time": 82, "note": 58, "velocity": 107, "channel": 0}, {"type": "note_on", "time": 31, "note": 63, "velocity": 123, "channel": 0}, {"type": "note_off", "time": 59, "note": 63, "velocity": 123, "channel": 0}, {"type": "note_on", "time": 0, "note": 60, "velocity": 116, "channel": 0}, {"type": "note_off", "time": 126, "note": 60, "velocity": 116, "channel": 0}, {"type": "note_on", "time": 90, "note": 61, "velocity": 121, "channel": 0}, {"type": "note_off", "time": 118, "note": 61, "velocity": 121, "channel": 0}, {"type": "note_on", "time": 55, "note": 63, "velocity": 126, "channel": 0}, {"type": "note_off", "time": 82, "note": 63, "velocity": 126, "channel": 0}, {"type": "note_on", "time": 110, "note": 65, "velocity": 112, "channel": 0}, {"type": "note_off", "time": 86, "note": 65, "velocity": 112, "channel": 0}, {"type": "note_on", "time": 240, "note": 65, "velocity": 112, "channel": 0}, {"type": "note_off", "time": 68, "note": 65, "velocity": 112, "channel": 0}, {"type": "note_on", "time": 45, "note": 64, "velocity": 100, "channel": 0}, {"type": "note_off", "time": 55, "note": 64, "velocity": 100, "channel": 0}, {"type": "note_on", "time": 17, "note": 67, "velocity": 115, "channel": 0}, {"type": "note_off", "time": 66, "note": 67, "velocity": 115, "channel": 0}, {"type": "note_on", "time": 17, "note": 62, "velocity": 111, "channel": 0}, {"type": "note_off", "time": 59, "note": 62, "velocity": 111, "channel": 0}, {"type": "note_on", "time": 12, "note": 64, "velocity": 105, "channel": 0}, {"type": "note_off", "time": 41, "note": 64, "velocity": 105, "channel": 0}, {"type": "note_on", "time": 0, "note": 66, "velocity": 108, "channel": 0}, {"type": "note_off", "time": 61, "note": 66, "velocity": 108, "channel": 0}, {"type": "note_on", "time": 1, "note": 60, "velocity": 111, "channel": 0}, {"type": "note_off", "time": 72, "note": 60, "velocity": 111, "channel": 0}, {"type": "note_on", "time": 0, "note": 62, "velocity": 101, "channel": 0}, {"type": "note_off", "time": 35, "note": 62, "velocity": 101, "channel": 0}, {"type": "note_on", "time": 9, "note": 64, "velocity": 116, "channel": 0}, {"type": "note_off", "time": 63, "note": 64, "velocity": 116, "channel": 0}, {"type": "note_on", "time": 5, "note": 58, "velocity": 108, "channel": 0}, {"type": "note_off", "time": 61, "note": 58, "velocity": 108, "channel": 0}, {"type": "note_on", "time": 11, "note": 60, "velocity": 114, "channel": 0}, {"type": "note_off", "time": 45, "note": 60, "velocity": 114, "channel": 0}, {"type": "note_on", "time": 1, "note": 62, "velocity": 112, "channel": 0}, {"type": "note_off", "time": 45, "note": 62, "velocity": 112, "channel": 0}, {"type": "note_on", "time": 17, "note": 56, "velocity": 107, "channel": 0}, {"type": "note_off", "time": 63, "note": 56, "velocity": 107, "channel": 0}, {"type": "note_on", "time": 17, "note": 58, "velocity": 108, "channel": 0}, {"type": "note_off", "time": 39, "note": 58, "velocity": 108, "channel": 0}, {"type": "note_on", "time": 5, "note": 60, "velocity": 113, "channel": 0}, {"type": "note_off", "time": 64, "note": 60, "velocity": 113, "channel": 0}, {"type": "note_on", "time": 11, "note": 56, "velocity": 99, "channel": 0}, {"type": "note_off", "time": 45, "note": 56, "velocity": 99, "channel": 0}, {"type": "note_on", "time": 11, "note": 54, "velocity": 102, "channel": 0}, {"type": "note_off", "time": 47, "note": 54, "velocity": 102, "channel": 0}, {"type": "note_on", "time": 0, "note": 58, "velocity": 105, "channel": 0}, {"type": "note_off", "time": 53, "note": 58, "velocity": 105, "channel": 0}, {"type": "note_on", "time": 17, "note": 52, "velocity": 103, "channel": 0}, {"type": "note_off", "time": 59, "note": 52, "velocity": 103, "channel": 0}, {"type": "note_on", "time": 7, "note": 54, "velocity": 102, "channel": 0}, {"type": "note_off", "time": 53, "note": 54, "velocity": 102, "channel": 0}, {"type": "note_on", "time": 5, "note": 55, "velocity": 106, "channel": 0}, {"type": "note_off", "time": 53, "note": 55, "velocity": 106, "channel": 0}, {"type": "note_on", "time": 15, "note": 50, "velocity": 111, "channel": 0}, {"type": "note_off", "time": 63, "note": 50, "velocity": 111, "channel": 0}, {"type": "note_on", "time": 1, "note": 52, "velocity": 110, "channel": 0}, {"type": "note_off", "time": 41, "note": 52, "velocity": 110, "channel": 0}, {"type": "note_on", "time": 3, "note": 54, "velocity": 108, "channel": 0}, {"type": "note_off", "time": 66, "note": 54, "velocity": 108, "channel": 0}, {"type": "note_on", "time": 7, "note": 48, "velocity": 110, "channel": 0}, {"type": "note_off", "time": 80, "note": 48, "velocity": 110, "channel": 0}, {"type": "note_on", "time": 311, "note": 49, "velocity": 116, "channel": 0}, {"type": "note_off", "time": 88, "note": 49, "velocity": 116, "channel": 0}, {"type": "note_on", "time": 11, "note": 51, "velocity": 107, "channel": 0}, {"type": "note_off", "time": 66, "note": 51, "velocity": 107, "channel": 0}, {"type": "note_on", "time": 3, "note": 53, "velocity": 112, "channel": 0}, {"type": "note_off", "time": 78, "note": 53, "velocity": 112, "channel": 0}, {"type": "note_on", "time": 42, "note": 56, "velocity": 112, "channel": 0}, {"type": "note_off", "time": 85, "note": 56, "velocity": 112, "channel": 0}, {"type": "note_on", "time": 13, "note": 54, "velocity": 110, "channel": 0}, {"type": "note_off", "time": 86, "note": 54, "velocity": 110, "channel": 0}, {"type": "note_on", "time": 234, "note": 52, "velocity": 119, "channel": 0}, {"type": "note_off", "time": 49, "note": 52, "velocity": 119, "channel": 0}, {"type": "note_on", "time": 21, "note": 53, "velocity": 105, "channel": 0}, {"type": "note_off", "time": 96, "note": 53, "velocity": 105, "channel": 0}, {"type": "note_on", "time": 5, "note": 51, "velocity": 112, "channel": 0}, {"type": "note_off", "time": 61, "note": 51, "velocity": 112, "channel": 0}, {"type": "note_on", "time": 31, "note": 50, "velocity": 107, "channel": 0}, {"type": "note_off", "time": 72, "note": 50, "velocity": 107, "channel": 0}, {"type": "note_on", "time": 21, "note": 53, "velocity": 117, "channel": 0}, {"type": "note_off", "time": 59, "note": 53, "velocity": 117, "channel": 0}, {"type": "note_on", "time": 17, "note": 52, "velocity": 109, "channel": 0}, {"type": "note_off", "time": 96, "note": 52, "velocity": 109, "channel": 0}, {"type": "note_on", "time": 19, "note": 50, "velocity": 106, "channel": 0}, {"type": "note_off", "time": 55, "note": 50, "velocity": 106, "channel": 0}, {"type": "note_on", "time": 39, "note": 51, "velocity": 114, "channel": 0}, {"type": "note_off", "time": 76, "note": 51, "velocity": 114, "channel": 0}, {"type": "note_on", "time": 21, "note": 53, "velocity": 107, "channel": 0}, {"type": "note_off", "time": 53, "note": 53, "velocity": 107, "channel": 0}, {"type": "note_on", "time": 35, "note": 54, "velocity": 105, "channel": 0}, {"type": "note_off", "time": 70, "note": 54, "velocity": 105, "channel": 0}, {"type": "note_on", "time": 27, "note": 56, "velocity": 108, "channel": 0}, {"type": "note_off", "time": 64, "note": 56, "velocity": 108, "channel": 0}, {"type": "note_on", "time": 25, "note": 58, "velocity": 104, "channel": 0}, {"type": "note_off", "time": 82, "note": 58, "velocity": 104, "channel": 0}, {"type": "note_on", "time": 27, "note": 61, "velocity": 106, "channel": 0}, {"type": "note_off", "time": 51, "note": 61, "velocity": 106, "channel": 0}, {"type": "note_on", "time": 0, "note": 65, "velocity": 113, "channel": 0}, {"type": "note_off", "time": 110, "note": 65, "velocity": 113, "channel": 0}, {"type": "note_on", "time": 15, "note": 63, "velocity": 119, "channel": 0}, {"type": "note_off", "time": 88, "note": 63, "velocity": 119, "channel": 0}, {"type": "note_on", "time": 17, "note": 62, "velocity": 111, "channel": 0}, {"type": "note_off", "time": 70, "note": 62, "velocity": 111, "channel": 0}, {"type": "note_on", "time": 11, "note": 63, "velocity": 110, "channel": 0}, {"type": "note_off", "time": 72, "note": 63, "velocity": 110, "channel": 0}, {"type": "note_on", "time": 34, "note": 68, "velocity": 104, "channel": 0}, {"type": "note_off", "time": 142, "note": 68, "velocity": 104, "channel": 0}, {"type": "note_on", "time": 739, "note": 44, "velocity": 125, "channel": 0}, {"type": "note_off", "time": 163, "note": 44, "velocity": 125, "channel": 0}, {"type": "note_on", "time": 8, "note": 46, "velocity": 117, "channel": 0}, {"type": "note_off", "time": 177, "note": 46, "velocity": 117, "channel": 0}, {"type": "note_on", "time": 8, "note": 48, "velocity": 107, "channel": 0}, {"type": "note_off", "time": 196, "note": 48, "velocity": 107, "channel": 0}, {"type": "note_on", "time": 10, "note": 49, "velocity": 112, "channel": 0}, {"type": "note_off", "time": 155, "note": 49, "velocity": 112, "channel": 0}, {"type": "note_on", "time": 14, "note": 51, "velocity": 111, "channel": 0}, {"type": "note_off", "time": 146, "note": 51, "velocity": 111, "channel": 0}, {"type": "note_on", "time": 28, "note": 53, "velocity": 104, "channel": 0}, {"type": "note_off", "time": 157, "note": 53, "velocity": 104, "channel": 0}, {"type": "note_on", "time": 16, "note": 54, "velocity": 106, "channel": 0}, {"type": "note_off", "time": 163, "note": 54, "velocity": 106, "channel": 0}, {"type": "note_on", "time": 24, "note": 56, "velocity": 107, "channel": 0}, {"type": "note_off", "time": 163, "note": 56, "velocity": 107, "channel": 0}, {"type": "note_on", "time": 24, "note": 58, "velocity": 106, "channel": 0}, {"type": "note_off", "time": 121, "note": 58, "velocity": 106, "channel": 0}, {"type": "note_on", "time": 274, "note": 59, "velocity": 109, "channel": 0}, {"type": "note_off", "time": 166, "note": 59, "velocity": 109, "channel": 0}, {"type": "note_on", "time": 13, "note": 61, "velocity": 118, "channel": 0}, {"type": "note_off", "time": 163, "note": 61, "velocity": 118, "channel": 0}, {"type": "note_on", "time": 22, "note": 63, "velocity": 119, "channel": 0}, {"type": "note_off", "time": 188, "note": 63, "velocity": 119, "channel": 0}, {"type": "note_on", "time": 16, "note": 65, "velocity": 114, "channel": 0}, {"type": "note_off", "time": 157, "note": 65, "velocity": 114, "channel": 0}, {"type": "note_on", "time": 11, "note": 66, "velocity": 109, "channel": 0}, {"type": "note_off", "time": 171, "note": 66, "velocity": 109, "channel": 0}, {"type": "note_on", "time": 33, "note": 68, "velocity": 103, "channel": 0}, {"type": "note_off", "time": 168, "note": 68, "velocity": 103, "channel": 0}, {"type": "note_on", "time": 5, "note": 70, "velocity": 105, "channel": 0}, {"type": "note_off", "time": 213, "note": 70, "velocity": 105, "channel": 0}, {"type": "note_on", "time": 0, "note": 72, "velocity": 110, "channel": 0}, {"type": "note_off", "time": 174, "note": 72, "velocity": 110, "channel": 0}, {"type": "note_on", "time": 19, "note": 73, "velocity": 113, "channel": 0}, {"type": "note_off", "time": 83, "note": 73, "velocity": 113, "channel": 0}, {"type": "note_on", "time": 323, "note": 75, "velocity": 114, "channel": 0}, {"type": "note_off", "time": 127, "note": 75, "velocity": 114, "channel": 0}, {"type": "note_on", "time": 22, "note": 77, "velocity": 110, "channel": 0}, {"type": "note_off", "time": 146, "note": 77, "velocity": 110, "channel": 0}, {"type": "note_on", "time": 22, "note": 79, "velocity": 126, "channel": 0}, {"type": "note_off", "time": 193, "note": 79, "velocity": 126, "channel": 0}, {"type": "note_on", "time": 0, "note": 81, "velocity": 121, "channel": 0}, {"type": "note_off", "time": 199, "note": 81, "velocity": 121, "channel": 0}, {"type": "note_on", "time": 19, "note": 82, "velocity": 114, "channel": 0}, {"type": "note_off", "time": 163, "note": 82, "velocity": 114, "channel": 0}, {"type": "note_on", "time": 0, "note": 85, "velocity": 116, "channel": 0}, {"type": "note_off", "time": 182, "note": 85, "velocity": 116, "channel": 0}, {"type": "note_on", "time": 8, "note": 84, "velocity": 115, "channel": 0}, {"type": "note_off", "time": 501, "note": 84, "velocity": 115, "channel": 0}, {"type": "note_on", "time": 573, "note": 69, "velocity": 109, "channel": 0}, {"type": "note_off", "time": 105, "note": 69, "velocity": 109, "channel": 0}, {"type": "note_on", "time": 13, "note": 71, "velocity": 110, "channel": 0}, {"type": "note_off", "time": 66, "note": 71, "velocity": 110, "channel": 0}, {"type": "note_on", "time": 0, "note": 73, "velocity": 110, "channel": 0}, {"type": "note_off", "time": 121, "note": 73, "velocity": 110, "channel": 0}, {"type": "note_on", "time": 24, "note": 70, "velocity": 97, "channel": 0}, {"type": "note_off", "time": 35, "note": 70, "velocity": 97, "channel": 0}, {"type": "note_on", "time": 0, "note": 71, "velocity": 109, "channel": 0}, {"type": "note_off", "time": 135, "note": 71, "velocity": 109, "channel": 0}, {"type": "note_on", "time": 5, "note": 66, "velocity": 103, "channel": 0}, {"type": "note_off", "time": 58, "note": 66, "velocity": 103, "channel": 0}, {"type": "note_on", "time": 13, "note": 64, "velocity": 104, "channel": 0}, {"type": "note_off", "time": 121, "note": 64, "velocity": 104, "channel": 0}, {"type": "note_on", "time": 2, "note": 59, "velocity": 102, "channel": 0}, {"type": "note_off", "time": 55, "note": 59, "velocity": 102, "channel": 0}, {"type": "note_on", "time": 8, "note": 66, "velocity": 105, "channel": 0}, {"type": "note_off", "time": 96, "note": 66, "velocity": 105, "channel": 0}, {"type": "note_on", "time": 13, "note": 61, "velocity": 108, "channel": 0}, {"type": "note_off", "time": 91, "note": 61, "velocity": 108, "channel": 0}, {"type": "note_on", "time": 5, "note": 63, "velocity": 120, "channel": 0}, {"type": "note_off", "time": 83, "note": 63, "velocity": 120, "channel": 0}, {"type": "note_on", "time": 24, "note": 67, "velocity": 109, "channel": 0}, {"type": "note_off", "time": 91, "note": 67, "velocity": 109, "channel": 0}, {"type": "note_on", "time": 11, "note": 66, "velocity": 108, "channel": 0}, {"type": "note_off", "time": 71, "note": 66, "velocity": 108, "channel": 0}, {"type": "note_on", "time": 30, "note": 64, "velocity": 106, "channel": 0}, {"type": "note_off", "time": 60, "note": 64, "velocity": 106, "channel": 0}, {"type": "note_on", "time": 19, "note": 65, "velocity": 109, "channel": 0}, {"type": "note_off", "time": 94, "note": 65, "velocity": 109, "channel": 0}, {"type": "note_on", "time": 0, "note": 61, "velocity": 118, "channel": 0}, {"type": "note_off", "time": 71, "note": 61, "velocity": 118, "channel": 0}, {"type": "note_on", "time": 2, "note": 58, "velocity": 102, "channel": 0}, {"type": "note_off", "time": 85, "note": 58, "velocity": 102, "channel": 0}, {"type": "note_on", "time": 13, "note": 56, "velocity": 9, "channel": 0}, {"type": "note_off", "time": 69, "note": 56, "velocity": 9, "channel": 0}, {"type": "note_on", "time": 41, "note": 63, "velocity": 115, "channel": 0}, {"type": "note_off", "time": 94, "note": 63, "velocity": 115, "channel": 0}, {"type": "note_on", "time": 5, "note": 61, "velocity": 117, "channel": 0}, {"type": "note_off", "time": 83, "note": 61, "velocity": 117, "channel": 0}, {"type": "note_on", "time": 13, "note": 60, "velocity": 114, "channel": 0}, {"type": "note_off", "time": 91, "note": 60, "velocity": 114, "channel": 0}, {"type": "note_on", "time": 0, "note": 58, "velocity": 105, "channel": 0}, {"type": "note_off", "time": 69, "note": 58, "velocity": 105, "channel": 0}, {"type": "note_on", "time": 22, "note": 56, "velocity": 107, "channel": 0}, {"type": "note_off", "time": 77, "note": 56, "velocity": 107, "channel": 0}, {"type": "note_on", "time": 19, "note": 58, "velocity": 106, "channel": 0}, {"type": "note_off", "time": 66, "note": 58, "velocity": 106, "channel": 0}, {"type": "note_on", "time": 27, "note": 60, "velocity": 113, "channel": 0}, {"type": "note_off", "time": 77, "note": 60, "velocity": 113, "channel": 0}, {"type": "note_on", "time": 2, "note": 63, "velocity": 115, "channel": 0}, {"type": "note_off", "time": 77, "note": 63, "velocity": 115, "channel": 0}, {"type": "note_on", "time": 27, "note": 60, "velocity": 110, "channel": 0}, {"type": "note_off", "time": 83, "note": 60, "velocity": 110, "channel": 0}, {"type": "note_on", "time": 2, "note": 62, "velocity": 107, "channel": 0}, {"type": "note_off", "time": 49, "note": 62, "velocity": 107, "channel": 0}, {"type": "note_on", "time": 8, "note": 63, "velocity": 117, "channel": 0}, {"type": "note_off", "time": 110, "note": 63, "velocity": 117, "channel": 0}, {"type": "note_on", "time": 8, "note": 65, "velocity": 103, "channel": 0}, {"type": "note_off", "time": 66, "note": 65, "velocity": 103, "channel": 0}, {"type": "note_on", "time": 19, "note": 68, "velocity": 101, "channel": 0}, {"type": "note_off", "time": 110, "note": 68, "velocity": 101, "channel": 0}, {"type": "note_on", "time": 13, "note": 65, "velocity": 91, "channel": 0}, {"type": "note_off", "time": 58, "note": 65, "velocity": 91, "channel": 0}, {"type": "note_on", "time": 6, "note": 70, "velocity": 116, "channel": 0}, {"type": "note_off", "time": 58, "note": 70, "velocity": 116, "channel": 0}, {"type": "note_on", "time": 4, "note": 71, "velocity": 119, "channel": 0}, {"type": "note_off", "time": 57, "note": 71, "velocity": 119, "channel": 0}, {"type": "note_on", "time": 254, "note": 71, "velocity": 115, "channel": 0}, {"type": "note_off", "time": 113, "note": 71, "velocity": 115, "channel": 0}, {"type": "note_on", "time": 11, "note": 68, "velocity": 107, "channel": 0}, {"type": "note_off", "time": 60, "note": 68, "velocity": 107, "channel": 0}, {"type": "note_on", "time": 19, "note": 63, "velocity": 117, "channel": 0}, {"type": "note_off", "time": 96, "note": 63, "velocity": 117, "channel": 0}, {"type": "note_on", "time": 80, "note": 70, "velocity": 108, "channel": 0}, {"type": "note_off", "time": 94, "note": 70, "velocity": 108, "channel": 0}, {"type": "note_on", "time": 24, "note": 67, "velocity": 105, "channel": 0}, {"type": "note_off", "time": 71, "note": 67, "velocity": 105, "channel": 0}, {"type": "note_on", "time": 16, "note": 61, "velocity": 111, "channel": 0}, {"type": "note_off", "time": 113, "note": 61, "velocity": 111, "channel": 0}, {"type": "note_on", "time": 58, "note": 69, "velocity": 112, "channel": 0}, {"type": "note_off", "time": 110, "note": 69, "velocity": 112, "channel": 0}, {"type": "note_on", "time": 13, "note": 66, "velocity": 108, "channel": 0}, {"type": "note_off", "time": 71, "note": 66, "velocity": 108, "channel": 0}, {"type": "note_on", "time": 0, "note": 61, "velocity": 105, "channel": 0}, {"type": "note_off", "time": 119, "note": 61, "velocity": 105, "channel": 0}, {"type": "note_on", "time": 2, "note": 59, "velocity": 88, "channel": 0}, {"type": "note_off", "time": 63, "note": 59, "velocity": 88, "channel": 0}, {"type": "note_on", "time": 22, "note": 68, "velocity": 103, "channel": 0}, {"type": "note_off", "time": 99, "note": 68, "velocity": 103, "channel": 0}, {"type": "note_on", "time": 249, "note": 68, "velocity": 114, "channel": 0}, {"type": "note_off", "time": 105, "note": 68, "velocity": 114, "channel": 0}, {"type": "note_on", "time": 16, "note": 66, "velocity": 109, "channel": 0}, {"type": "note_off", "time": 74, "note": 66, "velocity": 109, "channel": 0}, {"type": "note_on", "time": 8, "note": 61, "velocity": 113, "channel": 0}, {"type": "note_off", "time": 96, "note": 61, "velocity": 113, "channel": 0}, {"type": "note_on", "time": 16, "note": 59, "velocity": 100, "channel": 0}, {"type": "note_off", "time": 55, "note": 59, "velocity": 100, "channel": 0}, {"type": "note_on", "time": 47, "note": 67, "velocity": 104, "channel": 0}, {"type": "note_off", "time": 105, "note": 67, "velocity": 104, "channel": 0}, {"type": "note_on", "time": 8, "note": 63, "velocity": 119, "channel": 0}, {"type": "note_off", "time": 69, "note": 63, "velocity": 119, "channel": 0}, {"type": "note_on", "time": 11, "note": 58, "velocity": 107, "channel": 0}, {"type": "note_off", "time": 80, "note": 58, "velocity": 107, "channel": 0}, {"type": "note_on", "time": 13, "note": 55, "velocity": 98, "channel": 0}, {"type": "note_off", "time": 58, "note": 55, "velocity": 98, "channel": 0}, {"type": "note_on", "time": 22, "note": 65, "velocity": 112, "channel": 0}, {"type": "note_off", "time": 94, "note": 65, "velocity": 112, "channel": 0}, {"type": "note_on", "time": 2, "note": 60, "velocity": 115, "channel": 0}, {"type": "note_off", "time": 74, "note": 60, "velocity": 115, "channel": 0}, {"type": "note_on", "time": 19, "note": 58, "velocity": 106, "channel": 0}, {"type": "note_off", "time": 80, "note": 58, "velocity": 106, "channel": 0}, {"type": "note_on", "time": 8, "note": 55, "velocity": 100, "channel": 0}, {"type": "note_off", "time": 70, "note": 55, "velocity": 100, "channel": 0}, {"type": "note_on", "time": 9, "note": 51, "velocity": 108, "channel": 0}, {"type": "note_off", "time": 106, "note": 51, "velocity": 108, "channel": 0}, {"type": "note_on", "time": 15, "note": 58, "velocity": 110, "channel": 0}, {"type": "note_off", "time": 76, "note": 58, "velocity": 110, "channel": 0}, {"type": "note_on", "time": 1, "note": 53, "velocity": 103, "channel": 0}, {"type": "note_off", "time": 78, "note": 53, "velocity": 103, "channel": 0}, {"type": "note_on", "time": 240, "note": 53, "velocity": 118, "channel": 0}, {"type": "note_off", "time": 72, "note": 53, "velocity": 118, "channel": 0}, {"type": "note_on", "time": 11, "note": 56, "velocity": 110, "channel": 0}, {"type": "note_off", "time": 90, "note": 56, "velocity": 110, "channel": 0}, {"type": "note_on", "time": 0, "note": 53, "velocity": 103, "channel": 0}, {"type": "note_off", "time": 64, "note": 53, "velocity": 103, "channel": 0}, {"type": "note_on", "time": 7, "note": 55, "velocity": 103, "channel": 0}, {"type": "note_off", "time": 88, "note": 55, "velocity": 103, "channel": 0}, {"type": "note_on", "time": 15, "note": 58, "velocity": 105, "channel": 0}, {"type": "note_off", "time": 64, "note": 58, "velocity": 105, "channel": 0}, {"type": "note_on", "time": 5, "note": 63, "velocity": 115, "channel": 0}, {"type": "note_off", "time": 106, "note": 63, "velocity": 115, "channel": 0}, {"type": "note_on", "time": 1, "note": 65, "velocity": 102, "channel": 0}, {"type": "note_off", "time": 68, "note": 65, "velocity": 102, "channel": 0}, {"type": "note_on", "time": 7, "note": 69, "velocity": 111, "channel": 0}, {"type": "note_off", "time": 127, "note": 69, "velocity": 111, "channel": 0}, {"type": "note_on", "time": 0, "note": 67, "velocity": 103, "channel": 0}, {"type": "note_off", "time": 61, "note": 67, "velocity": 103, "channel": 0}, {"type": "note_on", "time": 5, "note": 65, "velocity": 108, "channel": 0}, {"type": "note_off", "time": 112, "note": 65, "velocity": 108, "channel": 0}, {"type": "note_on", "time": 5, "note": 60, "velocity": 112, "channel": 0}, {"type": "note_off", "time": 63, "note": 60, "velocity": 112, "channel": 0}, {"type": "note_on", "time": 0, "note": 55, "velocity": 110, "channel": 0}, {"type": "note_off", "time": 45, "note": 55, "velocity": 110, "channel": 0}, {"type": "note_on", "time": 3, "note": 57, "velocity": 112, "channel": 0}, {"type": "note_off", "time": 88, "note": 57, "velocity": 112, "channel": 0}, {"type": "note_on", "time": 7, "note": 55, "velocity": 102, "channel": 0}, {"type": "note_off", "time": 45, "note": 55, "velocity": 102, "channel": 0}, {"type": "note_on", "time": 5, "note": 53, "velocity": 106, "channel": 0}, {"type": "note_off", "time": 98, "note": 53, "velocity": 106, "channel": 0}, {"type": "note_on", "time": 9, "note": 48, "velocity": 101, "channel": 0}, {"type": "note_off", "time": 63, "note": 48, "velocity": 101, "channel": 0}, {"type": "note_on", "time": 1, "note": 56, "velocity": 107, "channel": 0}, {"type": "note_off", "time": 131, "note": 56, "velocity": 107, "channel": 0}, {"type": "note_on", "time": 206, "note": 56, "velocity": 115, "channel": 0}, {"type": "note_off", "time": 37, "note": 56, "velocity": 115, "channel": 0}, {"type": "note_on", "time": 3, "note": 53, "velocity": 103, "channel": 0}, {"type": "note_off", "time": 102, "note": 53, "velocity": 103, "channel": 0}, {"type": "note_on", "time": 33, "note": 56, "velocity": 112, "channel": 0}, {"type": "note_off", "time": 66, "note": 56, "velocity": 112, "channel": 0}, {"type": "note_on", "time": 3, "note": 60, "velocity": 114, "channel": 0}, {"type": "note_off", "time": 131, "note": 60, "velocity": 114, "channel": 0}, {"type": "note_on", "time": 8, "note": 58, "velocity": 95, "channel": 0}, {"type": "note_off", "time": 36, "note": 58, "velocity": 95, "channel": 0}, {"type": "note_on", "time": 0, "note": 61, "velocity": 118, "channel": 0}, {"type": "note_off", "time": 126, "note": 61, "velocity": 118, "channel": 0}, {"type": "note_on", "time": 11, "note": 58, "velocity": 93, "channel": 0}, {"type": "note_off", "time": 41, "note": 58, "velocity": 93, "channel": 0}, {"type": "note_on", "time": 5, "note": 61, "velocity": 119, "channel": 0}, {"type": "note_off", "time": 114, "note": 61, "velocity": 119, "channel": 0}, {"type": "note_on", "time": 80, "note": 63, "velocity": 116, "channel": 0}, {"type": "note_off", "time": 106, "note": 63, "velocity": 116, "channel": 0}, {"type": "note_on", "time": 78, "note": 63, "velocity": 116, "channel": 0}, {"type": "note_off", "time": 108, "note": 63, "velocity": 116, "channel": 0}, {"type": "note_on", "time": 108, "note": 66, "velocity": 103, "channel": 0}, {"type": "note_off", "time": 104, "note": 66, "velocity": 103, "channel": 0}, {"type": "note_on", "time": 269, "note": 64, "velocity": 116, "channel": 0}, {"type": "note_off", "time": 108, "note": 64, "velocity": 116, "channel": 0}, {"type": "note_on", "time": 212, "note": 68, "velocity": 114, "channel": 0}, {"type": "note_off", "time": 86, "note": 68, "velocity": 114, "channel": 0}, {"type": "note_on", "time": 11, "note": 64, "velocity": 102, "channel": 0}, {"type": "note_off", "time": 104, "note": 64, "velocity": 102, "channel": 0}, {"type": "note_on", "time": 23, "note": 68, "velocity": 114, "channel": 0}, {"type": "note_off", "time": 61, "note": 68, "velocity": 114, "channel": 0}, {"type": "note_on", "time": 11, "note": 66, "velocity": 110, "channel": 0}, {"type": "note_on", "time": 61, "note": 62, "velocity": 114, "channel": 0}, {"type": "note_off", "time": 0, "note": 66, "velocity": 110, "channel": 0}, {"type": "note_off", "time": 35, "note": 62, "velocity": 114, "channel": 0}, {"type": "note_on", "time": 19, "note": 59, "velocity": 100, "channel": 0}, {"type": "note_off", "time": 30, "note": 59, "velocity": 100, "channel": 0}, {"type": "note_on", "time": 36, "note": 64, "velocity": 108, "channel": 0}, {"type": "note_off", "time": 224, "note": 64, "velocity": 108, "channel": 0}, {"type": "note_on", "time": 204, "note": 62, "velocity": 114, "channel": 0}, {"type": "note_off", "time": 29, "note": 62, "velocity": 114, "channel": 0}, {"type": "note_on", "time": 0, "note": 64, "velocity": 114, "channel": 0}, {"type": "note_off", "time": 29, "note": 64, "velocity": 114, "channel": 0}, {"type": "note_on", "time": 0, "note": 66, "velocity": 108, "channel": 0}, {"type": "note_off", "time": 47, "note": 66, "velocity": 108, "channel": 0}, {"type": "note_on", "time": 3, "note": 62, "velocity": 106, "channel": 0}, {"type": "note_off", "time": 68, "note": 62, "velocity": 106, "channel": 0}, {"type": "note_on", "time": 15, "note": 59, "velocity": 110, "channel": 0}, {"type": "note_off", "time": 29, "note": 59, "velocity": 110, "channel": 0}, {"type": "note_on", "time": 15, "note": 64, "velocity": 112, "channel": 0}, {"type": "note_off", "time": 43, "note": 64, "velocity": 112, "channel": 0}, {"type": "note_on", "time": 7, "note": 62, "velocity": 122, "channel": 0}, {"type": "note_off", "time": 33, "note": 62, "velocity": 122, "channel": 0}, {"type": "note_on", "time": 9, "note": 58, "velocity": 104, "channel": 0}, {"type": "note_off", "time": 59, "note": 58, "velocity": 104, "channel": 0}, {"type": "note_on", "time": 4, "note": 56, "velocity": 110, "channel": 0}, {"type": "note_off", "time": 59, "note": 56, "velocity": 110, "channel": 0}, {"type": "note_on", "time": 4, "note": 52, "velocity": 103, "channel": 0}, {"type": "note_off", "time": 51, "note": 52, "velocity": 103, "channel": 0}, {"type": "note_on", "time": 4, "note": 56, "velocity": 103, "channel": 0}, {"type": "note_off", "time": 45, "note": 56, "velocity": 103, "channel": 0}, {"type": "note_on", "time": 18, "note": 54, "velocity": 99, "channel": 0}, {"type": "note_off", "time": 41, "note": 54, "velocity": 99, "channel": 0}, {"type": "note_on", "time": 16, "note": 50, "velocity": 101, "channel": 0}, {"type": "note_off", "time": 35, "note": 50, "velocity": 101, "channel": 0}, {"type": "note_on", "time": 6, "note": 55, "velocity": 98, "channel": 0}, {"type": "note_off", "time": 102, "note": 55, "velocity": 98, "channel": 0}, {"type": "note_on", "time": 1331, "note": 71, "velocity": 112, "channel": 0}, {"type": "note_off", "time": 73, "note": 71, "velocity": 112, "channel": 0}, {"type": "note_on", "time": 12, "note": 71, "velocity": 114, "channel": 0}, {"type": "note_off", "time": 56, "note": 71, "velocity": 114, "channel": 0}, {"type": "note_on", "time": 13, "note": 71, "velocity": 110, "channel": 0}, {"type": "note_off", "time": 51, "note": 71, "velocity": 110, "channel": 0}, {"type": "note_on", "time": 33, "note": 69, "velocity": 111, "channel": 0}, {"type": "note_off", "time": 98, "note": 69, "velocity": 111, "channel": 0}, {"type": "note_on", "time": 8, "note": 69, "velocity": 110, "channel": 0}, {"type": "note_off", "time": 35, "note": 69, "velocity": 110, "channel": 0}, {"type": "note_on", "time": 8, "note": 69, "velocity": 97, "channel": 0}, {"type": "note_off", "time": 60, "note": 69, "velocity": 97, "channel": 0}, {"type": "note_on", "time": 9, "note": 69, "velocity": 107, "channel": 0}, {"type": "note_off", "time": 51, "note": 69, "velocity": 107, "channel": 0}, {"type": "note_on", "time": 20, "note": 68, "velocity": 111, "channel": 0}, {"type": "note_off", "time": 73, "note": 68, "velocity": 111, "channel": 0}, {"type": "note_on", "time": 24, "note": 68, "velocity": 111, "channel": 0}, {"type": "note_off", "time": 77, "note": 68, "velocity": 111, "channel": 0}, {"type": "note_on", "time": 13, "note": 68, "velocity": 110, "channel": 0}, {"type": "note_off", "time": 41, "note": 68, "velocity": 110, "channel": 0}, {"type": "note_on", "time": 59, "note": 68, "velocity": 115, "channel": 0}, {"type": "note_off", "time": 51, "note": 68, "velocity": 115, "channel": 0}, {"type": "note_on", "time": 13, "note": 68, "velocity": 108, "channel": 0}, {"type": "note_off", "time": 37, "note": 68, "velocity": 108, "channel": 0}, {"type": "note_on", "time": 67, "note": 68, "velocity": 103, "channel": 0}, {"type": "note_off", "time": 53, "note": 68, "velocity": 103, "channel": 0}, {"type": "note_on", "time": 13, "note": 68, "velocity": 108, "channel": 0}, {"type": "note_off", "time": 51, "note": 68, "velocity": 108, "channel": 0}, {"type": "note_on", "time": 34, "note": 68, "velocity": 106, "channel": 0}, {"type": "note_off", "time": 51, "note": 68, "velocity": 106, "channel": 0}, {"type": "note_on", "time": 27, "note": 66, "velocity": 104, "channel": 0}, {"type": "note_off", "time": 74, "note": 66, "velocity": 104, "channel": 0}, {"type": "note_on", "time": 34, "note": 66, "velocity": 103, "channel": 0}, {"type": "note_off", "time": 81, "note": 66, "velocity": 103, "channel": 0}, {"type": "note_on", "time": 15, "note": 65, "velocity": 116, "channel": 0}, {"type": "note_off", "time": 77, "note": 65, "velocity": 116, "channel": 0}, {"type": "note_on", "time": 27, "note": 65, "velocity": 114, "channel": 0}, {"type": "note_off", "time": 71, "note": 65, "velocity": 114, "channel": 0}, {"type": "note_on", "time": 52, "note": 65, "velocity": 118, "channel": 0}, {"type": "note_off", "time": 62, "note": 65, "velocity": 118, "channel": 0}, {"type": "note_on", "time": 5, "note": 64, "velocity": 110, "channel": 0}, {"type": "note_off", "time": 272, "note": 64, "velocity": 110, "channel": 0}, {"type": "note_on", "time": 242, "note": 63, "velocity": 125, "channel": 0}, {"type": "note_off", "time": 175, "note": 63, "velocity": 125, "channel": 0}, {"type": "note_on", "time": 2, "note": 60, "velocity": 112, "channel": 0}, {"type": "note_off", "time": 58, "note": 60, "velocity": 112, "channel": 0}, {"type": "note_on", "time": 6, "note": 56, "velocity": 108, "channel": 0}, {"type": "note_off", "time": 53, "note": 56, "velocity": 108, "channel": 0}, {"type": "note_on", "time": 11, "note": 54, "velocity": 102, "channel": 0}, {"type": "note_off", "time": 56, "note": 54, "velocity": 102, "channel": 0}, {"type": "note_on", "time": 22, "note": 62, "velocity": 113, "channel": 0}, {"type": "note_off", "time": 103, "note": 62, "velocity": 113, "channel": 0}, {"type": "note_on", "time": 6, "note": 61, "velocity": 106, "channel": 0}, {"type": "note_off", "time": 71, "note": 61, "velocity": 106, "channel": 0}, {"type": "note_on", "time": 185, "note": 61, "velocity": 119, "channel": 0}, {"type": "note_off", "time": 175, "note": 61, "velocity": 119, "channel": 0}, {"type": "note_on", "time": 2, "note": 58, "velocity": 105, "channel": 0}, {"type": "note_off", "time": 53, "note": 58, "velocity": 105, "channel": 0}, {"type": "note_on", "time": 20, "note": 54, "velocity": 101, "channel": 0}, {"type": "note_off", "time": 51, "note": 54, "velocity": 101, "channel": 0}, {"type": "note_on", "time": 12, "note": 51, "velocity": 96, "channel": 0}, {"type": "note_off", "time": 48, "note": 51, "velocity": 96, "channel": 0}, {"type": "note_on", "time": 23, "note": 60, "velocity": 106, "channel": 0}, {"type": "note_off", "time": 135, "note": 60, "velocity": 106, "channel": 0}, {"type": "note_on", "time": 73, "note": 61, "velocity": 119, "channel": 0}, {"type": "note_off", "time": 149, "note": 61, "velocity": 119, "channel": 0}, {"type": "note_on", "time": 1, "note": 58, "velocity": 101, "channel": 0}, {"type": "note_off", "time": 42, "note": 58, "velocity": 101, "channel": 0}, {"type": "note_on", "time": 12, "note": 54, "velocity": 99, "channel": 0}, {"type": "note_off", "time": 53, "note": 54, "velocity": 99, "channel": 0}, {"type": "note_on", "time": 24, "note": 63, "velocity": 95, "channel": 0}, {"type": "note_off", "time": 47, "note": 63, "velocity": 95, "channel": 0}, {"type": "note_on", "time": 2, "note": 60, "velocity": 117, "channel": 0}, {"type": "note_off", "time": 114, "note": 60, "velocity": 117, "channel": 0}, {"type": "note_on", "time": 233, "note": 56, "velocity": 113, "channel": 0}, {"type": "note_off", "time": 73, "note": 56, "velocity": 113, "channel": 0}, {"type": "note_on", "time": 15, "note": 56, "velocity": 111, "channel": 0}, {"type": "note_off", "time": 38, "note": 56, "velocity": 111, "channel": 0}, {"type": "note_on", "time": 22, "note": 56, "velocity": 104, "channel": 0}, {"type": "note_off", "time": 59, "note": 56, "velocity": 104, "channel": 0}, {"type": "note_on", "time": 13, "note": 56, "velocity": 114, "channel": 0}, {"type": "note_off", "time": 51, "note": 56, "velocity": 114, "channel": 0}, {"type": "note_on", "time": 17, "note": 58, "velocity": 108, "channel": 0}, {"type": "note_off", "time": 88, "note": 58, "velocity": 108, "channel": 0}, {"type": "note_on", "time": 13, "note": 58, "velocity": 109, "channel": 0}, {"type": "note_off", "time": 65, "note": 58, "velocity": 109, "channel": 0}, {"type": "note_on", "time": 11, "note": 60, "velocity": 120, "channel": 0}, {"type": "note_off", "time": 135, "note": 60, "velocity": 120, "channel": 0}, {"type": "note_on", "time": 4, "note": 58, "velocity": 103, "channel": 0}, {"type": "note_off", "time": 20, "note": 58, "velocity": 103, "channel": 0}, {"type": "note_on", "time": 0, "note": 61, "velocity": 121, "channel": 0}, {"type": "note_off", "time": 132, "note": 61, "velocity": 121, "channel": 0}, {"type": "note_on", "time": 5, "note": 58, "velocity": 97, "channel": 0}, {"type": "note_off", "time": 40, "note": 58, "velocity": 97, "channel": 0}, {"type": "note_on", "time": 2, "note": 63, "velocity": 118, "channel": 0}, {"type": "note_off", "time": 116, "note": 63, "velocity": 118, "channel": 0}, {"type": "note_on", "time": 9, "note": 58, "velocity": 97, "channel": 0}, {"type": "note_on", "time": 38, "note": 64, "velocity": 106, "channel": 0}, {"type": "note_off", "time": 0, "note": 58, "velocity": 97, "channel": 0}, {"type": "note_off", "time": 142, "note": 64, "velocity": 106, "channel": 0}, {"type": "note_on", "time": 8, "note": 65, "velocity": 104, "channel": 0}, {"type": "note_off", "time": 63, "note": 65, "velocity": 104, "channel": 0}, {"type": "note_on", "time": 221, "note": 66, "velocity": 109, "channel": 0}, {"type": "note_off", "time": 106, "note": 66, "velocity": 109, "channel": 0}, {"type": "note_on", "time": 4, "note": 64, "velocity": 105, "channel": 0}, {"type": "note_off", "time": 45, "note": 64, "velocity": 105, "channel": 0}, {"type": "note_on", "time": 13, "note": 65, "velocity": 115, "channel": 0}, {"type": "note_off", "time": 125, "note": 65, "velocity": 115, "channel": 0}, {"type": "note_on", "time": 0, "note": 61, "velocity": 118, "channel": 0}, {"type": "note_off", "time": 63, "note": 61, "velocity": 118, "channel": 0}, {"type": "note_on", "time": 8, "note": 58, "velocity": 96, "channel": 0}, {"type": "note_off", "time": 125, "note": 58, "velocity": 96, "channel": 0}, {"type": "note_on", "time": 29, "note": 54, "velocity": 108, "channel": 0}, {"type": "note_off", "time": 26, "note": 54, "velocity": 108, "channel": 0}, {"type": "note_on", "time": 12, "note": 63, "velocity": 122, "channel": 0}, {"type": "note_off", "time": 101, "note": 63, "velocity": 122, "channel": 0}, {"type": "note_on", "time": 5, "note": 61, "velocity": 115, "channel": 0}, {"type": "note_off", "time": 96, "note": 61, "velocity": 115, "channel": 0}, {"type": "note_on", "time": 85, "note": 58, "velocity": 108, "channel": 0}, {"type": "note_off", "time": 59, "note": 58, "velocity": 108, "channel": 0}, {"type": "note_on", "time": 33, "note": 59, "velocity": 100, "channel": 0}, {"type": "note_off", "time": 41, "note": 59, "velocity": 100, "channel": 0}, {"type": "note_on", "time": 11, "note": 63, "velocity": 114, "channel": 0}, {"type": "note_off", "time": 59, "note": 63, "velocity": 114, "channel": 0}, {"type": "note_on", "time": 5, "note": 65, "velocity": 106, "channel": 0}, {"type": "note_off", "time": 49, "note": 65, "velocity": 106, "channel": 0}, {"type": "note_on", "time": 29, "note": 70, "velocity": 116, "channel": 0}, {"type": "note_off", "time": 103, "note": 70, "velocity": 116, "channel": 0}, {"type": "note_on", "time": 6, "note": 67, "velocity": 94, "channel": 0}, {"type": "note_off", "time": 59, "note": 67, "velocity": 94, "channel": 0}, {"type": "note_on", "time": 8, "note": 68, "velocity": 111, "channel": 0}, {"type": "note_off", "time": 98, "note": 68, "velocity": 111, "channel": 0}, {"type": "note_on", "time": 11, "note": 70, "velocity": 107, "channel": 0}, {"type": "note_off", "time": 92, "note": 70, "velocity": 107, "channel": 0}, {"type": "note_on", "time": 9, "note": 67, "velocity": 107, "channel": 0}, {"type": "note_off", "time": 88, "note": 67, "velocity": 107, "channel": 0}, {"type": "note_on", "time": 2, "note": 63, "velocity": 118, "channel": 0}, {"type": "note_off", "time": 73, "note": 63, "velocity": 118, "channel": 0}, {"type": "note_on", "time": 19, "note": 58, "velocity": 99, "channel": 0}, {"type": "note_off", "time": 85, "note": 58, "velocity": 99, "channel": 0}, {"type": "note_on", "time": 15, "note": 55, "velocity": 81, "channel": 0}, {"type": "note_off", "time": 45, "note": 55, "velocity": 81, "channel": 0}, {"type": "note_on", "time": 20, "note": 66, "velocity": 100, "channel": 0}, {"type": "note_off", "time": 114, "note": 66, "velocity": 100, "channel": 0}, {"type": "note_on", "time": 70, "note": 66, "velocity": 102, "channel": 0}, {"type": "note_off", "time": 102, "note": 66, "velocity": 102, "channel": 0}, {"type": "note_on", "time": 96, "note": 65, "velocity": 104, "channel": 0}, {"type": "note_off", "time": 110, "note": 65, "velocity": 104, "channel": 0}, {"type": "note_on", "time": 78, "note": 65, "velocity": 111, "channel": 0}, {"type": "note_off", "time": 71, "note": 65, "velocity": 111, "channel": 0}, {"type": "note_on", "time": 110, "note": 63, "velocity": 116, "channel": 0}, {"type": "note_off", "time": 95, "note": 63, "velocity": 116, "channel": 0}, {"type": "note_on", "time": 275, "note": 65, "velocity": 110, "channel": 0}, {"type": "note_off", "time": 148, "note": 65, "velocity": 110, "channel": 0}, {"type": "note_on", "time": 58, "note": 65, "velocity": 112, "channel": 0}, {"type": "note_off", "time": 117, "note": 65, "velocity": 112, "channel": 0}, {"type": "note_on", "time": 47, "note": 58, "velocity": 96, "channel": 0}, {"type": "note_off", "time": 20, "note": 58, "velocity": 96, "channel": 0}, {"type": "note_on", "time": 1, "note": 62, "velocity": 116, "channel": 0}, {"type": "note_off", "time": 94, "note": 62, "velocity": 116, "channel": 0}, {"type": "note_on", "time": 47, "note": 58, "velocity": 101, "channel": 0}, {"type": "note_off", "time": 37, "note": 58, "velocity": 101, "channel": 0}, {"type": "note_on", "time": 1, "note": 62, "velocity": 114, "channel": 0}, {"type": "note_off", "time": 113, "note": 62, "velocity": 114, "channel": 0}, {"type": "note_on", "time": 27, "note": 58, "velocity": 93, "channel": 0}, {"type": "note_off", "time": 35, "note": 58, "velocity": 93, "channel": 0}, {"type": "note_on", "time": 9, "note": 64, "velocity": 103, "channel": 0}, {"type": "note_off", "time": 191, "note": 64, "velocity": 103, "channel": 0}, {"type": "note_on", "time": 171, "note": 67, "velocity": 108, "channel": 0}, {"type": "note_off", "time": 124, "note": 67, "velocity": 108, "channel": 0}, {"type": "note_on", "time": 6, "note": 67, "velocity": 103, "channel": 0}, {"type": "note_off", "time": 42, "note": 67, "velocity": 103, "channel": 0}, {"type": "note_on", "time": 8, "note": 67, "velocity": 106, "channel": 0}, {"type": "note_off", "time": 103, "note": 67, "velocity": 106, "channel": 0}, {"type": "note_on", "time": 96, "note": 65, "velocity": 105, "channel": 0}, {"type": "note_off", "time": 113, "note": 65, "velocity": 105, "channel": 0}, {"type": "note_on", "time": 105, "note": 65, "velocity": 101, "channel": 0}, {"type": "note_off", "time": 121, "note": 65, "velocity": 101, "channel": 0}, {"type": "note_on", "time": 45, "note": 69, "velocity": 111, "channel": 0}, {"type": "note_off", "time": 135, "note": 69, "velocity": 111, "channel": 0}, {"type": "note_on", "time": 455, "note": 73, "velocity": 115, "channel": 0}, {"type": "note_off", "time": 66, "note": 73, "velocity": 115, "channel": 0}, {"type": "note_on", "time": 6, "note": 74, "velocity": 115, "channel": 0}, {"type": "note_off", "time": 53, "note": 74, "velocity": 115, "channel": 0}, {"type": "note_on", "time": 4, "note": 73, "velocity": 108, "channel": 0}, {"type": "note_off", "time": 34, "note": 73, "velocity": 108, "channel": 0}, {"type": "note_on", "time": 4, "note": 71, "velocity": 114, "channel": 0}, {"type": "note_off", "time": 107, "note": 71, "velocity": 114, "channel": 0}, {"type": "note_on", "time": 5, "note": 70, "velocity": 108, "channel": 0}, {"type": "note_off", "time": 71, "note": 70, "velocity": 108, "channel": 0}, {"type": "note_on", "time": 1, "note": 69, "velocity": 108, "channel": 0}, {"type": "note_off", "time": 76, "note": 69, "velocity": 108, "channel": 0}, {"type": "note_on", "time": 35, "note": 68, "velocity": 109, "channel": 0}, {"type": "note_off", "time": 89, "note": 68, "velocity": 109, "channel": 0}, {"type": "note_on", "time": 11, "note": 67, "velocity": 101, "channel": 0}, {"type": "note_off", "time": 69, "note": 67, "velocity": 101, "channel": 0}, {"type": "note_on", "time": 26, "note": 66, "velocity": 110, "channel": 0}, {"type": "note_off", "time": 60, "note": 66, "velocity": 110, "channel": 0}, {"type": "note_on", "time": 8, "note": 65, "velocity": 110, "channel": 0}, {"type": "note_off", "time": 87, "note": 65, "velocity": 110, "channel": 0}, {"type": "note_on", "time": 227, "note": 68, "velocity": 116, "channel": 0}, {"type": "note_off", "time": 70, "note": 68, "velocity": 116, "channel": 0}, {"type": "note_on", "time": 16, "note": 65, "velocity": 110, "channel": 0}, {"type": "note_off", "time": 91, "note": 65, "velocity": 110, "channel": 0}, {"type": "note_on", "time": 2, "note": 66, "velocity": 98, "channel": 0}, {"type": "note_off", "time": 69, "note": 66, "velocity": 98, "channel": 0}, {"type": "note_on", "time": 22, "note": 68, "velocity": 111, "channel": 0}, {"type": "note_off", "time": 107, "note": 68, "velocity": 111, "channel": 0}, {"type": "note_on", "time": 11, "note": 65, "velocity": 99, "channel": 0}, {"type": "note_off", "time": 38, "note": 65, "velocity": 99, "channel": 0}, {"type": "note_on", "time": 12, "note": 66, "velocity": 101, "channel": 0}, {"type": "note_off", "time": 59, "note": 66, "velocity": 101, "channel": 0}, {"type": "note_on", "time": 13, "note": 68, "velocity": 100, "channel": 0}, {"type": "note_off", "time": 116, "note": 68, "velocity": 100, "channel": 0}, {"type": "note_on", "time": 13, "note": 69, "velocity": 108, "channel": 0}, {"type": "note_off", "time": 62, "note": 69, "velocity": 108, "channel": 0}, {"type": "note_on", "time": 38, "note": 71, "velocity": 107, "channel": 0}, {"type": "note_off", "time": 40, "note": 71, "velocity": 107, "channel": 0}, {"type": "note_on", "time": 2, "note": 73, "velocity": 110, "channel": 0}, {"type": "note_off", "time": 109, "note": 73, "velocity": 110, "channel": 0}, {"type": "note_on", "time": 33, "note": 69, "velocity": 105, "channel": 0}, {"type": "note_off", "time": 65, "note": 69, "velocity": 105, "channel": 0}, {"type": "note_on", "time": 13, "note": 68, "velocity": 97, "channel": 0}, {"type": "note_off", "time": 78, "note": 68, "velocity": 97, "channel": 0}, {"type": "note_on", "time": 6, "note": 69, "velocity": 100, "channel": 0}, {"type": "note_off", "time": 67, "note": 69, "velocity": 100, "channel": 0}, {"type": "note_on", "time": 22, "note": 68, "velocity": 103, "channel": 0}, {"type": "note_off", "time": 94, "note": 68, "velocity": 103, "channel": 0}, {"type": "note_on", "time": 29, "note": 66, "velocity": 100, "channel": 0}, {"type": "note_off", "time": 81, "note": 66, "velocity": 100, "channel": 0}, {"type": "note_on", "time": 23, "note": 65, "velocity": 105, "channel": 0}, {"type": "note_off", "time": 62, "note": 65, "velocity": 105, "channel": 0}, {"type": "note_on", "time": 26, "note": 66, "velocity": 105, "channel": 0}, {"type": "note_off", "time": 66, "note": 66, "velocity": 105, "channel": 0}, {"type": "note_on", "time": 8, "note": 65, "velocity": 101, "channel": 0}, {"type": "note_off", "time": 58, "note": 65, "velocity": 101, "channel": 0}, {"type": "note_on", "time": 35, "note": 63, "velocity": 115, "channel": 0}, {"type": "note_off", "time": 88, "note": 63, "velocity": 115, "channel": 0}, {"type": "note_on", "time": 4, "note": 61, "velocity": 118, "channel": 0}, {"type": "note_off", "time": 91, "note": 61, "velocity": 118, "channel": 0}, {"type": "note_on", "time": 199, "note": 57, "velocity": 116, "channel": 0}, {"type": "note_off", "time": 96, "note": 57, "velocity": 116, "channel": 0}, {"type": "note_on", "time": 8, "note": 56, "velocity": 109, "channel": 0}, {"type": "note_off", "time": 70, "note": 56, "velocity": 109, "channel": 0}, {"type": "note_on", "time": 12, "note": 57, "velocity": 114, "channel": 0}, {"type": "note_off", "time": 87, "note": 57, "velocity": 114, "channel": 0}, {"type": "note_on", "time": 2, "note": 56, "velocity": 108, "channel": 0}, {"type": "note_off", "time": 105, "note": 56, "velocity": 108, "channel": 0}, {"type": "note_on", "time": 12, "note": 54, "velocity": 110, "channel": 0}, {"type": "note_off", "time": 81, "note": 54, "velocity": 110, "channel": 0}, {"type": "note_on", "time": 8, "note": 53, "velocity": 107, "channel": 0}, {"type": "note_off", "time": 67, "note": 53, "velocity": 107, "channel": 0}, {"type": "note_on", "time": 11, "note": 51, "velocity": 109, "channel": 0}, {"type": "note_off", "time": 89, "note": 51, "velocity": 109, "channel": 0}, {"type": "note_on", "time": 9, "note": 50, "velocity": 104, "channel": 0}, {"type": "note_off", "time": 106, "note": 50, "velocity": 104, "channel": 0}, {"type": "note_on", "time": 1, "note": 53, "velocity": 108, "channel": 0}, {"type": "note_off", "time": 91, "note": 53, "velocity": 108, "channel": 0}, {"type": "note_on", "time": 3, "note": 52, "velocity": 111, "channel": 0}, {"type": "note_off", "time": 72, "note": 52, "velocity": 111, "channel": 0}, {"type": "note_on", "time": 4, "note": 50, "velocity": 108, "channel": 0}, {"type": "note_off", "time": 63, "note": 50, "velocity": 108, "channel": 0}, {"type": "note_on", "time": 9, "note": 51, "velocity": 113, "channel": 0}, {"type": "note_off", "time": 87, "note": 51, "velocity": 113, "channel": 0}, {"type": "note_on", "time": 33, "note": 53, "velocity": 108, "channel": 0}, {"type": "note_off", "time": 27, "note": 53, "velocity": 108, "channel": 0}, {"type": "note_on", "time": 9, "note": 54, "velocity": 105, "channel": 0}, {"type": "note_off", "time": 53, "note": 54, "velocity": 105, "channel": 0}, {"type": "note_on", "time": 22, "note": 56, "velocity": 100, "channel": 0}, {"type": "note_off", "time": 125, "note": 56, "velocity": 100, "channel": 0}, {"type": "note_on", "time": 8, "note": 58, "velocity": 106, "channel": 0}, {"type": "note_off", "time": 99, "note": 58, "velocity": 106, "channel": 0}, {"type": "note_on", "time": 48, "note": 61, "velocity": 106, "channel": 0}, {"type": "note_off", "time": 49, "note": 61, "velocity": 106, "channel": 0}, {"type": "note_on", "time": 4, "note": 65, "velocity": 112, "channel": 0}, {"type": "note_off", "time": 114, "note": 65, "velocity": 112, "channel": 0}, {"type": "note_on", "time": 5, "note": 63, "velocity": 119, "channel": 0}, {"type": "note_off", "time": 71, "note": 63, "velocity": 119, "channel": 0}, {"type": "note_on", "time": 181, "note": 68, "velocity": 110, "channel": 0}, {"type": "note_off", "time": 107, "note": 68, "velocity": 110, "channel": 0}, {"type": "note_on", "time": 257, "note": 69, "velocity": 115, "channel": 0}, {"type": "note_off", "time": 123, "note": 69, "velocity": 115, "channel": 0}, {"type": "note_on", "time": 9, "note": 72, "velocity": 119, "channel": 0}, {"type": "note_off", "time": 238, "note": 72, "velocity": 119, "channel": 0}, {"type": "note_on", "time": 5, "note": 69, "velocity": 108, "channel": 0}, {"type": "note_off", "time": 106, "note": 69, "velocity": 108, "channel": 0}, {"type": "note_on", "time": 24, "note": 72, "velocity": 112, "channel": 0}, {"type": "note_off", "time": 152, "note": 72, "velocity": 112, "channel": 0}, {"type": "note_on", "time": 292, "note": 68, "velocity": 111, "channel": 0}, {"type": "note_off", "time": 94, "note": 68, "velocity": 111, "channel": 0}, {"type": "note_on", "time": 1, "note": 72, "velocity": 120, "channel": 0}, {"type": "note_off", "time": 117, "note": 72, "velocity": 120, "channel": 0}, {"type": "note_on", "time": 296, "note": 69, "velocity": 113, "channel": 0}, {"type": "note_off", "time": 70, "note": 69, "velocity": 113, "channel": 0}, {"type": "note_on", "time": 12, "note": 73, "velocity": 112, "channel": 0}, {"type": "note_off", "time": 88, "note": 73, "velocity": 112, "channel": 0}, {"type": "note_on", "time": 85, "note": 69, "velocity": 111, "channel": 0}, {"type": "note_off", "time": 81, "note": 69, "velocity": 111, "channel": 0}, {"type": "note_on", "time": 2, "note": 73, "velocity": 115, "channel": 0}, {"type": "note_off", "time": 116, "note": 73, "velocity": 115, "channel": 0}, {"type": "note_on", "time": 94, "note": 69, "velocity": 109, "channel": 0}, {"type": "note_off", "time": 42, "note": 69, "velocity": 109, "channel": 0}, {"type": "note_on", "time": 24, "note": 72, "velocity": 113, "channel": 0}, {"type": "note_off", "time": 142, "note": 72, "velocity": 113, "channel": 0}, {"type": "note_on", "time": 38, "note": 68, "velocity": 109, "channel": 0}, {"type": "note_off", "time": 101, "note": 68, "velocity": 109, "channel": 0}, {"type": "note_on", "time": 12, "note": 72, "velocity": 112, "channel": 0}, {"type": "note_off", "time": 141, "note": 72, "velocity": 112, "channel": 0}, {"type": "note_on", "time": 47, "note": 68, "velocity": 84, "channel": 0}, {"type": "note_off", "time": 40, "note": 68, "velocity": 84, "channel": 0}, {"type": "note_on", "time": 20, "note": 72, "velocity": 107, "channel": 0}, {"type": "note_off", "time": 89, "note": 72, "velocity": 107, "channel": 0}, {"type": "note_on", "time": 96, "note": 68, "velocity": 105, "channel": 0}, {"type": "note_off", "time": 125, "note": 68, "velocity": 105, "channel": 0}, {"type": "note_on", "time": 60, "note": 70, "velocity": 112, "channel": 0}, {"type": "note_off", "time": 148, "note": 70, "velocity": 112, "channel": 0}, {"type": "note_on", "time": 238, "note": 70, "velocity": 116, "channel": 0}, {"type": "note_off", "time": 96, "note": 70, "velocity": 116, "channel": 0}, {"type": "note_on", "time": 80, "note": 68, "velocity": 109, "channel": 0}, {"type": "note_off", "time": 102, "note": 68, "velocity": 109, "channel": 0}, {"type": "note_on", "time": 103, "note": 71, "velocity": 111, "channel": 0}, {"type": "note_off", "time": 141, "note": 71, "velocity": 111, "channel": 0}, {"type": "note_on", "time": 161, "note": 70, "velocity": 111, "channel": 0}, {"type": "note_off", "time": 238, "note": 70, "velocity": 111, "channel": 0}, {"type": "note_on", "time": 290, "note": 68, "velocity": 119, "channel": 0}, {"type": "note_off", "time": 87, "note": 68, "velocity": 119, "channel": 0}, {"type": "note_on", "time": 120, "note": 65, "velocity": 100, "channel": 0}, {"type": "note_off", "time": 48, "note": 65, "velocity": 100, "channel": 0}, {"type": "note_on", "time": 1, "note": 66, "velocity": 110, "channel": 0}, {"type": "note_off", "time": 184, "note": 66, "velocity": 110, "channel": 0}, {"type": "note_on", "time": 19, "note": 68, "velocity": 114, "channel": 0}, {"type": "note_off", "time": 110, "note": 68, "velocity": 114, "channel": 0}, {"type": "note_on", "time": 11, "note": 65, "velocity": 109, "channel": 0}, {"type": "note_off", "time": 247, "note": 65, "velocity": 109, "channel": 0}, {"type": "note_on", "time": 312, "note": 63, "velocity": 125, "channel": 0}, {"type": "note_off", "time": 110, "note": 63, "velocity": 125, "channel": 0}, {"type": "note_on", "time": 5, "note": 62, "velocity": 120, "channel": 0}, {"type": "note_off", "time": 34, "note": 62, "velocity": 120, "channel": 0}, {"type": "note_on", "time": 5, "note": 61, "velocity": 117, "channel": 0}, {"type": "note_off", "time": 31, "note": 61, "velocity": 117, "channel": 0}, {"type": "note_on", "time": 2, "note": 58, "velocity": 113, "channel": 0}, {"type": "note_off", "time": 43, "note": 58, "velocity": 113, "channel": 0}, {"type": "note_on", "time": 3, "note": 57, "velocity": 107, "channel": 0}, {"type": "note_off", "time": 385, "note": 57, "velocity": 107, "channel": 0}, {"type": "note_on", "time": 13, "note": 58, "velocity": 108, "channel": 0}, {"type": "note_off", "time": 132, "note": 58, "velocity": 108, "channel": 0}, {"type": "note_on", "time": 221, "note": 60, "velocity": 118, "channel": 0}, {"type": "note_off", "time": 148, "note": 60, "velocity": 118, "channel": 0}, {"type": "note_on", "time": 2, "note": 61, "velocity": 115, "channel": 0}, {"type": "note_off", "time": 110, "note": 61, "velocity": 115, "channel": 0}, {"type": "note_on", "time": 41, "note": 65, "velocity": 112, "channel": 0}, {"type": "note_off", "time": 141, "note": 65, "velocity": 112, "channel": 0}, {"type": "note_on", "time": 2, "note": 68, "velocity": 112, "channel": 0}, {"type": "note_off", "time": 113, "note": 68, "velocity": 112, "channel": 0}, {"type": "note_on", "time": 52, "note": 72, "velocity": 113, "channel": 0}, {"type": "note_off", "time": 146, "note": 72, "velocity": 113, "channel": 0}, {"type": "note_on", "time": 9, "note": 74, "velocity": 111, "channel": 0}, {"type": "note_off", "time": 67, "note": 74, "velocity": 111, "channel": 0}, {"type": "note_on", "time": 15, "note": 75, "velocity": 110, "channel": 0}, {"type": "note_off", "time": 452, "note": 75, "velocity": 110, "channel": 0}, {"type": "note_on", "time": 13, "note": 73, "velocity": 110, "channel": 0}, {"type": "note_off", "time": 181, "note": 73, "velocity": 110, "channel": 0}, {"type": "note_on", "time": 5, "note": 69, "velocity": 111, "channel": 0}, {"type": "note_off", "time": 368, "note": 69, "velocity": 111, "channel": 0}, {"type": "note_on", "time": 12, "note": 70, "velocity": 109, "channel": 0}, {"type": "note_off", "time": 353, "note": 70, "velocity": 109, "channel": 0}, {"type": "note_on", "time": 11, "note": 71, "velocity": 116, "channel": 0}, {"type": "note_off", "time": 113, "note": 71, "velocity": 116, "channel": 0}, {"type": "note_on", "time": 4, "note": 70, "velocity": 106, "channel": 0}, {"type": "note_off", "time": 74, "note": 70, "velocity": 106, "channel": 0}, {"type": "end_of_track", "time": 0}]]}