{"ticks_per_beat": 20160, "tracks": [[{"type": "note_on", "time": 0, "note": 59, "velocity": 90, "channel": 0}, {"type": "note_off", "time": 4722, "note": 59, "velocity": 90, "channel": 0}, {"type": "note_on", "time": 263, "note": 61, "velocity": 106, "channel": 0}, {"type": "note_off", "time": 1930, "note": 61, "velocity": 106, "channel": 0}, {"type": "note_on", "time": 714, "note": 62, "velocity": 98, "channel": 0}, {"type": "note_off", "time": 2382, "note": 62, "velocity": 98, "channel": 0}, {"type": "note_on", "time": 148, "note": 64, "velocity": 102, "channel": 0}, {"type": "note_off", "time": 4628, "note": 64, "velocity": 102, "channel": 0}, {"type": "note_on", "time": 296, "note": 62, "velocity": 97, "channel": 0}, {"type": "note_off", "time": 4714, "note": 62, "velocity": 97, "channel": 0}, {"type": "note_on", "time": 222, "note": 61, "velocity": 95, "channel": 0}, {"type": "note_off", "time": 4628, "note": 61, "velocity": 95, "channel": 0}, {"type": "note_on", "time": 728, "note": 62, "velocity": 92, "channel": 0}, {"type": "note_off", "time": 8059, "note": 62, "velocity": 92, "channel": 0}, {"type": "note_on", "time": 4951, "note": 57, "velocity": 93, "channel": 0}, {"type": "note_off", "time": 2246, "note": 57, "velocity": 93, "channel": 0}, {"type": "note_on", "time": 175, "note": 62, "velocity": 94, "channel": 0}, {"type": "note_off", "time": 7091, "note": 62, "velocity": 94, "channel": 0}, {"type": "note_on", "time": 8751, "note": 59, "velocity": 102, "channel": 0}, {"type": "note_off", "time": 2209, "note": 59, "velocity": 102, "channel": 0}, {"type": "note_on", "time": 407, "note": 62, "velocity": 108, "channel": 0}, {"type": "note_off", "time": 2172, "note": 62, "velocity": 108, "channel": 0}, {"type": "note_on", "time": 2332, "note": 59, "velocity": 100, "channel": 0}, {"type": "note_off", "time": 2246, "note": 59, "velocity": 100, "channel": 0}, {"type": "note_on", "time": 197, "note": 62, "velocity": 99, "channel": 0}, {"type": "note_off", "time": 5628, "note": 62, "velocity": 99, "channel": 0}, {"type": "track_name", "name": "Melody", "time": 4191}, {"type": "set_tempo", "tempo": 1666666, "time": 0}, {"type": "key_signature", "key": "D", "time": 0}, {"type": "time_signature", "numerator": 4, "denominator": 4, "clocks_per_click": 24, "notated_32nd_notes_per_beat": 8, "time": 0}, {"type": "note_on", "time": 2223, "note": 59, "velocity": 103, "channel": 0}, {"type": "note_off", "time": 1808, "note": 59, "velocity": 103, "channel": 0}, {"type": "note_on", "time": 588, "note": 62, "velocity": 111, "channel": 0}, {"type": "note_off", "time": 1939, "note": 62, "velocity": 111, "channel": 0}, {"type": "note_on", "time": 272, "note": 59, "velocity": 100, "channel": 0}, {"type": "note_off", "time": 1843, "note": 59, "velocity": 100, "channel": 0}, {"type": "note_on", "time": 544, "note": 62, "velocity": 111, "channel": 0}, {"type": "note_off", "time": 2097, "note": 62, "velocity": 111, "channel": 0}, {"type": "note_on", "time": 201, "note": 59, "velocity": 100, "channel": 0}, {"type": "note_off", "time": 2203, "note": 59, "velocity": 100, "channel": 0}, {"type": "note_on", "time": 201, "note": 55, "velocity": 106, "channel": 0}, {"type": "note_off", "time": 2334, "note": 55, "velocity": 106, "channel": 0}, {"type": "note_on", "time": 140, "note": 62, "velocity": 110, "channel": 0}, {"type": "note_off", "time": 1799, "note": 62, "velocity": 110, "channel": 0}, {"type": "note_on", "time": 1693, "note": 55, "velocity": 101, "channel": 0}, {"type": "note_off", "time": 2483, "note": 55, "velocity": 101, "channel": 0}, {"type": "note_on", "time": 184, "note": 62, "velocity": 101, "channel": 0}, {"type": "note_off", "time": 4792, "note": 62, "velocity": 101, "channel": 0}, {"type": "note_on", "time": 4511, "note": 55, "velocity": 102, "channel": 0}, {"type": "note_off", "time": 2141, "note": 55, "velocity": 102, "channel": 0}, {"type": "note_on", "time": 702, "note": 62, "velocity": 108, "channel": 0}, {"type": "note_off", "time": 1895, "note": 62, "velocity": 108, "channel": 0}, {"type": "note_on", "time": 772, "note": 55, "velocity": 85, "channel": 0}, {"type": "note_off", "time": 1650, "note": 55, "velocity": 85, "channel": 0}, {"type": "note_on", "time": 1031, "note": 62, "velocity": 113, "channel": 0}, {"type": "note_off", "time": 1925, "note": 62, "velocity": 113, "channel": 0}, {"type": "note_on", "time": 382, "note": 55, "velocity": 106, "channel": 0}, {"type": "note_off", "time": 2024, "note": 55, "velocity": 106, "channel": 0}, {"type": "note_on", "time": 867, "note": 50, "velocity": 94, "channel": 0}, {"type": "note_off", "time": 1527, "note": 50, "velocity": 94, "channel": 0}, {"type": "note_on", "time": 403, "note": 53, "velocity": 105, "channel": 0}, {"type": "note_off", "time": 2036, "note": 53, "velocity": 105, "channel": 0}, {"type": "note_on", "time": 228, "note": 50, "velocity": 90, "channel": 0}, {"type": "note_off", "time": 1404, "note": 50, "velocity": 90, "channel": 0}, {"type": "note_on", "time": 280, "note": 58, "velocity": 100, "channel": 0}, {"type": "note_off", "time": 1641, "note": 58, "velocity": 100, "channel": 0}, {"type": "note_on", "time": 268, "note": 53, "velocity": 90, "channel": 0}, {"type": "note_off", "time": 1496, "note": 53, "velocity": 90, "channel": 0}, {"type": "note_on", "time": 193, "note": 62, "velocity": 110, "channel": 0}, {"type": "note_off", "time": 1345, "note": 62, "velocity": 110, "channel": 0}, {"type": "note_on", "time": 531, "note": 58, "velocity": 99, "channel": 0}, {"type": "note_off", "time": 1460, "note": 58, "velocity": 99, "channel": 0}, {"type": "note_on", "time": 132, "note": 65, "velocity": 110, "channel": 0}, {"type": "note_off", "time": 1749, "note": 65, "velocity": 110, "channel": 0}, {"type": "note_on", "time": 231, "note": 62, "velocity": 111, "channel": 0}, {"type": "note_off", "time": 1538, "note": 62, "velocity": 111, "channel": 0}, {"type": "note_on", "time": 1251, "note": 70, "velocity": 109, "channel": 0}, {"type": "note_off", "time": 1904, "note": 70, "velocity": 109, "channel": 0}, {"type": "note_on", "time": 78, "note": 65, "velocity": 112, "channel": 0}, {"type": "note_off", "time": 1562, "note": 65, "velocity": 112, "channel": 0}, {"type": "note_on", "time": 1530, "note": 72, "velocity": 101, "channel": 0}, {"type": "note_off", "time": 488, "note": 72, "velocity": 101, "channel": 0}, {"type": "note_on", "time": 54, "note": 74, "velocity": 118, "channel": 0}, {"type": "note_off", "time": 1912, "note": 74, "velocity": 118, "channel": 0}, {"type": "note_on", "time": 1148, "note": 70, "velocity": 106, "channel": 0}, {"type": "note_off", "time": 2124, "note": 70, "velocity": 106, "channel": 0}, {"type": "note_on", "time": 298, "note": 65, "velocity": 97, "channel": 0}, {"type": "note_off", "time": 1966, "note": 65, "velocity": 97, "channel": 0}, {"type": "note_on", "time": 315, "note": 69, "velocity": 114, "channel": 0}, {"type": "note_off", "time": 2492, "note": 69, "velocity": 114, "channel": 0}, {"type": "note_on", "time": 48674, "note": 45, "velocity": 105, "channel": 0}, {"type": "note_off", "time": 2715, "note": 45, "velocity": 105, "channel": 0}, {"type": "note_on", "time": 14527, "note": 71, "velocity": 120, "channel": 0}, {"type": "note_off", "time": 1876, "note": 71, "velocity": 120, "channel": 0}, {"type": "note_on", "time": 530, "note": 69, "velocity": 105, "channel": 0}, {"type": "note_off", "time": 1407, "note": 69, "velocity": 105, "channel": 0}, {"type": "note_on", "time": 357, "note": 64, "velocity": 92, "channel": 0}, {"type": "note_off", "time": 1641, "note": 64, "velocity": 92, "channel": 0}, {"type": "note_on", "time": 197, "note": 67, "velocity": 113, "channel": 0}, {"type": "note_off", "time": 1948, "note": 67, "velocity": 113, "channel": 0}, {"type": "note_on", "time": 78, "note": 66, "velocity": 105, "channel": 0}, {"type": "note_off", "time": 2027, "note": 66, "velocity": 105, "channel": 0}, {"type": "note_on", "time": 333, "note": 62, "velocity": 107, "channel": 0}, {"type": "note_off", "time": 1316, "note": 62, "velocity": 107, "channel": 0}, {"type": "note_on", "time": 359, "note": 57, "velocity": 96, "channel": 0}, {"type": "note_off", "time": 2088, "note": 57, "velocity": 96, "channel": 0}, {"type": "note_on", "time": 289, "note": 54, "velocity": 98, "channel": 0}, {"type": "note_off", "time": 1228, "note": 54, "velocity": 98, "channel": 0}, {"type": "note_on", "time": 236, "note": 60, "velocity": 117, "channel": 0}, {"type": "note_off", "time": 2483, "note": 60, "velocity": 117, "channel": 0}, {"type": "note_on", "time": 219, "note": 62, "velocity": 119, "channel": 0}, {"type": "note_off", "time": 1149, "note": 62, "velocity": 119, "channel": 0}, {"type": "note_on", "time": 122, "note": 64, "velocity": 116, "channel": 0}, {"type": "note_off", "time": 2606, "note": 64, "velocity": 116, "channel": 0}, {"type": "note_on", "time": 283, "note": 60, "velocity": 98, "channel": 0}, {"type": "note_off", "time": 1303, "note": 60, "velocity": 98, "channel": 0}, {"type": "note_on", "time": 225, "note": 57, "velocity": 100, "channel": 0}, {"type": "note_off", "time": 2431, "note": 57, "velocity": 100, "channel": 0}, {"type": "note_on", "time": 172, "note": 52, "velocity": 86, "channel": 0}, {"type": "note_off", "time": 1073, "note": 52, "velocity": 86, "channel": 0}, {"type": "note_on", "time": 209, "note": 55, "velocity": 103, "channel": 0}, {"type": "note_off", "time": 2530, "note": 55, "velocity": 103, "channel": 0}, {"type": "note_on", "time": 289, "note": 52, "velocity": 92, "channel": 0}, {"type": "note_off", "time": 1333, "note": 52, "velocity": 92, "channel": 0}, {"type": "note_on", "time": 398, "note": 54, "velocity": 100, "channel": 0}, {"type": "note_off", "time": 1913, "note": 54, "velocity": 100, "channel": 0}, {"type": "note_on", "time": 368, "note": 62, "velocity": 99, "channel": 0}, {"type": "note_off", "time": 5459, "note": 62, "velocity": 99, "channel": 0}, {"type": "note_on", "time": 10451, "note": 65, "velocity": 112, "channel": 0}, {"type": "note_off", "time": 561, "note": 65, "velocity": 112, "channel": 0}, {"type": "note_on", "time": 66, "note": 62, "velocity": 115, "channel": 0}, {"type": "note_off", "time": 947, "note": 62, "velocity": 115, "channel": 0}, {"type": "note_on", "time": 120, "note": 63, "velocity": 116, "channel": 0}, {"type": "note_off", "time": 693, "note": 63, "velocity": 116, "channel": 0}, {"type": "note_on", "time": 386, "note": 63, "velocity": 116, "channel": 0}, {"type": "note_off", "time": 687, "note": 63, "velocity": 116, "channel": 0}, {"type": "note_on", "time": 60, "note": 62, "velocity": 120, "channel": 0}, {"type": "note_off", "time": 808, "note": 62, "velocity": 120, "channel": 0}, {"type": "note_on", "time": 521, "note": 58, "velocity": 105, "channel": 0}, {"type": "note_off", "time": 864, "note": 58, "velocity": 105, "channel": 0}, {"type": "note_on", "time": 185, "note": 54, "velocity": 103, "channel": 0}, {"type": "note_off", "time": 1184, "note": 54, "velocity": 103, "channel": 0}, {"type": "note_on", "time": 605, "note": 60, "velocity": 103, "channel": 0}, {"type": "note_off", "time": 724, "note": 60, "velocity": 103, "channel": 0}, {"type": "note_on", "time": 156, "note": 58, "velocity": 107, "channel": 0}, {"type": "note_off", "time": 868, "note": 58, "velocity": 107, "channel": 0}, {"type": "note_on", "time": 102, "note": 54, "velocity": 103, "channel": 0}, {"type": "note_off", "time": 838, "note": 54, "velocity": 103, "channel": 0}, {"type": "note_on", "time": 132, "note": 50, "velocity": 92, "channel": 0}, {"type": "note_off", "time": 512, "note": 50, "velocity": 92, "channel": 0}, {"type": "note_on", "time": 84, "note": 58, "velocity": 101, "channel": 0}, {"type": "note_off", "time": 1049, "note": 58, "velocity": 101, "channel": 0}, {"type": "note_on", "time": 108, "note": 54, "velocity": 101, "channel": 0}, {"type": "note_off", "time": 772, "note": 54, "velocity": 101, "channel": 0}, {"type": "note_on", "time": 217, "note": 50, "velocity": 102, "channel": 0}, {"type": "note_off", "time": 953, "note": 50, "velocity": 102, "channel": 0}, {"type": "note_on", "time": 144, "note": 51, "velocity": 106, "channel": 0}, {"type": "note_off", "time": 977, "note": 51, "velocity": 106, "channel": 0}, {"type": "note_on", "time": 23148, "note": 60, "velocity": 93, "channel": 0}, {"type": "note_off", "time": 1345, "note": 60, "velocity": 93, "channel": 0}, {"type": "note_on", "time": 1123, "note": 54, "velocity": 108, "channel": 0}, {"type": "note_off", "time": 2505, "note": 54, "velocity": 108, "channel": 0}, {"type": "note_on", "time": 6517, "note": 57, "velocity": 101, "channel": 0}, {"type": "note_off", "time": 2949, "note": 57, "velocity": 101, "channel": 0}, {"type": "note_on", "time": 5554, "note": 59, "velocity": 98, "channel": 0}, {"type": "note_off", "time": 5443, "note": 59, "velocity": 98, "channel": 0}, {"type": "note_on", "time": 222, "note": 58, "velocity": 95, "channel": 0}, {"type": "note_off", "time": 851, "note": 58, "velocity": 95, "channel": 0}, {"type": "note_on", "time": 715, "note": 54, "velocity": 87, "channel": 0}, {"type": "note_off", "time": 839, "note": 54, "velocity": 87, "channel": 0}, {"type": "note_on", "time": 370, "note": 61, "velocity": 111, "channel": 0}, {"type": "note_off", "time": 1308, "note": 61, "velocity": 111, "channel": 0}, {"type": "note_on", "time": 197, "note": 62, "velocity": 97, "channel": 0}, {"type": "note_off", "time": 3258, "note": 62, "velocity": 97, "channel": 0}, {"type": "note_on", "time": 1123, "note": 57, "velocity": 95, "channel": 0}, {"type": "note_off", "time": 2382, "note": 57, "velocity": 95, "channel": 0}, {"type": "note_on", "time": 691, "note": 59, "velocity": 96, "channel": 0}, {"type": "note_off", "time": 5418, "note": 59, "velocity": 96, "channel": 0}, {"type": "note_on", "time": 320, "note": 57, "velocity": 100, "channel": 0}, {"type": "note_off", "time": 2036, "note": 57, "velocity": 100, "channel": 0}, {"type": "note_on", "time": 901, "note": 58, "velocity": 97, "channel": 0}, {"type": "note_off", "time": 2986, "note": 58, "velocity": 97, "channel": 0}, {"type": "note_on", "time": 6109, "note": 58, "velocity": 91, "channel": 0}, {"type": "note_off", "time": 3443, "note": 58, "velocity": 91, "channel": 0}, {"type": "note_on", "time": 5862, "note": 58, "velocity": 95, "channel": 0}, {"type": "note_off", "time": 3203, "note": 58, "velocity": 95, "channel": 0}, {"type": "note_on", "time": 5721, "note": 58, "velocity": 97, "channel": 0}, {"type": "note_off", "time": 2456, "note": 58, "velocity": 97, "channel": 0}, {"type": "note_on", "time": 6751, "note": 58, "velocity": 97, "channel": 0}, {"type": "note_off", "time": 5998, "note": 58, "velocity": 97, "channel": 0}, {"type": "note_on", "time": 320, "note": 60, "velocity": 106, "channel": 0}, {"type": "note_off", "time": 2320, "note": 60, "velocity": 106, "channel": 0}, {"type": "note_on", "time": 185, "note": 62, "velocity": 99, "channel": 0}, {"type": "note_off", "time": 5973, "note": 62, "velocity": 99, "channel": 0}, {"type": "note_on", "time": 234, "note": 58, "velocity": 102, "channel": 0}, {"type": "note_off", "time": 2764, "note": 58, "velocity": 102, "channel": 0}, {"type": "note_on", "time": 195, "note": 55, "velocity": 94, "channel": 0}, {"type": "note_off", "time": 15528, "note": 55, "velocity": 94, "channel": 0}, {"type": "note_on", "time": 0, "note": 56, "velocity": 88, "channel": 0}, {"type": "note_off", "time": 10725, "note": 56, "velocity": 88, "channel": 0}, {"type": "note_on", "time": 1446, "note": 56, "velocity": 90, "channel": 0}, {"type": "note_off", "time": 2931, "note": 56, "velocity": 90, "channel": 0}, {"type": "note_on", "time": 6196, "note": 55, "velocity": 107, "channel": 0}, {"type": "note_off", "time": 816, "note": 55, "velocity": 107, "channel": 0}, {"type": "note_on", "time": 131, "note": 56, "velocity": 91, "channel": 0}, {"type": "note_off", "time": 2598, "note": 56, "velocity": 91, "channel": 0}, {"type": "note_on", "time": 5036, "note": 56, "velocity": 89, "channel": 0}, {"type": "note_off", "time": 3530, "note": 56, "velocity": 89, "channel": 0}, {"type": "note_on", "time": 6109, "note": 56, "velocity": 91, "channel": 0}, {"type": "note_off", "time": 5443, "note": 56, "velocity": 91, "channel": 0}, {"type": "note_on", "time": 998, "note": 58, "velocity": 104, "channel": 0}, {"type": "note_off", "time": 2650, "note": 58, "velocity": 104, "channel": 0}, {"type": "note_on", "time": 362, "note": 60, "velocity": 109, "channel": 0}, {"type": "note_off", "time": 5628, "note": 60, "velocity": 109, "channel": 0}, {"type": "note_on", "time": 222, "note": 58, "velocity": 101, "channel": 0}, {"type": "note_off", "time": 3184, "note": 58, "velocity": 101, "channel": 0}, {"type": "note_on", "time": 296, "note": 54, "velocity": 90, "channel": 0}, {"type": "note_off", "time": 14984, "note": 54, "velocity": 90, "channel": 0}, {"type": "note_on", "time": 987, "note": 55, "velocity": 105, "channel": 0}, {"type": "note_off", "time": 2567, "note": 55, "velocity": 105, "channel": 0}, {"type": "note_on", "time": 6490, "note": 55, "velocity": 108, "channel": 0}, {"type": "note_off", "time": 2720, "note": 55, "velocity": 108, "channel": 0}, {"type": "note_on", "time": 6021, "note": 52, "velocity": 84, "channel": 0}, {"type": "note_off", "time": 2282, "note": 52, "velocity": 84, "channel": 0}, {"type": "note_on", "time": 719, "note": 55, "velocity": 105, "channel": 0}, {"type": "note_off", "time": 2984, "note": 55, "velocity": 105, "channel": 0}, {"type": "note_on", "time": 6144, "note": 55, "velocity": 104, "channel": 0}, {"type": "note_off", "time": 2808, "note": 55, "velocity": 104, "channel": 0}, {"type": "note_on", "time": 6828, "note": 55, "velocity": 104, "channel": 0}, {"type": "note_off", "time": 2878, "note": 55, "velocity": 104, "channel": 0}, {"type": "note_on", "time": 245, "note": 57, "velocity": 103, "channel": 0}, {"type": "note_off", "time": 1667, "note": 57, "velocity": 103, "channel": 0}, {"type": "note_on", "time": 3888, "note": 58, "velocity": 100, "channel": 0}, {"type": "note_off", "time": 2878, "note": 58, "velocity": 100, "channel": 0}, {"type": "note_on", "time": 263, "note": 61, "velocity": 102, "channel": 0}, {"type": "note_off", "time": 1448, "note": 61, "velocity": 102, "channel": 0}, {"type": "note_on", "time": 4450, "note": 64, "velocity": 117, "channel": 0}, {"type": "note_off", "time": 2659, "note": 64, "velocity": 117, "channel": 0}, {"type": "note_on", "time": 623, "note": 67, "velocity": 110, "channel": 0}, {"type": "note_off", "time": 1290, "note": 67, "velocity": 110, "channel": 0}, {"type": "note_on", "time": 4897, "note": 69, "velocity": 110, "channel": 0}, {"type": "note_off", "time": 2887, "note": 69, "velocity": 110, "channel": 0}, {"type": "note_on", "time": 351, "note": 70, "velocity": 111, "channel": 0}, {"type": "note_off", "time": 1255, "note": 70, "velocity": 111, "channel": 0}, {"type": "note_on", "time": 23171, "note": 69, "velocity": 114, "channel": 0}, {"type": "note_off", "time": 9654, "note": 69, "velocity": 114, "channel": 0}, {"type": "note_on", "time": 15342, "note": 69, "velocity": 121, "channel": 0}, {"type": "note_off", "time": 2826, "note": 69, "velocity": 121, "channel": 0}, {"type": "note_on", "time": 561, "note": 68, "velocity": 109, "channel": 0}, {"type": "note_off", "time": 2545, "note": 68, "velocity": 109, "channel": 0}, {"type": "note_on", "time": 1614, "note": 69, "velocity": 121, "channel": 0}, {"type": "note_off", "time": 2246, "note": 69, "velocity": 121, "channel": 0}, {"type": "note_on", "time": 2773, "note": 69, "velocity": 120, "channel": 0}, {"type": "note_off", "time": 2018, "note": 69, "velocity": 120, "channel": 0}, {"type": "note_on", "time": 35, "note": 71, "velocity": 121, "channel": 0}, {"type": "note_off", "time": 1720, "note": 71, "velocity": 121, "channel": 0}, {"type": "note_on", "time": 8636, "note": 66, "velocity": 112, "channel": 0}, {"type": "note_off", "time": 6038, "note": 66, "velocity": 112, "channel": 0}, {"type": "note_on", "time": 298, "note": 67, "velocity": 119, "channel": 0}, {"type": "note_off", "time": 947, "note": 67, "velocity": 119, "channel": 0}, {"type": "note_on", "time": 105, "note": 69, "velocity": 107, "channel": 0}, {"type": "note_off", "time": 6775, "note": 69, "velocity": 107, "channel": 0}, {"type": "note_on", "time": 368, "note": 68, "velocity": 98, "channel": 0}, {"type": "note_off", "time": 5880, "note": 68, "velocity": 98, "channel": 0}, {"type": "note_on", "time": 281, "note": 67, "velocity": 83, "channel": 0}, {"type": "note_off", "time": 19477, "note": 67, "velocity": 83, "channel": 0}, {"type": "note_on", "time": 12558, "note": 70, "velocity": 119, "channel": 0}, {"type": "note_off", "time": 2229, "note": 70, "velocity": 119, "channel": 0}, {"type": "note_on", "time": 631, "note": 67, "velocity": 118, "channel": 0}, {"type": "note_off", "time": 1492, "note": 67, "velocity": 118, "channel": 0}, {"type": "note_on", "time": 140, "note": 63, "velocity": 118, "channel": 0}, {"type": "note_off", "time": 2369, "note": 63, "velocity": 118, "channel": 0}, {"type": "note_on", "time": 333, "note": 58, "velocity": 108, "channel": 0}, {"type": "note_off", "time": 1720, "note": 58, "velocity": 108, "channel": 0}, {"type": "note_on", "time": 157, "note": 65, "velocity": 113, "channel": 0}, {"type": "note_off", "time": 2141, "note": 65, "velocity": 113, "channel": 0}, {"type": "note_on", "time": 860, "note": 63, "velocity": 121, "channel": 0}, {"type": "note_off", "time": 1053, "note": 63, "velocity": 121, "channel": 0}, {"type": "note_on", "time": 228, "note": 58, "velocity": 108, "channel": 0}, {"type": "note_off", "time": 2194, "note": 58, "velocity": 108, "channel": 0}, {"type": "note_on", "time": 1351, "note": 51, "velocity": 79, "channel": 0}, {"type": "note_off", "time": 1650, "note": 51, "velocity": 79, "channel": 0}, {"type": "note_on", "time": 298, "note": 53, "velocity": 105, "channel": 0}, {"type": "note_off", "time": 6144, "note": 53, "velocity": 105, "channel": 0}, {"type": "note_on", "time": 333, "note": 51, "velocity": 97, "channel": 0}, {"type": "note_off", "time": 2668, "note": 51, "velocity": 97, "channel": 0}, {"type": "note_on", "time": 789, "note": 52, "velocity": 102, "channel": 0}, {"type": "note_off", "time": 2369, "note": 52, "velocity": 102, "channel": 0}, {"type": "note_on", "time": 473, "note": 57, "velocity": 102, "channel": 0}, {"type": "note_off", "time": 2457, "note": 57, "velocity": 102, "channel": 0}, {"type": "note_on", "time": 315, "note": 54, "velocity": 83, "channel": 0}, {"type": "note_off", "time": 12340, "note": 54, "velocity": 83, "channel": 0}, {"type": "note_on", "time": 7110, "note": 57, "velocity": 103, "channel": 0}, {"type": "note_off", "time": 2962, "note": 57, "velocity": 103, "channel": 0}, {"type": "note_on", "time": 308, "note": 62, "velocity": 123, "channel": 0}, {"type": "note_off", "time": 2579, "note": 62, "velocity": 123, "channel": 0}, {"type": "note_on", "time": 777, "note": 57, "velocity": 100, "channel": 0}, {"type": "note_off", "time": 2295, "note": 57, "velocity": 100, "channel": 0}, {"type": "note_on", "time": 419, "note": 64, "velocity": 119, "channel": 0}, {"type": "note_off", "time": 1937, "note": 64, "velocity": 119, "channel": 0}, {"type": "note_on", "time": 127, "note": 69, "velocity": 113, "channel": 0}, {"type": "note_off", "time": 1983, "note": 69, "velocity": 113, "channel": 0}, {"type": "note_on", "time": 193, "note": 66, "velocity": 103, "channel": 0}, {"type": "note_off", "time": 4046, "note": 66, "velocity": 103, "channel": 0}, {"type": "note_on", "time": 105, "note": 64, "velocity": 101, "channel": 0}, {"type": "note_off", "time": 1457, "note": 64, "velocity": 101, "channel": 0}, {"type": "note_on", "time": 763, "note": 69, "velocity": 113, "channel": 0}, {"type": "note_off", "time": 1974, "note": 69, "velocity": 113, "channel": 0}, {"type": "note_on", "time": 342, "note": 66, "velocity": 106, "channel": 0}, {"type": "note_off", "time": 4529, "note": 66, "velocity": 106, "channel": 0}, {"type": "note_on", "time": 228, "note": 64, "velocity": 114, "channel": 0}, {"type": "note_off", "time": 2159, "note": 64, "velocity": 114, "channel": 0}, {"type": "note_on", "time": 526, "note": 69, "velocity": 113, "channel": 0}, {"type": "note_off", "time": 1667, "note": 69, "velocity": 113, "channel": 0}, {"type": "note_on", "time": 1193, "note": 66, "velocity": 116, "channel": 0}, {"type": "note_off", "time": 1123, "note": 66, "velocity": 116, "channel": 0}, {"type": "note_on", "time": 128, "note": 67, "velocity": 106, "channel": 0}, {"type": "note_off", "time": 4677, "note": 67, "velocity": 106, "channel": 0}, {"type": "note_on", "time": 209, "note": 64, "velocity": 111, "channel": 0}, {"type": "note_off", "time": 975, "note": 64, "velocity": 111, "channel": 0}, {"type": "note_on", "time": 209, "note": 60, "velocity": 111, "channel": 0}, {"type": "note_off", "time": 1370, "note": 60, "velocity": 111, "channel": 0}, {"type": "note_on", "time": 296, "note": 57, "velocity": 102, "channel": 0}, {"type": "note_off", "time": 2357, "note": 57, "velocity": 102, "channel": 0}, {"type": "note_on", "time": 209, "note": 60, "velocity": 110, "channel": 0}, {"type": "note_off", "time": 2197, "note": 60, "velocity": 110, "channel": 0}, {"type": "note_on", "time": 333, "note": 64, "velocity": 109, "channel": 0}, {"type": "note_off", "time": 2554, "note": 64, "velocity": 109, "channel": 0}, {"type": "note_on", "time": 123, "note": 67, "velocity": 111, "channel": 0}, {"type": "note_off", "time": 1444, "note": 67, "velocity": 111, "channel": 0}, {"type": "note_on", "time": 246, "note": 71, "velocity": 120, "channel": 0}, {"type": "note_off", "time": 2838, "note": 71, "velocity": 120, "channel": 0}, {"type": "note_on", "time": 691, "note": 69, "velocity": 109, "channel": 0}, {"type": "note_off", "time": 1135, "note": 69, "velocity": 109, "channel": 0}, {"type": "note_on", "time": 5788, "note": 66, "velocity": 114, "channel": 0}, {"type": "note_off", "time": 2258, "note": 66, "velocity": 114, "channel": 0}, {"type": "note_on", "time": 61, "note": 67, "velocity": 107, "channel": 0}, {"type": "note_off", "time": 1888, "note": 67, "velocity": 107, "channel": 0}, {"type": "note_on", "time": 635, "note": 64, "velocity": 117, "channel": 0}, {"type": "note_off", "time": 2773, "note": 64, "velocity": 117, "channel": 0}, {"type": "note_on", "time": 386, "note": 60, "velocity": 111, "channel": 0}, {"type": "note_off", "time": 1527, "note": 60, "velocity": 111, "channel": 0}, {"type": "note_on", "time": 351, "note": 57, "velocity": 98, "channel": 0}, {"type": "note_off", "time": 2475, "note": 57, "velocity": 98, "channel": 0}, {"type": "note_on", "time": 824, "note": 60, "velocity": 111, "channel": 0}, {"type": "note_off", "time": 1444, "note": 60, "velocity": 111, "channel": 0}, {"type": "note_on", "time": 222, "note": 64, "velocity": 107, "channel": 0}, {"type": "note_off", "time": 2345, "note": 64, "velocity": 107, "channel": 0}, {"type": "note_on", "time": 654, "note": 67, "velocity": 103, "channel": 0}, {"type": "note_off", "time": 728, "note": 67, "velocity": 103, "channel": 0}, {"type": "note_on", "time": 1101, "note": 71, "velocity": 116, "channel": 0}, {"type": "note_off", "time": 2878, "note": 71, "velocity": 116, "channel": 0}, {"type": "note_on", "time": 368, "note": 72, "velocity": 115, "channel": 0}, {"type": "note_off", "time": 1299, "note": 72, "velocity": 115, "channel": 0}, {"type": "note_on", "time": 315, "note": 69, "velocity": 94, "channel": 0}, {"type": "note_off", "time": 2264, "note": 69, "velocity": 94, "channel": 0}, {"type": "note_on", "time": 6653, "note": 68, "velocity": 118, "channel": 0}, {"type": "note_off", "time": 1492, "note": 68, "velocity": 118, "channel": 0}, {"type": "note_on", "time": 87, "note": 71, "velocity": 114, "channel": 0}, {"type": "note_off", "time": 1518, "note": 71, "velocity": 114, "channel": 0}, {"type": "note_on", "time": 131, "note": 69, "velocity": 114, "channel": 0}, {"type": "note_off", "time": 1263, "note": 69, "velocity": 114, "channel": 0}, {"type": "note_on", "time": 166, "note": 64, "velocity": 103, "channel": 0}, {"type": "note_off", "time": 1167, "note": 64, "velocity": 103, "channel": 0}, {"type": "note_on", "time": 280, "note": 67, "velocity": 111, "channel": 0}, {"type": "note_off", "time": 3177, "note": 67, "velocity": 111, "channel": 0}, {"type": "note_on", "time": 430, "note": 64, "velocity": 84, "channel": 0}, {"type": "note_off", "time": 684, "note": 64, "velocity": 84, "channel": 0}, {"type": "note_on", "time": 377, "note": 66, "velocity": 112, "channel": 0}, {"type": "note_off", "time": 1070, "note": 66, "velocity": 112, "channel": 0}, {"type": "note_on", "time": 74, "note": 67, "velocity": 104, "channel": 0}, {"type": "note_off", "time": 473, "note": 67, "velocity": 104, "channel": 0}, {"type": "note_on", "time": 64, "note": 66, "velocity": 107, "channel": 0}, {"type": "note_off", "time": 1267, "note": 66, "velocity": 107, "channel": 0}, {"type": "note_on", "time": 90, "note": 64, "velocity": 110, "channel": 0}, {"type": "note_off", "time": 1659, "note": 64, "velocity": 110, "channel": 0}, {"type": "note_on", "time": 168, "note": 62, "velocity": 109, "channel": 0}, {"type": "note_off", "time": 2540, "note": 62, "velocity": 109, "channel": 0}, {"type": "note_on", "time": 261, "note": 61, "velocity": 110, "channel": 0}, {"type": "note_off", "time": 1895, "note": 61, "velocity": 110, "channel": 0}, {"type": "note_on", "time": 122, "note": 60, "velocity": 102, "channel": 0}, {"type": "note_off", "time": 2124, "note": 60, "velocity": 102, "channel": 0}, {"type": "note_on", "time": 210, "note": 59, "velocity": 97, "channel": 0}, {"type": "note_off", "time": 1983, "note": 59, "velocity": 97, "channel": 0}, {"type": "note_on", "time": 421, "note": 57, "velocity": 98, "channel": 0}, {"type": "note_off", "time": 1843, "note": 57, "velocity": 98, "channel": 0}, {"type": "note_on", "time": 509, "note": 55, "velocity": 97, "channel": 0}, {"type": "note_off", "time": 1895, "note": 55, "velocity": 97, "channel": 0}, {"type": "note_on", "time": 280, "note": 54, "velocity": 85, "channel": 0}, {"type": "note_off", "time": 2299, "note": 54, "velocity": 85, "channel": 0}, {"type": "note_on", "time": 438, "note": 57, "velocity": 105, "channel": 0}, {"type": "note_off", "time": 1228, "note": 57, "velocity": 105, "channel": 0}, {"type": "note_on", "time": 1501, "note": 60, "velocity": 96, "channel": 0}, {"type": "note_off", "time": 1703, "note": 60, "velocity": 96, "channel": 0}, {"type": "note_on", "time": 215, "note": 62, "velocity": 106, "channel": 0}, {"type": "note_off", "time": 766, "note": 62, "velocity": 106, "channel": 0}, {"type": "note_on", "time": 78, "note": 63, "velocity": 106, "channel": 0}, {"type": "note_off", "time": 856, "note": 63, "velocity": 106, "channel": 0}, {"type": "note_on", "time": 169, "note": 60, "velocity": 88, "channel": 0}, {"type": "note_off", "time": 2530, "note": 60, "velocity": 88, "channel": 0}, {"type": "note_on", "time": 246, "note": 61, "velocity": 93, "channel": 0}, {"type": "note_off", "time": 1135, "note": 61, "velocity": 93, "channel": 0}, {"type": "note_on", "time": 197, "note": 62, "velocity": 111, "channel": 0}, {"type": "note_off", "time": 1690, "note": 62, "velocity": 111, "channel": 0}, {"type": "note_on", "time": 2863, "note": 50, "velocity": 89, "channel": 0}, {"type": "note_off", "time": 2299, "note": 50, "velocity": 89, "channel": 0}, {"type": "note_on", "time": 2826, "note": 54, "velocity": 96, "channel": 0}, {"type": "note_off", "time": 1948, "note": 54, "velocity": 96, "channel": 0}, {"type": "note_on", "time": 3072, "note": 57, "velocity": 99, "channel": 0}, {"type": "note_off", "time": 1772, "note": 57, "velocity": 99, "channel": 0}, {"type": "note_on", "time": 3247, "note": 62, "velocity": 108, "channel": 0}, {"type": "note_off", "time": 2387, "note": 62, "velocity": 108, "channel": 0}, {"type": "note_on", "time": 2141, "note": 64, "velocity": 111, "channel": 0}, {"type": "note_off", "time": 3212, "note": 64, "velocity": 111, "channel": 0}, {"type": "note_on", "time": 614, "note": 58, "velocity": 93, "channel": 0}, {"type": "note_off", "time": 789, "note": 58, "velocity": 93, "channel": 0}, {"type": "note_on", "time": 557, "note": 66, "velocity": 101, "channel": 0}, {"type": "note_off", "time": 2690, "note": 66, "velocity": 101, "channel": 0}, {"type": "note_on", "time": 259, "note": 64, "velocity": 103, "channel": 0}, {"type": "note_off", "time": 1555, "note": 64, "velocity": 103, "channel": 0}, {"type": "note_on", "time": 357, "note": 62, "velocity": 88, "channel": 0}, {"type": "note_off", "time": 1690, "note": 62, "velocity": 88, "channel": 0}, {"type": "note_on", "time": 1073, "note": 59, "velocity": 99, "channel": 0}, {"type": "note_off", "time": 1431, "note": 59, "velocity": 99, "channel": 0}, {"type": "note_on", "time": 3464, "note": 59, "velocity": 104, "channel": 0}, {"type": "note_off", "time": 1056, "note": 59, "velocity": 104, "channel": 0}, {"type": "note_on", "time": 4095, "note": 59, "velocity": 96, "channel": 0}, {"type": "note_off", "time": 913, "note": 59, "velocity": 96, "channel": 0}, {"type": "note_on", "time": 3357, "note": 59, "velocity": 104, "channel": 0}, {"type": "note_off", "time": 728, "note": 59, "velocity": 104, "channel": 0}, {"type": "note_on", "time": 4320, "note": 58, "velocity": 99, "channel": 0}, {"type": "note_off", "time": 752, "note": 58, "velocity": 99, "channel": 0}, {"type": "note_on", "time": 3702, "note": 59, "velocity": 103, "channel": 0}, {"type": "note_off", "time": 987, "note": 59, "velocity": 103, "channel": 0}, {"type": "note_on", "time": 4073, "note": 57, "velocity": 107, "channel": 0}, {"type": "note_off", "time": 975, "note": 57, "velocity": 107, "channel": 0}, {"type": "note_on", "time": 1024, "note": 58, "velocity": 106, "channel": 0}, {"type": "note_off", "time": 1024, "note": 58, "velocity": 106, "channel": 0}, {"type": "note_on", "time": 13404, "note": 83, "velocity": 119, "channel": 0}, {"type": "note_off", "time": 2234, "note": 83, "velocity": 119, "channel": 0}, {"type": "note_on", "time": 21698, "note": 58, "velocity": 105, "channel": 0}, {"type": "note_off", "time": 2122, "note": 58, "velocity": 105, "channel": 0}, {"type": "note_on", "time": 2937, "note": 81, "velocity": 124, "channel": 0}, {"type": "note_off", "time": 2024, "note": 81, "velocity": 124, "channel": 0}, {"type": "note_on", "time": 2740, "note": 58, "velocity": 108, "channel": 0}, {"type": "note_off", "time": 2295, "note": 58, "velocity": 108, "channel": 0}, {"type": "note_on", "time": 2616, "note": 81, "velocity": 125, "channel": 0}, {"type": "note_off", "time": 2419, "note": 81, "velocity": 125, "channel": 0}, {"type": "note_on", "time": 2764, "note": 58, "velocity": 105, "channel": 0}, {"type": "note_off", "time": 2542, "note": 58, "velocity": 105, "channel": 0}, {"type": "note_on", "time": 2641, "note": 81, "velocity": 121, "channel": 0}, {"type": "note_off", "time": 2221, "note": 81, "velocity": 121, "channel": 0}, {"type": "note_on", "time": 1012, "note": 58, "velocity": 103, "channel": 0}, {"type": "note_off", "time": 1925, "note": 58, "velocity": 103, "channel": 0}, {"type": "note_on", "time": 2493, "note": 81, "velocity": 118, "channel": 0}, {"type": "note_off", "time": 1925, "note": 81, "velocity": 118, "channel": 0}, {"type": "note_on", "time": 469, "note": 58, "velocity": 105, "channel": 0}, {"type": "note_off", "time": 1974, "note": 58, "velocity": 105, "channel": 0}, {"type": "note_on", "time": 2690, "note": 57, "velocity": 104, "channel": 0}, {"type": "note_off", "time": 2024, "note": 57, "velocity": 104, "channel": 0}, {"type": "note_on", "time": 3184, "note": 61, "velocity": 109, "channel": 0}, {"type": "note_off", "time": 2715, "note": 61, "velocity": 109, "channel": 0}, {"type": "note_on", "time": 1974, "note": 64, "velocity": 89, "channel": 0}, {"type": "note_off", "time": 8960, "note": 64, "velocity": 89, "channel": 0}, {"type": "note_on", "time": 43545, "note": 66, "velocity": 118, "channel": 0}, {"type": "note_off", "time": 2369, "note": 66, "velocity": 118, "channel": 0}, {"type": "note_on", "time": 1209, "note": 67, "velocity": 117, "channel": 0}, {"type": "note_off", "time": 2295, "note": 67, "velocity": 117, "channel": 0}, {"type": "note_on", "time": 888, "note": 63, "velocity": 111, "channel": 0}, {"type": "note_off", "time": 1999, "note": 63, "velocity": 111, "channel": 0}, {"type": "note_on", "time": 1134, "note": 65, "velocity": 115, "channel": 0}, {"type": "note_off", "time": 1703, "note": 65, "velocity": 115, "channel": 0}, {"type": "note_on", "time": 148, "note": 66, "velocity": 105, "channel": 0}, {"type": "note_off", "time": 1604, "note": 66, "velocity": 105, "channel": 0}, {"type": "note_on", "time": 458, "note": 65, "velocity": 113, "channel": 0}, {"type": "note_off", "time": 2036, "note": 65, "velocity": 113, "channel": 0}, {"type": "note_on", "time": 947, "note": 64, "velocity": 108, "channel": 0}, {"type": "note_off", "time": 1667, "note": 64, "velocity": 108, "channel": 0}, {"type": "note_on", "time": 631, "note": 60, "velocity": 110, "channel": 0}, {"type": "note_off", "time": 1421, "note": 60, "velocity": 110, "channel": 0}, {"type": "note_on", "time": 631, "note": 57, "velocity": 100, "channel": 0}, {"type": "note_off", "time": 1808, "note": 57, "velocity": 100, "channel": 0}, {"type": "note_on", "time": 1088, "note": 52, "velocity": 86, "channel": 0}, {"type": "note_off", "time": 1614, "note": 52, "velocity": 86, "channel": 0}, {"type": "note_on", "time": 737, "note": 62, "velocity": 97, "channel": 0}, {"type": "note_off", "time": 6828, "note": 62, "velocity": 97, "channel": 0}, {"type": "note_on", "time": 4546, "note": 59, "velocity": 97, "channel": 0}, {"type": "note_off", "time": 1843, "note": 59, "velocity": 97, "channel": 0}, {"type": "note_on", "time": 245, "note": 54, "velocity": 103, "channel": 0}, {"type": "note_off", "time": 1544, "note": 54, "velocity": 103, "channel": 0}, {"type": "note_on", "time": 2071, "note": 61, "velocity": 117, "channel": 0}, {"type": "note_off", "time": 1614, "note": 61, "velocity": 117, "channel": 0}, {"type": "note_on", "time": 1042, "note": 59, "velocity": 102, "channel": 0}, {"type": "note_off", "time": 1571, "note": 59, "velocity": 102, "channel": 0}, {"type": "note_on", "time": 414, "note": 57, "velocity": 103, "channel": 0}, {"type": "note_off", "time": 1711, "note": 57, "velocity": 103, "channel": 0}, {"type": "note_on", "time": 509, "note": 56, "velocity": 97, "channel": 0}, {"type": "note_off", "time": 1228, "note": 56, "velocity": 97, "channel": 0}, {"type": "note_on", "time": 971, "note": 55, "velocity": 102, "channel": 0}, {"type": "note_off", "time": 1296, "note": 55, "velocity": 102, "channel": 0}, {"type": "note_on", "time": 851, "note": 57, "velocity": 105, "channel": 0}, {"type": "note_off", "time": 1653, "note": 57, "velocity": 105, "channel": 0}, {"type": "note_on", "time": 469, "note": 59, "velocity": 98, "channel": 0}, {"type": "note_off", "time": 1987, "note": 59, "velocity": 98, "channel": 0}, {"type": "note_on", "time": 728, "note": 61, "velocity": 110, "channel": 0}, {"type": "note_off", "time": 1579, "note": 61, "velocity": 110, "channel": 0}, {"type": "note_on", "time": 1147, "note": 63, "velocity": 116, "channel": 0}, {"type": "note_off", "time": 1814, "note": 63, "velocity": 116, "channel": 0}, {"type": "note_on", "time": 740, "note": 64, "velocity": 112, "channel": 0}, {"type": "note_off", "time": 1184, "note": 64, "velocity": 112, "channel": 0}, {"type": "note_on", "time": 567, "note": 66, "velocity": 115, "channel": 0}, {"type": "note_off", "time": 1530, "note": 66, "velocity": 115, "channel": 0}, {"type": "note_on", "time": 777, "note": 63, "velocity": 105, "channel": 0}, {"type": "note_off", "time": 1036, "note": 63, "velocity": 105, "channel": 0}, {"type": "note_on", "time": 271, "note": 64, "velocity": 113, "channel": 0}, {"type": "note_off", "time": 1530, "note": 64, "velocity": 113, "channel": 0}, {"type": "note_on", "time": 234, "note": 66, "velocity": 112, "channel": 0}, {"type": "note_off", "time": 1555, "note": 66, "velocity": 112, "channel": 0}, {"type": "note_on", "time": 432, "note": 67, "velocity": 113, "channel": 0}, {"type": "note_off", "time": 1876, "note": 67, "velocity": 113, "channel": 0}, {"type": "note_on", "time": 296, "note": 69, "velocity": 114, "channel": 0}, {"type": "note_off", "time": 1839, "note": 69, "velocity": 114, "channel": 0}, {"type": "note_on", "time": 493, "note": 69, "velocity": 118, "channel": 0}, {"type": "note_off", "time": 710, "note": 69, "velocity": 118, "channel": 0}, {"type": "note_on", "time": 122, "note": 70, "velocity": 111, "channel": 0}, {"type": "note_off", "time": 1211, "note": 70, "velocity": 111, "channel": 0}, {"type": "note_on", "time": 825, "note": 72, "velocity": 115, "channel": 0}, {"type": "note_off", "time": 1448, "note": 72, "velocity": 115, "channel": 0}, {"type": "note_on", "time": 1553, "note": 69, "velocity": 113, "channel": 0}, {"type": "note_off", "time": 2053, "note": 69, "velocity": 113, "channel": 0}, {"type": "note_on", "time": 175, "note": 68, "velocity": 95, "channel": 0}, {"type": "note_off", "time": 2290, "note": 68, "velocity": 95, "channel": 0}, {"type": "note_on", "time": 160, "note": 69, "velocity": 109, "channel": 0}, {"type": "note_off", "time": 2073, "note": 69, "velocity": 109, "channel": 0}, {"type": "note_on", "time": 641, "note": 57, "velocity": 94, "channel": 0}, {"type": "note_off", "time": 1974, "note": 57, "velocity": 94, "channel": 0}, {"type": "note_on", "time": 752, "note": 64, "velocity": 113, "channel": 0}, {"type": "note_off", "time": 999, "note": 64, "velocity": 113, "channel": 0}, {"type": "note_on", "time": 197, "note": 66, "velocity": 109, "channel": 0}, {"type": "note_off", "time": 1900, "note": 66, "velocity": 109, "channel": 0}, {"type": "note_on", "time": 876, "note": 64, "velocity": 105, "channel": 0}, {"type": "note_off", "time": 2048, "note": 64, "velocity": 105, "channel": 0}, {"type": "note_on", "time": 543, "note": 64, "velocity": 107, "channel": 0}, {"type": "note_off", "time": 1740, "note": 64, "velocity": 107, "channel": 0}, {"type": "note_on", "time": 654, "note": 62, "velocity": 101, "channel": 0}, {"type": "note_off", "time": 1826, "note": 62, "velocity": 101, "channel": 0}, {"type": "note_on", "time": 469, "note": 62, "velocity": 99, "channel": 0}, {"type": "note_off", "time": 1666, "note": 62, "velocity": 99, "channel": 0}, {"type": "note_on", "time": 481, "note": 61, "velocity": 96, "channel": 0}, {"type": "note_off", "time": 1814, "note": 61, "velocity": 96, "channel": 0}, {"type": "note_on", "time": 432, "note": 61, "velocity": 101, "channel": 0}, {"type": "note_off", "time": 1555, "note": 61, "velocity": 101, "channel": 0}, {"type": "note_on", "time": 440, "note": 59, "velocity": 92, "channel": 0}, {"type": "note_off", "time": 1579, "note": 59, "velocity": 92, "channel": 0}, {"type": "note_on", "time": 386, "note": 59, "velocity": 91, "channel": 0}, {"type": "note_off", "time": 580, "note": 59, "velocity": 91, "channel": 0}, {"type": "note_on", "time": 179, "note": 57, "velocity": 96, "channel": 0}, {"type": "note_off", "time": 760, "note": 57, "velocity": 96, "channel": 0}, {"type": "note_on", "time": 446, "note": 57, "velocity": 97, "channel": 0}, {"type": "note_off", "time": 1442, "note": 57, "velocity": 97, "channel": 0}, {"type": "note_on", "time": 603, "note": 57, "velocity": 97, "channel": 0}, {"type": "note_off", "time": 1544, "note": 57, "velocity": 97, "channel": 0}, {"type": "note_on", "time": 718, "note": 54, "velocity": 98, "channel": 0}, {"type": "note_off", "time": 1404, "note": 54, "velocity": 98, "channel": 0}, {"type": "note_on", "time": 684, "note": 54, "velocity": 97, "channel": 0}, {"type": "note_off", "time": 1439, "note": 54, "velocity": 97, "channel": 0}, {"type": "note_on", "time": 909, "note": 52, "velocity": 93, "channel": 0}, {"type": "note_off", "time": 1357, "note": 52, "velocity": 93, "channel": 0}, {"type": "note_on", "time": 925, "note": 52, "velocity": 94, "channel": 0}, {"type": "note_off", "time": 1468, "note": 52, "velocity": 94, "channel": 0}, {"type": "note_on", "time": 946, "note": 50, "velocity": 88, "channel": 0}, {"type": "note_off", "time": 2167, "note": 50, "velocity": 88, "channel": 0}, {"type": "note_on", "time": 8413, "note": 50, "velocity": 100, "channel": 0}, {"type": "note_off", "time": 2258, "note": 50, "velocity": 100, "channel": 0}, {"type": "note_on", "time": 1641, "note": 46, "velocity": 88, "channel": 0}, {"type": "note_off", "time": 1937, "note": 46, "velocity": 88, "channel": 0}, {"type": "note_on", "time": 765, "note": 57, "velocity": 98, "channel": 0}, {"type": "note_off", "time": 1839, "note": 57, "velocity": 98, "channel": 0}, {"type": "note_on", "time": 1666, "note": 69, "velocity": 113, "channel": 0}, {"type": "note_off", "time": 2172, "note": 69, "velocity": 113, "channel": 0}, {"type": "note_on", "time": 320, "note": 67, "velocity": 113, "channel": 0}, {"type": "note_off", "time": 1592, "note": 67, "velocity": 113, "channel": 0}, {"type": "note_on", "time": 444, "note": 67, "velocity": 112, "channel": 0}, {"type": "note_off", "time": 1616, "note": 67, "velocity": 112, "channel": 0}, {"type": "note_on", "time": 380, "note": 65, "velocity": 115, "channel": 0}, {"type": "note_off", "time": 1579, "note": 65, "velocity": 115, "channel": 0}, {"type": "note_on", "time": 614, "note": 66, "velocity": 112, "channel": 0}, {"type": "note_off", "time": 1597, "note": 66, "velocity": 112, "channel": 0}, {"type": "note_on", "time": 430, "note": 64, "velocity": 110, "channel": 0}, {"type": "note_off", "time": 1527, "note": 64, "velocity": 110, "channel": 0}, {"type": "note_on", "time": 412, "note": 64, "velocity": 111, "channel": 0}, {"type": "note_off", "time": 1518, "note": 64, "velocity": 111, "channel": 0}, {"type": "note_on", "time": 368, "note": 62, "velocity": 109, "channel": 0}, {"type": "note_off", "time": 1588, "note": 62, "velocity": 109, "channel": 0}, {"type": "note_on", "time": 614, "note": 62, "velocity": 107, "channel": 0}, {"type": "note_off", "time": 1509, "note": 62, "velocity": 107, "channel": 0}, {"type": "note_on", "time": 947, "note": 59, "velocity": 96, "channel": 0}, {"type": "note_off", "time": 1992, "note": 59, "velocity": 96, "channel": 0}, {"type": "note_on", "time": 482, "note": 58, "velocity": 99, "channel": 0}, {"type": "note_off", "time": 1974, "note": 58, "velocity": 99, "channel": 0}, {"type": "note_on", "time": 526, "note": 57, "velocity": 100, "channel": 0}, {"type": "note_off", "time": 1457, "note": 57, "velocity": 100, "channel": 0}, {"type": "note_on", "time": 816, "note": 57, "velocity": 98, "channel": 0}, {"type": "note_off", "time": 1290, "note": 57, "velocity": 98, "channel": 0}, {"type": "note_on", "time": 933, "note": 55, "velocity": 100, "channel": 0}, {"type": "note_off", "time": 1448, "note": 55, "velocity": 100, "channel": 0}, {"type": "note_on", "time": 488, "note": 55, "velocity": 100, "channel": 0}, {"type": "note_off", "time": 1762, "note": 55, "velocity": 100, "channel": 0}, {"type": "note_on", "time": 844, "note": 54, "velocity": 97, "channel": 0}, {"type": "note_off", "time": 1430, "note": 54, "velocity": 97, "channel": 0}, {"type": "note_on", "time": 605, "note": 64, "velocity": 103, "channel": 0}, {"type": "note_off", "time": 1746, "note": 64, "velocity": 103, "channel": 0}, {"type": "note_on", "time": 210, "note": 61, "velocity": 99, "channel": 0}, {"type": "note_off", "time": 1992, "note": 61, "velocity": 99, "channel": 0}, {"type": "note_on", "time": 193, "note": 62, "velocity": 85, "channel": 0}, {"type": "note_off", "time": 11691, "note": 62, "velocity": 85, "channel": 0}, {"type": "note_on", "time": 45816, "note": 57, "velocity": 99, "channel": 0}, {"type": "note_off", "time": 3024, "note": 57, "velocity": 99, "channel": 0}, {"type": "note_on", "time": 185, "note": 59, "velocity": 99, "channel": 0}, {"type": "note_off", "time": 3122, "note": 59, "velocity": 99, "channel": 0}, {"type": "note_on", "time": 209, "note": 61, "velocity": 95, "channel": 0}, {"type": "note_off", "time": 5788, "note": 61, "velocity": 95, "channel": 0}, {"type": "note_on", "time": 1871, "note": 62, "velocity": 105, "channel": 0}, {"type": "note_off", "time": 2299, "note": 62, "velocity": 105, "channel": 0}, {"type": "note_on", "time": 1141, "note": 61, "velocity": 76, "channel": 0}, {"type": "note_off", "time": 4090, "note": 61, "velocity": 76, "channel": 0}, {"type": "note_on", "time": 1053, "note": 61, "velocity": 92, "channel": 0}, {"type": "note_off", "time": 1088, "note": 61, "velocity": 92, "channel": 0}, {"type": "note_on", "time": 245, "note": 62, "velocity": 106, "channel": 0}, {"type": "note_off", "time": 3440, "note": 62, "velocity": 106, "channel": 0}, {"type": "note_on", "time": 280, "note": 61, "velocity": 93, "channel": 0}, {"type": "note_off", "time": 5740, "note": 61, "velocity": 93, "channel": 0}, {"type": "note_on", "time": 546, "note": 55, "velocity": 87, "channel": 0}, {"type": "note_off", "time": 15206, "note": 55, "velocity": 87, "channel": 0}, {"type": "note_on", "time": 33523, "note": 57, "velocity": 88, "channel": 0}, {"type": "note_off", "time": 2271, "note": 57, "velocity": 88, "channel": 0}, {"type": "note_on", "time": 641, "note": 59, "velocity": 94, "channel": 0}, {"type": "note_off", "time": 2369, "note": 59, "velocity": 94, "channel": 0}, {"type": "note_on", "time": 7479, "note": 62, "velocity": 116, "channel": 0}, {"type": "note_off", "time": 3949, "note": 62, "velocity": 116, "channel": 0}, {"type": "note_on", "time": 148, "note": 61, "velocity": 89, "channel": 0}, {"type": "note_off", "time": 6837, "note": 61, "velocity": 89, "channel": 0}, {"type": "note_on", "time": 320, "note": 62, "velocity": 118, "channel": 0}, {"type": "note_off", "time": 3579, "note": 62, "velocity": 118, "channel": 0}, {"type": "note_on", "time": 222, "note": 61, "velocity": 97, "channel": 0}, {"type": "note_off", "time": 5899, "note": 61, "velocity": 97, "channel": 0}, {"type": "note_on", "time": 10479, "note": 55, "velocity": 90, "channel": 0}, {"type": "note_off", "time": 20573, "note": 55, "velocity": 90, "channel": 0}, {"type": "note_on", "time": 20416, "note": 57, "velocity": 101, "channel": 0}, {"type": "note_off", "time": 1900, "note": 57, "velocity": 101, "channel": 0}, {"type": "note_on", "time": 3826, "note": 57, "velocity": 103, "channel": 0}, {"type": "note_off", "time": 1579, "note": 57, "velocity": 103, "channel": 0}, {"type": "note_on", "time": 913, "note": 54, "velocity": 96, "channel": 0}, {"type": "note_off", "time": 1678, "note": 54, "velocity": 96, "channel": 0}, {"type": "note_on", "time": 518, "note": 57, "velocity": 106, "channel": 0}, {"type": "note_off", "time": 1579, "note": 57, "velocity": 106, "channel": 0}, {"type": "note_on", "time": 320, "note": 62, "velocity": 110, "channel": 0}, {"type": "note_off", "time": 1802, "note": 62, "velocity": 110, "channel": 0}, {"type": "note_on", "time": 2863, "note": 62, "velocity": 110, "channel": 0}, {"type": "note_off", "time": 1925, "note": 62, "velocity": 110, "channel": 0}, {"type": "note_on", "time": 3135, "note": 54, "velocity": 95, "channel": 0}, {"type": "note_off", "time": 2962, "note": 54, "velocity": 95, "channel": 0}, {"type": "note_on", "time": 382, "note": 57, "velocity": 98, "channel": 0}, {"type": "note_off", "time": 1493, "note": 57, "velocity": 98, "channel": 0}, {"type": "note_on", "time": 691, "note": 62, "velocity": 108, "channel": 0}, {"type": "note_off", "time": 2197, "note": 62, "velocity": 108, "channel": 0}, {"type": "note_on", "time": 3048, "note": 54, "velocity": 94, "channel": 0}, {"type": "note_off", "time": 2468, "note": 54, "velocity": 94, "channel": 0}, {"type": "note_on", "time": 271, "note": 57, "velocity": 103, "channel": 0}, {"type": "note_off", "time": 1728, "note": 57, "velocity": 103, "channel": 0}, {"type": "note_on", "time": 209, "note": 62, "velocity": 114, "channel": 0}, {"type": "note_off", "time": 2160, "note": 62, "velocity": 114, "channel": 0}, {"type": "note_on", "time": 15675, "note": 55, "velocity": 100, "channel": 0}, {"type": "note_off", "time": 2160, "note": 55, "velocity": 100, "channel": 0}, {"type": "note_on", "time": 246, "note": 59, "velocity": 96, "channel": 0}, {"type": "note_off", "time": 2122, "note": 59, "velocity": 96, "channel": 0}, {"type": "note_on", "time": 925, "note": 62, "velocity": 114, "channel": 0}, {"type": "note_off", "time": 1542, "note": 62, "velocity": 114, "channel": 0}, {"type": "note_on", "time": 1641, "note": 55, "velocity": 93, "channel": 0}, {"type": "note_off", "time": 1604, "note": 55, "velocity": 93, "channel": 0}, {"type": "note_on", "time": 271, "note": 59, "velocity": 104, "channel": 0}, {"type": "note_off", "time": 1592, "note": 59, "velocity": 104, "channel": 0}, {"type": "note_on", "time": 283, "note": 62, "velocity": 116, "channel": 0}, {"type": "note_off", "time": 2308, "note": 62, "velocity": 116, "channel": 0}, {"type": "note_on", "time": 2553, "note": 55, "velocity": 98, "channel": 0}, {"type": "note_off", "time": 2615, "note": 55, "velocity": 98, "channel": 0}, {"type": "note_on", "time": 280, "note": 59, "velocity": 105, "channel": 0}, {"type": "note_off", "time": 1685, "note": 59, "velocity": 105, "channel": 0}, {"type": "note_on", "time": 473, "note": 62, "velocity": 118, "channel": 0}, {"type": "note_off", "time": 1860, "note": 62, "velocity": 118, "channel": 0}, {"type": "note_on", "time": 11620, "note": 59, "velocity": 108, "channel": 0}, {"type": "note_off", "time": 1492, "note": 59, "velocity": 108, "channel": 0}, {"type": "note_on", "time": 526, "note": 60, "velocity": 110, "channel": 0}, {"type": "note_off", "time": 1299, "note": 60, "velocity": 110, "channel": 0}, {"type": "note_on", "time": 421, "note": 56, "velocity": 95, "channel": 0}, {"type": "note_off", "time": 868, "note": 56, "velocity": 95, "channel": 0}, {"type": "note_on", "time": 210, "note": 59, "velocity": 106, "channel": 0}, {"type": "note_off", "time": 1334, "note": 59, "velocity": 106, "channel": 0}, {"type": "note_on", "time": 236, "note": 57, "velocity": 104, "channel": 0}, {"type": "note_off", "time": 1114, "note": 57, "velocity": 104, "channel": 0}, {"type": "note_on", "time": 552, "note": 52, "velocity": 92, "channel": 0}, {"type": "note_off", "time": 1272, "note": 52, "velocity": 92, "channel": 0}, {"type": "note_on", "time": 61, "note": 55, "velocity": 103, "channel": 0}, {"type": "note_off", "time": 1702, "note": 55, "velocity": 103, "channel": 0}, {"type": "note_on", "time": 684, "note": 54, "velocity": 98, "channel": 0}, {"type": "note_off", "time": 2271, "note": 54, "velocity": 98, "channel": 0}, {"type": "note_on", "time": 419, "note": 57, "velocity": 103, "channel": 0}, {"type": "note_off", "time": 1826, "note": 57, "velocity": 103, "channel": 0}, {"type": "note_on", "time": 380, "note": 60, "velocity": 106, "channel": 0}, {"type": "note_off", "time": 2475, "note": 60, "velocity": 106, "channel": 0}, {"type": "note_on", "time": 386, "note": 62, "velocity": 118, "channel": 0}, {"type": "note_off", "time": 1509, "note": 62, "velocity": 118, "channel": 0}, {"type": "note_on", "time": 912, "note": 63, "velocity": 84, "channel": 0}, {"type": "note_off", "time": 1913, "note": 63, "velocity": 84, "channel": 0}, {"type": "note_on", "time": 491, "note": 65, "velocity": 109, "channel": 0}, {"type": "note_off", "time": 1614, "note": 65, "velocity": 109, "channel": 0}, {"type": "note_on", "time": 403, "note": 62, "velocity": 107, "channel": 0}, {"type": "note_off", "time": 2159, "note": 62, "velocity": 107, "channel": 0}, {"type": "note_on", "time": 2703, "note": 66, "velocity": 109, "channel": 0}, {"type": "note_off", "time": 2404, "note": 66, "velocity": 109, "channel": 0}, {"type": "note_on", "time": 2615, "note": 69, "velocity": 109, "channel": 0}, {"type": "note_off", "time": 1860, "note": 69, "velocity": 109, "channel": 0}, {"type": "note_on", "time": 3125, "note": 74, "velocity": 110, "channel": 0}, {"type": "note_off", "time": 1370, "note": 74, "velocity": 110, "channel": 0}, {"type": "note_on", "time": 160, "note": 73, "velocity": 111, "channel": 0}, {"type": "note_off", "time": 975, "note": 73, "velocity": 111, "channel": 0}, {"type": "note_on", "time": 135, "note": 72, "velocity": 121, "channel": 0}, {"type": "note_off", "time": 1184, "note": 72, "velocity": 121, "channel": 0}, {"type": "note_on", "time": 148, "note": 71, "velocity": 112, "channel": 0}, {"type": "note_off", "time": 962, "note": 71, "velocity": 112, "channel": 0}, {"type": "note_on", "time": 172, "note": 69, "velocity": 106, "channel": 0}, {"type": "note_off", "time": 1098, "note": 69, "velocity": 106, "channel": 0}, {"type": "note_on", "time": 137, "note": 67, "velocity": 107, "channel": 0}, {"type": "note_off", "time": 1068, "note": 67, "velocity": 107, "channel": 0}, {"type": "note_on", "time": 126, "note": 66, "velocity": 107, "channel": 0}, {"type": "note_off", "time": 1212, "note": 66, "velocity": 107, "channel": 0}, {"type": "note_on", "time": 168, "note": 64, "velocity": 109, "channel": 0}, {"type": "note_off", "time": 1224, "note": 64, "velocity": 109, "channel": 0}, {"type": "note_on", "time": 114, "note": 62, "velocity": 107, "channel": 0}, {"type": "note_off", "time": 1285, "note": 62, "velocity": 107, "channel": 0}, {"type": "note_on", "time": 223, "note": 61, "velocity": 111, "channel": 0}, {"type": "note_off", "time": 1255, "note": 61, "velocity": 111, "channel": 0}, {"type": "note_on", "time": 102, "note": 60, "velocity": 109, "channel": 0}, {"type": "note_off", "time": 808, "note": 60, "velocity": 109, "channel": 0}, {"type": "note_on", "time": 217, "note": 59, "velocity": 104, "channel": 0}, {"type": "note_off", "time": 1062, "note": 59, "velocity": 104, "channel": 0}, {"type": "note_on", "time": 132, "note": 57, "velocity": 99, "channel": 0}, {"type": "note_off", "time": 736, "note": 57, "velocity": 99, "channel": 0}, {"type": "note_on", "time": 211, "note": 55, "velocity": 102, "channel": 0}, {"type": "note_off", "time": 1828, "note": 55, "velocity": 102, "channel": 0}, {"type": "note_on", "time": 162, "note": 57, "velocity": 97, "channel": 0}, {"type": "note_off", "time": 1025, "note": 57, "velocity": 97, "channel": 0}, {"type": "note_on", "time": 408, "note": 60, "velocity": 100, "channel": 0}, {"type": "note_off", "time": 956, "note": 60, "velocity": 100, "channel": 0}, {"type": "note_on", "time": 175, "note": 65, "velocity": 113, "channel": 0}, {"type": "note_off", "time": 1220, "note": 65, "velocity": 113, "channel": 0}, {"type": "note_on", "time": 1266, "note": 63, "velocity": 120, "channel": 0}, {"type": "note_off", "time": 962, "note": 63, "velocity": 120, "channel": 0}, {"type": "note_on", "time": 222, "note": 65, "velocity": 106, "channel": 0}, {"type": "note_off", "time": 1061, "note": 65, "velocity": 106, "channel": 0}, {"type": "note_on", "time": 24, "note": 62, "velocity": 111, "channel": 0}, {"type": "note_off", "time": 802, "note": 62, "velocity": 111, "channel": 0}, {"type": "note_on", "time": 456, "note": 60, "velocity": 103, "channel": 0}, {"type": "note_off", "time": 765, "note": 60, "velocity": 103, "channel": 0}, {"type": "note_on", "time": 259, "note": 58, "velocity": 102, "channel": 0}, {"type": "note_off", "time": 789, "note": 58, "velocity": 102, "channel": 0}, {"type": "note_on", "time": 382, "note": 54, "velocity": 101, "channel": 0}, {"type": "note_off", "time": 1296, "note": 54, "velocity": 101, "channel": 0}, {"type": "note_on", "time": 333, "note": 53, "velocity": 102, "channel": 0}, {"type": "note_off", "time": 3381, "note": 53, "velocity": 102, "channel": 0}, {"type": "note_on", "time": 259, "note": 52, "velocity": 96, "channel": 0}, {"type": "note_off", "time": 2011, "note": 52, "velocity": 96, "channel": 0}, {"type": "note_on", "time": 162, "note": 50, "velocity": 75, "channel": 0}, {"type": "note_off", "time": 11445, "note": 50, "velocity": 75, "channel": 0}, {"type": "note_on", "time": 36097, "note": 62, "velocity": 119, "channel": 0}, {"type": "note_off", "time": 2629, "note": 62, "velocity": 119, "channel": 0}, {"type": "note_on", "time": 148, "note": 61, "velocity": 110, "channel": 0}, {"type": "note_off", "time": 2567, "note": 61, "velocity": 110, "channel": 0}, {"type": "note_on", "time": 493, "note": 60, "velocity": 108, "channel": 0}, {"type": "note_off", "time": 2345, "note": 60, "velocity": 108, "channel": 0}, {"type": "note_on", "time": 271, "note": 62, "velocity": 122, "channel": 0}, {"type": "note_off", "time": 1974, "note": 62, "velocity": 122, "channel": 0}, {"type": "note_on", "time": 814, "note": 59, "velocity": 100, "channel": 0}, {"type": "note_off", "time": 2061, "note": 59, "velocity": 100, "channel": 0}, {"type": "note_on", "time": 1888, "note": 62, "velocity": 119, "channel": 0}, {"type": "note_off", "time": 2567, "note": 62, "velocity": 119, "channel": 0}, {"type": "note_on", "time": 1110, "note": 67, "velocity": 113, "channel": 0}, {"type": "note_off", "time": 2197, "note": 67, "velocity": 113, "channel": 0}, {"type": "note_on", "time": 2061, "note": 70, "velocity": 120, "channel": 0}, {"type": "note_off", "time": 1888, "note": 70, "velocity": 120, "channel": 0}, {"type": "note_on", "time": 37, "note": 71, "velocity": 112, "channel": 0}, {"type": "note_off", "time": 2172, "note": 71, "velocity": 112, "channel": 0}, {"type": "note_on", "time": 123, "note": 70, "velocity": 113, "channel": 0}, {"type": "note_off", "time": 2949, "note": 70, "velocity": 113, "channel": 0}, {"type": "note_on", "time": 1036, "note": 69, "velocity": 83, "channel": 0}, {"type": "note_off", "time": 19847, "note": 69, "velocity": 83, "channel": 0}, {"type": "note_on", "time": 21427, "note": 69, "velocity": 119, "channel": 0}, {"type": "note_off", "time": 1481, "note": 69, "velocity": 119, "channel": 0}, {"type": "note_on", "time": 222, "note": 72, "velocity": 112, "channel": 0}, {"type": "note_off", "time": 1555, "note": 72, "velocity": 112, "channel": 0}, {"type": "note_on", "time": 1382, "note": 66, "velocity": 115, "channel": 0}, {"type": "note_off", "time": 1777, "note": 66, "velocity": 115, "channel": 0}, {"type": "note_on", "time": 271, "note": 69, "velocity": 111, "channel": 0}, {"type": "note_off", "time": 1184, "note": 69, "velocity": 111, "channel": 0}, {"type": "note_on", "time": 1653, "note": 63, "velocity": 123, "channel": 0}, {"type": "note_off", "time": 1703, "note": 63, "velocity": 123, "channel": 0}, {"type": "note_on", "time": 148, "note": 66, "velocity": 104, "channel": 0}, {"type": "note_off", "time": 938, "note": 66, "velocity": 104, "channel": 0}, {"type": "note_on", "time": 1653, "note": 60, "velocity": 115, "channel": 0}, {"type": "note_off", "time": 1851, "note": 60, "velocity": 115, "channel": 0}, {"type": "note_on", "time": 197, "note": 63, "velocity": 107, "channel": 0}, {"type": "note_off", "time": 938, "note": 63, "velocity": 107, "channel": 0}, {"type": "note_on", "time": 1826, "note": 57, "velocity": 107, "channel": 0}, {"type": "note_off", "time": 1407, "note": 57, "velocity": 107, "channel": 0}, {"type": "note_on", "time": 320, "note": 60, "velocity": 114, "channel": 0}, {"type": "note_off", "time": 1431, "note": 60, "velocity": 114, "channel": 0}, {"type": "note_on", "time": 1777, "note": 54, "velocity": 109, "channel": 0}, {"type": "note_off", "time": 1678, "note": 54, "velocity": 109, "channel": 0}, {"type": "note_on", "time": 345, "note": 57, "velocity": 102, "channel": 0}, {"type": "note_off", "time": 1110, "note": 57, "velocity": 102, "channel": 0}, {"type": "note_on", "time": 1752, "note": 51, "velocity": 103, "channel": 0}, {"type": "note_off", "time": 1579, "note": 51, "velocity": 103, "channel": 0}, {"type": "note_on", "time": 394, "note": 54, "velocity": 104, "channel": 0}, {"type": "note_off", "time": 1283, "note": 54, "velocity": 104, "channel": 0}, {"type": "note_on", "time": 2295, "note": 57, "velocity": 108, "channel": 0}, {"type": "note_off", "time": 1604, "note": 57, "velocity": 108, "channel": 0}, {"type": "note_on", "time": 148, "note": 63, "velocity": 113, "channel": 0}, {"type": "note_off", "time": 1234, "note": 63, "velocity": 113, "channel": 0}, {"type": "note_on", "time": 2542, "note": 59, "velocity": 85, "channel": 0}, {"type": "note_off", "time": 9084, "note": 59, "velocity": 85, "channel": 0}, {"type": "note_on", "time": 10985, "note": 55, "velocity": 106, "channel": 0}, {"type": "note_off", "time": 1592, "note": 55, "velocity": 106, "channel": 0}, {"type": "note_on", "time": 209, "note": 59, "velocity": 107, "channel": 0}, {"type": "note_off", "time": 1283, "note": 59, "velocity": 107, "channel": 0}, {"type": "note_on", "time": 160, "note": 62, "velocity": 118, "channel": 0}, {"type": "note_off", "time": 1789, "note": 62, "velocity": 118, "channel": 0}, {"type": "note_on", "time": 1382, "note": 67, "velocity": 115, "channel": 0}, {"type": "note_off", "time": 1851, "note": 67, "velocity": 115, "channel": 0}, {"type": "note_on", "time": 1789, "note": 67, "velocity": 114, "channel": 0}, {"type": "note_off", "time": 1814, "note": 67, "velocity": 114, "channel": 0}, {"type": "note_on", "time": 1777, "note": 71, "velocity": 120, "channel": 0}, {"type": "note_off", "time": 3480, "note": 71, "velocity": 120, "channel": 0}, {"type": "note_on", "time": 345, "note": 67, "velocity": 111, "channel": 0}, {"type": "note_off", "time": 1728, "note": 67, "velocity": 111, "channel": 0}, {"type": "note_on", "time": 12623, "note": 67, "velocity": 113, "channel": 0}, {"type": "note_off", "time": 1483, "note": 67, "velocity": 113, "channel": 0}, {"type": "note_on", "time": 105, "note": 69, "velocity": 112, "channel": 0}, {"type": "note_off", "time": 605, "note": 69, "velocity": 112, "channel": 0}, {"type": "note_on", "time": 78, "note": 71, "velocity": 114, "channel": 0}, {"type": "note_off", "time": 1325, "note": 71, "velocity": 114, "channel": 0}, {"type": "note_on", "time": 157, "note": 67, "velocity": 106, "channel": 0}, {"type": "note_off", "time": 1184, "note": 67, "velocity": 106, "channel": 0}, {"type": "note_on", "time": 105, "note": 69, "velocity": 114, "channel": 0}, {"type": "note_off", "time": 1044, "note": 69, "velocity": 114, "channel": 0}, {"type": "note_on", "time": 157, "note": 67, "velocity": 111, "channel": 0}, {"type": "note_off", "time": 719, "note": 67, "velocity": 111, "channel": 0}, {"type": "note_on", "time": 105, "note": 64, "velocity": 112, "channel": 0}, {"type": "note_off", "time": 1369, "note": 64, "velocity": 112, "channel": 0}, {"type": "note_on", "time": 149, "note": 59, "velocity": 101, "channel": 0}, {"type": "note_off", "time": 772, "note": 59, "velocity": 101, "channel": 0}, {"type": "note_on", "time": 315, "note": 66, "velocity": 110, "channel": 0}, {"type": "note_off", "time": 1176, "note": 66, "velocity": 110, "channel": 0}, {"type": "note_on", "time": 166, "note": 64, "velocity": 114, "channel": 0}, {"type": "note_off", "time": 912, "note": 64, "velocity": 114, "channel": 0}, {"type": "note_on", "time": 140, "note": 62, "velocity": 114, "channel": 0}, {"type": "note_off", "time": 1220, "note": 62, "velocity": 114, "channel": 0}, {"type": "note_on", "time": 280, "note": 61, "velocity": 117, "channel": 0}, {"type": "note_off", "time": 1211, "note": 61, "velocity": 117, "channel": 0}, {"type": "note_on", "time": 210, "note": 60, "velocity": 110, "channel": 0}, {"type": "note_off", "time": 947, "note": 60, "velocity": 110, "channel": 0}, {"type": "note_on", "time": 2229, "note": 59, "velocity": 108, "channel": 0}, {"type": "note_off", "time": 1026, "note": 59, "velocity": 108, "channel": 0}, {"type": "note_on", "time": 166, "note": 58, "velocity": 107, "channel": 0}, {"type": "note_off", "time": 1255, "note": 58, "velocity": 107, "channel": 0}, {"type": "note_on", "time": 3484, "note": 57, "velocity": 98, "channel": 0}, {"type": "note_off", "time": 4862, "note": 57, "velocity": 98, "channel": 0}, {"type": "note_on", "time": 8293, "note": 57, "velocity": 109, "channel": 0}, {"type": "note_off", "time": 1308, "note": 57, "velocity": 109, "channel": 0}, {"type": "note_on", "time": 123, "note": 55, "velocity": 105, "channel": 0}, {"type": "note_off", "time": 752, "note": 55, "velocity": 105, "channel": 0}, {"type": "note_on", "time": 172, "note": 54, "velocity": 102, "channel": 0}, {"type": "note_off", "time": 1036, "note": 54, "velocity": 102, "channel": 0}, {"type": "note_on", "time": 172, "note": 55, "velocity": 97, "channel": 0}, {"type": "note_off", "time": 913, "note": 55, "velocity": 97, "channel": 0}, {"type": "note_on", "time": 185, "note": 57, "velocity": 97, "channel": 0}, {"type": "note_off", "time": 691, "note": 57, "velocity": 97, "channel": 0}, {"type": "note_on", "time": 394, "note": 61, "velocity": 98, "channel": 0}, {"type": "note_off", "time": 1049, "note": 61, "velocity": 98, "channel": 0}, {"type": "note_on", "time": 175, "note": 66, "velocity": 114, "channel": 0}, {"type": "note_off", "time": 1532, "note": 66, "velocity": 114, "channel": 0}, {"type": "note_on", "time": 7141, "note": 63, "velocity": 121, "channel": 0}, {"type": "note_off", "time": 1299, "note": 63, "velocity": 121, "channel": 0}, {"type": "note_on", "time": 87, "note": 66, "velocity": 112, "channel": 0}, {"type": "note_off", "time": 974, "note": 66, "velocity": 112, "channel": 0}, {"type": "note_on", "time": 166, "note": 64, "velocity": 113, "channel": 0}, {"type": "note_off", "time": 974, "note": 64, "velocity": 113, "channel": 0}, {"type": "note_on", "time": 140, "note": 62, "velocity": 114, "channel": 0}, {"type": "note_off", "time": 833, "note": 62, "velocity": 114, "channel": 0}, {"type": "note_on", "time": 245, "note": 61, "velocity": 109, "channel": 0}, {"type": "note_off", "time": 860, "note": 61, "velocity": 109, "channel": 0}, {"type": "note_on", "time": 114, "note": 59, "velocity": 107, "channel": 0}, {"type": "note_off", "time": 1044, "note": 59, "velocity": 107, "channel": 0}, {"type": "note_on", "time": 263, "note": 57, "velocity": 102, "channel": 0}, {"type": "note_off", "time": 947, "note": 57, "velocity": 102, "channel": 0}, {"type": "note_on", "time": 245, "note": 56, "velocity": 102, "channel": 0}, {"type": "note_off", "time": 719, "note": 56, "velocity": 102, "channel": 0}, {"type": "note_on", "time": 149, "note": 55, "velocity": 104, "channel": 0}, {"type": "note_off", "time": 851, "note": 55, "velocity": 104, "channel": 0}, {"type": "note_on", "time": 175, "note": 57, "velocity": 105, "channel": 0}, {"type": "note_off", "time": 974, "note": 57, "velocity": 105, "channel": 0}, {"type": "note_on", "time": 131, "note": 54, "velocity": 104, "channel": 0}, {"type": "note_off", "time": 860, "note": 54, "velocity": 104, "channel": 0}, {"type": "note_on", "time": 193, "note": 51, "velocity": 86, "channel": 0}, {"type": "note_off", "time": 728, "note": 51, "velocity": 86, "channel": 0}, {"type": "note_on", "time": 298, "note": 54, "velocity": 105, "channel": 0}, {"type": "note_off", "time": 1299, "note": 54, "velocity": 105, "channel": 0}, {"type": "note_on", "time": 262, "note": 51, "velocity": 98, "channel": 0}, {"type": "note_off", "time": 808, "note": 51, "velocity": 98, "channel": 0}, {"type": "note_on", "time": 712, "note": 52, "velocity": 99, "channel": 0}, {"type": "note_off", "time": 693, "note": 52, "velocity": 99, "channel": 0}, {"type": "note_on", "time": 147, "note": 54, "velocity": 105, "channel": 0}, {"type": "note_off", "time": 1202, "note": 54, "velocity": 105, "channel": 0}, {"type": "note_on", "time": 228, "note": 55, "velocity": 102, "channel": 0}, {"type": "note_off", "time": 895, "note": 55, "velocity": 102, "channel": 0}, {"type": "note_on", "time": 289, "note": 57, "velocity": 102, "channel": 0}, {"type": "note_off", "time": 675, "note": 57, "velocity": 102, "channel": 0}, {"type": "note_on", "time": 229, "note": 59, "velocity": 102, "channel": 0}, {"type": "note_off", "time": 864, "note": 59, "velocity": 102, "channel": 0}, {"type": "note_on", "time": 283, "note": 62, "velocity": 114, "channel": 0}, {"type": "note_off", "time": 1221, "note": 62, "velocity": 114, "channel": 0}, {"type": "note_on", "time": 222, "note": 61, "velocity": 108, "channel": 0}, {"type": "note_off", "time": 839, "note": 61, "velocity": 108, "channel": 0}, {"type": "note_on", "time": 99, "note": 59, "velocity": 104, "channel": 0}, {"type": "note_off", "time": 1134, "note": 59, "velocity": 104, "channel": 0}, {"type": "note_on", "time": 235, "note": 57, "velocity": 102, "channel": 0}, {"type": "note_off", "time": 1098, "note": 57, "velocity": 102, "channel": 0}, {"type": "note_on", "time": 749, "note": 56, "velocity": 96, "channel": 0}, {"type": "note_off", "time": 1465, "note": 56, "velocity": 96, "channel": 0}, {"type": "note_on", "time": 264, "note": 59, "velocity": 95, "channel": 0}, {"type": "note_off", "time": 864, "note": 59, "velocity": 95, "channel": 0}, {"type": "note_on", "time": 320, "note": 66, "velocity": 110, "channel": 0}, {"type": "note_off", "time": 1678, "note": 66, "velocity": 110, "channel": 0}, {"type": "note_on", "time": 2240, "note": 66, "velocity": 111, "channel": 0}, {"type": "note_off", "time": 995, "note": 66, "velocity": 111, "channel": 0}, {"type": "note_on", "time": 114, "note": 67, "velocity": 105, "channel": 0}, {"type": "note_off", "time": 1333, "note": 67, "velocity": 105, "channel": 0}, {"type": "note_on", "time": 94, "note": 69, "velocity": 108, "channel": 0}, {"type": "note_off", "time": 1188, "note": 69, "velocity": 108, "channel": 0}, {"type": "note_on", "time": 381, "note": 74, "velocity": 109, "channel": 0}, {"type": "note_off", "time": 1303, "note": 74, "velocity": 109, "channel": 0}, {"type": "note_on", "time": 144, "note": 73, "velocity": 113, "channel": 0}, {"type": "note_off", "time": 947, "note": 73, "velocity": 113, "channel": 0}, {"type": "note_on", "time": 102, "note": 72, "velocity": 111, "channel": 0}, {"type": "note_off", "time": 597, "note": 72, "velocity": 111, "channel": 0}, {"type": "note_on", "time": 120, "note": 71, "velocity": 111, "channel": 0}, {"type": "note_off", "time": 887, "note": 71, "velocity": 111, "channel": 0}, {"type": "note_on", "time": 102, "note": 69, "velocity": 110, "channel": 0}, {"type": "note_off", "time": 681, "note": 69, "velocity": 110, "channel": 0}, {"type": "note_on", "time": 108, "note": 68, "velocity": 111, "channel": 0}, {"type": "note_off", "time": 796, "note": 68, "velocity": 111, "channel": 0}, {"type": "note_on", "time": 307, "note": 66, "velocity": 112, "channel": 0}, {"type": "note_off", "time": 742, "note": 66, "velocity": 112, "channel": 0}, {"type": "note_on", "time": 30, "note": 64, "velocity": 115, "channel": 0}, {"type": "note_off", "time": 539, "note": 64, "velocity": 115, "channel": 0}, {"type": "note_on", "time": 74, "note": 62, "velocity": 111, "channel": 0}, {"type": "note_off", "time": 702, "note": 62, "velocity": 111, "channel": 0}, {"type": "note_on", "time": 105, "note": 61, "velocity": 104, "channel": 0}, {"type": "note_off", "time": 627, "note": 61, "velocity": 104, "channel": 0}, {"type": "note_on", "time": 228, "note": 59, "velocity": 96, "channel": 0}, {"type": "note_off", "time": 785, "note": 59, "velocity": 96, "channel": 0}, {"type": "note_on", "time": 74, "note": 57, "velocity": 94, "channel": 0}, {"type": "note_off", "time": 487, "note": 57, "velocity": 94, "channel": 0}, {"type": "note_on", "time": 105, "note": 55, "velocity": 107, "channel": 0}, {"type": "note_off", "time": 693, "note": 55, "velocity": 107, "channel": 0}, {"type": "note_on", "time": 105, "note": 54, "velocity": 105, "channel": 0}, {"type": "note_off", "time": 574, "note": 54, "velocity": 105, "channel": 0}, {"type": "note_on", "time": 87, "note": 52, "velocity": 98, "channel": 0}, {"type": "note_off", "time": 1062, "note": 52, "velocity": 98, "channel": 0}, {"type": "note_on", "time": 495, "note": 51, "velocity": 98, "channel": 0}, {"type": "note_off", "time": 811, "note": 51, "velocity": 98, "channel": 0}, {"type": "note_on", "time": 11985, "note": 57, "velocity": 109, "channel": 0}, {"type": "note_off", "time": 1283, "note": 57, "velocity": 109, "channel": 0}, {"type": "note_on", "time": 469, "note": 62, "velocity": 119, "channel": 0}, {"type": "note_off", "time": 1728, "note": 62, "velocity": 119, "channel": 0}, {"type": "note_on", "time": 839, "note": 57, "velocity": 95, "channel": 0}, {"type": "note_off", "time": 567, "note": 57, "velocity": 95, "channel": 0}, {"type": "note_on", "time": 111, "note": 64, "velocity": 120, "channel": 0}, {"type": "note_off", "time": 1900, "note": 64, "velocity": 120, "channel": 0}, {"type": "note_on", "time": 918, "note": 57, "velocity": 94, "channel": 0}, {"type": "note_off", "time": 965, "note": 57, "velocity": 94, "channel": 0}, {"type": "note_on", "time": 150, "note": 66, "velocity": 112, "channel": 0}, {"type": "note_off", "time": 1430, "note": 66, "velocity": 112, "channel": 0}, {"type": "note_on", "time": 114, "note": 69, "velocity": 114, "channel": 0}, {"type": "note_off", "time": 736, "note": 69, "velocity": 114, "channel": 0}, {"type": "note_on", "time": 60, "note": 66, "velocity": 110, "channel": 0}, {"type": "note_off", "time": 736, "note": 66, "velocity": 110, "channel": 0}, {"type": "note_on", "time": 96, "note": 69, "velocity": 106, "channel": 0}, {"type": "note_off", "time": 712, "note": 69, "velocity": 106, "channel": 0}, {"type": "note_on", "time": 144, "note": 66, "velocity": 107, "channel": 0}, {"type": "note_off", "time": 887, "note": 66, "velocity": 107, "channel": 0}, {"type": "note_on", "time": 138, "note": 69, "velocity": 99, "channel": 0}, {"type": "note_off", "time": 500, "note": 69, "velocity": 99, "channel": 0}, {"type": "note_on", "time": 78, "note": 66, "velocity": 107, "channel": 0}, {"type": "note_off", "time": 959, "note": 66, "velocity": 107, "channel": 0}, {"type": "note_on", "time": 90, "note": 69, "velocity": 102, "channel": 0}, {"type": "note_off", "time": 693, "note": 69, "velocity": 102, "channel": 0}, {"type": "note_on", "time": 126, "note": 66, "velocity": 109, "channel": 0}, {"type": "note_off", "time": 983, "note": 66, "velocity": 109, "channel": 0}, {"type": "note_on", "time": 120, "note": 69, "velocity": 99, "channel": 0}, {"type": "note_off", "time": 597, "note": 69, "velocity": 99, "channel": 0}, {"type": "note_on", "time": 54, "note": 66, "velocity": 103, "channel": 0}, {"type": "note_off", "time": 983, "note": 66, "velocity": 103, "channel": 0}, {"type": "note_on", "time": 126, "note": 69, "velocity": 98, "channel": 0}, {"type": "note_off", "time": 331, "note": 69, "velocity": 98, "channel": 0}, {"type": "note_on", "time": 247, "note": 66, "velocity": 105, "channel": 0}, {"type": "note_off", "time": 971, "note": 66, "velocity": 105, "channel": 0}, {"type": "note_on", "time": 138, "note": 69, "velocity": 99, "channel": 0}, {"type": "note_off", "time": 476, "note": 69, "velocity": 99, "channel": 0}, {"type": "note_on", "time": 108, "note": 66, "velocity": 101, "channel": 0}, {"type": "note_off", "time": 893, "note": 66, "velocity": 101, "channel": 0}, {"type": "note_on", "time": 120, "note": 69, "velocity": 96, "channel": 0}, {"type": "note_off", "time": 736, "note": 69, "velocity": 96, "channel": 0}, {"type": "note_on", "time": 66, "note": 66, "velocity": 101, "channel": 0}, {"type": "note_off", "time": 911, "note": 66, "velocity": 101, "channel": 0}, {"type": "note_on", "time": 150, "note": 69, "velocity": 93, "channel": 0}, {"type": "note_off", "time": 633, "note": 69, "velocity": 93, "channel": 0}, {"type": "note_on", "time": 138, "note": 66, "velocity": 96, "channel": 0}, {"type": "note_off", "time": 911, "note": 66, "velocity": 96, "channel": 0}, {"type": "note_on", "time": 181, "note": 69, "velocity": 90, "channel": 0}, {"type": "note_off", "time": 512, "note": 69, "velocity": 90, "channel": 0}, {"type": "note_on", "time": 126, "note": 66, "velocity": 88, "channel": 0}, {"type": "note_off", "time": 543, "note": 66, "velocity": 88, "channel": 0}, {"type": "note_on", "time": 151, "note": 69, "velocity": 83, "channel": 0}, {"type": "note_off", "time": 407, "note": 69, "velocity": 83, "channel": 0}, {"type": "note_on", "time": 146, "note": 66, "velocity": 95, "channel": 0}, {"type": "note_off", "time": 893, "note": 66, "velocity": 95, "channel": 0}, {"type": "note_on", "time": 11346, "note": 68, "velocity": 100, "channel": 0}, {"type": "note_off", "time": 671, "note": 68, "velocity": 100, "channel": 0}, {"type": "note_on", "time": 114, "note": 66, "velocity": 113, "channel": 0}, {"type": "note_off", "time": 741, "note": 66, "velocity": 113, "channel": 0}, {"type": "note_on", "time": 52, "note": 69, "velocity": 115, "channel": 0}, {"type": "note_off", "time": 807, "note": 69, "velocity": 115, "channel": 0}, {"type": "note_on", "time": 91, "note": 66, "velocity": 113, "channel": 0}, {"type": "note_off", "time": 718, "note": 66, "velocity": 113, "channel": 0}, {"type": "note_on", "time": 132, "note": 69, "velocity": 111, "channel": 0}, {"type": "note_off", "time": 814, "note": 69, "velocity": 111, "channel": 0}, {"type": "note_on", "time": 114, "note": 66, "velocity": 113, "channel": 0}, {"type": "note_off", "time": 887, "note": 66, "velocity": 113, "channel": 0}, {"type": "note_on", "time": 96, "note": 69, "velocity": 108, "channel": 0}, {"type": "note_off", "time": 742, "note": 69, "velocity": 108, "channel": 0}, {"type": "note_on", "time": 48, "note": 66, "velocity": 107, "channel": 0}, {"type": "note_off", "time": 736, "note": 66, "velocity": 107, "channel": 0}, {"type": "note_on", "time": 90, "note": 69, "velocity": 105, "channel": 0}, {"type": "note_off", "time": 838, "note": 69, "velocity": 105, "channel": 0}, {"type": "note_on", "time": 84, "note": 66, "velocity": 100, "channel": 0}, {"type": "note_off", "time": 718, "note": 66, "velocity": 100, "channel": 0}, {"type": "note_on", "time": 102, "note": 69, "velocity": 102, "channel": 0}, {"type": "note_off", "time": 687, "note": 69, "velocity": 102, "channel": 0}, {"type": "note_on", "time": 96, "note": 66, "velocity": 107, "channel": 0}, {"type": "note_off", "time": 959, "note": 66, "velocity": 107, "channel": 0}, {"type": "note_on", "time": 75, "note": 69, "velocity": 98, "channel": 0}, {"type": "note_off", "time": 522, "note": 69, "velocity": 98, "channel": 0}, {"type": "note_on", "time": 59, "note": 66, "velocity": 106, "channel": 0}, {"type": "note_off", "time": 1261, "note": 66, "velocity": 106, "channel": 0}, {"type": "note_on", "time": 138, "note": 67, "velocity": 111, "channel": 0}, {"type": "note_off", "time": 754, "note": 67, "velocity": 111, "channel": 0}, {"type": "note_on", "time": 144, "note": 64, "velocity": 117, "channel": 0}, {"type": "note_off", "time": 965, "note": 64, "velocity": 117, "channel": 0}, {"type": "note_on", "time": 108, "note": 67, "velocity": 107, "channel": 0}, {"type": "note_off", "time": 573, "note": 67, "velocity": 107, "channel": 0}, {"type": "note_on", "time": 162, "note": 64, "velocity": 113, "channel": 0}, {"type": "note_off", "time": 742, "note": 64, "velocity": 113, "channel": 0}, {"type": "note_on", "time": 96, "note": 67, "velocity": 108, "channel": 0}, {"type": "note_off", "time": 790, "note": 67, "velocity": 108, "channel": 0}, {"type": "note_on", "time": 90, "note": 64, "velocity": 113, "channel": 0}, {"type": "note_off", "time": 1134, "note": 64, "velocity": 113, "channel": 0}, {"type": "note_on", "time": 114, "note": 67, "velocity": 104, "channel": 0}, {"type": "note_off", "time": 663, "note": 67, "velocity": 104, "channel": 0}, {"type": "note_on", "time": 78, "note": 64, "velocity": 108, "channel": 0}, {"type": "note_off", "time": 893, "note": 64, "velocity": 108, "channel": 0}, {"type": "note_on", "time": 78, "note": 67, "velocity": 106, "channel": 0}, {"type": "note_off", "time": 687, "note": 67, "velocity": 106, "channel": 0}, {"type": "note_on", "time": 168, "note": 64, "velocity": 115, "channel": 0}, {"type": "note_off", "time": 1013, "note": 64, "velocity": 115, "channel": 0}, {"type": "note_on", "time": 114, "note": 67, "velocity": 105, "channel": 0}, {"type": "note_off", "time": 651, "note": 67, "velocity": 105, "channel": 0}, {"type": "note_on", "time": 96, "note": 64, "velocity": 107, "channel": 0}, {"type": "note_off", "time": 802, "note": 64, "velocity": 107, "channel": 0}, {"type": "note_on", "time": 132, "note": 67, "velocity": 100, "channel": 0}, {"type": "note_off", "time": 1677, "note": 67, "velocity": 100, "channel": 0}, {"type": "note_on", "time": 162, "note": 64, "velocity": 105, "channel": 0}, {"type": "note_off", "time": 591, "note": 64, "velocity": 105, "channel": 0}, {"type": "note_on", "time": 126, "note": 66, "velocity": 110, "channel": 0}, {"type": "note_off", "time": 941, "note": 66, "velocity": 110, "channel": 0}, {"type": "note_on", "time": 147, "note": 62, "velocity": 111, "channel": 0}, {"type": "note_off", "time": 702, "note": 62, "velocity": 111, "channel": 0}, {"type": "note_on", "time": 114, "note": 66, "velocity": 106, "channel": 0}, {"type": "note_off", "time": 746, "note": 66, "velocity": 106, "channel": 0}, {"type": "note_on", "time": 96, "note": 62, "velocity": 108, "channel": 0}, {"type": "note_off", "time": 509, "note": 62, "velocity": 108, "channel": 0}, {"type": "note_on", "time": 70, "note": 66, "velocity": 109, "channel": 0}, {"type": "note_off", "time": 789, "note": 66, "velocity": 109, "channel": 0}, {"type": "note_on", "time": 92, "note": 62, "velocity": 110, "channel": 0}, {"type": "note_off", "time": 675, "note": 62, "velocity": 110, "channel": 0}, {"type": "note_on", "time": 184, "note": 66, "velocity": 105, "channel": 0}, {"type": "note_off", "time": 561, "note": 66, "velocity": 105, "channel": 0}, {"type": "note_on", "time": 92, "note": 62, "velocity": 107, "channel": 0}, {"type": "note_off", "time": 974, "note": 62, "velocity": 107, "channel": 0}, {"type": "note_on", "time": 588, "note": 62, "velocity": 103, "channel": 0}, {"type": "note_off", "time": 838, "note": 62, "velocity": 103, "channel": 0}, {"type": "note_on", "time": 3474, "note": 64, "velocity": 115, "channel": 0}, {"type": "note_off", "time": 1146, "note": 64, "velocity": 115, "channel": 0}, {"type": "note_on", "time": 174, "note": 60, "velocity": 114, "channel": 0}, {"type": "note_off", "time": 826, "note": 60, "velocity": 114, "channel": 0}, {"type": "note_on", "time": 48, "note": 64, "velocity": 115, "channel": 0}, {"type": "note_off", "time": 742, "note": 64, "velocity": 115, "channel": 0}, {"type": "note_on", "time": 78, "note": 60, "velocity": 110, "channel": 0}, {"type": "note_off", "time": 1049, "note": 60, "velocity": 110, "channel": 0}, {"type": "note_on", "time": 60, "note": 64, "velocity": 107, "channel": 0}, {"type": "note_off", "time": 543, "note": 64, "velocity": 107, "channel": 0}, {"type": "note_on", "time": 90, "note": 60, "velocity": 106, "channel": 0}, {"type": "note_off", "time": 947, "note": 60, "velocity": 106, "channel": 0}, {"type": "note_on", "time": 174, "note": 64, "velocity": 114, "channel": 0}, {"type": "note_off", "time": 881, "note": 64, "velocity": 114, "channel": 0}, {"type": "note_on", "time": 114, "note": 60, "velocity": 109, "channel": 0}, {"type": "note_off", "time": 971, "note": 60, "velocity": 109, "channel": 0}, {"type": "note_on", "time": 132, "note": 64, "velocity": 112, "channel": 0}, {"type": "note_off", "time": 796, "note": 64, "velocity": 112, "channel": 0}, {"type": "note_on", "time": 162, "note": 60, "velocity": 108, "channel": 0}, {"type": "note_off", "time": 862, "note": 60, "velocity": 108, "channel": 0}, {"type": "note_on", "time": 84, "note": 64, "velocity": 113, "channel": 0}, {"type": "note_off", "time": 947, "note": 64, "velocity": 113, "channel": 0}, {"type": "note_on", "time": 72, "note": 60, "velocity": 110, "channel": 0}, {"type": "note_off", "time": 730, "note": 60, "velocity": 110, "channel": 0}, {"type": "note_on", "time": 78, "note": 64, "velocity": 111, "channel": 0}, {"type": "note_off", "time": 893, "note": 64, "velocity": 111, "channel": 0}, {"type": "note_on", "time": 108, "note": 60, "velocity": 108, "channel": 0}, {"type": "note_off", "time": 748, "note": 60, "velocity": 108, "channel": 0}, {"type": "note_on", "time": 102, "note": 64, "velocity": 113, "channel": 0}, {"type": "note_off", "time": 917, "note": 64, "velocity": 113, "channel": 0}, {"type": "note_on", "time": 150, "note": 60, "velocity": 106, "channel": 0}, {"type": "note_off", "time": 645, "note": 60, "velocity": 106, "channel": 0}, {"type": "note_on", "time": 229, "note": 64, "velocity": 111, "channel": 0}, {"type": "note_off", "time": 905, "note": 64, "velocity": 111, "channel": 0}, {"type": "note_on", "time": 138, "note": 60, "velocity": 107, "channel": 0}, {"type": "note_off", "time": 832, "note": 60, "velocity": 107, "channel": 0}, {"type": "note_on", "time": 78, "note": 64, "velocity": 110, "channel": 0}, {"type": "note_off", "time": 1273, "note": 64, "velocity": 110, "channel": 0}, {"type": "note_on", "time": 126, "note": 60, "velocity": 100, "channel": 0}, {"type": "note_off", "time": 615, "note": 60, "velocity": 100, "channel": 0}, {"type": "note_on", "time": 60, "note": 64, "velocity": 100, "channel": 0}, {"type": "note_off", "time": 899, "note": 64, "velocity": 100, "channel": 0}, {"type": "note_on", "time": 96, "note": 60, "velocity": 103, "channel": 0}, {"type": "note_off", "time": 1924, "note": 60, "velocity": 103, "channel": 0}, {"type": "note_on", "time": 11730, "note": 62, "velocity": 111, "channel": 0}, {"type": "note_off", "time": 826, "note": 62, "velocity": 111, "channel": 0}, {"type": "note_on", "time": 90, "note": 59, "velocity": 112, "channel": 0}, {"type": "note_off", "time": 923, "note": 59, "velocity": 112, "channel": 0}, {"type": "note_on", "time": 96, "note": 62, "velocity": 115, "channel": 0}, {"type": "note_off", "time": 627, "note": 62, "velocity": 115, "channel": 0}, {"type": "note_on", "time": 102, "note": 59, "velocity": 111, "channel": 0}, {"type": "note_off", "time": 1001, "note": 59, "velocity": 111, "channel": 0}, {"type": "note_on", "time": 120, "note": 62, "velocity": 114, "channel": 0}, {"type": "note_off", "time": 820, "note": 62, "velocity": 114, "channel": 0}, {"type": "note_on", "time": 72, "note": 59, "velocity": 110, "channel": 0}, {"type": "note_off", "time": 1007, "note": 59, "velocity": 110, "channel": 0}, {"type": "note_on", "time": 205, "note": 62, "velocity": 98, "channel": 0}, {"type": "note_off", "time": 428, "note": 62, "velocity": 98, "channel": 0}, {"type": "note_on", "time": 168, "note": 59, "velocity": 112, "channel": 0}, {"type": "note_off", "time": 1031, "note": 59, "velocity": 112, "channel": 0}, {"type": "note_on", "time": 181, "note": 62, "velocity": 107, "channel": 0}, {"type": "note_off", "time": 675, "note": 62, "velocity": 107, "channel": 0}, {"type": "note_on", "time": 120, "note": 59, "velocity": 111, "channel": 0}, {"type": "note_off", "time": 1025, "note": 59, "velocity": 111, "channel": 0}, {"type": "note_on", "time": 193, "note": 62, "velocity": 109, "channel": 0}, {"type": "note_off", "time": 669, "note": 62, "velocity": 109, "channel": 0}, {"type": "note_on", "time": 102, "note": 59, "velocity": 109, "channel": 0}, {"type": "note_off", "time": 1068, "note": 59, "velocity": 109, "channel": 0}, {"type": "note_on", "time": 271, "note": 62, "velocity": 108, "channel": 0}, {"type": "note_off", "time": 748, "note": 62, "velocity": 108, "channel": 0}, {"type": "note_on", "time": 48, "note": 59, "velocity": 106, "channel": 0}, {"type": "note_off", "time": 669, "note": 59, "velocity": 106, "channel": 0}, {"type": "note_on", "time": 546, "note": 62, "velocity": 10, "channel": 0}, {"type": "note_off", "time": 778, "note": 62, "velocity": 10, "channel": 0}, {"type": "note_on", "time": 187, "note": 58, "velocity": 42, "channel": 0}, {"type": "note_off", "time": 939, "note": 58, "velocity": 42, "channel": 0}, {"type": "note_on", "time": 197, "note": 62, "velocity": 107, "channel": 0}, {"type": "note_off", "time": 908, "note": 62, "velocity": 107, "channel": 0}, {"type": "note_on", "time": 61, "note": 58, "velocity": 104, "channel": 0}, {"type": "note_off", "time": 1105, "note": 58, "velocity": 104, "channel": 0}, {"type": "note_on", "time": 114, "note": 62, "velocity": 104, "channel": 0}, {"type": "note_off", "time": 855, "note": 62, "velocity": 104, "channel": 0}, {"type": "note_on", "time": 100, "note": 58, "velocity": 108, "channel": 0}, {"type": "note_off", "time": 789, "note": 58, "velocity": 108, "channel": 0}, {"type": "note_on", "time": 353, "note": 62, "velocity": 104, "channel": 0}, {"type": "note_off", "time": 959, "note": 62, "velocity": 104, "channel": 0}, {"type": "note_on", "time": 162, "note": 58, "velocity": 105, "channel": 0}, {"type": "note_off", "time": 802, "note": 58, "velocity": 105, "channel": 0}, {"type": "note_on", "time": 217, "note": 62, "velocity": 108, "channel": 0}, {"type": "note_off", "time": 893, "note": 62, "velocity": 108, "channel": 0}, {"type": "note_on", "time": 84, "note": 58, "velocity": 107, "channel": 0}, {"type": "note_off", "time": 802, "note": 58, "velocity": 107, "channel": 0}, {"type": "note_on", "time": 102, "note": 62, "velocity": 109, "channel": 0}, {"type": "note_off", "time": 1019, "note": 62, "velocity": 109, "channel": 0}, {"type": "note_on", "time": 120, "note": 58, "velocity": 103, "channel": 0}, {"type": "note_off", "time": 1031, "note": 58, "velocity": 103, "channel": 0}, {"type": "note_on", "time": 96, "note": 62, "velocity": 109, "channel": 0}, {"type": "note_off", "time": 790, "note": 62, "velocity": 109, "channel": 0}, {"type": "note_on", "time": 138, "note": 58, "velocity": 108, "channel": 0}, {"type": "note_off", "time": 977, "note": 58, "velocity": 108, "channel": 0}, {"type": "note_on", "time": 90, "note": 62, "velocity": 105, "channel": 0}, {"type": "note_off", "time": 808, "note": 62, "velocity": 105, "channel": 0}, {"type": "note_on", "time": 84, "note": 58, "velocity": 107, "channel": 0}, {"type": "note_off", "time": 917, "note": 58, "velocity": 107, "channel": 0}, {"type": "note_on", "time": 78, "note": 62, "velocity": 108, "channel": 0}, {"type": "note_off", "time": 995, "note": 62, "velocity": 108, "channel": 0}, {"type": "note_on", "time": 102, "note": 58, "velocity": 106, "channel": 0}, {"type": "note_off", "time": 989, "note": 58, "velocity": 106, "channel": 0}, {"type": "note_on", "time": 120, "note": 62, "velocity": 107, "channel": 0}, {"type": "note_off", "time": 778, "note": 62, "velocity": 107, "channel": 0}, {"type": "note_on", "time": 102, "note": 58, "velocity": 106, "channel": 0}, {"type": "note_off", "time": 1031, "note": 58, "velocity": 106, "channel": 0}, {"type": "note_on", "time": 78, "note": 62, "velocity": 109, "channel": 0}, {"type": "note_off", "time": 790, "note": 62, "velocity": 109, "channel": 0}, {"type": "note_on", "time": 96, "note": 58, "velocity": 105, "channel": 0}, {"type": "note_off", "time": 874, "note": 58, "velocity": 105, "channel": 0}, {"type": "note_on", "time": 283, "note": 62, "velocity": 110, "channel": 0}, {"type": "note_off", "time": 1025, "note": 62, "velocity": 110, "channel": 0}, {"type": "note_on", "time": 341, "note": 69, "velocity": 93, "channel": 0}, {"type": "note_off", "time": 833, "note": 69, "velocity": 93, "channel": 0}, {"type": "note_on", "time": 140, "note": 62, "velocity": 105, "channel": 0}, {"type": "note_off", "time": 768, "note": 62, "velocity": 105, "channel": 0}, {"type": "note_on", "time": 473, "note": 57, "velocity": 105, "channel": 0}, {"type": "note_off", "time": 842, "note": 57, "velocity": 105, "channel": 0}, {"type": "note_on", "time": 109, "note": 62, "velocity": 110, "channel": 0}, {"type": "note_off", "time": 860, "note": 62, "velocity": 110, "channel": 0}, {"type": "note_on", "time": 263, "note": 57, "velocity": 105, "channel": 0}, {"type": "note_off", "time": 846, "note": 57, "velocity": 105, "channel": 0}, {"type": "note_on", "time": 171, "note": 62, "velocity": 106, "channel": 0}, {"type": "note_off", "time": 934, "note": 62, "velocity": 106, "channel": 0}, {"type": "note_on", "time": 105, "note": 57, "velocity": 106, "channel": 0}, {"type": "note_off", "time": 832, "note": 57, "velocity": 106, "channel": 0}, {"type": "note_on", "time": 132, "note": 62, "velocity": 108, "channel": 0}, {"type": "note_off", "time": 983, "note": 62, "velocity": 108, "channel": 0}, {"type": "note_on", "time": 132, "note": 57, "velocity": 104, "channel": 0}, {"type": "note_off", "time": 893, "note": 57, "velocity": 104, "channel": 0}, {"type": "note_on", "time": 126, "note": 62, "velocity": 106, "channel": 0}, {"type": "note_off", "time": 911, "note": 62, "velocity": 106, "channel": 0}, {"type": "note_on", "time": 244, "note": 69, "velocity": 97, "channel": 0}, {"type": "note_off", "time": 904, "note": 69, "velocity": 97, "channel": 0}, {"type": "note_on", "time": 272, "note": 62, "velocity": 101, "channel": 0}, {"type": "note_off", "time": 552, "note": 62, "velocity": 101, "channel": 0}, {"type": "note_on", "time": 105, "note": 57, "velocity": 103, "channel": 0}, {"type": "note_off", "time": 1097, "note": 57, "velocity": 103, "channel": 0}, {"type": "note_on", "time": 109, "note": 62, "velocity": 107, "channel": 0}, {"type": "note_off", "time": 925, "note": 62, "velocity": 107, "channel": 0}, {"type": "note_on", "time": 254, "note": 57, "velocity": 103, "channel": 0}, {"type": "note_off", "time": 860, "note": 57, "velocity": 103, "channel": 0}, {"type": "note_on", "time": 114, "note": 62, "velocity": 106, "channel": 0}, {"type": "note_off", "time": 939, "note": 62, "velocity": 106, "channel": 0}, {"type": "note_on", "time": 143, "note": 57, "velocity": 104, "channel": 0}, {"type": "note_off", "time": 826, "note": 57, "velocity": 104, "channel": 0}, {"type": "note_on", "time": 126, "note": 62, "velocity": 101, "channel": 0}, {"type": "note_off", "time": 868, "note": 62, "velocity": 101, "channel": 0}, {"type": "note_on", "time": 404, "note": 57, "velocity": 102, "channel": 0}, {"type": "note_off", "time": 923, "note": 57, "velocity": 102, "channel": 0}, {"type": "note_on", "time": 120, "note": 62, "velocity": 98, "channel": 0}, {"type": "note_off", "time": 887, "note": 62, "velocity": 98, "channel": 0}, {"type": "note_on", "time": 359, "note": 57, "velocity": 100, "channel": 0}, {"type": "note_off", "time": 746, "note": 57, "velocity": 100, "channel": 0}, {"type": "note_on", "time": 236, "note": 62, "velocity": 106, "channel": 0}, {"type": "note_off", "time": 1009, "note": 62, "velocity": 106, "channel": 0}, {"type": "note_on", "time": 215, "note": 57, "velocity": 106, "channel": 0}, {"type": "note_off", "time": 868, "note": 57, "velocity": 106, "channel": 0}, {"type": "note_on", "time": 109, "note": 54, "velocity": 107, "channel": 0}, {"type": "note_off", "time": 1009, "note": 54, "velocity": 107, "channel": 0}, {"type": "note_on", "time": 49, "note": 50, "velocity": 110, "channel": 0}, {"type": "note_off", "time": 890, "note": 50, "velocity": 110, "channel": 0}, {"type": "note_on", "time": 171, "note": 57, "velocity": 113, "channel": 0}, {"type": "note_off", "time": 820, "note": 57, "velocity": 113, "channel": 0}, {"type": "note_on", "time": 78, "note": 54, "velocity": 109, "channel": 0}, {"type": "note_off", "time": 965, "note": 54, "velocity": 109, "channel": 0}, {"type": "note_on", "time": 162, "note": 52, "velocity": 108, "channel": 0}, {"type": "note_off", "time": 947, "note": 52, "velocity": 108, "channel": 0}, {"type": "note_on", "time": 130, "note": 54, "velocity": 93, "channel": 0}, {"type": "note_off", "time": 6257, "note": 54, "velocity": 93, "channel": 0}, {"type": "note_on", "time": 296, "note": 54, "velocity": 91, "channel": 0}, {"type": "note_off", "time": 1098, "note": 54, "velocity": 91, "channel": 0}, {"type": "note_on", "time": 15076, "note": 55, "velocity": 106, "channel": 0}, {"type": "note_off", "time": 2808, "note": 55, "velocity": 106, "channel": 0}, {"type": "note_on", "time": 245, "note": 57, "velocity": 105, "channel": 0}, {"type": "note_off", "time": 1948, "note": 57, "velocity": 105, "channel": 0}, {"type": "note_on", "time": 385, "note": 57, "velocity": 114, "channel": 0}, {"type": "note_off", "time": 1097, "note": 57, "velocity": 114, "channel": 0}, {"type": "note_on", "time": 149, "note": 58, "velocity": 105, "channel": 0}, {"type": "note_off", "time": 947, "note": 58, "velocity": 105, "channel": 0}, {"type": "note_on", "time": 948, "note": 59, "velocity": 103, "channel": 0}, {"type": "note_off", "time": 2088, "note": 59, "velocity": 103, "channel": 0}, {"type": "note_on", "time": 684, "note": 62, "velocity": 116, "channel": 0}, {"type": "note_off", "time": 2299, "note": 62, "velocity": 116, "channel": 0}, {"type": "note_on", "time": 880, "note": 64, "velocity": 110, "channel": 0}, {"type": "note_off", "time": 2505, "note": 64, "velocity": 110, "channel": 0}, {"type": "note_on", "time": 592, "note": 64, "velocity": 115, "channel": 0}, {"type": "note_off", "time": 777, "note": 64, "velocity": 115, "channel": 0}, {"type": "note_on", "time": 148, "note": 66, "velocity": 108, "channel": 0}, {"type": "note_off", "time": 1690, "note": 66, "velocity": 108, "channel": 0}, {"type": "note_on", "time": 481, "note": 69, "velocity": 119, "channel": 0}, {"type": "note_off", "time": 2122, "note": 69, "velocity": 119, "channel": 0}, {"type": "note_on", "time": 1789, "note": 69, "velocity": 117, "channel": 0}, {"type": "note_off", "time": 1715, "note": 69, "velocity": 117, "channel": 0}, {"type": "note_on", "time": 1666, "note": 68, "velocity": 119, "channel": 0}, {"type": "note_off", "time": 1246, "note": 68, "velocity": 119, "channel": 0}, {"type": "note_on", "time": 172, "note": 67, "velocity": 112, "channel": 0}, {"type": "note_off", "time": 814, "note": 67, "velocity": 112, "channel": 0}, {"type": "note_on", "time": 1913, "note": 66, "velocity": 103, "channel": 0}, {"type": "note_off", "time": 1863, "note": 66, "velocity": 103, "channel": 0}, {"type": "note_on", "time": 962, "note": 67, "velocity": 111, "channel": 0}, {"type": "note_off", "time": 2110, "note": 67, "velocity": 111, "channel": 0}, {"type": "note_on", "time": 271, "note": 62, "velocity": 113, "channel": 0}, {"type": "note_off", "time": 1987, "note": 62, "velocity": 113, "channel": 0}, {"type": "note_on", "time": 135, "note": 58, "velocity": 97, "channel": 0}, {"type": "note_off", "time": 1900, "note": 58, "velocity": 97, "channel": 0}, {"type": "note_on", "time": 407, "note": 53, "velocity": 86, "channel": 0}, {"type": "note_off", "time": 1530, "note": 53, "velocity": 86, "channel": 0}, {"type": "note_on", "time": 123, "note": 60, "velocity": 110, "channel": 0}, {"type": "note_off", "time": 2332, "note": 60, "velocity": 110, "channel": 0}, {"type": "note_on", "time": 234, "note": 57, "velocity": 102, "channel": 0}, {"type": "note_off", "time": 1456, "note": 57, "velocity": 102, "channel": 0}, {"type": "note_on", "time": 296, "note": 58, "velocity": 96, "channel": 0}, {"type": "note_off", "time": 604, "note": 58, "velocity": 96, "channel": 0}, {"type": "note_on", "time": 506, "note": 62, "velocity": 102, "channel": 0}, {"type": "note_off", "time": 765, "note": 62, "velocity": 102, "channel": 0}, {"type": "note_on", "time": 160, "note": 65, "velocity": 100, "channel": 0}, {"type": "note_off", "time": 1061, "note": 65, "velocity": 100, "channel": 0}, {"type": "note_on", "time": 111, "note": 69, "velocity": 116, "channel": 0}, {"type": "note_off", "time": 1950, "note": 69, "velocity": 116, "channel": 0}, {"type": "note_on", "time": 172, "note": 67, "velocity": 94, "channel": 0}, {"type": "note_off", "time": 1394, "note": 67, "velocity": 94, "channel": 0}, {"type": "note_on", "time": 135, "note": 69, "velocity": 113, "channel": 0}, {"type": "note_off", "time": 2320, "note": 69, "velocity": 113, "channel": 0}, {"type": "note_on", "time": 167, "note": 67, "velocity": 97, "channel": 0}, {"type": "note_off", "time": 5634, "note": 67, "velocity": 97, "channel": 0}, {"type": "note_on", "time": 5687, "note": 63, "velocity": 123, "channel": 0}, {"type": "note_off", "time": 1351, "note": 63, "velocity": 123, "channel": 0}, {"type": "note_on", "time": 122, "note": 65, "velocity": 112, "channel": 0}, {"type": "note_off", "time": 1799, "note": 65, "velocity": 112, "channel": 0}, {"type": "note_on", "time": 87, "note": 62, "velocity": 110, "channel": 0}, {"type": "note_off", "time": 658, "note": 62, "velocity": 110, "channel": 0}, {"type": "note_on", "time": 96, "note": 58, "velocity": 102, "channel": 0}, {"type": "note_off", "time": 825, "note": 58, "velocity": 102, "channel": 0}, {"type": "note_on", "time": 184, "note": 55, "velocity": 101, "channel": 0}, {"type": "note_off", "time": 1088, "note": 55, "velocity": 101, "channel": 0}, {"type": "note_on", "time": 465, "note": 64, "velocity": 120, "channel": 0}, {"type": "note_off", "time": 2738, "note": 64, "velocity": 120, "channel": 0}, {"type": "note_on", "time": 105, "note": 62, "velocity": 114, "channel": 0}, {"type": "note_off", "time": 1544, "note": 62, "velocity": 114, "channel": 0}, {"type": "note_on", "time": 131, "note": 58, "velocity": 87, "channel": 0}, {"type": "note_off", "time": 9338, "note": 58, "velocity": 87, "channel": 0}, {"type": "note_on", "time": 26316, "note": 69, "velocity": 106, "channel": 0}, {"type": "note_off", "time": 2554, "note": 69, "velocity": 106, "channel": 0}, {"type": "note_on", "time": 382, "note": 68, "velocity": 97, "channel": 0}, {"type": "note_off", "time": 1518, "note": 68, "velocity": 97, "channel": 0}, {"type": "note_on", "time": 382, "note": 69, "velocity": 99, "channel": 0}, {"type": "note_off", "time": 2036, "note": 69, "velocity": 99, "channel": 0}, {"type": "note_on", "time": 2456, "note": 57, "velocity": 86, "channel": 0}, {"type": "note_off", "time": 2431, "note": 57, "velocity": 86, "channel": 0}, {"type": "note_on", "time": 2332, "note": 57, "velocity": 91, "channel": 0}, {"type": "note_off", "time": 2653, "note": 57, "velocity": 91, "channel": 0}, {"type": "note_on", "time": 2764, "note": 67, "velocity": 108, "channel": 0}, {"type": "note_off", "time": 2592, "note": 67, "velocity": 108, "channel": 0}, {"type": "note_on", "time": 197, "note": 66, "velocity": 99, "channel": 0}, {"type": "note_off", "time": 1715, "note": 66, "velocity": 99, "channel": 0}, {"type": "note_on", "time": 259, "note": 67, "velocity": 107, "channel": 0}, {"type": "note_off", "time": 2221, "note": 67, "velocity": 107, "channel": 0}, {"type": "note_on", "time": 2629, "note": 57, "velocity": 93, "channel": 0}, {"type": "note_off", "time": 2517, "note": 57, "velocity": 93, "channel": 0}, {"type": "note_on", "time": 3011, "note": 57, "velocity": 95, "channel": 0}, {"type": "note_off", "time": 1999, "note": 57, "velocity": 95, "channel": 0}, {"type": "note_on", "time": 2863, "note": 66, "velocity": 104, "channel": 0}, {"type": "note_off", "time": 3122, "note": 66, "velocity": 104, "channel": 0}, {"type": "note_on", "time": 172, "note": 65, "velocity": 93, "channel": 0}, {"type": "note_off", "time": 1135, "note": 65, "velocity": 93, "channel": 0}, {"type": "note_on", "time": 382, "note": 66, "velocity": 107, "channel": 0}, {"type": "note_off", "time": 2246, "note": 66, "velocity": 107, "channel": 0}, {"type": "note_on", "time": 2944, "note": 57, "velocity": 94, "channel": 0}, {"type": "note_off", "time": 2273, "note": 57, "velocity": 94, "channel": 0}, {"type": "note_on", "time": 3203, "note": 66, "velocity": 105, "channel": 0}, {"type": "note_off", "time": 2115, "note": 66, "velocity": 105, "channel": 0}, {"type": "note_on", "time": 131, "note": 67, "velocity": 99, "channel": 0}, {"type": "note_off", "time": 904, "note": 67, "velocity": 99, "channel": 0}, {"type": "note_on", "time": 149, "note": 66, "velocity": 96, "channel": 0}, {"type": "note_off", "time": 1448, "note": 66, "velocity": 96, "channel": 0}, {"type": "note_on", "time": 70, "note": 64, "velocity": 97, "channel": 0}, {"type": "note_off", "time": 2826, "note": 64, "velocity": 97, "channel": 0}, {"type": "note_on", "time": 87, "note": 62, "velocity": 96, "channel": 0}, {"type": "note_off", "time": 1536, "note": 62, "velocity": 96, "channel": 0}, {"type": "note_on", "time": 359, "note": 63, "velocity": 105, "channel": 0}, {"type": "note_off", "time": 2738, "note": 63, "velocity": 105, "channel": 0}, {"type": "note_on", "time": 184, "note": 60, "velocity": 107, "channel": 0}, {"type": "note_off", "time": 2115, "note": 60, "velocity": 107, "channel": 0}, {"type": "note_on", "time": 449, "note": 59, "velocity": 86, "channel": 0}, {"type": "note_off", "time": 2147, "note": 59, "velocity": 86, "channel": 0}, {"type": "note_on", "time": 271, "note": 57, "velocity": 92, "channel": 0}, {"type": "note_off", "time": 1666, "note": 57, "velocity": 92, "channel": 0}, {"type": "note_on", "time": 292, "note": 55, "velocity": 94, "channel": 0}, {"type": "note_off", "time": 1320, "note": 55, "velocity": 94, "channel": 0}, {"type": "note_on", "time": 1084, "note": 52, "velocity": 86, "channel": 0}, {"type": "note_off", "time": 962, "note": 52, "velocity": 86, "channel": 0}, {"type": "note_on", "time": 55, "note": 55, "velocity": 95, "channel": 0}, {"type": "note_off", "time": 1592, "note": 55, "velocity": 95, "channel": 0}, {"type": "note_on", "time": 409, "note": 59, "velocity": 93, "channel": 0}, {"type": "note_off", "time": 1404, "note": 59, "velocity": 93, "channel": 0}, {"type": "note_on", "time": 175, "note": 55, "velocity": 92, "channel": 0}, {"type": "note_off", "time": 1527, "note": 55, "velocity": 92, "channel": 0}, {"type": "note_on", "time": 210, "note": 59, "velocity": 91, "channel": 0}, {"type": "note_off", "time": 1579, "note": 59, "velocity": 91, "channel": 0}, {"type": "note_on", "time": 228, "note": 62, "velocity": 105, "channel": 0}, {"type": "note_off", "time": 1614, "note": 62, "velocity": 105, "channel": 0}, {"type": "note_on", "time": 307, "note": 59, "velocity": 92, "channel": 0}, {"type": "note_off", "time": 1018, "note": 59, "velocity": 92, "channel": 0}, {"type": "note_on", "time": 588, "note": 62, "velocity": 108, "channel": 0}, {"type": "note_off", "time": 1746, "note": 62, "velocity": 108, "channel": 0}, {"type": "note_on", "time": 582, "note": 67, "velocity": 94, "channel": 0}, {"type": "note_off", "time": 1616, "note": 67, "velocity": 94, "channel": 0}, {"type": "note_on", "time": 148, "note": 62, "velocity": 95, "channel": 0}, {"type": "note_off", "time": 1296, "note": 62, "velocity": 95, "channel": 0}, {"type": "note_on", "time": 139, "note": 67, "velocity": 99, "channel": 0}, {"type": "note_off", "time": 1404, "note": 67, "velocity": 99, "channel": 0}, {"type": "note_on", "time": 1272, "note": 69, "velocity": 98, "channel": 0}, {"type": "note_off", "time": 816, "note": 69, "velocity": 98, "channel": 0}, {"type": "note_on", "time": 131, "note": 71, "velocity": 97, "channel": 0}, {"type": "note_off", "time": 7293, "note": 71, "velocity": 97, "channel": 0}, {"type": "note_on", "time": 14269, "note": 71, "velocity": 108, "channel": 0}, {"type": "note_off", "time": 1888, "note": 71, "velocity": 108, "channel": 0}, {"type": "note_on", "time": 271, "note": 67, "velocity": 110, "channel": 0}, {"type": "note_off", "time": 1826, "note": 67, "velocity": 110, "channel": 0}, {"type": "note_on", "time": 283, "note": 62, "velocity": 113, "channel": 0}, {"type": "note_off", "time": 1987, "note": 62, "velocity": 113, "channel": 0}, {"type": "note_on", "time": 407, "note": 59, "velocity": 84, "channel": 0}, {"type": "note_off", "time": 1728, "note": 59, "velocity": 84, "channel": 0}, {"type": "note_on", "time": 5056, "note": 62, "velocity": 116, "channel": 0}, {"type": "note_off", "time": 2154, "note": 62, "velocity": 116, "channel": 0}, {"type": "note_on", "time": 253, "note": 67, "velocity": 105, "channel": 0}, {"type": "note_off", "time": 1538, "note": 67, "velocity": 105, "channel": 0}, {"type": "note_on", "time": 283, "note": 61, "velocity": 115, "channel": 0}, {"type": "note_off", "time": 2562, "note": 61, "velocity": 115, "channel": 0}, {"type": "note_on", "time": 23399, "note": 57, "velocity": 91, "channel": 0}, {"type": "note_off", "time": 2598, "note": 57, "velocity": 91, "channel": 0}, {"type": "note_on", "time": 509, "note": 62, "velocity": 105, "channel": 0}, {"type": "note_off", "time": 2492, "note": 62, "velocity": 105, "channel": 0}, {"type": "note_on", "time": 7267, "note": 64, "velocity": 110, "channel": 0}, {"type": "note_off", "time": 1421, "note": 64, "velocity": 110, "channel": 0}, {"type": "note_on", "time": 122, "note": 66, "velocity": 107, "channel": 0}, {"type": "note_off", "time": 4985, "note": 66, "velocity": 107, "channel": 0}, {"type": "note_on", "time": 298, "note": 62, "velocity": 117, "channel": 0}, {"type": "note_off", "time": 1983, "note": 62, "velocity": 117, "channel": 0}, {"type": "note_on", "time": 17745, "note": 57, "velocity": 97, "channel": 0}, {"type": "note_off", "time": 2838, "note": 57, "velocity": 97, "channel": 0}, {"type": "note_on", "time": 370, "note": 62, "velocity": 119, "channel": 0}, {"type": "note_off", "time": 2912, "note": 62, "velocity": 119, "channel": 0}, {"type": "note_on", "time": 6566, "note": 71, "velocity": 120, "channel": 0}, {"type": "note_off", "time": 2764, "note": 71, "velocity": 120, "channel": 0}, {"type": "note_on", "time": 417, "note": 69, "velocity": 100, "channel": 0}, {"type": "note_off", "time": 895, "note": 69, "velocity": 100, "channel": 0}, {"type": "note_on", "time": 5301, "note": 65, "velocity": 120, "channel": 0}, {"type": "note_off", "time": 3440, "note": 65, "velocity": 120, "channel": 0}, {"type": "note_on", "time": 509, "note": 62, "velocity": 109, "channel": 0}, {"type": "note_off", "time": 912, "note": 62, "velocity": 109, "channel": 0}, {"type": "note_on", "time": 9101, "note": 57, "velocity": 100, "channel": 0}, {"type": "note_off", "time": 2580, "note": 57, "velocity": 100, "channel": 0}, {"type": "note_on", "time": 201, "note": 62, "velocity": 121, "channel": 0}, {"type": "note_off", "time": 2027, "note": 62, "velocity": 121, "channel": 0}, {"type": "note_on", "time": 1571, "note": 64, "velocity": 111, "channel": 0}, {"type": "note_off", "time": 1500, "note": 64, "velocity": 111, "channel": 0}, {"type": "note_on", "time": 114, "note": 66, "velocity": 112, "channel": 0}, {"type": "note_off", "time": 2132, "note": 66, "velocity": 112, "channel": 0}, {"type": "note_on", "time": 6082, "note": 67, "velocity": 107, "channel": 0}, {"type": "note_off", "time": 6512, "note": 67, "velocity": 107, "channel": 0}, {"type": "note_on", "time": 228, "note": 66, "velocity": 106, "channel": 0}, {"type": "note_off", "time": 2562, "note": 66, "velocity": 106, "channel": 0}, {"type": "note_on", "time": 438, "note": 62, "velocity": 116, "channel": 0}, {"type": "note_off", "time": 7109, "note": 62, "velocity": 116, "channel": 0}, {"type": "note_on", "time": 1211, "note": 57, "velocity": 88, "channel": 0}, {"type": "note_off", "time": 2071, "note": 57, "velocity": 88, "channel": 0}, {"type": "note_on", "time": 263, "note": 59, "velocity": 101, "channel": 0}, {"type": "note_off", "time": 2457, "note": 59, "velocity": 101, "channel": 0}, {"type": "note_on", "time": 4672, "note": 57, "velocity": 99, "channel": 0}, {"type": "note_off", "time": 2530, "note": 57, "velocity": 99, "channel": 0}, {"type": "note_on", "time": 357, "note": 61, "velocity": 120, "channel": 0}, {"type": "note_off", "time": 2295, "note": 61, "velocity": 120, "channel": 0}, {"type": "note_on", "time": 4362, "note": 57, "velocity": 97, "channel": 0}, {"type": "note_off", "time": 3089, "note": 57, "velocity": 97, "channel": 0}, {"type": "note_on", "time": 193, "note": 62, "velocity": 121, "channel": 0}, {"type": "note_off", "time": 2598, "note": 62, "velocity": 121, "channel": 0}, {"type": "note_on", "time": 4568, "note": 57, "velocity": 97, "channel": 0}, {"type": "note_off", "time": 3073, "note": 57, "velocity": 97, "channel": 0}, {"type": "note_on", "time": 86, "note": 64, "velocity": 116, "channel": 0}, {"type": "note_off", "time": 3184, "note": 64, "velocity": 116, "channel": 0}, {"type": "note_on", "time": 6936, "note": 66, "velocity": 113, "channel": 0}, {"type": "note_off", "time": 2986, "note": 66, "velocity": 113, "channel": 0}, {"type": "note_on", "time": 7724, "note": 69, "velocity": 101, "channel": 0}, {"type": "note_off", "time": 23873, "note": 69, "velocity": 101, "channel": 0}, {"type": "note_on", "time": 4319, "note": 66, "velocity": 99, "channel": 0}, {"type": "note_off", "time": 2308, "note": 66, "velocity": 99, "channel": 0}, {"type": "note_on", "time": 271, "note": 67, "velocity": 108, "channel": 0}, {"type": "note_off", "time": 2345, "note": 67, "velocity": 108, "channel": 0}, {"type": "note_on", "time": 222, "note": 69, "velocity": 108, "channel": 0}, {"type": "note_off", "time": 1814, "note": 69, "velocity": 108, "channel": 0}, {"type": "note_on", "time": 123, "note": 71, "velocity": 105, "channel": 0}, {"type": "note_off", "time": 1950, "note": 71, "velocity": 105, "channel": 0}, {"type": "note_on", "time": 222, "note": 69, "velocity": 102, "channel": 0}, {"type": "note_off", "time": 1937, "note": 69, "velocity": 102, "channel": 0}, {"type": "note_on", "time": 143, "note": 67, "velocity": 105, "channel": 0}, {"type": "note_off", "time": 2132, "note": 67, "velocity": 105, "channel": 0}, {"type": "note_on", "time": 956, "note": 66, "velocity": 110, "channel": 0}, {"type": "note_off", "time": 1913, "note": 66, "velocity": 110, "channel": 0}, {"type": "note_on", "time": 640, "note": 64, "velocity": 109, "channel": 0}, {"type": "note_off", "time": 1906, "note": 64, "velocity": 109, "channel": 0}, {"type": "note_on", "time": 289, "note": 66, "velocity": 110, "channel": 0}, {"type": "note_off", "time": 1514, "note": 66, "velocity": 110, "channel": 0}, {"type": "note_on", "time": 379, "note": 67, "velocity": 107, "channel": 0}, {"type": "note_off", "time": 1079, "note": 67, "velocity": 107, "channel": 0}, {"type": "note_on", "time": 339, "note": 69, "velocity": 103, "channel": 0}, {"type": "note_off", "time": 1327, "note": 69, "velocity": 103, "channel": 0}, {"type": "note_on", "time": 223, "note": 71, "velocity": 110, "channel": 0}, {"type": "note_off", "time": 1327, "note": 71, "velocity": 110, "channel": 0}, {"type": "note_on", "time": 205, "note": 69, "velocity": 105, "channel": 0}, {"type": "note_off", "time": 1436, "note": 69, "velocity": 105, "channel": 0}, {"type": "note_on", "time": 187, "note": 67, "velocity": 110, "channel": 0}, {"type": "note_off", "time": 1774, "note": 67, "velocity": 110, "channel": 0}, {"type": "note_on", "time": 368, "note": 66, "velocity": 104, "channel": 0}, {"type": "note_off", "time": 1904, "note": 66, "velocity": 104, "channel": 0}, {"type": "note_on", "time": 307, "note": 64, "velocity": 108, "channel": 0}, {"type": "note_off", "time": 1483, "note": 64, "velocity": 108, "channel": 0}, {"type": "note_on", "time": 693, "note": 62, "velocity": 110, "channel": 0}, {"type": "note_off", "time": 1500, "note": 62, "velocity": 110, "channel": 0}, {"type": "note_on", "time": 754, "note": 64, "velocity": 107, "channel": 0}, {"type": "note_off", "time": 1272, "note": 64, "velocity": 107, "channel": 0}, {"type": "note_on", "time": 904, "note": 66, "velocity": 109, "channel": 0}, {"type": "note_off", "time": 1378, "note": 66, "velocity": 109, "channel": 0}, {"type": "note_on", "time": 263, "note": 67, "velocity": 110, "channel": 0}, {"type": "note_off", "time": 1351, "note": 67, "velocity": 110, "channel": 0}, {"type": "note_on", "time": 97, "note": 66, "velocity": 111, "channel": 0}, {"type": "note_off", "time": 1556, "note": 66, "velocity": 111, "channel": 0}, {"type": "note_on", "time": 156, "note": 64, "velocity": 115, "channel": 0}, {"type": "note_off", "time": 1472, "note": 64, "velocity": 115, "channel": 0}, {"type": "note_on", "time": 253, "note": 62, "velocity": 109, "channel": 0}, {"type": "note_off", "time": 2009, "note": 62, "velocity": 109, "channel": 0}, {"type": "note_on", "time": 219, "note": 61, "velocity": 110, "channel": 0}, {"type": "note_off", "time": 1544, "note": 61, "velocity": 110, "channel": 0}, {"type": "note_on", "time": 658, "note": 60, "velocity": 87, "channel": 0}, {"type": "note_off", "time": 8689, "note": 60, "velocity": 87, "channel": 0}, {"type": "note_on", "time": 26427, "note": 69, "velocity": 97, "channel": 0}, {"type": "note_off", "time": 1035, "note": 69, "velocity": 97, "channel": 0}, {"type": "note_on", "time": 105, "note": 71, "velocity": 95, "channel": 0}, {"type": "note_off", "time": 4142, "note": 71, "velocity": 95, "channel": 0}, {"type": "note_on", "time": 140, "note": 74, "velocity": 93, "channel": 0}, {"type": "note_off", "time": 30790, "note": 74, "velocity": 93, "channel": 0}, {"type": "note_on", "time": 596, "note": 69, "velocity": 97, "channel": 0}, {"type": "note_off", "time": 588, "note": 69, "velocity": 97, "channel": 0}, {"type": "note_on", "time": 70, "note": 71, "velocity": 96, "channel": 0}, {"type": "note_off", "time": 1641, "note": 71, "velocity": 96, "channel": 0}, {"type": "note_on", "time": 34380, "note": 58, "velocity": 92, "channel": 0}, {"type": "note_off", "time": 1895, "note": 58, "velocity": 92, "channel": 0}, {"type": "note_on", "time": 517, "note": 59, "velocity": 94, "channel": 0}, {"type": "note_off", "time": 1571, "note": 59, "velocity": 94, "channel": 0}, {"type": "note_on", "time": 1158, "note": 62, "velocity": 101, "channel": 0}, {"type": "note_off", "time": 2115, "note": 62, "velocity": 101, "channel": 0}, {"type": "note_on", "time": 351, "note": 64, "velocity": 103, "channel": 0}, {"type": "note_off", "time": 1676, "note": 64, "velocity": 103, "channel": 0}, {"type": "note_on", "time": 1044, "note": 65, "velocity": 105, "channel": 0}, {"type": "note_off", "time": 2106, "note": 65, "velocity": 105, "channel": 0}, {"type": "note_on", "time": 473, "note": 66, "velocity": 103, "channel": 0}, {"type": "note_off", "time": 2159, "note": 66, "velocity": 103, "channel": 0}, {"type": "note_on", "time": 403, "note": 64, "velocity": 101, "channel": 0}, {"type": "note_off", "time": 1597, "note": 64, "velocity": 101, "channel": 0}, {"type": "note_on", "time": 702, "note": 65, "velocity": 106, "channel": 0}, {"type": "note_off", "time": 2352, "note": 65, "velocity": 106, "channel": 0}, {"type": "note_on", "time": 351, "note": 64, "velocity": 98, "channel": 0}, {"type": "note_off", "time": 1579, "note": 64, "velocity": 98, "channel": 0}, {"type": "note_on", "time": 1045, "note": 65, "velocity": 101, "channel": 0}, {"type": "note_off", "time": 1962, "note": 65, "velocity": 101, "channel": 0}, {"type": "note_on", "time": 432, "note": 63, "velocity": 94, "channel": 0}, {"type": "note_off", "time": 1518, "note": 63, "velocity": 94, "channel": 0}, {"type": "note_on", "time": 1061, "note": 64, "velocity": 97, "channel": 0}, {"type": "note_off", "time": 1925, "note": 64, "velocity": 97, "channel": 0}, {"type": "note_on", "time": 1104, "note": 62, "velocity": 99, "channel": 0}, {"type": "note_off", "time": 1220, "note": 62, "velocity": 99, "channel": 0}, {"type": "note_on", "time": 1088, "note": 63, "velocity": 99, "channel": 0}, {"type": "note_off", "time": 1746, "note": 63, "velocity": 99, "channel": 0}, {"type": "note_on", "time": 956, "note": 61, "velocity": 97, "channel": 0}, {"type": "note_off", "time": 1220, "note": 61, "velocity": 97, "channel": 0}, {"type": "note_on", "time": 1184, "note": 62, "velocity": 100, "channel": 0}, {"type": "note_off", "time": 1948, "note": 62, "velocity": 100, "channel": 0}, {"type": "note_on", "time": 746, "note": 59, "velocity": 96, "channel": 0}, {"type": "note_off", "time": 1474, "note": 59, "velocity": 96, "channel": 0}, {"type": "note_on", "time": 579, "note": 55, "velocity": 91, "channel": 0}, {"type": "note_off", "time": 2782, "note": 55, "velocity": 91, "channel": 0}, {"type": "note_on", "time": 450, "note": 50, "velocity": 75, "channel": 0}, {"type": "note_off", "time": 1333, "note": 50, "velocity": 75, "channel": 0}, {"type": "note_on", "time": 444, "note": 57, "velocity": 93, "channel": 0}, {"type": "note_off", "time": 2740, "note": 57, "velocity": 93, "channel": 0}, {"type": "note_on", "time": 719, "note": 54, "velocity": 97, "channel": 0}, {"type": "note_off", "time": 1685, "note": 54, "velocity": 97, "channel": 0}, {"type": "note_on", "time": 2422, "note": 59, "velocity": 87, "channel": 0}, {"type": "note_off", "time": 895, "note": 59, "velocity": 87, "channel": 0}, {"type": "note_on", "time": 140, "note": 62, "velocity": 95, "channel": 0}, {"type": "note_off", "time": 1404, "note": 62, "velocity": 95, "channel": 0}, {"type": "note_on", "time": 1150, "note": 64, "velocity": 101, "channel": 0}, {"type": "note_off", "time": 1197, "note": 64, "velocity": 101, "channel": 0}, {"type": "note_on", "time": 135, "note": 65, "velocity": 98, "channel": 0}, {"type": "note_off", "time": 1221, "note": 65, "velocity": 98, "channel": 0}, {"type": "note_on", "time": 592, "note": 65, "velocity": 108, "channel": 0}, {"type": "note_off", "time": 1789, "note": 65, "velocity": 108, "channel": 0}, {"type": "note_on", "time": 345, "note": 64, "velocity": 100, "channel": 0}, {"type": "note_off", "time": 1345, "note": 64, "velocity": 100, "channel": 0}, {"type": "note_on", "time": 1172, "note": 64, "velocity": 105, "channel": 0}, {"type": "note_off", "time": 1802, "note": 64, "velocity": 105, "channel": 0}, {"type": "note_on", "time": 592, "note": 62, "velocity": 96, "channel": 0}, {"type": "note_off", "time": 2234, "note": 62, "velocity": 96, "channel": 0}, {"type": "note_on", "time": 1012, "note": 62, "velocity": 97, "channel": 0}, {"type": "note_off", "time": 1493, "note": 62, "velocity": 97, "channel": 0}, {"type": "note_on", "time": 240, "note": 58, "velocity": 90, "channel": 0}, {"type": "note_off", "time": 3194, "note": 58, "velocity": 90, "channel": 0}, {"type": "note_on", "time": 333, "note": 61, "velocity": 95, "channel": 0}, {"type": "note_off", "time": 1720, "note": 61, "velocity": 95, "channel": 0}, {"type": "note_on", "time": 298, "note": 57, "velocity": 93, "channel": 0}, {"type": "note_off", "time": 3036, "note": 57, "velocity": 93, "channel": 0}, {"type": "note_on", "time": 157, "note": 55, "velocity": 75, "channel": 0}, {"type": "note_off", "time": 9619, "note": 55, "velocity": 75, "channel": 0}, {"type": "note_on", "time": 34163, "note": 53, "velocity": 99, "channel": 0}, {"type": "note_off", "time": 4394, "note": 53, "velocity": 99, "channel": 0}, {"type": "note_on", "time": 444, "note": 54, "velocity": 93, "channel": 0}, {"type": "note_off", "time": 3999, "note": 54, "velocity": 93, "channel": 0}, {"type": "note_on", "time": 5628, "note": 57, "velocity": 98, "channel": 0}, {"type": "note_off", "time": 3850, "note": 57, "velocity": 98, "channel": 0}, {"type": "note_on", "time": 5973, "note": 54, "velocity": 99, "channel": 0}, {"type": "note_off", "time": 2666, "note": 54, "velocity": 99, "channel": 0}, {"type": "note_on", "time": 8195, "note": 57, "velocity": 99, "channel": 0}, {"type": "note_off", "time": 4147, "note": 57, "velocity": 99, "channel": 0}, {"type": "note_on", "time": 7953, "note": 54, "velocity": 95, "channel": 0}, {"type": "note_off", "time": 5828, "note": 54, "velocity": 95, "channel": 0}, {"type": "note_on", "time": 702, "note": 57, "velocity": 97, "channel": 0}, {"type": "note_off", "time": 2914, "note": 57, "velocity": 97, "channel": 0}, {"type": "note_on", "time": 842, "note": 59, "velocity": 94, "channel": 0}, {"type": "note_off", "time": 5722, "note": 59, "velocity": 94, "channel": 0}, {"type": "note_on", "time": 456, "note": 57, "velocity": 92, "channel": 0}, {"type": "note_off", "time": 3300, "note": 57, "velocity": 92, "channel": 0}, {"type": "note_on", "time": 471, "note": 58, "velocity": 100, "channel": 0}, {"type": "note_off", "time": 1530, "note": 58, "velocity": 100, "channel": 0}, {"type": "note_on", "time": 104, "note": 60, "velocity": 90, "channel": 0}, {"type": "note_off", "time": 4704, "note": 60, "velocity": 90, "channel": 0}, {"type": "note_on", "time": 631, "note": 59, "velocity": 98, "channel": 0}, {"type": "note_off", "time": 3159, "note": 59, "velocity": 98, "channel": 0}, {"type": "note_on", "time": 2703, "note": 57, "velocity": 95, "channel": 0}, {"type": "note_off", "time": 4423, "note": 57, "velocity": 95, "channel": 0}, {"type": "note_on", "time": 1158, "note": 56, "velocity": 83, "channel": 0}, {"type": "note_off", "time": 5547, "note": 56, "velocity": 83, "channel": 0}, {"type": "note_on", "time": 1053, "note": 55, "velocity": 79, "channel": 0}, {"type": "note_off", "time": 17940, "note": 55, "velocity": 79, "channel": 0}, {"type": "note_on", "time": 26893, "note": 55, "velocity": 98, "channel": 0}, {"type": "note_off", "time": 3545, "note": 55, "velocity": 98, "channel": 0}, {"type": "note_on", "time": 807, "note": 57, "velocity": 96, "channel": 0}, {"type": "note_off", "time": 5020, "note": 57, "velocity": 96, "channel": 0}, {"type": "note_on", "time": 912, "note": 55, "velocity": 92, "channel": 0}, {"type": "note_off", "time": 4037, "note": 55, "velocity": 92, "channel": 0}, {"type": "note_on", "time": 1336, "note": 57, "velocity": 103, "channel": 0}, {"type": "note_off", "time": 2352, "note": 57, "velocity": 103, "channel": 0}, {"type": "note_on", "time": 116, "note": 58, "velocity": 94, "channel": 0}, {"type": "note_off", "time": 2562, "note": 58, "velocity": 94, "channel": 0}, {"type": "note_on", "time": 1233, "note": 56, "velocity": 92, "channel": 0}, {"type": "note_off", "time": 2720, "note": 56, "velocity": 92, "channel": 0}, {"type": "note_on", "time": 1808, "note": 57, "velocity": 96, "channel": 0}, {"type": "note_off", "time": 4019, "note": 57, "velocity": 96, "channel": 0}, {"type": "note_on", "time": 2071, "note": 55, "velocity": 99, "channel": 0}, {"type": "note_off", "time": 3900, "note": 55, "velocity": 99, "channel": 0}, {"type": "note_on", "time": 1826, "note": 54, "velocity": 79, "channel": 0}, {"type": "note_off", "time": 25771, "note": 54, "velocity": 79, "channel": 0}, {"type": "note_on", "time": 20661, "note": 54, "velocity": 106, "channel": 0}, {"type": "note_off", "time": 3579, "note": 54, "velocity": 106, "channel": 0}, {"type": "note_on", "time": 493, "note": 53, "velocity": 88, "channel": 0}, {"type": "note_off", "time": 5653, "note": 53, "velocity": 88, "channel": 0}, {"type": "note_on", "time": 715, "note": 54, "velocity": 103, "channel": 0}, {"type": "note_off", "time": 3184, "note": 54, "velocity": 103, "channel": 0}, {"type": "note_on", "time": 883, "note": 54, "velocity": 104, "channel": 0}, {"type": "note_off", "time": 1439, "note": 54, "velocity": 104, "channel": 0}, {"type": "note_on", "time": 105, "note": 55, "velocity": 92, "channel": 0}, {"type": "note_off", "time": 7583, "note": 55, "velocity": 92, "channel": 0}, {"type": "note_on", "time": 800, "note": 51, "velocity": 87, "channel": 0}, {"type": "note_off", "time": 9973, "note": 51, "velocity": 87, "channel": 0}, {"type": "note_on", "time": 962, "note": 53, "velocity": 102, "channel": 0}, {"type": "note_off", "time": 1431, "note": 53, "velocity": 102, "channel": 0}, {"type": "note_on", "time": 197, "note": 54, "velocity": 90, "channel": 0}, {"type": "note_off", "time": 8245, "note": 54, "velocity": 90, "channel": 0}, {"type": "note_on", "time": 691, "note": 53, "velocity": 93, "channel": 0}, {"type": "note_off", "time": 6393, "note": 53, "velocity": 93, "channel": 0}, {"type": "note_on", "time": 296, "note": 52, "velocity": 78, "channel": 0}, {"type": "note_off", "time": 24068, "note": 52, "velocity": 78, "channel": 0}, {"type": "note_on", "time": 22677, "note": 70, "velocity": 112, "channel": 0}, {"type": "note_off", "time": 640, "note": 70, "velocity": 112, "channel": 0}, {"type": "note_on", "time": 131, "note": 67, "velocity": 113, "channel": 0}, {"type": "note_off", "time": 991, "note": 67, "velocity": 113, "channel": 0}, {"type": "note_on", "time": 105, "note": 65, "velocity": 112, "channel": 0}, {"type": "note_off", "time": 877, "note": 65, "velocity": 112, "channel": 0}, {"type": "note_on", "time": 70, "note": 63, "velocity": 113, "channel": 0}, {"type": "note_off", "time": 675, "note": 63, "velocity": 113, "channel": 0}, {"type": "note_on", "time": 52, "note": 67, "velocity": 110, "channel": 0}, {"type": "note_off", "time": 877, "note": 67, "velocity": 110, "channel": 0}, {"type": "note_on", "time": 78, "note": 65, "velocity": 112, "channel": 0}, {"type": "note_off", "time": 719, "note": 65, "velocity": 112, "channel": 0}, {"type": "note_on", "time": 87, "note": 63, "velocity": 116, "channel": 0}, {"type": "note_off", "time": 1035, "note": 63, "velocity": 116, "channel": 0}, {"type": "note_on", "time": 175, "note": 58, "velocity": 97, "channel": 0}, {"type": "note_off", "time": 596, "note": 58, "velocity": 97, "channel": 0}, {"type": "note_on", "time": 52, "note": 63, "velocity": 116, "channel": 0}, {"type": "note_off", "time": 1062, "note": 63, "velocity": 116, "channel": 0}, {"type": "note_on", "time": 140, "note": 60, "velocity": 108, "channel": 0}, {"type": "note_off", "time": 640, "note": 60, "velocity": 108, "channel": 0}, {"type": "note_on", "time": 140, "note": 58, "velocity": 107, "channel": 0}, {"type": "note_off", "time": 684, "note": 58, "velocity": 107, "channel": 0}, {"type": "note_on", "time": 228, "note": 55, "velocity": 104, "channel": 0}, {"type": "note_off", "time": 890, "note": 55, "velocity": 104, "channel": 0}, {"type": "note_on", "time": 78, "note": 53, "velocity": 106, "channel": 0}, {"type": "note_off", "time": 557, "note": 53, "velocity": 106, "channel": 0}, {"type": "note_on", "time": 109, "note": 51, "velocity": 109, "channel": 0}, {"type": "note_off", "time": 825, "note": 51, "velocity": 109, "channel": 0}, {"type": "note_on", "time": 323, "note": 58, "velocity": 106, "channel": 0}, {"type": "note_off", "time": 802, "note": 58, "velocity": 106, "channel": 0}, {"type": "note_on", "time": 114, "note": 55, "velocity": 105, "channel": 0}, {"type": "note_off", "time": 567, "note": 55, "velocity": 105, "channel": 0}, {"type": "note_on", "time": 84, "note": 53, "velocity": 108, "channel": 0}, {"type": "note_off", "time": 518, "note": 53, "velocity": 108, "channel": 0}, {"type": "note_on", "time": 138, "note": 51, "velocity": 110, "channel": 0}, {"type": "note_off", "time": 1176, "note": 51, "velocity": 110, "channel": 0}, {"type": "note_on", "time": 229, "note": 48, "velocity": 105, "channel": 0}, {"type": "note_off", "time": 359, "note": 48, "velocity": 105, "channel": 0}, {"type": "note_on", "time": 80, "note": 49, "velocity": 113, "channel": 0}, {"type": "note_off", "time": 930, "note": 49, "velocity": 113, "channel": 0}, {"type": "note_on", "time": 77, "note": 48, "velocity": 114, "channel": 0}, {"type": "note_off", "time": 597, "note": 48, "velocity": 114, "channel": 0}, {"type": "note_on", "time": 114, "note": 46, "velocity": 115, "channel": 0}, {"type": "note_off", "time": 1068, "note": 46, "velocity": 115, "channel": 0}, {"type": "note_on", "time": 96, "note": 45, "velocity": 120, "channel": 0}, {"type": "note_off", "time": 3265, "note": 45, "velocity": 120, "channel": 0}, {"type": "note_on", "time": 27805, "note": 57, "velocity": 92, "channel": 0}, {"type": "note_off", "time": 930, "note": 57, "velocity": 92, "channel": 0}, {"type": "note_on", "time": 544, "note": 62, "velocity": 98, "channel": 0}, {"type": "note_off", "time": 3317, "note": 62, "velocity": 98, "channel": 0}, {"type": "note_on", "time": 509, "note": 57, "velocity": 93, "channel": 0}, {"type": "note_off", "time": 1018, "note": 57, "velocity": 93, "channel": 0}, {"type": "note_on", "time": 157, "note": 64, "velocity": 102, "channel": 0}, {"type": "note_off", "time": 1386, "note": 64, "velocity": 102, "channel": 0}, {"type": "note_on", "time": 157, "note": 65, "velocity": 92, "channel": 0}, {"type": "note_off", "time": 3581, "note": 65, "velocity": 92, "channel": 0}, {"type": "note_on", "time": 368, "note": 66, "velocity": 103, "channel": 0}, {"type": "note_off", "time": 2720, "note": 66, "velocity": 103, "channel": 0}, {"type": "note_on", "time": 895, "note": 57, "velocity": 97, "channel": 0}, {"type": "note_off", "time": 930, "note": 57, "velocity": 97, "channel": 0}, {"type": "note_on", "time": 4467, "note": 57, "velocity": 91, "channel": 0}, {"type": "note_off", "time": 1307, "note": 57, "velocity": 91, "channel": 0}, {"type": "note_on", "time": 248, "note": 62, "velocity": 97, "channel": 0}, {"type": "note_off", "time": 3258, "note": 62, "velocity": 97, "channel": 0}, {"type": "note_on", "time": 592, "note": 57, "velocity": 89, "channel": 0}, {"type": "note_off", "time": 1086, "note": 57, "velocity": 89, "channel": 0}, {"type": "note_on", "time": 177, "note": 65, "velocity": 97, "channel": 0}, {"type": "note_off", "time": 3414, "note": 65, "velocity": 97, "channel": 0}, {"type": "note_on", "time": 509, "note": 66, "velocity": 103, "channel": 0}, {"type": "note_off", "time": 1141, "note": 66, "velocity": 103, "channel": 0}, {"type": "note_on", "time": 3719, "note": 57, "velocity": 96, "channel": 0}, {"type": "note_off", "time": 1481, "note": 57, "velocity": 96, "channel": 0}, {"type": "note_on", "time": 3678, "note": 57, "velocity": 99, "channel": 0}, {"type": "note_off", "time": 1357, "note": 57, "velocity": 99, "channel": 0}, {"type": "note_on", "time": 222, "note": 62, "velocity": 97, "channel": 0}, {"type": "note_off", "time": 2986, "note": 62, "velocity": 97, "channel": 0}, {"type": "note_on", "time": 691, "note": 57, "velocity": 89, "channel": 0}, {"type": "note_off", "time": 1160, "note": 57, "velocity": 89, "channel": 0}, {"type": "note_on", "time": 222, "note": 65, "velocity": 96, "channel": 0}, {"type": "note_off", "time": 3036, "note": 65, "velocity": 96, "channel": 0}, {"type": "note_on", "time": 2394, "note": 66, "velocity": 103, "channel": 0}, {"type": "note_off", "time": 2172, "note": 66, "velocity": 103, "channel": 0}, {"type": "note_on", "time": 3135, "note": 66, "velocity": 94, "channel": 0}, {"type": "note_off", "time": 1703, "note": 66, "velocity": 94, "channel": 0}, {"type": "note_on", "time": 1604, "note": 67, "velocity": 95, "channel": 0}, {"type": "note_off", "time": 1925, "note": 67, "velocity": 95, "channel": 0}, {"type": "note_on", "time": 345, "note": 66, "velocity": 94, "channel": 0}, {"type": "note_off", "time": 2369, "note": 66, "velocity": 94, "channel": 0}, {"type": "note_on", "time": 592, "note": 64, "velocity": 104, "channel": 0}, {"type": "note_off", "time": 1505, "note": 64, "velocity": 104, "channel": 0}, {"type": "note_on", "time": 469, "note": 62, "velocity": 96, "channel": 0}, {"type": "note_off", "time": 1777, "note": 62, "velocity": 96, "channel": 0}, {"type": "note_on", "time": 1530, "note": 61, "velocity": 103, "channel": 0}, {"type": "note_off", "time": 1604, "note": 61, "velocity": 103, "channel": 0}, {"type": "note_on", "time": 567, "note": 60, "velocity": 102, "channel": 0}, {"type": "note_off", "time": 1999, "note": 60, "velocity": 102, "channel": 0}, {"type": "note_on", "time": 2739, "note": 64, "velocity": 104, "channel": 0}, {"type": "note_off", "time": 2246, "note": 64, "velocity": 104, "channel": 0}, {"type": "note_on", "time": 2949, "note": 69, "velocity": 108, "channel": 0}, {"type": "note_off", "time": 1228, "note": 69, "velocity": 108, "channel": 0}, {"type": "note_on", "time": 210, "note": 71, "velocity": 97, "channel": 0}, {"type": "note_off", "time": 4002, "note": 71, "velocity": 97, "channel": 0}, {"type": "note_on", "time": 175, "note": 74, "velocity": 115, "channel": 0}, {"type": "note_off", "time": 2317, "note": 74, "velocity": 115, "channel": 0}, {"type": "note_on", "time": 1966, "note": 71, "velocity": 106, "channel": 0}, {"type": "note_off", "time": 1439, "note": 71, "velocity": 106, "channel": 0}, {"type": "note_on", "time": 3581, "note": 69, "velocity": 96, "channel": 0}, {"type": "note_off", "time": 2211, "note": 69, "velocity": 96, "channel": 0}, {"type": "note_on", "time": 3054, "note": 68, "velocity": 87, "channel": 0}, {"type": "note_off", "time": 1193, "note": 68, "velocity": 87, "channel": 0}, {"type": "note_on", "time": 667, "note": 69, "velocity": 79, "channel": 0}, {"type": "note_off", "time": 8004, "note": 69, "velocity": 79, "channel": 0}, {"type": "note_on", "time": 23066, "note": 57, "velocity": 105, "channel": 0}, {"type": "note_off", "time": 965, "note": 57, "velocity": 105, "channel": 0}, {"type": "note_on", "time": 140, "note": 59, "velocity": 102, "channel": 0}, {"type": "note_off", "time": 2088, "note": 59, "velocity": 102, "channel": 0}, {"type": "note_on", "time": 7144, "note": 62, "velocity": 101, "channel": 0}, {"type": "note_off", "time": 7039, "note": 62, "velocity": 101, "channel": 0}, {"type": "note_on", "time": 263, "note": 59, "velocity": 91, "channel": 0}, {"type": "note_off", "time": 3528, "note": 59, "velocity": 91, "channel": 0}, {"type": "note_on", "time": 667, "note": 62, "velocity": 101, "channel": 0}, {"type": "note_off", "time": 7091, "note": 62, "velocity": 101, "channel": 0}, {"type": "note_on", "time": 27490, "note": 59, "velocity": 98, "channel": 0}, {"type": "note_off", "time": 3089, "note": 59, "velocity": 98, "channel": 0}, {"type": "note_on", "time": 631, "note": 62, "velocity": 112, "channel": 0}, {"type": "note_off", "time": 1614, "note": 62, "velocity": 112, "channel": 0}, {"type": "note_on", "time": 2000, "note": 66, "velocity": 116, "channel": 0}, {"type": "note_off", "time": 1283, "note": 66, "velocity": 116, "channel": 0}, {"type": "note_on", "time": 493, "note": 66, "velocity": 102, "channel": 0}, {"type": "note_off", "time": 2912, "note": 66, "velocity": 102, "channel": 0}, {"type": "note_on", "time": 278, "note": 64, "velocity": 102, "channel": 0}, {"type": "note_off", "time": 5038, "note": 64, "velocity": 102, "channel": 0}, {"type": "note_on", "time": 351, "note": 59, "velocity": 97, "channel": 0}, {"type": "note_off", "time": 5687, "note": 59, "velocity": 97, "channel": 0}, {"type": "note_on", "time": 473, "note": 57, "velocity": 94, "channel": 0}, {"type": "note_off", "time": 3563, "note": 57, "velocity": 94, "channel": 0}, {"type": "note_on", "time": 631, "note": 58, "velocity": 106, "channel": 0}, {"type": "note_off", "time": 3791, "note": 58, "velocity": 106, "channel": 0}, {"type": "note_on", "time": 7179, "note": 62, "velocity": 111, "channel": 0}, {"type": "note_off", "time": 6337, "note": 62, "velocity": 111, "channel": 0}, {"type": "note_on", "time": 579, "note": 58, "velocity": 94, "channel": 0}, {"type": "note_off", "time": 3423, "note": 58, "velocity": 94, "channel": 0}, {"type": "note_on", "time": 149, "note": 63, "velocity": 116, "channel": 0}, {"type": "note_off", "time": 703, "note": 63, "velocity": 116, "channel": 0}, {"type": "note_on", "time": 24, "note": 64, "velocity": 109, "channel": 0}, {"type": "note_off", "time": 3357, "note": 64, "velocity": 109, "channel": 0}, {"type": "note_on", "time": 1802, "note": 46, "velocity": 103, "channel": 0}, {"type": "note_off", "time": 11306, "note": 46, "velocity": 103, "channel": 0}, {"type": "note_on", "time": 30412, "note": 63, "velocity": 123, "channel": 0}, {"type": "note_off", "time": 2098, "note": 63, "velocity": 123, "channel": 0}, {"type": "note_on", "time": 74, "note": 64, "velocity": 102, "channel": 0}, {"type": "note_off", "time": 3925, "note": 64, "velocity": 102, "channel": 0}, {"type": "note_on", "time": 370, "note": 62, "velocity": 108, "channel": 0}, {"type": "note_off", "time": 5430, "note": 62, "velocity": 108, "channel": 0}, {"type": "note_on", "time": 864, "note": 57, "velocity": 87, "channel": 0}, {"type": "note_off", "time": 22019, "note": 57, "velocity": 87, "channel": 0}, {"type": "note_on", "time": 6714, "note": 63, "velocity": 119, "channel": 0}, {"type": "note_off", "time": 1160, "note": 63, "velocity": 119, "channel": 0}, {"type": "note_on", "time": 222, "note": 64, "velocity": 102, "channel": 0}, {"type": "note_off", "time": 5060, "note": 64, "velocity": 102, "channel": 0}, {"type": "note_on", "time": 370, "note": 62, "velocity": 109, "channel": 0}, {"type": "note_off", "time": 5455, "note": 62, "velocity": 109, "channel": 0}, {"type": "note_on", "time": 2369, "note": 57, "velocity": 100, "channel": 0}, {"type": "note_off", "time": 814, "note": 57, "velocity": 100, "channel": 0}, {"type": "note_on", "time": 271, "note": 56, "velocity": 96, "channel": 0}, {"type": "note_off", "time": 15897, "note": 56, "velocity": 96, "channel": 0}, {"type": "note_on", "time": 11330, "note": 63, "velocity": 127, "channel": 0}, {"type": "note_off", "time": 2567, "note": 63, "velocity": 127, "channel": 0}, {"type": "note_on", "time": 74, "note": 64, "velocity": 105, "channel": 0}, {"type": "note_off", "time": 3381, "note": 64, "velocity": 105, "channel": 0}, {"type": "note_on", "time": 320, "note": 62, "velocity": 110, "channel": 0}, {"type": "note_off", "time": 5653, "note": 62, "velocity": 110, "channel": 0}, {"type": "note_on", "time": 1012, "note": 55, "velocity": 102, "channel": 0}, {"type": "note_off", "time": 11997, "note": 55, "velocity": 102, "channel": 0}, {"type": "note_on", "time": 9790, "note": 55, "velocity": 109, "channel": 0}, {"type": "note_off", "time": 1658, "note": 55, "velocity": 109, "channel": 0}, {"type": "note_on", "time": 210, "note": 52, "velocity": 98, "channel": 0}, {"type": "note_off", "time": 1202, "note": 52, "velocity": 98, "channel": 0}, {"type": "note_on", "time": 149, "note": 55, "velocity": 106, "channel": 0}, {"type": "note_off", "time": 1781, "note": 55, "velocity": 106, "channel": 0}, {"type": "note_on", "time": 105, "note": 59, "velocity": 108, "channel": 0}, {"type": "note_off", "time": 1562, "note": 59, "velocity": 108, "channel": 0}, {"type": "note_on", "time": 122, "note": 55, "velocity": 100, "channel": 0}, {"type": "note_off", "time": 1272, "note": 55, "velocity": 100, "channel": 0}, {"type": "note_on", "time": 184, "note": 59, "velocity": 108, "channel": 0}, {"type": "note_off", "time": 1588, "note": 59, "velocity": 108, "channel": 0}, {"type": "note_on", "time": 324, "note": 62, "velocity": 117, "channel": 0}, {"type": "note_off", "time": 1632, "note": 62, "velocity": 117, "channel": 0}, {"type": "note_on", "time": 193, "note": 59, "velocity": 103, "channel": 0}, {"type": "note_off", "time": 781, "note": 59, "velocity": 103, "channel": 0}, {"type": "note_on", "time": 248, "note": 62, "velocity": 119, "channel": 0}, {"type": "note_off", "time": 1876, "note": 62, "velocity": 119, "channel": 0}, {"type": "note_on", "time": 197, "note": 67, "velocity": 113, "channel": 0}, {"type": "note_off", "time": 1653, "note": 67, "velocity": 113, "channel": 0}, {"type": "note_on", "time": 544, "note": 62, "velocity": 81, "channel": 0}, {"type": "note_off", "time": 658, "note": 62, "velocity": 81, "channel": 0}, {"type": "note_on", "time": 544, "note": 67, "velocity": 115, "channel": 0}, {"type": "note_off", "time": 1729, "note": 67, "velocity": 115, "channel": 0}, {"type": "note_on", "time": 2571, "note": 71, "velocity": 108, "channel": 0}, {"type": "note_off", "time": 13762, "note": 71, "velocity": 108, "channel": 0}, {"type": "note_on", "time": 10997, "note": 71, "velocity": 117, "channel": 0}, {"type": "note_off", "time": 1481, "note": 71, "velocity": 117, "channel": 0}, {"type": "note_on", "time": 222, "note": 73, "velocity": 115, "channel": 0}, {"type": "note_off", "time": 12293, "note": 73, "velocity": 115, "channel": 0}, {"type": "note_on", "time": 248, "note": 74, "velocity": 111, "channel": 0}, {"type": "note_off", "time": 45641, "note": 74, "velocity": 111, "channel": 0}, {"type": "note_on", "time": 7443, "note": 72, "velocity": 125, "channel": 0}, {"type": "note_off", "time": 3089, "note": 72, "velocity": 125, "channel": 0}, {"type": "note_on", "time": 280, "note": 70, "velocity": 115, "channel": 0}, {"type": "note_off", "time": 6144, "note": 70, "velocity": 115, "channel": 0}, {"type": "note_on", "time": 4353, "note": 66, "velocity": 112, "channel": 0}, {"type": "note_off", "time": 2317, "note": 66, "velocity": 112, "channel": 0}, {"type": "note_on", "time": 421, "note": 68, "velocity": 108, "channel": 0}, {"type": "note_off", "time": 6424, "note": 68, "velocity": 108, "channel": 0}, {"type": "note_on", "time": 4213, "note": 70, "velocity": 113, "channel": 0}, {"type": "note_off", "time": 2211, "note": 70, "velocity": 113, "channel": 0}, {"type": "note_on", "time": 386, "note": 72, "velocity": 120, "channel": 0}, {"type": "note_off", "time": 4002, "note": 72, "velocity": 120, "channel": 0}, {"type": "note_on", "time": 280, "note": 69, "velocity": 111, "channel": 0}, {"type": "note_off", "time": 4809, "note": 69, "velocity": 111, "channel": 0}, {"type": "note_on", "time": 667, "note": 62, "velocity": 120, "channel": 0}, {"type": "note_off", "time": 2264, "note": 62, "velocity": 120, "channel": 0}, {"type": "note_on", "time": 193, "note": 64, "velocity": 118, "channel": 0}, {"type": "note_off", "time": 4722, "note": 64, "velocity": 118, "channel": 0}, {"type": "note_on", "time": 726, "note": 66, "velocity": 113, "channel": 0}, {"type": "note_off", "time": 2246, "note": 66, "velocity": 113, "channel": 0}, {"type": "note_on", "time": 197, "note": 68, "velocity": 106, "channel": 0}, {"type": "note_off", "time": 4073, "note": 68, "velocity": 106, "channel": 0}, {"type": "note_on", "time": 419, "note": 64, "velocity": 121, "channel": 0}, {"type": "note_off", "time": 1505, "note": 64, "velocity": 121, "channel": 0}, {"type": "note_on", "time": 246, "note": 59, "velocity": 104, "channel": 0}, {"type": "note_off", "time": 1530, "note": 59, "velocity": 104, "channel": 0}, {"type": "note_on", "time": 444, "note": 56, "velocity": 81, "channel": 0}, {"type": "note_off", "time": 10442, "note": 56, "velocity": 81, "channel": 0}, {"type": "note_on", "time": 9553, "note": 57, "velocity": 102, "channel": 0}, {"type": "note_off", "time": 6566, "note": 57, "velocity": 102, "channel": 0}, {"type": "note_on", "time": 246, "note": 59, "velocity": 101, "channel": 0}, {"type": "note_off", "time": 6146, "note": 59, "velocity": 101, "channel": 0}, {"type": "note_on", "time": 765, "note": 60, "velocity": 112, "channel": 0}, {"type": "note_off", "time": 987, "note": 60, "velocity": 112, "channel": 0}, {"type": "note_on", "time": 296, "note": 61, "velocity": 100, "channel": 0}, {"type": "note_off", "time": 4789, "note": 61, "velocity": 100, "channel": 0}, {"type": "note_on", "time": 320, "note": 62, "velocity": 101, "channel": 0}, {"type": "note_off", "time": 7035, "note": 62, "velocity": 101, "channel": 0}, {"type": "note_on", "time": 370, "note": 63, "velocity": 102, "channel": 0}, {"type": "note_off", "time": 6467, "note": 63, "velocity": 102, "channel": 0}, {"type": "note_on", "time": 320, "note": 64, "velocity": 88, "channel": 0}, {"type": "note_off", "time": 52333, "note": 64, "velocity": 88, "channel": 0}, {"type": "end_of_track", "time": 0}]]}