{"ticks_per_beat": 192, "tracks": [[{"type": "track_name", "name": "Melody", "time": 0}, {"type": "set_tempo", "tempo": 241935, "time": 0}, {"type": "key_signature", "key": "C", "time": 0}, {"type": "time_signature", "numerator": 4, "denominator": 4, "clocks_per_click": 24, "notated_32nd_notes_per_beat": 8, "time": 0}, {"type": "note_on", "time": 3055, "note": 67, "velocity": 97, "channel": 0}, {"type": "note_off", "time": 79, "note": 67, "velocity": 97, "channel": 0}, {"type": "note_on", "time": 76, "note": 68, "velocity": 106, "channel": 0}, {"type": "note_off", "time": 115, "note": 68, "velocity": 106, "channel": 0}, {"type": "note_on", "time": 16, "note": 67, "velocity": 96, "channel": 0}, {"type": "note_off", "time": 147, "note": 67, "velocity": 96, "channel": 0}, {"type": "note_on", "time": 301, "note": 67, "velocity": 101, "channel": 0}, {"type": "note_off", "time": 114, "note": 67, "velocity": 101, "channel": 0}, {"type": "note_on", "time": 48, "note": 68, "velocity": 104, "channel": 0}, {"type": "note_off", "time": 105, "note": 68, "velocity": 104, "channel": 0}, {"type": "note_on", "time": 57, "note": 70, "velocity": 86, "channel": 0}, {"type": "note_off", "time": 66, "note": 70, "velocity": 86, "channel": 0}, {"type": "note_on", "time": 408, "note": 70, "velocity": 99, "channel": 0}, {"type": "note_off", "time": 56, "note": 70, "velocity": 99, "channel": 0}, {"type": "note_on", "time": 9, "note": 67, "velocity": 97, "channel": 0}, {"type": "note_off", "time": 29, "note": 67, "velocity": 97, "channel": 0}, {"type": "note_on", "time": 13, "note": 68, "velocity": 105, "channel": 0}, {"type": "note_off", "time": 195, "note": 68, "velocity": 105, "channel": 0}, {"type": "note_on", "time": 18, "note": 67, "velocity": 103, "channel": 0}, {"type": "note_off", "time": 47, "note": 67, "velocity": 103, "channel": 0}, {"type": "note_on", "time": 8, "note": 68, "velocity": 91, "channel": 0}, {"type": "note_off", "time": 143, "note": 68, "velocity": 91, "channel": 0}, {"type": "note_on", "time": 29, "note": 73, "velocity": 114, "channel": 0}, {"type": "note_off", "time": 139, "note": 73, "velocity": 114, "channel": 0}, {"type": "note_on", "time": 10, "note": 74, "velocity": 114, "channel": 0}, {"type": "note_off", "time": 102, "note": 74, "velocity": 114, "channel": 0}, {"type": "note_on", "time": 51, "note": 72, "velocity": 104, "channel": 0}, {"type": "note_off", "time": 56, "note": 72, "velocity": 104, "channel": 0}, {"type": "note_on", "time": 14, "note": 69, "velocity": 87, "channel": 0}, {"type": "note_off", "time": 164, "note": 69, "velocity": 87, "channel": 0}, {"type": "note_on", "time": 43, "note": 64, "velocity": 88, "channel": 0}, {"type": "note_off", "time": 81, "note": 64, "velocity": 88, "channel": 0}, {"type": "note_on", "time": 16, "note": 67, "velocity": 94, "channel": 0}, {"type": "note_off", "time": 300, "note": 67, "velocity": 94, "channel": 0}, {"type": "note_on", "time": 343, "note": 75, "velocity": 124, "channel": 0}, {"type": "note_off", "time": 86, "note": 75, "velocity": 124, "channel": 0}, {"type": "note_on", "time": 27, "note": 75, "velocity": 115, "channel": 0}, {"type": "note_off", "time": 229, "note": 75, "velocity": 115, "channel": 0}, {"type": "note_on", "time": 6, "note": 76, "velocity": 104, "channel": 0}, {"type": "note_off", "time": 126, "note": 76, "velocity": 104, "channel": 0}, {"type": "note_on", "time": 25, "note": 74, "velocity": 103, "channel": 0}, {"type": "note_off", "time": 74, "note": 74, "velocity": 103, "channel": 0}, {"type": "note_on", "time": 12, "note": 72, "velocity": 104, "channel": 0}, {"type": "note_off", "time": 103, "note": 72, "velocity": 104, "channel": 0}, {"type": "note_on", "time": 94, "note": 69, "velocity": 105, "channel": 0}, {"type": "note_off", "time": 88, "note": 69, "velocity": 105, "channel": 0}, {"type": "note_on", "time": 8, "note": 70, "velocity": 93, "channel": 0}, {"type": "note_off", "time": 17, "note": 70, "velocity": 93, "channel": 0}, {"type": "note_on", "time": 3, "note": 68, "velocity": 88, "channel": 0}, {"type": "note_off", "time": 26, "note": 68, "velocity": 88, "channel": 0}, {"type": "note_on", "time": 10, "note": 69, "velocity": 99, "channel": 0}, {"type": "note_off", "time": 69, "note": 69, "velocity": 99, "channel": 0}, {"type": "note_on", "time": 7, "note": 68, "velocity": 95, "channel": 0}, {"type": "note_off", "time": 72, "note": 68, "velocity": 95, "channel": 0}, {"type": "note_on", "time": 27, "note": 65, "velocity": 87, "channel": 0}, {"type": "note_off", "time": 33, "note": 65, "velocity": 87, "channel": 0}, {"type": "note_on", "time": 14, "note": 63, "velocity": 83, "channel": 0}, {"type": "note_off", "time": 102, "note": 63, "velocity": 83, "channel": 0}, {"type": "note_on", "time": 8, "note": 64, "velocity": 81, "channel": 0}, {"type": "note_off", "time": 72, "note": 64, "velocity": 81, "channel": 0}, {"type": "note_on", "time": 4, "note": 67, "velocity": 100, "channel": 0}, {"type": "note_off", "time": 111, "note": 67, "velocity": 100, "channel": 0}, {"type": "note_on", "time": 76, "note": 64, "velocity": 89, "channel": 0}, {"type": "note_off", "time": 85, "note": 64, "velocity": 89, "channel": 0}, {"type": "note_on", "time": 38, "note": 68, "velocity": 73, "channel": 0}, {"type": "note_off", "time": 47, "note": 68, "velocity": 73, "channel": 0}, {"type": "note_on", "time": 10, "note": 72, "velocity": 114, "channel": 0}, {"type": "note_off", "time": 114, "note": 72, "velocity": 114, "channel": 0}, {"type": "note_on", "time": 25, "note": 72, "velocity": 116, "channel": 0}, {"type": "note_off", "time": 90, "note": 72, "velocity": 116, "channel": 0}, {"type": "note_on", "time": 73, "note": 72, "velocity": 91, "channel": 0}, {"type": "note_off", "time": 278, "note": 72, "velocity": 91, "channel": 0}, {"type": "note_on", "time": 376, "note": 75, "velocity": 122, "channel": 0}, {"type": "note_off", "time": 87, "note": 75, "velocity": 122, "channel": 0}, {"type": "note_on", "time": 76, "note": 76, "velocity": 111, "channel": 0}, {"type": "note_off", "time": 140, "note": 76, "velocity": 111, "channel": 0}, {"type": "note_on", "time": 22, "note": 72, "velocity": 102, "channel": 0}, {"type": "note_off", "time": 113, "note": 72, "velocity": 102, "channel": 0}, {"type": "note_on", "time": 32, "note": 75, "velocity": 101, "channel": 0}, {"type": "note_off", "time": 87, "note": 75, "velocity": 101, "channel": 0}, {"type": "note_on", "time": 30, "note": 76, "velocity": 111, "channel": 0}, {"type": "note_off", "time": 140, "note": 76, "velocity": 111, "channel": 0}, {"type": "note_on", "time": 8, "note": 76, "velocity": 116, "channel": 0}, {"type": "note_off", "time": 84, "note": 76, "velocity": 116, "channel": 0}, {"type": "note_on", "time": 17, "note": 76, "velocity": 99, "channel": 0}, {"type": "note_off", "time": 173, "note": 76, "velocity": 99, "channel": 0}, {"type": "note_on", "time": 35, "note": 72, "velocity": 94, "channel": 0}, {"type": "note_off", "time": 276, "note": 72, "velocity": 94, "channel": 0}, {"type": "note_on", "time": 166, "note": 75, "velocity": 119, "channel": 0}, {"type": "note_off", "time": 142, "note": 75, "velocity": 119, "channel": 0}, {"type": "note_on", "time": 43, "note": 76, "velocity": 116, "channel": 0}, {"type": "note_off", "time": 129, "note": 76, "velocity": 116, "channel": 0}, {"type": "note_on", "time": 25, "note": 72, "velocity": 108, "channel": 0}, {"type": "note_off", "time": 119, "note": 72, "velocity": 108, "channel": 0}, {"type": "note_on", "time": 34, "note": 75, "velocity": 115, "channel": 0}, {"type": "note_off", "time": 84, "note": 75, "velocity": 115, "channel": 0}, {"type": "note_on", "time": 14, "note": 76, "velocity": 120, "channel": 0}, {"type": "note_off", "time": 76, "note": 76, "velocity": 120, "channel": 0}, {"type": "note_on", "time": 14, "note": 76, "velocity": 116, "channel": 0}, {"type": "note_off", "time": 84, "note": 76, "velocity": 116, "channel": 0}, {"type": "note_on", "time": 19, "note": 76, "velocity": 118, "channel": 0}, {"type": "note_off", "time": 140, "note": 76, "velocity": 118, "channel": 0}, {"type": "note_on", "time": 37, "note": 76, "velocity": 115, "channel": 0}, {"type": "note_off", "time": 98, "note": 76, "velocity": 115, "channel": 0}, {"type": "note_on", "time": 42, "note": 72, "velocity": 95, "channel": 0}, {"type": "note_off", "time": 116, "note": 72, "velocity": 95, "channel": 0}, {"type": "note_on", "time": 45, "note": 72, "velocity": 92, "channel": 0}, {"type": "note_off", "time": 273, "note": 72, "velocity": 92, "channel": 0}, {"type": "note_on", "time": 341, "note": 75, "velocity": 104, "channel": 0}, {"type": "note_off", "time": 174, "note": 75, "velocity": 104, "channel": 0}, {"type": "note_on", "time": 34, "note": 76, "velocity": 116, "channel": 0}, {"type": "note_off", "time": 270, "note": 76, "velocity": 116, "channel": 0}, {"type": "note_on", "time": 25, "note": 74, "velocity": 117, "channel": 0}, {"type": "note_off", "time": 72, "note": 74, "velocity": 117, "channel": 0}, {"type": "note_on", "time": 30, "note": 72, "velocity": 105, "channel": 0}, {"type": "note_off", "time": 121, "note": 72, "velocity": 105, "channel": 0}, {"type": "note_on", "time": 27, "note": 69, "velocity": 103, "channel": 0}, {"type": "note_off", "time": 89, "note": 69, "velocity": 103, "channel": 0}, {"type": "note_on", "time": 12, "note": 68, "velocity": 86, "channel": 0}, {"type": "note_off", "time": 16, "note": 68, "velocity": 86, "channel": 0}, {"type": "note_on", "time": 10, "note": 69, "velocity": 95, "channel": 0}, {"type": "note_off", "time": 59, "note": 69, "velocity": 95, "channel": 0}, {"type": "note_on", "time": 23, "note": 68, "velocity": 94, "channel": 0}, {"type": "note_off", "time": 54, "note": 68, "velocity": 94, "channel": 0}, {"type": "note_on", "time": 6, "note": 69, "velocity": 82, "channel": 0}, {"type": "note_off", "time": 46, "note": 69, "velocity": 82, "channel": 0}, {"type": "note_on", "time": 27, "note": 65, "velocity": 91, "channel": 0}, {"type": "note_off", "time": 28, "note": 65, "velocity": 91, "channel": 0}, {"type": "note_on", "time": 11, "note": 63, "velocity": 97, "channel": 0}, {"type": "note_off", "time": 94, "note": 63, "velocity": 97, "channel": 0}, {"type": "note_on", "time": 25, "note": 65, "velocity": 78, "channel": 0}, {"type": "note_off", "time": 70, "note": 65, "velocity": 78, "channel": 0}, {"type": "note_on", "time": 29, "note": 67, "velocity": 107, "channel": 0}, {"type": "note_off", "time": 107, "note": 67, "velocity": 107, "channel": 0}, {"type": "note_on", "time": 54, "note": 67, "velocity": 108, "channel": 0}, {"type": "note_off", "time": 114, "note": 67, "velocity": 108, "channel": 0}, {"type": "note_on", "time": 76, "note": 68, "velocity": 109, "channel": 0}, {"type": "note_off", "time": 139, "note": 68, "velocity": 109, "channel": 0}, {"type": "note_on", "time": 20, "note": 67, "velocity": 94, "channel": 0}, {"type": "note_off", "time": 82, "note": 67, "velocity": 94, "channel": 0}, {"type": "note_on", "time": 73, "note": 72, "velocity": 91, "channel": 0}, {"type": "note_off", "time": 285, "note": 72, "velocity": 91, "channel": 0}, {"type": "note_on", "time": 368, "note": 68, "velocity": 104, "channel": 0}, {"type": "note_off", "time": 87, "note": 68, "velocity": 104, "channel": 0}, {"type": "note_on", "time": 76, "note": 67, "velocity": 101, "channel": 0}, {"type": "note_off", "time": 12, "note": 67, "velocity": 101, "channel": 0}, {"type": "note_on", "time": 14, "note": 68, "velocity": 104, "channel": 0}, {"type": "note_off", "time": 72, "note": 68, "velocity": 104, "channel": 0}, {"type": "note_on", "time": 87, "note": 67, "velocity": 115, "channel": 0}, {"type": "note_off", "time": 80, "note": 67, "velocity": 115, "channel": 0}, {"type": "note_on", "time": 24, "note": 67, "velocity": 106, "channel": 0}, {"type": "note_off", "time": 82, "note": 67, "velocity": 106, "channel": 0}, {"type": "note_on", "time": 24, "note": 68, "velocity": 113, "channel": 0}, {"type": "note_off", "time": 268, "note": 68, "velocity": 113, "channel": 0}, {"type": "note_on", "time": 18, "note": 68, "velocity": 110, "channel": 0}, {"type": "note_off", "time": 81, "note": 68, "velocity": 110, "channel": 0}, {"type": "note_on", "time": 19, "note": 67, "velocity": 109, "channel": 0}, {"type": "note_off", "time": 160, "note": 67, "velocity": 109, "channel": 0}, {"type": "note_on", "time": 10, "note": 74, "velocity": 118, "channel": 0}, {"type": "note_off", "time": 123, "note": 74, "velocity": 118, "channel": 0}, {"type": "note_on", "time": 33, "note": 72, "velocity": 110, "channel": 0}, {"type": "note_off", "time": 118, "note": 72, "velocity": 110, "channel": 0}, {"type": "note_on", "time": 58, "note": 68, "velocity": 110, "channel": 0}, {"type": "note_off", "time": 239, "note": 68, "velocity": 110, "channel": 0}, {"type": "note_on", "time": 23, "note": 67, "velocity": 101, "channel": 0}, {"type": "note_off", "time": 226, "note": 67, "velocity": 101, "channel": 0}, {"type": "note_on", "time": 145, "note": 69, "velocity": 96, "channel": 0}, {"type": "note_off", "time": 100, "note": 69, "velocity": 96, "channel": 0}, {"type": "note_on", "time": 19, "note": 72, "velocity": 101, "channel": 0}, {"type": "note_off", "time": 52, "note": 72, "velocity": 101, "channel": 0}, {"type": "note_on", "time": 11, "note": 75, "velocity": 119, "channel": 0}, {"type": "note_off", "time": 123, "note": 75, "velocity": 119, "channel": 0}, {"type": "note_on", "time": 20, "note": 79, "velocity": 104, "channel": 0}, {"type": "note_off", "time": 154, "note": 79, "velocity": 104, "channel": 0}, {"type": "note_on", "time": 34, "note": 74, "velocity": 119, "channel": 0}, {"type": "note_off", "time": 70, "note": 74, "velocity": 119, "channel": 0}, {"type": "note_on", "time": 8, "note": 75, "velocity": 119, "channel": 0}, {"type": "note_off", "time": 166, "note": 75, "velocity": 119, "channel": 0}, {"type": "note_on", "time": 25, "note": 73, "velocity": 111, "channel": 0}, {"type": "note_off", "time": 118, "note": 73, "velocity": 111, "channel": 0}, {"type": "note_on", "time": 54, "note": 65, "velocity": 97, "channel": 0}, {"type": "note_off", "time": 188, "note": 65, "velocity": 97, "channel": 0}, {"type": "note_on", "time": 6, "note": 68, "velocity": 92, "channel": 0}, {"type": "note_off", "time": 293, "note": 68, "velocity": 92, "channel": 0}, {"type": "note_on", "time": 88, "note": 70, "velocity": 120, "channel": 0}, {"type": "note_off", "time": 291, "note": 70, "velocity": 120, "channel": 0}, {"type": "note_on", "time": 25, "note": 68, "velocity": 106, "channel": 0}, {"type": "note_off", "time": 61, "note": 68, "velocity": 106, "channel": 0}, {"type": "note_on", "time": 13, "note": 67, "velocity": 103, "channel": 0}, {"type": "note_off", "time": 110, "note": 67, "velocity": 103, "channel": 0}, {"type": "note_on", "time": 66, "note": 65, "velocity": 81, "channel": 0}, {"type": "note_off", "time": 114, "note": 65, "velocity": 81, "channel": 0}, {"type": "note_on", "time": 11, "note": 70, "velocity": 103, "channel": 0}, {"type": "note_off", "time": 254, "note": 70, "velocity": 103, "channel": 0}, {"type": "note_on", "time": 33, "note": 66, "velocity": 90, "channel": 0}, {"type": "note_off", "time": 118, "note": 66, "velocity": 90, "channel": 0}, {"type": "note_on", "time": 41, "note": 65, "velocity": 104, "channel": 0}, {"type": "note_off", "time": 148, "note": 65, "velocity": 104, "channel": 0}, {"type": "note_on", "time": 11, "note": 63, "velocity": 96, "channel": 0}, {"type": "note_off", "time": 79, "note": 63, "velocity": 96, "channel": 0}, {"type": "note_on", "time": 66, "note": 63, "velocity": 99, "channel": 0}, {"type": "note_off", "time": 78, "note": 63, "velocity": 99, "channel": 0}, {"type": "note_on", "time": 12, "note": 67, "velocity": 106, "channel": 0}, {"type": "note_off", "time": 93, "note": 67, "velocity": 106, "channel": 0}, {"type": "note_on", "time": 24, "note": 70, "velocity": 102, "channel": 0}, {"type": "note_off", "time": 69, "note": 70, "velocity": 102, "channel": 0}, {"type": "note_on", "time": 10, "note": 75, "velocity": 113, "channel": 0}, {"type": "note_off", "time": 161, "note": 75, "velocity": 113, "channel": 0}, {"type": "note_on", "time": 31, "note": 74, "velocity": 113, "channel": 0}, {"type": "note_off", "time": 131, "note": 74, "velocity": 113, "channel": 0}, {"type": "note_on", "time": 231, "note": 67, "velocity": 101, "channel": 0}, {"type": "note_off", "time": 63, "note": 67, "velocity": 101, "channel": 0}, {"type": "note_on", "time": 5, "note": 68, "velocity": 118, "channel": 0}, {"type": "note_off", "time": 302, "note": 68, "velocity": 118, "channel": 0}, {"type": "note_on", "time": 24, "note": 67, "velocity": 87, "channel": 0}, {"type": "note_off", "time": 357, "note": 67, "velocity": 87, "channel": 0}, {"type": "note_on", "time": 613, "note": 76, "velocity": 111, "channel": 0}, {"type": "note_off", "time": 158, "note": 76, "velocity": 111, "channel": 0}, {"type": "note_on", "time": 34, "note": 79, "velocity": 124, "channel": 0}, {"type": "note_off", "time": 93, "note": 79, "velocity": 124, "channel": 0}, {"type": "note_on", "time": 42, "note": 79, "velocity": 119, "channel": 0}, {"type": "note_off", "time": 100, "note": 79, "velocity": 119, "channel": 0}, {"type": "note_on", "time": 58, "note": 79, "velocity": 125, "channel": 0}, {"type": "note_off", "time": 64, "note": 79, "velocity": 125, "channel": 0}, {"type": "note_on", "time": 42, "note": 79, "velocity": 127, "channel": 0}, {"type": "note_off", "time": 110, "note": 79, "velocity": 127, "channel": 0}, {"type": "note_on", "time": 68, "note": 79, "velocity": 118, "channel": 0}, {"type": "note_off", "time": 142, "note": 79, "velocity": 118, "channel": 0}, {"type": "note_on", "time": 48, "note": 79, "velocity": 121, "channel": 0}, {"type": "note_off", "time": 168, "note": 79, "velocity": 121, "channel": 0}, {"type": "note_on", "time": 7, "note": 80, "velocity": 96, "channel": 0}, {"type": "note_off", "time": 99, "note": 80, "velocity": 96, "channel": 0}, {"type": "note_on", "time": 33, "note": 77, "velocity": 115, "channel": 0}, {"type": "note_off", "time": 86, "note": 77, "velocity": 115, "channel": 0}, {"type": "note_on", "time": 6, "note": 76, "velocity": 112, "channel": 0}, {"type": "note_off", "time": 67, "note": 76, "velocity": 112, "channel": 0}, {"type": "note_on", "time": 12, "note": 74, "velocity": 116, "channel": 0}, {"type": "note_off", "time": 77, "note": 74, "velocity": 116, "channel": 0}, {"type": "note_on", "time": 20, "note": 72, "velocity": 117, "channel": 0}, {"type": "note_off", "time": 84, "note": 72, "velocity": 117, "channel": 0}, {"type": "note_on", "time": 21, "note": 71, "velocity": 102, "channel": 0}, {"type": "note_off", "time": 54, "note": 71, "velocity": 102, "channel": 0}, {"type": "note_on", "time": 18, "note": 70, "velocity": 107, "channel": 0}, {"type": "note_off", "time": 99, "note": 70, "velocity": 107, "channel": 0}, {"type": "note_on", "time": 21, "note": 69, "velocity": 101, "channel": 0}, {"type": "note_off", "time": 70, "note": 69, "velocity": 101, "channel": 0}, {"type": "note_on", "time": 27, "note": 68, "velocity": 103, "channel": 0}, {"type": "note_off", "time": 139, "note": 68, "velocity": 103, "channel": 0}, {"type": "note_on", "time": 38, "note": 67, "velocity": 105, "channel": 0}, {"type": "note_off", "time": 369, "note": 67, "velocity": 105, "channel": 0}, {"type": "note_on", "time": 18, "note": 75, "velocity": 119, "channel": 0}, {"type": "note_off", "time": 119, "note": 75, "velocity": 119, "channel": 0}, {"type": "note_on", "time": 13, "note": 76, "velocity": 119, "channel": 0}, {"type": "note_off", "time": 145, "note": 76, "velocity": 119, "channel": 0}, {"type": "note_on", "time": 14, "note": 74, "velocity": 111, "channel": 0}, {"type": "note_off", "time": 61, "note": 74, "velocity": 111, "channel": 0}, {"type": "note_on", "time": 13, "note": 75, "velocity": 109, "channel": 0}, {"type": "note_off", "time": 28, "note": 75, "velocity": 109, "channel": 0}, {"type": "note_on", "time": 5, "note": 74, "velocity": 85, "channel": 0}, {"type": "note_off", "time": 21, "note": 74, "velocity": 85, "channel": 0}, {"type": "note_on", "time": 5, "note": 72, "velocity": 101, "channel": 0}, {"type": "note_off", "time": 57, "note": 72, "velocity": 101, "channel": 0}, {"type": "note_on", "time": 6, "note": 70, "velocity": 97, "channel": 0}, {"type": "note_off", "time": 36, "note": 70, "velocity": 97, "channel": 0}, {"type": "note_on", "time": 14, "note": 68, "velocity": 111, "channel": 0}, {"type": "note_off", "time": 208, "note": 68, "velocity": 111, "channel": 0}, {"type": "note_on", "time": 13, "note": 67, "velocity": 103, "channel": 0}, {"type": "note_off", "time": 85, "note": 67, "velocity": 103, "channel": 0}, {"type": "note_on", "time": 8, "note": 68, "velocity": 90, "channel": 0}, {"type": "note_off", "time": 36, "note": 68, "velocity": 90, "channel": 0}, {"type": "note_on", "time": 6, "note": 65, "velocity": 92, "channel": 0}, {"type": "note_off", "time": 40, "note": 65, "velocity": 92, "channel": 0}, {"type": "note_on", "time": 12, "note": 63, "velocity": 105, "channel": 0}, {"type": "note_off", "time": 73, "note": 63, "velocity": 105, "channel": 0}, {"type": "note_on", "time": 43, "note": 65, "velocity": 88, "channel": 0}, {"type": "note_off", "time": 66, "note": 65, "velocity": 88, "channel": 0}, {"type": "note_on", "time": 11, "note": 67, "velocity": 89, "channel": 0}, {"type": "note_off", "time": 179, "note": 67, "velocity": 89, "channel": 0}, {"type": "note_on", "time": 8, "note": 68, "velocity": 114, "channel": 0}, {"type": "note_off", "time": 199, "note": 68, "velocity": 114, "channel": 0}, {"type": "note_on", "time": 14, "note": 67, "velocity": 114, "channel": 0}, {"type": "note_off", "time": 171, "note": 67, "velocity": 114, "channel": 0}, {"type": "note_on", "time": 116, "note": 72, "velocity": 102, "channel": 0}, {"type": "note_off", "time": 284, "note": 72, "velocity": 102, "channel": 0}, {"type": "note_on", "time": 290, "note": 81, "velocity": 92, "channel": 0}, {"type": "note_off", "time": 73, "note": 81, "velocity": 92, "channel": 0}, {"type": "note_on", "time": 208, "note": 84, "velocity": 121, "channel": 0}, {"type": "note_off", "time": 122, "note": 84, "velocity": 121, "channel": 0}, {"type": "note_on", "time": 435, "note": 79, "velocity": 111, "channel": 0}, {"type": "note_off", "time": 180, "note": 79, "velocity": 111, "channel": 0}, {"type": "note_on", "time": 29, "note": 84, "velocity": 110, "channel": 0}, {"type": "note_off", "time": 186, "note": 84, "velocity": 110, "channel": 0}, {"type": "note_on", "time": 378, "note": 79, "velocity": 104, "channel": 0}, {"type": "note_off", "time": 185, "note": 79, "velocity": 104, "channel": 0}, {"type": "note_on", "time": 24, "note": 84, "velocity": 111, "channel": 0}, {"type": "note_off", "time": 165, "note": 84, "velocity": 111, "channel": 0}, {"type": "note_on", "time": 388, "note": 79, "velocity": 102, "channel": 0}, {"type": "note_off", "time": 177, "note": 79, "velocity": 102, "channel": 0}, {"type": "note_on", "time": 27, "note": 84, "velocity": 104, "channel": 0}, {"type": "note_off", "time": 169, "note": 84, "velocity": 104, "channel": 0}, {"type": "note_on", "time": 397, "note": 79, "velocity": 105, "channel": 0}, {"type": "note_off", "time": 161, "note": 79, "velocity": 105, "channel": 0}, {"type": "note_on", "time": 24, "note": 84, "velocity": 113, "channel": 0}, {"type": "note_off", "time": 171, "note": 84, "velocity": 113, "channel": 0}, {"type": "note_on", "time": 18, "note": 86, "velocity": 112, "channel": 0}, {"type": "note_off", "time": 126, "note": 86, "velocity": 112, "channel": 0}, {"type": "note_on", "time": 40, "note": 87, "velocity": 107, "channel": 0}, {"type": "note_off", "time": 173, "note": 87, "velocity": 107, "channel": 0}, {"type": "note_on", "time": 35, "note": 86, "velocity": 123, "channel": 0}, {"type": "note_off", "time": 118, "note": 86, "velocity": 123, "channel": 0}, {"type": "note_on", "time": 24, "note": 84, "velocity": 118, "channel": 0}, {"type": "note_off", "time": 155, "note": 84, "velocity": 118, "channel": 0}, {"type": "note_on", "time": 47, "note": 82, "velocity": 122, "channel": 0}, {"type": "note_off", "time": 219, "note": 82, "velocity": 122, "channel": 0}, {"type": "note_on", "time": 29, "note": 80, "velocity": 122, "channel": 0}, {"type": "note_off", "time": 89, "note": 80, "velocity": 122, "channel": 0}, {"type": "note_on", "time": 8, "note": 79, "velocity": 111, "channel": 0}, {"type": "note_off", "time": 16, "note": 79, "velocity": 111, "channel": 0}, {"type": "note_on", "time": 12, "note": 77, "velocity": 94, "channel": 0}, {"type": "note_off", "time": 59, "note": 77, "velocity": 94, "channel": 0}, {"type": "note_on", "time": 8, "note": 75, "velocity": 115, "channel": 0}, {"type": "note_off", "time": 135, "note": 75, "velocity": 115, "channel": 0}, {"type": "note_on", "time": 21, "note": 75, "velocity": 114, "channel": 0}, {"type": "note_off", "time": 194, "note": 75, "velocity": 114, "channel": 0}, {"type": "note_on", "time": 14, "note": 72, "velocity": 110, "channel": 0}, {"type": "note_off", "time": 100, "note": 72, "velocity": 110, "channel": 0}, {"type": "note_on", "time": 8, "note": 74, "velocity": 113, "channel": 0}, {"type": "note_off", "time": 70, "note": 74, "velocity": 113, "channel": 0}, {"type": "note_on", "time": 21, "note": 72, "velocity": 115, "channel": 0}, {"type": "note_off", "time": 109, "note": 72, "velocity": 115, "channel": 0}, {"type": "note_on", "time": 21, "note": 70, "velocity": 105, "channel": 0}, {"type": "note_off", "time": 254, "note": 70, "velocity": 105, "channel": 0}, {"type": "note_on", "time": 14, "note": 67, "velocity": 103, "channel": 0}, {"type": "note_off", "time": 171, "note": 67, "velocity": 103, "channel": 0}, {"type": "note_on", "time": 413, "note": 75, "velocity": 108, "channel": 0}, {"type": "note_off", "time": 158, "note": 75, "velocity": 108, "channel": 0}, {"type": "note_on", "time": 19, "note": 76, "velocity": 119, "channel": 0}, {"type": "note_off", "time": 156, "note": 76, "velocity": 119, "channel": 0}, {"type": "note_on", "time": 38, "note": 79, "velocity": 102, "channel": 0}, {"type": "note_off", "time": 190, "note": 79, "velocity": 102, "channel": 0}, {"type": "note_on", "time": 5, "note": 77, "velocity": 114, "channel": 0}, {"type": "note_off", "time": 59, "note": 77, "velocity": 114, "channel": 0}, {"type": "note_on", "time": 6, "note": 76, "velocity": 118, "channel": 0}, {"type": "note_off", "time": 86, "note": 76, "velocity": 118, "channel": 0}, {"type": "note_on", "time": 6, "note": 77, "velocity": 118, "channel": 0}, {"type": "note_off", "time": 134, "note": 77, "velocity": 118, "channel": 0}, {"type": "note_on", "time": 21, "note": 75, "velocity": 104, "channel": 0}, {"type": "note_off", "time": 50, "note": 75, "velocity": 104, "channel": 0}, {"type": "note_on", "time": 20, "note": 76, "velocity": 100, "channel": 0}, {"type": "note_off", "time": 173, "note": 76, "velocity": 100, "channel": 0}, {"type": "note_on", "time": 17, "note": 79, "velocity": 118, "channel": 0}, {"type": "note_off", "time": 114, "note": 79, "velocity": 118, "channel": 0}, {"type": "note_on", "time": 18, "note": 77, "velocity": 112, "channel": 0}, {"type": "note_off", "time": 148, "note": 77, "velocity": 112, "channel": 0}, {"type": "note_on", "time": 24, "note": 75, "velocity": 111, "channel": 0}, {"type": "note_off", "time": 74, "note": 75, "velocity": 111, "channel": 0}, {"type": "note_on", "time": 6, "note": 76, "velocity": 112, "channel": 0}, {"type": "note_off", "time": 154, "note": 76, "velocity": 112, "channel": 0}, {"type": "note_on", "time": 54, "note": 79, "velocity": 120, "channel": 0}, {"type": "note_off", "time": 276, "note": 79, "velocity": 120, "channel": 0}, {"type": "note_on", "time": 19, "note": 77, "velocity": 119, "channel": 0}, {"type": "note_off", "time": 84, "note": 77, "velocity": 119, "channel": 0}, {"type": "note_on", "time": 8, "note": 76, "velocity": 114, "channel": 0}, {"type": "note_off", "time": 67, "note": 76, "velocity": 114, "channel": 0}, {"type": "note_on", "time": 14, "note": 74, "velocity": 113, "channel": 0}, {"type": "note_off", "time": 70, "note": 74, "velocity": 113, "channel": 0}, {"type": "note_on", "time": 8, "note": 75, "velocity": 101, "channel": 0}, {"type": "note_off", "time": 26, "note": 75, "velocity": 101, "channel": 0}, {"type": "note_on", "time": 24, "note": 73, "velocity": 106, "channel": 0}, {"type": "note_off", "time": 58, "note": 73, "velocity": 106, "channel": 0}, {"type": "note_on", "time": 9, "note": 71, "velocity": 101, "channel": 0}, {"type": "note_off", "time": 74, "note": 71, "velocity": 101, "channel": 0}, {"type": "note_on", "time": 12, "note": 70, "velocity": 109, "channel": 0}, {"type": "note_off", "time": 109, "note": 70, "velocity": 109, "channel": 0}, {"type": "note_on", "time": 13, "note": 69, "velocity": 99, "channel": 0}, {"type": "note_off", "time": 63, "note": 69, "velocity": 99, "channel": 0}, {"type": "note_on", "time": 17, "note": 68, "velocity": 92, "channel": 0}, {"type": "note_off", "time": 104, "note": 68, "velocity": 92, "channel": 0}, {"type": "note_on", "time": 65, "note": 67, "velocity": 106, "channel": 0}, {"type": "note_off", "time": 104, "note": 67, "velocity": 106, "channel": 0}, {"type": "note_on", "time": 21, "note": 65, "velocity": 99, "channel": 0}, {"type": "note_off", "time": 32, "note": 65, "velocity": 99, "channel": 0}, {"type": "note_on", "time": 23, "note": 64, "velocity": 98, "channel": 0}, {"type": "note_off", "time": 85, "note": 64, "velocity": 98, "channel": 0}, {"type": "note_on", "time": 0, "note": 65, "velocity": 91, "channel": 0}, {"type": "note_off", "time": 70, "note": 65, "velocity": 91, "channel": 0}, {"type": "note_on", "time": 32, "note": 67, "velocity": 110, "channel": 0}, {"type": "note_off", "time": 119, "note": 67, "velocity": 110, "channel": 0}, {"type": "note_on", "time": 42, "note": 67, "velocity": 106, "channel": 0}, {"type": "note_off", "time": 130, "note": 67, "velocity": 106, "channel": 0}, {"type": "note_on", "time": 65, "note": 68, "velocity": 111, "channel": 0}, {"type": "note_off", "time": 101, "note": 68, "velocity": 111, "channel": 0}, {"type": "note_on", "time": 17, "note": 69, "velocity": 94, "channel": 0}, {"type": "note_off", "time": 99, "note": 69, "velocity": 94, "channel": 0}, {"type": "note_on", "time": 215, "note": 68, "velocity": 84, "channel": 0}, {"type": "note_off", "time": 123, "note": 68, "velocity": 84, "channel": 0}, {"type": "note_on", "time": 29, "note": 74, "velocity": 117, "channel": 0}, {"type": "note_off", "time": 96, "note": 74, "velocity": 117, "channel": 0}, {"type": "note_on", "time": 5, "note": 75, "velocity": 92, "channel": 0}, {"type": "note_off", "time": 19, "note": 75, "velocity": 92, "channel": 0}, {"type": "note_on", "time": 5, "note": 73, "velocity": 93, "channel": 0}, {"type": "note_off", "time": 20, "note": 73, "velocity": 93, "channel": 0}, {"type": "note_on", "time": 12, "note": 74, "velocity": 104, "channel": 0}, {"type": "note_off", "time": 62, "note": 74, "velocity": 104, "channel": 0}, {"type": "note_on", "time": 12, "note": 72, "velocity": 110, "channel": 0}, {"type": "note_off", "time": 94, "note": 72, "velocity": 110, "channel": 0}, {"type": "note_on", "time": 18, "note": 71, "velocity": 102, "channel": 0}, {"type": "note_off", "time": 59, "note": 71, "velocity": 102, "channel": 0}, {"type": "note_on", "time": 13, "note": 70, "velocity": 96, "channel": 0}, {"type": "note_off", "time": 72, "note": 70, "velocity": 96, "channel": 0}, {"type": "note_on", "time": 11, "note": 69, "velocity": 100, "channel": 0}, {"type": "note_off", "time": 95, "note": 69, "velocity": 100, "channel": 0}, {"type": "note_on", "time": 10, "note": 68, "velocity": 106, "channel": 0}, {"type": "note_off", "time": 114, "note": 68, "velocity": 106, "channel": 0}, {"type": "note_on", "time": 55, "note": 68, "velocity": 106, "channel": 0}, {"type": "note_off", "time": 148, "note": 68, "velocity": 106, "channel": 0}, {"type": "note_on", "time": 47, "note": 67, "velocity": 101, "channel": 0}, {"type": "note_off", "time": 112, "note": 67, "velocity": 101, "channel": 0}, {"type": "note_on", "time": 20, "note": 73, "velocity": 117, "channel": 0}, {"type": "note_off", "time": 101, "note": 73, "velocity": 117, "channel": 0}, {"type": "note_on", "time": 8, "note": 74, "velocity": 115, "channel": 0}, {"type": "note_off", "time": 132, "note": 74, "velocity": 115, "channel": 0}, {"type": "note_on", "time": 9, "note": 72, "velocity": 104, "channel": 0}, {"type": "note_off", "time": 370, "note": 72, "velocity": 104, "channel": 0}, {"type": "note_on", "time": 230, "note": 72, "velocity": 106, "channel": 0}, {"type": "note_off", "time": 99, "note": 72, "velocity": 106, "channel": 0}, {"type": "note_on", "time": 120, "note": 79, "velocity": 122, "channel": 0}, {"type": "note_off", "time": 313, "note": 79, "velocity": 122, "channel": 0}, {"type": "note_on", "time": 40, "note": 80, "velocity": 124, "channel": 0}, {"type": "note_off", "time": 366, "note": 80, "velocity": 124, "channel": 0}, {"type": "note_on", "time": 12, "note": 79, "velocity": 123, "channel": 0}, {"type": "note_off", "time": 170, "note": 79, "velocity": 123, "channel": 0}, {"type": "note_on", "time": 16, "note": 77, "velocity": 118, "channel": 0}, {"type": "note_off", "time": 142, "note": 77, "velocity": 118, "channel": 0}, {"type": "note_on", "time": 16, "note": 76, "velocity": 114, "channel": 0}, {"type": "note_off", "time": 120, "note": 76, "velocity": 114, "channel": 0}, {"type": "note_on", "time": 46, "note": 74, "velocity": 109, "channel": 0}, {"type": "note_off", "time": 77, "note": 74, "velocity": 109, "channel": 0}, {"type": "note_on", "time": 9, "note": 72, "velocity": 115, "channel": 0}, {"type": "note_off", "time": 93, "note": 72, "velocity": 115, "channel": 0}, {"type": "note_on", "time": 13, "note": 71, "velocity": 97, "channel": 0}, {"type": "note_off", "time": 62, "note": 71, "velocity": 97, "channel": 0}, {"type": "note_on", "time": 12, "note": 70, "velocity": 100, "channel": 0}, {"type": "note_off", "time": 138, "note": 70, "velocity": 100, "channel": 0}, {"type": "note_on", "time": 4, "note": 68, "velocity": 97, "channel": 0}, {"type": "note_off", "time": 58, "note": 68, "velocity": 97, "channel": 0}, {"type": "note_on", "time": 10, "note": 69, "velocity": 101, "channel": 0}, {"type": "note_off", "time": 139, "note": 69, "velocity": 101, "channel": 0}, {"type": "note_on", "time": 39, "note": 67, "velocity": 105, "channel": 0}, {"type": "note_off", "time": 117, "note": 67, "velocity": 105, "channel": 0}, {"type": "note_on", "time": 6, "note": 65, "velocity": 95, "channel": 0}, {"type": "note_off", "time": 69, "note": 65, "velocity": 95, "channel": 0}, {"type": "note_on", "time": 8, "note": 64, "velocity": 98, "channel": 0}, {"type": "note_off", "time": 96, "note": 64, "velocity": 98, "channel": 0}, {"type": "note_on", "time": 19, "note": 63, "velocity": 104, "channel": 0}, {"type": "note_off", "time": 105, "note": 63, "velocity": 104, "channel": 0}, {"type": "note_on", "time": 156, "note": 73, "velocity": 110, "channel": 0}, {"type": "note_off", "time": 95, "note": 73, "velocity": 110, "channel": 0}, {"type": "note_on", "time": 5, "note": 74, "velocity": 113, "channel": 0}, {"type": "note_off", "time": 305, "note": 74, "velocity": 113, "channel": 0}, {"type": "note_on", "time": 13, "note": 72, "velocity": 100, "channel": 0}, {"type": "note_off", "time": 72, "note": 72, "velocity": 100, "channel": 0}, {"type": "note_on", "time": 87, "note": 70, "velocity": 93, "channel": 0}, {"type": "note_off", "time": 231, "note": 70, "velocity": 93, "channel": 0}, {"type": "note_on", "time": 353, "note": 71, "velocity": 102, "channel": 0}, {"type": "note_off", "time": 58, "note": 71, "velocity": 102, "channel": 0}, {"type": "note_on", "time": 10, "note": 73, "velocity": 86, "channel": 0}, {"type": "note_off", "time": 27, "note": 73, "velocity": 86, "channel": 0}, {"type": "note_on", "time": 8, "note": 74, "velocity": 84, "channel": 0}, {"type": "note_off", "time": 85, "note": 74, "velocity": 84, "channel": 0}, {"type": "note_on", "time": 27, "note": 82, "velocity": 123, "channel": 0}, {"type": "note_off", "time": 271, "note": 82, "velocity": 123, "channel": 0}, {"type": "note_on", "time": 35, "note": 79, "velocity": 107, "channel": 0}, {"type": "note_off", "time": 413, "note": 79, "velocity": 107, "channel": 0}, {"type": "note_on", "time": 33, "note": 77, "velocity": 121, "channel": 0}, {"type": "note_off", "time": 97, "note": 77, "velocity": 121, "channel": 0}, {"type": "note_on", "time": 12, "note": 76, "velocity": 109, "channel": 0}, {"type": "note_off", "time": 80, "note": 76, "velocity": 109, "channel": 0}, {"type": "note_on", "time": 4, "note": 75, "velocity": 115, "channel": 0}, {"type": "note_off", "time": 102, "note": 75, "velocity": 115, "channel": 0}, {"type": "note_on", "time": 21, "note": 77, "velocity": 113, "channel": 0}, {"type": "note_off", "time": 137, "note": 77, "velocity": 113, "channel": 0}, {"type": "note_on", "time": 65, "note": 75, "velocity": 115, "channel": 0}, {"type": "note_off", "time": 243, "note": 75, "velocity": 115, "channel": 0}, {"type": "note_on", "time": 23, "note": 74, "velocity": 103, "channel": 0}, {"type": "note_off", "time": 145, "note": 74, "velocity": 103, "channel": 0}, {"type": "note_on", "time": 51, "note": 69, "velocity": 107, "channel": 0}, {"type": "note_off", "time": 200, "note": 69, "velocity": 107, "channel": 0}, {"type": "note_on", "time": 12, "note": 72, "velocity": 99, "channel": 0}, {"type": "note_off", "time": 276, "note": 72, "velocity": 99, "channel": 0}, {"type": "note_on", "time": 281, "note": 75, "velocity": 111, "channel": 0}, {"type": "note_off", "time": 172, "note": 75, "velocity": 111, "channel": 0}, {"type": "note_on", "time": 13, "note": 76, "velocity": 111, "channel": 0}, {"type": "note_off", "time": 142, "note": 76, "velocity": 111, "channel": 0}, {"type": "note_on", "time": 17, "note": 69, "velocity": 89, "channel": 0}, {"type": "note_off", "time": 192, "note": 69, "velocity": 89, "channel": 0}, {"type": "note_on", "time": 12, "note": 75, "velocity": 118, "channel": 0}, {"type": "note_off", "time": 177, "note": 75, "velocity": 118, "channel": 0}, {"type": "note_on", "time": 9, "note": 76, "velocity": 106, "channel": 0}, {"type": "note_off", "time": 150, "note": 76, "velocity": 106, "channel": 0}, {"type": "note_on", "time": 10, "note": 69, "velocity": 99, "channel": 0}, {"type": "note_off", "time": 162, "note": 69, "velocity": 99, "channel": 0}, {"type": "note_on", "time": 433, "note": 75, "velocity": 107, "channel": 0}, {"type": "note_off", "time": 173, "note": 75, "velocity": 107, "channel": 0}, {"type": "note_on", "time": 31, "note": 76, "velocity": 10, "channel": 0}, {"type": "note_off", "time": 147, "note": 76, "velocity": 10, "channel": 0}, {"type": "note_on", "time": 20, "note": 79, "velocity": 119, "channel": 0}, {"type": "note_off", "time": 138, "note": 79, "velocity": 119, "channel": 0}, {"type": "note_on", "time": 8, "note": 76, "velocity": 112, "channel": 0}, {"type": "note_off", "time": 94, "note": 76, "velocity": 112, "channel": 0}, {"type": "note_on", "time": 10, "note": 74, "velocity": 114, "channel": 0}, {"type": "note_off", "time": 143, "note": 74, "velocity": 114, "channel": 0}, {"type": "note_on", "time": 20, "note": 72, "velocity": 117, "channel": 0}, {"type": "note_off", "time": 120, "note": 72, "velocity": 117, "channel": 0}, {"type": "note_on", "time": 40, "note": 67, "velocity": 104, "channel": 0}, {"type": "note_off", "time": 160, "note": 67, "velocity": 104, "channel": 0}, {"type": "note_on", "time": 439, "note": 76, "velocity": 122, "channel": 0}, {"type": "note_off", "time": 161, "note": 76, "velocity": 122, "channel": 0}, {"type": "note_on", "time": 32, "note": 79, "velocity": 119, "channel": 0}, {"type": "note_off", "time": 128, "note": 79, "velocity": 119, "channel": 0}, {"type": "note_on", "time": 12, "note": 81, "velocity": 112, "channel": 0}, {"type": "note_off", "time": 147, "note": 81, "velocity": 112, "channel": 0}, {"type": "note_on", "time": 42, "note": 84, "velocity": 121, "channel": 0}, {"type": "note_off", "time": 233, "note": 84, "velocity": 121, "channel": 0}, {"type": "note_on", "time": 34, "note": 81, "velocity": 115, "channel": 0}, {"type": "note_off", "time": 170, "note": 81, "velocity": 115, "channel": 0}, {"type": "note_on", "time": 24, "note": 79, "velocity": 123, "channel": 0}, {"type": "note_off", "time": 116, "note": 79, "velocity": 123, "channel": 0}, {"type": "note_on", "time": 30, "note": 77, "velocity": 115, "channel": 0}, {"type": "note_off", "time": 113, "note": 77, "velocity": 115, "channel": 0}, {"type": "note_on", "time": 38, "note": 72, "velocity": 114, "channel": 0}, {"type": "note_off", "time": 72, "note": 72, "velocity": 114, "channel": 0}, {"type": "note_on", "time": 21, "note": 75, "velocity": 121, "channel": 0}, {"type": "note_off", "time": 110, "note": 75, "velocity": 121, "channel": 0}, {"type": "note_on", "time": 39, "note": 75, "velocity": 111, "channel": 0}, {"type": "note_off", "time": 88, "note": 75, "velocity": 111, "channel": 0}, {"type": "note_on", "time": 14, "note": 75, "velocity": 122, "channel": 0}, {"type": "note_off", "time": 103, "note": 75, "velocity": 122, "channel": 0}, {"type": "note_on", "time": 15, "note": 74, "velocity": 116, "channel": 0}, {"type": "note_off", "time": 119, "note": 74, "velocity": 116, "channel": 0}, {"type": "note_on", "time": 22, "note": 72, "velocity": 94, "channel": 0}, {"type": "note_off", "time": 132, "note": 72, "velocity": 94, "channel": 0}, {"type": "note_on", "time": 43, "note": 72, "velocity": 102, "channel": 0}, {"type": "note_off", "time": 160, "note": 72, "velocity": 102, "channel": 0}, {"type": "end_of_track", "time": 0}]]}