{"ticks_per_beat": 192, "tracks": [[{"type": "track_name", "name": "Melody", "time": 0}, {"type": "set_tempo", "tempo": 342857, "time": 0}, {"type": "key_signature", "key": "F", "time": 0}, {"type": "time_signature", "numerator": 3, "denominator": 4, "clocks_per_click": 24, "notated_32nd_notes_per_beat": 8, "time": 0}, {"type": "note_on", "time": 1670, "note": 60, "velocity": 99, "channel": 0}, {"type": "note_off", "time": 130, "note": 60, "velocity": 99, "channel": 0}, {"type": "note_on", "time": 0, "note": 62, "velocity": 99, "channel": 0}, {"type": "note_off", "time": 39, "note": 62, "velocity": 99, "channel": 0}, {"type": "note_on", "time": 16, "note": 65, "velocity": 107, "channel": 0}, {"type": "note_off", "time": 117, "note": 65, "velocity": 107, "channel": 0}, {"type": "note_on", "time": 0, "note": 67, "velocity": 110, "channel": 0}, {"type": "note_off", "time": 74, "note": 67, "velocity": 110, "channel": 0}, {"type": "note_on", "time": 0, "note": 68, "velocity": 109, "channel": 0}, {"type": "note_off", "time": 156, "note": 68, "velocity": 109, "channel": 0}, {"type": "note_on", "time": 42, "note": 65, "velocity": 100, "channel": 0}, {"type": "note_off", "time": 130, "note": 65, "velocity": 100, "channel": 0}, {"type": "note_on", "time": 9, "note": 65, "velocity": 110, "channel": 0}, {"type": "note_off", "time": 48, "note": 65, "velocity": 110, "channel": 0}, {"type": "note_on", "time": 780, "note": 62, "velocity": 108, "channel": 0}, {"type": "note_off", "time": 136, "note": 62, "velocity": 108, "channel": 0}, {"type": "note_on", "time": 3, "note": 60, "velocity": 98, "channel": 0}, {"type": "note_off", "time": 45, "note": 60, "velocity": 98, "channel": 0}, {"type": "note_on", "time": 0, "note": 65, "velocity": 102, "channel": 0}, {"type": "note_off", "time": 133, "note": 65, "velocity": 102, "channel": 0}, {"type": "note_on", "time": 9, "note": 65, "velocity": 100, "channel": 0}, {"type": "note_off", "time": 52, "note": 65, "velocity": 100, "channel": 0}, {"type": "note_on", "time": 322, "note": 63, "velocity": 105, "channel": 0}, {"type": "note_off", "time": 79, "note": 63, "velocity": 105, "channel": 0}, {"type": "note_on", "time": 0, "note": 60, "velocity": 97, "channel": 0}, {"type": "note_off", "time": 104, "note": 60, "velocity": 97, "channel": 0}, {"type": "note_on", "time": 27, "note": 62, "velocity": 94, "channel": 0}, {"type": "note_off", "time": 52, "note": 62, "velocity": 94, "channel": 0}, {"type": "note_on", "time": 13, "note": 65, "velocity": 107, "channel": 0}, {"type": "note_off", "time": 104, "note": 65, "velocity": 107, "channel": 0}, {"type": "note_on", "time": 4, "note": 67, "velocity": 103, "channel": 0}, {"type": "note_off", "time": 41, "note": 67, "velocity": 103, "channel": 0}, {"type": "note_on", "time": 28, "note": 67, "velocity": 117, "channel": 0}, {"type": "note_off", "time": 52, "note": 67, "velocity": 117, "channel": 0}, {"type": "note_on", "time": 3, "note": 68, "velocity": 108, "channel": 0}, {"type": "note_off", "time": 123, "note": 68, "velocity": 108, "channel": 0}, {"type": "note_on", "time": 17, "note": 65, "velocity": 91, "channel": 0}, {"type": "note_off", "time": 138, "note": 65, "velocity": 91, "channel": 0}, {"type": "note_on", "time": 17, "note": 65, "velocity": 98, "channel": 0}, {"type": "note_off", "time": 34, "note": 65, "velocity": 98, "channel": 0}, {"type": "note_on", "time": 597, "note": 74, "velocity": 109, "channel": 0}, {"type": "note_off", "time": 204, "note": 74, "velocity": 109, "channel": 0}, {"type": "note_on", "time": 0, "note": 72, "velocity": 106, "channel": 0}, {"type": "note_off", "time": 172, "note": 72, "velocity": 106, "channel": 0}, {"type": "note_on", "time": 11, "note": 65, "velocity": 86, "channel": 0}, {"type": "note_off", "time": 91, "note": 65, "velocity": 86, "channel": 0}, {"type": "note_on", "time": 35, "note": 65, "velocity": 104, "channel": 0}, {"type": "note_off", "time": 54, "note": 65, "velocity": 104, "channel": 0}, {"type": "note_on", "time": 322, "note": 63, "velocity": 108, "channel": 0}, {"type": "note_off", "time": 14, "note": 63, "velocity": 108, "channel": 0}, {"type": "note_on", "time": 6, "note": 62, "velocity": 99, "channel": 0}, {"type": "note_off", "time": 22, "note": 62, "velocity": 99, "channel": 0}, {"type": "note_on", "time": 19, "note": 60, "velocity": 94, "channel": 0}, {"type": "note_off", "time": 125, "note": 60, "velocity": 94, "channel": 0}, {"type": "note_on", "time": 6, "note": 62, "velocity": 97, "channel": 0}, {"type": "note_off", "time": 45, "note": 62, "velocity": 97, "channel": 0}, {"type": "note_on", "time": 22, "note": 65, "velocity": 102, "channel": 0}, {"type": "note_off", "time": 107, "note": 65, "velocity": 102, "channel": 0}, {"type": "note_on", "time": 9, "note": 67, "velocity": 106, "channel": 0}, {"type": "note_off", "time": 48, "note": 67, "velocity": 106, "channel": 0}, {"type": "note_on", "time": 22, "note": 68, "velocity": 107, "channel": 0}, {"type": "note_off", "time": 117, "note": 68, "velocity": 107, "channel": 0}, {"type": "note_on", "time": 0, "note": 70, "velocity": 101, "channel": 0}, {"type": "note_off", "time": 61, "note": 70, "velocity": 101, "channel": 0}, {"type": "note_on", "time": 9, "note": 71, "velocity": 106, "channel": 0}, {"type": "note_off", "time": 178, "note": 71, "velocity": 106, "channel": 0}, {"type": "note_on", "time": 9, "note": 70, "velocity": 104, "channel": 0}, {"type": "note_off", "time": 308, "note": 70, "velocity": 104, "channel": 0}, {"type": "note_on", "time": 38, "note": 68, "velocity": 103, "channel": 0}, {"type": "note_off", "time": 152, "note": 68, "velocity": 103, "channel": 0}, {"type": "note_on", "time": 91, "note": 65, "velocity": 103, "channel": 0}, {"type": "note_off", "time": 318, "note": 65, "velocity": 103, "channel": 0}, {"type": "note_on", "time": 13, "note": 68, "velocity": 103, "channel": 0}, {"type": "note_off", "time": 55, "note": 68, "velocity": 103, "channel": 0}, {"type": "note_on", "time": 16, "note": 70, "velocity": 100, "channel": 0}, {"type": "note_off", "time": 76, "note": 70, "velocity": 100, "channel": 0}, {"type": "note_on", "time": 0, "note": 71, "velocity": 99, "channel": 0}, {"type": "note_off", "time": 69, "note": 71, "velocity": 99, "channel": 0}, {"type": "note_on", "time": 8, "note": 70, "velocity": 103, "channel": 0}, {"type": "note_off", "time": 285, "note": 70, "velocity": 103, "channel": 0}, {"type": "note_on", "time": 1, "note": 71, "velocity": 88, "channel": 0}, {"type": "note_off", "time": 45, "note": 71, "velocity": 88, "channel": 0}, {"type": "note_on", "time": 3, "note": 67, "velocity": 106, "channel": 0}, {"type": "note_off", "time": 92, "note": 67, "velocity": 106, "channel": 0}, {"type": "note_on", "time": 2, "note": 68, "velocity": 87, "channel": 0}, {"type": "note_off", "time": 58, "note": 68, "velocity": 87, "channel": 0}, {"type": "note_on", "time": 32, "note": 65, "velocity": 98, "channel": 0}, {"type": "note_off", "time": 65, "note": 65, "velocity": 98, "channel": 0}, {"type": "note_on", "time": 19, "note": 62, "velocity": 89, "channel": 0}, {"type": "note_off", "time": 97, "note": 62, "velocity": 89, "channel": 0}, {"type": "note_on", "time": 20, "note": 60, "velocity": 91, "channel": 0}, {"type": "note_off", "time": 34, "note": 60, "velocity": 91, "channel": 0}, {"type": "note_on", "time": 23, "note": 65, "velocity": 99, "channel": 0}, {"type": "note_off", "time": 130, "note": 65, "velocity": 99, "channel": 0}, {"type": "note_on", "time": 30, "note": 68, "velocity": 101, "channel": 0}, {"type": "note_off", "time": 149, "note": 68, "velocity": 101, "channel": 0}, {"type": "note_on", "time": 11, "note": 68, "velocity": 99, "channel": 0}, {"type": "note_off", "time": 178, "note": 68, "velocity": 99, "channel": 0}, {"type": "note_on", "time": 0, "note": 69, "velocity": 88, "channel": 0}, {"type": "note_off", "time": 50, "note": 69, "velocity": 88, "channel": 0}, {"type": "note_on", "time": 578, "note": 62, "velocity": 96, "channel": 0}, {"type": "note_off", "time": 133, "note": 62, "velocity": 96, "channel": 0}, {"type": "note_on", "time": 24, "note": 60, "velocity": 88, "channel": 0}, {"type": "note_off", "time": 25, "note": 60, "velocity": 88, "channel": 0}, {"type": "note_on", "time": 17, "note": 65, "velocity": 92, "channel": 0}, {"type": "note_off", "time": 123, "note": 65, "velocity": 92, "channel": 0}, {"type": "note_on", "time": 18, "note": 65, "velocity": 96, "channel": 0}, {"type": "note_off", "time": 58, "note": 65, "velocity": 96, "channel": 0}, {"type": "note_on", "time": 529, "note": 58, "velocity": 100, "channel": 0}, {"type": "note_off", "time": 85, "note": 58, "velocity": 100, "channel": 0}, {"type": "note_on", "time": 8, "note": 61, "velocity": 98, "channel": 0}, {"type": "note_off", "time": 83, "note": 61, "velocity": 98, "channel": 0}, {"type": "note_on", "time": 4, "note": 62, "velocity": 100, "channel": 0}, {"type": "note_off", "time": 64, "note": 62, "velocity": 100, "channel": 0}, {"type": "note_on", "time": 0, "note": 63, "velocity": 102, "channel": 0}, {"type": "note_off", "time": 143, "note": 63, "velocity": 102, "channel": 0}, {"type": "note_on", "time": 8, "note": 64, "velocity": 99, "channel": 0}, {"type": "note_off", "time": 40, "note": 64, "velocity": 99, "channel": 0}, {"type": "note_on", "time": 0, "note": 65, "velocity": 100, "channel": 0}, {"type": "note_off", "time": 123, "note": 65, "velocity": 100, "channel": 0}, {"type": "note_on", "time": 15, "note": 68, "velocity": 106, "channel": 0}, {"type": "note_off", "time": 84, "note": 68, "velocity": 106, "channel": 0}, {"type": "note_on", "time": 0, "note": 67, "velocity": 94, "channel": 0}, {"type": "note_off", "time": 70, "note": 67, "velocity": 94, "channel": 0}, {"type": "note_on", "time": 33, "note": 65, "velocity": 95, "channel": 0}, {"type": "note_off", "time": 52, "note": 65, "velocity": 95, "channel": 0}, {"type": "note_on", "time": 25, "note": 70, "velocity": 102, "channel": 0}, {"type": "note_off", "time": 100, "note": 70, "velocity": 102, "channel": 0}, {"type": "note_on", "time": 6, "note": 69, "velocity": 107, "channel": 0}, {"type": "note_off", "time": 84, "note": 69, "velocity": 107, "channel": 0}, {"type": "note_on", "time": 13, "note": 68, "velocity": 107, "channel": 0}, {"type": "note_off", "time": 91, "note": 68, "velocity": 107, "channel": 0}, {"type": "note_on", "time": 8, "note": 72, "velocity": 104, "channel": 0}, {"type": "note_off", "time": 90, "note": 72, "velocity": 104, "channel": 0}, {"type": "note_on", "time": 5, "note": 67, "velocity": 105, "channel": 0}, {"type": "note_off", "time": 100, "note": 67, "velocity": 105, "channel": 0}, {"type": "note_on", "time": 9, "note": 65, "velocity": 95, "channel": 0}, {"type": "note_off", "time": 60, "note": 65, "velocity": 95, "channel": 0}, {"type": "note_on", "time": 11, "note": 66, "velocity": 108, "channel": 0}, {"type": "note_off", "time": 117, "note": 66, "velocity": 108, "channel": 0}, {"type": "note_on", "time": 0, "note": 69, "velocity": 111, "channel": 0}, {"type": "note_off", "time": 104, "note": 69, "velocity": 111, "channel": 0}, {"type": "note_on", "time": 60, "note": 61, "velocity": 95, "channel": 0}, {"type": "note_off", "time": 78, "note": 61, "velocity": 95, "channel": 0}, {"type": "note_on", "time": 37, "note": 67, "velocity": 102, "channel": 0}, {"type": "note_off", "time": 104, "note": 67, "velocity": 102, "channel": 0}, {"type": "note_on", "time": 4, "note": 65, "velocity": 92, "channel": 0}, {"type": "note_off", "time": 65, "note": 65, "velocity": 92, "channel": 0}, {"type": "note_on", "time": 8, "note": 66, "velocity": 106, "channel": 0}, {"type": "note_off", "time": 113, "note": 66, "velocity": 106, "channel": 0}, {"type": "note_on", "time": 0, "note": 64, "velocity": 98, "channel": 0}, {"type": "note_off", "time": 81, "note": 64, "velocity": 98, "channel": 0}, {"type": "note_on", "time": 0, "note": 63, "velocity": 98, "channel": 0}, {"type": "note_off", "time": 104, "note": 63, "velocity": 98, "channel": 0}, {"type": "note_on", "time": 70, "note": 62, "velocity": 97, "channel": 0}, {"type": "note_off", "time": 117, "note": 62, "velocity": 97, "channel": 0}, {"type": "note_on", "time": 20, "note": 58, "velocity": 99, "channel": 0}, {"type": "note_off", "time": 25, "note": 58, "velocity": 99, "channel": 0}, {"type": "note_on", "time": 0, "note": 59, "velocity": 103, "channel": 0}, {"type": "note_off", "time": 23, "note": 59, "velocity": 103, "channel": 0}, {"type": "note_on", "time": 4, "note": 61, "velocity": 105, "channel": 0}, {"type": "note_off", "time": 124, "note": 61, "velocity": 105, "channel": 0}, {"type": "note_on", "time": 79, "note": 68, "velocity": 110, "channel": 0}, {"type": "note_off", "time": 120, "note": 68, "velocity": 110, "channel": 0}, {"type": "note_on", "time": 16, "note": 66, "velocity": 101, "channel": 0}, {"type": "note_off", "time": 78, "note": 66, "velocity": 101, "channel": 0}, {"type": "note_on", "time": 2, "note": 61, "velocity": 97, "channel": 0}, {"type": "note_off", "time": 118, "note": 61, "velocity": 97, "channel": 0}, {"type": "note_on", "time": 11, "note": 58, "velocity": 98, "channel": 0}, {"type": "note_off", "time": 34, "note": 58, "velocity": 98, "channel": 0}, {"type": "note_on", "time": 14, "note": 65, "velocity": 106, "channel": 0}, {"type": "note_off", "time": 97, "note": 65, "velocity": 106, "channel": 0}, {"type": "note_on", "time": 26, "note": 64, "velocity": 98, "channel": 0}, {"type": "note_off", "time": 65, "note": 64, "velocity": 98, "channel": 0}, {"type": "note_on", "time": 0, "note": 63, "velocity": 97, "channel": 0}, {"type": "note_off", "time": 120, "note": 63, "velocity": 97, "channel": 0}, {"type": "note_on", "time": 9, "note": 60, "velocity": 102, "channel": 0}, {"type": "note_off", "time": 54, "note": 60, "velocity": 102, "channel": 0}, {"type": "note_on", "time": 7, "note": 61, "velocity": 100, "channel": 0}, {"type": "note_off", "time": 130, "note": 61, "velocity": 100, "channel": 0}, {"type": "note_on", "time": 8, "note": 59, "velocity": 99, "channel": 0}, {"type": "note_off", "time": 26, "note": 59, "velocity": 99, "channel": 0}, {"type": "note_on", "time": 3, "note": 58, "velocity": 103, "channel": 0}, {"type": "note_off", "time": 30, "note": 58, "velocity": 103, "channel": 0}, {"type": "note_on", "time": 20, "note": 60, "velocity": 95, "channel": 0}, {"type": "note_off", "time": 94, "note": 60, "velocity": 95, "channel": 0}, {"type": "note_on", "time": 6, "note": 66, "velocity": 109, "channel": 0}, {"type": "note_off", "time": 78, "note": 66, "velocity": 109, "channel": 0}, {"type": "note_on", "time": 3, "note": 67, "velocity": 102, "channel": 0}, {"type": "note_off", "time": 97, "note": 67, "velocity": 102, "channel": 0}, {"type": "note_on", "time": 0, "note": 67, "velocity": 103, "channel": 0}, {"type": "note_off", "time": 12, "note": 67, "velocity": 103, "channel": 0}, {"type": "note_on", "time": 0, "note": 65, "velocity": 99, "channel": 0}, {"type": "note_off", "time": 55, "note": 65, "velocity": 99, "channel": 0}, {"type": "note_on", "time": 8, "note": 60, "velocity": 93, "channel": 0}, {"type": "note_off", "time": 118, "note": 60, "velocity": 93, "channel": 0}, {"type": "note_on", "time": 21, "note": 57, "velocity": 91, "channel": 0}, {"type": "note_off", "time": 52, "note": 57, "velocity": 91, "channel": 0}, {"type": "note_on", "time": 7, "note": 63, "velocity": 99, "channel": 0}, {"type": "note_off", "time": 52, "note": 63, "velocity": 99, "channel": 0}, {"type": "note_on", "time": 2, "note": 64, "velocity": 94, "channel": 0}, {"type": "note_off", "time": 134, "note": 64, "velocity": 94, "channel": 0}, {"type": "note_on", "time": 6, "note": 62, "velocity": 90, "channel": 0}, {"type": "note_off", "time": 65, "note": 62, "velocity": 90, "channel": 0}, {"type": "note_on", "time": 0, "note": 62, "velocity": 89, "channel": 0}, {"type": "note_off", "time": 35, "note": 62, "velocity": 89, "channel": 0}, {"type": "note_on", "time": 412, "note": 66, "velocity": 105, "channel": 0}, {"type": "note_off", "time": 13, "note": 66, "velocity": 105, "channel": 0}, {"type": "note_on", "time": 3, "note": 70, "velocity": 104, "channel": 0}, {"type": "note_off", "time": 169, "note": 70, "velocity": 104, "channel": 0}, {"type": "note_on", "time": 6, "note": 67, "velocity": 109, "channel": 0}, {"type": "note_off", "time": 74, "note": 67, "velocity": 109, "channel": 0}, {"type": "note_on", "time": 0, "note": 68, "velocity": 112, "channel": 0}, {"type": "note_off", "time": 100, "note": 68, "velocity": 112, "channel": 0}, {"type": "note_on", "time": 9, "note": 70, "velocity": 105, "channel": 0}, {"type": "note_off", "time": 68, "note": 70, "velocity": 105, "channel": 0}, {"type": "note_on", "time": 19, "note": 72, "velocity": 105, "channel": 0}, {"type": "note_off", "time": 104, "note": 72, "velocity": 105, "channel": 0}, {"type": "note_on", "time": 0, "note": 74, "velocity": 104, "channel": 0}, {"type": "note_off", "time": 68, "note": 74, "velocity": 104, "channel": 0}, {"type": "note_on", "time": 16, "note": 75, "velocity": 106, "channel": 0}, {"type": "note_off", "time": 91, "note": 75, "velocity": 106, "channel": 0}, {"type": "note_on", "time": 22, "note": 78, "velocity": 102, "channel": 0}, {"type": "note_off", "time": 84, "note": 78, "velocity": 102, "channel": 0}, {"type": "note_on", "time": 0, "note": 77, "velocity": 96, "channel": 0}, {"type": "note_off", "time": 100, "note": 77, "velocity": 96, "channel": 0}, {"type": "note_on", "time": 6, "note": 75, "velocity": 105, "channel": 0}, {"type": "note_off", "time": 78, "note": 75, "velocity": 105, "channel": 0}, {"type": "note_on", "time": 16, "note": 74, "velocity": 103, "channel": 0}, {"type": "note_off", "time": 81, "note": 74, "velocity": 103, "channel": 0}, {"type": "note_on", "time": 6, "note": 77, "velocity": 97, "channel": 0}, {"type": "note_off", "time": 135, "note": 77, "velocity": 97, "channel": 0}, {"type": "note_on", "time": 0, "note": 76, "velocity": 92, "channel": 0}, {"type": "note_off", "time": 48, "note": 76, "velocity": 92, "channel": 0}, {"type": "note_on", "time": 1, "note": 74, "velocity": 107, "channel": 0}, {"type": "note_off", "time": 97, "note": 74, "velocity": 107, "channel": 0}, {"type": "note_on", "time": 21, "note": 74, "velocity": 92, "channel": 0}, {"type": "note_off", "time": 91, "note": 74, "velocity": 92, "channel": 0}, {"type": "note_on", "time": 0, "note": 68, "velocity": 115, "channel": 0}, {"type": "note_off", "time": 51, "note": 68, "velocity": 115, "channel": 0}, {"type": "note_on", "time": 11, "note": 65, "velocity": 96, "channel": 0}, {"type": "note_off", "time": 74, "note": 65, "velocity": 96, "channel": 0}, {"type": "note_on", "time": 14, "note": 62, "velocity": 95, "channel": 0}, {"type": "note_off", "time": 120, "note": 62, "velocity": 95, "channel": 0}, {"type": "note_on", "time": 190, "note": 60, "velocity": 95, "channel": 0}, {"type": "note_off", "time": 117, "note": 60, "velocity": 95, "channel": 0}, {"type": "note_on", "time": 4, "note": 57, "velocity": 93, "channel": 0}, {"type": "note_on", "time": 57, "note": 58, "velocity": 97, "channel": 0}, {"type": "note_off", "time": 0, "note": 57, "velocity": 93, "channel": 0}, {"type": "note_off", "time": 89, "note": 58, "velocity": 97, "channel": 0}, {"type": "note_on", "time": 26, "note": 55, "velocity": 95, "channel": 0}, {"type": "note_off", "time": 77, "note": 55, "velocity": 95, "channel": 0}, {"type": "note_on", "time": 1, "note": 53, "velocity": 101, "channel": 0}, {"type": "note_off", "time": 70, "note": 53, "velocity": 101, "channel": 0}, {"type": "note_on", "time": 46, "note": 53, "velocity": 94, "channel": 0}, {"type": "note_off", "time": 75, "note": 53, "velocity": 94, "channel": 0}, {"type": "note_on", "time": 219, "note": 57, "velocity": 107, "channel": 0}, {"type": "note_off", "time": 104, "note": 57, "velocity": 107, "channel": 0}, {"type": "note_on", "time": 60, "note": 60, "velocity": 98, "channel": 0}, {"type": "note_off", "time": 133, "note": 60, "velocity": 98, "channel": 0}, {"type": "note_on", "time": 19, "note": 60, "velocity": 102, "channel": 0}, {"type": "note_off", "time": 58, "note": 60, "velocity": 102, "channel": 0}, {"type": "note_on", "time": 209, "note": 62, "velocity": 100, "channel": 0}, {"type": "note_off", "time": 139, "note": 62, "velocity": 100, "channel": 0}, {"type": "note_on", "time": 45, "note": 65, "velocity": 96, "channel": 0}, {"type": "note_off", "time": 123, "note": 65, "velocity": 96, "channel": 0}, {"type": "note_on", "time": 12, "note": 65, "velocity": 99, "channel": 0}, {"type": "note_off", "time": 39, "note": 65, "velocity": 99, "channel": 0}, {"type": "note_on", "time": 224, "note": 69, "velocity": 112, "channel": 0}, {"type": "note_off", "time": 139, "note": 69, "velocity": 112, "channel": 0}, {"type": "note_on", "time": 29, "note": 71, "velocity": 109, "channel": 0}, {"type": "note_off", "time": 36, "note": 71, "velocity": 109, "channel": 0}, {"type": "note_on", "time": 7, "note": 72, "velocity": 107, "channel": 0}, {"type": "note_off", "time": 89, "note": 72, "velocity": 107, "channel": 0}, {"type": "note_on", "time": 9, "note": 72, "velocity": 98, "channel": 0}, {"type": "note_off", "time": 65, "note": 72, "velocity": 98, "channel": 0}, {"type": "note_on", "time": 198, "note": 72, "velocity": 100, "channel": 0}, {"type": "note_off", "time": 13, "note": 72, "velocity": 100, "channel": 0}, {"type": "note_on", "time": 3, "note": 74, "velocity": 106, "channel": 0}, {"type": "note_off", "time": 113, "note": 74, "velocity": 106, "channel": 0}, {"type": "note_on", "time": 0, "note": 74, "velocity": 105, "channel": 0}, {"type": "note_off", "time": 52, "note": 74, "velocity": 105, "channel": 0}, {"type": "note_on", "time": 0, "note": 75, "velocity": 105, "channel": 0}, {"type": "note_off", "time": 191, "note": 75, "velocity": 105, "channel": 0}, {"type": "note_on", "time": 25, "note": 74, "velocity": 105, "channel": 0}, {"type": "note_off", "time": 188, "note": 74, "velocity": 105, "channel": 0}, {"type": "note_on", "time": 0, "note": 72, "velocity": 104, "channel": 0}, {"type": "note_off", "time": 185, "note": 72, "velocity": 104, "channel": 0}, {"type": "note_on", "time": 3, "note": 68, "velocity": 109, "channel": 0}, {"type": "note_off", "time": 46, "note": 68, "velocity": 109, "channel": 0}, {"type": "note_on", "time": 0, "note": 69, "velocity": 108, "channel": 0}, {"type": "note_off", "time": 16, "note": 69, "velocity": 108, "channel": 0}, {"type": "note_on", "time": 0, "note": 70, "velocity": 102, "channel": 0}, {"type": "note_off", "time": 122, "note": 70, "velocity": 102, "channel": 0}, {"type": "note_on", "time": 10, "note": 69, "velocity": 108, "channel": 0}, {"type": "note_off", "time": 133, "note": 69, "velocity": 108, "channel": 0}, {"type": "note_on", "time": 5, "note": 65, "velocity": 99, "channel": 0}, {"type": "note_off", "time": 59, "note": 65, "velocity": 99, "channel": 0}, {"type": "note_on", "time": 11, "note": 60, "velocity": 98, "channel": 0}, {"type": "note_off", "time": 50, "note": 60, "velocity": 98, "channel": 0}, {"type": "note_on", "time": 53, "note": 55, "velocity": 104, "channel": 0}, {"type": "note_off", "time": 73, "note": 55, "velocity": 104, "channel": 0}, {"type": "note_on", "time": 22, "note": 58, "velocity": 94, "channel": 0}, {"type": "note_off", "time": 82, "note": 58, "velocity": 94, "channel": 0}, {"type": "note_on", "time": 34, "note": 60, "velocity": 105, "channel": 0}, {"type": "note_off", "time": 48, "note": 60, "velocity": 105, "channel": 0}, {"type": "note_on", "time": 3, "note": 57, "velocity": 94, "channel": 0}, {"type": "note_off", "time": 118, "note": 57, "velocity": 94, "channel": 0}, {"type": "note_on", "time": 24, "note": 60, "velocity": 98, "channel": 0}, {"type": "note_off", "time": 71, "note": 60, "velocity": 98, "channel": 0}, {"type": "note_on", "time": 0, "note": 64, "velocity": 91, "channel": 0}, {"type": "note_off", "time": 110, "note": 64, "velocity": 91, "channel": 0}, {"type": "note_on", "time": 0, "note": 67, "velocity": 102, "channel": 0}, {"type": "note_off", "time": 81, "note": 67, "velocity": 102, "channel": 0}, {"type": "note_on", "time": 7, "note": 64, "velocity": 88, "channel": 0}, {"type": "note_off", "time": 28, "note": 64, "velocity": 88, "channel": 0}, {"type": "note_on", "time": 6, "note": 65, "velocity": 92, "channel": 0}, {"type": "note_off", "time": 61, "note": 65, "velocity": 92, "channel": 0}, {"type": "note_on", "time": 0, "note": 69, "velocity": 100, "channel": 0}, {"type": "note_off", "time": 65, "note": 69, "velocity": 100, "channel": 0}, {"type": "note_on", "time": 0, "note": 72, "velocity": 95, "channel": 0}, {"type": "note_off", "time": 29, "note": 72, "velocity": 95, "channel": 0}, {"type": "note_on", "time": 0, "note": 76, "velocity": 90, "channel": 0}, {"type": "note_off", "time": 117, "note": 76, "velocity": 90, "channel": 0}, {"type": "note_on", "time": 0, "note": 78, "velocity": 93, "channel": 0}, {"type": "note_off", "time": 87, "note": 78, "velocity": 93, "channel": 0}, {"type": "note_on", "time": 12, "note": 79, "velocity": 95, "channel": 0}, {"type": "note_off", "time": 97, "note": 79, "velocity": 95, "channel": 0}, {"type": "note_on", "time": 9, "note": 78, "velocity": 93, "channel": 0}, {"type": "note_off", "time": 71, "note": 78, "velocity": 93, "channel": 0}, {"type": "note_on", "time": 0, "note": 77, "velocity": 95, "channel": 0}, {"type": "note_off", "time": 100, "note": 77, "velocity": 95, "channel": 0}, {"type": "note_on", "time": 6, "note": 76, "velocity": 98, "channel": 0}, {"type": "note_off", "time": 61, "note": 76, "velocity": 98, "channel": 0}, {"type": "note_on", "time": 22, "note": 74, "velocity": 102, "channel": 0}, {"type": "note_off", "time": 100, "note": 74, "velocity": 102, "channel": 0}, {"type": "note_on", "time": 1, "note": 72, "velocity": 106, "channel": 0}, {"type": "note_off", "time": 17, "note": 72, "velocity": 106, "channel": 0}, {"type": "note_on", "time": 0, "note": 73, "velocity": 100, "channel": 0}, {"type": "note_off", "time": 42, "note": 73, "velocity": 100, "channel": 0}, {"type": "note_on", "time": 1, "note": 72, "velocity": 98, "channel": 0}, {"type": "note_off", "time": 116, "note": 72, "velocity": 98, "channel": 0}, {"type": "note_on", "time": 7, "note": 70, "velocity": 102, "channel": 0}, {"type": "note_off", "time": 32, "note": 70, "velocity": 102, "channel": 0}, {"type": "note_on", "time": 0, "note": 71, "velocity": 99, "channel": 0}, {"type": "note_off", "time": 49, "note": 71, "velocity": 99, "channel": 0}, {"type": "note_on", "time": 3, "note": 70, "velocity": 95, "channel": 0}, {"type": "note_off", "time": 82, "note": 70, "velocity": 95, "channel": 0}, {"type": "note_on", "time": 2, "note": 69, "velocity": 102, "channel": 0}, {"type": "note_off", "time": 94, "note": 69, "velocity": 102, "channel": 0}, {"type": "note_on", "time": 16, "note": 67, "velocity": 89, "channel": 0}, {"type": "note_off", "time": 24, "note": 67, "velocity": 89, "channel": 0}, {"type": "note_on", "time": 18, "note": 69, "velocity": 100, "channel": 0}, {"type": "note_off", "time": 29, "note": 69, "velocity": 100, "channel": 0}, {"type": "note_on", "time": 18, "note": 67, "velocity": 95, "channel": 0}, {"type": "note_off", "time": 24, "note": 67, "velocity": 95, "channel": 0}, {"type": "note_on", "time": 9, "note": 66, "velocity": 80, "channel": 0}, {"type": "note_off", "time": 4, "note": 66, "velocity": 80, "channel": 0}, {"type": "note_on", "time": 0, "note": 66, "velocity": 105, "channel": 0}, {"type": "note_off", "time": 17, "note": 66, "velocity": 105, "channel": 0}, {"type": "note_on", "time": 29, "note": 65, "velocity": 96, "channel": 0}, {"type": "note_off", "time": 110, "note": 65, "velocity": 96, "channel": 0}, {"type": "note_on", "time": 26, "note": 64, "velocity": 95, "channel": 0}, {"type": "note_off", "time": 58, "note": 64, "velocity": 95, "channel": 0}, {"type": "note_on", "time": 0, "note": 63, "velocity": 93, "channel": 0}, {"type": "note_off", "time": 120, "note": 63, "velocity": 93, "channel": 0}, {"type": "note_on", "time": 247, "note": 59, "velocity": 101, "channel": 0}, {"type": "note_off", "time": 13, "note": 59, "velocity": 101, "channel": 0}, {"type": "note_on", "time": 3, "note": 62, "velocity": 102, "channel": 0}, {"type": "note_off", "time": 172, "note": 62, "velocity": 102, "channel": 0}, {"type": "note_on", "time": 17, "note": 60, "velocity": 100, "channel": 0}, {"type": "note_off", "time": 26, "note": 60, "velocity": 100, "channel": 0}, {"type": "note_on", "time": 0, "note": 62, "velocity": 103, "channel": 0}, {"type": "note_off", "time": 34, "note": 62, "velocity": 103, "channel": 0}, {"type": "note_on", "time": 10, "note": 60, "velocity": 101, "channel": 0}, {"type": "note_off", "time": 37, "note": 60, "velocity": 101, "channel": 0}, {"type": "note_on", "time": 11, "note": 57, "velocity": 99, "channel": 0}, {"type": "note_off", "time": 20, "note": 57, "velocity": 99, "channel": 0}, {"type": "note_on", "time": 17, "note": 54, "velocity": 96, "channel": 0}, {"type": "note_off", "time": 157, "note": 54, "velocity": 96, "channel": 0}, {"type": "note_on", "time": 8, "note": 53, "velocity": 96, "channel": 0}, {"type": "note_off", "time": 128, "note": 53, "velocity": 96, "channel": 0}, {"type": "note_on", "time": 58, "note": 51, "velocity": 102, "channel": 0}, {"type": "note_off", "time": 78, "note": 51, "velocity": 102, "channel": 0}, {"type": "note_on", "time": 8, "note": 50, "velocity": 98, "channel": 0}, {"type": "note_off", "time": 112, "note": 50, "velocity": 98, "channel": 0}, {"type": "note_on", "time": 51, "note": 58, "velocity": 97, "channel": 0}, {"type": "note_off", "time": 188, "note": 58, "velocity": 97, "channel": 0}, {"type": "note_on", "time": 385, "note": 58, "velocity": 97, "channel": 0}, {"type": "note_off", "time": 68, "note": 58, "velocity": 97, "channel": 0}, {"type": "note_on", "time": 40, "note": 62, "velocity": 101, "channel": 0}, {"type": "note_off", "time": 65, "note": 62, "velocity": 101, "channel": 0}, {"type": "note_on", "time": 8, "note": 57, "velocity": 91, "channel": 0}, {"type": "note_off", "time": 98, "note": 57, "velocity": 91, "channel": 0}, {"type": "note_on", "time": 14, "note": 60, "velocity": 102, "channel": 0}, {"type": "note_off", "time": 91, "note": 60, "velocity": 102, "channel": 0}, {"type": "note_on", "time": 1, "note": 63, "velocity": 94, "channel": 0}, {"type": "note_off", "time": 91, "note": 63, "velocity": 94, "channel": 0}, {"type": "note_on", "time": 10, "note": 64, "velocity": 104, "channel": 0}, {"type": "note_off", "time": 12, "note": 64, "velocity": 104, "channel": 0}, {"type": "note_on", "time": 0, "note": 66, "velocity": 105, "channel": 0}, {"type": "note_off", "time": 104, "note": 66, "velocity": 105, "channel": 0}, {"type": "note_on", "time": 2, "note": 65, "velocity": 90, "channel": 0}, {"type": "note_off", "time": 47, "note": 65, "velocity": 90, "channel": 0}, {"type": "note_on", "time": 34, "note": 63, "velocity": 96, "channel": 0}, {"type": "note_off", "time": 58, "note": 63, "velocity": 96, "channel": 0}, {"type": "note_on", "time": 16, "note": 62, "velocity": 85, "channel": 0}, {"type": "note_off", "time": 100, "note": 62, "velocity": 85, "channel": 0}, {"type": "note_on", "time": 24, "note": 65, "velocity": 89, "channel": 0}, {"type": "note_off", "time": 26, "note": 65, "velocity": 89, "channel": 0}, {"type": "note_on", "time": 5, "note": 70, "velocity": 102, "channel": 0}, {"type": "note_off", "time": 133, "note": 70, "velocity": 102, "channel": 0}, {"type": "note_on", "time": 11, "note": 70, "velocity": 98, "channel": 0}, {"type": "note_off", "time": 58, "note": 70, "velocity": 98, "channel": 0}, {"type": "note_on", "time": 193, "note": 68, "velocity": 105, "channel": 0}, {"type": "note_off", "time": 146, "note": 68, "velocity": 105, "channel": 0}, {"type": "note_on", "time": 39, "note": 65, "velocity": 95, "channel": 0}, {"type": "note_off", "time": 107, "note": 65, "velocity": 95, "channel": 0}, {"type": "note_on", "time": 0, "note": 65, "velocity": 96, "channel": 0}, {"type": "note_off", "time": 68, "note": 65, "velocity": 96, "channel": 0}, {"type": "note_on", "time": 26, "note": 68, "velocity": 101, "channel": 0}, {"type": "note_off", "time": 16, "note": 68, "velocity": 101, "channel": 0}, {"type": "note_on", "time": 3, "note": 72, "velocity": 90, "channel": 0}, {"type": "note_off", "time": 87, "note": 72, "velocity": 90, "channel": 0}, {"type": "note_on", "time": 8, "note": 75, "velocity": 103, "channel": 0}, {"type": "note_off", "time": 37, "note": 75, "velocity": 103, "channel": 0}, {"type": "note_on", "time": 7, "note": 76, "velocity": 89, "channel": 0}, {"type": "note_off", "time": 29, "note": 76, "velocity": 89, "channel": 0}, {"type": "note_on", "time": 4, "note": 72, "velocity": 96, "channel": 0}, {"type": "note_off", "time": 28, "note": 72, "velocity": 96, "channel": 0}, {"type": "note_on", "time": 5, "note": 71, "velocity": 103, "channel": 0}, {"type": "note_off", "time": 22, "note": 71, "velocity": 103, "channel": 0}, {"type": "note_on", "time": 0, "note": 70, "velocity": 102, "channel": 0}, {"type": "note_off", "time": 25, "note": 70, "velocity": 102, "channel": 0}, {"type": "note_on", "time": 2, "note": 69, "velocity": 104, "channel": 0}, {"type": "note_off", "time": 27, "note": 69, "velocity": 104, "channel": 0}, {"type": "note_on", "time": 14, "note": 68, "velocity": 100, "channel": 0}, {"type": "note_off", "time": 42, "note": 68, "velocity": 100, "channel": 0}, {"type": "note_on", "time": 6, "note": 65, "velocity": 96, "channel": 0}, {"type": "note_off", "time": 110, "note": 65, "velocity": 96, "channel": 0}, {"type": "note_on", "time": 34, "note": 70, "velocity": 103, "channel": 0}, {"type": "note_off", "time": 78, "note": 70, "velocity": 103, "channel": 0}, {"type": "note_on", "time": 9, "note": 69, "velocity": 100, "channel": 0}, {"type": "note_off", "time": 107, "note": 69, "velocity": 100, "channel": 0}, {"type": "note_on", "time": 0, "note": 67, "velocity": 95, "channel": 0}, {"type": "note_off", "time": 23, "note": 67, "velocity": 95, "channel": 0}, {"type": "note_on", "time": 0, "note": 68, "velocity": 105, "channel": 0}, {"type": "note_off", "time": 157, "note": 68, "velocity": 105, "channel": 0}, {"type": "note_on", "time": 6, "note": 65, "velocity": 97, "channel": 0}, {"type": "note_off", "time": 65, "note": 65, "velocity": 97, "channel": 0}, {"type": "note_on", "time": 5, "note": 61, "velocity": 101, "channel": 0}, {"type": "note_off", "time": 115, "note": 61, "velocity": 101, "channel": 0}, {"type": "note_on", "time": 10, "note": 58, "velocity": 96, "channel": 0}, {"type": "note_off", "time": 43, "note": 58, "velocity": 96, "channel": 0}, {"type": "note_on", "time": 6, "note": 60, "velocity": 97, "channel": 0}, {"type": "note_off", "time": 114, "note": 60, "velocity": 97, "channel": 0}, {"type": "note_on", "time": 21, "note": 58, "velocity": 98, "channel": 0}, {"type": "note_off", "time": 68, "note": 58, "velocity": 98, "channel": 0}, {"type": "note_on", "time": 9, "note": 57, "velocity": 91, "channel": 0}, {"type": "note_off", "time": 160, "note": 57, "velocity": 91, "channel": 0}, {"type": "note_on", "time": 9, "note": 65, "velocity": 97, "channel": 0}, {"type": "note_off", "time": 146, "note": 65, "velocity": 97, "channel": 0}, {"type": "note_on", "time": 245, "note": 58, "velocity": 103, "channel": 0}, {"type": "note_off", "time": 104, "note": 58, "velocity": 103, "channel": 0}, {"type": "note_on", "time": 67, "note": 62, "velocity": 94, "channel": 0}, {"type": "note_off", "time": 113, "note": 62, "velocity": 94, "channel": 0}, {"type": "note_on", "time": 36, "note": 65, "velocity": 93, "channel": 0}, {"type": "note_off", "time": 58, "note": 65, "velocity": 93, "channel": 0}, {"type": "note_on", "time": 9, "note": 70, "velocity": 106, "channel": 0}, {"type": "note_off", "time": 100, "note": 70, "velocity": 106, "channel": 0}, {"type": "note_on", "time": 0, "note": 69, "velocity": 99, "channel": 0}, {"type": "note_off", "time": 65, "note": 69, "velocity": 99, "channel": 0}, {"type": "note_on", "time": 10, "note": 72, "velocity": 109, "channel": 0}, {"type": "note_off", "time": 102, "note": 72, "velocity": 109, "channel": 0}, {"type": "note_on", "time": 0, "note": 70, "velocity": 103, "channel": 0}, {"type": "note_off", "time": 81, "note": 70, "velocity": 103, "channel": 0}, {"type": "note_on", "time": 13, "note": 69, "velocity": 107, "channel": 0}, {"type": "note_off", "time": 97, "note": 69, "velocity": 107, "channel": 0}, {"type": "note_on", "time": 1, "note": 67, "velocity": 104, "channel": 0}, {"type": "note_off", "time": 71, "note": 67, "velocity": 104, "channel": 0}, {"type": "note_on", "time": 22, "note": 65, "velocity": 98, "channel": 0}, {"type": "note_off", "time": 104, "note": 65, "velocity": 98, "channel": 0}, {"type": "note_on", "time": 12, "note": 63, "velocity": 101, "channel": 0}, {"type": "note_off", "time": 68, "note": 63, "velocity": 101, "channel": 0}, {"type": "note_on", "time": 3, "note": 62, "velocity": 96, "channel": 0}, {"type": "note_off", "time": 97, "note": 62, "velocity": 96, "channel": 0}, {"type": "note_on", "time": 19, "note": 60, "velocity": 95, "channel": 0}, {"type": "note_on", "time": 66, "note": 61, "velocity": 95, "channel": 0}, {"type": "note_off", "time": 0, "note": 60, "velocity": 95, "channel": 0}, {"type": "note_off", "time": 104, "note": 61, "velocity": 95, "channel": 0}, {"type": "note_on", "time": 19, "note": 57, "velocity": 99, "channel": 0}, {"type": "note_off", "time": 48, "note": 57, "velocity": 99, "channel": 0}, {"type": "note_on", "time": 30, "note": 69, "velocity": 109, "channel": 0}, {"type": "note_off", "time": 117, "note": 69, "velocity": 109, "channel": 0}, {"type": "note_on", "time": 376, "note": 67, "velocity": 113, "channel": 0}, {"type": "note_off", "time": 40, "note": 67, "velocity": 113, "channel": 0}, {"type": "note_on", "time": 6, "note": 69, "velocity": 111, "channel": 0}, {"type": "note_off", "time": 25, "note": 69, "velocity": 111, "channel": 0}, {"type": "note_on", "time": 6, "note": 70, "velocity": 103, "channel": 0}, {"type": "note_off", "time": 20, "note": 70, "velocity": 103, "channel": 0}, {"type": "note_on", "time": 4, "note": 69, "velocity": 102, "channel": 0}, {"type": "note_off", "time": 22, "note": 69, "velocity": 102, "channel": 0}, {"type": "note_on", "time": 15, "note": 67, "velocity": 107, "channel": 0}, {"type": "note_off", "time": 21, "note": 67, "velocity": 107, "channel": 0}, {"type": "note_on", "time": 3, "note": 63, "velocity": 98, "channel": 0}, {"type": "note_off", "time": 23, "note": 63, "velocity": 98, "channel": 0}, {"type": "note_on", "time": 5, "note": 60, "velocity": 91, "channel": 0}, {"type": "note_off", "time": 15, "note": 60, "velocity": 91, "channel": 0}, {"type": "note_on", "time": 3, "note": 58, "velocity": 104, "channel": 0}, {"type": "note_off", "time": 16, "note": 58, "velocity": 104, "channel": 0}, {"type": "note_on", "time": 9, "note": 57, "velocity": 103, "channel": 0}, {"type": "note_off", "time": 17, "note": 57, "velocity": 103, "channel": 0}, {"type": "note_on", "time": 3, "note": 55, "velocity": 103, "channel": 0}, {"type": "note_off", "time": 10, "note": 55, "velocity": 103, "channel": 0}, {"type": "note_on", "time": 9, "note": 62, "velocity": 96, "channel": 0}, {"type": "note_off", "time": 113, "note": 62, "velocity": 96, "channel": 0}, {"type": "note_on", "time": 0, "note": 60, "velocity": 97, "channel": 0}, {"type": "note_off", "time": 40, "note": 60, "velocity": 97, "channel": 0}, {"type": "note_on", "time": 13, "note": 61, "velocity": 99, "channel": 0}, {"type": "note_off", "time": 228, "note": 61, "velocity": 99, "channel": 0}, {"type": "note_on", "time": 3, "note": 60, "velocity": 99, "channel": 0}, {"type": "note_off", "time": 104, "note": 60, "velocity": 99, "channel": 0}, {"type": "note_on", "time": 78, "note": 72, "velocity": 108, "channel": 0}, {"type": "note_off", "time": 377, "note": 72, "velocity": 108, "channel": 0}, {"type": "note_on", "time": 12, "note": 75, "velocity": 107, "channel": 0}, {"type": "note_off", "time": 107, "note": 75, "velocity": 107, "channel": 0}, {"type": "note_on", "time": 13, "note": 73, "velocity": 103, "channel": 0}, {"type": "note_off", "time": 68, "note": 73, "velocity": 103, "channel": 0}, {"type": "note_on", "time": 0, "note": 72, "velocity": 106, "channel": 0}, {"type": "note_on", "time": 120, "note": 74, "velocity": 9, "channel": 0}, {"type": "note_off", "time": 0, "note": 72, "velocity": 106, "channel": 0}, {"type": "note_off", "time": 253, "note": 74, "velocity": 9, "channel": 0}, {"type": "note_on", "time": 13, "note": 72, "velocity": 101, "channel": 0}, {"type": "note_off", "time": 113, "note": 72, "velocity": 101, "channel": 0}, {"type": "note_on", "time": 0, "note": 74, "velocity": 99, "channel": 0}, {"type": "note_off", "time": 61, "note": 74, "velocity": 99, "channel": 0}, {"type": "note_on", "time": 6, "note": 71, "velocity": 98, "channel": 0}, {"type": "note_off", "time": 191, "note": 71, "velocity": 98, "channel": 0}, {"type": "note_on", "time": 17, "note": 69, "velocity": 96, "channel": 0}, {"type": "note_off", "time": 246, "note": 69, "velocity": 96, "channel": 0}, {"type": "note_on", "time": 126, "note": 68, "velocity": 106, "channel": 0}, {"type": "note_off", "time": 136, "note": 68, "velocity": 106, "channel": 0}, {"type": "note_on", "time": 54, "note": 70, "velocity": 108, "channel": 0}, {"type": "note_off", "time": 46, "note": 70, "velocity": 108, "channel": 0}, {"type": "note_on", "time": 3, "note": 72, "velocity": 100, "channel": 0}, {"type": "note_off", "time": 51, "note": 72, "velocity": 100, "channel": 0}, {"type": "note_on", "time": 2, "note": 75, "velocity": 97, "channel": 0}, {"type": "note_off", "time": 67, "note": 75, "velocity": 97, "channel": 0}, {"type": "note_on", "time": 7, "note": 72, "velocity": 100, "channel": 0}, {"type": "note_off", "time": 19, "note": 72, "velocity": 100, "channel": 0}, {"type": "note_on", "time": 0, "note": 71, "velocity": 105, "channel": 0}, {"type": "note_off", "time": 46, "note": 71, "velocity": 105, "channel": 0}, {"type": "note_on", "time": 0, "note": 70, "velocity": 105, "channel": 0}, {"type": "note_off", "time": 79, "note": 70, "velocity": 105, "channel": 0}, {"type": "note_on", "time": 1, "note": 69, "velocity": 110, "channel": 0}, {"type": "note_off", "time": 36, "note": 69, "velocity": 110, "channel": 0}, {"type": "note_on", "time": 8, "note": 70, "velocity": 96, "channel": 0}, {"type": "note_off", "time": 18, "note": 70, "velocity": 96, "channel": 0}, {"type": "note_on", "time": 10, "note": 68, "velocity": 105, "channel": 0}, {"type": "note_off", "time": 97, "note": 68, "velocity": 105, "channel": 0}, {"type": "note_on", "time": 29, "note": 66, "velocity": 108, "channel": 0}, {"type": "note_off", "time": 68, "note": 66, "velocity": 108, "channel": 0}, {"type": "note_on", "time": 0, "note": 63, "velocity": 95, "channel": 0}, {"type": "note_off", "time": 96, "note": 63, "velocity": 95, "channel": 0}, {"type": "note_on", "time": 12, "note": 58, "velocity": 92, "channel": 0}, {"type": "note_off", "time": 40, "note": 58, "velocity": 92, "channel": 0}, {"type": "note_on", "time": 22, "note": 61, "velocity": 100, "channel": 0}, {"type": "note_off", "time": 104, "note": 61, "velocity": 100, "channel": 0}, {"type": "note_on", "time": 12, "note": 59, "velocity": 98, "channel": 0}, {"type": "note_off", "time": 62, "note": 59, "velocity": 98, "channel": 0}, {"type": "note_on", "time": 15, "note": 60, "velocity": 93, "channel": 0}, {"type": "note_off", "time": 81, "note": 60, "velocity": 93, "channel": 0}, {"type": "note_on", "time": 34, "note": 66, "velocity": 105, "channel": 0}, {"type": "note_off", "time": 39, "note": 66, "velocity": 105, "channel": 0}, {"type": "note_on", "time": 4, "note": 65, "velocity": 107, "channel": 0}, {"type": "note_off", "time": 26, "note": 65, "velocity": 107, "channel": 0}, {"type": "note_on", "time": 1, "note": 67, "velocity": 100, "channel": 0}, {"type": "note_off", "time": 133, "note": 67, "velocity": 100, "channel": 0}, {"type": "note_on", "time": 52, "note": 71, "velocity": 105, "channel": 0}, {"type": "note_off", "time": 117, "note": 71, "velocity": 105, "channel": 0}, {"type": "note_on", "time": 0, "note": 71, "velocity": 106, "channel": 0}, {"type": "note_off", "time": 78, "note": 71, "velocity": 106, "channel": 0}, {"type": "note_on", "time": 3, "note": 67, "velocity": 102, "channel": 0}, {"type": "note_off", "time": 188, "note": 67, "velocity": 102, "channel": 0}, {"type": "note_on", "time": 6, "note": 66, "velocity": 104, "channel": 0}, {"type": "note_off", "time": 126, "note": 66, "velocity": 104, "channel": 0}, {"type": "note_on", "time": 61, "note": 70, "velocity": 101, "channel": 0}, {"type": "note_off", "time": 107, "note": 70, "velocity": 101, "channel": 0}, {"type": "note_on", "time": 0, "note": 70, "velocity": 99, "channel": 0}, {"type": "note_off", "time": 81, "note": 70, "velocity": 99, "channel": 0}, {"type": "note_on", "time": 0, "note": 66, "velocity": 102, "channel": 0}, {"type": "note_off", "time": 130, "note": 66, "velocity": 102, "channel": 0}, {"type": "note_on", "time": 58, "note": 65, "velocity": 98, "channel": 0}, {"type": "note_off", "time": 123, "note": 65, "velocity": 98, "channel": 0}, {"type": "note_on", "time": 0, "note": 65, "velocity": 98, "channel": 0}, {"type": "note_off", "time": 45, "note": 65, "velocity": 98, "channel": 0}, {"type": "note_on", "time": 188, "note": 67, "velocity": 99, "channel": 0}, {"type": "note_off", "time": 39, "note": 67, "velocity": 99, "channel": 0}, {"type": "note_on", "time": 0, "note": 69, "velocity": 109, "channel": 0}, {"type": "note_off", "time": 113, "note": 69, "velocity": 109, "channel": 0}, {"type": "note_on", "time": 61, "note": 65, "velocity": 94, "channel": 0}, {"type": "note_off", "time": 182, "note": 65, "velocity": 94, "channel": 0}, {"type": "note_on", "time": 216, "note": 70, "velocity": 108, "channel": 0}, {"type": "note_off", "time": 64, "note": 70, "velocity": 108, "channel": 0}, {"type": "note_on", "time": 0, "note": 69, "velocity": 102, "channel": 0}, {"type": "note_off", "time": 43, "note": 69, "velocity": 102, "channel": 0}, {"type": "note_on", "time": 21, "note": 65, "velocity": 88, "channel": 0}, {"type": "note_off", "time": 43, "note": 65, "velocity": 88, "channel": 0}, {"type": "note_on", "time": 24, "note": 65, "velocity": 95, "channel": 0}, {"type": "note_off", "time": 126, "note": 65, "velocity": 95, "channel": 0}, {"type": "note_on", "time": 11, "note": 65, "velocity": 96, "channel": 0}, {"type": "note_off", "time": 48, "note": 65, "velocity": 96, "channel": 0}, {"type": "note_on", "time": 308, "note": 65, "velocity": 100, "channel": 0}, {"type": "note_off", "time": 68, "note": 65, "velocity": 100, "channel": 0}, {"type": "note_on", "time": 16, "note": 69, "velocity": 109, "channel": 0}, {"type": "note_off", "time": 120, "note": 69, "velocity": 109, "channel": 0}, {"type": "note_on", "time": 3, "note": 65, "velocity": 91, "channel": 0}, {"type": "note_off", "time": 51, "note": 65, "velocity": 91, "channel": 0}, {"type": "note_on", "time": 10, "note": 70, "velocity": 101, "channel": 0}, {"type": "note_off", "time": 133, "note": 70, "velocity": 101, "channel": 0}, {"type": "note_on", "time": 3, "note": 65, "velocity": 92, "channel": 0}, {"type": "note_off", "time": 30, "note": 65, "velocity": 92, "channel": 0}, {"type": "note_on", "time": 1, "note": 68, "velocity": 105, "channel": 0}, {"type": "note_off", "time": 30, "note": 68, "velocity": 105, "channel": 0}, {"type": "note_on", "time": 0, "note": 71, "velocity": 105, "channel": 0}, {"type": "note_off", "time": 82, "note": 71, "velocity": 105, "channel": 0}, {"type": "note_on", "time": 45, "note": 70, "velocity": 106, "channel": 0}, {"type": "note_off", "time": 42, "note": 70, "velocity": 106, "channel": 0}, {"type": "note_on", "time": 0, "note": 72, "velocity": 98, "channel": 0}, {"type": "note_off", "time": 103, "note": 72, "velocity": 98, "channel": 0}, {"type": "note_on", "time": 0, "note": 72, "velocity": 104, "channel": 0}, {"type": "note_off", "time": 13, "note": 72, "velocity": 104, "channel": 0}, {"type": "note_on", "time": 0, "note": 75, "velocity": 96, "channel": 0}, {"type": "note_off", "time": 585, "note": 75, "velocity": 96, "channel": 0}, {"type": "note_on", "time": 9, "note": 75, "velocity": 98, "channel": 0}, {"type": "note_off", "time": 58, "note": 75, "velocity": 98, "channel": 0}, {"type": "note_on", "time": 0, "note": 78, "velocity": 99, "channel": 0}, {"type": "note_off", "time": 78, "note": 78, "velocity": 99, "channel": 0}, {"type": "note_on", "time": 0, "note": 79, "velocity": 96, "channel": 0}, {"type": "note_off", "time": 100, "note": 79, "velocity": 96, "channel": 0}, {"type": "note_on", "time": 0, "note": 79, "velocity": 98, "channel": 0}, {"type": "note_off", "time": 16, "note": 79, "velocity": 98, "channel": 0}, {"type": "note_on", "time": 3, "note": 77, "velocity": 98, "channel": 0}, {"type": "note_off", "time": 165, "note": 77, "velocity": 98, "channel": 0}, {"type": "note_on", "time": 7, "note": 74, "velocity": 105, "channel": 0}, {"type": "note_off", "time": 65, "note": 74, "velocity": 105, "channel": 0}, {"type": "note_on", "time": 4, "note": 75, "velocity": 104, "channel": 0}, {"type": "note_off", "time": 116, "note": 75, "velocity": 104, "channel": 0}, {"type": "note_on", "time": 8, "note": 74, "velocity": 102, "channel": 0}, {"type": "note_off", "time": 198, "note": 74, "velocity": 102, "channel": 0}, {"type": "note_on", "time": 0, "note": 72, "velocity": 96, "channel": 0}, {"type": "note_off", "time": 185, "note": 72, "velocity": 96, "channel": 0}, {"type": "note_on", "time": 13, "note": 69, "velocity": 98, "channel": 0}, {"type": "note_off", "time": 61, "note": 69, "velocity": 98, "channel": 0}, {"type": "note_on", "time": 0, "note": 70, "velocity": 99, "channel": 0}, {"type": "note_off", "time": 126, "note": 70, "velocity": 99, "channel": 0}, {"type": "note_on", "time": 19, "note": 69, "velocity": 103, "channel": 0}, {"type": "note_off", "time": 117, "note": 69, "velocity": 103, "channel": 0}, {"type": "note_on", "time": 0, "note": 65, "velocity": 98, "channel": 0}, {"type": "note_off", "time": 61, "note": 65, "velocity": 98, "channel": 0}, {"type": "note_on", "time": 0, "note": 60, "velocity": 96, "channel": 0}, {"type": "note_off", "time": 139, "note": 60, "velocity": 96, "channel": 0}, {"type": "note_on", "time": 5, "note": 57, "velocity": 99, "channel": 0}, {"type": "note_off", "time": 59, "note": 57, "velocity": 99, "channel": 0}, {"type": "note_on", "time": 23, "note": 58, "velocity": 95, "channel": 0}, {"type": "note_off", "time": 108, "note": 58, "velocity": 95, "channel": 0}, {"type": "note_on", "time": 0, "note": 60, "velocity": 99, "channel": 0}, {"type": "note_off", "time": 51, "note": 60, "velocity": 99, "channel": 0}, {"type": "note_on", "time": 8, "note": 57, "velocity": 95, "channel": 0}, {"type": "note_off", "time": 182, "note": 57, "velocity": 95, "channel": 0}, {"type": "note_on", "time": 423, "note": 62, "velocity": 105, "channel": 0}, {"type": "note_off", "time": 119, "note": 62, "velocity": 105, "channel": 0}, {"type": "note_on", "time": 0, "note": 59, "velocity": 99, "channel": 0}, {"type": "note_off", "time": 53, "note": 59, "velocity": 99, "channel": 0}, {"type": "note_on", "time": 2, "note": 60, "velocity": 96, "channel": 0}, {"type": "note_off", "time": 117, "note": 60, "velocity": 96, "channel": 0}, {"type": "note_on", "time": 32, "note": 65, "velocity": 98, "channel": 0}, {"type": "note_off", "time": 149, "note": 65, "velocity": 98, "channel": 0}, {"type": "note_on", "time": 16, "note": 57, "velocity": 99, "channel": 0}, {"type": "note_off", "time": 73, "note": 57, "velocity": 99, "channel": 0}, {"type": "note_on", "time": 22, "note": 66, "velocity": 109, "channel": 0}, {"type": "note_off", "time": 125, "note": 66, "velocity": 109, "channel": 0}, {"type": "note_on", "time": 0, "note": 63, "velocity": 94, "channel": 0}, {"type": "note_off", "time": 35, "note": 63, "velocity": 94, "channel": 0}, {"type": "note_on", "time": 4, "note": 68, "velocity": 107, "channel": 0}, {"type": "note_off", "time": 122, "note": 68, "velocity": 107, "channel": 0}, {"type": "note_on", "time": 0, "note": 67, "velocity": 96, "channel": 0}, {"type": "note_off", "time": 55, "note": 67, "velocity": 96, "channel": 0}, {"type": "note_on", "time": 13, "note": 71, "velocity": 103, "channel": 0}, {"type": "note_off", "time": 123, "note": 71, "velocity": 103, "channel": 0}, {"type": "note_on", "time": 2, "note": 69, "velocity": 96, "channel": 0}, {"type": "note_on", "time": 68, "note": 74, "velocity": 105, "channel": 0}, {"type": "note_off", "time": 0, "note": 69, "velocity": 96, "channel": 0}, {"type": "note_off", "time": 130, "note": 74, "velocity": 105, "channel": 0}, {"type": "note_on", "time": 3, "note": 72, "velocity": 88, "channel": 0}, {"type": "note_off", "time": 55, "note": 72, "velocity": 88, "channel": 0}, {"type": "note_on", "time": 6, "note": 77, "velocity": 101, "channel": 0}, {"type": "note_off", "time": 123, "note": 77, "velocity": 101, "channel": 0}, {"type": "note_on", "time": 3, "note": 75, "velocity": 101, "channel": 0}, {"type": "note_off", "time": 81, "note": 75, "velocity": 101, "channel": 0}, {"type": "note_on", "time": 16, "note": 72, "velocity": 108, "channel": 0}, {"type": "note_off", "time": 42, "note": 72, "velocity": 108, "channel": 0}, {"type": "note_on", "time": 5, "note": 73, "velocity": 102, "channel": 0}, {"type": "note_off", "time": 59, "note": 73, "velocity": 102, "channel": 0}, {"type": "note_on", "time": 4, "note": 74, "velocity": 103, "channel": 0}, {"type": "note_off", "time": 49, "note": 74, "velocity": 103, "channel": 0}, {"type": "note_on", "time": 15, "note": 75, "velocity": 99, "channel": 0}, {"type": "note_off", "time": 169, "note": 75, "velocity": 99, "channel": 0}, {"type": "note_on", "time": 12, "note": 77, "velocity": 96, "channel": 0}, {"type": "note_off", "time": 123, "note": 77, "velocity": 96, "channel": 0}, {"type": "note_on", "time": 0, "note": 77, "velocity": 103, "channel": 0}, {"type": "note_off", "time": 16, "note": 77, "velocity": 103, "channel": 0}, {"type": "note_on", "time": 9, "note": 70, "velocity": 86, "channel": 0}, {"type": "note_off", "time": 229, "note": 70, "velocity": 86, "channel": 0}, {"type": "note_on", "time": 216, "note": 68, "velocity": 105, "channel": 0}, {"type": "note_off", "time": 84, "note": 68, "velocity": 105, "channel": 0}, {"type": "note_on", "time": 0, "note": 70, "velocity": 107, "channel": 0}, {"type": "note_off", "time": 19, "note": 70, "velocity": 107, "channel": 0}, {"type": "note_on", "time": 0, "note": 68, "velocity": 107, "channel": 0}, {"type": "note_off", "time": 35, "note": 68, "velocity": 107, "channel": 0}, {"type": "note_on", "time": 5, "note": 65, "velocity": 102, "channel": 0}, {"type": "note_off", "time": 46, "note": 65, "velocity": 102, "channel": 0}, {"type": "note_on", "time": 6, "note": 63, "velocity": 103, "channel": 0}, {"type": "note_off", "time": 100, "note": 63, "velocity": 103, "channel": 0}, {"type": "note_on", "time": 72, "note": 58, "velocity": 103, "channel": 0}, {"type": "note_off", "time": 94, "note": 58, "velocity": 103, "channel": 0}, {"type": "note_on", "time": 21, "note": 61, "velocity": 101, "channel": 0}, {"type": "note_off", "time": 91, "note": 61, "velocity": 101, "channel": 0}, {"type": "note_on", "time": 0, "note": 62, "velocity": 97, "channel": 0}, {"type": "note_on", "time": 45, "note": 65, "velocity": 92, "channel": 0}, {"type": "note_off", "time": 0, "note": 62, "velocity": 97, "channel": 0}, {"type": "note_off", "time": 43, "note": 65, "velocity": 92, "channel": 0}, {"type": "note_on", "time": 0, "note": 67, "velocity": 97, "channel": 0}, {"type": "note_off", "time": 59, "note": 67, "velocity": 97, "channel": 0}, {"type": "note_on", "time": 33, "note": 68, "velocity": 100, "channel": 0}, {"type": "note_on", "time": 136, "note": 58, "velocity": 96, "channel": 0}, {"type": "note_off", "time": 0, "note": 68, "velocity": 100, "channel": 0}, {"type": "note_off", "time": 117, "note": 58, "velocity": 96, "channel": 0}, {"type": "note_on", "time": 139, "note": 67, "velocity": 104, "channel": 0}, {"type": "note_off", "time": 139, "note": 67, "velocity": 104, "channel": 0}, {"type": "note_on", "time": 48, "note": 65, "velocity": 102, "channel": 0}, {"type": "note_off", "time": 104, "note": 65, "velocity": 102, "channel": 0}, {"type": "note_on", "time": 4, "note": 65, "velocity": 89, "channel": 0}, {"type": "note_off", "time": 59, "note": 65, "velocity": 89, "channel": 0}, {"type": "note_on", "time": 21, "note": 70, "velocity": 100, "channel": 0}, {"type": "note_off", "time": 41, "note": 70, "velocity": 100, "channel": 0}, {"type": "note_on", "time": 0, "note": 72, "velocity": 104, "channel": 0}, {"type": "note_off", "time": 42, "note": 72, "velocity": 104, "channel": 0}, {"type": "note_on", "time": 25, "note": 75, "velocity": 99, "channel": 0}, {"type": "note_off", "time": 85, "note": 75, "velocity": 99, "channel": 0}, {"type": "note_on", "time": 4, "note": 72, "velocity": 94, "channel": 0}, {"type": "note_off", "time": 78, "note": 72, "velocity": 94, "channel": 0}, {"type": "note_on", "time": 0, "note": 70, "velocity": 104, "channel": 0}, {"type": "note_off", "time": 68, "note": 70, "velocity": 104, "channel": 0}, {"type": "note_on", "time": 4, "note": 68, "velocity": 103, "channel": 0}, {"type": "note_off", "time": 49, "note": 68, "velocity": 103, "channel": 0}, {"type": "note_on", "time": 6, "note": 65, "velocity": 95, "channel": 0}, {"type": "note_off", "time": 81, "note": 65, "velocity": 95, "channel": 0}, {"type": "note_on", "time": 39, "note": 63, "velocity": 101, "channel": 0}, {"type": "note_off", "time": 78, "note": 63, "velocity": 101, "channel": 0}, {"type": "note_on", "time": 0, "note": 60, "velocity": 97, "channel": 0}, {"type": "note_off", "time": 82, "note": 60, "velocity": 97, "channel": 0}, {"type": "note_on", "time": 85, "note": 58, "velocity": 95, "channel": 0}, {"type": "note_off", "time": 100, "note": 58, "velocity": 95, "channel": 0}, {"type": "note_on", "time": 22, "note": 60, "velocity": 98, "channel": 0}, {"type": "note_off", "time": 58, "note": 60, "velocity": 98, "channel": 0}, {"type": "note_on", "time": 26, "note": 57, "velocity": 103, "channel": 0}, {"type": "note_off", "time": 104, "note": 57, "velocity": 103, "channel": 0}, {"type": "note_on", "time": 24, "note": 60, "velocity": 91, "channel": 0}, {"type": "note_off", "time": 58, "note": 60, "velocity": 91, "channel": 0}, {"type": "note_on", "time": 6, "note": 67, "velocity": 98, "channel": 0}, {"type": "note_off", "time": 100, "note": 67, "velocity": 98, "channel": 0}, {"type": "note_on", "time": 0, "note": 65, "velocity": 97, "channel": 0}, {"type": "note_off", "time": 45, "note": 65, "velocity": 97, "channel": 0}, {"type": "note_on", "time": 30, "note": 64, "velocity": 87, "channel": 0}, {"type": "note_off", "time": 29, "note": 64, "velocity": 87, "channel": 0}, {"type": "note_on", "time": 17, "note": 65, "velocity": 92, "channel": 0}, {"type": "note_off", "time": 27, "note": 65, "velocity": 92, "channel": 0}, {"type": "note_on", "time": 6, "note": 69, "velocity": 84, "channel": 0}, {"type": "note_off", "time": 27, "note": 69, "velocity": 84, "channel": 0}, {"type": "note_on", "time": 12, "note": 72, "velocity": 76, "channel": 0}, {"type": "note_off", "time": 31, "note": 72, "velocity": 76, "channel": 0}, {"type": "note_on", "time": 9, "note": 75, "velocity": 78, "channel": 0}, {"type": "note_off", "time": 41, "note": 75, "velocity": 78, "channel": 0}, {"type": "note_on", "time": 3, "note": 77, "velocity": 92, "channel": 0}, {"type": "note_off", "time": 105, "note": 77, "velocity": 92, "channel": 0}, {"type": "note_on", "time": 13, "note": 77, "velocity": 86, "channel": 0}, {"type": "note_off", "time": 188, "note": 77, "velocity": 86, "channel": 0}, {"type": "note_on", "time": 10, "note": 77, "velocity": 87, "channel": 0}, {"type": "note_off", "time": 69, "note": 77, "velocity": 87, "channel": 0}, {"type": "note_on", "time": 304, "note": 74, "velocity": 108, "channel": 0}, {"type": "note_off", "time": 38, "note": 74, "velocity": 108, "channel": 0}, {"type": "note_on", "time": 0, "note": 72, "velocity": 110, "channel": 0}, {"type": "note_off", "time": 47, "note": 72, "velocity": 110, "channel": 0}, {"type": "note_on", "time": 0, "note": 70, "velocity": 104, "channel": 0}, {"type": "note_off", "time": 42, "note": 70, "velocity": 104, "channel": 0}, {"type": "note_on", "time": 5, "note": 69, "velocity": 108, "channel": 0}, {"type": "note_off", "time": 36, "note": 69, "velocity": 108, "channel": 0}, {"type": "note_on", "time": 1, "note": 67, "velocity": 105, "channel": 0}, {"type": "note_off", "time": 42, "note": 67, "velocity": 105, "channel": 0}, {"type": "note_on", "time": 0, "note": 66, "velocity": 106, "channel": 0}, {"type": "note_off", "time": 45, "note": 66, "velocity": 106, "channel": 0}, {"type": "note_on", "time": 0, "note": 65, "velocity": 101, "channel": 0}, {"type": "note_off", "time": 50, "note": 65, "velocity": 101, "channel": 0}, {"type": "note_on", "time": 0, "note": 64, "velocity": 101, "channel": 0}, {"type": "note_off", "time": 39, "note": 64, "velocity": 101, "channel": 0}, {"type": "note_on", "time": 8, "note": 63, "velocity": 94, "channel": 0}, {"type": "note_off", "time": 46, "note": 63, "velocity": 94, "channel": 0}, {"type": "note_on", "time": 6, "note": 58, "velocity": 101, "channel": 0}, {"type": "note_off", "time": 36, "note": 58, "velocity": 101, "channel": 0}, {"type": "note_on", "time": 0, "note": 61, "velocity": 96, "channel": 0}, {"type": "note_off", "time": 38, "note": 61, "velocity": 96, "channel": 0}, {"type": "note_on", "time": 5, "note": 53, "velocity": 95, "channel": 0}, {"type": "note_off", "time": 26, "note": 53, "velocity": 95, "channel": 0}, {"type": "note_on", "time": 2, "note": 55, "velocity": 90, "channel": 0}, {"type": "note_off", "time": 23, "note": 55, "velocity": 90, "channel": 0}, {"type": "note_on", "time": 2, "note": 57, "velocity": 93, "channel": 0}, {"type": "note_off", "time": 23, "note": 57, "velocity": 93, "channel": 0}, {"type": "note_on", "time": 4, "note": 55, "velocity": 98, "channel": 0}, {"type": "note_off", "time": 22, "note": 55, "velocity": 98, "channel": 0}, {"type": "note_on", "time": 10, "note": 57, "velocity": 97, "channel": 0}, {"type": "note_off", "time": 26, "note": 57, "velocity": 97, "channel": 0}, {"type": "note_on", "time": 16, "note": 60, "velocity": 104, "channel": 0}, {"type": "note_off", "time": 32, "note": 60, "velocity": 104, "channel": 0}, {"type": "note_on", "time": 5, "note": 58, "velocity": 98, "channel": 0}, {"type": "note_off", "time": 43, "note": 58, "velocity": 98, "channel": 0}, {"type": "note_on", "time": 5, "note": 57, "velocity": 89, "channel": 0}, {"type": "note_off", "time": 33, "note": 57, "velocity": 89, "channel": 0}, {"type": "note_on", "time": 7, "note": 58, "velocity": 102, "channel": 0}, {"type": "note_off", "time": 52, "note": 58, "velocity": 102, "channel": 0}, {"type": "note_on", "time": 3, "note": 62, "velocity": 107, "channel": 0}, {"type": "note_off", "time": 26, "note": 62, "velocity": 107, "channel": 0}, {"type": "note_on", "time": 2, "note": 65, "velocity": 98, "channel": 0}, {"type": "note_off", "time": 37, "note": 65, "velocity": 98, "channel": 0}, {"type": "note_on", "time": 8, "note": 67, "velocity": 91, "channel": 0}, {"type": "note_off", "time": 45, "note": 67, "velocity": 91, "channel": 0}, {"type": "note_on", "time": 0, "note": 68, "velocity": 93, "channel": 0}, {"type": "note_off", "time": 58, "note": 68, "velocity": 93, "channel": 0}, {"type": "note_on", "time": 0, "note": 69, "velocity": 99, "channel": 0}, {"type": "note_off", "time": 61, "note": 69, "velocity": 99, "channel": 0}, {"type": "note_on", "time": 2, "note": 70, "velocity": 102, "channel": 0}, {"type": "note_off", "time": 40, "note": 70, "velocity": 102, "channel": 0}, {"type": "note_on", "time": 5, "note": 72, "velocity": 100, "channel": 0}, {"type": "note_off", "time": 39, "note": 72, "velocity": 100, "channel": 0}, {"type": "note_on", "time": 10, "note": 69, "velocity": 98, "channel": 0}, {"type": "note_off", "time": 41, "note": 69, "velocity": 98, "channel": 0}, {"type": "note_on", "time": 6, "note": 71, "velocity": 104, "channel": 0}, {"type": "note_off", "time": 122, "note": 71, "velocity": 104, "channel": 0}, {"type": "note_on", "time": 0, "note": 67, "velocity": 99, "channel": 0}, {"type": "note_off", "time": 52, "note": 67, "velocity": 99, "channel": 0}, {"type": "note_on", "time": 10, "note": 64, "velocity": 94, "channel": 0}, {"type": "note_off", "time": 39, "note": 64, "velocity": 94, "channel": 0}, {"type": "note_on", "time": 3, "note": 59, "velocity": 99, "channel": 0}, {"type": "note_off", "time": 32, "note": 59, "velocity": 99, "channel": 0}, {"type": "note_on", "time": 4, "note": 62, "velocity": 95, "channel": 0}, {"type": "note_off", "time": 78, "note": 62, "velocity": 95, "channel": 0}, {"type": "note_on", "time": 217, "note": 61, "velocity": 103, "channel": 0}, {"type": "note_off", "time": 49, "note": 61, "velocity": 103, "channel": 0}, {"type": "note_on", "time": 0, "note": 62, "velocity": 102, "channel": 0}, {"type": "note_off", "time": 52, "note": 62, "velocity": 102, "channel": 0}, {"type": "note_on", "time": 0, "note": 64, "velocity": 100, "channel": 0}, {"type": "note_off", "time": 29, "note": 64, "velocity": 100, "channel": 0}, {"type": "note_on", "time": 0, "note": 66, "velocity": 96, "channel": 0}, {"type": "note_off", "time": 46, "note": 66, "velocity": 96, "channel": 0}, {"type": "note_on", "time": 8, "note": 67, "velocity": 102, "channel": 0}, {"type": "note_off", "time": 45, "note": 67, "velocity": 102, "channel": 0}, {"type": "note_on", "time": 0, "note": 66, "velocity": 106, "channel": 0}, {"type": "note_off", "time": 31, "note": 66, "velocity": 106, "channel": 0}, {"type": "note_on", "time": 0, "note": 64, "velocity": 93, "channel": 0}, {"type": "note_off", "time": 41, "note": 64, "velocity": 93, "channel": 0}, {"type": "note_on", "time": 4, "note": 62, "velocity": 95, "channel": 0}, {"type": "note_off", "time": 30, "note": 62, "velocity": 95, "channel": 0}, {"type": "note_on", "time": 0, "note": 61, "velocity": 103, "channel": 0}, {"type": "note_off", "time": 41, "note": 61, "velocity": 103, "channel": 0}, {"type": "note_on", "time": 18, "note": 60, "velocity": 90, "channel": 0}, {"type": "note_off", "time": 87, "note": 60, "velocity": 90, "channel": 0}, {"type": "note_on", "time": 27, "note": 60, "velocity": 99, "channel": 0}, {"type": "note_off", "time": 57, "note": 60, "velocity": 99, "channel": 0}, {"type": "note_on", "time": 0, "note": 62, "velocity": 100, "channel": 0}, {"type": "note_off", "time": 65, "note": 62, "velocity": 100, "channel": 0}, {"type": "note_on", "time": 3, "note": 63, "velocity": 101, "channel": 0}, {"type": "note_off", "time": 16, "note": 63, "velocity": 101, "channel": 0}, {"type": "note_on", "time": 6, "note": 60, "velocity": 89, "channel": 0}, {"type": "note_off", "time": 36, "note": 60, "velocity": 89, "channel": 0}, {"type": "note_on", "time": 2, "note": 61, "velocity": 94, "channel": 0}, {"type": "note_off", "time": 32, "note": 61, "velocity": 94, "channel": 0}, {"type": "note_on", "time": 1, "note": 62, "velocity": 105, "channel": 0}, {"type": "note_off", "time": 28, "note": 62, "velocity": 105, "channel": 0}, {"type": "note_on", "time": 0, "note": 65, "velocity": 99, "channel": 0}, {"type": "note_off", "time": 30, "note": 65, "velocity": 99, "channel": 0}, {"type": "note_on", "time": 1, "note": 65, "velocity": 103, "channel": 0}, {"type": "note_off", "time": 25, "note": 65, "velocity": 103, "channel": 0}, {"type": "note_on", "time": 6, "note": 66, "velocity": 104, "channel": 0}, {"type": "note_off", "time": 29, "note": 66, "velocity": 104, "channel": 0}, {"type": "note_on", "time": 6, "note": 67, "velocity": 105, "channel": 0}, {"type": "note_off", "time": 24, "note": 67, "velocity": 105, "channel": 0}, {"type": "note_on", "time": 0, "note": 68, "velocity": 102, "channel": 0}, {"type": "note_off", "time": 196, "note": 68, "velocity": 102, "channel": 0}, {"type": "note_on", "time": 2, "note": 65, "velocity": 98, "channel": 0}, {"type": "note_off", "time": 27, "note": 65, "velocity": 98, "channel": 0}, {"type": "note_on", "time": 4, "note": 66, "velocity": 97, "channel": 0}, {"type": "note_off", "time": 20, "note": 66, "velocity": 97, "channel": 0}, {"type": "note_on", "time": 0, "note": 68, "velocity": 98, "channel": 0}, {"type": "note_off", "time": 30, "note": 68, "velocity": 98, "channel": 0}, {"type": "note_on", "time": 2, "note": 70, "velocity": 99, "channel": 0}, {"type": "note_off", "time": 52, "note": 70, "velocity": 99, "channel": 0}, {"type": "note_on", "time": 2, "note": 66, "velocity": 97, "channel": 0}, {"type": "note_off", "time": 86, "note": 66, "velocity": 97, "channel": 0}, {"type": "note_on", "time": 10, "note": 61, "velocity": 98, "channel": 0}, {"type": "note_off", "time": 84, "note": 61, "velocity": 98, "channel": 0}, {"type": "note_on", "time": 263, "note": 63, "velocity": 105, "channel": 0}, {"type": "note_off", "time": 59, "note": 63, "velocity": 105, "channel": 0}, {"type": "note_on", "time": 0, "note": 64, "velocity": 99, "channel": 0}, {"type": "note_off", "time": 46, "note": 64, "velocity": 99, "channel": 0}, {"type": "note_on", "time": 0, "note": 63, "velocity": 95, "channel": 0}, {"type": "note_off", "time": 54, "note": 63, "velocity": 95, "channel": 0}, {"type": "note_on", "time": 0, "note": 62, "velocity": 97, "channel": 0}, {"type": "note_off", "time": 57, "note": 62, "velocity": 97, "channel": 0}, {"type": "note_on", "time": 0, "note": 61, "velocity": 98, "channel": 0}, {"type": "note_off", "time": 64, "note": 61, "velocity": 98, "channel": 0}, {"type": "note_on", "time": 0, "note": 62, "velocity": 100, "channel": 0}, {"type": "note_off", "time": 51, "note": 62, "velocity": 100, "channel": 0}, {"type": "note_on", "time": 0, "note": 64, "velocity": 103, "channel": 0}, {"type": "note_off", "time": 41, "note": 64, "velocity": 103, "channel": 0}, {"type": "note_on", "time": 0, "note": 63, "velocity": 100, "channel": 0}, {"type": "note_off", "time": 34, "note": 63, "velocity": 100, "channel": 0}, {"type": "note_on", "time": 0, "note": 62, "velocity": 98, "channel": 0}, {"type": "note_off", "time": 59, "note": 62, "velocity": 98, "channel": 0}, {"type": "note_on", "time": 8, "note": 55, "velocity": 98, "channel": 0}, {"type": "note_off", "time": 47, "note": 55, "velocity": 98, "channel": 0}, {"type": "note_on", "time": 0, "note": 57, "velocity": 99, "channel": 0}, {"type": "note_off", "time": 20, "note": 57, "velocity": 99, "channel": 0}, {"type": "note_on", "time": 0, "note": 60, "velocity": 98, "channel": 0}, {"type": "note_off", "time": 51, "note": 60, "velocity": 98, "channel": 0}, {"type": "note_on", "time": 0, "note": 59, "velocity": 98, "channel": 0}, {"type": "note_off", "time": 52, "note": 59, "velocity": 98, "channel": 0}, {"type": "note_on", "time": 11, "note": 60, "velocity": 95, "channel": 0}, {"type": "note_off", "time": 39, "note": 60, "velocity": 95, "channel": 0}, {"type": "note_on", "time": 4, "note": 62, "velocity": 96, "channel": 0}, {"type": "note_off", "time": 31, "note": 62, "velocity": 96, "channel": 0}, {"type": "note_on", "time": 12, "note": 64, "velocity": 99, "channel": 0}, {"type": "note_off", "time": 28, "note": 64, "velocity": 99, "channel": 0}, {"type": "note_on", "time": 16, "note": 65, "velocity": 95, "channel": 0}, {"type": "note_off", "time": 35, "note": 65, "velocity": 95, "channel": 0}, {"type": "note_on", "time": 1, "note": 67, "velocity": 97, "channel": 0}, {"type": "note_off", "time": 48, "note": 67, "velocity": 97, "channel": 0}, {"type": "note_on", "time": 2, "note": 68, "velocity": 94, "channel": 0}, {"type": "note_off", "time": 35, "note": 68, "velocity": 94, "channel": 0}, {"type": "note_on", "time": 9, "note": 69, "velocity": 106, "channel": 0}, {"type": "note_on", "time": 54, "note": 73, "velocity": 103, "channel": 0}, {"type": "note_off", "time": 0, "note": 69, "velocity": 106, "channel": 0}, {"type": "note_off", "time": 146, "note": 73, "velocity": 103, "channel": 0}, {"type": "note_on", "time": 0, "note": 70, "velocity": 101, "channel": 0}, {"type": "note_off", "time": 65, "note": 70, "velocity": 101, "channel": 0}, {"type": "note_on", "time": 175, "note": 73, "velocity": 103, "channel": 0}, {"type": "note_off", "time": 124, "note": 73, "velocity": 103, "channel": 0}, {"type": "note_on", "time": 0, "note": 70, "velocity": 94, "channel": 0}, {"type": "note_on", "time": 63, "note": 77, "velocity": 94, "channel": 0}, {"type": "note_off", "time": 0, "note": 70, "velocity": 94, "channel": 0}, {"type": "note_off", "time": 126, "note": 77, "velocity": 94, "channel": 0}, {"type": "note_on", "time": 13, "note": 73, "velocity": 87, "channel": 0}, {"type": "note_off", "time": 74, "note": 73, "velocity": 87, "channel": 0}, {"type": "note_on", "time": 144, "note": 73, "velocity": 104, "channel": 0}, {"type": "note_off", "time": 120, "note": 73, "velocity": 104, "channel": 0}, {"type": "note_on", "time": 71, "note": 74, "velocity": 103, "channel": 0}, {"type": "note_off", "time": 146, "note": 74, "velocity": 103, "channel": 0}, {"type": "note_on", "time": 13, "note": 71, "velocity": 96, "channel": 0}, {"type": "note_off", "time": 58, "note": 71, "velocity": 96, "channel": 0}, {"type": "note_on", "time": 197, "note": 72, "velocity": 99, "channel": 0}, {"type": "note_off", "time": 113, "note": 72, "velocity": 99, "channel": 0}, {"type": "note_on", "time": 0, "note": 70, "velocity": 92, "channel": 0}, {"type": "note_off", "time": 53, "note": 70, "velocity": 92, "channel": 0}, {"type": "note_on", "time": 17, "note": 71, "velocity": 100, "channel": 0}, {"type": "note_off", "time": 117, "note": 71, "velocity": 100, "channel": 0}, {"type": "note_on", "time": 17, "note": 67, "velocity": 94, "channel": 0}, {"type": "note_off", "time": 61, "note": 67, "velocity": 94, "channel": 0}, {"type": "note_on", "time": 5, "note": 70, "velocity": 100, "channel": 0}, {"type": "note_on", "time": 111, "note": 67, "velocity": 104, "channel": 0}, {"type": "note_off", "time": 0, "note": 70, "velocity": 100, "channel": 0}, {"type": "note_off", "time": 67, "note": 67, "velocity": 104, "channel": 0}, {"type": "note_on", "time": 4, "note": 64, "velocity": 91, "channel": 0}, {"type": "note_off", "time": 122, "note": 64, "velocity": 91, "channel": 0}, {"type": "note_on", "time": 0, "note": 59, "velocity": 90, "channel": 0}, {"type": "note_off", "time": 59, "note": 59, "velocity": 90, "channel": 0}, {"type": "note_on", "time": 18, "note": 65, "velocity": 98, "channel": 0}, {"type": "note_off", "time": 78, "note": 65, "velocity": 98, "channel": 0}, {"type": "note_on", "time": 107, "note": 72, "velocity": 88, "channel": 0}, {"type": "note_off", "time": 419, "note": 72, "velocity": 88, "channel": 0}, {"type": "note_on", "time": 0, "note": 72, "velocity": 94, "channel": 0}, {"type": "note_off", "time": 484, "note": 72, "velocity": 94, "channel": 0}, {"type": "note_on", "time": 0, "note": 70, "velocity": 104, "channel": 0}, {"type": "note_off", "time": 32, "note": 70, "velocity": 104, "channel": 0}, {"type": "note_on", "time": 0, "note": 72, "velocity": 100, "channel": 0}, {"type": "note_off", "time": 234, "note": 72, "velocity": 100, "channel": 0}, {"type": "note_on", "time": 0, "note": 70, "velocity": 102, "channel": 0}, {"type": "note_off", "time": 81, "note": 70, "velocity": 102, "channel": 0}, {"type": "note_on", "time": 1, "note": 72, "velocity": 98, "channel": 0}, {"type": "note_off", "time": 47, "note": 72, "velocity": 98, "channel": 0}, {"type": "note_on", "time": 29, "note": 71, "velocity": 97, "channel": 0}, {"type": "note_off", "time": 36, "note": 71, "velocity": 97, "channel": 0}, {"type": "note_on", "time": 6, "note": 70, "velocity": 100, "channel": 0}, {"type": "note_on", "time": 46, "note": 69, "velocity": 103, "channel": 0}, {"type": "note_off", "time": 0, "note": 70, "velocity": 100, "channel": 0}, {"type": "note_off", "time": 57, "note": 69, "velocity": 103, "channel": 0}, {"type": "note_on", "time": 4, "note": 68, "velocity": 102, "channel": 0}, {"type": "note_off", "time": 39, "note": 68, "velocity": 102, "channel": 0}, {"type": "note_on", "time": 0, "note": 65, "velocity": 98, "channel": 0}, {"type": "note_off", "time": 153, "note": 65, "velocity": 98, "channel": 0}, {"type": "note_on", "time": 0, "note": 60, "velocity": 85, "channel": 0}, {"type": "note_off", "time": 56, "note": 60, "velocity": 85, "channel": 0}, {"type": "note_on", "time": 4, "note": 63, "velocity": 96, "channel": 0}, {"type": "note_off", "time": 133, "note": 63, "velocity": 96, "channel": 0}, {"type": "note_on", "time": 9, "note": 60, "velocity": 97, "channel": 0}, {"type": "note_off", "time": 62, "note": 60, "velocity": 97, "channel": 0}, {"type": "note_on", "time": 0, "note": 64, "velocity": 96, "channel": 0}, {"type": "note_off", "time": 65, "note": 64, "velocity": 96, "channel": 0}, {"type": "note_on", "time": 20, "note": 60, "velocity": 92, "channel": 0}, {"type": "note_off", "time": 73, "note": 60, "velocity": 92, "channel": 0}, {"type": "note_on", "time": 17, "note": 65, "velocity": 94, "channel": 0}, {"type": "note_off", "time": 158, "note": 65, "velocity": 94, "channel": 0}, {"type": "note_on", "time": 15, "note": 65, "velocity": 83, "channel": 0}, {"type": "note_off", "time": 43, "note": 65, "velocity": 83, "channel": 0}, {"type": "note_on", "time": 204, "note": 69, "velocity": 101, "channel": 0}, {"type": "note_off", "time": 117, "note": 69, "velocity": 101, "channel": 0}, {"type": "note_on", "time": 253, "note": 60, "velocity": 101, "channel": 0}, {"type": "note_off", "time": 110, "note": 60, "velocity": 101, "channel": 0}, {"type": "note_on", "time": 17, "note": 59, "velocity": 96, "channel": 0}, {"type": "note_off", "time": 47, "note": 59, "velocity": 96, "channel": 0}, {"type": "note_on", "time": 14, "note": 62, "velocity": 94, "channel": 0}, {"type": "note_off", "time": 139, "note": 62, "velocity": 94, "channel": 0}, {"type": "note_on", "time": 0, "note": 60, "velocity": 96, "channel": 0}, {"type": "note_on", "time": 43, "note": 65, "velocity": 92, "channel": 0}, {"type": "note_off", "time": 0, "note": 60, "velocity": 96, "channel": 0}, {"type": "note_off", "time": 182, "note": 65, "velocity": 92, "channel": 0}, {"type": "note_on", "time": 19, "note": 65, "velocity": 87, "channel": 0}, {"type": "note_off", "time": 65, "note": 65, "velocity": 87, "channel": 0}, {"type": "note_on", "time": 109, "note": 69, "velocity": 109, "channel": 0}, {"type": "note_off", "time": 130, "note": 69, "velocity": 109, "channel": 0}, {"type": "note_on", "time": 269, "note": 60, "velocity": 105, "channel": 0}, {"type": "note_off", "time": 97, "note": 60, "velocity": 105, "channel": 0}, {"type": "note_on", "time": 15, "note": 58, "velocity": 98, "channel": 0}, {"type": "note_off", "time": 35, "note": 58, "velocity": 98, "channel": 0}, {"type": "note_on", "time": 10, "note": 62, "velocity": 97, "channel": 0}, {"type": "note_off", "time": 146, "note": 62, "velocity": 97, "channel": 0}, {"type": "note_on", "time": 0, "note": 60, "velocity": 90, "channel": 0}, {"type": "note_off", "time": 69, "note": 60, "velocity": 90, "channel": 0}, {"type": "note_on", "time": 4, "note": 65, "velocity": 94, "channel": 0}, {"type": "note_off", "time": 123, "note": 65, "velocity": 94, "channel": 0}, {"type": "note_on", "time": 71, "note": 69, "velocity": 110, "channel": 0}, {"type": "note_on", "time": 181, "note": 65, "velocity": 92, "channel": 0}, {"type": "note_off", "time": 0, "note": 69, "velocity": 110, "channel": 0}, {"type": "note_off", "time": 136, "note": 65, "velocity": 92, "channel": 0}, {"type": "note_on", "time": 0, "note": 66, "velocity": 102, "channel": 0}, {"type": "note_off", "time": 74, "note": 66, "velocity": 102, "channel": 0}, {"type": "note_on", "time": 179, "note": 70, "velocity": 109, "channel": 0}, {"type": "note_off", "time": 97, "note": 70, "velocity": 109, "channel": 0}, {"type": "note_on", "time": 12, "note": 70, "velocity": 105, "channel": 0}, {"type": "note_off", "time": 81, "note": 70, "velocity": 105, "channel": 0}, {"type": "note_on", "time": 0, "note": 66, "velocity": 109, "channel": 0}, {"type": "note_off", "time": 87, "note": 66, "velocity": 109, "channel": 0}, {"type": "note_on", "time": 104, "note": 65, "velocity": 91, "channel": 0}, {"type": "note_off", "time": 133, "note": 65, "velocity": 91, "channel": 0}, {"type": "note_on", "time": 0, "note": 65, "velocity": 94, "channel": 0}, {"type": "note_off", "time": 18, "note": 65, "velocity": 94, "channel": 0}, {"type": "note_on", "time": 0, "note": 62, "velocity": 95, "channel": 0}, {"type": "note_off", "time": 34, "note": 62, "velocity": 95, "channel": 0}, {"type": "note_on", "time": 3, "note": 65, "velocity": 88, "channel": 0}, {"type": "note_off", "time": 43, "note": 65, "velocity": 88, "channel": 0}, {"type": "note_on", "time": 140, "note": 69, "velocity": 107, "channel": 0}, {"type": "note_off", "time": 100, "note": 69, "velocity": 107, "channel": 0}, {"type": "note_on", "time": 289, "note": 65, "velocity": 100, "channel": 0}, {"type": "note_off", "time": 84, "note": 65, "velocity": 100, "channel": 0}, {"type": "note_on", "time": 104, "note": 69, "velocity": 111, "channel": 0}, {"type": "note_off", "time": 96, "note": 69, "velocity": 111, "channel": 0}, {"type": "note_on", "time": 0, "note": 65, "velocity": 89, "channel": 0}, {"type": "note_off", "time": 68, "note": 65, "velocity": 89, "channel": 0}, {"type": "note_on", "time": 26, "note": 70, "velocity": 100, "channel": 0}, {"type": "note_off", "time": 113, "note": 70, "velocity": 100, "channel": 0}, {"type": "note_on", "time": 55, "note": 74, "velocity": 88, "channel": 0}, {"type": "note_off", "time": 110, "note": 74, "velocity": 88, "channel": 0}, {"type": "note_on", "time": 13, "note": 74, "velocity": 102, "channel": 0}, {"type": "note_off", "time": 77, "note": 74, "velocity": 102, "channel": 0}, {"type": "note_on", "time": 0, "note": 70, "velocity": 100, "channel": 0}, {"type": "note_off", "time": 139, "note": 70, "velocity": 100, "channel": 0}, {"type": "note_on", "time": 5, "note": 71, "velocity": 88, "channel": 0}, {"type": "note_off", "time": 116, "note": 71, "velocity": 88, "channel": 0}, {"type": "note_on", "time": 113, "note": 75, "velocity": 100, "channel": 0}, {"type": "note_off", "time": 113, "note": 75, "velocity": 100, "channel": 0}, {"type": "note_on", "time": 17, "note": 75, "velocity": 99, "channel": 0}, {"type": "note_off", "time": 66, "note": 75, "velocity": 99, "channel": 0}, {"type": "note_on", "time": 0, "note": 71, "velocity": 103, "channel": 0}, {"type": "note_off", "time": 91, "note": 71, "velocity": 103, "channel": 0}, {"type": "note_on", "time": 34, "note": 65, "velocity": 88, "channel": 0}, {"type": "note_off", "time": 83, "note": 65, "velocity": 88, "channel": 0}, {"type": "note_on", "time": 1, "note": 70, "velocity": 105, "channel": 0}, {"type": "note_off", "time": 126, "note": 70, "velocity": 105, "channel": 0}, {"type": "note_on", "time": 83, "note": 72, "velocity": 97, "channel": 0}, {"type": "note_off", "time": 77, "note": 72, "velocity": 97, "channel": 0}, {"type": "note_on", "time": 1, "note": 74, "velocity": 97, "channel": 0}, {"type": "note_off", "time": 80, "note": 74, "velocity": 97, "channel": 0}, {"type": "note_on", "time": 7, "note": 70, "velocity": 103, "channel": 0}, {"type": "note_off", "time": 117, "note": 70, "velocity": 103, "channel": 0}, {"type": "note_on", "time": 5, "note": 73, "velocity": 94, "channel": 0}, {"type": "note_off", "time": 28, "note": 73, "velocity": 94, "channel": 0}, {"type": "note_on", "time": 9, "note": 70, "velocity": 103, "channel": 0}, {"type": "note_off", "time": 23, "note": 70, "velocity": 103, "channel": 0}, {"type": "note_on", "time": 0, "note": 68, "velocity": 102, "channel": 0}, {"type": "note_off", "time": 100, "note": 68, "velocity": 102, "channel": 0}, {"type": "note_on", "time": 13, "note": 65, "velocity": 101, "channel": 0}, {"type": "note_off", "time": 65, "note": 65, "velocity": 101, "channel": 0}, {"type": "note_on", "time": 13, "note": 63, "velocity": 101, "channel": 0}, {"type": "note_off", "time": 113, "note": 63, "velocity": 101, "channel": 0}, {"type": "note_on", "time": 5, "note": 60, "velocity": 90, "channel": 0}, {"type": "note_off", "time": 56, "note": 60, "velocity": 90, "channel": 0}, {"type": "note_on", "time": 23, "note": 64, "velocity": 97, "channel": 0}, {"type": "note_off", "time": 97, "note": 64, "velocity": 97, "channel": 0}, {"type": "note_on", "time": 11, "note": 60, "velocity": 89, "channel": 0}, {"type": "note_off", "time": 60, "note": 60, "velocity": 89, "channel": 0}, {"type": "note_on", "time": 38, "note": 65, "velocity": 94, "channel": 0}, {"type": "note_off", "time": 104, "note": 65, "velocity": 94, "channel": 0}, {"type": "note_on", "time": 75, "note": 69, "velocity": 105, "channel": 0}, {"type": "note_off", "time": 130, "note": 69, "velocity": 105, "channel": 0}, {"type": "note_on", "time": 8, "note": 65, "velocity": 88, "channel": 0}, {"type": "note_off", "time": 40, "note": 65, "velocity": 88, "channel": 0}, {"type": "note_on", "time": 22, "note": 66, "velocity": 109, "channel": 0}, {"type": "note_off", "time": 117, "note": 66, "velocity": 109, "channel": 0}, {"type": "note_on", "time": 6, "note": 68, "velocity": 109, "channel": 0}, {"type": "note_off", "time": 61, "note": 68, "velocity": 109, "channel": 0}, {"type": "note_on", "time": 19, "note": 70, "velocity": 101, "channel": 0}, {"type": "note_off", "time": 110, "note": 70, "velocity": 101, "channel": 0}, {"type": "note_on", "time": 0, "note": 66, "velocity": 112, "channel": 0}, {"type": "note_off", "time": 74, "note": 66, "velocity": 112, "channel": 0}, {"type": "note_on", "time": 0, "note": 66, "velocity": 102, "channel": 0}, {"type": "note_off", "time": 16, "note": 66, "velocity": 102, "channel": 0}, {"type": "note_on", "time": 4, "note": 63, "velocity": 101, "channel": 0}, {"type": "note_off", "time": 95, "note": 63, "velocity": 101, "channel": 0}, {"type": "note_on", "time": 16, "note": 62, "velocity": 95, "channel": 0}, {"type": "note_off", "time": 94, "note": 62, "velocity": 95, "channel": 0}, {"type": "note_on", "time": 0, "note": 61, "velocity": 99, "channel": 0}, {"type": "note_off", "time": 68, "note": 61, "velocity": 99, "channel": 0}, {"type": "note_on", "time": 0, "note": 57, "velocity": 95, "channel": 0}, {"type": "note_off", "time": 84, "note": 57, "velocity": 95, "channel": 0}, {"type": "note_on", "time": 19, "note": 57, "velocity": 98, "channel": 0}, {"type": "note_off", "time": 80, "note": 57, "velocity": 98, "channel": 0}, {"type": "note_on", "time": 19, "note": 61, "velocity": 97, "channel": 0}, {"type": "note_off", "time": 84, "note": 61, "velocity": 97, "channel": 0}, {"type": "note_on", "time": 16, "note": 58, "velocity": 86, "channel": 0}, {"type": "note_off", "time": 97, "note": 58, "velocity": 86, "channel": 0}, {"type": "note_on", "time": 9, "note": 59, "velocity": 95, "channel": 0}, {"type": "note_off", "time": 53, "note": 59, "velocity": 95, "channel": 0}, {"type": "note_on", "time": 4, "note": 60, "velocity": 100, "channel": 0}, {"type": "note_off", "time": 104, "note": 60, "velocity": 100, "channel": 0}, {"type": "note_on", "time": 288, "note": 65, "velocity": 98, "channel": 0}, {"type": "note_off", "time": 110, "note": 65, "velocity": 98, "channel": 0}, {"type": "note_on", "time": 85, "note": 67, "velocity": 108, "channel": 0}, {"type": "note_off", "time": 97, "note": 67, "velocity": 108, "channel": 0}, {"type": "note_on", "time": 100, "note": 70, "velocity": 106, "channel": 0}, {"type": "note_off", "time": 113, "note": 70, "velocity": 106, "channel": 0}, {"type": "note_on", "time": 108, "note": 68, "velocity": 100, "channel": 0}, {"type": "note_on", "time": 38, "note": 70, "velocity": 105, "channel": 0}, {"type": "note_off", "time": 0, "note": 68, "velocity": 100, "channel": 0}, {"type": "note_off", "time": 39, "note": 70, "velocity": 105, "channel": 0}, {"type": "note_on", "time": 0, "note": 68, "velocity": 100, "channel": 0}, {"type": "note_off", "time": 32, "note": 68, "velocity": 100, "channel": 0}, {"type": "note_on", "time": 0, "note": 65, "velocity": 95, "channel": 0}, {"type": "note_off", "time": 30, "note": 65, "velocity": 95, "channel": 0}, {"type": "note_on", "time": 14, "note": 63, "velocity": 97, "channel": 0}, {"type": "note_off", "time": 136, "note": 63, "velocity": 97, "channel": 0}, {"type": "note_on", "time": 0, "note": 58, "velocity": 96, "channel": 0}, {"type": "note_off", "time": 48, "note": 58, "velocity": 96, "channel": 0}, {"type": "note_on", "time": 9, "note": 62, "velocity": 93, "channel": 0}, {"type": "note_off", "time": 110, "note": 62, "velocity": 93, "channel": 0}, {"type": "note_on", "time": 15, "note": 65, "velocity": 88, "channel": 0}, {"type": "note_off", "time": 47, "note": 65, "velocity": 88, "channel": 0}, {"type": "note_on", "time": 17, "note": 70, "velocity": 106, "channel": 0}, {"type": "note_off", "time": 162, "note": 70, "velocity": 106, "channel": 0}, {"type": "note_on", "time": 0, "note": 68, "velocity": 99, "channel": 0}, {"type": "note_off", "time": 18, "note": 68, "velocity": 99, "channel": 0}, {"type": "note_on", "time": 0, "note": 70, "velocity": 96, "channel": 0}, {"type": "note_off", "time": 26, "note": 70, "velocity": 96, "channel": 0}, {"type": "note_on", "time": 208, "note": 69, "velocity": 115, "channel": 0}, {"type": "note_off", "time": 91, "note": 69, "velocity": 115, "channel": 0}, {"type": "note_on", "time": 0, "note": 70, "velocity": 105, "channel": 0}, {"type": "note_off", "time": 84, "note": 70, "velocity": 105, "channel": 0}, {"type": "note_on", "time": 0, "note": 70, "velocity": 105, "channel": 0}, {"type": "note_on", "time": 16, "note": 71, "velocity": 105, "channel": 0}, {"type": "note_off", "time": 0, "note": 70, "velocity": 105, "channel": 0}, {"type": "note_off", "time": 100, "note": 71, "velocity": 105, "channel": 0}, {"type": "note_on", "time": 0, "note": 67, "velocity": 105, "channel": 0}, {"type": "note_off", "time": 55, "note": 67, "velocity": 105, "channel": 0}, {"type": "note_on", "time": 7, "note": 64, "velocity": 93, "channel": 0}, {"type": "note_off", "time": 94, "note": 64, "velocity": 93, "channel": 0}, {"type": "note_on", "time": 50, "note": 59, "velocity": 98, "channel": 0}, {"type": "note_off", "time": 44, "note": 59, "velocity": 98, "channel": 0}, {"type": "note_on", "time": 27, "note": 62, "velocity": 101, "channel": 0}, {"type": "note_off", "time": 119, "note": 62, "velocity": 101, "channel": 0}, {"type": "note_on", "time": 0, "note": 59, "velocity": 100, "channel": 0}, {"type": "note_off", "time": 45, "note": 59, "velocity": 100, "channel": 0}, {"type": "note_on", "time": 33, "note": 61, "velocity": 101, "channel": 0}, {"type": "note_off", "time": 183, "note": 61, "velocity": 101, "channel": 0}, {"type": "note_on", "time": 0, "note": 70, "velocity": 107, "channel": 0}, {"type": "note_off", "time": 106, "note": 70, "velocity": 107, "channel": 0}, {"type": "note_on", "time": 0, "note": 69, "velocity": 106, "channel": 0}, {"type": "note_off", "time": 78, "note": 69, "velocity": 106, "channel": 0}, {"type": "note_on", "time": 1, "note": 68, "velocity": 103, "channel": 0}, {"type": "note_off", "time": 91, "note": 68, "velocity": 103, "channel": 0}, {"type": "note_on", "time": 21, "note": 66, "velocity": 106, "channel": 0}, {"type": "note_off", "time": 71, "note": 66, "velocity": 106, "channel": 0}, {"type": "note_on", "time": 11, "note": 61, "velocity": 103, "channel": 0}, {"type": "note_off", "time": 70, "note": 61, "velocity": 103, "channel": 0}, {"type": "note_on", "time": 19, "note": 58, "velocity": 95, "channel": 0}, {"type": "note_off", "time": 44, "note": 58, "velocity": 95, "channel": 0}, {"type": "note_on", "time": 52, "note": 65, "velocity": 100, "channel": 0}, {"type": "note_off", "time": 37, "note": 65, "velocity": 100, "channel": 0}, {"type": "note_on", "time": 8, "note": 67, "velocity": 104, "channel": 0}, {"type": "note_off", "time": 37, "note": 67, "velocity": 104, "channel": 0}, {"type": "note_on", "time": 10, "note": 68, "velocity": 104, "channel": 0}, {"type": "note_off", "time": 40, "note": 68, "velocity": 104, "channel": 0}, {"type": "note_on", "time": 7, "note": 65, "velocity": 93, "channel": 0}, {"type": "note_off", "time": 36, "note": 65, "velocity": 93, "channel": 0}, {"type": "note_on", "time": 33, "note": 66, "velocity": 107, "channel": 0}, {"type": "note_off", "time": 117, "note": 66, "velocity": 107, "channel": 0}, {"type": "note_on", "time": 6, "note": 63, "velocity": 97, "channel": 0}, {"type": "note_off", "time": 53, "note": 63, "velocity": 97, "channel": 0}, {"type": "note_on", "time": 335, "note": 61, "velocity": 101, "channel": 0}, {"type": "note_off", "time": 27, "note": 61, "velocity": 101, "channel": 0}, {"type": "note_on", "time": 0, "note": 63, "velocity": 106, "channel": 0}, {"type": "note_on", "time": 19, "note": 64, "velocity": 100, "channel": 0}, {"type": "note_off", "time": 0, "note": 63, "velocity": 106, "channel": 0}, {"type": "note_off", "time": 110, "note": 64, "velocity": 100, "channel": 0}, {"type": "note_on", "time": 11, "note": 62, "velocity": 99, "channel": 0}, {"type": "note_off", "time": 70, "note": 62, "velocity": 99, "channel": 0}, {"type": "note_on", "time": 26, "note": 61, "velocity": 97, "channel": 0}, {"type": "note_off", "time": 43, "note": 61, "velocity": 97, "channel": 0}, {"type": "note_on", "time": 2, "note": 62, "velocity": 93, "channel": 0}, {"type": "note_off", "time": 46, "note": 62, "velocity": 93, "channel": 0}, {"type": "note_on", "time": 0, "note": 64, "velocity": 98, "channel": 0}, {"type": "note_off", "time": 81, "note": 64, "velocity": 98, "channel": 0}, {"type": "note_on", "time": 0, "note": 62, "velocity": 95, "channel": 0}, {"type": "note_off", "time": 132, "note": 62, "velocity": 95, "channel": 0}, {"type": "note_on", "time": 0, "note": 57, "velocity": 101, "channel": 0}, {"type": "note_off", "time": 49, "note": 57, "velocity": 101, "channel": 0}, {"type": "note_on", "time": 0, "note": 60, "velocity": 102, "channel": 0}, {"type": "note_off", "time": 84, "note": 60, "velocity": 102, "channel": 0}, {"type": "note_on", "time": 23, "note": 62, "velocity": 103, "channel": 0}, {"type": "note_off", "time": 17, "note": 62, "velocity": 103, "channel": 0}, {"type": "note_on", "time": 0, "note": 60, "velocity": 100, "channel": 0}, {"type": "note_off", "time": 28, "note": 60, "velocity": 100, "channel": 0}, {"type": "note_on", "time": 20, "note": 57, "velocity": 107, "channel": 0}, {"type": "note_off", "time": 125, "note": 57, "velocity": 107, "channel": 0}, {"type": "note_on", "time": 9, "note": 58, "velocity": 97, "channel": 0}, {"type": "note_off", "time": 96, "note": 58, "velocity": 97, "channel": 0}, {"type": "note_on", "time": 3, "note": 59, "velocity": 96, "channel": 0}, {"type": "note_off", "time": 100, "note": 59, "velocity": 96, "channel": 0}, {"type": "note_on", "time": 22, "note": 67, "velocity": 102, "channel": 0}, {"type": "note_off", "time": 65, "note": 67, "velocity": 102, "channel": 0}, {"type": "note_on", "time": 3, "note": 69, "velocity": 107, "channel": 0}, {"type": "note_off", "time": 39, "note": 69, "velocity": 107, "channel": 0}, {"type": "note_on", "time": 3, "note": 70, "velocity": 101, "channel": 0}, {"type": "note_off", "time": 42, "note": 70, "velocity": 101, "channel": 0}, {"type": "note_on", "time": 0, "note": 72, "velocity": 102, "channel": 0}, {"type": "note_off", "time": 42, "note": 72, "velocity": 102, "channel": 0}, {"type": "note_on", "time": 1, "note": 73, "velocity": 109, "channel": 0}, {"type": "note_off", "time": 60, "note": 73, "velocity": 109, "channel": 0}, {"type": "note_on", "time": 0, "note": 74, "velocity": 102, "channel": 0}, {"type": "note_off", "time": 109, "note": 74, "velocity": 102, "channel": 0}, {"type": "note_on", "time": 0, "note": 71, "velocity": 103, "channel": 0}, {"type": "note_off", "time": 61, "note": 71, "velocity": 103, "channel": 0}, {"type": "note_on", "time": 0, "note": 72, "velocity": 101, "channel": 0}, {"type": "note_off", "time": 104, "note": 72, "velocity": 101, "channel": 0}, {"type": "note_on", "time": 36, "note": 74, "velocity": 100, "channel": 0}, {"type": "note_off", "time": 63, "note": 74, "velocity": 100, "channel": 0}, {"type": "note_on", "time": 4, "note": 71, "velocity": 102, "channel": 0}, {"type": "note_off", "time": 194, "note": 71, "velocity": 102, "channel": 0}, {"type": "note_on", "time": 0, "note": 67, "velocity": 101, "channel": 0}, {"type": "note_off", "time": 185, "note": 67, "velocity": 101, "channel": 0}, {"type": "note_on", "time": 2, "note": 66, "velocity": 95, "channel": 0}, {"type": "note_off", "time": 38, "note": 66, "velocity": 95, "channel": 0}, {"type": "note_on", "time": 3, "note": 67, "velocity": 81, "channel": 0}, {"type": "note_off", "time": 47, "note": 67, "velocity": 81, "channel": 0}, {"type": "note_on", "time": 234, "note": 70, "velocity": 113, "channel": 0}, {"type": "note_off", "time": 35, "note": 70, "velocity": 113, "channel": 0}, {"type": "note_on", "time": 2, "note": 69, "velocity": 109, "channel": 0}, {"type": "note_off", "time": 33, "note": 69, "velocity": 109, "channel": 0}, {"type": "note_on", "time": 0, "note": 67, "velocity": 101, "channel": 0}, {"type": "note_off", "time": 32, "note": 67, "velocity": 101, "channel": 0}, {"type": "note_on", "time": 0, "note": 66, "velocity": 110, "channel": 0}, {"type": "note_off", "time": 68, "note": 66, "velocity": 110, "channel": 0}, {"type": "note_on", "time": 28, "note": 61, "velocity": 105, "channel": 0}, {"type": "note_off", "time": 30, "note": 61, "velocity": 105, "channel": 0}, {"type": "note_on", "time": 0, "note": 62, "velocity": 108, "channel": 0}, {"type": "note_off", "time": 26, "note": 62, "velocity": 108, "channel": 0}, {"type": "note_on", "time": 2, "note": 58, "velocity": 103, "channel": 0}, {"type": "note_off", "time": 83, "note": 58, "velocity": 103, "channel": 0}, {"type": "note_on", "time": 30, "note": 54, "velocity": 88, "channel": 0}, {"type": "note_off", "time": 60, "note": 54, "velocity": 88, "channel": 0}, {"type": "note_on", "time": 17, "note": 55, "velocity": 101, "channel": 0}, {"type": "note_off", "time": 91, "note": 55, "velocity": 101, "channel": 0}, {"type": "note_on", "time": 18, "note": 58, "velocity": 105, "channel": 0}, {"type": "note_off", "time": 71, "note": 58, "velocity": 105, "channel": 0}, {"type": "note_on", "time": 8, "note": 62, "velocity": 98, "channel": 0}, {"type": "note_off", "time": 110, "note": 62, "velocity": 98, "channel": 0}, {"type": "note_on", "time": 0, "note": 65, "velocity": 103, "channel": 0}, {"type": "note_off", "time": 65, "note": 65, "velocity": 103, "channel": 0}, {"type": "note_on", "time": 19, "note": 64, "velocity": 92, "channel": 0}, {"type": "note_off", "time": 104, "note": 64, "velocity": 92, "channel": 0}, {"type": "note_on", "time": 24, "note": 60, "velocity": 96, "channel": 0}, {"type": "note_off", "time": 43, "note": 60, "velocity": 96, "channel": 0}, {"type": "note_on", "time": 16, "note": 65, "velocity": 102, "channel": 0}, {"type": "note_off", "time": 100, "note": 65, "velocity": 102, "channel": 0}, {"type": "note_on", "time": 91, "note": 72, "velocity": 107, "channel": 0}, {"type": "note_off", "time": 442, "note": 72, "velocity": 107, "channel": 0}, {"type": "note_on", "time": 1, "note": 70, "velocity": 98, "channel": 0}, {"type": "note_off", "time": 41, "note": 70, "velocity": 98, "channel": 0}, {"type": "note_on", "time": 5, "note": 69, "velocity": 105, "channel": 0}, {"type": "note_off", "time": 40, "note": 69, "velocity": 105, "channel": 0}, {"type": "note_on", "time": 21, "note": 65, "velocity": 94, "channel": 0}, {"type": "note_off", "time": 354, "note": 65, "velocity": 94, "channel": 0}, {"type": "note_on", "time": 294, "note": 72, "velocity": 103, "channel": 0}, {"type": "note_off", "time": 380, "note": 72, "velocity": 103, "channel": 0}, {"type": "note_on", "time": 0, "note": 71, "velocity": 97, "channel": 0}, {"type": "note_off", "time": 74, "note": 71, "velocity": 97, "channel": 0}, {"type": "note_on", "time": 0, "note": 68, "velocity": 105, "channel": 0}, {"type": "note_off", "time": 48, "note": 68, "velocity": 105, "channel": 0}, {"type": "note_on", "time": 6, "note": 65, "velocity": 98, "channel": 0}, {"type": "note_off", "time": 311, "note": 65, "velocity": 98, "channel": 0}, {"type": "note_on", "time": 0, "note": 63, "velocity": 93, "channel": 0}, {"type": "note_off", "time": 16, "note": 63, "velocity": 93, "channel": 0}, {"type": "note_on", "time": 289, "note": 72, "velocity": 102, "channel": 0}, {"type": "note_off", "time": 295, "note": 72, "velocity": 102, "channel": 0}, {"type": "note_on", "time": 6, "note": 75, "velocity": 98, "channel": 0}, {"type": "note_off", "time": 247, "note": 75, "velocity": 98, "channel": 0}, {"type": "note_on", "time": 13, "note": 77, "velocity": 101, "channel": 0}, {"type": "note_off", "time": 185, "note": 77, "velocity": 101, "channel": 0}, {"type": "note_on", "time": 0, "note": 75, "velocity": 99, "channel": 0}, {"type": "note_off", "time": 185, "note": 75, "velocity": 99, "channel": 0}, {"type": "note_on", "time": 9, "note": 70, "velocity": 99, "channel": 0}, {"type": "note_off", "time": 41, "note": 70, "velocity": 99, "channel": 0}, {"type": "note_on", "time": 0, "note": 72, "velocity": 102, "channel": 0}, {"type": "note_off", "time": 156, "note": 72, "velocity": 102, "channel": 0}, {"type": "note_on", "time": 23, "note": 71, "velocity": 98, "channel": 0}, {"type": "note_off", "time": 45, "note": 71, "velocity": 98, "channel": 0}, {"type": "note_on", "time": 7, "note": 69, "velocity": 100, "channel": 0}, {"type": "note_off", "time": 50, "note": 69, "velocity": 100, "channel": 0}, {"type": "note_on", "time": 0, "note": 68, "velocity": 104, "channel": 0}, {"type": "note_off", "time": 48, "note": 68, "velocity": 104, "channel": 0}, {"type": "note_on", "time": 3, "note": 65, "velocity": 104, "channel": 0}, {"type": "note_off", "time": 217, "note": 65, "velocity": 104, "channel": 0}, {"type": "note_on", "time": 194, "note": 67, "velocity": 107, "channel": 0}, {"type": "note_off", "time": 28, "note": 67, "velocity": 107, "channel": 0}, {"type": "note_on", "time": 0, "note": 69, "velocity": 113, "channel": 0}, {"type": "note_off", "time": 152, "note": 69, "velocity": 113, "channel": 0}, {"type": "note_on", "time": 2, "note": 70, "velocity": 94, "channel": 0}, {"type": "note_off", "time": 182, "note": 70, "velocity": 94, "channel": 0}, {"type": "note_on", "time": 27, "note": 71, "velocity": 100, "channel": 0}, {"type": "note_off", "time": 67, "note": 71, "velocity": 100, "channel": 0}, {"type": "note_on", "time": 7, "note": 72, "velocity": 101, "channel": 0}, {"type": "note_off", "time": 251, "note": 72, "velocity": 101, "channel": 0}, {"type": "note_on", "time": 5, "note": 75, "velocity": 99, "channel": 0}, {"type": "note_off", "time": 201, "note": 75, "velocity": 99, "channel": 0}, {"type": "note_on", "time": 12, "note": 77, "velocity": 98, "channel": 0}, {"type": "note_off", "time": 100, "note": 77, "velocity": 98, "channel": 0}, {"type": "note_on", "time": 0, "note": 77, "velocity": 100, "channel": 0}, {"type": "note_off", "time": 32, "note": 77, "velocity": 100, "channel": 0}, {"type": "note_on", "time": 0, "note": 75, "velocity": 93, "channel": 0}, {"type": "note_off", "time": 243, "note": 75, "velocity": 93, "channel": 0}, {"type": "note_on", "time": 0, "note": 72, "velocity": 98, "channel": 0}, {"type": "note_off", "time": 208, "note": 72, "velocity": 98, "channel": 0}, {"type": "note_on", "time": 3, "note": 71, "velocity": 91, "channel": 0}, {"type": "note_off", "time": 51, "note": 71, "velocity": 91, "channel": 0}, {"type": "note_on", "time": 3, "note": 70, "velocity": 97, "channel": 0}, {"type": "note_off", "time": 52, "note": 70, "velocity": 97, "channel": 0}, {"type": "note_on", "time": 6, "note": 68, "velocity": 102, "channel": 0}, {"type": "note_off", "time": 48, "note": 68, "velocity": 102, "channel": 0}, {"type": "note_on", "time": 0, "note": 65, "velocity": 93, "channel": 0}, {"type": "note_off", "time": 211, "note": 65, "velocity": 93, "channel": 0}, {"type": "note_on", "time": 338, "note": 68, "velocity": 103, "channel": 0}, {"type": "note_off", "time": 47, "note": 68, "velocity": 103, "channel": 0}, {"type": "note_on", "time": 0, "note": 70, "velocity": 105, "channel": 0}, {"type": "note_off", "time": 111, "note": 70, "velocity": 105, "channel": 0}, {"type": "note_on", "time": 34, "note": 74, "velocity": 89, "channel": 0}, {"type": "note_off", "time": 133, "note": 74, "velocity": 89, "channel": 0}, {"type": "note_on", "time": 1, "note": 77, "velocity": 97, "channel": 0}, {"type": "note_off", "time": 84, "note": 77, "velocity": 97, "channel": 0}, {"type": "note_on", "time": 21, "note": 67, "velocity": 90, "channel": 0}, {"type": "note_off", "time": 130, "note": 67, "velocity": 90, "channel": 0}, {"type": "note_on", "time": 40, "note": 80, "velocity": 93, "channel": 0}, {"type": "note_off", "time": 133, "note": 80, "velocity": 93, "channel": 0}, {"type": "note_on", "time": 25, "note": 79, "velocity": 89, "channel": 0}, {"type": "note_off", "time": 19, "note": 79, "velocity": 89, "channel": 0}, {"type": "note_on", "time": 9, "note": 78, "velocity": 91, "channel": 0}, {"type": "note_off", "time": 18, "note": 78, "velocity": 91, "channel": 0}, {"type": "note_on", "time": 9, "note": 77, "velocity": 92, "channel": 0}, {"type": "note_off", "time": 51, "note": 77, "velocity": 92, "channel": 0}, {"type": "note_on", "time": 0, "note": 74, "velocity": 100, "channel": 0}, {"type": "note_off", "time": 67, "note": 74, "velocity": 100, "channel": 0}, {"type": "note_on", "time": 1, "note": 75, "velocity": 98, "channel": 0}, {"type": "note_off", "time": 85, "note": 75, "velocity": 98, "channel": 0}, {"type": "note_on", "time": 0, "note": 74, "velocity": 97, "channel": 0}, {"type": "note_off", "time": 51, "note": 74, "velocity": 97, "channel": 0}, {"type": "note_on", "time": 0, "note": 72, "velocity": 96, "channel": 0}, {"type": "note_off", "time": 26, "note": 72, "velocity": 96, "channel": 0}, {"type": "note_on", "time": 0, "note": 70, "velocity": 100, "channel": 0}, {"type": "note_off", "time": 13, "note": 70, "velocity": 100, "channel": 0}, {"type": "note_on", "time": 3, "note": 68, "velocity": 104, "channel": 0}, {"type": "note_off", "time": 156, "note": 68, "velocity": 104, "channel": 0}, {"type": "note_on", "time": 0, "note": 67, "velocity": 102, "channel": 0}, {"type": "note_on", "time": 40, "note": 65, "velocity": 101, "channel": 0}, {"type": "note_off", "time": 0, "note": 67, "velocity": 102, "channel": 0}, {"type": "note_off", "time": 50, "note": 65, "velocity": 101, "channel": 0}, {"type": "note_on", "time": 17, "note": 63, "velocity": 96, "channel": 0}, {"type": "note_off", "time": 85, "note": 63, "velocity": 96, "channel": 0}, {"type": "note_on", "time": 0, "note": 64, "velocity": 99, "channel": 0}, {"type": "note_off", "time": 43, "note": 64, "velocity": 99, "channel": 0}, {"type": "note_on", "time": 1, "note": 62, "velocity": 98, "channel": 0}, {"type": "note_off", "time": 19, "note": 62, "velocity": 98, "channel": 0}, {"type": "note_on", "time": 0, "note": 61, "velocity": 102, "channel": 0}, {"type": "note_off", "time": 21, "note": 61, "velocity": 102, "channel": 0}, {"type": "note_on", "time": 0, "note": 60, "velocity": 98, "channel": 0}, {"type": "note_off", "time": 17, "note": 60, "velocity": 98, "channel": 0}, {"type": "note_on", "time": 0, "note": 58, "velocity": 102, "channel": 0}, {"type": "note_off", "time": 18, "note": 58, "velocity": 102, "channel": 0}, {"type": "note_on", "time": 0, "note": 56, "velocity": 99, "channel": 0}, {"type": "note_off", "time": 110, "note": 56, "velocity": 99, "channel": 0}, {"type": "note_on", "time": 56, "note": 56, "velocity": 95, "channel": 0}, {"type": "note_off", "time": 143, "note": 56, "velocity": 95, "channel": 0}, {"type": "note_on", "time": 411, "note": 60, "velocity": 99, "channel": 0}, {"type": "note_off", "time": 165, "note": 60, "velocity": 99, "channel": 0}, {"type": "note_on", "time": 0, "note": 62, "velocity": 98, "channel": 0}, {"type": "note_off", "time": 133, "note": 62, "velocity": 98, "channel": 0}, {"type": "note_on", "time": 14, "note": 60, "velocity": 89, "channel": 0}, {"type": "note_off", "time": 46, "note": 60, "velocity": 89, "channel": 0}, {"type": "note_on", "time": 6, "note": 65, "velocity": 92, "channel": 0}, {"type": "note_off", "time": 123, "note": 65, "velocity": 92, "channel": 0}, {"type": "note_on", "time": 48, "note": 72, "velocity": 93, "channel": 0}, {"type": "note_off", "time": 175, "note": 72, "velocity": 93, "channel": 0}, {"type": "note_on", "time": 24, "note": 75, "velocity": 97, "channel": 0}, {"type": "note_off", "time": 84, "note": 75, "velocity": 97, "channel": 0}, {"type": "note_on", "time": 0, "note": 77, "velocity": 98, "channel": 0}, {"type": "note_off", "time": 227, "note": 77, "velocity": 98, "channel": 0}, {"type": "note_on", "time": 74, "note": 75, "velocity": 98, "channel": 0}, {"type": "note_off", "time": 175, "note": 75, "velocity": 98, "channel": 0}, {"type": "note_on", "time": 0, "note": 72, "velocity": 97, "channel": 0}, {"type": "note_off", "time": 198, "note": 72, "velocity": 97, "channel": 0}, {"type": "note_on", "time": 0, "note": 68, "velocity": 103, "channel": 0}, {"type": "note_off", "time": 39, "note": 68, "velocity": 103, "channel": 0}, {"type": "note_on", "time": 0, "note": 70, "velocity": 99, "channel": 0}, {"type": "note_off", "time": 130, "note": 70, "velocity": 99, "channel": 0}, {"type": "note_on", "time": 22, "note": 68, "velocity": 109, "channel": 0}, {"type": "note_off", "time": 78, "note": 68, "velocity": 109, "channel": 0}, {"type": "note_on", "time": 18, "note": 72, "velocity": 96, "channel": 0}, {"type": "note_off", "time": 21, "note": 72, "velocity": 96, "channel": 0}, {"type": "note_on", "time": 8, "note": 68, "velocity": 101, "channel": 0}, {"type": "note_off", "time": 21, "note": 68, "velocity": 101, "channel": 0}, {"type": "note_on", "time": 13, "note": 67, "velocity": 99, "channel": 0}, {"type": "note_off", "time": 33, "note": 67, "velocity": 99, "channel": 0}, {"type": "note_on", "time": 0, "note": 65, "velocity": 93, "channel": 0}, {"type": "note_off", "time": 95, "note": 65, "velocity": 93, "channel": 0}, {"type": "note_on", "time": 29, "note": 63, "velocity": 99, "channel": 0}, {"type": "note_off", "time": 56, "note": 63, "velocity": 99, "channel": 0}, {"type": "note_on", "time": 11, "note": 60, "velocity": 98, "channel": 0}, {"type": "note_off", "time": 112, "note": 60, "velocity": 98, "channel": 0}, {"type": "note_on", "time": 0, "note": 56, "velocity": 94, "channel": 0}, {"type": "note_off", "time": 52, "note": 56, "velocity": 94, "channel": 0}, {"type": "note_on", "time": 21, "note": 58, "velocity": 100, "channel": 0}, {"type": "note_off", "time": 100, "note": 58, "velocity": 100, "channel": 0}, {"type": "note_on", "time": 13, "note": 60, "velocity": 96, "channel": 0}, {"type": "note_off", "time": 47, "note": 60, "velocity": 96, "channel": 0}, {"type": "note_on", "time": 0, "note": 57, "velocity": 95, "channel": 0}, {"type": "note_off", "time": 127, "note": 57, "velocity": 95, "channel": 0}, {"type": "note_on", "time": 26, "note": 60, "velocity": 94, "channel": 0}, {"type": "note_off", "time": 51, "note": 60, "velocity": 94, "channel": 0}, {"type": "note_on", "time": 8, "note": 65, "velocity": 97, "channel": 0}, {"type": "note_off", "time": 136, "note": 65, "velocity": 97, "channel": 0}, {"type": "note_on", "time": 60, "note": 70, "velocity": 96, "channel": 0}, {"type": "note_off", "time": 171, "note": 70, "velocity": 96, "channel": 0}, {"type": "note_on", "time": 0, "note": 69, "velocity": 85, "channel": 0}, {"type": "note_on", "time": 26, "note": 70, "velocity": 76, "channel": 0}, {"type": "note_off", "time": 0, "note": 69, "velocity": 85, "channel": 0}, {"type": "note_off", "time": 31, "note": 70, "velocity": 76, "channel": 0}, {"type": "note_on", "time": 234, "note": 69, "velocity": 114, "channel": 0}, {"type": "note_off", "time": 42, "note": 69, "velocity": 114, "channel": 0}, {"type": "note_on", "time": 4, "note": 70, "velocity": 95, "channel": 0}, {"type": "note_off", "time": 29, "note": 70, "velocity": 95, "channel": 0}, {"type": "note_on", "time": 8, "note": 72, "velocity": 100, "channel": 0}, {"type": "note_off", "time": 32, "note": 72, "velocity": 100, "channel": 0}, {"type": "note_on", "time": 4, "note": 70, "velocity": 98, "channel": 0}, {"type": "note_off", "time": 42, "note": 70, "velocity": 98, "channel": 0}, {"type": "note_on", "time": 3, "note": 69, "velocity": 106, "channel": 0}, {"type": "note_off", "time": 39, "note": 69, "velocity": 106, "channel": 0}, {"type": "note_on", "time": 8, "note": 67, "velocity": 103, "channel": 0}, {"type": "note_off", "time": 16, "note": 67, "velocity": 103, "channel": 0}, {"type": "note_on", "time": 8, "note": 65, "velocity": 98, "channel": 0}, {"type": "note_off", "time": 58, "note": 65, "velocity": 98, "channel": 0}, {"type": "note_on", "time": 0, "note": 63, "velocity": 94, "channel": 0}, {"type": "note_off", "time": 45, "note": 63, "velocity": 94, "channel": 0}, {"type": "note_on", "time": 6, "note": 58, "velocity": 88, "channel": 0}, {"type": "note_off", "time": 25, "note": 58, "velocity": 88, "channel": 0}, {"type": "note_on", "time": 3, "note": 62, "velocity": 98, "channel": 0}, {"type": "note_off", "time": 30, "note": 62, "velocity": 98, "channel": 0}, {"type": "note_on", "time": 0, "note": 58, "velocity": 101, "channel": 0}, {"type": "note_off", "time": 27, "note": 58, "velocity": 101, "channel": 0}, {"type": "note_on", "time": 11, "note": 62, "velocity": 100, "channel": 0}, {"type": "note_off", "time": 120, "note": 62, "velocity": 100, "channel": 0}, {"type": "note_on", "time": 13, "note": 60, "velocity": 97, "channel": 0}, {"type": "note_off", "time": 56, "note": 60, "velocity": 97, "channel": 0}, {"type": "note_on", "time": 21, "note": 61, "velocity": 103, "channel": 0}, {"type": "note_off", "time": 94, "note": 61, "velocity": 103, "channel": 0}, {"type": "note_on", "time": 11, "note": 64, "velocity": 90, "channel": 0}, {"type": "note_off", "time": 11, "note": 64, "velocity": 90, "channel": 0}, {"type": "note_on", "time": 2, "note": 63, "velocity": 93, "channel": 0}, {"type": "note_off", "time": 14, "note": 63, "velocity": 93, "channel": 0}, {"type": "note_on", "time": 17, "note": 68, "velocity": 95, "channel": 0}, {"type": "note_off", "time": 33, "note": 68, "velocity": 95, "channel": 0}, {"type": "note_on", "time": 0, "note": 69, "velocity": 105, "channel": 0}, {"type": "note_off", "time": 13, "note": 69, "velocity": 105, "channel": 0}, {"type": "note_on", "time": 3, "note": 72, "velocity": 98, "channel": 0}, {"type": "note_off", "time": 143, "note": 72, "velocity": 98, "channel": 0}, {"type": "note_on", "time": 0, "note": 70, "velocity": 101, "channel": 0}, {"type": "note_off", "time": 23, "note": 70, "velocity": 101, "channel": 0}, {"type": "note_on", "time": 0, "note": 72, "velocity": 95, "channel": 0}, {"type": "note_off", "time": 119, "note": 72, "velocity": 95, "channel": 0}, {"type": "note_on", "time": 15, "note": 70, "velocity": 97, "channel": 0}, {"type": "note_off", "time": 39, "note": 70, "velocity": 97, "channel": 0}, {"type": "note_on", "time": 3, "note": 72, "velocity": 93, "channel": 0}, {"type": "note_off", "time": 39, "note": 72, "velocity": 93, "channel": 0}, {"type": "note_on", "time": 6, "note": 69, "velocity": 110, "channel": 0}, {"type": "note_off", "time": 204, "note": 69, "velocity": 110, "channel": 0}, {"type": "note_on", "time": 282, "note": 68, "velocity": 106, "channel": 0}, {"type": "note_off", "time": 51, "note": 68, "velocity": 106, "channel": 0}, {"type": "note_on", "time": 0, "note": 67, "velocity": 103, "channel": 0}, {"type": "note_off", "time": 42, "note": 67, "velocity": 103, "channel": 0}, {"type": "note_on", "time": 0, "note": 66, "velocity": 107, "channel": 0}, {"type": "note_off", "time": 97, "note": 66, "velocity": 107, "channel": 0}, {"type": "note_on", "time": 6, "note": 70, "velocity": 100, "channel": 0}, {"type": "note_off", "time": 87, "note": 70, "velocity": 100, "channel": 0}, {"type": "note_on", "time": 0, "note": 70, "velocity": 99, "channel": 0}, {"type": "note_off", "time": 11, "note": 70, "velocity": 99, "channel": 0}, {"type": "note_on", "time": 0, "note": 65, "velocity": 93, "channel": 0}, {"type": "note_off", "time": 59, "note": 65, "velocity": 93, "channel": 0}, {"type": "note_on", "time": 23, "note": 64, "velocity": 98, "channel": 0}, {"type": "note_off", "time": 68, "note": 64, "velocity": 98, "channel": 0}, {"type": "note_on", "time": 0, "note": 63, "velocity": 98, "channel": 0}, {"type": "note_off", "time": 100, "note": 63, "velocity": 98, "channel": 0}, {"type": "note_on", "time": 0, "note": 63, "velocity": 93, "channel": 0}, {"type": "note_off", "time": 13, "note": 63, "velocity": 93, "channel": 0}, {"type": "note_on", "time": 24, "note": 58, "velocity": 96, "channel": 0}, {"type": "note_off", "time": 57, "note": 58, "velocity": 96, "channel": 0}, {"type": "note_on", "time": 2, "note": 61, "velocity": 102, "channel": 0}, {"type": "note_off", "time": 120, "note": 61, "velocity": 102, "channel": 0}, {"type": "note_on", "time": 6, "note": 59, "velocity": 98, "channel": 0}, {"type": "note_off", "time": 42, "note": 59, "velocity": 98, "channel": 0}, {"type": "note_on", "time": 19, "note": 60, "velocity": 90, "channel": 0}, {"type": "note_off", "time": 71, "note": 60, "velocity": 90, "channel": 0}, {"type": "note_on", "time": 42, "note": 66, "velocity": 105, "channel": 0}, {"type": "note_off", "time": 71, "note": 66, "velocity": 105, "channel": 0}, {"type": "note_on", "time": 0, "note": 67, "velocity": 101, "channel": 0}, {"type": "note_off", "time": 100, "note": 67, "velocity": 101, "channel": 0}, {"type": "note_on", "time": 0, "note": 67, "velocity": 103, "channel": 0}, {"type": "note_off", "time": 16, "note": 67, "velocity": 103, "channel": 0}, {"type": "note_on", "time": 3, "note": 65, "velocity": 97, "channel": 0}, {"type": "note_off", "time": 84, "note": 65, "velocity": 97, "channel": 0}, {"type": "note_on", "time": 0, "note": 60, "velocity": 90, "channel": 0}, {"type": "note_off", "time": 77, "note": 60, "velocity": 90, "channel": 0}, {"type": "note_on", "time": 12, "note": 57, "velocity": 93, "channel": 0}, {"type": "note_off", "time": 58, "note": 57, "velocity": 93, "channel": 0}, {"type": "note_on", "time": 24, "note": 64, "velocity": 97, "channel": 0}, {"type": "note_off", "time": 110, "note": 64, "velocity": 97, "channel": 0}, {"type": "note_on", "time": 19, "note": 63, "velocity": 98, "channel": 0}, {"type": "note_off", "time": 52, "note": 63, "velocity": 98, "channel": 0}, {"type": "note_on", "time": 0, "note": 62, "velocity": 100, "channel": 0}, {"type": "note_off", "time": 113, "note": 62, "velocity": 100, "channel": 0}, {"type": "note_on", "time": 84, "note": 68, "velocity": 101, "channel": 0}, {"type": "note_off", "time": 104, "note": 68, "velocity": 101, "channel": 0}, {"type": "note_on", "time": 0, "note": 67, "velocity": 101, "channel": 0}, {"type": "note_off", "time": 65, "note": 67, "velocity": 101, "channel": 0}, {"type": "note_on", "time": 1, "note": 68, "velocity": 103, "channel": 0}, {"type": "note_off", "time": 99, "note": 68, "velocity": 103, "channel": 0}, {"type": "note_on", "time": 6, "note": 70, "velocity": 99, "channel": 0}, {"type": "note_off", "time": 91, "note": 70, "velocity": 99, "channel": 0}, {"type": "note_on", "time": 5, "note": 70, "velocity": 102, "channel": 0}, {"type": "note_off", "time": 22, "note": 70, "velocity": 102, "channel": 0}, {"type": "note_on", "time": 0, "note": 72, "velocity": 99, "channel": 0}, {"type": "note_on", "time": 85, "note": 75, "velocity": 98, "channel": 0}, {"type": "note_off", "time": 0, "note": 72, "velocity": 99, "channel": 0}, {"type": "note_off", "time": 63, "note": 75, "velocity": 98, "channel": 0}, {"type": "note_on", "time": 23, "note": 73, "velocity": 105, "channel": 0}, {"type": "note_off", "time": 104, "note": 73, "velocity": 105, "channel": 0}, {"type": "note_on", "time": 0, "note": 75, "velocity": 98, "channel": 0}, {"type": "note_off", "time": 23, "note": 75, "velocity": 98, "channel": 0}, {"type": "note_on", "time": 9, "note": 73, "velocity": 100, "channel": 0}, {"type": "note_off", "time": 18, "note": 73, "velocity": 100, "channel": 0}, {"type": "note_on", "time": 10, "note": 72, "velocity": 97, "channel": 0}, {"type": "note_off", "time": 126, "note": 72, "velocity": 97, "channel": 0}, {"type": "note_on", "time": 9, "note": 68, "velocity": 92, "channel": 0}, {"type": "note_off", "time": 264, "note": 68, "velocity": 92, "channel": 0}, {"type": "note_on", "time": 303, "note": 66, "velocity": 109, "channel": 0}, {"type": "note_off", "time": 61, "note": 66, "velocity": 109, "channel": 0}, {"type": "note_on", "time": 0, "note": 67, "velocity": 104, "channel": 0}, {"type": "note_off", "time": 104, "note": 67, "velocity": 104, "channel": 0}, {"type": "note_on", "time": 1, "note": 62, "velocity": 96, "channel": 0}, {"type": "note_off", "time": 89, "note": 62, "velocity": 96, "channel": 0}, {"type": "note_on", "time": 16, "note": 71, "velocity": 99, "channel": 0}, {"type": "note_off", "time": 104, "note": 71, "velocity": 99, "channel": 0}, {"type": "note_on", "time": 0, "note": 67, "velocity": 106, "channel": 0}, {"type": "note_off", "time": 81, "note": 67, "velocity": 106, "channel": 0}, {"type": "note_on", "time": 9, "note": 66, "velocity": 109, "channel": 0}, {"type": "note_off", "time": 94, "note": 66, "velocity": 109, "channel": 0}, {"type": "note_on", "time": 0, "note": 69, "velocity": 107, "channel": 0}, {"type": "note_off", "time": 68, "note": 69, "velocity": 107, "channel": 0}, {"type": "note_on", "time": 16, "note": 67, "velocity": 96, "channel": 0}, {"type": "note_off", "time": 74, "note": 67, "velocity": 96, "channel": 0}, {"type": "note_on", "time": 17, "note": 65, "velocity": 93, "channel": 0}, {"type": "note_off", "time": 72, "note": 65, "velocity": 93, "channel": 0}, {"type": "note_on", "time": 21, "note": 64, "velocity": 94, "channel": 0}, {"type": "note_off", "time": 117, "note": 64, "velocity": 94, "channel": 0}, {"type": "note_on", "time": 21, "note": 60, "velocity": 100, "channel": 0}, {"type": "note_off", "time": 45, "note": 60, "velocity": 100, "channel": 0}, {"type": "note_on", "time": 10, "note": 62, "velocity": 89, "channel": 0}, {"type": "note_off", "time": 100, "note": 62, "velocity": 89, "channel": 0}, {"type": "note_on", "time": 12, "note": 60, "velocity": 87, "channel": 0}, {"type": "note_off", "time": 58, "note": 60, "velocity": 87, "channel": 0}, {"type": "note_on", "time": 12, "note": 65, "velocity": 91, "channel": 0}, {"type": "note_off", "time": 87, "note": 65, "velocity": 91, "channel": 0}, {"type": "note_on", "time": 10, "note": 65, "velocity": 88, "channel": 0}, {"type": "note_off", "time": 71, "note": 65, "velocity": 88, "channel": 0}, {"type": "note_on", "time": 211, "note": 68, "velocity": 103, "channel": 0}, {"type": "note_off", "time": 117, "note": 68, "velocity": 103, "channel": 0}, {"type": "note_on", "time": 67, "note": 65, "velocity": 101, "channel": 0}, {"type": "note_off", "time": 123, "note": 65, "velocity": 101, "channel": 0}, {"type": "note_on", "time": 13, "note": 65, "velocity": 102, "channel": 0}, {"type": "note_off", "time": 45, "note": 65, "velocity": 102, "channel": 0}, {"type": "note_on", "time": 214, "note": 63, "velocity": 98, "channel": 0}, {"type": "note_off", "time": 123, "note": 63, "velocity": 98, "channel": 0}, {"type": "note_on", "time": 49, "note": 60, "velocity": 92, "channel": 0}, {"type": "note_off", "time": 120, "note": 60, "velocity": 92, "channel": 0}, {"type": "note_on", "time": 19, "note": 60, "velocity": 96, "channel": 0}, {"type": "note_off", "time": 42, "note": 60, "velocity": 96, "channel": 0}, {"type": "note_on", "time": 191, "note": 63, "velocity": 94, "channel": 0}, {"type": "note_off", "time": 117, "note": 63, "velocity": 94, "channel": 0}, {"type": "note_on", "time": 75, "note": 60, "velocity": 91, "channel": 0}, {"type": "note_off", "time": 110, "note": 60, "velocity": 91, "channel": 0}, {"type": "note_on", "time": 10, "note": 60, "velocity": 92, "channel": 0}, {"type": "note_off", "time": 61, "note": 60, "velocity": 92, "channel": 0}, {"type": "note_on", "time": 58, "note": 58, "velocity": 103, "channel": 0}, {"type": "note_off", "time": 68, "note": 58, "velocity": 103, "channel": 0}, {"type": "note_on", "time": 97, "note": 56, "velocity": 97, "channel": 0}, {"type": "note_off", "time": 71, "note": 56, "velocity": 97, "channel": 0}, {"type": "note_on", "time": 0, "note": 57, "velocity": 103, "channel": 0}, {"type": "note_off", "time": 61, "note": 57, "velocity": 103, "channel": 0}, {"type": "note_on", "time": 40, "note": 53, "velocity": 94, "channel": 0}, {"type": "note_off", "time": 187, "note": 53, "velocity": 94, "channel": 0}, {"type": "end_of_track", "time": 0}]]}