{"ticks_per_beat": 192, "tracks": [[{"type": "track_name", "name": "Melody", "time": 0}, {"type": "set_tempo", "tempo": 465116, "time": 0}, {"type": "key_signature", "key": "Bb", "time": 0}, {"type": "time_signature", "numerator": 4, "denominator": 4, "clocks_per_click": 24, "notated_32nd_notes_per_beat": 8, "time": 0}, {"type": "note_on", "time": 3045, "note": 67, "velocity": 113, "channel": 0}, {"type": "note_off", "time": 108, "note": 67, "velocity": 113, "channel": 0}, {"type": "note_on", "time": 74, "note": 72, "velocity": 115, "channel": 0}, {"type": "note_off", "time": 189, "note": 72, "velocity": 115, "channel": 0}, {"type": "note_on", "time": 6, "note": 69, "velocity": 113, "channel": 0}, {"type": "note_off", "time": 126, "note": 69, "velocity": 113, "channel": 0}, {"type": "note_on", "time": 0, "note": 65, "velocity": 110, "channel": 0}, {"type": "note_off", "time": 64, "note": 65, "velocity": 110, "channel": 0}, {"type": "note_on", "time": 5, "note": 62, "velocity": 96, "channel": 0}, {"type": "note_off", "time": 186, "note": 62, "velocity": 96, "channel": 0}, {"type": "note_on", "time": 0, "note": 61, "velocity": 110, "channel": 0}, {"type": "note_off", "time": 174, "note": 61, "velocity": 110, "channel": 0}, {"type": "note_on", "time": 0, "note": 60, "velocity": 106, "channel": 0}, {"type": "note_off", "time": 123, "note": 60, "velocity": 106, "channel": 0}, {"type": "note_on", "time": 8, "note": 62, "velocity": 102, "channel": 0}, {"type": "note_off", "time": 45, "note": 62, "velocity": 102, "channel": 0}, {"type": "note_on", "time": 0, "note": 60, "velocity": 105, "channel": 0}, {"type": "note_off", "time": 33, "note": 60, "velocity": 105, "channel": 0}, {"type": "note_on", "time": 4, "note": 57, "velocity": 101, "channel": 0}, {"type": "note_off", "time": 120, "note": 57, "velocity": 101, "channel": 0}, {"type": "note_on", "time": 0, "note": 58, "velocity": 104, "channel": 0}, {"type": "note_off", "time": 73, "note": 58, "velocity": 104, "channel": 0}, {"type": "note_on", "time": 3, "note": 59, "velocity": 109, "channel": 0}, {"type": "note_off", "time": 134, "note": 59, "velocity": 109, "channel": 0}, {"type": "note_on", "time": 0, "note": 71, "velocity": 106, "channel": 0}, {"type": "note_off", "time": 193, "note": 71, "velocity": 106, "channel": 0}, {"type": "note_on", "time": 0, "note": 69, "velocity": 124, "channel": 0}, {"type": "note_off", "time": 65, "note": 69, "velocity": 124, "channel": 0}, {"type": "note_on", "time": 0, "note": 67, "velocity": 111, "channel": 0}, {"type": "note_off", "time": 131, "note": 67, "velocity": 111, "channel": 0}, {"type": "note_on", "time": 0, "note": 63, "velocity": 111, "channel": 0}, {"type": "note_off", "time": 62, "note": 63, "velocity": 111, "channel": 0}, {"type": "note_on", "time": 2, "note": 62, "velocity": 94, "channel": 0}, {"type": "note_on", "time": 68, "note": 60, "velocity": 96, "channel": 0}, {"type": "note_off", "time": 0, "note": 62, "velocity": 94, "channel": 0}, {"type": "note_off", "time": 57, "note": 60, "velocity": 96, "channel": 0}, {"type": "note_on", "time": 0, "note": 62, "velocity": 82, "channel": 0}, {"type": "note_off", "time": 237, "note": 62, "velocity": 82, "channel": 0}, {"type": "note_on", "time": 289, "note": 59, "velocity": 102, "channel": 0}, {"type": "note_off", "time": 45, "note": 59, "velocity": 102, "channel": 0}, {"type": "note_on", "time": 0, "note": 60, "velocity": 102, "channel": 0}, {"type": "note_off", "time": 40, "note": 60, "velocity": 102, "channel": 0}, {"type": "note_on", "time": 0, "note": 62, "velocity": 109, "channel": 0}, {"type": "note_off", "time": 47, "note": 62, "velocity": 109, "channel": 0}, {"type": "note_on", "time": 0, "note": 59, "velocity": 103, "channel": 0}, {"type": "note_off", "time": 129, "note": 59, "velocity": 103, "channel": 0}, {"type": "note_on", "time": 30, "note": 60, "velocity": 96, "channel": 0}, {"type": "note_off", "time": 146, "note": 60, "velocity": 96, "channel": 0}, {"type": "note_on", "time": 45, "note": 67, "velocity": 114, "channel": 0}, {"type": "note_off", "time": 51, "note": 67, "velocity": 114, "channel": 0}, {"type": "note_on", "time": 0, "note": 65, "velocity": 103, "channel": 0}, {"type": "note_on", "time": 39, "note": 64, "velocity": 100, "channel": 0}, {"type": "note_off", "time": 0, "note": 65, "velocity": 103, "channel": 0}, {"type": "note_off", "time": 45, "note": 64, "velocity": 100, "channel": 0}, {"type": "note_on", "time": 2, "note": 62, "velocity": 96, "channel": 0}, {"type": "note_off", "time": 46, "note": 62, "velocity": 96, "channel": 0}, {"type": "note_on", "time": 12, "note": 63, "velocity": 98, "channel": 0}, {"type": "note_off", "time": 39, "note": 63, "velocity": 98, "channel": 0}, {"type": "note_on", "time": 6, "note": 65, "velocity": 95, "channel": 0}, {"type": "note_off", "time": 41, "note": 65, "velocity": 95, "channel": 0}, {"type": "note_on", "time": 0, "note": 67, "velocity": 96, "channel": 0}, {"type": "note_off", "time": 44, "note": 67, "velocity": 96, "channel": 0}, {"type": "note_on", "time": 0, "note": 70, "velocity": 97, "channel": 0}, {"type": "note_off", "time": 48, "note": 70, "velocity": 97, "channel": 0}, {"type": "note_on", "time": 0, "note": 74, "velocity": 113, "channel": 0}, {"type": "note_off", "time": 187, "note": 74, "velocity": 113, "channel": 0}, {"type": "note_on", "time": 0, "note": 72, "velocity": 114, "channel": 0}, {"type": "note_off", "time": 90, "note": 72, "velocity": 114, "channel": 0}, {"type": "note_on", "time": 33, "note": 70, "velocity": 117, "channel": 0}, {"type": "note_off", "time": 45, "note": 70, "velocity": 117, "channel": 0}, {"type": "note_on", "time": 28, "note": 67, "velocity": 109, "channel": 0}, {"type": "note_off", "time": 65, "note": 67, "velocity": 109, "channel": 0}, {"type": "note_on", "time": 59, "note": 63, "velocity": 106, "channel": 0}, {"type": "note_off", "time": 74, "note": 63, "velocity": 106, "channel": 0}, {"type": "note_on", "time": 0, "note": 60, "velocity": 93, "channel": 0}, {"type": "note_off", "time": 87, "note": 60, "velocity": 93, "channel": 0}, {"type": "note_on", "time": 30, "note": 55, "velocity": 103, "channel": 0}, {"type": "note_off", "time": 52, "note": 55, "velocity": 103, "channel": 0}, {"type": "note_on", "time": 0, "note": 58, "velocity": 105, "channel": 0}, {"type": "note_off", "time": 110, "note": 58, "velocity": 105, "channel": 0}, {"type": "note_on", "time": 18, "note": 63, "velocity": 100, "channel": 0}, {"type": "note_off", "time": 72, "note": 63, "velocity": 100, "channel": 0}, {"type": "note_on", "time": 7, "note": 57, "velocity": 105, "channel": 0}, {"type": "note_off", "time": 181, "note": 57, "velocity": 105, "channel": 0}, {"type": "note_on", "time": 0, "note": 66, "velocity": 109, "channel": 0}, {"type": "note_off", "time": 73, "note": 66, "velocity": 109, "channel": 0}, {"type": "note_on", "time": 0, "note": 65, "velocity": 97, "channel": 0}, {"type": "note_off", "time": 58, "note": 65, "velocity": 97, "channel": 0}, {"type": "note_on", "time": 0, "note": 63, "velocity": 94, "channel": 0}, {"type": "note_off", "time": 66, "note": 63, "velocity": 94, "channel": 0}, {"type": "note_on", "time": 0, "note": 62, "velocity": 92, "channel": 0}, {"type": "note_off", "time": 131, "note": 62, "velocity": 92, "channel": 0}, {"type": "note_on", "time": 4, "note": 53, "velocity": 96, "channel": 0}, {"type": "note_off", "time": 71, "note": 53, "velocity": 96, "channel": 0}, {"type": "note_on", "time": 0, "note": 54, "velocity": 98, "channel": 0}, {"type": "note_off", "time": 103, "note": 54, "velocity": 98, "channel": 0}, {"type": "note_on", "time": 3, "note": 55, "velocity": 92, "channel": 0}, {"type": "note_off", "time": 243, "note": 55, "velocity": 92, "channel": 0}, {"type": "note_on", "time": 220, "note": 68, "velocity": 120, "channel": 0}, {"type": "note_off", "time": 114, "note": 68, "velocity": 120, "channel": 0}, {"type": "note_on", "time": 0, "note": 66, "velocity": 112, "channel": 0}, {"type": "note_off", "time": 84, "note": 66, "velocity": 112, "channel": 0}, {"type": "note_on", "time": 0, "note": 61, "velocity": 108, "channel": 0}, {"type": "note_off", "time": 59, "note": 61, "velocity": 108, "channel": 0}, {"type": "note_on", "time": 5, "note": 58, "velocity": 104, "channel": 0}, {"type": "note_off", "time": 62, "note": 58, "velocity": 104, "channel": 0}, {"type": "note_on", "time": 0, "note": 56, "velocity": 106, "channel": 0}, {"type": "note_off", "time": 76, "note": 56, "velocity": 106, "channel": 0}, {"type": "note_on", "time": 0, "note": 54, "velocity": 102, "channel": 0}, {"type": "note_off", "time": 185, "note": 54, "velocity": 102, "channel": 0}, {"type": "note_on", "time": 0, "note": 55, "velocity": 110, "channel": 0}, {"type": "note_off", "time": 203, "note": 55, "velocity": 110, "channel": 0}, {"type": "note_on", "time": 0, "note": 67, "velocity": 112, "channel": 0}, {"type": "note_off", "time": 101, "note": 67, "velocity": 112, "channel": 0}, {"type": "note_on", "time": 13, "note": 67, "velocity": 115, "channel": 0}, {"type": "note_off", "time": 67, "note": 67, "velocity": 115, "channel": 0}, {"type": "note_on", "time": 0, "note": 64, "velocity": 99, "channel": 0}, {"type": "note_off", "time": 66, "note": 64, "velocity": 99, "channel": 0}, {"type": "note_on", "time": 14, "note": 60, "velocity": 96, "channel": 0}, {"type": "note_off", "time": 52, "note": 60, "velocity": 96, "channel": 0}, {"type": "note_on", "time": 0, "note": 57, "velocity": 101, "channel": 0}, {"type": "note_off", "time": 59, "note": 57, "velocity": 101, "channel": 0}, {"type": "note_on", "time": 0, "note": 62, "velocity": 88, "channel": 0}, {"type": "note_off", "time": 186, "note": 62, "velocity": 88, "channel": 0}, {"type": "note_on", "time": 0, "note": 67, "velocity": 114, "channel": 0}, {"type": "note_off", "time": 129, "note": 67, "velocity": 114, "channel": 0}, {"type": "note_on", "time": 4, "note": 64, "velocity": 103, "channel": 0}, {"type": "note_off", "time": 68, "note": 64, "velocity": 103, "channel": 0}, {"type": "note_on", "time": 0, "note": 60, "velocity": 102, "channel": 0}, {"type": "note_off", "time": 57, "note": 60, "velocity": 102, "channel": 0}, {"type": "note_on", "time": 0, "note": 57, "velocity": 102, "channel": 0}, {"type": "note_on", "time": 53, "note": 62, "velocity": 104, "channel": 0}, {"type": "note_off", "time": 0, "note": 57, "velocity": 102, "channel": 0}, {"type": "note_off", "time": 72, "note": 62, "velocity": 104, "channel": 0}, {"type": "note_on", "time": 5, "note": 59, "velocity": 99, "channel": 0}, {"type": "note_off", "time": 178, "note": 59, "velocity": 99, "channel": 0}, {"type": "note_on", "time": 0, "note": 55, "velocity": 96, "channel": 0}, {"type": "note_off", "time": 175, "note": 55, "velocity": 96, "channel": 0}, {"type": "note_on", "time": 32, "note": 67, "velocity": 116, "channel": 0}, {"type": "note_off", "time": 74, "note": 67, "velocity": 116, "channel": 0}, {"type": "note_on", "time": 123, "note": 76, "velocity": 112, "channel": 0}, {"type": "note_off", "time": 68, "note": 76, "velocity": 112, "channel": 0}, {"type": "note_on", "time": 44, "note": 76, "velocity": 102, "channel": 0}, {"type": "note_off", "time": 76, "note": 76, "velocity": 102, "channel": 0}, {"type": "note_on", "time": 0, "note": 70, "velocity": 94, "channel": 0}, {"type": "note_off", "time": 183, "note": 70, "velocity": 94, "channel": 0}, {"type": "note_on", "time": 6, "note": 67, "velocity": 94, "channel": 0}, {"type": "note_off", "time": 190, "note": 67, "velocity": 94, "channel": 0}, {"type": "note_on", "time": 0, "note": 65, "velocity": 100, "channel": 0}, {"type": "note_off", "time": 131, "note": 65, "velocity": 100, "channel": 0}, {"type": "note_on", "time": 7, "note": 60, "velocity": 84, "channel": 0}, {"type": "note_off", "time": 65, "note": 60, "velocity": 84, "channel": 0}, {"type": "note_on", "time": 0, "note": 64, "velocity": 92, "channel": 0}, {"type": "note_off", "time": 120, "note": 64, "velocity": 92, "channel": 0}, {"type": "note_on", "time": 0, "note": 67, "velocity": 87, "channel": 0}, {"type": "note_off", "time": 101, "note": 67, "velocity": 87, "channel": 0}, {"type": "note_on", "time": 358, "note": 72, "velocity": 119, "channel": 0}, {"type": "note_off", "time": 120, "note": 72, "velocity": 119, "channel": 0}, {"type": "note_on", "time": 1, "note": 67, "velocity": 98, "channel": 0}, {"type": "note_off", "time": 75, "note": 67, "velocity": 98, "channel": 0}, {"type": "note_on", "time": 0, "note": 75, "velocity": 116, "channel": 0}, {"type": "note_off", "time": 109, "note": 75, "velocity": 116, "channel": 0}, {"type": "note_on", "time": 6, "note": 72, "velocity": 111, "channel": 0}, {"type": "note_off", "time": 72, "note": 72, "velocity": 111, "channel": 0}, {"type": "note_on", "time": 0, "note": 70, "velocity": 113, "channel": 0}, {"type": "note_off", "time": 39, "note": 70, "velocity": 113, "channel": 0}, {"type": "note_on", "time": 0, "note": 69, "velocity": 111, "channel": 0}, {"type": "note_off", "time": 40, "note": 69, "velocity": 111, "channel": 0}, {"type": "note_on", "time": 0, "note": 68, "velocity": 110, "channel": 0}, {"type": "note_off", "time": 38, "note": 68, "velocity": 110, "channel": 0}, {"type": "note_on", "time": 0, "note": 67, "velocity": 96, "channel": 0}, {"type": "note_off", "time": 73, "note": 67, "velocity": 96, "channel": 0}, {"type": "note_on", "time": 69, "note": 63, "velocity": 112, "channel": 0}, {"type": "note_off", "time": 51, "note": 63, "velocity": 112, "channel": 0}, {"type": "note_on", "time": 0, "note": 60, "velocity": 106, "channel": 0}, {"type": "note_off", "time": 52, "note": 60, "velocity": 106, "channel": 0}, {"type": "note_on", "time": 11, "note": 55, "velocity": 107, "channel": 0}, {"type": "note_off", "time": 110, "note": 55, "velocity": 107, "channel": 0}, {"type": "note_on", "time": 0, "note": 56, "velocity": 107, "channel": 0}, {"type": "note_off", "time": 85, "note": 56, "velocity": 107, "channel": 0}, {"type": "note_on", "time": 3, "note": 57, "velocity": 108, "channel": 0}, {"type": "note_off", "time": 60, "note": 57, "velocity": 108, "channel": 0}, {"type": "note_on", "time": 0, "note": 65, "velocity": 93, "channel": 0}, {"type": "note_off", "time": 64, "note": 65, "velocity": 93, "channel": 0}, {"type": "note_on", "time": 0, "note": 63, "velocity": 92, "channel": 0}, {"type": "note_off", "time": 62, "note": 63, "velocity": 92, "channel": 0}, {"type": "note_on", "time": 7, "note": 68, "velocity": 109, "channel": 0}, {"type": "note_off", "time": 58, "note": 68, "velocity": 109, "channel": 0}, {"type": "note_on", "time": 1, "note": 66, "velocity": 108, "channel": 0}, {"type": "note_off", "time": 53, "note": 66, "velocity": 108, "channel": 0}, {"type": "note_on", "time": 0, "note": 71, "velocity": 112, "channel": 0}, {"type": "note_off", "time": 76, "note": 71, "velocity": 112, "channel": 0}, {"type": "note_on", "time": 10, "note": 69, "velocity": 118, "channel": 0}, {"type": "note_off", "time": 66, "note": 69, "velocity": 118, "channel": 0}, {"type": "note_on", "time": 0, "note": 74, "velocity": 110, "channel": 0}, {"type": "note_off", "time": 66, "note": 74, "velocity": 110, "channel": 0}, {"type": "note_on", "time": 0, "note": 72, "velocity": 102, "channel": 0}, {"type": "note_off", "time": 49, "note": 72, "velocity": 102, "channel": 0}, {"type": "note_on", "time": 0, "note": 77, "velocity": 114, "channel": 0}, {"type": "note_off", "time": 88, "note": 77, "velocity": 114, "channel": 0}, {"type": "note_on", "time": 16, "note": 75, "velocity": 114, "channel": 0}, {"type": "note_off", "time": 41, "note": 75, "velocity": 114, "channel": 0}, {"type": "note_on", "time": 32, "note": 74, "velocity": 93, "channel": 0}, {"type": "note_off", "time": 127, "note": 74, "velocity": 93, "channel": 0}, {"type": "note_on", "time": 8, "note": 65, "velocity": 88, "channel": 0}, {"type": "note_off", "time": 67, "note": 65, "velocity": 88, "channel": 0}, {"type": "note_on", "time": 0, "note": 67, "velocity": 90, "channel": 0}, {"type": "note_off", "time": 53, "note": 67, "velocity": 90, "channel": 0}, {"type": "note_on", "time": 6, "note": 65, "velocity": 87, "channel": 0}, {"type": "note_off", "time": 65, "note": 65, "velocity": 87, "channel": 0}, {"type": "note_on", "time": 1, "note": 68, "velocity": 84, "channel": 0}, {"type": "note_off", "time": 254, "note": 68, "velocity": 84, "channel": 0}, {"type": "note_on", "time": 318, "note": 67, "velocity": 119, "channel": 0}, {"type": "note_off", "time": 58, "note": 67, "velocity": 119, "channel": 0}, {"type": "note_on", "time": 0, "note": 66, "velocity": 120, "channel": 0}, {"type": "note_off", "time": 32, "note": 66, "velocity": 120, "channel": 0}, {"type": "note_on", "time": 0, "note": 65, "velocity": 112, "channel": 0}, {"type": "note_off", "time": 48, "note": 65, "velocity": 112, "channel": 0}, {"type": "note_on", "time": 2, "note": 64, "velocity": 110, "channel": 0}, {"type": "note_off", "time": 36, "note": 64, "velocity": 110, "channel": 0}, {"type": "note_on", "time": 0, "note": 63, "velocity": 101, "channel": 0}, {"type": "note_on", "time": 48, "note": 58, "velocity": 103, "channel": 0}, {"type": "note_off", "time": 0, "note": 63, "velocity": 101, "channel": 0}, {"type": "note_off", "time": 31, "note": 58, "velocity": 103, "channel": 0}, {"type": "note_on", "time": 0, "note": 62, "velocity": 106, "channel": 0}, {"type": "note_off", "time": 52, "note": 62, "velocity": 106, "channel": 0}, {"type": "note_on", "time": 0, "note": 60, "velocity": 101, "channel": 0}, {"type": "note_off", "time": 33, "note": 60, "velocity": 101, "channel": 0}, {"type": "note_on", "time": 5, "note": 59, "velocity": 101, "channel": 0}, {"type": "note_on", "time": 31, "note": 62, "velocity": 100, "channel": 0}, {"type": "note_off", "time": 0, "note": 59, "velocity": 101, "channel": 0}, {"type": "note_off", "time": 31, "note": 62, "velocity": 100, "channel": 0}, {"type": "note_on", "time": 0, "note": 65, "velocity": 114, "channel": 0}, {"type": "note_on", "time": 28, "note": 70, "velocity": 104, "channel": 0}, {"type": "note_off", "time": 0, "note": 65, "velocity": 114, "channel": 0}, {"type": "note_off", "time": 52, "note": 70, "velocity": 104, "channel": 0}, {"type": "note_on", "time": 4, "note": 68, "velocity": 114, "channel": 0}, {"type": "note_off", "time": 40, "note": 68, "velocity": 114, "channel": 0}, {"type": "note_on", "time": 0, "note": 67, "velocity": 103, "channel": 0}, {"type": "note_off", "time": 50, "note": 67, "velocity": 103, "channel": 0}, {"type": "note_on", "time": 0, "note": 65, "velocity": 104, "channel": 0}, {"type": "note_off", "time": 47, "note": 65, "velocity": 104, "channel": 0}, {"type": "note_on", "time": 9, "note": 66, "velocity": 96, "channel": 0}, {"type": "note_off", "time": 136, "note": 66, "velocity": 96, "channel": 0}, {"type": "note_on", "time": 0, "note": 63, "velocity": 98, "channel": 0}, {"type": "note_off", "time": 60, "note": 63, "velocity": 98, "channel": 0}, {"type": "note_on", "time": 346, "note": 58, "velocity": 97, "channel": 0}, {"type": "note_on", "time": 28, "note": 62, "velocity": 106, "channel": 0}, {"type": "note_off", "time": 0, "note": 58, "velocity": 97, "channel": 0}, {"type": "note_off", "time": 183, "note": 62, "velocity": 106, "channel": 0}, {"type": "note_on", "time": 5, "note": 61, "velocity": 101, "channel": 0}, {"type": "note_off", "time": 93, "note": 61, "velocity": 101, "channel": 0}, {"type": "note_on", "time": 54, "note": 53, "velocity": 87, "channel": 0}, {"type": "note_off", "time": 236, "note": 53, "velocity": 87, "channel": 0}, {"type": "note_on", "time": 159, "note": 61, "velocity": 109, "channel": 0}, {"type": "note_off", "time": 47, "note": 61, "velocity": 109, "channel": 0}, {"type": "note_on", "time": 0, "note": 62, "velocity": 98, "channel": 0}, {"type": "note_off", "time": 58, "note": 62, "velocity": 98, "channel": 0}, {"type": "note_on", "time": 1, "note": 65, "velocity": 101, "channel": 0}, {"type": "note_off", "time": 35, "note": 65, "velocity": 101, "channel": 0}, {"type": "note_on", "time": 0, "note": 69, "velocity": 105, "channel": 0}, {"type": "note_off", "time": 47, "note": 69, "velocity": 105, "channel": 0}, {"type": "note_on", "time": 0, "note": 72, "velocity": 107, "channel": 0}, {"type": "note_off", "time": 39, "note": 72, "velocity": 107, "channel": 0}, {"type": "note_on", "time": 6, "note": 76, "velocity": 107, "channel": 0}, {"type": "note_off", "time": 122, "note": 76, "velocity": 107, "channel": 0}, {"type": "note_on", "time": 14, "note": 74, "velocity": 109, "channel": 0}, {"type": "note_off", "time": 54, "note": 74, "velocity": 109, "channel": 0}, {"type": "note_on", "time": 273, "note": 61, "velocity": 111, "channel": 0}, {"type": "note_off", "time": 43, "note": 61, "velocity": 111, "channel": 0}, {"type": "note_on", "time": 16, "note": 62, "velocity": 99, "channel": 0}, {"type": "note_off", "time": 52, "note": 62, "velocity": 99, "channel": 0}, {"type": "note_on", "time": 0, "note": 65, "velocity": 105, "channel": 0}, {"type": "note_off", "time": 55, "note": 65, "velocity": 105, "channel": 0}, {"type": "note_on", "time": 0, "note": 69, "velocity": 104, "channel": 0}, {"type": "note_off", "time": 63, "note": 69, "velocity": 104, "channel": 0}, {"type": "note_on", "time": 3, "note": 72, "velocity": 117, "channel": 0}, {"type": "note_off", "time": 66, "note": 72, "velocity": 117, "channel": 0}, {"type": "note_on", "time": 17, "note": 71, "velocity": 106, "channel": 0}, {"type": "note_off", "time": 103, "note": 71, "velocity": 106, "channel": 0}, {"type": "note_on", "time": 21, "note": 67, "velocity": 100, "channel": 0}, {"type": "note_off", "time": 82, "note": 67, "velocity": 100, "channel": 0}, {"type": "note_on", "time": 291, "note": 70, "velocity": 116, "channel": 0}, {"type": "note_off", "time": 50, "note": 70, "velocity": 116, "channel": 0}, {"type": "note_on", "time": 1, "note": 69, "velocity": 115, "channel": 0}, {"type": "note_off", "time": 38, "note": 69, "velocity": 115, "channel": 0}, {"type": "note_on", "time": 0, "note": 68, "velocity": 117, "channel": 0}, {"type": "note_off", "time": 52, "note": 68, "velocity": 117, "channel": 0}, {"type": "note_on", "time": 0, "note": 67, "velocity": 113, "channel": 0}, {"type": "note_off", "time": 47, "note": 67, "velocity": 113, "channel": 0}, {"type": "note_on", "time": 0, "note": 66, "velocity": 103, "channel": 0}, {"type": "note_off", "time": 208, "note": 66, "velocity": 103, "channel": 0}, {"type": "note_on", "time": 0, "note": 68, "velocity": 116, "channel": 0}, {"type": "note_off", "time": 50, "note": 68, "velocity": 116, "channel": 0}, {"type": "note_on", "time": 8, "note": 70, "velocity": 113, "channel": 0}, {"type": "note_off", "time": 58, "note": 70, "velocity": 113, "channel": 0}, {"type": "note_on", "time": 0, "note": 66, "velocity": 114, "channel": 0}, {"type": "note_off", "time": 43, "note": 66, "velocity": 114, "channel": 0}, {"type": "note_on", "time": 0, "note": 63, "velocity": 101, "channel": 0}, {"type": "note_off", "time": 47, "note": 63, "velocity": 101, "channel": 0}, {"type": "note_on", "time": 0, "note": 58, "velocity": 105, "channel": 0}, {"type": "note_off", "time": 35, "note": 58, "velocity": 105, "channel": 0}, {"type": "note_on", "time": 0, "note": 61, "velocity": 100, "channel": 0}, {"type": "note_off", "time": 101, "note": 61, "velocity": 100, "channel": 0}, {"type": "note_on", "time": 18, "note": 59, "velocity": 92, "channel": 0}, {"type": "note_off", "time": 69, "note": 59, "velocity": 92, "channel": 0}, {"type": "note_on", "time": 0, "note": 60, "velocity": 92, "channel": 0}, {"type": "note_off", "time": 146, "note": 60, "velocity": 92, "channel": 0}, {"type": "note_on", "time": 0, "note": 58, "velocity": 100, "channel": 0}, {"type": "note_off", "time": 39, "note": 58, "velocity": 100, "channel": 0}, {"type": "note_on", "time": 1, "note": 57, "velocity": 101, "channel": 0}, {"type": "note_off", "time": 93, "note": 57, "velocity": 101, "channel": 0}, {"type": "note_on", "time": 19, "note": 65, "velocity": 103, "channel": 0}, {"type": "note_off", "time": 52, "note": 65, "velocity": 103, "channel": 0}, {"type": "note_on", "time": 0, "note": 63, "velocity": 95, "channel": 0}, {"type": "note_off", "time": 43, "note": 63, "velocity": 95, "channel": 0}, {"type": "note_on", "time": 0, "note": 68, "velocity": 113, "channel": 0}, {"type": "note_off", "time": 47, "note": 68, "velocity": 113, "channel": 0}, {"type": "note_on", "time": 0, "note": 66, "velocity": 105, "channel": 0}, {"type": "note_off", "time": 47, "note": 66, "velocity": 105, "channel": 0}, {"type": "note_on", "time": 2, "note": 71, "velocity": 108, "channel": 0}, {"type": "note_off", "time": 43, "note": 71, "velocity": 108, "channel": 0}, {"type": "note_on", "time": 0, "note": 69, "velocity": 107, "channel": 0}, {"type": "note_off", "time": 38, "note": 69, "velocity": 107, "channel": 0}, {"type": "note_on", "time": 0, "note": 74, "velocity": 107, "channel": 0}, {"type": "note_off", "time": 59, "note": 74, "velocity": 107, "channel": 0}, {"type": "note_on", "time": 7, "note": 72, "velocity": 99, "channel": 0}, {"type": "note_off", "time": 42, "note": 72, "velocity": 99, "channel": 0}, {"type": "note_on", "time": 5, "note": 77, "velocity": 107, "channel": 0}, {"type": "note_off", "time": 47, "note": 77, "velocity": 107, "channel": 0}, {"type": "note_on", "time": 0, "note": 76, "velocity": 101, "channel": 0}, {"type": "note_off", "time": 45, "note": 76, "velocity": 101, "channel": 0}, {"type": "note_on", "time": 0, "note": 75, "velocity": 100, "channel": 0}, {"type": "note_off", "time": 108, "note": 75, "velocity": 100, "channel": 0}, {"type": "note_on", "time": 2, "note": 73, "velocity": 105, "channel": 0}, {"type": "note_off", "time": 208, "note": 73, "velocity": 105, "channel": 0}, {"type": "note_on", "time": 0, "note": 74, "velocity": 107, "channel": 0}, {"type": "note_off", "time": 42, "note": 74, "velocity": 107, "channel": 0}, {"type": "note_on", "time": 24, "note": 76, "velocity": 102, "channel": 0}, {"type": "note_off", "time": 51, "note": 76, "velocity": 102, "channel": 0}, {"type": "note_on", "time": 1, "note": 74, "velocity": 109, "channel": 0}, {"type": "note_off", "time": 40, "note": 74, "velocity": 109, "channel": 0}, {"type": "note_on", "time": 0, "note": 73, "velocity": 104, "channel": 0}, {"type": "note_off", "time": 45, "note": 73, "velocity": 104, "channel": 0}, {"type": "note_on", "time": 0, "note": 71, "velocity": 101, "channel": 0}, {"type": "note_off", "time": 40, "note": 71, "velocity": 101, "channel": 0}, {"type": "note_on", "time": 0, "note": 69, "velocity": 109, "channel": 0}, {"type": "note_off", "time": 43, "note": 69, "velocity": 109, "channel": 0}, {"type": "note_on", "time": 0, "note": 68, "velocity": 109, "channel": 0}, {"type": "note_off", "time": 43, "note": 68, "velocity": 109, "channel": 0}, {"type": "note_on", "time": 0, "note": 67, "velocity": 109, "channel": 0}, {"type": "note_off", "time": 39, "note": 67, "velocity": 109, "channel": 0}, {"type": "note_on", "time": 6, "note": 71, "velocity": 103, "channel": 0}, {"type": "note_off", "time": 49, "note": 71, "velocity": 103, "channel": 0}, {"type": "note_on", "time": 5, "note": 66, "velocity": 112, "channel": 0}, {"type": "note_off", "time": 47, "note": 66, "velocity": 112, "channel": 0}, {"type": "note_on", "time": 0, "note": 65, "velocity": 97, "channel": 0}, {"type": "note_off", "time": 45, "note": 65, "velocity": 97, "channel": 0}, {"type": "note_on", "time": 9, "note": 64, "velocity": 99, "channel": 0}, {"type": "note_off", "time": 33, "note": 64, "velocity": 99, "channel": 0}, {"type": "note_on", "time": 11, "note": 58, "velocity": 99, "channel": 0}, {"type": "note_off", "time": 43, "note": 58, "velocity": 99, "channel": 0}, {"type": "note_on", "time": 0, "note": 63, "velocity": 99, "channel": 0}, {"type": "note_off", "time": 43, "note": 63, "velocity": 99, "channel": 0}, {"type": "note_on", "time": 9, "note": 65, "velocity": 100, "channel": 0}, {"type": "note_off", "time": 45, "note": 65, "velocity": 100, "channel": 0}, {"type": "note_on", "time": 0, "note": 66, "velocity": 89, "channel": 0}, {"type": "note_off", "time": 45, "note": 66, "velocity": 89, "channel": 0}, {"type": "note_on", "time": 0, "note": 68, "velocity": 108, "channel": 0}, {"type": "note_off", "time": 47, "note": 68, "velocity": 108, "channel": 0}, {"type": "note_on", "time": 0, "note": 70, "velocity": 110, "channel": 0}, {"type": "note_off", "time": 48, "note": 70, "velocity": 110, "channel": 0}, {"type": "note_on", "time": 6, "note": 66, "velocity": 106, "channel": 0}, {"type": "note_off", "time": 37, "note": 66, "velocity": 106, "channel": 0}, {"type": "note_on", "time": 10, "note": 63, "velocity": 99, "channel": 0}, {"type": "note_off", "time": 50, "note": 63, "velocity": 99, "channel": 0}, {"type": "note_on", "time": 0, "note": 58, "velocity": 100, "channel": 0}, {"type": "note_off", "time": 33, "note": 58, "velocity": 100, "channel": 0}, {"type": "note_on", "time": 0, "note": 62, "velocity": 100, "channel": 0}, {"type": "note_off", "time": 59, "note": 62, "velocity": 100, "channel": 0}, {"type": "note_on", "time": 0, "note": 59, "velocity": 94, "channel": 0}, {"type": "note_off", "time": 39, "note": 59, "velocity": 94, "channel": 0}, {"type": "note_on", "time": 3, "note": 61, "velocity": 100, "channel": 0}, {"type": "note_off", "time": 52, "note": 61, "velocity": 100, "channel": 0}, {"type": "note_on", "time": 2, "note": 59, "velocity": 99, "channel": 0}, {"type": "note_off", "time": 28, "note": 59, "velocity": 99, "channel": 0}, {"type": "note_on", "time": 0, "note": 60, "velocity": 96, "channel": 0}, {"type": "note_off", "time": 72, "note": 60, "velocity": 96, "channel": 0}, {"type": "note_on", "time": 56, "note": 69, "velocity": 107, "channel": 0}, {"type": "note_off", "time": 74, "note": 69, "velocity": 107, "channel": 0}, {"type": "note_on", "time": 2, "note": 62, "velocity": 95, "channel": 0}, {"type": "note_off", "time": 74, "note": 62, "velocity": 95, "channel": 0}, {"type": "note_on", "time": 52, "note": 62, "velocity": 99, "channel": 0}, {"type": "note_off", "time": 23, "note": 62, "velocity": 99, "channel": 0}, {"type": "note_on", "time": 349, "note": 60, "velocity": 99, "channel": 0}, {"type": "note_off", "time": 74, "note": 60, "velocity": 99, "channel": 0}, {"type": "note_on", "time": 2, "note": 64, "velocity": 100, "channel": 0}, {"type": "note_off", "time": 55, "note": 64, "velocity": 100, "channel": 0}, {"type": "note_on", "time": 0, "note": 67, "velocity": 101, "channel": 0}, {"type": "note_off", "time": 64, "note": 67, "velocity": 101, "channel": 0}, {"type": "note_on", "time": 4, "note": 69, "velocity": 103, "channel": 0}, {"type": "note_off", "time": 62, "note": 69, "velocity": 103, "channel": 0}, {"type": "note_on", "time": 0, "note": 72, "velocity": 112, "channel": 0}, {"type": "note_off", "time": 122, "note": 72, "velocity": 112, "channel": 0}, {"type": "note_on", "time": 0, "note": 69, "velocity": 103, "channel": 0}, {"type": "note_off", "time": 40, "note": 69, "velocity": 103, "channel": 0}, {"type": "note_on", "time": 0, "note": 65, "velocity": 104, "channel": 0}, {"type": "note_off", "time": 38, "note": 65, "velocity": 104, "channel": 0}, {"type": "note_on", "time": 0, "note": 63, "velocity": 97, "channel": 0}, {"type": "note_off", "time": 87, "note": 63, "velocity": 97, "channel": 0}, {"type": "note_on", "time": 34, "note": 60, "velocity": 93, "channel": 0}, {"type": "note_off", "time": 232, "note": 60, "velocity": 93, "channel": 0}, {"type": "note_on", "time": 19, "note": 57, "velocity": 105, "channel": 0}, {"type": "note_off", "time": 144, "note": 57, "velocity": 105, "channel": 0}, {"type": "note_on", "time": 0, "note": 55, "velocity": 99, "channel": 0}, {"type": "note_off", "time": 44, "note": 55, "velocity": 99, "channel": 0}, {"type": "note_on", "time": 0, "note": 60, "velocity": 99, "channel": 0}, {"type": "note_off", "time": 97, "note": 60, "velocity": 99, "channel": 0}, {"type": "note_on", "time": 34, "note": 67, "velocity": 110, "channel": 0}, {"type": "note_off", "time": 256, "note": 67, "velocity": 110, "channel": 0}, {"type": "note_on", "time": 0, "note": 66, "velocity": 108, "channel": 0}, {"type": "note_off", "time": 28, "note": 66, "velocity": 108, "channel": 0}, {"type": "note_on", "time": 0, "note": 65, "velocity": 99, "channel": 0}, {"type": "note_off", "time": 31, "note": 65, "velocity": 99, "channel": 0}, {"type": "note_on", "time": 0, "note": 63, "velocity": 98, "channel": 0}, {"type": "note_off", "time": 33, "note": 63, "velocity": 98, "channel": 0}, {"type": "note_on", "time": 0, "note": 60, "velocity": 97, "channel": 0}, {"type": "note_off", "time": 37, "note": 60, "velocity": 97, "channel": 0}, {"type": "note_on", "time": 10, "note": 65, "velocity": 98, "channel": 0}, {"type": "note_off", "time": 126, "note": 65, "velocity": 98, "channel": 0}, {"type": "note_on", "time": 69, "note": 60, "velocity": 85, "channel": 0}, {"type": "note_off", "time": 53, "note": 60, "velocity": 85, "channel": 0}, {"type": "note_on", "time": 1, "note": 64, "velocity": 89, "channel": 0}, {"type": "note_off", "time": 95, "note": 64, "velocity": 89, "channel": 0}, {"type": "note_on", "time": 31, "note": 67, "velocity": 86, "channel": 0}, {"type": "note_off", "time": 187, "note": 67, "velocity": 86, "channel": 0}, {"type": "note_on", "time": 253, "note": 60, "velocity": 109, "channel": 0}, {"type": "note_off", "time": 55, "note": 60, "velocity": 109, "channel": 0}, {"type": "note_on", "time": 0, "note": 59, "velocity": 102, "channel": 0}, {"type": "note_off", "time": 45, "note": 59, "velocity": 102, "channel": 0}, {"type": "note_on", "time": 0, "note": 60, "velocity": 97, "channel": 0}, {"type": "note_off", "time": 49, "note": 60, "velocity": 97, "channel": 0}, {"type": "note_on", "time": 0, "note": 62, "velocity": 99, "channel": 0}, {"type": "note_off", "time": 48, "note": 62, "velocity": 99, "channel": 0}, {"type": "note_on", "time": 7, "note": 63, "velocity": 104, "channel": 0}, {"type": "note_off", "time": 41, "note": 63, "velocity": 104, "channel": 0}, {"type": "note_on", "time": 3, "note": 65, "velocity": 95, "channel": 0}, {"type": "note_off", "time": 48, "note": 65, "velocity": 95, "channel": 0}, {"type": "note_on", "time": 0, "note": 62, "velocity": 94, "channel": 0}, {"type": "note_off", "time": 43, "note": 62, "velocity": 94, "channel": 0}, {"type": "note_on", "time": 0, "note": 63, "velocity": 97, "channel": 0}, {"type": "note_off", "time": 37, "note": 63, "velocity": 97, "channel": 0}, {"type": "note_on", "time": 0, "note": 60, "velocity": 97, "channel": 0}, {"type": "note_off", "time": 49, "note": 60, "velocity": 97, "channel": 0}, {"type": "note_on", "time": 11, "note": 62, "velocity": 99, "channel": 0}, {"type": "note_off", "time": 50, "note": 62, "velocity": 99, "channel": 0}, {"type": "note_on", "time": 0, "note": 63, "velocity": 104, "channel": 0}, {"type": "note_on", "time": 30, "note": 65, "velocity": 105, "channel": 0}, {"type": "note_off", "time": 0, "note": 63, "velocity": 104, "channel": 0}, {"type": "note_off", "time": 43, "note": 65, "velocity": 105, "channel": 0}, {"type": "note_on", "time": 0, "note": 66, "velocity": 110, "channel": 0}, {"type": "note_off", "time": 40, "note": 66, "velocity": 110, "channel": 0}, {"type": "note_on", "time": 0, "note": 68, "velocity": 109, "channel": 0}, {"type": "note_off", "time": 51, "note": 68, "velocity": 109, "channel": 0}, {"type": "note_on", "time": 6, "note": 65, "velocity": 9, "channel": 0}, {"type": "note_off", "time": 46, "note": 65, "velocity": 9, "channel": 0}, {"type": "note_on", "time": 5, "note": 66, "velocity": 47, "channel": 0}, {"type": "note_off", "time": 50, "note": 66, "velocity": 47, "channel": 0}, {"type": "note_on", "time": 0, "note": 63, "velocity": 96, "channel": 0}, {"type": "note_off", "time": 41, "note": 63, "velocity": 96, "channel": 0}, {"type": "note_on", "time": 1, "note": 65, "velocity": 93, "channel": 0}, {"type": "note_off", "time": 33, "note": 65, "velocity": 93, "channel": 0}, {"type": "note_on", "time": 0, "note": 66, "velocity": 95, "channel": 0}, {"type": "note_off", "time": 43, "note": 66, "velocity": 95, "channel": 0}, {"type": "note_on", "time": 0, "note": 68, "velocity": 113, "channel": 0}, {"type": "note_off", "time": 49, "note": 68, "velocity": 113, "channel": 0}, {"type": "note_on", "time": 1, "note": 70, "velocity": 109, "channel": 0}, {"type": "note_on", "time": 52, "note": 66, "velocity": 106, "channel": 0}, {"type": "note_off", "time": 0, "note": 70, "velocity": 109, "channel": 0}, {"type": "note_off", "time": 47, "note": 66, "velocity": 106, "channel": 0}, {"type": "note_on", "time": 0, "note": 63, "velocity": 97, "channel": 0}, {"type": "note_off", "time": 43, "note": 63, "velocity": 97, "channel": 0}, {"type": "note_on", "time": 9, "note": 58, "velocity": 105, "channel": 0}, {"type": "note_off", "time": 22, "note": 58, "velocity": 105, "channel": 0}, {"type": "note_on", "time": 20, "note": 61, "velocity": 106, "channel": 0}, {"type": "note_off", "time": 45, "note": 61, "velocity": 106, "channel": 0}, {"type": "note_on", "time": 4, "note": 59, "velocity": 101, "channel": 0}, {"type": "note_off", "time": 43, "note": 59, "velocity": 101, "channel": 0}, {"type": "note_on", "time": 0, "note": 60, "velocity": 97, "channel": 0}, {"type": "note_off", "time": 50, "note": 60, "velocity": 97, "channel": 0}, {"type": "note_on", "time": 15, "note": 58, "velocity": 101, "channel": 0}, {"type": "note_off", "time": 42, "note": 58, "velocity": 101, "channel": 0}, {"type": "note_on", "time": 3, "note": 57, "velocity": 97, "channel": 0}, {"type": "note_off", "time": 39, "note": 57, "velocity": 97, "channel": 0}, {"type": "note_on", "time": 0, "note": 60, "velocity": 98, "channel": 0}, {"type": "note_on", "time": 40, "note": 63, "velocity": 98, "channel": 0}, {"type": "note_off", "time": 0, "note": 60, "velocity": 98, "channel": 0}, {"type": "note_off", "time": 47, "note": 63, "velocity": 98, "channel": 0}, {"type": "note_on", "time": 0, "note": 65, "velocity": 109, "channel": 0}, {"type": "note_off", "time": 43, "note": 65, "velocity": 109, "channel": 0}, {"type": "note_on", "time": 0, "note": 68, "velocity": 123, "channel": 0}, {"type": "note_off", "time": 43, "note": 68, "velocity": 123, "channel": 0}, {"type": "note_on", "time": 0, "note": 66, "velocity": 113, "channel": 0}, {"type": "note_off", "time": 43, "note": 66, "velocity": 113, "channel": 0}, {"type": "note_on", "time": 0, "note": 65, "velocity": 103, "channel": 0}, {"type": "note_on", "time": 50, "note": 63, "velocity": 108, "channel": 0}, {"type": "note_off", "time": 0, "note": 65, "velocity": 103, "channel": 0}, {"type": "note_off", "time": 45, "note": 63, "velocity": 108, "channel": 0}, {"type": "note_on", "time": 2, "note": 62, "velocity": 94, "channel": 0}, {"type": "note_off", "time": 146, "note": 62, "velocity": 94, "channel": 0}, {"type": "note_on", "time": 0, "note": 53, "velocity": 93, "channel": 0}, {"type": "note_off", "time": 50, "note": 53, "velocity": 93, "channel": 0}, {"type": "note_on", "time": 0, "note": 54, "velocity": 103, "channel": 0}, {"type": "note_off", "time": 97, "note": 54, "velocity": 103, "channel": 0}, {"type": "note_on", "time": 36, "note": 55, "velocity": 96, "channel": 0}, {"type": "note_off", "time": 171, "note": 55, "velocity": 96, "channel": 0}, {"type": "note_on", "time": 418, "note": 67, "velocity": 122, "channel": 0}, {"type": "note_off", "time": 262, "note": 67, "velocity": 122, "channel": 0}, {"type": "note_on", "time": 0, "note": 66, "velocity": 117, "channel": 0}, {"type": "note_off", "time": 240, "note": 66, "velocity": 117, "channel": 0}, {"type": "note_on", "time": 0, "note": 78, "velocity": 87, "channel": 0}, {"type": "note_off", "time": 87, "note": 78, "velocity": 87, "channel": 0}, {"type": "note_on", "time": 47, "note": 79, "velocity": 96, "channel": 0}, {"type": "note_on", "time": 182, "note": 76, "velocity": 107, "channel": 0}, {"type": "note_off", "time": 0, "note": 79, "velocity": 96, "channel": 0}, {"type": "note_off", "time": 172, "note": 76, "velocity": 107, "channel": 0}, {"type": "note_on", "time": 0, "note": 72, "velocity": 107, "channel": 0}, {"type": "note_off", "time": 189, "note": 72, "velocity": 107, "channel": 0}, {"type": "note_on", "time": 9, "note": 69, "velocity": 122, "channel": 0}, {"type": "note_off", "time": 139, "note": 69, "velocity": 122, "channel": 0}, {"type": "note_on", "time": 11, "note": 65, "velocity": 106, "channel": 0}, {"type": "note_off", "time": 94, "note": 65, "velocity": 106, "channel": 0}, {"type": "note_on", "time": 149, "note": 77, "velocity": 110, "channel": 0}, {"type": "note_off", "time": 119, "note": 77, "velocity": 110, "channel": 0}, {"type": "note_on", "time": 14, "note": 65, "velocity": 97, "channel": 0}, {"type": "note_off", "time": 64, "note": 65, "velocity": 97, "channel": 0}, {"type": "note_on", "time": 0, "note": 76, "velocity": 110, "channel": 0}, {"type": "note_off", "time": 122, "note": 76, "velocity": 110, "channel": 0}, {"type": "note_on", "time": 0, "note": 65, "velocity": 94, "channel": 0}, {"type": "note_off", "time": 61, "note": 65, "velocity": 94, "channel": 0}, {"type": "note_on", "time": 6, "note": 74, "velocity": 111, "channel": 0}, {"type": "note_off", "time": 128, "note": 74, "velocity": 111, "channel": 0}, {"type": "note_on", "time": 6, "note": 65, "velocity": 92, "channel": 0}, {"type": "note_off", "time": 65, "note": 65, "velocity": 92, "channel": 0}, {"type": "note_on", "time": 4, "note": 72, "velocity": 112, "channel": 0}, {"type": "note_off", "time": 131, "note": 72, "velocity": 112, "channel": 0}, {"type": "note_on", "time": 0, "note": 67, "velocity": 111, "channel": 0}, {"type": "note_off", "time": 64, "note": 67, "velocity": 111, "channel": 0}, {"type": "note_on", "time": 2, "note": 65, "velocity": 98, "channel": 0}, {"type": "note_off", "time": 58, "note": 65, "velocity": 98, "channel": 0}, {"type": "note_on", "time": 0, "note": 60, "velocity": 94, "channel": 0}, {"type": "note_off", "time": 60, "note": 60, "velocity": 94, "channel": 0}, {"type": "note_on", "time": 7, "note": 64, "velocity": 107, "channel": 0}, {"type": "note_off", "time": 82, "note": 64, "velocity": 107, "channel": 0}, {"type": "note_on", "time": 12, "note": 65, "velocity": 103, "channel": 0}, {"type": "note_on", "time": 103, "note": 64, "velocity": 98, "channel": 0}, {"type": "note_off", "time": 0, "note": 65, "velocity": 103, "channel": 0}, {"type": "note_off", "time": 74, "note": 64, "velocity": 98, "channel": 0}, {"type": "note_on", "time": 352, "note": 62, "velocity": 111, "channel": 0}, {"type": "note_off", "time": 42, "note": 62, "velocity": 111, "channel": 0}, {"type": "note_on", "time": 14, "note": 59, "velocity": 101, "channel": 0}, {"type": "note_on", "time": 38, "note": 60, "velocity": 91, "channel": 0}, {"type": "note_off", "time": 0, "note": 59, "velocity": 101, "channel": 0}, {"type": "note_off", "time": 50, "note": 60, "velocity": 91, "channel": 0}, {"type": "note_on", "time": 0, "note": 62, "velocity": 95, "channel": 0}, {"type": "note_off", "time": 38, "note": 62, "velocity": 95, "channel": 0}, {"type": "note_on", "time": 0, "note": 63, "velocity": 113, "channel": 0}, {"type": "note_on", "time": 47, "note": 64, "velocity": 108, "channel": 0}, {"type": "note_off", "time": 0, "note": 63, "velocity": 113, "channel": 0}, {"type": "note_off", "time": 43, "note": 64, "velocity": 108, "channel": 0}, {"type": "note_on", "time": 4, "note": 65, "velocity": 106, "channel": 0}, {"type": "note_off", "time": 59, "note": 65, "velocity": 106, "channel": 0}, {"type": "note_on", "time": 0, "note": 66, "velocity": 106, "channel": 0}, {"type": "note_off", "time": 35, "note": 66, "velocity": 106, "channel": 0}, {"type": "note_on", "time": 5, "note": 67, "velocity": 103, "channel": 0}, {"type": "note_off", "time": 57, "note": 67, "velocity": 103, "channel": 0}, {"type": "note_on", "time": 0, "note": 69, "velocity": 118, "channel": 0}, {"type": "note_off", "time": 35, "note": 69, "velocity": 118, "channel": 0}, {"type": "note_on", "time": 0, "note": 70, "velocity": 106, "channel": 0}, {"type": "note_on", "time": 57, "note": 72, "velocity": 95, "channel": 0}, {"type": "note_off", "time": 0, "note": 70, "velocity": 106, "channel": 0}, {"type": "note_off", "time": 28, "note": 72, "velocity": 95, "channel": 0}, {"type": "note_on", "time": 0, "note": 74, "velocity": 106, "channel": 0}, {"type": "note_off", "time": 137, "note": 74, "velocity": 106, "channel": 0}, {"type": "note_on", "time": 5, "note": 63, "velocity": 103, "channel": 0}, {"type": "note_off", "time": 59, "note": 63, "velocity": 103, "channel": 0}, {"type": "note_on", "time": 256, "note": 62, "velocity": 115, "channel": 0}, {"type": "note_off", "time": 49, "note": 62, "velocity": 115, "channel": 0}, {"type": "note_on", "time": 3, "note": 63, "velocity": 106, "channel": 0}, {"type": "note_off", "time": 46, "note": 63, "velocity": 106, "channel": 0}, {"type": "note_on", "time": 13, "note": 67, "velocity": 119, "channel": 0}, {"type": "note_off", "time": 53, "note": 67, "velocity": 119, "channel": 0}, {"type": "note_on", "time": 8, "note": 70, "velocity": 102, "channel": 0}, {"type": "note_off", "time": 45, "note": 70, "velocity": 102, "channel": 0}, {"type": "note_on", "time": 0, "note": 74, "velocity": 111, "channel": 0}, {"type": "note_off", "time": 33, "note": 74, "velocity": 111, "channel": 0}, {"type": "note_on", "time": 0, "note": 77, "velocity": 110, "channel": 0}, {"type": "note_off", "time": 48, "note": 77, "velocity": 110, "channel": 0}, {"type": "note_on", "time": 9, "note": 73, "velocity": 108, "channel": 0}, {"type": "note_off", "time": 148, "note": 73, "velocity": 108, "channel": 0}, {"type": "note_on", "time": 7, "note": 69, "velocity": 112, "channel": 0}, {"type": "note_off", "time": 51, "note": 69, "velocity": 112, "channel": 0}, {"type": "note_on", "time": 329, "note": 61, "velocity": 111, "channel": 0}, {"type": "note_off", "time": 46, "note": 61, "velocity": 111, "channel": 0}, {"type": "note_on", "time": 0, "note": 62, "velocity": 104, "channel": 0}, {"type": "note_off", "time": 51, "note": 62, "velocity": 104, "channel": 0}, {"type": "note_on", "time": 0, "note": 65, "velocity": 101, "channel": 0}, {"type": "note_off", "time": 35, "note": 65, "velocity": 101, "channel": 0}, {"type": "note_on", "time": 0, "note": 69, "velocity": 107, "channel": 0}, {"type": "note_on", "time": 47, "note": 72, "velocity": 118, "channel": 0}, {"type": "note_off", "time": 0, "note": 69, "velocity": 107, "channel": 0}, {"type": "note_off", "time": 42, "note": 72, "velocity": 118, "channel": 0}, {"type": "note_on", "time": 32, "note": 76, "velocity": 110, "channel": 0}, {"type": "note_off", "time": 173, "note": 76, "velocity": 110, "channel": 0}, {"type": "note_on", "time": 0, "note": 79, "velocity": 105, "channel": 0}, {"type": "note_off", "time": 118, "note": 79, "velocity": 105, "channel": 0}, {"type": "note_on", "time": 1, "note": 76, "velocity": 100, "channel": 0}, {"type": "note_off", "time": 399, "note": 76, "velocity": 100, "channel": 0}, {"type": "note_on", "time": 0, "note": 74, "velocity": 108, "channel": 0}, {"type": "note_off", "time": 75, "note": 74, "velocity": 108, "channel": 0}, {"type": "note_on", "time": 2, "note": 75, "velocity": 113, "channel": 0}, {"type": "note_off", "time": 104, "note": 75, "velocity": 113, "channel": 0}, {"type": "note_on", "time": 0, "note": 78, "velocity": 108, "channel": 0}, {"type": "note_off", "time": 74, "note": 78, "velocity": 108, "channel": 0}, {"type": "note_on", "time": 0, "note": 75, "velocity": 108, "channel": 0}, {"type": "note_off", "time": 114, "note": 75, "velocity": 108, "channel": 0}, {"type": "note_on", "time": 0, "note": 73, "velocity": 113, "channel": 0}, {"type": "note_off", "time": 85, "note": 73, "velocity": 113, "channel": 0}, {"type": "note_on", "time": 0, "note": 71, "velocity": 104, "channel": 0}, {"type": "note_off", "time": 126, "note": 71, "velocity": 104, "channel": 0}, {"type": "note_on", "time": 0, "note": 68, "velocity": 114, "channel": 0}, {"type": "note_off", "time": 71, "note": 68, "velocity": 114, "channel": 0}, {"type": "note_on", "time": 0, "note": 66, "velocity": 113, "channel": 0}, {"type": "note_off", "time": 160, "note": 66, "velocity": 113, "channel": 0}, {"type": "note_on", "time": 19, "note": 67, "velocity": 109, "channel": 0}, {"type": "note_off", "time": 84, "note": 67, "velocity": 109, "channel": 0}, {"type": "note_on", "time": 39, "note": 65, "velocity": 103, "channel": 0}, {"type": "note_off", "time": 64, "note": 65, "velocity": 103, "channel": 0}, {"type": "note_on", "time": 0, "note": 60, "velocity": 98, "channel": 0}, {"type": "note_off", "time": 69, "note": 60, "velocity": 98, "channel": 0}, {"type": "note_on", "time": 2, "note": 57, "velocity": 100, "channel": 0}, {"type": "note_off", "time": 68, "note": 57, "velocity": 100, "channel": 0}, {"type": "note_on", "time": 7, "note": 64, "velocity": 99, "channel": 0}, {"type": "note_off", "time": 66, "note": 64, "velocity": 99, "channel": 0}, {"type": "note_on", "time": 0, "note": 62, "velocity": 91, "channel": 0}, {"type": "note_off", "time": 176, "note": 62, "velocity": 91, "channel": 0}, {"type": "note_on", "time": 0, "note": 64, "velocity": 96, "channel": 0}, {"type": "note_off", "time": 135, "note": 64, "velocity": 96, "channel": 0}, {"type": "note_on", "time": 72, "note": 56, "velocity": 104, "channel": 0}, {"type": "note_off", "time": 94, "note": 56, "velocity": 104, "channel": 0}, {"type": "note_on", "time": 28, "note": 56, "velocity": 107, "channel": 0}, {"type": "note_off", "time": 47, "note": 56, "velocity": 107, "channel": 0}, {"type": "note_on", "time": 392, "note": 55, "velocity": 109, "channel": 0}, {"type": "note_off", "time": 128, "note": 55, "velocity": 109, "channel": 0}, {"type": "note_on", "time": 0, "note": 57, "velocity": 103, "channel": 0}, {"type": "note_off", "time": 71, "note": 57, "velocity": 103, "channel": 0}, {"type": "note_on", "time": 0, "note": 60, "velocity": 112, "channel": 0}, {"type": "note_off", "time": 111, "note": 60, "velocity": 112, "channel": 0}, {"type": "note_on", "time": 70, "note": 69, "velocity": 121, "channel": 0}, {"type": "note_off", "time": 87, "note": 69, "velocity": 121, "channel": 0}, {"type": "note_on", "time": 53, "note": 69, "velocity": 118, "channel": 0}, {"type": "note_off", "time": 72, "note": 69, "velocity": 118, "channel": 0}, {"type": "note_on", "time": 2, "note": 67, "velocity": 100, "channel": 0}, {"type": "note_off", "time": 174, "note": 67, "velocity": 100, "channel": 0}, {"type": "note_on", "time": 0, "note": 69, "velocity": 124, "channel": 0}, {"type": "note_off", "time": 111, "note": 69, "velocity": 124, "channel": 0}, {"type": "note_on", "time": 79, "note": 64, "velocity": 103, "channel": 0}, {"type": "note_on", "time": 55, "note": 67, "velocity": 111, "channel": 0}, {"type": "note_off", "time": 0, "note": 64, "velocity": 103, "channel": 0}, {"type": "note_off", "time": 146, "note": 67, "velocity": 111, "channel": 0}, {"type": "note_on", "time": 0, "note": 65, "velocity": 105, "channel": 0}, {"type": "note_off", "time": 46, "note": 65, "velocity": 105, "channel": 0}, {"type": "note_on", "time": 19, "note": 69, "velocity": 119, "channel": 0}, {"type": "note_off", "time": 132, "note": 69, "velocity": 119, "channel": 0}, {"type": "note_on", "time": 0, "note": 67, "velocity": 99, "channel": 0}, {"type": "note_off", "time": 127, "note": 67, "velocity": 99, "channel": 0}, {"type": "note_on", "time": 0, "note": 72, "velocity": 116, "channel": 0}, {"type": "note_off", "time": 50, "note": 72, "velocity": 116, "channel": 0}, {"type": "note_on", "time": 2, "note": 71, "velocity": 98, "channel": 0}, {"type": "note_off", "time": 49, "note": 71, "velocity": 98, "channel": 0}, {"type": "note_on", "time": 37, "note": 72, "velocity": 95, "channel": 0}, {"type": "note_off", "time": 39, "note": 72, "velocity": 95, "channel": 0}, {"type": "note_on", "time": 10, "note": 74, "velocity": 112, "channel": 0}, {"type": "note_off", "time": 63, "note": 74, "velocity": 112, "channel": 0}, {"type": "note_on", "time": 3, "note": 72, "velocity": 97, "channel": 0}, {"type": "note_off", "time": 112, "note": 72, "velocity": 97, "channel": 0}, {"type": "note_on", "time": 14, "note": 67, "velocity": 107, "channel": 0}, {"type": "note_off", "time": 55, "note": 67, "velocity": 107, "channel": 0}, {"type": "note_on", "time": 0, "note": 66, "velocity": 107, "channel": 0}, {"type": "note_on", "time": 26, "note": 65, "velocity": 98, "channel": 0}, {"type": "note_off", "time": 0, "note": 66, "velocity": 107, "channel": 0}, {"type": "note_off", "time": 28, "note": 65, "velocity": 98, "channel": 0}, {"type": "note_on", "time": 0, "note": 63, "velocity": 92, "channel": 0}, {"type": "note_off", "time": 23, "note": 63, "velocity": 92, "channel": 0}, {"type": "note_on", "time": 0, "note": 60, "velocity": 92, "channel": 0}, {"type": "note_off", "time": 31, "note": 60, "velocity": 92, "channel": 0}, {"type": "note_on", "time": 28, "note": 65, "velocity": 100, "channel": 0}, {"type": "note_on", "time": 50, "note": 63, "velocity": 92, "channel": 0}, {"type": "note_off", "time": 0, "note": 65, "velocity": 100, "channel": 0}, {"type": "note_off", "time": 102, "note": 63, "velocity": 92, "channel": 0}, {"type": "note_on", "time": 21, "note": 60, "velocity": 96, "channel": 0}, {"type": "note_off", "time": 74, "note": 60, "velocity": 96, "channel": 0}, {"type": "note_on", "time": 0, "note": 55, "velocity": 100, "channel": 0}, {"type": "note_off", "time": 98, "note": 55, "velocity": 100, "channel": 0}, {"type": "note_on", "time": 35, "note": 54, "velocity": 105, "channel": 0}, {"type": "note_off", "time": 57, "note": 54, "velocity": 105, "channel": 0}, {"type": "note_on", "time": 0, "note": 53, "velocity": 98, "channel": 0}, {"type": "note_off", "time": 118, "note": 53, "velocity": 98, "channel": 0}, {"type": "note_on", "time": 368, "note": 65, "velocity": 110, "channel": 0}, {"type": "note_off", "time": 42, "note": 65, "velocity": 110, "channel": 0}, {"type": "note_on", "time": 0, "note": 66, "velocity": 119, "channel": 0}, {"type": "note_off", "time": 27, "note": 66, "velocity": 119, "channel": 0}, {"type": "note_on", "time": 0, "note": 67, "velocity": 121, "channel": 0}, {"type": "note_on", "time": 33, "note": 68, "velocity": 122, "channel": 0}, {"type": "note_off", "time": 0, "note": 67, "velocity": 121, "channel": 0}, {"type": "note_off", "time": 41, "note": 68, "velocity": 122, "channel": 0}, {"type": "note_on", "time": 8, "note": 67, "velocity": 115, "channel": 0}, {"type": "note_off", "time": 28, "note": 67, "velocity": 115, "channel": 0}, {"type": "note_on", "time": 0, "note": 66, "velocity": 113, "channel": 0}, {"type": "note_off", "time": 32, "note": 66, "velocity": 113, "channel": 0}, {"type": "note_on", "time": 1, "note": 65, "velocity": 104, "channel": 0}, {"type": "note_off", "time": 30, "note": 65, "velocity": 104, "channel": 0}, {"type": "note_on", "time": 0, "note": 63, "velocity": 111, "channel": 0}, {"type": "note_off", "time": 25, "note": 63, "velocity": 111, "channel": 0}, {"type": "note_on", "time": 0, "note": 62, "velocity": 96, "channel": 0}, {"type": "note_off", "time": 45, "note": 62, "velocity": 96, "channel": 0}, {"type": "note_on", "time": 0, "note": 63, "velocity": 100, "channel": 0}, {"type": "note_off", "time": 40, "note": 63, "velocity": 100, "channel": 0}, {"type": "note_on", "time": 5, "note": 65, "velocity": 94, "channel": 0}, {"type": "note_on", "time": 52, "note": 67, "velocity": 109, "channel": 0}, {"type": "note_off", "time": 0, "note": 65, "velocity": 94, "channel": 0}, {"type": "note_off", "time": 31, "note": 67, "velocity": 109, "channel": 0}, {"type": "note_on", "time": 0, "note": 69, "velocity": 118, "channel": 0}, {"type": "note_off", "time": 53, "note": 69, "velocity": 118, "channel": 0}, {"type": "note_on", "time": 6, "note": 65, "velocity": 105, "channel": 0}, {"type": "note_off", "time": 42, "note": 65, "velocity": 105, "channel": 0}, {"type": "note_on", "time": 1, "note": 62, "velocity": 94, "channel": 0}, {"type": "note_off", "time": 40, "note": 62, "velocity": 94, "channel": 0}, {"type": "note_on", "time": 0, "note": 57, "velocity": 107, "channel": 0}, {"type": "note_off", "time": 41, "note": 57, "velocity": 107, "channel": 0}, {"type": "note_on", "time": 4, "note": 61, "velocity": 104, "channel": 0}, {"type": "note_off", "time": 51, "note": 61, "velocity": 104, "channel": 0}, {"type": "note_on", "time": 3, "note": 57, "velocity": 89, "channel": 0}, {"type": "note_off", "time": 43, "note": 57, "velocity": 89, "channel": 0}, {"type": "note_on", "time": 0, "note": 64, "velocity": 105, "channel": 0}, {"type": "note_on", "time": 55, "note": 63, "velocity": 104, "channel": 0}, {"type": "note_off", "time": 0, "note": 64, "velocity": 105, "channel": 0}, {"type": "note_off", "time": 47, "note": 63, "velocity": 104, "channel": 0}, {"type": "note_on", "time": 5, "note": 62, "velocity": 99, "channel": 0}, {"type": "note_off", "time": 33, "note": 62, "velocity": 99, "channel": 0}, {"type": "note_on", "time": 19, "note": 56, "velocity": 103, "channel": 0}, {"type": "note_on", "time": 38, "note": 57, "velocity": 99, "channel": 0}, {"type": "note_off", "time": 0, "note": 56, "velocity": 103, "channel": 0}, {"type": "note_off", "time": 52, "note": 57, "velocity": 99, "channel": 0}, {"type": "note_on", "time": 0, "note": 60, "velocity": 102, "channel": 0}, {"type": "note_off", "time": 29, "note": 60, "velocity": 102, "channel": 0}, {"type": "note_on", "time": 9, "note": 59, "velocity": 97, "channel": 0}, {"type": "note_on", "time": 50, "note": 62, "velocity": 98, "channel": 0}, {"type": "note_off", "time": 0, "note": 59, "velocity": 97, "channel": 0}, {"type": "note_off", "time": 40, "note": 62, "velocity": 98, "channel": 0}, {"type": "note_on", "time": 0, "note": 65, "velocity": 104, "channel": 0}, {"type": "note_off", "time": 47, "note": 65, "velocity": 104, "channel": 0}, {"type": "note_on", "time": 0, "note": 68, "velocity": 106, "channel": 0}, {"type": "note_off", "time": 40, "note": 68, "velocity": 106, "channel": 0}, {"type": "note_on", "time": 7, "note": 65, "velocity": 99, "channel": 0}, {"type": "note_off", "time": 50, "note": 65, "velocity": 99, "channel": 0}, {"type": "note_on", "time": 0, "note": 66, "velocity": 99, "channel": 0}, {"type": "note_off", "time": 43, "note": 66, "velocity": 99, "channel": 0}, {"type": "note_on", "time": 0, "note": 71, "velocity": 90, "channel": 0}, {"type": "note_off", "time": 52, "note": 71, "velocity": 90, "channel": 0}, {"type": "note_on", "time": 17, "note": 74, "velocity": 97, "channel": 0}, {"type": "note_off", "time": 21, "note": 74, "velocity": 97, "channel": 0}, {"type": "note_on", "time": 2, "note": 77, "velocity": 113, "channel": 0}, {"type": "note_off", "time": 179, "note": 77, "velocity": 113, "channel": 0}, {"type": "note_on", "time": 0, "note": 74, "velocity": 109, "channel": 0}, {"type": "note_off", "time": 187, "note": 74, "velocity": 109, "channel": 0}, {"type": "note_on", "time": 31, "note": 75, "velocity": 103, "channel": 0}, {"type": "note_off", "time": 131, "note": 75, "velocity": 103, "channel": 0}, {"type": "note_on", "time": 0, "note": 66, "velocity": 99, "channel": 0}, {"type": "note_off", "time": 74, "note": 66, "velocity": 99, "channel": 0}, {"type": "note_on", "time": 371, "note": 74, "velocity": 110, "channel": 0}, {"type": "note_off", "time": 189, "note": 74, "velocity": 110, "channel": 0}, {"type": "note_on", "time": 0, "note": 72, "velocity": 111, "channel": 0}, {"type": "note_off", "time": 184, "note": 72, "velocity": 111, "channel": 0}, {"type": "note_on", "time": 0, "note": 70, "velocity": 109, "channel": 0}, {"type": "note_off", "time": 133, "note": 70, "velocity": 109, "channel": 0}, {"type": "note_on", "time": 0, "note": 72, "velocity": 106, "channel": 0}, {"type": "note_on", "time": 35, "note": 70, "velocity": 108, "channel": 0}, {"type": "note_off", "time": 0, "note": 72, "velocity": 106, "channel": 0}, {"type": "note_off", "time": 47, "note": 70, "velocity": 108, "channel": 0}, {"type": "note_on", "time": 6, "note": 69, "velocity": 120, "channel": 0}, {"type": "note_off", "time": 116, "note": 69, "velocity": 120, "channel": 0}, {"type": "note_on", "time": 0, "note": 66, "velocity": 117, "channel": 0}, {"type": "note_off", "time": 52, "note": 66, "velocity": 117, "channel": 0}, {"type": "note_on", "time": 9, "note": 65, "velocity": 93, "channel": 0}, {"type": "note_off", "time": 108, "note": 65, "velocity": 93, "channel": 0}, {"type": "note_on", "time": 13, "note": 63, "velocity": 105, "channel": 0}, {"type": "note_on", "time": 62, "note": 62, "velocity": 94, "channel": 0}, {"type": "note_off", "time": 0, "note": 63, "velocity": 105, "channel": 0}, {"type": "note_off", "time": 111, "note": 62, "velocity": 94, "channel": 0}, {"type": "note_on", "time": 5, "note": 65, "velocity": 102, "channel": 0}, {"type": "note_off", "time": 76, "note": 65, "velocity": 102, "channel": 0}, {"type": "note_on", "time": 0, "note": 67, "velocity": 104, "channel": 0}, {"type": "note_off", "time": 117, "note": 67, "velocity": 104, "channel": 0}, {"type": "note_on", "time": 13, "note": 69, "velocity": 110, "channel": 0}, {"type": "note_off", "time": 256, "note": 69, "velocity": 110, "channel": 0}, {"type": "note_on", "time": 0, "note": 65, "velocity": 100, "channel": 0}, {"type": "note_off", "time": 72, "note": 65, "velocity": 100, "channel": 0}, {"type": "note_on", "time": 0, "note": 62, "velocity": 95, "channel": 0}, {"type": "note_off", "time": 69, "note": 62, "velocity": 95, "channel": 0}, {"type": "note_on", "time": 1, "note": 57, "velocity": 99, "channel": 0}, {"type": "note_off", "time": 43, "note": 57, "velocity": 99, "channel": 0}, {"type": "note_on", "time": 0, "note": 64, "velocity": 106, "channel": 0}, {"type": "note_off", "time": 98, "note": 64, "velocity": 106, "channel": 0}, {"type": "note_on", "time": 23, "note": 63, "velocity": 106, "channel": 0}, {"type": "note_off", "time": 69, "note": 63, "velocity": 106, "channel": 0}, {"type": "note_on", "time": 3, "note": 62, "velocity": 98, "channel": 0}, {"type": "note_off", "time": 66, "note": 62, "velocity": 98, "channel": 0}, {"type": "note_on", "time": 0, "note": 53, "velocity": 101, "channel": 0}, {"type": "note_off", "time": 49, "note": 53, "velocity": 101, "channel": 0}, {"type": "note_on", "time": 0, "note": 61, "velocity": 104, "channel": 0}, {"type": "note_off", "time": 52, "note": 61, "velocity": 104, "channel": 0}, {"type": "note_on", "time": 18, "note": 59, "velocity": 97, "channel": 0}, {"type": "note_off", "time": 57, "note": 59, "velocity": 97, "channel": 0}, {"type": "note_on", "time": 0, "note": 61, "velocity": 104, "channel": 0}, {"type": "note_off", "time": 59, "note": 61, "velocity": 104, "channel": 0}, {"type": "note_on", "time": 0, "note": 58, "velocity": 102, "channel": 0}, {"type": "note_off", "time": 198, "note": 58, "velocity": 102, "channel": 0}, {"type": "note_on", "time": 0, "note": 56, "velocity": 109, "channel": 0}, {"type": "note_off", "time": 71, "note": 56, "velocity": 109, "channel": 0}, {"type": "note_on", "time": 0, "note": 54, "velocity": 97, "channel": 0}, {"type": "note_off", "time": 76, "note": 54, "velocity": 97, "channel": 0}, {"type": "note_on", "time": 47, "note": 54, "velocity": 102, "channel": 0}, {"type": "note_off", "time": 51, "note": 54, "velocity": 102, "channel": 0}, {"type": "note_on", "time": 295, "note": 65, "velocity": 104, "channel": 0}, {"type": "note_off", "time": 66, "note": 65, "velocity": 104, "channel": 0}, {"type": "note_on", "time": 0, "note": 66, "velocity": 111, "channel": 0}, {"type": "note_off", "time": 49, "note": 66, "velocity": 111, "channel": 0}, {"type": "note_on", "time": 0, "note": 69, "velocity": 127, "channel": 0}, {"type": "note_off", "time": 46, "note": 69, "velocity": 127, "channel": 0}, {"type": "note_on", "time": 0, "note": 70, "velocity": 114, "channel": 0}, {"type": "note_off", "time": 43, "note": 70, "velocity": 114, "channel": 0}, {"type": "note_on", "time": 0, "note": 66, "velocity": 116, "channel": 0}, {"type": "note_on", "time": 55, "note": 64, "velocity": 108, "channel": 0}, {"type": "note_off", "time": 0, "note": 66, "velocity": 116, "channel": 0}, {"type": "note_off", "time": 43, "note": 64, "velocity": 108, "channel": 0}, {"type": "note_on", "time": 0, "note": 63, "velocity": 100, "channel": 0}, {"type": "note_off", "time": 77, "note": 63, "velocity": 100, "channel": 0}, {"type": "note_on", "time": 92, "note": 72, "velocity": 93, "channel": 0}, {"type": "note_on", "time": 57, "note": 63, "velocity": 94, "channel": 0}, {"type": "note_off", "time": 0, "note": 72, "velocity": 93, "channel": 0}, {"type": "note_off", "time": 56, "note": 63, "velocity": 94, "channel": 0}, {"type": "note_on", "time": 0, "note": 67, "velocity": 108, "channel": 0}, {"type": "note_off", "time": 36, "note": 67, "velocity": 108, "channel": 0}, {"type": "note_on", "time": 0, "note": 70, "velocity": 95, "channel": 0}, {"type": "note_on", "time": 40, "note": 74, "velocity": 116, "channel": 0}, {"type": "note_off", "time": 0, "note": 70, "velocity": 95, "channel": 0}, {"type": "note_off", "time": 51, "note": 74, "velocity": 116, "channel": 0}, {"type": "note_on", "time": 3, "note": 72, "velocity": 113, "channel": 0}, {"type": "note_off", "time": 43, "note": 72, "velocity": 113, "channel": 0}, {"type": "note_on", "time": 0, "note": 70, "velocity": 108, "channel": 0}, {"type": "note_off", "time": 47, "note": 70, "velocity": 108, "channel": 0}, {"type": "note_on", "time": 12, "note": 68, "velocity": 110, "channel": 0}, {"type": "note_off", "time": 39, "note": 68, "velocity": 110, "channel": 0}, {"type": "note_on", "time": 1, "note": 69, "velocity": 120, "channel": 0}, {"type": "note_off", "time": 48, "note": 69, "velocity": 120, "channel": 0}, {"type": "note_on", "time": 49, "note": 65, "velocity": 110, "channel": 0}, {"type": "note_off", "time": 33, "note": 65, "velocity": 110, "channel": 0}, {"type": "note_on", "time": 0, "note": 66, "velocity": 106, "channel": 0}, {"type": "note_off", "time": 31, "note": 66, "velocity": 106, "channel": 0}, {"type": "note_on", "time": 0, "note": 67, "velocity": 114, "channel": 0}, {"type": "note_off", "time": 31, "note": 67, "velocity": 114, "channel": 0}, {"type": "note_on", "time": 3, "note": 69, "velocity": 118, "channel": 0}, {"type": "note_off", "time": 48, "note": 69, "velocity": 118, "channel": 0}, {"type": "note_on", "time": 0, "note": 66, "velocity": 106, "channel": 0}, {"type": "note_off", "time": 33, "note": 66, "velocity": 106, "channel": 0}, {"type": "note_on", "time": 0, "note": 67, "velocity": 102, "channel": 0}, {"type": "note_off", "time": 57, "note": 67, "velocity": 102, "channel": 0}, {"type": "note_on", "time": 0, "note": 69, "velocity": 115, "channel": 0}, {"type": "note_on", "time": 28, "note": 71, "velocity": 104, "channel": 0}, {"type": "note_off", "time": 0, "note": 69, "velocity": 115, "channel": 0}, {"type": "note_off", "time": 52, "note": 71, "velocity": 104, "channel": 0}, {"type": "note_on", "time": 0, "note": 67, "velocity": 106, "channel": 0}, {"type": "note_off", "time": 35, "note": 67, "velocity": 106, "channel": 0}, {"type": "note_on", "time": 2, "note": 64, "velocity": 97, "channel": 0}, {"type": "note_off", "time": 50, "note": 64, "velocity": 97, "channel": 0}, {"type": "note_on", "time": 7, "note": 59, "velocity": 103, "channel": 0}, {"type": "note_off", "time": 43, "note": 59, "velocity": 103, "channel": 0}, {"type": "note_on", "time": 0, "note": 62, "velocity": 102, "channel": 0}, {"type": "note_off", "time": 47, "note": 62, "velocity": 102, "channel": 0}, {"type": "note_on", "time": 0, "note": 59, "velocity": 98, "channel": 0}, {"type": "note_off", "time": 41, "note": 59, "velocity": 98, "channel": 0}, {"type": "note_on", "time": 4, "note": 62, "velocity": 102, "channel": 0}, {"type": "note_off", "time": 35, "note": 62, "velocity": 102, "channel": 0}, {"type": "note_on", "time": 0, "note": 59, "velocity": 102, "channel": 0}, {"type": "note_off", "time": 38, "note": 59, "velocity": 102, "channel": 0}, {"type": "note_on", "time": 0, "note": 61, "velocity": 100, "channel": 0}, {"type": "note_off", "time": 88, "note": 61, "velocity": 100, "channel": 0}, {"type": "note_on", "time": 104, "note": 68, "velocity": 115, "channel": 0}, {"type": "note_off", "time": 55, "note": 68, "velocity": 115, "channel": 0}, {"type": "note_on", "time": 0, "note": 66, "velocity": 106, "channel": 0}, {"type": "note_off", "time": 38, "note": 66, "velocity": 106, "channel": 0}, {"type": "note_on", "time": 0, "note": 61, "velocity": 105, "channel": 0}, {"type": "note_off", "time": 43, "note": 61, "velocity": 105, "channel": 0}, {"type": "note_on", "time": 8, "note": 58, "velocity": 101, "channel": 0}, {"type": "note_off", "time": 28, "note": 58, "velocity": 101, "channel": 0}, {"type": "note_on", "time": 12, "note": 65, "velocity": 113, "channel": 0}, {"type": "note_off", "time": 26, "note": 65, "velocity": 113, "channel": 0}, {"type": "note_on", "time": 0, "note": 66, "velocity": 111, "channel": 0}, {"type": "note_off", "time": 33, "note": 66, "velocity": 111, "channel": 0}, {"type": "note_on", "time": 0, "note": 67, "velocity": 111, "channel": 0}, {"type": "note_off", "time": 30, "note": 67, "velocity": 111, "channel": 0}, {"type": "note_on", "time": 3, "note": 68, "velocity": 111, "channel": 0}, {"type": "note_off", "time": 33, "note": 68, "velocity": 111, "channel": 0}, {"type": "note_on", "time": 19, "note": 69, "velocity": 119, "channel": 0}, {"type": "note_off", "time": 17, "note": 69, "velocity": 119, "channel": 0}, {"type": "note_on", "time": 18, "note": 70, "velocity": 108, "channel": 0}, {"type": "note_off", "time": 54, "note": 70, "velocity": 108, "channel": 0}, {"type": "note_on", "time": 7, "note": 66, "velocity": 109, "channel": 0}, {"type": "note_off", "time": 28, "note": 66, "velocity": 109, "channel": 0}, {"type": "note_on", "time": 12, "note": 63, "velocity": 95, "channel": 0}, {"type": "note_off", "time": 47, "note": 63, "velocity": 95, "channel": 0}, {"type": "note_on", "time": 0, "note": 59, "velocity": 99, "channel": 0}, {"type": "note_on", "time": 50, "note": 61, "velocity": 107, "channel": 0}, {"type": "note_off", "time": 0, "note": 59, "velocity": 99, "channel": 0}, {"type": "note_off", "time": 42, "note": 61, "velocity": 107, "channel": 0}, {"type": "note_on", "time": 7, "note": 59, "velocity": 101, "channel": 0}, {"type": "note_off", "time": 31, "note": 59, "velocity": 101, "channel": 0}, {"type": "note_on", "time": 0, "note": 60, "velocity": 102, "channel": 0}, {"type": "note_off", "time": 39, "note": 60, "velocity": 102, "channel": 0}, {"type": "note_on", "time": 200, "note": 55, "velocity": 107, "channel": 0}, {"type": "note_off", "time": 63, "note": 55, "velocity": 107, "channel": 0}, {"type": "note_on", "time": 6, "note": 64, "velocity": 104, "channel": 0}, {"type": "note_off", "time": 55, "note": 64, "velocity": 104, "channel": 0}, {"type": "note_on", "time": 0, "note": 63, "velocity": 101, "channel": 0}, {"type": "note_off", "time": 59, "note": 63, "velocity": 101, "channel": 0}, {"type": "note_on", "time": 0, "note": 64, "velocity": 107, "channel": 0}, {"type": "note_off", "time": 55, "note": 64, "velocity": 107, "channel": 0}, {"type": "note_on", "time": 8, "note": 60, "velocity": 104, "channel": 0}, {"type": "note_off", "time": 58, "note": 60, "velocity": 104, "channel": 0}, {"type": "note_on", "time": 3, "note": 55, "velocity": 99, "channel": 0}, {"type": "note_on", "time": 55, "note": 60, "velocity": 99, "channel": 0}, {"type": "note_off", "time": 0, "note": 55, "velocity": 99, "channel": 0}, {"type": "note_off", "time": 62, "note": 60, "velocity": 99, "channel": 0}, {"type": "note_on", "time": 0, "note": 64, "velocity": 96, "channel": 0}, {"type": "note_off", "time": 70, "note": 64, "velocity": 96, "channel": 0}, {"type": "note_on", "time": 1, "note": 63, "velocity": 98, "channel": 0}, {"type": "note_off", "time": 62, "note": 63, "velocity": 98, "channel": 0}, {"type": "note_on", "time": 0, "note": 64, "velocity": 103, "channel": 0}, {"type": "note_off", "time": 64, "note": 64, "velocity": 103, "channel": 0}, {"type": "note_on", "time": 0, "note": 60, "velocity": 100, "channel": 0}, {"type": "note_off", "time": 56, "note": 60, "velocity": 100, "channel": 0}, {"type": "note_on", "time": 15, "note": 55, "velocity": 100, "channel": 0}, {"type": "note_off", "time": 59, "note": 55, "velocity": 100, "channel": 0}, {"type": "note_on", "time": 0, "note": 60, "velocity": 95, "channel": 0}, {"type": "note_off", "time": 62, "note": 60, "velocity": 95, "channel": 0}, {"type": "note_on", "time": 9, "note": 64, "velocity": 102, "channel": 0}, {"type": "note_off", "time": 66, "note": 64, "velocity": 102, "channel": 0}, {"type": "note_on", "time": 0, "note": 60, "velocity": 96, "channel": 0}, {"type": "note_on", "time": 52, "note": 64, "velocity": 101, "channel": 0}, {"type": "note_off", "time": 0, "note": 60, "velocity": 96, "channel": 0}, {"type": "note_off", "time": 69, "note": 64, "velocity": 101, "channel": 0}, {"type": "note_on", "time": 0, "note": 60, "velocity": 99, "channel": 0}, {"type": "note_on", "time": 55, "note": 55, "velocity": 104, "channel": 0}, {"type": "note_off", "time": 0, "note": 60, "velocity": 99, "channel": 0}, {"type": "note_off", "time": 62, "note": 55, "velocity": 104, "channel": 0}, {"type": "note_on", "time": 0, "note": 53, "velocity": 96, "channel": 0}, {"type": "note_off", "time": 138, "note": 53, "velocity": 96, "channel": 0}, {"type": "note_on", "time": 268, "note": 60, "velocity": 110, "channel": 0}, {"type": "note_off", "time": 50, "note": 60, "velocity": 110, "channel": 0}, {"type": "note_on", "time": 0, "note": 64, "velocity": 103, "channel": 0}, {"type": "note_off", "time": 59, "note": 64, "velocity": 103, "channel": 0}, {"type": "note_on", "time": 21, "note": 60, "velocity": 98, "channel": 0}, {"type": "note_off", "time": 58, "note": 60, "velocity": 98, "channel": 0}, {"type": "note_on", "time": 2, "note": 64, "velocity": 105, "channel": 0}, {"type": "note_off", "time": 61, "note": 64, "velocity": 105, "channel": 0}, {"type": "note_on", "time": 8, "note": 60, "velocity": 111, "channel": 0}, {"type": "note_off", "time": 43, "note": 60, "velocity": 111, "channel": 0}, {"type": "note_on", "time": 0, "note": 64, "velocity": 103, "channel": 0}, {"type": "note_off", "time": 109, "note": 64, "velocity": 103, "channel": 0}, {"type": "note_on", "time": 6, "note": 67, "velocity": 114, "channel": 0}, {"type": "note_off", "time": 124, "note": 67, "velocity": 114, "channel": 0}, {"type": "note_on", "time": 33, "note": 69, "velocity": 114, "channel": 0}, {"type": "note_off", "time": 66, "note": 69, "velocity": 114, "channel": 0}, {"type": "note_on", "time": 0, "note": 71, "velocity": 106, "channel": 0}, {"type": "note_off", "time": 186, "note": 71, "velocity": 106, "channel": 0}, {"type": "note_on", "time": 0, "note": 74, "velocity": 113, "channel": 0}, {"type": "note_off", "time": 40, "note": 74, "velocity": 113, "channel": 0}, {"type": "note_on", "time": 0, "note": 71, "velocity": 98, "channel": 0}, {"type": "note_off", "time": 54, "note": 71, "velocity": 98, "channel": 0}, {"type": "note_on", "time": 5, "note": 72, "velocity": 102, "channel": 0}, {"type": "note_off", "time": 50, "note": 72, "velocity": 102, "channel": 0}, {"type": "note_on", "time": 0, "note": 74, "velocity": 97, "channel": 0}, {"type": "note_off", "time": 40, "note": 74, "velocity": 97, "channel": 0}, {"type": "note_on", "time": 0, "note": 76, "velocity": 109, "channel": 0}, {"type": "note_off", "time": 93, "note": 76, "velocity": 109, "channel": 0}, {"type": "note_on", "time": 21, "note": 72, "velocity": 100, "channel": 0}, {"type": "note_off", "time": 91, "note": 72, "velocity": 100, "channel": 0}, {"type": "note_on", "time": 0, "note": 67, "velocity": 97, "channel": 0}, {"type": "note_off", "time": 135, "note": 67, "velocity": 97, "channel": 0}, {"type": "note_on", "time": 2, "note": 65, "velocity": 105, "channel": 0}, {"type": "note_on", "time": 63, "note": 63, "velocity": 90, "channel": 0}, {"type": "note_off", "time": 0, "note": 65, "velocity": 105, "channel": 0}, {"type": "note_off", "time": 103, "note": 63, "velocity": 90, "channel": 0}, {"type": "note_on", "time": 3, "note": 60, "velocity": 97, "channel": 0}, {"type": "note_off", "time": 78, "note": 60, "velocity": 97, "channel": 0}, {"type": "note_on", "time": 368, "note": 62, "velocity": 102, "channel": 0}, {"type": "note_off", "time": 152, "note": 62, "velocity": 102, "channel": 0}, {"type": "note_on", "time": 1, "note": 60, "velocity": 34, "channel": 0}, {"type": "note_on", "time": 55, "note": 65, "velocity": 102, "channel": 0}, {"type": "note_off", "time": 0, "note": 60, "velocity": 34, "channel": 0}, {"type": "note_off", "time": 176, "note": 65, "velocity": 102, "channel": 0}, {"type": "note_on", "time": 0, "note": 62, "velocity": 98, "channel": 0}, {"type": "note_off", "time": 52, "note": 62, "velocity": 98, "channel": 0}, {"type": "note_on", "time": 0, "note": 63, "velocity": 97, "channel": 0}, {"type": "note_off", "time": 35, "note": 63, "velocity": 97, "channel": 0}, {"type": "note_on", "time": 0, "note": 67, "velocity": 112, "channel": 0}, {"type": "note_off", "time": 36, "note": 67, "velocity": 112, "channel": 0}, {"type": "note_on", "time": 4, "note": 70, "velocity": 116, "channel": 0}, {"type": "note_off", "time": 26, "note": 70, "velocity": 116, "channel": 0}, {"type": "note_on", "time": 0, "note": 74, "velocity": 117, "channel": 0}, {"type": "note_off", "time": 41, "note": 74, "velocity": 117, "channel": 0}, {"type": "note_on", "time": 6, "note": 73, "velocity": 111, "channel": 0}, {"type": "note_off", "time": 59, "note": 73, "velocity": 111, "channel": 0}, {"type": "note_on", "time": 0, "note": 74, "velocity": 112, "channel": 0}, {"type": "note_off", "time": 35, "note": 74, "velocity": 112, "channel": 0}, {"type": "note_on", "time": 2, "note": 73, "velocity": 110, "channel": 0}, {"type": "note_off", "time": 38, "note": 73, "velocity": 110, "channel": 0}, {"type": "note_on", "time": 0, "note": 69, "velocity": 118, "channel": 0}, {"type": "note_off", "time": 47, "note": 69, "velocity": 118, "channel": 0}, {"type": "note_on", "time": 0, "note": 66, "velocity": 117, "channel": 0}, {"type": "note_off", "time": 38, "note": 66, "velocity": 117, "channel": 0}, {"type": "note_on", "time": 12, "note": 65, "velocity": 106, "channel": 0}, {"type": "note_off", "time": 43, "note": 65, "velocity": 106, "channel": 0}, {"type": "note_on", "time": 0, "note": 63, "velocity": 98, "channel": 0}, {"type": "note_off", "time": 43, "note": 63, "velocity": 98, "channel": 0}, {"type": "note_on", "time": 4, "note": 58, "velocity": 102, "channel": 0}, {"type": "note_off", "time": 52, "note": 58, "velocity": 102, "channel": 0}, {"type": "note_on", "time": 0, "note": 62, "velocity": 97, "channel": 0}, {"type": "note_off", "time": 114, "note": 62, "velocity": 97, "channel": 0}, {"type": "note_on", "time": 5, "note": 65, "velocity": 113, "channel": 0}, {"type": "note_off", "time": 57, "note": 65, "velocity": 113, "channel": 0}, {"type": "note_on", "time": 400, "note": 62, "velocity": 115, "channel": 0}, {"type": "note_off", "time": 64, "note": 62, "velocity": 115, "channel": 0}, {"type": "note_on", "time": 2, "note": 60, "velocity": 104, "channel": 0}, {"type": "note_off", "time": 61, "note": 60, "velocity": 104, "channel": 0}, {"type": "note_on", "time": 0, "note": 58, "velocity": 109, "channel": 0}, {"type": "note_off", "time": 45, "note": 58, "velocity": 109, "channel": 0}, {"type": "note_on", "time": 0, "note": 66, "velocity": 115, "channel": 0}, {"type": "note_off", "time": 174, "note": 66, "velocity": 115, "channel": 0}, {"type": "note_on", "time": 20, "note": 64, "velocity": 102, "channel": 0}, {"type": "note_off", "time": 190, "note": 64, "velocity": 102, "channel": 0}, {"type": "note_on", "time": 0, "note": 63, "velocity": 98, "channel": 0}, {"type": "note_off", "time": 183, "note": 63, "velocity": 98, "channel": 0}, {"type": "note_on", "time": 23, "note": 59, "velocity": 106, "channel": 0}, {"type": "note_on", "time": 188, "note": 60, "velocity": 99, "channel": 0}, {"type": "note_off", "time": 0, "note": 59, "velocity": 106, "channel": 0}, {"type": "note_off", "time": 188, "note": 60, "velocity": 99, "channel": 0}, {"type": "note_on", "time": 1, "note": 55, "velocity": 95, "channel": 0}, {"type": "note_off", "time": 124, "note": 55, "velocity": 95, "channel": 0}, {"type": "end_of_track", "time": 0}]]}