{"ticks_per_beat": 192, "tracks": [[{"type": "track_name", "name": "Melody", "time": 0}, {"type": "set_tempo", "tempo": 422535, "time": 0}, {"type": "key_signature", "key": "C", "time": 0}, {"type": "time_signature", "numerator": 4, "denominator": 4, "clocks_per_click": 24, "notated_32nd_notes_per_beat": 8, "time": 0}, {"type": "note_on", "time": 1554, "note": 64, "velocity": 106, "channel": 0}, {"type": "note_off", "time": 46, "note": 64, "velocity": 106, "channel": 0}, {"type": "note_on", "time": 19, "note": 67, "velocity": 113, "channel": 0}, {"type": "note_off", "time": 114, "note": 67, "velocity": 113, "channel": 0}, {"type": "note_on", "time": 31, "note": 62, "velocity": 102, "channel": 0}, {"type": "note_off", "time": 209, "note": 62, "velocity": 102, "channel": 0}, {"type": "note_on", "time": 11, "note": 59, "velocity": 109, "channel": 0}, {"type": "note_off", "time": 31, "note": 59, "velocity": 109, "channel": 0}, {"type": "note_on", "time": 10, "note": 60, "velocity": 103, "channel": 0}, {"type": "note_off", "time": 44, "note": 60, "velocity": 103, "channel": 0}, {"type": "note_on", "time": 11, "note": 62, "velocity": 109, "channel": 0}, {"type": "note_off", "time": 32, "note": 62, "velocity": 109, "channel": 0}, {"type": "note_on", "time": 16, "note": 59, "velocity": 97, "channel": 0}, {"type": "note_off", "time": 33, "note": 59, "velocity": 97, "channel": 0}, {"type": "note_on", "time": 10, "note": 60, "velocity": 103, "channel": 0}, {"type": "note_off", "time": 30, "note": 60, "velocity": 103, "channel": 0}, {"type": "note_on", "time": 5, "note": 62, "velocity": 105, "channel": 0}, {"type": "note_off", "time": 29, "note": 62, "velocity": 105, "channel": 0}, {"type": "note_on", "time": 5, "note": 64, "velocity": 107, "channel": 0}, {"type": "note_off", "time": 28, "note": 64, "velocity": 107, "channel": 0}, {"type": "note_on", "time": 2, "note": 65, "velocity": 117, "channel": 0}, {"type": "note_off", "time": 38, "note": 65, "velocity": 117, "channel": 0}, {"type": "note_on", "time": 8, "note": 67, "velocity": 114, "channel": 0}, {"type": "note_off", "time": 38, "note": 67, "velocity": 114, "channel": 0}, {"type": "note_on", "time": 6, "note": 69, "velocity": 116, "channel": 0}, {"type": "note_off", "time": 47, "note": 69, "velocity": 116, "channel": 0}, {"type": "note_on", "time": 5, "note": 71, "velocity": 103, "channel": 0}, {"type": "note_off", "time": 17, "note": 71, "velocity": 103, "channel": 0}, {"type": "note_on", "time": 2, "note": 72, "velocity": 109, "channel": 0}, {"type": "note_off", "time": 41, "note": 72, "velocity": 109, "channel": 0}, {"type": "note_on", "time": 10, "note": 74, "velocity": 119, "channel": 0}, {"type": "note_off", "time": 319, "note": 74, "velocity": 119, "channel": 0}, {"type": "note_on", "time": 6, "note": 72, "velocity": 116, "channel": 0}, {"type": "note_off", "time": 146, "note": 72, "velocity": 116, "channel": 0}, {"type": "note_on", "time": 4, "note": 71, "velocity": 105, "channel": 0}, {"type": "note_off", "time": 90, "note": 71, "velocity": 105, "channel": 0}, {"type": "note_on", "time": 6, "note": 69, "velocity": 117, "channel": 0}, {"type": "note_off", "time": 136, "note": 69, "velocity": 117, "channel": 0}, {"type": "note_on", "time": 6, "note": 67, "velocity": 111, "channel": 0}, {"type": "note_off", "time": 218, "note": 67, "velocity": 111, "channel": 0}, {"type": "note_on", "time": 2, "note": 65, "velocity": 111, "channel": 0}, {"type": "note_off", "time": 34, "note": 65, "velocity": 111, "channel": 0}, {"type": "note_on", "time": 9, "note": 64, "velocity": 100, "channel": 0}, {"type": "note_off", "time": 77, "note": 64, "velocity": 100, "channel": 0}, {"type": "note_on", "time": 6, "note": 65, "velocity": 109, "channel": 0}, {"type": "note_off", "time": 58, "note": 65, "velocity": 109, "channel": 0}, {"type": "note_on", "time": 40, "note": 69, "velocity": 121, "channel": 0}, {"type": "note_off", "time": 127, "note": 69, "velocity": 121, "channel": 0}, {"type": "note_on", "time": 4, "note": 67, "velocity": 120, "channel": 0}, {"type": "note_off", "time": 49, "note": 67, "velocity": 120, "channel": 0}, {"type": "note_on", "time": 5, "note": 65, "velocity": 112, "channel": 0}, {"type": "note_off", "time": 70, "note": 65, "velocity": 112, "channel": 0}, {"type": "note_on", "time": 9, "note": 64, "velocity": 100, "channel": 0}, {"type": "note_off", "time": 47, "note": 64, "velocity": 100, "channel": 0}, {"type": "note_on", "time": 10, "note": 62, "velocity": 105, "channel": 0}, {"type": "note_off", "time": 278, "note": 62, "velocity": 105, "channel": 0}, {"type": "note_on", "time": 11, "note": 60, "velocity": 102, "channel": 0}, {"type": "note_off", "time": 62, "note": 60, "velocity": 102, "channel": 0}, {"type": "note_on", "time": 8, "note": 59, "velocity": 102, "channel": 0}, {"type": "note_off", "time": 27, "note": 59, "velocity": 102, "channel": 0}, {"type": "note_on", "time": 7, "note": 60, "velocity": 101, "channel": 0}, {"type": "note_off", "time": 37, "note": 60, "velocity": 101, "channel": 0}, {"type": "note_on", "time": 7, "note": 62, "velocity": 111, "channel": 0}, {"type": "note_off", "time": 28, "note": 62, "velocity": 111, "channel": 0}, {"type": "note_on", "time": 20, "note": 57, "velocity": 97, "channel": 0}, {"type": "note_off", "time": 252, "note": 57, "velocity": 97, "channel": 0}, {"type": "note_on", "time": 315, "note": 55, "velocity": 108, "channel": 0}, {"type": "note_off", "time": 88, "note": 55, "velocity": 108, "channel": 0}, {"type": "note_on", "time": 17, "note": 60, "velocity": 108, "channel": 0}, {"type": "note_off", "time": 88, "note": 60, "velocity": 108, "channel": 0}, {"type": "note_on", "time": 6, "note": 64, "velocity": 107, "channel": 0}, {"type": "note_off", "time": 123, "note": 64, "velocity": 107, "channel": 0}, {"type": "note_on", "time": 6, "note": 67, "velocity": 117, "channel": 0}, {"type": "note_off", "time": 156, "note": 67, "velocity": 117, "channel": 0}, {"type": "note_on", "time": 11, "note": 64, "velocity": 105, "channel": 0}, {"type": "note_off", "time": 47, "note": 64, "velocity": 105, "channel": 0}, {"type": "note_on", "time": 27, "note": 65, "velocity": 112, "channel": 0}, {"type": "note_off", "time": 39, "note": 65, "velocity": 112, "channel": 0}, {"type": "note_on", "time": 3, "note": 69, "velocity": 100, "channel": 0}, {"type": "note_off", "time": 35, "note": 69, "velocity": 100, "channel": 0}, {"type": "note_on", "time": 6, "note": 72, "velocity": 101, "channel": 0}, {"type": "note_off", "time": 26, "note": 72, "velocity": 101, "channel": 0}, {"type": "note_on", "time": 2, "note": 76, "velocity": 116, "channel": 0}, {"type": "note_off", "time": 38, "note": 76, "velocity": 116, "channel": 0}, {"type": "note_on", "time": 8, "note": 74, "velocity": 104, "channel": 0}, {"type": "note_off", "time": 323, "note": 74, "velocity": 104, "channel": 0}, {"type": "note_on", "time": 379, "note": 76, "velocity": 115, "channel": 0}, {"type": "note_off", "time": 236, "note": 76, "velocity": 115, "channel": 0}, {"type": "note_on", "time": 27, "note": 74, "velocity": 120, "channel": 0}, {"type": "note_off", "time": 68, "note": 74, "velocity": 120, "channel": 0}, {"type": "note_on", "time": 117, "note": 71, "velocity": 102, "channel": 0}, {"type": "note_off", "time": 162, "note": 71, "velocity": 102, "channel": 0}, {"type": "note_on", "time": 17, "note": 69, "velocity": 115, "channel": 0}, {"type": "note_off", "time": 187, "note": 69, "velocity": 115, "channel": 0}, {"type": "note_on", "time": 13, "note": 67, "velocity": 117, "channel": 0}, {"type": "note_off", "time": 172, "note": 67, "velocity": 117, "channel": 0}, {"type": "note_on", "time": 18, "note": 64, "velocity": 111, "channel": 0}, {"type": "note_off", "time": 185, "note": 64, "velocity": 111, "channel": 0}, {"type": "note_on", "time": 11, "note": 60, "velocity": 104, "channel": 0}, {"type": "note_off", "time": 118, "note": 60, "velocity": 104, "channel": 0}, {"type": "note_on", "time": 9, "note": 62, "velocity": 109, "channel": 0}, {"type": "note_off", "time": 45, "note": 62, "velocity": 109, "channel": 0}, {"type": "note_on", "time": 11, "note": 57, "velocity": 103, "channel": 0}, {"type": "note_off", "time": 181, "note": 57, "velocity": 103, "channel": 0}, {"type": "note_on", "time": 6, "note": 55, "velocity": 108, "channel": 0}, {"type": "note_off", "time": 136, "note": 55, "velocity": 108, "channel": 0}, {"type": "note_on", "time": 3, "note": 62, "velocity": 112, "channel": 0}, {"type": "note_off", "time": 47, "note": 62, "velocity": 112, "channel": 0}, {"type": "note_on", "time": 11, "note": 59, "velocity": 109, "channel": 0}, {"type": "note_off", "time": 38, "note": 59, "velocity": 109, "channel": 0}, {"type": "note_on", "time": 8, "note": 60, "velocity": 100, "channel": 0}, {"type": "note_off", "time": 42, "note": 60, "velocity": 100, "channel": 0}, {"type": "note_on", "time": 11, "note": 62, "velocity": 111, "channel": 0}, {"type": "note_off", "time": 47, "note": 62, "velocity": 111, "channel": 0}, {"type": "note_on", "time": 11, "note": 64, "velocity": 110, "channel": 0}, {"type": "note_off", "time": 38, "note": 64, "velocity": 110, "channel": 0}, {"type": "note_on", "time": 8, "note": 65, "velocity": 116, "channel": 0}, {"type": "note_off", "time": 60, "note": 65, "velocity": 116, "channel": 0}, {"type": "note_on", "time": 337, "note": 59, "velocity": 116, "channel": 0}, {"type": "note_off", "time": 123, "note": 59, "velocity": 116, "channel": 0}, {"type": "note_on", "time": 13, "note": 57, "velocity": 111, "channel": 0}, {"type": "note_off", "time": 43, "note": 57, "velocity": 111, "channel": 0}, {"type": "note_on", "time": 13, "note": 55, "velocity": 108, "channel": 0}, {"type": "note_off", "time": 33, "note": 55, "velocity": 108, "channel": 0}, {"type": "note_on", "time": 3, "note": 57, "velocity": 107, "channel": 0}, {"type": "note_off", "time": 50, "note": 57, "velocity": 107, "channel": 0}, {"type": "note_on", "time": 5, "note": 59, "velocity": 106, "channel": 0}, {"type": "note_off", "time": 41, "note": 59, "velocity": 106, "channel": 0}, {"type": "note_on", "time": 6, "note": 60, "velocity": 99, "channel": 0}, {"type": "note_off", "time": 43, "note": 60, "velocity": 99, "channel": 0}, {"type": "note_on", "time": 7, "note": 62, "velocity": 110, "channel": 0}, {"type": "note_off", "time": 37, "note": 62, "velocity": 110, "channel": 0}, {"type": "note_on", "time": 7, "note": 64, "velocity": 107, "channel": 0}, {"type": "note_off", "time": 30, "note": 64, "velocity": 107, "channel": 0}, {"type": "note_on", "time": 7, "note": 65, "velocity": 110, "channel": 0}, {"type": "note_off", "time": 41, "note": 65, "velocity": 110, "channel": 0}, {"type": "note_on", "time": 7, "note": 67, "velocity": 105, "channel": 0}, {"type": "note_off", "time": 45, "note": 67, "velocity": 105, "channel": 0}, {"type": "note_on", "time": 7, "note": 69, "velocity": 112, "channel": 0}, {"type": "note_off", "time": 34, "note": 69, "velocity": 112, "channel": 0}, {"type": "note_on", "time": 14, "note": 61, "velocity": 93, "channel": 0}, {"type": "note_off", "time": 38, "note": 61, "velocity": 93, "channel": 0}, {"type": "note_on", "time": 8, "note": 62, "velocity": 97, "channel": 0}, {"type": "note_off", "time": 44, "note": 62, "velocity": 97, "channel": 0}, {"type": "note_on", "time": 1, "note": 64, "velocity": 103, "channel": 0}, {"type": "note_off", "time": 25, "note": 64, "velocity": 103, "channel": 0}, {"type": "note_on", "time": 11, "note": 65, "velocity": 114, "channel": 0}, {"type": "note_off", "time": 33, "note": 65, "velocity": 114, "channel": 0}, {"type": "note_on", "time": 12, "note": 67, "velocity": 112, "channel": 0}, {"type": "note_off", "time": 51, "note": 67, "velocity": 112, "channel": 0}, {"type": "note_on", "time": 3, "note": 68, "velocity": 109, "channel": 0}, {"type": "note_off", "time": 26, "note": 68, "velocity": 109, "channel": 0}, {"type": "note_on", "time": 6, "note": 69, "velocity": 103, "channel": 0}, {"type": "note_off", "time": 38, "note": 69, "velocity": 103, "channel": 0}, {"type": "note_on", "time": 9, "note": 72, "velocity": 119, "channel": 0}, {"type": "note_off", "time": 35, "note": 72, "velocity": 119, "channel": 0}, {"type": "note_on", "time": 30, "note": 60, "velocity": 99, "channel": 0}, {"type": "note_off", "time": 23, "note": 60, "velocity": 99, "channel": 0}, {"type": "note_on", "time": 7, "note": 59, "velocity": 95, "channel": 0}, {"type": "note_off", "time": 55, "note": 59, "velocity": 95, "channel": 0}, {"type": "note_on", "time": 6, "note": 60, "velocity": 98, "channel": 0}, {"type": "note_off", "time": 22, "note": 60, "velocity": 98, "channel": 0}, {"type": "note_on", "time": 6, "note": 62, "velocity": 107, "channel": 0}, {"type": "note_off", "time": 30, "note": 62, "velocity": 107, "channel": 0}, {"type": "note_on", "time": 5, "note": 63, "velocity": 106, "channel": 0}, {"type": "note_off", "time": 24, "note": 63, "velocity": 106, "channel": 0}, {"type": "note_on", "time": 4, "note": 65, "velocity": 105, "channel": 0}, {"type": "note_off", "time": 16, "note": 65, "velocity": 105, "channel": 0}, {"type": "note_on", "time": 3, "note": 67, "velocity": 115, "channel": 0}, {"type": "note_off", "time": 31, "note": 67, "velocity": 115, "channel": 0}, {"type": "note_on", "time": 4, "note": 69, "velocity": 109, "channel": 0}, {"type": "note_off", "time": 34, "note": 69, "velocity": 109, "channel": 0}, {"type": "note_on", "time": 6, "note": 72, "velocity": 102, "channel": 0}, {"type": "note_off", "time": 35, "note": 72, "velocity": 102, "channel": 0}, {"type": "note_on", "time": 11, "note": 74, "velocity": 111, "channel": 0}, {"type": "note_off", "time": 35, "note": 74, "velocity": 111, "channel": 0}, {"type": "note_on", "time": 6, "note": 76, "velocity": 111, "channel": 0}, {"type": "note_off", "time": 123, "note": 76, "velocity": 111, "channel": 0}, {"type": "note_on", "time": 10, "note": 79, "velocity": 111, "channel": 0}, {"type": "note_off", "time": 189, "note": 79, "velocity": 111, "channel": 0}, {"type": "note_on", "time": 10, "note": 76, "velocity": 109, "channel": 0}, {"type": "note_off", "time": 27, "note": 76, "velocity": 109, "channel": 0}, {"type": "note_on", "time": 3, "note": 72, "velocity": 109, "channel": 0}, {"type": "note_off", "time": 32, "note": 72, "velocity": 109, "channel": 0}, {"type": "note_on", "time": 7, "note": 69, "velocity": 108, "channel": 0}, {"type": "note_off", "time": 132, "note": 69, "velocity": 108, "channel": 0}, {"type": "note_on", "time": 10, "note": 72, "velocity": 115, "channel": 0}, {"type": "note_off", "time": 115, "note": 72, "velocity": 115, "channel": 0}, {"type": "note_on", "time": 10, "note": 76, "velocity": 119, "channel": 0}, {"type": "note_off", "time": 162, "note": 76, "velocity": 119, "channel": 0}, {"type": "note_on", "time": 8, "note": 72, "velocity": 110, "channel": 0}, {"type": "note_off", "time": 21, "note": 72, "velocity": 110, "channel": 0}, {"type": "note_on", "time": 4, "note": 69, "velocity": 100, "channel": 0}, {"type": "note_off", "time": 18, "note": 69, "velocity": 100, "channel": 0}, {"type": "note_on", "time": 9, "note": 65, "velocity": 107, "channel": 0}, {"type": "note_off", "time": 17, "note": 65, "velocity": 107, "channel": 0}, {"type": "note_on", "time": 13, "note": 62, "velocity": 87, "channel": 0}, {"type": "note_off", "time": 60, "note": 62, "velocity": 87, "channel": 0}, {"type": "note_on", "time": 114, "note": 71, "velocity": 108, "channel": 0}, {"type": "note_off", "time": 97, "note": 71, "velocity": 108, "channel": 0}, {"type": "note_on", "time": 10, "note": 74, "velocity": 118, "channel": 0}, {"type": "note_off", "time": 89, "note": 74, "velocity": 118, "channel": 0}, {"type": "note_on", "time": 11, "note": 71, "velocity": 104, "channel": 0}, {"type": "note_off", "time": 80, "note": 71, "velocity": 104, "channel": 0}, {"type": "note_on", "time": 11, "note": 67, "velocity": 116, "channel": 0}, {"type": "note_off", "time": 67, "note": 67, "velocity": 116, "channel": 0}, {"type": "note_on", "time": 13, "note": 64, "velocity": 96, "channel": 0}, {"type": "note_off", "time": 118, "note": 64, "velocity": 96, "channel": 0}, {"type": "note_on", "time": 18, "note": 60, "velocity": 82, "channel": 0}, {"type": "note_off", "time": 40, "note": 60, "velocity": 82, "channel": 0}, {"type": "note_on", "time": 7, "note": 62, "velocity": 103, "channel": 0}, {"type": "note_off", "time": 119, "note": 62, "velocity": 103, "channel": 0}, {"type": "note_on", "time": 9, "note": 58, "velocity": 101, "channel": 0}, {"type": "note_off", "time": 145, "note": 58, "velocity": 101, "channel": 0}, {"type": "note_on", "time": 120, "note": 60, "velocity": 99, "channel": 0}, {"type": "note_off", "time": 52, "note": 60, "velocity": 99, "channel": 0}, {"type": "note_on", "time": 242, "note": 73, "velocity": 122, "channel": 0}, {"type": "note_off", "time": 343, "note": 73, "velocity": 122, "channel": 0}, {"type": "note_on", "time": 11, "note": 71, "velocity": 104, "channel": 0}, {"type": "note_off", "time": 44, "note": 71, "velocity": 104, "channel": 0}, {"type": "note_on", "time": 6, "note": 73, "velocity": 109, "channel": 0}, {"type": "note_off", "time": 51, "note": 73, "velocity": 109, "channel": 0}, {"type": "note_on", "time": 10, "note": 70, "velocity": 116, "channel": 0}, {"type": "note_off", "time": 104, "note": 70, "velocity": 116, "channel": 0}, {"type": "note_on", "time": 8, "note": 68, "velocity": 116, "channel": 0}, {"type": "note_off", "time": 49, "note": 68, "velocity": 116, "channel": 0}, {"type": "note_on", "time": 7, "note": 70, "velocity": 104, "channel": 0}, {"type": "note_off", "time": 60, "note": 70, "velocity": 104, "channel": 0}, {"type": "note_on", "time": 9, "note": 66, "velocity": 106, "channel": 0}, {"type": "note_off", "time": 201, "note": 66, "velocity": 106, "channel": 0}, {"type": "note_on", "time": 11, "note": 65, "velocity": 111, "channel": 0}, {"type": "note_off", "time": 49, "note": 65, "velocity": 111, "channel": 0}, {"type": "note_on", "time": 13, "note": 66, "velocity": 116, "channel": 0}, {"type": "note_off", "time": 59, "note": 66, "velocity": 116, "channel": 0}, {"type": "note_on", "time": 12, "note": 63, "velocity": 105, "channel": 0}, {"type": "note_off", "time": 277, "note": 63, "velocity": 105, "channel": 0}, {"type": "note_on", "time": 181, "note": 61, "velocity": 104, "channel": 0}, {"type": "note_off", "time": 48, "note": 61, "velocity": 104, "channel": 0}, {"type": "note_on", "time": 24, "note": 63, "velocity": 103, "channel": 0}, {"type": "note_off", "time": 52, "note": 63, "velocity": 103, "channel": 0}, {"type": "note_on", "time": 57, "note": 60, "velocity": 106, "channel": 0}, {"type": "note_off", "time": 141, "note": 60, "velocity": 106, "channel": 0}, {"type": "note_on", "time": 5, "note": 61, "velocity": 106, "channel": 0}, {"type": "note_off", "time": 63, "note": 61, "velocity": 106, "channel": 0}, {"type": "note_on", "time": 45, "note": 58, "velocity": 110, "channel": 0}, {"type": "note_off", "time": 79, "note": 58, "velocity": 110, "channel": 0}, {"type": "note_on", "time": 10, "note": 60, "velocity": 101, "channel": 0}, {"type": "note_off", "time": 38, "note": 60, "velocity": 101, "channel": 0}, {"type": "note_on", "time": 9, "note": 56, "velocity": 109, "channel": 0}, {"type": "note_off", "time": 216, "note": 56, "velocity": 109, "channel": 0}, {"type": "note_on", "time": 4, "note": 58, "velocity": 107, "channel": 0}, {"type": "note_off", "time": 44, "note": 58, "velocity": 107, "channel": 0}, {"type": "note_on", "time": 4, "note": 60, "velocity": 108, "channel": 0}, {"type": "note_off", "time": 45, "note": 60, "velocity": 108, "channel": 0}, {"type": "note_on", "time": 3, "note": 61, "velocity": 107, "channel": 0}, {"type": "note_off", "time": 45, "note": 61, "velocity": 107, "channel": 0}, {"type": "note_on", "time": 16, "note": 63, "velocity": 108, "channel": 0}, {"type": "note_off", "time": 32, "note": 63, "velocity": 108, "channel": 0}, {"type": "note_on", "time": 10, "note": 65, "velocity": 111, "channel": 0}, {"type": "note_off", "time": 34, "note": 65, "velocity": 111, "channel": 0}, {"type": "note_on", "time": 4, "note": 66, "velocity": 107, "channel": 0}, {"type": "note_off", "time": 37, "note": 66, "velocity": 107, "channel": 0}, {"type": "note_on", "time": 9, "note": 68, "velocity": 114, "channel": 0}, {"type": "note_off", "time": 51, "note": 68, "velocity": 114, "channel": 0}, {"type": "note_on", "time": 3, "note": 70, "velocity": 111, "channel": 0}, {"type": "note_off", "time": 34, "note": 70, "velocity": 111, "channel": 0}, {"type": "note_on", "time": 4, "note": 72, "velocity": 102, "channel": 0}, {"type": "note_off", "time": 40, "note": 72, "velocity": 102, "channel": 0}, {"type": "note_on", "time": 6, "note": 73, "velocity": 116, "channel": 0}, {"type": "note_off", "time": 41, "note": 73, "velocity": 116, "channel": 0}, {"type": "note_on", "time": 10, "note": 77, "velocity": 105, "channel": 0}, {"type": "note_off", "time": 87, "note": 77, "velocity": 105, "channel": 0}, {"type": "note_on", "time": 5, "note": 80, "velocity": 107, "channel": 0}, {"type": "note_off", "time": 187, "note": 80, "velocity": 107, "channel": 0}, {"type": "note_on", "time": 170, "note": 77, "velocity": 117, "channel": 0}, {"type": "note_off", "time": 60, "note": 77, "velocity": 117, "channel": 0}, {"type": "note_on", "time": 3, "note": 78, "velocity": 108, "channel": 0}, {"type": "note_off", "time": 71, "note": 78, "velocity": 108, "channel": 0}, {"type": "note_on", "time": 7, "note": 77, "velocity": 113, "channel": 0}, {"type": "note_off", "time": 21, "note": 77, "velocity": 113, "channel": 0}, {"type": "note_on", "time": 1, "note": 75, "velocity": 113, "channel": 0}, {"type": "note_off", "time": 40, "note": 75, "velocity": 113, "channel": 0}, {"type": "note_on", "time": 3, "note": 74, "velocity": 115, "channel": 0}, {"type": "note_off", "time": 64, "note": 74, "velocity": 115, "channel": 0}, {"type": "note_on", "time": 230, "note": 73, "velocity": 116, "channel": 0}, {"type": "note_off", "time": 114, "note": 73, "velocity": 116, "channel": 0}, {"type": "note_on", "time": 34, "note": 70, "velocity": 113, "channel": 0}, {"type": "note_off", "time": 84, "note": 70, "velocity": 113, "channel": 0}, {"type": "note_on", "time": 30, "note": 66, "velocity": 108, "channel": 0}, {"type": "note_off", "time": 64, "note": 66, "velocity": 108, "channel": 0}, {"type": "note_on", "time": 9, "note": 63, "velocity": 103, "channel": 0}, {"type": "note_off", "time": 59, "note": 63, "velocity": 103, "channel": 0}, {"type": "note_on", "time": 42, "note": 72, "velocity": 122, "channel": 0}, {"type": "note_off", "time": 54, "note": 72, "velocity": 122, "channel": 0}, {"type": "note_on", "time": 11, "note": 68, "velocity": 117, "channel": 0}, {"type": "note_off", "time": 51, "note": 68, "velocity": 117, "channel": 0}, {"type": "note_on", "time": 6, "note": 65, "velocity": 110, "channel": 0}, {"type": "note_off", "time": 37, "note": 65, "velocity": 110, "channel": 0}, {"type": "note_on", "time": 9, "note": 61, "velocity": 96, "channel": 0}, {"type": "note_off", "time": 47, "note": 61, "velocity": 96, "channel": 0}, {"type": "note_on", "time": 5, "note": 58, "velocity": 90, "channel": 0}, {"type": "note_off", "time": 18, "note": 58, "velocity": 90, "channel": 0}, {"type": "note_on", "time": 29, "note": 70, "velocity": 119, "channel": 0}, {"type": "note_off", "time": 110, "note": 70, "velocity": 119, "channel": 0}, {"type": "note_on", "time": 6, "note": 66, "velocity": 116, "channel": 0}, {"type": "note_off", "time": 39, "note": 66, "velocity": 116, "channel": 0}, {"type": "note_on", "time": 20, "note": 63, "velocity": 105, "channel": 0}, {"type": "note_off", "time": 55, "note": 63, "velocity": 105, "channel": 0}, {"type": "note_on", "time": 11, "note": 58, "velocity": 102, "channel": 0}, {"type": "note_off", "time": 34, "note": 58, "velocity": 102, "channel": 0}, {"type": "note_on", "time": 10, "note": 61, "velocity": 109, "channel": 0}, {"type": "note_off", "time": 43, "note": 61, "velocity": 109, "channel": 0}, {"type": "note_on", "time": 9, "note": 59, "velocity": 97, "channel": 0}, {"type": "note_off", "time": 43, "note": 59, "velocity": 97, "channel": 0}, {"type": "note_on", "time": 7, "note": 60, "velocity": 93, "channel": 0}, {"type": "note_off", "time": 57, "note": 60, "velocity": 93, "channel": 0}, {"type": "note_on", "time": 9, "note": 68, "velocity": 123, "channel": 0}, {"type": "note_off", "time": 67, "note": 68, "velocity": 123, "channel": 0}, {"type": "note_on", "time": 27, "note": 65, "velocity": 110, "channel": 0}, {"type": "note_off", "time": 48, "note": 65, "velocity": 110, "channel": 0}, {"type": "note_on", "time": 8, "note": 66, "velocity": 94, "channel": 0}, {"type": "note_off", "time": 34, "note": 66, "velocity": 94, "channel": 0}, {"type": "note_on", "time": 11, "note": 70, "velocity": 118, "channel": 0}, {"type": "note_off", "time": 81, "note": 70, "velocity": 118, "channel": 0}, {"type": "note_on", "time": 296, "note": 72, "velocity": 125, "channel": 0}, {"type": "note_off", "time": 54, "note": 72, "velocity": 125, "channel": 0}, {"type": "note_on", "time": 35, "note": 73, "velocity": 116, "channel": 0}, {"type": "note_off", "time": 89, "note": 73, "velocity": 116, "channel": 0}, {"type": "note_on", "time": 5, "note": 73, "velocity": 115, "channel": 0}, {"type": "note_off", "time": 57, "note": 73, "velocity": 115, "channel": 0}, {"type": "note_on", "time": 18, "note": 77, "velocity": 114, "channel": 0}, {"type": "note_off", "time": 99, "note": 77, "velocity": 114, "channel": 0}, {"type": "note_on", "time": 10, "note": 77, "velocity": 113, "channel": 0}, {"type": "note_off", "time": 58, "note": 77, "velocity": 113, "channel": 0}, {"type": "note_on", "time": 8, "note": 70, "velocity": 114, "channel": 0}, {"type": "note_off", "time": 109, "note": 70, "velocity": 114, "channel": 0}, {"type": "note_on", "time": 6, "note": 70, "velocity": 118, "channel": 0}, {"type": "note_off", "time": 60, "note": 70, "velocity": 118, "channel": 0}, {"type": "note_on", "time": 24, "note": 73, "velocity": 113, "channel": 0}, {"type": "note_off", "time": 94, "note": 73, "velocity": 113, "channel": 0}, {"type": "note_on", "time": 11, "note": 73, "velocity": 114, "channel": 0}, {"type": "note_off", "time": 63, "note": 73, "velocity": 114, "channel": 0}, {"type": "note_on", "time": 23, "note": 74, "velocity": 115, "channel": 0}, {"type": "note_off", "time": 104, "note": 74, "velocity": 115, "channel": 0}, {"type": "note_on", "time": 9, "note": 74, "velocity": 117, "channel": 0}, {"type": "note_off", "time": 57, "note": 74, "velocity": 117, "channel": 0}, {"type": "note_on", "time": 23, "note": 71, "velocity": 87, "channel": 0}, {"type": "note_off", "time": 98, "note": 71, "velocity": 87, "channel": 0}, {"type": "note_on", "time": 10, "note": 71, "velocity": 109, "channel": 0}, {"type": "note_off", "time": 63, "note": 71, "velocity": 109, "channel": 0}, {"type": "note_on", "time": 8, "note": 67, "velocity": 103, "channel": 0}, {"type": "note_off", "time": 113, "note": 67, "velocity": 103, "channel": 0}, {"type": "note_on", "time": 5, "note": 67, "velocity": 116, "channel": 0}, {"type": "note_off", "time": 54, "note": 67, "velocity": 116, "channel": 0}, {"type": "note_on", "time": 30, "note": 64, "velocity": 103, "channel": 0}, {"type": "note_off", "time": 129, "note": 64, "velocity": 103, "channel": 0}, {"type": "note_on", "time": 43, "note": 65, "velocity": 107, "channel": 0}, {"type": "note_off", "time": 182, "note": 65, "velocity": 107, "channel": 0}, {"type": "note_on", "time": 5, "note": 64, "velocity": 107, "channel": 0}, {"type": "note_off", "time": 127, "note": 64, "velocity": 107, "channel": 0}, {"type": "note_on", "time": 19, "note": 62, "velocity": 85, "channel": 0}, {"type": "note_off", "time": 51, "note": 62, "velocity": 85, "channel": 0}, {"type": "note_on", "time": 10, "note": 65, "velocity": 112, "channel": 0}, {"type": "note_off", "time": 181, "note": 65, "velocity": 112, "channel": 0}, {"type": "note_on", "time": 6, "note": 64, "velocity": 105, "channel": 0}, {"type": "note_off", "time": 139, "note": 64, "velocity": 105, "channel": 0}, {"type": "note_on", "time": 11, "note": 55, "velocity": 96, "channel": 0}, {"type": "note_off", "time": 226, "note": 55, "velocity": 96, "channel": 0}, {"type": "note_on", "time": 273, "note": 55, "velocity": 112, "channel": 0}, {"type": "note_off", "time": 109, "note": 55, "velocity": 112, "channel": 0}, {"type": "note_on", "time": 24, "note": 59, "velocity": 104, "channel": 0}, {"type": "note_off", "time": 131, "note": 59, "velocity": 104, "channel": 0}, {"type": "note_on", "time": 8, "note": 62, "velocity": 115, "channel": 0}, {"type": "note_off", "time": 105, "note": 62, "velocity": 115, "channel": 0}, {"type": "note_on", "time": 5, "note": 65, "velocity": 120, "channel": 0}, {"type": "note_off", "time": 133, "note": 65, "velocity": 120, "channel": 0}, {"type": "note_on", "time": 10, "note": 64, "velocity": 110, "channel": 0}, {"type": "note_off", "time": 173, "note": 64, "velocity": 110, "channel": 0}, {"type": "note_on", "time": 13, "note": 65, "velocity": 114, "channel": 0}, {"type": "note_off", "time": 57, "note": 65, "velocity": 114, "channel": 0}, {"type": "note_on", "time": 2, "note": 69, "velocity": 108, "channel": 0}, {"type": "note_off", "time": 32, "note": 69, "velocity": 108, "channel": 0}, {"type": "note_on", "time": 1, "note": 72, "velocity": 108, "channel": 0}, {"type": "note_off", "time": 35, "note": 72, "velocity": 108, "channel": 0}, {"type": "note_on", "time": 7, "note": 76, "velocity": 121, "channel": 0}, {"type": "note_off", "time": 158, "note": 76, "velocity": 121, "channel": 0}, {"type": "note_on", "time": 4, "note": 79, "velocity": 113, "channel": 0}, {"type": "note_off", "time": 241, "note": 79, "velocity": 113, "channel": 0}, {"type": "note_on", "time": 6, "note": 76, "velocity": 111, "channel": 0}, {"type": "note_off", "time": 56, "note": 76, "velocity": 111, "channel": 0}, {"type": "note_on", "time": 4, "note": 77, "velocity": 102, "channel": 0}, {"type": "note_off", "time": 31, "note": 77, "velocity": 102, "channel": 0}, {"type": "note_on", "time": 5, "note": 73, "velocity": 106, "channel": 0}, {"type": "note_off", "time": 87, "note": 73, "velocity": 106, "channel": 0}, {"type": "note_on", "time": 197, "note": 76, "velocity": 116, "channel": 0}, {"type": "note_off", "time": 66, "note": 76, "velocity": 116, "channel": 0}, {"type": "note_on", "time": 9, "note": 74, "velocity": 119, "channel": 0}, {"type": "note_off", "time": 95, "note": 74, "velocity": 119, "channel": 0}, {"type": "note_on", "time": 9, "note": 69, "velocity": 110, "channel": 0}, {"type": "note_off", "time": 111, "note": 69, "velocity": 110, "channel": 0}, {"type": "note_on", "time": 89, "note": 72, "velocity": 121, "channel": 0}, {"type": "note_off", "time": 38, "note": 72, "velocity": 121, "channel": 0}, {"type": "note_on", "time": 8, "note": 74, "velocity": 116, "channel": 0}, {"type": "note_off", "time": 18, "note": 74, "velocity": 116, "channel": 0}, {"type": "note_on", "time": 9, "note": 72, "velocity": 108, "channel": 0}, {"type": "note_off", "time": 13, "note": 72, "velocity": 108, "channel": 0}, {"type": "note_on", "time": 7, "note": 69, "velocity": 116, "channel": 0}, {"type": "note_off", "time": 48, "note": 69, "velocity": 116, "channel": 0}, {"type": "note_on", "time": 12, "note": 65, "velocity": 109, "channel": 0}, {"type": "note_off", "time": 27, "note": 65, "velocity": 109, "channel": 0}, {"type": "note_on", "time": 5, "note": 62, "velocity": 98, "channel": 0}, {"type": "note_off", "time": 39, "note": 62, "velocity": 98, "channel": 0}, {"type": "note_on", "time": 13, "note": 65, "velocity": 92, "channel": 0}, {"type": "note_off", "time": 37, "note": 65, "velocity": 92, "channel": 0}, {"type": "note_on", "time": 15, "note": 69, "velocity": 101, "channel": 0}, {"type": "note_off", "time": 26, "note": 69, "velocity": 101, "channel": 0}, {"type": "note_on", "time": 12, "note": 72, "velocity": 94, "channel": 0}, {"type": "note_off", "time": 30, "note": 72, "velocity": 94, "channel": 0}, {"type": "note_on", "time": 9, "note": 76, "velocity": 118, "channel": 0}, {"type": "note_off", "time": 60, "note": 76, "velocity": 118, "channel": 0}, {"type": "note_on", "time": 11, "note": 74, "velocity": 114, "channel": 0}, {"type": "note_off", "time": 44, "note": 74, "velocity": 114, "channel": 0}, {"type": "note_on", "time": 261, "note": 72, "velocity": 122, "channel": 0}, {"type": "note_off", "time": 67, "note": 72, "velocity": 122, "channel": 0}, {"type": "note_on", "time": 7, "note": 69, "velocity": 117, "channel": 0}, {"type": "note_off", "time": 55, "note": 69, "velocity": 117, "channel": 0}, {"type": "note_on", "time": 79, "note": 67, "velocity": 106, "channel": 0}, {"type": "note_off", "time": 55, "note": 67, "velocity": 106, "channel": 0}, {"type": "note_on", "time": 16, "note": 65, "velocity": 100, "channel": 0}, {"type": "note_off", "time": 55, "note": 65, "velocity": 100, "channel": 0}, {"type": "note_on", "time": 60, "note": 60, "velocity": 98, "channel": 0}, {"type": "note_off", "time": 44, "note": 60, "velocity": 98, "channel": 0}, {"type": "note_on", "time": 19, "note": 57, "velocity": 98, "channel": 0}, {"type": "note_off", "time": 60, "note": 57, "velocity": 98, "channel": 0}, {"type": "note_on", "time": 79, "note": 64, "velocity": 104, "channel": 0}, {"type": "note_off", "time": 61, "note": 64, "velocity": 104, "channel": 0}, {"type": "note_on", "time": 12, "note": 62, "velocity": 105, "channel": 0}, {"type": "note_off", "time": 60, "note": 62, "velocity": 105, "channel": 0}, {"type": "note_on", "time": 429, "note": 64, "velocity": 110, "channel": 0}, {"type": "note_off", "time": 107, "note": 64, "velocity": 110, "channel": 0}, {"type": "note_on", "time": 52, "note": 65, "velocity": 110, "channel": 0}, {"type": "note_off", "time": 185, "note": 65, "velocity": 110, "channel": 0}, {"type": "note_on", "time": 13, "note": 64, "velocity": 110, "channel": 0}, {"type": "note_off", "time": 96, "note": 64, "velocity": 110, "channel": 0}, {"type": "note_on", "time": 89, "note": 55, "velocity": 106, "channel": 0}, {"type": "note_off", "time": 137, "note": 55, "velocity": 106, "channel": 0}, {"type": "note_on", "time": 5, "note": 55, "velocity": 110, "channel": 0}, {"type": "note_off", "time": 57, "note": 55, "velocity": 110, "channel": 0}, {"type": "note_on", "time": 769, "note": 62, "velocity": 109, "channel": 0}, {"type": "note_off", "time": 149, "note": 62, "velocity": 109, "channel": 0}, {"type": "note_on", "time": 46, "note": 65, "velocity": 112, "channel": 0}, {"type": "note_off", "time": 186, "note": 65, "velocity": 112, "channel": 0}, {"type": "note_on", "time": 10, "note": 69, "velocity": 123, "channel": 0}, {"type": "note_off", "time": 117, "note": 69, "velocity": 123, "channel": 0}, {"type": "note_on", "time": 20, "note": 64, "velocity": 106, "channel": 0}, {"type": "note_off", "time": 51, "note": 64, "velocity": 106, "channel": 0}, {"type": "note_on", "time": 8, "note": 72, "velocity": 125, "channel": 0}, {"type": "note_off", "time": 142, "note": 72, "velocity": 125, "channel": 0}, {"type": "note_on", "time": 1, "note": 69, "velocity": 114, "channel": 0}, {"type": "note_off", "time": 86, "note": 69, "velocity": 114, "channel": 0}, {"type": "note_on", "time": 347, "note": 59, "velocity": 116, "channel": 0}, {"type": "note_off", "time": 53, "note": 59, "velocity": 116, "channel": 0}, {"type": "note_on", "time": 7, "note": 60, "velocity": 102, "channel": 0}, {"type": "note_off", "time": 44, "note": 60, "velocity": 102, "channel": 0}, {"type": "note_on", "time": 10, "note": 62, "velocity": 103, "channel": 0}, {"type": "note_off", "time": 39, "note": 62, "velocity": 103, "channel": 0}, {"type": "note_on", "time": 9, "note": 64, "velocity": 102, "channel": 0}, {"type": "note_off", "time": 31, "note": 64, "velocity": 102, "channel": 0}, {"type": "note_on", "time": 4, "note": 65, "velocity": 111, "channel": 0}, {"type": "note_off", "time": 41, "note": 65, "velocity": 111, "channel": 0}, {"type": "note_on", "time": 7, "note": 67, "velocity": 113, "channel": 0}, {"type": "note_off", "time": 50, "note": 67, "velocity": 113, "channel": 0}, {"type": "note_on", "time": 5, "note": 69, "velocity": 108, "channel": 0}, {"type": "note_off", "time": 53, "note": 69, "velocity": 108, "channel": 0}, {"type": "note_on", "time": 8, "note": 71, "velocity": 96, "channel": 0}, {"type": "note_off", "time": 27, "note": 71, "velocity": 96, "channel": 0}, {"type": "note_on", "time": 5, "note": 72, "velocity": 124, "channel": 0}, {"type": "note_off", "time": 163, "note": 72, "velocity": 124, "channel": 0}, {"type": "note_on", "time": 11, "note": 74, "velocity": 127, "channel": 0}, {"type": "note_off", "time": 154, "note": 74, "velocity": 127, "channel": 0}, {"type": "note_on", "time": 11, "note": 72, "velocity": 121, "channel": 0}, {"type": "note_off", "time": 33, "note": 72, "velocity": 121, "channel": 0}, {"type": "note_on", "time": 7, "note": 71, "velocity": 108, "channel": 0}, {"type": "note_off", "time": 49, "note": 71, "velocity": 108, "channel": 0}, {"type": "note_on", "time": 10, "note": 69, "velocity": 113, "channel": 0}, {"type": "note_off", "time": 67, "note": 69, "velocity": 113, "channel": 0}, {"type": "note_on", "time": 4, "note": 67, "velocity": 104, "channel": 0}, {"type": "note_off", "time": 309, "note": 67, "velocity": 104, "channel": 0}, {"type": "note_on", "time": 10, "note": 66, "velocity": 108, "channel": 0}, {"type": "note_off", "time": 56, "note": 66, "velocity": 108, "channel": 0}, {"type": "note_on", "time": 7, "note": 67, "velocity": 114, "channel": 0}, {"type": "note_off", "time": 81, "note": 67, "velocity": 114, "channel": 0}, {"type": "note_on", "time": 17, "note": 69, "velocity": 123, "channel": 0}, {"type": "note_off", "time": 68, "note": 69, "velocity": 123, "channel": 0}, {"type": "note_on", "time": 8, "note": 67, "velocity": 122, "channel": 0}, {"type": "note_off", "time": 62, "note": 67, "velocity": 122, "channel": 0}, {"type": "note_on", "time": 11, "note": 65, "velocity": 112, "channel": 0}, {"type": "note_off", "time": 56, "note": 65, "velocity": 112, "channel": 0}, {"type": "note_on", "time": 7, "note": 64, "velocity": 106, "channel": 0}, {"type": "note_off", "time": 65, "note": 64, "velocity": 106, "channel": 0}, {"type": "note_on", "time": 6, "note": 62, "velocity": 111, "channel": 0}, {"type": "note_off", "time": 77, "note": 62, "velocity": 111, "channel": 0}, {"type": "note_on", "time": 16, "note": 64, "velocity": 99, "channel": 0}, {"type": "note_off", "time": 20, "note": 64, "velocity": 99, "channel": 0}, {"type": "note_on", "time": 9, "note": 62, "velocity": 101, "channel": 0}, {"type": "note_off", "time": 21, "note": 62, "velocity": 101, "channel": 0}, {"type": "note_on", "time": 8, "note": 61, "velocity": 99, "channel": 0}, {"type": "note_off", "time": 41, "note": 61, "velocity": 99, "channel": 0}, {"type": "note_on", "time": 10, "note": 62, "velocity": 100, "channel": 0}, {"type": "note_off", "time": 47, "note": 62, "velocity": 100, "channel": 0}, {"type": "note_on", "time": 13, "note": 64, "velocity": 114, "channel": 0}, {"type": "note_off", "time": 45, "note": 64, "velocity": 114, "channel": 0}, {"type": "note_on", "time": 11, "note": 61, "velocity": 104, "channel": 0}, {"type": "note_off", "time": 37, "note": 61, "velocity": 104, "channel": 0}, {"type": "note_on", "time": 7, "note": 62, "velocity": 102, "channel": 0}, {"type": "note_off", "time": 44, "note": 62, "velocity": 102, "channel": 0}, {"type": "note_on", "time": 9, "note": 64, "velocity": 100, "channel": 0}, {"type": "note_off", "time": 31, "note": 64, "velocity": 100, "channel": 0}, {"type": "note_on", "time": 6, "note": 65, "velocity": 111, "channel": 0}, {"type": "note_off", "time": 29, "note": 65, "velocity": 111, "channel": 0}, {"type": "note_on", "time": 114, "note": 59, "velocity": 94, "channel": 0}, {"type": "note_off", "time": 33, "note": 59, "velocity": 94, "channel": 0}, {"type": "note_on", "time": 20, "note": 64, "velocity": 115, "channel": 0}, {"type": "note_off", "time": 27, "note": 64, "velocity": 115, "channel": 0}, {"type": "note_on", "time": 11, "note": 62, "velocity": 105, "channel": 0}, {"type": "note_off", "time": 38, "note": 62, "velocity": 105, "channel": 0}, {"type": "note_on", "time": 10, "note": 59, "velocity": 105, "channel": 0}, {"type": "note_off", "time": 48, "note": 59, "velocity": 105, "channel": 0}, {"type": "note_on", "time": 11, "note": 57, "velocity": 107, "channel": 0}, {"type": "note_off", "time": 36, "note": 57, "velocity": 107, "channel": 0}, {"type": "note_on", "time": 13, "note": 55, "velocity": 104, "channel": 0}, {"type": "note_off", "time": 33, "note": 55, "velocity": 104, "channel": 0}, {"type": "note_on", "time": 8, "note": 54, "velocity": 98, "channel": 0}, {"type": "note_off", "time": 31, "note": 54, "velocity": 98, "channel": 0}, {"type": "note_on", "time": 9, "note": 53, "velocity": 89, "channel": 0}, {"type": "note_off", "time": 28, "note": 53, "velocity": 89, "channel": 0}, {"type": "note_on", "time": 7, "note": 52, "velocity": 99, "channel": 0}, {"type": "note_off", "time": 27, "note": 52, "velocity": 99, "channel": 0}, {"type": "note_on", "time": 6, "note": 64, "velocity": 93, "channel": 0}, {"type": "note_off", "time": 180, "note": 64, "velocity": 93, "channel": 0}, {"type": "note_on", "time": 732, "note": 72, "velocity": 123, "channel": 0}, {"type": "note_off", "time": 224, "note": 72, "velocity": 123, "channel": 0}, {"type": "note_on", "time": 27, "note": 76, "velocity": 119, "channel": 0}, {"type": "note_off", "time": 102, "note": 76, "velocity": 119, "channel": 0}, {"type": "note_on", "time": 93, "note": 76, "velocity": 118, "channel": 0}, {"type": "note_off", "time": 117, "note": 76, "velocity": 118, "channel": 0}, {"type": "note_on", "time": 10, "note": 72, "velocity": 116, "channel": 0}, {"type": "note_off", "time": 61, "note": 72, "velocity": 116, "channel": 0}, {"type": "note_on", "time": 11, "note": 72, "velocity": 114, "channel": 0}, {"type": "note_off", "time": 66, "note": 72, "velocity": 114, "channel": 0}, {"type": "note_on", "time": 119, "note": 72, "velocity": 117, "channel": 0}, {"type": "note_off", "time": 112, "note": 72, "velocity": 117, "channel": 0}, {"type": "note_on", "time": 79, "note": 72, "velocity": 114, "channel": 0}, {"type": "note_off", "time": 104, "note": 72, "velocity": 114, "channel": 0}, {"type": "note_on", "time": 82, "note": 72, "velocity": 113, "channel": 0}, {"type": "note_off", "time": 113, "note": 72, "velocity": 113, "channel": 0}, {"type": "note_on", "time": 15, "note": 69, "velocity": 95, "channel": 0}, {"type": "note_off", "time": 55, "note": 69, "velocity": 95, "channel": 0}, {"type": "note_on", "time": 20, "note": 69, "velocity": 106, "channel": 0}, {"type": "note_off", "time": 109, "note": 69, "velocity": 106, "channel": 0}, {"type": "note_on", "time": 85, "note": 69, "velocity": 102, "channel": 0}, {"type": "note_off", "time": 101, "note": 69, "velocity": 102, "channel": 0}, {"type": "note_on", "time": 80, "note": 69, "velocity": 107, "channel": 0}, {"type": "note_off", "time": 100, "note": 69, "velocity": 107, "channel": 0}, {"type": "note_on", "time": 96, "note": 69, "velocity": 110, "channel": 0}, {"type": "note_off", "time": 118, "note": 69, "velocity": 110, "channel": 0}, {"type": "note_on", "time": 9, "note": 64, "velocity": 102, "channel": 0}, {"type": "note_off", "time": 59, "note": 64, "velocity": 102, "channel": 0}, {"type": "note_on", "time": 14, "note": 64, "velocity": 85, "channel": 0}, {"type": "note_off", "time": 176, "note": 64, "velocity": 85, "channel": 0}, {"type": "note_on", "time": 19, "note": 64, "velocity": 97, "channel": 0}, {"type": "note_off", "time": 156, "note": 64, "velocity": 97, "channel": 0}, {"type": "note_on", "time": 12, "note": 64, "velocity": 107, "channel": 0}, {"type": "note_off", "time": 57, "note": 64, "velocity": 107, "channel": 0}, {"type": "note_on", "time": 113, "note": 64, "velocity": 109, "channel": 0}, {"type": "note_off", "time": 35, "note": 64, "velocity": 109, "channel": 0}, {"type": "note_on", "time": 341, "note": 69, "velocity": 115, "channel": 0}, {"type": "note_off", "time": 91, "note": 69, "velocity": 115, "channel": 0}, {"type": "note_on", "time": 72, "note": 72, "velocity": 119, "channel": 0}, {"type": "note_off", "time": 62, "note": 72, "velocity": 119, "channel": 0}, {"type": "note_on", "time": 39, "note": 76, "velocity": 117, "channel": 0}, {"type": "note_off", "time": 99, "note": 76, "velocity": 117, "channel": 0}, {"type": "note_on", "time": 13, "note": 79, "velocity": 125, "channel": 0}, {"type": "note_off", "time": 71, "note": 79, "velocity": 125, "channel": 0}, {"type": "note_on", "time": 8, "note": 78, "velocity": 115, "channel": 0}, {"type": "note_off", "time": 19, "note": 78, "velocity": 115, "channel": 0}, {"type": "note_on", "time": 7, "note": 77, "velocity": 115, "channel": 0}, {"type": "note_off", "time": 21, "note": 77, "velocity": 115, "channel": 0}, {"type": "note_on", "time": 5, "note": 76, "velocity": 117, "channel": 0}, {"type": "note_off", "time": 33, "note": 76, "velocity": 117, "channel": 0}, {"type": "note_on", "time": 7, "note": 77, "velocity": 114, "channel": 0}, {"type": "note_off", "time": 30, "note": 77, "velocity": 114, "channel": 0}, {"type": "note_on", "time": 6, "note": 76, "velocity": 115, "channel": 0}, {"type": "note_off", "time": 26, "note": 76, "velocity": 115, "channel": 0}, {"type": "note_on", "time": 7, "note": 75, "velocity": 107, "channel": 0}, {"type": "note_off", "time": 19, "note": 75, "velocity": 107, "channel": 0}, {"type": "note_on", "time": 7, "note": 74, "velocity": 112, "channel": 0}, {"type": "note_off", "time": 23, "note": 74, "velocity": 112, "channel": 0}, {"type": "note_on", "time": 67, "note": 76, "velocity": 115, "channel": 0}, {"type": "note_off", "time": 55, "note": 76, "velocity": 115, "channel": 0}, {"type": "note_on", "time": 4, "note": 75, "velocity": 108, "channel": 0}, {"type": "note_off", "time": 30, "note": 75, "velocity": 108, "channel": 0}, {"type": "note_on", "time": 10, "note": 74, "velocity": 105, "channel": 0}, {"type": "note_off", "time": 20, "note": 74, "velocity": 105, "channel": 0}, {"type": "note_on", "time": 7, "note": 72, "velocity": 82, "channel": 0}, {"type": "note_off", "time": 42, "note": 72, "velocity": 82, "channel": 0}, {"type": "note_on", "time": 75, "note": 74, "velocity": 123, "channel": 0}, {"type": "note_off", "time": 148, "note": 74, "velocity": 123, "channel": 0}, {"type": "note_on", "time": 17, "note": 72, "velocity": 112, "channel": 0}, {"type": "note_off", "time": 25, "note": 72, "velocity": 112, "channel": 0}, {"type": "note_on", "time": 10, "note": 71, "velocity": 109, "channel": 0}, {"type": "note_off", "time": 42, "note": 71, "velocity": 109, "channel": 0}, {"type": "note_on", "time": 7, "note": 69, "velocity": 115, "channel": 0}, {"type": "note_off", "time": 37, "note": 69, "velocity": 115, "channel": 0}, {"type": "note_on", "time": 6, "note": 67, "velocity": 115, "channel": 0}, {"type": "note_off", "time": 64, "note": 67, "velocity": 115, "channel": 0}, {"type": "note_on", "time": 312, "note": 69, "velocity": 117, "channel": 0}, {"type": "note_off", "time": 47, "note": 69, "velocity": 117, "channel": 0}, {"type": "note_on", "time": 20, "note": 65, "velocity": 118, "channel": 0}, {"type": "note_off", "time": 36, "note": 65, "velocity": 118, "channel": 0}, {"type": "note_on", "time": 8, "note": 64, "velocity": 108, "channel": 0}, {"type": "note_off", "time": 35, "note": 64, "velocity": 108, "channel": 0}, {"type": "note_on", "time": 15, "note": 62, "velocity": 111, "channel": 0}, {"type": "note_off", "time": 34, "note": 62, "velocity": 111, "channel": 0}, {"type": "note_on", "time": 14, "note": 61, "velocity": 99, "channel": 0}, {"type": "note_off", "time": 32, "note": 61, "velocity": 99, "channel": 0}, {"type": "note_on", "time": 13, "note": 57, "velocity": 101, "channel": 0}, {"type": "note_off", "time": 25, "note": 57, "velocity": 101, "channel": 0}, {"type": "note_on", "time": 14, "note": 64, "velocity": 108, "channel": 0}, {"type": "note_off", "time": 38, "note": 64, "velocity": 108, "channel": 0}, {"type": "note_on", "time": 24, "note": 61, "velocity": 106, "channel": 0}, {"type": "note_off", "time": 34, "note": 61, "velocity": 106, "channel": 0}, {"type": "note_on", "time": 3, "note": 62, "velocity": 104, "channel": 0}, {"type": "note_off", "time": 28, "note": 62, "velocity": 104, "channel": 0}, {"type": "note_on", "time": 8, "note": 64, "velocity": 101, "channel": 0}, {"type": "note_off", "time": 30, "note": 64, "velocity": 101, "channel": 0}, {"type": "note_on", "time": 7, "note": 65, "velocity": 110, "channel": 0}, {"type": "note_off", "time": 40, "note": 65, "velocity": 110, "channel": 0}, {"type": "note_on", "time": 15, "note": 67, "velocity": 113, "channel": 0}, {"type": "note_off", "time": 54, "note": 67, "velocity": 113, "channel": 0}, {"type": "note_on", "time": 8, "note": 68, "velocity": 104, "channel": 0}, {"type": "note_off", "time": 21, "note": 68, "velocity": 104, "channel": 0}, {"type": "note_on", "time": 10, "note": 69, "velocity": 100, "channel": 0}, {"type": "note_off", "time": 32, "note": 69, "velocity": 100, "channel": 0}, {"type": "note_on", "time": 5, "note": 72, "velocity": 122, "channel": 0}, {"type": "note_off", "time": 42, "note": 72, "velocity": 122, "channel": 0}, {"type": "note_on", "time": 14, "note": 69, "velocity": 103, "channel": 0}, {"type": "note_off", "time": 32, "note": 69, "velocity": 103, "channel": 0}, {"type": "note_on", "time": 3, "note": 71, "velocity": 111, "channel": 0}, {"type": "note_off", "time": 35, "note": 71, "velocity": 111, "channel": 0}, {"type": "note_on", "time": 6, "note": 69, "velocity": 113, "channel": 0}, {"type": "note_off", "time": 41, "note": 69, "velocity": 113, "channel": 0}, {"type": "note_on", "time": 6, "note": 67, "velocity": 118, "channel": 0}, {"type": "note_off", "time": 39, "note": 67, "velocity": 118, "channel": 0}, {"type": "note_on", "time": 7, "note": 65, "velocity": 110, "channel": 0}, {"type": "note_off", "time": 34, "note": 65, "velocity": 110, "channel": 0}, {"type": "note_on", "time": 8, "note": 64, "velocity": 107, "channel": 0}, {"type": "note_off", "time": 47, "note": 64, "velocity": 107, "channel": 0}, {"type": "note_on", "time": 14, "note": 62, "velocity": 102, "channel": 0}, {"type": "note_off", "time": 40, "note": 62, "velocity": 102, "channel": 0}, {"type": "note_on", "time": 4, "note": 61, "velocity": 99, "channel": 0}, {"type": "note_off", "time": 32, "note": 61, "velocity": 99, "channel": 0}, {"type": "note_on", "time": 16, "note": 57, "velocity": 88, "channel": 0}, {"type": "note_off", "time": 38, "note": 57, "velocity": 88, "channel": 0}, {"type": "note_on", "time": 9, "note": 60, "velocity": 103, "channel": 0}, {"type": "note_off", "time": 35, "note": 60, "velocity": 103, "channel": 0}, {"type": "note_on", "time": 19, "note": 57, "velocity": 93, "channel": 0}, {"type": "note_off", "time": 30, "note": 57, "velocity": 93, "channel": 0}, {"type": "note_on", "time": 11, "note": 62, "velocity": 99, "channel": 0}, {"type": "note_off", "time": 38, "note": 62, "velocity": 99, "channel": 0}, {"type": "note_on", "time": 6, "note": 64, "velocity": 102, "channel": 0}, {"type": "note_off", "time": 88, "note": 64, "velocity": 102, "channel": 0}, {"type": "note_on", "time": 20, "note": 60, "velocity": 98, "channel": 0}, {"type": "note_off", "time": 25, "note": 60, "velocity": 98, "channel": 0}, {"type": "note_on", "time": 7, "note": 67, "velocity": 120, "channel": 0}, {"type": "note_off", "time": 190, "note": 67, "velocity": 120, "channel": 0}, {"type": "note_on", "time": 7, "note": 68, "velocity": 123, "channel": 0}, {"type": "note_off", "time": 147, "note": 68, "velocity": 123, "channel": 0}, {"type": "note_on", "time": 4, "note": 67, "velocity": 123, "channel": 0}, {"type": "note_off", "time": 48, "note": 67, "velocity": 123, "channel": 0}, {"type": "note_on", "time": 6, "note": 66, "velocity": 109, "channel": 0}, {"type": "note_off", "time": 35, "note": 66, "velocity": 109, "channel": 0}, {"type": "note_on", "time": 9, "note": 68, "velocity": 105, "channel": 0}, {"type": "note_off", "time": 54, "note": 68, "velocity": 105, "channel": 0}, {"type": "note_on", "time": 5, "note": 70, "velocity": 103, "channel": 0}, {"type": "note_off", "time": 20, "note": 70, "velocity": 103, "channel": 0}, {"type": "note_on", "time": 3, "note": 72, "velocity": 99, "channel": 0}, {"type": "note_off", "time": 36, "note": 72, "velocity": 99, "channel": 0}, {"type": "note_on", "time": 9, "note": 77, "velocity": 114, "channel": 0}, {"type": "note_off", "time": 532, "note": 77, "velocity": 114, "channel": 0}, {"type": "note_on", "time": 17, "note": 73, "velocity": 117, "channel": 0}, {"type": "note_off", "time": 139, "note": 73, "velocity": 117, "channel": 0}, {"type": "note_on", "time": 229, "note": 70, "velocity": 125, "channel": 0}, {"type": "note_off", "time": 326, "note": 70, "velocity": 125, "channel": 0}, {"type": "note_on", "time": 136, "note": 73, "velocity": 112, "channel": 0}, {"type": "note_off", "time": 124, "note": 73, "velocity": 112, "channel": 0}, {"type": "note_on", "time": 11, "note": 70, "velocity": 106, "channel": 0}, {"type": "note_off", "time": 49, "note": 70, "velocity": 106, "channel": 0}, {"type": "note_on", "time": 16, "note": 64, "velocity": 103, "channel": 0}, {"type": "note_off", "time": 177, "note": 64, "velocity": 103, "channel": 0}, {"type": "note_on", "time": 14, "note": 61, "velocity": 97, "channel": 0}, {"type": "note_off", "time": 167, "note": 61, "velocity": 97, "channel": 0}, {"type": "note_on", "time": 17, "note": 56, "velocity": 103, "channel": 0}, {"type": "note_off", "time": 132, "note": 56, "velocity": 103, "channel": 0}, {"type": "note_on", "time": 278, "note": 56, "velocity": 109, "channel": 0}, {"type": "note_off", "time": 45, "note": 56, "velocity": 109, "channel": 0}, {"type": "note_on", "time": 6, "note": 58, "velocity": 105, "channel": 0}, {"type": "note_off", "time": 37, "note": 58, "velocity": 105, "channel": 0}, {"type": "note_on", "time": 8, "note": 60, "velocity": 100, "channel": 0}, {"type": "note_off", "time": 34, "note": 60, "velocity": 100, "channel": 0}, {"type": "note_on", "time": 13, "note": 61, "velocity": 106, "channel": 0}, {"type": "note_off", "time": 38, "note": 61, "velocity": 106, "channel": 0}, {"type": "note_on", "time": 8, "note": 63, "velocity": 106, "channel": 0}, {"type": "note_off", "time": 29, "note": 63, "velocity": 106, "channel": 0}, {"type": "note_on", "time": 14, "note": 65, "velocity": 112, "channel": 0}, {"type": "note_off", "time": 41, "note": 65, "velocity": 112, "channel": 0}, {"type": "note_on", "time": 9, "note": 66, "velocity": 107, "channel": 0}, {"type": "note_off", "time": 29, "note": 66, "velocity": 107, "channel": 0}, {"type": "note_on", "time": 10, "note": 68, "velocity": 110, "channel": 0}, {"type": "note_off", "time": 39, "note": 68, "velocity": 110, "channel": 0}, {"type": "note_on", "time": 9, "note": 70, "velocity": 117, "channel": 0}, {"type": "note_off", "time": 38, "note": 70, "velocity": 117, "channel": 0}, {"type": "note_on", "time": 13, "note": 72, "velocity": 113, "channel": 0}, {"type": "note_off", "time": 35, "note": 72, "velocity": 113, "channel": 0}, {"type": "note_on", "time": 2, "note": 73, "velocity": 103, "channel": 0}, {"type": "note_off", "time": 41, "note": 73, "velocity": 103, "channel": 0}, {"type": "note_on", "time": 7, "note": 75, "velocity": 113, "channel": 0}, {"type": "note_off", "time": 30, "note": 75, "velocity": 113, "channel": 0}, {"type": "note_on", "time": 4, "note": 77, "velocity": 110, "channel": 0}, {"type": "note_off", "time": 126, "note": 77, "velocity": 110, "channel": 0}, {"type": "note_on", "time": 8, "note": 73, "velocity": 114, "channel": 0}, {"type": "note_off", "time": 128, "note": 73, "velocity": 114, "channel": 0}, {"type": "note_on", "time": 10, "note": 75, "velocity": 118, "channel": 0}, {"type": "note_off", "time": 123, "note": 75, "velocity": 118, "channel": 0}, {"type": "note_on", "time": 20, "note": 72, "velocity": 121, "channel": 0}, {"type": "note_off", "time": 54, "note": 72, "velocity": 121, "channel": 0}, {"type": "note_on", "time": 6, "note": 73, "velocity": 109, "channel": 0}, {"type": "note_off", "time": 53, "note": 73, "velocity": 109, "channel": 0}, {"type": "note_on", "time": 4, "note": 70, "velocity": 121, "channel": 0}, {"type": "note_off", "time": 139, "note": 70, "velocity": 121, "channel": 0}, {"type": "note_on", "time": 12, "note": 66, "velocity": 114, "channel": 0}, {"type": "note_off", "time": 88, "note": 66, "velocity": 114, "channel": 0}, {"type": "note_on", "time": 6, "note": 65, "velocity": 108, "channel": 0}, {"type": "note_off", "time": 91, "note": 65, "velocity": 108, "channel": 0}, {"type": "note_on", "time": 30, "note": 63, "velocity": 103, "channel": 0}, {"type": "note_off", "time": 27, "note": 63, "velocity": 103, "channel": 0}, {"type": "note_on", "time": 21, "note": 68, "velocity": 113, "channel": 0}, {"type": "note_off", "time": 174, "note": 68, "velocity": 113, "channel": 0}, {"type": "note_on", "time": 13, "note": 66, "velocity": 107, "channel": 0}, {"type": "note_off", "time": 44, "note": 66, "velocity": 107, "channel": 0}, {"type": "note_on", "time": 11, "note": 68, "velocity": 107, "channel": 0}, {"type": "note_off", "time": 36, "note": 68, "velocity": 107, "channel": 0}, {"type": "note_on", "time": 6, "note": 70, "velocity": 120, "channel": 0}, {"type": "note_off", "time": 41, "note": 70, "velocity": 120, "channel": 0}, {"type": "note_on", "time": 7, "note": 66, "velocity": 109, "channel": 0}, {"type": "note_off", "time": 27, "note": 66, "velocity": 109, "channel": 0}, {"type": "note_on", "time": 8, "note": 63, "velocity": 102, "channel": 0}, {"type": "note_off", "time": 32, "note": 63, "velocity": 102, "channel": 0}, {"type": "note_on", "time": 20, "note": 58, "velocity": 102, "channel": 0}, {"type": "note_off", "time": 34, "note": 58, "velocity": 102, "channel": 0}, {"type": "note_on", "time": 2, "note": 61, "velocity": 101, "channel": 0}, {"type": "note_off", "time": 33, "note": 61, "velocity": 101, "channel": 0}, {"type": "note_on", "time": 1, "note": 70, "velocity": 113, "channel": 0}, {"type": "note_off", "time": 36, "note": 70, "velocity": 113, "channel": 0}, {"type": "note_on", "time": 7, "note": 66, "velocity": 101, "channel": 0}, {"type": "note_off", "time": 17, "note": 66, "velocity": 101, "channel": 0}, {"type": "note_on", "time": 6, "note": 63, "velocity": 98, "channel": 0}, {"type": "note_off", "time": 42, "note": 63, "velocity": 98, "channel": 0}, {"type": "note_on", "time": 10, "note": 58, "velocity": 103, "channel": 0}, {"type": "note_off", "time": 22, "note": 58, "velocity": 103, "channel": 0}, {"type": "note_on", "time": 4, "note": 61, "velocity": 102, "channel": 0}, {"type": "note_off", "time": 62, "note": 61, "velocity": 102, "channel": 0}, {"type": "note_on", "time": 7, "note": 58, "velocity": 105, "channel": 0}, {"type": "note_off", "time": 18, "note": 58, "velocity": 105, "channel": 0}, {"type": "note_on", "time": 4, "note": 60, "velocity": 103, "channel": 0}, {"type": "note_off", "time": 49, "note": 60, "velocity": 103, "channel": 0}, {"type": "note_on", "time": 4, "note": 65, "velocity": 113, "channel": 0}, {"type": "note_off", "time": 42, "note": 65, "velocity": 113, "channel": 0}, {"type": "note_on", "time": 6, "note": 64, "velocity": 101, "channel": 0}, {"type": "note_off", "time": 38, "note": 64, "velocity": 101, "channel": 0}, {"type": "note_on", "time": 9, "note": 60, "velocity": 109, "channel": 0}, {"type": "note_off", "time": 39, "note": 60, "velocity": 109, "channel": 0}, {"type": "note_on", "time": 3, "note": 68, "velocity": 109, "channel": 0}, {"type": "note_off", "time": 194, "note": 68, "velocity": 109, "channel": 0}, {"type": "note_on", "time": 368, "note": 69, "velocity": 114, "channel": 0}, {"type": "note_off", "time": 51, "note": 69, "velocity": 114, "channel": 0}, {"type": "note_on", "time": 19, "note": 68, "velocity": 113, "channel": 0}, {"type": "note_off", "time": 32, "note": 68, "velocity": 113, "channel": 0}, {"type": "note_on", "time": 6, "note": 69, "velocity": 109, "channel": 0}, {"type": "note_off", "time": 38, "note": 69, "velocity": 109, "channel": 0}, {"type": "note_on", "time": 13, "note": 76, "velocity": 112, "channel": 0}, {"type": "note_off", "time": 168, "note": 76, "velocity": 112, "channel": 0}, {"type": "note_on", "time": 11, "note": 74, "velocity": 113, "channel": 0}, {"type": "note_off", "time": 22, "note": 74, "velocity": 113, "channel": 0}, {"type": "note_on", "time": 3, "note": 73, "velocity": 106, "channel": 0}, {"type": "note_off", "time": 14, "note": 73, "velocity": 106, "channel": 0}, {"type": "note_on", "time": 7, "note": 69, "velocity": 113, "channel": 0}, {"type": "note_off", "time": 26, "note": 69, "velocity": 113, "channel": 0}, {"type": "note_on", "time": 13, "note": 64, "velocity": 97, "channel": 0}, {"type": "note_off", "time": 48, "note": 64, "velocity": 97, "channel": 0}, {"type": "note_on", "time": 119, "note": 61, "velocity": 110, "channel": 0}, {"type": "note_off", "time": 30, "note": 61, "velocity": 110, "channel": 0}, {"type": "note_on", "time": 5, "note": 62, "velocity": 104, "channel": 0}, {"type": "note_off", "time": 30, "note": 62, "velocity": 104, "channel": 0}, {"type": "note_on", "time": 4, "note": 64, "velocity": 108, "channel": 0}, {"type": "note_off", "time": 46, "note": 64, "velocity": 108, "channel": 0}, {"type": "note_on", "time": 6, "note": 63, "velocity": 105, "channel": 0}, {"type": "note_off", "time": 32, "note": 63, "velocity": 105, "channel": 0}, {"type": "note_on", "time": 10, "note": 62, "velocity": 102, "channel": 0}, {"type": "note_off", "time": 70, "note": 62, "velocity": 102, "channel": 0}, {"type": "note_on", "time": 229, "note": 56, "velocity": 105, "channel": 0}, {"type": "note_off", "time": 32, "note": 56, "velocity": 105, "channel": 0}, {"type": "note_on", "time": 4, "note": 57, "velocity": 108, "channel": 0}, {"type": "note_off", "time": 31, "note": 57, "velocity": 108, "channel": 0}, {"type": "note_on", "time": 11, "note": 60, "velocity": 112, "channel": 0}, {"type": "note_off", "time": 37, "note": 60, "velocity": 112, "channel": 0}, {"type": "note_on", "time": 15, "note": 57, "velocity": 109, "channel": 0}, {"type": "note_off", "time": 32, "note": 57, "velocity": 109, "channel": 0}, {"type": "note_on", "time": 5, "note": 59, "velocity": 115, "channel": 0}, {"type": "note_off", "time": 46, "note": 59, "velocity": 115, "channel": 0}, {"type": "note_on", "time": 8, "note": 57, "velocity": 109, "channel": 0}, {"type": "note_off", "time": 36, "note": 57, "velocity": 109, "channel": 0}, {"type": "note_on", "time": 4, "note": 55, "velocity": 104, "channel": 0}, {"type": "note_off", "time": 31, "note": 55, "velocity": 104, "channel": 0}, {"type": "note_on", "time": 9, "note": 57, "velocity": 109, "channel": 0}, {"type": "note_off", "time": 48, "note": 57, "velocity": 109, "channel": 0}, {"type": "note_on", "time": 5, "note": 59, "velocity": 104, "channel": 0}, {"type": "note_off", "time": 32, "note": 59, "velocity": 104, "channel": 0}, {"type": "note_on", "time": 6, "note": 60, "velocity": 95, "channel": 0}, {"type": "note_off", "time": 39, "note": 60, "velocity": 95, "channel": 0}, {"type": "note_on", "time": 11, "note": 62, "velocity": 110, "channel": 0}, {"type": "note_off", "time": 43, "note": 62, "velocity": 110, "channel": 0}, {"type": "note_on", "time": 6, "note": 63, "velocity": 100, "channel": 0}, {"type": "note_off", "time": 27, "note": 63, "velocity": 100, "channel": 0}, {"type": "note_on", "time": 11, "note": 65, "velocity": 105, "channel": 0}, {"type": "note_off", "time": 37, "note": 65, "velocity": 105, "channel": 0}, {"type": "note_on", "time": 7, "note": 67, "velocity": 104, "channel": 0}, {"type": "note_off", "time": 49, "note": 67, "velocity": 104, "channel": 0}, {"type": "note_on", "time": 14, "note": 69, "velocity": 122, "channel": 0}, {"type": "note_off", "time": 91, "note": 69, "velocity": 122, "channel": 0}, {"type": "note_on", "time": 4, "note": 69, "velocity": 118, "channel": 0}, {"type": "note_off", "time": 74, "note": 69, "velocity": 118, "channel": 0}, {"type": "note_on", "time": 14, "note": 72, "velocity": 121, "channel": 0}, {"type": "note_off", "time": 100, "note": 72, "velocity": 121, "channel": 0}, {"type": "note_on", "time": 5, "note": 72, "velocity": 120, "channel": 0}, {"type": "note_off", "time": 71, "note": 72, "velocity": 120, "channel": 0}, {"type": "note_on", "time": 14, "note": 65, "velocity": 93, "channel": 0}, {"type": "note_off", "time": 104, "note": 65, "velocity": 93, "channel": 0}, {"type": "note_on", "time": 6, "note": 65, "velocity": 105, "channel": 0}, {"type": "note_off", "time": 51, "note": 65, "velocity": 105, "channel": 0}, {"type": "note_on", "time": 23, "note": 69, "velocity": 108, "channel": 0}, {"type": "note_off", "time": 122, "note": 69, "velocity": 108, "channel": 0}, {"type": "note_on", "time": 7, "note": 69, "velocity": 109, "channel": 0}, {"type": "note_off", "time": 52, "note": 69, "velocity": 109, "channel": 0}, {"type": "note_on", "time": 40, "note": 55, "velocity": 103, "channel": 0}, {"type": "note_off", "time": 161, "note": 55, "velocity": 103, "channel": 0}, {"type": "note_on", "time": 27, "note": 64, "velocity": 115, "channel": 0}, {"type": "note_off", "time": 115, "note": 64, "velocity": 115, "channel": 0}, {"type": "note_on", "time": 19, "note": 55, "velocity": 99, "channel": 0}, {"type": "note_off", "time": 42, "note": 55, "velocity": 99, "channel": 0}, {"type": "note_on", "time": 22, "note": 62, "velocity": 96, "channel": 0}, {"type": "note_off", "time": 174, "note": 62, "velocity": 96, "channel": 0}, {"type": "note_on", "time": 5, "note": 64, "velocity": 104, "channel": 0}, {"type": "note_off", "time": 142, "note": 64, "velocity": 104, "channel": 0}, {"type": "note_on", "time": 54, "note": 67, "velocity": 106, "channel": 0}, {"type": "note_off", "time": 168, "note": 67, "velocity": 106, "channel": 0}, {"type": "note_on", "time": 13, "note": 69, "velocity": 111, "channel": 0}, {"type": "note_off", "time": 108, "note": 69, "velocity": 111, "channel": 0}, {"type": "note_on", "time": 83, "note": 64, "velocity": 101, "channel": 0}, {"type": "note_off", "time": 114, "note": 64, "velocity": 101, "channel": 0}, {"type": "note_on", "time": 19, "note": 55, "velocity": 88, "channel": 0}, {"type": "note_off", "time": 257, "note": 55, "velocity": 88, "channel": 0}, {"type": "note_on", "time": 521, "note": 64, "velocity": 118, "channel": 0}, {"type": "note_off", "time": 97, "note": 64, "velocity": 118, "channel": 0}, {"type": "note_on", "time": 20, "note": 63, "velocity": 93, "channel": 0}, {"type": "note_off", "time": 81, "note": 63, "velocity": 93, "channel": 0}, {"type": "note_on", "time": 1, "note": 64, "velocity": 102, "channel": 0}, {"type": "note_off", "time": 56, "note": 64, "velocity": 102, "channel": 0}, {"type": "note_on", "time": 17, "note": 65, "velocity": 117, "channel": 0}, {"type": "note_off", "time": 97, "note": 65, "velocity": 117, "channel": 0}, {"type": "note_on", "time": 68, "note": 64, "velocity": 115, "channel": 0}, {"type": "note_off", "time": 93, "note": 64, "velocity": 115, "channel": 0}, {"type": "note_on", "time": 101, "note": 63, "velocity": 111, "channel": 0}, {"type": "note_off", "time": 134, "note": 63, "velocity": 111, "channel": 0}, {"type": "note_on", "time": 14, "note": 64, "velocity": 101, "channel": 0}, {"type": "note_off", "time": 107, "note": 64, "velocity": 101, "channel": 0}, {"type": "note_on", "time": 64, "note": 55, "velocity": 98, "channel": 0}, {"type": "note_off", "time": 367, "note": 55, "velocity": 98, "channel": 0}, {"type": "note_on", "time": 25, "note": 53, "velocity": 87, "channel": 0}, {"type": "note_off", "time": 141, "note": 53, "velocity": 87, "channel": 0}, {"type": "end_of_track", "time": 0}]]}