{"ticks_per_beat": 840, "tracks": [[{"type": "track_name", "name": "Melody", "time": 0}, {"type": "set_tempo", "tempo": 447761, "time": 0}, {"type": "key_signature", "key": "Eb", "time": 0}, {"type": "time_signature", "numerator": 4, "denominator": 4, "clocks_per_click": 24, "notated_32nd_notes_per_beat": 8, "time": 0}, {"type": "note_on", "time": 79827, "note": 70, "velocity": 112, "channel": 0}, {"type": "note_off", "time": 302, "note": 70, "velocity": 112, "channel": 0}, {"type": "note_on", "time": 141, "note": 72, "velocity": 118, "channel": 0}, {"type": "note_off", "time": 264, "note": 72, "velocity": 118, "channel": 0}, {"type": "note_on", "time": 221, "note": 74, "velocity": 121, "channel": 0}, {"type": "note_off", "time": 315, "note": 74, "velocity": 121, "channel": 0}, {"type": "note_on", "time": 66, "note": 72, "velocity": 110, "channel": 0}, {"type": "note_off", "time": 367, "note": 72, "velocity": 110, "channel": 0}, {"type": "note_on", "time": 19, "note": 74, "velocity": 107, "channel": 0}, {"type": "note_off", "time": 171, "note": 74, "velocity": 107, "channel": 0}, {"type": "note_on", "time": 8, "note": 72, "velocity": 107, "channel": 0}, {"type": "note_off", "time": 166, "note": 72, "velocity": 107, "channel": 0}, {"type": "note_on", "time": 10, "note": 70, "velocity": 110, "channel": 0}, {"type": "note_off", "time": 416, "note": 70, "velocity": 110, "channel": 0}, {"type": "note_on", "time": 10, "note": 67, "velocity": 119, "channel": 0}, {"type": "note_off", "time": 419, "note": 67, "velocity": 119, "channel": 0}, {"type": "note_on", "time": 10, "note": 65, "velocity": 102, "channel": 0}, {"type": "note_off", "time": 869, "note": 65, "velocity": 102, "channel": 0}, {"type": "note_on", "time": 24, "note": 63, "velocity": 94, "channel": 0}, {"type": "note_off", "time": 477, "note": 63, "velocity": 94, "channel": 0}, {"type": "note_on", "time": 8, "note": 60, "velocity": 90, "channel": 0}, {"type": "note_off", "time": 193, "note": 60, "velocity": 90, "channel": 0}, {"type": "note_on", "time": 73, "note": 65, "velocity": 106, "channel": 0}, {"type": "note_on", "time": 142, "note": 67, "velocity": 107, "channel": 0}, {"type": "note_off", "time": 0, "note": 65, "velocity": 106, "channel": 0}, {"type": "note_off", "time": 724, "note": 67, "velocity": 107, "channel": 0}, {"type": "note_on", "time": 4, "note": 63, "velocity": 101, "channel": 0}, {"type": "note_off", "time": 459, "note": 63, "velocity": 101, "channel": 0}, {"type": "note_on", "time": 52, "note": 60, "velocity": 90, "channel": 0}, {"type": "note_off", "time": 274, "note": 60, "velocity": 90, "channel": 0}, {"type": "note_on", "time": 14, "note": 63, "velocity": 102, "channel": 0}, {"type": "note_off", "time": 588, "note": 63, "velocity": 102, "channel": 0}, {"type": "note_on", "time": 15, "note": 58, "velocity": 81, "channel": 0}, {"type": "note_off", "time": 998, "note": 58, "velocity": 81, "channel": 0}, {"type": "note_on", "time": 3482, "note": 72, "velocity": 113, "channel": 0}, {"type": "note_off", "time": 171, "note": 72, "velocity": 113, "channel": 0}, {"type": "note_on", "time": 8, "note": 73, "velocity": 122, "channel": 0}, {"type": "note_off", "time": 157, "note": 73, "velocity": 122, "channel": 0}, {"type": "note_on", "time": 8, "note": 72, "velocity": 118, "channel": 0}, {"type": "note_off", "time": 125, "note": 72, "velocity": 118, "channel": 0}, {"type": "note_on", "time": 18, "note": 70, "velocity": 112, "channel": 0}, {"type": "note_off", "time": 177, "note": 70, "velocity": 112, "channel": 0}, {"type": "note_on", "time": 10, "note": 66, "velocity": 123, "channel": 0}, {"type": "note_off", "time": 258, "note": 66, "velocity": 123, "channel": 0}, {"type": "note_on", "time": 14, "note": 63, "velocity": 95, "channel": 0}, {"type": "note_off", "time": 128, "note": 63, "velocity": 95, "channel": 0}, {"type": "note_on", "time": 0, "note": 60, "velocity": 91, "channel": 0}, {"type": "note_off", "time": 133, "note": 60, "velocity": 91, "channel": 0}, {"type": "note_on", "time": 42, "note": 68, "velocity": 119, "channel": 0}, {"type": "note_off", "time": 233, "note": 68, "velocity": 119, "channel": 0}, {"type": "note_on", "time": 7, "note": 66, "velocity": 118, "channel": 0}, {"type": "note_off", "time": 413, "note": 66, "velocity": 118, "channel": 0}, {"type": "note_on", "time": 7, "note": 63, "velocity": 118, "channel": 0}, {"type": "note_off", "time": 276, "note": 63, "velocity": 118, "channel": 0}, {"type": "note_on", "time": 0, "note": 65, "velocity": 126, "channel": 0}, {"type": "note_off", "time": 738, "note": 65, "velocity": 126, "channel": 0}, {"type": "note_on", "time": 9, "note": 61, "velocity": 105, "channel": 0}, {"type": "note_off", "time": 245, "note": 61, "velocity": 105, "channel": 0}, {"type": "note_on", "time": 16, "note": 58, "velocity": 80, "channel": 0}, {"type": "note_off", "time": 228, "note": 58, "velocity": 80, "channel": 0}, {"type": "note_on", "time": 2, "note": 61, "velocity": 90, "channel": 0}, {"type": "note_off", "time": 1157, "note": 61, "velocity": 90, "channel": 0}, {"type": "note_on", "time": 888, "note": 67, "velocity": 126, "channel": 0}, {"type": "note_off", "time": 238, "note": 67, "velocity": 126, "channel": 0}, {"type": "note_on", "time": 9, "note": 65, "velocity": 120, "channel": 0}, {"type": "note_off", "time": 214, "note": 65, "velocity": 120, "channel": 0}, {"type": "note_on", "time": 38, "note": 64, "velocity": 100, "channel": 0}, {"type": "note_off", "time": 209, "note": 64, "velocity": 100, "channel": 0}, {"type": "note_on", "time": 0, "note": 55, "velocity": 92, "channel": 0}, {"type": "note_off", "time": 204, "note": 55, "velocity": 92, "channel": 0}, {"type": "note_on", "time": 0, "note": 58, "velocity": 83, "channel": 0}, {"type": "note_off", "time": 147, "note": 58, "velocity": 83, "channel": 0}, {"type": "note_on", "time": 0, "note": 61, "velocity": 108, "channel": 0}, {"type": "note_off", "time": 200, "note": 61, "velocity": 108, "channel": 0}, {"type": "note_on", "time": 5, "note": 60, "velocity": 100, "channel": 0}, {"type": "note_off", "time": 193, "note": 60, "velocity": 100, "channel": 0}, {"type": "note_on", "time": 53, "note": 57, "velocity": 96, "channel": 0}, {"type": "note_off", "time": 181, "note": 57, "velocity": 96, "channel": 0}, {"type": "note_on", "time": 14, "note": 58, "velocity": 88, "channel": 0}, {"type": "note_off", "time": 122, "note": 58, "velocity": 88, "channel": 0}, {"type": "note_on", "time": 5, "note": 61, "velocity": 91, "channel": 0}, {"type": "note_off", "time": 179, "note": 61, "velocity": 91, "channel": 0}, {"type": "note_on", "time": 2, "note": 65, "velocity": 99, "channel": 0}, {"type": "note_off", "time": 207, "note": 65, "velocity": 99, "channel": 0}, {"type": "note_on", "time": 0, "note": 69, "velocity": 119, "channel": 0}, {"type": "note_off", "time": 299, "note": 69, "velocity": 119, "channel": 0}, {"type": "note_on", "time": 12, "note": 67, "velocity": 110, "channel": 0}, {"type": "note_off", "time": 204, "note": 67, "velocity": 110, "channel": 0}, {"type": "note_on", "time": 353, "note": 67, "velocity": 114, "channel": 0}, {"type": "note_off", "time": 231, "note": 67, "velocity": 114, "channel": 0}, {"type": "note_on", "time": 116, "note": 64, "velocity": 99, "channel": 0}, {"type": "note_off", "time": 103, "note": 64, "velocity": 99, "channel": 0}, {"type": "note_on", "time": 6, "note": 65, "velocity": 94, "channel": 0}, {"type": "note_off", "time": 153, "note": 65, "velocity": 94, "channel": 0}, {"type": "note_on", "time": 4, "note": 69, "velocity": 100, "channel": 0}, {"type": "note_off", "time": 153, "note": 69, "velocity": 100, "channel": 0}, {"type": "note_on", "time": 4, "note": 72, "velocity": 83, "channel": 0}, {"type": "note_off", "time": 85, "note": 72, "velocity": 83, "channel": 0}, {"type": "note_on", "time": 78, "note": 76, "velocity": 119, "channel": 0}, {"type": "note_off", "time": 204, "note": 76, "velocity": 119, "channel": 0}, {"type": "note_on", "time": 5, "note": 77, "velocity": 119, "channel": 0}, {"type": "note_off", "time": 190, "note": 77, "velocity": 119, "channel": 0}, {"type": "note_on", "time": 10, "note": 78, "velocity": 120, "channel": 0}, {"type": "note_off", "time": 106, "note": 78, "velocity": 120, "channel": 0}, {"type": "note_on", "time": 10, "note": 79, "velocity": 116, "channel": 0}, {"type": "note_off", "time": 337, "note": 79, "velocity": 116, "channel": 0}, {"type": "note_on", "time": 16, "note": 76, "velocity": 106, "channel": 0}, {"type": "note_off", "time": 125, "note": 76, "velocity": 106, "channel": 0}, {"type": "note_on", "time": 14, "note": 76, "velocity": 109, "channel": 0}, {"type": "note_off", "time": 71, "note": 76, "velocity": 109, "channel": 0}, {"type": "note_on", "time": 0, "note": 77, "velocity": 118, "channel": 0}, {"type": "note_off", "time": 336, "note": 77, "velocity": 118, "channel": 0}, {"type": "note_on", "time": 0, "note": 76, "velocity": 111, "channel": 0}, {"type": "note_off", "time": 67, "note": 76, "velocity": 111, "channel": 0}, {"type": "note_on", "time": 0, "note": 72, "velocity": 107, "channel": 0}, {"type": "note_off", "time": 302, "note": 72, "velocity": 107, "channel": 0}, {"type": "note_on", "time": 1372, "note": 71, "velocity": 113, "channel": 0}, {"type": "note_off", "time": 190, "note": 71, "velocity": 113, "channel": 0}, {"type": "note_on", "time": 6, "note": 73, "velocity": 115, "channel": 0}, {"type": "note_off", "time": 119, "note": 73, "velocity": 115, "channel": 0}, {"type": "note_on", "time": 0, "note": 71, "velocity": 122, "channel": 0}, {"type": "note_off", "time": 204, "note": 71, "velocity": 122, "channel": 0}, {"type": "note_on", "time": 28, "note": 70, "velocity": 107, "channel": 0}, {"type": "note_off", "time": 71, "note": 70, "velocity": 107, "channel": 0}, {"type": "note_on", "time": 4, "note": 69, "velocity": 116, "channel": 0}, {"type": "note_off", "time": 362, "note": 69, "velocity": 116, "channel": 0}, {"type": "note_on", "time": 3, "note": 68, "velocity": 116, "channel": 0}, {"type": "note_off", "time": 84, "note": 68, "velocity": 116, "channel": 0}, {"type": "note_on", "time": 10, "note": 67, "velocity": 113, "channel": 0}, {"type": "note_off", "time": 266, "note": 67, "velocity": 113, "channel": 0}, {"type": "note_on", "time": 10, "note": 65, "velocity": 110, "channel": 0}, {"type": "note_off", "time": 204, "note": 65, "velocity": 110, "channel": 0}, {"type": "note_on", "time": 5, "note": 63, "velocity": 99, "channel": 0}, {"type": "note_off", "time": 392, "note": 63, "velocity": 99, "channel": 0}, {"type": "note_on", "time": 13, "note": 65, "velocity": 114, "channel": 0}, {"type": "note_off", "time": 179, "note": 65, "velocity": 114, "channel": 0}, {"type": "note_on", "time": 5, "note": 68, "velocity": 123, "channel": 0}, {"type": "note_off", "time": 258, "note": 68, "velocity": 123, "channel": 0}, {"type": "note_on", "time": 2, "note": 71, "velocity": 101, "channel": 0}, {"type": "note_off", "time": 139, "note": 71, "velocity": 101, "channel": 0}, {"type": "note_on", "time": 13, "note": 68, "velocity": 104, "channel": 0}, {"type": "note_off", "time": 176, "note": 68, "velocity": 104, "channel": 0}, {"type": "note_on", "time": 12, "note": 69, "velocity": 102, "channel": 0}, {"type": "note_off", "time": 166, "note": 69, "velocity": 102, "channel": 0}, {"type": "note_on", "time": 19, "note": 70, "velocity": 113, "channel": 0}, {"type": "note_off", "time": 269, "note": 70, "velocity": 113, "channel": 0}, {"type": "note_on", "time": 1349, "note": 66, "velocity": 118, "channel": 0}, {"type": "note_off", "time": 217, "note": 66, "velocity": 118, "channel": 0}, {"type": "note_on", "time": 25, "note": 67, "velocity": 107, "channel": 0}, {"type": "note_off", "time": 163, "note": 67, "velocity": 107, "channel": 0}, {"type": "note_on", "time": 5, "note": 70, "velocity": 97, "channel": 0}, {"type": "note_off", "time": 102, "note": 70, "velocity": 97, "channel": 0}, {"type": "note_on", "time": 2, "note": 73, "velocity": 105, "channel": 0}, {"type": "note_off", "time": 88, "note": 73, "velocity": 105, "channel": 0}, {"type": "note_on", "time": 4, "note": 75, "velocity": 117, "channel": 0}, {"type": "note_off", "time": 129, "note": 75, "velocity": 117, "channel": 0}, {"type": "note_on", "time": 0, "note": 77, "velocity": 122, "channel": 0}, {"type": "note_off", "time": 340, "note": 77, "velocity": 122, "channel": 0}, {"type": "note_on", "time": 2, "note": 74, "velocity": 121, "channel": 0}, {"type": "note_off", "time": 141, "note": 74, "velocity": 121, "channel": 0}, {"type": "note_on", "time": 10, "note": 75, "velocity": 125, "channel": 0}, {"type": "note_off", "time": 272, "note": 75, "velocity": 125, "channel": 0}, {"type": "note_on", "time": 87, "note": 70, "velocity": 110, "channel": 0}, {"type": "note_off", "time": 234, "note": 70, "velocity": 110, "channel": 0}, {"type": "note_on", "time": 790, "note": 72, "velocity": 119, "channel": 0}, {"type": "note_off", "time": 176, "note": 72, "velocity": 119, "channel": 0}, {"type": "note_on", "time": 29, "note": 74, "velocity": 124, "channel": 0}, {"type": "note_off", "time": 912, "note": 74, "velocity": 124, "channel": 0}, {"type": "note_on", "time": 5, "note": 72, "velocity": 105, "channel": 0}, {"type": "note_off", "time": 245, "note": 72, "velocity": 105, "channel": 0}, {"type": "note_on", "time": 5, "note": 74, "velocity": 18, "channel": 0}, {"type": "note_off", "time": 125, "note": 74, "velocity": 18, "channel": 0}, {"type": "note_on", "time": 10, "note": 72, "velocity": 76, "channel": 0}, {"type": "note_off", "time": 104, "note": 72, "velocity": 76, "channel": 0}, {"type": "note_on", "time": 5, "note": 71, "velocity": 111, "channel": 0}, {"type": "note_off", "time": 268, "note": 71, "velocity": 111, "channel": 0}, {"type": "note_on", "time": 87, "note": 70, "velocity": 117, "channel": 0}, {"type": "note_off", "time": 370, "note": 70, "velocity": 117, "channel": 0}, {"type": "note_on", "time": 81, "note": 68, "velocity": 118, "channel": 0}, {"type": "note_off", "time": 353, "note": 68, "velocity": 118, "channel": 0}, {"type": "note_on", "time": 59, "note": 67, "velocity": 121, "channel": 0}, {"type": "note_off", "time": 446, "note": 67, "velocity": 121, "channel": 0}, {"type": "note_on", "time": 46, "note": 65, "velocity": 113, "channel": 0}, {"type": "note_off", "time": 384, "note": 65, "velocity": 113, "channel": 0}, {"type": "note_on", "time": 106, "note": 63, "velocity": 94, "channel": 0}, {"type": "note_off", "time": 483, "note": 63, "velocity": 94, "channel": 0}, {"type": "note_on", "time": 117, "note": 67, "velocity": 76, "channel": 0}, {"type": "note_off", "time": 141, "note": 67, "velocity": 76, "channel": 0}, {"type": "note_on", "time": 6, "note": 70, "velocity": 117, "channel": 0}, {"type": "note_off", "time": 357, "note": 70, "velocity": 117, "channel": 0}, {"type": "note_on", "time": 112, "note": 66, "velocity": 116, "channel": 0}, {"type": "note_off", "time": 427, "note": 66, "velocity": 116, "channel": 0}, {"type": "note_on", "time": 17, "note": 63, "velocity": 96, "channel": 0}, {"type": "note_off", "time": 347, "note": 63, "velocity": 96, "channel": 0}, {"type": "note_on", "time": 294, "note": 61, "velocity": 106, "channel": 0}, {"type": "note_off", "time": 549, "note": 61, "velocity": 106, "channel": 0}, {"type": "note_on", "time": 32, "note": 59, "velocity": 88, "channel": 0}, {"type": "note_off", "time": 170, "note": 59, "velocity": 88, "channel": 0}, {"type": "note_on", "time": 17, "note": 60, "velocity": 98, "channel": 0}, {"type": "note_off", "time": 477, "note": 60, "velocity": 98, "channel": 0}, {"type": "note_on", "time": 130, "note": 65, "velocity": 96, "channel": 0}, {"type": "note_off", "time": 849, "note": 65, "velocity": 96, "channel": 0}, {"type": "note_on", "time": 65, "note": 60, "velocity": 93, "channel": 0}, {"type": "note_off", "time": 138, "note": 60, "velocity": 93, "channel": 0}, {"type": "note_on", "time": 46, "note": 68, "velocity": 115, "channel": 0}, {"type": "note_off", "time": 470, "note": 68, "velocity": 115, "channel": 0}, {"type": "note_on", "time": 24, "note": 65, "velocity": 110, "channel": 0}, {"type": "note_off", "time": 381, "note": 65, "velocity": 110, "channel": 0}, {"type": "note_on", "time": 98, "note": 60, "velocity": 90, "channel": 0}, {"type": "note_off", "time": 261, "note": 60, "velocity": 90, "channel": 0}, {"type": "note_on", "time": 54, "note": 56, "velocity": 93, "channel": 0}, {"type": "note_off", "time": 348, "note": 56, "velocity": 93, "channel": 0}, {"type": "note_on", "time": 16, "note": 58, "velocity": 86, "channel": 0}, {"type": "note_off", "time": 925, "note": 58, "velocity": 86, "channel": 0}, {"type": "note_on", "time": 1626, "note": 66, "velocity": 110, "channel": 0}, {"type": "note_off", "time": 262, "note": 66, "velocity": 110, "channel": 0}, {"type": "note_on", "time": 14, "note": 67, "velocity": 101, "channel": 0}, {"type": "note_off", "time": 125, "note": 67, "velocity": 101, "channel": 0}, {"type": "note_on", "time": 13, "note": 69, "velocity": 90, "channel": 0}, {"type": "note_off", "time": 125, "note": 69, "velocity": 90, "channel": 0}, {"type": "note_on", "time": 19, "note": 72, "velocity": 82, "channel": 0}, {"type": "note_off", "time": 76, "note": 72, "velocity": 82, "channel": 0}, {"type": "note_on", "time": 10, "note": 75, "velocity": 102, "channel": 0}, {"type": "note_off", "time": 201, "note": 75, "velocity": 102, "channel": 0}, {"type": "note_on", "time": 6, "note": 77, "velocity": 115, "channel": 0}, {"type": "note_off", "time": 224, "note": 77, "velocity": 115, "channel": 0}, {"type": "note_on", "time": 214, "note": 74, "velocity": 113, "channel": 0}, {"type": "note_off", "time": 234, "note": 74, "velocity": 113, "channel": 0}, {"type": "note_on", "time": 0, "note": 75, "velocity": 119, "channel": 0}, {"type": "note_off", "time": 91, "note": 75, "velocity": 119, "channel": 0}, {"type": "note_on", "time": 0, "note": 76, "velocity": 113, "channel": 0}, {"type": "note_off", "time": 166, "note": 76, "velocity": 113, "channel": 0}, {"type": "note_on", "time": 0, "note": 72, "velocity": 117, "channel": 0}, {"type": "note_off", "time": 187, "note": 72, "velocity": 117, "channel": 0}, {"type": "note_on", "time": 9, "note": 73, "velocity": 114, "channel": 0}, {"type": "note_off", "time": 84, "note": 73, "velocity": 114, "channel": 0}, {"type": "note_on", "time": 11, "note": 74, "velocity": 112, "channel": 0}, {"type": "note_off", "time": 193, "note": 74, "velocity": 112, "channel": 0}, {"type": "note_on", "time": 0, "note": 70, "velocity": 110, "channel": 0}, {"type": "note_off", "time": 163, "note": 70, "velocity": 110, "channel": 0}, {"type": "note_on", "time": 4, "note": 71, "velocity": 101, "channel": 0}, {"type": "note_off", "time": 119, "note": 71, "velocity": 101, "channel": 0}, {"type": "note_on", "time": 8, "note": 72, "velocity": 98, "channel": 0}, {"type": "note_off", "time": 193, "note": 72, "velocity": 98, "channel": 0}, {"type": "note_on", "time": 4, "note": 69, "velocity": 115, "channel": 0}, {"type": "note_off", "time": 206, "note": 69, "velocity": 115, "channel": 0}, {"type": "note_on", "time": 837, "note": 72, "velocity": 109, "channel": 0}, {"type": "note_on", "time": 193, "note": 70, "velocity": 113, "channel": 0}, {"type": "note_off", "time": 0, "note": 72, "velocity": 109, "channel": 0}, {"type": "note_off", "time": 102, "note": 70, "velocity": 113, "channel": 0}, {"type": "note_on", "time": 6, "note": 69, "velocity": 122, "channel": 0}, {"type": "note_off", "time": 190, "note": 69, "velocity": 122, "channel": 0}, {"type": "note_on", "time": 74, "note": 65, "velocity": 109, "channel": 0}, {"type": "note_off", "time": 163, "note": 65, "velocity": 109, "channel": 0}, {"type": "note_on", "time": 0, "note": 61, "velocity": 107, "channel": 0}, {"type": "note_off", "time": 292, "note": 61, "velocity": 107, "channel": 0}, {"type": "note_on", "time": 0, "note": 58, "velocity": 89, "channel": 0}, {"type": "note_off", "time": 129, "note": 58, "velocity": 89, "channel": 0}, {"type": "note_on", "time": 3, "note": 60, "velocity": 84, "channel": 0}, {"type": "note_off", "time": 878, "note": 60, "velocity": 84, "channel": 0}, {"type": "note_on", "time": 887, "note": 71, "velocity": 105, "channel": 0}, {"type": "note_off", "time": 125, "note": 71, "velocity": 105, "channel": 0}, {"type": "note_on", "time": 4, "note": 72, "velocity": 110, "channel": 0}, {"type": "note_off", "time": 204, "note": 72, "velocity": 110, "channel": 0}, {"type": "note_on", "time": 3, "note": 71, "velocity": 115, "channel": 0}, {"type": "note_off", "time": 241, "note": 71, "velocity": 115, "channel": 0}, {"type": "note_on", "time": 52, "note": 69, "velocity": 120, "channel": 0}, {"type": "note_off", "time": 266, "note": 69, "velocity": 120, "channel": 0}, {"type": "note_on", "time": 13, "note": 68, "velocity": 119, "channel": 0}, {"type": "note_off", "time": 269, "note": 68, "velocity": 119, "channel": 0}, {"type": "note_on", "time": 1385, "note": 67, "velocity": 122, "channel": 0}, {"type": "note_off", "time": 528, "note": 67, "velocity": 122, "channel": 0}, {"type": "note_on", "time": 22, "note": 68, "velocity": 106, "channel": 0}, {"type": "note_off", "time": 217, "note": 68, "velocity": 106, "channel": 0}, {"type": "note_on", "time": 91, "note": 72, "velocity": 123, "channel": 0}, {"type": "note_off", "time": 432, "note": 72, "velocity": 123, "channel": 0}, {"type": "note_on", "time": 10, "note": 75, "velocity": 118, "channel": 0}, {"type": "note_off", "time": 536, "note": 75, "velocity": 118, "channel": 0}, {"type": "note_on", "time": 7, "note": 78, "velocity": 114, "channel": 0}, {"type": "note_off", "time": 428, "note": 78, "velocity": 114, "channel": 0}, {"type": "note_on", "time": 0, "note": 79, "velocity": 109, "channel": 0}, {"type": "note_off", "time": 838, "note": 79, "velocity": 109, "channel": 0}, {"type": "note_on", "time": 2, "note": 77, "velocity": 121, "channel": 0}, {"type": "note_off", "time": 398, "note": 77, "velocity": 121, "channel": 0}, {"type": "note_on", "time": 6, "note": 75, "velocity": 123, "channel": 0}, {"type": "note_off", "time": 545, "note": 75, "velocity": 123, "channel": 0}, {"type": "note_on", "time": 44, "note": 72, "velocity": 119, "channel": 0}, {"type": "note_off", "time": 509, "note": 72, "velocity": 119, "channel": 0}, {"type": "note_on", "time": 1031, "note": 77, "velocity": 115, "channel": 0}, {"type": "note_off", "time": 381, "note": 77, "velocity": 115, "channel": 0}, {"type": "note_on", "time": 16, "note": 75, "velocity": 119, "channel": 0}, {"type": "note_off", "time": 250, "note": 75, "velocity": 119, "channel": 0}, {"type": "note_on", "time": 22, "note": 71, "velocity": 115, "channel": 0}, {"type": "note_off", "time": 108, "note": 71, "velocity": 115, "channel": 0}, {"type": "note_on", "time": 47, "note": 68, "velocity": 118, "channel": 0}, {"type": "note_off", "time": 279, "note": 68, "velocity": 118, "channel": 0}, {"type": "note_on", "time": 94, "note": 63, "velocity": 90, "channel": 0}, {"type": "note_off", "time": 400, "note": 63, "velocity": 90, "channel": 0}, {"type": "note_on", "time": 65, "note": 66, "velocity": 104, "channel": 0}, {"type": "note_off", "time": 430, "note": 66, "velocity": 104, "channel": 0}, {"type": "note_on", "time": 98, "note": 63, "velocity": 84, "channel": 0}, {"type": "note_off", "time": 255, "note": 63, "velocity": 84, "channel": 0}, {"type": "note_on", "time": 27, "note": 66, "velocity": 107, "channel": 0}, {"type": "note_off", "time": 446, "note": 66, "velocity": 107, "channel": 0}, {"type": "note_on", "time": 160, "note": 63, "velocity": 83, "channel": 0}, {"type": "note_off", "time": 253, "note": 63, "velocity": 83, "channel": 0}, {"type": "note_on", "time": 5, "note": 66, "velocity": 120, "channel": 0}, {"type": "note_off", "time": 626, "note": 66, "velocity": 120, "channel": 0}, {"type": "note_on", "time": 302, "note": 63, "velocity": 91, "channel": 0}, {"type": "note_off", "time": 285, "note": 63, "velocity": 91, "channel": 0}, {"type": "note_on", "time": 10, "note": 65, "velocity": 117, "channel": 0}, {"type": "note_off", "time": 517, "note": 65, "velocity": 117, "channel": 0}, {"type": "note_on", "time": 36, "note": 68, "velocity": 106, "channel": 0}, {"type": "note_off", "time": 232, "note": 68, "velocity": 106, "channel": 0}, {"type": "note_on", "time": 0, "note": 71, "velocity": 114, "channel": 0}, {"type": "note_off", "time": 508, "note": 71, "velocity": 114, "channel": 0}, {"type": "note_on", "time": 0, "note": 73, "velocity": 123, "channel": 0}, {"type": "note_off", "time": 122, "note": 73, "velocity": 123, "channel": 0}, {"type": "note_on", "time": 9, "note": 74, "velocity": 122, "channel": 0}, {"type": "note_off", "time": 1000, "note": 74, "velocity": 122, "channel": 0}, {"type": "note_on", "time": 8, "note": 73, "velocity": 122, "channel": 0}, {"type": "note_off", "time": 441, "note": 73, "velocity": 122, "channel": 0}, {"type": "note_on", "time": 10, "note": 71, "velocity": 116, "channel": 0}, {"type": "note_off", "time": 404, "note": 71, "velocity": 116, "channel": 0}, {"type": "note_on", "time": 2, "note": 69, "velocity": 116, "channel": 0}, {"type": "note_off", "time": 280, "note": 69, "velocity": 116, "channel": 0}, {"type": "note_on", "time": 5, "note": 70, "velocity": 116, "channel": 0}, {"type": "note_off", "time": 710, "note": 70, "velocity": 116, "channel": 0}, {"type": "note_on", "time": 0, "note": 73, "velocity": 109, "channel": 0}, {"type": "note_off", "time": 128, "note": 73, "velocity": 109, "channel": 0}, {"type": "note_on", "time": 0, "note": 70, "velocity": 115, "channel": 0}, {"type": "note_off", "time": 159, "note": 70, "velocity": 115, "channel": 0}, {"type": "note_on", "time": 0, "note": 68, "velocity": 117, "channel": 0}, {"type": "note_off", "time": 306, "note": 68, "velocity": 117, "channel": 0}, {"type": "note_on", "time": 9, "note": 66, "velocity": 110, "channel": 0}, {"type": "note_off", "time": 486, "note": 66, "velocity": 110, "channel": 0}, {"type": "note_on", "time": 15, "note": 63, "velocity": 89, "channel": 0}, {"type": "note_off", "time": 1012, "note": 63, "velocity": 89, "channel": 0}, {"type": "note_on", "time": 958, "note": 57, "velocity": 99, "channel": 0}, {"type": "note_off", "time": 195, "note": 57, "velocity": 99, "channel": 0}, {"type": "note_on", "time": 45, "note": 61, "velocity": 105, "channel": 0}, {"type": "note_off", "time": 205, "note": 61, "velocity": 105, "channel": 0}, {"type": "note_on", "time": 0, "note": 65, "velocity": 103, "channel": 0}, {"type": "note_off", "time": 274, "note": 65, "velocity": 103, "channel": 0}, {"type": "note_on", "time": 116, "note": 68, "velocity": 125, "channel": 0}, {"type": "note_off", "time": 563, "note": 68, "velocity": 125, "channel": 0}, {"type": "note_on", "time": 108, "note": 66, "velocity": 119, "channel": 0}, {"type": "note_off", "time": 918, "note": 66, "velocity": 119, "channel": 0}, {"type": "note_on", "time": 636, "note": 69, "velocity": 127, "channel": 0}, {"type": "note_off", "time": 242, "note": 69, "velocity": 127, "channel": 0}, {"type": "note_on", "time": 10, "note": 70, "velocity": 110, "channel": 0}, {"type": "note_off", "time": 914, "note": 70, "velocity": 110, "channel": 0}, {"type": "note_on", "time": 13, "note": 68, "velocity": 116, "channel": 0}, {"type": "note_off", "time": 268, "note": 68, "velocity": 116, "channel": 0}, {"type": "note_on", "time": 14, "note": 67, "velocity": 110, "channel": 0}, {"type": "note_off", "time": 149, "note": 67, "velocity": 110, "channel": 0}, {"type": "note_on", "time": 8, "note": 65, "velocity": 92, "channel": 0}, {"type": "note_off", "time": 163, "note": 65, "velocity": 92, "channel": 0}, {"type": "note_on", "time": 27, "note": 63, "velocity": 91, "channel": 0}, {"type": "note_off", "time": 144, "note": 63, "velocity": 91, "channel": 0}, {"type": "note_on", "time": 8, "note": 62, "velocity": 103, "channel": 0}, {"type": "note_off", "time": 92, "note": 62, "velocity": 103, "channel": 0}, {"type": "note_on", "time": 17, "note": 60, "velocity": 100, "channel": 0}, {"type": "note_off", "time": 129, "note": 60, "velocity": 100, "channel": 0}, {"type": "note_on", "time": 27, "note": 58, "velocity": 87, "channel": 0}, {"type": "note_off", "time": 241, "note": 58, "velocity": 87, "channel": 0}, {"type": "note_on", "time": 907, "note": 69, "velocity": 120, "channel": 0}, {"type": "note_off", "time": 149, "note": 69, "velocity": 120, "channel": 0}, {"type": "note_on", "time": 27, "note": 70, "velocity": 115, "channel": 0}, {"type": "note_off", "time": 1200, "note": 70, "velocity": 115, "channel": 0}, {"type": "note_on", "time": 4, "note": 68, "velocity": 116, "channel": 0}, {"type": "note_off", "time": 155, "note": 68, "velocity": 116, "channel": 0}, {"type": "note_on", "time": 8, "note": 66, "velocity": 114, "channel": 0}, {"type": "note_off", "time": 187, "note": 66, "velocity": 114, "channel": 0}, {"type": "note_on", "time": 8, "note": 61, "velocity": 100, "channel": 0}, {"type": "note_off", "time": 141, "note": 61, "velocity": 100, "channel": 0}, {"type": "note_on", "time": 10, "note": 62, "velocity": 103, "channel": 0}, {"type": "note_off", "time": 100, "note": 62, "velocity": 103, "channel": 0}, {"type": "note_on", "time": 10, "note": 60, "velocity": 96, "channel": 0}, {"type": "note_off", "time": 149, "note": 60, "velocity": 96, "channel": 0}, {"type": "note_on", "time": 13, "note": 58, "velocity": 94, "channel": 0}, {"type": "note_off", "time": 187, "note": 58, "velocity": 94, "channel": 0}, {"type": "note_on", "time": 1404, "note": 58, "velocity": 92, "channel": 0}, {"type": "note_off", "time": 183, "note": 58, "velocity": 92, "channel": 0}, {"type": "note_on", "time": 0, "note": 60, "velocity": 99, "channel": 0}, {"type": "note_off", "time": 132, "note": 60, "velocity": 99, "channel": 0}, {"type": "note_on", "time": 8, "note": 63, "velocity": 104, "channel": 0}, {"type": "note_off", "time": 228, "note": 63, "velocity": 104, "channel": 0}, {"type": "note_on", "time": 8, "note": 65, "velocity": 103, "channel": 0}, {"type": "note_off", "time": 274, "note": 65, "velocity": 103, "channel": 0}, {"type": "note_on", "time": 13, "note": 66, "velocity": 92, "channel": 0}, {"type": "note_off", "time": 130, "note": 66, "velocity": 92, "channel": 0}, {"type": "note_on", "time": 21, "note": 67, "velocity": 105, "channel": 0}, {"type": "note_off", "time": 171, "note": 67, "velocity": 105, "channel": 0}, {"type": "note_on", "time": 3, "note": 68, "velocity": 115, "channel": 0}, {"type": "note_off", "time": 313, "note": 68, "velocity": 115, "channel": 0}, {"type": "note_on", "time": 4, "note": 66, "velocity": 102, "channel": 0}, {"type": "note_off", "time": 98, "note": 66, "velocity": 102, "channel": 0}, {"type": "note_on", "time": 16, "note": 65, "velocity": 112, "channel": 0}, {"type": "note_off", "time": 68, "note": 65, "velocity": 112, "channel": 0}, {"type": "note_on", "time": 0, "note": 67, "velocity": 118, "channel": 0}, {"type": "note_off", "time": 451, "note": 67, "velocity": 118, "channel": 0}, {"type": "note_on", "time": 0, "note": 63, "velocity": 99, "channel": 0}, {"type": "note_off", "time": 155, "note": 63, "velocity": 99, "channel": 0}, {"type": "note_on", "time": 29, "note": 61, "velocity": 94, "channel": 0}, {"type": "note_off", "time": 183, "note": 61, "velocity": 94, "channel": 0}, {"type": "note_on", "time": 7, "note": 65, "velocity": 118, "channel": 0}, {"type": "note_off", "time": 269, "note": 65, "velocity": 118, "channel": 0}, {"type": "note_on", "time": 8, "note": 67, "velocity": 104, "channel": 0}, {"type": "note_off", "time": 157, "note": 67, "velocity": 104, "channel": 0}, {"type": "note_on", "time": 9, "note": 68, "velocity": 100, "channel": 0}, {"type": "note_off", "time": 279, "note": 68, "velocity": 100, "channel": 0}, {"type": "note_on", "time": 8, "note": 70, "velocity": 92, "channel": 0}, {"type": "note_off", "time": 127, "note": 70, "velocity": 92, "channel": 0}, {"type": "note_on", "time": 5, "note": 71, "velocity": 106, "channel": 0}, {"type": "note_off", "time": 247, "note": 71, "velocity": 106, "channel": 0}, {"type": "note_on", "time": 10, "note": 72, "velocity": 101, "channel": 0}, {"type": "note_off", "time": 108, "note": 72, "velocity": 101, "channel": 0}, {"type": "note_on", "time": 5, "note": 71, "velocity": 108, "channel": 0}, {"type": "note_off", "time": 187, "note": 71, "velocity": 108, "channel": 0}, {"type": "note_on", "time": 8, "note": 70, "velocity": 110, "channel": 0}, {"type": "note_off", "time": 112, "note": 70, "velocity": 110, "channel": 0}, {"type": "note_on", "time": 9, "note": 69, "velocity": 117, "channel": 0}, {"type": "note_off", "time": 176, "note": 69, "velocity": 117, "channel": 0}, {"type": "note_on", "time": 34, "note": 68, "velocity": 104, "channel": 0}, {"type": "note_off", "time": 245, "note": 68, "velocity": 104, "channel": 0}, {"type": "note_on", "time": 0, "note": 70, "velocity": 89, "channel": 0}, {"type": "note_off", "time": 183, "note": 70, "velocity": 89, "channel": 0}, {"type": "note_on", "time": 285, "note": 74, "velocity": 85, "channel": 0}, {"type": "note_off", "time": 142, "note": 74, "velocity": 85, "channel": 0}, {"type": "note_on", "time": 40, "note": 79, "velocity": 123, "channel": 0}, {"type": "note_off", "time": 170, "note": 79, "velocity": 123, "channel": 0}, {"type": "note_on", "time": 3, "note": 78, "velocity": 119, "channel": 0}, {"type": "note_off", "time": 206, "note": 78, "velocity": 119, "channel": 0}, {"type": "note_on", "time": 15, "note": 77, "velocity": 124, "channel": 0}, {"type": "note_off", "time": 172, "note": 77, "velocity": 124, "channel": 0}, {"type": "note_on", "time": 15, "note": 77, "velocity": 121, "channel": 0}, {"type": "note_off", "time": 126, "note": 77, "velocity": 121, "channel": 0}, {"type": "note_on", "time": 12, "note": 76, "velocity": 126, "channel": 0}, {"type": "note_off", "time": 147, "note": 76, "velocity": 126, "channel": 0}, {"type": "note_on", "time": 12, "note": 75, "velocity": 124, "channel": 0}, {"type": "note_off", "time": 207, "note": 75, "velocity": 124, "channel": 0}, {"type": "note_on", "time": 993, "note": 69, "velocity": 110, "channel": 0}, {"type": "note_off", "time": 190, "note": 69, "velocity": 110, "channel": 0}, {"type": "note_on", "time": 14, "note": 70, "velocity": 95, "channel": 0}, {"type": "note_off", "time": 147, "note": 70, "velocity": 95, "channel": 0}, {"type": "note_on", "time": 32, "note": 74, "velocity": 125, "channel": 0}, {"type": "note_off", "time": 258, "note": 74, "velocity": 125, "channel": 0}, {"type": "note_on", "time": 0, "note": 77, "velocity": 115, "channel": 0}, {"type": "note_off", "time": 210, "note": 77, "velocity": 115, "channel": 0}, {"type": "note_on", "time": 3, "note": 74, "velocity": 101, "channel": 0}, {"type": "note_off", "time": 95, "note": 74, "velocity": 101, "channel": 0}, {"type": "note_on", "time": 41, "note": 72, "velocity": 88, "channel": 0}, {"type": "note_off", "time": 166, "note": 72, "velocity": 88, "channel": 0}, {"type": "note_on", "time": 8, "note": 74, "velocity": 108, "channel": 0}, {"type": "note_off", "time": 160, "note": 74, "velocity": 108, "channel": 0}, {"type": "note_on", "time": 20, "note": 75, "velocity": 118, "channel": 0}, {"type": "note_off", "time": 258, "note": 75, "velocity": 118, "channel": 0}, {"type": "note_on", "time": 20, "note": 70, "velocity": 101, "channel": 0}, {"type": "note_off", "time": 163, "note": 70, "velocity": 101, "channel": 0}, {"type": "note_on", "time": 2384, "note": 68, "velocity": 124, "channel": 0}, {"type": "note_off", "time": 566, "note": 68, "velocity": 124, "channel": 0}, {"type": "note_on", "time": 343, "note": 70, "velocity": 103, "channel": 0}, {"type": "note_off", "time": 533, "note": 70, "velocity": 103, "channel": 0}, {"type": "note_on", "time": 404, "note": 72, "velocity": 110, "channel": 0}, {"type": "note_off", "time": 539, "note": 72, "velocity": 110, "channel": 0}, {"type": "note_on", "time": 104, "note": 73, "velocity": 117, "channel": 0}, {"type": "note_off", "time": 422, "note": 73, "velocity": 117, "channel": 0}, {"type": "note_on", "time": 196, "note": 70, "velocity": 108, "channel": 0}, {"type": "note_off", "time": 367, "note": 70, "velocity": 108, "channel": 0}, {"type": "note_on", "time": 85, "note": 72, "velocity": 111, "channel": 0}, {"type": "note_off", "time": 343, "note": 72, "velocity": 111, "channel": 0}, {"type": "note_on", "time": 232, "note": 68, "velocity": 120, "channel": 0}, {"type": "note_off", "time": 245, "note": 68, "velocity": 120, "channel": 0}, {"type": "note_on", "time": 17, "note": 70, "velocity": 107, "channel": 0}, {"type": "note_off", "time": 239, "note": 70, "velocity": 107, "channel": 0}, {"type": "note_on", "time": 49, "note": 66, "velocity": 115, "channel": 0}, {"type": "note_off", "time": 274, "note": 66, "velocity": 115, "channel": 0}, {"type": "note_on", "time": 8, "note": 68, "velocity": 103, "channel": 0}, {"type": "note_off", "time": 212, "note": 68, "velocity": 103, "channel": 0}, {"type": "note_on", "time": 31, "note": 65, "velocity": 112, "channel": 0}, {"type": "note_off", "time": 367, "note": 65, "velocity": 112, "channel": 0}, {"type": "note_on", "time": 1123, "note": 67, "velocity": 114, "channel": 0}, {"type": "note_off", "time": 156, "note": 67, "velocity": 114, "channel": 0}, {"type": "note_on", "time": 8, "note": 65, "velocity": 117, "channel": 0}, {"type": "note_off", "time": 302, "note": 65, "velocity": 117, "channel": 0}, {"type": "note_on", "time": 6, "note": 64, "velocity": 94, "channel": 0}, {"type": "note_off", "time": 204, "note": 64, "velocity": 94, "channel": 0}, {"type": "note_on", "time": 44, "note": 55, "velocity": 90, "channel": 0}, {"type": "note_off", "time": 163, "note": 55, "velocity": 90, "channel": 0}, {"type": "note_on", "time": 14, "note": 58, "velocity": 80, "channel": 0}, {"type": "note_off", "time": 125, "note": 58, "velocity": 80, "channel": 0}, {"type": "note_on", "time": 8, "note": 61, "velocity": 103, "channel": 0}, {"type": "note_off", "time": 241, "note": 61, "velocity": 103, "channel": 0}, {"type": "note_on", "time": 6, "note": 60, "velocity": 102, "channel": 0}, {"type": "note_off", "time": 168, "note": 60, "velocity": 102, "channel": 0}, {"type": "note_on", "time": 47, "note": 58, "velocity": 89, "channel": 0}, {"type": "note_off", "time": 163, "note": 58, "velocity": 89, "channel": 0}, {"type": "note_on", "time": 12, "note": 57, "velocity": 95, "channel": 0}, {"type": "note_off", "time": 114, "note": 57, "velocity": 95, "channel": 0}, {"type": "note_on", "time": 2, "note": 61, "velocity": 93, "channel": 0}, {"type": "note_off", "time": 185, "note": 61, "velocity": 93, "channel": 0}, {"type": "note_on", "time": 2, "note": 64, "velocity": 97, "channel": 0}, {"type": "note_off", "time": 125, "note": 64, "velocity": 97, "channel": 0}, {"type": "note_on", "time": 0, "note": 67, "velocity": 115, "channel": 0}, {"type": "note_off", "time": 250, "note": 67, "velocity": 115, "channel": 0}, {"type": "note_on", "time": 29, "note": 64, "velocity": 91, "channel": 0}, {"type": "note_off", "time": 149, "note": 64, "velocity": 91, "channel": 0}, {"type": "note_on", "time": 5, "note": 65, "velocity": 97, "channel": 0}, {"type": "note_off", "time": 217, "note": 65, "velocity": 97, "channel": 0}, {"type": "note_on", "time": 0, "note": 67, "velocity": 104, "channel": 0}, {"type": "note_off", "time": 190, "note": 67, "velocity": 104, "channel": 0}, {"type": "note_on", "time": 6, "note": 69, "velocity": 111, "channel": 0}, {"type": "note_off", "time": 238, "note": 69, "velocity": 111, "channel": 0}, {"type": "note_on", "time": 11, "note": 70, "velocity": 96, "channel": 0}, {"type": "note_off", "time": 144, "note": 70, "velocity": 96, "channel": 0}, {"type": "note_on", "time": 0, "note": 72, "velocity": 108, "channel": 0}, {"type": "note_off", "time": 224, "note": 72, "velocity": 108, "channel": 0}, {"type": "note_on", "time": 11, "note": 70, "velocity": 107, "channel": 0}, {"type": "note_off", "time": 173, "note": 70, "velocity": 107, "channel": 0}, {"type": "note_on", "time": 20, "note": 69, "velocity": 120, "channel": 0}, {"type": "note_off", "time": 242, "note": 69, "velocity": 120, "channel": 0}, {"type": "note_on", "time": 10, "note": 65, "velocity": 116, "channel": 0}, {"type": "note_off", "time": 168, "note": 65, "velocity": 116, "channel": 0}, {"type": "note_on", "time": 5, "note": 62, "velocity": 97, "channel": 0}, {"type": "note_off", "time": 255, "note": 62, "velocity": 97, "channel": 0}, {"type": "note_on", "time": 151, "note": 71, "velocity": 103, "channel": 0}, {"type": "note_off", "time": 102, "note": 71, "velocity": 103, "channel": 0}, {"type": "note_on", "time": 0, "note": 73, "velocity": 100, "channel": 0}, {"type": "note_off", "time": 138, "note": 73, "velocity": 100, "channel": 0}, {"type": "note_on", "time": 8, "note": 71, "velocity": 100, "channel": 0}, {"type": "note_off", "time": 228, "note": 71, "velocity": 100, "channel": 0}, {"type": "note_on", "time": 11, "note": 70, "velocity": 113, "channel": 0}, {"type": "note_off", "time": 268, "note": 70, "velocity": 113, "channel": 0}, {"type": "note_on", "time": 10, "note": 69, "velocity": 118, "channel": 0}, {"type": "note_off", "time": 193, "note": 69, "velocity": 118, "channel": 0}, {"type": "note_on", "time": 22, "note": 68, "velocity": 106, "channel": 0}, {"type": "note_off", "time": 509, "note": 68, "velocity": 106, "channel": 0}, {"type": "note_on", "time": 1360, "note": 70, "velocity": 122, "channel": 0}, {"type": "note_off", "time": 302, "note": 70, "velocity": 122, "channel": 0}, {"type": "note_on", "time": 12, "note": 68, "velocity": 117, "channel": 0}, {"type": "note_off", "time": 272, "note": 68, "velocity": 117, "channel": 0}, {"type": "note_on", "time": 10, "note": 66, "velocity": 101, "channel": 0}, {"type": "note_off", "time": 163, "note": 66, "velocity": 101, "channel": 0}, {"type": "note_on", "time": 10, "note": 67, "velocity": 107, "channel": 0}, {"type": "note_off", "time": 939, "note": 67, "velocity": 107, "channel": 0}, {"type": "note_on", "time": 3, "note": 69, "velocity": 114, "channel": 0}, {"type": "note_off", "time": 204, "note": 69, "velocity": 114, "channel": 0}, {"type": "note_on", "time": 10, "note": 68, "velocity": 114, "channel": 0}, {"type": "note_off", "time": 174, "note": 68, "velocity": 114, "channel": 0}, {"type": "note_on", "time": 49, "note": 65, "velocity": 113, "channel": 0}, {"type": "note_off", "time": 231, "note": 65, "velocity": 113, "channel": 0}, {"type": "note_on", "time": 10, "note": 63, "velocity": 104, "channel": 0}, {"type": "note_off", "time": 408, "note": 63, "velocity": 104, "channel": 0}, {"type": "note_on", "time": 6, "note": 58, "velocity": 89, "channel": 0}, {"type": "note_off", "time": 690, "note": 58, "velocity": 89, "channel": 0}, {"type": "note_on", "time": 130, "note": 59, "velocity": 86, "channel": 0}, {"type": "note_off", "time": 544, "note": 59, "velocity": 86, "channel": 0}, {"type": "note_on", "time": 12, "note": 63, "velocity": 99, "channel": 0}, {"type": "note_off", "time": 204, "note": 63, "velocity": 99, "channel": 0}, {"type": "note_on", "time": 3, "note": 66, "velocity": 111, "channel": 0}, {"type": "note_off", "time": 242, "note": 66, "velocity": 111, "channel": 0}, {"type": "note_on", "time": 52, "note": 67, "velocity": 118, "channel": 0}, {"type": "note_off", "time": 228, "note": 67, "velocity": 118, "channel": 0}, {"type": "note_on", "time": 23, "note": 68, "velocity": 124, "channel": 0}, {"type": "note_off", "time": 408, "note": 68, "velocity": 124, "channel": 0}, {"type": "note_on", "time": 31, "note": 70, "velocity": 95, "channel": 0}, {"type": "note_off", "time": 125, "note": 70, "velocity": 95, "channel": 0}, {"type": "note_on", "time": 17, "note": 68, "velocity": 117, "channel": 0}, {"type": "note_off", "time": 105, "note": 68, "velocity": 117, "channel": 0}, {"type": "note_on", "time": 6, "note": 67, "velocity": 116, "channel": 0}, {"type": "note_off", "time": 446, "note": 67, "velocity": 116, "channel": 0}, {"type": "note_on", "time": 10, "note": 65, "velocity": 119, "channel": 0}, {"type": "note_off", "time": 377, "note": 65, "velocity": 119, "channel": 0}, {"type": "note_on", "time": 47, "note": 64, "velocity": 101, "channel": 0}, {"type": "note_off", "time": 367, "note": 64, "velocity": 101, "channel": 0}, {"type": "note_on", "time": 104, "note": 61, "velocity": 107, "channel": 0}, {"type": "note_off", "time": 357, "note": 61, "velocity": 107, "channel": 0}, {"type": "note_on", "time": 8, "note": 60, "velocity": 97, "channel": 0}, {"type": "note_off", "time": 490, "note": 60, "velocity": 97, "channel": 0}, {"type": "note_on", "time": 15, "note": 58, "velocity": 86, "channel": 0}, {"type": "note_off", "time": 275, "note": 58, "velocity": 86, "channel": 0}, {"type": "note_on", "time": 163, "note": 60, "velocity": 96, "channel": 0}, {"type": "note_off", "time": 147, "note": 60, "velocity": 96, "channel": 0}, {"type": "note_on", "time": 6, "note": 63, "velocity": 104, "channel": 0}, {"type": "note_off", "time": 146, "note": 63, "velocity": 104, "channel": 0}, {"type": "note_on", "time": 0, "note": 67, "velocity": 125, "channel": 0}, {"type": "note_off", "time": 333, "note": 67, "velocity": 125, "channel": 0}, {"type": "note_on", "time": 1, "note": 65, "velocity": 124, "channel": 0}, {"type": "note_off", "time": 476, "note": 65, "velocity": 124, "channel": 0}, {"type": "note_on", "time": 46, "note": 61, "velocity": 104, "channel": 0}, {"type": "note_off", "time": 292, "note": 61, "velocity": 104, "channel": 0}, {"type": "note_on", "time": 12, "note": 60, "velocity": 84, "channel": 0}, {"type": "note_off", "time": 163, "note": 60, "velocity": 84, "channel": 0}, {"type": "note_on", "time": 14, "note": 61, "velocity": 103, "channel": 0}, {"type": "note_off", "time": 275, "note": 61, "velocity": 103, "channel": 0}, {"type": "note_on", "time": 0, "note": 59, "velocity": 93, "channel": 0}, {"type": "note_off", "time": 139, "note": 59, "velocity": 93, "channel": 0}, {"type": "note_on", "time": 16, "note": 57, "velocity": 99, "channel": 0}, {"type": "note_off", "time": 315, "note": 57, "velocity": 99, "channel": 0}, {"type": "note_on", "time": 14, "note": 58, "velocity": 95, "channel": 0}, {"type": "note_off", "time": 299, "note": 58, "velocity": 95, "channel": 0}, {"type": "note_on", "time": 17, "note": 56, "velocity": 105, "channel": 0}, {"type": "note_off", "time": 307, "note": 56, "velocity": 105, "channel": 0}, {"type": "note_on", "time": 11, "note": 55, "velocity": 101, "channel": 0}, {"type": "note_off", "time": 183, "note": 55, "velocity": 101, "channel": 0}, {"type": "note_on", "time": 22, "note": 58, "velocity": 90, "channel": 0}, {"type": "note_off", "time": 125, "note": 58, "velocity": 90, "channel": 0}, {"type": "note_on", "time": 12, "note": 62, "velocity": 109, "channel": 0}, {"type": "note_off", "time": 193, "note": 62, "velocity": 109, "channel": 0}, {"type": "note_on", "time": 98, "note": 65, "velocity": 122, "channel": 0}, {"type": "note_off", "time": 451, "note": 65, "velocity": 122, "channel": 0}, {"type": "note_on", "time": 87, "note": 66, "velocity": 118, "channel": 0}, {"type": "note_off", "time": 364, "note": 66, "velocity": 118, "channel": 0}, {"type": "note_on", "time": 49, "note": 61, "velocity": 95, "channel": 0}, {"type": "note_off", "time": 200, "note": 61, "velocity": 95, "channel": 0}, {"type": "note_on", "time": 8, "note": 58, "velocity": 91, "channel": 0}, {"type": "note_off", "time": 157, "note": 58, "velocity": 91, "channel": 0}, {"type": "note_on", "time": 17, "note": 56, "velocity": 101, "channel": 0}, {"type": "note_off", "time": 452, "note": 56, "velocity": 101, "channel": 0}, {"type": "note_on", "time": 0, "note": 63, "velocity": 103, "channel": 0}, {"type": "note_off", "time": 309, "note": 63, "velocity": 103, "channel": 0}, {"type": "note_on", "time": 0, "note": 66, "velocity": 105, "channel": 0}, {"type": "note_off", "time": 171, "note": 66, "velocity": 105, "channel": 0}, {"type": "note_on", "time": 9, "note": 67, "velocity": 104, "channel": 0}, {"type": "note_off", "time": 908, "note": 67, "velocity": 104, "channel": 0}, {"type": "note_on", "time": 2, "note": 70, "velocity": 106, "channel": 0}, {"type": "note_off", "time": 476, "note": 70, "velocity": 106, "channel": 0}, {"type": "end_of_track", "time": 0}]]}