{"ticks_per_beat": 192, "tracks": [[{"type": "track_name", "name": "Melody", "time": 0}, {"type": "set_tempo", "tempo": 200668, "time": 0}, {"type": "key_signature", "key": "Bb", "time": 0}, {"type": "time_signature", "numerator": 4, "denominator": 4, "clocks_per_click": 24, "notated_32nd_notes_per_beat": 8, "time": 0}, {"type": "note_on", "time": 27812, "note": 64, "velocity": 111, "channel": 0}, {"type": "note_on", "time": 122, "note": 63, "velocity": 119, "channel": 0}, {"type": "note_off", "time": 0, "note": 64, "velocity": 111, "channel": 0}, {"type": "note_off", "time": 44, "note": 63, "velocity": 119, "channel": 0}, {"type": "note_on", "time": 11, "note": 64, "velocity": 110, "channel": 0}, {"type": "note_off", "time": 149, "note": 64, "velocity": 110, "channel": 0}, {"type": "note_on", "time": 41, "note": 65, "velocity": 112, "channel": 0}, {"type": "note_off", "time": 41, "note": 65, "velocity": 112, "channel": 0}, {"type": "note_on", "time": 19, "note": 66, "velocity": 111, "channel": 0}, {"type": "note_off", "time": 47, "note": 66, "velocity": 111, "channel": 0}, {"type": "note_on", "time": 11, "note": 68, "velocity": 112, "channel": 0}, {"type": "note_off", "time": 83, "note": 68, "velocity": 112, "channel": 0}, {"type": "note_on", "time": 0, "note": 70, "velocity": 108, "channel": 0}, {"type": "note_off", "time": 63, "note": 70, "velocity": 108, "channel": 0}, {"type": "note_on", "time": 2, "note": 74, "velocity": 122, "channel": 0}, {"type": "note_off", "time": 116, "note": 74, "velocity": 122, "channel": 0}, {"type": "note_on", "time": 8, "note": 75, "velocity": 120, "channel": 0}, {"type": "note_off", "time": 38, "note": 75, "velocity": 120, "channel": 0}, {"type": "note_on", "time": 24, "note": 78, "velocity": 117, "channel": 0}, {"type": "note_off", "time": 130, "note": 78, "velocity": 117, "channel": 0}, {"type": "note_on", "time": 24, "note": 74, "velocity": 116, "channel": 0}, {"type": "note_off", "time": 124, "note": 74, "velocity": 116, "channel": 0}, {"type": "note_on", "time": 11, "note": 78, "velocity": 111, "channel": 0}, {"type": "note_off", "time": 127, "note": 78, "velocity": 111, "channel": 0}, {"type": "note_on", "time": 19, "note": 73, "velocity": 112, "channel": 0}, {"type": "note_off", "time": 288, "note": 73, "velocity": 112, "channel": 0}, {"type": "note_on", "time": 1482, "note": 62, "velocity": 112, "channel": 0}, {"type": "note_off", "time": 102, "note": 62, "velocity": 112, "channel": 0}, {"type": "note_on", "time": 5, "note": 61, "velocity": 113, "channel": 0}, {"type": "note_off", "time": 44, "note": 61, "velocity": 113, "channel": 0}, {"type": "note_on", "time": 27, "note": 62, "velocity": 117, "channel": 0}, {"type": "note_off", "time": 144, "note": 62, "velocity": 117, "channel": 0}, {"type": "note_on", "time": 13, "note": 64, "velocity": 109, "channel": 0}, {"type": "note_off", "time": 55, "note": 64, "velocity": 109, "channel": 0}, {"type": "note_on", "time": 24, "note": 66, "velocity": 111, "channel": 0}, {"type": "note_off", "time": 83, "note": 66, "velocity": 111, "channel": 0}, {"type": "note_on", "time": 19, "note": 68, "velocity": 112, "channel": 0}, {"type": "note_off", "time": 133, "note": 68, "velocity": 112, "channel": 0}, {"type": "note_on", "time": 0, "note": 72, "velocity": 123, "channel": 0}, {"type": "note_off", "time": 99, "note": 72, "velocity": 123, "channel": 0}, {"type": "note_on", "time": 13, "note": 76, "velocity": 119, "channel": 0}, {"type": "note_off", "time": 169, "note": 76, "velocity": 119, "channel": 0}, {"type": "note_on", "time": 16, "note": 72, "velocity": 121, "channel": 0}, {"type": "note_off", "time": 133, "note": 72, "velocity": 121, "channel": 0}, {"type": "note_on", "time": 11, "note": 76, "velocity": 121, "channel": 0}, {"type": "note_off", "time": 122, "note": 76, "velocity": 121, "channel": 0}, {"type": "note_on", "time": 2, "note": 71, "velocity": 106, "channel": 0}, {"type": "note_off", "time": 399, "note": 71, "velocity": 106, "channel": 0}, {"type": "note_on", "time": 58, "note": 76, "velocity": 118, "channel": 0}, {"type": "note_off", "time": 97, "note": 76, "velocity": 118, "channel": 0}, {"type": "note_on", "time": 11, "note": 74, "velocity": 115, "channel": 0}, {"type": "note_off", "time": 52, "note": 74, "velocity": 115, "channel": 0}, {"type": "note_on", "time": 2, "note": 73, "velocity": 112, "channel": 0}, {"type": "note_off", "time": 38, "note": 73, "velocity": 112, "channel": 0}, {"type": "note_on", "time": 49, "note": 64, "velocity": 100, "channel": 0}, {"type": "note_off", "time": 74, "note": 64, "velocity": 100, "channel": 0}, {"type": "note_on", "time": 8, "note": 66, "velocity": 107, "channel": 0}, {"type": "note_off", "time": 74, "note": 66, "velocity": 107, "channel": 0}, {"type": "note_on", "time": 5, "note": 68, "velocity": 116, "channel": 0}, {"type": "note_off", "time": 94, "note": 68, "velocity": 116, "channel": 0}, {"type": "note_on", "time": 22, "note": 71, "velocity": 118, "channel": 0}, {"type": "note_off", "time": 86, "note": 71, "velocity": 118, "channel": 0}, {"type": "note_on", "time": 2, "note": 68, "velocity": 115, "channel": 0}, {"type": "note_off", "time": 102, "note": 68, "velocity": 115, "channel": 0}, {"type": "note_on", "time": 0, "note": 69, "velocity": 107, "channel": 0}, {"type": "note_off", "time": 69, "note": 69, "velocity": 107, "channel": 0}, {"type": "note_on", "time": 13, "note": 71, "velocity": 104, "channel": 0}, {"type": "note_off", "time": 58, "note": 71, "velocity": 104, "channel": 0}, {"type": "note_on", "time": 11, "note": 73, "velocity": 121, "channel": 0}, {"type": "note_off", "time": 119, "note": 73, "velocity": 121, "channel": 0}, {"type": "note_on", "time": 8, "note": 76, "velocity": 118, "channel": 0}, {"type": "note_off", "time": 177, "note": 76, "velocity": 118, "channel": 0}, {"type": "note_on", "time": 441, "note": 69, "velocity": 121, "channel": 0}, {"type": "note_off", "time": 138, "note": 69, "velocity": 121, "channel": 0}, {"type": "note_on", "time": 8, "note": 72, "velocity": 108, "channel": 0}, {"type": "note_on", "time": 72, "note": 76, "velocity": 119, "channel": 0}, {"type": "note_off", "time": 0, "note": 72, "velocity": 108, "channel": 0}, {"type": "note_off", "time": 77, "note": 76, "velocity": 119, "channel": 0}, {"type": "note_on", "time": 8, "note": 79, "velocity": 122, "channel": 0}, {"type": "note_off", "time": 91, "note": 79, "velocity": 122, "channel": 0}, {"type": "note_on", "time": 11, "note": 78, "velocity": 126, "channel": 0}, {"type": "note_off", "time": 83, "note": 78, "velocity": 126, "channel": 0}, {"type": "note_on", "time": 16, "note": 76, "velocity": 125, "channel": 0}, {"type": "note_off", "time": 97, "note": 76, "velocity": 125, "channel": 0}, {"type": "note_on", "time": 16, "note": 74, "velocity": 116, "channel": 0}, {"type": "note_off", "time": 102, "note": 74, "velocity": 116, "channel": 0}, {"type": "note_on", "time": 0, "note": 73, "velocity": 119, "channel": 0}, {"type": "note_off", "time": 61, "note": 73, "velocity": 119, "channel": 0}, {"type": "note_on", "time": 27, "note": 72, "velocity": 124, "channel": 0}, {"type": "note_off", "time": 138, "note": 72, "velocity": 124, "channel": 0}, {"type": "note_on", "time": 460, "note": 74, "velocity": 120, "channel": 0}, {"type": "note_off", "time": 97, "note": 74, "velocity": 120, "channel": 0}, {"type": "note_on", "time": 2, "note": 72, "velocity": 114, "channel": 0}, {"type": "note_off", "time": 94, "note": 72, "velocity": 114, "channel": 0}, {"type": "note_on", "time": 11, "note": 67, "velocity": 107, "channel": 0}, {"type": "note_off", "time": 99, "note": 67, "velocity": 107, "channel": 0}, {"type": "note_on", "time": 19, "note": 64, "velocity": 112, "channel": 0}, {"type": "note_off", "time": 102, "note": 64, "velocity": 112, "channel": 0}, {"type": "note_on", "time": 16, "note": 63, "velocity": 115, "channel": 0}, {"type": "note_off", "time": 86, "note": 63, "velocity": 115, "channel": 0}, {"type": "note_on", "time": 19, "note": 62, "velocity": 107, "channel": 0}, {"type": "note_off", "time": 80, "note": 62, "velocity": 107, "channel": 0}, {"type": "note_on", "time": 13, "note": 59, "velocity": 99, "channel": 0}, {"type": "note_off", "time": 74, "note": 59, "velocity": 99, "channel": 0}, {"type": "note_on", "time": 11, "note": 60, "velocity": 102, "channel": 0}, {"type": "note_off", "time": 69, "note": 60, "velocity": 102, "channel": 0}, {"type": "note_on", "time": 11, "note": 68, "velocity": 109, "channel": 0}, {"type": "note_off", "time": 58, "note": 68, "velocity": 109, "channel": 0}, {"type": "note_on", "time": 33, "note": 69, "velocity": 121, "channel": 0}, {"type": "note_off", "time": 80, "note": 69, "velocity": 121, "channel": 0}, {"type": "note_on", "time": 5, "note": 66, "velocity": 105, "channel": 0}, {"type": "note_off", "time": 77, "note": 66, "velocity": 105, "channel": 0}, {"type": "note_on", "time": 19, "note": 67, "velocity": 98, "channel": 0}, {"type": "note_off", "time": 58, "note": 67, "velocity": 98, "channel": 0}, {"type": "note_on", "time": 8, "note": 68, "velocity": 99, "channel": 0}, {"type": "note_off", "time": 47, "note": 68, "velocity": 99, "channel": 0}, {"type": "note_on", "time": 5, "note": 74, "velocity": 110, "channel": 0}, {"type": "note_off", "time": 44, "note": 74, "velocity": 110, "channel": 0}, {"type": "note_on", "time": 5, "note": 77, "velocity": 120, "channel": 0}, {"type": "note_off", "time": 141, "note": 77, "velocity": 120, "channel": 0}, {"type": "note_on", "time": 16, "note": 75, "velocity": 115, "channel": 0}, {"type": "note_off", "time": 105, "note": 75, "velocity": 115, "channel": 0}, {"type": "note_on", "time": 19, "note": 76, "velocity": 119, "channel": 0}, {"type": "note_off", "time": 144, "note": 76, "velocity": 119, "channel": 0}, {"type": "note_on", "time": 0, "note": 72, "velocity": 94, "channel": 0}, {"type": "note_off", "time": 36, "note": 72, "velocity": 94, "channel": 0}, {"type": "note_on", "time": 16, "note": 73, "velocity": 99, "channel": 0}, {"type": "note_off", "time": 74, "note": 73, "velocity": 99, "channel": 0}, {"type": "note_on", "time": 0, "note": 74, "velocity": 121, "channel": 0}, {"type": "note_off", "time": 111, "note": 74, "velocity": 121, "channel": 0}, {"type": "note_on", "time": 13, "note": 72, "velocity": 116, "channel": 0}, {"type": "note_off", "time": 77, "note": 72, "velocity": 116, "channel": 0}, {"type": "note_on", "time": 13, "note": 70, "velocity": 110, "channel": 0}, {"type": "note_off", "time": 74, "note": 70, "velocity": 110, "channel": 0}, {"type": "note_on", "time": 13, "note": 69, "velocity": 120, "channel": 0}, {"type": "note_off", "time": 66, "note": 69, "velocity": 120, "channel": 0}, {"type": "note_on", "time": 13, "note": 67, "velocity": 122, "channel": 0}, {"type": "note_off", "time": 105, "note": 67, "velocity": 122, "channel": 0}, {"type": "note_on", "time": 0, "note": 65, "velocity": 116, "channel": 0}, {"type": "note_off", "time": 111, "note": 65, "velocity": 116, "channel": 0}, {"type": "note_on", "time": 11, "note": 64, "velocity": 104, "channel": 0}, {"type": "note_off", "time": 69, "note": 64, "velocity": 104, "channel": 0}, {"type": "note_on", "time": 5, "note": 67, "velocity": 106, "channel": 0}, {"type": "note_off", "time": 72, "note": 67, "velocity": 106, "channel": 0}, {"type": "note_on", "time": 19, "note": 70, "velocity": 117, "channel": 0}, {"type": "note_off", "time": 69, "note": 70, "velocity": 117, "channel": 0}, {"type": "note_on", "time": 2, "note": 74, "velocity": 119, "channel": 0}, {"type": "note_off", "time": 130, "note": 74, "velocity": 119, "channel": 0}, {"type": "note_on", "time": 0, "note": 72, "velocity": 91, "channel": 0}, {"type": "note_off", "time": 69, "note": 72, "velocity": 91, "channel": 0}, {"type": "note_on", "time": 66, "note": 72, "velocity": 116, "channel": 0}, {"type": "note_off", "time": 138, "note": 72, "velocity": 116, "channel": 0}, {"type": "note_on", "time": 0, "note": 74, "velocity": 113, "channel": 0}, {"type": "note_off", "time": 69, "note": 74, "velocity": 113, "channel": 0}, {"type": "note_on", "time": 0, "note": 75, "velocity": 118, "channel": 0}, {"type": "note_off", "time": 41, "note": 75, "velocity": 118, "channel": 0}, {"type": "note_on", "time": 19, "note": 74, "velocity": 125, "channel": 0}, {"type": "note_off", "time": 108, "note": 74, "velocity": 125, "channel": 0}, {"type": "note_on", "time": 2, "note": 73, "velocity": 122, "channel": 0}, {"type": "note_on", "time": 72, "note": 72, "velocity": 115, "channel": 0}, {"type": "note_off", "time": 0, "note": 73, "velocity": 122, "channel": 0}, {"type": "note_off", "time": 74, "note": 72, "velocity": 115, "channel": 0}, {"type": "note_on", "time": 19, "note": 71, "velocity": 116, "channel": 0}, {"type": "note_off", "time": 66, "note": 71, "velocity": 116, "channel": 0}, {"type": "note_on", "time": 11, "note": 68, "velocity": 97, "channel": 0}, {"type": "note_off", "time": 49, "note": 68, "velocity": 97, "channel": 0}, {"type": "note_on", "time": 8, "note": 66, "velocity": 120, "channel": 0}, {"type": "note_off", "time": 94, "note": 66, "velocity": 120, "channel": 0}, {"type": "note_on", "time": 27, "note": 63, "velocity": 107, "channel": 0}, {"type": "note_off", "time": 88, "note": 63, "velocity": 107, "channel": 0}, {"type": "note_on", "time": 0, "note": 60, "velocity": 96, "channel": 0}, {"type": "note_off", "time": 77, "note": 60, "velocity": 96, "channel": 0}, {"type": "note_on", "time": 8, "note": 62, "velocity": 113, "channel": 0}, {"type": "note_off", "time": 124, "note": 62, "velocity": 113, "channel": 0}, {"type": "note_on", "time": 2, "note": 58, "velocity": 97, "channel": 0}, {"type": "note_off", "time": 88, "note": 58, "velocity": 97, "channel": 0}, {"type": "note_on", "time": 8, "note": 55, "velocity": 100, "channel": 0}, {"type": "note_off", "time": 91, "note": 55, "velocity": 100, "channel": 0}, {"type": "note_on", "time": 8, "note": 57, "velocity": 101, "channel": 0}, {"type": "note_off", "time": 88, "note": 57, "velocity": 101, "channel": 0}, {"type": "note_on", "time": 13, "note": 60, "velocity": 104, "channel": 0}, {"type": "note_off", "time": 88, "note": 60, "velocity": 104, "channel": 0}, {"type": "note_on", "time": 24, "note": 58, "velocity": 101, "channel": 0}, {"type": "note_off", "time": 72, "note": 58, "velocity": 101, "channel": 0}, {"type": "note_on", "time": 0, "note": 57, "velocity": 98, "channel": 0}, {"type": "note_off", "time": 66, "note": 57, "velocity": 98, "channel": 0}, {"type": "note_on", "time": 30, "note": 58, "velocity": 97, "channel": 0}, {"type": "note_off", "time": 52, "note": 58, "velocity": 97, "channel": 0}, {"type": "note_on", "time": 5, "note": 62, "velocity": 112, "channel": 0}, {"type": "note_off", "time": 111, "note": 62, "velocity": 112, "channel": 0}, {"type": "note_on", "time": 22, "note": 65, "velocity": 107, "channel": 0}, {"type": "note_off", "time": 535, "note": 65, "velocity": 107, "channel": 0}, {"type": "note_on", "time": 866, "note": 68, "velocity": 124, "channel": 0}, {"type": "note_off", "time": 124, "note": 68, "velocity": 124, "channel": 0}, {"type": "note_on", "time": 2, "note": 69, "velocity": 120, "channel": 0}, {"type": "note_off", "time": 41, "note": 69, "velocity": 120, "channel": 0}, {"type": "note_on", "time": 8, "note": 68, "velocity": 126, "channel": 0}, {"type": "note_off", "time": 49, "note": 68, "velocity": 126, "channel": 0}, {"type": "note_on", "time": 19, "note": 67, "velocity": 121, "channel": 0}, {"type": "note_off", "time": 91, "note": 67, "velocity": 121, "channel": 0}, {"type": "note_on", "time": 22, "note": 66, "velocity": 123, "channel": 0}, {"type": "note_off", "time": 86, "note": 66, "velocity": 123, "channel": 0}, {"type": "note_on", "time": 16, "note": 65, "velocity": 111, "channel": 0}, {"type": "note_off", "time": 94, "note": 65, "velocity": 111, "channel": 0}, {"type": "note_on", "time": 19, "note": 63, "velocity": 110, "channel": 0}, {"type": "note_off", "time": 33, "note": 63, "velocity": 110, "channel": 0}, {"type": "note_on", "time": 8, "note": 62, "velocity": 104, "channel": 0}, {"type": "note_off", "time": 86, "note": 62, "velocity": 104, "channel": 0}, {"type": "note_on", "time": 5, "note": 60, "velocity": 107, "channel": 0}, {"type": "note_off", "time": 86, "note": 60, "velocity": 107, "channel": 0}, {"type": "note_on", "time": 13, "note": 58, "velocity": 102, "channel": 0}, {"type": "note_off", "time": 94, "note": 58, "velocity": 102, "channel": 0}, {"type": "note_on", "time": 16, "note": 57, "velocity": 105, "channel": 0}, {"type": "note_off", "time": 86, "note": 57, "velocity": 105, "channel": 0}, {"type": "note_on", "time": 19, "note": 56, "velocity": 107, "channel": 0}, {"type": "note_off", "time": 91, "note": 56, "velocity": 107, "channel": 0}, {"type": "note_on", "time": 0, "note": 60, "velocity": 112, "channel": 0}, {"type": "note_off", "time": 88, "note": 60, "velocity": 112, "channel": 0}, {"type": "note_on", "time": 2, "note": 55, "velocity": 110, "channel": 0}, {"type": "note_off", "time": 102, "note": 55, "velocity": 110, "channel": 0}, {"type": "note_on", "time": 0, "note": 57, "velocity": 99, "channel": 0}, {"type": "note_off", "time": 66, "note": 57, "velocity": 99, "channel": 0}, {"type": "note_on", "time": 16, "note": 60, "velocity": 100, "channel": 0}, {"type": "note_off", "time": 58, "note": 60, "velocity": 100, "channel": 0}, {"type": "note_on", "time": 13, "note": 62, "velocity": 100, "channel": 0}, {"type": "note_off", "time": 44, "note": 62, "velocity": 100, "channel": 0}, {"type": "note_on", "time": 13, "note": 65, "velocity": 116, "channel": 0}, {"type": "note_off", "time": 133, "note": 65, "velocity": 116, "channel": 0}, {"type": "note_on", "time": 22, "note": 63, "velocity": 97, "channel": 0}, {"type": "note_off", "time": 41, "note": 63, "velocity": 97, "channel": 0}, {"type": "note_on", "time": 33, "note": 67, "velocity": 106, "channel": 0}, {"type": "note_off", "time": 58, "note": 67, "velocity": 106, "channel": 0}, {"type": "note_on", "time": 16, "note": 70, "velocity": 100, "channel": 0}, {"type": "note_off", "time": 55, "note": 70, "velocity": 100, "channel": 0}, {"type": "note_on", "time": 5, "note": 74, "velocity": 112, "channel": 0}, {"type": "note_off", "time": 113, "note": 74, "velocity": 112, "channel": 0}, {"type": "note_on", "time": 30, "note": 72, "velocity": 100, "channel": 0}, {"type": "note_off", "time": 52, "note": 72, "velocity": 100, "channel": 0}, {"type": "note_on", "time": 11, "note": 74, "velocity": 117, "channel": 0}, {"type": "note_off", "time": 99, "note": 74, "velocity": 117, "channel": 0}, {"type": "note_on", "time": 16, "note": 72, "velocity": 97, "channel": 0}, {"type": "note_off", "time": 199, "note": 72, "velocity": 97, "channel": 0}, {"type": "note_on", "time": 455, "note": 72, "velocity": 126, "channel": 0}, {"type": "note_off", "time": 93, "note": 72, "velocity": 126, "channel": 0}, {"type": "note_on", "time": 3, "note": 73, "velocity": 123, "channel": 0}, {"type": "note_off", "time": 58, "note": 73, "velocity": 123, "channel": 0}, {"type": "note_on", "time": 11, "note": 72, "velocity": 122, "channel": 0}, {"type": "note_off", "time": 78, "note": 72, "velocity": 122, "channel": 0}, {"type": "note_on", "time": 7, "note": 70, "velocity": 111, "channel": 0}, {"type": "note_off", "time": 42, "note": 70, "velocity": 111, "channel": 0}, {"type": "note_on", "time": 3, "note": 66, "velocity": 124, "channel": 0}, {"type": "note_off", "time": 85, "note": 66, "velocity": 124, "channel": 0}, {"type": "note_on", "time": 23, "note": 63, "velocity": 99, "channel": 0}, {"type": "note_off", "time": 97, "note": 63, "velocity": 99, "channel": 0}, {"type": "note_on", "time": 27, "note": 66, "velocity": 110, "channel": 0}, {"type": "note_off", "time": 74, "note": 66, "velocity": 110, "channel": 0}, {"type": "note_on", "time": 0, "note": 70, "velocity": 121, "channel": 0}, {"type": "note_off", "time": 105, "note": 70, "velocity": 121, "channel": 0}, {"type": "note_on", "time": 15, "note": 73, "velocity": 126, "channel": 0}, {"type": "note_off", "time": 78, "note": 73, "velocity": 126, "channel": 0}, {"type": "note_on", "time": 0, "note": 72, "velocity": 116, "channel": 0}, {"type": "note_off", "time": 66, "note": 72, "velocity": 116, "channel": 0}, {"type": "note_on", "time": 11, "note": 70, "velocity": 123, "channel": 0}, {"type": "note_off", "time": 66, "note": 70, "velocity": 123, "channel": 0}, {"type": "note_on", "time": 23, "note": 69, "velocity": 121, "channel": 0}, {"type": "note_off", "time": 58, "note": 69, "velocity": 121, "channel": 0}, {"type": "note_on", "time": 0, "note": 67, "velocity": 120, "channel": 0}, {"type": "note_off", "time": 93, "note": 67, "velocity": 120, "channel": 0}, {"type": "note_on", "time": 27, "note": 66, "velocity": 111, "channel": 0}, {"type": "note_off", "time": 74, "note": 66, "velocity": 111, "channel": 0}, {"type": "note_on", "time": 15, "note": 67, "velocity": 107, "channel": 0}, {"type": "note_off", "time": 74, "note": 67, "velocity": 107, "channel": 0}, {"type": "note_on", "time": 15, "note": 70, "velocity": 116, "channel": 0}, {"type": "note_off", "time": 109, "note": 70, "velocity": 116, "channel": 0}, {"type": "note_on", "time": 0, "note": 67, "velocity": 119, "channel": 0}, {"type": "note_off", "time": 113, "note": 67, "velocity": 119, "channel": 0}, {"type": "note_on", "time": 0, "note": 63, "velocity": 91, "channel": 0}, {"type": "note_off", "time": 85, "note": 63, "velocity": 91, "channel": 0}, {"type": "note_on", "time": 0, "note": 60, "velocity": 91, "channel": 0}, {"type": "note_off", "time": 82, "note": 60, "velocity": 91, "channel": 0}, {"type": "note_on", "time": 3, "note": 62, "velocity": 109, "channel": 0}, {"type": "note_off", "time": 105, "note": 62, "velocity": 109, "channel": 0}, {"type": "note_on", "time": 0, "note": 58, "velocity": 101, "channel": 0}, {"type": "note_off", "time": 78, "note": 58, "velocity": 101, "channel": 0}, {"type": "note_on", "time": 46, "note": 55, "velocity": 106, "channel": 0}, {"type": "note_off", "time": 82, "note": 55, "velocity": 106, "channel": 0}, {"type": "note_on", "time": 0, "note": 57, "velocity": 99, "channel": 0}, {"type": "note_off", "time": 42, "note": 57, "velocity": 99, "channel": 0}, {"type": "note_on", "time": 7, "note": 60, "velocity": 115, "channel": 0}, {"type": "note_off", "time": 101, "note": 60, "velocity": 115, "channel": 0}, {"type": "note_on", "time": 23, "note": 58, "velocity": 98, "channel": 0}, {"type": "note_off", "time": 70, "note": 58, "velocity": 98, "channel": 0}, {"type": "note_on", "time": 23, "note": 57, "velocity": 100, "channel": 0}, {"type": "note_off", "time": 70, "note": 57, "velocity": 100, "channel": 0}, {"type": "note_on", "time": 39, "note": 58, "velocity": 104, "channel": 0}, {"type": "note_off", "time": 42, "note": 58, "velocity": 104, "channel": 0}, {"type": "note_on", "time": 0, "note": 62, "velocity": 116, "channel": 0}, {"type": "note_off", "time": 105, "note": 62, "velocity": 116, "channel": 0}, {"type": "note_on", "time": 11, "note": 65, "velocity": 114, "channel": 0}, {"type": "note_off", "time": 85, "note": 65, "velocity": 114, "channel": 0}, {"type": "note_on", "time": 11, "note": 67, "velocity": 96, "channel": 0}, {"type": "note_off", "time": 82, "note": 67, "velocity": 96, "channel": 0}, {"type": "note_on", "time": 23, "note": 69, "velocity": 108, "channel": 0}, {"type": "note_off", "time": 82, "note": 69, "velocity": 108, "channel": 0}, {"type": "note_on", "time": 0, "note": 72, "velocity": 119, "channel": 0}, {"type": "note_off", "time": 128, "note": 72, "velocity": 119, "channel": 0}, {"type": "note_on", "time": 11, "note": 71, "velocity": 111, "channel": 0}, {"type": "note_off", "time": 46, "note": 71, "velocity": 111, "channel": 0}, {"type": "note_on", "time": 0, "note": 70, "velocity": 111, "channel": 0}, {"type": "note_off", "time": 101, "note": 70, "velocity": 111, "channel": 0}, {"type": "note_on", "time": 3, "note": 69, "velocity": 117, "channel": 0}, {"type": "note_off", "time": 85, "note": 69, "velocity": 117, "channel": 0}, {"type": "note_on", "time": 0, "note": 67, "velocity": 119, "channel": 0}, {"type": "note_off", "time": 85, "note": 67, "velocity": 119, "channel": 0}, {"type": "note_on", "time": 0, "note": 65, "velocity": 117, "channel": 0}, {"type": "note_off", "time": 109, "note": 65, "velocity": 117, "channel": 0}, {"type": "note_on", "time": 7, "note": 64, "velocity": 110, "channel": 0}, {"type": "note_off", "time": 93, "note": 64, "velocity": 110, "channel": 0}, {"type": "note_on", "time": 19, "note": 60, "velocity": 100, "channel": 0}, {"type": "note_off", "time": 50, "note": 60, "velocity": 100, "channel": 0}, {"type": "note_on", "time": 27, "note": 62, "velocity": 101, "channel": 0}, {"type": "note_off", "time": 367, "note": 62, "velocity": 101, "channel": 0}, {"type": "note_on", "time": 775, "note": 63, "velocity": 117, "channel": 0}, {"type": "note_off", "time": 88, "note": 63, "velocity": 117, "channel": 0}, {"type": "note_on", "time": 5, "note": 65, "velocity": 114, "channel": 0}, {"type": "note_off", "time": 1510, "note": 65, "velocity": 114, "channel": 0}, {"type": "note_on", "time": 1051, "note": 65, "velocity": 120, "channel": 0}, {"type": "note_off", "time": 128, "note": 65, "velocity": 120, "channel": 0}, {"type": "note_on", "time": 19, "note": 67, "velocity": 110, "channel": 0}, {"type": "note_off", "time": 78, "note": 67, "velocity": 110, "channel": 0}, {"type": "note_on", "time": 11, "note": 65, "velocity": 101, "channel": 0}, {"type": "note_off", "time": 128, "note": 65, "velocity": 101, "channel": 0}, {"type": "note_on", "time": 42, "note": 70, "velocity": 119, "channel": 0}, {"type": "note_off", "time": 105, "note": 70, "velocity": 119, "channel": 0}, {"type": "note_on", "time": 0, "note": 72, "velocity": 120, "channel": 0}, {"type": "note_off", "time": 82, "note": 72, "velocity": 120, "channel": 0}, {"type": "note_on", "time": 7, "note": 70, "velocity": 114, "channel": 0}, {"type": "note_off", "time": 74, "note": 70, "velocity": 114, "channel": 0}, {"type": "note_on", "time": 0, "note": 65, "velocity": 107, "channel": 0}, {"type": "note_off", "time": 85, "note": 65, "velocity": 107, "channel": 0}, {"type": "note_on", "time": 0, "note": 70, "velocity": 108, "channel": 0}, {"type": "note_off", "time": 54, "note": 70, "velocity": 108, "channel": 0}, {"type": "note_on", "time": 3, "note": 74, "velocity": 121, "channel": 0}, {"type": "note_off", "time": 109, "note": 74, "velocity": 121, "channel": 0}, {"type": "note_on", "time": 15, "note": 72, "velocity": 121, "channel": 0}, {"type": "note_off", "time": 66, "note": 72, "velocity": 121, "channel": 0}, {"type": "note_on", "time": 19, "note": 70, "velocity": 109, "channel": 0}, {"type": "note_off", "time": 74, "note": 70, "velocity": 109, "channel": 0}, {"type": "note_on", "time": 15, "note": 69, "velocity": 112, "channel": 0}, {"type": "note_off", "time": 85, "note": 69, "velocity": 112, "channel": 0}, {"type": "note_on", "time": 11, "note": 72, "velocity": 125, "channel": 0}, {"type": "note_off", "time": 82, "note": 72, "velocity": 125, "channel": 0}, {"type": "note_on", "time": 0, "note": 70, "velocity": 116, "channel": 0}, {"type": "note_off", "time": 89, "note": 70, "velocity": 116, "channel": 0}, {"type": "note_on", "time": 0, "note": 69, "velocity": 117, "channel": 0}, {"type": "note_off", "time": 105, "note": 69, "velocity": 117, "channel": 0}, {"type": "note_on", "time": 0, "note": 67, "velocity": 120, "channel": 0}, {"type": "note_off", "time": 78, "note": 67, "velocity": 120, "channel": 0}, {"type": "note_on", "time": 15, "note": 65, "velocity": 119, "channel": 0}, {"type": "note_off", "time": 105, "note": 65, "velocity": 119, "channel": 0}, {"type": "note_on", "time": 0, "note": 63, "velocity": 109, "channel": 0}, {"type": "note_off", "time": 74, "note": 63, "velocity": 109, "channel": 0}, {"type": "note_on", "time": 19, "note": 62, "velocity": 115, "channel": 0}, {"type": "note_on", "time": 74, "note": 60, "velocity": 103, "channel": 0}, {"type": "note_off", "time": 0, "note": 62, "velocity": 115, "channel": 0}, {"type": "note_off", "time": 85, "note": 60, "velocity": 103, "channel": 0}, {"type": "note_on", "time": 19, "note": 58, "velocity": 108, "channel": 0}, {"type": "note_off", "time": 124, "note": 58, "velocity": 108, "channel": 0}, {"type": "note_on", "time": 23, "note": 57, "velocity": 109, "channel": 0}, {"type": "note_off", "time": 85, "note": 57, "velocity": 109, "channel": 0}, {"type": "note_on", "time": 15, "note": 56, "velocity": 104, "channel": 0}, {"type": "note_off", "time": 42, "note": 56, "velocity": 104, "channel": 0}, {"type": "note_on", "time": 7, "note": 60, "velocity": 105, "channel": 0}, {"type": "note_off", "time": 82, "note": 60, "velocity": 105, "channel": 0}, {"type": "note_on", "time": 0, "note": 70, "velocity": 115, "channel": 0}, {"type": "note_off", "time": 101, "note": 70, "velocity": 115, "channel": 0}, {"type": "note_on", "time": 3, "note": 66, "velocity": 118, "channel": 0}, {"type": "note_off", "time": 113, "note": 66, "velocity": 118, "channel": 0}, {"type": "note_on", "time": 3, "note": 62, "velocity": 101, "channel": 0}, {"type": "note_off", "time": 74, "note": 62, "velocity": 101, "channel": 0}, {"type": "note_on", "time": 15, "note": 60, "velocity": 105, "channel": 0}, {"type": "note_off", "time": 42, "note": 60, "velocity": 105, "channel": 0}, {"type": "note_on", "time": 15, "note": 60, "velocity": 113, "channel": 0}, {"type": "note_off", "time": 93, "note": 60, "velocity": 113, "channel": 0}, {"type": "note_on", "time": 54, "note": 56, "velocity": 109, "channel": 0}, {"type": "note_off", "time": 89, "note": 56, "velocity": 109, "channel": 0}, {"type": "note_on", "time": 19, "note": 52, "velocity": 110, "channel": 0}, {"type": "note_off", "time": 113, "note": 52, "velocity": 110, "channel": 0}, {"type": "note_on", "time": 7, "note": 58, "velocity": 109, "channel": 0}, {"type": "note_off", "time": 70, "note": 58, "velocity": 109, "channel": 0}, {"type": "note_on", "time": 23, "note": 55, "velocity": 106, "channel": 0}, {"type": "note_off", "time": 101, "note": 55, "velocity": 106, "channel": 0}, {"type": "note_on", "time": 35, "note": 58, "velocity": 98, "channel": 0}, {"type": "note_off", "time": 89, "note": 58, "velocity": 98, "channel": 0}, {"type": "note_on", "time": 3, "note": 60, "velocity": 105, "channel": 0}, {"type": "note_off", "time": 62, "note": 60, "velocity": 105, "channel": 0}, {"type": "note_on", "time": 35, "note": 65, "velocity": 122, "channel": 0}, {"type": "note_off", "time": 97, "note": 65, "velocity": 122, "channel": 0}, {"type": "note_on", "time": 19, "note": 63, "velocity": 84, "channel": 0}, {"type": "note_off", "time": 70, "note": 63, "velocity": 84, "channel": 0}, {"type": "note_on", "time": 31, "note": 62, "velocity": 101, "channel": 0}, {"type": "note_off", "time": 109, "note": 62, "velocity": 101, "channel": 0}, {"type": "note_on", "time": 19, "note": 67, "velocity": 116, "channel": 0}, {"type": "note_off", "time": 124, "note": 67, "velocity": 116, "channel": 0}, {"type": "note_on", "time": 27, "note": 70, "velocity": 104, "channel": 0}, {"type": "note_off", "time": 62, "note": 70, "velocity": 104, "channel": 0}, {"type": "note_on", "time": 11, "note": 72, "velocity": 105, "channel": 0}, {"type": "note_off", "time": 70, "note": 72, "velocity": 105, "channel": 0}, {"type": "note_on", "time": 0, "note": 74, "velocity": 105, "channel": 0}, {"type": "note_off", "time": 23, "note": 74, "velocity": 105, "channel": 0}, {"type": "note_on", "time": 15, "note": 77, "velocity": 120, "channel": 0}, {"type": "note_off", "time": 97, "note": 77, "velocity": 120, "channel": 0}, {"type": "note_on", "time": 23, "note": 74, "velocity": 100, "channel": 0}, {"type": "note_off", "time": 164, "note": 74, "velocity": 100, "channel": 0}, {"type": "note_on", "time": 620, "note": 65, "velocity": 118, "channel": 0}, {"type": "note_off", "time": 136, "note": 65, "velocity": 118, "channel": 0}, {"type": "note_on", "time": 0, "note": 66, "velocity": 51, "channel": 0}, {"type": "note_off", "time": 42, "note": 66, "velocity": 51, "channel": 0}, {"type": "note_on", "time": 23, "note": 69, "velocity": 92, "channel": 0}, {"type": "note_on", "time": 35, "note": 73, "velocity": 95, "channel": 0}, {"type": "note_off", "time": 0, "note": 69, "velocity": 92, "channel": 0}, {"type": "note_off", "time": 78, "note": 73, "velocity": 95, "channel": 0}, {"type": "note_on", "time": 11, "note": 77, "velocity": 118, "channel": 0}, {"type": "note_off", "time": 78, "note": 77, "velocity": 118, "channel": 0}, {"type": "note_on", "time": 0, "note": 76, "velocity": 118, "channel": 0}, {"type": "note_off", "time": 82, "note": 76, "velocity": 118, "channel": 0}, {"type": "note_on", "time": 11, "note": 75, "velocity": 116, "channel": 0}, {"type": "note_off", "time": 128, "note": 75, "velocity": 116, "channel": 0}, {"type": "note_on", "time": 0, "note": 74, "velocity": 117, "channel": 0}, {"type": "note_off", "time": 85, "note": 74, "velocity": 117, "channel": 0}, {"type": "note_on", "time": 3, "note": 73, "velocity": 118, "channel": 0}, {"type": "note_off", "time": 97, "note": 73, "velocity": 118, "channel": 0}, {"type": "note_on", "time": 15, "note": 72, "velocity": 111, "channel": 0}, {"type": "note_off", "time": 82, "note": 72, "velocity": 111, "channel": 0}, {"type": "note_on", "time": 0, "note": 70, "velocity": 121, "channel": 0}, {"type": "note_off", "time": 78, "note": 70, "velocity": 121, "channel": 0}, {"type": "note_on", "time": 19, "note": 66, "velocity": 118, "channel": 0}, {"type": "note_off", "time": 117, "note": 66, "velocity": 118, "channel": 0}, {"type": "note_on", "time": 0, "note": 63, "velocity": 112, "channel": 0}, {"type": "note_off", "time": 78, "note": 63, "velocity": 112, "channel": 0}, {"type": "note_on", "time": 11, "note": 60, "velocity": 105, "channel": 0}, {"type": "note_off", "time": 62, "note": 60, "velocity": 105, "channel": 0}, {"type": "note_on", "time": 0, "note": 69, "velocity": 119, "channel": 0}, {"type": "note_off", "time": 124, "note": 69, "velocity": 119, "channel": 0}, {"type": "note_on", "time": 0, "note": 67, "velocity": 122, "channel": 0}, {"type": "note_off", "time": 101, "note": 67, "velocity": 122, "channel": 0}, {"type": "note_on", "time": 11, "note": 65, "velocity": 113, "channel": 0}, {"type": "note_off", "time": 89, "note": 65, "velocity": 113, "channel": 0}, {"type": "note_on", "time": 19, "note": 63, "velocity": 115, "channel": 0}, {"type": "note_off", "time": 93, "note": 63, "velocity": 115, "channel": 0}, {"type": "note_on", "time": 11, "note": 62, "velocity": 102, "channel": 0}, {"type": "note_off", "time": 58, "note": 62, "velocity": 102, "channel": 0}, {"type": "note_on", "time": 15, "note": 58, "velocity": 97, "channel": 0}, {"type": "note_off", "time": 46, "note": 58, "velocity": 97, "channel": 0}, {"type": "note_on", "time": 11, "note": 60, "velocity": 110, "channel": 0}, {"type": "note_off", "time": 128, "note": 60, "velocity": 110, "channel": 0}, {"type": "note_on", "time": 3, "note": 58, "velocity": 94, "channel": 0}, {"type": "note_off", "time": 82, "note": 58, "velocity": 94, "channel": 0}, {"type": "note_on", "time": 3, "note": 57, "velocity": 103, "channel": 0}, {"type": "note_off", "time": 89, "note": 57, "velocity": 103, "channel": 0}, {"type": "note_on", "time": 19, "note": 58, "velocity": 104, "channel": 0}, {"type": "note_off", "time": 35, "note": 58, "velocity": 104, "channel": 0}, {"type": "note_on", "time": 7, "note": 62, "velocity": 116, "channel": 0}, {"type": "note_off", "time": 82, "note": 62, "velocity": 116, "channel": 0}, {"type": "note_on", "time": 15, "note": 65, "velocity": 111, "channel": 0}, {"type": "note_off", "time": 109, "note": 65, "velocity": 111, "channel": 0}, {"type": "note_on", "time": 7, "note": 67, "velocity": 110, "channel": 0}, {"type": "note_off", "time": 78, "note": 67, "velocity": 110, "channel": 0}, {"type": "note_on", "time": 27, "note": 69, "velocity": 104, "channel": 0}, {"type": "note_off", "time": 66, "note": 69, "velocity": 104, "channel": 0}, {"type": "note_on", "time": 0, "note": 72, "velocity": 116, "channel": 0}, {"type": "note_off", "time": 109, "note": 72, "velocity": 116, "channel": 0}, {"type": "note_on", "time": 7, "note": 71, "velocity": 119, "channel": 0}, {"type": "note_off", "time": 74, "note": 71, "velocity": 119, "channel": 0}, {"type": "note_on", "time": 11, "note": 70, "velocity": 114, "channel": 0}, {"type": "note_off", "time": 74, "note": 70, "velocity": 114, "channel": 0}, {"type": "note_on", "time": 3, "note": 69, "velocity": 121, "channel": 0}, {"type": "note_off", "time": 105, "note": 69, "velocity": 121, "channel": 0}, {"type": "note_on", "time": 27, "note": 67, "velocity": 114, "channel": 0}, {"type": "note_off", "time": 82, "note": 67, "velocity": 114, "channel": 0}, {"type": "note_on", "time": 0, "note": 65, "velocity": 114, "channel": 0}, {"type": "note_off", "time": 70, "note": 65, "velocity": 114, "channel": 0}, {"type": "note_on", "time": 19, "note": 64, "velocity": 111, "channel": 0}, {"type": "note_off", "time": 93, "note": 64, "velocity": 111, "channel": 0}, {"type": "note_on", "time": 0, "note": 60, "velocity": 101, "channel": 0}, {"type": "note_off", "time": 58, "note": 60, "velocity": 101, "channel": 0}, {"type": "note_on", "time": 19, "note": 62, "velocity": 91, "channel": 0}, {"type": "note_off", "time": 636, "note": 62, "velocity": 91, "channel": 0}, {"type": "note_on", "time": 483, "note": 51, "velocity": 117, "channel": 0}, {"type": "note_off", "time": 127, "note": 51, "velocity": 117, "channel": 0}, {"type": "note_on", "time": 0, "note": 55, "velocity": 109, "channel": 0}, {"type": "note_off", "time": 63, "note": 55, "velocity": 109, "channel": 0}, {"type": "note_on", "time": 0, "note": 60, "velocity": 109, "channel": 0}, {"type": "note_off", "time": 88, "note": 60, "velocity": 109, "channel": 0}, {"type": "note_on", "time": 8, "note": 63, "velocity": 112, "channel": 0}, {"type": "note_off", "time": 124, "note": 63, "velocity": 112, "channel": 0}, {"type": "note_on", "time": 11, "note": 62, "velocity": 110, "channel": 0}, {"type": "note_off", "time": 55, "note": 62, "velocity": 110, "channel": 0}, {"type": "note_on", "time": 13, "note": 60, "velocity": 113, "channel": 0}, {"type": "note_off", "time": 61, "note": 60, "velocity": 113, "channel": 0}, {"type": "note_on", "time": 16, "note": 59, "velocity": 99, "channel": 0}, {"type": "note_off", "time": 86, "note": 59, "velocity": 99, "channel": 0}, {"type": "note_on", "time": 16, "note": 62, "velocity": 102, "channel": 0}, {"type": "note_off", "time": 66, "note": 62, "velocity": 102, "channel": 0}, {"type": "note_on", "time": 8, "note": 65, "velocity": 116, "channel": 0}, {"type": "note_on", "time": 133, "note": 68, "velocity": 123, "channel": 0}, {"type": "note_off", "time": 0, "note": 65, "velocity": 116, "channel": 0}, {"type": "note_off", "time": 122, "note": 68, "velocity": 123, "channel": 0}, {"type": "note_on", "time": 11, "note": 67, "velocity": 119, "channel": 0}, {"type": "note_off", "time": 44, "note": 67, "velocity": 119, "channel": 0}, {"type": "note_on", "time": 5, "note": 65, "velocity": 120, "channel": 0}, {"type": "note_off", "time": 108, "note": 65, "velocity": 120, "channel": 0}, {"type": "note_on", "time": 2, "note": 63, "velocity": 102, "channel": 0}, {"type": "note_off", "time": 61, "note": 63, "velocity": 102, "channel": 0}, {"type": "note_on", "time": 0, "note": 67, "velocity": 108, "channel": 0}, {"type": "note_off", "time": 88, "note": 67, "velocity": 108, "channel": 0}, {"type": "note_on", "time": 2, "note": 70, "velocity": 102, "channel": 0}, {"type": "note_off", "time": 61, "note": 70, "velocity": 102, "channel": 0}, {"type": "note_on", "time": 16, "note": 74, "velocity": 103, "channel": 0}, {"type": "note_off", "time": 97, "note": 74, "velocity": 103, "channel": 0}, {"type": "note_on", "time": 0, "note": 77, "velocity": 118, "channel": 0}, {"type": "note_off", "time": 102, "note": 77, "velocity": 118, "channel": 0}, {"type": "note_on", "time": 2, "note": 75, "velocity": 117, "channel": 0}, {"type": "note_off", "time": 188, "note": 75, "velocity": 117, "channel": 0}, {"type": "note_on", "time": 869, "note": 74, "velocity": 101, "channel": 0}, {"type": "note_off", "time": 91, "note": 74, "velocity": 101, "channel": 0}, {"type": "note_on", "time": 13, "note": 75, "velocity": 116, "channel": 0}, {"type": "note_off", "time": 63, "note": 75, "velocity": 116, "channel": 0}, {"type": "note_on", "time": 8, "note": 76, "velocity": 118, "channel": 0}, {"type": "note_off", "time": 49, "note": 76, "velocity": 118, "channel": 0}, {"type": "note_on", "time": 16, "note": 77, "velocity": 123, "channel": 0}, {"type": "note_on", "time": 108, "note": 76, "velocity": 107, "channel": 0}, {"type": "note_off", "time": 0, "note": 77, "velocity": 123, "channel": 0}, {"type": "note_off", "time": 52, "note": 76, "velocity": 107, "channel": 0}, {"type": "note_on", "time": 8, "note": 74, "velocity": 115, "channel": 0}, {"type": "note_off", "time": 113, "note": 74, "velocity": 115, "channel": 0}, {"type": "note_on", "time": 0, "note": 70, "velocity": 115, "channel": 0}, {"type": "note_off", "time": 94, "note": 70, "velocity": 115, "channel": 0}, {"type": "note_on", "time": 2, "note": 67, "velocity": 114, "channel": 0}, {"type": "note_off", "time": 119, "note": 67, "velocity": 114, "channel": 0}, {"type": "note_on", "time": 33, "note": 72, "velocity": 121, "channel": 0}, {"type": "note_off", "time": 88, "note": 72, "velocity": 121, "channel": 0}, {"type": "note_on", "time": 13, "note": 69, "velocity": 117, "channel": 0}, {"type": "note_off", "time": 77, "note": 69, "velocity": 117, "channel": 0}, {"type": "note_on", "time": 0, "note": 72, "velocity": 121, "channel": 0}, {"type": "note_off", "time": 88, "note": 72, "velocity": 121, "channel": 0}, {"type": "note_on", "time": 13, "note": 73, "velocity": 117, "channel": 0}, {"type": "note_off", "time": 144, "note": 73, "velocity": 117, "channel": 0}, {"type": "note_on", "time": 247, "note": 61, "velocity": 114, "channel": 0}, {"type": "note_off", "time": 44, "note": 61, "velocity": 114, "channel": 0}, {"type": "note_on", "time": 2, "note": 62, "velocity": 113, "channel": 0}, {"type": "note_off", "time": 63, "note": 62, "velocity": 113, "channel": 0}, {"type": "note_on", "time": 0, "note": 65, "velocity": 117, "channel": 0}, {"type": "note_off", "time": 83, "note": 65, "velocity": 117, "channel": 0}, {"type": "note_on", "time": 2, "note": 69, "velocity": 118, "channel": 0}, {"type": "note_off", "time": 77, "note": 69, "velocity": 118, "channel": 0}, {"type": "note_on", "time": 8, "note": 72, "velocity": 122, "channel": 0}, {"type": "note_off", "time": 119, "note": 72, "velocity": 122, "channel": 0}, {"type": "note_on", "time": 2, "note": 71, "velocity": 118, "channel": 0}, {"type": "note_on", "time": 33, "note": 70, "velocity": 114, "channel": 0}, {"type": "note_off", "time": 0, "note": 71, "velocity": 118, "channel": 0}, {"type": "note_off", "time": 83, "note": 70, "velocity": 114, "channel": 0}, {"type": "note_on", "time": 0, "note": 69, "velocity": 120, "channel": 0}, {"type": "note_off", "time": 86, "note": 69, "velocity": 120, "channel": 0}, {"type": "note_on", "time": 8, "note": 68, "velocity": 110, "channel": 0}, {"type": "note_off", "time": 94, "note": 68, "velocity": 110, "channel": 0}, {"type": "note_on", "time": 2, "note": 60, "velocity": 106, "channel": 0}, {"type": "note_off", "time": 80, "note": 60, "velocity": 106, "channel": 0}, {"type": "note_on", "time": 19, "note": 61, "velocity": 100, "channel": 0}, {"type": "note_off", "time": 77, "note": 61, "velocity": 100, "channel": 0}, {"type": "note_on", "time": 13, "note": 62, "velocity": 97, "channel": 0}, {"type": "note_off", "time": 94, "note": 62, "velocity": 97, "channel": 0}, {"type": "note_on", "time": 13, "note": 67, "velocity": 122, "channel": 0}, {"type": "note_off", "time": 80, "note": 67, "velocity": 122, "channel": 0}, {"type": "note_on", "time": 13, "note": 66, "velocity": 118, "channel": 0}, {"type": "note_off", "time": 61, "note": 66, "velocity": 118, "channel": 0}, {"type": "note_on", "time": 44, "note": 65, "velocity": 117, "channel": 0}, {"type": "note_off", "time": 72, "note": 65, "velocity": 117, "channel": 0}, {"type": "note_on", "time": 33, "note": 62, "velocity": 110, "channel": 0}, {"type": "note_off", "time": 122, "note": 62, "velocity": 110, "channel": 0}, {"type": "note_on", "time": 8, "note": 61, "velocity": 112, "channel": 0}, {"type": "note_off", "time": 94, "note": 61, "velocity": 112, "channel": 0}, {"type": "note_on", "time": 19, "note": 58, "velocity": 106, "channel": 0}, {"type": "note_off", "time": 108, "note": 58, "velocity": 106, "channel": 0}, {"type": "note_on", "time": 30, "note": 57, "velocity": 108, "channel": 0}, {"type": "note_off", "time": 91, "note": 57, "velocity": 108, "channel": 0}, {"type": "note_on", "time": 2, "note": 56, "velocity": 103, "channel": 0}, {"type": "note_off", "time": 94, "note": 56, "velocity": 103, "channel": 0}, {"type": "note_on", "time": 0, "note": 60, "velocity": 107, "channel": 0}, {"type": "note_off", "time": 130, "note": 60, "velocity": 107, "channel": 0}, {"type": "note_on", "time": 0, "note": 55, "velocity": 105, "channel": 0}, {"type": "note_off", "time": 102, "note": 55, "velocity": 105, "channel": 0}, {"type": "note_on", "time": 0, "note": 58, "velocity": 101, "channel": 0}, {"type": "note_off", "time": 99, "note": 58, "velocity": 101, "channel": 0}, {"type": "note_on", "time": 36, "note": 62, "velocity": 107, "channel": 0}, {"type": "note_off", "time": 83, "note": 62, "velocity": 107, "channel": 0}, {"type": "note_on", "time": 2, "note": 65, "velocity": 109, "channel": 0}, {"type": "note_off", "time": 169, "note": 65, "velocity": 109, "channel": 0}, {"type": "note_on", "time": 77, "note": 67, "velocity": 107, "channel": 0}, {"type": "note_off", "time": 88, "note": 67, "velocity": 107, "channel": 0}, {"type": "note_on", "time": 8, "note": 70, "velocity": 104, "channel": 0}, {"type": "note_off", "time": 49, "note": 70, "velocity": 104, "channel": 0}, {"type": "note_on", "time": 11, "note": 74, "velocity": 117, "channel": 0}, {"type": "note_off", "time": 108, "note": 74, "velocity": 117, "channel": 0}, {"type": "note_on", "time": 5, "note": 72, "velocity": 117, "channel": 0}, {"type": "note_off", "time": 105, "note": 72, "velocity": 117, "channel": 0}, {"type": "note_on", "time": 0, "note": 70, "velocity": 115, "channel": 0}, {"type": "note_off", "time": 86, "note": 70, "velocity": 115, "channel": 0}, {"type": "note_on", "time": 2, "note": 67, "velocity": 122, "channel": 0}, {"type": "note_off", "time": 83, "note": 67, "velocity": 122, "channel": 0}, {"type": "note_on", "time": 0, "note": 63, "velocity": 110, "channel": 0}, {"type": "note_off", "time": 133, "note": 63, "velocity": 110, "channel": 0}, {"type": "note_on", "time": 0, "note": 60, "velocity": 106, "channel": 0}, {"type": "note_off", "time": 83, "note": 60, "velocity": 106, "channel": 0}, {"type": "note_on", "time": 2, "note": 62, "velocity": 115, "channel": 0}, {"type": "note_off", "time": 91, "note": 62, "velocity": 115, "channel": 0}, {"type": "note_on", "time": 0, "note": 65, "velocity": 111, "channel": 0}, {"type": "note_off", "time": 124, "note": 65, "velocity": 111, "channel": 0}, {"type": "note_on", "time": 38, "note": 65, "velocity": 111, "channel": 0}, {"type": "note_on", "time": 111, "note": 63, "velocity": 101, "channel": 0}, {"type": "note_off", "time": 0, "note": 65, "velocity": 111, "channel": 0}, {"type": "note_off", "time": 463, "note": 63, "velocity": 101, "channel": 0}, {"type": "note_on", "time": 849, "note": 62, "velocity": 122, "channel": 0}, {"type": "note_off", "time": 91, "note": 62, "velocity": 122, "channel": 0}, {"type": "note_on", "time": 2, "note": 63, "velocity": 123, "channel": 0}, {"type": "note_off", "time": 113, "note": 63, "velocity": 123, "channel": 0}, {"type": "note_on", "time": 0, "note": 65, "velocity": 120, "channel": 0}, {"type": "note_off", "time": 116, "note": 65, "velocity": 120, "channel": 0}, {"type": "note_on", "time": 5, "note": 63, "velocity": 119, "channel": 0}, {"type": "note_off", "time": 122, "note": 63, "velocity": 119, "channel": 0}, {"type": "note_on", "time": 5, "note": 62, "velocity": 116, "channel": 0}, {"type": "note_off", "time": 86, "note": 62, "velocity": 116, "channel": 0}, {"type": "note_on", "time": 8, "note": 58, "velocity": 105, "channel": 0}, {"type": "note_off", "time": 80, "note": 58, "velocity": 105, "channel": 0}, {"type": "note_on", "time": 0, "note": 55, "velocity": 107, "channel": 0}, {"type": "note_off", "time": 88, "note": 55, "velocity": 107, "channel": 0}, {"type": "note_on", "time": 19, "note": 57, "velocity": 109, "channel": 0}, {"type": "note_off", "time": 30, "note": 57, "velocity": 109, "channel": 0}, {"type": "note_on", "time": 16, "note": 60, "velocity": 113, "channel": 0}, {"type": "note_off", "time": 108, "note": 60, "velocity": 113, "channel": 0}, {"type": "note_on", "time": 24, "note": 57, "velocity": 103, "channel": 0}, {"type": "note_off", "time": 91, "note": 57, "velocity": 103, "channel": 0}, {"type": "note_on", "time": 13, "note": 60, "velocity": 98, "channel": 0}, {"type": "note_off", "time": 63, "note": 60, "velocity": 98, "channel": 0}, {"type": "note_on", "time": 13, "note": 64, "velocity": 114, "channel": 0}, {"type": "note_off", "time": 52, "note": 64, "velocity": 114, "channel": 0}, {"type": "note_on", "time": 2, "note": 69, "velocity": 118, "channel": 0}, {"type": "note_off", "time": 119, "note": 69, "velocity": 118, "channel": 0}, {"type": "note_on", "time": 2, "note": 67, "velocity": 119, "channel": 0}, {"type": "note_off", "time": 119, "note": 67, "velocity": 119, "channel": 0}, {"type": "note_on", "time": 0, "note": 64, "velocity": 103, "channel": 0}, {"type": "note_off", "time": 83, "note": 64, "velocity": 103, "channel": 0}, {"type": "note_on", "time": 11, "note": 60, "velocity": 102, "channel": 0}, {"type": "note_off", "time": 66, "note": 60, "velocity": 102, "channel": 0}, {"type": "note_on", "time": 13, "note": 62, "velocity": 95, "channel": 0}, {"type": "note_off", "time": 391, "note": 62, "velocity": 95, "channel": 0}, {"type": "note_on", "time": 1044, "note": 67, "velocity": 85, "channel": 0}, {"type": "note_off", "time": 55, "note": 67, "velocity": 85, "channel": 0}, {"type": "note_on", "time": 5, "note": 68, "velocity": 126, "channel": 0}, {"type": "note_off", "time": 88, "note": 68, "velocity": 126, "channel": 0}, {"type": "note_on", "time": 2, "note": 69, "velocity": 119, "channel": 0}, {"type": "note_off", "time": 86, "note": 69, "velocity": 119, "channel": 0}, {"type": "note_on", "time": 0, "note": 72, "velocity": 121, "channel": 0}, {"type": "note_on", "time": 122, "note": 71, "velocity": 120, "channel": 0}, {"type": "note_off", "time": 0, "note": 72, "velocity": 121, "channel": 0}, {"type": "note_off", "time": 44, "note": 71, "velocity": 120, "channel": 0}, {"type": "note_on", "time": 0, "note": 70, "velocity": 119, "channel": 0}, {"type": "note_off", "time": 108, "note": 70, "velocity": 119, "channel": 0}, {"type": "note_on", "time": 0, "note": 69, "velocity": 120, "channel": 0}, {"type": "note_off", "time": 102, "note": 69, "velocity": 120, "channel": 0}, {"type": "note_on", "time": 5, "note": 68, "velocity": 120, "channel": 0}, {"type": "note_off", "time": 83, "note": 68, "velocity": 120, "channel": 0}, {"type": "note_on", "time": 13, "note": 67, "velocity": 123, "channel": 0}, {"type": "note_off", "time": 61, "note": 67, "velocity": 123, "channel": 0}, {"type": "note_on", "time": 8, "note": 66, "velocity": 121, "channel": 0}, {"type": "note_off", "time": 99, "note": 66, "velocity": 121, "channel": 0}, {"type": "note_on", "time": 11, "note": 65, "velocity": 117, "channel": 0}, {"type": "note_off", "time": 124, "note": 65, "velocity": 117, "channel": 0}, {"type": "note_on", "time": 8, "note": 64, "velocity": 113, "channel": 0}, {"type": "note_off", "time": 99, "note": 64, "velocity": 113, "channel": 0}, {"type": "note_on", "time": 0, "note": 58, "velocity": 100, "channel": 0}, {"type": "note_off", "time": 108, "note": 58, "velocity": 100, "channel": 0}, {"type": "note_on", "time": 2, "note": 59, "velocity": 100, "channel": 0}, {"type": "note_off", "time": 69, "note": 59, "velocity": 100, "channel": 0}, {"type": "note_on", "time": 0, "note": 61, "velocity": 111, "channel": 0}, {"type": "note_off", "time": 102, "note": 61, "velocity": 111, "channel": 0}, {"type": "note_on", "time": 19, "note": 60, "velocity": 104, "channel": 0}, {"type": "note_off", "time": 61, "note": 60, "velocity": 104, "channel": 0}, {"type": "note_on", "time": 2, "note": 58, "velocity": 107, "channel": 0}, {"type": "note_off", "time": 86, "note": 58, "velocity": 107, "channel": 0}, {"type": "note_on", "time": 11, "note": 57, "velocity": 109, "channel": 0}, {"type": "note_off", "time": 63, "note": 57, "velocity": 109, "channel": 0}, {"type": "note_on", "time": 0, "note": 66, "velocity": 119, "channel": 0}, {"type": "note_off", "time": 111, "note": 66, "velocity": 119, "channel": 0}, {"type": "note_on", "time": 41, "note": 63, "velocity": 97, "channel": 0}, {"type": "note_off", "time": 55, "note": 63, "velocity": 97, "channel": 0}, {"type": "note_on", "time": 5, "note": 64, "velocity": 105, "channel": 0}, {"type": "note_off", "time": 55, "note": 64, "velocity": 105, "channel": 0}, {"type": "note_on", "time": 0, "note": 65, "velocity": 120, "channel": 0}, {"type": "note_off", "time": 136, "note": 65, "velocity": 120, "channel": 0}, {"type": "note_on", "time": 13, "note": 62, "velocity": 106, "channel": 0}, {"type": "note_off", "time": 124, "note": 62, "velocity": 106, "channel": 0}, {"type": "note_on", "time": 708, "note": 71, "velocity": 113, "channel": 0}, {"type": "note_off", "time": 97, "note": 71, "velocity": 113, "channel": 0}, {"type": "note_on", "time": 11, "note": 68, "velocity": 123, "channel": 0}, {"type": "note_off", "time": 94, "note": 68, "velocity": 123, "channel": 0}, {"type": "note_on", "time": 0, "note": 64, "velocity": 112, "channel": 0}, {"type": "note_off", "time": 86, "note": 64, "velocity": 112, "channel": 0}, {"type": "note_on", "time": 5, "note": 61, "velocity": 95, "channel": 0}, {"type": "note_off", "time": 74, "note": 61, "velocity": 95, "channel": 0}, {"type": "note_on", "time": 0, "note": 70, "velocity": 117, "channel": 0}, {"type": "note_off", "time": 99, "note": 70, "velocity": 117, "channel": 0}, {"type": "note_on", "time": 19, "note": 68, "velocity": 119, "channel": 0}, {"type": "note_off", "time": 108, "note": 68, "velocity": 119, "channel": 0}, {"type": "note_on", "time": 0, "note": 71, "velocity": 117, "channel": 0}, {"type": "note_off", "time": 86, "note": 71, "velocity": 117, "channel": 0}, {"type": "note_on", "time": 0, "note": 68, "velocity": 122, "channel": 0}, {"type": "note_off", "time": 83, "note": 68, "velocity": 122, "channel": 0}, {"type": "note_on", "time": 0, "note": 64, "velocity": 114, "channel": 0}, {"type": "note_off", "time": 102, "note": 64, "velocity": 114, "channel": 0}, {"type": "note_on", "time": 0, "note": 61, "velocity": 98, "channel": 0}, {"type": "note_off", "time": 74, "note": 61, "velocity": 98, "channel": 0}, {"type": "note_on", "time": 0, "note": 70, "velocity": 111, "channel": 0}, {"type": "note_off", "time": 130, "note": 70, "velocity": 111, "channel": 0}, {"type": "note_on", "time": 0, "note": 66, "velocity": 108, "channel": 0}, {"type": "note_off", "time": 113, "note": 66, "velocity": 108, "channel": 0}, {"type": "note_on", "time": 36, "note": 61, "velocity": 102, "channel": 0}, {"type": "note_off", "time": 49, "note": 61, "velocity": 102, "channel": 0}, {"type": "note_on", "time": 0, "note": 62, "velocity": 85, "channel": 0}, {"type": "note_off", "time": 41, "note": 62, "velocity": 85, "channel": 0}, {"type": "note_on", "time": 16, "note": 70, "velocity": 113, "channel": 0}, {"type": "note_off", "time": 111, "note": 70, "velocity": 113, "channel": 0}, {"type": "note_on", "time": 0, "note": 66, "velocity": 119, "channel": 0}, {"type": "note_off", "time": 105, "note": 66, "velocity": 119, "channel": 0}, {"type": "note_on", "time": 11, "note": 63, "velocity": 107, "channel": 0}, {"type": "note_off", "time": 88, "note": 63, "velocity": 107, "channel": 0}, {"type": "note_on", "time": 66, "note": 68, "velocity": 122, "channel": 0}, {"type": "note_off", "time": 116, "note": 68, "velocity": 122, "channel": 0}, {"type": "note_on", "time": 8, "note": 66, "velocity": 109, "channel": 0}, {"type": "note_off", "time": 102, "note": 66, "velocity": 109, "channel": 0}, {"type": "note_on", "time": 0, "note": 70, "velocity": 115, "channel": 0}, {"type": "note_off", "time": 108, "note": 70, "velocity": 115, "channel": 0}, {"type": "note_on", "time": 8, "note": 66, "velocity": 115, "channel": 0}, {"type": "note_off", "time": 86, "note": 66, "velocity": 115, "channel": 0}, {"type": "note_on", "time": 11, "note": 63, "velocity": 99, "channel": 0}, {"type": "note_off", "time": 47, "note": 63, "velocity": 99, "channel": 0}, {"type": "note_on", "time": 13, "note": 59, "velocity": 97, "channel": 0}, {"type": "note_off", "time": 63, "note": 59, "velocity": 97, "channel": 0}, {"type": "note_on", "time": 0, "note": 68, "velocity": 107, "channel": 0}, {"type": "note_off", "time": 319, "note": 68, "velocity": 107, "channel": 0}, {"type": "note_on", "time": 416, "note": 69, "velocity": 115, "channel": 0}, {"type": "note_off", "time": 138, "note": 69, "velocity": 115, "channel": 0}, {"type": "note_on", "time": 8, "note": 66, "velocity": 120, "channel": 0}, {"type": "note_off", "time": 108, "note": 66, "velocity": 120, "channel": 0}, {"type": "note_on", "time": 8, "note": 62, "velocity": 97, "channel": 0}, {"type": "note_off", "time": 74, "note": 62, "velocity": 97, "channel": 0}, {"type": "note_on", "time": 2, "note": 59, "velocity": 94, "channel": 0}, {"type": "note_off", "time": 30, "note": 59, "velocity": 94, "channel": 0}, {"type": "note_on", "time": 0, "note": 68, "velocity": 119, "channel": 0}, {"type": "note_off", "time": 147, "note": 68, "velocity": 119, "channel": 0}, {"type": "note_on", "time": 19, "note": 66, "velocity": 118, "channel": 0}, {"type": "note_off", "time": 105, "note": 66, "velocity": 118, "channel": 0}, {"type": "note_on", "time": 0, "note": 64, "velocity": 106, "channel": 0}, {"type": "note_off", "time": 452, "note": 64, "velocity": 106, "channel": 0}, {"type": "note_on", "time": 0, "note": 63, "velocity": 113, "channel": 0}, {"type": "note_off", "time": 97, "note": 63, "velocity": 113, "channel": 0}, {"type": "note_on", "time": 2, "note": 62, "velocity": 113, "channel": 0}, {"type": "note_off", "time": 88, "note": 62, "velocity": 113, "channel": 0}, {"type": "note_on", "time": 11, "note": 64, "velocity": 109, "channel": 0}, {"type": "note_off", "time": 91, "note": 64, "velocity": 109, "channel": 0}, {"type": "note_on", "time": 0, "note": 66, "velocity": 111, "channel": 0}, {"type": "note_off", "time": 86, "note": 66, "velocity": 111, "channel": 0}, {"type": "note_on", "time": 16, "note": 68, "velocity": 112, "channel": 0}, {"type": "note_off", "time": 74, "note": 68, "velocity": 112, "channel": 0}, {"type": "note_on", "time": 0, "note": 73, "velocity": 120, "channel": 0}, {"type": "note_off", "time": 108, "note": 73, "velocity": 120, "channel": 0}, {"type": "note_on", "time": 0, "note": 72, "velocity": 122, "channel": 0}, {"type": "note_off", "time": 111, "note": 72, "velocity": 122, "channel": 0}, {"type": "note_on", "time": 5, "note": 71, "velocity": 114, "channel": 0}, {"type": "note_off", "time": 66, "note": 71, "velocity": 114, "channel": 0}, {"type": "note_on", "time": 2, "note": 70, "velocity": 115, "channel": 0}, {"type": "note_off", "time": 94, "note": 70, "velocity": 115, "channel": 0}, {"type": "note_on", "time": 2, "note": 69, "velocity": 115, "channel": 0}, {"type": "note_on", "time": 97, "note": 66, "velocity": 105, "channel": 0}, {"type": "note_off", "time": 0, "note": 69, "velocity": 115, "channel": 0}, {"type": "note_off", "time": 108, "note": 66, "velocity": 105, "channel": 0}, {"type": "note_on", "time": 5, "note": 62, "velocity": 103, "channel": 0}, {"type": "note_off", "time": 111, "note": 62, "velocity": 103, "channel": 0}, {"type": "note_on", "time": 0, "note": 59, "velocity": 99, "channel": 0}, {"type": "note_off", "time": 86, "note": 59, "velocity": 99, "channel": 0}, {"type": "note_on", "time": 5, "note": 61, "velocity": 104, "channel": 0}, {"type": "note_off", "time": 74, "note": 61, "velocity": 104, "channel": 0}, {"type": "note_on", "time": 0, "note": 64, "velocity": 113, "channel": 0}, {"type": "note_off", "time": 152, "note": 64, "velocity": 113, "channel": 0}, {"type": "note_on", "time": 677, "note": 78, "velocity": 120, "channel": 0}, {"type": "note_off", "time": 130, "note": 78, "velocity": 120, "channel": 0}, {"type": "note_on", "time": 30, "note": 76, "velocity": 119, "channel": 0}, {"type": "note_off", "time": 52, "note": 76, "velocity": 119, "channel": 0}, {"type": "note_on", "time": 19, "note": 72, "velocity": 125, "channel": 0}, {"type": "note_on", "time": 47, "note": 69, "velocity": 114, "channel": 0}, {"type": "note_off", "time": 0, "note": 72, "velocity": 125, "channel": 0}, {"type": "note_off", "time": 127, "note": 69, "velocity": 114, "channel": 0}, {"type": "note_on", "time": 8, "note": 78, "velocity": 121, "channel": 0}, {"type": "note_off", "time": 144, "note": 78, "velocity": 121, "channel": 0}, {"type": "note_on", "time": 0, "note": 75, "velocity": 115, "channel": 0}, {"type": "note_off", "time": 44, "note": 75, "velocity": 115, "channel": 0}, {"type": "note_on", "time": 11, "note": 73, "velocity": 100, "channel": 0}, {"type": "note_off", "time": 38, "note": 73, "velocity": 100, "channel": 0}, {"type": "note_on", "time": 24, "note": 67, "velocity": 117, "channel": 0}, {"type": "note_off", "time": 141, "note": 67, "velocity": 117, "channel": 0}, {"type": "note_on", "time": 2, "note": 76, "velocity": 123, "channel": 0}, {"type": "note_off", "time": 111, "note": 76, "velocity": 123, "channel": 0}, {"type": "note_on", "time": 0, "note": 73, "velocity": 113, "channel": 0}, {"type": "note_off", "time": 44, "note": 73, "velocity": 113, "channel": 0}, {"type": "note_on", "time": 13, "note": 69, "velocity": 123, "channel": 0}, {"type": "note_off", "time": 69, "note": 69, "velocity": 123, "channel": 0}, {"type": "note_on", "time": 5, "note": 66, "velocity": 109, "channel": 0}, {"type": "note_off", "time": 141, "note": 66, "velocity": 109, "channel": 0}, {"type": "note_on", "time": 0, "note": 74, "velocity": 122, "channel": 0}, {"type": "note_off", "time": 161, "note": 74, "velocity": 122, "channel": 0}, {"type": "note_on", "time": 333, "note": 66, "velocity": 122, "channel": 0}, {"type": "note_off", "time": 91, "note": 66, "velocity": 122, "channel": 0}, {"type": "note_on", "time": 2, "note": 67, "velocity": 115, "channel": 0}, {"type": "note_off", "time": 91, "note": 67, "velocity": 115, "channel": 0}, {"type": "note_on", "time": 8, "note": 72, "velocity": 118, "channel": 0}, {"type": "note_off", "time": 86, "note": 72, "velocity": 118, "channel": 0}, {"type": "note_on", "time": 0, "note": 71, "velocity": 115, "channel": 0}, {"type": "note_off", "time": 77, "note": 71, "velocity": 115, "channel": 0}, {"type": "note_on", "time": 0, "note": 67, "velocity": 117, "channel": 0}, {"type": "note_off", "time": 124, "note": 67, "velocity": 117, "channel": 0}, {"type": "note_on", "time": 2, "note": 64, "velocity": 112, "channel": 0}, {"type": "note_off", "time": 80, "note": 64, "velocity": 112, "channel": 0}, {"type": "note_on", "time": 5, "note": 63, "velocity": 115, "channel": 0}, {"type": "note_off", "time": 74, "note": 63, "velocity": 115, "channel": 0}, {"type": "note_on", "time": 11, "note": 62, "velocity": 115, "channel": 0}, {"type": "note_off", "time": 122, "note": 62, "velocity": 115, "channel": 0}, {"type": "note_on", "time": 11, "note": 60, "velocity": 99, "channel": 0}, {"type": "note_off", "time": 44, "note": 60, "velocity": 99, "channel": 0}, {"type": "note_on", "time": 22, "note": 59, "velocity": 99, "channel": 0}, {"type": "note_off", "time": 61, "note": 59, "velocity": 99, "channel": 0}, {"type": "note_on", "time": 2, "note": 66, "velocity": 110, "channel": 0}, {"type": "note_off", "time": 91, "note": 66, "velocity": 110, "channel": 0}, {"type": "note_on", "time": 11, "note": 69, "velocity": 120, "channel": 0}, {"type": "note_off", "time": 147, "note": 69, "velocity": 120, "channel": 0}, {"type": "note_on", "time": 13, "note": 67, "velocity": 115, "channel": 0}, {"type": "note_off", "time": 161, "note": 67, "velocity": 115, "channel": 0}, {"type": "note_on", "time": 572, "note": 66, "velocity": 117, "channel": 0}, {"type": "note_off", "time": 86, "note": 66, "velocity": 117, "channel": 0}, {"type": "note_on", "time": 13, "note": 67, "velocity": 111, "channel": 0}, {"type": "note_off", "time": 80, "note": 67, "velocity": 111, "channel": 0}, {"type": "note_on", "time": 27, "note": 74, "velocity": 96, "channel": 0}, {"type": "note_off", "time": 49, "note": 74, "velocity": 96, "channel": 0}, {"type": "note_on", "time": 19, "note": 77, "velocity": 122, "channel": 0}, {"type": "note_off", "time": 91, "note": 77, "velocity": 122, "channel": 0}, {"type": "note_on", "time": 16, "note": 74, "velocity": 101, "channel": 0}, {"type": "note_off", "time": 88, "note": 74, "velocity": 101, "channel": 0}, {"type": "note_on", "time": 5, "note": 76, "velocity": 116, "channel": 0}, {"type": "note_off", "time": 38, "note": 76, "velocity": 116, "channel": 0}, {"type": "note_on", "time": 5, "note": 75, "velocity": 106, "channel": 0}, {"type": "note_off", "time": 27, "note": 75, "velocity": 106, "channel": 0}, {"type": "note_on", "time": 27, "note": 76, "velocity": 115, "channel": 0}, {"type": "note_off", "time": 108, "note": 76, "velocity": 115, "channel": 0}, {"type": "note_on", "time": 86, "note": 73, "velocity": 94, "channel": 0}, {"type": "note_off", "time": 86, "note": 73, "velocity": 94, "channel": 0}, {"type": "note_on", "time": 16, "note": 74, "velocity": 120, "channel": 0}, {"type": "note_off", "time": 72, "note": 74, "velocity": 120, "channel": 0}, {"type": "note_on", "time": 0, "note": 72, "velocity": 120, "channel": 0}, {"type": "note_off", "time": 83, "note": 72, "velocity": 120, "channel": 0}, {"type": "note_on", "time": 2, "note": 70, "velocity": 117, "channel": 0}, {"type": "note_off", "time": 94, "note": 70, "velocity": 117, "channel": 0}, {"type": "note_on", "time": 5, "note": 69, "velocity": 121, "channel": 0}, {"type": "note_off", "time": 105, "note": 69, "velocity": 121, "channel": 0}, {"type": "note_on", "time": 2, "note": 67, "velocity": 122, "channel": 0}, {"type": "note_off", "time": 97, "note": 67, "velocity": 122, "channel": 0}, {"type": "note_on", "time": 11, "note": 65, "velocity": 121, "channel": 0}, {"type": "note_off", "time": 113, "note": 65, "velocity": 121, "channel": 0}, {"type": "note_on", "time": 5, "note": 63, "velocity": 105, "channel": 0}, {"type": "note_off", "time": 72, "note": 63, "velocity": 105, "channel": 0}, {"type": "note_on", "time": 5, "note": 67, "velocity": 99, "channel": 0}, {"type": "note_on", "time": 69, "note": 70, "velocity": 116, "channel": 0}, {"type": "note_off", "time": 0, "note": 67, "velocity": 99, "channel": 0}, {"type": "note_off", "time": 97, "note": 70, "velocity": 116, "channel": 0}, {"type": "note_on", "time": 8, "note": 74, "velocity": 115, "channel": 0}, {"type": "note_on", "time": 97, "note": 72, "velocity": 119, "channel": 0}, {"type": "note_off", "time": 0, "note": 74, "velocity": 115, "channel": 0}, {"type": "note_off", "time": 77, "note": 72, "velocity": 119, "channel": 0}, {"type": "note_on", "time": 13, "note": 70, "velocity": 112, "channel": 0}, {"type": "note_on", "time": 97, "note": 69, "velocity": 109, "channel": 0}, {"type": "note_off", "time": 0, "note": 70, "velocity": 112, "channel": 0}, {"type": "note_off", "time": 94, "note": 69, "velocity": 109, "channel": 0}, {"type": "note_on", "time": 0, "note": 68, "velocity": 122, "channel": 0}, {"type": "note_off", "time": 113, "note": 68, "velocity": 122, "channel": 0}, {"type": "note_on", "time": 0, "note": 66, "velocity": 114, "channel": 0}, {"type": "note_off", "time": 86, "note": 66, "velocity": 114, "channel": 0}, {"type": "note_on", "time": 19, "note": 67, "velocity": 107, "channel": 0}, {"type": "note_off", "time": 74, "note": 67, "velocity": 107, "channel": 0}, {"type": "note_on", "time": 13, "note": 70, "velocity": 116, "channel": 0}, {"type": "note_off", "time": 94, "note": 70, "velocity": 116, "channel": 0}, {"type": "note_on", "time": 11, "note": 67, "velocity": 116, "channel": 0}, {"type": "note_off", "time": 88, "note": 67, "velocity": 116, "channel": 0}, {"type": "note_on", "time": 2, "note": 63, "velocity": 108, "channel": 0}, {"type": "note_off", "time": 102, "note": 63, "velocity": 108, "channel": 0}, {"type": "note_on", "time": 5, "note": 60, "velocity": 103, "channel": 0}, {"type": "note_off", "time": 66, "note": 60, "velocity": 103, "channel": 0}, {"type": "note_on", "time": 5, "note": 65, "velocity": 118, "channel": 0}, {"type": "note_off", "time": 108, "note": 65, "velocity": 118, "channel": 0}, {"type": "note_on", "time": 22, "note": 63, "velocity": 114, "channel": 0}, {"type": "note_off", "time": 80, "note": 63, "velocity": 114, "channel": 0}, {"type": "note_on", "time": 8, "note": 62, "velocity": 109, "channel": 0}, {"type": "note_off", "time": 91, "note": 62, "velocity": 109, "channel": 0}, {"type": "note_on", "time": 27, "note": 58, "velocity": 103, "channel": 0}, {"type": "note_off", "time": 91, "note": 58, "velocity": 103, "channel": 0}, {"type": "note_on", "time": 0, "note": 55, "velocity": 102, "channel": 0}, {"type": "note_off", "time": 72, "note": 55, "velocity": 102, "channel": 0}, {"type": "note_on", "time": 0, "note": 57, "velocity": 106, "channel": 0}, {"type": "note_off", "time": 52, "note": 57, "velocity": 106, "channel": 0}, {"type": "note_on", "time": 0, "note": 60, "velocity": 114, "channel": 0}, {"type": "note_off", "time": 155, "note": 60, "velocity": 114, "channel": 0}, {"type": "note_on", "time": 2, "note": 59, "velocity": 102, "channel": 0}, {"type": "note_off", "time": 63, "note": 59, "velocity": 102, "channel": 0}, {"type": "note_on", "time": 5, "note": 58, "velocity": 104, "channel": 0}, {"type": "note_off", "time": 69, "note": 58, "velocity": 104, "channel": 0}, {"type": "note_on", "time": 19, "note": 57, "velocity": 112, "channel": 0}, {"type": "note_off", "time": 119, "note": 57, "velocity": 112, "channel": 0}, {"type": "note_on", "time": 22, "note": 56, "velocity": 108, "channel": 0}, {"type": "note_off", "time": 83, "note": 56, "velocity": 108, "channel": 0}, {"type": "note_on", "time": 5, "note": 58, "velocity": 97, "channel": 0}, {"type": "note_off", "time": 49, "note": 58, "velocity": 97, "channel": 0}, {"type": "note_on", "time": 0, "note": 60, "velocity": 99, "channel": 0}, {"type": "note_off", "time": 88, "note": 60, "velocity": 99, "channel": 0}, {"type": "note_on", "time": 13, "note": 62, "velocity": 107, "channel": 0}, {"type": "note_off", "time": 77, "note": 62, "velocity": 107, "channel": 0}, {"type": "note_on", "time": 0, "note": 70, "velocity": 119, "channel": 0}, {"type": "note_off", "time": 138, "note": 70, "velocity": 119, "channel": 0}, {"type": "note_on", "time": 0, "note": 66, "velocity": 112, "channel": 0}, {"type": "note_off", "time": 174, "note": 66, "velocity": 112, "channel": 0}, {"type": "note_on", "time": 1221, "note": 67, "velocity": 120, "channel": 0}, {"type": "note_off", "time": 127, "note": 67, "velocity": 120, "channel": 0}, {"type": "note_on", "time": 16, "note": 70, "velocity": 108, "channel": 0}, {"type": "note_off", "time": 52, "note": 70, "velocity": 108, "channel": 0}, {"type": "note_on", "time": 0, "note": 74, "velocity": 108, "channel": 0}, {"type": "note_off", "time": 108, "note": 74, "velocity": 108, "channel": 0}, {"type": "note_on", "time": 0, "note": 77, "velocity": 117, "channel": 0}, {"type": "note_off", "time": 91, "note": 77, "velocity": 117, "channel": 0}, {"type": "note_on", "time": 19, "note": 74, "velocity": 126, "channel": 0}, {"type": "note_on", "time": 83, "note": 72, "velocity": 123, "channel": 0}, {"type": "note_off", "time": 0, "note": 74, "velocity": 126, "channel": 0}, {"type": "note_off", "time": 69, "note": 72, "velocity": 123, "channel": 0}, {"type": "note_on", "time": 0, "note": 70, "velocity": 119, "channel": 0}, {"type": "note_on", "time": 58, "note": 67, "velocity": 117, "channel": 0}, {"type": "note_off", "time": 0, "note": 70, "velocity": 119, "channel": 0}, {"type": "note_off", "time": 144, "note": 67, "velocity": 117, "channel": 0}, {"type": "note_on", "time": 0, "note": 74, "velocity": 127, "channel": 0}, {"type": "note_off", "time": 136, "note": 74, "velocity": 127, "channel": 0}, {"type": "note_on", "time": 16, "note": 77, "velocity": 112, "channel": 0}, {"type": "note_off", "time": 391, "note": 77, "velocity": 112, "channel": 0}, {"type": "note_on", "time": 324, "note": 65, "velocity": 118, "channel": 0}, {"type": "note_off", "time": 149, "note": 65, "velocity": 118, "channel": 0}, {"type": "note_on", "time": 8, "note": 67, "velocity": 105, "channel": 0}, {"type": "note_off", "time": 52, "note": 67, "velocity": 105, "channel": 0}, {"type": "note_on", "time": 0, "note": 70, "velocity": 91, "channel": 0}, {"type": "note_off", "time": 41, "note": 70, "velocity": 91, "channel": 0}, {"type": "note_on", "time": 2, "note": 73, "velocity": 92, "channel": 0}, {"type": "note_off", "time": 36, "note": 73, "velocity": 92, "channel": 0}, {"type": "note_on", "time": 5, "note": 77, "velocity": 124, "channel": 0}, {"type": "note_off", "time": 141, "note": 77, "velocity": 124, "channel": 0}, {"type": "note_on", "time": 0, "note": 76, "velocity": 122, "channel": 0}, {"type": "note_on", "time": 119, "note": 75, "velocity": 115, "channel": 0}, {"type": "note_off", "time": 0, "note": 76, "velocity": 122, "channel": 0}, {"type": "note_off", "time": 41, "note": 75, "velocity": 115, "channel": 0}, {"type": "note_on", "time": 11, "note": 74, "velocity": 123, "channel": 0}, {"type": "note_off", "time": 91, "note": 74, "velocity": 123, "channel": 0}, {"type": "note_on", "time": 2, "note": 73, "velocity": 125, "channel": 0}, {"type": "note_off", "time": 83, "note": 73, "velocity": 125, "channel": 0}, {"type": "note_on", "time": 8, "note": 72, "velocity": 123, "channel": 0}, {"type": "note_off", "time": 86, "note": 72, "velocity": 123, "channel": 0}, {"type": "note_on", "time": 8, "note": 70, "velocity": 119, "channel": 0}, {"type": "note_off", "time": 80, "note": 70, "velocity": 119, "channel": 0}, {"type": "note_on", "time": 2, "note": 66, "velocity": 118, "channel": 0}, {"type": "note_on", "time": 97, "note": 61, "velocity": 100, "channel": 0}, {"type": "note_off", "time": 0, "note": 66, "velocity": 118, "channel": 0}, {"type": "note_off", "time": 66, "note": 61, "velocity": 100, "channel": 0}, {"type": "note_on", "time": 13, "note": 60, "velocity": 91, "channel": 0}, {"type": "note_off", "time": 66, "note": 60, "velocity": 91, "channel": 0}, {"type": "note_on", "time": 13, "note": 69, "velocity": 118, "channel": 0}, {"type": "note_off", "time": 124, "note": 69, "velocity": 118, "channel": 0}, {"type": "note_on", "time": 11, "note": 67, "velocity": 119, "channel": 0}, {"type": "note_off", "time": 97, "note": 67, "velocity": 119, "channel": 0}, {"type": "note_on", "time": 2, "note": 65, "velocity": 118, "channel": 0}, {"type": "note_off", "time": 108, "note": 65, "velocity": 118, "channel": 0}, {"type": "note_on", "time": 8, "note": 74, "velocity": 101, "channel": 0}, {"type": "note_off", "time": 91, "note": 74, "velocity": 101, "channel": 0}, {"type": "note_on", "time": 30, "note": 62, "velocity": 101, "channel": 0}, {"type": "note_off", "time": 83, "note": 62, "velocity": 101, "channel": 0}, {"type": "note_on", "time": 0, "note": 58, "velocity": 105, "channel": 0}, {"type": "note_off", "time": 80, "note": 58, "velocity": 105, "channel": 0}, {"type": "note_on", "time": 2, "note": 60, "velocity": 119, "channel": 0}, {"type": "note_off", "time": 102, "note": 60, "velocity": 119, "channel": 0}, {"type": "note_on", "time": 2, "note": 58, "velocity": 109, "channel": 0}, {"type": "note_off", "time": 88, "note": 58, "velocity": 109, "channel": 0}, {"type": "note_on", "time": 19, "note": 57, "velocity": 101, "channel": 0}, {"type": "note_off", "time": 105, "note": 57, "velocity": 101, "channel": 0}, {"type": "note_on", "time": 27, "note": 62, "velocity": 122, "channel": 0}, {"type": "note_off", "time": 88, "note": 62, "velocity": 122, "channel": 0}, {"type": "note_on", "time": 27, "note": 65, "velocity": 109, "channel": 0}, {"type": "note_off", "time": 108, "note": 65, "velocity": 109, "channel": 0}, {"type": "note_on", "time": 8, "note": 67, "velocity": 102, "channel": 0}, {"type": "note_off", "time": 49, "note": 67, "velocity": 102, "channel": 0}, {"type": "note_on", "time": 24, "note": 69, "velocity": 106, "channel": 0}, {"type": "note_off", "time": 74, "note": 69, "velocity": 106, "channel": 0}, {"type": "note_on", "time": 11, "note": 72, "velocity": 123, "channel": 0}, {"type": "note_off", "time": 108, "note": 72, "velocity": 123, "channel": 0}, {"type": "note_on", "time": 0, "note": 71, "velocity": 120, "channel": 0}, {"type": "note_off", "time": 74, "note": 71, "velocity": 120, "channel": 0}, {"type": "note_on", "time": 8, "note": 70, "velocity": 115, "channel": 0}, {"type": "note_off", "time": 105, "note": 70, "velocity": 115, "channel": 0}, {"type": "note_on", "time": 8, "note": 69, "velocity": 125, "channel": 0}, {"type": "note_off", "time": 86, "note": 69, "velocity": 125, "channel": 0}, {"type": "note_on", "time": 0, "note": 67, "velocity": 126, "channel": 0}, {"type": "note_off", "time": 108, "note": 67, "velocity": 126, "channel": 0}, {"type": "note_on", "time": 0, "note": 65, "velocity": 119, "channel": 0}, {"type": "note_off", "time": 88, "note": 65, "velocity": 119, "channel": 0}, {"type": "note_on", "time": 5, "note": 64, "velocity": 114, "channel": 0}, {"type": "note_off", "time": 97, "note": 64, "velocity": 114, "channel": 0}, {"type": "note_on", "time": 11, "note": 60, "velocity": 98, "channel": 0}, {"type": "note_off", "time": 74, "note": 60, "velocity": 98, "channel": 0}, {"type": "note_on", "time": 11, "note": 62, "velocity": 96, "channel": 0}, {"type": "note_off", "time": 491, "note": 62, "velocity": 96, "channel": 0}, {"type": "note_on", "time": 658, "note": 65, "velocity": 121, "channel": 0}, {"type": "note_off", "time": 111, "note": 65, "velocity": 121, "channel": 0}, {"type": "note_on", "time": 8, "note": 67, "velocity": 112, "channel": 0}, {"type": "note_off", "time": 66, "note": 67, "velocity": 112, "channel": 0}, {"type": "note_on", "time": 11, "note": 70, "velocity": 110, "channel": 0}, {"type": "note_off", "time": 86, "note": 70, "velocity": 110, "channel": 0}, {"type": "note_on", "time": 2, "note": 72, "velocity": 120, "channel": 0}, {"type": "note_off", "time": 61, "note": 72, "velocity": 120, "channel": 0}, {"type": "note_on", "time": 5, "note": 73, "velocity": 124, "channel": 0}, {"type": "note_off", "time": 113, "note": 73, "velocity": 124, "channel": 0}, {"type": "note_on", "time": 0, "note": 70, "velocity": 100, "channel": 0}, {"type": "note_off", "time": 77, "note": 70, "velocity": 100, "channel": 0}, {"type": "note_on", "time": 2, "note": 72, "velocity": 124, "channel": 0}, {"type": "note_off", "time": 497, "note": 72, "velocity": 124, "channel": 0}, {"type": "note_on", "time": 2, "note": 69, "velocity": 111, "channel": 0}, {"type": "note_off", "time": 86, "note": 69, "velocity": 111, "channel": 0}, {"type": "note_on", "time": 8, "note": 70, "velocity": 116, "channel": 0}, {"type": "note_off", "time": 97, "note": 70, "velocity": 116, "channel": 0}, {"type": "note_on", "time": 0, "note": 65, "velocity": 113, "channel": 0}, {"type": "note_off", "time": 122, "note": 65, "velocity": 113, "channel": 0}, {"type": "note_on", "time": 0, "note": 62, "velocity": 94, "channel": 0}, {"type": "note_off", "time": 122, "note": 62, "velocity": 94, "channel": 0}, {"type": "note_on", "time": 16, "note": 69, "velocity": 114, "channel": 0}, {"type": "note_off", "time": 138, "note": 69, "velocity": 114, "channel": 0}, {"type": "note_on", "time": 0, "note": 68, "velocity": 118, "channel": 0}, {"type": "note_off", "time": 105, "note": 68, "velocity": 118, "channel": 0}, {"type": "note_on", "time": 2, "note": 67, "velocity": 101, "channel": 0}, {"type": "note_off", "time": 86, "note": 67, "velocity": 101, "channel": 0}, {"type": "note_on", "time": 22, "note": 66, "velocity": 124, "channel": 0}, {"type": "note_off", "time": 91, "note": 66, "velocity": 124, "channel": 0}, {"type": "note_on", "time": 16, "note": 65, "velocity": 107, "channel": 0}, {"type": "note_off", "time": 99, "note": 65, "velocity": 107, "channel": 0}, {"type": "note_on", "time": 8, "note": 64, "velocity": 98, "channel": 0}, {"type": "note_off", "time": 74, "note": 64, "velocity": 98, "channel": 0}, {"type": "note_on", "time": 8, "note": 63, "velocity": 94, "channel": 0}, {"type": "note_off", "time": 80, "note": 63, "velocity": 94, "channel": 0}, {"type": "note_on", "time": 0, "note": 58, "velocity": 98, "channel": 0}, {"type": "note_off", "time": 102, "note": 58, "velocity": 98, "channel": 0}, {"type": "note_on", "time": 16, "note": 55, "velocity": 107, "channel": 0}, {"type": "note_off", "time": 111, "note": 55, "velocity": 107, "channel": 0}, {"type": "note_on", "time": 27, "note": 61, "velocity": 109, "channel": 0}, {"type": "note_on", "time": 77, "note": 62, "velocity": 102, "channel": 0}, {"type": "note_off", "time": 0, "note": 61, "velocity": 109, "channel": 0}, {"type": "note_off", "time": 74, "note": 62, "velocity": 102, "channel": 0}, {"type": "note_on", "time": 0, "note": 60, "velocity": 108, "channel": 0}, {"type": "note_off", "time": 61, "note": 60, "velocity": 108, "channel": 0}, {"type": "note_on", "time": 8, "note": 58, "velocity": 95, "channel": 0}, {"type": "note_off", "time": 191, "note": 58, "velocity": 95, "channel": 0}, {"type": "end_of_track", "time": 0}]]}