{"ticks_per_beat": 192, "tracks": [[{"type": "track_name", "name": "Melody", "time": 0}, {"type": "set_tempo", "tempo": 377358, "time": 0}, {"type": "key_signature", "key": "F", "time": 0}, {"type": "time_signature", "numerator": 4, "denominator": 4, "clocks_per_click": 24, "notated_32nd_notes_per_beat": 8, "time": 0}, {"type": "note_on", "time": 1273, "note": 60, "velocity": 102, "channel": 0}, {"type": "note_off", "time": 81, "note": 60, "velocity": 102, "channel": 0}, {"type": "note_on", "time": 0, "note": 65, "velocity": 115, "channel": 0}, {"type": "note_off", "time": 99, "note": 65, "velocity": 115, "channel": 0}, {"type": "note_on", "time": 78, "note": 67, "velocity": 117, "channel": 0}, {"type": "note_off", "time": 111, "note": 67, "velocity": 117, "channel": 0}, {"type": "note_on", "time": 3, "note": 68, "velocity": 116, "channel": 0}, {"type": "note_off", "time": 80, "note": 68, "velocity": 116, "channel": 0}, {"type": "note_on", "time": 5, "note": 69, "velocity": 118, "channel": 0}, {"type": "note_off", "time": 107, "note": 69, "velocity": 118, "channel": 0}, {"type": "note_on", "time": 73, "note": 70, "velocity": 117, "channel": 0}, {"type": "note_off", "time": 123, "note": 70, "velocity": 117, "channel": 0}, {"type": "note_on", "time": 5, "note": 71, "velocity": 118, "channel": 0}, {"type": "note_off", "time": 69, "note": 71, "velocity": 118, "channel": 0}, {"type": "note_on", "time": 2, "note": 72, "velocity": 115, "channel": 0}, {"type": "note_off", "time": 116, "note": 72, "velocity": 115, "channel": 0}, {"type": "note_on", "time": 89, "note": 70, "velocity": 113, "channel": 0}, {"type": "note_off", "time": 89, "note": 70, "velocity": 113, "channel": 0}, {"type": "note_on", "time": 0, "note": 72, "velocity": 106, "channel": 0}, {"type": "note_off", "time": 28, "note": 72, "velocity": 106, "channel": 0}, {"type": "note_on", "time": 0, "note": 70, "velocity": 119, "channel": 0}, {"type": "note_off", "time": 54, "note": 70, "velocity": 119, "channel": 0}, {"type": "note_on", "time": 2, "note": 69, "velocity": 122, "channel": 0}, {"type": "note_off", "time": 118, "note": 69, "velocity": 122, "channel": 0}, {"type": "note_on", "time": 5, "note": 65, "velocity": 110, "channel": 0}, {"type": "note_off", "time": 68, "note": 65, "velocity": 110, "channel": 0}, {"type": "note_on", "time": 5, "note": 62, "velocity": 98, "channel": 0}, {"type": "note_off", "time": 104, "note": 62, "velocity": 98, "channel": 0}, {"type": "note_on", "time": 88, "note": 67, "velocity": 113, "channel": 0}, {"type": "note_off", "time": 36, "note": 67, "velocity": 113, "channel": 0}, {"type": "note_on", "time": 0, "note": 68, "velocity": 113, "channel": 0}, {"type": "note_off", "time": 36, "note": 68, "velocity": 113, "channel": 0}, {"type": "note_on", "time": 2, "note": 67, "velocity": 110, "channel": 0}, {"type": "note_off", "time": 29, "note": 67, "velocity": 110, "channel": 0}, {"type": "note_on", "time": 0, "note": 65, "velocity": 114, "channel": 0}, {"type": "note_off", "time": 65, "note": 65, "velocity": 114, "channel": 0}, {"type": "note_on", "time": 0, "note": 63, "velocity": 108, "channel": 0}, {"type": "note_off", "time": 123, "note": 63, "velocity": 108, "channel": 0}, {"type": "note_on", "time": 1, "note": 65, "velocity": 96, "channel": 0}, {"type": "note_off", "time": 333, "note": 65, "velocity": 96, "channel": 0}, {"type": "note_on", "time": 804, "note": 76, "velocity": 127, "channel": 0}, {"type": "note_off", "time": 62, "note": 76, "velocity": 127, "channel": 0}, {"type": "note_on", "time": 2, "note": 77, "velocity": 112, "channel": 0}, {"type": "note_off", "time": 139, "note": 77, "velocity": 112, "channel": 0}, {"type": "note_on", "time": 6, "note": 72, "velocity": 103, "channel": 0}, {"type": "note_off", "time": 26, "note": 72, "velocity": 103, "channel": 0}, {"type": "note_on", "time": 2, "note": 70, "velocity": 113, "channel": 0}, {"type": "note_off", "time": 28, "note": 70, "velocity": 113, "channel": 0}, {"type": "note_on", "time": 4, "note": 67, "velocity": 117, "channel": 0}, {"type": "note_off", "time": 26, "note": 67, "velocity": 117, "channel": 0}, {"type": "note_on", "time": 6, "note": 68, "velocity": 117, "channel": 0}, {"type": "note_off", "time": 91, "note": 68, "velocity": 117, "channel": 0}, {"type": "note_on", "time": 3, "note": 65, "velocity": 91, "channel": 0}, {"type": "note_off", "time": 53, "note": 65, "velocity": 91, "channel": 0}, {"type": "note_on", "time": 0, "note": 67, "velocity": 107, "channel": 0}, {"type": "note_off", "time": 108, "note": 67, "velocity": 107, "channel": 0}, {"type": "note_on", "time": 0, "note": 65, "velocity": 109, "channel": 0}, {"type": "note_off", "time": 84, "note": 65, "velocity": 109, "channel": 0}, {"type": "note_on", "time": 0, "note": 63, "velocity": 103, "channel": 0}, {"type": "note_off", "time": 101, "note": 63, "velocity": 103, "channel": 0}, {"type": "note_on", "time": 7, "note": 62, "velocity": 104, "channel": 0}, {"type": "note_off", "time": 82, "note": 62, "velocity": 104, "channel": 0}, {"type": "note_on", "time": 2, "note": 60, "velocity": 98, "channel": 0}, {"type": "note_off", "time": 107, "note": 60, "velocity": 98, "channel": 0}, {"type": "note_on", "time": 20, "note": 60, "velocity": 101, "channel": 0}, {"type": "note_off", "time": 52, "note": 60, "velocity": 101, "channel": 0}, {"type": "note_on", "time": 0, "note": 58, "velocity": 98, "channel": 0}, {"type": "note_off", "time": 136, "note": 58, "velocity": 98, "channel": 0}, {"type": "note_on", "time": 0, "note": 52, "velocity": 96, "channel": 0}, {"type": "note_off", "time": 53, "note": 52, "velocity": 96, "channel": 0}, {"type": "note_on", "time": 8, "note": 56, "velocity": 110, "channel": 0}, {"type": "note_off", "time": 121, "note": 56, "velocity": 110, "channel": 0}, {"type": "note_on", "time": 5, "note": 57, "velocity": 102, "channel": 0}, {"type": "note_off", "time": 77, "note": 57, "velocity": 102, "channel": 0}, {"type": "note_on", "time": 5, "note": 58, "velocity": 79, "channel": 0}, {"type": "note_off", "time": 99, "note": 58, "velocity": 79, "channel": 0}, {"type": "note_on", "time": 2, "note": 59, "velocity": 99, "channel": 0}, {"type": "note_off", "time": 57, "note": 59, "velocity": 99, "channel": 0}, {"type": "note_on", "time": 8, "note": 60, "velocity": 100, "channel": 0}, {"type": "note_off", "time": 123, "note": 60, "velocity": 100, "channel": 0}, {"type": "note_on", "time": 5, "note": 62, "velocity": 96, "channel": 0}, {"type": "note_off", "time": 21, "note": 62, "velocity": 96, "channel": 0}, {"type": "note_on", "time": 5, "note": 60, "velocity": 94, "channel": 0}, {"type": "note_off", "time": 23, "note": 60, "velocity": 94, "channel": 0}, {"type": "note_on", "time": 5, "note": 57, "velocity": 97, "channel": 0}, {"type": "note_off", "time": 106, "note": 57, "velocity": 97, "channel": 0}, {"type": "note_on", "time": 22, "note": 60, "velocity": 91, "channel": 0}, {"type": "note_off", "time": 64, "note": 60, "velocity": 91, "channel": 0}, {"type": "note_on", "time": 1, "note": 64, "velocity": 107, "channel": 0}, {"type": "note_off", "time": 116, "note": 64, "velocity": 107, "channel": 0}, {"type": "note_on", "time": 11, "note": 62, "velocity": 92, "channel": 0}, {"type": "note_off", "time": 189, "note": 62, "velocity": 92, "channel": 0}, {"type": "note_on", "time": 1110, "note": 67, "velocity": 104, "channel": 0}, {"type": "note_off", "time": 40, "note": 67, "velocity": 104, "channel": 0}, {"type": "note_on", "time": 0, "note": 70, "velocity": 105, "channel": 0}, {"type": "note_off", "time": 39, "note": 70, "velocity": 105, "channel": 0}, {"type": "note_on", "time": 8, "note": 74, "velocity": 95, "channel": 0}, {"type": "note_off", "time": 28, "note": 74, "velocity": 95, "channel": 0}, {"type": "note_on", "time": 17, "note": 77, "velocity": 120, "channel": 0}, {"type": "note_off", "time": 57, "note": 77, "velocity": 120, "channel": 0}, {"type": "note_on", "time": 3, "note": 76, "velocity": 122, "channel": 0}, {"type": "note_off", "time": 95, "note": 76, "velocity": 122, "channel": 0}, {"type": "note_on", "time": 0, "note": 74, "velocity": 122, "channel": 0}, {"type": "note_off", "time": 107, "note": 74, "velocity": 122, "channel": 0}, {"type": "note_on", "time": 0, "note": 73, "velocity": 121, "channel": 0}, {"type": "note_off", "time": 37, "note": 73, "velocity": 121, "channel": 0}, {"type": "note_on", "time": 1, "note": 71, "velocity": 115, "channel": 0}, {"type": "note_off", "time": 38, "note": 71, "velocity": 115, "channel": 0}, {"type": "note_on", "time": 0, "note": 72, "velocity": 119, "channel": 0}, {"type": "note_off", "time": 138, "note": 72, "velocity": 119, "channel": 0}, {"type": "note_on", "time": 0, "note": 69, "velocity": 95, "channel": 0}, {"type": "note_off", "time": 33, "note": 69, "velocity": 95, "channel": 0}, {"type": "note_on", "time": 4, "note": 70, "velocity": 112, "channel": 0}, {"type": "note_off", "time": 113, "note": 70, "velocity": 112, "channel": 0}, {"type": "note_on", "time": 8, "note": 70, "velocity": 114, "channel": 0}, {"type": "note_off", "time": 79, "note": 70, "velocity": 114, "channel": 0}, {"type": "note_on", "time": 10, "note": 69, "velocity": 119, "channel": 0}, {"type": "note_off", "time": 110, "note": 69, "velocity": 119, "channel": 0}, {"type": "note_on", "time": 2, "note": 65, "velocity": 110, "channel": 0}, {"type": "note_off", "time": 73, "note": 65, "velocity": 110, "channel": 0}, {"type": "note_on", "time": 2, "note": 62, "velocity": 97, "channel": 0}, {"type": "note_off", "time": 126, "note": 62, "velocity": 97, "channel": 0}, {"type": "note_on", "time": 3, "note": 60, "velocity": 90, "channel": 0}, {"type": "note_off", "time": 53, "note": 60, "velocity": 90, "channel": 0}, {"type": "note_on", "time": 0, "note": 67, "velocity": 107, "channel": 0}, {"type": "note_off", "time": 147, "note": 67, "velocity": 107, "channel": 0}, {"type": "note_on", "time": 2, "note": 65, "velocity": 80, "channel": 0}, {"type": "note_off", "time": 36, "note": 65, "velocity": 80, "channel": 0}, {"type": "note_on", "time": 0, "note": 67, "velocity": 111, "channel": 0}, {"type": "note_off", "time": 122, "note": 67, "velocity": 111, "channel": 0}, {"type": "note_on", "time": 22, "note": 68, "velocity": 118, "channel": 0}, {"type": "note_off", "time": 37, "note": 68, "velocity": 118, "channel": 0}, {"type": "note_on", "time": 0, "note": 69, "velocity": 90, "channel": 0}, {"type": "note_off", "time": 290, "note": 69, "velocity": 90, "channel": 0}, {"type": "note_on", "time": 1020, "note": 65, "velocity": 120, "channel": 0}, {"type": "note_off", "time": 101, "note": 65, "velocity": 120, "channel": 0}, {"type": "note_on", "time": 31, "note": 68, "velocity": 111, "channel": 0}, {"type": "note_off", "time": 100, "note": 68, "velocity": 111, "channel": 0}, {"type": "note_on", "time": 2, "note": 70, "velocity": 99, "channel": 0}, {"type": "note_off", "time": 81, "note": 70, "velocity": 99, "channel": 0}, {"type": "note_on", "time": 6, "note": 69, "velocity": 110, "channel": 0}, {"type": "note_off", "time": 51, "note": 69, "velocity": 110, "channel": 0}, {"type": "note_on", "time": 0, "note": 70, "velocity": 99, "channel": 0}, {"type": "note_off", "time": 47, "note": 70, "velocity": 99, "channel": 0}, {"type": "note_on", "time": 2, "note": 71, "velocity": 97, "channel": 0}, {"type": "note_off", "time": 56, "note": 71, "velocity": 97, "channel": 0}, {"type": "note_on", "time": 29, "note": 71, "velocity": 110, "channel": 0}, {"type": "note_off", "time": 63, "note": 71, "velocity": 110, "channel": 0}, {"type": "note_on", "time": 11, "note": 71, "velocity": 109, "channel": 0}, {"type": "note_off", "time": 78, "note": 71, "velocity": 109, "channel": 0}, {"type": "note_on", "time": 1, "note": 70, "velocity": 100, "channel": 0}, {"type": "note_off", "time": 75, "note": 70, "velocity": 100, "channel": 0}, {"type": "note_on", "time": 5, "note": 68, "velocity": 110, "channel": 0}, {"type": "note_off", "time": 70, "note": 68, "velocity": 110, "channel": 0}, {"type": "note_on", "time": 11, "note": 65, "velocity": 87, "channel": 0}, {"type": "note_off", "time": 39, "note": 65, "velocity": 87, "channel": 0}, {"type": "note_on", "time": 0, "note": 69, "velocity": 111, "channel": 0}, {"type": "note_off", "time": 52, "note": 69, "velocity": 111, "channel": 0}, {"type": "note_on", "time": 1, "note": 70, "velocity": 104, "channel": 0}, {"type": "note_off", "time": 62, "note": 70, "velocity": 104, "channel": 0}, {"type": "note_on", "time": 9, "note": 71, "velocity": 110, "channel": 0}, {"type": "note_off", "time": 64, "note": 71, "velocity": 110, "channel": 0}, {"type": "note_on", "time": 2, "note": 70, "velocity": 104, "channel": 0}, {"type": "note_off", "time": 208, "note": 70, "velocity": 104, "channel": 0}, {"type": "note_on", "time": 426, "note": 65, "velocity": 108, "channel": 0}, {"type": "note_off", "time": 81, "note": 65, "velocity": 108, "channel": 0}, {"type": "note_on", "time": 0, "note": 68, "velocity": 109, "channel": 0}, {"type": "note_off", "time": 114, "note": 68, "velocity": 109, "channel": 0}, {"type": "note_on", "time": 0, "note": 69, "velocity": 116, "channel": 0}, {"type": "note_off", "time": 95, "note": 69, "velocity": 116, "channel": 0}, {"type": "note_on", "time": 0, "note": 70, "velocity": 116, "channel": 0}, {"type": "note_off", "time": 83, "note": 70, "velocity": 116, "channel": 0}, {"type": "note_on", "time": 0, "note": 71, "velocity": 116, "channel": 0}, {"type": "note_off", "time": 76, "note": 71, "velocity": 116, "channel": 0}, {"type": "note_on", "time": 7, "note": 72, "velocity": 110, "channel": 0}, {"type": "note_off", "time": 63, "note": 72, "velocity": 110, "channel": 0}, {"type": "note_on", "time": 4, "note": 73, "velocity": 111, "channel": 0}, {"type": "note_off", "time": 36, "note": 73, "velocity": 111, "channel": 0}, {"type": "note_on", "time": 0, "note": 72, "velocity": 119, "channel": 0}, {"type": "note_on", "time": 39, "note": 69, "velocity": 115, "channel": 0}, {"type": "note_off", "time": 0, "note": 72, "velocity": 119, "channel": 0}, {"type": "note_off", "time": 81, "note": 69, "velocity": 115, "channel": 0}, {"type": "note_on", "time": 17, "note": 65, "velocity": 104, "channel": 0}, {"type": "note_off", "time": 86, "note": 65, "velocity": 104, "channel": 0}, {"type": "note_on", "time": 2, "note": 63, "velocity": 101, "channel": 0}, {"type": "note_off", "time": 226, "note": 63, "velocity": 101, "channel": 0}, {"type": "note_on", "time": 127, "note": 67, "velocity": 116, "channel": 0}, {"type": "note_off", "time": 87, "note": 67, "velocity": 116, "channel": 0}, {"type": "note_on", "time": 2, "note": 65, "velocity": 109, "channel": 0}, {"type": "note_off", "time": 39, "note": 65, "velocity": 109, "channel": 0}, {"type": "note_on", "time": 0, "note": 67, "velocity": 111, "channel": 0}, {"type": "note_off", "time": 38, "note": 67, "velocity": 111, "channel": 0}, {"type": "note_on", "time": 2, "note": 65, "velocity": 108, "channel": 0}, {"type": "note_off", "time": 37, "note": 65, "velocity": 108, "channel": 0}, {"type": "note_on", "time": 13, "note": 62, "velocity": 108, "channel": 0}, {"type": "note_off", "time": 55, "note": 62, "velocity": 108, "channel": 0}, {"type": "note_on", "time": 11, "note": 58, "velocity": 94, "channel": 0}, {"type": "note_off", "time": 118, "note": 58, "velocity": 94, "channel": 0}, {"type": "note_on", "time": 2, "note": 55, "velocity": 97, "channel": 0}, {"type": "note_off", "time": 50, "note": 55, "velocity": 97, "channel": 0}, {"type": "note_on", "time": 2, "note": 56, "velocity": 98, "channel": 0}, {"type": "note_off", "time": 296, "note": 56, "velocity": 98, "channel": 0}, {"type": "note_on", "time": 502, "note": 69, "velocity": 106, "channel": 0}, {"type": "note_on", "time": 47, "note": 72, "velocity": 104, "channel": 0}, {"type": "note_off", "time": 0, "note": 69, "velocity": 106, "channel": 0}, {"type": "note_off", "time": 134, "note": 72, "velocity": 104, "channel": 0}, {"type": "note_on", "time": 3, "note": 77, "velocity": 121, "channel": 0}, {"type": "note_on", "time": 109, "note": 72, "velocity": 118, "channel": 0}, {"type": "note_off", "time": 0, "note": 77, "velocity": 121, "channel": 0}, {"type": "note_off", "time": 83, "note": 72, "velocity": 118, "channel": 0}, {"type": "note_on", "time": 3, "note": 70, "velocity": 118, "channel": 0}, {"type": "note_off", "time": 110, "note": 70, "velocity": 118, "channel": 0}, {"type": "note_on", "time": 4, "note": 72, "velocity": 107, "channel": 0}, {"type": "note_off", "time": 30, "note": 72, "velocity": 107, "channel": 0}, {"type": "note_on", "time": 6, "note": 70, "velocity": 120, "channel": 0}, {"type": "note_off", "time": 29, "note": 70, "velocity": 120, "channel": 0}, {"type": "note_on", "time": 0, "note": 69, "velocity": 118, "channel": 0}, {"type": "note_off", "time": 120, "note": 69, "velocity": 118, "channel": 0}, {"type": "note_on", "time": 6, "note": 70, "velocity": 91, "channel": 0}, {"type": "note_off", "time": 70, "note": 70, "velocity": 91, "channel": 0}, {"type": "note_on", "time": 0, "note": 72, "velocity": 117, "channel": 0}, {"type": "note_off", "time": 111, "note": 72, "velocity": 117, "channel": 0}, {"type": "note_on", "time": 0, "note": 69, "velocity": 99, "channel": 0}, {"type": "note_off", "time": 307, "note": 69, "velocity": 99, "channel": 0}, {"type": "note_on", "time": 920, "note": 65, "velocity": 114, "channel": 0}, {"type": "note_off", "time": 69, "note": 65, "velocity": 114, "channel": 0}, {"type": "note_on", "time": 0, "note": 67, "velocity": 106, "channel": 0}, {"type": "note_off", "time": 48, "note": 67, "velocity": 106, "channel": 0}, {"type": "note_on", "time": 0, "note": 70, "velocity": 95, "channel": 0}, {"type": "note_off", "time": 50, "note": 70, "velocity": 95, "channel": 0}, {"type": "note_on", "time": 0, "note": 74, "velocity": 104, "channel": 0}, {"type": "note_off", "time": 36, "note": 74, "velocity": 104, "channel": 0}, {"type": "note_on", "time": 2, "note": 77, "velocity": 117, "channel": 0}, {"type": "note_off", "time": 56, "note": 77, "velocity": 117, "channel": 0}, {"type": "note_on", "time": 5, "note": 74, "velocity": 111, "channel": 0}, {"type": "note_off", "time": 47, "note": 74, "velocity": 111, "channel": 0}, {"type": "note_on", "time": 5, "note": 75, "velocity": 105, "channel": 0}, {"type": "note_off", "time": 31, "note": 75, "velocity": 105, "channel": 0}, {"type": "note_on", "time": 10, "note": 76, "velocity": 118, "channel": 0}, {"type": "note_off", "time": 57, "note": 76, "velocity": 118, "channel": 0}, {"type": "note_on", "time": 4, "note": 72, "velocity": 95, "channel": 0}, {"type": "note_off", "time": 33, "note": 72, "velocity": 95, "channel": 0}, {"type": "note_on", "time": 0, "note": 73, "velocity": 97, "channel": 0}, {"type": "note_off", "time": 30, "note": 73, "velocity": 97, "channel": 0}, {"type": "note_on", "time": 7, "note": 74, "velocity": 118, "channel": 0}, {"type": "note_off", "time": 56, "note": 74, "velocity": 118, "channel": 0}, {"type": "note_on", "time": 2, "note": 72, "velocity": 119, "channel": 0}, {"type": "note_off", "time": 32, "note": 72, "velocity": 119, "channel": 0}, {"type": "note_on", "time": 0, "note": 70, "velocity": 113, "channel": 0}, {"type": "note_off", "time": 47, "note": 70, "velocity": 113, "channel": 0}, {"type": "note_on", "time": 3, "note": 69, "velocity": 110, "channel": 0}, {"type": "note_off", "time": 41, "note": 69, "velocity": 110, "channel": 0}, {"type": "note_on", "time": 2, "note": 67, "velocity": 111, "channel": 0}, {"type": "note_off", "time": 42, "note": 67, "velocity": 111, "channel": 0}, {"type": "note_on", "time": 0, "note": 65, "velocity": 114, "channel": 0}, {"type": "note_off", "time": 55, "note": 65, "velocity": 114, "channel": 0}, {"type": "note_on", "time": 10, "note": 64, "velocity": 96, "channel": 0}, {"type": "note_off", "time": 31, "note": 64, "velocity": 96, "channel": 0}, {"type": "note_on", "time": 0, "note": 67, "velocity": 100, "channel": 0}, {"type": "note_off", "time": 43, "note": 67, "velocity": 100, "channel": 0}, {"type": "note_on", "time": 0, "note": 70, "velocity": 100, "channel": 0}, {"type": "note_off", "time": 60, "note": 70, "velocity": 100, "channel": 0}, {"type": "note_on", "time": 0, "note": 73, "velocity": 118, "channel": 0}, {"type": "note_off", "time": 36, "note": 73, "velocity": 118, "channel": 0}, {"type": "note_on", "time": 0, "note": 72, "velocity": 120, "channel": 0}, {"type": "note_on", "time": 34, "note": 71, "velocity": 110, "channel": 0}, {"type": "note_off", "time": 0, "note": 72, "velocity": 120, "channel": 0}, {"type": "note_off", "time": 15, "note": 71, "velocity": 110, "channel": 0}, {"type": "note_on", "time": 1, "note": 69, "velocity": 112, "channel": 0}, {"type": "note_off", "time": 39, "note": 69, "velocity": 112, "channel": 0}, {"type": "note_on", "time": 8, "note": 71, "velocity": 107, "channel": 0}, {"type": "note_off", "time": 14, "note": 71, "velocity": 107, "channel": 0}, {"type": "note_on", "time": 0, "note": 72, "velocity": 111, "channel": 0}, {"type": "note_off", "time": 41, "note": 72, "velocity": 111, "channel": 0}, {"type": "note_on", "time": 0, "note": 70, "velocity": 117, "channel": 0}, {"type": "note_off", "time": 39, "note": 70, "velocity": 117, "channel": 0}, {"type": "note_on", "time": 0, "note": 69, "velocity": 114, "channel": 0}, {"type": "note_off", "time": 42, "note": 69, "velocity": 114, "channel": 0}, {"type": "note_on", "time": 0, "note": 65, "velocity": 103, "channel": 0}, {"type": "note_off", "time": 48, "note": 65, "velocity": 103, "channel": 0}, {"type": "note_on", "time": 0, "note": 62, "velocity": 93, "channel": 0}, {"type": "note_off", "time": 32, "note": 62, "velocity": 93, "channel": 0}, {"type": "note_on", "time": 1, "note": 60, "velocity": 89, "channel": 0}, {"type": "note_off", "time": 46, "note": 60, "velocity": 89, "channel": 0}, {"type": "note_on", "time": 8, "note": 65, "velocity": 100, "channel": 0}, {"type": "note_off", "time": 123, "note": 65, "velocity": 100, "channel": 0}, {"type": "note_on", "time": 183, "note": 62, "velocity": 111, "channel": 0}, {"type": "note_off", "time": 31, "note": 62, "velocity": 111, "channel": 0}, {"type": "note_on", "time": 2, "note": 63, "velocity": 99, "channel": 0}, {"type": "note_off", "time": 56, "note": 63, "velocity": 99, "channel": 0}, {"type": "note_on", "time": 4, "note": 62, "velocity": 94, "channel": 0}, {"type": "note_off", "time": 89, "note": 62, "velocity": 94, "channel": 0}, {"type": "note_on", "time": 3, "note": 60, "velocity": 97, "channel": 0}, {"type": "note_off", "time": 139, "note": 60, "velocity": 97, "channel": 0}, {"type": "note_on", "time": 431, "note": 60, "velocity": 106, "channel": 0}, {"type": "note_off", "time": 72, "note": 60, "velocity": 106, "channel": 0}, {"type": "note_on", "time": 5, "note": 65, "velocity": 115, "channel": 0}, {"type": "note_off", "time": 110, "note": 65, "velocity": 115, "channel": 0}, {"type": "note_on", "time": 8, "note": 69, "velocity": 93, "channel": 0}, {"type": "note_off", "time": 55, "note": 69, "velocity": 93, "channel": 0}, {"type": "note_on", "time": 1, "note": 72, "velocity": 117, "channel": 0}, {"type": "note_off", "time": 134, "note": 72, "velocity": 117, "channel": 0}, {"type": "note_on", "time": 0, "note": 77, "velocity": 120, "channel": 0}, {"type": "note_off", "time": 254, "note": 77, "velocity": 120, "channel": 0}, {"type": "note_on", "time": 9, "note": 74, "velocity": 113, "channel": 0}, {"type": "note_off", "time": 37, "note": 74, "velocity": 113, "channel": 0}, {"type": "note_on", "time": 4, "note": 75, "velocity": 113, "channel": 0}, {"type": "note_off", "time": 80, "note": 75, "velocity": 113, "channel": 0}, {"type": "note_on", "time": 2, "note": 74, "velocity": 111, "channel": 0}, {"type": "note_off", "time": 31, "note": 74, "velocity": 111, "channel": 0}, {"type": "note_on", "time": 0, "note": 72, "velocity": 117, "channel": 0}, {"type": "note_off", "time": 44, "note": 72, "velocity": 117, "channel": 0}, {"type": "note_on", "time": 2, "note": 70, "velocity": 120, "channel": 0}, {"type": "note_off", "time": 98, "note": 70, "velocity": 120, "channel": 0}, {"type": "note_on", "time": 3, "note": 69, "velocity": 114, "channel": 0}, {"type": "note_off", "time": 89, "note": 69, "velocity": 114, "channel": 0}, {"type": "note_on", "time": 0, "note": 67, "velocity": 114, "channel": 0}, {"type": "note_off", "time": 104, "note": 67, "velocity": 114, "channel": 0}, {"type": "note_on", "time": 2, "note": 66, "velocity": 110, "channel": 0}, {"type": "note_off", "time": 84, "note": 66, "velocity": 110, "channel": 0}, {"type": "note_on", "time": 6, "note": 65, "velocity": 113, "channel": 0}, {"type": "note_off", "time": 116, "note": 65, "velocity": 113, "channel": 0}, {"type": "note_on", "time": 5, "note": 63, "velocity": 100, "channel": 0}, {"type": "note_off", "time": 92, "note": 63, "velocity": 100, "channel": 0}, {"type": "note_on", "time": 3, "note": 62, "velocity": 91, "channel": 0}, {"type": "note_off", "time": 32, "note": 62, "velocity": 91, "channel": 0}, {"type": "note_on", "time": 2, "note": 65, "velocity": 103, "channel": 0}, {"type": "note_off", "time": 62, "note": 65, "velocity": 103, "channel": 0}, {"type": "note_on", "time": 3, "note": 69, "velocity": 104, "channel": 0}, {"type": "note_off", "time": 57, "note": 69, "velocity": 104, "channel": 0}, {"type": "note_on", "time": 14, "note": 72, "velocity": 120, "channel": 0}, {"type": "note_off", "time": 109, "note": 72, "velocity": 120, "channel": 0}, {"type": "note_on", "time": 11, "note": 70, "velocity": 105, "channel": 0}, {"type": "note_off", "time": 84, "note": 70, "velocity": 105, "channel": 0}, {"type": "note_on", "time": 14, "note": 61, "velocity": 95, "channel": 0}, {"type": "note_off", "time": 91, "note": 61, "velocity": 95, "channel": 0}, {"type": "note_on", "time": 0, "note": 70, "velocity": 107, "channel": 0}, {"type": "note_off", "time": 75, "note": 70, "velocity": 107, "channel": 0}, {"type": "note_on", "time": 2, "note": 69, "velocity": 105, "channel": 0}, {"type": "note_off", "time": 33, "note": 69, "velocity": 105, "channel": 0}, {"type": "note_on", "time": 0, "note": 70, "velocity": 99, "channel": 0}, {"type": "note_off", "time": 50, "note": 70, "velocity": 99, "channel": 0}, {"type": "note_on", "time": 7, "note": 69, "velocity": 107, "channel": 0}, {"type": "note_off", "time": 32, "note": 69, "velocity": 107, "channel": 0}, {"type": "note_on", "time": 2, "note": 65, "velocity": 108, "channel": 0}, {"type": "note_off", "time": 63, "note": 65, "velocity": 108, "channel": 0}, {"type": "note_on", "time": 3, "note": 62, "velocity": 103, "channel": 0}, {"type": "note_off", "time": 98, "note": 62, "velocity": 103, "channel": 0}, {"type": "note_on", "time": 10, "note": 60, "velocity": 92, "channel": 0}, {"type": "note_off", "time": 48, "note": 60, "velocity": 92, "channel": 0}, {"type": "note_on", "time": 7, "note": 67, "velocity": 112, "channel": 0}, {"type": "note_off", "time": 45, "note": 67, "velocity": 112, "channel": 0}, {"type": "note_on", "time": 0, "note": 68, "velocity": 112, "channel": 0}, {"type": "note_off", "time": 39, "note": 68, "velocity": 112, "channel": 0}, {"type": "note_on", "time": 2, "note": 67, "velocity": 112, "channel": 0}, {"type": "note_off", "time": 32, "note": 67, "velocity": 112, "channel": 0}, {"type": "note_on", "time": 0, "note": 65, "velocity": 108, "channel": 0}, {"type": "note_off", "time": 50, "note": 65, "velocity": 108, "channel": 0}, {"type": "note_on", "time": 13, "note": 63, "velocity": 105, "channel": 0}, {"type": "note_off", "time": 105, "note": 63, "velocity": 105, "channel": 0}, {"type": "note_on", "time": 7, "note": 65, "velocity": 106, "channel": 0}, {"type": "note_off", "time": 86, "note": 65, "velocity": 106, "channel": 0}, {"type": "note_on", "time": 22, "note": 62, "velocity": 97, "channel": 0}, {"type": "note_off", "time": 93, "note": 62, "velocity": 97, "channel": 0}, {"type": "note_on", "time": 3, "note": 65, "velocity": 109, "channel": 0}, {"type": "note_off", "time": 76, "note": 65, "velocity": 109, "channel": 0}, {"type": "note_on", "time": 5, "note": 61, "velocity": 97, "channel": 0}, {"type": "note_off", "time": 95, "note": 61, "velocity": 97, "channel": 0}, {"type": "note_on", "time": 4, "note": 60, "velocity": 89, "channel": 0}, {"type": "note_off", "time": 260, "note": 60, "velocity": 89, "channel": 0}, {"type": "note_on", "time": 891, "note": 79, "velocity": 92, "channel": 0}, {"type": "note_off", "time": 50, "note": 79, "velocity": 92, "channel": 0}, {"type": "note_on", "time": 0, "note": 80, "velocity": 111, "channel": 0}, {"type": "note_off", "time": 156, "note": 80, "velocity": 111, "channel": 0}, {"type": "note_on", "time": 0, "note": 79, "velocity": 113, "channel": 0}, {"type": "note_off", "time": 78, "note": 79, "velocity": 113, "channel": 0}, {"type": "note_on", "time": 58, "note": 77, "velocity": 108, "channel": 0}, {"type": "note_off", "time": 138, "note": 77, "velocity": 108, "channel": 0}, {"type": "note_on", "time": 8, "note": 74, "velocity": 116, "channel": 0}, {"type": "note_off", "time": 33, "note": 74, "velocity": 116, "channel": 0}, {"type": "note_on", "time": 0, "note": 75, "velocity": 111, "channel": 0}, {"type": "note_off", "time": 61, "note": 75, "velocity": 111, "channel": 0}, {"type": "note_on", "time": 5, "note": 72, "velocity": 114, "channel": 0}, {"type": "note_off", "time": 98, "note": 72, "velocity": 114, "channel": 0}, {"type": "note_on", "time": 0, "note": 70, "velocity": 123, "channel": 0}, {"type": "note_off", "time": 92, "note": 70, "velocity": 123, "channel": 0}, {"type": "note_on", "time": 43, "note": 65, "velocity": 104, "channel": 0}, {"type": "note_off", "time": 42, "note": 65, "velocity": 104, "channel": 0}, {"type": "note_on", "time": 2, "note": 67, "velocity": 112, "channel": 0}, {"type": "note_off", "time": 54, "note": 67, "velocity": 112, "channel": 0}, {"type": "note_on", "time": 12, "note": 68, "velocity": 111, "channel": 0}, {"type": "note_off", "time": 56, "note": 68, "velocity": 111, "channel": 0}, {"type": "note_on", "time": 2, "note": 69, "velocity": 107, "channel": 0}, {"type": "note_off", "time": 155, "note": 69, "velocity": 107, "channel": 0}, {"type": "note_on", "time": 16, "note": 72, "velocity": 115, "channel": 0}, {"type": "note_off", "time": 150, "note": 72, "velocity": 115, "channel": 0}, {"type": "note_on", "time": 239, "note": 70, "velocity": 117, "channel": 0}, {"type": "note_off", "time": 80, "note": 70, "velocity": 117, "channel": 0}, {"type": "note_on", "time": 6, "note": 69, "velocity": 106, "channel": 0}, {"type": "note_on", "time": 48, "note": 70, "velocity": 98, "channel": 0}, {"type": "note_off", "time": 0, "note": 69, "velocity": 106, "channel": 0}, {"type": "note_off", "time": 39, "note": 70, "velocity": 98, "channel": 0}, {"type": "note_on", "time": 0, "note": 69, "velocity": 106, "channel": 0}, {"type": "note_off", "time": 22, "note": 69, "velocity": 106, "channel": 0}, {"type": "note_on", "time": 0, "note": 67, "velocity": 116, "channel": 0}, {"type": "note_off", "time": 51, "note": 67, "velocity": 116, "channel": 0}, {"type": "note_on", "time": 0, "note": 66, "velocity": 117, "channel": 0}, {"type": "note_off", "time": 128, "note": 66, "velocity": 117, "channel": 0}, {"type": "note_on", "time": 10, "note": 69, "velocity": 91, "channel": 0}, {"type": "note_off", "time": 53, "note": 69, "velocity": 91, "channel": 0}, {"type": "note_on", "time": 13, "note": 72, "velocity": 117, "channel": 0}, {"type": "note_off", "time": 121, "note": 72, "velocity": 117, "channel": 0}, {"type": "note_on", "time": 0, "note": 75, "velocity": 108, "channel": 0}, {"type": "note_off", "time": 112, "note": 75, "velocity": 108, "channel": 0}, {"type": "note_on", "time": 4, "note": 74, "velocity": 113, "channel": 0}, {"type": "note_off", "time": 93, "note": 74, "velocity": 113, "channel": 0}, {"type": "note_on", "time": 1, "note": 69, "velocity": 95, "channel": 0}, {"type": "note_off", "time": 53, "note": 69, "velocity": 95, "channel": 0}, {"type": "note_on", "time": 0, "note": 72, "velocity": 118, "channel": 0}, {"type": "note_off", "time": 121, "note": 72, "velocity": 118, "channel": 0}, {"type": "note_on", "time": 0, "note": 70, "velocity": 93, "channel": 0}, {"type": "note_off", "time": 172, "note": 70, "velocity": 93, "channel": 0}, {"type": "note_on", "time": 382, "note": 77, "velocity": 93, "channel": 0}, {"type": "note_off", "time": 35, "note": 77, "velocity": 93, "channel": 0}, {"type": "note_on", "time": 0, "note": 76, "velocity": 118, "channel": 0}, {"type": "note_off", "time": 24, "note": 76, "velocity": 118, "channel": 0}, {"type": "note_on", "time": 0, "note": 74, "velocity": 114, "channel": 0}, {"type": "note_off", "time": 31, "note": 74, "velocity": 114, "channel": 0}, {"type": "note_on", "time": 2, "note": 72, "velocity": 113, "channel": 0}, {"type": "note_off", "time": 22, "note": 72, "velocity": 113, "channel": 0}, {"type": "note_on", "time": 0, "note": 70, "velocity": 123, "channel": 0}, {"type": "note_off", "time": 84, "note": 70, "velocity": 123, "channel": 0}, {"type": "note_on", "time": 0, "note": 69, "velocity": 118, "channel": 0}, {"type": "note_off", "time": 94, "note": 69, "velocity": 118, "channel": 0}, {"type": "note_on", "time": 0, "note": 67, "velocity": 114, "channel": 0}, {"type": "note_off", "time": 107, "note": 67, "velocity": 114, "channel": 0}, {"type": "note_on", "time": 5, "note": 65, "velocity": 107, "channel": 0}, {"type": "note_off", "time": 70, "note": 65, "velocity": 107, "channel": 0}, {"type": "note_on", "time": 3, "note": 64, "velocity": 93, "channel": 0}, {"type": "note_off", "time": 36, "note": 64, "velocity": 93, "channel": 0}, {"type": "note_on", "time": 1, "note": 67, "velocity": 104, "channel": 0}, {"type": "note_off", "time": 71, "note": 67, "velocity": 104, "channel": 0}, {"type": "note_on", "time": 5, "note": 70, "velocity": 91, "channel": 0}, {"type": "note_off", "time": 39, "note": 70, "velocity": 91, "channel": 0}, {"type": "note_on", "time": 1, "note": 73, "velocity": 115, "channel": 0}, {"type": "note_off", "time": 69, "note": 73, "velocity": 115, "channel": 0}, {"type": "note_on", "time": 4, "note": 75, "velocity": 109, "channel": 0}, {"type": "note_off", "time": 90, "note": 75, "velocity": 109, "channel": 0}, {"type": "note_on", "time": 3, "note": 72, "velocity": 110, "channel": 0}, {"type": "note_off", "time": 154, "note": 72, "velocity": 110, "channel": 0}, {"type": "note_on", "time": 5, "note": 70, "velocity": 101, "channel": 0}, {"type": "note_off", "time": 44, "note": 70, "velocity": 101, "channel": 0}, {"type": "note_on", "time": 6, "note": 72, "velocity": 103, "channel": 0}, {"type": "note_off", "time": 47, "note": 72, "velocity": 103, "channel": 0}, {"type": "note_on", "time": 4, "note": 69, "velocity": 92, "channel": 0}, {"type": "note_off", "time": 263, "note": 69, "velocity": 92, "channel": 0}, {"type": "note_on", "time": 405, "note": 66, "velocity": 113, "channel": 0}, {"type": "note_off", "time": 47, "note": 66, "velocity": 113, "channel": 0}, {"type": "note_on", "time": 0, "note": 67, "velocity": 110, "channel": 0}, {"type": "note_off", "time": 945, "note": 67, "velocity": 110, "channel": 0}, {"type": "note_on", "time": 5, "note": 65, "velocity": 87, "channel": 0}, {"type": "note_off", "time": 36, "note": 65, "velocity": 87, "channel": 0}, {"type": "note_on", "time": 14, "note": 70, "velocity": 110, "channel": 0}, {"type": "note_off", "time": 34, "note": 70, "velocity": 110, "channel": 0}, {"type": "note_on", "time": 0, "note": 72, "velocity": 105, "channel": 0}, {"type": "note_off", "time": 35, "note": 72, "velocity": 105, "channel": 0}, {"type": "note_on", "time": 4, "note": 70, "velocity": 114, "channel": 0}, {"type": "note_off", "time": 39, "note": 70, "velocity": 114, "channel": 0}, {"type": "note_on", "time": 2, "note": 69, "velocity": 115, "channel": 0}, {"type": "note_off", "time": 42, "note": 69, "velocity": 115, "channel": 0}, {"type": "note_on", "time": 2, "note": 68, "velocity": 110, "channel": 0}, {"type": "note_off", "time": 398, "note": 68, "velocity": 110, "channel": 0}, {"type": "note_on", "time": 2, "note": 65, "velocity": 106, "channel": 0}, {"type": "note_off", "time": 36, "note": 65, "velocity": 106, "channel": 0}, {"type": "note_on", "time": 0, "note": 67, "velocity": 106, "channel": 0}, {"type": "note_off", "time": 43, "note": 67, "velocity": 106, "channel": 0}, {"type": "note_on", "time": 2, "note": 65, "velocity": 109, "channel": 0}, {"type": "note_off", "time": 55, "note": 65, "velocity": 109, "channel": 0}, {"type": "note_on", "time": 2, "note": 64, "velocity": 107, "channel": 0}, {"type": "note_off", "time": 56, "note": 64, "velocity": 107, "channel": 0}, {"type": "note_on", "time": 6, "note": 63, "velocity": 99, "channel": 0}, {"type": "note_off", "time": 180, "note": 63, "velocity": 99, "channel": 0}, {"type": "note_on", "time": 8, "note": 60, "velocity": 96, "channel": 0}, {"type": "note_off", "time": 117, "note": 60, "velocity": 96, "channel": 0}, {"type": "note_on", "time": 0, "note": 66, "velocity": 112, "channel": 0}, {"type": "note_off", "time": 30, "note": 66, "velocity": 112, "channel": 0}, {"type": "note_on", "time": 5, "note": 67, "velocity": 106, "channel": 0}, {"type": "note_off", "time": 252, "note": 67, "velocity": 106, "channel": 0}, {"type": "note_on", "time": 0, "note": 63, "velocity": 102, "channel": 0}, {"type": "note_off", "time": 141, "note": 63, "velocity": 102, "channel": 0}, {"type": "note_on", "time": 1, "note": 60, "velocity": 88, "channel": 0}, {"type": "note_off", "time": 31, "note": 60, "velocity": 88, "channel": 0}, {"type": "note_on", "time": 5, "note": 65, "velocity": 110, "channel": 0}, {"type": "note_off", "time": 141, "note": 65, "velocity": 110, "channel": 0}, {"type": "note_on", "time": 2, "note": 60, "velocity": 9, "channel": 0}, {"type": "note_off", "time": 229, "note": 60, "velocity": 9, "channel": 0}, {"type": "note_on", "time": 1111, "note": 72, "velocity": 105, "channel": 0}, {"type": "note_off", "time": 69, "note": 72, "velocity": 105, "channel": 0}, {"type": "note_on", "time": 13, "note": 77, "velocity": 113, "channel": 0}, {"type": "note_off", "time": 91, "note": 77, "velocity": 113, "channel": 0}, {"type": "note_on", "time": 25, "note": 72, "velocity": 102, "channel": 0}, {"type": "note_off", "time": 33, "note": 72, "velocity": 102, "channel": 0}, {"type": "note_on", "time": 0, "note": 70, "velocity": 111, "channel": 0}, {"type": "note_off", "time": 36, "note": 70, "velocity": 111, "channel": 0}, {"type": "note_on", "time": 0, "note": 68, "velocity": 112, "channel": 0}, {"type": "note_off", "time": 126, "note": 68, "velocity": 112, "channel": 0}, {"type": "note_on", "time": 8, "note": 65, "velocity": 94, "channel": 0}, {"type": "note_off", "time": 208, "note": 65, "velocity": 94, "channel": 0}, {"type": "note_on", "time": 56, "note": 77, "velocity": 117, "channel": 0}, {"type": "note_off", "time": 118, "note": 77, "velocity": 117, "channel": 0}, {"type": "note_on", "time": 5, "note": 72, "velocity": 95, "channel": 0}, {"type": "note_off", "time": 44, "note": 72, "velocity": 95, "channel": 0}, {"type": "note_on", "time": 0, "note": 70, "velocity": 106, "channel": 0}, {"type": "note_off", "time": 26, "note": 70, "velocity": 106, "channel": 0}, {"type": "note_on", "time": 5, "note": 68, "velocity": 109, "channel": 0}, {"type": "note_off", "time": 113, "note": 68, "velocity": 109, "channel": 0}, {"type": "note_on", "time": 8, "note": 62, "velocity": 81, "channel": 0}, {"type": "note_off", "time": 228, "note": 62, "velocity": 81, "channel": 0}, {"type": "note_on", "time": 361, "note": 64, "velocity": 104, "channel": 0}, {"type": "note_off", "time": 54, "note": 64, "velocity": 104, "channel": 0}, {"type": "note_on", "time": 0, "note": 65, "velocity": 102, "channel": 0}, {"type": "note_off", "time": 75, "note": 65, "velocity": 102, "channel": 0}, {"type": "note_on", "time": 3, "note": 69, "velocity": 87, "channel": 0}, {"type": "note_off", "time": 41, "note": 69, "velocity": 87, "channel": 0}, {"type": "note_on", "time": 7, "note": 72, "velocity": 91, "channel": 0}, {"type": "note_off", "time": 57, "note": 72, "velocity": 91, "channel": 0}, {"type": "note_on", "time": 12, "note": 76, "velocity": 118, "channel": 0}, {"type": "note_off", "time": 124, "note": 76, "velocity": 118, "channel": 0}, {"type": "note_on", "time": 1, "note": 74, "velocity": 116, "channel": 0}, {"type": "note_off", "time": 258, "note": 74, "velocity": 116, "channel": 0}, {"type": "note_on", "time": 17, "note": 72, "velocity": 108, "channel": 0}, {"type": "note_off", "time": 30, "note": 72, "velocity": 108, "channel": 0}, {"type": "note_on", "time": 2, "note": 74, "velocity": 111, "channel": 0}, {"type": "note_off", "time": 31, "note": 74, "velocity": 111, "channel": 0}, {"type": "note_on", "time": 2, "note": 72, "velocity": 114, "channel": 0}, {"type": "note_off", "time": 38, "note": 72, "velocity": 114, "channel": 0}, {"type": "note_on", "time": 0, "note": 70, "velocity": 117, "channel": 0}, {"type": "note_off", "time": 55, "note": 70, "velocity": 117, "channel": 0}, {"type": "note_on", "time": 5, "note": 69, "velocity": 115, "channel": 0}, {"type": "note_off", "time": 121, "note": 69, "velocity": 115, "channel": 0}, {"type": "note_on", "time": 0, "note": 67, "velocity": 110, "channel": 0}, {"type": "note_off", "time": 90, "note": 67, "velocity": 110, "channel": 0}, {"type": "note_on", "time": 8, "note": 66, "velocity": 99, "channel": 0}, {"type": "note_off", "time": 101, "note": 66, "velocity": 99, "channel": 0}, {"type": "note_on", "time": 3, "note": 69, "velocity": 115, "channel": 0}, {"type": "note_off", "time": 97, "note": 69, "velocity": 115, "channel": 0}, {"type": "note_on", "time": 0, "note": 67, "velocity": 108, "channel": 0}, {"type": "note_off", "time": 99, "note": 67, "velocity": 108, "channel": 0}, {"type": "note_on", "time": 12, "note": 74, "velocity": 115, "channel": 0}, {"type": "note_off", "time": 81, "note": 74, "velocity": 115, "channel": 0}, {"type": "note_on", "time": 0, "note": 70, "velocity": 94, "channel": 0}, {"type": "note_off", "time": 42, "note": 70, "velocity": 94, "channel": 0}, {"type": "note_on", "time": 0, "note": 72, "velocity": 91, "channel": 0}, {"type": "note_off", "time": 28, "note": 72, "velocity": 91, "channel": 0}, {"type": "note_on", "time": 0, "note": 70, "velocity": 107, "channel": 0}, {"type": "note_off", "time": 43, "note": 70, "velocity": 107, "channel": 0}, {"type": "note_on", "time": 0, "note": 67, "velocity": 111, "channel": 0}, {"type": "note_off", "time": 64, "note": 67, "velocity": 111, "channel": 0}, {"type": "note_on", "time": 9, "note": 66, "velocity": 103, "channel": 0}, {"type": "note_off", "time": 106, "note": 66, "velocity": 103, "channel": 0}, {"type": "note_on", "time": 15, "note": 62, "velocity": 102, "channel": 0}, {"type": "note_off", "time": 64, "note": 62, "velocity": 102, "channel": 0}, {"type": "note_on", "time": 9, "note": 58, "velocity": 95, "channel": 0}, {"type": "note_off", "time": 120, "note": 58, "velocity": 95, "channel": 0}, {"type": "note_on", "time": 10, "note": 54, "velocity": 94, "channel": 0}, {"type": "note_off", "time": 55, "note": 54, "velocity": 94, "channel": 0}, {"type": "note_on", "time": 0, "note": 65, "velocity": 108, "channel": 0}, {"type": "note_off", "time": 131, "note": 65, "velocity": 108, "channel": 0}, {"type": "note_on", "time": 5, "note": 63, "velocity": 79, "channel": 0}, {"type": "note_off", "time": 39, "note": 63, "velocity": 79, "channel": 0}, {"type": "note_on", "time": 8, "note": 64, "velocity": 99, "channel": 0}, {"type": "note_off", "time": 131, "note": 64, "velocity": 99, "channel": 0}, {"type": "note_on", "time": 0, "note": 72, "velocity": 114, "channel": 0}, {"type": "note_off", "time": 164, "note": 72, "velocity": 114, "channel": 0}, {"type": "note_on", "time": 240, "note": 70, "velocity": 112, "channel": 0}, {"type": "note_off", "time": 82, "note": 70, "velocity": 112, "channel": 0}, {"type": "note_on", "time": 7, "note": 67, "velocity": 94, "channel": 0}, {"type": "note_off", "time": 40, "note": 67, "velocity": 94, "channel": 0}, {"type": "note_on", "time": 11, "note": 69, "velocity": 102, "channel": 0}, {"type": "note_off", "time": 56, "note": 69, "velocity": 102, "channel": 0}, {"type": "note_on", "time": 0, "note": 72, "velocity": 118, "channel": 0}, {"type": "note_off", "time": 97, "note": 72, "velocity": 118, "channel": 0}, {"type": "note_on", "time": 6, "note": 72, "velocity": 114, "channel": 0}, {"type": "note_off", "time": 152, "note": 72, "velocity": 114, "channel": 0}, {"type": "note_on", "time": 8, "note": 70, "velocity": 116, "channel": 0}, {"type": "note_off", "time": 115, "note": 70, "velocity": 116, "channel": 0}, {"type": "note_on", "time": 4, "note": 69, "velocity": 116, "channel": 0}, {"type": "note_off", "time": 82, "note": 69, "velocity": 116, "channel": 0}, {"type": "note_on", "time": 11, "note": 65, "velocity": 107, "channel": 0}, {"type": "note_off", "time": 112, "note": 65, "velocity": 107, "channel": 0}, {"type": "note_on", "time": 8, "note": 60, "velocity": 94, "channel": 0}, {"type": "note_off", "time": 59, "note": 60, "velocity": 94, "channel": 0}, {"type": "note_on", "time": 6, "note": 67, "velocity": 107, "channel": 0}, {"type": "note_off", "time": 58, "note": 67, "velocity": 107, "channel": 0}, {"type": "note_on", "time": 0, "note": 69, "velocity": 99, "channel": 0}, {"type": "note_off", "time": 215, "note": 69, "velocity": 99, "channel": 0}, {"type": "note_on", "time": 28, "note": 65, "velocity": 93, "channel": 0}, {"type": "note_off", "time": 85, "note": 65, "velocity": 93, "channel": 0}, {"type": "note_on", "time": 8, "note": 67, "velocity": 93, "channel": 0}, {"type": "note_off", "time": 105, "note": 67, "velocity": 93, "channel": 0}, {"type": "note_on", "time": 5, "note": 65, "velocity": 102, "channel": 0}, {"type": "note_off", "time": 81, "note": 65, "velocity": 102, "channel": 0}, {"type": "note_on", "time": 13, "note": 62, "velocity": 90, "channel": 0}, {"type": "note_off", "time": 95, "note": 62, "velocity": 90, "channel": 0}, {"type": "note_on", "time": 9, "note": 60, "velocity": 93, "channel": 0}, {"type": "note_off", "time": 220, "note": 60, "velocity": 93, "channel": 0}, {"type": "end_of_track", "time": 0}]]}