{"ticks_per_beat": 192, "tracks": [[{"type": "track_name", "name": "Melody", "time": 0}, {"type": "set_tempo", "tempo": 270270, "time": 0}, {"type": "key_signature", "key": "G", "time": 0}, {"type": "time_signature", "numerator": 4, "denominator": 4, "clocks_per_click": 24, "notated_32nd_notes_per_beat": 8, "time": 0}, {"type": "note_on", "time": 2269, "note": 69, "velocity": 112, "channel": 0}, {"type": "note_off", "time": 47, "note": 69, "velocity": 112, "channel": 0}, {"type": "note_on", "time": 14, "note": 62, "velocity": 109, "channel": 0}, {"type": "note_off", "time": 111, "note": 62, "velocity": 109, "channel": 0}, {"type": "note_on", "time": 34, "note": 69, "velocity": 96, "channel": 0}, {"type": "note_off", "time": 40, "note": 69, "velocity": 96, "channel": 0}, {"type": "note_on", "time": 7, "note": 74, "velocity": 122, "channel": 0}, {"type": "note_off", "time": 118, "note": 74, "velocity": 122, "channel": 0}, {"type": "note_on", "time": 4, "note": 72, "velocity": 114, "channel": 0}, {"type": "note_off", "time": 62, "note": 72, "velocity": 114, "channel": 0}, {"type": "note_on", "time": 4, "note": 71, "velocity": 104, "channel": 0}, {"type": "note_off", "time": 105, "note": 71, "velocity": 104, "channel": 0}, {"type": "note_on", "time": 8, "note": 67, "velocity": 105, "channel": 0}, {"type": "note_off", "time": 89, "note": 67, "velocity": 105, "channel": 0}, {"type": "note_on", "time": 13, "note": 64, "velocity": 95, "channel": 0}, {"type": "note_off", "time": 95, "note": 64, "velocity": 95, "channel": 0}, {"type": "note_on", "time": 14, "note": 63, "velocity": 116, "channel": 0}, {"type": "note_off", "time": 89, "note": 63, "velocity": 116, "channel": 0}, {"type": "note_on", "time": 10, "note": 62, "velocity": 93, "channel": 0}, {"type": "note_off", "time": 275, "note": 62, "velocity": 93, "channel": 0}, {"type": "note_on", "time": 16, "note": 66, "velocity": 103, "channel": 0}, {"type": "note_off", "time": 59, "note": 66, "velocity": 103, "channel": 0}, {"type": "note_on", "time": 2, "note": 69, "velocity": 113, "channel": 0}, {"type": "note_off", "time": 100, "note": 69, "velocity": 113, "channel": 0}, {"type": "note_on", "time": 218, "note": 69, "velocity": 102, "channel": 0}, {"type": "note_off", "time": 61, "note": 69, "velocity": 102, "channel": 0}, {"type": "note_on", "time": 5, "note": 70, "velocity": 100, "channel": 0}, {"type": "note_off", "time": 114, "note": 70, "velocity": 100, "channel": 0}, {"type": "note_on", "time": 2, "note": 72, "velocity": 95, "channel": 0}, {"type": "note_off", "time": 40, "note": 72, "velocity": 95, "channel": 0}, {"type": "note_on", "time": 4, "note": 70, "velocity": 100, "channel": 0}, {"type": "note_off", "time": 44, "note": 70, "velocity": 100, "channel": 0}, {"type": "note_on", "time": 3, "note": 69, "velocity": 101, "channel": 0}, {"type": "note_off", "time": 97, "note": 69, "velocity": 101, "channel": 0}, {"type": "note_on", "time": 14, "note": 67, "velocity": 93, "channel": 0}, {"type": "note_off", "time": 63, "note": 67, "velocity": 93, "channel": 0}, {"type": "note_on", "time": 4, "note": 72, "velocity": 106, "channel": 0}, {"type": "note_off", "time": 117, "note": 72, "velocity": 106, "channel": 0}, {"type": "note_on", "time": 32, "note": 67, "velocity": 90, "channel": 0}, {"type": "note_off", "time": 379, "note": 67, "velocity": 90, "channel": 0}, {"type": "note_on", "time": 640, "note": 65, "velocity": 114, "channel": 0}, {"type": "note_off", "time": 125, "note": 65, "velocity": 114, "channel": 0}, {"type": "note_on", "time": 104, "note": 60, "velocity": 96, "channel": 0}, {"type": "note_off", "time": 64, "note": 60, "velocity": 96, "channel": 0}, {"type": "note_on", "time": 42, "note": 65, "velocity": 88, "channel": 0}, {"type": "note_off", "time": 34, "note": 65, "velocity": 88, "channel": 0}, {"type": "note_on", "time": 33, "note": 69, "velocity": 112, "channel": 0}, {"type": "note_off", "time": 104, "note": 69, "velocity": 112, "channel": 0}, {"type": "note_on", "time": 10, "note": 70, "velocity": 103, "channel": 0}, {"type": "note_off", "time": 111, "note": 70, "velocity": 103, "channel": 0}, {"type": "note_on", "time": 3, "note": 69, "velocity": 105, "channel": 0}, {"type": "note_off", "time": 59, "note": 69, "velocity": 105, "channel": 0}, {"type": "note_on", "time": 7, "note": 67, "velocity": 113, "channel": 0}, {"type": "note_off", "time": 73, "note": 67, "velocity": 113, "channel": 0}, {"type": "note_on", "time": 7, "note": 65, "velocity": 113, "channel": 0}, {"type": "note_off", "time": 101, "note": 65, "velocity": 113, "channel": 0}, {"type": "note_on", "time": 34, "note": 62, "velocity": 110, "channel": 0}, {"type": "note_off", "time": 72, "note": 62, "velocity": 110, "channel": 0}, {"type": "note_on", "time": 4, "note": 60, "velocity": 92, "channel": 0}, {"type": "note_off", "time": 81, "note": 60, "velocity": 92, "channel": 0}, {"type": "note_on", "time": 14, "note": 58, "velocity": 93, "channel": 0}, {"type": "note_off", "time": 60, "note": 58, "velocity": 93, "channel": 0}, {"type": "note_on", "time": 12, "note": 57, "velocity": 100, "channel": 0}, {"type": "note_off", "time": 104, "note": 57, "velocity": 100, "channel": 0}, {"type": "note_on", "time": 29, "note": 60, "velocity": 89, "channel": 0}, {"type": "note_on", "time": 46, "note": 62, "velocity": 110, "channel": 0}, {"type": "note_off", "time": 0, "note": 60, "velocity": 89, "channel": 0}, {"type": "note_off", "time": 110, "note": 62, "velocity": 110, "channel": 0}, {"type": "note_on", "time": 2, "note": 67, "velocity": 107, "channel": 0}, {"type": "note_off", "time": 44, "note": 67, "velocity": 107, "channel": 0}, {"type": "note_on", "time": 10, "note": 68, "velocity": 106, "channel": 0}, {"type": "note_off", "time": 200, "note": 68, "velocity": 106, "channel": 0}, {"type": "note_on", "time": 11, "note": 63, "velocity": 101, "channel": 0}, {"type": "note_off", "time": 98, "note": 63, "velocity": 101, "channel": 0}, {"type": "note_on", "time": 4, "note": 65, "velocity": 98, "channel": 0}, {"type": "note_off", "time": 84, "note": 65, "velocity": 98, "channel": 0}, {"type": "note_on", "time": 4, "note": 67, "velocity": 112, "channel": 0}, {"type": "note_off", "time": 118, "note": 67, "velocity": 112, "channel": 0}, {"type": "note_on", "time": 5, "note": 65, "velocity": 101, "channel": 0}, {"type": "note_off", "time": 314, "note": 65, "velocity": 101, "channel": 0}, {"type": "note_on", "time": 790, "note": 62, "velocity": 108, "channel": 0}, {"type": "note_off", "time": 62, "note": 62, "velocity": 108, "channel": 0}, {"type": "note_on", "time": 8, "note": 65, "velocity": 107, "channel": 0}, {"type": "note_off", "time": 53, "note": 65, "velocity": 107, "channel": 0}, {"type": "note_on", "time": 15, "note": 68, "velocity": 96, "channel": 0}, {"type": "note_off", "time": 71, "note": 68, "velocity": 96, "channel": 0}, {"type": "note_on", "time": 15, "note": 73, "velocity": 91, "channel": 0}, {"type": "note_off", "time": 39, "note": 73, "velocity": 91, "channel": 0}, {"type": "note_on", "time": 15, "note": 77, "velocity": 116, "channel": 0}, {"type": "note_off", "time": 191, "note": 77, "velocity": 116, "channel": 0}, {"type": "note_on", "time": 0, "note": 75, "velocity": 117, "channel": 0}, {"type": "note_off", "time": 118, "note": 75, "velocity": 117, "channel": 0}, {"type": "note_on", "time": 11, "note": 74, "velocity": 110, "channel": 0}, {"type": "note_off", "time": 253, "note": 74, "velocity": 110, "channel": 0}, {"type": "note_on", "time": 20, "note": 72, "velocity": 108, "channel": 0}, {"type": "note_off", "time": 43, "note": 72, "velocity": 108, "channel": 0}, {"type": "note_on", "time": 2, "note": 74, "velocity": 117, "channel": 0}, {"type": "note_off", "time": 31, "note": 74, "velocity": 117, "channel": 0}, {"type": "note_on", "time": 0, "note": 72, "velocity": 121, "channel": 0}, {"type": "note_off", "time": 65, "note": 72, "velocity": 121, "channel": 0}, {"type": "note_on", "time": 0, "note": 70, "velocity": 108, "channel": 0}, {"type": "note_off", "time": 53, "note": 70, "velocity": 108, "channel": 0}, {"type": "note_on", "time": 3, "note": 69, "velocity": 112, "channel": 0}, {"type": "note_off", "time": 94, "note": 69, "velocity": 112, "channel": 0}, {"type": "note_on", "time": 5, "note": 67, "velocity": 110, "channel": 0}, {"type": "note_off", "time": 84, "note": 67, "velocity": 110, "channel": 0}, {"type": "note_on", "time": 2, "note": 66, "velocity": 114, "channel": 0}, {"type": "note_off", "time": 77, "note": 66, "velocity": 114, "channel": 0}, {"type": "note_on", "time": 14, "note": 69, "velocity": 106, "channel": 0}, {"type": "note_off", "time": 73, "note": 69, "velocity": 106, "channel": 0}, {"type": "note_on", "time": 8, "note": 64, "velocity": 98, "channel": 0}, {"type": "note_off", "time": 131, "note": 64, "velocity": 98, "channel": 0}, {"type": "note_on", "time": 31, "note": 57, "velocity": 99, "channel": 0}, {"type": "note_off", "time": 41, "note": 57, "velocity": 99, "channel": 0}, {"type": "note_on", "time": 11, "note": 60, "velocity": 95, "channel": 0}, {"type": "note_off", "time": 98, "note": 60, "velocity": 95, "channel": 0}, {"type": "note_on", "time": 12, "note": 63, "velocity": 110, "channel": 0}, {"type": "note_off", "time": 84, "note": 63, "velocity": 110, "channel": 0}, {"type": "note_on", "time": 12, "note": 62, "velocity": 110, "channel": 0}, {"type": "note_off", "time": 77, "note": 62, "velocity": 110, "channel": 0}, {"type": "note_on", "time": 21, "note": 58, "velocity": 95, "channel": 0}, {"type": "note_off", "time": 68, "note": 58, "velocity": 95, "channel": 0}, {"type": "note_on", "time": 18, "note": 55, "velocity": 91, "channel": 0}, {"type": "note_off", "time": 79, "note": 55, "velocity": 91, "channel": 0}, {"type": "note_on", "time": 24, "note": 57, "velocity": 88, "channel": 0}, {"type": "note_off", "time": 35, "note": 57, "velocity": 88, "channel": 0}, {"type": "note_on", "time": 41, "note": 60, "velocity": 113, "channel": 0}, {"type": "note_off", "time": 81, "note": 60, "velocity": 113, "channel": 0}, {"type": "note_on", "time": 216, "note": 69, "velocity": 99, "channel": 0}, {"type": "note_off", "time": 77, "note": 69, "velocity": 99, "channel": 0}, {"type": "note_on", "time": 14, "note": 70, "velocity": 110, "channel": 0}, {"type": "note_off", "time": 85, "note": 70, "velocity": 110, "channel": 0}, {"type": "note_on", "time": 20, "note": 66, "velocity": 113, "channel": 0}, {"type": "note_off", "time": 65, "note": 66, "velocity": 113, "channel": 0}, {"type": "note_on", "time": 5, "note": 63, "velocity": 92, "channel": 0}, {"type": "note_off", "time": 79, "note": 63, "velocity": 92, "channel": 0}, {"type": "note_on", "time": 21, "note": 62, "velocity": 109, "channel": 0}, {"type": "note_off", "time": 85, "note": 62, "velocity": 109, "channel": 0}, {"type": "note_on", "time": 0, "note": 69, "velocity": 116, "channel": 0}, {"type": "note_off", "time": 104, "note": 69, "velocity": 116, "channel": 0}, {"type": "note_on", "time": 20, "note": 66, "velocity": 83, "channel": 0}, {"type": "note_off", "time": 374, "note": 66, "velocity": 83, "channel": 0}, {"type": "note_on", "time": 444, "note": 69, "velocity": 117, "channel": 0}, {"type": "note_off", "time": 130, "note": 69, "velocity": 117, "channel": 0}, {"type": "note_on", "time": 1, "note": 66, "velocity": 100, "channel": 0}, {"type": "note_off", "time": 59, "note": 66, "velocity": 100, "channel": 0}, {"type": "note_on", "time": 6, "note": 68, "velocity": 114, "channel": 0}, {"type": "note_off", "time": 116, "note": 68, "velocity": 114, "channel": 0}, {"type": "note_on", "time": 1, "note": 72, "velocity": 119, "channel": 0}, {"type": "note_off", "time": 65, "note": 72, "velocity": 119, "channel": 0}, {"type": "note_on", "time": 4, "note": 73, "velocity": 123, "channel": 0}, {"type": "note_off", "time": 196, "note": 73, "velocity": 123, "channel": 0}, {"type": "note_on", "time": 8, "note": 72, "velocity": 119, "channel": 0}, {"type": "note_off", "time": 101, "note": 72, "velocity": 119, "channel": 0}, {"type": "note_on", "time": 5, "note": 67, "velocity": 115, "channel": 0}, {"type": "note_off", "time": 81, "note": 67, "velocity": 115, "channel": 0}, {"type": "note_on", "time": 10, "note": 64, "velocity": 100, "channel": 0}, {"type": "note_off", "time": 111, "note": 64, "velocity": 100, "channel": 0}, {"type": "note_on", "time": 79, "note": 71, "velocity": 117, "channel": 0}, {"type": "note_off", "time": 120, "note": 71, "velocity": 117, "channel": 0}, {"type": "note_on", "time": 4, "note": 70, "velocity": 109, "channel": 0}, {"type": "note_off", "time": 94, "note": 70, "velocity": 109, "channel": 0}, {"type": "note_on", "time": 2, "note": 69, "velocity": 114, "channel": 0}, {"type": "note_off", "time": 85, "note": 69, "velocity": 114, "channel": 0}, {"type": "note_on", "time": 12, "note": 68, "velocity": 116, "channel": 0}, {"type": "note_off", "time": 65, "note": 68, "velocity": 116, "channel": 0}, {"type": "note_on", "time": 7, "note": 67, "velocity": 114, "channel": 0}, {"type": "note_off", "time": 79, "note": 67, "velocity": 114, "channel": 0}, {"type": "note_on", "time": 29, "note": 64, "velocity": 106, "channel": 0}, {"type": "note_off", "time": 40, "note": 64, "velocity": 106, "channel": 0}, {"type": "note_on", "time": 1, "note": 60, "velocity": 105, "channel": 0}, {"type": "note_off", "time": 48, "note": 60, "velocity": 105, "channel": 0}, {"type": "note_on", "time": 5, "note": 57, "velocity": 99, "channel": 0}, {"type": "note_off", "time": 85, "note": 57, "velocity": 99, "channel": 0}, {"type": "note_on", "time": 22, "note": 66, "velocity": 111, "channel": 0}, {"type": "note_off", "time": 55, "note": 66, "velocity": 111, "channel": 0}, {"type": "note_on", "time": 6, "note": 67, "velocity": 107, "channel": 0}, {"type": "note_off", "time": 69, "note": 67, "velocity": 107, "channel": 0}, {"type": "note_on", "time": 23, "note": 64, "velocity": 110, "channel": 0}, {"type": "note_off", "time": 35, "note": 64, "velocity": 110, "channel": 0}, {"type": "note_on", "time": 6, "note": 60, "velocity": 106, "channel": 0}, {"type": "note_off", "time": 35, "note": 60, "velocity": 106, "channel": 0}, {"type": "note_on", "time": 1, "note": 56, "velocity": 94, "channel": 0}, {"type": "note_off", "time": 94, "note": 56, "velocity": 94, "channel": 0}, {"type": "note_on", "time": 13, "note": 65, "velocity": 119, "channel": 0}, {"type": "note_off", "time": 65, "note": 65, "velocity": 119, "channel": 0}, {"type": "note_on", "time": 3, "note": 66, "velocity": 105, "channel": 0}, {"type": "note_off", "time": 75, "note": 66, "velocity": 105, "channel": 0}, {"type": "note_on", "time": 30, "note": 64, "velocity": 107, "channel": 0}, {"type": "note_off", "time": 33, "note": 64, "velocity": 107, "channel": 0}, {"type": "note_on", "time": 7, "note": 62, "velocity": 109, "channel": 0}, {"type": "note_off", "time": 26, "note": 62, "velocity": 109, "channel": 0}, {"type": "note_on", "time": 12, "note": 57, "velocity": 104, "channel": 0}, {"type": "note_off", "time": 89, "note": 57, "velocity": 104, "channel": 0}, {"type": "note_on", "time": 32, "note": 64, "velocity": 107, "channel": 0}, {"type": "note_off", "time": 158, "note": 64, "velocity": 107, "channel": 0}, {"type": "note_on", "time": 4, "note": 66, "velocity": 109, "channel": 0}, {"type": "note_off", "time": 162, "note": 66, "velocity": 109, "channel": 0}, {"type": "note_on", "time": 14, "note": 62, "velocity": 102, "channel": 0}, {"type": "note_off", "time": 33, "note": 62, "velocity": 102, "channel": 0}, {"type": "note_on", "time": 3, "note": 60, "velocity": 104, "channel": 0}, {"type": "note_off", "time": 29, "note": 60, "velocity": 104, "channel": 0}, {"type": "note_on", "time": 3, "note": 57, "velocity": 101, "channel": 0}, {"type": "note_off", "time": 129, "note": 57, "velocity": 101, "channel": 0}, {"type": "note_on", "time": 0, "note": 64, "velocity": 107, "channel": 0}, {"type": "note_off", "time": 118, "note": 64, "velocity": 107, "channel": 0}, {"type": "note_on", "time": 523, "note": 64, "velocity": 121, "channel": 0}, {"type": "note_off", "time": 52, "note": 64, "velocity": 121, "channel": 0}, {"type": "note_on", "time": 6, "note": 65, "velocity": 117, "channel": 0}, {"type": "note_off", "time": 86, "note": 65, "velocity": 117, "channel": 0}, {"type": "note_on", "time": 11, "note": 62, "velocity": 107, "channel": 0}, {"type": "note_off", "time": 44, "note": 62, "velocity": 107, "channel": 0}, {"type": "note_on", "time": 1, "note": 58, "velocity": 93, "channel": 0}, {"type": "note_off", "time": 32, "note": 58, "velocity": 93, "channel": 0}, {"type": "note_on", "time": 3, "note": 57, "velocity": 107, "channel": 0}, {"type": "note_off", "time": 66, "note": 57, "velocity": 107, "channel": 0}, {"type": "note_on", "time": 15, "note": 55, "velocity": 99, "channel": 0}, {"type": "note_off", "time": 44, "note": 55, "velocity": 99, "channel": 0}, {"type": "note_on", "time": 6, "note": 64, "velocity": 112, "channel": 0}, {"type": "note_off", "time": 133, "note": 64, "velocity": 112, "channel": 0}, {"type": "note_on", "time": 12, "note": 65, "velocity": 113, "channel": 0}, {"type": "note_off", "time": 129, "note": 65, "velocity": 113, "channel": 0}, {"type": "note_on", "time": 35, "note": 62, "velocity": 112, "channel": 0}, {"type": "note_off", "time": 47, "note": 62, "velocity": 112, "channel": 0}, {"type": "note_on", "time": 12, "note": 58, "velocity": 94, "channel": 0}, {"type": "note_off", "time": 40, "note": 58, "velocity": 94, "channel": 0}, {"type": "note_on", "time": 5, "note": 57, "velocity": 105, "channel": 0}, {"type": "note_off", "time": 37, "note": 57, "velocity": 105, "channel": 0}, {"type": "note_on", "time": 15, "note": 55, "velocity": 104, "channel": 0}, {"type": "note_off", "time": 48, "note": 55, "velocity": 104, "channel": 0}, {"type": "note_on", "time": 23, "note": 64, "velocity": 93, "channel": 0}, {"type": "note_off", "time": 243, "note": 64, "velocity": 93, "channel": 0}, {"type": "note_on", "time": 546, "note": 64, "velocity": 108, "channel": 0}, {"type": "note_off", "time": 73, "note": 64, "velocity": 108, "channel": 0}, {"type": "note_on", "time": 11, "note": 65, "velocity": 98, "channel": 0}, {"type": "note_off", "time": 71, "note": 65, "velocity": 98, "channel": 0}, {"type": "note_on", "time": 42, "note": 73, "velocity": 80, "channel": 0}, {"type": "note_off", "time": 55, "note": 73, "velocity": 80, "channel": 0}, {"type": "note_on", "time": 18, "note": 76, "velocity": 119, "channel": 0}, {"type": "note_off", "time": 104, "note": 76, "velocity": 119, "channel": 0}, {"type": "note_on", "time": 6, "note": 75, "velocity": 117, "channel": 0}, {"type": "note_off", "time": 64, "note": 75, "velocity": 117, "channel": 0}, {"type": "note_on", "time": 6, "note": 74, "velocity": 121, "channel": 0}, {"type": "note_off", "time": 134, "note": 74, "velocity": 121, "channel": 0}, {"type": "note_on", "time": 7, "note": 73, "velocity": 119, "channel": 0}, {"type": "note_off", "time": 57, "note": 73, "velocity": 119, "channel": 0}, {"type": "note_on", "time": 2, "note": 72, "velocity": 123, "channel": 0}, {"type": "note_off", "time": 123, "note": 72, "velocity": 123, "channel": 0}, {"type": "note_on", "time": 27, "note": 69, "velocity": 92, "channel": 0}, {"type": "note_off", "time": 32, "note": 69, "velocity": 92, "channel": 0}, {"type": "note_on", "time": 26, "note": 70, "velocity": 118, "channel": 0}, {"type": "note_off", "time": 98, "note": 70, "velocity": 118, "channel": 0}, {"type": "note_on", "time": 4, "note": 72, "velocity": 114, "channel": 0}, {"type": "note_off", "time": 43, "note": 72, "velocity": 114, "channel": 0}, {"type": "note_on", "time": 1, "note": 70, "velocity": 118, "channel": 0}, {"type": "note_off", "time": 53, "note": 70, "velocity": 118, "channel": 0}, {"type": "note_on", "time": 3, "note": 69, "velocity": 121, "channel": 0}, {"type": "note_off", "time": 92, "note": 69, "velocity": 121, "channel": 0}, {"type": "note_on", "time": 16, "note": 65, "velocity": 120, "channel": 0}, {"type": "note_off", "time": 78, "note": 65, "velocity": 120, "channel": 0}, {"type": "note_on", "time": 2, "note": 62, "velocity": 110, "channel": 0}, {"type": "note_off", "time": 89, "note": 62, "velocity": 110, "channel": 0}, {"type": "note_on", "time": 17, "note": 60, "velocity": 97, "channel": 0}, {"type": "note_off", "time": 81, "note": 60, "velocity": 97, "channel": 0}, {"type": "note_on", "time": 0, "note": 72, "velocity": 118, "channel": 0}, {"type": "note_off", "time": 137, "note": 72, "velocity": 118, "channel": 0}, {"type": "note_on", "time": 65, "note": 67, "velocity": 119, "channel": 0}, {"type": "note_off", "time": 114, "note": 67, "velocity": 119, "channel": 0}, {"type": "note_on", "time": 14, "note": 68, "velocity": 96, "channel": 0}, {"type": "note_off", "time": 313, "note": 68, "velocity": 96, "channel": 0}, {"type": "note_on", "time": 427, "note": 63, "velocity": 111, "channel": 0}, {"type": "note_off", "time": 54, "note": 63, "velocity": 111, "channel": 0}, {"type": "note_on", "time": 11, "note": 66, "velocity": 105, "channel": 0}, {"type": "note_off", "time": 75, "note": 66, "velocity": 105, "channel": 0}, {"type": "note_on", "time": 5, "note": 67, "velocity": 104, "channel": 0}, {"type": "note_off", "time": 68, "note": 67, "velocity": 104, "channel": 0}, {"type": "note_on", "time": 4, "note": 74, "velocity": 88, "channel": 0}, {"type": "note_off", "time": 53, "note": 74, "velocity": 88, "channel": 0}, {"type": "note_on", "time": 2, "note": 75, "velocity": 126, "channel": 0}, {"type": "note_off", "time": 123, "note": 75, "velocity": 126, "channel": 0}, {"type": "note_on", "time": 0, "note": 72, "velocity": 124, "channel": 0}, {"type": "note_off", "time": 94, "note": 72, "velocity": 124, "channel": 0}, {"type": "note_on", "time": 7, "note": 73, "velocity": 124, "channel": 0}, {"type": "note_off", "time": 160, "note": 73, "velocity": 124, "channel": 0}, {"type": "note_on", "time": 2, "note": 70, "velocity": 110, "channel": 0}, {"type": "note_off", "time": 113, "note": 70, "velocity": 110, "channel": 0}, {"type": "note_on", "time": 0, "note": 72, "velocity": 120, "channel": 0}, {"type": "note_off", "time": 82, "note": 72, "velocity": 120, "channel": 0}, {"type": "note_on", "time": 1, "note": 70, "velocity": 119, "channel": 0}, {"type": "note_off", "time": 97, "note": 70, "velocity": 119, "channel": 0}, {"type": "note_on", "time": 7, "note": 68, "velocity": 121, "channel": 0}, {"type": "note_off", "time": 82, "note": 68, "velocity": 121, "channel": 0}, {"type": "note_on", "time": 6, "note": 67, "velocity": 120, "channel": 0}, {"type": "note_off", "time": 93, "note": 67, "velocity": 120, "channel": 0}, {"type": "note_on", "time": 234, "note": 70, "velocity": 121, "channel": 0}, {"type": "note_off", "time": 65, "note": 70, "velocity": 121, "channel": 0}, {"type": "note_on", "time": 3, "note": 69, "velocity": 110, "channel": 0}, {"type": "note_off", "time": 56, "note": 69, "velocity": 110, "channel": 0}, {"type": "note_on", "time": 3, "note": 70, "velocity": 101, "channel": 0}, {"type": "note_off", "time": 46, "note": 70, "velocity": 101, "channel": 0}, {"type": "note_on", "time": 2, "note": 69, "velocity": 110, "channel": 0}, {"type": "note_off", "time": 26, "note": 69, "velocity": 110, "channel": 0}, {"type": "note_on", "time": 2, "note": 67, "velocity": 114, "channel": 0}, {"type": "note_off", "time": 58, "note": 67, "velocity": 114, "channel": 0}, {"type": "note_on", "time": 9, "note": 66, "velocity": 119, "channel": 0}, {"type": "note_off", "time": 100, "note": 66, "velocity": 119, "channel": 0}, {"type": "note_on", "time": 6, "note": 69, "velocity": 109, "channel": 0}, {"type": "note_off", "time": 68, "note": 69, "velocity": 109, "channel": 0}, {"type": "note_on", "time": 7, "note": 64, "velocity": 103, "channel": 0}, {"type": "note_off", "time": 111, "note": 64, "velocity": 103, "channel": 0}, {"type": "note_on", "time": 11, "note": 62, "velocity": 111, "channel": 0}, {"type": "note_off", "time": 62, "note": 62, "velocity": 111, "channel": 0}, {"type": "note_on", "time": 8, "note": 60, "velocity": 96, "channel": 0}, {"type": "note_off", "time": 100, "note": 60, "velocity": 96, "channel": 0}, {"type": "note_on", "time": 24, "note": 63, "velocity": 108, "channel": 0}, {"type": "note_off", "time": 89, "note": 63, "velocity": 108, "channel": 0}, {"type": "note_on", "time": 1, "note": 62, "velocity": 107, "channel": 0}, {"type": "note_off", "time": 108, "note": 62, "velocity": 107, "channel": 0}, {"type": "note_on", "time": 5, "note": 60, "velocity": 108, "channel": 0}, {"type": "note_off", "time": 60, "note": 60, "velocity": 108, "channel": 0}, {"type": "note_on", "time": 14, "note": 59, "velocity": 96, "channel": 0}, {"type": "note_off", "time": 146, "note": 59, "velocity": 96, "channel": 0}, {"type": "note_on", "time": 924, "note": 76, "velocity": 113, "channel": 0}, {"type": "note_off", "time": 62, "note": 76, "velocity": 113, "channel": 0}, {"type": "note_on", "time": 3, "note": 77, "velocity": 120, "channel": 0}, {"type": "note_off", "time": 95, "note": 77, "velocity": 120, "channel": 0}, {"type": "note_on", "time": 50, "note": 69, "velocity": 117, "channel": 0}, {"type": "note_off", "time": 82, "note": 69, "velocity": 117, "channel": 0}, {"type": "note_on", "time": 1, "note": 67, "velocity": 95, "channel": 0}, {"type": "note_off", "time": 100, "note": 67, "velocity": 95, "channel": 0}, {"type": "note_on", "time": 13, "note": 68, "velocity": 107, "channel": 0}, {"type": "note_off", "time": 43, "note": 68, "velocity": 107, "channel": 0}, {"type": "note_on", "time": 26, "note": 76, "velocity": 127, "channel": 0}, {"type": "note_off", "time": 98, "note": 76, "velocity": 127, "channel": 0}, {"type": "note_on", "time": 7, "note": 75, "velocity": 125, "channel": 0}, {"type": "note_off", "time": 73, "note": 75, "velocity": 125, "channel": 0}, {"type": "note_on", "time": 5, "note": 74, "velocity": 121, "channel": 0}, {"type": "note_off", "time": 120, "note": 74, "velocity": 121, "channel": 0}, {"type": "note_on", "time": 24, "note": 72, "velocity": 121, "channel": 0}, {"type": "note_on", "time": 144, "note": 67, "velocity": 114, "channel": 0}, {"type": "note_off", "time": 0, "note": 72, "velocity": 121, "channel": 0}, {"type": "note_off", "time": 71, "note": 67, "velocity": 114, "channel": 0}, {"type": "note_on", "time": 4, "note": 64, "velocity": 110, "channel": 0}, {"type": "note_off", "time": 79, "note": 64, "velocity": 110, "channel": 0}, {"type": "note_on", "time": 1, "note": 60, "velocity": 102, "channel": 0}, {"type": "note_off", "time": 40, "note": 60, "velocity": 102, "channel": 0}, {"type": "note_on", "time": 18, "note": 63, "velocity": 93, "channel": 0}, {"type": "note_off", "time": 305, "note": 63, "velocity": 93, "channel": 0}, {"type": "note_on", "time": 53, "note": 74, "velocity": 124, "channel": 0}, {"type": "note_off", "time": 56, "note": 74, "velocity": 124, "channel": 0}, {"type": "note_on", "time": 4, "note": 72, "velocity": 124, "channel": 0}, {"type": "note_off", "time": 56, "note": 72, "velocity": 124, "channel": 0}, {"type": "note_on", "time": 6, "note": 71, "velocity": 117, "channel": 0}, {"type": "note_off", "time": 71, "note": 71, "velocity": 117, "channel": 0}, {"type": "note_on", "time": 7, "note": 69, "velocity": 126, "channel": 0}, {"type": "note_off", "time": 75, "note": 69, "velocity": 126, "channel": 0}, {"type": "note_on", "time": 7, "note": 68, "velocity": 119, "channel": 0}, {"type": "note_off", "time": 76, "note": 68, "velocity": 119, "channel": 0}, {"type": "note_on", "time": 59, "note": 59, "velocity": 100, "channel": 0}, {"type": "note_off", "time": 62, "note": 59, "velocity": 100, "channel": 0}, {"type": "note_on", "time": 7, "note": 62, "velocity": 104, "channel": 0}, {"type": "note_off", "time": 85, "note": 62, "velocity": 104, "channel": 0}, {"type": "note_on", "time": 5, "note": 65, "velocity": 113, "channel": 0}, {"type": "note_off", "time": 84, "note": 65, "velocity": 113, "channel": 0}, {"type": "note_on", "time": 7, "note": 64, "velocity": 103, "channel": 0}, {"type": "note_off", "time": 101, "note": 64, "velocity": 103, "channel": 0}, {"type": "note_on", "time": 26, "note": 63, "velocity": 111, "channel": 0}, {"type": "note_off", "time": 60, "note": 63, "velocity": 111, "channel": 0}, {"type": "note_on", "time": 8, "note": 62, "velocity": 114, "channel": 0}, {"type": "note_off", "time": 101, "note": 62, "velocity": 114, "channel": 0}, {"type": "note_on", "time": 22, "note": 59, "velocity": 96, "channel": 0}, {"type": "note_off", "time": 57, "note": 59, "velocity": 96, "channel": 0}, {"type": "note_on", "time": 0, "note": 60, "velocity": 97, "channel": 0}, {"type": "note_off", "time": 46, "note": 60, "velocity": 97, "channel": 0}, {"type": "note_on", "time": 20, "note": 64, "velocity": 98, "channel": 0}, {"type": "note_off", "time": 43, "note": 64, "velocity": 98, "channel": 0}, {"type": "note_on", "time": 10, "note": 67, "velocity": 99, "channel": 0}, {"type": "note_off", "time": 50, "note": 67, "velocity": 99, "channel": 0}, {"type": "note_on", "time": 2, "note": 69, "velocity": 117, "channel": 0}, {"type": "note_off", "time": 33, "note": 69, "velocity": 117, "channel": 0}, {"type": "note_on", "time": 3, "note": 68, "velocity": 111, "channel": 0}, {"type": "note_off", "time": 35, "note": 68, "velocity": 111, "channel": 0}, {"type": "note_on", "time": 6, "note": 71, "velocity": 111, "channel": 0}, {"type": "note_off", "time": 111, "note": 71, "velocity": 111, "channel": 0}, {"type": "note_on", "time": 2, "note": 74, "velocity": 120, "channel": 0}, {"type": "note_off", "time": 121, "note": 74, "velocity": 120, "channel": 0}, {"type": "note_on", "time": 24, "note": 64, "velocity": 102, "channel": 0}, {"type": "note_off", "time": 253, "note": 64, "velocity": 102, "channel": 0}, {"type": "end_of_track", "time": 0}]]}