{"ticks_per_beat": 2520, "tracks": [[{"type": "track_name", "name": "Melody", "time": 0}, {"type": "set_tempo", "tempo": 937500, "time": 0}, {"type": "key_signature", "key": "C", "time": 0}, {"type": "time_signature", "numerator": 4, "denominator": 4, "clocks_per_click": 24, "notated_32nd_notes_per_beat": 8, "time": 0}, {"type": "note_on", "time": 21786, "note": 68, "velocity": 106, "channel": 0}, {"type": "note_off", "time": 312, "note": 68, "velocity": 106, "channel": 0}, {"type": "note_on", "time": 15, "note": 65, "velocity": 106, "channel": 0}, {"type": "note_off", "time": 374, "note": 65, "velocity": 106, "channel": 0}, {"type": "note_on", "time": 0, "note": 63, "velocity": 96, "channel": 0}, {"type": "note_off", "time": 265, "note": 63, "velocity": 96, "channel": 0}, {"type": "note_on", "time": 15, "note": 62, "velocity": 93, "channel": 0}, {"type": "note_off", "time": 327, "note": 62, "velocity": 93, "channel": 0}, {"type": "note_on", "time": 31, "note": 61, "velocity": 104, "channel": 0}, {"type": "note_off", "time": 312, "note": 61, "velocity": 104, "channel": 0}, {"type": "note_on", "time": 234, "note": 59, "velocity": 94, "channel": 0}, {"type": "note_off", "time": 343, "note": 59, "velocity": 94, "channel": 0}, {"type": "note_on", "time": 31, "note": 60, "velocity": 84, "channel": 0}, {"type": "note_off", "time": 1513, "note": 60, "velocity": 84, "channel": 0}, {"type": "note_on", "time": 1061, "note": 63, "velocity": 95, "channel": 0}, {"type": "note_off", "time": 218, "note": 63, "velocity": 95, "channel": 0}, {"type": "note_on", "time": 46, "note": 64, "velocity": 98, "channel": 0}, {"type": "note_off", "time": 405, "note": 64, "velocity": 98, "channel": 0}, {"type": "note_on", "time": 78, "note": 65, "velocity": 112, "channel": 0}, {"type": "note_off", "time": 702, "note": 65, "velocity": 112, "channel": 0}, {"type": "note_on", "time": 62, "note": 67, "velocity": 115, "channel": 0}, {"type": "note_off", "time": 592, "note": 67, "velocity": 115, "channel": 0}, {"type": "note_on", "time": 78, "note": 69, "velocity": 106, "channel": 0}, {"type": "note_off", "time": 639, "note": 69, "velocity": 106, "channel": 0}, {"type": "note_on", "time": 93, "note": 70, "velocity": 93, "channel": 0}, {"type": "note_off", "time": 3120, "note": 70, "velocity": 93, "channel": 0}, {"type": "note_on", "time": 46, "note": 72, "velocity": 104, "channel": 0}, {"type": "note_off", "time": 499, "note": 72, "velocity": 104, "channel": 0}, {"type": "note_on", "time": 46, "note": 69, "velocity": 89, "channel": 0}, {"type": "note_off", "time": 3386, "note": 69, "velocity": 89, "channel": 0}, {"type": "note_on", "time": 5345, "note": 67, "velocity": 58, "channel": 0}, {"type": "note_off", "time": 249, "note": 67, "velocity": 58, "channel": 0}, {"type": "note_on", "time": 116, "note": 68, "velocity": 117, "channel": 0}, {"type": "note_off", "time": 546, "note": 68, "velocity": 117, "channel": 0}, {"type": "note_on", "time": 15, "note": 67, "velocity": 122, "channel": 0}, {"type": "note_off", "time": 514, "note": 67, "velocity": 122, "channel": 0}, {"type": "note_on", "time": 15, "note": 66, "velocity": 111, "channel": 0}, {"type": "note_off", "time": 468, "note": 66, "velocity": 111, "channel": 0}, {"type": "note_on", "time": 48, "note": 65, "velocity": 93, "channel": 0}, {"type": "note_off", "time": 2479, "note": 65, "velocity": 93, "channel": 0}, {"type": "note_on", "time": 21, "note": 76, "velocity": 85, "channel": 0}, {"type": "note_off", "time": 208, "note": 76, "velocity": 85, "channel": 0}, {"type": "note_on", "time": 32, "note": 74, "velocity": 95, "channel": 0}, {"type": "note_off", "time": 87, "note": 74, "velocity": 95, "channel": 0}, {"type": "note_on", "time": 0, "note": 72, "velocity": 100, "channel": 0}, {"type": "note_off", "time": 274, "note": 72, "velocity": 100, "channel": 0}, {"type": "note_on", "time": 21, "note": 69, "velocity": 106, "channel": 0}, {"type": "note_on", "time": 263, "note": 65, "velocity": 103, "channel": 0}, {"type": "note_off", "time": 0, "note": 69, "velocity": 106, "channel": 0}, {"type": "note_off", "time": 329, "note": 65, "velocity": 103, "channel": 0}, {"type": "note_on", "time": 43, "note": 62, "velocity": 99, "channel": 0}, {"type": "note_off", "time": 351, "note": 62, "velocity": 99, "channel": 0}, {"type": "note_on", "time": 10, "note": 57, "velocity": 86, "channel": 0}, {"type": "note_off", "time": 296, "note": 57, "velocity": 86, "channel": 0}, {"type": "note_on", "time": 10, "note": 60, "velocity": 86, "channel": 0}, {"type": "note_off", "time": 438, "note": 60, "velocity": 86, "channel": 0}, {"type": "note_on", "time": 21, "note": 57, "velocity": 81, "channel": 0}, {"type": "note_off", "time": 175, "note": 57, "velocity": 81, "channel": 0}, {"type": "note_on", "time": 43, "note": 59, "velocity": 90, "channel": 0}, {"type": "note_off", "time": 405, "note": 59, "velocity": 90, "channel": 0}, {"type": "note_on", "time": 10, "note": 64, "velocity": 99, "channel": 0}, {"type": "note_off", "time": 296, "note": 64, "velocity": 99, "channel": 0}, {"type": "note_on", "time": 32, "note": 63, "velocity": 93, "channel": 0}, {"type": "note_off", "time": 438, "note": 63, "velocity": 93, "channel": 0}, {"type": "note_on", "time": 21, "note": 59, "velocity": 94, "channel": 0}, {"type": "note_off", "time": 230, "note": 59, "velocity": 94, "channel": 0}, {"type": "note_on", "time": 21, "note": 56, "velocity": 94, "channel": 0}, {"type": "note_off", "time": 274, "note": 56, "velocity": 94, "channel": 0}, {"type": "note_on", "time": 98, "note": 54, "velocity": 91, "channel": 0}, {"type": "note_off", "time": 230, "note": 54, "velocity": 91, "channel": 0}, {"type": "note_on", "time": 21, "note": 55, "velocity": 98, "channel": 0}, {"type": "note_off", "time": 724, "note": 55, "velocity": 98, "channel": 0}, {"type": "note_on", "time": 1, "note": 53, "velocity": 88, "channel": 0}, {"type": "note_off", "time": 202, "note": 53, "velocity": 88, "channel": 0}, {"type": "note_on", "time": 28, "note": 52, "velocity": 80, "channel": 0}, {"type": "note_off", "time": 179, "note": 52, "velocity": 80, "channel": 0}, {"type": "note_on", "time": 15, "note": 55, "velocity": 90, "channel": 0}, {"type": "note_off", "time": 373, "note": 55, "velocity": 90, "channel": 0}, {"type": "note_on", "time": 21, "note": 59, "velocity": 91, "channel": 0}, {"type": "note_off", "time": 274, "note": 59, "velocity": 91, "channel": 0}, {"type": "note_on", "time": 32, "note": 62, "velocity": 94, "channel": 0}, {"type": "note_off", "time": 724, "note": 62, "velocity": 94, "channel": 0}, {"type": "note_on", "time": 32, "note": 59, "velocity": 88, "channel": 0}, {"type": "note_off", "time": 636, "note": 59, "velocity": 88, "channel": 0}, {"type": "note_on", "time": 32, "note": 62, "velocity": 92, "channel": 0}, {"type": "note_off", "time": 778, "note": 62, "velocity": 92, "channel": 0}, {"type": "note_on", "time": 10, "note": 59, "velocity": 91, "channel": 0}, {"type": "note_off", "time": 548, "note": 59, "velocity": 91, "channel": 0}, {"type": "note_on", "time": 54, "note": 67, "velocity": 103, "channel": 0}, {"type": "note_off", "time": 252, "note": 67, "velocity": 103, "channel": 0}, {"type": "note_on", "time": 21, "note": 68, "velocity": 96, "channel": 0}, {"type": "note_off", "time": 120, "note": 68, "velocity": 96, "channel": 0}, {"type": "note_on", "time": 21, "note": 67, "velocity": 103, "channel": 0}, {"type": "note_off", "time": 340, "note": 67, "velocity": 103, "channel": 0}, {"type": "note_on", "time": 10, "note": 62, "velocity": 97, "channel": 0}, {"type": "note_off", "time": 537, "note": 62, "velocity": 97, "channel": 0}, {"type": "note_on", "time": 10, "note": 59, "velocity": 95, "channel": 0}, {"type": "note_off", "time": 658, "note": 59, "velocity": 95, "channel": 0}, {"type": "note_on", "time": 21, "note": 55, "velocity": 85, "channel": 0}, {"type": "note_off", "time": 416, "note": 55, "velocity": 85, "channel": 0}, {"type": "note_on", "time": 98, "note": 61, "velocity": 89, "channel": 0}, {"type": "note_off", "time": 625, "note": 61, "velocity": 89, "channel": 0}, {"type": "note_on", "time": 21, "note": 67, "velocity": 93, "channel": 0}, {"type": "note_off", "time": 2501, "note": 67, "velocity": 93, "channel": 0}, {"type": "note_on", "time": 4827, "note": 61, "velocity": 86, "channel": 0}, {"type": "note_off", "time": 252, "note": 61, "velocity": 86, "channel": 0}, {"type": "note_on", "time": 10, "note": 65, "velocity": 90, "channel": 0}, {"type": "note_off", "time": 175, "note": 65, "velocity": 90, "channel": 0}, {"type": "note_on", "time": 10, "note": 69, "velocity": 92, "channel": 0}, {"type": "note_off", "time": 153, "note": 69, "velocity": 92, "channel": 0}, {"type": "note_on", "time": 43, "note": 72, "velocity": 86, "channel": 0}, {"type": "note_off", "time": 340, "note": 72, "velocity": 86, "channel": 0}, {"type": "note_on", "time": 10, "note": 76, "velocity": 103, "channel": 0}, {"type": "note_off", "time": 252, "note": 76, "velocity": 103, "channel": 0}, {"type": "note_on", "time": 21, "note": 74, "velocity": 100, "channel": 0}, {"type": "note_off", "time": 109, "note": 74, "velocity": 100, "channel": 0}, {"type": "note_on", "time": 21, "note": 72, "velocity": 100, "channel": 0}, {"type": "note_off", "time": 219, "note": 72, "velocity": 100, "channel": 0}, {"type": "note_on", "time": 10, "note": 69, "velocity": 108, "channel": 0}, {"type": "note_off", "time": 274, "note": 69, "velocity": 108, "channel": 0}, {"type": "note_on", "time": 76, "note": 65, "velocity": 100, "channel": 0}, {"type": "note_off", "time": 362, "note": 65, "velocity": 100, "channel": 0}, {"type": "note_on", "time": 10, "note": 62, "velocity": 86, "channel": 0}, {"type": "note_off", "time": 405, "note": 62, "velocity": 86, "channel": 0}, {"type": "note_on", "time": 21, "note": 60, "velocity": 78, "channel": 0}, {"type": "note_off", "time": 416, "note": 60, "velocity": 78, "channel": 0}, {"type": "note_on", "time": 10, "note": 57, "velocity": 82, "channel": 0}, {"type": "note_off", "time": 526, "note": 57, "velocity": 82, "channel": 0}, {"type": "note_on", "time": 0, "note": 53, "velocity": 74, "channel": 0}, {"type": "note_off", "time": 515, "note": 53, "velocity": 74, "channel": 0}, {"type": "note_on", "time": 10, "note": 57, "velocity": 85, "channel": 0}, {"type": "note_off", "time": 822, "note": 57, "velocity": 85, "channel": 0}, {"type": "note_on", "time": 0, "note": 59, "velocity": 91, "channel": 0}, {"type": "note_off", "time": 1689, "note": 59, "velocity": 91, "channel": 0}, {"type": "note_on", "time": 3456, "note": 62, "velocity": 96, "channel": 0}, {"type": "note_off", "time": 219, "note": 62, "velocity": 96, "channel": 0}, {"type": "note_on", "time": 21, "note": 64, "velocity": 104, "channel": 0}, {"type": "note_off", "time": 373, "note": 64, "velocity": 104, "channel": 0}, {"type": "note_on", "time": 21, "note": 66, "velocity": 114, "channel": 0}, {"type": "note_off", "time": 329, "note": 66, "velocity": 114, "channel": 0}, {"type": "note_on", "time": 43, "note": 67, "velocity": 108, "channel": 0}, {"type": "note_off", "time": 318, "note": 67, "velocity": 108, "channel": 0}, {"type": "note_on", "time": 0, "note": 64, "velocity": 99, "channel": 0}, {"type": "note_off", "time": 340, "note": 64, "velocity": 99, "channel": 0}, {"type": "note_on", "time": 0, "note": 62, "velocity": 92, "channel": 0}, {"type": "note_off", "time": 318, "note": 62, "velocity": 92, "channel": 0}, {"type": "note_on", "time": 21, "note": 61, "velocity": 86, "channel": 0}, {"type": "note_off", "time": 285, "note": 61, "velocity": 86, "channel": 0}, {"type": "note_on", "time": 21, "note": 64, "velocity": 92, "channel": 0}, {"type": "note_off", "time": 241, "note": 64, "velocity": 92, "channel": 0}, {"type": "note_on", "time": 10, "note": 67, "velocity": 100, "channel": 0}, {"type": "note_off", "time": 416, "note": 67, "velocity": 100, "channel": 0}, {"type": "note_on", "time": 21, "note": 69, "velocity": 87, "channel": 0}, {"type": "note_off", "time": 285, "note": 69, "velocity": 87, "channel": 0}, {"type": "note_on", "time": 32, "note": 70, "velocity": 98, "channel": 0}, {"type": "note_off", "time": 373, "note": 70, "velocity": 98, "channel": 0}, {"type": "note_on", "time": 0, "note": 68, "velocity": 95, "channel": 0}, {"type": "note_off", "time": 230, "note": 68, "velocity": 95, "channel": 0}, {"type": "note_on", "time": 43, "note": 69, "velocity": 83, "channel": 0}, {"type": "note_off", "time": 252, "note": 69, "velocity": 83, "channel": 0}, {"type": "note_on", "time": 10, "note": 77, "velocity": 104, "channel": 0}, {"type": "note_off", "time": 526, "note": 77, "velocity": 104, "channel": 0}, {"type": "note_on", "time": 21, "note": 76, "velocity": 104, "channel": 0}, {"type": "note_on", "time": 241, "note": 74, "velocity": 96, "channel": 0}, {"type": "note_off", "time": 0, "note": 76, "velocity": 104, "channel": 0}, {"type": "note_off", "time": 131, "note": 74, "velocity": 96, "channel": 0}, {"type": "note_on", "time": 43, "note": 73, "velocity": 91, "channel": 0}, {"type": "note_off", "time": 384, "note": 73, "velocity": 91, "channel": 0}, {"type": "note_on", "time": 0, "note": 64, "velocity": 91, "channel": 0}, {"type": "note_off", "time": 252, "note": 64, "velocity": 91, "channel": 0}, {"type": "note_on", "time": 32, "note": 67, "velocity": 101, "channel": 0}, {"type": "note_off", "time": 340, "note": 67, "velocity": 101, "channel": 0}, {"type": "note_on", "time": 32, "note": 70, "velocity": 103, "channel": 0}, {"type": "note_off", "time": 230, "note": 70, "velocity": 103, "channel": 0}, {"type": "note_on", "time": 32, "note": 69, "velocity": 99, "channel": 0}, {"type": "note_off", "time": 164, "note": 69, "velocity": 99, "channel": 0}, {"type": "note_on", "time": 21, "note": 70, "velocity": 92, "channel": 0}, {"type": "note_off", "time": 252, "note": 70, "velocity": 92, "channel": 0}, {"type": "note_on", "time": 21, "note": 67, "velocity": 104, "channel": 0}, {"type": "note_off", "time": 351, "note": 67, "velocity": 104, "channel": 0}, {"type": "note_on", "time": 2117, "note": 66, "velocity": 112, "channel": 0}, {"type": "note_off", "time": 504, "note": 66, "velocity": 112, "channel": 0}, {"type": "note_on", "time": 0, "note": 66, "velocity": 80, "channel": 0}, {"type": "note_off", "time": 0, "note": 66, "velocity": 80, "channel": 0}, {"type": "note_on", "time": 87, "note": 69, "velocity": 93, "channel": 0}, {"type": "note_off", "time": 87, "note": 69, "velocity": 93, "channel": 0}, {"type": "note_on", "time": 54, "note": 72, "velocity": 93, "channel": 0}, {"type": "note_off", "time": 98, "note": 72, "velocity": 93, "channel": 0}, {"type": "note_on", "time": 87, "note": 76, "velocity": 98, "channel": 0}, {"type": "note_off", "time": 416, "note": 76, "velocity": 98, "channel": 0}, {"type": "note_on", "time": 21, "note": 74, "velocity": 84, "channel": 0}, {"type": "note_off", "time": 1700, "note": 74, "velocity": 84, "channel": 0}, {"type": "note_on", "time": 932, "note": 65, "velocity": 99, "channel": 0}, {"type": "note_off", "time": 394, "note": 65, "velocity": 99, "channel": 0}, {"type": "note_on", "time": 43, "note": 69, "velocity": 84, "channel": 0}, {"type": "note_off", "time": 98, "note": 69, "velocity": 84, "channel": 0}, {"type": "note_on", "time": 0, "note": 72, "velocity": 86, "channel": 0}, {"type": "note_off", "time": 175, "note": 72, "velocity": 86, "channel": 0}, {"type": "note_on", "time": 0, "note": 76, "velocity": 97, "channel": 0}, {"type": "note_off", "time": 285, "note": 76, "velocity": 97, "channel": 0}, {"type": "note_on", "time": 32, "note": 75, "velocity": 96, "channel": 0}, {"type": "note_off", "time": 570, "note": 75, "velocity": 96, "channel": 0}, {"type": "note_on", "time": 120, "note": 71, "velocity": 90, "channel": 0}, {"type": "note_off", "time": 131, "note": 71, "velocity": 90, "channel": 0}, {"type": "note_on", "time": 21, "note": 69, "velocity": 98, "channel": 0}, {"type": "note_off", "time": 109, "note": 69, "velocity": 98, "channel": 0}, {"type": "note_on", "time": 21, "note": 67, "velocity": 101, "channel": 0}, {"type": "note_off", "time": 296, "note": 67, "velocity": 101, "channel": 0}, {"type": "note_on", "time": 32, "note": 65, "velocity": 79, "channel": 0}, {"type": "note_off", "time": 181, "note": 65, "velocity": 79, "channel": 0}, {"type": "note_on", "time": 192, "note": 74, "velocity": 92, "channel": 0}, {"type": "note_off", "time": 757, "note": 74, "velocity": 92, "channel": 0}, {"type": "note_on", "time": 1162, "note": 64, "velocity": 87, "channel": 0}, {"type": "note_off", "time": 405, "note": 64, "velocity": 87, "channel": 0}, {"type": "note_on", "time": 10, "note": 67, "velocity": 92, "channel": 0}, {"type": "note_off", "time": 219, "note": 67, "velocity": 92, "channel": 0}, {"type": "note_on", "time": 21, "note": 71, "velocity": 88, "channel": 0}, {"type": "note_off", "time": 219, "note": 71, "velocity": 88, "channel": 0}, {"type": "note_on", "time": 21, "note": 74, "velocity": 93, "channel": 0}, {"type": "note_off", "time": 515, "note": 74, "velocity": 93, "channel": 0}, {"type": "note_on", "time": 21, "note": 71, "velocity": 88, "channel": 0}, {"type": "note_off", "time": 537, "note": 71, "velocity": 88, "channel": 0}, {"type": "note_on", "time": 932, "note": 73, "velocity": 96, "channel": 0}, {"type": "note_off", "time": 384, "note": 73, "velocity": 96, "channel": 0}, {"type": "note_on", "time": 21, "note": 70, "velocity": 88, "channel": 0}, {"type": "note_off", "time": 219, "note": 70, "velocity": 88, "channel": 0}, {"type": "note_on", "time": 65, "note": 66, "velocity": 91, "channel": 0}, {"type": "note_off", "time": 394, "note": 66, "velocity": 91, "channel": 0}, {"type": "note_on", "time": 54, "note": 63, "velocity": 76, "channel": 0}, {"type": "note_off", "time": 274, "note": 63, "velocity": 76, "channel": 0}, {"type": "note_on", "time": 131, "note": 71, "velocity": 92, "channel": 0}, {"type": "note_off", "time": 197, "note": 71, "velocity": 92, "channel": 0}, {"type": "note_on", "time": 76, "note": 69, "velocity": 93, "channel": 0}, {"type": "note_off", "time": 438, "note": 69, "velocity": 93, "channel": 0}, {"type": "note_on", "time": 10, "note": 65, "velocity": 98, "channel": 0}, {"type": "note_off", "time": 307, "note": 65, "velocity": 98, "channel": 0}, {"type": "note_on", "time": 54, "note": 61, "velocity": 81, "channel": 0}, {"type": "note_off", "time": 208, "note": 61, "velocity": 81, "channel": 0}, {"type": "note_on", "time": 65, "note": 60, "velocity": 72, "channel": 0}, {"type": "note_off", "time": 186, "note": 60, "velocity": 72, "channel": 0}, {"type": "note_on", "time": 87, "note": 70, "velocity": 103, "channel": 0}, {"type": "note_off", "time": 438, "note": 70, "velocity": 103, "channel": 0}, {"type": "note_on", "time": 0, "note": 69, "velocity": 102, "channel": 0}, {"type": "note_off", "time": 274, "note": 69, "velocity": 102, "channel": 0}, {"type": "note_on", "time": 0, "note": 68, "velocity": 102, "channel": 0}, {"type": "note_off", "time": 351, "note": 68, "velocity": 102, "channel": 0}, {"type": "note_on", "time": 32, "note": 65, "velocity": 95, "channel": 0}, {"type": "note_off", "time": 394, "note": 65, "velocity": 95, "channel": 0}, {"type": "note_on", "time": 10, "note": 63, "velocity": 86, "channel": 0}, {"type": "note_off", "time": 164, "note": 63, "velocity": 86, "channel": 0}, {"type": "note_on", "time": 43, "note": 60, "velocity": 84, "channel": 0}, {"type": "note_off", "time": 208, "note": 60, "velocity": 84, "channel": 0}, {"type": "note_on", "time": 10, "note": 67, "velocity": 109, "channel": 0}, {"type": "note_off", "time": 449, "note": 67, "velocity": 109, "channel": 0}, {"type": "note_on", "time": 10, "note": 65, "velocity": 99, "channel": 0}, {"type": "note_off", "time": 208, "note": 65, "velocity": 99, "channel": 0}, {"type": "note_on", "time": 43, "note": 62, "velocity": 86, "channel": 0}, {"type": "note_off", "time": 394, "note": 62, "velocity": 86, "channel": 0}, {"type": "note_on", "time": 43, "note": 57, "velocity": 77, "channel": 0}, {"type": "note_off", "time": 252, "note": 57, "velocity": 77, "channel": 0}, {"type": "note_on", "time": 43, "note": 61, "velocity": 92, "channel": 0}, {"type": "note_off", "time": 340, "note": 61, "velocity": 92, "channel": 0}, {"type": "note_on", "time": 32, "note": 63, "velocity": 92, "channel": 0}, {"type": "note_off", "time": 296, "note": 63, "velocity": 92, "channel": 0}, {"type": "note_on", "time": 76, "note": 56, "velocity": 87, "channel": 0}, {"type": "note_off", "time": 296, "note": 56, "velocity": 87, "channel": 0}, {"type": "note_on", "time": 10, "note": 54, "velocity": 86, "channel": 0}, {"type": "note_off", "time": 274, "note": 54, "velocity": 86, "channel": 0}, {"type": "note_on", "time": 10, "note": 55, "velocity": 95, "channel": 0}, {"type": "note_off", "time": 438, "note": 55, "velocity": 95, "channel": 0}, {"type": "note_on", "time": 21, "note": 57, "velocity": 88, "channel": 0}, {"type": "note_off", "time": 274, "note": 57, "velocity": 88, "channel": 0}, {"type": "note_on", "time": 0, "note": 59, "velocity": 82, "channel": 0}, {"type": "note_off", "time": 241, "note": 59, "velocity": 82, "channel": 0}, {"type": "note_on", "time": 43, "note": 60, "velocity": 92, "channel": 0}, {"type": "note_on", "time": 241, "note": 62, "velocity": 97, "channel": 0}, {"type": "note_off", "time": 0, "note": 60, "velocity": 92, "channel": 0}, {"type": "note_on", "time": 427, "note": 60, "velocity": 87, "channel": 0}, {"type": "note_off", "time": 0, "note": 62, "velocity": 97, "channel": 0}, {"type": "note_off", "time": 263, "note": 60, "velocity": 87, "channel": 0}, {"type": "note_on", "time": 21, "note": 59, "velocity": 84, "channel": 0}, {"type": "note_off", "time": 296, "note": 59, "velocity": 84, "channel": 0}, {"type": "note_on", "time": 120, "note": 60, "velocity": 87, "channel": 0}, {"type": "note_off", "time": 362, "note": 60, "velocity": 87, "channel": 0}, {"type": "note_on", "time": 65, "note": 64, "velocity": 91, "channel": 0}, {"type": "note_off", "time": 384, "note": 64, "velocity": 91, "channel": 0}, {"type": "note_on", "time": 32, "note": 65, "velocity": 93, "channel": 0}, {"type": "note_off", "time": 230, "note": 65, "velocity": 93, "channel": 0}, {"type": "note_on", "time": 0, "note": 66, "velocity": 90, "channel": 0}, {"type": "note_off", "time": 274, "note": 66, "velocity": 90, "channel": 0}, {"type": "note_on", "time": 32, "note": 67, "velocity": 86, "channel": 0}, {"type": "note_off", "time": 1415, "note": 67, "velocity": 86, "channel": 0}, {"type": "note_on", "time": 1788, "note": 57, "velocity": 97, "channel": 0}, {"type": "note_off", "time": 241, "note": 57, "velocity": 97, "channel": 0}, {"type": "note_on", "time": 54, "note": 58, "velocity": 90, "channel": 0}, {"type": "note_off", "time": 307, "note": 58, "velocity": 90, "channel": 0}, {"type": "note_on", "time": 0, "note": 62, "velocity": 88, "channel": 0}, {"type": "note_off", "time": 263, "note": 62, "velocity": 88, "channel": 0}, {"type": "note_on", "time": 21, "note": 65, "velocity": 103, "channel": 0}, {"type": "note_off", "time": 241, "note": 65, "velocity": 103, "channel": 0}, {"type": "note_on", "time": 21, "note": 67, "velocity": 111, "channel": 0}, {"type": "note_off", "time": 405, "note": 67, "velocity": 111, "channel": 0}, {"type": "note_on", "time": 21, "note": 64, "velocity": 95, "channel": 0}, {"type": "note_off", "time": 296, "note": 64, "velocity": 95, "channel": 0}, {"type": "note_on", "time": 21, "note": 62, "velocity": 92, "channel": 0}, {"type": "note_off", "time": 329, "note": 62, "velocity": 92, "channel": 0}, {"type": "note_on", "time": 43, "note": 61, "velocity": 89, "channel": 0}, {"type": "note_off", "time": 230, "note": 61, "velocity": 89, "channel": 0}, {"type": "note_on", "time": 87, "note": 64, "velocity": 78, "channel": 0}, {"type": "note_off", "time": 230, "note": 64, "velocity": 78, "channel": 0}, {"type": "note_on", "time": 21, "note": 67, "velocity": 91, "channel": 0}, {"type": "note_off", "time": 329, "note": 67, "velocity": 91, "channel": 0}, {"type": "note_on", "time": 10, "note": 69, "velocity": 92, "channel": 0}, {"type": "note_off", "time": 274, "note": 69, "velocity": 92, "channel": 0}, {"type": "note_on", "time": 43, "note": 70, "velocity": 103, "channel": 0}, {"type": "note_off", "time": 307, "note": 70, "velocity": 103, "channel": 0}, {"type": "note_on", "time": 32, "note": 69, "velocity": 81, "channel": 0}, {"type": "note_off", "time": 2084, "note": 69, "velocity": 81, "channel": 0}, {"type": "note_on", "time": 4897, "note": 66, "velocity": 82, "channel": 0}, {"type": "note_off", "time": 252, "note": 66, "velocity": 82, "channel": 0}, {"type": "note_on", "time": 120, "note": 68, "velocity": 115, "channel": 0}, {"type": "note_off", "time": 438, "note": 68, "velocity": 115, "channel": 0}, {"type": "note_on", "time": 171, "note": 67, "velocity": 113, "channel": 0}, {"type": "note_off", "time": 548, "note": 67, "velocity": 113, "channel": 0}, {"type": "note_on", "time": 10, "note": 66, "velocity": 101, "channel": 0}, {"type": "note_off", "time": 548, "note": 66, "velocity": 101, "channel": 0}, {"type": "note_on", "time": 21, "note": 65, "velocity": 92, "channel": 0}, {"type": "note_off", "time": 746, "note": 65, "velocity": 92, "channel": 0}, {"type": "note_on", "time": 1872, "note": 74, "velocity": 104, "channel": 0}, {"type": "note_off", "time": 318, "note": 74, "velocity": 104, "channel": 0}, {"type": "note_on", "time": 47, "note": 72, "velocity": 98, "channel": 0}, {"type": "note_off", "time": 285, "note": 72, "velocity": 98, "channel": 0}, {"type": "note_on", "time": 32, "note": 69, "velocity": 106, "channel": 0}, {"type": "note_off", "time": 241, "note": 69, "velocity": 106, "channel": 0}, {"type": "note_on", "time": 10, "note": 65, "velocity": 100, "channel": 0}, {"type": "note_off", "time": 307, "note": 65, "velocity": 100, "channel": 0}, {"type": "note_on", "time": 32, "note": 62, "velocity": 92, "channel": 0}, {"type": "note_off", "time": 351, "note": 62, "velocity": 92, "channel": 0}, {"type": "note_on", "time": 43, "note": 57, "velocity": 87, "channel": 0}, {"type": "note_off", "time": 274, "note": 57, "velocity": 87, "channel": 0}, {"type": "note_on", "time": 0, "note": 71, "velocity": 89, "channel": 0}, {"type": "note_off", "time": 2073, "note": 71, "velocity": 89, "channel": 0}, {"type": "note_on", "time": 2106, "note": 69, "velocity": 106, "channel": 0}, {"type": "note_off", "time": 416, "note": 69, "velocity": 106, "channel": 0}, {"type": "note_on", "time": 0, "note": 68, "velocity": 103, "channel": 0}, {"type": "note_off", "time": 460, "note": 68, "velocity": 103, "channel": 0}, {"type": "note_on", "time": 21, "note": 67, "velocity": 108, "channel": 0}, {"type": "note_off", "time": 2885, "note": 67, "velocity": 108, "channel": 0}, {"type": "note_on", "time": 54, "note": 64, "velocity": 98, "channel": 0}, {"type": "note_off", "time": 427, "note": 64, "velocity": 98, "channel": 0}, {"type": "note_on", "time": 21, "note": 62, "velocity": 94, "channel": 0}, {"type": "note_off", "time": 351, "note": 62, "velocity": 94, "channel": 0}, {"type": "note_on", "time": 21, "note": 60, "velocity": 86, "channel": 0}, {"type": "note_off", "time": 241, "note": 60, "velocity": 86, "channel": 0}, {"type": "note_on", "time": 32, "note": 59, "velocity": 98, "channel": 0}, {"type": "note_off", "time": 351, "note": 59, "velocity": 98, "channel": 0}, {"type": "note_on", "time": 10, "note": 57, "velocity": 89, "channel": 0}, {"type": "note_off", "time": 208, "note": 57, "velocity": 89, "channel": 0}, {"type": "note_on", "time": 43, "note": 55, "velocity": 95, "channel": 0}, {"type": "note_off", "time": 340, "note": 55, "velocity": 95, "channel": 0}, {"type": "note_on", "time": 32, "note": 54, "velocity": 90, "channel": 0}, {"type": "note_off", "time": 537, "note": 54, "velocity": 90, "channel": 0}, {"type": "note_on", "time": 21, "note": 62, "velocity": 95, "channel": 0}, {"type": "note_off", "time": 219, "note": 62, "velocity": 95, "channel": 0}, {"type": "note_on", "time": 10, "note": 63, "velocity": 82, "channel": 0}, {"type": "note_off", "time": 2347, "note": 63, "velocity": 82, "channel": 0}, {"type": "note_on", "time": 603, "note": 70, "velocity": 92, "channel": 0}, {"type": "note_off", "time": 373, "note": 70, "velocity": 92, "channel": 0}, {"type": "note_on", "time": 32, "note": 66, "velocity": 97, "channel": 0}, {"type": "note_off", "time": 559, "note": 66, "velocity": 97, "channel": 0}, {"type": "note_on", "time": 340, "note": 68, "velocity": 102, "channel": 0}, {"type": "note_off", "time": 329, "note": 68, "velocity": 102, "channel": 0}, {"type": "note_on", "time": 32, "note": 69, "velocity": 88, "channel": 0}, {"type": "note_off", "time": 1766, "note": 69, "velocity": 88, "channel": 0}, {"type": "note_on", "time": 1755, "note": 74, "velocity": 103, "channel": 0}, {"type": "note_off", "time": 537, "note": 74, "velocity": 103, "channel": 0}, {"type": "note_on", "time": 10, "note": 72, "velocity": 96, "channel": 0}, {"type": "note_off", "time": 208, "note": 72, "velocity": 96, "channel": 0}, {"type": "note_on", "time": 43, "note": 74, "velocity": 100, "channel": 0}, {"type": "note_off", "time": 98, "note": 74, "velocity": 100, "channel": 0}, {"type": "note_on", "time": 21, "note": 72, "velocity": 97, "channel": 0}, {"type": "note_off", "time": 318, "note": 72, "velocity": 97, "channel": 0}, {"type": "note_on", "time": 0, "note": 69, "velocity": 84, "channel": 0}, {"type": "note_off", "time": 318, "note": 69, "velocity": 84, "channel": 0}, {"type": "note_on", "time": 2, "note": 67, "velocity": 105, "channel": 0}, {"type": "note_off", "time": 271, "note": 67, "velocity": 105, "channel": 0}, {"type": "note_on", "time": 107, "note": 67, "velocity": 108, "channel": 0}, {"type": "note_off", "time": 212, "note": 67, "velocity": 108, "channel": 0}, {"type": "note_on", "time": 20, "note": 65, "velocity": 96, "channel": 0}, {"type": "note_off", "time": 241, "note": 65, "velocity": 96, "channel": 0}, {"type": "note_on", "time": 43, "note": 62, "velocity": 91, "channel": 0}, {"type": "note_off", "time": 351, "note": 62, "velocity": 91, "channel": 0}, {"type": "note_on", "time": 21, "note": 57, "velocity": 81, "channel": 0}, {"type": "note_off", "time": 208, "note": 57, "velocity": 81, "channel": 0}, {"type": "note_on", "time": 32, "note": 60, "velocity": 81, "channel": 0}, {"type": "note_off", "time": 186, "note": 60, "velocity": 81, "channel": 0}, {"type": "note_on", "time": 131, "note": 57, "velocity": 80, "channel": 0}, {"type": "note_off", "time": 285, "note": 57, "velocity": 80, "channel": 0}, {"type": "note_on", "time": 21, "note": 59, "velocity": 92, "channel": 0}, {"type": "note_off", "time": 493, "note": 59, "velocity": 92, "channel": 0}, {"type": "note_on", "time": 21, "note": 64, "velocity": 94, "channel": 0}, {"type": "note_off", "time": 274, "note": 64, "velocity": 94, "channel": 0}, {"type": "note_on", "time": 32, "note": 59, "velocity": 89, "channel": 0}, {"type": "note_off", "time": 153, "note": 59, "velocity": 89, "channel": 0}, {"type": "note_on", "time": 21, "note": 55, "velocity": 91, "channel": 0}, {"type": "note_off", "time": 1031, "note": 55, "velocity": 91, "channel": 0}, {"type": "note_on", "time": 3247, "note": 63, "velocity": 91, "channel": 0}, {"type": "note_off", "time": 263, "note": 63, "velocity": 91, "channel": 0}, {"type": "note_on", "time": 21, "note": 64, "velocity": 93, "channel": 0}, {"type": "note_off", "time": 285, "note": 64, "velocity": 93, "channel": 0}, {"type": "note_on", "time": 21, "note": 66, "velocity": 106, "channel": 0}, {"type": "note_off", "time": 362, "note": 66, "velocity": 106, "channel": 0}, {"type": "note_on", "time": 21, "note": 67, "velocity": 101, "channel": 0}, {"type": "note_off", "time": 307, "note": 67, "velocity": 101, "channel": 0}, {"type": "note_on", "time": 10, "note": 64, "velocity": 88, "channel": 0}, {"type": "note_off", "time": 285, "note": 64, "velocity": 88, "channel": 0}, {"type": "note_on", "time": 10, "note": 62, "velocity": 90, "channel": 0}, {"type": "note_off", "time": 351, "note": 62, "velocity": 90, "channel": 0}, {"type": "note_on", "time": 21, "note": 61, "velocity": 81, "channel": 0}, {"type": "note_off", "time": 208, "note": 61, "velocity": 81, "channel": 0}, {"type": "note_on", "time": 65, "note": 64, "velocity": 87, "channel": 0}, {"type": "note_off", "time": 263, "note": 64, "velocity": 87, "channel": 0}, {"type": "note_on", "time": 10, "note": 67, "velocity": 86, "channel": 0}, {"type": "note_off", "time": 340, "note": 67, "velocity": 86, "channel": 0}, {"type": "note_on", "time": 10, "note": 69, "velocity": 85, "channel": 0}, {"type": "note_off", "time": 318, "note": 69, "velocity": 85, "channel": 0}, {"type": "note_on", "time": 10, "note": 70, "velocity": 92, "channel": 0}, {"type": "note_off", "time": 274, "note": 70, "velocity": 92, "channel": 0}, {"type": "note_on", "time": 21, "note": 68, "velocity": 85, "channel": 0}, {"type": "note_off", "time": 274, "note": 68, "velocity": 85, "channel": 0}, {"type": "note_on", "time": 10, "note": 69, "velocity": 83, "channel": 0}, {"type": "note_off", "time": 449, "note": 69, "velocity": 83, "channel": 0}, {"type": "note_on", "time": 866, "note": 77, "velocity": 105, "channel": 0}, {"type": "note_off", "time": 263, "note": 77, "velocity": 105, "channel": 0}, {"type": "note_on", "time": 32, "note": 76, "velocity": 104, "channel": 0}, {"type": "note_off", "time": 164, "note": 76, "velocity": 104, "channel": 0}, {"type": "note_on", "time": 21, "note": 74, "velocity": 94, "channel": 0}, {"type": "note_off", "time": 98, "note": 74, "velocity": 94, "channel": 0}, {"type": "note_on", "time": 10, "note": 73, "velocity": 93, "channel": 0}, {"type": "note_off", "time": 384, "note": 73, "velocity": 93, "channel": 0}, {"type": "note_on", "time": 43, "note": 70, "velocity": 91, "channel": 0}, {"type": "note_off", "time": 186, "note": 70, "velocity": 91, "channel": 0}, {"type": "note_on", "time": 43, "note": 69, "velocity": 95, "channel": 0}, {"type": "note_off", "time": 263, "note": 69, "velocity": 95, "channel": 0}, {"type": "note_on", "time": 21, "note": 67, "velocity": 107, "channel": 0}, {"type": "note_off", "time": 340, "note": 67, "velocity": 107, "channel": 0}, {"type": "note_on", "time": 43, "note": 66, "velocity": 108, "channel": 0}, {"type": "note_off", "time": 647, "note": 66, "velocity": 108, "channel": 0}, {"type": "note_on", "time": 87, "note": 69, "velocity": 94, "channel": 0}, {"type": "note_off", "time": 76, "note": 69, "velocity": 94, "channel": 0}, {"type": "note_on", "time": 21, "note": 71, "velocity": 83, "channel": 0}, {"type": "note_off", "time": 43, "note": 71, "velocity": 83, "channel": 0}, {"type": "note_on", "time": 54, "note": 76, "velocity": 97, "channel": 0}, {"type": "note_off", "time": 285, "note": 76, "velocity": 97, "channel": 0}, {"type": "note_on", "time": 21, "note": 71, "velocity": 95, "channel": 0}, {"type": "note_off", "time": 394, "note": 71, "velocity": 95, "channel": 0}, {"type": "note_on", "time": 3818, "note": 74, "velocity": 110, "channel": 0}, {"type": "note_off", "time": 460, "note": 74, "velocity": 110, "channel": 0}, {"type": "note_on", "time": 10, "note": 72, "velocity": 102, "channel": 0}, {"type": "note_off", "time": 164, "note": 72, "velocity": 102, "channel": 0}, {"type": "note_on", "time": 32, "note": 74, "velocity": 102, "channel": 0}, {"type": "note_off", "time": 120, "note": 74, "velocity": 102, "channel": 0}, {"type": "note_on", "time": 21, "note": 72, "velocity": 103, "channel": 0}, {"type": "note_off", "time": 263, "note": 72, "velocity": 103, "channel": 0}, {"type": "note_on", "time": 0, "note": 69, "velocity": 108, "channel": 0}, {"type": "note_off", "time": 263, "note": 69, "velocity": 108, "channel": 0}, {"type": "note_on", "time": 43, "note": 67, "velocity": 115, "channel": 0}, {"type": "note_off", "time": 482, "note": 67, "velocity": 115, "channel": 0}, {"type": "note_on", "time": 32, "note": 65, "velocity": 102, "channel": 0}, {"type": "note_off", "time": 329, "note": 65, "velocity": 102, "channel": 0}, {"type": "note_on", "time": 10, "note": 62, "velocity": 100, "channel": 0}, {"type": "note_off", "time": 405, "note": 62, "velocity": 100, "channel": 0}, {"type": "note_on", "time": 32, "note": 57, "velocity": 90, "channel": 0}, {"type": "note_off", "time": 263, "note": 57, "velocity": 90, "channel": 0}, {"type": "note_on", "time": 32, "note": 64, "velocity": 94, "channel": 0}, {"type": "note_off", "time": 362, "note": 64, "velocity": 94, "channel": 0}, {"type": "note_on", "time": 87, "note": 55, "velocity": 94, "channel": 0}, {"type": "note_off", "time": 296, "note": 55, "velocity": 94, "channel": 0}, {"type": "note_on", "time": 32, "note": 54, "velocity": 95, "channel": 0}, {"type": "note_off", "time": 307, "note": 54, "velocity": 95, "channel": 0}, {"type": "note_on", "time": 10, "note": 53, "velocity": 95, "channel": 0}, {"type": "note_off", "time": 230, "note": 53, "velocity": 95, "channel": 0}, {"type": "note_on", "time": 43, "note": 59, "velocity": 92, "channel": 0}, {"type": "note_off", "time": 153, "note": 59, "velocity": 92, "channel": 0}, {"type": "note_on", "time": 43, "note": 62, "velocity": 84, "channel": 0}, {"type": "note_off", "time": 274, "note": 62, "velocity": 84, "channel": 0}, {"type": "note_on", "time": 263, "note": 59, "velocity": 97, "channel": 0}, {"type": "note_off", "time": 296, "note": 59, "velocity": 97, "channel": 0}, {"type": "note_on", "time": 54, "note": 62, "velocity": 96, "channel": 0}, {"type": "note_off", "time": 340, "note": 62, "velocity": 96, "channel": 0}, {"type": "note_on", "time": 21, "note": 60, "velocity": 84, "channel": 0}, {"type": "note_off", "time": 252, "note": 60, "velocity": 84, "channel": 0}, {"type": "note_on", "time": 340, "note": 58, "velocity": 93, "channel": 0}, {"type": "note_off", "time": 285, "note": 58, "velocity": 93, "channel": 0}, {"type": "note_on", "time": 87, "note": 60, "velocity": 89, "channel": 0}, {"type": "note_off", "time": 87, "note": 60, "velocity": 89, "channel": 0}, {"type": "note_on", "time": 43, "note": 62, "velocity": 94, "channel": 0}, {"type": "note_off", "time": 65, "note": 62, "velocity": 94, "channel": 0}, {"type": "note_on", "time": 54, "note": 64, "velocity": 96, "channel": 0}, {"type": "note_off", "time": 164, "note": 64, "velocity": 96, "channel": 0}, {"type": "note_on", "time": 21, "note": 69, "velocity": 103, "channel": 0}, {"type": "note_off", "time": 438, "note": 69, "velocity": 103, "channel": 0}, {"type": "note_on", "time": 32, "note": 67, "velocity": 106, "channel": 0}, {"type": "note_off", "time": 2084, "note": 67, "velocity": 106, "channel": 0}, {"type": "note_on", "time": 37, "note": 62, "velocity": 85, "channel": 0}, {"type": "note_off", "time": 202, "note": 62, "velocity": 85, "channel": 0}, {"type": "note_on", "time": 0, "note": 61, "velocity": 87, "channel": 0}, {"type": "note_off", "time": 219, "note": 61, "velocity": 87, "channel": 0}, {"type": "note_on", "time": 29, "note": 65, "velocity": 88, "channel": 0}, {"type": "note_off", "time": 234, "note": 65, "velocity": 88, "channel": 0}, {"type": "note_on", "time": 10, "note": 67, "velocity": 97, "channel": 0}, {"type": "note_off", "time": 307, "note": 67, "velocity": 97, "channel": 0}, {"type": "note_on", "time": 21, "note": 65, "velocity": 82, "channel": 0}, {"type": "note_off", "time": 142, "note": 65, "velocity": 82, "channel": 0}, {"type": "note_on", "time": 141, "note": 62, "velocity": 78, "channel": 0}, {"type": "note_off", "time": 288, "note": 62, "velocity": 78, "channel": 0}, {"type": "note_on", "time": 85, "note": 64, "velocity": 90, "channel": 0}, {"type": "note_off", "time": 608, "note": 64, "velocity": 90, "channel": 0}, {"type": "note_on", "time": 374, "note": 72, "velocity": 102, "channel": 0}, {"type": "note_off", "time": 873, "note": 72, "velocity": 102, "channel": 0}, {"type": "note_on", "time": 249, "note": 60, "velocity": 83, "channel": 0}, {"type": "note_off", "time": 327, "note": 60, "velocity": 83, "channel": 0}, {"type": "note_on", "time": 343, "note": 67, "velocity": 108, "channel": 0}, {"type": "note_off", "time": 382, "note": 67, "velocity": 108, "channel": 0}, {"type": "note_on", "time": 15, "note": 68, "velocity": 94, "channel": 0}, {"type": "note_off", "time": 444, "note": 68, "velocity": 94, "channel": 0}, {"type": "note_on", "time": 7, "note": 69, "velocity": 96, "channel": 0}, {"type": "note_off", "time": 655, "note": 69, "velocity": 96, "channel": 0}, {"type": "note_on", "time": 15, "note": 68, "velocity": 106, "channel": 0}, {"type": "note_off", "time": 670, "note": 68, "velocity": 106, "channel": 0}, {"type": "note_on", "time": 21, "note": 69, "velocity": 85, "channel": 0}, {"type": "note_off", "time": 4158, "note": 69, "velocity": 85, "channel": 0}, {"type": "note_on", "time": 3675, "note": 60, "velocity": 95, "channel": 0}, {"type": "note_off", "time": 98, "note": 60, "velocity": 95, "channel": 0}, {"type": "note_on", "time": 10, "note": 61, "velocity": 93, "channel": 0}, {"type": "note_off", "time": 120, "note": 61, "velocity": 93, "channel": 0}, {"type": "note_on", "time": 27, "note": 60, "velocity": 95, "channel": 0}, {"type": "note_off", "time": 131, "note": 60, "velocity": 95, "channel": 0}, {"type": "note_on", "time": 27, "note": 59, "velocity": 102, "channel": 0}, {"type": "note_off", "time": 636, "note": 59, "velocity": 102, "channel": 0}, {"type": "note_on", "time": 16, "note": 60, "velocity": 90, "channel": 0}, {"type": "note_off", "time": 213, "note": 60, "velocity": 90, "channel": 0}, {"type": "note_on", "time": 21, "note": 62, "velocity": 107, "channel": 0}, {"type": "note_off", "time": 455, "note": 62, "velocity": 107, "channel": 0}, {"type": "note_on", "time": 16, "note": 60, "velocity": 96, "channel": 0}, {"type": "note_off", "time": 323, "note": 60, "velocity": 96, "channel": 0}, {"type": "note_on", "time": 43, "note": 59, "velocity": 100, "channel": 0}, {"type": "note_off", "time": 488, "note": 59, "velocity": 100, "channel": 0}, {"type": "note_on", "time": 21, "note": 60, "velocity": 94, "channel": 0}, {"type": "note_off", "time": 208, "note": 60, "velocity": 94, "channel": 0}, {"type": "note_on", "time": 98, "note": 70, "velocity": 107, "channel": 0}, {"type": "note_off", "time": 483, "note": 70, "velocity": 107, "channel": 0}, {"type": "note_on", "time": 37, "note": 71, "velocity": 108, "channel": 0}, {"type": "note_off", "time": 608, "note": 71, "velocity": 108, "channel": 0}, {"type": "note_on", "time": 5, "note": 70, "velocity": 107, "channel": 0}, {"type": "note_off", "time": 471, "note": 70, "velocity": 107, "channel": 0}, {"type": "note_on", "time": 38, "note": 71, "velocity": 96, "channel": 0}, {"type": "note_off", "time": 2380, "note": 71, "velocity": 96, "channel": 0}, {"type": "note_on", "time": 32, "note": 66, "velocity": 107, "channel": 0}, {"type": "note_off", "time": 504, "note": 66, "velocity": 107, "channel": 0}, {"type": "note_on", "time": 54, "note": 69, "velocity": 94, "channel": 0}, {"type": "note_off", "time": 208, "note": 69, "velocity": 94, "channel": 0}, {"type": "note_on", "time": 10, "note": 70, "velocity": 85, "channel": 0}, {"type": "note_off", "time": 153, "note": 70, "velocity": 85, "channel": 0}, {"type": "note_on", "time": 10, "note": 69, "velocity": 100, "channel": 0}, {"type": "note_off", "time": 307, "note": 69, "velocity": 100, "channel": 0}, {"type": "note_on", "time": 21, "note": 66, "velocity": 100, "channel": 0}, {"type": "note_off", "time": 438, "note": 66, "velocity": 100, "channel": 0}, {"type": "note_on", "time": 43, "note": 68, "velocity": 100, "channel": 0}, {"type": "note_off", "time": 1031, "note": 68, "velocity": 100, "channel": 0}, {"type": "note_on", "time": 3385, "note": 71, "velocity": 105, "channel": 0}, {"type": "note_off", "time": 343, "note": 71, "velocity": 105, "channel": 0}, {"type": "note_on", "time": 15, "note": 73, "velocity": 106, "channel": 0}, {"type": "note_off", "time": 319, "note": 73, "velocity": 106, "channel": 0}, {"type": "note_on", "time": 23, "note": 74, "velocity": 111, "channel": 0}, {"type": "note_off", "time": 920, "note": 74, "velocity": 111, "channel": 0}, {"type": "note_on", "time": 78, "note": 72, "velocity": 107, "channel": 0}, {"type": "note_off", "time": 319, "note": 72, "velocity": 107, "channel": 0}, {"type": "note_on", "time": 7, "note": 71, "velocity": 103, "channel": 0}, {"type": "note_on", "time": 405, "note": 69, "velocity": 102, "channel": 0}, {"type": "note_off", "time": 0, "note": 71, "velocity": 103, "channel": 0}, {"type": "note_off", "time": 421, "note": 69, "velocity": 102, "channel": 0}, {"type": "note_on", "time": 0, "note": 67, "velocity": 97, "channel": 0}, {"type": "note_off", "time": 226, "note": 67, "velocity": 97, "channel": 0}, {"type": "note_on", "time": 187, "note": 59, "velocity": 79, "channel": 0}, {"type": "note_on", "time": 148, "note": 62, "velocity": 94, "channel": 0}, {"type": "note_off", "time": 0, "note": 59, "velocity": 79, "channel": 0}, {"type": "note_off", "time": 351, "note": 62, "velocity": 94, "channel": 0}, {"type": "note_on", "time": 31, "note": 65, "velocity": 104, "channel": 0}, {"type": "note_off", "time": 406, "note": 65, "velocity": 104, "channel": 0}, {"type": "note_on", "time": 63, "note": 64, "velocity": 88, "channel": 0}, {"type": "note_off", "time": 214, "note": 64, "velocity": 88, "channel": 0}, {"type": "note_on", "time": 337, "note": 72, "velocity": 104, "channel": 0}, {"type": "note_off", "time": 928, "note": 72, "velocity": 104, "channel": 0}, {"type": "note_on", "time": 7, "note": 71, "velocity": 92, "channel": 0}, {"type": "note_off", "time": 241, "note": 71, "velocity": 92, "channel": 0}, {"type": "note_on", "time": 7, "note": 69, "velocity": 99, "channel": 0}, {"type": "note_off", "time": 218, "note": 69, "velocity": 99, "channel": 0}, {"type": "note_on", "time": 23, "note": 68, "velocity": 98, "channel": 0}, {"type": "note_off", "time": 374, "note": 68, "velocity": 98, "channel": 0}, {"type": "note_on", "time": 1271, "note": 59, "velocity": 93, "channel": 0}, {"type": "note_off", "time": 631, "note": 59, "velocity": 93, "channel": 0}, {"type": "note_on", "time": 7, "note": 62, "velocity": 89, "channel": 0}, {"type": "note_off", "time": 663, "note": 62, "velocity": 89, "channel": 0}, {"type": "note_on", "time": 257, "note": 65, "velocity": 89, "channel": 0}, {"type": "note_off", "time": 553, "note": 65, "velocity": 89, "channel": 0}, {"type": "note_on", "time": 156, "note": 64, "velocity": 78, "channel": 0}, {"type": "note_off", "time": 460, "note": 64, "velocity": 78, "channel": 0}, {"type": "note_on", "time": 93, "note": 62, "velocity": 78, "channel": 0}, {"type": "note_off", "time": 522, "note": 62, "velocity": 78, "channel": 0}, {"type": "note_on", "time": 117, "note": 59, "velocity": 83, "channel": 0}, {"type": "note_off", "time": 460, "note": 59, "velocity": 83, "channel": 0}, {"type": "note_on", "time": 0, "note": 59, "velocity": 80, "channel": 0}, {"type": "note_off", "time": 0, "note": 59, "velocity": 80, "channel": 0}, {"type": "note_on", "time": 132, "note": 60, "velocity": 93, "channel": 0}, {"type": "note_off", "time": 351, "note": 60, "velocity": 93, "channel": 0}, {"type": "note_on", "time": 7, "note": 62, "velocity": 86, "channel": 0}, {"type": "note_off", "time": 546, "note": 62, "velocity": 86, "channel": 0}, {"type": "note_on", "time": 15, "note": 59, "velocity": 84, "channel": 0}, {"type": "note_off", "time": 257, "note": 59, "velocity": 84, "channel": 0}, {"type": "note_on", "time": 31, "note": 60, "velocity": 96, "channel": 0}, {"type": "note_off", "time": 390, "note": 60, "velocity": 96, "channel": 0}, {"type": "note_on", "time": 46, "note": 64, "velocity": 89, "channel": 0}, {"type": "note_off", "time": 234, "note": 64, "velocity": 89, "channel": 0}, {"type": "note_on", "time": 23, "note": 57, "velocity": 92, "channel": 0}, {"type": "note_off", "time": 546, "note": 57, "velocity": 92, "channel": 0}, {"type": "note_on", "time": 3120, "note": 57, "velocity": 91, "channel": 0}, {"type": "note_off", "time": 327, "note": 57, "velocity": 91, "channel": 0}, {"type": "note_on", "time": 7, "note": 59, "velocity": 93, "channel": 0}, {"type": "note_off", "time": 210, "note": 59, "velocity": 93, "channel": 0}, {"type": "note_on", "time": 31, "note": 61, "velocity": 89, "channel": 0}, {"type": "note_off", "time": 234, "note": 61, "velocity": 89, "channel": 0}, {"type": "note_on", "time": 31, "note": 64, "velocity": 95, "channel": 0}, {"type": "note_off", "time": 366, "note": 64, "velocity": 95, "channel": 0}, {"type": "note_on", "time": 132, "note": 61, "velocity": 84, "channel": 0}, {"type": "note_off", "time": 208, "note": 61, "velocity": 84, "channel": 0}, {"type": "note_on", "time": 18, "note": 62, "velocity": 98, "channel": 0}, {"type": "note_off", "time": 413, "note": 62, "velocity": 98, "channel": 0}, {"type": "note_on", "time": 31, "note": 64, "velocity": 92, "channel": 0}, {"type": "note_off", "time": 241, "note": 64, "velocity": 92, "channel": 0}, {"type": "note_on", "time": 62, "note": 66, "velocity": 93, "channel": 0}, {"type": "note_off", "time": 202, "note": 66, "velocity": 93, "channel": 0}, {"type": "note_on", "time": 15, "note": 67, "velocity": 103, "channel": 0}, {"type": "note_off", "time": 312, "note": 67, "velocity": 103, "channel": 0}, {"type": "note_on", "time": 39, "note": 69, "velocity": 91, "channel": 0}, {"type": "note_off", "time": 304, "note": 69, "velocity": 91, "channel": 0}, {"type": "note_on", "time": 46, "note": 71, "velocity": 86, "channel": 0}, {"type": "note_off", "time": 249, "note": 71, "velocity": 86, "channel": 0}, {"type": "note_on", "time": 39, "note": 72, "velocity": 97, "channel": 0}, {"type": "note_off", "time": 327, "note": 72, "velocity": 97, "channel": 0}, {"type": "note_on", "time": 15, "note": 71, "velocity": 90, "channel": 0}, {"type": "note_off", "time": 234, "note": 71, "velocity": 90, "channel": 0}, {"type": "note_on", "time": 23, "note": 69, "velocity": 100, "channel": 0}, {"type": "note_off", "time": 187, "note": 69, "velocity": 100, "channel": 0}, {"type": "note_on", "time": 0, "note": 67, "velocity": 113, "channel": 0}, {"type": "note_off", "time": 413, "note": 67, "velocity": 113, "channel": 0}, {"type": "note_on", "time": 23, "note": 66, "velocity": 101, "channel": 0}, {"type": "note_off", "time": 390, "note": 66, "velocity": 101, "channel": 0}, {"type": "note_on", "time": 23, "note": 62, "velocity": 94, "channel": 0}, {"type": "note_off", "time": 179, "note": 62, "velocity": 94, "channel": 0}, {"type": "note_on", "time": 23, "note": 61, "velocity": 88, "channel": 0}, {"type": "note_off", "time": 234, "note": 61, "velocity": 88, "channel": 0}, {"type": "note_on", "time": 31, "note": 60, "velocity": 88, "channel": 0}, {"type": "note_off", "time": 257, "note": 60, "velocity": 88, "channel": 0}, {"type": "note_on", "time": 70, "note": 64, "velocity": 102, "channel": 0}, {"type": "note_off", "time": 319, "note": 64, "velocity": 102, "channel": 0}, {"type": "note_on", "time": 23, "note": 59, "velocity": 101, "channel": 0}, {"type": "note_off", "time": 495, "note": 59, "velocity": 101, "channel": 0}, {"type": "note_on", "time": 62, "note": 57, "velocity": 94, "channel": 0}, {"type": "note_off", "time": 140, "note": 57, "velocity": 94, "channel": 0}, {"type": "note_on", "time": 15, "note": 55, "velocity": 96, "channel": 0}, {"type": "note_off", "time": 175, "note": 55, "velocity": 96, "channel": 0}, {"type": "note_on", "time": 58, "note": 62, "velocity": 99, "channel": 0}, {"type": "note_off", "time": 366, "note": 62, "velocity": 99, "channel": 0}, {"type": "note_on", "time": 11, "note": 59, "velocity": 93, "channel": 0}, {"type": "note_off", "time": 276, "note": 59, "velocity": 93, "channel": 0}, {"type": "note_on", "time": 156, "note": 62, "velocity": 84, "channel": 0}, {"type": "note_off", "time": 117, "note": 62, "velocity": 84, "channel": 0}, {"type": "note_on", "time": 27, "note": 64, "velocity": 87, "channel": 0}, {"type": "note_off", "time": 179, "note": 64, "velocity": 87, "channel": 0}, {"type": "note_on", "time": 46, "note": 66, "velocity": 102, "channel": 0}, {"type": "note_off", "time": 198, "note": 66, "velocity": 102, "channel": 0}, {"type": "note_on", "time": 3, "note": 67, "velocity": 105, "channel": 0}, {"type": "note_off", "time": 167, "note": 67, "velocity": 105, "channel": 0}, {"type": "note_on", "time": 23, "note": 69, "velocity": 93, "channel": 0}, {"type": "note_off", "time": 171, "note": 69, "velocity": 93, "channel": 0}, {"type": "note_on", "time": 27, "note": 70, "velocity": 84, "channel": 0}, {"type": "note_off", "time": 124, "note": 70, "velocity": 84, "channel": 0}, {"type": "note_on", "time": 35, "note": 72, "velocity": 94, "channel": 0}, {"type": "note_off", "time": 261, "note": 72, "velocity": 94, "channel": 0}, {"type": "note_on", "time": 11, "note": 71, "velocity": 98, "channel": 0}, {"type": "note_off", "time": 117, "note": 71, "velocity": 98, "channel": 0}, {"type": "note_on", "time": 7, "note": 69, "velocity": 105, "channel": 0}, {"type": "note_off", "time": 163, "note": 69, "velocity": 105, "channel": 0}, {"type": "note_on", "time": 0, "note": 67, "velocity": 112, "channel": 0}, {"type": "note_off", "time": 245, "note": 67, "velocity": 112, "channel": 0}, {"type": "note_on", "time": 7, "note": 66, "velocity": 101, "channel": 0}, {"type": "note_off", "time": 433, "note": 66, "velocity": 101, "channel": 0}, {"type": "note_on", "time": 2531, "note": 74, "velocity": 111, "channel": 0}, {"type": "note_off", "time": 384, "note": 74, "velocity": 111, "channel": 0}, {"type": "note_on", "time": 5, "note": 73, "velocity": 101, "channel": 0}, {"type": "note_off", "time": 308, "note": 73, "velocity": 101, "channel": 0}, {"type": "note_on", "time": 0, "note": 73, "velocity": 80, "channel": 0}, {"type": "note_off", "time": 3, "note": 73, "velocity": 80, "channel": 0}, {"type": "note_on", "time": 3, "note": 72, "velocity": 108, "channel": 0}, {"type": "note_on", "time": 339, "note": 76, "velocity": 109, "channel": 0}, {"type": "note_off", "time": 0, "note": 72, "velocity": 108, "channel": 0}, {"type": "note_off", "time": 280, "note": 76, "velocity": 109, "channel": 0}, {"type": "note_on", "time": 23, "note": 71, "velocity": 105, "channel": 0}, {"type": "note_off", "time": 397, "note": 71, "velocity": 105, "channel": 0}, {"type": "note_on", "time": 7, "note": 70, "velocity": 104, "channel": 0}, {"type": "note_off", "time": 210, "note": 70, "velocity": 104, "channel": 0}, {"type": "note_on", "time": 15, "note": 69, "velocity": 94, "channel": 0}, {"type": "note_off", "time": 1599, "note": 69, "velocity": 94, "channel": 0}, {"type": "note_on", "time": 4624, "note": 62, "velocity": 112, "channel": 0}, {"type": "note_off", "time": 855, "note": 62, "velocity": 112, "channel": 0}, {"type": "note_on", "time": 21, "note": 65, "velocity": 110, "channel": 0}, {"type": "note_off", "time": 713, "note": 65, "velocity": 110, "channel": 0}, {"type": "note_on", "time": 32, "note": 69, "velocity": 112, "channel": 0}, {"type": "note_off", "time": 647, "note": 69, "velocity": 112, "channel": 0}, {"type": "note_on", "time": 27, "note": 72, "velocity": 103, "channel": 0}, {"type": "note_off", "time": 614, "note": 72, "velocity": 103, "channel": 0}, {"type": "note_on", "time": 38, "note": 79, "velocity": 91, "channel": 0}, {"type": "note_off", "time": 663, "note": 79, "velocity": 91, "channel": 0}, {"type": "note_on", "time": 27, "note": 77, "velocity": 99, "channel": 0}, {"type": "note_off", "time": 532, "note": 77, "velocity": 99, "channel": 0}, {"type": "note_on", "time": 10, "note": 75, "velocity": 102, "channel": 0}, {"type": "note_off", "time": 691, "note": 75, "velocity": 102, "channel": 0}, {"type": "note_on", "time": 27, "note": 72, "velocity": 80, "channel": 0}, {"type": "note_off", "time": 405, "note": 72, "velocity": 80, "channel": 0}, {"type": "note_on", "time": 10, "note": 73, "velocity": 93, "channel": 0}, {"type": "note_off", "time": 405, "note": 73, "velocity": 93, "channel": 0}, {"type": "note_on", "time": 5, "note": 75, "velocity": 93, "channel": 0}, {"type": "note_off", "time": 208, "note": 75, "velocity": 93, "channel": 0}, {"type": "note_on", "time": 5, "note": 73, "velocity": 92, "channel": 0}, {"type": "note_off", "time": 120, "note": 73, "velocity": 92, "channel": 0}, {"type": "note_on", "time": 16, "note": 72, "velocity": 94, "channel": 0}, {"type": "note_off", "time": 477, "note": 72, "velocity": 94, "channel": 0}, {"type": "note_on", "time": 21, "note": 70, "velocity": 99, "channel": 0}, {"type": "note_off", "time": 532, "note": 70, "velocity": 99, "channel": 0}, {"type": "note_on", "time": 104, "note": 69, "velocity": 101, "channel": 0}, {"type": "note_off", "time": 504, "note": 69, "velocity": 101, "channel": 0}, {"type": "note_on", "time": 38, "note": 68, "velocity": 110, "channel": 0}, {"type": "note_off", "time": 603, "note": 68, "velocity": 110, "channel": 0}, {"type": "note_on", "time": 60, "note": 65, "velocity": 103, "channel": 0}, {"type": "note_off", "time": 532, "note": 65, "velocity": 103, "channel": 0}, {"type": "note_on", "time": 27, "note": 63, "velocity": 90, "channel": 0}, {"type": "note_off", "time": 449, "note": 63, "velocity": 90, "channel": 0}, {"type": "note_on", "time": 21, "note": 58, "velocity": 90, "channel": 0}, {"type": "note_off", "time": 521, "note": 58, "velocity": 90, "channel": 0}, {"type": "note_on", "time": 16, "note": 61, "velocity": 94, "channel": 0}, {"type": "note_off", "time": 263, "note": 61, "velocity": 94, "channel": 0}, {"type": "note_on", "time": 27, "note": 62, "velocity": 84, "channel": 0}, {"type": "note_off", "time": 126, "note": 62, "velocity": 84, "channel": 0}, {"type": "note_on", "time": 27, "note": 61, "velocity": 94, "channel": 0}, {"type": "note_off", "time": 367, "note": 61, "velocity": 94, "channel": 0}, {"type": "note_on", "time": 21, "note": 56, "velocity": 81, "channel": 0}, {"type": "note_off", "time": 367, "note": 56, "velocity": 81, "channel": 0}, {"type": "note_on", "time": 180, "note": 59, "velocity": 89, "channel": 0}, {"type": "note_off", "time": 514, "note": 59, "velocity": 89, "channel": 0}, {"type": "note_on", "time": 44, "note": 60, "velocity": 90, "channel": 0}, {"type": "note_off", "time": 488, "note": 60, "velocity": 90, "channel": 0}, {"type": "note_on", "time": 5, "note": 63, "velocity": 102, "channel": 0}, {"type": "note_off", "time": 608, "note": 63, "velocity": 102, "channel": 0}, {"type": "note_on", "time": 31, "note": 70, "velocity": 92, "channel": 0}, {"type": "note_off", "time": 1521, "note": 70, "velocity": 92, "channel": 0}, {"type": "note_on", "time": 11, "note": 68, "velocity": 94, "channel": 0}, {"type": "note_off", "time": 417, "note": 68, "velocity": 94, "channel": 0}, {"type": "note_on", "time": 15, "note": 63, "velocity": 85, "channel": 0}, {"type": "note_off", "time": 187, "note": 63, "velocity": 85, "channel": 0}, {"type": "note_on", "time": 15, "note": 60, "velocity": 80, "channel": 0}, {"type": "note_off", "time": 230, "note": 60, "velocity": 80, "channel": 0}, {"type": "note_on", "time": 27, "note": 56, "velocity": 75, "channel": 0}, {"type": "note_off", "time": 156, "note": 56, "velocity": 75, "channel": 0}, {"type": "note_on", "time": 27, "note": 55, "velocity": 87, "channel": 0}, {"type": "note_off", "time": 187, "note": 55, "velocity": 87, "channel": 0}, {"type": "note_on", "time": 23, "note": 67, "velocity": 104, "channel": 0}, {"type": "note_off", "time": 667, "note": 67, "velocity": 104, "channel": 0}, {"type": "note_on", "time": 39, "note": 65, "velocity": 93, "channel": 0}, {"type": "note_off", "time": 491, "note": 65, "velocity": 93, "channel": 0}, {"type": "note_on", "time": 11, "note": 62, "velocity": 94, "channel": 0}, {"type": "note_off", "time": 659, "note": 62, "velocity": 94, "channel": 0}, {"type": "note_on", "time": 23, "note": 56, "velocity": 90, "channel": 0}, {"type": "note_off", "time": 608, "note": 56, "velocity": 90, "channel": 0}, {"type": "note_on", "time": 70, "note": 55, "velocity": 92, "channel": 0}, {"type": "note_off", "time": 1575, "note": 55, "velocity": 92, "channel": 0}, {"type": "note_on", "time": 1905, "note": 62, "velocity": 94, "channel": 0}, {"type": "note_off", "time": 159, "note": 62, "velocity": 94, "channel": 0}, {"type": "note_on", "time": 16, "note": 64, "velocity": 96, "channel": 0}, {"type": "note_off", "time": 526, "note": 64, "velocity": 96, "channel": 0}, {"type": "note_on", "time": 32, "note": 65, "velocity": 96, "channel": 0}, {"type": "note_off", "time": 378, "note": 65, "velocity": 96, "channel": 0}, {"type": "note_on", "time": 15, "note": 66, "velocity": 101, "channel": 0}, {"type": "note_off", "time": 440, "note": 66, "velocity": 101, "channel": 0}, {"type": "note_on", "time": 39, "note": 67, "velocity": 106, "channel": 0}, {"type": "note_off", "time": 433, "note": 67, "velocity": 106, "channel": 0}, {"type": "note_on", "time": 19, "note": 69, "velocity": 99, "channel": 0}, {"type": "note_off", "time": 456, "note": 69, "velocity": 99, "channel": 0}, {"type": "note_on", "time": 39, "note": 70, "velocity": 79, "channel": 0}, {"type": "note_off", "time": 3791, "note": 70, "velocity": 79, "channel": 0}, {"type": "note_on", "time": 31, "note": 72, "velocity": 84, "channel": 0}, {"type": "note_off", "time": 226, "note": 72, "velocity": 84, "channel": 0}, {"type": "note_on", "time": 0, "note": 70, "velocity": 94, "channel": 0}, {"type": "note_off", "time": 163, "note": 70, "velocity": 94, "channel": 0}, {"type": "note_on", "time": 0, "note": 69, "velocity": 99, "channel": 0}, {"type": "note_off", "time": 382, "note": 69, "velocity": 99, "channel": 0}, {"type": "note_on", "time": 2200, "note": 63, "velocity": 95, "channel": 0}, {"type": "note_off", "time": 362, "note": 63, "velocity": 95, "channel": 0}, {"type": "note_on", "time": 76, "note": 64, "velocity": 93, "channel": 0}, {"type": "note_off", "time": 3664, "note": 64, "velocity": 93, "channel": 0}, {"type": "note_on", "time": 32, "note": 65, "velocity": 105, "channel": 0}, {"type": "note_off", "time": 362, "note": 65, "velocity": 105, "channel": 0}, {"type": "note_on", "time": 43, "note": 64, "velocity": 99, "channel": 0}, {"type": "note_off", "time": 175, "note": 64, "velocity": 99, "channel": 0}, {"type": "note_on", "time": 43, "note": 62, "velocity": 100, "channel": 0}, {"type": "note_off", "time": 471, "note": 62, "velocity": 100, "channel": 0}, {"type": "note_on", "time": 32, "note": 60, "velocity": 93, "channel": 0}, {"type": "note_off", "time": 274, "note": 60, "velocity": 93, "channel": 0}, {"type": "note_on", "time": 32, "note": 61, "velocity": 92, "channel": 0}, {"type": "note_off", "time": 1042, "note": 61, "velocity": 92, "channel": 0}, {"type": "note_on", "time": 21, "note": 64, "velocity": 92, "channel": 0}, {"type": "note_off", "time": 219, "note": 64, "velocity": 92, "channel": 0}, {"type": "note_on", "time": 10, "note": 67, "velocity": 88, "channel": 0}, {"type": "note_off", "time": 87, "note": 67, "velocity": 88, "channel": 0}, {"type": "note_on", "time": 21, "note": 70, "velocity": 85, "channel": 0}, {"type": "note_off", "time": 1876, "note": 70, "velocity": 85, "channel": 0}, {"type": "note_on", "time": 39, "note": 69, "velocity": 95, "channel": 0}, {"type": "note_off", "time": 319, "note": 69, "velocity": 95, "channel": 0}, {"type": "note_on", "time": 7, "note": 64, "velocity": 96, "channel": 0}, {"type": "note_off", "time": 257, "note": 64, "velocity": 96, "channel": 0}, {"type": "note_on", "time": 23, "note": 67, "velocity": 109, "channel": 0}, {"type": "note_off", "time": 444, "note": 67, "velocity": 109, "channel": 0}, {"type": "note_on", "time": 15, "note": 66, "velocity": 103, "channel": 0}, {"type": "note_off", "time": 273, "note": 66, "velocity": 103, "channel": 0}, {"type": "note_on", "time": 15, "note": 65, "velocity": 97, "channel": 0}, {"type": "note_off", "time": 156, "note": 65, "velocity": 97, "channel": 0}, {"type": "note_on", "time": 15, "note": 64, "velocity": 102, "channel": 0}, {"type": "note_off", "time": 390, "note": 64, "velocity": 102, "channel": 0}, {"type": "note_on", "time": 0, "note": 62, "velocity": 98, "channel": 0}, {"type": "note_off", "time": 288, "note": 62, "velocity": 98, "channel": 0}, {"type": "note_on", "time": 31, "note": 61, "velocity": 89, "channel": 0}, {"type": "note_off", "time": 241, "note": 61, "velocity": 89, "channel": 0}, {"type": "note_on", "time": 0, "note": 64, "velocity": 99, "channel": 0}, {"type": "note_off", "time": 343, "note": 64, "velocity": 99, "channel": 0}, {"type": "note_on", "time": 39, "note": 63, "velocity": 100, "channel": 0}, {"type": "note_off", "time": 265, "note": 63, "velocity": 100, "channel": 0}, {"type": "note_on", "time": 31, "note": 62, "velocity": 86, "channel": 0}, {"type": "note_off", "time": 1053, "note": 62, "velocity": 86, "channel": 0}, {"type": "note_on", "time": 2681, "note": 74, "velocity": 115, "channel": 0}, {"type": "note_off", "time": 329, "note": 74, "velocity": 115, "channel": 0}, {"type": "note_on", "time": 10, "note": 72, "velocity": 102, "channel": 0}, {"type": "note_off", "time": 208, "note": 72, "velocity": 102, "channel": 0}, {"type": "note_on", "time": 21, "note": 70, "velocity": 104, "channel": 0}, {"type": "note_off", "time": 312, "note": 70, "velocity": 104, "channel": 0}, {"type": "note_on", "time": 38, "note": 69, "velocity": 102, "channel": 0}, {"type": "note_off", "time": 329, "note": 69, "velocity": 102, "channel": 0}, {"type": "note_on", "time": 21, "note": 68, "velocity": 100, "channel": 0}, {"type": "note_off", "time": 224, "note": 68, "velocity": 100, "channel": 0}, {"type": "note_on", "time": 10, "note": 65, "velocity": 101, "channel": 0}, {"type": "note_off", "time": 340, "note": 65, "velocity": 101, "channel": 0}, {"type": "note_on", "time": 510, "note": 67, "velocity": 114, "channel": 0}, {"type": "note_off", "time": 422, "note": 67, "velocity": 114, "channel": 0}, {"type": "note_on", "time": 2825, "note": 62, "velocity": 99, "channel": 0}, {"type": "note_off", "time": 394, "note": 62, "velocity": 99, "channel": 0}, {"type": "note_on", "time": 21, "note": 59, "velocity": 97, "channel": 0}, {"type": "note_off", "time": 438, "note": 59, "velocity": 97, "channel": 0}, {"type": "note_on", "time": 16, "note": 60, "velocity": 82, "channel": 0}, {"type": "note_off", "time": 148, "note": 60, "velocity": 82, "channel": 0}, {"type": "note_on", "time": 10, "note": 62, "velocity": 82, "channel": 0}, {"type": "note_off", "time": 93, "note": 62, "velocity": 82, "channel": 0}, {"type": "note_on", "time": 38, "note": 64, "velocity": 96, "channel": 0}, {"type": "note_off", "time": 499, "note": 64, "velocity": 96, "channel": 0}, {"type": "note_on", "time": 21, "note": 67, "velocity": 101, "channel": 0}, {"type": "note_off", "time": 285, "note": 67, "velocity": 101, "channel": 0}, {"type": "note_on", "time": 49, "note": 68, "velocity": 101, "channel": 0}, {"type": "note_off", "time": 532, "note": 68, "velocity": 101, "channel": 0}, {"type": "note_on", "time": 16, "note": 64, "velocity": 96, "channel": 0}, {"type": "note_off", "time": 394, "note": 64, "velocity": 96, "channel": 0}, {"type": "note_on", "time": 10, "note": 60, "velocity": 87, "channel": 0}, {"type": "note_off", "time": 181, "note": 60, "velocity": 87, "channel": 0}, {"type": "note_on", "time": 42, "note": 62, "velocity": 100, "channel": 0}, {"type": "note_off", "time": 1927, "note": 62, "velocity": 100, "channel": 0}, {"type": "note_on", "time": 7, "note": 65, "velocity": 100, "channel": 0}, {"type": "note_off", "time": 335, "note": 65, "velocity": 100, "channel": 0}, {"type": "note_on", "time": 23, "note": 66, "velocity": 104, "channel": 0}, {"type": "note_off", "time": 421, "note": 66, "velocity": 104, "channel": 0}, {"type": "note_on", "time": 7, "note": 63, "velocity": 85, "channel": 0}, {"type": "note_off", "time": 210, "note": 63, "velocity": 85, "channel": 0}, {"type": "note_on", "time": 31, "note": 58, "velocity": 87, "channel": 0}, {"type": "note_off", "time": 218, "note": 58, "velocity": 87, "channel": 0}, {"type": "note_on", "time": 62, "note": 59, "velocity": 97, "channel": 0}, {"type": "note_off", "time": 304, "note": 59, "velocity": 97, "channel": 0}, {"type": "note_on", "time": 54, "note": 61, "velocity": 99, "channel": 0}, {"type": "note_off", "time": 327, "note": 61, "velocity": 99, "channel": 0}, {"type": "note_on", "time": 0, "note": 56, "velocity": 89, "channel": 0}, {"type": "note_off", "time": 249, "note": 56, "velocity": 89, "channel": 0}, {"type": "note_on", "time": 1903, "note": 56, "velocity": 85, "channel": 0}, {"type": "note_off", "time": 265, "note": 56, "velocity": 85, "channel": 0}, {"type": "note_on", "time": 31, "note": 57, "velocity": 93, "channel": 0}, {"type": "note_off", "time": 475, "note": 57, "velocity": 93, "channel": 0}, {"type": "note_on", "time": 46, "note": 59, "velocity": 87, "channel": 0}, {"type": "note_off", "time": 265, "note": 59, "velocity": 87, "channel": 0}, {"type": "note_on", "time": 15, "note": 61, "velocity": 81, "channel": 0}, {"type": "note_off", "time": 163, "note": 61, "velocity": 81, "channel": 0}, {"type": "note_on", "time": 31, "note": 64, "velocity": 88, "channel": 0}, {"type": "note_off", "time": 226, "note": 64, "velocity": 88, "channel": 0}, {"type": "note_on", "time": 31, "note": 67, "velocity": 100, "channel": 0}, {"type": "note_off", "time": 1607, "note": 67, "velocity": 100, "channel": 0}, {"type": "note_on", "time": 54, "note": 64, "velocity": 100, "channel": 0}, {"type": "note_off", "time": 257, "note": 64, "velocity": 100, "channel": 0}, {"type": "note_on", "time": 23, "note": 65, "velocity": 102, "channel": 0}, {"type": "note_off", "time": 351, "note": 65, "velocity": 102, "channel": 0}, {"type": "note_on", "time": 62, "note": 60, "velocity": 87, "channel": 0}, {"type": "note_off", "time": 195, "note": 60, "velocity": 87, "channel": 0}, {"type": "note_on", "time": 23, "note": 57, "velocity": 92, "channel": 0}, {"type": "note_off", "time": 335, "note": 57, "velocity": 92, "channel": 0}, {"type": "note_on", "time": 7, "note": 53, "velocity": 81, "channel": 0}, {"type": "note_off", "time": 195, "note": 53, "velocity": 81, "channel": 0}, {"type": "note_on", "time": 31, "note": 64, "velocity": 106, "channel": 0}, {"type": "note_off", "time": 429, "note": 64, "velocity": 106, "channel": 0}, {"type": "note_on", "time": 23, "note": 62, "velocity": 93, "channel": 0}, {"type": "note_off", "time": 889, "note": 62, "velocity": 93, "channel": 0}, {"type": "note_on", "time": 23, "note": 60, "velocity": 87, "channel": 0}, {"type": "note_off", "time": 335, "note": 60, "velocity": 87, "channel": 0}, {"type": "note_on", "time": 7, "note": 57, "velocity": 87, "channel": 0}, {"type": "note_off", "time": 187, "note": 57, "velocity": 87, "channel": 0}, {"type": "note_on", "time": 23, "note": 59, "velocity": 92, "channel": 0}, {"type": "note_off", "time": 273, "note": 59, "velocity": 92, "channel": 0}, {"type": "note_on", "time": 39, "note": 68, "velocity": 105, "channel": 0}, {"type": "note_off", "time": 335, "note": 68, "velocity": 105, "channel": 0}, {"type": "note_on", "time": 15, "note": 65, "velocity": 95, "channel": 0}, {"type": "note_off", "time": 234, "note": 65, "velocity": 95, "channel": 0}, {"type": "note_on", "time": 31, "note": 66, "velocity": 93, "channel": 0}, {"type": "note_off", "time": 249, "note": 66, "velocity": 93, "channel": 0}, {"type": "note_on", "time": 23, "note": 67, "velocity": 112, "channel": 0}, {"type": "note_off", "time": 569, "note": 67, "velocity": 112, "channel": 0}, {"type": "note_on", "time": 2356, "note": 62, "velocity": 100, "channel": 0}, {"type": "note_off", "time": 163, "note": 62, "velocity": 100, "channel": 0}, {"type": "note_on", "time": 23, "note": 64, "velocity": 101, "channel": 0}, {"type": "note_off", "time": 475, "note": 64, "velocity": 101, "channel": 0}, {"type": "note_on", "time": 171, "note": 67, "velocity": 115, "channel": 0}, {"type": "note_off", "time": 647, "note": 67, "velocity": 115, "channel": 0}, {"type": "note_on", "time": 62, "note": 69, "velocity": 114, "channel": 0}, {"type": "note_off", "time": 538, "note": 69, "velocity": 114, "channel": 0}, {"type": "note_on", "time": 39, "note": 70, "velocity": 101, "channel": 0}, {"type": "note_off", "time": 444, "note": 70, "velocity": 101, "channel": 0}, {"type": "note_on", "time": 70, "note": 72, "velocity": 104, "channel": 0}, {"type": "note_off", "time": 312, "note": 72, "velocity": 104, "channel": 0}, {"type": "note_on", "time": 39, "note": 74, "velocity": 100, "channel": 0}, {"type": "note_off", "time": 460, "note": 74, "velocity": 100, "channel": 0}, {"type": "note_on", "time": 0, "note": 76, "velocity": 98, "channel": 0}, {"type": "note_off", "time": 460, "note": 76, "velocity": 98, "channel": 0}, {"type": "note_on", "time": 85, "note": 77, "velocity": 98, "channel": 0}, {"type": "note_off", "time": 374, "note": 77, "velocity": 98, "channel": 0}, {"type": "note_on", "time": 62, "note": 79, "velocity": 91, "channel": 0}, {"type": "note_on", "time": 390, "note": 76, "velocity": 97, "channel": 0}, {"type": "note_off", "time": 0, "note": 79, "velocity": 91, "channel": 0}, {"type": "note_off", "time": 444, "note": 76, "velocity": 97, "channel": 0}, {"type": "note_on", "time": 15, "note": 74, "velocity": 97, "channel": 0}, {"type": "note_off", "time": 397, "note": 74, "velocity": 97, "channel": 0}, {"type": "note_on", "time": 31, "note": 73, "velocity": 95, "channel": 0}, {"type": "note_off", "time": 273, "note": 73, "velocity": 95, "channel": 0}, {"type": "note_on", "time": 15, "note": 76, "velocity": 98, "channel": 0}, {"type": "note_off", "time": 374, "note": 76, "velocity": 98, "channel": 0}, {"type": "note_on", "time": 54, "note": 70, "velocity": 96, "channel": 0}, {"type": "note_off", "time": 483, "note": 70, "velocity": 96, "channel": 0}, {"type": "note_on", "time": 15, "note": 68, "velocity": 102, "channel": 0}, {"type": "note_off", "time": 280, "note": 68, "velocity": 102, "channel": 0}, {"type": "note_on", "time": 46, "note": 69, "velocity": 91, "channel": 0}, {"type": "note_off", "time": 1880, "note": 69, "velocity": 91, "channel": 0}, {"type": "note_on", "time": 1373, "note": 70, "velocity": 97, "channel": 0}, {"type": "note_off", "time": 171, "note": 70, "velocity": 97, "channel": 0}, {"type": "note_on", "time": 23, "note": 72, "velocity": 99, "channel": 0}, {"type": "note_off", "time": 234, "note": 72, "velocity": 99, "channel": 0}, {"type": "note_on", "time": 7, "note": 71, "velocity": 95, "channel": 0}, {"type": "note_off", "time": 124, "note": 71, "velocity": 95, "channel": 0}, {"type": "note_on", "time": 15, "note": 69, "velocity": 103, "channel": 0}, {"type": "note_off", "time": 444, "note": 69, "velocity": 103, "channel": 0}, {"type": "note_on", "time": 101, "note": 68, "velocity": 9, "channel": 0}, {"type": "note_off", "time": 655, "note": 68, "velocity": 9, "channel": 0}, {"type": "note_on", "time": 93, "note": 69, "velocity": 102, "channel": 0}, {"type": "note_off", "time": 592, "note": 69, "velocity": 102, "channel": 0}, {"type": "note_on", "time": 241, "note": 72, "velocity": 116, "channel": 0}, {"type": "note_off", "time": 475, "note": 72, "velocity": 116, "channel": 0}, {"type": "note_on", "time": 46, "note": 69, "velocity": 111, "channel": 0}, {"type": "note_off", "time": 444, "note": 69, "velocity": 111, "channel": 0}, {"type": "note_on", "time": 31, "note": 65, "velocity": 95, "channel": 0}, {"type": "note_off", "time": 296, "note": 65, "velocity": 95, "channel": 0}, {"type": "note_on", "time": 46, "note": 62, "velocity": 97, "channel": 0}, {"type": "note_off", "time": 421, "note": 62, "velocity": 97, "channel": 0}, {"type": "note_on", "time": 0, "note": 63, "velocity": 100, "channel": 0}, {"type": "note_off", "time": 366, "note": 63, "velocity": 100, "channel": 0}, {"type": "note_on", "time": 7, "note": 71, "velocity": 104, "channel": 0}, {"type": "note_off", "time": 1739, "note": 71, "velocity": 104, "channel": 0}, {"type": "note_on", "time": 171, "note": 69, "velocity": 105, "channel": 0}, {"type": "note_off", "time": 366, "note": 69, "velocity": 105, "channel": 0}, {"type": "note_on", "time": 23, "note": 68, "velocity": 119, "channel": 0}, {"type": "note_off", "time": 288, "note": 68, "velocity": 119, "channel": 0}, {"type": "note_on", "time": 31, "note": 67, "velocity": 117, "channel": 0}, {"type": "note_off", "time": 429, "note": 67, "velocity": 117, "channel": 0}, {"type": "note_on", "time": 514, "note": 60, "velocity": 89, "channel": 0}, {"type": "note_off", "time": 514, "note": 60, "velocity": 89, "channel": 0}, {"type": "note_on", "time": 327, "note": 60, "velocity": 102, "channel": 0}, {"type": "note_off", "time": 553, "note": 60, "velocity": 102, "channel": 0}, {"type": "note_on", "time": 263, "note": 63, "velocity": 98, "channel": 0}, {"type": "note_off", "time": 186, "note": 63, "velocity": 98, "channel": 0}, {"type": "note_on", "time": 57, "note": 65, "velocity": 103, "channel": 0}, {"type": "note_off", "time": 405, "note": 65, "velocity": 103, "channel": 0}, {"type": "note_on", "time": 257, "note": 64, "velocity": 99, "channel": 0}, {"type": "note_off", "time": 577, "note": 64, "velocity": 99, "channel": 0}, {"type": "note_on", "time": 109, "note": 60, "velocity": 90, "channel": 0}, {"type": "note_off", "time": 522, "note": 60, "velocity": 90, "channel": 0}, {"type": "note_on", "time": 1087, "note": 62, "velocity": 92, "channel": 0}, {"type": "note_off", "time": 186, "note": 62, "velocity": 92, "channel": 0}, {"type": "note_on", "time": 43, "note": 63, "velocity": 96, "channel": 0}, {"type": "note_off", "time": 460, "note": 63, "velocity": 96, "channel": 0}, {"type": "note_on", "time": 219, "note": 60, "velocity": 97, "channel": 0}, {"type": "note_off", "time": 548, "note": 60, "velocity": 97, "channel": 0}, {"type": "note_on", "time": 416, "note": 62, "velocity": 101, "channel": 0}, {"type": "note_off", "time": 493, "note": 62, "velocity": 101, "channel": 0}, {"type": "note_on", "time": 65, "note": 60, "velocity": 99, "channel": 0}, {"type": "note_off", "time": 460, "note": 60, "velocity": 99, "channel": 0}, {"type": "note_on", "time": 32, "note": 58, "velocity": 99, "channel": 0}, {"type": "note_off", "time": 351, "note": 58, "velocity": 99, "channel": 0}, {"type": "note_on", "time": 0, "note": 59, "velocity": 100, "channel": 0}, {"type": "note_off", "time": 109, "note": 59, "velocity": 100, "channel": 0}, {"type": "note_on", "time": 43, "note": 58, "velocity": 100, "channel": 0}, {"type": "note_off", "time": 230, "note": 58, "velocity": 100, "channel": 0}, {"type": "note_on", "time": 32, "note": 56, "velocity": 97, "channel": 0}, {"type": "note_off", "time": 482, "note": 56, "velocity": 97, "channel": 0}, {"type": "note_on", "time": 76, "note": 55, "velocity": 109, "channel": 0}, {"type": "note_off", "time": 2413, "note": 55, "velocity": 109, "channel": 0}, {"type": "end_of_track", "time": 0}]]}