{"ticks_per_beat": 192, "tracks": [[{"type": "track_name", "name": "Melody", "time": 0}, {"type": "set_tempo", "tempo": 410958, "time": 0}, {"type": "key_signature", "key": "Eb", "time": 0}, {"type": "time_signature", "numerator": 4, "denominator": 4, "clocks_per_click": 24, "notated_32nd_notes_per_beat": 8, "time": 0}, {"type": "note_on", "time": 2874, "note": 60, "velocity": 103, "channel": 0}, {"type": "note_off", "time": 185, "note": 60, "velocity": 103, "channel": 0}, {"type": "note_on", "time": 6, "note": 63, "velocity": 93, "channel": 0}, {"type": "note_off", "time": 39, "note": 63, "velocity": 93, "channel": 0}, {"type": "note_on", "time": 2, "note": 67, "velocity": 100, "channel": 0}, {"type": "note_off", "time": 40, "note": 67, "velocity": 100, "channel": 0}, {"type": "note_on", "time": 4, "note": 70, "velocity": 116, "channel": 0}, {"type": "note_off", "time": 126, "note": 70, "velocity": 116, "channel": 0}, {"type": "note_on", "time": 3, "note": 67, "velocity": 94, "channel": 0}, {"type": "note_off", "time": 62, "note": 67, "velocity": 94, "channel": 0}, {"type": "note_on", "time": 7, "note": 68, "velocity": 109, "channel": 0}, {"type": "note_off", "time": 130, "note": 68, "velocity": 109, "channel": 0}, {"type": "note_on", "time": 10, "note": 59, "velocity": 83, "channel": 0}, {"type": "note_off", "time": 151, "note": 59, "velocity": 83, "channel": 0}, {"type": "note_on", "time": 18, "note": 67, "velocity": 104, "channel": 0}, {"type": "note_off", "time": 173, "note": 67, "velocity": 104, "channel": 0}, {"type": "note_on", "time": 2, "note": 65, "velocity": 109, "channel": 0}, {"type": "note_off", "time": 86, "note": 65, "velocity": 109, "channel": 0}, {"type": "note_on", "time": 11, "note": 61, "velocity": 97, "channel": 0}, {"type": "note_off", "time": 59, "note": 61, "velocity": 97, "channel": 0}, {"type": "note_on", "time": 17, "note": 62, "velocity": 89, "channel": 0}, {"type": "note_off", "time": 225, "note": 62, "velocity": 89, "channel": 0}, {"type": "note_on", "time": 11, "note": 65, "velocity": 111, "channel": 0}, {"type": "note_off", "time": 139, "note": 65, "velocity": 111, "channel": 0}, {"type": "note_on", "time": 241, "note": 63, "velocity": 108, "channel": 0}, {"type": "note_off", "time": 70, "note": 63, "velocity": 108, "channel": 0}, {"type": "note_on", "time": 69, "note": 60, "velocity": 89, "channel": 0}, {"type": "note_off", "time": 36, "note": 60, "velocity": 89, "channel": 0}, {"type": "note_on", "time": 0, "note": 67, "velocity": 104, "channel": 0}, {"type": "note_off", "time": 56, "note": 67, "velocity": 104, "channel": 0}, {"type": "note_on", "time": 16, "note": 70, "velocity": 115, "channel": 0}, {"type": "note_off", "time": 112, "note": 70, "velocity": 115, "channel": 0}, {"type": "note_on", "time": 12, "note": 67, "velocity": 95, "channel": 0}, {"type": "note_off", "time": 62, "note": 67, "velocity": 95, "channel": 0}, {"type": "note_on", "time": 5, "note": 68, "velocity": 106, "channel": 0}, {"type": "note_off", "time": 84, "note": 68, "velocity": 106, "channel": 0}, {"type": "note_on", "time": 21, "note": 73, "velocity": 120, "channel": 0}, {"type": "note_off", "time": 76, "note": 73, "velocity": 120, "channel": 0}, {"type": "note_on", "time": 5, "note": 71, "velocity": 101, "channel": 0}, {"type": "note_off", "time": 28, "note": 71, "velocity": 101, "channel": 0}, {"type": "note_on", "time": 3, "note": 73, "velocity": 93, "channel": 0}, {"type": "note_off", "time": 38, "note": 73, "velocity": 93, "channel": 0}, {"type": "note_on", "time": 0, "note": 71, "velocity": 101, "channel": 0}, {"type": "note_off", "time": 36, "note": 71, "velocity": 101, "channel": 0}, {"type": "note_on", "time": 4, "note": 69, "velocity": 95, "channel": 0}, {"type": "note_off", "time": 68, "note": 69, "velocity": 95, "channel": 0}, {"type": "note_on", "time": 28, "note": 70, "velocity": 104, "channel": 0}, {"type": "note_off", "time": 96, "note": 70, "velocity": 104, "channel": 0}, {"type": "note_on", "time": 7, "note": 67, "velocity": 87, "channel": 0}, {"type": "note_off", "time": 256, "note": 67, "velocity": 87, "channel": 0}, {"type": "note_on", "time": 532, "note": 64, "velocity": 99, "channel": 0}, {"type": "note_off", "time": 61, "note": 64, "velocity": 99, "channel": 0}, {"type": "note_on", "time": 6, "note": 65, "velocity": 107, "channel": 0}, {"type": "note_off", "time": 56, "note": 65, "velocity": 107, "channel": 0}, {"type": "note_on", "time": 3, "note": 68, "velocity": 88, "channel": 0}, {"type": "note_off", "time": 41, "note": 68, "velocity": 88, "channel": 0}, {"type": "note_on", "time": 0, "note": 72, "velocity": 106, "channel": 0}, {"type": "note_off", "time": 80, "note": 72, "velocity": 106, "channel": 0}, {"type": "note_on", "time": 7, "note": 75, "velocity": 127, "channel": 0}, {"type": "note_off", "time": 103, "note": 75, "velocity": 127, "channel": 0}, {"type": "note_on", "time": 1, "note": 74, "velocity": 119, "channel": 0}, {"type": "note_off", "time": 98, "note": 74, "velocity": 119, "channel": 0}, {"type": "note_on", "time": 3, "note": 72, "velocity": 119, "channel": 0}, {"type": "note_off", "time": 88, "note": 72, "velocity": 119, "channel": 0}, {"type": "note_on", "time": 5, "note": 71, "velocity": 109, "channel": 0}, {"type": "note_off", "time": 77, "note": 71, "velocity": 109, "channel": 0}, {"type": "note_on", "time": 20, "note": 72, "velocity": 98, "channel": 0}, {"type": "note_off", "time": 47, "note": 72, "velocity": 98, "channel": 0}, {"type": "note_on", "time": 3, "note": 70, "velocity": 103, "channel": 0}, {"type": "note_off", "time": 33, "note": 70, "velocity": 103, "channel": 0}, {"type": "note_on", "time": 2, "note": 68, "velocity": 110, "channel": 0}, {"type": "note_off", "time": 73, "note": 68, "velocity": 110, "channel": 0}, {"type": "note_on", "time": 3, "note": 67, "velocity": 110, "channel": 0}, {"type": "note_off", "time": 103, "note": 67, "velocity": 110, "channel": 0}, {"type": "note_on", "time": 2, "note": 65, "velocity": 108, "channel": 0}, {"type": "note_off", "time": 90, "note": 65, "velocity": 108, "channel": 0}, {"type": "note_on", "time": 4, "note": 64, "velocity": 103, "channel": 0}, {"type": "note_off", "time": 71, "note": 64, "velocity": 103, "channel": 0}, {"type": "note_on", "time": 32, "note": 55, "velocity": 90, "channel": 0}, {"type": "note_off", "time": 68, "note": 55, "velocity": 90, "channel": 0}, {"type": "note_on", "time": 4, "note": 58, "velocity": 89, "channel": 0}, {"type": "note_off", "time": 97, "note": 58, "velocity": 89, "channel": 0}, {"type": "note_on", "time": 14, "note": 61, "velocity": 103, "channel": 0}, {"type": "note_off", "time": 96, "note": 61, "velocity": 103, "channel": 0}, {"type": "note_on", "time": 0, "note": 60, "velocity": 96, "channel": 0}, {"type": "note_off", "time": 80, "note": 60, "velocity": 96, "channel": 0}, {"type": "note_on", "time": 35, "note": 58, "velocity": 89, "channel": 0}, {"type": "note_off", "time": 77, "note": 58, "velocity": 89, "channel": 0}, {"type": "note_on", "time": 5, "note": 60, "velocity": 87, "channel": 0}, {"type": "note_off", "time": 34, "note": 60, "velocity": 87, "channel": 0}, {"type": "note_on", "time": 3, "note": 63, "velocity": 95, "channel": 0}, {"type": "note_off", "time": 34, "note": 63, "velocity": 95, "channel": 0}, {"type": "note_on", "time": 4, "note": 67, "velocity": 108, "channel": 0}, {"type": "note_off", "time": 79, "note": 67, "velocity": 108, "channel": 0}, {"type": "note_on", "time": 4, "note": 65, "velocity": 109, "channel": 0}, {"type": "note_off", "time": 100, "note": 65, "velocity": 109, "channel": 0}, {"type": "note_on", "time": 33, "note": 58, "velocity": 85, "channel": 0}, {"type": "note_off", "time": 39, "note": 58, "velocity": 85, "channel": 0}, {"type": "note_on", "time": 14, "note": 62, "velocity": 98, "channel": 0}, {"type": "note_off", "time": 117, "note": 62, "velocity": 98, "channel": 0}, {"type": "note_on", "time": 28, "note": 63, "velocity": 87, "channel": 0}, {"type": "note_off", "time": 210, "note": 63, "velocity": 87, "channel": 0}, {"type": "note_on", "time": 171, "note": 70, "velocity": 104, "channel": 0}, {"type": "note_off", "time": 57, "note": 70, "velocity": 104, "channel": 0}, {"type": "note_on", "time": 12, "note": 72, "velocity": 123, "channel": 0}, {"type": "note_off", "time": 154, "note": 72, "velocity": 123, "channel": 0}, {"type": "note_on", "time": 15, "note": 75, "velocity": 122, "channel": 0}, {"type": "note_off", "time": 122, "note": 75, "velocity": 122, "channel": 0}, {"type": "note_on", "time": 0, "note": 72, "velocity": 116, "channel": 0}, {"type": "note_off", "time": 71, "note": 72, "velocity": 116, "channel": 0}, {"type": "note_on", "time": 7, "note": 70, "velocity": 112, "channel": 0}, {"type": "note_off", "time": 118, "note": 70, "velocity": 112, "channel": 0}, {"type": "note_on", "time": 3, "note": 68, "velocity": 91, "channel": 0}, {"type": "note_off", "time": 301, "note": 68, "velocity": 91, "channel": 0}, {"type": "note_on", "time": 504, "note": 63, "velocity": 107, "channel": 0}, {"type": "note_on", "time": 46, "note": 66, "velocity": 106, "channel": 0}, {"type": "note_off", "time": 0, "note": 63, "velocity": 107, "channel": 0}, {"type": "note_off", "time": 43, "note": 66, "velocity": 106, "channel": 0}, {"type": "note_on", "time": 7, "note": 67, "velocity": 106, "channel": 0}, {"type": "note_off", "time": 61, "note": 67, "velocity": 106, "channel": 0}, {"type": "note_on", "time": 3, "note": 68, "velocity": 102, "channel": 0}, {"type": "note_off", "time": 27, "note": 68, "velocity": 102, "channel": 0}, {"type": "note_on", "time": 2, "note": 69, "velocity": 98, "channel": 0}, {"type": "note_off", "time": 30, "note": 69, "velocity": 98, "channel": 0}, {"type": "note_on", "time": 2, "note": 70, "velocity": 104, "channel": 0}, {"type": "note_off", "time": 56, "note": 70, "velocity": 104, "channel": 0}, {"type": "note_on", "time": 0, "note": 68, "velocity": 111, "channel": 0}, {"type": "note_off", "time": 30, "note": 68, "velocity": 111, "channel": 0}, {"type": "note_on", "time": 3, "note": 67, "velocity": 109, "channel": 0}, {"type": "note_off", "time": 48, "note": 67, "velocity": 109, "channel": 0}, {"type": "note_on", "time": 1, "note": 65, "velocity": 109, "channel": 0}, {"type": "note_off", "time": 41, "note": 65, "velocity": 109, "channel": 0}, {"type": "note_on", "time": 3, "note": 64, "velocity": 103, "channel": 0}, {"type": "note_off", "time": 36, "note": 64, "velocity": 103, "channel": 0}, {"type": "note_on", "time": 20, "note": 55, "velocity": 93, "channel": 0}, {"type": "note_off", "time": 30, "note": 55, "velocity": 93, "channel": 0}, {"type": "note_on", "time": 2, "note": 58, "velocity": 93, "channel": 0}, {"type": "note_off", "time": 28, "note": 58, "velocity": 93, "channel": 0}, {"type": "note_on", "time": 7, "note": 61, "velocity": 106, "channel": 0}, {"type": "note_off", "time": 61, "note": 61, "velocity": 106, "channel": 0}, {"type": "note_on", "time": 8, "note": 60, "velocity": 99, "channel": 0}, {"type": "note_off", "time": 35, "note": 60, "velocity": 99, "channel": 0}, {"type": "note_on", "time": 4, "note": 59, "velocity": 92, "channel": 0}, {"type": "note_off", "time": 59, "note": 59, "velocity": 92, "channel": 0}, {"type": "note_on", "time": 1, "note": 58, "velocity": 96, "channel": 0}, {"type": "note_off", "time": 44, "note": 58, "velocity": 96, "channel": 0}, {"type": "note_on", "time": 3, "note": 57, "velocity": 96, "channel": 0}, {"type": "note_off", "time": 43, "note": 57, "velocity": 96, "channel": 0}, {"type": "note_on", "time": 10, "note": 56, "velocity": 90, "channel": 0}, {"type": "note_off", "time": 29, "note": 56, "velocity": 90, "channel": 0}, {"type": "note_on", "time": 40, "note": 67, "velocity": 106, "channel": 0}, {"type": "note_off", "time": 78, "note": 67, "velocity": 106, "channel": 0}, {"type": "note_on", "time": 4, "note": 66, "velocity": 109, "channel": 0}, {"type": "note_off", "time": 22, "note": 66, "velocity": 109, "channel": 0}, {"type": "note_on", "time": 3, "note": 65, "velocity": 110, "channel": 0}, {"type": "note_off", "time": 53, "note": 65, "velocity": 110, "channel": 0}, {"type": "note_on", "time": 117, "note": 63, "velocity": 103, "channel": 0}, {"type": "note_off", "time": 67, "note": 63, "velocity": 103, "channel": 0}, {"type": "note_on", "time": 2, "note": 61, "velocity": 92, "channel": 0}, {"type": "note_off", "time": 41, "note": 61, "velocity": 92, "channel": 0}, {"type": "note_on", "time": 4, "note": 62, "velocity": 96, "channel": 0}, {"type": "note_off", "time": 47, "note": 62, "velocity": 96, "channel": 0}, {"type": "note_on", "time": 8, "note": 71, "velocity": 104, "channel": 0}, {"type": "note_off", "time": 47, "note": 71, "velocity": 104, "channel": 0}, {"type": "note_on", "time": 4, "note": 68, "velocity": 98, "channel": 0}, {"type": "note_off", "time": 60, "note": 68, "velocity": 98, "channel": 0}, {"type": "note_on", "time": 0, "note": 69, "velocity": 94, "channel": 0}, {"type": "note_off", "time": 31, "note": 69, "velocity": 94, "channel": 0}, {"type": "note_on", "time": 2, "note": 70, "velocity": 108, "channel": 0}, {"type": "note_off", "time": 71, "note": 70, "velocity": 108, "channel": 0}, {"type": "note_on", "time": 139, "note": 72, "velocity": 99, "channel": 0}, {"type": "note_off", "time": 33, "note": 72, "velocity": 99, "channel": 0}, {"type": "note_on", "time": 4, "note": 71, "velocity": 100, "channel": 0}, {"type": "note_off", "time": 22, "note": 71, "velocity": 100, "channel": 0}, {"type": "note_on", "time": 5, "note": 70, "velocity": 112, "channel": 0}, {"type": "note_off", "time": 56, "note": 70, "velocity": 112, "channel": 0}, {"type": "note_on", "time": 5, "note": 68, "velocity": 109, "channel": 0}, {"type": "note_off", "time": 49, "note": 68, "velocity": 109, "channel": 0}, {"type": "note_on", "time": 3, "note": 67, "velocity": 108, "channel": 0}, {"type": "note_on", "time": 47, "note": 65, "velocity": 108, "channel": 0}, {"type": "note_off", "time": 0, "note": 67, "velocity": 108, "channel": 0}, {"type": "note_off", "time": 42, "note": 65, "velocity": 108, "channel": 0}, {"type": "note_on", "time": 10, "note": 64, "velocity": 95, "channel": 0}, {"type": "note_off", "time": 53, "note": 64, "velocity": 95, "channel": 0}, {"type": "note_on", "time": 28, "note": 58, "velocity": 91, "channel": 0}, {"type": "note_off", "time": 39, "note": 58, "velocity": 91, "channel": 0}, {"type": "note_on", "time": 5, "note": 61, "velocity": 104, "channel": 0}, {"type": "note_off", "time": 51, "note": 61, "velocity": 104, "channel": 0}, {"type": "note_on", "time": 2, "note": 60, "velocity": 101, "channel": 0}, {"type": "note_off", "time": 43, "note": 60, "velocity": 101, "channel": 0}, {"type": "note_on", "time": 5, "note": 58, "velocity": 86, "channel": 0}, {"type": "note_off", "time": 35, "note": 58, "velocity": 86, "channel": 0}, {"type": "note_on", "time": 9, "note": 60, "velocity": 87, "channel": 0}, {"type": "note_off", "time": 24, "note": 60, "velocity": 87, "channel": 0}, {"type": "note_on", "time": 8, "note": 63, "velocity": 73, "channel": 0}, {"type": "note_off", "time": 21, "note": 63, "velocity": 73, "channel": 0}, {"type": "note_on", "time": 5, "note": 67, "velocity": 106, "channel": 0}, {"type": "note_off", "time": 49, "note": 67, "velocity": 106, "channel": 0}, {"type": "note_on", "time": 0, "note": 65, "velocity": 109, "channel": 0}, {"type": "note_off", "time": 40, "note": 65, "velocity": 109, "channel": 0}, {"type": "note_on", "time": 557, "note": 69, "velocity": 103, "channel": 0}, {"type": "note_off", "time": 75, "note": 69, "velocity": 103, "channel": 0}, {"type": "note_on", "time": 6, "note": 72, "velocity": 96, "channel": 0}, {"type": "note_off", "time": 65, "note": 72, "velocity": 96, "channel": 0}, {"type": "note_on", "time": 1, "note": 73, "velocity": 119, "channel": 0}, {"type": "note_off", "time": 51, "note": 73, "velocity": 119, "channel": 0}, {"type": "note_on", "time": 0, "note": 72, "velocity": 94, "channel": 0}, {"type": "note_off", "time": 43, "note": 72, "velocity": 94, "channel": 0}, {"type": "note_on", "time": 1, "note": 73, "velocity": 115, "channel": 0}, {"type": "note_off", "time": 41, "note": 73, "velocity": 115, "channel": 0}, {"type": "note_on", "time": 3, "note": 72, "velocity": 112, "channel": 0}, {"type": "note_off", "time": 50, "note": 72, "velocity": 112, "channel": 0}, {"type": "note_on", "time": 10, "note": 70, "velocity": 109, "channel": 0}, {"type": "note_off", "time": 64, "note": 70, "velocity": 109, "channel": 0}, {"type": "note_on", "time": 1, "note": 68, "velocity": 112, "channel": 0}, {"type": "note_off", "time": 36, "note": 68, "velocity": 112, "channel": 0}, {"type": "note_on", "time": 4, "note": 67, "velocity": 107, "channel": 0}, {"type": "note_off", "time": 33, "note": 67, "velocity": 107, "channel": 0}, {"type": "note_on", "time": 5, "note": 65, "velocity": 105, "channel": 0}, {"type": "note_off", "time": 56, "note": 65, "velocity": 105, "channel": 0}, {"type": "note_on", "time": 3, "note": 64, "velocity": 98, "channel": 0}, {"type": "note_off", "time": 42, "note": 64, "velocity": 98, "channel": 0}, {"type": "note_on", "time": 10, "note": 55, "velocity": 96, "channel": 0}, {"type": "note_off", "time": 35, "note": 55, "velocity": 96, "channel": 0}, {"type": "note_on", "time": 7, "note": 58, "velocity": 94, "channel": 0}, {"type": "note_off", "time": 25, "note": 58, "velocity": 94, "channel": 0}, {"type": "note_on", "time": 4, "note": 61, "velocity": 104, "channel": 0}, {"type": "note_off", "time": 43, "note": 61, "velocity": 104, "channel": 0}, {"type": "note_on", "time": 4, "note": 60, "velocity": 102, "channel": 0}, {"type": "note_off", "time": 56, "note": 60, "velocity": 102, "channel": 0}, {"type": "note_on", "time": 4, "note": 58, "velocity": 89, "channel": 0}, {"type": "note_off", "time": 37, "note": 58, "velocity": 89, "channel": 0}, {"type": "note_on", "time": 8, "note": 60, "velocity": 90, "channel": 0}, {"type": "note_off", "time": 43, "note": 60, "velocity": 90, "channel": 0}, {"type": "note_on", "time": 1, "note": 63, "velocity": 93, "channel": 0}, {"type": "note_off", "time": 33, "note": 63, "velocity": 93, "channel": 0}, {"type": "note_on", "time": 9, "note": 67, "velocity": 110, "channel": 0}, {"type": "note_off", "time": 66, "note": 67, "velocity": 110, "channel": 0}, {"type": "note_on", "time": 1, "note": 65, "velocity": 91, "channel": 0}, {"type": "note_off", "time": 29, "note": 65, "velocity": 91, "channel": 0}, {"type": "note_on", "time": 0, "note": 60, "velocity": 87, "channel": 0}, {"type": "note_off", "time": 28, "note": 60, "velocity": 87, "channel": 0}, {"type": "note_on", "time": 6, "note": 58, "velocity": 94, "channel": 0}, {"type": "note_off", "time": 24, "note": 58, "velocity": 94, "channel": 0}, {"type": "note_on", "time": 0, "note": 56, "velocity": 95, "channel": 0}, {"type": "note_off", "time": 23, "note": 56, "velocity": 95, "channel": 0}, {"type": "note_on", "time": 25, "note": 65, "velocity": 103, "channel": 0}, {"type": "note_off", "time": 62, "note": 65, "velocity": 103, "channel": 0}, {"type": "note_on", "time": 101, "note": 66, "velocity": 103, "channel": 0}, {"type": "note_off", "time": 72, "note": 66, "velocity": 103, "channel": 0}, {"type": "note_on", "time": 0, "note": 61, "velocity": 97, "channel": 0}, {"type": "note_off", "time": 30, "note": 61, "velocity": 97, "channel": 0}, {"type": "note_on", "time": 1, "note": 60, "velocity": 98, "channel": 0}, {"type": "note_off", "time": 18, "note": 60, "velocity": 98, "channel": 0}, {"type": "note_on", "time": 4, "note": 58, "velocity": 97, "channel": 0}, {"type": "note_off", "time": 28, "note": 58, "velocity": 97, "channel": 0}, {"type": "note_on", "time": 9, "note": 56, "velocity": 99, "channel": 0}, {"type": "note_off", "time": 58, "note": 56, "velocity": 99, "channel": 0}, {"type": "note_on", "time": 264, "note": 70, "velocity": 104, "channel": 0}, {"type": "note_off", "time": 53, "note": 70, "velocity": 104, "channel": 0}, {"type": "note_on", "time": 1, "note": 68, "velocity": 111, "channel": 0}, {"type": "note_off", "time": 42, "note": 68, "velocity": 111, "channel": 0}, {"type": "note_on", "time": 1, "note": 67, "velocity": 110, "channel": 0}, {"type": "note_off", "time": 50, "note": 67, "velocity": 110, "channel": 0}, {"type": "note_on", "time": 0, "note": 65, "velocity": 111, "channel": 0}, {"type": "note_off", "time": 52, "note": 65, "velocity": 111, "channel": 0}, {"type": "note_on", "time": 0, "note": 63, "velocity": 91, "channel": 0}, {"type": "note_off", "time": 39, "note": 63, "velocity": 91, "channel": 0}, {"type": "note_on", "time": 11, "note": 58, "velocity": 87, "channel": 0}, {"type": "note_off", "time": 27, "note": 58, "velocity": 87, "channel": 0}, {"type": "note_on", "time": 16, "note": 61, "velocity": 106, "channel": 0}, {"type": "note_off", "time": 46, "note": 61, "velocity": 106, "channel": 0}, {"type": "note_on", "time": 14, "note": 60, "velocity": 92, "channel": 0}, {"type": "note_off", "time": 36, "note": 60, "velocity": 92, "channel": 0}, {"type": "note_on", "time": 6, "note": 63, "velocity": 91, "channel": 0}, {"type": "note_off", "time": 23, "note": 63, "velocity": 91, "channel": 0}, {"type": "note_on", "time": 11, "note": 67, "velocity": 103, "channel": 0}, {"type": "note_off", "time": 29, "note": 67, "velocity": 103, "channel": 0}, {"type": "note_on", "time": 4, "note": 70, "velocity": 110, "channel": 0}, {"type": "note_off", "time": 66, "note": 70, "velocity": 110, "channel": 0}, {"type": "note_on", "time": 3, "note": 67, "velocity": 98, "channel": 0}, {"type": "note_off", "time": 35, "note": 67, "velocity": 98, "channel": 0}, {"type": "note_on", "time": 2, "note": 68, "velocity": 101, "channel": 0}, {"type": "note_off", "time": 30, "note": 68, "velocity": 101, "channel": 0}, {"type": "note_on", "time": 1, "note": 72, "velocity": 100, "channel": 0}, {"type": "note_off", "time": 23, "note": 72, "velocity": 100, "channel": 0}, {"type": "note_on", "time": 2, "note": 77, "velocity": 92, "channel": 0}, {"type": "note_off", "time": 8, "note": 77, "velocity": 92, "channel": 0}, {"type": "note_on", "time": 13, "note": 79, "velocity": 112, "channel": 0}, {"type": "note_off", "time": 45, "note": 79, "velocity": 112, "channel": 0}, {"type": "note_on", "time": 2, "note": 77, "velocity": 116, "channel": 0}, {"type": "note_off", "time": 59, "note": 77, "velocity": 116, "channel": 0}, {"type": "note_on", "time": 611, "note": 70, "velocity": 99, "channel": 0}, {"type": "note_off", "time": 47, "note": 70, "velocity": 99, "channel": 0}, {"type": "note_on", "time": 21, "note": 72, "velocity": 113, "channel": 0}, {"type": "note_off", "time": 45, "note": 72, "velocity": 113, "channel": 0}, {"type": "note_on", "time": 5, "note": 74, "velocity": 115, "channel": 0}, {"type": "note_off", "time": 100, "note": 74, "velocity": 115, "channel": 0}, {"type": "note_on", "time": 0, "note": 72, "velocity": 113, "channel": 0}, {"type": "note_off", "time": 105, "note": 72, "velocity": 113, "channel": 0}, {"type": "note_on", "time": 47, "note": 71, "velocity": 108, "channel": 0}, {"type": "note_off", "time": 79, "note": 71, "velocity": 108, "channel": 0}, {"type": "note_on", "time": 0, "note": 70, "velocity": 106, "channel": 0}, {"type": "note_off", "time": 104, "note": 70, "velocity": 106, "channel": 0}, {"type": "note_on", "time": 15, "note": 69, "velocity": 110, "channel": 0}, {"type": "note_off", "time": 74, "note": 69, "velocity": 110, "channel": 0}, {"type": "note_on", "time": 1, "note": 67, "velocity": 104, "channel": 0}, {"type": "note_off", "time": 24, "note": 67, "velocity": 104, "channel": 0}, {"type": "note_on", "time": 7, "note": 68, "velocity": 107, "channel": 0}, {"type": "note_off", "time": 62, "note": 68, "velocity": 107, "channel": 0}, {"type": "note_on", "time": 42, "note": 60, "velocity": 83, "channel": 0}, {"type": "note_off", "time": 23, "note": 60, "velocity": 83, "channel": 0}, {"type": "note_on", "time": 8, "note": 67, "velocity": 109, "channel": 0}, {"type": "note_off", "time": 123, "note": 67, "velocity": 109, "channel": 0}, {"type": "note_on", "time": 5, "note": 65, "velocity": 104, "channel": 0}, {"type": "note_off", "time": 62, "note": 65, "velocity": 104, "channel": 0}, {"type": "note_on", "time": 31, "note": 59, "velocity": 84, "channel": 0}, {"type": "note_off", "time": 101, "note": 59, "velocity": 84, "channel": 0}, {"type": "note_on", "time": 0, "note": 70, "velocity": 107, "channel": 0}, {"type": "note_off", "time": 71, "note": 70, "velocity": 107, "channel": 0}, {"type": "note_on", "time": 7, "note": 68, "velocity": 104, "channel": 0}, {"type": "note_off", "time": 98, "note": 68, "velocity": 104, "channel": 0}, {"type": "note_on", "time": 0, "note": 70, "velocity": 97, "channel": 0}, {"type": "note_off", "time": 36, "note": 70, "velocity": 97, "channel": 0}, {"type": "note_on", "time": 1, "note": 68, "velocity": 102, "channel": 0}, {"type": "note_off", "time": 29, "note": 68, "velocity": 102, "channel": 0}, {"type": "note_on", "time": 3, "note": 67, "velocity": 105, "channel": 0}, {"type": "note_off", "time": 112, "note": 67, "velocity": 105, "channel": 0}, {"type": "note_on", "time": 15, "note": 65, "velocity": 110, "channel": 0}, {"type": "note_off", "time": 98, "note": 65, "velocity": 110, "channel": 0}, {"type": "note_on", "time": 0, "note": 63, "velocity": 95, "channel": 0}, {"type": "note_off", "time": 49, "note": 63, "velocity": 95, "channel": 0}, {"type": "note_on", "time": 3, "note": 58, "velocity": 85, "channel": 0}, {"type": "note_off", "time": 47, "note": 58, "velocity": 85, "channel": 0}, {"type": "note_on", "time": 5, "note": 61, "velocity": 85, "channel": 0}, {"type": "note_off", "time": 209, "note": 61, "velocity": 85, "channel": 0}, {"type": "note_on", "time": 68, "note": 60, "velocity": 96, "channel": 0}, {"type": "note_off", "time": 51, "note": 60, "velocity": 96, "channel": 0}, {"type": "note_on", "time": 2, "note": 63, "velocity": 95, "channel": 0}, {"type": "note_off", "time": 46, "note": 63, "velocity": 95, "channel": 0}, {"type": "note_on", "time": 3, "note": 67, "velocity": 108, "channel": 0}, {"type": "note_off", "time": 41, "note": 67, "velocity": 108, "channel": 0}, {"type": "note_on", "time": 2, "note": 70, "velocity": 108, "channel": 0}, {"type": "note_off", "time": 39, "note": 70, "velocity": 108, "channel": 0}, {"type": "note_on", "time": 5, "note": 68, "velocity": 96, "channel": 0}, {"type": "note_off", "time": 228, "note": 68, "velocity": 96, "channel": 0}, {"type": "note_on", "time": 432, "note": 70, "velocity": 107, "channel": 0}, {"type": "note_off", "time": 71, "note": 70, "velocity": 107, "channel": 0}, {"type": "note_on", "time": 21, "note": 74, "velocity": 119, "channel": 0}, {"type": "note_off", "time": 110, "note": 74, "velocity": 119, "channel": 0}, {"type": "note_on", "time": 7, "note": 72, "velocity": 88, "channel": 0}, {"type": "note_off", "time": 58, "note": 72, "velocity": 88, "channel": 0}, {"type": "note_on", "time": 16, "note": 74, "velocity": 119, "channel": 0}, {"type": "note_off", "time": 99, "note": 74, "velocity": 119, "channel": 0}, {"type": "note_on", "time": 0, "note": 72, "velocity": 113, "channel": 0}, {"type": "note_off", "time": 84, "note": 72, "velocity": 113, "channel": 0}, {"type": "note_on", "time": 1, "note": 70, "velocity": 102, "channel": 0}, {"type": "note_off", "time": 32, "note": 70, "velocity": 102, "channel": 0}, {"type": "note_on", "time": 2, "note": 72, "velocity": 100, "channel": 0}, {"type": "note_off", "time": 30, "note": 72, "velocity": 100, "channel": 0}, {"type": "note_on", "time": 3, "note": 70, "velocity": 111, "channel": 0}, {"type": "note_off", "time": 37, "note": 70, "velocity": 111, "channel": 0}, {"type": "note_on", "time": 2, "note": 69, "velocity": 111, "channel": 0}, {"type": "note_off", "time": 66, "note": 69, "velocity": 111, "channel": 0}, {"type": "note_on", "time": 14, "note": 68, "velocity": 111, "channel": 0}, {"type": "note_off", "time": 99, "note": 68, "velocity": 111, "channel": 0}, {"type": "note_on", "time": 9, "note": 67, "velocity": 109, "channel": 0}, {"type": "note_off", "time": 89, "note": 67, "velocity": 109, "channel": 0}, {"type": "note_on", "time": 5, "note": 65, "velocity": 107, "channel": 0}, {"type": "note_off", "time": 75, "note": 65, "velocity": 107, "channel": 0}, {"type": "note_on", "time": 243, "note": 59, "velocity": 92, "channel": 0}, {"type": "note_off", "time": 38, "note": 59, "velocity": 92, "channel": 0}, {"type": "note_on", "time": 9, "note": 60, "velocity": 89, "channel": 0}, {"type": "note_off", "time": 112, "note": 60, "velocity": 89, "channel": 0}, {"type": "note_on", "time": 0, "note": 63, "velocity": 99, "channel": 0}, {"type": "note_off", "time": 61, "note": 63, "velocity": 99, "channel": 0}, {"type": "note_on", "time": 5, "note": 66, "velocity": 105, "channel": 0}, {"type": "note_off", "time": 40, "note": 66, "velocity": 105, "channel": 0}, {"type": "note_on", "time": 3, "note": 67, "velocity": 107, "channel": 0}, {"type": "note_off", "time": 92, "note": 67, "velocity": 107, "channel": 0}, {"type": "note_on", "time": 2, "note": 65, "velocity": 101, "channel": 0}, {"type": "note_off", "time": 251, "note": 65, "velocity": 101, "channel": 0}, {"type": "note_on", "time": 9, "note": 63, "velocity": 99, "channel": 0}, {"type": "note_off", "time": 104, "note": 63, "velocity": 99, "channel": 0}, {"type": "note_on", "time": 7, "note": 61, "velocity": 94, "channel": 0}, {"type": "note_off", "time": 80, "note": 61, "velocity": 94, "channel": 0}, {"type": "note_on", "time": 1, "note": 62, "velocity": 97, "channel": 0}, {"type": "note_off", "time": 87, "note": 62, "velocity": 97, "channel": 0}, {"type": "note_on", "time": 20, "note": 70, "velocity": 112, "channel": 0}, {"type": "note_off", "time": 77, "note": 70, "velocity": 112, "channel": 0}, {"type": "note_on", "time": 4, "note": 67, "velocity": 110, "channel": 0}, {"type": "note_off", "time": 88, "note": 67, "velocity": 110, "channel": 0}, {"type": "note_on", "time": 27, "note": 60, "velocity": 87, "channel": 0}, {"type": "note_off", "time": 61, "note": 60, "velocity": 87, "channel": 0}, {"type": "note_on", "time": 10, "note": 65, "velocity": 112, "channel": 0}, {"type": "note_off", "time": 91, "note": 65, "velocity": 112, "channel": 0}, {"type": "note_on", "time": 124, "note": 60, "velocity": 93, "channel": 0}, {"type": "note_off", "time": 109, "note": 60, "velocity": 93, "channel": 0}, {"type": "note_on", "time": 21, "note": 56, "velocity": 91, "channel": 0}, {"type": "note_off", "time": 56, "note": 56, "velocity": 91, "channel": 0}, {"type": "note_on", "time": 9, "note": 59, "velocity": 90, "channel": 0}, {"type": "note_off", "time": 110, "note": 59, "velocity": 90, "channel": 0}, {"type": "note_on", "time": 4, "note": 66, "velocity": 113, "channel": 0}, {"type": "note_off", "time": 42, "note": 66, "velocity": 113, "channel": 0}, {"type": "note_on", "time": 8, "note": 67, "velocity": 108, "channel": 0}, {"type": "note_off", "time": 197, "note": 67, "velocity": 108, "channel": 0}, {"type": "note_on", "time": 8, "note": 62, "velocity": 91, "channel": 0}, {"type": "note_off", "time": 223, "note": 62, "velocity": 91, "channel": 0}, {"type": "note_on", "time": 672, "note": 70, "velocity": 105, "channel": 0}, {"type": "note_off", "time": 61, "note": 70, "velocity": 105, "channel": 0}, {"type": "note_on", "time": 9, "note": 75, "velocity": 93, "channel": 0}, {"type": "note_off", "time": 47, "note": 75, "velocity": 93, "channel": 0}, {"type": "note_on", "time": 2, "note": 77, "velocity": 117, "channel": 0}, {"type": "note_off", "time": 52, "note": 77, "velocity": 117, "channel": 0}, {"type": "note_on", "time": 1, "note": 75, "velocity": 113, "channel": 0}, {"type": "note_off", "time": 30, "note": 75, "velocity": 113, "channel": 0}, {"type": "note_on", "time": 3, "note": 72, "velocity": 112, "channel": 0}, {"type": "note_off", "time": 58, "note": 72, "velocity": 112, "channel": 0}, {"type": "note_on", "time": 19, "note": 74, "velocity": 107, "channel": 0}, {"type": "note_off", "time": 51, "note": 74, "velocity": 107, "channel": 0}, {"type": "note_on", "time": 9, "note": 75, "velocity": 107, "channel": 0}, {"type": "note_off", "time": 22, "note": 75, "velocity": 107, "channel": 0}, {"type": "note_on", "time": 1, "note": 74, "velocity": 109, "channel": 0}, {"type": "note_off", "time": 28, "note": 74, "velocity": 109, "channel": 0}, {"type": "note_on", "time": 2, "note": 70, "velocity": 106, "channel": 0}, {"type": "note_off", "time": 49, "note": 70, "velocity": 106, "channel": 0}, {"type": "note_on", "time": 21, "note": 72, "velocity": 102, "channel": 0}, {"type": "note_off", "time": 47, "note": 72, "velocity": 102, "channel": 0}, {"type": "note_on", "time": 1, "note": 74, "velocity": 104, "channel": 0}, {"type": "note_off", "time": 28, "note": 74, "velocity": 104, "channel": 0}, {"type": "note_on", "time": 2, "note": 72, "velocity": 104, "channel": 0}, {"type": "note_off", "time": 29, "note": 72, "velocity": 104, "channel": 0}, {"type": "note_on", "time": 5, "note": 68, "velocity": 104, "channel": 0}, {"type": "note_off", "time": 68, "note": 68, "velocity": 104, "channel": 0}, {"type": "note_on", "time": 3, "note": 70, "velocity": 88, "channel": 0}, {"type": "note_off", "time": 27, "note": 70, "velocity": 88, "channel": 0}, {"type": "note_on", "time": 2, "note": 72, "velocity": 91, "channel": 0}, {"type": "note_off", "time": 34, "note": 72, "velocity": 91, "channel": 0}, {"type": "note_on", "time": 9, "note": 70, "velocity": 104, "channel": 0}, {"type": "note_off", "time": 23, "note": 70, "velocity": 104, "channel": 0}, {"type": "note_on", "time": 2, "note": 67, "velocity": 105, "channel": 0}, {"type": "note_off", "time": 55, "note": 67, "velocity": 105, "channel": 0}, {"type": "note_on", "time": 7, "note": 68, "velocity": 94, "channel": 0}, {"type": "note_off", "time": 62, "note": 68, "velocity": 94, "channel": 0}, {"type": "note_on", "time": 2, "note": 70, "velocity": 96, "channel": 0}, {"type": "note_off", "time": 21, "note": 70, "velocity": 96, "channel": 0}, {"type": "note_on", "time": 3, "note": 68, "velocity": 102, "channel": 0}, {"type": "note_off", "time": 36, "note": 68, "velocity": 102, "channel": 0}, {"type": "note_on", "time": 0, "note": 65, "velocity": 90, "channel": 0}, {"type": "note_off", "time": 74, "note": 65, "velocity": 90, "channel": 0}, {"type": "note_on", "time": 11, "note": 67, "velocity": 104, "channel": 0}, {"type": "note_off", "time": 47, "note": 67, "velocity": 104, "channel": 0}, {"type": "note_on", "time": 4, "note": 68, "velocity": 105, "channel": 0}, {"type": "note_off", "time": 41, "note": 68, "velocity": 105, "channel": 0}, {"type": "note_on", "time": 4, "note": 67, "velocity": 102, "channel": 0}, {"type": "note_off", "time": 22, "note": 67, "velocity": 102, "channel": 0}, {"type": "note_on", "time": 0, "note": 65, "velocity": 97, "channel": 0}, {"type": "note_off", "time": 53, "note": 65, "velocity": 97, "channel": 0}, {"type": "note_on", "time": 8, "note": 64, "velocity": 102, "channel": 0}, {"type": "note_off", "time": 71, "note": 64, "velocity": 102, "channel": 0}, {"type": "note_on", "time": 56, "note": 55, "velocity": 91, "channel": 0}, {"type": "note_off", "time": 64, "note": 55, "velocity": 91, "channel": 0}, {"type": "note_on", "time": 21, "note": 58, "velocity": 86, "channel": 0}, {"type": "note_off", "time": 79, "note": 58, "velocity": 86, "channel": 0}, {"type": "note_on", "time": 30, "note": 61, "velocity": 102, "channel": 0}, {"type": "note_off", "time": 93, "note": 61, "velocity": 102, "channel": 0}, {"type": "note_on", "time": 1, "note": 60, "velocity": 99, "channel": 0}, {"type": "note_off", "time": 80, "note": 60, "velocity": 99, "channel": 0}, {"type": "note_on", "time": 19, "note": 58, "velocity": 94, "channel": 0}, {"type": "note_off", "time": 93, "note": 58, "velocity": 94, "channel": 0}, {"type": "note_on", "time": 0, "note": 60, "velocity": 94, "channel": 0}, {"type": "note_off", "time": 40, "note": 60, "velocity": 94, "channel": 0}, {"type": "note_on", "time": 2, "note": 63, "velocity": 96, "channel": 0}, {"type": "note_off", "time": 33, "note": 63, "velocity": 96, "channel": 0}, {"type": "note_on", "time": 5, "note": 68, "velocity": 111, "channel": 0}, {"type": "note_off", "time": 34, "note": 68, "velocity": 111, "channel": 0}, {"type": "note_on", "time": 5, "note": 67, "velocity": 110, "channel": 0}, {"type": "note_off", "time": 67, "note": 67, "velocity": 110, "channel": 0}, {"type": "note_on", "time": 1, "note": 65, "velocity": 112, "channel": 0}, {"type": "note_off", "time": 58, "note": 65, "velocity": 112, "channel": 0}, {"type": "note_on", "time": 73, "note": 60, "velocity": 88, "channel": 0}, {"type": "note_off", "time": 23, "note": 60, "velocity": 88, "channel": 0}, {"type": "note_on", "time": 15, "note": 70, "velocity": 112, "channel": 0}, {"type": "note_off", "time": 103, "note": 70, "velocity": 112, "channel": 0}, {"type": "note_on", "time": 88, "note": 70, "velocity": 98, "channel": 0}, {"type": "note_off", "time": 240, "note": 70, "velocity": 98, "channel": 0}, {"type": "note_on", "time": 277, "note": 67, "velocity": 111, "channel": 0}, {"type": "note_off", "time": 79, "note": 67, "velocity": 111, "channel": 0}, {"type": "note_on", "time": 1, "note": 68, "velocity": 113, "channel": 0}, {"type": "note_off", "time": 92, "note": 68, "velocity": 113, "channel": 0}, {"type": "note_on", "time": 4, "note": 70, "velocity": 110, "channel": 0}, {"type": "note_off", "time": 67, "note": 70, "velocity": 110, "channel": 0}, {"type": "note_on", "time": 2, "note": 66, "velocity": 100, "channel": 0}, {"type": "note_off", "time": 41, "note": 66, "velocity": 100, "channel": 0}, {"type": "note_on", "time": 3, "note": 67, "velocity": 106, "channel": 0}, {"type": "note_off", "time": 358, "note": 67, "velocity": 106, "channel": 0}, {"type": "note_on", "time": 2, "note": 63, "velocity": 99, "channel": 0}, {"type": "note_off", "time": 89, "note": 63, "velocity": 99, "channel": 0}, {"type": "note_on", "time": 6, "note": 58, "velocity": 84, "channel": 0}, {"type": "note_off", "time": 48, "note": 58, "velocity": 84, "channel": 0}, {"type": "note_on", "time": 11, "note": 63, "velocity": 88, "channel": 0}, {"type": "note_off", "time": 249, "note": 63, "velocity": 88, "channel": 0}, {"type": "note_on", "time": 331, "note": 70, "velocity": 92, "channel": 0}, {"type": "note_off", "time": 45, "note": 70, "velocity": 92, "channel": 0}, {"type": "note_on", "time": 3, "note": 69, "velocity": 97, "channel": 0}, {"type": "note_off", "time": 43, "note": 69, "velocity": 97, "channel": 0}, {"type": "note_on", "time": 2, "note": 68, "velocity": 90, "channel": 0}, {"type": "note_off", "time": 45, "note": 68, "velocity": 90, "channel": 0}, {"type": "note_on", "time": 2, "note": 67, "velocity": 101, "channel": 0}, {"type": "note_off", "time": 37, "note": 67, "velocity": 101, "channel": 0}, {"type": "note_on", "time": 0, "note": 65, "velocity": 102, "channel": 0}, {"type": "note_off", "time": 43, "note": 65, "velocity": 102, "channel": 0}, {"type": "end_of_track", "time": 0}]]}