{"ticks_per_beat": 192, "tracks": [[{"type": "track_name", "name": "Melody", "time": 0}, {"type": "set_tempo", "tempo": 243902, "time": 0}, {"type": "key_signature", "key": "Db", "time": 0}, {"type": "time_signature", "numerator": 4, "denominator": 4, "clocks_per_click": 24, "notated_32nd_notes_per_beat": 8, "time": 0}, {"type": "note_on", "time": 5271, "note": 62, "velocity": 9, "channel": 0}, {"type": "note_off", "time": 15, "note": 62, "velocity": 9, "channel": 0}, {"type": "note_on", "time": 6, "note": 57, "velocity": 9, "channel": 0}, {"type": "note_off", "time": 43, "note": 57, "velocity": 9, "channel": 0}, {"type": "note_on", "time": 3, "note": 53, "velocity": 9, "channel": 0}, {"type": "note_off", "time": 129, "note": 53, "velocity": 9, "channel": 0}, {"type": "note_on", "time": 5, "note": 57, "velocity": 9, "channel": 0}, {"type": "note_off", "time": 33, "note": 57, "velocity": 9, "channel": 0}, {"type": "note_on", "time": 9, "note": 60, "velocity": 9, "channel": 0}, {"type": "note_off", "time": 134, "note": 60, "velocity": 9, "channel": 0}, {"type": "note_on", "time": 4, "note": 61, "velocity": 9, "channel": 0}, {"type": "note_off", "time": 87, "note": 61, "velocity": 9, "channel": 0}, {"type": "note_on", "time": 6, "note": 60, "velocity": 53, "channel": 0}, {"type": "note_off", "time": 89, "note": 60, "velocity": 53, "channel": 0}, {"type": "note_on", "time": 3, "note": 58, "velocity": 114, "channel": 0}, {"type": "note_off", "time": 77, "note": 58, "velocity": 114, "channel": 0}, {"type": "note_on", "time": 4, "note": 57, "velocity": 110, "channel": 0}, {"type": "note_off", "time": 58, "note": 57, "velocity": 110, "channel": 0}, {"type": "note_on", "time": 2, "note": 60, "velocity": 114, "channel": 0}, {"type": "note_off", "time": 54, "note": 60, "velocity": 114, "channel": 0}, {"type": "note_on", "time": 4, "note": 61, "velocity": 112, "channel": 0}, {"type": "note_off", "time": 36, "note": 61, "velocity": 112, "channel": 0}, {"type": "note_on", "time": 3, "note": 66, "velocity": 112, "channel": 0}, {"type": "note_off", "time": 128, "note": 66, "velocity": 112, "channel": 0}, {"type": "note_on", "time": 9, "note": 65, "velocity": 111, "channel": 0}, {"type": "note_off", "time": 59, "note": 65, "velocity": 111, "channel": 0}, {"type": "note_on", "time": 4, "note": 61, "velocity": 108, "channel": 0}, {"type": "note_off", "time": 122, "note": 61, "velocity": 108, "channel": 0}, {"type": "note_on", "time": 6, "note": 59, "velocity": 103, "channel": 0}, {"type": "note_off", "time": 58, "note": 59, "velocity": 103, "channel": 0}, {"type": "note_on", "time": 3, "note": 60, "velocity": 102, "channel": 0}, {"type": "note_off", "time": 323, "note": 60, "velocity": 102, "channel": 0}, {"type": "note_on", "time": 10, "note": 63, "velocity": 106, "channel": 0}, {"type": "note_off", "time": 70, "note": 63, "velocity": 106, "channel": 0}, {"type": "note_on", "time": 22, "note": 55, "velocity": 9, "channel": 0}, {"type": "note_off", "time": 366, "note": 55, "velocity": 9, "channel": 0}, {"type": "note_on", "time": 1126, "note": 67, "velocity": 118, "channel": 0}, {"type": "note_off", "time": 179, "note": 67, "velocity": 118, "channel": 0}, {"type": "note_on", "time": 6, "note": 70, "velocity": 106, "channel": 0}, {"type": "note_off", "time": 19, "note": 70, "velocity": 106, "channel": 0}, {"type": "note_on", "time": 1, "note": 73, "velocity": 115, "channel": 0}, {"type": "note_off", "time": 125, "note": 73, "velocity": 115, "channel": 0}, {"type": "note_on", "time": 3, "note": 75, "velocity": 112, "channel": 0}, {"type": "note_off", "time": 95, "note": 75, "velocity": 112, "channel": 0}, {"type": "note_on", "time": 3, "note": 76, "velocity": 108, "channel": 0}, {"type": "note_off", "time": 55, "note": 76, "velocity": 108, "channel": 0}, {"type": "note_on", "time": 2, "note": 77, "velocity": 59, "channel": 0}, {"type": "note_off", "time": 76, "note": 77, "velocity": 59, "channel": 0}, {"type": "note_on", "time": 4, "note": 76, "velocity": 9, "channel": 0}, {"type": "note_off", "time": 50, "note": 76, "velocity": 9, "channel": 0}, {"type": "note_on", "time": 3, "note": 75, "velocity": 9, "channel": 0}, {"type": "note_off", "time": 107, "note": 75, "velocity": 9, "channel": 0}, {"type": "note_on", "time": 4, "note": 73, "velocity": 105, "channel": 0}, {"type": "note_off", "time": 100, "note": 73, "velocity": 105, "channel": 0}, {"type": "note_on", "time": 2, "note": 72, "velocity": 101, "channel": 0}, {"type": "note_off", "time": 67, "note": 72, "velocity": 101, "channel": 0}, {"type": "note_on", "time": 0, "note": 70, "velocity": 114, "channel": 0}, {"type": "note_off", "time": 59, "note": 70, "velocity": 114, "channel": 0}, {"type": "note_on", "time": 6, "note": 69, "velocity": 105, "channel": 0}, {"type": "note_off", "time": 124, "note": 69, "velocity": 105, "channel": 0}, {"type": "note_on", "time": 3, "note": 71, "velocity": 99, "channel": 0}, {"type": "note_off", "time": 65, "note": 71, "velocity": 99, "channel": 0}, {"type": "note_on", "time": 3, "note": 72, "velocity": 110, "channel": 0}, {"type": "note_off", "time": 153, "note": 72, "velocity": 110, "channel": 0}, {"type": "note_on", "time": 3, "note": 69, "velocity": 113, "channel": 0}, {"type": "note_off", "time": 50, "note": 69, "velocity": 113, "channel": 0}, {"type": "note_on", "time": 4, "note": 70, "velocity": 111, "channel": 0}, {"type": "note_off", "time": 84, "note": 70, "velocity": 111, "channel": 0}, {"type": "note_on", "time": 13, "note": 65, "velocity": 113, "channel": 0}, {"type": "note_off", "time": 131, "note": 65, "velocity": 113, "channel": 0}, {"type": "note_on", "time": 841, "note": 76, "velocity": 9, "channel": 0}, {"type": "note_off", "time": 223, "note": 76, "velocity": 9, "channel": 0}, {"type": "note_on", "time": 2, "note": 73, "velocity": 114, "channel": 0}, {"type": "note_off", "time": 69, "note": 73, "velocity": 114, "channel": 0}, {"type": "note_on", "time": 4, "note": 75, "velocity": 104, "channel": 0}, {"type": "note_off", "time": 302, "note": 75, "velocity": 104, "channel": 0}, {"type": "note_on", "time": 93, "note": 73, "velocity": 113, "channel": 0}, {"type": "note_off", "time": 132, "note": 73, "velocity": 113, "channel": 0}, {"type": "note_on", "time": 4, "note": 70, "velocity": 117, "channel": 0}, {"type": "note_off", "time": 90, "note": 70, "velocity": 117, "channel": 0}, {"type": "note_on", "time": 144, "note": 66, "velocity": 119, "channel": 0}, {"type": "note_off", "time": 77, "note": 66, "velocity": 119, "channel": 0}, {"type": "note_on", "time": 9, "note": 67, "velocity": 102, "channel": 0}, {"type": "note_off", "time": 84, "note": 67, "velocity": 102, "channel": 0}, {"type": "note_on", "time": 18, "note": 70, "velocity": 98, "channel": 0}, {"type": "note_off", "time": 134, "note": 70, "velocity": 98, "channel": 0}, {"type": "note_on", "time": 6, "note": 69, "velocity": 109, "channel": 0}, {"type": "note_off", "time": 89, "note": 69, "velocity": 109, "channel": 0}, {"type": "note_on", "time": 260, "note": 72, "velocity": 118, "channel": 0}, {"type": "note_off", "time": 102, "note": 72, "velocity": 118, "channel": 0}, {"type": "note_on", "time": 4, "note": 70, "velocity": 104, "channel": 0}, {"type": "note_off", "time": 81, "note": 70, "velocity": 104, "channel": 0}, {"type": "note_on", "time": 4, "note": 65, "velocity": 108, "channel": 0}, {"type": "note_off", "time": 125, "note": 65, "velocity": 108, "channel": 0}, {"type": "note_on", "time": 10, "note": 61, "velocity": 110, "channel": 0}, {"type": "note_off", "time": 68, "note": 61, "velocity": 110, "channel": 0}, {"type": "note_on", "time": 6, "note": 58, "velocity": 121, "channel": 0}, {"type": "note_off", "time": 33, "note": 58, "velocity": 121, "channel": 0}, {"type": "note_on", "time": 5, "note": 57, "velocity": 118, "channel": 0}, {"type": "note_off", "time": 37, "note": 57, "velocity": 118, "channel": 0}, {"type": "note_on", "time": 3, "note": 68, "velocity": 115, "channel": 0}, {"type": "note_off", "time": 78, "note": 68, "velocity": 115, "channel": 0}, {"type": "note_on", "time": 2, "note": 70, "velocity": 111, "channel": 0}, {"type": "note_off", "time": 27, "note": 70, "velocity": 111, "channel": 0}, {"type": "note_on", "time": 2, "note": 68, "velocity": 99, "channel": 0}, {"type": "note_off", "time": 57, "note": 68, "velocity": 99, "channel": 0}, {"type": "note_on", "time": 9, "note": 66, "velocity": 71, "channel": 0}, {"type": "note_off", "time": 119, "note": 66, "velocity": 71, "channel": 0}, {"type": "note_on", "time": 3, "note": 65, "velocity": 18, "channel": 0}, {"type": "note_off", "time": 106, "note": 65, "velocity": 18, "channel": 0}, {"type": "note_on", "time": 0, "note": 63, "velocity": 109, "channel": 0}, {"type": "note_off", "time": 89, "note": 63, "velocity": 109, "channel": 0}, {"type": "note_on", "time": 0, "note": 61, "velocity": 103, "channel": 0}, {"type": "note_off", "time": 94, "note": 61, "velocity": 103, "channel": 0}, {"type": "note_on", "time": 7, "note": 60, "velocity": 106, "channel": 0}, {"type": "note_off", "time": 67, "note": 60, "velocity": 106, "channel": 0}, {"type": "note_on", "time": 18, "note": 58, "velocity": 115, "channel": 0}, {"type": "note_off", "time": 67, "note": 58, "velocity": 115, "channel": 0}, {"type": "note_on", "time": 3, "note": 57, "velocity": 107, "channel": 0}, {"type": "note_off", "time": 89, "note": 57, "velocity": 107, "channel": 0}, {"type": "note_on", "time": 16, "note": 66, "velocity": 108, "channel": 0}, {"type": "note_off", "time": 151, "note": 66, "velocity": 108, "channel": 0}, {"type": "note_on", "time": 38, "note": 64, "velocity": 104, "channel": 0}, {"type": "note_off", "time": 65, "note": 64, "velocity": 104, "channel": 0}, {"type": "note_on", "time": 6, "note": 65, "velocity": 107, "channel": 0}, {"type": "note_off", "time": 157, "note": 65, "velocity": 107, "channel": 0}, {"type": "note_on", "time": 5, "note": 61, "velocity": 116, "channel": 0}, {"type": "note_off", "time": 101, "note": 61, "velocity": 116, "channel": 0}, {"type": "note_on", "time": 6, "note": 58, "velocity": 115, "channel": 0}, {"type": "note_off", "time": 86, "note": 58, "velocity": 115, "channel": 0}, {"type": "note_on", "time": 57, "note": 64, "velocity": 97, "channel": 0}, {"type": "note_off", "time": 90, "note": 64, "velocity": 97, "channel": 0}, {"type": "note_on", "time": 3, "note": 65, "velocity": 92, "channel": 0}, {"type": "note_off", "time": 73, "note": 65, "velocity": 92, "channel": 0}, {"type": "note_on", "time": 4, "note": 64, "velocity": 82, "channel": 0}, {"type": "note_off", "time": 50, "note": 64, "velocity": 82, "channel": 0}, {"type": "note_on", "time": 6, "note": 63, "velocity": 114, "channel": 0}, {"type": "note_off", "time": 117, "note": 63, "velocity": 114, "channel": 0}, {"type": "note_on", "time": 6, "note": 61, "velocity": 108, "channel": 0}, {"type": "note_off", "time": 42, "note": 61, "velocity": 108, "channel": 0}, {"type": "note_on", "time": 2, "note": 60, "velocity": 108, "channel": 0}, {"type": "note_off", "time": 76, "note": 60, "velocity": 108, "channel": 0}, {"type": "note_on", "time": 4, "note": 58, "velocity": 94, "channel": 0}, {"type": "note_off", "time": 68, "note": 58, "velocity": 94, "channel": 0}, {"type": "note_on", "time": 4, "note": 57, "velocity": 96, "channel": 0}, {"type": "note_off", "time": 76, "note": 57, "velocity": 96, "channel": 0}, {"type": "note_on", "time": 46, "note": 63, "velocity": 103, "channel": 0}, {"type": "note_off", "time": 57, "note": 63, "velocity": 103, "channel": 0}, {"type": "note_on", "time": 5, "note": 66, "velocity": 115, "channel": 0}, {"type": "note_off", "time": 94, "note": 66, "velocity": 115, "channel": 0}, {"type": "note_on", "time": 12, "note": 65, "velocity": 116, "channel": 0}, {"type": "note_off", "time": 99, "note": 65, "velocity": 116, "channel": 0}, {"type": "note_on", "time": 22, "note": 59, "velocity": 117, "channel": 0}, {"type": "note_off", "time": 80, "note": 59, "velocity": 117, "channel": 0}, {"type": "note_on", "time": 16, "note": 57, "velocity": 113, "channel": 0}, {"type": "note_off", "time": 73, "note": 57, "velocity": 113, "channel": 0}, {"type": "note_on", "time": 3, "note": 58, "velocity": 107, "channel": 0}, {"type": "note_off", "time": 89, "note": 58, "velocity": 107, "channel": 0}, {"type": "note_on", "time": 10, "note": 65, "velocity": 105, "channel": 0}, {"type": "note_off", "time": 84, "note": 65, "velocity": 105, "channel": 0}, {"type": "note_on", "time": 12, "note": 56, "velocity": 102, "channel": 0}, {"type": "note_off", "time": 131, "note": 56, "velocity": 102, "channel": 0}, {"type": "note_on", "time": 12, "note": 54, "velocity": 97, "channel": 0}, {"type": "note_off", "time": 64, "note": 54, "velocity": 97, "channel": 0}, {"type": "note_on", "time": 3, "note": 55, "velocity": 104, "channel": 0}, {"type": "note_off", "time": 440, "note": 55, "velocity": 104, "channel": 0}, {"type": "note_on", "time": 775, "note": 64, "velocity": 103, "channel": 0}, {"type": "note_off", "time": 54, "note": 64, "velocity": 103, "channel": 0}, {"type": "note_on", "time": 3, "note": 65, "velocity": 120, "channel": 0}, {"type": "note_off", "time": 74, "note": 65, "velocity": 120, "channel": 0}, {"type": "note_on", "time": 10, "note": 68, "velocity": 109, "channel": 0}, {"type": "note_off", "time": 49, "note": 68, "velocity": 109, "channel": 0}, {"type": "note_on", "time": 6, "note": 75, "velocity": 88, "channel": 0}, {"type": "note_off", "time": 57, "note": 75, "velocity": 88, "channel": 0}, {"type": "note_on", "time": 54, "note": 78, "velocity": 117, "channel": 0}, {"type": "note_off", "time": 334, "note": 78, "velocity": 117, "channel": 0}, {"type": "note_on", "time": 16, "note": 77, "velocity": 104, "channel": 0}, {"type": "note_off", "time": 117, "note": 77, "velocity": 104, "channel": 0}, {"type": "note_on", "time": 9, "note": 75, "velocity": 100, "channel": 0}, {"type": "note_off", "time": 66, "note": 75, "velocity": 100, "channel": 0}, {"type": "note_on", "time": 2, "note": 74, "velocity": 108, "channel": 0}, {"type": "note_off", "time": 78, "note": 74, "velocity": 108, "channel": 0}, {"type": "note_on", "time": 65, "note": 65, "velocity": 95, "channel": 0}, {"type": "note_off", "time": 59, "note": 65, "velocity": 95, "channel": 0}, {"type": "note_on", "time": 6, "note": 68, "velocity": 107, "channel": 0}, {"type": "note_off", "time": 102, "note": 68, "velocity": 107, "channel": 0}, {"type": "note_on", "time": 5, "note": 71, "velocity": 120, "channel": 0}, {"type": "note_off", "time": 85, "note": 71, "velocity": 120, "channel": 0}, {"type": "note_on", "time": 2, "note": 70, "velocity": 114, "channel": 0}, {"type": "note_off", "time": 77, "note": 70, "velocity": 114, "channel": 0}, {"type": "note_on", "time": 4, "note": 68, "velocity": 112, "channel": 0}, {"type": "note_off", "time": 91, "note": 68, "velocity": 112, "channel": 0}, {"type": "note_on", "time": 6, "note": 66, "velocity": 110, "channel": 0}, {"type": "note_off", "time": 43, "note": 66, "velocity": 110, "channel": 0}, {"type": "note_on", "time": 13, "note": 65, "velocity": 95, "channel": 0}, {"type": "note_off", "time": 97, "note": 65, "velocity": 95, "channel": 0}, {"type": "note_on", "time": 44, "note": 63, "velocity": 9, "channel": 0}, {"type": "note_off", "time": 89, "note": 63, "velocity": 9, "channel": 0}, {"type": "note_on", "time": 6, "note": 66, "velocity": 9, "channel": 0}, {"type": "note_off", "time": 83, "note": 66, "velocity": 9, "channel": 0}, {"type": "note_on", "time": 5, "note": 65, "velocity": 9, "channel": 0}, {"type": "note_off", "time": 94, "note": 65, "velocity": 9, "channel": 0}, {"type": "note_on", "time": 12, "note": 63, "velocity": 9, "channel": 0}, {"type": "note_off", "time": 94, "note": 63, "velocity": 9, "channel": 0}, {"type": "note_on", "time": 2, "note": 62, "velocity": 9, "channel": 0}, {"type": "note_off", "time": 76, "note": 62, "velocity": 9, "channel": 0}, {"type": "note_on", "time": 23, "note": 58, "velocity": 9, "channel": 0}, {"type": "note_off", "time": 47, "note": 58, "velocity": 9, "channel": 0}, {"type": "note_on", "time": 6, "note": 65, "velocity": 9, "channel": 0}, {"type": "note_off", "time": 150, "note": 65, "velocity": 9, "channel": 0}, {"type": "note_on", "time": 9, "note": 63, "velocity": 9, "channel": 0}, {"type": "note_off", "time": 105, "note": 63, "velocity": 9, "channel": 0}, {"type": "note_on", "time": 339, "note": 77, "velocity": 104, "channel": 0}, {"type": "note_off", "time": 100, "note": 77, "velocity": 104, "channel": 0}, {"type": "note_on", "time": 12, "note": 75, "velocity": 112, "channel": 0}, {"type": "note_off", "time": 60, "note": 75, "velocity": 112, "channel": 0}, {"type": "note_on", "time": 3, "note": 73, "velocity": 87, "channel": 0}, {"type": "note_off", "time": 38, "note": 73, "velocity": 87, "channel": 0}, {"type": "note_on", "time": 1, "note": 70, "velocity": 118, "channel": 0}, {"type": "note_off", "time": 67, "note": 70, "velocity": 118, "channel": 0}, {"type": "note_on", "time": 3, "note": 66, "velocity": 116, "channel": 0}, {"type": "note_off", "time": 123, "note": 66, "velocity": 116, "channel": 0}, {"type": "note_on", "time": 7, "note": 63, "velocity": 121, "channel": 0}, {"type": "note_off", "time": 60, "note": 63, "velocity": 121, "channel": 0}, {"type": "note_on", "time": 28, "note": 58, "velocity": 120, "channel": 0}, {"type": "note_off", "time": 39, "note": 58, "velocity": 120, "channel": 0}, {"type": "note_on", "time": 14, "note": 61, "velocity": 79, "channel": 0}, {"type": "note_off", "time": 161, "note": 61, "velocity": 79, "channel": 0}, {"type": "note_on", "time": 0, "note": 59, "velocity": 67, "channel": 0}, {"type": "note_off", "time": 36, "note": 59, "velocity": 67, "channel": 0}, {"type": "note_on", "time": 6, "note": 60, "velocity": 114, "channel": 0}, {"type": "note_off", "time": 115, "note": 60, "velocity": 114, "channel": 0}, {"type": "note_on", "time": 12, "note": 65, "velocity": 106, "channel": 0}, {"type": "note_off", "time": 77, "note": 65, "velocity": 106, "channel": 0}, {"type": "note_on", "time": 4, "note": 64, "velocity": 112, "channel": 0}, {"type": "note_off", "time": 49, "note": 64, "velocity": 112, "channel": 0}, {"type": "note_on", "time": 8, "note": 64, "velocity": 114, "channel": 0}, {"type": "note_off", "time": 77, "note": 64, "velocity": 114, "channel": 0}, {"type": "note_on", "time": 67, "note": 71, "velocity": 115, "channel": 0}, {"type": "note_off", "time": 69, "note": 71, "velocity": 115, "channel": 0}, {"type": "note_on", "time": 2, "note": 70, "velocity": 114, "channel": 0}, {"type": "note_off", "time": 87, "note": 70, "velocity": 114, "channel": 0}, {"type": "note_on", "time": 1, "note": 69, "velocity": 108, "channel": 0}, {"type": "note_off", "time": 61, "note": 69, "velocity": 108, "channel": 0}, {"type": "note_on", "time": 2, "note": 70, "velocity": 103, "channel": 0}, {"type": "note_off", "time": 28, "note": 70, "velocity": 103, "channel": 0}, {"type": "note_on", "time": 0, "note": 69, "velocity": 100, "channel": 0}, {"type": "note_off", "time": 41, "note": 69, "velocity": 100, "channel": 0}, {"type": "note_on", "time": 5, "note": 66, "velocity": 103, "channel": 0}, {"type": "note_off", "time": 77, "note": 66, "velocity": 103, "channel": 0}, {"type": "note_on", "time": 5, "note": 64, "velocity": 111, "channel": 0}, {"type": "note_off", "time": 55, "note": 64, "velocity": 111, "channel": 0}, {"type": "note_on", "time": 49, "note": 68, "velocity": 102, "channel": 0}, {"type": "note_off", "time": 133, "note": 68, "velocity": 102, "channel": 0}, {"type": "note_on", "time": 14, "note": 63, "velocity": 96, "channel": 0}, {"type": "note_off", "time": 29, "note": 63, "velocity": 96, "channel": 0}, {"type": "note_on", "time": 0, "note": 64, "velocity": 113, "channel": 0}, {"type": "note_off", "time": 69, "note": 64, "velocity": 113, "channel": 0}, {"type": "note_on", "time": 6, "note": 68, "velocity": 113, "channel": 0}, {"type": "note_off", "time": 59, "note": 68, "velocity": 113, "channel": 0}, {"type": "note_on", "time": 6, "note": 70, "velocity": 105, "channel": 0}, {"type": "note_off", "time": 60, "note": 70, "velocity": 105, "channel": 0}, {"type": "note_on", "time": 3, "note": 75, "velocity": 103, "channel": 0}, {"type": "note_off", "time": 129, "note": 75, "velocity": 103, "channel": 0}, {"type": "note_on", "time": 4, "note": 74, "velocity": 87, "channel": 0}, {"type": "note_off", "time": 76, "note": 74, "velocity": 87, "channel": 0}, {"type": "note_on", "time": 5, "note": 73, "velocity": 83, "channel": 0}, {"type": "note_off", "time": 133, "note": 73, "velocity": 83, "channel": 0}, {"type": "note_on", "time": 5, "note": 75, "velocity": 9, "channel": 0}, {"type": "note_off", "time": 35, "note": 75, "velocity": 9, "channel": 0}, {"type": "note_on", "time": 2, "note": 73, "velocity": 9, "channel": 0}, {"type": "note_off", "time": 78, "note": 73, "velocity": 9, "channel": 0}, {"type": "note_on", "time": 10, "note": 72, "velocity": 9, "channel": 0}, {"type": "note_off", "time": 43, "note": 72, "velocity": 9, "channel": 0}, {"type": "note_on", "time": 2, "note": 70, "velocity": 9, "channel": 0}, {"type": "note_off", "time": 53, "note": 70, "velocity": 9, "channel": 0}, {"type": "note_on", "time": 6, "note": 69, "velocity": 9, "channel": 0}, {"type": "note_off", "time": 147, "note": 69, "velocity": 9, "channel": 0}, {"type": "note_on", "time": 337, "note": 70, "velocity": 110, "channel": 0}, {"type": "note_off", "time": 52, "note": 70, "velocity": 110, "channel": 0}, {"type": "note_on", "time": 22, "note": 72, "velocity": 112, "channel": 0}, {"type": "note_off", "time": 187, "note": 72, "velocity": 112, "channel": 0}, {"type": "note_on", "time": 14, "note": 70, "velocity": 9, "channel": 0}, {"type": "note_off", "time": 113, "note": 70, "velocity": 9, "channel": 0}, {"type": "note_on", "time": 3, "note": 65, "velocity": 9, "channel": 0}, {"type": "note_off", "time": 76, "note": 65, "velocity": 9, "channel": 0}, {"type": "note_on", "time": 3, "note": 68, "velocity": 9, "channel": 0}, {"type": "note_off", "time": 106, "note": 68, "velocity": 9, "channel": 0}, {"type": "note_on", "time": 12, "note": 67, "velocity": 9, "channel": 0}, {"type": "note_off", "time": 81, "note": 67, "velocity": 9, "channel": 0}, {"type": "note_on", "time": 36, "note": 61, "velocity": 9, "channel": 0}, {"type": "note_off", "time": 86, "note": 61, "velocity": 9, "channel": 0}, {"type": "note_on", "time": 13, "note": 63, "velocity": 9, "channel": 0}, {"type": "note_off", "time": 50, "note": 63, "velocity": 9, "channel": 0}, {"type": "note_on", "time": 13, "note": 66, "velocity": 9, "channel": 0}, {"type": "note_off", "time": 141, "note": 66, "velocity": 9, "channel": 0}, {"type": "note_on", "time": 31, "note": 66, "velocity": 103, "channel": 0}, {"type": "note_off", "time": 383, "note": 66, "velocity": 103, "channel": 0}, {"type": "note_on", "time": 611, "note": 64, "velocity": 111, "channel": 0}, {"type": "note_off", "time": 76, "note": 64, "velocity": 111, "channel": 0}, {"type": "note_on", "time": 11, "note": 65, "velocity": 117, "channel": 0}, {"type": "note_off", "time": 78, "note": 65, "velocity": 117, "channel": 0}, {"type": "note_on", "time": 2, "note": 66, "velocity": 107, "channel": 0}, {"type": "note_off", "time": 91, "note": 66, "velocity": 107, "channel": 0}, {"type": "note_on", "time": 13, "note": 65, "velocity": 108, "channel": 0}, {"type": "note_off", "time": 76, "note": 65, "velocity": 108, "channel": 0}, {"type": "note_on", "time": 6, "note": 63, "velocity": 58, "channel": 0}, {"type": "note_off", "time": 488, "note": 63, "velocity": 58, "channel": 0}, {"type": "note_on", "time": 13, "note": 61, "velocity": 115, "channel": 0}, {"type": "note_off", "time": 91, "note": 61, "velocity": 115, "channel": 0}, {"type": "note_on", "time": 7, "note": 60, "velocity": 117, "channel": 0}, {"type": "note_off", "time": 67, "note": 60, "velocity": 117, "channel": 0}, {"type": "note_on", "time": 30, "note": 58, "velocity": 85, "channel": 0}, {"type": "note_off", "time": 74, "note": 58, "velocity": 85, "channel": 0}, {"type": "note_on", "time": 4, "note": 57, "velocity": 9, "channel": 0}, {"type": "note_off", "time": 63, "note": 57, "velocity": 9, "channel": 0}, {"type": "note_on", "time": 12, "note": 66, "velocity": 9, "channel": 0}, {"type": "note_off", "time": 138, "note": 66, "velocity": 9, "channel": 0}, {"type": "note_on", "time": 14, "note": 60, "velocity": 66, "channel": 0}, {"type": "note_off", "time": 29, "note": 60, "velocity": 66, "channel": 0}, {"type": "note_on", "time": 15, "note": 64, "velocity": 119, "channel": 0}, {"type": "note_off", "time": 49, "note": 64, "velocity": 119, "channel": 0}, {"type": "note_on", "time": 23, "note": 65, "velocity": 107, "channel": 0}, {"type": "note_off", "time": 117, "note": 65, "velocity": 107, "channel": 0}, {"type": "note_on", "time": 12, "note": 61, "velocity": 111, "channel": 0}, {"type": "note_off", "time": 86, "note": 61, "velocity": 111, "channel": 0}, {"type": "note_on", "time": 17, "note": 58, "velocity": 110, "channel": 0}, {"type": "note_off", "time": 77, "note": 58, "velocity": 110, "channel": 0}, {"type": "note_on", "time": 11, "note": 53, "velocity": 108, "channel": 0}, {"type": "note_off", "time": 58, "note": 53, "velocity": 108, "channel": 0}, {"type": "note_on", "time": 31, "note": 64, "velocity": 86, "channel": 0}, {"type": "note_off", "time": 65, "note": 64, "velocity": 86, "channel": 0}, {"type": "note_on", "time": 6, "note": 65, "velocity": 99, "channel": 0}, {"type": "note_off", "time": 52, "note": 65, "velocity": 99, "channel": 0}, {"type": "note_on", "time": 9, "note": 64, "velocity": 92, "channel": 0}, {"type": "note_off", "time": 71, "note": 64, "velocity": 92, "channel": 0}, {"type": "note_on", "time": 9, "note": 63, "velocity": 80, "channel": 0}, {"type": "note_off", "time": 87, "note": 63, "velocity": 80, "channel": 0}, {"type": "note_on", "time": 5, "note": 61, "velocity": 115, "channel": 0}, {"type": "note_off", "time": 51, "note": 61, "velocity": 115, "channel": 0}, {"type": "note_on", "time": 7, "note": 60, "velocity": 110, "channel": 0}, {"type": "note_off", "time": 82, "note": 60, "velocity": 110, "channel": 0}, {"type": "note_on", "time": 0, "note": 58, "velocity": 108, "channel": 0}, {"type": "note_off", "time": 76, "note": 58, "velocity": 108, "channel": 0}, {"type": "note_on", "time": 20, "note": 57, "velocity": 104, "channel": 0}, {"type": "note_off", "time": 106, "note": 57, "velocity": 104, "channel": 0}, {"type": "note_on", "time": 39, "note": 65, "velocity": 97, "channel": 0}, {"type": "note_off", "time": 41, "note": 65, "velocity": 97, "channel": 0}, {"type": "note_on", "time": 2, "note": 66, "velocity": 105, "channel": 0}, {"type": "note_off", "time": 118, "note": 66, "velocity": 105, "channel": 0}, {"type": "note_on", "time": 11, "note": 65, "velocity": 115, "channel": 0}, {"type": "note_off", "time": 75, "note": 65, "velocity": 115, "channel": 0}, {"type": "note_on", "time": 10, "note": 61, "velocity": 67, "channel": 0}, {"type": "note_off", "time": 335, "note": 61, "velocity": 67, "channel": 0}, {"type": "note_on", "time": 805, "note": 53, "velocity": 116, "channel": 0}, {"type": "note_off", "time": 103, "note": 53, "velocity": 116, "channel": 0}, {"type": "note_on", "time": 17, "note": 58, "velocity": 79, "channel": 0}, {"type": "note_off", "time": 62, "note": 58, "velocity": 79, "channel": 0}, {"type": "note_on", "time": 11, "note": 61, "velocity": 108, "channel": 0}, {"type": "note_off", "time": 127, "note": 61, "velocity": 108, "channel": 0}, {"type": "note_on", "time": 10, "note": 58, "velocity": 104, "channel": 0}, {"type": "note_off", "time": 33, "note": 58, "velocity": 104, "channel": 0}, {"type": "note_on", "time": 3, "note": 57, "velocity": 99, "channel": 0}, {"type": "note_off", "time": 27, "note": 57, "velocity": 99, "channel": 0}, {"type": "note_on", "time": 0, "note": 54, "velocity": 95, "channel": 0}, {"type": "note_off", "time": 78, "note": 54, "velocity": 95, "channel": 0}, {"type": "note_on", "time": 6, "note": 57, "velocity": 90, "channel": 0}, {"type": "note_off", "time": 69, "note": 57, "velocity": 90, "channel": 0}, {"type": "note_on", "time": 10, "note": 60, "velocity": 88, "channel": 0}, {"type": "note_off", "time": 95, "note": 60, "velocity": 88, "channel": 0}, {"type": "note_on", "time": 35, "note": 57, "velocity": 18, "channel": 0}, {"type": "note_off", "time": 80, "note": 57, "velocity": 18, "channel": 0}, {"type": "note_on", "time": 9, "note": 58, "velocity": 9, "channel": 0}, {"type": "note_off", "time": 99, "note": 58, "velocity": 9, "channel": 0}, {"type": "note_on", "time": 3, "note": 60, "velocity": 110, "channel": 0}, {"type": "note_off", "time": 89, "note": 60, "velocity": 110, "channel": 0}, {"type": "note_on", "time": 1, "note": 61, "velocity": 112, "channel": 0}, {"type": "note_off", "time": 88, "note": 61, "velocity": 112, "channel": 0}, {"type": "note_on", "time": 12, "note": 63, "velocity": 116, "channel": 0}, {"type": "note_off", "time": 101, "note": 63, "velocity": 116, "channel": 0}, {"type": "note_on", "time": 4, "note": 64, "velocity": 115, "channel": 0}, {"type": "note_off", "time": 59, "note": 64, "velocity": 115, "channel": 0}, {"type": "note_on", "time": 4, "note": 65, "velocity": 97, "channel": 0}, {"type": "note_off", "time": 99, "note": 65, "velocity": 97, "channel": 0}, {"type": "note_on", "time": 5, "note": 66, "velocity": 95, "channel": 0}, {"type": "note_off", "time": 99, "note": 66, "velocity": 95, "channel": 0}, {"type": "note_on", "time": 7, "note": 65, "velocity": 106, "channel": 0}, {"type": "note_off", "time": 92, "note": 65, "velocity": 106, "channel": 0}, {"type": "note_on", "time": 55, "note": 63, "velocity": 112, "channel": 0}, {"type": "note_off", "time": 59, "note": 63, "velocity": 112, "channel": 0}, {"type": "note_on", "time": 12, "note": 60, "velocity": 101, "channel": 0}, {"type": "note_off", "time": 82, "note": 60, "velocity": 101, "channel": 0}, {"type": "note_on", "time": 9, "note": 61, "velocity": 90, "channel": 0}, {"type": "note_off", "time": 233, "note": 61, "velocity": 90, "channel": 0}, {"type": "note_on", "time": 851, "note": 71, "velocity": 9, "channel": 0}, {"type": "note_off", "time": 68, "note": 71, "velocity": 9, "channel": 0}, {"type": "note_on", "time": 0, "note": 72, "velocity": 9, "channel": 0}, {"type": "note_off", "time": 251, "note": 72, "velocity": 9, "channel": 0}, {"type": "note_on", "time": 22, "note": 69, "velocity": 9, "channel": 0}, {"type": "note_off", "time": 51, "note": 69, "velocity": 9, "channel": 0}, {"type": "note_on", "time": 12, "note": 70, "velocity": 74, "channel": 0}, {"type": "note_off", "time": 106, "note": 70, "velocity": 74, "channel": 0}, {"type": "note_on", "time": 9, "note": 65, "velocity": 113, "channel": 0}, {"type": "note_off", "time": 107, "note": 65, "velocity": 113, "channel": 0}, {"type": "note_on", "time": 14, "note": 61, "velocity": 111, "channel": 0}, {"type": "note_off", "time": 67, "note": 61, "velocity": 111, "channel": 0}, {"type": "note_on", "time": 26, "note": 58, "velocity": 101, "channel": 0}, {"type": "note_off", "time": 46, "note": 58, "velocity": 101, "channel": 0}, {"type": "note_on", "time": 17, "note": 66, "velocity": 116, "channel": 0}, {"type": "note_off", "time": 65, "note": 66, "velocity": 116, "channel": 0}, {"type": "note_on", "time": 14, "note": 67, "velocity": 110, "channel": 0}, {"type": "note_off", "time": 29, "note": 67, "velocity": 110, "channel": 0}, {"type": "note_on", "time": 9, "note": 66, "velocity": 118, "channel": 0}, {"type": "note_off", "time": 85, "note": 66, "velocity": 118, "channel": 0}, {"type": "note_on", "time": 7, "note": 65, "velocity": 120, "channel": 0}, {"type": "note_off", "time": 83, "note": 65, "velocity": 120, "channel": 0}, {"type": "note_on", "time": 25, "note": 63, "velocity": 116, "channel": 0}, {"type": "note_off", "time": 205, "note": 63, "velocity": 116, "channel": 0}, {"type": "note_on", "time": 347, "note": 61, "velocity": 114, "channel": 0}, {"type": "note_off", "time": 116, "note": 61, "velocity": 114, "channel": 0}, {"type": "note_on", "time": 4, "note": 60, "velocity": 112, "channel": 0}, {"type": "note_off", "time": 66, "note": 60, "velocity": 112, "channel": 0}, {"type": "note_on", "time": 18, "note": 58, "velocity": 120, "channel": 0}, {"type": "note_off", "time": 82, "note": 58, "velocity": 120, "channel": 0}, {"type": "note_on", "time": 4, "note": 57, "velocity": 118, "channel": 0}, {"type": "note_off", "time": 105, "note": 57, "velocity": 118, "channel": 0}, {"type": "note_on", "time": 5, "note": 59, "velocity": 100, "channel": 0}, {"type": "note_off", "time": 71, "note": 59, "velocity": 100, "channel": 0}, {"type": "note_on", "time": 5, "note": 60, "velocity": 86, "channel": 0}, {"type": "note_off", "time": 125, "note": 60, "velocity": 86, "channel": 0}, {"type": "note_on", "time": 9, "note": 57, "velocity": 9, "channel": 0}, {"type": "note_off", "time": 62, "note": 57, "velocity": 9, "channel": 0}, {"type": "note_on", "time": 7, "note": 58, "velocity": 72, "channel": 0}, {"type": "note_off", "time": 115, "note": 58, "velocity": 72, "channel": 0}, {"type": "note_on", "time": 1, "note": 55, "velocity": 112, "channel": 0}, {"type": "note_off", "time": 313, "note": 55, "velocity": 112, "channel": 0}, {"type": "note_on", "time": 714, "note": 65, "velocity": 96, "channel": 0}, {"type": "note_off", "time": 99, "note": 65, "velocity": 96, "channel": 0}, {"type": "note_on", "time": 8, "note": 70, "velocity": 95, "channel": 0}, {"type": "note_off", "time": 59, "note": 70, "velocity": 95, "channel": 0}, {"type": "note_on", "time": 4, "note": 73, "velocity": 103, "channel": 0}, {"type": "note_off", "time": 91, "note": 73, "velocity": 103, "channel": 0}, {"type": "note_on", "time": 1, "note": 77, "velocity": 91, "channel": 0}, {"type": "note_off", "time": 101, "note": 77, "velocity": 91, "channel": 0}, {"type": "note_on", "time": 41, "note": 67, "velocity": 106, "channel": 0}, {"type": "note_off", "time": 101, "note": 67, "velocity": 106, "channel": 0}, {"type": "note_on", "time": 67, "note": 67, "velocity": 105, "channel": 0}, {"type": "note_off", "time": 96, "note": 67, "velocity": 105, "channel": 0}, {"type": "note_on", "time": 115, "note": 75, "velocity": 105, "channel": 0}, {"type": "note_off", "time": 109, "note": 75, "velocity": 105, "channel": 0}, {"type": "note_on", "time": 73, "note": 75, "velocity": 87, "channel": 0}, {"type": "note_off", "time": 102, "note": 75, "velocity": 87, "channel": 0}, {"type": "note_on", "time": 1, "note": 72, "velocity": 95, "channel": 0}, {"type": "note_off", "time": 375, "note": 72, "velocity": 95, "channel": 0}, {"type": "note_on", "time": 232, "note": 75, "velocity": 97, "channel": 0}, {"type": "note_off", "time": 118, "note": 75, "velocity": 97, "channel": 0}, {"type": "note_on", "time": 19, "note": 72, "velocity": 89, "channel": 0}, {"type": "note_off", "time": 54, "note": 72, "velocity": 89, "channel": 0}, {"type": "note_on", "time": 5, "note": 73, "velocity": 9, "channel": 0}, {"type": "note_off", "time": 61, "note": 73, "velocity": 9, "channel": 0}, {"type": "note_on", "time": 3, "note": 74, "velocity": 9, "channel": 0}, {"type": "note_off", "time": 35, "note": 74, "velocity": 9, "channel": 0}, {"type": "note_on", "time": 0, "note": 73, "velocity": 9, "channel": 0}, {"type": "note_off", "time": 67, "note": 73, "velocity": 9, "channel": 0}, {"type": "note_on", "time": 6, "note": 72, "velocity": 9, "channel": 0}, {"type": "note_off", "time": 115, "note": 72, "velocity": 9, "channel": 0}, {"type": "note_on", "time": 6, "note": 70, "velocity": 9, "channel": 0}, {"type": "note_off", "time": 65, "note": 70, "velocity": 9, "channel": 0}, {"type": "note_on", "time": 17, "note": 69, "velocity": 9, "channel": 0}, {"type": "note_off", "time": 96, "note": 69, "velocity": 9, "channel": 0}, {"type": "note_on", "time": 80, "note": 60, "velocity": 9, "channel": 0}, {"type": "note_off", "time": 115, "note": 60, "velocity": 9, "channel": 0}, {"type": "note_on", "time": 3, "note": 66, "velocity": 9, "channel": 0}, {"type": "note_off", "time": 350, "note": 66, "velocity": 9, "channel": 0}, {"type": "note_on", "time": 12, "note": 65, "velocity": 9, "channel": 0}, {"type": "note_off", "time": 89, "note": 65, "velocity": 9, "channel": 0}, {"type": "note_on", "time": 410, "note": 60, "velocity": 9, "channel": 0}, {"type": "note_off", "time": 108, "note": 60, "velocity": 9, "channel": 0}, {"type": "note_on", "time": 10, "note": 62, "velocity": 9, "channel": 0}, {"type": "note_off", "time": 54, "note": 62, "velocity": 9, "channel": 0}, {"type": "note_on", "time": 13, "note": 63, "velocity": 9, "channel": 0}, {"type": "note_off", "time": 149, "note": 63, "velocity": 9, "channel": 0}, {"type": "note_on", "time": 10, "note": 62, "velocity": 9, "channel": 0}, {"type": "note_off", "time": 42, "note": 62, "velocity": 9, "channel": 0}, {"type": "note_on", "time": 17, "note": 61, "velocity": 9, "channel": 0}, {"type": "note_off", "time": 42, "note": 61, "velocity": 9, "channel": 0}, {"type": "note_on", "time": 14, "note": 60, "velocity": 9, "channel": 0}, {"type": "note_off", "time": 92, "note": 60, "velocity": 9, "channel": 0}, {"type": "note_on", "time": 3, "note": 58, "velocity": 9, "channel": 0}, {"type": "note_off", "time": 44, "note": 58, "velocity": 9, "channel": 0}, {"type": "note_on", "time": 10, "note": 57, "velocity": 9, "channel": 0}, {"type": "note_off", "time": 77, "note": 57, "velocity": 9, "channel": 0}, {"type": "note_on", "time": 0, "note": 63, "velocity": 9, "channel": 0}, {"type": "note_off", "time": 57, "note": 63, "velocity": 9, "channel": 0}, {"type": "note_on", "time": 6, "note": 66, "velocity": 9, "channel": 0}, {"type": "note_off", "time": 123, "note": 66, "velocity": 9, "channel": 0}, {"type": "note_on", "time": 2, "note": 65, "velocity": 9, "channel": 0}, {"type": "note_off", "time": 109, "note": 65, "velocity": 9, "channel": 0}, {"type": "note_on", "time": 18, "note": 59, "velocity": 9, "channel": 0}, {"type": "note_off", "time": 62, "note": 59, "velocity": 9, "channel": 0}, {"type": "note_on", "time": 11, "note": 57, "velocity": 9, "channel": 0}, {"type": "note_off", "time": 77, "note": 57, "velocity": 9, "channel": 0}, {"type": "note_on", "time": 12, "note": 58, "velocity": 9, "channel": 0}, {"type": "note_off", "time": 89, "note": 58, "velocity": 9, "channel": 0}, {"type": "note_on", "time": 16, "note": 65, "velocity": 80, "channel": 0}, {"type": "note_off", "time": 89, "note": 65, "velocity": 80, "channel": 0}, {"type": "note_on", "time": 6, "note": 56, "velocity": 80, "channel": 0}, {"type": "note_off", "time": 80, "note": 56, "velocity": 80, "channel": 0}, {"type": "note_on", "time": 11, "note": 54, "velocity": 80, "channel": 0}, {"type": "note_off", "time": 38, "note": 54, "velocity": 80, "channel": 0}, {"type": "note_on", "time": 4, "note": 55, "velocity": 80, "channel": 0}, {"type": "note_off", "time": 246, "note": 55, "velocity": 80, "channel": 0}, {"type": "note_on", "time": 691, "note": 65, "velocity": 80, "channel": 0}, {"type": "note_off", "time": 108, "note": 65, "velocity": 80, "channel": 0}, {"type": "note_on", "time": 1, "note": 68, "velocity": 80, "channel": 0}, {"type": "note_off", "time": 41, "note": 68, "velocity": 80, "channel": 0}, {"type": "note_on", "time": 6, "note": 75, "velocity": 80, "channel": 0}, {"type": "note_on", "time": 43, "note": 79, "velocity": 80, "channel": 0}, {"type": "note_off", "time": 0, "note": 75, "velocity": 80, "channel": 0}, {"type": "note_off", "time": 602, "note": 79, "velocity": 80, "channel": 0}, {"type": "note_on", "time": 21, "note": 77, "velocity": 80, "channel": 0}, {"type": "note_off", "time": 121, "note": 77, "velocity": 80, "channel": 0}, {"type": "note_on", "time": 13, "note": 75, "velocity": 80, "channel": 0}, {"type": "note_off", "time": 70, "note": 75, "velocity": 80, "channel": 0}, {"type": "note_on", "time": 3, "note": 74, "velocity": 80, "channel": 0}, {"type": "note_off", "time": 71, "note": 74, "velocity": 80, "channel": 0}, {"type": "note_on", "time": 7, "note": 65, "velocity": 80, "channel": 0}, {"type": "note_off", "time": 94, "note": 65, "velocity": 80, "channel": 0}, {"type": "note_on", "time": 13, "note": 68, "velocity": 80, "channel": 0}, {"type": "note_off", "time": 81, "note": 68, "velocity": 80, "channel": 0}, {"type": "note_on", "time": 1, "note": 70, "velocity": 80, "channel": 0}, {"type": "note_off", "time": 30, "note": 70, "velocity": 80, "channel": 0}, {"type": "note_on", "time": 2, "note": 71, "velocity": 80, "channel": 0}, {"type": "note_off", "time": 68, "note": 71, "velocity": 80, "channel": 0}, {"type": "note_on", "time": 7, "note": 70, "velocity": 80, "channel": 0}, {"type": "note_off", "time": 52, "note": 70, "velocity": 80, "channel": 0}, {"type": "note_on", "time": 6, "note": 69, "velocity": 80, "channel": 0}, {"type": "note_off", "time": 93, "note": 69, "velocity": 80, "channel": 0}, {"type": "note_on", "time": 3, "note": 68, "velocity": 80, "channel": 0}, {"type": "note_off", "time": 92, "note": 68, "velocity": 80, "channel": 0}, {"type": "note_on", "time": 7, "note": 67, "velocity": 80, "channel": 0}, {"type": "note_off", "time": 39, "note": 67, "velocity": 80, "channel": 0}, {"type": "note_on", "time": 13, "note": 66, "velocity": 80, "channel": 0}, {"type": "note_off", "time": 100, "note": 66, "velocity": 80, "channel": 0}, {"type": "note_on", "time": 100, "note": 62, "velocity": 80, "channel": 0}, {"type": "note_off", "time": 105, "note": 62, "velocity": 80, "channel": 0}, {"type": "note_on", "time": 17, "note": 64, "velocity": 80, "channel": 0}, {"type": "note_off", "time": 27, "note": 64, "velocity": 80, "channel": 0}, {"type": "note_on", "time": 5, "note": 65, "velocity": 80, "channel": 0}, {"type": "note_off", "time": 261, "note": 65, "velocity": 80, "channel": 0}, {"type": "note_on", "time": 6, "note": 63, "velocity": 80, "channel": 0}, {"type": "note_off", "time": 69, "note": 63, "velocity": 80, "channel": 0}, {"type": "note_on", "time": 97, "note": 63, "velocity": 80, "channel": 0}, {"type": "note_off", "time": 95, "note": 63, "velocity": 80, "channel": 0}, {"type": "note_on", "time": 28, "note": 58, "velocity": 80, "channel": 0}, {"type": "note_off", "time": 278, "note": 58, "velocity": 80, "channel": 0}, {"type": "note_on", "time": 351, "note": 71, "velocity": 80, "channel": 0}, {"type": "note_off", "time": 43, "note": 71, "velocity": 80, "channel": 0}, {"type": "note_on", "time": 12, "note": 72, "velocity": 80, "channel": 0}, {"type": "note_off", "time": 62, "note": 72, "velocity": 80, "channel": 0}, {"type": "note_on", "time": 5, "note": 71, "velocity": 80, "channel": 0}, {"type": "note_off", "time": 94, "note": 71, "velocity": 80, "channel": 0}, {"type": "note_on", "time": 3, "note": 70, "velocity": 80, "channel": 0}, {"type": "note_off", "time": 65, "note": 70, "velocity": 80, "channel": 0}, {"type": "note_on", "time": 2, "note": 69, "velocity": 80, "channel": 0}, {"type": "note_off", "time": 90, "note": 69, "velocity": 80, "channel": 0}, {"type": "note_on", "time": 4, "note": 68, "velocity": 80, "channel": 0}, {"type": "note_off", "time": 84, "note": 68, "velocity": 80, "channel": 0}, {"type": "note_on", "time": 6, "note": 66, "velocity": 80, "channel": 0}, {"type": "note_off", "time": 132, "note": 66, "velocity": 80, "channel": 0}, {"type": "note_on", "time": 1, "note": 63, "velocity": 80, "channel": 0}, {"type": "note_off", "time": 44, "note": 63, "velocity": 80, "channel": 0}, {"type": "note_on", "time": 26, "note": 59, "velocity": 80, "channel": 0}, {"type": "note_off", "time": 73, "note": 59, "velocity": 80, "channel": 0}, {"type": "note_on", "time": 7, "note": 61, "velocity": 80, "channel": 0}, {"type": "note_off", "time": 130, "note": 61, "velocity": 80, "channel": 0}, {"type": "note_on", "time": 5, "note": 59, "velocity": 80, "channel": 0}, {"type": "note_off", "time": 70, "note": 59, "velocity": 80, "channel": 0}, {"type": "note_on", "time": 10, "note": 60, "velocity": 80, "channel": 0}, {"type": "note_off", "time": 50, "note": 60, "velocity": 80, "channel": 0}, {"type": "note_on", "time": 26, "note": 65, "velocity": 80, "channel": 0}, {"type": "note_off", "time": 121, "note": 65, "velocity": 80, "channel": 0}, {"type": "note_on", "time": 9, "note": 64, "velocity": 80, "channel": 0}, {"type": "note_off", "time": 83, "note": 64, "velocity": 80, "channel": 0}, {"type": "note_on", "time": 13, "note": 60, "velocity": 80, "channel": 0}, {"type": "note_off", "time": 42, "note": 60, "velocity": 80, "channel": 0}, {"type": "note_on", "time": 4, "note": 68, "velocity": 80, "channel": 0}, {"type": "note_off", "time": 97, "note": 68, "velocity": 80, "channel": 0}, {"type": "note_on", "time": 10, "note": 66, "velocity": 80, "channel": 0}, {"type": "note_off", "time": 94, "note": 66, "velocity": 80, "channel": 0}, {"type": "note_on", "time": 4, "note": 65, "velocity": 80, "channel": 0}, {"type": "note_off", "time": 87, "note": 65, "velocity": 80, "channel": 0}, {"type": "note_on", "time": 5, "note": 68, "velocity": 80, "channel": 0}, {"type": "note_off", "time": 39, "note": 68, "velocity": 80, "channel": 0}, {"type": "note_on", "time": 0, "note": 73, "velocity": 80, "channel": 0}, {"type": "note_off", "time": 34, "note": 73, "velocity": 80, "channel": 0}, {"type": "note_on", "time": 2, "note": 75, "velocity": 80, "channel": 0}, {"type": "note_off", "time": 139, "note": 75, "velocity": 80, "channel": 0}, {"type": "note_on", "time": 5, "note": 72, "velocity": 80, "channel": 0}, {"type": "note_on", "time": 46, "note": 73, "velocity": 80, "channel": 0}, {"type": "note_off", "time": 0, "note": 72, "velocity": 80, "channel": 0}, {"type": "note_off", "time": 101, "note": 73, "velocity": 80, "channel": 0}, {"type": "note_on", "time": 13, "note": 68, "velocity": 80, "channel": 0}, {"type": "note_off", "time": 118, "note": 68, "velocity": 80, "channel": 0}, {"type": "note_on", "time": 712, "note": 72, "velocity": 80, "channel": 0}, {"type": "note_off", "time": 118, "note": 72, "velocity": 80, "channel": 0}, {"type": "note_on", "time": 4, "note": 69, "velocity": 80, "channel": 0}, {"type": "note_off", "time": 41, "note": 69, "velocity": 80, "channel": 0}, {"type": "note_on", "time": 18, "note": 70, "velocity": 80, "channel": 0}, {"type": "note_off", "time": 95, "note": 70, "velocity": 80, "channel": 0}, {"type": "note_on", "time": 17, "note": 65, "velocity": 80, "channel": 0}, {"type": "note_off", "time": 129, "note": 65, "velocity": 80, "channel": 0}, {"type": "note_on", "time": 44, "note": 59, "velocity": 80, "channel": 0}, {"type": "note_off", "time": 29, "note": 59, "velocity": 80, "channel": 0}, {"type": "note_on", "time": 1, "note": 58, "velocity": 80, "channel": 0}, {"type": "note_off", "time": 39, "note": 58, "velocity": 80, "channel": 0}, {"type": "note_on", "time": 17, "note": 65, "velocity": 80, "channel": 0}, {"type": "note_off", "time": 141, "note": 65, "velocity": 80, "channel": 0}, {"type": "note_on", "time": 260, "note": 66, "velocity": 80, "channel": 0}, {"type": "note_off", "time": 82, "note": 66, "velocity": 80, "channel": 0}, {"type": "note_on", "time": 68, "note": 65, "velocity": 80, "channel": 0}, {"type": "note_off", "time": 155, "note": 65, "velocity": 80, "channel": 0}, {"type": "note_on", "time": 22, "note": 59, "velocity": 80, "channel": 0}, {"type": "note_off", "time": 95, "note": 59, "velocity": 80, "channel": 0}, {"type": "note_on", "time": 260, "note": 57, "velocity": 80, "channel": 0}, {"type": "note_off", "time": 93, "note": 57, "velocity": 80, "channel": 0}, {"type": "note_on", "time": 9, "note": 58, "velocity": 80, "channel": 0}, {"type": "note_off", "time": 53, "note": 58, "velocity": 80, "channel": 0}, {"type": "note_on", "time": 0, "note": 65, "velocity": 80, "channel": 0}, {"type": "note_off", "time": 99, "note": 65, "velocity": 80, "channel": 0}, {"type": "note_on", "time": 9, "note": 61, "velocity": 80, "channel": 0}, {"type": "note_off", "time": 77, "note": 61, "velocity": 80, "channel": 0}, {"type": "note_on", "time": 0, "note": 58, "velocity": 80, "channel": 0}, {"type": "note_off", "time": 73, "note": 58, "velocity": 80, "channel": 0}, {"type": "note_on", "time": 32, "note": 63, "velocity": 80, "channel": 0}, {"type": "note_off", "time": 334, "note": 63, "velocity": 80, "channel": 0}, {"type": "note_on", "time": 207, "note": 61, "velocity": 80, "channel": 0}, {"type": "note_off", "time": 98, "note": 61, "velocity": 80, "channel": 0}, {"type": "note_on", "time": 9, "note": 60, "velocity": 80, "channel": 0}, {"type": "note_off", "time": 43, "note": 60, "velocity": 80, "channel": 0}, {"type": "note_on", "time": 3, "note": 58, "velocity": 80, "channel": 0}, {"type": "note_off", "time": 49, "note": 58, "velocity": 80, "channel": 0}, {"type": "note_on", "time": 11, "note": 57, "velocity": 80, "channel": 0}, {"type": "note_off", "time": 79, "note": 57, "velocity": 80, "channel": 0}, {"type": "note_on", "time": 11, "note": 66, "velocity": 80, "channel": 0}, {"type": "note_off", "time": 102, "note": 66, "velocity": 80, "channel": 0}, {"type": "note_on", "time": 0, "note": 63, "velocity": 80, "channel": 0}, {"type": "note_off", "time": 59, "note": 63, "velocity": 80, "channel": 0}, {"type": "note_on", "time": 9, "note": 64, "velocity": 80, "channel": 0}, {"type": "note_off", "time": 54, "note": 64, "velocity": 80, "channel": 0}, {"type": "note_on", "time": 4, "note": 65, "velocity": 80, "channel": 0}, {"type": "note_off", "time": 138, "note": 65, "velocity": 80, "channel": 0}, {"type": "note_on", "time": 7, "note": 61, "velocity": 80, "channel": 0}, {"type": "note_off", "time": 63, "note": 61, "velocity": 80, "channel": 0}, {"type": "note_on", "time": 12, "note": 58, "velocity": 80, "channel": 0}, {"type": "note_off", "time": 62, "note": 58, "velocity": 80, "channel": 0}, {"type": "note_on", "time": 6, "note": 53, "velocity": 80, "channel": 0}, {"type": "note_off", "time": 108, "note": 53, "velocity": 80, "channel": 0}, {"type": "note_on", "time": 9, "note": 63, "velocity": 80, "channel": 0}, {"type": "note_off", "time": 101, "note": 63, "velocity": 80, "channel": 0}, {"type": "note_on", "time": 2, "note": 61, "velocity": 80, "channel": 0}, {"type": "note_off", "time": 90, "note": 61, "velocity": 80, "channel": 0}, {"type": "note_on", "time": 12, "note": 60, "velocity": 80, "channel": 0}, {"type": "note_off", "time": 77, "note": 60, "velocity": 80, "channel": 0}, {"type": "note_on", "time": 7, "note": 58, "velocity": 80, "channel": 0}, {"type": "note_off", "time": 74, "note": 58, "velocity": 80, "channel": 0}, {"type": "note_on", "time": 3, "note": 57, "velocity": 80, "channel": 0}, {"type": "note_off", "time": 77, "note": 57, "velocity": 80, "channel": 0}, {"type": "note_on", "time": 44, "note": 62, "velocity": 80, "channel": 0}, {"type": "note_off", "time": 41, "note": 62, "velocity": 80, "channel": 0}, {"type": "note_on", "time": 0, "note": 66, "velocity": 80, "channel": 0}, {"type": "note_off", "time": 114, "note": 66, "velocity": 80, "channel": 0}, {"type": "note_on", "time": 5, "note": 65, "velocity": 80, "channel": 0}, {"type": "note_off", "time": 102, "note": 65, "velocity": 80, "channel": 0}, {"type": "note_on", "time": 10, "note": 71, "velocity": 80, "channel": 0}, {"type": "note_off", "time": 260, "note": 71, "velocity": 80, "channel": 0}, {"type": "note_on", "time": 9, "note": 69, "velocity": 80, "channel": 0}, {"type": "note_off", "time": 76, "note": 69, "velocity": 80, "channel": 0}, {"type": "note_on", "time": 15, "note": 70, "velocity": 80, "channel": 0}, {"type": "note_off", "time": 107, "note": 70, "velocity": 80, "channel": 0}, {"type": "note_on", "time": 12, "note": 77, "velocity": 80, "channel": 0}, {"type": "note_off", "time": 130, "note": 77, "velocity": 80, "channel": 0}, {"type": "note_on", "time": 27, "note": 67, "velocity": 80, "channel": 0}, {"type": "note_off", "time": 355, "note": 67, "velocity": 80, "channel": 0}, {"type": "note_on", "time": 266, "note": 72, "velocity": 80, "channel": 0}, {"type": "note_off", "time": 52, "note": 72, "velocity": 80, "channel": 0}, {"type": "note_on", "time": 3, "note": 70, "velocity": 80, "channel": 0}, {"type": "note_off", "time": 68, "note": 70, "velocity": 80, "channel": 0}, {"type": "note_on", "time": 9, "note": 68, "velocity": 80, "channel": 0}, {"type": "note_off", "time": 61, "note": 68, "velocity": 80, "channel": 0}, {"type": "note_on", "time": 5, "note": 67, "velocity": 80, "channel": 0}, {"type": "note_off", "time": 44, "note": 67, "velocity": 80, "channel": 0}, {"type": "note_on", "time": 7, "note": 68, "velocity": 80, "channel": 0}, {"type": "note_off", "time": 66, "note": 68, "velocity": 80, "channel": 0}, {"type": "note_on", "time": 13, "note": 72, "velocity": 80, "channel": 0}, {"type": "note_off", "time": 123, "note": 72, "velocity": 80, "channel": 0}, {"type": "note_on", "time": 9, "note": 70, "velocity": 80, "channel": 0}, {"type": "note_off", "time": 54, "note": 70, "velocity": 80, "channel": 0}, {"type": "note_on", "time": 0, "note": 68, "velocity": 80, "channel": 0}, {"type": "note_off", "time": 81, "note": 68, "velocity": 80, "channel": 0}, {"type": "note_on", "time": 4, "note": 67, "velocity": 80, "channel": 0}, {"type": "note_off", "time": 62, "note": 67, "velocity": 80, "channel": 0}, {"type": "end_of_track", "time": 0}]]}