{"ticks_per_beat": 192, "tracks": [[{"type": "track_name", "name": "Melody", "time": 0}, {"type": "set_tempo", "tempo": 355029, "time": 0}, {"type": "key_signature", "key": "F", "time": 0}, {"type": "time_signature", "numerator": 4, "denominator": 4, "clocks_per_click": 24, "notated_32nd_notes_per_beat": 8, "time": 0}, {"type": "note_on", "time": 3283, "note": 60, "velocity": 106, "channel": 0}, {"type": "note_off", "time": 97, "note": 60, "velocity": 106, "channel": 0}, {"type": "note_on", "time": 0, "note": 62, "velocity": 109, "channel": 0}, {"type": "note_off", "time": 25, "note": 62, "velocity": 109, "channel": 0}, {"type": "note_on", "time": 3, "note": 64, "velocity": 110, "channel": 0}, {"type": "note_off", "time": 31, "note": 64, "velocity": 110, "channel": 0}, {"type": "note_on", "time": 3, "note": 67, "velocity": 116, "channel": 0}, {"type": "note_off", "time": 87, "note": 67, "velocity": 116, "channel": 0}, {"type": "note_on", "time": 9, "note": 65, "velocity": 122, "channel": 0}, {"type": "note_off", "time": 103, "note": 65, "velocity": 122, "channel": 0}, {"type": "note_on", "time": 19, "note": 60, "velocity": 98, "channel": 0}, {"type": "note_off", "time": 34, "note": 60, "velocity": 98, "channel": 0}, {"type": "note_on", "time": 34, "note": 64, "velocity": 115, "channel": 0}, {"type": "note_off", "time": 105, "note": 64, "velocity": 115, "channel": 0}, {"type": "note_on", "time": 6, "note": 65, "velocity": 117, "channel": 0}, {"type": "note_off", "time": 78, "note": 65, "velocity": 117, "channel": 0}, {"type": "note_on", "time": 46, "note": 58, "velocity": 89, "channel": 0}, {"type": "note_off", "time": 87, "note": 58, "velocity": 89, "channel": 0}, {"type": "note_on", "time": 7, "note": 59, "velocity": 98, "channel": 0}, {"type": "note_off", "time": 55, "note": 59, "velocity": 98, "channel": 0}, {"type": "note_on", "time": 3, "note": 62, "velocity": 116, "channel": 0}, {"type": "note_off", "time": 116, "note": 62, "velocity": 116, "channel": 0}, {"type": "note_on", "time": 24, "note": 60, "velocity": 88, "channel": 0}, {"type": "note_on", "time": 44, "note": 61, "velocity": 111, "channel": 0}, {"type": "note_off", "time": 0, "note": 60, "velocity": 88, "channel": 0}, {"type": "note_off", "time": 64, "note": 61, "velocity": 111, "channel": 0}, {"type": "note_on", "time": 0, "note": 64, "velocity": 110, "channel": 0}, {"type": "note_off", "time": 49, "note": 64, "velocity": 110, "channel": 0}, {"type": "note_on", "time": 1, "note": 67, "velocity": 116, "channel": 0}, {"type": "note_off", "time": 68, "note": 67, "velocity": 116, "channel": 0}, {"type": "note_on", "time": 44, "note": 70, "velocity": 122, "channel": 0}, {"type": "note_off", "time": 80, "note": 70, "velocity": 122, "channel": 0}, {"type": "note_on", "time": 0, "note": 72, "velocity": 111, "channel": 0}, {"type": "note_off", "time": 35, "note": 72, "velocity": 111, "channel": 0}, {"type": "note_on", "time": 1, "note": 70, "velocity": 117, "channel": 0}, {"type": "note_off", "time": 42, "note": 70, "velocity": 117, "channel": 0}, {"type": "note_on", "time": 5, "note": 69, "velocity": 119, "channel": 0}, {"type": "note_off", "time": 114, "note": 69, "velocity": 119, "channel": 0}, {"type": "note_on", "time": 15, "note": 65, "velocity": 94, "channel": 0}, {"type": "note_off", "time": 45, "note": 65, "velocity": 94, "channel": 0}, {"type": "note_on", "time": 10, "note": 67, "velocity": 119, "channel": 0}, {"type": "note_off", "time": 116, "note": 67, "velocity": 119, "channel": 0}, {"type": "note_on", "time": 0, "note": 60, "velocity": 94, "channel": 0}, {"type": "note_off", "time": 49, "note": 60, "velocity": 94, "channel": 0}, {"type": "note_on", "time": 4, "note": 62, "velocity": 114, "channel": 0}, {"type": "note_off", "time": 156, "note": 62, "velocity": 114, "channel": 0}, {"type": "note_on", "time": 0, "note": 63, "velocity": 90, "channel": 0}, {"type": "note_off", "time": 395, "note": 63, "velocity": 90, "channel": 0}, {"type": "note_on", "time": 579, "note": 65, "velocity": 123, "channel": 0}, {"type": "note_off", "time": 28, "note": 65, "velocity": 123, "channel": 0}, {"type": "note_on", "time": 7, "note": 65, "velocity": 123, "channel": 0}, {"type": "note_off", "time": 75, "note": 65, "velocity": 123, "channel": 0}, {"type": "note_on", "time": 72, "note": 70, "velocity": 111, "channel": 0}, {"type": "note_off", "time": 31, "note": 70, "velocity": 111, "channel": 0}, {"type": "note_on", "time": 8, "note": 71, "velocity": 119, "channel": 0}, {"type": "note_off", "time": 75, "note": 71, "velocity": 119, "channel": 0}, {"type": "note_on", "time": 90, "note": 70, "velocity": 116, "channel": 0}, {"type": "note_off", "time": 193, "note": 70, "velocity": 116, "channel": 0}, {"type": "note_on", "time": 63, "note": 70, "velocity": 119, "channel": 0}, {"type": "note_off", "time": 48, "note": 70, "velocity": 119, "channel": 0}, {"type": "note_on", "time": 0, "note": 71, "velocity": 114, "channel": 0}, {"type": "note_off", "time": 162, "note": 71, "velocity": 114, "channel": 0}, {"type": "note_on", "time": 0, "note": 70, "velocity": 121, "channel": 0}, {"type": "note_off", "time": 138, "note": 70, "velocity": 121, "channel": 0}, {"type": "note_on", "time": 56, "note": 67, "velocity": 120, "channel": 0}, {"type": "note_off", "time": 108, "note": 67, "velocity": 120, "channel": 0}, {"type": "note_on", "time": 3, "note": 68, "velocity": 115, "channel": 0}, {"type": "note_off", "time": 83, "note": 68, "velocity": 115, "channel": 0}, {"type": "note_on", "time": 3, "note": 65, "velocity": 118, "channel": 0}, {"type": "note_off", "time": 70, "note": 65, "velocity": 118, "channel": 0}, {"type": "note_on", "time": 23, "note": 67, "velocity": 114, "channel": 0}, {"type": "note_off", "time": 40, "note": 67, "velocity": 114, "channel": 0}, {"type": "note_on", "time": 3, "note": 65, "velocity": 114, "channel": 0}, {"type": "note_off", "time": 61, "note": 65, "velocity": 114, "channel": 0}, {"type": "note_on", "time": 9, "note": 63, "velocity": 112, "channel": 0}, {"type": "note_off", "time": 93, "note": 63, "velocity": 112, "channel": 0}, {"type": "note_on", "time": 8, "note": 60, "velocity": 106, "channel": 0}, {"type": "note_off", "time": 85, "note": 60, "velocity": 106, "channel": 0}, {"type": "note_on", "time": 0, "note": 58, "velocity": 103, "channel": 0}, {"type": "note_off", "time": 156, "note": 58, "velocity": 103, "channel": 0}, {"type": "note_on", "time": 0, "note": 53, "velocity": 106, "channel": 0}, {"type": "note_off", "time": 104, "note": 53, "velocity": 106, "channel": 0}, {"type": "note_on", "time": 0, "note": 56, "velocity": 115, "channel": 0}, {"type": "note_off", "time": 57, "note": 56, "velocity": 115, "channel": 0}, {"type": "note_on", "time": 0, "note": 57, "velocity": 113, "channel": 0}, {"type": "note_off", "time": 119, "note": 57, "velocity": 113, "channel": 0}, {"type": "note_on", "time": 0, "note": 60, "velocity": 107, "channel": 0}, {"type": "note_off", "time": 45, "note": 60, "velocity": 107, "channel": 0}, {"type": "note_on", "time": 0, "note": 63, "velocity": 118, "channel": 0}, {"type": "note_off", "time": 25, "note": 63, "velocity": 118, "channel": 0}, {"type": "note_on", "time": 0, "note": 67, "velocity": 121, "channel": 0}, {"type": "note_off", "time": 58, "note": 67, "velocity": 121, "channel": 0}, {"type": "note_on", "time": 14, "note": 65, "velocity": 120, "channel": 0}, {"type": "note_off", "time": 97, "note": 65, "velocity": 120, "channel": 0}, {"type": "note_on", "time": 69, "note": 60, "velocity": 107, "channel": 0}, {"type": "note_off", "time": 18, "note": 60, "velocity": 107, "channel": 0}, {"type": "note_on", "time": 1, "note": 62, "velocity": 115, "channel": 0}, {"type": "note_off", "time": 95, "note": 62, "velocity": 115, "channel": 0}, {"type": "note_on", "time": 16, "note": 63, "velocity": 100, "channel": 0}, {"type": "note_off", "time": 264, "note": 63, "velocity": 100, "channel": 0}, {"type": "note_on", "time": 361, "note": 61, "velocity": 118, "channel": 0}, {"type": "note_off", "time": 102, "note": 61, "velocity": 118, "channel": 0}, {"type": "note_on", "time": 0, "note": 62, "velocity": 114, "channel": 0}, {"type": "note_off", "time": 84, "note": 62, "velocity": 114, "channel": 0}, {"type": "note_on", "time": 30, "note": 70, "velocity": 120, "channel": 0}, {"type": "note_off", "time": 69, "note": 70, "velocity": 120, "channel": 0}, {"type": "note_on", "time": 0, "note": 72, "velocity": 105, "channel": 0}, {"type": "note_off", "time": 17, "note": 72, "velocity": 105, "channel": 0}, {"type": "note_on", "time": 11, "note": 70, "velocity": 112, "channel": 0}, {"type": "note_off", "time": 55, "note": 70, "velocity": 112, "channel": 0}, {"type": "note_on", "time": 11, "note": 69, "velocity": 122, "channel": 0}, {"type": "note_off", "time": 114, "note": 69, "velocity": 122, "channel": 0}, {"type": "note_on", "time": 5, "note": 67, "velocity": 110, "channel": 0}, {"type": "note_off", "time": 42, "note": 67, "velocity": 110, "channel": 0}, {"type": "note_on", "time": 29, "note": 72, "velocity": 118, "channel": 0}, {"type": "note_off", "time": 120, "note": 72, "velocity": 118, "channel": 0}, {"type": "note_on", "time": 3, "note": 67, "velocity": 119, "channel": 0}, {"type": "note_off", "time": 112, "note": 67, "velocity": 119, "channel": 0}, {"type": "note_on", "time": 240, "note": 63, "velocity": 109, "channel": 0}, {"type": "note_off", "time": 38, "note": 63, "velocity": 109, "channel": 0}, {"type": "note_on", "time": 0, "note": 64, "velocity": 107, "channel": 0}, {"type": "note_off", "time": 51, "note": 64, "velocity": 107, "channel": 0}, {"type": "note_on", "time": 2, "note": 66, "velocity": 115, "channel": 0}, {"type": "note_off", "time": 44, "note": 66, "velocity": 115, "channel": 0}, {"type": "note_on", "time": 0, "note": 67, "velocity": 107, "channel": 0}, {"type": "note_off", "time": 35, "note": 67, "velocity": 107, "channel": 0}, {"type": "note_on", "time": 0, "note": 70, "velocity": 85, "channel": 0}, {"type": "note_off", "time": 61, "note": 70, "velocity": 85, "channel": 0}, {"type": "note_on", "time": 1, "note": 75, "velocity": 108, "channel": 0}, {"type": "note_on", "time": 43, "note": 77, "velocity": 125, "channel": 0}, {"type": "note_off", "time": 0, "note": 75, "velocity": 108, "channel": 0}, {"type": "note_off", "time": 43, "note": 77, "velocity": 125, "channel": 0}, {"type": "note_on", "time": 0, "note": 76, "velocity": 112, "channel": 0}, {"type": "note_on", "time": 18, "note": 74, "velocity": 110, "channel": 0}, {"type": "note_off", "time": 0, "note": 76, "velocity": 112, "channel": 0}, {"type": "note_off", "time": 12, "note": 74, "velocity": 110, "channel": 0}, {"type": "note_on", "time": 0, "note": 75, "velocity": 106, "channel": 0}, {"type": "note_off", "time": 51, "note": 75, "velocity": 106, "channel": 0}, {"type": "note_on", "time": 0, "note": 76, "velocity": 115, "channel": 0}, {"type": "note_off", "time": 57, "note": 76, "velocity": 115, "channel": 0}, {"type": "note_on", "time": 0, "note": 73, "velocity": 112, "channel": 0}, {"type": "note_off", "time": 64, "note": 73, "velocity": 112, "channel": 0}, {"type": "note_on", "time": 0, "note": 74, "velocity": 118, "channel": 0}, {"type": "note_off", "time": 35, "note": 74, "velocity": 118, "channel": 0}, {"type": "note_on", "time": 0, "note": 75, "velocity": 122, "channel": 0}, {"type": "note_off", "time": 35, "note": 75, "velocity": 122, "channel": 0}, {"type": "note_on", "time": 4, "note": 75, "velocity": 110, "channel": 0}, {"type": "note_off", "time": 12, "note": 75, "velocity": 110, "channel": 0}, {"type": "note_on", "time": 0, "note": 73, "velocity": 118, "channel": 0}, {"type": "note_off", "time": 42, "note": 73, "velocity": 118, "channel": 0}, {"type": "note_on", "time": 0, "note": 70, "velocity": 115, "channel": 0}, {"type": "note_off", "time": 25, "note": 70, "velocity": 115, "channel": 0}, {"type": "note_on", "time": 8, "note": 70, "velocity": 98, "channel": 0}, {"type": "note_off", "time": 22, "note": 70, "velocity": 98, "channel": 0}, {"type": "note_on", "time": 0, "note": 67, "velocity": 114, "channel": 0}, {"type": "note_off", "time": 42, "note": 67, "velocity": 114, "channel": 0}, {"type": "note_on", "time": 0, "note": 72, "velocity": 113, "channel": 0}, {"type": "note_off", "time": 38, "note": 72, "velocity": 113, "channel": 0}, {"type": "note_on", "time": 0, "note": 70, "velocity": 115, "channel": 0}, {"type": "note_off", "time": 51, "note": 70, "velocity": 115, "channel": 0}, {"type": "note_on", "time": 0, "note": 69, "velocity": 111, "channel": 0}, {"type": "note_off", "time": 55, "note": 69, "velocity": 111, "channel": 0}, {"type": "note_on", "time": 0, "note": 65, "velocity": 114, "channel": 0}, {"type": "note_on", "time": 37, "note": 61, "velocity": 108, "channel": 0}, {"type": "note_off", "time": 0, "note": 65, "velocity": 114, "channel": 0}, {"type": "note_off", "time": 40, "note": 61, "velocity": 108, "channel": 0}, {"type": "note_on", "time": 0, "note": 58, "velocity": 95, "channel": 0}, {"type": "note_off", "time": 41, "note": 58, "velocity": 95, "channel": 0}, {"type": "note_on", "time": 7, "note": 60, "velocity": 98, "channel": 0}, {"type": "note_off", "time": 219, "note": 60, "velocity": 98, "channel": 0}, {"type": "note_on", "time": 851, "note": 64, "velocity": 117, "channel": 0}, {"type": "note_off", "time": 54, "note": 64, "velocity": 117, "channel": 0}, {"type": "note_on", "time": 0, "note": 65, "velocity": 115, "channel": 0}, {"type": "note_on", "time": 67, "note": 69, "velocity": 103, "channel": 0}, {"type": "note_off", "time": 0, "note": 65, "velocity": 115, "channel": 0}, {"type": "note_off", "time": 52, "note": 69, "velocity": 103, "channel": 0}, {"type": "note_on", "time": 0, "note": 72, "velocity": 115, "channel": 0}, {"type": "note_off", "time": 57, "note": 72, "velocity": 115, "channel": 0}, {"type": "note_on", "time": 10, "note": 76, "velocity": 122, "channel": 0}, {"type": "note_off", "time": 118, "note": 76, "velocity": 122, "channel": 0}, {"type": "note_on", "time": 0, "note": 77, "velocity": 119, "channel": 0}, {"type": "note_off", "time": 45, "note": 77, "velocity": 119, "channel": 0}, {"type": "note_on", "time": 0, "note": 78, "velocity": 124, "channel": 0}, {"type": "note_on", "time": 50, "note": 79, "velocity": 122, "channel": 0}, {"type": "note_off", "time": 0, "note": 78, "velocity": 124, "channel": 0}, {"type": "note_off", "time": 83, "note": 79, "velocity": 122, "channel": 0}, {"type": "note_on", "time": 0, "note": 78, "velocity": 123, "channel": 0}, {"type": "note_off", "time": 37, "note": 78, "velocity": 123, "channel": 0}, {"type": "note_on", "time": 0, "note": 77, "velocity": 125, "channel": 0}, {"type": "note_off", "time": 74, "note": 77, "velocity": 125, "channel": 0}, {"type": "note_on", "time": 0, "note": 76, "velocity": 124, "channel": 0}, {"type": "note_on", "time": 89, "note": 74, "velocity": 124, "channel": 0}, {"type": "note_off", "time": 0, "note": 76, "velocity": 124, "channel": 0}, {"type": "note_off", "time": 91, "note": 74, "velocity": 124, "channel": 0}, {"type": "note_on", "time": 1, "note": 73, "velocity": 127, "channel": 0}, {"type": "note_off", "time": 93, "note": 73, "velocity": 127, "channel": 0}, {"type": "note_on", "time": 28, "note": 64, "velocity": 111, "channel": 0}, {"type": "note_off", "time": 57, "note": 64, "velocity": 111, "channel": 0}, {"type": "note_on", "time": 2, "note": 67, "velocity": 119, "channel": 0}, {"type": "note_off", "time": 90, "note": 67, "velocity": 119, "channel": 0}, {"type": "note_on", "time": 24, "note": 69, "velocity": 120, "channel": 0}, {"type": "note_off", "time": 82, "note": 69, "velocity": 120, "channel": 0}, {"type": "note_on", "time": 30, "note": 70, "velocity": 120, "channel": 0}, {"type": "note_off", "time": 85, "note": 70, "velocity": 120, "channel": 0}, {"type": "note_on", "time": 0, "note": 72, "velocity": 114, "channel": 0}, {"type": "note_on", "time": 38, "note": 70, "velocity": 119, "channel": 0}, {"type": "note_off", "time": 0, "note": 72, "velocity": 114, "channel": 0}, {"type": "note_off", "time": 49, "note": 70, "velocity": 119, "channel": 0}, {"type": "note_on", "time": 0, "note": 69, "velocity": 120, "channel": 0}, {"type": "note_off", "time": 100, "note": 69, "velocity": 120, "channel": 0}, {"type": "note_on", "time": 24, "note": 65, "velocity": 97, "channel": 0}, {"type": "note_off", "time": 42, "note": 65, "velocity": 97, "channel": 0}, {"type": "note_on", "time": 17, "note": 67, "velocity": 117, "channel": 0}, {"type": "note_off", "time": 57, "note": 67, "velocity": 117, "channel": 0}, {"type": "note_on", "time": 0, "note": 69, "velocity": 118, "channel": 0}, {"type": "note_off", "time": 28, "note": 69, "velocity": 118, "channel": 0}, {"type": "note_on", "time": 2, "note": 67, "velocity": 115, "channel": 0}, {"type": "note_off", "time": 37, "note": 67, "velocity": 115, "channel": 0}, {"type": "note_on", "time": 0, "note": 65, "velocity": 113, "channel": 0}, {"type": "note_off", "time": 56, "note": 65, "velocity": 113, "channel": 0}, {"type": "note_on", "time": 0, "note": 62, "velocity": 112, "channel": 0}, {"type": "note_off", "time": 117, "note": 62, "velocity": 112, "channel": 0}, {"type": "note_on", "time": 0, "note": 65, "velocity": 119, "channel": 0}, {"type": "note_off", "time": 271, "note": 65, "velocity": 119, "channel": 0}, {"type": "note_on", "time": 0, "note": 67, "velocity": 103, "channel": 0}, {"type": "note_off", "time": 52, "note": 67, "velocity": 103, "channel": 0}, {"type": "note_on", "time": 0, "note": 69, "velocity": 110, "channel": 0}, {"type": "note_off", "time": 35, "note": 69, "velocity": 110, "channel": 0}, {"type": "note_on", "time": 0, "note": 67, "velocity": 113, "channel": 0}, {"type": "note_off", "time": 20, "note": 67, "velocity": 113, "channel": 0}, {"type": "note_on", "time": 0, "note": 65, "velocity": 115, "channel": 0}, {"type": "note_off", "time": 63, "note": 65, "velocity": 115, "channel": 0}, {"type": "note_on", "time": 0, "note": 63, "velocity": 105, "channel": 0}, {"type": "note_off", "time": 113, "note": 63, "velocity": 105, "channel": 0}, {"type": "note_on", "time": 0, "note": 65, "velocity": 104, "channel": 0}, {"type": "note_off", "time": 347, "note": 65, "velocity": 104, "channel": 0}, {"type": "note_on", "time": 439, "note": 60, "velocity": 118, "channel": 0}, {"type": "note_off", "time": 36, "note": 60, "velocity": 118, "channel": 0}, {"type": "note_on", "time": 0, "note": 62, "velocity": 113, "channel": 0}, {"type": "note_off", "time": 135, "note": 62, "velocity": 113, "channel": 0}, {"type": "note_on", "time": 15, "note": 65, "velocity": 117, "channel": 0}, {"type": "note_off", "time": 36, "note": 65, "velocity": 117, "channel": 0}, {"type": "note_on", "time": 0, "note": 68, "velocity": 112, "channel": 0}, {"type": "note_off", "time": 38, "note": 68, "velocity": 112, "channel": 0}, {"type": "note_on", "time": 19, "note": 72, "velocity": 123, "channel": 0}, {"type": "note_off", "time": 105, "note": 72, "velocity": 123, "channel": 0}, {"type": "note_on", "time": 6, "note": 70, "velocity": 119, "channel": 0}, {"type": "note_off", "time": 71, "note": 70, "velocity": 119, "channel": 0}, {"type": "note_on", "time": 2, "note": 68, "velocity": 120, "channel": 0}, {"type": "note_off", "time": 51, "note": 68, "velocity": 120, "channel": 0}, {"type": "note_on", "time": 0, "note": 70, "velocity": 117, "channel": 0}, {"type": "note_off", "time": 42, "note": 70, "velocity": 117, "channel": 0}, {"type": "note_on", "time": 0, "note": 68, "velocity": 119, "channel": 0}, {"type": "note_off", "time": 35, "note": 68, "velocity": 119, "channel": 0}, {"type": "note_on", "time": 0, "note": 65, "velocity": 114, "channel": 0}, {"type": "note_off", "time": 63, "note": 65, "velocity": 114, "channel": 0}, {"type": "note_on", "time": 27, "note": 67, "velocity": 122, "channel": 0}, {"type": "note_off", "time": 120, "note": 67, "velocity": 122, "channel": 0}, {"type": "note_on", "time": 20, "note": 65, "velocity": 121, "channel": 0}, {"type": "note_off", "time": 116, "note": 65, "velocity": 121, "channel": 0}, {"type": "note_on", "time": 36, "note": 63, "velocity": 114, "channel": 0}, {"type": "note_off", "time": 91, "note": 63, "velocity": 114, "channel": 0}, {"type": "note_on", "time": 35, "note": 60, "velocity": 112, "channel": 0}, {"type": "note_off", "time": 120, "note": 60, "velocity": 112, "channel": 0}, {"type": "note_on", "time": 20, "note": 58, "velocity": 109, "channel": 0}, {"type": "note_off", "time": 88, "note": 58, "velocity": 109, "channel": 0}, {"type": "note_on", "time": 19, "note": 53, "velocity": 106, "channel": 0}, {"type": "note_off", "time": 72, "note": 53, "velocity": 106, "channel": 0}, {"type": "note_on", "time": 33, "note": 57, "velocity": 113, "channel": 0}, {"type": "note_off", "time": 215, "note": 57, "velocity": 113, "channel": 0}, {"type": "note_on", "time": 9, "note": 60, "velocity": 103, "channel": 0}, {"type": "note_off", "time": 20, "note": 60, "velocity": 103, "channel": 0}, {"type": "note_on", "time": 0, "note": 62, "velocity": 103, "channel": 0}, {"type": "note_on", "time": 25, "note": 64, "velocity": 116, "channel": 0}, {"type": "note_off", "time": 0, "note": 62, "velocity": 103, "channel": 0}, {"type": "note_off", "time": 36, "note": 64, "velocity": 116, "channel": 0}, {"type": "note_on", "time": 5, "note": 67, "velocity": 102, "channel": 0}, {"type": "note_off", "time": 54, "note": 67, "velocity": 102, "channel": 0}, {"type": "note_on", "time": 22, "note": 72, "velocity": 122, "channel": 0}, {"type": "note_off", "time": 84, "note": 72, "velocity": 122, "channel": 0}, {"type": "note_on", "time": 16, "note": 67, "velocity": 116, "channel": 0}, {"type": "note_off", "time": 76, "note": 67, "velocity": 116, "channel": 0}, {"type": "note_on", "time": 8, "note": 64, "velocity": 108, "channel": 0}, {"type": "note_off", "time": 82, "note": 64, "velocity": 108, "channel": 0}, {"type": "note_on", "time": 15, "note": 61, "velocity": 93, "channel": 0}, {"type": "note_off", "time": 66, "note": 61, "velocity": 93, "channel": 0}, {"type": "note_on", "time": 32, "note": 73, "velocity": 124, "channel": 0}, {"type": "note_off", "time": 107, "note": 73, "velocity": 124, "channel": 0}, {"type": "note_on", "time": 7, "note": 71, "velocity": 117, "channel": 0}, {"type": "note_off", "time": 68, "note": 71, "velocity": 117, "channel": 0}, {"type": "note_on", "time": 0, "note": 66, "velocity": 112, "channel": 0}, {"type": "note_off", "time": 72, "note": 66, "velocity": 112, "channel": 0}, {"type": "note_on", "time": 4, "note": 63, "velocity": 97, "channel": 0}, {"type": "note_off", "time": 52, "note": 63, "velocity": 97, "channel": 0}, {"type": "note_on", "time": 0, "note": 59, "velocity": 95, "channel": 0}, {"type": "note_off", "time": 55, "note": 59, "velocity": 95, "channel": 0}, {"type": "note_on", "time": 14, "note": 70, "velocity": 121, "channel": 0}, {"type": "note_off", "time": 132, "note": 70, "velocity": 121, "channel": 0}, {"type": "note_on", "time": 0, "note": 68, "velocity": 118, "channel": 0}, {"type": "note_off", "time": 132, "note": 68, "velocity": 118, "channel": 0}, {"type": "note_on", "time": 379, "note": 63, "velocity": 114, "channel": 0}, {"type": "note_off", "time": 57, "note": 63, "velocity": 114, "channel": 0}, {"type": "note_on", "time": 0, "note": 64, "velocity": 111, "channel": 0}, {"type": "note_off", "time": 45, "note": 64, "velocity": 111, "channel": 0}, {"type": "note_on", "time": 3, "note": 66, "velocity": 115, "channel": 0}, {"type": "note_off", "time": 41, "note": 66, "velocity": 115, "channel": 0}, {"type": "note_on", "time": 0, "note": 68, "velocity": 108, "channel": 0}, {"type": "note_off", "time": 41, "note": 68, "velocity": 108, "channel": 0}, {"type": "note_on", "time": 0, "note": 71, "velocity": 86, "channel": 0}, {"type": "note_off", "time": 40, "note": 71, "velocity": 86, "channel": 0}, {"type": "note_on", "time": 0, "note": 75, "velocity": 98, "channel": 0}, {"type": "note_off", "time": 43, "note": 75, "velocity": 98, "channel": 0}, {"type": "note_on", "time": 12, "note": 77, "velocity": 119, "channel": 0}, {"type": "note_off", "time": 72, "note": 77, "velocity": 119, "channel": 0}, {"type": "note_on", "time": 209, "note": 63, "velocity": 107, "channel": 0}, {"type": "note_off", "time": 49, "note": 63, "velocity": 107, "channel": 0}, {"type": "note_on", "time": 0, "note": 64, "velocity": 112, "channel": 0}, {"type": "note_off", "time": 35, "note": 64, "velocity": 112, "channel": 0}, {"type": "note_on", "time": 5, "note": 67, "velocity": 117, "channel": 0}, {"type": "note_off", "time": 42, "note": 67, "velocity": 117, "channel": 0}, {"type": "note_on", "time": 7, "note": 69, "velocity": 114, "channel": 0}, {"type": "note_off", "time": 32, "note": 69, "velocity": 114, "channel": 0}, {"type": "note_on", "time": 1, "note": 70, "velocity": 90, "channel": 0}, {"type": "note_off", "time": 29, "note": 70, "velocity": 90, "channel": 0}, {"type": "note_on", "time": 55, "note": 73, "velocity": 118, "channel": 0}, {"type": "note_on", "time": 62, "note": 72, "velocity": 117, "channel": 0}, {"type": "note_off", "time": 0, "note": 73, "velocity": 118, "channel": 0}, {"type": "note_off", "time": 47, "note": 72, "velocity": 117, "channel": 0}, {"type": "note_on", "time": 5, "note": 70, "velocity": 113, "channel": 0}, {"type": "note_off", "time": 32, "note": 70, "velocity": 113, "channel": 0}, {"type": "note_on", "time": 0, "note": 69, "velocity": 117, "channel": 0}, {"type": "note_off", "time": 54, "note": 69, "velocity": 117, "channel": 0}, {"type": "note_on", "time": 0, "note": 67, "velocity": 118, "channel": 0}, {"type": "note_off", "time": 42, "note": 67, "velocity": 118, "channel": 0}, {"type": "note_on", "time": 4, "note": 65, "velocity": 118, "channel": 0}, {"type": "note_off", "time": 42, "note": 65, "velocity": 118, "channel": 0}, {"type": "note_on", "time": 0, "note": 64, "velocity": 101, "channel": 0}, {"type": "note_off", "time": 51, "note": 64, "velocity": 101, "channel": 0}, {"type": "note_on", "time": 2, "note": 55, "velocity": 107, "channel": 0}, {"type": "note_off", "time": 38, "note": 55, "velocity": 107, "channel": 0}, {"type": "note_on", "time": 0, "note": 58, "velocity": 107, "channel": 0}, {"type": "note_off", "time": 49, "note": 58, "velocity": 107, "channel": 0}, {"type": "note_on", "time": 7, "note": 61, "velocity": 114, "channel": 0}, {"type": "note_off", "time": 40, "note": 61, "velocity": 114, "channel": 0}, {"type": "note_on", "time": 0, "note": 60, "velocity": 104, "channel": 0}, {"type": "note_off", "time": 41, "note": 60, "velocity": 104, "channel": 0}, {"type": "note_on", "time": 10, "note": 57, "velocity": 101, "channel": 0}, {"type": "note_off", "time": 30, "note": 57, "velocity": 101, "channel": 0}, {"type": "note_on", "time": 0, "note": 58, "velocity": 106, "channel": 0}, {"type": "note_off", "time": 36, "note": 58, "velocity": 106, "channel": 0}, {"type": "note_on", "time": 15, "note": 69, "velocity": 115, "channel": 0}, {"type": "note_off", "time": 77, "note": 69, "velocity": 115, "channel": 0}, {"type": "note_on", "time": 0, "note": 63, "velocity": 97, "channel": 0}, {"type": "note_off", "time": 44, "note": 63, "velocity": 97, "channel": 0}, {"type": "note_on", "time": 2, "note": 64, "velocity": 104, "channel": 0}, {"type": "note_off", "time": 38, "note": 64, "velocity": 104, "channel": 0}, {"type": "note_on", "time": 0, "note": 67, "velocity": 118, "channel": 0}, {"type": "note_off", "time": 70, "note": 67, "velocity": 118, "channel": 0}, {"type": "note_on", "time": 252, "note": 59, "velocity": 113, "channel": 0}, {"type": "note_off", "time": 27, "note": 59, "velocity": 113, "channel": 0}, {"type": "note_on", "time": 0, "note": 60, "velocity": 109, "channel": 0}, {"type": "note_off", "time": 626, "note": 60, "velocity": 109, "channel": 0}, {"type": "note_on", "time": 7, "note": 62, "velocity": 117, "channel": 0}, {"type": "note_off", "time": 105, "note": 62, "velocity": 117, "channel": 0}, {"type": "note_on", "time": 6, "note": 60, "velocity": 95, "channel": 0}, {"type": "note_off", "time": 48, "note": 60, "velocity": 95, "channel": 0}, {"type": "note_on", "time": 27, "note": 67, "velocity": 119, "channel": 0}, {"type": "note_off", "time": 47, "note": 67, "velocity": 119, "channel": 0}, {"type": "note_on", "time": 0, "note": 69, "velocity": 119, "channel": 0}, {"type": "note_off", "time": 77, "note": 69, "velocity": 119, "channel": 0}, {"type": "note_on", "time": 0, "note": 72, "velocity": 112, "channel": 0}, {"type": "note_off", "time": 23, "note": 72, "velocity": 112, "channel": 0}, {"type": "note_on", "time": 0, "note": 69, "velocity": 118, "channel": 0}, {"type": "note_off", "time": 65, "note": 69, "velocity": 118, "channel": 0}, {"type": "note_on", "time": 0, "note": 67, "velocity": 119, "channel": 0}, {"type": "note_off", "time": 95, "note": 67, "velocity": 119, "channel": 0}, {"type": "note_on", "time": 8, "note": 65, "velocity": 119, "channel": 0}, {"type": "note_off", "time": 108, "note": 65, "velocity": 119, "channel": 0}, {"type": "note_on", "time": 276, "note": 69, "velocity": 121, "channel": 0}, {"type": "note_off", "time": 76, "note": 69, "velocity": 121, "channel": 0}, {"type": "note_on", "time": 0, "note": 70, "velocity": 109, "channel": 0}, {"type": "note_off", "time": 71, "note": 70, "velocity": 109, "channel": 0}, {"type": "note_on", "time": 0, "note": 72, "velocity": 113, "channel": 0}, {"type": "note_off", "time": 28, "note": 72, "velocity": 113, "channel": 0}, {"type": "note_on", "time": 0, "note": 69, "velocity": 121, "channel": 0}, {"type": "note_off", "time": 71, "note": 69, "velocity": 121, "channel": 0}, {"type": "note_on", "time": 23, "note": 67, "velocity": 120, "channel": 0}, {"type": "note_off", "time": 101, "note": 67, "velocity": 120, "channel": 0}, {"type": "note_on", "time": 2, "note": 65, "velocity": 121, "channel": 0}, {"type": "note_off", "time": 90, "note": 65, "velocity": 121, "channel": 0}, {"type": "note_on", "time": 2, "note": 64, "velocity": 109, "channel": 0}, {"type": "note_off", "time": 80, "note": 64, "velocity": 109, "channel": 0}, {"type": "note_on", "time": 23, "note": 62, "velocity": 114, "channel": 0}, {"type": "note_off", "time": 105, "note": 62, "velocity": 114, "channel": 0}, {"type": "note_on", "time": 9, "note": 61, "velocity": 114, "channel": 0}, {"type": "note_off", "time": 85, "note": 61, "velocity": 114, "channel": 0}, {"type": "note_on", "time": 9, "note": 64, "velocity": 114, "channel": 0}, {"type": "note_off", "time": 97, "note": 64, "velocity": 114, "channel": 0}, {"type": "note_on", "time": 0, "note": 62, "velocity": 112, "channel": 0}, {"type": "note_off", "time": 96, "note": 62, "velocity": 112, "channel": 0}, {"type": "note_on", "time": 27, "note": 61, "velocity": 108, "channel": 0}, {"type": "note_off", "time": 63, "note": 61, "velocity": 108, "channel": 0}, {"type": "note_on", "time": 0, "note": 62, "velocity": 117, "channel": 0}, {"type": "note_off", "time": 102, "note": 62, "velocity": 117, "channel": 0}, {"type": "note_on", "time": 1, "note": 64, "velocity": 114, "channel": 0}, {"type": "note_off", "time": 86, "note": 64, "velocity": 114, "channel": 0}, {"type": "note_on", "time": 17, "note": 65, "velocity": 119, "channel": 0}, {"type": "note_off", "time": 94, "note": 65, "velocity": 119, "channel": 0}, {"type": "note_on", "time": 4, "note": 67, "velocity": 118, "channel": 0}, {"type": "note_off", "time": 87, "note": 67, "velocity": 118, "channel": 0}, {"type": "note_on", "time": 0, "note": 69, "velocity": 122, "channel": 0}, {"type": "note_off", "time": 149, "note": 69, "velocity": 122, "channel": 0}, {"type": "note_on", "time": 28, "note": 62, "velocity": 114, "channel": 0}, {"type": "note_off", "time": 147, "note": 62, "velocity": 114, "channel": 0}, {"type": "note_on", "time": 0, "note": 63, "velocity": 95, "channel": 0}, {"type": "note_off", "time": 335, "note": 63, "velocity": 95, "channel": 0}, {"type": "note_on", "time": 419, "note": 70, "velocity": 113, "channel": 0}, {"type": "note_off", "time": 47, "note": 70, "velocity": 113, "channel": 0}, {"type": "note_on", "time": 24, "note": 72, "velocity": 118, "channel": 0}, {"type": "note_off", "time": 150, "note": 72, "velocity": 118, "channel": 0}, {"type": "note_on", "time": 35, "note": 77, "velocity": 120, "channel": 0}, {"type": "note_off", "time": 129, "note": 77, "velocity": 120, "channel": 0}, {"type": "note_on", "time": 0, "note": 73, "velocity": 116, "channel": 0}, {"type": "note_on", "time": 36, "note": 70, "velocity": 116, "channel": 0}, {"type": "note_off", "time": 0, "note": 73, "velocity": 116, "channel": 0}, {"type": "note_off", "time": 34, "note": 70, "velocity": 116, "channel": 0}, {"type": "note_on", "time": 0, "note": 68, "velocity": 118, "channel": 0}, {"type": "note_off", "time": 124, "note": 68, "velocity": 118, "channel": 0}, {"type": "note_on", "time": 1, "note": 65, "velocity": 111, "channel": 0}, {"type": "note_off", "time": 203, "note": 65, "velocity": 111, "channel": 0}, {"type": "note_on", "time": 188, "note": 60, "velocity": 104, "channel": 0}, {"type": "note_off", "time": 36, "note": 60, "velocity": 104, "channel": 0}, {"type": "note_on", "time": 11, "note": 71, "velocity": 119, "channel": 0}, {"type": "note_off", "time": 87, "note": 71, "velocity": 119, "channel": 0}, {"type": "note_on", "time": 24, "note": 70, "velocity": 110, "channel": 0}, {"type": "note_off", "time": 74, "note": 70, "velocity": 110, "channel": 0}, {"type": "note_on", "time": 2, "note": 68, "velocity": 114, "channel": 0}, {"type": "note_off", "time": 49, "note": 68, "velocity": 114, "channel": 0}, {"type": "note_on", "time": 0, "note": 70, "velocity": 111, "channel": 0}, {"type": "note_off", "time": 40, "note": 70, "velocity": 111, "channel": 0}, {"type": "note_on", "time": 1, "note": 68, "velocity": 118, "channel": 0}, {"type": "note_off", "time": 43, "note": 68, "velocity": 118, "channel": 0}, {"type": "note_on", "time": 0, "note": 65, "velocity": 114, "channel": 0}, {"type": "note_off", "time": 54, "note": 65, "velocity": 114, "channel": 0}, {"type": "note_on", "time": 36, "note": 67, "velocity": 120, "channel": 0}, {"type": "note_off", "time": 64, "note": 67, "velocity": 120, "channel": 0}, {"type": "note_on", "time": 0, "note": 69, "velocity": 121, "channel": 0}, {"type": "note_off", "time": 157, "note": 69, "velocity": 121, "channel": 0}, {"type": "note_on", "time": 0, "note": 72, "velocity": 111, "channel": 0}, {"type": "note_on", "time": 22, "note": 69, "velocity": 117, "channel": 0}, {"type": "note_off", "time": 0, "note": 72, "velocity": 111, "channel": 0}, {"type": "note_off", "time": 61, "note": 69, "velocity": 117, "channel": 0}, {"type": "note_on", "time": 3, "note": 64, "velocity": 107, "channel": 0}, {"type": "note_off", "time": 48, "note": 64, "velocity": 107, "channel": 0}, {"type": "note_on", "time": 2, "note": 62, "velocity": 110, "channel": 0}, {"type": "note_off", "time": 28, "note": 62, "velocity": 110, "channel": 0}, {"type": "note_on", "time": 22, "note": 62, "velocity": 98, "channel": 0}, {"type": "note_off", "time": 282, "note": 62, "velocity": 98, "channel": 0}, {"type": "note_on", "time": 897, "note": 63, "velocity": 105, "channel": 0}, {"type": "note_off", "time": 63, "note": 63, "velocity": 105, "channel": 0}, {"type": "note_on", "time": 0, "note": 64, "velocity": 110, "channel": 0}, {"type": "note_on", "time": 34, "note": 67, "velocity": 116, "channel": 0}, {"type": "note_off", "time": 0, "note": 64, "velocity": 110, "channel": 0}, {"type": "note_off", "time": 44, "note": 67, "velocity": 116, "channel": 0}, {"type": "note_on", "time": 1, "note": 69, "velocity": 116, "channel": 0}, {"type": "note_off", "time": 43, "note": 69, "velocity": 116, "channel": 0}, {"type": "note_on", "time": 0, "note": 70, "velocity": 93, "channel": 0}, {"type": "note_off", "time": 47, "note": 70, "velocity": 93, "channel": 0}, {"type": "note_on", "time": 0, "note": 71, "velocity": 100, "channel": 0}, {"type": "note_off", "time": 47, "note": 71, "velocity": 100, "channel": 0}, {"type": "note_on", "time": 2, "note": 72, "velocity": 120, "channel": 0}, {"type": "note_off", "time": 60, "note": 72, "velocity": 120, "channel": 0}, {"type": "note_on", "time": 0, "note": 71, "velocity": 110, "channel": 0}, {"type": "note_off", "time": 60, "note": 71, "velocity": 110, "channel": 0}, {"type": "note_on", "time": 0, "note": 70, "velocity": 105, "channel": 0}, {"type": "note_off", "time": 43, "note": 70, "velocity": 105, "channel": 0}, {"type": "note_on", "time": 138, "note": 63, "velocity": 108, "channel": 0}, {"type": "note_off", "time": 62, "note": 63, "velocity": 108, "channel": 0}, {"type": "note_on", "time": 0, "note": 64, "velocity": 113, "channel": 0}, {"type": "note_off", "time": 24, "note": 64, "velocity": 113, "channel": 0}, {"type": "note_on", "time": 0, "note": 67, "velocity": 116, "channel": 0}, {"type": "note_off", "time": 25, "note": 67, "velocity": 116, "channel": 0}, {"type": "note_on", "time": 0, "note": 69, "velocity": 114, "channel": 0}, {"type": "note_off", "time": 40, "note": 69, "velocity": 114, "channel": 0}, {"type": "note_on", "time": 0, "note": 70, "velocity": 86, "channel": 0}, {"type": "note_off", "time": 54, "note": 70, "velocity": 86, "channel": 0}, {"type": "note_on", "time": 0, "note": 71, "velocity": 94, "channel": 0}, {"type": "note_off", "time": 56, "note": 71, "velocity": 94, "channel": 0}, {"type": "note_on", "time": 0, "note": 72, "velocity": 111, "channel": 0}, {"type": "note_off", "time": 63, "note": 72, "velocity": 111, "channel": 0}, {"type": "note_on", "time": 0, "note": 71, "velocity": 113, "channel": 0}, {"type": "note_off", "time": 35, "note": 71, "velocity": 113, "channel": 0}, {"type": "note_on", "time": 0, "note": 70, "velocity": 112, "channel": 0}, {"type": "note_off", "time": 51, "note": 70, "velocity": 112, "channel": 0}, {"type": "note_on", "time": 0, "note": 69, "velocity": 117, "channel": 0}, {"type": "note_off", "time": 70, "note": 69, "velocity": 117, "channel": 0}, {"type": "note_on", "time": 0, "note": 67, "velocity": 115, "channel": 0}, {"type": "note_off", "time": 36, "note": 67, "velocity": 115, "channel": 0}, {"type": "note_on", "time": 0, "note": 65, "velocity": 112, "channel": 0}, {"type": "note_off", "time": 41, "note": 65, "velocity": 112, "channel": 0}, {"type": "note_on", "time": 0, "note": 64, "velocity": 101, "channel": 0}, {"type": "note_off", "time": 52, "note": 64, "velocity": 101, "channel": 0}, {"type": "note_on", "time": 15, "note": 67, "velocity": 104, "channel": 0}, {"type": "note_off", "time": 18, "note": 67, "velocity": 104, "channel": 0}, {"type": "note_on", "time": 8, "note": 70, "velocity": 115, "channel": 0}, {"type": "note_off", "time": 51, "note": 70, "velocity": 115, "channel": 0}, {"type": "note_on", "time": 0, "note": 73, "velocity": 119, "channel": 0}, {"type": "note_off", "time": 64, "note": 73, "velocity": 119, "channel": 0}, {"type": "note_on", "time": 37, "note": 70, "velocity": 99, "channel": 0}, {"type": "note_off", "time": 31, "note": 70, "velocity": 99, "channel": 0}, {"type": "note_on", "time": 4, "note": 70, "velocity": 112, "channel": 0}, {"type": "note_off", "time": 51, "note": 70, "velocity": 112, "channel": 0}, {"type": "note_on", "time": 0, "note": 72, "velocity": 105, "channel": 0}, {"type": "note_off", "time": 27, "note": 72, "velocity": 105, "channel": 0}, {"type": "note_on", "time": 1, "note": 70, "velocity": 113, "channel": 0}, {"type": "note_on", "time": 41, "note": 69, "velocity": 111, "channel": 0}, {"type": "note_off", "time": 0, "note": 70, "velocity": 113, "channel": 0}, {"type": "note_off", "time": 47, "note": 69, "velocity": 111, "channel": 0}, {"type": "note_on", "time": 1, "note": 67, "velocity": 114, "channel": 0}, {"type": "note_off", "time": 58, "note": 67, "velocity": 114, "channel": 0}, {"type": "note_on", "time": 0, "note": 65, "velocity": 92, "channel": 0}, {"type": "note_off", "time": 38, "note": 65, "velocity": 92, "channel": 0}, {"type": "note_on", "time": 263, "note": 62, "velocity": 107, "channel": 0}, {"type": "note_off", "time": 31, "note": 62, "velocity": 107, "channel": 0}, {"type": "note_on", "time": 2, "note": 64, "velocity": 109, "channel": 0}, {"type": "note_on", "time": 400, "note": 67, "velocity": 117, "channel": 0}, {"type": "note_off", "time": 0, "note": 64, "velocity": 109, "channel": 0}, {"type": "note_off", "time": 47, "note": 67, "velocity": 117, "channel": 0}, {"type": "note_on", "time": 0, "note": 65, "velocity": 120, "channel": 0}, {"type": "note_off", "time": 40, "note": 65, "velocity": 120, "channel": 0}, {"type": "note_on", "time": 1, "note": 64, "velocity": 109, "channel": 0}, {"type": "note_off", "time": 48, "note": 64, "velocity": 109, "channel": 0}, {"type": "note_on", "time": 0, "note": 62, "velocity": 108, "channel": 0}, {"type": "note_off", "time": 47, "note": 62, "velocity": 108, "channel": 0}, {"type": "note_on", "time": 2, "note": 61, "velocity": 110, "channel": 0}, {"type": "note_off", "time": 76, "note": 61, "velocity": 110, "channel": 0}, {"type": "note_on", "time": 7, "note": 65, "velocity": 117, "channel": 0}, {"type": "note_off", "time": 56, "note": 65, "velocity": 117, "channel": 0}, {"type": "note_on", "time": 0, "note": 61, "velocity": 110, "channel": 0}, {"type": "note_on", "time": 48, "note": 60, "velocity": 108, "channel": 0}, {"type": "note_off", "time": 0, "note": 61, "velocity": 110, "channel": 0}, {"type": "note_off", "time": 37, "note": 60, "velocity": 108, "channel": 0}, {"type": "note_on", "time": 24, "note": 58, "velocity": 103, "channel": 0}, {"type": "note_off", "time": 45, "note": 58, "velocity": 103, "channel": 0}, {"type": "note_on", "time": 2, "note": 57, "velocity": 109, "channel": 0}, {"type": "note_off", "time": 36, "note": 57, "velocity": 109, "channel": 0}, {"type": "note_on", "time": 0, "note": 60, "velocity": 109, "channel": 0}, {"type": "note_off", "time": 43, "note": 60, "velocity": 109, "channel": 0}, {"type": "note_on", "time": 0, "note": 64, "velocity": 116, "channel": 0}, {"type": "note_off", "time": 31, "note": 64, "velocity": 116, "channel": 0}, {"type": "note_on", "time": 1, "note": 65, "velocity": 117, "channel": 0}, {"type": "note_off", "time": 63, "note": 65, "velocity": 117, "channel": 0}, {"type": "note_on", "time": 0, "note": 62, "velocity": 116, "channel": 0}, {"type": "note_off", "time": 62, "note": 62, "velocity": 116, "channel": 0}, {"type": "note_on", "time": 0, "note": 64, "velocity": 114, "channel": 0}, {"type": "note_off", "time": 51, "note": 64, "velocity": 114, "channel": 0}, {"type": "note_on", "time": 0, "note": 60, "velocity": 108, "channel": 0}, {"type": "note_off", "time": 154, "note": 60, "velocity": 108, "channel": 0}, {"type": "end_of_track", "time": 0}]]}