{"ticks_per_beat": 192, "tracks": [[{"type": "track_name", "name": "Melody", "time": 0}, {"type": "set_tempo", "tempo": 295566, "time": 0}, {"type": "key_signature", "key": "Bb", "time": 0}, {"type": "time_signature", "numerator": 4, "denominator": 4, "clocks_per_click": 24, "notated_32nd_notes_per_beat": 8, "time": 0}, {"type": "note_on", "time": 3947, "note": 74, "velocity": 115, "channel": 0}, {"type": "note_off", "time": 88, "note": 74, "velocity": 115, "channel": 0}, {"type": "note_on", "time": 18, "note": 79, "velocity": 115, "channel": 0}, {"type": "note_off", "time": 64, "note": 79, "velocity": 115, "channel": 0}, {"type": "note_on", "time": 33, "note": 74, "velocity": 115, "channel": 0}, {"type": "note_off", "time": 72, "note": 74, "velocity": 115, "channel": 0}, {"type": "note_on", "time": 26, "note": 72, "velocity": 116, "channel": 0}, {"type": "note_off", "time": 78, "note": 72, "velocity": 116, "channel": 0}, {"type": "note_on", "time": 21, "note": 72, "velocity": 117, "channel": 0}, {"type": "note_off", "time": 157, "note": 72, "velocity": 117, "channel": 0}, {"type": "note_on", "time": 13, "note": 70, "velocity": 108, "channel": 0}, {"type": "note_off", "time": 88, "note": 70, "velocity": 108, "channel": 0}, {"type": "note_on", "time": 29, "note": 74, "velocity": 115, "channel": 0}, {"type": "note_off", "time": 673, "note": 74, "velocity": 115, "channel": 0}, {"type": "note_on", "time": 82, "note": 70, "velocity": 114, "channel": 0}, {"type": "note_off", "time": 91, "note": 70, "velocity": 114, "channel": 0}, {"type": "note_on", "time": 49, "note": 70, "velocity": 114, "channel": 0}, {"type": "note_off", "time": 110, "note": 70, "velocity": 114, "channel": 0}, {"type": "note_on", "time": 16, "note": 69, "velocity": 109, "channel": 0}, {"type": "note_off", "time": 68, "note": 69, "velocity": 109, "channel": 0}, {"type": "note_on", "time": 65, "note": 70, "velocity": 112, "channel": 0}, {"type": "note_off", "time": 170, "note": 70, "velocity": 112, "channel": 0}, {"type": "note_on", "time": 87, "note": 67, "velocity": 107, "channel": 0}, {"type": "note_off", "time": 99, "note": 67, "velocity": 107, "channel": 0}, {"type": "note_on", "time": 102, "note": 67, "velocity": 109, "channel": 0}, {"type": "note_off", "time": 154, "note": 67, "velocity": 109, "channel": 0}, {"type": "note_on", "time": 12, "note": 65, "velocity": 101, "channel": 0}, {"type": "note_off", "time": 68, "note": 65, "velocity": 101, "channel": 0}, {"type": "note_on", "time": 68, "note": 67, "velocity": 100, "channel": 0}, {"type": "note_off", "time": 290, "note": 67, "velocity": 100, "channel": 0}, {"type": "note_on", "time": 480, "note": 75, "velocity": 115, "channel": 0}, {"type": "note_off", "time": 115, "note": 75, "velocity": 115, "channel": 0}, {"type": "note_on", "time": 30, "note": 75, "velocity": 119, "channel": 0}, {"type": "note_off", "time": 129, "note": 75, "velocity": 119, "channel": 0}, {"type": "note_on", "time": 9, "note": 77, "velocity": 117, "channel": 0}, {"type": "note_off", "time": 98, "note": 77, "velocity": 117, "channel": 0}, {"type": "note_on", "time": 90, "note": 79, "velocity": 111, "channel": 0}, {"type": "note_off", "time": 554, "note": 79, "velocity": 111, "channel": 0}, {"type": "note_on", "time": 15, "note": 77, "velocity": 118, "channel": 0}, {"type": "note_off", "time": 100, "note": 77, "velocity": 118, "channel": 0}, {"type": "note_on", "time": 21, "note": 75, "velocity": 119, "channel": 0}, {"type": "note_off", "time": 95, "note": 75, "velocity": 119, "channel": 0}, {"type": "note_on", "time": 10, "note": 74, "velocity": 116, "channel": 0}, {"type": "note_off", "time": 142, "note": 74, "velocity": 116, "channel": 0}, {"type": "note_on", "time": 46, "note": 72, "velocity": 110, "channel": 0}, {"type": "note_off", "time": 84, "note": 72, "velocity": 110, "channel": 0}, {"type": "note_on", "time": 56, "note": 74, "velocity": 107, "channel": 0}, {"type": "note_off", "time": 286, "note": 74, "velocity": 107, "channel": 0}, {"type": "note_on", "time": 53, "note": 72, "velocity": 114, "channel": 0}, {"type": "note_off", "time": 93, "note": 72, "velocity": 114, "channel": 0}, {"type": "note_on", "time": 22, "note": 72, "velocity": 111, "channel": 0}, {"type": "note_off", "time": 131, "note": 72, "velocity": 111, "channel": 0}, {"type": "note_on", "time": 8, "note": 70, "velocity": 106, "channel": 0}, {"type": "note_off", "time": 59, "note": 70, "velocity": 106, "channel": 0}, {"type": "note_on", "time": 86, "note": 72, "velocity": 110, "channel": 0}, {"type": "note_off", "time": 287, "note": 72, "velocity": 110, "channel": 0}, {"type": "note_on", "time": 86, "note": 70, "velocity": 113, "channel": 0}, {"type": "note_off", "time": 103, "note": 70, "velocity": 113, "channel": 0}, {"type": "note_on", "time": 17, "note": 70, "velocity": 113, "channel": 0}, {"type": "note_off", "time": 134, "note": 70, "velocity": 113, "channel": 0}, {"type": "note_on", "time": 16, "note": 70, "velocity": 115, "channel": 0}, {"type": "note_off", "time": 94, "note": 70, "velocity": 115, "channel": 0}, {"type": "note_on", "time": 99, "note": 71, "velocity": 111, "channel": 0}, {"type": "note_off", "time": 927, "note": 71, "velocity": 111, "channel": 0}, {"type": "note_on", "time": 30, "note": 70, "velocity": 109, "channel": 0}, {"type": "note_off", "time": 141, "note": 70, "velocity": 109, "channel": 0}, {"type": "note_on", "time": 81, "note": 70, "velocity": 109, "channel": 0}, {"type": "note_off", "time": 138, "note": 70, "velocity": 109, "channel": 0}, {"type": "note_on", "time": 30, "note": 67, "velocity": 102, "channel": 0}, {"type": "note_off", "time": 116, "note": 67, "velocity": 102, "channel": 0}, {"type": "note_on", "time": 32, "note": 65, "velocity": 103, "channel": 0}, {"type": "note_off", "time": 35, "note": 65, "velocity": 103, "channel": 0}, {"type": "note_on", "time": 16, "note": 67, "velocity": 102, "channel": 0}, {"type": "note_off", "time": 254, "note": 67, "velocity": 102, "channel": 0}, {"type": "note_on", "time": 59, "note": 67, "velocity": 100, "channel": 0}, {"type": "note_off", "time": 151, "note": 67, "velocity": 100, "channel": 0}, {"type": "note_on", "time": 1172, "note": 67, "velocity": 114, "channel": 0}, {"type": "note_off", "time": 68, "note": 67, "velocity": 114, "channel": 0}, {"type": "note_on", "time": 23, "note": 70, "velocity": 116, "channel": 0}, {"type": "note_off", "time": 103, "note": 70, "velocity": 116, "channel": 0}, {"type": "note_on", "time": 11, "note": 72, "velocity": 118, "channel": 0}, {"type": "note_off", "time": 84, "note": 72, "velocity": 118, "channel": 0}, {"type": "note_on", "time": 25, "note": 72, "velocity": 117, "channel": 0}, {"type": "note_off", "time": 104, "note": 72, "velocity": 117, "channel": 0}, {"type": "note_on", "time": 20, "note": 74, "velocity": 115, "channel": 0}, {"type": "note_off", "time": 65, "note": 74, "velocity": 115, "channel": 0}, {"type": "note_on", "time": 87, "note": 74, "velocity": 115, "channel": 0}, {"type": "note_off", "time": 635, "note": 74, "velocity": 115, "channel": 0}, {"type": "note_on", "time": 39, "note": 72, "velocity": 115, "channel": 0}, {"type": "note_off", "time": 89, "note": 72, "velocity": 115, "channel": 0}, {"type": "note_on", "time": 18, "note": 72, "velocity": 115, "channel": 0}, {"type": "note_off", "time": 79, "note": 72, "velocity": 115, "channel": 0}, {"type": "note_on", "time": 36, "note": 72, "velocity": 115, "channel": 0}, {"type": "note_off", "time": 106, "note": 72, "velocity": 115, "channel": 0}, {"type": "note_on", "time": 23, "note": 69, "velocity": 106, "channel": 0}, {"type": "note_off", "time": 49, "note": 69, "velocity": 106, "channel": 0}, {"type": "note_on", "time": 119, "note": 69, "velocity": 109, "channel": 0}, {"type": "note_off", "time": 232, "note": 69, "velocity": 109, "channel": 0}, {"type": "note_on", "time": 33, "note": 65, "velocity": 107, "channel": 0}, {"type": "note_off", "time": 54, "note": 65, "velocity": 107, "channel": 0}, {"type": "note_on", "time": 135, "note": 65, "velocity": 105, "channel": 0}, {"type": "note_off", "time": 157, "note": 65, "velocity": 105, "channel": 0}, {"type": "note_on", "time": 16, "note": 65, "velocity": 104, "channel": 0}, {"type": "note_off", "time": 72, "note": 65, "velocity": 104, "channel": 0}, {"type": "note_on", "time": 79, "note": 62, "velocity": 106, "channel": 0}, {"type": "note_off", "time": 63, "note": 62, "velocity": 106, "channel": 0}, {"type": "note_on", "time": 515, "note": 63, "velocity": 119, "channel": 0}, {"type": "note_off", "time": 69, "note": 63, "velocity": 119, "channel": 0}, {"type": "note_on", "time": 29, "note": 65, "velocity": 114, "channel": 0}, {"type": "note_off", "time": 67, "note": 65, "velocity": 114, "channel": 0}, {"type": "note_on", "time": 107, "note": 67, "velocity": 114, "channel": 0}, {"type": "note_off", "time": 251, "note": 67, "velocity": 114, "channel": 0}, {"type": "note_on", "time": 33, "note": 63, "velocity": 117, "channel": 0}, {"type": "note_off", "time": 97, "note": 63, "velocity": 117, "channel": 0}, {"type": "note_on", "time": 33, "note": 62, "velocity": 112, "channel": 0}, {"type": "note_off", "time": 75, "note": 62, "velocity": 112, "channel": 0}, {"type": "note_on", "time": 573, "note": 60, "velocity": 120, "channel": 0}, {"type": "note_off", "time": 75, "note": 60, "velocity": 120, "channel": 0}, {"type": "note_on", "time": 7, "note": 58, "velocity": 114, "channel": 0}, {"type": "note_off", "time": 96, "note": 58, "velocity": 114, "channel": 0}, {"type": "note_on", "time": 19, "note": 60, "velocity": 114, "channel": 0}, {"type": "note_off", "time": 66, "note": 60, "velocity": 114, "channel": 0}, {"type": "note_on", "time": 24, "note": 62, "velocity": 117, "channel": 0}, {"type": "note_off", "time": 78, "note": 62, "velocity": 117, "channel": 0}, {"type": "note_on", "time": 29, "note": 58, "velocity": 115, "channel": 0}, {"type": "note_off", "time": 74, "note": 58, "velocity": 115, "channel": 0}, {"type": "note_on", "time": 13, "note": 55, "velocity": 102, "channel": 0}, {"type": "note_off", "time": 109, "note": 55, "velocity": 102, "channel": 0}, {"type": "note_on", "time": 78, "note": 57, "velocity": 111, "channel": 0}, {"type": "note_off", "time": 92, "note": 57, "velocity": 111, "channel": 0}, {"type": "note_on", "time": 40, "note": 55, "velocity": 108, "channel": 0}, {"type": "note_off", "time": 334, "note": 55, "velocity": 108, "channel": 0}, {"type": "note_on", "time": 18, "note": 57, "velocity": 115, "channel": 0}, {"type": "note_off", "time": 90, "note": 57, "velocity": 115, "channel": 0}, {"type": "note_on", "time": 15, "note": 58, "velocity": 115, "channel": 0}, {"type": "note_off", "time": 82, "note": 58, "velocity": 115, "channel": 0}, {"type": "note_on", "time": 21, "note": 60, "velocity": 104, "channel": 0}, {"type": "note_off", "time": 88, "note": 60, "velocity": 104, "channel": 0}, {"type": "note_on", "time": 19, "note": 62, "velocity": 114, "channel": 0}, {"type": "note_off", "time": 91, "note": 62, "velocity": 114, "channel": 0}, {"type": "note_on", "time": 15, "note": 65, "velocity": 120, "channel": 0}, {"type": "note_off", "time": 63, "note": 65, "velocity": 120, "channel": 0}, {"type": "note_on", "time": 13, "note": 63, "velocity": 113, "channel": 0}, {"type": "note_off", "time": 94, "note": 63, "velocity": 113, "channel": 0}, {"type": "note_on", "time": 21, "note": 65, "velocity": 118, "channel": 0}, {"type": "note_off", "time": 73, "note": 65, "velocity": 118, "channel": 0}, {"type": "note_on", "time": 412, "note": 66, "velocity": 117, "channel": 0}, {"type": "note_off", "time": 66, "note": 66, "velocity": 117, "channel": 0}, {"type": "note_on", "time": 208, "note": 69, "velocity": 116, "channel": 0}, {"type": "note_off", "time": 74, "note": 69, "velocity": 116, "channel": 0}, {"type": "note_on", "time": 32, "note": 72, "velocity": 118, "channel": 0}, {"type": "note_off", "time": 90, "note": 72, "velocity": 118, "channel": 0}, {"type": "note_on", "time": 184, "note": 77, "velocity": 117, "channel": 0}, {"type": "note_off", "time": 236, "note": 77, "velocity": 117, "channel": 0}, {"type": "note_on", "time": 40, "note": 74, "velocity": 117, "channel": 0}, {"type": "note_off", "time": 272, "note": 74, "velocity": 117, "channel": 0}, {"type": "note_on", "time": 102, "note": 79, "velocity": 117, "channel": 0}, {"type": "note_off", "time": 113, "note": 79, "velocity": 117, "channel": 0}, {"type": "note_on", "time": 61, "note": 73, "velocity": 115, "channel": 0}, {"type": "note_off", "time": 139, "note": 73, "velocity": 115, "channel": 0}, {"type": "note_on", "time": 1, "note": 72, "velocity": 115, "channel": 0}, {"type": "note_off", "time": 719, "note": 72, "velocity": 115, "channel": 0}, {"type": "note_on", "time": 39, "note": 70, "velocity": 115, "channel": 0}, {"type": "note_off", "time": 80, "note": 70, "velocity": 115, "channel": 0}, {"type": "note_on", "time": 27, "note": 72, "velocity": 113, "channel": 0}, {"type": "note_off", "time": 102, "note": 72, "velocity": 113, "channel": 0}, {"type": "note_on", "time": 29, "note": 74, "velocity": 116, "channel": 0}, {"type": "note_off", "time": 219, "note": 74, "velocity": 116, "channel": 0}, {"type": "note_on", "time": 46, "note": 70, "velocity": 112, "channel": 0}, {"type": "note_off", "time": 104, "note": 70, "velocity": 112, "channel": 0}, {"type": "note_on", "time": 35, "note": 72, "velocity": 117, "channel": 0}, {"type": "note_off", "time": 208, "note": 72, "velocity": 117, "channel": 0}, {"type": "note_on", "time": 37, "note": 67, "velocity": 113, "channel": 0}, {"type": "note_off", "time": 100, "note": 67, "velocity": 113, "channel": 0}, {"type": "note_on", "time": 16, "note": 70, "velocity": 115, "channel": 0}, {"type": "note_off", "time": 216, "note": 70, "velocity": 115, "channel": 0}, {"type": "note_on", "time": 41, "note": 72, "velocity": 116, "channel": 0}, {"type": "note_off", "time": 120, "note": 72, "velocity": 116, "channel": 0}, {"type": "note_on", "time": 60, "note": 74, "velocity": 117, "channel": 0}, {"type": "note_off", "time": 167, "note": 74, "velocity": 117, "channel": 0}, {"type": "note_on", "time": 39, "note": 77, "velocity": 117, "channel": 0}, {"type": "note_off", "time": 157, "note": 77, "velocity": 117, "channel": 0}, {"type": "note_on", "time": 15, "note": 74, "velocity": 117, "channel": 0}, {"type": "note_off", "time": 181, "note": 74, "velocity": 117, "channel": 0}, {"type": "note_on", "time": 23, "note": 74, "velocity": 115, "channel": 0}, {"type": "note_off", "time": 116, "note": 74, "velocity": 115, "channel": 0}, {"type": "note_on", "time": 29, "note": 72, "velocity": 112, "channel": 0}, {"type": "note_off", "time": 43, "note": 72, "velocity": 112, "channel": 0}, {"type": "note_on", "time": 119, "note": 74, "velocity": 112, "channel": 0}, {"type": "note_off", "time": 741, "note": 74, "velocity": 112, "channel": 0}, {"type": "note_on", "time": 92, "note": 75, "velocity": 118, "channel": 0}, {"type": "note_off", "time": 119, "note": 75, "velocity": 118, "channel": 0}, {"type": "note_on", "time": 100, "note": 77, "velocity": 118, "channel": 0}, {"type": "note_off", "time": 96, "note": 77, "velocity": 118, "channel": 0}, {"type": "note_on", "time": 78, "note": 74, "velocity": 115, "channel": 0}, {"type": "note_off", "time": 131, "note": 74, "velocity": 115, "channel": 0}, {"type": "note_on", "time": 11, "note": 75, "velocity": 117, "channel": 0}, {"type": "note_off", "time": 77, "note": 75, "velocity": 117, "channel": 0}, {"type": "note_on", "time": 84, "note": 72, "velocity": 111, "channel": 0}, {"type": "note_off", "time": 315, "note": 72, "velocity": 111, "channel": 0}, {"type": "note_on", "time": 66, "note": 74, "velocity": 117, "channel": 0}, {"type": "note_off", "time": 94, "note": 74, "velocity": 117, "channel": 0}, {"type": "note_on", "time": 32, "note": 70, "velocity": 114, "channel": 0}, {"type": "note_off", "time": 68, "note": 70, "velocity": 114, "channel": 0}, {"type": "note_on", "time": 176, "note": 72, "velocity": 116, "channel": 0}, {"type": "note_off", "time": 89, "note": 72, "velocity": 116, "channel": 0}, {"type": "note_on", "time": 19, "note": 69, "velocity": 108, "channel": 0}, {"type": "note_off", "time": 141, "note": 69, "velocity": 108, "channel": 0}, {"type": "note_on", "time": 47, "note": 67, "velocity": 107, "channel": 0}, {"type": "note_off", "time": 84, "note": 67, "velocity": 107, "channel": 0}, {"type": "note_on", "time": 100, "note": 67, "velocity": 112, "channel": 0}, {"type": "note_off", "time": 117, "note": 67, "velocity": 112, "channel": 0}, {"type": "note_on", "time": 25, "note": 65, "velocity": 101, "channel": 0}, {"type": "note_off", "time": 53, "note": 65, "velocity": 101, "channel": 0}, {"type": "note_on", "time": 109, "note": 67, "velocity": 95, "channel": 0}, {"type": "note_off", "time": 257, "note": 67, "velocity": 95, "channel": 0}, {"type": "note_on", "time": 975, "note": 68, "velocity": 114, "channel": 0}, {"type": "note_off", "time": 79, "note": 68, "velocity": 114, "channel": 0}, {"type": "note_on", "time": 22, "note": 70, "velocity": 119, "channel": 0}, {"type": "note_off", "time": 77, "note": 70, "velocity": 119, "channel": 0}, {"type": "note_on", "time": 23, "note": 72, "velocity": 118, "channel": 0}, {"type": "note_off", "time": 82, "note": 72, "velocity": 118, "channel": 0}, {"type": "note_on", "time": 9, "note": 75, "velocity": 120, "channel": 0}, {"type": "note_off", "time": 102, "note": 75, "velocity": 120, "channel": 0}, {"type": "note_on", "time": 19, "note": 77, "velocity": 119, "channel": 0}, {"type": "note_off", "time": 116, "note": 77, "velocity": 119, "channel": 0}, {"type": "note_on", "time": 141, "note": 79, "velocity": 116, "channel": 0}, {"type": "note_off", "time": 330, "note": 79, "velocity": 116, "channel": 0}, {"type": "note_on", "time": 23, "note": 77, "velocity": 120, "channel": 0}, {"type": "note_off", "time": 105, "note": 77, "velocity": 120, "channel": 0}, {"type": "note_on", "time": 21, "note": 77, "velocity": 119, "channel": 0}, {"type": "note_off", "time": 100, "note": 77, "velocity": 119, "channel": 0}, {"type": "note_on", "time": 11, "note": 74, "velocity": 115, "channel": 0}, {"type": "note_off", "time": 75, "note": 74, "velocity": 115, "channel": 0}, {"type": "note_on", "time": 91, "note": 74, "velocity": 111, "channel": 0}, {"type": "note_off", "time": 284, "note": 74, "velocity": 111, "channel": 0}, {"type": "note_on", "time": 1023, "note": 81, "velocity": 118, "channel": 0}, {"type": "note_off", "time": 68, "note": 81, "velocity": 118, "channel": 0}, {"type": "note_on", "time": 214, "note": 77, "velocity": 116, "channel": 0}, {"type": "note_off", "time": 330, "note": 77, "velocity": 116, "channel": 0}, {"type": "note_on", "time": 11, "note": 74, "velocity": 117, "channel": 0}, {"type": "note_off", "time": 379, "note": 74, "velocity": 117, "channel": 0}, {"type": "note_on", "time": 12, "note": 70, "velocity": 114, "channel": 0}, {"type": "note_off", "time": 176, "note": 70, "velocity": 114, "channel": 0}, {"type": "note_on", "time": 30, "note": 74, "velocity": 119, "channel": 0}, {"type": "note_off", "time": 85, "note": 74, "velocity": 119, "channel": 0}, {"type": "note_on", "time": 17, "note": 77, "velocity": 120, "channel": 0}, {"type": "note_off", "time": 62, "note": 77, "velocity": 120, "channel": 0}, {"type": "note_on", "time": 40, "note": 81, "velocity": 116, "channel": 0}, {"type": "note_off", "time": 105, "note": 81, "velocity": 116, "channel": 0}, {"type": "note_on", "time": 68, "note": 77, "velocity": 117, "channel": 0}, {"type": "note_off", "time": 174, "note": 77, "velocity": 117, "channel": 0}, {"type": "note_on", "time": 7, "note": 74, "velocity": 117, "channel": 0}, {"type": "note_off", "time": 279, "note": 74, "velocity": 117, "channel": 0}, {"type": "note_on", "time": 15, "note": 75, "velocity": 117, "channel": 0}, {"type": "note_off", "time": 348, "note": 75, "velocity": 117, "channel": 0}, {"type": "note_on", "time": 24, "note": 74, "velocity": 118, "channel": 0}, {"type": "note_off", "time": 108, "note": 74, "velocity": 118, "channel": 0}, {"type": "note_on", "time": 17, "note": 73, "velocity": 117, "channel": 0}, {"type": "note_off", "time": 85, "note": 73, "velocity": 117, "channel": 0}, {"type": "note_on", "time": 51, "note": 74, "velocity": 119, "channel": 0}, {"type": "note_off", "time": 114, "note": 74, "velocity": 119, "channel": 0}, {"type": "note_on", "time": 17, "note": 77, "velocity": 117, "channel": 0}, {"type": "note_off", "time": 293, "note": 77, "velocity": 117, "channel": 0}, {"type": "note_on", "time": 57, "note": 75, "velocity": 119, "channel": 0}, {"type": "note_off", "time": 98, "note": 75, "velocity": 119, "channel": 0}, {"type": "note_on", "time": 13, "note": 72, "velocity": 116, "channel": 0}, {"type": "note_off", "time": 257, "note": 72, "velocity": 116, "channel": 0}, {"type": "note_on", "time": 17, "note": 74, "velocity": 119, "channel": 0}, {"type": "note_off", "time": 99, "note": 74, "velocity": 119, "channel": 0}, {"type": "note_on", "time": 11, "note": 75, "velocity": 120, "channel": 0}, {"type": "note_off", "time": 93, "note": 75, "velocity": 120, "channel": 0}, {"type": "note_on", "time": 11, "note": 79, "velocity": 118, "channel": 0}, {"type": "note_off", "time": 70, "note": 79, "velocity": 118, "channel": 0}, {"type": "note_on", "time": 23, "note": 77, "velocity": 118, "channel": 0}, {"type": "note_off", "time": 53, "note": 77, "velocity": 118, "channel": 0}, {"type": "note_on", "time": 8, "note": 76, "velocity": 117, "channel": 0}, {"type": "note_off", "time": 19, "note": 76, "velocity": 117, "channel": 0}, {"type": "note_on", "time": 7, "note": 75, "velocity": 120, "channel": 0}, {"type": "note_off", "time": 78, "note": 75, "velocity": 120, "channel": 0}, {"type": "note_on", "time": 8, "note": 74, "velocity": 118, "channel": 0}, {"type": "note_off", "time": 85, "note": 74, "velocity": 118, "channel": 0}, {"type": "note_on", "time": 19, "note": 72, "velocity": 117, "channel": 0}, {"type": "note_off", "time": 78, "note": 72, "velocity": 117, "channel": 0}, {"type": "note_on", "time": 8, "note": 70, "velocity": 117, "channel": 0}, {"type": "note_off", "time": 82, "note": 70, "velocity": 117, "channel": 0}, {"type": "note_on", "time": 13, "note": 69, "velocity": 115, "channel": 0}, {"type": "note_off", "time": 90, "note": 69, "velocity": 115, "channel": 0}, {"type": "note_on", "time": 14, "note": 70, "velocity": 117, "channel": 0}, {"type": "note_off", "time": 61, "note": 70, "velocity": 117, "channel": 0}, {"type": "note_on", "time": 39, "note": 72, "velocity": 118, "channel": 0}, {"type": "note_off", "time": 63, "note": 72, "velocity": 118, "channel": 0}, {"type": "note_on", "time": 9, "note": 74, "velocity": 119, "channel": 0}, {"type": "note_off", "time": 76, "note": 74, "velocity": 119, "channel": 0}, {"type": "note_on", "time": 33, "note": 70, "velocity": 117, "channel": 0}, {"type": "note_off", "time": 101, "note": 70, "velocity": 117, "channel": 0}, {"type": "note_on", "time": 267, "note": 65, "velocity": 98, "channel": 0}, {"type": "note_off", "time": 41, "note": 65, "velocity": 98, "channel": 0}, {"type": "note_on", "time": 51, "note": 69, "velocity": 117, "channel": 0}, {"type": "note_off", "time": 42, "note": 69, "velocity": 117, "channel": 0}, {"type": "note_on", "time": 7, "note": 70, "velocity": 115, "channel": 0}, {"type": "note_off", "time": 41, "note": 70, "velocity": 115, "channel": 0}, {"type": "note_on", "time": 5, "note": 68, "velocity": 106, "channel": 0}, {"type": "note_off", "time": 33, "note": 68, "velocity": 106, "channel": 0}, {"type": "note_on", "time": 6, "note": 66, "velocity": 110, "channel": 0}, {"type": "note_off", "time": 58, "note": 66, "velocity": 110, "channel": 0}, {"type": "note_on", "time": 11, "note": 67, "velocity": 115, "channel": 0}, {"type": "note_off", "time": 76, "note": 67, "velocity": 115, "channel": 0}, {"type": "note_on", "time": 25, "note": 69, "velocity": 115, "channel": 0}, {"type": "note_off", "time": 82, "note": 69, "velocity": 115, "channel": 0}, {"type": "note_on", "time": 14, "note": 70, "velocity": 118, "channel": 0}, {"type": "note_off", "time": 57, "note": 70, "velocity": 118, "channel": 0}, {"type": "note_on", "time": 25, "note": 72, "velocity": 118, "channel": 0}, {"type": "note_off", "time": 86, "note": 72, "velocity": 118, "channel": 0}, {"type": "note_on", "time": 18, "note": 74, "velocity": 116, "channel": 0}, {"type": "note_off", "time": 57, "note": 74, "velocity": 116, "channel": 0}, {"type": "note_on", "time": 24, "note": 77, "velocity": 119, "channel": 0}, {"type": "note_off", "time": 86, "note": 77, "velocity": 119, "channel": 0}, {"type": "note_on", "time": 16, "note": 75, "velocity": 118, "channel": 0}, {"type": "note_off", "time": 90, "note": 75, "velocity": 118, "channel": 0}, {"type": "note_on", "time": 17, "note": 77, "velocity": 118, "channel": 0}, {"type": "note_off", "time": 77, "note": 77, "velocity": 118, "channel": 0}, {"type": "note_on", "time": 12, "note": 79, "velocity": 117, "channel": 0}, {"type": "note_off", "time": 100, "note": 79, "velocity": 117, "channel": 0}, {"type": "note_on", "time": 811, "note": 78, "velocity": 10, "channel": 0}, {"type": "note_off", "time": 116, "note": 78, "velocity": 10, "channel": 0}, {"type": "note_on", "time": 82, "note": 75, "velocity": 127, "channel": 0}, {"type": "note_off", "time": 186, "note": 75, "velocity": 127, "channel": 0}, {"type": "note_on", "time": 6, "note": 74, "velocity": 124, "channel": 0}, {"type": "note_off", "time": 733, "note": 74, "velocity": 124, "channel": 0}, {"type": "note_on", "time": 19, "note": 73, "velocity": 122, "channel": 0}, {"type": "note_off", "time": 45, "note": 73, "velocity": 122, "channel": 0}, {"type": "note_on", "time": 8, "note": 72, "velocity": 115, "channel": 0}, {"type": "note_off", "time": 63, "note": 72, "velocity": 115, "channel": 0}, {"type": "note_on", "time": 4, "note": 70, "velocity": 123, "channel": 0}, {"type": "note_off", "time": 54, "note": 70, "velocity": 123, "channel": 0}, {"type": "note_on", "time": 5, "note": 72, "velocity": 123, "channel": 0}, {"type": "note_off", "time": 464, "note": 72, "velocity": 123, "channel": 0}, {"type": "note_on", "time": 13, "note": 70, "velocity": 114, "channel": 0}, {"type": "note_off", "time": 71, "note": 70, "velocity": 114, "channel": 0}, {"type": "note_on", "time": 20, "note": 72, "velocity": 114, "channel": 0}, {"type": "note_off", "time": 104, "note": 72, "velocity": 114, "channel": 0}, {"type": "note_on", "time": 21, "note": 70, "velocity": 115, "channel": 0}, {"type": "note_off", "time": 56, "note": 70, "velocity": 115, "channel": 0}, {"type": "note_on", "time": 104, "note": 67, "velocity": 87, "channel": 0}, {"type": "note_off", "time": 1192, "note": 67, "velocity": 87, "channel": 0}, {"type": "end_of_track", "time": 0}]]}