{"ticks_per_beat": 192, "tracks": [[{"type": "note_on", "time": 0, "note": 72, "velocity": 115, "channel": 0}, {"type": "note_off", "time": 101, "note": 72, "velocity": 115, "channel": 0}, {"type": "note_on", "time": 3, "note": 74, "velocity": 116, "channel": 0}, {"type": "note_off", "time": 98, "note": 74, "velocity": 116, "channel": 0}, {"type": "note_on", "time": 4, "note": 72, "velocity": 118, "channel": 0}, {"type": "note_off", "time": 90, "note": 72, "velocity": 118, "channel": 0}, {"type": "note_on", "time": 5, "note": 76, "velocity": 120, "channel": 0}, {"type": "note_off", "time": 86, "note": 76, "velocity": 120, "channel": 0}, {"type": "note_on", "time": 22, "note": 72, "velocity": 120, "channel": 0}, {"type": "note_off", "time": 77, "note": 72, "velocity": 120, "channel": 0}, {"type": "note_on", "time": 11, "note": 74, "velocity": 118, "channel": 0}, {"type": "note_off", "time": 83, "note": 74, "velocity": 118, "channel": 0}, {"type": "note_on", "time": 15, "note": 72, "velocity": 120, "channel": 0}, {"type": "note_off", "time": 75, "note": 72, "velocity": 120, "channel": 0}, {"type": "note_on", "time": 13, "note": 75, "velocity": 117, "channel": 0}, {"type": "note_off", "time": 97, "note": 75, "velocity": 117, "channel": 0}, {"type": "note_on", "time": 16, "note": 72, "velocity": 90, "channel": 0}, {"type": "note_off", "time": 50, "note": 72, "velocity": 90, "channel": 0}, {"type": "note_on", "time": 12, "note": 74, "velocity": 117, "channel": 0}, {"type": "note_off", "time": 105, "note": 74, "velocity": 117, "channel": 0}, {"type": "note_on", "time": 11, "note": 72, "velocity": 121, "channel": 0}, {"type": "note_off", "time": 81, "note": 72, "velocity": 121, "channel": 0}, {"type": "note_on", "time": 10, "note": 70, "velocity": 118, "channel": 0}, {"type": "note_off", "time": 83, "note": 70, "velocity": 118, "channel": 0}, {"type": "note_on", "time": 18, "note": 65, "velocity": 97, "channel": 0}, {"type": "note_off", "time": 61, "note": 65, "velocity": 97, "channel": 0}, {"type": "note_on", "time": 15, "note": 62, "velocity": 95, "channel": 0}, {"type": "note_off", "time": 103, "note": 62, "velocity": 95, "channel": 0}, {"type": "note_on", "time": 4, "note": 64, "velocity": 82, "channel": 0}, {"type": "note_off", "time": 59, "note": 64, "velocity": 82, "channel": 0}, {"type": "note_on", "time": 19, "note": 68, "velocity": 112, "channel": 0}, {"type": "note_off", "time": 115, "note": 68, "velocity": 112, "channel": 0}, {"type": "note_on", "time": 6, "note": 69, "velocity": 114, "channel": 0}, {"type": "note_off", "time": 53, "note": 69, "velocity": 114, "channel": 0}, {"type": "note_on", "time": 13, "note": 68, "velocity": 112, "channel": 0}, {"type": "note_off", "time": 73, "note": 68, "velocity": 112, "channel": 0}, {"type": "note_on", "time": 11, "note": 69, "velocity": 105, "channel": 0}, {"type": "note_off", "time": 45, "note": 69, "velocity": 105, "channel": 0}, {"type": "note_on", "time": 7, "note": 68, "velocity": 114, "channel": 0}, {"type": "note_off", "time": 69, "note": 68, "velocity": 114, "channel": 0}, {"type": "note_on", "time": 9, "note": 67, "velocity": 114, "channel": 0}, {"type": "note_off", "time": 100, "note": 67, "velocity": 114, "channel": 0}, {"type": "note_on", "time": 7, "note": 65, "velocity": 114, "channel": 0}, {"type": "note_off", "time": 85, "note": 65, "velocity": 114, "channel": 0}, {"type": "note_on", "time": 16, "note": 62, "velocity": 83, "channel": 0}, {"type": "note_off", "time": 83, "note": 62, "velocity": 83, "channel": 0}, {"type": "note_on", "time": 26, "note": 60, "velocity": 71, "channel": 0}, {"type": "note_off", "time": 36, "note": 60, "velocity": 71, "channel": 0}, {"type": "note_on", "time": 32, "note": 65, "velocity": 110, "channel": 0}, {"type": "note_off", "time": 152, "note": 65, "velocity": 110, "channel": 0}, {"type": "note_on", "time": 31, "note": 68, "velocity": 111, "channel": 0}, {"type": "note_off", "time": 128, "note": 68, "velocity": 111, "channel": 0}, {"type": "note_on", "time": 18, "note": 69, "velocity": 115, "channel": 0}, {"type": "track_name", "name": "Melody", "time": 98}, {"type": "set_tempo", "tempo": 355029, "time": 0}, {"type": "key_signature", "key": "F", "time": 0}, {"type": "time_signature", "numerator": 4, "denominator": 4, "clocks_per_click": 24, "notated_32nd_notes_per_beat": 8, "time": 0}, {"type": "note_off", "time": 6, "note": 69, "velocity": 115, "channel": 0}, {"type": "note_on", "time": 62, "note": 68, "velocity": 112, "channel": 0}, {"type": "note_off", "time": 98, "note": 68, "velocity": 112, "channel": 0}, {"type": "note_on", "time": 6, "note": 69, "velocity": 113, "channel": 0}, {"type": "note_off", "time": 98, "note": 69, "velocity": 113, "channel": 0}, {"type": "note_on", "time": 8, "note": 60, "velocity": 82, "channel": 0}, {"type": "note_off", "time": 222, "note": 60, "velocity": 82, "channel": 0}, {"type": "note_on", "time": 189, "note": 62, "velocity": 98, "channel": 0}, {"type": "note_off", "time": 65, "note": 62, "velocity": 98, "channel": 0}, {"type": "note_on", "time": 7, "note": 60, "velocity": 82, "channel": 0}, {"type": "note_off", "time": 166, "note": 60, "velocity": 82, "channel": 0}, {"type": "note_on", "time": 31, "note": 62, "velocity": 103, "channel": 0}, {"type": "note_off", "time": 106, "note": 62, "velocity": 103, "channel": 0}, {"type": "note_on", "time": 94, "note": 65, "velocity": 108, "channel": 0}, {"type": "note_off", "time": 100, "note": 65, "velocity": 108, "channel": 0}, {"type": "note_on", "time": 94, "note": 67, "velocity": 107, "channel": 0}, {"type": "note_off", "time": 109, "note": 67, "velocity": 107, "channel": 0}, {"type": "note_on", "time": 92, "note": 69, "velocity": 103, "channel": 0}, {"type": "note_off", "time": 186, "note": 69, "velocity": 103, "channel": 0}, {"type": "note_on", "time": 4, "note": 72, "velocity": 112, "channel": 0}, {"type": "note_off", "time": 113, "note": 72, "velocity": 112, "channel": 0}, {"type": "note_on", "time": 22, "note": 67, "velocity": 92, "channel": 0}, {"type": "note_off", "time": 276, "note": 67, "velocity": 92, "channel": 0}, {"type": "note_on", "time": 7, "note": 65, "velocity": 91, "channel": 0}, {"type": "note_off", "time": 86, "note": 65, "velocity": 91, "channel": 0}, {"type": "note_on", "time": 28, "note": 67, "velocity": 84, "channel": 0}, {"type": "note_off", "time": 292, "note": 67, "velocity": 84, "channel": 0}, {"type": "note_on", "time": 750, "note": 67, "velocity": 107, "channel": 0}, {"type": "note_off", "time": 42, "note": 67, "velocity": 107, "channel": 0}, {"type": "note_on", "time": 16, "note": 69, "velocity": 102, "channel": 0}, {"type": "note_off", "time": 43, "note": 69, "velocity": 102, "channel": 0}, {"type": "note_on", "time": 16, "note": 72, "velocity": 112, "channel": 0}, {"type": "note_off", "time": 47, "note": 72, "velocity": 112, "channel": 0}, {"type": "note_on", "time": 9, "note": 69, "velocity": 112, "channel": 0}, {"type": "note_off", "time": 94, "note": 69, "velocity": 112, "channel": 0}, {"type": "note_on", "time": 233, "note": 67, "velocity": 113, "channel": 0}, {"type": "note_off", "time": 66, "note": 67, "velocity": 113, "channel": 0}, {"type": "note_on", "time": 10, "note": 65, "velocity": 83, "channel": 0}, {"type": "note_off", "time": 131, "note": 65, "velocity": 83, "channel": 0}, {"type": "note_on", "time": 374, "note": 67, "velocity": 106, "channel": 0}, {"type": "note_off", "time": 62, "note": 67, "velocity": 106, "channel": 0}, {"type": "note_on", "time": 26, "note": 69, "velocity": 116, "channel": 0}, {"type": "note_off", "time": 70, "note": 69, "velocity": 116, "channel": 0}, {"type": "note_on", "time": 24, "note": 72, "velocity": 122, "channel": 0}, {"type": "note_off", "time": 84, "note": 72, "velocity": 122, "channel": 0}, {"type": "note_on", "time": 16, "note": 74, "velocity": 127, "channel": 0}, {"type": "note_off", "time": 106, "note": 74, "velocity": 127, "channel": 0}, {"type": "note_on", "time": 67, "note": 77, "velocity": 122, "channel": 0}, {"type": "note_off", "time": 408, "note": 77, "velocity": 122, "channel": 0}, {"type": "note_on", "time": 5, "note": 75, "velocity": 91, "channel": 0}, {"type": "note_off", "time": 54, "note": 75, "velocity": 91, "channel": 0}, {"type": "note_on", "time": 43, "note": 79, "velocity": 108, "channel": 0}, {"type": "note_off", "time": 249, "note": 79, "velocity": 108, "channel": 0}, {"type": "note_on", "time": 37, "note": 77, "velocity": 123, "channel": 0}, {"type": "note_off", "time": 100, "note": 77, "velocity": 123, "channel": 0}, {"type": "note_on", "time": 28, "note": 75, "velocity": 123, "channel": 0}, {"type": "note_off", "time": 98, "note": 75, "velocity": 123, "channel": 0}, {"type": "note_on", "time": 92, "note": 71, "velocity": 89, "channel": 0}, {"type": "note_off", "time": 36, "note": 71, "velocity": 89, "channel": 0}, {"type": "note_on", "time": 29, "note": 71, "velocity": 112, "channel": 0}, {"type": "note_off", "time": 65, "note": 71, "velocity": 112, "channel": 0}, {"type": "note_on", "time": 28, "note": 74, "velocity": 125, "channel": 0}, {"type": "note_off", "time": 73, "note": 74, "velocity": 125, "channel": 0}, {"type": "note_on", "time": 16, "note": 73, "velocity": 121, "channel": 0}, {"type": "note_off", "time": 73, "note": 73, "velocity": 121, "channel": 0}, {"type": "note_on", "time": 5, "note": 74, "velocity": 116, "channel": 0}, {"type": "note_off", "time": 31, "note": 74, "velocity": 116, "channel": 0}, {"type": "note_on", "time": 9, "note": 73, "velocity": 116, "channel": 0}, {"type": "note_off", "time": 52, "note": 73, "velocity": 116, "channel": 0}, {"type": "note_on", "time": 12, "note": 69, "velocity": 104, "channel": 0}, {"type": "note_off", "time": 89, "note": 69, "velocity": 104, "channel": 0}, {"type": "note_on", "time": 18, "note": 72, "velocity": 118, "channel": 0}, {"type": "note_off", "time": 103, "note": 72, "velocity": 118, "channel": 0}, {"type": "note_on", "time": 6, "note": 71, "velocity": 110, "channel": 0}, {"type": "note_off", "time": 101, "note": 71, "velocity": 110, "channel": 0}, {"type": "note_on", "time": 5, "note": 72, "velocity": 115, "channel": 0}, {"type": "note_off", "time": 63, "note": 72, "velocity": 115, "channel": 0}, {"type": "note_on", "time": 6, "note": 74, "velocity": 123, "channel": 0}, {"type": "note_off", "time": 94, "note": 74, "velocity": 123, "channel": 0}, {"type": "note_on", "time": 28, "note": 65, "velocity": 93, "channel": 0}, {"type": "note_off", "time": 237, "note": 65, "velocity": 93, "channel": 0}, {"type": "note_on", "time": 18, "note": 65, "velocity": 104, "channel": 0}, {"type": "note_off", "time": 121, "note": 65, "velocity": 104, "channel": 0}, {"type": "note_on", "time": 362, "note": 75, "velocity": 124, "channel": 0}, {"type": "note_off", "time": 83, "note": 75, "velocity": 124, "channel": 0}, {"type": "note_on", "time": 5, "note": 73, "velocity": 123, "channel": 0}, {"type": "note_off", "time": 105, "note": 73, "velocity": 123, "channel": 0}, {"type": "note_on", "time": 24, "note": 65, "velocity": 77, "channel": 0}, {"type": "note_off", "time": 32, "note": 65, "velocity": 77, "channel": 0}, {"type": "note_on", "time": 44, "note": 68, "velocity": 104, "channel": 0}, {"type": "note_off", "time": 81, "note": 68, "velocity": 104, "channel": 0}, {"type": "note_on", "time": 21, "note": 72, "velocity": 118, "channel": 0}, {"type": "note_off", "time": 72, "note": 72, "velocity": 118, "channel": 0}, {"type": "note_on", "time": 18, "note": 70, "velocity": 106, "channel": 0}, {"type": "note_off", "time": 111, "note": 70, "velocity": 106, "channel": 0}, {"type": "note_on", "time": 180, "note": 72, "velocity": 122, "channel": 0}, {"type": "note_off", "time": 75, "note": 72, "velocity": 122, "channel": 0}, {"type": "note_on", "time": 29, "note": 69, "velocity": 102, "channel": 0}, {"type": "note_off", "time": 70, "note": 69, "velocity": 102, "channel": 0}, {"type": "note_on", "time": 10, "note": 70, "velocity": 102, "channel": 0}, {"type": "note_off", "time": 25, "note": 70, "velocity": 102, "channel": 0}, {"type": "note_on", "time": 10, "note": 69, "velocity": 112, "channel": 0}, {"type": "note_off", "time": 45, "note": 69, "velocity": 112, "channel": 0}, {"type": "note_on", "time": 7, "note": 67, "velocity": 105, "channel": 0}, {"type": "note_off", "time": 75, "note": 67, "velocity": 105, "channel": 0}, {"type": "note_on", "time": 32, "note": 65, "velocity": 109, "channel": 0}, {"type": "note_off", "time": 54, "note": 65, "velocity": 109, "channel": 0}, {"type": "note_on", "time": 32, "note": 64, "velocity": 103, "channel": 0}, {"type": "note_off", "time": 59, "note": 64, "velocity": 103, "channel": 0}, {"type": "note_on", "time": 33, "note": 62, "velocity": 104, "channel": 0}, {"type": "note_off", "time": 62, "note": 62, "velocity": 104, "channel": 0}, {"type": "note_on", "time": 21, "note": 61, "velocity": 80, "channel": 0}, {"type": "note_off", "time": 67, "note": 61, "velocity": 80, "channel": 0}, {"type": "note_on", "time": 76, "note": 65, "velocity": 61, "channel": 0}, {"type": "note_off", "time": 31, "note": 65, "velocity": 61, "channel": 0}, {"type": "note_on", "time": 31, "note": 69, "velocity": 114, "channel": 0}, {"type": "note_off", "time": 91, "note": 69, "velocity": 114, "channel": 0}, {"type": "note_on", "time": 2, "note": 70, "velocity": 113, "channel": 0}, {"type": "note_off", "time": 84, "note": 70, "velocity": 113, "channel": 0}, {"type": "note_on", "time": 12, "note": 69, "velocity": 111, "channel": 0}, {"type": "note_off", "time": 84, "note": 69, "velocity": 111, "channel": 0}, {"type": "note_on", "time": 20, "note": 67, "velocity": 110, "channel": 0}, {"type": "note_off", "time": 69, "note": 67, "velocity": 110, "channel": 0}, {"type": "note_on", "time": 21, "note": 65, "velocity": 109, "channel": 0}, {"type": "note_off", "time": 87, "note": 65, "velocity": 109, "channel": 0}, {"type": "note_on", "time": 41, "note": 62, "velocity": 105, "channel": 0}, {"type": "note_off", "time": 80, "note": 62, "velocity": 105, "channel": 0}, {"type": "note_on", "time": 166, "note": 62, "velocity": 86, "channel": 0}, {"type": "note_off", "time": 303, "note": 62, "velocity": 86, "channel": 0}, {"type": "note_on", "time": 8, "note": 62, "velocity": 101, "channel": 0}, {"type": "note_off", "time": 121, "note": 62, "velocity": 101, "channel": 0}, {"type": "note_on", "time": 437, "note": 62, "velocity": 99, "channel": 0}, {"type": "note_off", "time": 70, "note": 62, "velocity": 99, "channel": 0}, {"type": "note_on", "time": 14, "note": 64, "velocity": 92, "channel": 0}, {"type": "note_off", "time": 67, "note": 64, "velocity": 92, "channel": 0}, {"type": "note_on", "time": 32, "note": 65, "velocity": 110, "channel": 0}, {"type": "note_off", "time": 54, "note": 65, "velocity": 110, "channel": 0}, {"type": "note_on", "time": 27, "note": 69, "velocity": 115, "channel": 0}, {"type": "note_off", "time": 97, "note": 69, "velocity": 115, "channel": 0}, {"type": "note_on", "time": 84, "note": 69, "velocity": 108, "channel": 0}, {"type": "note_off", "time": 92, "note": 69, "velocity": 108, "channel": 0}, {"type": "note_on", "time": 85, "note": 69, "velocity": 111, "channel": 0}, {"type": "note_off", "time": 116, "note": 69, "velocity": 111, "channel": 0}, {"type": "note_on", "time": 6, "note": 68, "velocity": 90, "channel": 0}, {"type": "note_off", "time": 65, "note": 68, "velocity": 90, "channel": 0}, {"type": "note_on", "time": 23, "note": 65, "velocity": 100, "channel": 0}, {"type": "note_off", "time": 92, "note": 65, "velocity": 100, "channel": 0}, {"type": "note_on", "time": 23, "note": 67, "velocity": 87, "channel": 0}, {"type": "note_off", "time": 312, "note": 67, "velocity": 87, "channel": 0}, {"type": "note_on", "time": 862, "note": 60, "velocity": 97, "channel": 0}, {"type": "note_off", "time": 36, "note": 60, "velocity": 97, "channel": 0}, {"type": "note_on", "time": 34, "note": 62, "velocity": 103, "channel": 0}, {"type": "note_off", "time": 84, "note": 62, "velocity": 103, "channel": 0}, {"type": "note_on", "time": 20, "note": 64, "velocity": 107, "channel": 0}, {"type": "note_off", "time": 59, "note": 64, "velocity": 107, "channel": 0}, {"type": "note_on", "time": 23, "note": 65, "velocity": 106, "channel": 0}, {"type": "note_off", "time": 108, "note": 65, "velocity": 106, "channel": 0}, {"type": "note_on", "time": 87, "note": 64, "velocity": 108, "channel": 0}, {"type": "note_off", "time": 91, "note": 64, "velocity": 108, "channel": 0}, {"type": "note_on", "time": 32, "note": 62, "velocity": 104, "channel": 0}, {"type": "note_off", "time": 48, "note": 62, "velocity": 104, "channel": 0}, {"type": "note_on", "time": 23, "note": 60, "velocity": 87, "channel": 0}, {"type": "note_off", "time": 100, "note": 60, "velocity": 87, "channel": 0}, {"type": "note_on", "time": 97, "note": 62, "velocity": 103, "channel": 0}, {"type": "note_off", "time": 109, "note": 62, "velocity": 103, "channel": 0}, {"type": "note_on", "time": 89, "note": 62, "velocity": 102, "channel": 0}, {"type": "note_off", "time": 89, "note": 62, "velocity": 102, "channel": 0}, {"type": "note_on", "time": 27, "note": 62, "velocity": 88, "channel": 0}, {"type": "note_off", "time": 321, "note": 62, "velocity": 88, "channel": 0}, {"type": "note_on", "time": 79, "note": 62, "velocity": 96, "channel": 0}, {"type": "note_off", "time": 306, "note": 62, "velocity": 96, "channel": 0}, {"type": "note_on", "time": 26, "note": 64, "velocity": 96, "channel": 0}, {"type": "note_off", "time": 47, "note": 64, "velocity": 96, "channel": 0}, {"type": "note_on", "time": 3, "note": 65, "velocity": 101, "channel": 0}, {"type": "note_off", "time": 39, "note": 65, "velocity": 101, "channel": 0}, {"type": "note_on", "time": 9, "note": 64, "velocity": 98, "channel": 0}, {"type": "note_off", "time": 95, "note": 64, "velocity": 98, "channel": 0}, {"type": "note_on", "time": 9, "note": 65, "velocity": 102, "channel": 0}, {"type": "note_off", "time": 29, "note": 65, "velocity": 102, "channel": 0}, {"type": "note_on", "time": 12, "note": 64, "velocity": 107, "channel": 0}, {"type": "note_off", "time": 40, "note": 64, "velocity": 107, "channel": 0}, {"type": "note_on", "time": 16, "note": 62, "velocity": 100, "channel": 0}, {"type": "note_off", "time": 92, "note": 62, "velocity": 100, "channel": 0}, {"type": "note_on", "time": 22, "note": 64, "velocity": 110, "channel": 0}, {"type": "note_off", "time": 47, "note": 64, "velocity": 110, "channel": 0}, {"type": "note_on", "time": 18, "note": 61, "velocity": 92, "channel": 0}, {"type": "note_off", "time": 102, "note": 61, "velocity": 92, "channel": 0}, {"type": "note_on", "time": 35, "note": 64, "velocity": 91, "channel": 0}, {"type": "note_off", "time": 42, "note": 64, "velocity": 91, "channel": 0}, {"type": "note_on", "time": 16, "note": 67, "velocity": 105, "channel": 0}, {"type": "note_off", "time": 108, "note": 67, "velocity": 105, "channel": 0}, {"type": "note_on", "time": 23, "note": 69, "velocity": 107, "channel": 0}, {"type": "note_off", "time": 64, "note": 69, "velocity": 107, "channel": 0}, {"type": "note_on", "time": 1, "note": 70, "velocity": 113, "channel": 0}, {"type": "note_off", "time": 481, "note": 70, "velocity": 113, "channel": 0}, {"type": "note_on", "time": 75, "note": 69, "velocity": 109, "channel": 0}, {"type": "note_off", "time": 91, "note": 69, "velocity": 109, "channel": 0}, {"type": "note_on", "time": 54, "note": 70, "velocity": 116, "channel": 0}, {"type": "note_off", "time": 92, "note": 70, "velocity": 116, "channel": 0}, {"type": "note_on", "time": 30, "note": 69, "velocity": 111, "channel": 0}, {"type": "note_off", "time": 113, "note": 69, "velocity": 111, "channel": 0}, {"type": "note_on", "time": 6, "note": 60, "velocity": 80, "channel": 0}, {"type": "note_off", "time": 241, "note": 60, "velocity": 80, "channel": 0}, {"type": "note_on", "time": 43, "note": 62, "velocity": 100, "channel": 0}, {"type": "note_off", "time": 109, "note": 62, "velocity": 100, "channel": 0}, {"type": "note_on", "time": 240, "note": 69, "velocity": 110, "channel": 0}, {"type": "note_off", "time": 97, "note": 69, "velocity": 110, "channel": 0}, {"type": "note_on", "time": 67, "note": 68, "velocity": 111, "channel": 0}, {"type": "note_off", "time": 127, "note": 68, "velocity": 111, "channel": 0}, {"type": "note_on", "time": 12, "note": 67, "velocity": 107, "channel": 0}, {"type": "note_off", "time": 235, "note": 67, "velocity": 107, "channel": 0}, {"type": "note_on", "time": 890, "note": 67, "velocity": 112, "channel": 0}, {"type": "note_off", "time": 70, "note": 67, "velocity": 112, "channel": 0}, {"type": "note_on", "time": 37, "note": 65, "velocity": 94, "channel": 0}, {"type": "note_off", "time": 65, "note": 65, "velocity": 94, "channel": 0}, {"type": "note_on", "time": 19, "note": 67, "velocity": 111, "channel": 0}, {"type": "note_off", "time": 56, "note": 67, "velocity": 111, "channel": 0}, {"type": "note_on", "time": 10, "note": 65, "velocity": 102, "channel": 0}, {"type": "note_off", "time": 128, "note": 65, "velocity": 102, "channel": 0}, {"type": "note_on", "time": 76, "note": 67, "velocity": 109, "channel": 0}, {"type": "note_off", "time": 102, "note": 67, "velocity": 109, "channel": 0}, {"type": "note_on", "time": 15, "note": 65, "velocity": 96, "channel": 0}, {"type": "note_off", "time": 48, "note": 65, "velocity": 96, "channel": 0}, {"type": "note_on", "time": 51, "note": 67, "velocity": 108, "channel": 0}, {"type": "note_off", "time": 80, "note": 67, "velocity": 108, "channel": 0}, {"type": "note_on", "time": 105, "note": 65, "velocity": 111, "channel": 0}, {"type": "note_off", "time": 92, "note": 65, "velocity": 111, "channel": 0}, {"type": "note_on", "time": 26, "note": 67, "velocity": 110, "channel": 0}, {"type": "note_off", "time": 40, "note": 67, "velocity": 110, "channel": 0}, {"type": "note_on", "time": 32, "note": 65, "velocity": 101, "channel": 0}, {"type": "note_off", "time": 113, "note": 65, "velocity": 101, "channel": 0}, {"type": "note_on", "time": 62, "note": 68, "velocity": 111, "channel": 0}, {"type": "note_off", "time": 108, "note": 68, "velocity": 111, "channel": 0}, {"type": "note_on", "time": 18, "note": 65, "velocity": 89, "channel": 0}, {"type": "note_off", "time": 45, "note": 65, "velocity": 89, "channel": 0}, {"type": "note_on", "time": 38, "note": 68, "velocity": 110, "channel": 0}, {"type": "note_off", "time": 98, "note": 68, "velocity": 110, "channel": 0}, {"type": "note_on", "time": 9, "note": 65, "velocity": 91, "channel": 0}, {"type": "note_off", "time": 326, "note": 65, "velocity": 91, "channel": 0}, {"type": "note_on", "time": 71, "note": 67, "velocity": 104, "channel": 0}, {"type": "note_off", "time": 153, "note": 67, "velocity": 104, "channel": 0}, {"type": "note_on", "time": 23, "note": 65, "velocity": 103, "channel": 0}, {"type": "note_off", "time": 62, "note": 65, "velocity": 103, "channel": 0}, {"type": "note_on", "time": 18, "note": 67, "velocity": 105, "channel": 0}, {"type": "note_off", "time": 116, "note": 67, "velocity": 105, "channel": 0}, {"type": "note_on", "time": 19, "note": 65, "velocity": 105, "channel": 0}, {"type": "note_off", "time": 47, "note": 65, "velocity": 105, "channel": 0}, {"type": "note_on", "time": 117, "note": 67, "velocity": 109, "channel": 0}, {"type": "note_off", "time": 48, "note": 67, "velocity": 109, "channel": 0}, {"type": "note_on", "time": 13, "note": 65, "velocity": 108, "channel": 0}, {"type": "note_off", "time": 116, "note": 65, "velocity": 108, "channel": 0}, {"type": "note_on", "time": 30, "note": 76, "velocity": 121, "channel": 0}, {"type": "note_off", "time": 189, "note": 76, "velocity": 121, "channel": 0}, {"type": "note_on", "time": 23, "note": 74, "velocity": 97, "channel": 0}, {"type": "note_off", "time": 31, "note": 74, "velocity": 97, "channel": 0}, {"type": "note_on", "time": 24, "note": 76, "velocity": 120, "channel": 0}, {"type": "note_off", "time": 113, "note": 76, "velocity": 120, "channel": 0}, {"type": "note_on", "time": 8, "note": 74, "velocity": 115, "channel": 0}, {"type": "note_off", "time": 301, "note": 74, "velocity": 115, "channel": 0}, {"type": "note_on", "time": 84, "note": 79, "velocity": 111, "channel": 0}, {"type": "note_off", "time": 91, "note": 79, "velocity": 111, "channel": 0}, {"type": "note_on", "time": 92, "note": 76, "velocity": 118, "channel": 0}, {"type": "note_off", "time": 99, "note": 76, "velocity": 118, "channel": 0}, {"type": "note_on", "time": 93, "note": 74, "velocity": 120, "channel": 0}, {"type": "note_off", "time": 75, "note": 74, "velocity": 120, "channel": 0}, {"type": "note_on", "time": 19, "note": 72, "velocity": 108, "channel": 0}, {"type": "note_off", "time": 72, "note": 72, "velocity": 108, "channel": 0}, {"type": "note_on", "time": 27, "note": 74, "velocity": 118, "channel": 0}, {"type": "note_off", "time": 70, "note": 74, "velocity": 118, "channel": 0}, {"type": "note_on", "time": 18, "note": 76, "velocity": 120, "channel": 0}, {"type": "note_off", "time": 89, "note": 76, "velocity": 120, "channel": 0}, {"type": "note_on", "time": 15, "note": 77, "velocity": 113, "channel": 0}, {"type": "note_off", "time": 69, "note": 77, "velocity": 113, "channel": 0}, {"type": "note_on", "time": 10, "note": 76, "velocity": 118, "channel": 0}, {"type": "note_off", "time": 91, "note": 76, "velocity": 118, "channel": 0}, {"type": "note_on", "time": 7, "note": 77, "velocity": 88, "channel": 0}, {"type": "note_off", "time": 25, "note": 77, "velocity": 88, "channel": 0}, {"type": "note_on", "time": 3, "note": 76, "velocity": 117, "channel": 0}, {"type": "note_off", "time": 47, "note": 76, "velocity": 117, "channel": 0}, {"type": "note_on", "time": 23, "note": 74, "velocity": 114, "channel": 0}, {"type": "note_off", "time": 84, "note": 74, "velocity": 114, "channel": 0}, {"type": "note_on", "time": 12, "note": 73, "velocity": 116, "channel": 0}, {"type": "note_off", "time": 75, "note": 73, "velocity": 116, "channel": 0}, {"type": "note_on", "time": 12, "note": 72, "velocity": 114, "channel": 0}, {"type": "note_off", "time": 106, "note": 72, "velocity": 114, "channel": 0}, {"type": "note_on", "time": 29, "note": 62, "velocity": 84, "channel": 0}, {"type": "note_off", "time": 29, "note": 62, "velocity": 84, "channel": 0}, {"type": "note_on", "time": 51, "note": 65, "velocity": 93, "channel": 0}, {"type": "note_off", "time": 76, "note": 65, "velocity": 93, "channel": 0}, {"type": "note_on", "time": 14, "note": 70, "velocity": 117, "channel": 0}, {"type": "note_off", "time": 59, "note": 70, "velocity": 117, "channel": 0}, {"type": "note_on", "time": 23, "note": 67, "velocity": 89, "channel": 0}, {"type": "note_off", "time": 92, "note": 67, "velocity": 89, "channel": 0}, {"type": "note_on", "time": 30, "note": 68, "velocity": 89, "channel": 0}, {"type": "note_off", "time": 53, "note": 68, "velocity": 89, "channel": 0}, {"type": "note_on", "time": 15, "note": 69, "velocity": 109, "channel": 0}, {"type": "note_off", "time": 87, "note": 69, "velocity": 109, "channel": 0}, {"type": "note_on", "time": 31, "note": 67, "velocity": 107, "channel": 0}, {"type": "note_off", "time": 50, "note": 67, "velocity": 107, "channel": 0}, {"type": "note_on", "time": 21, "note": 65, "velocity": 103, "channel": 0}, {"type": "note_off", "time": 86, "note": 65, "velocity": 103, "channel": 0}, {"type": "note_on", "time": 52, "note": 62, "velocity": 90, "channel": 0}, {"type": "note_off", "time": 232, "note": 62, "velocity": 90, "channel": 0}, {"type": "note_on", "time": 12, "note": 62, "velocity": 95, "channel": 0}, {"type": "note_off", "time": 113, "note": 62, "velocity": 95, "channel": 0}, {"type": "note_on", "time": 455, "note": 65, "velocity": 110, "channel": 0}, {"type": "note_off", "time": 83, "note": 65, "velocity": 110, "channel": 0}, {"type": "note_on", "time": 108, "note": 68, "velocity": 104, "channel": 0}, {"type": "note_off", "time": 72, "note": 68, "velocity": 104, "channel": 0}, {"type": "note_on", "time": 4, "note": 69, "velocity": 104, "channel": 0}, {"type": "note_off", "time": 285, "note": 69, "velocity": 104, "channel": 0}, {"type": "note_on", "time": 45, "note": 69, "velocity": 107, "channel": 0}, {"type": "note_off", "time": 240, "note": 69, "velocity": 107, "channel": 0}, {"type": "note_on", "time": 49, "note": 67, "velocity": 106, "channel": 0}, {"type": "note_off", "time": 69, "note": 67, "velocity": 106, "channel": 0}, {"type": "note_on", "time": 17, "note": 65, "velocity": 107, "channel": 0}, {"type": "note_off", "time": 111, "note": 65, "velocity": 107, "channel": 0}, {"type": "note_on", "time": 14, "note": 62, "velocity": 95, "channel": 0}, {"type": "note_off", "time": 97, "note": 62, "velocity": 95, "channel": 0}, {"type": "note_on", "time": 288, "note": 65, "velocity": 112, "channel": 0}, {"type": "note_off", "time": 94, "note": 65, "velocity": 112, "channel": 0}, {"type": "note_on", "time": 135, "note": 72, "velocity": 87, "channel": 0}, {"type": "note_off", "time": 362, "note": 72, "velocity": 87, "channel": 0}, {"type": "note_on", "time": 29, "note": 72, "velocity": 102, "channel": 0}, {"type": "note_off", "time": 252, "note": 72, "velocity": 102, "channel": 0}, {"type": "note_on", "time": 36, "note": 69, "velocity": 106, "channel": 0}, {"type": "note_off", "time": 279, "note": 69, "velocity": 106, "channel": 0}, {"type": "end_of_track", "time": 0}]]}