{"ticks_per_beat": 192, "tracks": [[{"type": "track_name", "name": "Melody", "time": 0}, {"type": "set_tempo", "tempo": 377358, "time": 0}, {"type": "key_signature", "key": "C", "time": 0}, {"type": "time_signature", "numerator": 4, "denominator": 4, "clocks_per_click": 24, "notated_32nd_notes_per_beat": 8, "time": 0}, {"type": "note_on", "time": 1357, "note": 71, "velocity": 125, "channel": 0}, {"type": "note_off", "time": 98, "note": 71, "velocity": 125, "channel": 0}, {"type": "note_on", "time": 101, "note": 71, "velocity": 84, "channel": 0}, {"type": "note_off", "time": 44, "note": 71, "velocity": 84, "channel": 0}, {"type": "note_on", "time": 39, "note": 69, "velocity": 110, "channel": 0}, {"type": "note_off", "time": 98, "note": 69, "velocity": 110, "channel": 0}, {"type": "note_on", "time": 13, "note": 71, "velocity": 115, "channel": 0}, {"type": "note_off", "time": 96, "note": 71, "velocity": 115, "channel": 0}, {"type": "note_on", "time": 0, "note": 72, "velocity": 111, "channel": 0}, {"type": "note_off", "time": 96, "note": 72, "velocity": 111, "channel": 0}, {"type": "note_on", "time": 5, "note": 74, "velocity": 121, "channel": 0}, {"type": "note_off", "time": 82, "note": 74, "velocity": 121, "channel": 0}, {"type": "note_on", "time": 19, "note": 71, "velocity": 114, "channel": 0}, {"type": "note_off", "time": 142, "note": 71, "velocity": 114, "channel": 0}, {"type": "note_on", "time": 40, "note": 67, "velocity": 96, "channel": 0}, {"type": "note_off", "time": 78, "note": 67, "velocity": 96, "channel": 0}, {"type": "note_on", "time": 45, "note": 69, "velocity": 99, "channel": 0}, {"type": "note_off", "time": 342, "note": 69, "velocity": 99, "channel": 0}, {"type": "note_on", "time": 117, "note": 67, "velocity": 97, "channel": 0}, {"type": "note_off", "time": 85, "note": 67, "velocity": 97, "channel": 0}, {"type": "note_on", "time": 16, "note": 69, "velocity": 109, "channel": 0}, {"type": "note_off", "time": 63, "note": 69, "velocity": 109, "channel": 0}, {"type": "note_on", "time": 25, "note": 71, "velocity": 117, "channel": 0}, {"type": "note_off", "time": 98, "note": 71, "velocity": 117, "channel": 0}, {"type": "note_on", "time": 88, "note": 71, "velocity": 107, "channel": 0}, {"type": "note_off", "time": 43, "note": 71, "velocity": 107, "channel": 0}, {"type": "note_on", "time": 6, "note": 72, "velocity": 113, "channel": 0}, {"type": "note_off", "time": 101, "note": 72, "velocity": 113, "channel": 0}, {"type": "note_on", "time": 22, "note": 71, "velocity": 116, "channel": 0}, {"type": "note_off", "time": 109, "note": 71, "velocity": 116, "channel": 0}, {"type": "note_on", "time": 8, "note": 69, "velocity": 118, "channel": 0}, {"type": "note_off", "time": 88, "note": 69, "velocity": 118, "channel": 0}, {"type": "note_on", "time": 13, "note": 68, "velocity": 96, "channel": 0}, {"type": "note_off", "time": 128, "note": 68, "velocity": 96, "channel": 0}, {"type": "note_on", "time": 40, "note": 71, "velocity": 117, "channel": 0}, {"type": "note_off", "time": 112, "note": 71, "velocity": 117, "channel": 0}, {"type": "note_on", "time": 16, "note": 69, "velocity": 99, "channel": 0}, {"type": "note_off", "time": 228, "note": 69, "velocity": 99, "channel": 0}, {"type": "note_on", "time": 42, "note": 64, "velocity": 104, "channel": 0}, {"type": "note_off", "time": 79, "note": 64, "velocity": 104, "channel": 0}, {"type": "note_on", "time": 91, "note": 67, "velocity": 104, "channel": 0}, {"type": "note_off", "time": 363, "note": 67, "velocity": 104, "channel": 0}, {"type": "note_on", "time": 32, "note": 65, "velocity": 106, "channel": 0}, {"type": "note_off", "time": 88, "note": 65, "velocity": 106, "channel": 0}, {"type": "note_on", "time": 80, "note": 69, "velocity": 116, "channel": 0}, {"type": "note_off", "time": 141, "note": 69, "velocity": 116, "channel": 0}, {"type": "note_on", "time": 5, "note": 64, "velocity": 92, "channel": 0}, {"type": "note_off", "time": 322, "note": 64, "velocity": 92, "channel": 0}, {"type": "note_on", "time": 699, "note": 79, "velocity": 120, "channel": 0}, {"type": "note_off", "time": 120, "note": 79, "velocity": 120, "channel": 0}, {"type": "note_on", "time": 3, "note": 77, "velocity": 124, "channel": 0}, {"type": "note_off", "time": 358, "note": 77, "velocity": 124, "channel": 0}, {"type": "note_on", "time": 36, "note": 81, "velocity": 115, "channel": 0}, {"type": "note_off", "time": 232, "note": 81, "velocity": 115, "channel": 0}, {"type": "note_on", "time": 6, "note": 79, "velocity": 112, "channel": 0}, {"type": "note_off", "time": 20, "note": 79, "velocity": 112, "channel": 0}, {"type": "note_on", "time": 4, "note": 76, "velocity": 119, "channel": 0}, {"type": "note_off", "time": 301, "note": 76, "velocity": 119, "channel": 0}, {"type": "note_on", "time": 6, "note": 73, "velocity": 97, "channel": 0}, {"type": "note_off", "time": 46, "note": 73, "velocity": 97, "channel": 0}, {"type": "note_on", "time": 17, "note": 77, "velocity": 114, "channel": 0}, {"type": "note_off", "time": 118, "note": 77, "velocity": 114, "channel": 0}, {"type": "note_on", "time": 15, "note": 74, "velocity": 109, "channel": 0}, {"type": "note_off", "time": 435, "note": 74, "velocity": 109, "channel": 0}, {"type": "note_on", "time": 7, "note": 76, "velocity": 118, "channel": 0}, {"type": "note_off", "time": 116, "note": 76, "velocity": 118, "channel": 0}, {"type": "note_on", "time": 7, "note": 74, "velocity": 112, "channel": 0}, {"type": "note_off", "time": 61, "note": 74, "velocity": 112, "channel": 0}, {"type": "note_on", "time": 1, "note": 72, "velocity": 106, "channel": 0}, {"type": "note_off", "time": 58, "note": 72, "velocity": 106, "channel": 0}, {"type": "note_on", "time": 23, "note": 69, "velocity": 90, "channel": 0}, {"type": "note_off", "time": 46, "note": 69, "velocity": 90, "channel": 0}, {"type": "note_on", "time": 19, "note": 64, "velocity": 107, "channel": 0}, {"type": "note_off", "time": 64, "note": 64, "velocity": 107, "channel": 0}, {"type": "note_on", "time": 7, "note": 62, "velocity": 98, "channel": 0}, {"type": "note_off", "time": 156, "note": 62, "velocity": 98, "channel": 0}, {"type": "note_on", "time": 6, "note": 64, "velocity": 108, "channel": 0}, {"type": "note_off", "time": 192, "note": 64, "velocity": 108, "channel": 0}, {"type": "note_on", "time": 7, "note": 57, "velocity": 90, "channel": 0}, {"type": "note_off", "time": 206, "note": 57, "velocity": 90, "channel": 0}, {"type": "note_on", "time": 12, "note": 60, "velocity": 100, "channel": 0}, {"type": "note_off", "time": 121, "note": 60, "velocity": 100, "channel": 0}, {"type": "note_on", "time": 60, "note": 64, "velocity": 101, "channel": 0}, {"type": "note_off", "time": 272, "note": 64, "velocity": 101, "channel": 0}, {"type": "note_on", "time": 47, "note": 67, "velocity": 98, "channel": 0}, {"type": "note_off", "time": 64, "note": 67, "velocity": 98, "channel": 0}, {"type": "note_on", "time": 47, "note": 71, "velocity": 112, "channel": 0}, {"type": "note_off", "time": 90, "note": 71, "velocity": 112, "channel": 0}, {"type": "note_on", "time": 59, "note": 72, "velocity": 111, "channel": 0}, {"type": "note_off", "time": 135, "note": 72, "velocity": 111, "channel": 0}, {"type": "note_on", "time": 5, "note": 69, "velocity": 105, "channel": 0}, {"type": "note_off", "time": 283, "note": 69, "velocity": 105, "channel": 0}, {"type": "note_on", "time": 663, "note": 70, "velocity": 110, "channel": 0}, {"type": "note_off", "time": 32, "note": 70, "velocity": 110, "channel": 0}, {"type": "note_on", "time": 4, "note": 71, "velocity": 113, "channel": 0}, {"type": "note_off", "time": 186, "note": 71, "velocity": 113, "channel": 0}, {"type": "note_on", "time": 23, "note": 69, "velocity": 116, "channel": 0}, {"type": "note_off", "time": 106, "note": 69, "velocity": 116, "channel": 0}, {"type": "note_on", "time": 18, "note": 67, "velocity": 110, "channel": 0}, {"type": "note_off", "time": 70, "note": 67, "velocity": 110, "channel": 0}, {"type": "note_on", "time": 7, "note": 64, "velocity": 94, "channel": 0}, {"type": "note_off", "time": 100, "note": 64, "velocity": 94, "channel": 0}, {"type": "note_on", "time": 9, "note": 67, "velocity": 110, "channel": 0}, {"type": "note_off", "time": 72, "note": 67, "velocity": 110, "channel": 0}, {"type": "note_on", "time": 4, "note": 69, "velocity": 110, "channel": 0}, {"type": "note_off", "time": 109, "note": 69, "velocity": 110, "channel": 0}, {"type": "note_on", "time": 9, "note": 71, "velocity": 116, "channel": 0}, {"type": "note_off", "time": 66, "note": 71, "velocity": 116, "channel": 0}, {"type": "note_on", "time": 4, "note": 67, "velocity": 100, "channel": 0}, {"type": "note_off", "time": 103, "note": 67, "velocity": 100, "channel": 0}, {"type": "note_on", "time": 15, "note": 69, "velocity": 109, "channel": 0}, {"type": "note_off", "time": 252, "note": 69, "velocity": 109, "channel": 0}, {"type": "note_on", "time": 18, "note": 71, "velocity": 113, "channel": 0}, {"type": "note_off", "time": 70, "note": 71, "velocity": 113, "channel": 0}, {"type": "note_on", "time": 44, "note": 69, "velocity": 113, "channel": 0}, {"type": "note_off", "time": 65, "note": 69, "velocity": 113, "channel": 0}, {"type": "note_on", "time": 17, "note": 67, "velocity": 104, "channel": 0}, {"type": "note_off", "time": 91, "note": 67, "velocity": 104, "channel": 0}, {"type": "note_on", "time": 35, "note": 64, "velocity": 91, "channel": 0}, {"type": "note_off", "time": 40, "note": 64, "velocity": 91, "channel": 0}, {"type": "note_on", "time": 17, "note": 67, "velocity": 104, "channel": 0}, {"type": "note_off", "time": 194, "note": 67, "velocity": 104, "channel": 0}, {"type": "note_on", "time": 11, "note": 68, "velocity": 105, "channel": 0}, {"type": "note_off", "time": 44, "note": 68, "velocity": 105, "channel": 0}, {"type": "note_on", "time": 3, "note": 69, "velocity": 104, "channel": 0}, {"type": "note_off", "time": 44, "note": 69, "velocity": 104, "channel": 0}, {"type": "note_on", "time": 15, "note": 67, "velocity": 108, "channel": 0}, {"type": "note_off", "time": 75, "note": 67, "velocity": 108, "channel": 0}, {"type": "note_on", "time": 16, "note": 64, "velocity": 106, "channel": 0}, {"type": "note_off", "time": 84, "note": 64, "velocity": 106, "channel": 0}, {"type": "note_on", "time": 6, "note": 63, "velocity": 106, "channel": 0}, {"type": "note_off", "time": 77, "note": 63, "velocity": 106, "channel": 0}, {"type": "note_on", "time": 25, "note": 62, "velocity": 97, "channel": 0}, {"type": "note_off", "time": 92, "note": 62, "velocity": 97, "channel": 0}, {"type": "note_on", "time": 66, "note": 67, "velocity": 105, "channel": 0}, {"type": "note_off", "time": 127, "note": 67, "velocity": 105, "channel": 0}, {"type": "note_on", "time": 11, "note": 64, "velocity": 105, "channel": 0}, {"type": "note_off", "time": 266, "note": 64, "velocity": 105, "channel": 0}, {"type": "note_on", "time": 23, "note": 67, "velocity": 102, "channel": 0}, {"type": "note_off", "time": 84, "note": 67, "velocity": 102, "channel": 0}, {"type": "note_on", "time": 106, "note": 71, "velocity": 112, "channel": 0}, {"type": "note_off", "time": 263, "note": 71, "velocity": 112, "channel": 0}, {"type": "note_on", "time": 53, "note": 67, "velocity": 105, "channel": 0}, {"type": "note_off", "time": 60, "note": 67, "velocity": 105, "channel": 0}, {"type": "note_on", "time": 24, "note": 64, "velocity": 109, "channel": 0}, {"type": "note_off", "time": 170, "note": 64, "velocity": 109, "channel": 0}, {"type": "note_on", "time": 13, "note": 59, "velocity": 91, "channel": 0}, {"type": "note_off", "time": 95, "note": 59, "velocity": 91, "channel": 0}, {"type": "note_on", "time": 9, "note": 57, "velocity": 87, "channel": 0}, {"type": "note_off", "time": 371, "note": 57, "velocity": 87, "channel": 0}, {"type": "note_on", "time": 753, "note": 59, "velocity": 80, "channel": 0}, {"type": "note_off", "time": 40, "note": 59, "velocity": 80, "channel": 0}, {"type": "note_on", "time": 9, "note": 60, "velocity": 96, "channel": 0}, {"type": "note_off", "time": 43, "note": 60, "velocity": 96, "channel": 0}, {"type": "note_on", "time": 18, "note": 64, "velocity": 110, "channel": 0}, {"type": "note_off", "time": 120, "note": 64, "velocity": 110, "channel": 0}, {"type": "note_on", "time": 8, "note": 63, "velocity": 104, "channel": 0}, {"type": "note_off", "time": 63, "note": 63, "velocity": 104, "channel": 0}, {"type": "note_on", "time": 7, "note": 62, "velocity": 92, "channel": 0}, {"type": "note_off", "time": 104, "note": 62, "velocity": 92, "channel": 0}, {"type": "note_on", "time": 10, "note": 61, "velocity": 99, "channel": 0}, {"type": "note_off", "time": 88, "note": 61, "velocity": 99, "channel": 0}, {"type": "note_on", "time": 10, "note": 60, "velocity": 98, "channel": 0}, {"type": "note_off", "time": 82, "note": 60, "velocity": 98, "channel": 0}, {"type": "note_on", "time": 8, "note": 63, "velocity": 88, "channel": 0}, {"type": "note_off", "time": 67, "note": 63, "velocity": 88, "channel": 0}, {"type": "note_on", "time": 9, "note": 67, "velocity": 109, "channel": 0}, {"type": "note_off", "time": 112, "note": 67, "velocity": 109, "channel": 0}, {"type": "note_on", "time": 15, "note": 69, "velocity": 107, "channel": 0}, {"type": "note_off", "time": 49, "note": 69, "velocity": 107, "channel": 0}, {"type": "note_on", "time": 3, "note": 71, "velocity": 118, "channel": 0}, {"type": "note_off", "time": 183, "note": 71, "velocity": 118, "channel": 0}, {"type": "note_on", "time": 7, "note": 69, "velocity": 118, "channel": 0}, {"type": "note_off", "time": 130, "note": 69, "velocity": 118, "channel": 0}, {"type": "note_on", "time": 84, "note": 67, "velocity": 105, "channel": 0}, {"type": "note_off", "time": 288, "note": 67, "velocity": 105, "channel": 0}, {"type": "note_on", "time": 33, "note": 66, "velocity": 106, "channel": 0}, {"type": "note_off", "time": 75, "note": 66, "velocity": 106, "channel": 0}, {"type": "note_on", "time": 11, "note": 65, "velocity": 106, "channel": 0}, {"type": "note_off", "time": 118, "note": 65, "velocity": 106, "channel": 0}, {"type": "note_on", "time": 57, "note": 69, "velocity": 117, "channel": 0}, {"type": "note_off", "time": 114, "note": 69, "velocity": 117, "channel": 0}, {"type": "note_on", "time": 11, "note": 72, "velocity": 109, "channel": 0}, {"type": "note_off", "time": 255, "note": 72, "velocity": 109, "channel": 0}, {"type": "note_on", "time": 1, "note": 69, "velocity": 115, "channel": 0}, {"type": "note_off", "time": 124, "note": 69, "velocity": 115, "channel": 0}, {"type": "note_on", "time": 5, "note": 64, "velocity": 107, "channel": 0}, {"type": "note_off", "time": 252, "note": 64, "velocity": 107, "channel": 0}, {"type": "note_on", "time": 17, "note": 67, "velocity": 104, "channel": 0}, {"type": "note_off", "time": 127, "note": 67, "velocity": 104, "channel": 0}, {"type": "note_on", "time": 10, "note": 69, "velocity": 111, "channel": 0}, {"type": "note_off", "time": 239, "note": 69, "velocity": 111, "channel": 0}, {"type": "note_on", "time": 23, "note": 64, "velocity": 107, "channel": 0}, {"type": "note_off", "time": 99, "note": 64, "velocity": 107, "channel": 0}, {"type": "note_on", "time": 18, "note": 67, "velocity": 104, "channel": 0}, {"type": "note_off", "time": 254, "note": 67, "velocity": 104, "channel": 0}, {"type": "note_on", "time": 17, "note": 64, "velocity": 106, "channel": 0}, {"type": "note_off", "time": 92, "note": 64, "velocity": 106, "channel": 0}, {"type": "note_on", "time": 81, "note": 66, "velocity": 100, "channel": 0}, {"type": "note_off", "time": 45, "note": 66, "velocity": 100, "channel": 0}, {"type": "note_on", "time": 6, "note": 67, "velocity": 106, "channel": 0}, {"type": "note_off", "time": 130, "note": 67, "velocity": 106, "channel": 0}, {"type": "note_on", "time": 8, "note": 66, "velocity": 106, "channel": 0}, {"type": "note_off", "time": 129, "note": 66, "velocity": 106, "channel": 0}, {"type": "note_on", "time": 4, "note": 65, "velocity": 102, "channel": 0}, {"type": "note_off", "time": 248, "note": 65, "velocity": 102, "channel": 0}, {"type": "note_on", "time": 4, "note": 64, "velocity": 108, "channel": 0}, {"type": "note_off", "time": 116, "note": 64, "velocity": 108, "channel": 0}, {"type": "note_on", "time": 35, "note": 62, "velocity": 101, "channel": 0}, {"type": "note_off", "time": 101, "note": 62, "velocity": 101, "channel": 0}, {"type": "note_on", "time": 476, "note": 65, "velocity": 96, "channel": 0}, {"type": "note_off", "time": 48, "note": 65, "velocity": 96, "channel": 0}, {"type": "note_on", "time": 29, "note": 69, "velocity": 107, "channel": 0}, {"type": "note_off", "time": 82, "note": 69, "velocity": 107, "channel": 0}, {"type": "note_on", "time": 14, "note": 72, "velocity": 117, "channel": 0}, {"type": "note_off", "time": 68, "note": 72, "velocity": 117, "channel": 0}, {"type": "note_on", "time": 24, "note": 76, "velocity": 127, "channel": 0}, {"type": "note_off", "time": 120, "note": 76, "velocity": 127, "channel": 0}, {"type": "note_on", "time": 45, "note": 79, "velocity": 111, "channel": 0}, {"type": "note_off", "time": 415, "note": 79, "velocity": 111, "channel": 0}, {"type": "note_on", "time": 4, "note": 76, "velocity": 121, "channel": 0}, {"type": "note_off", "time": 117, "note": 76, "velocity": 121, "channel": 0}, {"type": "note_on", "time": 7, "note": 74, "velocity": 102, "channel": 0}, {"type": "note_off", "time": 368, "note": 74, "velocity": 102, "channel": 0}, {"type": "note_on", "time": 14, "note": 79, "velocity": 113, "channel": 0}, {"type": "note_off", "time": 235, "note": 79, "velocity": 113, "channel": 0}, {"type": "note_on", "time": 18, "note": 74, "velocity": 113, "channel": 0}, {"type": "note_off", "time": 139, "note": 74, "velocity": 113, "channel": 0}, {"type": "note_on", "time": 7, "note": 71, "velocity": 106, "channel": 0}, {"type": "note_off", "time": 222, "note": 71, "velocity": 106, "channel": 0}, {"type": "note_on", "time": 20, "note": 74, "velocity": 107, "channel": 0}, {"type": "note_off", "time": 112, "note": 74, "velocity": 107, "channel": 0}, {"type": "note_on", "time": 14, "note": 77, "velocity": 112, "channel": 0}, {"type": "note_off", "time": 272, "note": 77, "velocity": 112, "channel": 0}, {"type": "note_on", "time": 4, "note": 76, "velocity": 115, "channel": 0}, {"type": "note_off", "time": 55, "note": 76, "velocity": 115, "channel": 0}, {"type": "note_on", "time": 3, "note": 74, "velocity": 104, "channel": 0}, {"type": "note_off", "time": 45, "note": 74, "velocity": 104, "channel": 0}, {"type": "note_on", "time": 11, "note": 72, "velocity": 110, "channel": 0}, {"type": "note_off", "time": 56, "note": 72, "velocity": 110, "channel": 0}, {"type": "note_on", "time": 12, "note": 71, "velocity": 106, "channel": 0}, {"type": "note_off", "time": 214, "note": 71, "velocity": 106, "channel": 0}, {"type": "note_on", "time": 2, "note": 72, "velocity": 101, "channel": 0}, {"type": "note_off", "time": 150, "note": 72, "velocity": 101, "channel": 0}, {"type": "note_on", "time": 5, "note": 67, "velocity": 99, "channel": 0}, {"type": "note_off", "time": 185, "note": 67, "velocity": 99, "channel": 0}, {"type": "note_on", "time": 8, "note": 64, "velocity": 104, "channel": 0}, {"type": "note_off", "time": 119, "note": 64, "velocity": 104, "channel": 0}, {"type": "note_on", "time": 6, "note": 62, "velocity": 93, "channel": 0}, {"type": "note_off", "time": 212, "note": 62, "velocity": 93, "channel": 0}, {"type": "note_on", "time": 368, "note": 71, "velocity": 111, "channel": 0}, {"type": "note_off", "time": 68, "note": 71, "velocity": 111, "channel": 0}, {"type": "note_on", "time": 6, "note": 72, "velocity": 105, "channel": 0}, {"type": "note_off", "time": 160, "note": 72, "velocity": 105, "channel": 0}, {"type": "note_on", "time": 5, "note": 67, "velocity": 101, "channel": 0}, {"type": "note_off", "time": 285, "note": 67, "velocity": 101, "channel": 0}, {"type": "note_on", "time": 41, "note": 64, "velocity": 106, "channel": 0}, {"type": "note_off", "time": 74, "note": 64, "velocity": 106, "channel": 0}, {"type": "note_on", "time": 14, "note": 62, "velocity": 100, "channel": 0}, {"type": "note_off", "time": 97, "note": 62, "velocity": 100, "channel": 0}, {"type": "note_on", "time": 100, "note": 60, "velocity": 89, "channel": 0}, {"type": "note_off", "time": 90, "note": 60, "velocity": 89, "channel": 0}, {"type": "note_on", "time": 11, "note": 62, "velocity": 98, "channel": 0}, {"type": "note_off", "time": 60, "note": 62, "velocity": 98, "channel": 0}, {"type": "note_on", "time": 38, "note": 63, "velocity": 98, "channel": 0}, {"type": "note_off", "time": 67, "note": 63, "velocity": 98, "channel": 0}, {"type": "note_on", "time": 25, "note": 65, "velocity": 106, "channel": 0}, {"type": "note_off", "time": 50, "note": 65, "velocity": 106, "channel": 0}, {"type": "note_on", "time": 4, "note": 67, "velocity": 105, "channel": 0}, {"type": "note_off", "time": 121, "note": 67, "velocity": 105, "channel": 0}, {"type": "note_on", "time": 10, "note": 68, "velocity": 110, "channel": 0}, {"type": "note_off", "time": 86, "note": 68, "velocity": 110, "channel": 0}, {"type": "note_on", "time": 20, "note": 69, "velocity": 113, "channel": 0}, {"type": "note_off", "time": 28, "note": 69, "velocity": 113, "channel": 0}, {"type": "note_on", "time": 5, "note": 70, "velocity": 106, "channel": 0}, {"type": "note_off", "time": 69, "note": 70, "velocity": 106, "channel": 0}, {"type": "note_on", "time": 7, "note": 68, "velocity": 99, "channel": 0}, {"type": "note_off", "time": 50, "note": 68, "velocity": 99, "channel": 0}, {"type": "note_on", "time": 22, "note": 63, "velocity": 97, "channel": 0}, {"type": "note_off", "time": 41, "note": 63, "velocity": 97, "channel": 0}, {"type": "note_on", "time": 14, "note": 60, "velocity": 87, "channel": 0}, {"type": "note_off", "time": 47, "note": 60, "velocity": 87, "channel": 0}, {"type": "note_on", "time": 74, "note": 67, "velocity": 109, "channel": 0}, {"type": "note_off", "time": 124, "note": 67, "velocity": 109, "channel": 0}, {"type": "end_of_track", "time": 0}]]}