{"ticks_per_beat": 192, "tracks": [[{"type": "track_name", "name": "Melody", "time": 0}, {"type": "set_tempo", "tempo": 337078, "time": 0}, {"type": "key_signature", "key": "G", "time": 0}, {"type": "time_signature", "numerator": 4, "denominator": 4, "clocks_per_click": 24, "notated_32nd_notes_per_beat": 8, "time": 0}, {"type": "note_on", "time": 429, "note": 71, "velocity": 107, "channel": 0}, {"type": "note_off", "time": 95, "note": 71, "velocity": 107, "channel": 0}, {"type": "note_on", "time": 3, "note": 74, "velocity": 111, "channel": 0}, {"type": "note_off", "time": 132, "note": 74, "velocity": 111, "channel": 0}, {"type": "note_on", "time": 62, "note": 66, "velocity": 97, "channel": 0}, {"type": "note_on", "time": 119, "note": 69, "velocity": 111, "channel": 0}, {"type": "note_off", "time": 0, "note": 66, "velocity": 97, "channel": 0}, {"type": "note_off", "time": 82, "note": 69, "velocity": 111, "channel": 0}, {"type": "note_on", "time": 16, "note": 71, "velocity": 80, "channel": 0}, {"type": "note_off", "time": 201, "note": 71, "velocity": 80, "channel": 0}, {"type": "note_on", "time": 3, "note": 74, "velocity": 115, "channel": 0}, {"type": "note_off", "time": 195, "note": 74, "velocity": 115, "channel": 0}, {"type": "note_on", "time": 3, "note": 72, "velocity": 111, "channel": 0}, {"type": "note_off", "time": 112, "note": 72, "velocity": 111, "channel": 0}, {"type": "note_on", "time": 9, "note": 70, "velocity": 109, "channel": 0}, {"type": "note_off", "time": 99, "note": 70, "velocity": 109, "channel": 0}, {"type": "note_on", "time": 0, "note": 67, "velocity": 104, "channel": 0}, {"type": "note_off", "time": 105, "note": 67, "velocity": 104, "channel": 0}, {"type": "note_on", "time": 16, "note": 65, "velocity": 102, "channel": 0}, {"type": "note_off", "time": 66, "note": 65, "velocity": 102, "channel": 0}, {"type": "note_on", "time": 6, "note": 63, "velocity": 95, "channel": 0}, {"type": "note_off", "time": 171, "note": 63, "velocity": 95, "channel": 0}, {"type": "note_on", "time": 42, "note": 62, "velocity": 89, "channel": 0}, {"type": "note_off", "time": 327, "note": 62, "velocity": 89, "channel": 0}, {"type": "note_on", "time": 1646, "note": 64, "velocity": 105, "channel": 0}, {"type": "note_off", "time": 95, "note": 64, "velocity": 105, "channel": 0}, {"type": "note_on", "time": 16, "note": 62, "velocity": 101, "channel": 0}, {"type": "note_off", "time": 42, "note": 62, "velocity": 101, "channel": 0}, {"type": "note_on", "time": 238, "note": 66, "velocity": 107, "channel": 0}, {"type": "note_off", "time": 82, "note": 66, "velocity": 107, "channel": 0}, {"type": "note_on", "time": 26, "note": 64, "velocity": 106, "channel": 0}, {"type": "note_off", "time": 72, "note": 64, "velocity": 106, "channel": 0}, {"type": "note_on", "time": 33, "note": 63, "velocity": 94, "channel": 0}, {"type": "note_off", "time": 69, "note": 63, "velocity": 94, "channel": 0}, {"type": "note_on", "time": 42, "note": 64, "velocity": 81, "channel": 0}, {"type": "note_off", "time": 79, "note": 64, "velocity": 81, "channel": 0}, {"type": "note_on", "time": 6, "note": 66, "velocity": 103, "channel": 0}, {"type": "note_off", "time": 72, "note": 66, "velocity": 103, "channel": 0}, {"type": "note_on", "time": 19, "note": 67, "velocity": 107, "channel": 0}, {"type": "note_off", "time": 109, "note": 67, "velocity": 107, "channel": 0}, {"type": "note_on", "time": 0, "note": 69, "velocity": 106, "channel": 0}, {"type": "note_off", "time": 62, "note": 69, "velocity": 106, "channel": 0}, {"type": "note_on", "time": 42, "note": 70, "velocity": 112, "channel": 0}, {"type": "note_off", "time": 69, "note": 70, "velocity": 112, "channel": 0}, {"type": "note_on", "time": 9, "note": 71, "velocity": 106, "channel": 0}, {"type": "note_off", "time": 89, "note": 71, "velocity": 106, "channel": 0}, {"type": "note_on", "time": 6, "note": 74, "velocity": 119, "channel": 0}, {"type": "note_off", "time": 79, "note": 74, "velocity": 119, "channel": 0}, {"type": "note_on", "time": 13, "note": 76, "velocity": 119, "channel": 0}, {"type": "note_off", "time": 85, "note": 76, "velocity": 119, "channel": 0}, {"type": "note_on", "time": 82, "note": 78, "velocity": 119, "channel": 0}, {"type": "note_off", "time": 128, "note": 78, "velocity": 119, "channel": 0}, {"type": "note_on", "time": 0, "note": 79, "velocity": 110, "channel": 0}, {"type": "note_off", "time": 446, "note": 79, "velocity": 110, "channel": 0}, {"type": "note_on", "time": 6, "note": 78, "velocity": 122, "channel": 0}, {"type": "note_off", "time": 49, "note": 78, "velocity": 122, "channel": 0}, {"type": "note_on", "time": 6, "note": 79, "velocity": 115, "channel": 0}, {"type": "note_off", "time": 62, "note": 79, "velocity": 115, "channel": 0}, {"type": "note_on", "time": 9, "note": 78, "velocity": 116, "channel": 0}, {"type": "note_off", "time": 59, "note": 78, "velocity": 116, "channel": 0}, {"type": "note_on", "time": 9, "note": 76, "velocity": 119, "channel": 0}, {"type": "note_off", "time": 105, "note": 76, "velocity": 119, "channel": 0}, {"type": "note_on", "time": 3, "note": 75, "velocity": 115, "channel": 0}, {"type": "note_off", "time": 92, "note": 75, "velocity": 115, "channel": 0}, {"type": "note_on", "time": 13, "note": 74, "velocity": 116, "channel": 0}, {"type": "note_off", "time": 85, "note": 74, "velocity": 116, "channel": 0}, {"type": "note_on", "time": 13, "note": 67, "velocity": 72, "channel": 0}, {"type": "note_off", "time": 62, "note": 67, "velocity": 72, "channel": 0}, {"type": "note_on", "time": 33, "note": 69, "velocity": 94, "channel": 0}, {"type": "note_off", "time": 89, "note": 69, "velocity": 94, "channel": 0}, {"type": "note_on", "time": 13, "note": 72, "velocity": 118, "channel": 0}, {"type": "note_off", "time": 72, "note": 72, "velocity": 118, "channel": 0}, {"type": "note_on", "time": 9, "note": 71, "velocity": 110, "channel": 0}, {"type": "note_off", "time": 89, "note": 71, "velocity": 110, "channel": 0}, {"type": "note_on", "time": 6, "note": 68, "velocity": 97, "channel": 0}, {"type": "note_off", "time": 89, "note": 68, "velocity": 97, "channel": 0}, {"type": "note_on", "time": 5, "note": 71, "velocity": 102, "channel": 0}, {"type": "note_off", "time": 204, "note": 71, "velocity": 102, "channel": 0}, {"type": "note_on", "time": 695, "note": 70, "velocity": 85, "channel": 0}, {"type": "note_off", "time": 132, "note": 70, "velocity": 85, "channel": 0}, {"type": "note_on", "time": 56, "note": 73, "velocity": 122, "channel": 0}, {"type": "note_off", "time": 39, "note": 73, "velocity": 122, "channel": 0}, {"type": "note_on", "time": 0, "note": 74, "velocity": 115, "channel": 0}, {"type": "note_off", "time": 211, "note": 74, "velocity": 115, "channel": 0}, {"type": "note_on", "time": 0, "note": 70, "velocity": 115, "channel": 0}, {"type": "note_off", "time": 95, "note": 70, "velocity": 115, "channel": 0}, {"type": "note_on", "time": 26, "note": 67, "velocity": 110, "channel": 0}, {"type": "note_off", "time": 66, "note": 67, "velocity": 110, "channel": 0}, {"type": "note_on", "time": 8, "note": 63, "velocity": 99, "channel": 0}, {"type": "note_off", "time": 66, "note": 63, "velocity": 99, "channel": 0}, {"type": "note_on", "time": 44, "note": 67, "velocity": 111, "channel": 0}, {"type": "note_off", "time": 62, "note": 67, "velocity": 111, "channel": 0}, {"type": "note_on", "time": 19, "note": 70, "velocity": 116, "channel": 0}, {"type": "note_off", "time": 92, "note": 70, "velocity": 116, "channel": 0}, {"type": "note_on", "time": 99, "note": 71, "velocity": 116, "channel": 0}, {"type": "note_off", "time": 39, "note": 71, "velocity": 116, "channel": 0}, {"type": "note_on", "time": 0, "note": 72, "velocity": 114, "channel": 0}, {"type": "note_off", "time": 152, "note": 72, "velocity": 114, "channel": 0}, {"type": "note_on", "time": 0, "note": 69, "velocity": 114, "channel": 0}, {"type": "note_off", "time": 99, "note": 69, "velocity": 114, "channel": 0}, {"type": "note_on", "time": 6, "note": 65, "velocity": 109, "channel": 0}, {"type": "note_off", "time": 72, "note": 65, "velocity": 109, "channel": 0}, {"type": "note_on", "time": 16, "note": 62, "velocity": 89, "channel": 0}, {"type": "note_off", "time": 92, "note": 62, "velocity": 89, "channel": 0}, {"type": "note_on", "time": 6, "note": 65, "velocity": 94, "channel": 0}, {"type": "note_off", "time": 95, "note": 65, "velocity": 94, "channel": 0}, {"type": "note_on", "time": 3, "note": 69, "velocity": 113, "channel": 0}, {"type": "note_off", "time": 95, "note": 69, "velocity": 113, "channel": 0}, {"type": "note_on", "time": 16, "note": 69, "velocity": 112, "channel": 0}, {"type": "note_on", "time": 52, "note": 70, "velocity": 119, "channel": 0}, {"type": "note_off", "time": 0, "note": 69, "velocity": 112, "channel": 0}, {"type": "note_off", "time": 168, "note": 70, "velocity": 119, "channel": 0}, {"type": "note_on", "time": 33, "note": 67, "velocity": 109, "channel": 0}, {"type": "note_off", "time": 99, "note": 67, "velocity": 109, "channel": 0}, {"type": "note_on", "time": 39, "note": 63, "velocity": 105, "channel": 0}, {"type": "note_off", "time": 85, "note": 63, "velocity": 105, "channel": 0}, {"type": "note_on", "time": 3, "note": 60, "velocity": 84, "channel": 0}, {"type": "note_off", "time": 76, "note": 60, "velocity": 84, "channel": 0}, {"type": "note_on", "time": 19, "note": 62, "velocity": 106, "channel": 0}, {"type": "note_off", "time": 66, "note": 62, "velocity": 106, "channel": 0}, {"type": "note_on", "time": 16, "note": 64, "velocity": 97, "channel": 0}, {"type": "note_off", "time": 92, "note": 64, "velocity": 97, "channel": 0}, {"type": "note_on", "time": 6, "note": 65, "velocity": 113, "channel": 0}, {"type": "note_off", "time": 79, "note": 65, "velocity": 113, "channel": 0}, {"type": "note_on", "time": 16, "note": 66, "velocity": 101, "channel": 0}, {"type": "note_off", "time": 99, "note": 66, "velocity": 101, "channel": 0}, {"type": "note_on", "time": 89, "note": 69, "velocity": 113, "channel": 0}, {"type": "note_off", "time": 181, "note": 69, "velocity": 113, "channel": 0}, {"type": "note_on", "time": 13, "note": 66, "velocity": 110, "channel": 0}, {"type": "note_off", "time": 181, "note": 66, "velocity": 110, "channel": 0}, {"type": "note_on", "time": 3, "note": 64, "velocity": 108, "channel": 0}, {"type": "note_off", "time": 152, "note": 64, "velocity": 108, "channel": 0}, {"type": "note_on", "time": 0, "note": 57, "velocity": 83, "channel": 0}, {"type": "note_off", "time": 257, "note": 57, "velocity": 83, "channel": 0}, {"type": "note_on", "time": 843, "note": 60, "velocity": 104, "channel": 0}, {"type": "note_off", "time": 79, "note": 60, "velocity": 104, "channel": 0}, {"type": "note_on", "time": 9, "note": 62, "velocity": 110, "channel": 0}, {"type": "note_off", "time": 79, "note": 62, "velocity": 110, "channel": 0}, {"type": "note_on", "time": 39, "note": 61, "velocity": 111, "channel": 0}, {"type": "note_off", "time": 59, "note": 61, "velocity": 111, "channel": 0}, {"type": "note_on", "time": 16, "note": 60, "velocity": 98, "channel": 0}, {"type": "note_off", "time": 59, "note": 60, "velocity": 98, "channel": 0}, {"type": "note_on", "time": 29, "note": 64, "velocity": 112, "channel": 0}, {"type": "note_off", "time": 99, "note": 64, "velocity": 112, "channel": 0}, {"type": "note_on", "time": 16, "note": 59, "velocity": 99, "channel": 0}, {"type": "note_off", "time": 102, "note": 59, "velocity": 99, "channel": 0}, {"type": "note_on", "time": 0, "note": 57, "velocity": 100, "channel": 0}, {"type": "note_off", "time": 62, "note": 57, "velocity": 100, "channel": 0}, {"type": "note_on", "time": 0, "note": 60, "velocity": 102, "channel": 0}, {"type": "note_off", "time": 79, "note": 60, "velocity": 102, "channel": 0}, {"type": "note_on", "time": 29, "note": 59, "velocity": 104, "channel": 0}, {"type": "note_off", "time": 79, "note": 59, "velocity": 104, "channel": 0}, {"type": "note_on", "time": 13, "note": 60, "velocity": 95, "channel": 0}, {"type": "note_off", "time": 76, "note": 60, "velocity": 95, "channel": 0}, {"type": "note_on", "time": 26, "note": 62, "velocity": 111, "channel": 0}, {"type": "note_off", "time": 66, "note": 62, "velocity": 111, "channel": 0}, {"type": "note_on", "time": 23, "note": 65, "velocity": 114, "channel": 0}, {"type": "note_off", "time": 95, "note": 65, "velocity": 114, "channel": 0}, {"type": "note_on", "time": 26, "note": 62, "velocity": 108, "channel": 0}, {"type": "note_off", "time": 42, "note": 62, "velocity": 108, "channel": 0}, {"type": "note_on", "time": 23, "note": 63, "velocity": 101, "channel": 0}, {"type": "note_off", "time": 66, "note": 63, "velocity": 101, "channel": 0}, {"type": "note_on", "time": 26, "note": 67, "velocity": 107, "channel": 0}, {"type": "note_off", "time": 76, "note": 67, "velocity": 107, "channel": 0}, {"type": "note_on", "time": 33, "note": 70, "velocity": 111, "channel": 0}, {"type": "note_off", "time": 69, "note": 70, "velocity": 111, "channel": 0}, {"type": "note_on", "time": 0, "note": 74, "velocity": 125, "channel": 0}, {"type": "note_off", "time": 92, "note": 74, "velocity": 125, "channel": 0}, {"type": "note_on", "time": 6, "note": 77, "velocity": 124, "channel": 0}, {"type": "note_off", "time": 92, "note": 77, "velocity": 124, "channel": 0}, {"type": "note_on", "time": 13, "note": 75, "velocity": 127, "channel": 0}, {"type": "note_off", "time": 72, "note": 75, "velocity": 127, "channel": 0}, {"type": "note_on", "time": 0, "note": 66, "velocity": 90, "channel": 0}, {"type": "note_off", "time": 99, "note": 66, "velocity": 90, "channel": 0}, {"type": "note_on", "time": 9, "note": 69, "velocity": 87, "channel": 0}, {"type": "note_off", "time": 79, "note": 69, "velocity": 87, "channel": 0}, {"type": "note_on", "time": 16, "note": 73, "velocity": 125, "channel": 0}, {"type": "note_off", "time": 79, "note": 73, "velocity": 125, "channel": 0}, {"type": "note_on", "time": 0, "note": 74, "velocity": 120, "channel": 0}, {"type": "note_off", "time": 178, "note": 74, "velocity": 120, "channel": 0}, {"type": "note_on", "time": 36, "note": 74, "velocity": 118, "channel": 0}, {"type": "note_off", "time": 271, "note": 74, "velocity": 118, "channel": 0}, {"type": "note_on", "time": 16, "note": 74, "velocity": 112, "channel": 0}, {"type": "note_off", "time": 257, "note": 74, "velocity": 112, "channel": 0}, {"type": "note_on", "time": 29, "note": 72, "velocity": 117, "channel": 0}, {"type": "note_off", "time": 92, "note": 72, "velocity": 117, "channel": 0}, {"type": "note_on", "time": 82, "note": 71, "velocity": 117, "channel": 0}, {"type": "note_on", "time": 89, "note": 72, "velocity": 115, "channel": 0}, {"type": "note_off", "time": 0, "note": 71, "velocity": 117, "channel": 0}, {"type": "note_off", "time": 79, "note": 72, "velocity": 115, "channel": 0}, {"type": "note_on", "time": 16, "note": 71, "velocity": 110, "channel": 0}, {"type": "note_off", "time": 85, "note": 71, "velocity": 110, "channel": 0}, {"type": "note_on", "time": 0, "note": 69, "velocity": 112, "channel": 0}, {"type": "note_off", "time": 112, "note": 69, "velocity": 112, "channel": 0}, {"type": "note_on", "time": 82, "note": 71, "velocity": 114, "channel": 0}, {"type": "note_off", "time": 261, "note": 71, "velocity": 114, "channel": 0}, {"type": "note_on", "time": 36, "note": 71, "velocity": 111, "channel": 0}, {"type": "note_off", "time": 363, "note": 71, "velocity": 111, "channel": 0}, {"type": "note_on", "time": 33, "note": 71, "velocity": 109, "channel": 0}, {"type": "note_off", "time": 224, "note": 71, "velocity": 109, "channel": 0}, {"type": "note_on", "time": 33, "note": 69, "velocity": 113, "channel": 0}, {"type": "note_off", "time": 89, "note": 69, "velocity": 113, "channel": 0}, {"type": "note_on", "time": 26, "note": 67, "velocity": 104, "channel": 0}, {"type": "note_off", "time": 85, "note": 67, "velocity": 104, "channel": 0}, {"type": "note_on", "time": 3, "note": 69, "velocity": 112, "channel": 0}, {"type": "note_off", "time": 85, "note": 69, "velocity": 112, "channel": 0}, {"type": "note_on", "time": 0, "note": 67, "velocity": 111, "channel": 0}, {"type": "note_off", "time": 79, "note": 67, "velocity": 111, "channel": 0}, {"type": "note_on", "time": 23, "note": 66, "velocity": 108, "channel": 0}, {"type": "note_off", "time": 82, "note": 66, "velocity": 108, "channel": 0}, {"type": "note_on", "time": 19, "note": 64, "velocity": 91, "channel": 0}, {"type": "note_off", "time": 52, "note": 64, "velocity": 91, "channel": 0}, {"type": "note_on", "time": 66, "note": 66, "velocity": 108, "channel": 0}, {"type": "note_off", "time": 112, "note": 66, "velocity": 108, "channel": 0}, {"type": "note_on", "time": 29, "note": 62, "velocity": 94, "channel": 0}, {"type": "note_off", "time": 85, "note": 62, "velocity": 94, "channel": 0}, {"type": "note_on", "time": 6, "note": 64, "velocity": 98, "channel": 0}, {"type": "note_off", "time": 181, "note": 64, "velocity": 98, "channel": 0}, {"type": "note_on", "time": 214, "note": 66, "velocity": 112, "channel": 0}, {"type": "note_off", "time": 49, "note": 66, "velocity": 112, "channel": 0}, {"type": "note_on", "time": 0, "note": 67, "velocity": 111, "channel": 0}, {"type": "note_off", "time": 185, "note": 67, "velocity": 111, "channel": 0}, {"type": "note_on", "time": 39, "note": 64, "velocity": 111, "channel": 0}, {"type": "note_off", "time": 82, "note": 64, "velocity": 111, "channel": 0}, {"type": "note_on", "time": 79, "note": 66, "velocity": 114, "channel": 0}, {"type": "note_off", "time": 191, "note": 66, "velocity": 114, "channel": 0}, {"type": "note_on", "time": 0, "note": 69, "velocity": 117, "channel": 0}, {"type": "note_off", "time": 171, "note": 69, "velocity": 117, "channel": 0}, {"type": "note_on", "time": 19, "note": 66, "velocity": 109, "channel": 0}, {"type": "note_off", "time": 185, "note": 66, "velocity": 109, "channel": 0}, {"type": "note_on", "time": 23, "note": 67, "velocity": 109, "channel": 0}, {"type": "note_off", "time": 145, "note": 67, "velocity": 109, "channel": 0}, {"type": "note_on", "time": 19, "note": 71, "velocity": 111, "channel": 0}, {"type": "note_off", "time": 138, "note": 71, "velocity": 111, "channel": 0}, {"type": "note_on", "time": 52, "note": 76, "velocity": 118, "channel": 0}, {"type": "note_off", "time": 122, "note": 76, "velocity": 118, "channel": 0}, {"type": "note_on", "time": 9, "note": 74, "velocity": 110, "channel": 0}, {"type": "note_off", "time": 171, "note": 74, "velocity": 110, "channel": 0}, {"type": "note_on", "time": 621, "note": 79, "velocity": 118, "channel": 0}, {"type": "note_off", "time": 79, "note": 79, "velocity": 118, "channel": 0}, {"type": "note_on", "time": 95, "note": 77, "velocity": 125, "channel": 0}, {"type": "note_off", "time": 69, "note": 77, "velocity": 125, "channel": 0}, {"type": "note_on", "time": 112, "note": 72, "velocity": 85, "channel": 0}, {"type": "note_on", "time": 69, "note": 76, "velocity": 119, "channel": 0}, {"type": "note_off", "time": 0, "note": 72, "velocity": 85, "channel": 0}, {"type": "note_off", "time": 119, "note": 76, "velocity": 119, "channel": 0}, {"type": "note_on", "time": 9, "note": 74, "velocity": 116, "channel": 0}, {"type": "note_off", "time": 82, "note": 74, "velocity": 116, "channel": 0}, {"type": "note_on", "time": 122, "note": 80, "velocity": 119, "channel": 0}, {"type": "note_off", "time": 238, "note": 80, "velocity": 119, "channel": 0}, {"type": "note_on", "time": 3, "note": 79, "velocity": 121, "channel": 0}, {"type": "note_off", "time": 105, "note": 79, "velocity": 121, "channel": 0}, {"type": "note_on", "time": 16, "note": 77, "velocity": 118, "channel": 0}, {"type": "note_off", "time": 79, "note": 77, "velocity": 118, "channel": 0}, {"type": "note_on", "time": 13, "note": 76, "velocity": 120, "channel": 0}, {"type": "note_off", "time": 99, "note": 76, "velocity": 120, "channel": 0}, {"type": "note_on", "time": 0, "note": 75, "velocity": 88, "channel": 0}, {"type": "note_off", "time": 79, "note": 75, "velocity": 88, "channel": 0}, {"type": "note_on", "time": 373, "note": 74, "velocity": 118, "channel": 0}, {"type": "note_off", "time": 102, "note": 74, "velocity": 118, "channel": 0}, {"type": "note_on", "time": 46, "note": 71, "velocity": 76, "channel": 0}, {"type": "note_off", "time": 39, "note": 71, "velocity": 76, "channel": 0}, {"type": "note_on", "time": 13, "note": 72, "velocity": 102, "channel": 0}, {"type": "note_off", "time": 89, "note": 72, "velocity": 102, "channel": 0}, {"type": "note_on", "time": 3, "note": 74, "velocity": 118, "channel": 0}, {"type": "note_off", "time": 69, "note": 74, "velocity": 118, "channel": 0}, {"type": "note_on", "time": 19, "note": 75, "velocity": 118, "channel": 0}, {"type": "note_off", "time": 95, "note": 75, "velocity": 118, "channel": 0}, {"type": "note_on", "time": 0, "note": 77, "velocity": 121, "channel": 0}, {"type": "note_off", "time": 82, "note": 77, "velocity": 121, "channel": 0}, {"type": "note_on", "time": 16, "note": 79, "velocity": 121, "channel": 0}, {"type": "note_off", "time": 82, "note": 79, "velocity": 121, "channel": 0}, {"type": "note_on", "time": 3, "note": 80, "velocity": 117, "channel": 0}, {"type": "note_off", "time": 36, "note": 80, "velocity": 117, "channel": 0}, {"type": "note_on", "time": 0, "note": 79, "velocity": 114, "channel": 0}, {"type": "note_on", "time": 23, "note": 78, "velocity": 114, "channel": 0}, {"type": "note_off", "time": 0, "note": 79, "velocity": 114, "channel": 0}, {"type": "note_off", "time": 39, "note": 78, "velocity": 114, "channel": 0}, {"type": "note_on", "time": 3, "note": 77, "velocity": 116, "channel": 0}, {"type": "note_off", "time": 82, "note": 77, "velocity": 116, "channel": 0}, {"type": "note_on", "time": 9, "note": 75, "velocity": 120, "channel": 0}, {"type": "note_off", "time": 76, "note": 75, "velocity": 120, "channel": 0}, {"type": "note_on", "time": 13, "note": 74, "velocity": 111, "channel": 0}, {"type": "note_off", "time": 95, "note": 74, "velocity": 111, "channel": 0}, {"type": "note_on", "time": 6, "note": 72, "velocity": 113, "channel": 0}, {"type": "note_off", "time": 85, "note": 72, "velocity": 113, "channel": 0}, {"type": "note_on", "time": 6, "note": 71, "velocity": 112, "channel": 0}, {"type": "note_off", "time": 76, "note": 71, "velocity": 112, "channel": 0}, {"type": "note_on", "time": 9, "note": 69, "velocity": 113, "channel": 0}, {"type": "note_off", "time": 82, "note": 69, "velocity": 113, "channel": 0}, {"type": "note_on", "time": 16, "note": 68, "velocity": 95, "channel": 0}, {"type": "note_off", "time": 79, "note": 68, "velocity": 95, "channel": 0}, {"type": "note_on", "time": 16, "note": 71, "velocity": 117, "channel": 0}, {"type": "note_off", "time": 89, "note": 71, "velocity": 117, "channel": 0}, {"type": "note_on", "time": 19, "note": 74, "velocity": 96, "channel": 0}, {"type": "note_off", "time": 56, "note": 74, "velocity": 96, "channel": 0}, {"type": "note_on", "time": 33, "note": 77, "velocity": 121, "channel": 0}, {"type": "note_off", "time": 49, "note": 77, "velocity": 121, "channel": 0}, {"type": "note_on", "time": 19, "note": 77, "velocity": 103, "channel": 0}, {"type": "note_off", "time": 19, "note": 77, "velocity": 103, "channel": 0}, {"type": "note_on", "time": 6, "note": 76, "velocity": 124, "channel": 0}, {"type": "note_off", "time": 109, "note": 76, "velocity": 124, "channel": 0}, {"type": "note_on", "time": 99, "note": 71, "velocity": 93, "channel": 0}, {"type": "note_off", "time": 69, "note": 71, "velocity": 93, "channel": 0}, {"type": "note_on", "time": 16, "note": 72, "velocity": 119, "channel": 0}, {"type": "note_off", "time": 59, "note": 72, "velocity": 119, "channel": 0}, {"type": "note_on", "time": 39, "note": 73, "velocity": 120, "channel": 0}, {"type": "note_off", "time": 56, "note": 73, "velocity": 120, "channel": 0}, {"type": "note_on", "time": 0, "note": 74, "velocity": 114, "channel": 0}, {"type": "note_off", "time": 142, "note": 74, "velocity": 114, "channel": 0}, {"type": "note_on", "time": 82, "note": 78, "velocity": 113, "channel": 0}, {"type": "note_off", "time": 62, "note": 78, "velocity": 113, "channel": 0}, {"type": "note_on", "time": 13, "note": 72, "velocity": 101, "channel": 0}, {"type": "note_off", "time": 115, "note": 72, "velocity": 101, "channel": 0}, {"type": "note_on", "time": 0, "note": 74, "velocity": 113, "channel": 0}, {"type": "note_off", "time": 281, "note": 74, "velocity": 113, "channel": 0}, {"type": "note_on", "time": 66, "note": 79, "velocity": 110, "channel": 0}, {"type": "note_off", "time": 56, "note": 79, "velocity": 110, "channel": 0}, {"type": "note_on", "time": 46, "note": 72, "velocity": 112, "channel": 0}, {"type": "note_off", "time": 99, "note": 72, "velocity": 112, "channel": 0}, {"type": "note_on", "time": 0, "note": 74, "velocity": 113, "channel": 0}, {"type": "note_off", "time": 238, "note": 74, "velocity": 113, "channel": 0}, {"type": "note_on", "time": 42, "note": 79, "velocity": 104, "channel": 0}, {"type": "note_off", "time": 59, "note": 79, "velocity": 104, "channel": 0}, {"type": "note_on", "time": 56, "note": 73, "velocity": 117, "channel": 0}, {"type": "note_off", "time": 66, "note": 73, "velocity": 117, "channel": 0}, {"type": "note_on", "time": 6, "note": 74, "velocity": 114, "channel": 0}, {"type": "note_off", "time": 251, "note": 74, "velocity": 114, "channel": 0}, {"type": "note_on", "time": 49, "note": 72, "velocity": 116, "channel": 0}, {"type": "note_on", "time": 42, "note": 73, "velocity": 107, "channel": 0}, {"type": "note_off", "time": 0, "note": 72, "velocity": 116, "channel": 0}, {"type": "note_on", "time": 33, "note": 74, "velocity": 105, "channel": 0}, {"type": "note_off", "time": 0, "note": 73, "velocity": 107, "channel": 0}, {"type": "note_off", "time": 49, "note": 74, "velocity": 105, "channel": 0}, {"type": "note_on", "time": 6, "note": 72, "velocity": 97, "channel": 0}, {"type": "note_off", "time": 33, "note": 72, "velocity": 97, "channel": 0}, {"type": "note_on", "time": 13, "note": 70, "velocity": 103, "channel": 0}, {"type": "note_off", "time": 62, "note": 70, "velocity": 103, "channel": 0}, {"type": "note_on", "time": 9, "note": 67, "velocity": 107, "channel": 0}, {"type": "note_off", "time": 102, "note": 67, "velocity": 107, "channel": 0}, {"type": "note_on", "time": 19, "note": 67, "velocity": 107, "channel": 0}, {"type": "note_off", "time": 62, "note": 67, "velocity": 107, "channel": 0}, {"type": "end_of_track", "time": 0}]]}