{"ticks_per_beat": 2520, "tracks": [[{"type": "track_name", "name": "Melody", "time": 0}, {"type": "set_tempo", "tempo": 555555, "time": 0}, {"type": "key_signature", "key": "Bb", "time": 0}, {"type": "time_signature", "numerator": 4, "denominator": 4, "clocks_per_click": 24, "notated_32nd_notes_per_beat": 8, "time": 0}, {"type": "note_on", "time": 18017, "note": 55, "velocity": 80, "channel": 0}, {"type": "note_off", "time": 1718, "note": 55, "velocity": 80, "channel": 0}, {"type": "note_on", "time": 157, "note": 55, "velocity": 80, "channel": 0}, {"type": "note_off", "time": 460, "note": 55, "velocity": 80, "channel": 0}, {"type": "note_on", "time": 85, "note": 53, "velocity": 80, "channel": 0}, {"type": "note_off", "time": 434, "note": 53, "velocity": 80, "channel": 0}, {"type": "note_on", "time": 435, "note": 57, "velocity": 80, "channel": 0}, {"type": "note_off", "time": 203, "note": 57, "velocity": 80, "channel": 0}, {"type": "note_on", "time": 83, "note": 58, "velocity": 80, "channel": 0}, {"type": "note_off", "time": 685, "note": 58, "velocity": 80, "channel": 0}, {"type": "note_on", "time": 129, "note": 53, "velocity": 80, "channel": 0}, {"type": "note_off", "time": 573, "note": 53, "velocity": 80, "channel": 0}, {"type": "note_on", "time": 2565, "note": 55, "velocity": 80, "channel": 0}, {"type": "note_off", "time": 575, "note": 55, "velocity": 80, "channel": 0}, {"type": "note_on", "time": 98, "note": 53, "velocity": 80, "channel": 0}, {"type": "note_off", "time": 868, "note": 53, "velocity": 80, "channel": 0}, {"type": "note_on", "time": 444, "note": 50, "velocity": 80, "channel": 0}, {"type": "note_off", "time": 582, "note": 50, "velocity": 80, "channel": 0}, {"type": "note_on", "time": 49, "note": 53, "velocity": 80, "channel": 0}, {"type": "note_off", "time": 467, "note": 53, "velocity": 80, "channel": 0}, {"type": "note_on", "time": 29, "note": 55, "velocity": 80, "channel": 0}, {"type": "note_off", "time": 1333, "note": 55, "velocity": 80, "channel": 0}, {"type": "note_on", "time": 42, "note": 53, "velocity": 80, "channel": 0}, {"type": "note_off", "time": 789, "note": 53, "velocity": 80, "channel": 0}, {"type": "note_on", "time": 640, "note": 58, "velocity": 80, "channel": 0}, {"type": "note_off", "time": 1018, "note": 58, "velocity": 80, "channel": 0}, {"type": "note_on", "time": 3184, "note": 55, "velocity": 80, "channel": 0}, {"type": "note_off", "time": 467, "note": 55, "velocity": 80, "channel": 0}, {"type": "note_on", "time": 106, "note": 53, "velocity": 80, "channel": 0}, {"type": "note_off", "time": 610, "note": 53, "velocity": 80, "channel": 0}, {"type": "note_on", "time": 314, "note": 50, "velocity": 80, "channel": 0}, {"type": "note_off", "time": 786, "note": 50, "velocity": 80, "channel": 0}, {"type": "note_on", "time": 731, "note": 55, "velocity": 80, "channel": 0}, {"type": "note_off", "time": 1277, "note": 55, "velocity": 80, "channel": 0}, {"type": "note_on", "time": 64, "note": 53, "velocity": 80, "channel": 0}, {"type": "note_off", "time": 712, "note": 53, "velocity": 80, "channel": 0}, {"type": "note_on", "time": 666, "note": 57, "velocity": 80, "channel": 0}, {"type": "note_off", "time": 314, "note": 57, "velocity": 80, "channel": 0}, {"type": "note_on", "time": 55, "note": 58, "velocity": 80, "channel": 0}, {"type": "note_off", "time": 648, "note": 58, "velocity": 80, "channel": 0}, {"type": "note_on", "time": 162, "note": 53, "velocity": 80, "channel": 0}, {"type": "note_off", "time": 694, "note": 53, "velocity": 80, "channel": 0}, {"type": "note_on", "time": 491, "note": 55, "velocity": 80, "channel": 0}, {"type": "note_off", "time": 1935, "note": 55, "velocity": 80, "channel": 0}, {"type": "note_on", "time": 77, "note": 53, "velocity": 80, "channel": 0}, {"type": "note_off", "time": 444, "note": 53, "velocity": 80, "channel": 0}, {"type": "note_on", "time": 0, "note": 57, "velocity": 80, "channel": 0}, {"type": "note_off", "time": 175, "note": 57, "velocity": 80, "channel": 0}, {"type": "note_on", "time": 92, "note": 58, "velocity": 80, "channel": 0}, {"type": "note_off", "time": 796, "note": 58, "velocity": 80, "channel": 0}, {"type": "note_on", "time": 370, "note": 53, "velocity": 80, "channel": 0}, {"type": "note_off", "time": 810, "note": 53, "velocity": 80, "channel": 0}, {"type": "note_on", "time": 444, "note": 55, "velocity": 80, "channel": 0}, {"type": "note_off", "time": 1305, "note": 55, "velocity": 80, "channel": 0}, {"type": "note_on", "time": 74, "note": 53, "velocity": 80, "channel": 0}, {"type": "note_off", "time": 647, "note": 53, "velocity": 80, "channel": 0}, {"type": "note_on", "time": 495, "note": 57, "velocity": 80, "channel": 0}, {"type": "note_off", "time": 203, "note": 57, "velocity": 80, "channel": 0}, {"type": "note_on", "time": 46, "note": 58, "velocity": 80, "channel": 0}, {"type": "note_off", "time": 855, "note": 58, "velocity": 80, "channel": 0}, {"type": "note_on", "time": 3272, "note": 55, "velocity": 80, "channel": 0}, {"type": "note_off", "time": 1906, "note": 55, "velocity": 80, "channel": 0}, {"type": "note_on", "time": 77, "note": 53, "velocity": 80, "channel": 0}, {"type": "note_off", "time": 717, "note": 53, "velocity": 80, "channel": 0}, {"type": "note_on", "time": 408, "note": 55, "velocity": 80, "channel": 0}, {"type": "note_off", "time": 1306, "note": 55, "velocity": 80, "channel": 0}, {"type": "note_on", "time": 62, "note": 53, "velocity": 80, "channel": 0}, {"type": "note_off", "time": 714, "note": 53, "velocity": 80, "channel": 0}, {"type": "note_on", "time": 421, "note": 58, "velocity": 80, "channel": 0}, {"type": "note_off", "time": 976, "note": 58, "velocity": 80, "channel": 0}, {"type": "note_on", "time": 87, "note": 59, "velocity": 80, "channel": 0}, {"type": "note_off", "time": 361, "note": 59, "velocity": 80, "channel": 0}, {"type": "note_on", "time": 78, "note": 60, "velocity": 80, "channel": 0}, {"type": "note_off", "time": 717, "note": 60, "velocity": 80, "channel": 0}, {"type": "note_on", "time": 2267, "note": 55, "velocity": 80, "channel": 0}, {"type": "note_off", "time": 536, "note": 55, "velocity": 80, "channel": 0}, {"type": "note_on", "time": 97, "note": 53, "velocity": 80, "channel": 0}, {"type": "note_off", "time": 685, "note": 53, "velocity": 80, "channel": 0}, {"type": "note_on", "time": 407, "note": 50, "velocity": 80, "channel": 0}, {"type": "note_off", "time": 698, "note": 50, "velocity": 80, "channel": 0}, {"type": "note_on", "time": 13, "note": 55, "velocity": 80, "channel": 0}, {"type": "note_off", "time": 707, "note": 55, "velocity": 80, "channel": 0}, {"type": "note_on", "time": 454, "note": 53, "velocity": 80, "channel": 0}, {"type": "note_off", "time": 855, "note": 53, "velocity": 80, "channel": 0}, {"type": "note_on", "time": 380, "note": 50, "velocity": 80, "channel": 0}, {"type": "note_off", "time": 458, "note": 50, "velocity": 80, "channel": 0}, {"type": "note_on", "time": 60, "note": 60, "velocity": 80, "channel": 0}, {"type": "note_off", "time": 1286, "note": 60, "velocity": 80, "channel": 0}, {"type": "note_on", "time": 92, "note": 58, "velocity": 80, "channel": 0}, {"type": "note_off", "time": 1245, "note": 58, "velocity": 80, "channel": 0}, {"type": "note_on", "time": 55, "note": 55, "velocity": 80, "channel": 0}, {"type": "note_off", "time": 2055, "note": 55, "velocity": 80, "channel": 0}, {"type": "note_on", "time": 567, "note": 53, "velocity": 80, "channel": 0}, {"type": "note_off", "time": 658, "note": 53, "velocity": 80, "channel": 0}, {"type": "note_on", "time": 125, "note": 55, "velocity": 80, "channel": 0}, {"type": "note_off", "time": 283, "note": 55, "velocity": 80, "channel": 0}, {"type": "note_on", "time": 74, "note": 58, "velocity": 80, "channel": 0}, {"type": "note_off", "time": 710, "note": 58, "velocity": 80, "channel": 0}, {"type": "note_on", "time": 37, "note": 65, "velocity": 80, "channel": 0}, {"type": "note_off", "time": 730, "note": 65, "velocity": 80, "channel": 0}, {"type": "note_on", "time": 469, "note": 62, "velocity": 80, "channel": 0}, {"type": "note_off", "time": 810, "note": 62, "velocity": 80, "channel": 0}, {"type": "note_on", "time": 629, "note": 55, "velocity": 80, "channel": 0}, {"type": "note_off", "time": 300, "note": 55, "velocity": 80, "channel": 0}, {"type": "note_on", "time": 50, "note": 61, "velocity": 80, "channel": 0}, {"type": "note_off", "time": 772, "note": 61, "velocity": 80, "channel": 0}, {"type": "note_on", "time": 1258, "note": 55, "velocity": 80, "channel": 0}, {"type": "note_off", "time": 379, "note": 55, "velocity": 80, "channel": 0}, {"type": "note_on", "time": 87, "note": 60, "velocity": 80, "channel": 0}, {"type": "note_off", "time": 819, "note": 60, "velocity": 80, "channel": 0}, {"type": "note_on", "time": 1231, "note": 55, "velocity": 80, "channel": 0}, {"type": "note_off", "time": 425, "note": 55, "velocity": 80, "channel": 0}, {"type": "note_on", "time": 217, "note": 58, "velocity": 80, "channel": 0}, {"type": "note_off", "time": 212, "note": 58, "velocity": 80, "channel": 0}, {"type": "note_on", "time": 101, "note": 59, "velocity": 80, "channel": 0}, {"type": "note_off", "time": 555, "note": 59, "velocity": 80, "channel": 0}, {"type": "note_on", "time": 1033, "note": 55, "velocity": 80, "channel": 0}, {"type": "note_off", "time": 355, "note": 55, "velocity": 80, "channel": 0}, {"type": "note_on", "time": 73, "note": 58, "velocity": 80, "channel": 0}, {"type": "note_off", "time": 770, "note": 58, "velocity": 80, "channel": 0}, {"type": "note_on", "time": 62, "note": 55, "velocity": 80, "channel": 0}, {"type": "note_off", "time": 458, "note": 55, "velocity": 80, "channel": 0}, {"type": "note_on", "time": 92, "note": 53, "velocity": 80, "channel": 0}, {"type": "note_off", "time": 610, "note": 53, "velocity": 80, "channel": 0}, {"type": "note_on", "time": 1902, "note": 57, "velocity": 80, "channel": 0}, {"type": "note_off", "time": 222, "note": 57, "velocity": 80, "channel": 0}, {"type": "note_on", "time": 27, "note": 58, "velocity": 80, "channel": 0}, {"type": "note_off", "time": 638, "note": 58, "velocity": 80, "channel": 0}, {"type": "note_on", "time": 1647, "note": 55, "velocity": 80, "channel": 0}, {"type": "note_off", "time": 680, "note": 55, "velocity": 80, "channel": 0}, {"type": "note_on", "time": 530, "note": 67, "velocity": 80, "channel": 0}, {"type": "note_off", "time": 803, "note": 67, "velocity": 80, "channel": 0}, {"type": "note_on", "time": 1764, "note": 58, "velocity": 80, "channel": 0}, {"type": "note_off", "time": 822, "note": 58, "velocity": 80, "channel": 0}, {"type": "note_on", "time": 1013, "note": 60, "velocity": 80, "channel": 0}, {"type": "note_off", "time": 768, "note": 60, "velocity": 80, "channel": 0}, {"type": "note_on", "time": 1062, "note": 55, "velocity": 80, "channel": 0}, {"type": "note_off", "time": 1013, "note": 55, "velocity": 80, "channel": 0}, {"type": "note_on", "time": 1428, "note": 67, "velocity": 80, "channel": 0}, {"type": "note_off", "time": 674, "note": 67, "velocity": 80, "channel": 0}, {"type": "note_on", "time": 592, "note": 65, "velocity": 80, "channel": 0}, {"type": "note_off", "time": 722, "note": 65, "velocity": 80, "channel": 0}, {"type": "note_on", "time": 495, "note": 70, "velocity": 80, "channel": 0}, {"type": "note_off", "time": 708, "note": 70, "velocity": 80, "channel": 0}, {"type": "note_on", "time": 629, "note": 60, "velocity": 80, "channel": 0}, {"type": "note_off", "time": 772, "note": 60, "velocity": 80, "channel": 0}, {"type": "note_on", "time": 387, "note": 62, "velocity": 80, "channel": 0}, {"type": "note_off", "time": 605, "note": 62, "velocity": 80, "channel": 0}, {"type": "note_on", "time": 177, "note": 65, "velocity": 80, "channel": 0}, {"type": "note_off", "time": 628, "note": 65, "velocity": 80, "channel": 0}, {"type": "note_on", "time": 426, "note": 58, "velocity": 80, "channel": 0}, {"type": "note_off", "time": 685, "note": 58, "velocity": 80, "channel": 0}, {"type": "note_on", "time": 550, "note": 55, "velocity": 80, "channel": 0}, {"type": "note_off", "time": 579, "note": 55, "velocity": 80, "channel": 0}, {"type": "note_on", "time": 605, "note": 59, "velocity": 80, "channel": 0}, {"type": "note_off", "time": 612, "note": 59, "velocity": 80, "channel": 0}, {"type": "note_on", "time": 592, "note": 53, "velocity": 80, "channel": 0}, {"type": "note_off", "time": 506, "note": 53, "velocity": 80, "channel": 0}, {"type": "note_on", "time": 85, "note": 58, "velocity": 80, "channel": 0}, {"type": "note_off", "time": 671, "note": 58, "velocity": 80, "channel": 0}, {"type": "note_on", "time": 473, "note": 50, "velocity": 80, "channel": 0}, {"type": "note_off", "time": 737, "note": 50, "velocity": 80, "channel": 0}, {"type": "note_on", "time": 533, "note": 55, "velocity": 80, "channel": 0}, {"type": "note_off", "time": 671, "note": 55, "velocity": 80, "channel": 0}, {"type": "note_on", "time": 592, "note": 53, "velocity": 80, "channel": 0}, {"type": "note_off", "time": 1356, "note": 53, "velocity": 80, "channel": 0}, {"type": "note_on", "time": 36, "note": 48, "velocity": 80, "channel": 0}, {"type": "note_off", "time": 1125, "note": 48, "velocity": 80, "channel": 0}, {"type": "note_on", "time": 36, "note": 53, "velocity": 80, "channel": 0}, {"type": "note_off", "time": 1290, "note": 53, "velocity": 80, "channel": 0}, {"type": "note_on", "time": 79, "note": 50, "velocity": 80, "channel": 0}, {"type": "note_off", "time": 416, "note": 50, "velocity": 80, "channel": 0}, {"type": "note_on", "time": 1342, "note": 55, "velocity": 80, "channel": 0}, {"type": "note_off", "time": 578, "note": 55, "velocity": 80, "channel": 0}, {"type": "note_on", "time": 32, "note": 53, "velocity": 80, "channel": 0}, {"type": "note_off", "time": 680, "note": 53, "velocity": 80, "channel": 0}, {"type": "note_on", "time": 78, "note": 55, "velocity": 80, "channel": 0}, {"type": "note_off", "time": 282, "note": 55, "velocity": 80, "channel": 0}, {"type": "note_on", "time": 63, "note": 58, "velocity": 80, "channel": 0}, {"type": "note_off", "time": 606, "note": 58, "velocity": 80, "channel": 0}, {"type": "note_on", "time": 71, "note": 61, "velocity": 80, "channel": 0}, {"type": "note_off", "time": 356, "note": 61, "velocity": 80, "channel": 0}, {"type": "note_on", "time": 31, "note": 62, "velocity": 80, "channel": 0}, {"type": "note_off", "time": 226, "note": 62, "velocity": 80, "channel": 0}, {"type": "note_on", "time": 37, "note": 61, "velocity": 80, "channel": 0}, {"type": "note_off", "time": 458, "note": 61, "velocity": 80, "channel": 0}, {"type": "note_on", "time": 41, "note": 58, "velocity": 80, "channel": 0}, {"type": "note_off", "time": 541, "note": 58, "velocity": 80, "channel": 0}, {"type": "note_on", "time": 58, "note": 60, "velocity": 80, "channel": 0}, {"type": "note_off", "time": 658, "note": 60, "velocity": 80, "channel": 0}, {"type": "note_on", "time": 1907, "note": 72, "velocity": 80, "channel": 0}, {"type": "note_off", "time": 2480, "note": 72, "velocity": 80, "channel": 0}, {"type": "note_on", "time": 71, "note": 70, "velocity": 80, "channel": 0}, {"type": "note_off", "time": 740, "note": 70, "velocity": 80, "channel": 0}, {"type": "note_on", "time": 144, "note": 70, "velocity": 80, "channel": 0}, {"type": "note_off", "time": 263, "note": 70, "velocity": 80, "channel": 0}, {"type": "note_on", "time": 151, "note": 70, "velocity": 80, "channel": 0}, {"type": "note_off", "time": 615, "note": 70, "velocity": 80, "channel": 0}, {"type": "note_on", "time": 151, "note": 70, "velocity": 80, "channel": 0}, {"type": "note_off", "time": 227, "note": 70, "velocity": 80, "channel": 0}, {"type": "note_on", "time": 1430, "note": 67, "velocity": 80, "channel": 0}, {"type": "note_off", "time": 624, "note": 67, "velocity": 80, "channel": 0}, {"type": "note_on", "time": 1212, "note": 65, "velocity": 80, "channel": 0}, {"type": "note_off", "time": 671, "note": 65, "velocity": 80, "channel": 0}, {"type": "note_on", "time": 1162, "note": 69, "velocity": 80, "channel": 0}, {"type": "note_off", "time": 737, "note": 69, "velocity": 80, "channel": 0}, {"type": "note_on", "time": 2014, "note": 67, "velocity": 80, "channel": 0}, {"type": "note_off", "time": 572, "note": 67, "velocity": 80, "channel": 0}, {"type": "note_on", "time": 625, "note": 62, "velocity": 80, "channel": 0}, {"type": "note_off", "time": 645, "note": 62, "velocity": 80, "channel": 0}, {"type": "note_on", "time": 559, "note": 67, "velocity": 80, "channel": 0}, {"type": "note_off", "time": 651, "note": 67, "velocity": 80, "channel": 0}, {"type": "note_on", "time": 526, "note": 64, "velocity": 80, "channel": 0}, {"type": "note_off", "time": 743, "note": 64, "velocity": 80, "channel": 0}, {"type": "note_on", "time": 131, "note": 62, "velocity": 80, "channel": 0}, {"type": "note_off", "time": 566, "note": 62, "velocity": 80, "channel": 0}, {"type": "note_on", "time": 546, "note": 60, "velocity": 80, "channel": 0}, {"type": "note_off", "time": 671, "note": 60, "velocity": 80, "channel": 0}, {"type": "note_on", "time": 579, "note": 59, "velocity": 80, "channel": 0}, {"type": "note_off", "time": 546, "note": 59, "velocity": 80, "channel": 0}, {"type": "note_on", "time": 660, "note": 55, "velocity": 80, "channel": 0}, {"type": "note_off", "time": 319, "note": 55, "velocity": 80, "channel": 0}, {"type": "note_on", "time": 189, "note": 58, "velocity": 80, "channel": 0}, {"type": "note_off", "time": 444, "note": 58, "velocity": 80, "channel": 0}, {"type": "note_on", "time": 291, "note": 65, "velocity": 80, "channel": 0}, {"type": "note_off", "time": 532, "note": 65, "velocity": 80, "channel": 0}, {"type": "note_on", "time": 3519, "note": 57, "velocity": 80, "channel": 0}, {"type": "note_off", "time": 737, "note": 57, "velocity": 80, "channel": 0}, {"type": "note_on", "time": 72, "note": 64, "velocity": 80, "channel": 0}, {"type": "note_off", "time": 572, "note": 64, "velocity": 80, "channel": 0}, {"type": "note_on", "time": 3482, "note": 56, "velocity": 80, "channel": 0}, {"type": "note_off", "time": 691, "note": 56, "velocity": 80, "channel": 0}, {"type": "note_on", "time": 78, "note": 63, "velocity": 80, "channel": 0}, {"type": "note_off", "time": 664, "note": 63, "velocity": 80, "channel": 0}, {"type": "note_on", "time": 3442, "note": 68, "velocity": 80, "channel": 0}, {"type": "note_off", "time": 612, "note": 68, "velocity": 80, "channel": 0}, {"type": "note_on", "time": 592, "note": 63, "velocity": 80, "channel": 0}, {"type": "note_off", "time": 678, "note": 63, "velocity": 80, "channel": 0}, {"type": "note_on", "time": 152, "note": 60, "velocity": 80, "channel": 0}, {"type": "note_off", "time": 499, "note": 60, "velocity": 80, "channel": 0}, {"type": "note_on", "time": 597, "note": 56, "velocity": 80, "channel": 0}, {"type": "note_off", "time": 462, "note": 56, "velocity": 80, "channel": 0}, {"type": "note_on", "time": 138, "note": 51, "velocity": 80, "channel": 0}, {"type": "note_off", "time": 888, "note": 51, "velocity": 80, "channel": 0}, {"type": "note_on", "time": 324, "note": 50, "velocity": 80, "channel": 0}, {"type": "note_off", "time": 648, "note": 50, "velocity": 80, "channel": 0}, {"type": "note_on", "time": 0, "note": 55, "velocity": 80, "channel": 0}, {"type": "note_off", "time": 481, "note": 55, "velocity": 80, "channel": 0}, {"type": "note_on", "time": 11183, "note": 60, "velocity": 80, "channel": 0}, {"type": "note_off", "time": 1073, "note": 60, "velocity": 80, "channel": 0}, {"type": "note_on", "time": 157, "note": 72, "velocity": 80, "channel": 0}, {"type": "note_off", "time": 348, "note": 72, "velocity": 80, "channel": 0}, {"type": "note_on", "time": 1737, "note": 67, "velocity": 80, "channel": 0}, {"type": "note_off", "time": 394, "note": 67, "velocity": 80, "channel": 0}, {"type": "note_on", "time": 812, "note": 70, "velocity": 80, "channel": 0}, {"type": "note_off", "time": 490, "note": 70, "velocity": 80, "channel": 0}, {"type": "note_on", "time": 689, "note": 65, "velocity": 80, "channel": 0}, {"type": "note_off", "time": 532, "note": 65, "velocity": 80, "channel": 0}, {"type": "note_on", "time": 641, "note": 67, "velocity": 80, "channel": 0}, {"type": "note_off", "time": 1768, "note": 67, "velocity": 80, "channel": 0}, {"type": "note_on", "time": 94, "note": 62, "velocity": 80, "channel": 0}, {"type": "note_off", "time": 612, "note": 62, "velocity": 80, "channel": 0}, {"type": "note_on", "time": 651, "note": 60, "velocity": 80, "channel": 0}, {"type": "note_off", "time": 1948, "note": 60, "velocity": 80, "channel": 0}, {"type": "note_on", "time": 615, "note": 60, "velocity": 80, "channel": 0}, {"type": "note_off", "time": 1402, "note": 60, "velocity": 80, "channel": 0}, {"type": "note_on", "time": 1194, "note": 60, "velocity": 80, "channel": 0}, {"type": "note_off", "time": 1476, "note": 60, "velocity": 80, "channel": 0}, {"type": "note_on", "time": 1036, "note": 60, "velocity": 80, "channel": 0}, {"type": "note_off", "time": 1485, "note": 60, "velocity": 80, "channel": 0}, {"type": "note_on", "time": 1069, "note": 60, "velocity": 80, "channel": 0}, {"type": "note_off", "time": 1333, "note": 60, "velocity": 80, "channel": 0}, {"type": "note_on", "time": 1073, "note": 60, "velocity": 80, "channel": 0}, {"type": "note_off", "time": 1379, "note": 60, "velocity": 80, "channel": 0}, {"type": "note_on", "time": 555, "note": 60, "velocity": 80, "channel": 0}, {"type": "note_off", "time": 731, "note": 60, "velocity": 80, "channel": 0}, {"type": "note_on", "time": 1055, "note": 60, "velocity": 80, "channel": 0}, {"type": "note_off", "time": 2564, "note": 60, "velocity": 80, "channel": 0}, {"type": "note_on", "time": 37, "note": 58, "velocity": 80, "channel": 0}, {"type": "note_off", "time": 572, "note": 58, "velocity": 80, "channel": 0}, {"type": "note_on", "time": 84, "note": 57, "velocity": 80, "channel": 0}, {"type": "note_off", "time": 435, "note": 57, "velocity": 80, "channel": 0}, {"type": "note_on", "time": 46, "note": 58, "velocity": 80, "channel": 0}, {"type": "note_off", "time": 661, "note": 58, "velocity": 80, "channel": 0}, {"type": "note_on", "time": 217, "note": 55, "velocity": 80, "channel": 0}, {"type": "note_off", "time": 402, "note": 55, "velocity": 80, "channel": 0}, {"type": "note_on", "time": 9659, "note": 64, "velocity": 80, "channel": 0}, {"type": "note_off", "time": 499, "note": 64, "velocity": 80, "channel": 0}, {"type": "note_on", "time": 1425, "note": 64, "velocity": 80, "channel": 0}, {"type": "note_off", "time": 851, "note": 64, "velocity": 80, "channel": 0}, {"type": "note_on", "time": 879, "note": 64, "velocity": 80, "channel": 0}, {"type": "note_off", "time": 1110, "note": 64, "velocity": 80, "channel": 0}, {"type": "note_on", "time": 840, "note": 64, "velocity": 80, "channel": 0}, {"type": "note_off", "time": 585, "note": 64, "velocity": 80, "channel": 0}, {"type": "note_on", "time": 164, "note": 64, "velocity": 80, "channel": 0}, {"type": "note_off", "time": 427, "note": 64, "velocity": 80, "channel": 0}, {"type": "note_on", "time": 151, "note": 64, "velocity": 80, "channel": 0}, {"type": "note_off", "time": 651, "note": 64, "velocity": 80, "channel": 0}, {"type": "note_on", "time": 75, "note": 65, "velocity": 80, "channel": 0}, {"type": "note_off", "time": 402, "note": 65, "velocity": 80, "channel": 0}, {"type": "note_on", "time": 138, "note": 65, "velocity": 80, "channel": 0}, {"type": "note_off", "time": 407, "note": 65, "velocity": 80, "channel": 0}, {"type": "note_on", "time": 162, "note": 65, "velocity": 80, "channel": 0}, {"type": "note_off", "time": 425, "note": 65, "velocity": 80, "channel": 0}, {"type": "note_on", "time": 230, "note": 65, "velocity": 80, "channel": 0}, {"type": "note_off", "time": 717, "note": 65, "velocity": 80, "channel": 0}, {"type": "note_on", "time": 85, "note": 64, "velocity": 80, "channel": 0}, {"type": "note_off", "time": 362, "note": 64, "velocity": 80, "channel": 0}, {"type": "note_on", "time": 111, "note": 64, "velocity": 80, "channel": 0}, {"type": "note_off", "time": 552, "note": 64, "velocity": 80, "channel": 0}, {"type": "note_on", "time": 92, "note": 64, "velocity": 80, "channel": 0}, {"type": "note_off", "time": 480, "note": 64, "velocity": 80, "channel": 0}, {"type": "note_on", "time": 223, "note": 64, "velocity": 80, "channel": 0}, {"type": "note_off", "time": 947, "note": 64, "velocity": 80, "channel": 0}, {"type": "note_on", "time": 1573, "note": 62, "velocity": 80, "channel": 0}, {"type": "note_off", "time": 862, "note": 62, "velocity": 80, "channel": 0}, {"type": "note_on", "time": 994, "note": 60, "velocity": 80, "channel": 0}, {"type": "note_off", "time": 467, "note": 60, "velocity": 80, "channel": 0}, {"type": "note_on", "time": 921, "note": 58, "velocity": 80, "channel": 0}, {"type": "note_off", "time": 322, "note": 58, "velocity": 80, "channel": 0}, {"type": "note_on", "time": 218, "note": 60, "velocity": 80, "channel": 0}, {"type": "note_off", "time": 425, "note": 60, "velocity": 80, "channel": 0}, {"type": "note_on", "time": 949, "note": 62, "velocity": 80, "channel": 0}, {"type": "note_off", "time": 388, "note": 62, "velocity": 80, "channel": 0}, {"type": "note_on", "time": 704, "note": 60, "velocity": 80, "channel": 0}, {"type": "note_off", "time": 562, "note": 60, "velocity": 80, "channel": 0}, {"type": "note_on", "time": 829, "note": 58, "velocity": 80, "channel": 0}, {"type": "note_off", "time": 368, "note": 58, "velocity": 80, "channel": 0}, {"type": "note_on", "time": 816, "note": 57, "velocity": 80, "channel": 0}, {"type": "note_off", "time": 439, "note": 57, "velocity": 80, "channel": 0}, {"type": "note_on", "time": 820, "note": 55, "velocity": 80, "channel": 0}, {"type": "note_off", "time": 1138, "note": 55, "velocity": 80, "channel": 0}, {"type": "note_on", "time": 171, "note": 53, "velocity": 80, "channel": 0}, {"type": "note_off", "time": 934, "note": 53, "velocity": 80, "channel": 0}, {"type": "note_on", "time": 164, "note": 50, "velocity": 80, "channel": 0}, {"type": "note_off", "time": 526, "note": 50, "velocity": 80, "channel": 0}, {"type": "note_on", "time": 4213, "note": 55, "velocity": 80, "channel": 0}, {"type": "note_off", "time": 1849, "note": 55, "velocity": 80, "channel": 0}, {"type": "note_on", "time": 32, "note": 53, "velocity": 80, "channel": 0}, {"type": "note_off", "time": 434, "note": 53, "velocity": 80, "channel": 0}, {"type": "note_on", "time": 849, "note": 58, "velocity": 80, "channel": 0}, {"type": "note_off", "time": 1211, "note": 58, "velocity": 80, "channel": 0}, {"type": "note_on", "time": 59, "note": 53, "velocity": 80, "channel": 0}, {"type": "note_off", "time": 566, "note": 53, "velocity": 80, "channel": 0}, {"type": "note_on", "time": 5259, "note": 55, "velocity": 80, "channel": 0}, {"type": "note_off", "time": 1751, "note": 55, "velocity": 80, "channel": 0}, {"type": "note_on", "time": 123, "note": 53, "velocity": 80, "channel": 0}, {"type": "note_off", "time": 573, "note": 53, "velocity": 80, "channel": 0}, {"type": "note_on", "time": 751, "note": 58, "velocity": 80, "channel": 0}, {"type": "note_off", "time": 816, "note": 58, "velocity": 80, "channel": 0}, {"type": "note_on", "time": 4937, "note": 55, "velocity": 80, "channel": 0}, {"type": "note_off", "time": 388, "note": 55, "velocity": 80, "channel": 0}, {"type": "note_on", "time": 144, "note": 55, "velocity": 80, "channel": 0}, {"type": "note_off", "time": 520, "note": 55, "velocity": 80, "channel": 0}, {"type": "note_on", "time": 131, "note": 55, "velocity": 80, "channel": 0}, {"type": "note_off", "time": 329, "note": 55, "velocity": 80, "channel": 0}, {"type": "note_on", "time": 184, "note": 55, "velocity": 80, "channel": 0}, {"type": "note_off", "time": 1198, "note": 55, "velocity": 80, "channel": 0}, {"type": "note_on", "time": 250, "note": 53, "velocity": 80, "channel": 0}, {"type": "note_off", "time": 480, "note": 53, "velocity": 80, "channel": 0}, {"type": "note_on", "time": 773, "note": 58, "velocity": 80, "channel": 0}, {"type": "note_off", "time": 592, "note": 58, "velocity": 80, "channel": 0}, {"type": "note_on", "time": 550, "note": 58, "velocity": 80, "channel": 0}, {"type": "note_off", "time": 3601, "note": 58, "velocity": 80, "channel": 0}, {"type": "note_on", "time": 203, "note": 60, "velocity": 80, "channel": 0}, {"type": "note_off", "time": 2249, "note": 60, "velocity": 80, "channel": 0}, {"type": "note_on", "time": 499, "note": 58, "velocity": 80, "channel": 0}, {"type": "note_off", "time": 337, "note": 58, "velocity": 80, "channel": 0}, {"type": "note_on", "time": 42, "note": 60, "velocity": 80, "channel": 0}, {"type": "note_off", "time": 319, "note": 60, "velocity": 80, "channel": 0}, {"type": "note_on", "time": 69, "note": 64, "velocity": 80, "channel": 0}, {"type": "note_off", "time": 233, "note": 64, "velocity": 80, "channel": 0}, {"type": "note_on", "time": 58, "note": 60, "velocity": 80, "channel": 0}, {"type": "note_off", "time": 435, "note": 60, "velocity": 80, "channel": 0}, {"type": "note_on", "time": 50, "note": 58, "velocity": 80, "channel": 0}, {"type": "note_off", "time": 550, "note": 58, "velocity": 80, "channel": 0}, {"type": "note_on", "time": 248, "note": 53, "velocity": 80, "channel": 0}, {"type": "note_off", "time": 1277, "note": 53, "velocity": 80, "channel": 0}, {"type": "note_on", "time": 80, "note": 58, "velocity": 80, "channel": 0}, {"type": "note_off", "time": 879, "note": 58, "velocity": 80, "channel": 0}, {"type": "note_on", "time": 16711, "note": 53, "velocity": 80, "channel": 0}, {"type": "note_off", "time": 302, "note": 53, "velocity": 80, "channel": 0}, {"type": "note_on", "time": 46, "note": 58, "velocity": 80, "channel": 0}, {"type": "note_off", "time": 388, "note": 58, "velocity": 80, "channel": 0}, {"type": "note_on", "time": 78, "note": 59, "velocity": 80, "channel": 0}, {"type": "note_off", "time": 322, "note": 59, "velocity": 80, "channel": 0}, {"type": "note_on", "time": 62, "note": 60, "velocity": 80, "channel": 0}, {"type": "note_off", "time": 315, "note": 60, "velocity": 80, "channel": 0}, {"type": "note_on", "time": 13, "note": 65, "velocity": 80, "channel": 0}, {"type": "note_off", "time": 217, "note": 65, "velocity": 80, "channel": 0}, {"type": "note_on", "time": 13, "note": 69, "velocity": 80, "channel": 0}, {"type": "note_off", "time": 273, "note": 69, "velocity": 80, "channel": 0}, {"type": "note_on", "time": 23, "note": 72, "velocity": 80, "channel": 0}, {"type": "note_off", "time": 315, "note": 72, "velocity": 80, "channel": 0}, {"type": "note_on", "time": 170, "note": 77, "velocity": 80, "channel": 0}, {"type": "note_off", "time": 2522, "note": 77, "velocity": 80, "channel": 0}, {"type": "note_on", "time": 72, "note": 72, "velocity": 80, "channel": 0}, {"type": "note_off", "time": 230, "note": 72, "velocity": 80, "channel": 0}, {"type": "note_on", "time": 42, "note": 69, "velocity": 80, "channel": 0}, {"type": "note_off", "time": 271, "note": 69, "velocity": 80, "channel": 0}, {"type": "note_on", "time": 44, "note": 64, "velocity": 80, "channel": 0}, {"type": "note_off", "time": 182, "note": 64, "velocity": 80, "channel": 0}, {"type": "note_on", "time": 28, "note": 60, "velocity": 80, "channel": 0}, {"type": "note_off", "time": 218, "note": 60, "velocity": 80, "channel": 0}, {"type": "note_on", "time": 18, "note": 58, "velocity": 80, "channel": 0}, {"type": "note_off", "time": 285, "note": 58, "velocity": 80, "channel": 0}, {"type": "note_on", "time": 87, "note": 53, "velocity": 80, "channel": 0}, {"type": "note_off", "time": 219, "note": 53, "velocity": 80, "channel": 0}, {"type": "note_on", "time": 69, "note": 48, "velocity": 80, "channel": 0}, {"type": "note_off", "time": 409, "note": 48, "velocity": 80, "channel": 0}, {"type": "note_on", "time": 64, "note": 46, "velocity": 80, "channel": 0}, {"type": "note_off", "time": 2126, "note": 46, "velocity": 80, "channel": 0}, {"type": "note_on", "time": 9647, "note": 53, "velocity": 80, "channel": 0}, {"type": "note_off", "time": 171, "note": 53, "velocity": 80, "channel": 0}, {"type": "note_on", "time": 75, "note": 57, "velocity": 80, "channel": 0}, {"type": "note_off", "time": 368, "note": 57, "velocity": 80, "channel": 0}, {"type": "note_on", "time": 92, "note": 59, "velocity": 80, "channel": 0}, {"type": "note_off", "time": 280, "note": 59, "velocity": 80, "channel": 0}, {"type": "note_on", "time": 190, "note": 67, "velocity": 80, "channel": 0}, {"type": "note_off", "time": 233, "note": 67, "velocity": 80, "channel": 0}, {"type": "note_on", "time": 38, "note": 71, "velocity": 80, "channel": 0}, {"type": "note_off", "time": 365, "note": 71, "velocity": 80, "channel": 0}, {"type": "note_on", "time": 60, "note": 75, "velocity": 80, "channel": 0}, {"type": "note_off", "time": 1027, "note": 75, "velocity": 80, "channel": 0}, {"type": "note_on", "time": 55, "note": 81, "velocity": 80, "channel": 0}, {"type": "note_off", "time": 1013, "note": 81, "velocity": 80, "channel": 0}, {"type": "note_on", "time": 365, "note": 79, "velocity": 80, "channel": 0}, {"type": "note_off", "time": 328, "note": 79, "velocity": 80, "channel": 0}, {"type": "note_on", "time": 495, "note": 77, "velocity": 80, "channel": 0}, {"type": "note_off", "time": 388, "note": 77, "velocity": 80, "channel": 0}, {"type": "note_on", "time": 369, "note": 72, "velocity": 80, "channel": 0}, {"type": "note_off", "time": 358, "note": 72, "velocity": 80, "channel": 0}, {"type": "note_on", "time": 62, "note": 67, "velocity": 80, "channel": 0}, {"type": "note_off", "time": 227, "note": 67, "velocity": 80, "channel": 0}, {"type": "note_on", "time": 569, "note": 69, "velocity": 80, "channel": 0}, {"type": "note_off", "time": 305, "note": 69, "velocity": 80, "channel": 0}, {"type": "note_on", "time": 24, "note": 67, "velocity": 80, "channel": 0}, {"type": "note_off", "time": 217, "note": 67, "velocity": 80, "channel": 0}, {"type": "note_on", "time": 749, "note": 67, "velocity": 80, "channel": 0}, {"type": "note_off", "time": 299, "note": 67, "velocity": 80, "channel": 0}, {"type": "note_on", "time": 36, "note": 66, "velocity": 80, "channel": 0}, {"type": "note_off", "time": 157, "note": 66, "velocity": 80, "channel": 0}, {"type": "note_on", "time": 585, "note": 65, "velocity": 80, "channel": 0}, {"type": "note_off", "time": 362, "note": 65, "velocity": 80, "channel": 0}, {"type": "note_on", "time": 46, "note": 63, "velocity": 80, "channel": 0}, {"type": "note_off", "time": 243, "note": 63, "velocity": 80, "channel": 0}, {"type": "note_on", "time": 589, "note": 62, "velocity": 80, "channel": 0}, {"type": "note_off", "time": 454, "note": 62, "velocity": 80, "channel": 0}, {"type": "note_on", "time": 26, "note": 60, "velocity": 80, "channel": 0}, {"type": "note_off", "time": 204, "note": 60, "velocity": 80, "channel": 0}, {"type": "note_on", "time": 529, "note": 61, "velocity": 80, "channel": 0}, {"type": "note_off", "time": 460, "note": 61, "velocity": 80, "channel": 0}, {"type": "note_on", "time": 283, "note": 60, "velocity": 80, "channel": 0}, {"type": "note_off", "time": 1849, "note": 60, "velocity": 80, "channel": 0}, {"type": "note_on", "time": 327, "note": 57, "velocity": 80, "channel": 0}, {"type": "note_off", "time": 332, "note": 57, "velocity": 80, "channel": 0}, {"type": "note_on", "time": 28, "note": 58, "velocity": 80, "channel": 0}, {"type": "note_off", "time": 497, "note": 58, "velocity": 80, "channel": 0}, {"type": "note_on", "time": 130, "note": 60, "velocity": 80, "channel": 0}, {"type": "note_off", "time": 371, "note": 60, "velocity": 80, "channel": 0}, {"type": "note_on", "time": 32, "note": 62, "velocity": 80, "channel": 0}, {"type": "note_off", "time": 401, "note": 62, "velocity": 80, "channel": 0}, {"type": "note_on", "time": 345, "note": 69, "velocity": 80, "channel": 0}, {"type": "note_off", "time": 167, "note": 69, "velocity": 80, "channel": 0}, {"type": "note_on", "time": 355, "note": 72, "velocity": 80, "channel": 0}, {"type": "note_off", "time": 510, "note": 72, "velocity": 80, "channel": 0}, {"type": "note_on", "time": 102, "note": 70, "velocity": 80, "channel": 0}, {"type": "note_off", "time": 477, "note": 70, "velocity": 80, "channel": 0}, {"type": "note_on", "time": 194, "note": 67, "velocity": 80, "channel": 0}, {"type": "note_off", "time": 477, "note": 67, "velocity": 80, "channel": 0}, {"type": "note_on", "time": 78, "note": 68, "velocity": 80, "channel": 0}, {"type": "note_off", "time": 296, "note": 68, "velocity": 80, "channel": 0}, {"type": "note_on", "time": 273, "note": 69, "velocity": 80, "channel": 0}, {"type": "note_off", "time": 783, "note": 69, "velocity": 80, "channel": 0}, {"type": "note_on", "time": 141, "note": 65, "velocity": 80, "channel": 0}, {"type": "note_off", "time": 1395, "note": 65, "velocity": 80, "channel": 0}, {"type": "note_on", "time": 7162, "note": 62, "velocity": 80, "channel": 0}, {"type": "note_off", "time": 329, "note": 62, "velocity": 80, "channel": 0}, {"type": "note_on", "time": 229, "note": 67, "velocity": 80, "channel": 0}, {"type": "note_off", "time": 467, "note": 67, "velocity": 80, "channel": 0}, {"type": "note_on", "time": 126, "note": 69, "velocity": 80, "channel": 0}, {"type": "note_off", "time": 462, "note": 69, "velocity": 80, "channel": 0}, {"type": "note_on", "time": 106, "note": 70, "velocity": 80, "channel": 0}, {"type": "note_off", "time": 541, "note": 70, "velocity": 80, "channel": 0}, {"type": "note_on", "time": 101, "note": 72, "velocity": 80, "channel": 0}, {"type": "note_off", "time": 550, "note": 72, "velocity": 80, "channel": 0}, {"type": "note_on", "time": 185, "note": 70, "velocity": 80, "channel": 0}, {"type": "note_off", "time": 444, "note": 70, "velocity": 80, "channel": 0}, {"type": "note_on", "time": 92, "note": 69, "velocity": 80, "channel": 0}, {"type": "note_off", "time": 486, "note": 69, "velocity": 80, "channel": 0}, {"type": "note_on", "time": 101, "note": 67, "velocity": 80, "channel": 0}, {"type": "note_off", "time": 634, "note": 67, "velocity": 80, "channel": 0}, {"type": "note_on", "time": 120, "note": 62, "velocity": 80, "channel": 0}, {"type": "note_off", "time": 226, "note": 62, "velocity": 80, "channel": 0}, {"type": "note_on", "time": 277, "note": 65, "velocity": 80, "channel": 0}, {"type": "note_off", "time": 624, "note": 65, "velocity": 80, "channel": 0}, {"type": "note_on", "time": 97, "note": 62, "velocity": 80, "channel": 0}, {"type": "note_off", "time": 365, "note": 62, "velocity": 80, "channel": 0}, {"type": "note_on", "time": 18, "note": 69, "velocity": 80, "channel": 0}, {"type": "note_off", "time": 745, "note": 69, "velocity": 80, "channel": 0}, {"type": "note_on", "time": 129, "note": 67, "velocity": 80, "channel": 0}, {"type": "note_off", "time": 518, "note": 67, "velocity": 80, "channel": 0}, {"type": "note_on", "time": 731, "note": 64, "velocity": 80, "channel": 0}, {"type": "note_off", "time": 587, "note": 64, "velocity": 80, "channel": 0}, {"type": "note_on", "time": 490, "note": 64, "velocity": 80, "channel": 0}, {"type": "note_off", "time": 1939, "note": 64, "velocity": 80, "channel": 0}, {"type": "note_on", "time": 92, "note": 62, "velocity": 80, "channel": 0}, {"type": "note_off", "time": 388, "note": 62, "velocity": 80, "channel": 0}, {"type": "note_on", "time": 8447, "note": 64, "velocity": 80, "channel": 0}, {"type": "note_off", "time": 472, "note": 64, "velocity": 80, "channel": 0}, {"type": "note_on", "time": 5499, "note": 64, "velocity": 80, "channel": 0}, {"type": "note_off", "time": 427, "note": 64, "velocity": 80, "channel": 0}, {"type": "note_on", "time": 105, "note": 65, "velocity": 80, "channel": 0}, {"type": "note_off", "time": 342, "note": 65, "velocity": 80, "channel": 0}, {"type": "note_on", "time": 210, "note": 72, "velocity": 80, "channel": 0}, {"type": "note_off", "time": 408, "note": 72, "velocity": 80, "channel": 0}, {"type": "note_on", "time": 236, "note": 76, "velocity": 80, "channel": 0}, {"type": "note_off", "time": 447, "note": 76, "velocity": 80, "channel": 0}, {"type": "note_on", "time": 131, "note": 72, "velocity": 80, "channel": 0}, {"type": "note_off", "time": 441, "note": 72, "velocity": 80, "channel": 0}, {"type": "note_on", "time": 111, "note": 70, "velocity": 80, "channel": 0}, {"type": "note_off", "time": 533, "note": 70, "velocity": 80, "channel": 0}, {"type": "note_on", "time": 111, "note": 72, "velocity": 80, "channel": 0}, {"type": "note_off", "time": 381, "note": 72, "velocity": 80, "channel": 0}, {"type": "note_on", "time": 342, "note": 64, "velocity": 80, "channel": 0}, {"type": "note_off", "time": 434, "note": 64, "velocity": 80, "channel": 0}, {"type": "note_on", "time": 1751, "note": 65, "velocity": 80, "channel": 0}, {"type": "note_off", "time": 1619, "note": 65, "velocity": 80, "channel": 0}, {"type": "note_on", "time": 46, "note": 70, "velocity": 80, "channel": 0}, {"type": "note_off", "time": 4377, "note": 70, "velocity": 80, "channel": 0}, {"type": "note_on", "time": 2506, "note": 70, "velocity": 80, "channel": 0}, {"type": "note_off", "time": 601, "note": 70, "velocity": 80, "channel": 0}, {"type": "note_on", "time": 78, "note": 71, "velocity": 80, "channel": 0}, {"type": "note_off", "time": 439, "note": 71, "velocity": 80, "channel": 0}, {"type": "note_on", "time": 124, "note": 72, "velocity": 80, "channel": 0}, {"type": "note_off", "time": 490, "note": 72, "velocity": 80, "channel": 0}, {"type": "note_on", "time": 115, "note": 71, "velocity": 80, "channel": 0}, {"type": "note_off", "time": 587, "note": 71, "velocity": 80, "channel": 0}, {"type": "note_on", "time": 41, "note": 70, "velocity": 80, "channel": 0}, {"type": "note_off", "time": 550, "note": 70, "velocity": 80, "channel": 0}, {"type": "note_on", "time": 55, "note": 67, "velocity": 80, "channel": 0}, {"type": "note_off", "time": 643, "note": 67, "velocity": 80, "channel": 0}, {"type": "note_on", "time": 55, "note": 70, "velocity": 80, "channel": 0}, {"type": "note_off", "time": 402, "note": 70, "velocity": 80, "channel": 0}, {"type": "note_on", "time": 183, "note": 66, "velocity": 80, "channel": 0}, {"type": "note_off", "time": 625, "note": 66, "velocity": 80, "channel": 0}, {"type": "note_on", "time": 78, "note": 67, "velocity": 80, "channel": 0}, {"type": "note_off", "time": 520, "note": 67, "velocity": 80, "channel": 0}, {"type": "note_on", "time": 46, "note": 65, "velocity": 80, "channel": 0}, {"type": "note_off", "time": 579, "note": 65, "velocity": 80, "channel": 0}, {"type": "note_on", "time": 92, "note": 66, "velocity": 80, "channel": 0}, {"type": "note_off", "time": 572, "note": 66, "velocity": 80, "channel": 0}, {"type": "note_on", "time": 78, "note": 64, "velocity": 80, "channel": 0}, {"type": "note_off", "time": 569, "note": 64, "velocity": 80, "channel": 0}, {"type": "note_on", "time": 69, "note": 65, "velocity": 80, "channel": 0}, {"type": "note_off", "time": 458, "note": 65, "velocity": 80, "channel": 0}, {"type": "note_on", "time": 74, "note": 61, "velocity": 80, "channel": 0}, {"type": "note_off", "time": 523, "note": 61, "velocity": 80, "channel": 0}, {"type": "note_on", "time": 64, "note": 64, "velocity": 80, "channel": 0}, {"type": "note_off", "time": 643, "note": 64, "velocity": 80, "channel": 0}, {"type": "note_on", "time": 78, "note": 60, "velocity": 80, "channel": 0}, {"type": "note_off", "time": 597, "note": 60, "velocity": 80, "channel": 0}, {"type": "note_on", "time": 23, "note": 61, "velocity": 80, "channel": 0}, {"type": "note_off", "time": 509, "note": 61, "velocity": 80, "channel": 0}, {"type": "note_on", "time": 23, "note": 59, "velocity": 80, "channel": 0}, {"type": "note_off", "time": 546, "note": 59, "velocity": 80, "channel": 0}, {"type": "note_on", "time": 115, "note": 60, "velocity": 80, "channel": 0}, {"type": "note_off", "time": 569, "note": 60, "velocity": 80, "channel": 0}, {"type": "note_on", "time": 115, "note": 58, "velocity": 80, "channel": 0}, {"type": "note_off", "time": 791, "note": 58, "velocity": 80, "channel": 0}, {"type": "note_on", "time": 14991, "note": 76, "velocity": 80, "channel": 0}, {"type": "note_off", "time": 541, "note": 76, "velocity": 80, "channel": 0}, {"type": "note_on", "time": 50, "note": 77, "velocity": 80, "channel": 0}, {"type": "note_off", "time": 597, "note": 77, "velocity": 80, "channel": 0}, {"type": "note_on", "time": 83, "note": 78, "velocity": 80, "channel": 0}, {"type": "note_off", "time": 430, "note": 78, "velocity": 80, "channel": 0}, {"type": "note_on", "time": 208, "note": 73, "velocity": 80, "channel": 0}, {"type": "note_off", "time": 462, "note": 73, "velocity": 80, "channel": 0}, {"type": "note_on", "time": 138, "note": 76, "velocity": 80, "channel": 0}, {"type": "note_off", "time": 495, "note": 76, "velocity": 80, "channel": 0}, {"type": "note_on", "time": 50, "note": 71, "velocity": 80, "channel": 0}, {"type": "note_off", "time": 583, "note": 71, "velocity": 80, "channel": 0}, {"type": "note_on", "time": 92, "note": 72, "velocity": 80, "channel": 0}, {"type": "note_off", "time": 453, "note": 72, "velocity": 80, "channel": 0}, {"type": "note_on", "time": 231, "note": 73, "velocity": 80, "channel": 0}, {"type": "note_off", "time": 536, "note": 73, "velocity": 80, "channel": 0}, {"type": "note_on", "time": 55, "note": 72, "velocity": 80, "channel": 0}, {"type": "note_off", "time": 518, "note": 72, "velocity": 80, "channel": 0}, {"type": "note_on", "time": 69, "note": 71, "velocity": 80, "channel": 0}, {"type": "note_off", "time": 541, "note": 71, "velocity": 80, "channel": 0}, {"type": "note_on", "time": 106, "note": 67, "velocity": 80, "channel": 0}, {"type": "note_off", "time": 453, "note": 67, "velocity": 80, "channel": 0}, {"type": "note_on", "time": 300, "note": 70, "velocity": 80, "channel": 0}, {"type": "note_off", "time": 453, "note": 70, "velocity": 80, "channel": 0}, {"type": "note_on", "time": 87, "note": 66, "velocity": 80, "channel": 0}, {"type": "note_off", "time": 541, "note": 66, "velocity": 80, "channel": 0}, {"type": "note_on", "time": 64, "note": 70, "velocity": 80, "channel": 0}, {"type": "note_off", "time": 597, "note": 70, "velocity": 80, "channel": 0}, {"type": "note_on", "time": 101, "note": 65, "velocity": 80, "channel": 0}, {"type": "note_off", "time": 393, "note": 65, "velocity": 80, "channel": 0}, {"type": "note_on", "time": 189, "note": 64, "velocity": 80, "channel": 0}, {"type": "note_off", "time": 583, "note": 64, "velocity": 80, "channel": 0}, {"type": "note_on", "time": 60, "note": 65, "velocity": 80, "channel": 0}, {"type": "note_off", "time": 509, "note": 65, "velocity": 80, "channel": 0}, {"type": "note_on", "time": 124, "note": 64, "velocity": 80, "channel": 0}, {"type": "note_off", "time": 587, "note": 64, "velocity": 80, "channel": 0}, {"type": "note_on", "time": 60, "note": 65, "velocity": 80, "channel": 0}, {"type": "note_off", "time": 398, "note": 65, "velocity": 80, "channel": 0}, {"type": "note_on", "time": 231, "note": 66, "velocity": 80, "channel": 0}, {"type": "note_off", "time": 374, "note": 66, "velocity": 80, "channel": 0}, {"type": "note_on", "time": 208, "note": 71, "velocity": 80, "channel": 0}, {"type": "note_off", "time": 430, "note": 71, "velocity": 80, "channel": 0}, {"type": "note_on", "time": 92, "note": 65, "velocity": 80, "channel": 0}, {"type": "note_off", "time": 652, "note": 65, "velocity": 80, "channel": 0}, {"type": "note_on", "time": 41, "note": 66, "velocity": 80, "channel": 0}, {"type": "note_off", "time": 411, "note": 66, "velocity": 80, "channel": 0}, {"type": "note_on", "time": 282, "note": 70, "velocity": 80, "channel": 0}, {"type": "note_off", "time": 472, "note": 70, "velocity": 80, "channel": 0}, {"type": "note_on", "time": 78, "note": 66, "velocity": 80, "channel": 0}, {"type": "note_off", "time": 448, "note": 66, "velocity": 80, "channel": 0}, {"type": "note_on", "time": 69, "note": 65, "velocity": 80, "channel": 0}, {"type": "note_off", "time": 666, "note": 65, "velocity": 80, "channel": 0}, {"type": "note_on", "time": 32, "note": 64, "velocity": 80, "channel": 0}, {"type": "note_off", "time": 476, "note": 64, "velocity": 80, "channel": 0}, {"type": "note_on", "time": 217, "note": 67, "velocity": 80, "channel": 0}, {"type": "note_off", "time": 439, "note": 67, "velocity": 80, "channel": 0}, {"type": "note_on", "time": 245, "note": 65, "velocity": 80, "channel": 0}, {"type": "note_off", "time": 416, "note": 65, "velocity": 80, "channel": 0}, {"type": "note_on", "time": 106, "note": 61, "velocity": 80, "channel": 0}, {"type": "note_off", "time": 490, "note": 61, "velocity": 80, "channel": 0}, {"type": "note_on", "time": 92, "note": 64, "velocity": 80, "channel": 0}, {"type": "note_off", "time": 573, "note": 64, "velocity": 80, "channel": 0}, {"type": "note_on", "time": 226, "note": 60, "velocity": 80, "channel": 0}, {"type": "note_off", "time": 518, "note": 60, "velocity": 80, "channel": 0}, {"type": "note_on", "time": 32, "note": 61, "velocity": 80, "channel": 0}, {"type": "note_off", "time": 472, "note": 61, "velocity": 80, "channel": 0}, {"type": "note_on", "time": 55, "note": 59, "velocity": 80, "channel": 0}, {"type": "note_off", "time": 620, "note": 59, "velocity": 80, "channel": 0}, {"type": "note_on", "time": 129, "note": 60, "velocity": 80, "channel": 0}, {"type": "note_off", "time": 402, "note": 60, "velocity": 80, "channel": 0}, {"type": "note_on", "time": 180, "note": 58, "velocity": 80, "channel": 0}, {"type": "note_off", "time": 722, "note": 58, "velocity": 80, "channel": 0}, {"type": "note_on", "time": 1171, "note": 53, "velocity": 80, "channel": 0}, {"type": "note_off", "time": 1962, "note": 53, "velocity": 80, "channel": 0}, {"type": "note_on", "time": 55, "note": 54, "velocity": 80, "channel": 0}, {"type": "note_off", "time": 870, "note": 54, "velocity": 80, "channel": 0}, {"type": "note_on", "time": 175, "note": 54, "velocity": 80, "channel": 0}, {"type": "note_off", "time": 1175, "note": 54, "velocity": 80, "channel": 0}, {"type": "note_on", "time": 138, "note": 55, "velocity": 80, "channel": 0}, {"type": "note_off", "time": 907, "note": 55, "velocity": 80, "channel": 0}, {"type": "note_on", "time": 2740, "note": 61, "velocity": 80, "channel": 0}, {"type": "note_off", "time": 703, "note": 61, "velocity": 80, "channel": 0}, {"type": "note_on", "time": 1397, "note": 60, "velocity": 80, "channel": 0}, {"type": "note_off", "time": 703, "note": 60, "velocity": 80, "channel": 0}, {"type": "note_on", "time": 962, "note": 58, "velocity": 80, "channel": 0}, {"type": "note_off", "time": 573, "note": 58, "velocity": 80, "channel": 0}, {"type": "note_on", "time": 46, "note": 59, "velocity": 80, "channel": 0}, {"type": "note_off", "time": 814, "note": 59, "velocity": 80, "channel": 0}, {"type": "note_on", "time": 148, "note": 58, "velocity": 80, "channel": 0}, {"type": "note_off", "time": 981, "note": 58, "velocity": 80, "channel": 0}, {"type": "note_on", "time": 83, "note": 55, "velocity": 80, "channel": 0}, {"type": "note_off", "time": 564, "note": 55, "velocity": 80, "channel": 0}, {"type": "note_on", "time": 685, "note": 55, "velocity": 80, "channel": 0}, {"type": "note_off", "time": 1018, "note": 55, "velocity": 80, "channel": 0}, {"type": "note_on", "time": 12288, "note": 55, "velocity": 80, "channel": 0}, {"type": "note_off", "time": 362, "note": 55, "velocity": 80, "channel": 0}, {"type": "note_on", "time": 73, "note": 59, "velocity": 80, "channel": 0}, {"type": "note_off", "time": 322, "note": 59, "velocity": 80, "channel": 0}, {"type": "note_on", "time": 97, "note": 62, "velocity": 80, "channel": 0}, {"type": "note_off", "time": 266, "note": 62, "velocity": 80, "channel": 0}, {"type": "note_on", "time": 36, "note": 65, "velocity": 80, "channel": 0}, {"type": "note_off", "time": 220, "note": 65, "velocity": 80, "channel": 0}, {"type": "note_on", "time": 42, "note": 68, "velocity": 80, "channel": 0}, {"type": "note_off", "time": 296, "note": 68, "velocity": 80, "channel": 0}, {"type": "note_on", "time": 379, "note": 72, "velocity": 80, "channel": 0}, {"type": "note_off", "time": 379, "note": 72, "velocity": 80, "channel": 0}, {"type": "note_on", "time": 208, "note": 69, "velocity": 80, "channel": 0}, {"type": "note_off", "time": 439, "note": 69, "velocity": 80, "channel": 0}, {"type": "note_on", "time": 74, "note": 65, "velocity": 80, "channel": 0}, {"type": "note_off", "time": 555, "note": 65, "velocity": 80, "channel": 0}, {"type": "note_on", "time": 152, "note": 62, "velocity": 80, "channel": 0}, {"type": "note_off", "time": 273, "note": 62, "velocity": 80, "channel": 0}, {"type": "note_on", "time": 310, "note": 69, "velocity": 80, "channel": 0}, {"type": "note_off", "time": 254, "note": 69, "velocity": 80, "channel": 0}, {"type": "note_on", "time": 69, "note": 70, "velocity": 80, "channel": 0}, {"type": "note_off", "time": 180, "note": 70, "velocity": 80, "channel": 0}, {"type": "note_on", "time": 18, "note": 68, "velocity": 80, "channel": 0}, {"type": "note_off", "time": 319, "note": 68, "velocity": 80, "channel": 0}, {"type": "note_on", "time": 50, "note": 65, "velocity": 80, "channel": 0}, {"type": "note_off", "time": 310, "note": 65, "velocity": 80, "channel": 0}, {"type": "note_on", "time": 69, "note": 62, "velocity": 80, "channel": 0}, {"type": "note_off", "time": 620, "note": 62, "velocity": 80, "channel": 0}, {"type": "note_on", "time": 87, "note": 60, "velocity": 80, "channel": 0}, {"type": "note_off", "time": 500, "note": 60, "velocity": 80, "channel": 0}, {"type": "note_on", "time": 115, "note": 61, "velocity": 80, "channel": 0}, {"type": "note_off", "time": 536, "note": 61, "velocity": 80, "channel": 0}, {"type": "note_on", "time": 249, "note": 57, "velocity": 80, "channel": 0}, {"type": "note_off", "time": 190, "note": 57, "velocity": 80, "channel": 0}, {"type": "note_on", "time": 59, "note": 60, "velocity": 80, "channel": 0}, {"type": "note_off", "time": 786, "note": 60, "velocity": 80, "channel": 0}, {"type": "note_on", "time": 98, "note": 58, "velocity": 80, "channel": 0}, {"type": "note_off", "time": 615, "note": 58, "velocity": 80, "channel": 0}, {"type": "note_on", "time": 65, "note": 62, "velocity": 80, "channel": 0}, {"type": "note_off", "time": 312, "note": 62, "velocity": 80, "channel": 0}, {"type": "note_on", "time": 32, "note": 65, "velocity": 80, "channel": 0}, {"type": "note_off", "time": 289, "note": 65, "velocity": 80, "channel": 0}, {"type": "note_on", "time": 26, "note": 69, "velocity": 80, "channel": 0}, {"type": "note_off", "time": 260, "note": 69, "velocity": 80, "channel": 0}, {"type": "note_on", "time": 102, "note": 68, "velocity": 80, "channel": 0}, {"type": "note_off", "time": 259, "note": 68, "velocity": 80, "channel": 0}, {"type": "note_on", "time": 25, "note": 70, "velocity": 80, "channel": 0}, {"type": "note_off", "time": 194, "note": 70, "velocity": 80, "channel": 0}, {"type": "note_on", "time": 25, "note": 67, "velocity": 80, "channel": 0}, {"type": "note_off", "time": 325, "note": 67, "velocity": 80, "channel": 0}, {"type": "note_on", "time": 45, "note": 66, "velocity": 80, "channel": 0}, {"type": "note_off", "time": 391, "note": 66, "velocity": 80, "channel": 0}, {"type": "note_on", "time": 44, "note": 67, "velocity": 80, "channel": 0}, {"type": "note_off", "time": 666, "note": 67, "velocity": 80, "channel": 0}, {"type": "note_on", "time": 162, "note": 69, "velocity": 80, "channel": 0}, {"type": "note_off", "time": 476, "note": 69, "velocity": 80, "channel": 0}, {"type": "note_on", "time": 50, "note": 71, "velocity": 80, "channel": 0}, {"type": "note_off", "time": 388, "note": 71, "velocity": 80, "channel": 0}, {"type": "note_on", "time": 60, "note": 73, "velocity": 80, "channel": 0}, {"type": "note_off", "time": 324, "note": 73, "velocity": 80, "channel": 0}, {"type": "note_on", "time": 379, "note": 78, "velocity": 80, "channel": 0}, {"type": "note_off", "time": 351, "note": 78, "velocity": 80, "channel": 0}, {"type": "note_on", "time": 78, "note": 79, "velocity": 80, "channel": 0}, {"type": "note_off", "time": 1633, "note": 79, "velocity": 80, "channel": 0}, {"type": "note_on", "time": 1774, "note": 77, "velocity": 80, "channel": 0}, {"type": "note_off", "time": 691, "note": 77, "velocity": 80, "channel": 0}, {"type": "note_on", "time": 131, "note": 70, "velocity": 80, "channel": 0}, {"type": "note_off", "time": 999, "note": 70, "velocity": 80, "channel": 0}, {"type": "note_on", "time": 5162, "note": 72, "velocity": 80, "channel": 0}, {"type": "note_off", "time": 500, "note": 72, "velocity": 80, "channel": 0}, {"type": "note_on", "time": 388, "note": 75, "velocity": 80, "channel": 0}, {"type": "note_off", "time": 408, "note": 75, "velocity": 80, "channel": 0}, {"type": "note_on", "time": 72, "note": 77, "velocity": 80, "channel": 0}, {"type": "note_off", "time": 1487, "note": 77, "velocity": 80, "channel": 0}, {"type": "note_on", "time": 53, "note": 75, "velocity": 80, "channel": 0}, {"type": "note_off", "time": 870, "note": 75, "velocity": 80, "channel": 0}, {"type": "note_on", "time": 90, "note": 68, "velocity": 80, "channel": 0}, {"type": "note_off", "time": 2228, "note": 68, "velocity": 80, "channel": 0}, {"type": "note_on", "time": 2557, "note": 70, "velocity": 80, "channel": 0}, {"type": "note_off", "time": 362, "note": 70, "velocity": 80, "channel": 0}, {"type": "note_on", "time": 394, "note": 75, "velocity": 80, "channel": 0}, {"type": "note_off", "time": 401, "note": 75, "velocity": 80, "channel": 0}, {"type": "note_on", "time": 177, "note": 73, "velocity": 80, "channel": 0}, {"type": "note_off", "time": 441, "note": 73, "velocity": 80, "channel": 0}, {"type": "note_on", "time": 138, "note": 65, "velocity": 80, "channel": 0}, {"type": "note_off", "time": 572, "note": 65, "velocity": 80, "channel": 0}, {"type": "note_on", "time": 78, "note": 67, "velocity": 80, "channel": 0}, {"type": "note_off", "time": 309, "note": 67, "velocity": 80, "channel": 0}, {"type": "note_on", "time": 381, "note": 73, "velocity": 80, "channel": 0}, {"type": "note_off", "time": 473, "note": 73, "velocity": 80, "channel": 0}, {"type": "note_on", "time": 197, "note": 71, "velocity": 80, "channel": 0}, {"type": "note_off", "time": 381, "note": 71, "velocity": 80, "channel": 0}, {"type": "note_on", "time": 147, "note": 64, "velocity": 80, "channel": 0}, {"type": "note_off", "time": 513, "note": 64, "velocity": 80, "channel": 0}, {"type": "note_on", "time": 97, "note": 66, "velocity": 80, "channel": 0}, {"type": "note_off", "time": 430, "note": 66, "velocity": 80, "channel": 0}, {"type": "note_on", "time": 277, "note": 71, "velocity": 80, "channel": 0}, {"type": "note_off", "time": 555, "note": 71, "velocity": 80, "channel": 0}, {"type": "note_on", "time": 111, "note": 68, "velocity": 80, "channel": 0}, {"type": "note_off", "time": 374, "note": 68, "velocity": 80, "channel": 0}, {"type": "note_on", "time": 143, "note": 62, "velocity": 80, "channel": 0}, {"type": "note_off", "time": 652, "note": 62, "velocity": 80, "channel": 0}, {"type": "note_on", "time": 78, "note": 64, "velocity": 80, "channel": 0}, {"type": "note_off", "time": 374, "note": 64, "velocity": 80, "channel": 0}, {"type": "note_on", "time": 166, "note": 72, "velocity": 80, "channel": 0}, {"type": "note_off", "time": 560, "note": 72, "velocity": 80, "channel": 0}, {"type": "note_on", "time": 78, "note": 70, "velocity": 80, "channel": 0}, {"type": "note_off", "time": 458, "note": 70, "velocity": 80, "channel": 0}, {"type": "note_on", "time": 97, "note": 62, "velocity": 80, "channel": 0}, {"type": "note_off", "time": 615, "note": 62, "velocity": 80, "channel": 0}, {"type": "note_on", "time": 46, "note": 65, "velocity": 80, "channel": 0}, {"type": "note_off", "time": 448, "note": 65, "velocity": 80, "channel": 0}, {"type": "note_on", "time": 273, "note": 67, "velocity": 80, "channel": 0}, {"type": "note_off", "time": 439, "note": 67, "velocity": 80, "channel": 0}, {"type": "note_on", "time": 152, "note": 70, "velocity": 80, "channel": 0}, {"type": "note_off", "time": 462, "note": 70, "velocity": 80, "channel": 0}, {"type": "note_on", "time": 74, "note": 68, "velocity": 80, "channel": 0}, {"type": "note_off", "time": 615, "note": 68, "velocity": 80, "channel": 0}, {"type": "note_on", "time": 254, "note": 61, "velocity": 80, "channel": 0}, {"type": "note_off", "time": 541, "note": 61, "velocity": 80, "channel": 0}, {"type": "note_on", "time": 555, "note": 63, "velocity": 80, "channel": 0}, {"type": "note_off", "time": 467, "note": 63, "velocity": 80, "channel": 0}, {"type": "note_on", "time": 55, "note": 65, "velocity": 80, "channel": 0}, {"type": "note_off", "time": 624, "note": 65, "velocity": 80, "channel": 0}, {"type": "note_on", "time": 106, "note": 68, "velocity": 80, "channel": 0}, {"type": "note_off", "time": 416, "note": 68, "velocity": 80, "channel": 0}, {"type": "note_on", "time": 240, "note": 66, "velocity": 80, "channel": 0}, {"type": "note_off", "time": 564, "note": 66, "velocity": 80, "channel": 0}, {"type": "note_on", "time": 157, "note": 59, "velocity": 80, "channel": 0}, {"type": "note_off", "time": 481, "note": 59, "velocity": 80, "channel": 0}, {"type": "note_on", "time": 740, "note": 61, "velocity": 80, "channel": 0}, {"type": "note_off", "time": 448, "note": 61, "velocity": 80, "channel": 0}, {"type": "note_on", "time": 777, "note": 63, "velocity": 80, "channel": 0}, {"type": "note_off", "time": 523, "note": 63, "velocity": 80, "channel": 0}, {"type": "note_on", "time": 689, "note": 65, "velocity": 80, "channel": 0}, {"type": "note_off", "time": 527, "note": 65, "velocity": 80, "channel": 0}, {"type": "note_on", "time": 805, "note": 66, "velocity": 80, "channel": 0}, {"type": "note_off", "time": 606, "note": 66, "velocity": 80, "channel": 0}, {"type": "note_on", "time": 629, "note": 62, "velocity": 80, "channel": 0}, {"type": "note_off", "time": 523, "note": 62, "velocity": 80, "channel": 0}, {"type": "note_on", "time": 685, "note": 67, "velocity": 80, "channel": 0}, {"type": "note_off", "time": 513, "note": 67, "velocity": 80, "channel": 0}, {"type": "note_on", "time": 777, "note": 65, "velocity": 80, "channel": 0}, {"type": "note_off", "time": 490, "note": 65, "velocity": 80, "channel": 0}, {"type": "note_on", "time": 796, "note": 70, "velocity": 80, "channel": 0}, {"type": "note_off", "time": 481, "note": 70, "velocity": 80, "channel": 0}, {"type": "note_on", "time": 712, "note": 65, "velocity": 80, "channel": 0}, {"type": "note_off", "time": 536, "note": 65, "velocity": 80, "channel": 0}, {"type": "note_on", "time": 814, "note": 66, "velocity": 80, "channel": 0}, {"type": "note_off", "time": 527, "note": 66, "velocity": 80, "channel": 0}, {"type": "note_on", "time": 652, "note": 67, "velocity": 80, "channel": 0}, {"type": "note_off", "time": 1777, "note": 67, "velocity": 80, "channel": 0}, {"type": "note_on", "time": 64, "note": 65, "velocity": 80, "channel": 0}, {"type": "note_off", "time": 509, "note": 65, "velocity": 80, "channel": 0}, {"type": "note_on", "time": 763, "note": 70, "velocity": 80, "channel": 0}, {"type": "note_off", "time": 555, "note": 70, "velocity": 80, "channel": 0}, {"type": "note_on", "time": 180, "note": 70, "velocity": 80, "channel": 0}, {"type": "note_off", "time": 421, "note": 70, "velocity": 80, "channel": 0}, {"type": "note_on", "time": 66, "note": 65, "velocity": 80, "channel": 0}, {"type": "note_off", "time": 908, "note": 65, "velocity": 80, "channel": 0}, {"type": "note_on", "time": 10256, "note": 77, "velocity": 80, "channel": 0}, {"type": "note_off", "time": 424, "note": 77, "velocity": 80, "channel": 0}, {"type": "note_on", "time": 69, "note": 79, "velocity": 80, "channel": 0}, {"type": "note_off", "time": 421, "note": 79, "velocity": 80, "channel": 0}, {"type": "note_on", "time": 13, "note": 81, "velocity": 80, "channel": 0}, {"type": "note_off", "time": 454, "note": 81, "velocity": 80, "channel": 0}, {"type": "note_on", "time": 148, "note": 79, "velocity": 80, "channel": 0}, {"type": "note_off", "time": 394, "note": 79, "velocity": 80, "channel": 0}, {"type": "note_on", "time": 42, "note": 77, "velocity": 80, "channel": 0}, {"type": "note_off", "time": 385, "note": 77, "velocity": 80, "channel": 0}, {"type": "note_on", "time": 39, "note": 74, "velocity": 80, "channel": 0}, {"type": "note_off", "time": 243, "note": 74, "velocity": 80, "channel": 0}, {"type": "note_on", "time": 55, "note": 72, "velocity": 80, "channel": 0}, {"type": "note_off", "time": 335, "note": 72, "velocity": 80, "channel": 0}, {"type": "note_on", "time": 39, "note": 74, "velocity": 80, "channel": 0}, {"type": "note_off", "time": 315, "note": 74, "velocity": 80, "channel": 0}, {"type": "note_on", "time": 65, "note": 77, "velocity": 80, "channel": 0}, {"type": "note_off", "time": 421, "note": 77, "velocity": 80, "channel": 0}, {"type": "note_on", "time": 161, "note": 74, "velocity": 80, "channel": 0}, {"type": "note_off", "time": 207, "note": 74, "velocity": 80, "channel": 0}, {"type": "note_on", "time": 42, "note": 72, "velocity": 80, "channel": 0}, {"type": "note_off", "time": 286, "note": 72, "velocity": 80, "channel": 0}, {"type": "note_on", "time": 69, "note": 69, "velocity": 80, "channel": 0}, {"type": "note_off", "time": 391, "note": 69, "velocity": 80, "channel": 0}, {"type": "note_on", "time": 121, "note": 67, "velocity": 80, "channel": 0}, {"type": "note_off", "time": 292, "note": 67, "velocity": 80, "channel": 0}, {"type": "note_on", "time": 75, "note": 69, "velocity": 80, "channel": 0}, {"type": "note_off", "time": 352, "note": 69, "velocity": 80, "channel": 0}, {"type": "note_on", "time": 49, "note": 72, "velocity": 80, "channel": 0}, {"type": "note_off", "time": 325, "note": 72, "velocity": 80, "channel": 0}, {"type": "note_on", "time": 26, "note": 69, "velocity": 80, "channel": 0}, {"type": "note_off", "time": 427, "note": 69, "velocity": 80, "channel": 0}, {"type": "note_on", "time": 36, "note": 67, "velocity": 80, "channel": 0}, {"type": "note_off", "time": 358, "note": 67, "velocity": 80, "channel": 0}, {"type": "note_on", "time": 82, "note": 65, "velocity": 80, "channel": 0}, {"type": "note_off", "time": 358, "note": 65, "velocity": 80, "channel": 0}, {"type": "note_on", "time": 111, "note": 62, "velocity": 80, "channel": 0}, {"type": "note_off", "time": 322, "note": 62, "velocity": 80, "channel": 0}, {"type": "note_on", "time": 72, "note": 65, "velocity": 80, "channel": 0}, {"type": "note_off", "time": 401, "note": 65, "velocity": 80, "channel": 0}, {"type": "note_on", "time": 36, "note": 67, "velocity": 80, "channel": 0}, {"type": "note_off", "time": 306, "note": 67, "velocity": 80, "channel": 0}, {"type": "note_on", "time": 92, "note": 60, "velocity": 80, "channel": 0}, {"type": "note_off", "time": 292, "note": 60, "velocity": 80, "channel": 0}, {"type": "note_on", "time": 141, "note": 62, "velocity": 80, "channel": 0}, {"type": "note_off", "time": 273, "note": 62, "velocity": 80, "channel": 0}, {"type": "note_on", "time": 95, "note": 65, "velocity": 80, "channel": 0}, {"type": "note_off", "time": 375, "note": 65, "velocity": 80, "channel": 0}, {"type": "note_on", "time": 144, "note": 57, "velocity": 80, "channel": 0}, {"type": "note_off", "time": 302, "note": 57, "velocity": 80, "channel": 0}, {"type": "note_on", "time": 72, "note": 60, "velocity": 80, "channel": 0}, {"type": "note_off", "time": 276, "note": 60, "velocity": 80, "channel": 0}, {"type": "note_on", "time": 49, "note": 62, "velocity": 80, "channel": 0}, {"type": "note_off", "time": 227, "note": 62, "velocity": 80, "channel": 0}, {"type": "note_on", "time": 692, "note": 57, "velocity": 80, "channel": 0}, {"type": "note_off", "time": 296, "note": 57, "velocity": 80, "channel": 0}, {"type": "note_on", "time": 50, "note": 60, "velocity": 80, "channel": 0}, {"type": "note_off", "time": 305, "note": 60, "velocity": 80, "channel": 0}, {"type": "note_on", "time": 140, "note": 53, "velocity": 80, "channel": 0}, {"type": "note_off", "time": 371, "note": 53, "velocity": 80, "channel": 0}, {"type": "note_on", "time": 33, "note": 55, "velocity": 80, "channel": 0}, {"type": "note_off", "time": 291, "note": 55, "velocity": 80, "channel": 0}, {"type": "note_on", "time": 74, "note": 57, "velocity": 80, "channel": 0}, {"type": "note_off", "time": 321, "note": 57, "velocity": 80, "channel": 0}, {"type": "note_on", "time": 131, "note": 50, "velocity": 80, "channel": 0}, {"type": "note_off", "time": 381, "note": 50, "velocity": 80, "channel": 0}, {"type": "note_on", "time": 102, "note": 53, "velocity": 80, "channel": 0}, {"type": "note_off", "time": 371, "note": 53, "velocity": 80, "channel": 0}, {"type": "note_on", "time": 32, "note": 55, "velocity": 80, "channel": 0}, {"type": "note_off", "time": 279, "note": 55, "velocity": 80, "channel": 0}, {"type": "note_on", "time": 118, "note": 53, "velocity": 80, "channel": 0}, {"type": "note_off", "time": 2172, "note": 53, "velocity": 80, "channel": 0}, {"type": "note_on", "time": 118, "note": 50, "velocity": 80, "channel": 0}, {"type": "note_off", "time": 362, "note": 50, "velocity": 80, "channel": 0}, {"type": "note_on", "time": 52, "note": 48, "velocity": 80, "channel": 0}, {"type": "note_off", "time": 651, "note": 48, "velocity": 80, "channel": 0}, {"type": "note_on", "time": 59, "note": 50, "velocity": 80, "channel": 0}, {"type": "note_off", "time": 836, "note": 50, "velocity": 80, "channel": 0}, {"type": "note_on", "time": 8079, "note": 50, "velocity": 80, "channel": 0}, {"type": "note_off", "time": 402, "note": 50, "velocity": 80, "channel": 0}, {"type": "note_on", "time": 60, "note": 52, "velocity": 80, "channel": 0}, {"type": "note_off", "time": 291, "note": 52, "velocity": 80, "channel": 0}, {"type": "note_on", "time": 27, "note": 55, "velocity": 80, "channel": 0}, {"type": "note_off", "time": 300, "note": 55, "velocity": 80, "channel": 0}, {"type": "note_on", "time": 23, "note": 60, "velocity": 80, "channel": 0}, {"type": "note_off", "time": 319, "note": 60, "velocity": 80, "channel": 0}, {"type": "note_on", "time": 157, "note": 57, "velocity": 80, "channel": 0}, {"type": "note_off", "time": 324, "note": 57, "velocity": 80, "channel": 0}, {"type": "note_on", "time": 62, "note": 55, "velocity": 80, "channel": 0}, {"type": "note_off", "time": 283, "note": 55, "velocity": 80, "channel": 0}, {"type": "note_on", "time": 131, "note": 53, "velocity": 80, "channel": 0}, {"type": "note_off", "time": 339, "note": 53, "velocity": 80, "channel": 0}, {"type": "note_on", "time": 55, "note": 55, "velocity": 80, "channel": 0}, {"type": "note_off", "time": 286, "note": 55, "velocity": 80, "channel": 0}, {"type": "note_on", "time": 69, "note": 57, "velocity": 80, "channel": 0}, {"type": "note_off", "time": 335, "note": 57, "velocity": 80, "channel": 0}, {"type": "note_on", "time": 36, "note": 60, "velocity": 80, "channel": 0}, {"type": "note_off", "time": 322, "note": 60, "velocity": 80, "channel": 0}, {"type": "note_on", "time": 197, "note": 65, "velocity": 80, "channel": 0}, {"type": "note_off", "time": 283, "note": 65, "velocity": 80, "channel": 0}, {"type": "note_on", "time": 69, "note": 62, "velocity": 80, "channel": 0}, {"type": "note_off", "time": 365, "note": 62, "velocity": 80, "channel": 0}, {"type": "note_on", "time": 19, "note": 60, "velocity": 80, "channel": 0}, {"type": "note_off", "time": 322, "note": 60, "velocity": 80, "channel": 0}, {"type": "note_on", "time": 75, "note": 58, "velocity": 80, "channel": 0}, {"type": "note_off", "time": 289, "note": 58, "velocity": 80, "channel": 0}, {"type": "note_on", "time": 62, "note": 60, "velocity": 80, "channel": 0}, {"type": "note_off", "time": 348, "note": 60, "velocity": 80, "channel": 0}, {"type": "note_on", "time": 85, "note": 62, "velocity": 80, "channel": 0}, {"type": "note_off", "time": 239, "note": 62, "velocity": 80, "channel": 0}, {"type": "note_on", "time": 19, "note": 65, "velocity": 80, "channel": 0}, {"type": "note_off", "time": 298, "note": 65, "velocity": 80, "channel": 0}, {"type": "note_on", "time": 80, "note": 70, "velocity": 80, "channel": 0}, {"type": "note_off", "time": 325, "note": 70, "velocity": 80, "channel": 0}, {"type": "note_on", "time": 39, "note": 67, "velocity": 80, "channel": 0}, {"type": "note_off", "time": 332, "note": 67, "velocity": 80, "channel": 0}, {"type": "note_on", "time": 23, "note": 65, "velocity": 80, "channel": 0}, {"type": "note_off", "time": 296, "note": 65, "velocity": 80, "channel": 0}, {"type": "note_on", "time": 18, "note": 63, "velocity": 80, "channel": 0}, {"type": "note_off", "time": 355, "note": 63, "velocity": 80, "channel": 0}, {"type": "note_on", "time": 33, "note": 65, "velocity": 80, "channel": 0}, {"type": "note_off", "time": 348, "note": 65, "velocity": 80, "channel": 0}, {"type": "note_on", "time": 40, "note": 67, "velocity": 80, "channel": 0}, {"type": "note_off", "time": 255, "note": 67, "velocity": 80, "channel": 0}, {"type": "note_on", "time": 36, "note": 70, "velocity": 80, "channel": 0}, {"type": "note_off", "time": 332, "note": 70, "velocity": 80, "channel": 0}, {"type": "note_on", "time": 6, "note": 67, "velocity": 80, "channel": 0}, {"type": "note_off", "time": 431, "note": 67, "velocity": 80, "channel": 0}, {"type": "note_on", "time": 19, "note": 69, "velocity": 80, "channel": 0}, {"type": "note_off", "time": 207, "note": 69, "velocity": 80, "channel": 0}, {"type": "note_on", "time": 52, "note": 70, "velocity": 80, "channel": 0}, {"type": "note_off", "time": 421, "note": 70, "velocity": 80, "channel": 0}, {"type": "note_on", "time": 46, "note": 71, "velocity": 80, "channel": 0}, {"type": "note_off", "time": 260, "note": 71, "velocity": 80, "channel": 0}, {"type": "note_on", "time": 9, "note": 72, "velocity": 80, "channel": 0}, {"type": "note_off", "time": 312, "note": 72, "velocity": 80, "channel": 0}, {"type": "note_on", "time": 125, "note": 75, "velocity": 80, "channel": 0}, {"type": "note_off", "time": 348, "note": 75, "velocity": 80, "channel": 0}, {"type": "note_on", "time": 65, "note": 72, "velocity": 80, "channel": 0}, {"type": "note_off", "time": 618, "note": 72, "velocity": 80, "channel": 0}, {"type": "note_on", "time": 92, "note": 71, "velocity": 80, "channel": 0}, {"type": "note_off", "time": 309, "note": 71, "velocity": 80, "channel": 0}, {"type": "note_on", "time": 46, "note": 72, "velocity": 80, "channel": 0}, {"type": "note_off", "time": 2271, "note": 72, "velocity": 80, "channel": 0}, {"type": "note_on", "time": 26, "note": 69, "velocity": 80, "channel": 0}, {"type": "note_off", "time": 325, "note": 69, "velocity": 80, "channel": 0}, {"type": "note_on", "time": 59, "note": 67, "velocity": 80, "channel": 0}, {"type": "note_off", "time": 217, "note": 67, "velocity": 80, "channel": 0}, {"type": "note_on", "time": 69, "note": 65, "velocity": 80, "channel": 0}, {"type": "note_off", "time": 391, "note": 65, "velocity": 80, "channel": 0}, {"type": "note_on", "time": 110, "note": 67, "velocity": 80, "channel": 0}, {"type": "note_off", "time": 592, "note": 67, "velocity": 80, "channel": 0}, {"type": "note_on", "time": 46, "note": 69, "velocity": 80, "channel": 0}, {"type": "note_off", "time": 661, "note": 69, "velocity": 80, "channel": 0}, {"type": "note_on", "time": 27, "note": 72, "velocity": 80, "channel": 0}, {"type": "note_off", "time": 523, "note": 72, "velocity": 80, "channel": 0}, {"type": "note_on", "time": 64, "note": 70, "velocity": 80, "channel": 0}, {"type": "note_off", "time": 513, "note": 70, "velocity": 80, "channel": 0}, {"type": "note_on", "time": 83, "note": 72, "velocity": 80, "channel": 0}, {"type": "note_off", "time": 685, "note": 72, "velocity": 80, "channel": 0}, {"type": "note_on", "time": 50, "note": 73, "velocity": 80, "channel": 0}, {"type": "note_off", "time": 509, "note": 73, "velocity": 80, "channel": 0}, {"type": "note_on", "time": 78, "note": 75, "velocity": 80, "channel": 0}, {"type": "note_off", "time": 356, "note": 75, "velocity": 80, "channel": 0}, {"type": "note_on", "time": 101, "note": 77, "velocity": 80, "channel": 0}, {"type": "note_off", "time": 1768, "note": 77, "velocity": 80, "channel": 0}, {"type": "note_on", "time": 60, "note": 80, "velocity": 80, "channel": 0}, {"type": "note_off", "time": 518, "note": 80, "velocity": 80, "channel": 0}, {"type": "note_on", "time": 347, "note": 73, "velocity": 80, "channel": 0}, {"type": "note_off", "time": 194, "note": 73, "velocity": 80, "channel": 0}, {"type": "note_on", "time": 55, "note": 74, "velocity": 80, "channel": 0}, {"type": "note_off", "time": 481, "note": 74, "velocity": 80, "channel": 0}, {"type": "note_on", "time": 4218, "note": 79, "velocity": 80, "channel": 0}, {"type": "note_off", "time": 579, "note": 79, "velocity": 80, "channel": 0}, {"type": "note_on", "time": 256, "note": 81, "velocity": 80, "channel": 0}, {"type": "note_off", "time": 335, "note": 81, "velocity": 80, "channel": 0}, {"type": "note_on", "time": 115, "note": 77, "velocity": 80, "channel": 0}, {"type": "note_off", "time": 473, "note": 77, "velocity": 80, "channel": 0}, {"type": "note_on", "time": 362, "note": 81, "velocity": 80, "channel": 0}, {"type": "note_off", "time": 283, "note": 81, "velocity": 80, "channel": 0}, {"type": "note_on", "time": 204, "note": 79, "velocity": 80, "channel": 0}, {"type": "note_off", "time": 375, "note": 79, "velocity": 80, "channel": 0}, {"type": "note_on", "time": 306, "note": 77, "velocity": 80, "channel": 0}, {"type": "note_off", "time": 319, "note": 77, "velocity": 80, "channel": 0}, {"type": "note_on", "time": 378, "note": 74, "velocity": 80, "channel": 0}, {"type": "note_off", "time": 260, "note": 74, "velocity": 80, "channel": 0}, {"type": "note_on", "time": 243, "note": 72, "velocity": 80, "channel": 0}, {"type": "note_off", "time": 404, "note": 72, "velocity": 80, "channel": 0}, {"type": "note_on", "time": 1494, "note": 70, "velocity": 80, "channel": 0}, {"type": "note_off", "time": 368, "note": 70, "velocity": 80, "channel": 0}, {"type": "note_on", "time": 918, "note": 74, "velocity": 80, "channel": 0}, {"type": "note_off", "time": 457, "note": 74, "velocity": 80, "channel": 0}, {"type": "note_on", "time": 707, "note": 67, "velocity": 80, "channel": 0}, {"type": "note_off", "time": 763, "note": 67, "velocity": 80, "channel": 0}, {"type": "note_on", "time": 1813, "note": 79, "velocity": 80, "channel": 0}, {"type": "note_off", "time": 532, "note": 79, "velocity": 80, "channel": 0}, {"type": "note_on", "time": 129, "note": 81, "velocity": 80, "channel": 0}, {"type": "note_off", "time": 347, "note": 81, "velocity": 80, "channel": 0}, {"type": "note_on", "time": 324, "note": 77, "velocity": 80, "channel": 0}, {"type": "note_off", "time": 388, "note": 77, "velocity": 80, "channel": 0}, {"type": "note_on", "time": 268, "note": 81, "velocity": 80, "channel": 0}, {"type": "note_off", "time": 384, "note": 81, "velocity": 80, "channel": 0}, {"type": "note_on", "time": 300, "note": 79, "velocity": 80, "channel": 0}, {"type": "note_off", "time": 398, "note": 79, "velocity": 80, "channel": 0}, {"type": "note_on", "time": 69, "note": 77, "velocity": 80, "channel": 0}, {"type": "note_off", "time": 458, "note": 77, "velocity": 80, "channel": 0}, {"type": "note_on", "time": 236, "note": 74, "velocity": 80, "channel": 0}, {"type": "note_off", "time": 500, "note": 74, "velocity": 80, "channel": 0}, {"type": "note_on", "time": 144, "note": 72, "velocity": 80, "channel": 0}, {"type": "note_off", "time": 362, "note": 72, "velocity": 80, "channel": 0}, {"type": "note_on", "time": 984, "note": 72, "velocity": 80, "channel": 0}, {"type": "note_off", "time": 1839, "note": 72, "velocity": 80, "channel": 0}, {"type": "note_on", "time": 92, "note": 70, "velocity": 80, "channel": 0}, {"type": "note_off", "time": 487, "note": 70, "velocity": 80, "channel": 0}, {"type": "note_on", "time": 776, "note": 74, "velocity": 80, "channel": 0}, {"type": "note_off", "time": 638, "note": 74, "velocity": 80, "channel": 0}, {"type": "note_on", "time": 2600, "note": 81, "velocity": 80, "channel": 0}, {"type": "note_off", "time": 348, "note": 81, "velocity": 80, "channel": 0}, {"type": "note_on", "time": 111, "note": 77, "velocity": 80, "channel": 0}, {"type": "note_off", "time": 441, "note": 77, "velocity": 80, "channel": 0}, {"type": "note_on", "time": 283, "note": 81, "velocity": 80, "channel": 0}, {"type": "note_off", "time": 342, "note": 81, "velocity": 80, "channel": 0}, {"type": "note_on", "time": 261, "note": 79, "velocity": 80, "channel": 0}, {"type": "note_off", "time": 319, "note": 79, "velocity": 80, "channel": 0}, {"type": "note_on", "time": 273, "note": 77, "velocity": 80, "channel": 0}, {"type": "note_off", "time": 305, "note": 77, "velocity": 80, "channel": 0}, {"type": "note_on", "time": 240, "note": 74, "velocity": 80, "channel": 0}, {"type": "note_off", "time": 379, "note": 74, "velocity": 80, "channel": 0}, {"type": "note_on", "time": 212, "note": 72, "velocity": 80, "channel": 0}, {"type": "note_off", "time": 379, "note": 72, "velocity": 80, "channel": 0}, {"type": "note_on", "time": 305, "note": 70, "velocity": 80, "channel": 0}, {"type": "note_off", "time": 379, "note": 70, "velocity": 80, "channel": 0}, {"type": "note_on", "time": 234, "note": 71, "velocity": 80, "channel": 0}, {"type": "note_off", "time": 375, "note": 71, "velocity": 80, "channel": 0}, {"type": "note_on", "time": 23, "note": 72, "velocity": 80, "channel": 0}, {"type": "note_off", "time": 302, "note": 72, "velocity": 80, "channel": 0}, {"type": "note_on", "time": 55, "note": 73, "velocity": 80, "channel": 0}, {"type": "note_off", "time": 148, "note": 73, "velocity": 80, "channel": 0}, {"type": "note_on", "time": 52, "note": 72, "velocity": 80, "channel": 0}, {"type": "note_off", "time": 174, "note": 72, "velocity": 80, "channel": 0}, {"type": "note_on", "time": 26, "note": 71, "velocity": 80, "channel": 0}, {"type": "note_off", "time": 213, "note": 71, "velocity": 80, "channel": 0}, {"type": "note_on", "time": 75, "note": 70, "velocity": 80, "channel": 0}, {"type": "note_off", "time": 256, "note": 70, "velocity": 80, "channel": 0}, {"type": "note_on", "time": 177, "note": 72, "velocity": 80, "channel": 0}, {"type": "note_off", "time": 500, "note": 72, "velocity": 80, "channel": 0}, {"type": "note_on", "time": 210, "note": 67, "velocity": 80, "channel": 0}, {"type": "note_off", "time": 418, "note": 67, "velocity": 80, "channel": 0}, {"type": "note_on", "time": 75, "note": 70, "velocity": 80, "channel": 0}, {"type": "note_off", "time": 480, "note": 70, "velocity": 80, "channel": 0}, {"type": "note_on", "time": 204, "note": 72, "velocity": 80, "channel": 0}, {"type": "note_off", "time": 401, "note": 72, "velocity": 80, "channel": 0}, {"type": "note_on", "time": 336, "note": 67, "velocity": 80, "channel": 0}, {"type": "note_off", "time": 249, "note": 67, "velocity": 80, "channel": 0}, {"type": "note_on", "time": 64, "note": 69, "velocity": 80, "channel": 0}, {"type": "note_off", "time": 490, "note": 69, "velocity": 80, "channel": 0}, {"type": "note_on", "time": 879, "note": 65, "velocity": 80, "channel": 0}, {"type": "note_off", "time": 2593, "note": 65, "velocity": 80, "channel": 0}, {"type": "note_on", "time": 111, "note": 65, "velocity": 80, "channel": 0}, {"type": "note_off", "time": 447, "note": 65, "velocity": 80, "channel": 0}, {"type": "note_on", "time": 49, "note": 69, "velocity": 80, "channel": 0}, {"type": "note_off", "time": 490, "note": 69, "velocity": 80, "channel": 0}, {"type": "note_on", "time": 615, "note": 65, "velocity": 80, "channel": 0}, {"type": "note_off", "time": 1059, "note": 65, "velocity": 80, "channel": 0}, {"type": "note_on", "time": 2147, "note": 78, "velocity": 80, "channel": 0}, {"type": "note_off", "time": 175, "note": 78, "velocity": 80, "channel": 0}, {"type": "note_on", "time": 74, "note": 81, "velocity": 80, "channel": 0}, {"type": "note_off", "time": 518, "note": 81, "velocity": 80, "channel": 0}, {"type": "note_on", "time": 23, "note": 77, "velocity": 80, "channel": 0}, {"type": "note_off", "time": 328, "note": 77, "velocity": 80, "channel": 0}, {"type": "note_on", "time": 402, "note": 79, "velocity": 80, "channel": 0}, {"type": "note_off", "time": 259, "note": 79, "velocity": 80, "channel": 0}, {"type": "note_on", "time": 78, "note": 81, "velocity": 80, "channel": 0}, {"type": "note_off", "time": 587, "note": 81, "velocity": 80, "channel": 0}, {"type": "note_on", "time": 120, "note": 77, "velocity": 80, "channel": 0}, {"type": "note_off", "time": 407, "note": 77, "velocity": 80, "channel": 0}, {"type": "note_on", "time": 291, "note": 79, "velocity": 80, "channel": 0}, {"type": "note_off", "time": 453, "note": 79, "velocity": 80, "channel": 0}, {"type": "note_on", "time": 50, "note": 77, "velocity": 80, "channel": 0}, {"type": "note_off", "time": 222, "note": 77, "velocity": 80, "channel": 0}, {"type": "note_on", "time": 20, "note": 74, "velocity": 80, "channel": 0}, {"type": "note_off", "time": 122, "note": 74, "velocity": 80, "channel": 0}, {"type": "note_on", "time": 44, "note": 72, "velocity": 80, "channel": 0}, {"type": "note_off", "time": 144, "note": 72, "velocity": 80, "channel": 0}, {"type": "note_on", "time": 55, "note": 71, "velocity": 80, "channel": 0}, {"type": "note_off", "time": 312, "note": 71, "velocity": 80, "channel": 0}, {"type": "note_on", "time": 29, "note": 72, "velocity": 80, "channel": 0}, {"type": "note_off", "time": 286, "note": 72, "velocity": 80, "channel": 0}, {"type": "note_on", "time": 98, "note": 71, "velocity": 80, "channel": 0}, {"type": "note_off", "time": 510, "note": 71, "velocity": 80, "channel": 0}, {"type": "note_on", "time": 154, "note": 69, "velocity": 80, "channel": 0}, {"type": "note_off", "time": 763, "note": 69, "velocity": 80, "channel": 0}, {"type": "note_on", "time": 423, "note": 69, "velocity": 80, "channel": 0}, {"type": "note_off", "time": 680, "note": 69, "velocity": 80, "channel": 0}, {"type": "note_on", "time": 50, "note": 72, "velocity": 80, "channel": 0}, {"type": "note_off", "time": 379, "note": 72, "velocity": 80, "channel": 0}, {"type": "note_on", "time": 222, "note": 67, "velocity": 80, "channel": 0}, {"type": "note_off", "time": 691, "note": 67, "velocity": 80, "channel": 0}, {"type": "note_on", "time": 72, "note": 66, "velocity": 80, "channel": 0}, {"type": "note_off", "time": 414, "note": 66, "velocity": 80, "channel": 0}, {"type": "note_on", "time": 39, "note": 70, "velocity": 80, "channel": 0}, {"type": "note_off", "time": 816, "note": 70, "velocity": 80, "channel": 0}, {"type": "note_on", "time": 533, "note": 69, "velocity": 80, "channel": 0}, {"type": "note_off", "time": 625, "note": 69, "velocity": 80, "channel": 0}, {"type": "note_on", "time": 78, "note": 68, "velocity": 80, "channel": 0}, {"type": "note_off", "time": 348, "note": 68, "velocity": 80, "channel": 0}, {"type": "note_on", "time": 92, "note": 67, "velocity": 80, "channel": 0}, {"type": "note_off", "time": 724, "note": 67, "velocity": 80, "channel": 0}, {"type": "note_on", "time": 72, "note": 66, "velocity": 80, "channel": 0}, {"type": "note_off", "time": 487, "note": 66, "velocity": 80, "channel": 0}, {"type": "note_on", "time": 105, "note": 65, "velocity": 80, "channel": 0}, {"type": "note_off", "time": 533, "note": 65, "velocity": 80, "channel": 0}, {"type": "note_on", "time": 125, "note": 62, "velocity": 80, "channel": 0}, {"type": "note_off", "time": 480, "note": 62, "velocity": 80, "channel": 0}, {"type": "note_on", "time": 39, "note": 64, "velocity": 80, "channel": 0}, {"type": "note_off", "time": 236, "note": 64, "velocity": 80, "channel": 0}, {"type": "note_on", "time": 60, "note": 65, "velocity": 80, "channel": 0}, {"type": "note_off", "time": 185, "note": 65, "velocity": 80, "channel": 0}, {"type": "note_on", "time": 69, "note": 67, "velocity": 80, "channel": 0}, {"type": "note_off", "time": 361, "note": 67, "velocity": 80, "channel": 0}, {"type": "note_on", "time": 439, "note": 72, "velocity": 80, "channel": 0}, {"type": "note_off", "time": 499, "note": 72, "velocity": 80, "channel": 0}, {"type": "note_on", "time": 189, "note": 72, "velocity": 80, "channel": 0}, {"type": "note_off", "time": 638, "note": 72, "velocity": 80, "channel": 0}, {"type": "note_on", "time": 472, "note": 72, "velocity": 80, "channel": 0}, {"type": "note_off", "time": 416, "note": 72, "velocity": 80, "channel": 0}, {"type": "note_on", "time": 212, "note": 72, "velocity": 80, "channel": 0}, {"type": "note_off", "time": 610, "note": 72, "velocity": 80, "channel": 0}, {"type": "note_on", "time": 2008, "note": 70, "velocity": 80, "channel": 0}, {"type": "note_off", "time": 675, "note": 70, "velocity": 80, "channel": 0}, {"type": "note_on", "time": 435, "note": 70, "velocity": 80, "channel": 0}, {"type": "note_off", "time": 897, "note": 70, "velocity": 80, "channel": 0}, {"type": "note_on", "time": 314, "note": 72, "velocity": 80, "channel": 0}, {"type": "note_off", "time": 777, "note": 72, "velocity": 80, "channel": 0}, {"type": "note_on", "time": 138, "note": 72, "velocity": 80, "channel": 0}, {"type": "note_off", "time": 546, "note": 72, "velocity": 80, "channel": 0}, {"type": "note_on", "time": 667, "note": 72, "velocity": 80, "channel": 0}, {"type": "note_off", "time": 401, "note": 72, "velocity": 80, "channel": 0}, {"type": "note_on", "time": 138, "note": 72, "velocity": 80, "channel": 0}, {"type": "note_off", "time": 592, "note": 72, "velocity": 80, "channel": 0}, {"type": "note_on", "time": 579, "note": 70, "velocity": 80, "channel": 0}, {"type": "note_off", "time": 539, "note": 70, "velocity": 80, "channel": 0}, {"type": "note_on", "time": 164, "note": 70, "velocity": 80, "channel": 0}, {"type": "note_off", "time": 592, "note": 70, "velocity": 80, "channel": 0}, {"type": "note_on", "time": 691, "note": 70, "velocity": 80, "channel": 0}, {"type": "note_off", "time": 414, "note": 70, "velocity": 80, "channel": 0}, {"type": "note_on", "time": 138, "note": 70, "velocity": 80, "channel": 0}, {"type": "note_off", "time": 664, "note": 70, "velocity": 80, "channel": 0}, {"type": "note_on", "time": 645, "note": 67, "velocity": 80, "channel": 0}, {"type": "note_off", "time": 572, "note": 67, "velocity": 80, "channel": 0}, {"type": "note_on", "time": 92, "note": 67, "velocity": 80, "channel": 0}, {"type": "note_off", "time": 348, "note": 67, "velocity": 80, "channel": 0}, {"type": "note_on", "time": 98, "note": 65, "velocity": 80, "channel": 0}, {"type": "note_off", "time": 467, "note": 65, "velocity": 80, "channel": 0}, {"type": "note_on", "time": 799, "note": 69, "velocity": 80, "channel": 0}, {"type": "note_off", "time": 601, "note": 69, "velocity": 80, "channel": 0}, {"type": "note_on", "time": 1897, "note": 67, "velocity": 80, "channel": 0}, {"type": "note_off", "time": 783, "note": 67, "velocity": 80, "channel": 0}, {"type": "note_on", "time": 441, "note": 67, "velocity": 80, "channel": 0}, {"type": "note_off", "time": 1105, "note": 67, "velocity": 80, "channel": 0}, {"type": "note_on", "time": 204, "note": 65, "velocity": 80, "channel": 0}, {"type": "note_off", "time": 513, "note": 65, "velocity": 80, "channel": 0}, {"type": "note_on", "time": 236, "note": 65, "velocity": 80, "channel": 0}, {"type": "note_off", "time": 631, "note": 65, "velocity": 80, "channel": 0}, {"type": "note_on", "time": 1152, "note": 67, "velocity": 80, "channel": 0}, {"type": "note_off", "time": 473, "note": 67, "velocity": 80, "channel": 0}, {"type": "note_on", "time": 250, "note": 67, "velocity": 80, "channel": 0}, {"type": "note_off", "time": 572, "note": 67, "velocity": 80, "channel": 0}, {"type": "note_on", "time": 1178, "note": 70, "velocity": 80, "channel": 0}, {"type": "note_off", "time": 513, "note": 70, "velocity": 80, "channel": 0}, {"type": "note_on", "time": 296, "note": 65, "velocity": 80, "channel": 0}, {"type": "note_off", "time": 421, "note": 65, "velocity": 80, "channel": 0}, {"type": "note_on", "time": 1375, "note": 72, "velocity": 80, "channel": 0}, {"type": "note_off", "time": 855, "note": 72, "velocity": 80, "channel": 0}, {"type": "note_on", "time": 6869, "note": 46, "velocity": 80, "channel": 0}, {"type": "note_off", "time": 407, "note": 46, "velocity": 80, "channel": 0}, {"type": "note_on", "time": 39, "note": 53, "velocity": 80, "channel": 0}, {"type": "note_off", "time": 279, "note": 53, "velocity": 80, "channel": 0}, {"type": "note_on", "time": 0, "note": 58, "velocity": 80, "channel": 0}, {"type": "note_off", "time": 398, "note": 58, "velocity": 80, "channel": 0}, {"type": "note_on", "time": 4, "note": 53, "velocity": 80, "channel": 0}, {"type": "note_off", "time": 282, "note": 53, "velocity": 80, "channel": 0}, {"type": "note_on", "time": 13, "note": 48, "velocity": 80, "channel": 0}, {"type": "note_off", "time": 246, "note": 48, "velocity": 80, "channel": 0}, {"type": "note_on", "time": 77, "note": 55, "velocity": 80, "channel": 0}, {"type": "note_off", "time": 291, "note": 55, "velocity": 80, "channel": 0}, {"type": "note_on", "time": 87, "note": 60, "velocity": 80, "channel": 0}, {"type": "note_off", "time": 263, "note": 60, "velocity": 80, "channel": 0}, {"type": "note_on", "time": 46, "note": 55, "velocity": 80, "channel": 0}, {"type": "note_off", "time": 268, "note": 55, "velocity": 80, "channel": 0}, {"type": "note_on", "time": 134, "note": 51, "velocity": 80, "channel": 0}, {"type": "note_off", "time": 291, "note": 51, "velocity": 80, "channel": 0}, {"type": "note_on", "time": 23, "note": 58, "velocity": 80, "channel": 0}, {"type": "note_off", "time": 324, "note": 58, "velocity": 80, "channel": 0}, {"type": "note_on", "time": 41, "note": 63, "velocity": 80, "channel": 0}, {"type": "note_off", "time": 305, "note": 63, "velocity": 80, "channel": 0}, {"type": "note_on", "time": 78, "note": 58, "velocity": 80, "channel": 0}, {"type": "note_off", "time": 282, "note": 58, "velocity": 80, "channel": 0}, {"type": "note_on", "time": 46, "note": 53, "velocity": 80, "channel": 0}, {"type": "note_off", "time": 286, "note": 53, "velocity": 80, "channel": 0}, {"type": "note_on", "time": 171, "note": 55, "velocity": 80, "channel": 0}, {"type": "note_off", "time": 314, "note": 55, "velocity": 80, "channel": 0}, {"type": "note_on", "time": 87, "note": 60, "velocity": 80, "channel": 0}, {"type": "note_off", "time": 384, "note": 60, "velocity": 80, "channel": 0}, {"type": "note_on", "time": 120, "note": 65, "velocity": 80, "channel": 0}, {"type": "note_off", "time": 1499, "note": 65, "velocity": 80, "channel": 0}, {"type": "note_on", "time": 759, "note": 54, "velocity": 80, "channel": 0}, {"type": "note_off", "time": 324, "note": 54, "velocity": 80, "channel": 0}, {"type": "note_on", "time": 54, "note": 61, "velocity": 80, "channel": 0}, {"type": "note_off", "time": 370, "note": 61, "velocity": 80, "channel": 0}, {"type": "note_on", "time": 74, "note": 66, "velocity": 80, "channel": 0}, {"type": "note_off", "time": 300, "note": 66, "velocity": 80, "channel": 0}, {"type": "note_on", "time": 37, "note": 61, "velocity": 80, "channel": 0}, {"type": "note_off", "time": 374, "note": 61, "velocity": 80, "channel": 0}, {"type": "note_on", "time": 507, "note": 75, "velocity": 80, "channel": 0}, {"type": "note_off", "time": 407, "note": 75, "velocity": 80, "channel": 0}, {"type": "note_on", "time": 46, "note": 67, "velocity": 80, "channel": 0}, {"type": "note_off", "time": 292, "note": 67, "velocity": 80, "channel": 0}, {"type": "note_on", "time": 72, "note": 63, "velocity": 80, "channel": 0}, {"type": "note_off", "time": 437, "note": 63, "velocity": 80, "channel": 0}, {"type": "note_on", "time": 65, "note": 58, "velocity": 80, "channel": 0}, {"type": "note_off", "time": 322, "note": 58, "velocity": 80, "channel": 0}, {"type": "note_on", "time": 26, "note": 63, "velocity": 80, "channel": 0}, {"type": "note_off", "time": 342, "note": 63, "velocity": 80, "channel": 0}, {"type": "note_on", "time": 95, "note": 69, "velocity": 80, "channel": 0}, {"type": "note_off", "time": 283, "note": 69, "velocity": 80, "channel": 0}, {"type": "note_on", "time": 59, "note": 65, "velocity": 80, "channel": 0}, {"type": "note_off", "time": 322, "note": 65, "velocity": 80, "channel": 0}, {"type": "note_on", "time": 59, "note": 60, "velocity": 80, "channel": 0}, {"type": "note_off", "time": 464, "note": 60, "velocity": 80, "channel": 0}, {"type": "note_on", "time": 92, "note": 70, "velocity": 80, "channel": 0}, {"type": "note_off", "time": 309, "note": 70, "velocity": 80, "channel": 0}, {"type": "note_on", "time": 52, "note": 67, "velocity": 80, "channel": 0}, {"type": "note_off", "time": 447, "note": 67, "velocity": 80, "channel": 0}, {"type": "note_on", "time": 62, "note": 64, "velocity": 80, "channel": 0}, {"type": "note_off", "time": 220, "note": 64, "velocity": 80, "channel": 0}, {"type": "note_on", "time": 204, "note": 70, "velocity": 80, "channel": 0}, {"type": "note_off", "time": 319, "note": 70, "velocity": 80, "channel": 0}, {"type": "note_on", "time": 49, "note": 67, "velocity": 80, "channel": 0}, {"type": "note_off", "time": 226, "note": 67, "velocity": 80, "channel": 0}, {"type": "note_on", "time": 157, "note": 75, "velocity": 80, "channel": 0}, {"type": "note_off", "time": 430, "note": 75, "velocity": 80, "channel": 0}, {"type": "note_on", "time": 134, "note": 78, "velocity": 80, "channel": 0}, {"type": "note_off", "time": 402, "note": 78, "velocity": 80, "channel": 0}, {"type": "note_on", "time": 129, "note": 82, "velocity": 80, "channel": 0}, {"type": "note_off", "time": 347, "note": 82, "velocity": 80, "channel": 0}, {"type": "note_on", "time": 0, "note": 84, "velocity": 80, "channel": 0}, {"type": "note_off", "time": 379, "note": 84, "velocity": 80, "channel": 0}, {"type": "note_on", "time": 50, "note": 87, "velocity": 80, "channel": 0}, {"type": "note_off", "time": 495, "note": 87, "velocity": 80, "channel": 0}, {"type": "note_on", "time": 2123, "note": 67, "velocity": 80, "channel": 0}, {"type": "note_off", "time": 437, "note": 67, "velocity": 80, "channel": 0}, {"type": "note_on", "time": 75, "note": 72, "velocity": 80, "channel": 0}, {"type": "note_off", "time": 138, "note": 72, "velocity": 80, "channel": 0}, {"type": "note_on", "time": 42, "note": 68, "velocity": 80, "channel": 0}, {"type": "note_off", "time": 332, "note": 68, "velocity": 80, "channel": 0}, {"type": "note_on", "time": 167, "note": 66, "velocity": 80, "channel": 0}, {"type": "note_off", "time": 292, "note": 66, "velocity": 80, "channel": 0}, {"type": "note_on", "time": 55, "note": 63, "velocity": 80, "channel": 0}, {"type": "note_off", "time": 292, "note": 63, "velocity": 80, "channel": 0}, {"type": "note_on", "time": 23, "note": 60, "velocity": 80, "channel": 0}, {"type": "note_off", "time": 235, "note": 60, "velocity": 80, "channel": 0}, {"type": "note_on", "time": 39, "note": 58, "velocity": 80, "channel": 0}, {"type": "note_off", "time": 157, "note": 58, "velocity": 80, "channel": 0}, {"type": "note_on", "time": 33, "note": 55, "velocity": 80, "channel": 0}, {"type": "note_off", "time": 192, "note": 55, "velocity": 80, "channel": 0}, {"type": "note_on", "time": 22, "note": 50, "velocity": 80, "channel": 0}, {"type": "note_off", "time": 316, "note": 50, "velocity": 80, "channel": 0}, {"type": "note_on", "time": 54, "note": 48, "velocity": 80, "channel": 0}, {"type": "note_off", "time": 401, "note": 48, "velocity": 80, "channel": 0}, {"type": "note_on", "time": 24, "note": 46, "velocity": 80, "channel": 0}, {"type": "note_off", "time": 1059, "note": 46, "velocity": 80, "channel": 0}, {"type": "note_on", "time": 5290, "note": 65, "velocity": 80, "channel": 0}, {"type": "note_off", "time": 296, "note": 65, "velocity": 80, "channel": 0}, {"type": "note_on", "time": 32, "note": 62, "velocity": 80, "channel": 0}, {"type": "note_off", "time": 277, "note": 62, "velocity": 80, "channel": 0}, {"type": "note_on", "time": 55, "note": 58, "velocity": 80, "channel": 0}, {"type": "note_off", "time": 448, "note": 58, "velocity": 80, "channel": 0}, {"type": "note_on", "time": 152, "note": 67, "velocity": 80, "channel": 0}, {"type": "note_off", "time": 384, "note": 67, "velocity": 80, "channel": 0}, {"type": "note_on", "time": 2804, "note": 69, "velocity": 80, "channel": 0}, {"type": "note_off", "time": 328, "note": 69, "velocity": 80, "channel": 0}, {"type": "note_on", "time": 930, "note": 65, "velocity": 80, "channel": 0}, {"type": "note_off", "time": 333, "note": 65, "velocity": 80, "channel": 0}, {"type": "note_on", "time": 897, "note": 67, "velocity": 80, "channel": 0}, {"type": "note_off", "time": 319, "note": 67, "velocity": 80, "channel": 0}, {"type": "note_on", "time": 810, "note": 62, "velocity": 80, "channel": 0}, {"type": "note_off", "time": 282, "note": 62, "velocity": 80, "channel": 0}, {"type": "note_on", "time": 32, "note": 65, "velocity": 80, "channel": 0}, {"type": "note_off", "time": 324, "note": 65, "velocity": 80, "channel": 0}, {"type": "note_on", "time": 74, "note": 64, "velocity": 80, "channel": 0}, {"type": "note_off", "time": 523, "note": 64, "velocity": 80, "channel": 0}, {"type": "note_on", "time": 96, "note": 62, "velocity": 80, "channel": 0}, {"type": "note_off", "time": 520, "note": 62, "velocity": 80, "channel": 0}, {"type": "note_on", "time": 111, "note": 60, "velocity": 80, "channel": 0}, {"type": "note_off", "time": 638, "note": 60, "velocity": 80, "channel": 0}, {"type": "note_on", "time": 358, "note": 55, "velocity": 80, "channel": 0}, {"type": "note_off", "time": 273, "note": 55, "velocity": 80, "channel": 0}, {"type": "note_on", "time": 49, "note": 58, "velocity": 80, "channel": 0}, {"type": "note_off", "time": 520, "note": 58, "velocity": 80, "channel": 0}, {"type": "note_on", "time": 60, "note": 62, "velocity": 80, "channel": 0}, {"type": "note_off", "time": 513, "note": 62, "velocity": 80, "channel": 0}, {"type": "note_on", "time": 139, "note": 60, "velocity": 80, "channel": 0}, {"type": "note_off", "time": 485, "note": 60, "velocity": 80, "channel": 0}, {"type": "note_on", "time": 87, "note": 57, "velocity": 80, "channel": 0}, {"type": "note_off", "time": 416, "note": 57, "velocity": 80, "channel": 0}, {"type": "note_on", "time": 97, "note": 53, "velocity": 80, "channel": 0}, {"type": "note_off", "time": 546, "note": 53, "velocity": 80, "channel": 0}, {"type": "note_on", "time": 378, "note": 52, "velocity": 80, "channel": 0}, {"type": "note_off", "time": 289, "note": 52, "velocity": 80, "channel": 0}, {"type": "note_on", "time": 40, "note": 55, "velocity": 80, "channel": 0}, {"type": "note_off", "time": 1046, "note": 55, "velocity": 80, "channel": 0}, {"type": "note_on", "time": 111, "note": 53, "velocity": 80, "channel": 0}, {"type": "note_off", "time": 1046, "note": 53, "velocity": 80, "channel": 0}, {"type": "note_on", "time": 383, "note": 58, "velocity": 80, "channel": 0}, {"type": "note_off", "time": 967, "note": 58, "velocity": 80, "channel": 0}, {"type": "note_on", "time": 157, "note": 60, "velocity": 80, "channel": 0}, {"type": "note_off", "time": 1158, "note": 60, "velocity": 80, "channel": 0}, {"type": "note_on", "time": 111, "note": 62, "velocity": 80, "channel": 0}, {"type": "note_off", "time": 1237, "note": 62, "velocity": 80, "channel": 0}, {"type": "note_on", "time": 32, "note": 65, "velocity": 80, "channel": 0}, {"type": "note_off", "time": 1171, "note": 65, "velocity": 80, "channel": 0}, {"type": "note_on", "time": 96, "note": 67, "velocity": 80, "channel": 0}, {"type": "note_off", "time": 1046, "note": 67, "velocity": 80, "channel": 0}, {"type": "note_on", "time": 60, "note": 69, "velocity": 80, "channel": 0}, {"type": "note_off", "time": 467, "note": 69, "velocity": 80, "channel": 0}, {"type": "note_on", "time": 27, "note": 70, "velocity": 80, "channel": 0}, {"type": "note_off", "time": 615, "note": 70, "velocity": 80, "channel": 0}, {"type": "note_on", "time": 199, "note": 67, "velocity": 80, "channel": 0}, {"type": "note_off", "time": 1444, "note": 67, "velocity": 80, "channel": 0}, {"type": "note_on", "time": 4225, "note": 67, "velocity": 80, "channel": 0}, {"type": "note_off", "time": 381, "note": 67, "velocity": 80, "channel": 0}, {"type": "note_on", "time": 46, "note": 69, "velocity": 80, "channel": 0}, {"type": "note_off", "time": 658, "note": 69, "velocity": 80, "channel": 0}, {"type": "note_on", "time": 111, "note": 70, "velocity": 80, "channel": 0}, {"type": "note_off", "time": 493, "note": 70, "velocity": 80, "channel": 0}, {"type": "note_on", "time": 59, "note": 72, "velocity": 80, "channel": 0}, {"type": "note_off", "time": 487, "note": 72, "velocity": 80, "channel": 0}, {"type": "note_on", "time": 204, "note": 70, "velocity": 80, "channel": 0}, {"type": "note_off", "time": 414, "note": 70, "velocity": 80, "channel": 0}, {"type": "note_on", "time": 91, "note": 69, "velocity": 80, "channel": 0}, {"type": "note_off", "time": 615, "note": 69, "velocity": 80, "channel": 0}, {"type": "note_on", "time": 78, "note": 67, "velocity": 80, "channel": 0}, {"type": "note_off", "time": 448, "note": 67, "velocity": 80, "channel": 0}, {"type": "note_on", "time": 147, "note": 70, "velocity": 80, "channel": 0}, {"type": "note_off", "time": 550, "note": 70, "velocity": 80, "channel": 0}, {"type": "note_on", "time": 60, "note": 67, "velocity": 80, "channel": 0}, {"type": "note_off", "time": 490, "note": 67, "velocity": 80, "channel": 0}, {"type": "note_on", "time": 49, "note": 70, "velocity": 80, "channel": 0}, {"type": "note_off", "time": 625, "note": 70, "velocity": 80, "channel": 0}, {"type": "note_on", "time": 65, "note": 67, "velocity": 80, "channel": 0}, {"type": "note_off", "time": 572, "note": 67, "velocity": 80, "channel": 0}, {"type": "note_on", "time": 85, "note": 69, "velocity": 80, "channel": 0}, {"type": "note_off", "time": 566, "note": 69, "velocity": 80, "channel": 0}, {"type": "note_on", "time": 78, "note": 67, "velocity": 80, "channel": 0}, {"type": "note_off", "time": 645, "note": 67, "velocity": 80, "channel": 0}, {"type": "note_on", "time": 72, "note": 70, "velocity": 80, "channel": 0}, {"type": "note_off", "time": 388, "note": 70, "velocity": 80, "channel": 0}, {"type": "note_on", "time": 125, "note": 70, "velocity": 80, "channel": 0}, {"type": "note_off", "time": 500, "note": 70, "velocity": 80, "channel": 0}, {"type": "note_on", "time": 796, "note": 69, "velocity": 80, "channel": 0}, {"type": "note_off", "time": 480, "note": 69, "velocity": 80, "channel": 0}, {"type": "note_on", "time": 302, "note": 67, "velocity": 80, "channel": 0}, {"type": "note_off", "time": 276, "note": 67, "velocity": 80, "channel": 0}, {"type": "note_on", "time": 98, "note": 70, "velocity": 80, "channel": 0}, {"type": "note_off", "time": 526, "note": 70, "velocity": 80, "channel": 0}, {"type": "note_on", "time": 125, "note": 70, "velocity": 80, "channel": 0}, {"type": "note_off", "time": 559, "note": 70, "velocity": 80, "channel": 0}, {"type": "note_on", "time": 78, "note": 67, "velocity": 80, "channel": 0}, {"type": "note_off", "time": 546, "note": 67, "velocity": 80, "channel": 0}, {"type": "note_on", "time": 32, "note": 69, "velocity": 80, "channel": 0}, {"type": "note_off", "time": 631, "note": 69, "velocity": 80, "channel": 0}, {"type": "note_on", "time": 85, "note": 67, "velocity": 80, "channel": 0}, {"type": "note_off", "time": 506, "note": 67, "velocity": 80, "channel": 0}, {"type": "note_on", "time": 98, "note": 70, "velocity": 80, "channel": 0}, {"type": "note_off", "time": 467, "note": 70, "velocity": 80, "channel": 0}, {"type": "note_on", "time": 118, "note": 70, "velocity": 80, "channel": 0}, {"type": "note_off", "time": 513, "note": 70, "velocity": 80, "channel": 0}, {"type": "note_on", "time": 111, "note": 70, "velocity": 80, "channel": 0}, {"type": "note_off", "time": 572, "note": 70, "velocity": 80, "channel": 0}, {"type": "note_on", "time": 151, "note": 67, "velocity": 80, "channel": 0}, {"type": "note_off", "time": 342, "note": 67, "velocity": 80, "channel": 0}, {"type": "note_on", "time": 148, "note": 70, "velocity": 80, "channel": 0}, {"type": "note_off", "time": 532, "note": 70, "velocity": 80, "channel": 0}, {"type": "note_on", "time": 134, "note": 70, "velocity": 80, "channel": 0}, {"type": "note_off", "time": 407, "note": 70, "velocity": 80, "channel": 0}, {"type": "note_on", "time": 106, "note": 70, "velocity": 80, "channel": 0}, {"type": "note_off", "time": 402, "note": 70, "velocity": 80, "channel": 0}, {"type": "note_on", "time": 333, "note": 67, "velocity": 80, "channel": 0}, {"type": "note_off", "time": 425, "note": 67, "velocity": 80, "channel": 0}, {"type": "note_on", "time": 240, "note": 70, "velocity": 80, "channel": 0}, {"type": "note_off", "time": 453, "note": 70, "velocity": 80, "channel": 0}, {"type": "note_on", "time": 101, "note": 70, "velocity": 80, "channel": 0}, {"type": "note_off", "time": 421, "note": 70, "velocity": 80, "channel": 0}, {"type": "note_on", "time": 83, "note": 67, "velocity": 80, "channel": 0}, {"type": "note_off", "time": 523, "note": 67, "velocity": 80, "channel": 0}, {"type": "note_on", "time": 259, "note": 70, "velocity": 80, "channel": 0}, {"type": "note_off", "time": 523, "note": 70, "velocity": 80, "channel": 0}, {"type": "note_on", "time": 180, "note": 70, "velocity": 80, "channel": 0}, {"type": "note_off", "time": 490, "note": 70, "velocity": 80, "channel": 0}, {"type": "note_on", "time": 23, "note": 67, "velocity": 80, "channel": 0}, {"type": "note_off", "time": 513, "note": 67, "velocity": 80, "channel": 0}, {"type": "note_on", "time": 134, "note": 70, "velocity": 80, "channel": 0}, {"type": "note_off", "time": 1064, "note": 70, "velocity": 80, "channel": 0}, {"type": "note_on", "time": 2744, "note": 76, "velocity": 80, "channel": 0}, {"type": "note_off", "time": 472, "note": 76, "velocity": 80, "channel": 0}, {"type": "note_on", "time": 55, "note": 71, "velocity": 80, "channel": 0}, {"type": "note_off", "time": 499, "note": 71, "velocity": 80, "channel": 0}, {"type": "note_on", "time": 83, "note": 67, "velocity": 80, "channel": 0}, {"type": "note_off", "time": 402, "note": 67, "velocity": 80, "channel": 0}, {"type": "note_on", "time": 240, "note": 71, "velocity": 80, "channel": 0}, {"type": "note_off", "time": 425, "note": 71, "velocity": 80, "channel": 0}, {"type": "note_on", "time": 259, "note": 67, "velocity": 80, "channel": 0}, {"type": "note_off", "time": 425, "note": 67, "velocity": 80, "channel": 0}, {"type": "note_on", "time": 211, "note": 69, "velocity": 80, "channel": 0}, {"type": "note_off", "time": 401, "note": 69, "velocity": 80, "channel": 0}, {"type": "note_on", "time": 131, "note": 64, "velocity": 80, "channel": 0}, {"type": "note_off", "time": 520, "note": 64, "velocity": 80, "channel": 0}, {"type": "note_on", "time": 197, "note": 68, "velocity": 80, "channel": 0}, {"type": "note_off", "time": 408, "note": 68, "velocity": 80, "channel": 0}, {"type": "note_on", "time": 289, "note": 71, "velocity": 80, "channel": 0}, {"type": "note_off", "time": 480, "note": 71, "velocity": 80, "channel": 0}, {"type": "note_on", "time": 92, "note": 65, "velocity": 80, "channel": 0}, {"type": "note_off", "time": 394, "note": 65, "velocity": 80, "channel": 0}, {"type": "note_on", "time": 26, "note": 66, "velocity": 80, "channel": 0}, {"type": "note_off", "time": 697, "note": 66, "velocity": 80, "channel": 0}, {"type": "note_on", "time": 13, "note": 69, "velocity": 80, "channel": 0}, {"type": "note_off", "time": 467, "note": 69, "velocity": 80, "channel": 0}, {"type": "note_on", "time": 151, "note": 64, "velocity": 80, "channel": 0}, {"type": "note_off", "time": 592, "note": 64, "velocity": 80, "channel": 0}, {"type": "note_on", "time": 131, "note": 68, "velocity": 80, "channel": 0}, {"type": "note_off", "time": 520, "note": 68, "velocity": 80, "channel": 0}, {"type": "note_on", "time": 72, "note": 63, "velocity": 80, "channel": 0}, {"type": "note_off", "time": 487, "note": 63, "velocity": 80, "channel": 0}, {"type": "note_on", "time": 197, "note": 67, "velocity": 80, "channel": 0}, {"type": "note_off", "time": 493, "note": 67, "velocity": 80, "channel": 0}, {"type": "note_on", "time": 98, "note": 62, "velocity": 80, "channel": 0}, {"type": "note_off", "time": 427, "note": 62, "velocity": 80, "channel": 0}, {"type": "note_on", "time": 92, "note": 65, "velocity": 80, "channel": 0}, {"type": "note_off", "time": 447, "note": 65, "velocity": 80, "channel": 0}, {"type": "note_on", "time": 204, "note": 66, "velocity": 80, "channel": 0}, {"type": "note_off", "time": 572, "note": 66, "velocity": 80, "channel": 0}, {"type": "note_on", "time": 72, "note": 70, "velocity": 80, "channel": 0}, {"type": "note_off", "time": 487, "note": 70, "velocity": 80, "channel": 0}, {"type": "note_on", "time": 144, "note": 65, "velocity": 80, "channel": 0}, {"type": "note_off", "time": 493, "note": 65, "velocity": 80, "channel": 0}, {"type": "note_on", "time": 131, "note": 65, "velocity": 80, "channel": 0}, {"type": "note_off", "time": 388, "note": 65, "velocity": 80, "channel": 0}, {"type": "note_on", "time": 204, "note": 65, "velocity": 80, "channel": 0}, {"type": "note_off", "time": 533, "note": 65, "velocity": 80, "channel": 0}, {"type": "note_on", "time": 184, "note": 62, "velocity": 80, "channel": 0}, {"type": "note_off", "time": 414, "note": 62, "velocity": 80, "channel": 0}, {"type": "note_on", "time": 98, "note": 65, "velocity": 80, "channel": 0}, {"type": "note_off", "time": 355, "note": 65, "velocity": 80, "channel": 0}, {"type": "note_on", "time": 243, "note": 65, "velocity": 80, "channel": 0}, {"type": "note_off", "time": 454, "note": 65, "velocity": 80, "channel": 0}, {"type": "note_on", "time": 263, "note": 65, "velocity": 80, "channel": 0}, {"type": "note_off", "time": 717, "note": 65, "velocity": 80, "channel": 0}, {"type": "note_on", "time": 1711, "note": 65, "velocity": 80, "channel": 0}, {"type": "note_off", "time": 730, "note": 65, "velocity": 80, "channel": 0}, {"type": "note_on", "time": 1375, "note": 65, "velocity": 80, "channel": 0}, {"type": "note_off", "time": 493, "note": 65, "velocity": 80, "channel": 0}, {"type": "note_on", "time": 1270, "note": 65, "velocity": 80, "channel": 0}, {"type": "note_off", "time": 1448, "note": 65, "velocity": 80, "channel": 0}, {"type": "note_on", "time": 368, "note": 67, "velocity": 80, "channel": 0}, {"type": "note_off", "time": 500, "note": 67, "velocity": 80, "channel": 0}, {"type": "note_on", "time": 125, "note": 69, "velocity": 80, "channel": 0}, {"type": "note_off", "time": 1184, "note": 69, "velocity": 80, "channel": 0}, {"type": "note_on", "time": 138, "note": 72, "velocity": 80, "channel": 0}, {"type": "note_off", "time": 664, "note": 72, "velocity": 80, "channel": 0}, {"type": "note_on", "time": 1676, "note": 65, "velocity": 80, "channel": 0}, {"type": "note_off", "time": 569, "note": 65, "velocity": 80, "channel": 0}, {"type": "note_on", "time": 927, "note": 65, "velocity": 80, "channel": 0}, {"type": "note_off", "time": 513, "note": 65, "velocity": 80, "channel": 0}, {"type": "note_on", "time": 1895, "note": 65, "velocity": 80, "channel": 0}, {"type": "note_off", "time": 1342, "note": 65, "velocity": 80, "channel": 0}, {"type": "note_on", "time": 526, "note": 67, "velocity": 80, "channel": 0}, {"type": "note_off", "time": 480, "note": 67, "velocity": 80, "channel": 0}, {"type": "note_on", "time": 19, "note": 69, "velocity": 80, "channel": 0}, {"type": "note_off", "time": 1309, "note": 69, "velocity": 80, "channel": 0}, {"type": "note_on", "time": 39, "note": 72, "velocity": 80, "channel": 0}, {"type": "note_off", "time": 441, "note": 72, "velocity": 80, "channel": 0}, {"type": "note_on", "time": 796, "note": 65, "velocity": 80, "channel": 0}, {"type": "note_off", "time": 592, "note": 65, "velocity": 80, "channel": 0}, {"type": "note_on", "time": 1955, "note": 65, "velocity": 80, "channel": 0}, {"type": "note_off", "time": 678, "note": 65, "velocity": 80, "channel": 0}, {"type": "note_on", "time": 1125, "note": 67, "velocity": 80, "channel": 0}, {"type": "note_off", "time": 204, "note": 67, "velocity": 80, "channel": 0}, {"type": "note_on", "time": 32, "note": 65, "velocity": 80, "channel": 0}, {"type": "note_off", "time": 256, "note": 65, "velocity": 80, "channel": 0}, {"type": "note_on", "time": 190, "note": 62, "velocity": 80, "channel": 0}, {"type": "note_off", "time": 572, "note": 62, "velocity": 80, "channel": 0}, {"type": "note_on", "time": 59, "note": 65, "velocity": 80, "channel": 0}, {"type": "note_off", "time": 513, "note": 65, "velocity": 80, "channel": 0}, {"type": "note_on", "time": 86, "note": 67, "velocity": 80, "channel": 0}, {"type": "note_off", "time": 555, "note": 67, "velocity": 80, "channel": 0}, {"type": "note_on", "time": 148, "note": 69, "velocity": 80, "channel": 0}, {"type": "note_off", "time": 296, "note": 69, "velocity": 80, "channel": 0}, {"type": "note_on", "time": 324, "note": 72, "velocity": 80, "channel": 0}, {"type": "note_off", "time": 458, "note": 72, "velocity": 80, "channel": 0}, {"type": "note_on", "time": 115, "note": 70, "velocity": 80, "channel": 0}, {"type": "note_off", "time": 495, "note": 70, "velocity": 80, "channel": 0}, {"type": "note_on", "time": 106, "note": 67, "velocity": 80, "channel": 0}, {"type": "note_off", "time": 601, "note": 67, "velocity": 80, "channel": 0}, {"type": "note_on", "time": 101, "note": 62, "velocity": 80, "channel": 0}, {"type": "note_off", "time": 402, "note": 62, "velocity": 80, "channel": 0}, {"type": "note_on", "time": 120, "note": 65, "velocity": 80, "channel": 0}, {"type": "note_off", "time": 597, "note": 65, "velocity": 80, "channel": 0}, {"type": "note_on", "time": 32, "note": 67, "velocity": 80, "channel": 0}, {"type": "note_off", "time": 319, "note": 67, "velocity": 80, "channel": 0}, {"type": "note_on", "time": 263, "note": 69, "velocity": 80, "channel": 0}, {"type": "note_off", "time": 495, "note": 69, "velocity": 80, "channel": 0}, {"type": "note_on", "time": 361, "note": 65, "velocity": 80, "channel": 0}, {"type": "note_off", "time": 291, "note": 65, "velocity": 80, "channel": 0}, {"type": "note_on", "time": 69, "note": 67, "velocity": 80, "channel": 0}, {"type": "note_off", "time": 1143, "note": 67, "velocity": 80, "channel": 0}, {"type": "note_on", "time": 83, "note": 65, "velocity": 80, "channel": 0}, {"type": "note_off", "time": 532, "note": 65, "velocity": 80, "channel": 0}, {"type": "note_on", "time": 143, "note": 67, "velocity": 80, "channel": 0}, {"type": "note_off", "time": 458, "note": 67, "velocity": 80, "channel": 0}, {"type": "note_on", "time": 2462, "note": 67, "velocity": 80, "channel": 0}, {"type": "note_off", "time": 743, "note": 67, "velocity": 80, "channel": 0}, {"type": "note_on", "time": 105, "note": 65, "velocity": 80, "channel": 0}, {"type": "note_off", "time": 322, "note": 65, "velocity": 80, "channel": 0}, {"type": "note_on", "time": 105, "note": 62, "velocity": 80, "channel": 0}, {"type": "note_off", "time": 645, "note": 62, "velocity": 80, "channel": 0}, {"type": "note_on", "time": 118, "note": 60, "velocity": 80, "channel": 0}, {"type": "note_off", "time": 427, "note": 60, "velocity": 80, "channel": 0}, {"type": "note_on", "time": 118, "note": 55, "velocity": 80, "channel": 0}, {"type": "note_off", "time": 1876, "note": 55, "velocity": 80, "channel": 0}, {"type": "note_on", "time": 1771, "note": 67, "velocity": 80, "channel": 0}, {"type": "note_off", "time": 1009, "note": 67, "velocity": 80, "channel": 0}, {"type": "note_on", "time": 425, "note": 58, "velocity": 80, "channel": 0}, {"type": "note_off", "time": 1675, "note": 58, "velocity": 80, "channel": 0}, {"type": "note_on", "time": 2082, "note": 67, "velocity": 80, "channel": 0}, {"type": "note_off", "time": 712, "note": 67, "velocity": 80, "channel": 0}, {"type": "note_on", "time": 481, "note": 58, "velocity": 80, "channel": 0}, {"type": "note_off", "time": 444, "note": 58, "velocity": 80, "channel": 0}, {"type": "note_on", "time": 55, "note": 59, "velocity": 80, "channel": 0}, {"type": "note_off", "time": 777, "note": 59, "velocity": 80, "channel": 0}, {"type": "note_on", "time": 2295, "note": 65, "velocity": 80, "channel": 0}, {"type": "note_off", "time": 286, "note": 65, "velocity": 80, "channel": 0}, {"type": "note_on", "time": 55, "note": 67, "velocity": 80, "channel": 0}, {"type": "note_off", "time": 675, "note": 67, "velocity": 80, "channel": 0}, {"type": "note_on", "time": 407, "note": 60, "velocity": 80, "channel": 0}, {"type": "note_off", "time": 1157, "note": 60, "velocity": 80, "channel": 0}, {"type": "note_on", "time": 2110, "note": 66, "velocity": 80, "channel": 0}, {"type": "note_off", "time": 185, "note": 66, "velocity": 80, "channel": 0}, {"type": "note_on", "time": 83, "note": 67, "velocity": 80, "channel": 0}, {"type": "note_off", "time": 472, "note": 67, "velocity": 80, "channel": 0}, {"type": "note_on", "time": 521, "note": 65, "velocity": 80, "channel": 0}, {"type": "note_off", "time": 2132, "note": 65, "velocity": 80, "channel": 0}, {"type": "note_on", "time": 1922, "note": 70, "velocity": 80, "channel": 0}, {"type": "note_off", "time": 552, "note": 70, "velocity": 80, "channel": 0}, {"type": "note_on", "time": 868, "note": 61, "velocity": 80, "channel": 0}, {"type": "note_off", "time": 879, "note": 61, "velocity": 80, "channel": 0}, {"type": "note_on", "time": 4235, "note": 65, "velocity": 80, "channel": 0}, {"type": "note_off", "time": 499, "note": 65, "velocity": 80, "channel": 0}, {"type": "note_on", "time": 83, "note": 63, "velocity": 80, "channel": 0}, {"type": "note_off", "time": 435, "note": 63, "velocity": 80, "channel": 0}, {"type": "note_on", "time": 88, "note": 68, "velocity": 80, "channel": 0}, {"type": "note_off", "time": 526, "note": 68, "velocity": 80, "channel": 0}, {"type": "note_on", "time": 204, "note": 65, "velocity": 80, "channel": 0}, {"type": "note_off", "time": 408, "note": 65, "velocity": 80, "channel": 0}, {"type": "note_on", "time": 129, "note": 63, "velocity": 80, "channel": 0}, {"type": "note_off", "time": 657, "note": 63, "velocity": 80, "channel": 0}, {"type": "note_on", "time": 46, "note": 61, "velocity": 80, "channel": 0}, {"type": "note_off", "time": 453, "note": 61, "velocity": 80, "channel": 0}, {"type": "note_on", "time": 46, "note": 58, "velocity": 80, "channel": 0}, {"type": "note_off", "time": 701, "note": 58, "velocity": 80, "channel": 0}, {"type": "note_on", "time": 65, "note": 56, "velocity": 80, "channel": 0}, {"type": "note_off", "time": 480, "note": 56, "velocity": 80, "channel": 0}, {"type": "note_on", "time": 776, "note": 72, "velocity": 80, "channel": 0}, {"type": "note_off", "time": 572, "note": 72, "velocity": 80, "channel": 0}, {"type": "note_on", "time": 599, "note": 70, "velocity": 80, "channel": 0}, {"type": "note_off", "time": 493, "note": 70, "velocity": 80, "channel": 0}, {"type": "note_on", "time": 928, "note": 68, "velocity": 80, "channel": 0}, {"type": "note_off", "time": 487, "note": 68, "velocity": 80, "channel": 0}, {"type": "note_on", "time": 546, "note": 65, "velocity": 80, "channel": 0}, {"type": "note_off", "time": 585, "note": 65, "velocity": 80, "channel": 0}, {"type": "note_on", "time": 242, "note": 58, "velocity": 80, "channel": 0}, {"type": "note_off", "time": 268, "note": 58, "velocity": 80, "channel": 0}, {"type": "note_on", "time": 27, "note": 59, "velocity": 80, "channel": 0}, {"type": "note_off", "time": 1323, "note": 59, "velocity": 80, "channel": 0}, {"type": "note_on", "time": 1955, "note": 67, "velocity": 80, "channel": 0}, {"type": "note_off", "time": 579, "note": 67, "velocity": 80, "channel": 0}, {"type": "note_on", "time": 724, "note": 61, "velocity": 80, "channel": 0}, {"type": "note_off", "time": 263, "note": 61, "velocity": 80, "channel": 0}, {"type": "note_on", "time": 26, "note": 62, "velocity": 80, "channel": 0}, {"type": "note_off", "time": 888, "note": 62, "velocity": 80, "channel": 0}, {"type": "note_on", "time": 2639, "note": 58, "velocity": 80, "channel": 0}, {"type": "note_off", "time": 467, "note": 58, "velocity": 80, "channel": 0}, {"type": "note_on", "time": 85, "note": 70, "velocity": 80, "channel": 0}, {"type": "note_off", "time": 362, "note": 70, "velocity": 80, "channel": 0}, {"type": "note_on", "time": 315, "note": 67, "velocity": 80, "channel": 0}, {"type": "note_off", "time": 552, "note": 67, "velocity": 80, "channel": 0}, {"type": "note_on", "time": 710, "note": 65, "velocity": 80, "channel": 0}, {"type": "note_off", "time": 638, "note": 65, "velocity": 80, "channel": 0}, {"type": "note_on", "time": 643, "note": 61, "velocity": 80, "channel": 0}, {"type": "note_off", "time": 249, "note": 61, "velocity": 80, "channel": 0}, {"type": "note_on", "time": 69, "note": 62, "velocity": 80, "channel": 0}, {"type": "note_off", "time": 435, "note": 62, "velocity": 80, "channel": 0}, {"type": "note_on", "time": 1044, "note": 60, "velocity": 80, "channel": 0}, {"type": "note_off", "time": 427, "note": 60, "velocity": 80, "channel": 0}, {"type": "note_on", "time": 849, "note": 60, "velocity": 80, "channel": 0}, {"type": "note_off", "time": 539, "note": 60, "velocity": 80, "channel": 0}, {"type": "note_on", "time": 2488, "note": 65, "velocity": 80, "channel": 0}, {"type": "note_off", "time": 599, "note": 65, "velocity": 80, "channel": 0}, {"type": "note_on", "time": 730, "note": 70, "velocity": 80, "channel": 0}, {"type": "note_off", "time": 592, "note": 70, "velocity": 80, "channel": 0}, {"type": "note_on", "time": 500, "note": 68, "velocity": 80, "channel": 0}, {"type": "note_off", "time": 658, "note": 68, "velocity": 80, "channel": 0}, {"type": "note_on", "time": 783, "note": 65, "velocity": 80, "channel": 0}, {"type": "note_off", "time": 829, "note": 65, "velocity": 80, "channel": 0}, {"type": "note_on", "time": 1000, "note": 63, "velocity": 80, "channel": 0}, {"type": "note_off", "time": 520, "note": 63, "velocity": 80, "channel": 0}, {"type": "note_on", "time": 750, "note": 65, "velocity": 80, "channel": 0}, {"type": "note_off", "time": 513, "note": 65, "velocity": 80, "channel": 0}, {"type": "note_on", "time": 664, "note": 61, "velocity": 80, "channel": 0}, {"type": "note_off", "time": 651, "note": 61, "velocity": 80, "channel": 0}, {"type": "note_on", "time": 704, "note": 58, "velocity": 80, "channel": 0}, {"type": "note_off", "time": 1407, "note": 58, "velocity": 80, "channel": 0}, {"type": "note_on", "time": 3054, "note": 44, "velocity": 80, "channel": 0}, {"type": "note_off", "time": 453, "note": 44, "velocity": 80, "channel": 0}, {"type": "note_on", "time": 64, "note": 46, "velocity": 80, "channel": 0}, {"type": "note_off", "time": 486, "note": 46, "velocity": 80, "channel": 0}, {"type": "note_on", "time": 106, "note": 49, "velocity": 80, "channel": 0}, {"type": "note_off", "time": 671, "note": 49, "velocity": 80, "channel": 0}, {"type": "note_on", "time": 32, "note": 51, "velocity": 80, "channel": 0}, {"type": "note_off", "time": 365, "note": 51, "velocity": 80, "channel": 0}, {"type": "note_on", "time": 97, "note": 54, "velocity": 80, "channel": 0}, {"type": "note_off", "time": 499, "note": 54, "velocity": 80, "channel": 0}, {"type": "note_on", "time": 240, "note": 56, "velocity": 80, "channel": 0}, {"type": "note_off", "time": 504, "note": 56, "velocity": 80, "channel": 0}, {"type": "note_on", "time": 208, "note": 69, "velocity": 80, "channel": 0}, {"type": "note_off", "time": 448, "note": 69, "velocity": 80, "channel": 0}, {"type": "note_on", "time": 46, "note": 67, "velocity": 80, "channel": 0}, {"type": "note_off", "time": 555, "note": 67, "velocity": 80, "channel": 0}, {"type": "note_on", "time": 120, "note": 63, "velocity": 80, "channel": 0}, {"type": "note_off", "time": 462, "note": 63, "velocity": 80, "channel": 0}, {"type": "note_on", "time": 157, "note": 66, "velocity": 80, "channel": 0}, {"type": "note_off", "time": 476, "note": 66, "velocity": 80, "channel": 0}, {"type": "note_on", "time": 64, "note": 68, "velocity": 80, "channel": 0}, {"type": "note_off", "time": 485, "note": 68, "velocity": 80, "channel": 0}, {"type": "note_on", "time": 129, "note": 70, "velocity": 80, "channel": 0}, {"type": "note_off", "time": 448, "note": 70, "velocity": 80, "channel": 0}, {"type": "note_on", "time": 277, "note": 71, "velocity": 80, "channel": 0}, {"type": "note_off", "time": 407, "note": 71, "velocity": 80, "channel": 0}, {"type": "note_on", "time": 111, "note": 74, "velocity": 80, "channel": 0}, {"type": "note_off", "time": 731, "note": 74, "velocity": 80, "channel": 0}, {"type": "note_on", "time": 101, "note": 69, "velocity": 80, "channel": 0}, {"type": "note_off", "time": 416, "note": 69, "velocity": 80, "channel": 0}, {"type": "note_on", "time": 74, "note": 71, "velocity": 80, "channel": 0}, {"type": "note_off", "time": 583, "note": 71, "velocity": 80, "channel": 0}, {"type": "note_on", "time": 51, "note": 67, "velocity": 80, "channel": 0}, {"type": "note_off", "time": 572, "note": 67, "velocity": 80, "channel": 0}, {"type": "note_on", "time": 105, "note": 65, "velocity": 80, "channel": 0}, {"type": "note_off", "time": 595, "note": 65, "velocity": 80, "channel": 0}, {"type": "note_on", "time": 46, "note": 62, "velocity": 80, "channel": 0}, {"type": "note_off", "time": 585, "note": 62, "velocity": 80, "channel": 0}, {"type": "note_on", "time": 59, "note": 60, "velocity": 80, "channel": 0}, {"type": "note_off", "time": 500, "note": 60, "velocity": 80, "channel": 0}, {"type": "note_on", "time": 141, "note": 58, "velocity": 80, "channel": 0}, {"type": "note_off", "time": 1099, "note": 58, "velocity": 80, "channel": 0}, {"type": "note_on", "time": 5286, "note": 79, "velocity": 80, "channel": 0}, {"type": "note_off", "time": 277, "note": 79, "velocity": 80, "channel": 0}, {"type": "note_on", "time": 46, "note": 81, "velocity": 80, "channel": 0}, {"type": "note_off", "time": 796, "note": 81, "velocity": 80, "channel": 0}, {"type": "note_on", "time": 254, "note": 77, "velocity": 80, "channel": 0}, {"type": "note_off", "time": 269, "note": 77, "velocity": 80, "channel": 0}, {"type": "note_on", "time": 177, "note": 74, "velocity": 80, "channel": 0}, {"type": "note_off", "time": 375, "note": 74, "velocity": 80, "channel": 0}, {"type": "note_on", "time": 85, "note": 72, "velocity": 80, "channel": 0}, {"type": "note_off", "time": 493, "note": 72, "velocity": 80, "channel": 0}, {"type": "note_on", "time": 249, "note": 70, "velocity": 80, "channel": 0}, {"type": "note_off", "time": 240, "note": 70, "velocity": 80, "channel": 0}, {"type": "note_on", "time": 18, "note": 71, "velocity": 80, "channel": 0}, {"type": "note_off", "time": 583, "note": 71, "velocity": 80, "channel": 0}, {"type": "note_on", "time": 46, "note": 70, "velocity": 80, "channel": 0}, {"type": "note_off", "time": 342, "note": 70, "velocity": 80, "channel": 0}, {"type": "note_on", "time": 52, "note": 67, "velocity": 80, "channel": 0}, {"type": "note_off", "time": 460, "note": 67, "velocity": 80, "channel": 0}, {"type": "note_on", "time": 59, "note": 65, "velocity": 80, "channel": 0}, {"type": "note_off", "time": 599, "note": 65, "velocity": 80, "channel": 0}, {"type": "note_on", "time": 207, "note": 62, "velocity": 80, "channel": 0}, {"type": "note_off", "time": 203, "note": 62, "velocity": 80, "channel": 0}, {"type": "note_on", "time": 231, "note": 65, "velocity": 80, "channel": 0}, {"type": "note_off", "time": 578, "note": 65, "velocity": 80, "channel": 0}, {"type": "note_on", "time": 300, "note": 68, "velocity": 80, "channel": 0}, {"type": "note_off", "time": 333, "note": 68, "velocity": 80, "channel": 0}, {"type": "note_on", "time": 74, "note": 69, "velocity": 80, "channel": 0}, {"type": "note_off", "time": 555, "note": 69, "velocity": 80, "channel": 0}, {"type": "note_on", "time": 0, "note": 71, "velocity": 80, "channel": 0}, {"type": "note_off", "time": 467, "note": 71, "velocity": 80, "channel": 0}, {"type": "note_on", "time": 279, "note": 66, "velocity": 80, "channel": 0}, {"type": "note_off", "time": 230, "note": 66, "velocity": 80, "channel": 0}, {"type": "note_on", "time": 65, "note": 67, "velocity": 80, "channel": 0}, {"type": "note_off", "time": 283, "note": 67, "velocity": 80, "channel": 0}, {"type": "note_on", "time": 98, "note": 68, "velocity": 80, "channel": 0}, {"type": "note_off", "time": 421, "note": 68, "velocity": 80, "channel": 0}, {"type": "note_on", "time": 157, "note": 66, "velocity": 80, "channel": 0}, {"type": "note_off", "time": 552, "note": 66, "velocity": 80, "channel": 0}, {"type": "note_on", "time": 111, "note": 64, "velocity": 80, "channel": 0}, {"type": "note_off", "time": 309, "note": 64, "velocity": 80, "channel": 0}, {"type": "note_on", "time": 92, "note": 65, "velocity": 80, "channel": 0}, {"type": "note_off", "time": 895, "note": 65, "velocity": 80, "channel": 0}, {"type": "note_on", "time": 46, "note": 67, "velocity": 80, "channel": 0}, {"type": "note_off", "time": 335, "note": 67, "velocity": 80, "channel": 0}, {"type": "note_on", "time": 78, "note": 69, "velocity": 80, "channel": 0}, {"type": "note_off", "time": 520, "note": 69, "velocity": 80, "channel": 0}, {"type": "note_on", "time": 105, "note": 72, "velocity": 80, "channel": 0}, {"type": "note_off", "time": 335, "note": 72, "velocity": 80, "channel": 0}, {"type": "note_on", "time": 210, "note": 67, "velocity": 80, "channel": 0}, {"type": "note_off", "time": 737, "note": 67, "velocity": 80, "channel": 0}, {"type": "note_on", "time": 59, "note": 70, "velocity": 80, "channel": 0}, {"type": "note_off", "time": 467, "note": 70, "velocity": 80, "channel": 0}, {"type": "note_on", "time": 92, "note": 71, "velocity": 80, "channel": 0}, {"type": "note_off", "time": 552, "note": 71, "velocity": 80, "channel": 0}, {"type": "note_on", "time": 52, "note": 74, "velocity": 80, "channel": 0}, {"type": "note_off", "time": 427, "note": 74, "velocity": 80, "channel": 0}, {"type": "note_on", "time": 184, "note": 73, "velocity": 80, "channel": 0}, {"type": "note_off", "time": 526, "note": 73, "velocity": 80, "channel": 0}, {"type": "note_on", "time": 138, "note": 75, "velocity": 80, "channel": 0}, {"type": "note_off", "time": 454, "note": 75, "velocity": 80, "channel": 0}, {"type": "note_on", "time": 151, "note": 77, "velocity": 80, "channel": 0}, {"type": "note_off", "time": 506, "note": 77, "velocity": 80, "channel": 0}, {"type": "note_on", "time": 85, "note": 80, "velocity": 80, "channel": 0}, {"type": "note_off", "time": 375, "note": 80, "velocity": 80, "channel": 0}, {"type": "note_on", "time": 157, "note": 78, "velocity": 80, "channel": 0}, {"type": "note_off", "time": 480, "note": 78, "velocity": 80, "channel": 0}, {"type": "note_on", "time": 289, "note": 73, "velocity": 80, "channel": 0}, {"type": "note_off", "time": 467, "note": 73, "velocity": 80, "channel": 0}, {"type": "note_on", "time": 78, "note": 70, "velocity": 80, "channel": 0}, {"type": "note_off", "time": 454, "note": 70, "velocity": 80, "channel": 0}, {"type": "note_on", "time": 269, "note": 66, "velocity": 80, "channel": 0}, {"type": "note_off", "time": 394, "note": 66, "velocity": 80, "channel": 0}, {"type": "note_on", "time": 171, "note": 70, "velocity": 80, "channel": 0}, {"type": "note_off", "time": 454, "note": 70, "velocity": 80, "channel": 0}, {"type": "note_on", "time": 177, "note": 73, "velocity": 80, "channel": 0}, {"type": "note_off", "time": 467, "note": 73, "velocity": 80, "channel": 0}, {"type": "note_on", "time": 46, "note": 75, "velocity": 80, "channel": 0}, {"type": "note_off", "time": 559, "note": 75, "velocity": 80, "channel": 0}, {"type": "note_on", "time": 111, "note": 78, "velocity": 80, "channel": 0}, {"type": "note_off", "time": 368, "note": 78, "velocity": 80, "channel": 0}, {"type": "note_on", "time": 552, "note": 84, "velocity": 80, "channel": 0}, {"type": "note_off", "time": 460, "note": 84, "velocity": 80, "channel": 0}, {"type": "note_on", "time": 651, "note": 81, "velocity": 80, "channel": 0}, {"type": "note_off", "time": 487, "note": 81, "velocity": 80, "channel": 0}, {"type": "note_on", "time": 329, "note": 78, "velocity": 80, "channel": 0}, {"type": "note_off", "time": 487, "note": 78, "velocity": 80, "channel": 0}, {"type": "note_on", "time": 489, "note": 75, "velocity": 80, "channel": 0}, {"type": "note_off", "time": 394, "note": 75, "velocity": 80, "channel": 0}, {"type": "note_on", "time": 364, "note": 71, "velocity": 80, "channel": 0}, {"type": "note_off", "time": 703, "note": 71, "velocity": 80, "channel": 0}, {"type": "note_on", "time": 2832, "note": 79, "velocity": 80, "channel": 0}, {"type": "note_off", "time": 1194, "note": 79, "velocity": 80, "channel": 0}, {"type": "note_on", "time": 4066, "note": 82, "velocity": 80, "channel": 0}, {"type": "note_off", "time": 1145, "note": 82, "velocity": 80, "channel": 0}, {"type": "note_on", "time": 2318, "note": 79, "velocity": 80, "channel": 0}, {"type": "note_off", "time": 254, "note": 79, "velocity": 80, "channel": 0}, {"type": "note_on", "time": 46, "note": 77, "velocity": 80, "channel": 0}, {"type": "note_on", "time": 296, "note": 74, "velocity": 80, "channel": 0}, {"type": "note_off", "time": 0, "note": 77, "velocity": 80, "channel": 0}, {"type": "note_off", "time": 273, "note": 74, "velocity": 80, "channel": 0}, {"type": "note_on", "time": 27, "note": 73, "velocity": 80, "channel": 0}, {"type": "note_off", "time": 324, "note": 73, "velocity": 80, "channel": 0}, {"type": "note_on", "time": 624, "note": 69, "velocity": 80, "channel": 0}, {"type": "note_off", "time": 231, "note": 69, "velocity": 80, "channel": 0}, {"type": "note_on", "time": 101, "note": 70, "velocity": 80, "channel": 0}, {"type": "note_off", "time": 435, "note": 70, "velocity": 80, "channel": 0}, {"type": "note_on", "time": 18, "note": 72, "velocity": 80, "channel": 0}, {"type": "note_off", "time": 523, "note": 72, "velocity": 80, "channel": 0}, {"type": "note_on", "time": 180, "note": 67, "velocity": 80, "channel": 0}, {"type": "note_off", "time": 1721, "note": 67, "velocity": 80, "channel": 0}, {"type": "note_on", "time": 23, "note": 62, "velocity": 80, "channel": 0}, {"type": "note_off", "time": 319, "note": 62, "velocity": 80, "channel": 0}, {"type": "note_on", "time": 14, "note": 63, "velocity": 80, "channel": 0}, {"type": "note_off", "time": 278, "note": 63, "velocity": 80, "channel": 0}, {"type": "note_on", "time": 13, "note": 70, "velocity": 80, "channel": 0}, {"type": "note_off", "time": 245, "note": 70, "velocity": 80, "channel": 0}, {"type": "note_on", "time": 60, "note": 67, "velocity": 80, "channel": 0}, {"type": "note_off", "time": 282, "note": 67, "velocity": 80, "channel": 0}, {"type": "note_on", "time": 277, "note": 69, "velocity": 80, "channel": 0}, {"type": "note_off", "time": 259, "note": 69, "velocity": 80, "channel": 0}, {"type": "note_on", "time": 124, "note": 73, "velocity": 80, "channel": 0}, {"type": "note_off", "time": 208, "note": 73, "velocity": 80, "channel": 0}, {"type": "note_on", "time": 46, "note": 74, "velocity": 80, "channel": 0}, {"type": "note_off", "time": 411, "note": 74, "velocity": 80, "channel": 0}, {"type": "note_on", "time": 5356, "note": 74, "velocity": 80, "channel": 0}, {"type": "note_off", "time": 329, "note": 74, "velocity": 80, "channel": 0}, {"type": "note_on", "time": 36, "note": 76, "velocity": 80, "channel": 0}, {"type": "note_off", "time": 289, "note": 76, "velocity": 80, "channel": 0}, {"type": "note_on", "time": 42, "note": 77, "velocity": 80, "channel": 0}, {"type": "note_off", "time": 291, "note": 77, "velocity": 80, "channel": 0}, {"type": "note_on", "time": 27, "note": 76, "velocity": 80, "channel": 0}, {"type": "note_off", "time": 236, "note": 76, "velocity": 80, "channel": 0}, {"type": "note_on", "time": 40, "note": 75, "velocity": 80, "channel": 0}, {"type": "note_off", "time": 253, "note": 75, "velocity": 80, "channel": 0}, {"type": "note_on", "time": 85, "note": 74, "velocity": 80, "channel": 0}, {"type": "note_off", "time": 156, "note": 74, "velocity": 80, "channel": 0}, {"type": "note_on", "time": 41, "note": 73, "velocity": 80, "channel": 0}, {"type": "note_off", "time": 192, "note": 73, "velocity": 80, "channel": 0}, {"type": "note_on", "time": 54, "note": 72, "velocity": 80, "channel": 0}, {"type": "note_off", "time": 190, "note": 72, "velocity": 80, "channel": 0}, {"type": "note_on", "time": 46, "note": 71, "velocity": 80, "channel": 0}, {"type": "note_off", "time": 253, "note": 71, "velocity": 80, "channel": 0}, {"type": "note_on", "time": 16, "note": 67, "velocity": 80, "channel": 0}, {"type": "note_off", "time": 217, "note": 67, "velocity": 80, "channel": 0}, {"type": "note_on", "time": 19, "note": 70, "velocity": 80, "channel": 0}, {"type": "note_off", "time": 312, "note": 70, "velocity": 80, "channel": 0}, {"type": "note_on", "time": 98, "note": 67, "velocity": 80, "channel": 0}, {"type": "note_off", "time": 243, "note": 67, "velocity": 80, "channel": 0}, {"type": "note_on", "time": 32, "note": 68, "velocity": 80, "channel": 0}, {"type": "note_off", "time": 236, "note": 68, "velocity": 80, "channel": 0}, {"type": "note_on", "time": 55, "note": 72, "velocity": 80, "channel": 0}, {"type": "note_off", "time": 230, "note": 72, "velocity": 80, "channel": 0}, {"type": "note_on", "time": 42, "note": 68, "velocity": 80, "channel": 0}, {"type": "note_off", "time": 362, "note": 68, "velocity": 80, "channel": 0}, {"type": "note_on", "time": 39, "note": 67, "velocity": 80, "channel": 0}, {"type": "note_off", "time": 273, "note": 67, "velocity": 80, "channel": 0}, {"type": "note_on", "time": 59, "note": 66, "velocity": 80, "channel": 0}, {"type": "note_off", "time": 312, "note": 66, "velocity": 80, "channel": 0}, {"type": "note_on", "time": 44, "note": 69, "velocity": 80, "channel": 0}, {"type": "note_off", "time": 244, "note": 69, "velocity": 80, "channel": 0}, {"type": "note_on", "time": 22, "note": 65, "velocity": 80, "channel": 0}, {"type": "note_off", "time": 298, "note": 65, "velocity": 80, "channel": 0}, {"type": "note_on", "time": 27, "note": 64, "velocity": 80, "channel": 0}, {"type": "note_off", "time": 230, "note": 64, "velocity": 80, "channel": 0}, {"type": "note_on", "time": 49, "note": 63, "velocity": 80, "channel": 0}, {"type": "note_off", "time": 373, "note": 63, "velocity": 80, "channel": 0}, {"type": "note_on", "time": 63, "note": 61, "velocity": 80, "channel": 0}, {"type": "note_off", "time": 339, "note": 61, "velocity": 80, "channel": 0}, {"type": "note_on", "time": 18, "note": 62, "velocity": 80, "channel": 0}, {"type": "note_off", "time": 219, "note": 62, "velocity": 80, "channel": 0}, {"type": "note_on", "time": 24, "note": 65, "velocity": 80, "channel": 0}, {"type": "note_off", "time": 264, "note": 65, "velocity": 80, "channel": 0}, {"type": "note_on", "time": 4, "note": 64, "velocity": 80, "channel": 0}, {"type": "note_off", "time": 187, "note": 64, "velocity": 80, "channel": 0}, {"type": "note_on", "time": 42, "note": 62, "velocity": 80, "channel": 0}, {"type": "note_off", "time": 260, "note": 62, "velocity": 80, "channel": 0}, {"type": "note_on", "time": 47, "note": 63, "velocity": 80, "channel": 0}, {"type": "note_off", "time": 305, "note": 63, "velocity": 80, "channel": 0}, {"type": "note_on", "time": 15, "note": 61, "velocity": 80, "channel": 0}, {"type": "note_off", "time": 224, "note": 61, "velocity": 80, "channel": 0}, {"type": "note_on", "time": 52, "note": 60, "velocity": 80, "channel": 0}, {"type": "note_off", "time": 287, "note": 60, "velocity": 80, "channel": 0}, {"type": "note_on", "time": 19, "note": 58, "velocity": 80, "channel": 0}, {"type": "note_off", "time": 197, "note": 58, "velocity": 80, "channel": 0}, {"type": "note_on", "time": 55, "note": 56, "velocity": 80, "channel": 0}, {"type": "note_off", "time": 258, "note": 56, "velocity": 80, "channel": 0}, {"type": "note_on", "time": 52, "note": 58, "velocity": 80, "channel": 0}, {"type": "note_off", "time": 291, "note": 58, "velocity": 80, "channel": 0}, {"type": "note_on", "time": 76, "note": 60, "velocity": 80, "channel": 0}, {"type": "note_off", "time": 169, "note": 60, "velocity": 80, "channel": 0}, {"type": "note_on", "time": 33, "note": 63, "velocity": 80, "channel": 0}, {"type": "note_off", "time": 267, "note": 63, "velocity": 80, "channel": 0}, {"type": "note_on", "time": 35, "note": 68, "velocity": 80, "channel": 0}, {"type": "note_off", "time": 381, "note": 68, "velocity": 80, "channel": 0}, {"type": "note_on", "time": 118, "note": 65, "velocity": 80, "channel": 0}, {"type": "note_off", "time": 260, "note": 65, "velocity": 80, "channel": 0}, {"type": "note_on", "time": 55, "note": 67, "velocity": 80, "channel": 0}, {"type": "note_off", "time": 230, "note": 67, "velocity": 80, "channel": 0}, {"type": "note_on", "time": 65, "note": 70, "velocity": 80, "channel": 0}, {"type": "note_off", "time": 296, "note": 70, "velocity": 80, "channel": 0}, {"type": "note_on", "time": 36, "note": 66, "velocity": 80, "channel": 0}, {"type": "note_off", "time": 157, "note": 66, "velocity": 80, "channel": 0}, {"type": "note_on", "time": 29, "note": 63, "velocity": 80, "channel": 0}, {"type": "note_off", "time": 263, "note": 63, "velocity": 80, "channel": 0}, {"type": "note_on", "time": 59, "note": 58, "velocity": 80, "channel": 0}, {"type": "note_off", "time": 315, "note": 58, "velocity": 80, "channel": 0}, {"type": "note_on", "time": 62, "note": 62, "velocity": 80, "channel": 0}, {"type": "note_off", "time": 368, "note": 62, "velocity": 80, "channel": 0}, {"type": "note_on", "time": 39, "note": 58, "velocity": 80, "channel": 0}, {"type": "note_off", "time": 227, "note": 58, "velocity": 80, "channel": 0}, {"type": "note_on", "time": 283, "note": 55, "velocity": 80, "channel": 0}, {"type": "note_off", "time": 289, "note": 55, "velocity": 80, "channel": 0}, {"type": "note_on", "time": 131, "note": 60, "velocity": 80, "channel": 0}, {"type": "note_off", "time": 333, "note": 60, "velocity": 80, "channel": 0}, {"type": "note_on", "time": 55, "note": 63, "velocity": 80, "channel": 0}, {"type": "note_off", "time": 249, "note": 63, "velocity": 80, "channel": 0}, {"type": "note_on", "time": 64, "note": 67, "velocity": 80, "channel": 0}, {"type": "note_off", "time": 208, "note": 67, "velocity": 80, "channel": 0}, {"type": "note_on", "time": 101, "note": 70, "velocity": 80, "channel": 0}, {"type": "note_off", "time": 296, "note": 70, "velocity": 80, "channel": 0}, {"type": "note_on", "time": 102, "note": 67, "velocity": 80, "channel": 0}, {"type": "note_off", "time": 217, "note": 67, "velocity": 80, "channel": 0}, {"type": "note_on", "time": 49, "note": 65, "velocity": 80, "channel": 0}, {"type": "note_off", "time": 187, "note": 65, "velocity": 80, "channel": 0}, {"type": "note_on", "time": 18, "note": 63, "velocity": 80, "channel": 0}, {"type": "note_off", "time": 237, "note": 63, "velocity": 80, "channel": 0}, {"type": "note_on", "time": 22, "note": 62, "velocity": 80, "channel": 0}, {"type": "note_off", "time": 135, "note": 62, "velocity": 80, "channel": 0}, {"type": "note_on", "time": 47, "note": 60, "velocity": 80, "channel": 0}, {"type": "note_off", "time": 246, "note": 60, "velocity": 80, "channel": 0}, {"type": "note_on", "time": 51, "note": 59, "velocity": 80, "channel": 0}, {"type": "note_off", "time": 269, "note": 59, "velocity": 80, "channel": 0}, {"type": "note_on", "time": 86, "note": 62, "velocity": 80, "channel": 0}, {"type": "note_off", "time": 246, "note": 62, "velocity": 80, "channel": 0}, {"type": "note_on", "time": 46, "note": 64, "velocity": 80, "channel": 0}, {"type": "note_off", "time": 289, "note": 64, "velocity": 80, "channel": 0}, {"type": "note_on", "time": 69, "note": 69, "velocity": 80, "channel": 0}, {"type": "note_off", "time": 243, "note": 69, "velocity": 80, "channel": 0}, {"type": "note_on", "time": 39, "note": 67, "velocity": 80, "channel": 0}, {"type": "note_off", "time": 171, "note": 67, "velocity": 80, "channel": 0}, {"type": "note_on", "time": 39, "note": 66, "velocity": 80, "channel": 0}, {"type": "note_off", "time": 154, "note": 66, "velocity": 80, "channel": 0}, {"type": "note_on", "time": 65, "note": 67, "velocity": 80, "channel": 0}, {"type": "note_off", "time": 243, "note": 67, "velocity": 80, "channel": 0}, {"type": "note_on", "time": 49, "note": 69, "velocity": 80, "channel": 0}, {"type": "note_off", "time": 223, "note": 69, "velocity": 80, "channel": 0}, {"type": "note_on", "time": 55, "note": 71, "velocity": 80, "channel": 0}, {"type": "note_off", "time": 220, "note": 71, "velocity": 80, "channel": 0}, {"type": "note_on", "time": 32, "note": 73, "velocity": 80, "channel": 0}, {"type": "note_off", "time": 207, "note": 73, "velocity": 80, "channel": 0}, {"type": "note_on", "time": 75, "note": 79, "velocity": 80, "channel": 0}, {"type": "note_off", "time": 1444, "note": 79, "velocity": 80, "channel": 0}, {"type": "note_on", "time": 2538, "note": 76, "velocity": 80, "channel": 0}, {"type": "note_off", "time": 246, "note": 76, "velocity": 80, "channel": 0}, {"type": "note_on", "time": 32, "note": 75, "velocity": 80, "channel": 0}, {"type": "note_off", "time": 269, "note": 75, "velocity": 80, "channel": 0}, {"type": "note_on", "time": 19, "note": 76, "velocity": 80, "channel": 0}, {"type": "note_off", "time": 253, "note": 76, "velocity": 80, "channel": 0}, {"type": "note_on", "time": 39, "note": 75, "velocity": 80, "channel": 0}, {"type": "note_off", "time": 266, "note": 75, "velocity": 80, "channel": 0}, {"type": "note_on", "time": 72, "note": 74, "velocity": 80, "channel": 0}, {"type": "note_off", "time": 306, "note": 74, "velocity": 80, "channel": 0}, {"type": "note_on", "time": 39, "note": 73, "velocity": 80, "channel": 0}, {"type": "note_off", "time": 283, "note": 73, "velocity": 80, "channel": 0}, {"type": "note_on", "time": 46, "note": 72, "velocity": 80, "channel": 0}, {"type": "note_off", "time": 276, "note": 72, "velocity": 80, "channel": 0}, {"type": "note_on", "time": 39, "note": 71, "velocity": 80, "channel": 0}, {"type": "note_off", "time": 283, "note": 71, "velocity": 80, "channel": 0}, {"type": "note_on", "time": 49, "note": 70, "velocity": 80, "channel": 0}, {"type": "note_off", "time": 780, "note": 70, "velocity": 80, "channel": 0}, {"type": "note_on", "time": 35, "note": 67, "velocity": 80, "channel": 0}, {"type": "note_off", "time": 930, "note": 67, "velocity": 80, "channel": 0}, {"type": "note_on", "time": 2642, "note": 67, "velocity": 80, "channel": 0}, {"type": "note_off", "time": 361, "note": 67, "velocity": 80, "channel": 0}, {"type": "note_on", "time": 304, "note": 68, "velocity": 80, "channel": 0}, {"type": "note_off", "time": 151, "note": 68, "velocity": 80, "channel": 0}, {"type": "note_on", "time": 34, "note": 69, "velocity": 80, "channel": 0}, {"type": "note_off", "time": 430, "note": 69, "velocity": 80, "channel": 0}, {"type": "note_on", "time": 66, "note": 65, "velocity": 80, "channel": 0}, {"type": "note_off", "time": 388, "note": 65, "velocity": 80, "channel": 0}, {"type": "note_on", "time": 3373, "note": 65, "velocity": 80, "channel": 0}, {"type": "note_off", "time": 370, "note": 65, "velocity": 80, "channel": 0}, {"type": "note_on", "time": 55, "note": 70, "velocity": 80, "channel": 0}, {"type": "note_off", "time": 379, "note": 70, "velocity": 80, "channel": 0}, {"type": "note_on", "time": 37, "note": 68, "velocity": 80, "channel": 0}, {"type": "note_off", "time": 379, "note": 68, "velocity": 80, "channel": 0}, {"type": "note_on", "time": 60, "note": 65, "velocity": 80, "channel": 0}, {"type": "note_off", "time": 337, "note": 65, "velocity": 80, "channel": 0}, {"type": "note_on", "time": 65, "note": 63, "velocity": 80, "channel": 0}, {"type": "note_off", "time": 306, "note": 63, "velocity": 80, "channel": 0}, {"type": "note_on", "time": 49, "note": 65, "velocity": 80, "channel": 0}, {"type": "note_off", "time": 378, "note": 65, "velocity": 80, "channel": 0}, {"type": "note_on", "time": 42, "note": 61, "velocity": 80, "channel": 0}, {"type": "note_off", "time": 358, "note": 61, "velocity": 80, "channel": 0}, {"type": "note_on", "time": 134, "note": 63, "velocity": 80, "channel": 0}, {"type": "note_off", "time": 315, "note": 63, "velocity": 80, "channel": 0}, {"type": "note_on", "time": 118, "note": 58, "velocity": 80, "channel": 0}, {"type": "note_off", "time": 365, "note": 58, "velocity": 80, "channel": 0}, {"type": "note_on", "time": 55, "note": 61, "velocity": 80, "channel": 0}, {"type": "note_off", "time": 345, "note": 61, "velocity": 80, "channel": 0}, {"type": "note_on", "time": 72, "note": 56, "velocity": 80, "channel": 0}, {"type": "note_off", "time": 365, "note": 56, "velocity": 80, "channel": 0}, {"type": "note_on", "time": 46, "note": 58, "velocity": 80, "channel": 0}, {"type": "note_off", "time": 339, "note": 58, "velocity": 80, "channel": 0}, {"type": "note_on", "time": 72, "note": 53, "velocity": 80, "channel": 0}, {"type": "note_off", "time": 240, "note": 53, "velocity": 80, "channel": 0}, {"type": "note_on", "time": 94, "note": 56, "velocity": 80, "channel": 0}, {"type": "note_off", "time": 379, "note": 56, "velocity": 80, "channel": 0}, {"type": "note_on", "time": 120, "note": 51, "velocity": 80, "channel": 0}, {"type": "note_off", "time": 296, "note": 51, "velocity": 80, "channel": 0}, {"type": "note_on", "time": 74, "note": 53, "velocity": 80, "channel": 0}, {"type": "note_off", "time": 328, "note": 53, "velocity": 80, "channel": 0}, {"type": "note_on", "time": 148, "note": 49, "velocity": 80, "channel": 0}, {"type": "note_off", "time": 286, "note": 49, "velocity": 80, "channel": 0}, {"type": "note_on", "time": 60, "note": 51, "velocity": 80, "channel": 0}, {"type": "note_off", "time": 351, "note": 51, "velocity": 80, "channel": 0}, {"type": "note_on", "time": 120, "note": 46, "velocity": 80, "channel": 0}, {"type": "note_off", "time": 266, "note": 46, "velocity": 80, "channel": 0}, {"type": "note_on", "time": 118, "note": 46, "velocity": 80, "channel": 0}, {"type": "note_off", "time": 1224, "note": 46, "velocity": 80, "channel": 0}, {"type": "note_on", "time": 60, "note": 44, "velocity": 80, "channel": 0}, {"type": "note_off", "time": 1462, "note": 44, "velocity": 80, "channel": 0}, {"type": "note_on", "time": 3127, "note": 68, "velocity": 80, "channel": 0}, {"type": "note_off", "time": 245, "note": 68, "velocity": 80, "channel": 0}, {"type": "note_on", "time": 57, "note": 72, "velocity": 80, "channel": 0}, {"type": "note_off", "time": 893, "note": 72, "velocity": 80, "channel": 0}, {"type": "note_on", "time": 27, "note": 68, "velocity": 80, "channel": 0}, {"type": "note_off", "time": 231, "note": 68, "velocity": 80, "channel": 0}, {"type": "note_on", "time": 41, "note": 70, "velocity": 80, "channel": 0}, {"type": "note_off", "time": 597, "note": 70, "velocity": 80, "channel": 0}, {"type": "note_on", "time": 337, "note": 68, "velocity": 80, "channel": 0}, {"type": "note_off", "time": 324, "note": 68, "velocity": 80, "channel": 0}, {"type": "note_on", "time": 143, "note": 65, "velocity": 80, "channel": 0}, {"type": "note_off", "time": 504, "note": 65, "velocity": 80, "channel": 0}, {"type": "note_on", "time": 69, "note": 63, "velocity": 80, "channel": 0}, {"type": "note_off", "time": 555, "note": 63, "velocity": 80, "channel": 0}, {"type": "note_on", "time": 55, "note": 62, "velocity": 80, "channel": 0}, {"type": "note_off", "time": 601, "note": 62, "velocity": 80, "channel": 0}, {"type": "note_on", "time": 194, "note": 64, "velocity": 80, "channel": 0}, {"type": "note_off", "time": 523, "note": 64, "velocity": 80, "channel": 0}, {"type": "note_on", "time": 23, "note": 65, "velocity": 80, "channel": 0}, {"type": "note_off", "time": 509, "note": 65, "velocity": 80, "channel": 0}, {"type": "note_on", "time": 157, "note": 66, "velocity": 80, "channel": 0}, {"type": "note_off", "time": 328, "note": 66, "velocity": 80, "channel": 0}, {"type": "note_on", "time": 249, "note": 67, "velocity": 80, "channel": 0}, {"type": "note_off", "time": 791, "note": 67, "velocity": 80, "channel": 0}, {"type": "note_on", "time": 78, "note": 68, "velocity": 80, "channel": 0}, {"type": "note_off", "time": 342, "note": 68, "velocity": 80, "channel": 0}, {"type": "note_on", "time": 27, "note": 67, "velocity": 80, "channel": 0}, {"type": "note_off", "time": 703, "note": 67, "velocity": 80, "channel": 0}, {"type": "note_on", "time": 60, "note": 68, "velocity": 80, "channel": 0}, {"type": "note_off", "time": 361, "note": 68, "velocity": 80, "channel": 0}, {"type": "note_on", "time": 87, "note": 72, "velocity": 80, "channel": 0}, {"type": "note_off", "time": 1033, "note": 72, "velocity": 80, "channel": 0}, {"type": "note_on", "time": 272, "note": 69, "velocity": 80, "channel": 0}, {"type": "note_off", "time": 148, "note": 69, "velocity": 80, "channel": 0}, {"type": "note_on", "time": 129, "note": 71, "velocity": 80, "channel": 0}, {"type": "note_off", "time": 398, "note": 71, "velocity": 80, "channel": 0}, {"type": "note_on", "time": 60, "note": 70, "velocity": 80, "channel": 0}, {"type": "note_off", "time": 1254, "note": 70, "velocity": 80, "channel": 0}, {"type": "note_on", "time": 34, "note": 67, "velocity": 80, "channel": 0}, {"type": "note_off", "time": 921, "note": 67, "velocity": 80, "channel": 0}, {"type": "note_on", "time": 184, "note": 72, "velocity": 80, "channel": 0}, {"type": "note_off", "time": 730, "note": 72, "velocity": 80, "channel": 0}, {"type": "note_on", "time": 52, "note": 74, "velocity": 80, "channel": 0}, {"type": "note_off", "time": 1698, "note": 74, "velocity": 80, "channel": 0}, {"type": "note_on", "time": 2547, "note": 67, "velocity": 80, "channel": 0}, {"type": "note_off", "time": 473, "note": 67, "velocity": 80, "channel": 0}, {"type": "note_on", "time": 105, "note": 70, "velocity": 80, "channel": 0}, {"type": "note_off", "time": 605, "note": 70, "velocity": 80, "channel": 0}, {"type": "note_on", "time": 92, "note": 67, "velocity": 80, "channel": 0}, {"type": "note_off", "time": 394, "note": 67, "velocity": 80, "channel": 0}, {"type": "note_on", "time": 59, "note": 70, "velocity": 80, "channel": 0}, {"type": "note_off", "time": 227, "note": 70, "velocity": 80, "channel": 0}, {"type": "note_on", "time": 16, "note": 71, "velocity": 80, "channel": 0}, {"type": "note_off", "time": 546, "note": 71, "velocity": 80, "channel": 0}, {"type": "note_on", "time": 61, "note": 67, "velocity": 80, "channel": 0}, {"type": "note_off", "time": 411, "note": 67, "velocity": 80, "channel": 0}, {"type": "note_on", "time": 124, "note": 70, "velocity": 80, "channel": 0}, {"type": "note_off", "time": 1087, "note": 70, "velocity": 80, "channel": 0}, {"type": "note_on", "time": 55, "note": 67, "velocity": 80, "channel": 0}, {"type": "note_off", "time": 726, "note": 67, "velocity": 80, "channel": 0}, {"type": "note_on", "time": 615, "note": 75, "velocity": 80, "channel": 0}, {"type": "note_off", "time": 236, "note": 75, "velocity": 80, "channel": 0}, {"type": "note_on", "time": 22, "note": 77, "velocity": 80, "channel": 0}, {"type": "note_off", "time": 1397, "note": 77, "velocity": 80, "channel": 0}, {"type": "note_on", "time": 84, "note": 74, "velocity": 80, "channel": 0}, {"type": "note_off", "time": 434, "note": 74, "velocity": 80, "channel": 0}, {"type": "note_on", "time": 289, "note": 72, "velocity": 80, "channel": 0}, {"type": "note_off", "time": 414, "note": 72, "velocity": 80, "channel": 0}, {"type": "note_on", "time": 1487, "note": 70, "velocity": 80, "channel": 0}, {"type": "note_off", "time": 394, "note": 70, "velocity": 80, "channel": 0}, {"type": "note_on", "time": 1402, "note": 68, "velocity": 80, "channel": 0}, {"type": "note_off", "time": 315, "note": 68, "velocity": 80, "channel": 0}, {"type": "note_on", "time": 65, "note": 69, "velocity": 80, "channel": 0}, {"type": "note_off", "time": 724, "note": 69, "velocity": 80, "channel": 0}, {"type": "note_on", "time": 116, "note": 68, "velocity": 80, "channel": 0}, {"type": "note_off", "time": 1027, "note": 68, "velocity": 80, "channel": 0}, {"type": "note_on", "time": 245, "note": 65, "velocity": 80, "channel": 0}, {"type": "note_off", "time": 735, "note": 65, "velocity": 80, "channel": 0}, {"type": "note_on", "time": 64, "note": 64, "velocity": 80, "channel": 0}, {"type": "note_off", "time": 314, "note": 64, "velocity": 80, "channel": 0}, {"type": "note_on", "time": 78, "note": 63, "velocity": 80, "channel": 0}, {"type": "note_off", "time": 685, "note": 63, "velocity": 80, "channel": 0}, {"type": "note_on", "time": 231, "note": 61, "velocity": 80, "channel": 0}, {"type": "note_off", "time": 341, "note": 61, "velocity": 80, "channel": 0}, {"type": "note_on", "time": 62, "note": 65, "velocity": 80, "channel": 0}, {"type": "note_off", "time": 625, "note": 65, "velocity": 80, "channel": 0}, {"type": "note_on", "time": 146, "note": 71, "velocity": 80, "channel": 0}, {"type": "note_off", "time": 310, "note": 71, "velocity": 80, "channel": 0}, {"type": "note_on", "time": 41, "note": 65, "velocity": 80, "channel": 0}, {"type": "note_off", "time": 680, "note": 65, "velocity": 80, "channel": 0}, {"type": "note_on", "time": 69, "note": 71, "velocity": 80, "channel": 0}, {"type": "note_off", "time": 374, "note": 71, "velocity": 80, "channel": 0}, {"type": "note_on", "time": 208, "note": 66, "velocity": 80, "channel": 0}, {"type": "note_off", "time": 564, "note": 66, "velocity": 80, "channel": 0}, {"type": "note_on", "time": 101, "note": 71, "velocity": 80, "channel": 0}, {"type": "note_off", "time": 370, "note": 71, "velocity": 80, "channel": 0}, {"type": "note_on", "time": 78, "note": 66, "velocity": 80, "channel": 0}, {"type": "note_off", "time": 666, "note": 66, "velocity": 80, "channel": 0}, {"type": "note_on", "time": 185, "note": 71, "velocity": 80, "channel": 0}, {"type": "note_off", "time": 324, "note": 71, "velocity": 80, "channel": 0}, {"type": "note_on", "time": 194, "note": 67, "velocity": 80, "channel": 0}, {"type": "note_off", "time": 675, "note": 67, "velocity": 80, "channel": 0}, {"type": "note_on", "time": 78, "note": 71, "velocity": 80, "channel": 0}, {"type": "note_off", "time": 245, "note": 71, "velocity": 80, "channel": 0}, {"type": "note_on", "time": 97, "note": 67, "velocity": 80, "channel": 0}, {"type": "note_off", "time": 772, "note": 67, "velocity": 80, "channel": 0}, {"type": "note_on", "time": 120, "note": 71, "velocity": 80, "channel": 0}, {"type": "note_off", "time": 226, "note": 71, "velocity": 80, "channel": 0}, {"type": "note_on", "time": 226, "note": 68, "velocity": 80, "channel": 0}, {"type": "note_off", "time": 499, "note": 68, "velocity": 80, "channel": 0}, {"type": "note_on", "time": 1971, "note": 62, "velocity": 80, "channel": 0}, {"type": "note_off", "time": 638, "note": 62, "velocity": 80, "channel": 0}, {"type": "note_on", "time": 638, "note": 73, "velocity": 80, "channel": 0}, {"type": "note_off", "time": 259, "note": 73, "velocity": 80, "channel": 0}, {"type": "note_on", "time": 74, "note": 74, "velocity": 80, "channel": 0}, {"type": "note_off", "time": 564, "note": 74, "velocity": 80, "channel": 0}, {"type": "note_on", "time": 434, "note": 67, "velocity": 80, "channel": 0}, {"type": "note_off", "time": 658, "note": 67, "velocity": 80, "channel": 0}, {"type": "note_on", "time": 1204, "note": 78, "velocity": 80, "channel": 0}, {"type": "note_off", "time": 473, "note": 78, "velocity": 80, "channel": 0}, {"type": "note_on", "time": 1412, "note": 72, "velocity": 80, "channel": 0}, {"type": "note_off", "time": 231, "note": 72, "velocity": 80, "channel": 0}, {"type": "note_on", "time": 46, "note": 73, "velocity": 80, "channel": 0}, {"type": "note_off", "time": 518, "note": 73, "velocity": 80, "channel": 0}, {"type": "note_on", "time": 483, "note": 67, "velocity": 80, "channel": 0}, {"type": "note_off", "time": 579, "note": 67, "velocity": 80, "channel": 0}, {"type": "note_on", "time": 1323, "note": 77, "velocity": 80, "channel": 0}, {"type": "note_off", "time": 289, "note": 77, "velocity": 80, "channel": 0}, {"type": "note_on", "time": 78, "note": 79, "velocity": 80, "channel": 0}, {"type": "note_off", "time": 421, "note": 79, "velocity": 80, "channel": 0}, {"type": "note_on", "time": 952, "note": 72, "velocity": 80, "channel": 0}, {"type": "note_off", "time": 157, "note": 72, "velocity": 80, "channel": 0}, {"type": "note_on", "time": 46, "note": 74, "velocity": 80, "channel": 0}, {"type": "note_off", "time": 379, "note": 74, "velocity": 80, "channel": 0}, {"type": "note_on", "time": 4, "note": 72, "velocity": 80, "channel": 0}, {"type": "note_off", "time": 291, "note": 72, "velocity": 80, "channel": 0}, {"type": "note_on", "time": 277, "note": 67, "velocity": 80, "channel": 0}, {"type": "note_off", "time": 578, "note": 67, "velocity": 80, "channel": 0}, {"type": "note_on", "time": 1587, "note": 79, "velocity": 80, "channel": 0}, {"type": "note_off", "time": 823, "note": 79, "velocity": 80, "channel": 0}, {"type": "note_on", "time": 907, "note": 73, "velocity": 80, "channel": 0}, {"type": "note_off", "time": 254, "note": 73, "velocity": 80, "channel": 0}, {"type": "note_on", "time": 46, "note": 74, "velocity": 80, "channel": 0}, {"type": "note_off", "time": 273, "note": 74, "velocity": 80, "channel": 0}, {"type": "note_on", "time": 2559, "note": 72, "velocity": 80, "channel": 0}, {"type": "note_off", "time": 402, "note": 72, "velocity": 80, "channel": 0}, {"type": "note_on", "time": 115, "note": 74, "velocity": 80, "channel": 0}, {"type": "note_off", "time": 379, "note": 74, "velocity": 80, "channel": 0}, {"type": "note_on", "time": 231, "note": 77, "velocity": 80, "channel": 0}, {"type": "note_off", "time": 351, "note": 77, "velocity": 80, "channel": 0}, {"type": "note_on", "time": 944, "note": 70, "velocity": 80, "channel": 0}, {"type": "note_off", "time": 453, "note": 70, "velocity": 80, "channel": 0}, {"type": "note_on", "time": 712, "note": 82, "velocity": 80, "channel": 0}, {"type": "note_off", "time": 185, "note": 82, "velocity": 80, "channel": 0}, {"type": "note_on", "time": 37, "note": 83, "velocity": 80, "channel": 0}, {"type": "note_off", "time": 453, "note": 83, "velocity": 80, "channel": 0}, {"type": "note_on", "time": 759, "note": 70, "velocity": 80, "channel": 0}, {"type": "note_off", "time": 495, "note": 70, "velocity": 80, "channel": 0}, {"type": "note_on", "time": 682, "note": 73, "velocity": 80, "channel": 0}, {"type": "note_off", "time": 362, "note": 73, "velocity": 80, "channel": 0}, {"type": "note_on", "time": 875, "note": 70, "velocity": 80, "channel": 0}, {"type": "note_off", "time": 408, "note": 70, "velocity": 80, "channel": 0}, {"type": "note_on", "time": 243, "note": 77, "velocity": 80, "channel": 0}, {"type": "note_off", "time": 480, "note": 77, "velocity": 80, "channel": 0}, {"type": "note_on", "time": 539, "note": 80, "velocity": 80, "channel": 0}, {"type": "note_off", "time": 393, "note": 80, "velocity": 80, "channel": 0}, {"type": "note_on", "time": 2309, "note": 79, "velocity": 80, "channel": 0}, {"type": "note_off", "time": 240, "note": 79, "velocity": 80, "channel": 0}, {"type": "note_on", "time": 64, "note": 80, "velocity": 80, "channel": 0}, {"type": "note_off", "time": 564, "note": 80, "velocity": 80, "channel": 0}, {"type": "note_on", "time": 73, "note": 79, "velocity": 80, "channel": 0}, {"type": "note_off", "time": 638, "note": 79, "velocity": 80, "channel": 0}, {"type": "note_on", "time": 381, "note": 77, "velocity": 80, "channel": 0}, {"type": "note_off", "time": 1112, "note": 77, "velocity": 80, "channel": 0}, {"type": "note_on", "time": 210, "note": 75, "velocity": 80, "channel": 0}, {"type": "note_off", "time": 559, "note": 75, "velocity": 80, "channel": 0}, {"type": "note_on", "time": 72, "note": 74, "velocity": 80, "channel": 0}, {"type": "note_off", "time": 388, "note": 74, "velocity": 80, "channel": 0}, {"type": "note_on", "time": 98, "note": 73, "velocity": 80, "channel": 0}, {"type": "note_off", "time": 447, "note": 73, "velocity": 80, "channel": 0}, {"type": "note_on", "time": 131, "note": 72, "velocity": 80, "channel": 0}, {"type": "note_off", "time": 638, "note": 72, "velocity": 80, "channel": 0}, {"type": "note_on", "time": 59, "note": 73, "velocity": 80, "channel": 0}, {"type": "note_off", "time": 473, "note": 73, "velocity": 80, "channel": 0}, {"type": "note_on", "time": 184, "note": 74, "velocity": 80, "channel": 0}, {"type": "note_off", "time": 506, "note": 74, "velocity": 80, "channel": 0}, {"type": "note_on", "time": 149, "note": 79, "velocity": 80, "channel": 0}, {"type": "note_off", "time": 328, "note": 79, "velocity": 80, "channel": 0}, {"type": "note_on", "time": 64, "note": 76, "velocity": 80, "channel": 0}, {"type": "note_off", "time": 259, "note": 76, "velocity": 80, "channel": 0}, {"type": "note_on", "time": 46, "note": 75, "velocity": 80, "channel": 0}, {"type": "note_off", "time": 282, "note": 75, "velocity": 80, "channel": 0}, {"type": "note_on", "time": 41, "note": 74, "velocity": 80, "channel": 0}, {"type": "note_off", "time": 143, "note": 74, "velocity": 80, "channel": 0}, {"type": "note_on", "time": 3230, "note": 76, "velocity": 80, "channel": 0}, {"type": "note_off", "time": 472, "note": 76, "velocity": 80, "channel": 0}, {"type": "note_on", "time": 83, "note": 75, "velocity": 80, "channel": 0}, {"type": "note_off", "time": 393, "note": 75, "velocity": 80, "channel": 0}, {"type": "note_on", "time": 124, "note": 74, "velocity": 80, "channel": 0}, {"type": "note_off", "time": 462, "note": 74, "velocity": 80, "channel": 0}, {"type": "note_on", "time": 310, "note": 75, "velocity": 80, "channel": 0}, {"type": "note_off", "time": 351, "note": 75, "velocity": 80, "channel": 0}, {"type": "note_on", "time": 27, "note": 76, "velocity": 80, "channel": 0}, {"type": "note_off", "time": 634, "note": 76, "velocity": 80, "channel": 0}, {"type": "note_on", "time": 83, "note": 81, "velocity": 80, "channel": 0}, {"type": "note_off", "time": 277, "note": 81, "velocity": 80, "channel": 0}, {"type": "note_on", "time": 27, "note": 79, "velocity": 80, "channel": 0}, {"type": "note_off", "time": 259, "note": 79, "velocity": 80, "channel": 0}, {"type": "note_on", "time": 199, "note": 75, "velocity": 80, "channel": 0}, {"type": "note_off", "time": 648, "note": 75, "velocity": 80, "channel": 0}, {"type": "note_on", "time": 1893, "note": 77, "velocity": 80, "channel": 0}, {"type": "note_off", "time": 520, "note": 77, "velocity": 80, "channel": 0}, {"type": "note_on", "time": 55, "note": 76, "velocity": 80, "channel": 0}, {"type": "note_off", "time": 572, "note": 76, "velocity": 80, "channel": 0}, {"type": "note_on", "time": 49, "note": 75, "velocity": 80, "channel": 0}, {"type": "note_off", "time": 500, "note": 75, "velocity": 80, "channel": 0}, {"type": "note_on", "time": 111, "note": 71, "velocity": 80, "channel": 0}, {"type": "note_off", "time": 562, "note": 71, "velocity": 80, "channel": 0}, {"type": "note_on", "time": 92, "note": 70, "velocity": 80, "channel": 0}, {"type": "note_off", "time": 516, "note": 70, "velocity": 80, "channel": 0}, {"type": "note_on", "time": 46, "note": 69, "velocity": 80, "channel": 0}, {"type": "note_off", "time": 592, "note": 69, "velocity": 80, "channel": 0}, {"type": "note_on", "time": 104, "note": 70, "velocity": 80, "channel": 0}, {"type": "note_off", "time": 569, "note": 70, "velocity": 80, "channel": 0}, {"type": "note_on", "time": 134, "note": 71, "velocity": 80, "channel": 0}, {"type": "note_off", "time": 407, "note": 71, "velocity": 80, "channel": 0}, {"type": "note_on", "time": 157, "note": 76, "velocity": 80, "channel": 0}, {"type": "note_off", "time": 634, "note": 76, "velocity": 80, "channel": 0}, {"type": "note_on", "time": 64, "note": 71, "velocity": 80, "channel": 0}, {"type": "note_off", "time": 472, "note": 71, "velocity": 80, "channel": 0}, {"type": "note_on", "time": 688, "note": 65, "velocity": 80, "channel": 0}, {"type": "note_off", "time": 342, "note": 65, "velocity": 80, "channel": 0}, {"type": "note_on", "time": 184, "note": 70, "velocity": 80, "channel": 0}, {"type": "note_off", "time": 638, "note": 70, "velocity": 80, "channel": 0}, {"type": "note_on", "time": 217, "note": 65, "velocity": 80, "channel": 0}, {"type": "note_off", "time": 408, "note": 65, "velocity": 80, "channel": 0}, {"type": "note_on", "time": 72, "note": 69, "velocity": 80, "channel": 0}, {"type": "note_off", "time": 664, "note": 69, "velocity": 80, "channel": 0}, {"type": "note_on", "time": 105, "note": 63, "velocity": 80, "channel": 0}, {"type": "note_off", "time": 302, "note": 63, "velocity": 80, "channel": 0}, {"type": "note_on", "time": 223, "note": 68, "velocity": 80, "channel": 0}, {"type": "note_off", "time": 506, "note": 68, "velocity": 80, "channel": 0}, {"type": "note_on", "time": 59, "note": 67, "velocity": 80, "channel": 0}, {"type": "note_off", "time": 493, "note": 67, "velocity": 80, "channel": 0}, {"type": "note_on", "time": 184, "note": 74, "velocity": 80, "channel": 0}, {"type": "note_off", "time": 434, "note": 74, "velocity": 80, "channel": 0}, {"type": "note_on", "time": 302, "note": 69, "velocity": 80, "channel": 0}, {"type": "note_off", "time": 526, "note": 69, "velocity": 80, "channel": 0}, {"type": "note_on", "time": 1902, "note": 66, "velocity": 80, "channel": 0}, {"type": "note_off", "time": 526, "note": 66, "velocity": 80, "channel": 0}, {"type": "note_on", "time": 92, "note": 67, "velocity": 80, "channel": 0}, {"type": "note_off", "time": 467, "note": 67, "velocity": 80, "channel": 0}, {"type": "note_on", "time": 72, "note": 68, "velocity": 80, "channel": 0}, {"type": "note_off", "time": 506, "note": 68, "velocity": 80, "channel": 0}, {"type": "note_on", "time": 72, "note": 61, "velocity": 80, "channel": 0}, {"type": "note_off", "time": 427, "note": 61, "velocity": 80, "channel": 0}, {"type": "note_on", "time": 309, "note": 68, "velocity": 80, "channel": 0}, {"type": "note_off", "time": 427, "note": 68, "velocity": 80, "channel": 0}, {"type": "note_on", "time": 1408, "note": 64, "velocity": 80, "channel": 0}, {"type": "note_off", "time": 539, "note": 64, "velocity": 80, "channel": 0}, {"type": "note_on", "time": 618, "note": 64, "velocity": 80, "channel": 0}, {"type": "note_off", "time": 533, "note": 64, "velocity": 80, "channel": 0}, {"type": "note_on", "time": 151, "note": 64, "velocity": 80, "channel": 0}, {"type": "note_off", "time": 526, "note": 64, "velocity": 80, "channel": 0}, {"type": "note_on", "time": 967, "note": 70, "velocity": 80, "channel": 0}, {"type": "note_off", "time": 243, "note": 70, "velocity": 80, "channel": 0}, {"type": "note_on", "time": 65, "note": 64, "velocity": 80, "channel": 0}, {"type": "note_off", "time": 1441, "note": 64, "velocity": 80, "channel": 0}, {"type": "note_on", "time": 138, "note": 64, "velocity": 80, "channel": 0}, {"type": "note_off", "time": 658, "note": 64, "velocity": 80, "channel": 0}, {"type": "note_on", "time": 552, "note": 64, "velocity": 80, "channel": 0}, {"type": "note_off", "time": 684, "note": 64, "velocity": 80, "channel": 0}, {"type": "note_on", "time": 539, "note": 63, "velocity": 80, "channel": 0}, {"type": "note_off", "time": 618, "note": 63, "velocity": 80, "channel": 0}, {"type": "note_on", "time": 19, "note": 66, "velocity": 80, "channel": 0}, {"type": "note_off", "time": 441, "note": 66, "velocity": 80, "channel": 0}, {"type": "note_on", "time": 13, "note": 70, "velocity": 80, "channel": 0}, {"type": "note_off", "time": 579, "note": 70, "velocity": 80, "channel": 0}, {"type": "note_on", "time": 454, "note": 66, "velocity": 80, "channel": 0}, {"type": "note_off", "time": 276, "note": 66, "velocity": 80, "channel": 0}, {"type": "note_on", "time": 52, "note": 68, "velocity": 80, "channel": 0}, {"type": "note_off", "time": 467, "note": 68, "velocity": 80, "channel": 0}, {"type": "note_on", "time": 210, "note": 70, "velocity": 80, "channel": 0}, {"type": "note_off", "time": 388, "note": 70, "velocity": 80, "channel": 0}, {"type": "note_on", "time": 19, "note": 72, "velocity": 80, "channel": 0}, {"type": "note_off", "time": 691, "note": 72, "velocity": 80, "channel": 0}, {"type": "note_on", "time": 131, "note": 75, "velocity": 80, "channel": 0}, {"type": "note_off", "time": 342, "note": 75, "velocity": 80, "channel": 0}, {"type": "note_on", "time": 92, "note": 80, "velocity": 80, "channel": 0}, {"type": "note_off", "time": 730, "note": 80, "velocity": 80, "channel": 0}, {"type": "note_on", "time": 1935, "note": 79, "velocity": 80, "channel": 0}, {"type": "note_off", "time": 473, "note": 79, "velocity": 80, "channel": 0}, {"type": "note_on", "time": 118, "note": 78, "velocity": 80, "channel": 0}, {"type": "note_off", "time": 283, "note": 78, "velocity": 80, "channel": 0}, {"type": "note_on", "time": 190, "note": 77, "velocity": 80, "channel": 0}, {"type": "note_off", "time": 526, "note": 77, "velocity": 80, "channel": 0}, {"type": "note_on", "time": 230, "note": 74, "velocity": 80, "channel": 0}, {"type": "note_off", "time": 493, "note": 74, "velocity": 80, "channel": 0}, {"type": "note_on", "time": 144, "note": 70, "velocity": 80, "channel": 0}, {"type": "note_off", "time": 645, "note": 70, "velocity": 80, "channel": 0}, {"type": "note_on", "time": 174, "note": 65, "velocity": 80, "channel": 0}, {"type": "note_off", "time": 296, "note": 65, "velocity": 80, "channel": 0}, {"type": "note_on", "time": 245, "note": 69, "velocity": 80, "channel": 0}, {"type": "note_off", "time": 546, "note": 69, "velocity": 80, "channel": 0}, {"type": "note_on", "time": 92, "note": 68, "velocity": 80, "channel": 0}, {"type": "note_off", "time": 587, "note": 68, "velocity": 80, "channel": 0}, {"type": "note_on", "time": 55, "note": 71, "velocity": 80, "channel": 0}, {"type": "note_off", "time": 532, "note": 71, "velocity": 80, "channel": 0}, {"type": "note_on", "time": 43, "note": 76, "velocity": 80, "channel": 0}, {"type": "note_off", "time": 458, "note": 76, "velocity": 80, "channel": 0}, {"type": "note_on", "time": 325, "note": 69, "velocity": 80, "channel": 0}, {"type": "note_off", "time": 421, "note": 69, "velocity": 80, "channel": 0}, {"type": "note_on", "time": 65, "note": 66, "velocity": 80, "channel": 0}, {"type": "note_off", "time": 493, "note": 66, "velocity": 80, "channel": 0}, {"type": "note_on", "time": 52, "note": 62, "velocity": 80, "channel": 0}, {"type": "note_off", "time": 599, "note": 62, "velocity": 80, "channel": 0}, {"type": "note_on", "time": 85, "note": 69, "velocity": 80, "channel": 0}, {"type": "note_off", "time": 526, "note": 69, "velocity": 80, "channel": 0}, {"type": "note_on", "time": 26, "note": 68, "velocity": 80, "channel": 0}, {"type": "note_off", "time": 678, "note": 68, "velocity": 80, "channel": 0}, {"type": "note_on", "time": 118, "note": 66, "velocity": 80, "channel": 0}, {"type": "note_off", "time": 638, "note": 66, "velocity": 80, "channel": 0}, {"type": "note_on", "time": 53, "note": 67, "velocity": 80, "channel": 0}, {"type": "note_off", "time": 481, "note": 67, "velocity": 80, "channel": 0}, {"type": "note_on", "time": 60, "note": 65, "velocity": 80, "channel": 0}, {"type": "note_off", "time": 513, "note": 65, "velocity": 80, "channel": 0}, {"type": "note_on", "time": 55, "note": 62, "velocity": 80, "channel": 0}, {"type": "note_off", "time": 610, "note": 62, "velocity": 80, "channel": 0}, {"type": "note_on", "time": 283, "note": 55, "velocity": 80, "channel": 0}, {"type": "note_off", "time": 246, "note": 55, "velocity": 80, "channel": 0}, {"type": "note_on", "time": 39, "note": 60, "velocity": 80, "channel": 0}, {"type": "note_off", "time": 689, "note": 60, "velocity": 80, "channel": 0}, {"type": "note_on", "time": 1370, "note": 63, "velocity": 80, "channel": 0}, {"type": "note_off", "time": 550, "note": 63, "velocity": 80, "channel": 0}, {"type": "note_on", "time": 60, "note": 66, "velocity": 80, "channel": 0}, {"type": "note_off", "time": 398, "note": 66, "velocity": 80, "channel": 0}, {"type": "note_on", "time": 162, "note": 69, "velocity": 80, "channel": 0}, {"type": "note_off", "time": 393, "note": 69, "velocity": 80, "channel": 0}, {"type": "note_on", "time": 259, "note": 73, "velocity": 80, "channel": 0}, {"type": "note_off", "time": 448, "note": 73, "velocity": 80, "channel": 0}, {"type": "note_on", "time": 291, "note": 60, "velocity": 80, "channel": 0}, {"type": "note_off", "time": 291, "note": 60, "velocity": 80, "channel": 0}, {"type": "note_on", "time": 32, "note": 63, "velocity": 80, "channel": 0}, {"type": "note_off", "time": 388, "note": 63, "velocity": 80, "channel": 0}, {"type": "note_on", "time": 40, "note": 66, "velocity": 80, "channel": 0}, {"type": "note_off", "time": 212, "note": 66, "velocity": 80, "channel": 0}, {"type": "note_on", "time": 24, "note": 69, "velocity": 80, "channel": 0}, {"type": "note_off", "time": 286, "note": 69, "velocity": 80, "channel": 0}, {"type": "note_on", "time": 75, "note": 71, "velocity": 80, "channel": 0}, {"type": "note_off", "time": 269, "note": 71, "velocity": 80, "channel": 0}, {"type": "note_on", "time": 306, "note": 68, "velocity": 80, "channel": 0}, {"type": "note_off", "time": 552, "note": 68, "velocity": 80, "channel": 0}, {"type": "note_on", "time": 29, "note": 69, "velocity": 80, "channel": 0}, {"type": "note_off", "time": 388, "note": 69, "velocity": 80, "channel": 0}, {"type": "note_on", "time": 36, "note": 65, "velocity": 80, "channel": 0}, {"type": "note_off", "time": 371, "note": 65, "velocity": 80, "channel": 0}, {"type": "note_on", "time": 36, "note": 63, "velocity": 80, "channel": 0}, {"type": "note_off", "time": 329, "note": 63, "velocity": 80, "channel": 0}, {"type": "note_on", "time": 62, "note": 58, "velocity": 80, "channel": 0}, {"type": "note_off", "time": 312, "note": 58, "velocity": 80, "channel": 0}, {"type": "note_on", "time": 284, "note": 65, "velocity": 80, "channel": 0}, {"type": "note_off", "time": 569, "note": 65, "velocity": 80, "channel": 0}, {"type": "note_on", "time": 78, "note": 62, "velocity": 80, "channel": 0}, {"type": "note_off", "time": 513, "note": 62, "velocity": 80, "channel": 0}, {"type": "note_on", "time": 103, "note": 58, "velocity": 80, "channel": 0}, {"type": "note_off", "time": 638, "note": 58, "velocity": 80, "channel": 0}, {"type": "note_on", "time": 82, "note": 53, "velocity": 80, "channel": 0}, {"type": "note_off", "time": 240, "note": 53, "velocity": 80, "channel": 0}, {"type": "note_on", "time": 49, "note": 56, "velocity": 80, "channel": 0}, {"type": "note_off", "time": 710, "note": 56, "velocity": 80, "channel": 0}, {"type": "note_on", "time": 86, "note": 53, "velocity": 80, "channel": 0}, {"type": "note_off", "time": 509, "note": 53, "velocity": 80, "channel": 0}, {"type": "note_on", "time": 319, "note": 44, "velocity": 80, "channel": 0}, {"type": "note_off", "time": 689, "note": 44, "velocity": 80, "channel": 0}, {"type": "note_on", "time": 1143, "note": 70, "velocity": 80, "channel": 0}, {"type": "note_off", "time": 371, "note": 70, "velocity": 80, "channel": 0}, {"type": "note_on", "time": 59, "note": 68, "velocity": 80, "channel": 0}, {"type": "note_off", "time": 223, "note": 68, "velocity": 80, "channel": 0}, {"type": "note_on", "time": 46, "note": 72, "velocity": 80, "channel": 0}, {"type": "note_off", "time": 431, "note": 72, "velocity": 80, "channel": 0}, {"type": "note_on", "time": 26, "note": 69, "velocity": 80, "channel": 0}, {"type": "note_off", "time": 174, "note": 69, "velocity": 80, "channel": 0}, {"type": "note_on", "time": 64, "note": 63, "velocity": 80, "channel": 0}, {"type": "note_off", "time": 181, "note": 63, "velocity": 80, "channel": 0}, {"type": "note_on", "time": 126, "note": 49, "velocity": 80, "channel": 0}, {"type": "note_off", "time": 276, "note": 49, "velocity": 80, "channel": 0}, {"type": "note_on", "time": 42, "note": 50, "velocity": 80, "channel": 0}, {"type": "note_off", "time": 457, "note": 50, "velocity": 80, "channel": 0}, {"type": "note_on", "time": 26, "note": 58, "velocity": 80, "channel": 0}, {"type": "note_off", "time": 411, "note": 58, "velocity": 80, "channel": 0}, {"type": "note_on", "time": 87, "note": 53, "velocity": 80, "channel": 0}, {"type": "note_off", "time": 842, "note": 53, "velocity": 80, "channel": 0}, {"type": "note_on", "time": 1152, "note": 72, "velocity": 80, "channel": 0}, {"type": "note_off", "time": 407, "note": 72, "velocity": 80, "channel": 0}, {"type": "note_on", "time": 27, "note": 70, "velocity": 80, "channel": 0}, {"type": "note_off", "time": 348, "note": 70, "velocity": 80, "channel": 0}, {"type": "note_on", "time": 29, "note": 68, "velocity": 80, "channel": 0}, {"type": "note_off", "time": 243, "note": 68, "velocity": 80, "channel": 0}, {"type": "note_on", "time": 49, "note": 66, "velocity": 80, "channel": 0}, {"type": "note_off", "time": 450, "note": 66, "velocity": 80, "channel": 0}, {"type": "note_on", "time": 30, "note": 63, "velocity": 80, "channel": 0}, {"type": "note_off", "time": 796, "note": 63, "velocity": 80, "channel": 0}, {"type": "note_on", "time": 87, "note": 60, "velocity": 80, "channel": 0}, {"type": "note_off", "time": 555, "note": 60, "velocity": 80, "channel": 0}, {"type": "note_on", "time": 92, "note": 56, "velocity": 80, "channel": 0}, {"type": "note_off", "time": 481, "note": 56, "velocity": 80, "channel": 0}, {"type": "note_on", "time": 199, "note": 58, "velocity": 80, "channel": 0}, {"type": "note_off", "time": 388, "note": 58, "velocity": 80, "channel": 0}, {"type": "note_on", "time": 92, "note": 60, "velocity": 80, "channel": 0}, {"type": "note_off", "time": 462, "note": 60, "velocity": 80, "channel": 0}, {"type": "note_on", "time": 166, "note": 63, "velocity": 80, "channel": 0}, {"type": "note_off", "time": 425, "note": 63, "velocity": 80, "channel": 0}, {"type": "note_on", "time": 92, "note": 68, "velocity": 80, "channel": 0}, {"type": "note_off", "time": 523, "note": 68, "velocity": 80, "channel": 0}, {"type": "note_on", "time": 138, "note": 71, "velocity": 80, "channel": 0}, {"type": "note_off", "time": 347, "note": 71, "velocity": 80, "channel": 0}, {"type": "note_on", "time": 263, "note": 67, "velocity": 80, "channel": 0}, {"type": "note_off", "time": 527, "note": 67, "velocity": 80, "channel": 0}, {"type": "note_on", "time": 231, "note": 62, "velocity": 80, "channel": 0}, {"type": "note_off", "time": 448, "note": 62, "velocity": 80, "channel": 0}, {"type": "note_on", "time": 249, "note": 55, "velocity": 80, "channel": 0}, {"type": "note_off", "time": 842, "note": 55, "velocity": 80, "channel": 0}, {"type": "note_on", "time": 1072, "note": 62, "velocity": 80, "channel": 0}, {"type": "note_off", "time": 513, "note": 62, "velocity": 80, "channel": 0}, {"type": "note_on", "time": 0, "note": 65, "velocity": 80, "channel": 0}, {"type": "note_off", "time": 260, "note": 65, "velocity": 80, "channel": 0}, {"type": "note_on", "time": 78, "note": 67, "velocity": 80, "channel": 0}, {"type": "note_off", "time": 404, "note": 67, "velocity": 80, "channel": 0}, {"type": "note_on", "time": 29, "note": 69, "velocity": 80, "channel": 0}, {"type": "note_off", "time": 335, "note": 69, "velocity": 80, "channel": 0}, {"type": "note_on", "time": 193, "note": 70, "velocity": 80, "channel": 0}, {"type": "note_off", "time": 601, "note": 70, "velocity": 80, "channel": 0}, {"type": "note_on", "time": 50, "note": 69, "velocity": 80, "channel": 0}, {"type": "note_off", "time": 421, "note": 69, "velocity": 80, "channel": 0}, {"type": "note_on", "time": 115, "note": 67, "velocity": 80, "channel": 0}, {"type": "note_off", "time": 564, "note": 67, "velocity": 80, "channel": 0}, {"type": "note_on", "time": 64, "note": 65, "velocity": 80, "channel": 0}, {"type": "note_off", "time": 379, "note": 65, "velocity": 80, "channel": 0}, {"type": "note_on", "time": 328, "note": 67, "velocity": 80, "channel": 0}, {"type": "note_off", "time": 453, "note": 67, "velocity": 80, "channel": 0}, {"type": "note_on", "time": 92, "note": 69, "velocity": 80, "channel": 0}, {"type": "note_off", "time": 430, "note": 69, "velocity": 80, "channel": 0}, {"type": "note_on", "time": 185, "note": 62, "velocity": 80, "channel": 0}, {"type": "note_off", "time": 513, "note": 62, "velocity": 80, "channel": 0}, {"type": "note_on", "time": 120, "note": 69, "velocity": 80, "channel": 0}, {"type": "note_off", "time": 347, "note": 69, "velocity": 80, "channel": 0}, {"type": "note_on", "time": 286, "note": 67, "velocity": 80, "channel": 0}, {"type": "note_off", "time": 236, "note": 67, "velocity": 80, "channel": 0}, {"type": "note_on", "time": 27, "note": 65, "velocity": 80, "channel": 0}, {"type": "note_off", "time": 351, "note": 65, "velocity": 80, "channel": 0}, {"type": "note_on", "time": 78, "note": 62, "velocity": 80, "channel": 0}, {"type": "note_off", "time": 388, "note": 62, "velocity": 80, "channel": 0}, {"type": "note_on", "time": 185, "note": 67, "velocity": 80, "channel": 0}, {"type": "note_off", "time": 661, "note": 67, "velocity": 80, "channel": 0}, {"type": "note_on", "time": 190, "note": 62, "velocity": 80, "channel": 0}, {"type": "note_off", "time": 381, "note": 62, "velocity": 80, "channel": 0}, {"type": "note_on", "time": 121, "note": 65, "velocity": 80, "channel": 0}, {"type": "note_off", "time": 447, "note": 65, "velocity": 80, "channel": 0}, {"type": "note_on", "time": 57, "note": 67, "velocity": 80, "channel": 0}, {"type": "note_off", "time": 499, "note": 67, "velocity": 80, "channel": 0}, {"type": "note_on", "time": 143, "note": 70, "velocity": 80, "channel": 0}, {"type": "note_off", "time": 388, "note": 70, "velocity": 80, "channel": 0}, {"type": "note_on", "time": 310, "note": 71, "velocity": 80, "channel": 0}, {"type": "note_off", "time": 754, "note": 71, "velocity": 80, "channel": 0}, {"type": "note_on", "time": 50, "note": 73, "velocity": 80, "channel": 0}, {"type": "note_off", "time": 393, "note": 73, "velocity": 80, "channel": 0}, {"type": "note_on", "time": 171, "note": 70, "velocity": 80, "channel": 0}, {"type": "note_off", "time": 310, "note": 70, "velocity": 80, "channel": 0}, {"type": "note_on", "time": 198, "note": 72, "velocity": 80, "channel": 0}, {"type": "note_off", "time": 2211, "note": 72, "velocity": 80, "channel": 0}, {"type": "note_on", "time": 1991, "note": 69, "velocity": 80, "channel": 0}, {"type": "note_off", "time": 231, "note": 69, "velocity": 80, "channel": 0}, {"type": "note_on", "time": 83, "note": 70, "velocity": 80, "channel": 0}, {"type": "note_off", "time": 310, "note": 70, "velocity": 80, "channel": 0}, {"type": "note_on", "time": 106, "note": 70, "velocity": 80, "channel": 0}, {"type": "note_off", "time": 398, "note": 70, "velocity": 80, "channel": 0}, {"type": "note_on", "time": 194, "note": 71, "velocity": 80, "channel": 0}, {"type": "note_off", "time": 328, "note": 71, "velocity": 80, "channel": 0}, {"type": "note_on", "time": 37, "note": 72, "velocity": 80, "channel": 0}, {"type": "note_off", "time": 319, "note": 72, "velocity": 80, "channel": 0}, {"type": "note_on", "time": 32, "note": 70, "velocity": 80, "channel": 0}, {"type": "note_off", "time": 486, "note": 70, "velocity": 80, "channel": 0}, {"type": "note_on", "time": 46, "note": 72, "velocity": 80, "channel": 0}, {"type": "note_off", "time": 1439, "note": 72, "velocity": 80, "channel": 0}, {"type": "note_on", "time": 1541, "note": 69, "velocity": 80, "channel": 0}, {"type": "note_off", "time": 226, "note": 69, "velocity": 80, "channel": 0}, {"type": "note_on", "time": 106, "note": 70, "velocity": 80, "channel": 0}, {"type": "note_off", "time": 240, "note": 70, "velocity": 80, "channel": 0}, {"type": "note_on", "time": 129, "note": 70, "velocity": 80, "channel": 0}, {"type": "note_off", "time": 254, "note": 70, "velocity": 80, "channel": 0}, {"type": "note_on", "time": 259, "note": 70, "velocity": 80, "channel": 0}, {"type": "note_off", "time": 226, "note": 70, "velocity": 80, "channel": 0}, {"type": "note_on", "time": 208, "note": 69, "velocity": 80, "channel": 0}, {"type": "note_off", "time": 833, "note": 69, "velocity": 80, "channel": 0}, {"type": "note_on", "time": 199, "note": 69, "velocity": 80, "channel": 0}, {"type": "note_off", "time": 453, "note": 69, "velocity": 80, "channel": 0}, {"type": "note_on", "time": 50, "note": 68, "velocity": 80, "channel": 0}, {"type": "note_off", "time": 277, "note": 68, "velocity": 80, "channel": 0}, {"type": "note_on", "time": 106, "note": 69, "velocity": 80, "channel": 0}, {"type": "note_off", "time": 509, "note": 69, "velocity": 80, "channel": 0}, {"type": "note_on", "time": 23, "note": 68, "velocity": 80, "channel": 0}, {"type": "note_off", "time": 273, "note": 68, "velocity": 80, "channel": 0}, {"type": "note_on", "time": 231, "note": 69, "velocity": 80, "channel": 0}, {"type": "note_off", "time": 305, "note": 69, "velocity": 80, "channel": 0}, {"type": "note_on", "time": 27, "note": 68, "velocity": 80, "channel": 0}, {"type": "note_off", "time": 259, "note": 68, "velocity": 80, "channel": 0}, {"type": "note_on", "time": 32, "note": 69, "velocity": 80, "channel": 0}, {"type": "note_off", "time": 203, "note": 69, "velocity": 80, "channel": 0}, {"type": "note_on", "time": 83, "note": 69, "velocity": 80, "channel": 0}, {"type": "note_off", "time": 361, "note": 69, "velocity": 80, "channel": 0}, {"type": "note_on", "time": 23, "note": 68, "velocity": 80, "channel": 0}, {"type": "note_off", "time": 217, "note": 68, "velocity": 80, "channel": 0}, {"type": "note_on", "time": 41, "note": 69, "velocity": 80, "channel": 0}, {"type": "note_off", "time": 185, "note": 69, "velocity": 80, "channel": 0}, {"type": "note_on", "time": 106, "note": 69, "velocity": 80, "channel": 0}, {"type": "note_off", "time": 485, "note": 69, "velocity": 80, "channel": 0}, {"type": "note_on", "time": 236, "note": 69, "velocity": 80, "channel": 0}, {"type": "note_off", "time": 620, "note": 69, "velocity": 80, "channel": 0}, {"type": "note_on", "time": 98, "note": 74, "velocity": 80, "channel": 0}, {"type": "note_off", "time": 388, "note": 74, "velocity": 80, "channel": 0}, {"type": "note_on", "time": 35, "note": 77, "velocity": 80, "channel": 0}, {"type": "note_off", "time": 541, "note": 77, "velocity": 80, "channel": 0}, {"type": "note_on", "time": 3753, "note": 75, "velocity": 80, "channel": 0}, {"type": "note_off", "time": 625, "note": 75, "velocity": 80, "channel": 0}, {"type": "note_on", "time": 59, "note": 76, "velocity": 80, "channel": 0}, {"type": "note_off", "time": 579, "note": 76, "velocity": 80, "channel": 0}, {"type": "note_on", "time": 204, "note": 73, "velocity": 80, "channel": 0}, {"type": "note_off", "time": 678, "note": 73, "velocity": 80, "channel": 0}, {"type": "note_on", "time": 92, "note": 72, "velocity": 80, "channel": 0}, {"type": "note_off", "time": 500, "note": 72, "velocity": 80, "channel": 0}, {"type": "note_on", "time": 296, "note": 67, "velocity": 80, "channel": 0}, {"type": "note_off", "time": 1553, "note": 67, "velocity": 80, "channel": 0}, {"type": "note_on", "time": 378, "note": 77, "velocity": 80, "channel": 0}, {"type": "note_off", "time": 467, "note": 77, "velocity": 80, "channel": 0}, {"type": "note_on", "time": 82, "note": 79, "velocity": 80, "channel": 0}, {"type": "note_off", "time": 5042, "note": 79, "velocity": 80, "channel": 0}, {"type": "note_on", "time": 72, "note": 77, "velocity": 80, "channel": 0}, {"type": "note_off", "time": 421, "note": 77, "velocity": 80, "channel": 0}, {"type": "note_on", "time": 2106, "note": 75, "velocity": 80, "channel": 0}, {"type": "note_off", "time": 222, "note": 75, "velocity": 80, "channel": 0}, {"type": "note_on", "time": 46, "note": 77, "velocity": 80, "channel": 0}, {"type": "note_off", "time": 1758, "note": 77, "velocity": 80, "channel": 0}, {"type": "note_on", "time": 138, "note": 74, "velocity": 80, "channel": 0}, {"type": "note_off", "time": 472, "note": 74, "velocity": 80, "channel": 0}, {"type": "note_on", "time": 786, "note": 72, "velocity": 80, "channel": 0}, {"type": "note_off", "time": 953, "note": 72, "velocity": 80, "channel": 0}, {"type": "note_on", "time": 163, "note": 74, "velocity": 80, "channel": 0}, {"type": "note_off", "time": 987, "note": 74, "velocity": 80, "channel": 0}, {"type": "note_on", "time": 265, "note": 67, "velocity": 80, "channel": 0}, {"type": "note_off", "time": 2286, "note": 67, "velocity": 80, "channel": 0}, {"type": "note_on", "time": 2135, "note": 75, "velocity": 80, "channel": 0}, {"type": "note_off", "time": 460, "note": 75, "velocity": 80, "channel": 0}, {"type": "note_on", "time": 26, "note": 77, "velocity": 80, "channel": 0}, {"type": "note_off", "time": 822, "note": 77, "velocity": 80, "channel": 0}, {"type": "note_on", "time": 405, "note": 82, "velocity": 80, "channel": 0}, {"type": "note_off", "time": 6267, "note": 82, "velocity": 80, "channel": 0}, {"type": "note_on", "time": 2101, "note": 79, "velocity": 80, "channel": 0}, {"type": "note_off", "time": 472, "note": 79, "velocity": 80, "channel": 0}, {"type": "note_on", "time": 74, "note": 80, "velocity": 80, "channel": 0}, {"type": "note_off", "time": 1360, "note": 80, "velocity": 80, "channel": 0}, {"type": "note_on", "time": 101, "note": 76, "velocity": 80, "channel": 0}, {"type": "note_off", "time": 269, "note": 76, "velocity": 80, "channel": 0}, {"type": "note_on", "time": 26, "note": 77, "velocity": 80, "channel": 0}, {"type": "note_off", "time": 625, "note": 77, "velocity": 80, "channel": 0}, {"type": "note_on", "time": 473, "note": 75, "velocity": 80, "channel": 0}, {"type": "note_off", "time": 954, "note": 75, "velocity": 80, "channel": 0}, {"type": "note_on", "time": 151, "note": 77, "velocity": 80, "channel": 0}, {"type": "note_off", "time": 704, "note": 77, "velocity": 80, "channel": 0}, {"type": "note_on", "time": 427, "note": 70, "velocity": 80, "channel": 0}, {"type": "note_off", "time": 941, "note": 70, "velocity": 80, "channel": 0}, {"type": "note_on", "time": 309, "note": 72, "velocity": 80, "channel": 0}, {"type": "note_off", "time": 928, "note": 72, "velocity": 80, "channel": 0}, {"type": "note_on", "time": 401, "note": 73, "velocity": 80, "channel": 0}, {"type": "note_off", "time": 348, "note": 73, "velocity": 80, "channel": 0}, {"type": "note_on", "time": 78, "note": 74, "velocity": 80, "channel": 0}, {"type": "note_off", "time": 579, "note": 74, "velocity": 80, "channel": 0}, {"type": "note_on", "time": 98, "note": 73, "velocity": 80, "channel": 0}, {"type": "note_off", "time": 520, "note": 73, "velocity": 80, "channel": 0}, {"type": "note_on", "time": 151, "note": 67, "velocity": 80, "channel": 0}, {"type": "note_off", "time": 585, "note": 67, "velocity": 80, "channel": 0}, {"type": "note_on", "time": 151, "note": 67, "velocity": 80, "channel": 0}, {"type": "note_off", "time": 724, "note": 67, "velocity": 80, "channel": 0}, {"type": "note_on", "time": 341, "note": 77, "velocity": 80, "channel": 0}, {"type": "note_off", "time": 398, "note": 77, "velocity": 80, "channel": 0}, {"type": "note_on", "time": 46, "note": 79, "velocity": 80, "channel": 0}, {"type": "note_off", "time": 4813, "note": 79, "velocity": 80, "channel": 0}, {"type": "note_on", "time": 3050, "note": 76, "velocity": 80, "channel": 0}, {"type": "note_off", "time": 434, "note": 76, "velocity": 80, "channel": 0}, {"type": "note_on", "time": 19, "note": 77, "velocity": 80, "channel": 0}, {"type": "note_off", "time": 1283, "note": 77, "velocity": 80, "channel": 0}, {"type": "note_on", "time": 263, "note": 62, "velocity": 80, "channel": 0}, {"type": "note_off", "time": 559, "note": 62, "velocity": 80, "channel": 0}, {"type": "note_on", "time": 373, "note": 72, "velocity": 80, "channel": 0}, {"type": "note_off", "time": 1235, "note": 72, "velocity": 80, "channel": 0}, {"type": "note_on", "time": 62, "note": 74, "velocity": 80, "channel": 0}, {"type": "note_off", "time": 868, "note": 74, "velocity": 80, "channel": 0}, {"type": "note_on", "time": 345, "note": 67, "velocity": 80, "channel": 0}, {"type": "note_off", "time": 2453, "note": 67, "velocity": 80, "channel": 0}, {"type": "note_on", "time": 2092, "note": 75, "velocity": 80, "channel": 0}, {"type": "note_off", "time": 212, "note": 75, "velocity": 80, "channel": 0}, {"type": "note_on", "time": 101, "note": 77, "velocity": 80, "channel": 0}, {"type": "note_off", "time": 1342, "note": 77, "velocity": 80, "channel": 0}, {"type": "note_on", "time": 92, "note": 82, "velocity": 80, "channel": 0}, {"type": "note_off", "time": 5748, "note": 82, "velocity": 80, "channel": 0}, {"type": "note_on", "time": 2379, "note": 80, "velocity": 80, "channel": 0}, {"type": "note_off", "time": 1444, "note": 80, "velocity": 80, "channel": 0}, {"type": "note_on", "time": 342, "note": 76, "velocity": 80, "channel": 0}, {"type": "note_off", "time": 277, "note": 76, "velocity": 80, "channel": 0}, {"type": "note_on", "time": 83, "note": 77, "velocity": 80, "channel": 0}, {"type": "note_off", "time": 786, "note": 77, "velocity": 80, "channel": 0}, {"type": "note_on", "time": 70, "note": 75, "velocity": 80, "channel": 0}, {"type": "note_off", "time": 1138, "note": 75, "velocity": 80, "channel": 0}, {"type": "note_on", "time": 98, "note": 77, "velocity": 80, "channel": 0}, {"type": "note_off", "time": 849, "note": 77, "velocity": 80, "channel": 0}, {"type": "note_on", "time": 415, "note": 70, "velocity": 80, "channel": 0}, {"type": "note_off", "time": 1083, "note": 70, "velocity": 80, "channel": 0}, {"type": "note_on", "time": 129, "note": 72, "velocity": 80, "channel": 0}, {"type": "note_off", "time": 666, "note": 72, "velocity": 80, "channel": 0}, {"type": "note_on", "time": 536, "note": 74, "velocity": 80, "channel": 0}, {"type": "note_off", "time": 1768, "note": 74, "velocity": 80, "channel": 0}, {"type": "note_on", "time": 148, "note": 67, "velocity": 80, "channel": 0}, {"type": "note_off", "time": 1249, "note": 67, "velocity": 80, "channel": 0}, {"type": "note_on", "time": 620, "note": 77, "velocity": 80, "channel": 0}, {"type": "note_off", "time": 648, "note": 77, "velocity": 80, "channel": 0}, {"type": "note_on", "time": 152, "note": 79, "velocity": 80, "channel": 0}, {"type": "note_off", "time": 5200, "note": 79, "velocity": 80, "channel": 0}, {"type": "note_on", "time": 2376, "note": 77, "velocity": 80, "channel": 0}, {"type": "note_off", "time": 1832, "note": 77, "velocity": 80, "channel": 0}, {"type": "note_on", "time": 56, "note": 74, "velocity": 80, "channel": 0}, {"type": "note_off", "time": 868, "note": 74, "velocity": 80, "channel": 0}, {"type": "note_on", "time": 361, "note": 72, "velocity": 80, "channel": 0}, {"type": "note_off", "time": 1157, "note": 72, "velocity": 80, "channel": 0}, {"type": "note_on", "time": 100, "note": 74, "velocity": 80, "channel": 0}, {"type": "note_off", "time": 842, "note": 74, "velocity": 80, "channel": 0}, {"type": "note_on", "time": 355, "note": 67, "velocity": 80, "channel": 0}, {"type": "note_off", "time": 2475, "note": 67, "velocity": 80, "channel": 0}, {"type": "note_on", "time": 2085, "note": 75, "velocity": 80, "channel": 0}, {"type": "note_off", "time": 277, "note": 75, "velocity": 80, "channel": 0}, {"type": "note_on", "time": 55, "note": 77, "velocity": 80, "channel": 0}, {"type": "note_off", "time": 897, "note": 77, "velocity": 80, "channel": 0}, {"type": "note_on", "time": 467, "note": 82, "velocity": 80, "channel": 0}, {"type": "note_off", "time": 5773, "note": 82, "velocity": 80, "channel": 0}, {"type": "note_on", "time": 2437, "note": 80, "velocity": 80, "channel": 0}, {"type": "note_off", "time": 1837, "note": 80, "velocity": 80, "channel": 0}, {"type": "note_on", "time": 212, "note": 76, "velocity": 80, "channel": 0}, {"type": "note_off", "time": 351, "note": 76, "velocity": 80, "channel": 0}, {"type": "note_on", "time": 58, "note": 77, "velocity": 80, "channel": 0}, {"type": "note_off", "time": 691, "note": 77, "velocity": 80, "channel": 0}, {"type": "note_on", "time": 208, "note": 75, "velocity": 80, "channel": 0}, {"type": "note_off", "time": 921, "note": 75, "velocity": 80, "channel": 0}, {"type": "note_on", "time": 134, "note": 77, "velocity": 80, "channel": 0}, {"type": "note_off", "time": 698, "note": 77, "velocity": 80, "channel": 0}, {"type": "note_on", "time": 523, "note": 70, "velocity": 80, "channel": 0}, {"type": "note_off", "time": 1087, "note": 70, "velocity": 80, "channel": 0}, {"type": "note_on", "time": 115, "note": 72, "velocity": 80, "channel": 0}, {"type": "note_off", "time": 777, "note": 72, "velocity": 80, "channel": 0}, {"type": "note_on", "time": 562, "note": 73, "velocity": 80, "channel": 0}, {"type": "note_off", "time": 355, "note": 73, "velocity": 80, "channel": 0}, {"type": "note_on", "time": 59, "note": 74, "velocity": 80, "channel": 0}, {"type": "note_off", "time": 1086, "note": 74, "velocity": 80, "channel": 0}, {"type": "note_on", "time": 454, "note": 67, "velocity": 80, "channel": 0}, {"type": "note_off", "time": 1421, "note": 67, "velocity": 80, "channel": 0}, {"type": "note_on", "time": 658, "note": 77, "velocity": 80, "channel": 0}, {"type": "note_off", "time": 490, "note": 77, "velocity": 80, "channel": 0}, {"type": "note_on", "time": 36, "note": 79, "velocity": 80, "channel": 0}, {"type": "note_off", "time": 4884, "note": 79, "velocity": 80, "channel": 0}, {"type": "note_on", "time": 2243, "note": 77, "velocity": 80, "channel": 0}, {"type": "note_off", "time": 1805, "note": 77, "velocity": 80, "channel": 0}, {"type": "note_on", "time": 138, "note": 74, "velocity": 80, "channel": 0}, {"type": "note_off", "time": 618, "note": 74, "velocity": 80, "channel": 0}, {"type": "note_on", "time": 513, "note": 72, "velocity": 80, "channel": 0}, {"type": "note_off", "time": 1224, "note": 72, "velocity": 80, "channel": 0}, {"type": "note_on", "time": 46, "note": 74, "velocity": 80, "channel": 0}, {"type": "note_off", "time": 631, "note": 74, "velocity": 80, "channel": 0}, {"type": "note_on", "time": 599, "note": 67, "velocity": 80, "channel": 0}, {"type": "note_off", "time": 2080, "note": 67, "velocity": 80, "channel": 0}, {"type": "note_on", "time": 2238, "note": 75, "velocity": 80, "channel": 0}, {"type": "note_off", "time": 441, "note": 75, "velocity": 80, "channel": 0}, {"type": "note_on", "time": 46, "note": 77, "velocity": 80, "channel": 0}, {"type": "note_off", "time": 954, "note": 77, "velocity": 80, "channel": 0}, {"type": "note_on", "time": 651, "note": 82, "velocity": 80, "channel": 0}, {"type": "note_off", "time": 5437, "note": 82, "velocity": 80, "channel": 0}, {"type": "note_on", "time": 2370, "note": 80, "velocity": 80, "channel": 0}, {"type": "note_off", "time": 1351, "note": 80, "velocity": 80, "channel": 0}, {"type": "note_on", "time": 418, "note": 75, "velocity": 80, "channel": 0}, {"type": "note_off", "time": 408, "note": 75, "velocity": 80, "channel": 0}, {"type": "note_on", "time": 52, "note": 77, "velocity": 80, "channel": 0}, {"type": "note_off", "time": 618, "note": 77, "velocity": 80, "channel": 0}, {"type": "note_on", "time": 164, "note": 75, "velocity": 80, "channel": 0}, {"type": "note_off", "time": 1013, "note": 75, "velocity": 80, "channel": 0}, {"type": "note_on", "time": 105, "note": 77, "velocity": 80, "channel": 0}, {"type": "note_off", "time": 1026, "note": 77, "velocity": 80, "channel": 0}, {"type": "note_on", "time": 315, "note": 70, "velocity": 80, "channel": 0}, {"type": "note_off", "time": 1198, "note": 70, "velocity": 80, "channel": 0}, {"type": "note_on", "time": 118, "note": 72, "velocity": 80, "channel": 0}, {"type": "note_off", "time": 1119, "note": 72, "velocity": 80, "channel": 0}, {"type": "end_of_track", "time": 0}]]}