{"ticks_per_beat": 2520, "tracks": [[{"type": "track_name", "name": "Melody", "time": 0}, {"type": "set_tempo", "tempo": 508474, "time": 0}, {"type": "key_signature", "key": "D", "time": 0}, {"type": "time_signature", "numerator": 4, "denominator": 4, "clocks_per_click": 24, "notated_32nd_notes_per_beat": 8, "time": 0}, {"type": "note_on", "time": 34926, "note": 67, "velocity": 100, "channel": 0}, {"type": "note_off", "time": 338, "note": 67, "velocity": 100, "channel": 0}, {"type": "note_on", "time": 158, "note": 65, "velocity": 31, "channel": 0}, {"type": "note_off", "time": 395, "note": 65, "velocity": 31, "channel": 0}, {"type": "note_on", "time": 287, "note": 67, "velocity": 9, "channel": 0}, {"type": "note_off", "time": 525, "note": 67, "velocity": 9, "channel": 0}, {"type": "note_on", "time": 1308, "note": 67, "velocity": 9, "channel": 0}, {"type": "note_off", "time": 366, "note": 67, "velocity": 9, "channel": 0}, {"type": "note_on", "time": 1395, "note": 67, "velocity": 101, "channel": 0}, {"type": "note_off", "time": 395, "note": 67, "velocity": 101, "channel": 0}, {"type": "note_on", "time": 1611, "note": 67, "velocity": 9, "channel": 0}, {"type": "note_off", "time": 338, "note": 67, "velocity": 9, "channel": 0}, {"type": "note_on", "time": 1380, "note": 67, "velocity": 102, "channel": 0}, {"type": "note_off", "time": 323, "note": 67, "velocity": 102, "channel": 0}, {"type": "note_on", "time": 1524, "note": 67, "velocity": 105, "channel": 0}, {"type": "note_off", "time": 302, "note": 67, "velocity": 105, "channel": 0}, {"type": "note_on", "time": 1620, "note": 67, "velocity": 93, "channel": 0}, {"type": "note_off", "time": 252, "note": 67, "velocity": 93, "channel": 0}, {"type": "note_on", "time": 1618, "note": 67, "velocity": 97, "channel": 0}, {"type": "note_off", "time": 338, "note": 67, "velocity": 97, "channel": 0}, {"type": "note_on", "time": 1477, "note": 67, "velocity": 108, "channel": 0}, {"type": "note_off", "time": 273, "note": 67, "velocity": 108, "channel": 0}, {"type": "note_on", "time": 3588, "note": 67, "velocity": 96, "channel": 0}, {"type": "note_off", "time": 287, "note": 67, "velocity": 96, "channel": 0}, {"type": "note_on", "time": 424, "note": 65, "velocity": 81, "channel": 0}, {"type": "note_off", "time": 338, "note": 65, "velocity": 81, "channel": 0}, {"type": "note_on", "time": 143, "note": 67, "velocity": 56, "channel": 0}, {"type": "note_off", "time": 273, "note": 67, "velocity": 56, "channel": 0}, {"type": "note_on", "time": 1503, "note": 67, "velocity": 9, "channel": 0}, {"type": "note_off", "time": 302, "note": 67, "velocity": 9, "channel": 0}, {"type": "note_on", "time": 1963, "note": 67, "velocity": 9, "channel": 0}, {"type": "note_off", "time": 266, "note": 67, "velocity": 9, "channel": 0}, {"type": "note_on", "time": 1618, "note": 67, "velocity": 101, "channel": 0}, {"type": "note_off", "time": 244, "note": 67, "velocity": 101, "channel": 0}, {"type": "note_on", "time": 1618, "note": 67, "velocity": 96, "channel": 0}, {"type": "note_off", "time": 258, "note": 67, "velocity": 96, "channel": 0}, {"type": "note_on", "time": 1812, "note": 67, "velocity": 97, "channel": 0}, {"type": "note_off", "time": 217, "note": 67, "velocity": 97, "channel": 0}, {"type": "note_on", "time": 1436, "note": 67, "velocity": 103, "channel": 0}, {"type": "note_off", "time": 298, "note": 67, "velocity": 103, "channel": 0}, {"type": "note_on", "time": 1770, "note": 67, "velocity": 67, "channel": 0}, {"type": "note_off", "time": 227, "note": 67, "velocity": 67, "channel": 0}, {"type": "note_on", "time": 1481, "note": 67, "velocity": 9, "channel": 0}, {"type": "note_off", "time": 222, "note": 67, "velocity": 9, "channel": 0}, {"type": "note_on", "time": 3530, "note": 68, "velocity": 109, "channel": 0}, {"type": "note_off", "time": 480, "note": 68, "velocity": 109, "channel": 0}, {"type": "note_on", "time": 217, "note": 66, "velocity": 58, "channel": 0}, {"type": "note_off", "time": 328, "note": 66, "velocity": 58, "channel": 0}, {"type": "note_on", "time": 275, "note": 67, "velocity": 109, "channel": 0}, {"type": "note_off", "time": 258, "note": 67, "velocity": 109, "channel": 0}, {"type": "note_on", "time": 1533, "note": 67, "velocity": 103, "channel": 0}, {"type": "note_off", "time": 303, "note": 67, "velocity": 103, "channel": 0}, {"type": "note_on", "time": 1708, "note": 67, "velocity": 101, "channel": 0}, {"type": "note_off", "time": 258, "note": 67, "velocity": 101, "channel": 0}, {"type": "note_on", "time": 1726, "note": 67, "velocity": 100, "channel": 0}, {"type": "note_off", "time": 230, "note": 67, "velocity": 100, "channel": 0}, {"type": "note_on", "time": 1527, "note": 68, "velocity": 105, "channel": 0}, {"type": "note_off", "time": 303, "note": 68, "velocity": 105, "channel": 0}, {"type": "note_on", "time": 1405, "note": 67, "velocity": 79, "channel": 0}, {"type": "note_off", "time": 232, "note": 67, "velocity": 79, "channel": 0}, {"type": "note_on", "time": 1689, "note": 67, "velocity": 123, "channel": 0}, {"type": "note_off", "time": 232, "note": 67, "velocity": 123, "channel": 0}, {"type": "note_on", "time": 1829, "note": 67, "velocity": 102, "channel": 0}, {"type": "note_off", "time": 273, "note": 67, "velocity": 102, "channel": 0}, {"type": "note_on", "time": 1596, "note": 67, "velocity": 98, "channel": 0}, {"type": "note_off", "time": 215, "note": 67, "velocity": 98, "channel": 0}, {"type": "note_on", "time": 3488, "note": 68, "velocity": 100, "channel": 0}, {"type": "note_off", "time": 364, "note": 68, "velocity": 100, "channel": 0}, {"type": "note_on", "time": 283, "note": 66, "velocity": 9, "channel": 0}, {"type": "note_off", "time": 333, "note": 66, "velocity": 9, "channel": 0}, {"type": "note_on", "time": 338, "note": 67, "velocity": 50, "channel": 0}, {"type": "note_off", "time": 313, "note": 67, "velocity": 50, "channel": 0}, {"type": "note_on", "time": 1567, "note": 66, "velocity": 104, "channel": 0}, {"type": "note_off", "time": 280, "note": 66, "velocity": 104, "channel": 0}, {"type": "note_on", "time": 1668, "note": 65, "velocity": 9, "channel": 0}, {"type": "note_off", "time": 381, "note": 65, "velocity": 9, "channel": 0}, {"type": "note_on", "time": 208, "note": 62, "velocity": 9, "channel": 0}, {"type": "note_off", "time": 287, "note": 62, "velocity": 9, "channel": 0}, {"type": "note_on", "time": 1028, "note": 67, "velocity": 99, "channel": 0}, {"type": "note_off", "time": 330, "note": 67, "velocity": 99, "channel": 0}, {"type": "note_on", "time": 1438, "note": 66, "velocity": 54, "channel": 0}, {"type": "note_off", "time": 546, "note": 66, "velocity": 54, "channel": 0}, {"type": "note_on", "time": 172, "note": 65, "velocity": 90, "channel": 0}, {"type": "note_off", "time": 352, "note": 65, "velocity": 90, "channel": 0}, {"type": "note_on", "time": 805, "note": 62, "velocity": 115, "channel": 0}, {"type": "note_off", "time": 409, "note": 62, "velocity": 115, "channel": 0}, {"type": "note_on", "time": 1692, "note": 65, "velocity": 45, "channel": 0}, {"type": "note_off", "time": 525, "note": 65, "velocity": 45, "channel": 0}, {"type": "note_on", "time": 80, "note": 66, "velocity": 107, "channel": 0}, {"type": "note_off", "time": 343, "note": 66, "velocity": 107, "channel": 0}, {"type": "note_on", "time": 986, "note": 67, "velocity": 9, "channel": 0}, {"type": "note_off", "time": 303, "note": 67, "velocity": 9, "channel": 0}, {"type": "note_on", "time": 1490, "note": 68, "velocity": 9, "channel": 0}, {"type": "note_off", "time": 438, "note": 68, "velocity": 9, "channel": 0}, {"type": "note_on", "time": 194, "note": 69, "velocity": 68, "channel": 0}, {"type": "note_off", "time": 305, "note": 69, "velocity": 68, "channel": 0}, {"type": "note_on", "time": 895, "note": 67, "velocity": 32, "channel": 0}, {"type": "note_off", "time": 334, "note": 67, "velocity": 32, "channel": 0}, {"type": "note_on", "time": 968, "note": 66, "velocity": 45, "channel": 0}, {"type": "note_off", "time": 359, "note": 66, "velocity": 45, "channel": 0}, {"type": "note_on", "time": 227, "note": 67, "velocity": 111, "channel": 0}, {"type": "note_off", "time": 465, "note": 67, "velocity": 111, "channel": 0}, {"type": "note_on", "time": 166, "note": 66, "velocity": 43, "channel": 0}, {"type": "note_off", "time": 384, "note": 66, "velocity": 43, "channel": 0}, {"type": "note_on", "time": 1046, "note": 65, "velocity": 45, "channel": 0}, {"type": "note_off", "time": 338, "note": 65, "velocity": 45, "channel": 0}, {"type": "note_on", "time": 771, "note": 66, "velocity": 29, "channel": 0}, {"type": "note_off", "time": 330, "note": 66, "velocity": 29, "channel": 0}, {"type": "note_on", "time": 316, "note": 67, "velocity": 107, "channel": 0}, {"type": "note_off", "time": 496, "note": 67, "velocity": 107, "channel": 0}, {"type": "note_on", "time": 251, "note": 65, "velocity": 76, "channel": 0}, {"type": "note_off", "time": 287, "note": 65, "velocity": 76, "channel": 0}, {"type": "note_on", "time": 978, "note": 66, "velocity": 96, "channel": 0}, {"type": "note_off", "time": 330, "note": 66, "velocity": 96, "channel": 0}, {"type": "note_on", "time": 769, "note": 65, "velocity": 67, "channel": 0}, {"type": "note_off", "time": 467, "note": 65, "velocity": 67, "channel": 0}, {"type": "note_on", "time": 89, "note": 62, "velocity": 108, "channel": 0}, {"type": "note_off", "time": 629, "note": 62, "velocity": 108, "channel": 0}, {"type": "note_on", "time": 165, "note": 65, "velocity": 66, "channel": 0}, {"type": "note_off", "time": 334, "note": 65, "velocity": 66, "channel": 0}, {"type": "note_on", "time": 915, "note": 65, "velocity": 59, "channel": 0}, {"type": "note_off", "time": 394, "note": 65, "velocity": 59, "channel": 0}, {"type": "note_on", "time": 822, "note": 66, "velocity": 68, "channel": 0}, {"type": "note_off", "time": 402, "note": 66, "velocity": 68, "channel": 0}, {"type": "note_on", "time": 266, "note": 67, "velocity": 101, "channel": 0}, {"type": "note_off", "time": 402, "note": 67, "velocity": 101, "channel": 0}, {"type": "note_on", "time": 323, "note": 65, "velocity": 110, "channel": 0}, {"type": "note_off", "time": 366, "note": 65, "velocity": 110, "channel": 0}, {"type": "note_on", "time": 808, "note": 66, "velocity": 112, "channel": 0}, {"type": "note_off", "time": 354, "note": 66, "velocity": 112, "channel": 0}, {"type": "note_on", "time": 869, "note": 65, "velocity": 108, "channel": 0}, {"type": "note_off", "time": 409, "note": 65, "velocity": 108, "channel": 0}, {"type": "note_on", "time": 187, "note": 62, "velocity": 47, "channel": 0}, {"type": "note_off", "time": 495, "note": 62, "velocity": 47, "channel": 0}, {"type": "note_on", "time": 187, "note": 65, "velocity": 106, "channel": 0}, {"type": "note_off", "time": 318, "note": 65, "velocity": 106, "channel": 0}, {"type": "note_on", "time": 1056, "note": 65, "velocity": 100, "channel": 0}, {"type": "note_off", "time": 384, "note": 65, "velocity": 100, "channel": 0}, {"type": "note_on", "time": 879, "note": 66, "velocity": 98, "channel": 0}, {"type": "note_off", "time": 257, "note": 66, "velocity": 98, "channel": 0}, {"type": "note_on", "time": 399, "note": 67, "velocity": 106, "channel": 0}, {"type": "note_off", "time": 510, "note": 67, "velocity": 106, "channel": 0}, {"type": "note_on", "time": 192, "note": 65, "velocity": 102, "channel": 0}, {"type": "note_off", "time": 379, "note": 65, "velocity": 102, "channel": 0}, {"type": "note_on", "time": 824, "note": 66, "velocity": 9, "channel": 0}, {"type": "note_off", "time": 399, "note": 66, "velocity": 9, "channel": 0}, {"type": "note_on", "time": 783, "note": 65, "velocity": 106, "channel": 0}, {"type": "note_off", "time": 470, "note": 65, "velocity": 106, "channel": 0}, {"type": "note_on", "time": 91, "note": 62, "velocity": 102, "channel": 0}, {"type": "note_off", "time": 561, "note": 62, "velocity": 102, "channel": 0}, {"type": "note_on", "time": 65, "note": 65, "velocity": 99, "channel": 0}, {"type": "note_off", "time": 348, "note": 65, "velocity": 99, "channel": 0}, {"type": "note_on", "time": 1127, "note": 65, "velocity": 113, "channel": 0}, {"type": "note_off", "time": 389, "note": 65, "velocity": 113, "channel": 0}, {"type": "note_on", "time": 814, "note": 66, "velocity": 100, "channel": 0}, {"type": "note_off", "time": 445, "note": 66, "velocity": 100, "channel": 0}, {"type": "note_on", "time": 864, "note": 67, "velocity": 9, "channel": 0}, {"type": "note_off", "time": 510, "note": 67, "velocity": 9, "channel": 0}, {"type": "note_on", "time": 772, "note": 68, "velocity": 9, "channel": 0}, {"type": "note_off", "time": 402, "note": 68, "velocity": 9, "channel": 0}, {"type": "note_on", "time": 258, "note": 69, "velocity": 118, "channel": 0}, {"type": "note_off", "time": 532, "note": 69, "velocity": 118, "channel": 0}, {"type": "note_on", "time": 625, "note": 67, "velocity": 114, "channel": 0}, {"type": "note_off", "time": 496, "note": 67, "velocity": 114, "channel": 0}, {"type": "note_on", "time": 388, "note": 68, "velocity": 99, "channel": 0}, {"type": "note_off", "time": 316, "note": 68, "velocity": 99, "channel": 0}, {"type": "note_on", "time": 737, "note": 67, "velocity": 114, "channel": 0}, {"type": "note_off", "time": 480, "note": 67, "velocity": 114, "channel": 0}, {"type": "note_on", "time": 109, "note": 66, "velocity": 102, "channel": 0}, {"type": "note_off", "time": 510, "note": 66, "velocity": 102, "channel": 0}, {"type": "note_on", "time": 197, "note": 67, "velocity": 115, "channel": 0}, {"type": "note_off", "time": 312, "note": 67, "velocity": 115, "channel": 0}, {"type": "note_on", "time": 973, "note": 66, "velocity": 9, "channel": 0}, {"type": "note_off", "time": 500, "note": 66, "velocity": 9, "channel": 0}, {"type": "note_on", "time": 151, "note": 65, "velocity": 9, "channel": 0}, {"type": "note_off", "time": 429, "note": 65, "velocity": 9, "channel": 0}, {"type": "note_on", "time": 101, "note": 66, "velocity": 115, "channel": 0}, {"type": "note_off", "time": 465, "note": 66, "velocity": 115, "channel": 0}, {"type": "note_on", "time": 910, "note": 65, "velocity": 9, "channel": 0}, {"type": "note_off", "time": 556, "note": 65, "velocity": 9, "channel": 0}, {"type": "note_on", "time": 72, "note": 62, "velocity": 111, "channel": 0}, {"type": "note_off", "time": 460, "note": 62, "velocity": 111, "channel": 0}, {"type": "note_on", "time": 266, "note": 65, "velocity": 16, "channel": 0}, {"type": "note_off", "time": 359, "note": 65, "velocity": 16, "channel": 0}, {"type": "note_on", "time": 841, "note": 62, "velocity": 103, "channel": 0}, {"type": "note_off", "time": 417, "note": 62, "velocity": 103, "channel": 0}, {"type": "note_on", "time": 827, "note": 61, "velocity": 9, "channel": 0}, {"type": "note_off", "time": 510, "note": 61, "velocity": 9, "channel": 0}, {"type": "note_on", "time": 57, "note": 60, "velocity": 9, "channel": 0}, {"type": "note_off", "time": 503, "note": 60, "velocity": 9, "channel": 0}, {"type": "note_on", "time": 64, "note": 61, "velocity": 9, "channel": 0}, {"type": "note_off", "time": 438, "note": 61, "velocity": 9, "channel": 0}, {"type": "note_on", "time": 783, "note": 62, "velocity": 37, "channel": 0}, {"type": "note_off", "time": 481, "note": 62, "velocity": 37, "channel": 0}, {"type": "note_on", "time": 726, "note": 60, "velocity": 86, "channel": 0}, {"type": "note_off", "time": 546, "note": 60, "velocity": 86, "channel": 0}, {"type": "note_on", "time": 237, "note": 61, "velocity": 117, "channel": 0}, {"type": "note_off", "time": 402, "note": 61, "velocity": 117, "channel": 0}, {"type": "note_on", "time": 115, "note": 60, "velocity": 111, "channel": 0}, {"type": "note_off", "time": 374, "note": 60, "velocity": 111, "channel": 0}, {"type": "note_on", "time": 985, "note": 62, "velocity": 120, "channel": 0}, {"type": "note_off", "time": 453, "note": 62, "velocity": 120, "channel": 0}, {"type": "note_on", "time": 733, "note": 60, "velocity": 50, "channel": 0}, {"type": "note_off", "time": 453, "note": 60, "velocity": 50, "channel": 0}, {"type": "note_on", "time": 158, "note": 61, "velocity": 116, "channel": 0}, {"type": "note_off", "time": 467, "note": 61, "velocity": 116, "channel": 0}, {"type": "note_on", "time": 201, "note": 62, "velocity": 40, "channel": 0}, {"type": "note_off", "time": 352, "note": 62, "velocity": 40, "channel": 0}, {"type": "note_on", "time": 985, "note": 60, "velocity": 9, "channel": 0}, {"type": "note_off", "time": 323, "note": 60, "velocity": 9, "channel": 0}, {"type": "note_on", "time": 855, "note": 61, "velocity": 103, "channel": 0}, {"type": "note_off", "time": 388, "note": 61, "velocity": 103, "channel": 0}, {"type": "note_on", "time": 136, "note": 60, "velocity": 99, "channel": 0}, {"type": "note_off", "time": 481, "note": 60, "velocity": 99, "channel": 0}, {"type": "note_on", "time": 115, "note": 62, "velocity": 85, "channel": 0}, {"type": "note_off", "time": 424, "note": 62, "velocity": 85, "channel": 0}, {"type": "note_on", "time": 978, "note": 61, "velocity": 9, "channel": 0}, {"type": "note_off", "time": 343, "note": 61, "velocity": 9, "channel": 0}, {"type": "note_on", "time": 925, "note": 62, "velocity": 9, "channel": 0}, {"type": "note_off", "time": 364, "note": 62, "velocity": 9, "channel": 0}, {"type": "note_on", "time": 49, "note": 61, "velocity": 9, "channel": 0}, {"type": "note_off", "time": 557, "note": 61, "velocity": 9, "channel": 0}, {"type": "note_on", "time": 93, "note": 60, "velocity": 47, "channel": 0}, {"type": "note_off", "time": 395, "note": 60, "velocity": 47, "channel": 0}, {"type": "note_on", "time": 922, "note": 61, "velocity": 121, "channel": 0}, {"type": "note_off", "time": 460, "note": 61, "velocity": 121, "channel": 0}, {"type": "note_on", "time": 839, "note": 60, "velocity": 9, "channel": 0}, {"type": "note_off", "time": 369, "note": 60, "velocity": 9, "channel": 0}, {"type": "note_on", "time": 75, "note": 61, "velocity": 9, "channel": 0}, {"type": "note_off", "time": 541, "note": 61, "velocity": 9, "channel": 0}, {"type": "note_on", "time": 96, "note": 60, "velocity": 9, "channel": 0}, {"type": "note_off", "time": 404, "note": 60, "velocity": 9, "channel": 0}, {"type": "note_on", "time": 879, "note": 61, "velocity": 9, "channel": 0}, {"type": "note_off", "time": 379, "note": 61, "velocity": 9, "channel": 0}, {"type": "note_on", "time": 778, "note": 62, "velocity": 108, "channel": 0}, {"type": "note_off", "time": 541, "note": 62, "velocity": 108, "channel": 0}, {"type": "note_on", "time": 80, "note": 61, "velocity": 118, "channel": 0}, {"type": "note_off", "time": 455, "note": 61, "velocity": 118, "channel": 0}, {"type": "note_on", "time": 278, "note": 65, "velocity": 9, "channel": 0}, {"type": "note_off", "time": 389, "note": 65, "velocity": 9, "channel": 0}, {"type": "note_on", "time": 915, "note": 62, "velocity": 9, "channel": 0}, {"type": "note_off", "time": 586, "note": 62, "velocity": 9, "channel": 0}, {"type": "note_on", "time": 619, "note": 61, "velocity": 9, "channel": 0}, {"type": "note_off", "time": 435, "note": 61, "velocity": 9, "channel": 0}, {"type": "note_on", "time": 161, "note": 62, "velocity": 40, "channel": 0}, {"type": "note_off", "time": 568, "note": 62, "velocity": 40, "channel": 0}, {"type": "note_on", "time": 57, "note": 61, "velocity": 115, "channel": 0}, {"type": "note_off", "time": 391, "note": 61, "velocity": 115, "channel": 0}, {"type": "note_on", "time": 871, "note": 60, "velocity": 126, "channel": 0}, {"type": "note_off", "time": 465, "note": 60, "velocity": 126, "channel": 0}, {"type": "note_on", "time": 637, "note": 61, "velocity": 58, "channel": 0}, {"type": "note_off", "time": 490, "note": 61, "velocity": 58, "channel": 0}, {"type": "note_on", "time": 298, "note": 60, "velocity": 103, "channel": 0}, {"type": "note_off", "time": 359, "note": 60, "velocity": 103, "channel": 0}, {"type": "note_on", "time": 55, "note": 59, "velocity": 92, "channel": 0}, {"type": "note_off", "time": 222, "note": 59, "velocity": 92, "channel": 0}, {"type": "note_on", "time": 2644, "note": 60, "velocity": 87, "channel": 0}, {"type": "note_off", "time": 296, "note": 60, "velocity": 87, "channel": 0}, {"type": "note_on", "time": 37, "note": 61, "velocity": 9, "channel": 0}, {"type": "note_off", "time": 331, "note": 61, "velocity": 9, "channel": 0}, {"type": "note_on", "time": 66, "note": 62, "velocity": 9, "channel": 0}, {"type": "note_off", "time": 306, "note": 62, "velocity": 9, "channel": 0}, {"type": "note_on", "time": 32, "note": 65, "velocity": 9, "channel": 0}, {"type": "note_off", "time": 321, "note": 65, "velocity": 9, "channel": 0}, {"type": "note_on", "time": 44, "note": 61, "velocity": 9, "channel": 0}, {"type": "note_off", "time": 328, "note": 61, "velocity": 9, "channel": 0}, {"type": "note_on", "time": 123, "note": 62, "velocity": 9, "channel": 0}, {"type": "note_off", "time": 289, "note": 62, "velocity": 9, "channel": 0}, {"type": "note_on", "time": 49, "note": 65, "velocity": 9, "channel": 0}, {"type": "note_off", "time": 336, "note": 65, "velocity": 9, "channel": 0}, {"type": "note_on", "time": 209, "note": 66, "velocity": 9, "channel": 0}, {"type": "note_off", "time": 280, "note": 66, "velocity": 9, "channel": 0}, {"type": "note_on", "time": 86, "note": 65, "velocity": 9, "channel": 0}, {"type": "note_off", "time": 370, "note": 65, "velocity": 9, "channel": 0}, {"type": "note_on", "time": 163, "note": 61, "velocity": 9, "channel": 0}, {"type": "note_off", "time": 274, "note": 61, "velocity": 9, "channel": 0}, {"type": "note_on", "time": 22, "note": 62, "velocity": 9, "channel": 0}, {"type": "note_off", "time": 242, "note": 62, "velocity": 9, "channel": 0}, {"type": "note_on", "time": 24, "note": 65, "velocity": 9, "channel": 0}, {"type": "note_off", "time": 360, "note": 65, "velocity": 9, "channel": 0}, {"type": "note_on", "time": 52, "note": 62, "velocity": 9, "channel": 0}, {"type": "note_off", "time": 478, "note": 62, "velocity": 9, "channel": 0}, {"type": "note_on", "time": 71, "note": 60, "velocity": 9, "channel": 0}, {"type": "note_off", "time": 255, "note": 60, "velocity": 9, "channel": 0}, {"type": "note_on", "time": 32, "note": 61, "velocity": 9, "channel": 0}, {"type": "note_off", "time": 438, "note": 61, "velocity": 9, "channel": 0}, {"type": "note_on", "time": 90, "note": 60, "velocity": 9, "channel": 0}, {"type": "note_off", "time": 718, "note": 60, "velocity": 9, "channel": 0}, {"type": "note_on", "time": 126, "note": 62, "velocity": 9, "channel": 0}, {"type": "note_off", "time": 2159, "note": 62, "velocity": 9, "channel": 0}, {"type": "note_on", "time": 130, "note": 60, "velocity": 9, "channel": 0}, {"type": "note_off", "time": 289, "note": 60, "velocity": 9, "channel": 0}, {"type": "note_on", "time": 42, "note": 61, "velocity": 9, "channel": 0}, {"type": "note_off", "time": 316, "note": 61, "velocity": 9, "channel": 0}, {"type": "note_on", "time": 61, "note": 62, "velocity": 9, "channel": 0}, {"type": "note_off", "time": 237, "note": 62, "velocity": 9, "channel": 0}, {"type": "note_on", "time": 42, "note": 65, "velocity": 9, "channel": 0}, {"type": "note_off", "time": 296, "note": 65, "velocity": 9, "channel": 0}, {"type": "note_on", "time": 76, "note": 60, "velocity": 9, "channel": 0}, {"type": "note_off", "time": 254, "note": 60, "velocity": 9, "channel": 0}, {"type": "note_on", "time": 44, "note": 62, "velocity": 9, "channel": 0}, {"type": "note_off", "time": 233, "note": 62, "velocity": 9, "channel": 0}, {"type": "note_on", "time": 61, "note": 63, "velocity": 9, "channel": 0}, {"type": "note_off", "time": 194, "note": 63, "velocity": 9, "channel": 0}, {"type": "note_on", "time": 5775, "note": 60, "velocity": 109, "channel": 0}, {"type": "note_off", "time": 284, "note": 60, "velocity": 109, "channel": 0}, {"type": "note_on", "time": 25, "note": 61, "velocity": 108, "channel": 0}, {"type": "note_off", "time": 251, "note": 61, "velocity": 108, "channel": 0}, {"type": "note_on", "time": 21, "note": 62, "velocity": 17, "channel": 0}, {"type": "note_off", "time": 481, "note": 62, "velocity": 17, "channel": 0}, {"type": "note_on", "time": 40, "note": 60, "velocity": 62, "channel": 0}, {"type": "note_off", "time": 309, "note": 60, "velocity": 62, "channel": 0}, {"type": "note_on", "time": 24, "note": 61, "velocity": 97, "channel": 0}, {"type": "note_off", "time": 291, "note": 61, "velocity": 97, "channel": 0}, {"type": "note_on", "time": 37, "note": 62, "velocity": 78, "channel": 0}, {"type": "note_off", "time": 276, "note": 62, "velocity": 78, "channel": 0}, {"type": "note_on", "time": 30, "note": 65, "velocity": 11, "channel": 0}, {"type": "note_off", "time": 304, "note": 65, "velocity": 11, "channel": 0}, {"type": "note_on", "time": 61, "note": 61, "velocity": 55, "channel": 0}, {"type": "note_off", "time": 348, "note": 61, "velocity": 55, "channel": 0}, {"type": "note_on", "time": 24, "note": 62, "velocity": 114, "channel": 0}, {"type": "note_off", "time": 286, "note": 62, "velocity": 114, "channel": 0}, {"type": "note_on", "time": 22, "note": 65, "velocity": 109, "channel": 0}, {"type": "note_off", "time": 264, "note": 65, "velocity": 109, "channel": 0}, {"type": "note_on", "time": 26, "note": 61, "velocity": 106, "channel": 0}, {"type": "note_off", "time": 332, "note": 61, "velocity": 106, "channel": 0}, {"type": "note_on", "time": 47, "note": 62, "velocity": 94, "channel": 0}, {"type": "note_off", "time": 311, "note": 62, "velocity": 94, "channel": 0}, {"type": "note_on", "time": 54, "note": 65, "velocity": 100, "channel": 0}, {"type": "note_off", "time": 2546, "note": 65, "velocity": 100, "channel": 0}, {"type": "note_on", "time": 151, "note": 62, "velocity": 95, "channel": 0}, {"type": "note_off", "time": 427, "note": 62, "velocity": 95, "channel": 0}, {"type": "note_on", "time": 43, "note": 61, "velocity": 97, "channel": 0}, {"type": "note_off", "time": 381, "note": 61, "velocity": 97, "channel": 0}, {"type": "note_on", "time": 122, "note": 65, "velocity": 70, "channel": 0}, {"type": "note_off", "time": 377, "note": 65, "velocity": 70, "channel": 0}, {"type": "note_on", "time": 133, "note": 60, "velocity": 50, "channel": 0}, {"type": "note_off", "time": 370, "note": 60, "velocity": 50, "channel": 0}, {"type": "note_on", "time": 46, "note": 61, "velocity": 105, "channel": 0}, {"type": "note_off", "time": 280, "note": 61, "velocity": 105, "channel": 0}, {"type": "note_on", "time": 61, "note": 62, "velocity": 101, "channel": 0}, {"type": "note_off", "time": 341, "note": 62, "velocity": 101, "channel": 0}, {"type": "note_on", "time": 35, "note": 65, "velocity": 92, "channel": 0}, {"type": "note_off", "time": 298, "note": 65, "velocity": 92, "channel": 0}, {"type": "note_on", "time": 37, "note": 62, "velocity": 96, "channel": 0}, {"type": "note_off", "time": 487, "note": 62, "velocity": 96, "channel": 0}, {"type": "note_on", "time": 118, "note": 65, "velocity": 9, "channel": 0}, {"type": "note_off", "time": 373, "note": 65, "velocity": 9, "channel": 0}, {"type": "note_on", "time": 24, "note": 67, "velocity": 9, "channel": 0}, {"type": "note_off", "time": 370, "note": 67, "velocity": 9, "channel": 0}, {"type": "note_on", "time": 30, "note": 65, "velocity": 63, "channel": 0}, {"type": "note_off", "time": 308, "note": 65, "velocity": 63, "channel": 0}, {"type": "note_on", "time": 51, "note": 66, "velocity": 106, "channel": 0}, {"type": "note_off", "time": 220, "note": 66, "velocity": 106, "channel": 0}, {"type": "note_on", "time": 56, "note": 67, "velocity": 102, "channel": 0}, {"type": "note_off", "time": 249, "note": 67, "velocity": 102, "channel": 0}, {"type": "note_on", "time": 155, "note": 67, "velocity": 90, "channel": 0}, {"type": "note_off", "time": 480, "note": 67, "velocity": 90, "channel": 0}, {"type": "note_on", "time": 40, "note": 68, "velocity": 90, "channel": 0}, {"type": "note_off", "time": 343, "note": 68, "velocity": 90, "channel": 0}, {"type": "note_on", "time": 40, "note": 66, "velocity": 63, "channel": 0}, {"type": "note_off", "time": 262, "note": 66, "velocity": 63, "channel": 0}, {"type": "note_on", "time": 55, "note": 67, "velocity": 9, "channel": 0}, {"type": "note_off", "time": 318, "note": 67, "velocity": 9, "channel": 0}, {"type": "note_on", "time": 111, "note": 65, "velocity": 12, "channel": 0}, {"type": "note_off", "time": 257, "note": 65, "velocity": 12, "channel": 0}, {"type": "note_on", "time": 328, "note": 67, "velocity": 101, "channel": 0}, {"type": "note_off", "time": 374, "note": 67, "velocity": 101, "channel": 0}, {"type": "note_on", "time": 106, "note": 68, "velocity": 94, "channel": 0}, {"type": "note_off", "time": 429, "note": 68, "velocity": 94, "channel": 0}, {"type": "note_on", "time": 147, "note": 73, "velocity": 89, "channel": 0}, {"type": "note_off", "time": 505, "note": 73, "velocity": 89, "channel": 0}, {"type": "note_on", "time": 227, "note": 72, "velocity": 9, "channel": 0}, {"type": "note_off", "time": 374, "note": 72, "velocity": 9, "channel": 0}, {"type": "note_on", "time": 28, "note": 71, "velocity": 30, "channel": 0}, {"type": "note_off", "time": 316, "note": 71, "velocity": 30, "channel": 0}, {"type": "note_on", "time": 258, "note": 68, "velocity": 102, "channel": 0}, {"type": "note_off", "time": 424, "note": 68, "velocity": 102, "channel": 0}, {"type": "note_on", "time": 86, "note": 73, "velocity": 92, "channel": 0}, {"type": "note_off", "time": 553, "note": 73, "velocity": 92, "channel": 0}, {"type": "note_on", "time": 165, "note": 72, "velocity": 57, "channel": 0}, {"type": "note_off", "time": 460, "note": 72, "velocity": 57, "channel": 0}, {"type": "note_on", "time": 136, "note": 68, "velocity": 9, "channel": 0}, {"type": "note_off", "time": 481, "note": 68, "velocity": 9, "channel": 0}, {"type": "note_on", "time": 86, "note": 64, "velocity": 104, "channel": 0}, {"type": "note_off", "time": 226, "note": 64, "velocity": 104, "channel": 0}, {"type": "note_on", "time": 32, "note": 66, "velocity": 99, "channel": 0}, {"type": "note_off", "time": 474, "note": 66, "velocity": 99, "channel": 0}, {"type": "note_on", "time": 79, "note": 65, "velocity": 92, "channel": 0}, {"type": "note_off", "time": 288, "note": 65, "velocity": 92, "channel": 0}, {"type": "note_on", "time": 70, "note": 60, "velocity": 90, "channel": 0}, {"type": "note_off", "time": 273, "note": 60, "velocity": 90, "channel": 0}, {"type": "note_on", "time": 18, "note": 61, "velocity": 80, "channel": 0}, {"type": "note_off", "time": 244, "note": 61, "velocity": 80, "channel": 0}, {"type": "note_on", "time": 57, "note": 62, "velocity": 53, "channel": 0}, {"type": "note_off", "time": 514, "note": 62, "velocity": 53, "channel": 0}, {"type": "note_on", "time": 57, "note": 66, "velocity": 109, "channel": 0}, {"type": "note_off", "time": 359, "note": 66, "velocity": 109, "channel": 0}, {"type": "note_on", "time": 86, "note": 65, "velocity": 101, "channel": 0}, {"type": "note_off", "time": 323, "note": 65, "velocity": 101, "channel": 0}, {"type": "note_on", "time": 133, "note": 60, "velocity": 9, "channel": 0}, {"type": "note_off", "time": 338, "note": 60, "velocity": 9, "channel": 0}, {"type": "note_on", "time": 39, "note": 61, "velocity": 9, "channel": 0}, {"type": "note_off", "time": 219, "note": 61, "velocity": 9, "channel": 0}, {"type": "note_on", "time": 104, "note": 62, "velocity": 76, "channel": 0}, {"type": "note_off", "time": 287, "note": 62, "velocity": 76, "channel": 0}, {"type": "note_on", "time": 89, "note": 64, "velocity": 107, "channel": 0}, {"type": "note_off", "time": 618, "note": 64, "velocity": 107, "channel": 0}, {"type": "note_on", "time": 165, "note": 62, "velocity": 103, "channel": 0}, {"type": "note_off", "time": 305, "note": 62, "velocity": 103, "channel": 0}, {"type": "note_on", "time": 50, "note": 61, "velocity": 100, "channel": 0}, {"type": "note_off", "time": 219, "note": 61, "velocity": 100, "channel": 0}, {"type": "note_on", "time": 125, "note": 59, "velocity": 102, "channel": 0}, {"type": "note_off", "time": 328, "note": 59, "velocity": 102, "channel": 0}, {"type": "note_on", "time": 136, "note": 45, "velocity": 102, "channel": 0}, {"type": "note_off", "time": 1647, "note": 45, "velocity": 102, "channel": 0}, {"type": "note_on", "time": 4274, "note": 60, "velocity": 9, "channel": 0}, {"type": "note_off", "time": 312, "note": 60, "velocity": 9, "channel": 0}, {"type": "note_on", "time": 61, "note": 61, "velocity": 9, "channel": 0}, {"type": "note_off", "time": 215, "note": 61, "velocity": 9, "channel": 0}, {"type": "note_on", "time": 61, "note": 62, "velocity": 9, "channel": 0}, {"type": "note_off", "time": 348, "note": 62, "velocity": 9, "channel": 0}, {"type": "note_on", "time": 7, "note": 65, "velocity": 9, "channel": 0}, {"type": "note_off", "time": 273, "note": 65, "velocity": 9, "channel": 0}, {"type": "note_on", "time": 57, "note": 66, "velocity": 9, "channel": 0}, {"type": "note_off", "time": 334, "note": 66, "velocity": 9, "channel": 0}, {"type": "note_on", "time": 46, "note": 67, "velocity": 9, "channel": 0}, {"type": "note_off", "time": 377, "note": 67, "velocity": 9, "channel": 0}, {"type": "note_on", "time": 97, "note": 65, "velocity": 9, "channel": 0}, {"type": "note_off", "time": 419, "note": 65, "velocity": 9, "channel": 0}, {"type": "note_on", "time": 82, "note": 66, "velocity": 9, "channel": 0}, {"type": "note_off", "time": 343, "note": 66, "velocity": 9, "channel": 0}, {"type": "note_on", "time": 65, "note": 65, "velocity": 9, "channel": 0}, {"type": "note_off", "time": 318, "note": 65, "velocity": 9, "channel": 0}, {"type": "note_on", "time": 52, "note": 62, "velocity": 9, "channel": 0}, {"type": "note_off", "time": 437, "note": 62, "velocity": 9, "channel": 0}, {"type": "note_on", "time": 39, "note": 65, "velocity": 9, "channel": 0}, {"type": "note_off", "time": 331, "note": 65, "velocity": 9, "channel": 0}, {"type": "note_on", "time": 159, "note": 60, "velocity": 9, "channel": 0}, {"type": "note_off", "time": 291, "note": 60, "velocity": 9, "channel": 0}, {"type": "note_on", "time": 86, "note": 61, "velocity": 9, "channel": 0}, {"type": "note_off", "time": 276, "note": 61, "velocity": 9, "channel": 0}, {"type": "note_on", "time": 71, "note": 62, "velocity": 9, "channel": 0}, {"type": "note_off", "time": 294, "note": 62, "velocity": 9, "channel": 0}, {"type": "note_on", "time": 76, "note": 60, "velocity": 9, "channel": 0}, {"type": "note_off", "time": 202, "note": 60, "velocity": 9, "channel": 0}, {"type": "note_on", "time": 60, "note": 61, "velocity": 9, "channel": 0}, {"type": "note_off", "time": 288, "note": 61, "velocity": 9, "channel": 0}, {"type": "note_on", "time": 45, "note": 60, "velocity": 9, "channel": 0}, {"type": "note_off", "time": 348, "note": 60, "velocity": 9, "channel": 0}, {"type": "note_on", "time": 124, "note": 57, "velocity": 9, "channel": 0}, {"type": "note_off", "time": 345, "note": 57, "velocity": 9, "channel": 0}, {"type": "note_on", "time": 255, "note": 56, "velocity": 9, "channel": 0}, {"type": "note_off", "time": 320, "note": 56, "velocity": 9, "channel": 0}, {"type": "note_on", "time": 64, "note": 57, "velocity": 63, "channel": 0}, {"type": "note_off", "time": 399, "note": 57, "velocity": 63, "channel": 0}, {"type": "note_on", "time": 57, "note": 55, "velocity": 119, "channel": 0}, {"type": "note_off", "time": 345, "note": 55, "velocity": 119, "channel": 0}, {"type": "note_on", "time": 25, "note": 53, "velocity": 86, "channel": 0}, {"type": "note_off", "time": 222, "note": 53, "velocity": 86, "channel": 0}, {"type": "note_on", "time": 224, "note": 55, "velocity": 9, "channel": 0}, {"type": "note_off", "time": 160, "note": 55, "velocity": 9, "channel": 0}, {"type": "note_on", "time": 61, "note": 56, "velocity": 9, "channel": 0}, {"type": "note_off", "time": 210, "note": 56, "velocity": 9, "channel": 0}, {"type": "note_on", "time": 69, "note": 53, "velocity": 9, "channel": 0}, {"type": "note_off", "time": 495, "note": 53, "velocity": 9, "channel": 0}, {"type": "note_on", "time": 299, "note": 48, "velocity": 120, "channel": 0}, {"type": "note_off", "time": 190, "note": 48, "velocity": 120, "channel": 0}, {"type": "note_on", "time": 106, "note": 49, "velocity": 110, "channel": 0}, {"type": "note_off", "time": 286, "note": 49, "velocity": 110, "channel": 0}, {"type": "note_on", "time": 46, "note": 50, "velocity": 110, "channel": 0}, {"type": "note_off", "time": 442, "note": 50, "velocity": 110, "channel": 0}, {"type": "note_on", "time": 68, "note": 45, "velocity": 102, "channel": 0}, {"type": "note_off", "time": 1754, "note": 45, "velocity": 102, "channel": 0}, {"type": "note_on", "time": 6854, "note": 60, "velocity": 113, "channel": 0}, {"type": "note_off", "time": 409, "note": 60, "velocity": 113, "channel": 0}, {"type": "note_on", "time": 7, "note": 61, "velocity": 108, "channel": 0}, {"type": "note_off", "time": 305, "note": 61, "velocity": 108, "channel": 0}, {"type": "note_on", "time": 79, "note": 62, "velocity": 106, "channel": 0}, {"type": "note_off", "time": 374, "note": 62, "velocity": 106, "channel": 0}, {"type": "note_on", "time": 60, "note": 60, "velocity": 123, "channel": 0}, {"type": "note_off", "time": 254, "note": 60, "velocity": 123, "channel": 0}, {"type": "note_on", "time": 98, "note": 60, "velocity": 112, "channel": 0}, {"type": "note_off", "time": 353, "note": 60, "velocity": 112, "channel": 0}, {"type": "note_on", "time": 29, "note": 56, "velocity": 108, "channel": 0}, {"type": "note_off", "time": 351, "note": 56, "velocity": 108, "channel": 0}, {"type": "note_on", "time": 108, "note": 60, "velocity": 9, "channel": 0}, {"type": "note_off", "time": 378, "note": 60, "velocity": 9, "channel": 0}, {"type": "note_on", "time": 126, "note": 56, "velocity": 9, "channel": 0}, {"type": "note_off", "time": 359, "note": 56, "velocity": 9, "channel": 0}, {"type": "note_on", "time": 100, "note": 57, "velocity": 9, "channel": 0}, {"type": "note_off", "time": 345, "note": 57, "velocity": 9, "channel": 0}, {"type": "note_on", "time": 53, "note": 55, "velocity": 96, "channel": 0}, {"type": "note_off", "time": 258, "note": 55, "velocity": 96, "channel": 0}, {"type": "note_on", "time": 64, "note": 53, "velocity": 120, "channel": 0}, {"type": "note_off", "time": 388, "note": 53, "velocity": 120, "channel": 0}, {"type": "note_on", "time": 216, "note": 57, "velocity": 115, "channel": 0}, {"type": "note_off", "time": 364, "note": 57, "velocity": 115, "channel": 0}, {"type": "note_on", "time": 111, "note": 53, "velocity": 9, "channel": 0}, {"type": "note_off", "time": 182, "note": 53, "velocity": 9, "channel": 0}, {"type": "note_on", "time": 20, "note": 50, "velocity": 9, "channel": 0}, {"type": "note_off", "time": 283, "note": 50, "velocity": 9, "channel": 0}, {"type": "note_on", "time": 91, "note": 53, "velocity": 93, "channel": 0}, {"type": "note_off", "time": 885, "note": 53, "velocity": 93, "channel": 0}, {"type": "note_on", "time": 91, "note": 48, "velocity": 9, "channel": 0}, {"type": "note_off", "time": 348, "note": 48, "velocity": 9, "channel": 0}, {"type": "note_on", "time": 42, "note": 49, "velocity": 49, "channel": 0}, {"type": "note_off", "time": 405, "note": 49, "velocity": 49, "channel": 0}, {"type": "note_on", "time": 51, "note": 52, "velocity": 103, "channel": 0}, {"type": "note_off", "time": 254, "note": 52, "velocity": 103, "channel": 0}, {"type": "note_on", "time": 169, "note": 50, "velocity": 101, "channel": 0}, {"type": "note_off", "time": 388, "note": 50, "velocity": 101, "channel": 0}, {"type": "note_on", "time": 86, "note": 53, "velocity": 104, "channel": 0}, {"type": "note_off", "time": 204, "note": 53, "velocity": 104, "channel": 0}, {"type": "note_on", "time": 61, "note": 50, "velocity": 9, "channel": 0}, {"type": "note_off", "time": 507, "note": 50, "velocity": 9, "channel": 0}, {"type": "note_on", "time": 43, "note": 53, "velocity": 60, "channel": 0}, {"type": "note_off", "time": 291, "note": 53, "velocity": 60, "channel": 0}, {"type": "note_on", "time": 28, "note": 55, "velocity": 118, "channel": 0}, {"type": "note_off", "time": 449, "note": 55, "velocity": 118, "channel": 0}, {"type": "note_on", "time": 57, "note": 54, "velocity": 23, "channel": 0}, {"type": "note_off", "time": 474, "note": 54, "velocity": 23, "channel": 0}, {"type": "note_on", "time": 61, "note": 57, "velocity": 83, "channel": 0}, {"type": "note_off", "time": 356, "note": 57, "velocity": 83, "channel": 0}, {"type": "note_on", "time": 79, "note": 58, "velocity": 102, "channel": 0}, {"type": "note_off", "time": 226, "note": 58, "velocity": 102, "channel": 0}, {"type": "note_on", "time": 82, "note": 62, "velocity": 78, "channel": 0}, {"type": "note_off", "time": 251, "note": 62, "velocity": 78, "channel": 0}, {"type": "note_on", "time": 34, "note": 57, "velocity": 9, "channel": 0}, {"type": "note_off", "time": 217, "note": 57, "velocity": 9, "channel": 0}, {"type": "note_on", "time": 32, "note": 56, "velocity": 23, "channel": 0}, {"type": "note_off", "time": 264, "note": 56, "velocity": 23, "channel": 0}, {"type": "note_on", "time": 27, "note": 62, "velocity": 97, "channel": 0}, {"type": "note_off", "time": 212, "note": 62, "velocity": 97, "channel": 0}, {"type": "note_on", "time": 41, "note": 59, "velocity": 102, "channel": 0}, {"type": "note_off", "time": 276, "note": 59, "velocity": 102, "channel": 0}, {"type": "note_on", "time": 104, "note": 60, "velocity": 9, "channel": 0}, {"type": "note_off", "time": 264, "note": 60, "velocity": 9, "channel": 0}, {"type": "note_on", "time": 44, "note": 61, "velocity": 9, "channel": 0}, {"type": "note_off", "time": 264, "note": 61, "velocity": 9, "channel": 0}, {"type": "note_on", "time": 37, "note": 62, "velocity": 62, "channel": 0}, {"type": "note_off", "time": 165, "note": 62, "velocity": 62, "channel": 0}, {"type": "note_on", "time": 17, "note": 63, "velocity": 97, "channel": 0}, {"type": "note_off", "time": 183, "note": 63, "velocity": 97, "channel": 0}, {"type": "note_on", "time": 35, "note": 62, "velocity": 105, "channel": 0}, {"type": "note_off", "time": 370, "note": 62, "velocity": 105, "channel": 0}, {"type": "note_on", "time": 97, "note": 64, "velocity": 9, "channel": 0}, {"type": "note_off", "time": 237, "note": 64, "velocity": 9, "channel": 0}, {"type": "note_on", "time": 57, "note": 65, "velocity": 50, "channel": 0}, {"type": "note_off", "time": 291, "note": 65, "velocity": 50, "channel": 0}, {"type": "note_on", "time": 89, "note": 67, "velocity": 104, "channel": 0}, {"type": "note_off", "time": 240, "note": 67, "velocity": 104, "channel": 0}, {"type": "note_on", "time": 68, "note": 65, "velocity": 99, "channel": 0}, {"type": "note_off", "time": 352, "note": 65, "velocity": 99, "channel": 0}, {"type": "note_on", "time": 189, "note": 62, "velocity": 110, "channel": 0}, {"type": "note_off", "time": 356, "note": 62, "velocity": 110, "channel": 0}, {"type": "note_on", "time": 34, "note": 60, "velocity": 100, "channel": 0}, {"type": "note_off", "time": 585, "note": 60, "velocity": 100, "channel": 0}, {"type": "note_on", "time": 28, "note": 57, "velocity": 95, "channel": 0}, {"type": "note_off", "time": 1233, "note": 57, "velocity": 95, "channel": 0}, {"type": "note_on", "time": 2161, "note": 61, "velocity": 9, "channel": 0}, {"type": "note_off", "time": 240, "note": 61, "velocity": 9, "channel": 0}, {"type": "note_on", "time": 43, "note": 62, "velocity": 9, "channel": 0}, {"type": "note_off", "time": 291, "note": 62, "velocity": 9, "channel": 0}, {"type": "note_on", "time": 61, "note": 65, "velocity": 9, "channel": 0}, {"type": "note_off", "time": 438, "note": 65, "velocity": 9, "channel": 0}, {"type": "note_on", "time": 122, "note": 62, "velocity": 9, "channel": 0}, {"type": "note_off", "time": 352, "note": 62, "velocity": 9, "channel": 0}, {"type": "note_on", "time": 79, "note": 61, "velocity": 9, "channel": 0}, {"type": "note_off", "time": 348, "note": 61, "velocity": 9, "channel": 0}, {"type": "note_on", "time": 125, "note": 57, "velocity": 85, "channel": 0}, {"type": "note_off", "time": 769, "note": 57, "velocity": 85, "channel": 0}, {"type": "note_on", "time": 6512, "note": 67, "velocity": 9, "channel": 0}, {"type": "note_off", "time": 647, "note": 67, "velocity": 9, "channel": 0}, {"type": "note_on", "time": 79, "note": 68, "velocity": 9, "channel": 0}, {"type": "note_off", "time": 517, "note": 68, "velocity": 9, "channel": 0}, {"type": "note_on", "time": 136, "note": 66, "velocity": 9, "channel": 0}, {"type": "note_off", "time": 395, "note": 66, "velocity": 9, "channel": 0}, {"type": "note_on", "time": 165, "note": 67, "velocity": 9, "channel": 0}, {"type": "note_off", "time": 1132, "note": 67, "velocity": 9, "channel": 0}, {"type": "note_on", "time": 156, "note": 66, "velocity": 9, "channel": 0}, {"type": "note_off", "time": 268, "note": 66, "velocity": 9, "channel": 0}, {"type": "note_on", "time": 354, "note": 67, "velocity": 61, "channel": 0}, {"type": "note_off", "time": 687, "note": 67, "velocity": 61, "channel": 0}, {"type": "note_on", "time": 50, "note": 68, "velocity": 109, "channel": 0}, {"type": "note_off", "time": 409, "note": 68, "velocity": 109, "channel": 0}, {"type": "note_on", "time": 85, "note": 66, "velocity": 89, "channel": 0}, {"type": "note_off", "time": 551, "note": 66, "velocity": 89, "channel": 0}, {"type": "note_on", "time": 303, "note": 67, "velocity": 95, "channel": 0}, {"type": "note_off", "time": 384, "note": 67, "velocity": 95, "channel": 0}, {"type": "note_on", "time": 60, "note": 68, "velocity": 103, "channel": 0}, {"type": "note_off", "time": 485, "note": 68, "velocity": 103, "channel": 0}, {"type": "note_on", "time": 5857, "note": 67, "velocity": 9, "channel": 0}, {"type": "note_off", "time": 618, "note": 67, "velocity": 9, "channel": 0}, {"type": "note_on", "time": 1157, "note": 67, "velocity": 112, "channel": 0}, {"type": "note_off", "time": 618, "note": 67, "velocity": 112, "channel": 0}, {"type": "note_on", "time": 100, "note": 68, "velocity": 109, "channel": 0}, {"type": "note_off", "time": 582, "note": 68, "velocity": 109, "channel": 0}, {"type": "note_on", "time": 100, "note": 66, "velocity": 107, "channel": 0}, {"type": "note_off", "time": 481, "note": 66, "velocity": 107, "channel": 0}, {"type": "note_on", "time": 201, "note": 67, "velocity": 95, "channel": 0}, {"type": "note_off", "time": 532, "note": 67, "velocity": 95, "channel": 0}, {"type": "note_on", "time": 5667, "note": 66, "velocity": 107, "channel": 0}, {"type": "note_off", "time": 576, "note": 66, "velocity": 107, "channel": 0}, {"type": "note_on", "time": 113, "note": 67, "velocity": 107, "channel": 0}, {"type": "note_off", "time": 460, "note": 67, "velocity": 107, "channel": 0}, {"type": "note_on", "time": 165, "note": 66, "velocity": 106, "channel": 0}, {"type": "note_off", "time": 273, "note": 66, "velocity": 106, "channel": 0}, {"type": "note_on", "time": 124, "note": 67, "velocity": 106, "channel": 0}, {"type": "note_off", "time": 627, "note": 67, "velocity": 106, "channel": 0}, {"type": "note_on", "time": 91, "note": 68, "velocity": 104, "channel": 0}, {"type": "note_off", "time": 465, "note": 68, "velocity": 104, "channel": 0}, {"type": "note_on", "time": 187, "note": 66, "velocity": 105, "channel": 0}, {"type": "note_off", "time": 532, "note": 66, "velocity": 105, "channel": 0}, {"type": "note_on", "time": 230, "note": 67, "velocity": 97, "channel": 0}, {"type": "note_off", "time": 455, "note": 67, "velocity": 97, "channel": 0}, {"type": "note_on", "time": 77, "note": 68, "velocity": 102, "channel": 0}, {"type": "note_off", "time": 404, "note": 68, "velocity": 102, "channel": 0}, {"type": "note_on", "time": 5172, "note": 67, "velocity": 9, "channel": 0}, {"type": "note_off", "time": 738, "note": 67, "velocity": 9, "channel": 0}, {"type": "note_on", "time": 111, "note": 68, "velocity": 9, "channel": 0}, {"type": "note_off", "time": 414, "note": 68, "velocity": 9, "channel": 0}, {"type": "note_on", "time": 161, "note": 66, "velocity": 9, "channel": 0}, {"type": "note_off", "time": 485, "note": 66, "velocity": 9, "channel": 0}, {"type": "note_on", "time": 151, "note": 67, "velocity": 9, "channel": 0}, {"type": "note_off", "time": 453, "note": 67, "velocity": 9, "channel": 0}, {"type": "note_on", "time": 93, "note": 68, "velocity": 9, "channel": 0}, {"type": "note_off", "time": 388, "note": 68, "velocity": 9, "channel": 0}, {"type": "note_on", "time": 127, "note": 66, "velocity": 9, "channel": 0}, {"type": "note_off", "time": 475, "note": 66, "velocity": 9, "channel": 0}, {"type": "note_on", "time": 374, "note": 67, "velocity": 9, "channel": 0}, {"type": "note_off", "time": 434, "note": 67, "velocity": 9, "channel": 0}, {"type": "note_on", "time": 111, "note": 68, "velocity": 9, "channel": 0}, {"type": "note_off", "time": 465, "note": 68, "velocity": 9, "channel": 0}, {"type": "note_on", "time": 202, "note": 66, "velocity": 9, "channel": 0}, {"type": "note_off", "time": 627, "note": 66, "velocity": 9, "channel": 0}, {"type": "note_on", "time": 151, "note": 68, "velocity": 9, "channel": 0}, {"type": "note_off", "time": 424, "note": 68, "velocity": 9, "channel": 0}, {"type": "note_on", "time": 121, "note": 66, "velocity": 9, "channel": 0}, {"type": "note_off", "time": 445, "note": 66, "velocity": 9, "channel": 0}, {"type": "note_on", "time": 121, "note": 67, "velocity": 9, "channel": 0}, {"type": "note_off", "time": 505, "note": 67, "velocity": 9, "channel": 0}, {"type": "note_on", "time": 131, "note": 68, "velocity": 9, "channel": 0}, {"type": "note_off", "time": 424, "note": 68, "velocity": 9, "channel": 0}, {"type": "note_on", "time": 60, "note": 66, "velocity": 9, "channel": 0}, {"type": "note_off", "time": 399, "note": 66, "velocity": 9, "channel": 0}, {"type": "note_on", "time": 60, "note": 67, "velocity": 9, "channel": 0}, {"type": "note_off", "time": 637, "note": 67, "velocity": 9, "channel": 0}, {"type": "note_on", "time": 106, "note": 68, "velocity": 9, "channel": 0}, {"type": "note_off", "time": 551, "note": 68, "velocity": 9, "channel": 0}, {"type": "note_on", "time": 404, "note": 67, "velocity": 9, "channel": 0}, {"type": "note_off", "time": 525, "note": 67, "velocity": 9, "channel": 0}, {"type": "note_on", "time": 99, "note": 68, "velocity": 9, "channel": 0}, {"type": "note_off", "time": 467, "note": 68, "velocity": 9, "channel": 0}, {"type": "note_on", "time": 115, "note": 66, "velocity": 9, "channel": 0}, {"type": "note_off", "time": 553, "note": 66, "velocity": 9, "channel": 0}, {"type": "note_on", "time": 64, "note": 67, "velocity": 9, "channel": 0}, {"type": "note_off", "time": 338, "note": 67, "velocity": 9, "channel": 0}, {"type": "note_on", "time": 100, "note": 68, "velocity": 9, "channel": 0}, {"type": "note_off", "time": 489, "note": 68, "velocity": 9, "channel": 0}, {"type": "note_on", "time": 172, "note": 66, "velocity": 9, "channel": 0}, {"type": "note_off", "time": 460, "note": 66, "velocity": 9, "channel": 0}, {"type": "note_on", "time": 138, "note": 67, "velocity": 9, "channel": 0}, {"type": "note_off", "time": 460, "note": 67, "velocity": 9, "channel": 0}, {"type": "note_on", "time": 95, "note": 68, "velocity": 9, "channel": 0}, {"type": "note_off", "time": 338, "note": 68, "velocity": 9, "channel": 0}, {"type": "note_on", "time": 5641, "note": 67, "velocity": 105, "channel": 0}, {"type": "note_off", "time": 561, "note": 67, "velocity": 105, "channel": 0}, {"type": "note_on", "time": 79, "note": 68, "velocity": 111, "channel": 0}, {"type": "note_off", "time": 438, "note": 68, "velocity": 111, "channel": 0}, {"type": "note_on", "time": 187, "note": 66, "velocity": 107, "channel": 0}, {"type": "note_off", "time": 481, "note": 66, "velocity": 107, "channel": 0}, {"type": "note_on", "time": 136, "note": 67, "velocity": 110, "channel": 0}, {"type": "note_off", "time": 589, "note": 67, "velocity": 110, "channel": 0}, {"type": "note_on", "time": 129, "note": 68, "velocity": 111, "channel": 0}, {"type": "note_off", "time": 302, "note": 68, "velocity": 111, "channel": 0}, {"type": "note_on", "time": 151, "note": 66, "velocity": 105, "channel": 0}, {"type": "note_off", "time": 395, "note": 66, "velocity": 105, "channel": 0}, {"type": "note_on", "time": 280, "note": 67, "velocity": 113, "channel": 0}, {"type": "note_off", "time": 568, "note": 67, "velocity": 113, "channel": 0}, {"type": "note_on", "time": 64, "note": 68, "velocity": 110, "channel": 0}, {"type": "note_off", "time": 388, "note": 68, "velocity": 110, "channel": 0}, {"type": "note_on", "time": 5307, "note": 67, "velocity": 9, "channel": 0}, {"type": "note_off", "time": 515, "note": 67, "velocity": 9, "channel": 0}, {"type": "note_on", "time": 55, "note": 68, "velocity": 9, "channel": 0}, {"type": "note_off", "time": 475, "note": 68, "velocity": 9, "channel": 0}, {"type": "note_on", "time": 227, "note": 66, "velocity": 9, "channel": 0}, {"type": "note_off", "time": 404, "note": 66, "velocity": 9, "channel": 0}, {"type": "note_on", "time": 354, "note": 67, "velocity": 9, "channel": 0}, {"type": "note_off", "time": 429, "note": 67, "velocity": 9, "channel": 0}, {"type": "note_on", "time": 111, "note": 68, "velocity": 9, "channel": 0}, {"type": "note_off", "time": 399, "note": 68, "velocity": 9, "channel": 0}, {"type": "note_on", "time": 146, "note": 66, "velocity": 9, "channel": 0}, {"type": "note_off", "time": 384, "note": 66, "velocity": 9, "channel": 0}, {"type": "note_on", "time": 60, "note": 67, "velocity": 9, "channel": 0}, {"type": "note_off", "time": 556, "note": 67, "velocity": 9, "channel": 0}, {"type": "note_on", "time": 141, "note": 68, "velocity": 9, "channel": 0}, {"type": "note_off", "time": 510, "note": 68, "velocity": 9, "channel": 0}, {"type": "note_on", "time": 5224, "note": 67, "velocity": 104, "channel": 0}, {"type": "note_off", "time": 455, "note": 67, "velocity": 104, "channel": 0}, {"type": "note_on", "time": 91, "note": 68, "velocity": 86, "channel": 0}, {"type": "note_off", "time": 647, "note": 68, "velocity": 86, "channel": 0}, {"type": "note_on", "time": 123, "note": 66, "velocity": 105, "channel": 0}, {"type": "note_off", "time": 589, "note": 66, "velocity": 105, "channel": 0}, {"type": "note_on", "time": 227, "note": 67, "velocity": 105, "channel": 0}, {"type": "note_off", "time": 490, "note": 67, "velocity": 105, "channel": 0}, {"type": "note_on", "time": 60, "note": 68, "velocity": 72, "channel": 0}, {"type": "note_off", "time": 434, "note": 68, "velocity": 72, "channel": 0}, {"type": "note_on", "time": 288, "note": 66, "velocity": 72, "channel": 0}, {"type": "note_off", "time": 470, "note": 66, "velocity": 72, "channel": 0}, {"type": "note_on", "time": 141, "note": 67, "velocity": 108, "channel": 0}, {"type": "note_off", "time": 576, "note": 67, "velocity": 108, "channel": 0}, {"type": "note_on", "time": 50, "note": 68, "velocity": 92, "channel": 0}, {"type": "note_off", "time": 338, "note": 68, "velocity": 92, "channel": 0}, {"type": "note_on", "time": 55, "note": 66, "velocity": 96, "channel": 0}, {"type": "note_off", "time": 657, "note": 66, "velocity": 96, "channel": 0}, {"type": "note_on", "time": 85, "note": 67, "velocity": 93, "channel": 0}, {"type": "note_off", "time": 586, "note": 67, "velocity": 93, "channel": 0}, {"type": "note_on", "time": 116, "note": 68, "velocity": 114, "channel": 0}, {"type": "note_off", "time": 384, "note": 68, "velocity": 114, "channel": 0}, {"type": "note_on", "time": 207, "note": 66, "velocity": 79, "channel": 0}, {"type": "note_off", "time": 455, "note": 66, "velocity": 79, "channel": 0}, {"type": "note_on", "time": 75, "note": 67, "velocity": 114, "channel": 0}, {"type": "note_off", "time": 647, "note": 67, "velocity": 114, "channel": 0}, {"type": "note_on", "time": 106, "note": 68, "velocity": 83, "channel": 0}, {"type": "note_off", "time": 404, "note": 68, "velocity": 83, "channel": 0}, {"type": "note_on", "time": 65, "note": 66, "velocity": 106, "channel": 0}, {"type": "note_off", "time": 637, "note": 66, "velocity": 106, "channel": 0}, {"type": "note_on", "time": 2007, "note": 73, "velocity": 105, "channel": 0}, {"type": "note_off", "time": 500, "note": 73, "velocity": 105, "channel": 0}, {"type": "note_on", "time": 788, "note": 71, "velocity": 113, "channel": 0}, {"type": "note_off", "time": 399, "note": 71, "velocity": 113, "channel": 0}, {"type": "note_on", "time": 25, "note": 72, "velocity": 107, "channel": 0}, {"type": "note_off", "time": 733, "note": 72, "velocity": 107, "channel": 0}, {"type": "note_on", "time": 166, "note": 69, "velocity": 88, "channel": 0}, {"type": "note_off", "time": 480, "note": 69, "velocity": 88, "channel": 0}, {"type": "note_on", "time": 12121, "note": 76, "velocity": 102, "channel": 0}, {"type": "note_off", "time": 12450, "note": 76, "velocity": 102, "channel": 0}, {"type": "note_on", "time": 298, "note": 74, "velocity": 9, "channel": 0}, {"type": "note_off", "time": 389, "note": 74, "velocity": 9, "channel": 0}, {"type": "note_on", "time": 370, "note": 77, "velocity": 124, "channel": 0}, {"type": "note_off", "time": 330, "note": 77, "velocity": 124, "channel": 0}, {"type": "note_on", "time": 417, "note": 79, "velocity": 84, "channel": 0}, {"type": "note_off", "time": 294, "note": 79, "velocity": 84, "channel": 0}, {"type": "note_on", "time": 100, "note": 76, "velocity": 127, "channel": 0}, {"type": "note_off", "time": 316, "note": 76, "velocity": 127, "channel": 0}, {"type": "note_on", "time": 388, "note": 74, "velocity": 122, "channel": 0}, {"type": "note_off", "time": 294, "note": 74, "velocity": 122, "channel": 0}, {"type": "note_on", "time": 381, "note": 71, "velocity": 120, "channel": 0}, {"type": "note_off", "time": 323, "note": 71, "velocity": 120, "channel": 0}, {"type": "note_on", "time": 237, "note": 69, "velocity": 118, "channel": 0}, {"type": "note_off", "time": 352, "note": 69, "velocity": 118, "channel": 0}, {"type": "note_on", "time": 309, "note": 71, "velocity": 9, "channel": 0}, {"type": "note_off", "time": 302, "note": 71, "velocity": 9, "channel": 0}, {"type": "note_on", "time": 338, "note": 67, "velocity": 9, "channel": 0}, {"type": "note_off", "time": 293, "note": 67, "velocity": 9, "channel": 0}, {"type": "note_on", "time": 232, "note": 69, "velocity": 9, "channel": 0}, {"type": "note_off", "time": 298, "note": 69, "velocity": 9, "channel": 0}, {"type": "note_on", "time": 394, "note": 64, "velocity": 9, "channel": 0}, {"type": "note_off", "time": 338, "note": 64, "velocity": 9, "channel": 0}, {"type": "note_on", "time": 166, "note": 67, "velocity": 9, "channel": 0}, {"type": "note_off", "time": 323, "note": 67, "velocity": 9, "channel": 0}, {"type": "note_on", "time": 364, "note": 62, "velocity": 9, "channel": 0}, {"type": "note_off", "time": 384, "note": 62, "velocity": 9, "channel": 0}, {"type": "note_on", "time": 156, "note": 64, "velocity": 9, "channel": 0}, {"type": "note_off", "time": 354, "note": 64, "velocity": 9, "channel": 0}, {"type": "note_on", "time": 328, "note": 59, "velocity": 9, "channel": 0}, {"type": "note_off", "time": 429, "note": 59, "velocity": 9, "channel": 0}, {"type": "note_on", "time": 323, "note": 61, "velocity": 9, "channel": 0}, {"type": "note_off", "time": 288, "note": 61, "velocity": 9, "channel": 0}, {"type": "note_on", "time": 374, "note": 57, "velocity": 9, "channel": 0}, {"type": "note_off", "time": 399, "note": 57, "velocity": 9, "channel": 0}, {"type": "note_on", "time": 247, "note": 59, "velocity": 9, "channel": 0}, {"type": "note_off", "time": 252, "note": 59, "velocity": 9, "channel": 0}, {"type": "note_on", "time": 303, "note": 55, "velocity": 9, "channel": 0}, {"type": "note_off", "time": 374, "note": 55, "velocity": 9, "channel": 0}, {"type": "note_on", "time": 177, "note": 57, "velocity": 9, "channel": 0}, {"type": "note_off", "time": 354, "note": 57, "velocity": 9, "channel": 0}, {"type": "note_on", "time": 268, "note": 52, "velocity": 9, "channel": 0}, {"type": "note_off", "time": 556, "note": 52, "velocity": 9, "channel": 0}, {"type": "note_on", "time": 242, "note": 55, "velocity": 96, "channel": 0}, {"type": "note_off", "time": 318, "note": 55, "velocity": 96, "channel": 0}, {"type": "note_on", "time": 310, "note": 50, "velocity": 9, "channel": 0}, {"type": "note_off", "time": 728, "note": 50, "velocity": 9, "channel": 0}, {"type": "note_on", "time": 10038, "note": 79, "velocity": 120, "channel": 0}, {"type": "note_off", "time": 517, "note": 79, "velocity": 120, "channel": 0}, {"type": "note_on", "time": 668, "note": 81, "velocity": 9, "channel": 0}, {"type": "note_off", "time": 528, "note": 81, "velocity": 9, "channel": 0}, {"type": "note_on", "time": 598, "note": 76, "velocity": 115, "channel": 0}, {"type": "note_off", "time": 269, "note": 76, "velocity": 115, "channel": 0}, {"type": "note_on", "time": 29, "note": 79, "velocity": 105, "channel": 0}, {"type": "note_off", "time": 247, "note": 79, "velocity": 105, "channel": 0}, {"type": "note_on", "time": 29, "note": 78, "velocity": 106, "channel": 0}, {"type": "note_off", "time": 182, "note": 78, "velocity": 106, "channel": 0}, {"type": "note_on", "time": 50, "note": 74, "velocity": 105, "channel": 0}, {"type": "note_off", "time": 374, "note": 74, "velocity": 105, "channel": 0}, {"type": "note_on", "time": 343, "note": 76, "velocity": 109, "channel": 0}, {"type": "note_off", "time": 283, "note": 76, "velocity": 109, "channel": 0}, {"type": "note_on", "time": 268, "note": 71, "velocity": 111, "channel": 0}, {"type": "note_off", "time": 348, "note": 71, "velocity": 111, "channel": 0}, {"type": "note_on", "time": 217, "note": 74, "velocity": 109, "channel": 0}, {"type": "note_off", "time": 394, "note": 74, "velocity": 109, "channel": 0}, {"type": "note_on", "time": 394, "note": 69, "velocity": 105, "channel": 0}, {"type": "note_off", "time": 318, "note": 69, "velocity": 105, "channel": 0}, {"type": "note_on", "time": 166, "note": 71, "velocity": 110, "channel": 0}, {"type": "note_off", "time": 252, "note": 71, "velocity": 110, "channel": 0}, {"type": "note_on", "time": 252, "note": 67, "velocity": 108, "channel": 0}, {"type": "note_off", "time": 262, "note": 67, "velocity": 108, "channel": 0}, {"type": "note_on", "time": 50, "note": 68, "velocity": 110, "channel": 0}, {"type": "note_off", "time": 298, "note": 68, "velocity": 110, "channel": 0}, {"type": "note_on", "time": 91, "note": 64, "velocity": 110, "channel": 0}, {"type": "note_off", "time": 293, "note": 64, "velocity": 110, "channel": 0}, {"type": "note_on", "time": 308, "note": 67, "velocity": 101, "channel": 0}, {"type": "note_off", "time": 338, "note": 67, "velocity": 101, "channel": 0}, {"type": "note_on", "time": 303, "note": 62, "velocity": 98, "channel": 0}, {"type": "note_off", "time": 348, "note": 62, "velocity": 98, "channel": 0}, {"type": "note_on", "time": 35, "note": 64, "velocity": 9, "channel": 0}, {"type": "note_off", "time": 333, "note": 64, "velocity": 9, "channel": 0}, {"type": "note_on", "time": 101, "note": 59, "velocity": 9, "channel": 0}, {"type": "note_off", "time": 333, "note": 59, "velocity": 9, "channel": 0}, {"type": "note_on", "time": 288, "note": 62, "velocity": 9, "channel": 0}, {"type": "note_off", "time": 328, "note": 62, "velocity": 9, "channel": 0}, {"type": "note_on", "time": 348, "note": 57, "velocity": 9, "channel": 0}, {"type": "note_off", "time": 293, "note": 57, "velocity": 9, "channel": 0}, {"type": "note_on", "time": 171, "note": 59, "velocity": 33, "channel": 0}, {"type": "note_off", "time": 278, "note": 59, "velocity": 33, "channel": 0}, {"type": "note_on", "time": 469, "note": 55, "velocity": 111, "channel": 0}, {"type": "note_off", "time": 215, "note": 55, "velocity": 111, "channel": 0}, {"type": "note_on", "time": 25, "note": 57, "velocity": 110, "channel": 0}, {"type": "note_off", "time": 237, "note": 57, "velocity": 110, "channel": 0}, {"type": "note_on", "time": 136, "note": 52, "velocity": 117, "channel": 0}, {"type": "note_off", "time": 341, "note": 52, "velocity": 117, "channel": 0}, {"type": "note_on", "time": 169, "note": 55, "velocity": 116, "channel": 0}, {"type": "note_off", "time": 309, "note": 55, "velocity": 116, "channel": 0}, {"type": "note_on", "time": 363, "note": 50, "velocity": 115, "channel": 0}, {"type": "note_off", "time": 309, "note": 50, "velocity": 115, "channel": 0}, {"type": "note_on", "time": 273, "note": 52, "velocity": 113, "channel": 0}, {"type": "note_off", "time": 413, "note": 52, "velocity": 113, "channel": 0}, {"type": "note_on", "time": 330, "note": 47, "velocity": 116, "channel": 0}, {"type": "note_off", "time": 320, "note": 47, "velocity": 116, "channel": 0}, {"type": "note_on", "time": 247, "note": 50, "velocity": 113, "channel": 0}, {"type": "note_off", "time": 394, "note": 50, "velocity": 113, "channel": 0}, {"type": "note_on", "time": 323, "note": 45, "velocity": 115, "channel": 0}, {"type": "note_off", "time": 844, "note": 45, "velocity": 115, "channel": 0}, {"type": "note_on", "time": 176, "note": 47, "velocity": 115, "channel": 0}, {"type": "note_off", "time": 1330, "note": 47, "velocity": 115, "channel": 0}, {"type": "note_on", "time": 117, "note": 50, "velocity": 117, "channel": 0}, {"type": "note_off", "time": 1064, "note": 50, "velocity": 117, "channel": 0}, {"type": "note_on", "time": 345, "note": 52, "velocity": 117, "channel": 0}, {"type": "note_off", "time": 1431, "note": 52, "velocity": 117, "channel": 0}, {"type": "note_on", "time": 11181, "note": 68, "velocity": 9, "channel": 0}, {"type": "note_off", "time": 171, "note": 68, "velocity": 9, "channel": 0}, {"type": "note_on", "time": 45, "note": 71, "velocity": 9, "channel": 0}, {"type": "note_off", "time": 394, "note": 71, "velocity": 9, "channel": 0}, {"type": "note_on", "time": 0, "note": 73, "velocity": 9, "channel": 0}, {"type": "note_off", "time": 394, "note": 73, "velocity": 9, "channel": 0}, {"type": "note_on", "time": 298, "note": 68, "velocity": 9, "channel": 0}, {"type": "note_off", "time": 374, "note": 68, "velocity": 9, "channel": 0}, {"type": "note_on", "time": 207, "note": 71, "velocity": 9, "channel": 0}, {"type": "note_off", "time": 207, "note": 71, "velocity": 9, "channel": 0}, {"type": "note_on", "time": 40, "note": 66, "velocity": 9, "channel": 0}, {"type": "note_off", "time": 293, "note": 66, "velocity": 9, "channel": 0}, {"type": "note_on", "time": 75, "note": 64, "velocity": 9, "channel": 0}, {"type": "note_off", "time": 323, "note": 64, "velocity": 9, "channel": 0}, {"type": "note_on", "time": 429, "note": 68, "velocity": 9, "channel": 0}, {"type": "note_off", "time": 217, "note": 68, "velocity": 9, "channel": 0}, {"type": "note_on", "time": 232, "note": 66, "velocity": 9, "channel": 0}, {"type": "note_off", "time": 404, "note": 66, "velocity": 9, "channel": 0}, {"type": "note_on", "time": 372, "note": 61, "velocity": 9, "channel": 0}, {"type": "note_off", "time": 229, "note": 61, "velocity": 9, "channel": 0}, {"type": "note_on", "time": 50, "note": 66, "velocity": 9, "channel": 0}, {"type": "note_off", "time": 249, "note": 66, "velocity": 9, "channel": 0}, {"type": "note_on", "time": 81, "note": 63, "velocity": 9, "channel": 0}, {"type": "note_off", "time": 309, "note": 63, "velocity": 9, "channel": 0}, {"type": "note_on", "time": 388, "note": 59, "velocity": 9, "channel": 0}, {"type": "note_off", "time": 381, "note": 59, "velocity": 9, "channel": 0}, {"type": "note_on", "time": 280, "note": 61, "velocity": 9, "channel": 0}, {"type": "note_off", "time": 273, "note": 61, "velocity": 9, "channel": 0}, {"type": "note_on", "time": 334, "note": 56, "velocity": 9, "channel": 0}, {"type": "note_off", "time": 269, "note": 56, "velocity": 9, "channel": 0}, {"type": "note_on", "time": 330, "note": 59, "velocity": 9, "channel": 0}, {"type": "note_off", "time": 327, "note": 59, "velocity": 9, "channel": 0}, {"type": "note_on", "time": 323, "note": 54, "velocity": 9, "channel": 0}, {"type": "note_off", "time": 266, "note": 54, "velocity": 9, "channel": 0}, {"type": "note_on", "time": 184, "note": 52, "velocity": 70, "channel": 0}, {"type": "note_off", "time": 268, "note": 52, "velocity": 70, "channel": 0}, {"type": "note_on", "time": 475, "note": 54, "velocity": 117, "channel": 0}, {"type": "note_off", "time": 434, "note": 54, "velocity": 117, "channel": 0}, {"type": "note_on", "time": 50, "note": 49, "velocity": 114, "channel": 0}, {"type": "note_off", "time": 495, "note": 49, "velocity": 114, "channel": 0}, {"type": "note_on", "time": 116, "note": 59, "velocity": 119, "channel": 0}, {"type": "note_off", "time": 338, "note": 59, "velocity": 119, "channel": 0}, {"type": "note_on", "time": 227, "note": 52, "velocity": 109, "channel": 0}, {"type": "note_off", "time": 343, "note": 52, "velocity": 109, "channel": 0}, {"type": "note_on", "time": 338, "note": 54, "velocity": 123, "channel": 0}, {"type": "note_off", "time": 242, "note": 54, "velocity": 123, "channel": 0}, {"type": "note_on", "time": 154, "note": 52, "velocity": 99, "channel": 0}, {"type": "note_off", "time": 244, "note": 52, "velocity": 99, "channel": 0}, {"type": "note_on", "time": 107, "note": 49, "velocity": 111, "channel": 0}, {"type": "note_off", "time": 417, "note": 49, "velocity": 111, "channel": 0}, {"type": "note_on", "time": 251, "note": 59, "velocity": 113, "channel": 0}, {"type": "note_off", "time": 280, "note": 59, "velocity": 113, "channel": 0}, {"type": "note_on", "time": 201, "note": 54, "velocity": 107, "channel": 0}, {"type": "note_off", "time": 424, "note": 54, "velocity": 107, "channel": 0}, {"type": "note_on", "time": 467, "note": 52, "velocity": 116, "channel": 0}, {"type": "note_off", "time": 338, "note": 52, "velocity": 116, "channel": 0}, {"type": "note_on", "time": 79, "note": 54, "velocity": 112, "channel": 0}, {"type": "note_off", "time": 395, "note": 54, "velocity": 112, "channel": 0}, {"type": "note_on", "time": 107, "note": 49, "velocity": 108, "channel": 0}, {"type": "note_off", "time": 733, "note": 49, "velocity": 108, "channel": 0}, {"type": "note_on", "time": 172, "note": 59, "velocity": 99, "channel": 0}, {"type": "note_off", "time": 366, "note": 59, "velocity": 99, "channel": 0}, {"type": "note_on", "time": 424, "note": 52, "velocity": 101, "channel": 0}, {"type": "note_off", "time": 280, "note": 52, "velocity": 101, "channel": 0}, {"type": "note_on", "time": 194, "note": 56, "velocity": 113, "channel": 0}, {"type": "note_off", "time": 384, "note": 56, "velocity": 113, "channel": 0}, {"type": "note_on", "time": 240, "note": 54, "velocity": 116, "channel": 0}, {"type": "note_off", "time": 204, "note": 54, "velocity": 116, "channel": 0}, {"type": "note_on", "time": 57, "note": 51, "velocity": 105, "channel": 0}, {"type": "note_off", "time": 244, "note": 51, "velocity": 105, "channel": 0}, {"type": "note_on", "time": 81, "note": 59, "velocity": 113, "channel": 0}, {"type": "note_off", "time": 312, "note": 59, "velocity": 113, "channel": 0}, {"type": "note_on", "time": 379, "note": 54, "velocity": 125, "channel": 0}, {"type": "note_off", "time": 338, "note": 54, "velocity": 125, "channel": 0}, {"type": "note_on", "time": 141, "note": 52, "velocity": 116, "channel": 0}, {"type": "note_off", "time": 268, "note": 52, "velocity": 116, "channel": 0}, {"type": "note_on", "time": 445, "note": 56, "velocity": 109, "channel": 0}, {"type": "note_off", "time": 318, "note": 56, "velocity": 109, "channel": 0}, {"type": "note_on", "time": 111, "note": 54, "velocity": 109, "channel": 0}, {"type": "note_off", "time": 207, "note": 54, "velocity": 109, "channel": 0}, {"type": "note_on", "time": 80, "note": 52, "velocity": 115, "channel": 0}, {"type": "note_off", "time": 313, "note": 52, "velocity": 115, "channel": 0}, {"type": "note_on", "time": 211, "note": 59, "velocity": 107, "channel": 0}, {"type": "note_off", "time": 489, "note": 59, "velocity": 107, "channel": 0}, {"type": "note_on", "time": 381, "note": 54, "velocity": 117, "channel": 0}, {"type": "note_off", "time": 266, "note": 54, "velocity": 117, "channel": 0}, {"type": "note_on", "time": 258, "note": 52, "velocity": 110, "channel": 0}, {"type": "note_off", "time": 359, "note": 52, "velocity": 110, "channel": 0}, {"type": "note_on", "time": 222, "note": 56, "velocity": 105, "channel": 0}, {"type": "note_off", "time": 338, "note": 56, "velocity": 105, "channel": 0}, {"type": "note_on", "time": 323, "note": 52, "velocity": 109, "channel": 0}, {"type": "note_off", "time": 381, "note": 52, "velocity": 109, "channel": 0}, {"type": "note_on", "time": 151, "note": 59, "velocity": 112, "channel": 0}, {"type": "note_off", "time": 402, "note": 59, "velocity": 112, "channel": 0}, {"type": "note_on", "time": 229, "note": 54, "velocity": 116, "channel": 0}, {"type": "note_off", "time": 298, "note": 54, "velocity": 116, "channel": 0}, {"type": "note_on", "time": 237, "note": 52, "velocity": 110, "channel": 0}, {"type": "note_off", "time": 394, "note": 52, "velocity": 110, "channel": 0}, {"type": "note_on", "time": 192, "note": 56, "velocity": 126, "channel": 0}, {"type": "note_off", "time": 316, "note": 56, "velocity": 126, "channel": 0}, {"type": "note_on", "time": 409, "note": 54, "velocity": 119, "channel": 0}, {"type": "note_off", "time": 330, "note": 54, "velocity": 119, "channel": 0}, {"type": "note_on", "time": 366, "note": 53, "velocity": 108, "channel": 0}, {"type": "note_off", "time": 364, "note": 53, "velocity": 108, "channel": 0}, {"type": "note_on", "time": 315, "note": 59, "velocity": 115, "channel": 0}, {"type": "note_off", "time": 414, "note": 59, "velocity": 115, "channel": 0}, {"type": "note_on", "time": 768, "note": 61, "velocity": 113, "channel": 0}, {"type": "note_off", "time": 505, "note": 61, "velocity": 113, "channel": 0}, {"type": "note_on", "time": 384, "note": 59, "velocity": 116, "channel": 0}, {"type": "note_off", "time": 364, "note": 59, "velocity": 116, "channel": 0}, {"type": "note_on", "time": 606, "note": 61, "velocity": 108, "channel": 0}, {"type": "note_off", "time": 424, "note": 61, "velocity": 108, "channel": 0}, {"type": "note_on", "time": 15191, "note": 62, "velocity": 86, "channel": 0}, {"type": "note_off", "time": 510, "note": 62, "velocity": 86, "channel": 0}, {"type": "note_on", "time": 106, "note": 65, "velocity": 110, "channel": 0}, {"type": "note_off", "time": 364, "note": 65, "velocity": 110, "channel": 0}, {"type": "note_on", "time": 50, "note": 67, "velocity": 108, "channel": 0}, {"type": "note_off", "time": 308, "note": 67, "velocity": 108, "channel": 0}, {"type": "note_on", "time": 60, "note": 69, "velocity": 104, "channel": 0}, {"type": "note_off", "time": 434, "note": 69, "velocity": 104, "channel": 0}, {"type": "note_on", "time": 232, "note": 67, "velocity": 107, "channel": 0}, {"type": "note_off", "time": 217, "note": 67, "velocity": 107, "channel": 0}, {"type": "note_on", "time": 60, "note": 69, "velocity": 105, "channel": 0}, {"type": "note_off", "time": 333, "note": 69, "velocity": 105, "channel": 0}, {"type": "note_on", "time": 75, "note": 65, "velocity": 110, "channel": 0}, {"type": "note_off", "time": 399, "note": 65, "velocity": 110, "channel": 0}, {"type": "note_on", "time": 45, "note": 72, "velocity": 109, "channel": 0}, {"type": "note_off", "time": 1709, "note": 72, "velocity": 109, "channel": 0}, {"type": "note_on", "time": 510, "note": 62, "velocity": 91, "channel": 0}, {"type": "note_off", "time": 313, "note": 62, "velocity": 91, "channel": 0}, {"type": "note_on", "time": 141, "note": 65, "velocity": 9, "channel": 0}, {"type": "note_off", "time": 389, "note": 65, "velocity": 9, "channel": 0}, {"type": "note_on", "time": 25, "note": 67, "velocity": 9, "channel": 0}, {"type": "note_off", "time": 257, "note": 67, "velocity": 9, "channel": 0}, {"type": "note_on", "time": 35, "note": 69, "velocity": 9, "channel": 0}, {"type": "note_off", "time": 389, "note": 69, "velocity": 9, "channel": 0}, {"type": "note_on", "time": 247, "note": 67, "velocity": 9, "channel": 0}, {"type": "note_off", "time": 251, "note": 67, "velocity": 9, "channel": 0}, {"type": "note_on", "time": 46, "note": 69, "velocity": 9, "channel": 0}, {"type": "note_off", "time": 327, "note": 69, "velocity": 9, "channel": 0}, {"type": "note_on", "time": 79, "note": 65, "velocity": 9, "channel": 0}, {"type": "note_off", "time": 233, "note": 65, "velocity": 9, "channel": 0}, {"type": "note_on", "time": 517, "note": 74, "velocity": 9, "channel": 0}, {"type": "note_off", "time": 1193, "note": 74, "velocity": 9, "channel": 0}, {"type": "note_on", "time": 414, "note": 62, "velocity": 9, "channel": 0}, {"type": "note_off", "time": 543, "note": 62, "velocity": 9, "channel": 0}, {"type": "note_on", "time": 37, "note": 64, "velocity": 9, "channel": 0}, {"type": "note_off", "time": 281, "note": 64, "velocity": 9, "channel": 0}, {"type": "note_on", "time": 4, "note": 67, "velocity": 9, "channel": 0}, {"type": "note_off", "time": 237, "note": 67, "velocity": 9, "channel": 0}, {"type": "note_on", "time": 27, "note": 69, "velocity": 9, "channel": 0}, {"type": "note_off", "time": 341, "note": 69, "velocity": 9, "channel": 0}, {"type": "note_on", "time": 949, "note": 62, "velocity": 9, "channel": 0}, {"type": "note_off", "time": 449, "note": 62, "velocity": 9, "channel": 0}, {"type": "note_on", "time": 46, "note": 65, "velocity": 9, "channel": 0}, {"type": "note_off", "time": 255, "note": 65, "velocity": 9, "channel": 0}, {"type": "note_on", "time": 57, "note": 67, "velocity": 9, "channel": 0}, {"type": "note_off", "time": 336, "note": 67, "velocity": 9, "channel": 0}, {"type": "note_on", "time": 44, "note": 69, "velocity": 9, "channel": 0}, {"type": "note_off", "time": 274, "note": 69, "velocity": 9, "channel": 0}, {"type": "note_on", "time": 969, "note": 62, "velocity": 9, "channel": 0}, {"type": "note_off", "time": 457, "note": 62, "velocity": 9, "channel": 0}, {"type": "note_on", "time": 24, "note": 65, "velocity": 9, "channel": 0}, {"type": "note_off", "time": 407, "note": 65, "velocity": 9, "channel": 0}, {"type": "note_on", "time": 42, "note": 67, "velocity": 9, "channel": 0}, {"type": "note_off", "time": 252, "note": 67, "velocity": 9, "channel": 0}, {"type": "note_on", "time": 22, "note": 69, "velocity": 9, "channel": 0}, {"type": "note_off", "time": 388, "note": 69, "velocity": 9, "channel": 0}, {"type": "note_on", "time": 1003, "note": 62, "velocity": 9, "channel": 0}, {"type": "note_off", "time": 359, "note": 62, "velocity": 9, "channel": 0}, {"type": "note_on", "time": 111, "note": 65, "velocity": 9, "channel": 0}, {"type": "note_off", "time": 481, "note": 65, "velocity": 9, "channel": 0}, {"type": "note_on", "time": 35, "note": 67, "velocity": 83, "channel": 0}, {"type": "note_off", "time": 320, "note": 67, "velocity": 83, "channel": 0}, {"type": "note_on", "time": 53, "note": 69, "velocity": 112, "channel": 0}, {"type": "note_off", "time": 291, "note": 69, "velocity": 112, "channel": 0}, {"type": "note_on", "time": 148, "note": 67, "velocity": 111, "channel": 0}, {"type": "note_off", "time": 388, "note": 67, "velocity": 111, "channel": 0}, {"type": "note_on", "time": 42, "note": 69, "velocity": 116, "channel": 0}, {"type": "note_off", "time": 378, "note": 69, "velocity": 116, "channel": 0}, {"type": "note_on", "time": 89, "note": 65, "velocity": 116, "channel": 0}, {"type": "note_off", "time": 338, "note": 65, "velocity": 116, "channel": 0}, {"type": "note_on", "time": 536, "note": 73, "velocity": 105, "channel": 0}, {"type": "note_off", "time": 393, "note": 73, "velocity": 105, "channel": 0}, {"type": "note_on", "time": 47, "note": 74, "velocity": 114, "channel": 0}, {"type": "note_off", "time": 2336, "note": 74, "velocity": 114, "channel": 0}, {"type": "note_on", "time": 3256, "note": 79, "velocity": 98, "channel": 0}, {"type": "note_off", "time": 293, "note": 79, "velocity": 98, "channel": 0}, {"type": "note_on", "time": 25, "note": 78, "velocity": 111, "channel": 0}, {"type": "note_off", "time": 394, "note": 78, "velocity": 111, "channel": 0}, {"type": "note_on", "time": 110, "note": 76, "velocity": 118, "channel": 0}, {"type": "note_off", "time": 384, "note": 76, "velocity": 118, "channel": 0}, {"type": "note_on", "time": 106, "note": 75, "velocity": 106, "channel": 0}, {"type": "note_off", "time": 434, "note": 75, "velocity": 106, "channel": 0}, {"type": "note_on", "time": 177, "note": 70, "velocity": 110, "channel": 0}, {"type": "note_off", "time": 510, "note": 70, "velocity": 110, "channel": 0}, {"type": "note_on", "time": 71, "note": 67, "velocity": 117, "channel": 0}, {"type": "note_off", "time": 406, "note": 67, "velocity": 117, "channel": 0}, {"type": "note_on", "time": 179, "note": 63, "velocity": 116, "channel": 0}, {"type": "note_off", "time": 417, "note": 63, "velocity": 116, "channel": 0}, {"type": "note_on", "time": 208, "note": 72, "velocity": 113, "channel": 0}, {"type": "note_off", "time": 601, "note": 72, "velocity": 113, "channel": 0}, {"type": "note_on", "time": 55, "note": 71, "velocity": 109, "channel": 0}, {"type": "note_off", "time": 500, "note": 71, "velocity": 109, "channel": 0}, {"type": "note_on", "time": 122, "note": 70, "velocity": 116, "channel": 0}, {"type": "note_off", "time": 591, "note": 70, "velocity": 116, "channel": 0}, {"type": "note_on", "time": 123, "note": 66, "velocity": 114, "channel": 0}, {"type": "note_off", "time": 564, "note": 66, "velocity": 114, "channel": 0}, {"type": "note_on", "time": 32, "note": 68, "velocity": 110, "channel": 0}, {"type": "note_off", "time": 557, "note": 68, "velocity": 110, "channel": 0}, {"type": "note_on", "time": 668, "note": 66, "velocity": 113, "channel": 0}, {"type": "note_off", "time": 632, "note": 66, "velocity": 113, "channel": 0}, {"type": "note_on", "time": 136, "note": 69, "velocity": 120, "channel": 0}, {"type": "note_off", "time": 481, "note": 69, "velocity": 120, "channel": 0}, {"type": "note_on", "time": 158, "note": 65, "velocity": 121, "channel": 0}, {"type": "note_off", "time": 517, "note": 65, "velocity": 121, "channel": 0}, {"type": "note_on", "time": 35, "note": 64, "velocity": 112, "channel": 0}, {"type": "note_off", "time": 525, "note": 64, "velocity": 112, "channel": 0}, {"type": "note_on", "time": 143, "note": 63, "velocity": 9, "channel": 0}, {"type": "note_off", "time": 489, "note": 63, "velocity": 9, "channel": 0}, {"type": "note_on", "time": 4006, "note": 68, "velocity": 9, "channel": 0}, {"type": "note_off", "time": 287, "note": 68, "velocity": 9, "channel": 0}, {"type": "note_on", "time": 366, "note": 65, "velocity": 9, "channel": 0}, {"type": "note_off", "time": 640, "note": 65, "velocity": 9, "channel": 0}, {"type": "note_on", "time": 77, "note": 67, "velocity": 9, "channel": 0}, {"type": "note_off", "time": 409, "note": 67, "velocity": 9, "channel": 0}, {"type": "note_on", "time": 121, "note": 69, "velocity": 9, "channel": 0}, {"type": "note_off", "time": 434, "note": 69, "velocity": 9, "channel": 0}, {"type": "note_on", "time": 366, "note": 65, "velocity": 9, "channel": 0}, {"type": "note_off", "time": 309, "note": 65, "velocity": 9, "channel": 0}, {"type": "note_on", "time": 82, "note": 67, "velocity": 9, "channel": 0}, {"type": "note_off", "time": 463, "note": 67, "velocity": 9, "channel": 0}, {"type": "note_on", "time": 340, "note": 72, "velocity": 9, "channel": 0}, {"type": "note_off", "time": 333, "note": 72, "velocity": 9, "channel": 0}, {"type": "note_on", "time": 35, "note": 69, "velocity": 45, "channel": 0}, {"type": "note_off", "time": 354, "note": 69, "velocity": 45, "channel": 0}, {"type": "note_on", "time": 55, "note": 67, "velocity": 113, "channel": 0}, {"type": "note_off", "time": 252, "note": 67, "velocity": 113, "channel": 0}, {"type": "note_on", "time": 96, "note": 65, "velocity": 106, "channel": 0}, {"type": "note_off", "time": 364, "note": 65, "velocity": 106, "channel": 0}, {"type": "note_on", "time": 242, "note": 67, "velocity": 115, "channel": 0}, {"type": "note_off", "time": 455, "note": 67, "velocity": 115, "channel": 0}, {"type": "note_on", "time": 252, "note": 69, "velocity": 108, "channel": 0}, {"type": "note_off", "time": 293, "note": 69, "velocity": 108, "channel": 0}, {"type": "note_on", "time": 397, "note": 62, "velocity": 108, "channel": 0}, {"type": "note_off", "time": 381, "note": 62, "velocity": 108, "channel": 0}, {"type": "note_on", "time": 294, "note": 65, "velocity": 107, "channel": 0}, {"type": "note_off", "time": 323, "note": 65, "velocity": 107, "channel": 0}, {"type": "note_on", "time": 251, "note": 69, "velocity": 116, "channel": 0}, {"type": "note_off", "time": 424, "note": 69, "velocity": 116, "channel": 0}, {"type": "note_on", "time": 165, "note": 67, "velocity": 116, "channel": 0}, {"type": "note_off", "time": 409, "note": 67, "velocity": 116, "channel": 0}, {"type": "note_on", "time": 309, "note": 65, "velocity": 120, "channel": 0}, {"type": "note_off", "time": 251, "note": 65, "velocity": 120, "channel": 0}, {"type": "note_on", "time": 366, "note": 72, "velocity": 114, "channel": 0}, {"type": "note_off", "time": 280, "note": 72, "velocity": 114, "channel": 0}, {"type": "note_on", "time": 398, "note": 66, "velocity": 110, "channel": 0}, {"type": "note_off", "time": 212, "note": 66, "velocity": 110, "channel": 0}, {"type": "note_on", "time": 37, "note": 67, "velocity": 92, "channel": 0}, {"type": "note_off", "time": 220, "note": 67, "velocity": 92, "channel": 0}, {"type": "note_on", "time": 74, "note": 69, "velocity": 9, "channel": 0}, {"type": "note_off", "time": 385, "note": 69, "velocity": 9, "channel": 0}, {"type": "note_on", "time": 317, "note": 65, "velocity": 9, "channel": 0}, {"type": "note_off", "time": 399, "note": 65, "velocity": 9, "channel": 0}, {"type": "note_on", "time": 328, "note": 60, "velocity": 9, "channel": 0}, {"type": "note_off", "time": 343, "note": 60, "velocity": 9, "channel": 0}, {"type": "note_on", "time": 252, "note": 62, "velocity": 9, "channel": 0}, {"type": "note_off", "time": 414, "note": 62, "velocity": 9, "channel": 0}, {"type": "note_on", "time": 111, "note": 67, "velocity": 81, "channel": 0}, {"type": "note_off", "time": 470, "note": 67, "velocity": 81, "channel": 0}, {"type": "note_on", "time": 273, "note": 65, "velocity": 74, "channel": 0}, {"type": "note_off", "time": 247, "note": 65, "velocity": 74, "channel": 0}, {"type": "note_on", "time": 50, "note": 62, "velocity": 109, "channel": 0}, {"type": "note_off", "time": 262, "note": 62, "velocity": 109, "channel": 0}, {"type": "note_on", "time": 96, "note": 72, "velocity": 105, "channel": 0}, {"type": "note_off", "time": 369, "note": 72, "velocity": 105, "channel": 0}, {"type": "note_on", "time": 252, "note": 67, "velocity": 98, "channel": 0}, {"type": "note_off", "time": 354, "note": 67, "velocity": 98, "channel": 0}, {"type": "note_on", "time": 136, "note": 60, "velocity": 115, "channel": 0}, {"type": "note_off", "time": 399, "note": 60, "velocity": 115, "channel": 0}, {"type": "note_on", "time": 187, "note": 62, "velocity": 111, "channel": 0}, {"type": "note_off", "time": 369, "note": 62, "velocity": 111, "channel": 0}, {"type": "note_on", "time": 475, "note": 67, "velocity": 106, "channel": 0}, {"type": "note_off", "time": 364, "note": 67, "velocity": 106, "channel": 0}, {"type": "note_on", "time": 257, "note": 65, "velocity": 103, "channel": 0}, {"type": "note_off", "time": 414, "note": 65, "velocity": 103, "channel": 0}, {"type": "note_on", "time": 217, "note": 62, "velocity": 122, "channel": 0}, {"type": "note_off", "time": 278, "note": 62, "velocity": 122, "channel": 0}, {"type": "note_on", "time": 348, "note": 69, "velocity": 95, "channel": 0}, {"type": "note_off", "time": 520, "note": 69, "velocity": 95, "channel": 0}, {"type": "note_on", "time": 19120, "note": 62, "velocity": 108, "channel": 0}, {"type": "note_off", "time": 381, "note": 62, "velocity": 108, "channel": 0}, {"type": "note_on", "time": 57, "note": 65, "velocity": 21, "channel": 0}, {"type": "note_off", "time": 370, "note": 65, "velocity": 21, "channel": 0}, {"type": "note_on", "time": 61, "note": 67, "velocity": 115, "channel": 0}, {"type": "note_off", "time": 273, "note": 67, "velocity": 115, "channel": 0}, {"type": "note_on", "time": 100, "note": 69, "velocity": 112, "channel": 0}, {"type": "note_off", "time": 478, "note": 69, "velocity": 112, "channel": 0}, {"type": "note_on", "time": 179, "note": 67, "velocity": 17, "channel": 0}, {"type": "note_off", "time": 266, "note": 67, "velocity": 17, "channel": 0}, {"type": "note_on", "time": 352, "note": 65, "velocity": 117, "channel": 0}, {"type": "note_off", "time": 409, "note": 65, "velocity": 117, "channel": 0}, {"type": "note_on", "time": 133, "note": 62, "velocity": 9, "channel": 0}, {"type": "note_off", "time": 402, "note": 62, "velocity": 9, "channel": 0}, {"type": "note_on", "time": 291, "note": 72, "velocity": 116, "channel": 0}, {"type": "note_off", "time": 445, "note": 72, "velocity": 116, "channel": 0}, {"type": "note_on", "time": 173, "note": 60, "velocity": 9, "channel": 0}, {"type": "note_off", "time": 327, "note": 60, "velocity": 9, "channel": 0}, {"type": "note_on", "time": 39, "note": 62, "velocity": 77, "channel": 0}, {"type": "note_off", "time": 258, "note": 62, "velocity": 77, "channel": 0}, {"type": "note_on", "time": 57, "note": 69, "velocity": 114, "channel": 0}, {"type": "note_off", "time": 471, "note": 69, "velocity": 114, "channel": 0}, {"type": "note_on", "time": 230, "note": 67, "velocity": 9, "channel": 0}, {"type": "note_off", "time": 391, "note": 67, "velocity": 9, "channel": 0}, {"type": "note_on", "time": 219, "note": 65, "velocity": 112, "channel": 0}, {"type": "note_off", "time": 374, "note": 65, "velocity": 112, "channel": 0}, {"type": "note_on", "time": 288, "note": 62, "velocity": 76, "channel": 0}, {"type": "note_off", "time": 348, "note": 62, "velocity": 76, "channel": 0}, {"type": "note_on", "time": 369, "note": 73, "velocity": 115, "channel": 0}, {"type": "note_off", "time": 381, "note": 73, "velocity": 115, "channel": 0}, {"type": "note_on", "time": 100, "note": 71, "velocity": 110, "channel": 0}, {"type": "note_off", "time": 359, "note": 71, "velocity": 110, "channel": 0}, {"type": "note_on", "time": 345, "note": 61, "velocity": 109, "channel": 0}, {"type": "note_off", "time": 417, "note": 61, "velocity": 109, "channel": 0}, {"type": "note_on", "time": 53, "note": 62, "velocity": 111, "channel": 0}, {"type": "note_off", "time": 334, "note": 62, "velocity": 111, "channel": 0}, {"type": "note_on", "time": 21, "note": 65, "velocity": 112, "channel": 0}, {"type": "note_off", "time": 215, "note": 65, "velocity": 112, "channel": 0}, {"type": "note_on", "time": 251, "note": 71, "velocity": 102, "channel": 0}, {"type": "note_off", "time": 399, "note": 71, "velocity": 102, "channel": 0}, {"type": "note_on", "time": 312, "note": 65, "velocity": 89, "channel": 0}, {"type": "note_off", "time": 302, "note": 65, "velocity": 89, "channel": 0}, {"type": "note_on", "time": 201, "note": 66, "velocity": 109, "channel": 0}, {"type": "note_off", "time": 280, "note": 66, "velocity": 109, "channel": 0}, {"type": "note_on", "time": 323, "note": 70, "velocity": 113, "channel": 0}, {"type": "note_off", "time": 445, "note": 70, "velocity": 113, "channel": 0}, {"type": "note_on", "time": 107, "note": 68, "velocity": 107, "channel": 0}, {"type": "note_off", "time": 460, "note": 68, "velocity": 107, "channel": 0}, {"type": "note_on", "time": 252, "note": 66, "velocity": 86, "channel": 0}, {"type": "note_off", "time": 414, "note": 66, "velocity": 86, "channel": 0}, {"type": "note_on", "time": 247, "note": 61, "velocity": 9, "channel": 0}, {"type": "note_off", "time": 455, "note": 61, "velocity": 9, "channel": 0}, {"type": "note_on", "time": 65, "note": 62, "velocity": 9, "channel": 0}, {"type": "note_off", "time": 525, "note": 62, "velocity": 9, "channel": 0}, {"type": "note_on", "time": 197, "note": 69, "velocity": 9, "channel": 0}, {"type": "note_off", "time": 460, "note": 69, "velocity": 9, "channel": 0}, {"type": "note_on", "time": 103, "note": 68, "velocity": 9, "channel": 0}, {"type": "note_off", "time": 456, "note": 68, "velocity": 9, "channel": 0}, {"type": "note_on", "time": 190, "note": 67, "velocity": 9, "channel": 0}, {"type": "note_off", "time": 435, "note": 67, "velocity": 9, "channel": 0}, {"type": "note_on", "time": 151, "note": 66, "velocity": 9, "channel": 0}, {"type": "note_off", "time": 427, "note": 66, "velocity": 9, "channel": 0}, {"type": "note_on", "time": 230, "note": 69, "velocity": 9, "channel": 0}, {"type": "note_off", "time": 503, "note": 69, "velocity": 9, "channel": 0}, {"type": "note_on", "time": 787, "note": 69, "velocity": 9, "channel": 0}, {"type": "note_off", "time": 517, "note": 69, "velocity": 9, "channel": 0}, {"type": "note_on", "time": 79, "note": 68, "velocity": 9, "channel": 0}, {"type": "note_off", "time": 460, "note": 68, "velocity": 9, "channel": 0}, {"type": "note_on", "time": 143, "note": 67, "velocity": 9, "channel": 0}, {"type": "note_off", "time": 424, "note": 67, "velocity": 9, "channel": 0}, {"type": "note_on", "time": 359, "note": 72, "velocity": 9, "channel": 0}, {"type": "note_off", "time": 942, "note": 72, "velocity": 9, "channel": 0}, {"type": "note_on", "time": 20680, "note": 76, "velocity": 110, "channel": 0}, {"type": "note_off", "time": 525, "note": 76, "velocity": 110, "channel": 0}, {"type": "note_on", "time": 65, "note": 77, "velocity": 110, "channel": 0}, {"type": "note_off", "time": 591, "note": 77, "velocity": 110, "channel": 0}, {"type": "note_on", "time": 40, "note": 78, "velocity": 116, "channel": 0}, {"type": "note_off", "time": 364, "note": 78, "velocity": 116, "channel": 0}, {"type": "note_on", "time": 40, "note": 79, "velocity": 117, "channel": 0}, {"type": "note_off", "time": 637, "note": 79, "velocity": 117, "channel": 0}, {"type": "note_on", "time": 15, "note": 81, "velocity": 112, "channel": 0}, {"type": "note_off", "time": 318, "note": 81, "velocity": 112, "channel": 0}, {"type": "note_on", "time": 40, "note": 78, "velocity": 118, "channel": 0}, {"type": "note_off", "time": 394, "note": 78, "velocity": 118, "channel": 0}, {"type": "note_on", "time": 298, "note": 74, "velocity": 21, "channel": 0}, {"type": "note_off", "time": 359, "note": 74, "velocity": 21, "channel": 0}, {"type": "note_on", "time": 80, "note": 75, "velocity": 9, "channel": 0}, {"type": "note_off", "time": 474, "note": 75, "velocity": 9, "channel": 0}, {"type": "note_on", "time": 56, "note": 76, "velocity": 9, "channel": 0}, {"type": "note_off", "time": 546, "note": 76, "velocity": 9, "channel": 0}, {"type": "note_on", "time": 60, "note": 79, "velocity": 9, "channel": 0}, {"type": "note_off", "time": 404, "note": 79, "velocity": 9, "channel": 0}, {"type": "note_on", "time": 288, "note": 76, "velocity": 9, "channel": 0}, {"type": "note_off", "time": 434, "note": 76, "velocity": 9, "channel": 0}, {"type": "note_on", "time": 40, "note": 77, "velocity": 9, "channel": 0}, {"type": "note_off", "time": 252, "note": 77, "velocity": 9, "channel": 0}, {"type": "note_on", "time": 116, "note": 69, "velocity": 9, "channel": 0}, {"type": "note_off", "time": 515, "note": 69, "velocity": 9, "channel": 0}, {"type": "note_on", "time": 80, "note": 71, "velocity": 9, "channel": 0}, {"type": "note_off", "time": 505, "note": 71, "velocity": 9, "channel": 0}, {"type": "note_on", "time": 80, "note": 72, "velocity": 9, "channel": 0}, {"type": "note_off", "time": 409, "note": 72, "velocity": 9, "channel": 0}, {"type": "note_on", "time": 192, "note": 74, "velocity": 9, "channel": 0}, {"type": "note_off", "time": 379, "note": 74, "velocity": 9, "channel": 0}, {"type": "note_on", "time": 414, "note": 72, "velocity": 9, "channel": 0}, {"type": "note_off", "time": 298, "note": 72, "velocity": 9, "channel": 0}, {"type": "note_on", "time": 232, "note": 68, "velocity": 9, "channel": 0}, {"type": "note_off", "time": 515, "note": 68, "velocity": 9, "channel": 0}, {"type": "note_on", "time": 121, "note": 69, "velocity": 9, "channel": 0}, {"type": "note_off", "time": 541, "note": 69, "velocity": 9, "channel": 0}, {"type": "note_on", "time": 207, "note": 70, "velocity": 9, "channel": 0}, {"type": "note_off", "time": 384, "note": 70, "velocity": 9, "channel": 0}, {"type": "note_on", "time": 70, "note": 73, "velocity": 9, "channel": 0}, {"type": "note_off", "time": 389, "note": 73, "velocity": 9, "channel": 0}, {"type": "note_on", "time": 234, "note": 70, "velocity": 109, "channel": 0}, {"type": "note_off", "time": 402, "note": 70, "velocity": 109, "channel": 0}, {"type": "note_on", "time": 233, "note": 61, "velocity": 115, "channel": 0}, {"type": "note_off", "time": 701, "note": 61, "velocity": 115, "channel": 0}, {"type": "note_on", "time": 53, "note": 63, "velocity": 116, "channel": 0}, {"type": "note_off", "time": 550, "note": 63, "velocity": 116, "channel": 0}, {"type": "note_on", "time": 64, "note": 64, "velocity": 113, "channel": 0}, {"type": "note_off", "time": 737, "note": 64, "velocity": 113, "channel": 0}, {"type": "note_on", "time": 57, "note": 67, "velocity": 109, "channel": 0}, {"type": "note_off", "time": 370, "note": 67, "velocity": 109, "channel": 0}, {"type": "note_on", "time": 57, "note": 64, "velocity": 114, "channel": 0}, {"type": "note_off", "time": 456, "note": 64, "velocity": 114, "channel": 0}, {"type": "note_on", "time": 10, "note": 58, "velocity": 114, "channel": 0}, {"type": "note_off", "time": 794, "note": 58, "velocity": 114, "channel": 0}, {"type": "note_on", "time": 82, "note": 59, "velocity": 118, "channel": 0}, {"type": "note_off", "time": 561, "note": 59, "velocity": 118, "channel": 0}, {"type": "note_on", "time": 25, "note": 60, "velocity": 112, "channel": 0}, {"type": "note_off", "time": 528, "note": 60, "velocity": 112, "channel": 0}, {"type": "note_on", "time": 50, "note": 63, "velocity": 110, "channel": 0}, {"type": "note_off", "time": 449, "note": 63, "velocity": 110, "channel": 0}, {"type": "note_on", "time": 111, "note": 60, "velocity": 116, "channel": 0}, {"type": "note_off", "time": 280, "note": 60, "velocity": 116, "channel": 0}, {"type": "note_on", "time": 327, "note": 56, "velocity": 108, "channel": 0}, {"type": "note_off", "time": 546, "note": 56, "velocity": 108, "channel": 0}, {"type": "note_on", "time": 61, "note": 57, "velocity": 112, "channel": 0}, {"type": "note_off", "time": 460, "note": 57, "velocity": 112, "channel": 0}, {"type": "note_on", "time": 244, "note": 58, "velocity": 115, "channel": 0}, {"type": "note_off", "time": 467, "note": 58, "velocity": 115, "channel": 0}, {"type": "note_on", "time": 82, "note": 59, "velocity": 114, "channel": 0}, {"type": "note_off", "time": 248, "note": 59, "velocity": 114, "channel": 0}, {"type": "note_on", "time": 61, "note": 58, "velocity": 112, "channel": 0}, {"type": "note_off", "time": 845, "note": 58, "velocity": 112, "channel": 0}, {"type": "note_on", "time": 129, "note": 53, "velocity": 113, "channel": 0}, {"type": "note_off", "time": 481, "note": 53, "velocity": 113, "channel": 0}, {"type": "note_on", "time": 129, "note": 54, "velocity": 108, "channel": 0}, {"type": "note_off", "time": 1567, "note": 54, "velocity": 108, "channel": 0}, {"type": "note_on", "time": 16189, "note": 67, "velocity": 9, "channel": 0}, {"type": "note_off", "time": 318, "note": 67, "velocity": 9, "channel": 0}, {"type": "note_on", "time": 50, "note": 68, "velocity": 9, "channel": 0}, {"type": "note_off", "time": 520, "note": 68, "velocity": 9, "channel": 0}, {"type": "note_on", "time": 23, "note": 71, "velocity": 9, "channel": 0}, {"type": "note_off", "time": 269, "note": 71, "velocity": 9, "channel": 0}, {"type": "note_on", "time": 115, "note": 68, "velocity": 9, "channel": 0}, {"type": "note_off", "time": 485, "note": 68, "velocity": 9, "channel": 0}, {"type": "note_on", "time": 169, "note": 67, "velocity": 102, "channel": 0}, {"type": "note_off", "time": 381, "note": 67, "velocity": 102, "channel": 0}, {"type": "note_on", "time": 129, "note": 65, "velocity": 105, "channel": 0}, {"type": "note_off", "time": 514, "note": 65, "velocity": 105, "channel": 0}, {"type": "note_on", "time": 61, "note": 66, "velocity": 87, "channel": 0}, {"type": "note_off", "time": 388, "note": 66, "velocity": 87, "channel": 0}, {"type": "note_on", "time": 39, "note": 68, "velocity": 92, "channel": 0}, {"type": "note_off", "time": 312, "note": 68, "velocity": 92, "channel": 0}, {"type": "note_on", "time": 115, "note": 66, "velocity": 72, "channel": 0}, {"type": "note_off", "time": 309, "note": 66, "velocity": 72, "channel": 0}, {"type": "note_on", "time": 53, "note": 65, "velocity": 91, "channel": 0}, {"type": "note_off", "time": 327, "note": 65, "velocity": 91, "channel": 0}, {"type": "note_on", "time": 86, "note": 63, "velocity": 92, "channel": 0}, {"type": "note_off", "time": 345, "note": 63, "velocity": 92, "channel": 0}, {"type": "note_on", "time": 83, "note": 64, "velocity": 114, "channel": 0}, {"type": "note_off", "time": 318, "note": 64, "velocity": 114, "channel": 0}, {"type": "note_on", "time": 59, "note": 66, "velocity": 96, "channel": 0}, {"type": "note_off", "time": 279, "note": 66, "velocity": 96, "channel": 0}, {"type": "note_on", "time": 66, "note": 62, "velocity": 95, "channel": 0}, {"type": "note_off", "time": 326, "note": 62, "velocity": 95, "channel": 0}, {"type": "note_on", "time": 37, "note": 63, "velocity": 81, "channel": 0}, {"type": "note_off", "time": 306, "note": 63, "velocity": 81, "channel": 0}, {"type": "note_on", "time": 22, "note": 65, "velocity": 94, "channel": 0}, {"type": "note_off", "time": 304, "note": 65, "velocity": 94, "channel": 0}, {"type": "note_on", "time": 46, "note": 63, "velocity": 86, "channel": 0}, {"type": "note_off", "time": 365, "note": 63, "velocity": 86, "channel": 0}, {"type": "note_on", "time": 37, "note": 62, "velocity": 114, "channel": 0}, {"type": "note_off", "time": 346, "note": 62, "velocity": 114, "channel": 0}, {"type": "note_on", "time": 22, "note": 61, "velocity": 9, "channel": 0}, {"type": "note_off", "time": 205, "note": 61, "velocity": 9, "channel": 0}, {"type": "note_on", "time": 39, "note": 60, "velocity": 9, "channel": 0}, {"type": "note_off", "time": 242, "note": 60, "velocity": 9, "channel": 0}, {"type": "note_on", "time": 33, "note": 59, "velocity": 9, "channel": 0}, {"type": "note_off", "time": 316, "note": 59, "velocity": 9, "channel": 0}, {"type": "note_on", "time": 136, "note": 62, "velocity": 29, "channel": 0}, {"type": "note_off", "time": 395, "note": 62, "velocity": 29, "channel": 0}, {"type": "note_on", "time": 111, "note": 59, "velocity": 106, "channel": 0}, {"type": "note_off", "time": 363, "note": 59, "velocity": 106, "channel": 0}, {"type": "note_on", "time": 266, "note": 59, "velocity": 9, "channel": 0}, {"type": "note_off", "time": 525, "note": 59, "velocity": 9, "channel": 0}, {"type": "note_on", "time": 70, "note": 57, "velocity": 108, "channel": 0}, {"type": "note_off", "time": 424, "note": 57, "velocity": 108, "channel": 0}, {"type": "note_on", "time": 116, "note": 56, "velocity": 78, "channel": 0}, {"type": "note_off", "time": 389, "note": 56, "velocity": 78, "channel": 0}, {"type": "note_on", "time": 75, "note": 59, "velocity": 56, "channel": 0}, {"type": "note_off", "time": 308, "note": 59, "velocity": 56, "channel": 0}, {"type": "note_on", "time": 60, "note": 56, "velocity": 115, "channel": 0}, {"type": "note_off", "time": 293, "note": 56, "velocity": 115, "channel": 0}, {"type": "note_on", "time": 65, "note": 59, "velocity": 115, "channel": 0}, {"type": "note_off", "time": 328, "note": 59, "velocity": 115, "channel": 0}, {"type": "note_on", "time": 156, "note": 55, "velocity": 51, "channel": 0}, {"type": "note_off", "time": 313, "note": 55, "velocity": 51, "channel": 0}, {"type": "note_on", "time": 80, "note": 54, "velocity": 9, "channel": 0}, {"type": "note_off", "time": 384, "note": 54, "velocity": 9, "channel": 0}, {"type": "note_on", "time": 85, "note": 57, "velocity": 9, "channel": 0}, {"type": "note_off", "time": 384, "note": 57, "velocity": 9, "channel": 0}, {"type": "note_on", "time": 10, "note": 54, "velocity": 9, "channel": 0}, {"type": "note_off", "time": 303, "note": 54, "velocity": 9, "channel": 0}, {"type": "note_on", "time": 80, "note": 52, "velocity": 67, "channel": 0}, {"type": "note_off", "time": 343, "note": 52, "velocity": 67, "channel": 0}, {"type": "note_on", "time": 50, "note": 53, "velocity": 114, "channel": 0}, {"type": "note_off", "time": 298, "note": 53, "velocity": 114, "channel": 0}, {"type": "note_on", "time": 10, "note": 52, "velocity": 113, "channel": 0}, {"type": "note_off", "time": 273, "note": 52, "velocity": 113, "channel": 0}, {"type": "note_on", "time": 61, "note": 53, "velocity": 81, "channel": 0}, {"type": "note_off", "time": 172, "note": 53, "velocity": 81, "channel": 0}, {"type": "note_on", "time": 28, "note": 54, "velocity": 111, "channel": 0}, {"type": "note_off", "time": 187, "note": 54, "velocity": 111, "channel": 0}, {"type": "note_on", "time": 43, "note": 53, "velocity": 95, "channel": 0}, {"type": "note_off", "time": 341, "note": 53, "velocity": 95, "channel": 0}, {"type": "note_on", "time": 126, "note": 51, "velocity": 112, "channel": 0}, {"type": "note_off", "time": 313, "note": 51, "velocity": 112, "channel": 0}, {"type": "note_on", "time": 35, "note": 53, "velocity": 75, "channel": 0}, {"type": "note_off", "time": 333, "note": 53, "velocity": 75, "channel": 0}, {"type": "note_on", "time": 151, "note": 51, "velocity": 100, "channel": 0}, {"type": "note_off", "time": 288, "note": 51, "velocity": 100, "channel": 0}, {"type": "note_on", "time": 23, "note": 50, "velocity": 95, "channel": 0}, {"type": "note_off", "time": 343, "note": 50, "velocity": 95, "channel": 0}, {"type": "note_on", "time": 45, "note": 49, "velocity": 112, "channel": 0}, {"type": "note_off", "time": 190, "note": 49, "velocity": 112, "channel": 0}, {"type": "note_on", "time": 50, "note": 48, "velocity": 88, "channel": 0}, {"type": "note_off", "time": 287, "note": 48, "velocity": 88, "channel": 0}, {"type": "note_on", "time": 32, "note": 47, "velocity": 114, "channel": 0}, {"type": "note_off", "time": 266, "note": 47, "velocity": 114, "channel": 0}, {"type": "note_on", "time": 43, "note": 46, "velocity": 90, "channel": 0}, {"type": "note_off", "time": 294, "note": 46, "velocity": 90, "channel": 0}, {"type": "note_on", "time": 46, "note": 47, "velocity": 109, "channel": 0}, {"type": "note_off", "time": 269, "note": 47, "velocity": 109, "channel": 0}, {"type": "note_on", "time": 46, "note": 45, "velocity": 105, "channel": 0}, {"type": "note_off", "time": 618, "note": 45, "velocity": 105, "channel": 0}, {"type": "note_on", "time": 15535, "note": 67, "velocity": 109, "channel": 0}, {"type": "note_off", "time": 532, "note": 67, "velocity": 109, "channel": 0}, {"type": "note_on", "time": 43, "note": 68, "velocity": 104, "channel": 0}, {"type": "note_off", "time": 582, "note": 68, "velocity": 104, "channel": 0}, {"type": "note_on", "time": 100, "note": 69, "velocity": 112, "channel": 0}, {"type": "note_off", "time": 475, "note": 69, "velocity": 112, "channel": 0}, {"type": "note_on", "time": 55, "note": 68, "velocity": 108, "channel": 0}, {"type": "note_off", "time": 520, "note": 68, "velocity": 108, "channel": 0}, {"type": "note_on", "time": 91, "note": 67, "velocity": 107, "channel": 0}, {"type": "note_off", "time": 556, "note": 67, "velocity": 107, "channel": 0}, {"type": "note_on", "time": 85, "note": 66, "velocity": 113, "channel": 0}, {"type": "note_off", "time": 536, "note": 66, "velocity": 113, "channel": 0}, {"type": "note_on", "time": 96, "note": 65, "velocity": 9, "channel": 0}, {"type": "note_off", "time": 571, "note": 65, "velocity": 9, "channel": 0}, {"type": "note_on", "time": 121, "note": 62, "velocity": 68, "channel": 0}, {"type": "note_off", "time": 561, "note": 62, "velocity": 68, "channel": 0}, {"type": "note_on", "time": 55, "note": 59, "velocity": 113, "channel": 0}, {"type": "note_off", "time": 586, "note": 59, "velocity": 113, "channel": 0}, {"type": "note_on", "time": 30, "note": 60, "velocity": 109, "channel": 0}, {"type": "note_off", "time": 627, "note": 60, "velocity": 109, "channel": 0}, {"type": "note_on", "time": 141, "note": 60, "velocity": 102, "channel": 0}, {"type": "note_off", "time": 439, "note": 60, "velocity": 102, "channel": 0}, {"type": "note_on", "time": 273, "note": 62, "velocity": 108, "channel": 0}, {"type": "note_off", "time": 510, "note": 62, "velocity": 108, "channel": 0}, {"type": "note_on", "time": 616, "note": 64, "velocity": 115, "channel": 0}, {"type": "note_off", "time": 394, "note": 64, "velocity": 115, "channel": 0}, {"type": "note_on", "time": 930, "note": 66, "velocity": 111, "channel": 0}, {"type": "note_off", "time": 566, "note": 66, "velocity": 111, "channel": 0}, {"type": "note_on", "time": 647, "note": 62, "velocity": 9, "channel": 0}, {"type": "note_off", "time": 616, "note": 62, "velocity": 9, "channel": 0}, {"type": "note_on", "time": 2686, "note": 60, "velocity": 83, "channel": 0}, {"type": "note_off", "time": 417, "note": 60, "velocity": 83, "channel": 0}, {"type": "note_on", "time": 165, "note": 60, "velocity": 97, "channel": 0}, {"type": "note_off", "time": 1071, "note": 60, "velocity": 97, "channel": 0}, {"type": "note_on", "time": 222, "note": 62, "velocity": 94, "channel": 0}, {"type": "note_off", "time": 575, "note": 62, "velocity": 94, "channel": 0}, {"type": "note_on", "time": 676, "note": 64, "velocity": 107, "channel": 0}, {"type": "note_off", "time": 525, "note": 64, "velocity": 107, "channel": 0}, {"type": "note_on", "time": 575, "note": 66, "velocity": 115, "channel": 0}, {"type": "note_off", "time": 532, "note": 66, "velocity": 115, "channel": 0}, {"type": "note_on", "time": 2740, "note": 62, "velocity": 108, "channel": 0}, {"type": "note_off", "time": 514, "note": 62, "velocity": 108, "channel": 0}, {"type": "note_on", "time": 107, "note": 64, "velocity": 114, "channel": 0}, {"type": "note_off", "time": 424, "note": 64, "velocity": 114, "channel": 0}, {"type": "note_on", "time": 240, "note": 66, "velocity": 110, "channel": 0}, {"type": "note_off", "time": 273, "note": 66, "velocity": 110, "channel": 0}, {"type": "note_on", "time": 283, "note": 67, "velocity": 112, "channel": 0}, {"type": "note_off", "time": 490, "note": 67, "velocity": 112, "channel": 0}, {"type": "note_on", "time": 222, "note": 66, "velocity": 72, "channel": 0}, {"type": "note_off", "time": 414, "note": 66, "velocity": 72, "channel": 0}, {"type": "note_on", "time": 166, "note": 64, "velocity": 113, "channel": 0}, {"type": "note_off", "time": 586, "note": 64, "velocity": 113, "channel": 0}, {"type": "note_on", "time": 4039, "note": 69, "velocity": 101, "channel": 0}, {"type": "note_off", "time": 436, "note": 69, "velocity": 101, "channel": 0}, {"type": "note_on", "time": 48, "note": 71, "velocity": 90, "channel": 0}, {"type": "note_off", "time": 7825, "note": 71, "velocity": 90, "channel": 0}, {"type": "note_on", "time": 29, "note": 69, "velocity": 97, "channel": 0}, {"type": "note_off", "time": 536, "note": 69, "velocity": 97, "channel": 0}, {"type": "note_on", "time": 126, "note": 71, "velocity": 108, "channel": 0}, {"type": "note_off", "time": 510, "note": 71, "velocity": 108, "channel": 0}, {"type": "note_on", "time": 75, "note": 72, "velocity": 111, "channel": 0}, {"type": "note_off", "time": 394, "note": 72, "velocity": 111, "channel": 0}, {"type": "note_on", "time": 96, "note": 71, "velocity": 110, "channel": 0}, {"type": "note_off", "time": 3366, "note": 71, "velocity": 110, "channel": 0}, {"type": "note_on", "time": 136, "note": 69, "velocity": 111, "channel": 0}, {"type": "note_off", "time": 316, "note": 69, "velocity": 111, "channel": 0}, {"type": "note_on", "time": 79, "note": 71, "velocity": 115, "channel": 0}, {"type": "note_off", "time": 247, "note": 71, "velocity": 115, "channel": 0}, {"type": "note_on", "time": 55, "note": 72, "velocity": 121, "channel": 0}, {"type": "note_off", "time": 151, "note": 72, "velocity": 121, "channel": 0}, {"type": "note_on", "time": 70, "note": 71, "velocity": 115, "channel": 0}, {"type": "note_off", "time": 197, "note": 71, "velocity": 115, "channel": 0}, {"type": "note_on", "time": 72, "note": 66, "velocity": 22, "channel": 0}, {"type": "note_off", "time": 420, "note": 66, "velocity": 22, "channel": 0}, {"type": "note_on", "time": 51, "note": 71, "velocity": 90, "channel": 0}, {"type": "note_off", "time": 247, "note": 71, "velocity": 90, "channel": 0}, {"type": "note_on", "time": 102, "note": 69, "velocity": 112, "channel": 0}, {"type": "note_off", "time": 388, "note": 69, "velocity": 112, "channel": 0}, {"type": "note_on", "time": 100, "note": 71, "velocity": 121, "channel": 0}, {"type": "note_off", "time": 575, "note": 71, "velocity": 121, "channel": 0}, {"type": "note_on", "time": 6076, "note": 59, "velocity": 118, "channel": 0}, {"type": "note_off", "time": 374, "note": 59, "velocity": 118, "channel": 0}, {"type": "note_on", "time": 35, "note": 64, "velocity": 119, "channel": 0}, {"type": "note_off", "time": 283, "note": 64, "velocity": 119, "channel": 0}, {"type": "note_on", "time": 60, "note": 66, "velocity": 94, "channel": 0}, {"type": "note_off", "time": 268, "note": 66, "velocity": 94, "channel": 0}, {"type": "note_on", "time": 104, "note": 69, "velocity": 90, "channel": 0}, {"type": "note_off", "time": 309, "note": 69, "velocity": 90, "channel": 0}, {"type": "note_on", "time": 46, "note": 71, "velocity": 120, "channel": 0}, {"type": "note_off", "time": 222, "note": 71, "velocity": 120, "channel": 0}, {"type": "note_on", "time": 75, "note": 72, "velocity": 116, "channel": 0}, {"type": "note_off", "time": 255, "note": 72, "velocity": 116, "channel": 0}, {"type": "note_on", "time": 43, "note": 71, "velocity": 112, "channel": 0}, {"type": "note_off", "time": 230, "note": 71, "velocity": 112, "channel": 0}, {"type": "note_on", "time": 86, "note": 66, "velocity": 105, "channel": 0}, {"type": "note_off", "time": 291, "note": 66, "velocity": 105, "channel": 0}, {"type": "note_on", "time": 111, "note": 64, "velocity": 109, "channel": 0}, {"type": "note_off", "time": 316, "note": 64, "velocity": 109, "channel": 0}, {"type": "note_on", "time": 50, "note": 66, "velocity": 108, "channel": 0}, {"type": "note_off", "time": 165, "note": 66, "velocity": 108, "channel": 0}, {"type": "note_on", "time": 10, "note": 71, "velocity": 101, "channel": 0}, {"type": "note_off", "time": 276, "note": 71, "velocity": 101, "channel": 0}, {"type": "note_on", "time": 104, "note": 69, "velocity": 119, "channel": 0}, {"type": "note_off", "time": 348, "note": 69, "velocity": 119, "channel": 0}, {"type": "note_on", "time": 61, "note": 71, "velocity": 102, "channel": 0}, {"type": "note_off", "time": 330, "note": 71, "velocity": 102, "channel": 0}, {"type": "note_on", "time": 68, "note": 69, "velocity": 9, "channel": 0}, {"type": "note_off", "time": 237, "note": 69, "velocity": 9, "channel": 0}, {"type": "note_on", "time": 75, "note": 71, "velocity": 9, "channel": 0}, {"type": "note_off", "time": 312, "note": 71, "velocity": 9, "channel": 0}, {"type": "note_on", "time": 50, "note": 69, "velocity": 96, "channel": 0}, {"type": "note_off", "time": 330, "note": 69, "velocity": 96, "channel": 0}, {"type": "note_on", "time": 39, "note": 66, "velocity": 112, "channel": 0}, {"type": "note_off", "time": 266, "note": 66, "velocity": 112, "channel": 0}, {"type": "note_on", "time": 107, "note": 71, "velocity": 118, "channel": 0}, {"type": "note_off", "time": 262, "note": 71, "velocity": 118, "channel": 0}, {"type": "note_on", "time": 194, "note": 71, "velocity": 121, "channel": 0}, {"type": "note_off", "time": 363, "note": 71, "velocity": 121, "channel": 0}, {"type": "note_on", "time": 39, "note": 69, "velocity": 101, "channel": 0}, {"type": "note_off", "time": 280, "note": 69, "velocity": 101, "channel": 0}, {"type": "note_on", "time": 151, "note": 71, "velocity": 9, "channel": 0}, {"type": "note_off", "time": 240, "note": 71, "velocity": 9, "channel": 0}, {"type": "note_on", "time": 79, "note": 72, "velocity": 9, "channel": 0}, {"type": "note_off", "time": 284, "note": 72, "velocity": 9, "channel": 0}, {"type": "note_on", "time": 17, "note": 71, "velocity": 56, "channel": 0}, {"type": "note_off", "time": 244, "note": 71, "velocity": 56, "channel": 0}, {"type": "note_on", "time": 79, "note": 69, "velocity": 110, "channel": 0}, {"type": "note_off", "time": 291, "note": 69, "velocity": 110, "channel": 0}, {"type": "note_on", "time": 46, "note": 71, "velocity": 107, "channel": 0}, {"type": "note_off", "time": 345, "note": 71, "velocity": 107, "channel": 0}, {"type": "note_on", "time": 61, "note": 69, "velocity": 80, "channel": 0}, {"type": "note_off", "time": 302, "note": 69, "velocity": 80, "channel": 0}, {"type": "note_on", "time": 93, "note": 71, "velocity": 110, "channel": 0}, {"type": "note_off", "time": 312, "note": 71, "velocity": 110, "channel": 0}, {"type": "note_on", "time": 53, "note": 69, "velocity": 9, "channel": 0}, {"type": "note_off", "time": 352, "note": 69, "velocity": 9, "channel": 0}, {"type": "note_on", "time": 233, "note": 60, "velocity": 9, "channel": 0}, {"type": "note_off", "time": 406, "note": 60, "velocity": 9, "channel": 0}, {"type": "note_on", "time": 75, "note": 64, "velocity": 93, "channel": 0}, {"type": "note_off", "time": 453, "note": 64, "velocity": 93, "channel": 0}, {"type": "note_on", "time": 82, "note": 69, "velocity": 117, "channel": 0}, {"type": "note_off", "time": 255, "note": 69, "velocity": 117, "channel": 0}, {"type": "note_on", "time": 17, "note": 71, "velocity": 116, "channel": 0}, {"type": "note_off", "time": 187, "note": 71, "velocity": 116, "channel": 0}, {"type": "note_on", "time": 35, "note": 73, "velocity": 112, "channel": 0}, {"type": "note_off", "time": 258, "note": 73, "velocity": 112, "channel": 0}, {"type": "note_on", "time": 79, "note": 71, "velocity": 9, "channel": 0}, {"type": "note_off", "time": 222, "note": 71, "velocity": 9, "channel": 0}, {"type": "note_on", "time": 75, "note": 73, "velocity": 9, "channel": 0}, {"type": "note_off", "time": 169, "note": 73, "velocity": 9, "channel": 0}, {"type": "note_on", "time": 86, "note": 71, "velocity": 9, "channel": 0}, {"type": "note_off", "time": 219, "note": 71, "velocity": 9, "channel": 0}, {"type": "note_on", "time": 57, "note": 73, "velocity": 9, "channel": 0}, {"type": "note_off", "time": 204, "note": 73, "velocity": 9, "channel": 0}, {"type": "note_on", "time": 39, "note": 71, "velocity": 9, "channel": 0}, {"type": "note_off", "time": 230, "note": 71, "velocity": 9, "channel": 0}, {"type": "note_on", "time": 53, "note": 69, "velocity": 9, "channel": 0}, {"type": "note_off", "time": 578, "note": 69, "velocity": 9, "channel": 0}, {"type": "note_on", "time": 35, "note": 71, "velocity": 9, "channel": 0}, {"type": "note_off", "time": 244, "note": 71, "velocity": 9, "channel": 0}, {"type": "note_on", "time": 100, "note": 69, "velocity": 9, "channel": 0}, {"type": "note_off", "time": 273, "note": 69, "velocity": 9, "channel": 0}, {"type": "note_on", "time": 35, "note": 66, "velocity": 9, "channel": 0}, {"type": "note_off", "time": 561, "note": 66, "velocity": 9, "channel": 0}, {"type": "note_on", "time": 115, "note": 64, "velocity": 9, "channel": 0}, {"type": "note_off", "time": 233, "note": 64, "velocity": 9, "channel": 0}, {"type": "note_on", "time": 7, "note": 69, "velocity": 9, "channel": 0}, {"type": "note_off", "time": 330, "note": 69, "velocity": 9, "channel": 0}, {"type": "note_on", "time": 71, "note": 66, "velocity": 9, "channel": 0}, {"type": "note_off", "time": 154, "note": 66, "velocity": 9, "channel": 0}, {"type": "note_on", "time": 14, "note": 64, "velocity": 9, "channel": 0}, {"type": "note_off", "time": 262, "note": 64, "velocity": 9, "channel": 0}, {"type": "note_on", "time": 46, "note": 57, "velocity": 9, "channel": 0}, {"type": "note_off", "time": 197, "note": 57, "velocity": 9, "channel": 0}, {"type": "note_on", "time": 17, "note": 54, "velocity": 9, "channel": 0}, {"type": "note_off", "time": 309, "note": 54, "velocity": 9, "channel": 0}, {"type": "note_on", "time": 140, "note": 59, "velocity": 9, "channel": 0}, {"type": "note_off", "time": 463, "note": 59, "velocity": 9, "channel": 0}, {"type": "note_on", "time": 105, "note": 66, "velocity": 9, "channel": 0}, {"type": "note_off", "time": 333, "note": 66, "velocity": 9, "channel": 0}, {"type": "note_on", "time": 64, "note": 64, "velocity": 9, "channel": 0}, {"type": "note_off", "time": 210, "note": 64, "velocity": 9, "channel": 0}, {"type": "note_on", "time": 34, "note": 66, "velocity": 9, "channel": 0}, {"type": "note_off", "time": 264, "note": 66, "velocity": 9, "channel": 0}, {"type": "note_on", "time": 39, "note": 69, "velocity": 9, "channel": 0}, {"type": "note_off", "time": 237, "note": 69, "velocity": 9, "channel": 0}, {"type": "note_on", "time": 99, "note": 72, "velocity": 9, "channel": 0}, {"type": "note_off", "time": 293, "note": 72, "velocity": 9, "channel": 0}, {"type": "note_on", "time": 35, "note": 71, "velocity": 114, "channel": 0}, {"type": "note_off", "time": 252, "note": 71, "velocity": 114, "channel": 0}, {"type": "note_on", "time": 74, "note": 73, "velocity": 116, "channel": 0}, {"type": "note_off", "time": 215, "note": 73, "velocity": 116, "channel": 0}, {"type": "note_on", "time": 46, "note": 71, "velocity": 109, "channel": 0}, {"type": "note_off", "time": 219, "note": 71, "velocity": 109, "channel": 0}, {"type": "note_on", "time": 61, "note": 73, "velocity": 111, "channel": 0}, {"type": "note_off", "time": 169, "note": 73, "velocity": 111, "channel": 0}, {"type": "note_on", "time": 57, "note": 71, "velocity": 111, "channel": 0}, {"type": "note_off", "time": 230, "note": 71, "velocity": 111, "channel": 0}, {"type": "note_on", "time": 53, "note": 73, "velocity": 117, "channel": 0}, {"type": "note_off", "time": 219, "note": 73, "velocity": 117, "channel": 0}, {"type": "note_on", "time": 71, "note": 71, "velocity": 114, "channel": 0}, {"type": "note_off", "time": 222, "note": 71, "velocity": 114, "channel": 0}, {"type": "note_on", "time": 68, "note": 73, "velocity": 116, "channel": 0}, {"type": "note_off", "time": 269, "note": 73, "velocity": 116, "channel": 0}, {"type": "note_on", "time": 35, "note": 71, "velocity": 107, "channel": 0}, {"type": "note_off", "time": 305, "note": 71, "velocity": 107, "channel": 0}, {"type": "note_on", "time": 21, "note": 73, "velocity": 106, "channel": 0}, {"type": "note_off", "time": 222, "note": 73, "velocity": 106, "channel": 0}, {"type": "note_on", "time": 61, "note": 71, "velocity": 114, "channel": 0}, {"type": "note_off", "time": 230, "note": 71, "velocity": 114, "channel": 0}, {"type": "note_on", "time": 61, "note": 73, "velocity": 115, "channel": 0}, {"type": "note_off", "time": 258, "note": 73, "velocity": 115, "channel": 0}, {"type": "note_on", "time": 43, "note": 71, "velocity": 112, "channel": 0}, {"type": "note_off", "time": 230, "note": 71, "velocity": 112, "channel": 0}, {"type": "note_on", "time": 53, "note": 73, "velocity": 113, "channel": 0}, {"type": "note_off", "time": 240, "note": 73, "velocity": 113, "channel": 0}, {"type": "note_on", "time": 75, "note": 71, "velocity": 120, "channel": 0}, {"type": "note_off", "time": 190, "note": 71, "velocity": 120, "channel": 0}, {"type": "note_on", "time": 32, "note": 72, "velocity": 109, "channel": 0}, {"type": "note_off", "time": 215, "note": 72, "velocity": 109, "channel": 0}, {"type": "note_on", "time": 35, "note": 71, "velocity": 109, "channel": 0}, {"type": "note_off", "time": 197, "note": 71, "velocity": 109, "channel": 0}, {"type": "note_on", "time": 25, "note": 69, "velocity": 112, "channel": 0}, {"type": "note_off", "time": 776, "note": 69, "velocity": 112, "channel": 0}, {"type": "note_on", "time": 86, "note": 71, "velocity": 104, "channel": 0}, {"type": "note_off", "time": 496, "note": 71, "velocity": 104, "channel": 0}, {"type": "note_on", "time": 100, "note": 76, "velocity": 113, "channel": 0}, {"type": "note_off", "time": 819, "note": 76, "velocity": 113, "channel": 0}, {"type": "note_on", "time": 4316, "note": 76, "velocity": 111, "channel": 0}, {"type": "note_off", "time": 374, "note": 76, "velocity": 111, "channel": 0}, {"type": "note_on", "time": 192, "note": 71, "velocity": 115, "channel": 0}, {"type": "note_off", "time": 414, "note": 71, "velocity": 115, "channel": 0}, {"type": "note_on", "time": 257, "note": 66, "velocity": 117, "channel": 0}, {"type": "note_off", "time": 348, "note": 66, "velocity": 117, "channel": 0}, {"type": "note_on", "time": 161, "note": 64, "velocity": 101, "channel": 0}, {"type": "note_off", "time": 480, "note": 64, "velocity": 101, "channel": 0}, {"type": "note_on", "time": 131, "note": 62, "velocity": 107, "channel": 0}, {"type": "note_off", "time": 480, "note": 62, "velocity": 107, "channel": 0}, {"type": "note_on", "time": 85, "note": 59, "velocity": 102, "channel": 0}, {"type": "note_off", "time": 460, "note": 59, "velocity": 102, "channel": 0}, {"type": "note_on", "time": 182, "note": 54, "velocity": 113, "channel": 0}, {"type": "note_off", "time": 510, "note": 54, "velocity": 113, "channel": 0}, {"type": "note_on", "time": 126, "note": 52, "velocity": 101, "channel": 0}, {"type": "note_off", "time": 622, "note": 52, "velocity": 101, "channel": 0}, {"type": "note_on", "time": 75, "note": 54, "velocity": 113, "channel": 0}, {"type": "note_off", "time": 171, "note": 54, "velocity": 113, "channel": 0}, {"type": "note_on", "time": 75, "note": 55, "velocity": 102, "channel": 0}, {"type": "note_off", "time": 171, "note": 55, "velocity": 102, "channel": 0}, {"type": "note_on", "time": 45, "note": 54, "velocity": 97, "channel": 0}, {"type": "note_off", "time": 237, "note": 54, "velocity": 97, "channel": 0}, {"type": "note_on", "time": 35, "note": 59, "velocity": 117, "channel": 0}, {"type": "note_off", "time": 394, "note": 59, "velocity": 117, "channel": 0}, {"type": "note_on", "time": 65, "note": 62, "velocity": 110, "channel": 0}, {"type": "note_off", "time": 551, "note": 62, "velocity": 110, "channel": 0}, {"type": "note_on", "time": 101, "note": 64, "velocity": 99, "channel": 0}, {"type": "note_off", "time": 510, "note": 64, "velocity": 99, "channel": 0}, {"type": "note_on", "time": 101, "note": 66, "velocity": 105, "channel": 0}, {"type": "note_off", "time": 632, "note": 66, "velocity": 105, "channel": 0}, {"type": "note_on", "time": 184, "note": 71, "velocity": 9, "channel": 0}, {"type": "note_off", "time": 351, "note": 71, "velocity": 9, "channel": 0}, {"type": "note_on", "time": 243, "note": 74, "velocity": 9, "channel": 0}, {"type": "note_off", "time": 381, "note": 74, "velocity": 9, "channel": 0}, {"type": "note_on", "time": 260, "note": 76, "velocity": 9, "channel": 0}, {"type": "note_off", "time": 632, "note": 76, "velocity": 9, "channel": 0}, {"type": "note_on", "time": 86, "note": 78, "velocity": 77, "channel": 0}, {"type": "note_off", "time": 445, "note": 78, "velocity": 77, "channel": 0}, {"type": "note_on", "time": 604, "note": 76, "velocity": 111, "channel": 0}, {"type": "note_off", "time": 611, "note": 76, "velocity": 111, "channel": 0}, {"type": "note_on", "time": 15, "note": 78, "velocity": 114, "channel": 0}, {"type": "note_off", "time": 531, "note": 78, "velocity": 114, "channel": 0}, {"type": "note_on", "time": 667, "note": 76, "velocity": 121, "channel": 0}, {"type": "note_off", "time": 687, "note": 76, "velocity": 121, "channel": 0}, {"type": "note_on", "time": 35, "note": 78, "velocity": 121, "channel": 0}, {"type": "note_off", "time": 505, "note": 78, "velocity": 121, "channel": 0}, {"type": "note_on", "time": 834, "note": 76, "velocity": 100, "channel": 0}, {"type": "note_off", "time": 556, "note": 76, "velocity": 100, "channel": 0}, {"type": "note_on", "time": 55, "note": 78, "velocity": 9, "channel": 0}, {"type": "note_off", "time": 465, "note": 78, "velocity": 9, "channel": 0}, {"type": "note_on", "time": 773, "note": 76, "velocity": 9, "channel": 0}, {"type": "note_off", "time": 616, "note": 76, "velocity": 9, "channel": 0}, {"type": "note_on", "time": 45, "note": 78, "velocity": 9, "channel": 0}, {"type": "note_off", "time": 490, "note": 78, "velocity": 9, "channel": 0}, {"type": "note_on", "time": 576, "note": 76, "velocity": 9, "channel": 0}, {"type": "note_off", "time": 536, "note": 76, "velocity": 9, "channel": 0}, {"type": "note_on", "time": 495, "note": 78, "velocity": 9, "channel": 0}, {"type": "note_off", "time": 480, "note": 78, "velocity": 9, "channel": 0}, {"type": "note_on", "time": 606, "note": 78, "velocity": 100, "channel": 0}, {"type": "note_off", "time": 359, "note": 78, "velocity": 100, "channel": 0}, {"type": "note_on", "time": 510, "note": 78, "velocity": 111, "channel": 0}, {"type": "note_off", "time": 394, "note": 78, "velocity": 111, "channel": 0}, {"type": "note_on", "time": 546, "note": 76, "velocity": 70, "channel": 0}, {"type": "note_off", "time": 647, "note": 76, "velocity": 70, "channel": 0}, {"type": "note_on", "time": 187, "note": 78, "velocity": 9, "channel": 0}, {"type": "note_off", "time": 1769, "note": 78, "velocity": 9, "channel": 0}, {"type": "note_on", "time": 2661, "note": 52, "velocity": 9, "channel": 0}, {"type": "note_off", "time": 359, "note": 52, "velocity": 9, "channel": 0}, {"type": "note_on", "time": 50, "note": 54, "velocity": 87, "channel": 0}, {"type": "note_off", "time": 406, "note": 54, "velocity": 87, "channel": 0}, {"type": "note_on", "time": 75, "note": 59, "velocity": 110, "channel": 0}, {"type": "note_off", "time": 363, "note": 59, "velocity": 110, "channel": 0}, {"type": "note_on", "time": 107, "note": 62, "velocity": 9, "channel": 0}, {"type": "note_off", "time": 442, "note": 62, "velocity": 9, "channel": 0}, {"type": "note_on", "time": 294, "note": 57, "velocity": 116, "channel": 0}, {"type": "note_off", "time": 323, "note": 57, "velocity": 116, "channel": 0}, {"type": "note_on", "time": 222, "note": 59, "velocity": 118, "channel": 0}, {"type": "note_off", "time": 334, "note": 59, "velocity": 118, "channel": 0}, {"type": "note_on", "time": 315, "note": 64, "velocity": 102, "channel": 0}, {"type": "note_off", "time": 303, "note": 64, "velocity": 102, "channel": 0}, {"type": "note_on", "time": 318, "note": 66, "velocity": 109, "channel": 0}, {"type": "note_off", "time": 257, "note": 66, "velocity": 109, "channel": 0}, {"type": "note_on", "time": 303, "note": 69, "velocity": 108, "channel": 0}, {"type": "note_off", "time": 439, "note": 69, "velocity": 108, "channel": 0}, {"type": "note_on", "time": 283, "note": 71, "velocity": 111, "channel": 0}, {"type": "note_off", "time": 359, "note": 71, "velocity": 111, "channel": 0}, {"type": "note_on", "time": 354, "note": 74, "velocity": 108, "channel": 0}, {"type": "note_off", "time": 262, "note": 74, "velocity": 108, "channel": 0}, {"type": "note_on", "time": 308, "note": 76, "velocity": 108, "channel": 0}, {"type": "note_off", "time": 313, "note": 76, "velocity": 108, "channel": 0}, {"type": "note_on", "time": 429, "note": 76, "velocity": 114, "channel": 0}, {"type": "note_off", "time": 460, "note": 76, "velocity": 114, "channel": 0}, {"type": "note_on", "time": 35, "note": 78, "velocity": 111, "channel": 0}, {"type": "note_off", "time": 419, "note": 78, "velocity": 111, "channel": 0}, {"type": "note_on", "time": 111, "note": 76, "velocity": 109, "channel": 0}, {"type": "note_off", "time": 490, "note": 76, "velocity": 109, "channel": 0}, {"type": "note_on", "time": 212, "note": 76, "velocity": 107, "channel": 0}, {"type": "note_off", "time": 591, "note": 76, "velocity": 107, "channel": 0}, {"type": "note_on", "time": 71, "note": 78, "velocity": 109, "channel": 0}, {"type": "note_off", "time": 424, "note": 78, "velocity": 109, "channel": 0}, {"type": "note_on", "time": 298, "note": 76, "velocity": 108, "channel": 0}, {"type": "note_off", "time": 369, "note": 76, "velocity": 108, "channel": 0}, {"type": "note_on", "time": 273, "note": 76, "velocity": 106, "channel": 0}, {"type": "note_off", "time": 379, "note": 76, "velocity": 106, "channel": 0}, {"type": "note_on", "time": 55, "note": 78, "velocity": 106, "channel": 0}, {"type": "note_off", "time": 551, "note": 78, "velocity": 106, "channel": 0}, {"type": "note_on", "time": 328, "note": 76, "velocity": 110, "channel": 0}, {"type": "note_off", "time": 338, "note": 76, "velocity": 110, "channel": 0}, {"type": "note_on", "time": 106, "note": 78, "velocity": 112, "channel": 0}, {"type": "note_off", "time": 460, "note": 78, "velocity": 112, "channel": 0}, {"type": "note_on", "time": 434, "note": 76, "velocity": 107, "channel": 0}, {"type": "note_off", "time": 369, "note": 76, "velocity": 107, "channel": 0}, {"type": "note_on", "time": 197, "note": 76, "velocity": 112, "channel": 0}, {"type": "note_off", "time": 283, "note": 76, "velocity": 112, "channel": 0}, {"type": "note_on", "time": 258, "note": 76, "velocity": 119, "channel": 0}, {"type": "note_off", "time": 704, "note": 76, "velocity": 119, "channel": 0}, {"type": "note_on", "time": 57, "note": 78, "velocity": 118, "channel": 0}, {"type": "note_off", "time": 287, "note": 78, "velocity": 118, "channel": 0}, {"type": "note_on", "time": 309, "note": 76, "velocity": 114, "channel": 0}, {"type": "note_off", "time": 289, "note": 76, "velocity": 114, "channel": 0}, {"type": "note_on", "time": 278, "note": 76, "velocity": 114, "channel": 0}, {"type": "note_off", "time": 614, "note": 76, "velocity": 114, "channel": 0}, {"type": "note_on", "time": 97, "note": 78, "velocity": 112, "channel": 0}, {"type": "note_off", "time": 370, "note": 78, "velocity": 112, "channel": 0}, {"type": "note_on", "time": 322, "note": 76, "velocity": 116, "channel": 0}, {"type": "note_off", "time": 374, "note": 76, "velocity": 116, "channel": 0}, {"type": "note_on", "time": 232, "note": 78, "velocity": 111, "channel": 0}, {"type": "note_off", "time": 2275, "note": 78, "velocity": 111, "channel": 0}, {"type": "note_on", "time": 2295, "note": 52, "velocity": 9, "channel": 0}, {"type": "note_off", "time": 288, "note": 52, "velocity": 9, "channel": 0}, {"type": "note_on", "time": 40, "note": 54, "velocity": 9, "channel": 0}, {"type": "note_off", "time": 237, "note": 54, "velocity": 9, "channel": 0}, {"type": "note_on", "time": 182, "note": 59, "velocity": 9, "channel": 0}, {"type": "note_off", "time": 293, "note": 59, "velocity": 9, "channel": 0}, {"type": "note_on", "time": 217, "note": 62, "velocity": 9, "channel": 0}, {"type": "note_off", "time": 424, "note": 62, "velocity": 9, "channel": 0}, {"type": "note_on", "time": 212, "note": 57, "velocity": 9, "channel": 0}, {"type": "note_off", "time": 450, "note": 57, "velocity": 9, "channel": 0}, {"type": "note_on", "time": 106, "note": 59, "velocity": 9, "channel": 0}, {"type": "note_off", "time": 439, "note": 59, "velocity": 9, "channel": 0}, {"type": "note_on", "time": 284, "note": 52, "velocity": 103, "channel": 0}, {"type": "note_off", "time": 435, "note": 52, "velocity": 103, "channel": 0}, {"type": "note_on", "time": 53, "note": 54, "velocity": 112, "channel": 0}, {"type": "note_off", "time": 677, "note": 54, "velocity": 112, "channel": 0}, {"type": "note_on", "time": 70, "note": 57, "velocity": 108, "channel": 0}, {"type": "note_off", "time": 417, "note": 57, "velocity": 108, "channel": 0}, {"type": "note_on", "time": 25, "note": 54, "velocity": 106, "channel": 0}, {"type": "note_off", "time": 499, "note": 54, "velocity": 106, "channel": 0}, {"type": "note_on", "time": 273, "note": 59, "velocity": 105, "channel": 0}, {"type": "note_off", "time": 431, "note": 59, "velocity": 105, "channel": 0}, {"type": "note_on", "time": 287, "note": 57, "velocity": 107, "channel": 0}, {"type": "note_off", "time": 388, "note": 57, "velocity": 107, "channel": 0}, {"type": "note_on", "time": 216, "note": 64, "velocity": 107, "channel": 0}, {"type": "note_off", "time": 363, "note": 64, "velocity": 107, "channel": 0}, {"type": "note_on", "time": 172, "note": 59, "velocity": 105, "channel": 0}, {"type": "note_off", "time": 543, "note": 59, "velocity": 105, "channel": 0}, {"type": "note_on", "time": 115, "note": 57, "velocity": 116, "channel": 0}, {"type": "note_off", "time": 308, "note": 57, "velocity": 116, "channel": 0}, {"type": "note_on", "time": 268, "note": 66, "velocity": 112, "channel": 0}, {"type": "note_off", "time": 500, "note": 66, "velocity": 112, "channel": 0}, {"type": "note_on", "time": 65, "note": 64, "velocity": 117, "channel": 0}, {"type": "note_off", "time": 505, "note": 64, "velocity": 117, "channel": 0}, {"type": "note_on", "time": 273, "note": 69, "velocity": 97, "channel": 0}, {"type": "note_off", "time": 257, "note": 69, "velocity": 97, "channel": 0}, {"type": "note_on", "time": 50, "note": 68, "velocity": 101, "channel": 0}, {"type": "note_off", "time": 242, "note": 68, "velocity": 101, "channel": 0}, {"type": "note_on", "time": 45, "note": 69, "velocity": 118, "channel": 0}, {"type": "note_off", "time": 445, "note": 69, "velocity": 118, "channel": 0}, {"type": "note_on", "time": 278, "note": 64, "velocity": 111, "channel": 0}, {"type": "note_off", "time": 343, "note": 64, "velocity": 111, "channel": 0}, {"type": "note_on", "time": 192, "note": 71, "velocity": 112, "channel": 0}, {"type": "note_off", "time": 525, "note": 71, "velocity": 112, "channel": 0}, {"type": "note_on", "time": 333, "note": 64, "velocity": 119, "channel": 0}, {"type": "note_off", "time": 404, "note": 64, "velocity": 119, "channel": 0}, {"type": "note_on", "time": 131, "note": 66, "velocity": 9, "channel": 0}, {"type": "note_off", "time": 318, "note": 66, "velocity": 9, "channel": 0}, {"type": "note_on", "time": 252, "note": 69, "velocity": 100, "channel": 0}, {"type": "note_off", "time": 318, "note": 69, "velocity": 100, "channel": 0}, {"type": "note_on", "time": 445, "note": 75, "velocity": 102, "channel": 0}, {"type": "note_off", "time": 379, "note": 75, "velocity": 102, "channel": 0}, {"type": "note_on", "time": 101, "note": 77, "velocity": 100, "channel": 0}, {"type": "note_off", "time": 288, "note": 77, "velocity": 100, "channel": 0}, {"type": "note_on", "time": 35, "note": 78, "velocity": 110, "channel": 0}, {"type": "note_off", "time": 328, "note": 78, "velocity": 110, "channel": 0}, {"type": "note_on", "time": 156, "note": 83, "velocity": 110, "channel": 0}, {"type": "note_off", "time": 298, "note": 83, "velocity": 110, "channel": 0}, {"type": "note_on", "time": 288, "note": 76, "velocity": 111, "channel": 0}, {"type": "note_off", "time": 434, "note": 76, "velocity": 111, "channel": 0}, {"type": "note_on", "time": 70, "note": 78, "velocity": 108, "channel": 0}, {"type": "note_off", "time": 627, "note": 78, "velocity": 108, "channel": 0}, {"type": "note_on", "time": 166, "note": 76, "velocity": 107, "channel": 0}, {"type": "note_off", "time": 480, "note": 76, "velocity": 107, "channel": 0}, {"type": "note_on", "time": 131, "note": 78, "velocity": 109, "channel": 0}, {"type": "note_off", "time": 480, "note": 78, "velocity": 109, "channel": 0}, {"type": "note_on", "time": 1481, "note": 76, "velocity": 110, "channel": 0}, {"type": "note_off", "time": 566, "note": 76, "velocity": 110, "channel": 0}, {"type": "note_on", "time": 96, "note": 78, "velocity": 112, "channel": 0}, {"type": "note_off", "time": 581, "note": 78, "velocity": 112, "channel": 0}, {"type": "note_on", "time": 76, "note": 81, "velocity": 113, "channel": 0}, {"type": "note_off", "time": 381, "note": 81, "velocity": 113, "channel": 0}, {"type": "note_on", "time": 151, "note": 76, "velocity": 113, "channel": 0}, {"type": "note_off", "time": 561, "note": 76, "velocity": 113, "channel": 0}, {"type": "note_on", "time": 79, "note": 78, "velocity": 112, "channel": 0}, {"type": "note_off", "time": 460, "note": 78, "velocity": 112, "channel": 0}, {"type": "note_on", "time": 151, "note": 76, "velocity": 108, "channel": 0}, {"type": "note_off", "time": 553, "note": 76, "velocity": 108, "channel": 0}, {"type": "note_on", "time": 93, "note": 78, "velocity": 113, "channel": 0}, {"type": "note_off", "time": 431, "note": 78, "velocity": 113, "channel": 0}, {"type": "note_on", "time": 1567, "note": 76, "velocity": 109, "channel": 0}, {"type": "note_off", "time": 532, "note": 76, "velocity": 109, "channel": 0}, {"type": "note_on", "time": 122, "note": 78, "velocity": 112, "channel": 0}, {"type": "note_off", "time": 374, "note": 78, "velocity": 112, "channel": 0}, {"type": "note_on", "time": 143, "note": 81, "velocity": 112, "channel": 0}, {"type": "note_off", "time": 402, "note": 81, "velocity": 112, "channel": 0}, {"type": "note_on", "time": 222, "note": 76, "velocity": 106, "channel": 0}, {"type": "note_off", "time": 589, "note": 76, "velocity": 106, "channel": 0}, {"type": "note_on", "time": 201, "note": 78, "velocity": 114, "channel": 0}, {"type": "note_off", "time": 481, "note": 78, "velocity": 114, "channel": 0}, {"type": "note_on", "time": 79, "note": 76, "velocity": 83, "channel": 0}, {"type": "note_off", "time": 532, "note": 76, "velocity": 83, "channel": 0}, {"type": "note_on", "time": 187, "note": 78, "velocity": 9, "channel": 0}, {"type": "note_off", "time": 445, "note": 78, "velocity": 9, "channel": 0}, {"type": "note_on", "time": 1546, "note": 76, "velocity": 49, "channel": 0}, {"type": "note_off", "time": 503, "note": 76, "velocity": 49, "channel": 0}, {"type": "note_on", "time": 46, "note": 78, "velocity": 123, "channel": 0}, {"type": "note_off", "time": 571, "note": 78, "velocity": 123, "channel": 0}, {"type": "note_on", "time": 79, "note": 81, "velocity": 116, "channel": 0}, {"type": "note_off", "time": 402, "note": 81, "velocity": 116, "channel": 0}, {"type": "note_on", "time": 769, "note": 81, "velocity": 118, "channel": 0}, {"type": "note_off", "time": 391, "note": 81, "velocity": 118, "channel": 0}, {"type": "note_on", "time": 57, "note": 83, "velocity": 110, "channel": 0}, {"type": "note_off", "time": 1348, "note": 83, "velocity": 110, "channel": 0}, {"type": "note_on", "time": 194, "note": 78, "velocity": 117, "channel": 0}, {"type": "note_off", "time": 489, "note": 78, "velocity": 117, "channel": 0}, {"type": "note_on", "time": 748, "note": 78, "velocity": 112, "channel": 0}, {"type": "note_off", "time": 1071, "note": 78, "velocity": 112, "channel": 0}, {"type": "note_on", "time": 2351, "note": 76, "velocity": 110, "channel": 0}, {"type": "note_off", "time": 359, "note": 76, "velocity": 110, "channel": 0}, {"type": "note_on", "time": 122, "note": 78, "velocity": 105, "channel": 0}, {"type": "note_off", "time": 575, "note": 78, "velocity": 105, "channel": 0}, {"type": "note_on", "time": 100, "note": 81, "velocity": 107, "channel": 0}, {"type": "note_off", "time": 352, "note": 81, "velocity": 107, "channel": 0}, {"type": "note_on", "time": 244, "note": 76, "velocity": 116, "channel": 0}, {"type": "note_off", "time": 460, "note": 76, "velocity": 116, "channel": 0}, {"type": "note_on", "time": 79, "note": 78, "velocity": 108, "channel": 0}, {"type": "note_off", "time": 431, "note": 78, "velocity": 108, "channel": 0}, {"type": "note_on", "time": 244, "note": 81, "velocity": 104, "channel": 0}, {"type": "note_off", "time": 596, "note": 81, "velocity": 104, "channel": 0}, {"type": "note_on", "time": 151, "note": 82, "velocity": 110, "channel": 0}, {"type": "note_off", "time": 481, "note": 82, "velocity": 110, "channel": 0}, {"type": "note_on", "time": 35, "note": 83, "velocity": 112, "channel": 0}, {"type": "note_off", "time": 1086, "note": 83, "velocity": 112, "channel": 0}, {"type": "note_on", "time": 330, "note": 78, "velocity": 117, "channel": 0}, {"type": "note_off", "time": 532, "note": 78, "velocity": 117, "channel": 0}, {"type": "note_on", "time": 661, "note": 78, "velocity": 111, "channel": 0}, {"type": "note_off", "time": 1661, "note": 78, "velocity": 111, "channel": 0}, {"type": "note_on", "time": 1754, "note": 76, "velocity": 9, "channel": 0}, {"type": "note_off", "time": 413, "note": 76, "velocity": 9, "channel": 0}, {"type": "note_on", "time": 190, "note": 78, "velocity": 9, "channel": 0}, {"type": "note_off", "time": 431, "note": 78, "velocity": 9, "channel": 0}, {"type": "note_on", "time": 61, "note": 81, "velocity": 63, "channel": 0}, {"type": "note_off", "time": 481, "note": 81, "velocity": 63, "channel": 0}, {"type": "note_on", "time": 291, "note": 76, "velocity": 113, "channel": 0}, {"type": "note_off", "time": 445, "note": 76, "velocity": 113, "channel": 0}, {"type": "note_on", "time": 100, "note": 78, "velocity": 9, "channel": 0}, {"type": "note_off", "time": 359, "note": 78, "velocity": 9, "channel": 0}, {"type": "note_on", "time": 316, "note": 81, "velocity": 9, "channel": 0}, {"type": "note_off", "time": 453, "note": 81, "velocity": 9, "channel": 0}, {"type": "note_on", "time": 64, "note": 83, "velocity": 102, "channel": 0}, {"type": "note_off", "time": 863, "note": 83, "velocity": 102, "channel": 0}, {"type": "note_on", "time": 366, "note": 76, "velocity": 9, "channel": 0}, {"type": "note_off", "time": 424, "note": 76, "velocity": 9, "channel": 0}, {"type": "note_on", "time": 50, "note": 77, "velocity": 52, "channel": 0}, {"type": "note_off", "time": 352, "note": 77, "velocity": 52, "channel": 0}, {"type": "note_on", "time": 147, "note": 78, "velocity": 119, "channel": 0}, {"type": "note_off", "time": 273, "note": 78, "velocity": 119, "channel": 0}, {"type": "note_on", "time": 71, "note": 81, "velocity": 120, "channel": 0}, {"type": "note_off", "time": 381, "note": 81, "velocity": 120, "channel": 0}, {"type": "note_on", "time": 180, "note": 76, "velocity": 104, "channel": 0}, {"type": "note_off", "time": 692, "note": 76, "velocity": 104, "channel": 0}, {"type": "note_on", "time": 70, "note": 78, "velocity": 103, "channel": 0}, {"type": "note_off", "time": 293, "note": 78, "velocity": 103, "channel": 0}, {"type": "note_on", "time": 272, "note": 81, "velocity": 109, "channel": 0}, {"type": "note_off", "time": 445, "note": 81, "velocity": 109, "channel": 0}, {"type": "note_on", "time": 32, "note": 83, "velocity": 107, "channel": 0}, {"type": "note_off", "time": 906, "note": 83, "velocity": 107, "channel": 0}, {"type": "note_on", "time": 532, "note": 76, "velocity": 117, "channel": 0}, {"type": "note_off", "time": 611, "note": 76, "velocity": 117, "channel": 0}, {"type": "note_on", "time": 79, "note": 78, "velocity": 9, "channel": 0}, {"type": "note_off", "time": 445, "note": 78, "velocity": 9, "channel": 0}, {"type": "note_on", "time": 79, "note": 81, "velocity": 9, "channel": 0}, {"type": "note_off", "time": 503, "note": 81, "velocity": 9, "channel": 0}, {"type": "note_on", "time": 96, "note": 76, "velocity": 9, "channel": 0}, {"type": "note_off", "time": 586, "note": 76, "velocity": 9, "channel": 0}, {"type": "note_on", "time": 80, "note": 78, "velocity": 120, "channel": 0}, {"type": "note_off", "time": 399, "note": 78, "velocity": 120, "channel": 0}, {"type": "note_on", "time": 166, "note": 81, "velocity": 9, "channel": 0}, {"type": "note_off", "time": 536, "note": 81, "velocity": 9, "channel": 0}, {"type": "note_on", "time": 80, "note": 83, "velocity": 54, "channel": 0}, {"type": "note_off", "time": 1921, "note": 83, "velocity": 54, "channel": 0}, {"type": "note_on", "time": 111, "note": 78, "velocity": 9, "channel": 0}, {"type": "note_off", "time": 647, "note": 78, "velocity": 9, "channel": 0}, {"type": "note_on", "time": 748, "note": 78, "velocity": 114, "channel": 0}, {"type": "note_off", "time": 879, "note": 78, "velocity": 114, "channel": 0}, {"type": "note_on", "time": 232, "note": 78, "velocity": 95, "channel": 0}, {"type": "note_off", "time": 596, "note": 78, "velocity": 95, "channel": 0}, {"type": "note_on", "time": 1572, "note": 81, "velocity": 115, "channel": 0}, {"type": "note_off", "time": 338, "note": 81, "velocity": 115, "channel": 0}, {"type": "note_on", "time": 151, "note": 78, "velocity": 110, "channel": 0}, {"type": "note_off", "time": 481, "note": 78, "velocity": 110, "channel": 0}, {"type": "note_on", "time": 86, "note": 76, "velocity": 9, "channel": 0}, {"type": "note_off", "time": 496, "note": 76, "velocity": 9, "channel": 0}, {"type": "note_on", "time": 172, "note": 81, "velocity": 110, "channel": 0}, {"type": "note_off", "time": 417, "note": 81, "velocity": 110, "channel": 0}, {"type": "note_on", "time": 251, "note": 78, "velocity": 19, "channel": 0}, {"type": "note_off", "time": 395, "note": 78, "velocity": 19, "channel": 0}, {"type": "note_on", "time": 136, "note": 75, "velocity": 9, "channel": 0}, {"type": "note_off", "time": 503, "note": 75, "velocity": 9, "channel": 0}, {"type": "note_on", "time": 133, "note": 73, "velocity": 92, "channel": 0}, {"type": "note_off", "time": 1881, "note": 73, "velocity": 92, "channel": 0}, {"type": "note_on", "time": 111, "note": 71, "velocity": 9, "channel": 0}, {"type": "note_off", "time": 819, "note": 71, "velocity": 9, "channel": 0}, {"type": "note_on", "time": 556, "note": 71, "velocity": 114, "channel": 0}, {"type": "note_off", "time": 1931, "note": 71, "velocity": 114, "channel": 0}, {"type": "note_on", "time": 1226, "note": 82, "velocity": 111, "channel": 0}, {"type": "note_off", "time": 465, "note": 82, "velocity": 111, "channel": 0}, {"type": "note_on", "time": 128, "note": 80, "velocity": 114, "channel": 0}, {"type": "note_off", "time": 409, "note": 80, "velocity": 114, "channel": 0}, {"type": "note_on", "time": 168, "note": 78, "velocity": 117, "channel": 0}, {"type": "note_off", "time": 381, "note": 78, "velocity": 117, "channel": 0}, {"type": "note_on", "time": 117, "note": 81, "velocity": 121, "channel": 0}, {"type": "note_off", "time": 217, "note": 81, "velocity": 121, "channel": 0}, {"type": "note_on", "time": 75, "note": 83, "velocity": 115, "channel": 0}, {"type": "note_off", "time": 374, "note": 83, "velocity": 115, "channel": 0}, {"type": "note_on", "time": 70, "note": 80, "velocity": 114, "channel": 0}, {"type": "note_off", "time": 364, "note": 80, "velocity": 114, "channel": 0}, {"type": "note_on", "time": 65, "note": 78, "velocity": 110, "channel": 0}, {"type": "note_off", "time": 273, "note": 78, "velocity": 110, "channel": 0}, {"type": "note_on", "time": 65, "note": 77, "velocity": 102, "channel": 0}, {"type": "note_off", "time": 232, "note": 77, "velocity": 102, "channel": 0}, {"type": "note_on", "time": 126, "note": 76, "velocity": 99, "channel": 0}, {"type": "note_off", "time": 374, "note": 76, "velocity": 99, "channel": 0}, {"type": "note_on", "time": 91, "note": 73, "velocity": 110, "channel": 0}, {"type": "note_off", "time": 1335, "note": 73, "velocity": 110, "channel": 0}, {"type": "note_on", "time": 273, "note": 71, "velocity": 119, "channel": 0}, {"type": "note_off", "time": 667, "note": 71, "velocity": 119, "channel": 0}, {"type": "note_on", "time": 647, "note": 71, "velocity": 103, "channel": 0}, {"type": "note_off", "time": 1739, "note": 71, "velocity": 103, "channel": 0}, {"type": "note_on", "time": 1505, "note": 71, "velocity": 88, "channel": 0}, {"type": "note_off", "time": 510, "note": 71, "velocity": 88, "channel": 0}, {"type": "note_on", "time": 71, "note": 73, "velocity": 120, "channel": 0}, {"type": "note_off", "time": 409, "note": 73, "velocity": 120, "channel": 0}, {"type": "note_on", "time": 107, "note": 76, "velocity": 119, "channel": 0}, {"type": "note_off", "time": 352, "note": 76, "velocity": 119, "channel": 0}, {"type": "note_on", "time": 208, "note": 78, "velocity": 119, "channel": 0}, {"type": "note_off", "time": 460, "note": 78, "velocity": 119, "channel": 0}, {"type": "note_on", "time": 165, "note": 81, "velocity": 113, "channel": 0}, {"type": "note_off", "time": 467, "note": 81, "velocity": 113, "channel": 0}, {"type": "note_on", "time": 71, "note": 78, "velocity": 114, "channel": 0}, {"type": "note_off", "time": 424, "note": 78, "velocity": 114, "channel": 0}, {"type": "note_on", "time": 179, "note": 81, "velocity": 106, "channel": 0}, {"type": "note_off", "time": 302, "note": 81, "velocity": 106, "channel": 0}, {"type": "note_on", "time": 35, "note": 83, "velocity": 109, "channel": 0}, {"type": "note_off", "time": 1798, "note": 83, "velocity": 109, "channel": 0}, {"type": "note_on", "time": 53, "note": 81, "velocity": 9, "channel": 0}, {"type": "note_off", "time": 556, "note": 81, "velocity": 9, "channel": 0}, {"type": "note_on", "time": 569, "note": 78, "velocity": 114, "channel": 0}, {"type": "note_off", "time": 1093, "note": 78, "velocity": 114, "channel": 0}, {"type": "note_on", "time": 863, "note": 78, "velocity": 111, "channel": 0}, {"type": "note_off", "time": 1639, "note": 78, "velocity": 111, "channel": 0}, {"type": "note_on", "time": 201, "note": 76, "velocity": 9, "channel": 0}, {"type": "note_off", "time": 1107, "note": 76, "velocity": 9, "channel": 0}, {"type": "note_on", "time": 115, "note": 73, "velocity": 9, "channel": 0}, {"type": "note_off", "time": 445, "note": 73, "velocity": 9, "channel": 0}, {"type": "note_on", "time": 1473, "note": 73, "velocity": 106, "channel": 0}, {"type": "note_off", "time": 1729, "note": 73, "velocity": 106, "channel": 0}, {"type": "note_on", "time": 151, "note": 71, "velocity": 9, "channel": 0}, {"type": "note_off", "time": 1051, "note": 71, "velocity": 9, "channel": 0}, {"type": "note_on", "time": 202, "note": 69, "velocity": 9, "channel": 0}, {"type": "note_off", "time": 586, "note": 69, "velocity": 9, "channel": 0}, {"type": "note_on", "time": 1982, "note": 71, "velocity": 108, "channel": 0}, {"type": "note_off", "time": 445, "note": 71, "velocity": 108, "channel": 0}, {"type": "note_on", "time": 212, "note": 69, "velocity": 119, "channel": 0}, {"type": "note_off", "time": 424, "note": 69, "velocity": 119, "channel": 0}, {"type": "note_on", "time": 171, "note": 66, "velocity": 97, "channel": 0}, {"type": "note_off", "time": 414, "note": 66, "velocity": 97, "channel": 0}, {"type": "note_on", "time": 262, "note": 69, "velocity": 9, "channel": 0}, {"type": "note_off", "time": 394, "note": 69, "velocity": 9, "channel": 0}, {"type": "note_on", "time": 151, "note": 64, "velocity": 9, "channel": 0}, {"type": "note_off", "time": 546, "note": 64, "velocity": 9, "channel": 0}, {"type": "note_on", "time": 125, "note": 69, "velocity": 28, "channel": 0}, {"type": "note_off", "time": 575, "note": 69, "velocity": 28, "channel": 0}, {"type": "note_on", "time": 71, "note": 66, "velocity": 115, "channel": 0}, {"type": "note_off", "time": 517, "note": 66, "velocity": 115, "channel": 0}, {"type": "note_on", "time": 115, "note": 62, "velocity": 109, "channel": 0}, {"type": "note_off", "time": 2002, "note": 62, "velocity": 109, "channel": 0}, {"type": "note_on", "time": 1962, "note": 73, "velocity": 9, "channel": 0}, {"type": "note_off", "time": 333, "note": 73, "velocity": 9, "channel": 0}, {"type": "note_on", "time": 70, "note": 72, "velocity": 9, "channel": 0}, {"type": "note_off", "time": 622, "note": 72, "velocity": 9, "channel": 0}, {"type": "note_on", "time": 156, "note": 69, "velocity": 112, "channel": 0}, {"type": "note_off", "time": 419, "note": 69, "velocity": 112, "channel": 0}, {"type": "note_on", "time": 80, "note": 68, "velocity": 99, "channel": 0}, {"type": "note_off", "time": 439, "note": 68, "velocity": 99, "channel": 0}, {"type": "note_on", "time": 247, "note": 72, "velocity": 97, "channel": 0}, {"type": "note_off", "time": 520, "note": 72, "velocity": 97, "channel": 0}, {"type": "note_on", "time": 90, "note": 67, "velocity": 114, "channel": 0}, {"type": "note_off", "time": 640, "note": 67, "velocity": 114, "channel": 0}, {"type": "note_on", "time": 71, "note": 66, "velocity": 9, "channel": 0}, {"type": "note_off", "time": 525, "note": 66, "velocity": 9, "channel": 0}, {"type": "note_on", "time": 194, "note": 69, "velocity": 9, "channel": 0}, {"type": "note_off", "time": 388, "note": 69, "velocity": 9, "channel": 0}, {"type": "note_on", "time": 215, "note": 65, "velocity": 9, "channel": 0}, {"type": "note_off", "time": 445, "note": 65, "velocity": 9, "channel": 0}, {"type": "note_on", "time": 71, "note": 62, "velocity": 9, "channel": 0}, {"type": "note_off", "time": 525, "note": 62, "velocity": 9, "channel": 0}, {"type": "note_on", "time": 115, "note": 67, "velocity": 9, "channel": 0}, {"type": "note_off", "time": 474, "note": 67, "velocity": 9, "channel": 0}, {"type": "note_on", "time": 122, "note": 66, "velocity": 9, "channel": 0}, {"type": "note_off", "time": 589, "note": 66, "velocity": 9, "channel": 0}, {"type": "note_on", "time": 21, "note": 61, "velocity": 9, "channel": 0}, {"type": "note_off", "time": 532, "note": 61, "velocity": 9, "channel": 0}, {"type": "note_on", "time": 118, "note": 56, "velocity": 85, "channel": 0}, {"type": "note_off", "time": 278, "note": 56, "velocity": 85, "channel": 0}, {"type": "note_on", "time": 40, "note": 57, "velocity": 115, "channel": 0}, {"type": "note_off", "time": 333, "note": 57, "velocity": 115, "channel": 0}, {"type": "note_on", "time": 45, "note": 54, "velocity": 111, "channel": 0}, {"type": "note_off", "time": 490, "note": 54, "velocity": 111, "channel": 0}, {"type": "note_on", "time": 141, "note": 59, "velocity": 105, "channel": 0}, {"type": "note_off", "time": 323, "note": 59, "velocity": 105, "channel": 0}, {"type": "note_on", "time": 242, "note": 61, "velocity": 111, "channel": 0}, {"type": "note_off", "time": 586, "note": 61, "velocity": 111, "channel": 0}, {"type": "note_on", "time": 30, "note": 64, "velocity": 118, "channel": 0}, {"type": "note_off", "time": 495, "note": 64, "velocity": 118, "channel": 0}, {"type": "note_on", "time": 75, "note": 66, "velocity": 121, "channel": 0}, {"type": "note_off", "time": 470, "note": 66, "velocity": 121, "channel": 0}, {"type": "note_on", "time": 116, "note": 68, "velocity": 116, "channel": 0}, {"type": "note_off", "time": 536, "note": 68, "velocity": 116, "channel": 0}, {"type": "note_on", "time": 132, "note": 71, "velocity": 111, "channel": 0}, {"type": "note_off", "time": 561, "note": 71, "velocity": 111, "channel": 0}, {"type": "note_on", "time": 107, "note": 74, "velocity": 111, "channel": 0}, {"type": "note_off", "time": 467, "note": 74, "velocity": 111, "channel": 0}, {"type": "note_on", "time": 122, "note": 75, "velocity": 9, "channel": 0}, {"type": "note_off", "time": 481, "note": 75, "velocity": 9, "channel": 0}, {"type": "note_on", "time": 294, "note": 74, "velocity": 105, "channel": 0}, {"type": "note_off", "time": 438, "note": 74, "velocity": 105, "channel": 0}, {"type": "note_on", "time": 122, "note": 76, "velocity": 64, "channel": 0}, {"type": "note_off", "time": 445, "note": 76, "velocity": 64, "channel": 0}, {"type": "note_on", "time": 129, "note": 75, "velocity": 77, "channel": 0}, {"type": "note_off", "time": 489, "note": 75, "velocity": 77, "channel": 0}, {"type": "note_on", "time": 25, "note": 78, "velocity": 114, "channel": 0}, {"type": "note_off", "time": 187, "note": 78, "velocity": 114, "channel": 0}, {"type": "note_on", "time": 111, "note": 75, "velocity": 37, "channel": 0}, {"type": "note_off", "time": 187, "note": 75, "velocity": 37, "channel": 0}, {"type": "note_on", "time": 140, "note": 68, "velocity": 15, "channel": 0}, {"type": "note_off", "time": 589, "note": 68, "velocity": 15, "channel": 0}, {"type": "note_on", "time": 204, "note": 64, "velocity": 119, "channel": 0}, {"type": "note_off", "time": 424, "note": 64, "velocity": 119, "channel": 0}, {"type": "note_on", "time": 30, "note": 66, "velocity": 39, "channel": 0}, {"type": "note_off", "time": 215, "note": 66, "velocity": 39, "channel": 0}, {"type": "note_on", "time": 19, "note": 70, "velocity": 88, "channel": 0}, {"type": "note_off", "time": 313, "note": 70, "velocity": 88, "channel": 0}, {"type": "note_on", "time": 154, "note": 75, "velocity": 114, "channel": 0}, {"type": "note_off", "time": 531, "note": 75, "velocity": 114, "channel": 0}, {"type": "note_on", "time": 166, "note": 73, "velocity": 104, "channel": 0}, {"type": "note_off", "time": 515, "note": 73, "velocity": 104, "channel": 0}, {"type": "note_on", "time": 278, "note": 68, "velocity": 106, "channel": 0}, {"type": "note_off", "time": 409, "note": 68, "velocity": 106, "channel": 0}, {"type": "note_on", "time": 161, "note": 66, "velocity": 20, "channel": 0}, {"type": "note_off", "time": 470, "note": 66, "velocity": 20, "channel": 0}, {"type": "note_on", "time": 91, "note": 71, "velocity": 9, "channel": 0}, {"type": "note_off", "time": 374, "note": 71, "velocity": 9, "channel": 0}, {"type": "note_on", "time": 161, "note": 63, "velocity": 9, "channel": 0}, {"type": "note_off", "time": 505, "note": 63, "velocity": 9, "channel": 0}, {"type": "note_on", "time": 176, "note": 66, "velocity": 9, "channel": 0}, {"type": "note_off", "time": 515, "note": 66, "velocity": 9, "channel": 0}, {"type": "note_on", "time": 141, "note": 70, "velocity": 115, "channel": 0}, {"type": "note_off", "time": 414, "note": 70, "velocity": 115, "channel": 0}, {"type": "note_on", "time": 156, "note": 68, "velocity": 95, "channel": 0}, {"type": "note_off", "time": 470, "note": 68, "velocity": 95, "channel": 0}, {"type": "note_on", "time": 106, "note": 66, "velocity": 92, "channel": 0}, {"type": "note_off", "time": 445, "note": 66, "velocity": 92, "channel": 0}, {"type": "note_on", "time": 308, "note": 61, "velocity": 112, "channel": 0}, {"type": "note_off", "time": 475, "note": 61, "velocity": 112, "channel": 0}, {"type": "note_on", "time": 176, "note": 58, "velocity": 100, "channel": 0}, {"type": "note_off", "time": 596, "note": 58, "velocity": 100, "channel": 0}, {"type": "note_on", "time": 227, "note": 54, "velocity": 9, "channel": 0}, {"type": "note_off", "time": 348, "note": 54, "velocity": 9, "channel": 0}, {"type": "note_on", "time": 161, "note": 56, "velocity": 9, "channel": 0}, {"type": "note_off", "time": 596, "note": 56, "velocity": 9, "channel": 0}, {"type": "note_on", "time": 83, "note": 58, "velocity": 9, "channel": 0}, {"type": "note_off", "time": 343, "note": 58, "velocity": 9, "channel": 0}, {"type": "note_on", "time": 3370, "note": 56, "velocity": 119, "channel": 0}, {"type": "note_off", "time": 475, "note": 56, "velocity": 119, "channel": 0}, {"type": "note_on", "time": 10, "note": 58, "velocity": 118, "channel": 0}, {"type": "note_off", "time": 465, "note": 58, "velocity": 118, "channel": 0}, {"type": "note_on", "time": 146, "note": 61, "velocity": 102, "channel": 0}, {"type": "note_off", "time": 606, "note": 61, "velocity": 102, "channel": 0}, {"type": "note_on", "time": 148, "note": 66, "velocity": 119, "channel": 0}, {"type": "note_off", "time": 449, "note": 66, "velocity": 119, "channel": 0}, {"type": "note_on", "time": 176, "note": 68, "velocity": 9, "channel": 0}, {"type": "note_off", "time": 489, "note": 68, "velocity": 9, "channel": 0}, {"type": "note_on", "time": 229, "note": 70, "velocity": 79, "channel": 0}, {"type": "note_off", "time": 424, "note": 70, "velocity": 79, "channel": 0}, {"type": "note_on", "time": 146, "note": 66, "velocity": 108, "channel": 0}, {"type": "note_off", "time": 510, "note": 66, "velocity": 108, "channel": 0}, {"type": "note_on", "time": 121, "note": 68, "velocity": 50, "channel": 0}, {"type": "note_off", "time": 434, "note": 68, "velocity": 50, "channel": 0}, {"type": "note_on", "time": 212, "note": 73, "velocity": 116, "channel": 0}, {"type": "note_off", "time": 348, "note": 73, "velocity": 116, "channel": 0}, {"type": "note_on", "time": 242, "note": 75, "velocity": 9, "channel": 0}, {"type": "note_off", "time": 581, "note": 75, "velocity": 9, "channel": 0}, {"type": "note_on", "time": 96, "note": 76, "velocity": 9, "channel": 0}, {"type": "note_off", "time": 546, "note": 76, "velocity": 9, "channel": 0}, {"type": "note_on", "time": 96, "note": 77, "velocity": 9, "channel": 0}, {"type": "note_off", "time": 303, "note": 77, "velocity": 9, "channel": 0}, {"type": "note_on", "time": 252, "note": 76, "velocity": 9, "channel": 0}, {"type": "note_off", "time": 505, "note": 76, "velocity": 9, "channel": 0}, {"type": "note_on", "time": 80, "note": 75, "velocity": 115, "channel": 0}, {"type": "note_off", "time": 515, "note": 75, "velocity": 115, "channel": 0}, {"type": "note_on", "time": 25, "note": 73, "velocity": 115, "channel": 0}, {"type": "note_off", "time": 210, "note": 73, "velocity": 115, "channel": 0}, {"type": "note_on", "time": 12, "note": 71, "velocity": 55, "channel": 0}, {"type": "note_off", "time": 244, "note": 71, "velocity": 55, "channel": 0}, {"type": "note_on", "time": 106, "note": 68, "velocity": 77, "channel": 0}, {"type": "note_off", "time": 534, "note": 68, "velocity": 77, "channel": 0}, {"type": "note_on", "time": 182, "note": 70, "velocity": 108, "channel": 0}, {"type": "note_off", "time": 596, "note": 70, "velocity": 108, "channel": 0}, {"type": "note_on", "time": 75, "note": 71, "velocity": 86, "channel": 0}, {"type": "note_off", "time": 434, "note": 71, "velocity": 86, "channel": 0}, {"type": "note_on", "time": 96, "note": 72, "velocity": 120, "channel": 0}, {"type": "note_off", "time": 541, "note": 72, "velocity": 120, "channel": 0}, {"type": "note_on", "time": 60, "note": 71, "velocity": 9, "channel": 0}, {"type": "note_off", "time": 505, "note": 71, "velocity": 9, "channel": 0}, {"type": "note_on", "time": 156, "note": 70, "velocity": 118, "channel": 0}, {"type": "note_off", "time": 490, "note": 70, "velocity": 118, "channel": 0}, {"type": "note_on", "time": 116, "note": 66, "velocity": 103, "channel": 0}, {"type": "note_off", "time": 465, "note": 66, "velocity": 103, "channel": 0}, {"type": "note_on", "time": 131, "note": 62, "velocity": 9, "channel": 0}, {"type": "note_off", "time": 485, "note": 62, "velocity": 9, "channel": 0}, {"type": "note_on", "time": 207, "note": 65, "velocity": 114, "channel": 0}, {"type": "note_off", "time": 434, "note": 65, "velocity": 114, "channel": 0}, {"type": "note_on", "time": 96, "note": 66, "velocity": 51, "channel": 0}, {"type": "note_off", "time": 652, "note": 66, "velocity": 51, "channel": 0}, {"type": "note_on", "time": 91, "note": 67, "velocity": 91, "channel": 0}, {"type": "note_off", "time": 546, "note": 67, "velocity": 91, "channel": 0}, {"type": "note_on", "time": 85, "note": 66, "velocity": 105, "channel": 0}, {"type": "note_off", "time": 495, "note": 66, "velocity": 105, "channel": 0}, {"type": "note_on", "time": 60, "note": 65, "velocity": 74, "channel": 0}, {"type": "note_off", "time": 455, "note": 65, "velocity": 74, "channel": 0}, {"type": "note_on", "time": 111, "note": 62, "velocity": 114, "channel": 0}, {"type": "note_off", "time": 581, "note": 62, "velocity": 114, "channel": 0}, {"type": "note_on", "time": 55, "note": 57, "velocity": 9, "channel": 0}, {"type": "note_off", "time": 445, "note": 57, "velocity": 9, "channel": 0}, {"type": "note_on", "time": 182, "note": 61, "velocity": 110, "channel": 0}, {"type": "note_off", "time": 505, "note": 61, "velocity": 110, "channel": 0}, {"type": "note_on", "time": 50, "note": 62, "velocity": 108, "channel": 0}, {"type": "note_off", "time": 627, "note": 62, "velocity": 108, "channel": 0}, {"type": "note_on", "time": 35, "note": 63, "velocity": 108, "channel": 0}, {"type": "note_off", "time": 510, "note": 63, "velocity": 108, "channel": 0}, {"type": "note_on", "time": 111, "note": 62, "velocity": 9, "channel": 0}, {"type": "note_off", "time": 455, "note": 62, "velocity": 9, "channel": 0}, {"type": "note_on", "time": 106, "note": 61, "velocity": 9, "channel": 0}, {"type": "note_off", "time": 389, "note": 61, "velocity": 9, "channel": 0}, {"type": "note_on", "time": 161, "note": 58, "velocity": 9, "channel": 0}, {"type": "note_off", "time": 505, "note": 58, "velocity": 9, "channel": 0}, {"type": "note_on", "time": 177, "note": 53, "velocity": 9, "channel": 0}, {"type": "note_off", "time": 485, "note": 53, "velocity": 9, "channel": 0}, {"type": "note_on", "time": 45, "note": 51, "velocity": 9, "channel": 0}, {"type": "note_off", "time": 556, "note": 51, "velocity": 9, "channel": 0}, {"type": "note_on", "time": 2311, "note": 50, "velocity": 119, "channel": 0}, {"type": "note_off", "time": 586, "note": 50, "velocity": 119, "channel": 0}, {"type": "note_on", "time": 70, "note": 49, "velocity": 108, "channel": 0}, {"type": "note_off", "time": 531, "note": 49, "velocity": 108, "channel": 0}, {"type": "note_on", "time": 11, "note": 54, "velocity": 112, "channel": 0}, {"type": "note_off", "time": 429, "note": 54, "velocity": 112, "channel": 0}, {"type": "note_on", "time": 959, "note": 50, "velocity": 115, "channel": 0}, {"type": "note_off", "time": 531, "note": 50, "velocity": 115, "channel": 0}, {"type": "note_on", "time": 80, "note": 49, "velocity": 116, "channel": 0}, {"type": "note_off", "time": 571, "note": 49, "velocity": 116, "channel": 0}, {"type": "note_on", "time": 45, "note": 55, "velocity": 115, "channel": 0}, {"type": "note_off", "time": 460, "note": 55, "velocity": 115, "channel": 0}, {"type": "note_on", "time": 222, "note": 50, "velocity": 114, "channel": 0}, {"type": "note_off", "time": 622, "note": 50, "velocity": 114, "channel": 0}, {"type": "note_on", "time": 80, "note": 49, "velocity": 112, "channel": 0}, {"type": "note_off", "time": 399, "note": 49, "velocity": 112, "channel": 0}, {"type": "note_on", "time": 45, "note": 56, "velocity": 97, "channel": 0}, {"type": "note_off", "time": 606, "note": 56, "velocity": 97, "channel": 0}, {"type": "note_on", "time": 2058, "note": 50, "velocity": 112, "channel": 0}, {"type": "note_off", "time": 354, "note": 50, "velocity": 112, "channel": 0}, {"type": "note_on", "time": 26, "note": 49, "velocity": 112, "channel": 0}, {"type": "note_off", "time": 316, "note": 49, "velocity": 112, "channel": 0}, {"type": "note_on", "time": 11, "note": 50, "velocity": 111, "channel": 0}, {"type": "note_off", "time": 237, "note": 50, "velocity": 111, "channel": 0}, {"type": "note_on", "time": 60, "note": 53, "velocity": 118, "channel": 0}, {"type": "note_off", "time": 232, "note": 53, "velocity": 118, "channel": 0}, {"type": "note_on", "time": 126, "note": 50, "velocity": 109, "channel": 0}, {"type": "note_off", "time": 409, "note": 50, "velocity": 109, "channel": 0}, {"type": "note_on", "time": 177, "note": 53, "velocity": 119, "channel": 0}, {"type": "note_off", "time": 323, "note": 53, "velocity": 119, "channel": 0}, {"type": "note_on", "time": 80, "note": 54, "velocity": 111, "channel": 0}, {"type": "note_off", "time": 313, "note": 54, "velocity": 111, "channel": 0}, {"type": "note_on", "time": 20, "note": 57, "velocity": 111, "channel": 0}, {"type": "note_off", "time": 308, "note": 57, "velocity": 111, "channel": 0}, {"type": "note_on", "time": 114, "note": 53, "velocity": 111, "channel": 0}, {"type": "note_off", "time": 252, "note": 53, "velocity": 111, "channel": 0}, {"type": "note_on", "time": 57, "note": 54, "velocity": 107, "channel": 0}, {"type": "note_off", "time": 374, "note": 54, "velocity": 107, "channel": 0}, {"type": "note_on", "time": 92, "note": 58, "velocity": 116, "channel": 0}, {"type": "note_off", "time": 230, "note": 58, "velocity": 116, "channel": 0}, {"type": "note_on", "time": 115, "note": 53, "velocity": 101, "channel": 0}, {"type": "note_off", "time": 201, "note": 53, "velocity": 101, "channel": 0}, {"type": "note_on", "time": 43, "note": 51, "velocity": 9, "channel": 0}, {"type": "note_off", "time": 330, "note": 51, "velocity": 9, "channel": 0}, {"type": "note_on", "time": 94, "note": 62, "velocity": 9, "channel": 0}, {"type": "note_off", "time": 323, "note": 62, "velocity": 9, "channel": 0}, {"type": "note_on", "time": 65, "note": 58, "velocity": 9, "channel": 0}, {"type": "note_off", "time": 222, "note": 58, "velocity": 9, "channel": 0}, {"type": "note_on", "time": 15, "note": 63, "velocity": 9, "channel": 0}, {"type": "note_off", "time": 404, "note": 63, "velocity": 9, "channel": 0}, {"type": "note_on", "time": 60, "note": 60, "velocity": 9, "channel": 0}, {"type": "note_off", "time": 237, "note": 60, "velocity": 9, "channel": 0}, {"type": "note_on", "time": 61, "note": 61, "velocity": 9, "channel": 0}, {"type": "note_off", "time": 352, "note": 61, "velocity": 9, "channel": 0}, {"type": "note_on", "time": 43, "note": 62, "velocity": 9, "channel": 0}, {"type": "note_off", "time": 248, "note": 62, "velocity": 9, "channel": 0}, {"type": "note_on", "time": 28, "note": 65, "velocity": 9, "channel": 0}, {"type": "note_off", "time": 248, "note": 65, "velocity": 9, "channel": 0}, {"type": "note_on", "time": 57, "note": 62, "velocity": 9, "channel": 0}, {"type": "note_off", "time": 240, "note": 62, "velocity": 9, "channel": 0}, {"type": "note_on", "time": 129, "note": 65, "velocity": 9, "channel": 0}, {"type": "note_off", "time": 169, "note": 65, "velocity": 9, "channel": 0}, {"type": "note_on", "time": 61, "note": 67, "velocity": 9, "channel": 0}, {"type": "note_off", "time": 276, "note": 67, "velocity": 9, "channel": 0}, {"type": "note_on", "time": 61, "note": 74, "velocity": 9, "channel": 0}, {"type": "note_off", "time": 287, "note": 74, "velocity": 9, "channel": 0}, {"type": "note_on", "time": 64, "note": 73, "velocity": 9, "channel": 0}, {"type": "note_off", "time": 284, "note": 73, "velocity": 9, "channel": 0}, {"type": "note_on", "time": 71, "note": 72, "velocity": 9, "channel": 0}, {"type": "note_off", "time": 604, "note": 72, "velocity": 9, "channel": 0}, {"type": "note_on", "time": 82, "note": 77, "velocity": 105, "channel": 0}, {"type": "note_off", "time": 999, "note": 77, "velocity": 105, "channel": 0}, {"type": "note_on", "time": 3265, "note": 50, "velocity": 108, "channel": 0}, {"type": "note_off", "time": 230, "note": 50, "velocity": 108, "channel": 0}, {"type": "note_on", "time": 46, "note": 49, "velocity": 109, "channel": 0}, {"type": "note_off", "time": 294, "note": 49, "velocity": 109, "channel": 0}, {"type": "note_on", "time": 53, "note": 53, "velocity": 113, "channel": 0}, {"type": "note_off", "time": 258, "note": 53, "velocity": 113, "channel": 0}, {"type": "note_on", "time": 82, "note": 49, "velocity": 114, "channel": 0}, {"type": "note_off", "time": 478, "note": 49, "velocity": 114, "channel": 0}, {"type": "note_on", "time": 64, "note": 50, "velocity": 112, "channel": 0}, {"type": "note_off", "time": 374, "note": 50, "velocity": 112, "channel": 0}, {"type": "note_on", "time": 30, "note": 53, "velocity": 111, "channel": 0}, {"type": "note_off", "time": 399, "note": 53, "velocity": 111, "channel": 0}, {"type": "note_on", "time": 15, "note": 55, "velocity": 104, "channel": 0}, {"type": "note_off", "time": 388, "note": 55, "velocity": 104, "channel": 0}, {"type": "note_on", "time": 137, "note": 60, "velocity": 113, "channel": 0}, {"type": "note_off", "time": 384, "note": 60, "velocity": 113, "channel": 0}, {"type": "note_on", "time": 50, "note": 62, "velocity": 111, "channel": 0}, {"type": "note_off", "time": 318, "note": 62, "velocity": 111, "channel": 0}, {"type": "note_on", "time": 35, "note": 66, "velocity": 110, "channel": 0}, {"type": "note_off", "time": 313, "note": 66, "velocity": 110, "channel": 0}, {"type": "note_on", "time": 65, "note": 74, "velocity": 113, "channel": 0}, {"type": "note_off", "time": 291, "note": 74, "velocity": 113, "channel": 0}, {"type": "note_on", "time": 28, "note": 73, "velocity": 116, "channel": 0}, {"type": "note_off", "time": 266, "note": 73, "velocity": 116, "channel": 0}, {"type": "note_on", "time": 57, "note": 72, "velocity": 103, "channel": 0}, {"type": "note_off", "time": 690, "note": 72, "velocity": 103, "channel": 0}, {"type": "note_on", "time": 251, "note": 77, "velocity": 116, "channel": 0}, {"type": "note_off", "time": 690, "note": 77, "velocity": 116, "channel": 0}, {"type": "note_on", "time": 1970, "note": 49, "velocity": 116, "channel": 0}, {"type": "note_off", "time": 352, "note": 49, "velocity": 116, "channel": 0}, {"type": "note_on", "time": 75, "note": 50, "velocity": 119, "channel": 0}, {"type": "note_off", "time": 471, "note": 50, "velocity": 119, "channel": 0}, {"type": "note_on", "time": 50, "note": 55, "velocity": 112, "channel": 0}, {"type": "note_off", "time": 503, "note": 55, "velocity": 112, "channel": 0}, {"type": "note_on", "time": 1175, "note": 49, "velocity": 98, "channel": 0}, {"type": "note_off", "time": 197, "note": 49, "velocity": 98, "channel": 0}, {"type": "note_on", "time": 14, "note": 50, "velocity": 104, "channel": 0}, {"type": "note_off", "time": 239, "note": 50, "velocity": 104, "channel": 0}, {"type": "note_on", "time": 5, "note": 52, "velocity": 107, "channel": 0}, {"type": "note_off", "time": 232, "note": 52, "velocity": 107, "channel": 0}, {"type": "note_on", "time": 0, "note": 55, "velocity": 110, "channel": 0}, {"type": "note_off", "time": 298, "note": 55, "velocity": 110, "channel": 0}, {"type": "note_on", "time": 76, "note": 53, "velocity": 113, "channel": 0}, {"type": "note_off", "time": 496, "note": 53, "velocity": 113, "channel": 0}, {"type": "note_on", "time": 154, "note": 54, "velocity": 114, "channel": 0}, {"type": "note_off", "time": 302, "note": 54, "velocity": 114, "channel": 0}, {"type": "note_on", "time": 100, "note": 55, "velocity": 88, "channel": 0}, {"type": "note_off", "time": 161, "note": 55, "velocity": 88, "channel": 0}, {"type": "note_on", "time": 0, "note": 56, "velocity": 110, "channel": 0}, {"type": "note_off", "time": 320, "note": 56, "velocity": 110, "channel": 0}, {"type": "note_on", "time": 0, "note": 58, "velocity": 108, "channel": 0}, {"type": "note_off", "time": 298, "note": 58, "velocity": 108, "channel": 0}, {"type": "note_on", "time": 39, "note": 62, "velocity": 107, "channel": 0}, {"type": "note_off", "time": 323, "note": 62, "velocity": 107, "channel": 0}, {"type": "note_on", "time": 107, "note": 59, "velocity": 106, "channel": 0}, {"type": "note_off", "time": 417, "note": 59, "velocity": 106, "channel": 0}, {"type": "note_on", "time": 89, "note": 64, "velocity": 107, "channel": 0}, {"type": "note_off", "time": 248, "note": 64, "velocity": 107, "channel": 0}, {"type": "note_on", "time": 75, "note": 60, "velocity": 100, "channel": 0}, {"type": "note_off", "time": 348, "note": 60, "velocity": 100, "channel": 0}, {"type": "note_on", "time": 35, "note": 61, "velocity": 101, "channel": 0}, {"type": "note_off", "time": 320, "note": 61, "velocity": 101, "channel": 0}, {"type": "note_on", "time": 42, "note": 62, "velocity": 100, "channel": 0}, {"type": "note_off", "time": 244, "note": 62, "velocity": 100, "channel": 0}, {"type": "note_on", "time": 48, "note": 67, "velocity": 112, "channel": 0}, {"type": "note_off", "time": 278, "note": 67, "velocity": 112, "channel": 0}, {"type": "note_on", "time": 121, "note": 64, "velocity": 107, "channel": 0}, {"type": "note_off", "time": 303, "note": 64, "velocity": 107, "channel": 0}, {"type": "note_on", "time": 70, "note": 66, "velocity": 96, "channel": 0}, {"type": "note_off", "time": 348, "note": 66, "velocity": 96, "channel": 0}, {"type": "note_on", "time": 70, "note": 70, "velocity": 109, "channel": 0}, {"type": "note_off", "time": 207, "note": 70, "velocity": 109, "channel": 0}, {"type": "note_on", "time": 75, "note": 68, "velocity": 106, "channel": 0}, {"type": "note_off", "time": 419, "note": 68, "velocity": 106, "channel": 0}, {"type": "note_on", "time": 78, "note": 70, "velocity": 108, "channel": 0}, {"type": "note_off", "time": 140, "note": 70, "velocity": 108, "channel": 0}, {"type": "note_on", "time": 56, "note": 74, "velocity": 100, "channel": 0}, {"type": "note_off", "time": 447, "note": 74, "velocity": 100, "channel": 0}, {"type": "note_on", "time": 104, "note": 72, "velocity": 108, "channel": 0}, {"type": "note_off", "time": 438, "note": 72, "velocity": 108, "channel": 0}, {"type": "note_on", "time": 273, "note": 77, "velocity": 102, "channel": 0}, {"type": "note_off", "time": 345, "note": 77, "velocity": 102, "channel": 0}, {"type": "note_on", "time": 1351, "note": 61, "velocity": 101, "channel": 0}, {"type": "note_off", "time": 237, "note": 61, "velocity": 101, "channel": 0}, {"type": "note_on", "time": 31, "note": 62, "velocity": 107, "channel": 0}, {"type": "note_off", "time": 281, "note": 62, "velocity": 107, "channel": 0}, {"type": "note_on", "time": 27, "note": 67, "velocity": 34, "channel": 0}, {"type": "note_off", "time": 244, "note": 67, "velocity": 34, "channel": 0}, {"type": "note_on", "time": 39, "note": 66, "velocity": 91, "channel": 0}, {"type": "note_off", "time": 313, "note": 66, "velocity": 91, "channel": 0}, {"type": "note_on", "time": 69, "note": 62, "velocity": 103, "channel": 0}, {"type": "note_off", "time": 352, "note": 62, "velocity": 103, "channel": 0}, {"type": "note_on", "time": 93, "note": 65, "velocity": 9, "channel": 0}, {"type": "note_off", "time": 247, "note": 65, "velocity": 9, "channel": 0}, {"type": "note_on", "time": 31, "note": 62, "velocity": 78, "channel": 0}, {"type": "note_off", "time": 249, "note": 62, "velocity": 78, "channel": 0}, {"type": "note_on", "time": 47, "note": 61, "velocity": 104, "channel": 0}, {"type": "note_off", "time": 294, "note": 61, "velocity": 104, "channel": 0}, {"type": "note_on", "time": 39, "note": 60, "velocity": 105, "channel": 0}, {"type": "note_off", "time": 233, "note": 60, "velocity": 105, "channel": 0}, {"type": "note_on", "time": 46, "note": 58, "velocity": 77, "channel": 0}, {"type": "note_off", "time": 284, "note": 58, "velocity": 77, "channel": 0}, {"type": "note_on", "time": 104, "note": 55, "velocity": 101, "channel": 0}, {"type": "note_off", "time": 309, "note": 55, "velocity": 101, "channel": 0}, {"type": "note_on", "time": 79, "note": 57, "velocity": 75, "channel": 0}, {"type": "note_off", "time": 356, "note": 57, "velocity": 75, "channel": 0}, {"type": "note_on", "time": 64, "note": 53, "velocity": 105, "channel": 0}, {"type": "note_off", "time": 320, "note": 53, "velocity": 105, "channel": 0}, {"type": "note_on", "time": 61, "note": 50, "velocity": 92, "channel": 0}, {"type": "note_off", "time": 348, "note": 50, "velocity": 92, "channel": 0}, {"type": "note_on", "time": 71, "note": 55, "velocity": 110, "channel": 0}, {"type": "note_off", "time": 255, "note": 55, "velocity": 110, "channel": 0}, {"type": "note_on", "time": 28, "note": 52, "velocity": 114, "channel": 0}, {"type": "note_off", "time": 266, "note": 52, "velocity": 114, "channel": 0}, {"type": "note_on", "time": 158, "note": 54, "velocity": 107, "channel": 0}, {"type": "note_off", "time": 395, "note": 54, "velocity": 107, "channel": 0}, {"type": "note_on", "time": 61, "note": 58, "velocity": 9, "channel": 0}, {"type": "note_off", "time": 374, "note": 58, "velocity": 9, "channel": 0}, {"type": "note_on", "time": 1473, "note": 50, "velocity": 9, "channel": 0}, {"type": "note_off", "time": 581, "note": 50, "velocity": 9, "channel": 0}, {"type": "note_on", "time": 96, "note": 55, "velocity": 98, "channel": 0}, {"type": "note_off", "time": 834, "note": 55, "velocity": 98, "channel": 0}, {"type": "note_on", "time": 35, "note": 54, "velocity": 117, "channel": 0}, {"type": "note_off", "time": 338, "note": 54, "velocity": 117, "channel": 0}, {"type": "note_on", "time": 25, "note": 58, "velocity": 114, "channel": 0}, {"type": "note_off", "time": 384, "note": 58, "velocity": 114, "channel": 0}, {"type": "note_on", "time": 30, "note": 62, "velocity": 17, "channel": 0}, {"type": "note_off", "time": 384, "note": 62, "velocity": 17, "channel": 0}, {"type": "note_on", "time": 106, "note": 58, "velocity": 9, "channel": 0}, {"type": "note_off", "time": 323, "note": 58, "velocity": 9, "channel": 0}, {"type": "note_on", "time": 177, "note": 53, "velocity": 9, "channel": 0}, {"type": "note_off", "time": 551, "note": 53, "velocity": 9, "channel": 0}, {"type": "note_on", "time": 161, "note": 58, "velocity": 9, "channel": 0}, {"type": "note_off", "time": 323, "note": 58, "velocity": 9, "channel": 0}, {"type": "note_on", "time": 80, "note": 62, "velocity": 9, "channel": 0}, {"type": "note_off", "time": 252, "note": 62, "velocity": 9, "channel": 0}, {"type": "note_on", "time": 46, "note": 60, "velocity": 9, "channel": 0}, {"type": "note_off", "time": 435, "note": 60, "velocity": 9, "channel": 0}, {"type": "note_on", "time": 116, "note": 67, "velocity": 9, "channel": 0}, {"type": "note_off", "time": 190, "note": 67, "velocity": 9, "channel": 0}, {"type": "note_on", "time": 203, "note": 74, "velocity": 9, "channel": 0}, {"type": "note_off", "time": 262, "note": 74, "velocity": 9, "channel": 0}, {"type": "note_on", "time": 55, "note": 73, "velocity": 9, "channel": 0}, {"type": "note_off", "time": 237, "note": 73, "velocity": 9, "channel": 0}, {"type": "note_on", "time": 80, "note": 72, "velocity": 47, "channel": 0}, {"type": "note_off", "time": 364, "note": 72, "velocity": 47, "channel": 0}, {"type": "note_on", "time": 187, "note": 77, "velocity": 108, "channel": 0}, {"type": "note_off", "time": 637, "note": 77, "velocity": 108, "channel": 0}, {"type": "note_on", "time": 2093, "note": 62, "velocity": 9, "channel": 0}, {"type": "note_off", "time": 309, "note": 62, "velocity": 9, "channel": 0}, {"type": "note_on", "time": 46, "note": 61, "velocity": 9, "channel": 0}, {"type": "note_off", "time": 312, "note": 61, "velocity": 9, "channel": 0}, {"type": "note_on", "time": 82, "note": 67, "velocity": 64, "channel": 0}, {"type": "note_off", "time": 276, "note": 67, "velocity": 64, "channel": 0}, {"type": "note_on", "time": 53, "note": 66, "velocity": 104, "channel": 0}, {"type": "note_off", "time": 273, "note": 66, "velocity": 104, "channel": 0}, {"type": "note_on", "time": 25, "note": 61, "velocity": 103, "channel": 0}, {"type": "note_off", "time": 370, "note": 61, "velocity": 103, "channel": 0}, {"type": "note_on", "time": 147, "note": 66, "velocity": 92, "channel": 0}, {"type": "note_off", "time": 244, "note": 66, "velocity": 92, "channel": 0}, {"type": "note_on", "time": 43, "note": 62, "velocity": 94, "channel": 0}, {"type": "note_off", "time": 251, "note": 62, "velocity": 94, "channel": 0}, {"type": "note_on", "time": 32, "note": 61, "velocity": 51, "channel": 0}, {"type": "note_off", "time": 374, "note": 61, "velocity": 51, "channel": 0}, {"type": "note_on", "time": 43, "note": 60, "velocity": 116, "channel": 0}, {"type": "note_off", "time": 334, "note": 60, "velocity": 116, "channel": 0}, {"type": "note_on", "time": 57, "note": 58, "velocity": 118, "channel": 0}, {"type": "note_off", "time": 248, "note": 58, "velocity": 118, "channel": 0}, {"type": "note_on", "time": 118, "note": 55, "velocity": 106, "channel": 0}, {"type": "note_off", "time": 302, "note": 55, "velocity": 106, "channel": 0}, {"type": "note_on", "time": 57, "note": 53, "velocity": 103, "channel": 0}, {"type": "note_off", "time": 345, "note": 53, "velocity": 103, "channel": 0}, {"type": "note_on", "time": 17, "note": 57, "velocity": 85, "channel": 0}, {"type": "note_off", "time": 287, "note": 57, "velocity": 85, "channel": 0}, {"type": "note_on", "time": 46, "note": 61, "velocity": 115, "channel": 0}, {"type": "note_off", "time": 269, "note": 61, "velocity": 115, "channel": 0}, {"type": "note_on", "time": 25, "note": 62, "velocity": 107, "channel": 0}, {"type": "note_off", "time": 309, "note": 62, "velocity": 107, "channel": 0}, {"type": "note_on", "time": 21, "note": 66, "velocity": 109, "channel": 0}, {"type": "note_off", "time": 334, "note": 66, "velocity": 109, "channel": 0}, {"type": "note_on", "time": 104, "note": 69, "velocity": 107, "channel": 0}, {"type": "note_off", "time": 244, "note": 69, "velocity": 107, "channel": 0}, {"type": "note_on", "time": 64, "note": 66, "velocity": 100, "channel": 0}, {"type": "note_off", "time": 197, "note": 66, "velocity": 100, "channel": 0}, {"type": "note_on", "time": 89, "note": 70, "velocity": 102, "channel": 0}, {"type": "note_off", "time": 291, "note": 70, "velocity": 102, "channel": 0}, {"type": "note_on", "time": 25, "note": 66, "velocity": 112, "channel": 0}, {"type": "note_off", "time": 244, "note": 66, "velocity": 112, "channel": 0}, {"type": "note_on", "time": 140, "note": 61, "velocity": 104, "channel": 0}, {"type": "note_off", "time": 323, "note": 61, "velocity": 104, "channel": 0}, {"type": "note_on", "time": 43, "note": 66, "velocity": 109, "channel": 0}, {"type": "note_off", "time": 420, "note": 66, "velocity": 109, "channel": 0}, {"type": "note_on", "time": 102, "note": 62, "velocity": 97, "channel": 0}, {"type": "note_off", "time": 358, "note": 62, "velocity": 97, "channel": 0}, {"type": "note_on", "time": 104, "note": 58, "velocity": 109, "channel": 0}, {"type": "note_off", "time": 333, "note": 58, "velocity": 109, "channel": 0}, {"type": "note_on", "time": 53, "note": 54, "velocity": 107, "channel": 0}, {"type": "note_off", "time": 262, "note": 54, "velocity": 107, "channel": 0}, {"type": "note_on", "time": 29, "note": 57, "velocity": 104, "channel": 0}, {"type": "note_off", "time": 116, "note": 57, "velocity": 104, "channel": 0}, {"type": "note_on", "time": 56, "note": 59, "velocity": 83, "channel": 0}, {"type": "note_off", "time": 160, "note": 59, "velocity": 83, "channel": 0}, {"type": "note_on", "time": 37, "note": 61, "velocity": 9, "channel": 0}, {"type": "note_off", "time": 336, "note": 61, "velocity": 9, "channel": 0}, {"type": "note_on", "time": 34, "note": 62, "velocity": 9, "channel": 0}, {"type": "note_off", "time": 234, "note": 62, "velocity": 9, "channel": 0}, {"type": "note_on", "time": 79, "note": 67, "velocity": 9, "channel": 0}, {"type": "note_off", "time": 294, "note": 67, "velocity": 9, "channel": 0}, {"type": "note_on", "time": 64, "note": 69, "velocity": 9, "channel": 0}, {"type": "note_off", "time": 327, "note": 69, "velocity": 9, "channel": 0}, {"type": "note_on", "time": 232, "note": 70, "velocity": 9, "channel": 0}, {"type": "note_off", "time": 125, "note": 70, "velocity": 9, "channel": 0}, {"type": "note_on", "time": 35, "note": 72, "velocity": 9, "channel": 0}, {"type": "note_off", "time": 258, "note": 72, "velocity": 9, "channel": 0}, {"type": "note_on", "time": 34, "note": 67, "velocity": 9, "channel": 0}, {"type": "note_off", "time": 161, "note": 67, "velocity": 9, "channel": 0}, {"type": "note_on", "time": 176, "note": 61, "velocity": 9, "channel": 0}, {"type": "note_off", "time": 252, "note": 61, "velocity": 9, "channel": 0}, {"type": "note_on", "time": 66, "note": 58, "velocity": 9, "channel": 0}, {"type": "note_off", "time": 271, "note": 58, "velocity": 9, "channel": 0}, {"type": "note_on", "time": 42, "note": 54, "velocity": 9, "channel": 0}, {"type": "note_off", "time": 484, "note": 54, "velocity": 9, "channel": 0}, {"type": "note_on", "time": 329, "note": 58, "velocity": 9, "channel": 0}, {"type": "note_off", "time": 404, "note": 58, "velocity": 9, "channel": 0}, {"type": "note_on", "time": 111, "note": 61, "velocity": 9, "channel": 0}, {"type": "note_off", "time": 384, "note": 61, "velocity": 9, "channel": 0}, {"type": "note_on", "time": 40, "note": 67, "velocity": 9, "channel": 0}, {"type": "note_off", "time": 308, "note": 67, "velocity": 9, "channel": 0}, {"type": "note_on", "time": 96, "note": 72, "velocity": 21, "channel": 0}, {"type": "note_off", "time": 338, "note": 72, "velocity": 21, "channel": 0}, {"type": "note_on", "time": 96, "note": 74, "velocity": 115, "channel": 0}, {"type": "note_off", "time": 298, "note": 74, "velocity": 115, "channel": 0}, {"type": "note_on", "time": 98, "note": 72, "velocity": 115, "channel": 0}, {"type": "note_off", "time": 561, "note": 72, "velocity": 115, "channel": 0}, {"type": "note_on", "time": 503, "note": 78, "velocity": 109, "channel": 0}, {"type": "note_off", "time": 338, "note": 78, "velocity": 109, "channel": 0}, {"type": "note_on", "time": 106, "note": 79, "velocity": 110, "channel": 0}, {"type": "note_off", "time": 879, "note": 79, "velocity": 110, "channel": 0}, {"type": "note_on", "time": 2796, "note": 80, "velocity": 113, "channel": 0}, {"type": "note_off", "time": 1041, "note": 80, "velocity": 113, "channel": 0}, {"type": "note_on", "time": 278, "note": 73, "velocity": 115, "channel": 0}, {"type": "note_off", "time": 455, "note": 73, "velocity": 115, "channel": 0}, {"type": "note_on", "time": 2027, "note": 78, "velocity": 111, "channel": 0}, {"type": "note_off", "time": 470, "note": 78, "velocity": 111, "channel": 0}, {"type": "note_on", "time": 161, "note": 77, "velocity": 114, "channel": 0}, {"type": "note_off", "time": 500, "note": 77, "velocity": 114, "channel": 0}, {"type": "note_on", "time": 136, "note": 76, "velocity": 119, "channel": 0}, {"type": "note_off", "time": 439, "note": 76, "velocity": 119, "channel": 0}, {"type": "note_on", "time": 182, "note": 73, "velocity": 115, "channel": 0}, {"type": "note_off", "time": 445, "note": 73, "velocity": 115, "channel": 0}, {"type": "note_on", "time": 146, "note": 72, "velocity": 114, "channel": 0}, {"type": "note_off", "time": 531, "note": 72, "velocity": 114, "channel": 0}, {"type": "note_on", "time": 121, "note": 71, "velocity": 108, "channel": 0}, {"type": "note_off", "time": 546, "note": 71, "velocity": 108, "channel": 0}, {"type": "note_on", "time": 202, "note": 70, "velocity": 113, "channel": 0}, {"type": "note_off", "time": 374, "note": 70, "velocity": 113, "channel": 0}, {"type": "note_on", "time": 159, "note": 69, "velocity": 114, "channel": 0}, {"type": "note_off", "time": 632, "note": 69, "velocity": 114, "channel": 0}, {"type": "note_on", "time": 29, "note": 68, "velocity": 114, "channel": 0}, {"type": "note_off", "time": 368, "note": 68, "velocity": 114, "channel": 0}, {"type": "note_on", "time": 180, "note": 66, "velocity": 114, "channel": 0}, {"type": "note_off", "time": 521, "note": 66, "velocity": 114, "channel": 0}, {"type": "note_on", "time": 148, "note": 65, "velocity": 117, "channel": 0}, {"type": "note_off", "time": 467, "note": 65, "velocity": 117, "channel": 0}, {"type": "note_on", "time": 165, "note": 66, "velocity": 111, "channel": 0}, {"type": "note_off", "time": 535, "note": 66, "velocity": 111, "channel": 0}, {"type": "note_on", "time": 184, "note": 69, "velocity": 118, "channel": 0}, {"type": "note_off", "time": 442, "note": 69, "velocity": 118, "channel": 0}, {"type": "note_on", "time": 204, "note": 66, "velocity": 110, "channel": 0}, {"type": "note_off", "time": 495, "note": 66, "velocity": 110, "channel": 0}, {"type": "note_on", "time": 50, "note": 65, "velocity": 110, "channel": 0}, {"type": "note_off", "time": 450, "note": 65, "velocity": 110, "channel": 0}, {"type": "note_on", "time": 126, "note": 64, "velocity": 114, "channel": 0}, {"type": "note_off", "time": 490, "note": 64, "velocity": 114, "channel": 0}, {"type": "note_on", "time": 141, "note": 63, "velocity": 113, "channel": 0}, {"type": "note_off", "time": 515, "note": 63, "velocity": 113, "channel": 0}, {"type": "note_on", "time": 202, "note": 61, "velocity": 104, "channel": 0}, {"type": "note_off", "time": 520, "note": 61, "velocity": 104, "channel": 0}, {"type": "note_on", "time": 111, "note": 57, "velocity": 101, "channel": 0}, {"type": "note_off", "time": 490, "note": 57, "velocity": 101, "channel": 0}, {"type": "note_on", "time": 141, "note": 54, "velocity": 119, "channel": 0}, {"type": "note_off", "time": 692, "note": 54, "velocity": 119, "channel": 0}, {"type": "note_on", "time": 111, "note": 51, "velocity": 117, "channel": 0}, {"type": "note_off", "time": 460, "note": 51, "velocity": 117, "channel": 0}, {"type": "note_on", "time": 106, "note": 49, "velocity": 9, "channel": 0}, {"type": "note_off", "time": 566, "note": 49, "velocity": 9, "channel": 0}, {"type": "note_on", "time": 183, "note": 50, "velocity": 9, "channel": 0}, {"type": "note_off", "time": 622, "note": 50, "velocity": 9, "channel": 0}, {"type": "note_on", "time": 3182, "note": 48, "velocity": 112, "channel": 0}, {"type": "note_off", "time": 496, "note": 48, "velocity": 112, "channel": 0}, {"type": "note_on", "time": 582, "note": 50, "velocity": 115, "channel": 0}, {"type": "note_off", "time": 748, "note": 50, "velocity": 115, "channel": 0}, {"type": "note_on", "time": 71, "note": 52, "velocity": 114, "channel": 0}, {"type": "note_off", "time": 354, "note": 52, "velocity": 114, "channel": 0}, {"type": "note_on", "time": 2803, "note": 52, "velocity": 31, "channel": 0}, {"type": "note_off", "time": 805, "note": 52, "velocity": 31, "channel": 0}, {"type": "note_on", "time": 1122, "note": 54, "velocity": 109, "channel": 0}, {"type": "note_off", "time": 992, "note": 54, "velocity": 109, "channel": 0}, {"type": "note_on", "time": 848, "note": 52, "velocity": 9, "channel": 0}, {"type": "note_off", "time": 460, "note": 52, "velocity": 9, "channel": 0}, {"type": "note_on", "time": 791, "note": 50, "velocity": 9, "channel": 0}, {"type": "note_off", "time": 1150, "note": 50, "velocity": 9, "channel": 0}, {"type": "note_on", "time": 0, "note": 48, "velocity": 107, "channel": 0}, {"type": "note_off", "time": 791, "note": 48, "velocity": 107, "channel": 0}, {"type": "note_on", "time": 2646, "note": 50, "velocity": 114, "channel": 0}, {"type": "note_off", "time": 445, "note": 50, "velocity": 114, "channel": 0}, {"type": "note_on", "time": 2049, "note": 52, "velocity": 111, "channel": 0}, {"type": "note_off", "time": 935, "note": 52, "velocity": 111, "channel": 0}, {"type": "note_on", "time": 122, "note": 54, "velocity": 115, "channel": 0}, {"type": "note_off", "time": 1157, "note": 54, "velocity": 115, "channel": 0}, {"type": "note_on", "time": 122, "note": 55, "velocity": 118, "channel": 0}, {"type": "note_off", "time": 1057, "note": 55, "velocity": 118, "channel": 0}, {"type": "note_on", "time": 107, "note": 57, "velocity": 118, "channel": 0}, {"type": "note_off", "time": 1050, "note": 57, "velocity": 118, "channel": 0}, {"type": "note_on", "time": 215, "note": 59, "velocity": 119, "channel": 0}, {"type": "note_off", "time": 1251, "note": 59, "velocity": 119, "channel": 0}, {"type": "note_on", "time": 143, "note": 60, "velocity": 9, "channel": 0}, {"type": "note_off", "time": 1129, "note": 60, "velocity": 9, "channel": 0}, {"type": "note_on", "time": 151, "note": 56, "velocity": 9, "channel": 0}, {"type": "note_off", "time": 1122, "note": 56, "velocity": 9, "channel": 0}, {"type": "note_on", "time": 244, "note": 59, "velocity": 99, "channel": 0}, {"type": "note_off", "time": 1316, "note": 59, "velocity": 99, "channel": 0}, {"type": "note_on", "time": 136, "note": 57, "velocity": 104, "channel": 0}, {"type": "note_off", "time": 942, "note": 57, "velocity": 104, "channel": 0}, {"type": "note_on", "time": 129, "note": 56, "velocity": 112, "channel": 0}, {"type": "note_off", "time": 1143, "note": 56, "velocity": 112, "channel": 0}, {"type": "note_on", "time": 71, "note": 57, "velocity": 115, "channel": 0}, {"type": "note_off", "time": 1122, "note": 57, "velocity": 115, "channel": 0}, {"type": "note_on", "time": 129, "note": 55, "velocity": 116, "channel": 0}, {"type": "note_off", "time": 1237, "note": 55, "velocity": 116, "channel": 0}, {"type": "note_on", "time": 43, "note": 54, "velocity": 114, "channel": 0}, {"type": "note_off", "time": 1251, "note": 54, "velocity": 114, "channel": 0}, {"type": "note_on", "time": 71, "note": 52, "velocity": 117, "channel": 0}, {"type": "note_off", "time": 1431, "note": 52, "velocity": 117, "channel": 0}, {"type": "note_on", "time": 57, "note": 50, "velocity": 119, "channel": 0}, {"type": "note_off", "time": 661, "note": 50, "velocity": 119, "channel": 0}, {"type": "note_on", "time": 2977, "note": 71, "velocity": 111, "channel": 0}, {"type": "note_off", "time": 409, "note": 71, "velocity": 111, "channel": 0}, {"type": "note_on", "time": 50, "note": 72, "velocity": 112, "channel": 0}, {"type": "note_off", "time": 1273, "note": 72, "velocity": 112, "channel": 0}, {"type": "note_on", "time": 143, "note": 71, "velocity": 112, "channel": 0}, {"type": "note_off", "time": 1064, "note": 71, "velocity": 112, "channel": 0}, {"type": "note_on", "time": 2186, "note": 71, "velocity": 9, "channel": 0}, {"type": "note_off", "time": 1718, "note": 71, "velocity": 9, "channel": 0}, {"type": "note_on", "time": 93, "note": 69, "velocity": 9, "channel": 0}, {"type": "note_off", "time": 920, "note": 69, "velocity": 9, "channel": 0}, {"type": "note_on", "time": 2208, "note": 69, "velocity": 117, "channel": 0}, {"type": "note_off", "time": 1819, "note": 69, "velocity": 117, "channel": 0}, {"type": "note_on", "time": 57, "note": 67, "velocity": 117, "channel": 0}, {"type": "note_off", "time": 992, "note": 67, "velocity": 117, "channel": 0}, {"type": "note_on", "time": 2009, "note": 67, "velocity": 97, "channel": 0}, {"type": "note_off", "time": 2002, "note": 67, "velocity": 97, "channel": 0}, {"type": "note_on", "time": 3105, "note": 66, "velocity": 97, "channel": 0}, {"type": "note_off", "time": 1517, "note": 66, "velocity": 97, "channel": 0}, {"type": "note_on", "time": 171, "note": 67, "velocity": 117, "channel": 0}, {"type": "note_off", "time": 313, "note": 67, "velocity": 117, "channel": 0}, {"type": "note_on", "time": 29, "note": 64, "velocity": 113, "channel": 0}, {"type": "note_off", "time": 920, "note": 64, "velocity": 113, "channel": 0}, {"type": "note_on", "time": 1882, "note": 64, "velocity": 113, "channel": 0}, {"type": "note_off", "time": 1886, "note": 64, "velocity": 113, "channel": 0}, {"type": "note_on", "time": 0, "note": 62, "velocity": 112, "channel": 0}, {"type": "note_off", "time": 546, "note": 62, "velocity": 112, "channel": 0}, {"type": "note_on", "time": 1518, "note": 62, "velocity": 9, "channel": 0}, {"type": "note_off", "time": 575, "note": 62, "velocity": 9, "channel": 0}, {"type": "note_on", "time": 57, "note": 64, "velocity": 88, "channel": 0}, {"type": "note_off", "time": 604, "note": 64, "velocity": 88, "channel": 0}, {"type": "note_on", "time": 79, "note": 67, "velocity": 113, "channel": 0}, {"type": "note_off", "time": 539, "note": 67, "velocity": 113, "channel": 0}, {"type": "note_on", "time": 93, "note": 66, "velocity": 106, "channel": 0}, {"type": "note_off", "time": 438, "note": 66, "velocity": 106, "channel": 0}, {"type": "note_on", "time": 104, "note": 67, "velocity": 111, "channel": 0}, {"type": "note_off", "time": 439, "note": 67, "velocity": 111, "channel": 0}, {"type": "note_on", "time": 146, "note": 69, "velocity": 117, "channel": 0}, {"type": "note_off", "time": 399, "note": 69, "velocity": 117, "channel": 0}, {"type": "note_on", "time": 121, "note": 71, "velocity": 112, "channel": 0}, {"type": "note_off", "time": 369, "note": 71, "velocity": 112, "channel": 0}, {"type": "note_on", "time": 384, "note": 72, "velocity": 113, "channel": 0}, {"type": "note_off", "time": 429, "note": 72, "velocity": 113, "channel": 0}, {"type": "end_of_track", "time": 0}]]}