{"ticks_per_beat": 840, "tracks": [[{"type": "track_name", "name": "Melody", "time": 0}, {"type": "set_tempo", "tempo": 444444, "time": 0}, {"type": "key_signature", "key": "Ab", "time": 0}, {"type": "time_signature", "numerator": 4, "denominator": 4, "clocks_per_click": 24, "notated_32nd_notes_per_beat": 8, "time": 0}, {"type": "note_on", "time": 15867, "note": 69, "velocity": 105, "channel": 0}, {"type": "note_off", "time": 173, "note": 69, "velocity": 105, "channel": 0}, {"type": "note_on", "time": 296, "note": 68, "velocity": 105, "channel": 0}, {"type": "note_off", "time": 199, "note": 68, "velocity": 105, "channel": 0}, {"type": "note_on", "time": 275, "note": 65, "velocity": 96, "channel": 0}, {"type": "note_off", "time": 120, "note": 65, "velocity": 96, "channel": 0}, {"type": "note_on", "time": 24, "note": 67, "velocity": 104, "channel": 0}, {"type": "note_off", "time": 246, "note": 67, "velocity": 104, "channel": 0}, {"type": "note_on", "time": 34, "note": 65, "velocity": 95, "channel": 0}, {"type": "note_off", "time": 139, "note": 65, "velocity": 95, "channel": 0}, {"type": "note_on", "time": 13, "note": 66, "velocity": 106, "channel": 0}, {"type": "note_off", "time": 178, "note": 66, "velocity": 106, "channel": 0}, {"type": "note_on", "time": 44, "note": 69, "velocity": 104, "channel": 0}, {"type": "note_off", "time": 183, "note": 69, "velocity": 104, "channel": 0}, {"type": "note_on", "time": 65, "note": 65, "velocity": 101, "channel": 0}, {"type": "note_off", "time": 167, "note": 65, "velocity": 101, "channel": 0}, {"type": "note_on", "time": 5, "note": 64, "velocity": 108, "channel": 0}, {"type": "note_off", "time": 227, "note": 64, "velocity": 108, "channel": 0}, {"type": "note_on", "time": 33, "note": 59, "velocity": 99, "channel": 0}, {"type": "note_off", "time": 177, "note": 59, "velocity": 99, "channel": 0}, {"type": "note_on", "time": 47, "note": 54, "velocity": 103, "channel": 0}, {"type": "note_off", "time": 72, "note": 54, "velocity": 103, "channel": 0}, {"type": "note_on", "time": 139, "note": 63, "velocity": 106, "channel": 0}, {"type": "note_off", "time": 169, "note": 63, "velocity": 106, "channel": 0}, {"type": "note_on", "time": 0, "note": 62, "velocity": 111, "channel": 0}, {"type": "note_off", "time": 206, "note": 62, "velocity": 111, "channel": 0}, {"type": "note_on", "time": 191, "note": 61, "velocity": 111, "channel": 0}, {"type": "note_off", "time": 179, "note": 61, "velocity": 111, "channel": 0}, {"type": "note_on", "time": 227, "note": 69, "velocity": 105, "channel": 0}, {"type": "note_off", "time": 212, "note": 69, "velocity": 105, "channel": 0}, {"type": "note_on", "time": 272, "note": 63, "velocity": 94, "channel": 0}, {"type": "note_on", "time": 116, "note": 69, "velocity": 102, "channel": 0}, {"type": "note_off", "time": 0, "note": 63, "velocity": 94, "channel": 0}, {"type": "note_off", "time": 233, "note": 69, "velocity": 102, "channel": 0}, {"type": "note_on", "time": 5, "note": 67, "velocity": 102, "channel": 0}, {"type": "note_off", "time": 183, "note": 67, "velocity": 102, "channel": 0}, {"type": "note_on", "time": 1, "note": 63, "velocity": 110, "channel": 0}, {"type": "note_off", "time": 198, "note": 63, "velocity": 110, "channel": 0}, {"type": "note_on", "time": 1798, "note": 73, "velocity": 102, "channel": 0}, {"type": "note_off", "time": 125, "note": 73, "velocity": 102, "channel": 0}, {"type": "note_on", "time": 9, "note": 72, "velocity": 97, "channel": 0}, {"type": "note_off", "time": 285, "note": 72, "velocity": 97, "channel": 0}, {"type": "note_on", "time": 9, "note": 68, "velocity": 101, "channel": 0}, {"type": "note_off", "time": 221, "note": 68, "velocity": 101, "channel": 0}, {"type": "note_on", "time": 1, "note": 65, "velocity": 99, "channel": 0}, {"type": "note_off", "time": 111, "note": 65, "velocity": 99, "channel": 0}, {"type": "note_on", "time": 5, "note": 66, "velocity": 95, "channel": 0}, {"type": "note_off", "time": 86, "note": 66, "velocity": 95, "channel": 0}, {"type": "note_on", "time": 2, "note": 70, "velocity": 102, "channel": 0}, {"type": "note_off", "time": 189, "note": 70, "velocity": 102, "channel": 0}, {"type": "note_on", "time": 63, "note": 65, "velocity": 98, "channel": 0}, {"type": "note_off", "time": 209, "note": 65, "velocity": 98, "channel": 0}, {"type": "note_on", "time": 9, "note": 66, "velocity": 91, "channel": 0}, {"type": "note_off", "time": 126, "note": 66, "velocity": 91, "channel": 0}, {"type": "note_on", "time": 19, "note": 70, "velocity": 99, "channel": 0}, {"type": "note_off", "time": 147, "note": 70, "velocity": 99, "channel": 0}, {"type": "note_on", "time": 88, "note": 68, "velocity": 101, "channel": 0}, {"type": "note_off", "time": 169, "note": 68, "velocity": 101, "channel": 0}, {"type": "note_on", "time": 13, "note": 66, "velocity": 96, "channel": 0}, {"type": "note_off", "time": 189, "note": 66, "velocity": 96, "channel": 0}, {"type": "note_on", "time": 22, "note": 63, "velocity": 110, "channel": 0}, {"type": "note_off", "time": 198, "note": 63, "velocity": 110, "channel": 0}, {"type": "note_on", "time": 14, "note": 62, "velocity": 109, "channel": 0}, {"type": "note_off", "time": 230, "note": 62, "velocity": 109, "channel": 0}, {"type": "note_on", "time": 8, "note": 60, "velocity": 107, "channel": 0}, {"type": "note_off", "time": 213, "note": 60, "velocity": 107, "channel": 0}, {"type": "note_on", "time": 5, "note": 59, "velocity": 93, "channel": 0}, {"type": "note_off", "time": 174, "note": 59, "velocity": 93, "channel": 0}, {"type": "note_on", "time": 35, "note": 63, "velocity": 106, "channel": 0}, {"type": "note_off", "time": 148, "note": 63, "velocity": 106, "channel": 0}, {"type": "note_on", "time": 15, "note": 65, "velocity": 95, "channel": 0}, {"type": "note_off", "time": 142, "note": 65, "velocity": 95, "channel": 0}, {"type": "note_on", "time": 65, "note": 69, "velocity": 102, "channel": 0}, {"type": "note_off", "time": 183, "note": 69, "velocity": 102, "channel": 0}, {"type": "note_on", "time": 283, "note": 69, "velocity": 101, "channel": 0}, {"type": "note_off", "time": 211, "note": 69, "velocity": 101, "channel": 0}, {"type": "note_on", "time": 181, "note": 63, "velocity": 75, "channel": 0}, {"type": "note_off", "time": 101, "note": 63, "velocity": 75, "channel": 0}, {"type": "note_on", "time": 111, "note": 69, "velocity": 103, "channel": 0}, {"type": "note_off", "time": 216, "note": 69, "velocity": 103, "channel": 0}, {"type": "note_on", "time": 13, "note": 68, "velocity": 102, "channel": 0}, {"type": "note_off", "time": 109, "note": 68, "velocity": 102, "channel": 0}, {"type": "note_on", "time": 71, "note": 63, "velocity": 100, "channel": 0}, {"type": "note_off", "time": 300, "note": 63, "velocity": 100, "channel": 0}, {"type": "note_on", "time": 545, "note": 70, "velocity": 85, "channel": 0}, {"type": "note_off", "time": 86, "note": 70, "velocity": 85, "channel": 0}, {"type": "note_on", "time": 6, "note": 69, "velocity": 108, "channel": 0}, {"type": "note_off", "time": 117, "note": 69, "velocity": 108, "channel": 0}, {"type": "note_on", "time": 75, "note": 66, "velocity": 104, "channel": 0}, {"type": "note_off", "time": 158, "note": 66, "velocity": 104, "channel": 0}, {"type": "note_on", "time": 15, "note": 64, "velocity": 103, "channel": 0}, {"type": "note_off", "time": 182, "note": 64, "velocity": 103, "channel": 0}, {"type": "note_on", "time": 31, "note": 60, "velocity": 105, "channel": 0}, {"type": "note_off", "time": 233, "note": 60, "velocity": 105, "channel": 0}, {"type": "note_on", "time": 3, "note": 58, "velocity": 97, "channel": 0}, {"type": "note_off", "time": 192, "note": 58, "velocity": 97, "channel": 0}, {"type": "note_on", "time": 1103, "note": 57, "velocity": 98, "channel": 0}, {"type": "note_off", "time": 167, "note": 57, "velocity": 98, "channel": 0}, {"type": "note_on", "time": 17, "note": 56, "velocity": 101, "channel": 0}, {"type": "note_off", "time": 123, "note": 56, "velocity": 101, "channel": 0}, {"type": "note_on", "time": 310, "note": 61, "velocity": 106, "channel": 0}, {"type": "note_off", "time": 169, "note": 61, "velocity": 106, "channel": 0}, {"type": "note_on", "time": 57, "note": 60, "velocity": 96, "channel": 0}, {"type": "note_off", "time": 183, "note": 60, "velocity": 96, "channel": 0}, {"type": "note_on", "time": 23, "note": 58, "velocity": 98, "channel": 0}, {"type": "note_off", "time": 189, "note": 58, "velocity": 98, "channel": 0}, {"type": "note_on", "time": 13, "note": 53, "velocity": 96, "channel": 0}, {"type": "note_off", "time": 242, "note": 53, "velocity": 96, "channel": 0}, {"type": "note_on", "time": 11, "note": 54, "velocity": 94, "channel": 0}, {"type": "note_off", "time": 128, "note": 54, "velocity": 94, "channel": 0}, {"type": "note_on", "time": 20, "note": 57, "velocity": 95, "channel": 0}, {"type": "note_off", "time": 192, "note": 57, "velocity": 95, "channel": 0}, {"type": "note_on", "time": 15, "note": 56, "velocity": 102, "channel": 0}, {"type": "note_off", "time": 189, "note": 56, "velocity": 102, "channel": 0}, {"type": "note_on", "time": 25, "note": 59, "velocity": 95, "channel": 0}, {"type": "note_off", "time": 173, "note": 59, "velocity": 95, "channel": 0}, {"type": "note_on", "time": 657, "note": 52, "velocity": 99, "channel": 0}, {"type": "note_off", "time": 225, "note": 52, "velocity": 99, "channel": 0}, {"type": "note_on", "time": 7, "note": 51, "velocity": 98, "channel": 0}, {"type": "note_off", "time": 192, "note": 51, "velocity": 98, "channel": 0}, {"type": "note_on", "time": 942, "note": 50, "velocity": 106, "channel": 0}, {"type": "note_off", "time": 197, "note": 50, "velocity": 106, "channel": 0}, {"type": "note_on", "time": 5, "note": 49, "velocity": 100, "channel": 0}, {"type": "note_off", "time": 216, "note": 49, "velocity": 100, "channel": 0}, {"type": "note_on", "time": 829, "note": 47, "velocity": 98, "channel": 0}, {"type": "note_off", "time": 187, "note": 47, "velocity": 98, "channel": 0}, {"type": "note_on", "time": 14, "note": 46, "velocity": 101, "channel": 0}, {"type": "note_off", "time": 307, "note": 46, "velocity": 101, "channel": 0}, {"type": "note_on", "time": 4, "note": 47, "velocity": 98, "channel": 0}, {"type": "note_off", "time": 102, "note": 47, "velocity": 98, "channel": 0}, {"type": "note_on", "time": 9, "note": 47, "velocity": 99, "channel": 0}, {"type": "note_off", "time": 104, "note": 47, "velocity": 99, "channel": 0}, {"type": "note_on", "time": 9, "note": 51, "velocity": 97, "channel": 0}, {"type": "note_off", "time": 165, "note": 51, "velocity": 97, "channel": 0}, {"type": "note_on", "time": 18, "note": 54, "velocity": 90, "channel": 0}, {"type": "note_off", "time": 154, "note": 54, "velocity": 90, "channel": 0}, {"type": "note_on", "time": 36, "note": 56, "velocity": 100, "channel": 0}, {"type": "note_off", "time": 159, "note": 56, "velocity": 100, "channel": 0}, {"type": "note_on", "time": 6, "note": 53, "velocity": 98, "channel": 0}, {"type": "note_off", "time": 197, "note": 53, "velocity": 98, "channel": 0}, {"type": "note_on", "time": 4, "note": 48, "velocity": 94, "channel": 0}, {"type": "note_off", "time": 186, "note": 48, "velocity": 94, "channel": 0}, {"type": "note_on", "time": 9, "note": 49, "velocity": 101, "channel": 0}, {"type": "note_off", "time": 168, "note": 49, "velocity": 101, "channel": 0}, {"type": "note_on", "time": 21, "note": 56, "velocity": 100, "channel": 0}, {"type": "note_off", "time": 198, "note": 56, "velocity": 100, "channel": 0}, {"type": "note_on", "time": 15, "note": 57, "velocity": 101, "channel": 0}, {"type": "note_off", "time": 183, "note": 57, "velocity": 101, "channel": 0}, {"type": "note_on", "time": 61, "note": 53, "velocity": 103, "channel": 0}, {"type": "note_off", "time": 169, "note": 53, "velocity": 103, "channel": 0}, {"type": "note_on", "time": 7, "note": 51, "velocity": 102, "channel": 0}, {"type": "note_off", "time": 105, "note": 51, "velocity": 102, "channel": 0}, {"type": "note_on", "time": 14, "note": 50, "velocity": 96, "channel": 0}, {"type": "note_off", "time": 65, "note": 50, "velocity": 96, "channel": 0}, {"type": "note_on", "time": 8, "note": 52, "velocity": 111, "channel": 0}, {"type": "note_off", "time": 59, "note": 52, "velocity": 111, "channel": 0}, {"type": "note_on", "time": 4, "note": 56, "velocity": 102, "channel": 0}, {"type": "note_off", "time": 66, "note": 56, "velocity": 102, "channel": 0}, {"type": "note_on", "time": 39, "note": 58, "velocity": 101, "channel": 0}, {"type": "note_off", "time": 98, "note": 58, "velocity": 101, "channel": 0}, {"type": "note_on", "time": 108, "note": 53, "velocity": 98, "channel": 0}, {"type": "note_off", "time": 192, "note": 53, "velocity": 98, "channel": 0}, {"type": "note_on", "time": 0, "note": 54, "velocity": 93, "channel": 0}, {"type": "note_off", "time": 117, "note": 54, "velocity": 93, "channel": 0}, {"type": "note_on", "time": 4, "note": 57, "velocity": 102, "channel": 0}, {"type": "note_off", "time": 198, "note": 57, "velocity": 102, "channel": 0}, {"type": "note_on", "time": 10, "note": 55, "velocity": 91, "channel": 0}, {"type": "note_off", "time": 196, "note": 55, "velocity": 91, "channel": 0}, {"type": "note_on", "time": 12, "note": 56, "velocity": 100, "channel": 0}, {"type": "note_off", "time": 193, "note": 56, "velocity": 100, "channel": 0}, {"type": "note_on", "time": 27, "note": 59, "velocity": 98, "channel": 0}, {"type": "note_off", "time": 138, "note": 59, "velocity": 98, "channel": 0}, {"type": "note_on", "time": 7, "note": 61, "velocity": 101, "channel": 0}, {"type": "note_off", "time": 260, "note": 61, "velocity": 101, "channel": 0}, {"type": "note_on", "time": 1, "note": 63, "velocity": 100, "channel": 0}, {"type": "note_off", "time": 102, "note": 63, "velocity": 100, "channel": 0}, {"type": "note_on", "time": 16, "note": 66, "velocity": 97, "channel": 0}, {"type": "note_off", "time": 249, "note": 66, "velocity": 97, "channel": 0}, {"type": "note_on", "time": 26, "note": 68, "velocity": 99, "channel": 0}, {"type": "note_off", "time": 219, "note": 68, "velocity": 99, "channel": 0}, {"type": "note_on", "time": 10, "note": 65, "velocity": 101, "channel": 0}, {"type": "note_off", "time": 179, "note": 65, "velocity": 101, "channel": 0}, {"type": "note_on", "time": 17, "note": 63, "velocity": 101, "channel": 0}, {"type": "note_off", "time": 179, "note": 63, "velocity": 101, "channel": 0}, {"type": "note_on", "time": 6, "note": 64, "velocity": 102, "channel": 0}, {"type": "note_off", "time": 227, "note": 64, "velocity": 102, "channel": 0}, {"type": "note_on", "time": 12, "note": 61, "velocity": 103, "channel": 0}, {"type": "note_off", "time": 187, "note": 61, "velocity": 103, "channel": 0}, {"type": "note_on", "time": 13, "note": 57, "velocity": 95, "channel": 0}, {"type": "note_off", "time": 127, "note": 57, "velocity": 95, "channel": 0}, {"type": "note_on", "time": 44, "note": 51, "velocity": 96, "channel": 0}, {"type": "note_off", "time": 200, "note": 51, "velocity": 96, "channel": 0}, {"type": "note_on", "time": 65, "note": 56, "velocity": 98, "channel": 0}, {"type": "note_off", "time": 137, "note": 56, "velocity": 98, "channel": 0}, {"type": "note_on", "time": 92, "note": 60, "velocity": 99, "channel": 0}, {"type": "note_off", "time": 145, "note": 60, "velocity": 99, "channel": 0}, {"type": "note_on", "time": 12, "note": 63, "velocity": 104, "channel": 0}, {"type": "note_off", "time": 189, "note": 63, "velocity": 104, "channel": 0}, {"type": "note_on", "time": 24, "note": 68, "velocity": 91, "channel": 0}, {"type": "note_off", "time": 111, "note": 68, "velocity": 91, "channel": 0}, {"type": "note_on", "time": 116, "note": 70, "velocity": 99, "channel": 0}, {"type": "note_off", "time": 120, "note": 70, "velocity": 99, "channel": 0}, {"type": "note_on", "time": 1, "note": 71, "velocity": 107, "channel": 0}, {"type": "note_off", "time": 536, "note": 71, "velocity": 107, "channel": 0}, {"type": "note_on", "time": 63, "note": 67, "velocity": 95, "channel": 0}, {"type": "note_off", "time": 73, "note": 67, "velocity": 95, "channel": 0}, {"type": "note_on", "time": 3, "note": 70, "velocity": 108, "channel": 0}, {"type": "note_off", "time": 119, "note": 70, "velocity": 108, "channel": 0}, {"type": "note_on", "time": 7, "note": 71, "velocity": 107, "channel": 0}, {"type": "note_off", "time": 135, "note": 71, "velocity": 107, "channel": 0}, {"type": "note_on", "time": 1, "note": 68, "velocity": 98, "channel": 0}, {"type": "note_off", "time": 102, "note": 68, "velocity": 98, "channel": 0}, {"type": "note_on", "time": 1340, "note": 66, "velocity": 105, "channel": 0}, {"type": "note_off", "time": 216, "note": 66, "velocity": 105, "channel": 0}, {"type": "note_on", "time": 47, "note": 62, "velocity": 109, "channel": 0}, {"type": "note_off", "time": 255, "note": 62, "velocity": 109, "channel": 0}, {"type": "note_on", "time": 8, "note": 57, "velocity": 97, "channel": 0}, {"type": "note_off", "time": 183, "note": 57, "velocity": 97, "channel": 0}, {"type": "note_on", "time": 6, "note": 54, "velocity": 95, "channel": 0}, {"type": "note_off", "time": 150, "note": 54, "velocity": 95, "channel": 0}, {"type": "note_on", "time": 32, "note": 56, "velocity": 95, "channel": 0}, {"type": "note_off", "time": 181, "note": 56, "velocity": 95, "channel": 0}, {"type": "note_on", "time": 21, "note": 59, "velocity": 98, "channel": 0}, {"type": "note_off", "time": 159, "note": 59, "velocity": 98, "channel": 0}, {"type": "note_on", "time": 9, "note": 61, "velocity": 99, "channel": 0}, {"type": "note_off", "time": 229, "note": 61, "velocity": 99, "channel": 0}, {"type": "note_on", "time": 15, "note": 63, "velocity": 105, "channel": 0}, {"type": "note_off", "time": 169, "note": 63, "velocity": 105, "channel": 0}, {"type": "note_on", "time": 3, "note": 66, "velocity": 100, "channel": 0}, {"type": "note_off", "time": 208, "note": 66, "velocity": 100, "channel": 0}, {"type": "note_on", "time": 13, "note": 68, "velocity": 99, "channel": 0}, {"type": "note_off", "time": 125, "note": 68, "velocity": 99, "channel": 0}, {"type": "note_on", "time": 47, "note": 70, "velocity": 100, "channel": 0}, {"type": "note_off", "time": 235, "note": 70, "velocity": 100, "channel": 0}, {"type": "note_on", "time": 13, "note": 74, "velocity": 99, "channel": 0}, {"type": "note_off", "time": 271, "note": 74, "velocity": 99, "channel": 0}, {"type": "note_on", "time": 17, "note": 73, "velocity": 91, "channel": 0}, {"type": "note_off", "time": 113, "note": 73, "velocity": 91, "channel": 0}, {"type": "note_on", "time": 32, "note": 71, "velocity": 108, "channel": 0}, {"type": "note_off", "time": 214, "note": 71, "velocity": 108, "channel": 0}, {"type": "note_on", "time": 9, "note": 68, "velocity": 101, "channel": 0}, {"type": "note_off", "time": 104, "note": 68, "velocity": 101, "channel": 0}, {"type": "note_on", "time": 84, "note": 73, "velocity": 92, "channel": 0}, {"type": "note_off", "time": 190, "note": 73, "velocity": 92, "channel": 0}, {"type": "note_on", "time": 34, "note": 66, "velocity": 103, "channel": 0}, {"type": "note_off", "time": 173, "note": 66, "velocity": 103, "channel": 0}, {"type": "note_on", "time": 19, "note": 66, "velocity": 92, "channel": 0}, {"type": "note_off", "time": 161, "note": 66, "velocity": 92, "channel": 0}, {"type": "note_on", "time": 29, "note": 69, "velocity": 102, "channel": 0}, {"type": "note_off", "time": 221, "note": 69, "velocity": 102, "channel": 0}, {"type": "note_on", "time": 26, "note": 65, "velocity": 105, "channel": 0}, {"type": "note_off", "time": 141, "note": 65, "velocity": 105, "channel": 0}, {"type": "note_on", "time": 6, "note": 64, "velocity": 100, "channel": 0}, {"type": "note_off", "time": 188, "note": 64, "velocity": 100, "channel": 0}, {"type": "note_on", "time": 59, "note": 69, "velocity": 100, "channel": 0}, {"type": "note_off", "time": 158, "note": 69, "velocity": 100, "channel": 0}, {"type": "note_on", "time": 5, "note": 72, "velocity": 97, "channel": 0}, {"type": "note_off", "time": 246, "note": 72, "velocity": 97, "channel": 0}, {"type": "note_on", "time": 17, "note": 91, "velocity": 80, "channel": 0}, {"type": "note_off", "time": 18, "note": 91, "velocity": 80, "channel": 0}, {"type": "note_on", "time": 0, "note": 63, "velocity": 104, "channel": 0}, {"type": "note_off", "time": 241, "note": 63, "velocity": 104, "channel": 0}, {"type": "note_on", "time": 13, "note": 66, "velocity": 91, "channel": 0}, {"type": "note_off", "time": 109, "note": 66, "velocity": 91, "channel": 0}, {"type": "note_on", "time": 14, "note": 71, "velocity": 106, "channel": 0}, {"type": "note_off", "time": 122, "note": 71, "velocity": 106, "channel": 0}, {"type": "note_on", "time": 158, "note": 65, "velocity": 101, "channel": 0}, {"type": "note_off", "time": 181, "note": 65, "velocity": 101, "channel": 0}, {"type": "note_on", "time": 9, "note": 66, "velocity": 91, "channel": 0}, {"type": "note_off", "time": 111, "note": 66, "velocity": 91, "channel": 0}, {"type": "note_on", "time": 30, "note": 69, "velocity": 99, "channel": 0}, {"type": "note_off", "time": 260, "note": 69, "velocity": 99, "channel": 0}, {"type": "note_on", "time": 25, "note": 68, "velocity": 89, "channel": 0}, {"type": "note_off", "time": 183, "note": 68, "velocity": 89, "channel": 0}, {"type": "note_on", "time": 22, "note": 68, "velocity": 100, "channel": 0}, {"type": "note_off", "time": 217, "note": 68, "velocity": 100, "channel": 0}, {"type": "note_on", "time": 10, "note": 66, "velocity": 99, "channel": 0}, {"type": "note_off", "time": 125, "note": 66, "velocity": 99, "channel": 0}, {"type": "note_on", "time": 0, "note": 61, "velocity": 108, "channel": 0}, {"type": "note_off", "time": 231, "note": 61, "velocity": 108, "channel": 0}, {"type": "note_on", "time": 58, "note": 64, "velocity": 95, "channel": 0}, {"type": "note_off", "time": 137, "note": 64, "velocity": 95, "channel": 0}, {"type": "note_on", "time": 5, "note": 67, "velocity": 102, "channel": 0}, {"type": "note_off", "time": 55, "note": 67, "velocity": 102, "channel": 0}, {"type": "note_on", "time": 13, "note": 68, "velocity": 104, "channel": 0}, {"type": "note_off", "time": 189, "note": 68, "velocity": 104, "channel": 0}, {"type": "note_on", "time": 36, "note": 65, "velocity": 94, "channel": 0}, {"type": "note_off", "time": 151, "note": 65, "velocity": 94, "channel": 0}, {"type": "note_on", "time": 6, "note": 66, "velocity": 97, "channel": 0}, {"type": "note_off", "time": 183, "note": 66, "velocity": 97, "channel": 0}, {"type": "note_on", "time": 9, "note": 67, "velocity": 100, "channel": 0}, {"type": "note_off", "time": 163, "note": 67, "velocity": 100, "channel": 0}, {"type": "note_on", "time": 1, "note": 65, "velocity": 100, "channel": 0}, {"type": "note_off", "time": 250, "note": 65, "velocity": 100, "channel": 0}, {"type": "note_on", "time": 9, "note": 62, "velocity": 94, "channel": 0}, {"type": "note_off", "time": 98, "note": 62, "velocity": 94, "channel": 0}, {"type": "note_on", "time": 67, "note": 64, "velocity": 102, "channel": 0}, {"type": "note_off", "time": 178, "note": 64, "velocity": 102, "channel": 0}, {"type": "note_on", "time": 29, "note": 60, "velocity": 98, "channel": 0}, {"type": "note_off", "time": 167, "note": 60, "velocity": 98, "channel": 0}, {"type": "note_on", "time": 3, "note": 57, "velocity": 94, "channel": 0}, {"type": "note_off", "time": 260, "note": 57, "velocity": 94, "channel": 0}, {"type": "note_on", "time": 2162, "note": 68, "velocity": 108, "channel": 0}, {"type": "note_off", "time": 211, "note": 68, "velocity": 108, "channel": 0}, {"type": "note_on", "time": 8, "note": 65, "velocity": 100, "channel": 0}, {"type": "note_off", "time": 133, "note": 65, "velocity": 100, "channel": 0}, {"type": "note_on", "time": 58, "note": 69, "velocity": 107, "channel": 0}, {"type": "note_off", "time": 139, "note": 69, "velocity": 107, "channel": 0}, {"type": "note_on", "time": 17, "note": 68, "velocity": 104, "channel": 0}, {"type": "note_off", "time": 245, "note": 68, "velocity": 104, "channel": 0}, {"type": "note_on", "time": 34, "note": 65, "velocity": 102, "channel": 0}, {"type": "note_off", "time": 208, "note": 65, "velocity": 102, "channel": 0}, {"type": "note_on", "time": 33, "note": 61, "velocity": 103, "channel": 0}, {"type": "note_off", "time": 152, "note": 61, "velocity": 103, "channel": 0}, {"type": "note_on", "time": 3, "note": 64, "velocity": 104, "channel": 0}, {"type": "note_off", "time": 92, "note": 64, "velocity": 104, "channel": 0}, {"type": "note_on", "time": 123, "note": 55, "velocity": 98, "channel": 0}, {"type": "note_off", "time": 235, "note": 55, "velocity": 98, "channel": 0}, {"type": "note_on", "time": 29, "note": 67, "velocity": 103, "channel": 0}, {"type": "note_off", "time": 142, "note": 67, "velocity": 103, "channel": 0}, {"type": "note_on", "time": 13, "note": 66, "velocity": 101, "channel": 0}, {"type": "note_off", "time": 258, "note": 66, "velocity": 101, "channel": 0}, {"type": "note_on", "time": 163, "note": 59, "velocity": 95, "channel": 0}, {"type": "note_off", "time": 187, "note": 59, "velocity": 95, "channel": 0}, {"type": "note_on", "time": 21, "note": 63, "velocity": 106, "channel": 0}, {"type": "note_off", "time": 200, "note": 63, "velocity": 106, "channel": 0}, {"type": "note_on", "time": 18, "note": 65, "velocity": 96, "channel": 0}, {"type": "note_off", "time": 144, "note": 65, "velocity": 96, "channel": 0}, {"type": "note_on", "time": 26, "note": 68, "velocity": 99, "channel": 0}, {"type": "note_off", "time": 138, "note": 68, "velocity": 99, "channel": 0}, {"type": "note_on", "time": 225, "note": 65, "velocity": 95, "channel": 0}, {"type": "note_off", "time": 108, "note": 65, "velocity": 95, "channel": 0}, {"type": "note_on", "time": 13, "note": 61, "velocity": 97, "channel": 0}, {"type": "note_off", "time": 186, "note": 61, "velocity": 97, "channel": 0}, {"type": "note_on", "time": 12, "note": 64, "velocity": 103, "channel": 0}, {"type": "note_off", "time": 175, "note": 64, "velocity": 103, "channel": 0}, {"type": "note_on", "time": 9, "note": 69, "velocity": 98, "channel": 0}, {"type": "note_off", "time": 113, "note": 69, "velocity": 98, "channel": 0}, {"type": "note_on", "time": 3, "note": 71, "velocity": 104, "channel": 0}, {"type": "note_off", "time": 271, "note": 71, "velocity": 104, "channel": 0}, {"type": "note_on", "time": 3, "note": 70, "velocity": 106, "channel": 0}, {"type": "note_off", "time": 175, "note": 70, "velocity": 106, "channel": 0}, {"type": "note_on", "time": 7, "note": 66, "velocity": 98, "channel": 0}, {"type": "note_off", "time": 177, "note": 66, "velocity": 98, "channel": 0}, {"type": "note_on", "time": 9, "note": 67, "velocity": 95, "channel": 0}, {"type": "note_off", "time": 165, "note": 67, "velocity": 95, "channel": 0}, {"type": "note_on", "time": 2, "note": 63, "velocity": 92, "channel": 0}, {"type": "note_off", "time": 171, "note": 63, "velocity": 92, "channel": 0}, {"type": "note_on", "time": 0, "note": 68, "velocity": 99, "channel": 0}, {"type": "note_off", "time": 204, "note": 68, "velocity": 99, "channel": 0}, {"type": "note_on", "time": 41, "note": 65, "velocity": 92, "channel": 0}, {"type": "note_off", "time": 148, "note": 65, "velocity": 92, "channel": 0}, {"type": "note_on", "time": 13, "note": 66, "velocity": 89, "channel": 0}, {"type": "note_off", "time": 127, "note": 66, "velocity": 89, "channel": 0}, {"type": "note_on", "time": 59, "note": 70, "velocity": 104, "channel": 0}, {"type": "note_off", "time": 211, "note": 70, "velocity": 104, "channel": 0}, {"type": "note_on", "time": 15, "note": 67, "velocity": 103, "channel": 0}, {"type": "note_off", "time": 152, "note": 67, "velocity": 103, "channel": 0}, {"type": "note_on", "time": 10, "note": 68, "velocity": 98, "channel": 0}, {"type": "note_off", "time": 194, "note": 68, "velocity": 98, "channel": 0}, {"type": "note_on", "time": 16, "note": 71, "velocity": 102, "channel": 0}, {"type": "note_off", "time": 213, "note": 71, "velocity": 102, "channel": 0}, {"type": "note_on", "time": 1, "note": 73, "velocity": 86, "channel": 0}, {"type": "note_off", "time": 145, "note": 73, "velocity": 86, "channel": 0}, {"type": "note_on", "time": 53, "note": 75, "velocity": 93, "channel": 0}, {"type": "note_off", "time": 221, "note": 75, "velocity": 93, "channel": 0}, {"type": "note_on", "time": 35, "note": 74, "velocity": 100, "channel": 0}, {"type": "note_off", "time": 212, "note": 74, "velocity": 100, "channel": 0}, {"type": "note_on", "time": 9, "note": 73, "velocity": 93, "channel": 0}, {"type": "note_off", "time": 123, "note": 73, "velocity": 93, "channel": 0}, {"type": "note_on", "time": 68, "note": 61, "velocity": 104, "channel": 0}, {"type": "note_off", "time": 133, "note": 61, "velocity": 104, "channel": 0}, {"type": "note_on", "time": 17, "note": 63, "velocity": 100, "channel": 0}, {"type": "note_off", "time": 124, "note": 63, "velocity": 100, "channel": 0}, {"type": "note_on", "time": 89, "note": 73, "velocity": 94, "channel": 0}, {"type": "note_off", "time": 213, "note": 73, "velocity": 94, "channel": 0}, {"type": "note_on", "time": 10, "note": 72, "velocity": 96, "channel": 0}, {"type": "note_off", "time": 178, "note": 72, "velocity": 96, "channel": 0}, {"type": "note_on", "time": 8, "note": 71, "velocity": 106, "channel": 0}, {"type": "note_off", "time": 167, "note": 71, "velocity": 106, "channel": 0}, {"type": "note_on", "time": 37, "note": 60, "velocity": 98, "channel": 0}, {"type": "note_off", "time": 200, "note": 60, "velocity": 98, "channel": 0}, {"type": "note_on", "time": 56, "note": 61, "velocity": 91, "channel": 0}, {"type": "note_off", "time": 137, "note": 61, "velocity": 91, "channel": 0}, {"type": "note_on", "time": 45, "note": 71, "velocity": 105, "channel": 0}, {"type": "note_off", "time": 198, "note": 71, "velocity": 105, "channel": 0}, {"type": "note_on", "time": 67, "note": 68, "velocity": 88, "channel": 0}, {"type": "note_off", "time": 147, "note": 68, "velocity": 88, "channel": 0}, {"type": "note_on", "time": 18, "note": 69, "velocity": 102, "channel": 0}, {"type": "note_off", "time": 175, "note": 69, "velocity": 102, "channel": 0}, {"type": "note_on", "time": 165, "note": 65, "velocity": 90, "channel": 0}, {"type": "note_off", "time": 115, "note": 65, "velocity": 90, "channel": 0}, {"type": "note_on", "time": 7, "note": 66, "velocity": 86, "channel": 0}, {"type": "note_off", "time": 107, "note": 66, "velocity": 86, "channel": 0}, {"type": "note_on", "time": 14, "note": 70, "velocity": 91, "channel": 0}, {"type": "note_off", "time": 159, "note": 70, "velocity": 91, "channel": 0}, {"type": "note_on", "time": 19, "note": 69, "velocity": 101, "channel": 0}, {"type": "note_off", "time": 154, "note": 69, "velocity": 101, "channel": 0}, {"type": "note_on", "time": 106, "note": 67, "velocity": 88, "channel": 0}, {"type": "note_off", "time": 65, "note": 67, "velocity": 88, "channel": 0}, {"type": "note_on", "time": 13, "note": 68, "velocity": 83, "channel": 0}, {"type": "note_off", "time": 85, "note": 68, "velocity": 83, "channel": 0}, {"type": "note_on", "time": 10, "note": 70, "velocity": 99, "channel": 0}, {"type": "note_off", "time": 268, "note": 70, "velocity": 99, "channel": 0}, {"type": "note_on", "time": 11, "note": 68, "velocity": 100, "channel": 0}, {"type": "note_off", "time": 209, "note": 68, "velocity": 100, "channel": 0}, {"type": "note_on", "time": 10, "note": 67, "velocity": 99, "channel": 0}, {"type": "note_off", "time": 171, "note": 67, "velocity": 99, "channel": 0}, {"type": "note_on", "time": 42, "note": 66, "velocity": 99, "channel": 0}, {"type": "note_off", "time": 194, "note": 66, "velocity": 99, "channel": 0}, {"type": "note_on", "time": 16, "note": 65, "velocity": 96, "channel": 0}, {"type": "note_off", "time": 134, "note": 65, "velocity": 96, "channel": 0}, {"type": "note_on", "time": 51, "note": 64, "velocity": 110, "channel": 0}, {"type": "note_off", "time": 218, "note": 64, "velocity": 110, "channel": 0}, {"type": "note_on", "time": 9, "note": 63, "velocity": 97, "channel": 0}, {"type": "note_off", "time": 223, "note": 63, "velocity": 97, "channel": 0}, {"type": "note_on", "time": 5, "note": 58, "velocity": 96, "channel": 0}, {"type": "note_off", "time": 128, "note": 58, "velocity": 96, "channel": 0}, {"type": "note_on", "time": 1522, "note": 68, "velocity": 98, "channel": 0}, {"type": "note_off", "time": 152, "note": 68, "velocity": 98, "channel": 0}, {"type": "note_on", "time": 49, "note": 68, "velocity": 104, "channel": 0}, {"type": "note_off", "time": 125, "note": 68, "velocity": 104, "channel": 0}, {"type": "note_on", "time": 58, "note": 68, "velocity": 103, "channel": 0}, {"type": "note_off", "time": 130, "note": 68, "velocity": 103, "channel": 0}, {"type": "note_on", "time": 84, "note": 68, "velocity": 101, "channel": 0}, {"type": "note_off", "time": 150, "note": 68, "velocity": 101, "channel": 0}, {"type": "note_on", "time": 68, "note": 68, "velocity": 103, "channel": 0}, {"type": "note_off", "time": 111, "note": 68, "velocity": 103, "channel": 0}, {"type": "note_on", "time": 66, "note": 68, "velocity": 99, "channel": 0}, {"type": "note_off", "time": 113, "note": 68, "velocity": 99, "channel": 0}, {"type": "note_on", "time": 648, "note": 68, "velocity": 92, "channel": 0}, {"type": "note_off", "time": 123, "note": 68, "velocity": 92, "channel": 0}, {"type": "note_on", "time": 44, "note": 68, "velocity": 101, "channel": 0}, {"type": "note_off", "time": 101, "note": 68, "velocity": 101, "channel": 0}, {"type": "note_on", "time": 120, "note": 68, "velocity": 100, "channel": 0}, {"type": "note_off", "time": 132, "note": 68, "velocity": 100, "channel": 0}, {"type": "note_on", "time": 74, "note": 68, "velocity": 97, "channel": 0}, {"type": "note_off", "time": 137, "note": 68, "velocity": 97, "channel": 0}, {"type": "note_on", "time": 65, "note": 68, "velocity": 100, "channel": 0}, {"type": "note_off", "time": 141, "note": 68, "velocity": 100, "channel": 0}, {"type": "note_on", "time": 82, "note": 68, "velocity": 100, "channel": 0}, {"type": "note_off", "time": 130, "note": 68, "velocity": 100, "channel": 0}, {"type": "note_on", "time": 65, "note": 68, "velocity": 101, "channel": 0}, {"type": "note_off", "time": 109, "note": 68, "velocity": 101, "channel": 0}, {"type": "note_on", "time": 1372, "note": 68, "velocity": 98, "channel": 0}, {"type": "note_off", "time": 107, "note": 68, "velocity": 98, "channel": 0}, {"type": "note_on", "time": 88, "note": 68, "velocity": 101, "channel": 0}, {"type": "note_off", "time": 98, "note": 68, "velocity": 101, "channel": 0}, {"type": "note_on", "time": 117, "note": 68, "velocity": 94, "channel": 0}, {"type": "note_off", "time": 124, "note": 68, "velocity": 94, "channel": 0}, {"type": "note_on", "time": 79, "note": 68, "velocity": 101, "channel": 0}, {"type": "note_off", "time": 128, "note": 68, "velocity": 101, "channel": 0}, {"type": "note_on", "time": 82, "note": 68, "velocity": 103, "channel": 0}, {"type": "note_off", "time": 113, "note": 68, "velocity": 103, "channel": 0}, {"type": "note_on", "time": 103, "note": 68, "velocity": 103, "channel": 0}, {"type": "note_off", "time": 118, "note": 68, "velocity": 103, "channel": 0}, {"type": "note_on", "time": 130, "note": 68, "velocity": 99, "channel": 0}, {"type": "note_off", "time": 191, "note": 68, "velocity": 99, "channel": 0}, {"type": "note_on", "time": 26, "note": 69, "velocity": 94, "channel": 0}, {"type": "note_off", "time": 151, "note": 69, "velocity": 94, "channel": 0}, {"type": "note_on", "time": 63, "note": 68, "velocity": 100, "channel": 0}, {"type": "note_off", "time": 144, "note": 68, "velocity": 100, "channel": 0}, {"type": "note_on", "time": 78, "note": 68, "velocity": 102, "channel": 0}, {"type": "note_off", "time": 126, "note": 68, "velocity": 102, "channel": 0}, {"type": "note_on", "time": 292, "note": 62, "velocity": 103, "channel": 0}, {"type": "note_off", "time": 185, "note": 62, "velocity": 103, "channel": 0}, {"type": "note_on", "time": 208, "note": 62, "velocity": 104, "channel": 0}, {"type": "note_off", "time": 185, "note": 62, "velocity": 104, "channel": 0}, {"type": "note_on", "time": 254, "note": 68, "velocity": 100, "channel": 0}, {"type": "note_off", "time": 161, "note": 68, "velocity": 100, "channel": 0}, {"type": "note_on", "time": 300, "note": 62, "velocity": 107, "channel": 0}, {"type": "note_off", "time": 154, "note": 62, "velocity": 107, "channel": 0}, {"type": "note_on", "time": 324, "note": 61, "velocity": 92, "channel": 0}, {"type": "note_off", "time": 154, "note": 61, "velocity": 92, "channel": 0}, {"type": "note_on", "time": 306, "note": 62, "velocity": 104, "channel": 0}, {"type": "note_off", "time": 152, "note": 62, "velocity": 104, "channel": 0}, {"type": "note_on", "time": 158, "note": 63, "velocity": 111, "channel": 0}, {"type": "note_off", "time": 192, "note": 63, "velocity": 111, "channel": 0}, {"type": "note_on", "time": 231, "note": 61, "velocity": 75, "channel": 0}, {"type": "note_off", "time": 100, "note": 61, "velocity": 75, "channel": 0}, {"type": "note_on", "time": 54, "note": 62, "velocity": 104, "channel": 0}, {"type": "note_off", "time": 293, "note": 62, "velocity": 104, "channel": 0}, {"type": "note_on", "time": 7, "note": 61, "velocity": 99, "channel": 0}, {"type": "note_on", "time": 223, "note": 56, "velocity": 95, "channel": 0}, {"type": "note_off", "time": 0, "note": 61, "velocity": 99, "channel": 0}, {"type": "note_off", "time": 271, "note": 56, "velocity": 95, "channel": 0}, {"type": "note_on", "time": 29, "note": 50, "velocity": 96, "channel": 0}, {"type": "note_off", "time": 177, "note": 50, "velocity": 96, "channel": 0}, {"type": "note_on", "time": 66, "note": 57, "velocity": 96, "channel": 0}, {"type": "note_off", "time": 159, "note": 57, "velocity": 96, "channel": 0}, {"type": "note_on", "time": 4141, "note": 49, "velocity": 102, "channel": 0}, {"type": "note_off", "time": 73, "note": 49, "velocity": 102, "channel": 0}, {"type": "note_on", "time": 20, "note": 46, "velocity": 103, "channel": 0}, {"type": "note_off", "time": 62, "note": 46, "velocity": 103, "channel": 0}, {"type": "note_on", "time": 3, "note": 45, "velocity": 101, "channel": 0}, {"type": "note_off", "time": 106, "note": 45, "velocity": 101, "channel": 0}, {"type": "note_on", "time": 5, "note": 49, "velocity": 101, "channel": 0}, {"type": "note_off", "time": 84, "note": 49, "velocity": 101, "channel": 0}, {"type": "note_on", "time": 3, "note": 53, "velocity": 102, "channel": 0}, {"type": "note_off", "time": 78, "note": 53, "velocity": 102, "channel": 0}, {"type": "note_on", "time": 27, "note": 56, "velocity": 105, "channel": 0}, {"type": "note_off", "time": 108, "note": 56, "velocity": 105, "channel": 0}, {"type": "note_on", "time": 23, "note": 56, "velocity": 105, "channel": 0}, {"type": "note_off", "time": 98, "note": 56, "velocity": 105, "channel": 0}, {"type": "note_on", "time": 5, "note": 53, "velocity": 99, "channel": 0}, {"type": "note_off", "time": 208, "note": 53, "velocity": 99, "channel": 0}, {"type": "note_on", "time": 13, "note": 48, "velocity": 83, "channel": 0}, {"type": "note_off", "time": 128, "note": 48, "velocity": 83, "channel": 0}, {"type": "note_on", "time": 3, "note": 50, "velocity": 93, "channel": 0}, {"type": "note_off", "time": 169, "note": 50, "velocity": 93, "channel": 0}, {"type": "note_on", "time": 11, "note": 56, "velocity": 96, "channel": 0}, {"type": "note_off", "time": 119, "note": 56, "velocity": 96, "channel": 0}, {"type": "note_on", "time": 19, "note": 51, "velocity": 96, "channel": 0}, {"type": "note_off", "time": 343, "note": 51, "velocity": 96, "channel": 0}, {"type": "note_on", "time": 54, "note": 54, "velocity": 84, "channel": 0}, {"type": "note_off", "time": 138, "note": 54, "velocity": 84, "channel": 0}, {"type": "note_on", "time": 10, "note": 58, "velocity": 96, "channel": 0}, {"type": "note_off", "time": 216, "note": 58, "velocity": 96, "channel": 0}, {"type": "note_on", "time": 35, "note": 56, "velocity": 84, "channel": 0}, {"type": "note_off", "time": 120, "note": 56, "velocity": 84, "channel": 0}, {"type": "note_on", "time": 56, "note": 59, "velocity": 98, "channel": 0}, {"type": "note_off", "time": 171, "note": 59, "velocity": 98, "channel": 0}, {"type": "note_on", "time": 210, "note": 62, "velocity": 108, "channel": 0}, {"type": "note_off", "time": 165, "note": 62, "velocity": 108, "channel": 0}, {"type": "note_on", "time": 287, "note": 61, "velocity": 102, "channel": 0}, {"type": "note_off", "time": 179, "note": 61, "velocity": 102, "channel": 0}, {"type": "note_on", "time": 223, "note": 56, "velocity": 101, "channel": 0}, {"type": "note_off", "time": 150, "note": 56, "velocity": 101, "channel": 0}, {"type": "note_on", "time": 246, "note": 60, "velocity": 98, "channel": 0}, {"type": "note_off", "time": 146, "note": 60, "velocity": 98, "channel": 0}, {"type": "note_on", "time": 269, "note": 65, "velocity": 103, "channel": 0}, {"type": "note_off", "time": 169, "note": 65, "velocity": 103, "channel": 0}, {"type": "note_on", "time": 300, "note": 66, "velocity": 97, "channel": 0}, {"type": "note_off", "time": 198, "note": 66, "velocity": 97, "channel": 0}, {"type": "note_on", "time": 206, "note": 59, "velocity": 99, "channel": 0}, {"type": "note_off", "time": 249, "note": 59, "velocity": 99, "channel": 0}, {"type": "note_on", "time": 247, "note": 63, "velocity": 112, "channel": 0}, {"type": "note_off", "time": 208, "note": 63, "velocity": 112, "channel": 0}, {"type": "note_on", "time": 104, "note": 66, "velocity": 100, "channel": 0}, {"type": "note_off", "time": 185, "note": 66, "velocity": 100, "channel": 0}, {"type": "note_on", "time": 74, "note": 67, "velocity": 107, "channel": 0}, {"type": "note_off", "time": 170, "note": 67, "velocity": 107, "channel": 0}, {"type": "note_on", "time": 279, "note": 59, "velocity": 96, "channel": 0}, {"type": "note_off", "time": 165, "note": 59, "velocity": 96, "channel": 0}, {"type": "note_on", "time": 20, "note": 64, "velocity": 111, "channel": 0}, {"type": "note_off", "time": 230, "note": 64, "velocity": 111, "channel": 0}, {"type": "note_on", "time": 242, "note": 67, "velocity": 102, "channel": 0}, {"type": "note_off", "time": 277, "note": 67, "velocity": 102, "channel": 0}, {"type": "note_on", "time": 73, "note": 68, "velocity": 105, "channel": 0}, {"type": "note_off", "time": 165, "note": 68, "velocity": 105, "channel": 0}, {"type": "note_on", "time": 407, "note": 61, "velocity": 100, "channel": 0}, {"type": "note_off", "time": 135, "note": 61, "velocity": 100, "channel": 0}, {"type": "note_on", "time": 46, "note": 65, "velocity": 102, "channel": 0}, {"type": "note_off", "time": 241, "note": 65, "velocity": 102, "channel": 0}, {"type": "note_on", "time": 117, "note": 68, "velocity": 103, "channel": 0}, {"type": "note_off", "time": 129, "note": 68, "velocity": 103, "channel": 0}, {"type": "note_on", "time": 106, "note": 69, "velocity": 103, "channel": 0}, {"type": "note_off", "time": 181, "note": 69, "velocity": 103, "channel": 0}, {"type": "note_on", "time": 175, "note": 62, "velocity": 111, "channel": 0}, {"type": "note_off", "time": 160, "note": 62, "velocity": 111, "channel": 0}, {"type": "note_on", "time": 75, "note": 66, "velocity": 102, "channel": 0}, {"type": "note_off", "time": 185, "note": 66, "velocity": 102, "channel": 0}, {"type": "note_on", "time": 198, "note": 69, "velocity": 101, "channel": 0}, {"type": "note_off", "time": 148, "note": 69, "velocity": 101, "channel": 0}, {"type": "note_on", "time": 101, "note": 70, "velocity": 105, "channel": 0}, {"type": "note_off", "time": 189, "note": 70, "velocity": 105, "channel": 0}, {"type": "note_on", "time": 1108, "note": 71, "velocity": 105, "channel": 0}, {"type": "note_off", "time": 114, "note": 71, "velocity": 105, "channel": 0}, {"type": "note_on", "time": 79, "note": 68, "velocity": 102, "channel": 0}, {"type": "note_off", "time": 94, "note": 68, "velocity": 102, "channel": 0}, {"type": "note_on", "time": 127, "note": 70, "velocity": 102, "channel": 0}, {"type": "note_off", "time": 105, "note": 70, "velocity": 102, "channel": 0}, {"type": "note_on", "time": 102, "note": 71, "velocity": 109, "channel": 0}, {"type": "note_off", "time": 116, "note": 71, "velocity": 109, "channel": 0}, {"type": "note_on", "time": 81, "note": 70, "velocity": 100, "channel": 0}, {"type": "note_off", "time": 106, "note": 70, "velocity": 100, "channel": 0}, {"type": "note_on", "time": 116, "note": 67, "velocity": 105, "channel": 0}, {"type": "note_off", "time": 115, "note": 67, "velocity": 105, "channel": 0}, {"type": "note_on", "time": 80, "note": 69, "velocity": 100, "channel": 0}, {"type": "note_off", "time": 126, "note": 69, "velocity": 100, "channel": 0}, {"type": "note_on", "time": 108, "note": 70, "velocity": 102, "channel": 0}, {"type": "note_off", "time": 128, "note": 70, "velocity": 102, "channel": 0}, {"type": "note_on", "time": 106, "note": 69, "velocity": 98, "channel": 0}, {"type": "note_off", "time": 117, "note": 69, "velocity": 98, "channel": 0}, {"type": "note_on", "time": 65, "note": 66, "velocity": 100, "channel": 0}, {"type": "note_off", "time": 132, "note": 66, "velocity": 100, "channel": 0}, {"type": "note_on", "time": 88, "note": 68, "velocity": 98, "channel": 0}, {"type": "note_off", "time": 124, "note": 68, "velocity": 98, "channel": 0}, {"type": "note_on", "time": 90, "note": 69, "velocity": 99, "channel": 0}, {"type": "note_off", "time": 134, "note": 69, "velocity": 99, "channel": 0}, {"type": "note_on", "time": 100, "note": 68, "velocity": 98, "channel": 0}, {"type": "note_off", "time": 95, "note": 68, "velocity": 98, "channel": 0}, {"type": "note_on", "time": 95, "note": 65, "velocity": 99, "channel": 0}, {"type": "note_off", "time": 200, "note": 65, "velocity": 99, "channel": 0}, {"type": "note_on", "time": 651, "note": 67, "velocity": 94, "channel": 0}, {"type": "note_off", "time": 181, "note": 67, "velocity": 94, "channel": 0}, {"type": "note_on", "time": 42, "note": 68, "velocity": 102, "channel": 0}, {"type": "note_off", "time": 92, "note": 68, "velocity": 102, "channel": 0}, {"type": "note_on", "time": 80, "note": 69, "velocity": 104, "channel": 0}, {"type": "note_off", "time": 135, "note": 69, "velocity": 104, "channel": 0}, {"type": "note_on", "time": 96, "note": 70, "velocity": 104, "channel": 0}, {"type": "note_off", "time": 128, "note": 70, "velocity": 104, "channel": 0}, {"type": "note_on", "time": 100, "note": 66, "velocity": 104, "channel": 0}, {"type": "note_off", "time": 113, "note": 66, "velocity": 104, "channel": 0}, {"type": "note_on", "time": 80, "note": 67, "velocity": 102, "channel": 0}, {"type": "note_off", "time": 76, "note": 67, "velocity": 102, "channel": 0}, {"type": "note_on", "time": 0, "note": 68, "velocity": 90, "channel": 0}, {"type": "note_off", "time": 77, "note": 68, "velocity": 90, "channel": 0}, {"type": "note_on", "time": 88, "note": 70, "velocity": 100, "channel": 0}, {"type": "note_off", "time": 152, "note": 70, "velocity": 100, "channel": 0}, {"type": "note_on", "time": 62, "note": 71, "velocity": 104, "channel": 0}, {"type": "note_off", "time": 148, "note": 71, "velocity": 104, "channel": 0}, {"type": "note_on", "time": 57, "note": 68, "velocity": 97, "channel": 0}, {"type": "note_off", "time": 148, "note": 68, "velocity": 97, "channel": 0}, {"type": "note_on", "time": 67, "note": 69, "velocity": 99, "channel": 0}, {"type": "note_off", "time": 120, "note": 69, "velocity": 99, "channel": 0}, {"type": "note_on", "time": 114, "note": 71, "velocity": 106, "channel": 0}, {"type": "note_off", "time": 148, "note": 71, "velocity": 106, "channel": 0}, {"type": "note_on", "time": 52, "note": 72, "velocity": 108, "channel": 0}, {"type": "note_off", "time": 189, "note": 72, "velocity": 108, "channel": 0}, {"type": "note_on", "time": 79, "note": 68, "velocity": 102, "channel": 0}, {"type": "note_off", "time": 141, "note": 68, "velocity": 102, "channel": 0}, {"type": "note_on", "time": 137, "note": 73, "velocity": 83, "channel": 0}, {"type": "note_off", "time": 135, "note": 73, "velocity": 83, "channel": 0}, {"type": "note_on", "time": 321, "note": 69, "velocity": 94, "channel": 0}, {"type": "note_off", "time": 76, "note": 69, "velocity": 94, "channel": 0}, {"type": "note_on", "time": 10, "note": 68, "velocity": 104, "channel": 0}, {"type": "note_off", "time": 46, "note": 68, "velocity": 104, "channel": 0}, {"type": "note_on", "time": 6, "note": 67, "velocity": 104, "channel": 0}, {"type": "note_off", "time": 65, "note": 67, "velocity": 104, "channel": 0}, {"type": "note_on", "time": 13, "note": 65, "velocity": 95, "channel": 0}, {"type": "note_off", "time": 156, "note": 65, "velocity": 95, "channel": 0}, {"type": "note_on", "time": 120, "note": 71, "velocity": 105, "channel": 0}, {"type": "note_off", "time": 65, "note": 71, "velocity": 105, "channel": 0}, {"type": "note_on", "time": 12, "note": 72, "velocity": 100, "channel": 0}, {"type": "note_off", "time": 102, "note": 72, "velocity": 100, "channel": 0}, {"type": "note_on", "time": 200, "note": 68, "velocity": 98, "channel": 0}, {"type": "note_off", "time": 109, "note": 68, "velocity": 98, "channel": 0}, {"type": "note_on", "time": 12, "note": 67, "velocity": 106, "channel": 0}, {"type": "note_off", "time": 94, "note": 67, "velocity": 106, "channel": 0}, {"type": "note_on", "time": 13, "note": 65, "velocity": 97, "channel": 0}, {"type": "note_off", "time": 116, "note": 65, "velocity": 97, "channel": 0}, {"type": "note_on", "time": 97, "note": 71, "velocity": 104, "channel": 0}, {"type": "note_off", "time": 116, "note": 71, "velocity": 104, "channel": 0}, {"type": "note_on", "time": 46, "note": 68, "velocity": 94, "channel": 0}, {"type": "note_off", "time": 94, "note": 68, "velocity": 94, "channel": 0}, {"type": "note_on", "time": 8, "note": 67, "velocity": 101, "channel": 0}, {"type": "note_off", "time": 80, "note": 67, "velocity": 101, "channel": 0}, {"type": "note_on", "time": 5, "note": 66, "velocity": 101, "channel": 0}, {"type": "note_off", "time": 78, "note": 66, "velocity": 101, "channel": 0}, {"type": "note_on", "time": 12, "note": 64, "velocity": 100, "channel": 0}, {"type": "note_off", "time": 96, "note": 64, "velocity": 100, "channel": 0}, {"type": "note_on", "time": 99, "note": 70, "velocity": 105, "channel": 0}, {"type": "note_off", "time": 127, "note": 70, "velocity": 105, "channel": 0}, {"type": "note_on", "time": 30, "note": 66, "velocity": 99, "channel": 0}, {"type": "note_off", "time": 93, "note": 66, "velocity": 99, "channel": 0}, {"type": "note_on", "time": 8, "note": 65, "velocity": 103, "channel": 0}, {"type": "note_off", "time": 117, "note": 65, "velocity": 103, "channel": 0}, {"type": "note_on", "time": 32, "note": 63, "velocity": 100, "channel": 0}, {"type": "note_off", "time": 152, "note": 63, "velocity": 100, "channel": 0}, {"type": "note_on", "time": 39, "note": 69, "velocity": 99, "channel": 0}, {"type": "note_off", "time": 131, "note": 69, "velocity": 99, "channel": 0}, {"type": "note_on", "time": 13, "note": 64, "velocity": 101, "channel": 0}, {"type": "note_off", "time": 145, "note": 64, "velocity": 101, "channel": 0}, {"type": "note_on", "time": 13, "note": 65, "velocity": 97, "channel": 0}, {"type": "note_off", "time": 101, "note": 65, "velocity": 97, "channel": 0}, {"type": "note_on", "time": 0, "note": 71, "velocity": 98, "channel": 0}, {"type": "note_off", "time": 90, "note": 71, "velocity": 98, "channel": 0}, {"type": "note_on", "time": 174, "note": 65, "velocity": 92, "channel": 0}, {"type": "note_off", "time": 180, "note": 65, "velocity": 92, "channel": 0}, {"type": "note_on", "time": 26, "note": 66, "velocity": 90, "channel": 0}, {"type": "note_off", "time": 115, "note": 66, "velocity": 90, "channel": 0}, {"type": "note_on", "time": 24, "note": 70, "velocity": 102, "channel": 0}, {"type": "note_off", "time": 263, "note": 70, "velocity": 102, "channel": 0}, {"type": "note_on", "time": 41, "note": 67, "velocity": 99, "channel": 0}, {"type": "note_off", "time": 128, "note": 67, "velocity": 99, "channel": 0}, {"type": "note_on", "time": 8, "note": 68, "velocity": 104, "channel": 0}, {"type": "note_off", "time": 191, "note": 68, "velocity": 104, "channel": 0}, {"type": "note_on", "time": 8, "note": 67, "velocity": 99, "channel": 0}, {"type": "note_off", "time": 87, "note": 67, "velocity": 99, "channel": 0}, {"type": "note_on", "time": 21, "note": 70, "velocity": 102, "channel": 0}, {"type": "note_off", "time": 117, "note": 70, "velocity": 102, "channel": 0}, {"type": "note_on", "time": 19, "note": 71, "velocity": 97, "channel": 0}, {"type": "note_off", "time": 153, "note": 71, "velocity": 97, "channel": 0}, {"type": "note_on", "time": 63, "note": 75, "velocity": 80, "channel": 0}, {"type": "note_off", "time": 85, "note": 75, "velocity": 80, "channel": 0}, {"type": "note_on", "time": 163, "note": 78, "velocity": 99, "channel": 0}, {"type": "note_off", "time": 488, "note": 78, "velocity": 99, "channel": 0}, {"type": "note_on", "time": 95, "note": 75, "velocity": 105, "channel": 0}, {"type": "note_off", "time": 196, "note": 75, "velocity": 105, "channel": 0}, {"type": "note_on", "time": 18, "note": 73, "velocity": 99, "channel": 0}, {"type": "note_off", "time": 131, "note": 73, "velocity": 99, "channel": 0}, {"type": "note_on", "time": 12, "note": 69, "velocity": 100, "channel": 0}, {"type": "note_off", "time": 186, "note": 69, "velocity": 100, "channel": 0}, {"type": "note_on", "time": 9, "note": 66, "velocity": 103, "channel": 0}, {"type": "note_off", "time": 200, "note": 66, "velocity": 103, "channel": 0}, {"type": "note_on", "time": 1411, "note": 78, "velocity": 74, "channel": 0}, {"type": "note_off", "time": 165, "note": 78, "velocity": 74, "channel": 0}, {"type": "note_on", "time": 15, "note": 79, "velocity": 107, "channel": 0}, {"type": "note_off", "time": 115, "note": 79, "velocity": 107, "channel": 0}, {"type": "note_on", "time": 12, "note": 80, "velocity": 102, "channel": 0}, {"type": "note_off", "time": 244, "note": 80, "velocity": 102, "channel": 0}, {"type": "note_on", "time": 8, "note": 79, "velocity": 103, "channel": 0}, {"type": "note_off", "time": 89, "note": 79, "velocity": 103, "channel": 0}, {"type": "note_on", "time": 113, "note": 77, "velocity": 104, "channel": 0}, {"type": "note_off", "time": 235, "note": 77, "velocity": 104, "channel": 0}, {"type": "note_on", "time": 6, "note": 78, "velocity": 97, "channel": 0}, {"type": "note_off", "time": 113, "note": 78, "velocity": 97, "channel": 0}, {"type": "note_on", "time": 111, "note": 77, "velocity": 103, "channel": 0}, {"type": "note_off", "time": 130, "note": 77, "velocity": 103, "channel": 0}, {"type": "note_on", "time": 6, "note": 76, "velocity": 96, "channel": 0}, {"type": "note_off", "time": 174, "note": 76, "velocity": 96, "channel": 0}, {"type": "note_on", "time": 33, "note": 75, "velocity": 106, "channel": 0}, {"type": "note_off", "time": 430, "note": 75, "velocity": 106, "channel": 0}, {"type": "note_on", "time": 18, "note": 71, "velocity": 106, "channel": 0}, {"type": "note_off", "time": 131, "note": 71, "velocity": 106, "channel": 0}, {"type": "note_on", "time": 173, "note": 67, "velocity": 100, "channel": 0}, {"type": "note_off", "time": 150, "note": 67, "velocity": 100, "channel": 0}, {"type": "note_on", "time": 127, "note": 71, "velocity": 111, "channel": 0}, {"type": "note_off", "time": 262, "note": 71, "velocity": 111, "channel": 0}, {"type": "note_on", "time": 11, "note": 67, "velocity": 106, "channel": 0}, {"type": "note_off", "time": 239, "note": 67, "velocity": 106, "channel": 0}, {"type": "note_on", "time": 15, "note": 66, "velocity": 103, "channel": 0}, {"type": "note_off", "time": 177, "note": 66, "velocity": 103, "channel": 0}, {"type": "note_on", "time": 200, "note": 58, "velocity": 105, "channel": 0}, {"type": "note_off", "time": 181, "note": 58, "velocity": 105, "channel": 0}, {"type": "note_on", "time": 30, "note": 66, "velocity": 105, "channel": 0}, {"type": "note_off", "time": 141, "note": 66, "velocity": 105, "channel": 0}, {"type": "note_on", "time": 4, "note": 65, "velocity": 96, "channel": 0}, {"type": "note_off", "time": 220, "note": 65, "velocity": 96, "channel": 0}, {"type": "note_on", "time": 8, "note": 69, "velocity": 73, "channel": 0}, {"type": "note_off", "time": 212, "note": 69, "velocity": 73, "channel": 0}, {"type": "note_on", "time": 7, "note": 65, "velocity": 109, "channel": 0}, {"type": "note_off", "time": 170, "note": 65, "velocity": 109, "channel": 0}, {"type": "note_on", "time": 48, "note": 63, "velocity": 100, "channel": 0}, {"type": "note_off", "time": 127, "note": 63, "velocity": 100, "channel": 0}, {"type": "note_on", "time": 19, "note": 64, "velocity": 111, "channel": 0}, {"type": "note_off", "time": 223, "note": 64, "velocity": 111, "channel": 0}, {"type": "note_on", "time": 39, "note": 61, "velocity": 104, "channel": 0}, {"type": "note_off", "time": 211, "note": 61, "velocity": 104, "channel": 0}, {"type": "note_on", "time": 4, "note": 58, "velocity": 102, "channel": 0}, {"type": "note_off", "time": 188, "note": 58, "velocity": 102, "channel": 0}, {"type": "note_on", "time": 88, "note": 52, "velocity": 93, "channel": 0}, {"type": "note_off", "time": 144, "note": 52, "velocity": 93, "channel": 0}, {"type": "note_on", "time": 37, "note": 57, "velocity": 101, "channel": 0}, {"type": "note_off", "time": 131, "note": 57, "velocity": 101, "channel": 0}, {"type": "note_on", "time": 24, "note": 63, "velocity": 112, "channel": 0}, {"type": "note_off", "time": 241, "note": 63, "velocity": 112, "channel": 0}, {"type": "note_on", "time": 20, "note": 58, "velocity": 96, "channel": 0}, {"type": "note_off", "time": 194, "note": 58, "velocity": 96, "channel": 0}, {"type": "note_on", "time": 3, "note": 54, "velocity": 97, "channel": 0}, {"type": "note_off", "time": 137, "note": 54, "velocity": 97, "channel": 0}, {"type": "note_on", "time": 38, "note": 59, "velocity": 102, "channel": 0}, {"type": "note_off", "time": 199, "note": 59, "velocity": 102, "channel": 0}, {"type": "note_on", "time": 0, "note": 67, "velocity": 103, "channel": 0}, {"type": "note_off", "time": 167, "note": 67, "velocity": 103, "channel": 0}, {"type": "note_on", "time": 7, "note": 62, "velocity": 111, "channel": 0}, {"type": "note_off", "time": 254, "note": 62, "velocity": 111, "channel": 0}, {"type": "note_on", "time": 16, "note": 59, "velocity": 90, "channel": 0}, {"type": "note_off", "time": 140, "note": 59, "velocity": 90, "channel": 0}, {"type": "note_on", "time": 8, "note": 61, "velocity": 105, "channel": 0}, {"type": "note_off", "time": 212, "note": 61, "velocity": 105, "channel": 0}, {"type": "note_on", "time": 84, "note": 69, "velocity": 107, "channel": 0}, {"type": "note_off", "time": 140, "note": 69, "velocity": 107, "channel": 0}, {"type": "note_on", "time": 5, "note": 66, "velocity": 105, "channel": 0}, {"type": "note_off", "time": 198, "note": 66, "velocity": 105, "channel": 0}, {"type": "note_on", "time": 5, "note": 61, "velocity": 96, "channel": 0}, {"type": "note_off", "time": 207, "note": 61, "velocity": 96, "channel": 0}, {"type": "note_on", "time": 7, "note": 64, "velocity": 113, "channel": 0}, {"type": "note_off", "time": 177, "note": 64, "velocity": 113, "channel": 0}, {"type": "note_on", "time": 75, "note": 71, "velocity": 98, "channel": 0}, {"type": "note_off", "time": 189, "note": 71, "velocity": 98, "channel": 0}, {"type": "note_on", "time": 0, "note": 68, "velocity": 105, "channel": 0}, {"type": "note_off", "time": 222, "note": 68, "velocity": 105, "channel": 0}, {"type": "note_on", "time": 16, "note": 64, "velocity": 96, "channel": 0}, {"type": "note_off", "time": 92, "note": 64, "velocity": 96, "channel": 0}, {"type": "note_on", "time": 69, "note": 66, "velocity": 96, "channel": 0}, {"type": "note_off", "time": 219, "note": 66, "velocity": 96, "channel": 0}, {"type": "note_on", "time": 27, "note": 74, "velocity": 97, "channel": 0}, {"type": "note_off", "time": 158, "note": 74, "velocity": 97, "channel": 0}, {"type": "note_on", "time": 6, "note": 70, "velocity": 103, "channel": 0}, {"type": "note_off", "time": 172, "note": 70, "velocity": 103, "channel": 0}, {"type": "note_on", "time": 95, "note": 66, "velocity": 88, "channel": 0}, {"type": "note_off", "time": 146, "note": 66, "velocity": 88, "channel": 0}, {"type": "note_on", "time": 7, "note": 68, "velocity": 101, "channel": 0}, {"type": "note_off", "time": 327, "note": 68, "velocity": 101, "channel": 0}, {"type": "note_on", "time": 1469, "note": 68, "velocity": 110, "channel": 0}, {"type": "note_off", "time": 435, "note": 68, "velocity": 110, "channel": 0}, {"type": "note_on", "time": 298, "note": 68, "velocity": 111, "channel": 0}, {"type": "note_off", "time": 227, "note": 68, "velocity": 111, "channel": 0}, {"type": "note_on", "time": 198, "note": 65, "velocity": 108, "channel": 0}, {"type": "note_off", "time": 200, "note": 65, "velocity": 108, "channel": 0}, {"type": "note_on", "time": 196, "note": 69, "velocity": 99, "channel": 0}, {"type": "note_off", "time": 165, "note": 69, "velocity": 99, "channel": 0}, {"type": "note_on", "time": 15, "note": 68, "velocity": 105, "channel": 0}, {"type": "note_off", "time": 111, "note": 68, "velocity": 105, "channel": 0}, {"type": "note_on", "time": 10, "note": 67, "velocity": 108, "channel": 0}, {"type": "note_off", "time": 137, "note": 67, "velocity": 108, "channel": 0}, {"type": "note_on", "time": 75, "note": 63, "velocity": 106, "channel": 0}, {"type": "note_off", "time": 135, "note": 63, "velocity": 106, "channel": 0}, {"type": "note_on", "time": 65, "note": 68, "velocity": 110, "channel": 0}, {"type": "note_off", "time": 154, "note": 68, "velocity": 110, "channel": 0}, {"type": "note_on", "time": 12, "note": 66, "velocity": 104, "channel": 0}, {"type": "note_off", "time": 215, "note": 66, "velocity": 104, "channel": 0}, {"type": "note_on", "time": 30, "note": 62, "velocity": 111, "channel": 0}, {"type": "note_off", "time": 235, "note": 62, "velocity": 111, "channel": 0}, {"type": "note_on", "time": 15, "note": 58, "velocity": 97, "channel": 0}, {"type": "note_off", "time": 117, "note": 58, "velocity": 97, "channel": 0}, {"type": "note_on", "time": 258, "note": 63, "velocity": 115, "channel": 0}, {"type": "note_off", "time": 159, "note": 63, "velocity": 115, "channel": 0}, {"type": "note_on", "time": 258, "note": 69, "velocity": 110, "channel": 0}, {"type": "note_off", "time": 205, "note": 69, "velocity": 110, "channel": 0}, {"type": "note_on", "time": 231, "note": 68, "velocity": 108, "channel": 0}, {"type": "note_off", "time": 220, "note": 68, "velocity": 108, "channel": 0}, {"type": "note_on", "time": 207, "note": 62, "velocity": 114, "channel": 0}, {"type": "note_off", "time": 135, "note": 62, "velocity": 114, "channel": 0}, {"type": "note_on", "time": 89, "note": 68, "velocity": 108, "channel": 0}, {"type": "note_off", "time": 167, "note": 68, "velocity": 108, "channel": 0}, {"type": "note_on", "time": 7, "note": 66, "velocity": 102, "channel": 0}, {"type": "note_off", "time": 172, "note": 66, "velocity": 102, "channel": 0}, {"type": "note_on", "time": 75, "note": 63, "velocity": 105, "channel": 0}, {"type": "note_off", "time": 189, "note": 63, "velocity": 105, "channel": 0}, {"type": "note_on", "time": 12, "note": 58, "velocity": 97, "channel": 0}, {"type": "note_off", "time": 159, "note": 58, "velocity": 97, "channel": 0}, {"type": "note_on", "time": 248, "note": 62, "velocity": 109, "channel": 0}, {"type": "note_off", "time": 183, "note": 62, "velocity": 109, "channel": 0}, {"type": "note_on", "time": 229, "note": 69, "velocity": 109, "channel": 0}, {"type": "note_off", "time": 200, "note": 69, "velocity": 109, "channel": 0}, {"type": "note_on", "time": 232, "note": 63, "velocity": 112, "channel": 0}, {"type": "note_off", "time": 226, "note": 63, "velocity": 112, "channel": 0}, {"type": "note_on", "time": 195, "note": 68, "velocity": 107, "channel": 0}, {"type": "note_off", "time": 248, "note": 68, "velocity": 107, "channel": 0}, {"type": "note_on", "time": 540, "note": 62, "velocity": 107, "channel": 0}, {"type": "note_off", "time": 262, "note": 62, "velocity": 107, "channel": 0}, {"type": "note_on", "time": 38, "note": 57, "velocity": 97, "channel": 0}, {"type": "note_off", "time": 122, "note": 57, "velocity": 97, "channel": 0}, {"type": "note_on", "time": 33, "note": 69, "velocity": 96, "channel": 0}, {"type": "note_off", "time": 88, "note": 69, "velocity": 96, "channel": 0}, {"type": "note_on", "time": 8, "note": 68, "velocity": 102, "channel": 0}, {"type": "note_off", "time": 87, "note": 68, "velocity": 102, "channel": 0}, {"type": "note_on", "time": 77, "note": 63, "velocity": 112, "channel": 0}, {"type": "note_off", "time": 181, "note": 63, "velocity": 112, "channel": 0}, {"type": "note_on", "time": 72, "note": 68, "velocity": 93, "channel": 0}, {"type": "note_off", "time": 244, "note": 68, "velocity": 93, "channel": 0}, {"type": "note_on", "time": 86, "note": 62, "velocity": 108, "channel": 0}, {"type": "note_off", "time": 261, "note": 62, "velocity": 108, "channel": 0}, {"type": "note_on", "time": 191, "note": 68, "velocity": 103, "channel": 0}, {"type": "note_off", "time": 293, "note": 68, "velocity": 103, "channel": 0}, {"type": "note_on", "time": 105, "note": 63, "velocity": 114, "channel": 0}, {"type": "note_off", "time": 257, "note": 63, "velocity": 114, "channel": 0}, {"type": "note_on", "time": 151, "note": 69, "velocity": 104, "channel": 0}, {"type": "note_off", "time": 249, "note": 69, "velocity": 104, "channel": 0}, {"type": "note_on", "time": 43, "note": 68, "velocity": 107, "channel": 0}, {"type": "note_off", "time": 262, "note": 68, "velocity": 107, "channel": 0}, {"type": "note_on", "time": 54, "note": 63, "velocity": 98, "channel": 0}, {"type": "note_off", "time": 254, "note": 63, "velocity": 98, "channel": 0}, {"type": "note_on", "time": 61, "note": 56, "velocity": 96, "channel": 0}, {"type": "note_off", "time": 104, "note": 56, "velocity": 96, "channel": 0}, {"type": "note_on", "time": 15, "note": 57, "velocity": 69, "channel": 0}, {"type": "note_off", "time": 185, "note": 57, "velocity": 69, "channel": 0}, {"type": "note_on", "time": 27, "note": 62, "velocity": 108, "channel": 0}, {"type": "note_off", "time": 347, "note": 62, "velocity": 108, "channel": 0}, {"type": "note_on", "time": 522, "note": 68, "velocity": 106, "channel": 0}, {"type": "note_off", "time": 197, "note": 68, "velocity": 106, "channel": 0}, {"type": "note_on", "time": 186, "note": 63, "velocity": 113, "channel": 0}, {"type": "note_off", "time": 181, "note": 63, "velocity": 113, "channel": 0}, {"type": "note_on", "time": 60, "note": 69, "velocity": 103, "channel": 0}, {"type": "note_off", "time": 196, "note": 69, "velocity": 103, "channel": 0}, {"type": "note_on", "time": 8, "note": 67, "velocity": 104, "channel": 0}, {"type": "note_off", "time": 168, "note": 67, "velocity": 104, "channel": 0}, {"type": "note_on", "time": 41, "note": 63, "velocity": 110, "channel": 0}, {"type": "note_off", "time": 167, "note": 63, "velocity": 110, "channel": 0}, {"type": "note_on", "time": 63, "note": 58, "velocity": 97, "channel": 0}, {"type": "note_off", "time": 227, "note": 58, "velocity": 97, "channel": 0}, {"type": "note_on", "time": 46, "note": 55, "velocity": 74, "channel": 0}, {"type": "note_off", "time": 115, "note": 55, "velocity": 74, "channel": 0}, {"type": "note_on", "time": 1, "note": 62, "velocity": 111, "channel": 0}, {"type": "note_off", "time": 242, "note": 62, "velocity": 111, "channel": 0}, {"type": "note_on", "time": 165, "note": 73, "velocity": 98, "channel": 0}, {"type": "note_off", "time": 244, "note": 73, "velocity": 98, "channel": 0}, {"type": "note_on", "time": 200, "note": 62, "velocity": 110, "channel": 0}, {"type": "note_off", "time": 213, "note": 62, "velocity": 110, "channel": 0}, {"type": "note_on", "time": 606, "note": 71, "velocity": 109, "channel": 0}, {"type": "note_off", "time": 149, "note": 71, "velocity": 109, "channel": 0}, {"type": "note_on", "time": 94, "note": 68, "velocity": 104, "channel": 0}, {"type": "note_off", "time": 76, "note": 68, "velocity": 104, "channel": 0}, {"type": "note_on", "time": 5, "note": 66, "velocity": 100, "channel": 0}, {"type": "note_off", "time": 69, "note": 66, "velocity": 100, "channel": 0}, {"type": "note_on", "time": 6, "note": 63, "velocity": 110, "channel": 0}, {"type": "note_off", "time": 170, "note": 63, "velocity": 110, "channel": 0}, {"type": "note_on", "time": 82, "note": 69, "velocity": 104, "channel": 0}, {"type": "note_off", "time": 179, "note": 69, "velocity": 104, "channel": 0}, {"type": "note_on", "time": 216, "note": 62, "velocity": 114, "channel": 0}, {"type": "note_off", "time": 181, "note": 62, "velocity": 114, "channel": 0}, {"type": "note_on", "time": 226, "note": 56, "velocity": 101, "channel": 0}, {"type": "note_off", "time": 179, "note": 56, "velocity": 101, "channel": 0}, {"type": "note_on", "time": 195, "note": 63, "velocity": 112, "channel": 0}, {"type": "note_off", "time": 171, "note": 63, "velocity": 112, "channel": 0}, {"type": "note_on", "time": 14, "note": 57, "velocity": 93, "channel": 0}, {"type": "note_off", "time": 231, "note": 57, "velocity": 93, "channel": 0}, {"type": "note_on", "time": 87, "note": 53, "velocity": 82, "channel": 0}, {"type": "note_off", "time": 65, "note": 53, "velocity": 82, "channel": 0}, {"type": "note_on", "time": 48, "note": 62, "velocity": 110, "channel": 0}, {"type": "note_off", "time": 159, "note": 62, "velocity": 110, "channel": 0}, {"type": "note_on", "time": 71, "note": 59, "velocity": 96, "channel": 0}, {"type": "note_off", "time": 113, "note": 59, "velocity": 96, "channel": 0}, {"type": "note_on", "time": 16, "note": 63, "velocity": 108, "channel": 0}, {"type": "note_off", "time": 221, "note": 63, "velocity": 108, "channel": 0}, {"type": "note_on", "time": 250, "note": 68, "velocity": 103, "channel": 0}, {"type": "note_off", "time": 239, "note": 68, "velocity": 103, "channel": 0}, {"type": "note_on", "time": 592, "note": 62, "velocity": 111, "channel": 0}, {"type": "note_off", "time": 193, "note": 62, "velocity": 111, "channel": 0}, {"type": "note_on", "time": 31, "note": 69, "velocity": 99, "channel": 0}, {"type": "note_off", "time": 131, "note": 69, "velocity": 99, "channel": 0}, {"type": "note_on", "time": 52, "note": 63, "velocity": 107, "channel": 0}, {"type": "note_off", "time": 205, "note": 63, "velocity": 107, "channel": 0}, {"type": "note_on", "time": 40, "note": 61, "velocity": 103, "channel": 0}, {"type": "note_off", "time": 187, "note": 61, "velocity": 103, "channel": 0}, {"type": "note_on", "time": 777, "note": 59, "velocity": 98, "channel": 0}, {"type": "note_off", "time": 198, "note": 59, "velocity": 98, "channel": 0}, {"type": "note_on", "time": 22, "note": 53, "velocity": 93, "channel": 0}, {"type": "note_off", "time": 162, "note": 53, "velocity": 93, "channel": 0}, {"type": "note_on", "time": 30, "note": 66, "velocity": 96, "channel": 0}, {"type": "note_off", "time": 166, "note": 66, "velocity": 96, "channel": 0}, {"type": "note_on", "time": 34, "note": 69, "velocity": 103, "channel": 0}, {"type": "note_off", "time": 216, "note": 69, "velocity": 103, "channel": 0}, {"type": "note_on", "time": 8, "note": 67, "velocity": 92, "channel": 0}, {"type": "note_off", "time": 182, "note": 67, "velocity": 92, "channel": 0}, {"type": "note_on", "time": 15, "note": 68, "velocity": 87, "channel": 0}, {"type": "note_off", "time": 129, "note": 68, "velocity": 87, "channel": 0}, {"type": "note_on", "time": 43, "note": 69, "velocity": 101, "channel": 0}, {"type": "note_off", "time": 192, "note": 69, "velocity": 101, "channel": 0}, {"type": "note_on", "time": 27, "note": 68, "velocity": 101, "channel": 0}, {"type": "note_off", "time": 197, "note": 68, "velocity": 101, "channel": 0}, {"type": "note_on", "time": 7, "note": 67, "velocity": 102, "channel": 0}, {"type": "note_off", "time": 219, "note": 67, "velocity": 102, "channel": 0}, {"type": "note_on", "time": 8, "note": 66, "velocity": 102, "channel": 0}, {"type": "note_off", "time": 185, "note": 66, "velocity": 102, "channel": 0}, {"type": "note_on", "time": 17, "note": 65, "velocity": 101, "channel": 0}, {"type": "note_off", "time": 150, "note": 65, "velocity": 101, "channel": 0}, {"type": "note_on", "time": 8, "note": 64, "velocity": 105, "channel": 0}, {"type": "note_off", "time": 196, "note": 64, "velocity": 105, "channel": 0}, {"type": "note_on", "time": 7, "note": 63, "velocity": 110, "channel": 0}, {"type": "note_off", "time": 231, "note": 63, "velocity": 110, "channel": 0}, {"type": "note_on", "time": 27, "note": 65, "velocity": 106, "channel": 0}, {"type": "note_off", "time": 158, "note": 65, "velocity": 106, "channel": 0}, {"type": "note_on", "time": 11, "note": 67, "velocity": 102, "channel": 0}, {"type": "note_off", "time": 185, "note": 67, "velocity": 102, "channel": 0}, {"type": "note_on", "time": 3, "note": 70, "velocity": 96, "channel": 0}, {"type": "note_off", "time": 177, "note": 70, "velocity": 96, "channel": 0}, {"type": "note_on", "time": 11, "note": 64, "velocity": 103, "channel": 0}, {"type": "note_off", "time": 246, "note": 64, "velocity": 103, "channel": 0}, {"type": "note_on", "time": 22, "note": 66, "velocity": 96, "channel": 0}, {"type": "note_off", "time": 164, "note": 66, "velocity": 96, "channel": 0}, {"type": "note_on", "time": 5, "note": 68, "velocity": 99, "channel": 0}, {"type": "note_off", "time": 184, "note": 68, "velocity": 99, "channel": 0}, {"type": "note_on", "time": 24, "note": 70, "velocity": 101, "channel": 0}, {"type": "note_off", "time": 209, "note": 70, "velocity": 101, "channel": 0}, {"type": "note_on", "time": 15, "note": 66, "velocity": 95, "channel": 0}, {"type": "note_off", "time": 271, "note": 66, "velocity": 95, "channel": 0}, {"type": "note_on", "time": 20, "note": 68, "velocity": 89, "channel": 0}, {"type": "note_off", "time": 111, "note": 68, "velocity": 89, "channel": 0}, {"type": "note_on", "time": 11, "note": 70, "velocity": 101, "channel": 0}, {"type": "note_off", "time": 177, "note": 70, "velocity": 101, "channel": 0}, {"type": "note_on", "time": 7, "note": 73, "velocity": 99, "channel": 0}, {"type": "note_off", "time": 239, "note": 73, "velocity": 99, "channel": 0}, {"type": "note_on", "time": 31, "note": 72, "velocity": 97, "channel": 0}, {"type": "note_off", "time": 197, "note": 72, "velocity": 97, "channel": 0}, {"type": "note_on", "time": 16, "note": 68, "velocity": 104, "channel": 0}, {"type": "note_off", "time": 136, "note": 68, "velocity": 104, "channel": 0}, {"type": "note_on", "time": 38, "note": 64, "velocity": 106, "channel": 0}, {"type": "note_off", "time": 225, "note": 64, "velocity": 106, "channel": 0}, {"type": "note_on", "time": 59, "note": 60, "velocity": 87, "channel": 0}, {"type": "note_off", "time": 65, "note": 60, "velocity": 87, "channel": 0}, {"type": "note_on", "time": 89, "note": 65, "velocity": 96, "channel": 0}, {"type": "note_off", "time": 792, "note": 65, "velocity": 96, "channel": 0}, {"type": "note_on", "time": 64, "note": 68, "velocity": 96, "channel": 0}, {"type": "note_off", "time": 207, "note": 68, "velocity": 96, "channel": 0}, {"type": "note_on", "time": 45, "note": 63, "velocity": 113, "channel": 0}, {"type": "note_off", "time": 260, "note": 63, "velocity": 113, "channel": 0}, {"type": "note_on", "time": 1386, "note": 51, "velocity": 104, "channel": 0}, {"type": "note_off", "time": 126, "note": 51, "velocity": 104, "channel": 0}, {"type": "note_on", "time": 4, "note": 47, "velocity": 102, "channel": 0}, {"type": "note_off", "time": 151, "note": 47, "velocity": 102, "channel": 0}, {"type": "note_on", "time": 10, "note": 51, "velocity": 102, "channel": 0}, {"type": "note_off", "time": 118, "note": 51, "velocity": 102, "channel": 0}, {"type": "note_on", "time": 15, "note": 58, "velocity": 102, "channel": 0}, {"type": "note_off", "time": 142, "note": 58, "velocity": 102, "channel": 0}, {"type": "note_on", "time": 24, "note": 53, "velocity": 100, "channel": 0}, {"type": "note_off", "time": 680, "note": 53, "velocity": 100, "channel": 0}, {"type": "note_on", "time": 6, "note": 48, "velocity": 100, "channel": 0}, {"type": "note_off", "time": 93, "note": 48, "velocity": 100, "channel": 0}, {"type": "note_on", "time": 122, "note": 56, "velocity": 102, "channel": 0}, {"type": "note_off", "time": 210, "note": 56, "velocity": 102, "channel": 0}, {"type": "note_on", "time": 11, "note": 51, "velocity": 109, "channel": 0}, {"type": "note_off", "time": 253, "note": 51, "velocity": 109, "channel": 0}, {"type": "note_on", "time": 2203, "note": 45, "velocity": 109, "channel": 0}, {"type": "note_off", "time": 122, "note": 45, "velocity": 109, "channel": 0}, {"type": "note_on", "time": 8, "note": 51, "velocity": 106, "channel": 0}, {"type": "note_off", "time": 176, "note": 51, "velocity": 106, "channel": 0}, {"type": "note_on", "time": 17, "note": 56, "velocity": 103, "channel": 0}, {"type": "note_off", "time": 127, "note": 56, "velocity": 103, "channel": 0}, {"type": "note_on", "time": 0, "note": 58, "velocity": 105, "channel": 0}, {"type": "note_off", "time": 104, "note": 58, "velocity": 105, "channel": 0}, {"type": "note_on", "time": 31, "note": 50, "velocity": 101, "channel": 0}, {"type": "note_off", "time": 250, "note": 50, "velocity": 101, "channel": 0}, {"type": "note_on", "time": 56, "note": 54, "velocity": 101, "channel": 0}, {"type": "note_off", "time": 131, "note": 54, "velocity": 101, "channel": 0}, {"type": "note_on", "time": 15, "note": 58, "velocity": 104, "channel": 0}, {"type": "note_off", "time": 168, "note": 58, "velocity": 104, "channel": 0}, {"type": "note_on", "time": 76, "note": 62, "velocity": 112, "channel": 0}, {"type": "note_off", "time": 87, "note": 62, "velocity": 112, "channel": 0}, {"type": "note_on", "time": 106, "note": 64, "velocity": 106, "channel": 0}, {"type": "note_off", "time": 111, "note": 64, "velocity": 106, "channel": 0}, {"type": "note_on", "time": 11, "note": 61, "velocity": 105, "channel": 0}, {"type": "note_off", "time": 111, "note": 61, "velocity": 105, "channel": 0}, {"type": "note_on", "time": 15, "note": 59, "velocity": 93, "channel": 0}, {"type": "note_off", "time": 81, "note": 59, "velocity": 93, "channel": 0}, {"type": "note_on", "time": 26, "note": 57, "velocity": 94, "channel": 0}, {"type": "note_off", "time": 73, "note": 57, "velocity": 94, "channel": 0}, {"type": "note_on", "time": 11, "note": 54, "velocity": 94, "channel": 0}, {"type": "note_off", "time": 231, "note": 54, "velocity": 94, "channel": 0}, {"type": "note_on", "time": 8, "note": 59, "velocity": 103, "channel": 0}, {"type": "note_off", "time": 126, "note": 59, "velocity": 103, "channel": 0}, {"type": "note_on", "time": 23, "note": 51, "velocity": 103, "channel": 0}, {"type": "note_off", "time": 235, "note": 51, "velocity": 103, "channel": 0}, {"type": "note_on", "time": 52, "note": 52, "velocity": 94, "channel": 0}, {"type": "note_off", "time": 173, "note": 52, "velocity": 94, "channel": 0}, {"type": "note_on", "time": 13, "note": 54, "velocity": 98, "channel": 0}, {"type": "note_off", "time": 183, "note": 54, "velocity": 98, "channel": 0}, {"type": "note_on", "time": 18, "note": 59, "velocity": 100, "channel": 0}, {"type": "note_off", "time": 221, "note": 59, "velocity": 100, "channel": 0}, {"type": "note_on", "time": 4, "note": 53, "velocity": 105, "channel": 0}, {"type": "note_off", "time": 145, "note": 53, "velocity": 105, "channel": 0}, {"type": "note_on", "time": 177, "note": 54, "velocity": 100, "channel": 0}, {"type": "note_off", "time": 68, "note": 54, "velocity": 100, "channel": 0}, {"type": "note_on", "time": 8, "note": 58, "velocity": 105, "channel": 0}, {"type": "note_off", "time": 152, "note": 58, "velocity": 105, "channel": 0}, {"type": "note_on", "time": 25, "note": 55, "velocity": 87, "channel": 0}, {"type": "note_off", "time": 119, "note": 55, "velocity": 87, "channel": 0}, {"type": "note_on", "time": 23, "note": 56, "velocity": 98, "channel": 0}, {"type": "note_off", "time": 240, "note": 56, "velocity": 98, "channel": 0}, {"type": "note_on", "time": 13, "note": 59, "velocity": 100, "channel": 0}, {"type": "note_off", "time": 182, "note": 59, "velocity": 100, "channel": 0}, {"type": "note_on", "time": 10, "note": 62, "velocity": 96, "channel": 0}, {"type": "note_off", "time": 214, "note": 62, "velocity": 96, "channel": 0}, {"type": "note_on", "time": 20, "note": 63, "velocity": 106, "channel": 0}, {"type": "note_off", "time": 123, "note": 63, "velocity": 106, "channel": 0}, {"type": "note_on", "time": 178, "note": 66, "velocity": 105, "channel": 0}, {"type": "note_off", "time": 266, "note": 66, "velocity": 105, "channel": 0}, {"type": "note_on", "time": 869, "note": 67, "velocity": 102, "channel": 0}, {"type": "note_off", "time": 256, "note": 67, "velocity": 102, "channel": 0}, {"type": "note_on", "time": 12, "note": 68, "velocity": 104, "channel": 0}, {"type": "note_off", "time": 155, "note": 68, "velocity": 104, "channel": 0}, {"type": "note_on", "time": 29, "note": 70, "velocity": 104, "channel": 0}, {"type": "note_off", "time": 185, "note": 70, "velocity": 104, "channel": 0}, {"type": "note_on", "time": 27, "note": 68, "velocity": 107, "channel": 0}, {"type": "note_off", "time": 216, "note": 68, "velocity": 107, "channel": 0}, {"type": "note_on", "time": 27, "note": 67, "velocity": 104, "channel": 0}, {"type": "note_off", "time": 158, "note": 67, "velocity": 104, "channel": 0}, {"type": "note_on", "time": 19, "note": 65, "velocity": 102, "channel": 0}, {"type": "note_off", "time": 142, "note": 65, "velocity": 102, "channel": 0}, {"type": "note_on", "time": 111, "note": 66, "velocity": 99, "channel": 0}, {"type": "note_off", "time": 136, "note": 66, "velocity": 99, "channel": 0}, {"type": "note_on", "time": 56, "note": 68, "velocity": 101, "channel": 0}, {"type": "note_off", "time": 238, "note": 68, "velocity": 101, "channel": 0}, {"type": "note_on", "time": 8, "note": 69, "velocity": 97, "channel": 0}, {"type": "note_off", "time": 116, "note": 69, "velocity": 97, "channel": 0}, {"type": "note_on", "time": 71, "note": 60, "velocity": 100, "channel": 0}, {"type": "note_off", "time": 248, "note": 60, "velocity": 100, "channel": 0}, {"type": "note_on", "time": 17, "note": 73, "velocity": 96, "channel": 0}, {"type": "note_off", "time": 141, "note": 73, "velocity": 96, "channel": 0}, {"type": "note_on", "time": 8, "note": 74, "velocity": 102, "channel": 0}, {"type": "note_off", "time": 218, "note": 74, "velocity": 102, "channel": 0}, {"type": "note_on", "time": 17, "note": 71, "velocity": 107, "channel": 0}, {"type": "note_off", "time": 148, "note": 71, "velocity": 107, "channel": 0}, {"type": "note_on", "time": 84, "note": 69, "velocity": 106, "channel": 0}, {"type": "note_off", "time": 156, "note": 69, "velocity": 106, "channel": 0}, {"type": "note_on", "time": 4, "note": 68, "velocity": 95, "channel": 0}, {"type": "note_off", "time": 206, "note": 68, "velocity": 95, "channel": 0}, {"type": "note_on", "time": 9, "note": 70, "velocity": 102, "channel": 0}, {"type": "note_off", "time": 236, "note": 70, "velocity": 102, "channel": 0}, {"type": "note_on", "time": 20, "note": 67, "velocity": 106, "channel": 0}, {"type": "note_off", "time": 213, "note": 67, "velocity": 106, "channel": 0}, {"type": "note_on", "time": 10, "note": 68, "velocity": 93, "channel": 0}, {"type": "note_off", "time": 185, "note": 68, "velocity": 93, "channel": 0}, {"type": "note_on", "time": 12, "note": 71, "velocity": 107, "channel": 0}, {"type": "note_off", "time": 180, "note": 71, "velocity": 107, "channel": 0}, {"type": "note_on", "time": 26, "note": 67, "velocity": 98, "channel": 0}, {"type": "note_off", "time": 168, "note": 67, "velocity": 98, "channel": 0}, {"type": "note_on", "time": 11, "note": 68, "velocity": 101, "channel": 0}, {"type": "note_off", "time": 199, "note": 68, "velocity": 101, "channel": 0}, {"type": "note_on", "time": 13, "note": 69, "velocity": 103, "channel": 0}, {"type": "note_off", "time": 215, "note": 69, "velocity": 103, "channel": 0}, {"type": "note_on", "time": 51, "note": 70, "velocity": 99, "channel": 0}, {"type": "note_off", "time": 147, "note": 70, "velocity": 99, "channel": 0}, {"type": "note_on", "time": 3, "note": 71, "velocity": 108, "channel": 0}, {"type": "note_off", "time": 191, "note": 71, "velocity": 108, "channel": 0}, {"type": "note_on", "time": 5, "note": 72, "velocity": 109, "channel": 0}, {"type": "note_off", "time": 228, "note": 72, "velocity": 109, "channel": 0}, {"type": "note_on", "time": 8, "note": 73, "velocity": 100, "channel": 0}, {"type": "note_off", "time": 201, "note": 73, "velocity": 100, "channel": 0}, {"type": "note_on", "time": 6, "note": 74, "velocity": 102, "channel": 0}, {"type": "note_off", "time": 242, "note": 74, "velocity": 102, "channel": 0}, {"type": "note_on", "time": 9, "note": 75, "velocity": 107, "channel": 0}, {"type": "note_off", "time": 196, "note": 75, "velocity": 107, "channel": 0}, {"type": "note_on", "time": 11, "note": 75, "velocity": 106, "channel": 0}, {"type": "note_off", "time": 185, "note": 75, "velocity": 106, "channel": 0}, {"type": "note_on", "time": 8, "note": 76, "velocity": 108, "channel": 0}, {"type": "note_off", "time": 159, "note": 76, "velocity": 108, "channel": 0}, {"type": "note_on", "time": 7, "note": 77, "velocity": 102, "channel": 0}, {"type": "note_off", "time": 213, "note": 77, "velocity": 102, "channel": 0}, {"type": "note_on", "time": 3, "note": 76, "velocity": 106, "channel": 0}, {"type": "note_off", "time": 196, "note": 76, "velocity": 106, "channel": 0}, {"type": "note_on", "time": 5, "note": 78, "velocity": 106, "channel": 0}, {"type": "note_off", "time": 213, "note": 78, "velocity": 106, "channel": 0}, {"type": "note_on", "time": 1245, "note": 79, "velocity": 108, "channel": 0}, {"type": "note_off", "time": 266, "note": 79, "velocity": 108, "channel": 0}, {"type": "note_on", "time": 21, "note": 80, "velocity": 104, "channel": 0}, {"type": "note_off", "time": 214, "note": 80, "velocity": 104, "channel": 0}, {"type": "note_on", "time": 6, "note": 79, "velocity": 106, "channel": 0}, {"type": "note_off", "time": 212, "note": 79, "velocity": 106, "channel": 0}, {"type": "note_on", "time": 5, "note": 78, "velocity": 99, "channel": 0}, {"type": "note_off", "time": 199, "note": 78, "velocity": 99, "channel": 0}, {"type": "note_on", "time": 3, "note": 77, "velocity": 102, "channel": 0}, {"type": "note_off", "time": 198, "note": 77, "velocity": 102, "channel": 0}, {"type": "note_on", "time": 7, "note": 76, "velocity": 95, "channel": 0}, {"type": "note_off", "time": 132, "note": 76, "velocity": 95, "channel": 0}, {"type": "note_on", "time": 62, "note": 75, "velocity": 99, "channel": 0}, {"type": "note_off", "time": 287, "note": 75, "velocity": 99, "channel": 0}, {"type": "note_on", "time": 25, "note": 74, "velocity": 97, "channel": 0}, {"type": "note_off", "time": 104, "note": 74, "velocity": 97, "channel": 0}, {"type": "note_on", "time": 15, "note": 70, "velocity": 106, "channel": 0}, {"type": "note_off", "time": 171, "note": 70, "velocity": 106, "channel": 0}, {"type": "note_on", "time": 11, "note": 67, "velocity": 107, "channel": 0}, {"type": "note_off", "time": 162, "note": 67, "velocity": 107, "channel": 0}, {"type": "note_on", "time": 269, "note": 70, "velocity": 108, "channel": 0}, {"type": "note_off", "time": 196, "note": 70, "velocity": 108, "channel": 0}, {"type": "note_on", "time": 234, "note": 66, "velocity": 102, "channel": 0}, {"type": "note_off", "time": 192, "note": 66, "velocity": 102, "channel": 0}, {"type": "note_on", "time": 215, "note": 69, "velocity": 87, "channel": 0}, {"type": "note_off", "time": 211, "note": 69, "velocity": 87, "channel": 0}, {"type": "note_on", "time": 200, "note": 65, "velocity": 103, "channel": 0}, {"type": "note_off", "time": 200, "note": 65, "velocity": 103, "channel": 0}, {"type": "note_on", "time": 215, "note": 68, "velocity": 106, "channel": 0}, {"type": "note_off", "time": 208, "note": 68, "velocity": 106, "channel": 0}, {"type": "note_on", "time": 231, "note": 64, "velocity": 106, "channel": 0}, {"type": "note_off", "time": 164, "note": 64, "velocity": 106, "channel": 0}, {"type": "note_on", "time": 184, "note": 67, "velocity": 101, "channel": 0}, {"type": "note_off", "time": 266, "note": 67, "velocity": 101, "channel": 0}, {"type": "note_on", "time": 169, "note": 63, "velocity": 113, "channel": 0}, {"type": "note_off", "time": 273, "note": 63, "velocity": 113, "channel": 0}, {"type": "note_on", "time": 582, "note": 73, "velocity": 99, "channel": 0}, {"type": "note_off", "time": 239, "note": 73, "velocity": 99, "channel": 0}, {"type": "note_on", "time": 48, "note": 71, "velocity": 111, "channel": 0}, {"type": "note_off", "time": 199, "note": 71, "velocity": 111, "channel": 0}, {"type": "note_on", "time": 126, "note": 66, "velocity": 99, "channel": 0}, {"type": "note_off", "time": 223, "note": 66, "velocity": 99, "channel": 0}, {"type": "note_on", "time": 19, "note": 62, "velocity": 111, "channel": 0}, {"type": "note_off", "time": 208, "note": 62, "velocity": 111, "channel": 0}, {"type": "note_on", "time": 220, "note": 55, "velocity": 101, "channel": 0}, {"type": "note_off", "time": 164, "note": 55, "velocity": 101, "channel": 0}, {"type": "note_on", "time": 280, "note": 63, "velocity": 113, "channel": 0}, {"type": "note_off", "time": 179, "note": 63, "velocity": 113, "channel": 0}, {"type": "note_on", "time": 245, "note": 59, "velocity": 99, "channel": 0}, {"type": "note_off", "time": 184, "note": 59, "velocity": 99, "channel": 0}, {"type": "note_on", "time": 268, "note": 72, "velocity": 109, "channel": 0}, {"type": "note_off", "time": 214, "note": 72, "velocity": 109, "channel": 0}, {"type": "note_on", "time": 603, "note": 60, "velocity": 106, "channel": 0}, {"type": "note_off", "time": 99, "note": 60, "velocity": 106, "channel": 0}, {"type": "note_on", "time": 134, "note": 71, "velocity": 110, "channel": 0}, {"type": "note_off", "time": 208, "note": 71, "velocity": 110, "channel": 0}, {"type": "note_on", "time": 218, "note": 66, "velocity": 103, "channel": 0}, {"type": "note_off", "time": 120, "note": 66, "velocity": 103, "channel": 0}, {"type": "note_on", "time": 62, "note": 61, "velocity": 115, "channel": 0}, {"type": "note_off", "time": 130, "note": 61, "velocity": 115, "channel": 0}, {"type": "note_on", "time": 269, "note": 52, "velocity": 98, "channel": 0}, {"type": "note_off", "time": 201, "note": 52, "velocity": 98, "channel": 0}, {"type": "note_on", "time": 231, "note": 59, "velocity": 98, "channel": 0}, {"type": "note_off", "time": 176, "note": 59, "velocity": 98, "channel": 0}, {"type": "note_on", "time": 256, "note": 51, "velocity": 104, "channel": 0}, {"type": "note_off", "time": 215, "note": 51, "velocity": 104, "channel": 0}, {"type": "note_on", "time": 205, "note": 61, "velocity": 104, "channel": 0}, {"type": "note_off", "time": 241, "note": 61, "velocity": 104, "channel": 0}, {"type": "note_on", "time": 631, "note": 62, "velocity": 109, "channel": 0}, {"type": "note_off", "time": 161, "note": 62, "velocity": 109, "channel": 0}, {"type": "note_on", "time": 57, "note": 59, "velocity": 99, "channel": 0}, {"type": "note_off", "time": 170, "note": 59, "velocity": 99, "channel": 0}, {"type": "note_on", "time": 198, "note": 54, "velocity": 104, "channel": 0}, {"type": "note_off", "time": 165, "note": 54, "velocity": 104, "channel": 0}, {"type": "note_on", "time": 16, "note": 49, "velocity": 98, "channel": 0}, {"type": "note_off", "time": 213, "note": 49, "velocity": 98, "channel": 0}, {"type": "note_on", "time": 233, "note": 48, "velocity": 102, "channel": 0}, {"type": "note_off", "time": 187, "note": 48, "velocity": 102, "channel": 0}, {"type": "note_on", "time": 240, "note": 56, "velocity": 103, "channel": 0}, {"type": "note_off", "time": 196, "note": 56, "velocity": 103, "channel": 0}, {"type": "note_on", "time": 236, "note": 47, "velocity": 100, "channel": 0}, {"type": "note_off", "time": 212, "note": 47, "velocity": 100, "channel": 0}, {"type": "note_on", "time": 223, "note": 57, "velocity": 96, "channel": 0}, {"type": "note_off", "time": 193, "note": 57, "velocity": 96, "channel": 0}, {"type": "note_on", "time": 221, "note": 48, "velocity": 100, "channel": 0}, {"type": "note_off", "time": 224, "note": 48, "velocity": 100, "channel": 0}, {"type": "note_on", "time": 7, "note": 49, "velocity": 95, "channel": 0}, {"type": "note_off", "time": 140, "note": 49, "velocity": 95, "channel": 0}, {"type": "note_on", "time": 59, "note": 59, "velocity": 100, "channel": 0}, {"type": "note_off", "time": 148, "note": 59, "velocity": 100, "channel": 0}, {"type": "note_on", "time": 56, "note": 53, "velocity": 97, "channel": 0}, {"type": "note_off", "time": 192, "note": 53, "velocity": 97, "channel": 0}, {"type": "note_on", "time": 5, "note": 54, "velocity": 92, "channel": 0}, {"type": "note_off", "time": 166, "note": 54, "velocity": 92, "channel": 0}, {"type": "note_on", "time": 13, "note": 58, "velocity": 101, "channel": 0}, {"type": "note_off", "time": 251, "note": 58, "velocity": 101, "channel": 0}, {"type": "note_on", "time": 6, "note": 55, "velocity": 91, "channel": 0}, {"type": "note_off", "time": 153, "note": 55, "velocity": 91, "channel": 0}, {"type": "note_on", "time": 7, "note": 56, "velocity": 92, "channel": 0}, {"type": "note_off", "time": 167, "note": 56, "velocity": 92, "channel": 0}, {"type": "note_on", "time": 6, "note": 57, "velocity": 98, "channel": 0}, {"type": "note_off", "time": 153, "note": 57, "velocity": 98, "channel": 0}, {"type": "note_on", "time": 79, "note": 54, "velocity": 99, "channel": 0}, {"type": "note_off", "time": 144, "note": 54, "velocity": 99, "channel": 0}, {"type": "note_on", "time": 8, "note": 50, "velocity": 101, "channel": 0}, {"type": "note_off", "time": 207, "note": 50, "velocity": 101, "channel": 0}, {"type": "note_on", "time": 23, "note": 45, "velocity": 107, "channel": 0}, {"type": "note_off", "time": 206, "note": 45, "velocity": 107, "channel": 0}, {"type": "note_on", "time": 18, "note": 44, "velocity": 111, "channel": 0}, {"type": "note_off", "time": 237, "note": 44, "velocity": 111, "channel": 0}, {"type": "note_on", "time": 612, "note": 59, "velocity": 102, "channel": 0}, {"type": "note_off", "time": 125, "note": 59, "velocity": 102, "channel": 0}, {"type": "note_on", "time": 91, "note": 54, "velocity": 101, "channel": 0}, {"type": "note_off", "time": 185, "note": 54, "velocity": 101, "channel": 0}, {"type": "note_on", "time": 9, "note": 48, "velocity": 97, "channel": 0}, {"type": "note_off", "time": 143, "note": 48, "velocity": 97, "channel": 0}, {"type": "note_on", "time": 42, "note": 58, "velocity": 102, "channel": 0}, {"type": "note_off", "time": 219, "note": 58, "velocity": 102, "channel": 0}, {"type": "note_on", "time": 15, "note": 53, "velocity": 101, "channel": 0}, {"type": "note_off", "time": 199, "note": 53, "velocity": 101, "channel": 0}, {"type": "note_on", "time": 25, "note": 49, "velocity": 92, "channel": 0}, {"type": "note_off", "time": 137, "note": 49, "velocity": 92, "channel": 0}, {"type": "note_on", "time": 10, "note": 60, "velocity": 96, "channel": 0}, {"type": "note_off", "time": 206, "note": 60, "velocity": 96, "channel": 0}, {"type": "note_on", "time": 41, "note": 55, "velocity": 94, "channel": 0}, {"type": "note_off", "time": 155, "note": 55, "velocity": 94, "channel": 0}, {"type": "note_on", "time": 9, "note": 50, "velocity": 94, "channel": 0}, {"type": "note_off", "time": 181, "note": 50, "velocity": 94, "channel": 0}, {"type": "note_on", "time": 9, "note": 59, "velocity": 98, "channel": 0}, {"type": "note_off", "time": 176, "note": 59, "velocity": 98, "channel": 0}, {"type": "note_on", "time": 7, "note": 53, "velocity": 98, "channel": 0}, {"type": "note_off", "time": 259, "note": 53, "velocity": 98, "channel": 0}, {"type": "note_on", "time": 16, "note": 49, "velocity": 90, "channel": 0}, {"type": "note_off", "time": 115, "note": 49, "velocity": 90, "channel": 0}, {"type": "note_on", "time": 41, "note": 58, "velocity": 101, "channel": 0}, {"type": "note_off", "time": 189, "note": 58, "velocity": 101, "channel": 0}, {"type": "note_on", "time": 80, "note": 53, "velocity": 95, "channel": 0}, {"type": "note_off", "time": 137, "note": 53, "velocity": 95, "channel": 0}, {"type": "note_on", "time": 7, "note": 54, "velocity": 94, "channel": 0}, {"type": "note_off", "time": 193, "note": 54, "velocity": 94, "channel": 0}, {"type": "note_on", "time": 15, "note": 59, "velocity": 99, "channel": 0}, {"type": "note_off", "time": 181, "note": 59, "velocity": 99, "channel": 0}, {"type": "note_on", "time": 0, "note": 55, "velocity": 99, "channel": 0}, {"type": "note_off", "time": 231, "note": 55, "velocity": 99, "channel": 0}, {"type": "note_on", "time": 10, "note": 56, "velocity": 91, "channel": 0}, {"type": "note_off", "time": 171, "note": 56, "velocity": 91, "channel": 0}, {"type": "note_on", "time": 6, "note": 59, "velocity": 98, "channel": 0}, {"type": "note_off", "time": 253, "note": 59, "velocity": 98, "channel": 0}, {"type": "note_on", "time": 2, "note": 61, "velocity": 100, "channel": 0}, {"type": "note_off", "time": 125, "note": 61, "velocity": 100, "channel": 0}, {"type": "note_on", "time": 7, "note": 63, "velocity": 110, "channel": 0}, {"type": "note_off", "time": 160, "note": 63, "velocity": 110, "channel": 0}, {"type": "note_on", "time": 67, "note": 66, "velocity": 102, "channel": 0}, {"type": "note_off", "time": 190, "note": 66, "velocity": 102, "channel": 0}, {"type": "note_on", "time": 8, "note": 65, "velocity": 100, "channel": 0}, {"type": "note_off", "time": 208, "note": 65, "velocity": 100, "channel": 0}, {"type": "note_on", "time": 8, "note": 63, "velocity": 104, "channel": 0}, {"type": "note_off", "time": 142, "note": 63, "velocity": 104, "channel": 0}, {"type": "note_on", "time": 21, "note": 62, "velocity": 105, "channel": 0}, {"type": "note_off", "time": 57, "note": 62, "velocity": 105, "channel": 0}, {"type": "note_on", "time": 0, "note": 64, "velocity": 105, "channel": 0}, {"type": "note_off", "time": 111, "note": 64, "velocity": 105, "channel": 0}, {"type": "note_on", "time": 19, "note": 63, "velocity": 95, "channel": 0}, {"type": "note_off", "time": 92, "note": 63, "velocity": 95, "channel": 0}, {"type": "note_on", "time": 7, "note": 60, "velocity": 94, "channel": 0}, {"type": "note_off", "time": 84, "note": 60, "velocity": 94, "channel": 0}, {"type": "note_on", "time": 19, "note": 57, "velocity": 94, "channel": 0}, {"type": "note_off", "time": 289, "note": 57, "velocity": 94, "channel": 0}, {"type": "note_on", "time": 0, "note": 52, "velocity": 75, "channel": 0}, {"type": "note_off", "time": 117, "note": 52, "velocity": 75, "channel": 0}, {"type": "note_on", "time": 2, "note": 56, "velocity": 99, "channel": 0}, {"type": "note_off", "time": 401, "note": 56, "velocity": 99, "channel": 0}, {"type": "note_on", "time": 389, "note": 55, "velocity": 97, "channel": 0}, {"type": "note_off", "time": 283, "note": 55, "velocity": 97, "channel": 0}, {"type": "note_on", "time": 5, "note": 59, "velocity": 93, "channel": 0}, {"type": "note_off", "time": 165, "note": 59, "velocity": 93, "channel": 0}, {"type": "note_on", "time": 27, "note": 62, "velocity": 108, "channel": 0}, {"type": "note_off", "time": 146, "note": 62, "velocity": 108, "channel": 0}, {"type": "note_on", "time": 71, "note": 58, "velocity": 99, "channel": 0}, {"type": "note_on", "time": 179, "note": 62, "velocity": 101, "channel": 0}, {"type": "note_off", "time": 0, "note": 58, "velocity": 99, "channel": 0}, {"type": "note_off", "time": 231, "note": 62, "velocity": 101, "channel": 0}, {"type": "note_on", "time": 23, "note": 65, "velocity": 98, "channel": 0}, {"type": "note_off", "time": 160, "note": 65, "velocity": 98, "channel": 0}, {"type": "note_on", "time": 7, "note": 59, "velocity": 97, "channel": 0}, {"type": "note_off", "time": 194, "note": 59, "velocity": 97, "channel": 0}, {"type": "note_on", "time": 48, "note": 62, "velocity": 104, "channel": 0}, {"type": "note_off", "time": 225, "note": 62, "velocity": 104, "channel": 0}, {"type": "note_on", "time": 8, "note": 65, "velocity": 94, "channel": 0}, {"type": "note_off", "time": 86, "note": 65, "velocity": 94, "channel": 0}, {"type": "note_on", "time": 19, "note": 67, "velocity": 103, "channel": 0}, {"type": "note_off", "time": 169, "note": 67, "velocity": 103, "channel": 0}, {"type": "note_on", "time": 43, "note": 64, "velocity": 95, "channel": 0}, {"type": "note_off", "time": 181, "note": 64, "velocity": 95, "channel": 0}, {"type": "note_on", "time": 12, "note": 66, "velocity": 84, "channel": 0}, {"type": "note_off", "time": 169, "note": 66, "velocity": 84, "channel": 0}, {"type": "note_on", "time": 21, "note": 70, "velocity": 103, "channel": 0}, {"type": "note_off", "time": 275, "note": 70, "velocity": 103, "channel": 0}, {"type": "note_on", "time": 10, "note": 67, "velocity": 94, "channel": 0}, {"type": "note_off", "time": 119, "note": 67, "velocity": 94, "channel": 0}, {"type": "note_on", "time": 16, "note": 68, "velocity": 102, "channel": 0}, {"type": "note_off", "time": 248, "note": 68, "velocity": 102, "channel": 0}, {"type": "note_on", "time": 41, "note": 70, "velocity": 92, "channel": 0}, {"type": "note_off", "time": 123, "note": 70, "velocity": 92, "channel": 0}, {"type": "note_on", "time": 1, "note": 71, "velocity": 111, "channel": 0}, {"type": "note_off", "time": 184, "note": 71, "velocity": 111, "channel": 0}, {"type": "note_on", "time": 56, "note": 75, "velocity": 107, "channel": 0}, {"type": "note_off", "time": 197, "note": 75, "velocity": 107, "channel": 0}, {"type": "note_on", "time": 7, "note": 74, "velocity": 104, "channel": 0}, {"type": "note_off", "time": 133, "note": 74, "velocity": 104, "channel": 0}, {"type": "note_on", "time": 10, "note": 74, "velocity": 86, "channel": 0}, {"type": "note_off", "time": 50, "note": 74, "velocity": 86, "channel": 0}, {"type": "note_on", "time": 5, "note": 71, "velocity": 109, "channel": 0}, {"type": "note_off", "time": 181, "note": 71, "velocity": 109, "channel": 0}, {"type": "note_on", "time": 5, "note": 70, "velocity": 103, "channel": 0}, {"type": "note_off", "time": 178, "note": 70, "velocity": 103, "channel": 0}, {"type": "note_on", "time": 16, "note": 73, "velocity": 97, "channel": 0}, {"type": "note_off", "time": 223, "note": 73, "velocity": 97, "channel": 0}, {"type": "note_on", "time": 11, "note": 72, "velocity": 100, "channel": 0}, {"type": "note_off", "time": 189, "note": 72, "velocity": 100, "channel": 0}, {"type": "note_on", "time": 7, "note": 69, "velocity": 101, "channel": 0}, {"type": "note_off", "time": 225, "note": 69, "velocity": 101, "channel": 0}, {"type": "note_on", "time": 6, "note": 68, "velocity": 99, "channel": 0}, {"type": "note_off", "time": 146, "note": 68, "velocity": 99, "channel": 0}, {"type": "note_on", "time": 11, "note": 71, "velocity": 110, "channel": 0}, {"type": "note_off", "time": 250, "note": 71, "velocity": 110, "channel": 0}, {"type": "note_on", "time": 8, "note": 70, "velocity": 105, "channel": 0}, {"type": "note_off", "time": 231, "note": 70, "velocity": 105, "channel": 0}, {"type": "note_on", "time": 120, "note": 58, "velocity": 105, "channel": 0}, {"type": "note_off", "time": 152, "note": 58, "velocity": 105, "channel": 0}, {"type": "note_on", "time": 0, "note": 69, "velocity": 101, "channel": 0}, {"type": "note_off", "time": 111, "note": 69, "velocity": 101, "channel": 0}, {"type": "note_on", "time": 9, "note": 66, "velocity": 105, "channel": 0}, {"type": "note_off", "time": 150, "note": 66, "velocity": 105, "channel": 0}, {"type": "note_on", "time": 7, "note": 64, "velocity": 109, "channel": 0}, {"type": "note_off", "time": 194, "note": 64, "velocity": 109, "channel": 0}, {"type": "note_on", "time": 312, "note": 65, "velocity": 96, "channel": 0}, {"type": "note_off", "time": 212, "note": 65, "velocity": 96, "channel": 0}, {"type": "note_on", "time": 651, "note": 68, "velocity": 105, "channel": 0}, {"type": "note_off", "time": 143, "note": 68, "velocity": 105, "channel": 0}, {"type": "note_on", "time": 684, "note": 68, "velocity": 105, "channel": 0}, {"type": "note_off", "time": 169, "note": 68, "velocity": 105, "channel": 0}, {"type": "note_on", "time": 676, "note": 68, "velocity": 109, "channel": 0}, {"type": "note_off", "time": 149, "note": 68, "velocity": 109, "channel": 0}, {"type": "note_on", "time": 449, "note": 68, "velocity": 103, "channel": 0}, {"type": "note_off", "time": 148, "note": 68, "velocity": 103, "channel": 0}, {"type": "note_on", "time": 30, "note": 68, "velocity": 103, "channel": 0}, {"type": "note_off", "time": 192, "note": 68, "velocity": 103, "channel": 0}, {"type": "note_on", "time": 256, "note": 80, "velocity": 95, "channel": 0}, {"type": "note_off", "time": 147, "note": 80, "velocity": 95, "channel": 0}, {"type": "note_on", "time": 199, "note": 80, "velocity": 94, "channel": 0}, {"type": "note_off", "time": 125, "note": 80, "velocity": 94, "channel": 0}, {"type": "note_on", "time": 3, "note": 81, "velocity": 97, "channel": 0}, {"type": "note_off", "time": 243, "note": 81, "velocity": 97, "channel": 0}, {"type": "note_on", "time": 8, "note": 82, "velocity": 104, "channel": 0}, {"type": "note_off", "time": 305, "note": 82, "velocity": 104, "channel": 0}, {"type": "note_on", "time": 2262, "note": 68, "velocity": 104, "channel": 0}, {"type": "note_off", "time": 119, "note": 68, "velocity": 104, "channel": 0}, {"type": "note_on", "time": 65, "note": 68, "velocity": 93, "channel": 0}, {"type": "note_off", "time": 162, "note": 68, "velocity": 93, "channel": 0}, {"type": "note_on", "time": 38, "note": 68, "velocity": 106, "channel": 0}, {"type": "note_off", "time": 138, "note": 68, "velocity": 106, "channel": 0}, {"type": "note_on", "time": 61, "note": 68, "velocity": 108, "channel": 0}, {"type": "note_off", "time": 144, "note": 68, "velocity": 108, "channel": 0}, {"type": "note_on", "time": 56, "note": 68, "velocity": 107, "channel": 0}, {"type": "note_off", "time": 146, "note": 68, "velocity": 107, "channel": 0}, {"type": "note_on", "time": 81, "note": 68, "velocity": 107, "channel": 0}, {"type": "note_off", "time": 135, "note": 68, "velocity": 107, "channel": 0}, {"type": "note_on", "time": 77, "note": 68, "velocity": 101, "channel": 0}, {"type": "note_off", "time": 158, "note": 68, "velocity": 101, "channel": 0}, {"type": "note_on", "time": 65, "note": 68, "velocity": 106, "channel": 0}, {"type": "note_off", "time": 162, "note": 68, "velocity": 106, "channel": 0}, {"type": "note_on", "time": 298, "note": 68, "velocity": 109, "channel": 0}, {"type": "note_off", "time": 134, "note": 68, "velocity": 109, "channel": 0}, {"type": "note_on", "time": 258, "note": 68, "velocity": 108, "channel": 0}, {"type": "note_off", "time": 122, "note": 68, "velocity": 108, "channel": 0}, {"type": "note_on", "time": 309, "note": 68, "velocity": 105, "channel": 0}, {"type": "note_off", "time": 403, "note": 68, "velocity": 105, "channel": 0}, {"type": "note_on", "time": 220, "note": 80, "velocity": 109, "channel": 0}, {"type": "note_off", "time": 200, "note": 80, "velocity": 109, "channel": 0}, {"type": "note_on", "time": 248, "note": 82, "velocity": 104, "channel": 0}, {"type": "note_off", "time": 283, "note": 82, "velocity": 104, "channel": 0}, {"type": "note_on", "time": 2491, "note": 83, "velocity": 90, "channel": 0}, {"type": "note_off", "time": 96, "note": 83, "velocity": 90, "channel": 0}, {"type": "note_on", "time": 57, "note": 83, "velocity": 106, "channel": 0}, {"type": "note_off", "time": 129, "note": 83, "velocity": 106, "channel": 0}, {"type": "note_on", "time": 88, "note": 83, "velocity": 106, "channel": 0}, {"type": "note_off", "time": 104, "note": 83, "velocity": 106, "channel": 0}, {"type": "note_on", "time": 59, "note": 83, "velocity": 93, "channel": 0}, {"type": "note_off", "time": 81, "note": 83, "velocity": 93, "channel": 0}, {"type": "note_on", "time": 28, "note": 81, "velocity": 78, "channel": 0}, {"type": "note_off", "time": 81, "note": 81, "velocity": 78, "channel": 0}, {"type": "note_on", "time": 92, "note": 79, "velocity": 91, "channel": 0}, {"type": "note_off", "time": 113, "note": 79, "velocity": 91, "channel": 0}, {"type": "note_on", "time": 709, "note": 82, "velocity": 100, "channel": 0}, {"type": "note_off", "time": 61, "note": 82, "velocity": 100, "channel": 0}, {"type": "note_on", "time": 40, "note": 83, "velocity": 101, "channel": 0}, {"type": "note_off", "time": 150, "note": 83, "velocity": 101, "channel": 0}, {"type": "note_on", "time": 102, "note": 83, "velocity": 107, "channel": 0}, {"type": "note_off", "time": 88, "note": 83, "velocity": 107, "channel": 0}, {"type": "note_on", "time": 129, "note": 83, "velocity": 97, "channel": 0}, {"type": "note_off", "time": 151, "note": 83, "velocity": 97, "channel": 0}, {"type": "note_on", "time": 89, "note": 80, "velocity": 112, "channel": 0}, {"type": "note_off", "time": 94, "note": 80, "velocity": 112, "channel": 0}, {"type": "note_on", "time": 774, "note": 83, "velocity": 88, "channel": 0}, {"type": "note_off", "time": 81, "note": 83, "velocity": 88, "channel": 0}, {"type": "note_on", "time": 75, "note": 83, "velocity": 108, "channel": 0}, {"type": "note_off", "time": 123, "note": 83, "velocity": 108, "channel": 0}, {"type": "note_on", "time": 92, "note": 83, "velocity": 109, "channel": 0}, {"type": "note_off", "time": 135, "note": 83, "velocity": 109, "channel": 0}, {"type": "note_on", "time": 53, "note": 83, "velocity": 105, "channel": 0}, {"type": "note_off", "time": 127, "note": 83, "velocity": 105, "channel": 0}, {"type": "note_on", "time": 69, "note": 83, "velocity": 107, "channel": 0}, {"type": "note_off", "time": 138, "note": 83, "velocity": 107, "channel": 0}, {"type": "note_on", "time": 46, "note": 83, "velocity": 98, "channel": 0}, {"type": "note_off", "time": 150, "note": 83, "velocity": 98, "channel": 0}, {"type": "note_on", "time": 77, "note": 83, "velocity": 103, "channel": 0}, {"type": "note_off", "time": 146, "note": 83, "velocity": 103, "channel": 0}, {"type": "note_on", "time": 92, "note": 83, "velocity": 96, "channel": 0}, {"type": "note_off", "time": 138, "note": 83, "velocity": 96, "channel": 0}, {"type": "note_on", "time": 69, "note": 80, "velocity": 102, "channel": 0}, {"type": "note_off", "time": 219, "note": 80, "velocity": 102, "channel": 0}, {"type": "note_on", "time": 676, "note": 82, "velocity": 98, "channel": 0}, {"type": "note_off", "time": 49, "note": 82, "velocity": 98, "channel": 0}, {"type": "note_on", "time": 87, "note": 83, "velocity": 110, "channel": 0}, {"type": "note_off", "time": 93, "note": 83, "velocity": 110, "channel": 0}, {"type": "note_on", "time": 120, "note": 83, "velocity": 109, "channel": 0}, {"type": "note_off", "time": 93, "note": 83, "velocity": 109, "channel": 0}, {"type": "note_on", "time": 125, "note": 83, "velocity": 107, "channel": 0}, {"type": "note_off", "time": 41, "note": 83, "velocity": 107, "channel": 0}, {"type": "note_on", "time": 2, "note": 82, "velocity": 105, "channel": 0}, {"type": "note_off", "time": 75, "note": 82, "velocity": 105, "channel": 0}, {"type": "note_on", "time": 3, "note": 83, "velocity": 104, "channel": 0}, {"type": "note_off", "time": 84, "note": 83, "velocity": 104, "channel": 0}, {"type": "note_on", "time": 3, "note": 86, "velocity": 99, "channel": 0}, {"type": "note_off", "time": 88, "note": 86, "velocity": 99, "channel": 0}, {"type": "note_on", "time": 6, "note": 85, "velocity": 104, "channel": 0}, {"type": "note_off", "time": 50, "note": 85, "velocity": 104, "channel": 0}, {"type": "note_on", "time": 82, "note": 83, "velocity": 103, "channel": 0}, {"type": "note_off", "time": 154, "note": 83, "velocity": 103, "channel": 0}, {"type": "note_on", "time": 82, "note": 83, "velocity": 109, "channel": 0}, {"type": "note_off", "time": 57, "note": 83, "velocity": 109, "channel": 0}, {"type": "note_on", "time": 176, "note": 83, "velocity": 103, "channel": 0}, {"type": "note_off", "time": 161, "note": 83, "velocity": 103, "channel": 0}, {"type": "note_on", "time": 4, "note": 85, "velocity": 103, "channel": 0}, {"type": "note_off", "time": 150, "note": 85, "velocity": 103, "channel": 0}, {"type": "note_on", "time": 73, "note": 83, "velocity": 100, "channel": 0}, {"type": "note_off", "time": 142, "note": 83, "velocity": 100, "channel": 0}, {"type": "note_on", "time": 53, "note": 83, "velocity": 100, "channel": 0}, {"type": "note_off", "time": 123, "note": 83, "velocity": 100, "channel": 0}, {"type": "note_on", "time": 104, "note": 83, "velocity": 101, "channel": 0}, {"type": "note_off", "time": 154, "note": 83, "velocity": 101, "channel": 0}, {"type": "note_on", "time": 91, "note": 86, "velocity": 93, "channel": 0}, {"type": "note_off", "time": 108, "note": 86, "velocity": 93, "channel": 0}, {"type": "note_on", "time": 30, "note": 83, "velocity": 95, "channel": 0}, {"type": "note_off", "time": 200, "note": 83, "velocity": 95, "channel": 0}, {"type": "note_on", "time": 57, "note": 83, "velocity": 97, "channel": 0}, {"type": "note_off", "time": 127, "note": 83, "velocity": 97, "channel": 0}, {"type": "note_on", "time": 79, "note": 83, "velocity": 104, "channel": 0}, {"type": "note_off", "time": 126, "note": 83, "velocity": 104, "channel": 0}, {"type": "note_on", "time": 3, "note": 84, "velocity": 101, "channel": 0}, {"type": "note_off", "time": 136, "note": 84, "velocity": 101, "channel": 0}, {"type": "note_on", "time": 27, "note": 88, "velocity": 73, "channel": 0}, {"type": "note_off", "time": 104, "note": 88, "velocity": 73, "channel": 0}, {"type": "note_on", "time": 848, "note": 83, "velocity": 108, "channel": 0}, {"type": "note_off", "time": 181, "note": 83, "velocity": 108, "channel": 0}, {"type": "note_on", "time": 289, "note": 82, "velocity": 93, "channel": 0}, {"type": "note_off", "time": 169, "note": 82, "velocity": 93, "channel": 0}, {"type": "note_on", "time": 165, "note": 81, "velocity": 109, "channel": 0}, {"type": "note_off", "time": 177, "note": 81, "velocity": 109, "channel": 0}, {"type": "note_on", "time": 315, "note": 78, "velocity": 105, "channel": 0}, {"type": "note_off", "time": 212, "note": 78, "velocity": 105, "channel": 0}, {"type": "note_on", "time": 27, "note": 76, "velocity": 83, "channel": 0}, {"type": "note_off", "time": 84, "note": 76, "velocity": 83, "channel": 0}, {"type": "note_on", "time": 932, "note": 77, "velocity": 108, "channel": 0}, {"type": "note_off", "time": 139, "note": 77, "velocity": 108, "channel": 0}, {"type": "note_on", "time": 339, "note": 80, "velocity": 109, "channel": 0}, {"type": "note_off", "time": 194, "note": 80, "velocity": 109, "channel": 0}, {"type": "note_on", "time": 793, "note": 82, "velocity": 107, "channel": 0}, {"type": "note_off", "time": 223, "note": 82, "velocity": 107, "channel": 0}, {"type": "note_on", "time": 447, "note": 83, "velocity": 104, "channel": 0}, {"type": "note_off", "time": 204, "note": 83, "velocity": 104, "channel": 0}, {"type": "note_on", "time": 744, "note": 82, "velocity": 99, "channel": 0}, {"type": "note_off", "time": 227, "note": 82, "velocity": 99, "channel": 0}, {"type": "note_on", "time": 435, "note": 80, "velocity": 106, "channel": 0}, {"type": "note_off", "time": 243, "note": 80, "velocity": 106, "channel": 0}, {"type": "note_on", "time": 821, "note": 73, "velocity": 93, "channel": 0}, {"type": "note_off", "time": 37, "note": 73, "velocity": 93, "channel": 0}, {"type": "note_on", "time": 3, "note": 77, "velocity": 108, "channel": 0}, {"type": "note_off", "time": 162, "note": 77, "velocity": 108, "channel": 0}, {"type": "note_on", "time": 1, "note": 73, "velocity": 85, "channel": 0}, {"type": "note_off", "time": 35, "note": 73, "velocity": 85, "channel": 0}, {"type": "note_on", "time": 473, "note": 76, "velocity": 103, "channel": 0}, {"type": "note_off", "time": 181, "note": 76, "velocity": 103, "channel": 0}, {"type": "note_on", "time": 810, "note": 77, "velocity": 108, "channel": 0}, {"type": "note_off", "time": 204, "note": 77, "velocity": 108, "channel": 0}, {"type": "note_on", "time": 435, "note": 78, "velocity": 103, "channel": 0}, {"type": "note_off", "time": 142, "note": 78, "velocity": 103, "channel": 0}, {"type": "note_on", "time": 38, "note": 79, "velocity": 102, "channel": 0}, {"type": "note_off", "time": 189, "note": 79, "velocity": 102, "channel": 0}, {"type": "note_on", "time": 443, "note": 79, "velocity": 110, "channel": 0}, {"type": "note_off", "time": 196, "note": 79, "velocity": 110, "channel": 0}, {"type": "note_on", "time": 15, "note": 80, "velocity": 105, "channel": 0}, {"type": "note_off", "time": 165, "note": 80, "velocity": 105, "channel": 0}, {"type": "note_on", "time": 461, "note": 80, "velocity": 110, "channel": 0}, {"type": "note_off", "time": 204, "note": 80, "velocity": 110, "channel": 0}, {"type": "note_on", "time": 36, "note": 79, "velocity": 112, "channel": 0}, {"type": "note_off", "time": 200, "note": 79, "velocity": 112, "channel": 0}, {"type": "note_on", "time": 354, "note": 79, "velocity": 108, "channel": 0}, {"type": "note_off", "time": 231, "note": 79, "velocity": 108, "channel": 0}, {"type": "note_on", "time": 69, "note": 77, "velocity": 112, "channel": 0}, {"type": "note_off", "time": 51, "note": 77, "velocity": 112, "channel": 0}, {"type": "note_on", "time": 18, "note": 78, "velocity": 82, "channel": 0}, {"type": "note_off", "time": 150, "note": 78, "velocity": 82, "channel": 0}, {"type": "note_on", "time": 673, "note": 70, "velocity": 102, "channel": 0}, {"type": "note_off", "time": 212, "note": 70, "velocity": 102, "channel": 0}, {"type": "note_on", "time": 7, "note": 77, "velocity": 111, "channel": 0}, {"type": "note_off", "time": 246, "note": 77, "velocity": 111, "channel": 0}, {"type": "note_on", "time": 63, "note": 76, "velocity": 106, "channel": 0}, {"type": "note_off", "time": 181, "note": 76, "velocity": 106, "channel": 0}, {"type": "note_on", "time": 38, "note": 73, "velocity": 101, "channel": 0}, {"type": "note_off", "time": 212, "note": 73, "velocity": 101, "channel": 0}, {"type": "note_on", "time": 42, "note": 72, "velocity": 103, "channel": 0}, {"type": "note_off", "time": 173, "note": 72, "velocity": 103, "channel": 0}, {"type": "note_on", "time": 443, "note": 70, "velocity": 112, "channel": 0}, {"type": "note_off", "time": 270, "note": 70, "velocity": 112, "channel": 0}, {"type": "note_on", "time": 24, "note": 69, "velocity": 109, "channel": 0}, {"type": "note_off", "time": 282, "note": 69, "velocity": 109, "channel": 0}, {"type": "note_on", "time": 16, "note": 68, "velocity": 106, "channel": 0}, {"type": "note_off", "time": 223, "note": 68, "velocity": 106, "channel": 0}, {"type": "note_on", "time": 28, "note": 66, "velocity": 108, "channel": 0}, {"type": "note_off", "time": 245, "note": 66, "velocity": 108, "channel": 0}, {"type": "note_on", "time": 5, "note": 65, "velocity": 104, "channel": 0}, {"type": "note_off", "time": 174, "note": 65, "velocity": 104, "channel": 0}, {"type": "note_on", "time": 81, "note": 63, "velocity": 102, "channel": 0}, {"type": "note_off", "time": 135, "note": 63, "velocity": 102, "channel": 0}, {"type": "note_on", "time": 786, "note": 63, "velocity": 114, "channel": 0}, {"type": "note_off", "time": 128, "note": 63, "velocity": 114, "channel": 0}, {"type": "note_on", "time": 630, "note": 62, "velocity": 111, "channel": 0}, {"type": "note_off", "time": 133, "note": 62, "velocity": 111, "channel": 0}, {"type": "note_on", "time": 740, "note": 61, "velocity": 107, "channel": 0}, {"type": "note_off", "time": 117, "note": 61, "velocity": 107, "channel": 0}, {"type": "note_on", "time": 667, "note": 69, "velocity": 103, "channel": 0}, {"type": "note_off", "time": 83, "note": 69, "velocity": 103, "channel": 0}, {"type": "note_on", "time": 17, "note": 68, "velocity": 102, "channel": 0}, {"type": "note_off", "time": 100, "note": 68, "velocity": 102, "channel": 0}, {"type": "note_on", "time": 25, "note": 68, "velocity": 110, "channel": 0}, {"type": "note_off", "time": 164, "note": 68, "velocity": 110, "channel": 0}, {"type": "note_on", "time": 219, "note": 71, "velocity": 104, "channel": 0}, {"type": "note_off", "time": 196, "note": 71, "velocity": 104, "channel": 0}, {"type": "note_on", "time": 89, "note": 69, "velocity": 106, "channel": 0}, {"type": "note_off", "time": 96, "note": 69, "velocity": 106, "channel": 0}, {"type": "note_on", "time": 230, "note": 66, "velocity": 107, "channel": 0}, {"type": "note_off", "time": 161, "note": 66, "velocity": 107, "channel": 0}, {"type": "note_on", "time": 305, "note": 69, "velocity": 104, "channel": 0}, {"type": "note_off", "time": 115, "note": 69, "velocity": 104, "channel": 0}, {"type": "note_on", "time": 697, "note": 68, "velocity": 105, "channel": 0}, {"type": "note_off", "time": 135, "note": 68, "velocity": 105, "channel": 0}, {"type": "note_on", "time": 11, "note": 67, "velocity": 107, "channel": 0}, {"type": "note_off", "time": 262, "note": 67, "velocity": 107, "channel": 0}, {"type": "note_on", "time": 13, "note": 66, "velocity": 100, "channel": 0}, {"type": "note_off", "time": 131, "note": 66, "velocity": 100, "channel": 0}, {"type": "note_on", "time": 16, "note": 69, "velocity": 101, "channel": 0}, {"type": "note_off", "time": 169, "note": 69, "velocity": 101, "channel": 0}, {"type": "note_on", "time": 123, "note": 65, "velocity": 105, "channel": 0}, {"type": "note_off", "time": 250, "note": 65, "velocity": 105, "channel": 0}, {"type": "note_on", "time": 54, "note": 68, "velocity": 98, "channel": 0}, {"type": "note_off", "time": 104, "note": 68, "velocity": 98, "channel": 0}, {"type": "note_on", "time": 4, "note": 69, "velocity": 100, "channel": 0}, {"type": "note_off", "time": 132, "note": 69, "velocity": 100, "channel": 0}, {"type": "note_on", "time": 4, "note": 71, "velocity": 97, "channel": 0}, {"type": "note_off", "time": 200, "note": 71, "velocity": 97, "channel": 0}, {"type": "note_on", "time": 124, "note": 64, "velocity": 106, "channel": 0}, {"type": "note_off", "time": 127, "note": 64, "velocity": 106, "channel": 0}, {"type": "note_on", "time": 164, "note": 68, "velocity": 86, "channel": 0}, {"type": "note_off", "time": 83, "note": 68, "velocity": 86, "channel": 0}, {"type": "note_on", "time": 8, "note": 69, "velocity": 104, "channel": 0}, {"type": "note_off", "time": 149, "note": 69, "velocity": 104, "channel": 0}, {"type": "note_on", "time": 20, "note": 70, "velocity": 93, "channel": 0}, {"type": "note_off", "time": 165, "note": 70, "velocity": 93, "channel": 0}, {"type": "note_on", "time": 88, "note": 63, "velocity": 107, "channel": 0}, {"type": "note_off", "time": 212, "note": 63, "velocity": 107, "channel": 0}, {"type": "note_on", "time": 15, "note": 66, "velocity": 86, "channel": 0}, {"type": "note_off", "time": 127, "note": 66, "velocity": 86, "channel": 0}, {"type": "note_on", "time": 8, "note": 69, "velocity": 105, "channel": 0}, {"type": "note_off", "time": 177, "note": 69, "velocity": 105, "channel": 0}, {"type": "note_on", "time": 21, "note": 65, "velocity": 101, "channel": 0}, {"type": "note_off", "time": 169, "note": 65, "velocity": 101, "channel": 0}, {"type": "note_on", "time": 0, "note": 68, "velocity": 99, "channel": 0}, {"type": "note_off", "time": 192, "note": 68, "velocity": 99, "channel": 0}, {"type": "note_on", "time": 77, "note": 68, "velocity": 104, "channel": 0}, {"type": "note_off", "time": 211, "note": 68, "velocity": 104, "channel": 0}, {"type": "note_on", "time": 9, "note": 67, "velocity": 105, "channel": 0}, {"type": "note_off", "time": 126, "note": 67, "velocity": 105, "channel": 0}, {"type": "note_on", "time": 48, "note": 65, "velocity": 99, "channel": 0}, {"type": "note_off", "time": 169, "note": 65, "velocity": 99, "channel": 0}, {"type": "note_on", "time": 23, "note": 65, "velocity": 99, "channel": 0}, {"type": "note_off", "time": 227, "note": 65, "velocity": 99, "channel": 0}, {"type": "note_on", "time": 0, "note": 68, "velocity": 99, "channel": 0}, {"type": "note_off", "time": 221, "note": 68, "velocity": 99, "channel": 0}, {"type": "note_on", "time": 6, "note": 65, "velocity": 104, "channel": 0}, {"type": "note_off", "time": 170, "note": 65, "velocity": 104, "channel": 0}, {"type": "note_on", "time": 5, "note": 62, "velocity": 101, "channel": 0}, {"type": "note_off", "time": 109, "note": 62, "velocity": 101, "channel": 0}, {"type": "note_on", "time": 44, "note": 64, "velocity": 113, "channel": 0}, {"type": "note_off", "time": 198, "note": 64, "velocity": 113, "channel": 0}, {"type": "note_on", "time": 39, "note": 61, "velocity": 110, "channel": 0}, {"type": "note_off", "time": 123, "note": 61, "velocity": 110, "channel": 0}, {"type": "note_on", "time": 65, "note": 57, "velocity": 104, "channel": 0}, {"type": "note_off", "time": 212, "note": 57, "velocity": 104, "channel": 0}, {"type": "note_on", "time": 38, "note": 55, "velocity": 90, "channel": 0}, {"type": "note_off", "time": 104, "note": 55, "velocity": 90, "channel": 0}, {"type": "note_on", "time": 7, "note": 56, "velocity": 101, "channel": 0}, {"type": "note_off", "time": 312, "note": 56, "velocity": 101, "channel": 0}, {"type": "note_on", "time": 42, "note": 57, "velocity": 96, "channel": 0}, {"type": "note_off", "time": 131, "note": 57, "velocity": 96, "channel": 0}, {"type": "note_on", "time": 6, "note": 59, "velocity": 97, "channel": 0}, {"type": "note_off", "time": 174, "note": 59, "velocity": 97, "channel": 0}, {"type": "note_on", "time": 11, "note": 63, "velocity": 110, "channel": 0}, {"type": "note_off", "time": 177, "note": 63, "velocity": 110, "channel": 0}, {"type": "note_on", "time": 12, "note": 62, "velocity": 105, "channel": 0}, {"type": "note_off", "time": 154, "note": 62, "velocity": 105, "channel": 0}, {"type": "note_on", "time": 77, "note": 58, "velocity": 103, "channel": 0}, {"type": "note_off", "time": 155, "note": 58, "velocity": 103, "channel": 0}, {"type": "note_on", "time": 5, "note": 54, "velocity": 99, "channel": 0}, {"type": "note_off", "time": 195, "note": 54, "velocity": 99, "channel": 0}, {"type": "end_of_track", "time": 0}]]}