{"ticks_per_beat": 192, "tracks": [[{"type": "track_name", "name": "Melody", "time": 0}, {"type": "set_tempo", "tempo": 244897, "time": 0}, {"type": "key_signature", "key": "Bb", "time": 0}, {"type": "time_signature", "numerator": 4, "denominator": 4, "clocks_per_click": 24, "notated_32nd_notes_per_beat": 8, "time": 0}, {"type": "note_on", "time": 3915, "note": 58, "velocity": 93, "channel": 0}, {"type": "note_off", "time": 76, "note": 58, "velocity": 93, "channel": 0}, {"type": "note_on", "time": 111, "note": 62, "velocity": 104, "channel": 0}, {"type": "note_off", "time": 70, "note": 62, "velocity": 104, "channel": 0}, {"type": "note_on", "time": 136, "note": 65, "velocity": 106, "channel": 0}, {"type": "note_off", "time": 78, "note": 65, "velocity": 106, "channel": 0}, {"type": "note_on", "time": 381, "note": 63, "velocity": 103, "channel": 0}, {"type": "note_off", "time": 102, "note": 63, "velocity": 103, "channel": 0}, {"type": "note_on", "time": 101, "note": 67, "velocity": 107, "channel": 0}, {"type": "note_off", "time": 72, "note": 67, "velocity": 107, "channel": 0}, {"type": "note_on", "time": 132, "note": 70, "velocity": 101, "channel": 0}, {"type": "note_off", "time": 87, "note": 70, "velocity": 101, "channel": 0}, {"type": "note_on", "time": 678, "note": 65, "velocity": 99, "channel": 0}, {"type": "note_off", "time": 104, "note": 65, "velocity": 99, "channel": 0}, {"type": "note_on", "time": 23, "note": 67, "velocity": 96, "channel": 0}, {"type": "note_off", "time": 54, "note": 67, "velocity": 96, "channel": 0}, {"type": "note_on", "time": 200, "note": 63, "velocity": 102, "channel": 0}, {"type": "note_off", "time": 126, "note": 63, "velocity": 102, "channel": 0}, {"type": "note_on", "time": 6, "note": 65, "velocity": 104, "channel": 0}, {"type": "note_off", "time": 56, "note": 65, "velocity": 104, "channel": 0}, {"type": "note_on", "time": 206, "note": 61, "velocity": 98, "channel": 0}, {"type": "note_off", "time": 123, "note": 61, "velocity": 98, "channel": 0}, {"type": "note_on", "time": 3, "note": 63, "velocity": 95, "channel": 0}, {"type": "note_off", "time": 64, "note": 63, "velocity": 95, "channel": 0}, {"type": "note_on", "time": 1134, "note": 69, "velocity": 104, "channel": 0}, {"type": "note_off", "time": 93, "note": 69, "velocity": 104, "channel": 0}, {"type": "note_on", "time": 7, "note": 68, "velocity": 105, "channel": 0}, {"type": "note_off", "time": 69, "note": 68, "velocity": 105, "channel": 0}, {"type": "note_on", "time": 7, "note": 67, "velocity": 102, "channel": 0}, {"type": "note_off", "time": 48, "note": 67, "velocity": 102, "channel": 0}, {"type": "note_on", "time": 4, "note": 66, "velocity": 102, "channel": 0}, {"type": "note_off", "time": 46, "note": 66, "velocity": 102, "channel": 0}, {"type": "note_on", "time": 34, "note": 61, "velocity": 103, "channel": 0}, {"type": "note_off", "time": 80, "note": 61, "velocity": 103, "channel": 0}, {"type": "note_on", "time": 17, "note": 57, "velocity": 95, "channel": 0}, {"type": "note_off", "time": 105, "note": 57, "velocity": 95, "channel": 0}, {"type": "note_on", "time": 1, "note": 54, "velocity": 95, "channel": 0}, {"type": "note_off", "time": 99, "note": 54, "velocity": 95, "channel": 0}, {"type": "note_on", "time": 10, "note": 53, "velocity": 80, "channel": 0}, {"type": "note_off", "time": 270, "note": 53, "velocity": 80, "channel": 0}, {"type": "note_on", "time": 34, "note": 55, "velocity": 98, "channel": 0}, {"type": "note_off", "time": 123, "note": 55, "velocity": 98, "channel": 0}, {"type": "note_on", "time": 340, "note": 54, "velocity": 105, "channel": 0}, {"type": "note_off", "time": 49, "note": 54, "velocity": 105, "channel": 0}, {"type": "note_on", "time": 3, "note": 55, "velocity": 99, "channel": 0}, {"type": "note_off", "time": 95, "note": 55, "velocity": 99, "channel": 0}, {"type": "note_on", "time": 22, "note": 60, "velocity": 97, "channel": 0}, {"type": "note_off", "time": 97, "note": 60, "velocity": 97, "channel": 0}, {"type": "note_on", "time": 32, "note": 57, "velocity": 96, "channel": 0}, {"type": "note_off", "time": 115, "note": 57, "velocity": 96, "channel": 0}, {"type": "note_on", "time": 40, "note": 55, "velocity": 98, "channel": 0}, {"type": "note_off", "time": 70, "note": 55, "velocity": 98, "channel": 0}, {"type": "note_on", "time": 39, "note": 53, "velocity": 101, "channel": 0}, {"type": "note_off", "time": 157, "note": 53, "velocity": 101, "channel": 0}, {"type": "note_on", "time": 1169, "note": 56, "velocity": 103, "channel": 0}, {"type": "note_off", "time": 117, "note": 56, "velocity": 103, "channel": 0}, {"type": "note_on", "time": 10, "note": 55, "velocity": 95, "channel": 0}, {"type": "note_off", "time": 59, "note": 55, "velocity": 95, "channel": 0}, {"type": "note_on", "time": 1, "note": 56, "velocity": 105, "channel": 0}, {"type": "note_off", "time": 84, "note": 56, "velocity": 105, "channel": 0}, {"type": "note_on", "time": 5, "note": 55, "velocity": 103, "channel": 0}, {"type": "note_off", "time": 65, "note": 55, "velocity": 103, "channel": 0}, {"type": "note_on", "time": 3, "note": 53, "velocity": 101, "channel": 0}, {"type": "note_off", "time": 115, "note": 53, "velocity": 101, "channel": 0}, {"type": "note_on", "time": 4, "note": 51, "velocity": 101, "channel": 0}, {"type": "note_off", "time": 108, "note": 51, "velocity": 101, "channel": 0}, {"type": "note_on", "time": 5, "note": 50, "velocity": 96, "channel": 0}, {"type": "note_off", "time": 92, "note": 50, "velocity": 96, "channel": 0}, {"type": "note_on", "time": 4, "note": 48, "velocity": 100, "channel": 0}, {"type": "note_off", "time": 95, "note": 48, "velocity": 100, "channel": 0}, {"type": "note_on", "time": 3, "note": 46, "velocity": 105, "channel": 0}, {"type": "note_off", "time": 56, "note": 46, "velocity": 105, "channel": 0}, {"type": "note_on", "time": 3, "note": 47, "velocity": 94, "channel": 0}, {"type": "note_off", "time": 115, "note": 47, "velocity": 94, "channel": 0}, {"type": "note_on", "time": 84, "note": 54, "velocity": 98, "channel": 0}, {"type": "note_off", "time": 29, "note": 54, "velocity": 98, "channel": 0}, {"type": "note_on", "time": 11, "note": 56, "velocity": 103, "channel": 0}, {"type": "note_off", "time": 93, "note": 56, "velocity": 103, "channel": 0}, {"type": "note_on", "time": 3, "note": 55, "velocity": 100, "channel": 0}, {"type": "note_off", "time": 78, "note": 55, "velocity": 100, "channel": 0}, {"type": "note_on", "time": 3, "note": 51, "velocity": 102, "channel": 0}, {"type": "note_off", "time": 95, "note": 51, "velocity": 102, "channel": 0}, {"type": "note_on", "time": 8, "note": 50, "velocity": 92, "channel": 0}, {"type": "note_off", "time": 75, "note": 50, "velocity": 92, "channel": 0}, {"type": "note_on", "time": 102, "note": 54, "velocity": 99, "channel": 0}, {"type": "note_off", "time": 89, "note": 54, "velocity": 99, "channel": 0}, {"type": "note_on", "time": 7, "note": 52, "velocity": 94, "channel": 0}, {"type": "note_off", "time": 67, "note": 52, "velocity": 94, "channel": 0}, {"type": "note_on", "time": 6, "note": 53, "velocity": 95, "channel": 0}, {"type": "note_off", "time": 114, "note": 53, "velocity": 95, "channel": 0}, {"type": "note_on", "time": 4, "note": 50, "velocity": 104, "channel": 0}, {"type": "note_off", "time": 70, "note": 50, "velocity": 104, "channel": 0}, {"type": "note_on", "time": 8, "note": 46, "velocity": 99, "channel": 0}, {"type": "note_off", "time": 163, "note": 46, "velocity": 99, "channel": 0}, {"type": "note_on", "time": 17, "note": 50, "velocity": 95, "channel": 0}, {"type": "note_off", "time": 134, "note": 50, "velocity": 95, "channel": 0}, {"type": "note_on", "time": 3, "note": 44, "velocity": 103, "channel": 0}, {"type": "note_off", "time": 236, "note": 44, "velocity": 103, "channel": 0}, {"type": "note_on", "time": 1486, "note": 53, "velocity": 94, "channel": 0}, {"type": "note_off", "time": 76, "note": 53, "velocity": 94, "channel": 0}, {"type": "note_on", "time": 8, "note": 58, "velocity": 93, "channel": 0}, {"type": "note_off", "time": 79, "note": 58, "velocity": 93, "channel": 0}, {"type": "note_on", "time": 10, "note": 62, "velocity": 100, "channel": 0}, {"type": "note_off", "time": 87, "note": 62, "velocity": 100, "channel": 0}, {"type": "note_on", "time": 9, "note": 63, "velocity": 105, "channel": 0}, {"type": "note_off", "time": 101, "note": 63, "velocity": 105, "channel": 0}, {"type": "note_on", "time": 2, "note": 62, "velocity": 97, "channel": 0}, {"type": "note_off", "time": 62, "note": 62, "velocity": 97, "channel": 0}, {"type": "note_on", "time": 5, "note": 63, "velocity": 104, "channel": 0}, {"type": "note_off", "time": 95, "note": 63, "velocity": 104, "channel": 0}, {"type": "note_on", "time": 16, "note": 65, "velocity": 102, "channel": 0}, {"type": "note_off", "time": 78, "note": 65, "velocity": 102, "channel": 0}, {"type": "note_on", "time": 4, "note": 61, "velocity": 97, "channel": 0}, {"type": "note_off", "time": 51, "note": 61, "velocity": 97, "channel": 0}, {"type": "note_on", "time": 4, "note": 62, "velocity": 102, "channel": 0}, {"type": "note_off", "time": 92, "note": 62, "velocity": 102, "channel": 0}, {"type": "note_on", "time": 179, "note": 60, "velocity": 104, "channel": 0}, {"type": "note_off", "time": 98, "note": 60, "velocity": 104, "channel": 0}, {"type": "note_on", "time": 101, "note": 62, "velocity": 101, "channel": 0}, {"type": "note_off", "time": 91, "note": 62, "velocity": 101, "channel": 0}, {"type": "note_on", "time": 59, "note": 60, "velocity": 86, "channel": 0}, {"type": "note_off", "time": 56, "note": 60, "velocity": 86, "channel": 0}, {"type": "note_on", "time": 23, "note": 62, "velocity": 101, "channel": 0}, {"type": "note_off", "time": 200, "note": 62, "velocity": 101, "channel": 0}, {"type": "note_on", "time": 3, "note": 60, "velocity": 99, "channel": 0}, {"type": "note_off", "time": 129, "note": 60, "velocity": 99, "channel": 0}, {"type": "note_on", "time": 1345, "note": 60, "velocity": 102, "channel": 0}, {"type": "note_off", "time": 76, "note": 60, "velocity": 102, "channel": 0}, {"type": "note_on", "time": 9, "note": 59, "velocity": 95, "channel": 0}, {"type": "note_off", "time": 69, "note": 59, "velocity": 95, "channel": 0}, {"type": "note_on", "time": 11, "note": 63, "velocity": 104, "channel": 0}, {"type": "note_off", "time": 92, "note": 63, "velocity": 104, "channel": 0}, {"type": "note_on", "time": 3, "note": 64, "velocity": 99, "channel": 0}, {"type": "note_off", "time": 103, "note": 64, "velocity": 99, "channel": 0}, {"type": "note_on", "time": 9, "note": 68, "velocity": 109, "channel": 0}, {"type": "note_off", "time": 50, "note": 68, "velocity": 109, "channel": 0}, {"type": "note_on", "time": 15, "note": 69, "velocity": 99, "channel": 0}, {"type": "note_off", "time": 120, "note": 69, "velocity": 99, "channel": 0}, {"type": "note_on", "time": 6, "note": 68, "velocity": 108, "channel": 0}, {"type": "note_off", "time": 61, "note": 68, "velocity": 108, "channel": 0}, {"type": "note_on", "time": 10, "note": 67, "velocity": 99, "channel": 0}, {"type": "note_off", "time": 87, "note": 67, "velocity": 99, "channel": 0}, {"type": "note_on", "time": 7, "note": 66, "velocity": 105, "channel": 0}, {"type": "note_off", "time": 63, "note": 66, "velocity": 105, "channel": 0}, {"type": "note_on", "time": 5, "note": 65, "velocity": 101, "channel": 0}, {"type": "note_off", "time": 108, "note": 65, "velocity": 101, "channel": 0}, {"type": "note_on", "time": 4, "note": 64, "velocity": 107, "channel": 0}, {"type": "note_off", "time": 94, "note": 64, "velocity": 107, "channel": 0}, {"type": "note_on", "time": 8, "note": 62, "velocity": 101, "channel": 0}, {"type": "note_off", "time": 77, "note": 62, "velocity": 101, "channel": 0}, {"type": "note_on", "time": 4, "note": 61, "velocity": 104, "channel": 0}, {"type": "note_off", "time": 97, "note": 61, "velocity": 104, "channel": 0}, {"type": "note_on", "time": 12, "note": 60, "velocity": 103, "channel": 0}, {"type": "note_off", "time": 80, "note": 60, "velocity": 103, "channel": 0}, {"type": "note_on", "time": 12, "note": 59, "velocity": 97, "channel": 0}, {"type": "note_off", "time": 89, "note": 59, "velocity": 97, "channel": 0}, {"type": "note_on", "time": 7, "note": 58, "velocity": 95, "channel": 0}, {"type": "note_off", "time": 77, "note": 58, "velocity": 95, "channel": 0}, {"type": "note_on", "time": 12, "note": 62, "velocity": 102, "channel": 0}, {"type": "note_off", "time": 84, "note": 62, "velocity": 102, "channel": 0}, {"type": "note_on", "time": 7, "note": 57, "velocity": 96, "channel": 0}, {"type": "note_off", "time": 101, "note": 57, "velocity": 96, "channel": 0}, {"type": "note_on", "time": 7, "note": 53, "velocity": 88, "channel": 0}, {"type": "note_off", "time": 46, "note": 53, "velocity": 88, "channel": 0}, {"type": "note_on", "time": 20, "note": 60, "velocity": 102, "channel": 0}, {"type": "note_off", "time": 106, "note": 60, "velocity": 102, "channel": 0}, {"type": "note_on", "time": 6, "note": 57, "velocity": 101, "channel": 0}, {"type": "note_off", "time": 51, "note": 57, "velocity": 101, "channel": 0}, {"type": "note_on", "time": 9, "note": 58, "velocity": 90, "channel": 0}, {"type": "note_off", "time": 63, "note": 58, "velocity": 90, "channel": 0}, {"type": "note_on", "time": 9, "note": 62, "velocity": 81, "channel": 0}, {"type": "note_off", "time": 67, "note": 62, "velocity": 81, "channel": 0}, {"type": "note_on", "time": 0, "note": 66, "velocity": 80, "channel": 0}, {"type": "note_off", "time": 72, "note": 66, "velocity": 80, "channel": 0}, {"type": "note_on", "time": 21, "note": 69, "velocity": 105, "channel": 0}, {"type": "note_off", "time": 94, "note": 69, "velocity": 105, "channel": 0}, {"type": "note_on", "time": 13, "note": 66, "velocity": 85, "channel": 0}, {"type": "note_off", "time": 39, "note": 66, "velocity": 85, "channel": 0}, {"type": "note_on", "time": 23, "note": 67, "velocity": 104, "channel": 0}, {"type": "note_off", "time": 83, "note": 67, "velocity": 104, "channel": 0}, {"type": "note_on", "time": 7, "note": 69, "velocity": 102, "channel": 0}, {"type": "note_off", "time": 84, "note": 69, "velocity": 102, "channel": 0}, {"type": "note_on", "time": 6, "note": 70, "velocity": 100, "channel": 0}, {"type": "note_off", "time": 67, "note": 70, "velocity": 100, "channel": 0}, {"type": "note_on", "time": 8, "note": 72, "velocity": 98, "channel": 0}, {"type": "note_off", "time": 72, "note": 72, "velocity": 98, "channel": 0}, {"type": "note_on", "time": 3, "note": 70, "velocity": 97, "channel": 0}, {"type": "note_off", "time": 61, "note": 70, "velocity": 97, "channel": 0}, {"type": "note_on", "time": 7, "note": 69, "velocity": 98, "channel": 0}, {"type": "note_off", "time": 87, "note": 69, "velocity": 98, "channel": 0}, {"type": "note_on", "time": 6, "note": 68, "velocity": 109, "channel": 0}, {"type": "note_off", "time": 46, "note": 68, "velocity": 109, "channel": 0}, {"type": "note_on", "time": 7, "note": 67, "velocity": 100, "channel": 0}, {"type": "note_off", "time": 102, "note": 67, "velocity": 100, "channel": 0}, {"type": "note_on", "time": 16, "note": 63, "velocity": 101, "channel": 0}, {"type": "note_off", "time": 88, "note": 63, "velocity": 101, "channel": 0}, {"type": "note_on", "time": 7, "note": 59, "velocity": 92, "channel": 0}, {"type": "note_off", "time": 96, "note": 59, "velocity": 92, "channel": 0}, {"type": "note_on", "time": 8, "note": 56, "velocity": 89, "channel": 0}, {"type": "note_off", "time": 63, "note": 56, "velocity": 89, "channel": 0}, {"type": "note_on", "time": 12, "note": 65, "velocity": 99, "channel": 0}, {"type": "note_off", "time": 52, "note": 65, "velocity": 99, "channel": 0}, {"type": "note_on", "time": 10, "note": 64, "velocity": 110, "channel": 0}, {"type": "note_off", "time": 50, "note": 64, "velocity": 110, "channel": 0}, {"type": "note_on", "time": 10, "note": 61, "velocity": 96, "channel": 0}, {"type": "note_off", "time": 69, "note": 61, "velocity": 96, "channel": 0}, {"type": "note_on", "time": 8, "note": 57, "velocity": 100, "channel": 0}, {"type": "note_off", "time": 122, "note": 57, "velocity": 100, "channel": 0}, {"type": "note_on", "time": 20, "note": 55, "velocity": 88, "channel": 0}, {"type": "note_off", "time": 40, "note": 55, "velocity": 88, "channel": 0}, {"type": "note_on", "time": 10, "note": 56, "velocity": 96, "channel": 0}, {"type": "note_off", "time": 302, "note": 56, "velocity": 96, "channel": 0}, {"type": "note_on", "time": 2, "note": 54, "velocity": 96, "channel": 0}, {"type": "note_off", "time": 51, "note": 54, "velocity": 96, "channel": 0}, {"type": "note_on", "time": 8, "note": 53, "velocity": 91, "channel": 0}, {"type": "note_off", "time": 104, "note": 53, "velocity": 91, "channel": 0}, {"type": "note_on", "time": 12, "note": 51, "velocity": 98, "channel": 0}, {"type": "note_off", "time": 84, "note": 51, "velocity": 98, "channel": 0}, {"type": "note_on", "time": 4, "note": 50, "velocity": 96, "channel": 0}, {"type": "note_off", "time": 122, "note": 50, "velocity": 96, "channel": 0}, {"type": "note_on", "time": 4, "note": 48, "velocity": 96, "channel": 0}, {"type": "note_off", "time": 79, "note": 48, "velocity": 96, "channel": 0}, {"type": "note_on", "time": 7, "note": 47, "velocity": 94, "channel": 0}, {"type": "note_off", "time": 56, "note": 47, "velocity": 94, "channel": 0}, {"type": "note_on", "time": 15, "note": 58, "velocity": 97, "channel": 0}, {"type": "note_off", "time": 75, "note": 58, "velocity": 97, "channel": 0}, {"type": "note_on", "time": 6, "note": 55, "velocity": 93, "channel": 0}, {"type": "note_off", "time": 147, "note": 55, "velocity": 93, "channel": 0}, {"type": "note_on", "time": 924, "note": 52, "velocity": 93, "channel": 0}, {"type": "note_off", "time": 44, "note": 52, "velocity": 93, "channel": 0}, {"type": "note_on", "time": 1, "note": 53, "velocity": 98, "channel": 0}, {"type": "note_off", "time": 52, "note": 53, "velocity": 98, "channel": 0}, {"type": "note_on", "time": 13, "note": 57, "velocity": 91, "channel": 0}, {"type": "note_off", "time": 57, "note": 57, "velocity": 91, "channel": 0}, {"type": "note_on", "time": 20, "note": 60, "velocity": 89, "channel": 0}, {"type": "note_off", "time": 86, "note": 60, "velocity": 89, "channel": 0}, {"type": "note_on", "time": 9, "note": 64, "velocity": 107, "channel": 0}, {"type": "note_off", "time": 84, "note": 64, "velocity": 107, "channel": 0}, {"type": "note_on", "time": 7, "note": 61, "velocity": 102, "channel": 0}, {"type": "note_off", "time": 76, "note": 61, "velocity": 102, "channel": 0}, {"type": "note_on", "time": 9, "note": 56, "velocity": 98, "channel": 0}, {"type": "note_off", "time": 84, "note": 56, "velocity": 98, "channel": 0}, {"type": "note_on", "time": 7, "note": 52, "velocity": 96, "channel": 0}, {"type": "note_off", "time": 76, "note": 52, "velocity": 96, "channel": 0}, {"type": "note_on", "time": 9, "note": 51, "velocity": 98, "channel": 0}, {"type": "note_off", "time": 87, "note": 51, "velocity": 98, "channel": 0}, {"type": "note_on", "time": 23, "note": 53, "velocity": 93, "channel": 0}, {"type": "note_off", "time": 101, "note": 53, "velocity": 93, "channel": 0}, {"type": "note_on", "time": 0, "note": 55, "velocity": 92, "channel": 0}, {"type": "note_off", "time": 110, "note": 55, "velocity": 92, "channel": 0}, {"type": "note_on", "time": 5, "note": 58, "velocity": 89, "channel": 0}, {"type": "note_off", "time": 66, "note": 58, "velocity": 89, "channel": 0}, {"type": "note_on", "time": 17, "note": 66, "velocity": 103, "channel": 0}, {"type": "note_off", "time": 84, "note": 66, "velocity": 103, "channel": 0}, {"type": "note_on", "time": 3, "note": 61, "velocity": 104, "channel": 0}, {"type": "note_off", "time": 108, "note": 61, "velocity": 104, "channel": 0}, {"type": "note_on", "time": 10, "note": 57, "velocity": 94, "channel": 0}, {"type": "note_off", "time": 121, "note": 57, "velocity": 94, "channel": 0}, {"type": "note_on", "time": 7, "note": 54, "velocity": 94, "channel": 0}, {"type": "note_off", "time": 31, "note": 54, "velocity": 94, "channel": 0}, {"type": "note_on", "time": 16, "note": 56, "velocity": 97, "channel": 0}, {"type": "note_off", "time": 93, "note": 56, "velocity": 97, "channel": 0}, {"type": "note_on", "time": 10, "note": 60, "velocity": 101, "channel": 0}, {"type": "note_off", "time": 73, "note": 60, "velocity": 101, "channel": 0}, {"type": "note_on", "time": 16, "note": 63, "velocity": 92, "channel": 0}, {"type": "note_off", "time": 92, "note": 63, "velocity": 92, "channel": 0}, {"type": "note_on", "time": 6, "note": 67, "velocity": 100, "channel": 0}, {"type": "note_off", "time": 100, "note": 67, "velocity": 100, "channel": 0}, {"type": "note_on", "time": 1, "note": 70, "velocity": 104, "channel": 0}, {"type": "note_off", "time": 70, "note": 70, "velocity": 104, "channel": 0}, {"type": "note_on", "time": 14, "note": 62, "velocity": 100, "channel": 0}, {"type": "note_off", "time": 104, "note": 62, "velocity": 100, "channel": 0}, {"type": "note_on", "time": 1, "note": 66, "velocity": 96, "channel": 0}, {"type": "note_off", "time": 77, "note": 66, "velocity": 96, "channel": 0}, {"type": "note_on", "time": 5, "note": 69, "velocity": 102, "channel": 0}, {"type": "note_off", "time": 87, "note": 69, "velocity": 102, "channel": 0}, {"type": "note_on", "time": 7, "note": 73, "velocity": 98, "channel": 0}, {"type": "note_off", "time": 111, "note": 73, "velocity": 98, "channel": 0}, {"type": "note_on", "time": 3, "note": 61, "velocity": 92, "channel": 0}, {"type": "note_off", "time": 72, "note": 61, "velocity": 92, "channel": 0}, {"type": "note_on", "time": 5, "note": 64, "velocity": 106, "channel": 0}, {"type": "note_off", "time": 87, "note": 64, "velocity": 106, "channel": 0}, {"type": "note_on", "time": 12, "note": 68, "velocity": 107, "channel": 0}, {"type": "note_off", "time": 60, "note": 68, "velocity": 107, "channel": 0}, {"type": "note_on", "time": 14, "note": 71, "velocity": 102, "channel": 0}, {"type": "note_off", "time": 115, "note": 71, "velocity": 102, "channel": 0}, {"type": "note_on", "time": 12, "note": 68, "velocity": 93, "channel": 0}, {"type": "note_off", "time": 67, "note": 68, "velocity": 93, "channel": 0}, {"type": "note_on", "time": 5, "note": 70, "velocity": 97, "channel": 0}, {"type": "note_off", "time": 103, "note": 70, "velocity": 97, "channel": 0}, {"type": "note_on", "time": 0, "note": 66, "velocity": 98, "channel": 0}, {"type": "note_off", "time": 104, "note": 66, "velocity": 98, "channel": 0}, {"type": "note_on", "time": 6, "note": 63, "velocity": 101, "channel": 0}, {"type": "note_off", "time": 96, "note": 63, "velocity": 101, "channel": 0}, {"type": "note_on", "time": 14, "note": 60, "velocity": 97, "channel": 0}, {"type": "note_off", "time": 71, "note": 60, "velocity": 97, "channel": 0}, {"type": "note_on", "time": 4, "note": 65, "velocity": 97, "channel": 0}, {"type": "note_off", "time": 84, "note": 65, "velocity": 97, "channel": 0}, {"type": "note_on", "time": 7, "note": 69, "velocity": 101, "channel": 0}, {"type": "note_off", "time": 100, "note": 69, "velocity": 101, "channel": 0}, {"type": "note_on", "time": 8, "note": 68, "velocity": 103, "channel": 0}, {"type": "note_off", "time": 88, "note": 68, "velocity": 103, "channel": 0}, {"type": "note_on", "time": 0, "note": 64, "velocity": 109, "channel": 0}, {"type": "note_off", "time": 81, "note": 64, "velocity": 109, "channel": 0}, {"type": "note_on", "time": 16, "note": 59, "velocity": 94, "channel": 0}, {"type": "note_off", "time": 106, "note": 59, "velocity": 94, "channel": 0}, {"type": "note_on", "time": 13, "note": 56, "velocity": 95, "channel": 0}, {"type": "note_off", "time": 54, "note": 56, "velocity": 95, "channel": 0}, {"type": "note_on", "time": 7, "note": 58, "velocity": 96, "channel": 0}, {"type": "note_off", "time": 77, "note": 58, "velocity": 96, "channel": 0}, {"type": "note_on", "time": 16, "note": 55, "velocity": 92, "channel": 0}, {"type": "note_off", "time": 66, "note": 55, "velocity": 92, "channel": 0}, {"type": "note_on", "time": 15, "note": 56, "velocity": 97, "channel": 0}, {"type": "note_off", "time": 119, "note": 56, "velocity": 97, "channel": 0}, {"type": "note_on", "time": 7, "note": 57, "velocity": 98, "channel": 0}, {"type": "note_off", "time": 99, "note": 57, "velocity": 98, "channel": 0}, {"type": "note_on", "time": 4, "note": 61, "velocity": 93, "channel": 0}, {"type": "note_off", "time": 75, "note": 61, "velocity": 93, "channel": 0}, {"type": "note_on", "time": 6, "note": 64, "velocity": 91, "channel": 0}, {"type": "note_off", "time": 65, "note": 64, "velocity": 91, "channel": 0}, {"type": "note_on", "time": 4, "note": 68, "velocity": 108, "channel": 0}, {"type": "note_off", "time": 56, "note": 68, "velocity": 108, "channel": 0}, {"type": "note_on", "time": 7, "note": 67, "velocity": 97, "channel": 0}, {"type": "note_off", "time": 44, "note": 67, "velocity": 97, "channel": 0}, {"type": "note_on", "time": 11, "note": 66, "velocity": 98, "channel": 0}, {"type": "note_off", "time": 80, "note": 66, "velocity": 98, "channel": 0}, {"type": "note_on", "time": 4, "note": 65, "velocity": 99, "channel": 0}, {"type": "note_off", "time": 91, "note": 65, "velocity": 99, "channel": 0}, {"type": "note_on", "time": 4, "note": 63, "velocity": 101, "channel": 0}, {"type": "note_off", "time": 78, "note": 63, "velocity": 101, "channel": 0}, {"type": "note_on", "time": 8, "note": 62, "velocity": 100, "channel": 0}, {"type": "note_off", "time": 96, "note": 62, "velocity": 100, "channel": 0}, {"type": "note_on", "time": 2, "note": 60, "velocity": 101, "channel": 0}, {"type": "note_off", "time": 104, "note": 60, "velocity": 101, "channel": 0}, {"type": "note_on", "time": 4, "note": 58, "velocity": 92, "channel": 0}, {"type": "note_off", "time": 62, "note": 58, "velocity": 92, "channel": 0}, {"type": "note_on", "time": 6, "note": 60, "velocity": 96, "channel": 0}, {"type": "note_off", "time": 108, "note": 60, "velocity": 96, "channel": 0}, {"type": "note_on", "time": 9, "note": 62, "velocity": 102, "channel": 0}, {"type": "note_off", "time": 68, "note": 62, "velocity": 102, "channel": 0}, {"type": "note_on", "time": 7, "note": 67, "velocity": 98, "channel": 0}, {"type": "note_off", "time": 96, "note": 67, "velocity": 98, "channel": 0}, {"type": "note_on", "time": 20, "note": 60, "velocity": 97, "channel": 0}, {"type": "note_off", "time": 84, "note": 60, "velocity": 97, "channel": 0}, {"type": "note_on", "time": 5, "note": 62, "velocity": 105, "channel": 0}, {"type": "note_off", "time": 67, "note": 62, "velocity": 105, "channel": 0}, {"type": "note_on", "time": 15, "note": 63, "velocity": 99, "channel": 0}, {"type": "note_off", "time": 118, "note": 63, "velocity": 99, "channel": 0}, {"type": "note_on", "time": 2, "note": 67, "velocity": 80, "channel": 0}, {"type": "note_off", "time": 46, "note": 67, "velocity": 80, "channel": 0}, {"type": "note_on", "time": 24, "note": 72, "velocity": 97, "channel": 0}, {"type": "note_off", "time": 111, "note": 72, "velocity": 97, "channel": 0}, {"type": "note_on", "time": 1, "note": 65, "velocity": 100, "channel": 0}, {"type": "note_off", "time": 150, "note": 65, "velocity": 100, "channel": 0}, {"type": "note_on", "time": 1018, "note": 74, "velocity": 96, "channel": 0}, {"type": "note_off", "time": 42, "note": 74, "velocity": 96, "channel": 0}, {"type": "note_on", "time": 8, "note": 72, "velocity": 101, "channel": 0}, {"type": "note_off", "time": 64, "note": 72, "velocity": 101, "channel": 0}, {"type": "note_on", "time": 11, "note": 67, "velocity": 93, "channel": 0}, {"type": "note_off", "time": 76, "note": 67, "velocity": 93, "channel": 0}, {"type": "note_on", "time": 3, "note": 70, "velocity": 104, "channel": 0}, {"type": "note_off", "time": 58, "note": 70, "velocity": 104, "channel": 0}, {"type": "note_on", "time": 5, "note": 69, "velocity": 98, "channel": 0}, {"type": "note_off", "time": 104, "note": 69, "velocity": 98, "channel": 0}, {"type": "note_on", "time": 4, "note": 66, "velocity": 101, "channel": 0}, {"type": "note_off", "time": 69, "note": 66, "velocity": 101, "channel": 0}, {"type": "note_on", "time": 11, "note": 65, "velocity": 103, "channel": 0}, {"type": "note_off", "time": 104, "note": 65, "velocity": 103, "channel": 0}, {"type": "note_on", "time": 11, "note": 63, "velocity": 104, "channel": 0}, {"type": "note_off", "time": 72, "note": 63, "velocity": 104, "channel": 0}, {"type": "note_on", "time": 7, "note": 62, "velocity": 99, "channel": 0}, {"type": "note_off", "time": 90, "note": 62, "velocity": 99, "channel": 0}, {"type": "note_on", "time": 8, "note": 64, "velocity": 110, "channel": 0}, {"type": "note_off", "time": 71, "note": 64, "velocity": 110, "channel": 0}, {"type": "note_on", "time": 7, "note": 66, "velocity": 86, "channel": 0}, {"type": "note_off", "time": 76, "note": 66, "velocity": 86, "channel": 0}, {"type": "note_on", "time": 19, "note": 69, "velocity": 97, "channel": 0}, {"type": "note_off", "time": 64, "note": 69, "velocity": 97, "channel": 0}, {"type": "note_on", "time": 32, "note": 76, "velocity": 102, "channel": 0}, {"type": "note_off", "time": 87, "note": 76, "velocity": 102, "channel": 0}, {"type": "note_on", "time": 4, "note": 74, "velocity": 97, "channel": 0}, {"type": "note_off", "time": 110, "note": 74, "velocity": 97, "channel": 0}, {"type": "note_on", "time": 582, "note": 77, "velocity": 91, "channel": 0}, {"type": "note_off", "time": 88, "note": 77, "velocity": 91, "channel": 0}, {"type": "note_on", "time": 1, "note": 76, "velocity": 106, "channel": 0}, {"type": "note_off", "time": 104, "note": 76, "velocity": 106, "channel": 0}, {"type": "note_on", "time": 8, "note": 75, "velocity": 100, "channel": 0}, {"type": "note_off", "time": 84, "note": 75, "velocity": 100, "channel": 0}, {"type": "note_on", "time": 6, "note": 74, "velocity": 95, "channel": 0}, {"type": "note_off", "time": 79, "note": 74, "velocity": 95, "channel": 0}, {"type": "note_on", "time": 9, "note": 73, "velocity": 100, "channel": 0}, {"type": "note_off", "time": 110, "note": 73, "velocity": 100, "channel": 0}, {"type": "note_on", "time": 8, "note": 69, "velocity": 103, "channel": 0}, {"type": "note_off", "time": 91, "note": 69, "velocity": 103, "channel": 0}, {"type": "note_on", "time": 0, "note": 66, "velocity": 96, "channel": 0}, {"type": "note_off", "time": 94, "note": 66, "velocity": 96, "channel": 0}, {"type": "note_on", "time": 7, "note": 64, "velocity": 82, "channel": 0}, {"type": "note_off", "time": 53, "note": 64, "velocity": 82, "channel": 0}, {"type": "note_on", "time": 30, "note": 71, "velocity": 107, "channel": 0}, {"type": "note_off", "time": 52, "note": 71, "velocity": 107, "channel": 0}, {"type": "note_on", "time": 6, "note": 73, "velocity": 100, "channel": 0}, {"type": "note_off", "time": 75, "note": 73, "velocity": 100, "channel": 0}, {"type": "note_on", "time": 2, "note": 71, "velocity": 100, "channel": 0}, {"type": "note_off", "time": 64, "note": 71, "velocity": 100, "channel": 0}, {"type": "note_on", "time": 13, "note": 67, "velocity": 90, "channel": 0}, {"type": "note_off", "time": 86, "note": 67, "velocity": 90, "channel": 0}, {"type": "note_on", "time": 4, "note": 71, "velocity": 104, "channel": 0}, {"type": "note_off", "time": 82, "note": 71, "velocity": 104, "channel": 0}, {"type": "note_on", "time": 8, "note": 70, "velocity": 97, "channel": 0}, {"type": "note_off", "time": 84, "note": 70, "velocity": 97, "channel": 0}, {"type": "note_on", "time": 13, "note": 67, "velocity": 104, "channel": 0}, {"type": "note_off", "time": 68, "note": 67, "velocity": 104, "channel": 0}, {"type": "note_on", "time": 3, "note": 63, "velocity": 102, "channel": 0}, {"type": "note_off", "time": 110, "note": 63, "velocity": 102, "channel": 0}, {"type": "note_on", "time": 81, "note": 69, "velocity": 106, "channel": 0}, {"type": "note_off", "time": 56, "note": 69, "velocity": 106, "channel": 0}, {"type": "note_on", "time": 3, "note": 71, "velocity": 101, "channel": 0}, {"type": "note_off", "time": 64, "note": 71, "velocity": 101, "channel": 0}, {"type": "note_on", "time": 3, "note": 69, "velocity": 102, "channel": 0}, {"type": "note_off", "time": 50, "note": 69, "velocity": 102, "channel": 0}, {"type": "note_on", "time": 8, "note": 66, "velocity": 95, "channel": 0}, {"type": "note_off", "time": 76, "note": 66, "velocity": 95, "channel": 0}, {"type": "note_on", "time": 4, "note": 69, "velocity": 104, "channel": 0}, {"type": "note_off", "time": 124, "note": 69, "velocity": 104, "channel": 0}, {"type": "note_on", "time": 11, "note": 68, "velocity": 105, "channel": 0}, {"type": "note_off", "time": 75, "note": 68, "velocity": 105, "channel": 0}, {"type": "note_on", "time": 17, "note": 65, "velocity": 94, "channel": 0}, {"type": "note_off", "time": 65, "note": 65, "velocity": 94, "channel": 0}, {"type": "note_on", "time": 192, "note": 67, "velocity": 102, "channel": 0}, {"type": "note_off", "time": 91, "note": 67, "velocity": 102, "channel": 0}, {"type": "note_on", "time": 301, "note": 67, "velocity": 104, "channel": 0}, {"type": "note_off", "time": 85, "note": 67, "velocity": 104, "channel": 0}, {"type": "note_on", "time": 4, "note": 69, "velocity": 102, "channel": 0}, {"type": "note_off", "time": 109, "note": 69, "velocity": 102, "channel": 0}, {"type": "note_on", "time": 4, "note": 70, "velocity": 99, "channel": 0}, {"type": "note_off", "time": 49, "note": 70, "velocity": 99, "channel": 0}, {"type": "note_on", "time": 14, "note": 72, "velocity": 98, "channel": 0}, {"type": "note_off", "time": 100, "note": 72, "velocity": 98, "channel": 0}, {"type": "note_on", "time": 10, "note": 68, "velocity": 100, "channel": 0}, {"type": "note_off", "time": 73, "note": 68, "velocity": 100, "channel": 0}, {"type": "note_on", "time": 6, "note": 69, "velocity": 98, "channel": 0}, {"type": "note_off", "time": 96, "note": 69, "velocity": 98, "channel": 0}, {"type": "note_on", "time": 3, "note": 65, "velocity": 96, "channel": 0}, {"type": "note_off", "time": 92, "note": 65, "velocity": 96, "channel": 0}, {"type": "note_on", "time": 13, "note": 72, "velocity": 95, "channel": 0}, {"type": "note_off", "time": 53, "note": 72, "velocity": 95, "channel": 0}, {"type": "note_on", "time": 12, "note": 74, "velocity": 100, "channel": 0}, {"type": "note_off", "time": 172, "note": 74, "velocity": 100, "channel": 0}, {"type": "note_on", "time": 50, "note": 65, "velocity": 88, "channel": 0}, {"type": "note_off", "time": 90, "note": 65, "velocity": 88, "channel": 0}, {"type": "note_on", "time": 97, "note": 67, "velocity": 100, "channel": 0}, {"type": "note_off", "time": 204, "note": 67, "velocity": 100, "channel": 0}, {"type": "note_on", "time": 1578, "note": 65, "velocity": 96, "channel": 0}, {"type": "note_off", "time": 49, "note": 65, "velocity": 96, "channel": 0}, {"type": "note_on", "time": 67, "note": 68, "velocity": 103, "channel": 0}, {"type": "note_off", "time": 124, "note": 68, "velocity": 103, "channel": 0}, {"type": "note_on", "time": 8, "note": 65, "velocity": 105, "channel": 0}, {"type": "note_off", "time": 216, "note": 65, "velocity": 105, "channel": 0}, {"type": "note_on", "time": 591, "note": 69, "velocity": 99, "channel": 0}, {"type": "note_off", "time": 52, "note": 69, "velocity": 99, "channel": 0}, {"type": "note_on", "time": 14, "note": 72, "velocity": 99, "channel": 0}, {"type": "note_off", "time": 288, "note": 72, "velocity": 99, "channel": 0}, {"type": "note_on", "time": 76, "note": 68, "velocity": 85, "channel": 0}, {"type": "note_off", "time": 56, "note": 68, "velocity": 85, "channel": 0}, {"type": "note_on", "time": 28, "note": 65, "velocity": 83, "channel": 0}, {"type": "note_off", "time": 63, "note": 65, "velocity": 83, "channel": 0}, {"type": "note_on", "time": 16, "note": 68, "velocity": 104, "channel": 0}, {"type": "note_off", "time": 171, "note": 68, "velocity": 104, "channel": 0}, {"type": "note_on", "time": 6, "note": 65, "velocity": 90, "channel": 0}, {"type": "note_off", "time": 119, "note": 65, "velocity": 90, "channel": 0}, {"type": "note_on", "time": 15, "note": 62, "velocity": 101, "channel": 0}, {"type": "note_off", "time": 238, "note": 62, "velocity": 101, "channel": 0}, {"type": "note_on", "time": 682, "note": 76, "velocity": 107, "channel": 0}, {"type": "note_off", "time": 100, "note": 76, "velocity": 107, "channel": 0}, {"type": "note_on", "time": 97, "note": 79, "velocity": 109, "channel": 0}, {"type": "note_off", "time": 88, "note": 79, "velocity": 109, "channel": 0}, {"type": "note_on", "time": 8, "note": 80, "velocity": 85, "channel": 0}, {"type": "note_off", "time": 27, "note": 80, "velocity": 85, "channel": 0}, {"type": "note_on", "time": 5, "note": 76, "velocity": 92, "channel": 0}, {"type": "note_off", "time": 73, "note": 76, "velocity": 92, "channel": 0}, {"type": "note_on", "time": 4, "note": 72, "velocity": 95, "channel": 0}, {"type": "note_off", "time": 68, "note": 72, "velocity": 95, "channel": 0}, {"type": "note_on", "time": 8, "note": 68, "velocity": 104, "channel": 0}, {"type": "note_off", "time": 87, "note": 68, "velocity": 104, "channel": 0}, {"type": "note_on", "time": 112, "note": 69, "velocity": 98, "channel": 0}, {"type": "note_off", "time": 61, "note": 69, "velocity": 98, "channel": 0}, {"type": "note_on", "time": 3, "note": 70, "velocity": 102, "channel": 0}, {"type": "note_off", "time": 53, "note": 70, "velocity": 102, "channel": 0}, {"type": "note_on", "time": 8, "note": 72, "velocity": 96, "channel": 0}, {"type": "note_off", "time": 55, "note": 72, "velocity": 96, "channel": 0}, {"type": "note_on", "time": 10, "note": 74, "velocity": 95, "channel": 0}, {"type": "note_off", "time": 103, "note": 74, "velocity": 95, "channel": 0}, {"type": "note_on", "time": 0, "note": 73, "velocity": 101, "channel": 0}, {"type": "note_off", "time": 43, "note": 73, "velocity": 101, "channel": 0}, {"type": "note_on", "time": 1, "note": 72, "velocity": 101, "channel": 0}, {"type": "note_off", "time": 86, "note": 72, "velocity": 101, "channel": 0}, {"type": "note_on", "time": 2, "note": 71, "velocity": 96, "channel": 0}, {"type": "note_off", "time": 60, "note": 71, "velocity": 96, "channel": 0}, {"type": "note_on", "time": 1, "note": 70, "velocity": 104, "channel": 0}, {"type": "note_off", "time": 84, "note": 70, "velocity": 104, "channel": 0}, {"type": "note_on", "time": 1, "note": 69, "velocity": 104, "channel": 0}, {"type": "note_off", "time": 112, "note": 69, "velocity": 104, "channel": 0}, {"type": "note_on", "time": 11, "note": 68, "velocity": 108, "channel": 0}, {"type": "note_off", "time": 109, "note": 68, "velocity": 108, "channel": 0}, {"type": "note_on", "time": 9, "note": 67, "velocity": 98, "channel": 0}, {"type": "note_off", "time": 42, "note": 67, "velocity": 98, "channel": 0}, {"type": "note_on", "time": 9, "note": 66, "velocity": 97, "channel": 0}, {"type": "note_off", "time": 100, "note": 66, "velocity": 97, "channel": 0}, {"type": "note_on", "time": 2, "note": 65, "velocity": 96, "channel": 0}, {"type": "note_off", "time": 85, "note": 65, "velocity": 96, "channel": 0}, {"type": "note_on", "time": 3, "note": 69, "velocity": 104, "channel": 0}, {"type": "note_off", "time": 65, "note": 69, "velocity": 104, "channel": 0}, {"type": "note_on", "time": 7, "note": 64, "velocity": 104, "channel": 0}, {"type": "note_off", "time": 134, "note": 64, "velocity": 104, "channel": 0}, {"type": "note_on", "time": 5, "note": 61, "velocity": 90, "channel": 0}, {"type": "note_off", "time": 59, "note": 61, "velocity": 90, "channel": 0}, {"type": "note_on", "time": 4, "note": 62, "velocity": 102, "channel": 0}, {"type": "note_off", "time": 65, "note": 62, "velocity": 102, "channel": 0}, {"type": "note_on", "time": 14, "note": 64, "velocity": 110, "channel": 0}, {"type": "note_off", "time": 90, "note": 64, "velocity": 110, "channel": 0}, {"type": "note_on", "time": 13, "note": 65, "velocity": 102, "channel": 0}, {"type": "note_off", "time": 87, "note": 65, "velocity": 102, "channel": 0}, {"type": "note_on", "time": 4, "note": 67, "velocity": 102, "channel": 0}, {"type": "note_off", "time": 123, "note": 67, "velocity": 102, "channel": 0}, {"type": "note_on", "time": 3, "note": 68, "velocity": 102, "channel": 0}, {"type": "note_off", "time": 92, "note": 68, "velocity": 102, "channel": 0}, {"type": "note_on", "time": 7, "note": 67, "velocity": 103, "channel": 0}, {"type": "note_off", "time": 47, "note": 67, "velocity": 103, "channel": 0}, {"type": "note_on", "time": 7, "note": 68, "velocity": 105, "channel": 0}, {"type": "note_off", "time": 53, "note": 68, "velocity": 105, "channel": 0}, {"type": "note_on", "time": 2, "note": 67, "velocity": 100, "channel": 0}, {"type": "note_off", "time": 61, "note": 67, "velocity": 100, "channel": 0}, {"type": "note_on", "time": 6, "note": 62, "velocity": 103, "channel": 0}, {"type": "note_off", "time": 84, "note": 62, "velocity": 103, "channel": 0}, {"type": "note_on", "time": 6, "note": 58, "velocity": 93, "channel": 0}, {"type": "note_off", "time": 93, "note": 58, "velocity": 93, "channel": 0}, {"type": "note_on", "time": 26, "note": 55, "velocity": 82, "channel": 0}, {"type": "note_off", "time": 61, "note": 55, "velocity": 82, "channel": 0}, {"type": "note_on", "time": 12, "note": 60, "velocity": 105, "channel": 0}, {"type": "note_off", "time": 108, "note": 60, "velocity": 105, "channel": 0}, {"type": "note_on", "time": 6, "note": 57, "velocity": 93, "channel": 0}, {"type": "note_off", "time": 45, "note": 57, "velocity": 93, "channel": 0}, {"type": "note_on", "time": 13, "note": 58, "velocity": 88, "channel": 0}, {"type": "note_off", "time": 112, "note": 58, "velocity": 88, "channel": 0}, {"type": "note_on", "time": 2, "note": 62, "velocity": 92, "channel": 0}, {"type": "note_off", "time": 28, "note": 62, "velocity": 92, "channel": 0}, {"type": "note_on", "time": 3, "note": 66, "velocity": 86, "channel": 0}, {"type": "note_off", "time": 48, "note": 66, "velocity": 86, "channel": 0}, {"type": "note_on", "time": 12, "note": 69, "velocity": 100, "channel": 0}, {"type": "note_off", "time": 109, "note": 69, "velocity": 100, "channel": 0}, {"type": "note_on", "time": 10, "note": 72, "velocity": 101, "channel": 0}, {"type": "note_off", "time": 60, "note": 72, "velocity": 101, "channel": 0}, {"type": "note_on", "time": 134, "note": 66, "velocity": 101, "channel": 0}, {"type": "note_off", "time": 80, "note": 66, "velocity": 101, "channel": 0}, {"type": "note_on", "time": 586, "note": 67, "velocity": 93, "channel": 0}, {"type": "note_off", "time": 40, "note": 67, "velocity": 93, "channel": 0}, {"type": "note_on", "time": 5, "note": 71, "velocity": 97, "channel": 0}, {"type": "note_off", "time": 48, "note": 71, "velocity": 97, "channel": 0}, {"type": "note_on", "time": 11, "note": 74, "velocity": 100, "channel": 0}, {"type": "note_off", "time": 97, "note": 74, "velocity": 100, "channel": 0}, {"type": "note_on", "time": 8, "note": 73, "velocity": 104, "channel": 0}, {"type": "note_off", "time": 52, "note": 73, "velocity": 104, "channel": 0}, {"type": "note_on", "time": 16, "note": 69, "velocity": 102, "channel": 0}, {"type": "note_off", "time": 93, "note": 69, "velocity": 102, "channel": 0}, {"type": "note_on", "time": 8, "note": 66, "velocity": 94, "channel": 0}, {"type": "note_off", "time": 35, "note": 66, "velocity": 94, "channel": 0}, {"type": "note_on", "time": 13, "note": 68, "velocity": 106, "channel": 0}, {"type": "note_off", "time": 38, "note": 68, "velocity": 106, "channel": 0}, {"type": "note_on", "time": 10, "note": 71, "velocity": 99, "channel": 0}, {"type": "note_off", "time": 79, "note": 71, "velocity": 99, "channel": 0}, {"type": "note_on", "time": 18, "note": 64, "velocity": 99, "channel": 0}, {"type": "note_off", "time": 88, "note": 64, "velocity": 99, "channel": 0}, {"type": "note_on", "time": 5, "note": 66, "velocity": 94, "channel": 0}, {"type": "note_off", "time": 71, "note": 66, "velocity": 94, "channel": 0}, {"type": "note_on", "time": 31, "note": 69, "velocity": 100, "channel": 0}, {"type": "note_off", "time": 96, "note": 69, "velocity": 100, "channel": 0}, {"type": "note_on", "time": 5, "note": 68, "velocity": 102, "channel": 0}, {"type": "note_off", "time": 55, "note": 68, "velocity": 102, "channel": 0}, {"type": "note_on", "time": 4, "note": 63, "velocity": 100, "channel": 0}, {"type": "note_off", "time": 80, "note": 63, "velocity": 100, "channel": 0}, {"type": "note_on", "time": 4, "note": 64, "velocity": 96, "channel": 0}, {"type": "note_off", "time": 45, "note": 64, "velocity": 96, "channel": 0}, {"type": "note_on", "time": 8, "note": 67, "velocity": 101, "channel": 0}, {"type": "note_off", "time": 84, "note": 67, "velocity": 101, "channel": 0}, {"type": "note_on", "time": 14, "note": 66, "velocity": 93, "channel": 0}, {"type": "note_off", "time": 95, "note": 66, "velocity": 93, "channel": 0}, {"type": "note_on", "time": 5, "note": 64, "velocity": 99, "channel": 0}, {"type": "note_off", "time": 65, "note": 64, "velocity": 99, "channel": 0}, {"type": "note_on", "time": 10, "note": 65, "velocity": 103, "channel": 0}, {"type": "note_off", "time": 96, "note": 65, "velocity": 103, "channel": 0}, {"type": "note_on", "time": 5, "note": 63, "velocity": 99, "channel": 0}, {"type": "note_off", "time": 101, "note": 63, "velocity": 99, "channel": 0}, {"type": "note_on", "time": 11, "note": 62, "velocity": 99, "channel": 0}, {"type": "note_off", "time": 72, "note": 62, "velocity": 99, "channel": 0}, {"type": "note_on", "time": 8, "note": 60, "velocity": 103, "channel": 0}, {"type": "note_off", "time": 80, "note": 60, "velocity": 103, "channel": 0}, {"type": "note_on", "time": 13, "note": 59, "velocity": 91, "channel": 0}, {"type": "note_off", "time": 81, "note": 59, "velocity": 91, "channel": 0}, {"type": "note_on", "time": 6, "note": 68, "velocity": 108, "channel": 0}, {"type": "note_off", "time": 50, "note": 68, "velocity": 108, "channel": 0}, {"type": "note_on", "time": 12, "note": 70, "velocity": 98, "channel": 0}, {"type": "note_off", "time": 54, "note": 70, "velocity": 98, "channel": 0}, {"type": "note_on", "time": 4, "note": 67, "velocity": 101, "channel": 0}, {"type": "note_off", "time": 75, "note": 67, "velocity": 101, "channel": 0}, {"type": "note_on", "time": 5, "note": 62, "velocity": 37, "channel": 0}, {"type": "note_off", "time": 58, "note": 62, "velocity": 37, "channel": 0}, {"type": "note_on", "time": 4, "note": 65, "velocity": 99, "channel": 0}, {"type": "note_off", "time": 117, "note": 65, "velocity": 99, "channel": 0}, {"type": "note_on", "time": 1, "note": 63, "velocity": 97, "channel": 0}, {"type": "note_off", "time": 124, "note": 63, "velocity": 97, "channel": 0}, {"type": "note_on", "time": 1, "note": 58, "velocity": 90, "channel": 0}, {"type": "note_off", "time": 104, "note": 58, "velocity": 90, "channel": 0}, {"type": "note_on", "time": 62, "note": 62, "velocity": 102, "channel": 0}, {"type": "note_off", "time": 115, "note": 62, "velocity": 102, "channel": 0}, {"type": "note_on", "time": 0, "note": 62, "velocity": 80, "channel": 0}, {"type": "note_off", "time": 0, "note": 62, "velocity": 80, "channel": 0}, {"type": "note_on", "time": 87, "note": 57, "velocity": 92, "channel": 0}, {"type": "note_off", "time": 84, "note": 57, "velocity": 92, "channel": 0}, {"type": "note_on", "time": 13, "note": 60, "velocity": 100, "channel": 0}, {"type": "note_off", "time": 92, "note": 60, "velocity": 100, "channel": 0}, {"type": "note_on", "time": 96, "note": 58, "velocity": 90, "channel": 0}, {"type": "note_off", "time": 88, "note": 58, "velocity": 90, "channel": 0}, {"type": "note_on", "time": 128, "note": 53, "velocity": 84, "channel": 0}, {"type": "note_off", "time": 30, "note": 53, "velocity": 84, "channel": 0}, {"type": "note_on", "time": 6, "note": 57, "velocity": 93, "channel": 0}, {"type": "note_off", "time": 121, "note": 57, "velocity": 93, "channel": 0}, {"type": "note_on", "time": 16, "note": 55, "velocity": 91, "channel": 0}, {"type": "note_off", "time": 75, "note": 55, "velocity": 91, "channel": 0}, {"type": "note_on", "time": 897, "note": 52, "velocity": 102, "channel": 0}, {"type": "note_off", "time": 72, "note": 52, "velocity": 102, "channel": 0}, {"type": "note_on", "time": 2, "note": 54, "velocity": 97, "channel": 0}, {"type": "note_off", "time": 55, "note": 54, "velocity": 97, "channel": 0}, {"type": "note_on", "time": 16, "note": 56, "velocity": 100, "channel": 0}, {"type": "note_off", "time": 113, "note": 56, "velocity": 100, "channel": 0}, {"type": "note_on", "time": 9, "note": 57, "velocity": 97, "channel": 0}, {"type": "note_off", "time": 94, "note": 57, "velocity": 97, "channel": 0}, {"type": "note_on", "time": 4, "note": 59, "velocity": 93, "channel": 0}, {"type": "note_off", "time": 80, "note": 59, "velocity": 93, "channel": 0}, {"type": "note_on", "time": 8, "note": 61, "velocity": 98, "channel": 0}, {"type": "note_off", "time": 67, "note": 61, "velocity": 98, "channel": 0}, {"type": "note_on", "time": 5, "note": 63, "velocity": 104, "channel": 0}, {"type": "note_off", "time": 97, "note": 63, "velocity": 104, "channel": 0}, {"type": "note_on", "time": 8, "note": 64, "velocity": 100, "channel": 0}, {"type": "note_off", "time": 80, "note": 64, "velocity": 100, "channel": 0}, {"type": "note_on", "time": 12, "note": 66, "velocity": 100, "channel": 0}, {"type": "note_off", "time": 56, "note": 66, "velocity": 100, "channel": 0}, {"type": "note_on", "time": 11, "note": 67, "velocity": 97, "channel": 0}, {"type": "note_off", "time": 99, "note": 67, "velocity": 97, "channel": 0}, {"type": "note_on", "time": 18, "note": 63, "velocity": 98, "channel": 0}, {"type": "note_off", "time": 92, "note": 63, "velocity": 98, "channel": 0}, {"type": "note_on", "time": 8, "note": 58, "velocity": 92, "channel": 0}, {"type": "note_off", "time": 92, "note": 58, "velocity": 92, "channel": 0}, {"type": "note_on", "time": 8, "note": 54, "velocity": 88, "channel": 0}, {"type": "note_off", "time": 72, "note": 54, "velocity": 88, "channel": 0}, {"type": "note_on", "time": 13, "note": 61, "velocity": 102, "channel": 0}, {"type": "note_off", "time": 87, "note": 61, "velocity": 102, "channel": 0}, {"type": "note_on", "time": 8, "note": 60, "velocity": 100, "channel": 0}, {"type": "note_off", "time": 88, "note": 60, "velocity": 100, "channel": 0}, {"type": "note_on", "time": 0, "note": 59, "velocity": 93, "channel": 0}, {"type": "note_off", "time": 75, "note": 59, "velocity": 93, "channel": 0}, {"type": "note_on", "time": 2, "note": 57, "velocity": 99, "channel": 0}, {"type": "note_off", "time": 83, "note": 57, "velocity": 99, "channel": 0}, {"type": "note_on", "time": 6, "note": 56, "velocity": 99, "channel": 0}, {"type": "note_off", "time": 93, "note": 56, "velocity": 99, "channel": 0}, {"type": "note_on", "time": 9, "note": 54, "velocity": 99, "channel": 0}, {"type": "note_off", "time": 76, "note": 54, "velocity": 99, "channel": 0}, {"type": "note_on", "time": 12, "note": 53, "velocity": 98, "channel": 0}, {"type": "note_off", "time": 78, "note": 53, "velocity": 98, "channel": 0}, {"type": "note_on", "time": 6, "note": 52, "velocity": 102, "channel": 0}, {"type": "note_off", "time": 93, "note": 52, "velocity": 102, "channel": 0}, {"type": "note_on", "time": 16, "note": 51, "velocity": 100, "channel": 0}, {"type": "note_off", "time": 65, "note": 51, "velocity": 100, "channel": 0}, {"type": "note_on", "time": 8, "note": 52, "velocity": 100, "channel": 0}, {"type": "note_off", "time": 100, "note": 52, "velocity": 100, "channel": 0}, {"type": "note_on", "time": 20, "note": 54, "velocity": 94, "channel": 0}, {"type": "note_off", "time": 69, "note": 54, "velocity": 94, "channel": 0}, {"type": "note_on", "time": 8, "note": 56, "velocity": 102, "channel": 0}, {"type": "note_off", "time": 80, "note": 56, "velocity": 102, "channel": 0}, {"type": "note_on", "time": 13, "note": 57, "velocity": 97, "channel": 0}, {"type": "note_off", "time": 93, "note": 57, "velocity": 97, "channel": 0}, {"type": "note_on", "time": 9, "note": 55, "velocity": 95, "channel": 0}, {"type": "note_off", "time": 72, "note": 55, "velocity": 95, "channel": 0}, {"type": "note_on", "time": 8, "note": 56, "velocity": 97, "channel": 0}, {"type": "note_off", "time": 99, "note": 56, "velocity": 97, "channel": 0}, {"type": "note_on", "time": 5, "note": 58, "velocity": 90, "channel": 0}, {"type": "note_off", "time": 71, "note": 58, "velocity": 90, "channel": 0}, {"type": "note_on", "time": 3, "note": 59, "velocity": 94, "channel": 0}, {"type": "note_off", "time": 68, "note": 59, "velocity": 94, "channel": 0}, {"type": "note_on", "time": 15, "note": 61, "velocity": 96, "channel": 0}, {"type": "note_off", "time": 95, "note": 61, "velocity": 96, "channel": 0}, {"type": "note_on", "time": 1, "note": 63, "velocity": 97, "channel": 0}, {"type": "note_off", "time": 105, "note": 63, "velocity": 97, "channel": 0}, {"type": "note_on", "time": 1, "note": 64, "velocity": 102, "channel": 0}, {"type": "note_off", "time": 95, "note": 64, "velocity": 102, "channel": 0}, {"type": "note_on", "time": 15, "note": 66, "velocity": 95, "channel": 0}, {"type": "note_off", "time": 70, "note": 66, "velocity": 95, "channel": 0}, {"type": "note_on", "time": 10, "note": 68, "velocity": 95, "channel": 0}, {"type": "note_off", "time": 117, "note": 68, "velocity": 95, "channel": 0}, {"type": "note_on", "time": 10, "note": 69, "velocity": 91, "channel": 0}, {"type": "note_off", "time": 72, "note": 69, "velocity": 91, "channel": 0}, {"type": "note_on", "time": 8, "note": 71, "velocity": 91, "channel": 0}, {"type": "note_off", "time": 89, "note": 71, "velocity": 91, "channel": 0}, {"type": "note_on", "time": 5, "note": 73, "velocity": 87, "channel": 0}, {"type": "note_off", "time": 143, "note": 73, "velocity": 87, "channel": 0}, {"type": "note_on", "time": 11, "note": 65, "velocity": 86, "channel": 0}, {"type": "note_off", "time": 92, "note": 65, "velocity": 86, "channel": 0}, {"type": "note_on", "time": 9, "note": 66, "velocity": 89, "channel": 0}, {"type": "note_off", "time": 95, "note": 66, "velocity": 89, "channel": 0}, {"type": "note_on", "time": 14, "note": 70, "velocity": 99, "channel": 0}, {"type": "note_off", "time": 66, "note": 70, "velocity": 99, "channel": 0}, {"type": "note_on", "time": 13, "note": 67, "velocity": 92, "channel": 0}, {"type": "note_off", "time": 105, "note": 67, "velocity": 92, "channel": 0}, {"type": "note_on", "time": 7, "note": 68, "velocity": 91, "channel": 0}, {"type": "note_off", "time": 84, "note": 68, "velocity": 91, "channel": 0}, {"type": "note_on", "time": 4, "note": 69, "velocity": 104, "channel": 0}, {"type": "note_off", "time": 72, "note": 69, "velocity": 104, "channel": 0}, {"type": "note_on", "time": 143, "note": 64, "velocity": 92, "channel": 0}, {"type": "note_off", "time": 35, "note": 64, "velocity": 92, "channel": 0}, {"type": "note_on", "time": 35, "note": 68, "velocity": 104, "channel": 0}, {"type": "note_off", "time": 76, "note": 68, "velocity": 104, "channel": 0}, {"type": "note_on", "time": 33, "note": 66, "velocity": 102, "channel": 0}, {"type": "note_off", "time": 64, "note": 66, "velocity": 102, "channel": 0}, {"type": "note_on", "time": 4, "note": 65, "velocity": 97, "channel": 0}, {"type": "note_off", "time": 97, "note": 65, "velocity": 97, "channel": 0}, {"type": "note_on", "time": 8, "note": 63, "velocity": 98, "channel": 0}, {"type": "note_off", "time": 92, "note": 63, "velocity": 98, "channel": 0}, {"type": "note_on", "time": 7, "note": 62, "velocity": 94, "channel": 0}, {"type": "note_off", "time": 97, "note": 62, "velocity": 94, "channel": 0}, {"type": "note_on", "time": 12, "note": 61, "velocity": 96, "channel": 0}, {"type": "note_off", "time": 59, "note": 61, "velocity": 96, "channel": 0}, {"type": "note_on", "time": 15, "note": 59, "velocity": 96, "channel": 0}, {"type": "note_off", "time": 76, "note": 59, "velocity": 96, "channel": 0}, {"type": "note_on", "time": 242, "note": 60, "velocity": 102, "channel": 0}, {"type": "note_off", "time": 67, "note": 60, "velocity": 102, "channel": 0}, {"type": "note_on", "time": 80, "note": 63, "velocity": 100, "channel": 0}, {"type": "note_off", "time": 83, "note": 63, "velocity": 100, "channel": 0}, {"type": "note_on", "time": 3, "note": 61, "velocity": 94, "channel": 0}, {"type": "note_off", "time": 73, "note": 61, "velocity": 94, "channel": 0}, {"type": "note_on", "time": 218, "note": 64, "velocity": 101, "channel": 0}, {"type": "note_off", "time": 89, "note": 64, "velocity": 101, "channel": 0}, {"type": "note_on", "time": 74, "note": 67, "velocity": 101, "channel": 0}, {"type": "note_off", "time": 101, "note": 67, "velocity": 101, "channel": 0}, {"type": "note_on", "time": 1, "note": 66, "velocity": 95, "channel": 0}, {"type": "note_off", "time": 88, "note": 66, "velocity": 95, "channel": 0}, {"type": "note_on", "time": 196, "note": 68, "velocity": 103, "channel": 0}, {"type": "note_off", "time": 66, "note": 68, "velocity": 103, "channel": 0}, {"type": "note_on", "time": 126, "note": 71, "velocity": 104, "channel": 0}, {"type": "note_off", "time": 65, "note": 71, "velocity": 104, "channel": 0}, {"type": "note_on", "time": 115, "note": 69, "velocity": 103, "channel": 0}, {"type": "note_off", "time": 69, "note": 69, "velocity": 103, "channel": 0}, {"type": "note_on", "time": 144, "note": 66, "velocity": 81, "channel": 0}, {"type": "note_off", "time": 20, "note": 66, "velocity": 81, "channel": 0}, {"type": "note_on", "time": 43, "note": 71, "velocity": 100, "channel": 0}, {"type": "note_off", "time": 122, "note": 71, "velocity": 100, "channel": 0}, {"type": "note_on", "time": 6, "note": 67, "velocity": 81, "channel": 0}, {"type": "note_off", "time": 58, "note": 67, "velocity": 81, "channel": 0}, {"type": "note_on", "time": 12, "note": 74, "velocity": 97, "channel": 0}, {"type": "note_off", "time": 96, "note": 74, "velocity": 97, "channel": 0}, {"type": "note_on", "time": 80, "note": 73, "velocity": 99, "channel": 0}, {"type": "note_off", "time": 91, "note": 73, "velocity": 99, "channel": 0}, {"type": "note_on", "time": 483, "note": 69, "velocity": 102, "channel": 0}, {"type": "note_off", "time": 91, "note": 69, "velocity": 102, "channel": 0}, {"type": "note_on", "time": 9, "note": 72, "velocity": 95, "channel": 0}, {"type": "note_off", "time": 87, "note": 72, "velocity": 95, "channel": 0}, {"type": "note_on", "time": 3, "note": 71, "velocity": 99, "channel": 0}, {"type": "note_off", "time": 86, "note": 71, "velocity": 99, "channel": 0}, {"type": "note_on", "time": 36, "note": 68, "velocity": 105, "channel": 0}, {"type": "note_off", "time": 59, "note": 68, "velocity": 105, "channel": 0}, {"type": "note_on", "time": 8, "note": 67, "velocity": 95, "channel": 0}, {"type": "note_off", "time": 71, "note": 67, "velocity": 95, "channel": 0}, {"type": "note_on", "time": 31, "note": 70, "velocity": 98, "channel": 0}, {"type": "note_off", "time": 72, "note": 70, "velocity": 98, "channel": 0}, {"type": "note_on", "time": 132, "note": 68, "velocity": 105, "channel": 0}, {"type": "note_off", "time": 64, "note": 68, "velocity": 105, "channel": 0}, {"type": "note_on", "time": 8, "note": 69, "velocity": 101, "channel": 0}, {"type": "note_off", "time": 72, "note": 69, "velocity": 101, "channel": 0}, {"type": "note_on", "time": 106, "note": 64, "velocity": 101, "channel": 0}, {"type": "note_off", "time": 104, "note": 64, "velocity": 101, "channel": 0}, {"type": "note_on", "time": 10, "note": 68, "velocity": 108, "channel": 0}, {"type": "note_off", "time": 56, "note": 68, "velocity": 108, "channel": 0}, {"type": "note_on", "time": 4, "note": 67, "velocity": 96, "channel": 0}, {"type": "note_off", "time": 52, "note": 67, "velocity": 96, "channel": 0}, {"type": "note_on", "time": 4, "note": 66, "velocity": 98, "channel": 0}, {"type": "note_off", "time": 64, "note": 66, "velocity": 98, "channel": 0}, {"type": "note_on", "time": 2, "note": 63, "velocity": 99, "channel": 0}, {"type": "note_off", "time": 104, "note": 63, "velocity": 99, "channel": 0}, {"type": "note_on", "time": 2, "note": 58, "velocity": 92, "channel": 0}, {"type": "note_off", "time": 92, "note": 58, "velocity": 92, "channel": 0}, {"type": "note_on", "time": 16, "note": 54, "velocity": 91, "channel": 0}, {"type": "note_off", "time": 63, "note": 54, "velocity": 91, "channel": 0}, {"type": "note_on", "time": 4, "note": 59, "velocity": 93, "channel": 0}, {"type": "note_off", "time": 76, "note": 59, "velocity": 93, "channel": 0}, {"type": "note_on", "time": 3, "note": 61, "velocity": 100, "channel": 0}, {"type": "note_off", "time": 46, "note": 61, "velocity": 100, "channel": 0}, {"type": "note_on", "time": 4, "note": 63, "velocity": 101, "channel": 0}, {"type": "note_off", "time": 56, "note": 63, "velocity": 101, "channel": 0}, {"type": "note_on", "time": 9, "note": 65, "velocity": 93, "channel": 0}, {"type": "note_off", "time": 41, "note": 65, "velocity": 93, "channel": 0}, {"type": "note_on", "time": 12, "note": 67, "velocity": 104, "channel": 0}, {"type": "note_off", "time": 51, "note": 67, "velocity": 104, "channel": 0}, {"type": "note_on", "time": 4, "note": 69, "velocity": 98, "channel": 0}, {"type": "note_off", "time": 56, "note": 69, "velocity": 98, "channel": 0}, {"type": "note_on", "time": 8, "note": 64, "velocity": 104, "channel": 0}, {"type": "note_off", "time": 91, "note": 64, "velocity": 104, "channel": 0}, {"type": "note_on", "time": 12, "note": 66, "velocity": 91, "channel": 0}, {"type": "note_off", "time": 76, "note": 66, "velocity": 91, "channel": 0}, {"type": "note_on", "time": 7, "note": 69, "velocity": 102, "channel": 0}, {"type": "note_off", "time": 109, "note": 69, "velocity": 102, "channel": 0}, {"type": "note_on", "time": 6, "note": 71, "velocity": 101, "channel": 0}, {"type": "note_off", "time": 85, "note": 71, "velocity": 101, "channel": 0}, {"type": "note_on", "time": 7, "note": 68, "velocity": 104, "channel": 0}, {"type": "note_off", "time": 85, "note": 68, "velocity": 104, "channel": 0}, {"type": "note_on", "time": 7, "note": 69, "velocity": 99, "channel": 0}, {"type": "note_off", "time": 83, "note": 69, "velocity": 99, "channel": 0}, {"type": "note_on", "time": 0, "note": 73, "velocity": 100, "channel": 0}, {"type": "note_off", "time": 108, "note": 73, "velocity": 100, "channel": 0}, {"type": "note_on", "time": 4, "note": 75, "velocity": 96, "channel": 0}, {"type": "note_off", "time": 314, "note": 75, "velocity": 96, "channel": 0}, {"type": "note_on", "time": 4, "note": 73, "velocity": 102, "channel": 0}, {"type": "note_off", "time": 85, "note": 73, "velocity": 102, "channel": 0}, {"type": "note_on", "time": 5, "note": 75, "velocity": 94, "channel": 0}, {"type": "note_off", "time": 269, "note": 75, "velocity": 94, "channel": 0}, {"type": "note_on", "time": 11, "note": 73, "velocity": 100, "channel": 0}, {"type": "note_off", "time": 83, "note": 73, "velocity": 100, "channel": 0}, {"type": "note_on", "time": 3, "note": 71, "velocity": 98, "channel": 0}, {"type": "note_off", "time": 249, "note": 71, "velocity": 98, "channel": 0}, {"type": "note_on", "time": 12, "note": 69, "velocity": 99, "channel": 0}, {"type": "note_off", "time": 102, "note": 69, "velocity": 99, "channel": 0}, {"type": "note_on", "time": 2, "note": 71, "velocity": 100, "channel": 0}, {"type": "note_off", "time": 266, "note": 71, "velocity": 100, "channel": 0}, {"type": "note_on", "time": 318, "note": 69, "velocity": 103, "channel": 0}, {"type": "note_off", "time": 64, "note": 69, "velocity": 103, "channel": 0}, {"type": "note_on", "time": 3, "note": 68, "velocity": 104, "channel": 0}, {"type": "note_off", "time": 122, "note": 68, "velocity": 104, "channel": 0}, {"type": "note_on", "time": 4, "note": 66, "velocity": 85, "channel": 0}, {"type": "note_off", "time": 54, "note": 66, "velocity": 85, "channel": 0}, {"type": "note_on", "time": 15, "note": 68, "velocity": 101, "channel": 0}, {"type": "note_off", "time": 120, "note": 68, "velocity": 101, "channel": 0}, {"type": "note_on", "time": 5, "note": 66, "velocity": 98, "channel": 0}, {"type": "note_off", "time": 77, "note": 66, "velocity": 98, "channel": 0}, {"type": "note_on", "time": 8, "note": 64, "velocity": 101, "channel": 0}, {"type": "note_off", "time": 83, "note": 64, "velocity": 101, "channel": 0}, {"type": "note_on", "time": 15, "note": 62, "velocity": 95, "channel": 0}, {"type": "note_off", "time": 63, "note": 62, "velocity": 95, "channel": 0}, {"type": "note_on", "time": 3, "note": 64, "velocity": 104, "channel": 0}, {"type": "note_off", "time": 282, "note": 64, "velocity": 104, "channel": 0}, {"type": "note_on", "time": 1, "note": 62, "velocity": 98, "channel": 0}, {"type": "note_off", "time": 82, "note": 62, "velocity": 98, "channel": 0}, {"type": "note_on", "time": 14, "note": 61, "velocity": 97, "channel": 0}, {"type": "note_off", "time": 105, "note": 61, "velocity": 97, "channel": 0}, {"type": "note_on", "time": 11, "note": 59, "velocity": 98, "channel": 0}, {"type": "note_off", "time": 81, "note": 59, "velocity": 98, "channel": 0}, {"type": "note_on", "time": 706, "note": 47, "velocity": 103, "channel": 0}, {"type": "note_off", "time": 62, "note": 47, "velocity": 103, "channel": 0}, {"type": "note_on", "time": 3, "note": 50, "velocity": 103, "channel": 0}, {"type": "note_off", "time": 47, "note": 50, "velocity": 103, "channel": 0}, {"type": "note_on", "time": 9, "note": 54, "velocity": 99, "channel": 0}, {"type": "note_off", "time": 43, "note": 54, "velocity": 99, "channel": 0}, {"type": "note_on", "time": 9, "note": 57, "velocity": 98, "channel": 0}, {"type": "note_off", "time": 96, "note": 57, "velocity": 98, "channel": 0}, {"type": "note_on", "time": 7, "note": 53, "velocity": 103, "channel": 0}, {"type": "note_off", "time": 108, "note": 53, "velocity": 103, "channel": 0}, {"type": "note_on", "time": 6, "note": 54, "velocity": 102, "channel": 0}, {"type": "note_off", "time": 56, "note": 54, "velocity": 102, "channel": 0}, {"type": "note_on", "time": 6, "note": 58, "velocity": 94, "channel": 0}, {"type": "note_off", "time": 73, "note": 58, "velocity": 94, "channel": 0}, {"type": "note_on", "time": 11, "note": 61, "velocity": 98, "channel": 0}, {"type": "note_off", "time": 81, "note": 61, "velocity": 98, "channel": 0}, {"type": "note_on", "time": 18, "note": 63, "velocity": 100, "channel": 0}, {"type": "note_off", "time": 84, "note": 63, "velocity": 100, "channel": 0}, {"type": "note_on", "time": 6, "note": 66, "velocity": 97, "channel": 0}, {"type": "note_off", "time": 79, "note": 66, "velocity": 97, "channel": 0}, {"type": "note_on", "time": 2, "note": 68, "velocity": 96, "channel": 0}, {"type": "note_off", "time": 85, "note": 68, "velocity": 96, "channel": 0}, {"type": "note_on", "time": 11, "note": 68, "velocity": 95, "channel": 0}, {"type": "note_off", "time": 80, "note": 68, "velocity": 95, "channel": 0}, {"type": "note_on", "time": 2, "note": 71, "velocity": 100, "channel": 0}, {"type": "note_off", "time": 50, "note": 71, "velocity": 100, "channel": 0}, {"type": "note_on", "time": 3, "note": 72, "velocity": 98, "channel": 0}, {"type": "note_off", "time": 35, "note": 72, "velocity": 98, "channel": 0}, {"type": "note_on", "time": 4, "note": 74, "velocity": 94, "channel": 0}, {"type": "note_off", "time": 80, "note": 74, "velocity": 94, "channel": 0}, {"type": "note_on", "time": 11, "note": 72, "velocity": 98, "channel": 0}, {"type": "note_off", "time": 55, "note": 72, "velocity": 98, "channel": 0}, {"type": "note_on", "time": 8, "note": 71, "velocity": 96, "channel": 0}, {"type": "note_off", "time": 52, "note": 71, "velocity": 96, "channel": 0}, {"type": "note_on", "time": 6, "note": 69, "velocity": 103, "channel": 0}, {"type": "note_off", "time": 110, "note": 69, "velocity": 103, "channel": 0}, {"type": "note_on", "time": 3, "note": 68, "velocity": 98, "channel": 0}, {"type": "note_off", "time": 110, "note": 68, "velocity": 98, "channel": 0}, {"type": "note_on", "time": 2, "note": 69, "velocity": 93, "channel": 0}, {"type": "note_off", "time": 43, "note": 69, "velocity": 93, "channel": 0}, {"type": "note_on", "time": 4, "note": 71, "velocity": 100, "channel": 0}, {"type": "note_off", "time": 86, "note": 71, "velocity": 100, "channel": 0}, {"type": "note_on", "time": 4, "note": 72, "velocity": 99, "channel": 0}, {"type": "note_off", "time": 73, "note": 72, "velocity": 99, "channel": 0}, {"type": "note_on", "time": 13, "note": 69, "velocity": 99, "channel": 0}, {"type": "note_off", "time": 67, "note": 69, "velocity": 99, "channel": 0}, {"type": "note_on", "time": 5, "note": 68, "velocity": 94, "channel": 0}, {"type": "note_off", "time": 48, "note": 68, "velocity": 94, "channel": 0}, {"type": "note_on", "time": 0, "note": 68, "velocity": 80, "channel": 0}, {"type": "note_off", "time": 0, "note": 68, "velocity": 80, "channel": 0}, {"type": "note_on", "time": 5, "note": 63, "velocity": 94, "channel": 0}, {"type": "note_off", "time": 42, "note": 63, "velocity": 94, "channel": 0}, {"type": "note_on", "time": 9, "note": 64, "velocity": 102, "channel": 0}, {"type": "note_off", "time": 93, "note": 64, "velocity": 102, "channel": 0}, {"type": "note_on", "time": 14, "note": 67, "velocity": 102, "channel": 0}, {"type": "note_off", "time": 91, "note": 67, "velocity": 102, "channel": 0}, {"type": "note_on", "time": 3, "note": 66, "velocity": 98, "channel": 0}, {"type": "note_off", "time": 110, "note": 66, "velocity": 98, "channel": 0}, {"type": "note_on", "time": 89, "note": 74, "velocity": 102, "channel": 0}, {"type": "note_off", "time": 58, "note": 74, "velocity": 102, "channel": 0}, {"type": "note_on", "time": 26, "note": 76, "velocity": 101, "channel": 0}, {"type": "note_off", "time": 146, "note": 76, "velocity": 101, "channel": 0}, {"type": "note_on", "time": 403, "note": 81, "velocity": 97, "channel": 0}, {"type": "note_off", "time": 504, "note": 81, "velocity": 97, "channel": 0}, {"type": "note_on", "time": 202, "note": 87, "velocity": 96, "channel": 0}, {"type": "note_off", "time": 132, "note": 87, "velocity": 96, "channel": 0}, {"type": "note_on", "time": 24, "note": 84, "velocity": 89, "channel": 0}, {"type": "note_off", "time": 222, "note": 84, "velocity": 89, "channel": 0}, {"type": "note_on", "time": 913, "note": 82, "velocity": 91, "channel": 0}, {"type": "note_off", "time": 122, "note": 82, "velocity": 91, "channel": 0}, {"type": "note_on", "time": 444, "note": 79, "velocity": 107, "channel": 0}, {"type": "note_off", "time": 116, "note": 79, "velocity": 107, "channel": 0}, {"type": "note_on", "time": 71, "note": 75, "velocity": 99, "channel": 0}, {"type": "note_off", "time": 163, "note": 75, "velocity": 99, "channel": 0}, {"type": "note_on", "time": 131, "note": 74, "velocity": 94, "channel": 0}, {"type": "note_off", "time": 103, "note": 74, "velocity": 94, "channel": 0}, {"type": "note_on", "time": 7, "note": 72, "velocity": 96, "channel": 0}, {"type": "note_off", "time": 98, "note": 72, "velocity": 96, "channel": 0}, {"type": "note_on", "time": 9, "note": 67, "velocity": 99, "channel": 0}, {"type": "note_off", "time": 105, "note": 67, "velocity": 99, "channel": 0}, {"type": "note_on", "time": 69, "note": 70, "velocity": 99, "channel": 0}, {"type": "note_off", "time": 108, "note": 70, "velocity": 99, "channel": 0}, {"type": "note_on", "time": 79, "note": 69, "velocity": 98, "channel": 0}, {"type": "note_off", "time": 87, "note": 69, "velocity": 98, "channel": 0}, {"type": "note_on", "time": 3, "note": 72, "velocity": 89, "channel": 0}, {"type": "note_off", "time": 98, "note": 72, "velocity": 89, "channel": 0}, {"type": "note_on", "time": 17, "note": 77, "velocity": 91, "channel": 0}, {"type": "note_off", "time": 240, "note": 77, "velocity": 91, "channel": 0}, {"type": "note_on", "time": 335, "note": 82, "velocity": 99, "channel": 0}, {"type": "note_off", "time": 118, "note": 82, "velocity": 99, "channel": 0}, {"type": "note_on", "time": 46, "note": 79, "velocity": 99, "channel": 0}, {"type": "note_off", "time": 148, "note": 79, "velocity": 99, "channel": 0}, {"type": "note_on", "time": 62, "note": 75, "velocity": 99, "channel": 0}, {"type": "note_off", "time": 104, "note": 75, "velocity": 99, "channel": 0}, {"type": "note_on", "time": 5, "note": 72, "velocity": 94, "channel": 0}, {"type": "note_off", "time": 111, "note": 72, "velocity": 94, "channel": 0}, {"type": "note_on", "time": 69, "note": 77, "velocity": 91, "channel": 0}, {"type": "note_off", "time": 113, "note": 77, "velocity": 91, "channel": 0}, {"type": "note_on", "time": 9, "note": 74, "velocity": 91, "channel": 0}, {"type": "note_off", "time": 81, "note": 74, "velocity": 91, "channel": 0}, {"type": "note_on", "time": 10, "note": 70, "velocity": 99, "channel": 0}, {"type": "note_off", "time": 60, "note": 70, "velocity": 99, "channel": 0}, {"type": "note_on", "time": 9, "note": 67, "velocity": 97, "channel": 0}, {"type": "note_off", "time": 117, "note": 67, "velocity": 97, "channel": 0}, {"type": "note_on", "time": 55, "note": 72, "velocity": 96, "channel": 0}, {"type": "note_off", "time": 110, "note": 72, "velocity": 96, "channel": 0}, {"type": "note_on", "time": 5, "note": 69, "velocity": 100, "channel": 0}, {"type": "note_off", "time": 69, "note": 69, "velocity": 100, "channel": 0}, {"type": "note_on", "time": 7, "note": 65, "velocity": 99, "channel": 0}, {"type": "note_off", "time": 106, "note": 65, "velocity": 99, "channel": 0}, {"type": "note_on", "time": 11, "note": 67, "velocity": 101, "channel": 0}, {"type": "note_off", "time": 59, "note": 67, "velocity": 101, "channel": 0}, {"type": "note_on", "time": 11, "note": 69, "velocity": 96, "channel": 0}, {"type": "note_off", "time": 124, "note": 69, "velocity": 96, "channel": 0}, {"type": "note_on", "time": 2, "note": 74, "velocity": 94, "channel": 0}, {"type": "note_off", "time": 71, "note": 74, "velocity": 94, "channel": 0}, {"type": "note_on", "time": 20, "note": 71, "velocity": 98, "channel": 0}, {"type": "note_off", "time": 97, "note": 71, "velocity": 98, "channel": 0}, {"type": "note_on", "time": 2, "note": 68, "velocity": 105, "channel": 0}, {"type": "note_off", "time": 72, "note": 68, "velocity": 105, "channel": 0}, {"type": "note_on", "time": 10, "note": 64, "velocity": 98, "channel": 0}, {"type": "note_off", "time": 102, "note": 64, "velocity": 98, "channel": 0}, {"type": "note_on", "time": 11, "note": 61, "velocity": 93, "channel": 0}, {"type": "note_off", "time": 68, "note": 61, "velocity": 93, "channel": 0}, {"type": "note_on", "time": 15, "note": 66, "velocity": 99, "channel": 0}, {"type": "note_off", "time": 113, "note": 66, "velocity": 99, "channel": 0}, {"type": "note_on", "time": 5, "note": 63, "velocity": 99, "channel": 0}, {"type": "note_off", "time": 76, "note": 63, "velocity": 99, "channel": 0}, {"type": "note_on", "time": 4, "note": 59, "velocity": 95, "channel": 0}, {"type": "note_off", "time": 102, "note": 59, "velocity": 95, "channel": 0}, {"type": "note_on", "time": 6, "note": 56, "velocity": 97, "channel": 0}, {"type": "note_off", "time": 102, "note": 56, "velocity": 97, "channel": 0}, {"type": "note_on", "time": 81, "note": 57, "velocity": 98, "channel": 0}, {"type": "note_off", "time": 111, "note": 57, "velocity": 98, "channel": 0}, {"type": "note_on", "time": 6, "note": 61, "velocity": 90, "channel": 0}, {"type": "note_off", "time": 88, "note": 61, "velocity": 90, "channel": 0}, {"type": "note_on", "time": 1, "note": 63, "velocity": 102, "channel": 0}, {"type": "note_off", "time": 78, "note": 63, "velocity": 102, "channel": 0}, {"type": "note_on", "time": 4, "note": 66, "velocity": 92, "channel": 0}, {"type": "note_off", "time": 114, "note": 66, "velocity": 92, "channel": 0}, {"type": "note_on", "time": 9, "note": 68, "velocity": 101, "channel": 0}, {"type": "note_off", "time": 68, "note": 68, "velocity": 101, "channel": 0}, {"type": "note_on", "time": 6, "note": 65, "velocity": 96, "channel": 0}, {"type": "note_off", "time": 113, "note": 65, "velocity": 96, "channel": 0}, {"type": "note_on", "time": 112, "note": 70, "velocity": 101, "channel": 0}, {"type": "note_off", "time": 127, "note": 70, "velocity": 101, "channel": 0}, {"type": "note_on", "time": 595, "note": 64, "velocity": 103, "channel": 0}, {"type": "note_off", "time": 95, "note": 64, "velocity": 103, "channel": 0}, {"type": "note_on", "time": 2, "note": 66, "velocity": 98, "channel": 0}, {"type": "note_off", "time": 69, "note": 66, "velocity": 98, "channel": 0}, {"type": "note_on", "time": 15, "note": 63, "velocity": 101, "channel": 0}, {"type": "note_off", "time": 91, "note": 63, "velocity": 101, "channel": 0}, {"type": "note_on", "time": 6, "note": 68, "velocity": 101, "channel": 0}, {"type": "note_off", "time": 93, "note": 68, "velocity": 101, "channel": 0}, {"type": "note_on", "time": 13, "note": 62, "velocity": 93, "channel": 0}, {"type": "note_off", "time": 80, "note": 62, "velocity": 93, "channel": 0}, {"type": "note_on", "time": 10, "note": 64, "velocity": 110, "channel": 0}, {"type": "note_off", "time": 93, "note": 64, "velocity": 110, "channel": 0}, {"type": "note_on", "time": 2, "note": 61, "velocity": 95, "channel": 0}, {"type": "note_off", "time": 100, "note": 61, "velocity": 95, "channel": 0}, {"type": "note_on", "time": 2, "note": 66, "velocity": 98, "channel": 0}, {"type": "note_off", "time": 93, "note": 66, "velocity": 98, "channel": 0}, {"type": "note_on", "time": 18, "note": 60, "velocity": 101, "channel": 0}, {"type": "note_off", "time": 87, "note": 60, "velocity": 101, "channel": 0}, {"type": "note_on", "time": 0, "note": 62, "velocity": 99, "channel": 0}, {"type": "note_off", "time": 92, "note": 62, "velocity": 99, "channel": 0}, {"type": "note_on", "time": 10, "note": 63, "velocity": 100, "channel": 0}, {"type": "note_off", "time": 73, "note": 63, "velocity": 100, "channel": 0}, {"type": "note_on", "time": 5, "note": 65, "velocity": 100, "channel": 0}, {"type": "note_off", "time": 63, "note": 65, "velocity": 100, "channel": 0}, {"type": "note_on", "time": 2, "note": 66, "velocity": 97, "channel": 0}, {"type": "note_off", "time": 109, "note": 66, "velocity": 97, "channel": 0}, {"type": "note_on", "time": 6, "note": 68, "velocity": 97, "channel": 0}, {"type": "note_off", "time": 95, "note": 68, "velocity": 97, "channel": 0}, {"type": "note_on", "time": 12, "note": 66, "velocity": 94, "channel": 0}, {"type": "note_off", "time": 102, "note": 66, "velocity": 94, "channel": 0}, {"type": "note_on", "time": 4, "note": 71, "velocity": 100, "channel": 0}, {"type": "note_off", "time": 108, "note": 71, "velocity": 100, "channel": 0}, {"type": "note_on", "time": 68, "note": 69, "velocity": 103, "channel": 0}, {"type": "note_off", "time": 101, "note": 69, "velocity": 103, "channel": 0}, {"type": "note_on", "time": 3, "note": 68, "velocity": 103, "channel": 0}, {"type": "note_off", "time": 72, "note": 68, "velocity": 103, "channel": 0}, {"type": "note_on", "time": 4, "note": 66, "velocity": 100, "channel": 0}, {"type": "note_off", "time": 106, "note": 66, "velocity": 100, "channel": 0}, {"type": "note_on", "time": 6, "note": 65, "velocity": 97, "channel": 0}, {"type": "note_off", "time": 75, "note": 65, "velocity": 97, "channel": 0}, {"type": "note_on", "time": 6, "note": 67, "velocity": 101, "channel": 0}, {"type": "note_off", "time": 72, "note": 67, "velocity": 101, "channel": 0}, {"type": "note_on", "time": 32, "note": 64, "velocity": 97, "channel": 0}, {"type": "note_off", "time": 71, "note": 64, "velocity": 97, "channel": 0}, {"type": "note_on", "time": 12, "note": 65, "velocity": 87, "channel": 0}, {"type": "note_off", "time": 79, "note": 65, "velocity": 87, "channel": 0}, {"type": "note_on", "time": 16, "note": 70, "velocity": 101, "channel": 0}, {"type": "note_off", "time": 82, "note": 70, "velocity": 101, "channel": 0}, {"type": "note_on", "time": 15, "note": 68, "velocity": 101, "channel": 0}, {"type": "note_off", "time": 92, "note": 68, "velocity": 101, "channel": 0}, {"type": "note_on", "time": 5, "note": 64, "velocity": 102, "channel": 0}, {"type": "note_off", "time": 74, "note": 64, "velocity": 102, "channel": 0}, {"type": "note_on", "time": 12, "note": 61, "velocity": 92, "channel": 0}, {"type": "note_off", "time": 80, "note": 61, "velocity": 92, "channel": 0}, {"type": "note_on", "time": 9, "note": 63, "velocity": 105, "channel": 0}, {"type": "note_off", "time": 80, "note": 63, "velocity": 105, "channel": 0}, {"type": "note_on", "time": 15, "note": 65, "velocity": 98, "channel": 0}, {"type": "note_off", "time": 117, "note": 65, "velocity": 98, "channel": 0}, {"type": "note_on", "time": 2, "note": 63, "velocity": 99, "channel": 0}, {"type": "note_off", "time": 115, "note": 63, "velocity": 99, "channel": 0}, {"type": "note_on", "time": 3, "note": 68, "velocity": 101, "channel": 0}, {"type": "note_off", "time": 80, "note": 68, "velocity": 101, "channel": 0}, {"type": "note_on", "time": 108, "note": 65, "velocity": 103, "channel": 0}, {"type": "note_off", "time": 70, "note": 65, "velocity": 103, "channel": 0}, {"type": "note_on", "time": 11, "note": 61, "velocity": 93, "channel": 0}, {"type": "note_off", "time": 98, "note": 61, "velocity": 93, "channel": 0}, {"type": "note_on", "time": 80, "note": 61, "velocity": 96, "channel": 0}, {"type": "note_off", "time": 200, "note": 61, "velocity": 96, "channel": 0}, {"type": "note_on", "time": 3, "note": 63, "velocity": 101, "channel": 0}, {"type": "note_off", "time": 109, "note": 63, "velocity": 101, "channel": 0}, {"type": "note_on", "time": 8, "note": 61, "velocity": 96, "channel": 0}, {"type": "note_off", "time": 72, "note": 61, "velocity": 96, "channel": 0}, {"type": "note_on", "time": 4, "note": 66, "velocity": 101, "channel": 0}, {"type": "note_off", "time": 92, "note": 66, "velocity": 101, "channel": 0}, {"type": "note_on", "time": 10, "note": 63, "velocity": 101, "channel": 0}, {"type": "note_off", "time": 123, "note": 63, "velocity": 101, "channel": 0}, {"type": "note_on", "time": 12, "note": 58, "velocity": 93, "channel": 0}, {"type": "note_off", "time": 84, "note": 58, "velocity": 93, "channel": 0}, {"type": "note_on", "time": 6, "note": 54, "velocity": 86, "channel": 0}, {"type": "note_off", "time": 60, "note": 54, "velocity": 86, "channel": 0}, {"type": "note_on", "time": 9, "note": 59, "velocity": 94, "channel": 0}, {"type": "note_off", "time": 95, "note": 59, "velocity": 94, "channel": 0}, {"type": "note_on", "time": 13, "note": 60, "velocity": 100, "channel": 0}, {"type": "note_off", "time": 80, "note": 60, "velocity": 100, "channel": 0}, {"type": "note_on", "time": 11, "note": 59, "velocity": 86, "channel": 0}, {"type": "note_off", "time": 78, "note": 59, "velocity": 86, "channel": 0}, {"type": "note_on", "time": 15, "note": 65, "velocity": 104, "channel": 0}, {"type": "note_off", "time": 112, "note": 65, "velocity": 104, "channel": 0}, {"type": "note_on", "time": 477, "note": 45, "velocity": 100, "channel": 0}, {"type": "note_off", "time": 27, "note": 45, "velocity": 100, "channel": 0}, {"type": "note_on", "time": 7, "note": 49, "velocity": 100, "channel": 0}, {"type": "note_off", "time": 40, "note": 49, "velocity": 100, "channel": 0}, {"type": "note_on", "time": 1, "note": 52, "velocity": 100, "channel": 0}, {"type": "note_off", "time": 49, "note": 52, "velocity": 100, "channel": 0}, {"type": "note_on", "time": 3, "note": 54, "velocity": 96, "channel": 0}, {"type": "note_off", "time": 64, "note": 54, "velocity": 96, "channel": 0}, {"type": "note_on", "time": 4, "note": 57, "velocity": 100, "channel": 0}, {"type": "note_off", "time": 59, "note": 57, "velocity": 100, "channel": 0}, {"type": "note_on", "time": 1, "note": 56, "velocity": 102, "channel": 0}, {"type": "note_off", "time": 103, "note": 56, "velocity": 102, "channel": 0}, {"type": "note_on", "time": 28, "note": 54, "velocity": 98, "channel": 0}, {"type": "note_off", "time": 92, "note": 54, "velocity": 98, "channel": 0}, {"type": "note_on", "time": 1, "note": 53, "velocity": 97, "channel": 0}, {"type": "note_off", "time": 68, "note": 53, "velocity": 97, "channel": 0}, {"type": "note_on", "time": 5, "note": 52, "velocity": 95, "channel": 0}, {"type": "note_off", "time": 83, "note": 52, "velocity": 95, "channel": 0}, {"type": "note_on", "time": 7, "note": 51, "velocity": 97, "channel": 0}, {"type": "note_off", "time": 95, "note": 51, "velocity": 97, "channel": 0}, {"type": "note_on", "time": 5, "note": 53, "velocity": 95, "channel": 0}, {"type": "note_off", "time": 59, "note": 53, "velocity": 95, "channel": 0}, {"type": "note_on", "time": 2, "note": 55, "velocity": 95, "channel": 0}, {"type": "note_off", "time": 42, "note": 55, "velocity": 95, "channel": 0}, {"type": "note_on", "time": 4, "note": 58, "velocity": 96, "channel": 0}, {"type": "note_off", "time": 75, "note": 58, "velocity": 96, "channel": 0}, {"type": "note_on", "time": 17, "note": 61, "velocity": 96, "channel": 0}, {"type": "note_off", "time": 35, "note": 61, "velocity": 96, "channel": 0}, {"type": "note_on", "time": 36, "note": 66, "velocity": 99, "channel": 0}, {"type": "note_off", "time": 104, "note": 66, "velocity": 99, "channel": 0}, {"type": "note_on", "time": 5, "note": 61, "velocity": 104, "channel": 0}, {"type": "note_off", "time": 58, "note": 61, "velocity": 104, "channel": 0}, {"type": "note_on", "time": 14, "note": 56, "velocity": 96, "channel": 0}, {"type": "note_off", "time": 40, "note": 56, "velocity": 96, "channel": 0}, {"type": "note_on", "time": 5, "note": 57, "velocity": 97, "channel": 0}, {"type": "note_off", "time": 47, "note": 57, "velocity": 97, "channel": 0}, {"type": "note_on", "time": 10, "note": 56, "velocity": 98, "channel": 0}, {"type": "note_off", "time": 31, "note": 56, "velocity": 98, "channel": 0}, {"type": "note_on", "time": 7, "note": 54, "velocity": 97, "channel": 0}, {"type": "note_off", "time": 52, "note": 54, "velocity": 97, "channel": 0}, {"type": "note_on", "time": 6, "note": 53, "velocity": 93, "channel": 0}, {"type": "note_off", "time": 99, "note": 53, "velocity": 93, "channel": 0}, {"type": "note_on", "time": 6, "note": 55, "velocity": 94, "channel": 0}, {"type": "note_off", "time": 82, "note": 55, "velocity": 94, "channel": 0}, {"type": "note_on", "time": 126, "note": 58, "velocity": 91, "channel": 0}, {"type": "note_off", "time": 245, "note": 58, "velocity": 91, "channel": 0}, {"type": "note_on", "time": 2, "note": 55, "velocity": 93, "channel": 0}, {"type": "note_off", "time": 197, "note": 55, "velocity": 93, "channel": 0}, {"type": "note_on", "time": 878, "note": 49, "velocity": 97, "channel": 0}, {"type": "note_off", "time": 81, "note": 49, "velocity": 97, "channel": 0}, {"type": "note_on", "time": 10, "note": 54, "velocity": 97, "channel": 0}, {"type": "note_off", "time": 100, "note": 54, "velocity": 97, "channel": 0}, {"type": "note_on", "time": 9, "note": 58, "velocity": 94, "channel": 0}, {"type": "note_off", "time": 67, "note": 58, "velocity": 94, "channel": 0}, {"type": "note_on", "time": 11, "note": 59, "velocity": 94, "channel": 0}, {"type": "note_off", "time": 98, "note": 59, "velocity": 94, "channel": 0}, {"type": "note_on", "time": 9, "note": 61, "velocity": 104, "channel": 0}, {"type": "note_off", "time": 81, "note": 61, "velocity": 104, "channel": 0}, {"type": "note_on", "time": 8, "note": 63, "velocity": 100, "channel": 0}, {"type": "note_off", "time": 88, "note": 63, "velocity": 100, "channel": 0}, {"type": "note_on", "time": 14, "note": 66, "velocity": 101, "channel": 0}, {"type": "note_off", "time": 88, "note": 66, "velocity": 101, "channel": 0}, {"type": "note_on", "time": 5, "note": 64, "velocity": 105, "channel": 0}, {"type": "note_off", "time": 125, "note": 64, "velocity": 105, "channel": 0}, {"type": "note_on", "time": 1, "note": 59, "velocity": 95, "channel": 0}, {"type": "note_off", "time": 71, "note": 59, "velocity": 95, "channel": 0}, {"type": "note_on", "time": 6, "note": 56, "velocity": 96, "channel": 0}, {"type": "note_off", "time": 122, "note": 56, "velocity": 96, "channel": 0}, {"type": "note_on", "time": 21, "note": 52, "velocity": 92, "channel": 0}, {"type": "note_off", "time": 26, "note": 52, "velocity": 92, "channel": 0}, {"type": "note_on", "time": 15, "note": 57, "velocity": 97, "channel": 0}, {"type": "note_off", "time": 103, "note": 57, "velocity": 97, "channel": 0}, {"type": "note_on", "time": 14, "note": 61, "velocity": 98, "channel": 0}, {"type": "note_off", "time": 77, "note": 61, "velocity": 98, "channel": 0}, {"type": "note_on", "time": 5, "note": 62, "velocity": 100, "channel": 0}, {"type": "note_off", "time": 104, "note": 62, "velocity": 100, "channel": 0}, {"type": "note_on", "time": 5, "note": 66, "velocity": 92, "channel": 0}, {"type": "note_off", "time": 101, "note": 66, "velocity": 92, "channel": 0}, {"type": "note_on", "time": 12, "note": 69, "velocity": 99, "channel": 0}, {"type": "note_off", "time": 87, "note": 69, "velocity": 99, "channel": 0}, {"type": "note_on", "time": 2, "note": 66, "velocity": 93, "channel": 0}, {"type": "note_off", "time": 88, "note": 66, "velocity": 93, "channel": 0}, {"type": "note_on", "time": 3, "note": 62, "velocity": 101, "channel": 0}, {"type": "note_off", "time": 87, "note": 62, "velocity": 101, "channel": 0}, {"type": "note_on", "time": 8, "note": 60, "velocity": 99, "channel": 0}, {"type": "note_off", "time": 102, "note": 60, "velocity": 99, "channel": 0}, {"type": "note_on", "time": 3, "note": 59, "velocity": 96, "channel": 0}, {"type": "note_off", "time": 76, "note": 59, "velocity": 96, "channel": 0}, {"type": "note_on", "time": 4, "note": 62, "velocity": 102, "channel": 0}, {"type": "note_off", "time": 62, "note": 62, "velocity": 102, "channel": 0}, {"type": "note_on", "time": 6, "note": 65, "velocity": 95, "channel": 0}, {"type": "note_off", "time": 113, "note": 65, "velocity": 95, "channel": 0}, {"type": "note_on", "time": 10, "note": 68, "velocity": 102, "channel": 0}, {"type": "note_off", "time": 99, "note": 68, "velocity": 102, "channel": 0}, {"type": "note_on", "time": 5, "note": 66, "velocity": 97, "channel": 0}, {"type": "note_off", "time": 56, "note": 66, "velocity": 97, "channel": 0}, {"type": "note_on", "time": 11, "note": 67, "velocity": 98, "channel": 0}, {"type": "note_off", "time": 113, "note": 67, "velocity": 98, "channel": 0}, {"type": "note_on", "time": 1, "note": 64, "velocity": 105, "channel": 0}, {"type": "note_off", "time": 83, "note": 64, "velocity": 105, "channel": 0}, {"type": "note_on", "time": 23, "note": 60, "velocity": 99, "channel": 0}, {"type": "note_off", "time": 48, "note": 60, "velocity": 99, "channel": 0}, {"type": "note_on", "time": 6, "note": 66, "velocity": 97, "channel": 0}, {"type": "note_off", "time": 141, "note": 66, "velocity": 97, "channel": 0}, {"type": "note_on", "time": 3, "note": 64, "velocity": 99, "channel": 0}, {"type": "note_off", "time": 61, "note": 64, "velocity": 99, "channel": 0}, {"type": "note_on", "time": 9, "note": 65, "velocity": 99, "channel": 0}, {"type": "note_off", "time": 83, "note": 65, "velocity": 99, "channel": 0}, {"type": "note_on", "time": 8, "note": 62, "velocity": 98, "channel": 0}, {"type": "note_off", "time": 96, "note": 62, "velocity": 98, "channel": 0}, {"type": "note_on", "time": 7, "note": 58, "velocity": 89, "channel": 0}, {"type": "note_off", "time": 90, "note": 58, "velocity": 89, "channel": 0}, {"type": "note_on", "time": 14, "note": 53, "velocity": 78, "channel": 0}, {"type": "note_off", "time": 57, "note": 53, "velocity": 78, "channel": 0}, {"type": "note_on", "time": 23, "note": 68, "velocity": 89, "channel": 0}, {"type": "note_off", "time": 82, "note": 68, "velocity": 89, "channel": 0}, {"type": "note_on", "time": 146, "note": 55, "velocity": 92, "channel": 0}, {"type": "note_off", "time": 62, "note": 55, "velocity": 92, "channel": 0}, {"type": "note_on", "time": 11, "note": 58, "velocity": 88, "channel": 0}, {"type": "note_off", "time": 77, "note": 58, "velocity": 88, "channel": 0}, {"type": "note_on", "time": 10, "note": 60, "velocity": 95, "channel": 0}, {"type": "note_off", "time": 101, "note": 60, "velocity": 95, "channel": 0}, {"type": "note_on", "time": 7, "note": 61, "velocity": 90, "channel": 0}, {"type": "note_off", "time": 74, "note": 61, "velocity": 90, "channel": 0}, {"type": "note_on", "time": 24, "note": 58, "velocity": 91, "channel": 0}, {"type": "note_off", "time": 67, "note": 58, "velocity": 91, "channel": 0}, {"type": "note_on", "time": 7, "note": 54, "velocity": 95, "channel": 0}, {"type": "note_off", "time": 115, "note": 54, "velocity": 95, "channel": 0}, {"type": "note_on", "time": 1, "note": 51, "velocity": 95, "channel": 0}, {"type": "note_off", "time": 112, "note": 51, "velocity": 95, "channel": 0}, {"type": "note_on", "time": 9, "note": 48, "velocity": 93, "channel": 0}, {"type": "note_off", "time": 45, "note": 48, "velocity": 93, "channel": 0}, {"type": "note_on", "time": 5, "note": 49, "velocity": 96, "channel": 0}, {"type": "note_off", "time": 246, "note": 49, "velocity": 96, "channel": 0}, {"type": "note_on", "time": 43, "note": 57, "velocity": 99, "channel": 0}, {"type": "note_off", "time": 71, "note": 57, "velocity": 99, "channel": 0}, {"type": "note_on", "time": 7, "note": 55, "velocity": 100, "channel": 0}, {"type": "note_off", "time": 40, "note": 55, "velocity": 100, "channel": 0}, {"type": "note_on", "time": 1, "note": 53, "velocity": 99, "channel": 0}, {"type": "note_off", "time": 92, "note": 53, "velocity": 99, "channel": 0}, {"type": "note_on", "time": 16, "note": 48, "velocity": 95, "channel": 0}, {"type": "note_off", "time": 52, "note": 48, "velocity": 95, "channel": 0}, {"type": "note_on", "time": 6, "note": 51, "velocity": 99, "channel": 0}, {"type": "note_off", "time": 99, "note": 51, "velocity": 99, "channel": 0}, {"type": "note_on", "time": 5, "note": 53, "velocity": 99, "channel": 0}, {"type": "note_off", "time": 155, "note": 53, "velocity": 99, "channel": 0}, {"type": "note_on", "time": 5, "note": 50, "velocity": 99, "channel": 0}, {"type": "note_off", "time": 118, "note": 50, "velocity": 99, "channel": 0}, {"type": "note_on", "time": 713, "note": 59, "velocity": 87, "channel": 0}, {"type": "note_off", "time": 56, "note": 59, "velocity": 87, "channel": 0}, {"type": "note_on", "time": 1, "note": 60, "velocity": 100, "channel": 0}, {"type": "note_off", "time": 87, "note": 60, "velocity": 100, "channel": 0}, {"type": "note_on", "time": 19, "note": 62, "velocity": 98, "channel": 0}, {"type": "note_off", "time": 201, "note": 62, "velocity": 98, "channel": 0}, {"type": "note_on", "time": 16, "note": 64, "velocity": 99, "channel": 0}, {"type": "note_off", "time": 70, "note": 64, "velocity": 99, "channel": 0}, {"type": "note_on", "time": 136, "note": 66, "velocity": 100, "channel": 0}, {"type": "note_off", "time": 153, "note": 66, "velocity": 100, "channel": 0}, {"type": "note_on", "time": 5, "note": 67, "velocity": 96, "channel": 0}, {"type": "note_off", "time": 237, "note": 67, "velocity": 96, "channel": 0}, {"type": "note_on", "time": 6, "note": 68, "velocity": 104, "channel": 0}, {"type": "note_off", "time": 166, "note": 68, "velocity": 104, "channel": 0}, {"type": "note_on", "time": 9, "note": 69, "velocity": 99, "channel": 0}, {"type": "note_off", "time": 171, "note": 69, "velocity": 99, "channel": 0}, {"type": "note_on", "time": 4, "note": 71, "velocity": 97, "channel": 0}, {"type": "note_off", "time": 202, "note": 71, "velocity": 97, "channel": 0}, {"type": "note_on", "time": 4, "note": 72, "velocity": 95, "channel": 0}, {"type": "note_off", "time": 178, "note": 72, "velocity": 95, "channel": 0}, {"type": "note_on", "time": 14, "note": 73, "velocity": 100, "channel": 0}, {"type": "note_off", "time": 380, "note": 73, "velocity": 100, "channel": 0}, {"type": "note_on", "time": 61, "note": 69, "velocity": 100, "channel": 0}, {"type": "note_off", "time": 284, "note": 69, "velocity": 100, "channel": 0}, {"type": "note_on", "time": 26, "note": 64, "velocity": 105, "channel": 0}, {"type": "note_off", "time": 150, "note": 64, "velocity": 105, "channel": 0}, {"type": "note_on", "time": 693, "note": 71, "velocity": 96, "channel": 0}, {"type": "note_off", "time": 44, "note": 71, "velocity": 96, "channel": 0}, {"type": "note_on", "time": 2, "note": 73, "velocity": 100, "channel": 0}, {"type": "note_off", "time": 232, "note": 73, "velocity": 100, "channel": 0}, {"type": "note_on", "time": 134, "note": 70, "velocity": 99, "channel": 0}, {"type": "note_off", "time": 299, "note": 70, "velocity": 99, "channel": 0}, {"type": "note_on", "time": 6, "note": 66, "velocity": 95, "channel": 0}, {"type": "note_off", "time": 196, "note": 66, "velocity": 95, "channel": 0}, {"type": "note_on", "time": 211, "note": 70, "velocity": 100, "channel": 0}, {"type": "note_off", "time": 201, "note": 70, "velocity": 100, "channel": 0}, {"type": "note_on", "time": 5, "note": 73, "velocity": 100, "channel": 0}, {"type": "note_off", "time": 120, "note": 73, "velocity": 100, "channel": 0}, {"type": "note_on", "time": 100, "note": 73, "velocity": 9, "channel": 0}, {"type": "note_off", "time": 368, "note": 73, "velocity": 9, "channel": 0}, {"type": "note_on", "time": 7, "note": 69, "velocity": 108, "channel": 0}, {"type": "note_off", "time": 259, "note": 69, "velocity": 108, "channel": 0}, {"type": "note_on", "time": 3, "note": 75, "velocity": 100, "channel": 0}, {"type": "note_off", "time": 382, "note": 75, "velocity": 100, "channel": 0}, {"type": "note_on", "time": 16, "note": 73, "velocity": 102, "channel": 0}, {"type": "note_off", "time": 84, "note": 73, "velocity": 102, "channel": 0}, {"type": "note_on", "time": 6, "note": 69, "velocity": 102, "channel": 0}, {"type": "note_off", "time": 101, "note": 69, "velocity": 102, "channel": 0}, {"type": "note_on", "time": 25, "note": 68, "velocity": 106, "channel": 0}, {"type": "note_off", "time": 71, "note": 68, "velocity": 106, "channel": 0}, {"type": "note_on", "time": 2, "note": 66, "velocity": 106, "channel": 0}, {"type": "note_off", "time": 77, "note": 66, "velocity": 106, "channel": 0}, {"type": "note_on", "time": 7, "note": 64, "velocity": 101, "channel": 0}, {"type": "note_off", "time": 69, "note": 64, "velocity": 101, "channel": 0}, {"type": "note_on", "time": 5, "note": 65, "velocity": 107, "channel": 0}, {"type": "note_off", "time": 112, "note": 65, "velocity": 107, "channel": 0}, {"type": "note_on", "time": 5, "note": 67, "velocity": 92, "channel": 0}, {"type": "note_off", "time": 62, "note": 67, "velocity": 92, "channel": 0}, {"type": "note_on", "time": 12, "note": 70, "velocity": 106, "channel": 0}, {"type": "note_off", "time": 95, "note": 70, "velocity": 106, "channel": 0}, {"type": "note_on", "time": 14, "note": 72, "velocity": 107, "channel": 0}, {"type": "note_off", "time": 50, "note": 72, "velocity": 107, "channel": 0}, {"type": "note_on", "time": 13, "note": 74, "velocity": 98, "channel": 0}, {"type": "note_off", "time": 194, "note": 74, "velocity": 98, "channel": 0}, {"type": "note_on", "time": 617, "note": 77, "velocity": 102, "channel": 0}, {"type": "note_off", "time": 93, "note": 77, "velocity": 102, "channel": 0}, {"type": "note_on", "time": 13, "note": 76, "velocity": 106, "channel": 0}, {"type": "note_off", "time": 98, "note": 76, "velocity": 106, "channel": 0}, {"type": "note_on", "time": 3, "note": 77, "velocity": 101, "channel": 0}, {"type": "note_off", "time": 59, "note": 77, "velocity": 101, "channel": 0}, {"type": "note_on", "time": 17, "note": 79, "velocity": 98, "channel": 0}, {"type": "note_off", "time": 143, "note": 79, "velocity": 98, "channel": 0}, {"type": "note_on", "time": 5, "note": 77, "velocity": 81, "channel": 0}, {"type": "note_off", "time": 55, "note": 77, "velocity": 81, "channel": 0}, {"type": "note_on", "time": 2, "note": 75, "velocity": 103, "channel": 0}, {"type": "note_off", "time": 76, "note": 75, "velocity": 103, "channel": 0}, {"type": "note_on", "time": 4, "note": 74, "velocity": 99, "channel": 0}, {"type": "note_off", "time": 101, "note": 74, "velocity": 99, "channel": 0}, {"type": "note_on", "time": 4, "note": 72, "velocity": 96, "channel": 0}, {"type": "note_off", "time": 71, "note": 72, "velocity": 96, "channel": 0}, {"type": "note_on", "time": 15, "note": 71, "velocity": 101, "channel": 0}, {"type": "note_off", "time": 89, "note": 71, "velocity": 101, "channel": 0}, {"type": "note_on", "time": 32, "note": 68, "velocity": 111, "channel": 0}, {"type": "note_off", "time": 100, "note": 68, "velocity": 111, "channel": 0}, {"type": "note_on", "time": 7, "note": 67, "velocity": 101, "channel": 0}, {"type": "note_off", "time": 60, "note": 67, "velocity": 101, "channel": 0}, {"type": "note_on", "time": 8, "note": 65, "velocity": 113, "channel": 0}, {"type": "note_off", "time": 78, "note": 65, "velocity": 113, "channel": 0}, {"type": "note_on", "time": 10, "note": 63, "velocity": 108, "channel": 0}, {"type": "note_off", "time": 94, "note": 63, "velocity": 108, "channel": 0}, {"type": "note_on", "time": 15, "note": 65, "velocity": 108, "channel": 0}, {"type": "note_off", "time": 76, "note": 65, "velocity": 108, "channel": 0}, {"type": "note_on", "time": 116, "note": 70, "velocity": 105, "channel": 0}, {"type": "note_off", "time": 55, "note": 70, "velocity": 105, "channel": 0}, {"type": "note_on", "time": 25, "note": 74, "velocity": 95, "channel": 0}, {"type": "note_off", "time": 103, "note": 74, "velocity": 95, "channel": 0}, {"type": "note_on", "time": 29, "note": 65, "velocity": 91, "channel": 0}, {"type": "note_off", "time": 37, "note": 65, "velocity": 91, "channel": 0}, {"type": "note_on", "time": 9, "note": 67, "velocity": 100, "channel": 0}, {"type": "note_off", "time": 120, "note": 67, "velocity": 100, "channel": 0}, {"type": "note_on", "time": 7, "note": 68, "velocity": 112, "channel": 0}, {"type": "note_off", "time": 116, "note": 68, "velocity": 112, "channel": 0}, {"type": "note_on", "time": 13, "note": 68, "velocity": 103, "channel": 0}, {"type": "note_off", "time": 134, "note": 68, "velocity": 103, "channel": 0}, {"type": "note_on", "time": 10, "note": 67, "velocity": 101, "channel": 0}, {"type": "note_off", "time": 95, "note": 67, "velocity": 101, "channel": 0}, {"type": "note_on", "time": 14, "note": 66, "velocity": 104, "channel": 0}, {"type": "note_off", "time": 69, "note": 66, "velocity": 104, "channel": 0}, {"type": "note_on", "time": 5, "note": 65, "velocity": 105, "channel": 0}, {"type": "note_off", "time": 96, "note": 65, "velocity": 105, "channel": 0}, {"type": "note_on", "time": 221, "note": 61, "velocity": 106, "channel": 0}, {"type": "note_off", "time": 287, "note": 61, "velocity": 106, "channel": 0}, {"type": "note_on", "time": 10, "note": 60, "velocity": 107, "channel": 0}, {"type": "note_off", "time": 86, "note": 60, "velocity": 107, "channel": 0}, {"type": "note_on", "time": 11, "note": 59, "velocity": 98, "channel": 0}, {"type": "note_off", "time": 87, "note": 59, "velocity": 98, "channel": 0}, {"type": "note_on", "time": 7, "note": 58, "velocity": 97, "channel": 0}, {"type": "note_off", "time": 81, "note": 58, "velocity": 97, "channel": 0}, {"type": "note_on", "time": 414, "note": 53, "velocity": 96, "channel": 0}, {"type": "note_off", "time": 39, "note": 53, "velocity": 96, "channel": 0}, {"type": "note_on", "time": 13, "note": 58, "velocity": 88, "channel": 0}, {"type": "note_off", "time": 92, "note": 58, "velocity": 88, "channel": 0}, {"type": "note_on", "time": 10, "note": 62, "velocity": 110, "channel": 0}, {"type": "note_off", "time": 69, "note": 62, "velocity": 110, "channel": 0}, {"type": "note_on", "time": 20, "note": 63, "velocity": 108, "channel": 0}, {"type": "note_off", "time": 111, "note": 63, "velocity": 108, "channel": 0}, {"type": "note_on", "time": 7, "note": 62, "velocity": 105, "channel": 0}, {"type": "note_off", "time": 61, "note": 62, "velocity": 105, "channel": 0}, {"type": "note_on", "time": 12, "note": 58, "velocity": 91, "channel": 0}, {"type": "note_off", "time": 112, "note": 58, "velocity": 91, "channel": 0}, {"type": "note_on", "time": 19, "note": 53, "velocity": 107, "channel": 0}, {"type": "note_off", "time": 64, "note": 53, "velocity": 107, "channel": 0}, {"type": "note_on", "time": 5, "note": 60, "velocity": 113, "channel": 0}, {"type": "note_off", "time": 86, "note": 60, "velocity": 113, "channel": 0}, {"type": "note_on", "time": 84, "note": 60, "velocity": 106, "channel": 0}, {"type": "note_off", "time": 393, "note": 60, "velocity": 106, "channel": 0}, {"type": "note_on", "time": 11, "note": 58, "velocity": 98, "channel": 0}, {"type": "note_off", "time": 81, "note": 58, "velocity": 98, "channel": 0}, {"type": "note_on", "time": 15, "note": 55, "velocity": 94, "channel": 0}, {"type": "note_off", "time": 208, "note": 55, "velocity": 94, "channel": 0}, {"type": "end_of_track", "time": 0}]]}