{"ticks_per_beat": 2520, "tracks": [[{"type": "track_name", "name": "Melody", "time": 0}, {"type": "set_tempo", "tempo": 535714, "time": 0}, {"type": "key_signature", "key": "Ab", "time": 0}, {"type": "time_signature", "numerator": 3, "denominator": 4, "clocks_per_click": 24, "notated_32nd_notes_per_beat": 8, "time": 0}, {"type": "note_on", "time": 28917, "note": 63, "velocity": 122, "channel": 0}, {"type": "note_off", "time": 737, "note": 63, "velocity": 122, "channel": 0}, {"type": "note_on", "time": 54, "note": 62, "velocity": 124, "channel": 0}, {"type": "note_on", "time": 628, "note": 60, "velocity": 115, "channel": 0}, {"type": "note_off", "time": 0, "note": 62, "velocity": 124, "channel": 0}, {"type": "note_off", "time": 628, "note": 60, "velocity": 115, "channel": 0}, {"type": "note_on", "time": 27, "note": 63, "velocity": 125, "channel": 0}, {"type": "note_off", "time": 655, "note": 63, "velocity": 125, "channel": 0}, {"type": "note_on", "time": 27, "note": 62, "velocity": 121, "channel": 0}, {"type": "note_off", "time": 1693, "note": 62, "velocity": 121, "channel": 0}, {"type": "note_on", "time": 136, "note": 62, "velocity": 118, "channel": 0}, {"type": "note_off", "time": 682, "note": 62, "velocity": 118, "channel": 0}, {"type": "note_on", "time": 6280, "note": 62, "velocity": 120, "channel": 0}, {"type": "note_off", "time": 737, "note": 62, "velocity": 120, "channel": 0}, {"type": "note_on", "time": 573, "note": 67, "velocity": 117, "channel": 0}, {"type": "note_off", "time": 846, "note": 67, "velocity": 117, "channel": 0}, {"type": "note_on", "time": 409, "note": 62, "velocity": 123, "channel": 0}, {"type": "note_off", "time": 546, "note": 62, "velocity": 123, "channel": 0}, {"type": "note_on", "time": 109, "note": 63, "velocity": 125, "channel": 0}, {"type": "note_off", "time": 791, "note": 63, "velocity": 125, "channel": 0}, {"type": "note_on", "time": 628, "note": 58, "velocity": 110, "channel": 0}, {"type": "note_off", "time": 737, "note": 58, "velocity": 110, "channel": 0}, {"type": "note_on", "time": 382, "note": 62, "velocity": 123, "channel": 0}, {"type": "note_off", "time": 764, "note": 62, "velocity": 123, "channel": 0}, {"type": "note_on", "time": 525, "note": 57, "velocity": 111, "channel": 0}, {"type": "note_off", "time": 276, "note": 57, "velocity": 111, "channel": 0}, {"type": "note_on", "time": 58, "note": 57, "velocity": 111, "channel": 0}, {"type": "note_off", "time": 795, "note": 57, "velocity": 111, "channel": 0}, {"type": "note_on", "time": 11588, "note": 57, "velocity": 115, "channel": 0}, {"type": "note_off", "time": 518, "note": 57, "velocity": 115, "channel": 0}, {"type": "note_on", "time": 54, "note": 58, "velocity": 114, "channel": 0}, {"type": "note_off", "time": 327, "note": 58, "velocity": 114, "channel": 0}, {"type": "note_on", "time": 0, "note": 62, "velocity": 114, "channel": 0}, {"type": "note_off", "time": 327, "note": 62, "velocity": 114, "channel": 0}, {"type": "note_on", "time": 0, "note": 65, "velocity": 109, "channel": 0}, {"type": "note_off", "time": 382, "note": 65, "velocity": 109, "channel": 0}, {"type": "note_on", "time": 0, "note": 69, "velocity": 111, "channel": 0}, {"type": "note_off", "time": 327, "note": 69, "velocity": 111, "channel": 0}, {"type": "note_on", "time": 0, "note": 72, "velocity": 110, "channel": 0}, {"type": "note_off", "time": 4369, "note": 72, "velocity": 110, "channel": 0}, {"type": "note_on", "time": 54, "note": 69, "velocity": 108, "channel": 0}, {"type": "note_off", "time": 218, "note": 69, "velocity": 108, "channel": 0}, {"type": "note_on", "time": 109, "note": 71, "velocity": 106, "channel": 0}, {"type": "note_off", "time": 191, "note": 71, "velocity": 106, "channel": 0}, {"type": "note_on", "time": 54, "note": 69, "velocity": 110, "channel": 0}, {"type": "note_off", "time": 1856, "note": 69, "velocity": 110, "channel": 0}, {"type": "note_on", "time": 0, "note": 65, "velocity": 106, "channel": 0}, {"type": "note_off", "time": 382, "note": 65, "velocity": 106, "channel": 0}, {"type": "note_on", "time": 0, "note": 69, "velocity": 112, "channel": 0}, {"type": "note_off", "time": 354, "note": 69, "velocity": 112, "channel": 0}, {"type": "note_on", "time": 191, "note": 65, "velocity": 107, "channel": 0}, {"type": "note_off", "time": 600, "note": 65, "velocity": 107, "channel": 0}, {"type": "note_on", "time": 0, "note": 62, "velocity": 121, "channel": 0}, {"type": "note_off", "time": 709, "note": 62, "velocity": 121, "channel": 0}, {"type": "note_on", "time": 136, "note": 58, "velocity": 108, "channel": 0}, {"type": "note_off", "time": 600, "note": 58, "velocity": 108, "channel": 0}, {"type": "note_on", "time": 109, "note": 55, "velocity": 107, "channel": 0}, {"type": "note_off", "time": 354, "note": 55, "velocity": 107, "channel": 0}, {"type": "note_on", "time": 0, "note": 60, "velocity": 114, "channel": 0}, {"type": "note_off", "time": 682, "note": 60, "velocity": 114, "channel": 0}, {"type": "note_on", "time": 54, "note": 55, "velocity": 105, "channel": 0}, {"type": "note_off", "time": 382, "note": 55, "velocity": 105, "channel": 0}, {"type": "note_on", "time": 191, "note": 58, "velocity": 110, "channel": 0}, {"type": "note_off", "time": 573, "note": 58, "velocity": 110, "channel": 0}, {"type": "note_on", "time": 54, "note": 60, "velocity": 112, "channel": 0}, {"type": "note_off", "time": 491, "note": 60, "velocity": 112, "channel": 0}, {"type": "note_on", "time": 27, "note": 62, "velocity": 121, "channel": 0}, {"type": "note_off", "time": 819, "note": 62, "velocity": 121, "channel": 0}, {"type": "note_on", "time": 54, "note": 65, "velocity": 113, "channel": 0}, {"type": "note_off", "time": 491, "note": 65, "velocity": 113, "channel": 0}, {"type": "note_on", "time": 0, "note": 69, "velocity": 109, "channel": 0}, {"type": "note_off", "time": 682, "note": 69, "velocity": 109, "channel": 0}, {"type": "note_on", "time": 163, "note": 65, "velocity": 101, "channel": 0}, {"type": "note_off", "time": 436, "note": 65, "velocity": 101, "channel": 0}, {"type": "note_on", "time": 218, "note": 70, "velocity": 107, "channel": 0}, {"type": "note_off", "time": 491, "note": 70, "velocity": 107, "channel": 0}, {"type": "note_on", "time": 0, "note": 69, "velocity": 108, "channel": 0}, {"type": "note_off", "time": 382, "note": 69, "velocity": 108, "channel": 0}, {"type": "note_on", "time": 245, "note": 67, "velocity": 114, "channel": 0}, {"type": "note_off", "time": 791, "note": 67, "velocity": 114, "channel": 0}, {"type": "note_on", "time": 0, "note": 65, "velocity": 105, "channel": 0}, {"type": "note_off", "time": 436, "note": 65, "velocity": 105, "channel": 0}, {"type": "note_on", "time": 81, "note": 67, "velocity": 112, "channel": 0}, {"type": "note_off", "time": 791, "note": 67, "velocity": 112, "channel": 0}, {"type": "note_on", "time": 163, "note": 65, "velocity": 108, "channel": 0}, {"type": "note_off", "time": 436, "note": 65, "velocity": 108, "channel": 0}, {"type": "note_on", "time": 546, "note": 69, "velocity": 110, "channel": 0}, {"type": "note_off", "time": 382, "note": 69, "velocity": 110, "channel": 0}, {"type": "note_on", "time": 218, "note": 68, "velocity": 111, "channel": 0}, {"type": "note_off", "time": 409, "note": 68, "velocity": 111, "channel": 0}, {"type": "note_on", "time": 218, "note": 67, "velocity": 113, "channel": 0}, {"type": "note_off", "time": 1338, "note": 67, "velocity": 113, "channel": 0}, {"type": "note_on", "time": 13762, "note": 67, "velocity": 109, "channel": 0}, {"type": "note_off", "time": 491, "note": 67, "velocity": 109, "channel": 0}, {"type": "note_on", "time": 27, "note": 69, "velocity": 110, "channel": 0}, {"type": "note_off", "time": 464, "note": 69, "velocity": 110, "channel": 0}, {"type": "note_on", "time": 491, "note": 65, "velocity": 114, "channel": 0}, {"type": "note_off", "time": 3085, "note": 65, "velocity": 114, "channel": 0}, {"type": "note_on", "time": 682, "note": 62, "velocity": 122, "channel": 0}, {"type": "note_off", "time": 682, "note": 62, "velocity": 122, "channel": 0}, {"type": "note_on", "time": 27, "note": 65, "velocity": 112, "channel": 0}, {"type": "note_off", "time": 464, "note": 65, "velocity": 112, "channel": 0}, {"type": "note_on", "time": 54, "note": 69, "velocity": 110, "channel": 0}, {"type": "note_off", "time": 655, "note": 69, "velocity": 110, "channel": 0}, {"type": "note_on", "time": 54, "note": 72, "velocity": 110, "channel": 0}, {"type": "note_off", "time": 600, "note": 72, "velocity": 110, "channel": 0}, {"type": "note_on", "time": 600, "note": 69, "velocity": 112, "channel": 0}, {"type": "note_off", "time": 655, "note": 69, "velocity": 112, "channel": 0}, {"type": "note_on", "time": 109, "note": 72, "velocity": 100, "channel": 0}, {"type": "note_off", "time": 628, "note": 72, "velocity": 100, "channel": 0}, {"type": "note_on", "time": 191, "note": 69, "velocity": 112, "channel": 0}, {"type": "note_off", "time": 409, "note": 69, "velocity": 112, "channel": 0}, {"type": "note_on", "time": 54, "note": 68, "velocity": 111, "channel": 0}, {"type": "note_off", "time": 436, "note": 68, "velocity": 111, "channel": 0}, {"type": "note_on", "time": 191, "note": 65, "velocity": 111, "channel": 0}, {"type": "note_off", "time": 600, "note": 65, "velocity": 111, "channel": 0}, {"type": "note_on", "time": 218, "note": 69, "velocity": 111, "channel": 0}, {"type": "note_off", "time": 409, "note": 69, "velocity": 111, "channel": 0}, {"type": "note_on", "time": 81, "note": 67, "velocity": 113, "channel": 0}, {"type": "note_off", "time": 518, "note": 67, "velocity": 113, "channel": 0}, {"type": "note_on", "time": 109, "note": 65, "velocity": 117, "channel": 0}, {"type": "note_off", "time": 546, "note": 65, "velocity": 117, "channel": 0}, {"type": "note_on", "time": 163, "note": 62, "velocity": 121, "channel": 0}, {"type": "note_off", "time": 628, "note": 62, "velocity": 121, "channel": 0}, {"type": "note_on", "time": 54, "note": 67, "velocity": 115, "channel": 0}, {"type": "note_off", "time": 464, "note": 67, "velocity": 115, "channel": 0}, {"type": "note_on", "time": 136, "note": 65, "velocity": 118, "channel": 0}, {"type": "note_off", "time": 464, "note": 65, "velocity": 118, "channel": 0}, {"type": "note_on", "time": 136, "note": 62, "velocity": 121, "channel": 0}, {"type": "note_off", "time": 573, "note": 62, "velocity": 121, "channel": 0}, {"type": "note_on", "time": 81, "note": 60, "velocity": 118, "channel": 0}, {"type": "note_off", "time": 600, "note": 60, "velocity": 118, "channel": 0}, {"type": "note_on", "time": 54, "note": 55, "velocity": 108, "channel": 0}, {"type": "note_off", "time": 382, "note": 55, "velocity": 108, "channel": 0}, {"type": "note_on", "time": 81, "note": 58, "velocity": 106, "channel": 0}, {"type": "note_off", "time": 764, "note": 58, "velocity": 106, "channel": 0}, {"type": "note_on", "time": 54, "note": 55, "velocity": 110, "channel": 0}, {"type": "note_off", "time": 491, "note": 55, "velocity": 110, "channel": 0}, {"type": "note_on", "time": 27, "note": 60, "velocity": 117, "channel": 0}, {"type": "note_off", "time": 655, "note": 60, "velocity": 117, "channel": 0}, {"type": "note_on", "time": 27, "note": 62, "velocity": 124, "channel": 0}, {"type": "note_off", "time": 600, "note": 62, "velocity": 124, "channel": 0}, {"type": "note_on", "time": 600, "note": 62, "velocity": 123, "channel": 0}, {"type": "note_off", "time": 573, "note": 62, "velocity": 123, "channel": 0}, {"type": "note_on", "time": 273, "note": 62, "velocity": 124, "channel": 0}, {"type": "note_off", "time": 655, "note": 62, "velocity": 124, "channel": 0}, {"type": "note_on", "time": 4259, "note": 67, "velocity": 120, "channel": 0}, {"type": "note_off", "time": 709, "note": 67, "velocity": 120, "channel": 0}, {"type": "note_on", "time": 109, "note": 70, "velocity": 111, "channel": 0}, {"type": "note_off", "time": 518, "note": 70, "velocity": 111, "channel": 0}, {"type": "note_on", "time": 218, "note": 69, "velocity": 110, "channel": 0}, {"type": "note_off", "time": 764, "note": 69, "velocity": 110, "channel": 0}, {"type": "note_on", "time": 163, "note": 67, "velocity": 114, "channel": 0}, {"type": "note_off", "time": 737, "note": 67, "velocity": 114, "channel": 0}, {"type": "note_on", "time": 245, "note": 75, "velocity": 117, "channel": 0}, {"type": "note_off", "time": 546, "note": 75, "velocity": 117, "channel": 0}, {"type": "note_on", "time": 192, "note": 77, "velocity": 110, "channel": 0}, {"type": "note_off", "time": 1521, "note": 77, "velocity": 110, "channel": 0}, {"type": "note_on", "time": 115, "note": 75, "velocity": 104, "channel": 0}, {"type": "note_off", "time": 655, "note": 75, "velocity": 104, "channel": 0}, {"type": "note_on", "time": 218, "note": 74, "velocity": 102, "channel": 0}, {"type": "note_off", "time": 737, "note": 74, "velocity": 102, "channel": 0}, {"type": "note_on", "time": 81, "note": 72, "velocity": 94, "channel": 0}, {"type": "note_off", "time": 655, "note": 72, "velocity": 94, "channel": 0}, {"type": "note_on", "time": 218, "note": 74, "velocity": 100, "channel": 0}, {"type": "note_off", "time": 436, "note": 74, "velocity": 100, "channel": 0}, {"type": "note_on", "time": 136, "note": 75, "velocity": 101, "channel": 0}, {"type": "note_off", "time": 464, "note": 75, "velocity": 101, "channel": 0}, {"type": "note_on", "time": 27, "note": 73, "velocity": 94, "channel": 0}, {"type": "note_off", "time": 163, "note": 73, "velocity": 94, "channel": 0}, {"type": "note_on", "time": 109, "note": 70, "velocity": 107, "channel": 0}, {"type": "note_off", "time": 491, "note": 70, "velocity": 107, "channel": 0}, {"type": "note_on", "time": 27, "note": 69, "velocity": 110, "channel": 0}, {"type": "note_off", "time": 628, "note": 69, "velocity": 110, "channel": 0}, {"type": "note_on", "time": 109, "note": 70, "velocity": 111, "channel": 0}, {"type": "note_off", "time": 600, "note": 70, "velocity": 111, "channel": 0}, {"type": "note_on", "time": 109, "note": 72, "velocity": 113, "channel": 0}, {"type": "note_off", "time": 546, "note": 72, "velocity": 113, "channel": 0}, {"type": "note_on", "time": 27, "note": 74, "velocity": 105, "channel": 0}, {"type": "note_off", "time": 464, "note": 74, "velocity": 105, "channel": 0}, {"type": "note_on", "time": 218, "note": 75, "velocity": 108, "channel": 0}, {"type": "note_off", "time": 409, "note": 75, "velocity": 108, "channel": 0}, {"type": "note_on", "time": 191, "note": 77, "velocity": 107, "channel": 0}, {"type": "note_off", "time": 682, "note": 77, "velocity": 107, "channel": 0}, {"type": "note_on", "time": 163, "note": 73, "velocity": 100, "channel": 0}, {"type": "note_off", "time": 163, "note": 73, "velocity": 100, "channel": 0}, {"type": "note_on", "time": 54, "note": 74, "velocity": 104, "channel": 0}, {"type": "note_off", "time": 382, "note": 74, "velocity": 104, "channel": 0}, {"type": "note_on", "time": 27, "note": 72, "velocity": 106, "channel": 0}, {"type": "note_off", "time": 245, "note": 72, "velocity": 106, "channel": 0}, {"type": "note_on", "time": 54, "note": 70, "velocity": 113, "channel": 0}, {"type": "note_off", "time": 273, "note": 70, "velocity": 113, "channel": 0}, {"type": "note_on", "time": 0, "note": 69, "velocity": 110, "channel": 0}, {"type": "note_off", "time": 518, "note": 69, "velocity": 110, "channel": 0}, {"type": "note_on", "time": 245, "note": 72, "velocity": 111, "channel": 0}, {"type": "note_off", "time": 436, "note": 72, "velocity": 111, "channel": 0}, {"type": "note_on", "time": 109, "note": 70, "velocity": 110, "channel": 0}, {"type": "note_off", "time": 464, "note": 70, "velocity": 110, "channel": 0}, {"type": "note_on", "time": 0, "note": 69, "velocity": 109, "channel": 0}, {"type": "note_off", "time": 655, "note": 69, "velocity": 109, "channel": 0}, {"type": "note_on", "time": 163, "note": 67, "velocity": 117, "channel": 0}, {"type": "note_off", "time": 436, "note": 67, "velocity": 117, "channel": 0}, {"type": "note_on", "time": 136, "note": 66, "velocity": 115, "channel": 0}, {"type": "note_off", "time": 491, "note": 66, "velocity": 115, "channel": 0}, {"type": "note_on", "time": 27, "note": 67, "velocity": 113, "channel": 0}, {"type": "note_off", "time": 600, "note": 67, "velocity": 113, "channel": 0}, {"type": "note_on", "time": 81, "note": 69, "velocity": 112, "channel": 0}, {"type": "note_off", "time": 491, "note": 69, "velocity": 112, "channel": 0}, {"type": "note_on", "time": 81, "note": 62, "velocity": 121, "channel": 0}, {"type": "note_off", "time": 628, "note": 62, "velocity": 121, "channel": 0}, {"type": "note_on", "time": 81, "note": 63, "velocity": 122, "channel": 0}, {"type": "note_off", "time": 491, "note": 63, "velocity": 122, "channel": 0}, {"type": "note_on", "time": 136, "note": 67, "velocity": 119, "channel": 0}, {"type": "note_off", "time": 573, "note": 67, "velocity": 119, "channel": 0}, {"type": "note_on", "time": 54, "note": 65, "velocity": 119, "channel": 0}, {"type": "note_off", "time": 600, "note": 65, "velocity": 119, "channel": 0}, {"type": "note_on", "time": 54, "note": 63, "velocity": 124, "channel": 0}, {"type": "note_off", "time": 682, "note": 63, "velocity": 124, "channel": 0}, {"type": "note_on", "time": 109, "note": 65, "velocity": 120, "channel": 0}, {"type": "note_off", "time": 491, "note": 65, "velocity": 120, "channel": 0}, {"type": "note_on", "time": 81, "note": 62, "velocity": 120, "channel": 0}, {"type": "note_off", "time": 709, "note": 62, "velocity": 120, "channel": 0}, {"type": "note_on", "time": 1611, "note": 63, "velocity": 120, "channel": 0}, {"type": "note_off", "time": 737, "note": 63, "velocity": 120, "channel": 0}, {"type": "note_on", "time": 109, "note": 62, "velocity": 124, "channel": 0}, {"type": "note_off", "time": 600, "note": 62, "velocity": 124, "channel": 0}, {"type": "note_on", "time": 109, "note": 60, "velocity": 116, "channel": 0}, {"type": "note_off", "time": 491, "note": 60, "velocity": 116, "channel": 0}, {"type": "note_on", "time": 0, "note": 62, "velocity": 121, "channel": 0}, {"type": "note_off", "time": 464, "note": 62, "velocity": 121, "channel": 0}, {"type": "note_on", "time": 273, "note": 58, "velocity": 109, "channel": 0}, {"type": "note_off", "time": 709, "note": 58, "velocity": 109, "channel": 0}, {"type": "note_on", "time": 218, "note": 58, "velocity": 122, "channel": 0}, {"type": "note_off", "time": 464, "note": 58, "velocity": 122, "channel": 0}, {"type": "note_on", "time": 81, "note": 59, "velocity": 114, "channel": 0}, {"type": "note_off", "time": 518, "note": 59, "velocity": 114, "channel": 0}, {"type": "note_on", "time": 382, "note": 58, "velocity": 122, "channel": 0}, {"type": "note_off", "time": 744, "note": 58, "velocity": 122, "channel": 0}, {"type": "note_on", "time": 3106, "note": 59, "velocity": 110, "channel": 0}, {"type": "note_off", "time": 491, "note": 59, "velocity": 110, "channel": 0}, {"type": "note_on", "time": 81, "note": 60, "velocity": 116, "channel": 0}, {"type": "note_off", "time": 2020, "note": 60, "velocity": 116, "channel": 0}, {"type": "note_on", "time": 54, "note": 58, "velocity": 110, "channel": 0}, {"type": "note_off", "time": 600, "note": 58, "velocity": 110, "channel": 0}, {"type": "note_on", "time": 81, "note": 57, "velocity": 108, "channel": 0}, {"type": "note_off", "time": 409, "note": 57, "velocity": 108, "channel": 0}, {"type": "note_on", "time": 81, "note": 58, "velocity": 109, "channel": 0}, {"type": "note_off", "time": 628, "note": 58, "velocity": 109, "channel": 0}, {"type": "note_on", "time": 136, "note": 57, "velocity": 111, "channel": 0}, {"type": "note_off", "time": 573, "note": 57, "velocity": 111, "channel": 0}, {"type": "note_on", "time": 27, "note": 55, "velocity": 113, "channel": 0}, {"type": "note_off", "time": 518, "note": 55, "velocity": 113, "channel": 0}, {"type": "note_on", "time": 136, "note": 53, "velocity": 110, "channel": 0}, {"type": "note_off", "time": 1829, "note": 53, "velocity": 110, "channel": 0}, {"type": "note_on", "time": 109, "note": 50, "velocity": 110, "channel": 0}, {"type": "note_off", "time": 1993, "note": 50, "velocity": 110, "channel": 0}, {"type": "note_on", "time": 15045, "note": 60, "velocity": 112, "channel": 0}, {"type": "note_off", "time": 655, "note": 60, "velocity": 112, "channel": 0}, {"type": "note_on", "time": 600, "note": 60, "velocity": 118, "channel": 0}, {"type": "note_off", "time": 682, "note": 60, "velocity": 118, "channel": 0}, {"type": "note_on", "time": 518, "note": 60, "velocity": 118, "channel": 0}, {"type": "note_off", "time": 873, "note": 60, "velocity": 118, "channel": 0}, {"type": "note_on", "time": 327, "note": 60, "velocity": 118, "channel": 0}, {"type": "note_off", "time": 846, "note": 60, "velocity": 118, "channel": 0}, {"type": "note_on", "time": 54, "note": 58, "velocity": 117, "channel": 0}, {"type": "note_off", "time": 382, "note": 58, "velocity": 117, "channel": 0}, {"type": "note_on", "time": 163, "note": 60, "velocity": 116, "channel": 0}, {"type": "note_off", "time": 491, "note": 60, "velocity": 116, "channel": 0}, {"type": "note_on", "time": 136, "note": 60, "velocity": 112, "channel": 0}, {"type": "note_off", "time": 436, "note": 60, "velocity": 112, "channel": 0}, {"type": "note_on", "time": 163, "note": 60, "velocity": 108, "channel": 0}, {"type": "note_off", "time": 327, "note": 60, "velocity": 108, "channel": 0}, {"type": "note_on", "time": 409, "note": 58, "velocity": 105, "channel": 0}, {"type": "note_off", "time": 464, "note": 58, "velocity": 105, "channel": 0}, {"type": "note_on", "time": 245, "note": 60, "velocity": 103, "channel": 0}, {"type": "note_off", "time": 300, "note": 60, "velocity": 103, "channel": 0}, {"type": "note_on", "time": 273, "note": 60, "velocity": 103, "channel": 0}, {"type": "note_off", "time": 382, "note": 60, "velocity": 103, "channel": 0}, {"type": "note_on", "time": 163, "note": 60, "velocity": 100, "channel": 0}, {"type": "note_off", "time": 327, "note": 60, "velocity": 100, "channel": 0}, {"type": "note_on", "time": 464, "note": 60, "velocity": 116, "channel": 0}, {"type": "note_off", "time": 573, "note": 60, "velocity": 116, "channel": 0}, {"type": "note_on", "time": 600, "note": 60, "velocity": 108, "channel": 0}, {"type": "note_off", "time": 600, "note": 60, "velocity": 108, "channel": 0}, {"type": "note_on", "time": 136, "note": 58, "velocity": 107, "channel": 0}, {"type": "note_off", "time": 682, "note": 58, "velocity": 107, "channel": 0}, {"type": "note_on", "time": 109, "note": 57, "velocity": 106, "channel": 0}, {"type": "note_off", "time": 819, "note": 57, "velocity": 106, "channel": 0}, {"type": "note_on", "time": 245, "note": 55, "velocity": 112, "channel": 0}, {"type": "note_off", "time": 1693, "note": 55, "velocity": 112, "channel": 0}, {"type": "note_on", "time": 81, "note": 53, "velocity": 108, "channel": 0}, {"type": "note_off", "time": 791, "note": 53, "velocity": 108, "channel": 0}, {"type": "note_on", "time": 191, "note": 53, "velocity": 111, "channel": 0}, {"type": "note_off", "time": 1774, "note": 53, "velocity": 111, "channel": 0}, {"type": "note_on", "time": 218, "note": 50, "velocity": 108, "channel": 0}, {"type": "note_off", "time": 2102, "note": 50, "velocity": 108, "channel": 0}, {"type": "note_on", "time": 10021, "note": 55, "velocity": 118, "channel": 0}, {"type": "note_off", "time": 546, "note": 55, "velocity": 118, "channel": 0}, {"type": "note_on", "time": 109, "note": 57, "velocity": 117, "channel": 0}, {"type": "note_off", "time": 573, "note": 57, "velocity": 117, "channel": 0}, {"type": "note_on", "time": 109, "note": 54, "velocity": 114, "channel": 0}, {"type": "note_off", "time": 518, "note": 54, "velocity": 114, "channel": 0}, {"type": "note_on", "time": 54, "note": 55, "velocity": 115, "channel": 0}, {"type": "note_on", "time": 573, "note": 57, "velocity": 119, "channel": 0}, {"type": "note_off", "time": 0, "note": 55, "velocity": 115, "channel": 0}, {"type": "note_off", "time": 655, "note": 57, "velocity": 119, "channel": 0}, {"type": "note_on", "time": 54, "note": 58, "velocity": 117, "channel": 0}, {"type": "note_off", "time": 628, "note": 58, "velocity": 117, "channel": 0}, {"type": "note_on", "time": 27, "note": 60, "velocity": 115, "channel": 0}, {"type": "note_off", "time": 518, "note": 60, "velocity": 115, "channel": 0}, {"type": "note_on", "time": 163, "note": 62, "velocity": 122, "channel": 0}, {"type": "note_off", "time": 491, "note": 62, "velocity": 122, "channel": 0}, {"type": "note_on", "time": 54, "note": 67, "velocity": 118, "channel": 0}, {"type": "note_off", "time": 628, "note": 67, "velocity": 118, "channel": 0}, {"type": "note_on", "time": 0, "note": 66, "velocity": 119, "channel": 0}, {"type": "note_off", "time": 491, "note": 66, "velocity": 119, "channel": 0}, {"type": "note_on", "time": 109, "note": 69, "velocity": 114, "channel": 0}, {"type": "note_off", "time": 600, "note": 69, "velocity": 114, "channel": 0}, {"type": "note_on", "time": 81, "note": 67, "velocity": 119, "channel": 0}, {"type": "note_off", "time": 518, "note": 67, "velocity": 119, "channel": 0}, {"type": "note_on", "time": 163, "note": 62, "velocity": 121, "channel": 0}, {"type": "note_off", "time": 491, "note": 62, "velocity": 121, "channel": 0}, {"type": "note_on", "time": 54, "note": 58, "velocity": 114, "channel": 0}, {"type": "note_off", "time": 546, "note": 58, "velocity": 114, "channel": 0}, {"type": "note_on", "time": 109, "note": 60, "velocity": 117, "channel": 0}, {"type": "note_off", "time": 464, "note": 60, "velocity": 117, "channel": 0}, {"type": "note_on", "time": 163, "note": 62, "velocity": 126, "channel": 0}, {"type": "note_off", "time": 382, "note": 62, "velocity": 126, "channel": 0}, {"type": "note_on", "time": 109, "note": 63, "velocity": 125, "channel": 0}, {"type": "note_on", "time": 409, "note": 62, "velocity": 125, "channel": 0}, {"type": "note_off", "time": 0, "note": 63, "velocity": 125, "channel": 0}, {"type": "note_off", "time": 436, "note": 62, "velocity": 125, "channel": 0}, {"type": "note_on", "time": 0, "note": 61, "velocity": 119, "channel": 0}, {"type": "note_off", "time": 518, "note": 61, "velocity": 119, "channel": 0}, {"type": "note_on", "time": 54, "note": 62, "velocity": 120, "channel": 0}, {"type": "note_off", "time": 464, "note": 62, "velocity": 120, "channel": 0}, {"type": "note_on", "time": 163, "note": 69, "velocity": 108, "channel": 0}, {"type": "note_off", "time": 628, "note": 69, "velocity": 108, "channel": 0}, {"type": "note_on", "time": 27, "note": 62, "velocity": 105, "channel": 0}, {"type": "note_off", "time": 600, "note": 62, "velocity": 105, "channel": 0}, {"type": "note_on", "time": 27, "note": 67, "velocity": 113, "channel": 0}, {"type": "note_off", "time": 518, "note": 67, "velocity": 113, "channel": 0}, {"type": "note_on", "time": 81, "note": 69, "velocity": 114, "channel": 0}, {"type": "note_off", "time": 409, "note": 69, "velocity": 114, "channel": 0}, {"type": "note_on", "time": 245, "note": 70, "velocity": 113, "channel": 0}, {"type": "note_off", "time": 464, "note": 70, "velocity": 113, "channel": 0}, {"type": "note_on", "time": 81, "note": 62, "velocity": 91, "channel": 0}, {"type": "note_off", "time": 628, "note": 62, "velocity": 91, "channel": 0}, {"type": "note_on", "time": 163, "note": 69, "velocity": 115, "channel": 0}, {"type": "note_off", "time": 573, "note": 69, "velocity": 115, "channel": 0}, {"type": "note_on", "time": 163, "note": 67, "velocity": 109, "channel": 0}, {"type": "note_off", "time": 764, "note": 67, "velocity": 109, "channel": 0}, {"type": "note_on", "time": 409, "note": 67, "velocity": 117, "channel": 0}, {"type": "note_off", "time": 518, "note": 67, "velocity": 117, "channel": 0}, {"type": "note_on", "time": 518, "note": 67, "velocity": 121, "channel": 0}, {"type": "note_off", "time": 764, "note": 67, "velocity": 121, "channel": 0}, {"type": "note_on", "time": 0, "note": 72, "velocity": 109, "channel": 0}, {"type": "note_off", "time": 1283, "note": 72, "velocity": 109, "channel": 0}, {"type": "note_on", "time": 27, "note": 70, "velocity": 112, "channel": 0}, {"type": "note_off", "time": 1201, "note": 70, "velocity": 112, "channel": 0}, {"type": "note_on", "time": 54, "note": 69, "velocity": 114, "channel": 0}, {"type": "note_off", "time": 1174, "note": 69, "velocity": 114, "channel": 0}, {"type": "note_on", "time": 81, "note": 67, "velocity": 118, "channel": 0}, {"type": "note_off", "time": 737, "note": 67, "velocity": 118, "channel": 0}, {"type": "note_on", "time": 109, "note": 70, "velocity": 114, "channel": 0}, {"type": "note_off", "time": 218, "note": 70, "velocity": 114, "channel": 0}, {"type": "note_on", "time": 0, "note": 69, "velocity": 97, "channel": 0}, {"type": "note_off", "time": 491, "note": 69, "velocity": 97, "channel": 0}, {"type": "note_on", "time": 3932, "note": 70, "velocity": 102, "channel": 0}, {"type": "note_off", "time": 436, "note": 70, "velocity": 102, "channel": 0}, {"type": "note_on", "time": 273, "note": 72, "velocity": 115, "channel": 0}, {"type": "note_off", "time": 1283, "note": 72, "velocity": 115, "channel": 0}, {"type": "note_on", "time": 109, "note": 67, "velocity": 117, "channel": 0}, {"type": "note_off", "time": 600, "note": 67, "velocity": 117, "channel": 0}, {"type": "note_on", "time": 81, "note": 70, "velocity": 113, "channel": 0}, {"type": "note_off", "time": 1638, "note": 70, "velocity": 113, "channel": 0}, {"type": "note_on", "time": 78, "note": 65, "velocity": 109, "channel": 0}, {"type": "note_off", "time": 651, "note": 65, "velocity": 109, "channel": 0}, {"type": "note_on", "time": 3, "note": 67, "velocity": 115, "channel": 0}, {"type": "note_off", "time": 354, "note": 67, "velocity": 115, "channel": 0}, {"type": "note_on", "time": 30, "note": 69, "velocity": 116, "channel": 0}, {"type": "note_off", "time": 1365, "note": 69, "velocity": 116, "channel": 0}, {"type": "note_on", "time": 81, "note": 64, "velocity": 120, "channel": 0}, {"type": "note_off", "time": 737, "note": 64, "velocity": 120, "channel": 0}, {"type": "note_on", "time": 109, "note": 67, "velocity": 114, "channel": 0}, {"type": "note_off", "time": 1583, "note": 67, "velocity": 114, "channel": 0}, {"type": "note_on", "time": 191, "note": 68, "velocity": 108, "channel": 0}, {"type": "note_off", "time": 628, "note": 68, "velocity": 108, "channel": 0}, {"type": "note_on", "time": 163, "note": 65, "velocity": 112, "channel": 0}, {"type": "note_off", "time": 1611, "note": 65, "velocity": 112, "channel": 0}, {"type": "note_on", "time": 245, "note": 60, "velocity": 109, "channel": 0}, {"type": "note_off", "time": 518, "note": 60, "velocity": 109, "channel": 0}, {"type": "note_on", "time": 0, "note": 64, "velocity": 122, "channel": 0}, {"type": "note_off", "time": 491, "note": 64, "velocity": 122, "channel": 0}, {"type": "note_on", "time": 2239, "note": 59, "velocity": 101, "channel": 0}, {"type": "note_off", "time": 300, "note": 59, "velocity": 101, "channel": 0}, {"type": "note_on", "time": 273, "note": 63, "velocity": 122, "channel": 0}, {"type": "note_off", "time": 791, "note": 63, "velocity": 122, "channel": 0}, {"type": "note_on", "time": 0, "note": 61, "velocity": 109, "channel": 0}, {"type": "note_off", "time": 382, "note": 61, "velocity": 109, "channel": 0}, {"type": "note_on", "time": 81, "note": 62, "velocity": 125, "channel": 0}, {"type": "note_off", "time": 682, "note": 62, "velocity": 125, "channel": 0}, {"type": "note_on", "time": 0, "note": 60, "velocity": 113, "channel": 0}, {"type": "note_off", "time": 600, "note": 60, "velocity": 113, "channel": 0}, {"type": "note_on", "time": 54, "note": 58, "velocity": 114, "channel": 0}, {"type": "note_off", "time": 600, "note": 58, "velocity": 114, "channel": 0}, {"type": "note_on", "time": 136, "note": 60, "velocity": 114, "channel": 0}, {"type": "note_off", "time": 354, "note": 60, "velocity": 114, "channel": 0}, {"type": "note_on", "time": 81, "note": 62, "velocity": 115, "channel": 0}, {"type": "note_off", "time": 354, "note": 62, "velocity": 115, "channel": 0}, {"type": "note_on", "time": 0, "note": 65, "velocity": 113, "channel": 0}, {"type": "note_off", "time": 327, "note": 65, "velocity": 113, "channel": 0}, {"type": "note_on", "time": 27, "note": 69, "velocity": 111, "channel": 0}, {"type": "note_off", "time": 491, "note": 69, "velocity": 111, "channel": 0}, {"type": "note_on", "time": 81, "note": 66, "velocity": 110, "channel": 0}, {"type": "note_off", "time": 655, "note": 66, "velocity": 110, "channel": 0}, {"type": "note_on", "time": 109, "note": 67, "velocity": 110, "channel": 0}, {"type": "note_off", "time": 436, "note": 67, "velocity": 110, "channel": 0}, {"type": "note_on", "time": 0, "note": 70, "velocity": 111, "channel": 0}, {"type": "note_off", "time": 600, "note": 70, "velocity": 111, "channel": 0}, {"type": "note_on", "time": 27, "note": 72, "velocity": 112, "channel": 0}, {"type": "note_off", "time": 409, "note": 72, "velocity": 112, "channel": 0}, {"type": "note_on", "time": 409, "note": 72, "velocity": 111, "channel": 0}, {"type": "note_off", "time": 300, "note": 72, "velocity": 111, "channel": 0}, {"type": "note_on", "time": 0, "note": 74, "velocity": 106, "channel": 0}, {"type": "note_off", "time": 327, "note": 74, "velocity": 106, "channel": 0}, {"type": "note_on", "time": 81, "note": 73, "velocity": 106, "channel": 0}, {"type": "note_off", "time": 354, "note": 73, "velocity": 106, "channel": 0}, {"type": "note_on", "time": 81, "note": 72, "velocity": 112, "channel": 0}, {"type": "note_off", "time": 436, "note": 72, "velocity": 112, "channel": 0}, {"type": "note_on", "time": 163, "note": 70, "velocity": 100, "channel": 0}, {"type": "note_off", "time": 409, "note": 70, "velocity": 100, "channel": 0}, {"type": "note_on", "time": 245, "note": 72, "velocity": 112, "channel": 0}, {"type": "note_off", "time": 464, "note": 72, "velocity": 112, "channel": 0}, {"type": "note_on", "time": 54, "note": 70, "velocity": 105, "channel": 0}, {"type": "note_off", "time": 573, "note": 70, "velocity": 105, "channel": 0}, {"type": "note_on", "time": 0, "note": 67, "velocity": 114, "channel": 0}, {"type": "note_off", "time": 273, "note": 67, "velocity": 114, "channel": 0}, {"type": "note_on", "time": 136, "note": 66, "velocity": 118, "channel": 0}, {"type": "note_off", "time": 327, "note": 66, "velocity": 118, "channel": 0}, {"type": "note_on", "time": 136, "note": 62, "velocity": 111, "channel": 0}, {"type": "note_off", "time": 327, "note": 62, "velocity": 111, "channel": 0}, {"type": "note_on", "time": 136, "note": 65, "velocity": 113, "channel": 0}, {"type": "note_off", "time": 436, "note": 65, "velocity": 113, "channel": 0}, {"type": "note_on", "time": 136, "note": 67, "velocity": 110, "channel": 0}, {"type": "note_off", "time": 628, "note": 67, "velocity": 110, "channel": 0}, {"type": "note_on", "time": 27, "note": 69, "velocity": 112, "channel": 0}, {"type": "note_off", "time": 436, "note": 69, "velocity": 112, "channel": 0}, {"type": "note_on", "time": 245, "note": 70, "velocity": 112, "channel": 0}, {"type": "note_off", "time": 327, "note": 70, "velocity": 112, "channel": 0}, {"type": "note_on", "time": 354, "note": 67, "velocity": 120, "channel": 0}, {"type": "note_off", "time": 600, "note": 67, "velocity": 120, "channel": 0}, {"type": "note_on", "time": 1119, "note": 79, "velocity": 124, "channel": 0}, {"type": "note_off", "time": 709, "note": 79, "velocity": 124, "channel": 0}, {"type": "note_on", "time": 1365, "note": 74, "velocity": 108, "channel": 0}, {"type": "note_off", "time": 491, "note": 74, "velocity": 108, "channel": 0}, {"type": "note_on", "time": 436, "note": 74, "velocity": 114, "channel": 0}, {"type": "note_off", "time": 409, "note": 74, "velocity": 114, "channel": 0}, {"type": "note_on", "time": 136, "note": 75, "velocity": 9, "channel": 0}, {"type": "note_off", "time": 846, "note": 75, "velocity": 9, "channel": 0}, {"type": "note_on", "time": 163, "note": 74, "velocity": 102, "channel": 0}, {"type": "note_off", "time": 546, "note": 74, "velocity": 102, "channel": 0}, {"type": "note_on", "time": 2375, "note": 79, "velocity": 113, "channel": 0}, {"type": "note_off", "time": 655, "note": 79, "velocity": 113, "channel": 0}, {"type": "note_on", "time": 846, "note": 81, "velocity": 110, "channel": 0}, {"type": "note_off", "time": 491, "note": 81, "velocity": 110, "channel": 0}, {"type": "note_on", "time": 696, "note": 74, "velocity": 76, "channel": 0}, {"type": "note_off", "time": 477, "note": 74, "velocity": 76, "channel": 0}, {"type": "note_on", "time": 395, "note": 73, "velocity": 120, "channel": 0}, {"type": "note_off", "time": 354, "note": 73, "velocity": 120, "channel": 0}, {"type": "note_on", "time": 40, "note": 75, "velocity": 124, "channel": 0}, {"type": "note_off", "time": 600, "note": 75, "velocity": 124, "channel": 0}, {"type": "note_on", "time": 54, "note": 74, "velocity": 100, "channel": 0}, {"type": "note_off", "time": 655, "note": 74, "velocity": 100, "channel": 0}, {"type": "note_on", "time": 136, "note": 72, "velocity": 109, "channel": 0}, {"type": "note_off", "time": 1228, "note": 72, "velocity": 109, "channel": 0}, {"type": "note_on", "time": 1226, "note": 69, "velocity": 111, "channel": 0}, {"type": "note_off", "time": 326, "note": 69, "velocity": 111, "channel": 0}, {"type": "note_on", "time": 3, "note": 70, "velocity": 108, "channel": 0}, {"type": "note_off", "time": 354, "note": 70, "velocity": 108, "channel": 0}, {"type": "note_on", "time": 136, "note": 72, "velocity": 105, "channel": 0}, {"type": "note_off", "time": 409, "note": 72, "velocity": 105, "channel": 0}, {"type": "note_on", "time": 55, "note": 74, "velocity": 105, "channel": 0}, {"type": "note_off", "time": 345, "note": 74, "velocity": 105, "channel": 0}, {"type": "note_on", "time": 192, "note": 75, "velocity": 103, "channel": 0}, {"type": "note_off", "time": 460, "note": 75, "velocity": 103, "channel": 0}, {"type": "note_on", "time": 115, "note": 77, "velocity": 96, "channel": 0}, {"type": "note_off", "time": 556, "note": 77, "velocity": 96, "channel": 0}, {"type": "note_on", "time": 556, "note": 73, "velocity": 105, "channel": 0}, {"type": "note_off", "time": 211, "note": 73, "velocity": 105, "channel": 0}, {"type": "note_on", "time": 57, "note": 75, "velocity": 102, "channel": 0}, {"type": "note_off", "time": 422, "note": 75, "velocity": 102, "channel": 0}, {"type": "note_on", "time": 0, "note": 74, "velocity": 100, "channel": 0}, {"type": "note_off", "time": 268, "note": 74, "velocity": 100, "channel": 0}, {"type": "note_on", "time": 38, "note": 72, "velocity": 103, "channel": 0}, {"type": "note_off", "time": 384, "note": 72, "velocity": 103, "channel": 0}, {"type": "note_on", "time": 172, "note": 70, "velocity": 105, "channel": 0}, {"type": "note_off", "time": 384, "note": 70, "velocity": 105, "channel": 0}, {"type": "note_on", "time": 345, "note": 69, "velocity": 111, "channel": 0}, {"type": "note_off", "time": 384, "note": 69, "velocity": 111, "channel": 0}, {"type": "note_on", "time": 268, "note": 70, "velocity": 108, "channel": 0}, {"type": "note_off", "time": 364, "note": 70, "velocity": 108, "channel": 0}, {"type": "note_on", "time": 192, "note": 72, "velocity": 99, "channel": 0}, {"type": "note_off", "time": 364, "note": 72, "velocity": 99, "channel": 0}, {"type": "note_on", "time": 211, "note": 74, "velocity": 101, "channel": 0}, {"type": "note_off", "time": 422, "note": 74, "velocity": 101, "channel": 0}, {"type": "note_on", "time": 326, "note": 70, "velocity": 109, "channel": 0}, {"type": "note_off", "time": 326, "note": 70, "velocity": 109, "channel": 0}, {"type": "note_on", "time": 96, "note": 69, "velocity": 110, "channel": 0}, {"type": "note_off", "time": 652, "note": 69, "velocity": 110, "channel": 0}, {"type": "note_on", "time": 96, "note": 67, "velocity": 109, "channel": 0}, {"type": "note_off", "time": 480, "note": 67, "velocity": 109, "channel": 0}, {"type": "note_on", "time": 172, "note": 66, "velocity": 110, "channel": 0}, {"type": "note_off", "time": 441, "note": 66, "velocity": 110, "channel": 0}, {"type": "note_on", "time": 230, "note": 69, "velocity": 110, "channel": 0}, {"type": "note_off", "time": 422, "note": 69, "velocity": 110, "channel": 0}, {"type": "note_on", "time": 95, "note": 68, "velocity": 103, "channel": 0}, {"type": "note_off", "time": 288, "note": 68, "velocity": 103, "channel": 0}, {"type": "note_on", "time": 268, "note": 63, "velocity": 117, "channel": 0}, {"type": "note_off", "time": 768, "note": 63, "velocity": 117, "channel": 0}, {"type": "note_on", "time": 153, "note": 62, "velocity": 119, "channel": 0}, {"type": "note_off", "time": 537, "note": 62, "velocity": 119, "channel": 0}, {"type": "note_on", "time": 1881, "note": 72, "velocity": 108, "channel": 0}, {"type": "note_off", "time": 518, "note": 72, "velocity": 108, "channel": 0}, {"type": "note_on", "time": 960, "note": 70, "velocity": 110, "channel": 0}, {"type": "note_off", "time": 537, "note": 70, "velocity": 110, "channel": 0}, {"type": "note_on", "time": 422, "note": 69, "velocity": 112, "channel": 0}, {"type": "note_off", "time": 691, "note": 69, "velocity": 112, "channel": 0}, {"type": "note_on", "time": 153, "note": 67, "velocity": 118, "channel": 0}, {"type": "note_off", "time": 691, "note": 67, "velocity": 118, "channel": 0}, {"type": "note_on", "time": 364, "note": 69, "velocity": 112, "channel": 0}, {"type": "note_off", "time": 672, "note": 69, "velocity": 112, "channel": 0}, {"type": "note_on", "time": 96, "note": 67, "velocity": 115, "channel": 0}, {"type": "note_off", "time": 576, "note": 67, "velocity": 115, "channel": 0}, {"type": "note_on", "time": 230, "note": 70, "velocity": 114, "channel": 0}, {"type": "note_off", "time": 710, "note": 70, "velocity": 114, "channel": 0}, {"type": "note_on", "time": 172, "note": 67, "velocity": 116, "channel": 0}, {"type": "note_off", "time": 710, "note": 67, "velocity": 116, "channel": 0}, {"type": "note_on", "time": 345, "note": 69, "velocity": 113, "channel": 0}, {"type": "note_off", "time": 595, "note": 69, "velocity": 113, "channel": 0}, {"type": "note_on", "time": 595, "note": 67, "velocity": 115, "channel": 0}, {"type": "note_off", "time": 691, "note": 67, "velocity": 115, "channel": 0}, {"type": "note_on", "time": 364, "note": 67, "velocity": 112, "channel": 0}, {"type": "note_off", "time": 806, "note": 67, "velocity": 112, "channel": 0}, {"type": "note_on", "time": 556, "note": 65, "velocity": 109, "channel": 0}, {"type": "note_off", "time": 1804, "note": 65, "velocity": 109, "channel": 0}, {"type": "note_on", "time": 3091, "note": 69, "velocity": 113, "channel": 0}, {"type": "note_off", "time": 499, "note": 69, "velocity": 113, "channel": 0}, {"type": "note_on", "time": 230, "note": 67, "velocity": 111, "channel": 0}, {"type": "note_off", "time": 576, "note": 67, "velocity": 111, "channel": 0}, {"type": "note_on", "time": 57, "note": 65, "velocity": 117, "channel": 0}, {"type": "note_off", "time": 499, "note": 65, "velocity": 117, "channel": 0}, {"type": "note_on", "time": 307, "note": 69, "velocity": 115, "channel": 0}, {"type": "note_off", "time": 806, "note": 69, "velocity": 115, "channel": 0}, {"type": "note_on", "time": 287, "note": 67, "velocity": 112, "channel": 0}, {"type": "note_off", "time": 576, "note": 67, "velocity": 112, "channel": 0}, {"type": "note_on", "time": 115, "note": 65, "velocity": 114, "channel": 0}, {"type": "note_off", "time": 537, "note": 65, "velocity": 114, "channel": 0}, {"type": "note_on", "time": 249, "note": 69, "velocity": 115, "channel": 0}, {"type": "note_off", "time": 844, "note": 69, "velocity": 115, "channel": 0}, {"type": "note_on", "time": 172, "note": 67, "velocity": 114, "channel": 0}, {"type": "note_off", "time": 748, "note": 67, "velocity": 114, "channel": 0}, {"type": "note_on", "time": 249, "note": 65, "velocity": 118, "channel": 0}, {"type": "note_off", "time": 652, "note": 65, "velocity": 118, "channel": 0}, {"type": "note_on", "time": 192, "note": 69, "velocity": 107, "channel": 0}, {"type": "note_off", "time": 806, "note": 69, "velocity": 107, "channel": 0}, {"type": "note_on", "time": 153, "note": 67, "velocity": 114, "channel": 0}, {"type": "note_off", "time": 422, "note": 67, "velocity": 114, "channel": 0}, {"type": "note_on", "time": 95, "note": 65, "velocity": 116, "channel": 0}, {"type": "note_off", "time": 403, "note": 65, "velocity": 116, "channel": 0}, {"type": "note_on", "time": 192, "note": 69, "velocity": 115, "channel": 0}, {"type": "note_off", "time": 518, "note": 69, "velocity": 115, "channel": 0}, {"type": "note_on", "time": 825, "note": 67, "velocity": 117, "channel": 0}, {"type": "note_off", "time": 480, "note": 67, "velocity": 117, "channel": 0}, {"type": "note_on", "time": 287, "note": 65, "velocity": 111, "channel": 0}, {"type": "note_off", "time": 576, "note": 65, "velocity": 111, "channel": 0}, {"type": "note_on", "time": 595, "note": 67, "velocity": 111, "channel": 0}, {"type": "note_off", "time": 537, "note": 67, "velocity": 111, "channel": 0}, {"type": "note_on", "time": 652, "note": 65, "velocity": 102, "channel": 0}, {"type": "note_off", "time": 576, "note": 65, "velocity": 102, "channel": 0}, {"type": "note_on", "time": 95, "note": 67, "velocity": 108, "channel": 0}, {"type": "note_off", "time": 806, "note": 67, "velocity": 108, "channel": 0}, {"type": "note_on", "time": 2361, "note": 69, "velocity": 113, "channel": 0}, {"type": "note_off", "time": 499, "note": 69, "velocity": 113, "channel": 0}, {"type": "note_on", "time": 19, "note": 67, "velocity": 108, "channel": 0}, {"type": "note_off", "time": 537, "note": 67, "velocity": 108, "channel": 0}, {"type": "note_on", "time": 134, "note": 65, "velocity": 114, "channel": 0}, {"type": "note_off", "time": 460, "note": 65, "velocity": 114, "channel": 0}, {"type": "note_on", "time": 345, "note": 69, "velocity": 113, "channel": 0}, {"type": "note_off", "time": 691, "note": 69, "velocity": 113, "channel": 0}, {"type": "note_on", "time": 307, "note": 67, "velocity": 118, "channel": 0}, {"type": "note_off", "time": 499, "note": 67, "velocity": 118, "channel": 0}, {"type": "note_on", "time": 326, "note": 65, "velocity": 115, "channel": 0}, {"type": "note_off", "time": 633, "note": 65, "velocity": 115, "channel": 0}, {"type": "note_on", "time": 787, "note": 67, "velocity": 111, "channel": 0}, {"type": "note_off", "time": 691, "note": 67, "velocity": 111, "channel": 0}, {"type": "note_on", "time": 460, "note": 65, "velocity": 118, "channel": 0}, {"type": "note_off", "time": 652, "note": 65, "velocity": 118, "channel": 0}, {"type": "note_on", "time": 691, "note": 62, "velocity": 126, "channel": 0}, {"type": "note_off", "time": 595, "note": 62, "velocity": 126, "channel": 0}, {"type": "note_on", "time": 652, "note": 65, "velocity": 117, "channel": 0}, {"type": "note_off", "time": 691, "note": 65, "velocity": 117, "channel": 0}, {"type": "note_on", "time": 499, "note": 67, "velocity": 116, "channel": 0}, {"type": "note_off", "time": 748, "note": 67, "velocity": 116, "channel": 0}, {"type": "note_on", "time": 575, "note": 67, "velocity": 111, "channel": 0}, {"type": "note_off", "time": 403, "note": 67, "velocity": 111, "channel": 0}, {"type": "note_on", "time": 249, "note": 67, "velocity": 112, "channel": 0}, {"type": "note_off", "time": 806, "note": 67, "velocity": 112, "channel": 0}, {"type": "note_on", "time": 2016, "note": 69, "velocity": 111, "channel": 0}, {"type": "note_off", "time": 614, "note": 69, "velocity": 111, "channel": 0}, {"type": "note_on", "time": 230, "note": 67, "velocity": 104, "channel": 0}, {"type": "note_off", "time": 384, "note": 67, "velocity": 104, "channel": 0}, {"type": "note_on", "time": 172, "note": 65, "velocity": 107, "channel": 0}, {"type": "note_off", "time": 422, "note": 65, "velocity": 107, "channel": 0}, {"type": "note_on", "time": 422, "note": 69, "velocity": 109, "channel": 0}, {"type": "note_off", "time": 652, "note": 69, "velocity": 109, "channel": 0}, {"type": "note_on", "time": 345, "note": 67, "velocity": 117, "channel": 0}, {"type": "note_off", "time": 422, "note": 67, "velocity": 117, "channel": 0}, {"type": "note_on", "time": 134, "note": 65, "velocity": 113, "channel": 0}, {"type": "note_off", "time": 633, "note": 65, "velocity": 113, "channel": 0}, {"type": "note_on", "time": 364, "note": 72, "velocity": 105, "channel": 0}, {"type": "note_off", "time": 480, "note": 72, "velocity": 105, "channel": 0}, {"type": "note_on", "time": 460, "note": 70, "velocity": 110, "channel": 0}, {"type": "note_off", "time": 672, "note": 70, "velocity": 110, "channel": 0}, {"type": "note_on", "time": 307, "note": 69, "velocity": 106, "channel": 0}, {"type": "note_off", "time": 441, "note": 69, "velocity": 106, "channel": 0}, {"type": "note_on", "time": 864, "note": 67, "velocity": 110, "channel": 0}, {"type": "note_off", "time": 576, "note": 67, "velocity": 110, "channel": 0}, {"type": "note_on", "time": 672, "note": 65, "velocity": 111, "channel": 0}, {"type": "note_off", "time": 672, "note": 65, "velocity": 111, "channel": 0}, {"type": "note_on", "time": 575, "note": 67, "velocity": 107, "channel": 0}, {"type": "note_off", "time": 614, "note": 67, "velocity": 107, "channel": 0}, {"type": "note_on", "time": 403, "note": 67, "velocity": 109, "channel": 0}, {"type": "note_off", "time": 672, "note": 67, "velocity": 109, "channel": 0}, {"type": "note_on", "time": 307, "note": 67, "velocity": 111, "channel": 0}, {"type": "note_off", "time": 1420, "note": 67, "velocity": 111, "channel": 0}, {"type": "note_on", "time": 2745, "note": 69, "velocity": 108, "channel": 0}, {"type": "note_off", "time": 364, "note": 69, "velocity": 108, "channel": 0}, {"type": "note_on", "time": 518, "note": 69, "velocity": 109, "channel": 0}, {"type": "note_off", "time": 1228, "note": 69, "velocity": 109, "channel": 0}, {"type": "note_on", "time": 3014, "note": 65, "velocity": 111, "channel": 0}, {"type": "note_off", "time": 422, "note": 65, "velocity": 111, "channel": 0}, {"type": "note_on", "time": 268, "note": 65, "velocity": 114, "channel": 0}, {"type": "note_off", "time": 1132, "note": 65, "velocity": 114, "channel": 0}, {"type": "note_on", "time": 576, "note": 69, "velocity": 113, "channel": 0}, {"type": "note_off", "time": 384, "note": 69, "velocity": 113, "channel": 0}, {"type": "note_on", "time": 403, "note": 69, "velocity": 109, "channel": 0}, {"type": "note_off", "time": 979, "note": 69, "velocity": 109, "channel": 0}, {"type": "note_on", "time": 288, "note": 67, "velocity": 107, "channel": 0}, {"type": "note_off", "time": 787, "note": 67, "velocity": 107, "channel": 0}, {"type": "note_on", "time": 2227, "note": 65, "velocity": 107, "channel": 0}, {"type": "note_off", "time": 441, "note": 65, "velocity": 107, "channel": 0}, {"type": "note_on", "time": 268, "note": 65, "velocity": 116, "channel": 0}, {"type": "note_off", "time": 844, "note": 65, "velocity": 116, "channel": 0}, {"type": "note_on", "time": 1017, "note": 62, "velocity": 117, "channel": 0}, {"type": "note_off", "time": 384, "note": 62, "velocity": 117, "channel": 0}, {"type": "note_on", "time": 249, "note": 62, "velocity": 121, "channel": 0}, {"type": "note_off", "time": 1228, "note": 62, "velocity": 121, "channel": 0}, {"type": "note_on", "time": 441, "note": 65, "velocity": 110, "channel": 0}, {"type": "note_off", "time": 422, "note": 65, "velocity": 110, "channel": 0}, {"type": "note_on", "time": 518, "note": 65, "velocity": 112, "channel": 0}, {"type": "note_off", "time": 998, "note": 65, "velocity": 112, "channel": 0}, {"type": "note_on", "time": 710, "note": 69, "velocity": 117, "channel": 0}, {"type": "note_off", "time": 422, "note": 69, "velocity": 117, "channel": 0}, {"type": "note_on", "time": 211, "note": 69, "velocity": 109, "channel": 0}, {"type": "note_off", "time": 902, "note": 69, "velocity": 109, "channel": 0}, {"type": "note_on", "time": 422, "note": 65, "velocity": 116, "channel": 0}, {"type": "note_off", "time": 460, "note": 65, "velocity": 116, "channel": 0}, {"type": "note_on", "time": 345, "note": 65, "velocity": 115, "channel": 0}, {"type": "note_off", "time": 710, "note": 65, "velocity": 115, "channel": 0}, {"type": "note_on", "time": 422, "note": 67, "velocity": 112, "channel": 0}, {"type": "note_off", "time": 576, "note": 67, "velocity": 112, "channel": 0}, {"type": "note_on", "time": 710, "note": 67, "velocity": 112, "channel": 0}, {"type": "note_off", "time": 345, "note": 67, "velocity": 112, "channel": 0}, {"type": "note_on", "time": 268, "note": 67, "velocity": 112, "channel": 0}, {"type": "note_off", "time": 1075, "note": 67, "velocity": 112, "channel": 0}, {"type": "note_on", "time": 2495, "note": 79, "velocity": 113, "channel": 0}, {"type": "note_off", "time": 537, "note": 79, "velocity": 113, "channel": 0}, {"type": "note_on", "time": 249, "note": 67, "velocity": 102, "channel": 0}, {"type": "note_off", "time": 403, "note": 67, "velocity": 102, "channel": 0}, {"type": "note_on", "time": 288, "note": 67, "velocity": 108, "channel": 0}, {"type": "note_off", "time": 460, "note": 67, "velocity": 108, "channel": 0}, {"type": "note_on", "time": 307, "note": 69, "velocity": 111, "channel": 0}, {"type": "note_off", "time": 480, "note": 69, "velocity": 111, "channel": 0}, {"type": "note_on", "time": 422, "note": 67, "velocity": 101, "channel": 0}, {"type": "note_off", "time": 499, "note": 67, "velocity": 101, "channel": 0}, {"type": "note_on", "time": 307, "note": 70, "velocity": 113, "channel": 0}, {"type": "note_off", "time": 441, "note": 70, "velocity": 113, "channel": 0}, {"type": "note_on", "time": 364, "note": 69, "velocity": 112, "channel": 0}, {"type": "note_off", "time": 499, "note": 69, "velocity": 112, "channel": 0}, {"type": "note_on", "time": 537, "note": 67, "velocity": 113, "channel": 0}, {"type": "note_off", "time": 595, "note": 67, "velocity": 113, "channel": 0}, {"type": "note_on", "time": 576, "note": 65, "velocity": 114, "channel": 0}, {"type": "note_off", "time": 595, "note": 65, "velocity": 114, "channel": 0}, {"type": "note_on", "time": 672, "note": 69, "velocity": 109, "channel": 0}, {"type": "note_off", "time": 537, "note": 69, "velocity": 109, "channel": 0}, {"type": "note_on", "time": 672, "note": 67, "velocity": 123, "channel": 0}, {"type": "note_off", "time": 499, "note": 67, "velocity": 123, "channel": 0}, {"type": "note_on", "time": 672, "note": 67, "velocity": 100, "channel": 0}, {"type": "note_off", "time": 518, "note": 67, "velocity": 100, "channel": 0}, {"type": "note_on", "time": 287, "note": 67, "velocity": 117, "channel": 0}, {"type": "note_off", "time": 1075, "note": 67, "velocity": 117, "channel": 0}, {"type": "note_on", "time": 2592, "note": 67, "velocity": 117, "channel": 0}, {"type": "note_off", "time": 460, "note": 67, "velocity": 117, "channel": 0}, {"type": "note_on", "time": 268, "note": 70, "velocity": 101, "channel": 0}, {"type": "note_off", "time": 480, "note": 70, "velocity": 101, "channel": 0}, {"type": "note_on", "time": 172, "note": 72, "velocity": 105, "channel": 0}, {"type": "note_off", "time": 441, "note": 72, "velocity": 105, "channel": 0}, {"type": "note_on", "time": 268, "note": 74, "velocity": 101, "channel": 0}, {"type": "note_off", "time": 460, "note": 74, "velocity": 101, "channel": 0}, {"type": "note_on", "time": 76, "note": 67, "velocity": 111, "channel": 0}, {"type": "note_off", "time": 364, "note": 67, "velocity": 111, "channel": 0}, {"type": "note_on", "time": 268, "note": 70, "velocity": 107, "channel": 0}, {"type": "note_off", "time": 441, "note": 70, "velocity": 107, "channel": 0}, {"type": "note_on", "time": 172, "note": 72, "velocity": 109, "channel": 0}, {"type": "note_off", "time": 480, "note": 72, "velocity": 109, "channel": 0}, {"type": "note_on", "time": 230, "note": 74, "velocity": 105, "channel": 0}, {"type": "note_off", "time": 422, "note": 74, "velocity": 105, "channel": 0}, {"type": "note_on", "time": 153, "note": 72, "velocity": 104, "channel": 0}, {"type": "note_off", "time": 556, "note": 72, "velocity": 104, "channel": 0}, {"type": "note_on", "time": 76, "note": 70, "velocity": 106, "channel": 0}, {"type": "note_off", "time": 403, "note": 70, "velocity": 106, "channel": 0}, {"type": "note_on", "time": 230, "note": 72, "velocity": 112, "channel": 0}, {"type": "note_off", "time": 460, "note": 72, "velocity": 112, "channel": 0}, {"type": "note_on", "time": 153, "note": 70, "velocity": 107, "channel": 0}, {"type": "note_off", "time": 460, "note": 70, "velocity": 107, "channel": 0}, {"type": "note_on", "time": 96, "note": 69, "velocity": 101, "channel": 0}, {"type": "note_off", "time": 518, "note": 69, "velocity": 101, "channel": 0}, {"type": "note_on", "time": 249, "note": 72, "velocity": 112, "channel": 0}, {"type": "note_off", "time": 403, "note": 72, "velocity": 112, "channel": 0}, {"type": "note_on", "time": 192, "note": 67, "velocity": 90, "channel": 0}, {"type": "note_off", "time": 192, "note": 67, "velocity": 90, "channel": 0}, {"type": "note_on", "time": 57, "note": 69, "velocity": 114, "channel": 0}, {"type": "note_off", "time": 403, "note": 69, "velocity": 114, "channel": 0}, {"type": "note_on", "time": 57, "note": 67, "velocity": 110, "channel": 0}, {"type": "note_off", "time": 480, "note": 67, "velocity": 110, "channel": 0}, {"type": "note_on", "time": 192, "note": 65, "velocity": 109, "channel": 0}, {"type": "note_off", "time": 518, "note": 65, "velocity": 109, "channel": 0}, {"type": "note_on", "time": 134, "note": 69, "velocity": 108, "channel": 0}, {"type": "note_off", "time": 480, "note": 69, "velocity": 108, "channel": 0}, {"type": "note_on", "time": 153, "note": 67, "velocity": 109, "channel": 0}, {"type": "note_off", "time": 460, "note": 67, "velocity": 109, "channel": 0}, {"type": "note_on", "time": 249, "note": 65, "velocity": 110, "channel": 0}, {"type": "note_off", "time": 384, "note": 65, "velocity": 110, "channel": 0}, {"type": "note_on", "time": 192, "note": 62, "velocity": 115, "channel": 0}, {"type": "note_off", "time": 364, "note": 62, "velocity": 115, "channel": 0}, {"type": "note_on", "time": 115, "note": 67, "velocity": 116, "channel": 0}, {"type": "note_off", "time": 384, "note": 67, "velocity": 116, "channel": 0}, {"type": "note_on", "time": 192, "note": 65, "velocity": 111, "channel": 0}, {"type": "note_off", "time": 422, "note": 65, "velocity": 111, "channel": 0}, {"type": "note_on", "time": 249, "note": 60, "velocity": 112, "channel": 0}, {"type": "note_off", "time": 364, "note": 60, "velocity": 112, "channel": 0}, {"type": "note_on", "time": 134, "note": 62, "velocity": 118, "channel": 0}, {"type": "note_off", "time": 403, "note": 62, "velocity": 118, "channel": 0}, {"type": "note_on", "time": 230, "note": 65, "velocity": 111, "channel": 0}, {"type": "note_off", "time": 422, "note": 65, "velocity": 111, "channel": 0}, {"type": "note_on", "time": 268, "note": 67, "velocity": 117, "channel": 0}, {"type": "note_off", "time": 441, "note": 67, "velocity": 117, "channel": 0}, {"type": "note_on", "time": 403, "note": 67, "velocity": 114, "channel": 0}, {"type": "note_off", "time": 576, "note": 67, "velocity": 114, "channel": 0}, {"type": "note_on", "time": 441, "note": 65, "velocity": 108, "channel": 0}, {"type": "note_off", "time": 441, "note": 65, "velocity": 108, "channel": 0}, {"type": "note_on", "time": 460, "note": 67, "velocity": 112, "channel": 0}, {"type": "note_off", "time": 710, "note": 67, "velocity": 112, "channel": 0}, {"type": "note_on", "time": 1478, "note": 67, "velocity": 101, "channel": 0}, {"type": "note_off", "time": 211, "note": 67, "velocity": 101, "channel": 0}, {"type": "note_on", "time": 230, "note": 69, "velocity": 115, "channel": 0}, {"type": "note_off", "time": 729, "note": 69, "velocity": 115, "channel": 0}, {"type": "note_on", "time": 883, "note": 67, "velocity": 116, "channel": 0}, {"type": "note_off", "time": 633, "note": 67, "velocity": 116, "channel": 0}, {"type": "note_on", "time": 211, "note": 67, "velocity": 116, "channel": 0}, {"type": "note_off", "time": 595, "note": 67, "velocity": 116, "channel": 0}, {"type": "note_on", "time": 134, "note": 65, "velocity": 116, "channel": 0}, {"type": "note_off", "time": 556, "note": 65, "velocity": 116, "channel": 0}, {"type": "note_on", "time": 480, "note": 65, "velocity": 117, "channel": 0}, {"type": "note_off", "time": 364, "note": 65, "velocity": 117, "channel": 0}, {"type": "note_on", "time": 326, "note": 65, "velocity": 120, "channel": 0}, {"type": "note_off", "time": 768, "note": 65, "velocity": 120, "channel": 0}, {"type": "note_on", "time": 1632, "note": 62, "velocity": 121, "channel": 0}, {"type": "note_off", "time": 537, "note": 62, "velocity": 121, "channel": 0}, {"type": "note_on", "time": 96, "note": 65, "velocity": 108, "channel": 0}, {"type": "note_off", "time": 441, "note": 65, "velocity": 108, "channel": 0}, {"type": "note_on", "time": 172, "note": 67, "velocity": 114, "channel": 0}, {"type": "note_off", "time": 556, "note": 67, "velocity": 114, "channel": 0}, {"type": "note_on", "time": 19, "note": 65, "velocity": 110, "channel": 0}, {"type": "note_off", "time": 518, "note": 65, "velocity": 110, "channel": 0}, {"type": "note_on", "time": 134, "note": 65, "velocity": 119, "channel": 0}, {"type": "note_off", "time": 633, "note": 65, "velocity": 119, "channel": 0}, {"type": "note_on", "time": 99, "note": 62, "velocity": 125, "channel": 0}, {"type": "note_off", "time": 614, "note": 62, "velocity": 125, "channel": 0}, {"type": "note_on", "time": 533, "note": 62, "velocity": 124, "channel": 0}, {"type": "note_off", "time": 480, "note": 62, "velocity": 124, "channel": 0}, {"type": "note_on", "time": 230, "note": 62, "velocity": 127, "channel": 0}, {"type": "note_off", "time": 748, "note": 62, "velocity": 127, "channel": 0}, {"type": "note_on", "time": 1555, "note": 60, "velocity": 119, "channel": 0}, {"type": "note_off", "time": 748, "note": 60, "velocity": 119, "channel": 0}, {"type": "note_on", "time": 76, "note": 58, "velocity": 114, "channel": 0}, {"type": "note_off", "time": 460, "note": 58, "velocity": 114, "channel": 0}, {"type": "note_on", "time": 115, "note": 60, "velocity": 119, "channel": 0}, {"type": "note_off", "time": 652, "note": 60, "velocity": 119, "channel": 0}, {"type": "note_on", "time": 57, "note": 58, "velocity": 115, "channel": 0}, {"type": "note_off", "time": 307, "note": 58, "velocity": 115, "channel": 0}, {"type": "note_on", "time": 0, "note": 60, "velocity": 119, "channel": 0}, {"type": "note_off", "time": 5721, "note": 60, "velocity": 119, "channel": 0}, {"type": "note_on", "time": 1909, "note": 61, "velocity": 120, "channel": 0}, {"type": "note_off", "time": 450, "note": 61, "velocity": 120, "channel": 0}, {"type": "note_on", "time": 54, "note": 60, "velocity": 118, "channel": 0}, {"type": "note_off", "time": 368, "note": 60, "velocity": 118, "channel": 0}, {"type": "note_on", "time": 27, "note": 58, "velocity": 112, "channel": 0}, {"type": "note_off", "time": 286, "note": 58, "velocity": 112, "channel": 0}, {"type": "note_on", "time": 27, "note": 61, "velocity": 121, "channel": 0}, {"type": "note_off", "time": 354, "note": 61, "velocity": 121, "channel": 0}, {"type": "note_on", "time": 122, "note": 60, "velocity": 115, "channel": 0}, {"type": "note_off", "time": 395, "note": 60, "velocity": 115, "channel": 0}, {"type": "note_on", "time": 27, "note": 58, "velocity": 112, "channel": 0}, {"type": "note_off", "time": 341, "note": 58, "velocity": 112, "channel": 0}, {"type": "note_on", "time": 68, "note": 61, "velocity": 121, "channel": 0}, {"type": "note_off", "time": 382, "note": 61, "velocity": 121, "channel": 0}, {"type": "note_on", "time": 40, "note": 60, "velocity": 115, "channel": 0}, {"type": "note_off", "time": 368, "note": 60, "velocity": 115, "channel": 0}, {"type": "note_on", "time": 13, "note": 58, "velocity": 109, "channel": 0}, {"type": "note_off", "time": 395, "note": 58, "velocity": 109, "channel": 0}, {"type": "note_on", "time": 0, "note": 61, "velocity": 119, "channel": 0}, {"type": "note_off", "time": 314, "note": 61, "velocity": 119, "channel": 0}, {"type": "note_on", "time": 95, "note": 60, "velocity": 116, "channel": 0}, {"type": "note_off", "time": 341, "note": 60, "velocity": 116, "channel": 0}, {"type": "note_on", "time": 27, "note": 58, "velocity": 109, "channel": 0}, {"type": "note_off", "time": 409, "note": 58, "velocity": 109, "channel": 0}, {"type": "note_on", "time": 68, "note": 61, "velocity": 118, "channel": 0}, {"type": "note_off", "time": 409, "note": 61, "velocity": 118, "channel": 0}, {"type": "note_on", "time": 27, "note": 60, "velocity": 117, "channel": 0}, {"type": "note_off", "time": 395, "note": 60, "velocity": 117, "channel": 0}, {"type": "note_on", "time": 40, "note": 58, "velocity": 110, "channel": 0}, {"type": "note_off", "time": 286, "note": 58, "velocity": 110, "channel": 0}, {"type": "note_on", "time": 54, "note": 61, "velocity": 117, "channel": 0}, {"type": "note_off", "time": 395, "note": 61, "velocity": 117, "channel": 0}, {"type": "note_on", "time": 27, "note": 60, "velocity": 118, "channel": 0}, {"type": "note_off", "time": 423, "note": 60, "velocity": 118, "channel": 0}, {"type": "note_on", "time": 13, "note": 58, "velocity": 107, "channel": 0}, {"type": "note_off", "time": 341, "note": 58, "velocity": 107, "channel": 0}, {"type": "note_on", "time": 7550, "note": 61, "velocity": 120, "channel": 0}, {"type": "note_off", "time": 354, "note": 61, "velocity": 120, "channel": 0}, {"type": "note_on", "time": 27, "note": 62, "velocity": 122, "channel": 0}, {"type": "note_off", "time": 395, "note": 62, "velocity": 122, "channel": 0}, {"type": "note_on", "time": 27, "note": 65, "velocity": 117, "channel": 0}, {"type": "note_off", "time": 464, "note": 65, "velocity": 117, "channel": 0}, {"type": "note_on", "time": 27, "note": 61, "velocity": 122, "channel": 0}, {"type": "note_off", "time": 464, "note": 61, "velocity": 122, "channel": 0}, {"type": "note_on", "time": 40, "note": 62, "velocity": 123, "channel": 0}, {"type": "note_off", "time": 354, "note": 62, "velocity": 123, "channel": 0}, {"type": "note_on", "time": 40, "note": 65, "velocity": 118, "channel": 0}, {"type": "note_off", "time": 327, "note": 65, "velocity": 118, "channel": 0}, {"type": "note_on", "time": 95, "note": 61, "velocity": 119, "channel": 0}, {"type": "note_off", "time": 409, "note": 61, "velocity": 119, "channel": 0}, {"type": "note_on", "time": 27, "note": 62, "velocity": 122, "channel": 0}, {"type": "note_off", "time": 327, "note": 62, "velocity": 122, "channel": 0}, {"type": "note_on", "time": 27, "note": 65, "velocity": 109, "channel": 0}, {"type": "note_off", "time": 341, "note": 65, "velocity": 109, "channel": 0}, {"type": "note_on", "time": 8833, "note": 61, "velocity": 113, "channel": 0}, {"type": "note_off", "time": 368, "note": 61, "velocity": 113, "channel": 0}, {"type": "note_on", "time": 13, "note": 60, "velocity": 115, "channel": 0}, {"type": "note_off", "time": 286, "note": 60, "velocity": 115, "channel": 0}, {"type": "note_on", "time": 122, "note": 58, "velocity": 116, "channel": 0}, {"type": "note_off", "time": 354, "note": 58, "velocity": 116, "channel": 0}, {"type": "note_on", "time": 40, "note": 60, "velocity": 117, "channel": 0}, {"type": "note_off", "time": 382, "note": 60, "velocity": 117, "channel": 0}, {"type": "note_on", "time": 54, "note": 61, "velocity": 116, "channel": 0}, {"type": "note_off", "time": 286, "note": 61, "velocity": 116, "channel": 0}, {"type": "note_on", "time": 68, "note": 62, "velocity": 120, "channel": 0}, {"type": "note_off", "time": 354, "note": 62, "velocity": 120, "channel": 0}, {"type": "note_on", "time": 81, "note": 65, "velocity": 116, "channel": 0}, {"type": "note_off", "time": 286, "note": 65, "velocity": 116, "channel": 0}, {"type": "note_on", "time": 68, "note": 66, "velocity": 118, "channel": 0}, {"type": "note_off", "time": 259, "note": 66, "velocity": 118, "channel": 0}, {"type": "note_on", "time": 95, "note": 67, "velocity": 118, "channel": 0}, {"type": "note_off", "time": 450, "note": 67, "velocity": 118, "channel": 0}, {"type": "note_on", "time": 109, "note": 70, "velocity": 107, "channel": 0}, {"type": "note_off", "time": 286, "note": 70, "velocity": 107, "channel": 0}, {"type": "note_on", "time": 54, "note": 67, "velocity": 119, "channel": 0}, {"type": "note_off", "time": 327, "note": 67, "velocity": 119, "channel": 0}, {"type": "note_on", "time": 27, "note": 65, "velocity": 102, "channel": 0}, {"type": "note_off", "time": 300, "note": 65, "velocity": 102, "channel": 0}, {"type": "note_on", "time": 109, "note": 69, "velocity": 113, "channel": 0}, {"type": "note_off", "time": 354, "note": 69, "velocity": 113, "channel": 0}, {"type": "note_on", "time": 204, "note": 67, "velocity": 115, "channel": 0}, {"type": "note_off", "time": 464, "note": 67, "velocity": 115, "channel": 0}, {"type": "note_on", "time": 27, "note": 66, "velocity": 116, "channel": 0}, {"type": "note_off", "time": 300, "note": 66, "velocity": 116, "channel": 0}, {"type": "note_on", "time": 68, "note": 65, "velocity": 113, "channel": 0}, {"type": "note_off", "time": 327, "note": 65, "velocity": 113, "channel": 0}, {"type": "note_on", "time": 13, "note": 63, "velocity": 124, "channel": 0}, {"type": "note_off", "time": 409, "note": 63, "velocity": 124, "channel": 0}, {"type": "note_on", "time": 68, "note": 64, "velocity": 123, "channel": 0}, {"type": "note_off", "time": 204, "note": 64, "velocity": 123, "channel": 0}, {"type": "note_on", "time": 40, "note": 67, "velocity": 118, "channel": 0}, {"type": "note_off", "time": 395, "note": 67, "velocity": 118, "channel": 0}, {"type": "note_on", "time": 40, "note": 63, "velocity": 121, "channel": 0}, {"type": "note_off", "time": 327, "note": 63, "velocity": 121, "channel": 0}, {"type": "note_on", "time": 27, "note": 61, "velocity": 115, "channel": 0}, {"type": "note_off", "time": 300, "note": 61, "velocity": 115, "channel": 0}, {"type": "note_on", "time": 40, "note": 62, "velocity": 122, "channel": 0}, {"type": "note_off", "time": 382, "note": 62, "velocity": 122, "channel": 0}, {"type": "note_on", "time": 54, "note": 61, "velocity": 116, "channel": 0}, {"type": "note_off", "time": 314, "note": 61, "velocity": 116, "channel": 0}, {"type": "note_on", "time": 13, "note": 60, "velocity": 114, "channel": 0}, {"type": "note_off", "time": 177, "note": 60, "velocity": 114, "channel": 0}, {"type": "note_on", "time": 136, "note": 59, "velocity": 112, "channel": 0}, {"type": "note_off", "time": 300, "note": 59, "velocity": 112, "channel": 0}, {"type": "note_on", "time": 27, "note": 58, "velocity": 112, "channel": 0}, {"type": "note_off", "time": 314, "note": 58, "velocity": 112, "channel": 0}, {"type": "note_on", "time": 68, "note": 62, "velocity": 119, "channel": 0}, {"type": "note_off", "time": 368, "note": 62, "velocity": 119, "channel": 0}, {"type": "note_on", "time": 0, "note": 64, "velocity": 119, "channel": 0}, {"type": "note_off", "time": 150, "note": 64, "velocity": 119, "channel": 0}, {"type": "note_on", "time": 27, "note": 69, "velocity": 116, "channel": 0}, {"type": "note_off", "time": 382, "note": 69, "velocity": 116, "channel": 0}, {"type": "note_on", "time": 95, "note": 66, "velocity": 117, "channel": 0}, {"type": "note_off", "time": 382, "note": 66, "velocity": 117, "channel": 0}, {"type": "note_on", "time": 68, "note": 67, "velocity": 117, "channel": 0}, {"type": "note_off", "time": 204, "note": 67, "velocity": 117, "channel": 0}, {"type": "note_on", "time": 81, "note": 69, "velocity": 113, "channel": 0}, {"type": "note_off", "time": 218, "note": 69, "velocity": 113, "channel": 0}, {"type": "note_on", "time": 27, "note": 70, "velocity": 113, "channel": 0}, {"type": "note_off", "time": 191, "note": 70, "velocity": 113, "channel": 0}, {"type": "note_on", "time": 68, "note": 72, "velocity": 112, "channel": 0}, {"type": "note_off", "time": 259, "note": 72, "velocity": 112, "channel": 0}, {"type": "note_on", "time": 54, "note": 74, "velocity": 108, "channel": 0}, {"type": "note_off", "time": 2034, "note": 74, "velocity": 108, "channel": 0}, {"type": "note_on", "time": 2280, "note": 81, "velocity": 83, "channel": 0}, {"type": "note_off", "time": 1297, "note": 81, "velocity": 83, "channel": 0}, {"type": "note_on", "time": 136, "note": 79, "velocity": 122, "channel": 0}, {"type": "note_on", "time": 819, "note": 82, "velocity": 99, "channel": 0}, {"type": "note_off", "time": 0, "note": 79, "velocity": 122, "channel": 0}, {"type": "note_off", "time": 737, "note": 82, "velocity": 99, "channel": 0}, {"type": "note_on", "time": 7809, "note": 84, "velocity": 112, "channel": 0}, {"type": "note_off", "time": 573, "note": 84, "velocity": 112, "channel": 0}, {"type": "note_on", "time": 791, "note": 82, "velocity": 116, "channel": 0}, {"type": "note_off", "time": 573, "note": 82, "velocity": 116, "channel": 0}, {"type": "note_on", "time": 81, "note": 81, "velocity": 111, "channel": 0}, {"type": "note_off", "time": 464, "note": 81, "velocity": 111, "channel": 0}, {"type": "note_on", "time": 27, "note": 79, "velocity": 107, "channel": 0}, {"type": "note_off", "time": 491, "note": 79, "velocity": 107, "channel": 0}, {"type": "note_on", "time": 273, "note": 81, "velocity": 107, "channel": 0}, {"type": "note_off", "time": 354, "note": 81, "velocity": 107, "channel": 0}, {"type": "note_on", "time": 109, "note": 82, "velocity": 100, "channel": 0}, {"type": "note_off", "time": 436, "note": 82, "velocity": 100, "channel": 0}, {"type": "note_on", "time": 218, "note": 82, "velocity": 101, "channel": 0}, {"type": "note_off", "time": 600, "note": 82, "velocity": 101, "channel": 0}, {"type": "note_on", "time": 0, "note": 74, "velocity": 101, "channel": 0}, {"type": "note_off", "time": 436, "note": 74, "velocity": 101, "channel": 0}, {"type": "note_on", "time": 300, "note": 70, "velocity": 108, "channel": 0}, {"type": "note_off", "time": 436, "note": 70, "velocity": 108, "channel": 0}, {"type": "note_on", "time": 27, "note": 67, "velocity": 95, "channel": 0}, {"type": "note_off", "time": 327, "note": 67, "velocity": 95, "channel": 0}, {"type": "note_on", "time": 464, "note": 70, "velocity": 108, "channel": 0}, {"type": "note_off", "time": 273, "note": 70, "velocity": 108, "channel": 0}, {"type": "note_on", "time": 436, "note": 74, "velocity": 103, "channel": 0}, {"type": "note_off", "time": 273, "note": 74, "velocity": 103, "channel": 0}, {"type": "note_on", "time": 81, "note": 76, "velocity": 107, "channel": 0}, {"type": "note_off", "time": 191, "note": 76, "velocity": 107, "channel": 0}, {"type": "note_on", "time": 136, "note": 77, "velocity": 110, "channel": 0}, {"type": "note_off", "time": 2129, "note": 77, "velocity": 110, "channel": 0}, {"type": "note_on", "time": 0, "note": 73, "velocity": 111, "channel": 0}, {"type": "note_off", "time": 354, "note": 73, "velocity": 111, "channel": 0}, {"type": "note_on", "time": 218, "note": 74, "velocity": 104, "channel": 0}, {"type": "note_off", "time": 1419, "note": 74, "velocity": 104, "channel": 0}, {"type": "note_on", "time": 54, "note": 72, "velocity": 107, "channel": 0}, {"type": "note_off", "time": 518, "note": 72, "velocity": 107, "channel": 0}, {"type": "note_on", "time": 81, "note": 70, "velocity": 115, "channel": 0}, {"type": "note_off", "time": 273, "note": 70, "velocity": 115, "channel": 0}, {"type": "note_on", "time": 327, "note": 73, "velocity": 105, "channel": 0}, {"type": "note_off", "time": 300, "note": 73, "velocity": 105, "channel": 0}, {"type": "note_on", "time": 27, "note": 72, "velocity": 106, "channel": 0}, {"type": "note_off", "time": 354, "note": 72, "velocity": 106, "channel": 0}, {"type": "note_on", "time": 0, "note": 70, "velocity": 115, "channel": 0}, {"type": "note_off", "time": 300, "note": 70, "velocity": 115, "channel": 0}, {"type": "note_on", "time": 109, "note": 67, "velocity": 117, "channel": 0}, {"type": "note_off", "time": 327, "note": 67, "velocity": 117, "channel": 0}, {"type": "note_on", "time": 95, "note": 70, "velocity": 104, "channel": 0}, {"type": "note_off", "time": 300, "note": 70, "velocity": 104, "channel": 0}, {"type": "note_on", "time": 13, "note": 65, "velocity": 110, "channel": 0}, {"type": "note_off", "time": 300, "note": 65, "velocity": 110, "channel": 0}, {"type": "note_on", "time": 27, "note": 66, "velocity": 118, "channel": 0}, {"type": "note_off", "time": 409, "note": 66, "velocity": 118, "channel": 0}, {"type": "note_on", "time": 109, "note": 69, "velocity": 116, "channel": 0}, {"type": "note_off", "time": 300, "note": 69, "velocity": 116, "channel": 0}, {"type": "note_on", "time": 0, "note": 68, "velocity": 117, "channel": 0}, {"type": "note_off", "time": 163, "note": 68, "velocity": 117, "channel": 0}, {"type": "note_on", "time": 54, "note": 66, "velocity": 108, "channel": 0}, {"type": "note_off", "time": 273, "note": 66, "velocity": 108, "channel": 0}, {"type": "note_on", "time": 218, "note": 62, "velocity": 123, "channel": 0}, {"type": "note_off", "time": 354, "note": 62, "velocity": 123, "channel": 0}, {"type": "note_on", "time": 27, "note": 58, "velocity": 112, "channel": 0}, {"type": "note_off", "time": 218, "note": 58, "velocity": 112, "channel": 0}, {"type": "note_on", "time": 109, "note": 54, "velocity": 108, "channel": 0}, {"type": "note_off", "time": 218, "note": 54, "velocity": 108, "channel": 0}, {"type": "note_on", "time": 0, "note": 60, "velocity": 118, "channel": 0}, {"type": "note_off", "time": 327, "note": 60, "velocity": 118, "channel": 0}, {"type": "note_on", "time": 0, "note": 57, "velocity": 114, "channel": 0}, {"type": "note_off", "time": 191, "note": 57, "velocity": 114, "channel": 0}, {"type": "note_on", "time": 54, "note": 58, "velocity": 112, "channel": 0}, {"type": "note_off", "time": 300, "note": 58, "velocity": 112, "channel": 0}, {"type": "note_on", "time": 81, "note": 60, "velocity": 114, "channel": 0}, {"type": "note_off", "time": 191, "note": 60, "velocity": 114, "channel": 0}, {"type": "note_on", "time": 81, "note": 61, "velocity": 119, "channel": 0}, {"type": "note_off", "time": 218, "note": 61, "velocity": 119, "channel": 0}, {"type": "note_on", "time": 0, "note": 62, "velocity": 119, "channel": 0}, {"type": "note_off", "time": 245, "note": 62, "velocity": 119, "channel": 0}, {"type": "note_on", "time": 163, "note": 65, "velocity": 120, "channel": 0}, {"type": "note_off", "time": 273, "note": 65, "velocity": 120, "channel": 0}, {"type": "note_on", "time": 0, "note": 62, "velocity": 119, "channel": 0}, {"type": "note_off", "time": 300, "note": 62, "velocity": 119, "channel": 0}, {"type": "note_on", "time": 245, "note": 65, "velocity": 111, "channel": 0}, {"type": "note_off", "time": 191, "note": 65, "velocity": 111, "channel": 0}, {"type": "note_on", "time": 0, "note": 70, "velocity": 111, "channel": 0}, {"type": "note_off", "time": 245, "note": 70, "velocity": 111, "channel": 0}, {"type": "note_on", "time": 54, "note": 74, "velocity": 102, "channel": 0}, {"type": "note_off", "time": 218, "note": 74, "velocity": 102, "channel": 0}, {"type": "note_on", "time": 34, "note": 73, "velocity": 103, "channel": 0}, {"type": "note_off", "time": 293, "note": 73, "velocity": 103, "channel": 0}, {"type": "note_on", "time": 47, "note": 70, "velocity": 111, "channel": 0}, {"type": "note_off", "time": 191, "note": 70, "velocity": 111, "channel": 0}, {"type": "note_on", "time": 54, "note": 67, "velocity": 112, "channel": 0}, {"type": "note_off", "time": 245, "note": 67, "velocity": 112, "channel": 0}, {"type": "note_on", "time": 20, "note": 68, "velocity": 116, "channel": 0}, {"type": "note_off", "time": 197, "note": 68, "velocity": 116, "channel": 0}, {"type": "note_on", "time": 6, "note": 69, "velocity": 112, "channel": 0}, {"type": "note_off", "time": 327, "note": 69, "velocity": 112, "channel": 0}, {"type": "note_on", "time": 218, "note": 60, "velocity": 108, "channel": 0}, {"type": "note_off", "time": 136, "note": 60, "velocity": 108, "channel": 0}, {"type": "note_on", "time": 0, "note": 63, "velocity": 113, "channel": 0}, {"type": "note_off", "time": 300, "note": 63, "velocity": 113, "channel": 0}, {"type": "note_on", "time": 6, "note": 67, "velocity": 114, "channel": 0}, {"type": "note_off", "time": 232, "note": 67, "velocity": 114, "channel": 0}, {"type": "note_on", "time": 54, "note": 66, "velocity": 116, "channel": 0}, {"type": "note_off", "time": 232, "note": 66, "velocity": 116, "channel": 0}, {"type": "note_on", "time": 102, "note": 62, "velocity": 119, "channel": 0}, {"type": "note_off", "time": 245, "note": 62, "velocity": 119, "channel": 0}, {"type": "note_on", "time": 0, "note": 60, "velocity": 108, "channel": 0}, {"type": "note_off", "time": 273, "note": 60, "velocity": 108, "channel": 0}, {"type": "note_on", "time": 218, "note": 58, "velocity": 112, "channel": 0}, {"type": "note_off", "time": 218, "note": 58, "velocity": 112, "channel": 0}, {"type": "note_on", "time": 0, "note": 62, "velocity": 115, "channel": 0}, {"type": "note_off", "time": 245, "note": 62, "velocity": 115, "channel": 0}, {"type": "note_on", "time": 13, "note": 65, "velocity": 117, "channel": 0}, {"type": "note_off", "time": 191, "note": 65, "velocity": 117, "channel": 0}, {"type": "note_on", "time": 40, "note": 67, "velocity": 115, "channel": 0}, {"type": "note_off", "time": 382, "note": 67, "velocity": 115, "channel": 0}, {"type": "note_on", "time": 191, "note": 74, "velocity": 98, "channel": 0}, {"type": "note_off", "time": 163, "note": 74, "velocity": 98, "channel": 0}, {"type": "note_on", "time": 191, "note": 76, "velocity": 105, "channel": 0}, {"type": "note_off", "time": 354, "note": 76, "velocity": 105, "channel": 0}, {"type": "note_on", "time": 0, "note": 79, "velocity": 119, "channel": 0}, {"type": "note_off", "time": 1365, "note": 79, "velocity": 119, "channel": 0}, {"type": "note_on", "time": 2785, "note": 50, "velocity": 118, "channel": 0}, {"type": "note_off", "time": 300, "note": 50, "velocity": 118, "channel": 0}, {"type": "note_on", "time": 109, "note": 55, "velocity": 109, "channel": 0}, {"type": "note_off", "time": 109, "note": 55, "velocity": 109, "channel": 0}, {"type": "note_on", "time": 163, "note": 57, "velocity": 115, "channel": 0}, {"type": "note_off", "time": 245, "note": 57, "velocity": 115, "channel": 0}, {"type": "note_on", "time": 0, "note": 60, "velocity": 113, "channel": 0}, {"type": "note_off", "time": 273, "note": 60, "velocity": 113, "channel": 0}, {"type": "note_on", "time": 129, "note": 64, "velocity": 114, "channel": 0}, {"type": "note_off", "time": 163, "note": 64, "velocity": 114, "channel": 0}, {"type": "note_on", "time": 81, "note": 65, "velocity": 108, "channel": 0}, {"type": "note_off", "time": 136, "note": 65, "velocity": 108, "channel": 0}, {"type": "note_on", "time": 143, "note": 72, "velocity": 104, "channel": 0}, {"type": "note_off", "time": 245, "note": 72, "velocity": 104, "channel": 0}, {"type": "note_on", "time": 27, "note": 76, "velocity": 111, "channel": 0}, {"type": "note_off", "time": 245, "note": 76, "velocity": 111, "channel": 0}, {"type": "note_on", "time": 136, "note": 77, "velocity": 112, "channel": 0}, {"type": "note_off", "time": 191, "note": 77, "velocity": 112, "channel": 0}, {"type": "note_on", "time": 0, "note": 79, "velocity": 112, "channel": 0}, {"type": "note_off", "time": 409, "note": 79, "velocity": 112, "channel": 0}, {"type": "note_on", "time": 136, "note": 79, "velocity": 85, "channel": 0}, {"type": "note_off", "time": 327, "note": 79, "velocity": 85, "channel": 0}, {"type": "note_on", "time": 163, "note": 80, "velocity": 113, "channel": 0}, {"type": "note_off", "time": 327, "note": 80, "velocity": 113, "channel": 0}, {"type": "note_on", "time": 81, "note": 79, "velocity": 121, "channel": 0}, {"type": "note_off", "time": 1092, "note": 79, "velocity": 121, "channel": 0}, {"type": "note_on", "time": 1693, "note": 49, "velocity": 114, "channel": 0}, {"type": "note_off", "time": 382, "note": 49, "velocity": 114, "channel": 0}, {"type": "note_on", "time": 109, "note": 51, "velocity": 117, "channel": 0}, {"type": "note_off", "time": 191, "note": 51, "velocity": 117, "channel": 0}, {"type": "note_on", "time": 54, "note": 52, "velocity": 116, "channel": 0}, {"type": "note_off", "time": 300, "note": 52, "velocity": 116, "channel": 0}, {"type": "note_on", "time": 218, "note": 51, "velocity": 120, "channel": 0}, {"type": "note_off", "time": 218, "note": 51, "velocity": 120, "channel": 0}, {"type": "note_on", "time": 109, "note": 54, "velocity": 120, "channel": 0}, {"type": "note_off", "time": 245, "note": 54, "velocity": 120, "channel": 0}, {"type": "note_on", "time": 27, "note": 55, "velocity": 117, "channel": 0}, {"type": "note_off", "time": 191, "note": 55, "velocity": 117, "channel": 0}, {"type": "note_on", "time": 109, "note": 53, "velocity": 115, "channel": 0}, {"type": "note_off", "time": 191, "note": 53, "velocity": 115, "channel": 0}, {"type": "note_on", "time": 136, "note": 55, "velocity": 112, "channel": 0}, {"type": "note_off", "time": 354, "note": 55, "velocity": 112, "channel": 0}, {"type": "note_on", "time": 191, "note": 56, "velocity": 107, "channel": 0}, {"type": "note_off", "time": 109, "note": 56, "velocity": 107, "channel": 0}, {"type": "note_on", "time": 218, "note": 57, "velocity": 115, "channel": 0}, {"type": "note_off", "time": 191, "note": 57, "velocity": 115, "channel": 0}, {"type": "note_on", "time": 54, "note": 59, "velocity": 106, "channel": 0}, {"type": "note_off", "time": 273, "note": 59, "velocity": 106, "channel": 0}, {"type": "note_on", "time": 54, "note": 60, "velocity": 115, "channel": 0}, {"type": "note_off", "time": 382, "note": 60, "velocity": 115, "channel": 0}, {"type": "note_on", "time": 245, "note": 58, "velocity": 113, "channel": 0}, {"type": "note_off", "time": 245, "note": 58, "velocity": 113, "channel": 0}, {"type": "note_on", "time": 191, "note": 62, "velocity": 10, "channel": 0}, {"type": "note_off", "time": 300, "note": 62, "velocity": 10, "channel": 0}, {"type": "note_on", "time": 109, "note": 65, "velocity": 113, "channel": 0}, {"type": "note_off", "time": 382, "note": 65, "velocity": 113, "channel": 0}, {"type": "note_on", "time": 81, "note": 71, "velocity": 101, "channel": 0}, {"type": "note_off", "time": 300, "note": 71, "velocity": 101, "channel": 0}, {"type": "note_on", "time": 109, "note": 76, "velocity": 104, "channel": 0}, {"type": "note_off", "time": 191, "note": 76, "velocity": 104, "channel": 0}, {"type": "note_on", "time": 81, "note": 79, "velocity": 105, "channel": 0}, {"type": "note_off", "time": 464, "note": 79, "velocity": 105, "channel": 0}, {"type": "note_on", "time": 245, "note": 77, "velocity": 88, "channel": 0}, {"type": "note_off", "time": 464, "note": 77, "velocity": 88, "channel": 0}, {"type": "note_on", "time": 3194, "note": 78, "velocity": 103, "channel": 0}, {"type": "note_off", "time": 491, "note": 78, "velocity": 103, "channel": 0}, {"type": "note_on", "time": 136, "note": 84, "velocity": 105, "channel": 0}, {"type": "note_off", "time": 518, "note": 84, "velocity": 105, "channel": 0}, {"type": "note_on", "time": 0, "note": 83, "velocity": 103, "channel": 0}, {"type": "note_off", "time": 436, "note": 83, "velocity": 103, "channel": 0}, {"type": "note_on", "time": 27, "note": 82, "velocity": 105, "channel": 0}, {"type": "note_off", "time": 354, "note": 82, "velocity": 105, "channel": 0}, {"type": "note_on", "time": 0, "note": 81, "velocity": 106, "channel": 0}, {"type": "note_off", "time": 409, "note": 81, "velocity": 106, "channel": 0}, {"type": "note_on", "time": 27, "note": 83, "velocity": 110, "channel": 0}, {"type": "note_off", "time": 464, "note": 83, "velocity": 110, "channel": 0}, {"type": "note_on", "time": 136, "note": 79, "velocity": 108, "channel": 0}, {"type": "note_off", "time": 464, "note": 79, "velocity": 108, "channel": 0}, {"type": "note_on", "time": 218, "note": 81, "velocity": 112, "channel": 0}, {"type": "note_off", "time": 928, "note": 81, "velocity": 112, "channel": 0}, {"type": "note_on", "time": 3877, "note": 82, "velocity": 112, "channel": 0}, {"type": "note_off", "time": 464, "note": 82, "velocity": 112, "channel": 0}, {"type": "note_on", "time": 81, "note": 81, "velocity": 106, "channel": 0}, {"type": "note_off", "time": 546, "note": 81, "velocity": 106, "channel": 0}, {"type": "note_on", "time": 163, "note": 77, "velocity": 106, "channel": 0}, {"type": "note_off", "time": 518, "note": 77, "velocity": 106, "channel": 0}, {"type": "note_on", "time": 136, "note": 81, "velocity": 108, "channel": 0}, {"type": "note_off", "time": 518, "note": 81, "velocity": 108, "channel": 0}, {"type": "note_on", "time": 109, "note": 76, "velocity": 118, "channel": 0}, {"type": "note_off", "time": 737, "note": 76, "velocity": 118, "channel": 0}, {"type": "note_on", "time": 0, "note": 72, "velocity": 108, "channel": 0}, {"type": "note_off", "time": 300, "note": 72, "velocity": 108, "channel": 0}, {"type": "note_on", "time": 218, "note": 67, "velocity": 100, "channel": 0}, {"type": "note_off", "time": 464, "note": 67, "velocity": 100, "channel": 0}, {"type": "note_on", "time": 327, "note": 70, "velocity": 112, "channel": 0}, {"type": "note_off", "time": 546, "note": 70, "velocity": 112, "channel": 0}, {"type": "note_on", "time": 109, "note": 74, "velocity": 101, "channel": 0}, {"type": "note_off", "time": 436, "note": 74, "velocity": 101, "channel": 0}, {"type": "note_on", "time": 0, "note": 67, "velocity": 117, "channel": 0}, {"type": "note_off", "time": 436, "note": 67, "velocity": 117, "channel": 0}, {"type": "note_on", "time": 163, "note": 70, "velocity": 111, "channel": 0}, {"type": "note_off", "time": 436, "note": 70, "velocity": 111, "channel": 0}, {"type": "note_on", "time": 191, "note": 72, "velocity": 111, "channel": 0}, {"type": "note_off", "time": 491, "note": 72, "velocity": 111, "channel": 0}, {"type": "note_on", "time": 245, "note": 74, "velocity": 107, "channel": 0}, {"type": "note_off", "time": 382, "note": 74, "velocity": 107, "channel": 0}, {"type": "note_on", "time": 191, "note": 76, "velocity": 125, "channel": 0}, {"type": "note_off", "time": 464, "note": 76, "velocity": 125, "channel": 0}, {"type": "note_on", "time": 109, "note": 81, "velocity": 116, "channel": 0}, {"type": "note_off", "time": 491, "note": 81, "velocity": 116, "channel": 0}, {"type": "note_on", "time": 873, "note": 81, "velocity": 111, "channel": 0}, {"type": "note_off", "time": 546, "note": 81, "velocity": 111, "channel": 0}, {"type": "note_on", "time": 573, "note": 79, "velocity": 102, "channel": 0}, {"type": "note_off", "time": 436, "note": 79, "velocity": 102, "channel": 0}, {"type": "note_on", "time": 382, "note": 81, "velocity": 103, "channel": 0}, {"type": "note_off", "time": 791, "note": 81, "velocity": 103, "channel": 0}, {"type": "note_on", "time": 191, "note": 79, "velocity": 117, "channel": 0}, {"type": "note_off", "time": 1201, "note": 79, "velocity": 117, "channel": 0}, {"type": "note_on", "time": 1993, "note": 67, "velocity": 119, "channel": 0}, {"type": "note_off", "time": 709, "note": 67, "velocity": 119, "channel": 0}, {"type": "note_on", "time": 218, "note": 72, "velocity": 102, "channel": 0}, {"type": "note_off", "time": 436, "note": 72, "velocity": 102, "channel": 0}, {"type": "note_on", "time": 163, "note": 76, "velocity": 117, "channel": 0}, {"type": "note_off", "time": 464, "note": 76, "velocity": 117, "channel": 0}, {"type": "note_on", "time": 81, "note": 77, "velocity": 107, "channel": 0}, {"type": "note_off", "time": 354, "note": 77, "velocity": 107, "channel": 0}, {"type": "note_on", "time": 136, "note": 76, "velocity": 122, "channel": 0}, {"type": "note_off", "time": 628, "note": 76, "velocity": 122, "channel": 0}, {"type": "note_on", "time": 27, "note": 72, "velocity": 104, "channel": 0}, {"type": "note_off", "time": 409, "note": 72, "velocity": 104, "channel": 0}, {"type": "note_on", "time": 245, "note": 67, "velocity": 117, "channel": 0}, {"type": "note_off", "time": 491, "note": 67, "velocity": 117, "channel": 0}, {"type": "note_on", "time": 27, "note": 65, "velocity": 116, "channel": 0}, {"type": "note_off", "time": 518, "note": 65, "velocity": 116, "channel": 0}, {"type": "note_on", "time": 136, "note": 70, "velocity": 112, "channel": 0}, {"type": "note_off", "time": 464, "note": 70, "velocity": 112, "channel": 0}, {"type": "note_on", "time": 136, "note": 64, "velocity": 124, "channel": 0}, {"type": "note_off", "time": 600, "note": 64, "velocity": 124, "channel": 0}, {"type": "note_on", "time": 163, "note": 69, "velocity": 117, "channel": 0}, {"type": "note_off", "time": 464, "note": 69, "velocity": 117, "channel": 0}, {"type": "note_on", "time": 136, "note": 65, "velocity": 117, "channel": 0}, {"type": "note_off", "time": 546, "note": 65, "velocity": 117, "channel": 0}, {"type": "note_on", "time": 54, "note": 60, "velocity": 118, "channel": 0}, {"type": "note_off", "time": 518, "note": 60, "velocity": 118, "channel": 0}, {"type": "note_on", "time": 81, "note": 62, "velocity": 120, "channel": 0}, {"type": "note_off", "time": 518, "note": 62, "velocity": 120, "channel": 0}, {"type": "note_on", "time": 109, "note": 67, "velocity": 117, "channel": 0}, {"type": "note_off", "time": 491, "note": 67, "velocity": 117, "channel": 0}, {"type": "note_on", "time": 136, "note": 65, "velocity": 117, "channel": 0}, {"type": "note_off", "time": 518, "note": 65, "velocity": 117, "channel": 0}, {"type": "note_on", "time": 0, "note": 67, "velocity": 118, "channel": 0}, {"type": "note_off", "time": 682, "note": 67, "velocity": 118, "channel": 0}, {"type": "note_on", "time": 136, "note": 69, "velocity": 109, "channel": 0}, {"type": "note_off", "time": 518, "note": 69, "velocity": 109, "channel": 0}, {"type": "note_on", "time": 0, "note": 72, "velocity": 115, "channel": 0}, {"type": "note_off", "time": 464, "note": 72, "velocity": 115, "channel": 0}, {"type": "note_on", "time": 109, "note": 70, "velocity": 109, "channel": 0}, {"type": "note_off", "time": 655, "note": 70, "velocity": 109, "channel": 0}, {"type": "note_on", "time": 163, "note": 65, "velocity": 112, "channel": 0}, {"type": "note_off", "time": 518, "note": 65, "velocity": 112, "channel": 0}, {"type": "note_on", "time": 3031, "note": 62, "velocity": 118, "channel": 0}, {"type": "note_off", "time": 546, "note": 62, "velocity": 118, "channel": 0}, {"type": "note_on", "time": 54, "note": 69, "velocity": 112, "channel": 0}, {"type": "note_off", "time": 764, "note": 69, "velocity": 112, "channel": 0}, {"type": "note_on", "time": 0, "note": 62, "velocity": 120, "channel": 0}, {"type": "note_off", "time": 518, "note": 62, "velocity": 120, "channel": 0}, {"type": "note_on", "time": 109, "note": 67, "velocity": 120, "channel": 0}, {"type": "note_off", "time": 464, "note": 67, "velocity": 120, "channel": 0}, {"type": "note_on", "time": 81, "note": 69, "velocity": 113, "channel": 0}, {"type": "note_off", "time": 518, "note": 69, "velocity": 113, "channel": 0}, {"type": "note_on", "time": 54, "note": 70, "velocity": 108, "channel": 0}, {"type": "note_off", "time": 546, "note": 70, "velocity": 108, "channel": 0}, {"type": "note_on", "time": 109, "note": 72, "velocity": 108, "channel": 0}, {"type": "note_off", "time": 628, "note": 72, "velocity": 108, "channel": 0}, {"type": "note_on", "time": 54, "note": 62, "velocity": 114, "channel": 0}, {"type": "note_off", "time": 354, "note": 62, "velocity": 114, "channel": 0}, {"type": "note_on", "time": 136, "note": 69, "velocity": 112, "channel": 0}, {"type": "note_off", "time": 546, "note": 69, "velocity": 112, "channel": 0}, {"type": "note_on", "time": 54, "note": 62, "velocity": 113, "channel": 0}, {"type": "note_off", "time": 546, "note": 62, "velocity": 113, "channel": 0}, {"type": "note_on", "time": 163, "note": 67, "velocity": 118, "channel": 0}, {"type": "note_off", "time": 573, "note": 67, "velocity": 118, "channel": 0}, {"type": "note_on", "time": 109, "note": 69, "velocity": 110, "channel": 0}, {"type": "note_off", "time": 436, "note": 69, "velocity": 110, "channel": 0}, {"type": "note_on", "time": 218, "note": 70, "velocity": 109, "channel": 0}, {"type": "note_off", "time": 464, "note": 70, "velocity": 109, "channel": 0}, {"type": "note_on", "time": 327, "note": 72, "velocity": 111, "channel": 0}, {"type": "note_off", "time": 518, "note": 72, "velocity": 111, "channel": 0}, {"type": "note_on", "time": 0, "note": 62, "velocity": 116, "channel": 0}, {"type": "note_off", "time": 436, "note": 62, "velocity": 116, "channel": 0}, {"type": "note_on", "time": 191, "note": 69, "velocity": 115, "channel": 0}, {"type": "note_off", "time": 491, "note": 69, "velocity": 115, "channel": 0}, {"type": "note_on", "time": 191, "note": 62, "velocity": 112, "channel": 0}, {"type": "note_off", "time": 354, "note": 62, "velocity": 112, "channel": 0}, {"type": "note_on", "time": 54, "note": 67, "velocity": 116, "channel": 0}, {"type": "note_off", "time": 628, "note": 67, "velocity": 116, "channel": 0}, {"type": "note_on", "time": 54, "note": 69, "velocity": 110, "channel": 0}, {"type": "note_off", "time": 464, "note": 69, "velocity": 110, "channel": 0}, {"type": "note_on", "time": 191, "note": 70, "velocity": 106, "channel": 0}, {"type": "note_off", "time": 464, "note": 70, "velocity": 106, "channel": 0}, {"type": "note_on", "time": 218, "note": 72, "velocity": 115, "channel": 0}, {"type": "note_off", "time": 382, "note": 72, "velocity": 115, "channel": 0}, {"type": "note_on", "time": 327, "note": 62, "velocity": 115, "channel": 0}, {"type": "note_off", "time": 436, "note": 62, "velocity": 115, "channel": 0}, {"type": "note_on", "time": 54, "note": 67, "velocity": 119, "channel": 0}, {"type": "note_off", "time": 436, "note": 67, "velocity": 119, "channel": 0}, {"type": "note_on", "time": 136, "note": 69, "velocity": 110, "channel": 0}, {"type": "note_off", "time": 464, "note": 69, "velocity": 110, "channel": 0}, {"type": "note_on", "time": 136, "note": 70, "velocity": 104, "channel": 0}, {"type": "note_off", "time": 464, "note": 70, "velocity": 104, "channel": 0}, {"type": "note_on", "time": 218, "note": 72, "velocity": 106, "channel": 0}, {"type": "note_off", "time": 546, "note": 72, "velocity": 106, "channel": 0}, {"type": "note_on", "time": 27, "note": 62, "velocity": 116, "channel": 0}, {"type": "note_off", "time": 354, "note": 62, "velocity": 116, "channel": 0}, {"type": "note_on", "time": 81, "note": 67, "velocity": 104, "channel": 0}, {"type": "note_off", "time": 300, "note": 67, "velocity": 104, "channel": 0}, {"type": "note_on", "time": 163, "note": 69, "velocity": 113, "channel": 0}, {"type": "note_off", "time": 245, "note": 69, "velocity": 113, "channel": 0}, {"type": "note_on", "time": 109, "note": 70, "velocity": 112, "channel": 0}, {"type": "note_off", "time": 436, "note": 70, "velocity": 112, "channel": 0}, {"type": "note_on", "time": 109, "note": 72, "velocity": 109, "channel": 0}, {"type": "note_off", "time": 546, "note": 72, "velocity": 109, "channel": 0}, {"type": "note_on", "time": 218, "note": 62, "velocity": 112, "channel": 0}, {"type": "note_off", "time": 491, "note": 62, "velocity": 112, "channel": 0}, {"type": "note_on", "time": 81, "note": 67, "velocity": 98, "channel": 0}, {"type": "note_off", "time": 518, "note": 67, "velocity": 98, "channel": 0}, {"type": "note_on", "time": 81, "note": 69, "velocity": 102, "channel": 0}, {"type": "note_off", "time": 464, "note": 69, "velocity": 102, "channel": 0}, {"type": "note_on", "time": 109, "note": 70, "velocity": 107, "channel": 0}, {"type": "note_off", "time": 600, "note": 70, "velocity": 107, "channel": 0}, {"type": "note_on", "time": 628, "note": 72, "velocity": 115, "channel": 0}, {"type": "note_off", "time": 709, "note": 72, "velocity": 115, "channel": 0}, {"type": "note_on", "time": 1856, "note": 70, "velocity": 105, "channel": 0}, {"type": "note_off", "time": 518, "note": 70, "velocity": 105, "channel": 0}, {"type": "note_on", "time": 0, "note": 69, "velocity": 103, "channel": 0}, {"type": "note_off", "time": 573, "note": 69, "velocity": 103, "channel": 0}, {"type": "note_on", "time": 54, "note": 67, "velocity": 115, "channel": 0}, {"type": "note_off", "time": 628, "note": 67, "velocity": 115, "channel": 0}, {"type": "note_on", "time": 54, "note": 65, "velocity": 112, "channel": 0}, {"type": "note_off", "time": 436, "note": 65, "velocity": 112, "channel": 0}, {"type": "note_on", "time": 300, "note": 67, "velocity": 116, "channel": 0}, {"type": "note_off", "time": 354, "note": 67, "velocity": 116, "channel": 0}, {"type": "note_on", "time": 163, "note": 69, "velocity": 110, "channel": 0}, {"type": "note_off", "time": 518, "note": 69, "velocity": 110, "channel": 0}, {"type": "note_on", "time": 136, "note": 65, "velocity": 114, "channel": 0}, {"type": "note_off", "time": 464, "note": 65, "velocity": 114, "channel": 0}, {"type": "note_on", "time": 0, "note": 69, "velocity": 103, "channel": 0}, {"type": "note_off", "time": 436, "note": 69, "velocity": 103, "channel": 0}, {"type": "note_on", "time": 327, "note": 67, "velocity": 120, "channel": 0}, {"type": "note_off", "time": 546, "note": 67, "velocity": 120, "channel": 0}, {"type": "note_on", "time": 245, "note": 67, "velocity": 121, "channel": 0}, {"type": "note_off", "time": 436, "note": 67, "velocity": 121, "channel": 0}, {"type": "note_on", "time": 682, "note": 72, "velocity": 112, "channel": 0}, {"type": "note_off", "time": 382, "note": 72, "velocity": 112, "channel": 0}, {"type": "note_on", "time": 273, "note": 72, "velocity": 125, "channel": 0}, {"type": "note_off", "time": 464, "note": 72, "velocity": 125, "channel": 0}, {"type": "note_on", "time": 218, "note": 72, "velocity": 112, "channel": 0}, {"type": "note_off", "time": 382, "note": 72, "velocity": 112, "channel": 0}, {"type": "note_on", "time": 1365, "note": 70, "velocity": 109, "channel": 0}, {"type": "note_off", "time": 518, "note": 70, "velocity": 109, "channel": 0}, {"type": "note_on", "time": 136, "note": 69, "velocity": 111, "channel": 0}, {"type": "note_off", "time": 546, "note": 69, "velocity": 111, "channel": 0}, {"type": "note_on", "time": 0, "note": 67, "velocity": 116, "channel": 0}, {"type": "note_off", "time": 491, "note": 67, "velocity": 116, "channel": 0}, {"type": "note_on", "time": 109, "note": 65, "velocity": 114, "channel": 0}, {"type": "note_off", "time": 436, "note": 65, "velocity": 114, "channel": 0}, {"type": "note_on", "time": 273, "note": 67, "velocity": 118, "channel": 0}, {"type": "note_off", "time": 409, "note": 67, "velocity": 118, "channel": 0}, {"type": "note_on", "time": 81, "note": 69, "velocity": 110, "channel": 0}, {"type": "note_off", "time": 464, "note": 69, "velocity": 110, "channel": 0}, {"type": "note_on", "time": 54, "note": 65, "velocity": 111, "channel": 0}, {"type": "note_off", "time": 573, "note": 65, "velocity": 111, "channel": 0}, {"type": "note_on", "time": 81, "note": 67, "velocity": 112, "channel": 0}, {"type": "note_off", "time": 600, "note": 67, "velocity": 112, "channel": 0}, {"type": "note_on", "time": 163, "note": 67, "velocity": 120, "channel": 0}, {"type": "note_off", "time": 409, "note": 67, "velocity": 120, "channel": 0}, {"type": "note_on", "time": 54, "note": 67, "velocity": 119, "channel": 0}, {"type": "note_off", "time": 628, "note": 67, "velocity": 119, "channel": 0}, {"type": "note_on", "time": 628, "note": 72, "velocity": 104, "channel": 0}, {"type": "note_off", "time": 491, "note": 72, "velocity": 104, "channel": 0}, {"type": "note_on", "time": 245, "note": 72, "velocity": 112, "channel": 0}, {"type": "note_off", "time": 573, "note": 72, "velocity": 112, "channel": 0}, {"type": "note_on", "time": 245, "note": 72, "velocity": 102, "channel": 0}, {"type": "note_off", "time": 491, "note": 72, "velocity": 102, "channel": 0}, {"type": "note_on", "time": 1201, "note": 70, "velocity": 111, "channel": 0}, {"type": "note_off", "time": 491, "note": 70, "velocity": 111, "channel": 0}, {"type": "note_on", "time": 54, "note": 69, "velocity": 108, "channel": 0}, {"type": "note_off", "time": 436, "note": 69, "velocity": 108, "channel": 0}, {"type": "note_on", "time": 163, "note": 67, "velocity": 117, "channel": 0}, {"type": "note_off", "time": 546, "note": 67, "velocity": 117, "channel": 0}, {"type": "note_on", "time": 218, "note": 67, "velocity": 117, "channel": 0}, {"type": "note_off", "time": 573, "note": 67, "velocity": 117, "channel": 0}, {"type": "note_on", "time": 1338, "note": 70, "velocity": 110, "channel": 0}, {"type": "note_off", "time": 518, "note": 70, "velocity": 110, "channel": 0}, {"type": "note_on", "time": 54, "note": 69, "velocity": 112, "channel": 0}, {"type": "note_off", "time": 600, "note": 69, "velocity": 112, "channel": 0}, {"type": "note_on", "time": 81, "note": 67, "velocity": 114, "channel": 0}, {"type": "note_off", "time": 518, "note": 67, "velocity": 114, "channel": 0}, {"type": "note_on", "time": 218, "note": 67, "velocity": 123, "channel": 0}, {"type": "note_off", "time": 518, "note": 67, "velocity": 123, "channel": 0}, {"type": "note_on", "time": 1338, "note": 70, "velocity": 112, "channel": 0}, {"type": "note_off", "time": 409, "note": 70, "velocity": 112, "channel": 0}, {"type": "note_on", "time": 136, "note": 69, "velocity": 112, "channel": 0}, {"type": "note_off", "time": 409, "note": 69, "velocity": 112, "channel": 0}, {"type": "note_on", "time": 191, "note": 67, "velocity": 115, "channel": 0}, {"type": "note_off", "time": 518, "note": 67, "velocity": 115, "channel": 0}, {"type": "note_on", "time": 27, "note": 65, "velocity": 117, "channel": 0}, {"type": "note_off", "time": 464, "note": 65, "velocity": 117, "channel": 0}, {"type": "note_on", "time": 27, "note": 67, "velocity": 118, "channel": 0}, {"type": "note_off", "time": 491, "note": 67, "velocity": 118, "channel": 0}, {"type": "note_on", "time": 136, "note": 69, "velocity": 110, "channel": 0}, {"type": "note_off", "time": 682, "note": 69, "velocity": 110, "channel": 0}, {"type": "note_on", "time": 136, "note": 65, "velocity": 117, "channel": 0}, {"type": "note_off", "time": 436, "note": 65, "velocity": 117, "channel": 0}, {"type": "note_on", "time": 27, "note": 67, "velocity": 116, "channel": 0}, {"type": "note_off", "time": 518, "note": 67, "velocity": 116, "channel": 0}, {"type": "note_on", "time": 81, "note": 67, "velocity": 114, "channel": 0}, {"type": "note_off", "time": 628, "note": 67, "velocity": 114, "channel": 0}, {"type": "note_on", "time": 245, "note": 74, "velocity": 111, "channel": 0}, {"type": "note_off", "time": 628, "note": 74, "velocity": 111, "channel": 0}, {"type": "note_on", "time": 1256, "note": 72, "velocity": 108, "channel": 0}, {"type": "note_off", "time": 628, "note": 72, "velocity": 108, "channel": 0}, {"type": "note_on", "time": 27, "note": 69, "velocity": 120, "channel": 0}, {"type": "note_off", "time": 464, "note": 69, "velocity": 120, "channel": 0}, {"type": "note_on", "time": 1174, "note": 70, "velocity": 101, "channel": 0}, {"type": "note_off", "time": 573, "note": 70, "velocity": 101, "channel": 0}, {"type": "note_on", "time": 273, "note": 67, "velocity": 118, "channel": 0}, {"type": "note_off", "time": 628, "note": 67, "velocity": 118, "channel": 0}, {"type": "note_on", "time": 1228, "note": 67, "velocity": 119, "channel": 0}, {"type": "note_off", "time": 628, "note": 67, "velocity": 119, "channel": 0}, {"type": "note_on", "time": 81, "note": 65, "velocity": 111, "channel": 0}, {"type": "note_off", "time": 436, "note": 65, "velocity": 111, "channel": 0}, {"type": "note_on", "time": 0, "note": 67, "velocity": 112, "channel": 0}, {"type": "note_off", "time": 682, "note": 67, "velocity": 112, "channel": 0}, {"type": "note_on", "time": 109, "note": 69, "velocity": 115, "channel": 0}, {"type": "note_off", "time": 546, "note": 69, "velocity": 115, "channel": 0}, {"type": "note_on", "time": 0, "note": 65, "velocity": 115, "channel": 0}, {"type": "note_off", "time": 327, "note": 65, "velocity": 115, "channel": 0}, {"type": "note_on", "time": 191, "note": 67, "velocity": 111, "channel": 0}, {"type": "note_off", "time": 600, "note": 67, "velocity": 111, "channel": 0}, {"type": "note_on", "time": 109, "note": 67, "velocity": 116, "channel": 0}, {"type": "note_off", "time": 464, "note": 67, "velocity": 116, "channel": 0}, {"type": "note_on", "time": 163, "note": 67, "velocity": 118, "channel": 0}, {"type": "note_off", "time": 737, "note": 67, "velocity": 118, "channel": 0}, {"type": "note_on", "time": 1324, "note": 72, "velocity": 109, "channel": 0}, {"type": "note_off", "time": 737, "note": 72, "velocity": 109, "channel": 0}, {"type": "note_on", "time": 1487, "note": 70, "velocity": 114, "channel": 0}, {"type": "note_off", "time": 883, "note": 70, "velocity": 114, "channel": 0}, {"type": "note_on", "time": 1843, "note": 67, "velocity": 122, "channel": 0}, {"type": "note_off", "time": 883, "note": 67, "velocity": 122, "channel": 0}, {"type": "note_on", "time": 1728, "note": 65, "velocity": 119, "channel": 0}, {"type": "note_off", "time": 998, "note": 65, "velocity": 119, "channel": 0}, {"type": "note_on", "time": 1420, "note": 67, "velocity": 122, "channel": 0}, {"type": "note_off", "time": 1036, "note": 67, "velocity": 122, "channel": 0}, {"type": "note_on", "time": 1529, "note": 70, "velocity": 117, "channel": 0}, {"type": "note_off", "time": 682, "note": 70, "velocity": 117, "channel": 0}, {"type": "note_on", "time": 655, "note": 74, "velocity": 102, "channel": 0}, {"type": "note_off", "time": 682, "note": 74, "velocity": 102, "channel": 0}, {"type": "note_on", "time": 491, "note": 79, "velocity": 91, "channel": 0}, {"type": "note_off", "time": 791, "note": 79, "velocity": 91, "channel": 0}, {"type": "note_on", "time": 3140, "note": 81, "velocity": 101, "channel": 0}, {"type": "note_off", "time": 9748, "note": 81, "velocity": 101, "channel": 0}, {"type": "note_on", "time": 218, "note": 79, "velocity": 110, "channel": 0}, {"type": "note_off", "time": 709, "note": 79, "velocity": 110, "channel": 0}, {"type": "note_on", "time": 81, "note": 77, "velocity": 104, "channel": 0}, {"type": "note_off", "time": 191, "note": 77, "velocity": 104, "channel": 0}, {"type": "note_on", "time": 27, "note": 74, "velocity": 109, "channel": 0}, {"type": "note_off", "time": 600, "note": 74, "velocity": 109, "channel": 0}, {"type": "note_on", "time": 81, "note": 72, "velocity": 89, "channel": 0}, {"type": "note_off", "time": 191, "note": 72, "velocity": 89, "channel": 0}, {"type": "note_on", "time": 3577, "note": 79, "velocity": 114, "channel": 0}, {"type": "note_off", "time": 409, "note": 79, "velocity": 114, "channel": 0}, {"type": "note_on", "time": 163, "note": 81, "velocity": 114, "channel": 0}, {"type": "note_off", "time": 2867, "note": 81, "velocity": 114, "channel": 0}, {"type": "note_on", "time": 171, "note": 82, "velocity": 113, "channel": 0}, {"type": "note_off", "time": 307, "note": 82, "velocity": 113, "channel": 0}, {"type": "note_on", "time": 57, "note": 81, "velocity": 110, "channel": 0}, {"type": "note_off", "time": 268, "note": 81, "velocity": 110, "channel": 0}, {"type": "note_on", "time": 172, "note": 82, "velocity": 111, "channel": 0}, {"type": "note_off", "time": 307, "note": 82, "velocity": 111, "channel": 0}, {"type": "note_on", "time": 76, "note": 81, "velocity": 113, "channel": 0}, {"type": "note_off", "time": 230, "note": 81, "velocity": 113, "channel": 0}, {"type": "note_on", "time": 38, "note": 82, "velocity": 115, "channel": 0}, {"type": "note_off", "time": 307, "note": 82, "velocity": 115, "channel": 0}, {"type": "note_on", "time": 19, "note": 81, "velocity": 114, "channel": 0}, {"type": "note_off", "time": 211, "note": 81, "velocity": 114, "channel": 0}, {"type": "note_on", "time": 76, "note": 82, "velocity": 114, "channel": 0}, {"type": "note_off", "time": 326, "note": 82, "velocity": 114, "channel": 0}, {"type": "note_on", "time": 96, "note": 81, "velocity": 113, "channel": 0}, {"type": "note_off", "time": 307, "note": 81, "velocity": 113, "channel": 0}, {"type": "note_on", "time": 191, "note": 82, "velocity": 114, "channel": 0}, {"type": "note_off", "time": 211, "note": 82, "velocity": 114, "channel": 0}, {"type": "note_on", "time": 38, "note": 81, "velocity": 114, "channel": 0}, {"type": "note_off", "time": 249, "note": 81, "velocity": 114, "channel": 0}, {"type": "note_on", "time": 96, "note": 82, "velocity": 110, "channel": 0}, {"type": "note_off", "time": 499, "note": 82, "velocity": 110, "channel": 0}, {"type": "note_on", "time": 76, "note": 81, "velocity": 108, "channel": 0}, {"type": "note_off", "time": 2073, "note": 81, "velocity": 108, "channel": 0}, {"type": "note_on", "time": 57, "note": 79, "velocity": 112, "channel": 0}, {"type": "note_off", "time": 614, "note": 79, "velocity": 112, "channel": 0}, {"type": "note_on", "time": 153, "note": 74, "velocity": 102, "channel": 0}, {"type": "note_off", "time": 787, "note": 74, "velocity": 102, "channel": 0}, {"type": "note_on", "time": 134, "note": 72, "velocity": 104, "channel": 0}, {"type": "note_off", "time": 230, "note": 72, "velocity": 104, "channel": 0}, {"type": "note_on", "time": 3667, "note": 81, "velocity": 109, "channel": 0}, {"type": "note_off", "time": 307, "note": 81, "velocity": 109, "channel": 0}, {"type": "note_on", "time": 422, "note": 84, "velocity": 111, "channel": 0}, {"type": "note_off", "time": 1536, "note": 84, "velocity": 111, "channel": 0}, {"type": "note_on", "time": 1497, "note": 85, "velocity": 108, "channel": 0}, {"type": "note_off", "time": 2380, "note": 85, "velocity": 108, "channel": 0}, {"type": "note_on", "time": 1075, "note": 86, "velocity": 105, "channel": 0}, {"type": "note_off", "time": 1267, "note": 86, "velocity": 105, "channel": 0}, {"type": "note_on", "time": 844, "note": 89, "velocity": 115, "channel": 0}, {"type": "note_off", "time": 460, "note": 89, "velocity": 115, "channel": 0}, {"type": "note_on", "time": 460, "note": 91, "velocity": 90, "channel": 0}, {"type": "note_off", "time": 729, "note": 91, "velocity": 90, "channel": 0}, {"type": "note_on", "time": 3148, "note": 77, "velocity": 98, "channel": 0}, {"type": "note_off", "time": 614, "note": 77, "velocity": 98, "channel": 0}, {"type": "note_on", "time": 1843, "note": 89, "velocity": 106, "channel": 0}, {"type": "note_off", "time": 614, "note": 89, "velocity": 106, "channel": 0}, {"type": "note_on", "time": 2457, "note": 77, "velocity": 112, "channel": 0}, {"type": "note_off", "time": 614, "note": 77, "velocity": 112, "channel": 0}, {"type": "note_on", "time": 2035, "note": 89, "velocity": 103, "channel": 0}, {"type": "note_off", "time": 576, "note": 89, "velocity": 103, "channel": 0}, {"type": "note_on", "time": 2764, "note": 74, "velocity": 101, "channel": 0}, {"type": "note_off", "time": 345, "note": 74, "velocity": 101, "channel": 0}, {"type": "note_on", "time": 2150, "note": 89, "velocity": 90, "channel": 0}, {"type": "note_off", "time": 422, "note": 89, "velocity": 90, "channel": 0}, {"type": "note_on", "time": 115, "note": 86, "velocity": 95, "channel": 0}, {"type": "note_off", "time": 460, "note": 86, "velocity": 95, "channel": 0}, {"type": "note_on", "time": 153, "note": 89, "velocity": 103, "channel": 0}, {"type": "note_off", "time": 537, "note": 89, "velocity": 103, "channel": 0}, {"type": "note_on", "time": 2419, "note": 75, "velocity": 116, "channel": 0}, {"type": "note_off", "time": 576, "note": 75, "velocity": 116, "channel": 0}, {"type": "note_on", "time": 2304, "note": 89, "velocity": 103, "channel": 0}, {"type": "note_off", "time": 729, "note": 89, "velocity": 103, "channel": 0}, {"type": "note_on", "time": 1459, "note": 77, "velocity": 85, "channel": 0}, {"type": "note_off", "time": 499, "note": 77, "velocity": 85, "channel": 0}, {"type": "note_on", "time": 614, "note": 87, "velocity": 89, "channel": 0}, {"type": "note_off", "time": 537, "note": 87, "velocity": 89, "channel": 0}, {"type": "note_on", "time": 38, "note": 77, "velocity": 90, "channel": 0}, {"type": "note_off", "time": 422, "note": 77, "velocity": 90, "channel": 0}, {"type": "note_on", "time": 844, "note": 89, "velocity": 93, "channel": 0}, {"type": "note_off", "time": 499, "note": 89, "velocity": 93, "channel": 0}, {"type": "note_on", "time": 384, "note": 77, "velocity": 99, "channel": 0}, {"type": "note_off", "time": 384, "note": 77, "velocity": 99, "channel": 0}, {"type": "note_on", "time": 729, "note": 89, "velocity": 109, "channel": 0}, {"type": "note_off", "time": 460, "note": 89, "velocity": 109, "channel": 0}, {"type": "note_on", "time": 268, "note": 76, "velocity": 95, "channel": 0}, {"type": "note_off", "time": 384, "note": 76, "velocity": 95, "channel": 0}, {"type": "note_on", "time": 460, "note": 87, "velocity": 108, "channel": 0}, {"type": "note_off", "time": 614, "note": 87, "velocity": 108, "channel": 0}, {"type": "note_on", "time": 76, "note": 79, "velocity": 86, "channel": 0}, {"type": "note_off", "time": 499, "note": 79, "velocity": 86, "channel": 0}, {"type": "note_on", "time": 652, "note": 88, "velocity": 116, "channel": 0}, {"type": "note_off", "time": 537, "note": 88, "velocity": 116, "channel": 0}, {"type": "note_on", "time": 384, "note": 79, "velocity": 91, "channel": 0}, {"type": "note_off", "time": 652, "note": 79, "velocity": 91, "channel": 0}, {"type": "note_on", "time": 422, "note": 89, "velocity": 92, "channel": 0}, {"type": "note_off", "time": 460, "note": 89, "velocity": 92, "channel": 0}, {"type": "note_on", "time": 2764, "note": 74, "velocity": 105, "channel": 0}, {"type": "note_off", "time": 499, "note": 74, "velocity": 105, "channel": 0}, {"type": "note_on", "time": 2342, "note": 89, "velocity": 97, "channel": 0}, {"type": "note_off", "time": 652, "note": 89, "velocity": 97, "channel": 0}, {"type": "note_on", "time": 3033, "note": 84, "velocity": 109, "channel": 0}, {"type": "note_off", "time": 422, "note": 84, "velocity": 109, "channel": 0}, {"type": "note_on", "time": 422, "note": 89, "velocity": 108, "channel": 0}, {"type": "note_off", "time": 614, "note": 89, "velocity": 108, "channel": 0}, {"type": "note_on", "time": 537, "note": 82, "velocity": 93, "channel": 0}, {"type": "note_off", "time": 614, "note": 82, "velocity": 93, "channel": 0}, {"type": "note_on", "time": 2995, "note": 82, "velocity": 103, "channel": 0}, {"type": "note_off", "time": 1113, "note": 82, "velocity": 103, "channel": 0}, {"type": "note_on", "time": 38, "note": 79, "velocity": 118, "channel": 0}, {"type": "note_off", "time": 2342, "note": 79, "velocity": 118, "channel": 0}, {"type": "note_on", "time": 448, "note": 77, "velocity": 96, "channel": 0}, {"type": "note_off", "time": 464, "note": 77, "velocity": 96, "channel": 0}, {"type": "note_on", "time": 191, "note": 74, "velocity": 109, "channel": 0}, {"type": "note_off", "time": 614, "note": 74, "velocity": 109, "channel": 0}, {"type": "note_on", "time": 9, "note": 72, "velocity": 113, "channel": 0}, {"type": "note_off", "time": 268, "note": 72, "velocity": 113, "channel": 0}, {"type": "note_on", "time": 172, "note": 70, "velocity": 103, "channel": 0}, {"type": "note_off", "time": 300, "note": 70, "velocity": 103, "channel": 0}, {"type": "note_on", "time": 109, "note": 72, "velocity": 103, "channel": 0}, {"type": "note_off", "time": 327, "note": 72, "velocity": 103, "channel": 0}, {"type": "note_on", "time": 354, "note": 72, "velocity": 110, "channel": 0}, {"type": "note_off", "time": 409, "note": 72, "velocity": 110, "channel": 0}, {"type": "note_on", "time": 54, "note": 70, "velocity": 113, "channel": 0}, {"type": "note_off", "time": 382, "note": 70, "velocity": 113, "channel": 0}, {"type": "note_on", "time": 163, "note": 67, "velocity": 113, "channel": 0}, {"type": "note_off", "time": 628, "note": 67, "velocity": 113, "channel": 0}, {"type": "note_on", "time": 109, "note": 62, "velocity": 113, "channel": 0}, {"type": "note_off", "time": 354, "note": 62, "velocity": 113, "channel": 0}, {"type": "note_on", "time": 109, "note": 65, "velocity": 120, "channel": 0}, {"type": "note_off", "time": 546, "note": 65, "velocity": 120, "channel": 0}, {"type": "note_on", "time": 81, "note": 66, "velocity": 112, "channel": 0}, {"type": "note_off", "time": 354, "note": 66, "velocity": 112, "channel": 0}, {"type": "note_on", "time": 136, "note": 69, "velocity": 119, "channel": 0}, {"type": "note_off", "time": 409, "note": 69, "velocity": 119, "channel": 0}, {"type": "note_on", "time": 354, "note": 66, "velocity": 111, "channel": 0}, {"type": "note_off", "time": 491, "note": 66, "velocity": 111, "channel": 0}, {"type": "note_on", "time": 109, "note": 67, "velocity": 120, "channel": 0}, {"type": "note_off", "time": 409, "note": 67, "velocity": 120, "channel": 0}, {"type": "note_on", "time": 191, "note": 69, "velocity": 115, "channel": 0}, {"type": "note_off", "time": 464, "note": 69, "velocity": 115, "channel": 0}, {"type": "note_on", "time": 109, "note": 70, "velocity": 109, "channel": 0}, {"type": "note_off", "time": 600, "note": 70, "velocity": 109, "channel": 0}, {"type": "note_on", "time": 81, "note": 72, "velocity": 113, "channel": 0}, {"type": "note_off", "time": 573, "note": 72, "velocity": 113, "channel": 0}, {"type": "note_on", "time": 27, "note": 74, "velocity": 100, "channel": 0}, {"type": "note_off", "time": 737, "note": 74, "velocity": 100, "channel": 0}, {"type": "note_on", "time": 218, "note": 77, "velocity": 97, "channel": 0}, {"type": "note_off", "time": 300, "note": 77, "velocity": 97, "channel": 0}, {"type": "note_on", "time": 191, "note": 78, "velocity": 107, "channel": 0}, {"type": "note_off", "time": 464, "note": 78, "velocity": 107, "channel": 0}, {"type": "note_on", "time": 109, "note": 77, "velocity": 82, "channel": 0}, {"type": "note_off", "time": 327, "note": 77, "velocity": 82, "channel": 0}, {"type": "note_on", "time": 54, "note": 78, "velocity": 109, "channel": 0}, {"type": "note_off", "time": 354, "note": 78, "velocity": 109, "channel": 0}, {"type": "note_on", "time": 191, "note": 79, "velocity": 116, "channel": 0}, {"type": "note_off", "time": 600, "note": 79, "velocity": 116, "channel": 0}, {"type": "note_on", "time": 81, "note": 81, "velocity": 109, "channel": 0}, {"type": "note_off", "time": 409, "note": 81, "velocity": 109, "channel": 0}, {"type": "note_on", "time": 245, "note": 82, "velocity": 111, "channel": 0}, {"type": "note_off", "time": 928, "note": 82, "velocity": 111, "channel": 0}, {"type": "note_on", "time": 2048, "note": 70, "velocity": 113, "channel": 0}, {"type": "note_off", "time": 491, "note": 70, "velocity": 113, "channel": 0}, {"type": "note_on", "time": 218, "note": 67, "velocity": 115, "channel": 0}, {"type": "note_off", "time": 409, "note": 67, "velocity": 115, "channel": 0}, {"type": "note_on", "time": 136, "note": 65, "velocity": 120, "channel": 0}, {"type": "note_off", "time": 628, "note": 65, "velocity": 120, "channel": 0}, {"type": "note_on", "time": 54, "note": 62, "velocity": 108, "channel": 0}, {"type": "note_off", "time": 436, "note": 62, "velocity": 108, "channel": 0}, {"type": "note_on", "time": 54, "note": 67, "velocity": 120, "channel": 0}, {"type": "note_off", "time": 819, "note": 67, "velocity": 120, "channel": 0}, {"type": "note_on", "time": 1064, "note": 67, "velocity": 116, "channel": 0}, {"type": "note_off", "time": 764, "note": 67, "velocity": 116, "channel": 0}, {"type": "note_on", "time": 491, "note": 67, "velocity": 123, "channel": 0}, {"type": "note_off", "time": 573, "note": 67, "velocity": 123, "channel": 0}, {"type": "note_on", "time": 737, "note": 67, "velocity": 123, "channel": 0}, {"type": "note_off", "time": 737, "note": 67, "velocity": 123, "channel": 0}, {"type": "note_on", "time": 327, "note": 67, "velocity": 110, "channel": 0}, {"type": "note_off", "time": 436, "note": 67, "velocity": 110, "channel": 0}, {"type": "note_on", "time": 300, "note": 67, "velocity": 122, "channel": 0}, {"type": "note_off", "time": 955, "note": 67, "velocity": 122, "channel": 0}, {"type": "note_on", "time": 482, "note": 67, "velocity": 124, "channel": 0}, {"type": "note_off", "time": 595, "note": 67, "velocity": 124, "channel": 0}, {"type": "note_on", "time": 345, "note": 67, "velocity": 117, "channel": 0}, {"type": "note_off", "time": 480, "note": 67, "velocity": 117, "channel": 0}, {"type": "note_on", "time": 115, "note": 67, "velocity": 118, "channel": 0}, {"type": "note_off", "time": 576, "note": 67, "velocity": 118, "channel": 0}, {"type": "note_on", "time": 230, "note": 67, "velocity": 121, "channel": 0}, {"type": "note_off", "time": 614, "note": 67, "velocity": 121, "channel": 0}, {"type": "note_on", "time": 383, "note": 67, "velocity": 103, "channel": 0}, {"type": "note_off", "time": 556, "note": 67, "velocity": 103, "channel": 0}, {"type": "note_on", "time": 441, "note": 70, "velocity": 111, "channel": 0}, {"type": "note_off", "time": 1075, "note": 70, "velocity": 111, "channel": 0}, {"type": "note_on", "time": 153, "note": 72, "velocity": 123, "channel": 0}, {"type": "note_off", "time": 2400, "note": 72, "velocity": 123, "channel": 0}, {"type": "note_on", "time": 1977, "note": 67, "velocity": 116, "channel": 0}, {"type": "note_off", "time": 576, "note": 67, "velocity": 116, "channel": 0}, {"type": "note_on", "time": 268, "note": 67, "velocity": 120, "channel": 0}, {"type": "note_off", "time": 729, "note": 67, "velocity": 120, "channel": 0}, {"type": "note_on", "time": 191, "note": 67, "velocity": 115, "channel": 0}, {"type": "note_off", "time": 556, "note": 67, "velocity": 115, "channel": 0}, {"type": "note_on", "time": 403, "note": 69, "velocity": 119, "channel": 0}, {"type": "note_off", "time": 729, "note": 69, "velocity": 119, "channel": 0}, {"type": "note_on", "time": 95, "note": 70, "velocity": 120, "channel": 0}, {"type": "note_off", "time": 595, "note": 70, "velocity": 120, "channel": 0}, {"type": "note_on", "time": 0, "note": 72, "velocity": 117, "channel": 0}, {"type": "note_off", "time": 518, "note": 72, "velocity": 117, "channel": 0}, {"type": "note_on", "time": 115, "note": 70, "velocity": 120, "channel": 0}, {"type": "note_off", "time": 441, "note": 70, "velocity": 120, "channel": 0}, {"type": "note_on", "time": 211, "note": 72, "velocity": 119, "channel": 0}, {"type": "note_off", "time": 441, "note": 72, "velocity": 119, "channel": 0}, {"type": "note_on", "time": 38, "note": 70, "velocity": 117, "channel": 0}, {"type": "note_off", "time": 287, "note": 70, "velocity": 117, "channel": 0}, {"type": "note_on", "time": 76, "note": 69, "velocity": 117, "channel": 0}, {"type": "note_off", "time": 345, "note": 69, "velocity": 117, "channel": 0}, {"type": "note_on", "time": 57, "note": 70, "velocity": 118, "channel": 0}, {"type": "note_off", "time": 345, "note": 70, "velocity": 118, "channel": 0}, {"type": "note_on", "time": 134, "note": 72, "velocity": 114, "channel": 0}, {"type": "note_off", "time": 499, "note": 72, "velocity": 114, "channel": 0}, {"type": "note_on", "time": 0, "note": 70, "velocity": 117, "channel": 0}, {"type": "note_off", "time": 268, "note": 70, "velocity": 117, "channel": 0}, {"type": "note_on", "time": 76, "note": 69, "velocity": 117, "channel": 0}, {"type": "note_off", "time": 268, "note": 69, "velocity": 117, "channel": 0}, {"type": "note_on", "time": 38, "note": 70, "velocity": 116, "channel": 0}, {"type": "note_off", "time": 268, "note": 70, "velocity": 116, "channel": 0}, {"type": "note_on", "time": 57, "note": 72, "velocity": 116, "channel": 0}, {"type": "note_off", "time": 748, "note": 72, "velocity": 116, "channel": 0}, {"type": "note_on", "time": 57, "note": 70, "velocity": 116, "channel": 0}, {"type": "note_off", "time": 364, "note": 70, "velocity": 116, "channel": 0}, {"type": "note_on", "time": 57, "note": 69, "velocity": 117, "channel": 0}, {"type": "note_off", "time": 288, "note": 69, "velocity": 117, "channel": 0}, {"type": "note_on", "time": 19, "note": 70, "velocity": 21, "channel": 0}, {"type": "note_off", "time": 249, "note": 70, "velocity": 21, "channel": 0}, {"type": "note_on", "time": 115, "note": 72, "velocity": 113, "channel": 0}, {"type": "note_off", "time": 441, "note": 72, "velocity": 113, "channel": 0}, {"type": "note_on", "time": 211, "note": 70, "velocity": 99, "channel": 0}, {"type": "note_off", "time": 441, "note": 70, "velocity": 99, "channel": 0}, {"type": "note_on", "time": 211, "note": 67, "velocity": 107, "channel": 0}, {"type": "note_off", "time": 883, "note": 67, "velocity": 107, "channel": 0}, {"type": "note_on", "time": 3283, "note": 67, "velocity": 116, "channel": 0}, {"type": "note_off", "time": 287, "note": 67, "velocity": 116, "channel": 0}, {"type": "note_on", "time": 19, "note": 68, "velocity": 118, "channel": 0}, {"type": "note_off", "time": 249, "note": 68, "velocity": 118, "channel": 0}, {"type": "note_on", "time": 38, "note": 70, "velocity": 119, "channel": 0}, {"type": "note_off", "time": 364, "note": 70, "velocity": 119, "channel": 0}, {"type": "note_on", "time": 38, "note": 69, "velocity": 116, "channel": 0}, {"type": "note_off", "time": 384, "note": 69, "velocity": 116, "channel": 0}, {"type": "note_on", "time": 38, "note": 72, "velocity": 121, "channel": 0}, {"type": "note_off", "time": 403, "note": 72, "velocity": 121, "channel": 0}, {"type": "note_on", "time": 19, "note": 69, "velocity": 111, "channel": 0}, {"type": "note_off", "time": 172, "note": 69, "velocity": 111, "channel": 0}, {"type": "note_on", "time": 96, "note": 70, "velocity": 117, "channel": 0}, {"type": "note_off", "time": 307, "note": 70, "velocity": 117, "channel": 0}, {"type": "note_on", "time": 38, "note": 72, "velocity": 114, "channel": 0}, {"type": "note_off", "time": 537, "note": 72, "velocity": 114, "channel": 0}, {"type": "note_on", "time": 192, "note": 70, "velocity": 108, "channel": 0}, {"type": "note_off", "time": 307, "note": 70, "velocity": 108, "channel": 0}, {"type": "note_on", "time": 96, "note": 67, "velocity": 114, "channel": 0}, {"type": "note_on", "time": 268, "note": 68, "velocity": 108, "channel": 0}, {"type": "note_off", "time": 0, "note": 67, "velocity": 114, "channel": 0}, {"type": "note_off", "time": 191, "note": 68, "velocity": 108, "channel": 0}, {"type": "note_on", "time": 19, "note": 69, "velocity": 112, "channel": 0}, {"type": "note_off", "time": 211, "note": 69, "velocity": 112, "channel": 0}, {"type": "note_on", "time": 115, "note": 68, "velocity": 107, "channel": 0}, {"type": "note_off", "time": 288, "note": 68, "velocity": 107, "channel": 0}, {"type": "note_on", "time": 115, "note": 67, "velocity": 111, "channel": 0}, {"type": "note_off", "time": 403, "note": 67, "velocity": 111, "channel": 0}, {"type": "note_on", "time": 95, "note": 65, "velocity": 112, "channel": 0}, {"type": "note_off", "time": 288, "note": 65, "velocity": 112, "channel": 0}, {"type": "note_on", "time": 38, "note": 66, "velocity": 112, "channel": 0}, {"type": "note_off", "time": 307, "note": 66, "velocity": 112, "channel": 0}, {"type": "note_on", "time": 38, "note": 70, "velocity": 108, "channel": 0}, {"type": "note_off", "time": 307, "note": 70, "velocity": 108, "channel": 0}, {"type": "note_on", "time": 38, "note": 72, "velocity": 115, "channel": 0}, {"type": "note_off", "time": 172, "note": 72, "velocity": 115, "channel": 0}, {"type": "note_on", "time": 96, "note": 73, "velocity": 113, "channel": 0}, {"type": "note_off", "time": 268, "note": 73, "velocity": 113, "channel": 0}, {"type": "note_on", "time": 57, "note": 69, "velocity": 112, "channel": 0}, {"type": "note_off", "time": 211, "note": 69, "velocity": 112, "channel": 0}, {"type": "note_on", "time": 57, "note": 70, "velocity": 116, "channel": 0}, {"type": "note_off", "time": 288, "note": 70, "velocity": 116, "channel": 0}, {"type": "note_on", "time": 0, "note": 69, "velocity": 112, "channel": 0}, {"type": "note_on", "time": 192, "note": 67, "velocity": 112, "channel": 0}, {"type": "note_off", "time": 0, "note": 69, "velocity": 112, "channel": 0}, {"type": "note_off", "time": 287, "note": 67, "velocity": 112, "channel": 0}, {"type": "note_on", "time": 38, "note": 66, "velocity": 114, "channel": 0}, {"type": "note_off", "time": 288, "note": 66, "velocity": 114, "channel": 0}, {"type": "note_on", "time": 115, "note": 65, "velocity": 116, "channel": 0}, {"type": "note_off", "time": 172, "note": 65, "velocity": 116, "channel": 0}, {"type": "note_on", "time": 19, "note": 67, "velocity": 113, "channel": 0}, {"type": "note_off", "time": 230, "note": 67, "velocity": 113, "channel": 0}, {"type": "note_on", "time": 134, "note": 69, "velocity": 113, "channel": 0}, {"type": "note_off", "time": 268, "note": 69, "velocity": 113, "channel": 0}, {"type": "note_on", "time": 57, "note": 71, "velocity": 116, "channel": 0}, {"type": "note_off", "time": 192, "note": 71, "velocity": 116, "channel": 0}, {"type": "note_on", "time": 19, "note": 73, "velocity": 114, "channel": 0}, {"type": "note_off", "time": 153, "note": 73, "velocity": 114, "channel": 0}, {"type": "note_on", "time": 115, "note": 74, "velocity": 106, "channel": 0}, {"type": "note_off", "time": 537, "note": 74, "velocity": 106, "channel": 0}, {"type": "note_on", "time": 115, "note": 70, "velocity": 104, "channel": 0}, {"type": "note_off", "time": 326, "note": 70, "velocity": 104, "channel": 0}, {"type": "note_on", "time": 326, "note": 72, "velocity": 122, "channel": 0}, {"type": "note_off", "time": 460, "note": 72, "velocity": 122, "channel": 0}, {"type": "note_on", "time": 0, "note": 73, "velocity": 109, "channel": 0}, {"type": "note_off", "time": 345, "note": 73, "velocity": 109, "channel": 0}, {"type": "note_on", "time": 134, "note": 72, "velocity": 104, "channel": 0}, {"type": "note_off", "time": 192, "note": 72, "velocity": 104, "channel": 0}, {"type": "note_on", "time": 115, "note": 73, "velocity": 105, "channel": 0}, {"type": "note_off", "time": 288, "note": 73, "velocity": 105, "channel": 0}, {"type": "note_on", "time": 153, "note": 70, "velocity": 102, "channel": 0}, {"type": "note_off", "time": 230, "note": 70, "velocity": 102, "channel": 0}, {"type": "note_on", "time": 134, "note": 67, "velocity": 112, "channel": 0}, {"type": "note_off", "time": 403, "note": 67, "velocity": 112, "channel": 0}, {"type": "note_on", "time": 134, "note": 70, "velocity": 108, "channel": 0}, {"type": "note_off", "time": 230, "note": 70, "velocity": 108, "channel": 0}, {"type": "note_on", "time": 19, "note": 72, "velocity": 117, "channel": 0}, {"type": "note_off", "time": 134, "note": 72, "velocity": 117, "channel": 0}, {"type": "note_on", "time": 96, "note": 70, "velocity": 117, "channel": 0}, {"type": "note_off", "time": 422, "note": 70, "velocity": 117, "channel": 0}, {"type": "note_on", "time": 76, "note": 73, "velocity": 116, "channel": 0}, {"type": "note_off", "time": 307, "note": 73, "velocity": 116, "channel": 0}, {"type": "note_on", "time": 0, "note": 74, "velocity": 104, "channel": 0}, {"type": "note_off", "time": 671, "note": 74, "velocity": 104, "channel": 0}, {"type": "note_on", "time": 134, "note": 73, "velocity": 106, "channel": 0}, {"type": "note_off", "time": 364, "note": 73, "velocity": 106, "channel": 0}, {"type": "note_on", "time": 96, "note": 70, "velocity": 100, "channel": 0}, {"type": "note_off", "time": 192, "note": 70, "velocity": 100, "channel": 0}, {"type": "note_on", "time": 38, "note": 67, "velocity": 108, "channel": 0}, {"type": "note_off", "time": 115, "note": 67, "velocity": 108, "channel": 0}, {"type": "note_on", "time": 0, "note": 74, "velocity": 105, "channel": 0}, {"type": "note_off", "time": 134, "note": 74, "velocity": 105, "channel": 0}, {"type": "note_on", "time": 95, "note": 77, "velocity": 113, "channel": 0}, {"type": "note_off", "time": 307, "note": 77, "velocity": 113, "channel": 0}, {"type": "note_on", "time": 153, "note": 78, "velocity": 107, "channel": 0}, {"type": "note_off", "time": 460, "note": 78, "velocity": 107, "channel": 0}, {"type": "note_on", "time": 134, "note": 77, "velocity": 108, "channel": 0}, {"type": "note_off", "time": 172, "note": 77, "velocity": 108, "channel": 0}, {"type": "note_on", "time": 134, "note": 78, "velocity": 101, "channel": 0}, {"type": "note_off", "time": 364, "note": 78, "velocity": 101, "channel": 0}, {"type": "note_on", "time": 76, "note": 75, "velocity": 103, "channel": 0}, {"type": "note_off", "time": 172, "note": 75, "velocity": 103, "channel": 0}, {"type": "note_on", "time": 38, "note": 72, "velocity": 101, "channel": 0}, {"type": "note_off", "time": 172, "note": 72, "velocity": 101, "channel": 0}, {"type": "note_on", "time": 134, "note": 69, "velocity": 97, "channel": 0}, {"type": "note_off", "time": 153, "note": 69, "velocity": 97, "channel": 0}, {"type": "note_on", "time": 57, "note": 66, "velocity": 97, "channel": 0}, {"type": "note_off", "time": 153, "note": 66, "velocity": 97, "channel": 0}, {"type": "note_on", "time": 57, "note": 65, "velocity": 103, "channel": 0}, {"type": "note_off", "time": 192, "note": 65, "velocity": 103, "channel": 0}, {"type": "note_on", "time": 115, "note": 62, "velocity": 116, "channel": 0}, {"type": "note_off", "time": 172, "note": 62, "velocity": 116, "channel": 0}, {"type": "note_on", "time": 38, "note": 60, "velocity": 115, "channel": 0}, {"type": "note_off", "time": 230, "note": 60, "velocity": 115, "channel": 0}, {"type": "note_on", "time": 38, "note": 58, "velocity": 120, "channel": 0}, {"type": "note_off", "time": 480, "note": 58, "velocity": 120, "channel": 0}, {"type": "note_on", "time": 76, "note": 57, "velocity": 118, "channel": 0}, {"type": "note_off", "time": 1344, "note": 57, "velocity": 118, "channel": 0}, {"type": "note_on", "time": 2956, "note": 81, "velocity": 107, "channel": 0}, {"type": "note_off", "time": 1708, "note": 81, "velocity": 107, "channel": 0}, {"type": "note_on", "time": 57, "note": 79, "velocity": 121, "channel": 0}, {"type": "note_off", "time": 806, "note": 79, "velocity": 121, "channel": 0}, {"type": "note_on", "time": 134, "note": 58, "velocity": 110, "channel": 0}, {"type": "note_off", "time": 537, "note": 58, "velocity": 110, "channel": 0}, {"type": "note_on", "time": 288, "note": 62, "velocity": 120, "channel": 0}, {"type": "note_off", "time": 671, "note": 62, "velocity": 120, "channel": 0}, {"type": "note_on", "time": 537, "note": 67, "velocity": 118, "channel": 0}, {"type": "note_off", "time": 691, "note": 67, "velocity": 118, "channel": 0}, {"type": "note_on", "time": 710, "note": 62, "velocity": 105, "channel": 0}, {"type": "note_off", "time": 422, "note": 62, "velocity": 105, "channel": 0}, {"type": "note_on", "time": 345, "note": 72, "velocity": 109, "channel": 0}, {"type": "note_off", "time": 998, "note": 72, "velocity": 109, "channel": 0}, {"type": "note_on", "time": 19, "note": 70, "velocity": 110, "channel": 0}, {"type": "note_off", "time": 1113, "note": 70, "velocity": 110, "channel": 0}, {"type": "note_on", "time": 211, "note": 67, "velocity": 115, "channel": 0}, {"type": "note_off", "time": 1708, "note": 67, "velocity": 115, "channel": 0}, {"type": "note_on", "time": 57, "note": 62, "velocity": 123, "channel": 0}, {"type": "note_off", "time": 825, "note": 62, "velocity": 123, "channel": 0}, {"type": "note_on", "time": 3129, "note": 55, "velocity": 112, "channel": 0}, {"type": "note_off", "time": 364, "note": 55, "velocity": 112, "channel": 0}, {"type": "note_on", "time": 134, "note": 58, "velocity": 108, "channel": 0}, {"type": "note_off", "time": 384, "note": 58, "velocity": 108, "channel": 0}, {"type": "note_on", "time": 192, "note": 60, "velocity": 115, "channel": 0}, {"type": "note_off", "time": 556, "note": 60, "velocity": 115, "channel": 0}, {"type": "note_on", "time": 211, "note": 62, "velocity": 126, "channel": 0}, {"type": "note_off", "time": 710, "note": 62, "velocity": 126, "channel": 0}, {"type": "note_on", "time": 364, "note": 62, "velocity": 126, "channel": 0}, {"type": "note_off", "time": 576, "note": 62, "velocity": 126, "channel": 0}, {"type": "note_on", "time": 268, "note": 67, "velocity": 121, "channel": 0}, {"type": "note_off", "time": 652, "note": 67, "velocity": 121, "channel": 0}, {"type": "note_on", "time": 633, "note": 72, "velocity": 108, "channel": 0}, {"type": "note_off", "time": 556, "note": 72, "velocity": 108, "channel": 0}, {"type": "note_on", "time": 441, "note": 67, "velocity": 118, "channel": 0}, {"type": "note_off", "time": 576, "note": 67, "velocity": 118, "channel": 0}, {"type": "note_on", "time": 211, "note": 72, "velocity": 109, "channel": 0}, {"type": "note_off", "time": 1017, "note": 72, "velocity": 109, "channel": 0}, {"type": "note_on", "time": 153, "note": 70, "velocity": 111, "channel": 0}, {"type": "note_off", "time": 1132, "note": 70, "velocity": 111, "channel": 0}, {"type": "note_on", "time": 249, "note": 67, "velocity": 117, "channel": 0}, {"type": "note_off", "time": 1958, "note": 67, "velocity": 117, "channel": 0}, {"type": "note_on", "time": 2265, "note": 67, "velocity": 112, "channel": 0}, {"type": "note_off", "time": 537, "note": 67, "velocity": 112, "channel": 0}, {"type": "note_on", "time": 249, "note": 74, "velocity": 105, "channel": 0}, {"type": "note_off", "time": 864, "note": 74, "velocity": 105, "channel": 0}, {"type": "note_on", "time": 57, "note": 72, "velocity": 100, "channel": 0}, {"type": "note_off", "time": 518, "note": 72, "velocity": 100, "channel": 0}, {"type": "note_on", "time": 57, "note": 70, "velocity": 112, "channel": 0}, {"type": "note_off", "time": 633, "note": 70, "velocity": 112, "channel": 0}, {"type": "note_on", "time": 460, "note": 72, "velocity": 103, "channel": 0}, {"type": "note_off", "time": 1286, "note": 72, "velocity": 103, "channel": 0}, {"type": "note_on", "time": 1651, "note": 67, "velocity": 114, "channel": 0}, {"type": "note_off", "time": 499, "note": 67, "velocity": 114, "channel": 0}, {"type": "note_on", "time": 384, "note": 67, "velocity": 119, "channel": 0}, {"type": "note_off", "time": 537, "note": 67, "velocity": 119, "channel": 0}, {"type": "note_on", "time": 384, "note": 72, "velocity": 106, "channel": 0}, {"type": "note_off", "time": 1344, "note": 72, "velocity": 106, "channel": 0}, {"type": "note_on", "time": 556, "note": 70, "velocity": 105, "channel": 0}, {"type": "note_off", "time": 691, "note": 70, "velocity": 105, "channel": 0}, {"type": "note_on", "time": 403, "note": 67, "velocity": 112, "channel": 0}, {"type": "note_off", "time": 1363, "note": 67, "velocity": 112, "channel": 0}, {"type": "note_on", "time": 115, "note": 62, "velocity": 120, "channel": 0}, {"type": "note_off", "time": 1900, "note": 62, "velocity": 120, "channel": 0}, {"type": "note_on", "time": 1612, "note": 62, "velocity": 126, "channel": 0}, {"type": "note_off", "time": 556, "note": 62, "velocity": 126, "channel": 0}, {"type": "note_on", "time": 134, "note": 69, "velocity": 110, "channel": 0}, {"type": "note_off", "time": 576, "note": 69, "velocity": 110, "channel": 0}, {"type": "note_on", "time": 95, "note": 65, "velocity": 113, "channel": 0}, {"type": "note_off", "time": 499, "note": 65, "velocity": 113, "channel": 0}, {"type": "note_on", "time": 211, "note": 67, "velocity": 119, "channel": 0}, {"type": "note_off", "time": 537, "note": 67, "velocity": 119, "channel": 0}, {"type": "note_on", "time": 537, "note": 67, "velocity": 117, "channel": 0}, {"type": "note_off", "time": 633, "note": 67, "velocity": 117, "channel": 0}, {"type": "note_on", "time": 153, "note": 65, "velocity": 117, "channel": 0}, {"type": "note_off", "time": 556, "note": 65, "velocity": 117, "channel": 0}, {"type": "note_on", "time": 384, "note": 65, "velocity": 117, "channel": 0}, {"type": "note_off", "time": 710, "note": 65, "velocity": 117, "channel": 0}, {"type": "note_on", "time": 192, "note": 62, "velocity": 124, "channel": 0}, {"type": "note_off", "time": 691, "note": 62, "velocity": 124, "channel": 0}, {"type": "note_on", "time": 499, "note": 62, "velocity": 124, "channel": 0}, {"type": "note_off", "time": 614, "note": 62, "velocity": 124, "channel": 0}, {"type": "note_on", "time": 134, "note": 60, "velocity": 114, "channel": 0}, {"type": "note_off", "time": 652, "note": 60, "velocity": 114, "channel": 0}, {"type": "note_on", "time": 326, "note": 60, "velocity": 105, "channel": 0}, {"type": "note_off", "time": 576, "note": 60, "velocity": 105, "channel": 0}, {"type": "note_on", "time": 345, "note": 58, "velocity": 105, "channel": 0}, {"type": "note_off", "time": 576, "note": 58, "velocity": 105, "channel": 0}, {"type": "note_on", "time": 384, "note": 58, "velocity": 102, "channel": 0}, {"type": "note_off", "time": 614, "note": 58, "velocity": 102, "channel": 0}, {"type": "note_on", "time": 172, "note": 55, "velocity": 109, "channel": 0}, {"type": "note_off", "time": 1497, "note": 55, "velocity": 109, "channel": 0}, {"type": "end_of_track", "time": 0}]]}