{"ticks_per_beat": -10096, "tracks": [[{"type": "track_name", "name": "Melody", "time": 0}, {"type": "set_tempo", "tempo": 1153846, "time": 0}, {"type": "key_signature", "key": "F", "time": 0}, {"type": "time_signature", "numerator": 4, "denominator": 4, "clocks_per_click": 24, "notated_32nd_notes_per_beat": 8, "time": 0}, {"type": "note_on", "time": 485084, "note": 53, "velocity": 82, "channel": 0}, {"type": "note_off", "time": 6694, "note": 53, "velocity": 82, "channel": 0}, {"type": "note_on", "time": 1464, "note": 55, "velocity": 80, "channel": 0}, {"type": "note_off", "time": 9762, "note": 55, "velocity": 80, "channel": 0}, {"type": "note_on", "time": 1401, "note": 56, "velocity": 84, "channel": 0}, {"type": "note_off", "time": 2451, "note": 56, "velocity": 84, "channel": 0}, {"type": "note_on", "time": 441, "note": 57, "velocity": 84, "channel": 0}, {"type": "note_off", "time": 12453, "note": 57, "velocity": 84, "channel": 0}, {"type": "note_on", "time": 894, "note": 60, "velocity": 93, "channel": 0}, {"type": "note_off", "time": 11854, "note": 60, "velocity": 93, "channel": 0}, {"type": "note_on", "time": 697, "note": 62, "velocity": 90, "channel": 0}, {"type": "note_off", "time": 17850, "note": 62, "velocity": 90, "channel": 0}, {"type": "note_on", "time": 2231, "note": 65, "velocity": 78, "channel": 0}, {"type": "note_off", "time": 6415, "note": 65, "velocity": 78, "channel": 0}, {"type": "note_on", "time": 4183, "note": 68, "velocity": 92, "channel": 0}, {"type": "note_off", "time": 2649, "note": 68, "velocity": 92, "channel": 0}, {"type": "note_on", "time": 836, "note": 69, "velocity": 85, "channel": 0}, {"type": "note_off", "time": 13388, "note": 69, "velocity": 85, "channel": 0}, {"type": "note_on", "time": 697, "note": 72, "velocity": 85, "channel": 0}, {"type": "note_off", "time": 10459, "note": 72, "velocity": 85, "channel": 0}, {"type": "note_on", "time": 278, "note": 71, "velocity": 92, "channel": 0}, {"type": "note_off", "time": 45882, "note": 71, "velocity": 92, "channel": 0}, {"type": "note_on", "time": 3207, "note": 67, "velocity": 88, "channel": 0}, {"type": "note_off", "time": 8367, "note": 67, "velocity": 88, "channel": 0}, {"type": "note_on", "time": 418, "note": 71, "velocity": 96, "channel": 0}, {"type": "note_off", "time": 5857, "note": 71, "velocity": 96, "channel": 0}, {"type": "note_on", "time": 976, "note": 67, "velocity": 87, "channel": 0}, {"type": "note_off", "time": 7530, "note": 67, "velocity": 87, "channel": 0}, {"type": "note_on", "time": 31308, "note": 67, "velocity": 97, "channel": 0}, {"type": "note_off", "time": 9831, "note": 67, "velocity": 97, "channel": 0}, {"type": "note_on", "time": 627, "note": 69, "velocity": 103, "channel": 0}, {"type": "note_off", "time": 4044, "note": 69, "velocity": 103, "channel": 0}, {"type": "note_on", "time": 1673, "note": 71, "velocity": 111, "channel": 0}, {"type": "note_off", "time": 12830, "note": 71, "velocity": 111, "channel": 0}, {"type": "note_on", "time": 836, "note": 67, "velocity": 91, "channel": 0}, {"type": "note_off", "time": 6972, "note": 67, "velocity": 91, "channel": 0}, {"type": "note_on", "time": 1185, "note": 69, "velocity": 89, "channel": 0}, {"type": "note_off", "time": 2719, "note": 69, "velocity": 89, "channel": 0}, {"type": "note_on", "time": 139, "note": 71, "velocity": 104, "channel": 0}, {"type": "note_off", "time": 8507, "note": 71, "velocity": 104, "channel": 0}, {"type": "note_on", "time": 209, "note": 67, "velocity": 79, "channel": 0}, {"type": "note_off", "time": 6833, "note": 67, "velocity": 79, "channel": 0}, {"type": "note_on", "time": 1185, "note": 69, "velocity": 105, "channel": 0}, {"type": "note_off", "time": 4253, "note": 69, "velocity": 105, "channel": 0}, {"type": "note_on", "time": 1115, "note": 71, "velocity": 99, "channel": 0}, {"type": "note_off", "time": 8367, "note": 71, "velocity": 99, "channel": 0}, {"type": "note_on", "time": 43790, "note": 67, "velocity": 101, "channel": 0}, {"type": "note_off", "time": 6833, "note": 67, "velocity": 101, "channel": 0}, {"type": "note_on", "time": 2858, "note": 69, "velocity": 107, "channel": 0}, {"type": "note_off", "time": 2579, "note": 69, "velocity": 107, "channel": 0}, {"type": "note_on", "time": 1394, "note": 71, "velocity": 111, "channel": 0}, {"type": "note_off", "time": 14643, "note": 71, "velocity": 111, "channel": 0}, {"type": "note_on", "time": 418, "note": 67, "velocity": 85, "channel": 0}, {"type": "note_off", "time": 7112, "note": 67, "velocity": 85, "channel": 0}, {"type": "note_on", "time": 348, "note": 72, "velocity": 101, "channel": 0}, {"type": "note_off", "time": 19454, "note": 72, "velocity": 101, "channel": 0}, {"type": "note_on", "time": 1185, "note": 74, "velocity": 90, "channel": 0}, {"type": "note_off", "time": 8228, "note": 74, "velocity": 90, "channel": 0}, {"type": "note_on", "time": 278, "note": 69, "velocity": 107, "channel": 0}, {"type": "note_off", "time": 5090, "note": 69, "velocity": 107, "channel": 0}, {"type": "note_on", "time": 418, "note": 71, "velocity": 111, "channel": 0}, {"type": "note_off", "time": 3625, "note": 71, "velocity": 111, "channel": 0}, {"type": "note_on", "time": 976, "note": 67, "velocity": 106, "channel": 0}, {"type": "note_off", "time": 6694, "note": 67, "velocity": 106, "channel": 0}, {"type": "note_on", "time": 38821, "note": 70, "velocity": 93, "channel": 0}, {"type": "note_off", "time": 5081, "note": 70, "velocity": 93, "channel": 0}, {"type": "note_on", "time": 165, "note": 72, "velocity": 101, "channel": 0}, {"type": "note_off", "time": 16456, "note": 72, "velocity": 101, "channel": 0}, {"type": "note_on", "time": 1115, "note": 68, "velocity": 90, "channel": 0}, {"type": "note_off", "time": 6763, "note": 68, "velocity": 90, "channel": 0}, {"type": "note_on", "time": 1115, "note": 73, "velocity": 94, "channel": 0}, {"type": "note_off", "time": 7739, "note": 73, "velocity": 94, "channel": 0}, {"type": "note_on", "time": 1603, "note": 75, "velocity": 90, "channel": 0}, {"type": "note_off", "time": 8925, "note": 75, "velocity": 90, "channel": 0}, {"type": "note_on", "time": 3416, "note": 72, "velocity": 100, "channel": 0}, {"type": "note_off", "time": 9762, "note": 72, "velocity": 100, "channel": 0}, {"type": "note_on", "time": 18371, "note": 68, "velocity": 94, "channel": 0}, {"type": "note_off", "time": 8785, "note": 68, "velocity": 94, "channel": 0}, {"type": "note_on", "time": 2477, "note": 65, "velocity": 88, "channel": 0}, {"type": "note_off", "time": 14155, "note": 65, "velocity": 88, "channel": 0}, {"type": "note_on", "time": 4183, "note": 65, "velocity": 82, "channel": 0}, {"type": "note_off", "time": 37863, "note": 65, "velocity": 82, "channel": 0}, {"type": "note_on", "time": 1952, "note": 62, "velocity": 88, "channel": 0}, {"type": "note_off", "time": 7670, "note": 62, "velocity": 88, "channel": 0}, {"type": "note_on", "time": 557, "note": 60, "velocity": 84, "channel": 0}, {"type": "note_off", "time": 5717, "note": 60, "velocity": 84, "channel": 0}, {"type": "note_on", "time": 3974, "note": 67, "velocity": 94, "channel": 0}, {"type": "note_off", "time": 2510, "note": 67, "velocity": 94, "channel": 0}, {"type": "note_on", "time": 976, "note": 69, "velocity": 89, "channel": 0}, {"type": "note_off", "time": 8158, "note": 69, "velocity": 89, "channel": 0}, {"type": "note_on", "time": 15758, "note": 60, "velocity": 89, "channel": 0}, {"type": "note_off", "time": 8646, "note": 60, "velocity": 89, "channel": 0}, {"type": "note_on", "time": 18548, "note": 60, "velocity": 93, "channel": 0}, {"type": "note_off", "time": 20709, "note": 60, "velocity": 93, "channel": 0}, {"type": "note_on", "time": 8267, "note": 62, "velocity": 88, "channel": 0}, {"type": "note_off", "time": 19807, "note": 62, "velocity": 88, "channel": 0}, {"type": "note_on", "time": 5883, "note": 65, "velocity": 89, "channel": 0}, {"type": "note_off", "time": 7670, "note": 65, "velocity": 89, "channel": 0}, {"type": "note_on", "time": 3974, "note": 68, "velocity": 81, "channel": 0}, {"type": "note_off", "time": 2928, "note": 68, "velocity": 81, "channel": 0}, {"type": "note_on", "time": 139, "note": 69, "velocity": 88, "channel": 0}, {"type": "note_off", "time": 12272, "note": 69, "velocity": 88, "channel": 0}, {"type": "note_on", "time": 32682, "note": 70, "velocity": 102, "channel": 0}, {"type": "note_off", "time": 11435, "note": 70, "velocity": 102, "channel": 0}, {"type": "note_on", "time": 2670, "note": 69, "velocity": 99, "channel": 0}, {"type": "note_off", "time": 11226, "note": 69, "velocity": 99, "channel": 0}, {"type": "note_on", "time": 5787, "note": 65, "velocity": 101, "channel": 0}, {"type": "note_off", "time": 6415, "note": 65, "velocity": 101, "channel": 0}, {"type": "note_on", "time": 5369, "note": 60, "velocity": 93, "channel": 0}, {"type": "note_off", "time": 13318, "note": 60, "velocity": 93, "channel": 0}, {"type": "note_on", "time": 4392, "note": 53, "velocity": 85, "channel": 0}, {"type": "note_off", "time": 8088, "note": 53, "velocity": 85, "channel": 0}, {"type": "note_on", "time": 1673, "note": 58, "velocity": 91, "channel": 0}, {"type": "note_off", "time": 28100, "note": 58, "velocity": 91, "channel": 0}, {"type": "note_on", "time": 1294, "note": 57, "velocity": 90, "channel": 0}, {"type": "note_off", "time": 17944, "note": 57, "velocity": 90, "channel": 0}, {"type": "note_on", "time": 913, "note": 55, "velocity": 83, "channel": 0}, {"type": "note_off", "time": 26965, "note": 55, "velocity": 83, "channel": 0}, {"type": "note_on", "time": 57407, "note": 57, "velocity": 100, "channel": 0}, {"type": "note_off", "time": 9622, "note": 57, "velocity": 100, "channel": 0}, {"type": "note_on", "time": 836, "note": 61, "velocity": 110, "channel": 0}, {"type": "note_off", "time": 8995, "note": 61, "velocity": 110, "channel": 0}, {"type": "note_on", "time": 418, "note": 64, "velocity": 117, "channel": 0}, {"type": "note_off", "time": 9064, "note": 64, "velocity": 117, "channel": 0}, {"type": "note_on", "time": 836, "note": 68, "velocity": 106, "channel": 0}, {"type": "note_off", "time": 8576, "note": 68, "velocity": 106, "channel": 0}, {"type": "note_on", "time": 557, "note": 69, "velocity": 100, "channel": 0}, {"type": "note_off", "time": 9552, "note": 69, "velocity": 100, "channel": 0}, {"type": "note_on", "time": 697, "note": 68, "velocity": 90, "channel": 0}, {"type": "note_off", "time": 8507, "note": 68, "velocity": 90, "channel": 0}, {"type": "note_on", "time": 767, "note": 69, "velocity": 98, "channel": 0}, {"type": "note_off", "time": 8855, "note": 69, "velocity": 98, "channel": 0}, {"type": "note_on", "time": 627, "note": 67, "velocity": 99, "channel": 0}, {"type": "note_off", "time": 9552, "note": 67, "velocity": 99, "channel": 0}, {"type": "note_on", "time": 418, "note": 66, "velocity": 87, "channel": 0}, {"type": "note_off", "time": 6972, "note": 66, "velocity": 87, "channel": 0}, {"type": "note_on", "time": 836, "note": 67, "velocity": 94, "channel": 0}, {"type": "note_off", "time": 9901, "note": 67, "velocity": 94, "channel": 0}, {"type": "note_on", "time": 488, "note": 65, "velocity": 96, "channel": 0}, {"type": "note_off", "time": 10529, "note": 65, "velocity": 96, "channel": 0}, {"type": "note_on", "time": 627, "note": 64, "velocity": 99, "channel": 0}, {"type": "note_off", "time": 8716, "note": 64, "velocity": 99, "channel": 0}, {"type": "note_on", "time": 139, "note": 65, "velocity": 93, "channel": 0}, {"type": "note_off", "time": 9134, "note": 65, "velocity": 93, "channel": 0}, {"type": "note_on", "time": 976, "note": 67, "velocity": 99, "channel": 0}, {"type": "note_off", "time": 9552, "note": 67, "velocity": 99, "channel": 0}, {"type": "note_on", "time": 488, "note": 66, "velocity": 80, "channel": 0}, {"type": "note_off", "time": 6833, "note": 66, "velocity": 80, "channel": 0}, {"type": "note_on", "time": 906, "note": 67, "velocity": 92, "channel": 0}, {"type": "note_off", "time": 17990, "note": 67, "velocity": 92, "channel": 0}, {"type": "note_on", "time": 2022, "note": 65, "velocity": 88, "channel": 0}, {"type": "note_off", "time": 16107, "note": 65, "velocity": 88, "channel": 0}, {"type": "note_on", "time": 1808, "note": 64, "velocity": 92, "channel": 0}, {"type": "note_off", "time": 16525, "note": 64, "velocity": 92, "channel": 0}, {"type": "note_on", "time": 2444, "note": 63, "velocity": 99, "channel": 0}, {"type": "note_off", "time": 17362, "note": 63, "velocity": 99, "channel": 0}, {"type": "note_on", "time": 836, "note": 64, "velocity": 95, "channel": 0}, {"type": "note_off", "time": 24405, "note": 64, "velocity": 95, "channel": 0}, {"type": "note_on", "time": 627, "note": 65, "velocity": 88, "channel": 0}, {"type": "note_off", "time": 7739, "note": 65, "velocity": 88, "channel": 0}, {"type": "note_on", "time": 767, "note": 64, "velocity": 87, "channel": 0}, {"type": "note_off", "time": 10738, "note": 64, "velocity": 87, "channel": 0}, {"type": "note_on", "time": 627, "note": 65, "velocity": 84, "channel": 0}, {"type": "note_off", "time": 12342, "note": 65, "velocity": 84, "channel": 0}, {"type": "note_on", "time": 697, "note": 64, "velocity": 96, "channel": 0}, {"type": "note_off", "time": 10180, "note": 64, "velocity": 96, "channel": 0}, {"type": "note_on", "time": 418, "note": 60, "velocity": 89, "channel": 0}, {"type": "note_off", "time": 6833, "note": 60, "velocity": 89, "channel": 0}, {"type": "note_on", "time": 767, "note": 57, "velocity": 84, "channel": 0}, {"type": "note_off", "time": 27543, "note": 57, "velocity": 84, "channel": 0}, {"type": "note_on", "time": 0, "note": 57, "velocity": 80, "channel": 0}, {"type": "note_off", "time": 1, "note": 57, "velocity": 80, "channel": 0}, {"type": "note_on", "time": 60175, "note": 69, "velocity": 103, "channel": 0}, {"type": "note_off", "time": 7600, "note": 69, "velocity": 103, "channel": 0}, {"type": "note_on", "time": 278, "note": 71, "velocity": 108, "channel": 0}, {"type": "note_off", "time": 6136, "note": 71, "velocity": 108, "channel": 0}, {"type": "note_on", "time": 767, "note": 74, "velocity": 97, "channel": 0}, {"type": "note_off", "time": 4741, "note": 74, "velocity": 97, "channel": 0}, {"type": "note_on", "time": 488, "note": 71, "velocity": 98, "channel": 0}, {"type": "note_off", "time": 5927, "note": 71, "velocity": 98, "channel": 0}, {"type": "note_on", "time": 1812, "note": 65, "velocity": 94, "channel": 0}, {"type": "note_off", "time": 6624, "note": 65, "velocity": 94, "channel": 0}, {"type": "note_on", "time": 836, "note": 66, "velocity": 96, "channel": 0}, {"type": "note_off", "time": 6205, "note": 66, "velocity": 96, "channel": 0}, {"type": "note_on", "time": 1115, "note": 71, "velocity": 97, "channel": 0}, {"type": "note_off", "time": 7321, "note": 71, "velocity": 97, "channel": 0}, {"type": "note_on", "time": 2649, "note": 68, "velocity": 103, "channel": 0}, {"type": "note_off", "time": 6624, "note": 68, "velocity": 103, "channel": 0}, {"type": "note_on", "time": 3904, "note": 69, "velocity": 97, "channel": 0}, {"type": "note_off", "time": 6554, "note": 69, "velocity": 97, "channel": 0}, {"type": "note_on", "time": 418, "note": 72, "velocity": 87, "channel": 0}, {"type": "note_off", "time": 6136, "note": 72, "velocity": 87, "channel": 0}, {"type": "note_on", "time": 627, "note": 75, "velocity": 81, "channel": 0}, {"type": "note_off", "time": 5927, "note": 75, "velocity": 81, "channel": 0}, {"type": "note_on", "time": 3279, "note": 79, "velocity": 92, "channel": 0}, {"type": "note_off", "time": 6520, "note": 79, "velocity": 92, "channel": 0}, {"type": "note_on", "time": 1216, "note": 78, "velocity": 94, "channel": 0}, {"type": "note_off", "time": 6136, "note": 78, "velocity": 94, "channel": 0}, {"type": "note_on", "time": 836, "note": 77, "velocity": 88, "channel": 0}, {"type": "note_off", "time": 5578, "note": 77, "velocity": 88, "channel": 0}, {"type": "note_on", "time": 906, "note": 76, "velocity": 92, "channel": 0}, {"type": "note_off", "time": 6415, "note": 76, "velocity": 92, "channel": 0}, {"type": "note_on", "time": 278, "note": 75, "velocity": 94, "channel": 0}, {"type": "note_off", "time": 5927, "note": 75, "velocity": 94, "channel": 0}, {"type": "note_on", "time": 1045, "note": 71, "velocity": 86, "channel": 0}, {"type": "note_off", "time": 2579, "note": 71, "velocity": 86, "channel": 0}, {"type": "note_on", "time": 767, "note": 70, "velocity": 88, "channel": 0}, {"type": "note_off", "time": 2161, "note": 70, "velocity": 88, "channel": 0}, {"type": "note_on", "time": 767, "note": 66, "velocity": 99, "channel": 0}, {"type": "note_off", "time": 6275, "note": 66, "velocity": 99, "channel": 0}, {"type": "note_on", "time": 557, "note": 63, "velocity": 99, "channel": 0}, {"type": "note_off", "time": 6484, "note": 63, "velocity": 99, "channel": 0}, {"type": "note_on", "time": 557, "note": 61, "velocity": 96, "channel": 0}, {"type": "note_off", "time": 6275, "note": 61, "velocity": 96, "channel": 0}, {"type": "note_on", "time": 557, "note": 62, "velocity": 88, "channel": 0}, {"type": "note_off", "time": 4741, "note": 62, "velocity": 88, "channel": 0}, {"type": "note_on", "time": 0, "note": 65, "velocity": 87, "channel": 0}, {"type": "note_off", "time": 5857, "note": 65, "velocity": 87, "channel": 0}, {"type": "note_on", "time": 278, "note": 69, "velocity": 92, "channel": 0}, {"type": "note_off", "time": 7600, "note": 69, "velocity": 92, "channel": 0}, {"type": "note_on", "time": 976, "note": 70, "velocity": 85, "channel": 0}, {"type": "note_off", "time": 4183, "note": 70, "velocity": 85, "channel": 0}, {"type": "note_on", "time": 209, "note": 72, "velocity": 92, "channel": 0}, {"type": "note_off", "time": 13597, "note": 72, "velocity": 92, "channel": 0}, {"type": "note_on", "time": 627, "note": 76, "velocity": 89, "channel": 0}, {"type": "note_off", "time": 9483, "note": 76, "velocity": 89, "channel": 0}, {"type": "note_on", "time": 767, "note": 79, "velocity": 92, "channel": 0}, {"type": "note_off", "time": 29216, "note": 79, "velocity": 92, "channel": 0}, {"type": "note_on", "time": 16665, "note": 84, "velocity": 89, "channel": 0}, {"type": "note_off", "time": 11435, "note": 84, "velocity": 89, "channel": 0}, {"type": "note_on", "time": 2370, "note": 81, "velocity": 88, "channel": 0}, {"type": "note_off", "time": 45812, "note": 81, "velocity": 88, "channel": 0}, {"type": "note_on", "time": 46091, "note": 86, "velocity": 84, "channel": 0}, {"type": "note_off", "time": 6694, "note": 86, "velocity": 84, "channel": 0}, {"type": "note_on", "time": 627, "note": 84, "velocity": 92, "channel": 0}, {"type": "note_off", "time": 7042, "note": 84, "velocity": 92, "channel": 0}, {"type": "note_on", "time": 697, "note": 83, "velocity": 71, "channel": 0}, {"type": "note_off", "time": 2719, "note": 83, "velocity": 71, "channel": 0}, {"type": "note_on", "time": 348, "note": 82, "velocity": 95, "channel": 0}, {"type": "note_off", "time": 4044, "note": 82, "velocity": 95, "channel": 0}, {"type": "note_on", "time": 627, "note": 81, "velocity": 87, "channel": 0}, {"type": "note_off", "time": 5508, "note": 81, "velocity": 87, "channel": 0}, {"type": "note_on", "time": 418, "note": 79, "velocity": 95, "channel": 0}, {"type": "note_off", "time": 6972, "note": 79, "velocity": 95, "channel": 0}, {"type": "note_on", "time": 557, "note": 77, "velocity": 80, "channel": 0}, {"type": "note_off", "time": 7321, "note": 77, "velocity": 80, "channel": 0}, {"type": "note_on", "time": 557, "note": 76, "velocity": 91, "channel": 0}, {"type": "note_off", "time": 6903, "note": 76, "velocity": 91, "channel": 0}, {"type": "note_on", "time": 627, "note": 74, "velocity": 88, "channel": 0}, {"type": "note_off", "time": 5717, "note": 74, "velocity": 88, "channel": 0}, {"type": "note_on", "time": 697, "note": 76, "velocity": 91, "channel": 0}, {"type": "note_off", "time": 7670, "note": 76, "velocity": 91, "channel": 0}, {"type": "note_on", "time": 278, "note": 77, "velocity": 85, "channel": 0}, {"type": "note_off", "time": 4114, "note": 77, "velocity": 85, "channel": 0}, {"type": "note_on", "time": 906, "note": 79, "velocity": 93, "channel": 0}, {"type": "note_off", "time": 6763, "note": 79, "velocity": 93, "channel": 0}, {"type": "note_on", "time": 3137, "note": 74, "velocity": 98, "channel": 0}, {"type": "note_off", "time": 4811, "note": 74, "velocity": 98, "channel": 0}, {"type": "note_on", "time": 557, "note": 75, "velocity": 100, "channel": 0}, {"type": "note_off", "time": 3835, "note": 75, "velocity": 100, "channel": 0}, {"type": "note_on", "time": 697, "note": 76, "velocity": 94, "channel": 0}, {"type": "note_off", "time": 2998, "note": 76, "velocity": 94, "channel": 0}, {"type": "note_on", "time": 0, "note": 72, "velocity": 93, "channel": 0}, {"type": "note_off", "time": 7251, "note": 72, "velocity": 93, "channel": 0}, {"type": "note_on", "time": 488, "note": 69, "velocity": 84, "channel": 0}, {"type": "note_off", "time": 5020, "note": 69, "velocity": 84, "channel": 0}, {"type": "note_on", "time": 488, "note": 70, "velocity": 95, "channel": 0}, {"type": "note_off", "time": 6694, "note": 70, "velocity": 95, "channel": 0}, {"type": "note_on", "time": 488, "note": 72, "velocity": 99, "channel": 0}, {"type": "note_off", "time": 8158, "note": 72, "velocity": 99, "channel": 0}, {"type": "note_on", "time": 418, "note": 73, "velocity": 85, "channel": 0}, {"type": "note_off", "time": 4671, "note": 73, "velocity": 85, "channel": 0}, {"type": "note_on", "time": 557, "note": 75, "velocity": 95, "channel": 0}, {"type": "note_off", "time": 5578, "note": 75, "velocity": 95, "channel": 0}, {"type": "note_on", "time": 209, "note": 76, "velocity": 92, "channel": 0}, {"type": "note_off", "time": 6694, "note": 76, "velocity": 92, "channel": 0}, {"type": "note_on", "time": 348, "note": 78, "velocity": 91, "channel": 0}, {"type": "note_off", "time": 5927, "note": 78, "velocity": 91, "channel": 0}, {"type": "note_on", "time": 627, "note": 79, "velocity": 96, "channel": 0}, {"type": "note_off", "time": 7042, "note": 79, "velocity": 96, "channel": 0}, {"type": "note_on", "time": 836, "note": 81, "velocity": 87, "channel": 0}, {"type": "note_off", "time": 5717, "note": 81, "velocity": 87, "channel": 0}, {"type": "note_on", "time": 418, "note": 78, "velocity": 92, "channel": 0}, {"type": "note_off", "time": 5020, "note": 78, "velocity": 92, "channel": 0}, {"type": "note_on", "time": 906, "note": 79, "velocity": 93, "channel": 0}, {"type": "note_off", "time": 7112, "note": 79, "velocity": 93, "channel": 0}, {"type": "note_on", "time": 2231, "note": 84, "velocity": 84, "channel": 0}, {"type": "note_off", "time": 6763, "note": 84, "velocity": 84, "channel": 0}, {"type": "note_on", "time": 1882, "note": 61, "velocity": 82, "channel": 0}, {"type": "note_off", "time": 7042, "note": 61, "velocity": 82, "channel": 0}, {"type": "note_on", "time": 5578, "note": 79, "velocity": 84, "channel": 0}, {"type": "note_off", "time": 6833, "note": 79, "velocity": 84, "channel": 0}, {"type": "note_on", "time": 1743, "note": 77, "velocity": 72, "channel": 0}, {"type": "note_off", "time": 4323, "note": 77, "velocity": 72, "channel": 0}, {"type": "note_on", "time": 557, "note": 79, "velocity": 93, "channel": 0}, {"type": "note_off", "time": 7949, "note": 79, "velocity": 93, "channel": 0}, {"type": "note_on", "time": 348, "note": 81, "velocity": 93, "channel": 0}, {"type": "note_off", "time": 9413, "note": 81, "velocity": 93, "channel": 0}, {"type": "note_on", "time": 3556, "note": 77, "velocity": 80, "channel": 0}, {"type": "note_off", "time": 5787, "note": 77, "velocity": 80, "channel": 0}, {"type": "note_on", "time": 418, "note": 76, "velocity": 85, "channel": 0}, {"type": "note_off", "time": 5857, "note": 76, "velocity": 85, "channel": 0}, {"type": "note_on", "time": 767, "note": 79, "velocity": 100, "channel": 0}, {"type": "note_off", "time": 9762, "note": 79, "velocity": 100, "channel": 0}, {"type": "note_on", "time": 6415, "note": 76, "velocity": 83, "channel": 0}, {"type": "note_off", "time": 5159, "note": 76, "velocity": 83, "channel": 0}, {"type": "note_on", "time": 348, "note": 74, "velocity": 85, "channel": 0}, {"type": "note_off", "time": 6554, "note": 74, "velocity": 85, "channel": 0}, {"type": "note_on", "time": 906, "note": 76, "velocity": 93, "channel": 0}, {"type": "note_off", "time": 5857, "note": 76, "velocity": 93, "channel": 0}, {"type": "note_on", "time": 906, "note": 77, "velocity": 87, "channel": 0}, {"type": "note_off", "time": 7739, "note": 77, "velocity": 87, "channel": 0}, {"type": "note_on", "time": 209, "note": 74, "velocity": 84, "channel": 0}, {"type": "note_off", "time": 8228, "note": 74, "velocity": 84, "channel": 0}, {"type": "note_on", "time": 5648, "note": 76, "velocity": 93, "channel": 0}, {"type": "note_off", "time": 8925, "note": 76, "velocity": 93, "channel": 0}, {"type": "note_on", "time": 30471, "note": 73, "velocity": 88, "channel": 0}, {"type": "note_off", "time": 7739, "note": 73, "velocity": 88, "channel": 0}, {"type": "note_on", "time": 139, "note": 70, "velocity": 90, "channel": 0}, {"type": "note_off", "time": 5229, "note": 70, "velocity": 90, "channel": 0}, {"type": "note_on", "time": 836, "note": 74, "velocity": 96, "channel": 0}, {"type": "note_off", "time": 2858, "note": 74, "velocity": 96, "channel": 0}, {"type": "note_on", "time": 278, "note": 75, "velocity": 98, "channel": 0}, {"type": "note_off", "time": 10041, "note": 75, "velocity": 98, "channel": 0}, {"type": "note_on", "time": 697, "note": 71, "velocity": 95, "channel": 0}, {"type": "note_off", "time": 6763, "note": 71, "velocity": 95, "channel": 0}, {"type": "note_on", "time": 836, "note": 68, "velocity": 80, "channel": 0}, {"type": "note_off", "time": 5717, "note": 68, "velocity": 80, "channel": 0}, {"type": "note_on", "time": 488, "note": 73, "velocity": 84, "channel": 0}, {"type": "note_off", "time": 7112, "note": 73, "velocity": 84, "channel": 0}, {"type": "note_on", "time": 418, "note": 69, "velocity": 86, "channel": 0}, {"type": "note_off", "time": 5927, "note": 69, "velocity": 86, "channel": 0}, {"type": "note_on", "time": 139, "note": 66, "velocity": 88, "channel": 0}, {"type": "note_off", "time": 7321, "note": 66, "velocity": 88, "channel": 0}, {"type": "note_on", "time": 209, "note": 69, "velocity": 93, "channel": 0}, {"type": "note_off", "time": 2789, "note": 69, "velocity": 93, "channel": 0}, {"type": "note_on", "time": 278, "note": 71, "velocity": 92, "channel": 0}, {"type": "note_off", "time": 5717, "note": 71, "velocity": 92, "channel": 0}, {"type": "note_on", "time": 1603, "note": 68, "velocity": 91, "channel": 0}, {"type": "note_off", "time": 5508, "note": 68, "velocity": 91, "channel": 0}, {"type": "note_on", "time": 767, "note": 64, "velocity": 90, "channel": 0}, {"type": "note_off", "time": 5438, "note": 64, "velocity": 90, "channel": 0}, {"type": "note_on", "time": 1185, "note": 70, "velocity": 91, "channel": 0}, {"type": "note_off", "time": 5857, "note": 70, "velocity": 91, "channel": 0}, {"type": "note_on", "time": 1952, "note": 66, "velocity": 85, "channel": 0}, {"type": "note_off", "time": 8228, "note": 66, "velocity": 85, "channel": 0}, {"type": "note_on", "time": 1324, "note": 61, "velocity": 81, "channel": 0}, {"type": "note_off", "time": 2858, "note": 61, "velocity": 81, "channel": 0}, {"type": "note_on", "time": 1115, "note": 68, "velocity": 90, "channel": 0}, {"type": "note_off", "time": 7530, "note": 68, "velocity": 90, "channel": 0}, {"type": "note_on", "time": 2370, "note": 64, "velocity": 72, "channel": 0}, {"type": "note_off", "time": 3347, "note": 64, "velocity": 72, "channel": 0}, {"type": "note_on", "time": 278, "note": 66, "velocity": 84, "channel": 0}, {"type": "note_off", "time": 5369, "note": 66, "velocity": 84, "channel": 0}, {"type": "note_on", "time": 906, "note": 71, "velocity": 85, "channel": 0}, {"type": "note_off", "time": 7600, "note": 71, "velocity": 85, "channel": 0}, {"type": "note_on", "time": 906, "note": 68, "velocity": 77, "channel": 0}, {"type": "note_off", "time": 7391, "note": 68, "velocity": 77, "channel": 0}, {"type": "note_on", "time": 697, "note": 69, "velocity": 72, "channel": 0}, {"type": "note_off", "time": 2579, "note": 69, "velocity": 72, "channel": 0}, {"type": "note_on", "time": 418, "note": 72, "velocity": 81, "channel": 0}, {"type": "note_off", "time": 5927, "note": 72, "velocity": 81, "channel": 0}, {"type": "note_on", "time": 418, "note": 76, "velocity": 74, "channel": 0}, {"type": "note_off", "time": 6833, "note": 76, "velocity": 74, "channel": 0}, {"type": "note_on", "time": 1185, "note": 80, "velocity": 84, "channel": 0}, {"type": "note_off", "time": 13178, "note": 80, "velocity": 84, "channel": 0}, {"type": "note_on", "time": 1743, "note": 78, "velocity": 78, "channel": 0}, {"type": "note_off", "time": 7321, "note": 78, "velocity": 78, "channel": 0}, {"type": "note_on", "time": 767, "note": 75, "velocity": 82, "channel": 0}, {"type": "note_off", "time": 5578, "note": 75, "velocity": 82, "channel": 0}, {"type": "note_on", "time": 418, "note": 71, "velocity": 84, "channel": 0}, {"type": "note_off", "time": 5229, "note": 71, "velocity": 84, "channel": 0}, {"type": "note_on", "time": 976, "note": 66, "velocity": 81, "channel": 0}, {"type": "note_off", "time": 4741, "note": 66, "velocity": 81, "channel": 0}, {"type": "note_on", "time": 1882, "note": 68, "velocity": 92, "channel": 0}, {"type": "note_off", "time": 5927, "note": 68, "velocity": 92, "channel": 0}, {"type": "note_on", "time": 836, "note": 73, "velocity": 84, "channel": 0}, {"type": "note_off", "time": 4741, "note": 73, "velocity": 84, "channel": 0}, {"type": "note_on", "time": 1882, "note": 63, "velocity": 87, "channel": 0}, {"type": "note_off", "time": 7321, "note": 63, "velocity": 87, "channel": 0}, {"type": "note_on", "time": 976, "note": 66, "velocity": 90, "channel": 0}, {"type": "note_off", "time": 8228, "note": 66, "velocity": 90, "channel": 0}, {"type": "note_on", "time": 5090, "note": 59, "velocity": 81, "channel": 0}, {"type": "note_off", "time": 7739, "note": 59, "velocity": 81, "channel": 0}, {"type": "note_on", "time": 4323, "note": 63, "velocity": 90, "channel": 0}, {"type": "note_off", "time": 11365, "note": 63, "velocity": 90, "channel": 0}, {"type": "note_on", "time": 767, "note": 60, "velocity": 90, "channel": 0}, {"type": "note_off", "time": 6136, "note": 60, "velocity": 90, "channel": 0}, {"type": "note_on", "time": 209, "note": 56, "velocity": 93, "channel": 0}, {"type": "note_off", "time": 7112, "note": 56, "velocity": 93, "channel": 0}, {"type": "note_on", "time": 1185, "note": 51, "velocity": 84, "channel": 0}, {"type": "note_off", "time": 3835, "note": 51, "velocity": 84, "channel": 0}, {"type": "note_on", "time": 836, "note": 58, "velocity": 84, "channel": 0}, {"type": "note_off", "time": 13527, "note": 58, "velocity": 84, "channel": 0}, {"type": "note_on", "time": 1045, "note": 60, "velocity": 89, "channel": 0}, {"type": "note_off", "time": 7600, "note": 60, "velocity": 89, "channel": 0}, {"type": "note_on", "time": 20151, "note": 62, "velocity": 95, "channel": 0}, {"type": "note_off", "time": 7949, "note": 62, "velocity": 95, "channel": 0}, {"type": "note_on", "time": 19310, "note": 65, "velocity": 83, "channel": 0}, {"type": "note_off", "time": 15758, "note": 65, "velocity": 83, "channel": 0}, {"type": "note_on", "time": 1677, "note": 60, "velocity": 84, "channel": 0}, {"type": "note_off", "time": 26148, "note": 60, "velocity": 84, "channel": 0}, {"type": "note_on", "time": 2161, "note": 58, "velocity": 83, "channel": 0}, {"type": "note_off", "time": 5229, "note": 58, "velocity": 83, "channel": 0}, {"type": "note_on", "time": 1115, "note": 57, "velocity": 80, "channel": 0}, {"type": "note_off", "time": 9483, "note": 57, "velocity": 80, "channel": 0}, {"type": "note_on", "time": 23498, "note": 62, "velocity": 97, "channel": 0}, {"type": "note_off", "time": 9483, "note": 62, "velocity": 97, "channel": 0}, {"type": "note_on", "time": 1673, "note": 62, "velocity": 9, "channel": 0}, {"type": "note_off", "time": 10598, "note": 62, "velocity": 9, "channel": 0}, {"type": "note_on", "time": 906, "note": 62, "velocity": 107, "channel": 0}, {"type": "note_off", "time": 8716, "note": 62, "velocity": 107, "channel": 0}, {"type": "note_on", "time": 1743, "note": 62, "velocity": 102, "channel": 0}, {"type": "note_off", "time": 7879, "note": 62, "velocity": 102, "channel": 0}, {"type": "note_on", "time": 557, "note": 65, "velocity": 86, "channel": 0}, {"type": "note_off", "time": 6205, "note": 65, "velocity": 86, "channel": 0}, {"type": "note_on", "time": 4323, "note": 60, "velocity": 94, "channel": 0}, {"type": "note_off", "time": 16735, "note": 60, "velocity": 94, "channel": 0}, {"type": "note_on", "time": 1394, "note": 58, "velocity": 86, "channel": 0}, {"type": "note_off", "time": 6136, "note": 58, "velocity": 86, "channel": 0}, {"type": "note_on", "time": 1045, "note": 57, "velocity": 87, "channel": 0}, {"type": "note_off", "time": 5578, "note": 57, "velocity": 87, "channel": 0}, {"type": "note_on", "time": 28798, "note": 65, "velocity": 98, "channel": 0}, {"type": "note_off", "time": 3695, "note": 65, "velocity": 98, "channel": 0}, {"type": "note_on", "time": 906, "note": 67, "velocity": 98, "channel": 0}, {"type": "note_off", "time": 22522, "note": 67, "velocity": 98, "channel": 0}, {"type": "note_on", "time": 1743, "note": 64, "velocity": 103, "channel": 0}, {"type": "note_off", "time": 6136, "note": 64, "velocity": 103, "channel": 0}, {"type": "note_on", "time": 69, "note": 65, "velocity": 95, "channel": 0}, {"type": "note_off", "time": 5648, "note": 65, "velocity": 95, "channel": 0}, {"type": "note_on", "time": 2301, "note": 62, "velocity": 96, "channel": 0}, {"type": "note_off", "time": 4323, "note": 62, "velocity": 96, "channel": 0}, {"type": "note_on", "time": 906, "note": 65, "velocity": 85, "channel": 0}, {"type": "note_off", "time": 5717, "note": 65, "velocity": 85, "channel": 0}, {"type": "note_on", "time": 3974, "note": 60, "velocity": 93, "channel": 0}, {"type": "note_off", "time": 11296, "note": 60, "velocity": 93, "channel": 0}, {"type": "note_on", "time": 488, "note": 58, "velocity": 89, "channel": 0}, {"type": "note_off", "time": 5787, "note": 58, "velocity": 89, "channel": 0}, {"type": "note_on", "time": 1324, "note": 57, "velocity": 91, "channel": 0}, {"type": "note_off", "time": 5717, "note": 57, "velocity": 91, "channel": 0}, {"type": "note_on", "time": 1673, "note": 55, "velocity": 86, "channel": 0}, {"type": "note_off", "time": 7042, "note": 55, "velocity": 86, "channel": 0}, {"type": "note_on", "time": 21616, "note": 57, "velocity": 95, "channel": 0}, {"type": "note_off", "time": 10738, "note": 57, "velocity": 95, "channel": 0}, {"type": "note_on", "time": 488, "note": 58, "velocity": 88, "channel": 0}, {"type": "note_off", "time": 8018, "note": 58, "velocity": 88, "channel": 0}, {"type": "note_on", "time": 488, "note": 60, "velocity": 96, "channel": 0}, {"type": "note_off", "time": 8646, "note": 60, "velocity": 96, "channel": 0}, {"type": "note_on", "time": 767, "note": 61, "velocity": 104, "channel": 0}, {"type": "note_off", "time": 7879, "note": 61, "velocity": 104, "channel": 0}, {"type": "note_on", "time": 697, "note": 64, "velocity": 112, "channel": 0}, {"type": "note_off", "time": 9134, "note": 64, "velocity": 112, "channel": 0}, {"type": "note_on", "time": 836, "note": 67, "velocity": 97, "channel": 0}, {"type": "note_off", "time": 7251, "note": 67, "velocity": 97, "channel": 0}, {"type": "note_on", "time": 278, "note": 69, "velocity": 99, "channel": 0}, {"type": "note_off", "time": 8646, "note": 69, "velocity": 99, "channel": 0}, {"type": "note_on", "time": 1115, "note": 70, "velocity": 101, "channel": 0}, {"type": "note_off", "time": 12411, "note": 70, "velocity": 101, "channel": 0}, {"type": "note_on", "time": 1045, "note": 72, "velocity": 95, "channel": 0}, {"type": "note_off", "time": 9971, "note": 72, "velocity": 95, "channel": 0}, {"type": "note_on", "time": 557, "note": 73, "velocity": 94, "channel": 0}, {"type": "note_off", "time": 11575, "note": 73, "velocity": 94, "channel": 0}, {"type": "note_on", "time": 976, "note": 74, "velocity": 94, "channel": 0}, {"type": "note_off", "time": 13109, "note": 74, "velocity": 94, "channel": 0}, {"type": "note_on", "time": 697, "note": 69, "velocity": 99, "channel": 0}, {"type": "note_off", "time": 10529, "note": 69, "velocity": 99, "channel": 0}, {"type": "note_on", "time": 3556, "note": 69, "velocity": 95, "channel": 0}, {"type": "note_off", "time": 6136, "note": 69, "velocity": 95, "channel": 0}, {"type": "note_on", "time": 6136, "note": 69, "velocity": 92, "channel": 0}, {"type": "note_off", "time": 42535, "note": 69, "velocity": 92, "channel": 0}, {"type": "note_on", "time": 56899, "note": 69, "velocity": 93, "channel": 0}, {"type": "note_off", "time": 4253, "note": 69, "velocity": 93, "channel": 0}, {"type": "note_on", "time": 209, "note": 70, "velocity": 97, "channel": 0}, {"type": "note_off", "time": 3416, "note": 70, "velocity": 97, "channel": 0}, {"type": "note_on", "time": 767, "note": 71, "velocity": 93, "channel": 0}, {"type": "note_off", "time": 21964, "note": 71, "velocity": 93, "channel": 0}, {"type": "note_on", "time": 906, "note": 69, "velocity": 93, "channel": 0}, {"type": "note_off", "time": 4741, "note": 69, "velocity": 93, "channel": 0}, {"type": "note_on", "time": 139, "note": 67, "velocity": 91, "channel": 0}, {"type": "note_off", "time": 2370, "note": 67, "velocity": 91, "channel": 0}, {"type": "note_on", "time": 348, "note": 64, "velocity": 92, "channel": 0}, {"type": "note_off", "time": 5508, "note": 64, "velocity": 92, "channel": 0}, {"type": "note_on", "time": 0, "note": 60, "velocity": 92, "channel": 0}, {"type": "note_off", "time": 4114, "note": 60, "velocity": 92, "channel": 0}, {"type": "note_on", "time": 557, "note": 59, "velocity": 86, "channel": 0}, {"type": "note_off", "time": 6275, "note": 59, "velocity": 86, "channel": 0}, {"type": "note_on", "time": 1324, "note": 62, "velocity": 97, "channel": 0}, {"type": "note_off", "time": 6763, "note": 62, "velocity": 97, "channel": 0}, {"type": "note_on", "time": 418, "note": 57, "velocity": 91, "channel": 0}, {"type": "note_off", "time": 7461, "note": 57, "velocity": 91, "channel": 0}, {"type": "note_on", "time": 1464, "note": 52, "velocity": 82, "channel": 0}, {"type": "note_off", "time": 5508, "note": 52, "velocity": 82, "channel": 0}, {"type": "note_on", "time": 0, "note": 59, "velocity": 85, "channel": 0}, {"type": "note_off", "time": 2789, "note": 59, "velocity": 85, "channel": 0}, {"type": "note_on", "time": 139, "note": 60, "velocity": 87, "channel": 0}, {"type": "note_off", "time": 2928, "note": 60, "velocity": 87, "channel": 0}, {"type": "note_on", "time": 627, "note": 59, "velocity": 88, "channel": 0}, {"type": "note_off", "time": 3974, "note": 59, "velocity": 88, "channel": 0}, {"type": "note_on", "time": 488, "note": 56, "velocity": 90, "channel": 0}, {"type": "note_off", "time": 5229, "note": 56, "velocity": 90, "channel": 0}, {"type": "note_on", "time": 697, "note": 57, "velocity": 97, "channel": 0}, {"type": "note_off", "time": 5159, "note": 57, "velocity": 97, "channel": 0}, {"type": "note_on", "time": 1045, "note": 62, "velocity": 94, "channel": 0}, {"type": "note_off", "time": 5927, "note": 62, "velocity": 94, "channel": 0}, {"type": "note_on", "time": 1673, "note": 59, "velocity": 86, "channel": 0}, {"type": "note_off", "time": 3765, "note": 59, "velocity": 86, "channel": 0}, {"type": "note_on", "time": 1185, "note": 60, "velocity": 92, "channel": 0}, {"type": "note_off", "time": 5020, "note": 60, "velocity": 92, "channel": 0}, {"type": "note_on", "time": 2858, "note": 64, "velocity": 91, "channel": 0}, {"type": "note_off", "time": 1743, "note": 64, "velocity": 91, "channel": 0}, {"type": "note_on", "time": 0, "note": 67, "velocity": 82, "channel": 0}, {"type": "note_off", "time": 3347, "note": 67, "velocity": 82, "channel": 0}, {"type": "note_on", "time": 697, "note": 71, "velocity": 83, "channel": 0}, {"type": "note_off", "time": 3556, "note": 71, "velocity": 83, "channel": 0}, {"type": "note_on", "time": 278, "note": 74, "velocity": 89, "channel": 0}, {"type": "note_off", "time": 8228, "note": 74, "velocity": 89, "channel": 0}, {"type": "note_on", "time": 627, "note": 72, "velocity": 95, "channel": 0}, {"type": "note_off", "time": 4950, "note": 72, "velocity": 95, "channel": 0}, {"type": "note_on", "time": 0, "note": 67, "velocity": 83, "channel": 0}, {"type": "note_off", "time": 7739, "note": 67, "velocity": 83, "channel": 0}, {"type": "note_on", "time": 348, "note": 68, "velocity": 78, "channel": 0}, {"type": "note_off", "time": 5578, "note": 68, "velocity": 78, "channel": 0}, {"type": "note_on", "time": 348, "note": 71, "velocity": 88, "channel": 0}, {"type": "note_off", "time": 6066, "note": 71, "velocity": 88, "channel": 0}, {"type": "note_on", "time": 278, "note": 69, "velocity": 88, "channel": 0}, {"type": "note_off", "time": 6903, "note": 69, "velocity": 88, "channel": 0}, {"type": "note_on", "time": 209, "note": 63, "velocity": 86, "channel": 0}, {"type": "note_off", "time": 7949, "note": 63, "velocity": 86, "channel": 0}, {"type": "note_on", "time": 348, "note": 64, "velocity": 78, "channel": 0}, {"type": "note_off", "time": 3765, "note": 64, "velocity": 78, "channel": 0}, {"type": "note_on", "time": 139, "note": 67, "velocity": 88, "channel": 0}, {"type": "note_off", "time": 8297, "note": 67, "velocity": 88, "channel": 0}, {"type": "note_on", "time": 906, "note": 65, "velocity": 78, "channel": 0}, {"type": "note_off", "time": 4950, "note": 65, "velocity": 78, "channel": 0}, {"type": "note_on", "time": 488, "note": 66, "velocity": 94, "channel": 0}, {"type": "note_off", "time": 4950, "note": 66, "velocity": 94, "channel": 0}, {"type": "note_on", "time": 418, "note": 70, "velocity": 96, "channel": 0}, {"type": "note_off", "time": 6136, "note": 70, "velocity": 96, "channel": 0}, {"type": "note_on", "time": 1324, "note": 68, "velocity": 89, "channel": 0}, {"type": "note_off", "time": 5857, "note": 68, "velocity": 89, "channel": 0}, {"type": "note_on", "time": 697, "note": 69, "velocity": 85, "channel": 0}, {"type": "note_off", "time": 4044, "note": 69, "velocity": 85, "channel": 0}, {"type": "note_on", "time": 767, "note": 72, "velocity": 92, "channel": 0}, {"type": "note_off", "time": 4532, "note": 72, "velocity": 92, "channel": 0}, {"type": "note_on", "time": 836, "note": 75, "velocity": 81, "channel": 0}, {"type": "note_off", "time": 6833, "note": 75, "velocity": 81, "channel": 0}, {"type": "note_on", "time": 2579, "note": 80, "velocity": 64, "channel": 0}, {"type": "note_off", "time": 1882, "note": 80, "velocity": 64, "channel": 0}, {"type": "note_on", "time": 627, "note": 79, "velocity": 89, "channel": 0}, {"type": "note_off", "time": 5020, "note": 79, "velocity": 89, "channel": 0}, {"type": "note_on", "time": 278, "note": 78, "velocity": 90, "channel": 0}, {"type": "note_off", "time": 5787, "note": 78, "velocity": 90, "channel": 0}, {"type": "note_on", "time": 627, "note": 77, "velocity": 79, "channel": 0}, {"type": "note_off", "time": 6275, "note": 77, "velocity": 79, "channel": 0}, {"type": "note_on", "time": 418, "note": 76, "velocity": 90, "channel": 0}, {"type": "note_off", "time": 7739, "note": 76, "velocity": 90, "channel": 0}, {"type": "note_on", "time": 418, "note": 75, "velocity": 91, "channel": 0}, {"type": "note_off", "time": 3835, "note": 75, "velocity": 91, "channel": 0}, {"type": "note_on", "time": 488, "note": 71, "velocity": 80, "channel": 0}, {"type": "note_off", "time": 6624, "note": 71, "velocity": 80, "channel": 0}, {"type": "note_on", "time": 976, "note": 65, "velocity": 80, "channel": 0}, {"type": "note_off", "time": 4741, "note": 65, "velocity": 80, "channel": 0}, {"type": "note_on", "time": 906, "note": 66, "velocity": 84, "channel": 0}, {"type": "note_off", "time": 5927, "note": 66, "velocity": 84, "channel": 0}, {"type": "note_on", "time": 1952, "note": 70, "velocity": 92, "channel": 0}, {"type": "note_off", "time": 8437, "note": 70, "velocity": 92, "channel": 0}, {"type": "note_on", "time": 836, "note": 68, "velocity": 80, "channel": 0}, {"type": "note_off", "time": 3765, "note": 68, "velocity": 80, "channel": 0}, {"type": "note_on", "time": 1045, "note": 69, "velocity": 85, "channel": 0}, {"type": "note_off", "time": 6763, "note": 69, "velocity": 85, "channel": 0}, {"type": "note_on", "time": 627, "note": 72, "velocity": 84, "channel": 0}, {"type": "note_off", "time": 7321, "note": 72, "velocity": 84, "channel": 0}, {"type": "note_on", "time": 139, "note": 67, "velocity": 92, "channel": 0}, {"type": "note_off", "time": 14852, "note": 67, "velocity": 92, "channel": 0}, {"type": "note_on", "time": 27891, "note": 68, "velocity": 83, "channel": 0}, {"type": "note_off", "time": 6694, "note": 68, "velocity": 83, "channel": 0}, {"type": "note_on", "time": 3974, "note": 69, "velocity": 100, "channel": 0}, {"type": "note_off", "time": 15968, "note": 69, "velocity": 100, "channel": 0}, {"type": "note_on", "time": 792, "note": 60, "velocity": 80, "channel": 0}, {"type": "note_off", "time": 5540, "note": 60, "velocity": 80, "channel": 0}, {"type": "note_on", "time": 75251, "note": 60, "velocity": 84, "channel": 0}, {"type": "note_off", "time": 5857, "note": 60, "velocity": 84, "channel": 0}, {"type": "note_on", "time": 627, "note": 64, "velocity": 97, "channel": 0}, {"type": "note_off", "time": 9413, "note": 64, "velocity": 97, "channel": 0}, {"type": "note_on", "time": 348, "note": 67, "velocity": 94, "channel": 0}, {"type": "note_off", "time": 8297, "note": 67, "velocity": 94, "channel": 0}, {"type": "note_on", "time": 1673, "note": 60, "velocity": 72, "channel": 0}, {"type": "note_off", "time": 4950, "note": 60, "velocity": 72, "channel": 0}, {"type": "note_on", "time": 1882, "note": 64, "velocity": 88, "channel": 0}, {"type": "note_off", "time": 8228, "note": 64, "velocity": 88, "channel": 0}, {"type": "note_on", "time": 488, "note": 67, "velocity": 95, "channel": 0}, {"type": "note_off", "time": 8716, "note": 67, "velocity": 95, "channel": 0}, {"type": "note_on", "time": 627, "note": 60, "velocity": 85, "channel": 0}, {"type": "note_off", "time": 7879, "note": 60, "velocity": 85, "channel": 0}, {"type": "note_on", "time": 836, "note": 64, "velocity": 95, "channel": 0}, {"type": "note_off", "time": 8018, "note": 64, "velocity": 95, "channel": 0}, {"type": "note_on", "time": 2301, "note": 67, "velocity": 101, "channel": 0}, {"type": "note_off", "time": 8297, "note": 67, "velocity": 101, "channel": 0}, {"type": "note_on", "time": 1534, "note": 60, "velocity": 88, "channel": 0}, {"type": "note_off", "time": 6275, "note": 60, "velocity": 88, "channel": 0}, {"type": "note_on", "time": 1324, "note": 64, "velocity": 95, "channel": 0}, {"type": "note_off", "time": 6763, "note": 64, "velocity": 95, "channel": 0}, {"type": "note_on", "time": 906, "note": 67, "velocity": 95, "channel": 0}, {"type": "note_off", "time": 8785, "note": 67, "velocity": 95, "channel": 0}, {"type": "note_on", "time": 1115, "note": 64, "velocity": 93, "channel": 0}, {"type": "note_off", "time": 7251, "note": 64, "velocity": 93, "channel": 0}, {"type": "note_on", "time": 557, "note": 68, "velocity": 99, "channel": 0}, {"type": "note_off", "time": 8925, "note": 68, "velocity": 99, "channel": 0}, {"type": "note_on", "time": 209, "note": 61, "velocity": 81, "channel": 0}, {"type": "note_off", "time": 9064, "note": 61, "velocity": 81, "channel": 0}, {"type": "note_on", "time": 767, "note": 65, "velocity": 84, "channel": 0}, {"type": "note_off", "time": 6484, "note": 65, "velocity": 84, "channel": 0}, {"type": "note_on", "time": 1743, "note": 68, "velocity": 102, "channel": 0}, {"type": "note_off", "time": 8995, "note": 68, "velocity": 102, "channel": 0}, {"type": "note_on", "time": 976, "note": 61, "velocity": 90, "channel": 0}, {"type": "note_off", "time": 6972, "note": 61, "velocity": 90, "channel": 0}, {"type": "note_on", "time": 1185, "note": 65, "velocity": 87, "channel": 0}, {"type": "note_off", "time": 7461, "note": 65, "velocity": 87, "channel": 0}, {"type": "note_on", "time": 2022, "note": 68, "velocity": 98, "channel": 0}, {"type": "note_off", "time": 8158, "note": 68, "velocity": 98, "channel": 0}, {"type": "note_on", "time": 697, "note": 63, "velocity": 91, "channel": 0}, {"type": "note_off", "time": 7112, "note": 63, "velocity": 91, "channel": 0}, {"type": "note_on", "time": 976, "note": 66, "velocity": 95, "channel": 0}, {"type": "note_off", "time": 8995, "note": 66, "velocity": 95, "channel": 0}, {"type": "note_on", "time": 627, "note": 62, "velocity": 90, "channel": 0}, {"type": "note_off", "time": 8437, "note": 62, "velocity": 90, "channel": 0}, {"type": "note_on", "time": 1115, "note": 66, "velocity": 95, "channel": 0}, {"type": "note_off", "time": 7321, "note": 66, "velocity": 95, "channel": 0}, {"type": "note_on", "time": 836, "note": 69, "velocity": 92, "channel": 0}, {"type": "note_off", "time": 8855, "note": 69, "velocity": 92, "channel": 0}, {"type": "note_on", "time": 1045, "note": 65, "velocity": 84, "channel": 0}, {"type": "note_off", "time": 8437, "note": 65, "velocity": 84, "channel": 0}, {"type": "note_on", "time": 1603, "note": 68, "velocity": 98, "channel": 0}, {"type": "note_off", "time": 8716, "note": 68, "velocity": 98, "channel": 0}, {"type": "note_on", "time": 2022, "note": 72, "velocity": 98, "channel": 0}, {"type": "note_off", "time": 17711, "note": 72, "velocity": 98, "channel": 0}, {"type": "note_on", "time": 976, "note": 65, "velocity": 81, "channel": 0}, {"type": "note_off", "time": 7112, "note": 65, "velocity": 81, "channel": 0}, {"type": "note_on", "time": 1812, "note": 68, "velocity": 86, "channel": 0}, {"type": "note_off", "time": 7391, "note": 68, "velocity": 86, "channel": 0}, {"type": "note_on", "time": 767, "note": 72, "velocity": 94, "channel": 0}, {"type": "note_off", "time": 10738, "note": 72, "velocity": 94, "channel": 0}, {"type": "note_on", "time": 25311, "note": 70, "velocity": 99, "channel": 0}, {"type": "note_off", "time": 9622, "note": 70, "velocity": 99, "channel": 0}, {"type": "note_on", "time": 418, "note": 72, "velocity": 96, "channel": 0}, {"type": "note_off", "time": 7182, "note": 72, "velocity": 96, "channel": 0}, {"type": "note_on", "time": 14155, "note": 75, "velocity": 99, "channel": 0}, {"type": "note_off", "time": 8925, "note": 75, "velocity": 99, "channel": 0}, {"type": "note_on", "time": 19384, "note": 72, "velocity": 94, "channel": 0}, {"type": "note_off", "time": 4392, "note": 72, "velocity": 94, "channel": 0}, {"type": "note_on", "time": 976, "note": 75, "velocity": 86, "channel": 0}, {"type": "note_off", "time": 21616, "note": 75, "velocity": 86, "channel": 0}, {"type": "note_on", "time": 348, "note": 72, "velocity": 96, "channel": 0}, {"type": "note_off", "time": 25939, "note": 72, "velocity": 96, "channel": 0}, {"type": "note_on", "time": 1115, "note": 70, "velocity": 88, "channel": 0}, {"type": "note_off", "time": 18548, "note": 70, "velocity": 88, "channel": 0}, {"type": "note_on", "time": 627, "note": 65, "velocity": 82, "channel": 0}, {"type": "note_off", "time": 27752, "note": 65, "velocity": 82, "channel": 0}, {"type": "note_on", "time": 627, "note": 63, "velocity": 93, "channel": 0}, {"type": "note_off", "time": 24614, "note": 63, "velocity": 93, "channel": 0}, {"type": "note_on", "time": 66452, "note": 52, "velocity": 95, "channel": 0}, {"type": "note_off", "time": 10180, "note": 52, "velocity": 95, "channel": 0}, {"type": "note_on", "time": 906, "note": 53, "velocity": 88, "channel": 0}, {"type": "note_off", "time": 5857, "note": 53, "velocity": 88, "channel": 0}, {"type": "note_on", "time": 6066, "note": 56, "velocity": 99, "channel": 0}, {"type": "note_off", "time": 5229, "note": 56, "velocity": 99, "channel": 0}, {"type": "note_on", "time": 8228, "note": 55, "velocity": 95, "channel": 0}, {"type": "note_off", "time": 5090, "note": 55, "velocity": 95, "channel": 0}, {"type": "note_on", "time": 7112, "note": 53, "velocity": 87, "channel": 0}, {"type": "note_off", "time": 7809, "note": 53, "velocity": 87, "channel": 0}, {"type": "note_on", "time": 418, "note": 54, "velocity": 90, "channel": 0}, {"type": "note_off", "time": 5578, "note": 54, "velocity": 90, "channel": 0}, {"type": "note_on", "time": 1115, "note": 56, "velocity": 87, "channel": 0}, {"type": "note_off", "time": 6833, "note": 56, "velocity": 87, "channel": 0}, {"type": "note_on", "time": 2091, "note": 58, "velocity": 83, "channel": 0}, {"type": "note_off", "time": 4183, "note": 58, "velocity": 83, "channel": 0}, {"type": "note_on", "time": 2719, "note": 61, "velocity": 90, "channel": 0}, {"type": "note_off", "time": 3556, "note": 61, "velocity": 90, "channel": 0}, {"type": "note_on", "time": 3137, "note": 64, "velocity": 113, "channel": 0}, {"type": "note_off", "time": 8088, "note": 64, "velocity": 113, "channel": 0}, {"type": "note_on", "time": 348, "note": 65, "velocity": 89, "channel": 0}, {"type": "note_off", "time": 4532, "note": 65, "velocity": 89, "channel": 0}, {"type": "note_on", "time": 418, "note": 64, "velocity": 111, "channel": 0}, {"type": "note_off", "time": 7949, "note": 64, "velocity": 111, "channel": 0}, {"type": "note_on", "time": 1185, "note": 65, "velocity": 78, "channel": 0}, {"type": "note_off", "time": 5508, "note": 65, "velocity": 78, "channel": 0}, {"type": "note_on", "time": 557, "note": 68, "velocity": 91, "channel": 0}, {"type": "note_off", "time": 6415, "note": 68, "velocity": 91, "channel": 0}, {"type": "note_on", "time": 1115, "note": 64, "velocity": 100, "channel": 0}, {"type": "note_off", "time": 15270, "note": 64, "velocity": 100, "channel": 0}, {"type": "note_on", "time": 697, "note": 60, "velocity": 85, "channel": 0}, {"type": "note_off", "time": 4741, "note": 60, "velocity": 85, "channel": 0}, {"type": "note_on", "time": 906, "note": 63, "velocity": 101, "channel": 0}, {"type": "note_off", "time": 7251, "note": 63, "velocity": 101, "channel": 0}, {"type": "note_on", "time": 139, "note": 60, "velocity": 98, "channel": 0}, {"type": "note_off", "time": 5438, "note": 60, "velocity": 98, "channel": 0}, {"type": "note_on", "time": 906, "note": 58, "velocity": 88, "channel": 0}, {"type": "note_off", "time": 5438, "note": 58, "velocity": 88, "channel": 0}, {"type": "note_on", "time": 767, "note": 57, "velocity": 94, "channel": 0}, {"type": "note_off", "time": 4602, "note": 57, "velocity": 94, "channel": 0}, {"type": "note_on", "time": 1045, "note": 56, "velocity": 90, "channel": 0}, {"type": "note_off", "time": 5996, "note": 56, "velocity": 90, "channel": 0}, {"type": "note_on", "time": 1603, "note": 54, "velocity": 90, "channel": 0}, {"type": "note_off", "time": 6415, "note": 54, "velocity": 90, "channel": 0}, {"type": "note_on", "time": 1185, "note": 53, "velocity": 82, "channel": 0}, {"type": "note_off", "time": 5020, "note": 53, "velocity": 82, "channel": 0}, {"type": "note_on", "time": 906, "note": 51, "velocity": 86, "channel": 0}, {"type": "note_off", "time": 5717, "note": 51, "velocity": 86, "channel": 0}, {"type": "note_on", "time": 976, "note": 49, "velocity": 88, "channel": 0}, {"type": "note_off", "time": 5996, "note": 49, "velocity": 88, "channel": 0}, {"type": "note_on", "time": 767, "note": 48, "velocity": 90, "channel": 0}, {"type": "note_off", "time": 5020, "note": 48, "velocity": 90, "channel": 0}, {"type": "note_on", "time": 418, "note": 46, "velocity": 93, "channel": 0}, {"type": "note_off", "time": 4532, "note": 46, "velocity": 93, "channel": 0}, {"type": "note_on", "time": 1743, "note": 45, "velocity": 93, "channel": 0}, {"type": "note_off", "time": 8228, "note": 45, "velocity": 93, "channel": 0}, {"type": "note_on", "time": 1673, "note": 44, "velocity": 113, "channel": 0}, {"type": "note_off", "time": 11784, "note": 44, "velocity": 113, "channel": 0}, {"type": "note_on", "time": 57805, "note": 46, "velocity": 97, "channel": 0}, {"type": "note_off", "time": 9622, "note": 46, "velocity": 97, "channel": 0}, {"type": "note_on", "time": 2022, "note": 49, "velocity": 92, "channel": 0}, {"type": "note_off", "time": 17571, "note": 49, "velocity": 92, "channel": 0}, {"type": "note_on", "time": 557, "note": 51, "velocity": 92, "channel": 0}, {"type": "note_off", "time": 22871, "note": 51, "velocity": 92, "channel": 0}, {"type": "note_on", "time": 906, "note": 53, "velocity": 83, "channel": 0}, {"type": "note_off", "time": 20082, "note": 53, "velocity": 83, "channel": 0}, {"type": "note_on", "time": 62268, "note": 48, "velocity": 95, "channel": 0}, {"type": "note_off", "time": 9413, "note": 48, "velocity": 95, "channel": 0}, {"type": "note_on", "time": 244, "note": 57, "velocity": 96, "channel": 0}, {"type": "note_off", "time": 1989, "note": 57, "velocity": 96, "channel": 0}, {"type": "note_on", "time": 137, "note": 59, "velocity": 92, "channel": 0}, {"type": "note_off", "time": 12725, "note": 59, "velocity": 92, "channel": 0}, {"type": "note_on", "time": 244, "note": 52, "velocity": 89, "channel": 0}, {"type": "note_off", "time": 8995, "note": 52, "velocity": 89, "channel": 0}, {"type": "note_on", "time": 1394, "note": 62, "velocity": 102, "channel": 0}, {"type": "note_off", "time": 18338, "note": 62, "velocity": 102, "channel": 0}, {"type": "note_on", "time": 488, "note": 57, "velocity": 86, "channel": 0}, {"type": "note_off", "time": 7670, "note": 57, "velocity": 86, "channel": 0}, {"type": "note_on", "time": 557, "note": 66, "velocity": 91, "channel": 0}, {"type": "note_off", "time": 17711, "note": 66, "velocity": 91, "channel": 0}, {"type": "note_on", "time": 2161, "note": 60, "velocity": 77, "channel": 0}, {"type": "note_off", "time": 5159, "note": 60, "velocity": 77, "channel": 0}, {"type": "note_on", "time": 2091, "note": 70, "velocity": 93, "channel": 0}, {"type": "note_off", "time": 3695, "note": 70, "velocity": 93, "channel": 0}, {"type": "note_on", "time": 348, "note": 71, "velocity": 94, "channel": 0}, {"type": "note_off", "time": 17292, "note": 71, "velocity": 94, "channel": 0}, {"type": "note_on", "time": 976, "note": 72, "velocity": 94, "channel": 0}, {"type": "note_off", "time": 33260, "note": 72, "velocity": 94, "channel": 0}, {"type": "note_on", "time": 25172, "note": 70, "velocity": 99, "channel": 0}, {"type": "note_off", "time": 16595, "note": 70, "velocity": 99, "channel": 0}, {"type": "note_on", "time": 1185, "note": 72, "velocity": 94, "channel": 0}, {"type": "note_off", "time": 10738, "note": 72, "velocity": 94, "channel": 0}, {"type": "note_on", "time": 6142, "note": 76, "velocity": 100, "channel": 0}, {"type": "note_off", "time": 7011, "note": 76, "velocity": 100, "channel": 0}, {"type": "note_on", "time": 652, "note": 77, "velocity": 93, "channel": 0}, {"type": "note_off", "time": 10947, "note": 77, "velocity": 93, "channel": 0}, {"type": "note_on", "time": 906, "note": 75, "velocity": 99, "channel": 0}, {"type": "note_off", "time": 16107, "note": 75, "velocity": 99, "channel": 0}, {"type": "note_on", "time": 1743, "note": 73, "velocity": 88, "channel": 0}, {"type": "note_off", "time": 25102, "note": 73, "velocity": 88, "channel": 0}, {"type": "note_on", "time": 836, "note": 72, "velocity": 93, "channel": 0}, {"type": "note_off", "time": 24475, "note": 72, "velocity": 93, "channel": 0}, {"type": "note_on", "time": 1185, "note": 73, "velocity": 90, "channel": 0}, {"type": "note_off", "time": 26566, "note": 73, "velocity": 90, "channel": 0}, {"type": "note_on", "time": 2819, "note": 65, "velocity": 88, "channel": 0}, {"type": "note_off", "time": 25543, "note": 65, "velocity": 88, "channel": 0}, {"type": "note_on", "time": 155, "note": 68, "velocity": 101, "channel": 0}, {"type": "note_off", "time": 27333, "note": 68, "velocity": 101, "channel": 0}, {"type": "note_on", "time": 37932, "note": 68, "velocity": 96, "channel": 0}, {"type": "note_off", "time": 8646, "note": 68, "velocity": 96, "channel": 0}, {"type": "note_on", "time": 836, "note": 72, "velocity": 99, "channel": 0}, {"type": "note_off", "time": 7112, "note": 72, "velocity": 99, "channel": 0}, {"type": "note_on", "time": 1464, "note": 75, "velocity": 101, "channel": 0}, {"type": "note_off", "time": 7879, "note": 75, "velocity": 101, "channel": 0}, {"type": "note_on", "time": 2667, "note": 80, "velocity": 95, "channel": 0}, {"type": "note_off", "time": 8489, "note": 80, "velocity": 95, "channel": 0}, {"type": "note_on", "time": 139, "note": 77, "velocity": 90, "channel": 0}, {"type": "note_off", "time": 8507, "note": 77, "velocity": 90, "channel": 0}, {"type": "note_on", "time": 0, "note": 75, "velocity": 97, "channel": 0}, {"type": "note_off", "time": 10180, "note": 75, "velocity": 97, "channel": 0}, {"type": "note_on", "time": 627, "note": 77, "velocity": 94, "channel": 0}, {"type": "note_off", "time": 8855, "note": 77, "velocity": 94, "channel": 0}, {"type": "note_on", "time": 488, "note": 72, "velocity": 91, "channel": 0}, {"type": "note_off", "time": 8228, "note": 72, "velocity": 91, "channel": 0}, {"type": "note_on", "time": 418, "note": 70, "velocity": 94, "channel": 0}, {"type": "note_off", "time": 8018, "note": 70, "velocity": 94, "channel": 0}, {"type": "note_on", "time": 836, "note": 72, "velocity": 92, "channel": 0}, {"type": "note_off", "time": 8507, "note": 72, "velocity": 92, "channel": 0}, {"type": "note_on", "time": 767, "note": 68, "velocity": 104, "channel": 0}, {"type": "note_off", "time": 7879, "note": 68, "velocity": 104, "channel": 0}, {"type": "note_on", "time": 1185, "note": 65, "velocity": 92, "channel": 0}, {"type": "note_off", "time": 8297, "note": 65, "velocity": 92, "channel": 0}, {"type": "note_on", "time": 418, "note": 68, "velocity": 95, "channel": 0}, {"type": "note_off", "time": 7739, "note": 68, "velocity": 95, "channel": 0}, {"type": "note_on", "time": 1817, "note": 65, "velocity": 96, "channel": 0}, {"type": "note_off", "time": 10115, "note": 65, "velocity": 96, "channel": 0}, {"type": "note_on", "time": 371, "note": 63, "velocity": 97, "channel": 0}, {"type": "note_off", "time": 8432, "note": 63, "velocity": 97, "channel": 0}, {"type": "note_on", "time": 495, "note": 64, "velocity": 94, "channel": 0}, {"type": "note_off", "time": 3486, "note": 64, "velocity": 94, "channel": 0}, {"type": "note_on", "time": 348, "note": 65, "velocity": 87, "channel": 0}, {"type": "note_off", "time": 28414, "note": 65, "velocity": 87, "channel": 0}, {"type": "note_on", "time": 35004, "note": 67, "velocity": 92, "channel": 0}, {"type": "note_off", "time": 4114, "note": 67, "velocity": 92, "channel": 0}, {"type": "note_on", "time": 976, "note": 69, "velocity": 101, "channel": 0}, {"type": "note_off", "time": 19384, "note": 69, "velocity": 101, "channel": 0}, {"type": "note_on", "time": 697, "note": 67, "velocity": 92, "channel": 0}, {"type": "note_off", "time": 3416, "note": 67, "velocity": 92, "channel": 0}, {"type": "note_on", "time": 418, "note": 64, "velocity": 111, "channel": 0}, {"type": "note_off", "time": 3974, "note": 64, "velocity": 111, "channel": 0}, {"type": "note_on", "time": 906, "note": 62, "velocity": 108, "channel": 0}, {"type": "note_off", "time": 6275, "note": 62, "velocity": 108, "channel": 0}, {"type": "note_on", "time": 627, "note": 60, "velocity": 78, "channel": 0}, {"type": "note_off", "time": 36119, "note": 60, "velocity": 78, "channel": 0}, {"type": "note_on", "time": 697, "note": 57, "velocity": 91, "channel": 0}, {"type": "note_off", "time": 7321, "note": 57, "velocity": 91, "channel": 0}, {"type": "note_on", "time": 767, "note": 58, "velocity": 92, "channel": 0}, {"type": "note_off", "time": 8297, "note": 58, "velocity": 92, "channel": 0}, {"type": "note_on", "time": 976, "note": 60, "velocity": 80, "channel": 0}, {"type": "note_off", "time": 34934, "note": 60, "velocity": 80, "channel": 0}, {"type": "note_on", "time": 767, "note": 58, "velocity": 84, "channel": 0}, {"type": "note_off", "time": 5787, "note": 58, "velocity": 84, "channel": 0}, {"type": "note_on", "time": 906, "note": 57, "velocity": 82, "channel": 0}, {"type": "note_off", "time": 6484, "note": 57, "velocity": 82, "channel": 0}, {"type": "note_on", "time": 1394, "note": 60, "velocity": 71, "channel": 0}, {"type": "note_off", "time": 38351, "note": 60, "velocity": 71, "channel": 0}, {"type": "end_of_track", "time": 0}]]}