{"ticks_per_beat": 192, "tracks": [[{"type": "track_name", "name": "Melody", "time": 0}, {"type": "set_tempo", "tempo": 652173, "time": 0}, {"type": "key_signature", "key": "F#", "time": 0}, {"type": "time_signature", "numerator": 4, "denominator": 4, "clocks_per_click": 24, "notated_32nd_notes_per_beat": 8, "time": 0}, {"type": "note_on", "time": 201, "note": 50, "velocity": 93, "channel": 0}, {"type": "note_off", "time": 225, "note": 50, "velocity": 93, "channel": 0}, {"type": "note_on", "time": 30, "note": 52, "velocity": 103, "channel": 0}, {"type": "note_off", "time": 42, "note": 52, "velocity": 103, "channel": 0}, {"type": "note_on", "time": 0, "note": 54, "velocity": 103, "channel": 0}, {"type": "note_off", "time": 82, "note": 54, "velocity": 103, "channel": 0}, {"type": "note_on", "time": 11, "note": 57, "velocity": 103, "channel": 0}, {"type": "note_on", "time": 119, "note": 64, "velocity": 103, "channel": 0}, {"type": "note_off", "time": 0, "note": 57, "velocity": 103, "channel": 0}, {"type": "note_off", "time": 254, "note": 64, "velocity": 103, "channel": 0}, {"type": "note_on", "time": 0, "note": 62, "velocity": 112, "channel": 0}, {"type": "note_off", "time": 107, "note": 62, "velocity": 112, "channel": 0}, {"type": "note_on", "time": 20, "note": 66, "velocity": 120, "channel": 0}, {"type": "note_off", "time": 66, "note": 66, "velocity": 120, "channel": 0}, {"type": "note_on", "time": 0, "note": 69, "velocity": 99, "channel": 0}, {"type": "note_off", "time": 126, "note": 69, "velocity": 99, "channel": 0}, {"type": "note_on", "time": 5, "note": 67, "velocity": 115, "channel": 0}, {"type": "note_off", "time": 58, "note": 67, "velocity": 115, "channel": 0}, {"type": "note_on", "time": 13, "note": 65, "velocity": 119, "channel": 0}, {"type": "note_off", "time": 54, "note": 65, "velocity": 119, "channel": 0}, {"type": "note_on", "time": 0, "note": 66, "velocity": 115, "channel": 0}, {"type": "note_off", "time": 41, "note": 66, "velocity": 115, "channel": 0}, {"type": "note_on", "time": 10, "note": 62, "velocity": 108, "channel": 0}, {"type": "note_off", "time": 293, "note": 62, "velocity": 108, "channel": 0}, {"type": "note_on", "time": 0, "note": 57, "velocity": 95, "channel": 0}, {"type": "note_off", "time": 169, "note": 57, "velocity": 95, "channel": 0}, {"type": "note_on", "time": 76, "note": 62, "velocity": 125, "channel": 0}, {"type": "note_off", "time": 56, "note": 62, "velocity": 125, "channel": 0}, {"type": "note_on", "time": 8, "note": 64, "velocity": 110, "channel": 0}, {"type": "note_off", "time": 8, "note": 64, "velocity": 110, "channel": 0}, {"type": "note_on", "time": 0, "note": 66, "velocity": 115, "channel": 0}, {"type": "note_off", "time": 66, "note": 66, "velocity": 115, "channel": 0}, {"type": "note_on", "time": 1, "note": 66, "velocity": 115, "channel": 0}, {"type": "note_off", "time": 52, "note": 66, "velocity": 115, "channel": 0}, {"type": "note_on", "time": 0, "note": 64, "velocity": 109, "channel": 0}, {"type": "note_off", "time": 234, "note": 64, "velocity": 109, "channel": 0}, {"type": "note_on", "time": 0, "note": 61, "velocity": 114, "channel": 0}, {"type": "note_off", "time": 44, "note": 61, "velocity": 114, "channel": 0}, {"type": "note_on", "time": 1, "note": 64, "velocity": 115, "channel": 0}, {"type": "note_off", "time": 44, "note": 64, "velocity": 115, "channel": 0}, {"type": "note_on", "time": 0, "note": 62, "velocity": 112, "channel": 0}, {"type": "note_off", "time": 27, "note": 62, "velocity": 112, "channel": 0}, {"type": "note_on", "time": 5, "note": 60, "velocity": 97, "channel": 0}, {"type": "note_off", "time": 35, "note": 60, "velocity": 97, "channel": 0}, {"type": "note_on", "time": 0, "note": 59, "velocity": 100, "channel": 0}, {"type": "note_off", "time": 39, "note": 59, "velocity": 100, "channel": 0}, {"type": "note_on", "time": 1, "note": 57, "velocity": 95, "channel": 0}, {"type": "note_off", "time": 352, "note": 57, "velocity": 95, "channel": 0}, {"type": "note_on", "time": 59, "note": 72, "velocity": 107, "channel": 0}, {"type": "note_off", "time": 52, "note": 72, "velocity": 107, "channel": 0}, {"type": "note_on", "time": 0, "note": 74, "velocity": 97, "channel": 0}, {"type": "note_off", "time": 42, "note": 74, "velocity": 97, "channel": 0}, {"type": "note_on", "time": 5, "note": 74, "velocity": 105, "channel": 0}, {"type": "note_off", "time": 42, "note": 74, "velocity": 105, "channel": 0}, {"type": "note_on", "time": 0, "note": 69, "velocity": 102, "channel": 0}, {"type": "note_off", "time": 58, "note": 69, "velocity": 102, "channel": 0}, {"type": "note_on", "time": 5, "note": 69, "velocity": 103, "channel": 0}, {"type": "note_off", "time": 41, "note": 69, "velocity": 103, "channel": 0}, {"type": "note_on", "time": 0, "note": 72, "velocity": 107, "channel": 0}, {"type": "note_off", "time": 49, "note": 72, "velocity": 107, "channel": 0}, {"type": "note_on", "time": 3, "note": 72, "velocity": 104, "channel": 0}, {"type": "note_off", "time": 47, "note": 72, "velocity": 104, "channel": 0}, {"type": "note_on", "time": 1, "note": 71, "velocity": 102, "channel": 0}, {"type": "note_off", "time": 27, "note": 71, "velocity": 102, "channel": 0}, {"type": "note_on", "time": 0, "note": 67, "velocity": 122, "channel": 0}, {"type": "note_off", "time": 23, "note": 67, "velocity": 122, "channel": 0}, {"type": "note_on", "time": 0, "note": 69, "velocity": 110, "channel": 0}, {"type": "note_on", "time": 22, "note": 71, "velocity": 106, "channel": 0}, {"type": "note_off", "time": 0, "note": 69, "velocity": 110, "channel": 0}, {"type": "note_off", "time": 18, "note": 71, "velocity": 106, "channel": 0}, {"type": "note_on", "time": 8, "note": 69, "velocity": 100, "channel": 0}, {"type": "note_off", "time": 17, "note": 69, "velocity": 100, "channel": 0}, {"type": "note_on", "time": 0, "note": 67, "velocity": 123, "channel": 0}, {"type": "note_off", "time": 27, "note": 67, "velocity": 123, "channel": 0}, {"type": "note_on", "time": 0, "note": 65, "velocity": 123, "channel": 0}, {"type": "note_off", "time": 23, "note": 65, "velocity": 123, "channel": 0}, {"type": "note_on", "time": 3, "note": 64, "velocity": 116, "channel": 0}, {"type": "note_off", "time": 27, "note": 64, "velocity": 116, "channel": 0}, {"type": "note_on", "time": 3, "note": 63, "velocity": 114, "channel": 0}, {"type": "note_off", "time": 27, "note": 63, "velocity": 114, "channel": 0}, {"type": "note_on", "time": 0, "note": 59, "velocity": 107, "channel": 0}, {"type": "note_off", "time": 22, "note": 59, "velocity": 107, "channel": 0}, {"type": "note_on", "time": 0, "note": 55, "velocity": 96, "channel": 0}, {"type": "note_off", "time": 51, "note": 55, "velocity": 96, "channel": 0}, {"type": "note_on", "time": 13, "note": 57, "velocity": 104, "channel": 0}, {"type": "note_off", "time": 27, "note": 57, "velocity": 104, "channel": 0}, {"type": "note_on", "time": 1, "note": 59, "velocity": 101, "channel": 0}, {"type": "note_off", "time": 23, "note": 59, "velocity": 101, "channel": 0}, {"type": "note_on", "time": 1, "note": 63, "velocity": 115, "channel": 0}, {"type": "note_off", "time": 47, "note": 63, "velocity": 115, "channel": 0}, {"type": "note_on", "time": 34, "note": 69, "velocity": 105, "channel": 0}, {"type": "note_off", "time": 47, "note": 69, "velocity": 105, "channel": 0}, {"type": "note_on", "time": 0, "note": 67, "velocity": 118, "channel": 0}, {"type": "note_off", "time": 32, "note": 67, "velocity": 118, "channel": 0}, {"type": "note_on", "time": 0, "note": 64, "velocity": 115, "channel": 0}, {"type": "note_off", "time": 51, "note": 64, "velocity": 115, "channel": 0}, {"type": "note_on", "time": 5, "note": 60, "velocity": 102, "channel": 0}, {"type": "note_off", "time": 47, "note": 60, "velocity": 102, "channel": 0}, {"type": "note_on", "time": 3, "note": 59, "velocity": 100, "channel": 0}, {"type": "note_off", "time": 42, "note": 59, "velocity": 100, "channel": 0}, {"type": "note_on", "time": 0, "note": 57, "velocity": 100, "channel": 0}, {"type": "note_off", "time": 176, "note": 57, "velocity": 100, "channel": 0}, {"type": "note_on", "time": 0, "note": 55, "velocity": 108, "channel": 0}, {"type": "note_on", "time": 42, "note": 52, "velocity": 101, "channel": 0}, {"type": "note_off", "time": 0, "note": 55, "velocity": 108, "channel": 0}, {"type": "note_off", "time": 30, "note": 52, "velocity": 101, "channel": 0}, {"type": "note_on", "time": 0, "note": 55, "velocity": 104, "channel": 0}, {"type": "note_off", "time": 44, "note": 55, "velocity": 104, "channel": 0}, {"type": "note_on", "time": 10, "note": 52, "velocity": 101, "channel": 0}, {"type": "note_off", "time": 23, "note": 52, "velocity": 101, "channel": 0}, {"type": "note_on", "time": 8, "note": 51, "velocity": 104, "channel": 0}, {"type": "note_off", "time": 99, "note": 51, "velocity": 104, "channel": 0}, {"type": "note_on", "time": 18, "note": 54, "velocity": 109, "channel": 0}, {"type": "note_off", "time": 49, "note": 54, "velocity": 109, "channel": 0}, {"type": "note_on", "time": 0, "note": 57, "velocity": 107, "channel": 0}, {"type": "note_off", "time": 34, "note": 57, "velocity": 107, "channel": 0}, {"type": "note_on", "time": 5, "note": 59, "velocity": 97, "channel": 0}, {"type": "note_off", "time": 68, "note": 59, "velocity": 97, "channel": 0}, {"type": "note_on", "time": 1, "note": 57, "velocity": 91, "channel": 0}, {"type": "note_off", "time": 30, "note": 57, "velocity": 91, "channel": 0}, {"type": "note_on", "time": 5, "note": 56, "velocity": 97, "channel": 0}, {"type": "note_off", "time": 32, "note": 56, "velocity": 97, "channel": 0}, {"type": "note_on", "time": 0, "note": 53, "velocity": 101, "channel": 0}, {"type": "note_off", "time": 169, "note": 53, "velocity": 101, "channel": 0}, {"type": "note_on", "time": 85, "note": 69, "velocity": 96, "channel": 0}, {"type": "note_off", "time": 49, "note": 69, "velocity": 96, "channel": 0}, {"type": "note_on", "time": 0, "note": 72, "velocity": 106, "channel": 0}, {"type": "note_off", "time": 71, "note": 72, "velocity": 106, "channel": 0}, {"type": "note_on", "time": 5, "note": 71, "velocity": 108, "channel": 0}, {"type": "note_off", "time": 87, "note": 71, "velocity": 108, "channel": 0}, {"type": "note_on", "time": 0, "note": 72, "velocity": 107, "channel": 0}, {"type": "note_off", "time": 27, "note": 72, "velocity": 107, "channel": 0}, {"type": "note_on", "time": 0, "note": 71, "velocity": 91, "channel": 0}, {"type": "note_off", "time": 22, "note": 71, "velocity": 91, "channel": 0}, {"type": "note_on", "time": 0, "note": 69, "velocity": 105, "channel": 0}, {"type": "note_off", "time": 37, "note": 69, "velocity": 105, "channel": 0}, {"type": "note_on", "time": 10, "note": 67, "velocity": 116, "channel": 0}, {"type": "note_off", "time": 184, "note": 67, "velocity": 116, "channel": 0}, {"type": "note_on", "time": 8, "note": 64, "velocity": 113, "channel": 0}, {"type": "note_off", "time": 92, "note": 64, "velocity": 113, "channel": 0}, {"type": "note_on", "time": 6, "note": 58, "velocity": 92, "channel": 0}, {"type": "note_off", "time": 41, "note": 58, "velocity": 92, "channel": 0}, {"type": "note_on", "time": 6, "note": 64, "velocity": 116, "channel": 0}, {"type": "note_off", "time": 64, "note": 64, "velocity": 116, "channel": 0}, {"type": "note_on", "time": 0, "note": 63, "velocity": 106, "channel": 0}, {"type": "note_off", "time": 177, "note": 63, "velocity": 106, "channel": 0}, {"type": "note_on", "time": 0, "note": 62, "velocity": 110, "channel": 0}, {"type": "note_off", "time": 109, "note": 62, "velocity": 110, "channel": 0}, {"type": "note_on", "time": 39, "note": 70, "velocity": 95, "channel": 0}, {"type": "note_off", "time": 263, "note": 70, "velocity": 95, "channel": 0}, {"type": "note_on", "time": 73, "note": 63, "velocity": 126, "channel": 0}, {"type": "note_off", "time": 44, "note": 63, "velocity": 126, "channel": 0}, {"type": "note_on", "time": 5, "note": 64, "velocity": 120, "channel": 0}, {"type": "note_off", "time": 49, "note": 64, "velocity": 120, "channel": 0}, {"type": "note_on", "time": 0, "note": 65, "velocity": 124, "channel": 0}, {"type": "note_off", "time": 46, "note": 65, "velocity": 124, "channel": 0}, {"type": "note_on", "time": 0, "note": 68, "velocity": 111, "channel": 0}, {"type": "note_off", "time": 47, "note": 68, "velocity": 111, "channel": 0}, {"type": "note_on", "time": 1, "note": 65, "velocity": 118, "channel": 0}, {"type": "note_off", "time": 71, "note": 65, "velocity": 118, "channel": 0}, {"type": "note_on", "time": 5, "note": 63, "velocity": 118, "channel": 0}, {"type": "note_off", "time": 75, "note": 63, "velocity": 118, "channel": 0}, {"type": "note_on", "time": 0, "note": 64, "velocity": 112, "channel": 0}, {"type": "note_off", "time": 20, "note": 64, "velocity": 112, "channel": 0}, {"type": "note_on", "time": 5, "note": 65, "velocity": 127, "channel": 0}, {"type": "note_off", "time": 63, "note": 65, "velocity": 127, "channel": 0}, {"type": "note_on", "time": 3, "note": 68, "velocity": 114, "channel": 0}, {"type": "note_off", "time": 39, "note": 68, "velocity": 114, "channel": 0}, {"type": "note_on", "time": 0, "note": 65, "velocity": 116, "channel": 0}, {"type": "note_off", "time": 87, "note": 65, "velocity": 116, "channel": 0}, {"type": "note_on", "time": 1, "note": 63, "velocity": 115, "channel": 0}, {"type": "note_off", "time": 49, "note": 63, "velocity": 115, "channel": 0}, {"type": "note_on", "time": 5, "note": 64, "velocity": 117, "channel": 0}, {"type": "note_off", "time": 49, "note": 64, "velocity": 117, "channel": 0}, {"type": "note_on", "time": 0, "note": 65, "velocity": 119, "channel": 0}, {"type": "note_off", "time": 44, "note": 65, "velocity": 119, "channel": 0}, {"type": "note_on", "time": 3, "note": 68, "velocity": 104, "channel": 0}, {"type": "note_on", "time": 42, "note": 65, "velocity": 117, "channel": 0}, {"type": "note_off", "time": 0, "note": 68, "velocity": 104, "channel": 0}, {"type": "note_off", "time": 42, "note": 65, "velocity": 117, "channel": 0}, {"type": "note_on", "time": 13, "note": 63, "velocity": 107, "channel": 0}, {"type": "note_off", "time": 41, "note": 63, "velocity": 107, "channel": 0}, {"type": "note_on", "time": 6, "note": 58, "velocity": 91, "channel": 0}, {"type": "note_off", "time": 309, "note": 58, "velocity": 91, "channel": 0}, {"type": "note_on", "time": 66, "note": 65, "velocity": 118, "channel": 0}, {"type": "note_off", "time": 29, "note": 65, "velocity": 118, "channel": 0}, {"type": "note_on", "time": 0, "note": 68, "velocity": 103, "channel": 0}, {"type": "note_off", "time": 75, "note": 68, "velocity": 103, "channel": 0}, {"type": "note_on", "time": 1, "note": 65, "velocity": 120, "channel": 0}, {"type": "note_off", "time": 54, "note": 65, "velocity": 120, "channel": 0}, {"type": "note_on", "time": 6, "note": 63, "velocity": 110, "channel": 0}, {"type": "note_off", "time": 258, "note": 63, "velocity": 110, "channel": 0}, {"type": "note_on", "time": 6, "note": 61, "velocity": 115, "channel": 0}, {"type": "note_off", "time": 51, "note": 61, "velocity": 115, "channel": 0}, {"type": "note_on", "time": 6, "note": 65, "velocity": 114, "channel": 0}, {"type": "note_off", "time": 52, "note": 65, "velocity": 114, "channel": 0}, {"type": "note_on", "time": 3, "note": 60, "velocity": 101, "channel": 0}, {"type": "note_off", "time": 59, "note": 60, "velocity": 101, "channel": 0}, {"type": "note_on", "time": 1, "note": 58, "velocity": 103, "channel": 0}, {"type": "note_off", "time": 30, "note": 58, "velocity": 103, "channel": 0}, {"type": "note_on", "time": 10, "note": 59, "velocity": 105, "channel": 0}, {"type": "note_off", "time": 52, "note": 59, "velocity": 105, "channel": 0}, {"type": "note_on", "time": 17, "note": 59, "velocity": 100, "channel": 0}, {"type": "note_off", "time": 52, "note": 59, "velocity": 100, "channel": 0}, {"type": "note_on", "time": 23, "note": 59, "velocity": 105, "channel": 0}, {"type": "note_off", "time": 56, "note": 59, "velocity": 105, "channel": 0}, {"type": "note_on", "time": 0, "note": 59, "velocity": 103, "channel": 0}, {"type": "note_off", "time": 52, "note": 59, "velocity": 103, "channel": 0}, {"type": "note_on", "time": 23, "note": 58, "velocity": 95, "channel": 0}, {"type": "note_off", "time": 157, "note": 58, "velocity": 95, "channel": 0}, {"type": "note_on", "time": 80, "note": 56, "velocity": 115, "channel": 0}, {"type": "note_off", "time": 42, "note": 56, "velocity": 115, "channel": 0}, {"type": "note_on", "time": 11, "note": 61, "velocity": 123, "channel": 0}, {"type": "note_off", "time": 34, "note": 61, "velocity": 123, "channel": 0}, {"type": "note_on", "time": 0, "note": 65, "velocity": 114, "channel": 0}, {"type": "note_off", "time": 51, "note": 65, "velocity": 114, "channel": 0}, {"type": "note_on", "time": 20, "note": 60, "velocity": 99, "channel": 0}, {"type": "note_off", "time": 193, "note": 60, "velocity": 99, "channel": 0}, {"type": "note_on", "time": 1, "note": 59, "velocity": 100, "channel": 0}, {"type": "note_off", "time": 58, "note": 59, "velocity": 100, "channel": 0}, {"type": "note_on", "time": 8, "note": 58, "velocity": 98, "channel": 0}, {"type": "note_off", "time": 54, "note": 58, "velocity": 98, "channel": 0}, {"type": "note_on", "time": 6, "note": 54, "velocity": 107, "channel": 0}, {"type": "note_off", "time": 281, "note": 54, "velocity": 107, "channel": 0}, {"type": "note_on", "time": 73, "note": 59, "velocity": 107, "channel": 0}, {"type": "note_off", "time": 27, "note": 59, "velocity": 107, "channel": 0}, {"type": "note_on", "time": 0, "note": 61, "velocity": 116, "channel": 0}, {"type": "note_off", "time": 199, "note": 61, "velocity": 116, "channel": 0}, {"type": "note_on", "time": 10, "note": 61, "velocity": 111, "channel": 0}, {"type": "note_off", "time": 47, "note": 61, "velocity": 111, "channel": 0}, {"type": "note_on", "time": 13, "note": 58, "velocity": 102, "channel": 0}, {"type": "note_off", "time": 44, "note": 58, "velocity": 102, "channel": 0}, {"type": "note_on", "time": 8, "note": 54, "velocity": 105, "channel": 0}, {"type": "note_off", "time": 42, "note": 54, "velocity": 105, "channel": 0}, {"type": "note_on", "time": 20, "note": 51, "velocity": 101, "channel": 0}, {"type": "note_off", "time": 54, "note": 51, "velocity": 101, "channel": 0}, {"type": "note_on", "time": 15, "note": 52, "velocity": 104, "channel": 0}, {"type": "note_off", "time": 34, "note": 52, "velocity": 104, "channel": 0}, {"type": "note_on", "time": 3, "note": 53, "velocity": 103, "channel": 0}, {"type": "note_off", "time": 261, "note": 53, "velocity": 103, "channel": 0}, {"type": "note_on", "time": 0, "note": 52, "velocity": 95, "channel": 0}, {"type": "note_off", "time": 54, "note": 52, "velocity": 95, "channel": 0}, {"type": "note_on", "time": 10, "note": 51, "velocity": 103, "channel": 0}, {"type": "note_off", "time": 211, "note": 51, "velocity": 103, "channel": 0}, {"type": "end_of_track", "time": 0}]]}