{"ticks_per_beat": 192, "tracks": [[{"type": "track_name", "name": "Melody", "time": 0}, {"type": "set_tempo", "tempo": 368098, "time": 0}, {"type": "key_signature", "key": "Db", "time": 0}, {"type": "time_signature", "numerator": 4, "denominator": 4, "clocks_per_click": 24, "notated_32nd_notes_per_beat": 8, "time": 0}, {"type": "note_on", "time": 2326, "note": 70, "velocity": 113, "channel": 0}, {"type": "note_off", "time": 117, "note": 70, "velocity": 113, "channel": 0}, {"type": "note_on", "time": 27, "note": 70, "velocity": 111, "channel": 0}, {"type": "note_off", "time": 70, "note": 70, "velocity": 111, "channel": 0}, {"type": "note_on", "time": 490, "note": 76, "velocity": 107, "channel": 0}, {"type": "note_off", "time": 143, "note": 76, "velocity": 107, "channel": 0}, {"type": "note_on", "time": 38, "note": 73, "velocity": 117, "channel": 0}, {"type": "note_off", "time": 89, "note": 73, "velocity": 117, "channel": 0}, {"type": "note_on", "time": 88, "note": 70, "velocity": 108, "channel": 0}, {"type": "note_off", "time": 63, "note": 70, "velocity": 108, "channel": 0}, {"type": "note_on", "time": 27, "note": 69, "velocity": 104, "channel": 0}, {"type": "note_off", "time": 34, "note": 69, "velocity": 104, "channel": 0}, {"type": "note_on", "time": 6, "note": 70, "velocity": 104, "channel": 0}, {"type": "note_off", "time": 55, "note": 70, "velocity": 104, "channel": 0}, {"type": "note_on", "time": 5, "note": 69, "velocity": 101, "channel": 0}, {"type": "note_off", "time": 51, "note": 69, "velocity": 101, "channel": 0}, {"type": "note_on", "time": 12, "note": 67, "velocity": 100, "channel": 0}, {"type": "note_off", "time": 111, "note": 67, "velocity": 100, "channel": 0}, {"type": "note_on", "time": 18, "note": 68, "velocity": 98, "channel": 0}, {"type": "note_off", "time": 242, "note": 68, "velocity": 98, "channel": 0}, {"type": "note_on", "time": 325, "note": 65, "velocity": 118, "channel": 0}, {"type": "note_off", "time": 58, "note": 65, "velocity": 118, "channel": 0}, {"type": "note_on", "time": 20, "note": 63, "velocity": 102, "channel": 0}, {"type": "note_off", "time": 78, "note": 63, "velocity": 102, "channel": 0}, {"type": "note_on", "time": 44, "note": 61, "velocity": 100, "channel": 0}, {"type": "note_off", "time": 56, "note": 61, "velocity": 100, "channel": 0}, {"type": "note_on", "time": 36, "note": 62, "velocity": 88, "channel": 0}, {"type": "note_off", "time": 85, "note": 62, "velocity": 88, "channel": 0}, {"type": "note_on", "time": 36, "note": 71, "velocity": 109, "channel": 0}, {"type": "note_off", "time": 98, "note": 71, "velocity": 109, "channel": 0}, {"type": "note_on", "time": 85, "note": 69, "velocity": 106, "channel": 0}, {"type": "note_off", "time": 62, "note": 69, "velocity": 106, "channel": 0}, {"type": "note_on", "time": 51, "note": 70, "velocity": 91, "channel": 0}, {"type": "note_off", "time": 59, "note": 70, "velocity": 91, "channel": 0}, {"type": "note_on", "time": 11, "note": 58, "velocity": 87, "channel": 0}, {"type": "note_off", "time": 50, "note": 58, "velocity": 87, "channel": 0}, {"type": "note_on", "time": 43, "note": 63, "velocity": 104, "channel": 0}, {"type": "note_off", "time": 69, "note": 63, "velocity": 104, "channel": 0}, {"type": "note_on", "time": 15, "note": 65, "velocity": 116, "channel": 0}, {"type": "note_off", "time": 61, "note": 65, "velocity": 116, "channel": 0}, {"type": "note_on", "time": 38, "note": 66, "velocity": 108, "channel": 0}, {"type": "note_off", "time": 59, "note": 66, "velocity": 108, "channel": 0}, {"type": "note_on", "time": 31, "note": 68, "velocity": 109, "channel": 0}, {"type": "note_off", "time": 52, "note": 68, "velocity": 109, "channel": 0}, {"type": "note_on", "time": 31, "note": 69, "velocity": 106, "channel": 0}, {"type": "note_off", "time": 28, "note": 69, "velocity": 106, "channel": 0}, {"type": "note_on", "time": 3, "note": 70, "velocity": 104, "channel": 0}, {"type": "note_off", "time": 22, "note": 70, "velocity": 104, "channel": 0}, {"type": "note_on", "time": 5, "note": 69, "velocity": 97, "channel": 0}, {"type": "note_off", "time": 39, "note": 69, "velocity": 97, "channel": 0}, {"type": "note_on", "time": 8, "note": 67, "velocity": 103, "channel": 0}, {"type": "note_off", "time": 76, "note": 67, "velocity": 103, "channel": 0}, {"type": "note_on", "time": 7, "note": 68, "velocity": 103, "channel": 0}, {"type": "note_off", "time": 80, "note": 68, "velocity": 103, "channel": 0}, {"type": "note_on", "time": 12, "note": 66, "velocity": 108, "channel": 0}, {"type": "note_off", "time": 66, "note": 66, "velocity": 108, "channel": 0}, {"type": "note_on", "time": 49, "note": 63, "velocity": 93, "channel": 0}, {"type": "note_off", "time": 56, "note": 63, "velocity": 93, "channel": 0}, {"type": "note_on", "time": 6, "note": 64, "velocity": 109, "channel": 0}, {"type": "note_off", "time": 72, "note": 64, "velocity": 109, "channel": 0}, {"type": "note_on", "time": 15, "note": 65, "velocity": 113, "channel": 0}, {"type": "note_off", "time": 73, "note": 65, "velocity": 113, "channel": 0}, {"type": "note_on", "time": 43, "note": 60, "velocity": 82, "channel": 0}, {"type": "note_off", "time": 65, "note": 60, "velocity": 82, "channel": 0}, {"type": "note_on", "time": 15, "note": 63, "velocity": 111, "channel": 0}, {"type": "note_off", "time": 97, "note": 63, "velocity": 111, "channel": 0}, {"type": "note_on", "time": 18, "note": 60, "velocity": 92, "channel": 0}, {"type": "note_off", "time": 57, "note": 60, "velocity": 92, "channel": 0}, {"type": "note_on", "time": 12, "note": 61, "velocity": 95, "channel": 0}, {"type": "note_off", "time": 78, "note": 61, "velocity": 95, "channel": 0}, {"type": "note_on", "time": 19, "note": 63, "velocity": 107, "channel": 0}, {"type": "note_off", "time": 102, "note": 63, "velocity": 107, "channel": 0}, {"type": "note_on", "time": 6, "note": 65, "velocity": 107, "channel": 0}, {"type": "note_off", "time": 74, "note": 65, "velocity": 107, "channel": 0}, {"type": "note_on", "time": 14, "note": 68, "velocity": 105, "channel": 0}, {"type": "note_off", "time": 70, "note": 68, "velocity": 105, "channel": 0}, {"type": "note_on", "time": 40, "note": 61, "velocity": 90, "channel": 0}, {"type": "note_off", "time": 65, "note": 61, "velocity": 90, "channel": 0}, {"type": "note_on", "time": 24, "note": 65, "velocity": 102, "channel": 0}, {"type": "note_off", "time": 65, "note": 65, "velocity": 102, "channel": 0}, {"type": "note_on", "time": 16, "note": 68, "velocity": 106, "channel": 0}, {"type": "note_off", "time": 92, "note": 68, "velocity": 106, "channel": 0}, {"type": "note_on", "time": 9, "note": 71, "velocity": 120, "channel": 0}, {"type": "note_off", "time": 79, "note": 71, "velocity": 120, "channel": 0}, {"type": "note_on", "time": 22, "note": 70, "velocity": 103, "channel": 0}, {"type": "note_off", "time": 64, "note": 70, "velocity": 103, "channel": 0}, {"type": "note_on", "time": 25, "note": 58, "velocity": 90, "channel": 0}, {"type": "note_off", "time": 54, "note": 58, "velocity": 90, "channel": 0}, {"type": "note_on", "time": 40, "note": 63, "velocity": 104, "channel": 0}, {"type": "note_off", "time": 78, "note": 63, "velocity": 104, "channel": 0}, {"type": "note_on", "time": 18, "note": 66, "velocity": 114, "channel": 0}, {"type": "note_off", "time": 84, "note": 66, "velocity": 114, "channel": 0}, {"type": "note_on", "time": 35, "note": 62, "velocity": 97, "channel": 0}, {"type": "note_off", "time": 96, "note": 62, "velocity": 97, "channel": 0}, {"type": "note_on", "time": 25, "note": 57, "velocity": 108, "channel": 0}, {"type": "note_off", "time": 78, "note": 57, "velocity": 108, "channel": 0}, {"type": "note_on", "time": 85, "note": 57, "velocity": 109, "channel": 0}, {"type": "note_off", "time": 60, "note": 57, "velocity": 109, "channel": 0}, {"type": "note_on", "time": 15, "note": 56, "velocity": 97, "channel": 0}, {"type": "note_off", "time": 272, "note": 56, "velocity": 97, "channel": 0}, {"type": "note_on", "time": 14, "note": 62, "velocity": 95, "channel": 0}, {"type": "note_off", "time": 68, "note": 62, "velocity": 95, "channel": 0}, {"type": "note_on", "time": 8, "note": 63, "velocity": 95, "channel": 0}, {"type": "note_off", "time": 664, "note": 63, "velocity": 95, "channel": 0}, {"type": "note_on", "time": 8, "note": 61, "velocity": 90, "channel": 0}, {"type": "note_off", "time": 53, "note": 61, "velocity": 90, "channel": 0}, {"type": "note_on", "time": 35, "note": 63, "velocity": 96, "channel": 0}, {"type": "note_off", "time": 89, "note": 63, "velocity": 96, "channel": 0}, {"type": "note_on", "time": 9, "note": 64, "velocity": 101, "channel": 0}, {"type": "note_off", "time": 62, "note": 64, "velocity": 101, "channel": 0}, {"type": "note_on", "time": 5, "note": 63, "velocity": 94, "channel": 0}, {"type": "note_off", "time": 33, "note": 63, "velocity": 94, "channel": 0}, {"type": "note_on", "time": 6, "note": 64, "velocity": 96, "channel": 0}, {"type": "note_off", "time": 20, "note": 64, "velocity": 96, "channel": 0}, {"type": "note_on", "time": 12, "note": 63, "velocity": 92, "channel": 0}, {"type": "note_off", "time": 36, "note": 63, "velocity": 92, "channel": 0}, {"type": "note_on", "time": 17, "note": 61, "velocity": 93, "channel": 0}, {"type": "note_off", "time": 51, "note": 61, "velocity": 93, "channel": 0}, {"type": "note_on", "time": 39, "note": 56, "velocity": 94, "channel": 0}, {"type": "note_off", "time": 110, "note": 56, "velocity": 94, "channel": 0}, {"type": "note_on", "time": 21, "note": 56, "velocity": 92, "channel": 0}, {"type": "note_off", "time": 178, "note": 56, "velocity": 92, "channel": 0}, {"type": "note_on", "time": 15, "note": 62, "velocity": 94, "channel": 0}, {"type": "note_off", "time": 34, "note": 62, "velocity": 94, "channel": 0}, {"type": "note_on", "time": 10, "note": 63, "velocity": 91, "channel": 0}, {"type": "note_off", "time": 374, "note": 63, "velocity": 91, "channel": 0}, {"type": "note_on", "time": 319, "note": 61, "velocity": 98, "channel": 0}, {"type": "note_off", "time": 64, "note": 61, "velocity": 98, "channel": 0}, {"type": "note_on", "time": 53, "note": 63, "velocity": 111, "channel": 0}, {"type": "note_off", "time": 60, "note": 63, "velocity": 111, "channel": 0}, {"type": "note_on", "time": 17, "note": 65, "velocity": 115, "channel": 0}, {"type": "note_off", "time": 46, "note": 65, "velocity": 115, "channel": 0}, {"type": "note_on", "time": 16, "note": 63, "velocity": 100, "channel": 0}, {"type": "note_off", "time": 23, "note": 63, "velocity": 100, "channel": 0}, {"type": "note_on", "time": 8, "note": 65, "velocity": 97, "channel": 0}, {"type": "note_off", "time": 21, "note": 65, "velocity": 97, "channel": 0}, {"type": "note_on", "time": 18, "note": 63, "velocity": 96, "channel": 0}, {"type": "note_off", "time": 34, "note": 63, "velocity": 96, "channel": 0}, {"type": "note_on", "time": 21, "note": 61, "velocity": 94, "channel": 0}, {"type": "note_off", "time": 80, "note": 61, "velocity": 94, "channel": 0}, {"type": "note_on", "time": 22, "note": 57, "velocity": 90, "channel": 0}, {"type": "note_off", "time": 90, "note": 57, "velocity": 90, "channel": 0}, {"type": "note_on", "time": 6, "note": 58, "velocity": 94, "channel": 0}, {"type": "note_off", "time": 81, "note": 58, "velocity": 94, "channel": 0}, {"type": "note_on", "time": 18, "note": 61, "velocity": 95, "channel": 0}, {"type": "note_off", "time": 56, "note": 61, "velocity": 95, "channel": 0}, {"type": "note_on", "time": 21, "note": 65, "velocity": 119, "channel": 0}, {"type": "note_off", "time": 64, "note": 65, "velocity": 119, "channel": 0}, {"type": "note_on", "time": 48, "note": 68, "velocity": 118, "channel": 0}, {"type": "note_off", "time": 72, "note": 68, "velocity": 118, "channel": 0}, {"type": "note_on", "time": 12, "note": 66, "velocity": 118, "channel": 0}, {"type": "note_off", "time": 68, "note": 66, "velocity": 118, "channel": 0}, {"type": "note_on", "time": 32, "note": 61, "velocity": 90, "channel": 0}, {"type": "note_off", "time": 65, "note": 61, "velocity": 90, "channel": 0}, {"type": "note_on", "time": 21, "note": 58, "velocity": 104, "channel": 0}, {"type": "note_off", "time": 67, "note": 58, "velocity": 104, "channel": 0}, {"type": "note_on", "time": 24, "note": 57, "velocity": 95, "channel": 0}, {"type": "note_off", "time": 106, "note": 57, "velocity": 95, "channel": 0}, {"type": "note_on", "time": 11, "note": 64, "velocity": 97, "channel": 0}, {"type": "note_off", "time": 30, "note": 64, "velocity": 97, "channel": 0}, {"type": "note_on", "time": 4, "note": 65, "velocity": 115, "channel": 0}, {"type": "note_off", "time": 112, "note": 65, "velocity": 115, "channel": 0}, {"type": "note_on", "time": 31, "note": 60, "velocity": 89, "channel": 0}, {"type": "note_off", "time": 55, "note": 60, "velocity": 89, "channel": 0}, {"type": "note_on", "time": 21, "note": 63, "velocity": 113, "channel": 0}, {"type": "note_off", "time": 86, "note": 63, "velocity": 113, "channel": 0}, {"type": "note_on", "time": 35, "note": 61, "velocity": 95, "channel": 0}, {"type": "note_off", "time": 46, "note": 61, "velocity": 95, "channel": 0}, {"type": "note_on", "time": 30, "note": 60, "velocity": 89, "channel": 0}, {"type": "note_off", "time": 80, "note": 60, "velocity": 89, "channel": 0}, {"type": "note_on", "time": 24, "note": 61, "velocity": 89, "channel": 0}, {"type": "note_off", "time": 61, "note": 61, "velocity": 89, "channel": 0}, {"type": "note_on", "time": 15, "note": 65, "velocity": 119, "channel": 0}, {"type": "note_off", "time": 109, "note": 65, "velocity": 119, "channel": 0}, {"type": "note_on", "time": 22, "note": 68, "velocity": 97, "channel": 0}, {"type": "note_off", "time": 32, "note": 68, "velocity": 97, "channel": 0}, {"type": "note_on", "time": 6, "note": 70, "velocity": 124, "channel": 0}, {"type": "note_off", "time": 120, "note": 70, "velocity": 124, "channel": 0}, {"type": "note_on", "time": 21, "note": 73, "velocity": 121, "channel": 0}, {"type": "note_off", "time": 107, "note": 73, "velocity": 121, "channel": 0}, {"type": "note_on", "time": 1049, "note": 79, "velocity": 127, "channel": 0}, {"type": "note_off", "time": 51, "note": 79, "velocity": 127, "channel": 0}, {"type": "note_on", "time": 6, "note": 80, "velocity": 122, "channel": 0}, {"type": "note_off", "time": 250, "note": 80, "velocity": 122, "channel": 0}, {"type": "note_on", "time": 30, "note": 76, "velocity": 115, "channel": 0}, {"type": "note_off", "time": 36, "note": 76, "velocity": 115, "channel": 0}, {"type": "note_on", "time": 15, "note": 73, "velocity": 121, "channel": 0}, {"type": "note_off", "time": 55, "note": 73, "velocity": 121, "channel": 0}, {"type": "note_on", "time": 8, "note": 72, "velocity": 119, "channel": 0}, {"type": "note_off", "time": 179, "note": 72, "velocity": 119, "channel": 0}, {"type": "note_on", "time": 2, "note": 73, "velocity": 119, "channel": 0}, {"type": "note_off", "time": 104, "note": 73, "velocity": 119, "channel": 0}, {"type": "note_on", "time": 216, "note": 68, "velocity": 92, "channel": 0}, {"type": "note_off", "time": 45, "note": 68, "velocity": 92, "channel": 0}, {"type": "note_on", "time": 39, "note": 71, "velocity": 118, "channel": 0}, {"type": "note_off", "time": 85, "note": 71, "velocity": 118, "channel": 0}, {"type": "note_on", "time": 18, "note": 68, "velocity": 98, "channel": 0}, {"type": "note_off", "time": 74, "note": 68, "velocity": 98, "channel": 0}, {"type": "note_on", "time": 12, "note": 70, "velocity": 116, "channel": 0}, {"type": "note_off", "time": 70, "note": 70, "velocity": 116, "channel": 0}, {"type": "note_on", "time": 12, "note": 68, "velocity": 115, "channel": 0}, {"type": "note_off", "time": 76, "note": 68, "velocity": 115, "channel": 0}, {"type": "note_on", "time": 15, "note": 66, "velocity": 105, "channel": 0}, {"type": "note_off", "time": 72, "note": 66, "velocity": 105, "channel": 0}, {"type": "note_on", "time": 15, "note": 64, "velocity": 109, "channel": 0}, {"type": "note_off", "time": 66, "note": 64, "velocity": 109, "channel": 0}, {"type": "note_on", "time": 20, "note": 62, "velocity": 92, "channel": 0}, {"type": "note_off", "time": 84, "note": 62, "velocity": 92, "channel": 0}, {"type": "note_on", "time": 7, "note": 63, "velocity": 106, "channel": 0}, {"type": "note_off", "time": 74, "note": 63, "velocity": 106, "channel": 0}, {"type": "note_on", "time": 21, "note": 66, "velocity": 111, "channel": 0}, {"type": "note_off", "time": 69, "note": 66, "velocity": 111, "channel": 0}, {"type": "note_on", "time": 31, "note": 69, "velocity": 108, "channel": 0}, {"type": "note_off", "time": 83, "note": 69, "velocity": 108, "channel": 0}, {"type": "note_on", "time": 26, "note": 73, "velocity": 116, "channel": 0}, {"type": "note_off", "time": 101, "note": 73, "velocity": 116, "channel": 0}, {"type": "note_on", "time": 0, "note": 70, "velocity": 61, "channel": 0}, {"type": "note_off", "time": 54, "note": 70, "velocity": 61, "channel": 0}, {"type": "note_on", "time": 15, "note": 71, "velocity": 112, "channel": 0}, {"type": "note_off", "time": 87, "note": 71, "velocity": 112, "channel": 0}, {"type": "note_on", "time": 15, "note": 70, "velocity": 103, "channel": 0}, {"type": "note_off", "time": 92, "note": 70, "velocity": 103, "channel": 0}, {"type": "note_on", "time": 10, "note": 69, "velocity": 97, "channel": 0}, {"type": "note_off", "time": 78, "note": 69, "velocity": 97, "channel": 0}, {"type": "note_on", "time": 7, "note": 73, "velocity": 116, "channel": 0}, {"type": "note_off", "time": 79, "note": 73, "velocity": 116, "channel": 0}, {"type": "note_on", "time": 10, "note": 68, "velocity": 94, "channel": 0}, {"type": "note_off", "time": 62, "note": 68, "velocity": 94, "channel": 0}, {"type": "note_on", "time": 25, "note": 66, "velocity": 97, "channel": 0}, {"type": "note_off", "time": 77, "note": 66, "velocity": 97, "channel": 0}, {"type": "note_on", "time": 23, "note": 71, "velocity": 115, "channel": 0}, {"type": "note_off", "time": 78, "note": 71, "velocity": 115, "channel": 0}, {"type": "note_on", "time": 11, "note": 69, "velocity": 111, "channel": 0}, {"type": "note_off", "time": 72, "note": 69, "velocity": 111, "channel": 0}, {"type": "note_on", "time": 19, "note": 66, "velocity": 104, "channel": 0}, {"type": "note_off", "time": 76, "note": 66, "velocity": 104, "channel": 0}, {"type": "note_on", "time": 21, "note": 67, "velocity": 105, "channel": 0}, {"type": "note_off", "time": 76, "note": 67, "velocity": 105, "channel": 0}, {"type": "note_on", "time": 25, "note": 68, "velocity": 102, "channel": 0}, {"type": "note_off", "time": 77, "note": 68, "velocity": 102, "channel": 0}, {"type": "note_on", "time": 33, "note": 59, "velocity": 91, "channel": 0}, {"type": "note_off", "time": 39, "note": 59, "velocity": 91, "channel": 0}, {"type": "note_on", "time": 32, "note": 62, "velocity": 97, "channel": 0}, {"type": "note_off", "time": 77, "note": 62, "velocity": 97, "channel": 0}, {"type": "note_on", "time": 27, "note": 66, "velocity": 111, "channel": 0}, {"type": "note_off", "time": 68, "note": 66, "velocity": 111, "channel": 0}, {"type": "note_on", "time": 22, "note": 69, "velocity": 116, "channel": 0}, {"type": "note_off", "time": 82, "note": 69, "velocity": 116, "channel": 0}, {"type": "note_on", "time": 17, "note": 67, "velocity": 96, "channel": 0}, {"type": "note_off", "time": 64, "note": 67, "velocity": 96, "channel": 0}, {"type": "note_on", "time": 18, "note": 68, "velocity": 101, "channel": 0}, {"type": "note_off", "time": 90, "note": 68, "velocity": 101, "channel": 0}, {"type": "note_on", "time": 11, "note": 71, "velocity": 117, "channel": 0}, {"type": "note_off", "time": 57, "note": 71, "velocity": 117, "channel": 0}, {"type": "note_on", "time": 37, "note": 74, "velocity": 117, "channel": 0}, {"type": "note_off", "time": 85, "note": 74, "velocity": 117, "channel": 0}, {"type": "note_on", "time": 66, "note": 77, "velocity": 113, "channel": 0}, {"type": "note_off", "time": 81, "note": 77, "velocity": 113, "channel": 0}, {"type": "note_on", "time": 59, "note": 77, "velocity": 116, "channel": 0}, {"type": "note_off", "time": 74, "note": 77, "velocity": 116, "channel": 0}, {"type": "note_on", "time": 12, "note": 76, "velocity": 105, "channel": 0}, {"type": "note_off", "time": 30, "note": 76, "velocity": 105, "channel": 0}, {"type": "note_on", "time": 2, "note": 77, "velocity": 111, "channel": 0}, {"type": "note_off", "time": 22, "note": 77, "velocity": 111, "channel": 0}, {"type": "note_on", "time": 18, "note": 76, "velocity": 114, "channel": 0}, {"type": "note_off", "time": 29, "note": 76, "velocity": 114, "channel": 0}, {"type": "note_on", "time": 15, "note": 74, "velocity": 112, "channel": 0}, {"type": "note_off", "time": 60, "note": 74, "velocity": 112, "channel": 0}, {"type": "note_on", "time": 24, "note": 74, "velocity": 108, "channel": 0}, {"type": "note_off", "time": 37, "note": 74, "velocity": 108, "channel": 0}, {"type": "note_on", "time": 6, "note": 73, "velocity": 113, "channel": 0}, {"type": "note_off", "time": 36, "note": 73, "velocity": 113, "channel": 0}, {"type": "note_on", "time": 8, "note": 71, "velocity": 113, "channel": 0}, {"type": "note_off", "time": 78, "note": 71, "velocity": 113, "channel": 0}, {"type": "note_on", "time": 19, "note": 68, "velocity": 98, "channel": 0}, {"type": "note_off", "time": 41, "note": 68, "velocity": 98, "channel": 0}, {"type": "note_on", "time": 7, "note": 69, "velocity": 88, "channel": 0}, {"type": "note_off", "time": 40, "note": 69, "velocity": 88, "channel": 0}, {"type": "note_on", "time": 19, "note": 70, "velocity": 100, "channel": 0}, {"type": "note_off", "time": 49, "note": 70, "velocity": 100, "channel": 0}, {"type": "note_on", "time": 15, "note": 71, "velocity": 119, "channel": 0}, {"type": "note_off", "time": 97, "note": 71, "velocity": 119, "channel": 0}, {"type": "note_on", "time": 24, "note": 68, "velocity": 93, "channel": 0}, {"type": "note_off", "time": 53, "note": 68, "velocity": 93, "channel": 0}, {"type": "note_on", "time": 13, "note": 69, "velocity": 112, "channel": 0}, {"type": "note_off", "time": 78, "note": 69, "velocity": 112, "channel": 0}, {"type": "note_on", "time": 23, "note": 64, "velocity": 112, "channel": 0}, {"type": "note_off", "time": 65, "note": 64, "velocity": 112, "channel": 0}, {"type": "note_on", "time": 15, "note": 61, "velocity": 84, "channel": 0}, {"type": "note_off", "time": 80, "note": 61, "velocity": 84, "channel": 0}, {"type": "note_on", "time": 24, "note": 57, "velocity": 90, "channel": 0}, {"type": "note_off", "time": 55, "note": 57, "velocity": 90, "channel": 0}, {"type": "note_on", "time": 30, "note": 68, "velocity": 104, "channel": 0}, {"type": "note_off", "time": 30, "note": 68, "velocity": 104, "channel": 0}, {"type": "note_on", "time": 2, "note": 70, "velocity": 113, "channel": 0}, {"type": "note_off", "time": 28, "note": 70, "velocity": 113, "channel": 0}, {"type": "note_on", "time": 7, "note": 68, "velocity": 98, "channel": 0}, {"type": "note_off", "time": 24, "note": 68, "velocity": 98, "channel": 0}, {"type": "note_on", "time": 15, "note": 66, "velocity": 104, "channel": 0}, {"type": "note_off", "time": 74, "note": 66, "velocity": 104, "channel": 0}, {"type": "note_on", "time": 10, "note": 65, "velocity": 103, "channel": 0}, {"type": "note_off", "time": 78, "note": 65, "velocity": 103, "channel": 0}, {"type": "note_on", "time": 22, "note": 63, "velocity": 108, "channel": 0}, {"type": "note_off", "time": 84, "note": 63, "velocity": 108, "channel": 0}, {"type": "note_on", "time": 14, "note": 62, "velocity": 93, "channel": 0}, {"type": "note_off", "time": 83, "note": 62, "velocity": 93, "channel": 0}, {"type": "note_on", "time": 15, "note": 56, "velocity": 101, "channel": 0}, {"type": "note_off", "time": 56, "note": 56, "velocity": 101, "channel": 0}, {"type": "note_on", "time": 21, "note": 62, "velocity": 100, "channel": 0}, {"type": "note_off", "time": 87, "note": 62, "velocity": 100, "channel": 0}, {"type": "note_on", "time": 18, "note": 56, "velocity": 87, "channel": 0}, {"type": "note_off", "time": 61, "note": 56, "velocity": 87, "channel": 0}, {"type": "note_on", "time": 25, "note": 63, "velocity": 87, "channel": 0}, {"type": "note_off", "time": 554, "note": 63, "velocity": 87, "channel": 0}, {"type": "note_on", "time": 483, "note": 63, "velocity": 108, "channel": 0}, {"type": "note_off", "time": 60, "note": 63, "velocity": 108, "channel": 0}, {"type": "note_on", "time": 4, "note": 64, "velocity": 100, "channel": 0}, {"type": "note_off", "time": 208, "note": 64, "velocity": 100, "channel": 0}, {"type": "note_on", "time": 21, "note": 63, "velocity": 95, "channel": 0}, {"type": "note_off", "time": 508, "note": 63, "velocity": 95, "channel": 0}, {"type": "note_on", "time": 14, "note": 64, "velocity": 93, "channel": 0}, {"type": "note_off", "time": 178, "note": 64, "velocity": 93, "channel": 0}, {"type": "note_on", "time": 5, "note": 56, "velocity": 85, "channel": 0}, {"type": "note_off", "time": 48, "note": 56, "velocity": 85, "channel": 0}, {"type": "note_on", "time": 19, "note": 63, "velocity": 86, "channel": 0}, {"type": "note_off", "time": 386, "note": 63, "velocity": 86, "channel": 0}, {"type": "note_on", "time": 898, "note": 70, "velocity": 121, "channel": 0}, {"type": "note_off", "time": 68, "note": 70, "velocity": 121, "channel": 0}, {"type": "note_on", "time": 9, "note": 70, "velocity": 116, "channel": 0}, {"type": "note_off", "time": 97, "note": 70, "velocity": 116, "channel": 0}, {"type": "note_on", "time": 16, "note": 70, "velocity": 98, "channel": 0}, {"type": "note_off", "time": 100, "note": 70, "velocity": 98, "channel": 0}, {"type": "note_on", "time": 9, "note": 70, "velocity": 91, "channel": 0}, {"type": "note_off", "time": 60, "note": 70, "velocity": 91, "channel": 0}, {"type": "note_on", "time": 6, "note": 70, "velocity": 113, "channel": 0}, {"type": "note_off", "time": 67, "note": 70, "velocity": 113, "channel": 0}, {"type": "note_on", "time": 16, "note": 70, "velocity": 81, "channel": 0}, {"type": "note_off", "time": 145, "note": 70, "velocity": 81, "channel": 0}, {"type": "note_on", "time": 21, "note": 70, "velocity": 103, "channel": 0}, {"type": "note_off", "time": 94, "note": 70, "velocity": 103, "channel": 0}, {"type": "note_on", "time": 108, "note": 76, "velocity": 109, "channel": 0}, {"type": "note_off", "time": 67, "note": 76, "velocity": 109, "channel": 0}, {"type": "note_on", "time": 9, "note": 77, "velocity": 123, "channel": 0}, {"type": "note_off", "time": 269, "note": 77, "velocity": 123, "channel": 0}, {"type": "note_on", "time": 23, "note": 73, "velocity": 115, "channel": 0}, {"type": "note_off", "time": 118, "note": 73, "velocity": 115, "channel": 0}, {"type": "note_on", "time": 8, "note": 70, "velocity": 102, "channel": 0}, {"type": "note_off", "time": 254, "note": 70, "velocity": 102, "channel": 0}, {"type": "note_on", "time": 18, "note": 70, "velocity": 110, "channel": 0}, {"type": "note_off", "time": 98, "note": 70, "velocity": 110, "channel": 0}, {"type": "note_on", "time": 1106, "note": 80, "velocity": 124, "channel": 0}, {"type": "note_off", "time": 76, "note": 80, "velocity": 124, "channel": 0}, {"type": "note_on", "time": 14, "note": 82, "velocity": 125, "channel": 0}, {"type": "note_off", "time": 83, "note": 82, "velocity": 125, "channel": 0}, {"type": "note_on", "time": 20, "note": 84, "velocity": 125, "channel": 0}, {"type": "note_off", "time": 108, "note": 84, "velocity": 125, "channel": 0}, {"type": "note_on", "time": 10, "note": 85, "velocity": 126, "channel": 0}, {"type": "note_off", "time": 118, "note": 85, "velocity": 126, "channel": 0}, {"type": "note_on", "time": 339, "note": 80, "velocity": 123, "channel": 0}, {"type": "note_off", "time": 74, "note": 80, "velocity": 123, "channel": 0}, {"type": "note_on", "time": 24, "note": 82, "velocity": 124, "channel": 0}, {"type": "note_off", "time": 71, "note": 82, "velocity": 124, "channel": 0}, {"type": "note_on", "time": 10, "note": 84, "velocity": 125, "channel": 0}, {"type": "note_off", "time": 85, "note": 84, "velocity": 125, "channel": 0}, {"type": "note_on", "time": 12, "note": 85, "velocity": 120, "channel": 0}, {"type": "note_off", "time": 88, "note": 85, "velocity": 120, "channel": 0}, {"type": "note_on", "time": 2, "note": 84, "velocity": 121, "channel": 0}, {"type": "note_off", "time": 83, "note": 84, "velocity": 121, "channel": 0}, {"type": "note_on", "time": 9, "note": 82, "velocity": 119, "channel": 0}, {"type": "note_off", "time": 94, "note": 82, "velocity": 119, "channel": 0}, {"type": "note_on", "time": 5, "note": 81, "velocity": 121, "channel": 0}, {"type": "note_off", "time": 82, "note": 81, "velocity": 121, "channel": 0}, {"type": "note_on", "time": 1, "note": 82, "velocity": 91, "channel": 0}, {"type": "note_off", "time": 37, "note": 82, "velocity": 91, "channel": 0}, {"type": "note_on", "time": 6, "note": 80, "velocity": 113, "channel": 0}, {"type": "note_off", "time": 53, "note": 80, "velocity": 113, "channel": 0}, {"type": "note_on", "time": 7, "note": 79, "velocity": 115, "channel": 0}, {"type": "note_off", "time": 74, "note": 79, "velocity": 115, "channel": 0}, {"type": "note_on", "time": 19, "note": 78, "velocity": 117, "channel": 0}, {"type": "note_off", "time": 95, "note": 78, "velocity": 117, "channel": 0}, {"type": "note_on", "time": 9, "note": 82, "velocity": 116, "channel": 0}, {"type": "note_off", "time": 57, "note": 82, "velocity": 116, "channel": 0}, {"type": "note_on", "time": 41, "note": 77, "velocity": 115, "channel": 0}, {"type": "note_off", "time": 113, "note": 77, "velocity": 115, "channel": 0}, {"type": "note_on", "time": 9, "note": 75, "velocity": 116, "channel": 0}, {"type": "note_off", "time": 112, "note": 75, "velocity": 116, "channel": 0}, {"type": "note_on", "time": 67, "note": 80, "velocity": 122, "channel": 0}, {"type": "note_off", "time": 91, "note": 80, "velocity": 122, "channel": 0}, {"type": "note_on", "time": 21, "note": 84, "velocity": 120, "channel": 0}, {"type": "note_off", "time": 65, "note": 84, "velocity": 120, "channel": 0}, {"type": "note_on", "time": 11, "note": 77, "velocity": 122, "channel": 0}, {"type": "note_off", "time": 81, "note": 77, "velocity": 122, "channel": 0}, {"type": "note_on", "time": 8, "note": 75, "velocity": 115, "channel": 0}, {"type": "note_off", "time": 87, "note": 75, "velocity": 115, "channel": 0}, {"type": "note_on", "time": 8, "note": 73, "velocity": 121, "channel": 0}, {"type": "note_off", "time": 77, "note": 73, "velocity": 121, "channel": 0}, {"type": "note_on", "time": 20, "note": 74, "velocity": 116, "channel": 0}, {"type": "note_off", "time": 94, "note": 74, "velocity": 116, "channel": 0}, {"type": "note_on", "time": 9, "note": 65, "velocity": 91, "channel": 0}, {"type": "note_off", "time": 59, "note": 65, "velocity": 91, "channel": 0}, {"type": "note_on", "time": 18, "note": 68, "velocity": 93, "channel": 0}, {"type": "note_off", "time": 97, "note": 68, "velocity": 93, "channel": 0}, {"type": "note_on", "time": 20, "note": 71, "velocity": 113, "channel": 0}, {"type": "note_off", "time": 75, "note": 71, "velocity": 113, "channel": 0}, {"type": "note_on", "time": 5, "note": 70, "velocity": 96, "channel": 0}, {"type": "note_off", "time": 72, "note": 70, "velocity": 96, "channel": 0}, {"type": "note_on", "time": 36, "note": 59, "velocity": 78, "channel": 0}, {"type": "note_off", "time": 44, "note": 59, "velocity": 78, "channel": 0}, {"type": "note_on", "time": 17, "note": 63, "velocity": 94, "channel": 0}, {"type": "note_off", "time": 94, "note": 63, "velocity": 94, "channel": 0}, {"type": "note_on", "time": 24, "note": 66, "velocity": 103, "channel": 0}, {"type": "note_off", "time": 74, "note": 66, "velocity": 103, "channel": 0}, {"type": "note_on", "time": 37, "note": 61, "velocity": 85, "channel": 0}, {"type": "note_off", "time": 32, "note": 61, "velocity": 85, "channel": 0}, {"type": "note_on", "time": 10, "note": 63, "velocity": 87, "channel": 0}, {"type": "note_off", "time": 46, "note": 63, "velocity": 87, "channel": 0}, {"type": "note_on", "time": 3, "note": 64, "velocity": 105, "channel": 0}, {"type": "note_off", "time": 41, "note": 64, "velocity": 105, "channel": 0}, {"type": "note_on", "time": 14, "note": 65, "velocity": 110, "channel": 0}, {"type": "note_off", "time": 111, "note": 65, "velocity": 110, "channel": 0}, {"type": "note_on", "time": 28, "note": 62, "velocity": 84, "channel": 0}, {"type": "note_off", "time": 55, "note": 62, "velocity": 84, "channel": 0}, {"type": "note_on", "time": 5, "note": 63, "velocity": 94, "channel": 0}, {"type": "note_off", "time": 96, "note": 63, "velocity": 94, "channel": 0}, {"type": "note_on", "time": 12, "note": 66, "velocity": 105, "channel": 0}, {"type": "note_off", "time": 62, "note": 66, "velocity": 105, "channel": 0}, {"type": "note_on", "time": 31, "note": 70, "velocity": 96, "channel": 0}, {"type": "note_off", "time": 71, "note": 70, "velocity": 96, "channel": 0}, {"type": "note_on", "time": 18, "note": 73, "velocity": 115, "channel": 0}, {"type": "note_off", "time": 67, "note": 73, "velocity": 115, "channel": 0}, {"type": "note_on", "time": 6, "note": 72, "velocity": 96, "channel": 0}, {"type": "note_off", "time": 24, "note": 72, "velocity": 96, "channel": 0}, {"type": "note_on", "time": 8, "note": 74, "velocity": 104, "channel": 0}, {"type": "note_off", "time": 25, "note": 74, "velocity": 104, "channel": 0}, {"type": "note_on", "time": 6, "note": 72, "velocity": 97, "channel": 0}, {"type": "note_off", "time": 33, "note": 72, "velocity": 97, "channel": 0}, {"type": "note_on", "time": 11, "note": 70, "velocity": 106, "channel": 0}, {"type": "note_off", "time": 69, "note": 70, "velocity": 106, "channel": 0}, {"type": "note_on", "time": 3, "note": 68, "velocity": 92, "channel": 0}, {"type": "note_off", "time": 15, "note": 68, "velocity": 92, "channel": 0}, {"type": "note_on", "time": 8, "note": 70, "velocity": 87, "channel": 0}, {"type": "note_off", "time": 24, "note": 70, "velocity": 87, "channel": 0}, {"type": "note_on", "time": 12, "note": 68, "velocity": 90, "channel": 0}, {"type": "note_off", "time": 46, "note": 68, "velocity": 90, "channel": 0}, {"type": "note_on", "time": 20, "note": 66, "velocity": 103, "channel": 0}, {"type": "note_off", "time": 65, "note": 66, "velocity": 103, "channel": 0}, {"type": "note_on", "time": 10, "note": 65, "velocity": 89, "channel": 0}, {"type": "note_off", "time": 44, "note": 65, "velocity": 89, "channel": 0}, {"type": "note_on", "time": 15, "note": 68, "velocity": 80, "channel": 0}, {"type": "note_off", "time": 34, "note": 68, "velocity": 80, "channel": 0}, {"type": "note_on", "time": 13, "note": 72, "velocity": 103, "channel": 0}, {"type": "note_off", "time": 68, "note": 72, "velocity": 103, "channel": 0}, {"type": "note_on", "time": 11, "note": 75, "velocity": 115, "channel": 0}, {"type": "note_off", "time": 109, "note": 75, "velocity": 115, "channel": 0}, {"type": "note_on", "time": 12, "note": 72, "velocity": 9, "channel": 0}, {"type": "note_off", "time": 62, "note": 72, "velocity": 9, "channel": 0}, {"type": "note_on", "time": 4, "note": 74, "velocity": 111, "channel": 0}, {"type": "note_off", "time": 99, "note": 74, "velocity": 111, "channel": 0}, {"type": "note_on", "time": 16, "note": 71, "velocity": 113, "channel": 0}, {"type": "note_off", "time": 66, "note": 71, "velocity": 113, "channel": 0}, {"type": "note_on", "time": 10, "note": 67, "velocity": 101, "channel": 0}, {"type": "note_off", "time": 31, "note": 67, "velocity": 101, "channel": 0}, {"type": "note_on", "time": 2, "note": 68, "velocity": 91, "channel": 0}, {"type": "note_off", "time": 27, "note": 68, "velocity": 91, "channel": 0}, {"type": "note_on", "time": 6, "note": 67, "velocity": 92, "channel": 0}, {"type": "note_off", "time": 18, "note": 67, "velocity": 92, "channel": 0}, {"type": "note_on", "time": 9, "note": 64, "velocity": 100, "channel": 0}, {"type": "note_off", "time": 80, "note": 64, "velocity": 100, "channel": 0}, {"type": "note_on", "time": 20, "note": 63, "velocity": 99, "channel": 0}, {"type": "note_off", "time": 212, "note": 63, "velocity": 99, "channel": 0}, {"type": "note_on", "time": 21, "note": 66, "velocity": 87, "channel": 0}, {"type": "note_off", "time": 29, "note": 66, "velocity": 87, "channel": 0}, {"type": "note_on", "time": 7, "note": 68, "velocity": 78, "channel": 0}, {"type": "note_off", "time": 13, "note": 68, "velocity": 78, "channel": 0}, {"type": "note_on", "time": 9, "note": 70, "velocity": 85, "channel": 0}, {"type": "note_off", "time": 12, "note": 70, "velocity": 85, "channel": 0}, {"type": "note_on", "time": 19, "note": 73, "velocity": 105, "channel": 0}, {"type": "note_off", "time": 92, "note": 73, "velocity": 105, "channel": 0}, {"type": "note_on", "time": 10, "note": 72, "velocity": 83, "channel": 0}, {"type": "note_off", "time": 56, "note": 72, "velocity": 83, "channel": 0}, {"type": "note_on", "time": 13, "note": 70, "velocity": 101, "channel": 0}, {"type": "note_off", "time": 59, "note": 70, "velocity": 101, "channel": 0}, {"type": "note_on", "time": 10, "note": 68, "velocity": 89, "channel": 0}, {"type": "note_off", "time": 19, "note": 68, "velocity": 89, "channel": 0}, {"type": "note_on", "time": 5, "note": 70, "velocity": 88, "channel": 0}, {"type": "note_off", "time": 20, "note": 70, "velocity": 88, "channel": 0}, {"type": "note_on", "time": 13, "note": 68, "velocity": 88, "channel": 0}, {"type": "note_off", "time": 41, "note": 68, "velocity": 88, "channel": 0}, {"type": "note_on", "time": 20, "note": 66, "velocity": 105, "channel": 0}, {"type": "note_off", "time": 65, "note": 66, "velocity": 105, "channel": 0}, {"type": "note_on", "time": 5, "note": 65, "velocity": 101, "channel": 0}, {"type": "note_off", "time": 96, "note": 65, "velocity": 101, "channel": 0}, {"type": "note_on", "time": 55, "note": 60, "velocity": 81, "channel": 0}, {"type": "note_off", "time": 26, "note": 60, "velocity": 81, "channel": 0}, {"type": "note_on", "time": 15, "note": 63, "velocity": 88, "channel": 0}, {"type": "note_off", "time": 27, "note": 63, "velocity": 88, "channel": 0}, {"type": "note_on", "time": 12, "note": 65, "velocity": 96, "channel": 0}, {"type": "note_off", "time": 21, "note": 65, "velocity": 96, "channel": 0}, {"type": "note_on", "time": 10, "note": 63, "velocity": 95, "channel": 0}, {"type": "note_off", "time": 35, "note": 63, "velocity": 95, "channel": 0}, {"type": "note_on", "time": 9, "note": 60, "velocity": 87, "channel": 0}, {"type": "note_off", "time": 36, "note": 60, "velocity": 87, "channel": 0}, {"type": "note_on", "time": 5, "note": 61, "velocity": 78, "channel": 0}, {"type": "note_off", "time": 43, "note": 61, "velocity": 78, "channel": 0}, {"type": "note_on", "time": 54, "note": 68, "velocity": 92, "channel": 0}, {"type": "note_off", "time": 34, "note": 68, "velocity": 92, "channel": 0}, {"type": "note_on", "time": 12, "note": 72, "velocity": 109, "channel": 0}, {"type": "note_off", "time": 69, "note": 72, "velocity": 109, "channel": 0}, {"type": "note_on", "time": 15, "note": 70, "velocity": 104, "channel": 0}, {"type": "note_off", "time": 116, "note": 70, "velocity": 104, "channel": 0}, {"type": "note_on", "time": 16, "note": 65, "velocity": 90, "channel": 0}, {"type": "note_off", "time": 49, "note": 65, "velocity": 90, "channel": 0}, {"type": "note_on", "time": 13, "note": 68, "velocity": 102, "channel": 0}, {"type": "note_off", "time": 115, "note": 68, "velocity": 102, "channel": 0}, {"type": "note_on", "time": 17, "note": 66, "velocity": 103, "channel": 0}, {"type": "note_off", "time": 109, "note": 66, "velocity": 103, "channel": 0}, {"type": "note_on", "time": 432, "note": 70, "velocity": 97, "channel": 0}, {"type": "note_off", "time": 28, "note": 70, "velocity": 97, "channel": 0}, {"type": "note_on", "time": 10, "note": 69, "velocity": 102, "channel": 0}, {"type": "note_off", "time": 29, "note": 69, "velocity": 102, "channel": 0}, {"type": "note_on", "time": 10, "note": 68, "velocity": 92, "channel": 0}, {"type": "note_off", "time": 40, "note": 68, "velocity": 92, "channel": 0}, {"type": "note_on", "time": 18, "note": 65, "velocity": 79, "channel": 0}, {"type": "note_off", "time": 32, "note": 65, "velocity": 79, "channel": 0}, {"type": "note_on", "time": 5, "note": 66, "velocity": 97, "channel": 0}, {"type": "note_off", "time": 32, "note": 66, "velocity": 97, "channel": 0}, {"type": "note_on", "time": 7, "note": 64, "velocity": 98, "channel": 0}, {"type": "note_off", "time": 32, "note": 64, "velocity": 98, "channel": 0}, {"type": "note_on", "time": 1, "note": 65, "velocity": 104, "channel": 0}, {"type": "note_off", "time": 32, "note": 65, "velocity": 104, "channel": 0}, {"type": "note_on", "time": 6, "note": 64, "velocity": 100, "channel": 0}, {"type": "note_off", "time": 44, "note": 64, "velocity": 100, "channel": 0}, {"type": "note_on", "time": 3, "note": 63, "velocity": 98, "channel": 0}, {"type": "note_off", "time": 36, "note": 63, "velocity": 98, "channel": 0}, {"type": "note_on", "time": 7, "note": 62, "velocity": 95, "channel": 0}, {"type": "note_off", "time": 40, "note": 62, "velocity": 95, "channel": 0}, {"type": "note_on", "time": 13, "note": 61, "velocity": 83, "channel": 0}, {"type": "note_off", "time": 37, "note": 61, "velocity": 83, "channel": 0}, {"type": "note_on", "time": 36, "note": 56, "velocity": 84, "channel": 0}, {"type": "note_off", "time": 146, "note": 56, "velocity": 84, "channel": 0}, {"type": "note_on", "time": 12, "note": 56, "velocity": 96, "channel": 0}, {"type": "note_off", "time": 207, "note": 56, "velocity": 96, "channel": 0}, {"type": "note_on", "time": 363, "note": 71, "velocity": 110, "channel": 0}, {"type": "note_off", "time": 36, "note": 71, "velocity": 110, "channel": 0}, {"type": "note_on", "time": 6, "note": 72, "velocity": 108, "channel": 0}, {"type": "note_off", "time": 37, "note": 72, "velocity": 108, "channel": 0}, {"type": "note_on", "time": 29, "note": 71, "velocity": 108, "channel": 0}, {"type": "note_off", "time": 65, "note": 71, "velocity": 108, "channel": 0}, {"type": "note_on", "time": 19, "note": 70, "velocity": 84, "channel": 0}, {"type": "note_off", "time": 71, "note": 70, "velocity": 84, "channel": 0}, {"type": "note_on", "time": 36, "note": 69, "velocity": 111, "channel": 0}, {"type": "note_off", "time": 50, "note": 69, "velocity": 111, "channel": 0}, {"type": "note_on", "time": 8, "note": 68, "velocity": 93, "channel": 0}, {"type": "note_off", "time": 29, "note": 68, "velocity": 93, "channel": 0}, {"type": "note_on", "time": 8, "note": 70, "velocity": 86, "channel": 0}, {"type": "note_off", "time": 19, "note": 70, "velocity": 86, "channel": 0}, {"type": "note_on", "time": 11, "note": 68, "velocity": 99, "channel": 0}, {"type": "note_off", "time": 35, "note": 68, "velocity": 99, "channel": 0}, {"type": "note_on", "time": 11, "note": 67, "velocity": 104, "channel": 0}, {"type": "note_off", "time": 56, "note": 67, "velocity": 104, "channel": 0}, {"type": "note_on", "time": 5, "note": 66, "velocity": 92, "channel": 0}, {"type": "note_off", "time": 43, "note": 66, "velocity": 92, "channel": 0}, {"type": "note_on", "time": 29, "note": 70, "velocity": 80, "channel": 0}, {"type": "note_off", "time": 27, "note": 70, "velocity": 80, "channel": 0}, {"type": "note_on", "time": 8, "note": 73, "velocity": 112, "channel": 0}, {"type": "note_off", "time": 86, "note": 73, "velocity": 112, "channel": 0}, {"type": "note_on", "time": 36, "note": 76, "velocity": 120, "channel": 0}, {"type": "note_off", "time": 66, "note": 76, "velocity": 120, "channel": 0}, {"type": "note_on", "time": 4, "note": 77, "velocity": 114, "channel": 0}, {"type": "note_off", "time": 80, "note": 77, "velocity": 114, "channel": 0}, {"type": "note_on", "time": 24, "note": 75, "velocity": 116, "channel": 0}, {"type": "note_off", "time": 83, "note": 75, "velocity": 116, "channel": 0}, {"type": "note_on", "time": 14, "note": 73, "velocity": 119, "channel": 0}, {"type": "note_off", "time": 74, "note": 73, "velocity": 119, "channel": 0}, {"type": "note_on", "time": 18, "note": 72, "velocity": 94, "channel": 0}, {"type": "note_off", "time": 69, "note": 72, "velocity": 94, "channel": 0}, {"type": "note_on", "time": 24, "note": 70, "velocity": 110, "channel": 0}, {"type": "note_off", "time": 61, "note": 70, "velocity": 110, "channel": 0}, {"type": "note_on", "time": 26, "note": 68, "velocity": 97, "channel": 0}, {"type": "note_off", "time": 79, "note": 68, "velocity": 97, "channel": 0}, {"type": "note_on", "time": 22, "note": 67, "velocity": 108, "channel": 0}, {"type": "note_off", "time": 66, "note": 67, "velocity": 108, "channel": 0}, {"type": "note_on", "time": 28, "note": 66, "velocity": 101, "channel": 0}, {"type": "note_off", "time": 77, "note": 66, "velocity": 101, "channel": 0}, {"type": "note_on", "time": 50, "note": 76, "velocity": 108, "channel": 0}, {"type": "note_off", "time": 21, "note": 76, "velocity": 108, "channel": 0}, {"type": "note_on", "time": 4, "note": 77, "velocity": 110, "channel": 0}, {"type": "note_off", "time": 68, "note": 77, "velocity": 110, "channel": 0}, {"type": "note_on", "time": 60, "note": 72, "velocity": 117, "channel": 0}, {"type": "note_off", "time": 89, "note": 72, "velocity": 117, "channel": 0}, {"type": "note_on", "time": 31, "note": 75, "velocity": 119, "channel": 0}, {"type": "note_off", "time": 72, "note": 75, "velocity": 119, "channel": 0}, {"type": "note_on", "time": 12, "note": 73, "velocity": 114, "channel": 0}, {"type": "note_off", "time": 76, "note": 73, "velocity": 114, "channel": 0}, {"type": "note_on", "time": 19, "note": 72, "velocity": 96, "channel": 0}, {"type": "note_off", "time": 73, "note": 72, "velocity": 96, "channel": 0}, {"type": "note_on", "time": 10, "note": 73, "velocity": 109, "channel": 0}, {"type": "note_off", "time": 84, "note": 73, "velocity": 109, "channel": 0}, {"type": "note_on", "time": 19, "note": 68, "velocity": 86, "channel": 0}, {"type": "note_off", "time": 68, "note": 68, "velocity": 86, "channel": 0}, {"type": "note_on", "time": 18, "note": 65, "velocity": 110, "channel": 0}, {"type": "note_off", "time": 80, "note": 65, "velocity": 110, "channel": 0}, {"type": "note_on", "time": 17, "note": 63, "velocity": 102, "channel": 0}, {"type": "note_off", "time": 85, "note": 63, "velocity": 102, "channel": 0}, {"type": "note_on", "time": 7, "note": 61, "velocity": 93, "channel": 0}, {"type": "note_off", "time": 69, "note": 61, "velocity": 93, "channel": 0}, {"type": "note_on", "time": 6, "note": 60, "velocity": 78, "channel": 0}, {"type": "note_off", "time": 92, "note": 60, "velocity": 78, "channel": 0}, {"type": "note_on", "time": 27, "note": 61, "velocity": 79, "channel": 0}, {"type": "note_off", "time": 52, "note": 61, "velocity": 79, "channel": 0}, {"type": "note_on", "time": 26, "note": 65, "velocity": 104, "channel": 0}, {"type": "note_off", "time": 79, "note": 65, "velocity": 104, "channel": 0}, {"type": "note_on", "time": 28, "note": 68, "velocity": 97, "channel": 0}, {"type": "note_off", "time": 76, "note": 68, "velocity": 97, "channel": 0}, {"type": "note_on", "time": 18, "note": 72, "velocity": 104, "channel": 0}, {"type": "note_off", "time": 71, "note": 72, "velocity": 104, "channel": 0}, {"type": "note_on", "time": 17, "note": 75, "velocity": 112, "channel": 0}, {"type": "note_off", "time": 85, "note": 75, "velocity": 112, "channel": 0}, {"type": "note_on", "time": 15, "note": 73, "velocity": 107, "channel": 0}, {"type": "note_off", "time": 75, "note": 73, "velocity": 107, "channel": 0}, {"type": "note_on", "time": 25, "note": 71, "velocity": 99, "channel": 0}, {"type": "note_off", "time": 92, "note": 71, "velocity": 99, "channel": 0}, {"type": "note_on", "time": 21, "note": 68, "velocity": 86, "channel": 0}, {"type": "note_off", "time": 62, "note": 68, "velocity": 86, "channel": 0}, {"type": "note_on", "time": 20, "note": 69, "velocity": 96, "channel": 0}, {"type": "note_off", "time": 81, "note": 69, "velocity": 96, "channel": 0}, {"type": "note_on", "time": 18, "note": 70, "velocity": 99, "channel": 0}, {"type": "note_off", "time": 125, "note": 70, "velocity": 99, "channel": 0}, {"type": "note_on", "time": 43, "note": 65, "velocity": 96, "channel": 0}, {"type": "note_off", "time": 83, "note": 65, "velocity": 96, "channel": 0}, {"type": "note_on", "time": 27, "note": 68, "velocity": 112, "channel": 0}, {"type": "note_off", "time": 81, "note": 68, "velocity": 112, "channel": 0}, {"type": "note_on", "time": 13, "note": 63, "velocity": 94, "channel": 0}, {"type": "note_off", "time": 94, "note": 63, "velocity": 94, "channel": 0}, {"type": "note_on", "time": 25, "note": 60, "velocity": 80, "channel": 0}, {"type": "note_off", "time": 62, "note": 60, "velocity": 80, "channel": 0}, {"type": "note_on", "time": 6, "note": 61, "velocity": 78, "channel": 0}, {"type": "note_off", "time": 80, "note": 61, "velocity": 78, "channel": 0}, {"type": "note_on", "time": 23, "note": 63, "velocity": 91, "channel": 0}, {"type": "note_off", "time": 81, "note": 63, "velocity": 91, "channel": 0}, {"type": "note_on", "time": 18, "note": 64, "velocity": 94, "channel": 0}, {"type": "note_off", "time": 79, "note": 64, "velocity": 94, "channel": 0}, {"type": "note_on", "time": 9, "note": 66, "velocity": 106, "channel": 0}, {"type": "note_off", "time": 78, "note": 66, "velocity": 106, "channel": 0}, {"type": "note_on", "time": 26, "note": 68, "velocity": 90, "channel": 0}, {"type": "note_off", "time": 70, "note": 68, "velocity": 90, "channel": 0}, {"type": "note_on", "time": 14, "note": 71, "velocity": 108, "channel": 0}, {"type": "note_off", "time": 72, "note": 71, "velocity": 108, "channel": 0}, {"type": "note_on", "time": 29, "note": 70, "velocity": 82, "channel": 0}, {"type": "note_off", "time": 70, "note": 70, "velocity": 82, "channel": 0}, {"type": "note_on", "time": 20, "note": 63, "velocity": 89, "channel": 0}, {"type": "note_off", "time": 62, "note": 63, "velocity": 89, "channel": 0}, {"type": "note_on", "time": 21, "note": 69, "velocity": 107, "channel": 0}, {"type": "note_off", "time": 96, "note": 69, "velocity": 107, "channel": 0}, {"type": "note_on", "time": 15, "note": 66, "velocity": 91, "channel": 0}, {"type": "note_off", "time": 51, "note": 66, "velocity": 91, "channel": 0}, {"type": "note_on", "time": 24, "note": 68, "velocity": 110, "channel": 0}, {"type": "note_off", "time": 85, "note": 68, "velocity": 110, "channel": 0}, {"type": "note_on", "time": 23, "note": 63, "velocity": 83, "channel": 0}, {"type": "note_off", "time": 56, "note": 63, "velocity": 83, "channel": 0}, {"type": "note_on", "time": 5, "note": 64, "velocity": 109, "channel": 0}, {"type": "note_off", "time": 106, "note": 64, "velocity": 109, "channel": 0}, {"type": "note_on", "time": 30, "note": 61, "velocity": 77, "channel": 0}, {"type": "note_off", "time": 42, "note": 61, "velocity": 77, "channel": 0}, {"type": "note_on", "time": 39, "note": 63, "velocity": 104, "channel": 0}, {"type": "note_off", "time": 117, "note": 63, "velocity": 104, "channel": 0}, {"type": "note_on", "time": 186, "note": 73, "velocity": 119, "channel": 0}, {"type": "note_off", "time": 73, "note": 73, "velocity": 119, "channel": 0}, {"type": "note_on", "time": 15, "note": 71, "velocity": 108, "channel": 0}, {"type": "note_off", "time": 73, "note": 71, "velocity": 108, "channel": 0}, {"type": "note_on", "time": 13, "note": 69, "velocity": 110, "channel": 0}, {"type": "note_off", "time": 89, "note": 69, "velocity": 110, "channel": 0}, {"type": "note_on", "time": 11, "note": 68, "velocity": 109, "channel": 0}, {"type": "note_off", "time": 79, "note": 68, "velocity": 109, "channel": 0}, {"type": "note_on", "time": 14, "note": 66, "velocity": 112, "channel": 0}, {"type": "note_off", "time": 74, "note": 66, "velocity": 112, "channel": 0}, {"type": "note_on", "time": 11, "note": 64, "velocity": 103, "channel": 0}, {"type": "note_off", "time": 91, "note": 64, "velocity": 103, "channel": 0}, {"type": "note_on", "time": 12, "note": 62, "velocity": 92, "channel": 0}, {"type": "note_off", "time": 77, "note": 62, "velocity": 92, "channel": 0}, {"type": "note_on", "time": 12, "note": 63, "velocity": 89, "channel": 0}, {"type": "note_off", "time": 76, "note": 63, "velocity": 89, "channel": 0}, {"type": "note_on", "time": 17, "note": 64, "velocity": 107, "channel": 0}, {"type": "note_off", "time": 71, "note": 64, "velocity": 107, "channel": 0}, {"type": "note_on", "time": 17, "note": 66, "velocity": 107, "channel": 0}, {"type": "note_off", "time": 72, "note": 66, "velocity": 107, "channel": 0}, {"type": "note_on", "time": 25, "note": 69, "velocity": 111, "channel": 0}, {"type": "note_off", "time": 63, "note": 69, "velocity": 111, "channel": 0}, {"type": "note_on", "time": 13, "note": 73, "velocity": 101, "channel": 0}, {"type": "note_off", "time": 26, "note": 73, "velocity": 101, "channel": 0}, {"type": "note_on", "time": 3, "note": 74, "velocity": 109, "channel": 0}, {"type": "note_off", "time": 28, "note": 74, "velocity": 109, "channel": 0}, {"type": "note_on", "time": 2, "note": 73, "velocity": 111, "channel": 0}, {"type": "note_off", "time": 48, "note": 73, "velocity": 111, "channel": 0}, {"type": "note_on", "time": 6, "note": 71, "velocity": 109, "channel": 0}, {"type": "note_off", "time": 71, "note": 71, "velocity": 109, "channel": 0}, {"type": "note_on", "time": 7, "note": 69, "velocity": 109, "channel": 0}, {"type": "note_off", "time": 109, "note": 69, "velocity": 109, "channel": 0}, {"type": "note_on", "time": 6, "note": 67, "velocity": 92, "channel": 0}, {"type": "note_off", "time": 70, "note": 67, "velocity": 92, "channel": 0}, {"type": "note_on", "time": 4, "note": 68, "velocity": 101, "channel": 0}, {"type": "note_off", "time": 109, "note": 68, "velocity": 101, "channel": 0}, {"type": "note_on", "time": 303, "note": 79, "velocity": 123, "channel": 0}, {"type": "note_off", "time": 70, "note": 79, "velocity": 123, "channel": 0}, {"type": "note_on", "time": 17, "note": 77, "velocity": 114, "channel": 0}, {"type": "note_off", "time": 71, "note": 77, "velocity": 114, "channel": 0}, {"type": "note_on", "time": 12, "note": 76, "velocity": 102, "channel": 0}, {"type": "note_off", "time": 19, "note": 76, "velocity": 102, "channel": 0}, {"type": "note_on", "time": 3, "note": 78, "velocity": 115, "channel": 0}, {"type": "note_off", "time": 23, "note": 78, "velocity": 115, "channel": 0}, {"type": "note_on", "time": 4, "note": 76, "velocity": 109, "channel": 0}, {"type": "note_off", "time": 60, "note": 76, "velocity": 109, "channel": 0}, {"type": "note_on", "time": 10, "note": 74, "velocity": 114, "channel": 0}, {"type": "note_off", "time": 68, "note": 74, "velocity": 114, "channel": 0}, {"type": "note_on", "time": 13, "note": 73, "velocity": 114, "channel": 0}, {"type": "note_off", "time": 87, "note": 73, "velocity": 114, "channel": 0}, {"type": "note_on", "time": 18, "note": 64, "velocity": 90, "channel": 0}, {"type": "note_off", "time": 59, "note": 64, "velocity": 90, "channel": 0}, {"type": "note_on", "time": 19, "note": 66, "velocity": 103, "channel": 0}, {"type": "note_off", "time": 65, "note": 66, "velocity": 103, "channel": 0}, {"type": "note_on", "time": 31, "note": 68, "velocity": 106, "channel": 0}, {"type": "note_off", "time": 79, "note": 68, "velocity": 106, "channel": 0}, {"type": "note_on", "time": 32, "note": 71, "velocity": 111, "channel": 0}, {"type": "note_off", "time": 71, "note": 71, "velocity": 111, "channel": 0}, {"type": "note_on", "time": 15, "note": 69, "velocity": 108, "channel": 0}, {"type": "note_off", "time": 91, "note": 69, "velocity": 108, "channel": 0}, {"type": "note_on", "time": 13, "note": 64, "velocity": 106, "channel": 0}, {"type": "note_off", "time": 53, "note": 64, "velocity": 106, "channel": 0}, {"type": "note_on", "time": 40, "note": 61, "velocity": 92, "channel": 0}, {"type": "note_off", "time": 60, "note": 61, "velocity": 92, "channel": 0}, {"type": "note_on", "time": 23, "note": 57, "velocity": 95, "channel": 0}, {"type": "note_off", "time": 85, "note": 57, "velocity": 95, "channel": 0}, {"type": "note_on", "time": 10, "note": 55, "velocity": 98, "channel": 0}, {"type": "note_off", "time": 60, "note": 55, "velocity": 98, "channel": 0}, {"type": "note_on", "time": 21, "note": 56, "velocity": 103, "channel": 0}, {"type": "note_off", "time": 78, "note": 56, "velocity": 103, "channel": 0}, {"type": "note_on", "time": 27, "note": 60, "velocity": 94, "channel": 0}, {"type": "note_off", "time": 73, "note": 60, "velocity": 94, "channel": 0}, {"type": "note_on", "time": 34, "note": 62, "velocity": 96, "channel": 0}, {"type": "note_off", "time": 78, "note": 62, "velocity": 96, "channel": 0}, {"type": "note_on", "time": 12, "note": 64, "velocity": 100, "channel": 0}, {"type": "note_off", "time": 79, "note": 64, "velocity": 100, "channel": 0}, {"type": "note_on", "time": 20, "note": 69, "velocity": 115, "channel": 0}, {"type": "note_off", "time": 77, "note": 69, "velocity": 115, "channel": 0}, {"type": "note_on", "time": 11, "note": 67, "velocity": 110, "channel": 0}, {"type": "note_off", "time": 77, "note": 67, "velocity": 110, "channel": 0}, {"type": "note_on", "time": 19, "note": 67, "velocity": 110, "channel": 0}, {"type": "note_off", "time": 45, "note": 67, "velocity": 110, "channel": 0}, {"type": "note_on", "time": 8, "note": 68, "velocity": 96, "channel": 0}, {"type": "note_off", "time": 236, "note": 68, "velocity": 96, "channel": 0}, {"type": "note_on", "time": 17, "note": 70, "velocity": 94, "channel": 0}, {"type": "note_off", "time": 84, "note": 70, "velocity": 94, "channel": 0}, {"type": "note_on", "time": 62, "note": 63, "velocity": 100, "channel": 0}, {"type": "note_off", "time": 68, "note": 63, "velocity": 100, "channel": 0}, {"type": "note_on", "time": 4, "note": 65, "velocity": 90, "channel": 0}, {"type": "note_off", "time": 411, "note": 65, "velocity": 90, "channel": 0}, {"type": "note_on", "time": 79, "note": 68, "velocity": 104, "channel": 0}, {"type": "note_off", "time": 51, "note": 68, "velocity": 104, "channel": 0}, {"type": "note_on", "time": 23, "note": 70, "velocity": 103, "channel": 0}, {"type": "note_off", "time": 47, "note": 70, "velocity": 103, "channel": 0}, {"type": "note_on", "time": 80, "note": 71, "velocity": 103, "channel": 0}, {"type": "note_off", "time": 74, "note": 71, "velocity": 103, "channel": 0}, {"type": "note_on", "time": 21, "note": 68, "velocity": 103, "channel": 0}, {"type": "note_off", "time": 75, "note": 68, "velocity": 103, "channel": 0}, {"type": "note_on", "time": 37, "note": 68, "velocity": 104, "channel": 0}, {"type": "note_off", "time": 55, "note": 68, "velocity": 104, "channel": 0}, {"type": "note_on", "time": 33, "note": 66, "velocity": 84, "channel": 0}, {"type": "note_off", "time": 69, "note": 66, "velocity": 84, "channel": 0}, {"type": "note_on", "time": 6, "note": 67, "velocity": 104, "channel": 0}, {"type": "note_off", "time": 63, "note": 67, "velocity": 104, "channel": 0}, {"type": "note_on", "time": 14, "note": 68, "velocity": 94, "channel": 0}, {"type": "note_off", "time": 133, "note": 68, "velocity": 94, "channel": 0}, {"type": "note_on", "time": 19, "note": 65, "velocity": 107, "channel": 0}, {"type": "note_off", "time": 69, "note": 65, "velocity": 107, "channel": 0}, {"type": "note_on", "time": 950, "note": 73, "velocity": 118, "channel": 0}, {"type": "note_off", "time": 88, "note": 73, "velocity": 118, "channel": 0}, {"type": "note_on", "time": 108, "note": 79, "velocity": 124, "channel": 0}, {"type": "note_off", "time": 115, "note": 79, "velocity": 124, "channel": 0}, {"type": "note_on", "time": 24, "note": 78, "velocity": 122, "channel": 0}, {"type": "note_off", "time": 480, "note": 78, "velocity": 122, "channel": 0}, {"type": "note_on", "time": 78, "note": 75, "velocity": 110, "channel": 0}, {"type": "note_off", "time": 28, "note": 75, "velocity": 110, "channel": 0}, {"type": "note_on", "time": 8, "note": 76, "velocity": 102, "channel": 0}, {"type": "note_off", "time": 62, "note": 76, "velocity": 102, "channel": 0}, {"type": "note_on", "time": 95, "note": 73, "velocity": 119, "channel": 0}, {"type": "note_off", "time": 95, "note": 73, "velocity": 119, "channel": 0}, {"type": "note_on", "time": 84, "note": 71, "velocity": 110, "channel": 0}, {"type": "note_off", "time": 79, "note": 71, "velocity": 110, "channel": 0}, {"type": "note_on", "time": 22, "note": 68, "velocity": 89, "channel": 0}, {"type": "note_off", "time": 72, "note": 68, "velocity": 89, "channel": 0}, {"type": "note_on", "time": 11, "note": 67, "velocity": 104, "channel": 0}, {"type": "note_off", "time": 60, "note": 67, "velocity": 104, "channel": 0}, {"type": "note_on", "time": 17, "note": 66, "velocity": 96, "channel": 0}, {"type": "note_off", "time": 90, "note": 66, "velocity": 96, "channel": 0}, {"type": "note_on", "time": 18, "note": 64, "velocity": 104, "channel": 0}, {"type": "note_off", "time": 73, "note": 64, "velocity": 104, "channel": 0}, {"type": "note_on", "time": 223, "note": 61, "velocity": 93, "channel": 0}, {"type": "note_off", "time": 81, "note": 61, "velocity": 93, "channel": 0}, {"type": "note_on", "time": 14, "note": 64, "velocity": 93, "channel": 0}, {"type": "note_off", "time": 74, "note": 64, "velocity": 93, "channel": 0}, {"type": "note_on", "time": 15, "note": 65, "velocity": 94, "channel": 0}, {"type": "note_off", "time": 69, "note": 65, "velocity": 94, "channel": 0}, {"type": "note_on", "time": 15, "note": 68, "velocity": 108, "channel": 0}, {"type": "note_off", "time": 75, "note": 68, "velocity": 108, "channel": 0}, {"type": "note_on", "time": 28, "note": 70, "velocity": 105, "channel": 0}, {"type": "note_off", "time": 77, "note": 70, "velocity": 105, "channel": 0}, {"type": "note_on", "time": 15, "note": 68, "velocity": 90, "channel": 0}, {"type": "note_off", "time": 59, "note": 68, "velocity": 90, "channel": 0}, {"type": "note_on", "time": 32, "note": 71, "velocity": 102, "channel": 0}, {"type": "note_off", "time": 158, "note": 71, "velocity": 102, "channel": 0}, {"type": "note_on", "time": 39, "note": 68, "velocity": 104, "channel": 0}, {"type": "note_off", "time": 86, "note": 68, "velocity": 104, "channel": 0}, {"type": "note_on", "time": 9, "note": 66, "velocity": 106, "channel": 0}, {"type": "note_off", "time": 77, "note": 66, "velocity": 106, "channel": 0}, {"type": "note_on", "time": 10, "note": 64, "velocity": 93, "channel": 0}, {"type": "note_off", "time": 80, "note": 64, "velocity": 93, "channel": 0}, {"type": "note_on", "time": 91, "note": 63, "velocity": 98, "channel": 0}, {"type": "note_off", "time": 93, "note": 63, "velocity": 98, "channel": 0}, {"type": "note_on", "time": 31, "note": 61, "velocity": 94, "channel": 0}, {"type": "note_off", "time": 65, "note": 61, "velocity": 94, "channel": 0}, {"type": "end_of_track", "time": 0}]]}