{"ticks_per_beat": 192, "tracks": [[{"type": "track_name", "name": "Melody", "time": 0}, {"type": "set_tempo", "tempo": 242914, "time": 0}, {"type": "key_signature", "key": "Db", "time": 0}, {"type": "time_signature", "numerator": 4, "denominator": 4, "clocks_per_click": 24, "notated_32nd_notes_per_beat": 8, "time": 0}, {"type": "note_on", "time": 792, "note": 56, "velocity": 108, "channel": 0}, {"type": "note_off", "time": 91, "note": 56, "velocity": 108, "channel": 0}, {"type": "note_on", "time": 32, "note": 58, "velocity": 103, "channel": 0}, {"type": "note_off", "time": 59, "note": 58, "velocity": 103, "channel": 0}, {"type": "note_on", "time": 13, "note": 60, "velocity": 102, "channel": 0}, {"type": "note_off", "time": 82, "note": 60, "velocity": 102, "channel": 0}, {"type": "note_on", "time": 25, "note": 61, "velocity": 100, "channel": 0}, {"type": "note_off", "time": 73, "note": 61, "velocity": 100, "channel": 0}, {"type": "note_on", "time": 4, "note": 63, "velocity": 105, "channel": 0}, {"type": "note_off", "time": 84, "note": 63, "velocity": 105, "channel": 0}, {"type": "note_on", "time": 43, "note": 65, "velocity": 92, "channel": 0}, {"type": "note_off", "time": 45, "note": 65, "velocity": 92, "channel": 0}, {"type": "note_on", "time": 6, "note": 66, "velocity": 111, "channel": 0}, {"type": "note_off", "time": 114, "note": 66, "velocity": 111, "channel": 0}, {"type": "note_on", "time": 18, "note": 63, "velocity": 97, "channel": 0}, {"type": "note_off", "time": 59, "note": 63, "velocity": 97, "channel": 0}, {"type": "note_on", "time": 0, "note": 65, "velocity": 107, "channel": 0}, {"type": "note_off", "time": 94, "note": 65, "velocity": 107, "channel": 0}, {"type": "note_on", "time": 25, "note": 61, "velocity": 112, "channel": 0}, {"type": "note_off", "time": 84, "note": 61, "velocity": 112, "channel": 0}, {"type": "note_on", "time": 0, "note": 56, "velocity": 106, "channel": 0}, {"type": "note_off", "time": 94, "note": 56, "velocity": 106, "channel": 0}, {"type": "note_on", "time": 25, "note": 58, "velocity": 101, "channel": 0}, {"type": "note_off", "time": 80, "note": 58, "velocity": 101, "channel": 0}, {"type": "note_on", "time": 0, "note": 61, "velocity": 99, "channel": 0}, {"type": "note_off", "time": 103, "note": 61, "velocity": 99, "channel": 0}, {"type": "note_on", "time": 2, "note": 60, "velocity": 91, "channel": 0}, {"type": "note_off", "time": 50, "note": 60, "velocity": 91, "channel": 0}, {"type": "note_on", "time": 27, "note": 61, "velocity": 105, "channel": 0}, {"type": "note_off", "time": 461, "note": 61, "velocity": 105, "channel": 0}, {"type": "note_on", "time": 29, "note": 57, "velocity": 101, "channel": 0}, {"type": "note_off", "time": 75, "note": 57, "velocity": 101, "channel": 0}, {"type": "note_on", "time": 6, "note": 54, "velocity": 96, "channel": 0}, {"type": "note_off", "time": 98, "note": 54, "velocity": 96, "channel": 0}, {"type": "note_on", "time": 20, "note": 52, "velocity": 82, "channel": 0}, {"type": "note_off", "time": 55, "note": 52, "velocity": 82, "channel": 0}, {"type": "note_on", "time": 41, "note": 53, "velocity": 94, "channel": 0}, {"type": "note_off", "time": 73, "note": 53, "velocity": 94, "channel": 0}, {"type": "note_on", "time": 20, "note": 56, "velocity": 98, "channel": 0}, {"type": "note_off", "time": 55, "note": 56, "velocity": 98, "channel": 0}, {"type": "note_on", "time": 25, "note": 58, "velocity": 97, "channel": 0}, {"type": "note_off", "time": 84, "note": 58, "velocity": 97, "channel": 0}, {"type": "note_on", "time": 11, "note": 56, "velocity": 93, "channel": 0}, {"type": "note_off", "time": 52, "note": 56, "velocity": 93, "channel": 0}, {"type": "note_on", "time": 62, "note": 61, "velocity": 96, "channel": 0}, {"type": "note_off", "time": 64, "note": 61, "velocity": 96, "channel": 0}, {"type": "note_on", "time": 41, "note": 58, "velocity": 87, "channel": 0}, {"type": "note_off", "time": 67, "note": 58, "velocity": 87, "channel": 0}, {"type": "note_on", "time": 754, "note": 58, "velocity": 95, "channel": 0}, {"type": "note_off", "time": 94, "note": 58, "velocity": 95, "channel": 0}, {"type": "note_on", "time": 4, "note": 56, "velocity": 98, "channel": 0}, {"type": "note_off", "time": 71, "note": 56, "velocity": 98, "channel": 0}, {"type": "note_on", "time": 2, "note": 55, "velocity": 103, "channel": 0}, {"type": "note_off", "time": 112, "note": 55, "velocity": 103, "channel": 0}, {"type": "note_on", "time": 61, "note": 59, "velocity": 96, "channel": 0}, {"type": "note_off", "time": 80, "note": 59, "velocity": 96, "channel": 0}, {"type": "note_on", "time": 20, "note": 63, "velocity": 101, "channel": 0}, {"type": "note_off", "time": 75, "note": 63, "velocity": 101, "channel": 0}, {"type": "note_on", "time": 0, "note": 62, "velocity": 98, "channel": 0}, {"type": "note_off", "time": 100, "note": 62, "velocity": 98, "channel": 0}, {"type": "note_on", "time": 100, "note": 61, "velocity": 109, "channel": 0}, {"type": "note_off", "time": 256, "note": 61, "velocity": 109, "channel": 0}, {"type": "note_on", "time": 45, "note": 58, "velocity": 98, "channel": 0}, {"type": "note_off", "time": 78, "note": 58, "velocity": 98, "channel": 0}, {"type": "note_on", "time": 9, "note": 55, "velocity": 87, "channel": 0}, {"type": "note_off", "time": 172, "note": 55, "velocity": 87, "channel": 0}, {"type": "note_on", "time": 0, "note": 56, "velocity": 102, "channel": 0}, {"type": "note_off", "time": 55, "note": 56, "velocity": 102, "channel": 0}, {"type": "note_on", "time": 18, "note": 57, "velocity": 96, "channel": 0}, {"type": "note_off", "time": 34, "note": 57, "velocity": 96, "channel": 0}, {"type": "note_on", "time": 9, "note": 58, "velocity": 93, "channel": 0}, {"type": "note_off", "time": 25, "note": 58, "velocity": 93, "channel": 0}, {"type": "note_on", "time": 18, "note": 59, "velocity": 94, "channel": 0}, {"type": "note_off", "time": 41, "note": 59, "velocity": 94, "channel": 0}, {"type": "note_on", "time": 6, "note": 60, "velocity": 87, "channel": 0}, {"type": "note_off", "time": 396, "note": 60, "velocity": 87, "channel": 0}, {"type": "note_on", "time": 17, "note": 56, "velocity": 89, "channel": 0}, {"type": "note_off", "time": 61, "note": 56, "velocity": 89, "channel": 0}, {"type": "note_on", "time": 33, "note": 53, "velocity": 85, "channel": 0}, {"type": "note_off", "time": 58, "note": 53, "velocity": 85, "channel": 0}, {"type": "note_on", "time": 35, "note": 56, "velocity": 92, "channel": 0}, {"type": "note_off", "time": 261, "note": 56, "velocity": 92, "channel": 0}, {"type": "note_on", "time": 687, "note": 56, "velocity": 104, "channel": 0}, {"type": "note_off", "time": 72, "note": 56, "velocity": 104, "channel": 0}, {"type": "note_on", "time": 33, "note": 59, "velocity": 89, "channel": 0}, {"type": "note_off", "time": 48, "note": 59, "velocity": 89, "channel": 0}, {"type": "note_on", "time": 16, "note": 62, "velocity": 105, "channel": 0}, {"type": "note_off", "time": 74, "note": 62, "velocity": 105, "channel": 0}, {"type": "note_on", "time": 16, "note": 65, "velocity": 112, "channel": 0}, {"type": "note_off", "time": 87, "note": 65, "velocity": 112, "channel": 0}, {"type": "note_on", "time": 4, "note": 64, "velocity": 105, "channel": 0}, {"type": "note_off", "time": 74, "note": 64, "velocity": 105, "channel": 0}, {"type": "note_on", "time": 0, "note": 62, "velocity": 88, "channel": 0}, {"type": "note_off", "time": 93, "note": 62, "velocity": 88, "channel": 0}, {"type": "note_on", "time": 8, "note": 63, "velocity": 103, "channel": 0}, {"type": "note_off", "time": 127, "note": 63, "velocity": 103, "channel": 0}, {"type": "note_on", "time": 17, "note": 65, "velocity": 97, "channel": 0}, {"type": "note_off", "time": 40, "note": 65, "velocity": 97, "channel": 0}, {"type": "note_on", "time": 1, "note": 66, "velocity": 99, "channel": 0}, {"type": "note_off", "time": 133, "note": 66, "velocity": 99, "channel": 0}, {"type": "note_on", "time": 6, "note": 64, "velocity": 87, "channel": 0}, {"type": "note_off", "time": 50, "note": 64, "velocity": 87, "channel": 0}, {"type": "note_on", "time": 4, "note": 65, "velocity": 109, "channel": 0}, {"type": "note_off", "time": 87, "note": 65, "velocity": 109, "channel": 0}, {"type": "note_on", "time": 25, "note": 61, "velocity": 94, "channel": 0}, {"type": "note_off", "time": 66, "note": 61, "velocity": 94, "channel": 0}, {"type": "note_on", "time": 6, "note": 56, "velocity": 91, "channel": 0}, {"type": "note_off", "time": 50, "note": 56, "velocity": 91, "channel": 0}, {"type": "note_on", "time": 120, "note": 61, "velocity": 104, "channel": 0}, {"type": "note_off", "time": 67, "note": 61, "velocity": 104, "channel": 0}, {"type": "note_on", "time": 119, "note": 61, "velocity": 105, "channel": 0}, {"type": "note_off", "time": 82, "note": 61, "velocity": 105, "channel": 0}, {"type": "note_on", "time": 69, "note": 63, "velocity": 97, "channel": 0}, {"type": "note_off", "time": 37, "note": 63, "velocity": 97, "channel": 0}, {"type": "note_on", "time": 25, "note": 65, "velocity": 116, "channel": 0}, {"type": "note_off", "time": 83, "note": 65, "velocity": 116, "channel": 0}, {"type": "note_on", "time": 0, "note": 68, "velocity": 109, "channel": 0}, {"type": "note_off", "time": 67, "note": 68, "velocity": 109, "channel": 0}, {"type": "note_on", "time": 3, "note": 65, "velocity": 99, "channel": 0}, {"type": "note_off", "time": 61, "note": 65, "velocity": 99, "channel": 0}, {"type": "note_on", "time": 104, "note": 63, "velocity": 110, "channel": 0}, {"type": "note_off", "time": 124, "note": 63, "velocity": 110, "channel": 0}, {"type": "note_on", "time": 6, "note": 64, "velocity": 111, "channel": 0}, {"type": "note_off", "time": 141, "note": 64, "velocity": 111, "channel": 0}, {"type": "note_on", "time": 8, "note": 65, "velocity": 113, "channel": 0}, {"type": "note_off", "time": 219, "note": 65, "velocity": 113, "channel": 0}, {"type": "note_on", "time": 9, "note": 61, "velocity": 107, "channel": 0}, {"type": "note_off", "time": 61, "note": 61, "velocity": 107, "channel": 0}, {"type": "note_on", "time": 6, "note": 60, "velocity": 92, "channel": 0}, {"type": "note_off", "time": 67, "note": 60, "velocity": 92, "channel": 0}, {"type": "note_on", "time": 62, "note": 58, "velocity": 86, "channel": 0}, {"type": "note_off", "time": 51, "note": 58, "velocity": 86, "channel": 0}, {"type": "note_on", "time": 1, "note": 60, "velocity": 102, "channel": 0}, {"type": "note_off", "time": 64, "note": 60, "velocity": 102, "channel": 0}, {"type": "note_on", "time": 351, "note": 59, "velocity": 97, "channel": 0}, {"type": "note_off", "time": 69, "note": 59, "velocity": 97, "channel": 0}, {"type": "note_on", "time": 27, "note": 56, "velocity": 92, "channel": 0}, {"type": "note_on", "time": 75, "note": 53, "velocity": 79, "channel": 0}, {"type": "note_off", "time": 0, "note": 56, "velocity": 92, "channel": 0}, {"type": "note_off", "time": 90, "note": 53, "velocity": 79, "channel": 0}, {"type": "note_on", "time": 654, "note": 58, "velocity": 104, "channel": 0}, {"type": "note_off", "time": 85, "note": 58, "velocity": 104, "channel": 0}, {"type": "note_on", "time": 19, "note": 54, "velocity": 96, "channel": 0}, {"type": "note_off", "time": 74, "note": 54, "velocity": 96, "channel": 0}, {"type": "note_on", "time": 3, "note": 53, "velocity": 88, "channel": 0}, {"type": "note_off", "time": 109, "note": 53, "velocity": 88, "channel": 0}, {"type": "note_on", "time": 29, "note": 51, "velocity": 97, "channel": 0}, {"type": "note_off", "time": 56, "note": 51, "velocity": 97, "channel": 0}, {"type": "note_on", "time": 9, "note": 50, "velocity": 99, "channel": 0}, {"type": "note_off", "time": 114, "note": 50, "velocity": 99, "channel": 0}, {"type": "note_on", "time": 20, "note": 52, "velocity": 91, "channel": 0}, {"type": "note_off", "time": 33, "note": 52, "velocity": 91, "channel": 0}, {"type": "note_on", "time": 14, "note": 54, "velocity": 99, "channel": 0}, {"type": "note_off", "time": 98, "note": 54, "velocity": 99, "channel": 0}, {"type": "note_on", "time": 17, "note": 57, "velocity": 107, "channel": 0}, {"type": "note_off", "time": 79, "note": 57, "velocity": 107, "channel": 0}, {"type": "note_on", "time": 17, "note": 60, "velocity": 101, "channel": 0}, {"type": "note_off", "time": 80, "note": 60, "velocity": 101, "channel": 0}, {"type": "note_on", "time": 6, "note": 65, "velocity": 109, "channel": 0}, {"type": "note_off", "time": 85, "note": 65, "velocity": 109, "channel": 0}, {"type": "note_on", "time": 0, "note": 64, "velocity": 97, "channel": 0}, {"type": "note_off", "time": 83, "note": 64, "velocity": 97, "channel": 0}, {"type": "note_on", "time": 16, "note": 62, "velocity": 87, "channel": 0}, {"type": "note_off", "time": 43, "note": 62, "velocity": 87, "channel": 0}, {"type": "note_on", "time": 0, "note": 63, "velocity": 105, "channel": 0}, {"type": "note_off", "time": 122, "note": 63, "velocity": 105, "channel": 0}, {"type": "note_on", "time": 8, "note": 60, "velocity": 95, "channel": 0}, {"type": "note_off", "time": 40, "note": 60, "velocity": 95, "channel": 0}, {"type": "note_on", "time": 16, "note": 61, "velocity": 108, "channel": 0}, {"type": "note_off", "time": 91, "note": 61, "velocity": 108, "channel": 0}, {"type": "note_on", "time": 27, "note": 56, "velocity": 106, "channel": 0}, {"type": "note_off", "time": 70, "note": 56, "velocity": 106, "channel": 0}, {"type": "note_on", "time": 19, "note": 54, "velocity": 98, "channel": 0}, {"type": "note_off", "time": 40, "note": 54, "velocity": 98, "channel": 0}, {"type": "note_on", "time": 6, "note": 53, "velocity": 90, "channel": 0}, {"type": "note_off", "time": 88, "note": 53, "velocity": 90, "channel": 0}, {"type": "note_on", "time": 25, "note": 51, "velocity": 97, "channel": 0}, {"type": "note_off", "time": 41, "note": 51, "velocity": 97, "channel": 0}, {"type": "note_on", "time": 8, "note": 50, "velocity": 104, "channel": 0}, {"type": "note_off", "time": 101, "note": 50, "velocity": 104, "channel": 0}, {"type": "note_on", "time": 170, "note": 59, "velocity": 102, "channel": 0}, {"type": "note_off", "time": 248, "note": 59, "velocity": 102, "channel": 0}, {"type": "note_on", "time": 11, "note": 56, "velocity": 105, "channel": 0}, {"type": "note_off", "time": 74, "note": 56, "velocity": 105, "channel": 0}, {"type": "note_on", "time": 45, "note": 57, "velocity": 105, "channel": 0}, {"type": "note_off", "time": 50, "note": 57, "velocity": 105, "channel": 0}, {"type": "note_on", "time": 16, "note": 58, "velocity": 101, "channel": 0}, {"type": "note_off", "time": 111, "note": 58, "velocity": 101, "channel": 0}, {"type": "note_on", "time": 29, "note": 61, "velocity": 107, "channel": 0}, {"type": "note_off", "time": 59, "note": 61, "velocity": 107, "channel": 0}, {"type": "note_on", "time": 22, "note": 63, "velocity": 99, "channel": 0}, {"type": "note_off", "time": 77, "note": 63, "velocity": 99, "channel": 0}, {"type": "note_on", "time": 32, "note": 61, "velocity": 88, "channel": 0}, {"type": "note_on", "time": 62, "note": 64, "velocity": 115, "channel": 0}, {"type": "note_off", "time": 0, "note": 61, "velocity": 88, "channel": 0}, {"type": "note_off", "time": 106, "note": 64, "velocity": 115, "channel": 0}, {"type": "note_on", "time": 17, "note": 61, "velocity": 100, "channel": 0}, {"type": "note_off", "time": 80, "note": 61, "velocity": 100, "channel": 0}, {"type": "note_on", "time": 380, "note": 68, "velocity": 123, "channel": 0}, {"type": "note_off", "time": 87, "note": 68, "velocity": 123, "channel": 0}, {"type": "note_on", "time": 24, "note": 66, "velocity": 111, "channel": 0}, {"type": "note_on", "time": 75, "note": 64, "velocity": 106, "channel": 0}, {"type": "note_off", "time": 0, "note": 66, "velocity": 111, "channel": 0}, {"type": "note_off", "time": 79, "note": 64, "velocity": 106, "channel": 0}, {"type": "note_on", "time": 20, "note": 61, "velocity": 92, "channel": 0}, {"type": "note_off", "time": 48, "note": 61, "velocity": 92, "channel": 0}, {"type": "note_on", "time": 11, "note": 62, "velocity": 111, "channel": 0}, {"type": "note_off", "time": 141, "note": 62, "velocity": 111, "channel": 0}, {"type": "note_on", "time": 6, "note": 63, "velocity": 112, "channel": 0}, {"type": "note_off", "time": 143, "note": 63, "velocity": 112, "channel": 0}, {"type": "note_on", "time": 19, "note": 61, "velocity": 110, "channel": 0}, {"type": "note_off", "time": 77, "note": 61, "velocity": 110, "channel": 0}, {"type": "note_on", "time": 24, "note": 57, "velocity": 105, "channel": 0}, {"type": "note_off", "time": 61, "note": 57, "velocity": 105, "channel": 0}, {"type": "note_on", "time": 48, "note": 54, "velocity": 86, "channel": 0}, {"type": "note_off", "time": 51, "note": 54, "velocity": 86, "channel": 0}, {"type": "note_on", "time": 182, "note": 59, "velocity": 107, "channel": 0}, {"type": "note_off", "time": 96, "note": 59, "velocity": 107, "channel": 0}, {"type": "note_on", "time": 11, "note": 56, "velocity": 96, "channel": 0}, {"type": "note_off", "time": 69, "note": 56, "velocity": 96, "channel": 0}, {"type": "note_on", "time": 12, "note": 57, "velocity": 112, "channel": 0}, {"type": "note_off", "time": 101, "note": 57, "velocity": 112, "channel": 0}, {"type": "note_on", "time": 22, "note": 59, "velocity": 97, "channel": 0}, {"type": "note_off", "time": 54, "note": 59, "velocity": 97, "channel": 0}, {"type": "note_on", "time": 12, "note": 61, "velocity": 110, "channel": 0}, {"type": "note_off", "time": 70, "note": 61, "velocity": 110, "channel": 0}, {"type": "note_on", "time": 14, "note": 66, "velocity": 103, "channel": 0}, {"type": "note_off", "time": 59, "note": 66, "velocity": 103, "channel": 0}, {"type": "note_on", "time": 11, "note": 63, "velocity": 97, "channel": 0}, {"type": "note_off", "time": 56, "note": 63, "velocity": 97, "channel": 0}, {"type": "note_on", "time": 151, "note": 63, "velocity": 109, "channel": 0}, {"type": "note_off", "time": 253, "note": 63, "velocity": 109, "channel": 0}, {"type": "note_on", "time": 61, "note": 62, "velocity": 94, "channel": 0}, {"type": "note_off", "time": 130, "note": 62, "velocity": 94, "channel": 0}, {"type": "note_on", "time": 12, "note": 63, "velocity": 94, "channel": 0}, {"type": "note_off", "time": 87, "note": 63, "velocity": 94, "channel": 0}, {"type": "note_on", "time": 6, "note": 64, "velocity": 110, "channel": 0}, {"type": "note_off", "time": 70, "note": 64, "velocity": 110, "channel": 0}, {"type": "note_on", "time": 45, "note": 61, "velocity": 91, "channel": 0}, {"type": "note_off", "time": 64, "note": 61, "velocity": 91, "channel": 0}, {"type": "note_on", "time": 25, "note": 57, "velocity": 100, "channel": 0}, {"type": "note_off", "time": 58, "note": 57, "velocity": 100, "channel": 0}, {"type": "note_on", "time": 48, "note": 56, "velocity": 92, "channel": 0}, {"type": "note_off", "time": 69, "note": 56, "velocity": 92, "channel": 0}, {"type": "note_on", "time": 11, "note": 61, "velocity": 105, "channel": 0}, {"type": "note_off", "time": 75, "note": 61, "velocity": 105, "channel": 0}, {"type": "note_on", "time": 38, "note": 59, "velocity": 92, "channel": 0}, {"type": "note_off", "time": 69, "note": 59, "velocity": 92, "channel": 0}, {"type": "note_on", "time": 509, "note": 69, "velocity": 120, "channel": 0}, {"type": "note_off", "time": 150, "note": 69, "velocity": 120, "channel": 0}, {"type": "note_on", "time": 30, "note": 67, "velocity": 109, "channel": 0}, {"type": "note_off", "time": 62, "note": 67, "velocity": 109, "channel": 0}, {"type": "note_on", "time": 114, "note": 59, "velocity": 90, "channel": 0}, {"type": "note_off", "time": 54, "note": 59, "velocity": 90, "channel": 0}, {"type": "note_on", "time": 4, "note": 66, "velocity": 119, "channel": 0}, {"type": "note_off", "time": 116, "note": 66, "velocity": 119, "channel": 0}, {"type": "note_on", "time": 24, "note": 64, "velocity": 114, "channel": 0}, {"type": "note_off", "time": 85, "note": 64, "velocity": 114, "channel": 0}, {"type": "note_on", "time": 112, "note": 65, "velocity": 111, "channel": 0}, {"type": "note_off", "time": 38, "note": 65, "velocity": 111, "channel": 0}, {"type": "note_on", "time": 6, "note": 67, "velocity": 124, "channel": 0}, {"type": "note_off", "time": 37, "note": 67, "velocity": 124, "channel": 0}, {"type": "note_on", "time": 16, "note": 68, "velocity": 115, "channel": 0}, {"type": "note_off", "time": 83, "note": 68, "velocity": 115, "channel": 0}, {"type": "note_on", "time": 11, "note": 66, "velocity": 98, "channel": 0}, {"type": "note_off", "time": 124, "note": 66, "velocity": 98, "channel": 0}, {"type": "note_on", "time": 53, "note": 57, "velocity": 94, "channel": 0}, {"type": "note_off", "time": 56, "note": 57, "velocity": 94, "channel": 0}, {"type": "note_on", "time": 24, "note": 65, "velocity": 111, "channel": 0}, {"type": "note_off", "time": 124, "note": 65, "velocity": 111, "channel": 0}, {"type": "note_on", "time": 1, "note": 63, "velocity": 91, "channel": 0}, {"type": "note_off", "time": 227, "note": 63, "velocity": 91, "channel": 0}, {"type": "note_on", "time": 280, "note": 63, "velocity": 116, "channel": 0}, {"type": "note_off", "time": 87, "note": 63, "velocity": 116, "channel": 0}, {"type": "note_on", "time": 20, "note": 65, "velocity": 106, "channel": 0}, {"type": "note_off", "time": 87, "note": 65, "velocity": 106, "channel": 0}, {"type": "note_on", "time": 0, "note": 68, "velocity": 99, "channel": 0}, {"type": "note_off", "time": 82, "note": 68, "velocity": 99, "channel": 0}, {"type": "note_on", "time": 0, "note": 64, "velocity": 105, "channel": 0}, {"type": "note_off", "time": 64, "note": 64, "velocity": 105, "channel": 0}, {"type": "note_on", "time": 40, "note": 61, "velocity": 94, "channel": 0}, {"type": "note_off", "time": 67, "note": 61, "velocity": 94, "channel": 0}, {"type": "note_on", "time": 6, "note": 63, "velocity": 113, "channel": 0}, {"type": "note_off", "time": 109, "note": 63, "velocity": 113, "channel": 0}, {"type": "note_on", "time": 1, "note": 61, "velocity": 96, "channel": 0}, {"type": "note_off", "time": 85, "note": 61, "velocity": 96, "channel": 0}, {"type": "note_on", "time": 3, "note": 60, "velocity": 94, "channel": 0}, {"type": "note_off", "time": 67, "note": 60, "velocity": 94, "channel": 0}, {"type": "note_on", "time": 19, "note": 61, "velocity": 86, "channel": 0}, {"type": "note_off", "time": 79, "note": 61, "velocity": 86, "channel": 0}, {"type": "note_on", "time": 6, "note": 69, "velocity": 126, "channel": 0}, {"type": "note_on", "time": 67, "note": 70, "velocity": 124, "channel": 0}, {"type": "note_off", "time": 0, "note": 69, "velocity": 126, "channel": 0}, {"type": "note_off", "time": 25, "note": 70, "velocity": 124, "channel": 0}, {"type": "note_on", "time": 6, "note": 71, "velocity": 111, "channel": 0}, {"type": "note_off", "time": 16, "note": 71, "velocity": 111, "channel": 0}, {"type": "note_on", "time": 6, "note": 72, "velocity": 122, "channel": 0}, {"type": "note_off", "time": 396, "note": 72, "velocity": 122, "channel": 0}, {"type": "note_on", "time": 1, "note": 68, "velocity": 109, "channel": 0}, {"type": "note_off", "time": 70, "note": 68, "velocity": 109, "channel": 0}, {"type": "note_on", "time": 14, "note": 65, "velocity": 110, "channel": 0}, {"type": "note_off", "time": 104, "note": 65, "velocity": 110, "channel": 0}, {"type": "note_on", "time": 0, "note": 68, "velocity": 117, "channel": 0}, {"type": "note_off", "time": 109, "note": 68, "velocity": 117, "channel": 0}, {"type": "note_on", "time": 82, "note": 65, "velocity": 106, "channel": 0}, {"type": "note_off", "time": 72, "note": 65, "velocity": 106, "channel": 0}, {"type": "note_on", "time": 20, "note": 60, "velocity": 96, "channel": 0}, {"type": "note_off", "time": 93, "note": 60, "velocity": 96, "channel": 0}, {"type": "note_on", "time": 1, "note": 65, "velocity": 111, "channel": 0}, {"type": "note_off", "time": 72, "note": 65, "velocity": 111, "channel": 0}, {"type": "note_on", "time": 111, "note": 60, "velocity": 93, "channel": 0}, {"type": "note_off", "time": 59, "note": 60, "velocity": 93, "channel": 0}, {"type": "note_on", "time": 27, "note": 56, "velocity": 92, "channel": 0}, {"type": "note_off", "time": 80, "note": 56, "velocity": 92, "channel": 0}, {"type": "note_on", "time": 27, "note": 54, "velocity": 85, "channel": 0}, {"type": "note_off", "time": 51, "note": 54, "velocity": 85, "channel": 0}, {"type": "note_on", "time": 0, "note": 55, "velocity": 107, "channel": 0}, {"type": "note_off", "time": 112, "note": 55, "velocity": 107, "channel": 0}, {"type": "note_on", "time": 90, "note": 64, "velocity": 103, "channel": 0}, {"type": "note_off", "time": 85, "note": 64, "velocity": 103, "channel": 0}, {"type": "note_on", "time": 24, "note": 63, "velocity": 91, "channel": 0}, {"type": "note_off", "time": 45, "note": 63, "velocity": 91, "channel": 0}, {"type": "note_on", "time": 0, "note": 64, "velocity": 97, "channel": 0}, {"type": "note_off", "time": 38, "note": 64, "velocity": 97, "channel": 0}, {"type": "note_on", "time": 17, "note": 63, "velocity": 88, "channel": 0}, {"type": "note_off", "time": 66, "note": 63, "velocity": 88, "channel": 0}, {"type": "note_on", "time": 461, "note": 63, "velocity": 102, "channel": 0}, {"type": "note_off", "time": 91, "note": 63, "velocity": 102, "channel": 0}, {"type": "note_on", "time": 45, "note": 61, "velocity": 95, "channel": 0}, {"type": "note_off", "time": 50, "note": 61, "velocity": 95, "channel": 0}, {"type": "note_on", "time": 0, "note": 60, "velocity": 100, "channel": 0}, {"type": "note_off", "time": 51, "note": 60, "velocity": 100, "channel": 0}, {"type": "note_on", "time": 117, "note": 57, "velocity": 104, "channel": 0}, {"type": "note_off", "time": 309, "note": 57, "velocity": 104, "channel": 0}, {"type": "note_on", "time": 37, "note": 65, "velocity": 116, "channel": 0}, {"type": "note_off", "time": 72, "note": 65, "velocity": 116, "channel": 0}, {"type": "note_on", "time": 1, "note": 64, "velocity": 95, "channel": 0}, {"type": "note_off", "time": 79, "note": 64, "velocity": 95, "channel": 0}, {"type": "note_on", "time": 20, "note": 62, "velocity": 88, "channel": 0}, {"type": "note_off", "time": 58, "note": 62, "velocity": 88, "channel": 0}, {"type": "note_on", "time": 27, "note": 63, "velocity": 109, "channel": 0}, {"type": "note_off", "time": 79, "note": 63, "velocity": 109, "channel": 0}, {"type": "note_on", "time": 30, "note": 61, "velocity": 95, "channel": 0}, {"type": "note_off", "time": 77, "note": 61, "velocity": 95, "channel": 0}, {"type": "note_on", "time": 16, "note": 56, "velocity": 98, "channel": 0}, {"type": "note_off", "time": 75, "note": 56, "velocity": 98, "channel": 0}, {"type": "note_on", "time": 24, "note": 54, "velocity": 86, "channel": 0}, {"type": "note_off", "time": 70, "note": 54, "velocity": 86, "channel": 0}, {"type": "note_on", "time": 20, "note": 53, "velocity": 102, "channel": 0}, {"type": "note_off", "time": 106, "note": 53, "velocity": 102, "channel": 0}, {"type": "note_on", "time": 54, "note": 54, "velocity": 107, "channel": 0}, {"type": "note_off", "time": 127, "note": 54, "velocity": 107, "channel": 0}, {"type": "note_on", "time": 14, "note": 52, "velocity": 90, "channel": 0}, {"type": "note_off", "time": 62, "note": 52, "velocity": 90, "channel": 0}, {"type": "note_on", "time": 9, "note": 53, "velocity": 101, "channel": 0}, {"type": "note_off", "time": 91, "note": 53, "velocity": 101, "channel": 0}, {"type": "note_on", "time": 222, "note": 59, "velocity": 90, "channel": 0}, {"type": "note_off", "time": 48, "note": 59, "velocity": 90, "channel": 0}, {"type": "note_on", "time": 0, "note": 64, "velocity": 107, "channel": 0}, {"type": "note_off", "time": 95, "note": 64, "velocity": 107, "channel": 0}, {"type": "note_on", "time": 12, "note": 65, "velocity": 102, "channel": 0}, {"type": "note_off", "time": 77, "note": 65, "velocity": 102, "channel": 0}, {"type": "note_on", "time": 9, "note": 66, "velocity": 106, "channel": 0}, {"type": "note_off", "time": 90, "note": 66, "velocity": 106, "channel": 0}, {"type": "note_on", "time": 9, "note": 67, "velocity": 107, "channel": 0}, {"type": "note_off", "time": 72, "note": 67, "velocity": 107, "channel": 0}, {"type": "note_on", "time": 4, "note": 68, "velocity": 108, "channel": 0}, {"type": "note_off", "time": 79, "note": 68, "velocity": 108, "channel": 0}, {"type": "note_on", "time": 48, "note": 61, "velocity": 99, "channel": 0}, {"type": "note_off", "time": 72, "note": 61, "velocity": 99, "channel": 0}, {"type": "note_on", "time": 588, "note": 68, "velocity": 111, "channel": 0}, {"type": "note_off", "time": 103, "note": 68, "velocity": 111, "channel": 0}, {"type": "note_on", "time": 0, "note": 70, "velocity": 120, "channel": 0}, {"type": "note_off", "time": 91, "note": 70, "velocity": 120, "channel": 0}, {"type": "note_on", "time": 0, "note": 68, "velocity": 111, "channel": 0}, {"type": "note_off", "time": 70, "note": 68, "velocity": 111, "channel": 0}, {"type": "note_on", "time": 14, "note": 65, "velocity": 108, "channel": 0}, {"type": "note_off", "time": 77, "note": 65, "velocity": 108, "channel": 0}, {"type": "note_on", "time": 17, "note": 63, "velocity": 102, "channel": 0}, {"type": "note_off", "time": 100, "note": 63, "velocity": 102, "channel": 0}, {"type": "note_on", "time": 1, "note": 61, "velocity": 93, "channel": 0}, {"type": "note_off", "time": 64, "note": 61, "velocity": 93, "channel": 0}, {"type": "note_on", "time": 11, "note": 58, "velocity": 96, "channel": 0}, {"type": "note_off", "time": 82, "note": 58, "velocity": 96, "channel": 0}, {"type": "note_on", "time": 22, "note": 55, "velocity": 90, "channel": 0}, {"type": "note_off", "time": 72, "note": 55, "velocity": 90, "channel": 0}, {"type": "note_on", "time": 35, "note": 59, "velocity": 98, "channel": 0}, {"type": "note_off", "time": 70, "note": 59, "velocity": 98, "channel": 0}, {"type": "note_on", "time": 0, "note": 60, "velocity": 94, "channel": 0}, {"type": "note_off", "time": 51, "note": 60, "velocity": 94, "channel": 0}, {"type": "note_on", "time": 0, "note": 61, "velocity": 96, "channel": 0}, {"type": "note_off", "time": 212, "note": 61, "velocity": 96, "channel": 0}, {"type": "note_on", "time": 0, "note": 60, "velocity": 95, "channel": 0}, {"type": "note_off", "time": 81, "note": 60, "velocity": 95, "channel": 0}, {"type": "note_on", "time": 0, "note": 61, "velocity": 97, "channel": 0}, {"type": "note_off", "time": 119, "note": 61, "velocity": 97, "channel": 0}, {"type": "note_on", "time": 227, "note": 61, "velocity": 109, "channel": 0}, {"type": "note_off", "time": 94, "note": 61, "velocity": 109, "channel": 0}, {"type": "note_on", "time": 29, "note": 61, "velocity": 102, "channel": 0}, {"type": "note_off", "time": 161, "note": 61, "velocity": 102, "channel": 0}, {"type": "note_on", "time": 25, "note": 62, "velocity": 104, "channel": 0}, {"type": "note_off", "time": 229, "note": 62, "velocity": 104, "channel": 0}, {"type": "note_on", "time": 694, "note": 58, "velocity": 111, "channel": 0}, {"type": "note_off", "time": 57, "note": 58, "velocity": 111, "channel": 0}, {"type": "note_on", "time": 16, "note": 62, "velocity": 118, "channel": 0}, {"type": "note_off", "time": 80, "note": 62, "velocity": 118, "channel": 0}, {"type": "note_on", "time": 34, "note": 65, "velocity": 117, "channel": 0}, {"type": "note_off", "time": 71, "note": 65, "velocity": 117, "channel": 0}, {"type": "note_on", "time": 9, "note": 63, "velocity": 108, "channel": 0}, {"type": "note_off", "time": 91, "note": 63, "velocity": 108, "channel": 0}, {"type": "note_on", "time": 18, "note": 61, "velocity": 98, "channel": 0}, {"type": "note_off", "time": 75, "note": 61, "velocity": 98, "channel": 0}, {"type": "note_on", "time": 4, "note": 60, "velocity": 103, "channel": 0}, {"type": "note_off", "time": 130, "note": 60, "velocity": 103, "channel": 0}, {"type": "note_on", "time": 13, "note": 58, "velocity": 103, "channel": 0}, {"type": "note_off", "time": 39, "note": 58, "velocity": 103, "channel": 0}, {"type": "note_on", "time": 0, "note": 56, "velocity": 101, "channel": 0}, {"type": "note_off", "time": 87, "note": 56, "velocity": 101, "channel": 0}, {"type": "note_on", "time": 128, "note": 58, "velocity": 100, "channel": 0}, {"type": "note_off", "time": 68, "note": 58, "velocity": 100, "channel": 0}, {"type": "note_on", "time": 0, "note": 55, "velocity": 107, "channel": 0}, {"type": "note_off", "time": 80, "note": 55, "velocity": 107, "channel": 0}, {"type": "note_on", "time": 13, "note": 56, "velocity": 102, "channel": 0}, {"type": "note_off", "time": 91, "note": 56, "velocity": 102, "channel": 0}, {"type": "note_on", "time": 20, "note": 53, "velocity": 95, "channel": 0}, {"type": "note_off", "time": 75, "note": 53, "velocity": 95, "channel": 0}, {"type": "note_on", "time": 394, "note": 56, "velocity": 102, "channel": 0}, {"type": "note_off", "time": 110, "note": 56, "velocity": 102, "channel": 0}, {"type": "note_on", "time": 0, "note": 59, "velocity": 95, "channel": 0}, {"type": "note_off", "time": 57, "note": 59, "velocity": 95, "channel": 0}, {"type": "note_on", "time": 0, "note": 62, "velocity": 102, "channel": 0}, {"type": "note_off", "time": 52, "note": 62, "velocity": 102, "channel": 0}, {"type": "note_on", "time": 55, "note": 65, "velocity": 102, "channel": 0}, {"type": "note_off", "time": 78, "note": 65, "velocity": 102, "channel": 0}, {"type": "note_on", "time": 11, "note": 64, "velocity": 91, "channel": 0}, {"type": "note_off", "time": 100, "note": 64, "velocity": 91, "channel": 0}, {"type": "note_on", "time": 71, "note": 63, "velocity": 106, "channel": 0}, {"type": "note_off", "time": 107, "note": 63, "velocity": 106, "channel": 0}, {"type": "note_on", "time": 18, "note": 60, "velocity": 91, "channel": 0}, {"type": "note_off", "time": 45, "note": 60, "velocity": 91, "channel": 0}, {"type": "note_on", "time": 6, "note": 61, "velocity": 104, "channel": 0}, {"type": "note_off", "time": 119, "note": 61, "velocity": 104, "channel": 0}, {"type": "note_on", "time": 11, "note": 58, "velocity": 98, "channel": 0}, {"type": "note_off", "time": 48, "note": 58, "velocity": 98, "channel": 0}, {"type": "note_on", "time": 6, "note": 59, "velocity": 93, "channel": 0}, {"type": "note_off", "time": 94, "note": 59, "velocity": 93, "channel": 0}, {"type": "note_on", "time": 121, "note": 58, "velocity": 96, "channel": 0}, {"type": "note_off", "time": 87, "note": 58, "velocity": 96, "channel": 0}, {"type": "note_on", "time": 323, "note": 54, "velocity": 95, "channel": 0}, {"type": "note_on", "time": 133, "note": 52, "velocity": 88, "channel": 0}, {"type": "note_off", "time": 0, "note": 54, "velocity": 95, "channel": 0}, {"type": "note_off", "time": 57, "note": 52, "velocity": 88, "channel": 0}, {"type": "note_on", "time": 4, "note": 53, "velocity": 92, "channel": 0}, {"type": "note_off", "time": 84, "note": 53, "velocity": 92, "channel": 0}, {"type": "note_on", "time": 66, "note": 58, "velocity": 96, "channel": 0}, {"type": "note_off", "time": 87, "note": 58, "velocity": 96, "channel": 0}, {"type": "note_on", "time": 16, "note": 55, "velocity": 93, "channel": 0}, {"type": "note_off", "time": 41, "note": 55, "velocity": 93, "channel": 0}, {"type": "note_on", "time": 20, "note": 56, "velocity": 92, "channel": 0}, {"type": "note_off", "time": 117, "note": 56, "velocity": 92, "channel": 0}, {"type": "note_on", "time": 708, "note": 68, "velocity": 118, "channel": 0}, {"type": "note_off", "time": 87, "note": 68, "velocity": 118, "channel": 0}, {"type": "note_on", "time": 0, "note": 70, "velocity": 118, "channel": 0}, {"type": "note_off", "time": 73, "note": 70, "velocity": 118, "channel": 0}, {"type": "note_on", "time": 0, "note": 68, "velocity": 117, "channel": 0}, {"type": "note_off", "time": 82, "note": 68, "velocity": 117, "channel": 0}, {"type": "note_on", "time": 48, "note": 65, "velocity": 113, "channel": 0}, {"type": "note_off", "time": 78, "note": 65, "velocity": 113, "channel": 0}, {"type": "note_on", "time": 0, "note": 63, "velocity": 115, "channel": 0}, {"type": "note_off", "time": 89, "note": 63, "velocity": 115, "channel": 0}, {"type": "note_on", "time": 20, "note": 61, "velocity": 103, "channel": 0}, {"type": "note_off", "time": 59, "note": 61, "velocity": 103, "channel": 0}, {"type": "note_on", "time": 11, "note": 60, "velocity": 107, "channel": 0}, {"type": "note_off", "time": 73, "note": 60, "velocity": 107, "channel": 0}, {"type": "note_on", "time": 18, "note": 56, "velocity": 106, "channel": 0}, {"type": "note_off", "time": 84, "note": 56, "velocity": 106, "channel": 0}, {"type": "note_on", "time": 18, "note": 58, "velocity": 98, "channel": 0}, {"type": "note_off", "time": 64, "note": 58, "velocity": 98, "channel": 0}, {"type": "note_on", "time": 13, "note": 63, "velocity": 101, "channel": 0}, {"type": "note_off", "time": 29, "note": 63, "velocity": 101, "channel": 0}, {"type": "note_on", "time": 9, "note": 68, "velocity": 104, "channel": 0}, {"type": "note_off", "time": 34, "note": 68, "velocity": 104, "channel": 0}, {"type": "note_on", "time": 8, "note": 70, "velocity": 101, "channel": 0}, {"type": "note_off", "time": 61, "note": 70, "velocity": 101, "channel": 0}, {"type": "note_on", "time": 12, "note": 72, "velocity": 125, "channel": 0}, {"type": "note_off", "time": 203, "note": 72, "velocity": 125, "channel": 0}, {"type": "note_on", "time": 904, "note": 72, "velocity": 127, "channel": 0}, {"type": "note_off", "time": 78, "note": 72, "velocity": 127, "channel": 0}, {"type": "note_on", "time": 13, "note": 73, "velocity": 123, "channel": 0}, {"type": "note_off", "time": 68, "note": 73, "velocity": 123, "channel": 0}, {"type": "note_on", "time": 20, "note": 73, "velocity": 125, "channel": 0}, {"type": "note_off", "time": 84, "note": 73, "velocity": 125, "channel": 0}, {"type": "note_on", "time": 151, "note": 67, "velocity": 112, "channel": 0}, {"type": "note_off", "time": 48, "note": 67, "velocity": 112, "channel": 0}, {"type": "note_on", "time": 13, "note": 68, "velocity": 101, "channel": 0}, {"type": "note_off", "time": 68, "note": 68, "velocity": 101, "channel": 0}, {"type": "note_on", "time": 0, "note": 63, "velocity": 97, "channel": 0}, {"type": "note_off", "time": 43, "note": 63, "velocity": 97, "channel": 0}, {"type": "note_on", "time": 2, "note": 65, "velocity": 111, "channel": 0}, {"type": "note_off", "time": 71, "note": 65, "velocity": 111, "channel": 0}, {"type": "note_on", "time": 18, "note": 60, "velocity": 103, "channel": 0}, {"type": "note_off", "time": 29, "note": 60, "velocity": 103, "channel": 0}, {"type": "note_on", "time": 0, "note": 61, "velocity": 106, "channel": 0}, {"type": "note_off", "time": 78, "note": 61, "velocity": 106, "channel": 0}, {"type": "note_on", "time": 11, "note": 54, "velocity": 99, "channel": 0}, {"type": "note_off", "time": 27, "note": 54, "velocity": 99, "channel": 0}, {"type": "note_on", "time": 4, "note": 55, "velocity": 102, "channel": 0}, {"type": "note_off", "time": 64, "note": 55, "velocity": 102, "channel": 0}, {"type": "note_on", "time": 57, "note": 53, "velocity": 90, "channel": 0}, {"type": "note_off", "time": 87, "note": 53, "velocity": 90, "channel": 0}, {"type": "note_on", "time": 25, "note": 49, "velocity": 97, "channel": 0}, {"type": "note_off", "time": 71, "note": 49, "velocity": 97, "channel": 0}, {"type": "note_on", "time": 16, "note": 49, "velocity": 104, "channel": 0}, {"type": "note_off", "time": 59, "note": 49, "velocity": 104, "channel": 0}, {"type": "note_on", "time": 128, "note": 57, "velocity": 115, "channel": 0}, {"type": "note_off", "time": 39, "note": 57, "velocity": 115, "channel": 0}, {"type": "note_on", "time": 11, "note": 58, "velocity": 104, "channel": 0}, {"type": "note_off", "time": 640, "note": 58, "velocity": 104, "channel": 0}, {"type": "note_on", "time": 20, "note": 56, "velocity": 109, "channel": 0}, {"type": "note_off", "time": 45, "note": 56, "velocity": 109, "channel": 0}, {"type": "note_on", "time": 0, "note": 55, "velocity": 110, "channel": 0}, {"type": "note_off", "time": 94, "note": 55, "velocity": 110, "channel": 0}, {"type": "note_on", "time": 75, "note": 52, "velocity": 105, "channel": 0}, {"type": "note_off", "time": 73, "note": 52, "velocity": 105, "channel": 0}, {"type": "note_on", "time": 6, "note": 53, "velocity": 96, "channel": 0}, {"type": "note_off", "time": 55, "note": 53, "velocity": 96, "channel": 0}, {"type": "note_on", "time": 27, "note": 58, "velocity": 91, "channel": 0}, {"type": "note_off", "time": 48, "note": 58, "velocity": 91, "channel": 0}, {"type": "note_on", "time": 16, "note": 61, "velocity": 100, "channel": 0}, {"type": "note_off", "time": 87, "note": 61, "velocity": 100, "channel": 0}, {"type": "note_on", "time": 18, "note": 63, "velocity": 100, "channel": 0}, {"type": "note_off", "time": 73, "note": 63, "velocity": 100, "channel": 0}, {"type": "note_on", "time": 22, "note": 64, "velocity": 98, "channel": 0}, {"type": "note_off", "time": 91, "note": 64, "velocity": 98, "channel": 0}, {"type": "note_on", "time": 0, "note": 61, "velocity": 92, "channel": 0}, {"type": "note_off", "time": 73, "note": 61, "velocity": 92, "channel": 0}, {"type": "note_on", "time": 0, "note": 58, "velocity": 84, "channel": 0}, {"type": "note_off", "time": 73, "note": 58, "velocity": 84, "channel": 0}, {"type": "note_on", "time": 103, "note": 63, "velocity": 91, "channel": 0}, {"type": "note_on", "time": 73, "note": 64, "velocity": 99, "channel": 0}, {"type": "note_off", "time": 0, "note": 63, "velocity": 91, "channel": 0}, {"type": "note_off", "time": 107, "note": 64, "velocity": 99, "channel": 0}, {"type": "note_on", "time": 18, "note": 61, "velocity": 95, "channel": 0}, {"type": "note_off", "time": 80, "note": 61, "velocity": 95, "channel": 0}, {"type": "note_on", "time": 663, "note": 64, "velocity": 109, "channel": 0}, {"type": "note_off", "time": 94, "note": 64, "velocity": 109, "channel": 0}, {"type": "note_on", "time": 2, "note": 61, "velocity": 112, "channel": 0}, {"type": "note_off", "time": 64, "note": 61, "velocity": 112, "channel": 0}, {"type": "note_on", "time": 13, "note": 63, "velocity": 113, "channel": 0}, {"type": "note_off", "time": 100, "note": 63, "velocity": 113, "channel": 0}, {"type": "note_on", "time": 13, "note": 61, "velocity": 104, "channel": 0}, {"type": "note_off", "time": 68, "note": 61, "velocity": 104, "channel": 0}, {"type": "note_on", "time": 0, "note": 60, "velocity": 96, "channel": 0}, {"type": "note_off", "time": 82, "note": 60, "velocity": 96, "channel": 0}, {"type": "note_on", "time": 18, "note": 61, "velocity": 88, "channel": 0}, {"type": "note_off", "time": 66, "note": 61, "velocity": 88, "channel": 0}, {"type": "note_on", "time": 11, "note": 69, "velocity": 119, "channel": 0}, {"type": "note_off", "time": 82, "note": 69, "velocity": 119, "channel": 0}, {"type": "note_on", "time": 16, "note": 68, "velocity": 115, "channel": 0}, {"type": "note_off", "time": 64, "note": 68, "velocity": 115, "channel": 0}, {"type": "note_on", "time": 20, "note": 67, "velocity": 113, "channel": 0}, {"type": "note_off", "time": 75, "note": 67, "velocity": 113, "channel": 0}, {"type": "note_on", "time": 9, "note": 66, "velocity": 110, "channel": 0}, {"type": "note_off", "time": 64, "note": 66, "velocity": 110, "channel": 0}, {"type": "note_on", "time": 9, "note": 65, "velocity": 102, "channel": 0}, {"type": "note_off", "time": 236, "note": 65, "velocity": 102, "channel": 0}, {"type": "note_on", "time": 2, "note": 64, "velocity": 102, "channel": 0}, {"type": "note_off", "time": 66, "note": 64, "velocity": 102, "channel": 0}, {"type": "note_on", "time": 708, "note": 66, "velocity": 111, "channel": 0}, {"type": "note_off", "time": 78, "note": 66, "velocity": 111, "channel": 0}, {"type": "note_on", "time": 0, "note": 65, "velocity": 108, "channel": 0}, {"type": "note_off", "time": 96, "note": 65, "velocity": 108, "channel": 0}, {"type": "note_on", "time": 2, "note": 64, "velocity": 106, "channel": 0}, {"type": "note_off", "time": 80, "note": 64, "velocity": 106, "channel": 0}, {"type": "note_on", "time": 43, "note": 62, "velocity": 107, "channel": 0}, {"type": "note_off", "time": 66, "note": 62, "velocity": 107, "channel": 0}, {"type": "note_on", "time": 2, "note": 57, "velocity": 106, "channel": 0}, {"type": "note_off", "time": 75, "note": 57, "velocity": 106, "channel": 0}, {"type": "note_on", "time": 41, "note": 54, "velocity": 93, "channel": 0}, {"type": "note_off", "time": 73, "note": 54, "velocity": 93, "channel": 0}, {"type": "note_on", "time": 20, "note": 52, "velocity": 101, "channel": 0}, {"type": "note_off", "time": 78, "note": 52, "velocity": 101, "channel": 0}, {"type": "note_on", "time": 66, "note": 57, "velocity": 102, "channel": 0}, {"type": "note_off", "time": 96, "note": 57, "velocity": 102, "channel": 0}, {"type": "note_on", "time": 41, "note": 54, "velocity": 98, "channel": 0}, {"type": "note_off", "time": 71, "note": 54, "velocity": 98, "channel": 0}, {"type": "note_on", "time": 123, "note": 57, "velocity": 101, "channel": 0}, {"type": "note_off", "time": 20, "note": 57, "velocity": 101, "channel": 0}, {"type": "note_on", "time": 11, "note": 58, "velocity": 93, "channel": 0}, {"type": "note_off", "time": 27, "note": 58, "velocity": 93, "channel": 0}, {"type": "note_on", "time": 13, "note": 61, "velocity": 99, "channel": 0}, {"type": "note_off", "time": 89, "note": 61, "velocity": 99, "channel": 0}, {"type": "note_on", "time": 41, "note": 65, "velocity": 85, "channel": 0}, {"type": "note_off", "time": 45, "note": 65, "velocity": 85, "channel": 0}, {"type": "note_on", "time": 2, "note": 67, "velocity": 114, "channel": 0}, {"type": "note_off", "time": 128, "note": 67, "velocity": 114, "channel": 0}, {"type": "note_on", "time": 0, "note": 65, "velocity": 101, "channel": 0}, {"type": "note_off", "time": 75, "note": 65, "velocity": 101, "channel": 0}, {"type": "note_on", "time": 25, "note": 64, "velocity": 87, "channel": 0}, {"type": "note_off", "time": 84, "note": 64, "velocity": 87, "channel": 0}, {"type": "note_on", "time": 4, "note": 65, "velocity": 93, "channel": 0}, {"type": "note_off", "time": 73, "note": 65, "velocity": 93, "channel": 0}, {"type": "note_on", "time": 9, "note": 66, "velocity": 110, "channel": 0}, {"type": "note_off", "time": 77, "note": 66, "velocity": 110, "channel": 0}, {"type": "note_on", "time": 12, "note": 61, "velocity": 95, "channel": 0}, {"type": "note_off", "time": 90, "note": 61, "velocity": 95, "channel": 0}, {"type": "note_on", "time": 85, "note": 63, "velocity": 112, "channel": 0}, {"type": "note_on", "time": 55, "note": 65, "velocity": 100, "channel": 0}, {"type": "note_off", "time": 0, "note": 63, "velocity": 112, "channel": 0}, {"type": "note_off", "time": 89, "note": 65, "velocity": 100, "channel": 0}, {"type": "note_on", "time": 55, "note": 64, "velocity": 88, "channel": 0}, {"type": "note_off", "time": 55, "note": 64, "velocity": 88, "channel": 0}, {"type": "note_on", "time": 0, "note": 65, "velocity": 104, "channel": 0}, {"type": "note_off", "time": 94, "note": 65, "velocity": 104, "channel": 0}, {"type": "note_on", "time": 27, "note": 64, "velocity": 98, "channel": 0}, {"type": "note_off", "time": 64, "note": 64, "velocity": 98, "channel": 0}, {"type": "note_on", "time": 0, "note": 65, "velocity": 108, "channel": 0}, {"type": "note_off", "time": 91, "note": 65, "velocity": 108, "channel": 0}, {"type": "note_on", "time": 20, "note": 61, "velocity": 89, "channel": 0}, {"type": "note_off", "time": 57, "note": 61, "velocity": 89, "channel": 0}, {"type": "note_on", "time": 39, "note": 56, "velocity": 92, "channel": 0}, {"type": "note_off", "time": 80, "note": 56, "velocity": 92, "channel": 0}, {"type": "note_on", "time": 43, "note": 54, "velocity": 80, "channel": 0}, {"type": "note_off", "time": 55, "note": 54, "velocity": 80, "channel": 0}, {"type": "note_on", "time": 2, "note": 53, "velocity": 79, "channel": 0}, {"type": "note_off", "time": 84, "note": 53, "velocity": 79, "channel": 0}, {"type": "note_on", "time": 82, "note": 58, "velocity": 103, "channel": 0}, {"type": "note_off", "time": 78, "note": 58, "velocity": 103, "channel": 0}, {"type": "note_on", "time": 64, "note": 55, "velocity": 91, "channel": 0}, {"type": "note_off", "time": 73, "note": 55, "velocity": 91, "channel": 0}, {"type": "note_on", "time": 6, "note": 56, "velocity": 100, "channel": 0}, {"type": "note_off", "time": 82, "note": 56, "velocity": 100, "channel": 0}, {"type": "note_on", "time": 36, "note": 58, "velocity": 96, "channel": 0}, {"type": "note_off", "time": 64, "note": 58, "velocity": 96, "channel": 0}, {"type": "note_on", "time": 13, "note": 60, "velocity": 99, "channel": 0}, {"type": "note_off", "time": 32, "note": 60, "velocity": 99, "channel": 0}, {"type": "note_on", "time": 20, "note": 61, "velocity": 87, "channel": 0}, {"type": "note_on", "time": 39, "note": 62, "velocity": 86, "channel": 0}, {"type": "note_off", "time": 0, "note": 61, "velocity": 87, "channel": 0}, {"type": "note_off", "time": 48, "note": 62, "velocity": 86, "channel": 0}, {"type": "note_on", "time": 0, "note": 63, "velocity": 98, "channel": 0}, {"type": "note_off", "time": 169, "note": 63, "velocity": 98, "channel": 0}, {"type": "note_on", "time": 0, "note": 60, "velocity": 91, "channel": 0}, {"type": "note_off", "time": 55, "note": 60, "velocity": 91, "channel": 0}, {"type": "note_on", "time": 520, "note": 63, "velocity": 99, "channel": 0}, {"type": "note_off", "time": 204, "note": 63, "velocity": 99, "channel": 0}, {"type": "note_on", "time": 55, "note": 60, "velocity": 95, "channel": 0}, {"type": "note_off", "time": 78, "note": 60, "velocity": 95, "channel": 0}, {"type": "note_on", "time": 39, "note": 63, "velocity": 107, "channel": 0}, {"type": "note_off", "time": 71, "note": 63, "velocity": 107, "channel": 0}, {"type": "note_on", "time": 18, "note": 62, "velocity": 97, "channel": 0}, {"type": "note_off", "time": 100, "note": 62, "velocity": 97, "channel": 0}, {"type": "note_on", "time": 20, "note": 60, "velocity": 93, "channel": 0}, {"type": "note_off", "time": 61, "note": 60, "velocity": 93, "channel": 0}, {"type": "note_on", "time": 2, "note": 55, "velocity": 96, "channel": 0}, {"type": "note_off", "time": 64, "note": 55, "velocity": 96, "channel": 0}, {"type": "note_on", "time": 105, "note": 54, "velocity": 92, "channel": 0}, {"type": "note_off", "time": 137, "note": 54, "velocity": 92, "channel": 0}, {"type": "note_on", "time": 162, "note": 58, "velocity": 109, "channel": 0}, {"type": "note_off", "time": 57, "note": 58, "velocity": 109, "channel": 0}, {"type": "note_on", "time": 20, "note": 61, "velocity": 118, "channel": 0}, {"type": "note_off", "time": 64, "note": 61, "velocity": 118, "channel": 0}, {"type": "note_on", "time": 27, "note": 58, "velocity": 104, "channel": 0}, {"type": "note_off", "time": 98, "note": 58, "velocity": 104, "channel": 0}, {"type": "note_on", "time": 376, "note": 61, "velocity": 114, "channel": 0}, {"type": "note_off", "time": 94, "note": 61, "velocity": 114, "channel": 0}, {"type": "note_on", "time": 29, "note": 57, "velocity": 108, "channel": 0}, {"type": "note_off", "time": 52, "note": 57, "velocity": 108, "channel": 0}, {"type": "note_on", "time": 4, "note": 58, "velocity": 113, "channel": 0}, {"type": "note_off", "time": 71, "note": 58, "velocity": 113, "channel": 0}, {"type": "note_on", "time": 22, "note": 59, "velocity": 117, "channel": 0}, {"type": "note_off", "time": 158, "note": 59, "velocity": 117, "channel": 0}, {"type": "note_on", "time": 20, "note": 60, "velocity": 108, "channel": 0}, {"type": "note_off", "time": 252, "note": 60, "velocity": 108, "channel": 0}, {"type": "note_on", "time": 4, "note": 56, "velocity": 111, "channel": 0}, {"type": "note_off", "time": 107, "note": 56, "velocity": 111, "channel": 0}, {"type": "note_on", "time": 36, "note": 53, "velocity": 98, "channel": 0}, {"type": "note_off", "time": 82, "note": 53, "velocity": 98, "channel": 0}, {"type": "note_on", "time": 48, "note": 56, "velocity": 113, "channel": 0}, {"type": "note_off", "time": 146, "note": 56, "velocity": 113, "channel": 0}, {"type": "note_on", "time": 174, "note": 53, "velocity": 97, "channel": 0}, {"type": "note_off", "time": 57, "note": 53, "velocity": 97, "channel": 0}, {"type": "note_on", "time": 18, "note": 56, "velocity": 116, "channel": 0}, {"type": "note_off", "time": 75, "note": 56, "velocity": 116, "channel": 0}, {"type": "note_on", "time": 48, "note": 60, "velocity": 101, "channel": 0}, {"type": "note_off", "time": 64, "note": 60, "velocity": 101, "channel": 0}, {"type": "note_on", "time": 0, "note": 61, "velocity": 102, "channel": 0}, {"type": "note_off", "time": 89, "note": 61, "velocity": 102, "channel": 0}, {"type": "note_on", "time": 11, "note": 62, "velocity": 92, "channel": 0}, {"type": "note_off", "time": 52, "note": 62, "velocity": 92, "channel": 0}, {"type": "note_on", "time": 27, "note": 63, "velocity": 109, "channel": 0}, {"type": "note_off", "time": 123, "note": 63, "velocity": 109, "channel": 0}, {"type": "end_of_track", "time": 0}]]}