{"ticks_per_beat": 192, "tracks": [[{"type": "track_name", "name": "Melody", "time": 0}, {"type": "set_tempo", "tempo": 338983, "time": 0}, {"type": "key_signature", "key": "Bb", "time": 0}, {"type": "time_signature", "numerator": 4, "denominator": 4, "clocks_per_click": 24, "notated_32nd_notes_per_beat": 8, "time": 0}, {"type": "note_on", "time": 1920, "note": 53, "velocity": 105, "channel": 0}, {"type": "note_off", "time": 53, "note": 53, "velocity": 105, "channel": 0}, {"type": "note_on", "time": 4, "note": 58, "velocity": 98, "channel": 0}, {"type": "note_off", "time": 32, "note": 58, "velocity": 98, "channel": 0}, {"type": "note_on", "time": 3, "note": 62, "velocity": 109, "channel": 0}, {"type": "note_off", "time": 53, "note": 62, "velocity": 109, "channel": 0}, {"type": "note_on", "time": 5, "note": 65, "velocity": 114, "channel": 0}, {"type": "note_off", "time": 73, "note": 65, "velocity": 114, "channel": 0}, {"type": "note_on", "time": 35, "note": 62, "velocity": 112, "channel": 0}, {"type": "note_off", "time": 72, "note": 62, "velocity": 112, "channel": 0}, {"type": "note_on", "time": 16, "note": 60, "velocity": 117, "channel": 0}, {"type": "note_off", "time": 82, "note": 60, "velocity": 117, "channel": 0}, {"type": "note_on", "time": 16, "note": 58, "velocity": 106, "channel": 0}, {"type": "note_off", "time": 59, "note": 58, "velocity": 106, "channel": 0}, {"type": "note_on", "time": 17, "note": 55, "velocity": 102, "channel": 0}, {"type": "note_off", "time": 96, "note": 55, "velocity": 102, "channel": 0}, {"type": "note_on", "time": 15, "note": 58, "velocity": 110, "channel": 0}, {"type": "note_off", "time": 50, "note": 58, "velocity": 110, "channel": 0}, {"type": "note_on", "time": 21, "note": 60, "velocity": 115, "channel": 0}, {"type": "note_off", "time": 87, "note": 60, "velocity": 115, "channel": 0}, {"type": "note_on", "time": 11, "note": 62, "velocity": 105, "channel": 0}, {"type": "note_off", "time": 60, "note": 62, "velocity": 105, "channel": 0}, {"type": "note_on", "time": 18, "note": 65, "velocity": 116, "channel": 0}, {"type": "note_off", "time": 92, "note": 65, "velocity": 116, "channel": 0}, {"type": "note_on", "time": 18, "note": 63, "velocity": 108, "channel": 0}, {"type": "note_off", "time": 62, "note": 63, "velocity": 108, "channel": 0}, {"type": "note_on", "time": 10, "note": 64, "velocity": 115, "channel": 0}, {"type": "note_off", "time": 85, "note": 64, "velocity": 115, "channel": 0}, {"type": "note_on", "time": 21, "note": 62, "velocity": 104, "channel": 0}, {"type": "note_off", "time": 78, "note": 62, "velocity": 104, "channel": 0}, {"type": "note_on", "time": 11, "note": 63, "velocity": 113, "channel": 0}, {"type": "note_off", "time": 92, "note": 63, "velocity": 113, "channel": 0}, {"type": "note_on", "time": 25, "note": 60, "velocity": 111, "channel": 0}, {"type": "note_off", "time": 54, "note": 60, "velocity": 111, "channel": 0}, {"type": "note_on", "time": 26, "note": 55, "velocity": 98, "channel": 0}, {"type": "note_off", "time": 149, "note": 55, "velocity": 98, "channel": 0}, {"type": "note_on", "time": 7, "note": 53, "velocity": 86, "channel": 0}, {"type": "note_off", "time": 32, "note": 53, "velocity": 86, "channel": 0}, {"type": "note_on", "time": 8, "note": 62, "velocity": 109, "channel": 0}, {"type": "note_off", "time": 105, "note": 62, "velocity": 109, "channel": 0}, {"type": "note_on", "time": 25, "note": 58, "velocity": 98, "channel": 0}, {"type": "note_off", "time": 36, "note": 58, "velocity": 98, "channel": 0}, {"type": "note_on", "time": 30, "note": 61, "velocity": 104, "channel": 0}, {"type": "note_off", "time": 83, "note": 61, "velocity": 104, "channel": 0}, {"type": "note_on", "time": 20, "note": 58, "velocity": 93, "channel": 0}, {"type": "note_off", "time": 69, "note": 58, "velocity": 93, "channel": 0}, {"type": "note_on", "time": 7, "note": 60, "velocity": 107, "channel": 0}, {"type": "note_off", "time": 110, "note": 60, "velocity": 107, "channel": 0}, {"type": "note_on", "time": 6, "note": 58, "velocity": 89, "channel": 0}, {"type": "note_off", "time": 57, "note": 58, "velocity": 89, "channel": 0}, {"type": "note_on", "time": 18, "note": 55, "velocity": 93, "channel": 0}, {"type": "note_off", "time": 77, "note": 55, "velocity": 93, "channel": 0}, {"type": "note_on", "time": 11, "note": 56, "velocity": 106, "channel": 0}, {"type": "note_off", "time": 60, "note": 56, "velocity": 106, "channel": 0}, {"type": "note_on", "time": 6, "note": 57, "velocity": 101, "channel": 0}, {"type": "note_off", "time": 96, "note": 57, "velocity": 101, "channel": 0}, {"type": "note_on", "time": 28, "note": 56, "velocity": 97, "channel": 0}, {"type": "note_off", "time": 49, "note": 56, "velocity": 97, "channel": 0}, {"type": "note_on", "time": 23, "note": 55, "velocity": 96, "channel": 0}, {"type": "note_off", "time": 96, "note": 55, "velocity": 96, "channel": 0}, {"type": "note_on", "time": 36, "note": 55, "velocity": 89, "channel": 0}, {"type": "note_off", "time": 27, "note": 55, "velocity": 89, "channel": 0}, {"type": "note_on", "time": 10, "note": 54, "velocity": 91, "channel": 0}, {"type": "note_off", "time": 27, "note": 54, "velocity": 91, "channel": 0}, {"type": "note_on", "time": 6, "note": 53, "velocity": 88, "channel": 0}, {"type": "note_off", "time": 106, "note": 53, "velocity": 88, "channel": 0}, {"type": "note_on", "time": 86, "note": 65, "velocity": 98, "channel": 0}, {"type": "note_off", "time": 52, "note": 65, "velocity": 98, "channel": 0}, {"type": "note_on", "time": 15, "note": 67, "velocity": 89, "channel": 0}, {"type": "note_off", "time": 29, "note": 67, "velocity": 89, "channel": 0}, {"type": "note_on", "time": 3, "note": 65, "velocity": 92, "channel": 0}, {"type": "note_off", "time": 21, "note": 65, "velocity": 92, "channel": 0}, {"type": "note_on", "time": 5, "note": 63, "velocity": 94, "channel": 0}, {"type": "note_off", "time": 53, "note": 63, "velocity": 94, "channel": 0}, {"type": "note_on", "time": 12, "note": 62, "velocity": 95, "channel": 0}, {"type": "note_off", "time": 59, "note": 62, "velocity": 95, "channel": 0}, {"type": "note_on", "time": 508, "note": 65, "velocity": 111, "channel": 0}, {"type": "note_off", "time": 40, "note": 65, "velocity": 111, "channel": 0}, {"type": "note_on", "time": 5, "note": 67, "velocity": 111, "channel": 0}, {"type": "note_off", "time": 40, "note": 67, "velocity": 111, "channel": 0}, {"type": "note_on", "time": 11, "note": 65, "velocity": 106, "channel": 0}, {"type": "note_off", "time": 20, "note": 65, "velocity": 106, "channel": 0}, {"type": "note_on", "time": 9, "note": 63, "velocity": 113, "channel": 0}, {"type": "note_off", "time": 45, "note": 63, "velocity": 113, "channel": 0}, {"type": "note_on", "time": 4, "note": 64, "velocity": 116, "channel": 0}, {"type": "note_off", "time": 97, "note": 64, "velocity": 116, "channel": 0}, {"type": "note_on", "time": 38, "note": 59, "velocity": 105, "channel": 0}, {"type": "note_off", "time": 46, "note": 59, "velocity": 105, "channel": 0}, {"type": "note_on", "time": 17, "note": 56, "velocity": 95, "channel": 0}, {"type": "note_off", "time": 109, "note": 56, "velocity": 95, "channel": 0}, {"type": "note_on", "time": 13, "note": 57, "velocity": 107, "channel": 0}, {"type": "note_off", "time": 56, "note": 57, "velocity": 107, "channel": 0}, {"type": "note_on", "time": 11, "note": 58, "velocity": 99, "channel": 0}, {"type": "note_off", "time": 120, "note": 58, "velocity": 99, "channel": 0}, {"type": "note_on", "time": 16, "note": 54, "velocity": 94, "channel": 0}, {"type": "note_off", "time": 50, "note": 54, "velocity": 94, "channel": 0}, {"type": "note_on", "time": 6, "note": 55, "velocity": 101, "channel": 0}, {"type": "note_off", "time": 94, "note": 55, "velocity": 101, "channel": 0}, {"type": "note_on", "time": 28, "note": 58, "velocity": 98, "channel": 0}, {"type": "note_off", "time": 56, "note": 58, "velocity": 98, "channel": 0}, {"type": "note_on", "time": 19, "note": 60, "velocity": 104, "channel": 0}, {"type": "note_off", "time": 99, "note": 60, "velocity": 104, "channel": 0}, {"type": "note_on", "time": 9, "note": 61, "velocity": 100, "channel": 0}, {"type": "note_off", "time": 56, "note": 61, "velocity": 100, "channel": 0}, {"type": "note_on", "time": 5, "note": 62, "velocity": 107, "channel": 0}, {"type": "note_off", "time": 108, "note": 62, "velocity": 107, "channel": 0}, {"type": "note_on", "time": 24, "note": 61, "velocity": 103, "channel": 0}, {"type": "note_off", "time": 69, "note": 61, "velocity": 103, "channel": 0}, {"type": "note_on", "time": 13, "note": 60, "velocity": 103, "channel": 0}, {"type": "note_off", "time": 94, "note": 60, "velocity": 103, "channel": 0}, {"type": "note_on", "time": 17, "note": 58, "velocity": 97, "channel": 0}, {"type": "note_off", "time": 71, "note": 58, "velocity": 97, "channel": 0}, {"type": "note_on", "time": 17, "note": 57, "velocity": 104, "channel": 0}, {"type": "note_off", "time": 89, "note": 57, "velocity": 104, "channel": 0}, {"type": "note_on", "time": 17, "note": 55, "velocity": 100, "channel": 0}, {"type": "note_off", "time": 55, "note": 55, "velocity": 100, "channel": 0}, {"type": "note_on", "time": 21, "note": 53, "velocity": 91, "channel": 0}, {"type": "note_off", "time": 138, "note": 53, "velocity": 91, "channel": 0}, {"type": "note_on", "time": 33, "note": 51, "velocity": 95, "channel": 0}, {"type": "note_off", "time": 124, "note": 51, "velocity": 95, "channel": 0}, {"type": "note_on", "time": 78, "note": 50, "velocity": 89, "channel": 0}, {"type": "note_off", "time": 90, "note": 50, "velocity": 89, "channel": 0}, {"type": "note_on", "time": 16, "note": 53, "velocity": 84, "channel": 0}, {"type": "note_off", "time": 60, "note": 53, "velocity": 84, "channel": 0}, {"type": "note_on", "time": 7, "note": 55, "velocity": 90, "channel": 0}, {"type": "note_off", "time": 108, "note": 55, "velocity": 90, "channel": 0}, {"type": "note_on", "time": 30, "note": 58, "velocity": 87, "channel": 0}, {"type": "note_off", "time": 50, "note": 58, "velocity": 87, "channel": 0}, {"type": "note_on", "time": 24, "note": 58, "velocity": 93, "channel": 0}, {"type": "note_off", "time": 91, "note": 58, "velocity": 93, "channel": 0}, {"type": "note_on", "time": 15, "note": 53, "velocity": 87, "channel": 0}, {"type": "note_off", "time": 105, "note": 53, "velocity": 87, "channel": 0}, {"type": "note_on", "time": 347, "note": 58, "velocity": 98, "channel": 0}, {"type": "note_off", "time": 82, "note": 58, "velocity": 98, "channel": 0}, {"type": "note_on", "time": 9, "note": 58, "velocity": 92, "channel": 0}, {"type": "note_off", "time": 49, "note": 58, "velocity": 92, "channel": 0}, {"type": "note_on", "time": 22, "note": 59, "velocity": 107, "channel": 0}, {"type": "note_off", "time": 110, "note": 59, "velocity": 107, "channel": 0}, {"type": "note_on", "time": 33, "note": 62, "velocity": 108, "channel": 0}, {"type": "note_off", "time": 57, "note": 62, "velocity": 108, "channel": 0}, {"type": "note_on", "time": 6, "note": 65, "velocity": 108, "channel": 0}, {"type": "note_off", "time": 94, "note": 65, "velocity": 108, "channel": 0}, {"type": "note_on", "time": 28, "note": 59, "velocity": 104, "channel": 0}, {"type": "note_off", "time": 62, "note": 59, "velocity": 104, "channel": 0}, {"type": "note_on", "time": 19, "note": 60, "velocity": 107, "channel": 0}, {"type": "note_off", "time": 84, "note": 60, "velocity": 107, "channel": 0}, {"type": "note_on", "time": 26, "note": 63, "velocity": 111, "channel": 0}, {"type": "note_off", "time": 60, "note": 63, "velocity": 111, "channel": 0}, {"type": "note_on", "time": 17, "note": 67, "velocity": 114, "channel": 0}, {"type": "note_off", "time": 86, "note": 67, "velocity": 114, "channel": 0}, {"type": "note_on", "time": 18, "note": 63, "velocity": 93, "channel": 0}, {"type": "note_off", "time": 65, "note": 63, "velocity": 93, "channel": 0}, {"type": "note_on", "time": 3, "note": 65, "velocity": 112, "channel": 0}, {"type": "note_off", "time": 23, "note": 65, "velocity": 112, "channel": 0}, {"type": "note_on", "time": 5, "note": 66, "velocity": 109, "channel": 0}, {"type": "note_off", "time": 64, "note": 66, "velocity": 109, "channel": 0}, {"type": "note_on", "time": 20, "note": 63, "velocity": 101, "channel": 0}, {"type": "note_off", "time": 69, "note": 63, "velocity": 101, "channel": 0}, {"type": "note_on", "time": 3, "note": 65, "velocity": 111, "channel": 0}, {"type": "note_off", "time": 85, "note": 65, "velocity": 111, "channel": 0}, {"type": "note_on", "time": 11, "note": 62, "velocity": 103, "channel": 0}, {"type": "note_off", "time": 70, "note": 62, "velocity": 103, "channel": 0}, {"type": "note_on", "time": 11, "note": 63, "velocity": 113, "channel": 0}, {"type": "note_off", "time": 114, "note": 63, "velocity": 113, "channel": 0}, {"type": "note_on", "time": 7, "note": 60, "velocity": 106, "channel": 0}, {"type": "note_off", "time": 84, "note": 60, "velocity": 106, "channel": 0}, {"type": "note_on", "time": 8, "note": 55, "velocity": 99, "channel": 0}, {"type": "note_off", "time": 87, "note": 55, "velocity": 99, "channel": 0}, {"type": "note_on", "time": 16, "note": 53, "velocity": 90, "channel": 0}, {"type": "note_off", "time": 54, "note": 53, "velocity": 90, "channel": 0}, {"type": "note_on", "time": 15, "note": 61, "velocity": 105, "channel": 0}, {"type": "note_off", "time": 41, "note": 61, "velocity": 105, "channel": 0}, {"type": "note_on", "time": 11, "note": 62, "velocity": 110, "channel": 0}, {"type": "note_off", "time": 40, "note": 62, "velocity": 110, "channel": 0}, {"type": "note_on", "time": 3, "note": 63, "velocity": 101, "channel": 0}, {"type": "note_off", "time": 32, "note": 63, "velocity": 101, "channel": 0}, {"type": "note_on", "time": 1, "note": 62, "velocity": 100, "channel": 0}, {"type": "note_off", "time": 25, "note": 62, "velocity": 100, "channel": 0}, {"type": "note_on", "time": 10, "note": 60, "velocity": 91, "channel": 0}, {"type": "note_off", "time": 37, "note": 60, "velocity": 91, "channel": 0}, {"type": "note_on", "time": 8, "note": 61, "velocity": 98, "channel": 0}, {"type": "note_off", "time": 104, "note": 61, "velocity": 98, "channel": 0}, {"type": "note_on", "time": 22, "note": 55, "velocity": 92, "channel": 0}, {"type": "note_off", "time": 55, "note": 55, "velocity": 92, "channel": 0}, {"type": "note_on", "time": 27, "note": 59, "velocity": 100, "channel": 0}, {"type": "note_off", "time": 38, "note": 59, "velocity": 100, "channel": 0}, {"type": "note_on", "time": 2, "note": 60, "velocity": 99, "channel": 0}, {"type": "note_off", "time": 72, "note": 60, "velocity": 99, "channel": 0}, {"type": "note_on", "time": 6, "note": 58, "velocity": 101, "channel": 0}, {"type": "note_off", "time": 39, "note": 58, "velocity": 101, "channel": 0}, {"type": "note_on", "time": 25, "note": 55, "velocity": 97, "channel": 0}, {"type": "note_off", "time": 47, "note": 55, "velocity": 97, "channel": 0}, {"type": "note_on", "time": 340, "note": 59, "velocity": 114, "channel": 0}, {"type": "note_off", "time": 115, "note": 59, "velocity": 114, "channel": 0}, {"type": "note_on", "time": 9, "note": 60, "velocity": 113, "channel": 0}, {"type": "note_off", "time": 210, "note": 60, "velocity": 113, "channel": 0}, {"type": "note_on", "time": 22, "note": 55, "velocity": 110, "channel": 0}, {"type": "note_off", "time": 90, "note": 55, "velocity": 110, "channel": 0}, {"type": "note_on", "time": 105, "note": 59, "velocity": 111, "channel": 0}, {"type": "note_off", "time": 100, "note": 59, "velocity": 111, "channel": 0}, {"type": "note_on", "time": 16, "note": 55, "velocity": 105, "channel": 0}, {"type": "note_off", "time": 70, "note": 55, "velocity": 105, "channel": 0}, {"type": "note_on", "time": 16, "note": 52, "velocity": 105, "channel": 0}, {"type": "note_off", "time": 91, "note": 52, "velocity": 105, "channel": 0}, {"type": "note_on", "time": 15, "note": 50, "velocity": 89, "channel": 0}, {"type": "note_off", "time": 52, "note": 50, "velocity": 89, "channel": 0}, {"type": "note_on", "time": 23, "note": 51, "velocity": 95, "channel": 0}, {"type": "note_off", "time": 221, "note": 51, "velocity": 95, "channel": 0}, {"type": "note_on", "time": 9, "note": 50, "velocity": 100, "channel": 0}, {"type": "note_off", "time": 40, "note": 50, "velocity": 100, "channel": 0}, {"type": "note_on", "time": 6, "note": 53, "velocity": 89, "channel": 0}, {"type": "note_off", "time": 48, "note": 53, "velocity": 89, "channel": 0}, {"type": "note_on", "time": 9, "note": 55, "velocity": 100, "channel": 0}, {"type": "note_off", "time": 36, "note": 55, "velocity": 100, "channel": 0}, {"type": "note_on", "time": 6, "note": 62, "velocity": 108, "channel": 0}, {"type": "note_off", "time": 131, "note": 62, "velocity": 108, "channel": 0}, {"type": "note_on", "time": 9, "note": 61, "velocity": 102, "channel": 0}, {"type": "note_off", "time": 46, "note": 61, "velocity": 102, "channel": 0}, {"type": "note_on", "time": 2, "note": 60, "velocity": 108, "channel": 0}, {"type": "note_off", "time": 116, "note": 60, "velocity": 108, "channel": 0}, {"type": "note_on", "time": 20, "note": 58, "velocity": 95, "channel": 0}, {"type": "note_off", "time": 39, "note": 58, "velocity": 95, "channel": 0}, {"type": "note_on", "time": 21, "note": 57, "velocity": 105, "channel": 0}, {"type": "note_off", "time": 114, "note": 57, "velocity": 105, "channel": 0}, {"type": "note_on", "time": 647, "note": 67, "velocity": 97, "channel": 0}, {"type": "note_off", "time": 28, "note": 67, "velocity": 97, "channel": 0}, {"type": "note_on", "time": 15, "note": 70, "velocity": 100, "channel": 0}, {"type": "note_off", "time": 43, "note": 70, "velocity": 100, "channel": 0}, {"type": "note_on", "time": 13, "note": 67, "velocity": 106, "channel": 0}, {"type": "note_off", "time": 62, "note": 67, "velocity": 106, "channel": 0}, {"type": "note_on", "time": 18, "note": 65, "velocity": 116, "channel": 0}, {"type": "note_off", "time": 99, "note": 65, "velocity": 116, "channel": 0}, {"type": "note_on", "time": 28, "note": 63, "velocity": 115, "channel": 0}, {"type": "note_off", "time": 80, "note": 63, "velocity": 115, "channel": 0}, {"type": "note_on", "time": 6, "note": 62, "velocity": 113, "channel": 0}, {"type": "note_off", "time": 90, "note": 62, "velocity": 113, "channel": 0}, {"type": "note_on", "time": 15, "note": 61, "velocity": 109, "channel": 0}, {"type": "note_off", "time": 75, "note": 61, "velocity": 109, "channel": 0}, {"type": "note_on", "time": 11, "note": 60, "velocity": 111, "channel": 0}, {"type": "note_off", "time": 90, "note": 60, "velocity": 111, "channel": 0}, {"type": "note_on", "time": 15, "note": 59, "velocity": 108, "channel": 0}, {"type": "note_off", "time": 68, "note": 59, "velocity": 108, "channel": 0}, {"type": "note_on", "time": 17, "note": 58, "velocity": 103, "channel": 0}, {"type": "note_off", "time": 86, "note": 58, "velocity": 103, "channel": 0}, {"type": "note_on", "time": 25, "note": 55, "velocity": 102, "channel": 0}, {"type": "note_off", "time": 62, "note": 55, "velocity": 102, "channel": 0}, {"type": "note_on", "time": 18, "note": 51, "velocity": 98, "channel": 0}, {"type": "note_off", "time": 75, "note": 51, "velocity": 98, "channel": 0}, {"type": "note_on", "time": 35, "note": 48, "velocity": 92, "channel": 0}, {"type": "note_off", "time": 58, "note": 48, "velocity": 92, "channel": 0}, {"type": "note_on", "time": 26, "note": 50, "velocity": 99, "channel": 0}, {"type": "note_off", "time": 86, "note": 50, "velocity": 99, "channel": 0}, {"type": "note_on", "time": 20, "note": 53, "velocity": 98, "channel": 0}, {"type": "note_off", "time": 50, "note": 53, "velocity": 98, "channel": 0}, {"type": "note_on", "time": 15, "note": 55, "velocity": 106, "channel": 0}, {"type": "note_off", "time": 93, "note": 55, "velocity": 106, "channel": 0}, {"type": "note_on", "time": 24, "note": 58, "velocity": 103, "channel": 0}, {"type": "note_off", "time": 71, "note": 58, "velocity": 103, "channel": 0}, {"type": "note_on", "time": 6, "note": 57, "velocity": 107, "channel": 0}, {"type": "note_off", "time": 92, "note": 57, "velocity": 107, "channel": 0}, {"type": "note_on", "time": 15, "note": 55, "velocity": 102, "channel": 0}, {"type": "note_off", "time": 70, "note": 55, "velocity": 102, "channel": 0}, {"type": "note_on", "time": 13, "note": 52, "velocity": 92, "channel": 0}, {"type": "note_off", "time": 112, "note": 52, "velocity": 92, "channel": 0}, {"type": "note_on", "time": 8, "note": 53, "velocity": 92, "channel": 0}, {"type": "note_off", "time": 54, "note": 53, "velocity": 92, "channel": 0}, {"type": "note_on", "time": 12, "note": 54, "velocity": 98, "channel": 0}, {"type": "note_off", "time": 98, "note": 54, "velocity": 98, "channel": 0}, {"type": "note_on", "time": 41, "note": 64, "velocity": 90, "channel": 0}, {"type": "note_off", "time": 226, "note": 64, "velocity": 90, "channel": 0}, {"type": "note_on", "time": 14, "note": 62, "velocity": 94, "channel": 0}, {"type": "note_off", "time": 62, "note": 62, "velocity": 94, "channel": 0}, {"type": "note_on", "time": 634, "note": 64, "velocity": 109, "channel": 0}, {"type": "note_off", "time": 246, "note": 64, "velocity": 109, "channel": 0}, {"type": "note_on", "time": 0, "note": 62, "velocity": 112, "channel": 0}, {"type": "note_off", "time": 56, "note": 62, "velocity": 112, "channel": 0}, {"type": "note_on", "time": 5, "note": 64, "velocity": 104, "channel": 0}, {"type": "note_off", "time": 35, "note": 64, "velocity": 104, "channel": 0}, {"type": "note_on", "time": 2, "note": 62, "velocity": 108, "channel": 0}, {"type": "note_off", "time": 28, "note": 62, "velocity": 108, "channel": 0}, {"type": "note_on", "time": 4, "note": 60, "velocity": 106, "channel": 0}, {"type": "note_off", "time": 58, "note": 60, "velocity": 106, "channel": 0}, {"type": "note_on", "time": 3, "note": 59, "velocity": 115, "channel": 0}, {"type": "note_off", "time": 126, "note": 59, "velocity": 115, "channel": 0}, {"type": "note_on", "time": 83, "note": 69, "velocity": 117, "channel": 0}, {"type": "note_off", "time": 41, "note": 69, "velocity": 117, "channel": 0}, {"type": "note_on", "time": 4, "note": 70, "velocity": 111, "channel": 0}, {"type": "note_off", "time": 18, "note": 70, "velocity": 111, "channel": 0}, {"type": "note_on", "time": 5, "note": 69, "velocity": 113, "channel": 0}, {"type": "note_off", "time": 38, "note": 69, "velocity": 113, "channel": 0}, {"type": "note_on", "time": 6, "note": 67, "velocity": 112, "channel": 0}, {"type": "note_off", "time": 46, "note": 67, "velocity": 112, "channel": 0}, {"type": "note_on", "time": 4, "note": 65, "velocity": 114, "channel": 0}, {"type": "note_off", "time": 113, "note": 65, "velocity": 114, "channel": 0}, {"type": "note_on", "time": 6, "note": 64, "velocity": 114, "channel": 0}, {"type": "note_off", "time": 66, "note": 64, "velocity": 114, "channel": 0}, {"type": "note_on", "time": 7, "note": 62, "velocity": 109, "channel": 0}, {"type": "note_off", "time": 109, "note": 62, "velocity": 109, "channel": 0}, {"type": "note_on", "time": 13, "note": 60, "velocity": 105, "channel": 0}, {"type": "note_off", "time": 61, "note": 60, "velocity": 105, "channel": 0}, {"type": "note_on", "time": 18, "note": 59, "velocity": 109, "channel": 0}, {"type": "note_off", "time": 101, "note": 59, "velocity": 109, "channel": 0}, {"type": "note_on", "time": 26, "note": 55, "velocity": 93, "channel": 0}, {"type": "note_off", "time": 143, "note": 55, "velocity": 93, "channel": 0}, {"type": "note_on", "time": 46, "note": 57, "velocity": 103, "channel": 0}, {"type": "note_off", "time": 78, "note": 57, "velocity": 103, "channel": 0}, {"type": "note_on", "time": 6, "note": 58, "velocity": 98, "channel": 0}, {"type": "note_off", "time": 89, "note": 58, "velocity": 98, "channel": 0}, {"type": "note_on", "time": 10, "note": 57, "velocity": 92, "channel": 0}, {"type": "note_off", "time": 22, "note": 57, "velocity": 92, "channel": 0}, {"type": "note_on", "time": 4, "note": 55, "velocity": 92, "channel": 0}, {"type": "note_off", "time": 39, "note": 55, "velocity": 92, "channel": 0}, {"type": "note_on", "time": 4, "note": 54, "velocity": 89, "channel": 0}, {"type": "note_off", "time": 129, "note": 54, "velocity": 89, "channel": 0}, {"type": "note_on", "time": 8, "note": 57, "velocity": 96, "channel": 0}, {"type": "note_off", "time": 57, "note": 57, "velocity": 96, "channel": 0}, {"type": "note_on", "time": 7, "note": 55, "velocity": 103, "channel": 0}, {"type": "note_off", "time": 47, "note": 55, "velocity": 103, "channel": 0}, {"type": "note_on", "time": 446, "note": 54, "velocity": 104, "channel": 0}, {"type": "note_off", "time": 26, "note": 54, "velocity": 104, "channel": 0}, {"type": "note_on", "time": 3, "note": 58, "velocity": 110, "channel": 0}, {"type": "note_off", "time": 29, "note": 58, "velocity": 110, "channel": 0}, {"type": "note_on", "time": 21, "note": 62, "velocity": 110, "channel": 0}, {"type": "note_off", "time": 65, "note": 62, "velocity": 110, "channel": 0}, {"type": "note_on", "time": 12, "note": 67, "velocity": 116, "channel": 0}, {"type": "note_off", "time": 82, "note": 67, "velocity": 116, "channel": 0}, {"type": "note_on", "time": 6, "note": 66, "velocity": 107, "channel": 0}, {"type": "note_off", "time": 23, "note": 66, "velocity": 107, "channel": 0}, {"type": "note_on", "time": 8, "note": 67, "velocity": 108, "channel": 0}, {"type": "note_off", "time": 33, "note": 67, "velocity": 108, "channel": 0}, {"type": "note_on", "time": 2, "note": 66, "velocity": 105, "channel": 0}, {"type": "note_off", "time": 24, "note": 66, "velocity": 105, "channel": 0}, {"type": "note_on", "time": 22, "note": 62, "velocity": 108, "channel": 0}, {"type": "note_off", "time": 49, "note": 62, "velocity": 108, "channel": 0}, {"type": "note_on", "time": 12, "note": 65, "velocity": 114, "channel": 0}, {"type": "note_off", "time": 117, "note": 65, "velocity": 114, "channel": 0}, {"type": "note_on", "time": 22, "note": 63, "velocity": 106, "channel": 0}, {"type": "note_off", "time": 66, "note": 63, "velocity": 106, "channel": 0}, {"type": "note_on", "time": 6, "note": 64, "velocity": 113, "channel": 0}, {"type": "note_off", "time": 123, "note": 64, "velocity": 113, "channel": 0}, {"type": "note_on", "time": 11, "note": 62, "velocity": 94, "channel": 0}, {"type": "note_off", "time": 45, "note": 62, "velocity": 94, "channel": 0}, {"type": "note_on", "time": 2, "note": 63, "velocity": 113, "channel": 0}, {"type": "note_off", "time": 104, "note": 63, "velocity": 113, "channel": 0}, {"type": "note_on", "time": 19, "note": 60, "velocity": 97, "channel": 0}, {"type": "note_off", "time": 61, "note": 60, "velocity": 97, "channel": 0}, {"type": "note_on", "time": 19, "note": 62, "velocity": 110, "channel": 0}, {"type": "note_off", "time": 52, "note": 62, "velocity": 110, "channel": 0}, {"type": "note_on", "time": 8, "note": 63, "velocity": 106, "channel": 0}, {"type": "note_off", "time": 36, "note": 63, "velocity": 106, "channel": 0}, {"type": "note_on", "time": 9, "note": 62, "velocity": 105, "channel": 0}, {"type": "note_off", "time": 41, "note": 62, "velocity": 105, "channel": 0}, {"type": "note_on", "time": 17, "note": 61, "velocity": 96, "channel": 0}, {"type": "note_off", "time": 527, "note": 61, "velocity": 96, "channel": 0}, {"type": "note_on", "time": 6, "note": 62, "velocity": 103, "channel": 0}, {"type": "note_off", "time": 83, "note": 62, "velocity": 103, "channel": 0}, {"type": "note_on", "time": 13, "note": 63, "velocity": 101, "channel": 0}, {"type": "note_off", "time": 23, "note": 63, "velocity": 101, "channel": 0}, {"type": "note_on", "time": 10, "note": 62, "velocity": 105, "channel": 0}, {"type": "note_off", "time": 32, "note": 62, "velocity": 105, "channel": 0}, {"type": "note_on", "time": 15, "note": 60, "velocity": 98, "channel": 0}, {"type": "note_off", "time": 37, "note": 60, "velocity": 98, "channel": 0}, {"type": "note_on", "time": 5, "note": 57, "velocity": 98, "channel": 0}, {"type": "note_off", "time": 37, "note": 57, "velocity": 98, "channel": 0}, {"type": "note_on", "time": 6, "note": 55, "velocity": 94, "channel": 0}, {"type": "note_off", "time": 39, "note": 55, "velocity": 94, "channel": 0}, {"type": "note_on", "time": 6, "note": 54, "velocity": 95, "channel": 0}, {"type": "note_off", "time": 40, "note": 54, "velocity": 95, "channel": 0}, {"type": "note_on", "time": 16, "note": 52, "velocity": 91, "channel": 0}, {"type": "note_off", "time": 80, "note": 52, "velocity": 91, "channel": 0}, {"type": "note_on", "time": 14, "note": 60, "velocity": 89, "channel": 0}, {"type": "note_off", "time": 150, "note": 60, "velocity": 89, "channel": 0}, {"type": "note_on", "time": 19, "note": 55, "velocity": 87, "channel": 0}, {"type": "note_off", "time": 145, "note": 55, "velocity": 87, "channel": 0}, {"type": "note_on", "time": 338, "note": 55, "velocity": 101, "channel": 0}, {"type": "note_off", "time": 83, "note": 55, "velocity": 101, "channel": 0}, {"type": "note_on", "time": 14, "note": 58, "velocity": 103, "channel": 0}, {"type": "note_off", "time": 36, "note": 58, "velocity": 103, "channel": 0}, {"type": "note_on", "time": 6, "note": 55, "velocity": 103, "channel": 0}, {"type": "note_off", "time": 36, "note": 55, "velocity": 103, "channel": 0}, {"type": "note_on", "time": 21, "note": 51, "velocity": 94, "channel": 0}, {"type": "note_off", "time": 182, "note": 51, "velocity": 94, "channel": 0}, {"type": "note_on", "time": 23, "note": 56, "velocity": 108, "channel": 0}, {"type": "note_off", "time": 36, "note": 56, "velocity": 108, "channel": 0}, {"type": "note_on", "time": 5, "note": 57, "velocity": 107, "channel": 0}, {"type": "note_off", "time": 59, "note": 57, "velocity": 107, "channel": 0}, {"type": "note_on", "time": 8, "note": 55, "velocity": 96, "channel": 0}, {"type": "note_off", "time": 21, "note": 55, "velocity": 96, "channel": 0}, {"type": "note_on", "time": 8, "note": 53, "velocity": 92, "channel": 0}, {"type": "note_off", "time": 34, "note": 53, "velocity": 92, "channel": 0}, {"type": "note_on", "time": 5, "note": 51, "velocity": 95, "channel": 0}, {"type": "note_off", "time": 32, "note": 51, "velocity": 95, "channel": 0}, {"type": "note_on", "time": 8, "note": 50, "velocity": 95, "channel": 0}, {"type": "note_off", "time": 54, "note": 50, "velocity": 95, "channel": 0}, {"type": "note_on", "time": 55, "note": 55, "velocity": 105, "channel": 0}, {"type": "note_off", "time": 37, "note": 55, "velocity": 105, "channel": 0}, {"type": "note_on", "time": 10, "note": 53, "velocity": 97, "channel": 0}, {"type": "note_off", "time": 25, "note": 53, "velocity": 97, "channel": 0}, {"type": "note_on", "time": 6, "note": 51, "velocity": 90, "channel": 0}, {"type": "note_off", "time": 26, "note": 51, "velocity": 90, "channel": 0}, {"type": "note_on", "time": 4, "note": 50, "velocity": 114, "channel": 0}, {"type": "note_off", "time": 26, "note": 50, "velocity": 114, "channel": 0}, {"type": "note_on", "time": 8, "note": 48, "velocity": 103, "channel": 0}, {"type": "note_off", "time": 66, "note": 48, "velocity": 103, "channel": 0}, {"type": "note_on", "time": 32, "note": 53, "velocity": 99, "channel": 0}, {"type": "note_off", "time": 60, "note": 53, "velocity": 99, "channel": 0}, {"type": "note_on", "time": 3, "note": 51, "velocity": 110, "channel": 0}, {"type": "note_off", "time": 25, "note": 51, "velocity": 110, "channel": 0}, {"type": "note_on", "time": 3, "note": 50, "velocity": 111, "channel": 0}, {"type": "note_off", "time": 25, "note": 50, "velocity": 111, "channel": 0}, {"type": "note_on", "time": 5, "note": 48, "velocity": 107, "channel": 0}, {"type": "note_off", "time": 40, "note": 48, "velocity": 107, "channel": 0}, {"type": "note_on", "time": 3, "note": 46, "velocity": 100, "channel": 0}, {"type": "note_off", "time": 80, "note": 46, "velocity": 100, "channel": 0}, {"type": "note_on", "time": 476, "note": 46, "velocity": 101, "channel": 0}, {"type": "note_off", "time": 109, "note": 46, "velocity": 101, "channel": 0}, {"type": "note_on", "time": 9, "note": 47, "velocity": 96, "channel": 0}, {"type": "note_off", "time": 143, "note": 47, "velocity": 96, "channel": 0}, {"type": "note_on", "time": 12, "note": 58, "velocity": 108, "channel": 0}, {"type": "note_off", "time": 25, "note": 58, "velocity": 108, "channel": 0}, {"type": "note_on", "time": 1, "note": 59, "velocity": 95, "channel": 0}, {"type": "note_off", "time": 96, "note": 59, "velocity": 95, "channel": 0}, {"type": "note_on", "time": 23, "note": 53, "velocity": 97, "channel": 0}, {"type": "note_off", "time": 43, "note": 53, "velocity": 97, "channel": 0}, {"type": "note_on", "time": 2, "note": 56, "velocity": 102, "channel": 0}, {"type": "note_off", "time": 119, "note": 56, "velocity": 102, "channel": 0}, {"type": "note_on", "time": 9, "note": 53, "velocity": 95, "channel": 0}, {"type": "note_off", "time": 59, "note": 53, "velocity": 95, "channel": 0}, {"type": "note_on", "time": 6, "note": 48, "velocity": 106, "channel": 0}, {"type": "note_off", "time": 121, "note": 48, "velocity": 106, "channel": 0}, {"type": "note_on", "time": 7, "note": 51, "velocity": 95, "channel": 0}, {"type": "note_off", "time": 67, "note": 51, "velocity": 95, "channel": 0}, {"type": "note_on", "time": 13, "note": 55, "velocity": 104, "channel": 0}, {"type": "note_off", "time": 113, "note": 55, "velocity": 104, "channel": 0}, {"type": "note_on", "time": 3, "note": 57, "velocity": 100, "channel": 0}, {"type": "note_off", "time": 64, "note": 57, "velocity": 100, "channel": 0}, {"type": "note_on", "time": 5, "note": 62, "velocity": 105, "channel": 0}, {"type": "note_off", "time": 79, "note": 62, "velocity": 105, "channel": 0}, {"type": "note_on", "time": 8, "note": 63, "velocity": 101, "channel": 0}, {"type": "note_off", "time": 32, "note": 63, "velocity": 101, "channel": 0}, {"type": "note_on", "time": 13, "note": 62, "velocity": 100, "channel": 0}, {"type": "note_off", "time": 37, "note": 62, "velocity": 100, "channel": 0}, {"type": "note_on", "time": 16, "note": 60, "velocity": 97, "channel": 0}, {"type": "note_off", "time": 112, "note": 60, "velocity": 97, "channel": 0}, {"type": "note_on", "time": 6, "note": 58, "velocity": 99, "channel": 0}, {"type": "note_off", "time": 59, "note": 58, "velocity": 99, "channel": 0}, {"type": "note_on", "time": 9, "note": 57, "velocity": 94, "channel": 0}, {"type": "note_off", "time": 90, "note": 57, "velocity": 94, "channel": 0}, {"type": "note_on", "time": 235, "note": 63, "velocity": 110, "channel": 0}, {"type": "note_off", "time": 104, "note": 63, "velocity": 110, "channel": 0}, {"type": "note_on", "time": 3, "note": 65, "velocity": 99, "channel": 0}, {"type": "note_off", "time": 119, "note": 65, "velocity": 99, "channel": 0}, {"type": "note_on", "time": 43, "note": 70, "velocity": 118, "channel": 0}, {"type": "note_off", "time": 92, "note": 70, "velocity": 118, "channel": 0}, {"type": "note_on", "time": 17, "note": 65, "velocity": 110, "channel": 0}, {"type": "note_off", "time": 53, "note": 65, "velocity": 110, "channel": 0}, {"type": "note_on", "time": 18, "note": 64, "velocity": 116, "channel": 0}, {"type": "note_off", "time": 101, "note": 64, "velocity": 116, "channel": 0}, {"type": "note_on", "time": 11, "note": 61, "velocity": 95, "channel": 0}, {"type": "note_off", "time": 54, "note": 61, "velocity": 95, "channel": 0}, {"type": "note_on", "time": 16, "note": 63, "velocity": 112, "channel": 0}, {"type": "note_off", "time": 98, "note": 63, "velocity": 112, "channel": 0}, {"type": "note_on", "time": 35, "note": 61, "velocity": 97, "channel": 0}, {"type": "note_off", "time": 70, "note": 61, "velocity": 97, "channel": 0}, {"type": "note_on", "time": 8, "note": 62, "velocity": 106, "channel": 0}, {"type": "note_off", "time": 92, "note": 62, "velocity": 106, "channel": 0}, {"type": "note_on", "time": 13, "note": 58, "velocity": 92, "channel": 0}, {"type": "note_off", "time": 75, "note": 58, "velocity": 92, "channel": 0}, {"type": "note_on", "time": 6, "note": 55, "velocity": 90, "channel": 0}, {"type": "note_off", "time": 103, "note": 55, "velocity": 90, "channel": 0}, {"type": "note_on", "time": 10, "note": 57, "velocity": 93, "channel": 0}, {"type": "note_off", "time": 56, "note": 57, "velocity": 93, "channel": 0}, {"type": "note_on", "time": 15, "note": 58, "velocity": 97, "channel": 0}, {"type": "note_off", "time": 110, "note": 58, "velocity": 97, "channel": 0}, {"type": "note_on", "time": 2, "note": 53, "velocity": 90, "channel": 0}, {"type": "note_off", "time": 80, "note": 53, "velocity": 90, "channel": 0}, {"type": "note_on", "time": 751, "note": 63, "velocity": 107, "channel": 0}, {"type": "note_off", "time": 37, "note": 63, "velocity": 107, "channel": 0}, {"type": "note_on", "time": 1, "note": 65, "velocity": 112, "channel": 0}, {"type": "note_off", "time": 90, "note": 65, "velocity": 112, "channel": 0}, {"type": "note_on", "time": 86, "note": 65, "velocity": 112, "channel": 0}, {"type": "note_off", "time": 110, "note": 65, "velocity": 112, "channel": 0}, {"type": "note_on", "time": 16, "note": 65, "velocity": 116, "channel": 0}, {"type": "note_off", "time": 100, "note": 65, "velocity": 116, "channel": 0}, {"type": "note_on", "time": 4, "note": 65, "velocity": 115, "channel": 0}, {"type": "note_off", "time": 103, "note": 65, "velocity": 115, "channel": 0}, {"type": "note_on", "time": 27, "note": 64, "velocity": 117, "channel": 0}, {"type": "note_off", "time": 62, "note": 64, "velocity": 117, "channel": 0}, {"type": "note_on", "time": 7, "note": 65, "velocity": 119, "channel": 0}, {"type": "note_off", "time": 80, "note": 65, "velocity": 119, "channel": 0}, {"type": "note_on", "time": 23, "note": 65, "velocity": 115, "channel": 0}, {"type": "note_off", "time": 52, "note": 65, "velocity": 115, "channel": 0}, {"type": "note_on", "time": 9, "note": 63, "velocity": 115, "channel": 0}, {"type": "note_off", "time": 85, "note": 63, "velocity": 115, "channel": 0}, {"type": "note_on", "time": 78, "note": 71, "velocity": 100, "channel": 0}, {"type": "note_off", "time": 121, "note": 71, "velocity": 100, "channel": 0}, {"type": "note_on", "time": 5, "note": 74, "velocity": 111, "channel": 0}, {"type": "note_off", "time": 423, "note": 74, "velocity": 111, "channel": 0}, {"type": "note_on", "time": 6, "note": 73, "velocity": 110, "channel": 0}, {"type": "note_off", "time": 43, "note": 73, "velocity": 110, "channel": 0}, {"type": "note_on", "time": 3, "note": 72, "velocity": 111, "channel": 0}, {"type": "note_off", "time": 34, "note": 72, "velocity": 111, "channel": 0}, {"type": "note_on", "time": 0, "note": 70, "velocity": 111, "channel": 0}, {"type": "note_off", "time": 34, "note": 70, "velocity": 111, "channel": 0}, {"type": "note_on", "time": 0, "note": 67, "velocity": 111, "channel": 0}, {"type": "note_off", "time": 29, "note": 67, "velocity": 111, "channel": 0}, {"type": "note_on", "time": 3, "note": 65, "velocity": 104, "channel": 0}, {"type": "note_off", "time": 42, "note": 65, "velocity": 104, "channel": 0}, {"type": "note_on", "time": 3, "note": 63, "velocity": 109, "channel": 0}, {"type": "note_off", "time": 54, "note": 63, "velocity": 109, "channel": 0}, {"type": "note_on", "time": 9, "note": 62, "velocity": 108, "channel": 0}, {"type": "note_off", "time": 84, "note": 62, "velocity": 108, "channel": 0}, {"type": "note_on", "time": 484, "note": 72, "velocity": 124, "channel": 0}, {"type": "note_off", "time": 96, "note": 72, "velocity": 124, "channel": 0}, {"type": "note_on", "time": 7, "note": 70, "velocity": 109, "channel": 0}, {"type": "note_off", "time": 57, "note": 70, "velocity": 109, "channel": 0}, {"type": "note_on", "time": 10, "note": 71, "velocity": 122, "channel": 0}, {"type": "note_off", "time": 95, "note": 71, "velocity": 122, "channel": 0}, {"type": "note_on", "time": 30, "note": 67, "velocity": 111, "channel": 0}, {"type": "note_off", "time": 55, "note": 67, "velocity": 111, "channel": 0}, {"type": "note_on", "time": 4, "note": 63, "velocity": 112, "channel": 0}, {"type": "note_off", "time": 56, "note": 63, "velocity": 112, "channel": 0}, {"type": "note_on", "time": 1, "note": 64, "velocity": 114, "channel": 0}, {"type": "note_off", "time": 59, "note": 64, "velocity": 114, "channel": 0}, {"type": "note_on", "time": 11, "note": 61, "velocity": 107, "channel": 0}, {"type": "note_off", "time": 66, "note": 61, "velocity": 107, "channel": 0}, {"type": "note_on", "time": 8, "note": 60, "velocity": 109, "channel": 0}, {"type": "note_off", "time": 80, "note": 60, "velocity": 109, "channel": 0}, {"type": "note_on", "time": 50, "note": 55, "velocity": 94, "channel": 0}, {"type": "note_off", "time": 69, "note": 55, "velocity": 94, "channel": 0}, {"type": "note_on", "time": 8, "note": 58, "velocity": 102, "channel": 0}, {"type": "note_off", "time": 88, "note": 58, "velocity": 102, "channel": 0}, {"type": "note_on", "time": 12, "note": 60, "velocity": 111, "channel": 0}, {"type": "note_off", "time": 64, "note": 60, "velocity": 111, "channel": 0}, {"type": "note_on", "time": 4, "note": 63, "velocity": 112, "channel": 0}, {"type": "note_off", "time": 109, "note": 63, "velocity": 112, "channel": 0}, {"type": "note_on", "time": 9, "note": 65, "velocity": 111, "channel": 0}, {"type": "note_off", "time": 50, "note": 65, "velocity": 111, "channel": 0}, {"type": "note_on", "time": 10, "note": 67, "velocity": 113, "channel": 0}, {"type": "note_off", "time": 107, "note": 67, "velocity": 113, "channel": 0}, {"type": "note_on", "time": 4, "note": 70, "velocity": 117, "channel": 0}, {"type": "note_off", "time": 84, "note": 70, "velocity": 117, "channel": 0}, {"type": "note_on", "time": 2, "note": 69, "velocity": 116, "channel": 0}, {"type": "note_off", "time": 88, "note": 69, "velocity": 116, "channel": 0}, {"type": "note_on", "time": 19, "note": 65, "velocity": 108, "channel": 0}, {"type": "note_off", "time": 90, "note": 65, "velocity": 108, "channel": 0}, {"type": "note_on", "time": 71, "note": 69, "velocity": 111, "channel": 0}, {"type": "note_off", "time": 37, "note": 69, "velocity": 111, "channel": 0}, {"type": "note_on", "time": 4, "note": 67, "velocity": 99, "channel": 0}, {"type": "note_off", "time": 42, "note": 67, "velocity": 99, "channel": 0}, {"type": "note_on", "time": 4, "note": 63, "velocity": 106, "channel": 0}, {"type": "note_off", "time": 64, "note": 63, "velocity": 106, "channel": 0}, {"type": "note_on", "time": 66, "note": 67, "velocity": 106, "channel": 0}, {"type": "note_off", "time": 33, "note": 67, "velocity": 106, "channel": 0}, {"type": "note_on", "time": 3, "note": 63, "velocity": 107, "channel": 0}, {"type": "note_off", "time": 43, "note": 63, "velocity": 107, "channel": 0}, {"type": "note_on", "time": 5, "note": 62, "velocity": 102, "channel": 0}, {"type": "note_off", "time": 74, "note": 62, "velocity": 102, "channel": 0}, {"type": "note_on", "time": 340, "note": 65, "velocity": 112, "channel": 0}, {"type": "note_off", "time": 29, "note": 65, "velocity": 112, "channel": 0}, {"type": "note_on", "time": 6, "note": 67, "velocity": 106, "channel": 0}, {"type": "note_off", "time": 27, "note": 67, "velocity": 106, "channel": 0}, {"type": "note_on", "time": 4, "note": 65, "velocity": 113, "channel": 0}, {"type": "note_off", "time": 24, "note": 65, "velocity": 113, "channel": 0}, {"type": "note_on", "time": 5, "note": 63, "velocity": 116, "channel": 0}, {"type": "note_off", "time": 55, "note": 63, "velocity": 116, "channel": 0}, {"type": "note_on", "time": 2, "note": 62, "velocity": 113, "channel": 0}, {"type": "note_off", "time": 117, "note": 62, "velocity": 113, "channel": 0}, {"type": "note_on", "time": 9, "note": 61, "velocity": 113, "channel": 0}, {"type": "note_off", "time": 79, "note": 61, "velocity": 113, "channel": 0}, {"type": "note_on", "time": 5, "note": 60, "velocity": 110, "channel": 0}, {"type": "note_off", "time": 92, "note": 60, "velocity": 110, "channel": 0}, {"type": "note_on", "time": 2, "note": 59, "velocity": 104, "channel": 0}, {"type": "note_off", "time": 72, "note": 59, "velocity": 104, "channel": 0}, {"type": "note_on", "time": 6, "note": 58, "velocity": 100, "channel": 0}, {"type": "note_off", "time": 113, "note": 58, "velocity": 100, "channel": 0}, {"type": "note_on", "time": 108, "note": 53, "velocity": 91, "channel": 0}, {"type": "note_off", "time": 83, "note": 53, "velocity": 91, "channel": 0}, {"type": "note_on", "time": 9, "note": 58, "velocity": 27, "channel": 0}, {"type": "note_off", "time": 96, "note": 58, "velocity": 27, "channel": 0}, {"type": "note_on", "time": 6, "note": 59, "velocity": 112, "channel": 0}, {"type": "note_off", "time": 70, "note": 59, "velocity": 112, "channel": 0}, {"type": "note_on", "time": 17, "note": 62, "velocity": 115, "channel": 0}, {"type": "note_off", "time": 72, "note": 62, "velocity": 115, "channel": 0}, {"type": "note_on", "time": 6, "note": 65, "velocity": 113, "channel": 0}, {"type": "note_off", "time": 93, "note": 65, "velocity": 113, "channel": 0}, {"type": "note_on", "time": 20, "note": 59, "velocity": 97, "channel": 0}, {"type": "note_off", "time": 54, "note": 59, "velocity": 97, "channel": 0}, {"type": "note_on", "time": 13, "note": 60, "velocity": 109, "channel": 0}, {"type": "note_off", "time": 105, "note": 60, "velocity": 109, "channel": 0}, {"type": "note_on", "time": 8, "note": 63, "velocity": 110, "channel": 0}, {"type": "note_off", "time": 70, "note": 63, "velocity": 110, "channel": 0}, {"type": "note_on", "time": 17, "note": 67, "velocity": 115, "channel": 0}, {"type": "note_off", "time": 92, "note": 67, "velocity": 115, "channel": 0}, {"type": "note_on", "time": 11, "note": 64, "velocity": 99, "channel": 0}, {"type": "note_off", "time": 91, "note": 64, "velocity": 99, "channel": 0}, {"type": "note_on", "time": 15, "note": 65, "velocity": 109, "channel": 0}, {"type": "note_off", "time": 83, "note": 65, "velocity": 109, "channel": 0}, {"type": "note_on", "time": 13, "note": 62, "velocity": 95, "channel": 0}, {"type": "note_off", "time": 64, "note": 62, "velocity": 95, "channel": 0}, {"type": "note_on", "time": 6, "note": 63, "velocity": 106, "channel": 0}, {"type": "note_off", "time": 103, "note": 63, "velocity": 106, "channel": 0}, {"type": "note_on", "time": 13, "note": 60, "velocity": 98, "channel": 0}, {"type": "note_off", "time": 69, "note": 60, "velocity": 98, "channel": 0}, {"type": "note_on", "time": 6, "note": 62, "velocity": 99, "channel": 0}, {"type": "note_off", "time": 116, "note": 62, "velocity": 99, "channel": 0}, {"type": "note_on", "time": 4, "note": 60, "velocity": 102, "channel": 0}, {"type": "note_off", "time": 73, "note": 60, "velocity": 102, "channel": 0}, {"type": "note_on", "time": 385, "note": 65, "velocity": 120, "channel": 0}, {"type": "note_off", "time": 48, "note": 65, "velocity": 120, "channel": 0}, {"type": "note_on", "time": 8, "note": 64, "velocity": 117, "channel": 0}, {"type": "note_off", "time": 40, "note": 64, "velocity": 117, "channel": 0}, {"type": "note_on", "time": 5, "note": 65, "velocity": 116, "channel": 0}, {"type": "note_off", "time": 66, "note": 65, "velocity": 116, "channel": 0}, {"type": "note_on", "time": 34, "note": 70, "velocity": 113, "channel": 0}, {"type": "note_off", "time": 52, "note": 70, "velocity": 113, "channel": 0}, {"type": "note_on", "time": 37, "note": 62, "velocity": 115, "channel": 0}, {"type": "note_off", "time": 60, "note": 62, "velocity": 115, "channel": 0}, {"type": "note_on", "time": 2, "note": 61, "velocity": 112, "channel": 0}, {"type": "note_off", "time": 34, "note": 61, "velocity": 112, "channel": 0}, {"type": "note_on", "time": 2, "note": 62, "velocity": 113, "channel": 0}, {"type": "note_off", "time": 79, "note": 62, "velocity": 113, "channel": 0}, {"type": "note_on", "time": 8, "note": 65, "velocity": 104, "channel": 0}, {"type": "note_off", "time": 68, "note": 65, "velocity": 104, "channel": 0}, {"type": "note_on", "time": 34, "note": 58, "velocity": 104, "channel": 0}, {"type": "note_off", "time": 46, "note": 58, "velocity": 104, "channel": 0}, {"type": "note_on", "time": 1, "note": 57, "velocity": 105, "channel": 0}, {"type": "note_off", "time": 56, "note": 57, "velocity": 105, "channel": 0}, {"type": "note_on", "time": 2, "note": 58, "velocity": 95, "channel": 0}, {"type": "note_off", "time": 43, "note": 58, "velocity": 95, "channel": 0}, {"type": "note_on", "time": 37, "note": 62, "velocity": 112, "channel": 0}, {"type": "note_off", "time": 63, "note": 62, "velocity": 112, "channel": 0}, {"type": "note_on", "time": 29, "note": 55, "velocity": 100, "channel": 0}, {"type": "note_off", "time": 46, "note": 55, "velocity": 100, "channel": 0}, {"type": "note_on", "time": 9, "note": 54, "velocity": 100, "channel": 0}, {"type": "note_off", "time": 32, "note": 54, "velocity": 100, "channel": 0}, {"type": "note_on", "time": 2, "note": 55, "velocity": 99, "channel": 0}, {"type": "note_off", "time": 56, "note": 55, "velocity": 99, "channel": 0}, {"type": "note_on", "time": 44, "note": 60, "velocity": 111, "channel": 0}, {"type": "note_off", "time": 27, "note": 60, "velocity": 111, "channel": 0}, {"type": "note_on", "time": 4, "note": 60, "velocity": 108, "channel": 0}, {"type": "note_off", "time": 41, "note": 60, "velocity": 108, "channel": 0}, {"type": "note_on", "time": 197, "note": 55, "velocity": 102, "channel": 0}, {"type": "note_off", "time": 46, "note": 55, "velocity": 102, "channel": 0}, {"type": "note_on", "time": 18, "note": 55, "velocity": 98, "channel": 0}, {"type": "note_off", "time": 439, "note": 55, "velocity": 98, "channel": 0}, {"type": "note_on", "time": 12, "note": 53, "velocity": 97, "channel": 0}, {"type": "note_off", "time": 55, "note": 53, "velocity": 97, "channel": 0}, {"type": "note_on", "time": 13, "note": 51, "velocity": 99, "channel": 0}, {"type": "note_off", "time": 93, "note": 51, "velocity": 99, "channel": 0}, {"type": "note_on", "time": 122, "note": 51, "velocity": 105, "channel": 0}, {"type": "note_off", "time": 64, "note": 51, "velocity": 105, "channel": 0}, {"type": "note_on", "time": 492, "note": 65, "velocity": 119, "channel": 0}, {"type": "note_off", "time": 46, "note": 65, "velocity": 119, "channel": 0}, {"type": "note_on", "time": 5, "note": 66, "velocity": 116, "channel": 0}, {"type": "note_off", "time": 18, "note": 66, "velocity": 116, "channel": 0}, {"type": "note_on", "time": 6, "note": 65, "velocity": 109, "channel": 0}, {"type": "note_off", "time": 25, "note": 65, "velocity": 109, "channel": 0}, {"type": "note_on", "time": 12, "note": 62, "velocity": 117, "channel": 0}, {"type": "note_off", "time": 53, "note": 62, "velocity": 117, "channel": 0}, {"type": "note_on", "time": 15, "note": 63, "velocity": 118, "channel": 0}, {"type": "note_off", "time": 104, "note": 63, "velocity": 118, "channel": 0}, {"type": "note_on", "time": 31, "note": 60, "velocity": 107, "channel": 0}, {"type": "note_off", "time": 51, "note": 60, "velocity": 107, "channel": 0}, {"type": "note_on", "time": 30, "note": 55, "velocity": 93, "channel": 0}, {"type": "note_off", "time": 98, "note": 55, "velocity": 93, "channel": 0}, {"type": "note_on", "time": 9, "note": 57, "velocity": 115, "channel": 0}, {"type": "note_off", "time": 49, "note": 57, "velocity": 115, "channel": 0}, {"type": "note_on", "time": 13, "note": 61, "velocity": 109, "channel": 0}, {"type": "note_off", "time": 96, "note": 61, "velocity": 109, "channel": 0}, {"type": "note_on", "time": 9, "note": 62, "velocity": 110, "channel": 0}, {"type": "note_off", "time": 88, "note": 62, "velocity": 110, "channel": 0}, {"type": "note_on", "time": 6, "note": 63, "velocity": 115, "channel": 0}, {"type": "note_off", "time": 98, "note": 63, "velocity": 115, "channel": 0}, {"type": "note_on", "time": 6, "note": 62, "velocity": 114, "channel": 0}, {"type": "note_off", "time": 64, "note": 62, "velocity": 114, "channel": 0}, {"type": "note_on", "time": 12, "note": 61, "velocity": 110, "channel": 0}, {"type": "note_off", "time": 81, "note": 61, "velocity": 110, "channel": 0}, {"type": "note_on", "time": 46, "note": 67, "velocity": 118, "channel": 0}, {"type": "note_off", "time": 70, "note": 67, "velocity": 118, "channel": 0}, {"type": "note_on", "time": 10, "note": 65, "velocity": 106, "channel": 0}, {"type": "note_off", "time": 83, "note": 65, "velocity": 106, "channel": 0}, {"type": "note_on", "time": 13, "note": 64, "velocity": 105, "channel": 0}, {"type": "note_off", "time": 64, "note": 64, "velocity": 105, "channel": 0}, {"type": "note_on", "time": 15, "note": 65, "velocity": 111, "channel": 0}, {"type": "note_off", "time": 76, "note": 65, "velocity": 111, "channel": 0}, {"type": "note_on", "time": 76, "note": 55, "velocity": 102, "channel": 0}, {"type": "note_off", "time": 43, "note": 55, "velocity": 102, "channel": 0}, {"type": "note_on", "time": 8, "note": 62, "velocity": 112, "channel": 0}, {"type": "note_off", "time": 95, "note": 62, "velocity": 112, "channel": 0}, {"type": "note_on", "time": 29, "note": 65, "velocity": 108, "channel": 0}, {"type": "note_off", "time": 56, "note": 65, "velocity": 108, "channel": 0}, {"type": "note_on", "time": 25, "note": 67, "velocity": 114, "channel": 0}, {"type": "note_off", "time": 96, "note": 67, "velocity": 114, "channel": 0}, {"type": "note_on", "time": 11, "note": 70, "velocity": 118, "channel": 0}, {"type": "note_off", "time": 61, "note": 70, "velocity": 118, "channel": 0}, {"type": "note_on", "time": 5, "note": 69, "velocity": 118, "channel": 0}, {"type": "note_off", "time": 110, "note": 69, "velocity": 118, "channel": 0}, {"type": "note_on", "time": 15, "note": 67, "velocity": 113, "channel": 0}, {"type": "note_off", "time": 63, "note": 67, "velocity": 113, "channel": 0}, {"type": "note_on", "time": 11, "note": 66, "velocity": 108, "channel": 0}, {"type": "note_off", "time": 102, "note": 66, "velocity": 108, "channel": 0}, {"type": "note_on", "time": 395, "note": 57, "velocity": 112, "channel": 0}, {"type": "note_off", "time": 58, "note": 57, "velocity": 112, "channel": 0}, {"type": "note_on", "time": 3, "note": 62, "velocity": 114, "channel": 0}, {"type": "note_off", "time": 41, "note": 62, "velocity": 114, "channel": 0}, {"type": "note_on", "time": 8, "note": 64, "velocity": 119, "channel": 0}, {"type": "note_off", "time": 60, "note": 64, "velocity": 119, "channel": 0}, {"type": "note_on", "time": 9, "note": 62, "velocity": 117, "channel": 0}, {"type": "note_off", "time": 46, "note": 62, "velocity": 117, "channel": 0}, {"type": "note_on", "time": 17, "note": 60, "velocity": 110, "channel": 0}, {"type": "note_off", "time": 106, "note": 60, "velocity": 110, "channel": 0}, {"type": "note_on", "time": 38, "note": 59, "velocity": 106, "channel": 0}, {"type": "note_off", "time": 41, "note": 59, "velocity": 106, "channel": 0}, {"type": "note_on", "time": 11, "note": 57, "velocity": 109, "channel": 0}, {"type": "note_off", "time": 109, "note": 57, "velocity": 109, "channel": 0}, {"type": "note_on", "time": 4, "note": 59, "velocity": 114, "channel": 0}, {"type": "note_off", "time": 34, "note": 59, "velocity": 114, "channel": 0}, {"type": "note_on", "time": 20, "note": 60, "velocity": 106, "channel": 0}, {"type": "note_off", "time": 61, "note": 60, "velocity": 106, "channel": 0}, {"type": "note_on", "time": 6, "note": 62, "velocity": 108, "channel": 0}, {"type": "note_off", "time": 29, "note": 62, "velocity": 108, "channel": 0}, {"type": "note_on", "time": 3, "note": 64, "velocity": 110, "channel": 0}, {"type": "note_off", "time": 30, "note": 64, "velocity": 110, "channel": 0}, {"type": "note_on", "time": 11, "note": 69, "velocity": 113, "channel": 0}, {"type": "note_off", "time": 45, "note": 69, "velocity": 113, "channel": 0}, {"type": "note_on", "time": 47, "note": 71, "velocity": 117, "channel": 0}, {"type": "note_off", "time": 91, "note": 71, "velocity": 117, "channel": 0}, {"type": "note_on", "time": 7, "note": 74, "velocity": 118, "channel": 0}, {"type": "note_off", "time": 220, "note": 74, "velocity": 118, "channel": 0}, {"type": "note_on", "time": 8, "note": 72, "velocity": 120, "channel": 0}, {"type": "note_off", "time": 27, "note": 72, "velocity": 120, "channel": 0}, {"type": "note_on", "time": 9, "note": 74, "velocity": 116, "channel": 0}, {"type": "note_off", "time": 32, "note": 74, "velocity": 116, "channel": 0}, {"type": "note_on", "time": 13, "note": 71, "velocity": 122, "channel": 0}, {"type": "note_off", "time": 104, "note": 71, "velocity": 122, "channel": 0}, {"type": "note_on", "time": 18, "note": 68, "velocity": 117, "channel": 0}, {"type": "note_off", "time": 24, "note": 68, "velocity": 117, "channel": 0}, {"type": "note_on", "time": 10, "note": 71, "velocity": 111, "channel": 0}, {"type": "note_off", "time": 46, "note": 71, "velocity": 111, "channel": 0}, {"type": "note_on", "time": 18, "note": 65, "velocity": 109, "channel": 0}, {"type": "note_off", "time": 67, "note": 65, "velocity": 109, "channel": 0}, {"type": "note_on", "time": 29, "note": 64, "velocity": 113, "channel": 0}, {"type": "note_off", "time": 37, "note": 64, "velocity": 113, "channel": 0}, {"type": "note_on", "time": 2, "note": 65, "velocity": 105, "channel": 0}, {"type": "note_off", "time": 35, "note": 65, "velocity": 105, "channel": 0}, {"type": "note_on", "time": 5, "note": 64, "velocity": 108, "channel": 0}, {"type": "note_off", "time": 18, "note": 64, "velocity": 108, "channel": 0}, {"type": "note_on", "time": 3, "note": 62, "velocity": 112, "channel": 0}, {"type": "note_off", "time": 53, "note": 62, "velocity": 112, "channel": 0}, {"type": "note_on", "time": 7, "note": 61, "velocity": 111, "channel": 0}, {"type": "note_off", "time": 75, "note": 61, "velocity": 111, "channel": 0}, {"type": "note_on", "time": 449, "note": 70, "velocity": 107, "channel": 0}, {"type": "note_off", "time": 39, "note": 70, "velocity": 107, "channel": 0}, {"type": "note_on", "time": 4, "note": 67, "velocity": 119, "channel": 0}, {"type": "note_off", "time": 33, "note": 67, "velocity": 119, "channel": 0}, {"type": "note_on", "time": 10, "note": 65, "velocity": 117, "channel": 0}, {"type": "note_off", "time": 85, "note": 65, "velocity": 117, "channel": 0}, {"type": "note_on", "time": 24, "note": 64, "velocity": 119, "channel": 0}, {"type": "note_off", "time": 70, "note": 64, "velocity": 119, "channel": 0}, {"type": "note_on", "time": 6, "note": 62, "velocity": 116, "channel": 0}, {"type": "note_off", "time": 88, "note": 62, "velocity": 116, "channel": 0}, {"type": "note_on", "time": 28, "note": 61, "velocity": 117, "channel": 0}, {"type": "note_off", "time": 57, "note": 61, "velocity": 117, "channel": 0}, {"type": "note_on", "time": 9, "note": 60, "velocity": 114, "channel": 0}, {"type": "note_off", "time": 101, "note": 60, "velocity": 114, "channel": 0}, {"type": "note_on", "time": 14, "note": 59, "velocity": 108, "channel": 0}, {"type": "note_off", "time": 69, "note": 59, "velocity": 108, "channel": 0}, {"type": "note_on", "time": 8, "note": 58, "velocity": 105, "channel": 0}, {"type": "note_off", "time": 83, "note": 58, "velocity": 105, "channel": 0}, {"type": "note_on", "time": 115, "note": 57, "velocity": 108, "channel": 0}, {"type": "note_off", "time": 91, "note": 57, "velocity": 108, "channel": 0}, {"type": "note_on", "time": 105, "note": 55, "velocity": 111, "channel": 0}, {"type": "note_off", "time": 111, "note": 55, "velocity": 111, "channel": 0}, {"type": "note_on", "time": 10, "note": 53, "velocity": 98, "channel": 0}, {"type": "note_off", "time": 56, "note": 53, "velocity": 98, "channel": 0}, {"type": "note_on", "time": 17, "note": 50, "velocity": 91, "channel": 0}, {"type": "note_off", "time": 109, "note": 50, "velocity": 91, "channel": 0}, {"type": "note_on", "time": 12, "note": 51, "velocity": 97, "channel": 0}, {"type": "note_off", "time": 60, "note": 51, "velocity": 97, "channel": 0}, {"type": "note_on", "time": 4, "note": 52, "velocity": 103, "channel": 0}, {"type": "note_off", "time": 112, "note": 52, "velocity": 103, "channel": 0}, {"type": "note_on", "time": 18, "note": 55, "velocity": 101, "channel": 0}, {"type": "note_off", "time": 50, "note": 55, "velocity": 101, "channel": 0}, {"type": "note_on", "time": 16, "note": 58, "velocity": 99, "channel": 0}, {"type": "note_off", "time": 94, "note": 58, "velocity": 99, "channel": 0}, {"type": "note_on", "time": 23, "note": 61, "velocity": 110, "channel": 0}, {"type": "note_off", "time": 52, "note": 61, "velocity": 110, "channel": 0}, {"type": "note_on", "time": 12, "note": 62, "velocity": 98, "channel": 0}, {"type": "note_off", "time": 33, "note": 62, "velocity": 98, "channel": 0}, {"type": "note_on", "time": 5, "note": 64, "velocity": 96, "channel": 0}, {"type": "note_off", "time": 28, "note": 64, "velocity": 96, "channel": 0}, {"type": "note_on", "time": 9, "note": 62, "velocity": 95, "channel": 0}, {"type": "note_off", "time": 43, "note": 62, "velocity": 95, "channel": 0}, {"type": "note_on", "time": 9, "note": 61, "velocity": 97, "channel": 0}, {"type": "note_off", "time": 41, "note": 61, "velocity": 97, "channel": 0}, {"type": "note_on", "time": 18, "note": 60, "velocity": 96, "channel": 0}, {"type": "note_off", "time": 96, "note": 60, "velocity": 96, "channel": 0}, {"type": "note_on", "time": 19, "note": 58, "velocity": 89, "channel": 0}, {"type": "note_off", "time": 56, "note": 58, "velocity": 89, "channel": 0}, {"type": "note_on", "time": 13, "note": 57, "velocity": 97, "channel": 0}, {"type": "note_off", "time": 96, "note": 57, "velocity": 97, "channel": 0}, {"type": "note_on", "time": 304, "note": 66, "velocity": 117, "channel": 0}, {"type": "note_off", "time": 52, "note": 66, "velocity": 117, "channel": 0}, {"type": "note_on", "time": 8, "note": 69, "velocity": 102, "channel": 0}, {"type": "note_off", "time": 48, "note": 69, "velocity": 102, "channel": 0}, {"type": "note_on", "time": 6, "note": 66, "velocity": 115, "channel": 0}, {"type": "note_off", "time": 46, "note": 66, "velocity": 115, "channel": 0}, {"type": "note_on", "time": 21, "note": 65, "velocity": 116, "channel": 0}, {"type": "note_off", "time": 93, "note": 65, "velocity": 116, "channel": 0}, {"type": "note_on", "time": 13, "note": 64, "velocity": 116, "channel": 0}, {"type": "note_off", "time": 71, "note": 64, "velocity": 116, "channel": 0}, {"type": "note_on", "time": 10, "note": 63, "velocity": 115, "channel": 0}, {"type": "note_off", "time": 101, "note": 63, "velocity": 115, "channel": 0}, {"type": "note_on", "time": 10, "note": 55, "velocity": 100, "channel": 0}, {"type": "note_off", "time": 50, "note": 55, "velocity": 100, "channel": 0}, {"type": "note_on", "time": 18, "note": 60, "velocity": 104, "channel": 0}, {"type": "note_off", "time": 49, "note": 60, "velocity": 104, "channel": 0}, {"type": "note_on", "time": 6, "note": 63, "velocity": 114, "channel": 0}, {"type": "note_off", "time": 42, "note": 63, "velocity": 114, "channel": 0}, {"type": "note_on", "time": 13, "note": 67, "velocity": 108, "channel": 0}, {"type": "note_off", "time": 26, "note": 67, "velocity": 108, "channel": 0}, {"type": "note_on", "time": 3, "note": 69, "velocity": 108, "channel": 0}, {"type": "note_off", "time": 45, "note": 69, "velocity": 108, "channel": 0}, {"type": "note_on", "time": 27, "note": 76, "velocity": 117, "channel": 0}, {"type": "note_off", "time": 37, "note": 76, "velocity": 117, "channel": 0}, {"type": "note_on", "time": 9, "note": 77, "velocity": 120, "channel": 0}, {"type": "note_off", "time": 59, "note": 77, "velocity": 120, "channel": 0}, {"type": "note_on", "time": 5, "note": 75, "velocity": 127, "channel": 0}, {"type": "note_off", "time": 90, "note": 75, "velocity": 127, "channel": 0}, {"type": "note_on", "time": 567, "note": 65, "velocity": 118, "channel": 0}, {"type": "note_off", "time": 36, "note": 65, "velocity": 118, "channel": 0}, {"type": "note_on", "time": 6, "note": 66, "velocity": 116, "channel": 0}, {"type": "note_off", "time": 19, "note": 66, "velocity": 116, "channel": 0}, {"type": "note_on", "time": 4, "note": 65, "velocity": 117, "channel": 0}, {"type": "note_off", "time": 65, "note": 65, "velocity": 117, "channel": 0}, {"type": "note_on", "time": 10, "note": 63, "velocity": 118, "channel": 0}, {"type": "note_off", "time": 53, "note": 63, "velocity": 118, "channel": 0}, {"type": "note_on", "time": 71, "note": 71, "velocity": 111, "channel": 0}, {"type": "note_off", "time": 48, "note": 71, "velocity": 111, "channel": 0}, {"type": "note_on", "time": 5, "note": 74, "velocity": 120, "channel": 0}, {"type": "note_off", "time": 62, "note": 74, "velocity": 120, "channel": 0}, {"type": "note_on", "time": 13, "note": 72, "velocity": 125, "channel": 0}, {"type": "note_off", "time": 101, "note": 72, "velocity": 125, "channel": 0}, {"type": "note_on", "time": 465, "note": 65, "velocity": 114, "channel": 0}, {"type": "note_off", "time": 40, "note": 65, "velocity": 114, "channel": 0}, {"type": "note_on", "time": 3, "note": 67, "velocity": 119, "channel": 0}, {"type": "note_off", "time": 29, "note": 67, "velocity": 119, "channel": 0}, {"type": "note_on", "time": 9, "note": 65, "velocity": 118, "channel": 0}, {"type": "note_off", "time": 30, "note": 65, "velocity": 118, "channel": 0}, {"type": "note_on", "time": 11, "note": 63, "velocity": 120, "channel": 0}, {"type": "note_off", "time": 51, "note": 63, "velocity": 120, "channel": 0}, {"type": "note_on", "time": 5, "note": 62, "velocity": 113, "channel": 0}, {"type": "note_off", "time": 78, "note": 62, "velocity": 113, "channel": 0}, {"type": "note_on", "time": 35, "note": 57, "velocity": 107, "channel": 0}, {"type": "note_off", "time": 60, "note": 57, "velocity": 107, "channel": 0}, {"type": "note_on", "time": 13, "note": 62, "velocity": 113, "channel": 0}, {"type": "note_off", "time": 64, "note": 62, "velocity": 113, "channel": 0}, {"type": "note_on", "time": 8, "note": 66, "velocity": 104, "channel": 0}, {"type": "note_off", "time": 25, "note": 66, "velocity": 104, "channel": 0}, {"type": "note_on", "time": 12, "note": 69, "velocity": 113, "channel": 0}, {"type": "note_off", "time": 30, "note": 69, "velocity": 113, "channel": 0}, {"type": "note_on", "time": 6, "note": 70, "velocity": 104, "channel": 0}, {"type": "note_off", "time": 30, "note": 70, "velocity": 104, "channel": 0}, {"type": "note_on", "time": 18, "note": 72, "velocity": 123, "channel": 0}, {"type": "note_off", "time": 57, "note": 72, "velocity": 123, "channel": 0}, {"type": "note_on", "time": 10, "note": 69, "velocity": 117, "channel": 0}, {"type": "note_off", "time": 41, "note": 69, "velocity": 117, "channel": 0}, {"type": "note_on", "time": 18, "note": 66, "velocity": 111, "channel": 0}, {"type": "note_off", "time": 50, "note": 66, "velocity": 111, "channel": 0}, {"type": "note_on", "time": 27, "note": 64, "velocity": 116, "channel": 0}, {"type": "note_off", "time": 47, "note": 64, "velocity": 116, "channel": 0}, {"type": "note_on", "time": 6, "note": 63, "velocity": 116, "channel": 0}, {"type": "note_off", "time": 35, "note": 63, "velocity": 116, "channel": 0}, {"type": "note_on", "time": 5, "note": 62, "velocity": 115, "channel": 0}, {"type": "note_off", "time": 58, "note": 62, "velocity": 115, "channel": 0}, {"type": "note_on", "time": 9, "note": 61, "velocity": 115, "channel": 0}, {"type": "note_off", "time": 78, "note": 61, "velocity": 115, "channel": 0}, {"type": "note_on", "time": 49, "note": 72, "velocity": 103, "channel": 0}, {"type": "note_off", "time": 23, "note": 72, "velocity": 103, "channel": 0}, {"type": "note_on", "time": 4, "note": 71, "velocity": 124, "channel": 0}, {"type": "note_off", "time": 30, "note": 71, "velocity": 124, "channel": 0}, {"type": "note_on", "time": 8, "note": 68, "velocity": 115, "channel": 0}, {"type": "note_off", "time": 96, "note": 68, "velocity": 115, "channel": 0}, {"type": "note_on", "time": 2, "note": 69, "velocity": 117, "channel": 0}, {"type": "note_off", "time": 64, "note": 69, "velocity": 117, "channel": 0}, {"type": "note_on", "time": 10, "note": 70, "velocity": 121, "channel": 0}, {"type": "note_off", "time": 80, "note": 70, "velocity": 121, "channel": 0}, {"type": "note_on", "time": 47, "note": 54, "velocity": 92, "channel": 0}, {"type": "note_off", "time": 56, "note": 54, "velocity": 92, "channel": 0}, {"type": "note_on", "time": 23, "note": 55, "velocity": 101, "channel": 0}, {"type": "note_off", "time": 104, "note": 55, "velocity": 101, "channel": 0}, {"type": "note_on", "time": 16, "note": 57, "velocity": 109, "channel": 0}, {"type": "note_off", "time": 54, "note": 57, "velocity": 109, "channel": 0}, {"type": "note_on", "time": 12, "note": 60, "velocity": 109, "channel": 0}, {"type": "note_off", "time": 106, "note": 60, "velocity": 109, "channel": 0}, {"type": "note_on", "time": 22, "note": 62, "velocity": 105, "channel": 0}, {"type": "note_off", "time": 49, "note": 62, "velocity": 105, "channel": 0}, {"type": "note_on", "time": 8, "note": 63, "velocity": 104, "channel": 0}, {"type": "note_off", "time": 108, "note": 63, "velocity": 104, "channel": 0}, {"type": "note_on", "time": 15, "note": 65, "velocity": 106, "channel": 0}, {"type": "note_off", "time": 73, "note": 65, "velocity": 106, "channel": 0}, {"type": "note_on", "time": 2, "note": 66, "velocity": 101, "channel": 0}, {"type": "note_off", "time": 110, "note": 66, "velocity": 101, "channel": 0}, {"type": "note_on", "time": 18, "note": 63, "velocity": 111, "channel": 0}, {"type": "note_off", "time": 53, "note": 63, "velocity": 111, "channel": 0}, {"type": "note_on", "time": 311, "note": 63, "velocity": 112, "channel": 0}, {"type": "note_off", "time": 90, "note": 63, "velocity": 112, "channel": 0}, {"type": "note_on", "time": 6, "note": 65, "velocity": 118, "channel": 0}, {"type": "note_off", "time": 350, "note": 65, "velocity": 118, "channel": 0}, {"type": "note_on", "time": 40, "note": 70, "velocity": 122, "channel": 0}, {"type": "note_off", "time": 93, "note": 70, "velocity": 122, "channel": 0}, {"type": "note_on", "time": 21, "note": 71, "velocity": 109, "channel": 0}, {"type": "note_off", "time": 54, "note": 71, "velocity": 109, "channel": 0}, {"type": "note_on", "time": 23, "note": 64, "velocity": 117, "channel": 0}, {"type": "note_off", "time": 87, "note": 64, "velocity": 117, "channel": 0}, {"type": "note_on", "time": 10, "note": 63, "velocity": 112, "channel": 0}, {"type": "note_off", "time": 79, "note": 63, "velocity": 112, "channel": 0}, {"type": "note_on", "time": 18, "note": 61, "velocity": 112, "channel": 0}, {"type": "note_off", "time": 92, "note": 61, "velocity": 112, "channel": 0}, {"type": "note_on", "time": 4, "note": 58, "velocity": 94, "channel": 0}, {"type": "note_off", "time": 187, "note": 58, "velocity": 94, "channel": 0}, {"type": "note_on", "time": 92, "note": 55, "velocity": 104, "channel": 0}, {"type": "note_off", "time": 92, "note": 55, "velocity": 104, "channel": 0}, {"type": "note_on", "time": 8, "note": 58, "velocity": 104, "channel": 0}, {"type": "note_off", "time": 68, "note": 58, "velocity": 104, "channel": 0}, {"type": "note_on", "time": 12, "note": 61, "velocity": 110, "channel": 0}, {"type": "note_off", "time": 88, "note": 61, "velocity": 110, "channel": 0}, {"type": "note_on", "time": 12, "note": 62, "velocity": 110, "channel": 0}, {"type": "note_off", "time": 59, "note": 62, "velocity": 110, "channel": 0}, {"type": "note_on", "time": 12, "note": 63, "velocity": 110, "channel": 0}, {"type": "note_off", "time": 109, "note": 63, "velocity": 110, "channel": 0}, {"type": "note_on", "time": 12, "note": 61, "velocity": 103, "channel": 0}, {"type": "note_off", "time": 71, "note": 61, "velocity": 103, "channel": 0}, {"type": "note_on", "time": 10, "note": 62, "velocity": 98, "channel": 0}, {"type": "note_off", "time": 75, "note": 62, "velocity": 98, "channel": 0}, {"type": "end_of_track", "time": 0}]]}