{"ticks_per_beat": 192, "tracks": [[{"type": "track_name", "name": "Melody", "time": 0}, {"type": "set_tempo", "tempo": 243902, "time": 0}, {"type": "key_signature", "key": "Eb", "time": 0}, {"type": "time_signature", "numerator": 4, "denominator": 4, "clocks_per_click": 24, "notated_32nd_notes_per_beat": 8, "time": 0}, {"type": "note_on", "time": 5425, "note": 65, "velocity": 113, "channel": 0}, {"type": "note_off", "time": 110, "note": 65, "velocity": 113, "channel": 0}, {"type": "note_on", "time": 19, "note": 63, "velocity": 103, "channel": 0}, {"type": "note_off", "time": 48, "note": 63, "velocity": 103, "channel": 0}, {"type": "note_on", "time": 33, "note": 65, "velocity": 105, "channel": 0}, {"type": "note_off", "time": 101, "note": 65, "velocity": 105, "channel": 0}, {"type": "note_on", "time": 16, "note": 66, "velocity": 105, "channel": 0}, {"type": "note_off", "time": 77, "note": 66, "velocity": 105, "channel": 0}, {"type": "note_on", "time": 1158, "note": 66, "velocity": 104, "channel": 0}, {"type": "note_off", "time": 113, "note": 66, "velocity": 104, "channel": 0}, {"type": "note_on", "time": 13, "note": 67, "velocity": 109, "channel": 0}, {"type": "note_off", "time": 59, "note": 67, "velocity": 109, "channel": 0}, {"type": "note_on", "time": 20, "note": 66, "velocity": 103, "channel": 0}, {"type": "note_off", "time": 95, "note": 66, "velocity": 103, "channel": 0}, {"type": "note_on", "time": 5, "note": 67, "velocity": 101, "channel": 0}, {"type": "note_off", "time": 44, "note": 67, "velocity": 101, "channel": 0}, {"type": "note_on", "time": 52, "note": 70, "velocity": 110, "channel": 0}, {"type": "note_off", "time": 121, "note": 70, "velocity": 110, "channel": 0}, {"type": "note_on", "time": 11, "note": 63, "velocity": 96, "channel": 0}, {"type": "note_off", "time": 94, "note": 63, "velocity": 96, "channel": 0}, {"type": "note_on", "time": 883, "note": 65, "velocity": 113, "channel": 0}, {"type": "note_off", "time": 125, "note": 65, "velocity": 113, "channel": 0}, {"type": "note_on", "time": 67, "note": 65, "velocity": 113, "channel": 0}, {"type": "note_off", "time": 120, "note": 65, "velocity": 113, "channel": 0}, {"type": "note_on", "time": 17, "note": 61, "velocity": 105, "channel": 0}, {"type": "note_off", "time": 69, "note": 61, "velocity": 105, "channel": 0}, {"type": "note_on", "time": 1134, "note": 67, "velocity": 113, "channel": 0}, {"type": "note_off", "time": 102, "note": 67, "velocity": 113, "channel": 0}, {"type": "note_on", "time": 9, "note": 66, "velocity": 104, "channel": 0}, {"type": "note_off", "time": 57, "note": 66, "velocity": 104, "channel": 0}, {"type": "note_on", "time": 9, "note": 67, "velocity": 111, "channel": 0}, {"type": "note_off", "time": 115, "note": 67, "velocity": 111, "channel": 0}, {"type": "note_on", "time": 19, "note": 70, "velocity": 99, "channel": 0}, {"type": "note_off", "time": 36, "note": 70, "velocity": 99, "channel": 0}, {"type": "note_on", "time": 12, "note": 72, "velocity": 107, "channel": 0}, {"type": "note_off", "time": 171, "note": 72, "velocity": 107, "channel": 0}, {"type": "note_on", "time": 32, "note": 74, "velocity": 108, "channel": 0}, {"type": "note_off", "time": 57, "note": 74, "velocity": 108, "channel": 0}, {"type": "note_on", "time": 72, "note": 70, "velocity": 94, "channel": 0}, {"type": "note_off", "time": 313, "note": 70, "velocity": 94, "channel": 0}, {"type": "note_on", "time": 674, "note": 72, "velocity": 108, "channel": 0}, {"type": "note_off", "time": 64, "note": 72, "velocity": 108, "channel": 0}, {"type": "note_on", "time": 8, "note": 74, "velocity": 110, "channel": 0}, {"type": "note_off", "time": 117, "note": 74, "velocity": 110, "channel": 0}, {"type": "note_on", "time": 9, "note": 75, "velocity": 94, "channel": 0}, {"type": "note_off", "time": 277, "note": 75, "velocity": 94, "channel": 0}, {"type": "note_on", "time": 249, "note": 75, "velocity": 111, "channel": 0}, {"type": "note_off", "time": 80, "note": 75, "velocity": 111, "channel": 0}, {"type": "note_on", "time": 7, "note": 73, "velocity": 112, "channel": 0}, {"type": "note_off", "time": 117, "note": 73, "velocity": 112, "channel": 0}, {"type": "note_on", "time": 34, "note": 70, "velocity": 88, "channel": 0}, {"type": "note_off", "time": 236, "note": 70, "velocity": 88, "channel": 0}, {"type": "note_on", "time": 326, "note": 69, "velocity": 111, "channel": 0}, {"type": "note_off", "time": 53, "note": 69, "velocity": 111, "channel": 0}, {"type": "note_on", "time": 6, "note": 70, "velocity": 107, "channel": 0}, {"type": "note_off", "time": 98, "note": 70, "velocity": 107, "channel": 0}, {"type": "note_on", "time": 31, "note": 72, "velocity": 97, "channel": 0}, {"type": "note_off", "time": 203, "note": 72, "velocity": 97, "channel": 0}, {"type": "note_on", "time": 406, "note": 71, "velocity": 108, "channel": 0}, {"type": "note_off", "time": 40, "note": 71, "velocity": 108, "channel": 0}, {"type": "note_on", "time": 9, "note": 69, "velocity": 108, "channel": 0}, {"type": "note_off", "time": 100, "note": 69, "velocity": 108, "channel": 0}, {"type": "note_on", "time": 21, "note": 68, "velocity": 99, "channel": 0}, {"type": "note_off", "time": 228, "note": 68, "velocity": 99, "channel": 0}, {"type": "note_on", "time": 2703, "note": 62, "velocity": 104, "channel": 0}, {"type": "note_off", "time": 53, "note": 62, "velocity": 104, "channel": 0}, {"type": "note_on", "time": 14, "note": 63, "velocity": 108, "channel": 0}, {"type": "note_off", "time": 103, "note": 63, "velocity": 108, "channel": 0}, {"type": "note_on", "time": 8, "note": 65, "velocity": 118, "channel": 0}, {"type": "note_off", "time": 98, "note": 65, "velocity": 118, "channel": 0}, {"type": "note_on", "time": 4, "note": 66, "velocity": 115, "channel": 0}, {"type": "note_off", "time": 84, "note": 66, "velocity": 115, "channel": 0}, {"type": "note_on", "time": 7, "note": 69, "velocity": 115, "channel": 0}, {"type": "note_off", "time": 87, "note": 69, "velocity": 115, "channel": 0}, {"type": "note_on", "time": 25, "note": 70, "velocity": 119, "channel": 0}, {"type": "note_off", "time": 74, "note": 70, "velocity": 119, "channel": 0}, {"type": "note_on", "time": 34, "note": 73, "velocity": 112, "channel": 0}, {"type": "note_off", "time": 66, "note": 73, "velocity": 112, "channel": 0}, {"type": "note_on", "time": 22, "note": 74, "velocity": 114, "channel": 0}, {"type": "note_off", "time": 73, "note": 74, "velocity": 114, "channel": 0}, {"type": "note_on", "time": 17, "note": 75, "velocity": 120, "channel": 0}, {"type": "note_off", "time": 118, "note": 75, "velocity": 120, "channel": 0}, {"type": "note_on", "time": 12, "note": 73, "velocity": 109, "channel": 0}, {"type": "note_off", "time": 47, "note": 73, "velocity": 109, "channel": 0}, {"type": "note_on", "time": 14, "note": 75, "velocity": 114, "channel": 0}, {"type": "note_off", "time": 119, "note": 75, "velocity": 114, "channel": 0}, {"type": "note_on", "time": 13, "note": 73, "velocity": 113, "channel": 0}, {"type": "note_off", "time": 68, "note": 73, "velocity": 113, "channel": 0}, {"type": "note_on", "time": 17, "note": 70, "velocity": 108, "channel": 0}, {"type": "note_off", "time": 100, "note": 70, "velocity": 108, "channel": 0}, {"type": "note_on", "time": 6, "note": 66, "velocity": 91, "channel": 0}, {"type": "note_off", "time": 313, "note": 66, "velocity": 91, "channel": 0}, {"type": "note_on", "time": 157, "note": 70, "velocity": 109, "channel": 0}, {"type": "note_off", "time": 113, "note": 70, "velocity": 109, "channel": 0}, {"type": "note_on", "time": 63, "note": 70, "velocity": 110, "channel": 0}, {"type": "note_off", "time": 111, "note": 70, "velocity": 110, "channel": 0}, {"type": "note_on", "time": 33, "note": 66, "velocity": 106, "channel": 0}, {"type": "note_off", "time": 46, "note": 66, "velocity": 106, "channel": 0}, {"type": "note_on", "time": 3, "note": 67, "velocity": 97, "channel": 0}, {"type": "note_off", "time": 307, "note": 67, "velocity": 97, "channel": 0}, {"type": "note_on", "time": 106, "note": 70, "velocity": 106, "channel": 0}, {"type": "note_off", "time": 102, "note": 70, "velocity": 106, "channel": 0}, {"type": "note_on", "time": 5, "note": 72, "velocity": 106, "channel": 0}, {"type": "note_off", "time": 57, "note": 72, "velocity": 106, "channel": 0}, {"type": "note_on", "time": 5, "note": 74, "velocity": 108, "channel": 0}, {"type": "note_off", "time": 86, "note": 74, "velocity": 108, "channel": 0}, {"type": "note_on", "time": 9, "note": 77, "velocity": 122, "channel": 0}, {"type": "note_off", "time": 94, "note": 77, "velocity": 122, "channel": 0}, {"type": "note_on", "time": 22, "note": 75, "velocity": 107, "channel": 0}, {"type": "note_off", "time": 79, "note": 75, "velocity": 107, "channel": 0}, {"type": "note_on", "time": 10, "note": 77, "velocity": 121, "channel": 0}, {"type": "note_off", "time": 122, "note": 77, "velocity": 121, "channel": 0}, {"type": "note_on", "time": 172, "note": 82, "velocity": 122, "channel": 0}, {"type": "note_off", "time": 92, "note": 82, "velocity": 122, "channel": 0}, {"type": "note_on", "time": 19, "note": 77, "velocity": 121, "channel": 0}, {"type": "note_off", "time": 58, "note": 77, "velocity": 121, "channel": 0}, {"type": "note_on", "time": 27, "note": 74, "velocity": 104, "channel": 0}, {"type": "note_off", "time": 95, "note": 74, "velocity": 104, "channel": 0}, {"type": "note_on", "time": 53, "note": 70, "velocity": 98, "channel": 0}, {"type": "note_off", "time": 21, "note": 70, "velocity": 98, "channel": 0}, {"type": "note_on", "time": 7, "note": 75, "velocity": 110, "channel": 0}, {"type": "note_off", "time": 105, "note": 75, "velocity": 110, "channel": 0}, {"type": "note_on", "time": 10, "note": 77, "velocity": 121, "channel": 0}, {"type": "note_off", "time": 108, "note": 77, "velocity": 121, "channel": 0}, {"type": "note_on", "time": 6, "note": 78, "velocity": 110, "channel": 0}, {"type": "note_off", "time": 77, "note": 78, "velocity": 110, "channel": 0}, {"type": "note_on", "time": 39, "note": 73, "velocity": 112, "channel": 0}, {"type": "note_off", "time": 97, "note": 73, "velocity": 112, "channel": 0}, {"type": "note_on", "time": 96, "note": 73, "velocity": 110, "channel": 0}, {"type": "note_off", "time": 61, "note": 73, "velocity": 110, "channel": 0}, {"type": "note_on", "time": 7, "note": 71, "velocity": 99, "channel": 0}, {"type": "note_off", "time": 107, "note": 71, "velocity": 99, "channel": 0}, {"type": "note_on", "time": 22, "note": 69, "velocity": 93, "channel": 0}, {"type": "note_off", "time": 42, "note": 69, "velocity": 93, "channel": 0}, {"type": "note_on", "time": 17, "note": 70, "velocity": 105, "channel": 0}, {"type": "note_off", "time": 108, "note": 70, "velocity": 105, "channel": 0}, {"type": "note_on", "time": 39, "note": 66, "velocity": 109, "channel": 0}, {"type": "note_off", "time": 66, "note": 66, "velocity": 109, "channel": 0}, {"type": "note_on", "time": 15, "note": 65, "velocity": 111, "channel": 0}, {"type": "note_off", "time": 69, "note": 65, "velocity": 111, "channel": 0}, {"type": "note_on", "time": 10, "note": 64, "velocity": 107, "channel": 0}, {"type": "note_off", "time": 85, "note": 64, "velocity": 107, "channel": 0}, {"type": "note_on", "time": 15, "note": 63, "velocity": 105, "channel": 0}, {"type": "note_off", "time": 82, "note": 63, "velocity": 105, "channel": 0}, {"type": "note_on", "time": 22, "note": 69, "velocity": 115, "channel": 0}, {"type": "note_off", "time": 50, "note": 69, "velocity": 115, "channel": 0}, {"type": "note_on", "time": 10, "note": 59, "velocity": 101, "channel": 0}, {"type": "note_off", "time": 187, "note": 59, "velocity": 101, "channel": 0}, {"type": "note_on", "time": 12, "note": 58, "velocity": 98, "channel": 0}, {"type": "note_off", "time": 309, "note": 58, "velocity": 98, "channel": 0}, {"type": "note_on", "time": 1358, "note": 61, "velocity": 107, "channel": 0}, {"type": "note_off", "time": 37, "note": 61, "velocity": 107, "channel": 0}, {"type": "note_on", "time": 5, "note": 62, "velocity": 98, "channel": 0}, {"type": "note_off", "time": 98, "note": 62, "velocity": 98, "channel": 0}, {"type": "note_on", "time": 21, "note": 65, "velocity": 119, "channel": 0}, {"type": "note_off", "time": 70, "note": 65, "velocity": 119, "channel": 0}, {"type": "note_on", "time": 5, "note": 63, "velocity": 109, "channel": 0}, {"type": "note_off", "time": 106, "note": 63, "velocity": 109, "channel": 0}, {"type": "note_on", "time": 10, "note": 65, "velocity": 113, "channel": 0}, {"type": "note_off", "time": 111, "note": 65, "velocity": 113, "channel": 0}, {"type": "note_on", "time": 8, "note": 67, "velocity": 106, "channel": 0}, {"type": "note_off", "time": 76, "note": 67, "velocity": 106, "channel": 0}, {"type": "note_on", "time": 9, "note": 70, "velocity": 101, "channel": 0}, {"type": "note_off", "time": 41, "note": 70, "velocity": 101, "channel": 0}, {"type": "note_on", "time": 9, "note": 72, "velocity": 107, "channel": 0}, {"type": "note_off", "time": 97, "note": 72, "velocity": 107, "channel": 0}, {"type": "note_on", "time": 20, "note": 74, "velocity": 109, "channel": 0}, {"type": "note_off", "time": 66, "note": 74, "velocity": 109, "channel": 0}, {"type": "note_on", "time": 5, "note": 75, "velocity": 122, "channel": 0}, {"type": "note_off", "time": 142, "note": 75, "velocity": 122, "channel": 0}, {"type": "note_on", "time": 13, "note": 74, "velocity": 103, "channel": 0}, {"type": "note_off", "time": 35, "note": 74, "velocity": 103, "channel": 0}, {"type": "note_on", "time": 17, "note": 77, "velocity": 120, "channel": 0}, {"type": "note_off", "time": 123, "note": 77, "velocity": 120, "channel": 0}, {"type": "note_on", "time": 7, "note": 76, "velocity": 112, "channel": 0}, {"type": "note_off", "time": 49, "note": 76, "velocity": 112, "channel": 0}, {"type": "note_on", "time": 6, "note": 77, "velocity": 119, "channel": 0}, {"type": "note_off", "time": 20, "note": 77, "velocity": 119, "channel": 0}, {"type": "note_on", "time": 6, "note": 75, "velocity": 116, "channel": 0}, {"type": "note_off", "time": 106, "note": 75, "velocity": 116, "channel": 0}, {"type": "note_on", "time": 5, "note": 73, "velocity": 113, "channel": 0}, {"type": "note_off", "time": 77, "note": 73, "velocity": 113, "channel": 0}, {"type": "note_on", "time": 7, "note": 74, "velocity": 108, "channel": 0}, {"type": "note_off", "time": 96, "note": 74, "velocity": 108, "channel": 0}, {"type": "note_on", "time": 11, "note": 70, "velocity": 110, "channel": 0}, {"type": "note_off", "time": 60, "note": 70, "velocity": 110, "channel": 0}, {"type": "note_on", "time": 21, "note": 65, "velocity": 111, "channel": 0}, {"type": "note_off", "time": 135, "note": 65, "velocity": 111, "channel": 0}, {"type": "note_on", "time": 8, "note": 62, "velocity": 94, "channel": 0}, {"type": "note_off", "time": 29, "note": 62, "velocity": 94, "channel": 0}, {"type": "note_on", "time": 27, "note": 69, "velocity": 101, "channel": 0}, {"type": "note_off", "time": 98, "note": 69, "velocity": 101, "channel": 0}, {"type": "note_on", "time": 22, "note": 62, "velocity": 98, "channel": 0}, {"type": "note_off", "time": 37, "note": 62, "velocity": 98, "channel": 0}, {"type": "note_on", "time": 36, "note": 65, "velocity": 107, "channel": 0}, {"type": "note_off", "time": 93, "note": 65, "velocity": 107, "channel": 0}, {"type": "note_on", "time": 17, "note": 69, "velocity": 104, "channel": 0}, {"type": "note_off", "time": 55, "note": 69, "velocity": 104, "channel": 0}, {"type": "note_on", "time": 19, "note": 68, "velocity": 107, "channel": 0}, {"type": "note_off", "time": 126, "note": 68, "velocity": 107, "channel": 0}, {"type": "note_on", "time": 61, "note": 71, "velocity": 103, "channel": 0}, {"type": "note_off", "time": 119, "note": 71, "velocity": 103, "channel": 0}, {"type": "note_on", "time": 82, "note": 69, "velocity": 105, "channel": 0}, {"type": "note_off", "time": 114, "note": 69, "velocity": 105, "channel": 0}, {"type": "note_on", "time": 25, "note": 68, "velocity": 107, "channel": 0}, {"type": "note_off", "time": 59, "note": 68, "velocity": 107, "channel": 0}, {"type": "note_on", "time": 29, "note": 65, "velocity": 97, "channel": 0}, {"type": "note_off", "time": 100, "note": 65, "velocity": 97, "channel": 0}, {"type": "note_on", "time": 48, "note": 69, "velocity": 101, "channel": 0}, {"type": "note_off", "time": 47, "note": 69, "velocity": 101, "channel": 0}, {"type": "note_on", "time": 4, "note": 70, "velocity": 105, "channel": 0}, {"type": "note_off", "time": 69, "note": 70, "velocity": 105, "channel": 0}, {"type": "note_on", "time": 24, "note": 67, "velocity": 96, "channel": 0}, {"type": "note_off", "time": 31, "note": 67, "velocity": 96, "channel": 0}, {"type": "note_on", "time": 2, "note": 68, "velocity": 110, "channel": 0}, {"type": "note_off", "time": 95, "note": 68, "velocity": 110, "channel": 0}, {"type": "note_on", "time": 43, "note": 68, "velocity": 112, "channel": 0}, {"type": "note_off", "time": 71, "note": 68, "velocity": 112, "channel": 0}, {"type": "note_on", "time": 15, "note": 67, "velocity": 109, "channel": 0}, {"type": "note_off", "time": 93, "note": 67, "velocity": 109, "channel": 0}, {"type": "note_on", "time": 7, "note": 66, "velocity": 108, "channel": 0}, {"type": "note_off", "time": 81, "note": 66, "velocity": 108, "channel": 0}, {"type": "note_on", "time": 9, "note": 65, "velocity": 110, "channel": 0}, {"type": "note_off", "time": 83, "note": 65, "velocity": 110, "channel": 0}, {"type": "note_on", "time": 4, "note": 64, "velocity": 113, "channel": 0}, {"type": "note_off", "time": 98, "note": 64, "velocity": 113, "channel": 0}, {"type": "note_on", "time": 14, "note": 63, "velocity": 104, "channel": 0}, {"type": "note_off", "time": 59, "note": 63, "velocity": 104, "channel": 0}, {"type": "note_on", "time": 42, "note": 66, "velocity": 111, "channel": 0}, {"type": "note_off", "time": 53, "note": 66, "velocity": 111, "channel": 0}, {"type": "note_on", "time": 15, "note": 68, "velocity": 112, "channel": 0}, {"type": "note_off", "time": 111, "note": 68, "velocity": 112, "channel": 0}, {"type": "note_on", "time": 34, "note": 70, "velocity": 104, "channel": 0}, {"type": "note_off", "time": 23, "note": 70, "velocity": 104, "channel": 0}, {"type": "note_on", "time": 29, "note": 73, "velocity": 117, "channel": 0}, {"type": "note_off", "time": 86, "note": 73, "velocity": 117, "channel": 0}, {"type": "note_on", "time": 19, "note": 75, "velocity": 108, "channel": 0}, {"type": "note_off", "time": 43, "note": 75, "velocity": 108, "channel": 0}, {"type": "note_on", "time": 8, "note": 70, "velocity": 107, "channel": 0}, {"type": "note_off", "time": 108, "note": 70, "velocity": 107, "channel": 0}, {"type": "note_on", "time": 26, "note": 66, "velocity": 100, "channel": 0}, {"type": "note_off", "time": 305, "note": 66, "velocity": 100, "channel": 0}, {"type": "note_on", "time": 2289, "note": 68, "velocity": 114, "channel": 0}, {"type": "note_off", "time": 39, "note": 68, "velocity": 114, "channel": 0}, {"type": "note_on", "time": 5, "note": 70, "velocity": 114, "channel": 0}, {"type": "note_off", "time": 100, "note": 70, "velocity": 114, "channel": 0}, {"type": "note_on", "time": 9, "note": 73, "velocity": 117, "channel": 0}, {"type": "note_off", "time": 84, "note": 73, "velocity": 117, "channel": 0}, {"type": "note_on", "time": 3, "note": 75, "velocity": 120, "channel": 0}, {"type": "note_off", "time": 107, "note": 75, "velocity": 120, "channel": 0}, {"type": "note_on", "time": 3, "note": 78, "velocity": 116, "channel": 0}, {"type": "note_off", "time": 242, "note": 78, "velocity": 116, "channel": 0}, {"type": "note_on", "time": 18, "note": 77, "velocity": 114, "channel": 0}, {"type": "note_off", "time": 187, "note": 77, "velocity": 114, "channel": 0}, {"type": "note_on", "time": 6, "note": 79, "velocity": 115, "channel": 0}, {"type": "note_off", "time": 228, "note": 79, "velocity": 115, "channel": 0}, {"type": "note_on", "time": 13, "note": 77, "velocity": 121, "channel": 0}, {"type": "note_off", "time": 179, "note": 77, "velocity": 121, "channel": 0}, {"type": "note_on", "time": 11, "note": 79, "velocity": 112, "channel": 0}, {"type": "note_off", "time": 91, "note": 79, "velocity": 112, "channel": 0}, {"type": "note_on", "time": 11, "note": 75, "velocity": 107, "channel": 0}, {"type": "note_off", "time": 341, "note": 75, "velocity": 107, "channel": 0}, {"type": "note_on", "time": 899, "note": 82, "velocity": 115, "channel": 0}, {"type": "note_off", "time": 113, "note": 82, "velocity": 115, "channel": 0}, {"type": "note_on", "time": 41, "note": 83, "velocity": 99, "channel": 0}, {"type": "note_off", "time": 34, "note": 83, "velocity": 99, "channel": 0}, {"type": "note_on", "time": 3, "note": 82, "velocity": 111, "channel": 0}, {"type": "note_off", "time": 114, "note": 82, "velocity": 111, "channel": 0}, {"type": "note_on", "time": 7, "note": 80, "velocity": 118, "channel": 0}, {"type": "note_off", "time": 257, "note": 80, "velocity": 118, "channel": 0}, {"type": "note_on", "time": 28, "note": 68, "velocity": 108, "channel": 0}, {"type": "note_off", "time": 54, "note": 68, "velocity": 108, "channel": 0}, {"type": "note_on", "time": 35, "note": 78, "velocity": 113, "channel": 0}, {"type": "note_off", "time": 81, "note": 78, "velocity": 113, "channel": 0}, {"type": "note_on", "time": 7, "note": 76, "velocity": 118, "channel": 0}, {"type": "note_off", "time": 108, "note": 76, "velocity": 118, "channel": 0}, {"type": "note_on", "time": 18, "note": 73, "velocity": 115, "channel": 0}, {"type": "note_off", "time": 76, "note": 73, "velocity": 115, "channel": 0}, {"type": "note_on", "time": 14, "note": 71, "velocity": 101, "channel": 0}, {"type": "note_off", "time": 103, "note": 71, "velocity": 101, "channel": 0}, {"type": "note_on", "time": 7, "note": 69, "velocity": 104, "channel": 0}, {"type": "note_off", "time": 53, "note": 69, "velocity": 104, "channel": 0}, {"type": "note_on", "time": 11, "note": 70, "velocity": 105, "channel": 0}, {"type": "note_off", "time": 110, "note": 70, "velocity": 105, "channel": 0}, {"type": "note_on", "time": 21, "note": 66, "velocity": 116, "channel": 0}, {"type": "note_off", "time": 84, "note": 66, "velocity": 116, "channel": 0}, {"type": "note_on", "time": 16, "note": 67, "velocity": 101, "channel": 0}, {"type": "note_off", "time": 58, "note": 67, "velocity": 101, "channel": 0}, {"type": "note_on", "time": 14, "note": 70, "velocity": 90, "channel": 0}, {"type": "note_off", "time": 38, "note": 70, "velocity": 90, "channel": 0}, {"type": "note_on", "time": 5, "note": 72, "velocity": 95, "channel": 0}, {"type": "note_off", "time": 44, "note": 72, "velocity": 95, "channel": 0}, {"type": "note_on", "time": 4, "note": 77, "velocity": 118, "channel": 0}, {"type": "note_off", "time": 105, "note": 77, "velocity": 118, "channel": 0}, {"type": "note_on", "time": 21, "note": 72, "velocity": 106, "channel": 0}, {"type": "note_off", "time": 66, "note": 72, "velocity": 106, "channel": 0}, {"type": "note_on", "time": 28, "note": 70, "velocity": 96, "channel": 0}, {"type": "note_off", "time": 85, "note": 70, "velocity": 96, "channel": 0}, {"type": "note_on", "time": 75, "note": 75, "velocity": 111, "channel": 0}, {"type": "note_off", "time": 95, "note": 75, "velocity": 111, "channel": 0}, {"type": "note_on", "time": 9, "note": 73, "velocity": 107, "channel": 0}, {"type": "note_off", "time": 70, "note": 73, "velocity": 107, "channel": 0}, {"type": "note_on", "time": 5, "note": 67, "velocity": 104, "channel": 0}, {"type": "note_off", "time": 177, "note": 67, "velocity": 104, "channel": 0}, {"type": "note_on", "time": 19, "note": 70, "velocity": 111, "channel": 0}, {"type": "note_off", "time": 129, "note": 70, "velocity": 111, "channel": 0}, {"type": "note_on", "time": 13, "note": 67, "velocity": 105, "channel": 0}, {"type": "note_off", "time": 47, "note": 67, "velocity": 105, "channel": 0}, {"type": "note_on", "time": 13, "note": 68, "velocity": 112, "channel": 0}, {"type": "note_off", "time": 83, "note": 68, "velocity": 112, "channel": 0}, {"type": "note_on", "time": 34, "note": 68, "velocity": 112, "channel": 0}, {"type": "note_off", "time": 50, "note": 68, "velocity": 112, "channel": 0}, {"type": "note_on", "time": 7, "note": 67, "velocity": 111, "channel": 0}, {"type": "note_off", "time": 111, "note": 67, "velocity": 111, "channel": 0}, {"type": "note_on", "time": 19, "note": 66, "velocity": 110, "channel": 0}, {"type": "note_off", "time": 85, "note": 66, "velocity": 110, "channel": 0}, {"type": "note_on", "time": 5, "note": 65, "velocity": 110, "channel": 0}, {"type": "note_off", "time": 98, "note": 65, "velocity": 110, "channel": 0}, {"type": "note_on", "time": 10, "note": 64, "velocity": 107, "channel": 0}, {"type": "note_off", "time": 72, "note": 64, "velocity": 107, "channel": 0}, {"type": "note_on", "time": 10, "note": 63, "velocity": 105, "channel": 0}, {"type": "note_off", "time": 80, "note": 63, "velocity": 105, "channel": 0}, {"type": "note_on", "time": 8, "note": 65, "velocity": 113, "channel": 0}, {"type": "note_off", "time": 113, "note": 65, "velocity": 113, "channel": 0}, {"type": "note_on", "time": 7, "note": 67, "velocity": 102, "channel": 0}, {"type": "note_off", "time": 32, "note": 67, "velocity": 102, "channel": 0}, {"type": "note_on", "time": 16, "note": 67, "velocity": 102, "channel": 0}, {"type": "note_off", "time": 89, "note": 67, "velocity": 102, "channel": 0}, {"type": "note_on", "time": 4, "note": 70, "velocity": 100, "channel": 0}, {"type": "note_off", "time": 33, "note": 70, "velocity": 100, "channel": 0}, {"type": "note_on", "time": 9, "note": 73, "velocity": 113, "channel": 0}, {"type": "note_off", "time": 94, "note": 73, "velocity": 113, "channel": 0}, {"type": "note_on", "time": 12, "note": 75, "velocity": 101, "channel": 0}, {"type": "note_off", "time": 43, "note": 75, "velocity": 101, "channel": 0}, {"type": "note_on", "time": 22, "note": 77, "velocity": 120, "channel": 0}, {"type": "note_off", "time": 125, "note": 77, "velocity": 120, "channel": 0}, {"type": "note_on", "time": 8, "note": 75, "velocity": 116, "channel": 0}, {"type": "note_off", "time": 76, "note": 75, "velocity": 116, "channel": 0}, {"type": "note_on", "time": 31, "note": 71, "velocity": 104, "channel": 0}, {"type": "note_off", "time": 163, "note": 71, "velocity": 104, "channel": 0}, {"type": "note_on", "time": 23, "note": 69, "velocity": 104, "channel": 0}, {"type": "note_off", "time": 100, "note": 69, "velocity": 104, "channel": 0}, {"type": "note_on", "time": 18, "note": 67, "velocity": 106, "channel": 0}, {"type": "note_off", "time": 230, "note": 67, "velocity": 106, "channel": 0}, {"type": "note_on", "time": 234, "note": 65, "velocity": 106, "channel": 0}, {"type": "note_off", "time": 89, "note": 65, "velocity": 106, "channel": 0}, {"type": "note_on", "time": 16, "note": 67, "velocity": 104, "channel": 0}, {"type": "note_off", "time": 51, "note": 67, "velocity": 104, "channel": 0}, {"type": "note_on", "time": 9, "note": 69, "velocity": 101, "channel": 0}, {"type": "note_off", "time": 103, "note": 69, "velocity": 101, "channel": 0}, {"type": "note_on", "time": 15, "note": 67, "velocity": 104, "channel": 0}, {"type": "note_off", "time": 46, "note": 67, "velocity": 104, "channel": 0}, {"type": "note_on", "time": 2, "note": 71, "velocity": 103, "channel": 0}, {"type": "note_off", "time": 106, "note": 71, "velocity": 103, "channel": 0}, {"type": "note_on", "time": 12, "note": 65, "velocity": 106, "channel": 0}, {"type": "note_off", "time": 55, "note": 65, "velocity": 106, "channel": 0}, {"type": "note_on", "time": 22, "note": 61, "velocity": 100, "channel": 0}, {"type": "note_off", "time": 83, "note": 61, "velocity": 100, "channel": 0}, {"type": "note_on", "time": 19, "note": 65, "velocity": 111, "channel": 0}, {"type": "note_off", "time": 91, "note": 65, "velocity": 111, "channel": 0}, {"type": "note_on", "time": 9, "note": 64, "velocity": 105, "channel": 0}, {"type": "note_off", "time": 89, "note": 64, "velocity": 105, "channel": 0}, {"type": "note_on", "time": 6, "note": 66, "velocity": 104, "channel": 0}, {"type": "note_off", "time": 74, "note": 66, "velocity": 104, "channel": 0}, {"type": "note_on", "time": 12, "note": 68, "velocity": 108, "channel": 0}, {"type": "note_off", "time": 117, "note": 68, "velocity": 108, "channel": 0}, {"type": "note_on", "time": 60, "note": 76, "velocity": 116, "channel": 0}, {"type": "note_off", "time": 108, "note": 76, "velocity": 116, "channel": 0}, {"type": "note_on", "time": 46, "note": 73, "velocity": 113, "channel": 0}, {"type": "note_off", "time": 59, "note": 73, "velocity": 113, "channel": 0}, {"type": "note_on", "time": 18, "note": 69, "velocity": 103, "channel": 0}, {"type": "note_off", "time": 45, "note": 69, "velocity": 103, "channel": 0}, {"type": "note_on", "time": 7, "note": 68, "velocity": 105, "channel": 0}, {"type": "note_off", "time": 53, "note": 68, "velocity": 105, "channel": 0}, {"type": "note_on", "time": 5, "note": 66, "velocity": 106, "channel": 0}, {"type": "note_off", "time": 37, "note": 66, "velocity": 106, "channel": 0}, {"type": "note_on", "time": 24, "note": 70, "velocity": 105, "channel": 0}, {"type": "note_off", "time": 27, "note": 70, "velocity": 105, "channel": 0}, {"type": "note_on", "time": 4, "note": 71, "velocity": 101, "channel": 0}, {"type": "note_off", "time": 665, "note": 71, "velocity": 101, "channel": 0}, {"type": "note_on", "time": 90, "note": 71, "velocity": 105, "channel": 0}, {"type": "note_off", "time": 76, "note": 71, "velocity": 105, "channel": 0}, {"type": "note_on", "time": 102, "note": 71, "velocity": 100, "channel": 0}, {"type": "note_off", "time": 155, "note": 71, "velocity": 100, "channel": 0}, {"type": "note_on", "time": 12, "note": 69, "velocity": 99, "channel": 0}, {"type": "note_off", "time": 415, "note": 69, "velocity": 99, "channel": 0}, {"type": "note_on", "time": 1324, "note": 58, "velocity": 106, "channel": 0}, {"type": "note_off", "time": 85, "note": 58, "velocity": 106, "channel": 0}, {"type": "note_on", "time": 2, "note": 63, "velocity": 112, "channel": 0}, {"type": "note_off", "time": 82, "note": 63, "velocity": 112, "channel": 0}, {"type": "note_on", "time": 6, "note": 65, "velocity": 117, "channel": 0}, {"type": "note_off", "time": 85, "note": 65, "velocity": 117, "channel": 0}, {"type": "note_on", "time": 5, "note": 66, "velocity": 113, "channel": 0}, {"type": "note_off", "time": 111, "note": 66, "velocity": 113, "channel": 0}, {"type": "note_on", "time": 3, "note": 68, "velocity": 115, "channel": 0}, {"type": "note_off", "time": 81, "note": 68, "velocity": 115, "channel": 0}, {"type": "note_on", "time": 3, "note": 70, "velocity": 108, "channel": 0}, {"type": "note_off", "time": 98, "note": 70, "velocity": 108, "channel": 0}, {"type": "note_on", "time": 2, "note": 71, "velocity": 110, "channel": 0}, {"type": "note_off", "time": 66, "note": 71, "velocity": 110, "channel": 0}, {"type": "note_on", "time": 2, "note": 73, "velocity": 119, "channel": 0}, {"type": "note_off", "time": 82, "note": 73, "velocity": 119, "channel": 0}, {"type": "note_on", "time": 14, "note": 75, "velocity": 114, "channel": 0}, {"type": "note_off", "time": 66, "note": 75, "velocity": 114, "channel": 0}, {"type": "note_on", "time": 8, "note": 77, "velocity": 117, "channel": 0}, {"type": "note_off", "time": 124, "note": 77, "velocity": 117, "channel": 0}, {"type": "note_on", "time": 3, "note": 78, "velocity": 101, "channel": 0}, {"type": "note_off", "time": 40, "note": 78, "velocity": 101, "channel": 0}, {"type": "note_on", "time": 40, "note": 79, "velocity": 111, "channel": 0}, {"type": "note_off", "time": 29, "note": 79, "velocity": 111, "channel": 0}, {"type": "note_on", "time": 5, "note": 80, "velocity": 115, "channel": 0}, {"type": "note_off", "time": 126, "note": 80, "velocity": 115, "channel": 0}, {"type": "note_on", "time": 27, "note": 82, "velocity": 112, "channel": 0}, {"type": "note_off", "time": 109, "note": 82, "velocity": 112, "channel": 0}, {"type": "note_on", "time": 33, "note": 85, "velocity": 109, "channel": 0}, {"type": "note_off", "time": 70, "note": 85, "velocity": 109, "channel": 0}, {"type": "note_on", "time": 5, "note": 84, "velocity": 104, "channel": 0}, {"type": "note_off", "time": 341, "note": 84, "velocity": 104, "channel": 0}, {"type": "note_on", "time": 5, "note": 82, "velocity": 104, "channel": 0}, {"type": "note_off", "time": 340, "note": 82, "velocity": 104, "channel": 0}, {"type": "note_on", "time": 1089, "note": 75, "velocity": 119, "channel": 0}, {"type": "note_off", "time": 106, "note": 75, "velocity": 119, "channel": 0}, {"type": "note_on", "time": 79, "note": 80, "velocity": 117, "channel": 0}, {"type": "note_off", "time": 137, "note": 80, "velocity": 117, "channel": 0}, {"type": "note_on", "time": 59, "note": 85, "velocity": 115, "channel": 0}, {"type": "note_off", "time": 126, "note": 85, "velocity": 115, "channel": 0}, {"type": "note_on", "time": 15, "note": 82, "velocity": 104, "channel": 0}, {"type": "note_off", "time": 721, "note": 82, "velocity": 104, "channel": 0}, {"type": "note_on", "time": 12, "note": 81, "velocity": 112, "channel": 0}, {"type": "note_off", "time": 76, "note": 81, "velocity": 112, "channel": 0}, {"type": "note_on", "time": 48, "note": 79, "velocity": 116, "channel": 0}, {"type": "note_off", "time": 126, "note": 79, "velocity": 116, "channel": 0}, {"type": "note_on", "time": 53, "note": 79, "velocity": 115, "channel": 0}, {"type": "note_off", "time": 98, "note": 79, "velocity": 115, "channel": 0}, {"type": "note_on", "time": 23, "note": 82, "velocity": 111, "channel": 0}, {"type": "note_off", "time": 58, "note": 82, "velocity": 111, "channel": 0}, {"type": "note_on", "time": 28, "note": 84, "velocity": 108, "channel": 0}, {"type": "note_off", "time": 104, "note": 84, "velocity": 108, "channel": 0}, {"type": "note_on", "time": 3, "note": 82, "velocity": 63, "channel": 0}, {"type": "note_off", "time": 81, "note": 82, "velocity": 63, "channel": 0}, {"type": "note_on", "time": 5, "note": 84, "velocity": 106, "channel": 0}, {"type": "note_off", "time": 98, "note": 84, "velocity": 106, "channel": 0}, {"type": "note_on", "time": 11, "note": 82, "velocity": 112, "channel": 0}, {"type": "note_off", "time": 340, "note": 82, "velocity": 112, "channel": 0}, {"type": "note_on", "time": 31, "note": 79, "velocity": 118, "channel": 0}, {"type": "note_off", "time": 35, "note": 79, "velocity": 118, "channel": 0}, {"type": "note_on", "time": 11, "note": 77, "velocity": 120, "channel": 0}, {"type": "note_off", "time": 46, "note": 77, "velocity": 120, "channel": 0}, {"type": "note_on", "time": 13, "note": 74, "velocity": 103, "channel": 0}, {"type": "note_off", "time": 102, "note": 74, "velocity": 103, "channel": 0}, {"type": "note_on", "time": 15, "note": 70, "velocity": 105, "channel": 0}, {"type": "note_off", "time": 60, "note": 70, "velocity": 105, "channel": 0}, {"type": "note_on", "time": 21, "note": 67, "velocity": 108, "channel": 0}, {"type": "note_off", "time": 73, "note": 67, "velocity": 108, "channel": 0}, {"type": "note_on", "time": 28, "note": 65, "velocity": 111, "channel": 0}, {"type": "note_off", "time": 58, "note": 65, "velocity": 111, "channel": 0}, {"type": "note_on", "time": 23, "note": 75, "velocity": 106, "channel": 0}, {"type": "note_off", "time": 115, "note": 75, "velocity": 106, "channel": 0}, {"type": "note_on", "time": 15, "note": 77, "velocity": 111, "channel": 0}, {"type": "note_off", "time": 54, "note": 77, "velocity": 111, "channel": 0}, {"type": "note_on", "time": 6, "note": 79, "velocity": 114, "channel": 0}, {"type": "note_off", "time": 103, "note": 79, "velocity": 114, "channel": 0}, {"type": "note_on", "time": 12, "note": 78, "velocity": 109, "channel": 0}, {"type": "note_off", "time": 90, "note": 78, "velocity": 109, "channel": 0}, {"type": "note_on", "time": 7, "note": 77, "velocity": 123, "channel": 0}, {"type": "note_off", "time": 92, "note": 77, "velocity": 123, "channel": 0}, {"type": "note_on", "time": 15, "note": 76, "velocity": 112, "channel": 0}, {"type": "note_off", "time": 70, "note": 76, "velocity": 112, "channel": 0}, {"type": "note_on", "time": 14, "note": 75, "velocity": 110, "channel": 0}, {"type": "note_off", "time": 91, "note": 75, "velocity": 110, "channel": 0}, {"type": "note_on", "time": 10, "note": 78, "velocity": 114, "channel": 0}, {"type": "note_off", "time": 76, "note": 78, "velocity": 114, "channel": 0}, {"type": "note_on", "time": 35, "note": 73, "velocity": 104, "channel": 0}, {"type": "note_off", "time": 57, "note": 73, "velocity": 104, "channel": 0}, {"type": "note_on", "time": 6, "note": 74, "velocity": 104, "channel": 0}, {"type": "note_off", "time": 57, "note": 74, "velocity": 104, "channel": 0}, {"type": "note_on", "time": 10, "note": 76, "velocity": 113, "channel": 0}, {"type": "note_off", "time": 42, "note": 76, "velocity": 113, "channel": 0}, {"type": "note_on", "time": 12, "note": 77, "velocity": 124, "channel": 0}, {"type": "note_off", "time": 118, "note": 77, "velocity": 124, "channel": 0}, {"type": "note_on", "time": 34, "note": 74, "velocity": 107, "channel": 0}, {"type": "note_off", "time": 34, "note": 74, "velocity": 107, "channel": 0}, {"type": "note_on", "time": 6, "note": 75, "velocity": 113, "channel": 0}, {"type": "note_off", "time": 97, "note": 75, "velocity": 113, "channel": 0}, {"type": "note_on", "time": 19, "note": 70, "velocity": 109, "channel": 0}, {"type": "note_off", "time": 69, "note": 70, "velocity": 109, "channel": 0}, {"type": "note_on", "time": 19, "note": 66, "velocity": 104, "channel": 0}, {"type": "note_off", "time": 93, "note": 66, "velocity": 104, "channel": 0}, {"type": "note_on", "time": 27, "note": 63, "velocity": 101, "channel": 0}, {"type": "note_off", "time": 50, "note": 63, "velocity": 101, "channel": 0}, {"type": "note_on", "time": 14, "note": 69, "velocity": 102, "channel": 0}, {"type": "note_off", "time": 107, "note": 69, "velocity": 102, "channel": 0}, {"type": "note_on", "time": 7, "note": 65, "velocity": 107, "channel": 0}, {"type": "note_off", "time": 52, "note": 65, "velocity": 107, "channel": 0}, {"type": "note_on", "time": 19, "note": 67, "velocity": 101, "channel": 0}, {"type": "note_off", "time": 110, "note": 67, "velocity": 101, "channel": 0}, {"type": "note_on", "time": 25, "note": 69, "velocity": 96, "channel": 0}, {"type": "note_off", "time": 33, "note": 69, "velocity": 96, "channel": 0}, {"type": "note_on", "time": 26, "note": 72, "velocity": 97, "channel": 0}, {"type": "note_off", "time": 86, "note": 72, "velocity": 97, "channel": 0}, {"type": "note_on", "time": 39, "note": 69, "velocity": 97, "channel": 0}, {"type": "note_off", "time": 58, "note": 69, "velocity": 97, "channel": 0}, {"type": "note_on", "time": 22, "note": 65, "velocity": 101, "channel": 0}, {"type": "note_off", "time": 100, "note": 65, "velocity": 101, "channel": 0}, {"type": "note_on", "time": 11, "note": 63, "velocity": 90, "channel": 0}, {"type": "note_off", "time": 73, "note": 63, "velocity": 90, "channel": 0}, {"type": "note_on", "time": 16, "note": 70, "velocity": 92, "channel": 0}, {"type": "note_off", "time": 69, "note": 70, "velocity": 92, "channel": 0}, {"type": "note_on", "time": 66, "note": 61, "velocity": 90, "channel": 0}, {"type": "note_off", "time": 34, "note": 61, "velocity": 90, "channel": 0}, {"type": "note_on", "time": 21, "note": 64, "velocity": 99, "channel": 0}, {"type": "note_off", "time": 85, "note": 64, "velocity": 99, "channel": 0}, {"type": "note_on", "time": 13, "note": 68, "velocity": 100, "channel": 0}, {"type": "note_off", "time": 52, "note": 68, "velocity": 100, "channel": 0}, {"type": "note_on", "time": 390, "note": 70, "velocity": 103, "channel": 0}, {"type": "note_off", "time": 103, "note": 70, "velocity": 103, "channel": 0}, {"type": "note_on", "time": 104, "note": 67, "velocity": 103, "channel": 0}, {"type": "note_off", "time": 98, "note": 67, "velocity": 103, "channel": 0}, {"type": "note_on", "time": 10, "note": 63, "velocity": 104, "channel": 0}, {"type": "note_off", "time": 87, "note": 63, "velocity": 104, "channel": 0}, {"type": "note_on", "time": 7, "note": 62, "velocity": 96, "channel": 0}, {"type": "note_off", "time": 133, "note": 62, "velocity": 96, "channel": 0}, {"type": "note_on", "time": 13, "note": 63, "velocity": 103, "channel": 0}, {"type": "note_off", "time": 115, "note": 63, "velocity": 103, "channel": 0}, {"type": "note_on", "time": 19, "note": 65, "velocity": 99, "channel": 0}, {"type": "note_off", "time": 210, "note": 65, "velocity": 99, "channel": 0}, {"type": "note_on", "time": 2335, "note": 61, "velocity": 110, "channel": 0}, {"type": "note_off", "time": 57, "note": 61, "velocity": 110, "channel": 0}, {"type": "note_on", "time": 6, "note": 63, "velocity": 107, "channel": 0}, {"type": "note_off", "time": 67, "note": 63, "velocity": 107, "channel": 0}, {"type": "note_on", "time": 23, "note": 65, "velocity": 116, "channel": 0}, {"type": "note_off", "time": 55, "note": 65, "velocity": 116, "channel": 0}, {"type": "note_on", "time": 17, "note": 66, "velocity": 108, "channel": 0}, {"type": "note_off", "time": 81, "note": 66, "velocity": 108, "channel": 0}, {"type": "note_on", "time": 28, "note": 68, "velocity": 117, "channel": 0}, {"type": "note_off", "time": 69, "note": 68, "velocity": 117, "channel": 0}, {"type": "note_on", "time": 15, "note": 70, "velocity": 109, "channel": 0}, {"type": "note_off", "time": 101, "note": 70, "velocity": 109, "channel": 0}, {"type": "note_on", "time": 5, "note": 71, "velocity": 108, "channel": 0}, {"type": "note_off", "time": 55, "note": 71, "velocity": 108, "channel": 0}, {"type": "note_on", "time": 3, "note": 73, "velocity": 115, "channel": 0}, {"type": "note_off", "time": 89, "note": 73, "velocity": 115, "channel": 0}, {"type": "note_on", "time": 14, "note": 75, "velocity": 117, "channel": 0}, {"type": "note_off", "time": 75, "note": 75, "velocity": 117, "channel": 0}, {"type": "note_on", "time": 9, "note": 77, "velocity": 118, "channel": 0}, {"type": "note_off", "time": 85, "note": 77, "velocity": 118, "channel": 0}, {"type": "note_on", "time": 34, "note": 78, "velocity": 117, "channel": 0}, {"type": "note_off", "time": 72, "note": 78, "velocity": 117, "channel": 0}, {"type": "note_on", "time": 11, "note": 79, "velocity": 116, "channel": 0}, {"type": "note_off", "time": 101, "note": 79, "velocity": 116, "channel": 0}, {"type": "note_on", "time": 7, "note": 78, "velocity": 118, "channel": 0}, {"type": "note_off", "time": 71, "note": 78, "velocity": 118, "channel": 0}, {"type": "note_on", "time": 13, "note": 77, "velocity": 119, "channel": 0}, {"type": "note_off", "time": 82, "note": 77, "velocity": 119, "channel": 0}, {"type": "note_on", "time": 9, "note": 76, "velocity": 110, "channel": 0}, {"type": "note_off", "time": 78, "note": 76, "velocity": 110, "channel": 0}, {"type": "note_on", "time": 13, "note": 75, "velocity": 115, "channel": 0}, {"type": "note_off", "time": 85, "note": 75, "velocity": 115, "channel": 0}, {"type": "note_on", "time": 14, "note": 78, "velocity": 116, "channel": 0}, {"type": "note_off", "time": 77, "note": 78, "velocity": 116, "channel": 0}, {"type": "note_on", "time": 7, "note": 74, "velocity": 97, "channel": 0}, {"type": "note_off", "time": 90, "note": 74, "velocity": 97, "channel": 0}, {"type": "note_on", "time": 38, "note": 79, "velocity": 114, "channel": 0}, {"type": "note_off", "time": 70, "note": 79, "velocity": 114, "channel": 0}, {"type": "note_on", "time": 18, "note": 75, "velocity": 111, "channel": 0}, {"type": "note_off", "time": 63, "note": 75, "velocity": 111, "channel": 0}, {"type": "note_on", "time": 37, "note": 70, "velocity": 108, "channel": 0}, {"type": "note_off", "time": 88, "note": 70, "velocity": 108, "channel": 0}, {"type": "note_on", "time": 1, "note": 67, "velocity": 108, "channel": 0}, {"type": "note_off", "time": 95, "note": 67, "velocity": 108, "channel": 0}, {"type": "note_on", "time": 13, "note": 63, "velocity": 103, "channel": 0}, {"type": "note_off", "time": 51, "note": 63, "velocity": 103, "channel": 0}, {"type": "note_on", "time": 12, "note": 64, "velocity": 113, "channel": 0}, {"type": "note_off", "time": 36, "note": 64, "velocity": 113, "channel": 0}, {"type": "note_on", "time": 6, "note": 65, "velocity": 109, "channel": 0}, {"type": "note_off", "time": 142, "note": 65, "velocity": 109, "channel": 0}, {"type": "note_on", "time": 17, "note": 72, "velocity": 105, "channel": 0}, {"type": "note_off", "time": 60, "note": 72, "velocity": 105, "channel": 0}, {"type": "note_on", "time": 53, "note": 70, "velocity": 102, "channel": 0}, {"type": "note_off", "time": 102, "note": 70, "velocity": 102, "channel": 0}, {"type": "note_on", "time": 90, "note": 67, "velocity": 105, "channel": 0}, {"type": "note_off", "time": 62, "note": 67, "velocity": 105, "channel": 0}, {"type": "note_on", "time": 19, "note": 63, "velocity": 100, "channel": 0}, {"type": "note_off", "time": 95, "note": 63, "velocity": 100, "channel": 0}, {"type": "note_on", "time": 12, "note": 60, "velocity": 91, "channel": 0}, {"type": "note_off", "time": 41, "note": 60, "velocity": 91, "channel": 0}, {"type": "note_on", "time": 31, "note": 63, "velocity": 115, "channel": 0}, {"type": "note_off", "time": 31, "note": 63, "velocity": 115, "channel": 0}, {"type": "note_on", "time": 1, "note": 65, "velocity": 101, "channel": 0}, {"type": "note_off", "time": 160, "note": 65, "velocity": 101, "channel": 0}, {"type": "note_on", "time": 11, "note": 66, "velocity": 96, "channel": 0}, {"type": "note_off", "time": 97, "note": 66, "velocity": 96, "channel": 0}, {"type": "note_on", "time": 11, "note": 68, "velocity": 99, "channel": 0}, {"type": "note_off", "time": 283, "note": 68, "velocity": 99, "channel": 0}, {"type": "note_on", "time": 2731, "note": 79, "velocity": 120, "channel": 0}, {"type": "note_off", "time": 145, "note": 79, "velocity": 120, "channel": 0}, {"type": "note_on", "time": 5, "note": 82, "velocity": 106, "channel": 0}, {"type": "note_off", "time": 42, "note": 82, "velocity": 106, "channel": 0}, {"type": "note_on", "time": 2, "note": 84, "velocity": 107, "channel": 0}, {"type": "note_off", "time": 21, "note": 84, "velocity": 107, "channel": 0}, {"type": "note_on", "time": 3, "note": 86, "velocity": 101, "channel": 0}, {"type": "note_off", "time": 102, "note": 86, "velocity": 101, "channel": 0}, {"type": "note_on", "time": 35, "note": 86, "velocity": 90, "channel": 0}, {"type": "note_off", "time": 73, "note": 86, "velocity": 90, "channel": 0}, {"type": "note_on", "time": 383, "note": 84, "velocity": 107, "channel": 0}, {"type": "note_off", "time": 69, "note": 84, "velocity": 107, "channel": 0}, {"type": "note_on", "time": 3, "note": 85, "velocity": 116, "channel": 0}, {"type": "note_off", "time": 101, "note": 85, "velocity": 116, "channel": 0}, {"type": "note_on", "time": 13, "note": 84, "velocity": 108, "channel": 0}, {"type": "note_off", "time": 84, "note": 84, "velocity": 108, "channel": 0}, {"type": "note_on", "time": 5, "note": 82, "velocity": 111, "channel": 0}, {"type": "note_off", "time": 302, "note": 82, "velocity": 111, "channel": 0}, {"type": "note_on", "time": 164, "note": 81, "velocity": 118, "channel": 0}, {"type": "note_off", "time": 114, "note": 81, "velocity": 118, "channel": 0}, {"type": "note_on", "time": 6, "note": 82, "velocity": 105, "channel": 0}, {"type": "note_off", "time": 44, "note": 82, "velocity": 105, "channel": 0}, {"type": "note_on", "time": 10, "note": 84, "velocity": 103, "channel": 0}, {"type": "note_off", "time": 153, "note": 84, "velocity": 103, "channel": 0}, {"type": "note_on", "time": 14, "note": 84, "velocity": 108, "channel": 0}, {"type": "note_off", "time": 44, "note": 84, "velocity": 108, "channel": 0}, {"type": "note_on", "time": 16, "note": 85, "velocity": 110, "channel": 0}, {"type": "note_off", "time": 306, "note": 85, "velocity": 110, "channel": 0}, {"type": "note_on", "time": 18, "note": 84, "velocity": 111, "channel": 0}, {"type": "note_off", "time": 51, "note": 84, "velocity": 111, "channel": 0}, {"type": "note_on", "time": 5, "note": 83, "velocity": 112, "channel": 0}, {"type": "note_off", "time": 46, "note": 83, "velocity": 112, "channel": 0}, {"type": "note_on", "time": 2, "note": 82, "velocity": 110, "channel": 0}, {"type": "note_off", "time": 108, "note": 82, "velocity": 110, "channel": 0}, {"type": "note_on", "time": 22, "note": 80, "velocity": 117, "channel": 0}, {"type": "note_off", "time": 87, "note": 80, "velocity": 117, "channel": 0}, {"type": "note_on", "time": 3, "note": 79, "velocity": 116, "channel": 0}, {"type": "note_off", "time": 100, "note": 79, "velocity": 116, "channel": 0}, {"type": "note_on", "time": 4, "note": 78, "velocity": 113, "channel": 0}, {"type": "note_off", "time": 65, "note": 78, "velocity": 113, "channel": 0}, {"type": "note_on", "time": 17, "note": 77, "velocity": 123, "channel": 0}, {"type": "note_off", "time": 98, "note": 77, "velocity": 123, "channel": 0}, {"type": "note_on", "time": 10, "note": 76, "velocity": 115, "channel": 0}, {"type": "note_off", "time": 61, "note": 76, "velocity": 115, "channel": 0}, {"type": "note_on", "time": 18, "note": 75, "velocity": 111, "channel": 0}, {"type": "note_off", "time": 91, "note": 75, "velocity": 111, "channel": 0}, {"type": "note_on", "time": 3, "note": 79, "velocity": 114, "channel": 0}, {"type": "note_off", "time": 95, "note": 79, "velocity": 114, "channel": 0}, {"type": "note_on", "time": 10, "note": 74, "velocity": 106, "channel": 0}, {"type": "note_off", "time": 83, "note": 74, "velocity": 106, "channel": 0}, {"type": "note_on", "time": 6, "note": 75, "velocity": 107, "channel": 0}, {"type": "note_off", "time": 66, "note": 75, "velocity": 107, "channel": 0}, {"type": "note_on", "time": 13, "note": 77, "velocity": 124, "channel": 0}, {"type": "note_off", "time": 115, "note": 77, "velocity": 124, "channel": 0}, {"type": "note_on", "time": 15, "note": 74, "velocity": 102, "channel": 0}, {"type": "note_off", "time": 42, "note": 74, "velocity": 102, "channel": 0}, {"type": "note_on", "time": 23, "note": 75, "velocity": 116, "channel": 0}, {"type": "note_off", "time": 108, "note": 75, "velocity": 116, "channel": 0}, {"type": "note_on", "time": 15, "note": 73, "velocity": 107, "channel": 0}, {"type": "note_off", "time": 61, "note": 73, "velocity": 107, "channel": 0}, {"type": "note_on", "time": 13, "note": 70, "velocity": 113, "channel": 0}, {"type": "note_off", "time": 103, "note": 70, "velocity": 113, "channel": 0}, {"type": "note_on", "time": 9, "note": 66, "velocity": 115, "channel": 0}, {"type": "note_off", "time": 98, "note": 66, "velocity": 115, "channel": 0}, {"type": "note_on", "time": 12, "note": 65, "velocity": 117, "channel": 0}, {"type": "note_off", "time": 66, "note": 65, "velocity": 117, "channel": 0}, {"type": "note_on", "time": 19, "note": 64, "velocity": 110, "channel": 0}, {"type": "note_off", "time": 45, "note": 64, "velocity": 110, "channel": 0}, {"type": "note_on", "time": 20, "note": 62, "velocity": 107, "channel": 0}, {"type": "note_off", "time": 112, "note": 62, "velocity": 107, "channel": 0}, {"type": "note_on", "time": 10, "note": 67, "velocity": 115, "channel": 0}, {"type": "note_off", "time": 77, "note": 67, "velocity": 115, "channel": 0}, {"type": "note_on", "time": 4, "note": 62, "velocity": 106, "channel": 0}, {"type": "note_off", "time": 104, "note": 62, "velocity": 106, "channel": 0}, {"type": "note_on", "time": 7, "note": 63, "velocity": 109, "channel": 0}, {"type": "note_off", "time": 67, "note": 63, "velocity": 109, "channel": 0}, {"type": "note_on", "time": 8, "note": 65, "velocity": 117, "channel": 0}, {"type": "note_off", "time": 129, "note": 65, "velocity": 117, "channel": 0}, {"type": "note_on", "time": 5, "note": 66, "velocity": 115, "channel": 0}, {"type": "note_off", "time": 65, "note": 66, "velocity": 115, "channel": 0}, {"type": "note_on", "time": 4, "note": 69, "velocity": 114, "channel": 0}, {"type": "note_off", "time": 114, "note": 69, "velocity": 114, "channel": 0}, {"type": "note_on", "time": 7, "note": 70, "velocity": 113, "channel": 0}, {"type": "note_off", "time": 75, "note": 70, "velocity": 113, "channel": 0}, {"type": "note_on", "time": 2, "note": 72, "velocity": 103, "channel": 0}, {"type": "note_off", "time": 101, "note": 72, "velocity": 103, "channel": 0}, {"type": "note_on", "time": 13, "note": 74, "velocity": 99, "channel": 0}, {"type": "note_off", "time": 60, "note": 74, "velocity": 99, "channel": 0}, {"type": "note_on", "time": 5, "note": 75, "velocity": 112, "channel": 0}, {"type": "note_off", "time": 109, "note": 75, "velocity": 112, "channel": 0}, {"type": "note_on", "time": 12, "note": 77, "velocity": 117, "channel": 0}, {"type": "note_off", "time": 73, "note": 77, "velocity": 117, "channel": 0}, {"type": "note_on", "time": 12, "note": 78, "velocity": 115, "channel": 0}, {"type": "note_off", "time": 108, "note": 78, "velocity": 115, "channel": 0}, {"type": "note_on", "time": 6, "note": 81, "velocity": 116, "channel": 0}, {"type": "note_off", "time": 74, "note": 81, "velocity": 116, "channel": 0}, {"type": "note_on", "time": 5, "note": 82, "velocity": 115, "channel": 0}, {"type": "note_off", "time": 90, "note": 82, "velocity": 115, "channel": 0}, {"type": "note_on", "time": 10, "note": 83, "velocity": 111, "channel": 0}, {"type": "note_off", "time": 98, "note": 83, "velocity": 111, "channel": 0}, {"type": "note_on", "time": 19, "note": 82, "velocity": 112, "channel": 0}, {"type": "note_off", "time": 106, "note": 82, "velocity": 112, "channel": 0}, {"type": "note_on", "time": 22, "note": 80, "velocity": 106, "channel": 0}, {"type": "note_off", "time": 183, "note": 80, "velocity": 106, "channel": 0}, {"type": "note_on", "time": 25, "note": 78, "velocity": 108, "channel": 0}, {"type": "note_off", "time": 105, "note": 78, "velocity": 108, "channel": 0}, {"type": "note_on", "time": 13, "note": 76, "velocity": 109, "channel": 0}, {"type": "note_off", "time": 61, "note": 76, "velocity": 109, "channel": 0}, {"type": "note_on", "time": 27, "note": 75, "velocity": 111, "channel": 0}, {"type": "note_off", "time": 197, "note": 75, "velocity": 111, "channel": 0}, {"type": "note_on", "time": 4, "note": 73, "velocity": 106, "channel": 0}, {"type": "note_off", "time": 68, "note": 73, "velocity": 106, "channel": 0}, {"type": "note_on", "time": 49, "note": 71, "velocity": 107, "channel": 0}, {"type": "note_off", "time": 82, "note": 71, "velocity": 107, "channel": 0}, {"type": "note_on", "time": 12, "note": 70, "velocity": 113, "channel": 0}, {"type": "note_off", "time": 163, "note": 70, "velocity": 113, "channel": 0}, {"type": "note_on", "time": 11, "note": 68, "velocity": 112, "channel": 0}, {"type": "note_off", "time": 113, "note": 68, "velocity": 112, "channel": 0}, {"type": "note_on", "time": 23, "note": 66, "velocity": 110, "channel": 0}, {"type": "note_off", "time": 103, "note": 66, "velocity": 110, "channel": 0}, {"type": "note_on", "time": 3, "note": 64, "velocity": 103, "channel": 0}, {"type": "note_off", "time": 174, "note": 64, "velocity": 103, "channel": 0}, {"type": "note_on", "time": 7, "note": 63, "velocity": 108, "channel": 0}, {"type": "note_off", "time": 127, "note": 63, "velocity": 108, "channel": 0}, {"type": "note_on", "time": 8, "note": 61, "velocity": 112, "channel": 0}, {"type": "note_off", "time": 79, "note": 61, "velocity": 112, "channel": 0}, {"type": "note_on", "time": 4, "note": 60, "velocity": 103, "channel": 0}, {"type": "note_off", "time": 171, "note": 60, "velocity": 103, "channel": 0}, {"type": "note_on", "time": 13, "note": 65, "velocity": 115, "channel": 0}, {"type": "note_off", "time": 114, "note": 65, "velocity": 115, "channel": 0}, {"type": "note_on", "time": 7, "note": 58, "velocity": 101, "channel": 0}, {"type": "note_off", "time": 307, "note": 58, "velocity": 101, "channel": 0}, {"type": "note_on", "time": 1069, "note": 58, "velocity": 105, "channel": 0}, {"type": "note_off", "time": 79, "note": 58, "velocity": 105, "channel": 0}, {"type": "note_on", "time": 20, "note": 63, "velocity": 112, "channel": 0}, {"type": "note_off", "time": 69, "note": 63, "velocity": 112, "channel": 0}, {"type": "note_on", "time": 4, "note": 66, "velocity": 111, "channel": 0}, {"type": "note_off", "time": 100, "note": 66, "velocity": 111, "channel": 0}, {"type": "note_on", "time": 3, "note": 64, "velocity": 108, "channel": 0}, {"type": "note_off", "time": 109, "note": 64, "velocity": 108, "channel": 0}, {"type": "note_on", "time": 3, "note": 66, "velocity": 112, "channel": 0}, {"type": "note_off", "time": 81, "note": 66, "velocity": 112, "channel": 0}, {"type": "note_on", "time": 3, "note": 68, "velocity": 112, "channel": 0}, {"type": "note_off", "time": 111, "note": 68, "velocity": 112, "channel": 0}, {"type": "note_on", "time": 94, "note": 75, "velocity": 115, "channel": 0}, {"type": "note_off", "time": 101, "note": 75, "velocity": 115, "channel": 0}, {"type": "note_on", "time": 5, "note": 73, "velocity": 112, "channel": 0}, {"type": "note_off", "time": 72, "note": 73, "velocity": 112, "channel": 0}, {"type": "note_on", "time": 7, "note": 70, "velocity": 112, "channel": 0}, {"type": "note_off", "time": 131, "note": 70, "velocity": 112, "channel": 0}, {"type": "note_on", "time": 12, "note": 66, "velocity": 111, "channel": 0}, {"type": "note_off", "time": 26, "note": 66, "velocity": 111, "channel": 0}, {"type": "note_on", "time": 9, "note": 68, "velocity": 114, "channel": 0}, {"type": "note_off", "time": 151, "note": 68, "velocity": 114, "channel": 0}, {"type": "note_on", "time": 45, "note": 73, "velocity": 108, "channel": 0}, {"type": "note_off", "time": 103, "note": 73, "velocity": 108, "channel": 0}, {"type": "note_on", "time": 27, "note": 70, "velocity": 100, "channel": 0}, {"type": "note_off", "time": 414, "note": 70, "velocity": 100, "channel": 0}, {"type": "note_on", "time": 469, "note": 71, "velocity": 104, "channel": 0}, {"type": "note_off", "time": 23, "note": 71, "velocity": 104, "channel": 0}, {"type": "note_on", "time": 2, "note": 72, "velocity": 104, "channel": 0}, {"type": "note_off", "time": 73, "note": 72, "velocity": 104, "channel": 0}, {"type": "note_on", "time": 5, "note": 74, "velocity": 104, "channel": 0}, {"type": "note_off", "time": 47, "note": 74, "velocity": 104, "channel": 0}, {"type": "note_on", "time": 8, "note": 75, "velocity": 113, "channel": 0}, {"type": "note_off", "time": 117, "note": 75, "velocity": 113, "channel": 0}, {"type": "note_on", "time": 6, "note": 73, "velocity": 114, "channel": 0}, {"type": "note_off", "time": 108, "note": 73, "velocity": 114, "channel": 0}, {"type": "note_on", "time": 11, "note": 72, "velocity": 103, "channel": 0}, {"type": "note_off", "time": 86, "note": 72, "velocity": 103, "channel": 0}, {"type": "note_on", "time": 7, "note": 73, "velocity": 111, "channel": 0}, {"type": "note_off", "time": 50, "note": 73, "velocity": 111, "channel": 0}, {"type": "note_on", "time": 20, "note": 77, "velocity": 118, "channel": 0}, {"type": "note_off", "time": 108, "note": 77, "velocity": 118, "channel": 0}, {"type": "note_on", "time": 23, "note": 80, "velocity": 103, "channel": 0}, {"type": "note_off", "time": 52, "note": 80, "velocity": 103, "channel": 0}, {"type": "note_on", "time": 25, "note": 82, "velocity": 115, "channel": 0}, {"type": "note_off", "time": 133, "note": 82, "velocity": 115, "channel": 0}, {"type": "note_on", "time": 57, "note": 82, "velocity": 113, "channel": 0}, {"type": "note_off", "time": 91, "note": 82, "velocity": 113, "channel": 0}, {"type": "note_on", "time": 15, "note": 79, "velocity": 114, "channel": 0}, {"type": "note_off", "time": 82, "note": 79, "velocity": 114, "channel": 0}, {"type": "note_on", "time": 5, "note": 75, "velocity": 108, "channel": 0}, {"type": "note_off", "time": 169, "note": 75, "velocity": 108, "channel": 0}, {"type": "note_on", "time": 12, "note": 74, "velocity": 108, "channel": 0}, {"type": "note_off", "time": 95, "note": 74, "velocity": 108, "channel": 0}, {"type": "note_on", "time": 4, "note": 78, "velocity": 111, "channel": 0}, {"type": "note_off", "time": 405, "note": 78, "velocity": 111, "channel": 0}, {"type": "note_on", "time": 10, "note": 75, "velocity": 105, "channel": 0}, {"type": "note_off", "time": 50, "note": 75, "velocity": 105, "channel": 0}, {"type": "note_on", "time": 18, "note": 76, "velocity": 113, "channel": 0}, {"type": "note_off", "time": 117, "note": 76, "velocity": 113, "channel": 0}, {"type": "note_on", "time": 8, "note": 78, "velocity": 109, "channel": 0}, {"type": "note_off", "time": 79, "note": 78, "velocity": 109, "channel": 0}, {"type": "note_on", "time": 11, "note": 73, "velocity": 107, "channel": 0}, {"type": "note_off", "time": 85, "note": 73, "velocity": 107, "channel": 0}, {"type": "note_on", "time": 6, "note": 76, "velocity": 113, "channel": 0}, {"type": "note_off", "time": 86, "note": 76, "velocity": 113, "channel": 0}, {"type": "note_on", "time": 11, "note": 75, "velocity": 106, "channel": 0}, {"type": "note_off", "time": 74, "note": 75, "velocity": 106, "channel": 0}, {"type": "note_on", "time": 42, "note": 71, "velocity": 108, "channel": 0}, {"type": "note_off", "time": 53, "note": 71, "velocity": 108, "channel": 0}, {"type": "note_on", "time": 22, "note": 66, "velocity": 113, "channel": 0}, {"type": "note_off", "time": 98, "note": 66, "velocity": 113, "channel": 0}, {"type": "note_on", "time": 18, "note": 63, "velocity": 105, "channel": 0}, {"type": "note_off", "time": 57, "note": 63, "velocity": 105, "channel": 0}, {"type": "note_on", "time": 9, "note": 69, "velocity": 109, "channel": 0}, {"type": "note_off", "time": 82, "note": 69, "velocity": 109, "channel": 0}, {"type": "note_on", "time": 34, "note": 74, "velocity": 108, "channel": 0}, {"type": "note_off", "time": 53, "note": 74, "velocity": 108, "channel": 0}, {"type": "note_on", "time": 12, "note": 73, "velocity": 108, "channel": 0}, {"type": "note_off", "time": 89, "note": 73, "velocity": 108, "channel": 0}, {"type": "note_on", "time": 28, "note": 70, "velocity": 106, "channel": 0}, {"type": "note_off", "time": 77, "note": 70, "velocity": 106, "channel": 0}, {"type": "note_on", "time": 17, "note": 71, "velocity": 111, "channel": 0}, {"type": "note_off", "time": 83, "note": 71, "velocity": 111, "channel": 0}, {"type": "note_on", "time": 23, "note": 67, "velocity": 106, "channel": 0}, {"type": "note_off", "time": 65, "note": 67, "velocity": 106, "channel": 0}, {"type": "note_on", "time": 11, "note": 69, "velocity": 111, "channel": 0}, {"type": "note_off", "time": 77, "note": 69, "velocity": 111, "channel": 0}, {"type": "note_on", "time": 13, "note": 66, "velocity": 110, "channel": 0}, {"type": "note_off", "time": 82, "note": 66, "velocity": 110, "channel": 0}, {"type": "note_on", "time": 9, "note": 64, "velocity": 107, "channel": 0}, {"type": "note_off", "time": 92, "note": 64, "velocity": 107, "channel": 0}, {"type": "note_on", "time": 28, "note": 64, "velocity": 109, "channel": 0}, {"type": "note_off", "time": 47, "note": 64, "velocity": 109, "channel": 0}, {"type": "note_on", "time": 10, "note": 66, "velocity": 113, "channel": 0}, {"type": "note_off", "time": 158, "note": 66, "velocity": 113, "channel": 0}, {"type": "note_on", "time": 10, "note": 68, "velocity": 114, "channel": 0}, {"type": "note_off", "time": 113, "note": 68, "velocity": 114, "channel": 0}, {"type": "note_on", "time": 439, "note": 68, "velocity": 114, "channel": 0}, {"type": "note_off", "time": 91, "note": 68, "velocity": 114, "channel": 0}, {"type": "note_on", "time": 13, "note": 69, "velocity": 108, "channel": 0}, {"type": "note_off", "time": 86, "note": 69, "velocity": 108, "channel": 0}, {"type": "note_on", "time": 13, "note": 71, "velocity": 110, "channel": 0}, {"type": "note_off", "time": 82, "note": 71, "velocity": 110, "channel": 0}, {"type": "note_on", "time": 7, "note": 69, "velocity": 105, "channel": 0}, {"type": "note_off", "time": 54, "note": 69, "velocity": 105, "channel": 0}, {"type": "note_on", "time": 429, "note": 71, "velocity": 107, "channel": 0}, {"type": "note_off", "time": 70, "note": 71, "velocity": 107, "channel": 0}, {"type": "note_on", "time": 17, "note": 69, "velocity": 108, "channel": 0}, {"type": "note_off", "time": 81, "note": 69, "velocity": 108, "channel": 0}, {"type": "note_on", "time": 23, "note": 72, "velocity": 100, "channel": 0}, {"type": "note_off", "time": 254, "note": 72, "velocity": 100, "channel": 0}, {"type": "note_on", "time": 919, "note": 72, "velocity": 106, "channel": 0}, {"type": "note_off", "time": 75, "note": 72, "velocity": 106, "channel": 0}, {"type": "note_on", "time": 118, "note": 74, "velocity": 114, "channel": 0}, {"type": "note_off", "time": 149, "note": 74, "velocity": 114, "channel": 0}, {"type": "note_on", "time": 11, "note": 75, "velocity": 113, "channel": 0}, {"type": "note_off", "time": 202, "note": 75, "velocity": 113, "channel": 0}, {"type": "note_on", "time": 1008, "note": 68, "velocity": 103, "channel": 0}, {"type": "note_off", "time": 106, "note": 68, "velocity": 103, "channel": 0}, {"type": "note_on", "time": 82, "note": 75, "velocity": 115, "channel": 0}, {"type": "note_off", "time": 117, "note": 75, "velocity": 115, "channel": 0}, {"type": "note_on", "time": 83, "note": 75, "velocity": 108, "channel": 0}, {"type": "note_off", "time": 138, "note": 75, "velocity": 108, "channel": 0}, {"type": "note_on", "time": 7, "note": 73, "velocity": 101, "channel": 0}, {"type": "note_off", "time": 58, "note": 73, "velocity": 101, "channel": 0}, {"type": "note_on", "time": 1062, "note": 72, "velocity": 110, "channel": 0}, {"type": "note_off", "time": 34, "note": 72, "velocity": 110, "channel": 0}, {"type": "note_on", "time": 4, "note": 73, "velocity": 110, "channel": 0}, {"type": "note_off", "time": 45, "note": 73, "velocity": 110, "channel": 0}, {"type": "note_on", "time": 1, "note": 75, "velocity": 110, "channel": 0}, {"type": "note_off", "time": 82, "note": 75, "velocity": 110, "channel": 0}, {"type": "note_on", "time": 20, "note": 78, "velocity": 115, "channel": 0}, {"type": "note_off", "time": 89, "note": 78, "velocity": 115, "channel": 0}, {"type": "note_on", "time": 5, "note": 75, "velocity": 103, "channel": 0}, {"type": "note_off", "time": 273, "note": 75, "velocity": 103, "channel": 0}, {"type": "note_on", "time": 941, "note": 70, "velocity": 115, "channel": 0}, {"type": "note_off", "time": 88, "note": 70, "velocity": 115, "channel": 0}, {"type": "note_on", "time": 0, "note": 75, "velocity": 117, "channel": 0}, {"type": "note_off", "time": 82, "note": 75, "velocity": 117, "channel": 0}, {"type": "note_on", "time": 13, "note": 78, "velocity": 114, "channel": 0}, {"type": "note_off", "time": 77, "note": 78, "velocity": 114, "channel": 0}, {"type": "note_on", "time": 9, "note": 75, "velocity": 113, "channel": 0}, {"type": "note_off", "time": 74, "note": 75, "velocity": 113, "channel": 0}, {"type": "note_on", "time": 47, "note": 75, "velocity": 114, "channel": 0}, {"type": "note_off", "time": 75, "note": 75, "velocity": 114, "channel": 0}, {"type": "note_on", "time": 25, "note": 77, "velocity": 105, "channel": 0}, {"type": "note_off", "time": 100, "note": 77, "velocity": 105, "channel": 0}, {"type": "note_on", "time": 85, "note": 75, "velocity": 109, "channel": 0}, {"type": "note_off", "time": 103, "note": 75, "velocity": 109, "channel": 0}, {"type": "note_on", "time": 809, "note": 70, "velocity": 100, "channel": 0}, {"type": "note_off", "time": 84, "note": 70, "velocity": 100, "channel": 0}, {"type": "note_on", "time": 7, "note": 75, "velocity": 111, "channel": 0}, {"type": "note_off", "time": 69, "note": 75, "velocity": 111, "channel": 0}, {"type": "note_on", "time": 26, "note": 77, "velocity": 116, "channel": 0}, {"type": "note_off", "time": 54, "note": 77, "velocity": 116, "channel": 0}, {"type": "note_on", "time": 44, "note": 79, "velocity": 113, "channel": 0}, {"type": "note_off", "time": 96, "note": 79, "velocity": 113, "channel": 0}, {"type": "note_on", "time": 8, "note": 78, "velocity": 111, "channel": 0}, {"type": "note_off", "time": 41, "note": 78, "velocity": 111, "channel": 0}, {"type": "note_on", "time": 8, "note": 77, "velocity": 117, "channel": 0}, {"type": "note_off", "time": 98, "note": 77, "velocity": 117, "channel": 0}, {"type": "note_on", "time": 26, "note": 76, "velocity": 113, "channel": 0}, {"type": "note_off", "time": 58, "note": 76, "velocity": 113, "channel": 0}, {"type": "note_on", "time": 13, "note": 75, "velocity": 106, "channel": 0}, {"type": "note_off", "time": 90, "note": 75, "velocity": 106, "channel": 0}, {"type": "note_on", "time": 19, "note": 77, "velocity": 110, "channel": 0}, {"type": "note_off", "time": 58, "note": 77, "velocity": 110, "channel": 0}, {"type": "note_on", "time": 9, "note": 79, "velocity": 116, "channel": 0}, {"type": "note_off", "time": 93, "note": 79, "velocity": 116, "channel": 0}, {"type": "note_on", "time": 15, "note": 82, "velocity": 109, "channel": 0}, {"type": "note_off", "time": 69, "note": 82, "velocity": 109, "channel": 0}, {"type": "note_on", "time": 29, "note": 78, "velocity": 114, "channel": 0}, {"type": "note_off", "time": 202, "note": 78, "velocity": 114, "channel": 0}, {"type": "note_on", "time": 15, "note": 77, "velocity": 120, "channel": 0}, {"type": "note_off", "time": 78, "note": 77, "velocity": 120, "channel": 0}, {"type": "note_on", "time": 23, "note": 76, "velocity": 115, "channel": 0}, {"type": "note_off", "time": 58, "note": 76, "velocity": 115, "channel": 0}, {"type": "note_on", "time": 17, "note": 75, "velocity": 111, "channel": 0}, {"type": "note_off", "time": 101, "note": 75, "velocity": 111, "channel": 0}, {"type": "note_on", "time": 10, "note": 73, "velocity": 107, "channel": 0}, {"type": "note_off", "time": 89, "note": 73, "velocity": 107, "channel": 0}, {"type": "note_on", "time": 14, "note": 72, "velocity": 101, "channel": 0}, {"type": "note_off", "time": 75, "note": 72, "velocity": 101, "channel": 0}, {"type": "note_on", "time": 19, "note": 70, "velocity": 111, "channel": 0}, {"type": "note_off", "time": 93, "note": 70, "velocity": 111, "channel": 0}, {"type": "note_on", "time": 14, "note": 69, "velocity": 105, "channel": 0}, {"type": "note_off", "time": 58, "note": 69, "velocity": 105, "channel": 0}, {"type": "note_on", "time": 47, "note": 60, "velocity": 91, "channel": 0}, {"type": "note_off", "time": 95, "note": 60, "velocity": 91, "channel": 0}, {"type": "note_on", "time": 6, "note": 62, "velocity": 97, "channel": 0}, {"type": "note_off", "time": 57, "note": 62, "velocity": 97, "channel": 0}, {"type": "note_on", "time": 17, "note": 64, "velocity": 100, "channel": 0}, {"type": "note_off", "time": 77, "note": 64, "velocity": 100, "channel": 0}, {"type": "note_on", "time": 22, "note": 67, "velocity": 107, "channel": 0}, {"type": "note_off", "time": 99, "note": 67, "velocity": 107, "channel": 0}, {"type": "note_on", "time": 13, "note": 64, "velocity": 104, "channel": 0}, {"type": "note_off", "time": 54, "note": 64, "velocity": 104, "channel": 0}, {"type": "note_on", "time": 4, "note": 65, "velocity": 106, "channel": 0}, {"type": "note_off", "time": 70, "note": 65, "velocity": 106, "channel": 0}, {"type": "note_on", "time": 10, "note": 67, "velocity": 106, "channel": 0}, {"type": "note_off", "time": 102, "note": 67, "velocity": 106, "channel": 0}, {"type": "note_on", "time": 14, "note": 68, "velocity": 106, "channel": 0}, {"type": "note_off", "time": 127, "note": 68, "velocity": 106, "channel": 0}, {"type": "note_on", "time": 6, "note": 69, "velocity": 106, "channel": 0}, {"type": "note_off", "time": 50, "note": 69, "velocity": 106, "channel": 0}, {"type": "note_on", "time": 7, "note": 71, "velocity": 101, "channel": 0}, {"type": "note_off", "time": 84, "note": 71, "velocity": 101, "channel": 0}, {"type": "note_on", "time": 25, "note": 68, "velocity": 99, "channel": 0}, {"type": "note_off", "time": 41, "note": 68, "velocity": 99, "channel": 0}, {"type": "note_on", "time": 29, "note": 69, "velocity": 107, "channel": 0}, {"type": "note_off", "time": 107, "note": 69, "velocity": 107, "channel": 0}, {"type": "note_on", "time": 8, "note": 68, "velocity": 111, "channel": 0}, {"type": "note_off", "time": 91, "note": 68, "velocity": 111, "channel": 0}, {"type": "note_on", "time": 7, "note": 67, "velocity": 111, "channel": 0}, {"type": "note_off", "time": 77, "note": 67, "velocity": 111, "channel": 0}, {"type": "note_on", "time": 5, "note": 66, "velocity": 109, "channel": 0}, {"type": "note_off", "time": 75, "note": 66, "velocity": 109, "channel": 0}, {"type": "note_on", "time": 6, "note": 65, "velocity": 105, "channel": 0}, {"type": "note_off", "time": 200, "note": 65, "velocity": 105, "channel": 0}, {"type": "note_on", "time": 16, "note": 63, "velocity": 102, "channel": 0}, {"type": "note_off", "time": 65, "note": 63, "velocity": 102, "channel": 0}, {"type": "note_on", "time": 37, "note": 67, "velocity": 111, "channel": 0}, {"type": "note_off", "time": 58, "note": 67, "velocity": 111, "channel": 0}, {"type": "note_on", "time": 17, "note": 62, "velocity": 99, "channel": 0}, {"type": "note_off", "time": 113, "note": 62, "velocity": 99, "channel": 0}, {"type": "note_on", "time": 7, "note": 61, "velocity": 100, "channel": 0}, {"type": "note_off", "time": 65, "note": 61, "velocity": 100, "channel": 0}, {"type": "note_on", "time": 4, "note": 60, "velocity": 96, "channel": 0}, {"type": "note_off", "time": 117, "note": 60, "velocity": 96, "channel": 0}, {"type": "note_on", "time": 57, "note": 59, "velocity": 81, "channel": 0}, {"type": "note_off", "time": 383, "note": 59, "velocity": 81, "channel": 0}, {"type": "note_on", "time": 2151, "note": 65, "velocity": 116, "channel": 0}, {"type": "note_off", "time": 114, "note": 65, "velocity": 116, "channel": 0}, {"type": "note_on", "time": 10, "note": 66, "velocity": 112, "channel": 0}, {"type": "note_off", "time": 69, "note": 66, "velocity": 112, "channel": 0}, {"type": "note_on", "time": 8, "note": 68, "velocity": 118, "channel": 0}, {"type": "note_off", "time": 121, "note": 68, "velocity": 118, "channel": 0}, {"type": "note_on", "time": 18, "note": 70, "velocity": 114, "channel": 0}, {"type": "note_off", "time": 75, "note": 70, "velocity": 114, "channel": 0}, {"type": "note_on", "time": 9, "note": 71, "velocity": 112, "channel": 0}, {"type": "note_off", "time": 76, "note": 71, "velocity": 112, "channel": 0}, {"type": "note_on", "time": 6, "note": 73, "velocity": 116, "channel": 0}, {"type": "note_off", "time": 69, "note": 73, "velocity": 116, "channel": 0}, {"type": "note_on", "time": 12, "note": 75, "velocity": 112, "channel": 0}, {"type": "note_off", "time": 89, "note": 75, "velocity": 112, "channel": 0}, {"type": "note_on", "time": 13, "note": 77, "velocity": 119, "channel": 0}, {"type": "note_off", "time": 95, "note": 77, "velocity": 119, "channel": 0}, {"type": "note_on", "time": 6, "note": 78, "velocity": 117, "channel": 0}, {"type": "note_off", "time": 91, "note": 78, "velocity": 117, "channel": 0}, {"type": "note_on", "time": 45, "note": 80, "velocity": 107, "channel": 0}, {"type": "note_off", "time": 61, "note": 80, "velocity": 107, "channel": 0}, {"type": "note_on", "time": 5, "note": 82, "velocity": 111, "channel": 0}, {"type": "note_off", "time": 134, "note": 82, "velocity": 111, "channel": 0}, {"type": "note_on", "time": 6, "note": 84, "velocity": 107, "channel": 0}, {"type": "note_off", "time": 140, "note": 84, "velocity": 107, "channel": 0}, {"type": "note_on", "time": 2, "note": 82, "velocity": 104, "channel": 0}, {"type": "note_off", "time": 398, "note": 82, "velocity": 104, "channel": 0}, {"type": "note_on", "time": 1485, "note": 75, "velocity": 115, "channel": 0}, {"type": "note_off", "time": 80, "note": 75, "velocity": 115, "channel": 0}, {"type": "note_on", "time": 5, "note": 77, "velocity": 116, "channel": 0}, {"type": "note_off", "time": 95, "note": 77, "velocity": 116, "channel": 0}, {"type": "note_on", "time": 5, "note": 78, "velocity": 114, "channel": 0}, {"type": "note_off", "time": 102, "note": 78, "velocity": 114, "channel": 0}, {"type": "note_on", "time": 6, "note": 80, "velocity": 112, "channel": 0}, {"type": "note_off", "time": 72, "note": 80, "velocity": 112, "channel": 0}, {"type": "note_on", "time": 4, "note": 82, "velocity": 111, "channel": 0}, {"type": "note_off", "time": 86, "note": 82, "velocity": 111, "channel": 0}, {"type": "note_on", "time": 44, "note": 84, "velocity": 111, "channel": 0}, {"type": "note_off", "time": 68, "note": 84, "velocity": 111, "channel": 0}, {"type": "note_on", "time": 13, "note": 85, "velocity": 118, "channel": 0}, {"type": "note_off", "time": 114, "note": 85, "velocity": 118, "channel": 0}, {"type": "note_on", "time": 22, "note": 84, "velocity": 110, "channel": 0}, {"type": "note_off", "time": 49, "note": 84, "velocity": 110, "channel": 0}, {"type": "note_on", "time": 6, "note": 85, "velocity": 114, "channel": 0}, {"type": "note_off", "time": 80, "note": 85, "velocity": 114, "channel": 0}, {"type": "note_on", "time": 44, "note": 84, "velocity": 112, "channel": 0}, {"type": "note_off", "time": 74, "note": 84, "velocity": 112, "channel": 0}, {"type": "note_on", "time": 2, "note": 85, "velocity": 114, "channel": 0}, {"type": "note_off", "time": 99, "note": 85, "velocity": 114, "channel": 0}, {"type": "note_on", "time": 7, "note": 84, "velocity": 110, "channel": 0}, {"type": "note_off", "time": 67, "note": 84, "velocity": 110, "channel": 0}, {"type": "note_on", "time": 5, "note": 85, "velocity": 118, "channel": 0}, {"type": "note_off", "time": 101, "note": 85, "velocity": 118, "channel": 0}, {"type": "note_on", "time": 9, "note": 84, "velocity": 111, "channel": 0}, {"type": "note_off", "time": 86, "note": 84, "velocity": 111, "channel": 0}, {"type": "note_on", "time": 5, "note": 85, "velocity": 115, "channel": 0}, {"type": "note_off", "time": 103, "note": 85, "velocity": 115, "channel": 0}, {"type": "note_on", "time": 7, "note": 84, "velocity": 109, "channel": 0}, {"type": "note_off", "time": 46, "note": 84, "velocity": 109, "channel": 0}, {"type": "note_on", "time": 6, "note": 85, "velocity": 115, "channel": 0}, {"type": "note_off", "time": 122, "note": 85, "velocity": 115, "channel": 0}, {"type": "note_on", "time": 5, "note": 84, "velocity": 108, "channel": 0}, {"type": "note_off", "time": 67, "note": 84, "velocity": 108, "channel": 0}, {"type": "note_on", "time": 5, "note": 85, "velocity": 116, "channel": 0}, {"type": "note_off", "time": 123, "note": 85, "velocity": 116, "channel": 0}, {"type": "note_on", "time": 6, "note": 84, "velocity": 110, "channel": 0}, {"type": "note_off", "time": 49, "note": 84, "velocity": 110, "channel": 0}, {"type": "note_on", "time": 3, "note": 85, "velocity": 116, "channel": 0}, {"type": "note_off", "time": 113, "note": 85, "velocity": 116, "channel": 0}, {"type": "note_on", "time": 4, "note": 84, "velocity": 110, "channel": 0}, {"type": "note_off", "time": 76, "note": 84, "velocity": 110, "channel": 0}, {"type": "note_on", "time": 5, "note": 85, "velocity": 117, "channel": 0}, {"type": "note_off", "time": 110, "note": 85, "velocity": 117, "channel": 0}, {"type": "note_on", "time": 6, "note": 84, "velocity": 114, "channel": 0}, {"type": "note_off", "time": 64, "note": 84, "velocity": 114, "channel": 0}, {"type": "note_on", "time": 7, "note": 85, "velocity": 115, "channel": 0}, {"type": "note_off", "time": 118, "note": 85, "velocity": 115, "channel": 0}, {"type": "note_on", "time": 6, "note": 84, "velocity": 108, "channel": 0}, {"type": "note_off", "time": 45, "note": 84, "velocity": 108, "channel": 0}, {"type": "note_on", "time": 9, "note": 87, "velocity": 114, "channel": 0}, {"type": "note_off", "time": 101, "note": 87, "velocity": 114, "channel": 0}, {"type": "note_on", "time": 30, "note": 85, "velocity": 109, "channel": 0}, {"type": "note_off", "time": 42, "note": 85, "velocity": 109, "channel": 0}, {"type": "note_on", "time": 6, "note": 84, "velocity": 113, "channel": 0}, {"type": "note_off", "time": 31, "note": 84, "velocity": 113, "channel": 0}, {"type": "note_on", "time": 6, "note": 82, "velocity": 105, "channel": 0}, {"type": "note_off", "time": 124, "note": 82, "velocity": 105, "channel": 0}, {"type": "note_on", "time": 22, "note": 79, "velocity": 109, "channel": 0}, {"type": "note_off", "time": 297, "note": 79, "velocity": 109, "channel": 0}, {"type": "note_on", "time": 149, "note": 77, "velocity": 117, "channel": 0}, {"type": "note_off", "time": 154, "note": 77, "velocity": 117, "channel": 0}, {"type": "note_on", "time": 13, "note": 75, "velocity": 112, "channel": 0}, {"type": "note_off", "time": 90, "note": 75, "velocity": 112, "channel": 0}, {"type": "note_on", "time": 3, "note": 78, "velocity": 102, "channel": 0}, {"type": "note_off", "time": 381, "note": 78, "velocity": 102, "channel": 0}, {"type": "note_on", "time": 25, "note": 82, "velocity": 84, "channel": 0}, {"type": "note_off", "time": 115, "note": 82, "velocity": 84, "channel": 0}, {"type": "note_on", "time": 2, "note": 86, "velocity": 96, "channel": 0}, {"type": "note_off", "time": 266, "note": 86, "velocity": 96, "channel": 0}, {"type": "note_on", "time": 6, "note": 85, "velocity": 111, "channel": 0}, {"type": "note_off", "time": 34, "note": 85, "velocity": 111, "channel": 0}, {"type": "note_on", "time": 4, "note": 84, "velocity": 115, "channel": 0}, {"type": "note_off", "time": 51, "note": 84, "velocity": 115, "channel": 0}, {"type": "note_on", "time": 5, "note": 82, "velocity": 115, "channel": 0}, {"type": "note_off", "time": 103, "note": 82, "velocity": 115, "channel": 0}, {"type": "note_on", "time": 25, "note": 78, "velocity": 105, "channel": 0}, {"type": "note_off", "time": 55, "note": 78, "velocity": 105, "channel": 0}, {"type": "note_on", "time": 18, "note": 74, "velocity": 101, "channel": 0}, {"type": "note_off", "time": 90, "note": 74, "velocity": 101, "channel": 0}, {"type": "note_on", "time": 8, "note": 72, "velocity": 90, "channel": 0}, {"type": "note_off", "time": 49, "note": 72, "velocity": 90, "channel": 0}, {"type": "note_on", "time": 32, "note": 70, "velocity": 110, "channel": 0}, {"type": "note_off", "time": 126, "note": 70, "velocity": 110, "channel": 0}, {"type": "note_on", "time": 6, "note": 67, "velocity": 106, "channel": 0}, {"type": "note_off", "time": 41, "note": 67, "velocity": 106, "channel": 0}, {"type": "note_on", "time": 2, "note": 69, "velocity": 108, "channel": 0}, {"type": "note_off", "time": 91, "note": 69, "velocity": 108, "channel": 0}, {"type": "note_on", "time": 12, "note": 65, "velocity": 111, "channel": 0}, {"type": "note_off", "time": 73, "note": 65, "velocity": 111, "channel": 0}, {"type": "note_on", "time": 12, "note": 62, "velocity": 101, "channel": 0}, {"type": "note_off", "time": 94, "note": 62, "velocity": 101, "channel": 0}, {"type": "note_on", "time": 23, "note": 65, "velocity": 111, "channel": 0}, {"type": "note_off", "time": 70, "note": 65, "velocity": 111, "channel": 0}, {"type": "note_on", "time": 6, "note": 64, "velocity": 111, "channel": 0}, {"type": "note_off", "time": 86, "note": 64, "velocity": 111, "channel": 0}, {"type": "note_on", "time": 6, "note": 66, "velocity": 107, "channel": 0}, {"type": "note_off", "time": 70, "note": 66, "velocity": 107, "channel": 0}, {"type": "note_on", "time": 6, "note": 68, "velocity": 115, "channel": 0}, {"type": "note_off", "time": 120, "note": 68, "velocity": 115, "channel": 0}, {"type": "note_on", "time": 6, "note": 71, "velocity": 112, "channel": 0}, {"type": "note_off", "time": 62, "note": 71, "velocity": 112, "channel": 0}, {"type": "note_on", "time": 10, "note": 75, "velocity": 116, "channel": 0}, {"type": "note_off", "time": 108, "note": 75, "velocity": 116, "channel": 0}, {"type": "note_on", "time": 20, "note": 73, "velocity": 112, "channel": 0}, {"type": "note_off", "time": 86, "note": 73, "velocity": 112, "channel": 0}, {"type": "note_on", "time": 19, "note": 72, "velocity": 97, "channel": 0}, {"type": "note_off", "time": 73, "note": 72, "velocity": 97, "channel": 0}, {"type": "note_on", "time": 23, "note": 66, "velocity": 110, "channel": 0}, {"type": "note_off", "time": 67, "note": 66, "velocity": 110, "channel": 0}, {"type": "note_on", "time": 6, "note": 65, "velocity": 108, "channel": 0}, {"type": "note_off", "time": 136, "note": 65, "velocity": 108, "channel": 0}, {"type": "note_on", "time": 8, "note": 63, "velocity": 103, "channel": 0}, {"type": "note_off", "time": 43, "note": 63, "velocity": 103, "channel": 0}, {"type": "note_on", "time": 10, "note": 70, "velocity": 114, "channel": 0}, {"type": "note_off", "time": 104, "note": 70, "velocity": 114, "channel": 0}, {"type": "note_on", "time": 16, "note": 67, "velocity": 109, "channel": 0}, {"type": "note_off", "time": 61, "note": 67, "velocity": 109, "channel": 0}, {"type": "note_on", "time": 9, "note": 68, "velocity": 116, "channel": 0}, {"type": "note_off", "time": 78, "note": 68, "velocity": 116, "channel": 0}, {"type": "note_on", "time": 11, "note": 70, "velocity": 101, "channel": 0}, {"type": "note_off", "time": 21, "note": 70, "velocity": 101, "channel": 0}, {"type": "note_on", "time": 3, "note": 68, "velocity": 117, "channel": 0}, {"type": "note_off", "time": 75, "note": 68, "velocity": 117, "channel": 0}, {"type": "note_on", "time": 14, "note": 67, "velocity": 110, "channel": 0}, {"type": "note_off", "time": 90, "note": 67, "velocity": 110, "channel": 0}, {"type": "note_on", "time": 18, "note": 66, "velocity": 106, "channel": 0}, {"type": "note_off", "time": 80, "note": 66, "velocity": 106, "channel": 0}, {"type": "note_on", "time": 7, "note": 65, "velocity": 111, "channel": 0}, {"type": "note_off", "time": 80, "note": 65, "velocity": 111, "channel": 0}, {"type": "note_on", "time": 12, "note": 64, "velocity": 106, "channel": 0}, {"type": "note_off", "time": 63, "note": 64, "velocity": 106, "channel": 0}, {"type": "note_on", "time": 12, "note": 63, "velocity": 105, "channel": 0}, {"type": "note_off", "time": 87, "note": 63, "velocity": 105, "channel": 0}, {"type": "note_on", "time": 20, "note": 66, "velocity": 104, "channel": 0}, {"type": "note_off", "time": 58, "note": 66, "velocity": 104, "channel": 0}, {"type": "note_on", "time": 21, "note": 62, "velocity": 102, "channel": 0}, {"type": "note_off", "time": 79, "note": 62, "velocity": 102, "channel": 0}, {"type": "note_on", "time": 30, "note": 65, "velocity": 114, "channel": 0}, {"type": "note_off", "time": 59, "note": 65, "velocity": 114, "channel": 0}, {"type": "note_on", "time": 50, "note": 62, "velocity": 107, "channel": 0}, {"type": "note_off", "time": 53, "note": 62, "velocity": 107, "channel": 0}, {"type": "note_on", "time": 6, "note": 63, "velocity": 108, "channel": 0}, {"type": "note_off", "time": 65, "note": 63, "velocity": 108, "channel": 0}, {"type": "note_on", "time": 3, "note": 57, "velocity": 103, "channel": 0}, {"type": "note_off", "time": 185, "note": 57, "velocity": 103, "channel": 0}, {"type": "note_on", "time": 5, "note": 58, "velocity": 113, "channel": 0}, {"type": "note_off", "time": 174, "note": 58, "velocity": 113, "channel": 0}, {"type": "note_on", "time": 11, "note": 60, "velocity": 99, "channel": 0}, {"type": "note_off", "time": 166, "note": 60, "velocity": 99, "channel": 0}, {"type": "note_on", "time": 13, "note": 62, "velocity": 111, "channel": 0}, {"type": "note_off", "time": 195, "note": 62, "velocity": 111, "channel": 0}, {"type": "note_on", "time": 5, "note": 63, "velocity": 116, "channel": 0}, {"type": "note_off", "time": 169, "note": 63, "velocity": 116, "channel": 0}, {"type": "note_on", "time": 6, "note": 65, "velocity": 114, "channel": 0}, {"type": "note_off", "time": 184, "note": 65, "velocity": 114, "channel": 0}, {"type": "note_on", "time": 5, "note": 66, "velocity": 112, "channel": 0}, {"type": "note_off", "time": 172, "note": 66, "velocity": 112, "channel": 0}, {"type": "note_on", "time": 7, "note": 68, "velocity": 102, "channel": 0}, {"type": "note_off", "time": 82, "note": 68, "velocity": 102, "channel": 0}, {"type": "note_on", "time": 1123, "note": 68, "velocity": 104, "channel": 0}, {"type": "note_off", "time": 97, "note": 68, "velocity": 104, "channel": 0}, {"type": "note_on", "time": 14, "note": 73, "velocity": 109, "channel": 0}, {"type": "note_off", "time": 28, "note": 73, "velocity": 109, "channel": 0}, {"type": "note_on", "time": 0, "note": 74, "velocity": 109, "channel": 0}, {"type": "note_off", "time": 38, "note": 74, "velocity": 109, "channel": 0}, {"type": "note_on", "time": 12, "note": 76, "velocity": 107, "channel": 0}, {"type": "note_off", "time": 105, "note": 76, "velocity": 107, "channel": 0}, {"type": "note_on", "time": 11, "note": 77, "velocity": 118, "channel": 0}, {"type": "note_off", "time": 60, "note": 77, "velocity": 118, "channel": 0}, {"type": "note_on", "time": 12, "note": 78, "velocity": 112, "channel": 0}, {"type": "note_off", "time": 35, "note": 78, "velocity": 112, "channel": 0}, {"type": "note_on", "time": 16, "note": 79, "velocity": 104, "channel": 0}, {"type": "note_off", "time": 78, "note": 79, "velocity": 104, "channel": 0}, {"type": "note_on", "time": 756, "note": 58, "velocity": 114, "channel": 0}, {"type": "note_off", "time": 75, "note": 58, "velocity": 114, "channel": 0}, {"type": "note_on", "time": 15, "note": 63, "velocity": 120, "channel": 0}, {"type": "note_off", "time": 81, "note": 63, "velocity": 120, "channel": 0}, {"type": "note_on", "time": 30, "note": 67, "velocity": 116, "channel": 0}, {"type": "note_off", "time": 54, "note": 67, "velocity": 116, "channel": 0}, {"type": "note_on", "time": 9, "note": 64, "velocity": 110, "channel": 0}, {"type": "note_off", "time": 93, "note": 64, "velocity": 110, "channel": 0}, {"type": "note_on", "time": 19, "note": 66, "velocity": 114, "channel": 0}, {"type": "note_off", "time": 59, "note": 66, "velocity": 114, "channel": 0}, {"type": "note_on", "time": 15, "note": 68, "velocity": 117, "channel": 0}, {"type": "note_off", "time": 100, "note": 68, "velocity": 117, "channel": 0}, {"type": "note_on", "time": 29, "note": 70, "velocity": 101, "channel": 0}, {"type": "note_off", "time": 39, "note": 70, "velocity": 101, "channel": 0}, {"type": "note_on", "time": 17, "note": 73, "velocity": 118, "channel": 0}, {"type": "note_off", "time": 89, "note": 73, "velocity": 118, "channel": 0}, {"type": "note_on", "time": 31, "note": 70, "velocity": 117, "channel": 0}, {"type": "note_off", "time": 98, "note": 70, "velocity": 117, "channel": 0}, {"type": "note_on", "time": 0, "note": 66, "velocity": 113, "channel": 0}, {"type": "note_off", "time": 97, "note": 66, "velocity": 113, "channel": 0}, {"type": "note_on", "time": 36, "note": 61, "velocity": 102, "channel": 0}, {"type": "note_off", "time": 44, "note": 61, "velocity": 102, "channel": 0}, {"type": "note_on", "time": 5, "note": 63, "velocity": 108, "channel": 0}, {"type": "note_off", "time": 100, "note": 63, "velocity": 108, "channel": 0}, {"type": "note_on", "time": 664, "note": 60, "velocity": 108, "channel": 0}, {"type": "note_off", "time": 76, "note": 60, "velocity": 108, "channel": 0}, {"type": "note_on", "time": 17, "note": 63, "velocity": 109, "channel": 0}, {"type": "note_off", "time": 69, "note": 63, "velocity": 109, "channel": 0}, {"type": "note_on", "time": 7, "note": 66, "velocity": 112, "channel": 0}, {"type": "note_off", "time": 113, "note": 66, "velocity": 112, "channel": 0}, {"type": "note_on", "time": 18, "note": 63, "velocity": 108, "channel": 0}, {"type": "note_off", "time": 77, "note": 63, "velocity": 108, "channel": 0}, {"type": "note_on", "time": 18, "note": 67, "velocity": 115, "channel": 0}, {"type": "note_off", "time": 105, "note": 67, "velocity": 115, "channel": 0}, {"type": "note_on", "time": 11, "note": 66, "velocity": 114, "channel": 0}, {"type": "note_off", "time": 83, "note": 66, "velocity": 114, "channel": 0}, {"type": "note_on", "time": 9, "note": 65, "velocity": 115, "channel": 0}, {"type": "note_off", "time": 99, "note": 65, "velocity": 115, "channel": 0}, {"type": "note_on", "time": 10, "note": 64, "velocity": 107, "channel": 0}, {"type": "note_off", "time": 66, "note": 64, "velocity": 107, "channel": 0}, {"type": "note_on", "time": 3, "note": 63, "velocity": 114, "channel": 0}, {"type": "note_off", "time": 100, "note": 63, "velocity": 114, "channel": 0}, {"type": "note_on", "time": 5, "note": 65, "velocity": 116, "channel": 0}, {"type": "note_off", "time": 106, "note": 65, "velocity": 116, "channel": 0}, {"type": "note_on", "time": 10, "note": 67, "velocity": 114, "channel": 0}, {"type": "note_off", "time": 91, "note": 67, "velocity": 114, "channel": 0}, {"type": "note_on", "time": 29, "note": 70, "velocity": 105, "channel": 0}, {"type": "note_off", "time": 41, "note": 70, "velocity": 105, "channel": 0}, {"type": "note_on", "time": 27, "note": 75, "velocity": 111, "channel": 0}, {"type": "note_off", "time": 101, "note": 75, "velocity": 111, "channel": 0}, {"type": "note_on", "time": 5, "note": 77, "velocity": 116, "channel": 0}, {"type": "note_off", "time": 82, "note": 77, "velocity": 116, "channel": 0}, {"type": "note_on", "time": 4, "note": 79, "velocity": 114, "channel": 0}, {"type": "note_off", "time": 118, "note": 79, "velocity": 114, "channel": 0}, {"type": "note_on", "time": 10, "note": 75, "velocity": 105, "channel": 0}, {"type": "note_off", "time": 55, "note": 75, "velocity": 105, "channel": 0}, {"type": "note_on", "time": 3, "note": 77, "velocity": 115, "channel": 0}, {"type": "note_off", "time": 117, "note": 77, "velocity": 115, "channel": 0}, {"type": "note_on", "time": 10, "note": 73, "velocity": 110, "channel": 0}, {"type": "note_off", "time": 51, "note": 73, "velocity": 110, "channel": 0}, {"type": "note_on", "time": 31, "note": 70, "velocity": 107, "channel": 0}, {"type": "note_off", "time": 118, "note": 70, "velocity": 107, "channel": 0}, {"type": "note_on", "time": 77, "note": 72, "velocity": 101, "channel": 0}, {"type": "note_off", "time": 70, "note": 72, "velocity": 101, "channel": 0}, {"type": "note_on", "time": 21, "note": 70, "velocity": 102, "channel": 0}, {"type": "note_off", "time": 59, "note": 70, "velocity": 102, "channel": 0}, {"type": "note_on", "time": 5, "note": 72, "velocity": 101, "channel": 0}, {"type": "note_off", "time": 130, "note": 72, "velocity": 101, "channel": 0}, {"type": "note_on", "time": 5, "note": 77, "velocity": 123, "channel": 0}, {"type": "note_off", "time": 86, "note": 77, "velocity": 123, "channel": 0}, {"type": "note_on", "time": 6, "note": 79, "velocity": 113, "channel": 0}, {"type": "note_off", "time": 101, "note": 79, "velocity": 113, "channel": 0}, {"type": "note_on", "time": 7, "note": 77, "velocity": 123, "channel": 0}, {"type": "note_off", "time": 53, "note": 77, "velocity": 123, "channel": 0}, {"type": "note_on", "time": 15, "note": 75, "velocity": 113, "channel": 0}, {"type": "note_off", "time": 75, "note": 75, "velocity": 113, "channel": 0}, {"type": "note_on", "time": 121, "note": 73, "velocity": 113, "channel": 0}, {"type": "note_off", "time": 91, "note": 73, "velocity": 113, "channel": 0}, {"type": "note_on", "time": 11, "note": 75, "velocity": 112, "channel": 0}, {"type": "note_off", "time": 46, "note": 75, "velocity": 112, "channel": 0}, {"type": "note_on", "time": 8, "note": 77, "velocity": 117, "channel": 0}, {"type": "note_off", "time": 25, "note": 77, "velocity": 117, "channel": 0}, {"type": "note_on", "time": 6, "note": 78, "velocity": 115, "channel": 0}, {"type": "note_off", "time": 139, "note": 78, "velocity": 115, "channel": 0}, {"type": "note_on", "time": 14, "note": 76, "velocity": 114, "channel": 0}, {"type": "note_off", "time": 204, "note": 76, "velocity": 114, "channel": 0}, {"type": "note_on", "time": 26, "note": 74, "velocity": 106, "channel": 0}, {"type": "note_off", "time": 99, "note": 74, "velocity": 106, "channel": 0}, {"type": "note_on", "time": 54, "note": 78, "velocity": 113, "channel": 0}, {"type": "note_off", "time": 50, "note": 78, "velocity": 113, "channel": 0}, {"type": "note_on", "time": 5, "note": 81, "velocity": 112, "channel": 0}, {"type": "note_off", "time": 172, "note": 81, "velocity": 112, "channel": 0}, {"type": "note_on", "time": 5, "note": 79, "velocity": 111, "channel": 0}, {"type": "note_off", "time": 103, "note": 79, "velocity": 111, "channel": 0}, {"type": "note_on", "time": 11, "note": 77, "velocity": 119, "channel": 0}, {"type": "note_off", "time": 98, "note": 77, "velocity": 119, "channel": 0}, {"type": "note_on", "time": 10, "note": 76, "velocity": 112, "channel": 0}, {"type": "note_off", "time": 95, "note": 76, "velocity": 112, "channel": 0}, {"type": "note_on", "time": 5, "note": 77, "velocity": 120, "channel": 0}, {"type": "note_off", "time": 69, "note": 77, "velocity": 120, "channel": 0}, {"type": "note_on", "time": 7, "note": 79, "velocity": 115, "channel": 0}, {"type": "note_off", "time": 92, "note": 79, "velocity": 115, "channel": 0}, {"type": "note_on", "time": 8, "note": 81, "velocity": 118, "channel": 0}, {"type": "note_off", "time": 77, "note": 81, "velocity": 118, "channel": 0}, {"type": "note_on", "time": 6, "note": 82, "velocity": 111, "channel": 0}, {"type": "note_off", "time": 179, "note": 82, "velocity": 111, "channel": 0}, {"type": "note_on", "time": 6, "note": 81, "velocity": 114, "channel": 0}, {"type": "note_off", "time": 97, "note": 81, "velocity": 114, "channel": 0}, {"type": "note_on", "time": 10, "note": 80, "velocity": 113, "channel": 0}, {"type": "note_off", "time": 95, "note": 80, "velocity": 113, "channel": 0}, {"type": "note_on", "time": 13, "note": 78, "velocity": 111, "channel": 0}, {"type": "note_off", "time": 64, "note": 78, "velocity": 111, "channel": 0}, {"type": "note_on", "time": 23, "note": 78, "velocity": 107, "channel": 0}, {"type": "note_off", "time": 21, "note": 78, "velocity": 107, "channel": 0}, {"type": "note_on", "time": 5, "note": 80, "velocity": 118, "channel": 0}, {"type": "note_off", "time": 76, "note": 80, "velocity": 118, "channel": 0}, {"type": "note_on", "time": 1, "note": 81, "velocity": 115, "channel": 0}, {"type": "note_off", "time": 87, "note": 81, "velocity": 115, "channel": 0}, {"type": "note_on", "time": 7, "note": 82, "velocity": 111, "channel": 0}, {"type": "note_off", "time": 77, "note": 82, "velocity": 111, "channel": 0}, {"type": "note_on", "time": 10, "note": 83, "velocity": 105, "channel": 0}, {"type": "note_off", "time": 166, "note": 83, "velocity": 105, "channel": 0}, {"type": "note_on", "time": 9, "note": 82, "velocity": 111, "channel": 0}, {"type": "note_off", "time": 93, "note": 82, "velocity": 111, "channel": 0}, {"type": "note_on", "time": 6, "note": 81, "velocity": 117, "channel": 0}, {"type": "note_off", "time": 93, "note": 81, "velocity": 117, "channel": 0}, {"type": "note_on", "time": 4, "note": 80, "velocity": 115, "channel": 0}, {"type": "note_off", "time": 87, "note": 80, "velocity": 115, "channel": 0}, {"type": "note_on", "time": 5, "note": 79, "velocity": 115, "channel": 0}, {"type": "note_off", "time": 102, "note": 79, "velocity": 115, "channel": 0}, {"type": "note_on", "time": 9, "note": 81, "velocity": 110, "channel": 0}, {"type": "note_off", "time": 91, "note": 81, "velocity": 110, "channel": 0}, {"type": "note_on", "time": 6, "note": 83, "velocity": 107, "channel": 0}, {"type": "note_off", "time": 25, "note": 83, "velocity": 107, "channel": 0}, {"type": "note_on", "time": 2, "note": 84, "velocity": 104, "channel": 0}, {"type": "note_off", "time": 185, "note": 84, "velocity": 104, "channel": 0}, {"type": "note_on", "time": 9, "note": 83, "velocity": 109, "channel": 0}, {"type": "note_off", "time": 107, "note": 83, "velocity": 109, "channel": 0}, {"type": "note_on", "time": 7, "note": 82, "velocity": 113, "channel": 0}, {"type": "note_off", "time": 76, "note": 82, "velocity": 113, "channel": 0}, {"type": "note_on", "time": 5, "note": 81, "velocity": 115, "channel": 0}, {"type": "note_off", "time": 113, "note": 81, "velocity": 115, "channel": 0}, {"type": "note_on", "time": 1, "note": 83, "velocity": 107, "channel": 0}, {"type": "note_off", "time": 100, "note": 83, "velocity": 107, "channel": 0}, {"type": "note_on", "time": 5, "note": 84, "velocity": 104, "channel": 0}, {"type": "note_off", "time": 117, "note": 84, "velocity": 104, "channel": 0}, {"type": "note_on", "time": 30, "note": 84, "velocity": 102, "channel": 0}, {"type": "note_off", "time": 111, "note": 84, "velocity": 102, "channel": 0}, {"type": "note_on", "time": 8, "note": 85, "velocity": 113, "channel": 0}, {"type": "note_off", "time": 101, "note": 85, "velocity": 113, "channel": 0}, {"type": "note_on", "time": 4, "note": 84, "velocity": 103, "channel": 0}, {"type": "note_off", "time": 86, "note": 84, "velocity": 103, "channel": 0}, {"type": "note_on", "time": 26, "note": 83, "velocity": 107, "channel": 0}, {"type": "note_off", "time": 69, "note": 83, "velocity": 107, "channel": 0}, {"type": "note_on", "time": 3, "note": 82, "velocity": 114, "channel": 0}, {"type": "note_off", "time": 176, "note": 82, "velocity": 114, "channel": 0}, {"type": "note_on", "time": 0, "note": 84, "velocity": 106, "channel": 0}, {"type": "note_off", "time": 50, "note": 84, "velocity": 106, "channel": 0}, {"type": "note_on", "time": 516, "note": 70, "velocity": 107, "channel": 0}, {"type": "note_off", "time": 134, "note": 70, "velocity": 107, "channel": 0}, {"type": "note_on", "time": 9, "note": 83, "velocity": 117, "channel": 0}, {"type": "note_off", "time": 52, "note": 83, "velocity": 117, "channel": 0}, {"type": "note_on", "time": 11, "note": 84, "velocity": 97, "channel": 0}, {"type": "note_off", "time": 199, "note": 84, "velocity": 97, "channel": 0}, {"type": "note_on", "time": 28, "note": 85, "velocity": 112, "channel": 0}, {"type": "note_off", "time": 1584, "note": 85, "velocity": 112, "channel": 0}, {"type": "note_on", "time": 35, "note": 84, "velocity": 108, "channel": 0}, {"type": "note_off", "time": 50, "note": 84, "velocity": 108, "channel": 0}, {"type": "note_on", "time": 13, "note": 82, "velocity": 108, "channel": 0}, {"type": "note_off", "time": 105, "note": 82, "velocity": 108, "channel": 0}, {"type": "note_on", "time": 32, "note": 79, "velocity": 115, "channel": 0}, {"type": "note_off", "time": 53, "note": 79, "velocity": 115, "channel": 0}, {"type": "note_on", "time": 10, "note": 77, "velocity": 118, "channel": 0}, {"type": "note_off", "time": 45, "note": 77, "velocity": 118, "channel": 0}, {"type": "note_on", "time": 6, "note": 76, "velocity": 117, "channel": 0}, {"type": "note_off", "time": 32, "note": 76, "velocity": 117, "channel": 0}, {"type": "note_on", "time": 5, "note": 77, "velocity": 120, "channel": 0}, {"type": "note_off", "time": 32, "note": 77, "velocity": 120, "channel": 0}, {"type": "note_on", "time": 4, "note": 75, "velocity": 116, "channel": 0}, {"type": "note_off", "time": 39, "note": 75, "velocity": 116, "channel": 0}, {"type": "note_on", "time": 7, "note": 74, "velocity": 111, "channel": 0}, {"type": "note_off", "time": 43, "note": 74, "velocity": 111, "channel": 0}, {"type": "note_on", "time": 6, "note": 73, "velocity": 115, "channel": 0}, {"type": "note_off", "time": 48, "note": 73, "velocity": 115, "channel": 0}, {"type": "note_on", "time": 2, "note": 70, "velocity": 112, "channel": 0}, {"type": "note_off", "time": 29, "note": 70, "velocity": 112, "channel": 0}, {"type": "note_on", "time": 4, "note": 69, "velocity": 117, "channel": 0}, {"type": "note_off", "time": 33, "note": 69, "velocity": 117, "channel": 0}, {"type": "note_on", "time": 11, "note": 68, "velocity": 114, "channel": 0}, {"type": "note_off", "time": 62, "note": 68, "velocity": 114, "channel": 0}, {"type": "note_on", "time": 7, "note": 66, "velocity": 116, "channel": 0}, {"type": "note_off", "time": 82, "note": 66, "velocity": 116, "channel": 0}, {"type": "note_on", "time": 6, "note": 64, "velocity": 107, "channel": 0}, {"type": "note_off", "time": 39, "note": 64, "velocity": 107, "channel": 0}, {"type": "note_on", "time": 7, "note": 62, "velocity": 106, "channel": 0}, {"type": "note_off", "time": 49, "note": 62, "velocity": 106, "channel": 0}, {"type": "note_on", "time": 11, "note": 61, "velocity": 116, "channel": 0}, {"type": "note_off", "time": 37, "note": 61, "velocity": 116, "channel": 0}, {"type": "note_on", "time": 7, "note": 60, "velocity": 107, "channel": 0}, {"type": "note_off", "time": 47, "note": 60, "velocity": 107, "channel": 0}, {"type": "note_on", "time": 9, "note": 59, "velocity": 103, "channel": 0}, {"type": "note_off", "time": 48, "note": 59, "velocity": 103, "channel": 0}, {"type": "note_on", "time": 11, "note": 58, "velocity": 106, "channel": 0}, {"type": "note_off", "time": 102, "note": 58, "velocity": 106, "channel": 0}, {"type": "note_on", "time": 3557, "note": 57, "velocity": 108, "channel": 0}, {"type": "note_off", "time": 126, "note": 57, "velocity": 108, "channel": 0}, {"type": "note_on", "time": 16, "note": 58, "velocity": 108, "channel": 0}, {"type": "note_off", "time": 99, "note": 58, "velocity": 108, "channel": 0}, {"type": "note_on", "time": 342, "note": 58, "velocity": 113, "channel": 0}, {"type": "note_off", "time": 114, "note": 58, "velocity": 113, "channel": 0}, {"type": "note_on", "time": 16, "note": 63, "velocity": 99, "channel": 0}, {"type": "note_off", "time": 439, "note": 63, "velocity": 99, "channel": 0}, {"type": "note_on", "time": 175, "note": 62, "velocity": 106, "channel": 0}, {"type": "note_off", "time": 165, "note": 62, "velocity": 106, "channel": 0}, {"type": "note_on", "time": 19, "note": 69, "velocity": 115, "channel": 0}, {"type": "note_off", "time": 110, "note": 69, "velocity": 115, "channel": 0}, {"type": "note_on", "time": 23, "note": 62, "velocity": 106, "channel": 0}, {"type": "note_off", "time": 57, "note": 62, "velocity": 106, "channel": 0}, {"type": "note_on", "time": 14, "note": 65, "velocity": 119, "channel": 0}, {"type": "note_off", "time": 97, "note": 65, "velocity": 119, "channel": 0}, {"type": "note_on", "time": 22, "note": 69, "velocity": 116, "channel": 0}, {"type": "note_off", "time": 70, "note": 69, "velocity": 116, "channel": 0}, {"type": "note_on", "time": 11, "note": 68, "velocity": 114, "channel": 0}, {"type": "note_off", "time": 131, "note": 68, "velocity": 114, "channel": 0}, {"type": "note_on", "time": 234, "note": 75, "velocity": 119, "channel": 0}, {"type": "note_off", "time": 97, "note": 75, "velocity": 119, "channel": 0}, {"type": "note_on", "time": 8, "note": 73, "velocity": 104, "channel": 0}, {"type": "note_off", "time": 55, "note": 73, "velocity": 104, "channel": 0}, {"type": "note_on", "time": 24, "note": 69, "velocity": 112, "channel": 0}, {"type": "note_off", "time": 114, "note": 69, "velocity": 112, "channel": 0}, {"type": "note_on", "time": 9, "note": 65, "velocity": 116, "channel": 0}, {"type": "note_off", "time": 36, "note": 65, "velocity": 116, "channel": 0}, {"type": "note_on", "time": 11, "note": 70, "velocity": 116, "channel": 0}, {"type": "note_off", "time": 90, "note": 70, "velocity": 116, "channel": 0}, {"type": "note_on", "time": 17, "note": 65, "velocity": 117, "channel": 0}, {"type": "note_off", "time": 62, "note": 65, "velocity": 117, "channel": 0}, {"type": "note_on", "time": 11, "note": 60, "velocity": 104, "channel": 0}, {"type": "note_off", "time": 109, "note": 60, "velocity": 104, "channel": 0}, {"type": "note_on", "time": 5, "note": 58, "velocity": 104, "channel": 0}, {"type": "note_off", "time": 288, "note": 58, "velocity": 104, "channel": 0}, {"type": "note_on", "time": 143, "note": 68, "velocity": 114, "channel": 0}, {"type": "note_off", "time": 89, "note": 68, "velocity": 114, "channel": 0}, {"type": "note_on", "time": 9, "note": 66, "velocity": 116, "channel": 0}, {"type": "note_off", "time": 63, "note": 66, "velocity": 116, "channel": 0}, {"type": "note_on", "time": 18, "note": 62, "velocity": 105, "channel": 0}, {"type": "note_off", "time": 113, "note": 62, "velocity": 105, "channel": 0}, {"type": "note_on", "time": 49, "note": 57, "velocity": 102, "channel": 0}, {"type": "note_off", "time": 269, "note": 57, "velocity": 102, "channel": 0}, {"type": "note_on", "time": 195, "note": 63, "velocity": 109, "channel": 0}, {"type": "note_off", "time": 149, "note": 63, "velocity": 109, "channel": 0}, {"type": "note_on", "time": 17, "note": 61, "velocity": 109, "channel": 0}, {"type": "note_off", "time": 134, "note": 61, "velocity": 109, "channel": 0}, {"type": "note_on", "time": 10, "note": 62, "velocity": 103, "channel": 0}, {"type": "note_off", "time": 277, "note": 62, "velocity": 103, "channel": 0}, {"type": "note_on", "time": 555, "note": 62, "velocity": 108, "channel": 0}, {"type": "note_off", "time": 76, "note": 62, "velocity": 108, "channel": 0}, {"type": "note_on", "time": 7, "note": 63, "velocity": 113, "channel": 0}, {"type": "note_off", "time": 73, "note": 63, "velocity": 113, "channel": 0}, {"type": "note_on", "time": 5, "note": 65, "velocity": 121, "channel": 0}, {"type": "note_off", "time": 125, "note": 65, "velocity": 121, "channel": 0}, {"type": "note_on", "time": 5, "note": 66, "velocity": 114, "channel": 0}, {"type": "note_off", "time": 233, "note": 66, "velocity": 114, "channel": 0}, {"type": "note_on", "time": 13, "note": 68, "velocity": 116, "channel": 0}, {"type": "note_off", "time": 114, "note": 68, "velocity": 116, "channel": 0}, {"type": "note_on", "time": 1, "note": 70, "velocity": 114, "channel": 0}, {"type": "note_off", "time": 95, "note": 70, "velocity": 114, "channel": 0}, {"type": "note_on", "time": 7, "note": 71, "velocity": 113, "channel": 0}, {"type": "note_off", "time": 173, "note": 71, "velocity": 113, "channel": 0}, {"type": "note_on", "time": 10, "note": 73, "velocity": 111, "channel": 0}, {"type": "note_off", "time": 86, "note": 73, "velocity": 111, "channel": 0}, {"type": "note_on", "time": 5, "note": 75, "velocity": 111, "channel": 0}, {"type": "note_off", "time": 85, "note": 75, "velocity": 111, "channel": 0}, {"type": "note_on", "time": 10, "note": 77, "velocity": 120, "channel": 0}, {"type": "note_off", "time": 172, "note": 77, "velocity": 120, "channel": 0}, {"type": "note_on", "time": 5, "note": 78, "velocity": 117, "channel": 0}, {"type": "note_off", "time": 109, "note": 78, "velocity": 117, "channel": 0}, {"type": "note_on", "time": 3, "note": 80, "velocity": 117, "channel": 0}, {"type": "note_off", "time": 117, "note": 80, "velocity": 117, "channel": 0}, {"type": "note_on", "time": 20, "note": 82, "velocity": 114, "channel": 0}, {"type": "note_off", "time": 137, "note": 82, "velocity": 114, "channel": 0}, {"type": "note_on", "time": 26, "note": 80, "velocity": 117, "channel": 0}, {"type": "note_off", "time": 109, "note": 80, "velocity": 117, "channel": 0}, {"type": "note_on", "time": 6, "note": 79, "velocity": 110, "channel": 0}, {"type": "note_off", "time": 262, "note": 79, "velocity": 110, "channel": 0}, {"type": "note_on", "time": 31, "note": 74, "velocity": 109, "channel": 0}, {"type": "note_off", "time": 92, "note": 74, "velocity": 109, "channel": 0}, {"type": "note_on", "time": 10, "note": 72, "velocity": 103, "channel": 0}, {"type": "note_off", "time": 74, "note": 72, "velocity": 103, "channel": 0}, {"type": "note_on", "time": 14, "note": 70, "velocity": 102, "channel": 0}, {"type": "note_off", "time": 326, "note": 70, "velocity": 102, "channel": 0}, {"type": "note_on", "time": 1288, "note": 70, "velocity": 117, "channel": 0}, {"type": "note_off", "time": 84, "note": 70, "velocity": 117, "channel": 0}, {"type": "note_on", "time": 7, "note": 71, "velocity": 115, "channel": 0}, {"type": "note_off", "time": 87, "note": 71, "velocity": 115, "channel": 0}, {"type": "note_on", "time": 9, "note": 73, "velocity": 113, "channel": 0}, {"type": "note_off", "time": 101, "note": 73, "velocity": 113, "channel": 0}, {"type": "note_on", "time": 4, "note": 75, "velocity": 111, "channel": 0}, {"type": "note_off", "time": 121, "note": 75, "velocity": 111, "channel": 0}, {"type": "note_on", "time": 22, "note": 77, "velocity": 122, "channel": 0}, {"type": "note_off", "time": 129, "note": 77, "velocity": 122, "channel": 0}, {"type": "note_on", "time": 18, "note": 75, "velocity": 111, "channel": 0}, {"type": "note_off", "time": 116, "note": 75, "velocity": 111, "channel": 0}, {"type": "note_on", "time": 31, "note": 73, "velocity": 113, "channel": 0}, {"type": "note_off", "time": 87, "note": 73, "velocity": 113, "channel": 0}, {"type": "note_on", "time": 5, "note": 71, "velocity": 104, "channel": 0}, {"type": "note_off", "time": 163, "note": 71, "velocity": 104, "channel": 0}, {"type": "note_on", "time": 9, "note": 70, "velocity": 109, "channel": 0}, {"type": "note_off", "time": 388, "note": 70, "velocity": 109, "channel": 0}, {"type": "note_on", "time": 1027, "note": 67, "velocity": 108, "channel": 0}, {"type": "note_off", "time": 98, "note": 67, "velocity": 108, "channel": 0}, {"type": "note_on", "time": 290, "note": 79, "velocity": 116, "channel": 0}, {"type": "note_off", "time": 109, "note": 79, "velocity": 116, "channel": 0}, {"type": "note_on", "time": 415, "note": 75, "velocity": 109, "channel": 0}, {"type": "note_off", "time": 92, "note": 75, "velocity": 109, "channel": 0}, {"type": "note_on", "time": 317, "note": 78, "velocity": 110, "channel": 0}, {"type": "note_off", "time": 95, "note": 78, "velocity": 110, "channel": 0}, {"type": "note_on", "time": 514, "note": 77, "velocity": 109, "channel": 0}, {"type": "note_off", "time": 93, "note": 77, "velocity": 109, "channel": 0}, {"type": "note_on", "time": 13, "note": 74, "velocity": 108, "channel": 0}, {"type": "note_off", "time": 67, "note": 74, "velocity": 108, "channel": 0}, {"type": "note_on", "time": 14, "note": 69, "velocity": 107, "channel": 0}, {"type": "note_off", "time": 79, "note": 69, "velocity": 107, "channel": 0}, {"type": "note_on", "time": 53, "note": 65, "velocity": 96, "channel": 0}, {"type": "note_off", "time": 32, "note": 65, "velocity": 96, "channel": 0}, {"type": "note_on", "time": 10, "note": 67, "velocity": 112, "channel": 0}, {"type": "note_off", "time": 101, "note": 67, "velocity": 112, "channel": 0}, {"type": "note_on", "time": 31, "note": 61, "velocity": 99, "channel": 0}, {"type": "note_off", "time": 45, "note": 61, "velocity": 99, "channel": 0}, {"type": "note_on", "time": 14, "note": 64, "velocity": 110, "channel": 0}, {"type": "note_off", "time": 118, "note": 64, "velocity": 110, "channel": 0}, {"type": "note_on", "time": 0, "note": 71, "velocity": 89, "channel": 0}, {"type": "note_off", "time": 202, "note": 71, "velocity": 89, "channel": 0}, {"type": "note_on", "time": 221, "note": 70, "velocity": 105, "channel": 0}, {"type": "note_off", "time": 115, "note": 70, "velocity": 105, "channel": 0}, {"type": "note_on", "time": 79, "note": 70, "velocity": 114, "channel": 0}, {"type": "note_off", "time": 133, "note": 70, "velocity": 114, "channel": 0}, {"type": "note_on", "time": 83, "note": 70, "velocity": 114, "channel": 0}, {"type": "note_off", "time": 99, "note": 70, "velocity": 114, "channel": 0}, {"type": "note_on", "time": 106, "note": 70, "velocity": 119, "channel": 0}, {"type": "note_off", "time": 109, "note": 70, "velocity": 119, "channel": 0}, {"type": "note_on", "time": 94, "note": 70, "velocity": 117, "channel": 0}, {"type": "note_off", "time": 126, "note": 70, "velocity": 117, "channel": 0}, {"type": "note_on", "time": 55, "note": 70, "velocity": 110, "channel": 0}, {"type": "note_off", "time": 122, "note": 70, "velocity": 110, "channel": 0}, {"type": "note_on", "time": 85, "note": 70, "velocity": 106, "channel": 0}, {"type": "note_off", "time": 132, "note": 70, "velocity": 106, "channel": 0}, {"type": "note_on", "time": 5, "note": 71, "velocity": 101, "channel": 0}, {"type": "note_off", "time": 59, "note": 71, "velocity": 101, "channel": 0}, {"type": "note_on", "time": 9, "note": 73, "velocity": 108, "channel": 0}, {"type": "note_off", "time": 98, "note": 73, "velocity": 108, "channel": 0}, {"type": "note_on", "time": 43, "note": 69, "velocity": 95, "channel": 0}, {"type": "note_off", "time": 275, "note": 69, "velocity": 95, "channel": 0}, {"type": "note_on", "time": 1423, "note": 61, "velocity": 108, "channel": 0}, {"type": "note_off", "time": 49, "note": 61, "velocity": 108, "channel": 0}, {"type": "note_on", "time": 10, "note": 63, "velocity": 107, "channel": 0}, {"type": "note_off", "time": 106, "note": 63, "velocity": 107, "channel": 0}, {"type": "note_on", "time": 19, "note": 66, "velocity": 111, "channel": 0}, {"type": "note_off", "time": 68, "note": 66, "velocity": 111, "channel": 0}, {"type": "note_on", "time": 11, "note": 64, "velocity": 111, "channel": 0}, {"type": "note_off", "time": 110, "note": 64, "velocity": 111, "channel": 0}, {"type": "note_on", "time": 4, "note": 66, "velocity": 110, "channel": 0}, {"type": "note_off", "time": 62, "note": 66, "velocity": 110, "channel": 0}, {"type": "note_on", "time": 7, "note": 68, "velocity": 116, "channel": 0}, {"type": "note_off", "time": 112, "note": 68, "velocity": 116, "channel": 0}, {"type": "note_on", "time": 18, "note": 70, "velocity": 99, "channel": 0}, {"type": "note_off", "time": 54, "note": 70, "velocity": 99, "channel": 0}, {"type": "note_on", "time": 3, "note": 73, "velocity": 115, "channel": 0}, {"type": "note_off", "time": 328, "note": 73, "velocity": 115, "channel": 0}, {"type": "note_on", "time": 45, "note": 70, "velocity": 9, "channel": 0}, {"type": "note_off", "time": 118, "note": 70, "velocity": 9, "channel": 0}, {"type": "note_on", "time": 2, "note": 68, "velocity": 118, "channel": 0}, {"type": "note_off", "time": 86, "note": 68, "velocity": 118, "channel": 0}, {"type": "note_on", "time": 6, "note": 66, "velocity": 113, "channel": 0}, {"type": "note_off", "time": 97, "note": 66, "velocity": 113, "channel": 0}, {"type": "note_on", "time": 6, "note": 63, "velocity": 115, "channel": 0}, {"type": "note_off", "time": 52, "note": 63, "velocity": 115, "channel": 0}, {"type": "note_on", "time": 11, "note": 64, "velocity": 112, "channel": 0}, {"type": "note_off", "time": 86, "note": 64, "velocity": 112, "channel": 0}, {"type": "note_on", "time": 9, "note": 67, "velocity": 112, "channel": 0}, {"type": "note_off", "time": 126, "note": 67, "velocity": 112, "channel": 0}, {"type": "note_on", "time": 19, "note": 72, "velocity": 105, "channel": 0}, {"type": "note_off", "time": 77, "note": 72, "velocity": 105, "channel": 0}, {"type": "note_on", "time": 125, "note": 67, "velocity": 106, "channel": 0}, {"type": "note_off", "time": 159, "note": 67, "velocity": 106, "channel": 0}, {"type": "note_on", "time": 13, "note": 65, "velocity": 115, "channel": 0}, {"type": "note_off", "time": 114, "note": 65, "velocity": 115, "channel": 0}, {"type": "note_on", "time": 19, "note": 63, "velocity": 104, "channel": 0}, {"type": "note_off", "time": 313, "note": 63, "velocity": 104, "channel": 0}, {"type": "note_on", "time": 656, "note": 61, "velocity": 119, "channel": 0}, {"type": "note_off", "time": 49, "note": 61, "velocity": 119, "channel": 0}, {"type": "note_on", "time": 2, "note": 63, "velocity": 118, "channel": 0}, {"type": "note_off", "time": 108, "note": 63, "velocity": 118, "channel": 0}, {"type": "note_on", "time": 7, "note": 66, "velocity": 122, "channel": 0}, {"type": "note_off", "time": 80, "note": 66, "velocity": 122, "channel": 0}, {"type": "note_on", "time": 3, "note": 64, "velocity": 121, "channel": 0}, {"type": "note_off", "time": 111, "note": 64, "velocity": 121, "channel": 0}, {"type": "note_on", "time": 1, "note": 66, "velocity": 122, "channel": 0}, {"type": "note_off", "time": 71, "note": 66, "velocity": 122, "channel": 0}, {"type": "note_on", "time": 3, "note": 68, "velocity": 121, "channel": 0}, {"type": "note_off", "time": 114, "note": 68, "velocity": 121, "channel": 0}, {"type": "note_on", "time": 67, "note": 76, "velocity": 121, "channel": 0}, {"type": "note_off", "time": 123, "note": 76, "velocity": 121, "channel": 0}, {"type": "note_on", "time": 6, "note": 73, "velocity": 108, "channel": 0}, {"type": "note_off", "time": 39, "note": 73, "velocity": 108, "channel": 0}, {"type": "note_on", "time": 7, "note": 76, "velocity": 116, "channel": 0}, {"type": "note_off", "time": 181, "note": 76, "velocity": 116, "channel": 0}, {"type": "note_on", "time": 27, "note": 76, "velocity": 118, "channel": 0}, {"type": "note_off", "time": 193, "note": 76, "velocity": 118, "channel": 0}, {"type": "note_on", "time": 2, "note": 73, "velocity": 117, "channel": 0}, {"type": "note_off", "time": 110, "note": 73, "velocity": 117, "channel": 0}, {"type": "note_on", "time": 30, "note": 74, "velocity": 119, "channel": 0}, {"type": "note_off", "time": 98, "note": 74, "velocity": 119, "channel": 0}, {"type": "note_on", "time": 3, "note": 75, "velocity": 120, "channel": 0}, {"type": "note_off", "time": 231, "note": 75, "velocity": 120, "channel": 0}, {"type": "note_on", "time": 15, "note": 73, "velocity": 117, "channel": 0}, {"type": "note_off", "time": 103, "note": 73, "velocity": 117, "channel": 0}, {"type": "note_on", "time": 9, "note": 72, "velocity": 109, "channel": 0}, {"type": "note_off", "time": 70, "note": 72, "velocity": 109, "channel": 0}, {"type": "note_on", "time": 6, "note": 73, "velocity": 119, "channel": 0}, {"type": "note_off", "time": 79, "note": 73, "velocity": 119, "channel": 0}, {"type": "note_on", "time": 3, "note": 77, "velocity": 124, "channel": 0}, {"type": "note_off", "time": 122, "note": 77, "velocity": 124, "channel": 0}, {"type": "note_on", "time": 7, "note": 80, "velocity": 121, "channel": 0}, {"type": "note_off", "time": 58, "note": 80, "velocity": 121, "channel": 0}, {"type": "note_on", "time": 4, "note": 82, "velocity": 120, "channel": 0}, {"type": "note_off", "time": 282, "note": 82, "velocity": 120, "channel": 0}, {"type": "note_on", "time": 9, "note": 80, "velocity": 120, "channel": 0}, {"type": "note_off", "time": 86, "note": 80, "velocity": 120, "channel": 0}, {"type": "note_on", "time": 7, "note": 79, "velocity": 120, "channel": 0}, {"type": "note_off", "time": 85, "note": 79, "velocity": 120, "channel": 0}, {"type": "note_on", "time": 2, "note": 77, "velocity": 127, "channel": 0}, {"type": "note_off", "time": 82, "note": 77, "velocity": 127, "channel": 0}, {"type": "note_on", "time": 3, "note": 75, "velocity": 111, "channel": 0}, {"type": "note_off", "time": 107, "note": 75, "velocity": 111, "channel": 0}, {"type": "note_on", "time": 18, "note": 70, "velocity": 100, "channel": 0}, {"type": "note_off", "time": 60, "note": 70, "velocity": 100, "channel": 0}, {"type": "note_on", "time": 4, "note": 72, "velocity": 108, "channel": 0}, {"type": "note_off", "time": 106, "note": 72, "velocity": 108, "channel": 0}, {"type": "note_on", "time": 9, "note": 74, "velocity": 113, "channel": 0}, {"type": "note_off", "time": 56, "note": 74, "velocity": 113, "channel": 0}, {"type": "note_on", "time": 9, "note": 75, "velocity": 112, "channel": 0}, {"type": "note_off", "time": 121, "note": 75, "velocity": 112, "channel": 0}, {"type": "note_on", "time": 12, "note": 74, "velocity": 99, "channel": 0}, {"type": "note_off", "time": 41, "note": 74, "velocity": 99, "channel": 0}, {"type": "note_on", "time": 17, "note": 77, "velocity": 125, "channel": 0}, {"type": "note_off", "time": 102, "note": 77, "velocity": 125, "channel": 0}, {"type": "note_on", "time": 22, "note": 76, "velocity": 114, "channel": 0}, {"type": "note_off", "time": 63, "note": 76, "velocity": 114, "channel": 0}, {"type": "note_on", "time": 10, "note": 75, "velocity": 117, "channel": 0}, {"type": "note_off", "time": 108, "note": 75, "velocity": 117, "channel": 0}, {"type": "note_on", "time": 17, "note": 79, "velocity": 121, "channel": 0}, {"type": "note_off", "time": 66, "note": 79, "velocity": 121, "channel": 0}, {"type": "note_on", "time": 24, "note": 73, "velocity": 114, "channel": 0}, {"type": "note_off", "time": 86, "note": 73, "velocity": 114, "channel": 0}, {"type": "note_on", "time": 5, "note": 77, "velocity": 120, "channel": 0}, {"type": "note_off", "time": 83, "note": 77, "velocity": 120, "channel": 0}, {"type": "note_on", "time": 6, "note": 75, "velocity": 115, "channel": 0}, {"type": "note_off", "time": 97, "note": 75, "velocity": 115, "channel": 0}, {"type": "note_on", "time": 10, "note": 73, "velocity": 112, "channel": 0}, {"type": "note_off", "time": 85, "note": 73, "velocity": 112, "channel": 0}, {"type": "note_on", "time": 7, "note": 70, "velocity": 110, "channel": 0}, {"type": "note_off", "time": 73, "note": 70, "velocity": 110, "channel": 0}, {"type": "note_on", "time": 37, "note": 66, "velocity": 114, "channel": 0}, {"type": "note_off", "time": 95, "note": 66, "velocity": 114, "channel": 0}, {"type": "note_on", "time": 5, "note": 65, "velocity": 114, "channel": 0}, {"type": "note_off", "time": 96, "note": 65, "velocity": 114, "channel": 0}, {"type": "note_on", "time": 9, "note": 63, "velocity": 110, "channel": 0}, {"type": "note_off", "time": 63, "note": 63, "velocity": 110, "channel": 0}, {"type": "note_on", "time": 130, "note": 65, "velocity": 116, "channel": 0}, {"type": "note_off", "time": 69, "note": 65, "velocity": 116, "channel": 0}, {"type": "note_on", "time": 2, "note": 69, "velocity": 104, "channel": 0}, {"type": "note_off", "time": 115, "note": 69, "velocity": 104, "channel": 0}, {"type": "note_on", "time": 10, "note": 65, "velocity": 109, "channel": 0}, {"type": "note_off", "time": 49, "note": 65, "velocity": 109, "channel": 0}, {"type": "note_on", "time": 1, "note": 67, "velocity": 106, "channel": 0}, {"type": "note_off", "time": 181, "note": 67, "velocity": 106, "channel": 0}, {"type": "note_on", "time": 9, "note": 71, "velocity": 100, "channel": 0}, {"type": "note_off", "time": 160, "note": 71, "velocity": 100, "channel": 0}, {"type": "end_of_track", "time": 0}]]}