{"ticks_per_beat": 2520, "tracks": [[{"type": "note_on", "time": 0, "note": 80, "velocity": 85, "channel": 0}, {"type": "note_off", "time": 477, "note": 80, "velocity": 85, "channel": 0}, {"type": "note_on", "time": 159, "note": 81, "velocity": 86, "channel": 0}, {"type": "track_name", "name": "Melody", "time": 413}, {"type": "set_tempo", "tempo": 413793, "time": 0}, {"type": "key_signature", "key": "G", "time": 0}, {"type": "time_signature", "numerator": 4, "denominator": 4, "clocks_per_click": 24, "notated_32nd_notes_per_beat": 8, "time": 0}, {"type": "note_off", "time": 63, "note": 81, "velocity": 86, "channel": 0}, {"type": "note_on", "time": 282, "note": 83, "velocity": 83, "channel": 0}, {"type": "note_off", "time": 247, "note": 83, "velocity": 83, "channel": 0}, {"type": "note_on", "time": 35, "note": 84, "velocity": 82, "channel": 0}, {"type": "note_off", "time": 512, "note": 84, "velocity": 82, "channel": 0}, {"type": "note_on", "time": 123, "note": 82, "velocity": 91, "channel": 0}, {"type": "note_off", "time": 689, "note": 82, "velocity": 91, "channel": 0}, {"type": "note_on", "time": 141, "note": 80, "velocity": 96, "channel": 0}, {"type": "note_off", "time": 618, "note": 80, "velocity": 96, "channel": 0}, {"type": "note_on", "time": 229, "note": 79, "velocity": 103, "channel": 0}, {"type": "note_off", "time": 848, "note": 79, "velocity": 103, "channel": 0}, {"type": "note_on", "time": 141, "note": 77, "velocity": 103, "channel": 0}, {"type": "note_off", "time": 707, "note": 77, "velocity": 103, "channel": 0}, {"type": "note_on", "time": 212, "note": 75, "velocity": 96, "channel": 0}, {"type": "note_off", "time": 406, "note": 75, "velocity": 96, "channel": 0}, {"type": "note_on", "time": 176, "note": 77, "velocity": 107, "channel": 0}, {"type": "note_off", "time": 848, "note": 77, "velocity": 107, "channel": 0}, {"type": "note_on", "time": 159, "note": 79, "velocity": 110, "channel": 0}, {"type": "note_off", "time": 901, "note": 79, "velocity": 110, "channel": 0}, {"type": "note_on", "time": 159, "note": 75, "velocity": 101, "channel": 0}, {"type": "note_off", "time": 547, "note": 75, "velocity": 101, "channel": 0}, {"type": "note_on", "time": 194, "note": 77, "velocity": 117, "channel": 0}, {"type": "note_off", "time": 3499, "note": 77, "velocity": 117, "channel": 0}, {"type": "note_on", "time": 388, "note": 75, "velocity": 109, "channel": 0}, {"type": "note_off", "time": 813, "note": 75, "velocity": 109, "channel": 0}, {"type": "note_on", "time": 106, "note": 74, "velocity": 113, "channel": 0}, {"type": "note_off", "time": 565, "note": 74, "velocity": 113, "channel": 0}, {"type": "note_on", "time": 247, "note": 72, "velocity": 107, "channel": 0}, {"type": "note_off", "time": 1078, "note": 72, "velocity": 107, "channel": 0}, {"type": "note_on", "time": 388, "note": 70, "velocity": 106, "channel": 0}, {"type": "note_off", "time": 636, "note": 70, "velocity": 106, "channel": 0}, {"type": "note_on", "time": 388, "note": 72, "velocity": 105, "channel": 0}, {"type": "note_off", "time": 813, "note": 72, "velocity": 105, "channel": 0}, {"type": "note_on", "time": 830, "note": 74, "velocity": 107, "channel": 0}, {"type": "note_off", "time": 1661, "note": 74, "velocity": 107, "channel": 0}, {"type": "note_on", "time": 318, "note": 72, "velocity": 106, "channel": 0}, {"type": "note_off", "time": 1007, "note": 72, "velocity": 106, "channel": 0}, {"type": "note_on", "time": 212, "note": 70, "velocity": 103, "channel": 0}, {"type": "note_off", "time": 7795, "note": 70, "velocity": 103, "channel": 0}, {"type": "note_on", "time": 194, "note": 69, "velocity": 107, "channel": 0}, {"type": "note_off", "time": 883, "note": 69, "velocity": 107, "channel": 0}, {"type": "note_on", "time": 353, "note": 70, "velocity": 100, "channel": 0}, {"type": "note_off", "time": 954, "note": 70, "velocity": 100, "channel": 0}, {"type": "note_on", "time": 265, "note": 72, "velocity": 100, "channel": 0}, {"type": "note_off", "time": 2262, "note": 72, "velocity": 100, "channel": 0}, {"type": "note_on", "time": 194, "note": 70, "velocity": 102, "channel": 0}, {"type": "note_off", "time": 2068, "note": 70, "velocity": 102, "channel": 0}, {"type": "note_on", "time": 689, "note": 69, "velocity": 109, "channel": 0}, {"type": "note_off", "time": 8873, "note": 69, "velocity": 109, "channel": 0}, {"type": "note_on", "time": 265, "note": 67, "velocity": 109, "channel": 0}, {"type": "note_off", "time": 1042, "note": 67, "velocity": 109, "channel": 0}, {"type": "note_on", "time": 88, "note": 69, "velocity": 107, "channel": 0}, {"type": "note_off", "time": 901, "note": 69, "velocity": 107, "channel": 0}, {"type": "note_on", "time": 689, "note": 69, "velocity": 103, "channel": 0}, {"type": "note_off", "time": 1060, "note": 69, "velocity": 103, "channel": 0}, {"type": "note_on", "time": 123, "note": 70, "velocity": 112, "channel": 0}, {"type": "note_off", "time": 1732, "note": 70, "velocity": 112, "channel": 0}, {"type": "note_on", "time": 318, "note": 69, "velocity": 106, "channel": 0}, {"type": "note_off", "time": 1290, "note": 69, "velocity": 106, "channel": 0}, {"type": "note_on", "time": 388, "note": 67, "velocity": 110, "channel": 0}, {"type": "note_off", "time": 3871, "note": 67, "velocity": 110, "channel": 0}, {"type": "note_on", "time": 123, "note": 66, "velocity": 110, "channel": 0}, {"type": "note_off", "time": 1184, "note": 66, "velocity": 110, "channel": 0}, {"type": "note_on", "time": 141, "note": 67, "velocity": 112, "channel": 0}, {"type": "note_off", "time": 1431, "note": 67, "velocity": 112, "channel": 0}, {"type": "note_on", "time": 141, "note": 67, "velocity": 105, "channel": 0}, {"type": "note_off", "time": 618, "note": 67, "velocity": 105, "channel": 0}, {"type": "note_on", "time": 194, "note": 68, "velocity": 108, "channel": 0}, {"type": "note_off", "time": 2598, "note": 68, "velocity": 108, "channel": 0}, {"type": "note_on", "time": 229, "note": 67, "velocity": 108, "channel": 0}, {"type": "note_off", "time": 1396, "note": 67, "velocity": 108, "channel": 0}, {"type": "note_on", "time": 88, "note": 66, "velocity": 104, "channel": 0}, {"type": "note_off", "time": 229, "note": 66, "velocity": 104, "channel": 0}, {"type": "note_on", "time": 95, "note": 65, "velocity": 103, "channel": 0}, {"type": "note_off", "time": 8004, "note": 65, "velocity": 103, "channel": 0}, {"type": "note_on", "time": 248, "note": 64, "velocity": 93, "channel": 0}, {"type": "note_off", "time": 3977, "note": 64, "velocity": 93, "channel": 0}, {"type": "note_on", "time": 30274, "note": 64, "velocity": 114, "channel": 0}, {"type": "note_off", "time": 848, "note": 64, "velocity": 114, "channel": 0}, {"type": "note_on", "time": 212, "note": 65, "velocity": 117, "channel": 0}, {"type": "note_off", "time": 1891, "note": 65, "velocity": 117, "channel": 0}, {"type": "note_on", "time": 81, "note": 66, "velocity": 115, "channel": 0}, {"type": "note_off", "time": 10614, "note": 66, "velocity": 115, "channel": 0}, {"type": "note_on", "time": 310, "note": 64, "velocity": 115, "channel": 0}, {"type": "note_off", "time": 758, "note": 64, "velocity": 115, "channel": 0}, {"type": "note_on", "time": 99, "note": 66, "velocity": 116, "channel": 0}, {"type": "note_off", "time": 944, "note": 66, "velocity": 116, "channel": 0}, {"type": "note_on", "time": 111, "note": 67, "velocity": 119, "channel": 0}, {"type": "note_off", "time": 770, "note": 67, "velocity": 119, "channel": 0}, {"type": "note_on", "time": 149, "note": 69, "velocity": 114, "channel": 0}, {"type": "note_off", "time": 820, "note": 69, "velocity": 114, "channel": 0}, {"type": "note_on", "time": 99, "note": 66, "velocity": 114, "channel": 0}, {"type": "note_off", "time": 857, "note": 66, "velocity": 114, "channel": 0}, {"type": "note_on", "time": 74, "note": 67, "velocity": 117, "channel": 0}, {"type": "note_off", "time": 894, "note": 67, "velocity": 117, "channel": 0}, {"type": "note_on", "time": 152, "note": 66, "velocity": 114, "channel": 0}, {"type": "note_off", "time": 12019, "note": 66, "velocity": 114, "channel": 0}, {"type": "note_on", "time": 406, "note": 64, "velocity": 108, "channel": 0}, {"type": "note_off", "time": 671, "note": 64, "velocity": 108, "channel": 0}, {"type": "note_on", "time": 176, "note": 66, "velocity": 110, "channel": 0}, {"type": "note_off", "time": 707, "note": 66, "velocity": 110, "channel": 0}, {"type": "note_on", "time": 194, "note": 67, "velocity": 108, "channel": 0}, {"type": "note_off", "time": 300, "note": 67, "velocity": 108, "channel": 0}, {"type": "note_on", "time": 97, "note": 69, "velocity": 102, "channel": 0}, {"type": "note_off", "time": 344, "note": 69, "velocity": 102, "channel": 0}, {"type": "note_on", "time": 97, "note": 67, "velocity": 107, "channel": 0}, {"type": "note_off", "time": 618, "note": 67, "velocity": 107, "channel": 0}, {"type": "note_on", "time": 141, "note": 66, "velocity": 97, "channel": 0}, {"type": "note_off", "time": 1016, "note": 66, "velocity": 97, "channel": 0}, {"type": "note_on", "time": 150, "note": 67, "velocity": 108, "channel": 0}, {"type": "note_off", "time": 1352, "note": 67, "velocity": 108, "channel": 0}, {"type": "note_on", "time": 106, "note": 69, "velocity": 106, "channel": 0}, {"type": "note_off", "time": 1095, "note": 69, "velocity": 106, "channel": 0}, {"type": "note_on", "time": 70, "note": 66, "velocity": 102, "channel": 0}, {"type": "note_off", "time": 4065, "note": 66, "velocity": 102, "channel": 0}, {"type": "note_on", "time": 53, "note": 66, "velocity": 108, "channel": 0}, {"type": "note_off", "time": 318, "note": 66, "velocity": 108, "channel": 0}, {"type": "note_on", "time": 123, "note": 71, "velocity": 99, "channel": 0}, {"type": "note_off", "time": 406, "note": 71, "velocity": 99, "channel": 0}, {"type": "note_on", "time": 3552, "note": 65, "velocity": 108, "channel": 0}, {"type": "note_off", "time": 265, "note": 65, "velocity": 108, "channel": 0}, {"type": "note_on", "time": 70, "note": 70, "velocity": 100, "channel": 0}, {"type": "note_off", "time": 397, "note": 70, "velocity": 100, "channel": 0}, {"type": "note_on", "time": 70, "note": 63, "velocity": 100, "channel": 0}, {"type": "note_off", "time": 415, "note": 63, "velocity": 100, "channel": 0}, {"type": "note_on", "time": 44, "note": 64, "velocity": 100, "channel": 0}, {"type": "note_off", "time": 406, "note": 64, "velocity": 100, "channel": 0}, {"type": "note_on", "time": 61, "note": 63, "velocity": 94, "channel": 0}, {"type": "note_off", "time": 388, "note": 63, "velocity": 94, "channel": 0}, {"type": "note_on", "time": 70, "note": 64, "velocity": 100, "channel": 0}, {"type": "note_off", "time": 539, "note": 64, "velocity": 100, "channel": 0}, {"type": "note_on", "time": 61, "note": 63, "velocity": 102, "channel": 0}, {"type": "note_off", "time": 424, "note": 63, "velocity": 102, "channel": 0}, {"type": "note_on", "time": 61, "note": 64, "velocity": 96, "channel": 0}, {"type": "note_off", "time": 530, "note": 64, "velocity": 96, "channel": 0}, {"type": "note_on", "time": 44, "note": 63, "velocity": 100, "channel": 0}, {"type": "note_off", "time": 309, "note": 63, "velocity": 100, "channel": 0}, {"type": "note_on", "time": 44, "note": 64, "velocity": 103, "channel": 0}, {"type": "note_off", "time": 468, "note": 64, "velocity": 103, "channel": 0}, {"type": "note_on", "time": 57, "note": 63, "velocity": 94, "channel": 0}, {"type": "note_off", "time": 248, "note": 63, "velocity": 94, "channel": 0}, {"type": "note_on", "time": 99, "note": 70, "velocity": 99, "channel": 0}, {"type": "note_off", "time": 435, "note": 70, "velocity": 99, "channel": 0}, {"type": "note_on", "time": 290, "note": 62, "velocity": 107, "channel": 0}, {"type": "note_off", "time": 547, "note": 62, "velocity": 107, "channel": 0}, {"type": "note_on", "time": 61, "note": 61, "velocity": 103, "channel": 0}, {"type": "note_off", "time": 406, "note": 61, "velocity": 103, "channel": 0}, {"type": "note_on", "time": 79, "note": 62, "velocity": 104, "channel": 0}, {"type": "note_off", "time": 503, "note": 62, "velocity": 104, "channel": 0}, {"type": "note_on", "time": 70, "note": 61, "velocity": 97, "channel": 0}, {"type": "note_off", "time": 247, "note": 61, "velocity": 97, "channel": 0}, {"type": "note_on", "time": 220, "note": 59, "velocity": 92, "channel": 0}, {"type": "note_off", "time": 892, "note": 59, "velocity": 92, "channel": 0}, {"type": "note_on", "time": 44, "note": 60, "velocity": 94, "channel": 0}, {"type": "note_off", "time": 1334, "note": 60, "velocity": 94, "channel": 0}, {"type": "note_on", "time": 6769, "note": 59, "velocity": 101, "channel": 0}, {"type": "note_off", "time": 1325, "note": 59, "velocity": 101, "channel": 0}, {"type": "note_on", "time": 106, "note": 60, "velocity": 103, "channel": 0}, {"type": "note_off", "time": 654, "note": 60, "velocity": 103, "channel": 0}, {"type": "note_on", "time": 185, "note": 62, "velocity": 104, "channel": 0}, {"type": "note_off", "time": 645, "note": 62, "velocity": 104, "channel": 0}, {"type": "note_on", "time": 282, "note": 70, "velocity": 103, "channel": 0}, {"type": "note_off", "time": 795, "note": 70, "velocity": 103, "channel": 0}, {"type": "note_on", "time": 291, "note": 64, "velocity": 109, "channel": 0}, {"type": "note_off", "time": 2403, "note": 64, "velocity": 109, "channel": 0}, {"type": "note_on", "time": 123, "note": 66, "velocity": 105, "channel": 0}, {"type": "note_off", "time": 760, "note": 66, "velocity": 105, "channel": 0}, {"type": "note_on", "time": 88, "note": 71, "velocity": 94, "channel": 0}, {"type": "note_off", "time": 1104, "note": 71, "velocity": 94, "channel": 0}, {"type": "note_on", "time": 203, "note": 67, "velocity": 110, "channel": 0}, {"type": "note_off", "time": 2943, "note": 67, "velocity": 110, "channel": 0}, {"type": "note_on", "time": 106, "note": 69, "velocity": 97, "channel": 0}, {"type": "note_off", "time": 2121, "note": 69, "velocity": 97, "channel": 0}, {"type": "note_on", "time": 35, "note": 71, "velocity": 106, "channel": 0}, {"type": "note_off", "time": 3093, "note": 71, "velocity": 106, "channel": 0}, {"type": "note_on", "time": 0, "note": 69, "velocity": 105, "channel": 0}, {"type": "note_off", "time": 2828, "note": 69, "velocity": 105, "channel": 0}, {"type": "note_on", "time": 0, "note": 67, "velocity": 106, "channel": 0}, {"type": "note_off", "time": 2669, "note": 67, "velocity": 106, "channel": 0}, {"type": "note_on", "time": 33311, "note": 80, "velocity": 126, "channel": 0}, {"type": "note_off", "time": 845, "note": 80, "velocity": 126, "channel": 0}, {"type": "note_on", "time": 161, "note": 81, "velocity": 127, "channel": 0}, {"type": "note_off", "time": 907, "note": 81, "velocity": 127, "channel": 0}, {"type": "note_on", "time": 236, "note": 84, "velocity": 124, "channel": 0}, {"type": "note_off", "time": 1044, "note": 84, "velocity": 124, "channel": 0}, {"type": "note_on", "time": 149, "note": 82, "velocity": 122, "channel": 0}, {"type": "note_off", "time": 857, "note": 82, "velocity": 122, "channel": 0}, {"type": "note_on", "time": 455, "note": 80, "velocity": 126, "channel": 0}, {"type": "note_off", "time": 10146, "note": 80, "velocity": 126, "channel": 0}, {"type": "note_on", "time": 318, "note": 80, "velocity": 119, "channel": 0}, {"type": "note_off", "time": 3818, "note": 80, "velocity": 119, "channel": 0}, {"type": "note_on", "time": 586, "note": 68, "velocity": 94, "channel": 0}, {"type": "note_off", "time": 6115, "note": 68, "velocity": 94, "channel": 0}, {"type": "note_on", "time": 309, "note": 83, "velocity": 110, "channel": 0}, {"type": "note_off", "time": 1081, "note": 83, "velocity": 110, "channel": 0}, {"type": "note_on", "time": 124, "note": 84, "velocity": 113, "channel": 0}, {"type": "note_off", "time": 217, "note": 84, "velocity": 113, "channel": 0}, {"type": "note_on", "time": 31, "note": 85, "velocity": 113, "channel": 0}, {"type": "note_off", "time": 267, "note": 85, "velocity": 113, "channel": 0}, {"type": "note_on", "time": 118, "note": 84, "velocity": 110, "channel": 0}, {"type": "note_off", "time": 1043, "note": 84, "velocity": 110, "channel": 0}, {"type": "note_on", "time": 99, "note": 88, "velocity": 107, "channel": 0}, {"type": "note_off", "time": 435, "note": 88, "velocity": 107, "channel": 0}, {"type": "note_on", "time": 136, "note": 87, "velocity": 112, "channel": 0}, {"type": "note_off", "time": 410, "note": 87, "velocity": 112, "channel": 0}, {"type": "note_on", "time": 49, "note": 86, "velocity": 105, "channel": 0}, {"type": "note_off", "time": 149, "note": 86, "velocity": 105, "channel": 0}, {"type": "note_on", "time": 278, "note": 82, "velocity": 111, "channel": 0}, {"type": "note_off", "time": 1856, "note": 82, "velocity": 111, "channel": 0}, {"type": "note_on", "time": 69909, "note": 57, "velocity": 115, "channel": 0}, {"type": "note_off", "time": 1255, "note": 57, "velocity": 115, "channel": 0}, {"type": "note_on", "time": 123, "note": 60, "velocity": 112, "channel": 0}, {"type": "note_off", "time": 1131, "note": 60, "velocity": 112, "channel": 0}, {"type": "note_on", "time": 141, "note": 62, "velocity": 112, "channel": 0}, {"type": "note_off", "time": 1148, "note": 62, "velocity": 112, "channel": 0}, {"type": "note_on", "time": 194, "note": 64, "velocity": 116, "channel": 0}, {"type": "note_off", "time": 883, "note": 64, "velocity": 116, "channel": 0}, {"type": "note_on", "time": 88, "note": 66, "velocity": 121, "channel": 0}, {"type": "note_off", "time": 954, "note": 66, "velocity": 121, "channel": 0}, {"type": "note_on", "time": 160, "note": 65, "velocity": 118, "channel": 0}, {"type": "note_off", "time": 2088, "note": 65, "velocity": 118, "channel": 0}, {"type": "note_on", "time": 87, "note": 67, "velocity": 120, "channel": 0}, {"type": "note_off", "time": 1615, "note": 67, "velocity": 120, "channel": 0}, {"type": "note_on", "time": 149, "note": 68, "velocity": 120, "channel": 0}, {"type": "note_off", "time": 1006, "note": 68, "velocity": 120, "channel": 0}, {"type": "note_on", "time": 186, "note": 70, "velocity": 118, "channel": 0}, {"type": "note_off", "time": 932, "note": 70, "velocity": 118, "channel": 0}, {"type": "note_on", "time": 124, "note": 72, "velocity": 109, "channel": 0}, {"type": "note_off", "time": 820, "note": 72, "velocity": 109, "channel": 0}, {"type": "note_on", "time": 136, "note": 74, "velocity": 112, "channel": 0}, {"type": "note_off", "time": 832, "note": 74, "velocity": 112, "channel": 0}, {"type": "note_on", "time": 111, "note": 75, "velocity": 117, "channel": 0}, {"type": "note_off", "time": 1168, "note": 75, "velocity": 117, "channel": 0}, {"type": "note_on", "time": 223, "note": 73, "velocity": 112, "channel": 0}, {"type": "note_off", "time": 7444, "note": 73, "velocity": 112, "channel": 0}, {"type": "note_on", "time": 124, "note": 72, "velocity": 107, "channel": 0}, {"type": "note_off", "time": 733, "note": 72, "velocity": 107, "channel": 0}, {"type": "note_on", "time": 310, "note": 70, "velocity": 116, "channel": 0}, {"type": "note_off", "time": 857, "note": 70, "velocity": 116, "channel": 0}, {"type": "note_on", "time": 99, "note": 72, "velocity": 105, "channel": 0}, {"type": "note_off", "time": 832, "note": 72, "velocity": 105, "channel": 0}, {"type": "note_on", "time": 136, "note": 77, "velocity": 121, "channel": 0}, {"type": "note_off", "time": 1044, "note": 77, "velocity": 121, "channel": 0}, {"type": "note_on", "time": 111, "note": 75, "velocity": 9, "channel": 0}, {"type": "note_off", "time": 1019, "note": 75, "velocity": 9, "channel": 0}, {"type": "note_on", "time": 99, "note": 73, "velocity": 111, "channel": 0}, {"type": "note_off", "time": 981, "note": 73, "velocity": 111, "channel": 0}, {"type": "note_on", "time": 161, "note": 72, "velocity": 100, "channel": 0}, {"type": "note_off", "time": 1019, "note": 72, "velocity": 100, "channel": 0}, {"type": "note_on", "time": 86, "note": 70, "velocity": 109, "channel": 0}, {"type": "note_off", "time": 1031, "note": 70, "velocity": 109, "channel": 0}, {"type": "note_on", "time": 348, "note": 72, "velocity": 107, "channel": 0}, {"type": "note_off", "time": 1441, "note": 72, "velocity": 107, "channel": 0}, {"type": "note_on", "time": 99, "note": 72, "velocity": 108, "channel": 0}, {"type": "note_off", "time": 2333, "note": 72, "velocity": 108, "channel": 0}, {"type": "note_on", "time": 265, "note": 72, "velocity": 108, "channel": 0}, {"type": "note_off", "time": 4361, "note": 72, "velocity": 108, "channel": 0}, {"type": "note_on", "time": 136, "note": 71, "velocity": 102, "channel": 0}, {"type": "note_off", "time": 758, "note": 71, "velocity": 102, "channel": 0}, {"type": "note_on", "time": 74, "note": 72, "velocity": 104, "channel": 0}, {"type": "note_off", "time": 1628, "note": 72, "velocity": 104, "channel": 0}, {"type": "note_on", "time": 161, "note": 70, "velocity": 108, "channel": 0}, {"type": "note_off", "time": 919, "note": 70, "velocity": 108, "channel": 0}, {"type": "note_on", "time": 161, "note": 68, "velocity": 114, "channel": 0}, {"type": "note_off", "time": 1044, "note": 68, "velocity": 114, "channel": 0}, {"type": "note_on", "time": 111, "note": 67, "velocity": 111, "channel": 0}, {"type": "note_off", "time": 845, "note": 67, "velocity": 111, "channel": 0}, {"type": "note_on", "time": 62, "note": 68, "velocity": 112, "channel": 0}, {"type": "note_off", "time": 957, "note": 68, "velocity": 112, "channel": 0}, {"type": "note_on", "time": 298, "note": 70, "velocity": 110, "channel": 0}, {"type": "note_off", "time": 2063, "note": 70, "velocity": 110, "channel": 0}, {"type": "note_on", "time": 223, "note": 70, "velocity": 107, "channel": 0}, {"type": "note_off", "time": 3132, "note": 70, "velocity": 107, "channel": 0}, {"type": "note_on", "time": 857, "note": 73, "velocity": 101, "channel": 0}, {"type": "note_off", "time": 509, "note": 73, "velocity": 101, "channel": 0}, {"type": "note_on", "time": 149, "note": 70, "velocity": 104, "channel": 0}, {"type": "note_off", "time": 1106, "note": 70, "velocity": 104, "channel": 0}, {"type": "note_on", "time": 820, "note": 68, "velocity": 109, "channel": 0}, {"type": "note_off", "time": 646, "note": 68, "velocity": 109, "channel": 0}, {"type": "note_on", "time": 99, "note": 67, "velocity": 110, "channel": 0}, {"type": "note_off", "time": 1180, "note": 67, "velocity": 110, "channel": 0}, {"type": "note_on", "time": 87, "note": 66, "velocity": 106, "channel": 0}, {"type": "note_off", "time": 957, "note": 66, "velocity": 106, "channel": 0}, {"type": "note_on", "time": 87, "note": 67, "velocity": 110, "channel": 0}, {"type": "note_off", "time": 1653, "note": 67, "velocity": 110, "channel": 0}, {"type": "note_on", "time": 348, "note": 68, "velocity": 110, "channel": 0}, {"type": "note_off", "time": 2547, "note": 68, "velocity": 110, "channel": 0}, {"type": "note_on", "time": 111, "note": 69, "velocity": 107, "channel": 0}, {"type": "note_off", "time": 1305, "note": 69, "velocity": 107, "channel": 0}, {"type": "note_on", "time": 323, "note": 71, "velocity": 107, "channel": 0}, {"type": "note_off", "time": 2485, "note": 71, "velocity": 107, "channel": 0}, {"type": "note_on", "time": 99, "note": 69, "velocity": 108, "channel": 0}, {"type": "note_off", "time": 1019, "note": 69, "velocity": 108, "channel": 0}, {"type": "note_on", "time": 111, "note": 68, "velocity": 115, "channel": 0}, {"type": "note_off", "time": 845, "note": 68, "velocity": 115, "channel": 0}, {"type": "note_on", "time": 86, "note": 69, "velocity": 108, "channel": 0}, {"type": "note_off", "time": 944, "note": 69, "velocity": 108, "channel": 0}, {"type": "note_on", "time": 111, "note": 71, "velocity": 104, "channel": 0}, {"type": "note_off", "time": 981, "note": 71, "velocity": 104, "channel": 0}, {"type": "note_on", "time": 435, "note": 72, "velocity": 103, "channel": 0}, {"type": "note_off", "time": 646, "note": 72, "velocity": 103, "channel": 0}, {"type": "note_on", "time": 136, "note": 74, "velocity": 103, "channel": 0}, {"type": "note_off", "time": 671, "note": 74, "velocity": 103, "channel": 0}, {"type": "note_on", "time": 198, "note": 72, "velocity": 101, "channel": 0}, {"type": "note_off", "time": 783, "note": 72, "velocity": 101, "channel": 0}, {"type": "note_on", "time": 136, "note": 70, "velocity": 107, "channel": 0}, {"type": "note_off", "time": 783, "note": 70, "velocity": 107, "channel": 0}, {"type": "note_on", "time": 74, "note": 72, "velocity": 102, "channel": 0}, {"type": "note_off", "time": 857, "note": 72, "velocity": 102, "channel": 0}, {"type": "note_on", "time": 136, "note": 76, "velocity": 110, "channel": 0}, {"type": "note_off", "time": 845, "note": 76, "velocity": 110, "channel": 0}, {"type": "note_on", "time": 87, "note": 78, "velocity": 116, "channel": 0}, {"type": "note_off", "time": 870, "note": 78, "velocity": 116, "channel": 0}, {"type": "note_on", "time": 136, "note": 76, "velocity": 115, "channel": 0}, {"type": "note_off", "time": 820, "note": 76, "velocity": 115, "channel": 0}, {"type": "note_on", "time": 62, "note": 77, "velocity": 117, "channel": 0}, {"type": "note_off", "time": 820, "note": 77, "velocity": 117, "channel": 0}, {"type": "note_on", "time": 124, "note": 75, "velocity": 107, "channel": 0}, {"type": "note_off", "time": 795, "note": 75, "velocity": 107, "channel": 0}, {"type": "note_on", "time": 149, "note": 73, "velocity": 105, "channel": 0}, {"type": "note_off", "time": 2858, "note": 73, "velocity": 105, "channel": 0}, {"type": "note_on", "time": 99, "note": 74, "velocity": 102, "channel": 0}, {"type": "note_off", "time": 733, "note": 74, "velocity": 102, "channel": 0}, {"type": "note_on", "time": 211, "note": 72, "velocity": 105, "channel": 0}, {"type": "note_off", "time": 894, "note": 72, "velocity": 105, "channel": 0}, {"type": "note_on", "time": 248, "note": 70, "velocity": 107, "channel": 0}, {"type": "note_off", "time": 3579, "note": 70, "velocity": 107, "channel": 0}, {"type": "note_on", "time": 609, "note": 68, "velocity": 112, "channel": 0}, {"type": "note_off", "time": 1118, "note": 68, "velocity": 112, "channel": 0}, {"type": "note_on", "time": 124, "note": 66, "velocity": 107, "channel": 0}, {"type": "note_off", "time": 957, "note": 66, "velocity": 107, "channel": 0}, {"type": "note_on", "time": 310, "note": 64, "velocity": 110, "channel": 0}, {"type": "note_off", "time": 521, "note": 64, "velocity": 110, "channel": 0}, {"type": "note_on", "time": 74, "note": 66, "velocity": 111, "channel": 0}, {"type": "note_off", "time": 957, "note": 66, "velocity": 111, "channel": 0}, {"type": "note_on", "time": 24, "note": 67, "velocity": 108, "channel": 0}, {"type": "note_off", "time": 2585, "note": 67, "velocity": 108, "channel": 0}, {"type": "note_on", "time": 111, "note": 65, "velocity": 111, "channel": 0}, {"type": "note_off", "time": 1131, "note": 65, "velocity": 111, "channel": 0}, {"type": "note_on", "time": 136, "note": 63, "velocity": 104, "channel": 0}, {"type": "note_off", "time": 3728, "note": 63, "velocity": 104, "channel": 0}, {"type": "note_on", "time": 136, "note": 65, "velocity": 112, "channel": 0}, {"type": "note_off", "time": 1354, "note": 65, "velocity": 112, "channel": 0}, {"type": "note_on", "time": 99, "note": 63, "velocity": 107, "channel": 0}, {"type": "note_off", "time": 957, "note": 63, "velocity": 107, "channel": 0}, {"type": "note_on", "time": 136, "note": 61, "velocity": 103, "channel": 0}, {"type": "note_off", "time": 4188, "note": 61, "velocity": 103, "channel": 0}, {"type": "note_on", "time": 46925, "note": 59, "velocity": 117, "channel": 0}, {"type": "note_off", "time": 486, "note": 59, "velocity": 117, "channel": 0}, {"type": "note_on", "time": 47, "note": 60, "velocity": 115, "channel": 0}, {"type": "note_off", "time": 142, "note": 60, "velocity": 115, "channel": 0}, {"type": "note_on", "time": 62, "note": 63, "velocity": 106, "channel": 0}, {"type": "note_off", "time": 136, "note": 63, "velocity": 106, "channel": 0}, {"type": "note_on", "time": 35, "note": 65, "velocity": 124, "channel": 0}, {"type": "note_off", "time": 388, "note": 65, "velocity": 124, "channel": 0}, {"type": "note_on", "time": 70, "note": 64, "velocity": 116, "channel": 0}, {"type": "note_off", "time": 212, "note": 64, "velocity": 116, "channel": 0}, {"type": "note_on", "time": 20, "note": 63, "velocity": 109, "channel": 0}, {"type": "note_off", "time": 173, "note": 63, "velocity": 109, "channel": 0}, {"type": "note_on", "time": 35, "note": 62, "velocity": 111, "channel": 0}, {"type": "note_off", "time": 327, "note": 62, "velocity": 111, "channel": 0}, {"type": "note_on", "time": 53, "note": 63, "velocity": 105, "channel": 0}, {"type": "note_off", "time": 468, "note": 63, "velocity": 105, "channel": 0}, {"type": "note_on", "time": 147, "note": 64, "velocity": 121, "channel": 0}, {"type": "note_off", "time": 453, "note": 64, "velocity": 121, "channel": 0}, {"type": "note_on", "time": 80, "note": 67, "velocity": 119, "channel": 0}, {"type": "note_off", "time": 205, "note": 67, "velocity": 119, "channel": 0}, {"type": "note_on", "time": 18, "note": 68, "velocity": 121, "channel": 0}, {"type": "note_off", "time": 236, "note": 68, "velocity": 121, "channel": 0}, {"type": "note_on", "time": 68, "note": 70, "velocity": 113, "channel": 0}, {"type": "note_off", "time": 217, "note": 70, "velocity": 113, "channel": 0}, {"type": "note_on", "time": 49, "note": 73, "velocity": 109, "channel": 0}, {"type": "note_off", "time": 273, "note": 73, "velocity": 109, "channel": 0}, {"type": "note_on", "time": 105, "note": 76, "velocity": 113, "channel": 0}, {"type": "note_off", "time": 173, "note": 76, "velocity": 113, "channel": 0}, {"type": "note_on", "time": 24, "note": 77, "velocity": 125, "channel": 0}, {"type": "note_off", "time": 211, "note": 77, "velocity": 125, "channel": 0}, {"type": "note_on", "time": 24, "note": 79, "velocity": 118, "channel": 0}, {"type": "note_off", "time": 236, "note": 79, "velocity": 118, "channel": 0}, {"type": "note_on", "time": 55, "note": 82, "velocity": 113, "channel": 0}, {"type": "note_off", "time": 223, "note": 82, "velocity": 113, "channel": 0}, {"type": "note_on", "time": 0, "note": 86, "velocity": 110, "channel": 0}, {"type": "note_off", "time": 217, "note": 86, "velocity": 110, "channel": 0}, {"type": "note_on", "time": 118, "note": 85, "velocity": 100, "channel": 0}, {"type": "note_off", "time": 192, "note": 85, "velocity": 100, "channel": 0}, {"type": "note_on", "time": 37, "note": 83, "velocity": 105, "channel": 0}, {"type": "note_off", "time": 118, "note": 83, "velocity": 105, "channel": 0}, {"type": "note_on", "time": 24, "note": 82, "velocity": 108, "channel": 0}, {"type": "note_off", "time": 534, "note": 82, "velocity": 108, "channel": 0}, {"type": "note_on", "time": 310, "note": 83, "velocity": 116, "channel": 0}, {"type": "note_off", "time": 677, "note": 83, "velocity": 116, "channel": 0}, {"type": "note_on", "time": 74, "note": 81, "velocity": 114, "channel": 0}, {"type": "note_off", "time": 577, "note": 81, "velocity": 114, "channel": 0}, {"type": "note_on", "time": 68, "note": 84, "velocity": 111, "channel": 0}, {"type": "note_off", "time": 422, "note": 84, "velocity": 111, "channel": 0}, {"type": "note_on", "time": 18, "note": 83, "velocity": 107, "channel": 0}, {"type": "note_off", "time": 149, "note": 83, "velocity": 107, "channel": 0}, {"type": "note_on", "time": 130, "note": 82, "velocity": 102, "channel": 0}, {"type": "note_off", "time": 435, "note": 82, "velocity": 102, "channel": 0}, {"type": "note_on", "time": 74, "note": 80, "velocity": 109, "channel": 0}, {"type": "note_off", "time": 459, "note": 80, "velocity": 109, "channel": 0}, {"type": "note_on", "time": 43, "note": 81, "velocity": 103, "channel": 0}, {"type": "note_off", "time": 671, "note": 81, "velocity": 103, "channel": 0}, {"type": "note_on", "time": 12005, "note": 58, "velocity": 103, "channel": 0}, {"type": "note_off", "time": 888, "note": 58, "velocity": 103, "channel": 0}, {"type": "note_on", "time": 87, "note": 60, "velocity": 113, "channel": 0}, {"type": "note_off", "time": 832, "note": 60, "velocity": 113, "channel": 0}, {"type": "note_on", "time": 81, "note": 62, "velocity": 111, "channel": 0}, {"type": "note_off", "time": 3632, "note": 62, "velocity": 111, "channel": 0}, {"type": "note_on", "time": 97, "note": 61, "velocity": 115, "channel": 0}, {"type": "note_off", "time": 662, "note": 61, "velocity": 115, "channel": 0}, {"type": "note_on", "time": 141, "note": 63, "velocity": 117, "channel": 0}, {"type": "note_off", "time": 592, "note": 63, "velocity": 117, "channel": 0}, {"type": "note_on", "time": 159, "note": 65, "velocity": 118, "channel": 0}, {"type": "note_off", "time": 2094, "note": 65, "velocity": 118, "channel": 0}, {"type": "note_on", "time": 88, "note": 66, "velocity": 117, "channel": 0}, {"type": "note_off", "time": 848, "note": 66, "velocity": 117, "channel": 0}, {"type": "note_on", "time": 65, "note": 68, "velocity": 118, "channel": 0}, {"type": "note_off", "time": 776, "note": 68, "velocity": 118, "channel": 0}, {"type": "note_on", "time": 142, "note": 70, "velocity": 113, "channel": 0}, {"type": "note_off", "time": 783, "note": 70, "velocity": 113, "channel": 0}, {"type": "note_on", "time": 80, "note": 68, "velocity": 114, "channel": 0}, {"type": "note_off", "time": 758, "note": 68, "velocity": 114, "channel": 0}, {"type": "note_on", "time": 37, "note": 69, "velocity": 112, "channel": 0}, {"type": "note_off", "time": 565, "note": 69, "velocity": 112, "channel": 0}, {"type": "note_on", "time": 93, "note": 71, "velocity": 112, "channel": 0}, {"type": "note_off", "time": 565, "note": 71, "velocity": 112, "channel": 0}, {"type": "note_on", "time": 186, "note": 73, "velocity": 116, "channel": 0}, {"type": "note_off", "time": 702, "note": 73, "velocity": 116, "channel": 0}, {"type": "note_on", "time": 49, "note": 72, "velocity": 110, "channel": 0}, {"type": "note_off", "time": 596, "note": 72, "velocity": 110, "channel": 0}, {"type": "note_on", "time": 304, "note": 69, "velocity": 113, "channel": 0}, {"type": "note_off", "time": 584, "note": 69, "velocity": 113, "channel": 0}, {"type": "note_on", "time": 180, "note": 72, "velocity": 109, "channel": 0}, {"type": "note_off", "time": 615, "note": 72, "velocity": 109, "channel": 0}, {"type": "note_on", "time": 68, "note": 74, "velocity": 107, "channel": 0}, {"type": "note_off", "time": 671, "note": 74, "velocity": 107, "channel": 0}, {"type": "note_on", "time": 62, "note": 76, "velocity": 116, "channel": 0}, {"type": "note_off", "time": 602, "note": 76, "velocity": 116, "channel": 0}, {"type": "note_on", "time": 80, "note": 79, "velocity": 118, "channel": 0}, {"type": "note_off", "time": 776, "note": 79, "velocity": 118, "channel": 0}, {"type": "note_on", "time": 111, "note": 76, "velocity": 120, "channel": 0}, {"type": "note_off", "time": 807, "note": 76, "velocity": 120, "channel": 0}, {"type": "note_on", "time": 62, "note": 77, "velocity": 120, "channel": 0}, {"type": "note_off", "time": 584, "note": 77, "velocity": 120, "channel": 0}, {"type": "note_on", "time": 49, "note": 79, "velocity": 117, "channel": 0}, {"type": "note_off", "time": 913, "note": 79, "velocity": 117, "channel": 0}, {"type": "note_on", "time": 49, "note": 80, "velocity": 119, "channel": 0}, {"type": "note_off", "time": 876, "note": 80, "velocity": 119, "channel": 0}, {"type": "note_on", "time": 37, "note": 82, "velocity": 114, "channel": 0}, {"type": "note_off", "time": 1019, "note": 82, "velocity": 114, "channel": 0}, {"type": "note_on", "time": 465, "note": 83, "velocity": 111, "channel": 0}, {"type": "note_off", "time": 106, "note": 83, "velocity": 111, "channel": 0}, {"type": "note_on", "time": 44, "note": 84, "velocity": 111, "channel": 0}, {"type": "note_off", "time": 936, "note": 84, "velocity": 111, "channel": 0}, {"type": "note_on", "time": 88, "note": 82, "velocity": 115, "channel": 0}, {"type": "note_off", "time": 945, "note": 82, "velocity": 115, "channel": 0}, {"type": "note_on", "time": 132, "note": 80, "velocity": 114, "channel": 0}, {"type": "note_off", "time": 707, "note": 80, "velocity": 114, "channel": 0}, {"type": "note_on", "time": 70, "note": 82, "velocity": 116, "channel": 0}, {"type": "note_off", "time": 645, "note": 82, "velocity": 116, "channel": 0}, {"type": "note_on", "time": 185, "note": 79, "velocity": 113, "channel": 0}, {"type": "note_off", "time": 4648, "note": 79, "velocity": 113, "channel": 0}, {"type": "note_on", "time": 208, "note": 77, "velocity": 116, "channel": 0}, {"type": "note_off", "time": 1031, "note": 77, "velocity": 116, "channel": 0}, {"type": "note_on", "time": 124, "note": 75, "velocity": 101, "channel": 0}, {"type": "note_off", "time": 696, "note": 75, "velocity": 101, "channel": 0}, {"type": "note_on", "time": 86, "note": 78, "velocity": 117, "channel": 0}, {"type": "note_off", "time": 1019, "note": 78, "velocity": 117, "channel": 0}, {"type": "note_on", "time": 186, "note": 80, "velocity": 119, "channel": 0}, {"type": "note_off", "time": 857, "note": 80, "velocity": 119, "channel": 0}, {"type": "note_on", "time": 99, "note": 82, "velocity": 115, "channel": 0}, {"type": "note_off", "time": 720, "note": 82, "velocity": 115, "channel": 0}, {"type": "note_on", "time": 149, "note": 78, "velocity": 115, "channel": 0}, {"type": "note_off", "time": 683, "note": 78, "velocity": 115, "channel": 0}, {"type": "note_on", "time": 37, "note": 79, "velocity": 118, "channel": 0}, {"type": "note_off", "time": 149, "note": 79, "velocity": 118, "channel": 0}, {"type": "note_on", "time": 111, "note": 80, "velocity": 118, "channel": 0}, {"type": "note_off", "time": 658, "note": 80, "velocity": 118, "channel": 0}, {"type": "note_on", "time": 74, "note": 77, "velocity": 116, "channel": 0}, {"type": "note_off", "time": 708, "note": 77, "velocity": 116, "channel": 0}, {"type": "note_on", "time": 186, "note": 75, "velocity": 109, "channel": 0}, {"type": "note_off", "time": 683, "note": 75, "velocity": 109, "channel": 0}, {"type": "note_on", "time": 214, "note": 70, "velocity": 106, "channel": 0}, {"type": "note_off", "time": 963, "note": 70, "velocity": 106, "channel": 0}, {"type": "note_on", "time": 141, "note": 72, "velocity": 103, "channel": 0}, {"type": "note_off", "time": 786, "note": 72, "velocity": 103, "channel": 0}, {"type": "note_on", "time": 79, "note": 74, "velocity": 106, "channel": 0}, {"type": "note_off", "time": 821, "note": 74, "velocity": 106, "channel": 0}, {"type": "note_on", "time": 212, "note": 75, "velocity": 107, "channel": 0}, {"type": "note_off", "time": 530, "note": 75, "velocity": 107, "channel": 0}, {"type": "note_on", "time": 194, "note": 77, "velocity": 119, "channel": 0}, {"type": "note_off", "time": 892, "note": 77, "velocity": 119, "channel": 0}, {"type": "note_on", "time": 132, "note": 73, "velocity": 109, "channel": 0}, {"type": "note_off", "time": 2412, "note": 73, "velocity": 109, "channel": 0}, {"type": "note_on", "time": 88, "note": 70, "velocity": 108, "channel": 0}, {"type": "note_off", "time": 733, "note": 70, "velocity": 108, "channel": 0}, {"type": "note_on", "time": 97, "note": 64, "velocity": 107, "channel": 0}, {"type": "note_off", "time": 654, "note": 64, "velocity": 107, "channel": 0}, {"type": "note_on", "time": 53, "note": 65, "velocity": 113, "channel": 0}, {"type": "note_off", "time": 804, "note": 65, "velocity": 113, "channel": 0}, {"type": "note_on", "time": 273, "note": 74, "velocity": 113, "channel": 0}, {"type": "note_off", "time": 2129, "note": 74, "velocity": 113, "channel": 0}, {"type": "note_on", "time": 88, "note": 72, "velocity": 105, "channel": 0}, {"type": "note_off", "time": 857, "note": 72, "velocity": 105, "channel": 0}, {"type": "note_on", "time": 229, "note": 81, "velocity": 120, "channel": 0}, {"type": "note_off", "time": 1201, "note": 81, "velocity": 120, "channel": 0}, {"type": "note_on", "time": 97, "note": 80, "velocity": 111, "channel": 0}, {"type": "note_off", "time": 1475, "note": 80, "velocity": 111, "channel": 0}, {"type": "note_on", "time": 327, "note": 75, "velocity": 110, "channel": 0}, {"type": "note_off", "time": 1051, "note": 75, "velocity": 110, "channel": 0}, {"type": "note_on", "time": 97, "note": 71, "velocity": 109, "channel": 0}, {"type": "note_off", "time": 707, "note": 71, "velocity": 109, "channel": 0}, {"type": "note_on", "time": 97, "note": 74, "velocity": 103, "channel": 0}, {"type": "note_off", "time": 662, "note": 74, "velocity": 103, "channel": 0}, {"type": "note_on", "time": 79, "note": 76, "velocity": 115, "channel": 0}, {"type": "note_off", "time": 857, "note": 76, "velocity": 115, "channel": 0}, {"type": "note_on", "time": 97, "note": 79, "velocity": 113, "channel": 0}, {"type": "note_off", "time": 839, "note": 79, "velocity": 113, "channel": 0}, {"type": "note_on", "time": 44, "note": 78, "velocity": 113, "channel": 0}, {"type": "note_off", "time": 662, "note": 78, "velocity": 113, "channel": 0}, {"type": "note_on", "time": 114, "note": 76, "velocity": 114, "channel": 0}, {"type": "note_off", "time": 680, "note": 76, "velocity": 114, "channel": 0}, {"type": "note_on", "time": 79, "note": 77, "velocity": 117, "channel": 0}, {"type": "note_off", "time": 839, "note": 77, "velocity": 117, "channel": 0}, {"type": "note_on", "time": 106, "note": 74, "velocity": 101, "channel": 0}, {"type": "note_off", "time": 724, "note": 74, "velocity": 101, "channel": 0}, {"type": "note_on", "time": 256, "note": 70, "velocity": 109, "channel": 0}, {"type": "note_off", "time": 556, "note": 70, "velocity": 109, "channel": 0}, {"type": "note_on", "time": 167, "note": 66, "velocity": 111, "channel": 0}, {"type": "note_off", "time": 715, "note": 66, "velocity": 111, "channel": 0}, {"type": "note_on", "time": 167, "note": 63, "velocity": 100, "channel": 0}, {"type": "note_off", "time": 768, "note": 63, "velocity": 100, "channel": 0}, {"type": "note_on", "time": 35, "note": 62, "velocity": 102, "channel": 0}, {"type": "note_off", "time": 654, "note": 62, "velocity": 102, "channel": 0}, {"type": "note_on", "time": 88, "note": 61, "velocity": 105, "channel": 0}, {"type": "note_off", "time": 645, "note": 61, "velocity": 105, "channel": 0}, {"type": "note_on", "time": 132, "note": 64, "velocity": 115, "channel": 0}, {"type": "note_off", "time": 795, "note": 64, "velocity": 115, "channel": 0}, {"type": "note_on", "time": 60, "note": 65, "velocity": 111, "channel": 0}, {"type": "note_off", "time": 1901, "note": 65, "velocity": 111, "channel": 0}, {"type": "note_on", "time": 70, "note": 64, "velocity": 117, "channel": 0}, {"type": "note_on", "time": 618, "note": 65, "velocity": 113, "channel": 0}, {"type": "note_off", "time": 0, "note": 64, "velocity": 117, "channel": 0}, {"type": "note_off", "time": 565, "note": 65, "velocity": 113, "channel": 0}, {"type": "note_on", "time": 44, "note": 64, "velocity": 111, "channel": 0}, {"type": "note_off", "time": 371, "note": 64, "velocity": 111, "channel": 0}, {"type": "note_on", "time": 79, "note": 65, "velocity": 113, "channel": 0}, {"type": "note_off", "time": 565, "note": 65, "velocity": 113, "channel": 0}, {"type": "note_on", "time": 256, "note": 67, "velocity": 114, "channel": 0}, {"type": "note_off", "time": 459, "note": 67, "velocity": 114, "channel": 0}, {"type": "note_on", "time": 61, "note": 66, "velocity": 115, "channel": 0}, {"type": "note_off", "time": 406, "note": 66, "velocity": 115, "channel": 0}, {"type": "note_on", "time": 185, "note": 66, "velocity": 113, "channel": 0}, {"type": "note_off", "time": 512, "note": 66, "velocity": 113, "channel": 0}, {"type": "note_on", "time": 167, "note": 67, "velocity": 113, "channel": 0}, {"type": "note_off", "time": 565, "note": 67, "velocity": 113, "channel": 0}, {"type": "note_on", "time": 176, "note": 67, "velocity": 113, "channel": 0}, {"type": "note_off", "time": 344, "note": 67, "velocity": 113, "channel": 0}, {"type": "note_on", "time": 97, "note": 69, "velocity": 111, "channel": 0}, {"type": "note_off", "time": 521, "note": 69, "velocity": 111, "channel": 0}, {"type": "note_on", "time": 114, "note": 69, "velocity": 110, "channel": 0}, {"type": "note_off", "time": 459, "note": 69, "velocity": 110, "channel": 0}, {"type": "note_on", "time": 79, "note": 71, "velocity": 110, "channel": 0}, {"type": "note_off", "time": 256, "note": 71, "velocity": 110, "channel": 0}, {"type": "note_on", "time": 44, "note": 70, "velocity": 111, "channel": 0}, {"type": "note_off", "time": 415, "note": 70, "velocity": 111, "channel": 0}, {"type": "note_on", "time": 123, "note": 70, "velocity": 108, "channel": 0}, {"type": "note_off", "time": 371, "note": 70, "velocity": 108, "channel": 0}, {"type": "note_on", "time": 123, "note": 69, "velocity": 114, "channel": 0}, {"type": "note_off", "time": 291, "note": 69, "velocity": 114, "channel": 0}, {"type": "note_on", "time": 79, "note": 68, "velocity": 112, "channel": 0}, {"type": "note_off", "time": 406, "note": 68, "velocity": 112, "channel": 0}, {"type": "note_on", "time": 35, "note": 69, "velocity": 114, "channel": 0}, {"type": "note_off", "time": 406, "note": 69, "velocity": 114, "channel": 0}, {"type": "note_on", "time": 53, "note": 68, "velocity": 109, "channel": 0}, {"type": "note_off", "time": 318, "note": 68, "velocity": 109, "channel": 0}, {"type": "note_on", "time": 61, "note": 69, "velocity": 114, "channel": 0}, {"type": "note_off", "time": 468, "note": 69, "velocity": 114, "channel": 0}, {"type": "note_on", "time": 79, "note": 67, "velocity": 112, "channel": 0}, {"type": "note_off", "time": 530, "note": 67, "velocity": 112, "channel": 0}, {"type": "note_on", "time": 88, "note": 66, "velocity": 113, "channel": 0}, {"type": "note_off", "time": 883, "note": 66, "velocity": 113, "channel": 0}, {"type": "note_on", "time": 32904, "note": 62, "velocity": 107, "channel": 0}, {"type": "note_off", "time": 530, "note": 62, "velocity": 107, "channel": 0}, {"type": "note_on", "time": 185, "note": 64, "velocity": 113, "channel": 0}, {"type": "note_off", "time": 724, "note": 64, "velocity": 113, "channel": 0}, {"type": "note_on", "time": 70, "note": 70, "velocity": 117, "channel": 0}, {"type": "note_off", "time": 380, "note": 70, "velocity": 117, "channel": 0}, {"type": "note_on", "time": 114, "note": 64, "velocity": 113, "channel": 0}, {"type": "note_off", "time": 592, "note": 64, "velocity": 113, "channel": 0}, {"type": "note_on", "time": 150, "note": 66, "velocity": 116, "channel": 0}, {"type": "note_off", "time": 406, "note": 66, "velocity": 116, "channel": 0}, {"type": "note_on", "time": 132, "note": 69, "velocity": 112, "channel": 0}, {"type": "note_off", "time": 477, "note": 69, "velocity": 112, "channel": 0}, {"type": "note_on", "time": 97, "note": 76, "velocity": 120, "channel": 0}, {"type": "note_off", "time": 477, "note": 76, "velocity": 120, "channel": 0}, {"type": "note_on", "time": 123, "note": 70, "velocity": 117, "channel": 0}, {"type": "note_off", "time": 795, "note": 70, "velocity": 117, "channel": 0}, {"type": "note_on", "time": 44, "note": 69, "velocity": 110, "channel": 0}, {"type": "note_off", "time": 273, "note": 69, "velocity": 110, "channel": 0}, {"type": "note_on", "time": 4675, "note": 59, "velocity": 111, "channel": 0}, {"type": "note_off", "time": 459, "note": 59, "velocity": 111, "channel": 0}, {"type": "note_on", "time": 141, "note": 64, "velocity": 114, "channel": 0}, {"type": "note_off", "time": 380, "note": 64, "velocity": 114, "channel": 0}, {"type": "note_on", "time": 61, "note": 70, "velocity": 114, "channel": 0}, {"type": "note_off", "time": 388, "note": 70, "velocity": 114, "channel": 0}, {"type": "note_on", "time": 229, "note": 76, "velocity": 113, "channel": 0}, {"type": "note_off", "time": 539, "note": 76, "velocity": 113, "channel": 0}, {"type": "note_on", "time": 106, "note": 66, "velocity": 115, "channel": 0}, {"type": "note_off", "time": 433, "note": 66, "velocity": 115, "channel": 0}, {"type": "note_on", "time": 61, "note": 70, "velocity": 103, "channel": 0}, {"type": "note_off", "time": 353, "note": 70, "velocity": 103, "channel": 0}, {"type": "note_on", "time": 167, "note": 76, "velocity": 117, "channel": 0}, {"type": "note_off", "time": 503, "note": 76, "velocity": 117, "channel": 0}, {"type": "note_on", "time": 247, "note": 70, "velocity": 112, "channel": 0}, {"type": "note_off", "time": 1909, "note": 70, "velocity": 112, "channel": 0}, {"type": "note_on", "time": 4259, "note": 59, "velocity": 115, "channel": 0}, {"type": "note_off", "time": 565, "note": 59, "velocity": 115, "channel": 0}, {"type": "note_on", "time": 220, "note": 64, "velocity": 111, "channel": 0}, {"type": "note_off", "time": 592, "note": 64, "velocity": 111, "channel": 0}, {"type": "note_on", "time": 194, "note": 71, "velocity": 111, "channel": 0}, {"type": "note_off", "time": 468, "note": 71, "velocity": 111, "channel": 0}, {"type": "note_on", "time": 88, "note": 70, "velocity": 107, "channel": 0}, {"type": "note_off", "time": 795, "note": 70, "velocity": 107, "channel": 0}, {"type": "note_on", "time": 167, "note": 63, "velocity": 110, "channel": 0}, {"type": "note_off", "time": 742, "note": 63, "velocity": 110, "channel": 0}, {"type": "note_on", "time": 415, "note": 68, "velocity": 118, "channel": 0}, {"type": "note_off", "time": 760, "note": 68, "velocity": 118, "channel": 0}, {"type": "note_on", "time": 1175, "note": 75, "velocity": 113, "channel": 0}, {"type": "note_off", "time": 804, "note": 75, "velocity": 113, "channel": 0}, {"type": "note_on", "time": 159, "note": 70, "velocity": 111, "channel": 0}, {"type": "note_off", "time": 2483, "note": 70, "velocity": 111, "channel": 0}, {"type": "note_on", "time": 18913, "note": 79, "velocity": 119, "channel": 0}, {"type": "note_off", "time": 839, "note": 79, "velocity": 119, "channel": 0}, {"type": "note_on", "time": 106, "note": 77, "velocity": 120, "channel": 0}, {"type": "note_off", "time": 857, "note": 77, "velocity": 120, "channel": 0}, {"type": "note_on", "time": 70, "note": 78, "velocity": 119, "channel": 0}, {"type": "note_off", "time": 883, "note": 78, "velocity": 119, "channel": 0}, {"type": "note_on", "time": 61, "note": 79, "velocity": 117, "channel": 0}, {"type": "note_off", "time": 680, "note": 79, "velocity": 117, "channel": 0}, {"type": "note_on", "time": 141, "note": 84, "velocity": 111, "channel": 0}, {"type": "note_off", "time": 839, "note": 84, "velocity": 111, "channel": 0}, {"type": "note_on", "time": 88, "note": 82, "velocity": 116, "channel": 0}, {"type": "note_off", "time": 777, "note": 82, "velocity": 116, "channel": 0}, {"type": "note_on", "time": 265, "note": 75, "velocity": 107, "channel": 0}, {"type": "note_off", "time": 4232, "note": 75, "velocity": 107, "channel": 0}, {"type": "note_on", "time": 425, "note": 72, "velocity": 106, "channel": 0}, {"type": "note_off", "time": 468, "note": 72, "velocity": 106, "channel": 0}, {"type": "note_on", "time": 424, "note": 74, "velocity": 112, "channel": 0}, {"type": "note_off", "time": 459, "note": 74, "velocity": 112, "channel": 0}, {"type": "note_on", "time": 380, "note": 75, "velocity": 111, "channel": 0}, {"type": "note_off", "time": 424, "note": 75, "velocity": 111, "channel": 0}, {"type": "note_on", "time": 388, "note": 76, "velocity": 119, "channel": 0}, {"type": "note_off", "time": 477, "note": 76, "velocity": 119, "channel": 0}, {"type": "note_on", "time": 327, "note": 77, "velocity": 121, "channel": 0}, {"type": "note_off", "time": 556, "note": 77, "velocity": 121, "channel": 0}, {"type": "note_on", "time": 265, "note": 78, "velocity": 119, "channel": 0}, {"type": "note_off", "time": 600, "note": 78, "velocity": 119, "channel": 0}, {"type": "note_on", "time": 176, "note": 77, "velocity": 116, "channel": 0}, {"type": "note_off", "time": 627, "note": 77, "velocity": 116, "channel": 0}, {"type": "note_on", "time": 229, "note": 76, "velocity": 120, "channel": 0}, {"type": "note_off", "time": 556, "note": 76, "velocity": 120, "channel": 0}, {"type": "note_on", "time": 380, "note": 75, "velocity": 112, "channel": 0}, {"type": "note_off", "time": 556, "note": 75, "velocity": 112, "channel": 0}, {"type": "note_on", "time": 282, "note": 74, "velocity": 110, "channel": 0}, {"type": "note_off", "time": 512, "note": 74, "velocity": 110, "channel": 0}, {"type": "note_on", "time": 335, "note": 73, "velocity": 112, "channel": 0}, {"type": "note_off", "time": 530, "note": 73, "velocity": 112, "channel": 0}, {"type": "note_on", "time": 406, "note": 72, "velocity": 104, "channel": 0}, {"type": "note_off", "time": 592, "note": 72, "velocity": 104, "channel": 0}, {"type": "note_on", "time": 300, "note": 70, "velocity": 111, "channel": 0}, {"type": "note_off", "time": 698, "note": 70, "velocity": 111, "channel": 0}, {"type": "note_on", "time": 203, "note": 69, "velocity": 109, "channel": 0}, {"type": "note_off", "time": 848, "note": 69, "velocity": 109, "channel": 0}, {"type": "note_on", "time": 79, "note": 70, "velocity": 112, "channel": 0}, {"type": "note_off", "time": 821, "note": 70, "velocity": 112, "channel": 0}, {"type": "note_on", "time": 106, "note": 71, "velocity": 109, "channel": 0}, {"type": "note_off", "time": 883, "note": 71, "velocity": 109, "channel": 0}, {"type": "note_on", "time": 141, "note": 72, "velocity": 101, "channel": 0}, {"type": "note_off", "time": 821, "note": 72, "velocity": 101, "channel": 0}, {"type": "note_on", "time": 123, "note": 73, "velocity": 114, "channel": 0}, {"type": "note_off", "time": 583, "note": 73, "velocity": 114, "channel": 0}, {"type": "note_on", "time": 167, "note": 74, "velocity": 108, "channel": 0}, {"type": "note_off", "time": 1422, "note": 74, "velocity": 108, "channel": 0}, {"type": "note_on", "time": 88, "note": 73, "velocity": 111, "channel": 0}, {"type": "note_off", "time": 300, "note": 73, "velocity": 111, "channel": 0}, {"type": "note_on", "time": 53, "note": 74, "velocity": 110, "channel": 0}, {"type": "note_off", "time": 300, "note": 74, "velocity": 110, "channel": 0}, {"type": "note_on", "time": 88, "note": 73, "velocity": 111, "channel": 0}, {"type": "note_off", "time": 388, "note": 73, "velocity": 111, "channel": 0}, {"type": "note_on", "time": 88, "note": 72, "velocity": 104, "channel": 0}, {"type": "note_off", "time": 380, "note": 72, "velocity": 104, "channel": 0}, {"type": "note_on", "time": 212, "note": 71, "velocity": 106, "channel": 0}, {"type": "note_off", "time": 380, "note": 71, "velocity": 106, "channel": 0}, {"type": "note_on", "time": 44, "note": 70, "velocity": 105, "channel": 0}, {"type": "note_off", "time": 441, "note": 70, "velocity": 105, "channel": 0}, {"type": "note_on", "time": 159, "note": 67, "velocity": 105, "channel": 0}, {"type": "note_off", "time": 609, "note": 67, "velocity": 105, "channel": 0}, {"type": "note_on", "time": 88, "note": 66, "velocity": 106, "channel": 0}, {"type": "note_off", "time": 415, "note": 66, "velocity": 106, "channel": 0}, {"type": "note_on", "time": 61, "note": 67, "velocity": 108, "channel": 0}, {"type": "note_off", "time": 256, "note": 67, "velocity": 108, "channel": 0}, {"type": "note_on", "time": 53, "note": 68, "velocity": 115, "channel": 0}, {"type": "note_off", "time": 795, "note": 68, "velocity": 115, "channel": 0}, {"type": "note_on", "time": 97, "note": 67, "velocity": 114, "channel": 0}, {"type": "note_off", "time": 883, "note": 67, "velocity": 114, "channel": 0}, {"type": "note_on", "time": 141, "note": 66, "velocity": 113, "channel": 0}, {"type": "note_off", "time": 344, "note": 66, "velocity": 113, "channel": 0}, {"type": "note_on", "time": 97, "note": 65, "velocity": 116, "channel": 0}, {"type": "note_off", "time": 371, "note": 65, "velocity": 116, "channel": 0}, {"type": "note_on", "time": 106, "note": 64, "velocity": 110, "channel": 0}, {"type": "note_off", "time": 415, "note": 64, "velocity": 110, "channel": 0}, {"type": "note_on", "time": 167, "note": 63, "velocity": 106, "channel": 0}, {"type": "note_off", "time": 530, "note": 63, "velocity": 106, "channel": 0}, {"type": "note_on", "time": 70, "note": 64, "velocity": 112, "channel": 0}, {"type": "note_off", "time": 265, "note": 64, "velocity": 112, "channel": 0}, {"type": "note_on", "time": 150, "note": 65, "velocity": 119, "channel": 0}, {"type": "note_off", "time": 521, "note": 65, "velocity": 119, "channel": 0}, {"type": "note_on", "time": 88, "note": 66, "velocity": 119, "channel": 0}, {"type": "note_off", "time": 335, "note": 66, "velocity": 119, "channel": 0}, {"type": "note_on", "time": 141, "note": 65, "velocity": 120, "channel": 0}, {"type": "note_off", "time": 441, "note": 65, "velocity": 120, "channel": 0}, {"type": "note_on", "time": 61, "note": 66, "velocity": 119, "channel": 0}, {"type": "note_off", "time": 309, "note": 66, "velocity": 119, "channel": 0}, {"type": "note_on", "time": 97, "note": 65, "velocity": 117, "channel": 0}, {"type": "note_off", "time": 503, "note": 65, "velocity": 117, "channel": 0}, {"type": "note_on", "time": 61, "note": 64, "velocity": 109, "channel": 0}, {"type": "note_off", "time": 265, "note": 64, "velocity": 109, "channel": 0}, {"type": "note_on", "time": 132, "note": 63, "velocity": 104, "channel": 0}, {"type": "note_off", "time": 468, "note": 63, "velocity": 104, "channel": 0}, {"type": "note_on", "time": 176, "note": 61, "velocity": 106, "channel": 0}, {"type": "note_off", "time": 821, "note": 61, "velocity": 106, "channel": 0}, {"type": "note_on", "time": 194, "note": 62, "velocity": 93, "channel": 0}, {"type": "note_off", "time": 468, "note": 62, "velocity": 93, "channel": 0}, {"type": "note_on", "time": 176, "note": 64, "velocity": 110, "channel": 0}, {"type": "note_off", "time": 751, "note": 64, "velocity": 110, "channel": 0}, {"type": "note_on", "time": 150, "note": 62, "velocity": 97, "channel": 0}, {"type": "note_off", "time": 468, "note": 62, "velocity": 97, "channel": 0}, {"type": "note_on", "time": 97, "note": 65, "velocity": 118, "channel": 0}, {"type": "note_off", "time": 998, "note": 65, "velocity": 118, "channel": 0}, {"type": "note_on", "time": 79, "note": 64, "velocity": 101, "channel": 0}, {"type": "note_off", "time": 273, "note": 64, "velocity": 101, "channel": 0}, {"type": "note_on", "time": 300, "note": 67, "velocity": 113, "channel": 0}, {"type": "note_off", "time": 839, "note": 67, "velocity": 113, "channel": 0}, {"type": "note_on", "time": 141, "note": 65, "velocity": 102, "channel": 0}, {"type": "note_off", "time": 441, "note": 65, "velocity": 102, "channel": 0}, {"type": "note_on", "time": 106, "note": 66, "velocity": 9, "channel": 0}, {"type": "note_off", "time": 821, "note": 66, "velocity": 9, "channel": 0}, {"type": "note_on", "time": 132, "note": 69, "velocity": 112, "channel": 0}, {"type": "note_off", "time": 583, "note": 69, "velocity": 112, "channel": 0}, {"type": "note_on", "time": 123, "note": 66, "velocity": 108, "channel": 0}, {"type": "note_off", "time": 494, "note": 66, "velocity": 108, "channel": 0}, {"type": "note_on", "time": 44, "note": 67, "velocity": 103, "channel": 0}, {"type": "note_off", "time": 388, "note": 67, "velocity": 103, "channel": 0}, {"type": "note_on", "time": 141, "note": 70, "velocity": 106, "channel": 0}, {"type": "note_off", "time": 618, "note": 70, "velocity": 106, "channel": 0}, {"type": "note_on", "time": 300, "note": 68, "velocity": 103, "channel": 0}, {"type": "note_off", "time": 353, "note": 68, "velocity": 103, "channel": 0}, {"type": "note_on", "time": 132, "note": 69, "velocity": 105, "channel": 0}, {"type": "note_off", "time": 530, "note": 69, "velocity": 105, "channel": 0}, {"type": "note_on", "time": 300, "note": 72, "velocity": 105, "channel": 0}, {"type": "note_off", "time": 494, "note": 72, "velocity": 105, "channel": 0}, {"type": "note_on", "time": 371, "note": 77, "velocity": 105, "channel": 0}, {"type": "note_off", "time": 388, "note": 77, "velocity": 105, "channel": 0}, {"type": "note_on", "time": 141, "note": 71, "velocity": 103, "channel": 0}, {"type": "note_off", "time": 433, "note": 71, "velocity": 103, "channel": 0}, {"type": "note_on", "time": 88, "note": 72, "velocity": 102, "channel": 0}, {"type": "note_off", "time": 486, "note": 72, "velocity": 102, "channel": 0}, {"type": "note_on", "time": 150, "note": 74, "velocity": 105, "channel": 0}, {"type": "note_off", "time": 397, "note": 74, "velocity": 105, "channel": 0}, {"type": "note_on", "time": 70, "note": 75, "velocity": 113, "channel": 0}, {"type": "note_off", "time": 477, "note": 75, "velocity": 113, "channel": 0}, {"type": "note_on", "time": 176, "note": 72, "velocity": 103, "channel": 0}, {"type": "note_off", "time": 424, "note": 72, "velocity": 103, "channel": 0}, {"type": "note_on", "time": 229, "note": 74, "velocity": 100, "channel": 0}, {"type": "note_off", "time": 565, "note": 74, "velocity": 100, "channel": 0}, {"type": "note_on", "time": 167, "note": 77, "velocity": 110, "channel": 0}, {"type": "note_off", "time": 477, "note": 77, "velocity": 110, "channel": 0}, {"type": "note_on", "time": 123, "note": 76, "velocity": 112, "channel": 0}, {"type": "note_off", "time": 618, "note": 76, "velocity": 112, "channel": 0}, {"type": "note_on", "time": 256, "note": 74, "velocity": 98, "channel": 0}, {"type": "note_off", "time": 689, "note": 74, "velocity": 98, "channel": 0}, {"type": "note_on", "time": 106, "note": 75, "velocity": 111, "channel": 0}, {"type": "note_off", "time": 565, "note": 75, "velocity": 111, "channel": 0}, {"type": "note_on", "time": 167, "note": 74, "velocity": 102, "channel": 0}, {"type": "note_off", "time": 547, "note": 74, "velocity": 102, "channel": 0}, {"type": "note_on", "time": 327, "note": 73, "velocity": 110, "channel": 0}, {"type": "note_off", "time": 592, "note": 73, "velocity": 110, "channel": 0}, {"type": "note_on", "time": 141, "note": 71, "velocity": 94, "channel": 0}, {"type": "note_off", "time": 415, "note": 71, "velocity": 94, "channel": 0}, {"type": "note_on", "time": 114, "note": 75, "velocity": 107, "channel": 0}, {"type": "note_off", "time": 583, "note": 75, "velocity": 107, "channel": 0}, {"type": "note_on", "time": 194, "note": 77, "velocity": 112, "channel": 0}, {"type": "note_off", "time": 424, "note": 77, "velocity": 112, "channel": 0}, {"type": "note_on", "time": 53, "note": 79, "velocity": 115, "channel": 0}, {"type": "note_off", "time": 742, "note": 79, "velocity": 115, "channel": 0}, {"type": "note_on", "time": 229, "note": 75, "velocity": 103, "channel": 0}, {"type": "note_off", "time": 486, "note": 75, "velocity": 103, "channel": 0}, {"type": "note_on", "time": 150, "note": 77, "velocity": 114, "channel": 0}, {"type": "note_off", "time": 715, "note": 77, "velocity": 114, "channel": 0}, {"type": "note_on", "time": 106, "note": 78, "velocity": 106, "channel": 0}, {"type": "note_off", "time": 786, "note": 78, "velocity": 106, "channel": 0}, {"type": "note_on", "time": 70, "note": 79, "velocity": 111, "channel": 0}, {"type": "note_off", "time": 1034, "note": 79, "velocity": 111, "channel": 0}, {"type": "note_on", "time": 150, "note": 82, "velocity": 100, "channel": 0}, {"type": "note_off", "time": 857, "note": 82, "velocity": 100, "channel": 0}, {"type": "note_on", "time": 150, "note": 78, "velocity": 107, "channel": 0}, {"type": "note_off", "time": 733, "note": 78, "velocity": 107, "channel": 0}, {"type": "note_on", "time": 53, "note": 79, "velocity": 109, "channel": 0}, {"type": "note_off", "time": 963, "note": 79, "velocity": 109, "channel": 0}, {"type": "note_on", "time": 70, "note": 80, "velocity": 108, "channel": 0}, {"type": "note_off", "time": 848, "note": 80, "velocity": 108, "channel": 0}, {"type": "note_on", "time": 97, "note": 82, "velocity": 108, "channel": 0}, {"type": "note_off", "time": 707, "note": 82, "velocity": 108, "channel": 0}, {"type": "note_on", "time": 212, "note": 84, "velocity": 103, "channel": 0}, {"type": "note_off", "time": 857, "note": 84, "velocity": 103, "channel": 0}, {"type": "note_on", "time": 194, "note": 82, "velocity": 106, "channel": 0}, {"type": "note_off", "time": 273, "note": 82, "velocity": 106, "channel": 0}, {"type": "note_on", "time": 441, "note": 84, "velocity": 103, "channel": 0}, {"type": "note_off", "time": 212, "note": 84, "velocity": 103, "channel": 0}, {"type": "note_on", "time": 53, "note": 85, "velocity": 107, "channel": 0}, {"type": "note_off", "time": 901, "note": 85, "velocity": 107, "channel": 0}, {"type": "note_on", "time": 79, "note": 84, "velocity": 108, "channel": 0}, {"type": "note_off", "time": 371, "note": 84, "velocity": 108, "channel": 0}, {"type": "note_on", "time": 600, "note": 82, "velocity": 105, "channel": 0}, {"type": "note_off", "time": 892, "note": 82, "velocity": 105, "channel": 0}, {"type": "note_on", "time": 256, "note": 84, "velocity": 111, "channel": 0}, {"type": "note_off", "time": 760, "note": 84, "velocity": 111, "channel": 0}, {"type": "note_on", "time": 539, "note": 82, "velocity": 113, "channel": 0}, {"type": "note_off", "time": 715, "note": 82, "velocity": 113, "channel": 0}, {"type": "note_on", "time": 185, "note": 84, "velocity": 101, "channel": 0}, {"type": "note_off", "time": 609, "note": 84, "velocity": 101, "channel": 0}, {"type": "note_on", "time": 981, "note": 85, "velocity": 109, "channel": 0}, {"type": "note_off", "time": 636, "note": 85, "velocity": 109, "channel": 0}, {"type": "note_on", "time": 88, "note": 84, "velocity": 108, "channel": 0}, {"type": "note_off", "time": 583, "note": 84, "velocity": 108, "channel": 0}, {"type": "note_on", "time": 406, "note": 82, "velocity": 109, "channel": 0}, {"type": "note_off", "time": 636, "note": 82, "velocity": 109, "channel": 0}, {"type": "note_on", "time": 114, "note": 84, "velocity": 105, "channel": 0}, {"type": "note_off", "time": 689, "note": 84, "velocity": 105, "channel": 0}, {"type": "note_on", "time": 300, "note": 82, "velocity": 111, "channel": 0}, {"type": "note_off", "time": 654, "note": 82, "velocity": 111, "channel": 0}, {"type": "note_on", "time": 123, "note": 84, "velocity": 102, "channel": 0}, {"type": "note_off", "time": 901, "note": 84, "velocity": 102, "channel": 0}, {"type": "note_on", "time": 265, "note": 82, "velocity": 109, "channel": 0}, {"type": "note_off", "time": 574, "note": 82, "velocity": 109, "channel": 0}, {"type": "note_on", "time": 141, "note": 84, "velocity": 103, "channel": 0}, {"type": "note_off", "time": 866, "note": 84, "velocity": 103, "channel": 0}, {"type": "note_on", "time": 459, "note": 84, "velocity": 99, "channel": 0}, {"type": "note_off", "time": 362, "note": 84, "velocity": 99, "channel": 0}, {"type": "note_on", "time": 123, "note": 85, "velocity": 103, "channel": 0}, {"type": "note_off", "time": 689, "note": 85, "velocity": 103, "channel": 0}, {"type": "note_on", "time": 79, "note": 84, "velocity": 110, "channel": 0}, {"type": "note_off", "time": 539, "note": 84, "velocity": 110, "channel": 0}, {"type": "note_on", "time": 609, "note": 82, "velocity": 105, "channel": 0}, {"type": "note_off", "time": 645, "note": 82, "velocity": 105, "channel": 0}, {"type": "note_on", "time": 574, "note": 84, "velocity": 107, "channel": 0}, {"type": "note_off", "time": 600, "note": 84, "velocity": 107, "channel": 0}, {"type": "note_on", "time": 645, "note": 80, "velocity": 112, "channel": 0}, {"type": "note_off", "time": 689, "note": 80, "velocity": 112, "channel": 0}, {"type": "note_on", "time": 194, "note": 84, "velocity": 102, "channel": 0}, {"type": "note_off", "time": 371, "note": 84, "velocity": 102, "channel": 0}, {"type": "note_on", "time": 509, "note": 81, "velocity": 111, "channel": 0}, {"type": "note_off", "time": 285, "note": 81, "velocity": 111, "channel": 0}, {"type": "note_on", "time": 49, "note": 82, "velocity": 101, "channel": 0}, {"type": "note_off", "time": 8302, "note": 82, "velocity": 101, "channel": 0}, {"type": "note_on", "time": 70, "note": 77, "velocity": 117, "channel": 0}, {"type": "note_off", "time": 627, "note": 77, "velocity": 117, "channel": 0}, {"type": "note_on", "time": 141, "note": 78, "velocity": 110, "channel": 0}, {"type": "note_off", "time": 592, "note": 78, "velocity": 110, "channel": 0}, {"type": "note_on", "time": 415, "note": 73, "velocity": 102, "channel": 0}, {"type": "note_off", "time": 574, "note": 73, "velocity": 102, "channel": 0}, {"type": "note_on", "time": 53, "note": 74, "velocity": 111, "channel": 0}, {"type": "note_off", "time": 291, "note": 74, "velocity": 111, "channel": 0}, {"type": "note_on", "time": 44, "note": 75, "velocity": 107, "channel": 0}, {"type": "note_off", "time": 742, "note": 75, "velocity": 107, "channel": 0}, {"type": "note_on", "time": 141, "note": 70, "velocity": 113, "channel": 0}, {"type": "note_off", "time": 547, "note": 70, "velocity": 113, "channel": 0}, {"type": "note_on", "time": 106, "note": 65, "velocity": 119, "channel": 0}, {"type": "note_off", "time": 512, "note": 65, "velocity": 119, "channel": 0}, {"type": "note_on", "time": 79, "note": 62, "velocity": 103, "channel": 0}, {"type": "note_off", "time": 238, "note": 62, "velocity": 103, "channel": 0}, {"type": "note_on", "time": 97, "note": 65, "velocity": 117, "channel": 0}, {"type": "note_off", "time": 371, "note": 65, "velocity": 117, "channel": 0}, {"type": "note_on", "time": 123, "note": 70, "velocity": 115, "channel": 0}, {"type": "note_off", "time": 327, "note": 70, "velocity": 115, "channel": 0}, {"type": "note_on", "time": 53, "note": 65, "velocity": 115, "channel": 0}, {"type": "note_off", "time": 424, "note": 65, "velocity": 115, "channel": 0}, {"type": "note_on", "time": 132, "note": 66, "velocity": 107, "channel": 0}, {"type": "note_off", "time": 963, "note": 66, "velocity": 107, "channel": 0}, {"type": "note_on", "time": 123, "note": 70, "velocity": 101, "channel": 0}, {"type": "note_off", "time": 503, "note": 70, "velocity": 101, "channel": 0}, {"type": "note_on", "time": 220, "note": 75, "velocity": 99, "channel": 0}, {"type": "note_off", "time": 194, "note": 75, "velocity": 99, "channel": 0}, {"type": "note_on", "time": 79, "note": 76, "velocity": 111, "channel": 0}, {"type": "note_off", "time": 3605, "note": 76, "velocity": 111, "channel": 0}, {"type": "note_on", "time": 79, "note": 74, "velocity": 103, "channel": 0}, {"type": "note_off", "time": 380, "note": 74, "velocity": 103, "channel": 0}, {"type": "note_on", "time": 212, "note": 71, "velocity": 113, "channel": 0}, {"type": "note_off", "time": 397, "note": 71, "velocity": 113, "channel": 0}, {"type": "note_on", "time": 53, "note": 66, "velocity": 109, "channel": 0}, {"type": "note_off", "time": 282, "note": 66, "velocity": 109, "channel": 0}, {"type": "note_on", "time": 44, "note": 62, "velocity": 105, "channel": 0}, {"type": "note_off", "time": 247, "note": 62, "velocity": 105, "channel": 0}, {"type": "note_on", "time": 97, "note": 64, "velocity": 111, "channel": 0}, {"type": "note_off", "time": 2161, "note": 64, "velocity": 111, "channel": 0}, {"type": "note_on", "time": 28462, "note": 64, "velocity": 110, "channel": 0}, {"type": "note_off", "time": 1131, "note": 64, "velocity": 110, "channel": 0}, {"type": "note_on", "time": 220, "note": 69, "velocity": 107, "channel": 0}, {"type": "note_off", "time": 318, "note": 69, "velocity": 107, "channel": 0}, {"type": "note_on", "time": 318, "note": 69, "velocity": 109, "channel": 0}, {"type": "note_off", "time": 371, "note": 69, "velocity": 109, "channel": 0}, {"type": "note_on", "time": 212, "note": 71, "velocity": 105, "channel": 0}, {"type": "note_off", "time": 371, "note": 71, "velocity": 105, "channel": 0}, {"type": "note_on", "time": 7353, "note": 63, "velocity": 106, "channel": 0}, {"type": "note_off", "time": 901, "note": 63, "velocity": 106, "channel": 0}, {"type": "note_on", "time": 159, "note": 68, "velocity": 110, "channel": 0}, {"type": "note_off", "time": 406, "note": 68, "velocity": 110, "channel": 0}, {"type": "note_on", "time": 61, "note": 68, "velocity": 114, "channel": 0}, {"type": "note_off", "time": 397, "note": 68, "velocity": 114, "channel": 0}, {"type": "note_on", "time": 141, "note": 70, "velocity": 110, "channel": 0}, {"type": "note_off", "time": 645, "note": 70, "velocity": 110, "channel": 0}, {"type": "note_on", "time": 6858, "note": 69, "velocity": 115, "channel": 0}, {"type": "note_off", "time": 627, "note": 69, "velocity": 115, "channel": 0}, {"type": "note_on", "time": 167, "note": 69, "velocity": 113, "channel": 0}, {"type": "note_off", "time": 636, "note": 69, "velocity": 113, "channel": 0}, {"type": "note_on", "time": 397, "note": 74, "velocity": 109, "channel": 0}, {"type": "note_off", "time": 724, "note": 74, "velocity": 109, "channel": 0}, {"type": "note_on", "time": 989, "note": 74, "velocity": 110, "channel": 0}, {"type": "note_off", "time": 512, "note": 74, "velocity": 110, "channel": 0}, {"type": "note_on", "time": 150, "note": 76, "velocity": 121, "channel": 0}, {"type": "note_off", "time": 654, "note": 76, "velocity": 121, "channel": 0}, {"type": "note_on", "time": 5461, "note": 72, "velocity": 110, "channel": 0}, {"type": "note_off", "time": 530, "note": 72, "velocity": 110, "channel": 0}, {"type": "note_on", "time": 167, "note": 72, "velocity": 106, "channel": 0}, {"type": "note_off", "time": 574, "note": 72, "velocity": 106, "channel": 0}, {"type": "note_on", "time": 335, "note": 77, "velocity": 114, "channel": 0}, {"type": "note_off", "time": 733, "note": 77, "velocity": 114, "channel": 0}, {"type": "note_on", "time": 707, "note": 77, "velocity": 117, "channel": 0}, {"type": "note_off", "time": 680, "note": 77, "velocity": 117, "channel": 0}, {"type": "note_on", "time": 176, "note": 79, "velocity": 113, "channel": 0}, {"type": "note_off", "time": 2112, "note": 79, "velocity": 113, "channel": 0}, {"type": "note_on", "time": 4790, "note": 80, "velocity": 118, "channel": 0}, {"type": "note_off", "time": 777, "note": 80, "velocity": 118, "channel": 0}, {"type": "note_on", "time": 892, "note": 80, "velocity": 118, "channel": 0}, {"type": "note_off", "time": 671, "note": 80, "velocity": 118, "channel": 0}, {"type": "note_on", "time": 106, "note": 78, "velocity": 111, "channel": 0}, {"type": "note_off", "time": 2271, "note": 78, "velocity": 111, "channel": 0}, {"type": "note_on", "time": 795, "note": 76, "velocity": 119, "channel": 0}, {"type": "note_off", "time": 636, "note": 76, "velocity": 119, "channel": 0}, {"type": "note_on", "time": 698, "note": 76, "velocity": 117, "channel": 0}, {"type": "note_off", "time": 565, "note": 76, "velocity": 117, "channel": 0}, {"type": "note_on", "time": 265, "note": 72, "velocity": 100, "channel": 0}, {"type": "note_off", "time": 2474, "note": 72, "velocity": 100, "channel": 0}, {"type": "note_on", "time": 1299, "note": 74, "velocity": 100, "channel": 0}, {"type": "note_off", "time": 388, "note": 74, "velocity": 100, "channel": 0}, {"type": "note_on", "time": 114, "note": 75, "velocity": 108, "channel": 0}, {"type": "note_off", "time": 662, "note": 75, "velocity": 108, "channel": 0}, {"type": "note_on", "time": 114, "note": 73, "velocity": 110, "channel": 0}, {"type": "note_off", "time": 468, "note": 73, "velocity": 110, "channel": 0}, {"type": "note_on", "time": 26, "note": 74, "velocity": 107, "channel": 0}, {"type": "note_off", "time": 380, "note": 74, "velocity": 107, "channel": 0}, {"type": "note_on", "time": 79, "note": 70, "velocity": 108, "channel": 0}, {"type": "note_off", "time": 459, "note": 70, "velocity": 108, "channel": 0}, {"type": "note_on", "time": 132, "note": 66, "velocity": 106, "channel": 0}, {"type": "note_off", "time": 609, "note": 66, "velocity": 106, "channel": 0}, {"type": "note_on", "time": 212, "note": 62, "velocity": 98, "channel": 0}, {"type": "note_off", "time": 397, "note": 62, "velocity": 98, "channel": 0}, {"type": "note_on", "time": 97, "note": 69, "velocity": 100, "channel": 0}, {"type": "note_off", "time": 468, "note": 69, "velocity": 100, "channel": 0}, {"type": "note_on", "time": 79, "note": 64, "velocity": 105, "channel": 0}, {"type": "note_off", "time": 477, "note": 64, "velocity": 105, "channel": 0}, {"type": "note_on", "time": 132, "note": 63, "velocity": 102, "channel": 0}, {"type": "note_off", "time": 636, "note": 63, "velocity": 102, "channel": 0}, {"type": "note_on", "time": 97, "note": 65, "velocity": 102, "channel": 0}, {"type": "note_off", "time": 1988, "note": 65, "velocity": 102, "channel": 0}, {"type": "note_on", "time": 7600, "note": 58, "velocity": 114, "channel": 0}, {"type": "note_off", "time": 335, "note": 58, "velocity": 114, "channel": 0}, {"type": "note_on", "time": 106, "note": 62, "velocity": 115, "channel": 0}, {"type": "note_off", "time": 344, "note": 62, "velocity": 115, "channel": 0}, {"type": "note_on", "time": 141, "note": 66, "velocity": 118, "channel": 0}, {"type": "note_off", "time": 654, "note": 66, "velocity": 118, "channel": 0}, {"type": "note_on", "time": 106, "note": 65, "velocity": 117, "channel": 0}, {"type": "note_off", "time": 556, "note": 65, "velocity": 117, "channel": 0}, {"type": "note_on", "time": 61, "note": 64, "velocity": 119, "channel": 0}, {"type": "note_off", "time": 521, "note": 64, "velocity": 119, "channel": 0}, {"type": "note_on", "time": 17, "note": 63, "velocity": 112, "channel": 0}, {"type": "note_off", "time": 194, "note": 63, "velocity": 112, "channel": 0}, {"type": "note_on", "time": 132, "note": 67, "velocity": 115, "channel": 0}, {"type": "note_off", "time": 503, "note": 67, "velocity": 115, "channel": 0}, {"type": "note_on", "time": 44, "note": 65, "velocity": 115, "channel": 0}, {"type": "note_off", "time": 176, "note": 65, "velocity": 115, "channel": 0}, {"type": "note_on", "time": 35, "note": 63, "velocity": 115, "channel": 0}, {"type": "note_off", "time": 539, "note": 63, "velocity": 115, "channel": 0}, {"type": "note_on", "time": 106, "note": 65, "velocity": 114, "channel": 0}, {"type": "note_off", "time": 353, "note": 65, "velocity": 114, "channel": 0}, {"type": "note_on", "time": 70, "note": 68, "velocity": 120, "channel": 0}, {"type": "note_off", "time": 397, "note": 68, "velocity": 120, "channel": 0}, {"type": "note_on", "time": 44, "note": 67, "velocity": 118, "channel": 0}, {"type": "note_off", "time": 185, "note": 67, "velocity": 118, "channel": 0}, {"type": "note_on", "time": 70, "note": 70, "velocity": 104, "channel": 0}, {"type": "note_off", "time": 406, "note": 70, "velocity": 104, "channel": 0}, {"type": "note_on", "time": 123, "note": 73, "velocity": 109, "channel": 0}, {"type": "note_off", "time": 97, "note": 73, "velocity": 109, "channel": 0}, {"type": "note_on", "time": 53, "note": 74, "velocity": 107, "channel": 0}, {"type": "note_off", "time": 415, "note": 74, "velocity": 107, "channel": 0}, {"type": "note_on", "time": 132, "note": 76, "velocity": 117, "channel": 0}, {"type": "note_off", "time": 265, "note": 76, "velocity": 117, "channel": 0}, {"type": "note_on", "time": 79, "note": 77, "velocity": 124, "channel": 0}, {"type": "note_off", "time": 565, "note": 77, "velocity": 124, "channel": 0}, {"type": "note_on", "time": 194, "note": 74, "velocity": 104, "channel": 0}, {"type": "note_off", "time": 441, "note": 74, "velocity": 104, "channel": 0}, {"type": "note_on", "time": 97, "note": 75, "velocity": 115, "channel": 0}, {"type": "note_off", "time": 512, "note": 75, "velocity": 115, "channel": 0}, {"type": "note_on", "time": 70, "note": 77, "velocity": 125, "channel": 0}, {"type": "note_off", "time": 627, "note": 77, "velocity": 125, "channel": 0}, {"type": "note_on", "time": 35, "note": 78, "velocity": 117, "channel": 0}, {"type": "note_off", "time": 521, "note": 78, "velocity": 117, "channel": 0}, {"type": "note_on", "time": 106, "note": 80, "velocity": 109, "channel": 0}, {"type": "note_off", "time": 309, "note": 80, "velocity": 109, "channel": 0}, {"type": "note_on", "time": 79, "note": 82, "velocity": 116, "channel": 0}, {"type": "note_off", "time": 680, "note": 82, "velocity": 116, "channel": 0}, {"type": "note_on", "time": 79, "note": 84, "velocity": 114, "channel": 0}, {"type": "note_off", "time": 618, "note": 84, "velocity": 114, "channel": 0}, {"type": "note_on", "time": 88, "note": 83, "velocity": 107, "channel": 0}, {"type": "note_off", "time": 583, "note": 83, "velocity": 107, "channel": 0}, {"type": "note_on", "time": 132, "note": 82, "velocity": 102, "channel": 0}, {"type": "note_off", "time": 539, "note": 82, "velocity": 102, "channel": 0}, {"type": "note_on", "time": 79, "note": 81, "velocity": 106, "channel": 0}, {"type": "note_off", "time": 309, "note": 81, "velocity": 106, "channel": 0}, {"type": "note_on", "time": 185, "note": 78, "velocity": 117, "channel": 0}, {"type": "note_off", "time": 415, "note": 78, "velocity": 117, "channel": 0}, {"type": "note_on", "time": 141, "note": 74, "velocity": 106, "channel": 0}, {"type": "note_off", "time": 583, "note": 74, "velocity": 106, "channel": 0}, {"type": "note_on", "time": 123, "note": 76, "velocity": 110, "channel": 0}, {"type": "note_off", "time": 521, "note": 76, "velocity": 110, "channel": 0}, {"type": "note_on", "time": 79, "note": 81, "velocity": 120, "channel": 0}, {"type": "note_off", "time": 654, "note": 81, "velocity": 120, "channel": 0}, {"type": "note_on", "time": 733, "note": 76, "velocity": 108, "channel": 0}, {"type": "note_off", "time": 627, "note": 76, "velocity": 108, "channel": 0}, {"type": "note_on", "time": 70, "note": 81, "velocity": 116, "channel": 0}, {"type": "note_off", "time": 556, "note": 81, "velocity": 116, "channel": 0}, {"type": "note_on", "time": 35, "note": 80, "velocity": 120, "channel": 0}, {"type": "note_off", "time": 450, "note": 80, "velocity": 120, "channel": 0}, {"type": "note_on", "time": 123, "note": 79, "velocity": 116, "channel": 0}, {"type": "note_off", "time": 503, "note": 79, "velocity": 116, "channel": 0}, {"type": "note_on", "time": 88, "note": 78, "velocity": 117, "channel": 0}, {"type": "note_off", "time": 645, "note": 78, "velocity": 117, "channel": 0}, {"type": "note_on", "time": 247, "note": 73, "velocity": 100, "channel": 0}, {"type": "note_off", "time": 371, "note": 73, "velocity": 100, "channel": 0}, {"type": "note_on", "time": 61, "note": 76, "velocity": 120, "channel": 0}, {"type": "note_off", "time": 715, "note": 76, "velocity": 120, "channel": 0}, {"type": "note_on", "time": 44, "note": 77, "velocity": 117, "channel": 0}, {"type": "note_off", "time": 468, "note": 77, "velocity": 117, "channel": 0}, {"type": "note_on", "time": 70, "note": 79, "velocity": 117, "channel": 0}, {"type": "note_off", "time": 477, "note": 79, "velocity": 117, "channel": 0}, {"type": "note_on", "time": 106, "note": 76, "velocity": 117, "channel": 0}, {"type": "note_off", "time": 406, "note": 76, "velocity": 117, "channel": 0}, {"type": "note_on", "time": 70, "note": 78, "velocity": 120, "channel": 0}, {"type": "note_off", "time": 654, "note": 78, "velocity": 120, "channel": 0}, {"type": "note_on", "time": 212, "note": 74, "velocity": 104, "channel": 0}, {"type": "note_off", "time": 388, "note": 74, "velocity": 104, "channel": 0}, {"type": "note_on", "time": 150, "note": 70, "velocity": 101, "channel": 0}, {"type": "note_off", "time": 928, "note": 70, "velocity": 101, "channel": 0}, {"type": "note_on", "time": 468, "note": 75, "velocity": 113, "channel": 0}, {"type": "note_off", "time": 362, "note": 75, "velocity": 113, "channel": 0}, {"type": "note_on", "time": 256, "note": 70, "velocity": 111, "channel": 0}, {"type": "note_off", "time": 415, "note": 70, "velocity": 111, "channel": 0}, {"type": "note_on", "time": 106, "note": 66, "velocity": 114, "channel": 0}, {"type": "note_off", "time": 512, "note": 66, "velocity": 114, "channel": 0}, {"type": "note_on", "time": 88, "note": 60, "velocity": 107, "channel": 0}, {"type": "note_off", "time": 468, "note": 60, "velocity": 107, "channel": 0}, {"type": "note_on", "time": 106, "note": 70, "velocity": 109, "channel": 0}, {"type": "note_off", "time": 583, "note": 70, "velocity": 109, "channel": 0}, {"type": "note_on", "time": 132, "note": 77, "velocity": 100, "channel": 0}, {"type": "note_off", "time": 1228, "note": 77, "velocity": 100, "channel": 0}, {"type": "note_on", "time": 123, "note": 78, "velocity": 102, "channel": 0}, {"type": "note_off", "time": 2244, "note": 78, "velocity": 102, "channel": 0}, {"type": "note_on", "time": 123, "note": 82, "velocity": 101, "channel": 0}, {"type": "note_off", "time": 1263, "note": 82, "velocity": 101, "channel": 0}, {"type": "note_on", "time": 132, "note": 78, "velocity": 122, "channel": 0}, {"type": "note_off", "time": 415, "note": 78, "velocity": 122, "channel": 0}, {"type": "note_on", "time": 159, "note": 82, "velocity": 109, "channel": 0}, {"type": "note_off", "time": 839, "note": 82, "velocity": 109, "channel": 0}, {"type": "note_on", "time": 424, "note": 83, "velocity": 113, "channel": 0}, {"type": "note_off", "time": 380, "note": 83, "velocity": 113, "channel": 0}, {"type": "note_on", "time": 176, "note": 82, "velocity": 83, "channel": 0}, {"type": "note_off", "time": 433, "note": 82, "velocity": 83, "channel": 0}, {"type": "note_on", "time": 70, "note": 83, "velocity": 92, "channel": 0}, {"type": "note_off", "time": 715, "note": 83, "velocity": 92, "channel": 0}, {"type": "note_on", "time": 167, "note": 79, "velocity": 113, "channel": 0}, {"type": "note_off", "time": 415, "note": 79, "velocity": 113, "channel": 0}, {"type": "note_on", "time": 238, "note": 77, "velocity": 91, "channel": 0}, {"type": "note_off", "time": 486, "note": 77, "velocity": 91, "channel": 0}, {"type": "note_on", "time": 35, "note": 85, "velocity": 112, "channel": 0}, {"type": "note_off", "time": 335, "note": 85, "velocity": 112, "channel": 0}, {"type": "note_on", "time": 106, "note": 84, "velocity": 106, "channel": 0}, {"type": "note_off", "time": 344, "note": 84, "velocity": 106, "channel": 0}, {"type": "note_on", "time": 53, "note": 85, "velocity": 111, "channel": 0}, {"type": "note_off", "time": 247, "note": 85, "velocity": 111, "channel": 0}, {"type": "note_on", "time": 176, "note": 82, "velocity": 116, "channel": 0}, {"type": "note_off", "time": 424, "note": 82, "velocity": 116, "channel": 0}, {"type": "note_on", "time": 106, "note": 84, "velocity": 113, "channel": 0}, {"type": "note_off", "time": 530, "note": 84, "velocity": 113, "channel": 0}, {"type": "note_on", "time": 141, "note": 86, "velocity": 94, "channel": 0}, {"type": "note_off", "time": 724, "note": 86, "velocity": 94, "channel": 0}, {"type": "note_on", "time": 9695, "note": 81, "velocity": 122, "channel": 0}, {"type": "note_off", "time": 424, "note": 81, "velocity": 122, "channel": 0}, {"type": "note_on", "time": 61, "note": 82, "velocity": 104, "channel": 0}, {"type": "note_off", "time": 114, "note": 82, "velocity": 104, "channel": 0}, {"type": "note_on", "time": 79, "note": 84, "velocity": 108, "channel": 0}, {"type": "note_off", "time": 159, "note": 84, "velocity": 108, "channel": 0}, {"type": "note_on", "time": 114, "note": 86, "velocity": 111, "channel": 0}, {"type": "note_off", "time": 742, "note": 86, "velocity": 111, "channel": 0}, {"type": "note_on", "time": 88, "note": 85, "velocity": 112, "channel": 0}, {"type": "note_off", "time": 61, "note": 85, "velocity": 112, "channel": 0}, {"type": "note_on", "time": 44, "note": 84, "velocity": 109, "channel": 0}, {"type": "note_off", "time": 176, "note": 84, "velocity": 109, "channel": 0}, {"type": "note_on", "time": 61, "note": 82, "velocity": 116, "channel": 0}, {"type": "note_off", "time": 627, "note": 82, "velocity": 116, "channel": 0}, {"type": "note_on", "time": 94, "note": 83, "velocity": 108, "channel": 0}, {"type": "note_off", "time": 4412, "note": 83, "velocity": 108, "channel": 0}, {"type": "note_on", "time": 654, "note": 84, "velocity": 107, "channel": 0}, {"type": "note_off", "time": 203, "note": 84, "velocity": 107, "channel": 0}, {"type": "note_on", "time": 141, "note": 83, "velocity": 112, "channel": 0}, {"type": "note_off", "time": 671, "note": 83, "velocity": 112, "channel": 0}, {"type": "note_on", "time": 344, "note": 82, "velocity": 106, "channel": 0}, {"type": "note_off", "time": 530, "note": 82, "velocity": 106, "channel": 0}, {"type": "note_on", "time": 212, "note": 85, "velocity": 108, "channel": 0}, {"type": "note_off", "time": 795, "note": 85, "velocity": 108, "channel": 0}, {"type": "note_on", "time": 176, "note": 82, "velocity": 108, "channel": 0}, {"type": "note_off", "time": 574, "note": 82, "velocity": 108, "channel": 0}, {"type": "note_on", "time": 70, "note": 83, "velocity": 111, "channel": 0}, {"type": "note_off", "time": 114, "note": 83, "velocity": 111, "channel": 0}, {"type": "note_on", "time": 88, "note": 84, "velocity": 109, "channel": 0}, {"type": "note_off", "time": 450, "note": 84, "velocity": 109, "channel": 0}, {"type": "note_on", "time": 61, "note": 85, "velocity": 111, "channel": 0}, {"type": "note_off", "time": 804, "note": 85, "velocity": 111, "channel": 0}, {"type": "note_on", "time": 79, "note": 83, "velocity": 112, "channel": 0}, {"type": "note_off", "time": 273, "note": 83, "velocity": 112, "channel": 0}, {"type": "note_on", "time": 300, "note": 86, "velocity": 104, "channel": 0}, {"type": "note_off", "time": 238, "note": 86, "velocity": 104, "channel": 0}, {"type": "note_on", "time": 70, "note": 85, "velocity": 107, "channel": 0}, {"type": "note_off", "time": 2227, "note": 85, "velocity": 107, "channel": 0}, {"type": "note_on", "time": 123, "note": 82, "velocity": 116, "channel": 0}, {"type": "note_off", "time": 530, "note": 82, "velocity": 116, "channel": 0}, {"type": "note_on", "time": 88, "note": 83, "velocity": 109, "channel": 0}, {"type": "note_off", "time": 768, "note": 83, "velocity": 109, "channel": 0}, {"type": "note_on", "time": 97, "note": 84, "velocity": 99, "channel": 0}, {"type": "note_off", "time": 265, "note": 84, "velocity": 99, "channel": 0}, {"type": "note_on", "time": 167, "note": 83, "velocity": 107, "channel": 0}, {"type": "note_off", "time": 282, "note": 83, "velocity": 107, "channel": 0}, {"type": "note_on", "time": 159, "note": 85, "velocity": 108, "channel": 0}, {"type": "note_off", "time": 680, "note": 85, "velocity": 108, "channel": 0}, {"type": "note_on", "time": 79, "note": 83, "velocity": 110, "channel": 0}, {"type": "note_off", "time": 468, "note": 83, "velocity": 110, "channel": 0}, {"type": "note_on", "time": 282, "note": 79, "velocity": 102, "channel": 0}, {"type": "note_off", "time": 592, "note": 79, "velocity": 102, "channel": 0}, {"type": "note_on", "time": 35, "note": 80, "velocity": 107, "channel": 0}, {"type": "note_off", "time": 194, "note": 80, "velocity": 107, "channel": 0}, {"type": "note_on", "time": 26, "note": 81, "velocity": 108, "channel": 0}, {"type": "note_off", "time": 185, "note": 81, "velocity": 108, "channel": 0}, {"type": "note_on", "time": 88, "note": 83, "velocity": 112, "channel": 0}, {"type": "note_off", "time": 203, "note": 83, "velocity": 112, "channel": 0}, {"type": "note_on", "time": 79, "note": 85, "velocity": 116, "channel": 0}, {"type": "note_off", "time": 707, "note": 85, "velocity": 116, "channel": 0}, {"type": "note_on", "time": 70, "note": 86, "velocity": 112, "channel": 0}, {"type": "note_off", "time": 521, "note": 86, "velocity": 112, "channel": 0}, {"type": "note_on", "time": 44, "note": 85, "velocity": 102, "channel": 0}, {"type": "note_off", "time": 132, "note": 85, "velocity": 102, "channel": 0}, {"type": "note_on", "time": 123, "note": 83, "velocity": 109, "channel": 0}, {"type": "note_off", "time": 433, "note": 83, "velocity": 109, "channel": 0}, {"type": "note_on", "time": 35, "note": 84, "velocity": 108, "channel": 0}, {"type": "note_off", "time": 556, "note": 84, "velocity": 108, "channel": 0}, {"type": "note_on", "time": 123, "note": 83, "velocity": 122, "channel": 0}, {"type": "note_off", "time": 715, "note": 83, "velocity": 122, "channel": 0}, {"type": "note_on", "time": 33, "note": 85, "velocity": 110, "channel": 0}, {"type": "note_off", "time": 329, "note": 85, "velocity": 110, "channel": 0}, {"type": "note_on", "time": 49, "note": 86, "velocity": 114, "channel": 0}, {"type": "note_off", "time": 428, "note": 86, "velocity": 114, "channel": 0}, {"type": "note_on", "time": 80, "note": 82, "velocity": 110, "channel": 0}, {"type": "note_off", "time": 310, "note": 82, "velocity": 110, "channel": 0}, {"type": "note_on", "time": 37, "note": 85, "velocity": 112, "channel": 0}, {"type": "note_off", "time": 198, "note": 85, "velocity": 112, "channel": 0}, {"type": "note_on", "time": 111, "note": 84, "velocity": 115, "channel": 0}, {"type": "note_off", "time": 310, "note": 84, "velocity": 115, "channel": 0}, {"type": "note_on", "time": 49, "note": 85, "velocity": 100, "channel": 0}, {"type": "note_off", "time": 254, "note": 85, "velocity": 100, "channel": 0}, {"type": "note_on", "time": 99, "note": 84, "velocity": 104, "channel": 0}, {"type": "note_off", "time": 696, "note": 84, "velocity": 104, "channel": 0}, {"type": "note_on", "time": 149, "note": 85, "velocity": 108, "channel": 0}, {"type": "note_off", "time": 975, "note": 85, "velocity": 108, "channel": 0}, {"type": "note_on", "time": 49, "note": 82, "velocity": 116, "channel": 0}, {"type": "note_off", "time": 167, "note": 82, "velocity": 116, "channel": 0}, {"type": "note_on", "time": 93, "note": 81, "velocity": 108, "channel": 0}, {"type": "note_off", "time": 180, "note": 81, "velocity": 108, "channel": 0}, {"type": "note_on", "time": 130, "note": 85, "velocity": 106, "channel": 0}, {"type": "note_off", "time": 820, "note": 85, "velocity": 106, "channel": 0}, {"type": "note_on", "time": 155, "note": 84, "velocity": 111, "channel": 0}, {"type": "note_off", "time": 1118, "note": 84, "velocity": 111, "channel": 0}, {"type": "note_on", "time": 49, "note": 83, "velocity": 113, "channel": 0}, {"type": "note_off", "time": 565, "note": 83, "velocity": 113, "channel": 0}, {"type": "note_on", "time": 18, "note": 84, "velocity": 106, "channel": 0}, {"type": "note_off", "time": 236, "note": 84, "velocity": 106, "channel": 0}, {"type": "note_on", "time": 68, "note": 85, "velocity": 112, "channel": 0}, {"type": "note_off", "time": 273, "note": 85, "velocity": 112, "channel": 0}, {"type": "note_on", "time": 74, "note": 86, "velocity": 111, "channel": 0}, {"type": "note_off", "time": 627, "note": 86, "velocity": 111, "channel": 0}, {"type": "note_on", "time": 68, "note": 85, "velocity": 114, "channel": 0}, {"type": "note_off", "time": 254, "note": 85, "velocity": 114, "channel": 0}, {"type": "note_on", "time": 68, "note": 83, "velocity": 104, "channel": 0}, {"type": "note_off", "time": 174, "note": 83, "velocity": 104, "channel": 0}, {"type": "note_on", "time": 37, "note": 84, "velocity": 109, "channel": 0}, {"type": "note_off", "time": 1348, "note": 84, "velocity": 109, "channel": 0}, {"type": "note_on", "time": 68, "note": 85, "velocity": 115, "channel": 0}, {"type": "note_off", "time": 347, "note": 85, "velocity": 115, "channel": 0}, {"type": "note_on", "time": 99, "note": 86, "velocity": 113, "channel": 0}, {"type": "note_off", "time": 354, "note": 86, "velocity": 113, "channel": 0}, {"type": "note_on", "time": 105, "note": 87, "velocity": 111, "channel": 0}, {"type": "note_off", "time": 702, "note": 87, "velocity": 111, "channel": 0}, {"type": "note_on", "time": 31, "note": 86, "velocity": 113, "channel": 0}, {"type": "note_off", "time": 87, "note": 86, "velocity": 113, "channel": 0}, {"type": "note_on", "time": 37, "note": 85, "velocity": 104, "channel": 0}, {"type": "note_off", "time": 205, "note": 85, "velocity": 104, "channel": 0}, {"type": "note_on", "time": 174, "note": 84, "velocity": 101, "channel": 0}, {"type": "note_off", "time": 956, "note": 84, "velocity": 101, "channel": 0}, {"type": "note_on", "time": 87, "note": 85, "velocity": 110, "channel": 0}, {"type": "note_off", "time": 341, "note": 85, "velocity": 110, "channel": 0}, {"type": "note_on", "time": 62, "note": 86, "velocity": 116, "channel": 0}, {"type": "note_off", "time": 354, "note": 86, "velocity": 116, "channel": 0}, {"type": "note_on", "time": 74, "note": 87, "velocity": 110, "channel": 0}, {"type": "note_off", "time": 161, "note": 87, "velocity": 110, "channel": 0}, {"type": "note_on", "time": 37, "note": 88, "velocity": 100, "channel": 0}, {"type": "note_off", "time": 969, "note": 88, "velocity": 100, "channel": 0}, {"type": "note_on", "time": 105, "note": 86, "velocity": 118, "channel": 0}, {"type": "note_off", "time": 497, "note": 86, "velocity": 118, "channel": 0}, {"type": "note_on", "time": 93, "note": 87, "velocity": 120, "channel": 0}, {"type": "note_off", "time": 528, "note": 87, "velocity": 120, "channel": 0}, {"type": "note_on", "time": 250, "note": 89, "velocity": 110, "channel": 0}, {"type": "note_off", "time": 1140, "note": 89, "velocity": 110, "channel": 0}, {"type": "note_on", "time": 150, "note": 90, "velocity": 101, "channel": 0}, {"type": "note_off", "time": 298, "note": 90, "velocity": 101, "channel": 0}, {"type": "note_on", "time": 93, "note": 93, "velocity": 99, "channel": 0}, {"type": "note_off", "time": 273, "note": 93, "velocity": 99, "channel": 0}, {"type": "note_on", "time": 121, "note": 89, "velocity": 102, "channel": 0}, {"type": "note_off", "time": 2616, "note": 89, "velocity": 102, "channel": 0}, {"type": "note_on", "time": 97, "note": 92, "velocity": 75, "channel": 0}, {"type": "note_off", "time": 7220, "note": 92, "velocity": 75, "channel": 0}, {"type": "note_on", "time": 194, "note": 91, "velocity": 94, "channel": 0}, {"type": "note_off", "time": 1069, "note": 91, "velocity": 94, "channel": 0}, {"type": "note_on", "time": 61, "note": 89, "velocity": 109, "channel": 0}, {"type": "note_off", "time": 1069, "note": 89, "velocity": 109, "channel": 0}, {"type": "note_on", "time": 500, "note": 83, "velocity": 114, "channel": 0}, {"type": "note_off", "time": 621, "note": 83, "velocity": 114, "channel": 0}, {"type": "note_on", "time": 248, "note": 81, "velocity": 114, "channel": 0}, {"type": "note_off", "time": 422, "note": 81, "velocity": 114, "channel": 0}, {"type": "note_on", "time": 74, "note": 81, "velocity": 116, "channel": 0}, {"type": "note_off", "time": 832, "note": 81, "velocity": 116, "channel": 0}, {"type": "note_on", "time": 111, "note": 82, "velocity": 113, "channel": 0}, {"type": "note_off", "time": 621, "note": 82, "velocity": 113, "channel": 0}, {"type": "note_on", "time": 75, "note": 81, "velocity": 115, "channel": 0}, {"type": "note_off", "time": 212, "note": 81, "velocity": 115, "channel": 0}, {"type": "note_on", "time": 88, "note": 82, "velocity": 115, "channel": 0}, {"type": "note_off", "time": 388, "note": 82, "velocity": 115, "channel": 0}, {"type": "note_on", "time": 97, "note": 81, "velocity": 113, "channel": 0}, {"type": "note_off", "time": 167, "note": 81, "velocity": 113, "channel": 0}, {"type": "note_on", "time": 97, "note": 82, "velocity": 113, "channel": 0}, {"type": "note_off", "time": 238, "note": 82, "velocity": 113, "channel": 0}, {"type": "note_on", "time": 82, "note": 80, "velocity": 115, "channel": 0}, {"type": "note_off", "time": 441, "note": 80, "velocity": 115, "channel": 0}, {"type": "note_on", "time": 93, "note": 79, "velocity": 113, "channel": 0}, {"type": "note_off", "time": 466, "note": 79, "velocity": 113, "channel": 0}, {"type": "note_on", "time": 205, "note": 78, "velocity": 115, "channel": 0}, {"type": "note_off", "time": 310, "note": 78, "velocity": 115, "channel": 0}, {"type": "note_on", "time": 118, "note": 77, "velocity": 114, "channel": 0}, {"type": "note_off", "time": 466, "note": 77, "velocity": 114, "channel": 0}, {"type": "note_on", "time": 161, "note": 76, "velocity": 114, "channel": 0}, {"type": "note_off", "time": 447, "note": 76, "velocity": 114, "channel": 0}, {"type": "note_on", "time": 99, "note": 75, "velocity": 106, "channel": 0}, {"type": "note_off", "time": 441, "note": 75, "velocity": 106, "channel": 0}, {"type": "note_on", "time": 124, "note": 74, "velocity": 108, "channel": 0}, {"type": "note_off", "time": 428, "note": 74, "velocity": 108, "channel": 0}, {"type": "note_on", "time": 173, "note": 73, "velocity": 112, "channel": 0}, {"type": "note_off", "time": 553, "note": 73, "velocity": 112, "channel": 0}, {"type": "note_on", "time": 49, "note": 72, "velocity": 106, "channel": 0}, {"type": "note_off", "time": 366, "note": 72, "velocity": 106, "channel": 0}, {"type": "note_on", "time": 118, "note": 71, "velocity": 114, "channel": 0}, {"type": "note_off", "time": 553, "note": 71, "velocity": 114, "channel": 0}, {"type": "note_on", "time": 111, "note": 70, "velocity": 107, "channel": 0}, {"type": "note_off", "time": 615, "note": 70, "velocity": 107, "channel": 0}, {"type": "note_on", "time": 87, "note": 69, "velocity": 110, "channel": 0}, {"type": "note_off", "time": 447, "note": 69, "velocity": 110, "channel": 0}, {"type": "note_on", "time": 86, "note": 68, "velocity": 117, "channel": 0}, {"type": "note_off", "time": 627, "note": 68, "velocity": 117, "channel": 0}, {"type": "note_on", "time": 24, "note": 67, "velocity": 116, "channel": 0}, {"type": "note_off", "time": 565, "note": 67, "velocity": 116, "channel": 0}, {"type": "note_on", "time": 24, "note": 66, "velocity": 116, "channel": 0}, {"type": "note_off", "time": 559, "note": 66, "velocity": 116, "channel": 0}, {"type": "note_on", "time": 62, "note": 65, "velocity": 115, "channel": 0}, {"type": "note_off", "time": 615, "note": 65, "velocity": 115, "channel": 0}, {"type": "note_on", "time": 62, "note": 64, "velocity": 114, "channel": 0}, {"type": "note_off", "time": 590, "note": 64, "velocity": 114, "channel": 0}, {"type": "note_on", "time": 111, "note": 63, "velocity": 113, "channel": 0}, {"type": "note_off", "time": 490, "note": 63, "velocity": 113, "channel": 0}, {"type": "note_on", "time": 155, "note": 67, "velocity": 114, "channel": 0}, {"type": "note_off", "time": 341, "note": 67, "velocity": 114, "channel": 0}, {"type": "note_on", "time": 167, "note": 62, "velocity": 109, "channel": 0}, {"type": "note_off", "time": 329, "note": 62, "velocity": 109, "channel": 0}, {"type": "note_on", "time": 87, "note": 67, "velocity": 113, "channel": 0}, {"type": "note_off", "time": 602, "note": 67, "velocity": 113, "channel": 0}, {"type": "note_on", "time": 68, "note": 62, "velocity": 107, "channel": 0}, {"type": "note_off", "time": 379, "note": 62, "velocity": 107, "channel": 0}, {"type": "note_on", "time": 217, "note": 67, "velocity": 112, "channel": 0}, {"type": "note_off", "time": 627, "note": 67, "velocity": 112, "channel": 0}, {"type": "note_on", "time": 118, "note": 62, "velocity": 100, "channel": 0}, {"type": "note_off", "time": 428, "note": 62, "velocity": 100, "channel": 0}, {"type": "note_on", "time": 68, "note": 67, "velocity": 109, "channel": 0}, {"type": "note_off", "time": 640, "note": 67, "velocity": 109, "channel": 0}, {"type": "note_on", "time": 111, "note": 62, "velocity": 104, "channel": 0}, {"type": "note_off", "time": 497, "note": 62, "velocity": 104, "channel": 0}, {"type": "note_on", "time": 124, "note": 67, "velocity": 107, "channel": 0}, {"type": "note_off", "time": 534, "note": 67, "velocity": 107, "channel": 0}, {"type": "note_on", "time": 49, "note": 62, "velocity": 106, "channel": 0}, {"type": "note_off", "time": 565, "note": 62, "velocity": 106, "channel": 0}, {"type": "note_on", "time": 62, "note": 67, "velocity": 113, "channel": 0}, {"type": "note_off", "time": 497, "note": 67, "velocity": 113, "channel": 0}, {"type": "note_on", "time": 37, "note": 62, "velocity": 107, "channel": 0}, {"type": "note_off", "time": 577, "note": 62, "velocity": 107, "channel": 0}, {"type": "note_on", "time": 93, "note": 67, "velocity": 113, "channel": 0}, {"type": "note_off", "time": 422, "note": 67, "velocity": 113, "channel": 0}, {"type": "note_on", "time": 149, "note": 62, "velocity": 107, "channel": 0}, {"type": "note_off", "time": 621, "note": 62, "velocity": 107, "channel": 0}, {"type": "note_on", "time": 31, "note": 67, "velocity": 115, "channel": 0}, {"type": "note_off", "time": 671, "note": 67, "velocity": 115, "channel": 0}, {"type": "note_on", "time": 49, "note": 66, "velocity": 113, "channel": 0}, {"type": "note_off", "time": 1124, "note": 66, "velocity": 113, "channel": 0}, {"type": "note_on", "time": 80, "note": 67, "velocity": 110, "channel": 0}, {"type": "note_off", "time": 720, "note": 67, "velocity": 110, "channel": 0}, {"type": "note_on", "time": 49, "note": 69, "velocity": 103, "channel": 0}, {"type": "note_off", "time": 814, "note": 69, "velocity": 103, "channel": 0}, {"type": "note_on", "time": 35651, "note": 63, "velocity": 113, "channel": 0}, {"type": "note_off", "time": 354, "note": 63, "velocity": 113, "channel": 0}, {"type": "note_on", "time": 93, "note": 64, "velocity": 119, "channel": 0}, {"type": "note_off", "time": 385, "note": 64, "velocity": 119, "channel": 0}, {"type": "note_on", "time": 93, "note": 67, "velocity": 114, "channel": 0}, {"type": "note_off", "time": 559, "note": 67, "velocity": 114, "channel": 0}, {"type": "note_on", "time": 62, "note": 66, "velocity": 112, "channel": 0}, {"type": "note_off", "time": 540, "note": 66, "velocity": 112, "channel": 0}, {"type": "note_on", "time": 5381, "note": 66, "velocity": 116, "channel": 0}, {"type": "note_off", "time": 708, "note": 66, "velocity": 116, "channel": 0}, {"type": "note_on", "time": 49, "note": 67, "velocity": 117, "channel": 0}, {"type": "note_off", "time": 646, "note": 67, "velocity": 117, "channel": 0}, {"type": "note_on", "time": 62, "note": 69, "velocity": 109, "channel": 0}, {"type": "note_off", "time": 708, "note": 69, "velocity": 109, "channel": 0}, {"type": "note_on", "time": 211, "note": 74, "velocity": 107, "channel": 0}, {"type": "note_off", "time": 633, "note": 74, "velocity": 107, "channel": 0}, {"type": "note_on", "time": 211, "note": 72, "velocity": 110, "channel": 0}, {"type": "note_off", "time": 869, "note": 72, "velocity": 110, "channel": 0}, {"type": "note_on", "time": 435, "note": 69, "velocity": 110, "channel": 0}, {"type": "note_off", "time": 1193, "note": 69, "velocity": 110, "channel": 0}, {"type": "note_on", "time": 633, "note": 69, "velocity": 107, "channel": 0}, {"type": "note_off", "time": 969, "note": 69, "velocity": 107, "channel": 0}, {"type": "note_on", "time": 3964, "note": 69, "velocity": 102, "channel": 0}, {"type": "note_off", "time": 534, "note": 69, "velocity": 102, "channel": 0}, {"type": "note_on", "time": 283, "note": 69, "velocity": 93, "channel": 0}, {"type": "note_off", "time": 539, "note": 69, "velocity": 93, "channel": 0}, {"type": "note_on", "time": 291, "note": 69, "velocity": 111, "channel": 0}, {"type": "note_off", "time": 486, "note": 69, "velocity": 111, "channel": 0}, {"type": "note_on", "time": 203, "note": 69, "velocity": 112, "channel": 0}, {"type": "note_off", "time": 521, "note": 69, "velocity": 112, "channel": 0}, {"type": "note_on", "time": 433, "note": 69, "velocity": 106, "channel": 0}, {"type": "note_off", "time": 627, "note": 69, "velocity": 106, "channel": 0}, {"type": "note_on", "time": 574, "note": 69, "velocity": 107, "channel": 0}, {"type": "note_off", "time": 583, "note": 69, "velocity": 107, "channel": 0}, {"type": "note_on", "time": 362, "note": 69, "velocity": 98, "channel": 0}, {"type": "note_off", "time": 450, "note": 69, "velocity": 98, "channel": 0}, {"type": "note_on", "time": 371, "note": 69, "velocity": 115, "channel": 0}, {"type": "note_off", "time": 468, "note": 69, "velocity": 115, "channel": 0}, {"type": "note_on", "time": 459, "note": 69, "velocity": 111, "channel": 0}, {"type": "note_off", "time": 468, "note": 69, "velocity": 111, "channel": 0}, {"type": "note_on", "time": 433, "note": 81, "velocity": 100, "channel": 0}, {"type": "note_off", "time": 1078, "note": 81, "velocity": 100, "channel": 0}, {"type": "note_on", "time": 61, "note": 80, "velocity": 79, "channel": 0}, {"type": "note_off", "time": 309, "note": 80, "velocity": 79, "channel": 0}, {"type": "note_on", "time": 11259, "note": 69, "velocity": 121, "channel": 0}, {"type": "note_off", "time": 300, "note": 69, "velocity": 121, "channel": 0}, {"type": "note_on", "time": 97, "note": 68, "velocity": 122, "channel": 0}, {"type": "note_off", "time": 212, "note": 68, "velocity": 122, "channel": 0}, {"type": "note_on", "time": 79, "note": 67, "velocity": 118, "channel": 0}, {"type": "note_off", "time": 556, "note": 67, "velocity": 118, "channel": 0}, {"type": "note_on", "time": 220, "note": 66, "velocity": 112, "channel": 0}, {"type": "note_off", "time": 9051, "note": 66, "velocity": 112, "channel": 0}, {"type": "note_on", "time": 183, "note": 64, "velocity": 116, "channel": 0}, {"type": "note_off", "time": 353, "note": 64, "velocity": 116, "channel": 0}, {"type": "note_on", "time": 257, "note": 66, "velocity": 118, "channel": 0}, {"type": "note_off", "time": 466, "note": 66, "velocity": 118, "channel": 0}, {"type": "note_on", "time": 105, "note": 67, "velocity": 114, "channel": 0}, {"type": "note_off", "time": 379, "note": 67, "velocity": 114, "channel": 0}, {"type": "note_on", "time": 130, "note": 69, "velocity": 105, "channel": 0}, {"type": "note_off", "time": 248, "note": 69, "velocity": 105, "channel": 0}, {"type": "note_on", "time": 55, "note": 67, "velocity": 113, "channel": 0}, {"type": "note_off", "time": 397, "note": 67, "velocity": 113, "channel": 0}, {"type": "note_on", "time": 74, "note": 66, "velocity": 116, "channel": 0}, {"type": "note_off", "time": 801, "note": 66, "velocity": 116, "channel": 0}, {"type": "note_on", "time": 122, "note": 67, "velocity": 111, "channel": 0}, {"type": "note_off", "time": 5956, "note": 67, "velocity": 111, "channel": 0}, {"type": "note_on", "time": 194, "note": 66, "velocity": 114, "channel": 0}, {"type": "note_off", "time": 724, "note": 66, "velocity": 114, "channel": 0}, {"type": "note_on", "time": 106, "note": 67, "velocity": 117, "channel": 0}, {"type": "note_off", "time": 318, "note": 67, "velocity": 117, "channel": 0}, {"type": "note_on", "time": 247, "note": 69, "velocity": 105, "channel": 0}, {"type": "note_off", "time": 353, "note": 69, "velocity": 105, "channel": 0}, {"type": "note_on", "time": 53, "note": 71, "velocity": 112, "channel": 0}, {"type": "note_off", "time": 282, "note": 71, "velocity": 112, "channel": 0}, {"type": "note_on", "time": 176, "note": 69, "velocity": 107, "channel": 0}, {"type": "note_off", "time": 494, "note": 69, "velocity": 107, "channel": 0}, {"type": "note_on", "time": 141, "note": 67, "velocity": 113, "channel": 0}, {"type": "note_off", "time": 494, "note": 67, "velocity": 113, "channel": 0}, {"type": "note_on", "time": 335, "note": 69, "velocity": 109, "channel": 0}, {"type": "note_off", "time": 4312, "note": 69, "velocity": 109, "channel": 0}, {"type": "end_of_track", "time": 0}]]}