{"ticks_per_beat": 192, "tracks": [[{"type": "track_name", "name": "Melody", "time": 0}, {"type": "set_tempo", "tempo": 229007, "time": 0}, {"type": "key_signature", "key": "Eb", "time": 0}, {"type": "time_signature", "numerator": 4, "denominator": 4, "clocks_per_click": 24, "notated_32nd_notes_per_beat": 8, "time": 0}, {"type": "note_on", "time": 4027, "note": 71, "velocity": 112, "channel": 0}, {"type": "note_off", "time": 131, "note": 71, "velocity": 112, "channel": 0}, {"type": "note_on", "time": 34, "note": 78, "velocity": 124, "channel": 0}, {"type": "note_off", "time": 92, "note": 78, "velocity": 124, "channel": 0}, {"type": "note_on", "time": 43, "note": 75, "velocity": 117, "channel": 0}, {"type": "note_off", "time": 97, "note": 75, "velocity": 117, "channel": 0}, {"type": "note_on", "time": 56, "note": 71, "velocity": 111, "channel": 0}, {"type": "note_off", "time": 2415, "note": 71, "velocity": 111, "channel": 0}, {"type": "note_on", "time": 87, "note": 66, "velocity": 117, "channel": 0}, {"type": "note_off", "time": 87, "note": 66, "velocity": 117, "channel": 0}, {"type": "note_on", "time": 26, "note": 70, "velocity": 111, "channel": 0}, {"type": "note_off", "time": 82, "note": 70, "velocity": 111, "channel": 0}, {"type": "note_on", "time": 19, "note": 65, "velocity": 120, "channel": 0}, {"type": "note_off", "time": 102, "note": 65, "velocity": 120, "channel": 0}, {"type": "note_on", "time": 6, "note": 66, "velocity": 118, "channel": 0}, {"type": "note_off", "time": 63, "note": 66, "velocity": 118, "channel": 0}, {"type": "note_on", "time": 32, "note": 71, "velocity": 111, "channel": 0}, {"type": "note_off", "time": 65, "note": 71, "velocity": 111, "channel": 0}, {"type": "note_on", "time": 10, "note": 72, "velocity": 116, "channel": 0}, {"type": "note_off", "time": 73, "note": 72, "velocity": 116, "channel": 0}, {"type": "note_on", "time": 11, "note": 75, "velocity": 121, "channel": 0}, {"type": "note_off", "time": 70, "note": 75, "velocity": 121, "channel": 0}, {"type": "note_on", "time": 20, "note": 77, "velocity": 122, "channel": 0}, {"type": "note_off", "time": 76, "note": 77, "velocity": 122, "channel": 0}, {"type": "note_on", "time": 10, "note": 78, "velocity": 118, "channel": 0}, {"type": "note_off", "time": 97, "note": 78, "velocity": 118, "channel": 0}, {"type": "note_on", "time": 32, "note": 75, "velocity": 111, "channel": 0}, {"type": "note_off", "time": 65, "note": 75, "velocity": 111, "channel": 0}, {"type": "note_on", "time": 17, "note": 77, "velocity": 122, "channel": 0}, {"type": "note_off", "time": 116, "note": 77, "velocity": 122, "channel": 0}, {"type": "note_on", "time": 20, "note": 75, "velocity": 116, "channel": 0}, {"type": "note_off", "time": 54, "note": 75, "velocity": 116, "channel": 0}, {"type": "note_on", "time": 32, "note": 72, "velocity": 109, "channel": 0}, {"type": "note_off", "time": 88, "note": 72, "velocity": 109, "channel": 0}, {"type": "note_on", "time": 15, "note": 71, "velocity": 97, "channel": 0}, {"type": "note_off", "time": 44, "note": 71, "velocity": 97, "channel": 0}, {"type": "note_on", "time": 29, "note": 75, "velocity": 123, "channel": 0}, {"type": "note_off", "time": 85, "note": 75, "velocity": 123, "channel": 0}, {"type": "note_on", "time": 35, "note": 71, "velocity": 110, "channel": 0}, {"type": "note_off", "time": 54, "note": 71, "velocity": 110, "channel": 0}, {"type": "note_on", "time": 20, "note": 66, "velocity": 113, "channel": 0}, {"type": "note_off", "time": 71, "note": 66, "velocity": 113, "channel": 0}, {"type": "note_on", "time": 23, "note": 63, "velocity": 109, "channel": 0}, {"type": "note_off", "time": 49, "note": 63, "velocity": 109, "channel": 0}, {"type": "note_on", "time": 10, "note": 62, "velocity": 103, "channel": 0}, {"type": "note_off", "time": 22, "note": 62, "velocity": 103, "channel": 0}, {"type": "note_on", "time": 23, "note": 67, "velocity": 106, "channel": 0}, {"type": "note_off", "time": 29, "note": 67, "velocity": 106, "channel": 0}, {"type": "note_on", "time": 13, "note": 71, "velocity": 108, "channel": 0}, {"type": "note_off", "time": 133, "note": 71, "velocity": 108, "channel": 0}, {"type": "note_on", "time": 27, "note": 75, "velocity": 115, "channel": 0}, {"type": "note_off", "time": 109, "note": 75, "velocity": 115, "channel": 0}, {"type": "note_on", "time": 35, "note": 71, "velocity": 107, "channel": 0}, {"type": "note_off", "time": 975, "note": 71, "velocity": 107, "channel": 0}, {"type": "note_on", "time": 29, "note": 68, "velocity": 112, "channel": 0}, {"type": "note_off", "time": 94, "note": 68, "velocity": 112, "channel": 0}, {"type": "note_on", "time": 20, "note": 71, "velocity": 108, "channel": 0}, {"type": "note_off", "time": 70, "note": 71, "velocity": 108, "channel": 0}, {"type": "note_on", "time": 11, "note": 68, "velocity": 118, "channel": 0}, {"type": "note_off", "time": 92, "note": 68, "velocity": 118, "channel": 0}, {"type": "note_on", "time": 27, "note": 66, "velocity": 115, "channel": 0}, {"type": "note_off", "time": 73, "note": 66, "velocity": 115, "channel": 0}, {"type": "note_on", "time": 17, "note": 63, "velocity": 110, "channel": 0}, {"type": "note_off", "time": 87, "note": 63, "velocity": 110, "channel": 0}, {"type": "note_on", "time": 8, "note": 66, "velocity": 112, "channel": 0}, {"type": "note_off", "time": 87, "note": 66, "velocity": 112, "channel": 0}, {"type": "note_on", "time": 10, "note": 68, "velocity": 119, "channel": 0}, {"type": "note_off", "time": 94, "note": 68, "velocity": 119, "channel": 0}, {"type": "note_on", "time": 20, "note": 71, "velocity": 110, "channel": 0}, {"type": "note_off", "time": 65, "note": 71, "velocity": 110, "channel": 0}, {"type": "note_on", "time": 13, "note": 73, "velocity": 117, "channel": 0}, {"type": "note_off", "time": 95, "note": 73, "velocity": 117, "channel": 0}, {"type": "note_on", "time": 20, "note": 75, "velocity": 117, "channel": 0}, {"type": "note_off", "time": 59, "note": 75, "velocity": 117, "channel": 0}, {"type": "note_on", "time": 18, "note": 78, "velocity": 119, "channel": 0}, {"type": "note_off", "time": 100, "note": 78, "velocity": 119, "channel": 0}, {"type": "note_on", "time": 20, "note": 73, "velocity": 115, "channel": 0}, {"type": "note_off", "time": 80, "note": 73, "velocity": 115, "channel": 0}, {"type": "note_on", "time": 17, "note": 75, "velocity": 122, "channel": 0}, {"type": "note_off", "time": 80, "note": 75, "velocity": 122, "channel": 0}, {"type": "note_on", "time": 20, "note": 78, "velocity": 118, "channel": 0}, {"type": "note_off", "time": 59, "note": 78, "velocity": 118, "channel": 0}, {"type": "note_on", "time": 22, "note": 75, "velocity": 117, "channel": 0}, {"type": "note_off", "time": 183, "note": 75, "velocity": 117, "channel": 0}, {"type": "note_on", "time": 17, "note": 72, "velocity": 112, "channel": 0}, {"type": "note_off", "time": 106, "note": 72, "velocity": 112, "channel": 0}, {"type": "note_on", "time": 100, "note": 71, "velocity": 107, "channel": 0}, {"type": "note_off", "time": 169, "note": 71, "velocity": 107, "channel": 0}, {"type": "note_on", "time": 15, "note": 68, "velocity": 116, "channel": 0}, {"type": "note_off", "time": 114, "note": 68, "velocity": 116, "channel": 0}, {"type": "note_on", "time": 22, "note": 66, "velocity": 111, "channel": 0}, {"type": "note_off", "time": 371, "note": 66, "velocity": 111, "channel": 0}, {"type": "note_on", "time": 13, "note": 72, "velocity": 99, "channel": 0}, {"type": "note_off", "time": 53, "note": 72, "velocity": 99, "channel": 0}, {"type": "note_on", "time": 20, "note": 68, "velocity": 116, "channel": 0}, {"type": "note_off", "time": 159, "note": 68, "velocity": 116, "channel": 0}, {"type": "note_on", "time": 11, "note": 71, "velocity": 104, "channel": 0}, {"type": "note_off", "time": 131, "note": 71, "velocity": 104, "channel": 0}, {"type": "note_on", "time": 20, "note": 67, "velocity": 107, "channel": 0}, {"type": "note_off", "time": 296, "note": 67, "velocity": 107, "channel": 0}, {"type": "note_on", "time": 123, "note": 66, "velocity": 114, "channel": 0}, {"type": "note_off", "time": 78, "note": 66, "velocity": 114, "channel": 0}, {"type": "note_on", "time": 13, "note": 65, "velocity": 117, "channel": 0}, {"type": "note_off", "time": 95, "note": 65, "velocity": 117, "channel": 0}, {"type": "note_on", "time": 8, "note": 64, "velocity": 109, "channel": 0}, {"type": "note_off", "time": 61, "note": 64, "velocity": 109, "channel": 0}, {"type": "note_on", "time": 10, "note": 63, "velocity": 110, "channel": 0}, {"type": "note_off", "time": 78, "note": 63, "velocity": 110, "channel": 0}, {"type": "note_on", "time": 10, "note": 65, "velocity": 115, "channel": 0}, {"type": "note_off", "time": 73, "note": 65, "velocity": 115, "channel": 0}, {"type": "note_on", "time": 25, "note": 63, "velocity": 111, "channel": 0}, {"type": "note_off", "time": 78, "note": 63, "velocity": 111, "channel": 0}, {"type": "note_on", "time": 6, "note": 65, "velocity": 109, "channel": 0}, {"type": "note_off", "time": 73, "note": 65, "velocity": 109, "channel": 0}, {"type": "note_on", "time": 17, "note": 67, "velocity": 110, "channel": 0}, {"type": "note_off", "time": 99, "note": 67, "velocity": 110, "channel": 0}, {"type": "note_on", "time": 22, "note": 63, "velocity": 107, "channel": 0}, {"type": "note_off", "time": 54, "note": 63, "velocity": 107, "channel": 0}, {"type": "note_on", "time": 22, "note": 65, "velocity": 110, "channel": 0}, {"type": "note_off", "time": 188, "note": 65, "velocity": 110, "channel": 0}, {"type": "note_on", "time": 42, "note": 60, "velocity": 109, "channel": 0}, {"type": "note_off", "time": 107, "note": 60, "velocity": 109, "channel": 0}, {"type": "note_on", "time": 56, "note": 63, "velocity": 107, "channel": 0}, {"type": "note_off", "time": 177, "note": 63, "velocity": 107, "channel": 0}, {"type": "note_on", "time": 46, "note": 58, "velocity": 103, "channel": 0}, {"type": "note_off", "time": 153, "note": 58, "velocity": 103, "channel": 0}, {"type": "note_on", "time": 25, "note": 60, "velocity": 107, "channel": 0}, {"type": "note_off", "time": 183, "note": 60, "velocity": 107, "channel": 0}, {"type": "note_on", "time": 152, "note": 61, "velocity": 101, "channel": 0}, {"type": "note_off", "time": 444, "note": 61, "velocity": 101, "channel": 0}, {"type": "note_on", "time": 2345, "note": 67, "velocity": 121, "channel": 0}, {"type": "note_off", "time": 124, "note": 67, "velocity": 121, "channel": 0}, {"type": "note_on", "time": 27, "note": 70, "velocity": 116, "channel": 0}, {"type": "note_off", "time": 63, "note": 70, "velocity": 116, "channel": 0}, {"type": "note_on", "time": 8, "note": 68, "velocity": 122, "channel": 0}, {"type": "note_off", "time": 119, "note": 68, "velocity": 122, "channel": 0}, {"type": "note_on", "time": 20, "note": 67, "velocity": 113, "channel": 0}, {"type": "note_off", "time": 261, "note": 67, "velocity": 113, "channel": 0}, {"type": "note_on", "time": 207, "note": 65, "velocity": 110, "channel": 0}, {"type": "note_off", "time": 78, "note": 65, "velocity": 110, "channel": 0}, {"type": "note_on", "time": 17, "note": 64, "velocity": 106, "channel": 0}, {"type": "note_off", "time": 63, "note": 64, "velocity": 106, "channel": 0}, {"type": "note_on", "time": 18, "note": 65, "velocity": 120, "channel": 0}, {"type": "note_off", "time": 95, "note": 65, "velocity": 120, "channel": 0}, {"type": "note_on", "time": 17, "note": 67, "velocity": 120, "channel": 0}, {"type": "note_off", "time": 80, "note": 67, "velocity": 120, "channel": 0}, {"type": "note_on", "time": 8, "note": 68, "velocity": 120, "channel": 0}, {"type": "note_off", "time": 87, "note": 68, "velocity": 120, "channel": 0}, {"type": "note_on", "time": 39, "note": 70, "velocity": 115, "channel": 0}, {"type": "note_off", "time": 75, "note": 70, "velocity": 115, "channel": 0}, {"type": "note_on", "time": 9, "note": 72, "velocity": 115, "channel": 0}, {"type": "note_off", "time": 102, "note": 72, "velocity": 115, "channel": 0}, {"type": "note_on", "time": 9, "note": 74, "velocity": 118, "channel": 0}, {"type": "note_off", "time": 51, "note": 74, "velocity": 118, "channel": 0}, {"type": "note_on", "time": 17, "note": 77, "velocity": 124, "channel": 0}, {"type": "note_off", "time": 118, "note": 77, "velocity": 124, "channel": 0}, {"type": "note_on", "time": 18, "note": 76, "velocity": 119, "channel": 0}, {"type": "note_off", "time": 42, "note": 76, "velocity": 119, "channel": 0}, {"type": "note_on", "time": 12, "note": 77, "velocity": 124, "channel": 0}, {"type": "note_off", "time": 100, "note": 77, "velocity": 124, "channel": 0}, {"type": "note_on", "time": 24, "note": 79, "velocity": 122, "channel": 0}, {"type": "note_off", "time": 93, "note": 79, "velocity": 122, "channel": 0}, {"type": "note_on", "time": 2, "note": 80, "velocity": 125, "channel": 0}, {"type": "note_off", "time": 88, "note": 80, "velocity": 125, "channel": 0}, {"type": "note_on", "time": 8, "note": 79, "velocity": 119, "channel": 0}, {"type": "note_off", "time": 75, "note": 79, "velocity": 119, "channel": 0}, {"type": "note_on", "time": 18, "note": 78, "velocity": 119, "channel": 0}, {"type": "note_off", "time": 102, "note": 78, "velocity": 119, "channel": 0}, {"type": "note_on", "time": 14, "note": 76, "velocity": 112, "channel": 0}, {"type": "note_off", "time": 71, "note": 76, "velocity": 112, "channel": 0}, {"type": "note_on", "time": 6, "note": 77, "velocity": 124, "channel": 0}, {"type": "note_off", "time": 100, "note": 77, "velocity": 124, "channel": 0}, {"type": "note_on", "time": 18, "note": 76, "velocity": 113, "channel": 0}, {"type": "note_off", "time": 88, "note": 76, "velocity": 113, "channel": 0}, {"type": "note_on", "time": 4, "note": 75, "velocity": 119, "channel": 0}, {"type": "note_off", "time": 75, "note": 75, "velocity": 119, "channel": 0}, {"type": "note_on", "time": 20, "note": 78, "velocity": 119, "channel": 0}, {"type": "note_off", "time": 90, "note": 78, "velocity": 119, "channel": 0}, {"type": "note_on", "time": 7, "note": 74, "velocity": 116, "channel": 0}, {"type": "note_off", "time": 110, "note": 74, "velocity": 116, "channel": 0}, {"type": "note_on", "time": 7, "note": 75, "velocity": 124, "channel": 0}, {"type": "note_off", "time": 74, "note": 75, "velocity": 124, "channel": 0}, {"type": "note_on", "time": 9, "note": 74, "velocity": 117, "channel": 0}, {"type": "note_off", "time": 86, "note": 74, "velocity": 117, "channel": 0}, {"type": "note_on", "time": 9, "note": 75, "velocity": 124, "channel": 0}, {"type": "note_off", "time": 98, "note": 75, "velocity": 124, "channel": 0}, {"type": "note_on", "time": 10, "note": 74, "velocity": 117, "channel": 0}, {"type": "note_off", "time": 80, "note": 74, "velocity": 117, "channel": 0}, {"type": "note_on", "time": 13, "note": 75, "velocity": 124, "channel": 0}, {"type": "note_off", "time": 86, "note": 75, "velocity": 124, "channel": 0}, {"type": "note_on", "time": 13, "note": 73, "velocity": 116, "channel": 0}, {"type": "note_off", "time": 85, "note": 73, "velocity": 116, "channel": 0}, {"type": "note_on", "time": 6, "note": 75, "velocity": 123, "channel": 0}, {"type": "note_off", "time": 75, "note": 75, "velocity": 123, "channel": 0}, {"type": "note_on", "time": 17, "note": 73, "velocity": 112, "channel": 0}, {"type": "note_off", "time": 307, "note": 73, "velocity": 112, "channel": 0}, {"type": "note_on", "time": 35, "note": 71, "velocity": 93, "channel": 0}, {"type": "note_off", "time": 37, "note": 71, "velocity": 93, "channel": 0}, {"type": "note_on", "time": 9, "note": 73, "velocity": 120, "channel": 0}, {"type": "note_off", "time": 105, "note": 73, "velocity": 120, "channel": 0}, {"type": "note_on", "time": 21, "note": 71, "velocity": 95, "channel": 0}, {"type": "note_off", "time": 46, "note": 71, "velocity": 95, "channel": 0}, {"type": "note_on", "time": 14, "note": 73, "velocity": 116, "channel": 0}, {"type": "note_off", "time": 119, "note": 73, "velocity": 116, "channel": 0}, {"type": "note_on", "time": 8, "note": 75, "velocity": 105, "channel": 0}, {"type": "note_off", "time": 60, "note": 75, "velocity": 105, "channel": 0}, {"type": "note_on", "time": 14, "note": 77, "velocity": 125, "channel": 0}, {"type": "note_off", "time": 90, "note": 77, "velocity": 125, "channel": 0}, {"type": "note_on", "time": 12, "note": 75, "velocity": 116, "channel": 0}, {"type": "note_off", "time": 80, "note": 75, "velocity": 116, "channel": 0}, {"type": "note_on", "time": 13, "note": 73, "velocity": 119, "channel": 0}, {"type": "note_off", "time": 93, "note": 73, "velocity": 119, "channel": 0}, {"type": "note_on", "time": 19, "note": 71, "velocity": 103, "channel": 0}, {"type": "note_off", "time": 53, "note": 71, "velocity": 103, "channel": 0}, {"type": "note_on", "time": 17, "note": 69, "velocity": 115, "channel": 0}, {"type": "note_off", "time": 169, "note": 69, "velocity": 115, "channel": 0}, {"type": "note_on", "time": 18, "note": 66, "velocity": 110, "channel": 0}, {"type": "note_off", "time": 97, "note": 66, "velocity": 110, "channel": 0}, {"type": "note_on", "time": 103, "note": 69, "velocity": 113, "channel": 0}, {"type": "note_off", "time": 109, "note": 69, "velocity": 113, "channel": 0}, {"type": "note_on", "time": 74, "note": 71, "velocity": 100, "channel": 0}, {"type": "note_off", "time": 102, "note": 71, "velocity": 100, "channel": 0}, {"type": "note_on", "time": 118, "note": 73, "velocity": 117, "channel": 0}, {"type": "note_off", "time": 175, "note": 73, "velocity": 117, "channel": 0}, {"type": "note_on", "time": 26, "note": 71, "velocity": 102, "channel": 0}, {"type": "note_off", "time": 76, "note": 71, "velocity": 102, "channel": 0}, {"type": "note_on", "time": 29, "note": 69, "velocity": 111, "channel": 0}, {"type": "note_off", "time": 422, "note": 69, "velocity": 111, "channel": 0}, {"type": "note_on", "time": 15, "note": 66, "velocity": 94, "channel": 0}, {"type": "note_off", "time": 20, "note": 66, "velocity": 94, "channel": 0}, {"type": "note_on", "time": 12, "note": 69, "velocity": 112, "channel": 0}, {"type": "note_off", "time": 86, "note": 69, "velocity": 112, "channel": 0}, {"type": "note_on", "time": 15, "note": 69, "velocity": 109, "channel": 0}, {"type": "note_off", "time": 76, "note": 69, "velocity": 109, "channel": 0}, {"type": "note_on", "time": 11, "note": 66, "velocity": 109, "channel": 0}, {"type": "note_off", "time": 107, "note": 66, "velocity": 109, "channel": 0}, {"type": "note_on", "time": 27, "note": 61, "velocity": 97, "channel": 0}, {"type": "note_off", "time": 71, "note": 61, "velocity": 97, "channel": 0}, {"type": "note_on", "time": 8, "note": 63, "velocity": 100, "channel": 0}, {"type": "note_off", "time": 118, "note": 63, "velocity": 100, "channel": 0}, {"type": "note_on", "time": 68, "note": 63, "velocity": 103, "channel": 0}, {"type": "note_off", "time": 109, "note": 63, "velocity": 103, "channel": 0}, {"type": "note_on", "time": 119, "note": 63, "velocity": 108, "channel": 0}, {"type": "note_off", "time": 98, "note": 63, "velocity": 108, "channel": 0}, {"type": "note_on", "time": 3562, "note": 67, "velocity": 115, "channel": 0}, {"type": "note_off", "time": 108, "note": 67, "velocity": 115, "channel": 0}, {"type": "note_on", "time": 13, "note": 70, "velocity": 119, "channel": 0}, {"type": "note_off", "time": 51, "note": 70, "velocity": 119, "channel": 0}, {"type": "note_on", "time": 14, "note": 72, "velocity": 111, "channel": 0}, {"type": "note_off", "time": 115, "note": 72, "velocity": 111, "channel": 0}, {"type": "note_on", "time": 14, "note": 75, "velocity": 120, "channel": 0}, {"type": "note_off", "time": 60, "note": 75, "velocity": 120, "channel": 0}, {"type": "note_on", "time": 12, "note": 77, "velocity": 122, "channel": 0}, {"type": "note_off", "time": 136, "note": 77, "velocity": 122, "channel": 0}, {"type": "note_on", "time": 12, "note": 75, "velocity": 117, "channel": 0}, {"type": "note_off", "time": 349, "note": 75, "velocity": 117, "channel": 0}, {"type": "note_on", "time": 632, "note": 75, "velocity": 120, "channel": 0}, {"type": "note_off", "time": 124, "note": 75, "velocity": 120, "channel": 0}, {"type": "note_on", "time": 18, "note": 77, "velocity": 123, "channel": 0}, {"type": "note_off", "time": 63, "note": 77, "velocity": 123, "channel": 0}, {"type": "note_on", "time": 9, "note": 79, "velocity": 117, "channel": 0}, {"type": "note_off", "time": 104, "note": 79, "velocity": 117, "channel": 0}, {"type": "note_on", "time": 14, "note": 82, "velocity": 113, "channel": 0}, {"type": "note_off", "time": 57, "note": 82, "velocity": 113, "channel": 0}, {"type": "note_on", "time": 12, "note": 84, "velocity": 114, "channel": 0}, {"type": "note_off", "time": 131, "note": 84, "velocity": 114, "channel": 0}, {"type": "note_on", "time": 7, "note": 85, "velocity": 110, "channel": 0}, {"type": "note_off", "time": 180, "note": 85, "velocity": 110, "channel": 0}, {"type": "note_on", "time": 2665, "note": 79, "velocity": 116, "channel": 0}, {"type": "note_off", "time": 86, "note": 79, "velocity": 116, "channel": 0}, {"type": "note_on", "time": 9, "note": 82, "velocity": 112, "channel": 0}, {"type": "note_off", "time": 83, "note": 82, "velocity": 112, "channel": 0}, {"type": "note_on", "time": 27, "note": 84, "velocity": 111, "channel": 0}, {"type": "note_off", "time": 53, "note": 84, "velocity": 111, "channel": 0}, {"type": "note_on", "time": 57, "note": 85, "velocity": 114, "channel": 0}, {"type": "note_off", "time": 85, "note": 85, "velocity": 114, "channel": 0}, {"type": "note_on", "time": 15, "note": 84, "velocity": 110, "channel": 0}, {"type": "note_off", "time": 66, "note": 84, "velocity": 110, "channel": 0}, {"type": "note_on", "time": 3, "note": 85, "velocity": 114, "channel": 0}, {"type": "note_off", "time": 99, "note": 85, "velocity": 114, "channel": 0}, {"type": "note_on", "time": 10, "note": 84, "velocity": 108, "channel": 0}, {"type": "note_off", "time": 69, "note": 84, "velocity": 108, "channel": 0}, {"type": "note_on", "time": 12, "note": 85, "velocity": 115, "channel": 0}, {"type": "note_off", "time": 107, "note": 85, "velocity": 115, "channel": 0}, {"type": "note_on", "time": 15, "note": 84, "velocity": 109, "channel": 0}, {"type": "note_off", "time": 54, "note": 84, "velocity": 109, "channel": 0}, {"type": "note_on", "time": 13, "note": 82, "velocity": 113, "channel": 0}, {"type": "note_off", "time": 103, "note": 82, "velocity": 113, "channel": 0}, {"type": "note_on", "time": 69, "note": 80, "velocity": 119, "channel": 0}, {"type": "note_off", "time": 113, "note": 80, "velocity": 119, "channel": 0}, {"type": "note_on", "time": 6, "note": 79, "velocity": 120, "channel": 0}, {"type": "note_off", "time": 59, "note": 79, "velocity": 120, "channel": 0}, {"type": "note_on", "time": 2, "note": 80, "velocity": 121, "channel": 0}, {"type": "note_off", "time": 118, "note": 80, "velocity": 121, "channel": 0}, {"type": "note_on", "time": 6, "note": 79, "velocity": 121, "channel": 0}, {"type": "note_off", "time": 64, "note": 79, "velocity": 121, "channel": 0}, {"type": "note_on", "time": 8, "note": 80, "velocity": 121, "channel": 0}, {"type": "note_off", "time": 103, "note": 80, "velocity": 121, "channel": 0}, {"type": "note_on", "time": 12, "note": 79, "velocity": 115, "channel": 0}, {"type": "note_off", "time": 93, "note": 79, "velocity": 115, "channel": 0}, {"type": "note_on", "time": 12, "note": 78, "velocity": 119, "channel": 0}, {"type": "note_off", "time": 96, "note": 78, "velocity": 119, "channel": 0}, {"type": "note_on", "time": 10, "note": 75, "velocity": 108, "channel": 0}, {"type": "note_off", "time": 63, "note": 75, "velocity": 108, "channel": 0}, {"type": "note_on", "time": 13, "note": 78, "velocity": 119, "channel": 0}, {"type": "note_off", "time": 153, "note": 78, "velocity": 119, "channel": 0}, {"type": "note_on", "time": 10, "note": 77, "velocity": 118, "channel": 0}, {"type": "note_off", "time": 18, "note": 77, "velocity": 118, "channel": 0}, {"type": "note_on", "time": 9, "note": 78, "velocity": 119, "channel": 0}, {"type": "note_off", "time": 137, "note": 78, "velocity": 119, "channel": 0}, {"type": "note_on", "time": 10, "note": 77, "velocity": 124, "channel": 0}, {"type": "note_off", "time": 69, "note": 77, "velocity": 124, "channel": 0}, {"type": "note_on", "time": 17, "note": 75, "velocity": 117, "channel": 0}, {"type": "note_off", "time": 118, "note": 75, "velocity": 117, "channel": 0}, {"type": "note_on", "time": 70, "note": 73, "velocity": 116, "channel": 0}, {"type": "note_off", "time": 127, "note": 73, "velocity": 116, "channel": 0}, {"type": "note_on", "time": 52, "note": 73, "velocity": 117, "channel": 0}, {"type": "note_off", "time": 118, "note": 73, "velocity": 117, "channel": 0}, {"type": "note_on", "time": 20, "note": 72, "velocity": 115, "channel": 0}, {"type": "note_off", "time": 76, "note": 72, "velocity": 115, "channel": 0}, {"type": "note_on", "time": 9, "note": 70, "velocity": 107, "channel": 0}, {"type": "note_off", "time": 103, "note": 70, "velocity": 107, "channel": 0}, {"type": "note_on", "time": 18, "note": 67, "velocity": 114, "channel": 0}, {"type": "note_off", "time": 62, "note": 67, "velocity": 114, "channel": 0}, {"type": "note_on", "time": 15, "note": 65, "velocity": 107, "channel": 0}, {"type": "note_off", "time": 250, "note": 65, "velocity": 107, "channel": 0}, {"type": "note_on", "time": 34, "note": 66, "velocity": 102, "channel": 0}, {"type": "note_off", "time": 788, "note": 66, "velocity": 102, "channel": 0}, {"type": "note_on", "time": 49, "note": 65, "velocity": 116, "channel": 0}, {"type": "note_off", "time": 111, "note": 65, "velocity": 116, "channel": 0}, {"type": "note_on", "time": 61, "note": 64, "velocity": 116, "channel": 0}, {"type": "note_off", "time": 80, "note": 64, "velocity": 116, "channel": 0}, {"type": "note_on", "time": 18, "note": 63, "velocity": 113, "channel": 0}, {"type": "note_off", "time": 109, "note": 63, "velocity": 113, "channel": 0}, {"type": "note_on", "time": 15, "note": 65, "velocity": 121, "channel": 0}, {"type": "note_off", "time": 61, "note": 65, "velocity": 121, "channel": 0}, {"type": "note_on", "time": 23, "note": 63, "velocity": 116, "channel": 0}, {"type": "note_off", "time": 82, "note": 63, "velocity": 116, "channel": 0}, {"type": "note_on", "time": 13, "note": 65, "velocity": 115, "channel": 0}, {"type": "note_off", "time": 44, "note": 65, "velocity": 115, "channel": 0}, {"type": "note_on", "time": 23, "note": 67, "velocity": 118, "channel": 0}, {"type": "note_off", "time": 80, "note": 67, "velocity": 118, "channel": 0}, {"type": "note_on", "time": 23, "note": 63, "velocity": 112, "channel": 0}, {"type": "note_off", "time": 82, "note": 63, "velocity": 112, "channel": 0}, {"type": "note_on", "time": 22, "note": 66, "velocity": 118, "channel": 0}, {"type": "note_off", "time": 104, "note": 66, "velocity": 118, "channel": 0}, {"type": "note_on", "time": 20, "note": 65, "velocity": 117, "channel": 0}, {"type": "note_off", "time": 49, "note": 65, "velocity": 117, "channel": 0}, {"type": "note_on", "time": 32, "note": 60, "velocity": 106, "channel": 0}, {"type": "note_off", "time": 97, "note": 60, "velocity": 106, "channel": 0}, {"type": "note_on", "time": 32, "note": 63, "velocity": 108, "channel": 0}, {"type": "note_off", "time": 155, "note": 63, "velocity": 108, "channel": 0}, {"type": "note_on", "time": 29, "note": 65, "velocity": 118, "channel": 0}, {"type": "note_off", "time": 116, "note": 65, "velocity": 118, "channel": 0}, {"type": "note_on", "time": 111, "note": 66, "velocity": 107, "channel": 0}, {"type": "note_off", "time": 123, "note": 66, "velocity": 107, "channel": 0}, {"type": "note_on", "time": 6, "note": 67, "velocity": 108, "channel": 0}, {"type": "note_off", "time": 71, "note": 67, "velocity": 108, "channel": 0}, {"type": "note_on", "time": 13, "note": 70, "velocity": 114, "channel": 0}, {"type": "note_off", "time": 162, "note": 70, "velocity": 114, "channel": 0}, {"type": "note_on", "time": 53, "note": 72, "velocity": 113, "channel": 0}, {"type": "note_off", "time": 112, "note": 72, "velocity": 113, "channel": 0}, {"type": "note_on", "time": 25, "note": 74, "velocity": 104, "channel": 0}, {"type": "note_off", "time": 44, "note": 74, "velocity": 104, "channel": 0}, {"type": "note_on", "time": 18, "note": 75, "velocity": 119, "channel": 0}, {"type": "note_off", "time": 126, "note": 75, "velocity": 119, "channel": 0}, {"type": "note_on", "time": 27, "note": 73, "velocity": 105, "channel": 0}, {"type": "note_off", "time": 224, "note": 73, "velocity": 105, "channel": 0}, {"type": "note_on", "time": 1481, "note": 61, "velocity": 120, "channel": 0}, {"type": "note_off", "time": 66, "note": 61, "velocity": 120, "channel": 0}, {"type": "note_on", "time": 17, "note": 63, "velocity": 118, "channel": 0}, {"type": "note_off", "time": 61, "note": 63, "velocity": 118, "channel": 0}, {"type": "note_on", "time": 11, "note": 67, "velocity": 119, "channel": 0}, {"type": "note_off", "time": 57, "note": 67, "velocity": 119, "channel": 0}, {"type": "note_on", "time": 19, "note": 64, "velocity": 122, "channel": 0}, {"type": "note_off", "time": 116, "note": 64, "velocity": 122, "channel": 0}, {"type": "note_on", "time": 10, "note": 66, "velocity": 119, "channel": 0}, {"type": "note_off", "time": 64, "note": 66, "velocity": 119, "channel": 0}, {"type": "note_on", "time": 15, "note": 68, "velocity": 122, "channel": 0}, {"type": "note_off", "time": 107, "note": 68, "velocity": 122, "channel": 0}, {"type": "note_on", "time": 12, "note": 70, "velocity": 100, "channel": 0}, {"type": "note_off", "time": 46, "note": 70, "velocity": 100, "channel": 0}, {"type": "note_on", "time": 14, "note": 72, "velocity": 112, "channel": 0}, {"type": "note_off", "time": 107, "note": 72, "velocity": 112, "channel": 0}, {"type": "note_on", "time": 18, "note": 74, "velocity": 114, "channel": 0}, {"type": "note_off", "time": 63, "note": 74, "velocity": 114, "channel": 0}, {"type": "note_on", "time": 15, "note": 75, "velocity": 122, "channel": 0}, {"type": "note_off", "time": 82, "note": 75, "velocity": 122, "channel": 0}, {"type": "note_on", "time": 13, "note": 73, "velocity": 122, "channel": 0}, {"type": "note_off", "time": 109, "note": 73, "velocity": 122, "channel": 0}, {"type": "note_on", "time": 15, "note": 72, "velocity": 117, "channel": 0}, {"type": "note_off", "time": 81, "note": 72, "velocity": 117, "channel": 0}, {"type": "note_on", "time": 9, "note": 73, "velocity": 121, "channel": 0}, {"type": "note_off", "time": 70, "note": 73, "velocity": 121, "channel": 0}, {"type": "note_on", "time": 12, "note": 77, "velocity": 121, "channel": 0}, {"type": "note_off", "time": 125, "note": 77, "velocity": 121, "channel": 0}, {"type": "note_on", "time": 18, "note": 79, "velocity": 109, "channel": 0}, {"type": "note_off", "time": 41, "note": 79, "velocity": 109, "channel": 0}, {"type": "note_on", "time": 15, "note": 82, "velocity": 116, "channel": 0}, {"type": "note_off", "time": 100, "note": 82, "velocity": 116, "channel": 0}, {"type": "note_on", "time": 17, "note": 79, "velocity": 116, "channel": 0}, {"type": "note_off", "time": 65, "note": 79, "velocity": 116, "channel": 0}, {"type": "note_on", "time": 14, "note": 80, "velocity": 120, "channel": 0}, {"type": "note_off", "time": 86, "note": 80, "velocity": 120, "channel": 0}, {"type": "note_on", "time": 17, "note": 80, "velocity": 120, "channel": 0}, {"type": "note_off", "time": 83, "note": 80, "velocity": 120, "channel": 0}, {"type": "note_on", "time": 3, "note": 79, "velocity": 116, "channel": 0}, {"type": "note_off", "time": 76, "note": 79, "velocity": 116, "channel": 0}, {"type": "note_on", "time": 13, "note": 78, "velocity": 120, "channel": 0}, {"type": "note_off", "time": 96, "note": 78, "velocity": 120, "channel": 0}, {"type": "note_on", "time": 7, "note": 77, "velocity": 122, "channel": 0}, {"type": "note_off", "time": 71, "note": 77, "velocity": 122, "channel": 0}, {"type": "note_on", "time": 9, "note": 76, "velocity": 117, "channel": 0}, {"type": "note_off", "time": 91, "note": 76, "velocity": 117, "channel": 0}, {"type": "note_on", "time": 13, "note": 75, "velocity": 121, "channel": 0}, {"type": "note_off", "time": 94, "note": 75, "velocity": 121, "channel": 0}, {"type": "note_on", "time": 9, "note": 79, "velocity": 115, "channel": 0}, {"type": "note_off", "time": 81, "note": 79, "velocity": 115, "channel": 0}, {"type": "note_on", "time": 18, "note": 76, "velocity": 118, "channel": 0}, {"type": "note_off", "time": 87, "note": 76, "velocity": 118, "channel": 0}, {"type": "note_on", "time": 23, "note": 74, "velocity": 109, "channel": 0}, {"type": "note_off", "time": 75, "note": 74, "velocity": 109, "channel": 0}, {"type": "note_on", "time": 12, "note": 75, "velocity": 119, "channel": 0}, {"type": "note_off", "time": 96, "note": 75, "velocity": 119, "channel": 0}, {"type": "note_on", "time": 10, "note": 72, "velocity": 117, "channel": 0}, {"type": "note_off", "time": 47, "note": 72, "velocity": 117, "channel": 0}, {"type": "note_on", "time": 3, "note": 73, "velocity": 121, "channel": 0}, {"type": "note_on", "time": 38, "note": 74, "velocity": 117, "channel": 0}, {"type": "note_off", "time": 0, "note": 73, "velocity": 121, "channel": 0}, {"type": "note_off", "time": 80, "note": 74, "velocity": 117, "channel": 0}, {"type": "note_on", "time": 26, "note": 70, "velocity": 109, "channel": 0}, {"type": "note_off", "time": 333, "note": 70, "velocity": 109, "channel": 0}, {"type": "note_on", "time": 85, "note": 67, "velocity": 111, "channel": 0}, {"type": "note_off", "time": 55, "note": 67, "velocity": 111, "channel": 0}, {"type": "note_on", "time": 15, "note": 68, "velocity": 117, "channel": 0}, {"type": "note_off", "time": 94, "note": 68, "velocity": 117, "channel": 0}, {"type": "note_on", "time": 21, "note": 68, "velocity": 118, "channel": 0}, {"type": "note_off", "time": 59, "note": 68, "velocity": 118, "channel": 0}, {"type": "note_on", "time": 8, "note": 67, "velocity": 116, "channel": 0}, {"type": "note_off", "time": 62, "note": 67, "velocity": 116, "channel": 0}, {"type": "note_on", "time": 25, "note": 66, "velocity": 119, "channel": 0}, {"type": "note_off", "time": 79, "note": 66, "velocity": 119, "channel": 0}, {"type": "note_on", "time": 17, "note": 65, "velocity": 119, "channel": 0}, {"type": "note_off", "time": 93, "note": 65, "velocity": 119, "channel": 0}, {"type": "note_on", "time": 8, "note": 64, "velocity": 119, "channel": 0}, {"type": "note_off", "time": 36, "note": 64, "velocity": 119, "channel": 0}, {"type": "note_on", "time": 14, "note": 63, "velocity": 117, "channel": 0}, {"type": "note_off", "time": 105, "note": 63, "velocity": 117, "channel": 0}, {"type": "note_on", "time": 8, "note": 67, "velocity": 115, "channel": 0}, {"type": "note_off", "time": 68, "note": 67, "velocity": 115, "channel": 0}, {"type": "note_on", "time": 10, "note": 64, "velocity": 116, "channel": 0}, {"type": "note_off", "time": 93, "note": 64, "velocity": 116, "channel": 0}, {"type": "note_on", "time": 2, "note": 65, "velocity": 119, "channel": 0}, {"type": "note_off", "time": 65, "note": 65, "velocity": 119, "channel": 0}, {"type": "note_on", "time": 17, "note": 68, "velocity": 117, "channel": 0}, {"type": "note_off", "time": 121, "note": 68, "velocity": 117, "channel": 0}, {"type": "note_on", "time": 17, "note": 69, "velocity": 103, "channel": 0}, {"type": "note_off", "time": 35, "note": 69, "velocity": 103, "channel": 0}, {"type": "note_on", "time": 19, "note": 75, "velocity": 118, "channel": 0}, {"type": "note_off", "time": 104, "note": 75, "velocity": 118, "channel": 0}, {"type": "note_on", "time": 18, "note": 72, "velocity": 117, "channel": 0}, {"type": "note_off", "time": 70, "note": 72, "velocity": 117, "channel": 0}, {"type": "note_on", "time": 29, "note": 69, "velocity": 111, "channel": 0}, {"type": "note_off", "time": 96, "note": 69, "velocity": 111, "channel": 0}, {"type": "note_on", "time": 12, "note": 65, "velocity": 119, "channel": 0}, {"type": "note_off", "time": 63, "note": 65, "velocity": 119, "channel": 0}, {"type": "note_on", "time": 14, "note": 71, "velocity": 109, "channel": 0}, {"type": "note_off", "time": 64, "note": 71, "velocity": 109, "channel": 0}, {"type": "note_on", "time": 13, "note": 73, "velocity": 121, "channel": 0}, {"type": "note_off", "time": 64, "note": 73, "velocity": 121, "channel": 0}, {"type": "note_on", "time": 15, "note": 75, "velocity": 122, "channel": 0}, {"type": "note_off", "time": 91, "note": 75, "velocity": 122, "channel": 0}, {"type": "note_on", "time": 9, "note": 79, "velocity": 119, "channel": 0}, {"type": "note_off", "time": 81, "note": 79, "velocity": 119, "channel": 0}, {"type": "note_on", "time": 36, "note": 73, "velocity": 120, "channel": 0}, {"type": "note_off", "time": 93, "note": 73, "velocity": 120, "channel": 0}, {"type": "note_on", "time": 13, "note": 77, "velocity": 106, "channel": 0}, {"type": "note_off", "time": 42, "note": 77, "velocity": 106, "channel": 0}, {"type": "note_on", "time": 21, "note": 80, "velocity": 119, "channel": 0}, {"type": "note_off", "time": 104, "note": 80, "velocity": 119, "channel": 0}, {"type": "note_on", "time": 18, "note": 83, "velocity": 107, "channel": 0}, {"type": "note_off", "time": 83, "note": 83, "velocity": 107, "channel": 0}, {"type": "note_on", "time": 10, "note": 81, "velocity": 118, "channel": 0}, {"type": "note_off", "time": 74, "note": 81, "velocity": 118, "channel": 0}, {"type": "note_on", "time": 19, "note": 78, "velocity": 120, "channel": 0}, {"type": "note_off", "time": 70, "note": 78, "velocity": 120, "channel": 0}, {"type": "note_on", "time": 9, "note": 77, "velocity": 123, "channel": 0}, {"type": "note_off", "time": 97, "note": 77, "velocity": 123, "channel": 0}, {"type": "note_on", "time": 12, "note": 76, "velocity": 119, "channel": 0}, {"type": "note_off", "time": 85, "note": 76, "velocity": 119, "channel": 0}, {"type": "note_on", "time": 9, "note": 75, "velocity": 120, "channel": 0}, {"type": "note_off", "time": 80, "note": 75, "velocity": 120, "channel": 0}, {"type": "note_on", "time": 8, "note": 77, "velocity": 120, "channel": 0}, {"type": "note_off", "time": 81, "note": 77, "velocity": 120, "channel": 0}, {"type": "note_on", "time": 6, "note": 73, "velocity": 119, "channel": 0}, {"type": "note_off", "time": 91, "note": 73, "velocity": 119, "channel": 0}, {"type": "note_on", "time": 19, "note": 75, "velocity": 120, "channel": 0}, {"type": "note_off", "time": 98, "note": 75, "velocity": 120, "channel": 0}, {"type": "note_on", "time": 7, "note": 70, "velocity": 108, "channel": 0}, {"type": "note_off", "time": 87, "note": 70, "velocity": 108, "channel": 0}, {"type": "note_on", "time": 6, "note": 73, "velocity": 117, "channel": 0}, {"type": "note_off", "time": 65, "note": 73, "velocity": 117, "channel": 0}, {"type": "note_on", "time": 34, "note": 69, "velocity": 115, "channel": 0}, {"type": "note_off", "time": 90, "note": 69, "velocity": 115, "channel": 0}, {"type": "note_on", "time": 10, "note": 71, "velocity": 108, "channel": 0}, {"type": "note_off", "time": 64, "note": 71, "velocity": 108, "channel": 0}, {"type": "note_on", "time": 14, "note": 66, "velocity": 117, "channel": 0}, {"type": "note_off", "time": 94, "note": 66, "velocity": 117, "channel": 0}, {"type": "note_on", "time": 17, "note": 69, "velocity": 119, "channel": 0}, {"type": "note_off", "time": 74, "note": 69, "velocity": 119, "channel": 0}, {"type": "note_on", "time": 7, "note": 63, "velocity": 116, "channel": 0}, {"type": "note_off", "time": 90, "note": 63, "velocity": 116, "channel": 0}, {"type": "note_on", "time": 7, "note": 66, "velocity": 118, "channel": 0}, {"type": "note_off", "time": 62, "note": 66, "velocity": 118, "channel": 0}, {"type": "note_on", "time": 24, "note": 61, "velocity": 114, "channel": 0}, {"type": "note_off", "time": 87, "note": 61, "velocity": 114, "channel": 0}, {"type": "note_on", "time": 14, "note": 63, "velocity": 118, "channel": 0}, {"type": "note_off", "time": 73, "note": 63, "velocity": 118, "channel": 0}, {"type": "note_on", "time": 26, "note": 58, "velocity": 109, "channel": 0}, {"type": "note_off", "time": 102, "note": 58, "velocity": 109, "channel": 0}, {"type": "note_on", "time": 29, "note": 63, "velocity": 9, "channel": 0}, {"type": "note_off", "time": 1097, "note": 63, "velocity": 9, "channel": 0}, {"type": "note_on", "time": 15, "note": 59, "velocity": 115, "channel": 0}, {"type": "note_off", "time": 43, "note": 59, "velocity": 115, "channel": 0}, {"type": "note_on", "time": 18, "note": 63, "velocity": 113, "channel": 0}, {"type": "note_off", "time": 38, "note": 63, "velocity": 113, "channel": 0}, {"type": "note_on", "time": 9, "note": 64, "velocity": 116, "channel": 0}, {"type": "note_off", "time": 32, "note": 64, "velocity": 116, "channel": 0}, {"type": "note_on", "time": 1, "note": 64, "velocity": 114, "channel": 0}, {"type": "note_off", "time": 90, "note": 64, "velocity": 114, "channel": 0}, {"type": "note_on", "time": 9, "note": 71, "velocity": 112, "channel": 0}, {"type": "note_off", "time": 48, "note": 71, "velocity": 112, "channel": 0}, {"type": "note_on", "time": 6, "note": 75, "velocity": 126, "channel": 0}, {"type": "note_off", "time": 127, "note": 75, "velocity": 126, "channel": 0}, {"type": "note_on", "time": 4, "note": 77, "velocity": 115, "channel": 0}, {"type": "note_off", "time": 18, "note": 77, "velocity": 115, "channel": 0}, {"type": "note_on", "time": 8, "note": 82, "velocity": 111, "channel": 0}, {"type": "note_off", "time": 26, "note": 82, "velocity": 111, "channel": 0}, {"type": "note_on", "time": 14, "note": 77, "velocity": 121, "channel": 0}, {"type": "note_off", "time": 57, "note": 77, "velocity": 121, "channel": 0}, {"type": "note_on", "time": 20, "note": 77, "velocity": 112, "channel": 0}, {"type": "note_off", "time": 55, "note": 77, "velocity": 112, "channel": 0}, {"type": "note_on", "time": 9, "note": 75, "velocity": 108, "channel": 0}, {"type": "note_off", "time": 18, "note": 75, "velocity": 108, "channel": 0}, {"type": "note_on", "time": 0, "note": 70, "velocity": 111, "channel": 0}, {"type": "note_off", "time": 41, "note": 70, "velocity": 111, "channel": 0}, {"type": "note_on", "time": 10, "note": 71, "velocity": 101, "channel": 0}, {"type": "note_off", "time": 43, "note": 71, "velocity": 101, "channel": 0}, {"type": "note_on", "time": 29, "note": 65, "velocity": 119, "channel": 0}, {"type": "note_off", "time": 48, "note": 65, "velocity": 119, "channel": 0}, {"type": "note_on", "time": 14, "note": 63, "velocity": 105, "channel": 0}, {"type": "note_off", "time": 71, "note": 63, "velocity": 105, "channel": 0}, {"type": "note_on", "time": 1539, "note": 59, "velocity": 116, "channel": 0}, {"type": "note_off", "time": 52, "note": 59, "velocity": 116, "channel": 0}, {"type": "note_on", "time": 11, "note": 64, "velocity": 115, "channel": 0}, {"type": "note_off", "time": 29, "note": 64, "velocity": 115, "channel": 0}, {"type": "note_on", "time": 2, "note": 62, "velocity": 117, "channel": 0}, {"type": "note_off", "time": 65, "note": 62, "velocity": 117, "channel": 0}, {"type": "note_on", "time": 13, "note": 65, "velocity": 122, "channel": 0}, {"type": "note_off", "time": 60, "note": 65, "velocity": 122, "channel": 0}, {"type": "note_on", "time": 8, "note": 63, "velocity": 100, "channel": 0}, {"type": "note_off", "time": 42, "note": 63, "velocity": 100, "channel": 0}, {"type": "note_on", "time": 6, "note": 77, "velocity": 121, "channel": 0}, {"type": "note_off", "time": 40, "note": 77, "velocity": 121, "channel": 0}, {"type": "note_on", "time": 0, "note": 75, "velocity": 122, "channel": 0}, {"type": "note_off", "time": 41, "note": 75, "velocity": 122, "channel": 0}, {"type": "note_on", "time": 8, "note": 77, "velocity": 122, "channel": 0}, {"type": "note_off", "time": 43, "note": 77, "velocity": 122, "channel": 0}, {"type": "note_on", "time": 9, "note": 82, "velocity": 108, "channel": 0}, {"type": "note_off", "time": 32, "note": 82, "velocity": 108, "channel": 0}, {"type": "note_on", "time": 5, "note": 84, "velocity": 110, "channel": 0}, {"type": "note_off", "time": 35, "note": 84, "velocity": 110, "channel": 0}, {"type": "note_on", "time": 31, "note": 77, "velocity": 112, "channel": 0}, {"type": "note_off", "time": 46, "note": 77, "velocity": 112, "channel": 0}, {"type": "note_on", "time": 12, "note": 75, "velocity": 114, "channel": 0}, {"type": "note_off", "time": 33, "note": 75, "velocity": 114, "channel": 0}, {"type": "note_on", "time": 5, "note": 77, "velocity": 113, "channel": 0}, {"type": "note_off", "time": 49, "note": 77, "velocity": 113, "channel": 0}, {"type": "note_on", "time": 12, "note": 70, "velocity": 111, "channel": 0}, {"type": "note_off", "time": 35, "note": 70, "velocity": 111, "channel": 0}, {"type": "note_on", "time": 11, "note": 65, "velocity": 123, "channel": 0}, {"type": "note_off", "time": 41, "note": 65, "velocity": 123, "channel": 0}, {"type": "note_on", "time": 15, "note": 63, "velocity": 110, "channel": 0}, {"type": "note_off", "time": 112, "note": 63, "velocity": 110, "channel": 0}, {"type": "note_on", "time": 1093, "note": 59, "velocity": 114, "channel": 0}, {"type": "note_off", "time": 61, "note": 59, "velocity": 114, "channel": 0}, {"type": "note_on", "time": 20, "note": 63, "velocity": 113, "channel": 0}, {"type": "note_off", "time": 100, "note": 63, "velocity": 113, "channel": 0}, {"type": "note_on", "time": 22, "note": 65, "velocity": 119, "channel": 0}, {"type": "note_off", "time": 32, "note": 65, "velocity": 119, "channel": 0}, {"type": "note_on", "time": 9, "note": 70, "velocity": 110, "channel": 0}, {"type": "note_off", "time": 39, "note": 70, "velocity": 110, "channel": 0}, {"type": "note_on", "time": 3, "note": 75, "velocity": 107, "channel": 0}, {"type": "note_off", "time": 15, "note": 75, "velocity": 107, "channel": 0}, {"type": "note_on", "time": 8, "note": 76, "velocity": 118, "channel": 0}, {"type": "note_off", "time": 17, "note": 76, "velocity": 118, "channel": 0}, {"type": "note_on", "time": 12, "note": 75, "velocity": 119, "channel": 0}, {"type": "note_off", "time": 57, "note": 75, "velocity": 119, "channel": 0}, {"type": "note_on", "time": 4, "note": 77, "velocity": 119, "channel": 0}, {"type": "note_off", "time": 41, "note": 77, "velocity": 119, "channel": 0}, {"type": "note_on", "time": 10, "note": 82, "velocity": 101, "channel": 0}, {"type": "note_off", "time": 21, "note": 82, "velocity": 101, "channel": 0}, {"type": "note_on", "time": 6, "note": 85, "velocity": 114, "channel": 0}, {"type": "note_off", "time": 27, "note": 85, "velocity": 114, "channel": 0}, {"type": "note_on", "time": 2, "note": 84, "velocity": 113, "channel": 0}, {"type": "note_off", "time": 28, "note": 84, "velocity": 113, "channel": 0}, {"type": "note_on", "time": 9, "note": 82, "velocity": 104, "channel": 0}, {"type": "note_off", "time": 90, "note": 82, "velocity": 104, "channel": 0}, {"type": "note_on", "time": 56, "note": 87, "velocity": 112, "channel": 0}, {"type": "note_off", "time": 52, "note": 87, "velocity": 112, "channel": 0}, {"type": "note_on", "time": 6, "note": 86, "velocity": 108, "channel": 0}, {"type": "note_off", "time": 85, "note": 86, "velocity": 108, "channel": 0}, {"type": "note_on", "time": 41, "note": 75, "velocity": 109, "channel": 0}, {"type": "note_off", "time": 28, "note": 75, "velocity": 109, "channel": 0}, {"type": "note_on", "time": 4, "note": 77, "velocity": 116, "channel": 0}, {"type": "note_off", "time": 47, "note": 77, "velocity": 116, "channel": 0}, {"type": "note_on", "time": 31, "note": 82, "velocity": 105, "channel": 0}, {"type": "note_off", "time": 45, "note": 82, "velocity": 105, "channel": 0}, {"type": "note_on", "time": 4, "note": 77, "velocity": 110, "channel": 0}, {"type": "note_off", "time": 49, "note": 77, "velocity": 110, "channel": 0}, {"type": "note_on", "time": 3, "note": 75, "velocity": 94, "channel": 0}, {"type": "note_off", "time": 66, "note": 75, "velocity": 94, "channel": 0}, {"type": "note_on", "time": 90, "note": 77, "velocity": 119, "channel": 0}, {"type": "note_off", "time": 53, "note": 77, "velocity": 119, "channel": 0}, {"type": "note_on", "time": 10, "note": 75, "velocity": 110, "channel": 0}, {"type": "note_off", "time": 86, "note": 75, "velocity": 110, "channel": 0}, {"type": "note_on", "time": 1, "note": 70, "velocity": 114, "channel": 0}, {"type": "note_off", "time": 30, "note": 70, "velocity": 114, "channel": 0}, {"type": "note_on", "time": 14, "note": 65, "velocity": 120, "channel": 0}, {"type": "note_off", "time": 56, "note": 65, "velocity": 120, "channel": 0}, {"type": "note_on", "time": 14, "note": 58, "velocity": 104, "channel": 0}, {"type": "note_off", "time": 77, "note": 58, "velocity": 104, "channel": 0}, {"type": "note_on", "time": 1744, "note": 82, "velocity": 110, "channel": 0}, {"type": "note_off", "time": 79, "note": 82, "velocity": 110, "channel": 0}, {"type": "note_on", "time": 15, "note": 82, "velocity": 115, "channel": 0}, {"type": "note_off", "time": 76, "note": 82, "velocity": 115, "channel": 0}, {"type": "note_on", "time": 12, "note": 83, "velocity": 100, "channel": 0}, {"type": "note_off", "time": 76, "note": 83, "velocity": 100, "channel": 0}, {"type": "note_on", "time": 21, "note": 82, "velocity": 96, "channel": 0}, {"type": "note_off", "time": 73, "note": 82, "velocity": 96, "channel": 0}, {"type": "note_on", "time": 18, "note": 81, "velocity": 113, "channel": 0}, {"type": "note_off", "time": 80, "note": 81, "velocity": 113, "channel": 0}, {"type": "note_on", "time": 15, "note": 83, "velocity": 109, "channel": 0}, {"type": "note_off", "time": 79, "note": 83, "velocity": 109, "channel": 0}, {"type": "note_on", "time": 3, "note": 85, "velocity": 109, "channel": 0}, {"type": "note_off", "time": 100, "note": 85, "velocity": 109, "channel": 0}, {"type": "note_on", "time": 61, "note": 78, "velocity": 109, "channel": 0}, {"type": "note_off", "time": 46, "note": 78, "velocity": 109, "channel": 0}, {"type": "note_on", "time": 10, "note": 81, "velocity": 118, "channel": 0}, {"type": "note_off", "time": 94, "note": 81, "velocity": 118, "channel": 0}, {"type": "note_on", "time": 8, "note": 78, "velocity": 115, "channel": 0}, {"type": "note_off", "time": 77, "note": 78, "velocity": 115, "channel": 0}, {"type": "note_on", "time": 15, "note": 73, "velocity": 124, "channel": 0}, {"type": "note_off", "time": 142, "note": 73, "velocity": 124, "channel": 0}, {"type": "note_on", "time": 30, "note": 75, "velocity": 122, "channel": 0}, {"type": "note_off", "time": 130, "note": 75, "velocity": 122, "channel": 0}, {"type": "note_on", "time": 9, "note": 77, "velocity": 123, "channel": 0}, {"type": "note_off", "time": 52, "note": 77, "velocity": 123, "channel": 0}, {"type": "note_on", "time": 6, "note": 79, "velocity": 122, "channel": 0}, {"type": "note_off", "time": 109, "note": 79, "velocity": 122, "channel": 0}, {"type": "note_on", "time": 11, "note": 78, "velocity": 119, "channel": 0}, {"type": "note_off", "time": 106, "note": 78, "velocity": 119, "channel": 0}, {"type": "note_on", "time": 10, "note": 77, "velocity": 119, "channel": 0}, {"type": "note_off", "time": 72, "note": 77, "velocity": 119, "channel": 0}, {"type": "note_on", "time": 9, "note": 76, "velocity": 119, "channel": 0}, {"type": "note_off", "time": 60, "note": 76, "velocity": 119, "channel": 0}, {"type": "note_on", "time": 12, "note": 75, "velocity": 114, "channel": 0}, {"type": "note_off", "time": 98, "note": 75, "velocity": 114, "channel": 0}, {"type": "note_on", "time": 15, "note": 79, "velocity": 115, "channel": 0}, {"type": "note_off", "time": 79, "note": 79, "velocity": 115, "channel": 0}, {"type": "note_on", "time": 9, "note": 74, "velocity": 114, "channel": 0}, {"type": "note_off", "time": 118, "note": 74, "velocity": 114, "channel": 0}, {"type": "note_on", "time": 9, "note": 75, "velocity": 115, "channel": 0}, {"type": "note_off", "time": 37, "note": 75, "velocity": 115, "channel": 0}, {"type": "note_on", "time": 10, "note": 77, "velocity": 122, "channel": 0}, {"type": "note_off", "time": 119, "note": 77, "velocity": 122, "channel": 0}, {"type": "note_on", "time": 17, "note": 74, "velocity": 102, "channel": 0}, {"type": "note_off", "time": 73, "note": 74, "velocity": 102, "channel": 0}, {"type": "note_on", "time": 5, "note": 75, "velocity": 120, "channel": 0}, {"type": "note_off", "time": 94, "note": 75, "velocity": 120, "channel": 0}, {"type": "note_on", "time": 10, "note": 73, "velocity": 118, "channel": 0}, {"type": "note_off", "time": 82, "note": 73, "velocity": 118, "channel": 0}, {"type": "note_on", "time": 11, "note": 70, "velocity": 110, "channel": 0}, {"type": "note_off", "time": 91, "note": 70, "velocity": 110, "channel": 0}, {"type": "note_on", "time": 9, "note": 69, "velocity": 102, "channel": 0}, {"type": "note_off", "time": 82, "note": 69, "velocity": 102, "channel": 0}, {"type": "note_on", "time": 6, "note": 70, "velocity": 114, "channel": 0}, {"type": "note_off", "time": 104, "note": 70, "velocity": 114, "channel": 0}, {"type": "note_on", "time": 11, "note": 66, "velocity": 120, "channel": 0}, {"type": "note_off", "time": 80, "note": 66, "velocity": 120, "channel": 0}, {"type": "note_on", "time": 14, "note": 65, "velocity": 123, "channel": 0}, {"type": "note_off", "time": 73, "note": 65, "velocity": 123, "channel": 0}, {"type": "note_on", "time": 13, "note": 64, "velocity": 117, "channel": 0}, {"type": "note_off", "time": 67, "note": 64, "velocity": 117, "channel": 0}, {"type": "note_on", "time": 19, "note": 63, "velocity": 119, "channel": 0}, {"type": "note_off", "time": 80, "note": 63, "velocity": 119, "channel": 0}, {"type": "note_on", "time": 8, "note": 65, "velocity": 118, "channel": 0}, {"type": "note_off", "time": 94, "note": 65, "velocity": 118, "channel": 0}, {"type": "note_on", "time": 18, "note": 67, "velocity": 116, "channel": 0}, {"type": "note_off", "time": 94, "note": 67, "velocity": 116, "channel": 0}, {"type": "note_on", "time": 16, "note": 70, "velocity": 104, "channel": 0}, {"type": "note_off", "time": 35, "note": 70, "velocity": 104, "channel": 0}, {"type": "note_on", "time": 10, "note": 72, "velocity": 115, "channel": 0}, {"type": "note_off", "time": 116, "note": 72, "velocity": 115, "channel": 0}, {"type": "note_on", "time": 30, "note": 74, "velocity": 117, "channel": 0}, {"type": "note_off", "time": 31, "note": 74, "velocity": 117, "channel": 0}, {"type": "note_on", "time": 12, "note": 77, "velocity": 116, "channel": 0}, {"type": "note_off", "time": 137, "note": 77, "velocity": 116, "channel": 0}, {"type": "note_on", "time": 9, "note": 74, "velocity": 108, "channel": 0}, {"type": "note_off", "time": 62, "note": 74, "velocity": 108, "channel": 0}, {"type": "note_on", "time": 1, "note": 75, "velocity": 120, "channel": 0}, {"type": "note_off", "time": 106, "note": 75, "velocity": 120, "channel": 0}, {"type": "note_on", "time": 27, "note": 72, "velocity": 112, "channel": 0}, {"type": "note_off", "time": 65, "note": 72, "velocity": 112, "channel": 0}, {"type": "note_on", "time": 10, "note": 70, "velocity": 110, "channel": 0}, {"type": "note_off", "time": 89, "note": 70, "velocity": 110, "channel": 0}, {"type": "note_on", "time": 26, "note": 66, "velocity": 104, "channel": 0}, {"type": "note_off", "time": 45, "note": 66, "velocity": 104, "channel": 0}, {"type": "note_on", "time": 17, "note": 70, "velocity": 112, "channel": 0}, {"type": "note_off", "time": 96, "note": 70, "velocity": 112, "channel": 0}, {"type": "note_on", "time": 26, "note": 66, "velocity": 117, "channel": 0}, {"type": "note_off", "time": 59, "note": 66, "velocity": 117, "channel": 0}, {"type": "note_on", "time": 11, "note": 65, "velocity": 120, "channel": 0}, {"type": "note_off", "time": 112, "note": 65, "velocity": 120, "channel": 0}, {"type": "note_on", "time": 5, "note": 64, "velocity": 113, "channel": 0}, {"type": "note_off", "time": 58, "note": 64, "velocity": 113, "channel": 0}, {"type": "note_on", "time": 5, "note": 63, "velocity": 114, "channel": 0}, {"type": "note_off", "time": 87, "note": 63, "velocity": 114, "channel": 0}, {"type": "note_on", "time": 20, "note": 65, "velocity": 120, "channel": 0}, {"type": "note_off", "time": 77, "note": 65, "velocity": 120, "channel": 0}, {"type": "note_on", "time": 13, "note": 67, "velocity": 115, "channel": 0}, {"type": "note_off", "time": 83, "note": 67, "velocity": 115, "channel": 0}, {"type": "note_on", "time": 19, "note": 70, "velocity": 99, "channel": 0}, {"type": "note_off", "time": 67, "note": 70, "velocity": 99, "channel": 0}, {"type": "note_on", "time": 8, "note": 72, "velocity": 112, "channel": 0}, {"type": "note_off", "time": 168, "note": 72, "velocity": 112, "channel": 0}, {"type": "note_on", "time": 14, "note": 75, "velocity": 120, "channel": 0}, {"type": "note_off", "time": 100, "note": 75, "velocity": 120, "channel": 0}, {"type": "note_on", "time": 119, "note": 70, "velocity": 114, "channel": 0}, {"type": "note_off", "time": 179, "note": 70, "velocity": 114, "channel": 0}, {"type": "note_on", "time": 25, "note": 62, "velocity": 102, "channel": 0}, {"type": "note_off", "time": 82, "note": 62, "velocity": 102, "channel": 0}, {"type": "note_on", "time": 110, "note": 64, "velocity": 115, "channel": 0}, {"type": "note_off", "time": 42, "note": 64, "velocity": 115, "channel": 0}, {"type": "note_on", "time": 9, "note": 66, "velocity": 112, "channel": 0}, {"type": "note_off", "time": 133, "note": 66, "velocity": 112, "channel": 0}, {"type": "note_on", "time": 8, "note": 67, "velocity": 113, "channel": 0}, {"type": "note_off", "time": 95, "note": 67, "velocity": 113, "channel": 0}, {"type": "note_on", "time": 32, "note": 72, "velocity": 103, "channel": 0}, {"type": "note_off", "time": 223, "note": 72, "velocity": 103, "channel": 0}, {"type": "note_on", "time": 10, "note": 70, "velocity": 106, "channel": 0}, {"type": "note_off", "time": 100, "note": 70, "velocity": 106, "channel": 0}, {"type": "note_on", "time": 1256, "note": 70, "velocity": 113, "channel": 0}, {"type": "note_off", "time": 106, "note": 70, "velocity": 113, "channel": 0}, {"type": "note_on", "time": 11, "note": 67, "velocity": 108, "channel": 0}, {"type": "note_off", "time": 67, "note": 67, "velocity": 108, "channel": 0}, {"type": "note_on", "time": 14, "note": 70, "velocity": 117, "channel": 0}, {"type": "note_off", "time": 118, "note": 70, "velocity": 117, "channel": 0}, {"type": "note_on", "time": 22, "note": 67, "velocity": 117, "channel": 0}, {"type": "note_off", "time": 66, "note": 67, "velocity": 117, "channel": 0}, {"type": "note_on", "time": 4, "note": 68, "velocity": 118, "channel": 0}, {"type": "note_off", "time": 296, "note": 68, "velocity": 118, "channel": 0}, {"type": "note_on", "time": 5, "note": 66, "velocity": 115, "channel": 0}, {"type": "note_off", "time": 342, "note": 66, "velocity": 115, "channel": 0}, {"type": "note_on", "time": 468, "note": 68, "velocity": 121, "channel": 0}, {"type": "note_off", "time": 89, "note": 68, "velocity": 121, "channel": 0}, {"type": "note_on", "time": 8, "note": 66, "velocity": 119, "channel": 0}, {"type": "note_off", "time": 75, "note": 66, "velocity": 119, "channel": 0}, {"type": "note_on", "time": 9, "note": 68, "velocity": 118, "channel": 0}, {"type": "note_off", "time": 103, "note": 68, "velocity": 118, "channel": 0}, {"type": "note_on", "time": 15, "note": 65, "velocity": 116, "channel": 0}, {"type": "note_off", "time": 105, "note": 65, "velocity": 116, "channel": 0}, {"type": "note_on", "time": 14, "note": 66, "velocity": 115, "channel": 0}, {"type": "note_off", "time": 164, "note": 66, "velocity": 115, "channel": 0}, {"type": "note_on", "time": 17, "note": 67, "velocity": 116, "channel": 0}, {"type": "note_off", "time": 70, "note": 67, "velocity": 116, "channel": 0}, {"type": "note_on", "time": 12, "note": 66, "velocity": 115, "channel": 0}, {"type": "note_off", "time": 69, "note": 66, "velocity": 115, "channel": 0}, {"type": "note_on", "time": 17, "note": 65, "velocity": 115, "channel": 0}, {"type": "note_off", "time": 88, "note": 65, "velocity": 115, "channel": 0}, {"type": "note_on", "time": 7, "note": 64, "velocity": 111, "channel": 0}, {"type": "note_off", "time": 47, "note": 64, "velocity": 111, "channel": 0}, {"type": "note_on", "time": 5, "note": 65, "velocity": 116, "channel": 0}, {"type": "note_off", "time": 87, "note": 65, "velocity": 116, "channel": 0}, {"type": "note_on", "time": 23, "note": 65, "velocity": 112, "channel": 0}, {"type": "note_off", "time": 108, "note": 65, "velocity": 112, "channel": 0}, {"type": "note_on", "time": 14, "note": 64, "velocity": 118, "channel": 0}, {"type": "note_off", "time": 56, "note": 64, "velocity": 118, "channel": 0}, {"type": "note_on", "time": 3, "note": 65, "velocity": 120, "channel": 0}, {"type": "note_off", "time": 254, "note": 65, "velocity": 120, "channel": 0}, {"type": "note_on", "time": 10, "note": 63, "velocity": 118, "channel": 0}, {"type": "note_off", "time": 142, "note": 63, "velocity": 118, "channel": 0}, {"type": "note_on", "time": 19, "note": 64, "velocity": 114, "channel": 0}, {"type": "note_off", "time": 185, "note": 64, "velocity": 114, "channel": 0}, {"type": "note_on", "time": 12, "note": 62, "velocity": 109, "channel": 0}, {"type": "note_off", "time": 69, "note": 62, "velocity": 109, "channel": 0}, {"type": "note_on", "time": 5, "note": 63, "velocity": 113, "channel": 0}, {"type": "note_off", "time": 199, "note": 63, "velocity": 113, "channel": 0}, {"type": "note_on", "time": 18, "note": 62, "velocity": 113, "channel": 0}, {"type": "note_off", "time": 49, "note": 62, "velocity": 113, "channel": 0}, {"type": "note_on", "time": 2, "note": 63, "velocity": 114, "channel": 0}, {"type": "note_off", "time": 79, "note": 63, "velocity": 114, "channel": 0}, {"type": "note_on", "time": 9, "note": 61, "velocity": 111, "channel": 0}, {"type": "note_off", "time": 336, "note": 61, "velocity": 111, "channel": 0}, {"type": "note_on", "time": 23, "note": 63, "velocity": 110, "channel": 0}, {"type": "note_off", "time": 52, "note": 63, "velocity": 110, "channel": 0}, {"type": "note_on", "time": 31, "note": 61, "velocity": 113, "channel": 0}, {"type": "note_off", "time": 240, "note": 61, "velocity": 113, "channel": 0}, {"type": "note_on", "time": 14, "note": 60, "velocity": 113, "channel": 0}, {"type": "note_off", "time": 79, "note": 60, "velocity": 113, "channel": 0}, {"type": "note_on", "time": 10, "note": 59, "velocity": 115, "channel": 0}, {"type": "note_off", "time": 292, "note": 59, "velocity": 115, "channel": 0}, {"type": "note_on", "time": 69, "note": 59, "velocity": 115, "channel": 0}, {"type": "note_off", "time": 160, "note": 59, "velocity": 115, "channel": 0}, {"type": "note_on", "time": 15, "note": 61, "velocity": 114, "channel": 0}, {"type": "note_off", "time": 182, "note": 61, "velocity": 114, "channel": 0}, {"type": "note_on", "time": 26, "note": 63, "velocity": 114, "channel": 0}, {"type": "note_off", "time": 150, "note": 63, "velocity": 114, "channel": 0}, {"type": "note_on", "time": 29, "note": 64, "velocity": 116, "channel": 0}, {"type": "note_off", "time": 148, "note": 64, "velocity": 116, "channel": 0}, {"type": "note_on", "time": 27, "note": 66, "velocity": 117, "channel": 0}, {"type": "note_off", "time": 180, "note": 66, "velocity": 117, "channel": 0}, {"type": "note_on", "time": 21, "note": 68, "velocity": 117, "channel": 0}, {"type": "note_off", "time": 154, "note": 68, "velocity": 117, "channel": 0}, {"type": "note_on", "time": 13, "note": 69, "velocity": 120, "channel": 0}, {"type": "note_off", "time": 175, "note": 69, "velocity": 120, "channel": 0}, {"type": "note_on", "time": 20, "note": 71, "velocity": 111, "channel": 0}, {"type": "note_off", "time": 94, "note": 71, "velocity": 111, "channel": 0}, {"type": "note_on", "time": 18, "note": 73, "velocity": 118, "channel": 0}, {"type": "note_off", "time": 65, "note": 73, "velocity": 118, "channel": 0}, {"type": "note_on", "time": 15, "note": 71, "velocity": 110, "channel": 0}, {"type": "note_off", "time": 170, "note": 71, "velocity": 110, "channel": 0}, {"type": "note_on", "time": 27, "note": 69, "velocity": 117, "channel": 0}, {"type": "note_off", "time": 142, "note": 69, "velocity": 117, "channel": 0}, {"type": "note_on", "time": 10, "note": 68, "velocity": 115, "channel": 0}, {"type": "note_off", "time": 173, "note": 68, "velocity": 115, "channel": 0}, {"type": "note_on", "time": 23, "note": 80, "velocity": 117, "channel": 0}, {"type": "note_off", "time": 59, "note": 80, "velocity": 117, "channel": 0}, {"type": "note_on", "time": 3779, "note": 79, "velocity": 120, "channel": 0}, {"type": "note_off", "time": 73, "note": 79, "velocity": 120, "channel": 0}, {"type": "note_on", "time": 15, "note": 82, "velocity": 102, "channel": 0}, {"type": "note_off", "time": 70, "note": 82, "velocity": 102, "channel": 0}, {"type": "note_on", "time": 34, "note": 86, "velocity": 110, "channel": 0}, {"type": "note_off", "time": 79, "note": 86, "velocity": 110, "channel": 0}, {"type": "note_on", "time": 12, "note": 87, "velocity": 111, "channel": 0}, {"type": "note_off", "time": 115, "note": 87, "velocity": 111, "channel": 0}, {"type": "note_on", "time": 423, "note": 82, "velocity": 110, "channel": 0}, {"type": "note_off", "time": 126, "note": 82, "velocity": 110, "channel": 0}, {"type": "note_on", "time": 25, "note": 84, "velocity": 106, "channel": 0}, {"type": "note_off", "time": 60, "note": 84, "velocity": 106, "channel": 0}, {"type": "note_on", "time": 491, "note": 79, "velocity": 120, "channel": 0}, {"type": "note_off", "time": 70, "note": 79, "velocity": 120, "channel": 0}, {"type": "note_on", "time": 12, "note": 82, "velocity": 110, "channel": 0}, {"type": "note_off", "time": 79, "note": 82, "velocity": 110, "channel": 0}, {"type": "note_on", "time": 25, "note": 86, "velocity": 121, "channel": 0}, {"type": "note_off", "time": 75, "note": 86, "velocity": 121, "channel": 0}, {"type": "note_on", "time": 26, "note": 87, "velocity": 107, "channel": 0}, {"type": "note_off", "time": 45, "note": 87, "velocity": 107, "channel": 0}, {"type": "note_on", "time": 27, "note": 87, "velocity": 97, "channel": 0}, {"type": "note_off", "time": 75, "note": 87, "velocity": 97, "channel": 0}, {"type": "note_on", "time": 32, "note": 87, "velocity": 99, "channel": 0}, {"type": "note_off", "time": 93, "note": 87, "velocity": 99, "channel": 0}, {"type": "note_on", "time": 29, "note": 87, "velocity": 99, "channel": 0}, {"type": "note_off", "time": 70, "note": 87, "velocity": 99, "channel": 0}, {"type": "note_on", "time": 29, "note": 87, "velocity": 108, "channel": 0}, {"type": "note_off", "time": 79, "note": 87, "velocity": 108, "channel": 0}, {"type": "note_on", "time": 69, "note": 86, "velocity": 99, "channel": 0}, {"type": "note_off", "time": 49, "note": 86, "velocity": 99, "channel": 0}, {"type": "note_on", "time": 14, "note": 82, "velocity": 99, "channel": 0}, {"type": "note_off", "time": 57, "note": 82, "velocity": 99, "channel": 0}, {"type": "note_on", "time": 58, "note": 70, "velocity": 111, "channel": 0}, {"type": "note_off", "time": 125, "note": 70, "velocity": 111, "channel": 0}, {"type": "note_on", "time": 261, "note": 78, "velocity": 71, "channel": 0}, {"type": "note_off", "time": 59, "note": 78, "velocity": 71, "channel": 0}, {"type": "note_on", "time": 76, "note": 79, "velocity": 115, "channel": 0}, {"type": "note_off", "time": 98, "note": 79, "velocity": 115, "channel": 0}, {"type": "note_on", "time": 12, "note": 82, "velocity": 108, "channel": 0}, {"type": "note_off", "time": 60, "note": 82, "velocity": 108, "channel": 0}, {"type": "note_on", "time": 26, "note": 85, "velocity": 118, "channel": 0}, {"type": "note_off", "time": 103, "note": 85, "velocity": 118, "channel": 0}, {"type": "note_on", "time": 54, "note": 87, "velocity": 90, "channel": 0}, {"type": "note_off", "time": 59, "note": 87, "velocity": 90, "channel": 0}, {"type": "note_on", "time": 424, "note": 86, "velocity": 117, "channel": 0}, {"type": "note_off", "time": 49, "note": 86, "velocity": 117, "channel": 0}, {"type": "note_on", "time": 3, "note": 85, "velocity": 114, "channel": 0}, {"type": "note_off", "time": 51, "note": 85, "velocity": 114, "channel": 0}, {"type": "note_on", "time": 36, "note": 82, "velocity": 105, "channel": 0}, {"type": "note_off", "time": 91, "note": 82, "velocity": 105, "channel": 0}, {"type": "note_on", "time": 337, "note": 82, "velocity": 112, "channel": 0}, {"type": "note_off", "time": 149, "note": 82, "velocity": 112, "channel": 0}, {"type": "note_on", "time": 37, "note": 78, "velocity": 120, "channel": 0}, {"type": "note_off", "time": 124, "note": 78, "velocity": 120, "channel": 0}, {"type": "note_on", "time": 21, "note": 82, "velocity": 117, "channel": 0}, {"type": "note_off", "time": 60, "note": 82, "velocity": 117, "channel": 0}, {"type": "note_on", "time": 15, "note": 79, "velocity": 123, "channel": 0}, {"type": "note_off", "time": 91, "note": 79, "velocity": 123, "channel": 0}, {"type": "note_on", "time": 10, "note": 82, "velocity": 114, "channel": 0}, {"type": "note_off", "time": 92, "note": 82, "velocity": 114, "channel": 0}, {"type": "note_on", "time": 425, "note": 85, "velocity": 95, "channel": 0}, {"type": "note_off", "time": 42, "note": 85, "velocity": 95, "channel": 0}, {"type": "note_on", "time": 8, "note": 87, "velocity": 115, "channel": 0}, {"type": "note_off", "time": 55, "note": 87, "velocity": 115, "channel": 0}, {"type": "note_on", "time": 12, "note": 88, "velocity": 81, "channel": 0}, {"type": "note_off", "time": 159, "note": 88, "velocity": 81, "channel": 0}, {"type": "note_on", "time": 9, "note": 89, "velocity": 98, "channel": 0}, {"type": "note_off", "time": 1019, "note": 89, "velocity": 98, "channel": 0}, {"type": "note_on", "time": 31, "note": 90, "velocity": 110, "channel": 0}, {"type": "note_off", "time": 88, "note": 90, "velocity": 110, "channel": 0}, {"type": "note_on", "time": 18, "note": 89, "velocity": 115, "channel": 0}, {"type": "note_off", "time": 51, "note": 89, "velocity": 115, "channel": 0}, {"type": "note_on", "time": 10, "note": 90, "velocity": 118, "channel": 0}, {"type": "note_off", "time": 90, "note": 90, "velocity": 118, "channel": 0}, {"type": "note_on", "time": 47, "note": 83, "velocity": 115, "channel": 0}, {"type": "note_off", "time": 80, "note": 83, "velocity": 115, "channel": 0}, {"type": "note_on", "time": 7, "note": 82, "velocity": 119, "channel": 0}, {"type": "note_off", "time": 288, "note": 82, "velocity": 119, "channel": 0}, {"type": "note_on", "time": 17, "note": 80, "velocity": 104, "channel": 0}, {"type": "note_off", "time": 52, "note": 80, "velocity": 104, "channel": 0}, {"type": "note_on", "time": 12, "note": 81, "velocity": 123, "channel": 0}, {"type": "note_off", "time": 100, "note": 81, "velocity": 123, "channel": 0}, {"type": "note_on", "time": 19, "note": 72, "velocity": 112, "channel": 0}, {"type": "note_off", "time": 59, "note": 72, "velocity": 112, "channel": 0}, {"type": "note_on", "time": 9, "note": 78, "velocity": 125, "channel": 0}, {"type": "note_off", "time": 99, "note": 78, "velocity": 125, "channel": 0}, {"type": "note_on", "time": 10, "note": 81, "velocity": 120, "channel": 0}, {"type": "note_off", "time": 85, "note": 81, "velocity": 120, "channel": 0}, {"type": "note_on", "time": 2, "note": 80, "velocity": 119, "channel": 0}, {"type": "note_off", "time": 99, "note": 80, "velocity": 119, "channel": 0}, {"type": "note_on", "time": 9, "note": 79, "velocity": 126, "channel": 0}, {"type": "note_off", "time": 59, "note": 79, "velocity": 126, "channel": 0}, {"type": "note_on", "time": 10, "note": 78, "velocity": 121, "channel": 0}, {"type": "note_off", "time": 110, "note": 78, "velocity": 121, "channel": 0}, {"type": "note_on", "time": 24, "note": 72, "velocity": 105, "channel": 0}, {"type": "note_off", "time": 64, "note": 72, "velocity": 105, "channel": 0}, {"type": "note_on", "time": 14, "note": 77, "velocity": 125, "channel": 0}, {"type": "note_off", "time": 97, "note": 77, "velocity": 125, "channel": 0}, {"type": "note_on", "time": 7, "note": 76, "velocity": 124, "channel": 0}, {"type": "note_off", "time": 65, "note": 76, "velocity": 124, "channel": 0}, {"type": "note_on", "time": 10, "note": 75, "velocity": 117, "channel": 0}, {"type": "note_off", "time": 75, "note": 75, "velocity": 117, "channel": 0}, {"type": "note_on", "time": 15, "note": 79, "velocity": 123, "channel": 0}, {"type": "note_off", "time": 88, "note": 79, "velocity": 123, "channel": 0}, {"type": "note_on", "time": 12, "note": 75, "velocity": 122, "channel": 0}, {"type": "note_off", "time": 91, "note": 75, "velocity": 122, "channel": 0}, {"type": "note_on", "time": 14, "note": 77, "velocity": 127, "channel": 0}, {"type": "note_off", "time": 69, "note": 77, "velocity": 127, "channel": 0}, {"type": "note_on", "time": 13, "note": 78, "velocity": 122, "channel": 0}, {"type": "note_off", "time": 104, "note": 78, "velocity": 122, "channel": 0}, {"type": "note_on", "time": 14, "note": 75, "velocity": 110, "channel": 0}, {"type": "note_off", "time": 27, "note": 75, "velocity": 110, "channel": 0}, {"type": "note_on", "time": 24, "note": 76, "velocity": 126, "channel": 0}, {"type": "note_off", "time": 100, "note": 76, "velocity": 126, "channel": 0}, {"type": "note_on", "time": 27, "note": 73, "velocity": 121, "channel": 0}, {"type": "note_off", "time": 87, "note": 73, "velocity": 121, "channel": 0}, {"type": "note_on", "time": 17, "note": 70, "velocity": 118, "channel": 0}, {"type": "note_off", "time": 114, "note": 70, "velocity": 118, "channel": 0}, {"type": "note_on", "time": 13, "note": 66, "velocity": 116, "channel": 0}, {"type": "note_off", "time": 45, "note": 66, "velocity": 116, "channel": 0}, {"type": "note_on", "time": 23, "note": 69, "velocity": 115, "channel": 0}, {"type": "note_off", "time": 79, "note": 69, "velocity": 115, "channel": 0}, {"type": "note_on", "time": 8, "note": 75, "velocity": 124, "channel": 0}, {"type": "note_off", "time": 73, "note": 75, "velocity": 124, "channel": 0}, {"type": "note_on", "time": 6, "note": 73, "velocity": 122, "channel": 0}, {"type": "note_off", "time": 96, "note": 73, "velocity": 122, "channel": 0}, {"type": "note_on", "time": 15, "note": 70, "velocity": 106, "channel": 0}, {"type": "note_off", "time": 96, "note": 70, "velocity": 106, "channel": 0}, {"type": "note_on", "time": 8, "note": 71, "velocity": 114, "channel": 0}, {"type": "note_off", "time": 77, "note": 71, "velocity": 114, "channel": 0}, {"type": "note_on", "time": 13, "note": 68, "velocity": 119, "channel": 0}, {"type": "note_off", "time": 85, "note": 68, "velocity": 119, "channel": 0}, {"type": "note_on", "time": 12, "note": 67, "velocity": 119, "channel": 0}, {"type": "note_off", "time": 81, "note": 67, "velocity": 119, "channel": 0}, {"type": "note_on", "time": 13, "note": 66, "velocity": 121, "channel": 0}, {"type": "note_off", "time": 86, "note": 66, "velocity": 121, "channel": 0}, {"type": "note_on", "time": 9, "note": 65, "velocity": 124, "channel": 0}, {"type": "note_off", "time": 126, "note": 65, "velocity": 124, "channel": 0}, {"type": "note_on", "time": 8, "note": 64, "velocity": 117, "channel": 0}, {"type": "note_off", "time": 43, "note": 64, "velocity": 117, "channel": 0}, {"type": "note_on", "time": 13, "note": 63, "velocity": 116, "channel": 0}, {"type": "note_off", "time": 90, "note": 63, "velocity": 116, "channel": 0}, {"type": "note_on", "time": 13, "note": 65, "velocity": 122, "channel": 0}, {"type": "note_off", "time": 71, "note": 65, "velocity": 122, "channel": 0}, {"type": "note_on", "time": 24, "note": 63, "velocity": 116, "channel": 0}, {"type": "note_off", "time": 92, "note": 63, "velocity": 116, "channel": 0}, {"type": "note_on", "time": 17, "note": 65, "velocity": 113, "channel": 0}, {"type": "note_off", "time": 55, "note": 65, "velocity": 113, "channel": 0}, {"type": "note_on", "time": 14, "note": 70, "velocity": 119, "channel": 0}, {"type": "note_off", "time": 68, "note": 70, "velocity": 119, "channel": 0}, {"type": "note_on", "time": 13, "note": 72, "velocity": 114, "channel": 0}, {"type": "note_off", "time": 58, "note": 72, "velocity": 114, "channel": 0}, {"type": "note_on", "time": 45, "note": 70, "velocity": 114, "channel": 0}, {"type": "note_off", "time": 79, "note": 70, "velocity": 114, "channel": 0}, {"type": "note_on", "time": 15, "note": 72, "velocity": 111, "channel": 0}, {"type": "note_off", "time": 53, "note": 72, "velocity": 111, "channel": 0}, {"type": "note_on", "time": 15, "note": 75, "velocity": 120, "channel": 0}, {"type": "note_off", "time": 91, "note": 75, "velocity": 120, "channel": 0}, {"type": "note_on", "time": 21, "note": 70, "velocity": 108, "channel": 0}, {"type": "note_off", "time": 82, "note": 70, "velocity": 108, "channel": 0}, {"type": "note_on", "time": 15, "note": 77, "velocity": 125, "channel": 0}, {"type": "note_off", "time": 94, "note": 77, "velocity": 125, "channel": 0}, {"type": "note_on", "time": 12, "note": 70, "velocity": 111, "channel": 0}, {"type": "note_off", "time": 65, "note": 70, "velocity": 111, "channel": 0}, {"type": "note_on", "time": 19, "note": 75, "velocity": 119, "channel": 0}, {"type": "note_off", "time": 96, "note": 75, "velocity": 119, "channel": 0}, {"type": "note_on", "time": 17, "note": 79, "velocity": 113, "channel": 0}, {"type": "note_off", "time": 126, "note": 79, "velocity": 113, "channel": 0}, {"type": "note_on", "time": 58, "note": 75, "velocity": 118, "channel": 0}, {"type": "note_off", "time": 73, "note": 75, "velocity": 118, "channel": 0}, {"type": "note_on", "time": 14, "note": 82, "velocity": 114, "channel": 0}, {"type": "note_off", "time": 82, "note": 82, "velocity": 114, "channel": 0}, {"type": "note_on", "time": 18, "note": 72, "velocity": 104, "channel": 0}, {"type": "note_off", "time": 63, "note": 72, "velocity": 104, "channel": 0}, {"type": "note_on", "time": 17, "note": 67, "velocity": 118, "channel": 0}, {"type": "note_off", "time": 82, "note": 67, "velocity": 118, "channel": 0}, {"type": "note_on", "time": 15, "note": 70, "velocity": 115, "channel": 0}, {"type": "note_off", "time": 69, "note": 70, "velocity": 115, "channel": 0}, {"type": "note_on", "time": 17, "note": 63, "velocity": 114, "channel": 0}, {"type": "note_off", "time": 60, "note": 63, "velocity": 114, "channel": 0}, {"type": "note_on", "time": 21, "note": 70, "velocity": 113, "channel": 0}, {"type": "note_off", "time": 80, "note": 70, "velocity": 113, "channel": 0}, {"type": "note_on", "time": 12, "note": 61, "velocity": 111, "channel": 0}, {"type": "note_off", "time": 104, "note": 61, "velocity": 111, "channel": 0}, {"type": "note_on", "time": 0, "note": 70, "velocity": 118, "channel": 0}, {"type": "note_off", "time": 80, "note": 70, "velocity": 118, "channel": 0}, {"type": "note_on", "time": 8, "note": 63, "velocity": 112, "channel": 0}, {"type": "note_off", "time": 71, "note": 63, "velocity": 112, "channel": 0}, {"type": "note_on", "time": 18, "note": 70, "velocity": 119, "channel": 0}, {"type": "note_off", "time": 68, "note": 70, "velocity": 119, "channel": 0}, {"type": "note_on", "time": 21, "note": 70, "velocity": 117, "channel": 0}, {"type": "note_off", "time": 135, "note": 70, "velocity": 117, "channel": 0}, {"type": "note_on", "time": 288, "note": 63, "velocity": 114, "channel": 0}, {"type": "note_off", "time": 87, "note": 63, "velocity": 114, "channel": 0}, {"type": "note_on", "time": 7, "note": 70, "velocity": 116, "channel": 0}, {"type": "note_off", "time": 73, "note": 70, "velocity": 116, "channel": 0}, {"type": "note_on", "time": 12, "note": 61, "velocity": 111, "channel": 0}, {"type": "note_off", "time": 77, "note": 61, "velocity": 111, "channel": 0}, {"type": "note_on", "time": 20, "note": 70, "velocity": 115, "channel": 0}, {"type": "note_off", "time": 87, "note": 70, "velocity": 115, "channel": 0}, {"type": "note_on", "time": 13, "note": 63, "velocity": 112, "channel": 0}, {"type": "note_off", "time": 87, "note": 63, "velocity": 112, "channel": 0}, {"type": "note_on", "time": 23, "note": 70, "velocity": 116, "channel": 0}, {"type": "note_off", "time": 74, "note": 70, "velocity": 116, "channel": 0}, {"type": "note_on", "time": 7, "note": 70, "velocity": 115, "channel": 0}, {"type": "note_off", "time": 99, "note": 70, "velocity": 115, "channel": 0}, {"type": "note_on", "time": 19, "note": 70, "velocity": 119, "channel": 0}, {"type": "note_off", "time": 86, "note": 70, "velocity": 119, "channel": 0}, {"type": "note_on", "time": 0, "note": 63, "velocity": 110, "channel": 0}, {"type": "note_off", "time": 81, "note": 63, "velocity": 110, "channel": 0}, {"type": "note_on", "time": 10, "note": 70, "velocity": 114, "channel": 0}, {"type": "note_off", "time": 76, "note": 70, "velocity": 114, "channel": 0}, {"type": "note_on", "time": 13, "note": 63, "velocity": 93, "channel": 0}, {"type": "note_off", "time": 70, "note": 63, "velocity": 93, "channel": 0}, {"type": "note_on", "time": 31, "note": 70, "velocity": 118, "channel": 0}, {"type": "note_off", "time": 74, "note": 70, "velocity": 118, "channel": 0}, {"type": "note_on", "time": 6, "note": 64, "velocity": 115, "channel": 0}, {"type": "note_off", "time": 102, "note": 64, "velocity": 115, "channel": 0}, {"type": "note_on", "time": 811, "note": 58, "velocity": 114, "channel": 0}, {"type": "note_off", "time": 88, "note": 58, "velocity": 114, "channel": 0}, {"type": "note_on", "time": 18, "note": 61, "velocity": 102, "channel": 0}, {"type": "note_off", "time": 47, "note": 61, "velocity": 102, "channel": 0}, {"type": "note_on", "time": 24, "note": 63, "velocity": 116, "channel": 0}, {"type": "note_off", "time": 53, "note": 63, "velocity": 116, "channel": 0}, {"type": "note_on", "time": 9, "note": 66, "velocity": 119, "channel": 0}, {"type": "note_off", "time": 52, "note": 66, "velocity": 119, "channel": 0}, {"type": "note_on", "time": 12, "note": 64, "velocity": 114, "channel": 0}, {"type": "note_off", "time": 41, "note": 64, "velocity": 114, "channel": 0}, {"type": "note_on", "time": 6, "note": 65, "velocity": 119, "channel": 0}, {"type": "note_off", "time": 46, "note": 65, "velocity": 119, "channel": 0}, {"type": "note_on", "time": 15, "note": 68, "velocity": 119, "channel": 0}, {"type": "note_off", "time": 53, "note": 68, "velocity": 119, "channel": 0}, {"type": "note_on", "time": 49, "note": 72, "velocity": 116, "channel": 0}, {"type": "note_off", "time": 54, "note": 72, "velocity": 116, "channel": 0}, {"type": "note_on", "time": 8, "note": 74, "velocity": 112, "channel": 0}, {"type": "note_off", "time": 19, "note": 74, "velocity": 112, "channel": 0}, {"type": "note_on", "time": 12, "note": 77, "velocity": 117, "channel": 0}, {"type": "note_off", "time": 40, "note": 77, "velocity": 117, "channel": 0}, {"type": "note_on", "time": 6, "note": 78, "velocity": 117, "channel": 0}, {"type": "note_off", "time": 30, "note": 78, "velocity": 117, "channel": 0}, {"type": "note_on", "time": 8, "note": 76, "velocity": 116, "channel": 0}, {"type": "note_off", "time": 34, "note": 76, "velocity": 116, "channel": 0}, {"type": "note_on", "time": 12, "note": 77, "velocity": 117, "channel": 0}, {"type": "note_off", "time": 54, "note": 77, "velocity": 117, "channel": 0}, {"type": "note_on", "time": 10, "note": 79, "velocity": 117, "channel": 0}, {"type": "note_off", "time": 87, "note": 79, "velocity": 117, "channel": 0}, {"type": "note_on", "time": 2, "note": 77, "velocity": 117, "channel": 0}, {"type": "note_off", "time": 43, "note": 77, "velocity": 117, "channel": 0}, {"type": "note_on", "time": 19, "note": 75, "velocity": 114, "channel": 0}, {"type": "note_off", "time": 70, "note": 75, "velocity": 114, "channel": 0}, {"type": "note_on", "time": 6, "note": 72, "velocity": 107, "channel": 0}, {"type": "note_off", "time": 38, "note": 72, "velocity": 107, "channel": 0}, {"type": "note_on", "time": 3, "note": 69, "velocity": 102, "channel": 0}, {"type": "note_off", "time": 48, "note": 69, "velocity": 102, "channel": 0}, {"type": "note_on", "time": 6, "note": 65, "velocity": 99, "channel": 0}, {"type": "note_off", "time": 36, "note": 65, "velocity": 99, "channel": 0}, {"type": "note_on", "time": 6, "note": 66, "velocity": 107, "channel": 0}, {"type": "note_off", "time": 23, "note": 66, "velocity": 107, "channel": 0}, {"type": "note_on", "time": 4, "note": 67, "velocity": 111, "channel": 0}, {"type": "note_off", "time": 18, "note": 67, "velocity": 111, "channel": 0}, {"type": "note_on", "time": 4, "note": 71, "velocity": 110, "channel": 0}, {"type": "note_off", "time": 17, "note": 71, "velocity": 110, "channel": 0}, {"type": "note_on", "time": 14, "note": 74, "velocity": 115, "channel": 0}, {"type": "note_off", "time": 45, "note": 74, "velocity": 115, "channel": 0}, {"type": "note_on", "time": 8, "note": 73, "velocity": 120, "channel": 0}, {"type": "note_off", "time": 71, "note": 73, "velocity": 120, "channel": 0}, {"type": "note_on", "time": 6, "note": 74, "velocity": 118, "channel": 0}, {"type": "note_off", "time": 66, "note": 74, "velocity": 118, "channel": 0}, {"type": "note_on", "time": 13, "note": 70, "velocity": 109, "channel": 0}, {"type": "note_on", "time": 62, "note": 61, "velocity": 113, "channel": 0}, {"type": "note_off", "time": 0, "note": 70, "velocity": 109, "channel": 0}, {"type": "note_off", "time": 77, "note": 61, "velocity": 113, "channel": 0}, {"type": "note_on", "time": 7, "note": 62, "velocity": 114, "channel": 0}, {"type": "note_off", "time": 63, "note": 62, "velocity": 114, "channel": 0}, {"type": "note_on", "time": 12, "note": 65, "velocity": 104, "channel": 0}, {"type": "note_off", "time": 30, "note": 65, "velocity": 104, "channel": 0}, {"type": "note_on", "time": 14, "note": 64, "velocity": 115, "channel": 0}, {"type": "note_off", "time": 60, "note": 64, "velocity": 115, "channel": 0}, {"type": "note_on", "time": 7, "note": 65, "velocity": 121, "channel": 0}, {"type": "note_off", "time": 69, "note": 65, "velocity": 121, "channel": 0}, {"type": "note_on", "time": 10, "note": 67, "velocity": 113, "channel": 0}, {"type": "note_off", "time": 45, "note": 67, "velocity": 113, "channel": 0}, {"type": "note_on", "time": 9, "note": 69, "velocity": 114, "channel": 0}, {"type": "note_off", "time": 40, "note": 69, "velocity": 114, "channel": 0}, {"type": "note_on", "time": 3, "note": 70, "velocity": 107, "channel": 0}, {"type": "note_off", "time": 21, "note": 70, "velocity": 107, "channel": 0}, {"type": "note_on", "time": 3, "note": 73, "velocity": 107, "channel": 0}, {"type": "note_off", "time": 24, "note": 73, "velocity": 107, "channel": 0}, {"type": "note_on", "time": 12, "note": 74, "velocity": 116, "channel": 0}, {"type": "note_off", "time": 37, "note": 74, "velocity": 116, "channel": 0}, {"type": "note_on", "time": 3, "note": 75, "velocity": 109, "channel": 0}, {"type": "note_off", "time": 20, "note": 75, "velocity": 109, "channel": 0}, {"type": "note_on", "time": 12, "note": 73, "velocity": 111, "channel": 0}, {"type": "note_off", "time": 48, "note": 73, "velocity": 111, "channel": 0}, {"type": "note_on", "time": 14, "note": 76, "velocity": 113, "channel": 0}, {"type": "note_off", "time": 35, "note": 76, "velocity": 113, "channel": 0}, {"type": "note_on", "time": 3, "note": 74, "velocity": 110, "channel": 0}, {"type": "note_off", "time": 25, "note": 74, "velocity": 110, "channel": 0}, {"type": "note_on", "time": 19, "note": 78, "velocity": 116, "channel": 0}, {"type": "note_off", "time": 53, "note": 78, "velocity": 116, "channel": 0}, {"type": "note_on", "time": 3, "note": 79, "velocity": 112, "channel": 0}, {"type": "note_off", "time": 86, "note": 79, "velocity": 112, "channel": 0}, {"type": "note_on", "time": 12, "note": 80, "velocity": 108, "channel": 0}, {"type": "note_off", "time": 55, "note": 80, "velocity": 108, "channel": 0}, {"type": "note_on", "time": 27, "note": 82, "velocity": 102, "channel": 0}, {"type": "note_off", "time": 74, "note": 82, "velocity": 102, "channel": 0}, {"type": "note_on", "time": 14, "note": 83, "velocity": 93, "channel": 0}, {"type": "note_off", "time": 20, "note": 83, "velocity": 93, "channel": 0}, {"type": "note_on", "time": 9, "note": 84, "velocity": 109, "channel": 0}, {"type": "note_off", "time": 54, "note": 84, "velocity": 109, "channel": 0}, {"type": "note_on", "time": 13, "note": 83, "velocity": 101, "channel": 0}, {"type": "note_off", "time": 102, "note": 83, "velocity": 101, "channel": 0}, {"type": "note_on", "time": 40, "note": 75, "velocity": 104, "channel": 0}, {"type": "note_off", "time": 81, "note": 75, "velocity": 104, "channel": 0}, {"type": "note_on", "time": 13, "note": 77, "velocity": 108, "channel": 0}, {"type": "note_off", "time": 46, "note": 77, "velocity": 108, "channel": 0}, {"type": "note_on", "time": 15, "note": 72, "velocity": 100, "channel": 0}, {"type": "note_off", "time": 40, "note": 72, "velocity": 100, "channel": 0}, {"type": "note_on", "time": 26, "note": 67, "velocity": 105, "channel": 0}, {"type": "note_off", "time": 64, "note": 67, "velocity": 105, "channel": 0}, {"type": "note_on", "time": 6, "note": 63, "velocity": 108, "channel": 0}, {"type": "note_off", "time": 40, "note": 63, "velocity": 108, "channel": 0}, {"type": "note_on", "time": 1, "note": 60, "velocity": 105, "channel": 0}, {"type": "note_off", "time": 99, "note": 60, "velocity": 105, "channel": 0}, {"type": "note_on", "time": 1345, "note": 72, "velocity": 114, "channel": 0}, {"type": "note_off", "time": 46, "note": 72, "velocity": 114, "channel": 0}, {"type": "note_on", "time": 10, "note": 74, "velocity": 113, "channel": 0}, {"type": "note_off", "time": 26, "note": 74, "velocity": 113, "channel": 0}, {"type": "note_on", "time": 19, "note": 73, "velocity": 114, "channel": 0}, {"type": "note_off", "time": 55, "note": 73, "velocity": 114, "channel": 0}, {"type": "note_on", "time": 13, "note": 76, "velocity": 108, "channel": 0}, {"type": "note_off", "time": 15, "note": 76, "velocity": 108, "channel": 0}, {"type": "note_on", "time": 15, "note": 73, "velocity": 119, "channel": 0}, {"type": "note_off", "time": 49, "note": 73, "velocity": 119, "channel": 0}, {"type": "note_on", "time": 8, "note": 70, "velocity": 105, "channel": 0}, {"type": "note_off", "time": 19, "note": 70, "velocity": 105, "channel": 0}, {"type": "note_on", "time": 12, "note": 72, "velocity": 112, "channel": 0}, {"type": "note_off", "time": 66, "note": 72, "velocity": 112, "channel": 0}, {"type": "note_on", "time": 7, "note": 74, "velocity": 110, "channel": 0}, {"type": "note_off", "time": 20, "note": 74, "velocity": 110, "channel": 0}, {"type": "note_on", "time": 14, "note": 73, "velocity": 120, "channel": 0}, {"type": "note_off", "time": 41, "note": 73, "velocity": 120, "channel": 0}, {"type": "note_on", "time": 20, "note": 76, "velocity": 115, "channel": 0}, {"type": "note_off", "time": 32, "note": 76, "velocity": 115, "channel": 0}, {"type": "note_on", "time": 15, "note": 73, "velocity": 116, "channel": 0}, {"type": "note_off", "time": 46, "note": 73, "velocity": 116, "channel": 0}, {"type": "note_on", "time": 18, "note": 76, "velocity": 110, "channel": 0}, {"type": "note_off", "time": 16, "note": 76, "velocity": 110, "channel": 0}, {"type": "note_on", "time": 24, "note": 72, "velocity": 107, "channel": 0}, {"type": "note_off", "time": 63, "note": 72, "velocity": 107, "channel": 0}, {"type": "note_on", "time": 4, "note": 76, "velocity": 110, "channel": 0}, {"type": "note_off", "time": 32, "note": 76, "velocity": 110, "channel": 0}, {"type": "note_on", "time": 13, "note": 75, "velocity": 95, "channel": 0}, {"type": "note_off", "time": 38, "note": 75, "velocity": 95, "channel": 0}, {"type": "note_on", "time": 16, "note": 74, "velocity": 119, "channel": 0}, {"type": "note_off", "time": 43, "note": 74, "velocity": 119, "channel": 0}, {"type": "note_on", "time": 9, "note": 76, "velocity": 117, "channel": 0}, {"type": "note_off", "time": 19, "note": 76, "velocity": 117, "channel": 0}, {"type": "note_on", "time": 2, "note": 75, "velocity": 120, "channel": 0}, {"type": "note_off", "time": 30, "note": 75, "velocity": 120, "channel": 0}, {"type": "note_on", "time": 4, "note": 74, "velocity": 115, "channel": 0}, {"type": "note_off", "time": 57, "note": 74, "velocity": 115, "channel": 0}, {"type": "note_on", "time": 8, "note": 76, "velocity": 109, "channel": 0}, {"type": "note_off", "time": 54, "note": 76, "velocity": 109, "channel": 0}, {"type": "note_on", "time": 17, "note": 77, "velocity": 114, "channel": 0}, {"type": "note_off", "time": 64, "note": 77, "velocity": 114, "channel": 0}, {"type": "note_on", "time": 62, "note": 77, "velocity": 113, "channel": 0}, {"type": "note_off", "time": 79, "note": 77, "velocity": 113, "channel": 0}, {"type": "note_on", "time": 24, "note": 79, "velocity": 115, "channel": 0}, {"type": "note_off", "time": 40, "note": 79, "velocity": 115, "channel": 0}, {"type": "note_on", "time": 8, "note": 80, "velocity": 114, "channel": 0}, {"type": "note_off", "time": 66, "note": 80, "velocity": 114, "channel": 0}, {"type": "note_on", "time": 6, "note": 81, "velocity": 116, "channel": 0}, {"type": "note_off", "time": 23, "note": 81, "velocity": 116, "channel": 0}, {"type": "note_on", "time": 9, "note": 82, "velocity": 119, "channel": 0}, {"type": "note_off", "time": 26, "note": 82, "velocity": 119, "channel": 0}, {"type": "note_on", "time": 18, "note": 81, "velocity": 111, "channel": 0}, {"type": "note_off", "time": 34, "note": 81, "velocity": 111, "channel": 0}, {"type": "note_on", "time": 3, "note": 82, "velocity": 111, "channel": 0}, {"type": "note_off", "time": 31, "note": 82, "velocity": 111, "channel": 0}, {"type": "note_on", "time": 10, "note": 79, "velocity": 93, "channel": 0}, {"type": "note_off", "time": 43, "note": 79, "velocity": 93, "channel": 0}, {"type": "note_on", "time": 24, "note": 83, "velocity": 101, "channel": 0}, {"type": "note_off", "time": 34, "note": 83, "velocity": 101, "channel": 0}, {"type": "note_on", "time": 13, "note": 85, "velocity": 103, "channel": 0}, {"type": "note_off", "time": 29, "note": 85, "velocity": 103, "channel": 0}, {"type": "note_on", "time": 12, "note": 86, "velocity": 112, "channel": 0}, {"type": "note_off", "time": 65, "note": 86, "velocity": 112, "channel": 0}, {"type": "note_on", "time": 6, "note": 87, "velocity": 110, "channel": 0}, {"type": "note_off", "time": 24, "note": 87, "velocity": 110, "channel": 0}, {"type": "note_on", "time": 12, "note": 86, "velocity": 107, "channel": 0}, {"type": "note_off", "time": 79, "note": 86, "velocity": 107, "channel": 0}, {"type": "note_on", "time": 9, "note": 85, "velocity": 105, "channel": 0}, {"type": "note_off", "time": 60, "note": 85, "velocity": 105, "channel": 0}, {"type": "note_on", "time": 24, "note": 84, "velocity": 106, "channel": 0}, {"type": "note_off", "time": 63, "note": 84, "velocity": 106, "channel": 0}, {"type": "note_on", "time": 12, "note": 83, "velocity": 106, "channel": 0}, {"type": "note_off", "time": 64, "note": 83, "velocity": 106, "channel": 0}, {"type": "note_on", "time": 13, "note": 82, "velocity": 114, "channel": 0}, {"type": "note_off", "time": 105, "note": 82, "velocity": 114, "channel": 0}, {"type": "note_on", "time": 15, "note": 81, "velocity": 113, "channel": 0}, {"type": "note_off", "time": 88, "note": 81, "velocity": 113, "channel": 0}, {"type": "note_on", "time": 15, "note": 80, "velocity": 109, "channel": 0}, {"type": "note_off", "time": 73, "note": 80, "velocity": 109, "channel": 0}, {"type": "note_on", "time": 10, "note": 77, "velocity": 107, "channel": 0}, {"type": "note_off", "time": 64, "note": 77, "velocity": 107, "channel": 0}, {"type": "note_on", "time": 2, "note": 79, "velocity": 109, "channel": 0}, {"type": "note_off", "time": 33, "note": 79, "velocity": 109, "channel": 0}, {"type": "note_on", "time": 4, "note": 77, "velocity": 113, "channel": 0}, {"type": "note_off", "time": 38, "note": 77, "velocity": 113, "channel": 0}, {"type": "note_on", "time": 4, "note": 78, "velocity": 109, "channel": 0}, {"type": "note_off", "time": 38, "note": 78, "velocity": 109, "channel": 0}, {"type": "note_on", "time": 8, "note": 76, "velocity": 110, "channel": 0}, {"type": "note_off", "time": 47, "note": 76, "velocity": 110, "channel": 0}, {"type": "note_on", "time": 15, "note": 77, "velocity": 112, "channel": 0}, {"type": "note_off", "time": 41, "note": 77, "velocity": 112, "channel": 0}, {"type": "note_on", "time": 5, "note": 74, "velocity": 116, "channel": 0}, {"type": "note_off", "time": 61, "note": 74, "velocity": 116, "channel": 0}, {"type": "note_on", "time": 10, "note": 73, "velocity": 113, "channel": 0}, {"type": "note_off", "time": 24, "note": 73, "velocity": 113, "channel": 0}, {"type": "note_on", "time": 5, "note": 72, "velocity": 109, "channel": 0}, {"type": "note_off", "time": 58, "note": 72, "velocity": 109, "channel": 0}, {"type": "note_on", "time": 10, "note": 70, "velocity": 108, "channel": 0}, {"type": "note_off", "time": 131, "note": 70, "velocity": 108, "channel": 0}, {"type": "note_on", "time": 3, "note": 68, "velocity": 109, "channel": 0}, {"type": "note_off", "time": 35, "note": 68, "velocity": 109, "channel": 0}, {"type": "note_on", "time": 2130, "note": 79, "velocity": 111, "channel": 0}, {"type": "note_off", "time": 145, "note": 79, "velocity": 111, "channel": 0}, {"type": "note_on", "time": 6, "note": 80, "velocity": 118, "channel": 0}, {"type": "note_off", "time": 130, "note": 80, "velocity": 118, "channel": 0}, {"type": "note_on", "time": 23, "note": 79, "velocity": 110, "channel": 0}, {"type": "note_off", "time": 330, "note": 79, "velocity": 110, "channel": 0}, {"type": "note_on", "time": 63, "note": 80, "velocity": 109, "channel": 0}, {"type": "note_off", "time": 65, "note": 80, "velocity": 109, "channel": 0}, {"type": "note_on", "time": 17, "note": 79, "velocity": 113, "channel": 0}, {"type": "note_off", "time": 78, "note": 79, "velocity": 113, "channel": 0}, {"type": "note_on", "time": 17, "note": 80, "velocity": 119, "channel": 0}, {"type": "note_off", "time": 76, "note": 80, "velocity": 119, "channel": 0}, {"type": "note_on", "time": 15, "note": 79, "velocity": 111, "channel": 0}, {"type": "note_off", "time": 75, "note": 79, "velocity": 111, "channel": 0}, {"type": "note_on", "time": 23, "note": 78, "velocity": 114, "channel": 0}, {"type": "note_off", "time": 85, "note": 78, "velocity": 114, "channel": 0}, {"type": "note_on", "time": 6, "note": 79, "velocity": 113, "channel": 0}, {"type": "note_off", "time": 53, "note": 79, "velocity": 113, "channel": 0}, {"type": "note_on", "time": 27, "note": 80, "velocity": 120, "channel": 0}, {"type": "note_off", "time": 83, "note": 80, "velocity": 120, "channel": 0}, {"type": "note_on", "time": 10, "note": 79, "velocity": 114, "channel": 0}, {"type": "note_off", "time": 89, "note": 79, "velocity": 114, "channel": 0}, {"type": "note_on", "time": 9, "note": 78, "velocity": 116, "channel": 0}, {"type": "note_off", "time": 87, "note": 78, "velocity": 116, "channel": 0}, {"type": "note_on", "time": 6, "note": 79, "velocity": 116, "channel": 0}, {"type": "note_off", "time": 95, "note": 79, "velocity": 116, "channel": 0}, {"type": "note_on", "time": 3, "note": 80, "velocity": 118, "channel": 0}, {"type": "note_off", "time": 88, "note": 80, "velocity": 118, "channel": 0}, {"type": "note_on", "time": 8, "note": 79, "velocity": 115, "channel": 0}, {"type": "note_off", "time": 111, "note": 79, "velocity": 115, "channel": 0}, {"type": "note_on", "time": 14, "note": 78, "velocity": 107, "channel": 0}, {"type": "note_off", "time": 73, "note": 78, "velocity": 107, "channel": 0}, {"type": "note_on", "time": 5, "note": 79, "velocity": 113, "channel": 0}, {"type": "note_off", "time": 100, "note": 79, "velocity": 113, "channel": 0}, {"type": "note_on", "time": 11, "note": 80, "velocity": 116, "channel": 0}, {"type": "note_off", "time": 67, "note": 80, "velocity": 116, "channel": 0}, {"type": "note_on", "time": 8, "note": 79, "velocity": 117, "channel": 0}, {"type": "note_off", "time": 77, "note": 79, "velocity": 117, "channel": 0}, {"type": "note_on", "time": 20, "note": 78, "velocity": 114, "channel": 0}, {"type": "note_off", "time": 70, "note": 78, "velocity": 114, "channel": 0}, {"type": "note_on", "time": 7, "note": 79, "velocity": 117, "channel": 0}, {"type": "note_off", "time": 85, "note": 79, "velocity": 117, "channel": 0}, {"type": "note_on", "time": 20, "note": 80, "velocity": 119, "channel": 0}, {"type": "note_off", "time": 57, "note": 80, "velocity": 119, "channel": 0}, {"type": "note_on", "time": 26, "note": 79, "velocity": 118, "channel": 0}, {"type": "note_off", "time": 86, "note": 79, "velocity": 118, "channel": 0}, {"type": "note_on", "time": 12, "note": 78, "velocity": 112, "channel": 0}, {"type": "note_off", "time": 73, "note": 78, "velocity": 112, "channel": 0}, {"type": "note_on", "time": 7, "note": 79, "velocity": 116, "channel": 0}, {"type": "note_off", "time": 90, "note": 79, "velocity": 116, "channel": 0}, {"type": "note_on", "time": 290, "note": 80, "velocity": 112, "channel": 0}, {"type": "note_off", "time": 114, "note": 80, "velocity": 112, "channel": 0}, {"type": "note_on", "time": 253, "note": 79, "velocity": 118, "channel": 0}, {"type": "note_off", "time": 107, "note": 79, "velocity": 118, "channel": 0}, {"type": "note_on", "time": 330, "note": 78, "velocity": 117, "channel": 0}, {"type": "note_off", "time": 114, "note": 78, "velocity": 117, "channel": 0}, {"type": "note_on", "time": 7, "note": 79, "velocity": 115, "channel": 0}, {"type": "note_off", "time": 63, "note": 79, "velocity": 115, "channel": 0}, {"type": "note_on", "time": 6, "note": 80, "velocity": 116, "channel": 0}, {"type": "note_off", "time": 99, "note": 80, "velocity": 116, "channel": 0}, {"type": "note_on", "time": 12, "note": 79, "velocity": 117, "channel": 0}, {"type": "note_off", "time": 68, "note": 79, "velocity": 117, "channel": 0}, {"type": "note_on", "time": 13, "note": 78, "velocity": 114, "channel": 0}, {"type": "note_off", "time": 55, "note": 78, "velocity": 114, "channel": 0}, {"type": "note_on", "time": 315, "note": 79, "velocity": 111, "channel": 0}, {"type": "note_off", "time": 109, "note": 79, "velocity": 111, "channel": 0}, {"type": "note_on", "time": 267, "note": 79, "velocity": 115, "channel": 0}, {"type": "note_off", "time": 100, "note": 79, "velocity": 115, "channel": 0}, {"type": "note_on", "time": 295, "note": 78, "velocity": 120, "channel": 0}, {"type": "note_off", "time": 100, "note": 78, "velocity": 120, "channel": 0}, {"type": "note_on", "time": 8, "note": 79, "velocity": 112, "channel": 0}, {"type": "note_off", "time": 73, "note": 79, "velocity": 112, "channel": 0}, {"type": "note_on", "time": 14, "note": 80, "velocity": 119, "channel": 0}, {"type": "note_off", "time": 97, "note": 80, "velocity": 119, "channel": 0}, {"type": "note_on", "time": 19, "note": 79, "velocity": 116, "channel": 0}, {"type": "note_off", "time": 71, "note": 79, "velocity": 116, "channel": 0}, {"type": "note_on", "time": 9, "note": 78, "velocity": 114, "channel": 0}, {"type": "note_off", "time": 91, "note": 78, "velocity": 114, "channel": 0}, {"type": "note_on", "time": 13, "note": 79, "velocity": 119, "channel": 0}, {"type": "note_off", "time": 75, "note": 79, "velocity": 119, "channel": 0}, {"type": "note_on", "time": 6, "note": 80, "velocity": 118, "channel": 0}, {"type": "note_off", "time": 91, "note": 80, "velocity": 118, "channel": 0}, {"type": "note_on", "time": 9, "note": 79, "velocity": 115, "channel": 0}, {"type": "note_off", "time": 70, "note": 79, "velocity": 115, "channel": 0}, {"type": "note_on", "time": 17, "note": 78, "velocity": 116, "channel": 0}, {"type": "note_off", "time": 77, "note": 78, "velocity": 116, "channel": 0}, {"type": "note_on", "time": 14, "note": 79, "velocity": 114, "channel": 0}, {"type": "note_off", "time": 68, "note": 79, "velocity": 114, "channel": 0}, {"type": "note_on", "time": 21, "note": 73, "velocity": 114, "channel": 0}, {"type": "note_off", "time": 125, "note": 73, "velocity": 114, "channel": 0}, {"type": "note_on", "time": 15, "note": 72, "velocity": 113, "channel": 0}, {"type": "note_off", "time": 48, "note": 72, "velocity": 113, "channel": 0}, {"type": "note_on", "time": 8, "note": 71, "velocity": 106, "channel": 0}, {"type": "note_off", "time": 94, "note": 71, "velocity": 106, "channel": 0}, {"type": "note_on", "time": 90, "note": 68, "velocity": 118, "channel": 0}, {"type": "note_off", "time": 104, "note": 68, "velocity": 118, "channel": 0}, {"type": "note_on", "time": 3, "note": 67, "velocity": 112, "channel": 0}, {"type": "note_off", "time": 87, "note": 67, "velocity": 112, "channel": 0}, {"type": "note_on", "time": 20, "note": 66, "velocity": 112, "channel": 0}, {"type": "note_off", "time": 293, "note": 66, "velocity": 112, "channel": 0}, {"type": "note_on", "time": 38, "note": 70, "velocity": 104, "channel": 0}, {"type": "note_off", "time": 53, "note": 70, "velocity": 104, "channel": 0}, {"type": "note_on", "time": 3, "note": 61, "velocity": 107, "channel": 0}, {"type": "note_off", "time": 92, "note": 61, "velocity": 107, "channel": 0}, {"type": "note_on", "time": 30, "note": 70, "velocity": 105, "channel": 0}, {"type": "note_off", "time": 48, "note": 70, "velocity": 105, "channel": 0}, {"type": "note_on", "time": 12, "note": 60, "velocity": 106, "channel": 0}, {"type": "note_off", "time": 126, "note": 60, "velocity": 106, "channel": 0}, {"type": "note_on", "time": 18, "note": 59, "velocity": 107, "channel": 0}, {"type": "note_off", "time": 103, "note": 59, "velocity": 107, "channel": 0}, {"type": "note_on", "time": 894, "note": 69, "velocity": 96, "channel": 0}, {"type": "note_off", "time": 51, "note": 69, "velocity": 96, "channel": 0}, {"type": "note_on", "time": 12, "note": 75, "velocity": 109, "channel": 0}, {"type": "note_off", "time": 82, "note": 75, "velocity": 109, "channel": 0}, {"type": "note_on", "time": 4, "note": 70, "velocity": 107, "channel": 0}, {"type": "note_off", "time": 73, "note": 70, "velocity": 107, "channel": 0}, {"type": "note_on", "time": 2, "note": 61, "velocity": 111, "channel": 0}, {"type": "note_off", "time": 85, "note": 61, "velocity": 111, "channel": 0}, {"type": "note_on", "time": 88, "note": 68, "velocity": 116, "channel": 0}, {"type": "note_off", "time": 146, "note": 68, "velocity": 116, "channel": 0}, {"type": "note_on", "time": 8, "note": 70, "velocity": 107, "channel": 0}, {"type": "note_off", "time": 52, "note": 70, "velocity": 107, "channel": 0}, {"type": "note_on", "time": 6, "note": 72, "velocity": 107, "channel": 0}, {"type": "note_off", "time": 160, "note": 72, "velocity": 107, "channel": 0}, {"type": "note_on", "time": 3, "note": 75, "velocity": 117, "channel": 0}, {"type": "note_off", "time": 104, "note": 75, "velocity": 117, "channel": 0}, {"type": "note_on", "time": 31, "note": 74, "velocity": 118, "channel": 0}, {"type": "note_off", "time": 92, "note": 74, "velocity": 118, "channel": 0}, {"type": "note_on", "time": 20, "note": 72, "velocity": 110, "channel": 0}, {"type": "note_off", "time": 47, "note": 72, "velocity": 110, "channel": 0}, {"type": "note_on", "time": 19, "note": 73, "velocity": 115, "channel": 0}, {"type": "note_off", "time": 63, "note": 73, "velocity": 115, "channel": 0}, {"type": "note_on", "time": 18, "note": 77, "velocity": 118, "channel": 0}, {"type": "note_off", "time": 99, "note": 77, "velocity": 118, "channel": 0}, {"type": "note_on", "time": 19, "note": 79, "velocity": 117, "channel": 0}, {"type": "note_off", "time": 62, "note": 79, "velocity": 117, "channel": 0}, {"type": "note_on", "time": 12, "note": 80, "velocity": 117, "channel": 0}, {"type": "note_off", "time": 60, "note": 80, "velocity": 117, "channel": 0}, {"type": "note_on", "time": 30, "note": 82, "velocity": 110, "channel": 0}, {"type": "note_off", "time": 161, "note": 82, "velocity": 110, "channel": 0}, {"type": "note_on", "time": 10, "note": 80, "velocity": 119, "channel": 0}, {"type": "note_off", "time": 71, "note": 80, "velocity": 119, "channel": 0}, {"type": "note_on", "time": 10, "note": 79, "velocity": 115, "channel": 0}, {"type": "note_off", "time": 88, "note": 79, "velocity": 115, "channel": 0}, {"type": "note_on", "time": 10, "note": 78, "velocity": 116, "channel": 0}, {"type": "note_off", "time": 102, "note": 78, "velocity": 116, "channel": 0}, {"type": "note_on", "time": 6, "note": 77, "velocity": 120, "channel": 0}, {"type": "note_off", "time": 66, "note": 77, "velocity": 120, "channel": 0}, {"type": "note_on", "time": 9, "note": 76, "velocity": 115, "channel": 0}, {"type": "note_off", "time": 85, "note": 76, "velocity": 115, "channel": 0}, {"type": "note_on", "time": 7, "note": 75, "velocity": 116, "channel": 0}, {"type": "note_off", "time": 97, "note": 75, "velocity": 116, "channel": 0}, {"type": "note_on", "time": 13, "note": 79, "velocity": 114, "channel": 0}, {"type": "note_off", "time": 71, "note": 79, "velocity": 114, "channel": 0}, {"type": "note_on", "time": 4, "note": 74, "velocity": 110, "channel": 0}, {"type": "note_off", "time": 87, "note": 74, "velocity": 110, "channel": 0}, {"type": "note_on", "time": 12, "note": 77, "velocity": 114, "channel": 0}, {"type": "note_off", "time": 71, "note": 77, "velocity": 114, "channel": 0}, {"type": "note_on", "time": 13, "note": 75, "velocity": 114, "channel": 0}, {"type": "note_off", "time": 79, "note": 75, "velocity": 114, "channel": 0}, {"type": "note_on", "time": 24, "note": 73, "velocity": 116, "channel": 0}, {"type": "note_off", "time": 63, "note": 73, "velocity": 116, "channel": 0}, {"type": "note_on", "time": 31, "note": 70, "velocity": 110, "channel": 0}, {"type": "note_off", "time": 92, "note": 70, "velocity": 110, "channel": 0}, {"type": "note_on", "time": 83, "note": 73, "velocity": 115, "channel": 0}, {"type": "note_off", "time": 105, "note": 73, "velocity": 115, "channel": 0}, {"type": "note_on", "time": 10, "note": 74, "velocity": 115, "channel": 0}, {"type": "note_off", "time": 73, "note": 74, "velocity": 115, "channel": 0}, {"type": "note_on", "time": 8, "note": 71, "velocity": 108, "channel": 0}, {"type": "note_off", "time": 91, "note": 71, "velocity": 108, "channel": 0}, {"type": "note_on", "time": 38, "note": 69, "velocity": 112, "channel": 0}, {"type": "note_off", "time": 74, "note": 69, "velocity": 112, "channel": 0}, {"type": "note_on", "time": 17, "note": 70, "velocity": 104, "channel": 0}, {"type": "note_off", "time": 302, "note": 70, "velocity": 104, "channel": 0}, {"type": "note_on", "time": 257, "note": 77, "velocity": 120, "channel": 0}, {"type": "note_off", "time": 131, "note": 77, "velocity": 120, "channel": 0}, {"type": "note_on", "time": 24, "note": 75, "velocity": 104, "channel": 0}, {"type": "note_off", "time": 256, "note": 75, "velocity": 104, "channel": 0}, {"type": "note_on", "time": 313, "note": 75, "velocity": 120, "channel": 0}, {"type": "note_off", "time": 107, "note": 75, "velocity": 120, "channel": 0}, {"type": "note_on", "time": 21, "note": 83, "velocity": 105, "channel": 0}, {"type": "note_off", "time": 74, "note": 83, "velocity": 105, "channel": 0}, {"type": "note_on", "time": 18, "note": 82, "velocity": 109, "channel": 0}, {"type": "note_off", "time": 350, "note": 82, "velocity": 109, "channel": 0}, {"type": "note_on", "time": 245, "note": 76, "velocity": 112, "channel": 0}, {"type": "note_off", "time": 102, "note": 76, "velocity": 112, "channel": 0}, {"type": "note_on", "time": 110, "note": 77, "velocity": 107, "channel": 0}, {"type": "note_off", "time": 114, "note": 77, "velocity": 107, "channel": 0}, {"type": "note_on", "time": 99, "note": 70, "velocity": 90, "channel": 0}, {"type": "note_off", "time": 133, "note": 70, "velocity": 90, "channel": 0}, {"type": "note_on", "time": 209, "note": 76, "velocity": 106, "channel": 0}, {"type": "note_off", "time": 132, "note": 76, "velocity": 106, "channel": 0}, {"type": "note_on", "time": 27, "note": 79, "velocity": 114, "channel": 0}, {"type": "note_off", "time": 175, "note": 79, "velocity": 114, "channel": 0}, {"type": "note_on", "time": 467, "note": 72, "velocity": 106, "channel": 0}, {"type": "note_off", "time": 103, "note": 72, "velocity": 106, "channel": 0}, {"type": "note_on", "time": 27, "note": 84, "velocity": 98, "channel": 0}, {"type": "note_off", "time": 149, "note": 84, "velocity": 98, "channel": 0}, {"type": "note_on", "time": 489, "note": 81, "velocity": 106, "channel": 0}, {"type": "note_off", "time": 98, "note": 81, "velocity": 106, "channel": 0}, {"type": "note_on", "time": 20, "note": 77, "velocity": 118, "channel": 0}, {"type": "note_off", "time": 45, "note": 77, "velocity": 118, "channel": 0}, {"type": "note_on", "time": 32, "note": 72, "velocity": 107, "channel": 0}, {"type": "note_off", "time": 83, "note": 72, "velocity": 107, "channel": 0}, {"type": "note_on", "time": 284, "note": 75, "velocity": 116, "channel": 0}, {"type": "note_off", "time": 108, "note": 75, "velocity": 116, "channel": 0}, {"type": "note_on", "time": 15, "note": 70, "velocity": 108, "channel": 0}, {"type": "note_off", "time": 62, "note": 70, "velocity": 108, "channel": 0}, {"type": "note_on", "time": 49, "note": 60, "velocity": 107, "channel": 0}, {"type": "note_off", "time": 81, "note": 60, "velocity": 107, "channel": 0}, {"type": "note_on", "time": 20, "note": 63, "velocity": 111, "channel": 0}, {"type": "note_off", "time": 109, "note": 63, "velocity": 111, "channel": 0}, {"type": "note_on", "time": 7, "note": 59, "velocity": 102, "channel": 0}, {"type": "note_off", "time": 91, "note": 59, "velocity": 102, "channel": 0}, {"type": "note_on", "time": 268, "note": 59, "velocity": 114, "channel": 0}, {"type": "note_off", "time": 70, "note": 59, "velocity": 114, "channel": 0}, {"type": "note_on", "time": 19, "note": 63, "velocity": 114, "channel": 0}, {"type": "note_off", "time": 48, "note": 63, "velocity": 114, "channel": 0}, {"type": "note_on", "time": 53, "note": 74, "velocity": 116, "channel": 0}, {"type": "note_off", "time": 43, "note": 74, "velocity": 116, "channel": 0}, {"type": "note_on", "time": 7, "note": 76, "velocity": 118, "channel": 0}, {"type": "note_off", "time": 29, "note": 76, "velocity": 118, "channel": 0}, {"type": "note_on", "time": 10, "note": 75, "velocity": 114, "channel": 0}, {"type": "note_off", "time": 74, "note": 75, "velocity": 114, "channel": 0}, {"type": "note_on", "time": 35, "note": 84, "velocity": 113, "channel": 0}, {"type": "note_off", "time": 51, "note": 84, "velocity": 113, "channel": 0}, {"type": "note_on", "time": 4, "note": 83, "velocity": 108, "channel": 0}, {"type": "note_off", "time": 35, "note": 83, "velocity": 108, "channel": 0}, {"type": "note_on", "time": 3, "note": 85, "velocity": 118, "channel": 0}, {"type": "note_off", "time": 42, "note": 85, "velocity": 118, "channel": 0}, {"type": "note_on", "time": 14, "note": 82, "velocity": 106, "channel": 0}, {"type": "note_off", "time": 150, "note": 82, "velocity": 106, "channel": 0}, {"type": "note_on", "time": 593, "note": 59, "velocity": 114, "channel": 0}, {"type": "note_off", "time": 46, "note": 59, "velocity": 114, "channel": 0}, {"type": "note_on", "time": 7, "note": 62, "velocity": 115, "channel": 0}, {"type": "note_off", "time": 41, "note": 62, "velocity": 115, "channel": 0}, {"type": "note_on", "time": 23, "note": 59, "velocity": 115, "channel": 0}, {"type": "note_off", "time": 62, "note": 59, "velocity": 115, "channel": 0}, {"type": "note_on", "time": 24, "note": 65, "velocity": 116, "channel": 0}, {"type": "note_off", "time": 51, "note": 65, "velocity": 116, "channel": 0}, {"type": "note_on", "time": 12, "note": 62, "velocity": 114, "channel": 0}, {"type": "note_off", "time": 45, "note": 62, "velocity": 114, "channel": 0}, {"type": "note_on", "time": 15, "note": 63, "velocity": 114, "channel": 0}, {"type": "note_off", "time": 45, "note": 63, "velocity": 114, "channel": 0}, {"type": "note_on", "time": 7, "note": 65, "velocity": 107, "channel": 0}, {"type": "note_off", "time": 73, "note": 65, "velocity": 107, "channel": 0}, {"type": "note_on", "time": 15, "note": 63, "velocity": 98, "channel": 0}, {"type": "note_off", "time": 60, "note": 63, "velocity": 98, "channel": 0}, {"type": "note_on", "time": 17, "note": 77, "velocity": 119, "channel": 0}, {"type": "note_off", "time": 53, "note": 77, "velocity": 119, "channel": 0}, {"type": "note_on", "time": 30, "note": 70, "velocity": 103, "channel": 0}, {"type": "note_off", "time": 108, "note": 70, "velocity": 103, "channel": 0}, {"type": "note_on", "time": 8, "note": 74, "velocity": 113, "channel": 0}, {"type": "note_off", "time": 45, "note": 74, "velocity": 113, "channel": 0}, {"type": "note_on", "time": 13, "note": 77, "velocity": 97, "channel": 0}, {"type": "note_off", "time": 64, "note": 77, "velocity": 97, "channel": 0}, {"type": "note_on", "time": 30, "note": 82, "velocity": 112, "channel": 0}, {"type": "note_off", "time": 57, "note": 82, "velocity": 112, "channel": 0}, {"type": "note_on", "time": 12, "note": 83, "velocity": 104, "channel": 0}, {"type": "note_off", "time": 73, "note": 83, "velocity": 104, "channel": 0}, {"type": "note_on", "time": 26, "note": 82, "velocity": 104, "channel": 0}, {"type": "note_off", "time": 86, "note": 82, "velocity": 104, "channel": 0}, {"type": "note_on", "time": 6, "note": 83, "velocity": 104, "channel": 0}, {"type": "note_off", "time": 54, "note": 83, "velocity": 104, "channel": 0}, {"type": "note_on", "time": 19, "note": 85, "velocity": 108, "channel": 0}, {"type": "note_off", "time": 66, "note": 85, "velocity": 108, "channel": 0}, {"type": "note_on", "time": 15, "note": 85, "velocity": 109, "channel": 0}, {"type": "note_off", "time": 58, "note": 85, "velocity": 109, "channel": 0}, {"type": "note_on", "time": 19, "note": 82, "velocity": 111, "channel": 0}, {"type": "note_off", "time": 63, "note": 82, "velocity": 111, "channel": 0}, {"type": "note_on", "time": 4, "note": 85, "velocity": 118, "channel": 0}, {"type": "note_off", "time": 53, "note": 85, "velocity": 118, "channel": 0}, {"type": "note_on", "time": 9, "note": 82, "velocity": 107, "channel": 0}, {"type": "note_off", "time": 69, "note": 82, "velocity": 107, "channel": 0}, {"type": "note_on", "time": 10, "note": 85, "velocity": 119, "channel": 0}, {"type": "note_off", "time": 66, "note": 85, "velocity": 119, "channel": 0}, {"type": "note_on", "time": 3, "note": 83, "velocity": 108, "channel": 0}, {"type": "note_off", "time": 53, "note": 83, "velocity": 108, "channel": 0}, {"type": "note_on", "time": 21, "note": 82, "velocity": 106, "channel": 0}, {"type": "note_off", "time": 143, "note": 82, "velocity": 106, "channel": 0}, {"type": "note_on", "time": 19, "note": 78, "velocity": 114, "channel": 0}, {"type": "note_off", "time": 52, "note": 78, "velocity": 114, "channel": 0}, {"type": "note_on", "time": 24, "note": 58, "velocity": 111, "channel": 0}, {"type": "note_off", "time": 86, "note": 58, "velocity": 111, "channel": 0}, {"type": "note_on", "time": 30, "note": 59, "velocity": 110, "channel": 0}, {"type": "note_off", "time": 1051, "note": 59, "velocity": 110, "channel": 0}, {"type": "note_on", "time": 29, "note": 71, "velocity": 108, "channel": 0}, {"type": "note_off", "time": 51, "note": 71, "velocity": 108, "channel": 0}, {"type": "note_on", "time": 31, "note": 59, "velocity": 112, "channel": 0}, {"type": "note_off", "time": 92, "note": 59, "velocity": 112, "channel": 0}, {"type": "note_on", "time": 9, "note": 66, "velocity": 114, "channel": 0}, {"type": "note_off", "time": 68, "note": 66, "velocity": 114, "channel": 0}, {"type": "note_on", "time": 4, "note": 67, "velocity": 115, "channel": 0}, {"type": "note_off", "time": 114, "note": 67, "velocity": 115, "channel": 0}, {"type": "note_on", "time": 60, "note": 65, "velocity": 118, "channel": 0}, {"type": "note_off", "time": 109, "note": 65, "velocity": 118, "channel": 0}, {"type": "note_on", "time": 17, "note": 64, "velocity": 113, "channel": 0}, {"type": "note_off", "time": 51, "note": 64, "velocity": 113, "channel": 0}, {"type": "note_on", "time": 17, "note": 63, "velocity": 114, "channel": 0}, {"type": "note_off", "time": 97, "note": 63, "velocity": 114, "channel": 0}, {"type": "note_on", "time": 19, "note": 67, "velocity": 116, "channel": 0}, {"type": "note_off", "time": 85, "note": 67, "velocity": 116, "channel": 0}, {"type": "note_on", "time": 27, "note": 62, "velocity": 95, "channel": 0}, {"type": "note_off", "time": 56, "note": 62, "velocity": 95, "channel": 0}, {"type": "note_on", "time": 22, "note": 65, "velocity": 112, "channel": 0}, {"type": "note_off", "time": 80, "note": 65, "velocity": 112, "channel": 0}, {"type": "note_on", "time": 14, "note": 68, "velocity": 116, "channel": 0}, {"type": "note_off", "time": 90, "note": 68, "velocity": 116, "channel": 0}, {"type": "note_on", "time": 21, "note": 70, "velocity": 115, "channel": 0}, {"type": "note_off", "time": 38, "note": 70, "velocity": 115, "channel": 0}, {"type": "note_on", "time": 21, "note": 71, "velocity": 105, "channel": 0}, {"type": "note_off", "time": 116, "note": 71, "velocity": 105, "channel": 0}, {"type": "note_on", "time": 34, "note": 75, "velocity": 113, "channel": 0}, {"type": "note_off", "time": 55, "note": 75, "velocity": 113, "channel": 0}, {"type": "note_on", "time": 4, "note": 77, "velocity": 119, "channel": 0}, {"type": "note_off", "time": 116, "note": 77, "velocity": 119, "channel": 0}, {"type": "note_on", "time": 3, "note": 75, "velocity": 108, "channel": 0}, {"type": "note_off", "time": 44, "note": 75, "velocity": 108, "channel": 0}, {"type": "note_on", "time": 13, "note": 77, "velocity": 121, "channel": 0}, {"type": "note_off", "time": 99, "note": 77, "velocity": 121, "channel": 0}, {"type": "note_on", "time": 30, "note": 75, "velocity": 116, "channel": 0}, {"type": "note_off", "time": 75, "note": 75, "velocity": 116, "channel": 0}, {"type": "note_on", "time": 6, "note": 77, "velocity": 114, "channel": 0}, {"type": "note_off", "time": 88, "note": 77, "velocity": 114, "channel": 0}, {"type": "note_on", "time": 100, "note": 75, "velocity": 119, "channel": 0}, {"type": "note_off", "time": 92, "note": 75, "velocity": 119, "channel": 0}, {"type": "note_on", "time": 10, "note": 77, "velocity": 121, "channel": 0}, {"type": "note_off", "time": 85, "note": 77, "velocity": 121, "channel": 0}, {"type": "note_on", "time": 11, "note": 75, "velocity": 119, "channel": 0}, {"type": "note_off", "time": 80, "note": 75, "velocity": 119, "channel": 0}, {"type": "note_on", "time": 11, "note": 77, "velocity": 123, "channel": 0}, {"type": "note_off", "time": 76, "note": 77, "velocity": 123, "channel": 0}, {"type": "note_on", "time": 11, "note": 75, "velocity": 120, "channel": 0}, {"type": "note_off", "time": 83, "note": 75, "velocity": 120, "channel": 0}, {"type": "note_on", "time": 17, "note": 77, "velocity": 121, "channel": 0}, {"type": "note_off", "time": 85, "note": 77, "velocity": 121, "channel": 0}, {"type": "note_on", "time": 13, "note": 75, "velocity": 120, "channel": 0}, {"type": "note_off", "time": 70, "note": 75, "velocity": 120, "channel": 0}, {"type": "note_on", "time": 17, "note": 77, "velocity": 121, "channel": 0}, {"type": "note_off", "time": 94, "note": 77, "velocity": 121, "channel": 0}, {"type": "note_on", "time": 5, "note": 75, "velocity": 120, "channel": 0}, {"type": "note_off", "time": 63, "note": 75, "velocity": 120, "channel": 0}, {"type": "note_on", "time": 22, "note": 77, "velocity": 123, "channel": 0}, {"type": "note_off", "time": 112, "note": 77, "velocity": 123, "channel": 0}, {"type": "note_on", "time": 10, "note": 75, "velocity": 121, "channel": 0}, {"type": "note_off", "time": 51, "note": 75, "velocity": 121, "channel": 0}, {"type": "note_on", "time": 8, "note": 77, "velocity": 122, "channel": 0}, {"type": "note_off", "time": 82, "note": 77, "velocity": 122, "channel": 0}, {"type": "note_on", "time": 11, "note": 75, "velocity": 117, "channel": 0}, {"type": "note_off", "time": 73, "note": 75, "velocity": 117, "channel": 0}, {"type": "note_on", "time": 11, "note": 77, "velocity": 122, "channel": 0}, {"type": "note_off", "time": 85, "note": 77, "velocity": 122, "channel": 0}, {"type": "note_on", "time": 15, "note": 75, "velocity": 118, "channel": 0}, {"type": "note_off", "time": 71, "note": 75, "velocity": 118, "channel": 0}, {"type": "note_on", "time": 20, "note": 77, "velocity": 122, "channel": 0}, {"type": "note_off", "time": 76, "note": 77, "velocity": 122, "channel": 0}, {"type": "note_on", "time": 18, "note": 75, "velocity": 120, "channel": 0}, {"type": "note_off", "time": 102, "note": 75, "velocity": 120, "channel": 0}, {"type": "note_on", "time": 8, "note": 77, "velocity": 122, "channel": 0}, {"type": "note_off", "time": 66, "note": 77, "velocity": 122, "channel": 0}, {"type": "note_on", "time": 13, "note": 75, "velocity": 113, "channel": 0}, {"type": "note_off", "time": 71, "note": 75, "velocity": 113, "channel": 0}, {"type": "note_on", "time": 20, "note": 77, "velocity": 116, "channel": 0}, {"type": "note_off", "time": 88, "note": 77, "velocity": 116, "channel": 0}, {"type": "note_on", "time": 3, "note": 75, "velocity": 118, "channel": 0}, {"type": "note_off", "time": 73, "note": 75, "velocity": 118, "channel": 0}, {"type": "note_on", "time": 23, "note": 77, "velocity": 118, "channel": 0}, {"type": "note_off", "time": 75, "note": 77, "velocity": 118, "channel": 0}, {"type": "note_on", "time": 10, "note": 75, "velocity": 116, "channel": 0}, {"type": "note_off", "time": 76, "note": 75, "velocity": 116, "channel": 0}, {"type": "note_on", "time": 17, "note": 77, "velocity": 118, "channel": 0}, {"type": "note_off", "time": 75, "note": 77, "velocity": 118, "channel": 0}, {"type": "note_on", "time": 22, "note": 75, "velocity": 119, "channel": 0}, {"type": "note_off", "time": 71, "note": 75, "velocity": 119, "channel": 0}, {"type": "note_on", "time": 22, "note": 77, "velocity": 122, "channel": 0}, {"type": "note_off", "time": 85, "note": 77, "velocity": 122, "channel": 0}, {"type": "note_on", "time": 11, "note": 75, "velocity": 114, "channel": 0}, {"type": "note_off", "time": 75, "note": 75, "velocity": 114, "channel": 0}, {"type": "note_on", "time": 29, "note": 77, "velocity": 122, "channel": 0}, {"type": "note_off", "time": 83, "note": 77, "velocity": 122, "channel": 0}, {"type": "note_on", "time": 10, "note": 75, "velocity": 109, "channel": 0}, {"type": "note_off", "time": 119, "note": 75, "velocity": 109, "channel": 0}, {"type": "note_on", "time": 34, "note": 71, "velocity": 104, "channel": 0}, {"type": "note_off", "time": 87, "note": 71, "velocity": 104, "channel": 0}, {"type": "note_on", "time": 2932, "note": 68, "velocity": 116, "channel": 0}, {"type": "note_off", "time": 100, "note": 68, "velocity": 116, "channel": 0}, {"type": "note_on", "time": 11, "note": 67, "velocity": 110, "channel": 0}, {"type": "note_off", "time": 58, "note": 67, "velocity": 110, "channel": 0}, {"type": "note_on", "time": 44, "note": 68, "velocity": 109, "channel": 0}, {"type": "note_off", "time": 111, "note": 68, "velocity": 109, "channel": 0}, {"type": "note_on", "time": 13, "note": 70, "velocity": 106, "channel": 0}, {"type": "note_off", "time": 136, "note": 70, "velocity": 106, "channel": 0}, {"type": "note_on", "time": 46, "note": 75, "velocity": 122, "channel": 0}, {"type": "note_off", "time": 145, "note": 75, "velocity": 122, "channel": 0}, {"type": "note_on", "time": 42, "note": 75, "velocity": 117, "channel": 0}, {"type": "note_off", "time": 133, "note": 75, "velocity": 117, "channel": 0}, {"type": "note_on", "time": 51, "note": 75, "velocity": 119, "channel": 0}, {"type": "note_off", "time": 68, "note": 75, "velocity": 119, "channel": 0}, {"type": "note_on", "time": 37, "note": 75, "velocity": 123, "channel": 0}, {"type": "note_off", "time": 104, "note": 75, "velocity": 123, "channel": 0}, {"type": "note_on", "time": 56, "note": 75, "velocity": 121, "channel": 0}, {"type": "note_off", "time": 90, "note": 75, "velocity": 121, "channel": 0}, {"type": "note_on", "time": 42, "note": 75, "velocity": 122, "channel": 0}, {"type": "note_off", "time": 94, "note": 75, "velocity": 122, "channel": 0}, {"type": "note_on", "time": 29, "note": 75, "velocity": 120, "channel": 0}, {"type": "note_off", "time": 83, "note": 75, "velocity": 120, "channel": 0}, {"type": "note_on", "time": 27, "note": 75, "velocity": 119, "channel": 0}, {"type": "note_off", "time": 102, "note": 75, "velocity": 119, "channel": 0}, {"type": "note_on", "time": 34, "note": 75, "velocity": 119, "channel": 0}, {"type": "note_off", "time": 76, "note": 75, "velocity": 119, "channel": 0}, {"type": "note_on", "time": 25, "note": 75, "velocity": 110, "channel": 0}, {"type": "note_off", "time": 75, "note": 75, "velocity": 110, "channel": 0}, {"type": "note_on", "time": 8, "note": 77, "velocity": 119, "channel": 0}, {"type": "note_off", "time": 109, "note": 77, "velocity": 119, "channel": 0}, {"type": "note_on", "time": 11, "note": 75, "velocity": 115, "channel": 0}, {"type": "note_off", "time": 124, "note": 75, "velocity": 115, "channel": 0}, {"type": "note_on", "time": 41, "note": 71, "velocity": 113, "channel": 0}, {"type": "note_off", "time": 147, "note": 71, "velocity": 113, "channel": 0}, {"type": "note_on", "time": 1103, "note": 58, "velocity": 111, "channel": 0}, {"type": "note_off", "time": 53, "note": 58, "velocity": 111, "channel": 0}, {"type": "note_on", "time": 32, "note": 63, "velocity": 115, "channel": 0}, {"type": "note_off", "time": 87, "note": 63, "velocity": 115, "channel": 0}, {"type": "note_on", "time": 17, "note": 65, "velocity": 122, "channel": 0}, {"type": "note_off", "time": 59, "note": 65, "velocity": 122, "channel": 0}, {"type": "note_on", "time": 23, "note": 66, "velocity": 117, "channel": 0}, {"type": "note_off", "time": 256, "note": 66, "velocity": 117, "channel": 0}, {"type": "note_on", "time": 13, "note": 64, "velocity": 115, "channel": 0}, {"type": "note_off", "time": 35, "note": 64, "velocity": 115, "channel": 0}, {"type": "note_on", "time": 10, "note": 66, "velocity": 116, "channel": 0}, {"type": "note_off", "time": 65, "note": 66, "velocity": 116, "channel": 0}, {"type": "note_on", "time": 13, "note": 65, "velocity": 119, "channel": 0}, {"type": "note_off", "time": 104, "note": 65, "velocity": 119, "channel": 0}, {"type": "note_on", "time": 13, "note": 64, "velocity": 114, "channel": 0}, {"type": "note_off", "time": 63, "note": 64, "velocity": 114, "channel": 0}, {"type": "note_on", "time": 6, "note": 63, "velocity": 114, "channel": 0}, {"type": "note_off", "time": 94, "note": 63, "velocity": 114, "channel": 0}, {"type": "note_on", "time": 11, "note": 66, "velocity": 116, "channel": 0}, {"type": "note_off", "time": 71, "note": 66, "velocity": 116, "channel": 0}, {"type": "note_on", "time": 15, "note": 61, "velocity": 116, "channel": 0}, {"type": "note_off", "time": 68, "note": 61, "velocity": 116, "channel": 0}, {"type": "note_on", "time": 22, "note": 65, "velocity": 120, "channel": 0}, {"type": "note_off", "time": 61, "note": 65, "velocity": 120, "channel": 0}, {"type": "note_on", "time": 13, "note": 68, "velocity": 115, "channel": 0}, {"type": "note_off", "time": 114, "note": 68, "velocity": 115, "channel": 0}, {"type": "note_on", "time": 18, "note": 69, "velocity": 115, "channel": 0}, {"type": "note_off", "time": 46, "note": 69, "velocity": 115, "channel": 0}, {"type": "note_on", "time": 11, "note": 71, "velocity": 110, "channel": 0}, {"type": "note_off", "time": 102, "note": 71, "velocity": 110, "channel": 0}, {"type": "note_on", "time": 11, "note": 73, "velocity": 118, "channel": 0}, {"type": "note_off", "time": 63, "note": 73, "velocity": 118, "channel": 0}, {"type": "note_on", "time": 18, "note": 75, "velocity": 118, "channel": 0}, {"type": "note_off", "time": 63, "note": 75, "velocity": 118, "channel": 0}, {"type": "note_on", "time": 25, "note": 78, "velocity": 118, "channel": 0}, {"type": "note_off", "time": 107, "note": 78, "velocity": 118, "channel": 0}, {"type": "note_on", "time": 6, "note": 77, "velocity": 124, "channel": 0}, {"type": "note_off", "time": 66, "note": 77, "velocity": 124, "channel": 0}, {"type": "note_on", "time": 25, "note": 76, "velocity": 118, "channel": 0}, {"type": "note_off", "time": 49, "note": 76, "velocity": 118, "channel": 0}, {"type": "note_on", "time": 17, "note": 75, "velocity": 117, "channel": 0}, {"type": "note_off", "time": 90, "note": 75, "velocity": 117, "channel": 0}, {"type": "note_on", "time": 30, "note": 71, "velocity": 108, "channel": 0}, {"type": "note_off", "time": 59, "note": 71, "velocity": 108, "channel": 0}, {"type": "note_on", "time": 13, "note": 76, "velocity": 122, "channel": 0}, {"type": "note_off", "time": 109, "note": 76, "velocity": 122, "channel": 0}, {"type": "note_on", "time": 20, "note": 74, "velocity": 111, "channel": 0}, {"type": "note_off", "time": 70, "note": 74, "velocity": 111, "channel": 0}, {"type": "note_on", "time": 11, "note": 75, "velocity": 122, "channel": 0}, {"type": "note_off", "time": 78, "note": 75, "velocity": 122, "channel": 0}, {"type": "note_on", "time": 13, "note": 74, "velocity": 119, "channel": 0}, {"type": "note_off", "time": 65, "note": 74, "velocity": 119, "channel": 0}, {"type": "note_on", "time": 23, "note": 73, "velocity": 123, "channel": 0}, {"type": "note_off", "time": 61, "note": 73, "velocity": 123, "channel": 0}, {"type": "note_on", "time": 29, "note": 73, "velocity": 117, "channel": 0}, {"type": "note_off", "time": 94, "note": 73, "velocity": 117, "channel": 0}, {"type": "note_on", "time": 11, "note": 71, "velocity": 108, "channel": 0}, {"type": "note_off", "time": 88, "note": 71, "velocity": 108, "channel": 0}, {"type": "note_on", "time": 17, "note": 69, "velocity": 113, "channel": 0}, {"type": "note_off", "time": 56, "note": 69, "velocity": 113, "channel": 0}, {"type": "note_on", "time": 8, "note": 70, "velocity": 107, "channel": 0}, {"type": "note_off", "time": 111, "note": 70, "velocity": 107, "channel": 0}, {"type": "note_on", "time": 20, "note": 73, "velocity": 116, "channel": 0}, {"type": "note_off", "time": 61, "note": 73, "velocity": 116, "channel": 0}, {"type": "note_on", "time": 10, "note": 75, "velocity": 120, "channel": 0}, {"type": "note_off", "time": 109, "note": 75, "velocity": 120, "channel": 0}, {"type": "note_on", "time": 10, "note": 77, "velocity": 116, "channel": 0}, {"type": "note_off", "time": 53, "note": 77, "velocity": 116, "channel": 0}, {"type": "note_on", "time": 25, "note": 79, "velocity": 116, "channel": 0}, {"type": "note_off", "time": 87, "note": 79, "velocity": 116, "channel": 0}, {"type": "note_on", "time": 22, "note": 82, "velocity": 107, "channel": 0}, {"type": "note_off", "time": 61, "note": 82, "velocity": 107, "channel": 0}, {"type": "note_on", "time": 15, "note": 84, "velocity": 112, "channel": 0}, {"type": "note_off", "time": 147, "note": 84, "velocity": 112, "channel": 0}, {"type": "note_on", "time": 13, "note": 82, "velocity": 110, "channel": 0}, {"type": "note_off", "time": 390, "note": 82, "velocity": 110, "channel": 0}, {"type": "note_on", "time": 15, "note": 79, "velocity": 119, "channel": 0}, {"type": "note_off", "time": 111, "note": 79, "velocity": 119, "channel": 0}, {"type": "note_on", "time": 22, "note": 77, "velocity": 120, "channel": 0}, {"type": "note_off", "time": 58, "note": 77, "velocity": 120, "channel": 0}, {"type": "note_on", "time": 13, "note": 74, "velocity": 111, "channel": 0}, {"type": "note_off", "time": 85, "note": 74, "velocity": 111, "channel": 0}, {"type": "note_on", "time": 29, "note": 71, "velocity": 91, "channel": 0}, {"type": "note_off", "time": 47, "note": 71, "velocity": 91, "channel": 0}, {"type": "note_on", "time": 13, "note": 76, "velocity": 119, "channel": 0}, {"type": "note_off", "time": 114, "note": 76, "velocity": 119, "channel": 0}, {"type": "note_on", "time": 20, "note": 78, "velocity": 115, "channel": 0}, {"type": "note_off", "time": 70, "note": 78, "velocity": 115, "channel": 0}, {"type": "note_on", "time": 11, "note": 79, "velocity": 118, "channel": 0}, {"type": "note_off", "time": 75, "note": 79, "velocity": 118, "channel": 0}, {"type": "note_on", "time": 27, "note": 81, "velocity": 117, "channel": 0}, {"type": "note_off", "time": 61, "note": 81, "velocity": 117, "channel": 0}, {"type": "note_on", "time": 23, "note": 78, "velocity": 117, "channel": 0}, {"type": "note_off", "time": 80, "note": 78, "velocity": 117, "channel": 0}, {"type": "note_on", "time": 34, "note": 73, "velocity": 116, "channel": 0}, {"type": "note_off", "time": 59, "note": 73, "velocity": 116, "channel": 0}, {"type": "note_on", "time": 25, "note": 71, "velocity": 107, "channel": 0}, {"type": "note_off", "time": 51, "note": 71, "velocity": 107, "channel": 0}, {"type": "note_on", "time": 34, "note": 69, "velocity": 102, "channel": 0}, {"type": "note_off", "time": 70, "note": 69, "velocity": 102, "channel": 0}, {"type": "note_on", "time": 20, "note": 76, "velocity": 118, "channel": 0}, {"type": "note_off", "time": 88, "note": 76, "velocity": 118, "channel": 0}, {"type": "note_on", "time": 20, "note": 78, "velocity": 118, "channel": 0}, {"type": "note_off", "time": 58, "note": 78, "velocity": 118, "channel": 0}, {"type": "note_on", "time": 8, "note": 73, "velocity": 118, "channel": 0}, {"type": "note_off", "time": 104, "note": 73, "velocity": 118, "channel": 0}, {"type": "note_on", "time": 11, "note": 76, "velocity": 120, "channel": 0}, {"type": "note_off", "time": 80, "note": 76, "velocity": 120, "channel": 0}, {"type": "note_on", "time": 15, "note": 75, "velocity": 116, "channel": 0}, {"type": "note_off", "time": 97, "note": 75, "velocity": 116, "channel": 0}, {"type": "note_on", "time": 13, "note": 71, "velocity": 112, "channel": 0}, {"type": "note_off", "time": 56, "note": 71, "velocity": 112, "channel": 0}, {"type": "note_on", "time": 8, "note": 66, "velocity": 118, "channel": 0}, {"type": "note_off", "time": 59, "note": 66, "velocity": 118, "channel": 0}, {"type": "note_on", "time": 17, "note": 63, "velocity": 111, "channel": 0}, {"type": "note_off", "time": 61, "note": 63, "velocity": 111, "channel": 0}, {"type": "note_on", "time": 22, "note": 68, "velocity": 113, "channel": 0}, {"type": "note_off", "time": 114, "note": 68, "velocity": 113, "channel": 0}, {"type": "note_on", "time": 20, "note": 70, "velocity": 108, "channel": 0}, {"type": "note_off", "time": 39, "note": 70, "velocity": 108, "channel": 0}, {"type": "note_on", "time": 17, "note": 72, "velocity": 116, "channel": 0}, {"type": "note_off", "time": 100, "note": 72, "velocity": 116, "channel": 0}, {"type": "note_on", "time": 13, "note": 74, "velocity": 109, "channel": 0}, {"type": "note_off", "time": 70, "note": 74, "velocity": 109, "channel": 0}, {"type": "note_on", "time": 29, "note": 70, "velocity": 111, "channel": 0}, {"type": "note_off", "time": 104, "note": 70, "velocity": 111, "channel": 0}, {"type": "note_on", "time": 6, "note": 67, "velocity": 117, "channel": 0}, {"type": "note_off", "time": 61, "note": 67, "velocity": 117, "channel": 0}, {"type": "note_on", "time": 27, "note": 62, "velocity": 113, "channel": 0}, {"type": "note_off", "time": 82, "note": 62, "velocity": 113, "channel": 0}, {"type": "note_on", "time": 29, "note": 60, "velocity": 111, "channel": 0}, {"type": "note_off", "time": 65, "note": 60, "velocity": 111, "channel": 0}, {"type": "note_on", "time": 10, "note": 67, "velocity": 117, "channel": 0}, {"type": "note_off", "time": 100, "note": 67, "velocity": 117, "channel": 0}, {"type": "note_on", "time": 23, "note": 64, "velocity": 118, "channel": 0}, {"type": "note_off", "time": 29, "note": 64, "velocity": 118, "channel": 0}, {"type": "note_on", "time": 18, "note": 63, "velocity": 116, "channel": 0}, {"type": "note_off", "time": 99, "note": 63, "velocity": 116, "channel": 0}, {"type": "note_on", "time": 11, "note": 67, "velocity": 115, "channel": 0}, {"type": "note_off", "time": 71, "note": 67, "velocity": 115, "channel": 0}, {"type": "note_on", "time": 18, "note": 62, "velocity": 112, "channel": 0}, {"type": "note_off", "time": 76, "note": 62, "velocity": 112, "channel": 0}, {"type": "note_on", "time": 15, "note": 65, "velocity": 112, "channel": 0}, {"type": "note_off", "time": 63, "note": 65, "velocity": 112, "channel": 0}, {"type": "note_on", "time": 5, "note": 67, "velocity": 115, "channel": 0}, {"type": "note_off", "time": 85, "note": 67, "velocity": 115, "channel": 0}, {"type": "note_on", "time": 30, "note": 70, "velocity": 114, "channel": 0}, {"type": "note_off", "time": 56, "note": 70, "velocity": 114, "channel": 0}, {"type": "note_on", "time": 29, "note": 60, "velocity": 116, "channel": 0}, {"type": "note_off", "time": 220, "note": 60, "velocity": 116, "channel": 0}, {"type": "note_on", "time": 29, "note": 63, "velocity": 115, "channel": 0}, {"type": "note_off", "time": 82, "note": 63, "velocity": 115, "channel": 0}, {"type": "note_on", "time": 6, "note": 61, "velocity": 117, "channel": 0}, {"type": "note_off", "time": 272, "note": 61, "velocity": 117, "channel": 0}, {"type": "note_on", "time": 10, "note": 65, "velocity": 116, "channel": 0}, {"type": "note_off", "time": 66, "note": 65, "velocity": 116, "channel": 0}, {"type": "note_on", "time": 10, "note": 63, "velocity": 113, "channel": 0}, {"type": "note_off", "time": 193, "note": 63, "velocity": 113, "channel": 0}, {"type": "note_on", "time": 13, "note": 67, "velocity": 115, "channel": 0}, {"type": "note_off", "time": 112, "note": 67, "velocity": 115, "channel": 0}, {"type": "note_on", "time": 17, "note": 66, "velocity": 112, "channel": 0}, {"type": "note_off", "time": 323, "note": 66, "velocity": 112, "channel": 0}, {"type": "note_on", "time": 39, "note": 71, "velocity": 115, "channel": 0}, {"type": "note_off", "time": 42, "note": 71, "velocity": 115, "channel": 0}, {"type": "note_on", "time": 13, "note": 67, "velocity": 113, "channel": 0}, {"type": "note_off", "time": 177, "note": 67, "velocity": 113, "channel": 0}, {"type": "note_on", "time": 17, "note": 60, "velocity": 114, "channel": 0}, {"type": "note_off", "time": 53, "note": 60, "velocity": 114, "channel": 0}, {"type": "note_on", "time": 152, "note": 66, "velocity": 112, "channel": 0}, {"type": "note_off", "time": 306, "note": 66, "velocity": 112, "channel": 0}, {"type": "note_on", "time": 16, "note": 65, "velocity": 115, "channel": 0}, {"type": "note_off", "time": 362, "note": 65, "velocity": 115, "channel": 0}, {"type": "note_on", "time": 38, "note": 63, "velocity": 115, "channel": 0}, {"type": "note_off", "time": 38, "note": 63, "velocity": 115, "channel": 0}, {"type": "note_on", "time": 21, "note": 65, "velocity": 119, "channel": 0}, {"type": "note_off", "time": 82, "note": 65, "velocity": 119, "channel": 0}, {"type": "note_on", "time": 16, "note": 65, "velocity": 117, "channel": 0}, {"type": "note_off", "time": 85, "note": 65, "velocity": 117, "channel": 0}, {"type": "note_on", "time": 17, "note": 63, "velocity": 115, "channel": 0}, {"type": "note_off", "time": 76, "note": 63, "velocity": 115, "channel": 0}, {"type": "note_on", "time": 30, "note": 65, "velocity": 120, "channel": 0}, {"type": "note_off", "time": 59, "note": 65, "velocity": 120, "channel": 0}, {"type": "note_on", "time": 17, "note": 63, "velocity": 116, "channel": 0}, {"type": "note_off", "time": 71, "note": 63, "velocity": 116, "channel": 0}, {"type": "note_on", "time": 13, "note": 63, "velocity": 116, "channel": 0}, {"type": "note_off", "time": 70, "note": 63, "velocity": 116, "channel": 0}, {"type": "note_on", "time": 18, "note": 63, "velocity": 116, "channel": 0}, {"type": "note_off", "time": 97, "note": 63, "velocity": 116, "channel": 0}, {"type": "note_on", "time": 13, "note": 65, "velocity": 120, "channel": 0}, {"type": "note_off", "time": 107, "note": 65, "velocity": 120, "channel": 0}, {"type": "note_on", "time": 47, "note": 65, "velocity": 110, "channel": 0}, {"type": "note_off", "time": 119, "note": 65, "velocity": 110, "channel": 0}, {"type": "note_on", "time": 3, "note": 63, "velocity": 112, "channel": 0}, {"type": "note_off", "time": 140, "note": 63, "velocity": 112, "channel": 0}, {"type": "note_on", "time": 636, "note": 67, "velocity": 118, "channel": 0}, {"type": "note_off", "time": 150, "note": 67, "velocity": 118, "channel": 0}, {"type": "note_on", "time": 5, "note": 66, "velocity": 114, "channel": 0}, {"type": "note_off", "time": 58, "note": 66, "velocity": 114, "channel": 0}, {"type": "note_on", "time": 0, "note": 67, "velocity": 112, "channel": 0}, {"type": "note_off", "time": 126, "note": 67, "velocity": 112, "channel": 0}, {"type": "note_on", "time": 27, "note": 72, "velocity": 117, "channel": 0}, {"type": "note_off", "time": 87, "note": 72, "velocity": 117, "channel": 0}, {"type": "note_on", "time": 114, "note": 64, "velocity": 116, "channel": 0}, {"type": "note_off", "time": 68, "note": 64, "velocity": 116, "channel": 0}, {"type": "note_on", "time": 27, "note": 65, "velocity": 116, "channel": 0}, {"type": "note_off", "time": 41, "note": 65, "velocity": 116, "channel": 0}, {"type": "note_on", "time": 3, "note": 66, "velocity": 117, "channel": 0}, {"type": "note_off", "time": 172, "note": 66, "velocity": 117, "channel": 0}, {"type": "note_on", "time": 13, "note": 65, "velocity": 116, "channel": 0}, {"type": "note_off", "time": 345, "note": 65, "velocity": 116, "channel": 0}, {"type": "note_on", "time": 22, "note": 63, "velocity": 117, "channel": 0}, {"type": "note_off", "time": 73, "note": 63, "velocity": 117, "channel": 0}, {"type": "note_on", "time": 14, "note": 65, "velocity": 119, "channel": 0}, {"type": "note_off", "time": 133, "note": 65, "velocity": 119, "channel": 0}, {"type": "note_on", "time": 31, "note": 63, "velocity": 117, "channel": 0}, {"type": "note_off", "time": 70, "note": 63, "velocity": 117, "channel": 0}, {"type": "note_on", "time": 1243, "note": 68, "velocity": 121, "channel": 0}, {"type": "note_off", "time": 87, "note": 68, "velocity": 121, "channel": 0}, {"type": "note_on", "time": 12, "note": 67, "velocity": 114, "channel": 0}, {"type": "note_off", "time": 55, "note": 67, "velocity": 114, "channel": 0}, {"type": "note_on", "time": 24, "note": 66, "velocity": 117, "channel": 0}, {"type": "note_off", "time": 99, "note": 66, "velocity": 117, "channel": 0}, {"type": "note_on", "time": 17, "note": 67, "velocity": 40, "channel": 0}, {"type": "note_off", "time": 43, "note": 67, "velocity": 40, "channel": 0}, {"type": "note_on", "time": 44, "note": 72, "velocity": 112, "channel": 0}, {"type": "note_off", "time": 550, "note": 72, "velocity": 112, "channel": 0}, {"type": "note_on", "time": 13, "note": 68, "velocity": 110, "channel": 0}, {"type": "note_off", "time": 30, "note": 68, "velocity": 110, "channel": 0}, {"type": "note_on", "time": 20, "note": 65, "velocity": 120, "channel": 0}, {"type": "note_off", "time": 63, "note": 65, "velocity": 120, "channel": 0}, {"type": "note_on", "time": 6, "note": 66, "velocity": 118, "channel": 0}, {"type": "note_off", "time": 83, "note": 66, "velocity": 118, "channel": 0}, {"type": "note_on", "time": 11, "note": 65, "velocity": 122, "channel": 0}, {"type": "note_off", "time": 196, "note": 65, "velocity": 122, "channel": 0}, {"type": "note_on", "time": 17, "note": 64, "velocity": 121, "channel": 0}, {"type": "note_off", "time": 85, "note": 64, "velocity": 121, "channel": 0}, {"type": "note_on", "time": 34, "note": 63, "velocity": 116, "channel": 0}, {"type": "note_off", "time": 20, "note": 63, "velocity": 116, "channel": 0}, {"type": "note_on", "time": 20, "note": 65, "velocity": 122, "channel": 0}, {"type": "note_off", "time": 116, "note": 65, "velocity": 122, "channel": 0}, {"type": "note_on", "time": 34, "note": 63, "velocity": 118, "channel": 0}, {"type": "note_off", "time": 23, "note": 63, "velocity": 118, "channel": 0}, {"type": "note_on", "time": 23, "note": 65, "velocity": 123, "channel": 0}, {"type": "note_off", "time": 119, "note": 65, "velocity": 123, "channel": 0}, {"type": "note_on", "time": 13, "note": 66, "velocity": 117, "channel": 0}, {"type": "note_off", "time": 58, "note": 66, "velocity": 117, "channel": 0}, {"type": "note_on", "time": 15, "note": 67, "velocity": 116, "channel": 0}, {"type": "note_off", "time": 94, "note": 67, "velocity": 116, "channel": 0}, {"type": "note_on", "time": 17, "note": 70, "velocity": 112, "channel": 0}, {"type": "note_off", "time": 80, "note": 70, "velocity": 112, "channel": 0}, {"type": "note_on", "time": 8, "note": 71, "velocity": 108, "channel": 0}, {"type": "note_off", "time": 99, "note": 71, "velocity": 108, "channel": 0}, {"type": "note_on", "time": 17, "note": 72, "velocity": 116, "channel": 0}, {"type": "note_off", "time": 181, "note": 72, "velocity": 116, "channel": 0}, {"type": "note_on", "time": 30, "note": 75, "velocity": 119, "channel": 0}, {"type": "note_off", "time": 155, "note": 75, "velocity": 119, "channel": 0}, {"type": "note_on", "time": 17, "note": 77, "velocity": 120, "channel": 0}, {"type": "note_off", "time": 210, "note": 77, "velocity": 120, "channel": 0}, {"type": "note_on", "time": 15, "note": 75, "velocity": 121, "channel": 0}, {"type": "note_off", "time": 164, "note": 75, "velocity": 121, "channel": 0}, {"type": "note_on", "time": 13, "note": 72, "velocity": 115, "channel": 0}, {"type": "note_off", "time": 95, "note": 72, "velocity": 115, "channel": 0}, {"type": "note_on", "time": 94, "note": 63, "velocity": 110, "channel": 0}, {"type": "note_off", "time": 41, "note": 63, "velocity": 110, "channel": 0}, {"type": "note_on", "time": 10, "note": 65, "velocity": 111, "channel": 0}, {"type": "note_off", "time": 18, "note": 65, "velocity": 111, "channel": 0}, {"type": "note_on", "time": 13, "note": 66, "velocity": 110, "channel": 0}, {"type": "note_off", "time": 66, "note": 66, "velocity": 110, "channel": 0}, {"type": "note_on", "time": 13, "note": 65, "velocity": 117, "channel": 0}, {"type": "note_off", "time": 237, "note": 65, "velocity": 117, "channel": 0}, {"type": "note_on", "time": 11, "note": 64, "velocity": 118, "channel": 0}, {"type": "note_off", "time": 42, "note": 64, "velocity": 118, "channel": 0}, {"type": "note_on", "time": 10, "note": 65, "velocity": 118, "channel": 0}, {"type": "note_off", "time": 54, "note": 65, "velocity": 118, "channel": 0}, {"type": "note_on", "time": 15, "note": 63, "velocity": 113, "channel": 0}, {"type": "note_off", "time": 35, "note": 63, "velocity": 113, "channel": 0}, {"type": "note_on", "time": 17, "note": 65, "velocity": 119, "channel": 0}, {"type": "note_off", "time": 174, "note": 65, "velocity": 119, "channel": 0}, {"type": "note_on", "time": 29, "note": 63, "velocity": 113, "channel": 0}, {"type": "note_off", "time": 85, "note": 63, "velocity": 113, "channel": 0}, {"type": "note_on", "time": 13, "note": 64, "velocity": 117, "channel": 0}, {"type": "note_off", "time": 20, "note": 64, "velocity": 117, "channel": 0}, {"type": "note_on", "time": 20, "note": 63, "velocity": 112, "channel": 0}, {"type": "note_off", "time": 58, "note": 63, "velocity": 112, "channel": 0}, {"type": "note_on", "time": 13, "note": 65, "velocity": 120, "channel": 0}, {"type": "note_off", "time": 246, "note": 65, "velocity": 120, "channel": 0}, {"type": "note_on", "time": 25, "note": 63, "velocity": 112, "channel": 0}, {"type": "note_off", "time": 59, "note": 63, "velocity": 112, "channel": 0}, {"type": "note_on", "time": 8, "note": 65, "velocity": 122, "channel": 0}, {"type": "note_off", "time": 65, "note": 65, "velocity": 122, "channel": 0}, {"type": "note_on", "time": 15, "note": 66, "velocity": 113, "channel": 0}, {"type": "note_off", "time": 97, "note": 66, "velocity": 113, "channel": 0}, {"type": "note_on", "time": 30, "note": 60, "velocity": 107, "channel": 0}, {"type": "note_off", "time": 133, "note": 60, "velocity": 107, "channel": 0}, {"type": "note_on", "time": 29, "note": 63, "velocity": 102, "channel": 0}, {"type": "note_off", "time": 273, "note": 63, "velocity": 102, "channel": 0}, {"type": "note_on", "time": 896, "note": 68, "velocity": 121, "channel": 0}, {"type": "note_off", "time": 87, "note": 68, "velocity": 121, "channel": 0}, {"type": "note_on", "time": 13, "note": 67, "velocity": 117, "channel": 0}, {"type": "note_off", "time": 68, "note": 67, "velocity": 117, "channel": 0}, {"type": "note_on", "time": 5, "note": 66, "velocity": 118, "channel": 0}, {"type": "note_off", "time": 114, "note": 66, "velocity": 118, "channel": 0}, {"type": "note_on", "time": 10, "note": 67, "velocity": 106, "channel": 0}, {"type": "note_off", "time": 47, "note": 67, "velocity": 106, "channel": 0}, {"type": "note_on", "time": 32, "note": 72, "velocity": 113, "channel": 0}, {"type": "note_off", "time": 143, "note": 72, "velocity": 113, "channel": 0}, {"type": "note_on", "time": 44, "note": 72, "velocity": 113, "channel": 0}, {"type": "note_off", "time": 106, "note": 72, "velocity": 113, "channel": 0}, {"type": "note_on", "time": 82, "note": 64, "velocity": 120, "channel": 0}, {"type": "note_off", "time": 65, "note": 64, "velocity": 120, "channel": 0}, {"type": "note_on", "time": 10, "note": 66, "velocity": 119, "channel": 0}, {"type": "note_off", "time": 253, "note": 66, "velocity": 119, "channel": 0}, {"type": "note_on", "time": 22, "note": 65, "velocity": 120, "channel": 0}, {"type": "note_off", "time": 364, "note": 65, "velocity": 120, "channel": 0}, {"type": "note_on", "time": 10, "note": 63, "velocity": 118, "channel": 0}, {"type": "note_off", "time": 44, "note": 63, "velocity": 118, "channel": 0}, {"type": "note_on", "time": 8, "note": 65, "velocity": 121, "channel": 0}, {"type": "note_off", "time": 82, "note": 65, "velocity": 121, "channel": 0}, {"type": "note_on", "time": 27, "note": 65, "velocity": 121, "channel": 0}, {"type": "note_off", "time": 76, "note": 65, "velocity": 121, "channel": 0}, {"type": "note_on", "time": 27, "note": 63, "velocity": 118, "channel": 0}, {"type": "note_off", "time": 78, "note": 63, "velocity": 118, "channel": 0}, {"type": "note_on", "time": 18, "note": 65, "velocity": 105, "channel": 0}, {"type": "note_off", "time": 70, "note": 65, "velocity": 105, "channel": 0}, {"type": "note_on", "time": 17, "note": 72, "velocity": 108, "channel": 0}, {"type": "note_off", "time": 99, "note": 72, "velocity": 108, "channel": 0}, {"type": "note_on", "time": 85, "note": 72, "velocity": 109, "channel": 0}, {"type": "note_off", "time": 116, "note": 72, "velocity": 109, "channel": 0}, {"type": "note_on", "time": 100, "note": 65, "velocity": 106, "channel": 0}, {"type": "note_off", "time": 53, "note": 65, "velocity": 106, "channel": 0}, {"type": "note_on", "time": 8, "note": 66, "velocity": 109, "channel": 0}, {"type": "note_off", "time": 116, "note": 66, "velocity": 109, "channel": 0}, {"type": "note_on", "time": 15, "note": 63, "velocity": 106, "channel": 0}, {"type": "note_off", "time": 94, "note": 63, "velocity": 106, "channel": 0}, {"type": "note_on", "time": 34, "note": 64, "velocity": 116, "channel": 0}, {"type": "note_off", "time": 337, "note": 64, "velocity": 116, "channel": 0}, {"type": "note_on", "time": 30, "note": 63, "velocity": 107, "channel": 0}, {"type": "note_off", "time": 44, "note": 63, "velocity": 107, "channel": 0}, {"type": "note_on", "time": 25, "note": 60, "velocity": 108, "channel": 0}, {"type": "note_off", "time": 58, "note": 60, "velocity": 108, "channel": 0}, {"type": "note_on", "time": 6, "note": 62, "velocity": 110, "channel": 0}, {"type": "note_off", "time": 27, "note": 62, "velocity": 110, "channel": 0}, {"type": "note_on", "time": 15, "note": 65, "velocity": 115, "channel": 0}, {"type": "note_off", "time": 234, "note": 65, "velocity": 115, "channel": 0}, {"type": "note_on", "time": 29, "note": 63, "velocity": 105, "channel": 0}, {"type": "note_off", "time": 361, "note": 63, "velocity": 105, "channel": 0}, {"type": "note_on", "time": 15, "note": 60, "velocity": 112, "channel": 0}, {"type": "note_off", "time": 142, "note": 60, "velocity": 112, "channel": 0}, {"type": "note_on", "time": 8, "note": 63, "velocity": 118, "channel": 0}, {"type": "note_off", "time": 37, "note": 63, "velocity": 118, "channel": 0}, {"type": "note_on", "time": 2087, "note": 61, "velocity": 116, "channel": 0}, {"type": "note_off", "time": 68, "note": 61, "velocity": 116, "channel": 0}, {"type": "note_on", "time": 20, "note": 63, "velocity": 117, "channel": 0}, {"type": "note_off", "time": 76, "note": 63, "velocity": 117, "channel": 0}, {"type": "note_on", "time": 29, "note": 65, "velocity": 121, "channel": 0}, {"type": "note_off", "time": 82, "note": 65, "velocity": 121, "channel": 0}, {"type": "note_on", "time": 35, "note": 67, "velocity": 116, "channel": 0}, {"type": "note_off", "time": 222, "note": 67, "velocity": 116, "channel": 0}, {"type": "note_on", "time": 242, "note": 67, "velocity": 117, "channel": 0}, {"type": "note_off", "time": 104, "note": 67, "velocity": 117, "channel": 0}, {"type": "note_on", "time": 8, "note": 68, "velocity": 118, "channel": 0}, {"type": "note_off", "time": 53, "note": 68, "velocity": 118, "channel": 0}, {"type": "note_on", "time": 13, "note": 70, "velocity": 116, "channel": 0}, {"type": "note_off", "time": 80, "note": 70, "velocity": 116, "channel": 0}, {"type": "note_on", "time": 27, "note": 72, "velocity": 115, "channel": 0}, {"type": "note_off", "time": 143, "note": 72, "velocity": 115, "channel": 0}, {"type": "note_on", "time": 326, "note": 72, "velocity": 118, "channel": 0}, {"type": "note_off", "time": 92, "note": 72, "velocity": 118, "channel": 0}, {"type": "note_on", "time": 15, "note": 73, "velocity": 122, "channel": 0}, {"type": "note_off", "time": 47, "note": 73, "velocity": 122, "channel": 0}, {"type": "note_on", "time": 18, "note": 75, "velocity": 121, "channel": 0}, {"type": "note_off", "time": 150, "note": 75, "velocity": 121, "channel": 0}, {"type": "note_on", "time": 8, "note": 76, "velocity": 123, "channel": 0}, {"type": "note_off", "time": 157, "note": 76, "velocity": 123, "channel": 0}, {"type": "note_on", "time": 289, "note": 76, "velocity": 122, "channel": 0}, {"type": "note_off", "time": 100, "note": 76, "velocity": 122, "channel": 0}, {"type": "note_on", "time": 18, "note": 77, "velocity": 123, "channel": 0}, {"type": "note_off", "time": 53, "note": 77, "velocity": 123, "channel": 0}, {"type": "note_on", "time": 15, "note": 78, "velocity": 119, "channel": 0}, {"type": "note_off", "time": 114, "note": 78, "velocity": 119, "channel": 0}, {"type": "note_on", "time": 22, "note": 80, "velocity": 122, "channel": 0}, {"type": "note_off", "time": 119, "note": 80, "velocity": 122, "channel": 0}, {"type": "note_on", "time": 285, "note": 79, "velocity": 115, "channel": 0}, {"type": "note_off", "time": 95, "note": 79, "velocity": 115, "channel": 0}, {"type": "note_on", "time": 13, "note": 80, "velocity": 110, "channel": 0}, {"type": "note_off", "time": 80, "note": 80, "velocity": 110, "channel": 0}, {"type": "note_on", "time": 18, "note": 82, "velocity": 108, "channel": 0}, {"type": "note_off", "time": 95, "note": 82, "velocity": 108, "channel": 0}, {"type": "note_on", "time": 22, "note": 84, "velocity": 109, "channel": 0}, {"type": "note_off", "time": 333, "note": 84, "velocity": 109, "channel": 0}, {"type": "note_on", "time": 17, "note": 83, "velocity": 112, "channel": 0}, {"type": "note_off", "time": 37, "note": 83, "velocity": 112, "channel": 0}, {"type": "note_on", "time": 8, "note": 80, "velocity": 117, "channel": 0}, {"type": "note_off", "time": 32, "note": 80, "velocity": 117, "channel": 0}, {"type": "note_on", "time": 18, "note": 79, "velocity": 117, "channel": 0}, {"type": "note_off", "time": 277, "note": 79, "velocity": 117, "channel": 0}, {"type": "note_on", "time": 18, "note": 77, "velocity": 121, "channel": 0}, {"type": "note_off", "time": 61, "note": 77, "velocity": 121, "channel": 0}, {"type": "note_on", "time": 17, "note": 76, "velocity": 121, "channel": 0}, {"type": "note_off", "time": 272, "note": 76, "velocity": 121, "channel": 0}, {"type": "note_on", "time": 27, "note": 73, "velocity": 118, "channel": 0}, {"type": "note_off", "time": 56, "note": 73, "velocity": 118, "channel": 0}, {"type": "note_on", "time": 10, "note": 70, "velocity": 112, "channel": 0}, {"type": "note_off", "time": 277, "note": 70, "velocity": 112, "channel": 0}, {"type": "note_on", "time": 13, "note": 68, "velocity": 116, "channel": 0}, {"type": "note_off", "time": 88, "note": 68, "velocity": 116, "channel": 0}, {"type": "note_on", "time": 25, "note": 67, "velocity": 111, "channel": 0}, {"type": "note_off", "time": 242, "note": 67, "velocity": 111, "channel": 0}, {"type": "note_on", "time": 30, "note": 66, "velocity": 112, "channel": 0}, {"type": "note_off", "time": 42, "note": 66, "velocity": 112, "channel": 0}, {"type": "note_on", "time": 20, "note": 65, "velocity": 113, "channel": 0}, {"type": "note_off", "time": 316, "note": 65, "velocity": 113, "channel": 0}, {"type": "note_on", "time": 8, "note": 64, "velocity": 109, "channel": 0}, {"type": "note_off", "time": 44, "note": 64, "velocity": 109, "channel": 0}, {"type": "note_on", "time": 30, "note": 63, "velocity": 108, "channel": 0}, {"type": "note_off", "time": 236, "note": 63, "velocity": 108, "channel": 0}, {"type": "note_on", "time": 10, "note": 62, "velocity": 110, "channel": 0}, {"type": "note_off", "time": 44, "note": 62, "velocity": 110, "channel": 0}, {"type": "note_on", "time": 20, "note": 61, "velocity": 106, "channel": 0}, {"type": "note_off", "time": 47, "note": 61, "velocity": 106, "channel": 0}, {"type": "note_on", "time": 17, "note": 60, "velocity": 109, "channel": 0}, {"type": "note_off", "time": 41, "note": 60, "velocity": 109, "channel": 0}, {"type": "note_on", "time": 22, "note": 59, "velocity": 109, "channel": 0}, {"type": "note_off", "time": 248, "note": 59, "velocity": 109, "channel": 0}, {"type": "note_on", "time": 119, "note": 72, "velocity": 113, "channel": 0}, {"type": "note_off", "time": 222, "note": 72, "velocity": 113, "channel": 0}, {"type": "note_on", "time": 145, "note": 64, "velocity": 106, "channel": 0}, {"type": "note_off", "time": 54, "note": 64, "velocity": 106, "channel": 0}, {"type": "note_on", "time": 10, "note": 66, "velocity": 106, "channel": 0}, {"type": "note_off", "time": 203, "note": 66, "velocity": 106, "channel": 0}, {"type": "note_on", "time": 22, "note": 65, "velocity": 111, "channel": 0}, {"type": "note_off", "time": 403, "note": 65, "velocity": 111, "channel": 0}, {"type": "note_on", "time": 15, "note": 63, "velocity": 107, "channel": 0}, {"type": "note_off", "time": 63, "note": 63, "velocity": 107, "channel": 0}, {"type": "note_on", "time": 17, "note": 65, "velocity": 113, "channel": 0}, {"type": "note_off", "time": 92, "note": 65, "velocity": 113, "channel": 0}, {"type": "note_on", "time": 25, "note": 65, "velocity": 115, "channel": 0}, {"type": "note_off", "time": 61, "note": 65, "velocity": 115, "channel": 0}, {"type": "note_on", "time": 23, "note": 63, "velocity": 110, "channel": 0}, {"type": "note_off", "time": 121, "note": 63, "velocity": 110, "channel": 0}, {"type": "note_on", "time": 65, "note": 72, "velocity": 104, "channel": 0}, {"type": "note_off", "time": 160, "note": 72, "velocity": 104, "channel": 0}, {"type": "note_on", "time": 34, "note": 72, "velocity": 110, "channel": 0}, {"type": "note_off", "time": 123, "note": 72, "velocity": 110, "channel": 0}, {"type": "note_on", "time": 142, "note": 65, "velocity": 106, "channel": 0}, {"type": "note_off", "time": 242, "note": 65, "velocity": 106, "channel": 0}, {"type": "note_on", "time": 22, "note": 63, "velocity": 102, "channel": 0}, {"type": "note_off", "time": 357, "note": 63, "velocity": 102, "channel": 0}, {"type": "note_on", "time": 64, "note": 60, "velocity": 104, "channel": 0}, {"type": "note_off", "time": 99, "note": 60, "velocity": 104, "channel": 0}, {"type": "note_on", "time": 20, "note": 63, "velocity": 99, "channel": 0}, {"type": "note_off", "time": 88, "note": 63, "velocity": 99, "channel": 0}, {"type": "note_on", "time": 6, "note": 65, "velocity": 104, "channel": 0}, {"type": "note_off", "time": 118, "note": 65, "velocity": 104, "channel": 0}, {"type": "note_on", "time": 11, "note": 63, "velocity": 100, "channel": 0}, {"type": "note_off", "time": 143, "note": 63, "velocity": 100, "channel": 0}, {"type": "note_on", "time": 138, "note": 66, "velocity": 102, "channel": 0}, {"type": "note_off", "time": 193, "note": 66, "velocity": 102, "channel": 0}, {"type": "note_on", "time": 15, "note": 65, "velocity": 101, "channel": 0}, {"type": "note_off", "time": 106, "note": 65, "velocity": 101, "channel": 0}, {"type": "note_on", "time": 34, "note": 63, "velocity": 97, "channel": 0}, {"type": "note_off", "time": 465, "note": 63, "velocity": 97, "channel": 0}, {"type": "note_on", "time": 2131, "note": 63, "velocity": 96, "channel": 0}, {"type": "note_off", "time": 58, "note": 63, "velocity": 96, "channel": 0}, {"type": "note_on", "time": 17, "note": 65, "velocity": 109, "channel": 0}, {"type": "note_off", "time": 47, "note": 65, "velocity": 109, "channel": 0}, {"type": "note_on", "time": 20, "note": 66, "velocity": 116, "channel": 0}, {"type": "note_off", "time": 167, "note": 66, "velocity": 116, "channel": 0}, {"type": "note_on", "time": 23, "note": 65, "velocity": 117, "channel": 0}, {"type": "note_off", "time": 71, "note": 65, "velocity": 117, "channel": 0}, {"type": "note_on", "time": 20, "note": 63, "velocity": 97, "channel": 0}, {"type": "note_off", "time": 763, "note": 63, "velocity": 97, "channel": 0}, {"type": "note_on", "time": 47, "note": 60, "velocity": 97, "channel": 0}, {"type": "note_off", "time": 116, "note": 60, "velocity": 97, "channel": 0}, {"type": "note_on", "time": 27, "note": 63, "velocity": 111, "channel": 0}, {"type": "note_off", "time": 109, "note": 63, "velocity": 111, "channel": 0}, {"type": "note_on", "time": 30, "note": 65, "velocity": 121, "channel": 0}, {"type": "note_off", "time": 124, "note": 65, "velocity": 121, "channel": 0}, {"type": "note_on", "time": 24, "note": 66, "velocity": 109, "channel": 0}, {"type": "note_off", "time": 170, "note": 66, "velocity": 109, "channel": 0}, {"type": "note_on", "time": 21, "note": 65, "velocity": 109, "channel": 0}, {"type": "note_off", "time": 131, "note": 65, "velocity": 109, "channel": 0}, {"type": "note_on", "time": 43, "note": 63, "velocity": 95, "channel": 0}, {"type": "note_off", "time": 481, "note": 63, "velocity": 95, "channel": 0}, {"type": "note_on", "time": 386, "note": 67, "velocity": 118, "channel": 0}, {"type": "note_off", "time": 189, "note": 67, "velocity": 118, "channel": 0}, {"type": "note_on", "time": 99, "note": 68, "velocity": 119, "channel": 0}, {"type": "note_off", "time": 65, "note": 68, "velocity": 119, "channel": 0}, {"type": "note_on", "time": 9, "note": 70, "velocity": 114, "channel": 0}, {"type": "note_off", "time": 37, "note": 70, "velocity": 114, "channel": 0}, {"type": "note_on", "time": 23, "note": 71, "velocity": 114, "channel": 0}, {"type": "note_off", "time": 41, "note": 71, "velocity": 114, "channel": 0}, {"type": "note_on", "time": 44, "note": 72, "velocity": 101, "channel": 0}, {"type": "note_off", "time": 626, "note": 72, "velocity": 101, "channel": 0}, {"type": "note_on", "time": 61, "note": 71, "velocity": 100, "channel": 0}, {"type": "note_off", "time": 650, "note": 71, "velocity": 100, "channel": 0}, {"type": "note_on", "time": 34, "note": 70, "velocity": 89, "channel": 0}, {"type": "note_off", "time": 482, "note": 70, "velocity": 89, "channel": 0}, {"type": "note_on", "time": 44, "note": 69, "velocity": 112, "channel": 0}, {"type": "note_off", "time": 133, "note": 69, "velocity": 112, "channel": 0}, {"type": "note_on", "time": 20, "note": 68, "velocity": 113, "channel": 0}, {"type": "note_off", "time": 102, "note": 68, "velocity": 113, "channel": 0}, {"type": "note_on", "time": 13, "note": 67, "velocity": 112, "channel": 0}, {"type": "note_off", "time": 71, "note": 67, "velocity": 112, "channel": 0}, {"type": "note_on", "time": 10, "note": 66, "velocity": 110, "channel": 0}, {"type": "note_off", "time": 54, "note": 66, "velocity": 110, "channel": 0}, {"type": "note_on", "time": 23, "note": 65, "velocity": 116, "channel": 0}, {"type": "note_off", "time": 54, "note": 65, "velocity": 116, "channel": 0}, {"type": "note_on", "time": 30, "note": 64, "velocity": 113, "channel": 0}, {"type": "note_off", "time": 41, "note": 64, "velocity": 113, "channel": 0}, {"type": "note_on", "time": 6, "note": 63, "velocity": 112, "channel": 0}, {"type": "note_off", "time": 85, "note": 63, "velocity": 112, "channel": 0}, {"type": "note_on", "time": 10, "note": 62, "velocity": 103, "channel": 0}, {"type": "note_off", "time": 47, "note": 62, "velocity": 103, "channel": 0}, {"type": "end_of_track", "time": 0}]]}