{"ticks_per_beat": 840, "tracks": [[{"type": "track_name", "name": "Melody", "time": 0}, {"type": "set_tempo", "tempo": 397350, "time": 0}, {"type": "key_signature", "key": "Eb", "time": 0}, {"type": "time_signature", "numerator": 4, "denominator": 4, "clocks_per_click": 24, "notated_32nd_notes_per_beat": 8, "time": 0}, {"type": "note_on", "time": 10345, "note": 72, "velocity": 112, "channel": 0}, {"type": "note_off", "time": 207, "note": 72, "velocity": 112, "channel": 0}, {"type": "note_on", "time": 224, "note": 73, "velocity": 93, "channel": 0}, {"type": "note_off", "time": 241, "note": 73, "velocity": 93, "channel": 0}, {"type": "note_on", "time": 2179, "note": 72, "velocity": 110, "channel": 0}, {"type": "note_off", "time": 257, "note": 72, "velocity": 110, "channel": 0}, {"type": "note_on", "time": 39, "note": 73, "velocity": 108, "channel": 0}, {"type": "note_off", "time": 125, "note": 73, "velocity": 108, "channel": 0}, {"type": "note_on", "time": 38, "note": 75, "velocity": 116, "channel": 0}, {"type": "note_off", "time": 215, "note": 75, "velocity": 116, "channel": 0}, {"type": "note_on", "time": 32, "note": 73, "velocity": 106, "channel": 0}, {"type": "note_off", "time": 134, "note": 73, "velocity": 106, "channel": 0}, {"type": "note_on", "time": 39, "note": 75, "velocity": 112, "channel": 0}, {"type": "note_off", "time": 441, "note": 75, "velocity": 112, "channel": 0}, {"type": "note_on", "time": 19, "note": 71, "velocity": 94, "channel": 0}, {"type": "note_off", "time": 323, "note": 71, "velocity": 94, "channel": 0}, {"type": "note_on", "time": 2743, "note": 78, "velocity": 122, "channel": 0}, {"type": "note_off", "time": 232, "note": 78, "velocity": 122, "channel": 0}, {"type": "note_on", "time": 51, "note": 76, "velocity": 119, "channel": 0}, {"type": "note_off", "time": 202, "note": 76, "velocity": 119, "channel": 0}, {"type": "note_on", "time": 30, "note": 77, "velocity": 127, "channel": 0}, {"type": "note_off", "time": 224, "note": 77, "velocity": 127, "channel": 0}, {"type": "note_on", "time": 38, "note": 76, "velocity": 121, "channel": 0}, {"type": "note_off", "time": 172, "note": 76, "velocity": 121, "channel": 0}, {"type": "note_on", "time": 56, "note": 75, "velocity": 120, "channel": 0}, {"type": "note_off", "time": 241, "note": 75, "velocity": 120, "channel": 0}, {"type": "note_on", "time": 56, "note": 73, "velocity": 114, "channel": 0}, {"type": "note_off", "time": 271, "note": 73, "velocity": 114, "channel": 0}, {"type": "note_on", "time": 56, "note": 70, "velocity": 108, "channel": 0}, {"type": "note_off", "time": 241, "note": 70, "velocity": 108, "channel": 0}, {"type": "note_on", "time": 47, "note": 66, "velocity": 107, "channel": 0}, {"type": "note_off", "time": 198, "note": 66, "velocity": 107, "channel": 0}, {"type": "note_on", "time": 77, "note": 64, "velocity": 104, "channel": 0}, {"type": "note_off", "time": 138, "note": 64, "velocity": 104, "channel": 0}, {"type": "note_on", "time": 4, "note": 65, "velocity": 114, "channel": 0}, {"type": "note_off", "time": 258, "note": 65, "velocity": 114, "channel": 0}, {"type": "note_on", "time": 11, "note": 64, "velocity": 111, "channel": 0}, {"type": "note_off", "time": 181, "note": 64, "velocity": 111, "channel": 0}, {"type": "note_on", "time": 27, "note": 63, "velocity": 107, "channel": 0}, {"type": "note_off", "time": 280, "note": 63, "velocity": 107, "channel": 0}, {"type": "note_on", "time": 29, "note": 61, "velocity": 107, "channel": 0}, {"type": "note_off", "time": 497, "note": 61, "velocity": 107, "channel": 0}, {"type": "note_on", "time": 43, "note": 68, "velocity": 105, "channel": 0}, {"type": "note_off", "time": 263, "note": 68, "velocity": 105, "channel": 0}, {"type": "note_on", "time": 51, "note": 63, "velocity": 94, "channel": 0}, {"type": "note_off", "time": 750, "note": 63, "velocity": 94, "channel": 0}, {"type": "note_on", "time": 1289, "note": 61, "velocity": 111, "channel": 0}, {"type": "note_off", "time": 138, "note": 61, "velocity": 111, "channel": 0}, {"type": "note_on", "time": 30, "note": 62, "velocity": 110, "channel": 0}, {"type": "note_off", "time": 202, "note": 62, "velocity": 110, "channel": 0}, {"type": "note_on", "time": 51, "note": 59, "velocity": 110, "channel": 0}, {"type": "note_off", "time": 263, "note": 59, "velocity": 110, "channel": 0}, {"type": "note_on", "time": 118, "note": 71, "velocity": 107, "channel": 0}, {"type": "note_off", "time": 310, "note": 71, "velocity": 107, "channel": 0}, {"type": "note_on", "time": 75, "note": 61, "velocity": 100, "channel": 0}, {"type": "note_off", "time": 163, "note": 61, "velocity": 100, "channel": 0}, {"type": "note_on", "time": 26, "note": 62, "velocity": 108, "channel": 0}, {"type": "note_off", "time": 233, "note": 62, "velocity": 108, "channel": 0}, {"type": "note_on", "time": 12, "note": 64, "velocity": 114, "channel": 0}, {"type": "note_off", "time": 289, "note": 64, "velocity": 114, "channel": 0}, {"type": "note_on", "time": 73, "note": 63, "velocity": 112, "channel": 0}, {"type": "note_off", "time": 422, "note": 63, "velocity": 112, "channel": 0}, {"type": "note_on", "time": 43, "note": 75, "velocity": 114, "channel": 0}, {"type": "note_off", "time": 327, "note": 75, "velocity": 114, "channel": 0}, {"type": "note_on", "time": 77, "note": 71, "velocity": 98, "channel": 0}, {"type": "note_off", "time": 720, "note": 71, "velocity": 98, "channel": 0}, {"type": "note_on", "time": 176, "note": 70, "velocity": 102, "channel": 0}, {"type": "note_off", "time": 228, "note": 70, "velocity": 102, "channel": 0}, {"type": "note_on", "time": 77, "note": 63, "velocity": 103, "channel": 0}, {"type": "note_off", "time": 107, "note": 63, "velocity": 103, "channel": 0}, {"type": "note_on", "time": 31, "note": 65, "velocity": 107, "channel": 0}, {"type": "note_off", "time": 223, "note": 65, "velocity": 107, "channel": 0}, {"type": "note_on", "time": 29, "note": 70, "velocity": 102, "channel": 0}, {"type": "note_off", "time": 155, "note": 70, "velocity": 102, "channel": 0}, {"type": "note_on", "time": 24, "note": 69, "velocity": 102, "channel": 0}, {"type": "note_off", "time": 190, "note": 69, "velocity": 102, "channel": 0}, {"type": "note_on", "time": 24, "note": 65, "velocity": 106, "channel": 0}, {"type": "note_off", "time": 147, "note": 65, "velocity": 106, "channel": 0}, {"type": "note_on", "time": 45, "note": 61, "velocity": 106, "channel": 0}, {"type": "note_off", "time": 207, "note": 61, "velocity": 106, "channel": 0}, {"type": "note_on", "time": 25, "note": 64, "velocity": 102, "channel": 0}, {"type": "note_off", "time": 133, "note": 64, "velocity": 102, "channel": 0}, {"type": "note_on", "time": 47, "note": 69, "velocity": 104, "channel": 0}, {"type": "note_off", "time": 163, "note": 69, "velocity": 104, "channel": 0}, {"type": "note_on", "time": 60, "note": 64, "velocity": 104, "channel": 0}, {"type": "note_off", "time": 260, "note": 64, "velocity": 104, "channel": 0}, {"type": "note_on", "time": 27, "note": 66, "velocity": 101, "channel": 0}, {"type": "note_off", "time": 176, "note": 66, "velocity": 101, "channel": 0}, {"type": "note_on", "time": 25, "note": 69, "velocity": 105, "channel": 0}, {"type": "note_off", "time": 150, "note": 69, "velocity": 105, "channel": 0}, {"type": "note_on", "time": 60, "note": 73, "velocity": 108, "channel": 0}, {"type": "note_off", "time": 155, "note": 73, "velocity": 108, "channel": 0}, {"type": "note_on", "time": 60, "note": 76, "velocity": 107, "channel": 0}, {"type": "note_off", "time": 181, "note": 76, "velocity": 107, "channel": 0}, {"type": "note_on", "time": 8, "note": 78, "velocity": 114, "channel": 0}, {"type": "note_off", "time": 138, "note": 78, "velocity": 114, "channel": 0}, {"type": "note_on", "time": 47, "note": 76, "velocity": 109, "channel": 0}, {"type": "note_off", "time": 159, "note": 76, "velocity": 109, "channel": 0}, {"type": "note_on", "time": 17, "note": 77, "velocity": 114, "channel": 0}, {"type": "note_off", "time": 228, "note": 77, "velocity": 114, "channel": 0}, {"type": "note_on", "time": 51, "note": 76, "velocity": 114, "channel": 0}, {"type": "note_off", "time": 168, "note": 76, "velocity": 114, "channel": 0}, {"type": "note_on", "time": 8, "note": 75, "velocity": 111, "channel": 0}, {"type": "note_off", "time": 168, "note": 75, "velocity": 111, "channel": 0}, {"type": "note_on", "time": 30, "note": 73, "velocity": 110, "channel": 0}, {"type": "note_off", "time": 189, "note": 73, "velocity": 110, "channel": 0}, {"type": "note_on", "time": 30, "note": 72, "velocity": 112, "channel": 0}, {"type": "note_off", "time": 155, "note": 72, "velocity": 112, "channel": 0}, {"type": "note_on", "time": 23, "note": 68, "velocity": 99, "channel": 0}, {"type": "note_off", "time": 125, "note": 68, "velocity": 99, "channel": 0}, {"type": "note_on", "time": 10, "note": 67, "velocity": 106, "channel": 0}, {"type": "note_off", "time": 267, "note": 67, "velocity": 106, "channel": 0}, {"type": "note_on", "time": 30, "note": 68, "velocity": 100, "channel": 0}, {"type": "note_off", "time": 77, "note": 68, "velocity": 100, "channel": 0}, {"type": "note_on", "time": 27, "note": 69, "velocity": 105, "channel": 0}, {"type": "note_off", "time": 245, "note": 69, "velocity": 105, "channel": 0}, {"type": "note_on", "time": 49, "note": 61, "velocity": 95, "channel": 0}, {"type": "note_off", "time": 239, "note": 61, "velocity": 95, "channel": 0}, {"type": "note_on", "time": 0, "note": 63, "velocity": 99, "channel": 0}, {"type": "note_off", "time": 171, "note": 63, "velocity": 99, "channel": 0}, {"type": "note_on", "time": 8, "note": 66, "velocity": 111, "channel": 0}, {"type": "note_off", "time": 220, "note": 66, "velocity": 111, "channel": 0}, {"type": "note_on", "time": 12, "note": 65, "velocity": 114, "channel": 0}, {"type": "note_off", "time": 151, "note": 65, "velocity": 114, "channel": 0}, {"type": "note_on", "time": 43, "note": 64, "velocity": 111, "channel": 0}, {"type": "note_off", "time": 162, "note": 64, "velocity": 111, "channel": 0}, {"type": "note_on", "time": 22, "note": 63, "velocity": 105, "channel": 0}, {"type": "note_off", "time": 194, "note": 63, "velocity": 105, "channel": 0}, {"type": "note_on", "time": 46, "note": 64, "velocity": 104, "channel": 0}, {"type": "note_off", "time": 181, "note": 64, "velocity": 104, "channel": 0}, {"type": "note_on", "time": 22, "note": 60, "velocity": 106, "channel": 0}, {"type": "note_off", "time": 168, "note": 60, "velocity": 106, "channel": 0}, {"type": "note_on", "time": 24, "note": 61, "velocity": 104, "channel": 0}, {"type": "note_off", "time": 92, "note": 61, "velocity": 104, "channel": 0}, {"type": "note_on", "time": 65, "note": 65, "velocity": 100, "channel": 0}, {"type": "note_off", "time": 125, "note": 65, "velocity": 100, "channel": 0}, {"type": "note_on", "time": 30, "note": 69, "velocity": 104, "channel": 0}, {"type": "note_off", "time": 208, "note": 69, "velocity": 104, "channel": 0}, {"type": "note_on", "time": 32, "note": 72, "velocity": 104, "channel": 0}, {"type": "note_off", "time": 599, "note": 72, "velocity": 104, "channel": 0}, {"type": "note_on", "time": 69, "note": 67, "velocity": 88, "channel": 0}, {"type": "note_off", "time": 133, "note": 67, "velocity": 88, "channel": 0}, {"type": "note_on", "time": 24, "note": 69, "velocity": 104, "channel": 0}, {"type": "note_off", "time": 239, "note": 69, "velocity": 104, "channel": 0}, {"type": "note_on", "time": 12, "note": 70, "velocity": 103, "channel": 0}, {"type": "note_off", "time": 239, "note": 70, "velocity": 103, "channel": 0}, {"type": "note_on", "time": 0, "note": 72, "velocity": 103, "channel": 0}, {"type": "note_off", "time": 245, "note": 72, "velocity": 103, "channel": 0}, {"type": "note_on", "time": 33, "note": 77, "velocity": 104, "channel": 0}, {"type": "note_off", "time": 138, "note": 77, "velocity": 104, "channel": 0}, {"type": "note_on", "time": 38, "note": 79, "velocity": 114, "channel": 0}, {"type": "note_off", "time": 146, "note": 79, "velocity": 114, "channel": 0}, {"type": "note_on", "time": 69, "note": 76, "velocity": 113, "channel": 0}, {"type": "note_off", "time": 150, "note": 76, "velocity": 113, "channel": 0}, {"type": "note_on", "time": 25, "note": 77, "velocity": 116, "channel": 0}, {"type": "note_off", "time": 237, "note": 77, "velocity": 116, "channel": 0}, {"type": "note_on", "time": 133, "note": 73, "velocity": 106, "channel": 0}, {"type": "note_off", "time": 785, "note": 73, "velocity": 106, "channel": 0}, {"type": "note_on", "time": 2705, "note": 79, "velocity": 121, "channel": 0}, {"type": "note_off", "time": 228, "note": 79, "velocity": 121, "channel": 0}, {"type": "note_on", "time": 25, "note": 80, "velocity": 119, "channel": 0}, {"type": "note_off", "time": 254, "note": 80, "velocity": 119, "channel": 0}, {"type": "note_on", "time": 17, "note": 83, "velocity": 108, "channel": 0}, {"type": "note_off", "time": 267, "note": 83, "velocity": 108, "channel": 0}, {"type": "note_on", "time": 43, "note": 70, "velocity": 107, "channel": 0}, {"type": "note_off", "time": 570, "note": 70, "velocity": 107, "channel": 0}, {"type": "note_on", "time": 28, "note": 71, "velocity": 102, "channel": 0}, {"type": "note_off", "time": 181, "note": 71, "velocity": 102, "channel": 0}, {"type": "note_on", "time": 73, "note": 79, "velocity": 110, "channel": 0}, {"type": "note_off", "time": 811, "note": 79, "velocity": 110, "channel": 0}, {"type": "note_on", "time": 1233, "note": 77, "velocity": 119, "channel": 0}, {"type": "note_off", "time": 163, "note": 77, "velocity": 119, "channel": 0}, {"type": "note_on", "time": 168, "note": 84, "velocity": 108, "channel": 0}, {"type": "note_off", "time": 228, "note": 84, "velocity": 108, "channel": 0}, {"type": "note_on", "time": 31, "note": 85, "velocity": 104, "channel": 0}, {"type": "note_off", "time": 251, "note": 85, "velocity": 104, "channel": 0}, {"type": "note_on", "time": 18, "note": 81, "velocity": 113, "channel": 0}, {"type": "note_off", "time": 302, "note": 81, "velocity": 113, "channel": 0}, {"type": "note_on", "time": 47, "note": 84, "velocity": 103, "channel": 0}, {"type": "note_off", "time": 233, "note": 84, "velocity": 103, "channel": 0}, {"type": "note_on", "time": 198, "note": 70, "velocity": 106, "channel": 0}, {"type": "note_off", "time": 185, "note": 70, "velocity": 106, "channel": 0}, {"type": "note_on", "time": 48, "note": 71, "velocity": 101, "channel": 0}, {"type": "note_off", "time": 181, "note": 71, "velocity": 101, "channel": 0}, {"type": "note_on", "time": 33, "note": 69, "velocity": 105, "channel": 0}, {"type": "note_off", "time": 141, "note": 69, "velocity": 105, "channel": 0}, {"type": "note_on", "time": 18, "note": 69, "velocity": 108, "channel": 0}, {"type": "note_off", "time": 119, "note": 69, "velocity": 108, "channel": 0}, {"type": "note_on", "time": 31, "note": 77, "velocity": 114, "channel": 0}, {"type": "note_off", "time": 349, "note": 77, "velocity": 114, "channel": 0}, {"type": "note_on", "time": 163, "note": 75, "velocity": 111, "channel": 0}, {"type": "note_off", "time": 314, "note": 75, "velocity": 111, "channel": 0}, {"type": "note_on", "time": 281, "note": 80, "velocity": 109, "channel": 0}, {"type": "note_off", "time": 266, "note": 80, "velocity": 109, "channel": 0}, {"type": "note_on", "time": 0, "note": 77, "velocity": 115, "channel": 0}, {"type": "note_off", "time": 276, "note": 77, "velocity": 115, "channel": 0}, {"type": "note_on", "time": 15, "note": 73, "velocity": 105, "channel": 0}, {"type": "note_off", "time": 211, "note": 73, "velocity": 105, "channel": 0}, {"type": "note_on", "time": 12, "note": 70, "velocity": 101, "channel": 0}, {"type": "note_off", "time": 288, "note": 70, "velocity": 101, "channel": 0}, {"type": "note_on", "time": 54, "note": 75, "velocity": 109, "channel": 0}, {"type": "note_off", "time": 207, "note": 75, "velocity": 109, "channel": 0}, {"type": "note_on", "time": 27, "note": 70, "velocity": 100, "channel": 0}, {"type": "note_off", "time": 214, "note": 70, "velocity": 100, "channel": 0}, {"type": "note_on", "time": 21, "note": 65, "velocity": 96, "channel": 0}, {"type": "note_off", "time": 223, "note": 65, "velocity": 96, "channel": 0}, {"type": "note_on", "time": 30, "note": 63, "velocity": 104, "channel": 0}, {"type": "note_off", "time": 211, "note": 63, "velocity": 104, "channel": 0}, {"type": "note_on", "time": 16, "note": 67, "velocity": 102, "channel": 0}, {"type": "note_off", "time": 107, "note": 67, "velocity": 102, "channel": 0}, {"type": "note_on", "time": 8, "note": 68, "velocity": 106, "channel": 0}, {"type": "note_off", "time": 358, "note": 68, "velocity": 106, "channel": 0}, {"type": "note_on", "time": 60, "note": 73, "velocity": 105, "channel": 0}, {"type": "note_off", "time": 155, "note": 73, "velocity": 105, "channel": 0}, {"type": "note_on", "time": 56, "note": 75, "velocity": 109, "channel": 0}, {"type": "note_off", "time": 651, "note": 75, "velocity": 109, "channel": 0}, {"type": "note_on", "time": 36, "note": 75, "velocity": 104, "channel": 0}, {"type": "note_off", "time": 141, "note": 75, "velocity": 104, "channel": 0}, {"type": "note_on", "time": 6, "note": 73, "velocity": 105, "channel": 0}, {"type": "note_off", "time": 162, "note": 73, "velocity": 105, "channel": 0}, {"type": "note_on", "time": 24, "note": 70, "velocity": 96, "channel": 0}, {"type": "note_off", "time": 205, "note": 70, "velocity": 96, "channel": 0}, {"type": "note_on", "time": 53, "note": 65, "velocity": 107, "channel": 0}, {"type": "note_off", "time": 211, "note": 65, "velocity": 107, "channel": 0}, {"type": "note_on", "time": 51, "note": 62, "velocity": 101, "channel": 0}, {"type": "note_off", "time": 120, "note": 62, "velocity": 101, "channel": 0}, {"type": "note_on", "time": 8, "note": 63, "velocity": 107, "channel": 0}, {"type": "note_off", "time": 215, "note": 63, "velocity": 107, "channel": 0}, {"type": "note_on", "time": 47, "note": 61, "velocity": 103, "channel": 0}, {"type": "note_off", "time": 163, "note": 61, "velocity": 103, "channel": 0}, {"type": "note_on", "time": 69, "note": 65, "velocity": 105, "channel": 0}, {"type": "note_off", "time": 202, "note": 65, "velocity": 105, "channel": 0}, {"type": "note_on", "time": 34, "note": 67, "velocity": 109, "channel": 0}, {"type": "note_off", "time": 194, "note": 67, "velocity": 109, "channel": 0}, {"type": "note_on", "time": 30, "note": 68, "velocity": 106, "channel": 0}, {"type": "note_off", "time": 176, "note": 68, "velocity": 106, "channel": 0}, {"type": "note_on", "time": 17, "note": 67, "velocity": 109, "channel": 0}, {"type": "note_off", "time": 73, "note": 67, "velocity": 109, "channel": 0}, {"type": "note_on", "time": 60, "note": 65, "velocity": 104, "channel": 0}, {"type": "note_off", "time": 211, "note": 65, "velocity": 104, "channel": 0}, {"type": "note_on", "time": 64, "note": 62, "velocity": 104, "channel": 0}, {"type": "note_off", "time": 163, "note": 62, "velocity": 104, "channel": 0}, {"type": "note_on", "time": 25, "note": 63, "velocity": 107, "channel": 0}, {"type": "note_off", "time": 211, "note": 63, "velocity": 107, "channel": 0}, {"type": "note_on", "time": 34, "note": 65, "velocity": 103, "channel": 0}, {"type": "note_off", "time": 228, "note": 65, "velocity": 103, "channel": 0}, {"type": "note_on", "time": 30, "note": 66, "velocity": 107, "channel": 0}, {"type": "note_off", "time": 129, "note": 66, "velocity": 107, "channel": 0}, {"type": "note_on", "time": 39, "note": 70, "velocity": 99, "channel": 0}, {"type": "note_off", "time": 205, "note": 70, "velocity": 99, "channel": 0}, {"type": "note_on", "time": 0, "note": 72, "velocity": 106, "channel": 0}, {"type": "note_off", "time": 181, "note": 72, "velocity": 106, "channel": 0}, {"type": "note_on", "time": 34, "note": 74, "velocity": 108, "channel": 0}, {"type": "note_off", "time": 142, "note": 74, "velocity": 108, "channel": 0}, {"type": "note_on", "time": 25, "note": 75, "velocity": 108, "channel": 0}, {"type": "note_off", "time": 236, "note": 75, "velocity": 108, "channel": 0}, {"type": "note_on", "time": 30, "note": 76, "velocity": 102, "channel": 0}, {"type": "note_off", "time": 282, "note": 76, "velocity": 102, "channel": 0}, {"type": "note_on", "time": 29, "note": 74, "velocity": 106, "channel": 0}, {"type": "note_off", "time": 172, "note": 74, "velocity": 106, "channel": 0}, {"type": "note_on", "time": 24, "note": 75, "velocity": 112, "channel": 0}, {"type": "note_on", "time": 294, "note": 73, "velocity": 102, "channel": 0}, {"type": "note_off", "time": 0, "note": 75, "velocity": 112, "channel": 0}, {"type": "note_off", "time": 116, "note": 73, "velocity": 102, "channel": 0}, {"type": "note_on", "time": 9, "note": 74, "velocity": 109, "channel": 0}, {"type": "note_off", "time": 233, "note": 74, "velocity": 109, "channel": 0}, {"type": "note_on", "time": 18, "note": 70, "velocity": 99, "channel": 0}, {"type": "note_off", "time": 129, "note": 70, "velocity": 99, "channel": 0}, {"type": "note_on", "time": 39, "note": 65, "velocity": 102, "channel": 0}, {"type": "note_off", "time": 239, "note": 65, "velocity": 102, "channel": 0}, {"type": "note_on", "time": 46, "note": 62, "velocity": 103, "channel": 0}, {"type": "note_off", "time": 177, "note": 62, "velocity": 103, "channel": 0}, {"type": "note_on", "time": 0, "note": 64, "velocity": 105, "channel": 0}, {"type": "note_off", "time": 207, "note": 64, "velocity": 105, "channel": 0}, {"type": "note_on", "time": 43, "note": 65, "velocity": 101, "channel": 0}, {"type": "note_off", "time": 625, "note": 65, "velocity": 101, "channel": 0}, {"type": "note_on", "time": 6208, "note": 61, "velocity": 104, "channel": 0}, {"type": "note_off", "time": 172, "note": 61, "velocity": 104, "channel": 0}, {"type": "note_on", "time": 53, "note": 63, "velocity": 99, "channel": 0}, {"type": "note_off", "time": 187, "note": 63, "velocity": 99, "channel": 0}, {"type": "note_on", "time": 4, "note": 66, "velocity": 105, "channel": 0}, {"type": "note_off", "time": 176, "note": 66, "velocity": 105, "channel": 0}, {"type": "note_on", "time": 21, "note": 65, "velocity": 106, "channel": 0}, {"type": "note_off", "time": 142, "note": 65, "velocity": 106, "channel": 0}, {"type": "note_on", "time": 16, "note": 64, "velocity": 100, "channel": 0}, {"type": "note_off", "time": 138, "note": 64, "velocity": 100, "channel": 0}, {"type": "note_on", "time": 48, "note": 63, "velocity": 100, "channel": 0}, {"type": "note_off", "time": 142, "note": 63, "velocity": 100, "channel": 0}, {"type": "note_on", "time": 33, "note": 65, "velocity": 88, "channel": 0}, {"type": "note_off", "time": 85, "note": 65, "velocity": 88, "channel": 0}, {"type": "note_on", "time": 1, "note": 68, "velocity": 101, "channel": 0}, {"type": "note_off", "time": 125, "note": 68, "velocity": 101, "channel": 0}, {"type": "note_on", "time": 56, "note": 64, "velocity": 106, "channel": 0}, {"type": "note_off", "time": 220, "note": 64, "velocity": 106, "channel": 0}, {"type": "note_on", "time": 32, "note": 65, "velocity": 107, "channel": 0}, {"type": "note_off", "time": 163, "note": 65, "velocity": 107, "channel": 0}, {"type": "note_on", "time": 53, "note": 69, "velocity": 103, "channel": 0}, {"type": "note_off", "time": 147, "note": 69, "velocity": 103, "channel": 0}, {"type": "note_on", "time": 24, "note": 73, "velocity": 98, "channel": 0}, {"type": "note_off", "time": 194, "note": 73, "velocity": 98, "channel": 0}, {"type": "note_on", "time": 8, "note": 76, "velocity": 115, "channel": 0}, {"type": "note_off", "time": 159, "note": 76, "velocity": 115, "channel": 0}, {"type": "note_on", "time": 81, "note": 73, "velocity": 104, "channel": 0}, {"type": "note_off", "time": 138, "note": 73, "velocity": 104, "channel": 0}, {"type": "note_on", "time": 47, "note": 76, "velocity": 112, "channel": 0}, {"type": "note_off", "time": 172, "note": 76, "velocity": 112, "channel": 0}, {"type": "note_on", "time": 38, "note": 79, "velocity": 111, "channel": 0}, {"type": "note_off", "time": 168, "note": 79, "velocity": 111, "channel": 0}, {"type": "note_on", "time": 51, "note": 76, "velocity": 115, "channel": 0}, {"type": "note_off", "time": 207, "note": 76, "velocity": 115, "channel": 0}, {"type": "note_on", "time": 12, "note": 77, "velocity": 108, "channel": 0}, {"type": "note_off", "time": 120, "note": 77, "velocity": 108, "channel": 0}, {"type": "note_on", "time": 30, "note": 78, "velocity": 109, "channel": 0}, {"type": "note_off", "time": 220, "note": 78, "velocity": 109, "channel": 0}, {"type": "note_on", "time": 71, "note": 80, "velocity": 105, "channel": 0}, {"type": "note_off", "time": 582, "note": 80, "velocity": 105, "channel": 0}, {"type": "note_on", "time": 36, "note": 79, "velocity": 110, "channel": 0}, {"type": "note_off", "time": 142, "note": 79, "velocity": 110, "channel": 0}, {"type": "note_on", "time": 38, "note": 78, "velocity": 105, "channel": 0}, {"type": "note_off", "time": 159, "note": 78, "velocity": 105, "channel": 0}, {"type": "note_on", "time": 48, "note": 77, "velocity": 110, "channel": 0}, {"type": "note_off", "time": 168, "note": 77, "velocity": 110, "channel": 0}, {"type": "note_on", "time": 37, "note": 76, "velocity": 112, "channel": 0}, {"type": "note_off", "time": 150, "note": 76, "velocity": 112, "channel": 0}, {"type": "note_on", "time": 0, "note": 75, "velocity": 107, "channel": 0}, {"type": "note_off", "time": 181, "note": 75, "velocity": 107, "channel": 0}, {"type": "note_on", "time": 43, "note": 78, "velocity": 83, "channel": 0}, {"type": "note_off", "time": 99, "note": 78, "velocity": 83, "channel": 0}, {"type": "note_on", "time": 30, "note": 79, "velocity": 109, "channel": 0}, {"type": "note_off", "time": 129, "note": 79, "velocity": 109, "channel": 0}, {"type": "note_on", "time": 47, "note": 74, "velocity": 101, "channel": 0}, {"type": "note_off", "time": 228, "note": 74, "velocity": 101, "channel": 0}, {"type": "note_on", "time": 38, "note": 76, "velocity": 105, "channel": 0}, {"type": "note_off", "time": 159, "note": 76, "velocity": 105, "channel": 0}, {"type": "note_on", "time": 17, "note": 77, "velocity": 113, "channel": 0}, {"type": "note_off", "time": 185, "note": 77, "velocity": 113, "channel": 0}, {"type": "note_on", "time": 64, "note": 73, "velocity": 98, "channel": 0}, {"type": "note_off", "time": 116, "note": 73, "velocity": 98, "channel": 0}, {"type": "note_on", "time": 47, "note": 75, "velocity": 107, "channel": 0}, {"type": "note_off", "time": 211, "note": 75, "velocity": 107, "channel": 0}, {"type": "note_on", "time": 99, "note": 71, "velocity": 98, "channel": 0}, {"type": "note_off", "time": 155, "note": 71, "velocity": 98, "channel": 0}, {"type": "note_on", "time": 81, "note": 66, "velocity": 92, "channel": 0}, {"type": "note_off", "time": 133, "note": 66, "velocity": 92, "channel": 0}, {"type": "note_on", "time": 34, "note": 63, "velocity": 92, "channel": 0}, {"type": "note_off", "time": 90, "note": 63, "velocity": 92, "channel": 0}, {"type": "note_on", "time": 86, "note": 71, "velocity": 98, "channel": 0}, {"type": "note_off", "time": 202, "note": 71, "velocity": 98, "channel": 0}, {"type": "note_on", "time": 21, "note": 63, "velocity": 92, "channel": 0}, {"type": "note_off", "time": 99, "note": 63, "velocity": 92, "channel": 0}, {"type": "note_on", "time": 86, "note": 66, "velocity": 99, "channel": 0}, {"type": "note_off", "time": 129, "note": 66, "velocity": 99, "channel": 0}, {"type": "note_on", "time": 47, "note": 71, "velocity": 96, "channel": 0}, {"type": "note_off", "time": 151, "note": 71, "velocity": 96, "channel": 0}, {"type": "note_on", "time": 47, "note": 68, "velocity": 102, "channel": 0}, {"type": "note_off", "time": 168, "note": 68, "velocity": 102, "channel": 0}, {"type": "note_on", "time": 56, "note": 64, "velocity": 96, "channel": 0}, {"type": "note_off", "time": 138, "note": 64, "velocity": 96, "channel": 0}, {"type": "note_on", "time": 60, "note": 67, "velocity": 106, "channel": 0}, {"type": "note_off", "time": 151, "note": 67, "velocity": 106, "channel": 0}, {"type": "note_on", "time": 74, "note": 66, "velocity": 106, "channel": 0}, {"type": "note_off", "time": 141, "note": 66, "velocity": 106, "channel": 0}, {"type": "note_on", "time": 67, "note": 65, "velocity": 107, "channel": 0}, {"type": "note_off", "time": 144, "note": 65, "velocity": 107, "channel": 0}, {"type": "note_on", "time": 42, "note": 64, "velocity": 106, "channel": 0}, {"type": "note_off", "time": 138, "note": 64, "velocity": 106, "channel": 0}, {"type": "note_on", "time": 6, "note": 63, "velocity": 101, "channel": 0}, {"type": "note_off", "time": 168, "note": 63, "velocity": 101, "channel": 0}, {"type": "note_on", "time": 84, "note": 67, "velocity": 100, "channel": 0}, {"type": "note_off", "time": 142, "note": 67, "velocity": 100, "channel": 0}, {"type": "note_on", "time": 90, "note": 64, "velocity": 105, "channel": 0}, {"type": "note_off", "time": 172, "note": 64, "velocity": 105, "channel": 0}, {"type": "note_on", "time": 30, "note": 65, "velocity": 104, "channel": 0}, {"type": "note_off", "time": 176, "note": 65, "velocity": 104, "channel": 0}, {"type": "note_on", "time": 4, "note": 67, "velocity": 103, "channel": 0}, {"type": "note_off", "time": 69, "note": 67, "velocity": 103, "channel": 0}, {"type": "note_on", "time": 25, "note": 68, "velocity": 100, "channel": 0}, {"type": "note_on", "time": 159, "note": 71, "velocity": 96, "channel": 0}, {"type": "note_off", "time": 0, "note": 68, "velocity": 100, "channel": 0}, {"type": "note_off", "time": 181, "note": 71, "velocity": 96, "channel": 0}, {"type": "note_on", "time": 4, "note": 73, "velocity": 101, "channel": 0}, {"type": "note_off", "time": 185, "note": 73, "velocity": 101, "channel": 0}, {"type": "note_on", "time": 34, "note": 75, "velocity": 100, "channel": 0}, {"type": "note_off", "time": 125, "note": 75, "velocity": 100, "channel": 0}, {"type": "note_on", "time": 25, "note": 78, "velocity": 108, "channel": 0}, {"type": "note_off", "time": 202, "note": 78, "velocity": 108, "channel": 0}, {"type": "note_on", "time": 69, "note": 73, "velocity": 97, "channel": 0}, {"type": "note_off", "time": 112, "note": 73, "velocity": 97, "channel": 0}, {"type": "note_on", "time": 77, "note": 76, "velocity": 113, "channel": 0}, {"type": "note_off", "time": 189, "note": 76, "velocity": 113, "channel": 0}, {"type": "note_on", "time": 77, "note": 74, "velocity": 102, "channel": 0}, {"type": "note_off", "time": 112, "note": 74, "velocity": 102, "channel": 0}, {"type": "note_on", "time": 47, "note": 70, "velocity": 102, "channel": 0}, {"type": "note_off", "time": 168, "note": 70, "velocity": 102, "channel": 0}, {"type": "note_on", "time": 47, "note": 67, "velocity": 92, "channel": 0}, {"type": "note_off", "time": 155, "note": 67, "velocity": 92, "channel": 0}, {"type": "note_on", "time": 38, "note": 76, "velocity": 109, "channel": 0}, {"type": "note_off", "time": 232, "note": 76, "velocity": 109, "channel": 0}, {"type": "note_on", "time": 38, "note": 74, "velocity": 90, "channel": 0}, {"type": "note_off", "time": 73, "note": 74, "velocity": 90, "channel": 0}, {"type": "note_on", "time": 56, "note": 73, "velocity": 96, "channel": 0}, {"type": "note_off", "time": 73, "note": 73, "velocity": 96, "channel": 0}, {"type": "note_on", "time": 81, "note": 69, "velocity": 103, "channel": 0}, {"type": "note_off", "time": 263, "note": 69, "velocity": 103, "channel": 0}, {"type": "note_on", "time": 99, "note": 73, "velocity": 107, "channel": 0}, {"type": "note_off", "time": 427, "note": 73, "velocity": 107, "channel": 0}, {"type": "note_on", "time": 25, "note": 75, "velocity": 106, "channel": 0}, {"type": "note_off", "time": 194, "note": 75, "velocity": 106, "channel": 0}, {"type": "note_on", "time": 86, "note": 77, "velocity": 112, "channel": 0}, {"type": "note_off", "time": 422, "note": 77, "velocity": 112, "channel": 0}, {"type": "note_on", "time": 86, "note": 75, "velocity": 104, "channel": 0}, {"type": "note_off", "time": 215, "note": 75, "velocity": 104, "channel": 0}, {"type": "note_on", "time": 129, "note": 76, "velocity": 110, "channel": 0}, {"type": "note_off", "time": 358, "note": 76, "velocity": 110, "channel": 0}, {"type": "note_on", "time": 51, "note": 80, "velocity": 100, "channel": 0}, {"type": "note_off", "time": 73, "note": 80, "velocity": 100, "channel": 0}, {"type": "note_on", "time": 21, "note": 81, "velocity": 91, "channel": 0}, {"type": "note_off", "time": 120, "note": 81, "velocity": 91, "channel": 0}, {"type": "note_on", "time": 133, "note": 78, "velocity": 105, "channel": 0}, {"type": "note_off", "time": 155, "note": 78, "velocity": 105, "channel": 0}, {"type": "note_on", "time": 241, "note": 78, "velocity": 103, "channel": 0}, {"type": "note_off", "time": 163, "note": 78, "velocity": 103, "channel": 0}, {"type": "note_on", "time": 80, "note": 73, "velocity": 95, "channel": 0}, {"type": "note_off", "time": 367, "note": 73, "velocity": 95, "channel": 0}, {"type": "note_on", "time": 0, "note": 77, "velocity": 109, "channel": 0}, {"type": "note_off", "time": 245, "note": 77, "velocity": 109, "channel": 0}, {"type": "note_on", "time": 133, "note": 72, "velocity": 105, "channel": 0}, {"type": "note_off", "time": 176, "note": 72, "velocity": 105, "channel": 0}, {"type": "note_on", "time": 276, "note": 76, "velocity": 107, "channel": 0}, {"type": "note_off", "time": 302, "note": 76, "velocity": 107, "channel": 0}, {"type": "note_on", "time": 103, "note": 69, "velocity": 93, "channel": 0}, {"type": "note_off", "time": 189, "note": 69, "velocity": 93, "channel": 0}, {"type": "note_on", "time": 336, "note": 75, "velocity": 108, "channel": 0}, {"type": "note_off", "time": 241, "note": 75, "velocity": 108, "channel": 0}, {"type": "note_on", "time": 539, "note": 74, "velocity": 98, "channel": 0}, {"type": "note_off", "time": 293, "note": 74, "velocity": 98, "channel": 0}, {"type": "note_on", "time": 543, "note": 73, "velocity": 96, "channel": 0}, {"type": "note_off", "time": 435, "note": 73, "velocity": 96, "channel": 0}, {"type": "note_on", "time": 1553, "note": 73, "velocity": 114, "channel": 0}, {"type": "note_off", "time": 198, "note": 73, "velocity": 114, "channel": 0}, {"type": "note_on", "time": 56, "note": 75, "velocity": 111, "channel": 0}, {"type": "note_off", "time": 86, "note": 75, "velocity": 111, "channel": 0}, {"type": "note_on", "time": 43, "note": 77, "velocity": 117, "channel": 0}, {"type": "note_off", "time": 146, "note": 77, "velocity": 117, "channel": 0}, {"type": "note_on", "time": 56, "note": 73, "velocity": 109, "channel": 0}, {"type": "note_off", "time": 228, "note": 73, "velocity": 109, "channel": 0}, {"type": "note_on", "time": 1587, "note": 61, "velocity": 115, "channel": 0}, {"type": "note_off", "time": 174, "note": 61, "velocity": 115, "channel": 0}, {"type": "note_on", "time": 24, "note": 63, "velocity": 114, "channel": 0}, {"type": "note_off", "time": 147, "note": 63, "velocity": 114, "channel": 0}, {"type": "note_on", "time": 46, "note": 66, "velocity": 116, "channel": 0}, {"type": "note_off", "time": 82, "note": 66, "velocity": 116, "channel": 0}, {"type": "note_on", "time": 36, "note": 65, "velocity": 120, "channel": 0}, {"type": "note_off", "time": 156, "note": 65, "velocity": 120, "channel": 0}, {"type": "note_on", "time": 30, "note": 64, "velocity": 114, "channel": 0}, {"type": "note_off", "time": 141, "note": 64, "velocity": 114, "channel": 0}, {"type": "note_on", "time": 36, "note": 63, "velocity": 115, "channel": 0}, {"type": "note_off", "time": 174, "note": 63, "velocity": 115, "channel": 0}, {"type": "note_on", "time": 24, "note": 67, "velocity": 110, "channel": 0}, {"type": "note_off", "time": 177, "note": 67, "velocity": 110, "channel": 0}, {"type": "note_on", "time": 52, "note": 61, "velocity": 112, "channel": 0}, {"type": "note_off", "time": 171, "note": 61, "velocity": 112, "channel": 0}, {"type": "note_on", "time": 33, "note": 65, "velocity": 116, "channel": 0}, {"type": "note_off", "time": 174, "note": 65, "velocity": 116, "channel": 0}, {"type": "note_on", "time": 70, "note": 69, "velocity": 106, "channel": 0}, {"type": "note_off", "time": 150, "note": 69, "velocity": 106, "channel": 0}, {"type": "note_on", "time": 39, "note": 72, "velocity": 116, "channel": 0}, {"type": "note_off", "time": 282, "note": 72, "velocity": 116, "channel": 0}, {"type": "note_on", "time": 15, "note": 73, "velocity": 115, "channel": 0}, {"type": "note_off", "time": 389, "note": 73, "velocity": 115, "channel": 0}, {"type": "note_on", "time": 30, "note": 77, "velocity": 116, "channel": 0}, {"type": "note_off", "time": 355, "note": 77, "velocity": 116, "channel": 0}, {"type": "note_on", "time": 42, "note": 81, "velocity": 113, "channel": 0}, {"type": "note_off", "time": 352, "note": 81, "velocity": 113, "channel": 0}, {"type": "note_on", "time": 116, "note": 83, "velocity": 104, "channel": 0}, {"type": "note_off", "time": 349, "note": 83, "velocity": 104, "channel": 0}, {"type": "note_on", "time": 18, "note": 84, "velocity": 109, "channel": 0}, {"type": "note_off", "time": 426, "note": 84, "velocity": 109, "channel": 0}, {"type": "note_on", "time": 18, "note": 83, "velocity": 99, "channel": 0}, {"type": "note_off", "time": 315, "note": 83, "velocity": 99, "channel": 0}, {"type": "note_on", "time": 92, "note": 81, "velocity": 110, "channel": 0}, {"type": "note_off", "time": 202, "note": 81, "velocity": 110, "channel": 0}, {"type": "note_on", "time": 27, "note": 80, "velocity": 102, "channel": 0}, {"type": "note_off", "time": 165, "note": 80, "velocity": 102, "channel": 0}, {"type": "note_on", "time": 92, "note": 77, "velocity": 113, "channel": 0}, {"type": "note_off", "time": 177, "note": 77, "velocity": 113, "channel": 0}, {"type": "note_on", "time": 64, "note": 73, "velocity": 104, "channel": 0}, {"type": "note_off", "time": 138, "note": 73, "velocity": 104, "channel": 0}, {"type": "note_on", "time": 107, "note": 78, "velocity": 109, "channel": 0}, {"type": "note_off", "time": 110, "note": 78, "velocity": 109, "channel": 0}, {"type": "note_on", "time": 0, "note": 79, "velocity": 109, "channel": 0}, {"type": "note_off", "time": 138, "note": 79, "velocity": 109, "channel": 0}, {"type": "note_on", "time": 9, "note": 81, "velocity": 110, "channel": 0}, {"type": "note_off", "time": 202, "note": 81, "velocity": 110, "channel": 0}, {"type": "note_on", "time": 79, "note": 77, "velocity": 115, "channel": 0}, {"type": "note_off", "time": 217, "note": 77, "velocity": 115, "channel": 0}, {"type": "note_on", "time": 76, "note": 73, "velocity": 104, "channel": 0}, {"type": "note_off", "time": 156, "note": 73, "velocity": 104, "channel": 0}, {"type": "note_on", "time": 21, "note": 75, "velocity": 107, "channel": 0}, {"type": "note_off", "time": 328, "note": 75, "velocity": 107, "channel": 0}, {"type": "note_on", "time": 67, "note": 74, "velocity": 107, "channel": 0}, {"type": "note_off", "time": 214, "note": 74, "velocity": 107, "channel": 0}, {"type": "note_on", "time": 55, "note": 71, "velocity": 103, "channel": 0}, {"type": "note_off", "time": 227, "note": 71, "velocity": 103, "channel": 0}, {"type": "note_on", "time": 33, "note": 65, "velocity": 107, "channel": 0}, {"type": "note_off", "time": 205, "note": 65, "velocity": 107, "channel": 0}, {"type": "note_on", "time": 52, "note": 62, "velocity": 106, "channel": 0}, {"type": "note_off", "time": 187, "note": 62, "velocity": 106, "channel": 0}, {"type": "note_on", "time": 82, "note": 70, "velocity": 102, "channel": 0}, {"type": "note_off", "time": 211, "note": 70, "velocity": 102, "channel": 0}, {"type": "note_on", "time": 15, "note": 72, "velocity": 115, "channel": 0}, {"type": "note_off", "time": 239, "note": 72, "velocity": 115, "channel": 0}, {"type": "note_on", "time": 24, "note": 73, "velocity": 112, "channel": 0}, {"type": "note_off", "time": 217, "note": 73, "velocity": 112, "channel": 0}, {"type": "note_on", "time": 95, "note": 75, "velocity": 116, "channel": 0}, {"type": "note_off", "time": 285, "note": 75, "velocity": 116, "channel": 0}, {"type": "note_on", "time": 30, "note": 76, "velocity": 116, "channel": 0}, {"type": "note_off", "time": 297, "note": 76, "velocity": 116, "channel": 0}, {"type": "note_on", "time": 36, "note": 78, "velocity": 111, "channel": 0}, {"type": "note_off", "time": 251, "note": 78, "velocity": 111, "channel": 0}, {"type": "note_on", "time": 55, "note": 76, "velocity": 111, "channel": 0}, {"type": "note_off", "time": 279, "note": 76, "velocity": 111, "channel": 0}, {"type": "note_on", "time": 61, "note": 70, "velocity": 103, "channel": 0}, {"type": "note_off", "time": 223, "note": 70, "velocity": 103, "channel": 0}, {"type": "note_on", "time": 67, "note": 65, "velocity": 111, "channel": 0}, {"type": "note_off", "time": 144, "note": 65, "velocity": 111, "channel": 0}, {"type": "note_on", "time": 64, "note": 64, "velocity": 112, "channel": 0}, {"type": "note_off", "time": 227, "note": 64, "velocity": 112, "channel": 0}, {"type": "note_on", "time": 18, "note": 70, "velocity": 104, "channel": 0}, {"type": "note_off", "time": 181, "note": 70, "velocity": 104, "channel": 0}, {"type": "note_on", "time": 49, "note": 65, "velocity": 112, "channel": 0}, {"type": "note_off", "time": 190, "note": 65, "velocity": 112, "channel": 0}, {"type": "note_on", "time": 42, "note": 61, "velocity": 109, "channel": 0}, {"type": "note_off", "time": 236, "note": 61, "velocity": 109, "channel": 0}, {"type": "note_on", "time": 27, "note": 63, "velocity": 112, "channel": 0}, {"type": "note_off", "time": 745, "note": 63, "velocity": 112, "channel": 0}, {"type": "note_on", "time": 84, "note": 56, "velocity": 94, "channel": 0}, {"type": "note_off", "time": 1950, "note": 56, "velocity": 94, "channel": 0}, {"type": "note_on", "time": 526, "note": 60, "velocity": 102, "channel": 0}, {"type": "note_off", "time": 153, "note": 60, "velocity": 102, "channel": 0}, {"type": "note_on", "time": 54, "note": 65, "velocity": 110, "channel": 0}, {"type": "note_off", "time": 81, "note": 65, "velocity": 110, "channel": 0}, {"type": "note_on", "time": 10, "note": 68, "velocity": 110, "channel": 0}, {"type": "note_off", "time": 47, "note": 68, "velocity": 110, "channel": 0}, {"type": "note_on", "time": 9, "note": 70, "velocity": 108, "channel": 0}, {"type": "note_off", "time": 58, "note": 70, "velocity": 108, "channel": 0}, {"type": "note_on", "time": 12, "note": 73, "velocity": 115, "channel": 0}, {"type": "note_off", "time": 70, "note": 73, "velocity": 115, "channel": 0}, {"type": "note_on", "time": 9, "note": 76, "velocity": 121, "channel": 0}, {"type": "note_off", "time": 73, "note": 76, "velocity": 121, "channel": 0}, {"type": "note_on", "time": 81, "note": 79, "velocity": 111, "channel": 0}, {"type": "note_off", "time": 199, "note": 79, "velocity": 111, "channel": 0}, {"type": "note_on", "time": 21, "note": 77, "velocity": 111, "channel": 0}, {"type": "note_off", "time": 107, "note": 77, "velocity": 111, "channel": 0}, {"type": "note_on", "time": 53, "note": 73, "velocity": 104, "channel": 0}, {"type": "note_off", "time": 113, "note": 73, "velocity": 104, "channel": 0}, {"type": "note_on", "time": 39, "note": 67, "velocity": 105, "channel": 0}, {"type": "note_off", "time": 50, "note": 67, "velocity": 105, "channel": 0}, {"type": "note_on", "time": 13, "note": 66, "velocity": 104, "channel": 0}, {"type": "note_off", "time": 85, "note": 66, "velocity": 104, "channel": 0}, {"type": "note_on", "time": 12, "note": 65, "velocity": 108, "channel": 0}, {"type": "note_off", "time": 42, "note": 65, "velocity": 108, "channel": 0}, {"type": "note_on", "time": 27, "note": 64, "velocity": 104, "channel": 0}, {"type": "note_off", "time": 81, "note": 64, "velocity": 104, "channel": 0}, {"type": "note_on", "time": 41, "note": 62, "velocity": 106, "channel": 0}, {"type": "note_off", "time": 105, "note": 62, "velocity": 106, "channel": 0}, {"type": "note_on", "time": 19, "note": 59, "velocity": 99, "channel": 0}, {"type": "note_off", "time": 251, "note": 59, "velocity": 99, "channel": 0}, {"type": "note_on", "time": 26, "note": 60, "velocity": 113, "channel": 0}, {"type": "note_off", "time": 71, "note": 60, "velocity": 113, "channel": 0}, {"type": "note_on", "time": 25, "note": 64, "velocity": 119, "channel": 0}, {"type": "note_off", "time": 112, "note": 64, "velocity": 119, "channel": 0}, {"type": "note_on", "time": 62, "note": 70, "velocity": 109, "channel": 0}, {"type": "note_off", "time": 97, "note": 70, "velocity": 109, "channel": 0}, {"type": "note_on", "time": 38, "note": 73, "velocity": 112, "channel": 0}, {"type": "note_off", "time": 122, "note": 73, "velocity": 112, "channel": 0}, {"type": "note_on", "time": 17, "note": 75, "velocity": 118, "channel": 0}, {"type": "note_off", "time": 112, "note": 75, "velocity": 118, "channel": 0}, {"type": "note_on", "time": 12, "note": 76, "velocity": 108, "channel": 0}, {"type": "note_off", "time": 53, "note": 76, "velocity": 108, "channel": 0}, {"type": "note_on", "time": 23, "note": 79, "velocity": 114, "channel": 0}, {"type": "note_off", "time": 79, "note": 79, "velocity": 114, "channel": 0}, {"type": "note_on", "time": 4, "note": 82, "velocity": 103, "channel": 0}, {"type": "note_off", "time": 99, "note": 82, "velocity": 103, "channel": 0}, {"type": "note_on", "time": 10, "note": 79, "velocity": 104, "channel": 0}, {"type": "note_on", "time": 107, "note": 77, "velocity": 107, "channel": 0}, {"type": "note_off", "time": 0, "note": 79, "velocity": 104, "channel": 0}, {"type": "note_off", "time": 62, "note": 77, "velocity": 107, "channel": 0}, {"type": "note_on", "time": 0, "note": 74, "velocity": 103, "channel": 0}, {"type": "note_off", "time": 66, "note": 74, "velocity": 103, "channel": 0}, {"type": "note_on", "time": 25, "note": 72, "velocity": 104, "channel": 0}, {"type": "note_off", "time": 110, "note": 72, "velocity": 104, "channel": 0}, {"type": "note_on", "time": 25, "note": 69, "velocity": 100, "channel": 0}, {"type": "note_off", "time": 114, "note": 69, "velocity": 100, "channel": 0}, {"type": "note_on", "time": 25, "note": 64, "velocity": 99, "channel": 0}, {"type": "note_off", "time": 79, "note": 64, "velocity": 99, "channel": 0}, {"type": "note_on", "time": 49, "note": 60, "velocity": 101, "channel": 0}, {"type": "note_off", "time": 155, "note": 60, "velocity": 101, "channel": 0}, {"type": "note_on", "time": 51, "note": 63, "velocity": 106, "channel": 0}, {"type": "note_off", "time": 174, "note": 63, "velocity": 106, "channel": 0}, {"type": "note_on", "time": 10, "note": 65, "velocity": 114, "channel": 0}, {"type": "note_off", "time": 118, "note": 65, "velocity": 114, "channel": 0}, {"type": "note_on", "time": 2, "note": 69, "velocity": 109, "channel": 0}, {"type": "note_off", "time": 43, "note": 69, "velocity": 109, "channel": 0}, {"type": "note_on", "time": 28, "note": 71, "velocity": 107, "channel": 0}, {"type": "note_off", "time": 88, "note": 71, "velocity": 107, "channel": 0}, {"type": "note_on", "time": 2, "note": 74, "velocity": 110, "channel": 0}, {"type": "note_off", "time": 122, "note": 74, "velocity": 110, "channel": 0}, {"type": "note_on", "time": 10, "note": 75, "velocity": 114, "channel": 0}, {"type": "note_off", "time": 105, "note": 75, "velocity": 114, "channel": 0}, {"type": "note_on", "time": 10, "note": 78, "velocity": 107, "channel": 0}, {"type": "note_off", "time": 94, "note": 78, "velocity": 107, "channel": 0}, {"type": "note_on", "time": 12, "note": 81, "velocity": 101, "channel": 0}, {"type": "note_off", "time": 81, "note": 81, "velocity": 101, "channel": 0}, {"type": "note_on", "time": 33, "note": 85, "velocity": 75, "channel": 0}, {"type": "note_off", "time": 322, "note": 85, "velocity": 75, "channel": 0}, {"type": "note_on", "time": 30, "note": 85, "velocity": 81, "channel": 0}, {"type": "note_off", "time": 380, "note": 85, "velocity": 81, "channel": 0}, {"type": "note_on", "time": 33, "note": 79, "velocity": 104, "channel": 0}, {"type": "note_off", "time": 148, "note": 79, "velocity": 104, "channel": 0}, {"type": "note_on", "time": 32, "note": 78, "velocity": 83, "channel": 0}, {"type": "note_off", "time": 133, "note": 78, "velocity": 83, "channel": 0}, {"type": "note_on", "time": 32, "note": 74, "velocity": 107, "channel": 0}, {"type": "note_off", "time": 66, "note": 74, "velocity": 107, "channel": 0}, {"type": "note_on", "time": 15, "note": 73, "velocity": 107, "channel": 0}, {"type": "note_off", "time": 86, "note": 73, "velocity": 107, "channel": 0}, {"type": "note_on", "time": 23, "note": 71, "velocity": 100, "channel": 0}, {"type": "note_off", "time": 75, "note": 71, "velocity": 100, "channel": 0}, {"type": "note_on", "time": 71, "note": 66, "velocity": 103, "channel": 0}, {"type": "note_off", "time": 53, "note": 66, "velocity": 103, "channel": 0}, {"type": "note_on", "time": 18, "note": 64, "velocity": 101, "channel": 0}, {"type": "note_off", "time": 76, "note": 64, "velocity": 101, "channel": 0}, {"type": "note_on", "time": 25, "note": 60, "velocity": 104, "channel": 0}, {"type": "note_off", "time": 148, "note": 60, "velocity": 104, "channel": 0}, {"type": "note_on", "time": 25, "note": 59, "velocity": 101, "channel": 0}, {"type": "note_off", "time": 58, "note": 59, "velocity": 101, "channel": 0}, {"type": "note_on", "time": 8, "note": 58, "velocity": 98, "channel": 0}, {"type": "note_off", "time": 325, "note": 58, "velocity": 98, "channel": 0}, {"type": "note_on", "time": 6540, "note": 72, "velocity": 112, "channel": 0}, {"type": "note_off", "time": 193, "note": 72, "velocity": 112, "channel": 0}, {"type": "note_on", "time": 297, "note": 84, "velocity": 114, "channel": 0}, {"type": "note_off", "time": 506, "note": 84, "velocity": 114, "channel": 0}, {"type": "note_on", "time": 67, "note": 84, "velocity": 112, "channel": 0}, {"type": "note_off", "time": 392, "note": 84, "velocity": 112, "channel": 0}, {"type": "note_on", "time": 141, "note": 84, "velocity": 109, "channel": 0}, {"type": "note_off", "time": 349, "note": 84, "velocity": 109, "channel": 0}, {"type": "note_on", "time": 70, "note": 84, "velocity": 101, "channel": 0}, {"type": "note_off", "time": 760, "note": 84, "velocity": 101, "channel": 0}, {"type": "note_on", "time": 1036, "note": 82, "velocity": 103, "channel": 0}, {"type": "note_off", "time": 193, "note": 82, "velocity": 103, "channel": 0}, {"type": "note_on", "time": 6, "note": 84, "velocity": 99, "channel": 0}, {"type": "note_off", "time": 1849, "note": 84, "velocity": 99, "channel": 0}, {"type": "note_on", "time": 1254, "note": 80, "velocity": 100, "channel": 0}, {"type": "note_off", "time": 168, "note": 80, "velocity": 100, "channel": 0}, {"type": "note_on", "time": 55, "note": 82, "velocity": 98, "channel": 0}, {"type": "note_off", "time": 233, "note": 82, "velocity": 98, "channel": 0}, {"type": "note_on", "time": 30, "note": 84, "velocity": 106, "channel": 0}, {"type": "note_off", "time": 530, "note": 84, "velocity": 106, "channel": 0}, {"type": "note_on", "time": 125, "note": 84, "velocity": 111, "channel": 0}, {"type": "note_off", "time": 297, "note": 84, "velocity": 111, "channel": 0}, {"type": "note_on", "time": 70, "note": 84, "velocity": 9, "channel": 0}, {"type": "note_off", "time": 325, "note": 84, "velocity": 9, "channel": 0}, {"type": "note_on", "time": 55, "note": 83, "velocity": 9, "channel": 0}, {"type": "note_off", "time": 322, "note": 83, "velocity": 9, "channel": 0}, {"type": "note_on", "time": 61, "note": 82, "velocity": 114, "channel": 0}, {"type": "note_off", "time": 245, "note": 82, "velocity": 114, "channel": 0}, {"type": "note_on", "time": 12, "note": 81, "velocity": 113, "channel": 0}, {"type": "note_off", "time": 184, "note": 81, "velocity": 113, "channel": 0}, {"type": "note_on", "time": 52, "note": 78, "velocity": 113, "channel": 0}, {"type": "note_off", "time": 162, "note": 78, "velocity": 113, "channel": 0}, {"type": "note_on", "time": 52, "note": 73, "velocity": 109, "channel": 0}, {"type": "note_off", "time": 184, "note": 73, "velocity": 109, "channel": 0}, {"type": "note_on", "time": 52, "note": 76, "velocity": 106, "channel": 0}, {"type": "note_off", "time": 73, "note": 76, "velocity": 106, "channel": 0}, {"type": "note_on", "time": 46, "note": 81, "velocity": 111, "channel": 0}, {"type": "note_off", "time": 205, "note": 81, "velocity": 111, "channel": 0}, {"type": "note_on", "time": 58, "note": 80, "velocity": 109, "channel": 0}, {"type": "note_off", "time": 1046, "note": 80, "velocity": 109, "channel": 0}, {"type": "note_on", "time": 24, "note": 79, "velocity": 115, "channel": 0}, {"type": "note_off", "time": 153, "note": 79, "velocity": 115, "channel": 0}, {"type": "note_on", "time": 27, "note": 78, "velocity": 115, "channel": 0}, {"type": "note_off", "time": 159, "note": 78, "velocity": 115, "channel": 0}, {"type": "note_on", "time": 21, "note": 77, "velocity": 117, "channel": 0}, {"type": "note_off", "time": 187, "note": 77, "velocity": 117, "channel": 0}, {"type": "note_on", "time": 58, "note": 76, "velocity": 121, "channel": 0}, {"type": "note_off", "time": 187, "note": 76, "velocity": 121, "channel": 0}, {"type": "note_on", "time": 18, "note": 75, "velocity": 115, "channel": 0}, {"type": "note_off", "time": 174, "note": 75, "velocity": 115, "channel": 0}, {"type": "note_on", "time": 55, "note": 78, "velocity": 91, "channel": 0}, {"type": "note_off", "time": 49, "note": 78, "velocity": 91, "channel": 0}, {"type": "note_on", "time": 33, "note": 83, "velocity": 102, "channel": 0}, {"type": "note_off", "time": 171, "note": 83, "velocity": 102, "channel": 0}, {"type": "note_on", "time": 58, "note": 76, "velocity": 117, "channel": 0}, {"type": "note_off", "time": 208, "note": 76, "velocity": 117, "channel": 0}, {"type": "note_on", "time": 15, "note": 74, "velocity": 109, "channel": 0}, {"type": "note_off", "time": 156, "note": 74, "velocity": 109, "channel": 0}, {"type": "note_on", "time": 18, "note": 75, "velocity": 104, "channel": 0}, {"type": "note_off", "time": 733, "note": 75, "velocity": 104, "channel": 0}, {"type": "note_on", "time": 122, "note": 71, "velocity": 104, "channel": 0}, {"type": "note_off", "time": 196, "note": 71, "velocity": 104, "channel": 0}, {"type": "note_on", "time": 33, "note": 65, "velocity": 112, "channel": 0}, {"type": "note_off", "time": 220, "note": 65, "velocity": 112, "channel": 0}, {"type": "note_on", "time": 55, "note": 62, "velocity": 100, "channel": 0}, {"type": "note_off", "time": 423, "note": 62, "velocity": 100, "channel": 0}, {"type": "note_on", "time": 49, "note": 66, "velocity": 101, "channel": 0}, {"type": "note_off", "time": 92, "note": 66, "velocity": 101, "channel": 0}, {"type": "note_on", "time": 46, "note": 70, "velocity": 101, "channel": 0}, {"type": "note_off", "time": 196, "note": 70, "velocity": 101, "channel": 0}, {"type": "note_on", "time": 33, "note": 61, "velocity": 102, "channel": 0}, {"type": "note_off", "time": 125, "note": 61, "velocity": 102, "channel": 0}, {"type": "note_on", "time": 52, "note": 65, "velocity": 109, "channel": 0}, {"type": "note_off", "time": 134, "note": 65, "velocity": 109, "channel": 0}, {"type": "note_on", "time": 67, "note": 70, "velocity": 104, "channel": 0}, {"type": "note_off", "time": 147, "note": 70, "velocity": 104, "channel": 0}, {"type": "note_on", "time": 36, "note": 68, "velocity": 108, "channel": 0}, {"type": "note_off", "time": 177, "note": 68, "velocity": 108, "channel": 0}, {"type": "note_on", "time": 46, "note": 71, "velocity": 105, "channel": 0}, {"type": "note_off", "time": 150, "note": 71, "velocity": 105, "channel": 0}, {"type": "note_on", "time": 39, "note": 73, "velocity": 106, "channel": 0}, {"type": "note_off", "time": 156, "note": 73, "velocity": 106, "channel": 0}, {"type": "note_on", "time": 46, "note": 74, "velocity": 110, "channel": 0}, {"type": "note_off", "time": 116, "note": 74, "velocity": 110, "channel": 0}, {"type": "note_on", "time": 64, "note": 78, "velocity": 118, "channel": 0}, {"type": "note_off", "time": 248, "note": 78, "velocity": 118, "channel": 0}, {"type": "note_on", "time": 30, "note": 77, "velocity": 106, "channel": 0}, {"type": "note_off", "time": 521, "note": 77, "velocity": 106, "channel": 0}, {"type": "note_on", "time": 12, "note": 75, "velocity": 112, "channel": 0}, {"type": "note_off", "time": 570, "note": 75, "velocity": 112, "channel": 0}, {"type": "note_on", "time": 144, "note": 74, "velocity": 101, "channel": 0}, {"type": "note_off", "time": 147, "note": 74, "velocity": 101, "channel": 0}, {"type": "note_on", "time": 52, "note": 75, "velocity": 112, "channel": 0}, {"type": "note_off", "time": 340, "note": 75, "velocity": 112, "channel": 0}, {"type": "note_on", "time": 52, "note": 77, "velocity": 112, "channel": 0}, {"type": "note_off", "time": 211, "note": 77, "velocity": 112, "channel": 0}, {"type": "note_on", "time": 82, "note": 73, "velocity": 106, "channel": 0}, {"type": "note_off", "time": 607, "note": 73, "velocity": 106, "channel": 0}, {"type": "note_on", "time": 150, "note": 70, "velocity": 98, "channel": 0}, {"type": "note_off", "time": 162, "note": 70, "velocity": 98, "channel": 0}, {"type": "note_on", "time": 27, "note": 69, "velocity": 96, "channel": 0}, {"type": "note_off", "time": 288, "note": 69, "velocity": 96, "channel": 0}, {"type": "note_on", "time": 668, "note": 63, "velocity": 111, "channel": 0}, {"type": "note_off", "time": 171, "note": 63, "velocity": 111, "channel": 0}, {"type": "note_on", "time": 21, "note": 64, "velocity": 110, "channel": 0}, {"type": "note_off", "time": 95, "note": 64, "velocity": 110, "channel": 0}, {"type": "note_on", "time": 36, "note": 67, "velocity": 110, "channel": 0}, {"type": "note_off", "time": 95, "note": 67, "velocity": 110, "channel": 0}, {"type": "note_on", "time": 15, "note": 69, "velocity": 108, "channel": 0}, {"type": "note_off", "time": 101, "note": 69, "velocity": 108, "channel": 0}, {"type": "note_on", "time": 36, "note": 71, "velocity": 111, "channel": 0}, {"type": "note_off", "time": 122, "note": 71, "velocity": 111, "channel": 0}, {"type": "note_on", "time": 6, "note": 72, "velocity": 110, "channel": 0}, {"type": "note_off", "time": 58, "note": 72, "velocity": 110, "channel": 0}, {"type": "note_on", "time": 27, "note": 75, "velocity": 119, "channel": 0}, {"type": "note_off", "time": 101, "note": 75, "velocity": 119, "channel": 0}, {"type": "note_on", "time": 15, "note": 77, "velocity": 116, "channel": 0}, {"type": "note_off", "time": 79, "note": 77, "velocity": 116, "channel": 0}, {"type": "note_on", "time": 18, "note": 80, "velocity": 112, "channel": 0}, {"type": "note_off", "time": 125, "note": 80, "velocity": 112, "channel": 0}, {"type": "note_on", "time": 21, "note": 78, "velocity": 111, "channel": 0}, {"type": "note_off", "time": 98, "note": 78, "velocity": 111, "channel": 0}, {"type": "note_on", "time": 12, "note": 75, "velocity": 112, "channel": 0}, {"type": "note_off", "time": 58, "note": 75, "velocity": 112, "channel": 0}, {"type": "note_on", "time": 24, "note": 73, "velocity": 110, "channel": 0}, {"type": "note_off", "time": 98, "note": 73, "velocity": 110, "channel": 0}, {"type": "note_on", "time": 33, "note": 71, "velocity": 107, "channel": 0}, {"type": "note_off", "time": 92, "note": 71, "velocity": 107, "channel": 0}, {"type": "note_on", "time": 49, "note": 66, "velocity": 117, "channel": 0}, {"type": "note_off", "time": 101, "note": 66, "velocity": 117, "channel": 0}, {"type": "note_on", "time": 39, "note": 61, "velocity": 115, "channel": 0}, {"type": "note_off", "time": 88, "note": 61, "velocity": 115, "channel": 0}, {"type": "note_on", "time": 24, "note": 60, "velocity": 114, "channel": 0}, {"type": "note_off", "time": 113, "note": 60, "velocity": 114, "channel": 0}, {"type": "note_on", "time": 15, "note": 59, "velocity": 114, "channel": 0}, {"type": "note_off", "time": 128, "note": 59, "velocity": 114, "channel": 0}, {"type": "note_on", "time": 76, "note": 58, "velocity": 111, "channel": 0}, {"type": "note_off", "time": 159, "note": 58, "velocity": 111, "channel": 0}, {"type": "note_on", "time": 49, "note": 57, "velocity": 110, "channel": 0}, {"type": "note_off", "time": 300, "note": 57, "velocity": 110, "channel": 0}, {"type": "note_on", "time": 88, "note": 63, "velocity": 112, "channel": 0}, {"type": "note_off", "time": 279, "note": 63, "velocity": 112, "channel": 0}, {"type": "note_on", "time": 70, "note": 72, "velocity": 106, "channel": 0}, {"type": "note_off", "time": 119, "note": 72, "velocity": 106, "channel": 0}, {"type": "note_on", "time": 9, "note": 73, "velocity": 111, "channel": 0}, {"type": "note_off", "time": 138, "note": 73, "velocity": 111, "channel": 0}, {"type": "note_on", "time": 107, "note": 66, "velocity": 97, "channel": 0}, {"type": "note_off", "time": 153, "note": 66, "velocity": 97, "channel": 0}, {"type": "note_on", "time": 55, "note": 69, "velocity": 99, "channel": 0}, {"type": "note_off", "time": 181, "note": 69, "velocity": 99, "channel": 0}, {"type": "note_on", "time": 21, "note": 71, "velocity": 101, "channel": 0}, {"type": "note_off", "time": 79, "note": 71, "velocity": 101, "channel": 0}, {"type": "note_on", "time": 18, "note": 72, "velocity": 112, "channel": 0}, {"type": "note_off", "time": 174, "note": 72, "velocity": 112, "channel": 0}, {"type": "note_on", "time": 18, "note": 74, "velocity": 106, "channel": 0}, {"type": "note_off", "time": 67, "note": 74, "velocity": 106, "channel": 0}, {"type": "note_on", "time": 15, "note": 77, "velocity": 114, "channel": 0}, {"type": "note_off", "time": 98, "note": 77, "velocity": 114, "channel": 0}, {"type": "note_on", "time": 70, "note": 84, "velocity": 91, "channel": 0}, {"type": "note_off", "time": 64, "note": 84, "velocity": 91, "channel": 0}, {"type": "note_on", "time": 27, "note": 86, "velocity": 97, "channel": 0}, {"type": "note_off", "time": 162, "note": 86, "velocity": 97, "channel": 0}, {"type": "note_on", "time": 6, "note": 85, "velocity": 97, "channel": 0}, {"type": "note_off", "time": 92, "note": 85, "velocity": 97, "channel": 0}, {"type": "note_on", "time": 39, "note": 83, "velocity": 99, "channel": 0}, {"type": "note_off", "time": 85, "note": 83, "velocity": 99, "channel": 0}, {"type": "note_on", "time": 27, "note": 81, "velocity": 93, "channel": 0}, {"type": "note_off", "time": 55, "note": 81, "velocity": 93, "channel": 0}, {"type": "note_on", "time": 33, "note": 77, "velocity": 114, "channel": 0}, {"type": "note_off", "time": 119, "note": 77, "velocity": 114, "channel": 0}, {"type": "note_on", "time": 42, "note": 73, "velocity": 113, "channel": 0}, {"type": "note_off", "time": 125, "note": 73, "velocity": 113, "channel": 0}, {"type": "note_on", "time": 36, "note": 70, "velocity": 103, "channel": 0}, {"type": "note_off", "time": 116, "note": 70, "velocity": 103, "channel": 0}, {"type": "note_on", "time": 58, "note": 60, "velocity": 111, "channel": 0}, {"type": "note_off", "time": 199, "note": 60, "velocity": 111, "channel": 0}, {"type": "note_on", "time": 33, "note": 61, "velocity": 111, "channel": 0}, {"type": "note_off", "time": 426, "note": 61, "velocity": 111, "channel": 0}, {"type": "note_on", "time": 1610, "note": 77, "velocity": 122, "channel": 0}, {"type": "note_off", "time": 220, "note": 77, "velocity": 122, "channel": 0}, {"type": "note_on", "time": 208, "note": 82, "velocity": 112, "channel": 0}, {"type": "note_off", "time": 202, "note": 82, "velocity": 112, "channel": 0}, {"type": "note_on", "time": 95, "note": 77, "velocity": 106, "channel": 0}, {"type": "note_off", "time": 138, "note": 77, "velocity": 106, "channel": 0}, {"type": "note_on", "time": 24, "note": 81, "velocity": 104, "channel": 0}, {"type": "note_off", "time": 125, "note": 81, "velocity": 104, "channel": 0}, {"type": "note_on", "time": 24, "note": 82, "velocity": 108, "channel": 0}, {"type": "note_off", "time": 162, "note": 82, "velocity": 108, "channel": 0}, {"type": "note_on", "time": 27, "note": 85, "velocity": 91, "channel": 0}, {"type": "note_off", "time": 1012, "note": 85, "velocity": 91, "channel": 0}, {"type": "note_on", "time": 331, "note": 80, "velocity": 111, "channel": 0}, {"type": "note_off", "time": 190, "note": 80, "velocity": 111, "channel": 0}, {"type": "note_on", "time": 131, "note": 80, "velocity": 93, "channel": 0}, {"type": "note_off", "time": 165, "note": 80, "velocity": 93, "channel": 0}, {"type": "note_on", "time": 46, "note": 83, "velocity": 107, "channel": 0}, {"type": "note_off", "time": 177, "note": 83, "velocity": 107, "channel": 0}, {"type": "note_on", "time": 46, "note": 82, "velocity": 112, "channel": 0}, {"type": "note_off", "time": 266, "note": 82, "velocity": 112, "channel": 0}, {"type": "note_on", "time": 128, "note": 70, "velocity": 112, "channel": 0}, {"type": "note_off", "time": 601, "note": 70, "velocity": 112, "channel": 0}, {"type": "note_on", "time": 98, "note": 59, "velocity": 114, "channel": 0}, {"type": "note_off", "time": 497, "note": 59, "velocity": 114, "channel": 0}, {"type": "note_on", "time": 55, "note": 60, "velocity": 115, "channel": 0}, {"type": "note_off", "time": 331, "note": 60, "velocity": 115, "channel": 0}, {"type": "note_on", "time": 27, "note": 61, "velocity": 119, "channel": 0}, {"type": "note_off", "time": 331, "note": 61, "velocity": 119, "channel": 0}, {"type": "note_on", "time": 36, "note": 65, "velocity": 121, "channel": 0}, {"type": "note_off", "time": 343, "note": 65, "velocity": 121, "channel": 0}, {"type": "note_on", "time": 55, "note": 66, "velocity": 116, "channel": 0}, {"type": "note_off", "time": 334, "note": 66, "velocity": 116, "channel": 0}, {"type": "note_on", "time": 70, "note": 69, "velocity": 114, "channel": 0}, {"type": "note_off", "time": 371, "note": 69, "velocity": 114, "channel": 0}, {"type": "note_on", "time": 61, "note": 70, "velocity": 110, "channel": 0}, {"type": "note_off", "time": 273, "note": 70, "velocity": 110, "channel": 0}, {"type": "note_on", "time": 36, "note": 72, "velocity": 113, "channel": 0}, {"type": "note_off", "time": 162, "note": 72, "velocity": 113, "channel": 0}, {"type": "note_on", "time": 33, "note": 73, "velocity": 116, "channel": 0}, {"type": "note_off", "time": 193, "note": 73, "velocity": 116, "channel": 0}, {"type": "note_on", "time": 21, "note": 75, "velocity": 106, "channel": 0}, {"type": "note_off", "time": 165, "note": 75, "velocity": 106, "channel": 0}, {"type": "note_on", "time": 33, "note": 78, "velocity": 117, "channel": 0}, {"type": "note_off", "time": 184, "note": 78, "velocity": 117, "channel": 0}, {"type": "note_on", "time": 24, "note": 73, "velocity": 106, "channel": 0}, {"type": "note_off", "time": 144, "note": 73, "velocity": 106, "channel": 0}, {"type": "note_on", "time": 39, "note": 75, "velocity": 108, "channel": 0}, {"type": "note_off", "time": 150, "note": 75, "velocity": 108, "channel": 0}, {"type": "note_on", "time": 46, "note": 70, "velocity": 107, "channel": 0}, {"type": "note_off", "time": 190, "note": 70, "velocity": 107, "channel": 0}, {"type": "note_on", "time": 49, "note": 66, "velocity": 111, "channel": 0}, {"type": "note_off", "time": 144, "note": 66, "velocity": 111, "channel": 0}, {"type": "note_on", "time": 36, "note": 63, "velocity": 110, "channel": 0}, {"type": "note_off", "time": 184, "note": 63, "velocity": 110, "channel": 0}, {"type": "note_on", "time": 58, "note": 60, "velocity": 106, "channel": 0}, {"type": "note_off", "time": 76, "note": 60, "velocity": 106, "channel": 0}, {"type": "note_on", "time": 24, "note": 61, "velocity": 108, "channel": 0}, {"type": "note_off", "time": 85, "note": 61, "velocity": 108, "channel": 0}, {"type": "note_on", "time": 46, "note": 62, "velocity": 108, "channel": 0}, {"type": "note_off", "time": 150, "note": 62, "velocity": 108, "channel": 0}, {"type": "note_on", "time": 18, "note": 67, "velocity": 104, "channel": 0}, {"type": "note_off", "time": 187, "note": 67, "velocity": 104, "channel": 0}, {"type": "note_on", "time": 36, "note": 68, "velocity": 104, "channel": 0}, {"type": "note_off", "time": 763, "note": 68, "velocity": 104, "channel": 0}, {"type": "note_on", "time": 30, "note": 70, "velocity": 103, "channel": 0}, {"type": "note_off", "time": 119, "note": 70, "velocity": 103, "channel": 0}, {"type": "note_on", "time": 58, "note": 73, "velocity": 108, "channel": 0}, {"type": "note_off", "time": 110, "note": 73, "velocity": 108, "channel": 0}, {"type": "note_on", "time": 15, "note": 75, "velocity": 110, "channel": 0}, {"type": "note_off", "time": 58, "note": 75, "velocity": 110, "channel": 0}, {"type": "note_on", "time": 42, "note": 77, "velocity": 114, "channel": 0}, {"type": "note_off", "time": 150, "note": 77, "velocity": 114, "channel": 0}, {"type": "note_on", "time": 30, "note": 76, "velocity": 113, "channel": 0}, {"type": "note_off", "time": 98, "note": 76, "velocity": 113, "channel": 0}, {"type": "note_on", "time": 82, "note": 74, "velocity": 107, "channel": 0}, {"type": "note_off", "time": 150, "note": 74, "velocity": 107, "channel": 0}, {"type": "note_on", "time": 46, "note": 73, "velocity": 110, "channel": 0}, {"type": "note_off", "time": 85, "note": 73, "velocity": 110, "channel": 0}, {"type": "note_on", "time": 33, "note": 74, "velocity": 104, "channel": 0}, {"type": "note_off", "time": 184, "note": 74, "velocity": 104, "channel": 0}, {"type": "note_on", "time": 39, "note": 73, "velocity": 106, "channel": 0}, {"type": "note_off", "time": 55, "note": 73, "velocity": 106, "channel": 0}, {"type": "note_on", "time": 24, "note": 74, "velocity": 108, "channel": 0}, {"type": "note_off", "time": 138, "note": 74, "velocity": 108, "channel": 0}, {"type": "note_on", "time": 64, "note": 71, "velocity": 102, "channel": 0}, {"type": "note_off", "time": 95, "note": 71, "velocity": 102, "channel": 0}, {"type": "note_on", "time": 64, "note": 66, "velocity": 109, "channel": 0}, {"type": "note_off", "time": 107, "note": 66, "velocity": 109, "channel": 0}, {"type": "note_on", "time": 42, "note": 62, "velocity": 109, "channel": 0}, {"type": "note_off", "time": 153, "note": 62, "velocity": 109, "channel": 0}, {"type": "note_on", "time": 39, "note": 65, "velocity": 105, "channel": 0}, {"type": "note_off", "time": 61, "note": 65, "velocity": 105, "channel": 0}, {"type": "note_on", "time": 18, "note": 67, "velocity": 97, "channel": 0}, {"type": "note_off", "time": 30, "note": 67, "velocity": 97, "channel": 0}, {"type": "note_on", "time": 42, "note": 70, "velocity": 100, "channel": 0}, {"type": "note_off", "time": 104, "note": 70, "velocity": 100, "channel": 0}, {"type": "note_on", "time": 24, "note": 74, "velocity": 104, "channel": 0}, {"type": "note_off", "time": 101, "note": 74, "velocity": 104, "channel": 0}, {"type": "note_on", "time": 27, "note": 73, "velocity": 110, "channel": 0}, {"type": "note_off", "time": 85, "note": 73, "velocity": 110, "channel": 0}, {"type": "note_on", "time": 55, "note": 70, "velocity": 101, "channel": 0}, {"type": "note_off", "time": 95, "note": 70, "velocity": 101, "channel": 0}, {"type": "note_on", "time": 49, "note": 67, "velocity": 110, "channel": 0}, {"type": "note_off", "time": 79, "note": 67, "velocity": 110, "channel": 0}, {"type": "note_on", "time": 18, "note": 66, "velocity": 110, "channel": 0}, {"type": "note_off", "time": 61, "note": 66, "velocity": 110, "channel": 0}, {"type": "note_on", "time": 67, "note": 61, "velocity": 111, "channel": 0}, {"type": "note_off", "time": 134, "note": 61, "velocity": 111, "channel": 0}, {"type": "note_on", "time": 30, "note": 60, "velocity": 109, "channel": 0}, {"type": "note_off", "time": 113, "note": 60, "velocity": 109, "channel": 0}, {"type": "note_on", "time": 21, "note": 59, "velocity": 108, "channel": 0}, {"type": "note_off", "time": 150, "note": 59, "velocity": 108, "channel": 0}, {"type": "note_on", "time": 24, "note": 58, "velocity": 104, "channel": 0}, {"type": "note_off", "time": 98, "note": 58, "velocity": 104, "channel": 0}, {"type": "note_on", "time": 18, "note": 60, "velocity": 109, "channel": 0}, {"type": "note_off", "time": 131, "note": 60, "velocity": 109, "channel": 0}, {"type": "note_on", "time": 30, "note": 62, "velocity": 96, "channel": 0}, {"type": "note_off", "time": 82, "note": 62, "velocity": 96, "channel": 0}, {"type": "note_on", "time": 9, "note": 64, "velocity": 111, "channel": 0}, {"type": "note_off", "time": 153, "note": 64, "velocity": 111, "channel": 0}, {"type": "note_on", "time": 30, "note": 65, "velocity": 109, "channel": 0}, {"type": "note_off", "time": 131, "note": 65, "velocity": 109, "channel": 0}, {"type": "note_on", "time": 39, "note": 70, "velocity": 107, "channel": 0}, {"type": "note_off", "time": 88, "note": 70, "velocity": 107, "channel": 0}, {"type": "note_on", "time": 21, "note": 62, "velocity": 109, "channel": 0}, {"type": "note_off", "time": 107, "note": 62, "velocity": 109, "channel": 0}, {"type": "note_on", "time": 27, "note": 63, "velocity": 111, "channel": 0}, {"type": "note_off", "time": 147, "note": 63, "velocity": 111, "channel": 0}, {"type": "note_on", "time": 27, "note": 65, "velocity": 108, "channel": 0}, {"type": "note_off", "time": 76, "note": 65, "velocity": 108, "channel": 0}, {"type": "note_on", "time": 21, "note": 67, "velocity": 107, "channel": 0}, {"type": "note_off", "time": 104, "note": 67, "velocity": 107, "channel": 0}, {"type": "note_on", "time": 12, "note": 69, "velocity": 102, "channel": 0}, {"type": "note_off", "time": 55, "note": 69, "velocity": 102, "channel": 0}, {"type": "note_on", "time": 18, "note": 70, "velocity": 101, "channel": 0}, {"type": "note_off", "time": 122, "note": 70, "velocity": 101, "channel": 0}, {"type": "note_on", "time": 30, "note": 73, "velocity": 103, "channel": 0}, {"type": "note_off", "time": 116, "note": 73, "velocity": 103, "channel": 0}, {"type": "note_on", "time": 46, "note": 70, "velocity": 99, "channel": 0}, {"type": "note_off", "time": 116, "note": 70, "velocity": 99, "channel": 0}, {"type": "note_on", "time": 30, "note": 67, "velocity": 95, "channel": 0}, {"type": "note_off", "time": 70, "note": 67, "velocity": 95, "channel": 0}, {"type": "note_on", "time": 36, "note": 69, "velocity": 99, "channel": 0}, {"type": "note_off", "time": 104, "note": 69, "velocity": 99, "channel": 0}, {"type": "note_on", "time": 104, "note": 73, "velocity": 101, "channel": 0}, {"type": "note_off", "time": 70, "note": 73, "velocity": 101, "channel": 0}, {"type": "note_on", "time": 27, "note": 77, "velocity": 107, "channel": 0}, {"type": "note_off", "time": 82, "note": 77, "velocity": 107, "channel": 0}, {"type": "note_on", "time": 36, "note": 73, "velocity": 111, "channel": 0}, {"type": "note_off", "time": 88, "note": 73, "velocity": 111, "channel": 0}, {"type": "note_on", "time": 39, "note": 78, "velocity": 108, "channel": 0}, {"type": "note_off", "time": 98, "note": 78, "velocity": 108, "channel": 0}, {"type": "note_on", "time": 24, "note": 73, "velocity": 94, "channel": 0}, {"type": "note_off", "time": 85, "note": 73, "velocity": 94, "channel": 0}, {"type": "note_on", "time": 24, "note": 79, "velocity": 104, "channel": 0}, {"type": "note_off", "time": 122, "note": 79, "velocity": 104, "channel": 0}, {"type": "note_on", "time": 46, "note": 73, "velocity": 99, "channel": 0}, {"type": "note_off", "time": 88, "note": 73, "velocity": 99, "channel": 0}, {"type": "note_on", "time": 36, "note": 80, "velocity": 103, "channel": 0}, {"type": "note_off", "time": 119, "note": 80, "velocity": 103, "channel": 0}, {"type": "note_on", "time": 30, "note": 80, "velocity": 108, "channel": 0}, {"type": "note_off", "time": 134, "note": 80, "velocity": 108, "channel": 0}, {"type": "note_on", "time": 21, "note": 80, "velocity": 101, "channel": 0}, {"type": "note_off", "time": 138, "note": 80, "velocity": 101, "channel": 0}, {"type": "note_on", "time": 9, "note": 80, "velocity": 101, "channel": 0}, {"type": "note_off", "time": 70, "note": 80, "velocity": 101, "channel": 0}, {"type": "note_on", "time": 21, "note": 83, "velocity": 81, "channel": 0}, {"type": "note_off", "time": 159, "note": 83, "velocity": 81, "channel": 0}, {"type": "note_on", "time": 6832, "note": 65, "velocity": 113, "channel": 0}, {"type": "note_off", "time": 95, "note": 65, "velocity": 113, "channel": 0}, {"type": "note_on", "time": 24, "note": 66, "velocity": 107, "channel": 0}, {"type": "note_off", "time": 156, "note": 66, "velocity": 107, "channel": 0}, {"type": "note_on", "time": 55, "note": 70, "velocity": 97, "channel": 0}, {"type": "note_off", "time": 144, "note": 70, "velocity": 97, "channel": 0}, {"type": "note_on", "time": 76, "note": 73, "velocity": 99, "channel": 0}, {"type": "note_off", "time": 128, "note": 73, "velocity": 99, "channel": 0}, {"type": "note_on", "time": 39, "note": 77, "velocity": 110, "channel": 0}, {"type": "note_off", "time": 263, "note": 77, "velocity": 110, "channel": 0}, {"type": "note_on", "time": 76, "note": 80, "velocity": 92, "channel": 0}, {"type": "note_off", "time": 325, "note": 80, "velocity": 92, "channel": 0}, {"type": "note_on", "time": 190, "note": 76, "velocity": 109, "channel": 0}, {"type": "note_off", "time": 233, "note": 76, "velocity": 109, "channel": 0}, {"type": "note_on", "time": 478, "note": 81, "velocity": 104, "channel": 0}, {"type": "note_off", "time": 220, "note": 81, "velocity": 104, "channel": 0}, {"type": "note_on", "time": 217, "note": 78, "velocity": 110, "channel": 0}, {"type": "note_off", "time": 184, "note": 78, "velocity": 110, "channel": 0}, {"type": "note_on", "time": 171, "note": 73, "velocity": 110, "channel": 0}, {"type": "note_off", "time": 147, "note": 73, "velocity": 110, "channel": 0}, {"type": "note_on", "time": 67, "note": 79, "velocity": 96, "channel": 0}, {"type": "note_off", "time": 55, "note": 79, "velocity": 96, "channel": 0}, {"type": "note_on", "time": 12, "note": 81, "velocity": 103, "channel": 0}, {"type": "note_off", "time": 70, "note": 81, "velocity": 103, "channel": 0}, {"type": "note_on", "time": 15, "note": 79, "velocity": 102, "channel": 0}, {"type": "note_off", "time": 64, "note": 79, "velocity": 102, "channel": 0}, {"type": "note_on", "time": 36, "note": 76, "velocity": 110, "channel": 0}, {"type": "note_off", "time": 141, "note": 76, "velocity": 110, "channel": 0}, {"type": "note_on", "time": 42, "note": 72, "velocity": 104, "channel": 0}, {"type": "note_off", "time": 193, "note": 72, "velocity": 104, "channel": 0}, {"type": "note_on", "time": 61, "note": 71, "velocity": 95, "channel": 0}, {"type": "note_off", "time": 128, "note": 71, "velocity": 95, "channel": 0}, {"type": "note_on", "time": 30, "note": 79, "velocity": 109, "channel": 0}, {"type": "note_off", "time": 254, "note": 79, "velocity": 109, "channel": 0}, {"type": "note_on", "time": 55, "note": 69, "velocity": 100, "channel": 0}, {"type": "note_off", "time": 184, "note": 69, "velocity": 100, "channel": 0}, {"type": "note_on", "time": 82, "note": 72, "velocity": 100, "channel": 0}, {"type": "note_off", "time": 113, "note": 72, "velocity": 100, "channel": 0}, {"type": "note_on", "time": 58, "note": 75, "velocity": 100, "channel": 0}, {"type": "note_off", "time": 82, "note": 75, "velocity": 100, "channel": 0}, {"type": "note_on", "time": 21, "note": 79, "velocity": 94, "channel": 0}, {"type": "note_off", "time": 374, "note": 79, "velocity": 94, "channel": 0}, {"type": "note_on", "time": 58, "note": 76, "velocity": 108, "channel": 0}, {"type": "note_off", "time": 168, "note": 76, "velocity": 108, "channel": 0}, {"type": "note_on", "time": 46, "note": 79, "velocity": 110, "channel": 0}, {"type": "note_off", "time": 147, "note": 79, "velocity": 110, "channel": 0}, {"type": "note_on", "time": 33, "note": 78, "velocity": 109, "channel": 0}, {"type": "note_off", "time": 141, "note": 78, "velocity": 109, "channel": 0}, {"type": "note_on", "time": 58, "note": 74, "velocity": 104, "channel": 0}, {"type": "note_off", "time": 150, "note": 74, "velocity": 104, "channel": 0}, {"type": "note_on", "time": 76, "note": 70, "velocity": 96, "channel": 0}, {"type": "note_off", "time": 125, "note": 70, "velocity": 96, "channel": 0}, {"type": "note_on", "time": 61, "note": 67, "velocity": 98, "channel": 0}, {"type": "note_off", "time": 107, "note": 67, "velocity": 98, "channel": 0}, {"type": "note_on", "time": 64, "note": 76, "velocity": 110, "channel": 0}, {"type": "note_off", "time": 217, "note": 76, "velocity": 110, "channel": 0}, {"type": "note_on", "time": 27, "note": 74, "velocity": 98, "channel": 0}, {"type": "note_off", "time": 107, "note": 74, "velocity": 98, "channel": 0}, {"type": "note_on", "time": 24, "note": 76, "velocity": 113, "channel": 0}, {"type": "note_off", "time": 217, "note": 76, "velocity": 113, "channel": 0}, {"type": "note_on", "time": 39, "note": 75, "velocity": 101, "channel": 0}, {"type": "note_off", "time": 202, "note": 75, "velocity": 101, "channel": 0}, {"type": "note_on", "time": 27, "note": 73, "velocity": 109, "channel": 0}, {"type": "note_off", "time": 138, "note": 73, "velocity": 109, "channel": 0}, {"type": "note_on", "time": 21, "note": 74, "velocity": 105, "channel": 0}, {"type": "note_off", "time": 131, "note": 74, "velocity": 105, "channel": 0}, {"type": "note_on", "time": 61, "note": 70, "velocity": 97, "channel": 0}, {"type": "note_off", "time": 110, "note": 70, "velocity": 97, "channel": 0}, {"type": "note_on", "time": 46, "note": 66, "velocity": 105, "channel": 0}, {"type": "note_off", "time": 181, "note": 66, "velocity": 105, "channel": 0}, {"type": "note_on", "time": 30, "note": 62, "velocity": 100, "channel": 0}, {"type": "note_off", "time": 104, "note": 62, "velocity": 100, "channel": 0}, {"type": "note_on", "time": 64, "note": 69, "velocity": 105, "channel": 0}, {"type": "note_off", "time": 171, "note": 69, "velocity": 105, "channel": 0}, {"type": "note_on", "time": 79, "note": 62, "velocity": 107, "channel": 0}, {"type": "note_off", "time": 138, "note": 62, "velocity": 107, "channel": 0}, {"type": "note_on", "time": 27, "note": 65, "velocity": 106, "channel": 0}, {"type": "note_off", "time": 153, "note": 65, "velocity": 106, "channel": 0}, {"type": "note_on", "time": 0, "note": 70, "velocity": 98, "channel": 0}, {"type": "note_off", "time": 162, "note": 70, "velocity": 98, "channel": 0}, {"type": "note_on", "time": 30, "note": 68, "velocity": 106, "channel": 0}, {"type": "note_off", "time": 150, "note": 68, "velocity": 106, "channel": 0}, {"type": "note_on", "time": 36, "note": 66, "velocity": 98, "channel": 0}, {"type": "note_off", "time": 107, "note": 66, "velocity": 98, "channel": 0}, {"type": "note_on", "time": 18, "note": 65, "velocity": 104, "channel": 0}, {"type": "note_off", "time": 223, "note": 65, "velocity": 104, "channel": 0}, {"type": "note_on", "time": 98, "note": 60, "velocity": 97, "channel": 0}, {"type": "note_off", "time": 138, "note": 60, "velocity": 97, "channel": 0}, {"type": "note_on", "time": 36, "note": 63, "velocity": 111, "channel": 0}, {"type": "note_off", "time": 233, "note": 63, "velocity": 111, "channel": 0}, {"type": "note_on", "time": 30, "note": 61, "velocity": 106, "channel": 0}, {"type": "note_off", "time": 162, "note": 61, "velocity": 106, "channel": 0}, {"type": "note_on", "time": 6, "note": 63, "velocity": 106, "channel": 0}, {"type": "note_off", "time": 227, "note": 63, "velocity": 106, "channel": 0}, {"type": "note_on", "time": 21, "note": 66, "velocity": 103, "channel": 0}, {"type": "note_off", "time": 153, "note": 66, "velocity": 103, "channel": 0}, {"type": "note_on", "time": 42, "note": 63, "velocity": 103, "channel": 0}, {"type": "note_off", "time": 171, "note": 63, "velocity": 103, "channel": 0}, {"type": "note_on", "time": 36, "note": 66, "velocity": 100, "channel": 0}, {"type": "note_off", "time": 196, "note": 66, "velocity": 100, "channel": 0}, {"type": "note_on", "time": 24, "note": 68, "velocity": 102, "channel": 0}, {"type": "note_off", "time": 162, "note": 68, "velocity": 102, "channel": 0}, {"type": "note_on", "time": 0, "note": 70, "velocity": 103, "channel": 0}, {"type": "note_off", "time": 141, "note": 70, "velocity": 103, "channel": 0}, {"type": "note_on", "time": 52, "note": 67, "velocity": 107, "channel": 0}, {"type": "note_off", "time": 104, "note": 67, "velocity": 107, "channel": 0}, {"type": "note_on", "time": 46, "note": 69, "velocity": 103, "channel": 0}, {"type": "note_off", "time": 156, "note": 69, "velocity": 103, "channel": 0}, {"type": "note_on", "time": 64, "note": 71, "velocity": 98, "channel": 0}, {"type": "note_off", "time": 128, "note": 71, "velocity": 98, "channel": 0}, {"type": "note_on", "time": 61, "note": 73, "velocity": 108, "channel": 0}, {"type": "note_off", "time": 187, "note": 73, "velocity": 108, "channel": 0}, {"type": "note_on", "time": 67, "note": 75, "velocity": 107, "channel": 0}, {"type": "note_off", "time": 162, "note": 75, "velocity": 107, "channel": 0}, {"type": "note_on", "time": 46, "note": 78, "velocity": 112, "channel": 0}, {"type": "note_off", "time": 101, "note": 78, "velocity": 112, "channel": 0}, {"type": "note_on", "time": 15, "note": 77, "velocity": 114, "channel": 0}, {"type": "note_off", "time": 239, "note": 77, "velocity": 114, "channel": 0}, {"type": "note_on", "time": 39, "note": 76, "velocity": 112, "channel": 0}, {"type": "note_off", "time": 199, "note": 76, "velocity": 112, "channel": 0}, {"type": "note_on", "time": 33, "note": 75, "velocity": 109, "channel": 0}, {"type": "note_off", "time": 165, "note": 75, "velocity": 109, "channel": 0}, {"type": "note_on", "time": 64, "note": 70, "velocity": 103, "channel": 0}, {"type": "note_off", "time": 125, "note": 70, "velocity": 103, "channel": 0}, {"type": "note_on", "time": 76, "note": 73, "velocity": 106, "channel": 0}, {"type": "note_off", "time": 134, "note": 73, "velocity": 106, "channel": 0}, {"type": "note_on", "time": 30, "note": 75, "velocity": 101, "channel": 0}, {"type": "note_off", "time": 150, "note": 75, "velocity": 101, "channel": 0}, {"type": "note_on", "time": 27, "note": 77, "velocity": 116, "channel": 0}, {"type": "note_off", "time": 248, "note": 77, "velocity": 116, "channel": 0}, {"type": "note_on", "time": 42, "note": 73, "velocity": 106, "channel": 0}, {"type": "note_off", "time": 199, "note": 73, "velocity": 106, "channel": 0}, {"type": "note_on", "time": 49, "note": 70, "velocity": 97, "channel": 0}, {"type": "note_off", "time": 171, "note": 70, "velocity": 97, "channel": 0}, {"type": "note_on", "time": 55, "note": 65, "velocity": 99, "channel": 0}, {"type": "note_off", "time": 104, "note": 65, "velocity": 99, "channel": 0}, {"type": "note_on", "time": 36, "note": 64, "velocity": 104, "channel": 0}, {"type": "note_off", "time": 260, "note": 64, "velocity": 104, "channel": 0}, {"type": "note_on", "time": 33, "note": 66, "velocity": 107, "channel": 0}, {"type": "note_off", "time": 153, "note": 66, "velocity": 107, "channel": 0}, {"type": "note_on", "time": 39, "note": 69, "velocity": 95, "channel": 0}, {"type": "note_off", "time": 147, "note": 69, "velocity": 95, "channel": 0}, {"type": "note_on", "time": 18, "note": 71, "velocity": 99, "channel": 0}, {"type": "note_off", "time": 128, "note": 71, "velocity": 99, "channel": 0}, {"type": "note_on", "time": 30, "note": 73, "velocity": 110, "channel": 0}, {"type": "note_off", "time": 211, "note": 73, "velocity": 110, "channel": 0}, {"type": "note_on", "time": 15, "note": 74, "velocity": 108, "channel": 0}, {"type": "note_off", "time": 156, "note": 74, "velocity": 108, "channel": 0}, {"type": "note_on", "time": 0, "note": 76, "velocity": 108, "channel": 0}, {"type": "note_off", "time": 217, "note": 76, "velocity": 108, "channel": 0}, {"type": "note_on", "time": 46, "note": 74, "velocity": 101, "channel": 0}, {"type": "note_off", "time": 113, "note": 74, "velocity": 101, "channel": 0}, {"type": "note_on", "time": 15, "note": 75, "velocity": 108, "channel": 0}, {"type": "note_off", "time": 220, "note": 75, "velocity": 108, "channel": 0}, {"type": "note_on", "time": 30, "note": 72, "velocity": 104, "channel": 0}, {"type": "note_off", "time": 144, "note": 72, "velocity": 104, "channel": 0}, {"type": "note_on", "time": 24, "note": 70, "velocity": 100, "channel": 0}, {"type": "note_off", "time": 119, "note": 70, "velocity": 100, "channel": 0}, {"type": "note_on", "time": 24, "note": 67, "velocity": 95, "channel": 0}, {"type": "note_off", "time": 138, "note": 67, "velocity": 95, "channel": 0}, {"type": "note_on", "time": 76, "note": 76, "velocity": 111, "channel": 0}, {"type": "note_off", "time": 257, "note": 76, "velocity": 111, "channel": 0}, {"type": "note_on", "time": 15, "note": 72, "velocity": 102, "channel": 0}, {"type": "note_off", "time": 131, "note": 72, "velocity": 102, "channel": 0}, {"type": "note_on", "time": 36, "note": 70, "velocity": 96, "channel": 0}, {"type": "note_off", "time": 119, "note": 70, "velocity": 96, "channel": 0}, {"type": "note_on", "time": 24, "note": 67, "velocity": 101, "channel": 0}, {"type": "note_off", "time": 134, "note": 67, "velocity": 101, "channel": 0}, {"type": "note_on", "time": 58, "note": 75, "velocity": 112, "channel": 0}, {"type": "note_off", "time": 242, "note": 75, "velocity": 112, "channel": 0}, {"type": "note_on", "time": 705, "note": 73, "velocity": 111, "channel": 0}, {"type": "note_off", "time": 134, "note": 73, "velocity": 111, "channel": 0}, {"type": "note_on", "time": 21, "note": 74, "velocity": 104, "channel": 0}, {"type": "note_off", "time": 174, "note": 74, "velocity": 104, "channel": 0}, {"type": "note_on", "time": 24, "note": 71, "velocity": 100, "channel": 0}, {"type": "note_off", "time": 128, "note": 71, "velocity": 100, "channel": 0}, {"type": "note_on", "time": 58, "note": 65, "velocity": 97, "channel": 0}, {"type": "note_off", "time": 119, "note": 65, "velocity": 97, "channel": 0}, {"type": "note_on", "time": 73, "note": 71, "velocity": 103, "channel": 0}, {"type": "note_off", "time": 88, "note": 71, "velocity": 103, "channel": 0}, {"type": "note_on", "time": 36, "note": 69, "velocity": 102, "channel": 0}, {"type": "note_off", "time": 110, "note": 69, "velocity": 102, "channel": 0}, {"type": "note_on", "time": 33, "note": 70, "velocity": 99, "channel": 0}, {"type": "note_off", "time": 404, "note": 70, "velocity": 99, "channel": 0}, {"type": "note_on", "time": 174, "note": 69, "velocity": 104, "channel": 0}, {"type": "note_off", "time": 196, "note": 69, "velocity": 104, "channel": 0}, {"type": "note_on", "time": 24, "note": 61, "velocity": 108, "channel": 0}, {"type": "note_off", "time": 150, "note": 61, "velocity": 108, "channel": 0}, {"type": "note_on", "time": 39, "note": 65, "velocity": 111, "channel": 0}, {"type": "note_off", "time": 138, "note": 65, "velocity": 111, "channel": 0}, {"type": "note_on", "time": 52, "note": 70, "velocity": 104, "channel": 0}, {"type": "note_off", "time": 144, "note": 70, "velocity": 104, "channel": 0}, {"type": "note_on", "time": 46, "note": 68, "velocity": 107, "channel": 0}, {"type": "note_off", "time": 150, "note": 68, "velocity": 107, "channel": 0}, {"type": "note_on", "time": 42, "note": 67, "velocity": 110, "channel": 0}, {"type": "note_off", "time": 162, "note": 67, "velocity": 110, "channel": 0}, {"type": "note_on", "time": 18, "note": 66, "velocity": 107, "channel": 0}, {"type": "note_off", "time": 165, "note": 66, "velocity": 107, "channel": 0}, {"type": "note_on", "time": 76, "note": 62, "velocity": 102, "channel": 0}, {"type": "note_off", "time": 138, "note": 62, "velocity": 102, "channel": 0}, {"type": "note_on", "time": 15, "note": 65, "velocity": 113, "channel": 0}, {"type": "note_off", "time": 174, "note": 65, "velocity": 113, "channel": 0}, {"type": "note_on", "time": 36, "note": 64, "velocity": 112, "channel": 0}, {"type": "note_off", "time": 95, "note": 64, "velocity": 112, "channel": 0}, {"type": "note_on", "time": 30, "note": 63, "velocity": 109, "channel": 0}, {"type": "note_off", "time": 199, "note": 63, "velocity": 109, "channel": 0}, {"type": "note_on", "time": 61, "note": 67, "velocity": 106, "channel": 0}, {"type": "note_off", "time": 156, "note": 67, "velocity": 106, "channel": 0}, {"type": "note_on", "time": 113, "note": 60, "velocity": 110, "channel": 0}, {"type": "note_off", "time": 190, "note": 60, "velocity": 110, "channel": 0}, {"type": "note_on", "time": 27, "note": 63, "velocity": 105, "channel": 0}, {"type": "note_off", "time": 79, "note": 63, "velocity": 105, "channel": 0}, {"type": "note_on", "time": 21, "note": 66, "velocity": 106, "channel": 0}, {"type": "note_off", "time": 92, "note": 66, "velocity": 106, "channel": 0}, {"type": "note_on", "time": 27, "note": 69, "velocity": 103, "channel": 0}, {"type": "note_off", "time": 92, "note": 69, "velocity": 103, "channel": 0}, {"type": "note_on", "time": 6, "note": 71, "velocity": 102, "channel": 0}, {"type": "note_off", "time": 73, "note": 71, "velocity": 102, "channel": 0}, {"type": "note_on", "time": 39, "note": 73, "velocity": 112, "channel": 0}, {"type": "note_off", "time": 150, "note": 73, "velocity": 112, "channel": 0}, {"type": "note_on", "time": 30, "note": 75, "velocity": 106, "channel": 0}, {"type": "note_off", "time": 223, "note": 75, "velocity": 106, "channel": 0}, {"type": "note_on", "time": 27, "note": 78, "velocity": 110, "channel": 0}, {"type": "note_off", "time": 184, "note": 78, "velocity": 110, "channel": 0}, {"type": "note_on", "time": 58, "note": 75, "velocity": 104, "channel": 0}, {"type": "note_off", "time": 156, "note": 75, "velocity": 104, "channel": 0}, {"type": "note_on", "time": 15, "note": 77, "velocity": 111, "channel": 0}, {"type": "note_off", "time": 211, "note": 77, "velocity": 111, "channel": 0}, {"type": "note_on", "time": 30, "note": 76, "velocity": 114, "channel": 0}, {"type": "note_off", "time": 85, "note": 76, "velocity": 114, "channel": 0}, {"type": "note_on", "time": 52, "note": 75, "velocity": 110, "channel": 0}, {"type": "note_off", "time": 251, "note": 75, "velocity": 110, "channel": 0}, {"type": "note_on", "time": 67, "note": 73, "velocity": 111, "channel": 0}, {"type": "note_off", "time": 116, "note": 73, "velocity": 111, "channel": 0}, {"type": "note_on", "time": 12, "note": 72, "velocity": 108, "channel": 0}, {"type": "note_off", "time": 177, "note": 72, "velocity": 108, "channel": 0}, {"type": "note_on", "time": 27, "note": 70, "velocity": 106, "channel": 0}, {"type": "note_off", "time": 131, "note": 70, "velocity": 106, "channel": 0}, {"type": "note_on", "time": 30, "note": 67, "velocity": 109, "channel": 0}, {"type": "note_off", "time": 273, "note": 67, "velocity": 109, "channel": 0}, {"type": "note_on", "time": 33, "note": 68, "velocity": 104, "channel": 0}, {"type": "note_off", "time": 119, "note": 68, "velocity": 104, "channel": 0}, {"type": "note_on", "time": 27, "note": 69, "velocity": 106, "channel": 0}, {"type": "note_off", "time": 150, "note": 69, "velocity": 106, "channel": 0}, {"type": "note_on", "time": 79, "note": 77, "velocity": 113, "channel": 0}, {"type": "note_off", "time": 497, "note": 77, "velocity": 113, "channel": 0}, {"type": "note_on", "time": 55, "note": 72, "velocity": 108, "channel": 0}, {"type": "note_off", "time": 340, "note": 72, "velocity": 108, "channel": 0}, {"type": "note_on", "time": 27, "note": 73, "velocity": 104, "channel": 0}, {"type": "note_off", "time": 358, "note": 73, "velocity": 104, "channel": 0}, {"type": "note_on", "time": 58, "note": 70, "velocity": 103, "channel": 0}, {"type": "note_off", "time": 426, "note": 70, "velocity": 103, "channel": 0}, {"type": "note_on", "time": 39, "note": 66, "velocity": 106, "channel": 0}, {"type": "note_off", "time": 358, "note": 66, "velocity": 106, "channel": 0}, {"type": "note_on", "time": 42, "note": 61, "velocity": 114, "channel": 0}, {"type": "note_off", "time": 309, "note": 61, "velocity": 114, "channel": 0}, {"type": "note_on", "time": 64, "note": 60, "velocity": 108, "channel": 0}, {"type": "note_off", "time": 457, "note": 60, "velocity": 108, "channel": 0}, {"type": "note_on", "time": 168, "note": 75, "velocity": 91, "channel": 0}, {"type": "note_off", "time": 110, "note": 75, "velocity": 91, "channel": 0}, {"type": "note_on", "time": 36, "note": 76, "velocity": 97, "channel": 0}, {"type": "note_off", "time": 220, "note": 76, "velocity": 97, "channel": 0}, {"type": "note_on", "time": 42, "note": 75, "velocity": 92, "channel": 0}, {"type": "note_off", "time": 92, "note": 75, "velocity": 92, "channel": 0}, {"type": "note_on", "time": 49, "note": 76, "velocity": 103, "channel": 0}, {"type": "note_off", "time": 263, "note": 76, "velocity": 103, "channel": 0}, {"type": "note_on", "time": 2239, "note": 75, "velocity": 101, "channel": 0}, {"type": "note_off", "time": 190, "note": 75, "velocity": 101, "channel": 0}, {"type": "note_on", "time": 257, "note": 68, "velocity": 95, "channel": 0}, {"type": "note_off", "time": 515, "note": 68, "velocity": 95, "channel": 0}, {"type": "note_on", "time": 0, "note": 70, "velocity": 88, "channel": 0}, {"type": "note_off", "time": 472, "note": 70, "velocity": 88, "channel": 0}, {"type": "note_on", "time": 1448, "note": 75, "velocity": 100, "channel": 0}, {"type": "note_off", "time": 263, "note": 75, "velocity": 100, "channel": 0}, {"type": "note_on", "time": 46, "note": 77, "velocity": 83, "channel": 0}, {"type": "note_off", "time": 331, "note": 77, "velocity": 83, "channel": 0}, {"type": "note_on", "time": 55, "note": 69, "velocity": 93, "channel": 0}, {"type": "note_off", "time": 481, "note": 69, "velocity": 93, "channel": 0}, {"type": "note_on", "time": 52, "note": 88, "velocity": 104, "channel": 0}, {"type": "note_off", "time": 174, "note": 88, "velocity": 104, "channel": 0}, {"type": "note_on", "time": 21, "note": 89, "velocity": 79, "channel": 0}, {"type": "note_off", "time": 512, "note": 89, "velocity": 79, "channel": 0}, {"type": "note_on", "time": 1411, "note": 73, "velocity": 112, "channel": 0}, {"type": "note_off", "time": 447, "note": 73, "velocity": 112, "channel": 0}, {"type": "note_on", "time": 33, "note": 74, "velocity": 114, "channel": 0}, {"type": "note_off", "time": 79, "note": 74, "velocity": 114, "channel": 0}, {"type": "note_on", "time": 42, "note": 78, "velocity": 110, "channel": 0}, {"type": "note_off", "time": 104, "note": 78, "velocity": 110, "channel": 0}, {"type": "note_on", "time": 21, "note": 80, "velocity": 112, "channel": 0}, {"type": "note_off", "time": 88, "note": 80, "velocity": 112, "channel": 0}, {"type": "note_on", "time": 3, "note": 82, "velocity": 113, "channel": 0}, {"type": "note_off", "time": 1095, "note": 82, "velocity": 113, "channel": 0}, {"type": "note_on", "time": 1242, "note": 80, "velocity": 117, "channel": 0}, {"type": "note_off", "time": 365, "note": 80, "velocity": 117, "channel": 0}, {"type": "note_on", "time": 113, "note": 77, "velocity": 115, "channel": 0}, {"type": "note_off", "time": 346, "note": 77, "velocity": 115, "channel": 0}, {"type": "note_on", "time": 76, "note": 73, "velocity": 114, "channel": 0}, {"type": "note_off", "time": 352, "note": 73, "velocity": 114, "channel": 0}, {"type": "note_on", "time": 30, "note": 75, "velocity": 115, "channel": 0}, {"type": "note_off", "time": 503, "note": 75, "velocity": 115, "channel": 0}, {"type": "note_on", "time": 104, "note": 75, "velocity": 110, "channel": 0}, {"type": "note_off", "time": 849, "note": 75, "velocity": 110, "channel": 0}, {"type": "note_on", "time": 1558, "note": 75, "velocity": 119, "channel": 0}, {"type": "note_off", "time": 177, "note": 75, "velocity": 119, "channel": 0}, {"type": "note_on", "time": 49, "note": 77, "velocity": 121, "channel": 0}, {"type": "note_off", "time": 147, "note": 77, "velocity": 121, "channel": 0}, {"type": "note_on", "time": 30, "note": 75, "velocity": 117, "channel": 0}, {"type": "note_off", "time": 162, "note": 75, "velocity": 117, "channel": 0}, {"type": "note_on", "time": 33, "note": 77, "velocity": 122, "channel": 0}, {"type": "note_off", "time": 150, "note": 77, "velocity": 122, "channel": 0}, {"type": "note_on", "time": 27, "note": 75, "velocity": 117, "channel": 0}, {"type": "note_off", "time": 116, "note": 75, "velocity": 117, "channel": 0}, {"type": "note_on", "time": 24, "note": 77, "velocity": 121, "channel": 0}, {"type": "note_off", "time": 227, "note": 77, "velocity": 121, "channel": 0}, {"type": "note_on", "time": 64, "note": 78, "velocity": 113, "channel": 0}, {"type": "note_off", "time": 1214, "note": 78, "velocity": 113, "channel": 0}, {"type": "note_on", "time": 9, "note": 76, "velocity": 118, "channel": 0}, {"type": "note_off", "time": 107, "note": 76, "velocity": 118, "channel": 0}, {"type": "note_on", "time": 18, "note": 77, "velocity": 115, "channel": 0}, {"type": "note_off", "time": 61, "note": 77, "velocity": 115, "channel": 0}, {"type": "note_on", "time": 24, "note": 78, "velocity": 109, "channel": 0}, {"type": "note_off", "time": 122, "note": 78, "velocity": 109, "channel": 0}, {"type": "note_on", "time": 18, "note": 77, "velocity": 115, "channel": 0}, {"type": "note_off", "time": 73, "note": 77, "velocity": 115, "channel": 0}, {"type": "note_on", "time": 67, "note": 73, "velocity": 113, "channel": 0}, {"type": "note_off", "time": 331, "note": 73, "velocity": 113, "channel": 0}, {"type": "note_on", "time": 33, "note": 72, "velocity": 112, "channel": 0}, {"type": "note_off", "time": 423, "note": 72, "velocity": 112, "channel": 0}, {"type": "end_of_track", "time": 0}]]}