{"ticks_per_beat": -10096, "tracks": [[{"type": "track_name", "name": "Melody", "time": 0}, {"type": "set_tempo", "tempo": 1132075, "time": 0}, {"type": "key_signature", "key": "Db", "time": 0}, {"type": "time_signature", "numerator": 4, "denominator": 4, "clocks_per_click": 24, "notated_32nd_notes_per_beat": 8, "time": 0}, {"type": "note_on", "time": 308050, "note": 55, "velocity": 110, "channel": 0}, {"type": "note_off", "time": 8794, "note": 55, "velocity": 110, "channel": 0}, {"type": "note_on", "time": 3597, "note": 56, "velocity": 105, "channel": 0}, {"type": "note_off", "time": 8794, "note": 56, "velocity": 105, "channel": 0}, {"type": "note_on", "time": 6996, "note": 58, "velocity": 112, "channel": 0}, {"type": "note_off", "time": 10793, "note": 58, "velocity": 112, "channel": 0}, {"type": "note_on", "time": 1798, "note": 59, "velocity": 105, "channel": 0}, {"type": "note_off", "time": 12792, "note": 59, "velocity": 105, "channel": 0}, {"type": "note_on", "time": 4966, "note": 60, "velocity": 115, "channel": 0}, {"type": "note_off", "time": 13929, "note": 60, "velocity": 115, "channel": 0}, {"type": "note_on", "time": 2558, "note": 59, "velocity": 100, "channel": 0}, {"type": "note_off", "time": 14782, "note": 59, "velocity": 100, "channel": 0}, {"type": "note_on", "time": 1705, "note": 58, "velocity": 108, "channel": 0}, {"type": "note_off", "time": 14214, "note": 58, "velocity": 108, "channel": 0}, {"type": "note_on", "time": 6609, "note": 57, "velocity": 93, "channel": 0}, {"type": "note_off", "time": 22187, "note": 57, "velocity": 93, "channel": 0}, {"type": "note_on", "time": 1905, "note": 54, "velocity": 100, "channel": 0}, {"type": "note_off", "time": 13361, "note": 54, "velocity": 100, "channel": 0}, {"type": "note_on", "time": 2274, "note": 53, "velocity": 97, "channel": 0}, {"type": "note_off", "time": 12792, "note": 53, "velocity": 97, "channel": 0}, {"type": "note_on", "time": 4264, "note": 51, "velocity": 100, "channel": 0}, {"type": "note_off", "time": 10518, "note": 51, "velocity": 100, "channel": 0}, {"type": "note_on", "time": 5117, "note": 53, "velocity": 91, "channel": 0}, {"type": "note_off", "time": 16772, "note": 53, "velocity": 91, "channel": 0}, {"type": "note_on", "time": 5401, "note": 53, "velocity": 84, "channel": 0}, {"type": "note_off", "time": 83010, "note": 53, "velocity": 84, "channel": 0}, {"type": "note_on", "time": 32074, "note": 48, "velocity": 102, "channel": 0}, {"type": "note_off", "time": 8244, "note": 48, "velocity": 102, "channel": 0}, {"type": "note_on", "time": 550, "note": 49, "velocity": 101, "channel": 0}, {"type": "note_off", "time": 8528, "note": 49, "velocity": 101, "channel": 0}, {"type": "note_on", "time": 1772, "note": 53, "velocity": 104, "channel": 0}, {"type": "note_off", "time": 10518, "note": 53, "velocity": 104, "channel": 0}, {"type": "note_on", "time": 3979, "note": 46, "velocity": 95, "channel": 0}, {"type": "note_off", "time": 14214, "note": 46, "velocity": 95, "channel": 0}, {"type": "note_on", "time": 1963, "note": 44, "velocity": 100, "channel": 0}, {"type": "note_off", "time": 36179, "note": 44, "velocity": 100, "channel": 0}, {"type": "note_on", "time": 30653, "note": 58, "velocity": 107, "channel": 0}, {"type": "note_off", "time": 10802, "note": 58, "velocity": 107, "channel": 0}, {"type": "note_on", "time": 619, "note": 59, "velocity": 99, "channel": 0}, {"type": "note_off", "time": 9949, "note": 59, "velocity": 99, "channel": 0}, {"type": "note_on", "time": 1086, "note": 56, "velocity": 98, "channel": 0}, {"type": "note_off", "time": 9665, "note": 56, "velocity": 98, "channel": 0}, {"type": "note_on", "time": 3695, "note": 52, "velocity": 101, "channel": 0}, {"type": "note_off", "time": 13076, "note": 52, "velocity": 101, "channel": 0}, {"type": "note_on", "time": 1705, "note": 49, "velocity": 89, "channel": 0}, {"type": "note_off", "time": 11939, "note": 49, "velocity": 89, "channel": 0}, {"type": "note_on", "time": 3127, "note": 54, "velocity": 105, "channel": 0}, {"type": "note_off", "time": 12508, "note": 54, "velocity": 105, "channel": 0}, {"type": "note_on", "time": 1421, "note": 51, "velocity": 98, "channel": 0}, {"type": "note_off", "time": 13645, "note": 51, "velocity": 98, "channel": 0}, {"type": "note_on", "time": 230, "note": 47, "velocity": 88, "channel": 0}, {"type": "note_off", "time": 39230, "note": 47, "velocity": 88, "channel": 0}, {"type": "note_on", "time": 97277, "note": 58, "velocity": 112, "channel": 0}, {"type": "note_off", "time": 7391, "note": 58, "velocity": 112, "channel": 0}, {"type": "note_on", "time": 568, "note": 59, "velocity": 101, "channel": 0}, {"type": "note_off", "time": 5117, "note": 59, "velocity": 101, "channel": 0}, {"type": "note_on", "time": 1989, "note": 56, "velocity": 97, "channel": 0}, {"type": "note_off", "time": 10802, "note": 56, "velocity": 97, "channel": 0}, {"type": "note_on", "time": 2558, "note": 55, "velocity": 99, "channel": 0}, {"type": "note_off", "time": 11371, "note": 55, "velocity": 99, "channel": 0}, {"type": "note_on", "time": 3411, "note": 56, "velocity": 97, "channel": 0}, {"type": "note_off", "time": 11939, "note": 56, "velocity": 97, "channel": 0}, {"type": "note_on", "time": 5685, "note": 58, "velocity": 109, "channel": 0}, {"type": "note_off", "time": 11939, "note": 58, "velocity": 109, "channel": 0}, {"type": "note_on", "time": 1421, "note": 59, "velocity": 101, "channel": 0}, {"type": "note_off", "time": 13645, "note": 59, "velocity": 101, "channel": 0}, {"type": "note_on", "time": 26153, "note": 58, "velocity": 112, "channel": 0}, {"type": "note_off", "time": 3979, "note": 58, "velocity": 112, "channel": 0}, {"type": "note_on", "time": 568, "note": 59, "velocity": 102, "channel": 0}, {"type": "note_off", "time": 7959, "note": 59, "velocity": 102, "channel": 0}, {"type": "note_on", "time": 1705, "note": 56, "velocity": 101, "channel": 0}, {"type": "note_off", "time": 10518, "note": 56, "velocity": 101, "channel": 0}, {"type": "note_on", "time": 3695, "note": 54, "velocity": 102, "channel": 0}, {"type": "note_off", "time": 13645, "note": 54, "velocity": 102, "channel": 0}, {"type": "note_on", "time": 568, "note": 53, "velocity": 101, "channel": 0}, {"type": "note_off", "time": 8244, "note": 53, "velocity": 101, "channel": 0}, {"type": "note_on", "time": 5401, "note": 51, "velocity": 101, "channel": 0}, {"type": "note_off", "time": 14782, "note": 51, "velocity": 101, "channel": 0}, {"type": "note_on", "time": 284, "note": 52, "velocity": 107, "channel": 0}, {"type": "note_off", "time": 14214, "note": 52, "velocity": 107, "channel": 0}, {"type": "note_on", "time": 5117, "note": 53, "velocity": 101, "channel": 0}, {"type": "note_off", "time": 11371, "note": 53, "velocity": 101, "channel": 0}, {"type": "note_on", "time": 1421, "note": 48, "velocity": 91, "channel": 0}, {"type": "note_off", "time": 13076, "note": 48, "velocity": 91, "channel": 0}, {"type": "note_on", "time": 8244, "note": 60, "velocity": 99, "channel": 0}, {"type": "note_off", "time": 9381, "note": 60, "velocity": 99, "channel": 0}, {"type": "note_on", "time": 1137, "note": 58, "velocity": 99, "channel": 0}, {"type": "note_off", "time": 11086, "note": 58, "velocity": 99, "channel": 0}, {"type": "note_on", "time": 1421, "note": 60, "velocity": 90, "channel": 0}, {"type": "note_off", "time": 99498, "note": 60, "velocity": 90, "channel": 0}, {"type": "note_on", "time": 83863, "note": 63, "velocity": 125, "channel": 0}, {"type": "note_off", "time": 9097, "note": 63, "velocity": 125, "channel": 0}, {"type": "note_on", "time": 1705, "note": 61, "velocity": 82, "channel": 0}, {"type": "note_off", "time": 7107, "note": 61, "velocity": 82, "channel": 0}, {"type": "note_on", "time": 1705, "note": 63, "velocity": 126, "channel": 0}, {"type": "note_off", "time": 61404, "note": 63, "velocity": 126, "channel": 0}, {"type": "note_on", "time": 284, "note": 61, "velocity": 103, "channel": 0}, {"type": "note_off", "time": 5685, "note": 61, "velocity": 103, "channel": 0}, {"type": "note_on", "time": 583, "note": 63, "velocity": 106, "channel": 0}, {"type": "note_off", "time": 5746, "note": 63, "velocity": 106, "channel": 0}, {"type": "note_on", "time": 2648, "note": 63, "velocity": 123, "channel": 0}, {"type": "note_off", "time": 4397, "note": 63, "velocity": 123, "channel": 0}, {"type": "note_on", "time": 1299, "note": 65, "velocity": 119, "channel": 0}, {"type": "note_off", "time": 2948, "note": 65, "velocity": 119, "channel": 0}, {"type": "note_on", "time": 599, "note": 64, "velocity": 112, "channel": 0}, {"type": "note_off", "time": 3797, "note": 64, "velocity": 112, "channel": 0}, {"type": "note_on", "time": 6796, "note": 61, "velocity": 96, "channel": 0}, {"type": "note_off", "time": 3398, "note": 61, "velocity": 96, "channel": 0}, {"type": "note_on", "time": 5594, "note": 63, "velocity": 121, "channel": 0}, {"type": "note_off", "time": 10944, "note": 63, "velocity": 121, "channel": 0}, {"type": "note_on", "time": 142, "note": 61, "velocity": 101, "channel": 0}, {"type": "note_off", "time": 3127, "note": 61, "velocity": 101, "channel": 0}, {"type": "note_on", "time": 426, "note": 58, "velocity": 98, "channel": 0}, {"type": "note_off", "time": 13929, "note": 58, "velocity": 98, "channel": 0}, {"type": "note_on", "time": 9610, "note": 55, "velocity": 114, "channel": 0}, {"type": "note_off", "time": 3398, "note": 55, "velocity": 114, "channel": 0}, {"type": "note_on", "time": 299, "note": 56, "velocity": 106, "channel": 0}, {"type": "note_off", "time": 2798, "note": 56, "velocity": 106, "channel": 0}, {"type": "note_on", "time": 199, "note": 57, "velocity": 104, "channel": 0}, {"type": "note_off", "time": 2598, "note": 57, "velocity": 104, "channel": 0}, {"type": "note_on", "time": 899, "note": 56, "velocity": 98, "channel": 0}, {"type": "note_off", "time": 5896, "note": 56, "velocity": 98, "channel": 0}, {"type": "note_on", "time": 999, "note": 54, "velocity": 105, "channel": 0}, {"type": "note_off", "time": 8095, "note": 54, "velocity": 105, "channel": 0}, {"type": "note_on", "time": 2798, "note": 56, "velocity": 92, "channel": 0}, {"type": "note_off", "time": 57567, "note": 56, "velocity": 92, "channel": 0}, {"type": "note_on", "time": 1099, "note": 54, "velocity": 102, "channel": 0}, {"type": "note_off", "time": 8295, "note": 54, "velocity": 102, "channel": 0}, {"type": "note_on", "time": 1699, "note": 53, "velocity": 94, "channel": 0}, {"type": "note_off", "time": 6896, "note": 53, "velocity": 94, "channel": 0}, {"type": "note_on", "time": 2998, "note": 51, "velocity": 90, "channel": 0}, {"type": "note_off", "time": 6396, "note": 51, "velocity": 90, "channel": 0}, {"type": "note_on", "time": 3997, "note": 53, "velocity": 95, "channel": 0}, {"type": "note_off", "time": 31282, "note": 53, "velocity": 95, "channel": 0}, {"type": "note_on", "time": 65162, "note": 50, "velocity": 102, "channel": 0}, {"type": "note_off", "time": 4697, "note": 50, "velocity": 102, "channel": 0}, {"type": "note_on", "time": 649, "note": 51, "velocity": 104, "channel": 0}, {"type": "note_off", "time": 2898, "note": 51, "velocity": 104, "channel": 0}, {"type": "note_on", "time": 749, "note": 52, "velocity": 107, "channel": 0}, {"type": "note_off", "time": 2498, "note": 52, "velocity": 107, "channel": 0}, {"type": "note_on", "time": 599, "note": 53, "velocity": 104, "channel": 0}, {"type": "note_off", "time": 2298, "note": 53, "velocity": 104, "channel": 0}, {"type": "note_on", "time": 564, "note": 54, "velocity": 99, "channel": 0}, {"type": "note_off", "time": 6112, "note": 54, "velocity": 99, "channel": 0}, {"type": "note_on", "time": 710, "note": 58, "velocity": 111, "channel": 0}, {"type": "note_off", "time": 9665, "note": 58, "velocity": 111, "channel": 0}, {"type": "note_on", "time": 887, "note": 55, "velocity": 100, "channel": 0}, {"type": "note_off", "time": 2098, "note": 55, "velocity": 100, "channel": 0}, {"type": "note_on", "time": 349, "note": 56, "velocity": 109, "channel": 0}, {"type": "note_off", "time": 8495, "note": 56, "velocity": 109, "channel": 0}, {"type": "note_on", "time": 677, "note": 58, "velocity": 102, "channel": 0}, {"type": "note_off", "time": 3553, "note": 58, "velocity": 102, "channel": 0}, {"type": "note_on", "time": 568, "note": 67, "velocity": 114, "channel": 0}, {"type": "note_off", "time": 5259, "note": 67, "velocity": 114, "channel": 0}, {"type": "note_on", "time": 710, "note": 68, "velocity": 102, "channel": 0}, {"type": "note_off", "time": 4690, "note": 68, "velocity": 102, "channel": 0}, {"type": "note_on", "time": 568, "note": 63, "velocity": 109, "channel": 0}, {"type": "note_off", "time": 6680, "note": 63, "velocity": 109, "channel": 0}, {"type": "note_on", "time": 426, "note": 65, "velocity": 115, "channel": 0}, {"type": "note_off", "time": 8528, "note": 65, "velocity": 115, "channel": 0}, {"type": "note_on", "time": 426, "note": 61, "velocity": 109, "channel": 0}, {"type": "note_off", "time": 4406, "note": 61, "velocity": 109, "channel": 0}, {"type": "note_on", "time": 426, "note": 60, "velocity": 108, "channel": 0}, {"type": "note_off", "time": 4264, "note": 60, "velocity": 108, "channel": 0}, {"type": "note_on", "time": 1279, "note": 58, "velocity": 94, "channel": 0}, {"type": "note_off", "time": 7533, "note": 58, "velocity": 94, "channel": 0}, {"type": "note_on", "time": 994, "note": 63, "velocity": 121, "channel": 0}, {"type": "note_off", "time": 7107, "note": 63, "velocity": 121, "channel": 0}, {"type": "note_on", "time": 426, "note": 62, "velocity": 112, "channel": 0}, {"type": "note_off", "time": 8528, "note": 62, "velocity": 112, "channel": 0}, {"type": "note_on", "time": 426, "note": 61, "velocity": 103, "channel": 0}, {"type": "note_off", "time": 9523, "note": 61, "velocity": 103, "channel": 0}, {"type": "note_on", "time": 710, "note": 60, "velocity": 104, "channel": 0}, {"type": "note_off", "time": 10092, "note": 60, "velocity": 104, "channel": 0}, {"type": "note_on", "time": 1279, "note": 59, "velocity": 97, "channel": 0}, {"type": "note_off", "time": 7959, "note": 59, "velocity": 97, "channel": 0}, {"type": "note_on", "time": 3411, "note": 58, "velocity": 105, "channel": 0}, {"type": "note_off", "time": 10802, "note": 58, "velocity": 105, "channel": 0}, {"type": "note_on", "time": 852, "note": 56, "velocity": 97, "channel": 0}, {"type": "note_off", "time": 10092, "note": 56, "velocity": 97, "channel": 0}, {"type": "note_on", "time": 1847, "note": 54, "velocity": 93, "channel": 0}, {"type": "note_off", "time": 8670, "note": 54, "velocity": 93, "channel": 0}, {"type": "note_on", "time": 2274, "note": 53, "velocity": 98, "channel": 0}, {"type": "note_off", "time": 8102, "note": 53, "velocity": 98, "channel": 0}, {"type": "note_on", "time": 2416, "note": 51, "velocity": 95, "channel": 0}, {"type": "note_off", "time": 9523, "note": 51, "velocity": 95, "channel": 0}, {"type": "note_on", "time": 4264, "note": 53, "velocity": 102, "channel": 0}, {"type": "note_off", "time": 10092, "note": 53, "velocity": 102, "channel": 0}, {"type": "note_on", "time": 2274, "note": 48, "velocity": 92, "channel": 0}, {"type": "note_off", "time": 11797, "note": 48, "velocity": 92, "channel": 0}, {"type": "note_on", "time": 1923, "note": 47, "velocity": 102, "channel": 0}, {"type": "note_off", "time": 12508, "note": 47, "velocity": 102, "channel": 0}, {"type": "note_on", "time": 3051, "note": 46, "velocity": 95, "channel": 0}, {"type": "note_off", "time": 8670, "note": 46, "velocity": 95, "channel": 0}, {"type": "note_on", "time": 1705, "note": 45, "velocity": 90, "channel": 0}, {"type": "note_off", "time": 14640, "note": 45, "velocity": 90, "channel": 0}, {"type": "note_on", "time": 3695, "note": 43, "velocity": 93, "channel": 0}, {"type": "note_off", "time": 13503, "note": 43, "velocity": 93, "channel": 0}, {"type": "note_on", "time": 2700, "note": 44, "velocity": 97, "channel": 0}, {"type": "note_off", "time": 10518, "note": 44, "velocity": 97, "channel": 0}, {"type": "note_on", "time": 3362, "note": 51, "velocity": 99, "channel": 0}, {"type": "note_off", "time": 10194, "note": 51, "velocity": 99, "channel": 0}, {"type": "note_on", "time": 199, "note": 53, "velocity": 97, "channel": 0}, {"type": "note_off", "time": 10194, "note": 53, "velocity": 97, "channel": 0}, {"type": "note_on", "time": 1399, "note": 48, "velocity": 89, "channel": 0}, {"type": "note_off", "time": 9194, "note": 48, "velocity": 89, "channel": 0}, {"type": "note_on", "time": 564, "note": 46, "velocity": 89, "channel": 0}, {"type": "note_off", "time": 4197, "note": 46, "velocity": 89, "channel": 0}, {"type": "note_on", "time": 10629, "note": 60, "velocity": 102, "channel": 0}, {"type": "note_off", "time": 6796, "note": 60, "velocity": 102, "channel": 0}, {"type": "note_on", "time": 1399, "note": 56, "velocity": 96, "channel": 0}, {"type": "note_off", "time": 6396, "note": 56, "velocity": 96, "channel": 0}, {"type": "note_on", "time": 7395, "note": 58, "velocity": 107, "channel": 0}, {"type": "note_off", "time": 7395, "note": 58, "velocity": 107, "channel": 0}, {"type": "note_on", "time": 199, "note": 63, "velocity": 119, "channel": 0}, {"type": "note_off", "time": 9794, "note": 63, "velocity": 119, "channel": 0}, {"type": "note_on", "time": 399, "note": 64, "velocity": 122, "channel": 0}, {"type": "note_off", "time": 9794, "note": 64, "velocity": 122, "channel": 0}, {"type": "note_on", "time": 799, "note": 61, "velocity": 100, "channel": 0}, {"type": "note_off", "time": 8595, "note": 61, "velocity": 100, "channel": 0}, {"type": "note_on", "time": 999, "note": 60, "velocity": 101, "channel": 0}, {"type": "note_off", "time": 11793, "note": 60, "velocity": 101, "channel": 0}, {"type": "note_on", "time": 1998, "note": 70, "velocity": 103, "channel": 0}, {"type": "note_off", "time": 6196, "note": 70, "velocity": 103, "channel": 0}, {"type": "note_on", "time": 1998, "note": 68, "velocity": 92, "channel": 0}, {"type": "note_off", "time": 8794, "note": 68, "velocity": 92, "channel": 0}, {"type": "note_on", "time": 999, "note": 71, "velocity": 101, "channel": 0}, {"type": "note_off", "time": 9194, "note": 71, "velocity": 101, "channel": 0}, {"type": "note_on", "time": 999, "note": 66, "velocity": 101, "channel": 0}, {"type": "note_off", "time": 11193, "note": 66, "velocity": 101, "channel": 0}, {"type": "note_on", "time": 199, "note": 65, "velocity": 99, "channel": 0}, {"type": "note_off", "time": 7595, "note": 65, "velocity": 99, "channel": 0}, {"type": "note_on", "time": 599, "note": 63, "velocity": 100, "channel": 0}, {"type": "note_off", "time": 7395, "note": 63, "velocity": 100, "channel": 0}, {"type": "note_on", "time": 1798, "note": 64, "velocity": 105, "channel": 0}, {"type": "note_off", "time": 11993, "note": 64, "velocity": 105, "channel": 0}, {"type": "note_on", "time": 1599, "note": 65, "velocity": 101, "channel": 0}, {"type": "note_off", "time": 9394, "note": 65, "velocity": 101, "channel": 0}, {"type": "note_on", "time": 1399, "note": 60, "velocity": 101, "channel": 0}, {"type": "note_off", "time": 8994, "note": 60, "velocity": 101, "channel": 0}, {"type": "note_on", "time": 599, "note": 58, "velocity": 87, "channel": 0}, {"type": "note_off", "time": 25385, "note": 58, "velocity": 87, "channel": 0}, {"type": "note_on", "time": 95945, "note": 72, "velocity": 113, "channel": 0}, {"type": "note_off", "time": 7395, "note": 72, "velocity": 113, "channel": 0}, {"type": "note_on", "time": 199, "note": 73, "velocity": 110, "channel": 0}, {"type": "note_off", "time": 11393, "note": 73, "velocity": 110, "channel": 0}, {"type": "note_on", "time": 2198, "note": 75, "velocity": 97, "channel": 0}, {"type": "note_off", "time": 39377, "note": 75, "velocity": 97, "channel": 0}, {"type": "note_on", "time": 1998, "note": 73, "velocity": 90, "channel": 0}, {"type": "note_off", "time": 15790, "note": 73, "velocity": 90, "channel": 0}, {"type": "note_on", "time": 599, "note": 72, "velocity": 107, "channel": 0}, {"type": "note_off", "time": 18789, "note": 72, "velocity": 107, "channel": 0}, {"type": "note_on", "time": 3198, "note": 70, "velocity": 94, "channel": 0}, {"type": "note_off", "time": 25585, "note": 70, "velocity": 94, "channel": 0}, {"type": "note_on", "time": 737, "note": 71, "velocity": 103, "channel": 0}, {"type": "note_off", "time": 28383, "note": 71, "velocity": 103, "channel": 0}, {"type": "note_on", "time": 2860, "note": 64, "velocity": 108, "channel": 0}, {"type": "note_off", "time": 23186, "note": 64, "velocity": 108, "channel": 0}, {"type": "note_on", "time": 3398, "note": 75, "velocity": 104, "channel": 0}, {"type": "note_off", "time": 27584, "note": 75, "velocity": 104, "channel": 0}, {"type": "note_on", "time": 1599, "note": 74, "velocity": 100, "channel": 0}, {"type": "note_off", "time": 17390, "note": 74, "velocity": 100, "channel": 0}, {"type": "note_on", "time": 399, "note": 70, "velocity": 102, "channel": 0}, {"type": "note_off", "time": 9794, "note": 70, "velocity": 102, "channel": 0}, {"type": "note_on", "time": 199, "note": 71, "velocity": 101, "channel": 0}, {"type": "note_off", "time": 8595, "note": 71, "velocity": 101, "channel": 0}, {"type": "note_on", "time": 399, "note": 64, "velocity": 105, "channel": 0}, {"type": "note_off", "time": 14991, "note": 64, "velocity": 105, "channel": 0}, {"type": "note_on", "time": 1599, "note": 62, "velocity": 111, "channel": 0}, {"type": "note_off", "time": 7995, "note": 62, "velocity": 111, "channel": 0}, {"type": "note_on", "time": 499, "note": 63, "velocity": 101, "channel": 0}, {"type": "note_off", "time": 6995, "note": 63, "velocity": 101, "channel": 0}, {"type": "note_on", "time": 1299, "note": 60, "velocity": 110, "channel": 0}, {"type": "note_off", "time": 4497, "note": 60, "velocity": 110, "channel": 0}, {"type": "note_on", "time": 299, "note": 61, "velocity": 101, "channel": 0}, {"type": "note_off", "time": 8395, "note": 61, "velocity": 101, "channel": 0}, {"type": "note_on", "time": 1798, "note": 59, "velocity": 110, "channel": 0}, {"type": "note_off", "time": 4997, "note": 59, "velocity": 110, "channel": 0}, {"type": "note_on", "time": 3198, "note": 59, "velocity": 105, "channel": 0}, {"type": "note_off", "time": 11893, "note": 59, "velocity": 105, "channel": 0}, {"type": "note_on", "time": 1898, "note": 58, "velocity": 98, "channel": 0}, {"type": "note_off", "time": 9394, "note": 58, "velocity": 98, "channel": 0}, {"type": "note_on", "time": 4597, "note": 51, "velocity": 96, "channel": 0}, {"type": "note_off", "time": 8794, "note": 51, "velocity": 96, "channel": 0}, {"type": "note_on", "time": 3098, "note": 58, "velocity": 103, "channel": 0}, {"type": "note_off", "time": 7995, "note": 58, "velocity": 103, "channel": 0}, {"type": "note_on", "time": 8095, "note": 48, "velocity": 93, "channel": 0}, {"type": "note_off", "time": 13992, "note": 48, "velocity": 93, "channel": 0}, {"type": "note_on", "time": 75756, "note": 57, "velocity": 96, "channel": 0}, {"type": "note_off", "time": 3695, "note": 57, "velocity": 96, "channel": 0}, {"type": "note_on", "time": 10246, "note": 47, "velocity": 103, "channel": 0}, {"type": "note_off", "time": 2558, "note": 47, "velocity": 103, "channel": 0}, {"type": "note_on", "time": 439, "note": 48, "velocity": 103, "channel": 0}, {"type": "note_off", "time": 3446, "note": 48, "velocity": 103, "channel": 0}, {"type": "note_on", "time": 750, "note": 51, "velocity": 99, "channel": 0}, {"type": "note_off", "time": 3766, "note": 51, "velocity": 99, "channel": 0}, {"type": "note_on", "time": 1580, "note": 53, "velocity": 106, "channel": 0}, {"type": "note_off", "time": 3553, "note": 53, "velocity": 106, "channel": 0}, {"type": "note_on", "time": 544, "note": 50, "velocity": 99, "channel": 0}, {"type": "note_off", "time": 6346, "note": 50, "velocity": 99, "channel": 0}, {"type": "note_on", "time": 5896, "note": 53, "velocity": 108, "channel": 0}, {"type": "note_off", "time": 2842, "note": 53, "velocity": 108, "channel": 0}, {"type": "note_on", "time": 1604, "note": 48, "velocity": 101, "channel": 0}, {"type": "note_off", "time": 3411, "note": 48, "velocity": 101, "channel": 0}, {"type": "note_on", "time": 1185, "note": 53, "velocity": 97, "channel": 0}, {"type": "note_off", "time": 3747, "note": 53, "velocity": 97, "channel": 0}, {"type": "note_on", "time": 949, "note": 48, "velocity": 97, "channel": 0}, {"type": "note_off", "time": 3947, "note": 48, "velocity": 97, "channel": 0}, {"type": "note_on", "time": 2198, "note": 53, "velocity": 92, "channel": 0}, {"type": "note_off", "time": 2948, "note": 53, "velocity": 92, "channel": 0}, {"type": "note_on", "time": 1349, "note": 48, "velocity": 93, "channel": 0}, {"type": "note_off", "time": 3997, "note": 48, "velocity": 93, "channel": 0}, {"type": "note_on", "time": 2448, "note": 53, "velocity": 84, "channel": 0}, {"type": "note_off", "time": 3298, "note": 53, "velocity": 84, "channel": 0}, {"type": "note_on", "time": 699, "note": 48, "velocity": 101, "channel": 0}, {"type": "note_off", "time": 3248, "note": 48, "velocity": 101, "channel": 0}, {"type": "note_on", "time": 1049, "note": 53, "velocity": 99, "channel": 0}, {"type": "note_off", "time": 2698, "note": 53, "velocity": 99, "channel": 0}, {"type": "note_on", "time": 2048, "note": 44, "velocity": 104, "channel": 0}, {"type": "note_off", "time": 5543, "note": 44, "velocity": 104, "channel": 0}, {"type": "note_on", "time": 26488, "note": 51, "velocity": 99, "channel": 0}, {"type": "note_off", "time": 5396, "note": 51, "velocity": 99, "channel": 0}, {"type": "note_on", "time": 1998, "note": 58, "velocity": 103, "channel": 0}, {"type": "note_off", "time": 7195, "note": 58, "velocity": 103, "channel": 0}, {"type": "note_on", "time": 399, "note": 55, "velocity": 102, "channel": 0}, {"type": "note_off", "time": 3797, "note": 55, "velocity": 102, "channel": 0}, {"type": "note_on", "time": 399, "note": 56, "velocity": 105, "channel": 0}, {"type": "note_off", "time": 3198, "note": 56, "velocity": 105, "channel": 0}, {"type": "note_on", "time": 799, "note": 58, "velocity": 110, "channel": 0}, {"type": "note_off", "time": 7595, "note": 58, "velocity": 110, "channel": 0}, {"type": "note_on", "time": 499, "note": 60, "velocity": 114, "channel": 0}, {"type": "note_off", "time": 4897, "note": 60, "velocity": 114, "channel": 0}, {"type": "note_on", "time": 249, "note": 61, "velocity": 107, "channel": 0}, {"type": "note_off", "time": 4197, "note": 61, "velocity": 107, "channel": 0}, {"type": "note_on", "time": 799, "note": 63, "velocity": 111, "channel": 0}, {"type": "note_off", "time": 6296, "note": 63, "velocity": 111, "channel": 0}, {"type": "note_on", "time": 494, "note": 65, "velocity": 107, "channel": 0}, {"type": "note_off", "time": 2913, "note": 65, "velocity": 107, "channel": 0}, {"type": "note_on", "time": 568, "note": 67, "velocity": 105, "channel": 0}, {"type": "note_off", "time": 2807, "note": 67, "velocity": 105, "channel": 0}, {"type": "note_on", "time": 1030, "note": 68, "velocity": 103, "channel": 0}, {"type": "note_off", "time": 5934, "note": 68, "velocity": 103, "channel": 0}, {"type": "note_on", "time": 493, "note": 70, "velocity": 103, "channel": 0}, {"type": "note_off", "time": 5596, "note": 70, "velocity": 103, "channel": 0}, {"type": "note_on", "time": 448, "note": 72, "velocity": 112, "channel": 0}, {"type": "note_off", "time": 5685, "note": 72, "velocity": 112, "channel": 0}, {"type": "note_on", "time": 0, "note": 73, "velocity": 114, "channel": 0}, {"type": "note_off", "time": 3411, "note": 73, "velocity": 114, "channel": 0}, {"type": "note_on", "time": 568, "note": 75, "velocity": 116, "channel": 0}, {"type": "note_off", "time": 5969, "note": 75, "velocity": 116, "channel": 0}, {"type": "note_on", "time": 568, "note": 74, "velocity": 102, "channel": 0}, {"type": "note_off", "time": 115418, "note": 74, "velocity": 102, "channel": 0}, {"type": "note_on", "time": 26651, "note": 77, "velocity": 110, "channel": 0}, {"type": "note_off", "time": 2984, "note": 77, "velocity": 110, "channel": 0}, {"type": "note_on", "time": 284, "note": 79, "velocity": 116, "channel": 0}, {"type": "note_off", "time": 9239, "note": 79, "velocity": 116, "channel": 0}, {"type": "note_on", "time": 870, "note": 78, "velocity": 111, "channel": 0}, {"type": "note_off", "time": 3198, "note": 78, "velocity": 111, "channel": 0}, {"type": "note_on", "time": 550, "note": 80, "velocity": 100, "channel": 0}, {"type": "note_off", "time": 99498, "note": 80, "velocity": 100, "channel": 0}, {"type": "note_on", "time": 892, "note": 75, "velocity": 109, "channel": 0}, {"type": "note_off", "time": 2148, "note": 75, "velocity": 109, "channel": 0}, {"type": "note_on", "time": 249, "note": 76, "velocity": 111, "channel": 0}, {"type": "note_off", "time": 2648, "note": 76, "velocity": 111, "channel": 0}, {"type": "note_on", "time": 3725, "note": 80, "velocity": 84, "channel": 0}, {"type": "note_off", "time": 2274, "note": 80, "velocity": 84, "channel": 0}, {"type": "note_on", "time": 38662, "note": 73, "velocity": 109, "channel": 0}, {"type": "note_off", "time": 7959, "note": 73, "velocity": 109, "channel": 0}, {"type": "note_on", "time": 1421, "note": 70, "velocity": 111, "channel": 0}, {"type": "note_off", "time": 7959, "note": 70, "velocity": 111, "channel": 0}, {"type": "note_on", "time": 5008, "note": 73, "velocity": 107, "channel": 0}, {"type": "note_off", "time": 6596, "note": 73, "velocity": 107, "channel": 0}, {"type": "note_on", "time": 10569, "note": 73, "velocity": 105, "channel": 0}, {"type": "note_off", "time": 29281, "note": 73, "velocity": 105, "channel": 0}, {"type": "note_on", "time": 1137, "note": 70, "velocity": 110, "channel": 0}, {"type": "note_off", "time": 5117, "note": 70, "velocity": 110, "channel": 0}, {"type": "note_on", "time": 852, "note": 66, "velocity": 105, "channel": 0}, {"type": "note_off", "time": 5685, "note": 66, "velocity": 105, "channel": 0}, {"type": "note_on", "time": 1421, "note": 65, "velocity": 88, "channel": 0}, {"type": "note_off", "time": 9097, "note": 65, "velocity": 88, "channel": 0}, {"type": "note_on", "time": 2842, "note": 63, "velocity": 106, "channel": 0}, {"type": "note_off", "time": 6254, "note": 63, "velocity": 106, "channel": 0}, {"type": "note_on", "time": 4264, "note": 72, "velocity": 102, "channel": 0}, {"type": "note_off", "time": 7675, "note": 72, "velocity": 102, "channel": 0}, {"type": "note_on", "time": 3979, "note": 68, "velocity": 102, "channel": 0}, {"type": "note_off", "time": 5969, "note": 68, "velocity": 102, "channel": 0}, {"type": "note_on", "time": 2558, "note": 71, "velocity": 110, "channel": 0}, {"type": "note_off", "time": 21321, "note": 71, "velocity": 110, "channel": 0}, {"type": "note_on", "time": 16488, "note": 69, "velocity": 117, "channel": 0}, {"type": "note_off", "time": 7391, "note": 69, "velocity": 117, "channel": 0}, {"type": "note_on", "time": 852, "note": 66, "velocity": 104, "channel": 0}, {"type": "note_off", "time": 5969, "note": 66, "velocity": 104, "channel": 0}, {"type": "note_on", "time": 5481, "note": 68, "velocity": 114, "channel": 0}, {"type": "note_off", "time": 2948, "note": 68, "velocity": 114, "channel": 0}, {"type": "note_on", "time": 349, "note": 69, "velocity": 110, "channel": 0}, {"type": "note_off", "time": 20388, "note": 69, "velocity": 110, "channel": 0}, {"type": "note_on", "time": 1250, "note": 66, "velocity": 103, "channel": 0}, {"type": "note_off", "time": 2984, "note": 66, "velocity": 103, "channel": 0}, {"type": "note_on", "time": 142, "note": 69, "velocity": 110, "channel": 0}, {"type": "note_off", "time": 2132, "note": 69, "velocity": 110, "channel": 0}, {"type": "note_on", "time": 959, "note": 66, "velocity": 106, "channel": 0}, {"type": "note_off", "time": 2274, "note": 66, "velocity": 106, "channel": 0}, {"type": "note_on", "time": 71, "note": 62, "velocity": 103, "channel": 0}, {"type": "note_off", "time": 3304, "note": 62, "velocity": 103, "channel": 0}, {"type": "note_on", "time": 12566, "note": 68, "velocity": 107, "channel": 0}, {"type": "note_off", "time": 3797, "note": 68, "velocity": 107, "channel": 0}, {"type": "note_on", "time": 299, "note": 69, "velocity": 97, "channel": 0}, {"type": "note_off", "time": 2298, "note": 69, "velocity": 97, "channel": 0}, {"type": "note_on", "time": 2571, "note": 66, "velocity": 111, "channel": 0}, {"type": "note_off", "time": 3553, "note": 66, "velocity": 111, "channel": 0}, {"type": "note_on", "time": 0, "note": 62, "velocity": 100, "channel": 0}, {"type": "note_off", "time": 4974, "note": 62, "velocity": 100, "channel": 0}, {"type": "note_on", "time": 710, "note": 59, "velocity": 86, "channel": 0}, {"type": "note_off", "time": 5969, "note": 59, "velocity": 86, "channel": 0}, {"type": "note_on", "time": 5685, "note": 63, "velocity": 118, "channel": 0}, {"type": "note_off", "time": 6964, "note": 63, "velocity": 118, "channel": 0}, {"type": "note_on", "time": 1137, "note": 70, "velocity": 111, "channel": 0}, {"type": "note_off", "time": 6538, "note": 70, "velocity": 111, "channel": 0}, {"type": "note_on", "time": 426, "note": 68, "velocity": 106, "channel": 0}, {"type": "note_off", "time": 5543, "note": 68, "velocity": 106, "channel": 0}, {"type": "note_on", "time": 284, "note": 65, "velocity": 102, "channel": 0}, {"type": "note_off", "time": 10660, "note": 65, "velocity": 102, "channel": 0}, {"type": "note_on", "time": 568, "note": 60, "velocity": 103, "channel": 0}, {"type": "note_off", "time": 10944, "note": 60, "velocity": 103, "channel": 0}, {"type": "note_on", "time": 4832, "note": 63, "velocity": 116, "channel": 0}, {"type": "note_off", "time": 8670, "note": 63, "velocity": 116, "channel": 0}, {"type": "note_on", "time": 852, "note": 60, "velocity": 102, "channel": 0}, {"type": "note_off", "time": 8244, "note": 60, "velocity": 102, "channel": 0}, {"type": "note_on", "time": 426, "note": 58, "velocity": 99, "channel": 0}, {"type": "note_off", "time": 10234, "note": 58, "velocity": 99, "channel": 0}, {"type": "note_on", "time": 1847, "note": 51, "velocity": 96, "channel": 0}, {"type": "note_off", "time": 8812, "note": 51, "velocity": 96, "channel": 0}, {"type": "note_on", "time": 1279, "note": 48, "velocity": 92, "channel": 0}, {"type": "note_off", "time": 8386, "note": 48, "velocity": 92, "channel": 0}, {"type": "note_on", "time": 1705, "note": 46, "velocity": 104, "channel": 0}, {"type": "note_off", "time": 8244, "note": 46, "velocity": 104, "channel": 0}, {"type": "note_on", "time": 1137, "note": 51, "velocity": 102, "channel": 0}, {"type": "note_off", "time": 8954, "note": 51, "velocity": 102, "channel": 0}, {"type": "note_on", "time": 955, "note": 53, "velocity": 93, "channel": 0}, {"type": "note_off", "time": 25985, "note": 53, "velocity": 93, "channel": 0}, {"type": "note_on", "time": 45573, "note": 48, "velocity": 95, "channel": 0}, {"type": "note_off", "time": 4264, "note": 48, "velocity": 95, "channel": 0}, {"type": "note_on", "time": 533, "note": 49, "velocity": 98, "channel": 0}, {"type": "note_off", "time": 5685, "note": 49, "velocity": 98, "channel": 0}, {"type": "note_on", "time": 1150, "note": 51, "velocity": 102, "channel": 0}, {"type": "note_off", "time": 7249, "note": 51, "velocity": 102, "channel": 0}, {"type": "note_on", "time": 1505, "note": 49, "velocity": 102, "channel": 0}, {"type": "note_off", "time": 5401, "note": 49, "velocity": 102, "channel": 0}, {"type": "note_on", "time": 1294, "note": 48, "velocity": 99, "channel": 0}, {"type": "note_off", "time": 3127, "note": 48, "velocity": 99, "channel": 0}, {"type": "note_on", "time": 370, "note": 46, "velocity": 100, "channel": 0}, {"type": "note_off", "time": 3553, "note": 46, "velocity": 100, "channel": 0}, {"type": "note_on", "time": 2842, "note": 45, "velocity": 98, "channel": 0}, {"type": "note_off", "time": 7533, "note": 45, "velocity": 98, "channel": 0}, {"type": "note_on", "time": 1761, "note": 48, "velocity": 93, "channel": 0}, {"type": "note_off", "time": 3979, "note": 48, "velocity": 93, "channel": 0}, {"type": "note_on", "time": 317, "note": 49, "velocity": 97, "channel": 0}, {"type": "note_off", "time": 3837, "note": 49, "velocity": 97, "channel": 0}, {"type": "note_on", "time": 861, "note": 51, "velocity": 92, "channel": 0}, {"type": "note_off", "time": 6538, "note": 51, "velocity": 92, "channel": 0}, {"type": "note_on", "time": 1421, "note": 53, "velocity": 104, "channel": 0}, {"type": "note_off", "time": 6538, "note": 53, "velocity": 104, "channel": 0}, {"type": "note_on", "time": 2700, "note": 50, "velocity": 112, "channel": 0}, {"type": "note_off", "time": 3411, "note": 50, "velocity": 112, "channel": 0}, {"type": "note_on", "time": 284, "note": 51, "velocity": 107, "channel": 0}, {"type": "note_off", "time": 4548, "note": 51, "velocity": 107, "channel": 0}, {"type": "note_on", "time": 1563, "note": 53, "velocity": 107, "channel": 0}, {"type": "note_off", "time": 3411, "note": 53, "velocity": 107, "channel": 0}, {"type": "note_on", "time": 710, "note": 54, "velocity": 103, "channel": 0}, {"type": "note_off", "time": 6112, "note": 54, "velocity": 103, "channel": 0}, {"type": "note_on", "time": 1847, "note": 55, "velocity": 100, "channel": 0}, {"type": "note_off", "time": 2558, "note": 55, "velocity": 100, "channel": 0}, {"type": "note_on", "time": 142, "note": 56, "velocity": 101, "channel": 0}, {"type": "note_off", "time": 3979, "note": 56, "velocity": 101, "channel": 0}, {"type": "note_on", "time": 142, "note": 58, "velocity": 108, "channel": 0}, {"type": "note_off", "time": 8528, "note": 58, "velocity": 108, "channel": 0}, {"type": "note_on", "time": 710, "note": 55, "velocity": 98, "channel": 0}, {"type": "note_off", "time": 4406, "note": 55, "velocity": 98, "channel": 0}, {"type": "note_on", "time": 426, "note": 56, "velocity": 98, "channel": 0}, {"type": "note_off", "time": 6822, "note": 56, "velocity": 98, "channel": 0}, {"type": "note_on", "time": 568, "note": 58, "velocity": 101, "channel": 0}, {"type": "note_off", "time": 10660, "note": 58, "velocity": 101, "channel": 0}, {"type": "note_on", "time": 1847, "note": 60, "velocity": 108, "channel": 0}, {"type": "note_off", "time": 6396, "note": 60, "velocity": 108, "channel": 0}, {"type": "note_on", "time": 284, "note": 61, "velocity": 99, "channel": 0}, {"type": "note_off", "time": 2842, "note": 61, "velocity": 99, "channel": 0}, {"type": "note_on", "time": 426, "note": 63, "velocity": 107, "channel": 0}, {"type": "note_off", "time": 8244, "note": 63, "velocity": 107, "channel": 0}, {"type": "note_on", "time": 142, "note": 64, "velocity": 112, "channel": 0}, {"type": "note_off", "time": 4974, "note": 64, "velocity": 112, "channel": 0}, {"type": "note_on", "time": 284, "note": 66, "velocity": 111, "channel": 0}, {"type": "note_off", "time": 5543, "note": 66, "velocity": 111, "channel": 0}, {"type": "note_on", "time": 568, "note": 68, "velocity": 109, "channel": 0}, {"type": "note_off", "time": 6254, "note": 68, "velocity": 109, "channel": 0}, {"type": "note_on", "time": 284, "note": 70, "velocity": 110, "channel": 0}, {"type": "note_off", "time": 6396, "note": 70, "velocity": 110, "channel": 0}, {"type": "note_on", "time": 142, "note": 71, "velocity": 114, "channel": 0}, {"type": "note_off", "time": 7107, "note": 71, "velocity": 114, "channel": 0}, {"type": "note_on", "time": 0, "note": 73, "velocity": 108, "channel": 0}, {"type": "note_off", "time": 6112, "note": 73, "velocity": 108, "channel": 0}, {"type": "note_on", "time": 533, "note": 71, "velocity": 104, "channel": 0}, {"type": "note_off", "time": 22387, "note": 71, "velocity": 104, "channel": 0}, {"type": "note_on", "time": 999, "note": 71, "velocity": 108, "channel": 0}, {"type": "note_off", "time": 4097, "note": 71, "velocity": 108, "channel": 0}, {"type": "note_on", "time": 979, "note": 69, "velocity": 103, "channel": 0}, {"type": "note_off", "time": 5117, "note": 69, "velocity": 103, "channel": 0}, {"type": "note_on", "time": 426, "note": 66, "velocity": 107, "channel": 0}, {"type": "note_off", "time": 4264, "note": 66, "velocity": 107, "channel": 0}, {"type": "note_on", "time": 284, "note": 64, "velocity": 115, "channel": 0}, {"type": "note_off", "time": 7249, "note": 64, "velocity": 115, "channel": 0}, {"type": "note_on", "time": 34398, "note": 44, "velocity": 106, "channel": 0}, {"type": "note_off", "time": 7959, "note": 44, "velocity": 106, "channel": 0}, {"type": "note_on", "time": 710, "note": 45, "velocity": 106, "channel": 0}, {"type": "note_off", "time": 7249, "note": 45, "velocity": 106, "channel": 0}, {"type": "note_on", "time": 6040, "note": 58, "velocity": 107, "channel": 0}, {"type": "note_off", "time": 2700, "note": 58, "velocity": 107, "channel": 0}, {"type": "note_on", "time": 248, "note": 59, "velocity": 97, "channel": 0}, {"type": "note_off", "time": 8457, "note": 59, "velocity": 97, "channel": 0}, {"type": "note_on", "time": 1172, "note": 51, "velocity": 99, "channel": 0}, {"type": "note_off", "time": 27717, "note": 51, "velocity": 99, "channel": 0}, {"type": "note_on", "time": 4455, "note": 52, "velocity": 104, "channel": 0}, {"type": "note_off", "time": 17290, "note": 52, "velocity": 104, "channel": 0}, {"type": "note_on", "time": 2098, "note": 56, "velocity": 111, "channel": 0}, {"type": "note_off", "time": 11593, "note": 56, "velocity": 111, "channel": 0}, {"type": "note_on", "time": 8768, "note": 59, "velocity": 97, "channel": 0}, {"type": "note_off", "time": 12366, "note": 59, "velocity": 97, "channel": 0}, {"type": "note_on", "time": 2700, "note": 63, "velocity": 117, "channel": 0}, {"type": "note_off", "time": 13503, "note": 63, "velocity": 117, "channel": 0}, {"type": "note_on", "time": 1847, "note": 64, "velocity": 119, "channel": 0}, {"type": "note_off", "time": 15351, "note": 64, "velocity": 119, "channel": 0}, {"type": "note_on", "time": 2416, "note": 61, "velocity": 97, "channel": 0}, {"type": "note_off", "time": 14924, "note": 61, "velocity": 97, "channel": 0}, {"type": "note_on", "time": 284, "note": 67, "velocity": 109, "channel": 0}, {"type": "note_off", "time": 5346, "note": 67, "velocity": 109, "channel": 0}, {"type": "note_on", "time": 545, "note": 68, "velocity": 105, "channel": 0}, {"type": "note_off", "time": 9744, "note": 68, "velocity": 105, "channel": 0}, {"type": "note_on", "time": 899, "note": 66, "velocity": 107, "channel": 0}, {"type": "note_off", "time": 3198, "note": 66, "velocity": 107, "channel": 0}, {"type": "note_on", "time": 249, "note": 68, "velocity": 92, "channel": 0}, {"type": "note_off", "time": 54768, "note": 68, "velocity": 92, "channel": 0}, {"type": "note_on", "time": 1399, "note": 66, "velocity": 103, "channel": 0}, {"type": "note_off", "time": 7995, "note": 66, "velocity": 103, "channel": 0}, {"type": "note_on", "time": 399, "note": 64, "velocity": 111, "channel": 0}, {"type": "note_off", "time": 7395, "note": 64, "velocity": 111, "channel": 0}, {"type": "note_on", "time": 1399, "note": 63, "velocity": 101, "channel": 0}, {"type": "note_off", "time": 16590, "note": 63, "velocity": 101, "channel": 0}, {"type": "note_on", "time": 53369, "note": 61, "velocity": 119, "channel": 0}, {"type": "note_off", "time": 8395, "note": 61, "velocity": 119, "channel": 0}, {"type": "note_on", "time": 799, "note": 63, "velocity": 127, "channel": 0}, {"type": "note_off", "time": 9294, "note": 63, "velocity": 127, "channel": 0}, {"type": "note_on", "time": 1299, "note": 62, "velocity": 119, "channel": 0}, {"type": "note_off", "time": 3797, "note": 62, "velocity": 119, "channel": 0}, {"type": "note_on", "time": 499, "note": 64, "velocity": 120, "channel": 0}, {"type": "note_off", "time": 13092, "note": 64, "velocity": 120, "channel": 0}, {"type": "note_on", "time": 648, "note": 62, "velocity": 123, "channel": 0}, {"type": "note_off", "time": 3411, "note": 62, "velocity": 123, "channel": 0}, {"type": "note_on", "time": 426, "note": 64, "velocity": 117, "channel": 0}, {"type": "note_off", "time": 45129, "note": 64, "velocity": 117, "channel": 0}, {"type": "note_on", "time": 355, "note": 61, "velocity": 108, "channel": 0}, {"type": "note_off", "time": 5796, "note": 61, "velocity": 108, "channel": 0}, {"type": "note_on", "time": 399, "note": 56, "velocity": 100, "channel": 0}, {"type": "note_off", "time": 7395, "note": 56, "velocity": 100, "channel": 0}, {"type": "note_on", "time": 2398, "note": 52, "velocity": 102, "channel": 0}, {"type": "note_off", "time": 6995, "note": 52, "velocity": 102, "channel": 0}, {"type": "note_on", "time": 0, "note": 54, "velocity": 96, "channel": 0}, {"type": "note_off", "time": 34180, "note": 54, "velocity": 96, "channel": 0}, {"type": "note_on", "time": 16790, "note": 69, "velocity": 111, "channel": 0}, {"type": "note_off", "time": 4597, "note": 69, "velocity": 111, "channel": 0}, {"type": "note_on", "time": 1599, "note": 71, "velocity": 117, "channel": 0}, {"type": "note_off", "time": 6996, "note": 71, "velocity": 117, "channel": 0}, {"type": "note_on", "time": 599, "note": 67, "velocity": 108, "channel": 0}, {"type": "note_off", "time": 6396, "note": 67, "velocity": 108, "channel": 0}, {"type": "note_on", "time": 399, "note": 66, "velocity": 102, "channel": 0}, {"type": "note_off", "time": 8195, "note": 66, "velocity": 102, "channel": 0}, {"type": "note_on", "time": 999, "note": 64, "velocity": 111, "channel": 0}, {"type": "note_off", "time": 9394, "note": 64, "velocity": 111, "channel": 0}, {"type": "note_on", "time": 599, "note": 62, "velocity": 104, "channel": 0}, {"type": "note_off", "time": 8994, "note": 62, "velocity": 104, "channel": 0}, {"type": "note_on", "time": 1599, "note": 61, "velocity": 95, "channel": 0}, {"type": "note_off", "time": 8395, "note": 61, "velocity": 95, "channel": 0}, {"type": "note_on", "time": 4197, "note": 59, "velocity": 99, "channel": 0}, {"type": "note_off", "time": 6396, "note": 59, "velocity": 99, "channel": 0}, {"type": "note_on", "time": 1599, "note": 55, "velocity": 93, "channel": 0}, {"type": "note_off", "time": 3198, "note": 55, "velocity": 93, "channel": 0}, {"type": "note_on", "time": 199, "note": 59, "velocity": 95, "channel": 0}, {"type": "note_off", "time": 4397, "note": 59, "velocity": 95, "channel": 0}, {"type": "note_on", "time": 399, "note": 55, "velocity": 95, "channel": 0}, {"type": "note_off", "time": 4397, "note": 55, "velocity": 95, "channel": 0}, {"type": "note_on", "time": 1199, "note": 54, "velocity": 97, "channel": 0}, {"type": "note_off", "time": 10793, "note": 54, "velocity": 97, "channel": 0}, {"type": "note_on", "time": 899, "note": 52, "velocity": 100, "channel": 0}, {"type": "note_off", "time": 10793, "note": 52, "velocity": 100, "channel": 0}, {"type": "note_on", "time": 1810, "note": 50, "velocity": 98, "channel": 0}, {"type": "note_off", "time": 2984, "note": 50, "velocity": 98, "channel": 0}, {"type": "note_on", "time": 497, "note": 51, "velocity": 106, "channel": 0}, {"type": "note_off", "time": 9310, "note": 51, "velocity": 106, "channel": 0}, {"type": "note_on", "time": 3287, "note": 47, "velocity": 96, "channel": 0}, {"type": "note_off", "time": 8395, "note": 47, "velocity": 96, "channel": 0}, {"type": "note_on", "time": 1798, "note": 50, "velocity": 88, "channel": 0}, {"type": "note_off", "time": 9194, "note": 50, "velocity": 88, "channel": 0}, {"type": "note_on", "time": 3122, "note": 52, "velocity": 102, "channel": 0}, {"type": "note_off", "time": 12010, "note": 52, "velocity": 102, "channel": 0}, {"type": "note_on", "time": 2256, "note": 54, "velocity": 99, "channel": 0}, {"type": "note_off", "time": 13992, "note": 54, "velocity": 99, "channel": 0}, {"type": "note_on", "time": 1199, "note": 56, "velocity": 104, "channel": 0}, {"type": "note_off", "time": 11593, "note": 56, "velocity": 104, "channel": 0}, {"type": "note_on", "time": 1599, "note": 57, "velocity": 94, "channel": 0}, {"type": "note_off", "time": 11593, "note": 57, "velocity": 94, "channel": 0}, {"type": "note_on", "time": 3997, "note": 59, "velocity": 94, "channel": 0}, {"type": "note_off", "time": 10993, "note": 59, "velocity": 94, "channel": 0}, {"type": "note_on", "time": 3797, "note": 64, "velocity": 121, "channel": 0}, {"type": "note_off", "time": 10593, "note": 64, "velocity": 121, "channel": 0}, {"type": "note_on", "time": 1798, "note": 61, "velocity": 92, "channel": 0}, {"type": "note_off", "time": 9794, "note": 61, "velocity": 92, "channel": 0}, {"type": "note_on", "time": 2998, "note": 62, "velocity": 106, "channel": 0}, {"type": "note_off", "time": 12193, "note": 62, "velocity": 106, "channel": 0}, {"type": "note_on", "time": 2731, "note": 64, "velocity": 111, "channel": 0}, {"type": "note_off", "time": 12153, "note": 64, "velocity": 111, "channel": 0}, {"type": "note_on", "time": 2505, "note": 66, "velocity": 102, "channel": 0}, {"type": "note_off", "time": 9794, "note": 66, "velocity": 102, "channel": 0}, {"type": "note_on", "time": 3193, "note": 69, "velocity": 98, "channel": 0}, {"type": "note_off", "time": 8030, "note": 69, "velocity": 98, "channel": 0}, {"type": "note_on", "time": 3966, "note": 73, "velocity": 94, "channel": 0}, {"type": "note_off", "time": 12592, "note": 73, "velocity": 94, "channel": 0}, {"type": "note_on", "time": 2061, "note": 71, "velocity": 96, "channel": 0}, {"type": "note_off", "time": 4193, "note": 71, "velocity": 96, "channel": 0}, {"type": "note_on", "time": 213, "note": 73, "velocity": 91, "channel": 0}, {"type": "note_off", "time": 40439, "note": 73, "velocity": 91, "channel": 0}, {"type": "note_on", "time": 666, "note": 71, "velocity": 106, "channel": 0}, {"type": "note_off", "time": 4397, "note": 71, "velocity": 106, "channel": 0}, {"type": "note_on", "time": 1599, "note": 69, "velocity": 102, "channel": 0}, {"type": "note_off", "time": 7195, "note": 69, "velocity": 102, "channel": 0}, {"type": "note_on", "time": 1199, "note": 68, "velocity": 100, "channel": 0}, {"type": "note_off", "time": 9394, "note": 68, "velocity": 100, "channel": 0}, {"type": "note_on", "time": 4828, "note": 66, "velocity": 103, "channel": 0}, {"type": "note_off", "time": 9665, "note": 66, "velocity": 103, "channel": 0}, {"type": "note_on", "time": 1496, "note": 64, "velocity": 112, "channel": 0}, {"type": "note_off", "time": 13192, "note": 64, "velocity": 112, "channel": 0}, {"type": "note_on", "time": 799, "note": 62, "velocity": 102, "channel": 0}, {"type": "note_off", "time": 11193, "note": 62, "velocity": 102, "channel": 0}, {"type": "note_on", "time": 1199, "note": 61, "velocity": 96, "channel": 0}, {"type": "note_off", "time": 14391, "note": 61, "velocity": 96, "channel": 0}, {"type": "note_on", "time": 13792, "note": 74, "velocity": 107, "channel": 0}, {"type": "note_off", "time": 6196, "note": 74, "velocity": 107, "channel": 0}, {"type": "note_on", "time": 0, "note": 71, "velocity": 108, "channel": 0}, {"type": "note_off", "time": 4397, "note": 71, "velocity": 108, "channel": 0}, {"type": "note_on", "time": 999, "note": 67, "velocity": 105, "channel": 0}, {"type": "note_off", "time": 3597, "note": 67, "velocity": 105, "channel": 0}, {"type": "note_on", "time": 0, "note": 64, "velocity": 112, "channel": 0}, {"type": "note_off", "time": 8794, "note": 64, "velocity": 112, "channel": 0}, {"type": "note_on", "time": 0, "note": 59, "velocity": 94, "channel": 0}, {"type": "note_off", "time": 7595, "note": 59, "velocity": 94, "channel": 0}, {"type": "note_on", "time": 11353, "note": 57, "velocity": 96, "channel": 0}, {"type": "note_off", "time": 8670, "note": 57, "velocity": 96, "channel": 0}, {"type": "note_on", "time": 2274, "note": 57, "velocity": 104, "channel": 0}, {"type": "note_off", "time": 3411, "note": 57, "velocity": 104, "channel": 0}, {"type": "note_on", "time": 1074, "note": 59, "velocity": 101, "channel": 0}, {"type": "note_off", "time": 31781, "note": 59, "velocity": 101, "channel": 0}, {"type": "note_on", "time": 1185, "note": 57, "velocity": 99, "channel": 0}, {"type": "note_off", "time": 3797, "note": 57, "velocity": 99, "channel": 0}, {"type": "note_on", "time": 1812, "note": 55, "velocity": 101, "channel": 0}, {"type": "note_off", "time": 8195, "note": 55, "velocity": 101, "channel": 0}, {"type": "note_on", "time": 999, "note": 54, "velocity": 98, "channel": 0}, {"type": "note_off", "time": 12592, "note": 54, "velocity": 98, "channel": 0}, {"type": "note_on", "time": 799, "note": 55, "velocity": 93, "channel": 0}, {"type": "note_off", "time": 3797, "note": 55, "velocity": 93, "channel": 0}, {"type": "note_on", "time": 799, "note": 57, "velocity": 99, "channel": 0}, {"type": "note_off", "time": 9794, "note": 57, "velocity": 99, "channel": 0}, {"type": "note_on", "time": 2198, "note": 54, "velocity": 99, "channel": 0}, {"type": "note_off", "time": 6596, "note": 54, "velocity": 99, "channel": 0}, {"type": "note_on", "time": 1399, "note": 55, "velocity": 91, "channel": 0}, {"type": "note_off", "time": 9794, "note": 55, "velocity": 91, "channel": 0}, {"type": "note_on", "time": 1399, "note": 50, "velocity": 88, "channel": 0}, {"type": "note_off", "time": 49171, "note": 50, "velocity": 88, "channel": 0}, {"type": "note_on", "time": 9945, "note": 45, "velocity": 81, "channel": 0}, {"type": "note_off", "time": 3398, "note": 45, "velocity": 81, "channel": 0}, {"type": "note_on", "time": 546, "note": 48, "velocity": 89, "channel": 0}, {"type": "note_off", "time": 1812, "note": 48, "velocity": 89, "channel": 0}, {"type": "note_on", "time": 888, "note": 50, "velocity": 104, "channel": 0}, {"type": "note_off", "time": 3127, "note": 50, "velocity": 104, "channel": 0}, {"type": "note_on", "time": 923, "note": 50, "velocity": 104, "channel": 0}, {"type": "note_off", "time": 3660, "note": 50, "velocity": 104, "channel": 0}, {"type": "note_on", "time": 1283, "note": 48, "velocity": 99, "channel": 0}, {"type": "note_off", "time": 6996, "note": 48, "velocity": 99, "channel": 0}, {"type": "note_on", "time": 799, "note": 50, "velocity": 105, "channel": 0}, {"type": "note_off", "time": 3797, "note": 50, "velocity": 105, "channel": 0}, {"type": "note_on", "time": 3797, "note": 54, "velocity": 105, "channel": 0}, {"type": "note_off", "time": 6796, "note": 54, "velocity": 105, "channel": 0}, {"type": "note_on", "time": 15013, "note": 59, "velocity": 106, "channel": 0}, {"type": "note_off", "time": 2025, "note": 59, "velocity": 106, "channel": 0}, {"type": "note_on", "time": 213, "note": 58, "velocity": 102, "channel": 0}, {"type": "note_off", "time": 5969, "note": 58, "velocity": 102, "channel": 0}, {"type": "note_on", "time": 426, "note": 56, "velocity": 94, "channel": 0}, {"type": "note_off", "time": 3498, "note": 56, "velocity": 94, "channel": 0}, {"type": "note_on", "time": 6234, "note": 62, "velocity": 115, "channel": 0}, {"type": "note_off", "time": 5396, "note": 62, "velocity": 115, "channel": 0}, {"type": "note_on", "time": 415, "note": 61, "velocity": 105, "channel": 0}, {"type": "note_off", "time": 2076, "note": 61, "velocity": 105, "channel": 0}, {"type": "note_on", "time": 306, "note": 60, "velocity": 103, "channel": 0}, {"type": "note_off", "time": 4597, "note": 60, "velocity": 103, "channel": 0}, {"type": "note_on", "time": 599, "note": 58, "velocity": 97, "channel": 0}, {"type": "note_off", "time": 3797, "note": 58, "velocity": 97, "channel": 0}, {"type": "note_on", "time": 4397, "note": 67, "velocity": 105, "channel": 0}, {"type": "note_off", "time": 4597, "note": 67, "velocity": 105, "channel": 0}, {"type": "note_on", "time": 199, "note": 66, "velocity": 104, "channel": 0}, {"type": "note_off", "time": 4197, "note": 66, "velocity": 104, "channel": 0}, {"type": "note_on", "time": 479, "note": 65, "velocity": 108, "channel": 0}, {"type": "note_off", "time": 3411, "note": 65, "velocity": 108, "channel": 0}, {"type": "note_on", "time": 568, "note": 64, "velocity": 109, "channel": 0}, {"type": "note_off", "time": 6112, "note": 64, "velocity": 109, "channel": 0}, {"type": "note_on", "time": 4406, "note": 71, "velocity": 107, "channel": 0}, {"type": "note_off", "time": 4832, "note": 71, "velocity": 107, "channel": 0}, {"type": "note_on", "time": 0, "note": 74, "velocity": 99, "channel": 0}, {"type": "note_off", "time": 2842, "note": 74, "velocity": 99, "channel": 0}, {"type": "note_on", "time": 0, "note": 71, "velocity": 99, "channel": 0}, {"type": "note_off", "time": 3695, "note": 71, "velocity": 99, "channel": 0}, {"type": "note_on", "time": 710, "note": 70, "velocity": 89, "channel": 0}, {"type": "note_off", "time": 3695, "note": 70, "velocity": 89, "channel": 0}, {"type": "note_on", "time": 568, "note": 69, "velocity": 99, "channel": 0}, {"type": "note_off", "time": 9097, "note": 69, "velocity": 99, "channel": 0}, {"type": "note_on", "time": 4690, "note": 68, "velocity": 96, "channel": 0}, {"type": "note_off", "time": 6112, "note": 68, "velocity": 96, "channel": 0}, {"type": "note_on", "time": 1563, "note": 67, "velocity": 100, "channel": 0}, {"type": "note_off", "time": 6254, "note": 67, "velocity": 100, "channel": 0}, {"type": "note_on", "time": 4072, "note": 66, "velocity": 101, "channel": 0}, {"type": "note_off", "time": 6446, "note": 66, "velocity": 101, "channel": 0}, {"type": "note_on", "time": 3269, "note": 65, "velocity": 105, "channel": 0}, {"type": "note_off", "time": 6112, "note": 65, "velocity": 105, "channel": 0}, {"type": "note_on", "time": 1421, "note": 64, "velocity": 106, "channel": 0}, {"type": "note_off", "time": 8528, "note": 64, "velocity": 106, "channel": 0}, {"type": "note_on", "time": 994, "note": 63, "velocity": 107, "channel": 0}, {"type": "note_off", "time": 7533, "note": 63, "velocity": 107, "channel": 0}, {"type": "note_on", "time": 4421, "note": 74, "velocity": 102, "channel": 0}, {"type": "note_off", "time": 7795, "note": 74, "velocity": 102, "channel": 0}, {"type": "note_on", "time": 1499, "note": 70, "velocity": 92, "channel": 0}, {"type": "note_off", "time": 6696, "note": 70, "velocity": 92, "channel": 0}, {"type": "note_on", "time": 699, "note": 67, "velocity": 98, "channel": 0}, {"type": "note_off", "time": 7995, "note": 67, "velocity": 98, "channel": 0}, {"type": "note_on", "time": 999, "note": 66, "velocity": 99, "channel": 0}, {"type": "note_off", "time": 5796, "note": 66, "velocity": 99, "channel": 0}, {"type": "note_on", "time": 1299, "note": 65, "velocity": 100, "channel": 0}, {"type": "note_off", "time": 6796, "note": 65, "velocity": 100, "channel": 0}, {"type": "note_on", "time": 699, "note": 63, "velocity": 110, "channel": 0}, {"type": "note_off", "time": 6496, "note": 63, "velocity": 110, "channel": 0}, {"type": "note_on", "time": 2598, "note": 62, "velocity": 93, "channel": 0}, {"type": "note_off", "time": 21587, "note": 62, "velocity": 93, "channel": 0}, {"type": "note_on", "time": 14891, "note": 75, "velocity": 113, "channel": 0}, {"type": "note_off", "time": 5946, "note": 75, "velocity": 113, "channel": 0}, {"type": "note_on", "time": 449, "note": 77, "velocity": 108, "channel": 0}, {"type": "note_off", "time": 6995, "note": 77, "velocity": 108, "channel": 0}, {"type": "note_on", "time": 5197, "note": 76, "velocity": 119, "channel": 0}, {"type": "note_off", "time": 5896, "note": 76, "velocity": 119, "channel": 0}, {"type": "note_on", "time": 3298, "note": 75, "velocity": 108, "channel": 0}, {"type": "note_off", "time": 6696, "note": 75, "velocity": 108, "channel": 0}, {"type": "note_on", "time": 5305, "note": 77, "velocity": 106, "channel": 0}, {"type": "note_off", "time": 5898, "note": 77, "velocity": 106, "channel": 0}, {"type": "note_on", "time": 923, "note": 80, "velocity": 121, "channel": 0}, {"type": "note_off", "time": 15777, "note": 80, "velocity": 121, "channel": 0}, {"type": "note_on", "time": 710, "note": 77, "velocity": 85, "channel": 0}, {"type": "note_off", "time": 3411, "note": 77, "velocity": 85, "channel": 0}, {"type": "note_on", "time": 4335, "note": 70, "velocity": 93, "channel": 0}, {"type": "note_off", "time": 3837, "note": 70, "velocity": 93, "channel": 0}, {"type": "note_on", "time": 1705, "note": 70, "velocity": 97, "channel": 0}, {"type": "note_off", "time": 3553, "note": 70, "velocity": 97, "channel": 0}, {"type": "note_on", "time": 4619, "note": 74, "velocity": 109, "channel": 0}, {"type": "note_off", "time": 3908, "note": 74, "velocity": 109, "channel": 0}, {"type": "note_on", "time": 639, "note": 75, "velocity": 99, "channel": 0}, {"type": "note_off", "time": 8812, "note": 75, "velocity": 99, "channel": 0}, {"type": "note_on", "time": 521, "note": 76, "velocity": 92, "channel": 0}, {"type": "note_off", "time": 3498, "note": 76, "velocity": 92, "channel": 0}, {"type": "note_on", "time": 1807, "note": 71, "velocity": 95, "channel": 0}, {"type": "note_off", "time": 2629, "note": 71, "velocity": 95, "channel": 0}, {"type": "note_on", "time": 923, "note": 67, "velocity": 89, "channel": 0}, {"type": "note_off", "time": 2771, "note": 67, "velocity": 89, "channel": 0}, {"type": "note_on", "time": 1137, "note": 60, "velocity": 99, "channel": 0}, {"type": "note_off", "time": 4832, "note": 60, "velocity": 99, "channel": 0}, {"type": "note_on", "time": 7462, "note": 72, "velocity": 101, "channel": 0}, {"type": "note_off", "time": 2132, "note": 72, "velocity": 101, "channel": 0}, {"type": "note_on", "time": 71, "note": 73, "velocity": 100, "channel": 0}, {"type": "note_off", "time": 13574, "note": 73, "velocity": 100, "channel": 0}, {"type": "note_on", "time": 852, "note": 70, "velocity": 94, "channel": 0}, {"type": "note_off", "time": 2274, "note": 70, "velocity": 94, "channel": 0}, {"type": "note_on", "time": 1563, "note": 58, "velocity": 89, "channel": 0}, {"type": "note_off", "time": 1918, "note": 58, "velocity": 89, "channel": 0}, {"type": "note_on", "time": 568, "note": 60, "velocity": 99, "channel": 0}, {"type": "note_off", "time": 9665, "note": 60, "velocity": 99, "channel": 0}, {"type": "note_on", "time": 5188, "note": 71, "velocity": 101, "channel": 0}, {"type": "note_off", "time": 3624, "note": 71, "velocity": 101, "channel": 0}, {"type": "note_on", "time": 568, "note": 72, "velocity": 101, "channel": 0}, {"type": "note_off", "time": 11584, "note": 72, "velocity": 101, "channel": 0}, {"type": "note_on", "time": 2771, "note": 58, "velocity": 98, "channel": 0}, {"type": "note_off", "time": 3127, "note": 58, "velocity": 98, "channel": 0}, {"type": "note_on", "time": 2984, "note": 58, "velocity": 109, "channel": 0}, {"type": "note_off", "time": 3624, "note": 58, "velocity": 109, "channel": 0}, {"type": "note_on", "time": 1188, "note": 70, "velocity": 87, "channel": 0}, {"type": "note_off", "time": 4197, "note": 70, "velocity": 87, "channel": 0}, {"type": "note_on", "time": 1798, "note": 70, "velocity": 114, "channel": 0}, {"type": "note_off", "time": 8894, "note": 70, "velocity": 114, "channel": 0}, {"type": "note_on", "time": 599, "note": 69, "velocity": 108, "channel": 0}, {"type": "note_off", "time": 2898, "note": 69, "velocity": 108, "channel": 0}, {"type": "note_on", "time": 5496, "note": 58, "velocity": 106, "channel": 0}, {"type": "note_off", "time": 5097, "note": 58, "velocity": 106, "channel": 0}, {"type": "note_on", "time": 6896, "note": 67, "velocity": 105, "channel": 0}, {"type": "note_off", "time": 6609, "note": 67, "velocity": 105, "channel": 0}, {"type": "note_on", "time": 986, "note": 69, "velocity": 109, "channel": 0}, {"type": "note_off", "time": 15691, "note": 69, "velocity": 109, "channel": 0}, {"type": "note_on", "time": 2098, "note": 67, "velocity": 103, "channel": 0}, {"type": "note_off", "time": 3597, "note": 67, "velocity": 103, "channel": 0}, {"type": "note_on", "time": 899, "note": 65, "velocity": 100, "channel": 0}, {"type": "note_off", "time": 4997, "note": 65, "velocity": 100, "channel": 0}, {"type": "note_on", "time": 1998, "note": 60, "velocity": 98, "channel": 0}, {"type": "note_off", "time": 5296, "note": 60, "velocity": 98, "channel": 0}, {"type": "note_on", "time": 1399, "note": 58, "velocity": 88, "channel": 0}, {"type": "note_off", "time": 7995, "note": 58, "velocity": 88, "channel": 0}, {"type": "note_on", "time": 999, "note": 51, "velocity": 89, "channel": 0}, {"type": "note_off", "time": 2198, "note": 51, "velocity": 89, "channel": 0}, {"type": "note_on", "time": 799, "note": 49, "velocity": 92, "channel": 0}, {"type": "note_off", "time": 1599, "note": 49, "velocity": 92, "channel": 0}, {"type": "note_on", "time": 599, "note": 48, "velocity": 89, "channel": 0}, {"type": "note_off", "time": 1399, "note": 48, "velocity": 89, "channel": 0}, {"type": "note_on", "time": 299, "note": 46, "velocity": 84, "channel": 0}, {"type": "note_off", "time": 4147, "note": 46, "velocity": 84, "channel": 0}, {"type": "note_on", "time": 849, "note": 44, "velocity": 83, "channel": 0}, {"type": "note_off", "time": 22387, "note": 44, "velocity": 83, "channel": 0}, {"type": "note_on", "time": 105639, "note": 68, "velocity": 109, "channel": 0}, {"type": "note_off", "time": 5197, "note": 68, "velocity": 109, "channel": 0}, {"type": "note_on", "time": 899, "note": 70, "velocity": 113, "channel": 0}, {"type": "note_off", "time": 4997, "note": 70, "velocity": 113, "channel": 0}, {"type": "note_on", "time": 299, "note": 71, "velocity": 114, "channel": 0}, {"type": "note_off", "time": 4497, "note": 71, "velocity": 114, "channel": 0}, {"type": "note_on", "time": 1023, "note": 81, "velocity": 94, "channel": 0}, {"type": "note_off", "time": 5827, "note": 81, "velocity": 94, "channel": 0}, {"type": "note_on", "time": 1279, "note": 79, "velocity": 112, "channel": 0}, {"type": "note_off", "time": 5756, "note": 79, "velocity": 112, "channel": 0}, {"type": "note_on", "time": 4051, "note": 74, "velocity": 103, "channel": 0}, {"type": "note_off", "time": 3127, "note": 74, "velocity": 103, "channel": 0}, {"type": "note_on", "time": 3411, "note": 71, "velocity": 114, "channel": 0}, {"type": "note_off", "time": 3411, "note": 71, "velocity": 114, "channel": 0}, {"type": "note_on", "time": 639, "note": 68, "velocity": 101, "channel": 0}, {"type": "note_off", "time": 5614, "note": 68, "velocity": 101, "channel": 0}, {"type": "note_on", "time": 1492, "note": 65, "velocity": 110, "channel": 0}, {"type": "note_off", "time": 4477, "note": 65, "velocity": 110, "channel": 0}, {"type": "note_on", "time": 142, "note": 63, "velocity": 117, "channel": 0}, {"type": "note_off", "time": 3198, "note": 63, "velocity": 117, "channel": 0}, {"type": "note_on", "time": 852, "note": 59, "velocity": 104, "channel": 0}, {"type": "note_off", "time": 3624, "note": 59, "velocity": 104, "channel": 0}, {"type": "note_on", "time": 994, "note": 57, "velocity": 101, "channel": 0}, {"type": "note_off", "time": 5401, "note": 57, "velocity": 101, "channel": 0}, {"type": "note_on", "time": 1066, "note": 53, "velocity": 104, "channel": 0}, {"type": "note_off", "time": 2771, "note": 53, "velocity": 104, "channel": 0}, {"type": "note_on", "time": 994, "note": 51, "velocity": 103, "channel": 0}, {"type": "note_off", "time": 5827, "note": 51, "velocity": 103, "channel": 0}, {"type": "note_on", "time": 625, "note": 58, "velocity": 104, "channel": 0}, {"type": "note_off", "time": 5047, "note": 58, "velocity": 104, "channel": 0}, {"type": "note_on", "time": 349, "note": 59, "velocity": 108, "channel": 0}, {"type": "note_off", "time": 3547, "note": 59, "velocity": 108, "channel": 0}, {"type": "note_on", "time": 3506, "note": 74, "velocity": 105, "channel": 0}, {"type": "note_off", "time": 4051, "note": 74, "velocity": 105, "channel": 0}, {"type": "note_on", "time": 142, "note": 75, "velocity": 121, "channel": 0}, {"type": "note_off", "time": 3908, "note": 75, "velocity": 121, "channel": 0}, {"type": "note_on", "time": 71, "note": 74, "velocity": 116, "channel": 0}, {"type": "note_off", "time": 5401, "note": 74, "velocity": 116, "channel": 0}, {"type": "note_on", "time": 142, "note": 72, "velocity": 115, "channel": 0}, {"type": "note_off", "time": 3340, "note": 72, "velocity": 115, "channel": 0}, {"type": "note_on", "time": 0, "note": 71, "velocity": 117, "channel": 0}, {"type": "note_off", "time": 3979, "note": 71, "velocity": 117, "channel": 0}, {"type": "note_on", "time": 284, "note": 70, "velocity": 111, "channel": 0}, {"type": "note_off", "time": 2913, "note": 70, "velocity": 111, "channel": 0}, {"type": "note_on", "time": 71, "note": 69, "velocity": 105, "channel": 0}, {"type": "note_off", "time": 3340, "note": 69, "velocity": 105, "channel": 0}, {"type": "note_on", "time": 355, "note": 67, "velocity": 115, "channel": 0}, {"type": "note_off", "time": 2416, "note": 67, "velocity": 115, "channel": 0}, {"type": "note_on", "time": 1066, "note": 66, "velocity": 112, "channel": 0}, {"type": "note_off", "time": 4548, "note": 66, "velocity": 112, "channel": 0}, {"type": "note_on", "time": 213, "note": 64, "velocity": 118, "channel": 0}, {"type": "note_off", "time": 4051, "note": 64, "velocity": 118, "channel": 0}, {"type": "note_on", "time": 213, "note": 63, "velocity": 116, "channel": 0}, {"type": "note_off", "time": 3766, "note": 63, "velocity": 116, "channel": 0}, {"type": "note_on", "time": 142, "note": 62, "velocity": 114, "channel": 0}, {"type": "note_off", "time": 3198, "note": 62, "velocity": 114, "channel": 0}, {"type": "note_on", "time": 213, "note": 61, "velocity": 118, "channel": 0}, {"type": "note_off", "time": 2700, "note": 61, "velocity": 118, "channel": 0}, {"type": "note_on", "time": 0, "note": 59, "velocity": 116, "channel": 0}, {"type": "note_off", "time": 3411, "note": 59, "velocity": 116, "channel": 0}, {"type": "note_on", "time": 923, "note": 58, "velocity": 108, "channel": 0}, {"type": "note_off", "time": 3979, "note": 58, "velocity": 108, "channel": 0}, {"type": "note_on", "time": 497, "note": 55, "velocity": 109, "channel": 0}, {"type": "note_off", "time": 2132, "note": 55, "velocity": 109, "channel": 0}, {"type": "note_on", "time": 2345, "note": 53, "velocity": 109, "channel": 0}, {"type": "note_off", "time": 2274, "note": 53, "velocity": 109, "channel": 0}, {"type": "note_on", "time": 852, "note": 54, "velocity": 108, "channel": 0}, {"type": "note_off", "time": 2558, "note": 54, "velocity": 108, "channel": 0}, {"type": "note_on", "time": 1563, "note": 58, "velocity": 103, "channel": 0}, {"type": "note_off", "time": 2487, "note": 58, "velocity": 103, "channel": 0}, {"type": "note_on", "time": 1847, "note": 74, "velocity": 115, "channel": 0}, {"type": "note_off", "time": 2274, "note": 74, "velocity": 115, "channel": 0}, {"type": "note_on", "time": 497, "note": 75, "velocity": 118, "channel": 0}, {"type": "note_off", "time": 3127, "note": 75, "velocity": 118, "channel": 0}, {"type": "note_on", "time": 3338, "note": 52, "velocity": 93, "channel": 0}, {"type": "note_off", "time": 41076, "note": 52, "velocity": 93, "channel": 0}, {"type": "note_on", "time": 7695, "note": 51, "velocity": 106, "channel": 0}, {"type": "note_off", "time": 2898, "note": 51, "velocity": 106, "channel": 0}, {"type": "note_on", "time": 639, "note": 53, "velocity": 121, "channel": 0}, {"type": "note_off", "time": 2132, "note": 53, "velocity": 121, "channel": 0}, {"type": "note_on", "time": 626, "note": 52, "velocity": 115, "channel": 0}, {"type": "note_off", "time": 2198, "note": 52, "velocity": 115, "channel": 0}, {"type": "note_on", "time": 349, "note": 50, "velocity": 112, "channel": 0}, {"type": "note_off", "time": 2380, "note": 50, "velocity": 112, "channel": 0}, {"type": "note_on", "time": 567, "note": 49, "velocity": 105, "channel": 0}, {"type": "note_off", "time": 9294, "note": 49, "velocity": 105, "channel": 0}, {"type": "note_on", "time": 1199, "note": 51, "velocity": 113, "channel": 0}, {"type": "note_off", "time": 7195, "note": 51, "velocity": 113, "channel": 0}, {"type": "note_on", "time": 4497, "note": 53, "velocity": 109, "channel": 0}, {"type": "note_off", "time": 6996, "note": 53, "velocity": 109, "channel": 0}, {"type": "note_on", "time": 3213, "note": 54, "velocity": 111, "channel": 0}, {"type": "note_off", "time": 7746, "note": 54, "velocity": 111, "channel": 0}, {"type": "note_on", "time": 2032, "note": 52, "velocity": 110, "channel": 0}, {"type": "note_off", "time": 5097, "note": 52, "velocity": 110, "channel": 0}, {"type": "note_on", "time": 2998, "note": 48, "velocity": 101, "channel": 0}, {"type": "note_off", "time": 18989, "note": 48, "velocity": 101, "channel": 0}, {"type": "note_on", "time": 14891, "note": 60, "velocity": 109, "channel": 0}, {"type": "note_off", "time": 8395, "note": 60, "velocity": 109, "channel": 0}, {"type": "note_on", "time": 1399, "note": 56, "velocity": 106, "channel": 0}, {"type": "note_off", "time": 10494, "note": 56, "velocity": 106, "channel": 0}, {"type": "note_on", "time": 1299, "note": 58, "velocity": 111, "channel": 0}, {"type": "note_off", "time": 8595, "note": 58, "velocity": 111, "channel": 0}, {"type": "note_on", "time": 3631, "note": 59, "velocity": 104, "channel": 0}, {"type": "note_off", "time": 8244, "note": 59, "velocity": 104, "channel": 0}, {"type": "note_on", "time": 3127, "note": 64, "velocity": 125, "channel": 0}, {"type": "note_off", "time": 7533, "note": 64, "velocity": 125, "channel": 0}, {"type": "note_on", "time": 3349, "note": 68, "velocity": 107, "channel": 0}, {"type": "note_off", "time": 9894, "note": 68, "velocity": 107, "channel": 0}, {"type": "note_on", "time": 0, "note": 70, "velocity": 99, "channel": 0}, {"type": "note_off", "time": 9594, "note": 70, "velocity": 99, "channel": 0}, {"type": "note_on", "time": 399, "note": 72, "velocity": 103, "channel": 0}, {"type": "note_off", "time": 8994, "note": 72, "velocity": 103, "channel": 0}, {"type": "note_on", "time": 1199, "note": 60, "velocity": 110, "channel": 0}, {"type": "note_off", "time": 9694, "note": 60, "velocity": 110, "channel": 0}, {"type": "note_on", "time": 2998, "note": 70, "velocity": 96, "channel": 0}, {"type": "note_off", "time": 21887, "note": 70, "velocity": 96, "channel": 0}, {"type": "note_on", "time": 24486, "note": 67, "velocity": 113, "channel": 0}, {"type": "note_off", "time": 6396, "note": 67, "velocity": 113, "channel": 0}, {"type": "note_on", "time": 499, "note": 68, "velocity": 113, "channel": 0}, {"type": "note_off", "time": 5696, "note": 68, "velocity": 113, "channel": 0}, {"type": "note_on", "time": 749, "note": 70, "velocity": 112, "channel": 0}, {"type": "note_off", "time": 4447, "note": 70, "velocity": 112, "channel": 0}, {"type": "note_on", "time": 649, "note": 71, "velocity": 111, "channel": 0}, {"type": "note_off", "time": 5696, "note": 71, "velocity": 111, "channel": 0}, {"type": "note_on", "time": 549, "note": 74, "velocity": 109, "channel": 0}, {"type": "note_off", "time": 4147, "note": 74, "velocity": 109, "channel": 0}, {"type": "note_on", "time": 949, "note": 71, "velocity": 117, "channel": 0}, {"type": "note_off", "time": 5596, "note": 71, "velocity": 117, "channel": 0}, {"type": "note_on", "time": 499, "note": 70, "velocity": 112, "channel": 0}, {"type": "note_off", "time": 4947, "note": 70, "velocity": 112, "channel": 0}, {"type": "note_on", "time": 1449, "note": 68, "velocity": 105, "channel": 0}, {"type": "note_off", "time": 2898, "note": 68, "velocity": 105, "channel": 0}, {"type": "note_on", "time": 899, "note": 67, "velocity": 110, "channel": 0}, {"type": "note_off", "time": 8095, "note": 67, "velocity": 110, "channel": 0}, {"type": "note_on", "time": 899, "note": 68, "velocity": 108, "channel": 0}, {"type": "note_off", "time": 6196, "note": 68, "velocity": 108, "channel": 0}, {"type": "note_on", "time": 399, "note": 70, "velocity": 112, "channel": 0}, {"type": "note_off", "time": 3797, "note": 70, "velocity": 112, "channel": 0}, {"type": "note_on", "time": 299, "note": 71, "velocity": 118, "channel": 0}, {"type": "note_off", "time": 3897, "note": 71, "velocity": 118, "channel": 0}, {"type": "note_on", "time": 399, "note": 70, "velocity": 109, "channel": 0}, {"type": "note_on", "time": 3897, "note": 68, "velocity": 108, "channel": 0}, {"type": "note_off", "time": 0, "note": 70, "velocity": 109, "channel": 0}, {"type": "note_off", "time": 4397, "note": 68, "velocity": 108, "channel": 0}, {"type": "note_on", "time": 1699, "note": 67, "velocity": 114, "channel": 0}, {"type": "note_off", "time": 3897, "note": 67, "velocity": 114, "channel": 0}, {"type": "note_on", "time": 199, "note": 63, "velocity": 120, "channel": 0}, {"type": "note_off", "time": 5996, "note": 63, "velocity": 120, "channel": 0}, {"type": "note_on", "time": 1898, "note": 62, "velocity": 116, "channel": 0}, {"type": "note_off", "time": 5696, "note": 62, "velocity": 116, "channel": 0}, {"type": "note_on", "time": 399, "note": 63, "velocity": 119, "channel": 0}, {"type": "note_off", "time": 5596, "note": 63, "velocity": 119, "channel": 0}, {"type": "note_on", "time": 199, "note": 67, "velocity": 112, "channel": 0}, {"type": "note_off", "time": 4297, "note": 67, "velocity": 112, "channel": 0}, {"type": "note_on", "time": 199, "note": 68, "velocity": 117, "channel": 0}, {"type": "note_off", "time": 6796, "note": 68, "velocity": 117, "channel": 0}, {"type": "note_on", "time": 4839, "note": 63, "velocity": 118, "channel": 0}, {"type": "note_off", "time": 1563, "note": 63, "velocity": 118, "channel": 0}, {"type": "note_on", "time": 852, "note": 62, "velocity": 121, "channel": 0}, {"type": "note_off", "time": 6680, "note": 62, "velocity": 121, "channel": 0}, {"type": "note_on", "time": 855, "note": 59, "velocity": 101, "channel": 0}, {"type": "note_off", "time": 4997, "note": 59, "velocity": 101, "channel": 0}, {"type": "note_on", "time": 299, "note": 58, "velocity": 106, "channel": 0}, {"type": "note_off", "time": 8994, "note": 58, "velocity": 106, "channel": 0}, {"type": "note_on", "time": 915, "note": 55, "velocity": 109, "channel": 0}, {"type": "note_off", "time": 3482, "note": 55, "velocity": 109, "channel": 0}, {"type": "note_on", "time": 499, "note": 50, "velocity": 102, "channel": 0}, {"type": "note_off", "time": 5996, "note": 50, "velocity": 102, "channel": 0}, {"type": "note_on", "time": 1099, "note": 55, "velocity": 101, "channel": 0}, {"type": "note_off", "time": 5197, "note": 55, "velocity": 101, "channel": 0}, {"type": "note_on", "time": 99, "note": 56, "velocity": 107, "channel": 0}, {"type": "note_off", "time": 4397, "note": 56, "velocity": 107, "channel": 0}, {"type": "note_on", "time": 1199, "note": 58, "velocity": 112, "channel": 0}, {"type": "note_off", "time": 5596, "note": 58, "velocity": 112, "channel": 0}, {"type": "note_on", "time": 299, "note": 59, "velocity": 106, "channel": 0}, {"type": "note_off", "time": 4997, "note": 59, "velocity": 106, "channel": 0}, {"type": "note_on", "time": 299, "note": 63, "velocity": 110, "channel": 0}, {"type": "note_off", "time": 3498, "note": 63, "velocity": 110, "channel": 0}, {"type": "note_on", "time": 399, "note": 65, "velocity": 113, "channel": 0}, {"type": "note_off", "time": 7095, "note": 65, "velocity": 113, "channel": 0}, {"type": "note_on", "time": 599, "note": 63, "velocity": 119, "channel": 0}, {"type": "note_off", "time": 4997, "note": 63, "velocity": 119, "channel": 0}, {"type": "note_on", "time": 1199, "note": 61, "velocity": 110, "channel": 0}, {"type": "note_off", "time": 5696, "note": 61, "velocity": 110, "channel": 0}, {"type": "note_on", "time": 999, "note": 60, "velocity": 113, "channel": 0}, {"type": "note_off", "time": 5796, "note": 60, "velocity": 113, "channel": 0}, {"type": "note_on", "time": 0, "note": 58, "velocity": 107, "channel": 0}, {"type": "note_on", "time": 5496, "note": 63, "velocity": 117, "channel": 0}, {"type": "note_off", "time": 0, "note": 58, "velocity": 107, "channel": 0}, {"type": "note_off", "time": 7795, "note": 63, "velocity": 117, "channel": 0}, {"type": "note_on", "time": 999, "note": 61, "velocity": 108, "channel": 0}, {"type": "note_off", "time": 6196, "note": 61, "velocity": 108, "channel": 0}, {"type": "note_on", "time": 2698, "note": 60, "velocity": 110, "channel": 0}, {"type": "note_off", "time": 8994, "note": 60, "velocity": 110, "channel": 0}, {"type": "note_on", "time": 199, "note": 58, "velocity": 105, "channel": 0}, {"type": "note_off", "time": 10793, "note": 58, "velocity": 105, "channel": 0}, {"type": "note_on", "time": 1099, "note": 53, "velocity": 103, "channel": 0}, {"type": "note_off", "time": 6396, "note": 53, "velocity": 103, "channel": 0}, {"type": "note_on", "time": 3597, "note": 51, "velocity": 102, "channel": 0}, {"type": "note_off", "time": 9794, "note": 51, "velocity": 102, "channel": 0}, {"type": "note_on", "time": 1099, "note": 55, "velocity": 107, "channel": 0}, {"type": "note_off", "time": 6296, "note": 55, "velocity": 107, "channel": 0}, {"type": "note_on", "time": 199, "note": 56, "velocity": 104, "channel": 0}, {"type": "note_off", "time": 7595, "note": 56, "velocity": 104, "channel": 0}, {"type": "note_on", "time": 1599, "note": 51, "velocity": 103, "channel": 0}, {"type": "note_off", "time": 10194, "note": 51, "velocity": 103, "channel": 0}, {"type": "note_on", "time": 799, "note": 48, "velocity": 99, "channel": 0}, {"type": "note_off", "time": 10094, "note": 48, "velocity": 99, "channel": 0}, {"type": "note_on", "time": 1299, "note": 46, "velocity": 100, "channel": 0}, {"type": "note_off", "time": 9594, "note": 46, "velocity": 100, "channel": 0}, {"type": "note_on", "time": 8695, "note": 58, "velocity": 106, "channel": 0}, {"type": "note_off", "time": 27984, "note": 58, "velocity": 106, "channel": 0}, {"type": "note_on", "time": 30982, "note": 44, "velocity": 112, "channel": 0}, {"type": "note_off", "time": 7195, "note": 44, "velocity": 112, "channel": 0}, {"type": "note_on", "time": 1621, "note": 58, "velocity": 109, "channel": 0}, {"type": "note_off", "time": 3056, "note": 58, "velocity": 109, "channel": 0}, {"type": "note_on", "time": 426, "note": 58, "velocity": 104, "channel": 0}, {"type": "note_off", "time": 2523, "note": 58, "velocity": 104, "channel": 0}, {"type": "note_on", "time": 994, "note": 58, "velocity": 107, "channel": 0}, {"type": "note_off", "time": 2913, "note": 58, "velocity": 107, "channel": 0}, {"type": "note_on", "time": 426, "note": 58, "velocity": 101, "channel": 0}, {"type": "note_off", "time": 2274, "note": 58, "velocity": 101, "channel": 0}, {"type": "note_on", "time": 817, "note": 58, "velocity": 104, "channel": 0}, {"type": "note_off", "time": 2025, "note": 58, "velocity": 104, "channel": 0}, {"type": "note_on", "time": 426, "note": 58, "velocity": 104, "channel": 0}, {"type": "note_off", "time": 4897, "note": 58, "velocity": 104, "channel": 0}, {"type": "note_on", "time": 1214, "note": 58, "velocity": 108, "channel": 0}, {"type": "note_off", "time": 5746, "note": 58, "velocity": 108, "channel": 0}, {"type": "note_on", "time": 543, "note": 58, "velocity": 105, "channel": 0}, {"type": "note_off", "time": 2487, "note": 58, "velocity": 105, "channel": 0}, {"type": "note_on", "time": 426, "note": 58, "velocity": 104, "channel": 0}, {"type": "note_off", "time": 2238, "note": 58, "velocity": 104, "channel": 0}, {"type": "note_on", "time": 533, "note": 58, "velocity": 106, "channel": 0}, {"type": "note_off", "time": 5934, "note": 58, "velocity": 106, "channel": 0}, {"type": "note_on", "time": 1030, "note": 58, "velocity": 106, "channel": 0}, {"type": "note_off", "time": 1776, "note": 58, "velocity": 106, "channel": 0}, {"type": "note_on", "time": 497, "note": 58, "velocity": 106, "channel": 0}, {"type": "note_off", "time": 2984, "note": 58, "velocity": 106, "channel": 0}, {"type": "note_on", "time": 888, "note": 58, "velocity": 105, "channel": 0}, {"type": "note_off", "time": 1883, "note": 58, "velocity": 105, "channel": 0}, {"type": "note_on", "time": 746, "note": 58, "velocity": 105, "channel": 0}, {"type": "note_off", "time": 1634, "note": 58, "velocity": 105, "channel": 0}, {"type": "note_on", "time": 1066, "note": 56, "velocity": 104, "channel": 0}, {"type": "note_off", "time": 4122, "note": 56, "velocity": 104, "channel": 0}, {"type": "note_on", "time": 1008, "note": 58, "velocity": 107, "channel": 0}, {"type": "note_off", "time": 7395, "note": 58, "velocity": 107, "channel": 0}, {"type": "note_on", "time": 199, "note": 56, "velocity": 97, "channel": 0}, {"type": "note_off", "time": 89348, "note": 56, "velocity": 97, "channel": 0}, {"type": "note_on", "time": 96344, "note": 56, "velocity": 105, "channel": 0}, {"type": "note_off", "time": 6996, "note": 56, "velocity": 105, "channel": 0}, {"type": "note_on", "time": 999, "note": 58, "velocity": 110, "channel": 0}, {"type": "note_off", "time": 9394, "note": 58, "velocity": 110, "channel": 0}, {"type": "note_on", "time": 1199, "note": 60, "velocity": 117, "channel": 0}, {"type": "note_off", "time": 6596, "note": 60, "velocity": 117, "channel": 0}, {"type": "note_on", "time": 8195, "note": 63, "velocity": 126, "channel": 0}, {"type": "note_off", "time": 7595, "note": 63, "velocity": 126, "channel": 0}, {"type": "note_on", "time": 799, "note": 61, "velocity": 107, "channel": 0}, {"type": "note_off", "time": 4997, "note": 61, "velocity": 107, "channel": 0}, {"type": "note_on", "time": 2398, "note": 60, "velocity": 109, "channel": 0}, {"type": "note_off", "time": 5996, "note": 60, "velocity": 109, "channel": 0}, {"type": "note_on", "time": 1599, "note": 58, "velocity": 107, "channel": 0}, {"type": "note_off", "time": 7595, "note": 58, "velocity": 107, "channel": 0}, {"type": "note_on", "time": 999, "note": 56, "velocity": 95, "channel": 0}, {"type": "note_off", "time": 6396, "note": 56, "velocity": 95, "channel": 0}, {"type": "note_on", "time": 1998, "note": 58, "velocity": 107, "channel": 0}, {"type": "note_off", "time": 6996, "note": 58, "velocity": 107, "channel": 0}, {"type": "note_on", "time": 399, "note": 60, "velocity": 107, "channel": 0}, {"type": "note_off", "time": 8395, "note": 60, "velocity": 107, "channel": 0}, {"type": "note_on", "time": 7595, "note": 53, "velocity": 102, "channel": 0}, {"type": "note_off", "time": 8395, "note": 53, "velocity": 102, "channel": 0}, {"type": "note_on", "time": 6396, "note": 56, "velocity": 97, "channel": 0}, {"type": "note_off", "time": 19189, "note": 56, "velocity": 97, "channel": 0}, {"type": "note_on", "time": 9194, "note": 49, "velocity": 101, "channel": 0}, {"type": "note_off", "time": 9794, "note": 49, "velocity": 101, "channel": 0}, {"type": "note_on", "time": 799, "note": 48, "velocity": 96, "channel": 0}, {"type": "note_off", "time": 7995, "note": 48, "velocity": 96, "channel": 0}, {"type": "note_on", "time": 2898, "note": 59, "velocity": 104, "channel": 0}, {"type": "note_off", "time": 3797, "note": 59, "velocity": 104, "channel": 0}, {"type": "note_on", "time": 3747, "note": 52, "velocity": 97, "channel": 0}, {"type": "note_off", "time": 3248, "note": 52, "velocity": 97, "channel": 0}, {"type": "note_on", "time": 999, "note": 53, "velocity": 102, "channel": 0}, {"type": "note_off", "time": 5796, "note": 53, "velocity": 102, "channel": 0}, {"type": "note_on", "time": 2598, "note": 49, "velocity": 95, "channel": 0}, {"type": "note_off", "time": 3348, "note": 49, "velocity": 95, "channel": 0}, {"type": "note_on", "time": 649, "note": 48, "velocity": 94, "channel": 0}, {"type": "note_off", "time": 6946, "note": 48, "velocity": 94, "channel": 0}, {"type": "note_on", "time": 1091, "note": 46, "velocity": 99, "channel": 0}, {"type": "note_off", "time": 2274, "note": 46, "velocity": 99, "channel": 0}, {"type": "note_on", "time": 284, "note": 45, "velocity": 96, "channel": 0}, {"type": "note_off", "time": 3695, "note": 45, "velocity": 96, "channel": 0}, {"type": "note_on", "time": 994, "note": 44, "velocity": 98, "channel": 0}, {"type": "note_off", "time": 7533, "note": 44, "velocity": 98, "channel": 0}, {"type": "note_on", "time": 1847, "note": 48, "velocity": 96, "channel": 0}, {"type": "note_off", "time": 6538, "note": 48, "velocity": 96, "channel": 0}, {"type": "note_on", "time": 1989, "note": 49, "velocity": 92, "channel": 0}, {"type": "note_off", "time": 3127, "note": 49, "velocity": 92, "channel": 0}, {"type": "note_on", "time": 1137, "note": 51, "velocity": 94, "channel": 0}, {"type": "note_off", "time": 3269, "note": 51, "velocity": 94, "channel": 0}, {"type": "note_on", "time": 1989, "note": 53, "velocity": 109, "channel": 0}, {"type": "note_off", "time": 9097, "note": 53, "velocity": 109, "channel": 0}, {"type": "note_on", "time": 1279, "note": 50, "velocity": 101, "channel": 0}, {"type": "note_off", "time": 4974, "note": 50, "velocity": 101, "channel": 0}, {"type": "note_on", "time": 852, "note": 51, "velocity": 102, "channel": 0}, {"type": "note_off", "time": 7391, "note": 51, "velocity": 102, "channel": 0}, {"type": "note_on", "time": 994, "note": 53, "velocity": 106, "channel": 0}, {"type": "note_off", "time": 6112, "note": 53, "velocity": 106, "channel": 0}, {"type": "note_on", "time": 568, "note": 54, "velocity": 104, "channel": 0}, {"type": "note_off", "time": 8954, "note": 54, "velocity": 104, "channel": 0}, {"type": "note_on", "time": 2905, "note": 56, "velocity": 102, "channel": 0}, {"type": "note_off", "time": 8395, "note": 56, "velocity": 102, "channel": 0}, {"type": "note_on", "time": 4897, "note": 58, "velocity": 105, "channel": 0}, {"type": "note_off", "time": 9394, "note": 58, "velocity": 105, "channel": 0}, {"type": "note_on", "time": 1414, "note": 56, "velocity": 98, "channel": 0}, {"type": "note_off", "time": 8102, "note": 56, "velocity": 98, "channel": 0}, {"type": "note_on", "time": 3175, "note": 58, "velocity": 109, "channel": 0}, {"type": "note_off", "time": 9394, "note": 58, "velocity": 109, "channel": 0}, {"type": "note_on", "time": 3348, "note": 59, "velocity": 98, "channel": 0}, {"type": "note_off", "time": 7745, "note": 59, "velocity": 98, "channel": 0}, {"type": "note_on", "time": 4547, "note": 61, "velocity": 104, "channel": 0}, {"type": "note_off", "time": 8395, "note": 61, "velocity": 104, "channel": 0}, {"type": "note_on", "time": 4547, "note": 63, "velocity": 116, "channel": 0}, {"type": "note_off", "time": 7595, "note": 63, "velocity": 116, "channel": 0}, {"type": "note_on", "time": 5197, "note": 64, "velocity": 118, "channel": 0}, {"type": "note_off", "time": 8994, "note": 64, "velocity": 118, "channel": 0}, {"type": "note_on", "time": 3198, "note": 65, "velocity": 103, "channel": 0}, {"type": "note_off", "time": 8794, "note": 65, "velocity": 103, "channel": 0}, {"type": "note_on", "time": 3897, "note": 66, "velocity": 106, "channel": 0}, {"type": "note_off", "time": 7395, "note": 66, "velocity": 106, "channel": 0}, {"type": "note_on", "time": 3148, "note": 68, "velocity": 99, "channel": 0}, {"type": "note_off", "time": 8844, "note": 68, "velocity": 99, "channel": 0}, {"type": "note_on", "time": 1998, "note": 70, "velocity": 95, "channel": 0}, {"type": "note_off", "time": 8794, "note": 70, "velocity": 95, "channel": 0}, {"type": "note_on", "time": 4128, "note": 72, "velocity": 98, "channel": 0}, {"type": "note_off", "time": 7178, "note": 72, "velocity": 98, "channel": 0}, {"type": "note_on", "time": 2842, "note": 73, "velocity": 94, "channel": 0}, {"type": "note_off", "time": 8173, "note": 73, "velocity": 94, "channel": 0}, {"type": "note_on", "time": 2562, "note": 72, "velocity": 95, "channel": 0}, {"type": "note_off", "time": 8595, "note": 72, "velocity": 95, "channel": 0}, {"type": "note_on", "time": 599, "note": 73, "velocity": 92, "channel": 0}, {"type": "note_off", "time": 9594, "note": 73, "velocity": 92, "channel": 0}, {"type": "note_on", "time": 399, "note": 72, "velocity": 91, "channel": 0}, {"type": "note_off", "time": 9394, "note": 72, "velocity": 91, "channel": 0}, {"type": "note_on", "time": 3597, "note": 69, "velocity": 91, "channel": 0}, {"type": "note_off", "time": 6196, "note": 69, "velocity": 91, "channel": 0}, {"type": "note_on", "time": 799, "note": 65, "velocity": 101, "channel": 0}, {"type": "note_off", "time": 9394, "note": 65, "velocity": 101, "channel": 0}, {"type": "note_on", "time": 0, "note": 61, "velocity": 94, "channel": 0}, {"type": "note_off", "time": 4397, "note": 61, "velocity": 94, "channel": 0}, {"type": "note_on", "time": 999, "note": 60, "velocity": 99, "channel": 0}, {"type": "note_off", "time": 9394, "note": 60, "velocity": 99, "channel": 0}, {"type": "note_on", "time": 2398, "note": 58, "velocity": 80, "channel": 0}, {"type": "note_off", "time": 21587, "note": 58, "velocity": 80, "channel": 0}, {"type": "end_of_track", "time": 0}]]}