{"ticks_per_beat": 840, "tracks": [[{"type": "track_name", "name": "Melody", "time": 0}, {"type": "set_tempo", "tempo": 394736, "time": 0}, {"type": "key_signature", "key": "Eb", "time": 0}, {"type": "time_signature", "numerator": 4, "denominator": 4, "clocks_per_click": 24, "notated_32nd_notes_per_beat": 8, "time": 0}, {"type": "note_on", "time": 4668, "note": 56, "velocity": 87, "channel": 0}, {"type": "note_off", "time": 112, "note": 56, "velocity": 87, "channel": 0}, {"type": "note_on", "time": 56, "note": 58, "velocity": 84, "channel": 0}, {"type": "note_off", "time": 95, "note": 58, "velocity": 84, "channel": 0}, {"type": "note_on", "time": 78, "note": 62, "velocity": 91, "channel": 0}, {"type": "note_off", "time": 78, "note": 62, "velocity": 91, "channel": 0}, {"type": "note_on", "time": 13, "note": 63, "velocity": 93, "channel": 0}, {"type": "note_off", "time": 121, "note": 63, "velocity": 93, "channel": 0}, {"type": "note_on", "time": 69, "note": 68, "velocity": 89, "channel": 0}, {"type": "note_off", "time": 112, "note": 68, "velocity": 89, "channel": 0}, {"type": "note_on", "time": 47, "note": 66, "velocity": 90, "channel": 0}, {"type": "note_off", "time": 97, "note": 66, "velocity": 90, "channel": 0}, {"type": "note_on", "time": 56, "note": 61, "velocity": 86, "channel": 0}, {"type": "note_off", "time": 136, "note": 61, "velocity": 86, "channel": 0}, {"type": "note_on", "time": 30, "note": 66, "velocity": 85, "channel": 0}, {"type": "note_off", "time": 106, "note": 66, "velocity": 85, "channel": 0}, {"type": "note_on", "time": 49, "note": 63, "velocity": 90, "channel": 0}, {"type": "note_off", "time": 136, "note": 63, "velocity": 90, "channel": 0}, {"type": "note_on", "time": 39, "note": 59, "velocity": 94, "channel": 0}, {"type": "note_off", "time": 99, "note": 59, "velocity": 94, "channel": 0}, {"type": "note_on", "time": 65, "note": 55, "velocity": 91, "channel": 0}, {"type": "note_off", "time": 80, "note": 55, "velocity": 91, "channel": 0}, {"type": "note_on", "time": 52, "note": 51, "velocity": 92, "channel": 0}, {"type": "note_off", "time": 195, "note": 51, "velocity": 92, "channel": 0}, {"type": "note_on", "time": 39, "note": 56, "velocity": 92, "channel": 0}, {"type": "note_off", "time": 186, "note": 56, "velocity": 92, "channel": 0}, {"type": "note_on", "time": 19, "note": 57, "velocity": 94, "channel": 0}, {"type": "note_off", "time": 93, "note": 57, "velocity": 94, "channel": 0}, {"type": "note_on", "time": 19, "note": 59, "velocity": 94, "channel": 0}, {"type": "note_off", "time": 86, "note": 59, "velocity": 94, "channel": 0}, {"type": "note_on", "time": 17, "note": 58, "velocity": 98, "channel": 0}, {"type": "note_off", "time": 93, "note": 58, "velocity": 98, "channel": 0}, {"type": "note_on", "time": 23, "note": 60, "velocity": 95, "channel": 0}, {"type": "note_off", "time": 128, "note": 60, "velocity": 95, "channel": 0}, {"type": "note_on", "time": 128, "note": 58, "velocity": 90, "channel": 0}, {"type": "note_off", "time": 284, "note": 58, "velocity": 90, "channel": 0}, {"type": "note_on", "time": 2503, "note": 67, "velocity": 117, "channel": 0}, {"type": "note_off", "time": 141, "note": 67, "velocity": 117, "channel": 0}, {"type": "note_on", "time": 36, "note": 69, "velocity": 116, "channel": 0}, {"type": "note_off", "time": 102, "note": 69, "velocity": 116, "channel": 0}, {"type": "note_on", "time": 26, "note": 72, "velocity": 118, "channel": 0}, {"type": "note_off", "time": 180, "note": 72, "velocity": 118, "channel": 0}, {"type": "note_on", "time": 34, "note": 69, "velocity": 115, "channel": 0}, {"type": "note_off", "time": 99, "note": 69, "velocity": 115, "channel": 0}, {"type": "note_on", "time": 21, "note": 70, "velocity": 115, "channel": 0}, {"type": "note_off", "time": 138, "note": 70, "velocity": 115, "channel": 0}, {"type": "note_on", "time": 99, "note": 60, "velocity": 101, "channel": 0}, {"type": "note_off", "time": 134, "note": 60, "velocity": 101, "channel": 0}, {"type": "note_on", "time": 41, "note": 58, "velocity": 104, "channel": 0}, {"type": "note_off", "time": 132, "note": 58, "velocity": 104, "channel": 0}, {"type": "note_on", "time": 36, "note": 62, "velocity": 96, "channel": 0}, {"type": "note_off", "time": 162, "note": 62, "velocity": 96, "channel": 0}, {"type": "note_on", "time": 71, "note": 67, "velocity": 116, "channel": 0}, {"type": "note_off", "time": 180, "note": 67, "velocity": 116, "channel": 0}, {"type": "note_on", "time": 43, "note": 66, "velocity": 114, "channel": 0}, {"type": "note_off", "time": 149, "note": 66, "velocity": 114, "channel": 0}, {"type": "note_on", "time": 21, "note": 65, "velocity": 111, "channel": 0}, {"type": "note_off", "time": 178, "note": 65, "velocity": 111, "channel": 0}, {"type": "note_on", "time": 13, "note": 64, "velocity": 115, "channel": 0}, {"type": "note_off", "time": 138, "note": 64, "velocity": 115, "channel": 0}, {"type": "note_on", "time": 23, "note": 63, "velocity": 112, "channel": 0}, {"type": "note_off", "time": 212, "note": 63, "velocity": 112, "channel": 0}, {"type": "note_on", "time": 68, "note": 58, "velocity": 98, "channel": 0}, {"type": "note_off", "time": 98, "note": 58, "velocity": 98, "channel": 0}, {"type": "note_on", "time": 95, "note": 61, "velocity": 96, "channel": 0}, {"type": "note_off", "time": 125, "note": 61, "velocity": 96, "channel": 0}, {"type": "note_on", "time": 15, "note": 62, "velocity": 109, "channel": 0}, {"type": "note_off", "time": 167, "note": 62, "velocity": 109, "channel": 0}, {"type": "note_on", "time": 54, "note": 58, "velocity": 107, "channel": 0}, {"type": "note_off", "time": 214, "note": 58, "velocity": 107, "channel": 0}, {"type": "note_on", "time": 27, "note": 53, "velocity": 104, "channel": 0}, {"type": "note_off", "time": 123, "note": 53, "velocity": 104, "channel": 0}, {"type": "note_on", "time": 6, "note": 50, "velocity": 100, "channel": 0}, {"type": "note_off", "time": 148, "note": 50, "velocity": 100, "channel": 0}, {"type": "note_on", "time": 24, "note": 48, "velocity": 91, "channel": 0}, {"type": "note_off", "time": 132, "note": 48, "velocity": 91, "channel": 0}, {"type": "note_on", "time": 105, "note": 55, "velocity": 107, "channel": 0}, {"type": "note_off", "time": 219, "note": 55, "velocity": 107, "channel": 0}, {"type": "note_on", "time": 37, "note": 52, "velocity": 103, "channel": 0}, {"type": "note_off", "time": 145, "note": 52, "velocity": 103, "channel": 0}, {"type": "note_on", "time": 15, "note": 53, "velocity": 102, "channel": 0}, {"type": "note_off", "time": 182, "note": 53, "velocity": 102, "channel": 0}, {"type": "note_on", "time": 37, "note": 55, "velocity": 98, "channel": 0}, {"type": "note_off", "time": 203, "note": 55, "velocity": 98, "channel": 0}, {"type": "note_on", "time": 33, "note": 56, "velocity": 109, "channel": 0}, {"type": "note_off", "time": 145, "note": 56, "velocity": 109, "channel": 0}, {"type": "note_on", "time": 74, "note": 59, "velocity": 104, "channel": 0}, {"type": "note_off", "time": 216, "note": 59, "velocity": 104, "channel": 0}, {"type": "note_on", "time": 30, "note": 61, "velocity": 96, "channel": 0}, {"type": "note_off", "time": 123, "note": 61, "velocity": 96, "channel": 0}, {"type": "note_on", "time": 27, "note": 64, "velocity": 97, "channel": 0}, {"type": "note_off", "time": 157, "note": 64, "velocity": 97, "channel": 0}, {"type": "note_on", "time": 15, "note": 68, "velocity": 113, "channel": 0}, {"type": "note_off", "time": 222, "note": 68, "velocity": 113, "channel": 0}, {"type": "note_on", "time": 95, "note": 71, "velocity": 114, "channel": 0}, {"type": "note_off", "time": 129, "note": 71, "velocity": 114, "channel": 0}, {"type": "note_on", "time": 27, "note": 66, "velocity": 108, "channel": 0}, {"type": "note_off", "time": 219, "note": 66, "velocity": 108, "channel": 0}, {"type": "note_on", "time": 52, "note": 61, "velocity": 97, "channel": 0}, {"type": "note_off", "time": 108, "note": 61, "velocity": 97, "channel": 0}, {"type": "note_on", "time": 46, "note": 64, "velocity": 107, "channel": 0}, {"type": "note_off", "time": 176, "note": 64, "velocity": 107, "channel": 0}, {"type": "note_on", "time": 46, "note": 59, "velocity": 106, "channel": 0}, {"type": "note_off", "time": 126, "note": 59, "velocity": 106, "channel": 0}, {"type": "note_on", "time": 49, "note": 54, "velocity": 95, "channel": 0}, {"type": "note_off", "time": 197, "note": 54, "velocity": 95, "channel": 0}, {"type": "note_on", "time": 247, "note": 56, "velocity": 106, "channel": 0}, {"type": "note_off", "time": 160, "note": 56, "velocity": 106, "channel": 0}, {"type": "note_on", "time": 95, "note": 56, "velocity": 104, "channel": 0}, {"type": "note_off", "time": 151, "note": 56, "velocity": 104, "channel": 0}, {"type": "note_on", "time": 92, "note": 56, "velocity": 103, "channel": 0}, {"type": "note_off", "time": 176, "note": 56, "velocity": 103, "channel": 0}, {"type": "note_on", "time": 86, "note": 56, "velocity": 112, "channel": 0}, {"type": "note_off", "time": 163, "note": 56, "velocity": 112, "channel": 0}, {"type": "note_on", "time": 95, "note": 56, "velocity": 111, "channel": 0}, {"type": "note_off", "time": 179, "note": 56, "velocity": 111, "channel": 0}, {"type": "note_on", "time": 89, "note": 56, "velocity": 110, "channel": 0}, {"type": "note_off", "time": 256, "note": 56, "velocity": 110, "channel": 0}, {"type": "note_on", "time": 52, "note": 56, "velocity": 112, "channel": 0}, {"type": "note_off", "time": 234, "note": 56, "velocity": 112, "channel": 0}, {"type": "note_on", "time": 55, "note": 55, "velocity": 106, "channel": 0}, {"type": "note_off", "time": 132, "note": 55, "velocity": 106, "channel": 0}, {"type": "note_on", "time": 58, "note": 54, "velocity": 103, "channel": 0}, {"type": "note_off", "time": 206, "note": 54, "velocity": 103, "channel": 0}, {"type": "note_on", "time": 49, "note": 53, "velocity": 94, "channel": 0}, {"type": "note_off", "time": 463, "note": 53, "velocity": 94, "channel": 0}, {"type": "note_on", "time": 416, "note": 52, "velocity": 103, "channel": 0}, {"type": "note_off", "time": 219, "note": 52, "velocity": 103, "channel": 0}, {"type": "note_on", "time": 105, "note": 51, "velocity": 106, "channel": 0}, {"type": "note_off", "time": 191, "note": 51, "velocity": 106, "channel": 0}, {"type": "note_on", "time": 89, "note": 51, "velocity": 100, "channel": 0}, {"type": "note_off", "time": 206, "note": 51, "velocity": 100, "channel": 0}, {"type": "note_on", "time": 98, "note": 51, "velocity": 108, "channel": 0}, {"type": "note_off", "time": 197, "note": 51, "velocity": 108, "channel": 0}, {"type": "note_on", "time": 74, "note": 51, "velocity": 114, "channel": 0}, {"type": "note_off", "time": 188, "note": 51, "velocity": 114, "channel": 0}, {"type": "note_on", "time": 49, "note": 51, "velocity": 110, "channel": 0}, {"type": "note_off", "time": 231, "note": 51, "velocity": 110, "channel": 0}, {"type": "note_on", "time": 52, "note": 51, "velocity": 112, "channel": 0}, {"type": "note_off", "time": 237, "note": 51, "velocity": 112, "channel": 0}, {"type": "note_on", "time": 64, "note": 51, "velocity": 114, "channel": 0}, {"type": "note_off", "time": 247, "note": 51, "velocity": 114, "channel": 0}, {"type": "note_on", "time": 52, "note": 50, "velocity": 105, "channel": 0}, {"type": "note_off", "time": 123, "note": 50, "velocity": 105, "channel": 0}, {"type": "note_on", "time": 52, "note": 49, "velocity": 106, "channel": 0}, {"type": "note_off", "time": 114, "note": 49, "velocity": 106, "channel": 0}, {"type": "note_on", "time": 74, "note": 48, "velocity": 87, "channel": 0}, {"type": "note_off", "time": 660, "note": 48, "velocity": 87, "channel": 0}, {"type": "note_on", "time": 4657, "note": 62, "velocity": 115, "channel": 0}, {"type": "note_off", "time": 213, "note": 62, "velocity": 115, "channel": 0}, {"type": "note_on", "time": 30, "note": 64, "velocity": 112, "channel": 0}, {"type": "note_off", "time": 101, "note": 64, "velocity": 112, "channel": 0}, {"type": "note_on", "time": 24, "note": 66, "velocity": 119, "channel": 0}, {"type": "note_off", "time": 182, "note": 66, "velocity": 119, "channel": 0}, {"type": "note_on", "time": 33, "note": 62, "velocity": 112, "channel": 0}, {"type": "note_off", "time": 120, "note": 62, "velocity": 112, "channel": 0}, {"type": "note_on", "time": 30, "note": 64, "velocity": 122, "channel": 0}, {"type": "note_off", "time": 169, "note": 64, "velocity": 122, "channel": 0}, {"type": "note_on", "time": 83, "note": 58, "velocity": 109, "channel": 0}, {"type": "note_off", "time": 148, "note": 58, "velocity": 109, "channel": 0}, {"type": "note_on", "time": 74, "note": 54, "velocity": 106, "channel": 0}, {"type": "note_off", "time": 154, "note": 54, "velocity": 106, "channel": 0}, {"type": "note_on", "time": 259, "note": 57, "velocity": 114, "channel": 0}, {"type": "note_off", "time": 135, "note": 57, "velocity": 114, "channel": 0}, {"type": "note_on", "time": 86, "note": 62, "velocity": 113, "channel": 0}, {"type": "note_off", "time": 138, "note": 62, "velocity": 113, "channel": 0}, {"type": "note_on", "time": 49, "note": 59, "velocity": 107, "channel": 0}, {"type": "note_off", "time": 213, "note": 59, "velocity": 107, "channel": 0}, {"type": "note_on", "time": 46, "note": 57, "velocity": 104, "channel": 0}, {"type": "note_off", "time": 138, "note": 57, "velocity": 104, "channel": 0}, {"type": "note_on", "time": 15, "note": 58, "velocity": 112, "channel": 0}, {"type": "note_off", "time": 228, "note": 58, "velocity": 112, "channel": 0}, {"type": "note_on", "time": 37, "note": 61, "velocity": 109, "channel": 0}, {"type": "note_off", "time": 225, "note": 61, "velocity": 109, "channel": 0}, {"type": "note_on", "time": 12, "note": 62, "velocity": 108, "channel": 0}, {"type": "note_off", "time": 108, "note": 62, "velocity": 108, "channel": 0}, {"type": "note_on", "time": 43, "note": 63, "velocity": 121, "channel": 0}, {"type": "note_off", "time": 253, "note": 63, "velocity": 121, "channel": 0}, {"type": "note_on", "time": 52, "note": 61, "velocity": 112, "channel": 0}, {"type": "note_off", "time": 225, "note": 61, "velocity": 112, "channel": 0}, {"type": "note_on", "time": 24, "note": 60, "velocity": 106, "channel": 0}, {"type": "note_off", "time": 138, "note": 60, "velocity": 106, "channel": 0}, {"type": "note_on", "time": 24, "note": 61, "velocity": 105, "channel": 0}, {"type": "note_off", "time": 213, "note": 61, "velocity": 105, "channel": 0}, {"type": "note_on", "time": 37, "note": 65, "velocity": 99, "channel": 0}, {"type": "note_off", "time": 117, "note": 65, "velocity": 99, "channel": 0}, {"type": "note_on", "time": 58, "note": 68, "velocity": 104, "channel": 0}, {"type": "note_off", "time": 163, "note": 68, "velocity": 104, "channel": 0}, {"type": "note_on", "time": 9, "note": 72, "velocity": 116, "channel": 0}, {"type": "note_off", "time": 305, "note": 72, "velocity": 116, "channel": 0}, {"type": "note_on", "time": 24, "note": 68, "velocity": 95, "channel": 0}, {"type": "note_off", "time": 71, "note": 68, "velocity": 95, "channel": 0}, {"type": "note_on", "time": 27, "note": 71, "velocity": 105, "channel": 0}, {"type": "note_off", "time": 858, "note": 71, "velocity": 105, "channel": 0}, {"type": "note_on", "time": 30, "note": 69, "velocity": 99, "channel": 0}, {"type": "note_off", "time": 166, "note": 69, "velocity": 99, "channel": 0}, {"type": "note_on", "time": 27, "note": 70, "velocity": 114, "channel": 0}, {"type": "note_off", "time": 213, "note": 70, "velocity": 114, "channel": 0}, {"type": "note_on", "time": 52, "note": 67, "velocity": 100, "channel": 0}, {"type": "note_off", "time": 86, "note": 67, "velocity": 100, "channel": 0}, {"type": "note_on", "time": 40, "note": 68, "velocity": 116, "channel": 0}, {"type": "note_off", "time": 200, "note": 68, "velocity": 116, "channel": 0}, {"type": "note_on", "time": 58, "note": 68, "velocity": 110, "channel": 0}, {"type": "note_off", "time": 157, "note": 68, "velocity": 110, "channel": 0}, {"type": "note_on", "time": 40, "note": 67, "velocity": 109, "channel": 0}, {"type": "note_off", "time": 163, "note": 67, "velocity": 109, "channel": 0}, {"type": "note_on", "time": 46, "note": 65, "velocity": 94, "channel": 0}, {"type": "note_off", "time": 92, "note": 65, "velocity": 94, "channel": 0}, {"type": "note_on", "time": 27, "note": 63, "velocity": 115, "channel": 0}, {"type": "note_off", "time": 142, "note": 63, "velocity": 115, "channel": 0}, {"type": "note_on", "time": 74, "note": 58, "velocity": 99, "channel": 0}, {"type": "note_off", "time": 129, "note": 58, "velocity": 99, "channel": 0}, {"type": "note_on", "time": 71, "note": 55, "velocity": 102, "channel": 0}, {"type": "note_off", "time": 129, "note": 55, "velocity": 102, "channel": 0}, {"type": "note_on", "time": 37, "note": 56, "velocity": 103, "channel": 0}, {"type": "note_off", "time": 200, "note": 56, "velocity": 103, "channel": 0}, {"type": "note_on", "time": 43, "note": 58, "velocity": 101, "channel": 0}, {"type": "note_off", "time": 151, "note": 58, "velocity": 101, "channel": 0}, {"type": "note_on", "time": 37, "note": 59, "velocity": 101, "channel": 0}, {"type": "note_off", "time": 148, "note": 59, "velocity": 101, "channel": 0}, {"type": "note_on", "time": 18, "note": 63, "velocity": 111, "channel": 0}, {"type": "note_off", "time": 154, "note": 63, "velocity": 111, "channel": 0}, {"type": "note_on", "time": 37, "note": 65, "velocity": 105, "channel": 0}, {"type": "note_off", "time": 135, "note": 65, "velocity": 105, "channel": 0}, {"type": "note_on", "time": 46, "note": 67, "velocity": 92, "channel": 0}, {"type": "note_off", "time": 157, "note": 67, "velocity": 92, "channel": 0}, {"type": "note_on", "time": 77, "note": 70, "velocity": 96, "channel": 0}, {"type": "note_off", "time": 210, "note": 70, "velocity": 96, "channel": 0}, {"type": "note_on", "time": 49, "note": 72, "velocity": 99, "channel": 0}, {"type": "note_off", "time": 105, "note": 72, "velocity": 99, "channel": 0}, {"type": "note_on", "time": 12, "note": 73, "velocity": 115, "channel": 0}, {"type": "note_off", "time": 447, "note": 73, "velocity": 115, "channel": 0}, {"type": "note_on", "time": 18, "note": 72, "velocity": 122, "channel": 0}, {"type": "note_off", "time": 95, "note": 72, "velocity": 122, "channel": 0}, {"type": "note_on", "time": 30, "note": 71, "velocity": 97, "channel": 0}, {"type": "note_off", "time": 123, "note": 71, "velocity": 97, "channel": 0}, {"type": "note_on", "time": 12, "note": 69, "velocity": 91, "channel": 0}, {"type": "note_off", "time": 123, "note": 69, "velocity": 91, "channel": 0}, {"type": "note_on", "time": 52, "note": 70, "velocity": 117, "channel": 0}, {"type": "note_off", "time": 228, "note": 70, "velocity": 117, "channel": 0}, {"type": "note_on", "time": 46, "note": 66, "velocity": 115, "channel": 0}, {"type": "note_off", "time": 135, "note": 66, "velocity": 115, "channel": 0}, {"type": "note_on", "time": 21, "note": 65, "velocity": 111, "channel": 0}, {"type": "note_off", "time": 151, "note": 65, "velocity": 111, "channel": 0}, {"type": "note_on", "time": 61, "note": 64, "velocity": 118, "channel": 0}, {"type": "note_off", "time": 157, "note": 64, "velocity": 118, "channel": 0}, {"type": "note_on", "time": 40, "note": 63, "velocity": 116, "channel": 0}, {"type": "note_off", "time": 145, "note": 63, "velocity": 116, "channel": 0}, {"type": "note_on", "time": 55, "note": 61, "velocity": 110, "channel": 0}, {"type": "note_off", "time": 154, "note": 61, "velocity": 110, "channel": 0}, {"type": "note_on", "time": 43, "note": 59, "velocity": 107, "channel": 0}, {"type": "note_off", "time": 148, "note": 59, "velocity": 107, "channel": 0}, {"type": "note_on", "time": 37, "note": 57, "velocity": 97, "channel": 0}, {"type": "note_off", "time": 132, "note": 57, "velocity": 97, "channel": 0}, {"type": "note_on", "time": 18, "note": 58, "velocity": 110, "channel": 0}, {"type": "note_off", "time": 271, "note": 58, "velocity": 110, "channel": 0}, {"type": "note_on", "time": 71, "note": 54, "velocity": 110, "channel": 0}, {"type": "note_off", "time": 98, "note": 54, "velocity": 110, "channel": 0}, {"type": "note_on", "time": 33, "note": 53, "velocity": 115, "channel": 0}, {"type": "note_off", "time": 126, "note": 53, "velocity": 115, "channel": 0}, {"type": "note_on", "time": 24, "note": 52, "velocity": 111, "channel": 0}, {"type": "note_off", "time": 182, "note": 52, "velocity": 111, "channel": 0}, {"type": "note_on", "time": 24, "note": 51, "velocity": 106, "channel": 0}, {"type": "note_off", "time": 293, "note": 51, "velocity": 106, "channel": 0}, {"type": "note_on", "time": 37, "note": 54, "velocity": 97, "channel": 0}, {"type": "note_off", "time": 61, "note": 54, "velocity": 97, "channel": 0}, {"type": "note_on", "time": 9, "note": 55, "velocity": 106, "channel": 0}, {"type": "note_off", "time": 80, "note": 55, "velocity": 106, "channel": 0}, {"type": "note_on", "time": 40, "note": 58, "velocity": 101, "channel": 0}, {"type": "note_off", "time": 80, "note": 58, "velocity": 101, "channel": 0}, {"type": "note_on", "time": 30, "note": 62, "velocity": 105, "channel": 0}, {"type": "note_off", "time": 111, "note": 62, "velocity": 105, "channel": 0}, {"type": "note_on", "time": 18, "note": 65, "velocity": 102, "channel": 0}, {"type": "note_off", "time": 83, "note": 65, "velocity": 102, "channel": 0}, {"type": "note_on", "time": 21, "note": 67, "velocity": 110, "channel": 0}, {"type": "note_off", "time": 86, "note": 67, "velocity": 110, "channel": 0}, {"type": "note_on", "time": 21, "note": 65, "velocity": 103, "channel": 0}, {"type": "note_off", "time": 61, "note": 65, "velocity": 103, "channel": 0}, {"type": "note_on", "time": 21, "note": 62, "velocity": 107, "channel": 0}, {"type": "note_off", "time": 77, "note": 62, "velocity": 107, "channel": 0}, {"type": "note_on", "time": 37, "note": 58, "velocity": 103, "channel": 0}, {"type": "note_off", "time": 210, "note": 58, "velocity": 103, "channel": 0}, {"type": "note_on", "time": 77, "note": 55, "velocity": 91, "channel": 0}, {"type": "note_off", "time": 117, "note": 55, "velocity": 91, "channel": 0}, {"type": "note_on", "time": 30, "note": 63, "velocity": 114, "channel": 0}, {"type": "note_off", "time": 200, "note": 63, "velocity": 114, "channel": 0}, {"type": "note_on", "time": 210, "note": 63, "velocity": 119, "channel": 0}, {"type": "note_off", "time": 277, "note": 63, "velocity": 119, "channel": 0}, {"type": "note_on", "time": 40, "note": 62, "velocity": 116, "channel": 0}, {"type": "note_off", "time": 253, "note": 62, "velocity": 116, "channel": 0}, {"type": "note_on", "time": 108, "note": 62, "velocity": 118, "channel": 0}, {"type": "note_off", "time": 160, "note": 62, "velocity": 118, "channel": 0}, {"type": "note_on", "time": 77, "note": 58, "velocity": 108, "channel": 0}, {"type": "note_off", "time": 191, "note": 58, "velocity": 108, "channel": 0}, {"type": "note_on", "time": 228, "note": 62, "velocity": 106, "channel": 0}, {"type": "note_off", "time": 253, "note": 62, "velocity": 106, "channel": 0}, {"type": "note_on", "time": 30, "note": 65, "velocity": 92, "channel": 0}, {"type": "note_off", "time": 95, "note": 65, "velocity": 92, "channel": 0}, {"type": "note_on", "time": 27, "note": 67, "velocity": 99, "channel": 0}, {"type": "note_off", "time": 231, "note": 67, "velocity": 99, "channel": 0}, {"type": "note_on", "time": 18, "note": 69, "velocity": 114, "channel": 0}, {"type": "note_off", "time": 129, "note": 69, "velocity": 114, "channel": 0}, {"type": "note_on", "time": 61, "note": 65, "velocity": 105, "channel": 0}, {"type": "note_off", "time": 154, "note": 65, "velocity": 105, "channel": 0}, {"type": "note_on", "time": 49, "note": 62, "velocity": 115, "channel": 0}, {"type": "note_off", "time": 132, "note": 62, "velocity": 115, "channel": 0}, {"type": "note_on", "time": 71, "note": 58, "velocity": 104, "channel": 0}, {"type": "note_off", "time": 216, "note": 58, "velocity": 104, "channel": 0}, {"type": "note_on", "time": 108, "note": 64, "velocity": 108, "channel": 0}, {"type": "note_off", "time": 243, "note": 64, "velocity": 108, "channel": 0}, {"type": "note_on", "time": 9, "note": 62, "velocity": 103, "channel": 0}, {"type": "note_off", "time": 105, "note": 62, "velocity": 103, "channel": 0}, {"type": "note_on", "time": 37, "note": 63, "velocity": 114, "channel": 0}, {"type": "note_off", "time": 305, "note": 63, "velocity": 114, "channel": 0}, {"type": "note_on", "time": 27, "note": 61, "velocity": 97, "channel": 0}, {"type": "note_off", "time": 117, "note": 61, "velocity": 97, "channel": 0}, {"type": "note_on", "time": 18, "note": 62, "velocity": 112, "channel": 0}, {"type": "note_off", "time": 243, "note": 62, "velocity": 112, "channel": 0}, {"type": "note_on", "time": 71, "note": 59, "velocity": 109, "channel": 0}, {"type": "note_off", "time": 138, "note": 59, "velocity": 109, "channel": 0}, {"type": "note_on", "time": 77, "note": 55, "velocity": 107, "channel": 0}, {"type": "note_off", "time": 210, "note": 55, "velocity": 107, "channel": 0}, {"type": "note_on", "time": 43, "note": 50, "velocity": 96, "channel": 0}, {"type": "note_off", "time": 126, "note": 50, "velocity": 96, "channel": 0}, {"type": "note_on", "time": 18, "note": 53, "velocity": 108, "channel": 0}, {"type": "note_off", "time": 176, "note": 53, "velocity": 108, "channel": 0}, {"type": "note_on", "time": 21, "note": 52, "velocity": 108, "channel": 0}, {"type": "note_off", "time": 166, "note": 52, "velocity": 108, "channel": 0}, {"type": "note_on", "time": 18, "note": 51, "velocity": 102, "channel": 0}, {"type": "note_off", "time": 259, "note": 51, "velocity": 102, "channel": 0}, {"type": "note_on", "time": 30, "note": 53, "velocity": 101, "channel": 0}, {"type": "note_off", "time": 129, "note": 53, "velocity": 101, "channel": 0}, {"type": "note_on", "time": 24, "note": 55, "velocity": 103, "channel": 0}, {"type": "note_off", "time": 83, "note": 55, "velocity": 103, "channel": 0}, {"type": "note_on", "time": 40, "note": 58, "velocity": 102, "channel": 0}, {"type": "note_off", "time": 114, "note": 58, "velocity": 102, "channel": 0}, {"type": "note_on", "time": 30, "note": 62, "velocity": 111, "channel": 0}, {"type": "note_off", "time": 126, "note": 62, "velocity": 111, "channel": 0}, {"type": "note_on", "time": 37, "note": 65, "velocity": 108, "channel": 0}, {"type": "note_off", "time": 231, "note": 65, "velocity": 108, "channel": 0}, {"type": "note_on", "time": 64, "note": 62, "velocity": 96, "channel": 0}, {"type": "note_off", "time": 176, "note": 62, "velocity": 96, "channel": 0}, {"type": "note_on", "time": 40, "note": 63, "velocity": 117, "channel": 0}, {"type": "note_off", "time": 237, "note": 63, "velocity": 117, "channel": 0}, {"type": "note_on", "time": 61, "note": 65, "velocity": 104, "channel": 0}, {"type": "note_off", "time": 284, "note": 65, "velocity": 104, "channel": 0}, {"type": "note_on", "time": 58, "note": 67, "velocity": 109, "channel": 0}, {"type": "note_off", "time": 296, "note": 67, "velocity": 109, "channel": 0}, {"type": "note_on", "time": 77, "note": 71, "velocity": 117, "channel": 0}, {"type": "note_off", "time": 265, "note": 71, "velocity": 117, "channel": 0}, {"type": "note_on", "time": 52, "note": 74, "velocity": 113, "channel": 0}, {"type": "note_off", "time": 271, "note": 74, "velocity": 113, "channel": 0}, {"type": "note_on", "time": 46, "note": 75, "velocity": 116, "channel": 0}, {"type": "note_off", "time": 308, "note": 75, "velocity": 116, "channel": 0}, {"type": "note_on", "time": 58, "note": 71, "velocity": 114, "channel": 0}, {"type": "note_off", "time": 293, "note": 71, "velocity": 114, "channel": 0}, {"type": "note_on", "time": 37, "note": 75, "velocity": 111, "channel": 0}, {"type": "note_off", "time": 262, "note": 75, "velocity": 111, "channel": 0}, {"type": "note_on", "time": 33, "note": 73, "velocity": 87, "channel": 0}, {"type": "note_off", "time": 830, "note": 73, "velocity": 87, "channel": 0}, {"type": "note_on", "time": 4638, "note": 68, "velocity": 112, "channel": 0}, {"type": "note_off", "time": 145, "note": 68, "velocity": 112, "channel": 0}, {"type": "note_on", "time": 185, "note": 71, "velocity": 123, "channel": 0}, {"type": "note_off", "time": 225, "note": 71, "velocity": 123, "channel": 0}, {"type": "note_on", "time": 52, "note": 73, "velocity": 111, "channel": 0}, {"type": "note_off", "time": 219, "note": 73, "velocity": 111, "channel": 0}, {"type": "note_on", "time": 37, "note": 70, "velocity": 96, "channel": 0}, {"type": "note_off", "time": 1000, "note": 70, "velocity": 96, "channel": 0}, {"type": "note_on", "time": 1337, "note": 63, "velocity": 121, "channel": 0}, {"type": "note_off", "time": 287, "note": 63, "velocity": 121, "channel": 0}, {"type": "note_on", "time": 95, "note": 69, "velocity": 118, "channel": 0}, {"type": "note_off", "time": 466, "note": 69, "velocity": 118, "channel": 0}, {"type": "note_on", "time": 61, "note": 72, "velocity": 115, "channel": 0}, {"type": "note_off", "time": 426, "note": 72, "velocity": 115, "channel": 0}, {"type": "note_on", "time": 92, "note": 70, "velocity": 117, "channel": 0}, {"type": "note_off", "time": 367, "note": 70, "velocity": 117, "channel": 0}, {"type": "note_on", "time": 55, "note": 67, "velocity": 115, "channel": 0}, {"type": "note_off", "time": 404, "note": 67, "velocity": 115, "channel": 0}, {"type": "note_on", "time": 74, "note": 63, "velocity": 121, "channel": 0}, {"type": "note_off", "time": 568, "note": 63, "velocity": 121, "channel": 0}, {"type": "note_on", "time": 234, "note": 58, "velocity": 108, "channel": 0}, {"type": "note_off", "time": 435, "note": 58, "velocity": 108, "channel": 0}, {"type": "note_on", "time": 234, "note": 69, "velocity": 107, "channel": 0}, {"type": "note_off", "time": 160, "note": 69, "velocity": 107, "channel": 0}, {"type": "note_on", "time": 27, "note": 70, "velocity": 118, "channel": 0}, {"type": "note_off", "time": 138, "note": 70, "velocity": 118, "channel": 0}, {"type": "note_on", "time": 61, "note": 69, "velocity": 113, "channel": 0}, {"type": "note_off", "time": 392, "note": 69, "velocity": 113, "channel": 0}, {"type": "note_on", "time": 83, "note": 72, "velocity": 118, "channel": 0}, {"type": "note_off", "time": 336, "note": 72, "velocity": 118, "channel": 0}, {"type": "note_on", "time": 52, "note": 70, "velocity": 115, "channel": 0}, {"type": "note_off", "time": 450, "note": 70, "velocity": 115, "channel": 0}, {"type": "note_on", "time": 77, "note": 67, "velocity": 113, "channel": 0}, {"type": "note_off", "time": 277, "note": 67, "velocity": 113, "channel": 0}, {"type": "note_on", "time": 250, "note": 65, "velocity": 115, "channel": 0}, {"type": "note_off", "time": 216, "note": 65, "velocity": 115, "channel": 0}, {"type": "note_on", "time": 49, "note": 67, "velocity": 114, "channel": 0}, {"type": "note_off", "time": 80, "note": 67, "velocity": 114, "channel": 0}, {"type": "note_on", "time": 52, "note": 66, "velocity": 110, "channel": 0}, {"type": "note_off", "time": 89, "note": 66, "velocity": 110, "channel": 0}, {"type": "note_on", "time": 37, "note": 63, "velocity": 114, "channel": 0}, {"type": "note_off", "time": 151, "note": 63, "velocity": 114, "channel": 0}, {"type": "note_on", "time": 46, "note": 58, "velocity": 107, "channel": 0}, {"type": "note_off", "time": 386, "note": 58, "velocity": 107, "channel": 0}, {"type": "note_on", "time": 225, "note": 65, "velocity": 111, "channel": 0}, {"type": "note_off", "time": 546, "note": 65, "velocity": 111, "channel": 0}, {"type": "note_on", "time": 265, "note": 65, "velocity": 101, "channel": 0}, {"type": "note_off", "time": 1059, "note": 65, "velocity": 101, "channel": 0}, {"type": "note_on", "time": 997, "note": 55, "velocity": 108, "channel": 0}, {"type": "note_off", "time": 105, "note": 55, "velocity": 108, "channel": 0}, {"type": "note_on", "time": 61, "note": 58, "velocity": 111, "channel": 0}, {"type": "note_off", "time": 105, "note": 58, "velocity": 111, "channel": 0}, {"type": "note_on", "time": 18, "note": 62, "velocity": 112, "channel": 0}, {"type": "note_off", "time": 176, "note": 62, "velocity": 112, "channel": 0}, {"type": "note_on", "time": 21, "note": 64, "velocity": 107, "channel": 0}, {"type": "note_off", "time": 95, "note": 64, "velocity": 107, "channel": 0}, {"type": "note_on", "time": 24, "note": 65, "velocity": 99, "channel": 0}, {"type": "note_off", "time": 86, "note": 65, "velocity": 99, "channel": 0}, {"type": "note_on", "time": 21, "note": 67, "velocity": 113, "channel": 0}, {"type": "note_off", "time": 194, "note": 67, "velocity": 113, "channel": 0}, {"type": "note_on", "time": 27, "note": 68, "velocity": 113, "channel": 0}, {"type": "note_off", "time": 250, "note": 68, "velocity": 113, "channel": 0}, {"type": "note_on", "time": 71, "note": 66, "velocity": 111, "channel": 0}, {"type": "note_off", "time": 200, "note": 66, "velocity": 111, "channel": 0}, {"type": "note_on", "time": 40, "note": 62, "velocity": 103, "channel": 0}, {"type": "note_off", "time": 138, "note": 62, "velocity": 103, "channel": 0}, {"type": "note_on", "time": 46, "note": 65, "velocity": 105, "channel": 0}, {"type": "note_off", "time": 129, "note": 65, "velocity": 105, "channel": 0}, {"type": "note_on", "time": 9, "note": 64, "velocity": 115, "channel": 0}, {"type": "note_off", "time": 176, "note": 64, "velocity": 115, "channel": 0}, {"type": "note_on", "time": 27, "note": 63, "velocity": 113, "channel": 0}, {"type": "note_off", "time": 123, "note": 63, "velocity": 113, "channel": 0}, {"type": "note_on", "time": 49, "note": 67, "velocity": 106, "channel": 0}, {"type": "note_off", "time": 154, "note": 67, "velocity": 106, "channel": 0}, {"type": "note_on", "time": 71, "note": 62, "velocity": 112, "channel": 0}, {"type": "note_off", "time": 142, "note": 62, "velocity": 112, "channel": 0}, {"type": "note_on", "time": 9, "note": 61, "velocity": 106, "channel": 0}, {"type": "note_off", "time": 142, "note": 61, "velocity": 106, "channel": 0}, {"type": "note_on", "time": 67, "note": 58, "velocity": 101, "channel": 0}, {"type": "note_off", "time": 145, "note": 58, "velocity": 101, "channel": 0}, {"type": "note_on", "time": 21, "note": 59, "velocity": 110, "channel": 0}, {"type": "note_off", "time": 166, "note": 59, "velocity": 110, "channel": 0}, {"type": "note_on", "time": 61, "note": 56, "velocity": 110, "channel": 0}, {"type": "note_off", "time": 154, "note": 56, "velocity": 110, "channel": 0}, {"type": "note_on", "time": 33, "note": 54, "velocity": 109, "channel": 0}, {"type": "note_off", "time": 176, "note": 54, "velocity": 109, "channel": 0}, {"type": "note_on", "time": 12, "note": 53, "velocity": 104, "channel": 0}, {"type": "note_off", "time": 145, "note": 53, "velocity": 104, "channel": 0}, {"type": "note_on", "time": 49, "note": 51, "velocity": 104, "channel": 0}, {"type": "note_off", "time": 284, "note": 51, "velocity": 104, "channel": 0}, {"type": "note_on", "time": 225, "note": 55, "velocity": 91, "channel": 0}, {"type": "note_off", "time": 151, "note": 55, "velocity": 91, "channel": 0}, {"type": "note_on", "time": 40, "note": 58, "velocity": 101, "channel": 0}, {"type": "note_off", "time": 157, "note": 58, "velocity": 101, "channel": 0}, {"type": "note_on", "time": 61, "note": 63, "velocity": 117, "channel": 0}, {"type": "note_off", "time": 210, "note": 63, "velocity": 117, "channel": 0}, {"type": "note_on", "time": 46, "note": 65, "velocity": 108, "channel": 0}, {"type": "note_off", "time": 228, "note": 65, "velocity": 108, "channel": 0}, {"type": "note_on", "time": 55, "note": 67, "velocity": 111, "channel": 0}, {"type": "note_off", "time": 256, "note": 67, "velocity": 111, "channel": 0}, {"type": "note_on", "time": 117, "note": 70, "velocity": 107, "channel": 0}, {"type": "note_off", "time": 154, "note": 70, "velocity": 107, "channel": 0}, {"type": "note_on", "time": 95, "note": 65, "velocity": 102, "channel": 0}, {"type": "note_off", "time": 132, "note": 65, "velocity": 102, "channel": 0}, {"type": "note_on", "time": 58, "note": 61, "velocity": 104, "channel": 0}, {"type": "note_off", "time": 135, "note": 61, "velocity": 104, "channel": 0}, {"type": "note_on", "time": 58, "note": 58, "velocity": 100, "channel": 0}, {"type": "note_off", "time": 197, "note": 58, "velocity": 100, "channel": 0}, {"type": "note_on", "time": 67, "note": 63, "velocity": 115, "channel": 0}, {"type": "note_off", "time": 185, "note": 63, "velocity": 115, "channel": 0}, {"type": "note_on", "time": 49, "note": 65, "velocity": 104, "channel": 0}, {"type": "note_off", "time": 163, "note": 65, "velocity": 104, "channel": 0}, {"type": "note_on", "time": 52, "note": 67, "velocity": 111, "channel": 0}, {"type": "note_off", "time": 169, "note": 67, "velocity": 111, "channel": 0}, {"type": "note_on", "time": 123, "note": 63, "velocity": 104, "channel": 0}, {"type": "note_off", "time": 101, "note": 63, "velocity": 104, "channel": 0}, {"type": "note_on", "time": 30, "note": 65, "velocity": 105, "channel": 0}, {"type": "note_off", "time": 197, "note": 65, "velocity": 105, "channel": 0}, {"type": "note_on", "time": 46, "note": 60, "velocity": 105, "channel": 0}, {"type": "note_off", "time": 166, "note": 60, "velocity": 105, "channel": 0}, {"type": "note_on", "time": 15, "note": 58, "velocity": 108, "channel": 0}, {"type": "note_off", "time": 157, "note": 58, "velocity": 108, "channel": 0}, {"type": "note_on", "time": 250, "note": 63, "velocity": 119, "channel": 0}, {"type": "note_off", "time": 185, "note": 63, "velocity": 119, "channel": 0}, {"type": "note_on", "time": 33, "note": 65, "velocity": 102, "channel": 0}, {"type": "note_off", "time": 176, "note": 65, "velocity": 102, "channel": 0}, {"type": "note_on", "time": 46, "note": 60, "velocity": 105, "channel": 0}, {"type": "note_off", "time": 160, "note": 60, "velocity": 105, "channel": 0}, {"type": "note_on", "time": 83, "note": 63, "velocity": 114, "channel": 0}, {"type": "note_off", "time": 166, "note": 63, "velocity": 114, "channel": 0}, {"type": "note_on", "time": 89, "note": 59, "velocity": 107, "channel": 0}, {"type": "note_off", "time": 132, "note": 59, "velocity": 107, "channel": 0}, {"type": "note_on", "time": 43, "note": 53, "velocity": 107, "channel": 0}, {"type": "note_off", "time": 132, "note": 53, "velocity": 107, "channel": 0}, {"type": "note_on", "time": 77, "note": 51, "velocity": 107, "channel": 0}, {"type": "note_off", "time": 210, "note": 51, "velocity": 107, "channel": 0}, {"type": "note_on", "time": 33, "note": 58, "velocity": 111, "channel": 0}, {"type": "note_off", "time": 210, "note": 58, "velocity": 111, "channel": 0}, {"type": "note_on", "time": 30, "note": 53, "velocity": 105, "channel": 0}, {"type": "note_off", "time": 117, "note": 53, "velocity": 105, "channel": 0}, {"type": "note_on", "time": 83, "note": 48, "velocity": 101, "channel": 0}, {"type": "note_off", "time": 135, "note": 48, "velocity": 101, "channel": 0}, {"type": "note_on", "time": 33, "note": 51, "velocity": 108, "channel": 0}, {"type": "note_off", "time": 259, "note": 51, "velocity": 108, "channel": 0}, {"type": "note_on", "time": 0, "note": 49, "velocity": 94, "channel": 0}, {"type": "note_off", "time": 596, "note": 49, "velocity": 94, "channel": 0}, {"type": "note_on", "time": 2238, "note": 49, "velocity": 120, "channel": 0}, {"type": "note_off", "time": 105, "note": 49, "velocity": 120, "channel": 0}, {"type": "note_on", "time": 15, "note": 51, "velocity": 117, "channel": 0}, {"type": "note_off", "time": 172, "note": 51, "velocity": 117, "channel": 0}, {"type": "note_on", "time": 27, "note": 53, "velocity": 110, "channel": 0}, {"type": "note_off", "time": 80, "note": 53, "velocity": 110, "channel": 0}, {"type": "note_on", "time": 46, "note": 49, "velocity": 114, "channel": 0}, {"type": "note_off", "time": 234, "note": 49, "velocity": 114, "channel": 0}, {"type": "note_on", "time": 86, "note": 54, "velocity": 111, "channel": 0}, {"type": "note_off", "time": 200, "note": 54, "velocity": 111, "channel": 0}, {"type": "note_on", "time": 74, "note": 57, "velocity": 111, "channel": 0}, {"type": "note_off", "time": 108, "note": 57, "velocity": 111, "channel": 0}, {"type": "note_on", "time": 37, "note": 58, "velocity": 114, "channel": 0}, {"type": "note_off", "time": 132, "note": 58, "velocity": 114, "channel": 0}, {"type": "note_on", "time": 0, "note": 52, "velocity": 119, "channel": 0}, {"type": "note_off", "time": 206, "note": 52, "velocity": 119, "channel": 0}, {"type": "note_on", "time": 33, "note": 55, "velocity": 110, "channel": 0}, {"type": "note_off", "time": 163, "note": 55, "velocity": 110, "channel": 0}, {"type": "note_on", "time": 64, "note": 57, "velocity": 111, "channel": 0}, {"type": "note_off", "time": 142, "note": 57, "velocity": 111, "channel": 0}, {"type": "note_on", "time": 37, "note": 59, "velocity": 105, "channel": 0}, {"type": "note_off", "time": 108, "note": 59, "velocity": 105, "channel": 0}, {"type": "note_on", "time": 43, "note": 64, "velocity": 113, "channel": 0}, {"type": "note_off", "time": 169, "note": 64, "velocity": 113, "channel": 0}, {"type": "note_on", "time": 61, "note": 66, "velocity": 115, "channel": 0}, {"type": "note_off", "time": 92, "note": 66, "velocity": 115, "channel": 0}, {"type": "note_on", "time": 40, "note": 69, "velocity": 113, "channel": 0}, {"type": "note_off", "time": 222, "note": 69, "velocity": 113, "channel": 0}, {"type": "note_on", "time": 6, "note": 71, "velocity": 115, "channel": 0}, {"type": "note_off", "time": 138, "note": 71, "velocity": 115, "channel": 0}, {"type": "note_on", "time": 18, "note": 73, "velocity": 115, "channel": 0}, {"type": "note_off", "time": 274, "note": 73, "velocity": 115, "channel": 0}, {"type": "note_on", "time": 46, "note": 71, "velocity": 112, "channel": 0}, {"type": "note_off", "time": 163, "note": 71, "velocity": 112, "channel": 0}, {"type": "note_on", "time": 64, "note": 64, "velocity": 103, "channel": 0}, {"type": "note_off", "time": 126, "note": 64, "velocity": 103, "channel": 0}, {"type": "note_on", "time": 64, "note": 59, "velocity": 92, "channel": 0}, {"type": "note_off", "time": 114, "note": 59, "velocity": 92, "channel": 0}, {"type": "note_on", "time": 52, "note": 63, "velocity": 121, "channel": 0}, {"type": "note_off", "time": 287, "note": 63, "velocity": 121, "channel": 0}, {"type": "note_on", "time": 154, "note": 70, "velocity": 115, "channel": 0}, {"type": "note_off", "time": 243, "note": 70, "velocity": 115, "channel": 0}, {"type": "note_on", "time": 172, "note": 58, "velocity": 111, "channel": 0}, {"type": "note_off", "time": 293, "note": 58, "velocity": 111, "channel": 0}, {"type": "note_on", "time": 163, "note": 46, "velocity": 116, "channel": 0}, {"type": "note_off", "time": 339, "note": 46, "velocity": 116, "channel": 0}, {"type": "note_on", "time": 160, "note": 63, "velocity": 121, "channel": 0}, {"type": "note_off", "time": 281, "note": 63, "velocity": 121, "channel": 0}, {"type": "note_on", "time": 132, "note": 58, "velocity": 114, "channel": 0}, {"type": "note_off", "time": 281, "note": 58, "velocity": 114, "channel": 0}, {"type": "note_on", "time": 154, "note": 63, "velocity": 124, "channel": 0}, {"type": "note_off", "time": 253, "note": 63, "velocity": 124, "channel": 0}, {"type": "note_on", "time": 114, "note": 70, "velocity": 115, "channel": 0}, {"type": "note_off", "time": 250, "note": 70, "velocity": 115, "channel": 0}, {"type": "note_on", "time": 30, "note": 70, "velocity": 114, "channel": 0}, {"type": "note_off", "time": 182, "note": 70, "velocity": 114, "channel": 0}, {"type": "note_on", "time": 64, "note": 71, "velocity": 112, "channel": 0}, {"type": "note_off", "time": 253, "note": 71, "velocity": 112, "channel": 0}, {"type": "note_on", "time": 157, "note": 70, "velocity": 114, "channel": 0}, {"type": "note_off", "time": 237, "note": 70, "velocity": 114, "channel": 0}, {"type": "note_on", "time": 185, "note": 63, "velocity": 119, "channel": 0}, {"type": "note_off", "time": 315, "note": 63, "velocity": 119, "channel": 0}, {"type": "note_on", "time": 98, "note": 59, "velocity": 111, "channel": 0}, {"type": "note_off", "time": 284, "note": 59, "velocity": 111, "channel": 0}, {"type": "note_on", "time": 135, "note": 58, "velocity": 113, "channel": 0}, {"type": "note_off", "time": 358, "note": 58, "velocity": 113, "channel": 0}, {"type": "note_on", "time": 83, "note": 51, "velocity": 113, "channel": 0}, {"type": "note_off", "time": 308, "note": 51, "velocity": 113, "channel": 0}, {"type": "note_on", "time": 160, "note": 47, "velocity": 107, "channel": 0}, {"type": "note_off", "time": 583, "note": 47, "velocity": 107, "channel": 0}, {"type": "note_on", "time": 89, "note": 46, "velocity": 100, "channel": 0}, {"type": "note_off", "time": 784, "note": 46, "velocity": 100, "channel": 0}, {"type": "note_on", "time": 2711, "note": 49, "velocity": 124, "channel": 0}, {"type": "note_off", "time": 92, "note": 49, "velocity": 124, "channel": 0}, {"type": "note_on", "time": 24, "note": 50, "velocity": 115, "channel": 0}, {"type": "note_off", "time": 86, "note": 50, "velocity": 115, "channel": 0}, {"type": "note_on", "time": 24, "note": 52, "velocity": 118, "channel": 0}, {"type": "note_off", "time": 80, "note": 52, "velocity": 118, "channel": 0}, {"type": "note_on", "time": 30, "note": 54, "velocity": 116, "channel": 0}, {"type": "note_off", "time": 135, "note": 54, "velocity": 116, "channel": 0}, {"type": "note_on", "time": 46, "note": 57, "velocity": 119, "channel": 0}, {"type": "note_off", "time": 142, "note": 57, "velocity": 119, "channel": 0}, {"type": "note_on", "time": 30, "note": 62, "velocity": 120, "channel": 0}, {"type": "note_off", "time": 151, "note": 62, "velocity": 120, "channel": 0}, {"type": "note_on", "time": 18, "note": 66, "velocity": 113, "channel": 0}, {"type": "note_off", "time": 160, "note": 66, "velocity": 113, "channel": 0}, {"type": "note_on", "time": 46, "note": 70, "velocity": 114, "channel": 0}, {"type": "note_off", "time": 176, "note": 70, "velocity": 114, "channel": 0}, {"type": "note_on", "time": 24, "note": 72, "velocity": 118, "channel": 0}, {"type": "note_off", "time": 194, "note": 72, "velocity": 118, "channel": 0}, {"type": "note_on", "time": 40, "note": 74, "velocity": 100, "channel": 0}, {"type": "note_off", "time": 824, "note": 74, "velocity": 100, "channel": 0}, {"type": "note_on", "time": 1571, "note": 57, "velocity": 115, "channel": 0}, {"type": "note_off", "time": 243, "note": 57, "velocity": 115, "channel": 0}, {"type": "note_on", "time": 30, "note": 58, "velocity": 113, "channel": 0}, {"type": "note_off", "time": 228, "note": 58, "velocity": 113, "channel": 0}, {"type": "note_on", "time": 52, "note": 63, "velocity": 121, "channel": 0}, {"type": "note_off", "time": 194, "note": 63, "velocity": 121, "channel": 0}, {"type": "note_on", "time": 52, "note": 65, "velocity": 112, "channel": 0}, {"type": "note_off", "time": 71, "note": 65, "velocity": 112, "channel": 0}, {"type": "note_on", "time": 46, "note": 67, "velocity": 110, "channel": 0}, {"type": "note_off", "time": 151, "note": 67, "velocity": 110, "channel": 0}, {"type": "note_on", "time": 30, "note": 70, "velocity": 116, "channel": 0}, {"type": "note_off", "time": 206, "note": 70, "velocity": 116, "channel": 0}, {"type": "note_on", "time": 55, "note": 69, "velocity": 112, "channel": 0}, {"type": "note_off", "time": 169, "note": 69, "velocity": 112, "channel": 0}, {"type": "note_on", "time": 52, "note": 66, "velocity": 113, "channel": 0}, {"type": "note_off", "time": 126, "note": 66, "velocity": 113, "channel": 0}, {"type": "note_on", "time": 77, "note": 62, "velocity": 117, "channel": 0}, {"type": "note_off", "time": 154, "note": 62, "velocity": 117, "channel": 0}, {"type": "note_on", "time": 1272, "note": 56, "velocity": 112, "channel": 0}, {"type": "note_off", "time": 234, "note": 56, "velocity": 112, "channel": 0}, {"type": "note_on", "time": 21, "note": 58, "velocity": 108, "channel": 0}, {"type": "note_off", "time": 123, "note": 58, "velocity": 108, "channel": 0}, {"type": "note_on", "time": 46, "note": 61, "velocity": 110, "channel": 0}, {"type": "note_off", "time": 169, "note": 61, "velocity": 110, "channel": 0}, {"type": "note_on", "time": 46, "note": 65, "velocity": 110, "channel": 0}, {"type": "note_off", "time": 117, "note": 65, "velocity": 110, "channel": 0}, {"type": "note_on", "time": 58, "note": 68, "velocity": 118, "channel": 0}, {"type": "note_off", "time": 389, "note": 68, "velocity": 118, "channel": 0}, {"type": "note_on", "time": 12, "note": 67, "velocity": 116, "channel": 0}, {"type": "note_off", "time": 243, "note": 67, "velocity": 116, "channel": 0}, {"type": "note_on", "time": 40, "note": 64, "velocity": 109, "channel": 0}, {"type": "note_off", "time": 169, "note": 64, "velocity": 109, "channel": 0}, {"type": "note_on", "time": 46, "note": 60, "velocity": 98, "channel": 0}, {"type": "note_off", "time": 157, "note": 60, "velocity": 98, "channel": 0}, {"type": "note_on", "time": 1349, "note": 47, "velocity": 117, "channel": 0}, {"type": "note_off", "time": 206, "note": 47, "velocity": 117, "channel": 0}, {"type": "note_on", "time": 33, "note": 51, "velocity": 114, "channel": 0}, {"type": "note_off", "time": 203, "note": 51, "velocity": 114, "channel": 0}, {"type": "note_on", "time": 24, "note": 54, "velocity": 114, "channel": 0}, {"type": "note_off", "time": 163, "note": 54, "velocity": 114, "channel": 0}, {"type": "note_on", "time": 27, "note": 51, "velocity": 110, "channel": 0}, {"type": "note_off", "time": 172, "note": 51, "velocity": 110, "channel": 0}, {"type": "note_on", "time": 33, "note": 54, "velocity": 106, "channel": 0}, {"type": "note_off", "time": 83, "note": 54, "velocity": 106, "channel": 0}, {"type": "note_on", "time": 12, "note": 59, "velocity": 109, "channel": 0}, {"type": "note_off", "time": 163, "note": 59, "velocity": 109, "channel": 0}, {"type": "note_on", "time": 37, "note": 63, "velocity": 116, "channel": 0}, {"type": "note_off", "time": 135, "note": 63, "velocity": 116, "channel": 0}, {"type": "note_on", "time": 30, "note": 66, "velocity": 115, "channel": 0}, {"type": "note_off", "time": 142, "note": 66, "velocity": 115, "channel": 0}, {"type": "note_on", "time": 30, "note": 61, "velocity": 108, "channel": 0}, {"type": "note_off", "time": 182, "note": 61, "velocity": 108, "channel": 0}, {"type": "note_on", "time": 46, "note": 59, "velocity": 106, "channel": 0}, {"type": "note_off", "time": 138, "note": 59, "velocity": 106, "channel": 0}, {"type": "note_on", "time": 64, "note": 57, "velocity": 106, "channel": 0}, {"type": "note_off", "time": 145, "note": 57, "velocity": 106, "channel": 0}, {"type": "note_on", "time": 55, "note": 64, "velocity": 120, "channel": 0}, {"type": "note_off", "time": 145, "note": 64, "velocity": 120, "channel": 0}, {"type": "note_on", "time": 24, "note": 63, "velocity": 119, "channel": 0}, {"type": "note_off", "time": 132, "note": 63, "velocity": 119, "channel": 0}, {"type": "note_on", "time": 30, "note": 64, "velocity": 117, "channel": 0}, {"type": "note_off", "time": 135, "note": 64, "velocity": 117, "channel": 0}, {"type": "note_on", "time": 9, "note": 63, "velocity": 111, "channel": 0}, {"type": "note_off", "time": 101, "note": 63, "velocity": 111, "channel": 0}, {"type": "note_on", "time": 52, "note": 61, "velocity": 107, "channel": 0}, {"type": "note_off", "time": 228, "note": 61, "velocity": 107, "channel": 0}, {"type": "note_on", "time": 318, "note": 58, "velocity": 103, "channel": 0}, {"type": "note_off", "time": 64, "note": 58, "velocity": 103, "channel": 0}, {"type": "note_on", "time": 12, "note": 59, "velocity": 109, "channel": 0}, {"type": "note_off", "time": 234, "note": 59, "velocity": 109, "channel": 0}, {"type": "note_on", "time": 1031, "note": 56, "velocity": 111, "channel": 0}, {"type": "note_off", "time": 151, "note": 56, "velocity": 111, "channel": 0}, {"type": "note_on", "time": 48, "note": 56, "velocity": 116, "channel": 0}, {"type": "note_off", "time": 188, "note": 56, "velocity": 116, "channel": 0}, {"type": "note_on", "time": 36, "note": 56, "velocity": 113, "channel": 0}, {"type": "note_off", "time": 206, "note": 56, "velocity": 113, "channel": 0}, {"type": "note_on", "time": 36, "note": 56, "velocity": 112, "channel": 0}, {"type": "note_off", "time": 214, "note": 56, "velocity": 112, "channel": 0}, {"type": "note_on", "time": 78, "note": 56, "velocity": 110, "channel": 0}, {"type": "note_off", "time": 390, "note": 56, "velocity": 110, "channel": 0}, {"type": "note_on", "time": 117, "note": 59, "velocity": 113, "channel": 0}, {"type": "note_off", "time": 243, "note": 59, "velocity": 113, "channel": 0}, {"type": "note_on", "time": 49, "note": 58, "velocity": 100, "channel": 0}, {"type": "note_off", "time": 348, "note": 58, "velocity": 100, "channel": 0}, {"type": "note_on", "time": 1368, "note": 60, "velocity": 113, "channel": 0}, {"type": "note_off", "time": 194, "note": 60, "velocity": 113, "channel": 0}, {"type": "note_on", "time": 27, "note": 62, "velocity": 113, "channel": 0}, {"type": "note_off", "time": 114, "note": 62, "velocity": 113, "channel": 0}, {"type": "note_on", "time": 43, "note": 65, "velocity": 114, "channel": 0}, {"type": "note_off", "time": 151, "note": 65, "velocity": 114, "channel": 0}, {"type": "note_on", "time": 40, "note": 62, "velocity": 113, "channel": 0}, {"type": "note_off", "time": 126, "note": 62, "velocity": 113, "channel": 0}, {"type": "note_on", "time": 37, "note": 63, "velocity": 122, "channel": 0}, {"type": "note_off", "time": 197, "note": 63, "velocity": 122, "channel": 0}, {"type": "note_on", "time": 71, "note": 65, "velocity": 111, "channel": 0}, {"type": "note_off", "time": 253, "note": 65, "velocity": 111, "channel": 0}, {"type": "note_on", "time": 86, "note": 67, "velocity": 93, "channel": 0}, {"type": "note_off", "time": 225, "note": 67, "velocity": 93, "channel": 0}, {"type": "note_on", "time": 49, "note": 70, "velocity": 110, "channel": 0}, {"type": "note_off", "time": 182, "note": 70, "velocity": 110, "channel": 0}, {"type": "note_on", "time": 80, "note": 65, "velocity": 109, "channel": 0}, {"type": "note_off", "time": 135, "note": 65, "velocity": 109, "channel": 0}, {"type": "note_on", "time": 37, "note": 62, "velocity": 113, "channel": 0}, {"type": "note_off", "time": 163, "note": 62, "velocity": 113, "channel": 0}, {"type": "note_on", "time": 55, "note": 58, "velocity": 102, "channel": 0}, {"type": "note_off", "time": 160, "note": 58, "velocity": 102, "channel": 0}, {"type": "note_on", "time": 80, "note": 63, "velocity": 110, "channel": 0}, {"type": "note_off", "time": 163, "note": 63, "velocity": 110, "channel": 0}, {"type": "note_on", "time": 172, "note": 67, "velocity": 112, "channel": 0}, {"type": "note_off", "time": 268, "note": 67, "velocity": 112, "channel": 0}, {"type": "note_on", "time": 21, "note": 66, "velocity": 112, "channel": 0}, {"type": "note_off", "time": 163, "note": 66, "velocity": 112, "channel": 0}, {"type": "note_on", "time": 33, "note": 65, "velocity": 113, "channel": 0}, {"type": "note_off", "time": 191, "note": 65, "velocity": 113, "channel": 0}, {"type": "note_on", "time": 27, "note": 64, "velocity": 110, "channel": 0}, {"type": "note_off", "time": 138, "note": 64, "velocity": 110, "channel": 0}, {"type": "note_on", "time": 37, "note": 63, "velocity": 112, "channel": 0}, {"type": "note_off", "time": 151, "note": 63, "velocity": 112, "channel": 0}, {"type": "note_on", "time": 33, "note": 56, "velocity": 98, "channel": 0}, {"type": "note_off", "time": 77, "note": 56, "velocity": 98, "channel": 0}, {"type": "note_on", "time": 27, "note": 58, "velocity": 104, "channel": 0}, {"type": "note_off", "time": 111, "note": 58, "velocity": 104, "channel": 0}, {"type": "note_on", "time": 43, "note": 62, "velocity": 107, "channel": 0}, {"type": "note_off", "time": 123, "note": 62, "velocity": 107, "channel": 0}, {"type": "note_on", "time": 21, "note": 61, "velocity": 110, "channel": 0}, {"type": "note_off", "time": 172, "note": 61, "velocity": 110, "channel": 0}, {"type": "note_on", "time": 40, "note": 60, "velocity": 101, "channel": 0}, {"type": "note_off", "time": 114, "note": 60, "velocity": 101, "channel": 0}, {"type": "note_on", "time": 30, "note": 58, "velocity": 98, "channel": 0}, {"type": "note_off", "time": 166, "note": 58, "velocity": 98, "channel": 0}, {"type": "note_on", "time": 43, "note": 59, "velocity": 105, "channel": 0}, {"type": "note_off", "time": 129, "note": 59, "velocity": 105, "channel": 0}, {"type": "note_on", "time": 284, "note": 68, "velocity": 110, "channel": 0}, {"type": "note_off", "time": 185, "note": 68, "velocity": 110, "channel": 0}, {"type": "note_on", "time": 169, "note": 67, "velocity": 95, "channel": 0}, {"type": "note_off", "time": 213, "note": 67, "velocity": 95, "channel": 0}, {"type": "note_on", "time": 580, "note": 66, "velocity": 110, "channel": 0}, {"type": "note_off", "time": 191, "note": 66, "velocity": 110, "channel": 0}, {"type": "note_on", "time": 256, "note": 65, "velocity": 109, "channel": 0}, {"type": "note_off", "time": 210, "note": 65, "velocity": 109, "channel": 0}, {"type": "note_on", "time": 552, "note": 65, "velocity": 107, "channel": 0}, {"type": "note_off", "time": 206, "note": 65, "velocity": 107, "channel": 0}, {"type": "note_on", "time": 290, "note": 63, "velocity": 110, "channel": 0}, {"type": "note_off", "time": 222, "note": 63, "velocity": 110, "channel": 0}, {"type": "note_on", "time": 203, "note": 62, "velocity": 113, "channel": 0}, {"type": "note_off", "time": 194, "note": 62, "velocity": 113, "channel": 0}, {"type": "note_on", "time": 188, "note": 61, "velocity": 102, "channel": 0}, {"type": "note_off", "time": 176, "note": 61, "velocity": 102, "channel": 0}, {"type": "note_on", "time": 265, "note": 60, "velocity": 107, "channel": 0}, {"type": "note_off", "time": 203, "note": 60, "velocity": 107, "channel": 0}, {"type": "note_on", "time": 203, "note": 59, "velocity": 97, "channel": 0}, {"type": "note_off", "time": 182, "note": 59, "velocity": 97, "channel": 0}, {"type": "note_on", "time": 296, "note": 56, "velocity": 104, "channel": 0}, {"type": "note_off", "time": 182, "note": 56, "velocity": 104, "channel": 0}, {"type": "note_on", "time": 271, "note": 55, "velocity": 106, "channel": 0}, {"type": "note_off", "time": 197, "note": 55, "velocity": 106, "channel": 0}, {"type": "note_on", "time": 364, "note": 54, "velocity": 110, "channel": 0}, {"type": "note_off", "time": 243, "note": 54, "velocity": 110, "channel": 0}, {"type": "note_on", "time": 27, "note": 53, "velocity": 109, "channel": 0}, {"type": "note_off", "time": 268, "note": 53, "velocity": 109, "channel": 0}, {"type": "note_on", "time": 330, "note": 58, "velocity": 110, "channel": 0}, {"type": "note_off", "time": 234, "note": 58, "velocity": 110, "channel": 0}, {"type": "note_on", "time": 243, "note": 59, "velocity": 113, "channel": 0}, {"type": "note_off", "time": 237, "note": 59, "velocity": 113, "channel": 0}, {"type": "note_on", "time": 274, "note": 65, "velocity": 105, "channel": 0}, {"type": "note_off", "time": 210, "note": 65, "velocity": 105, "channel": 0}, {"type": "note_on", "time": 166, "note": 70, "velocity": 113, "channel": 0}, {"type": "note_off", "time": 210, "note": 70, "velocity": 113, "channel": 0}, {"type": "note_on", "time": 135, "note": 65, "velocity": 96, "channel": 0}, {"type": "note_off", "time": 132, "note": 65, "velocity": 96, "channel": 0}, {"type": "note_on", "time": 30, "note": 67, "velocity": 110, "channel": 0}, {"type": "note_off", "time": 281, "note": 67, "velocity": 110, "channel": 0}, {"type": "note_on", "time": 74, "note": 60, "velocity": 104, "channel": 0}, {"type": "note_off", "time": 219, "note": 60, "velocity": 104, "channel": 0}, {"type": "note_on", "time": 98, "note": 65, "velocity": 98, "channel": 0}, {"type": "note_off", "time": 268, "note": 65, "velocity": 98, "channel": 0}, {"type": "note_on", "time": 179, "note": 55, "velocity": 101, "channel": 0}, {"type": "note_off", "time": 185, "note": 55, "velocity": 101, "channel": 0}, {"type": "note_on", "time": 83, "note": 58, "velocity": 108, "channel": 0}, {"type": "note_off", "time": 234, "note": 58, "velocity": 108, "channel": 0}, {"type": "note_on", "time": 58, "note": 60, "velocity": 102, "channel": 0}, {"type": "note_off", "time": 197, "note": 60, "velocity": 102, "channel": 0}, {"type": "note_on", "time": 210, "note": 65, "velocity": 87, "channel": 0}, {"type": "note_off", "time": 302, "note": 65, "velocity": 87, "channel": 0}, {"type": "note_on", "time": 86, "note": 58, "velocity": 108, "channel": 0}, {"type": "note_off", "time": 197, "note": 58, "velocity": 108, "channel": 0}, {"type": "note_on", "time": 111, "note": 63, "velocity": 106, "channel": 0}, {"type": "note_off", "time": 219, "note": 63, "velocity": 106, "channel": 0}, {"type": "note_on", "time": 89, "note": 58, "velocity": 109, "channel": 0}, {"type": "note_off", "time": 237, "note": 58, "velocity": 109, "channel": 0}, {"type": "note_on", "time": 64, "note": 53, "velocity": 102, "channel": 0}, {"type": "note_off", "time": 259, "note": 53, "velocity": 102, "channel": 0}, {"type": "note_on", "time": 77, "note": 48, "velocity": 115, "channel": 0}, {"type": "note_off", "time": 200, "note": 48, "velocity": 115, "channel": 0}, {"type": "note_on", "time": 52, "note": 51, "velocity": 107, "channel": 0}, {"type": "note_off", "time": 274, "note": 51, "velocity": 107, "channel": 0}, {"type": "note_on", "time": 74, "note": 46, "velocity": 86, "channel": 0}, {"type": "note_off", "time": 870, "note": 46, "velocity": 86, "channel": 0}, {"type": "note_on", "time": 5809, "note": 63, "velocity": 124, "channel": 0}, {"type": "note_off", "time": 500, "note": 63, "velocity": 124, "channel": 0}, {"type": "note_on", "time": 80, "note": 63, "velocity": 127, "channel": 0}, {"type": "note_off", "time": 247, "note": 63, "velocity": 127, "channel": 0}, {"type": "note_on", "time": 58, "note": 63, "velocity": 121, "channel": 0}, {"type": "note_off", "time": 531, "note": 63, "velocity": 121, "channel": 0}, {"type": "note_on", "time": 55, "note": 63, "velocity": 125, "channel": 0}, {"type": "note_off", "time": 370, "note": 63, "velocity": 125, "channel": 0}, {"type": "note_on", "time": 40, "note": 63, "velocity": 119, "channel": 0}, {"type": "note_off", "time": 657, "note": 63, "velocity": 119, "channel": 0}, {"type": "note_on", "time": 30, "note": 62, "velocity": 119, "channel": 0}, {"type": "note_off", "time": 111, "note": 62, "velocity": 119, "channel": 0}, {"type": "note_on", "time": 12, "note": 63, "velocity": 116, "channel": 0}, {"type": "note_off", "time": 466, "note": 63, "velocity": 116, "channel": 0}, {"type": "note_on", "time": 243, "note": 63, "velocity": 122, "channel": 0}, {"type": "note_off", "time": 549, "note": 63, "velocity": 122, "channel": 0}, {"type": "note_on", "time": 67, "note": 66, "velocity": 119, "channel": 0}, {"type": "note_off", "time": 287, "note": 66, "velocity": 119, "channel": 0}, {"type": "note_on", "time": 43, "note": 64, "velocity": 120, "channel": 0}, {"type": "note_off", "time": 494, "note": 64, "velocity": 120, "channel": 0}, {"type": "note_on", "time": 19, "note": 62, "velocity": 122, "channel": 0}, {"type": "note_off", "time": 234, "note": 62, "velocity": 122, "channel": 0}, {"type": "note_on", "time": 30, "note": 63, "velocity": 113, "channel": 0}, {"type": "note_off", "time": 1359, "note": 63, "velocity": 113, "channel": 0}, {"type": "note_on", "time": 82, "note": 61, "velocity": 92, "channel": 0}, {"type": "note_off", "time": 143, "note": 61, "velocity": 92, "channel": 0}, {"type": "note_on", "time": 43, "note": 62, "velocity": 119, "channel": 0}, {"type": "note_off", "time": 521, "note": 62, "velocity": 119, "channel": 0}, {"type": "note_on", "time": 104, "note": 62, "velocity": 120, "channel": 0}, {"type": "note_off", "time": 264, "note": 62, "velocity": 120, "channel": 0}, {"type": "note_on", "time": 60, "note": 62, "velocity": 117, "channel": 0}, {"type": "note_off", "time": 482, "note": 62, "velocity": 117, "channel": 0}, {"type": "note_on", "time": 52, "note": 62, "velocity": 118, "channel": 0}, {"type": "note_off", "time": 282, "note": 62, "velocity": 118, "channel": 0}, {"type": "note_on", "time": 26, "note": 62, "velocity": 117, "channel": 0}, {"type": "note_off", "time": 451, "note": 62, "velocity": 117, "channel": 0}, {"type": "note_on", "time": 56, "note": 65, "velocity": 109, "channel": 0}, {"type": "note_off", "time": 217, "note": 65, "velocity": 109, "channel": 0}, {"type": "note_on", "time": 82, "note": 63, "velocity": 117, "channel": 0}, {"type": "note_off", "time": 477, "note": 63, "velocity": 117, "channel": 0}, {"type": "note_on", "time": 78, "note": 62, "velocity": 100, "channel": 0}, {"type": "note_off", "time": 1090, "note": 62, "velocity": 100, "channel": 0}, {"type": "note_on", "time": 2436, "note": 60, "velocity": 86, "channel": 0}, {"type": "note_off", "time": 130, "note": 60, "velocity": 86, "channel": 0}, {"type": "note_on", "time": 17, "note": 61, "velocity": 116, "channel": 0}, {"type": "note_off", "time": 442, "note": 61, "velocity": 116, "channel": 0}, {"type": "note_on", "time": 69, "note": 61, "velocity": 112, "channel": 0}, {"type": "note_off", "time": 460, "note": 61, "velocity": 112, "channel": 0}, {"type": "note_on", "time": 34, "note": 61, "velocity": 119, "channel": 0}, {"type": "note_off", "time": 299, "note": 61, "velocity": 119, "channel": 0}, {"type": "note_on", "time": 52, "note": 61, "velocity": 114, "channel": 0}, {"type": "note_off", "time": 334, "note": 61, "velocity": 114, "channel": 0}, {"type": "note_on", "time": 108, "note": 61, "velocity": 117, "channel": 0}, {"type": "note_off", "time": 343, "note": 61, "velocity": 117, "channel": 0}, {"type": "note_on", "time": 95, "note": 66, "velocity": 121, "channel": 0}, {"type": "note_off", "time": 282, "note": 66, "velocity": 121, "channel": 0}, {"type": "note_on", "time": 43, "note": 64, "velocity": 123, "channel": 0}, {"type": "note_off", "time": 412, "note": 64, "velocity": 123, "channel": 0}, {"type": "note_on", "time": 78, "note": 63, "velocity": 117, "channel": 0}, {"type": "note_off", "time": 1029, "note": 63, "velocity": 117, "channel": 0}, {"type": "note_on", "time": 91, "note": 61, "velocity": 114, "channel": 0}, {"type": "note_off", "time": 664, "note": 61, "velocity": 114, "channel": 0}, {"type": "note_on", "time": 125, "note": 59, "velocity": 106, "channel": 0}, {"type": "note_off", "time": 755, "note": 59, "velocity": 106, "channel": 0}, {"type": "note_on", "time": 95, "note": 56, "velocity": 106, "channel": 0}, {"type": "note_off", "time": 616, "note": 56, "velocity": 106, "channel": 0}, {"type": "note_on", "time": 91, "note": 54, "velocity": 92, "channel": 0}, {"type": "note_off", "time": 994, "note": 54, "velocity": 92, "channel": 0}, {"type": "note_on", "time": 5471, "note": 69, "velocity": 115, "channel": 0}, {"type": "note_off", "time": 173, "note": 69, "velocity": 115, "channel": 0}, {"type": "note_on", "time": 104, "note": 74, "velocity": 104, "channel": 0}, {"type": "note_off", "time": 855, "note": 74, "velocity": 104, "channel": 0}, {"type": "note_on", "time": 2154, "note": 70, "velocity": 118, "channel": 0}, {"type": "note_off", "time": 282, "note": 70, "velocity": 118, "channel": 0}, {"type": "note_on", "time": 134, "note": 74, "velocity": 113, "channel": 0}, {"type": "note_off", "time": 195, "note": 74, "velocity": 113, "channel": 0}, {"type": "note_on", "time": 26, "note": 75, "velocity": 92, "channel": 0}, {"type": "note_off", "time": 655, "note": 75, "velocity": 92, "channel": 0}, {"type": "note_on", "time": 1922, "note": 68, "velocity": 105, "channel": 0}, {"type": "note_off", "time": 312, "note": 68, "velocity": 105, "channel": 0}, {"type": "note_on", "time": 109, "note": 71, "velocity": 109, "channel": 0}, {"type": "note_off", "time": 594, "note": 71, "velocity": 109, "channel": 0}, {"type": "note_on", "time": 182, "note": 79, "velocity": 107, "channel": 0}, {"type": "note_off", "time": 1407, "note": 79, "velocity": 107, "channel": 0}, {"type": "note_on", "time": 191, "note": 68, "velocity": 111, "channel": 0}, {"type": "note_off", "time": 412, "note": 68, "velocity": 111, "channel": 0}, {"type": "note_on", "time": 152, "note": 79, "velocity": 112, "channel": 0}, {"type": "note_off", "time": 47, "note": 79, "velocity": 112, "channel": 0}, {"type": "note_on", "time": 26, "note": 80, "velocity": 110, "channel": 0}, {"type": "note_off", "time": 781, "note": 80, "velocity": 110, "channel": 0}, {"type": "note_on", "time": 43, "note": 79, "velocity": 110, "channel": 0}, {"type": "note_off", "time": 799, "note": 79, "velocity": 110, "channel": 0}, {"type": "note_on", "time": 117, "note": 76, "velocity": 103, "channel": 0}, {"type": "note_off", "time": 238, "note": 76, "velocity": 103, "channel": 0}, {"type": "note_on", "time": 30, "note": 77, "velocity": 102, "channel": 0}, {"type": "note_off", "time": 707, "note": 77, "velocity": 102, "channel": 0}, {"type": "note_on", "time": 104, "note": 75, "velocity": 104, "channel": 0}, {"type": "note_off", "time": 608, "note": 75, "velocity": 104, "channel": 0}, {"type": "note_on", "time": 56, "note": 74, "velocity": 102, "channel": 0}, {"type": "note_off", "time": 933, "note": 74, "velocity": 102, "channel": 0}, {"type": "note_on", "time": 0, "note": 72, "velocity": 106, "channel": 0}, {"type": "note_off", "time": 694, "note": 72, "velocity": 106, "channel": 0}, {"type": "note_on", "time": 112, "note": 67, "velocity": 112, "channel": 0}, {"type": "note_off", "time": 699, "note": 67, "velocity": 112, "channel": 0}, {"type": "note_on", "time": 60, "note": 63, "velocity": 116, "channel": 0}, {"type": "note_off", "time": 143, "note": 63, "velocity": 116, "channel": 0}, {"type": "note_on", "time": 39, "note": 65, "velocity": 111, "channel": 0}, {"type": "note_off", "time": 577, "note": 65, "velocity": 111, "channel": 0}, {"type": "note_on", "time": 17, "note": 63, "velocity": 117, "channel": 0}, {"type": "note_off", "time": 794, "note": 63, "velocity": 117, "channel": 0}, {"type": "note_on", "time": 43, "note": 62, "velocity": 120, "channel": 0}, {"type": "note_off", "time": 786, "note": 62, "velocity": 120, "channel": 0}, {"type": "note_on", "time": 56, "note": 60, "velocity": 114, "channel": 0}, {"type": "note_off", "time": 703, "note": 60, "velocity": 114, "channel": 0}, {"type": "note_on", "time": 151, "note": 55, "velocity": 111, "channel": 0}, {"type": "note_off", "time": 208, "note": 55, "velocity": 111, "channel": 0}, {"type": "note_on", "time": 143, "note": 51, "velocity": 106, "channel": 0}, {"type": "note_off", "time": 521, "note": 51, "velocity": 106, "channel": 0}, {"type": "note_on", "time": 82, "note": 53, "velocity": 94, "channel": 0}, {"type": "note_off", "time": 612, "note": 53, "velocity": 94, "channel": 0}, {"type": "note_on", "time": 3314, "note": 46, "velocity": 120, "channel": 0}, {"type": "note_off", "time": 123, "note": 46, "velocity": 120, "channel": 0}, {"type": "note_on", "time": 12, "note": 53, "velocity": 116, "channel": 0}, {"type": "note_off", "time": 111, "note": 53, "velocity": 116, "channel": 0}, {"type": "note_on", "time": 18, "note": 58, "velocity": 119, "channel": 0}, {"type": "note_off", "time": 135, "note": 58, "velocity": 119, "channel": 0}, {"type": "note_on", "time": 107, "note": 65, "velocity": 103, "channel": 0}, {"type": "note_off", "time": 141, "note": 65, "velocity": 103, "channel": 0}, {"type": "note_on", "time": 34, "note": 67, "velocity": 114, "channel": 0}, {"type": "note_off", "time": 160, "note": 67, "velocity": 114, "channel": 0}, {"type": "note_on", "time": 23, "note": 72, "velocity": 110, "channel": 0}, {"type": "note_off", "time": 115, "note": 72, "velocity": 110, "channel": 0}, {"type": "note_on", "time": 19, "note": 73, "velocity": 117, "channel": 0}, {"type": "note_off", "time": 217, "note": 73, "velocity": 117, "channel": 0}, {"type": "note_on", "time": 15, "note": 72, "velocity": 115, "channel": 0}, {"type": "note_off", "time": 80, "note": 72, "velocity": 115, "channel": 0}, {"type": "note_on", "time": 4, "note": 70, "velocity": 112, "channel": 0}, {"type": "note_off", "time": 178, "note": 70, "velocity": 112, "channel": 0}, {"type": "note_on", "time": 0, "note": 72, "velocity": 120, "channel": 0}, {"type": "note_off", "time": 89, "note": 72, "velocity": 120, "channel": 0}, {"type": "note_on", "time": 34, "note": 70, "velocity": 116, "channel": 0}, {"type": "note_off", "time": 208, "note": 70, "velocity": 116, "channel": 0}, {"type": "note_on", "time": 39, "note": 70, "velocity": 113, "channel": 0}, {"type": "note_off", "time": 147, "note": 70, "velocity": 113, "channel": 0}, {"type": "note_on", "time": 32, "note": 64, "velocity": 107, "channel": 0}, {"type": "note_off", "time": 262, "note": 64, "velocity": 107, "channel": 0}, {"type": "note_on", "time": 95, "note": 57, "velocity": 117, "channel": 0}, {"type": "note_off", "time": 336, "note": 57, "velocity": 117, "channel": 0}, {"type": "note_on", "time": 71, "note": 56, "velocity": 110, "channel": 0}, {"type": "note_off", "time": 623, "note": 56, "velocity": 110, "channel": 0}, {"type": "note_on", "time": 1383, "note": 58, "velocity": 121, "channel": 0}, {"type": "note_off", "time": 152, "note": 58, "velocity": 121, "channel": 0}, {"type": "note_on", "time": 39, "note": 65, "velocity": 111, "channel": 0}, {"type": "note_off", "time": 286, "note": 65, "velocity": 111, "channel": 0}, {"type": "note_on", "time": 82, "note": 70, "velocity": 114, "channel": 0}, {"type": "note_off", "time": 178, "note": 70, "velocity": 114, "channel": 0}, {"type": "note_on", "time": 45, "note": 65, "velocity": 113, "channel": 0}, {"type": "note_off", "time": 156, "note": 65, "velocity": 113, "channel": 0}, {"type": "note_on", "time": 52, "note": 58, "velocity": 107, "channel": 0}, {"type": "note_off", "time": 238, "note": 58, "velocity": 107, "channel": 0}, {"type": "note_on", "time": 15, "note": 58, "velocity": 109, "channel": 0}, {"type": "note_off", "time": 160, "note": 58, "velocity": 109, "channel": 0}, {"type": "note_on", "time": 10, "note": 63, "velocity": 117, "channel": 0}, {"type": "note_off", "time": 234, "note": 63, "velocity": 117, "channel": 0}, {"type": "note_on", "time": 173, "note": 68, "velocity": 118, "channel": 0}, {"type": "note_off", "time": 314, "note": 68, "velocity": 118, "channel": 0}, {"type": "note_on", "time": 60, "note": 72, "velocity": 116, "channel": 0}, {"type": "note_off", "time": 43, "note": 72, "velocity": 116, "channel": 0}, {"type": "note_on", "time": 10, "note": 73, "velocity": 121, "channel": 0}, {"type": "note_off", "time": 681, "note": 73, "velocity": 121, "channel": 0}, {"type": "note_on", "time": 32, "note": 71, "velocity": 116, "channel": 0}, {"type": "note_off", "time": 143, "note": 71, "velocity": 116, "channel": 0}, {"type": "note_on", "time": 41, "note": 70, "velocity": 113, "channel": 0}, {"type": "note_off", "time": 217, "note": 70, "velocity": 113, "channel": 0}, {"type": "note_on", "time": 62, "note": 66, "velocity": 111, "channel": 0}, {"type": "note_off", "time": 210, "note": 66, "velocity": 111, "channel": 0}, {"type": "note_on", "time": 23, "note": 65, "velocity": 115, "channel": 0}, {"type": "note_off", "time": 106, "note": 65, "velocity": 115, "channel": 0}, {"type": "note_on", "time": 30, "note": 64, "velocity": 114, "channel": 0}, {"type": "note_off", "time": 145, "note": 64, "velocity": 114, "channel": 0}, {"type": "note_on", "time": 32, "note": 63, "velocity": 122, "channel": 0}, {"type": "note_off", "time": 238, "note": 63, "velocity": 122, "channel": 0}, {"type": "note_on", "time": 15, "note": 58, "velocity": 114, "channel": 0}, {"type": "note_off", "time": 125, "note": 58, "velocity": 114, "channel": 0}, {"type": "note_on", "time": 19, "note": 58, "velocity": 114, "channel": 0}, {"type": "note_off", "time": 149, "note": 58, "velocity": 114, "channel": 0}, {"type": "note_on", "time": 125, "note": 54, "velocity": 115, "channel": 0}, {"type": "note_off", "time": 147, "note": 54, "velocity": 115, "channel": 0}, {"type": "note_on", "time": 23, "note": 53, "velocity": 114, "channel": 0}, {"type": "note_off", "time": 210, "note": 53, "velocity": 114, "channel": 0}, {"type": "note_on", "time": 39, "note": 52, "velocity": 115, "channel": 0}, {"type": "note_off", "time": 143, "note": 52, "velocity": 115, "channel": 0}, {"type": "note_on", "time": 38, "note": 51, "velocity": 114, "channel": 0}, {"type": "note_off", "time": 152, "note": 51, "velocity": 114, "channel": 0}, {"type": "note_on", "time": 88, "note": 55, "velocity": 116, "channel": 0}, {"type": "note_off", "time": 154, "note": 55, "velocity": 116, "channel": 0}, {"type": "note_on", "time": 24, "note": 51, "velocity": 120, "channel": 0}, {"type": "note_off", "time": 212, "note": 51, "velocity": 120, "channel": 0}, {"type": "note_on", "time": 54, "note": 53, "velocity": 112, "channel": 0}, {"type": "note_off", "time": 76, "note": 53, "velocity": 112, "channel": 0}, {"type": "note_on", "time": 39, "note": 55, "velocity": 111, "channel": 0}, {"type": "note_off", "time": 117, "note": 55, "velocity": 111, "channel": 0}, {"type": "note_on", "time": 8, "note": 58, "velocity": 111, "channel": 0}, {"type": "note_off", "time": 97, "note": 58, "velocity": 111, "channel": 0}, {"type": "note_on", "time": 15, "note": 62, "velocity": 110, "channel": 0}, {"type": "note_off", "time": 134, "note": 62, "velocity": 110, "channel": 0}, {"type": "note_on", "time": 10, "note": 65, "velocity": 112, "channel": 0}, {"type": "note_off", "time": 75, "note": 65, "velocity": 112, "channel": 0}, {"type": "note_on", "time": 36, "note": 67, "velocity": 113, "channel": 0}, {"type": "note_off", "time": 108, "note": 67, "velocity": 113, "channel": 0}, {"type": "note_on", "time": 102, "note": 62, "velocity": 112, "channel": 0}, {"type": "note_off", "time": 158, "note": 62, "velocity": 112, "channel": 0}, {"type": "note_on", "time": 13, "note": 58, "velocity": 101, "channel": 0}, {"type": "note_off", "time": 180, "note": 58, "velocity": 101, "channel": 0}, {"type": "note_on", "time": 156, "note": 63, "velocity": 118, "channel": 0}, {"type": "note_off", "time": 191, "note": 63, "velocity": 118, "channel": 0}, {"type": "note_on", "time": 43, "note": 65, "velocity": 107, "channel": 0}, {"type": "note_off", "time": 149, "note": 65, "velocity": 107, "channel": 0}, {"type": "note_on", "time": 28, "note": 67, "velocity": 116, "channel": 0}, {"type": "note_off", "time": 297, "note": 67, "velocity": 116, "channel": 0}, {"type": "note_on", "time": 17, "note": 70, "velocity": 109, "channel": 0}, {"type": "note_off", "time": 214, "note": 70, "velocity": 109, "channel": 0}, {"type": "note_on", "time": 34, "note": 69, "velocity": 107, "channel": 0}, {"type": "note_off", "time": 121, "note": 69, "velocity": 107, "channel": 0}, {"type": "note_on", "time": 13, "note": 68, "velocity": 114, "channel": 0}, {"type": "note_off", "time": 562, "note": 68, "velocity": 114, "channel": 0}, {"type": "note_on", "time": 10, "note": 69, "velocity": 110, "channel": 0}, {"type": "note_off", "time": 99, "note": 69, "velocity": 110, "channel": 0}, {"type": "note_on", "time": 45, "note": 66, "velocity": 110, "channel": 0}, {"type": "note_off", "time": 169, "note": 66, "velocity": 110, "channel": 0}, {"type": "note_on", "time": 56, "note": 60, "velocity": 103, "channel": 0}, {"type": "note_off", "time": 460, "note": 60, "velocity": 103, "channel": 0}, {"type": "note_on", "time": 19, "note": 63, "velocity": 111, "channel": 0}, {"type": "note_off", "time": 136, "note": 63, "velocity": 111, "channel": 0}, {"type": "note_on", "time": 36, "note": 66, "velocity": 108, "channel": 0}, {"type": "note_off", "time": 547, "note": 66, "velocity": 108, "channel": 0}, {"type": "note_on", "time": 34, "note": 63, "velocity": 115, "channel": 0}, {"type": "note_off", "time": 193, "note": 63, "velocity": 115, "channel": 0}, {"type": "note_on", "time": 47, "note": 65, "velocity": 99, "channel": 0}, {"type": "note_off", "time": 636, "note": 65, "velocity": 99, "channel": 0}, {"type": "note_on", "time": 47, "note": 62, "velocity": 110, "channel": 0}, {"type": "note_off", "time": 175, "note": 62, "velocity": 110, "channel": 0}, {"type": "note_on", "time": 15, "note": 63, "velocity": 115, "channel": 0}, {"type": "note_off", "time": 182, "note": 63, "velocity": 115, "channel": 0}, {"type": "note_on", "time": 67, "note": 65, "velocity": 102, "channel": 0}, {"type": "note_off", "time": 186, "note": 65, "velocity": 102, "channel": 0}, {"type": "note_on", "time": 52, "note": 67, "velocity": 106, "channel": 0}, {"type": "note_off", "time": 186, "note": 67, "velocity": 106, "channel": 0}, {"type": "note_on", "time": 26, "note": 70, "velocity": 111, "channel": 0}, {"type": "note_off", "time": 78, "note": 70, "velocity": 111, "channel": 0}, {"type": "note_on", "time": 63, "note": 65, "velocity": 109, "channel": 0}, {"type": "note_off", "time": 167, "note": 65, "velocity": 109, "channel": 0}, {"type": "note_on", "time": 27, "note": 62, "velocity": 117, "channel": 0}, {"type": "note_off", "time": 188, "note": 62, "velocity": 117, "channel": 0}, {"type": "note_on", "time": 24, "note": 70, "velocity": 103, "channel": 0}, {"type": "note_off", "time": 115, "note": 70, "velocity": 103, "channel": 0}, {"type": "note_on", "time": 144, "note": 62, "velocity": 106, "channel": 0}, {"type": "note_off", "time": 86, "note": 62, "velocity": 106, "channel": 0}, {"type": "note_on", "time": 23, "note": 64, "velocity": 113, "channel": 0}, {"type": "note_off", "time": 241, "note": 64, "velocity": 113, "channel": 0}, {"type": "note_on", "time": 45, "note": 59, "velocity": 111, "channel": 0}, {"type": "note_off", "time": 106, "note": 59, "velocity": 111, "channel": 0}, {"type": "note_on", "time": 26, "note": 54, "velocity": 111, "channel": 0}, {"type": "note_off", "time": 199, "note": 54, "velocity": 111, "channel": 0}, {"type": "note_on", "time": 55, "note": 61, "velocity": 108, "channel": 0}, {"type": "note_off", "time": 119, "note": 61, "velocity": 108, "channel": 0}, {"type": "note_on", "time": 36, "note": 59, "velocity": 109, "channel": 0}, {"type": "note_off", "time": 156, "note": 59, "velocity": 109, "channel": 0}, {"type": "note_on", "time": 2036, "note": 71, "velocity": 120, "channel": 0}, {"type": "note_off", "time": 254, "note": 71, "velocity": 120, "channel": 0}, {"type": "note_on", "time": 58, "note": 67, "velocity": 104, "channel": 0}, {"type": "note_off", "time": 112, "note": 67, "velocity": 104, "channel": 0}, {"type": "note_on", "time": 19, "note": 69, "velocity": 118, "channel": 0}, {"type": "note_off", "time": 160, "note": 69, "velocity": 118, "channel": 0}, {"type": "note_on", "time": 28, "note": 66, "velocity": 113, "channel": 0}, {"type": "note_off", "time": 158, "note": 66, "velocity": 113, "channel": 0}, {"type": "note_on", "time": 41, "note": 61, "velocity": 112, "channel": 0}, {"type": "note_off", "time": 214, "note": 61, "velocity": 112, "channel": 0}, {"type": "note_on", "time": 36, "note": 59, "velocity": 105, "channel": 0}, {"type": "note_off", "time": 110, "note": 59, "velocity": 105, "channel": 0}, {"type": "note_on", "time": 28, "note": 64, "velocity": 124, "channel": 0}, {"type": "note_off", "time": 271, "note": 64, "velocity": 124, "channel": 0}, {"type": "note_on", "time": 28, "note": 71, "velocity": 115, "channel": 0}, {"type": "note_off", "time": 106, "note": 71, "velocity": 115, "channel": 0}, {"type": "note_on", "time": 45, "note": 66, "velocity": 110, "channel": 0}, {"type": "note_off", "time": 160, "note": 66, "velocity": 110, "channel": 0}, {"type": "note_on", "time": 32, "note": 64, "velocity": 101, "channel": 0}, {"type": "note_off", "time": 156, "note": 64, "velocity": 101, "channel": 0}, {"type": "note_on", "time": 60, "note": 56, "velocity": 113, "channel": 0}, {"type": "note_off", "time": 173, "note": 56, "velocity": 113, "channel": 0}, {"type": "note_on", "time": 26, "note": 58, "velocity": 108, "channel": 0}, {"type": "note_off", "time": 160, "note": 58, "velocity": 108, "channel": 0}, {"type": "note_on", "time": 26, "note": 60, "velocity": 103, "channel": 0}, {"type": "note_off", "time": 175, "note": 60, "velocity": 103, "channel": 0}, {"type": "note_on", "time": 30, "note": 63, "velocity": 110, "channel": 0}, {"type": "note_off", "time": 141, "note": 63, "velocity": 110, "channel": 0}, {"type": "note_on", "time": 17, "note": 67, "velocity": 118, "channel": 0}, {"type": "note_off", "time": 180, "note": 67, "velocity": 118, "channel": 0}, {"type": "note_on", "time": 21, "note": 66, "velocity": 113, "channel": 0}, {"type": "note_off", "time": 143, "note": 66, "velocity": 113, "channel": 0}, {"type": "note_on", "time": 34, "note": 65, "velocity": 108, "channel": 0}, {"type": "note_off", "time": 182, "note": 65, "velocity": 108, "channel": 0}, {"type": "note_on", "time": 21, "note": 64, "velocity": 113, "channel": 0}, {"type": "note_off", "time": 206, "note": 64, "velocity": 113, "channel": 0}, {"type": "note_on", "time": 21, "note": 63, "velocity": 117, "channel": 0}, {"type": "note_off", "time": 167, "note": 63, "velocity": 117, "channel": 0}, {"type": "note_on", "time": 54, "note": 59, "velocity": 106, "channel": 0}, {"type": "note_off", "time": 184, "note": 59, "velocity": 106, "channel": 0}, {"type": "note_on", "time": 30, "note": 62, "velocity": 109, "channel": 0}, {"type": "note_off", "time": 186, "note": 62, "velocity": 109, "channel": 0}, {"type": "note_on", "time": 28, "note": 63, "velocity": 115, "channel": 0}, {"type": "note_off", "time": 132, "note": 63, "velocity": 115, "channel": 0}, {"type": "note_on", "time": 28, "note": 65, "velocity": 108, "channel": 0}, {"type": "note_off", "time": 627, "note": 65, "velocity": 108, "channel": 0}, {"type": "note_on", "time": 17, "note": 61, "velocity": 97, "channel": 0}, {"type": "note_off", "time": 173, "note": 61, "velocity": 97, "channel": 0}, {"type": "note_on", "time": 34, "note": 63, "velocity": 115, "channel": 0}, {"type": "note_off", "time": 169, "note": 63, "velocity": 115, "channel": 0}, {"type": "note_on", "time": 36, "note": 58, "velocity": 113, "channel": 0}, {"type": "note_off", "time": 151, "note": 58, "velocity": 113, "channel": 0}, {"type": "note_on", "time": 47, "note": 54, "velocity": 103, "channel": 0}, {"type": "note_off", "time": 178, "note": 54, "velocity": 103, "channel": 0}, {"type": "note_on", "time": 34, "note": 50, "velocity": 100, "channel": 0}, {"type": "note_off", "time": 108, "note": 50, "velocity": 100, "channel": 0}, {"type": "note_on", "time": 34, "note": 56, "velocity": 109, "channel": 0}, {"type": "note_off", "time": 141, "note": 56, "velocity": 109, "channel": 0}, {"type": "note_on", "time": 15, "note": 58, "velocity": 111, "channel": 0}, {"type": "note_off", "time": 249, "note": 58, "velocity": 111, "channel": 0}, {"type": "note_on", "time": 23, "note": 60, "velocity": 102, "channel": 0}, {"type": "note_off", "time": 199, "note": 60, "velocity": 102, "channel": 0}, {"type": "note_on", "time": 30, "note": 61, "velocity": 101, "channel": 0}, {"type": "note_off", "time": 208, "note": 61, "velocity": 101, "channel": 0}, {"type": "note_on", "time": 32, "note": 66, "velocity": 110, "channel": 0}, {"type": "note_off", "time": 286, "note": 66, "velocity": 110, "channel": 0}, {"type": "note_on", "time": 32, "note": 61, "velocity": 100, "channel": 0}, {"type": "note_off", "time": 95, "note": 61, "velocity": 100, "channel": 0}, {"type": "note_on", "time": 71, "note": 67, "velocity": 111, "channel": 0}, {"type": "note_off", "time": 201, "note": 67, "velocity": 111, "channel": 0}, {"type": "note_on", "time": 21, "note": 68, "velocity": 96, "channel": 0}, {"type": "note_off", "time": 110, "note": 68, "velocity": 96, "channel": 0}, {"type": "note_on", "time": 82, "note": 61, "velocity": 99, "channel": 0}, {"type": "note_off", "time": 171, "note": 61, "velocity": 99, "channel": 0}, {"type": "note_on", "time": 58, "note": 68, "velocity": 99, "channel": 0}, {"type": "note_off", "time": 143, "note": 68, "velocity": 99, "channel": 0}, {"type": "note_on", "time": 71, "note": 71, "velocity": 110, "channel": 0}, {"type": "note_off", "time": 267, "note": 71, "velocity": 110, "channel": 0}, {"type": "note_on", "time": 69, "note": 73, "velocity": 111, "channel": 0}, {"type": "note_off", "time": 449, "note": 73, "velocity": 111, "channel": 0}, {"type": "note_on", "time": 36, "note": 74, "velocity": 106, "channel": 0}, {"type": "note_off", "time": 282, "note": 74, "velocity": 106, "channel": 0}, {"type": "note_on", "time": 10, "note": 70, "velocity": 106, "channel": 0}, {"type": "note_off", "time": 822, "note": 70, "velocity": 106, "channel": 0}, {"type": "note_on", "time": 45, "note": 67, "velocity": 100, "channel": 0}, {"type": "note_off", "time": 786, "note": 67, "velocity": 100, "channel": 0}, {"type": "note_on", "time": 60, "note": 65, "velocity": 94, "channel": 0}, {"type": "note_off", "time": 753, "note": 65, "velocity": 94, "channel": 0}, {"type": "note_on", "time": 58, "note": 63, "velocity": 96, "channel": 0}, {"type": "note_off", "time": 592, "note": 63, "velocity": 96, "channel": 0}, {"type": "note_on", "time": 3113, "note": 68, "velocity": 109, "channel": 0}, {"type": "note_off", "time": 128, "note": 68, "velocity": 109, "channel": 0}, {"type": "note_on", "time": 21, "note": 69, "velocity": 115, "channel": 0}, {"type": "note_off", "time": 95, "note": 69, "velocity": 115, "channel": 0}, {"type": "note_on", "time": 60, "note": 72, "velocity": 98, "channel": 0}, {"type": "note_off", "time": 112, "note": 72, "velocity": 98, "channel": 0}, {"type": "note_on", "time": 8, "note": 73, "velocity": 101, "channel": 0}, {"type": "note_off", "time": 123, "note": 73, "velocity": 101, "channel": 0}, {"type": "note_on", "time": 19, "note": 66, "velocity": 108, "channel": 0}, {"type": "note_off", "time": 115, "note": 66, "velocity": 108, "channel": 0}, {"type": "note_on", "time": 15, "note": 71, "velocity": 111, "channel": 0}, {"type": "note_off", "time": 106, "note": 71, "velocity": 111, "channel": 0}, {"type": "note_on", "time": 19, "note": 72, "velocity": 114, "channel": 0}, {"type": "note_off", "time": 91, "note": 72, "velocity": 114, "channel": 0}, {"type": "note_on", "time": 49, "note": 68, "velocity": 110, "channel": 0}, {"type": "note_off", "time": 230, "note": 68, "velocity": 110, "channel": 0}, {"type": "note_on", "time": 15, "note": 71, "velocity": 115, "channel": 0}, {"type": "note_off", "time": 165, "note": 71, "velocity": 115, "channel": 0}, {"type": "note_on", "time": 34, "note": 69, "velocity": 104, "channel": 0}, {"type": "note_off", "time": 80, "note": 69, "velocity": 104, "channel": 0}, {"type": "note_on", "time": 4, "note": 68, "velocity": 109, "channel": 0}, {"type": "note_off", "time": 54, "note": 68, "velocity": 109, "channel": 0}, {"type": "note_on", "time": 21, "note": 64, "velocity": 115, "channel": 0}, {"type": "note_off", "time": 134, "note": 64, "velocity": 115, "channel": 0}, {"type": "note_on", "time": 19, "note": 65, "velocity": 111, "channel": 0}, {"type": "note_off", "time": 89, "note": 65, "velocity": 111, "channel": 0}, {"type": "note_on", "time": 6, "note": 66, "velocity": 109, "channel": 0}, {"type": "note_off", "time": 197, "note": 66, "velocity": 109, "channel": 0}, {"type": "note_on", "time": 34, "note": 61, "velocity": 108, "channel": 0}, {"type": "note_off", "time": 130, "note": 61, "velocity": 108, "channel": 0}, {"type": "note_on", "time": 45, "note": 64, "velocity": 107, "channel": 0}, {"type": "note_off", "time": 141, "note": 64, "velocity": 107, "channel": 0}, {"type": "note_on", "time": 43, "note": 63, "velocity": 105, "channel": 0}, {"type": "note_off", "time": 149, "note": 63, "velocity": 105, "channel": 0}, {"type": "note_on", "time": 870, "note": 58, "velocity": 98, "channel": 0}, {"type": "note_off", "time": 143, "note": 58, "velocity": 98, "channel": 0}, {"type": "note_on", "time": 28, "note": 61, "velocity": 111, "channel": 0}, {"type": "note_off", "time": 106, "note": 61, "velocity": 111, "channel": 0}, {"type": "note_on", "time": 23, "note": 62, "velocity": 112, "channel": 0}, {"type": "note_off", "time": 91, "note": 62, "velocity": 112, "channel": 0}, {"type": "note_on", "time": 28, "note": 65, "velocity": 112, "channel": 0}, {"type": "note_off", "time": 214, "note": 65, "velocity": 112, "channel": 0}, {"type": "note_on", "time": 56, "note": 62, "velocity": 107, "channel": 0}, {"type": "note_off", "time": 145, "note": 62, "velocity": 107, "channel": 0}, {"type": "note_on", "time": 8, "note": 63, "velocity": 119, "channel": 0}, {"type": "note_off", "time": 197, "note": 63, "velocity": 119, "channel": 0}, {"type": "note_on", "time": 60, "note": 59, "velocity": 107, "channel": 0}, {"type": "note_off", "time": 134, "note": 59, "velocity": 107, "channel": 0}, {"type": "note_on", "time": 566, "note": 56, "velocity": 108, "channel": 0}, {"type": "note_off", "time": 653, "note": 56, "velocity": 108, "channel": 0}, {"type": "note_on", "time": 23, "note": 55, "velocity": 113, "channel": 0}, {"type": "note_off", "time": 204, "note": 55, "velocity": 113, "channel": 0}, {"type": "note_on", "time": 26, "note": 54, "velocity": 108, "channel": 0}, {"type": "note_off", "time": 97, "note": 54, "velocity": 108, "channel": 0}, {"type": "note_on", "time": 19, "note": 53, "velocity": 117, "channel": 0}, {"type": "note_off", "time": 340, "note": 53, "velocity": 117, "channel": 0}, {"type": "note_on", "time": 19, "note": 51, "velocity": 109, "channel": 0}, {"type": "note_off", "time": 280, "note": 51, "velocity": 109, "channel": 0}, {"type": "note_on", "time": 39, "note": 51, "velocity": 110, "channel": 0}, {"type": "note_off", "time": 343, "note": 51, "velocity": 110, "channel": 0}, {"type": "note_on", "time": 33, "note": 53, "velocity": 105, "channel": 0}, {"type": "note_off", "time": 271, "note": 53, "velocity": 105, "channel": 0}, {"type": "note_on", "time": 74, "note": 53, "velocity": 102, "channel": 0}, {"type": "note_off", "time": 219, "note": 53, "velocity": 102, "channel": 0}, {"type": "note_on", "time": 217, "note": 55, "velocity": 111, "channel": 0}, {"type": "note_off", "time": 254, "note": 55, "velocity": 111, "channel": 0}, {"type": "note_on", "time": 43, "note": 55, "velocity": 112, "channel": 0}, {"type": "note_off", "time": 308, "note": 55, "velocity": 112, "channel": 0}, {"type": "note_on", "time": 115, "note": 58, "velocity": 111, "channel": 0}, {"type": "note_off", "time": 301, "note": 58, "velocity": 111, "channel": 0}, {"type": "note_on", "time": 84, "note": 58, "velocity": 115, "channel": 0}, {"type": "note_off", "time": 271, "note": 58, "velocity": 115, "channel": 0}, {"type": "note_on", "time": 17, "note": 60, "velocity": 116, "channel": 0}, {"type": "note_off", "time": 414, "note": 60, "velocity": 116, "channel": 0}, {"type": "note_on", "time": 43, "note": 60, "velocity": 119, "channel": 0}, {"type": "note_off", "time": 290, "note": 60, "velocity": 119, "channel": 0}, {"type": "note_on", "time": 49, "note": 63, "velocity": 119, "channel": 0}, {"type": "note_off", "time": 432, "note": 63, "velocity": 119, "channel": 0}, {"type": "note_on", "time": 75, "note": 63, "velocity": 123, "channel": 0}, {"type": "note_off", "time": 349, "note": 63, "velocity": 123, "channel": 0}, {"type": "note_on", "time": 60, "note": 65, "velocity": 115, "channel": 0}, {"type": "note_off", "time": 366, "note": 65, "velocity": 115, "channel": 0}, {"type": "note_on", "time": 97, "note": 65, "velocity": 114, "channel": 0}, {"type": "note_off", "time": 275, "note": 65, "velocity": 114, "channel": 0}, {"type": "note_on", "time": 75, "note": 67, "velocity": 117, "channel": 0}, {"type": "note_off", "time": 380, "note": 67, "velocity": 117, "channel": 0}, {"type": "note_on", "time": 41, "note": 67, "velocity": 107, "channel": 0}, {"type": "note_off", "time": 1207, "note": 67, "velocity": 107, "channel": 0}, {"type": "note_on", "time": 52, "note": 65, "velocity": 96, "channel": 0}, {"type": "note_off", "time": 306, "note": 65, "velocity": 96, "channel": 0}, {"type": "note_on", "time": 60, "note": 61, "velocity": 101, "channel": 0}, {"type": "note_off", "time": 275, "note": 61, "velocity": 101, "channel": 0}, {"type": "note_on", "time": 10, "note": 58, "velocity": 92, "channel": 0}, {"type": "note_off", "time": 115, "note": 58, "velocity": 92, "channel": 0}, {"type": "note_on", "time": 5378, "note": 67, "velocity": 124, "channel": 0}, {"type": "note_off", "time": 188, "note": 67, "velocity": 124, "channel": 0}, {"type": "note_on", "time": 52, "note": 70, "velocity": 119, "channel": 0}, {"type": "note_off", "time": 157, "note": 70, "velocity": 119, "channel": 0}, {"type": "note_on", "time": 71, "note": 63, "velocity": 120, "channel": 0}, {"type": "note_off", "time": 311, "note": 63, "velocity": 120, "channel": 0}, {"type": "note_on", "time": 2989, "note": 67, "velocity": 117, "channel": 0}, {"type": "note_off", "time": 191, "note": 67, "velocity": 117, "channel": 0}, {"type": "note_on", "time": 49, "note": 70, "velocity": 118, "channel": 0}, {"type": "note_off", "time": 163, "note": 70, "velocity": 118, "channel": 0}, {"type": "note_on", "time": 67, "note": 73, "velocity": 110, "channel": 0}, {"type": "note_off", "time": 500, "note": 73, "velocity": 110, "channel": 0}, {"type": "note_on", "time": 2316, "note": 67, "velocity": 117, "channel": 0}, {"type": "note_off", "time": 247, "note": 67, "velocity": 117, "channel": 0}, {"type": "note_on", "time": 33, "note": 70, "velocity": 115, "channel": 0}, {"type": "note_off", "time": 262, "note": 70, "velocity": 115, "channel": 0}, {"type": "note_on", "time": 49, "note": 63, "velocity": 111, "channel": 0}, {"type": "note_off", "time": 342, "note": 63, "velocity": 111, "channel": 0}, {"type": "note_on", "time": 1951, "note": 67, "velocity": 118, "channel": 0}, {"type": "note_off", "time": 206, "note": 67, "velocity": 118, "channel": 0}, {"type": "note_on", "time": 0, "note": 68, "velocity": 114, "channel": 0}, {"type": "note_off", "time": 219, "note": 68, "velocity": 114, "channel": 0}, {"type": "note_on", "time": 55, "note": 74, "velocity": 101, "channel": 0}, {"type": "note_off", "time": 694, "note": 74, "velocity": 101, "channel": 0}, {"type": "note_on", "time": 2242, "note": 71, "velocity": 105, "channel": 0}, {"type": "note_off", "time": 191, "note": 71, "velocity": 105, "channel": 0}, {"type": "note_on", "time": 37, "note": 74, "velocity": 116, "channel": 0}, {"type": "note_off", "time": 450, "note": 74, "velocity": 116, "channel": 0}, {"type": "note_on", "time": 135, "note": 73, "velocity": 107, "channel": 0}, {"type": "note_off", "time": 247, "note": 73, "velocity": 107, "channel": 0}, {"type": "note_on", "time": 1232, "note": 71, "velocity": 114, "channel": 0}, {"type": "note_off", "time": 213, "note": 71, "velocity": 114, "channel": 0}, {"type": "note_on", "time": 58, "note": 74, "velocity": 118, "channel": 0}, {"type": "note_off", "time": 271, "note": 74, "velocity": 118, "channel": 0}, {"type": "note_on", "time": 21, "note": 75, "velocity": 101, "channel": 0}, {"type": "note_off", "time": 768, "note": 75, "velocity": 101, "channel": 0}, {"type": "note_on", "time": 2093, "note": 67, "velocity": 113, "channel": 0}, {"type": "note_off", "time": 142, "note": 67, "velocity": 113, "channel": 0}, {"type": "note_on", "time": 52, "note": 68, "velocity": 112, "channel": 0}, {"type": "note_off", "time": 225, "note": 68, "velocity": 112, "channel": 0}, {"type": "note_on", "time": 49, "note": 71, "velocity": 110, "channel": 0}, {"type": "note_off", "time": 435, "note": 71, "velocity": 110, "channel": 0}, {"type": "note_on", "time": 40, "note": 79, "velocity": 110, "channel": 0}, {"type": "note_off", "time": 836, "note": 79, "velocity": 110, "channel": 0}, {"type": "note_on", "time": 1398, "note": 68, "velocity": 104, "channel": 0}, {"type": "note_off", "time": 77, "note": 68, "velocity": 104, "channel": 0}, {"type": "note_on", "time": 15, "note": 69, "velocity": 110, "channel": 0}, {"type": "note_off", "time": 148, "note": 69, "velocity": 110, "channel": 0}, {"type": "note_on", "time": 299, "note": 79, "velocity": 117, "channel": 0}, {"type": "note_off", "time": 132, "note": 79, "velocity": 117, "channel": 0}, {"type": "note_on", "time": 71, "note": 81, "velocity": 100, "channel": 0}, {"type": "note_off", "time": 2010, "note": 81, "velocity": 100, "channel": 0}, {"type": "note_on", "time": 43, "note": 76, "velocity": 94, "channel": 0}, {"type": "note_off", "time": 318, "note": 76, "velocity": 94, "channel": 0}, {"type": "note_on", "time": 64, "note": 83, "velocity": 103, "channel": 0}, {"type": "note_off", "time": 716, "note": 83, "velocity": 103, "channel": 0}, {"type": "note_on", "time": 12, "note": 80, "velocity": 104, "channel": 0}, {"type": "note_off", "time": 376, "note": 80, "velocity": 104, "channel": 0}, {"type": "note_on", "time": 24, "note": 79, "velocity": 106, "channel": 0}, {"type": "note_off", "time": 1037, "note": 79, "velocity": 106, "channel": 0}, {"type": "note_on", "time": 40, "note": 76, "velocity": 113, "channel": 0}, {"type": "note_off", "time": 52, "note": 76, "velocity": 113, "channel": 0}, {"type": "note_on", "time": 43, "note": 75, "velocity": 105, "channel": 0}, {"type": "note_off", "time": 648, "note": 75, "velocity": 105, "channel": 0}, {"type": "note_on", "time": 24, "note": 73, "velocity": 108, "channel": 0}, {"type": "note_off", "time": 40, "note": 73, "velocity": 108, "channel": 0}, {"type": "note_on", "time": 49, "note": 70, "velocity": 117, "channel": 0}, {"type": "note_off", "time": 521, "note": 70, "velocity": 117, "channel": 0}, {"type": "note_on", "time": 33, "note": 67, "velocity": 113, "channel": 0}, {"type": "note_off", "time": 453, "note": 67, "velocity": 113, "channel": 0}, {"type": "note_on", "time": 40, "note": 65, "velocity": 117, "channel": 0}, {"type": "note_off", "time": 92, "note": 65, "velocity": 117, "channel": 0}, {"type": "note_on", "time": 24, "note": 66, "velocity": 117, "channel": 0}, {"type": "note_off", "time": 398, "note": 66, "velocity": 117, "channel": 0}, {"type": "note_on", "time": 18, "note": 65, "velocity": 111, "channel": 0}, {"type": "note_off", "time": 225, "note": 65, "velocity": 111, "channel": 0}, {"type": "note_on", "time": 52, "note": 62, "velocity": 113, "channel": 0}, {"type": "note_off", "time": 197, "note": 62, "velocity": 113, "channel": 0}, {"type": "note_on", "time": 61, "note": 60, "velocity": 112, "channel": 0}, {"type": "note_off", "time": 185, "note": 60, "velocity": 112, "channel": 0}, {"type": "note_on", "time": 27, "note": 58, "velocity": 110, "channel": 0}, {"type": "note_off", "time": 145, "note": 58, "velocity": 110, "channel": 0}, {"type": "note_on", "time": 30, "note": 55, "velocity": 116, "channel": 0}, {"type": "note_off", "time": 188, "note": 55, "velocity": 116, "channel": 0}, {"type": "note_on", "time": 43, "note": 53, "velocity": 113, "channel": 0}, {"type": "note_off", "time": 148, "note": 53, "velocity": 113, "channel": 0}, {"type": "note_on", "time": 101, "note": 50, "velocity": 111, "channel": 0}, {"type": "note_off", "time": 179, "note": 50, "velocity": 111, "channel": 0}, {"type": "note_on", "time": 49, "note": 53, "velocity": 111, "channel": 0}, {"type": "note_off", "time": 182, "note": 53, "velocity": 111, "channel": 0}, {"type": "note_on", "time": 49, "note": 48, "velocity": 107, "channel": 0}, {"type": "note_off", "time": 154, "note": 48, "velocity": 107, "channel": 0}, {"type": "note_on", "time": 64, "note": 50, "velocity": 126, "channel": 0}, {"type": "note_off", "time": 129, "note": 50, "velocity": 126, "channel": 0}, {"type": "note_on", "time": 18, "note": 46, "velocity": 115, "channel": 0}, {"type": "note_off", "time": 345, "note": 46, "velocity": 115, "channel": 0}, {"type": "note_on", "time": 0, "note": 45, "velocity": 120, "channel": 0}, {"type": "note_off", "time": 247, "note": 45, "velocity": 120, "channel": 0}, {"type": "note_on", "time": 43, "note": 47, "velocity": 108, "channel": 0}, {"type": "note_off", "time": 673, "note": 47, "velocity": 108, "channel": 0}, {"type": "note_on", "time": 0, "note": 49, "velocity": 111, "channel": 0}, {"type": "note_off", "time": 281, "note": 49, "velocity": 111, "channel": 0}, {"type": "note_on", "time": 37, "note": 52, "velocity": 111, "channel": 0}, {"type": "note_off", "time": 138, "note": 52, "velocity": 111, "channel": 0}, {"type": "note_on", "time": 46, "note": 55, "velocity": 109, "channel": 0}, {"type": "note_off", "time": 117, "note": 55, "velocity": 109, "channel": 0}, {"type": "note_on", "time": 95, "note": 51, "velocity": 115, "channel": 0}, {"type": "note_off", "time": 358, "note": 51, "velocity": 115, "channel": 0}, {"type": "note_on", "time": 55, "note": 56, "velocity": 107, "channel": 0}, {"type": "note_off", "time": 379, "note": 56, "velocity": 107, "channel": 0}, {"type": "note_on", "time": 33, "note": 59, "velocity": 102, "channel": 0}, {"type": "note_off", "time": 101, "note": 59, "velocity": 102, "channel": 0}, {"type": "note_on", "time": 18, "note": 63, "velocity": 118, "channel": 0}, {"type": "note_off", "time": 256, "note": 63, "velocity": 118, "channel": 0}, {"type": "note_on", "time": 46, "note": 61, "velocity": 111, "channel": 0}, {"type": "note_off", "time": 169, "note": 61, "velocity": 111, "channel": 0}, {"type": "note_on", "time": 74, "note": 57, "velocity": 109, "channel": 0}, {"type": "note_off", "time": 176, "note": 57, "velocity": 109, "channel": 0}, {"type": "note_on", "time": 49, "note": 53, "velocity": 105, "channel": 0}, {"type": "note_off", "time": 126, "note": 53, "velocity": 105, "channel": 0}, {"type": "note_on", "time": 21, "note": 59, "velocity": 108, "channel": 0}, {"type": "note_off", "time": 194, "note": 59, "velocity": 108, "channel": 0}, {"type": "note_on", "time": 43, "note": 61, "velocity": 111, "channel": 0}, {"type": "note_off", "time": 179, "note": 61, "velocity": 111, "channel": 0}, {"type": "note_on", "time": 15, "note": 63, "velocity": 115, "channel": 0}, {"type": "note_off", "time": 179, "note": 63, "velocity": 115, "channel": 0}, {"type": "note_on", "time": 49, "note": 67, "velocity": 113, "channel": 0}, {"type": "note_off", "time": 194, "note": 67, "velocity": 113, "channel": 0}, {"type": "note_on", "time": 15, "note": 68, "velocity": 108, "channel": 0}, {"type": "note_off", "time": 296, "note": 68, "velocity": 108, "channel": 0}, {"type": "note_on", "time": 43, "note": 61, "velocity": 92, "channel": 0}, {"type": "note_off", "time": 83, "note": 61, "velocity": 92, "channel": 0}, {"type": "note_on", "time": 64, "note": 68, "velocity": 114, "channel": 0}, {"type": "note_off", "time": 231, "note": 68, "velocity": 114, "channel": 0}, {"type": "note_on", "time": 43, "note": 71, "velocity": 113, "channel": 0}, {"type": "note_off", "time": 169, "note": 71, "velocity": 113, "channel": 0}, {"type": "note_on", "time": 24, "note": 69, "velocity": 106, "channel": 0}, {"type": "note_off", "time": 210, "note": 69, "velocity": 106, "channel": 0}, {"type": "note_on", "time": 37, "note": 66, "velocity": 115, "channel": 0}, {"type": "note_off", "time": 216, "note": 66, "velocity": 115, "channel": 0}, {"type": "note_on", "time": 12, "note": 65, "velocity": 110, "channel": 0}, {"type": "note_off", "time": 148, "note": 65, "velocity": 110, "channel": 0}, {"type": "note_on", "time": 21, "note": 64, "velocity": 113, "channel": 0}, {"type": "note_off", "time": 166, "note": 64, "velocity": 113, "channel": 0}, {"type": "note_on", "time": 12, "note": 63, "velocity": 113, "channel": 0}, {"type": "note_off", "time": 197, "note": 63, "velocity": 113, "channel": 0}, {"type": "note_on", "time": 58, "note": 58, "velocity": 105, "channel": 0}, {"type": "note_off", "time": 172, "note": 58, "velocity": 105, "channel": 0}, {"type": "note_on", "time": 33, "note": 61, "velocity": 106, "channel": 0}, {"type": "note_off", "time": 206, "note": 61, "velocity": 106, "channel": 0}, {"type": "note_on", "time": 27, "note": 65, "velocity": 111, "channel": 0}, {"type": "note_off", "time": 135, "note": 65, "velocity": 111, "channel": 0}, {"type": "note_on", "time": 37, "note": 63, "velocity": 115, "channel": 0}, {"type": "note_off", "time": 265, "note": 63, "velocity": 115, "channel": 0}, {"type": "note_on", "time": 24, "note": 65, "velocity": 110, "channel": 0}, {"type": "note_off", "time": 200, "note": 65, "velocity": 110, "channel": 0}, {"type": "note_on", "time": 27, "note": 67, "velocity": 107, "channel": 0}, {"type": "note_off", "time": 210, "note": 67, "velocity": 107, "channel": 0}, {"type": "note_on", "time": 77, "note": 70, "velocity": 111, "channel": 0}, {"type": "note_off", "time": 521, "note": 70, "velocity": 111, "channel": 0}, {"type": "note_on", "time": 157, "note": 58, "velocity": 104, "channel": 0}, {"type": "note_off", "time": 176, "note": 58, "velocity": 104, "channel": 0}, {"type": "note_on", "time": 37, "note": 60, "velocity": 106, "channel": 0}, {"type": "note_off", "time": 203, "note": 60, "velocity": 106, "channel": 0}, {"type": "note_on", "time": 40, "note": 62, "velocity": 111, "channel": 0}, {"type": "note_off", "time": 216, "note": 62, "velocity": 111, "channel": 0}, {"type": "note_on", "time": 37, "note": 63, "velocity": 117, "channel": 0}, {"type": "note_off", "time": 197, "note": 63, "velocity": 117, "channel": 0}, {"type": "note_on", "time": 49, "note": 65, "velocity": 105, "channel": 0}, {"type": "note_off", "time": 426, "note": 65, "velocity": 105, "channel": 0}, {"type": "note_on", "time": 725, "note": 55, "velocity": 108, "channel": 0}, {"type": "note_off", "time": 231, "note": 55, "velocity": 108, "channel": 0}, {"type": "note_on", "time": 55, "note": 57, "velocity": 104, "channel": 0}, {"type": "note_off", "time": 123, "note": 57, "velocity": 104, "channel": 0}, {"type": "note_on", "time": 40, "note": 58, "velocity": 105, "channel": 0}, {"type": "note_off", "time": 145, "note": 58, "velocity": 105, "channel": 0}, {"type": "note_on", "time": 55, "note": 60, "velocity": 103, "channel": 0}, {"type": "note_off", "time": 410, "note": 60, "velocity": 103, "channel": 0}, {"type": "note_on", "time": 419, "note": 51, "velocity": 112, "channel": 0}, {"type": "note_off", "time": 182, "note": 51, "velocity": 112, "channel": 0}, {"type": "note_on", "time": 17, "note": 53, "velocity": 106, "channel": 0}, {"type": "note_off", "time": 147, "note": 53, "velocity": 106, "channel": 0}, {"type": "note_on", "time": 27, "note": 55, "velocity": 102, "channel": 0}, {"type": "note_off", "time": 982, "note": 55, "velocity": 102, "channel": 0}, {"type": "note_on", "time": 1145, "note": 50, "velocity": 100, "channel": 0}, {"type": "note_off", "time": 172, "note": 50, "velocity": 100, "channel": 0}, {"type": "note_on", "time": 21, "note": 51, "velocity": 114, "channel": 0}, {"type": "note_off", "time": 160, "note": 51, "velocity": 114, "channel": 0}, {"type": "note_on", "time": 37, "note": 55, "velocity": 113, "channel": 0}, {"type": "note_off", "time": 302, "note": 55, "velocity": 113, "channel": 0}, {"type": "note_on", "time": 21, "note": 49, "velocity": 122, "channel": 0}, {"type": "note_off", "time": 98, "note": 49, "velocity": 122, "channel": 0}, {"type": "note_on", "time": 74, "note": 53, "velocity": 112, "channel": 0}, {"type": "note_off", "time": 142, "note": 53, "velocity": 112, "channel": 0}, {"type": "note_on", "time": 30, "note": 52, "velocity": 113, "channel": 0}, {"type": "note_off", "time": 117, "note": 52, "velocity": 113, "channel": 0}, {"type": "note_on", "time": 6, "note": 51, "velocity": 110, "channel": 0}, {"type": "note_off", "time": 222, "note": 51, "velocity": 110, "channel": 0}, {"type": "note_on", "time": 43, "note": 55, "velocity": 111, "channel": 0}, {"type": "note_off", "time": 216, "note": 55, "velocity": 111, "channel": 0}, {"type": "note_on", "time": 49, "note": 49, "velocity": 116, "channel": 0}, {"type": "note_off", "time": 129, "note": 49, "velocity": 116, "channel": 0}, {"type": "note_on", "time": 37, "note": 53, "velocity": 115, "channel": 0}, {"type": "note_off", "time": 154, "note": 53, "velocity": 115, "channel": 0}, {"type": "note_on", "time": 0, "note": 56, "velocity": 113, "channel": 0}, {"type": "note_off", "time": 219, "note": 56, "velocity": 113, "channel": 0}, {"type": "note_on", "time": 40, "note": 59, "velocity": 105, "channel": 0}, {"type": "note_off", "time": 95, "note": 59, "velocity": 105, "channel": 0}, {"type": "note_on", "time": 43, "note": 63, "velocity": 118, "channel": 0}, {"type": "note_off", "time": 277, "note": 63, "velocity": 118, "channel": 0}, {"type": "note_on", "time": 21, "note": 65, "velocity": 109, "channel": 0}, {"type": "note_off", "time": 89, "note": 65, "velocity": 109, "channel": 0}, {"type": "note_on", "time": 15, "note": 68, "velocity": 113, "channel": 0}, {"type": "note_off", "time": 237, "note": 68, "velocity": 113, "channel": 0}, {"type": "note_on", "time": 43, "note": 71, "velocity": 117, "channel": 0}, {"type": "note_off", "time": 111, "note": 71, "velocity": 117, "channel": 0}, {"type": "note_on", "time": 27, "note": 69, "velocity": 112, "channel": 0}, {"type": "note_off", "time": 169, "note": 69, "velocity": 112, "channel": 0}, {"type": "note_on", "time": 49, "note": 66, "velocity": 110, "channel": 0}, {"type": "note_off", "time": 123, "note": 66, "velocity": 110, "channel": 0}, {"type": "note_on", "time": 55, "note": 61, "velocity": 112, "channel": 0}, {"type": "note_off", "time": 308, "note": 61, "velocity": 112, "channel": 0}, {"type": "note_on", "time": 58, "note": 59, "velocity": 106, "channel": 0}, {"type": "note_off", "time": 129, "note": 59, "velocity": 106, "channel": 0}, {"type": "note_on", "time": 12, "note": 64, "velocity": 119, "channel": 0}, {"type": "note_off", "time": 197, "note": 64, "velocity": 119, "channel": 0}, {"type": "note_on", "time": 24, "note": 62, "velocity": 105, "channel": 0}, {"type": "note_off", "time": 92, "note": 62, "velocity": 105, "channel": 0}, {"type": "note_on", "time": 21, "note": 63, "velocity": 121, "channel": 0}, {"type": "note_off", "time": 259, "note": 63, "velocity": 121, "channel": 0}, {"type": "note_on", "time": 24, "note": 61, "velocity": 104, "channel": 0}, {"type": "note_off", "time": 111, "note": 61, "velocity": 104, "channel": 0}, {"type": "note_on", "time": 33, "note": 62, "velocity": 115, "channel": 0}, {"type": "note_off", "time": 243, "note": 62, "velocity": 115, "channel": 0}, {"type": "note_on", "time": 67, "note": 59, "velocity": 106, "channel": 0}, {"type": "note_off", "time": 148, "note": 59, "velocity": 106, "channel": 0}, {"type": "note_on", "time": 101, "note": 54, "velocity": 108, "channel": 0}, {"type": "note_off", "time": 160, "note": 54, "velocity": 108, "channel": 0}, {"type": "note_on", "time": 37, "note": 50, "velocity": 106, "channel": 0}, {"type": "note_off", "time": 151, "note": 50, "velocity": 106, "channel": 0}, {"type": "note_on", "time": 0, "note": 55, "velocity": 108, "channel": 0}, {"type": "note_off", "time": 315, "note": 55, "velocity": 108, "channel": 0}, {"type": "note_on", "time": 1133, "note": 57, "velocity": 115, "channel": 0}, {"type": "note_off", "time": 216, "note": 57, "velocity": 115, "channel": 0}, {"type": "note_on", "time": 24, "note": 63, "velocity": 109, "channel": 0}, {"type": "note_off", "time": 1003, "note": 63, "velocity": 109, "channel": 0}, {"type": "note_on", "time": 515, "note": 65, "velocity": 121, "channel": 0}, {"type": "note_off", "time": 281, "note": 65, "velocity": 121, "channel": 0}, {"type": "note_on", "time": 46, "note": 66, "velocity": 117, "channel": 0}, {"type": "note_off", "time": 466, "note": 66, "velocity": 117, "channel": 0}, {"type": "note_on", "time": 43, "note": 68, "velocity": 118, "channel": 0}, {"type": "note_off", "time": 321, "note": 68, "velocity": 118, "channel": 0}, {"type": "note_on", "time": 117, "note": 65, "velocity": 115, "channel": 0}, {"type": "note_off", "time": 392, "note": 65, "velocity": 115, "channel": 0}, {"type": "note_on", "time": 61, "note": 66, "velocity": 119, "channel": 0}, {"type": "note_off", "time": 321, "note": 66, "velocity": 119, "channel": 0}, {"type": "note_on", "time": 77, "note": 63, "velocity": 118, "channel": 0}, {"type": "note_off", "time": 469, "note": 63, "velocity": 118, "channel": 0}, {"type": "note_on", "time": 61, "note": 59, "velocity": 109, "channel": 0}, {"type": "note_off", "time": 237, "note": 59, "velocity": 109, "channel": 0}, {"type": "note_on", "time": 83, "note": 58, "velocity": 107, "channel": 0}, {"type": "note_off", "time": 376, "note": 58, "velocity": 107, "channel": 0}, {"type": "note_on", "time": 126, "note": 56, "velocity": 111, "channel": 0}, {"type": "note_off", "time": 345, "note": 56, "velocity": 111, "channel": 0}, {"type": "note_on", "time": 30, "note": 55, "velocity": 103, "channel": 0}, {"type": "note_off", "time": 450, "note": 55, "velocity": 103, "channel": 0}, {"type": "note_on", "time": 101, "note": 58, "velocity": 106, "channel": 0}, {"type": "note_off", "time": 188, "note": 58, "velocity": 106, "channel": 0}, {"type": "note_on", "time": 105, "note": 62, "velocity": 115, "channel": 0}, {"type": "note_off", "time": 450, "note": 62, "velocity": 115, "channel": 0}, {"type": "note_on", "time": 33, "note": 65, "velocity": 117, "channel": 0}, {"type": "note_off", "time": 401, "note": 65, "velocity": 117, "channel": 0}, {"type": "note_on", "time": 49, "note": 63, "velocity": 120, "channel": 0}, {"type": "note_off", "time": 478, "note": 63, "velocity": 120, "channel": 0}, {"type": "note_on", "time": 37, "note": 65, "velocity": 111, "channel": 0}, {"type": "note_off", "time": 253, "note": 65, "velocity": 111, "channel": 0}, {"type": "note_on", "time": 58, "note": 67, "velocity": 115, "channel": 0}, {"type": "note_off", "time": 515, "note": 67, "velocity": 115, "channel": 0}, {"type": "note_on", "time": 67, "note": 70, "velocity": 114, "channel": 0}, {"type": "note_off", "time": 145, "note": 70, "velocity": 114, "channel": 0}, {"type": "note_on", "time": 9, "note": 71, "velocity": 117, "channel": 0}, {"type": "note_off", "time": 142, "note": 71, "velocity": 117, "channel": 0}, {"type": "note_on", "time": 27, "note": 73, "velocity": 111, "channel": 0}, {"type": "note_off", "time": 265, "note": 73, "velocity": 111, "channel": 0}, {"type": "note_on", "time": 18, "note": 74, "velocity": 99, "channel": 0}, {"type": "note_off", "time": 1151, "note": 74, "velocity": 99, "channel": 0}, {"type": "note_on", "time": 1216, "note": 72, "velocity": 117, "channel": 0}, {"type": "note_off", "time": 179, "note": 72, "velocity": 117, "channel": 0}, {"type": "note_on", "time": 3, "note": 71, "velocity": 123, "channel": 0}, {"type": "note_off", "time": 203, "note": 71, "velocity": 123, "channel": 0}, {"type": "note_on", "time": 52, "note": 70, "velocity": 118, "channel": 0}, {"type": "note_off", "time": 450, "note": 70, "velocity": 118, "channel": 0}, {"type": "note_on", "time": 52, "note": 70, "velocity": 111, "channel": 0}, {"type": "note_off", "time": 358, "note": 70, "velocity": 111, "channel": 0}, {"type": "note_on", "time": 61, "note": 75, "velocity": 104, "channel": 0}, {"type": "note_off", "time": 382, "note": 75, "velocity": 104, "channel": 0}, {"type": "note_on", "time": 71, "note": 75, "velocity": 115, "channel": 0}, {"type": "note_off", "time": 413, "note": 75, "velocity": 115, "channel": 0}, {"type": "note_on", "time": 37, "note": 74, "velocity": 101, "channel": 0}, {"type": "note_off", "time": 318, "note": 74, "velocity": 101, "channel": 0}, {"type": "note_on", "time": 77, "note": 74, "velocity": 108, "channel": 0}, {"type": "note_off", "time": 305, "note": 74, "velocity": 108, "channel": 0}, {"type": "note_on", "time": 71, "note": 73, "velocity": 112, "channel": 0}, {"type": "note_off", "time": 327, "note": 73, "velocity": 112, "channel": 0}, {"type": "note_on", "time": 92, "note": 73, "velocity": 113, "channel": 0}, {"type": "note_off", "time": 358, "note": 73, "velocity": 113, "channel": 0}, {"type": "note_on", "time": 49, "note": 72, "velocity": 109, "channel": 0}, {"type": "note_off", "time": 339, "note": 72, "velocity": 109, "channel": 0}, {"type": "note_on", "time": 86, "note": 72, "velocity": 116, "channel": 0}, {"type": "note_off", "time": 401, "note": 72, "velocity": 116, "channel": 0}, {"type": "note_on", "time": 67, "note": 71, "velocity": 115, "channel": 0}, {"type": "note_off", "time": 358, "note": 71, "velocity": 115, "channel": 0}, {"type": "note_on", "time": 49, "note": 71, "velocity": 119, "channel": 0}, {"type": "note_off", "time": 373, "note": 71, "velocity": 119, "channel": 0}, {"type": "note_on", "time": 64, "note": 70, "velocity": 107, "channel": 0}, {"type": "note_off", "time": 352, "note": 70, "velocity": 107, "channel": 0}, {"type": "note_on", "time": 64, "note": 70, "velocity": 115, "channel": 0}, {"type": "note_off", "time": 324, "note": 70, "velocity": 115, "channel": 0}, {"type": "note_on", "time": 67, "note": 68, "velocity": 116, "channel": 0}, {"type": "note_off", "time": 379, "note": 68, "velocity": 116, "channel": 0}, {"type": "note_on", "time": 55, "note": 68, "velocity": 113, "channel": 0}, {"type": "note_off", "time": 352, "note": 68, "velocity": 113, "channel": 0}, {"type": "note_on", "time": 24, "note": 66, "velocity": 110, "channel": 0}, {"type": "note_off", "time": 290, "note": 66, "velocity": 110, "channel": 0}, {"type": "note_on", "time": 225, "note": 66, "velocity": 113, "channel": 0}, {"type": "note_off", "time": 302, "note": 66, "velocity": 113, "channel": 0}, {"type": "note_on", "time": 92, "note": 63, "velocity": 120, "channel": 0}, {"type": "note_off", "time": 296, "note": 63, "velocity": 120, "channel": 0}, {"type": "note_on", "time": 55, "note": 61, "velocity": 113, "channel": 0}, {"type": "note_off", "time": 154, "note": 61, "velocity": 113, "channel": 0}, {"type": "note_on", "time": 55, "note": 59, "velocity": 105, "channel": 0}, {"type": "note_off", "time": 154, "note": 59, "velocity": 105, "channel": 0}, {"type": "note_on", "time": 120, "note": 64, "velocity": 113, "channel": 0}, {"type": "note_off", "time": 321, "note": 64, "velocity": 113, "channel": 0}, {"type": "note_on", "time": 194, "note": 64, "velocity": 114, "channel": 0}, {"type": "note_off", "time": 203, "note": 64, "velocity": 114, "channel": 0}, {"type": "note_on", "time": 67, "note": 61, "velocity": 108, "channel": 0}, {"type": "note_off", "time": 151, "note": 61, "velocity": 108, "channel": 0}, {"type": "note_on", "time": 89, "note": 59, "velocity": 103, "channel": 0}, {"type": "note_off", "time": 169, "note": 59, "velocity": 103, "channel": 0}, {"type": "note_on", "time": 911, "note": 59, "velocity": 108, "channel": 0}, {"type": "note_off", "time": 197, "note": 59, "velocity": 108, "channel": 0}, {"type": "note_on", "time": 37, "note": 56, "velocity": 118, "channel": 0}, {"type": "note_off", "time": 228, "note": 56, "velocity": 118, "channel": 0}, {"type": "note_on", "time": 540, "note": 54, "velocity": 101, "channel": 0}, {"type": "note_off", "time": 872, "note": 54, "velocity": 101, "channel": 0}, {"type": "note_on", "time": 95, "note": 52, "velocity": 107, "channel": 0}, {"type": "note_off", "time": 347, "note": 52, "velocity": 107, "channel": 0}, {"type": "note_on", "time": 52, "note": 51, "velocity": 95, "channel": 0}, {"type": "note_off", "time": 1294, "note": 51, "velocity": 95, "channel": 0}, {"type": "end_of_track", "time": 0}]]}