{"ticks_per_beat": 840, "tracks": [[{"type": "track_name", "name": "Melody", "time": 0}, {"type": "set_tempo", "tempo": 500000, "time": 0}, {"type": "key_signature", "key": "Eb", "time": 0}, {"type": "time_signature", "numerator": 4, "denominator": 4, "clocks_per_click": 24, "notated_32nd_notes_per_beat": 8, "time": 0}, {"type": "note_on", "time": 5168, "note": 51, "velocity": 110, "channel": 0}, {"type": "note_off", "time": 286, "note": 51, "velocity": 110, "channel": 0}, {"type": "note_on", "time": 189, "note": 52, "velocity": 107, "channel": 0}, {"type": "note_off", "time": 567, "note": 52, "velocity": 107, "channel": 0}, {"type": "note_on", "time": 0, "note": 60, "velocity": 114, "channel": 0}, {"type": "note_off", "time": 489, "note": 60, "velocity": 114, "channel": 0}, {"type": "note_on", "time": 264, "note": 52, "velocity": 108, "channel": 0}, {"type": "note_off", "time": 353, "note": 52, "velocity": 108, "channel": 0}, {"type": "note_on", "time": 78, "note": 53, "velocity": 105, "channel": 0}, {"type": "note_off", "time": 438, "note": 53, "velocity": 105, "channel": 0}, {"type": "note_on", "time": 0, "note": 55, "velocity": 102, "channel": 0}, {"type": "note_off", "time": 383, "note": 55, "velocity": 102, "channel": 0}, {"type": "note_on", "time": 0, "note": 56, "velocity": 103, "channel": 0}, {"type": "note_off", "time": 479, "note": 56, "velocity": 103, "channel": 0}, {"type": "note_on", "time": 51, "note": 53, "velocity": 108, "channel": 0}, {"type": "note_off", "time": 305, "note": 53, "velocity": 108, "channel": 0}, {"type": "note_on", "time": 0, "note": 54, "velocity": 101, "channel": 0}, {"type": "note_off", "time": 476, "note": 54, "velocity": 101, "channel": 0}, {"type": "note_on", "time": 0, "note": 57, "velocity": 102, "channel": 0}, {"type": "note_off", "time": 223, "note": 57, "velocity": 102, "channel": 0}, {"type": "note_on", "time": 125, "note": 62, "velocity": 123, "channel": 0}, {"type": "note_off", "time": 373, "note": 62, "velocity": 123, "channel": 0}, {"type": "note_on", "time": 0, "note": 63, "velocity": 115, "channel": 0}, {"type": "note_off", "time": 106, "note": 63, "velocity": 115, "channel": 0}, {"type": "note_on", "time": 0, "note": 62, "velocity": 117, "channel": 0}, {"type": "note_off", "time": 137, "note": 62, "velocity": 117, "channel": 0}, {"type": "note_on", "time": 4, "note": 60, "velocity": 108, "channel": 0}, {"type": "note_off", "time": 400, "note": 60, "velocity": 108, "channel": 0}, {"type": "note_on", "time": 0, "note": 58, "velocity": 94, "channel": 0}, {"type": "note_off", "time": 548, "note": 58, "velocity": 94, "channel": 0}, {"type": "note_on", "time": 0, "note": 63, "velocity": 121, "channel": 0}, {"type": "note_off", "time": 463, "note": 63, "velocity": 121, "channel": 0}, {"type": "note_on", "time": 219, "note": 63, "velocity": 125, "channel": 0}, {"type": "note_off", "time": 286, "note": 63, "velocity": 125, "channel": 0}, {"type": "note_on", "time": 159, "note": 62, "velocity": 118, "channel": 0}, {"type": "note_off", "time": 496, "note": 62, "velocity": 118, "channel": 0}, {"type": "note_on", "time": 106, "note": 65, "velocity": 110, "channel": 0}, {"type": "note_off", "time": 501, "note": 65, "velocity": 110, "channel": 0}, {"type": "note_on", "time": 228, "note": 65, "velocity": 111, "channel": 0}, {"type": "note_off", "time": 423, "note": 65, "velocity": 111, "channel": 0}, {"type": "note_on", "time": 73, "note": 63, "velocity": 118, "channel": 0}, {"type": "note_off", "time": 460, "note": 63, "velocity": 118, "channel": 0}, {"type": "note_on", "time": 22, "note": 60, "velocity": 103, "channel": 0}, {"type": "note_off", "time": 395, "note": 60, "velocity": 103, "channel": 0}, {"type": "note_on", "time": 81, "note": 63, "velocity": 112, "channel": 0}, {"type": "note_off", "time": 431, "note": 63, "velocity": 112, "channel": 0}, {"type": "note_on", "time": 0, "note": 67, "velocity": 107, "channel": 0}, {"type": "note_off", "time": 373, "note": 67, "velocity": 107, "channel": 0}, {"type": "note_on", "time": 27, "note": 65, "velocity": 106, "channel": 0}, {"type": "note_off", "time": 405, "note": 65, "velocity": 106, "channel": 0}, {"type": "note_on", "time": 42, "note": 67, "velocity": 106, "channel": 0}, {"type": "note_off", "time": 407, "note": 67, "velocity": 106, "channel": 0}, {"type": "note_on", "time": 16, "note": 68, "velocity": 97, "channel": 0}, {"type": "note_off", "time": 438, "note": 68, "velocity": 97, "channel": 0}, {"type": "note_on", "time": 35, "note": 70, "velocity": 100, "channel": 0}, {"type": "note_off", "time": 415, "note": 70, "velocity": 100, "channel": 0}, {"type": "note_on", "time": 0, "note": 67, "velocity": 105, "channel": 0}, {"type": "note_off", "time": 474, "note": 67, "velocity": 105, "channel": 0}, {"type": "note_on", "time": 1, "note": 58, "velocity": 92, "channel": 0}, {"type": "note_off", "time": 311, "note": 58, "velocity": 92, "channel": 0}, {"type": "note_on", "time": 13, "note": 60, "velocity": 101, "channel": 0}, {"type": "note_off", "time": 385, "note": 60, "velocity": 101, "channel": 0}, {"type": "note_on", "time": 46, "note": 65, "velocity": 108, "channel": 0}, {"type": "note_off", "time": 592, "note": 65, "velocity": 108, "channel": 0}, {"type": "note_on", "time": 1886, "note": 68, "velocity": 116, "channel": 0}, {"type": "note_off", "time": 356, "note": 68, "velocity": 116, "channel": 0}, {"type": "note_on", "time": 0, "note": 64, "velocity": 119, "channel": 0}, {"type": "note_off", "time": 233, "note": 64, "velocity": 119, "channel": 0}, {"type": "note_on", "time": 64, "note": 61, "velocity": 98, "channel": 0}, {"type": "note_off", "time": 268, "note": 61, "velocity": 98, "channel": 0}, {"type": "note_on", "time": 0, "note": 56, "velocity": 93, "channel": 0}, {"type": "note_off", "time": 349, "note": 56, "velocity": 93, "channel": 0}, {"type": "note_on", "time": 99, "note": 66, "velocity": 110, "channel": 0}, {"type": "note_off", "time": 274, "note": 66, "velocity": 110, "channel": 0}, {"type": "note_on", "time": 0, "note": 68, "velocity": 90, "channel": 0}, {"type": "note_off", "time": 271, "note": 68, "velocity": 90, "channel": 0}, {"type": "note_on", "time": 54, "note": 66, "velocity": 112, "channel": 0}, {"type": "note_off", "time": 738, "note": 66, "velocity": 112, "channel": 0}, {"type": "note_on", "time": 847, "note": 67, "velocity": 113, "channel": 0}, {"type": "note_off", "time": 299, "note": 67, "velocity": 113, "channel": 0}, {"type": "note_on", "time": 0, "note": 68, "velocity": 103, "channel": 0}, {"type": "note_off", "time": 89, "note": 68, "velocity": 103, "channel": 0}, {"type": "note_on", "time": 281, "note": 67, "velocity": 111, "channel": 0}, {"type": "note_off", "time": 747, "note": 67, "velocity": 111, "channel": 0}, {"type": "note_on", "time": 161, "note": 65, "velocity": 109, "channel": 0}, {"type": "note_off", "time": 226, "note": 65, "velocity": 109, "channel": 0}, {"type": "note_on", "time": 0, "note": 67, "velocity": 97, "channel": 0}, {"type": "note_off", "time": 167, "note": 67, "velocity": 97, "channel": 0}, {"type": "note_on", "time": 144, "note": 65, "velocity": 109, "channel": 0}, {"type": "note_off", "time": 1099, "note": 65, "velocity": 109, "channel": 0}, {"type": "note_on", "time": 196, "note": 63, "velocity": 116, "channel": 0}, {"type": "note_off", "time": 397, "note": 63, "velocity": 116, "channel": 0}, {"type": "note_on", "time": 0, "note": 65, "velocity": 109, "channel": 0}, {"type": "note_off", "time": 346, "note": 65, "velocity": 109, "channel": 0}, {"type": "note_on", "time": 17, "note": 63, "velocity": 118, "channel": 0}, {"type": "note_off", "time": 294, "note": 63, "velocity": 118, "channel": 0}, {"type": "note_on", "time": 0, "note": 67, "velocity": 101, "channel": 0}, {"type": "note_off", "time": 1016, "note": 67, "velocity": 101, "channel": 0}, {"type": "note_on", "time": 1458, "note": 62, "velocity": 116, "channel": 0}, {"type": "note_off", "time": 179, "note": 62, "velocity": 116, "channel": 0}, {"type": "note_on", "time": 142, "note": 60, "velocity": 105, "channel": 0}, {"type": "note_off", "time": 288, "note": 60, "velocity": 105, "channel": 0}, {"type": "note_on", "time": 24, "note": 65, "velocity": 109, "channel": 0}, {"type": "note_off", "time": 282, "note": 65, "velocity": 109, "channel": 0}, {"type": "note_on", "time": 0, "note": 62, "velocity": 110, "channel": 0}, {"type": "note_off", "time": 256, "note": 62, "velocity": 110, "channel": 0}, {"type": "note_on", "time": 56, "note": 64, "velocity": 107, "channel": 0}, {"type": "note_off", "time": 382, "note": 64, "velocity": 107, "channel": 0}, {"type": "note_on", "time": 12, "note": 60, "velocity": 107, "channel": 0}, {"type": "note_off", "time": 664, "note": 60, "velocity": 107, "channel": 0}, {"type": "note_on", "time": 1023, "note": 67, "velocity": 108, "channel": 0}, {"type": "note_off", "time": 227, "note": 67, "velocity": 108, "channel": 0}, {"type": "note_on", "time": 84, "note": 65, "velocity": 106, "channel": 0}, {"type": "note_off", "time": 299, "note": 65, "velocity": 106, "channel": 0}, {"type": "note_on", "time": 101, "note": 70, "velocity": 108, "channel": 0}, {"type": "note_off", "time": 288, "note": 70, "velocity": 108, "channel": 0}, {"type": "note_on", "time": 0, "note": 67, "velocity": 105, "channel": 0}, {"type": "note_off", "time": 1352, "note": 67, "velocity": 105, "channel": 0}, {"type": "note_on", "time": 139, "note": 58, "velocity": 98, "channel": 0}, {"type": "note_off", "time": 292, "note": 58, "velocity": 98, "channel": 0}, {"type": "note_on", "time": 70, "note": 65, "velocity": 110, "channel": 0}, {"type": "note_off", "time": 1107, "note": 65, "velocity": 110, "channel": 0}, {"type": "note_on", "time": 0, "note": 62, "velocity": 105, "channel": 0}, {"type": "note_off", "time": 123, "note": 62, "velocity": 105, "channel": 0}, {"type": "note_on", "time": 3, "note": 63, "velocity": 100, "channel": 0}, {"type": "note_off", "time": 126, "note": 63, "velocity": 100, "channel": 0}, {"type": "note_on", "time": 0, "note": 65, "velocity": 102, "channel": 0}, {"type": "note_off", "time": 187, "note": 65, "velocity": 102, "channel": 0}, {"type": "note_on", "time": 28, "note": 62, "velocity": 117, "channel": 0}, {"type": "note_off", "time": 401, "note": 62, "velocity": 117, "channel": 0}, {"type": "note_on", "time": 194, "note": 58, "velocity": 83, "channel": 0}, {"type": "note_off", "time": 123, "note": 58, "velocity": 83, "channel": 0}, {"type": "note_on", "time": 0, "note": 60, "velocity": 104, "channel": 0}, {"type": "note_off", "time": 102, "note": 60, "velocity": 104, "channel": 0}, {"type": "note_on", "time": 0, "note": 62, "velocity": 106, "channel": 0}, {"type": "note_off", "time": 149, "note": 62, "velocity": 106, "channel": 0}, {"type": "note_on", "time": 1, "note": 58, "velocity": 100, "channel": 0}, {"type": "note_off", "time": 638, "note": 58, "velocity": 100, "channel": 0}, {"type": "note_on", "time": 143, "note": 55, "velocity": 111, "channel": 0}, {"type": "note_off", "time": 119, "note": 55, "velocity": 111, "channel": 0}, {"type": "note_on", "time": 0, "note": 56, "velocity": 113, "channel": 0}, {"type": "note_off", "time": 185, "note": 56, "velocity": 113, "channel": 0}, {"type": "note_on", "time": 0, "note": 58, "velocity": 103, "channel": 0}, {"type": "note_off", "time": 144, "note": 58, "velocity": 103, "channel": 0}, {"type": "note_on", "time": 0, "note": 55, "velocity": 93, "channel": 0}, {"type": "note_off", "time": 1326, "note": 55, "velocity": 93, "channel": 0}, {"type": "note_on", "time": 800, "note": 53, "velocity": 109, "channel": 0}, {"type": "note_off", "time": 335, "note": 53, "velocity": 109, "channel": 0}, {"type": "note_on", "time": 15, "note": 50, "velocity": 109, "channel": 0}, {"type": "note_off", "time": 144, "note": 50, "velocity": 109, "channel": 0}, {"type": "note_on", "time": 17, "note": 51, "velocity": 112, "channel": 0}, {"type": "note_off", "time": 126, "note": 51, "velocity": 112, "channel": 0}, {"type": "note_on", "time": 10, "note": 55, "velocity": 104, "channel": 0}, {"type": "note_off", "time": 126, "note": 55, "velocity": 104, "channel": 0}, {"type": "note_on", "time": 0, "note": 58, "velocity": 99, "channel": 0}, {"type": "note_off", "time": 146, "note": 58, "velocity": 99, "channel": 0}, {"type": "note_on", "time": 55, "note": 62, "velocity": 114, "channel": 0}, {"type": "note_off", "time": 249, "note": 62, "velocity": 114, "channel": 0}, {"type": "note_on", "time": 79, "note": 59, "velocity": 94, "channel": 0}, {"type": "note_off", "time": 178, "note": 59, "velocity": 94, "channel": 0}, {"type": "note_on", "time": 0, "note": 60, "velocity": 95, "channel": 0}, {"type": "note_off", "time": 181, "note": 60, "velocity": 95, "channel": 0}, {"type": "note_on", "time": 3, "note": 63, "velocity": 95, "channel": 0}, {"type": "note_off", "time": 132, "note": 63, "velocity": 95, "channel": 0}, {"type": "note_on", "time": 76, "note": 67, "velocity": 111, "channel": 0}, {"type": "note_off", "time": 255, "note": 67, "velocity": 111, "channel": 0}, {"type": "note_on", "time": 69, "note": 62, "velocity": 101, "channel": 0}, {"type": "note_off", "time": 154, "note": 62, "velocity": 101, "channel": 0}, {"type": "note_on", "time": 0, "note": 63, "velocity": 99, "channel": 0}, {"type": "note_off", "time": 133, "note": 63, "velocity": 99, "channel": 0}, {"type": "note_on", "time": 13, "note": 67, "velocity": 96, "channel": 0}, {"type": "note_off", "time": 96, "note": 67, "velocity": 96, "channel": 0}, {"type": "note_on", "time": 0, "note": 70, "velocity": 101, "channel": 0}, {"type": "note_off", "time": 110, "note": 70, "velocity": 101, "channel": 0}, {"type": "note_on", "time": 40, "note": 74, "velocity": 111, "channel": 0}, {"type": "note_off", "time": 325, "note": 74, "velocity": 111, "channel": 0}, {"type": "note_on", "time": 0, "note": 75, "velocity": 110, "channel": 0}, {"type": "note_off", "time": 534, "note": 75, "velocity": 110, "channel": 0}, {"type": "note_on", "time": 24, "note": 70, "velocity": 99, "channel": 0}, {"type": "note_off", "time": 404, "note": 70, "velocity": 99, "channel": 0}, {"type": "note_on", "time": 1069, "note": 69, "velocity": 105, "channel": 0}, {"type": "note_off", "time": 683, "note": 69, "velocity": 105, "channel": 0}, {"type": "note_on", "time": 125, "note": 61, "velocity": 99, "channel": 0}, {"type": "note_off", "time": 617, "note": 61, "velocity": 99, "channel": 0}, {"type": "note_on", "time": 1189, "note": 60, "velocity": 109, "channel": 0}, {"type": "note_off", "time": 243, "note": 60, "velocity": 109, "channel": 0}, {"type": "note_on", "time": 78, "note": 59, "velocity": 86, "channel": 0}, {"type": "note_off", "time": 144, "note": 59, "velocity": 86, "channel": 0}, {"type": "note_on", "time": 13, "note": 60, "velocity": 94, "channel": 0}, {"type": "note_off", "time": 267, "note": 60, "velocity": 94, "channel": 0}, {"type": "note_on", "time": 0, "note": 63, "velocity": 107, "channel": 0}, {"type": "note_off", "time": 226, "note": 63, "velocity": 107, "channel": 0}, {"type": "note_on", "time": 0, "note": 62, "velocity": 106, "channel": 0}, {"type": "note_off", "time": 168, "note": 62, "velocity": 106, "channel": 0}, {"type": "note_on", "time": 20, "note": 63, "velocity": 107, "channel": 0}, {"type": "note_off", "time": 159, "note": 63, "velocity": 107, "channel": 0}, {"type": "note_on", "time": 80, "note": 64, "velocity": 108, "channel": 0}, {"type": "note_off", "time": 204, "note": 64, "velocity": 108, "channel": 0}, {"type": "note_on", "time": 22, "note": 65, "velocity": 101, "channel": 0}, {"type": "note_off", "time": 246, "note": 65, "velocity": 101, "channel": 0}, {"type": "note_on", "time": 0, "note": 62, "velocity": 113, "channel": 0}, {"type": "note_off", "time": 541, "note": 62, "velocity": 113, "channel": 0}, {"type": "note_on", "time": 47, "note": 58, "velocity": 97, "channel": 0}, {"type": "note_off", "time": 314, "note": 58, "velocity": 97, "channel": 0}, {"type": "note_on", "time": 1375, "note": 56, "velocity": 93, "channel": 0}, {"type": "note_off", "time": 257, "note": 56, "velocity": 93, "channel": 0}, {"type": "note_on", "time": 6, "note": 58, "velocity": 91, "channel": 0}, {"type": "note_off", "time": 202, "note": 58, "velocity": 91, "channel": 0}, {"type": "note_on", "time": 0, "note": 60, "velocity": 102, "channel": 0}, {"type": "note_off", "time": 195, "note": 60, "velocity": 102, "channel": 0}, {"type": "note_on", "time": 0, "note": 63, "velocity": 118, "channel": 0}, {"type": "note_off", "time": 188, "note": 63, "velocity": 118, "channel": 0}, {"type": "note_on", "time": 37, "note": 66, "velocity": 108, "channel": 0}, {"type": "note_off", "time": 174, "note": 66, "velocity": 108, "channel": 0}, {"type": "note_on", "time": 75, "note": 67, "velocity": 107, "channel": 0}, {"type": "note_off", "time": 166, "note": 67, "velocity": 107, "channel": 0}, {"type": "note_on", "time": 22, "note": 66, "velocity": 107, "channel": 0}, {"type": "note_off", "time": 135, "note": 66, "velocity": 107, "channel": 0}, {"type": "note_on", "time": 77, "note": 67, "velocity": 110, "channel": 0}, {"type": "note_off", "time": 215, "note": 67, "velocity": 110, "channel": 0}, {"type": "note_on", "time": 0, "note": 63, "velocity": 114, "channel": 0}, {"type": "note_off", "time": 229, "note": 63, "velocity": 114, "channel": 0}, {"type": "note_on", "time": 22, "note": 58, "velocity": 91, "channel": 0}, {"type": "note_off", "time": 260, "note": 58, "velocity": 91, "channel": 0}, {"type": "note_on", "time": 11, "note": 54, "velocity": 113, "channel": 0}, {"type": "note_off", "time": 226, "note": 54, "velocity": 113, "channel": 0}, {"type": "note_on", "time": 0, "note": 55, "velocity": 112, "channel": 0}, {"type": "note_off", "time": 126, "note": 55, "velocity": 112, "channel": 0}, {"type": "note_on", "time": 30, "note": 58, "velocity": 99, "channel": 0}, {"type": "note_off", "time": 215, "note": 58, "velocity": 99, "channel": 0}, {"type": "note_on", "time": 4, "note": 63, "velocity": 118, "channel": 0}, {"type": "note_off", "time": 167, "note": 63, "velocity": 118, "channel": 0}, {"type": "note_on", "time": 31, "note": 62, "velocity": 109, "channel": 0}, {"type": "note_off", "time": 242, "note": 62, "velocity": 109, "channel": 0}, {"type": "note_on", "time": 24, "note": 60, "velocity": 102, "channel": 0}, {"type": "note_off", "time": 154, "note": 60, "velocity": 102, "channel": 0}, {"type": "note_on", "time": 0, "note": 65, "velocity": 106, "channel": 0}, {"type": "note_off", "time": 231, "note": 65, "velocity": 106, "channel": 0}, {"type": "note_on", "time": 84, "note": 58, "velocity": 93, "channel": 0}, {"type": "note_off", "time": 514, "note": 58, "velocity": 93, "channel": 0}, {"type": "note_on", "time": 0, "note": 61, "velocity": 110, "channel": 0}, {"type": "note_off", "time": 183, "note": 61, "velocity": 110, "channel": 0}, {"type": "note_on", "time": 59, "note": 63, "velocity": 110, "channel": 0}, {"type": "note_off", "time": 206, "note": 63, "velocity": 110, "channel": 0}, {"type": "note_on", "time": 2, "note": 65, "velocity": 102, "channel": 0}, {"type": "note_off", "time": 233, "note": 65, "velocity": 102, "channel": 0}, {"type": "note_on", "time": 0, "note": 68, "velocity": 103, "channel": 0}, {"type": "note_off", "time": 181, "note": 68, "velocity": 103, "channel": 0}, {"type": "note_on", "time": 0, "note": 73, "velocity": 113, "channel": 0}, {"type": "note_off", "time": 264, "note": 73, "velocity": 113, "channel": 0}, {"type": "note_on", "time": 0, "note": 68, "velocity": 114, "channel": 0}, {"type": "note_off", "time": 438, "note": 68, "velocity": 114, "channel": 0}, {"type": "note_on", "time": 116, "note": 59, "velocity": 86, "channel": 0}, {"type": "note_off", "time": 246, "note": 59, "velocity": 86, "channel": 0}, {"type": "note_on", "time": 0, "note": 61, "velocity": 96, "channel": 0}, {"type": "note_off", "time": 130, "note": 61, "velocity": 96, "channel": 0}, {"type": "note_on", "time": 0, "note": 62, "velocity": 99, "channel": 0}, {"type": "note_off", "time": 274, "note": 62, "velocity": 99, "channel": 0}, {"type": "note_on", "time": 17, "note": 64, "velocity": 112, "channel": 0}, {"type": "note_off", "time": 133, "note": 64, "velocity": 112, "channel": 0}, {"type": "note_on", "time": 0, "note": 66, "velocity": 114, "channel": 0}, {"type": "note_off", "time": 239, "note": 66, "velocity": 114, "channel": 0}, {"type": "note_on", "time": 11, "note": 64, "velocity": 112, "channel": 0}, {"type": "note_off", "time": 182, "note": 64, "velocity": 112, "channel": 0}, {"type": "note_on", "time": 119, "note": 62, "velocity": 113, "channel": 0}, {"type": "note_off", "time": 154, "note": 62, "velocity": 113, "channel": 0}, {"type": "note_on", "time": 0, "note": 61, "velocity": 115, "channel": 0}, {"type": "note_off", "time": 117, "note": 61, "velocity": 115, "channel": 0}, {"type": "note_on", "time": 88, "note": 59, "velocity": 99, "channel": 0}, {"type": "note_off", "time": 363, "note": 59, "velocity": 99, "channel": 0}, {"type": "note_on", "time": 7, "note": 54, "velocity": 103, "channel": 0}, {"type": "note_off", "time": 144, "note": 54, "velocity": 103, "channel": 0}, {"type": "note_on", "time": 10, "note": 57, "velocity": 109, "channel": 0}, {"type": "note_off", "time": 188, "note": 57, "velocity": 109, "channel": 0}, {"type": "note_on", "time": 3, "note": 54, "velocity": 107, "channel": 0}, {"type": "note_off", "time": 133, "note": 54, "velocity": 107, "channel": 0}, {"type": "note_on", "time": 78, "note": 56, "velocity": 99, "channel": 0}, {"type": "note_off", "time": 226, "note": 56, "velocity": 99, "channel": 0}, {"type": "note_on", "time": 57, "note": 52, "velocity": 107, "channel": 0}, {"type": "note_off", "time": 465, "note": 52, "velocity": 107, "channel": 0}, {"type": "note_on", "time": 2706, "note": 68, "velocity": 116, "channel": 0}, {"type": "note_off", "time": 216, "note": 68, "velocity": 116, "channel": 0}, {"type": "note_on", "time": 50, "note": 67, "velocity": 114, "channel": 0}, {"type": "note_off", "time": 322, "note": 67, "velocity": 114, "channel": 0}, {"type": "note_on", "time": 0, "note": 70, "velocity": 112, "channel": 0}, {"type": "note_off", "time": 263, "note": 70, "velocity": 112, "channel": 0}, {"type": "note_on", "time": 0, "note": 68, "velocity": 114, "channel": 0}, {"type": "note_off", "time": 282, "note": 68, "velocity": 114, "channel": 0}, {"type": "note_on", "time": 8, "note": 72, "velocity": 111, "channel": 0}, {"type": "note_off", "time": 241, "note": 72, "velocity": 111, "channel": 0}, {"type": "note_on", "time": 59, "note": 70, "velocity": 110, "channel": 0}, {"type": "note_off", "time": 296, "note": 70, "velocity": 110, "channel": 0}, {"type": "note_on", "time": 18, "note": 73, "velocity": 111, "channel": 0}, {"type": "note_off", "time": 280, "note": 73, "velocity": 111, "channel": 0}, {"type": "note_on", "time": 20, "note": 72, "velocity": 111, "channel": 0}, {"type": "note_off", "time": 253, "note": 72, "velocity": 111, "channel": 0}, {"type": "note_on", "time": 24, "note": 75, "velocity": 116, "channel": 0}, {"type": "note_off", "time": 552, "note": 75, "velocity": 116, "channel": 0}, {"type": "note_on", "time": 6, "note": 72, "velocity": 108, "channel": 0}, {"type": "note_off", "time": 680, "note": 72, "velocity": 108, "channel": 0}, {"type": "note_on", "time": 108, "note": 69, "velocity": 107, "channel": 0}, {"type": "note_off", "time": 1012, "note": 69, "velocity": 107, "channel": 0}, {"type": "note_on", "time": 321, "note": 67, "velocity": 107, "channel": 0}, {"type": "note_off", "time": 255, "note": 67, "velocity": 107, "channel": 0}, {"type": "note_on", "time": 15, "note": 63, "velocity": 113, "channel": 0}, {"type": "note_off", "time": 298, "note": 63, "velocity": 113, "channel": 0}, {"type": "note_on", "time": 0, "note": 60, "velocity": 103, "channel": 0}, {"type": "note_off", "time": 318, "note": 60, "velocity": 103, "channel": 0}, {"type": "note_on", "time": 0, "note": 57, "velocity": 96, "channel": 0}, {"type": "note_off", "time": 392, "note": 57, "velocity": 96, "channel": 0}, {"type": "note_on", "time": 98, "note": 62, "velocity": 111, "channel": 0}, {"type": "note_off", "time": 359, "note": 62, "velocity": 111, "channel": 0}, {"type": "note_on", "time": 10, "note": 60, "velocity": 104, "channel": 0}, {"type": "note_off", "time": 370, "note": 60, "velocity": 104, "channel": 0}, {"type": "note_on", "time": 17, "note": 56, "velocity": 108, "channel": 0}, {"type": "note_off", "time": 812, "note": 56, "velocity": 108, "channel": 0}, {"type": "note_on", "time": 1124, "note": 68, "velocity": 117, "channel": 0}, {"type": "note_off", "time": 240, "note": 68, "velocity": 117, "channel": 0}, {"type": "note_on", "time": 0, "note": 64, "velocity": 107, "channel": 0}, {"type": "note_off", "time": 262, "note": 64, "velocity": 107, "channel": 0}, {"type": "note_on", "time": 28, "note": 60, "velocity": 105, "channel": 0}, {"type": "note_off", "time": 229, "note": 60, "velocity": 105, "channel": 0}, {"type": "note_on", "time": 0, "note": 56, "velocity": 103, "channel": 0}, {"type": "note_off", "time": 195, "note": 56, "velocity": 103, "channel": 0}, {"type": "note_on", "time": 0, "note": 62, "velocity": 109, "channel": 0}, {"type": "note_off", "time": 263, "note": 62, "velocity": 109, "channel": 0}, {"type": "note_on", "time": 76, "note": 56, "velocity": 101, "channel": 0}, {"type": "note_off", "time": 1049, "note": 56, "velocity": 101, "channel": 0}, {"type": "note_on", "time": 939, "note": 67, "velocity": 112, "channel": 0}, {"type": "note_off", "time": 245, "note": 67, "velocity": 112, "channel": 0}, {"type": "note_on", "time": 18, "note": 66, "velocity": 112, "channel": 0}, {"type": "note_off", "time": 164, "note": 66, "velocity": 112, "channel": 0}, {"type": "note_on", "time": 3, "note": 65, "velocity": 107, "channel": 0}, {"type": "note_off", "time": 216, "note": 65, "velocity": 107, "channel": 0}, {"type": "note_on", "time": 0, "note": 64, "velocity": 109, "channel": 0}, {"type": "note_off", "time": 223, "note": 64, "velocity": 109, "channel": 0}, {"type": "note_on", "time": 23, "note": 62, "velocity": 109, "channel": 0}, {"type": "note_off", "time": 245, "note": 62, "velocity": 109, "channel": 0}, {"type": "note_on", "time": 1, "note": 60, "velocity": 99, "channel": 0}, {"type": "note_off", "time": 140, "note": 60, "velocity": 99, "channel": 0}, {"type": "note_on", "time": 44, "note": 59, "velocity": 97, "channel": 0}, {"type": "note_off", "time": 257, "note": 59, "velocity": 97, "channel": 0}, {"type": "note_on", "time": 0, "note": 62, "velocity": 112, "channel": 0}, {"type": "note_off", "time": 192, "note": 62, "velocity": 112, "channel": 0}, {"type": "note_on", "time": 0, "note": 65, "velocity": 107, "channel": 0}, {"type": "note_off", "time": 200, "note": 65, "velocity": 107, "channel": 0}, {"type": "note_on", "time": 55, "note": 69, "velocity": 110, "channel": 0}, {"type": "note_off", "time": 197, "note": 69, "velocity": 110, "channel": 0}, {"type": "note_on", "time": 0, "note": 67, "velocity": 110, "channel": 0}, {"type": "note_off", "time": 144, "note": 67, "velocity": 110, "channel": 0}, {"type": "note_on", "time": 44, "note": 65, "velocity": 104, "channel": 0}, {"type": "note_off", "time": 192, "note": 65, "velocity": 104, "channel": 0}, {"type": "note_on", "time": 0, "note": 64, "velocity": 108, "channel": 0}, {"type": "note_off", "time": 222, "note": 64, "velocity": 108, "channel": 0}, {"type": "note_on", "time": 0, "note": 67, "velocity": 103, "channel": 0}, {"type": "note_off", "time": 167, "note": 67, "velocity": 103, "channel": 0}, {"type": "note_on", "time": 82, "note": 70, "velocity": 101, "channel": 0}, {"type": "note_off", "time": 205, "note": 70, "velocity": 101, "channel": 0}, {"type": "note_on", "time": 0, "note": 74, "velocity": 103, "channel": 0}, {"type": "note_off", "time": 191, "note": 74, "velocity": 103, "channel": 0}, {"type": "note_on", "time": 74, "note": 66, "velocity": 112, "channel": 0}, {"type": "note_off", "time": 205, "note": 66, "velocity": 112, "channel": 0}, {"type": "note_on", "time": 0, "note": 67, "velocity": 106, "channel": 0}, {"type": "note_off", "time": 218, "note": 67, "velocity": 106, "channel": 0}, {"type": "note_on", "time": 0, "note": 70, "velocity": 104, "channel": 0}, {"type": "note_off", "time": 263, "note": 70, "velocity": 104, "channel": 0}, {"type": "note_on", "time": 28, "note": 67, "velocity": 110, "channel": 0}, {"type": "note_off", "time": 167, "note": 67, "velocity": 110, "channel": 0}, {"type": "note_on", "time": 0, "note": 69, "velocity": 109, "channel": 0}, {"type": "note_off", "time": 290, "note": 69, "velocity": 109, "channel": 0}, {"type": "note_on", "time": 42, "note": 64, "velocity": 106, "channel": 0}, {"type": "note_off", "time": 405, "note": 64, "velocity": 106, "channel": 0}, {"type": "note_on", "time": 1624, "note": 66, "velocity": 110, "channel": 0}, {"type": "note_off", "time": 215, "note": 66, "velocity": 110, "channel": 0}, {"type": "note_on", "time": 10, "note": 67, "velocity": 106, "channel": 0}, {"type": "note_off", "time": 236, "note": 67, "velocity": 106, "channel": 0}, {"type": "note_on", "time": 0, "note": 63, "velocity": 119, "channel": 0}, {"type": "note_off", "time": 219, "note": 63, "velocity": 119, "channel": 0}, {"type": "note_on", "time": 0, "note": 62, "velocity": 115, "channel": 0}, {"type": "note_off", "time": 210, "note": 62, "velocity": 115, "channel": 0}, {"type": "note_on", "time": 57, "note": 60, "velocity": 93, "channel": 0}, {"type": "note_off", "time": 394, "note": 60, "velocity": 93, "channel": 0}, {"type": "note_on", "time": 0, "note": 66, "velocity": 105, "channel": 0}, {"type": "note_off", "time": 240, "note": 66, "velocity": 105, "channel": 0}, {"type": "note_on", "time": 0, "note": 67, "velocity": 101, "channel": 0}, {"type": "note_off", "time": 212, "note": 67, "velocity": 101, "channel": 0}, {"type": "note_on", "time": 0, "note": 63, "velocity": 113, "channel": 0}, {"type": "note_off", "time": 206, "note": 63, "velocity": 113, "channel": 0}, {"type": "note_on", "time": 36, "note": 60, "velocity": 102, "channel": 0}, {"type": "note_off", "time": 198, "note": 60, "velocity": 102, "channel": 0}, {"type": "note_on", "time": 0, "note": 56, "velocity": 96, "channel": 0}, {"type": "note_off", "time": 237, "note": 56, "velocity": 96, "channel": 0}, {"type": "note_on", "time": 36, "note": 55, "velocity": 100, "channel": 0}, {"type": "note_off", "time": 185, "note": 55, "velocity": 100, "channel": 0}, {"type": "note_on", "time": 10, "note": 53, "velocity": 96, "channel": 0}, {"type": "note_off", "time": 243, "note": 53, "velocity": 96, "channel": 0}, {"type": "note_on", "time": 13, "note": 51, "velocity": 107, "channel": 0}, {"type": "note_off", "time": 310, "note": 51, "velocity": 107, "channel": 0}, {"type": "note_on", "time": 1, "note": 50, "velocity": 98, "channel": 0}, {"type": "note_off", "time": 812, "note": 50, "velocity": 98, "channel": 0}, {"type": "note_on", "time": 10, "note": 58, "velocity": 87, "channel": 0}, {"type": "note_off", "time": 576, "note": 58, "velocity": 87, "channel": 0}, {"type": "note_on", "time": 2169, "note": 63, "velocity": 116, "channel": 0}, {"type": "note_off", "time": 357, "note": 63, "velocity": 116, "channel": 0}, {"type": "note_on", "time": 104, "note": 58, "velocity": 95, "channel": 0}, {"type": "note_off", "time": 493, "note": 58, "velocity": 95, "channel": 0}, {"type": "note_on", "time": 802, "note": 65, "velocity": 109, "channel": 0}, {"type": "note_off", "time": 305, "note": 65, "velocity": 109, "channel": 0}, {"type": "note_on", "time": 246, "note": 58, "velocity": 101, "channel": 0}, {"type": "note_off", "time": 240, "note": 58, "velocity": 101, "channel": 0}, {"type": "note_on", "time": 10, "note": 66, "velocity": 106, "channel": 0}, {"type": "note_off", "time": 436, "note": 66, "velocity": 106, "channel": 0}, {"type": "note_on", "time": 167, "note": 58, "velocity": 93, "channel": 0}, {"type": "note_off", "time": 185, "note": 58, "velocity": 93, "channel": 0}, {"type": "note_on", "time": 0, "note": 67, "velocity": 112, "channel": 0}, {"type": "note_off", "time": 327, "note": 67, "velocity": 112, "channel": 0}, {"type": "note_on", "time": 196, "note": 58, "velocity": 98, "channel": 0}, {"type": "note_off", "time": 135, "note": 58, "velocity": 98, "channel": 0}, {"type": "note_on", "time": 3012, "note": 68, "velocity": 120, "channel": 0}, {"type": "note_off", "time": 241, "note": 68, "velocity": 120, "channel": 0}, {"type": "note_on", "time": 43, "note": 67, "velocity": 115, "channel": 0}, {"type": "note_off", "time": 277, "note": 67, "velocity": 115, "channel": 0}, {"type": "note_on", "time": 0, "note": 68, "velocity": 116, "channel": 0}, {"type": "note_off", "time": 279, "note": 68, "velocity": 116, "channel": 0}, {"type": "note_on", "time": 26, "note": 67, "velocity": 112, "channel": 0}, {"type": "note_off", "time": 321, "note": 67, "velocity": 112, "channel": 0}, {"type": "note_on", "time": 0, "note": 63, "velocity": 119, "channel": 0}, {"type": "note_off", "time": 1518, "note": 63, "velocity": 119, "channel": 0}, {"type": "note_on", "time": 6, "note": 58, "velocity": 97, "channel": 0}, {"type": "note_off", "time": 265, "note": 58, "velocity": 97, "channel": 0}, {"type": "note_on", "time": 193, "note": 64, "velocity": 119, "channel": 0}, {"type": "note_off", "time": 401, "note": 64, "velocity": 119, "channel": 0}, {"type": "note_on", "time": 0, "note": 61, "velocity": 109, "channel": 0}, {"type": "note_off", "time": 407, "note": 61, "velocity": 109, "channel": 0}, {"type": "note_on", "time": 44, "note": 57, "velocity": 97, "channel": 0}, {"type": "note_off", "time": 397, "note": 57, "velocity": 97, "channel": 0}, {"type": "note_on", "time": 12, "note": 55, "velocity": 105, "channel": 0}, {"type": "note_off", "time": 406, "note": 55, "velocity": 105, "channel": 0}, {"type": "note_on", "time": 0, "note": 63, "velocity": 116, "channel": 0}, {"type": "note_off", "time": 642, "note": 63, "velocity": 116, "channel": 0}, {"type": "note_on", "time": 189, "note": 63, "velocity": 119, "channel": 0}, {"type": "note_off", "time": 596, "note": 63, "velocity": 119, "channel": 0}, {"type": "note_on", "time": 285, "note": 60, "velocity": 102, "channel": 0}, {"type": "note_off", "time": 570, "note": 60, "velocity": 102, "channel": 0}, {"type": "note_on", "time": 28, "note": 63, "velocity": 116, "channel": 0}, {"type": "note_off", "time": 461, "note": 63, "velocity": 116, "channel": 0}, {"type": "note_on", "time": 173, "note": 63, "velocity": 119, "channel": 0}, {"type": "note_off", "time": 358, "note": 63, "velocity": 119, "channel": 0}, {"type": "note_on", "time": 50, "note": 67, "velocity": 106, "channel": 0}, {"type": "note_off", "time": 656, "note": 67, "velocity": 106, "channel": 0}, {"type": "note_on", "time": 128, "note": 67, "velocity": 105, "channel": 0}, {"type": "note_off", "time": 860, "note": 67, "velocity": 105, "channel": 0}, {"type": "note_on", "time": 64, "note": 63, "velocity": 118, "channel": 0}, {"type": "note_off", "time": 556, "note": 63, "velocity": 118, "channel": 0}, {"type": "note_on", "time": 0, "note": 58, "velocity": 85, "channel": 0}, {"type": "note_off", "time": 399, "note": 58, "velocity": 85, "channel": 0}, {"type": "note_on", "time": 31, "note": 62, "velocity": 109, "channel": 0}, {"type": "note_off", "time": 449, "note": 62, "velocity": 109, "channel": 0}, {"type": "note_on", "time": 3, "note": 65, "velocity": 107, "channel": 0}, {"type": "note_off", "time": 358, "note": 65, "velocity": 107, "channel": 0}, {"type": "note_on", "time": 56, "note": 63, "velocity": 116, "channel": 0}, {"type": "note_off", "time": 414, "note": 63, "velocity": 116, "channel": 0}, {"type": "note_on", "time": 51, "note": 58, "velocity": 93, "channel": 0}, {"type": "note_off", "time": 394, "note": 58, "velocity": 93, "channel": 0}, {"type": "note_on", "time": 1563, "note": 61, "velocity": 112, "channel": 0}, {"type": "note_off", "time": 257, "note": 61, "velocity": 112, "channel": 0}, {"type": "note_on", "time": 20, "note": 64, "velocity": 113, "channel": 0}, {"type": "note_off", "time": 294, "note": 64, "velocity": 113, "channel": 0}, {"type": "note_on", "time": 3, "note": 67, "velocity": 110, "channel": 0}, {"type": "note_off", "time": 250, "note": 67, "velocity": 110, "channel": 0}, {"type": "note_on", "time": 13, "note": 65, "velocity": 106, "channel": 0}, {"type": "note_off", "time": 253, "note": 65, "velocity": 106, "channel": 0}, {"type": "note_on", "time": 24, "note": 68, "velocity": 107, "channel": 0}, {"type": "note_off", "time": 257, "note": 68, "velocity": 107, "channel": 0}, {"type": "note_on", "time": 0, "note": 72, "velocity": 98, "channel": 0}, {"type": "note_off", "time": 235, "note": 72, "velocity": 98, "channel": 0}, {"type": "note_on", "time": 124, "note": 71, "velocity": 101, "channel": 0}, {"type": "note_off", "time": 245, "note": 71, "velocity": 101, "channel": 0}, {"type": "note_on", "time": 18, "note": 68, "velocity": 99, "channel": 0}, {"type": "note_off", "time": 252, "note": 68, "velocity": 99, "channel": 0}, {"type": "note_on", "time": 25, "note": 65, "velocity": 107, "channel": 0}, {"type": "note_off", "time": 275, "note": 65, "velocity": 107, "channel": 0}, {"type": "note_on", "time": 15, "note": 62, "velocity": 107, "channel": 0}, {"type": "note_off", "time": 679, "note": 62, "velocity": 107, "channel": 0}, {"type": "note_on", "time": 215, "note": 70, "velocity": 108, "channel": 0}, {"type": "note_off", "time": 329, "note": 70, "velocity": 108, "channel": 0}, {"type": "note_on", "time": 212, "note": 67, "velocity": 106, "channel": 0}, {"type": "note_off", "time": 305, "note": 67, "velocity": 106, "channel": 0}, {"type": "note_on", "time": 88, "note": 62, "velocity": 102, "channel": 0}, {"type": "note_off", "time": 729, "note": 62, "velocity": 102, "channel": 0}, {"type": "note_on", "time": 374, "note": 65, "velocity": 106, "channel": 0}, {"type": "note_off", "time": 294, "note": 65, "velocity": 106, "channel": 0}, {"type": "note_on", "time": 0, "note": 62, "velocity": 109, "channel": 0}, {"type": "note_off", "time": 223, "note": 62, "velocity": 109, "channel": 0}, {"type": "note_on", "time": 71, "note": 63, "velocity": 114, "channel": 0}, {"type": "note_off", "time": 292, "note": 63, "velocity": 114, "channel": 0}, {"type": "note_on", "time": 173, "note": 58, "velocity": 99, "channel": 0}, {"type": "note_off", "time": 993, "note": 58, "velocity": 99, "channel": 0}, {"type": "note_on", "time": 964, "note": 56, "velocity": 98, "channel": 0}, {"type": "note_off", "time": 257, "note": 56, "velocity": 98, "channel": 0}, {"type": "note_on", "time": 20, "note": 58, "velocity": 92, "channel": 0}, {"type": "note_off", "time": 208, "note": 58, "velocity": 92, "channel": 0}, {"type": "note_on", "time": 4, "note": 60, "velocity": 102, "channel": 0}, {"type": "note_off", "time": 185, "note": 60, "velocity": 102, "channel": 0}, {"type": "note_on", "time": 16, "note": 63, "velocity": 110, "channel": 0}, {"type": "note_off", "time": 233, "note": 63, "velocity": 110, "channel": 0}, {"type": "note_on", "time": 10, "note": 66, "velocity": 107, "channel": 0}, {"type": "note_off", "time": 213, "note": 66, "velocity": 107, "channel": 0}, {"type": "note_on", "time": 26, "note": 67, "velocity": 104, "channel": 0}, {"type": "note_off", "time": 229, "note": 67, "velocity": 104, "channel": 0}, {"type": "note_on", "time": 0, "note": 66, "velocity": 106, "channel": 0}, {"type": "note_off", "time": 215, "note": 66, "velocity": 106, "channel": 0}, {"type": "note_on", "time": 0, "note": 67, "velocity": 110, "channel": 0}, {"type": "note_off", "time": 178, "note": 67, "velocity": 110, "channel": 0}, {"type": "note_on", "time": 0, "note": 63, "velocity": 118, "channel": 0}, {"type": "note_off", "time": 210, "note": 63, "velocity": 118, "channel": 0}, {"type": "note_on", "time": 60, "note": 58, "velocity": 93, "channel": 0}, {"type": "note_off", "time": 216, "note": 58, "velocity": 93, "channel": 0}, {"type": "note_on", "time": 53, "note": 54, "velocity": 115, "channel": 0}, {"type": "note_off", "time": 150, "note": 54, "velocity": 115, "channel": 0}, {"type": "note_on", "time": 30, "note": 55, "velocity": 107, "channel": 0}, {"type": "note_off", "time": 171, "note": 55, "velocity": 107, "channel": 0}, {"type": "note_on", "time": 0, "note": 58, "velocity": 102, "channel": 0}, {"type": "note_off", "time": 185, "note": 58, "velocity": 102, "channel": 0}, {"type": "note_on", "time": 50, "note": 63, "velocity": 115, "channel": 0}, {"type": "note_off", "time": 196, "note": 63, "velocity": 115, "channel": 0}, {"type": "note_on", "time": 0, "note": 62, "velocity": 105, "channel": 0}, {"type": "note_off", "time": 209, "note": 62, "velocity": 105, "channel": 0}, {"type": "note_on", "time": 0, "note": 60, "velocity": 100, "channel": 0}, {"type": "note_off", "time": 179, "note": 60, "velocity": 100, "channel": 0}, {"type": "note_on", "time": 22, "note": 65, "velocity": 100, "channel": 0}, {"type": "note_off", "time": 586, "note": 65, "velocity": 100, "channel": 0}, {"type": "note_on", "time": 0, "note": 62, "velocity": 111, "channel": 0}, {"type": "note_off", "time": 161, "note": 62, "velocity": 111, "channel": 0}, {"type": "note_on", "time": 10, "note": 63, "velocity": 118, "channel": 0}, {"type": "note_off", "time": 264, "note": 63, "velocity": 118, "channel": 0}, {"type": "note_on", "time": 0, "note": 60, "velocity": 102, "channel": 0}, {"type": "note_off", "time": 152, "note": 60, "velocity": 102, "channel": 0}, {"type": "note_on", "time": 80, "note": 56, "velocity": 95, "channel": 0}, {"type": "note_off", "time": 209, "note": 56, "velocity": 95, "channel": 0}, {"type": "note_on", "time": 0, "note": 53, "velocity": 115, "channel": 0}, {"type": "note_off", "time": 209, "note": 53, "velocity": 115, "channel": 0}, {"type": "note_on", "time": 0, "note": 55, "velocity": 108, "channel": 0}, {"type": "note_off", "time": 219, "note": 55, "velocity": 108, "channel": 0}, {"type": "note_on", "time": 34, "note": 53, "velocity": 109, "channel": 0}, {"type": "note_off", "time": 150, "note": 53, "velocity": 109, "channel": 0}, {"type": "note_on", "time": 17, "note": 52, "velocity": 103, "channel": 0}, {"type": "note_off", "time": 219, "note": 52, "velocity": 103, "channel": 0}, {"type": "note_on", "time": 0, "note": 53, "velocity": 105, "channel": 0}, {"type": "note_off", "time": 150, "note": 53, "velocity": 105, "channel": 0}, {"type": "note_on", "time": 0, "note": 57, "velocity": 96, "channel": 0}, {"type": "note_off", "time": 1089, "note": 57, "velocity": 96, "channel": 0}, {"type": "note_on", "time": 127, "note": 60, "velocity": 109, "channel": 0}, {"type": "note_off", "time": 184, "note": 60, "velocity": 109, "channel": 0}, {"type": "note_on", "time": 37, "note": 61, "velocity": 114, "channel": 0}, {"type": "note_off", "time": 243, "note": 61, "velocity": 114, "channel": 0}, {"type": "note_on", "time": 0, "note": 57, "velocity": 112, "channel": 0}, {"type": "note_off", "time": 171, "note": 57, "velocity": 112, "channel": 0}, {"type": "note_on", "time": 10, "note": 52, "velocity": 107, "channel": 0}, {"type": "note_off", "time": 312, "note": 52, "velocity": 107, "channel": 0}, {"type": "note_on", "time": 3, "note": 51, "velocity": 104, "channel": 0}, {"type": "note_off", "time": 233, "note": 51, "velocity": 104, "channel": 0}, {"type": "note_on", "time": 109, "note": 56, "velocity": 100, "channel": 0}, {"type": "note_off", "time": 310, "note": 56, "velocity": 100, "channel": 0}, {"type": "note_on", "time": 35, "note": 54, "velocity": 106, "channel": 0}, {"type": "note_off", "time": 320, "note": 54, "velocity": 106, "channel": 0}, {"type": "note_on", "time": 1657, "note": 53, "velocity": 111, "channel": 0}, {"type": "note_off", "time": 226, "note": 53, "velocity": 111, "channel": 0}, {"type": "note_on", "time": 10, "note": 52, "velocity": 103, "channel": 0}, {"type": "note_off", "time": 244, "note": 52, "velocity": 103, "channel": 0}, {"type": "note_on", "time": 15, "note": 53, "velocity": 98, "channel": 0}, {"type": "note_off", "time": 228, "note": 53, "velocity": 98, "channel": 0}, {"type": "note_on", "time": 18, "note": 55, "velocity": 97, "channel": 0}, {"type": "note_off", "time": 102, "note": 55, "velocity": 97, "channel": 0}, {"type": "note_on", "time": 0, "note": 56, "velocity": 102, "channel": 0}, {"type": "note_off", "time": 302, "note": 56, "velocity": 102, "channel": 0}, {"type": "note_on", "time": 77, "note": 55, "velocity": 95, "channel": 0}, {"type": "note_off", "time": 198, "note": 55, "velocity": 95, "channel": 0}, {"type": "note_on", "time": 0, "note": 56, "velocity": 104, "channel": 0}, {"type": "note_off", "time": 120, "note": 56, "velocity": 104, "channel": 0}, {"type": "note_on", "time": 6, "note": 58, "velocity": 104, "channel": 0}, {"type": "note_off", "time": 219, "note": 58, "velocity": 104, "channel": 0}, {"type": "note_on", "time": 0, "note": 60, "velocity": 111, "channel": 0}, {"type": "note_off", "time": 174, "note": 60, "velocity": 111, "channel": 0}, {"type": "note_on", "time": 48, "note": 59, "velocity": 95, "channel": 0}, {"type": "note_off", "time": 191, "note": 59, "velocity": 95, "channel": 0}, {"type": "note_on", "time": 48, "note": 60, "velocity": 101, "channel": 0}, {"type": "note_off", "time": 162, "note": 60, "velocity": 101, "channel": 0}, {"type": "note_on", "time": 25, "note": 62, "velocity": 112, "channel": 0}, {"type": "note_off", "time": 154, "note": 62, "velocity": 112, "channel": 0}, {"type": "note_on", "time": 0, "note": 63, "velocity": 119, "channel": 0}, {"type": "note_off", "time": 182, "note": 63, "velocity": 119, "channel": 0}, {"type": "note_on", "time": 47, "note": 62, "velocity": 108, "channel": 0}, {"type": "note_off", "time": 159, "note": 62, "velocity": 108, "channel": 0}, {"type": "note_on", "time": 32, "note": 63, "velocity": 97, "channel": 0}, {"type": "note_off", "time": 183, "note": 63, "velocity": 97, "channel": 0}, {"type": "note_on", "time": 1, "note": 65, "velocity": 102, "channel": 0}, {"type": "note_off", "time": 192, "note": 65, "velocity": 102, "channel": 0}, {"type": "note_on", "time": 34, "note": 67, "velocity": 109, "channel": 0}, {"type": "note_off", "time": 180, "note": 67, "velocity": 109, "channel": 0}, {"type": "note_on", "time": 59, "note": 66, "velocity": 105, "channel": 0}, {"type": "note_off", "time": 243, "note": 66, "velocity": 105, "channel": 0}, {"type": "note_on", "time": 6, "note": 67, "velocity": 102, "channel": 0}, {"type": "note_off", "time": 126, "note": 67, "velocity": 102, "channel": 0}, {"type": "note_on", "time": 17, "note": 68, "velocity": 99, "channel": 0}, {"type": "note_off", "time": 171, "note": 68, "velocity": 99, "channel": 0}, {"type": "note_on", "time": 23, "note": 70, "velocity": 109, "channel": 0}, {"type": "note_off", "time": 219, "note": 70, "velocity": 109, "channel": 0}, {"type": "note_on", "time": 0, "note": 67, "velocity": 109, "channel": 0}, {"type": "note_off", "time": 175, "note": 67, "velocity": 109, "channel": 0}, {"type": "note_on", "time": 61, "note": 68, "velocity": 112, "channel": 0}, {"type": "note_off", "time": 253, "note": 68, "velocity": 112, "channel": 0}, {"type": "note_on", "time": 0, "note": 65, "velocity": 108, "channel": 0}, {"type": "note_off", "time": 202, "note": 65, "velocity": 108, "channel": 0}, {"type": "note_on", "time": 0, "note": 67, "velocity": 110, "channel": 0}, {"type": "note_off", "time": 654, "note": 67, "velocity": 110, "channel": 0}, {"type": "note_on", "time": 24, "note": 70, "velocity": 109, "channel": 0}, {"type": "note_off", "time": 446, "note": 70, "velocity": 109, "channel": 0}, {"type": "note_on", "time": 417, "note": 67, "velocity": 111, "channel": 0}, {"type": "note_off", "time": 212, "note": 67, "velocity": 111, "channel": 0}, {"type": "note_on", "time": 20, "note": 68, "velocity": 111, "channel": 0}, {"type": "note_off", "time": 144, "note": 68, "velocity": 111, "channel": 0}, {"type": "note_on", "time": 13, "note": 67, "velocity": 105, "channel": 0}, {"type": "note_off", "time": 184, "note": 67, "velocity": 105, "channel": 0}, {"type": "note_on", "time": 3, "note": 65, "velocity": 108, "channel": 0}, {"type": "note_off", "time": 152, "note": 65, "velocity": 108, "channel": 0}, {"type": "note_on", "time": 80, "note": 64, "velocity": 109, "channel": 0}, {"type": "note_off", "time": 322, "note": 64, "velocity": 109, "channel": 0}, {"type": "note_on", "time": 0, "note": 72, "velocity": 107, "channel": 0}, {"type": "note_off", "time": 334, "note": 72, "velocity": 107, "channel": 0}, {"type": "note_on", "time": 1204, "note": 75, "velocity": 110, "channel": 0}, {"type": "note_off", "time": 164, "note": 75, "velocity": 110, "channel": 0}, {"type": "note_on", "time": 0, "note": 72, "velocity": 92, "channel": 0}, {"type": "note_off", "time": 120, "note": 72, "velocity": 92, "channel": 0}, {"type": "note_on", "time": 20, "note": 68, "velocity": 102, "channel": 0}, {"type": "note_off", "time": 133, "note": 68, "velocity": 102, "channel": 0}, {"type": "note_on", "time": 3, "note": 65, "velocity": 105, "channel": 0}, {"type": "note_off", "time": 233, "note": 65, "velocity": 105, "channel": 0}, {"type": "note_on", "time": 92, "note": 63, "velocity": 122, "channel": 0}, {"type": "note_off", "time": 164, "note": 63, "velocity": 122, "channel": 0}, {"type": "note_on", "time": 0, "note": 62, "velocity": 115, "channel": 0}, {"type": "note_off", "time": 161, "note": 62, "velocity": 115, "channel": 0}, {"type": "note_on", "time": 98, "note": 60, "velocity": 99, "channel": 0}, {"type": "note_off", "time": 164, "note": 60, "velocity": 99, "channel": 0}, {"type": "note_on", "time": 34, "note": 59, "velocity": 109, "channel": 0}, {"type": "note_off", "time": 171, "note": 59, "velocity": 109, "channel": 0}, {"type": "note_on", "time": 103, "note": 60, "velocity": 111, "channel": 0}, {"type": "note_off", "time": 130, "note": 60, "velocity": 111, "channel": 0}, {"type": "note_on", "time": 0, "note": 62, "velocity": 116, "channel": 0}, {"type": "note_off", "time": 116, "note": 62, "velocity": 116, "channel": 0}, {"type": "note_on", "time": 0, "note": 67, "velocity": 105, "channel": 0}, {"type": "note_off", "time": 494, "note": 67, "velocity": 105, "channel": 0}, {"type": "note_on", "time": 23, "note": 62, "velocity": 106, "channel": 0}, {"type": "note_off", "time": 277, "note": 62, "velocity": 106, "channel": 0}, {"type": "note_on", "time": 0, "note": 65, "velocity": 109, "channel": 0}, {"type": "note_off", "time": 280, "note": 65, "velocity": 109, "channel": 0}, {"type": "note_on", "time": 127, "note": 63, "velocity": 121, "channel": 0}, {"type": "note_off", "time": 338, "note": 63, "velocity": 121, "channel": 0}, {"type": "note_on", "time": 816, "note": 62, "velocity": 111, "channel": 0}, {"type": "note_off", "time": 503, "note": 62, "velocity": 111, "channel": 0}, {"type": "note_on", "time": 0, "note": 60, "velocity": 104, "channel": 0}, {"type": "note_off", "time": 452, "note": 60, "velocity": 104, "channel": 0}, {"type": "note_on", "time": 1557, "note": 67, "velocity": 118, "channel": 0}, {"type": "note_off", "time": 311, "note": 67, "velocity": 118, "channel": 0}, {"type": "note_on", "time": 37, "note": 63, "velocity": 113, "channel": 0}, {"type": "note_off", "time": 126, "note": 63, "velocity": 113, "channel": 0}, {"type": "note_on", "time": 10, "note": 60, "velocity": 102, "channel": 0}, {"type": "note_off", "time": 161, "note": 60, "velocity": 102, "channel": 0}, {"type": "note_on", "time": 0, "note": 56, "velocity": 94, "channel": 0}, {"type": "note_off", "time": 301, "note": 56, "velocity": 94, "channel": 0}, {"type": "note_on", "time": 158, "note": 65, "velocity": 115, "channel": 0}, {"type": "note_off", "time": 305, "note": 65, "velocity": 115, "channel": 0}, {"type": "note_on", "time": 13, "note": 62, "velocity": 106, "channel": 0}, {"type": "note_off", "time": 96, "note": 62, "velocity": 106, "channel": 0}, {"type": "note_on", "time": 20, "note": 58, "velocity": 106, "channel": 0}, {"type": "note_off", "time": 130, "note": 58, "velocity": 106, "channel": 0}, {"type": "note_on", "time": 0, "note": 55, "velocity": 101, "channel": 0}, {"type": "note_off", "time": 185, "note": 55, "velocity": 101, "channel": 0}, {"type": "note_on", "time": 1504, "note": 63, "velocity": 127, "channel": 0}, {"type": "note_off", "time": 281, "note": 63, "velocity": 127, "channel": 0}, {"type": "note_on", "time": 13, "note": 60, "velocity": 96, "channel": 0}, {"type": "note_off", "time": 212, "note": 60, "velocity": 96, "channel": 0}, {"type": "note_on", "time": 0, "note": 56, "velocity": 91, "channel": 0}, {"type": "note_off", "time": 198, "note": 56, "velocity": 91, "channel": 0}, {"type": "note_on", "time": 0, "note": 53, "velocity": 97, "channel": 0}, {"type": "note_off", "time": 236, "note": 53, "velocity": 97, "channel": 0}, {"type": "note_on", "time": 27, "note": 62, "velocity": 116, "channel": 0}, {"type": "note_off", "time": 370, "note": 62, "velocity": 116, "channel": 0}, {"type": "note_on", "time": 6, "note": 61, "velocity": 109, "channel": 0}, {"type": "note_off", "time": 284, "note": 61, "velocity": 109, "channel": 0}, {"type": "note_on", "time": 140, "note": 60, "velocity": 110, "channel": 0}, {"type": "note_off", "time": 387, "note": 60, "velocity": 110, "channel": 0}, {"type": "note_on", "time": 30, "note": 59, "velocity": 100, "channel": 0}, {"type": "note_off", "time": 356, "note": 59, "velocity": 100, "channel": 0}, {"type": "note_on", "time": 10, "note": 57, "velocity": 102, "channel": 0}, {"type": "note_off", "time": 1247, "note": 57, "velocity": 102, "channel": 0}, {"type": "note_on", "time": 28, "note": 52, "velocity": 100, "channel": 0}, {"type": "note_off", "time": 219, "note": 52, "velocity": 100, "channel": 0}, {"type": "note_on", "time": 0, "note": 56, "velocity": 103, "channel": 0}, {"type": "note_off", "time": 401, "note": 56, "velocity": 103, "channel": 0}, {"type": "note_on", "time": 0, "note": 54, "velocity": 109, "channel": 0}, {"type": "note_off", "time": 366, "note": 54, "velocity": 109, "channel": 0}, {"type": "note_on", "time": 0, "note": 61, "velocity": 113, "channel": 0}, {"type": "note_off", "time": 984, "note": 61, "velocity": 113, "channel": 0}, {"type": "note_on", "time": 0, "note": 58, "velocity": 97, "channel": 0}, {"type": "note_off", "time": 428, "note": 58, "velocity": 97, "channel": 0}, {"type": "note_on", "time": 102, "note": 58, "velocity": 95, "channel": 0}, {"type": "note_off", "time": 306, "note": 58, "velocity": 95, "channel": 0}, {"type": "note_on", "time": 2296, "note": 58, "velocity": 109, "channel": 0}, {"type": "note_off", "time": 332, "note": 58, "velocity": 109, "channel": 0}, {"type": "note_on", "time": 0, "note": 67, "velocity": 116, "channel": 0}, {"type": "note_off", "time": 273, "note": 67, "velocity": 116, "channel": 0}, {"type": "note_on", "time": 192, "note": 67, "velocity": 117, "channel": 0}, {"type": "note_off", "time": 251, "note": 67, "velocity": 117, "channel": 0}, {"type": "note_on", "time": 67, "note": 68, "velocity": 108, "channel": 0}, {"type": "note_off", "time": 296, "note": 68, "velocity": 108, "channel": 0}, {"type": "note_on", "time": 153, "note": 68, "velocity": 111, "channel": 0}, {"type": "note_off", "time": 240, "note": 68, "velocity": 111, "channel": 0}, {"type": "note_on", "time": 123, "note": 70, "velocity": 116, "channel": 0}, {"type": "note_off", "time": 482, "note": 70, "velocity": 116, "channel": 0}, {"type": "note_on", "time": 0, "note": 58, "velocity": 98, "channel": 0}, {"type": "note_off", "time": 823, "note": 58, "velocity": 98, "channel": 0}, {"type": "note_on", "time": 0, "note": 67, "velocity": 116, "channel": 0}, {"type": "note_off", "time": 368, "note": 67, "velocity": 116, "channel": 0}, {"type": "note_on", "time": 14, "note": 63, "velocity": 122, "channel": 0}, {"type": "note_off", "time": 362, "note": 63, "velocity": 122, "channel": 0}, {"type": "note_on", "time": 101, "note": 63, "velocity": 121, "channel": 0}, {"type": "note_off", "time": 362, "note": 63, "velocity": 121, "channel": 0}, {"type": "note_on", "time": 607, "note": 58, "velocity": 109, "channel": 0}, {"type": "note_off", "time": 253, "note": 58, "velocity": 109, "channel": 0}, {"type": "note_on", "time": 13, "note": 61, "velocity": 106, "channel": 0}, {"type": "note_off", "time": 482, "note": 61, "velocity": 106, "channel": 0}, {"type": "note_on", "time": 13, "note": 68, "velocity": 108, "channel": 0}, {"type": "note_off", "time": 436, "note": 68, "velocity": 108, "channel": 0}, {"type": "note_on", "time": 369, "note": 68, "velocity": 114, "channel": 0}, {"type": "note_off", "time": 457, "note": 68, "velocity": 114, "channel": 0}, {"type": "note_on", "time": 0, "note": 66, "velocity": 110, "channel": 0}, {"type": "note_off", "time": 308, "note": 66, "velocity": 110, "channel": 0}, {"type": "note_on", "time": 53, "note": 73, "velocity": 111, "channel": 0}, {"type": "note_off", "time": 277, "note": 73, "velocity": 111, "channel": 0}, {"type": "note_on", "time": 17, "note": 71, "velocity": 112, "channel": 0}, {"type": "note_off", "time": 412, "note": 71, "velocity": 112, "channel": 0}, {"type": "note_on", "time": 53, "note": 66, "velocity": 103, "channel": 0}, {"type": "note_off", "time": 1337, "note": 66, "velocity": 103, "channel": 0}, {"type": "note_on", "time": 1590, "note": 65, "velocity": 108, "channel": 0}, {"type": "note_off", "time": 236, "note": 65, "velocity": 108, "channel": 0}, {"type": "note_on", "time": 27, "note": 72, "velocity": 104, "channel": 0}, {"type": "note_off", "time": 233, "note": 72, "velocity": 104, "channel": 0}, {"type": "note_on", "time": 0, "note": 68, "velocity": 109, "channel": 0}, {"type": "note_off", "time": 198, "note": 68, "velocity": 109, "channel": 0}, {"type": "note_on", "time": 0, "note": 65, "velocity": 102, "channel": 0}, {"type": "note_off", "time": 205, "note": 65, "velocity": 102, "channel": 0}, {"type": "note_on", "time": 0, "note": 61, "velocity": 105, "channel": 0}, {"type": "note_off", "time": 272, "note": 61, "velocity": 105, "channel": 0}, {"type": "note_on", "time": 1270, "note": 71, "velocity": 115, "channel": 0}, {"type": "note_off", "time": 257, "note": 71, "velocity": 115, "channel": 0}, {"type": "note_on", "time": 0, "note": 67, "velocity": 110, "channel": 0}, {"type": "note_off", "time": 150, "note": 67, "velocity": 110, "channel": 0}, {"type": "note_on", "time": 24, "note": 64, "velocity": 111, "channel": 0}, {"type": "note_off", "time": 206, "note": 64, "velocity": 111, "channel": 0}, {"type": "note_on", "time": 57, "note": 61, "velocity": 102, "channel": 0}, {"type": "note_off", "time": 249, "note": 61, "velocity": 102, "channel": 0}, {"type": "note_on", "time": 0, "note": 67, "velocity": 109, "channel": 0}, {"type": "note_off", "time": 253, "note": 67, "velocity": 109, "channel": 0}, {"type": "note_on", "time": 0, "note": 68, "velocity": 114, "channel": 0}, {"type": "note_off", "time": 243, "note": 68, "velocity": 114, "channel": 0}, {"type": "note_on", "time": 13, "note": 65, "velocity": 115, "channel": 0}, {"type": "note_off", "time": 109, "note": 65, "velocity": 115, "channel": 0}, {"type": "note_on", "time": 0, "note": 61, "velocity": 113, "channel": 0}, {"type": "note_off", "time": 246, "note": 61, "velocity": 113, "channel": 0}, {"type": "note_on", "time": 0, "note": 58, "velocity": 101, "channel": 0}, {"type": "note_off", "time": 215, "note": 58, "velocity": 101, "channel": 0}, {"type": "note_on", "time": 154, "note": 63, "velocity": 123, "channel": 0}, {"type": "note_off", "time": 178, "note": 63, "velocity": 123, "channel": 0}, {"type": "note_on", "time": 13, "note": 62, "velocity": 115, "channel": 0}, {"type": "note_off", "time": 222, "note": 62, "velocity": 115, "channel": 0}, {"type": "note_on", "time": 0, "note": 61, "velocity": 106, "channel": 0}, {"type": "note_off", "time": 219, "note": 61, "velocity": 106, "channel": 0}, {"type": "note_on", "time": 0, "note": 65, "velocity": 108, "channel": 0}, {"type": "note_off", "time": 200, "note": 65, "velocity": 108, "channel": 0}, {"type": "note_on", "time": 5, "note": 60, "velocity": 107, "channel": 0}, {"type": "note_off", "time": 233, "note": 60, "velocity": 107, "channel": 0}, {"type": "note_on", "time": 0, "note": 59, "velocity": 104, "channel": 0}, {"type": "note_off", "time": 237, "note": 59, "velocity": 104, "channel": 0}, {"type": "note_on", "time": 8, "note": 58, "velocity": 93, "channel": 0}, {"type": "note_off", "time": 407, "note": 58, "velocity": 93, "channel": 0}, {"type": "note_on", "time": 1053, "note": 67, "velocity": 112, "channel": 0}, {"type": "note_off", "time": 171, "note": 67, "velocity": 112, "channel": 0}, {"type": "note_on", "time": 0, "note": 66, "velocity": 112, "channel": 0}, {"type": "note_off", "time": 116, "note": 66, "velocity": 112, "channel": 0}, {"type": "note_on", "time": 17, "note": 65, "velocity": 114, "channel": 0}, {"type": "note_off", "time": 102, "note": 65, "velocity": 114, "channel": 0}, {"type": "note_on", "time": 0, "note": 63, "velocity": 121, "channel": 0}, {"type": "note_off", "time": 169, "note": 63, "velocity": 121, "channel": 0}, {"type": "note_on", "time": 1, "note": 62, "velocity": 110, "channel": 0}, {"type": "note_off", "time": 200, "note": 62, "velocity": 110, "channel": 0}, {"type": "note_on", "time": 39, "note": 60, "velocity": 105, "channel": 0}, {"type": "note_off", "time": 230, "note": 60, "velocity": 105, "channel": 0}, {"type": "note_on", "time": 19, "note": 58, "velocity": 98, "channel": 0}, {"type": "note_off", "time": 167, "note": 58, "velocity": 98, "channel": 0}, {"type": "note_on", "time": 13, "note": 57, "velocity": 101, "channel": 0}, {"type": "note_off", "time": 297, "note": 57, "velocity": 101, "channel": 0}, {"type": "note_on", "time": 1433, "note": 68, "velocity": 110, "channel": 0}, {"type": "note_off", "time": 205, "note": 68, "velocity": 110, "channel": 0}, {"type": "note_on", "time": 0, "note": 67, "velocity": 109, "channel": 0}, {"type": "note_off", "time": 188, "note": 67, "velocity": 109, "channel": 0}, {"type": "note_on", "time": 0, "note": 66, "velocity": 104, "channel": 0}, {"type": "note_off", "time": 181, "note": 66, "velocity": 104, "channel": 0}, {"type": "note_on", "time": 85, "note": 58, "velocity": 91, "channel": 0}, {"type": "note_off", "time": 140, "note": 58, "velocity": 91, "channel": 0}, {"type": "note_on", "time": 6, "note": 62, "velocity": 102, "channel": 0}, {"type": "note_off", "time": 193, "note": 62, "velocity": 102, "channel": 0}, {"type": "note_on", "time": 29, "note": 66, "velocity": 109, "channel": 0}, {"type": "note_off", "time": 228, "note": 66, "velocity": 109, "channel": 0}, {"type": "note_on", "time": 38, "note": 62, "velocity": 112, "channel": 0}, {"type": "note_off", "time": 140, "note": 62, "velocity": 112, "channel": 0}, {"type": "note_on", "time": 30, "note": 60, "velocity": 103, "channel": 0}, {"type": "note_off", "time": 174, "note": 60, "velocity": 103, "channel": 0}, {"type": "note_on", "time": 37, "note": 56, "velocity": 112, "channel": 0}, {"type": "note_off", "time": 225, "note": 56, "velocity": 112, "channel": 0}, {"type": "note_on", "time": 14, "note": 54, "velocity": 112, "channel": 0}, {"type": "note_off", "time": 195, "note": 54, "velocity": 112, "channel": 0}, {"type": "note_on", "time": 91, "note": 55, "velocity": 100, "channel": 0}, {"type": "note_off", "time": 714, "note": 55, "velocity": 100, "channel": 0}, {"type": "note_on", "time": 669, "note": 67, "velocity": 114, "channel": 0}, {"type": "note_off", "time": 625, "note": 67, "velocity": 114, "channel": 0}, {"type": "note_on", "time": 694, "note": 65, "velocity": 110, "channel": 0}, {"type": "note_off", "time": 236, "note": 65, "velocity": 110, "channel": 0}, {"type": "note_on", "time": 205, "note": 64, "velocity": 109, "channel": 0}, {"type": "note_off", "time": 373, "note": 64, "velocity": 109, "channel": 0}, {"type": "note_on", "time": 17, "note": 60, "velocity": 98, "channel": 0}, {"type": "note_off", "time": 258, "note": 60, "velocity": 98, "channel": 0}, {"type": "note_on", "time": 101, "note": 65, "velocity": 108, "channel": 0}, {"type": "note_off", "time": 347, "note": 65, "velocity": 108, "channel": 0}, {"type": "note_on", "time": 60, "note": 65, "velocity": 111, "channel": 0}, {"type": "note_off", "time": 230, "note": 65, "velocity": 111, "channel": 0}, {"type": "note_on", "time": 93, "note": 66, "velocity": 111, "channel": 0}, {"type": "note_off", "time": 509, "note": 66, "velocity": 111, "channel": 0}, {"type": "note_on", "time": 0, "note": 67, "velocity": 104, "channel": 0}, {"type": "note_off", "time": 1121, "note": 67, "velocity": 104, "channel": 0}, {"type": "note_on", "time": 24, "note": 65, "velocity": 114, "channel": 0}, {"type": "note_off", "time": 474, "note": 65, "velocity": 114, "channel": 0}, {"type": "note_on", "time": 899, "note": 72, "velocity": 105, "channel": 0}, {"type": "note_off", "time": 1653, "note": 72, "velocity": 105, "channel": 0}, {"type": "note_on", "time": 259, "note": 71, "velocity": 109, "channel": 0}, {"type": "note_off", "time": 401, "note": 71, "velocity": 109, "channel": 0}, {"type": "note_on", "time": 0, "note": 70, "velocity": 111, "channel": 0}, {"type": "note_off", "time": 469, "note": 70, "velocity": 111, "channel": 0}, {"type": "note_on", "time": 0, "note": 77, "velocity": 105, "channel": 0}, {"type": "note_off", "time": 1334, "note": 77, "velocity": 105, "channel": 0}, {"type": "note_on", "time": 1809, "note": 70, "velocity": 109, "channel": 0}, {"type": "note_off", "time": 281, "note": 70, "velocity": 109, "channel": 0}, {"type": "note_on", "time": 47, "note": 74, "velocity": 109, "channel": 0}, {"type": "note_off", "time": 227, "note": 74, "velocity": 109, "channel": 0}, {"type": "note_on", "time": 39, "note": 75, "velocity": 113, "channel": 0}, {"type": "note_off", "time": 255, "note": 75, "velocity": 113, "channel": 0}, {"type": "note_on", "time": 80, "note": 70, "velocity": 77, "channel": 0}, {"type": "note_off", "time": 164, "note": 70, "velocity": 77, "channel": 0}, {"type": "note_on", "time": 99, "note": 74, "velocity": 112, "channel": 0}, {"type": "note_off", "time": 298, "note": 74, "velocity": 112, "channel": 0}, {"type": "note_on", "time": 209, "note": 75, "velocity": 117, "channel": 0}, {"type": "note_off", "time": 727, "note": 75, "velocity": 117, "channel": 0}, {"type": "note_on", "time": 1094, "note": 69, "velocity": 107, "channel": 0}, {"type": "note_off", "time": 307, "note": 69, "velocity": 107, "channel": 0}, {"type": "note_on", "time": 0, "note": 70, "velocity": 107, "channel": 0}, {"type": "note_off", "time": 267, "note": 70, "velocity": 107, "channel": 0}, {"type": "note_on", "time": 3, "note": 66, "velocity": 81, "channel": 0}, {"type": "note_off", "time": 328, "note": 66, "velocity": 81, "channel": 0}, {"type": "note_on", "time": 27, "note": 69, "velocity": 104, "channel": 0}, {"type": "note_off", "time": 511, "note": 69, "velocity": 104, "channel": 0}, {"type": "note_on", "time": 40, "note": 70, "velocity": 97, "channel": 0}, {"type": "note_off", "time": 941, "note": 70, "velocity": 97, "channel": 0}, {"type": "note_on", "time": 800, "note": 63, "velocity": 119, "channel": 0}, {"type": "note_off", "time": 230, "note": 63, "velocity": 119, "channel": 0}, {"type": "note_on", "time": 95, "note": 66, "velocity": 108, "channel": 0}, {"type": "note_off", "time": 277, "note": 66, "velocity": 108, "channel": 0}, {"type": "note_on", "time": 5, "note": 67, "velocity": 103, "channel": 0}, {"type": "note_off", "time": 282, "note": 67, "velocity": 103, "channel": 0}, {"type": "note_on", "time": 13, "note": 63, "velocity": 90, "channel": 0}, {"type": "note_off", "time": 333, "note": 63, "velocity": 90, "channel": 0}, {"type": "note_on", "time": 12, "note": 66, "velocity": 104, "channel": 0}, {"type": "note_off", "time": 493, "note": 66, "velocity": 104, "channel": 0}, {"type": "note_on", "time": 17, "note": 67, "velocity": 106, "channel": 0}, {"type": "note_off", "time": 637, "note": 67, "velocity": 106, "channel": 0}, {"type": "note_on", "time": 17, "note": 63, "velocity": 120, "channel": 0}, {"type": "note_off", "time": 926, "note": 63, "velocity": 120, "channel": 0}, {"type": "note_on", "time": 191, "note": 65, "velocity": 109, "channel": 0}, {"type": "note_off", "time": 490, "note": 65, "velocity": 109, "channel": 0}, {"type": "note_on", "time": 0, "note": 63, "velocity": 113, "channel": 0}, {"type": "note_off", "time": 330, "note": 63, "velocity": 113, "channel": 0}, {"type": "note_on", "time": 16, "note": 68, "velocity": 109, "channel": 0}, {"type": "note_off", "time": 459, "note": 68, "velocity": 109, "channel": 0}, {"type": "note_on", "time": 30, "note": 61, "velocity": 109, "channel": 0}, {"type": "note_off", "time": 576, "note": 61, "velocity": 109, "channel": 0}, {"type": "note_on", "time": 1425, "note": 67, "velocity": 108, "channel": 0}, {"type": "note_off", "time": 222, "note": 67, "velocity": 108, "channel": 0}, {"type": "note_on", "time": 0, "note": 68, "velocity": 112, "channel": 0}, {"type": "note_off", "time": 195, "note": 68, "velocity": 112, "channel": 0}, {"type": "note_on", "time": 0, "note": 64, "velocity": 111, "channel": 0}, {"type": "note_off", "time": 193, "note": 64, "velocity": 111, "channel": 0}, {"type": "note_on", "time": 8, "note": 67, "velocity": 110, "channel": 0}, {"type": "note_off", "time": 210, "note": 67, "velocity": 110, "channel": 0}, {"type": "note_on", "time": 40, "note": 65, "velocity": 89, "channel": 0}, {"type": "note_off", "time": 495, "note": 65, "velocity": 89, "channel": 0}, {"type": "note_on", "time": 211, "note": 67, "velocity": 111, "channel": 0}, {"type": "note_off", "time": 179, "note": 67, "velocity": 111, "channel": 0}, {"type": "note_on", "time": 119, "note": 68, "velocity": 105, "channel": 0}, {"type": "note_off", "time": 169, "note": 68, "velocity": 105, "channel": 0}, {"type": "note_on", "time": 19, "note": 64, "velocity": 109, "channel": 0}, {"type": "note_off", "time": 226, "note": 64, "velocity": 109, "channel": 0}, {"type": "note_on", "time": 0, "note": 67, "velocity": 113, "channel": 0}, {"type": "note_off", "time": 198, "note": 67, "velocity": 113, "channel": 0}, {"type": "note_on", "time": 0, "note": 65, "velocity": 109, "channel": 0}, {"type": "note_off", "time": 230, "note": 65, "velocity": 109, "channel": 0}, {"type": "note_on", "time": 19, "note": 63, "velocity": 120, "channel": 0}, {"type": "note_off", "time": 187, "note": 63, "velocity": 120, "channel": 0}, {"type": "note_on", "time": 4, "note": 62, "velocity": 112, "channel": 0}, {"type": "note_off", "time": 226, "note": 62, "velocity": 112, "channel": 0}, {"type": "note_on", "time": 0, "note": 60, "velocity": 103, "channel": 0}, {"type": "note_off", "time": 232, "note": 60, "velocity": 103, "channel": 0}, {"type": "note_on", "time": 10, "note": 59, "velocity": 97, "channel": 0}, {"type": "note_off", "time": 222, "note": 59, "velocity": 97, "channel": 0}, {"type": "note_on", "time": 0, "note": 60, "velocity": 89, "channel": 0}, {"type": "note_off", "time": 164, "note": 60, "velocity": 89, "channel": 0}, {"type": "note_on", "time": 0, "note": 67, "velocity": 113, "channel": 0}, {"type": "note_off", "time": 199, "note": 67, "velocity": 113, "channel": 0}, {"type": "note_on", "time": 26, "note": 65, "velocity": 113, "channel": 0}, {"type": "note_off", "time": 165, "note": 65, "velocity": 113, "channel": 0}, {"type": "note_on", "time": 0, "note": 63, "velocity": 114, "channel": 0}, {"type": "note_off", "time": 262, "note": 63, "velocity": 114, "channel": 0}, {"type": "note_on", "time": 0, "note": 60, "velocity": 102, "channel": 0}, {"type": "note_off", "time": 210, "note": 60, "velocity": 102, "channel": 0}, {"type": "note_on", "time": 19, "note": 56, "velocity": 96, "channel": 0}, {"type": "note_off", "time": 212, "note": 56, "velocity": 96, "channel": 0}, {"type": "note_on", "time": 0, "note": 53, "velocity": 103, "channel": 0}, {"type": "note_off", "time": 144, "note": 53, "velocity": 103, "channel": 0}, {"type": "note_on", "time": 27, "note": 55, "velocity": 99, "channel": 0}, {"type": "note_off", "time": 200, "note": 55, "velocity": 99, "channel": 0}, {"type": "note_on", "time": 25, "note": 53, "velocity": 98, "channel": 0}, {"type": "note_off", "time": 242, "note": 53, "velocity": 98, "channel": 0}, {"type": "note_on", "time": 21, "note": 52, "velocity": 115, "channel": 0}, {"type": "note_off", "time": 195, "note": 52, "velocity": 115, "channel": 0}, {"type": "note_on", "time": 13, "note": 53, "velocity": 112, "channel": 0}, {"type": "note_off", "time": 140, "note": 53, "velocity": 112, "channel": 0}, {"type": "note_on", "time": 0, "note": 58, "velocity": 99, "channel": 0}, {"type": "note_off", "time": 208, "note": 58, "velocity": 99, "channel": 0}, {"type": "note_on", "time": 124, "note": 63, "velocity": 111, "channel": 0}, {"type": "note_off", "time": 339, "note": 63, "velocity": 111, "channel": 0}, {"type": "note_on", "time": 2513, "note": 61, "velocity": 109, "channel": 0}, {"type": "note_off", "time": 202, "note": 61, "velocity": 109, "channel": 0}, {"type": "note_on", "time": 58, "note": 64, "velocity": 114, "channel": 0}, {"type": "note_off", "time": 209, "note": 64, "velocity": 114, "channel": 0}, {"type": "note_on", "time": 0, "note": 67, "velocity": 114, "channel": 0}, {"type": "note_off", "time": 257, "note": 67, "velocity": 114, "channel": 0}, {"type": "note_on", "time": 0, "note": 64, "velocity": 114, "channel": 0}, {"type": "note_off", "time": 171, "note": 64, "velocity": 114, "channel": 0}, {"type": "note_on", "time": 0, "note": 65, "velocity": 110, "channel": 0}, {"type": "note_off", "time": 184, "note": 65, "velocity": 110, "channel": 0}, {"type": "note_on", "time": 45, "note": 67, "velocity": 109, "channel": 0}, {"type": "note_off", "time": 128, "note": 67, "velocity": 109, "channel": 0}, {"type": "note_on", "time": 53, "note": 68, "velocity": 112, "channel": 0}, {"type": "note_off", "time": 194, "note": 68, "velocity": 112, "channel": 0}, {"type": "note_on", "time": 14, "note": 70, "velocity": 112, "channel": 0}, {"type": "note_off", "time": 178, "note": 70, "velocity": 112, "channel": 0}, {"type": "note_on", "time": 0, "note": 71, "velocity": 116, "channel": 0}, {"type": "note_off", "time": 147, "note": 71, "velocity": 116, "channel": 0}, {"type": "note_on", "time": 0, "note": 73, "velocity": 110, "channel": 0}, {"type": "note_off", "time": 171, "note": 73, "velocity": 110, "channel": 0}, {"type": "note_on", "time": 0, "note": 70, "velocity": 110, "channel": 0}, {"type": "note_off", "time": 184, "note": 70, "velocity": 110, "channel": 0}, {"type": "note_on", "time": 161, "note": 68, "velocity": 109, "channel": 0}, {"type": "note_off", "time": 180, "note": 68, "velocity": 109, "channel": 0}, {"type": "note_on", "time": 0, "note": 67, "velocity": 109, "channel": 0}, {"type": "note_off", "time": 263, "note": 67, "velocity": 109, "channel": 0}, {"type": "note_on", "time": 0, "note": 65, "velocity": 105, "channel": 0}, {"type": "note_off", "time": 248, "note": 65, "velocity": 105, "channel": 0}, {"type": "note_on", "time": 0, "note": 63, "velocity": 111, "channel": 0}, {"type": "note_off", "time": 171, "note": 63, "velocity": 111, "channel": 0}, {"type": "note_on", "time": 0, "note": 62, "velocity": 108, "channel": 0}, {"type": "note_off", "time": 205, "note": 62, "velocity": 108, "channel": 0}, {"type": "note_on", "time": 10, "note": 65, "velocity": 113, "channel": 0}, {"type": "note_off", "time": 269, "note": 65, "velocity": 113, "channel": 0}, {"type": "note_on", "time": 7, "note": 62, "velocity": 105, "channel": 0}, {"type": "note_off", "time": 192, "note": 62, "velocity": 105, "channel": 0}, {"type": "note_on", "time": 17, "note": 63, "velocity": 109, "channel": 0}, {"type": "note_off", "time": 161, "note": 63, "velocity": 109, "channel": 0}, {"type": "note_on", "time": 0, "note": 65, "velocity": 109, "channel": 0}, {"type": "note_off", "time": 165, "note": 65, "velocity": 109, "channel": 0}, {"type": "note_on", "time": 26, "note": 62, "velocity": 118, "channel": 0}, {"type": "note_off", "time": 577, "note": 62, "velocity": 118, "channel": 0}, {"type": "note_on", "time": 166, "note": 62, "velocity": 118, "channel": 0}, {"type": "note_off", "time": 179, "note": 62, "velocity": 118, "channel": 0}, {"type": "note_on", "time": 156, "note": 58, "velocity": 91, "channel": 0}, {"type": "note_off", "time": 192, "note": 58, "velocity": 91, "channel": 0}, {"type": "note_on", "time": 0, "note": 60, "velocity": 102, "channel": 0}, {"type": "note_off", "time": 170, "note": 60, "velocity": 102, "channel": 0}, {"type": "note_on", "time": 76, "note": 62, "velocity": 109, "channel": 0}, {"type": "note_off", "time": 160, "note": 62, "velocity": 109, "channel": 0}, {"type": "note_on", "time": 0, "note": 58, "velocity": 103, "channel": 0}, {"type": "note_off", "time": 205, "note": 58, "velocity": 103, "channel": 0}, {"type": "note_on", "time": 0, "note": 55, "velocity": 89, "channel": 0}, {"type": "note_off", "time": 254, "note": 55, "velocity": 89, "channel": 0}, {"type": "note_on", "time": 16, "note": 56, "velocity": 109, "channel": 0}, {"type": "note_off", "time": 212, "note": 56, "velocity": 109, "channel": 0}, {"type": "note_on", "time": 0, "note": 58, "velocity": 112, "channel": 0}, {"type": "note_off", "time": 185, "note": 58, "velocity": 112, "channel": 0}, {"type": "note_on", "time": 61, "note": 55, "velocity": 88, "channel": 0}, {"type": "note_off", "time": 349, "note": 55, "velocity": 88, "channel": 0}, {"type": "note_on", "time": 24, "note": 51, "velocity": 102, "channel": 0}, {"type": "note_off", "time": 164, "note": 51, "velocity": 102, "channel": 0}, {"type": "note_on", "time": 0, "note": 53, "velocity": 101, "channel": 0}, {"type": "note_off", "time": 212, "note": 53, "velocity": 101, "channel": 0}, {"type": "note_on", "time": 0, "note": 50, "velocity": 101, "channel": 0}, {"type": "note_off", "time": 270, "note": 50, "velocity": 101, "channel": 0}, {"type": "note_on", "time": 23, "note": 46, "velocity": 115, "channel": 0}, {"type": "note_off", "time": 577, "note": 46, "velocity": 115, "channel": 0}, {"type": "note_on", "time": 2312, "note": 51, "velocity": 111, "channel": 0}, {"type": "note_off", "time": 233, "note": 51, "velocity": 111, "channel": 0}, {"type": "note_on", "time": 0, "note": 48, "velocity": 96, "channel": 0}, {"type": "note_off", "time": 276, "note": 48, "velocity": 96, "channel": 0}, {"type": "note_on", "time": 72, "note": 51, "velocity": 93, "channel": 0}, {"type": "note_off", "time": 202, "note": 51, "velocity": 93, "channel": 0}, {"type": "note_on", "time": 0, "note": 55, "velocity": 112, "channel": 0}, {"type": "note_off", "time": 171, "note": 55, "velocity": 112, "channel": 0}, {"type": "note_on", "time": 0, "note": 60, "velocity": 111, "channel": 0}, {"type": "note_off", "time": 301, "note": 60, "velocity": 111, "channel": 0}, {"type": "note_on", "time": 59, "note": 58, "velocity": 96, "channel": 0}, {"type": "note_off", "time": 1170, "note": 58, "velocity": 96, "channel": 0}, {"type": "note_on", "time": 89, "note": 54, "velocity": 103, "channel": 0}, {"type": "note_off", "time": 335, "note": 54, "velocity": 103, "channel": 0}, {"type": "note_on", "time": 326, "note": 49, "velocity": 92, "channel": 0}, {"type": "note_off", "time": 195, "note": 49, "velocity": 92, "channel": 0}, {"type": "note_on", "time": 0, "note": 54, "velocity": 102, "channel": 0}, {"type": "note_off", "time": 398, "note": 54, "velocity": 102, "channel": 0}, {"type": "note_on", "time": 78, "note": 57, "velocity": 100, "channel": 0}, {"type": "note_off", "time": 383, "note": 57, "velocity": 100, "channel": 0}, {"type": "note_on", "time": 72, "note": 64, "velocity": 121, "channel": 0}, {"type": "note_off", "time": 236, "note": 64, "velocity": 121, "channel": 0}, {"type": "note_on", "time": 0, "note": 66, "velocity": 108, "channel": 0}, {"type": "note_off", "time": 204, "note": 66, "velocity": 108, "channel": 0}, {"type": "note_on", "time": 48, "note": 63, "velocity": 120, "channel": 0}, {"type": "note_off", "time": 883, "note": 63, "velocity": 120, "channel": 0}, {"type": "note_on", "time": 852, "note": 60, "velocity": 108, "channel": 0}, {"type": "note_off", "time": 229, "note": 60, "velocity": 108, "channel": 0}, {"type": "note_on", "time": 0, "note": 62, "velocity": 106, "channel": 0}, {"type": "note_off", "time": 242, "note": 62, "velocity": 106, "channel": 0}, {"type": "note_on", "time": 0, "note": 63, "velocity": 114, "channel": 0}, {"type": "note_off", "time": 195, "note": 63, "velocity": 114, "channel": 0}, {"type": "note_on", "time": 5, "note": 65, "velocity": 94, "channel": 0}, {"type": "note_off", "time": 141, "note": 65, "velocity": 94, "channel": 0}, {"type": "note_on", "time": 0, "note": 67, "velocity": 114, "channel": 0}, {"type": "note_off", "time": 205, "note": 67, "velocity": 114, "channel": 0}, {"type": "note_on", "time": 0, "note": 68, "velocity": 116, "channel": 0}, {"type": "note_off", "time": 155, "note": 68, "velocity": 116, "channel": 0}, {"type": "note_on", "time": 29, "note": 64, "velocity": 111, "channel": 0}, {"type": "note_off", "time": 214, "note": 64, "velocity": 111, "channel": 0}, {"type": "note_on", "time": 22, "note": 67, "velocity": 110, "channel": 0}, {"type": "note_off", "time": 195, "note": 67, "velocity": 110, "channel": 0}, {"type": "note_on", "time": 0, "note": 65, "velocity": 111, "channel": 0}, {"type": "note_off", "time": 215, "note": 65, "velocity": 111, "channel": 0}, {"type": "note_on", "time": 0, "note": 63, "velocity": 112, "channel": 0}, {"type": "note_off", "time": 243, "note": 63, "velocity": 112, "channel": 0}, {"type": "note_on", "time": 5, "note": 62, "velocity": 108, "channel": 0}, {"type": "note_off", "time": 150, "note": 62, "velocity": 108, "channel": 0}, {"type": "note_on", "time": 0, "note": 60, "velocity": 102, "channel": 0}, {"type": "note_off", "time": 213, "note": 60, "velocity": 102, "channel": 0}, {"type": "note_on", "time": 5, "note": 59, "velocity": 95, "channel": 0}, {"type": "note_off", "time": 254, "note": 59, "velocity": 95, "channel": 0}, {"type": "note_on", "time": 4, "note": 60, "velocity": 86, "channel": 0}, {"type": "note_off", "time": 156, "note": 60, "velocity": 86, "channel": 0}, {"type": "note_on", "time": 0, "note": 67, "velocity": 113, "channel": 0}, {"type": "note_off", "time": 253, "note": 67, "velocity": 113, "channel": 0}, {"type": "note_on", "time": 0, "note": 65, "velocity": 112, "channel": 0}, {"type": "note_off", "time": 118, "note": 65, "velocity": 112, "channel": 0}, {"type": "note_on", "time": 37, "note": 63, "velocity": 113, "channel": 0}, {"type": "note_off", "time": 253, "note": 63, "velocity": 113, "channel": 0}, {"type": "note_on", "time": 0, "note": 60, "velocity": 101, "channel": 0}, {"type": "note_off", "time": 199, "note": 60, "velocity": 101, "channel": 0}, {"type": "note_on", "time": 57, "note": 56, "velocity": 115, "channel": 0}, {"type": "note_off", "time": 226, "note": 56, "velocity": 115, "channel": 0}, {"type": "note_on", "time": 0, "note": 53, "velocity": 107, "channel": 0}, {"type": "note_off", "time": 190, "note": 53, "velocity": 107, "channel": 0}, {"type": "note_on", "time": 0, "note": 55, "velocity": 97, "channel": 0}, {"type": "note_off", "time": 185, "note": 55, "velocity": 97, "channel": 0}, {"type": "note_on", "time": 0, "note": 53, "velocity": 92, "channel": 0}, {"type": "note_off", "time": 183, "note": 53, "velocity": 92, "channel": 0}, {"type": "note_on", "time": 79, "note": 52, "velocity": 96, "channel": 0}, {"type": "note_off", "time": 146, "note": 52, "velocity": 96, "channel": 0}, {"type": "note_on", "time": 0, "note": 53, "velocity": 104, "channel": 0}, {"type": "note_off", "time": 156, "note": 53, "velocity": 104, "channel": 0}, {"type": "note_on", "time": 0, "note": 58, "velocity": 100, "channel": 0}, {"type": "note_off", "time": 361, "note": 58, "velocity": 100, "channel": 0}, {"type": "note_on", "time": 1252, "note": 63, "velocity": 118, "channel": 0}, {"type": "note_off", "time": 308, "note": 63, "velocity": 118, "channel": 0}, {"type": "note_on", "time": 115, "note": 63, "velocity": 122, "channel": 0}, {"type": "note_off", "time": 219, "note": 63, "velocity": 122, "channel": 0}, {"type": "note_on", "time": 0, "note": 67, "velocity": 109, "channel": 0}, {"type": "note_off", "time": 226, "note": 67, "velocity": 109, "channel": 0}, {"type": "note_on", "time": 45, "note": 64, "velocity": 111, "channel": 0}, {"type": "note_off", "time": 181, "note": 64, "velocity": 111, "channel": 0}, {"type": "note_on", "time": 0, "note": 65, "velocity": 106, "channel": 0}, {"type": "note_off", "time": 224, "note": 65, "velocity": 106, "channel": 0}, {"type": "note_on", "time": 9, "note": 67, "velocity": 107, "channel": 0}, {"type": "note_off", "time": 214, "note": 67, "velocity": 107, "channel": 0}, {"type": "note_on", "time": 0, "note": 68, "velocity": 113, "channel": 0}, {"type": "note_off", "time": 136, "note": 68, "velocity": 113, "channel": 0}, {"type": "note_on", "time": 0, "note": 64, "velocity": 109, "channel": 0}, {"type": "note_off", "time": 184, "note": 64, "velocity": 109, "channel": 0}, {"type": "note_on", "time": 68, "note": 60, "velocity": 106, "channel": 0}, {"type": "note_off", "time": 165, "note": 60, "velocity": 106, "channel": 0}, {"type": "note_on", "time": 0, "note": 56, "velocity": 102, "channel": 0}, {"type": "note_off", "time": 204, "note": 56, "velocity": 102, "channel": 0}, {"type": "note_on", "time": 87, "note": 52, "velocity": 112, "channel": 0}, {"type": "note_off", "time": 151, "note": 52, "velocity": 112, "channel": 0}, {"type": "note_on", "time": 0, "note": 55, "velocity": 113, "channel": 0}, {"type": "note_off", "time": 214, "note": 55, "velocity": 113, "channel": 0}, {"type": "note_on", "time": 0, "note": 53, "velocity": 111, "channel": 0}, {"type": "note_off", "time": 206, "note": 53, "velocity": 111, "channel": 0}, {"type": "note_on", "time": 51, "note": 52, "velocity": 114, "channel": 0}, {"type": "note_off", "time": 185, "note": 52, "velocity": 114, "channel": 0}, {"type": "note_on", "time": 0, "note": 53, "velocity": 109, "channel": 0}, {"type": "note_off", "time": 165, "note": 53, "velocity": 109, "channel": 0}, {"type": "note_on", "time": 0, "note": 56, "velocity": 97, "channel": 0}, {"type": "note_off", "time": 152, "note": 56, "velocity": 97, "channel": 0}, {"type": "note_on", "time": 106, "note": 60, "velocity": 106, "channel": 0}, {"type": "note_off", "time": 217, "note": 60, "velocity": 106, "channel": 0}, {"type": "note_on", "time": 289, "note": 59, "velocity": 95, "channel": 0}, {"type": "note_off", "time": 234, "note": 59, "velocity": 95, "channel": 0}, {"type": "note_on", "time": 0, "note": 61, "velocity": 107, "channel": 0}, {"type": "note_off", "time": 224, "note": 61, "velocity": 107, "channel": 0}, {"type": "note_on", "time": 0, "note": 62, "velocity": 109, "channel": 0}, {"type": "note_off", "time": 221, "note": 62, "velocity": 109, "channel": 0}, {"type": "note_on", "time": 46, "note": 64, "velocity": 101, "channel": 0}, {"type": "note_off", "time": 156, "note": 64, "velocity": 101, "channel": 0}, {"type": "note_on", "time": 0, "note": 66, "velocity": 115, "channel": 0}, {"type": "note_off", "time": 205, "note": 66, "velocity": 115, "channel": 0}, {"type": "note_on", "time": 23, "note": 62, "velocity": 113, "channel": 0}, {"type": "note_off", "time": 199, "note": 62, "velocity": 113, "channel": 0}, {"type": "note_on", "time": 0, "note": 59, "velocity": 94, "channel": 0}, {"type": "note_off", "time": 237, "note": 59, "velocity": 94, "channel": 0}, {"type": "note_on", "time": 35, "note": 55, "velocity": 105, "channel": 0}, {"type": "note_off", "time": 190, "note": 55, "velocity": 105, "channel": 0}, {"type": "note_on", "time": 0, "note": 58, "velocity": 91, "channel": 0}, {"type": "note_off", "time": 848, "note": 58, "velocity": 91, "channel": 0}, {"type": "note_on", "time": 721, "note": 67, "velocity": 116, "channel": 0}, {"type": "note_off", "time": 253, "note": 67, "velocity": 116, "channel": 0}, {"type": "note_on", "time": 0, "note": 68, "velocity": 111, "channel": 0}, {"type": "note_off", "time": 185, "note": 68, "velocity": 111, "channel": 0}, {"type": "note_on", "time": 0, "note": 63, "velocity": 123, "channel": 0}, {"type": "note_off", "time": 205, "note": 63, "velocity": 123, "channel": 0}, {"type": "note_on", "time": 233, "note": 65, "velocity": 110, "channel": 0}, {"type": "note_off", "time": 424, "note": 65, "velocity": 110, "channel": 0}, {"type": "note_on", "time": 19, "note": 62, "velocity": 115, "channel": 0}, {"type": "note_off", "time": 243, "note": 62, "velocity": 115, "channel": 0}, {"type": "note_on", "time": 238, "note": 63, "velocity": 119, "channel": 0}, {"type": "note_off", "time": 584, "note": 63, "velocity": 119, "channel": 0}, {"type": "note_on", "time": 29, "note": 60, "velocity": 106, "channel": 0}, {"type": "note_off", "time": 219, "note": 60, "velocity": 106, "channel": 0}, {"type": "note_on", "time": 19, "note": 62, "velocity": 119, "channel": 0}, {"type": "note_off", "time": 240, "note": 62, "velocity": 119, "channel": 0}, {"type": "note_on", "time": 13, "note": 58, "velocity": 102, "channel": 0}, {"type": "note_off", "time": 453, "note": 58, "velocity": 102, "channel": 0}, {"type": "note_on", "time": 838, "note": 60, "velocity": 113, "channel": 0}, {"type": "note_off", "time": 219, "note": 60, "velocity": 113, "channel": 0}, {"type": "note_on", "time": 0, "note": 63, "velocity": 122, "channel": 0}, {"type": "note_off", "time": 225, "note": 63, "velocity": 122, "channel": 0}, {"type": "note_on", "time": 42, "note": 67, "velocity": 100, "channel": 0}, {"type": "note_off", "time": 234, "note": 67, "velocity": 100, "channel": 0}, {"type": "note_on", "time": 0, "note": 70, "velocity": 87, "channel": 0}, {"type": "note_off", "time": 199, "note": 70, "velocity": 87, "channel": 0}, {"type": "note_on", "time": 0, "note": 74, "velocity": 117, "channel": 0}, {"type": "note_off", "time": 238, "note": 74, "velocity": 117, "channel": 0}, {"type": "note_on", "time": 0, "note": 75, "velocity": 115, "channel": 0}, {"type": "note_off", "time": 126, "note": 75, "velocity": 115, "channel": 0}, {"type": "note_on", "time": 102, "note": 75, "velocity": 115, "channel": 0}, {"type": "note_off", "time": 108, "note": 75, "velocity": 115, "channel": 0}, {"type": "note_on", "time": 135, "note": 75, "velocity": 113, "channel": 0}, {"type": "note_off", "time": 151, "note": 75, "velocity": 113, "channel": 0}, {"type": "note_on", "time": 106, "note": 75, "velocity": 113, "channel": 0}, {"type": "note_off", "time": 534, "note": 75, "velocity": 113, "channel": 0}, {"type": "note_on", "time": 1806, "note": 72, "velocity": 112, "channel": 0}, {"type": "note_off", "time": 190, "note": 72, "velocity": 112, "channel": 0}, {"type": "note_on", "time": 0, "note": 73, "velocity": 111, "channel": 0}, {"type": "note_off", "time": 391, "note": 73, "velocity": 111, "channel": 0}, {"type": "note_on", "time": 257, "note": 73, "velocity": 107, "channel": 0}, {"type": "note_off", "time": 334, "note": 73, "velocity": 107, "channel": 0}, {"type": "note_on", "time": 167, "note": 73, "velocity": 106, "channel": 0}, {"type": "note_off", "time": 199, "note": 73, "velocity": 106, "channel": 0}, {"type": "note_on", "time": 136, "note": 73, "velocity": 103, "channel": 0}, {"type": "note_off", "time": 619, "note": 73, "velocity": 103, "channel": 0}, {"type": "note_on", "time": 1545, "note": 75, "velocity": 121, "channel": 0}, {"type": "note_off", "time": 741, "note": 75, "velocity": 121, "channel": 0}, {"type": "note_on", "time": 214, "note": 72, "velocity": 109, "channel": 0}, {"type": "note_off", "time": 382, "note": 72, "velocity": 109, "channel": 0}, {"type": "note_on", "time": 107, "note": 68, "velocity": 115, "channel": 0}, {"type": "note_off", "time": 331, "note": 68, "velocity": 115, "channel": 0}, {"type": "note_on", "time": 61, "note": 65, "velocity": 114, "channel": 0}, {"type": "note_off", "time": 305, "note": 65, "velocity": 114, "channel": 0}, {"type": "note_on", "time": 167, "note": 60, "velocity": 106, "channel": 0}, {"type": "note_off", "time": 350, "note": 60, "velocity": 106, "channel": 0}, {"type": "note_on", "time": 73, "note": 63, "velocity": 121, "channel": 0}, {"type": "note_off", "time": 275, "note": 63, "velocity": 121, "channel": 0}, {"type": "note_on", "time": 183, "note": 60, "velocity": 108, "channel": 0}, {"type": "note_off", "time": 283, "note": 60, "velocity": 108, "channel": 0}, {"type": "note_on", "time": 77, "note": 63, "velocity": 122, "channel": 0}, {"type": "note_off", "time": 270, "note": 63, "velocity": 122, "channel": 0}, {"type": "note_on", "time": 134, "note": 60, "velocity": 107, "channel": 0}, {"type": "note_off", "time": 257, "note": 60, "velocity": 107, "channel": 0}, {"type": "note_on", "time": 122, "note": 62, "velocity": 120, "channel": 0}, {"type": "note_off", "time": 300, "note": 62, "velocity": 120, "channel": 0}, {"type": "note_on", "time": 153, "note": 67, "velocity": 107, "channel": 0}, {"type": "note_off", "time": 1154, "note": 67, "velocity": 107, "channel": 0}, {"type": "note_on", "time": 51, "note": 63, "velocity": 119, "channel": 0}, {"type": "note_off", "time": 592, "note": 63, "velocity": 119, "channel": 0}, {"type": "note_on", "time": 771, "note": 68, "velocity": 113, "channel": 0}, {"type": "note_off", "time": 385, "note": 68, "velocity": 113, "channel": 0}, {"type": "note_on", "time": 0, "note": 65, "velocity": 110, "channel": 0}, {"type": "note_off", "time": 393, "note": 65, "velocity": 110, "channel": 0}, {"type": "note_on", "time": 123, "note": 61, "velocity": 103, "channel": 0}, {"type": "note_off", "time": 515, "note": 61, "velocity": 103, "channel": 0}, {"type": "note_on", "time": 230, "note": 66, "velocity": 110, "channel": 0}, {"type": "note_off", "time": 414, "note": 66, "velocity": 110, "channel": 0}, {"type": "note_on", "time": 0, "note": 63, "velocity": 120, "channel": 0}, {"type": "note_off", "time": 449, "note": 63, "velocity": 120, "channel": 0}, {"type": "note_on", "time": 18, "note": 59, "velocity": 99, "channel": 0}, {"type": "note_off", "time": 441, "note": 59, "velocity": 99, "channel": 0}, {"type": "note_on", "time": 2125, "note": 72, "velocity": 114, "channel": 0}, {"type": "note_off", "time": 1021, "note": 72, "velocity": 114, "channel": 0}, {"type": "note_on", "time": 175, "note": 70, "velocity": 109, "channel": 0}, {"type": "note_off", "time": 297, "note": 70, "velocity": 109, "channel": 0}, {"type": "note_on", "time": 106, "note": 68, "velocity": 111, "channel": 0}, {"type": "note_off", "time": 343, "note": 68, "velocity": 111, "channel": 0}, {"type": "note_on", "time": 135, "note": 67, "velocity": 111, "channel": 0}, {"type": "note_off", "time": 326, "note": 67, "velocity": 111, "channel": 0}, {"type": "note_on", "time": 49, "note": 65, "velocity": 110, "channel": 0}, {"type": "note_off", "time": 343, "note": 65, "velocity": 110, "channel": 0}, {"type": "note_on", "time": 28, "note": 63, "velocity": 118, "channel": 0}, {"type": "note_off", "time": 424, "note": 63, "velocity": 118, "channel": 0}, {"type": "note_on", "time": 12, "note": 62, "velocity": 112, "channel": 0}, {"type": "note_off", "time": 391, "note": 62, "velocity": 112, "channel": 0}, {"type": "note_on", "time": 33, "note": 61, "velocity": 104, "channel": 0}, {"type": "note_off", "time": 374, "note": 61, "velocity": 104, "channel": 0}, {"type": "note_on", "time": 0, "note": 63, "velocity": 119, "channel": 0}, {"type": "note_off", "time": 368, "note": 63, "velocity": 119, "channel": 0}, {"type": "note_on", "time": 35, "note": 65, "velocity": 110, "channel": 0}, {"type": "note_off", "time": 458, "note": 65, "velocity": 110, "channel": 0}, {"type": "note_on", "time": 0, "note": 67, "velocity": 108, "channel": 0}, {"type": "note_off", "time": 345, "note": 67, "velocity": 108, "channel": 0}, {"type": "note_on", "time": 69, "note": 72, "velocity": 103, "channel": 0}, {"type": "note_off", "time": 230, "note": 72, "velocity": 103, "channel": 0}, {"type": "note_on", "time": 198, "note": 70, "velocity": 105, "channel": 0}, {"type": "note_off", "time": 375, "note": 70, "velocity": 105, "channel": 0}, {"type": "note_on", "time": 0, "note": 69, "velocity": 106, "channel": 0}, {"type": "note_off", "time": 372, "note": 69, "velocity": 106, "channel": 0}, {"type": "note_on", "time": 97, "note": 70, "velocity": 102, "channel": 0}, {"type": "note_off", "time": 484, "note": 70, "velocity": 102, "channel": 0}, {"type": "note_on", "time": 80, "note": 75, "velocity": 108, "channel": 0}, {"type": "note_off", "time": 438, "note": 75, "velocity": 108, "channel": 0}, {"type": "note_on", "time": 14, "note": 72, "velocity": 100, "channel": 0}, {"type": "note_off", "time": 417, "note": 72, "velocity": 100, "channel": 0}, {"type": "note_on", "time": 2269, "note": 74, "velocity": 103, "channel": 0}, {"type": "note_off", "time": 487, "note": 74, "velocity": 103, "channel": 0}, {"type": "note_on", "time": 137, "note": 68, "velocity": 110, "channel": 0}, {"type": "note_off", "time": 965, "note": 68, "velocity": 110, "channel": 0}, {"type": "note_on", "time": 1779, "note": 74, "velocity": 101, "channel": 0}, {"type": "note_off", "time": 187, "note": 74, "velocity": 101, "channel": 0}, {"type": "note_on", "time": 36, "note": 73, "velocity": 108, "channel": 0}, {"type": "note_off", "time": 187, "note": 73, "velocity": 108, "channel": 0}, {"type": "note_on", "time": 27, "note": 72, "velocity": 106, "channel": 0}, {"type": "note_off", "time": 199, "note": 72, "velocity": 106, "channel": 0}, {"type": "note_on", "time": 0, "note": 70, "velocity": 98, "channel": 0}, {"type": "note_off", "time": 154, "note": 70, "velocity": 98, "channel": 0}, {"type": "note_on", "time": 84, "note": 71, "velocity": 107, "channel": 0}, {"type": "note_off", "time": 268, "note": 71, "velocity": 107, "channel": 0}, {"type": "note_on", "time": 0, "note": 62, "velocity": 116, "channel": 0}, {"type": "note_off", "time": 984, "note": 62, "velocity": 116, "channel": 0}, {"type": "note_on", "time": 0, "note": 69, "velocity": 109, "channel": 0}, {"type": "note_off", "time": 950, "note": 69, "velocity": 109, "channel": 0}, {"type": "note_on", "time": 234, "note": 67, "velocity": 112, "channel": 0}, {"type": "note_off", "time": 214, "note": 67, "velocity": 112, "channel": 0}, {"type": "note_on", "time": 0, "note": 69, "velocity": 106, "channel": 0}, {"type": "note_off", "time": 126, "note": 69, "velocity": 106, "channel": 0}, {"type": "note_on", "time": 0, "note": 67, "velocity": 105, "channel": 0}, {"type": "note_off", "time": 117, "note": 67, "velocity": 105, "channel": 0}, {"type": "note_on", "time": 0, "note": 65, "velocity": 102, "channel": 0}, {"type": "note_off", "time": 175, "note": 65, "velocity": 102, "channel": 0}, {"type": "note_on", "time": 0, "note": 63, "velocity": 114, "channel": 0}, {"type": "note_off", "time": 136, "note": 63, "velocity": 114, "channel": 0}, {"type": "note_on", "time": 72, "note": 64, "velocity": 111, "channel": 0}, {"type": "note_off", "time": 234, "note": 64, "velocity": 111, "channel": 0}, {"type": "note_on", "time": 39, "note": 60, "velocity": 106, "channel": 0}, {"type": "note_off", "time": 833, "note": 60, "velocity": 106, "channel": 0}, {"type": "note_on", "time": 790, "note": 60, "velocity": 109, "channel": 0}, {"type": "note_off", "time": 227, "note": 60, "velocity": 109, "channel": 0}, {"type": "note_on", "time": 22, "note": 58, "velocity": 97, "channel": 0}, {"type": "note_off", "time": 226, "note": 58, "velocity": 97, "channel": 0}, {"type": "note_on", "time": 0, "note": 57, "velocity": 107, "channel": 0}, {"type": "note_off", "time": 299, "note": 57, "velocity": 107, "channel": 0}, {"type": "note_on", "time": 49, "note": 57, "velocity": 9, "channel": 0}, {"type": "note_off", "time": 176, "note": 57, "velocity": 9, "channel": 0}, {"type": "note_on", "time": 50, "note": 58, "velocity": 100, "channel": 0}, {"type": "note_off", "time": 202, "note": 58, "velocity": 100, "channel": 0}, {"type": "note_on", "time": 0, "note": 60, "velocity": 99, "channel": 0}, {"type": "note_off", "time": 237, "note": 60, "velocity": 99, "channel": 0}, {"type": "note_on", "time": 162, "note": 60, "velocity": 107, "channel": 0}, {"type": "note_off", "time": 183, "note": 60, "velocity": 107, "channel": 0}, {"type": "note_on", "time": 90, "note": 62, "velocity": 112, "channel": 0}, {"type": "note_off", "time": 207, "note": 62, "velocity": 112, "channel": 0}, {"type": "note_on", "time": 0, "note": 63, "velocity": 116, "channel": 0}, {"type": "note_off", "time": 235, "note": 63, "velocity": 116, "channel": 0}, {"type": "note_on", "time": 0, "note": 62, "velocity": 115, "channel": 0}, {"type": "note_off", "time": 190, "note": 62, "velocity": 115, "channel": 0}, {"type": "note_on", "time": 0, "note": 60, "velocity": 105, "channel": 0}, {"type": "note_off", "time": 218, "note": 60, "velocity": 105, "channel": 0}, {"type": "note_on", "time": 1, "note": 58, "velocity": 104, "channel": 0}, {"type": "note_off", "time": 176, "note": 58, "velocity": 104, "channel": 0}, {"type": "note_on", "time": 13, "note": 57, "velocity": 114, "channel": 0}, {"type": "note_off", "time": 219, "note": 57, "velocity": 114, "channel": 0}, {"type": "note_on", "time": 0, "note": 60, "velocity": 107, "channel": 0}, {"type": "note_off", "time": 170, "note": 60, "velocity": 107, "channel": 0}, {"type": "note_on", "time": 0, "note": 63, "velocity": 114, "channel": 0}, {"type": "note_off", "time": 204, "note": 63, "velocity": 114, "channel": 0}, {"type": "note_on", "time": 0, "note": 67, "velocity": 115, "channel": 0}, {"type": "note_off", "time": 218, "note": 67, "velocity": 115, "channel": 0}, {"type": "note_on", "time": 10, "note": 65, "velocity": 108, "channel": 0}, {"type": "note_off", "time": 418, "note": 65, "velocity": 108, "channel": 0}, {"type": "note_on", "time": 1166, "note": 67, "velocity": 108, "channel": 0}, {"type": "note_off", "time": 253, "note": 67, "velocity": 108, "channel": 0}, {"type": "note_on", "time": 0, "note": 68, "velocity": 110, "channel": 0}, {"type": "note_off", "time": 194, "note": 68, "velocity": 110, "channel": 0}, {"type": "note_on", "time": 0, "note": 64, "velocity": 114, "channel": 0}, {"type": "note_off", "time": 217, "note": 64, "velocity": 114, "channel": 0}, {"type": "note_on", "time": 18, "note": 67, "velocity": 110, "channel": 0}, {"type": "note_off", "time": 168, "note": 67, "velocity": 110, "channel": 0}, {"type": "note_on", "time": 0, "note": 65, "velocity": 107, "channel": 0}, {"type": "note_off", "time": 233, "note": 65, "velocity": 107, "channel": 0}, {"type": "note_on", "time": 0, "note": 63, "velocity": 122, "channel": 0}, {"type": "note_off", "time": 204, "note": 63, "velocity": 122, "channel": 0}, {"type": "note_on", "time": 0, "note": 62, "velocity": 119, "channel": 0}, {"type": "note_off", "time": 228, "note": 62, "velocity": 119, "channel": 0}, {"type": "note_on", "time": 31, "note": 60, "velocity": 104, "channel": 0}, {"type": "note_off", "time": 237, "note": 60, "velocity": 104, "channel": 0}, {"type": "note_on", "time": 0, "note": 58, "velocity": 103, "channel": 0}, {"type": "note_off", "time": 772, "note": 58, "velocity": 103, "channel": 0}, {"type": "note_on", "time": 496, "note": 70, "velocity": 122, "channel": 0}, {"type": "note_off", "time": 414, "note": 70, "velocity": 122, "channel": 0}, {"type": "note_on", "time": 383, "note": 67, "velocity": 114, "channel": 0}, {"type": "note_off", "time": 373, "note": 67, "velocity": 114, "channel": 0}, {"type": "note_on", "time": 84, "note": 65, "velocity": 110, "channel": 0}, {"type": "note_off", "time": 429, "note": 65, "velocity": 110, "channel": 0}, {"type": "note_on", "time": 14, "note": 63, "velocity": 115, "channel": 0}, {"type": "note_off", "time": 208, "note": 63, "velocity": 115, "channel": 0}, {"type": "note_on", "time": 117, "note": 65, "velocity": 99, "channel": 0}, {"type": "note_off", "time": 1204, "note": 65, "velocity": 99, "channel": 0}, {"type": "note_on", "time": 14, "note": 67, "velocity": 105, "channel": 0}, {"type": "note_off", "time": 490, "note": 67, "velocity": 105, "channel": 0}, {"type": "note_on", "time": 1698, "note": 63, "velocity": 118, "channel": 0}, {"type": "note_off", "time": 248, "note": 63, "velocity": 118, "channel": 0}, {"type": "note_on", "time": 316, "note": 63, "velocity": 118, "channel": 0}, {"type": "note_off", "time": 210, "note": 63, "velocity": 118, "channel": 0}, {"type": "note_on", "time": 194, "note": 63, "velocity": 112, "channel": 0}, {"type": "note_off", "time": 307, "note": 63, "velocity": 112, "channel": 0}, {"type": "note_on", "time": 92, "note": 63, "velocity": 117, "channel": 0}, {"type": "note_off", "time": 376, "note": 63, "velocity": 117, "channel": 0}, {"type": "note_on", "time": 8, "note": 60, "velocity": 102, "channel": 0}, {"type": "note_off", "time": 482, "note": 60, "velocity": 102, "channel": 0}, {"type": "note_on", "time": 33, "note": 58, "velocity": 90, "channel": 0}, {"type": "note_off", "time": 667, "note": 58, "velocity": 90, "channel": 0}, {"type": "note_on", "time": 444, "note": 71, "velocity": 106, "channel": 0}, {"type": "note_off", "time": 365, "note": 71, "velocity": 106, "channel": 0}, {"type": "note_on", "time": 141, "note": 71, "velocity": 105, "channel": 0}, {"type": "note_off", "time": 199, "note": 71, "velocity": 105, "channel": 0}, {"type": "note_on", "time": 142, "note": 71, "velocity": 107, "channel": 0}, {"type": "note_off", "time": 225, "note": 71, "velocity": 107, "channel": 0}, {"type": "note_on", "time": 186, "note": 71, "velocity": 102, "channel": 0}, {"type": "note_off", "time": 374, "note": 71, "velocity": 102, "channel": 0}, {"type": "note_on", "time": 56, "note": 69, "velocity": 101, "channel": 0}, {"type": "note_off", "time": 526, "note": 69, "velocity": 101, "channel": 0}, {"type": "note_on", "time": 0, "note": 66, "velocity": 97, "channel": 0}, {"type": "note_off", "time": 498, "note": 66, "velocity": 97, "channel": 0}, {"type": "note_on", "time": 998, "note": 70, "velocity": 113, "channel": 0}, {"type": "note_off", "time": 238, "note": 70, "velocity": 113, "channel": 0}, {"type": "note_on", "time": 88, "note": 67, "velocity": 105, "channel": 0}, {"type": "note_off", "time": 305, "note": 67, "velocity": 105, "channel": 0}, {"type": "note_on", "time": 40, "note": 63, "velocity": 100, "channel": 0}, {"type": "note_off", "time": 253, "note": 63, "velocity": 100, "channel": 0}, {"type": "note_on", "time": 0, "note": 60, "velocity": 80, "channel": 0}, {"type": "note_off", "time": 236, "note": 60, "velocity": 80, "channel": 0}, {"type": "note_on", "time": 94, "note": 68, "velocity": 108, "channel": 0}, {"type": "note_off", "time": 502, "note": 68, "velocity": 108, "channel": 0}, {"type": "note_on", "time": 0, "note": 65, "velocity": 108, "channel": 0}, {"type": "note_off", "time": 321, "note": 65, "velocity": 108, "channel": 0}, {"type": "note_on", "time": 43, "note": 62, "velocity": 104, "channel": 0}, {"type": "note_off", "time": 219, "note": 62, "velocity": 104, "channel": 0}, {"type": "note_on", "time": 287, "note": 58, "velocity": 94, "channel": 0}, {"type": "note_off", "time": 287, "note": 58, "velocity": 94, "channel": 0}, {"type": "note_on", "time": 97, "note": 66, "velocity": 107, "channel": 0}, {"type": "note_off", "time": 258, "note": 66, "velocity": 107, "channel": 0}, {"type": "note_on", "time": 58, "note": 67, "velocity": 107, "channel": 0}, {"type": "note_off", "time": 308, "note": 67, "velocity": 107, "channel": 0}, {"type": "note_on", "time": 96, "note": 68, "velocity": 103, "channel": 0}, {"type": "note_off", "time": 340, "note": 68, "velocity": 103, "channel": 0}, {"type": "note_on", "time": 69, "note": 69, "velocity": 101, "channel": 0}, {"type": "note_off", "time": 366, "note": 69, "velocity": 101, "channel": 0}, {"type": "note_on", "time": 14, "note": 70, "velocity": 100, "channel": 0}, {"type": "note_off", "time": 451, "note": 70, "velocity": 100, "channel": 0}, {"type": "note_on", "time": 26, "note": 67, "velocity": 96, "channel": 0}, {"type": "note_off", "time": 614, "note": 67, "velocity": 96, "channel": 0}, {"type": "note_on", "time": 116, "note": 67, "velocity": 107, "channel": 0}, {"type": "note_off", "time": 470, "note": 67, "velocity": 107, "channel": 0}, {"type": "note_on", "time": 41, "note": 63, "velocity": 112, "channel": 0}, {"type": "note_off", "time": 377, "note": 63, "velocity": 112, "channel": 0}, {"type": "note_on", "time": 99, "note": 58, "velocity": 91, "channel": 0}, {"type": "note_off", "time": 717, "note": 58, "velocity": 91, "channel": 0}, {"type": "note_on", "time": 1222, "note": 58, "velocity": 98, "channel": 0}, {"type": "note_off", "time": 391, "note": 58, "velocity": 98, "channel": 0}, {"type": "note_on", "time": 72, "note": 59, "velocity": 103, "channel": 0}, {"type": "note_off", "time": 324, "note": 59, "velocity": 103, "channel": 0}, {"type": "note_on", "time": 85, "note": 60, "velocity": 104, "channel": 0}, {"type": "note_off", "time": 417, "note": 60, "velocity": 104, "channel": 0}, {"type": "note_on", "time": 70, "note": 68, "velocity": 112, "channel": 0}, {"type": "note_off", "time": 330, "note": 68, "velocity": 112, "channel": 0}, {"type": "note_on", "time": 50, "note": 65, "velocity": 113, "channel": 0}, {"type": "note_off", "time": 287, "note": 65, "velocity": 113, "channel": 0}, {"type": "note_on", "time": 106, "note": 66, "velocity": 120, "channel": 0}, {"type": "note_off", "time": 340, "note": 66, "velocity": 120, "channel": 0}, {"type": "note_on", "time": 146, "note": 67, "velocity": 109, "channel": 0}, {"type": "note_off", "time": 282, "note": 67, "velocity": 109, "channel": 0}, {"type": "note_on", "time": 214, "note": 63, "velocity": 119, "channel": 0}, {"type": "note_off", "time": 248, "note": 63, "velocity": 119, "channel": 0}, {"type": "note_on", "time": 190, "note": 58, "velocity": 88, "channel": 0}, {"type": "note_off", "time": 259, "note": 58, "velocity": 88, "channel": 0}, {"type": "note_on", "time": 223, "note": 58, "velocity": 101, "channel": 0}, {"type": "note_off", "time": 195, "note": 58, "velocity": 101, "channel": 0}, {"type": "note_on", "time": 48, "note": 65, "velocity": 103, "channel": 0}, {"type": "note_off", "time": 346, "note": 65, "velocity": 103, "channel": 0}, {"type": "note_on", "time": 267, "note": 63, "velocity": 100, "channel": 0}, {"type": "note_off", "time": 890, "note": 63, "velocity": 100, "channel": 0}, {"type": "end_of_track", "time": 0}]]}