{"ticks_per_beat": 192, "tracks": [[{"type": "track_name", "name": "Melody", "time": 0}, {"type": "set_tempo", "tempo": 294117, "time": 0}, {"type": "key_signature", "key": "Db", "time": 0}, {"type": "time_signature", "numerator": 4, "denominator": 4, "clocks_per_click": 24, "notated_32nd_notes_per_beat": 8, "time": 0}, {"type": "note_on", "time": 1197, "note": 70, "velocity": 116, "channel": 0}, {"type": "note_off", "time": 200, "note": 70, "velocity": 116, "channel": 0}, {"type": "note_on", "time": 15, "note": 67, "velocity": 111, "channel": 0}, {"type": "note_off", "time": 79, "note": 67, "velocity": 111, "channel": 0}, {"type": "note_on", "time": 18, "note": 63, "velocity": 121, "channel": 0}, {"type": "note_off", "time": 72, "note": 63, "velocity": 121, "channel": 0}, {"type": "note_on", "time": 30, "note": 60, "velocity": 111, "channel": 0}, {"type": "note_off", "time": 83, "note": 60, "velocity": 111, "channel": 0}, {"type": "note_on", "time": 37, "note": 58, "velocity": 90, "channel": 0}, {"type": "note_off", "time": 75, "note": 58, "velocity": 90, "channel": 0}, {"type": "note_on", "time": 3, "note": 64, "velocity": 121, "channel": 0}, {"type": "note_off", "time": 72, "note": 64, "velocity": 121, "channel": 0}, {"type": "note_on", "time": 37, "note": 65, "velocity": 116, "channel": 0}, {"type": "note_off", "time": 98, "note": 65, "velocity": 116, "channel": 0}, {"type": "note_on", "time": 7, "note": 61, "velocity": 120, "channel": 0}, {"type": "note_off", "time": 64, "note": 61, "velocity": 120, "channel": 0}, {"type": "note_on", "time": 60, "note": 58, "velocity": 99, "channel": 0}, {"type": "note_off", "time": 87, "note": 58, "velocity": 99, "channel": 0}, {"type": "note_on", "time": 83, "note": 58, "velocity": 110, "channel": 0}, {"type": "note_off", "time": 90, "note": 58, "velocity": 110, "channel": 0}, {"type": "note_on", "time": 37, "note": 61, "velocity": 119, "channel": 0}, {"type": "note_off", "time": 79, "note": 61, "velocity": 119, "channel": 0}, {"type": "note_on", "time": 30, "note": 65, "velocity": 108, "channel": 0}, {"type": "note_off", "time": 83, "note": 65, "velocity": 108, "channel": 0}, {"type": "note_on", "time": 15, "note": 63, "velocity": 122, "channel": 0}, {"type": "note_off", "time": 106, "note": 63, "velocity": 122, "channel": 0}, {"type": "note_on", "time": 45, "note": 63, "velocity": 118, "channel": 0}, {"type": "note_off", "time": 147, "note": 63, "velocity": 118, "channel": 0}, {"type": "note_on", "time": 574, "note": 61, "velocity": 119, "channel": 0}, {"type": "note_off", "time": 77, "note": 61, "velocity": 119, "channel": 0}, {"type": "note_on", "time": 21, "note": 63, "velocity": 120, "channel": 0}, {"type": "note_off", "time": 79, "note": 63, "velocity": 120, "channel": 0}, {"type": "note_on", "time": 23, "note": 68, "velocity": 116, "channel": 0}, {"type": "note_off", "time": 77, "note": 68, "velocity": 116, "channel": 0}, {"type": "note_on", "time": 45, "note": 63, "velocity": 125, "channel": 0}, {"type": "note_off", "time": 117, "note": 63, "velocity": 125, "channel": 0}, {"type": "note_on", "time": 47, "note": 68, "velocity": 116, "channel": 0}, {"type": "note_off", "time": 103, "note": 68, "velocity": 116, "channel": 0}, {"type": "note_on", "time": 5, "note": 65, "velocity": 112, "channel": 0}, {"type": "note_off", "time": 359, "note": 65, "velocity": 112, "channel": 0}, {"type": "note_on", "time": 607, "note": 61, "velocity": 126, "channel": 0}, {"type": "note_off", "time": 50, "note": 61, "velocity": 126, "channel": 0}, {"type": "note_on", "time": 29, "note": 63, "velocity": 124, "channel": 0}, {"type": "note_off", "time": 98, "note": 63, "velocity": 124, "channel": 0}, {"type": "note_on", "time": 26, "note": 68, "velocity": 117, "channel": 0}, {"type": "note_off", "time": 87, "note": 68, "velocity": 117, "channel": 0}, {"type": "note_on", "time": 0, "note": 66, "velocity": 111, "channel": 0}, {"type": "note_off", "time": 66, "note": 66, "velocity": 111, "channel": 0}, {"type": "note_on", "time": 18, "note": 68, "velocity": 118, "channel": 0}, {"type": "note_off", "time": 82, "note": 68, "velocity": 118, "channel": 0}, {"type": "note_on", "time": 21, "note": 66, "velocity": 109, "channel": 0}, {"type": "note_off", "time": 77, "note": 66, "velocity": 109, "channel": 0}, {"type": "note_on", "time": 29, "note": 68, "velocity": 116, "channel": 0}, {"type": "note_off", "time": 82, "note": 68, "velocity": 116, "channel": 0}, {"type": "note_on", "time": 5, "note": 65, "velocity": 116, "channel": 0}, {"type": "note_off", "time": 181, "note": 65, "velocity": 116, "channel": 0}, {"type": "note_on", "time": 30, "note": 72, "velocity": 116, "channel": 0}, {"type": "note_off", "time": 130, "note": 72, "velocity": 116, "channel": 0}, {"type": "note_on", "time": 52, "note": 67, "velocity": 118, "channel": 0}, {"type": "note_off", "time": 98, "note": 67, "velocity": 118, "channel": 0}, {"type": "note_on", "time": 10, "note": 65, "velocity": 117, "channel": 0}, {"type": "note_off", "time": 71, "note": 65, "velocity": 117, "channel": 0}, {"type": "note_on", "time": 5, "note": 61, "velocity": 125, "channel": 0}, {"type": "note_off", "time": 82, "note": 61, "velocity": 125, "channel": 0}, {"type": "note_on", "time": 9, "note": 58, "velocity": 95, "channel": 0}, {"type": "note_off", "time": 71, "note": 58, "velocity": 95, "channel": 0}, {"type": "note_on", "time": 20, "note": 63, "velocity": 127, "channel": 0}, {"type": "note_off", "time": 133, "note": 63, "velocity": 127, "channel": 0}, {"type": "note_on", "time": 66, "note": 68, "velocity": 118, "channel": 0}, {"type": "note_off", "time": 138, "note": 68, "velocity": 118, "channel": 0}, {"type": "note_on", "time": 55, "note": 66, "velocity": 109, "channel": 0}, {"type": "note_off", "time": 79, "note": 66, "velocity": 109, "channel": 0}, {"type": "note_on", "time": 31, "note": 61, "velocity": 118, "channel": 0}, {"type": "note_off", "time": 85, "note": 61, "velocity": 118, "channel": 0}, {"type": "note_on", "time": 42, "note": 58, "velocity": 105, "channel": 0}, {"type": "note_off", "time": 79, "note": 58, "velocity": 105, "channel": 0}, {"type": "note_on", "time": 93, "note": 63, "velocity": 124, "channel": 0}, {"type": "note_off", "time": 90, "note": 63, "velocity": 124, "channel": 0}, {"type": "note_on", "time": 15, "note": 66, "velocity": 106, "channel": 0}, {"type": "note_off", "time": 74, "note": 66, "velocity": 106, "channel": 0}, {"type": "note_on", "time": 5, "note": 65, "velocity": 111, "channel": 0}, {"type": "note_off", "time": 93, "note": 65, "velocity": 111, "channel": 0}, {"type": "note_on", "time": 26, "note": 68, "velocity": 113, "channel": 0}, {"type": "note_off", "time": 95, "note": 68, "velocity": 113, "channel": 0}, {"type": "note_on", "time": 10, "note": 66, "velocity": 108, "channel": 0}, {"type": "note_off", "time": 58, "note": 66, "velocity": 108, "channel": 0}, {"type": "note_on", "time": 34, "note": 63, "velocity": 122, "channel": 0}, {"type": "note_off", "time": 69, "note": 63, "velocity": 122, "channel": 0}, {"type": "note_on", "time": 10, "note": 61, "velocity": 94, "channel": 0}, {"type": "note_off", "time": 82, "note": 61, "velocity": 94, "channel": 0}, {"type": "note_on", "time": 29, "note": 58, "velocity": 107, "channel": 0}, {"type": "note_off", "time": 58, "note": 58, "velocity": 107, "channel": 0}, {"type": "note_on", "time": 21, "note": 61, "velocity": 119, "channel": 0}, {"type": "note_off", "time": 74, "note": 61, "velocity": 119, "channel": 0}, {"type": "note_on", "time": 15, "note": 65, "velocity": 108, "channel": 0}, {"type": "note_off", "time": 90, "note": 65, "velocity": 108, "channel": 0}, {"type": "note_on", "time": 29, "note": 63, "velocity": 123, "channel": 0}, {"type": "note_off", "time": 66, "note": 63, "velocity": 123, "channel": 0}, {"type": "note_on", "time": 37, "note": 65, "velocity": 110, "channel": 0}, {"type": "note_off", "time": 63, "note": 65, "velocity": 110, "channel": 0}, {"type": "note_on", "time": 26, "note": 66, "velocity": 105, "channel": 0}, {"type": "note_off", "time": 71, "note": 66, "velocity": 105, "channel": 0}, {"type": "note_on", "time": 10, "note": 65, "velocity": 109, "channel": 0}, {"type": "note_off", "time": 61, "note": 65, "velocity": 109, "channel": 0}, {"type": "note_on", "time": 7, "note": 63, "velocity": 120, "channel": 0}, {"type": "note_off", "time": 111, "note": 63, "velocity": 120, "channel": 0}, {"type": "note_on", "time": 487, "note": 61, "velocity": 120, "channel": 0}, {"type": "note_off", "time": 81, "note": 61, "velocity": 120, "channel": 0}, {"type": "note_on", "time": 32, "note": 63, "velocity": 124, "channel": 0}, {"type": "note_off", "time": 72, "note": 63, "velocity": 124, "channel": 0}, {"type": "note_on", "time": 10, "note": 65, "velocity": 110, "channel": 0}, {"type": "note_off", "time": 125, "note": 65, "velocity": 110, "channel": 0}, {"type": "note_on", "time": 8, "note": 70, "velocity": 96, "channel": 0}, {"type": "note_off", "time": 87, "note": 70, "velocity": 96, "channel": 0}, {"type": "note_on", "time": 3, "note": 72, "velocity": 101, "channel": 0}, {"type": "note_off", "time": 187, "note": 72, "velocity": 101, "channel": 0}, {"type": "note_on", "time": 296, "note": 65, "velocity": 99, "channel": 0}, {"type": "note_off", "time": 83, "note": 65, "velocity": 99, "channel": 0}, {"type": "note_on", "time": 28, "note": 70, "velocity": 111, "channel": 0}, {"type": "note_off", "time": 83, "note": 70, "velocity": 111, "channel": 0}, {"type": "note_on", "time": 5, "note": 66, "velocity": 111, "channel": 0}, {"type": "note_off", "time": 54, "note": 66, "velocity": 111, "channel": 0}, {"type": "note_on", "time": 32, "note": 65, "velocity": 115, "channel": 0}, {"type": "note_off", "time": 102, "note": 65, "velocity": 115, "channel": 0}, {"type": "note_on", "time": 24, "note": 65, "velocity": 116, "channel": 0}, {"type": "note_off", "time": 56, "note": 65, "velocity": 116, "channel": 0}, {"type": "note_on", "time": 606, "note": 65, "velocity": 113, "channel": 0}, {"type": "note_off", "time": 34, "note": 65, "velocity": 113, "channel": 0}, {"type": "note_on", "time": 13, "note": 66, "velocity": 109, "channel": 0}, {"type": "note_off", "time": 64, "note": 66, "velocity": 109, "channel": 0}, {"type": "note_on", "time": 11, "note": 65, "velocity": 112, "channel": 0}, {"type": "note_off", "time": 41, "note": 65, "velocity": 112, "channel": 0}, {"type": "note_on", "time": 36, "note": 64, "velocity": 120, "channel": 0}, {"type": "note_off", "time": 89, "note": 64, "velocity": 120, "channel": 0}, {"type": "note_on", "time": 15, "note": 66, "velocity": 111, "channel": 0}, {"type": "note_off", "time": 49, "note": 66, "velocity": 111, "channel": 0}, {"type": "note_on", "time": 34, "note": 68, "velocity": 113, "channel": 0}, {"type": "note_off", "time": 90, "note": 68, "velocity": 113, "channel": 0}, {"type": "note_on", "time": 32, "note": 66, "velocity": 106, "channel": 0}, {"type": "note_off", "time": 47, "note": 66, "velocity": 106, "channel": 0}, {"type": "note_on", "time": 26, "note": 65, "velocity": 109, "channel": 0}, {"type": "note_off", "time": 75, "note": 65, "velocity": 109, "channel": 0}, {"type": "note_on", "time": 22, "note": 63, "velocity": 121, "channel": 0}, {"type": "note_off", "time": 62, "note": 63, "velocity": 121, "channel": 0}, {"type": "note_on", "time": 32, "note": 65, "velocity": 109, "channel": 0}, {"type": "note_off", "time": 244, "note": 65, "velocity": 109, "channel": 0}, {"type": "note_on", "time": 49, "note": 63, "velocity": 120, "channel": 0}, {"type": "note_off", "time": 72, "note": 63, "velocity": 120, "channel": 0}, {"type": "note_on", "time": 24, "note": 61, "velocity": 116, "channel": 0}, {"type": "note_off", "time": 77, "note": 61, "velocity": 116, "channel": 0}, {"type": "note_on", "time": 24, "note": 58, "velocity": 105, "channel": 0}, {"type": "note_off", "time": 49, "note": 58, "velocity": 105, "channel": 0}, {"type": "note_on", "time": 51, "note": 55, "velocity": 101, "channel": 0}, {"type": "note_off", "time": 81, "note": 55, "velocity": 101, "channel": 0}, {"type": "note_on", "time": 123, "note": 60, "velocity": 114, "channel": 0}, {"type": "note_off", "time": 70, "note": 60, "velocity": 114, "channel": 0}, {"type": "note_on", "time": 5, "note": 61, "velocity": 109, "channel": 0}, {"type": "note_off", "time": 49, "note": 61, "velocity": 109, "channel": 0}, {"type": "note_on", "time": 17, "note": 62, "velocity": 115, "channel": 0}, {"type": "note_off", "time": 34, "note": 62, "velocity": 115, "channel": 0}, {"type": "note_on", "time": 17, "note": 63, "velocity": 120, "channel": 0}, {"type": "note_off", "time": 43, "note": 63, "velocity": 120, "channel": 0}, {"type": "note_on", "time": 11, "note": 62, "velocity": 121, "channel": 0}, {"type": "note_off", "time": 41, "note": 62, "velocity": 121, "channel": 0}, {"type": "note_on", "time": 9, "note": 61, "velocity": 118, "channel": 0}, {"type": "note_off", "time": 54, "note": 61, "velocity": 118, "channel": 0}, {"type": "note_on", "time": 26, "note": 60, "velocity": 117, "channel": 0}, {"type": "note_off", "time": 83, "note": 60, "velocity": 117, "channel": 0}, {"type": "note_on", "time": 22, "note": 58, "velocity": 99, "channel": 0}, {"type": "note_off", "time": 51, "note": 58, "velocity": 99, "channel": 0}, {"type": "note_on", "time": 41, "note": 57, "velocity": 101, "channel": 0}, {"type": "note_off", "time": 66, "note": 57, "velocity": 101, "channel": 0}, {"type": "note_on", "time": 24, "note": 60, "velocity": 107, "channel": 0}, {"type": "note_off", "time": 66, "note": 60, "velocity": 107, "channel": 0}, {"type": "note_on", "time": 34, "note": 63, "velocity": 118, "channel": 0}, {"type": "note_off", "time": 68, "note": 63, "velocity": 118, "channel": 0}, {"type": "note_on", "time": 11, "note": 66, "velocity": 108, "channel": 0}, {"type": "note_off", "time": 60, "note": 66, "velocity": 108, "channel": 0}, {"type": "note_on", "time": 41, "note": 63, "velocity": 114, "channel": 0}, {"type": "note_off", "time": 72, "note": 63, "velocity": 114, "channel": 0}, {"type": "note_on", "time": 36, "note": 64, "velocity": 108, "channel": 0}, {"type": "note_off", "time": 73, "note": 64, "velocity": 108, "channel": 0}, {"type": "note_on", "time": 0, "note": 65, "velocity": 108, "channel": 0}, {"type": "note_off", "time": 56, "note": 65, "velocity": 108, "channel": 0}, {"type": "note_on", "time": 7, "note": 64, "velocity": 106, "channel": 0}, {"type": "note_off", "time": 28, "note": 64, "velocity": 106, "channel": 0}, {"type": "note_on", "time": 164, "note": 57, "velocity": 96, "channel": 0}, {"type": "note_off", "time": 51, "note": 57, "velocity": 96, "channel": 0}, {"type": "note_on", "time": 17, "note": 58, "velocity": 96, "channel": 0}, {"type": "note_off", "time": 39, "note": 58, "velocity": 96, "channel": 0}, {"type": "note_on", "time": 24, "note": 60, "velocity": 113, "channel": 0}, {"type": "note_off", "time": 102, "note": 60, "velocity": 113, "channel": 0}, {"type": "note_on", "time": 34, "note": 58, "velocity": 93, "channel": 0}, {"type": "note_off", "time": 331, "note": 58, "velocity": 93, "channel": 0}, {"type": "note_on", "time": 488, "note": 60, "velocity": 117, "channel": 0}, {"type": "note_off", "time": 100, "note": 60, "velocity": 117, "channel": 0}, {"type": "note_on", "time": 15, "note": 58, "velocity": 102, "channel": 0}, {"type": "note_off", "time": 60, "note": 58, "velocity": 102, "channel": 0}, {"type": "note_on", "time": 9, "note": 56, "velocity": 110, "channel": 0}, {"type": "note_off", "time": 89, "note": 56, "velocity": 110, "channel": 0}, {"type": "note_on", "time": 26, "note": 58, "velocity": 109, "channel": 0}, {"type": "note_off", "time": 77, "note": 58, "velocity": 109, "channel": 0}, {"type": "note_on", "time": 3, "note": 60, "velocity": 108, "channel": 0}, {"type": "note_off", "time": 106, "note": 60, "velocity": 108, "channel": 0}, {"type": "note_on", "time": 1, "note": 63, "velocity": 125, "channel": 0}, {"type": "note_off", "time": 85, "note": 63, "velocity": 125, "channel": 0}, {"type": "note_on", "time": 13, "note": 67, "velocity": 119, "channel": 0}, {"type": "note_off", "time": 87, "note": 67, "velocity": 119, "channel": 0}, {"type": "note_on", "time": 9, "note": 68, "velocity": 121, "channel": 0}, {"type": "note_off", "time": 77, "note": 68, "velocity": 121, "channel": 0}, {"type": "note_on", "time": 13, "note": 67, "velocity": 118, "channel": 0}, {"type": "note_off", "time": 87, "note": 67, "velocity": 118, "channel": 0}, {"type": "note_on", "time": 20, "note": 65, "velocity": 114, "channel": 0}, {"type": "note_off", "time": 70, "note": 65, "velocity": 114, "channel": 0}, {"type": "note_on", "time": 34, "note": 63, "velocity": 117, "channel": 0}, {"type": "note_off", "time": 81, "note": 63, "velocity": 117, "channel": 0}, {"type": "note_on", "time": 13, "note": 60, "velocity": 115, "channel": 0}, {"type": "note_off", "time": 73, "note": 60, "velocity": 115, "channel": 0}, {"type": "note_on", "time": 34, "note": 56, "velocity": 102, "channel": 0}, {"type": "note_off", "time": 90, "note": 56, "velocity": 102, "channel": 0}, {"type": "note_on", "time": 11, "note": 54, "velocity": 110, "channel": 0}, {"type": "note_off", "time": 54, "note": 54, "velocity": 110, "channel": 0}, {"type": "note_on", "time": 17, "note": 64, "velocity": 120, "channel": 0}, {"type": "note_off", "time": 115, "note": 64, "velocity": 120, "channel": 0}, {"type": "note_on", "time": 7, "note": 66, "velocity": 108, "channel": 0}, {"type": "note_off", "time": 54, "note": 66, "velocity": 108, "channel": 0}, {"type": "note_on", "time": 20, "note": 64, "velocity": 118, "channel": 0}, {"type": "note_off", "time": 104, "note": 64, "velocity": 118, "channel": 0}, {"type": "note_on", "time": 15, "note": 62, "velocity": 120, "channel": 0}, {"type": "note_off", "time": 73, "note": 62, "velocity": 120, "channel": 0}, {"type": "note_on", "time": 15, "note": 61, "velocity": 111, "channel": 0}, {"type": "note_off", "time": 106, "note": 61, "velocity": 111, "channel": 0}, {"type": "note_on", "time": 15, "note": 59, "velocity": 102, "channel": 0}, {"type": "note_off", "time": 79, "note": 59, "velocity": 102, "channel": 0}, {"type": "note_on", "time": 24, "note": 55, "velocity": 98, "channel": 0}, {"type": "note_off", "time": 89, "note": 55, "velocity": 98, "channel": 0}, {"type": "note_on", "time": 68, "note": 63, "velocity": 120, "channel": 0}, {"type": "note_off", "time": 77, "note": 63, "velocity": 120, "channel": 0}, {"type": "note_on", "time": 26, "note": 65, "velocity": 108, "channel": 0}, {"type": "note_off", "time": 83, "note": 65, "velocity": 108, "channel": 0}, {"type": "note_on", "time": 13, "note": 63, "velocity": 119, "channel": 0}, {"type": "note_off", "time": 87, "note": 63, "velocity": 119, "channel": 0}, {"type": "note_on", "time": 17, "note": 61, "velocity": 113, "channel": 0}, {"type": "note_off", "time": 83, "note": 61, "velocity": 113, "channel": 0}, {"type": "note_on", "time": 28, "note": 60, "velocity": 110, "channel": 0}, {"type": "note_off", "time": 83, "note": 60, "velocity": 110, "channel": 0}, {"type": "note_on", "time": 18, "note": 58, "velocity": 104, "channel": 0}, {"type": "note_off", "time": 62, "note": 58, "velocity": 104, "channel": 0}, {"type": "note_on", "time": 22, "note": 56, "velocity": 103, "channel": 0}, {"type": "note_off", "time": 81, "note": 56, "velocity": 103, "channel": 0}, {"type": "note_on", "time": 22, "note": 54, "velocity": 103, "channel": 0}, {"type": "note_off", "time": 68, "note": 54, "velocity": 103, "channel": 0}, {"type": "note_on", "time": 37, "note": 53, "velocity": 107, "channel": 0}, {"type": "note_off", "time": 92, "note": 53, "velocity": 107, "channel": 0}, {"type": "note_on", "time": 89, "note": 56, "velocity": 103, "channel": 0}, {"type": "note_off", "time": 64, "note": 56, "velocity": 103, "channel": 0}, {"type": "note_on", "time": 22, "note": 60, "velocity": 107, "channel": 0}, {"type": "note_off", "time": 60, "note": 60, "velocity": 107, "channel": 0}, {"type": "note_on", "time": 39, "note": 63, "velocity": 123, "channel": 0}, {"type": "note_off", "time": 104, "note": 63, "velocity": 123, "channel": 0}, {"type": "note_on", "time": 53, "note": 63, "velocity": 111, "channel": 0}, {"type": "note_off", "time": 128, "note": 63, "velocity": 111, "channel": 0}, {"type": "note_on", "time": 24, "note": 60, "velocity": 102, "channel": 0}, {"type": "note_off", "time": 64, "note": 60, "velocity": 102, "channel": 0}, {"type": "note_on", "time": 13, "note": 62, "velocity": 115, "channel": 0}, {"type": "note_off", "time": 151, "note": 62, "velocity": 115, "channel": 0}, {"type": "note_on", "time": 5, "note": 70, "velocity": 109, "channel": 0}, {"type": "note_off", "time": 111, "note": 70, "velocity": 109, "channel": 0}, {"type": "note_on", "time": 697, "note": 63, "velocity": 118, "channel": 0}, {"type": "note_off", "time": 77, "note": 63, "velocity": 118, "channel": 0}, {"type": "note_on", "time": 22, "note": 64, "velocity": 119, "channel": 0}, {"type": "note_off", "time": 47, "note": 64, "velocity": 119, "channel": 0}, {"type": "note_on", "time": 1, "note": 65, "velocity": 109, "channel": 0}, {"type": "note_off", "time": 41, "note": 65, "velocity": 109, "channel": 0}, {"type": "note_on", "time": 0, "note": 66, "velocity": 108, "channel": 0}, {"type": "note_off", "time": 54, "note": 66, "velocity": 108, "channel": 0}, {"type": "note_on", "time": 11, "note": 65, "velocity": 109, "channel": 0}, {"type": "note_off", "time": 49, "note": 65, "velocity": 109, "channel": 0}, {"type": "note_on", "time": 1, "note": 64, "velocity": 118, "channel": 0}, {"type": "note_off", "time": 73, "note": 64, "velocity": 118, "channel": 0}, {"type": "note_on", "time": 7, "note": 63, "velocity": 120, "channel": 0}, {"type": "note_off", "time": 70, "note": 63, "velocity": 120, "channel": 0}, {"type": "note_on", "time": 47, "note": 61, "velocity": 113, "channel": 0}, {"type": "note_off", "time": 75, "note": 61, "velocity": 113, "channel": 0}, {"type": "note_on", "time": 18, "note": 60, "velocity": 111, "channel": 0}, {"type": "note_off", "time": 90, "note": 60, "velocity": 111, "channel": 0}, {"type": "note_on", "time": 5, "note": 58, "velocity": 101, "channel": 0}, {"type": "note_off", "time": 83, "note": 58, "velocity": 101, "channel": 0}, {"type": "note_on", "time": 7, "note": 57, "velocity": 100, "channel": 0}, {"type": "note_off", "time": 90, "note": 57, "velocity": 100, "channel": 0}, {"type": "note_on", "time": 5, "note": 60, "velocity": 106, "channel": 0}, {"type": "note_off", "time": 68, "note": 60, "velocity": 106, "channel": 0}, {"type": "note_on", "time": 7, "note": 63, "velocity": 118, "channel": 0}, {"type": "note_off", "time": 79, "note": 63, "velocity": 118, "channel": 0}, {"type": "note_on", "time": 13, "note": 66, "velocity": 111, "channel": 0}, {"type": "note_off", "time": 83, "note": 66, "velocity": 111, "channel": 0}, {"type": "note_on", "time": 7, "note": 63, "velocity": 119, "channel": 0}, {"type": "note_off", "time": 75, "note": 63, "velocity": 119, "channel": 0}, {"type": "note_on", "time": 11, "note": 64, "velocity": 112, "channel": 0}, {"type": "note_off", "time": 87, "note": 64, "velocity": 112, "channel": 0}, {"type": "note_on", "time": 11, "note": 65, "velocity": 113, "channel": 0}, {"type": "note_off", "time": 108, "note": 65, "velocity": 113, "channel": 0}, {"type": "note_on", "time": 87, "note": 71, "velocity": 102, "channel": 0}, {"type": "note_off", "time": 47, "note": 71, "velocity": 102, "channel": 0}, {"type": "note_on", "time": 7, "note": 72, "velocity": 102, "channel": 0}, {"type": "note_off", "time": 87, "note": 72, "velocity": 102, "channel": 0}, {"type": "note_on", "time": 60, "note": 70, "velocity": 105, "channel": 0}, {"type": "note_off", "time": 60, "note": 70, "velocity": 105, "channel": 0}, {"type": "note_on", "time": 43, "note": 67, "velocity": 109, "channel": 0}, {"type": "note_off", "time": 53, "note": 67, "velocity": 109, "channel": 0}, {"type": "note_on", "time": 15, "note": 65, "velocity": 108, "channel": 0}, {"type": "note_off", "time": 90, "note": 65, "velocity": 108, "channel": 0}, {"type": "note_on", "time": 26, "note": 63, "velocity": 116, "channel": 0}, {"type": "note_off", "time": 72, "note": 63, "velocity": 116, "channel": 0}, {"type": "note_on", "time": 37, "note": 61, "velocity": 109, "channel": 0}, {"type": "note_off", "time": 121, "note": 61, "velocity": 109, "channel": 0}, {"type": "note_on", "time": 7, "note": 62, "velocity": 109, "channel": 0}, {"type": "note_off", "time": 47, "note": 62, "velocity": 109, "channel": 0}, {"type": "note_on", "time": 15, "note": 61, "velocity": 94, "channel": 0}, {"type": "note_off", "time": 157, "note": 61, "velocity": 94, "channel": 0}, {"type": "note_on", "time": 36, "note": 60, "velocity": 112, "channel": 0}, {"type": "note_off", "time": 109, "note": 60, "velocity": 112, "channel": 0}, {"type": "note_on", "time": 0, "note": 61, "velocity": 110, "channel": 0}, {"type": "note_off", "time": 73, "note": 61, "velocity": 110, "channel": 0}, {"type": "note_on", "time": 13, "note": 60, "velocity": 114, "channel": 0}, {"type": "note_off", "time": 87, "note": 60, "velocity": 114, "channel": 0}, {"type": "note_on", "time": 22, "note": 58, "velocity": 111, "channel": 0}, {"type": "note_off", "time": 87, "note": 58, "velocity": 111, "channel": 0}, {"type": "note_on", "time": 5, "note": 57, "velocity": 106, "channel": 0}, {"type": "note_off", "time": 73, "note": 57, "velocity": 106, "channel": 0}, {"type": "note_on", "time": 47, "note": 53, "velocity": 106, "channel": 0}, {"type": "note_off", "time": 341, "note": 53, "velocity": 106, "channel": 0}, {"type": "note_on", "time": 348, "note": 50, "velocity": 110, "channel": 0}, {"type": "note_off", "time": 90, "note": 50, "velocity": 110, "channel": 0}, {"type": "note_on", "time": 3, "note": 51, "velocity": 109, "channel": 0}, {"type": "note_off", "time": 70, "note": 51, "velocity": 109, "channel": 0}, {"type": "note_on", "time": 22, "note": 54, "velocity": 117, "channel": 0}, {"type": "note_off", "time": 68, "note": 54, "velocity": 117, "channel": 0}, {"type": "note_on", "time": 1, "note": 57, "velocity": 115, "channel": 0}, {"type": "note_off", "time": 72, "note": 57, "velocity": 115, "channel": 0}, {"type": "note_on", "time": 0, "note": 61, "velocity": 119, "channel": 0}, {"type": "note_off", "time": 147, "note": 61, "velocity": 119, "channel": 0}, {"type": "note_on", "time": 36, "note": 57, "velocity": 97, "channel": 0}, {"type": "note_off", "time": 90, "note": 57, "velocity": 97, "channel": 0}, {"type": "note_on", "time": 37, "note": 60, "velocity": 118, "channel": 0}, {"type": "note_off", "time": 553, "note": 60, "velocity": 118, "channel": 0}, {"type": "note_on", "time": 384, "note": 57, "velocity": 108, "channel": 0}, {"type": "note_off", "time": 75, "note": 57, "velocity": 108, "channel": 0}, {"type": "note_on", "time": 9, "note": 58, "velocity": 111, "channel": 0}, {"type": "note_off", "time": 60, "note": 58, "velocity": 111, "channel": 0}, {"type": "note_on", "time": 1, "note": 61, "velocity": 115, "channel": 0}, {"type": "note_off", "time": 47, "note": 61, "velocity": 115, "channel": 0}, {"type": "note_on", "time": 0, "note": 65, "velocity": 115, "channel": 0}, {"type": "note_off", "time": 83, "note": 65, "velocity": 115, "channel": 0}, {"type": "note_on", "time": 43, "note": 71, "velocity": 111, "channel": 0}, {"type": "note_off", "time": 72, "note": 71, "velocity": 111, "channel": 0}, {"type": "note_on", "time": 3, "note": 72, "velocity": 114, "channel": 0}, {"type": "note_off", "time": 96, "note": 72, "velocity": 114, "channel": 0}, {"type": "note_on", "time": 7, "note": 70, "velocity": 104, "channel": 0}, {"type": "note_off", "time": 106, "note": 70, "velocity": 104, "channel": 0}, {"type": "note_on", "time": 15, "note": 63, "velocity": 119, "channel": 0}, {"type": "note_off", "time": 333, "note": 63, "velocity": 119, "channel": 0}, {"type": "note_on", "time": 100, "note": 64, "velocity": 111, "channel": 0}, {"type": "note_off", "time": 62, "note": 64, "velocity": 111, "channel": 0}, {"type": "note_on", "time": 0, "note": 65, "velocity": 112, "channel": 0}, {"type": "note_off", "time": 210, "note": 65, "velocity": 112, "channel": 0}, {"type": "note_on", "time": 41, "note": 61, "velocity": 111, "channel": 0}, {"type": "note_off", "time": 70, "note": 61, "velocity": 111, "channel": 0}, {"type": "note_on", "time": 34, "note": 60, "velocity": 110, "channel": 0}, {"type": "note_off", "time": 106, "note": 60, "velocity": 110, "channel": 0}, {"type": "note_on", "time": 13, "note": 58, "velocity": 96, "channel": 0}, {"type": "note_off", "time": 252, "note": 58, "velocity": 96, "channel": 0}, {"type": "note_on", "time": 473, "note": 58, "velocity": 99, "channel": 0}, {"type": "note_off", "time": 51, "note": 58, "velocity": 99, "channel": 0}, {"type": "note_on", "time": 34, "note": 61, "velocity": 111, "channel": 0}, {"type": "note_off", "time": 70, "note": 61, "velocity": 111, "channel": 0}, {"type": "note_on", "time": 22, "note": 65, "velocity": 105, "channel": 0}, {"type": "note_off", "time": 68, "note": 65, "velocity": 105, "channel": 0}, {"type": "note_on", "time": 20, "note": 70, "velocity": 116, "channel": 0}, {"type": "note_off", "time": 113, "note": 70, "velocity": 116, "channel": 0}, {"type": "note_on", "time": 9, "note": 67, "velocity": 114, "channel": 0}, {"type": "note_off", "time": 236, "note": 67, "velocity": 114, "channel": 0}, {"type": "note_on", "time": 140, "note": 58, "velocity": 95, "channel": 0}, {"type": "note_off", "time": 53, "note": 58, "velocity": 95, "channel": 0}, {"type": "note_on", "time": 66, "note": 61, "velocity": 99, "channel": 0}, {"type": "note_off", "time": 53, "note": 61, "velocity": 99, "channel": 0}, {"type": "note_on", "time": 28, "note": 63, "velocity": 107, "channel": 0}, {"type": "note_off", "time": 53, "note": 63, "velocity": 107, "channel": 0}, {"type": "note_on", "time": 49, "note": 73, "velocity": 110, "channel": 0}, {"type": "note_off", "time": 109, "note": 73, "velocity": 110, "channel": 0}, {"type": "note_on", "time": 28, "note": 68, "velocity": 116, "channel": 0}, {"type": "note_off", "time": 191, "note": 68, "velocity": 116, "channel": 0}, {"type": "note_on", "time": 378, "note": 61, "velocity": 101, "channel": 0}, {"type": "note_off", "time": 36, "note": 61, "velocity": 101, "channel": 0}, {"type": "note_on", "time": 66, "note": 72, "velocity": 108, "channel": 0}, {"type": "note_off", "time": 109, "note": 72, "velocity": 108, "channel": 0}, {"type": "note_on", "time": 13, "note": 67, "velocity": 117, "channel": 0}, {"type": "note_off", "time": 233, "note": 67, "velocity": 117, "channel": 0}, {"type": "note_on", "time": 79, "note": 62, "velocity": 118, "channel": 0}, {"type": "note_off", "time": 90, "note": 62, "velocity": 118, "channel": 0}, {"type": "note_on", "time": 5, "note": 63, "velocity": 119, "channel": 0}, {"type": "note_off", "time": 108, "note": 63, "velocity": 119, "channel": 0}, {"type": "note_on", "time": 0, "note": 73, "velocity": 105, "channel": 0}, {"type": "note_off", "time": 92, "note": 73, "velocity": 105, "channel": 0}, {"type": "note_on", "time": 37, "note": 68, "velocity": 115, "channel": 0}, {"type": "note_off", "time": 102, "note": 68, "velocity": 115, "channel": 0}, {"type": "note_on", "time": 3, "note": 66, "velocity": 110, "channel": 0}, {"type": "note_off", "time": 172, "note": 66, "velocity": 110, "channel": 0}, {"type": "note_on", "time": 399, "note": 60, "velocity": 118, "channel": 0}, {"type": "note_off", "time": 92, "note": 60, "velocity": 118, "channel": 0}, {"type": "note_on", "time": 0, "note": 61, "velocity": 112, "channel": 0}, {"type": "note_off", "time": 96, "note": 61, "velocity": 112, "channel": 0}, {"type": "note_on", "time": 0, "note": 72, "velocity": 105, "channel": 0}, {"type": "note_off", "time": 89, "note": 72, "velocity": 105, "channel": 0}, {"type": "note_on", "time": 22, "note": 67, "velocity": 113, "channel": 0}, {"type": "note_off", "time": 125, "note": 67, "velocity": 113, "channel": 0}, {"type": "note_on", "time": 162, "note": 62, "velocity": 121, "channel": 0}, {"type": "note_off", "time": 96, "note": 62, "velocity": 121, "channel": 0}, {"type": "note_on", "time": 13, "note": 63, "velocity": 120, "channel": 0}, {"type": "note_off", "time": 66, "note": 63, "velocity": 120, "channel": 0}, {"type": "note_on", "time": 30, "note": 73, "velocity": 102, "channel": 0}, {"type": "note_off", "time": 75, "note": 73, "velocity": 102, "channel": 0}, {"type": "note_on", "time": 30, "note": 68, "velocity": 111, "channel": 0}, {"type": "note_off", "time": 81, "note": 68, "velocity": 111, "channel": 0}, {"type": "note_on", "time": 18, "note": 66, "velocity": 109, "channel": 0}, {"type": "note_off", "time": 87, "note": 66, "velocity": 109, "channel": 0}, {"type": "note_on", "time": 1, "note": 62, "velocity": 115, "channel": 0}, {"type": "note_off", "time": 96, "note": 62, "velocity": 115, "channel": 0}, {"type": "note_on", "time": 234, "note": 69, "velocity": 106, "channel": 0}, {"type": "note_off", "time": 68, "note": 69, "velocity": 106, "channel": 0}, {"type": "note_on", "time": 20, "note": 70, "velocity": 99, "channel": 0}, {"type": "note_off", "time": 49, "note": 70, "velocity": 99, "channel": 0}, {"type": "note_on", "time": 0, "note": 69, "velocity": 99, "channel": 0}, {"type": "note_off", "time": 56, "note": 69, "velocity": 99, "channel": 0}, {"type": "note_on", "time": 1, "note": 66, "velocity": 103, "channel": 0}, {"type": "note_off", "time": 92, "note": 66, "velocity": 103, "channel": 0}, {"type": "note_on", "time": 0, "note": 65, "velocity": 110, "channel": 0}, {"type": "note_off", "time": 94, "note": 65, "velocity": 110, "channel": 0}, {"type": "note_on", "time": 13, "note": 63, "velocity": 119, "channel": 0}, {"type": "note_off", "time": 100, "note": 63, "velocity": 119, "channel": 0}, {"type": "note_on", "time": 0, "note": 61, "velocity": 111, "channel": 0}, {"type": "note_off", "time": 68, "note": 61, "velocity": 111, "channel": 0}, {"type": "note_on", "time": 1, "note": 65, "velocity": 111, "channel": 0}, {"type": "note_off", "time": 281, "note": 65, "velocity": 111, "channel": 0}, {"type": "note_on", "time": 6, "note": 63, "velocity": 118, "channel": 0}, {"type": "note_off", "time": 104, "note": 63, "velocity": 118, "channel": 0}, {"type": "note_on", "time": 20, "note": 61, "velocity": 115, "channel": 0}, {"type": "note_off", "time": 102, "note": 61, "velocity": 115, "channel": 0}, {"type": "note_on", "time": 0, "note": 60, "velocity": 111, "channel": 0}, {"type": "note_off", "time": 94, "note": 60, "velocity": 111, "channel": 0}, {"type": "note_on", "time": 9, "note": 58, "velocity": 104, "channel": 0}, {"type": "note_off", "time": 92, "note": 58, "velocity": 104, "channel": 0}, {"type": "note_on", "time": 5, "note": 56, "velocity": 104, "channel": 0}, {"type": "note_off", "time": 43, "note": 56, "velocity": 104, "channel": 0}, {"type": "note_on", "time": 32, "note": 57, "velocity": 105, "channel": 0}, {"type": "note_off", "time": 108, "note": 57, "velocity": 105, "channel": 0}, {"type": "note_on", "time": 5, "note": 53, "velocity": 106, "channel": 0}, {"type": "note_off", "time": 301, "note": 53, "velocity": 106, "channel": 0}, {"type": "note_on", "time": 418, "note": 53, "velocity": 110, "channel": 0}, {"type": "note_off", "time": 79, "note": 53, "velocity": 110, "channel": 0}, {"type": "note_on", "time": 1, "note": 54, "velocity": 102, "channel": 0}, {"type": "note_off", "time": 108, "note": 54, "velocity": 102, "channel": 0}, {"type": "note_on", "time": 28, "note": 65, "velocity": 109, "channel": 0}, {"type": "note_off", "time": 239, "note": 65, "velocity": 109, "channel": 0}, {"type": "note_on", "time": 19, "note": 63, "velocity": 122, "channel": 0}, {"type": "note_off", "time": 106, "note": 63, "velocity": 122, "channel": 0}, {"type": "note_on", "time": 5, "note": 60, "velocity": 106, "channel": 0}, {"type": "note_off", "time": 90, "note": 60, "velocity": 106, "channel": 0}, {"type": "note_on", "time": 3, "note": 61, "velocity": 111, "channel": 0}, {"type": "note_off", "time": 96, "note": 61, "velocity": 111, "channel": 0}, {"type": "note_on", "time": 3, "note": 63, "velocity": 121, "channel": 0}, {"type": "note_off", "time": 94, "note": 63, "velocity": 121, "channel": 0}, {"type": "note_on", "time": 11, "note": 65, "velocity": 112, "channel": 0}, {"type": "note_off", "time": 83, "note": 65, "velocity": 112, "channel": 0}, {"type": "note_on", "time": 0, "note": 67, "velocity": 109, "channel": 0}, {"type": "note_off", "time": 89, "note": 67, "velocity": 109, "channel": 0}, {"type": "note_on", "time": 11, "note": 72, "velocity": 98, "channel": 0}, {"type": "note_off", "time": 92, "note": 72, "velocity": 98, "channel": 0}, {"type": "note_on", "time": 9, "note": 70, "velocity": 107, "channel": 0}, {"type": "note_off", "time": 77, "note": 70, "velocity": 107, "channel": 0}, {"type": "note_on", "time": 18, "note": 67, "velocity": 107, "channel": 0}, {"type": "note_off", "time": 94, "note": 67, "velocity": 107, "channel": 0}, {"type": "note_on", "time": 36, "note": 65, "velocity": 103, "channel": 0}, {"type": "note_off", "time": 73, "note": 65, "velocity": 103, "channel": 0}, {"type": "note_on", "time": 18, "note": 68, "velocity": 110, "channel": 0}, {"type": "note_off", "time": 77, "note": 68, "velocity": 110, "channel": 0}, {"type": "note_on", "time": 15, "note": 67, "velocity": 106, "channel": 0}, {"type": "note_off", "time": 89, "note": 67, "velocity": 106, "channel": 0}, {"type": "note_on", "time": 9, "note": 66, "velocity": 111, "channel": 0}, {"type": "note_off", "time": 64, "note": 66, "velocity": 111, "channel": 0}, {"type": "note_on", "time": 9, "note": 70, "velocity": 102, "channel": 0}, {"type": "note_off", "time": 75, "note": 70, "velocity": 102, "channel": 0}, {"type": "note_on", "time": 18, "note": 63, "velocity": 118, "channel": 0}, {"type": "note_off", "time": 56, "note": 63, "velocity": 118, "channel": 0}, {"type": "note_on", "time": 0, "note": 64, "velocity": 121, "channel": 0}, {"type": "note_off", "time": 15, "note": 64, "velocity": 121, "channel": 0}, {"type": "note_on", "time": 9, "note": 65, "velocity": 114, "channel": 0}, {"type": "note_off", "time": 108, "note": 65, "velocity": 114, "channel": 0}, {"type": "note_on", "time": 7, "note": 63, "velocity": 122, "channel": 0}, {"type": "note_off", "time": 111, "note": 63, "velocity": 122, "channel": 0}, {"type": "note_on", "time": 5, "note": 61, "velocity": 112, "channel": 0}, {"type": "note_off", "time": 253, "note": 61, "velocity": 112, "channel": 0}, {"type": "note_on", "time": 636, "note": 60, "velocity": 117, "channel": 0}, {"type": "note_off", "time": 37, "note": 60, "velocity": 117, "channel": 0}, {"type": "note_on", "time": 0, "note": 61, "velocity": 116, "channel": 0}, {"type": "note_off", "time": 77, "note": 61, "velocity": 116, "channel": 0}, {"type": "note_on", "time": 0, "note": 63, "velocity": 122, "channel": 0}, {"type": "note_on", "time": 43, "note": 66, "velocity": 111, "channel": 0}, {"type": "note_off", "time": 0, "note": 63, "velocity": 122, "channel": 0}, {"type": "note_off", "time": 58, "note": 66, "velocity": 111, "channel": 0}, {"type": "note_on", "time": 15, "note": 69, "velocity": 115, "channel": 0}, {"type": "note_off", "time": 53, "note": 69, "velocity": 115, "channel": 0}, {"type": "note_on", "time": 1, "note": 70, "velocity": 114, "channel": 0}, {"type": "note_off", "time": 34, "note": 70, "velocity": 114, "channel": 0}, {"type": "note_on", "time": 39, "note": 64, "velocity": 112, "channel": 0}, {"type": "note_off", "time": 41, "note": 64, "velocity": 112, "channel": 0}, {"type": "note_on", "time": 9, "note": 65, "velocity": 114, "channel": 0}, {"type": "note_off", "time": 155, "note": 65, "velocity": 114, "channel": 0}, {"type": "note_on", "time": 17, "note": 63, "velocity": 123, "channel": 0}, {"type": "note_off", "time": 104, "note": 63, "velocity": 123, "channel": 0}, {"type": "note_on", "time": 5, "note": 61, "velocity": 113, "channel": 0}, {"type": "note_off", "time": 181, "note": 61, "velocity": 113, "channel": 0}, {"type": "note_on", "time": 26, "note": 63, "velocity": 9, "channel": 0}, {"type": "note_off", "time": 18, "note": 63, "velocity": 9, "channel": 0}, {"type": "note_on", "time": 1, "note": 65, "velocity": 73, "channel": 0}, {"type": "note_off", "time": 26, "note": 65, "velocity": 73, "channel": 0}, {"type": "note_on", "time": 9, "note": 67, "velocity": 93, "channel": 0}, {"type": "note_off", "time": 45, "note": 67, "velocity": 93, "channel": 0}, {"type": "note_on", "time": 5, "note": 72, "velocity": 107, "channel": 0}, {"type": "note_off", "time": 26, "note": 72, "velocity": 107, "channel": 0}, {"type": "note_on", "time": 9, "note": 70, "velocity": 108, "channel": 0}, {"type": "note_off", "time": 132, "note": 70, "velocity": 108, "channel": 0}, {"type": "note_on", "time": 53, "note": 72, "velocity": 98, "channel": 0}, {"type": "note_off", "time": 75, "note": 72, "velocity": 98, "channel": 0}, {"type": "note_on", "time": 41, "note": 65, "velocity": 106, "channel": 0}, {"type": "note_off", "time": 225, "note": 65, "velocity": 106, "channel": 0}, {"type": "note_on", "time": 462, "note": 65, "velocity": 109, "channel": 0}, {"type": "note_off", "time": 73, "note": 65, "velocity": 109, "channel": 0}, {"type": "note_on", "time": 18, "note": 67, "velocity": 108, "channel": 0}, {"type": "note_off", "time": 73, "note": 67, "velocity": 108, "channel": 0}, {"type": "note_on", "time": 1, "note": 68, "velocity": 115, "channel": 0}, {"type": "note_off", "time": 94, "note": 68, "velocity": 115, "channel": 0}, {"type": "note_on", "time": 9, "note": 69, "velocity": 103, "channel": 0}, {"type": "note_off", "time": 37, "note": 69, "velocity": 103, "channel": 0}, {"type": "note_on", "time": 0, "note": 68, "velocity": 113, "channel": 0}, {"type": "note_off", "time": 47, "note": 68, "velocity": 113, "channel": 0}, {"type": "note_on", "time": 7, "note": 67, "velocity": 112, "channel": 0}, {"type": "note_off", "time": 83, "note": 67, "velocity": 112, "channel": 0}, {"type": "note_on", "time": 24, "note": 65, "velocity": 106, "channel": 0}, {"type": "note_off", "time": 70, "note": 65, "velocity": 106, "channel": 0}, {"type": "note_on", "time": 26, "note": 70, "velocity": 115, "channel": 0}, {"type": "note_off", "time": 90, "note": 70, "velocity": 115, "channel": 0}, {"type": "note_on", "time": 276, "note": 68, "velocity": 109, "channel": 0}, {"type": "note_off", "time": 109, "note": 68, "velocity": 109, "channel": 0}, {"type": "note_on", "time": 3, "note": 69, "velocity": 103, "channel": 0}, {"type": "note_off", "time": 34, "note": 69, "velocity": 103, "channel": 0}, {"type": "note_on", "time": 0, "note": 68, "velocity": 113, "channel": 0}, {"type": "note_off", "time": 51, "note": 68, "velocity": 113, "channel": 0}, {"type": "note_on", "time": 3, "note": 67, "velocity": 117, "channel": 0}, {"type": "note_off", "time": 108, "note": 67, "velocity": 117, "channel": 0}, {"type": "note_on", "time": 26, "note": 65, "velocity": 101, "channel": 0}, {"type": "note_off", "time": 56, "note": 65, "velocity": 101, "channel": 0}, {"type": "note_on", "time": 22, "note": 70, "velocity": 114, "channel": 0}, {"type": "note_off", "time": 87, "note": 70, "velocity": 114, "channel": 0}, {"type": "note_on", "time": 7, "note": 63, "velocity": 117, "channel": 0}, {"type": "note_off", "time": 51, "note": 63, "velocity": 117, "channel": 0}, {"type": "note_on", "time": 0, "note": 64, "velocity": 119, "channel": 0}, {"type": "note_off", "time": 45, "note": 64, "velocity": 119, "channel": 0}, {"type": "note_on", "time": 0, "note": 65, "velocity": 111, "channel": 0}, {"type": "note_off", "time": 178, "note": 65, "velocity": 111, "channel": 0}, {"type": "note_on", "time": 17, "note": 64, "velocity": 115, "channel": 0}, {"type": "note_off", "time": 98, "note": 64, "velocity": 115, "channel": 0}, {"type": "note_on", "time": 72, "note": 64, "velocity": 111, "channel": 0}, {"type": "note_off", "time": 98, "note": 64, "velocity": 111, "channel": 0}, {"type": "note_on", "time": 20, "note": 66, "velocity": 107, "channel": 0}, {"type": "note_off", "time": 75, "note": 66, "velocity": 107, "channel": 0}, {"type": "note_on", "time": 41, "note": 66, "velocity": 92, "channel": 0}, {"type": "note_off", "time": 253, "note": 66, "velocity": 92, "channel": 0}, {"type": "note_on", "time": 151, "note": 63, "velocity": 111, "channel": 0}, {"type": "note_off", "time": 94, "note": 63, "velocity": 111, "channel": 0}, {"type": "note_on", "time": 49, "note": 63, "velocity": 116, "channel": 0}, {"type": "note_off", "time": 96, "note": 63, "velocity": 116, "channel": 0}, {"type": "note_on", "time": 5, "note": 65, "velocity": 103, "channel": 0}, {"type": "note_off", "time": 100, "note": 65, "velocity": 103, "channel": 0}, {"type": "note_on", "time": 34, "note": 66, "velocity": 109, "channel": 0}, {"type": "note_off", "time": 85, "note": 66, "velocity": 109, "channel": 0}, {"type": "note_on", "time": 15, "note": 68, "velocity": 107, "channel": 0}, {"type": "note_off", "time": 94, "note": 68, "velocity": 107, "channel": 0}, {"type": "note_on", "time": 24, "note": 63, "velocity": 114, "channel": 0}, {"type": "note_off", "time": 53, "note": 63, "velocity": 114, "channel": 0}, {"type": "note_on", "time": 7, "note": 65, "velocity": 108, "channel": 0}, {"type": "note_off", "time": 147, "note": 65, "velocity": 108, "channel": 0}, {"type": "note_on", "time": 369, "note": 68, "velocity": 118, "channel": 0}, {"type": "note_off", "time": 60, "note": 68, "velocity": 118, "channel": 0}, {"type": "note_on", "time": 0, "note": 66, "velocity": 114, "channel": 0}, {"type": "note_off", "time": 30, "note": 66, "velocity": 114, "channel": 0}, {"type": "note_on", "time": 13, "note": 64, "velocity": 116, "channel": 0}, {"type": "note_off", "time": 60, "note": 64, "velocity": 116, "channel": 0}, {"type": "note_on", "time": 9, "note": 65, "velocity": 114, "channel": 0}, {"type": "note_off", "time": 22, "note": 65, "velocity": 114, "channel": 0}, {"type": "note_on", "time": 0, "note": 66, "velocity": 105, "channel": 0}, {"type": "note_off", "time": 43, "note": 66, "velocity": 105, "channel": 0}, {"type": "note_on", "time": 3, "note": 65, "velocity": 111, "channel": 0}, {"type": "note_off", "time": 87, "note": 65, "velocity": 111, "channel": 0}, {"type": "note_on", "time": 805, "note": 70, "velocity": 111, "channel": 0}, {"type": "note_on", "time": 34, "note": 68, "velocity": 112, "channel": 0}, {"type": "note_off", "time": 0, "note": 70, "velocity": 111, "channel": 0}, {"type": "note_off", "time": 37, "note": 68, "velocity": 112, "channel": 0}, {"type": "note_on", "time": 0, "note": 63, "velocity": 108, "channel": 0}, {"type": "note_off", "time": 115, "note": 63, "velocity": 108, "channel": 0}, {"type": "note_on", "time": 15, "note": 65, "velocity": 112, "channel": 0}, {"type": "note_off", "time": 68, "note": 65, "velocity": 112, "channel": 0}, {"type": "note_on", "time": 17, "note": 66, "velocity": 110, "channel": 0}, {"type": "note_off", "time": 79, "note": 66, "velocity": 110, "channel": 0}, {"type": "note_on", "time": 20, "note": 68, "velocity": 112, "channel": 0}, {"type": "note_off", "time": 70, "note": 68, "velocity": 112, "channel": 0}, {"type": "note_on", "time": 32, "note": 70, "velocity": 114, "channel": 0}, {"type": "note_off", "time": 83, "note": 70, "velocity": 114, "channel": 0}, {"type": "note_on", "time": 11, "note": 73, "velocity": 109, "channel": 0}, {"type": "note_off", "time": 83, "note": 73, "velocity": 109, "channel": 0}, {"type": "note_on", "time": 15, "note": 72, "velocity": 113, "channel": 0}, {"type": "note_off", "time": 77, "note": 72, "velocity": 113, "channel": 0}, {"type": "note_on", "time": 20, "note": 70, "velocity": 106, "channel": 0}, {"type": "note_off", "time": 70, "note": 70, "velocity": 106, "channel": 0}, {"type": "note_on", "time": 24, "note": 69, "velocity": 111, "channel": 0}, {"type": "note_off", "time": 100, "note": 69, "velocity": 111, "channel": 0}, {"type": "note_on", "time": 0, "note": 70, "velocity": 106, "channel": 0}, {"type": "note_off", "time": 70, "note": 70, "velocity": 106, "channel": 0}, {"type": "note_on", "time": 32, "note": 72, "velocity": 110, "channel": 0}, {"type": "note_off", "time": 104, "note": 72, "velocity": 110, "channel": 0}, {"type": "note_on", "time": 108, "note": 77, "velocity": 103, "channel": 0}, {"type": "note_off", "time": 375, "note": 77, "velocity": 103, "channel": 0}, {"type": "note_on", "time": 87, "note": 73, "velocity": 108, "channel": 0}, {"type": "note_off", "time": 83, "note": 73, "velocity": 108, "channel": 0}, {"type": "note_on", "time": 32, "note": 70, "velocity": 104, "channel": 0}, {"type": "note_off", "time": 85, "note": 70, "velocity": 104, "channel": 0}, {"type": "note_on", "time": 28, "note": 65, "velocity": 107, "channel": 0}, {"type": "note_off", "time": 87, "note": 65, "velocity": 107, "channel": 0}, {"type": "note_on", "time": 274, "note": 75, "velocity": 113, "channel": 0}, {"type": "note_off", "time": 94, "note": 75, "velocity": 113, "channel": 0}, {"type": "note_on", "time": 1, "note": 72, "velocity": 104, "channel": 0}, {"type": "note_off", "time": 79, "note": 72, "velocity": 104, "channel": 0}, {"type": "note_on", "time": 26, "note": 69, "velocity": 112, "channel": 0}, {"type": "note_off", "time": 79, "note": 69, "velocity": 112, "channel": 0}, {"type": "note_on", "time": 9, "note": 67, "velocity": 107, "channel": 0}, {"type": "note_off", "time": 36, "note": 67, "velocity": 107, "channel": 0}, {"type": "note_on", "time": 11, "note": 66, "velocity": 106, "channel": 0}, {"type": "note_off", "time": 121, "note": 66, "velocity": 106, "channel": 0}, {"type": "note_on", "time": 18, "note": 66, "velocity": 108, "channel": 0}, {"type": "note_off", "time": 60, "note": 66, "velocity": 108, "channel": 0}, {"type": "note_on", "time": 242, "note": 73, "velocity": 115, "channel": 0}, {"type": "note_off", "time": 83, "note": 73, "velocity": 115, "channel": 0}, {"type": "note_on", "time": 5, "note": 70, "velocity": 110, "channel": 0}, {"type": "note_off", "time": 73, "note": 70, "velocity": 110, "channel": 0}, {"type": "note_on", "time": 43, "note": 65, "velocity": 110, "channel": 0}, {"type": "note_on", "time": 81, "note": 63, "velocity": 119, "channel": 0}, {"type": "note_off", "time": 0, "note": 65, "velocity": 110, "channel": 0}, {"type": "note_off", "time": 108, "note": 63, "velocity": 119, "channel": 0}, {"type": "note_on", "time": 15, "note": 65, "velocity": 116, "channel": 0}, {"type": "note_off", "time": 100, "note": 65, "velocity": 116, "channel": 0}, {"type": "note_on", "time": 49, "note": 59, "velocity": 120, "channel": 0}, {"type": "note_off", "time": 49, "note": 59, "velocity": 120, "channel": 0}, {"type": "note_on", "time": 0, "note": 61, "velocity": 117, "channel": 0}, {"type": "note_off", "time": 293, "note": 61, "velocity": 117, "channel": 0}, {"type": "note_on", "time": 56, "note": 58, "velocity": 104, "channel": 0}, {"type": "note_off", "time": 54, "note": 58, "velocity": 104, "channel": 0}, {"type": "note_on", "time": 3, "note": 60, "velocity": 113, "channel": 0}, {"type": "note_off", "time": 87, "note": 60, "velocity": 113, "channel": 0}, {"type": "note_on", "time": 5, "note": 61, "velocity": 109, "channel": 0}, {"type": "note_off", "time": 72, "note": 61, "velocity": 109, "channel": 0}, {"type": "note_on", "time": 3, "note": 60, "velocity": 107, "channel": 0}, {"type": "note_off", "time": 30, "note": 60, "velocity": 107, "channel": 0}, {"type": "note_on", "time": 11, "note": 58, "velocity": 100, "channel": 0}, {"type": "note_off", "time": 66, "note": 58, "velocity": 100, "channel": 0}, {"type": "note_on", "time": 36, "note": 55, "velocity": 112, "channel": 0}, {"type": "note_off", "time": 49, "note": 55, "velocity": 112, "channel": 0}, {"type": "note_on", "time": 7, "note": 56, "velocity": 102, "channel": 0}, {"type": "note_off", "time": 77, "note": 56, "velocity": 102, "channel": 0}, {"type": "note_on", "time": 0, "note": 57, "velocity": 102, "channel": 0}, {"type": "note_off", "time": 178, "note": 57, "velocity": 102, "channel": 0}, {"type": "note_on", "time": 47, "note": 53, "velocity": 101, "channel": 0}, {"type": "note_off", "time": 291, "note": 53, "velocity": 101, "channel": 0}, {"type": "note_on", "time": 519, "note": 53, "velocity": 101, "channel": 0}, {"type": "note_off", "time": 36, "note": 53, "velocity": 101, "channel": 0}, {"type": "note_on", "time": 0, "note": 56, "velocity": 113, "channel": 0}, {"type": "note_off", "time": 28, "note": 56, "velocity": 113, "channel": 0}, {"type": "note_on", "time": 11, "note": 59, "velocity": 108, "channel": 0}, {"type": "note_off", "time": 54, "note": 59, "velocity": 108, "channel": 0}, {"type": "note_on", "time": 0, "note": 61, "velocity": 111, "channel": 0}, {"type": "note_off", "time": 34, "note": 61, "velocity": 111, "channel": 0}, {"type": "note_on", "time": 9, "note": 60, "velocity": 109, "channel": 0}, {"type": "note_off", "time": 66, "note": 60, "velocity": 109, "channel": 0}, {"type": "note_on", "time": 17, "note": 58, "velocity": 100, "channel": 0}, {"type": "note_off", "time": 51, "note": 58, "velocity": 100, "channel": 0}, {"type": "note_on", "time": 5, "note": 57, "velocity": 97, "channel": 0}, {"type": "note_off", "time": 60, "note": 57, "velocity": 97, "channel": 0}, {"type": "note_on", "time": 11, "note": 63, "velocity": 110, "channel": 0}, {"type": "note_off", "time": 49, "note": 63, "velocity": 110, "channel": 0}, {"type": "note_on", "time": 0, "note": 66, "velocity": 112, "channel": 0}, {"type": "note_off", "time": 45, "note": 66, "velocity": 112, "channel": 0}, {"type": "note_on", "time": 11, "note": 65, "velocity": 113, "channel": 0}, {"type": "note_off", "time": 81, "note": 65, "velocity": 113, "channel": 0}, {"type": "note_on", "time": 718, "note": 64, "velocity": 101, "channel": 0}, {"type": "note_off", "time": 36, "note": 64, "velocity": 101, "channel": 0}, {"type": "note_on", "time": 0, "note": 65, "velocity": 103, "channel": 0}, {"type": "note_off", "time": 45, "note": 65, "velocity": 103, "channel": 0}, {"type": "note_on", "time": 0, "note": 64, "velocity": 109, "channel": 0}, {"type": "note_off", "time": 113, "note": 64, "velocity": 109, "channel": 0}, {"type": "note_on", "time": 11, "note": 65, "velocity": 104, "channel": 0}, {"type": "note_off", "time": 60, "note": 65, "velocity": 104, "channel": 0}, {"type": "note_on", "time": 15, "note": 66, "velocity": 106, "channel": 0}, {"type": "note_off", "time": 79, "note": 66, "velocity": 106, "channel": 0}, {"type": "note_on", "time": 20, "note": 67, "velocity": 106, "channel": 0}, {"type": "note_off", "time": 64, "note": 67, "velocity": 106, "channel": 0}, {"type": "note_on", "time": 28, "note": 68, "velocity": 106, "channel": 0}, {"type": "note_off", "time": 75, "note": 68, "velocity": 106, "channel": 0}, {"type": "note_on", "time": 26, "note": 69, "velocity": 108, "channel": 0}, {"type": "note_off", "time": 85, "note": 69, "velocity": 108, "channel": 0}, {"type": "note_on", "time": 24, "note": 70, "velocity": 106, "channel": 0}, {"type": "note_off", "time": 85, "note": 70, "velocity": 106, "channel": 0}, {"type": "note_on", "time": 30, "note": 73, "velocity": 108, "channel": 0}, {"type": "note_off", "time": 94, "note": 73, "velocity": 108, "channel": 0}, {"type": "note_on", "time": 0, "note": 72, "velocity": 113, "channel": 0}, {"type": "note_off", "time": 98, "note": 72, "velocity": 113, "channel": 0}, {"type": "note_on", "time": 5, "note": 70, "velocity": 110, "channel": 0}, {"type": "note_off", "time": 79, "note": 70, "velocity": 110, "channel": 0}, {"type": "note_on", "time": 15, "note": 69, "velocity": 110, "channel": 0}, {"type": "note_off", "time": 83, "note": 69, "velocity": 110, "channel": 0}, {"type": "note_on", "time": 18, "note": 66, "velocity": 107, "channel": 0}, {"type": "note_off", "time": 56, "note": 66, "velocity": 107, "channel": 0}, {"type": "note_on", "time": 7, "note": 65, "velocity": 103, "channel": 0}, {"type": "note_off", "time": 121, "note": 65, "velocity": 103, "channel": 0}, {"type": "note_on", "time": 24, "note": 63, "velocity": 111, "channel": 0}, {"type": "note_off", "time": 58, "note": 63, "velocity": 111, "channel": 0}, {"type": "note_on", "time": 30, "note": 61, "velocity": 102, "channel": 0}, {"type": "note_off", "time": 126, "note": 61, "velocity": 102, "channel": 0}, {"type": "note_on", "time": 5, "note": 55, "velocity": 95, "channel": 0}, {"type": "note_off", "time": 70, "note": 55, "velocity": 95, "channel": 0}, {"type": "note_on", "time": 0, "note": 58, "velocity": 80, "channel": 0}, {"type": "note_off", "time": 53, "note": 58, "velocity": 80, "channel": 0}, {"type": "note_on", "time": 20, "note": 60, "velocity": 83, "channel": 0}, {"type": "note_off", "time": 73, "note": 60, "velocity": 83, "channel": 0}, {"type": "note_on", "time": 49, "note": 61, "velocity": 107, "channel": 0}, {"type": "note_off", "time": 119, "note": 61, "velocity": 107, "channel": 0}, {"type": "note_on", "time": 43, "note": 54, "velocity": 95, "channel": 0}, {"type": "note_off", "time": 39, "note": 54, "velocity": 95, "channel": 0}, {"type": "note_on", "time": 13, "note": 55, "velocity": 98, "channel": 0}, {"type": "note_off", "time": 49, "note": 55, "velocity": 98, "channel": 0}, {"type": "note_on", "time": 32, "note": 60, "velocity": 111, "channel": 0}, {"type": "note_off", "time": 541, "note": 60, "velocity": 111, "channel": 0}, {"type": "note_on", "time": 356, "note": 53, "velocity": 100, "channel": 0}, {"type": "note_off", "time": 58, "note": 53, "velocity": 100, "channel": 0}, {"type": "note_on", "time": 49, "note": 55, "velocity": 105, "channel": 0}, {"type": "note_off", "time": 89, "note": 55, "velocity": 105, "channel": 0}, {"type": "note_on", "time": 7, "note": 61, "velocity": 109, "channel": 0}, {"type": "note_off", "time": 70, "note": 61, "velocity": 109, "channel": 0}, {"type": "note_on", "time": 98, "note": 53, "velocity": 105, "channel": 0}, {"type": "note_off", "time": 51, "note": 53, "velocity": 105, "channel": 0}, {"type": "note_on", "time": 1, "note": 55, "velocity": 98, "channel": 0}, {"type": "note_off", "time": 53, "note": 55, "velocity": 98, "channel": 0}, {"type": "note_on", "time": 30, "note": 60, "velocity": 112, "channel": 0}, {"type": "note_off", "time": 130, "note": 60, "velocity": 112, "channel": 0}, {"type": "note_on", "time": 299, "note": 53, "velocity": 105, "channel": 0}, {"type": "note_off", "time": 64, "note": 53, "velocity": 105, "channel": 0}, {"type": "note_on", "time": 30, "note": 55, "velocity": 101, "channel": 0}, {"type": "note_off", "time": 68, "note": 55, "velocity": 101, "channel": 0}, {"type": "note_on", "time": 9, "note": 61, "velocity": 108, "channel": 0}, {"type": "note_off", "time": 83, "note": 61, "velocity": 108, "channel": 0}, {"type": "note_on", "time": 138, "note": 53, "velocity": 112, "channel": 0}, {"type": "note_off", "time": 34, "note": 53, "velocity": 112, "channel": 0}, {"type": "note_on", "time": 1, "note": 55, "velocity": 105, "channel": 0}, {"type": "note_off", "time": 32, "note": 55, "velocity": 105, "channel": 0}, {"type": "note_on", "time": 41, "note": 60, "velocity": 114, "channel": 0}, {"type": "note_off", "time": 119, "note": 60, "velocity": 114, "channel": 0}, {"type": "note_on", "time": 0, "note": 53, "velocity": 104, "channel": 0}, {"type": "note_off", "time": 56, "note": 53, "velocity": 104, "channel": 0}, {"type": "note_on", "time": 7, "note": 55, "velocity": 91, "channel": 0}, {"type": "note_off", "time": 62, "note": 55, "velocity": 91, "channel": 0}, {"type": "note_on", "time": 22, "note": 61, "velocity": 110, "channel": 0}, {"type": "note_off", "time": 70, "note": 61, "velocity": 110, "channel": 0}, {"type": "note_on", "time": 123, "note": 54, "velocity": 104, "channel": 0}, {"type": "note_off", "time": 41, "note": 54, "velocity": 104, "channel": 0}, {"type": "note_on", "time": 0, "note": 55, "velocity": 104, "channel": 0}, {"type": "note_off", "time": 30, "note": 55, "velocity": 104, "channel": 0}, {"type": "note_on", "time": 17, "note": 60, "velocity": 113, "channel": 0}, {"type": "note_off", "time": 92, "note": 60, "velocity": 113, "channel": 0}, {"type": "note_on", "time": 488, "note": 60, "velocity": 112, "channel": 0}, {"type": "note_off", "time": 92, "note": 60, "velocity": 112, "channel": 0}, {"type": "note_on", "time": 0, "note": 61, "velocity": 105, "channel": 0}, {"type": "note_off", "time": 77, "note": 61, "velocity": 105, "channel": 0}, {"type": "note_on", "time": 0, "note": 60, "velocity": 108, "channel": 0}, {"type": "note_off", "time": 94, "note": 60, "velocity": 108, "channel": 0}, {"type": "note_on", "time": 41, "note": 58, "velocity": 101, "channel": 0}, {"type": "note_on", "time": 64, "note": 57, "velocity": 110, "channel": 0}, {"type": "note_off", "time": 0, "note": 58, "velocity": 101, "channel": 0}, {"type": "note_off", "time": 142, "note": 57, "velocity": 110, "channel": 0}, {"type": "note_on", "time": 1, "note": 60, "velocity": 112, "channel": 0}, {"type": "note_off", "time": 70, "note": 60, "velocity": 112, "channel": 0}, {"type": "note_on", "time": 17, "note": 63, "velocity": 118, "channel": 0}, {"type": "note_off", "time": 87, "note": 63, "velocity": 118, "channel": 0}, {"type": "note_on", "time": 20, "note": 65, "velocity": 111, "channel": 0}, {"type": "note_off", "time": 73, "note": 65, "velocity": 111, "channel": 0}, {"type": "note_on", "time": 20, "note": 68, "velocity": 118, "channel": 0}, {"type": "note_off", "time": 87, "note": 68, "velocity": 118, "channel": 0}, {"type": "note_on", "time": 3, "note": 66, "velocity": 113, "channel": 0}, {"type": "note_off", "time": 66, "note": 66, "velocity": 113, "channel": 0}, {"type": "note_on", "time": 26, "note": 63, "velocity": 119, "channel": 0}, {"type": "note_off", "time": 96, "note": 63, "velocity": 119, "channel": 0}, {"type": "note_on", "time": 5, "note": 64, "velocity": 109, "channel": 0}, {"type": "note_off", "time": 75, "note": 64, "velocity": 109, "channel": 0}, {"type": "note_on", "time": 14, "note": 65, "velocity": 108, "channel": 0}, {"type": "note_off", "time": 125, "note": 65, "velocity": 108, "channel": 0}, {"type": "note_on", "time": 72, "note": 65, "velocity": 105, "channel": 0}, {"type": "note_off", "time": 87, "note": 65, "velocity": 105, "channel": 0}, {"type": "note_on", "time": 30, "note": 70, "velocity": 106, "channel": 0}, {"type": "note_off", "time": 51, "note": 70, "velocity": 106, "channel": 0}, {"type": "note_on", "time": 26, "note": 67, "velocity": 105, "channel": 0}, {"type": "note_off", "time": 121, "note": 67, "velocity": 105, "channel": 0}, {"type": "note_on", "time": 56, "note": 67, "velocity": 107, "channel": 0}, {"type": "note_off", "time": 77, "note": 67, "velocity": 107, "channel": 0}, {"type": "note_on", "time": 34, "note": 72, "velocity": 104, "channel": 0}, {"type": "note_off", "time": 62, "note": 72, "velocity": 104, "channel": 0}, {"type": "note_on", "time": 15, "note": 69, "velocity": 118, "channel": 0}, {"type": "note_off", "time": 123, "note": 69, "velocity": 118, "channel": 0}, {"type": "note_on", "time": 51, "note": 69, "velocity": 122, "channel": 0}, {"type": "note_off", "time": 102, "note": 69, "velocity": 122, "channel": 0}, {"type": "note_on", "time": 24, "note": 73, "velocity": 114, "channel": 0}, {"type": "note_off", "time": 66, "note": 73, "velocity": 114, "channel": 0}, {"type": "note_on", "time": 11, "note": 70, "velocity": 121, "channel": 0}, {"type": "note_off", "time": 138, "note": 70, "velocity": 121, "channel": 0}, {"type": "note_on", "time": 43, "note": 70, "velocity": 111, "channel": 0}, {"type": "note_off", "time": 108, "note": 70, "velocity": 111, "channel": 0}, {"type": "note_on", "time": 13, "note": 76, "velocity": 110, "channel": 0}, {"type": "note_on", "time": 47, "note": 77, "velocity": 105, "channel": 0}, {"type": "note_off", "time": 0, "note": 76, "velocity": 110, "channel": 0}, {"type": "note_off", "time": 153, "note": 77, "velocity": 105, "channel": 0}, {"type": "note_on", "time": 784, "note": 72, "velocity": 98, "channel": 0}, {"type": "note_off", "time": 30, "note": 72, "velocity": 98, "channel": 0}, {"type": "note_on", "time": 7, "note": 73, "velocity": 120, "channel": 0}, {"type": "note_off", "time": 45, "note": 73, "velocity": 120, "channel": 0}, {"type": "note_on", "time": 0, "note": 72, "velocity": 116, "channel": 0}, {"type": "note_off", "time": 22, "note": 72, "velocity": 116, "channel": 0}, {"type": "note_on", "time": 0, "note": 70, "velocity": 114, "channel": 0}, {"type": "note_off", "time": 79, "note": 70, "velocity": 114, "channel": 0}, {"type": "note_on", "time": 0, "note": 69, "velocity": 116, "channel": 0}, {"type": "note_off", "time": 64, "note": 69, "velocity": 116, "channel": 0}, {"type": "note_on", "time": 0, "note": 66, "velocity": 110, "channel": 0}, {"type": "note_on", "time": 64, "note": 65, "velocity": 107, "channel": 0}, {"type": "note_off", "time": 0, "note": 66, "velocity": 110, "channel": 0}, {"type": "note_off", "time": 26, "note": 65, "velocity": 107, "channel": 0}, {"type": "note_on", "time": 1, "note": 64, "velocity": 109, "channel": 0}, {"type": "note_off", "time": 24, "note": 64, "velocity": 109, "channel": 0}, {"type": "note_on", "time": 0, "note": 63, "velocity": 109, "channel": 0}, {"type": "note_off", "time": 45, "note": 63, "velocity": 109, "channel": 0}, {"type": "note_on", "time": 15, "note": 61, "velocity": 105, "channel": 0}, {"type": "note_off", "time": 32, "note": 61, "velocity": 105, "channel": 0}, {"type": "note_on", "time": 0, "note": 60, "velocity": 103, "channel": 0}, {"type": "note_off", "time": 109, "note": 60, "velocity": 103, "channel": 0}, {"type": "note_on", "time": 473, "note": 71, "velocity": 110, "channel": 0}, {"type": "note_on", "time": 77, "note": 72, "velocity": 94, "channel": 0}, {"type": "note_off", "time": 0, "note": 71, "velocity": 110, "channel": 0}, {"type": "note_off", "time": 684, "note": 72, "velocity": 94, "channel": 0}, {"type": "note_on", "time": 15, "note": 65, "velocity": 88, "channel": 0}, {"type": "note_off", "time": 75, "note": 65, "velocity": 88, "channel": 0}, {"type": "note_on", "time": 18, "note": 67, "velocity": 109, "channel": 0}, {"type": "note_off", "time": 89, "note": 67, "velocity": 109, "channel": 0}, {"type": "note_on", "time": 13, "note": 65, "velocity": 101, "channel": 0}, {"type": "note_off", "time": 70, "note": 65, "velocity": 101, "channel": 0}, {"type": "note_on", "time": 32, "note": 72, "velocity": 101, "channel": 0}, {"type": "note_off", "time": 77, "note": 72, "velocity": 101, "channel": 0}, {"type": "note_on", "time": 83, "note": 67, "velocity": 111, "channel": 0}, {"type": "note_off", "time": 108, "note": 67, "velocity": 111, "channel": 0}, {"type": "note_on", "time": 13, "note": 65, "velocity": 114, "channel": 0}, {"type": "note_off", "time": 305, "note": 65, "velocity": 114, "channel": 0}, {"type": "note_on", "time": 450, "note": 75, "velocity": 117, "channel": 0}, {"type": "note_off", "time": 223, "note": 75, "velocity": 117, "channel": 0}, {"type": "note_on", "time": 39, "note": 71, "velocity": 102, "channel": 0}, {"type": "note_off", "time": 66, "note": 71, "velocity": 102, "channel": 0}, {"type": "note_on", "time": 41, "note": 74, "velocity": 103, "channel": 0}, {"type": "note_off", "time": 60, "note": 74, "velocity": 103, "channel": 0}, {"type": "note_on", "time": 15, "note": 72, "velocity": 100, "channel": 0}, {"type": "note_off", "time": 121, "note": 72, "velocity": 100, "channel": 0}, {"type": "note_on", "time": 54, "note": 67, "velocity": 106, "channel": 0}, {"type": "note_off", "time": 94, "note": 67, "velocity": 106, "channel": 0}, {"type": "note_on", "time": 17, "note": 70, "velocity": 108, "channel": 0}, {"type": "note_off", "time": 58, "note": 70, "velocity": 108, "channel": 0}, {"type": "note_on", "time": 20, "note": 68, "velocity": 107, "channel": 0}, {"type": "note_off", "time": 108, "note": 68, "velocity": 107, "channel": 0}, {"type": "note_on", "time": 269, "note": 79, "velocity": 100, "channel": 0}, {"type": "note_off", "time": 100, "note": 79, "velocity": 100, "channel": 0}, {"type": "note_on", "time": 7, "note": 75, "velocity": 108, "channel": 0}, {"type": "note_off", "time": 92, "note": 75, "velocity": 108, "channel": 0}, {"type": "note_on", "time": 0, "note": 72, "velocity": 95, "channel": 0}, {"type": "note_off", "time": 72, "note": 72, "velocity": 95, "channel": 0}, {"type": "note_on", "time": 32, "note": 68, "velocity": 109, "channel": 0}, {"type": "note_off", "time": 83, "note": 68, "velocity": 109, "channel": 0}, {"type": "note_on", "time": 17, "note": 67, "velocity": 112, "channel": 0}, {"type": "note_off", "time": 96, "note": 67, "velocity": 112, "channel": 0}, {"type": "note_on", "time": 13, "note": 65, "velocity": 116, "channel": 0}, {"type": "note_off", "time": 113, "note": 65, "velocity": 116, "channel": 0}, {"type": "note_on", "time": 293, "note": 78, "velocity": 111, "channel": 0}, {"type": "note_off", "time": 109, "note": 78, "velocity": 111, "channel": 0}, {"type": "note_on", "time": 0, "note": 74, "velocity": 107, "channel": 0}, {"type": "note_off", "time": 85, "note": 74, "velocity": 107, "channel": 0}, {"type": "note_on", "time": 26, "note": 71, "velocity": 101, "channel": 0}, {"type": "note_off", "time": 90, "note": 71, "velocity": 101, "channel": 0}, {"type": "note_on", "time": 18, "note": 67, "velocity": 110, "channel": 0}, {"type": "note_off", "time": 90, "note": 67, "velocity": 110, "channel": 0}, {"type": "note_on", "time": 87, "note": 74, "velocity": 115, "channel": 0}, {"type": "note_off", "time": 30, "note": 74, "velocity": 115, "channel": 0}, {"type": "note_on", "time": 0, "note": 76, "velocity": 118, "channel": 0}, {"type": "note_off", "time": 60, "note": 76, "velocity": 118, "channel": 0}, {"type": "note_on", "time": 3, "note": 77, "velocity": 104, "channel": 0}, {"type": "note_off", "time": 140, "note": 77, "velocity": 104, "channel": 0}, {"type": "note_on", "time": 18, "note": 73, "velocity": 109, "channel": 0}, {"type": "note_off", "time": 89, "note": 73, "velocity": 109, "channel": 0}, {"type": "note_on", "time": 20, "note": 70, "velocity": 104, "channel": 0}, {"type": "note_off", "time": 81, "note": 70, "velocity": 104, "channel": 0}, {"type": "note_on", "time": 18, "note": 66, "velocity": 113, "channel": 0}, {"type": "note_off", "time": 62, "note": 66, "velocity": 113, "channel": 0}, {"type": "note_on", "time": 17, "note": 65, "velocity": 116, "channel": 0}, {"type": "note_off", "time": 140, "note": 65, "velocity": 116, "channel": 0}, {"type": "note_on", "time": 322, "note": 74, "velocity": 113, "channel": 0}, {"type": "note_off", "time": 62, "note": 74, "velocity": 113, "channel": 0}, {"type": "note_on", "time": 0, "note": 75, "velocity": 117, "channel": 0}, {"type": "note_off", "time": 68, "note": 75, "velocity": 117, "channel": 0}, {"type": "note_on", "time": 3, "note": 74, "velocity": 100, "channel": 0}, {"type": "note_off", "time": 47, "note": 74, "velocity": 100, "channel": 0}, {"type": "note_on", "time": 11, "note": 72, "velocity": 96, "channel": 0}, {"type": "note_off", "time": 81, "note": 72, "velocity": 96, "channel": 0}, {"type": "note_on", "time": 13, "note": 68, "velocity": 108, "channel": 0}, {"type": "note_off", "time": 77, "note": 68, "velocity": 108, "channel": 0}, {"type": "note_on", "time": 17, "note": 65, "velocity": 113, "channel": 0}, {"type": "note_off", "time": 81, "note": 65, "velocity": 113, "channel": 0}, {"type": "note_on", "time": 11, "note": 60, "velocity": 110, "channel": 0}, {"type": "note_off", "time": 64, "note": 60, "velocity": 110, "channel": 0}, {"type": "note_on", "time": 26, "note": 63, "velocity": 125, "channel": 0}, {"type": "note_off", "time": 94, "note": 63, "velocity": 125, "channel": 0}, {"type": "note_on", "time": 24, "note": 60, "velocity": 102, "channel": 0}, {"type": "note_off", "time": 51, "note": 60, "velocity": 102, "channel": 0}, {"type": "note_on", "time": 24, "note": 62, "velocity": 121, "channel": 0}, {"type": "note_off", "time": 94, "note": 62, "velocity": 121, "channel": 0}, {"type": "note_on", "time": 15, "note": 70, "velocity": 115, "channel": 0}, {"type": "note_off", "time": 145, "note": 70, "velocity": 115, "channel": 0}, {"type": "note_on", "time": 257, "note": 63, "velocity": 112, "channel": 0}, {"type": "note_off", "time": 70, "note": 63, "velocity": 112, "channel": 0}, {"type": "note_on", "time": 92, "note": 65, "velocity": 104, "channel": 0}, {"type": "note_off", "time": 77, "note": 65, "velocity": 104, "channel": 0}, {"type": "note_on", "time": 20, "note": 66, "velocity": 100, "channel": 0}, {"type": "note_off", "time": 62, "note": 66, "velocity": 100, "channel": 0}, {"type": "note_on", "time": 22, "note": 66, "velocity": 106, "channel": 0}, {"type": "note_off", "time": 62, "note": 66, "velocity": 106, "channel": 0}, {"type": "note_on", "time": 15, "note": 68, "velocity": 111, "channel": 0}, {"type": "note_off", "time": 83, "note": 68, "velocity": 111, "channel": 0}, {"type": "note_on", "time": 18, "note": 68, "velocity": 107, "channel": 0}, {"type": "note_off", "time": 73, "note": 68, "velocity": 107, "channel": 0}, {"type": "note_on", "time": 9, "note": 70, "velocity": 111, "channel": 0}, {"type": "note_off", "time": 70, "note": 70, "velocity": 111, "channel": 0}, {"type": "note_on", "time": 26, "note": 70, "velocity": 108, "channel": 0}, {"type": "note_off", "time": 79, "note": 70, "velocity": 108, "channel": 0}, {"type": "note_on", "time": 22, "note": 72, "velocity": 111, "channel": 0}, {"type": "note_off", "time": 41, "note": 72, "velocity": 111, "channel": 0}, {"type": "note_on", "time": 13, "note": 73, "velocity": 108, "channel": 0}, {"type": "note_off", "time": 126, "note": 73, "velocity": 108, "channel": 0}, {"type": "note_on", "time": 26, "note": 72, "velocity": 107, "channel": 0}, {"type": "note_off", "time": 117, "note": 72, "velocity": 107, "channel": 0}, {"type": "note_on", "time": 0, "note": 76, "velocity": 102, "channel": 0}, {"type": "note_off", "time": 41, "note": 76, "velocity": 102, "channel": 0}, {"type": "note_on", "time": 7, "note": 77, "velocity": 104, "channel": 0}, {"type": "note_off", "time": 212, "note": 77, "velocity": 104, "channel": 0}, {"type": "note_on", "time": 39, "note": 75, "velocity": 108, "channel": 0}, {"type": "note_off", "time": 100, "note": 75, "velocity": 108, "channel": 0}, {"type": "note_on", "time": 36, "note": 73, "velocity": 110, "channel": 0}, {"type": "note_off", "time": 96, "note": 73, "velocity": 110, "channel": 0}, {"type": "note_on", "time": 9, "note": 67, "velocity": 88, "channel": 0}, {"type": "note_off", "time": 299, "note": 67, "velocity": 88, "channel": 0}, {"type": "note_on", "time": 339, "note": 54, "velocity": 107, "channel": 0}, {"type": "note_off", "time": 90, "note": 54, "velocity": 107, "channel": 0}, {"type": "note_on", "time": 9, "note": 56, "velocity": 109, "channel": 0}, {"type": "note_off", "time": 36, "note": 56, "velocity": 109, "channel": 0}, {"type": "note_on", "time": 3, "note": 59, "velocity": 106, "channel": 0}, {"type": "note_off", "time": 30, "note": 59, "velocity": 106, "channel": 0}, {"type": "note_on", "time": 1, "note": 61, "velocity": 108, "channel": 0}, {"type": "note_off", "time": 56, "note": 61, "velocity": 108, "channel": 0}, {"type": "note_on", "time": 3, "note": 63, "velocity": 119, "channel": 0}, {"type": "note_off", "time": 45, "note": 63, "velocity": 119, "channel": 0}, {"type": "note_on", "time": 1, "note": 66, "velocity": 104, "channel": 0}, {"type": "note_off", "time": 27, "note": 66, "velocity": 104, "channel": 0}, {"type": "note_on", "time": 0, "note": 68, "velocity": 104, "channel": 0}, {"type": "note_off", "time": 11, "note": 68, "velocity": 104, "channel": 0}, {"type": "note_on", "time": 0, "note": 70, "velocity": 113, "channel": 0}, {"type": "note_off", "time": 27, "note": 70, "velocity": 113, "channel": 0}, {"type": "note_on", "time": 5, "note": 72, "velocity": 117, "channel": 0}, {"type": "note_off", "time": 49, "note": 72, "velocity": 117, "channel": 0}, {"type": "note_on", "time": 11, "note": 67, "velocity": 115, "channel": 0}, {"type": "note_off", "time": 140, "note": 67, "velocity": 115, "channel": 0}, {"type": "note_on", "time": 39, "note": 72, "velocity": 112, "channel": 0}, {"type": "note_off", "time": 47, "note": 72, "velocity": 112, "channel": 0}, {"type": "note_on", "time": 30, "note": 65, "velocity": 101, "channel": 0}, {"type": "note_off", "time": 149, "note": 65, "velocity": 101, "channel": 0}, {"type": "note_on", "time": 936, "note": 63, "velocity": 115, "channel": 0}, {"type": "note_off", "time": 37, "note": 63, "velocity": 115, "channel": 0}, {"type": "note_on", "time": 7, "note": 64, "velocity": 109, "channel": 0}, {"type": "note_off", "time": 32, "note": 64, "velocity": 109, "channel": 0}, {"type": "note_on", "time": 17, "note": 65, "velocity": 111, "channel": 0}, {"type": "note_off", "time": 1303, "note": 65, "velocity": 111, "channel": 0}, {"type": "note_on", "time": 106, "note": 64, "velocity": 113, "channel": 0}, {"type": "note_off", "time": 73, "note": 64, "velocity": 113, "channel": 0}, {"type": "note_on", "time": 15, "note": 65, "velocity": 113, "channel": 0}, {"type": "note_off", "time": 89, "note": 65, "velocity": 113, "channel": 0}, {"type": "note_on", "time": 15, "note": 66, "velocity": 111, "channel": 0}, {"type": "note_off", "time": 56, "note": 66, "velocity": 111, "channel": 0}, {"type": "note_on", "time": 28, "note": 65, "velocity": 114, "channel": 0}, {"type": "note_off", "time": 126, "note": 65, "velocity": 114, "channel": 0}, {"type": "note_on", "time": 9, "note": 63, "velocity": 115, "channel": 0}, {"type": "note_off", "time": 73, "note": 63, "velocity": 115, "channel": 0}, {"type": "note_on", "time": 26, "note": 65, "velocity": 112, "channel": 0}, {"type": "note_off", "time": 87, "note": 65, "velocity": 112, "channel": 0}, {"type": "note_on", "time": 28, "note": 65, "velocity": 100, "channel": 0}, {"type": "note_off", "time": 117, "note": 65, "velocity": 100, "channel": 0}, {"type": "note_on", "time": 600, "note": 65, "velocity": 113, "channel": 0}, {"type": "note_off", "time": 45, "note": 65, "velocity": 113, "channel": 0}, {"type": "note_on", "time": 68, "note": 65, "velocity": 115, "channel": 0}, {"type": "note_off", "time": 119, "note": 65, "velocity": 115, "channel": 0}, {"type": "note_on", "time": 83, "note": 65, "velocity": 98, "channel": 0}, {"type": "note_off", "time": 41, "note": 65, "velocity": 98, "channel": 0}, {"type": "note_on", "time": 28, "note": 65, "velocity": 115, "channel": 0}, {"type": "note_off", "time": 162, "note": 65, "velocity": 115, "channel": 0}, {"type": "note_on", "time": 36, "note": 65, "velocity": 98, "channel": 0}, {"type": "note_off", "time": 87, "note": 65, "velocity": 98, "channel": 0}, {"type": "note_on", "time": 26, "note": 65, "velocity": 118, "channel": 0}, {"type": "note_off", "time": 159, "note": 65, "velocity": 118, "channel": 0}, {"type": "note_on", "time": 53, "note": 65, "velocity": 97, "channel": 0}, {"type": "note_off", "time": 45, "note": 65, "velocity": 97, "channel": 0}, {"type": "note_on", "time": 51, "note": 65, "velocity": 123, "channel": 0}, {"type": "note_off", "time": 159, "note": 65, "velocity": 123, "channel": 0}, {"type": "note_on", "time": 36, "note": 65, "velocity": 106, "channel": 0}, {"type": "note_off", "time": 37, "note": 65, "velocity": 106, "channel": 0}, {"type": "note_on", "time": 47, "note": 65, "velocity": 114, "channel": 0}, {"type": "note_off", "time": 39, "note": 65, "velocity": 114, "channel": 0}, {"type": "note_on", "time": 77, "note": 65, "velocity": 114, "channel": 0}, {"type": "note_off", "time": 240, "note": 65, "velocity": 114, "channel": 0}, {"type": "note_on", "time": 36, "note": 63, "velocity": 117, "channel": 0}, {"type": "note_off", "time": 73, "note": 63, "velocity": 117, "channel": 0}, {"type": "note_on", "time": 28, "note": 61, "velocity": 97, "channel": 0}, {"type": "note_off", "time": 51, "note": 61, "velocity": 97, "channel": 0}, {"type": "note_on", "time": 32, "note": 63, "velocity": 9, "channel": 0}, {"type": "note_off", "time": 125, "note": 63, "velocity": 9, "channel": 0}, {"type": "note_on", "time": 5, "note": 65, "velocity": 107, "channel": 0}, {"type": "note_off", "time": 193, "note": 65, "velocity": 107, "channel": 0}, {"type": "note_on", "time": 482, "note": 64, "velocity": 114, "channel": 0}, {"type": "note_off", "time": 53, "note": 64, "velocity": 114, "channel": 0}, {"type": "note_on", "time": 21, "note": 65, "velocity": 115, "channel": 0}, {"type": "note_off", "time": 56, "note": 65, "velocity": 115, "channel": 0}, {"type": "note_on", "time": 7, "note": 64, "velocity": 113, "channel": 0}, {"type": "note_off", "time": 426, "note": 64, "velocity": 113, "channel": 0}, {"type": "note_on", "time": 37, "note": 70, "velocity": 116, "channel": 0}, {"type": "note_off", "time": 70, "note": 70, "velocity": 116, "channel": 0}, {"type": "note_on", "time": 26, "note": 64, "velocity": 118, "channel": 0}, {"type": "note_off", "time": 53, "note": 64, "velocity": 118, "channel": 0}, {"type": "note_on", "time": 0, "note": 65, "velocity": 118, "channel": 0}, {"type": "note_off", "time": 32, "note": 65, "velocity": 118, "channel": 0}, {"type": "note_on", "time": 7, "note": 64, "velocity": 121, "channel": 0}, {"type": "note_off", "time": 85, "note": 64, "velocity": 121, "channel": 0}, {"type": "note_on", "time": 15, "note": 63, "velocity": 120, "channel": 0}, {"type": "note_off", "time": 87, "note": 63, "velocity": 120, "channel": 0}, {"type": "note_on", "time": 17, "note": 61, "velocity": 112, "channel": 0}, {"type": "note_off", "time": 62, "note": 61, "velocity": 112, "channel": 0}, {"type": "note_on", "time": 30, "note": 58, "velocity": 99, "channel": 0}, {"type": "note_off", "time": 75, "note": 58, "velocity": 99, "channel": 0}, {"type": "note_on", "time": 22, "note": 58, "velocity": 100, "channel": 0}, {"type": "note_off", "time": 81, "note": 58, "velocity": 100, "channel": 0}, {"type": "note_on", "time": 17, "note": 58, "velocity": 99, "channel": 0}, {"type": "note_off", "time": 51, "note": 58, "velocity": 99, "channel": 0}, {"type": "note_on", "time": 45, "note": 58, "velocity": 102, "channel": 0}, {"type": "note_off", "time": 62, "note": 58, "velocity": 102, "channel": 0}, {"type": "note_on", "time": 18, "note": 61, "velocity": 112, "channel": 0}, {"type": "note_off", "time": 119, "note": 61, "velocity": 112, "channel": 0}, {"type": "note_on", "time": 11, "note": 58, "velocity": 98, "channel": 0}, {"type": "note_off", "time": 47, "note": 58, "velocity": 98, "channel": 0}, {"type": "note_on", "time": 47, "note": 58, "velocity": 96, "channel": 0}, {"type": "note_off", "time": 49, "note": 58, "velocity": 96, "channel": 0}, {"type": "note_on", "time": 34, "note": 58, "velocity": 94, "channel": 0}, {"type": "note_off", "time": 60, "note": 58, "velocity": 94, "channel": 0}, {"type": "note_on", "time": 13, "note": 63, "velocity": 118, "channel": 0}, {"type": "note_off", "time": 106, "note": 63, "velocity": 118, "channel": 0}, {"type": "note_on", "time": 7, "note": 58, "velocity": 98, "channel": 0}, {"type": "note_off", "time": 49, "note": 58, "velocity": 98, "channel": 0}, {"type": "note_on", "time": 49, "note": 58, "velocity": 86, "channel": 0}, {"type": "note_off", "time": 56, "note": 58, "velocity": 86, "channel": 0}, {"type": "note_on", "time": 49, "note": 58, "velocity": 92, "channel": 0}, {"type": "note_off", "time": 53, "note": 58, "velocity": 92, "channel": 0}, {"type": "note_on", "time": 9, "note": 63, "velocity": 113, "channel": 0}, {"type": "note_off", "time": 39, "note": 63, "velocity": 113, "channel": 0}, {"type": "note_on", "time": 7, "note": 65, "velocity": 107, "channel": 0}, {"type": "note_off", "time": 54, "note": 65, "velocity": 107, "channel": 0}, {"type": "note_on", "time": 7, "note": 64, "velocity": 113, "channel": 0}, {"type": "note_off", "time": 70, "note": 64, "velocity": 113, "channel": 0}, {"type": "note_on", "time": 5, "note": 63, "velocity": 113, "channel": 0}, {"type": "note_off", "time": 81, "note": 63, "velocity": 113, "channel": 0}, {"type": "note_on", "time": 37, "note": 61, "velocity": 106, "channel": 0}, {"type": "note_off", "time": 68, "note": 61, "velocity": 106, "channel": 0}, {"type": "note_on", "time": 15, "note": 58, "velocity": 95, "channel": 0}, {"type": "note_off", "time": 121, "note": 58, "velocity": 95, "channel": 0}, {"type": "note_on", "time": 0, "note": 60, "velocity": 106, "channel": 0}, {"type": "note_off", "time": 60, "note": 60, "velocity": 106, "channel": 0}, {"type": "note_on", "time": 13, "note": 61, "velocity": 105, "channel": 0}, {"type": "note_off", "time": 94, "note": 61, "velocity": 105, "channel": 0}, {"type": "note_on", "time": 488, "note": 60, "velocity": 118, "channel": 0}, {"type": "note_off", "time": 92, "note": 60, "velocity": 118, "channel": 0}, {"type": "note_on", "time": 9, "note": 61, "velocity": 108, "channel": 0}, {"type": "note_off", "time": 96, "note": 61, "velocity": 108, "channel": 0}, {"type": "note_on", "time": 0, "note": 60, "velocity": 110, "channel": 0}, {"type": "note_off", "time": 77, "note": 60, "velocity": 110, "channel": 0}, {"type": "note_on", "time": 17, "note": 58, "velocity": 101, "channel": 0}, {"type": "note_off", "time": 73, "note": 58, "velocity": 101, "channel": 0}, {"type": "note_on", "time": 3, "note": 57, "velocity": 103, "channel": 0}, {"type": "note_off", "time": 77, "note": 57, "velocity": 103, "channel": 0}, {"type": "note_on", "time": 15, "note": 54, "velocity": 103, "channel": 0}, {"type": "note_off", "time": 62, "note": 54, "velocity": 103, "channel": 0}, {"type": "note_on", "time": 13, "note": 53, "velocity": 109, "channel": 0}, {"type": "note_off", "time": 108, "note": 53, "velocity": 109, "channel": 0}, {"type": "note_on", "time": 26, "note": 51, "velocity": 106, "channel": 0}, {"type": "note_off", "time": 60, "note": 51, "velocity": 106, "channel": 0}, {"type": "note_on", "time": 18, "note": 53, "velocity": 105, "channel": 0}, {"type": "note_off", "time": 68, "note": 53, "velocity": 105, "channel": 0}, {"type": "note_on", "time": 28, "note": 46, "velocity": 104, "channel": 0}, {"type": "note_off", "time": 380, "note": 46, "velocity": 104, "channel": 0}, {"type": "note_on", "time": 234, "note": 54, "velocity": 104, "channel": 0}, {"type": "note_off", "time": 115, "note": 54, "velocity": 104, "channel": 0}, {"type": "note_on", "time": 36, "note": 47, "velocity": 106, "channel": 0}, {"type": "note_off", "time": 411, "note": 47, "velocity": 106, "channel": 0}, {"type": "note_on", "time": 244, "note": 53, "velocity": 99, "channel": 0}, {"type": "note_off", "time": 72, "note": 53, "velocity": 99, "channel": 0}, {"type": "note_on", "time": 18, "note": 46, "velocity": 116, "channel": 0}, {"type": "note_off", "time": 526, "note": 46, "velocity": 116, "channel": 0}, {"type": "note_on", "time": 75, "note": 59, "velocity": 105, "channel": 0}, {"type": "note_off", "time": 81, "note": 59, "velocity": 105, "channel": 0}, {"type": "note_on", "time": 30, "note": 47, "velocity": 113, "channel": 0}, {"type": "note_off", "time": 242, "note": 47, "velocity": 113, "channel": 0}, {"type": "note_on", "time": 0, "note": 59, "velocity": 110, "channel": 0}, {"type": "note_off", "time": 92, "note": 59, "velocity": 110, "channel": 0}, {"type": "note_on", "time": 16, "note": 54, "velocity": 105, "channel": 0}, {"type": "note_off", "time": 299, "note": 54, "velocity": 105, "channel": 0}, {"type": "note_on", "time": 347, "note": 46, "velocity": 108, "channel": 0}, {"type": "note_off", "time": 108, "note": 46, "velocity": 108, "channel": 0}, {"type": "note_on", "time": 9, "note": 53, "velocity": 108, "channel": 0}, {"type": "note_off", "time": 70, "note": 53, "velocity": 108, "channel": 0}, {"type": "note_on", "time": 9, "note": 58, "velocity": 96, "channel": 0}, {"type": "note_off", "time": 77, "note": 58, "velocity": 96, "channel": 0}, {"type": "note_on", "time": 28, "note": 65, "velocity": 101, "channel": 0}, {"type": "note_off", "time": 81, "note": 65, "velocity": 101, "channel": 0}, {"type": "note_on", "time": 15, "note": 70, "velocity": 112, "channel": 0}, {"type": "note_off", "time": 87, "note": 70, "velocity": 112, "channel": 0}, {"type": "note_on", "time": 17, "note": 65, "velocity": 100, "channel": 0}, {"type": "note_off", "time": 81, "note": 65, "velocity": 100, "channel": 0}, {"type": "note_on", "time": 0, "note": 70, "velocity": 111, "channel": 0}, {"type": "note_off", "time": 81, "note": 70, "velocity": 111, "channel": 0}, {"type": "note_on", "time": 11, "note": 65, "velocity": 108, "channel": 0}, {"type": "note_off", "time": 85, "note": 65, "velocity": 108, "channel": 0}, {"type": "note_on", "time": 17, "note": 60, "velocity": 111, "channel": 0}, {"type": "note_off", "time": 98, "note": 60, "velocity": 111, "channel": 0}, {"type": "note_on", "time": 0, "note": 58, "velocity": 106, "channel": 0}, {"type": "note_off", "time": 75, "note": 58, "velocity": 106, "channel": 0}, {"type": "note_on", "time": 17, "note": 54, "velocity": 108, "channel": 0}, {"type": "note_off", "time": 64, "note": 54, "velocity": 108, "channel": 0}, {"type": "note_on", "time": 5, "note": 53, "velocity": 95, "channel": 0}, {"type": "note_off", "time": 89, "note": 53, "velocity": 95, "channel": 0}, {"type": "note_on", "time": 11, "note": 58, "velocity": 98, "channel": 0}, {"type": "note_off", "time": 204, "note": 58, "velocity": 98, "channel": 0}, {"type": "note_on", "time": 128, "note": 61, "velocity": 113, "channel": 0}, {"type": "note_off", "time": 130, "note": 61, "velocity": 113, "channel": 0}, {"type": "note_on", "time": 568, "note": 63, "velocity": 122, "channel": 0}, {"type": "note_off", "time": 47, "note": 63, "velocity": 122, "channel": 0}, {"type": "note_on", "time": 9, "note": 64, "velocity": 119, "channel": 0}, {"type": "note_off", "time": 77, "note": 64, "velocity": 119, "channel": 0}, {"type": "note_on", "time": 13, "note": 65, "velocity": 113, "channel": 0}, {"type": "note_off", "time": 109, "note": 65, "velocity": 113, "channel": 0}, {"type": "note_on", "time": 536, "note": 58, "velocity": 108, "channel": 0}, {"type": "note_off", "time": 39, "note": 58, "velocity": 108, "channel": 0}, {"type": "note_on", "time": 13, "note": 60, "velocity": 112, "channel": 0}, {"type": "note_off", "time": 53, "note": 60, "velocity": 112, "channel": 0}, {"type": "note_on", "time": 0, "note": 62, "velocity": 115, "channel": 0}, {"type": "note_off", "time": 49, "note": 62, "velocity": 115, "channel": 0}, {"type": "note_on", "time": 0, "note": 63, "velocity": 114, "channel": 0}, {"type": "note_off", "time": 49, "note": 63, "velocity": 114, "channel": 0}, {"type": "note_on", "time": 3, "note": 67, "velocity": 108, "channel": 0}, {"type": "note_on", "time": 51, "note": 68, "velocity": 116, "channel": 0}, {"type": "note_off", "time": 0, "note": 67, "velocity": 108, "channel": 0}, {"type": "note_off", "time": 51, "note": 68, "velocity": 116, "channel": 0}, {"type": "note_on", "time": 17, "note": 70, "velocity": 114, "channel": 0}, {"type": "note_off", "time": 144, "note": 70, "velocity": 114, "channel": 0}, {"type": "note_on", "time": 280, "note": 67, "velocity": 110, "channel": 0}, {"type": "note_off", "time": 104, "note": 67, "velocity": 110, "channel": 0}, {"type": "note_on", "time": 9, "note": 68, "velocity": 116, "channel": 0}, {"type": "note_off", "time": 94, "note": 68, "velocity": 116, "channel": 0}, {"type": "note_on", "time": 24, "note": 65, "velocity": 114, "channel": 0}, {"type": "note_off", "time": 89, "note": 65, "velocity": 114, "channel": 0}, {"type": "note_on", "time": 102, "note": 70, "velocity": 111, "channel": 0}, {"type": "note_off", "time": 45, "note": 70, "velocity": 111, "channel": 0}, {"type": "note_on", "time": 0, "note": 67, "velocity": 112, "channel": 0}, {"type": "note_off", "time": 28, "note": 67, "velocity": 112, "channel": 0}, {"type": "note_on", "time": 0, "note": 64, "velocity": 115, "channel": 0}, {"type": "note_off", "time": 106, "note": 64, "velocity": 115, "channel": 0}, {"type": "note_on", "time": 11, "note": 66, "velocity": 106, "channel": 0}, {"type": "note_off", "time": 81, "note": 66, "velocity": 106, "channel": 0}, {"type": "note_on", "time": 18, "note": 67, "velocity": 107, "channel": 0}, {"type": "note_off", "time": 106, "note": 67, "velocity": 107, "channel": 0}, {"type": "note_on", "time": 3, "note": 69, "velocity": 107, "channel": 0}, {"type": "note_off", "time": 89, "note": 69, "velocity": 107, "channel": 0}, {"type": "note_on", "time": 0, "note": 71, "velocity": 106, "channel": 0}, {"type": "note_off", "time": 96, "note": 71, "velocity": 106, "channel": 0}, {"type": "note_on", "time": 79, "note": 76, "velocity": 119, "channel": 0}, {"type": "note_off", "time": 159, "note": 76, "velocity": 119, "channel": 0}, {"type": "note_on", "time": 20, "note": 75, "velocity": 111, "channel": 0}, {"type": "note_off", "time": 301, "note": 75, "velocity": 111, "channel": 0}, {"type": "note_on", "time": 18, "note": 70, "velocity": 103, "channel": 0}, {"type": "note_off", "time": 85, "note": 70, "velocity": 103, "channel": 0}, {"type": "note_on", "time": 9, "note": 66, "velocity": 108, "channel": 0}, {"type": "note_off", "time": 92, "note": 66, "velocity": 108, "channel": 0}, {"type": "note_on", "time": 11, "note": 63, "velocity": 108, "channel": 0}, {"type": "note_off", "time": 89, "note": 63, "velocity": 108, "channel": 0}, {"type": "note_on", "time": 9, "note": 65, "velocity": 105, "channel": 0}, {"type": "note_off", "time": 83, "note": 65, "velocity": 105, "channel": 0}, {"type": "note_on", "time": 100, "note": 63, "velocity": 113, "channel": 0}, {"type": "note_off", "time": 276, "note": 63, "velocity": 113, "channel": 0}, {"type": "note_on", "time": 22, "note": 65, "velocity": 104, "channel": 0}, {"type": "note_off", "time": 144, "note": 65, "velocity": 104, "channel": 0}, {"type": "note_on", "time": 602, "note": 69, "velocity": 113, "channel": 0}, {"type": "note_off", "time": 34, "note": 69, "velocity": 113, "channel": 0}, {"type": "note_on", "time": 5, "note": 70, "velocity": 103, "channel": 0}, {"type": "note_off", "time": 295, "note": 70, "velocity": 103, "channel": 0}, {"type": "note_on", "time": 62, "note": 66, "velocity": 100, "channel": 0}, {"type": "note_off", "time": 66, "note": 66, "velocity": 100, "channel": 0}, {"type": "note_on", "time": 51, "note": 73, "velocity": 110, "channel": 0}, {"type": "note_off", "time": 81, "note": 73, "velocity": 110, "channel": 0}, {"type": "note_on", "time": 0, "note": 72, "velocity": 110, "channel": 0}, {"type": "note_off", "time": 26, "note": 72, "velocity": 110, "channel": 0}, {"type": "note_on", "time": 1, "note": 71, "velocity": 115, "channel": 0}, {"type": "note_off", "time": 24, "note": 71, "velocity": 115, "channel": 0}, {"type": "note_on", "time": 22, "note": 70, "velocity": 109, "channel": 0}, {"type": "note_off", "time": 115, "note": 70, "velocity": 109, "channel": 0}, {"type": "note_on", "time": 17, "note": 70, "velocity": 108, "channel": 0}, {"type": "note_off", "time": 115, "note": 70, "velocity": 108, "channel": 0}, {"type": "note_on", "time": 7, "note": 67, "velocity": 103, "channel": 0}, {"type": "note_off", "time": 62, "note": 67, "velocity": 103, "channel": 0}, {"type": "note_on", "time": 39, "note": 66, "velocity": 100, "channel": 0}, {"type": "note_off", "time": 208, "note": 66, "velocity": 100, "channel": 0}, {"type": "note_on", "time": 11, "note": 65, "velocity": 110, "channel": 0}, {"type": "note_off", "time": 75, "note": 65, "velocity": 110, "channel": 0}, {"type": "note_on", "time": 0, "note": 64, "velocity": 112, "channel": 0}, {"type": "note_off", "time": 51, "note": 64, "velocity": 112, "channel": 0}, {"type": "note_on", "time": 5, "note": 63, "velocity": 115, "channel": 0}, {"type": "note_off", "time": 140, "note": 63, "velocity": 115, "channel": 0}, {"type": "note_on", "time": 15, "note": 61, "velocity": 103, "channel": 0}, {"type": "note_off", "time": 62, "note": 61, "velocity": 103, "channel": 0}, {"type": "note_on", "time": 13, "note": 60, "velocity": 101, "channel": 0}, {"type": "note_off", "time": 238, "note": 60, "velocity": 101, "channel": 0}, {"type": "note_on", "time": 36, "note": 58, "velocity": 99, "channel": 0}, {"type": "note_off", "time": 58, "note": 58, "velocity": 99, "channel": 0}, {"type": "note_on", "time": 37, "note": 57, "velocity": 106, "channel": 0}, {"type": "note_off", "time": 111, "note": 57, "velocity": 106, "channel": 0}, {"type": "note_on", "time": 28, "note": 65, "velocity": 101, "channel": 0}, {"type": "note_off", "time": 47, "note": 65, "velocity": 101, "channel": 0}, {"type": "note_on", "time": 3, "note": 66, "velocity": 105, "channel": 0}, {"type": "note_off", "time": 39, "note": 66, "velocity": 105, "channel": 0}, {"type": "note_on", "time": 20, "note": 65, "velocity": 100, "channel": 0}, {"type": "note_off", "time": 49, "note": 65, "velocity": 100, "channel": 0}, {"type": "note_on", "time": 22, "note": 63, "velocity": 97, "channel": 0}, {"type": "note_off", "time": 72, "note": 63, "velocity": 97, "channel": 0}, {"type": "note_on", "time": 3, "note": 65, "velocity": 107, "channel": 0}, {"type": "note_off", "time": 248, "note": 65, "velocity": 107, "channel": 0}, {"type": "note_on", "time": 378, "note": 62, "velocity": 115, "channel": 0}, {"type": "note_off", "time": 92, "note": 62, "velocity": 115, "channel": 0}, {"type": "note_on", "time": 0, "note": 63, "velocity": 118, "channel": 0}, {"type": "note_off", "time": 81, "note": 63, "velocity": 118, "channel": 0}, {"type": "note_on", "time": 17, "note": 61, "velocity": 106, "channel": 0}, {"type": "note_off", "time": 111, "note": 61, "velocity": 106, "channel": 0}, {"type": "note_on", "time": 3, "note": 69, "velocity": 112, "channel": 0}, {"type": "note_off", "time": 70, "note": 69, "velocity": 112, "channel": 0}, {"type": "note_on", "time": 13, "note": 63, "velocity": 99, "channel": 0}, {"type": "note_off", "time": 79, "note": 63, "velocity": 99, "channel": 0}, {"type": "note_on", "time": 28, "note": 65, "velocity": 106, "channel": 0}, {"type": "note_off", "time": 100, "note": 65, "velocity": 106, "channel": 0}, {"type": "note_on", "time": 24, "note": 65, "velocity": 102, "channel": 0}, {"type": "note_off", "time": 132, "note": 65, "velocity": 102, "channel": 0}, {"type": "note_on", "time": 29, "note": 67, "velocity": 101, "channel": 0}, {"type": "note_off", "time": 24, "note": 67, "velocity": 101, "channel": 0}, {"type": "note_on", "time": 4, "note": 70, "velocity": 104, "channel": 0}, {"type": "note_off", "time": 18, "note": 70, "velocity": 104, "channel": 0}, {"type": "note_on", "time": 7, "note": 72, "velocity": 102, "channel": 0}, {"type": "note_off", "time": 28, "note": 72, "velocity": 102, "channel": 0}, {"type": "note_on", "time": 13, "note": 67, "velocity": 102, "channel": 0}, {"type": "note_off", "time": 104, "note": 67, "velocity": 102, "channel": 0}, {"type": "note_on", "time": 20, "note": 65, "velocity": 106, "channel": 0}, {"type": "note_off", "time": 145, "note": 65, "velocity": 106, "channel": 0}, {"type": "note_on", "time": 606, "note": 70, "velocity": 97, "channel": 0}, {"type": "note_off", "time": 75, "note": 70, "velocity": 97, "channel": 0}, {"type": "note_on", "time": 22, "note": 70, "velocity": 96, "channel": 0}, {"type": "note_off", "time": 77, "note": 70, "velocity": 96, "channel": 0}, {"type": "note_on", "time": 15, "note": 70, "velocity": 94, "channel": 0}, {"type": "note_off", "time": 62, "note": 70, "velocity": 94, "channel": 0}, {"type": "note_on", "time": 26, "note": 70, "velocity": 100, "channel": 0}, {"type": "note_off", "time": 47, "note": 70, "velocity": 100, "channel": 0}, {"type": "note_on", "time": 30, "note": 70, "velocity": 105, "channel": 0}, {"type": "note_off", "time": 58, "note": 70, "velocity": 105, "channel": 0}, {"type": "note_on", "time": 62, "note": 70, "velocity": 109, "channel": 0}, {"type": "note_off", "time": 53, "note": 70, "velocity": 109, "channel": 0}, {"type": "note_on", "time": 36, "note": 70, "velocity": 113, "channel": 0}, {"type": "note_off", "time": 70, "note": 70, "velocity": 113, "channel": 0}, {"type": "note_on", "time": 22, "note": 70, "velocity": 112, "channel": 0}, {"type": "note_off", "time": 66, "note": 70, "velocity": 112, "channel": 0}, {"type": "note_on", "time": 34, "note": 70, "velocity": 109, "channel": 0}, {"type": "note_off", "time": 66, "note": 70, "velocity": 109, "channel": 0}, {"type": "note_on", "time": 17, "note": 70, "velocity": 111, "channel": 0}, {"type": "note_off", "time": 66, "note": 70, "velocity": 111, "channel": 0}, {"type": "note_on", "time": 43, "note": 70, "velocity": 108, "channel": 0}, {"type": "note_off", "time": 134, "note": 70, "velocity": 108, "channel": 0}, {"type": "note_on", "time": 159, "note": 73, "velocity": 97, "channel": 0}, {"type": "note_off", "time": 73, "note": 73, "velocity": 97, "channel": 0}, {"type": "note_on", "time": 238, "note": 58, "velocity": 88, "channel": 0}, {"type": "note_off", "time": 70, "note": 58, "velocity": 88, "channel": 0}, {"type": "note_on", "time": 7, "note": 58, "velocity": 102, "channel": 0}, {"type": "note_off", "time": 73, "note": 58, "velocity": 102, "channel": 0}, {"type": "note_on", "time": 15, "note": 58, "velocity": 96, "channel": 0}, {"type": "note_off", "time": 56, "note": 58, "velocity": 96, "channel": 0}, {"type": "note_on", "time": 34, "note": 58, "velocity": 103, "channel": 0}, {"type": "note_off", "time": 68, "note": 58, "velocity": 103, "channel": 0}, {"type": "note_on", "time": 36, "note": 58, "velocity": 98, "channel": 0}, {"type": "note_off", "time": 43, "note": 58, "velocity": 98, "channel": 0}, {"type": "note_on", "time": 41, "note": 58, "velocity": 97, "channel": 0}, {"type": "note_off", "time": 58, "note": 58, "velocity": 97, "channel": 0}, {"type": "note_on", "time": 26, "note": 58, "velocity": 104, "channel": 0}, {"type": "note_off", "time": 64, "note": 58, "velocity": 104, "channel": 0}, {"type": "note_on", "time": 34, "note": 58, "velocity": 112, "channel": 0}, {"type": "note_off", "time": 56, "note": 58, "velocity": 112, "channel": 0}, {"type": "note_on", "time": 28, "note": 58, "velocity": 99, "channel": 0}, {"type": "note_off", "time": 53, "note": 58, "velocity": 99, "channel": 0}, {"type": "note_on", "time": 53, "note": 58, "velocity": 106, "channel": 0}, {"type": "note_off", "time": 62, "note": 58, "velocity": 106, "channel": 0}, {"type": "note_on", "time": 11, "note": 60, "velocity": 113, "channel": 0}, {"type": "note_off", "time": 49, "note": 60, "velocity": 113, "channel": 0}, {"type": "note_on", "time": 3, "note": 61, "velocity": 112, "channel": 0}, {"type": "note_off", "time": 117, "note": 61, "velocity": 112, "channel": 0}, {"type": "note_on", "time": 32, "note": 60, "velocity": 114, "channel": 0}, {"type": "note_off", "time": 36, "note": 60, "velocity": 114, "channel": 0}, {"type": "note_on", "time": 0, "note": 61, "velocity": 111, "channel": 0}, {"type": "note_off", "time": 111, "note": 61, "velocity": 111, "channel": 0}, {"type": "note_on", "time": 28, "note": 58, "velocity": 97, "channel": 0}, {"type": "note_off", "time": 92, "note": 58, "velocity": 97, "channel": 0}, {"type": "note_on", "time": 22, "note": 53, "velocity": 113, "channel": 0}, {"type": "note_off", "time": 68, "note": 53, "velocity": 113, "channel": 0}, {"type": "note_on", "time": 43, "note": 57, "velocity": 104, "channel": 0}, {"type": "note_off", "time": 72, "note": 57, "velocity": 104, "channel": 0}, {"type": "note_on", "time": 17, "note": 60, "velocity": 114, "channel": 0}, {"type": "note_off", "time": 89, "note": 60, "velocity": 114, "channel": 0}, {"type": "note_on", "time": 3, "note": 58, "velocity": 98, "channel": 0}, {"type": "note_off", "time": 136, "note": 58, "velocity": 98, "channel": 0}, {"type": "note_on", "time": 0, "note": 55, "velocity": 96, "channel": 0}, {"type": "note_off", "time": 354, "note": 55, "velocity": 96, "channel": 0}, {"type": "end_of_track", "time": 0}]]}