{"ticks_per_beat": 192, "tracks": [[{"type": "track_name", "name": "Melody", "time": 0}, {"type": "set_tempo", "tempo": 331491, "time": 0}, {"type": "key_signature", "key": "Bb", "time": 0}, {"type": "time_signature", "numerator": 4, "denominator": 4, "clocks_per_click": 24, "notated_32nd_notes_per_beat": 8, "time": 0}, {"type": "note_on", "time": 1626, "note": 60, "velocity": 118, "channel": 0}, {"type": "note_off", "time": 96, "note": 60, "velocity": 118, "channel": 0}, {"type": "note_on", "time": 11, "note": 55, "velocity": 113, "channel": 0}, {"type": "note_off", "time": 157, "note": 55, "velocity": 113, "channel": 0}, {"type": "note_on", "time": 105, "note": 58, "velocity": 106, "channel": 0}, {"type": "note_off", "time": 154, "note": 58, "velocity": 106, "channel": 0}, {"type": "note_on", "time": 51, "note": 58, "velocity": 99, "channel": 0}, {"type": "note_off", "time": 82, "note": 58, "velocity": 99, "channel": 0}, {"type": "note_on", "time": 49, "note": 60, "velocity": 109, "channel": 0}, {"type": "note_off", "time": 52, "note": 60, "velocity": 109, "channel": 0}, {"type": "note_on", "time": 15, "note": 62, "velocity": 108, "channel": 0}, {"type": "note_off", "time": 56, "note": 62, "velocity": 108, "channel": 0}, {"type": "note_on", "time": 11, "note": 62, "velocity": 117, "channel": 0}, {"type": "note_off", "time": 56, "note": 62, "velocity": 117, "channel": 0}, {"type": "note_on", "time": 7, "note": 60, "velocity": 107, "channel": 0}, {"type": "note_off", "time": 50, "note": 60, "velocity": 107, "channel": 0}, {"type": "note_on", "time": 15, "note": 58, "velocity": 99, "channel": 0}, {"type": "note_off", "time": 108, "note": 58, "velocity": 99, "channel": 0}, {"type": "note_on", "time": 85, "note": 63, "velocity": 119, "channel": 0}, {"type": "note_off", "time": 100, "note": 63, "velocity": 119, "channel": 0}, {"type": "note_on", "time": 29, "note": 65, "velocity": 112, "channel": 0}, {"type": "note_off", "time": 53, "note": 65, "velocity": 112, "channel": 0}, {"type": "note_on", "time": 36, "note": 67, "velocity": 109, "channel": 0}, {"type": "note_off", "time": 83, "note": 67, "velocity": 109, "channel": 0}, {"type": "note_on", "time": 54, "note": 65, "velocity": 117, "channel": 0}, {"type": "note_off", "time": 78, "note": 65, "velocity": 117, "channel": 0}, {"type": "note_on", "time": 78, "note": 70, "velocity": 117, "channel": 0}, {"type": "note_off", "time": 109, "note": 70, "velocity": 117, "channel": 0}, {"type": "note_on", "time": 84, "note": 69, "velocity": 117, "channel": 0}, {"type": "note_off", "time": 96, "note": 69, "velocity": 117, "channel": 0}, {"type": "note_on", "time": 10, "note": 70, "velocity": 119, "channel": 0}, {"type": "note_off", "time": 92, "note": 70, "velocity": 119, "channel": 0}, {"type": "note_on", "time": 50, "note": 65, "velocity": 116, "channel": 0}, {"type": "note_off", "time": 102, "note": 65, "velocity": 116, "channel": 0}, {"type": "note_on", "time": 47, "note": 64, "velocity": 116, "channel": 0}, {"type": "note_off", "time": 100, "note": 64, "velocity": 116, "channel": 0}, {"type": "note_on", "time": 8, "note": 65, "velocity": 113, "channel": 0}, {"type": "note_off", "time": 107, "note": 65, "velocity": 113, "channel": 0}, {"type": "note_on", "time": 77, "note": 67, "velocity": 112, "channel": 0}, {"type": "note_off", "time": 98, "note": 67, "velocity": 112, "channel": 0}, {"type": "note_on", "time": 10, "note": 68, "velocity": 117, "channel": 0}, {"type": "note_off", "time": 69, "note": 68, "velocity": 117, "channel": 0}, {"type": "note_on", "time": 27, "note": 65, "velocity": 112, "channel": 0}, {"type": "note_off", "time": 67, "note": 65, "velocity": 112, "channel": 0}, {"type": "note_on", "time": 22, "note": 62, "velocity": 118, "channel": 0}, {"type": "note_off", "time": 80, "note": 62, "velocity": 118, "channel": 0}, {"type": "note_on", "time": 109, "note": 58, "velocity": 93, "channel": 0}, {"type": "note_off", "time": 37, "note": 58, "velocity": 93, "channel": 0}, {"type": "note_on", "time": 5, "note": 59, "velocity": 87, "channel": 0}, {"type": "note_off", "time": 51, "note": 59, "velocity": 87, "channel": 0}, {"type": "note_on", "time": 17, "note": 67, "velocity": 113, "channel": 0}, {"type": "note_off", "time": 82, "note": 67, "velocity": 113, "channel": 0}, {"type": "note_on", "time": 19, "note": 65, "velocity": 113, "channel": 0}, {"type": "note_off", "time": 91, "note": 65, "velocity": 113, "channel": 0}, {"type": "note_on", "time": 84, "note": 62, "velocity": 113, "channel": 0}, {"type": "note_off", "time": 63, "note": 62, "velocity": 113, "channel": 0}, {"type": "note_on", "time": 4, "note": 63, "velocity": 114, "channel": 0}, {"type": "note_off", "time": 144, "note": 63, "velocity": 114, "channel": 0}, {"type": "note_on", "time": 9, "note": 58, "velocity": 99, "channel": 0}, {"type": "note_off", "time": 83, "note": 58, "velocity": 99, "channel": 0}, {"type": "note_on", "time": 440, "note": 60, "velocity": 115, "channel": 0}, {"type": "note_off", "time": 60, "note": 60, "velocity": 115, "channel": 0}, {"type": "note_on", "time": 6, "note": 61, "velocity": 122, "channel": 0}, {"type": "note_off", "time": 92, "note": 61, "velocity": 122, "channel": 0}, {"type": "note_on", "time": 3, "note": 60, "velocity": 109, "channel": 0}, {"type": "note_off", "time": 41, "note": 60, "velocity": 109, "channel": 0}, {"type": "note_on", "time": 2, "note": 61, "velocity": 114, "channel": 0}, {"type": "note_off", "time": 73, "note": 61, "velocity": 114, "channel": 0}, {"type": "note_on", "time": 18, "note": 65, "velocity": 115, "channel": 0}, {"type": "note_off", "time": 88, "note": 65, "velocity": 115, "channel": 0}, {"type": "note_on", "time": 1, "note": 64, "velocity": 112, "channel": 0}, {"type": "note_off", "time": 47, "note": 64, "velocity": 112, "channel": 0}, {"type": "note_on", "time": 53, "note": 68, "velocity": 114, "channel": 0}, {"type": "note_off", "time": 88, "note": 68, "velocity": 114, "channel": 0}, {"type": "note_on", "time": 22, "note": 68, "velocity": 96, "channel": 0}, {"type": "note_off", "time": 39, "note": 68, "velocity": 96, "channel": 0}, {"type": "note_on", "time": 23, "note": 70, "velocity": 109, "channel": 0}, {"type": "note_off", "time": 78, "note": 70, "velocity": 109, "channel": 0}, {"type": "note_on", "time": 2, "note": 72, "velocity": 114, "channel": 0}, {"type": "note_off", "time": 67, "note": 72, "velocity": 114, "channel": 0}, {"type": "note_on", "time": 3, "note": 70, "velocity": 101, "channel": 0}, {"type": "note_off", "time": 296, "note": 70, "velocity": 101, "channel": 0}, {"type": "note_on", "time": 679, "note": 69, "velocity": 120, "channel": 0}, {"type": "note_off", "time": 85, "note": 69, "velocity": 120, "channel": 0}, {"type": "note_on", "time": 11, "note": 67, "velocity": 110, "channel": 0}, {"type": "note_off", "time": 81, "note": 67, "velocity": 110, "channel": 0}, {"type": "note_on", "time": 23, "note": 70, "velocity": 117, "channel": 0}, {"type": "note_off", "time": 75, "note": 70, "velocity": 117, "channel": 0}, {"type": "note_on", "time": 26, "note": 67, "velocity": 115, "channel": 0}, {"type": "note_off", "time": 72, "note": 67, "velocity": 115, "channel": 0}, {"type": "note_on", "time": 24, "note": 63, "velocity": 118, "channel": 0}, {"type": "note_off", "time": 89, "note": 63, "velocity": 118, "channel": 0}, {"type": "note_on", "time": 7, "note": 58, "velocity": 97, "channel": 0}, {"type": "note_off", "time": 47, "note": 58, "velocity": 97, "channel": 0}, {"type": "note_on", "time": 93, "note": 62, "velocity": 118, "channel": 0}, {"type": "note_off", "time": 229, "note": 62, "velocity": 118, "channel": 0}, {"type": "note_on", "time": 42, "note": 65, "velocity": 117, "channel": 0}, {"type": "note_off", "time": 109, "note": 65, "velocity": 117, "channel": 0}, {"type": "note_on", "time": 232, "note": 62, "velocity": 116, "channel": 0}, {"type": "note_off", "time": 88, "note": 62, "velocity": 116, "channel": 0}, {"type": "note_on", "time": 11, "note": 63, "velocity": 120, "channel": 0}, {"type": "note_off", "time": 103, "note": 63, "velocity": 120, "channel": 0}, {"type": "note_on", "time": 2, "note": 65, "velocity": 113, "channel": 0}, {"type": "note_off", "time": 85, "note": 65, "velocity": 113, "channel": 0}, {"type": "note_on", "time": 12, "note": 67, "velocity": 113, "channel": 0}, {"type": "note_off", "time": 86, "note": 67, "velocity": 113, "channel": 0}, {"type": "note_on", "time": 16, "note": 69, "velocity": 114, "channel": 0}, {"type": "note_off", "time": 69, "note": 69, "velocity": 114, "channel": 0}, {"type": "note_on", "time": 23, "note": 74, "velocity": 108, "channel": 0}, {"type": "note_off", "time": 85, "note": 74, "velocity": 108, "channel": 0}, {"type": "note_on", "time": 104, "note": 65, "velocity": 104, "channel": 0}, {"type": "note_off", "time": 96, "note": 65, "velocity": 104, "channel": 0}, {"type": "note_on", "time": 26, "note": 70, "velocity": 117, "channel": 0}, {"type": "note_off", "time": 89, "note": 70, "velocity": 117, "channel": 0}, {"type": "note_on", "time": 381, "note": 68, "velocity": 114, "channel": 0}, {"type": "note_off", "time": 82, "note": 68, "velocity": 114, "channel": 0}, {"type": "note_on", "time": 17, "note": 68, "velocity": 114, "channel": 0}, {"type": "note_off", "time": 52, "note": 68, "velocity": 114, "channel": 0}, {"type": "note_on", "time": 51, "note": 67, "velocity": 109, "channel": 0}, {"type": "note_off", "time": 81, "note": 67, "velocity": 109, "channel": 0}, {"type": "note_on", "time": 12, "note": 67, "velocity": 111, "channel": 0}, {"type": "note_off", "time": 69, "note": 67, "velocity": 111, "channel": 0}, {"type": "note_on", "time": 17, "note": 65, "velocity": 109, "channel": 0}, {"type": "note_off", "time": 231, "note": 65, "velocity": 109, "channel": 0}, {"type": "note_on", "time": 55, "note": 63, "velocity": 120, "channel": 0}, {"type": "note_off", "time": 69, "note": 63, "velocity": 120, "channel": 0}, {"type": "note_on", "time": 13, "note": 61, "velocity": 110, "channel": 0}, {"type": "note_off", "time": 57, "note": 61, "velocity": 110, "channel": 0}, {"type": "note_on", "time": 10, "note": 62, "velocity": 110, "channel": 0}, {"type": "note_off", "time": 114, "note": 62, "velocity": 110, "channel": 0}, {"type": "note_on", "time": 36, "note": 65, "velocity": 116, "channel": 0}, {"type": "note_off", "time": 89, "note": 65, "velocity": 116, "channel": 0}, {"type": "note_on", "time": 11, "note": 58, "velocity": 92, "channel": 0}, {"type": "note_off", "time": 273, "note": 58, "velocity": 92, "channel": 0}, {"type": "note_on", "time": 22, "note": 60, "velocity": 112, "channel": 0}, {"type": "note_off", "time": 91, "note": 60, "velocity": 112, "channel": 0}, {"type": "note_on", "time": 20, "note": 58, "velocity": 97, "channel": 0}, {"type": "note_off", "time": 49, "note": 58, "velocity": 97, "channel": 0}, {"type": "note_on", "time": 41, "note": 61, "velocity": 112, "channel": 0}, {"type": "note_off", "time": 46, "note": 61, "velocity": 112, "channel": 0}, {"type": "note_on", "time": 5, "note": 62, "velocity": 111, "channel": 0}, {"type": "note_off", "time": 68, "note": 62, "velocity": 111, "channel": 0}, {"type": "note_on", "time": 31, "note": 65, "velocity": 116, "channel": 0}, {"type": "note_off", "time": 94, "note": 65, "velocity": 116, "channel": 0}, {"type": "note_on", "time": 55, "note": 63, "velocity": 117, "channel": 0}, {"type": "note_off", "time": 258, "note": 63, "velocity": 117, "channel": 0}, {"type": "note_on", "time": 23, "note": 65, "velocity": 110, "channel": 0}, {"type": "note_off", "time": 96, "note": 65, "velocity": 110, "channel": 0}, {"type": "note_on", "time": 1, "note": 63, "velocity": 113, "channel": 0}, {"type": "note_off", "time": 66, "note": 63, "velocity": 113, "channel": 0}, {"type": "note_on", "time": 4, "note": 66, "velocity": 108, "channel": 0}, {"type": "note_off", "time": 68, "note": 66, "velocity": 108, "channel": 0}, {"type": "note_on", "time": 2, "note": 67, "velocity": 107, "channel": 0}, {"type": "note_off", "time": 56, "note": 67, "velocity": 107, "channel": 0}, {"type": "note_on", "time": 23, "note": 58, "velocity": 95, "channel": 0}, {"type": "note_off", "time": 119, "note": 58, "velocity": 95, "channel": 0}, {"type": "note_on", "time": 280, "note": 57, "velocity": 97, "channel": 0}, {"type": "note_off", "time": 36, "note": 57, "velocity": 97, "channel": 0}, {"type": "note_on", "time": 29, "note": 60, "velocity": 111, "channel": 0}, {"type": "note_off", "time": 111, "note": 60, "velocity": 111, "channel": 0}, {"type": "note_on", "time": 14, "note": 58, "velocity": 92, "channel": 0}, {"type": "note_off", "time": 54, "note": 58, "velocity": 92, "channel": 0}, {"type": "note_on", "time": 5, "note": 61, "velocity": 112, "channel": 0}, {"type": "note_off", "time": 50, "note": 61, "velocity": 112, "channel": 0}, {"type": "note_on", "time": 5, "note": 62, "velocity": 115, "channel": 0}, {"type": "note_off", "time": 77, "note": 62, "velocity": 115, "channel": 0}, {"type": "note_on", "time": 6, "note": 65, "velocity": 113, "channel": 0}, {"type": "note_off", "time": 61, "note": 65, "velocity": 113, "channel": 0}, {"type": "note_on", "time": 27, "note": 67, "velocity": 114, "channel": 0}, {"type": "note_off", "time": 74, "note": 67, "velocity": 114, "channel": 0}, {"type": "note_on", "time": 21, "note": 68, "velocity": 113, "channel": 0}, {"type": "note_off", "time": 238, "note": 68, "velocity": 113, "channel": 0}, {"type": "note_on", "time": 18, "note": 67, "velocity": 116, "channel": 0}, {"type": "note_off", "time": 91, "note": 67, "velocity": 116, "channel": 0}, {"type": "note_on", "time": 13, "note": 66, "velocity": 106, "channel": 0}, {"type": "note_off", "time": 59, "note": 66, "velocity": 106, "channel": 0}, {"type": "note_on", "time": 25, "note": 66, "velocity": 104, "channel": 0}, {"type": "note_off", "time": 96, "note": 66, "velocity": 104, "channel": 0}, {"type": "note_on", "time": 22, "note": 58, "velocity": 96, "channel": 0}, {"type": "note_off", "time": 47, "note": 58, "velocity": 96, "channel": 0}, {"type": "note_on", "time": 553, "note": 58, "velocity": 98, "channel": 0}, {"type": "note_off", "time": 34, "note": 58, "velocity": 98, "channel": 0}, {"type": "note_on", "time": 33, "note": 63, "velocity": 123, "channel": 0}, {"type": "note_off", "time": 123, "note": 63, "velocity": 123, "channel": 0}, {"type": "note_on", "time": 29, "note": 58, "velocity": 89, "channel": 0}, {"type": "note_off", "time": 39, "note": 58, "velocity": 89, "channel": 0}, {"type": "note_on", "time": 10, "note": 63, "velocity": 119, "channel": 0}, {"type": "note_off", "time": 99, "note": 63, "velocity": 119, "channel": 0}, {"type": "note_on", "time": 12, "note": 67, "velocity": 105, "channel": 0}, {"type": "note_off", "time": 41, "note": 67, "velocity": 105, "channel": 0}, {"type": "note_on", "time": 55, "note": 72, "velocity": 101, "channel": 0}, {"type": "note_off", "time": 86, "note": 72, "velocity": 101, "channel": 0}, {"type": "note_on", "time": 6, "note": 70, "velocity": 109, "channel": 0}, {"type": "note_off", "time": 81, "note": 70, "velocity": 109, "channel": 0}, {"type": "note_on", "time": 14, "note": 67, "velocity": 110, "channel": 0}, {"type": "note_off", "time": 83, "note": 67, "velocity": 110, "channel": 0}, {"type": "note_on", "time": 15, "note": 63, "velocity": 120, "channel": 0}, {"type": "note_off", "time": 395, "note": 63, "velocity": 120, "channel": 0}, {"type": "note_on", "time": 450, "note": 58, "velocity": 98, "channel": 0}, {"type": "note_off", "time": 104, "note": 58, "velocity": 98, "channel": 0}, {"type": "note_on", "time": 33, "note": 53, "velocity": 97, "channel": 0}, {"type": "note_off", "time": 46, "note": 53, "velocity": 97, "channel": 0}, {"type": "note_on", "time": 21, "note": 58, "velocity": 90, "channel": 0}, {"type": "note_off", "time": 75, "note": 58, "velocity": 90, "channel": 0}, {"type": "note_on", "time": 25, "note": 62, "velocity": 120, "channel": 0}, {"type": "note_off", "time": 54, "note": 62, "velocity": 120, "channel": 0}, {"type": "note_on", "time": 19, "note": 67, "velocity": 114, "channel": 0}, {"type": "note_off", "time": 88, "note": 67, "velocity": 114, "channel": 0}, {"type": "note_on", "time": 15, "note": 65, "velocity": 112, "channel": 0}, {"type": "note_off", "time": 69, "note": 65, "velocity": 112, "channel": 0}, {"type": "note_on", "time": 23, "note": 62, "velocity": 117, "channel": 0}, {"type": "note_off", "time": 105, "note": 62, "velocity": 117, "channel": 0}, {"type": "note_on", "time": 12, "note": 58, "velocity": 98, "channel": 0}, {"type": "note_off", "time": 101, "note": 58, "velocity": 98, "channel": 0}, {"type": "note_on", "time": 96, "note": 61, "velocity": 120, "channel": 0}, {"type": "note_off", "time": 82, "note": 61, "velocity": 120, "channel": 0}, {"type": "note_on", "time": 7, "note": 62, "velocity": 119, "channel": 0}, {"type": "note_off", "time": 138, "note": 62, "velocity": 119, "channel": 0}, {"type": "note_on", "time": 14, "note": 58, "velocity": 96, "channel": 0}, {"type": "note_off", "time": 135, "note": 58, "velocity": 96, "channel": 0}, {"type": "note_on", "time": 23, "note": 58, "velocity": 100, "channel": 0}, {"type": "note_off", "time": 79, "note": 58, "velocity": 100, "channel": 0}, {"type": "note_on", "time": 555, "note": 60, "velocity": 115, "channel": 0}, {"type": "note_off", "time": 91, "note": 60, "velocity": 115, "channel": 0}, {"type": "note_on", "time": 17, "note": 62, "velocity": 121, "channel": 0}, {"type": "note_off", "time": 76, "note": 62, "velocity": 121, "channel": 0}, {"type": "note_on", "time": 23, "note": 63, "velocity": 125, "channel": 0}, {"type": "note_off", "time": 91, "note": 63, "velocity": 125, "channel": 0}, {"type": "note_on", "time": 8, "note": 65, "velocity": 115, "channel": 0}, {"type": "note_off", "time": 68, "note": 65, "velocity": 115, "channel": 0}, {"type": "note_on", "time": 18, "note": 61, "velocity": 121, "channel": 0}, {"type": "note_off", "time": 52, "note": 61, "velocity": 121, "channel": 0}, {"type": "note_on", "time": 7, "note": 62, "velocity": 119, "channel": 0}, {"type": "note_off", "time": 69, "note": 62, "velocity": 119, "channel": 0}, {"type": "note_on", "time": 9, "note": 65, "velocity": 109, "channel": 0}, {"type": "note_off", "time": 31, "note": 65, "velocity": 109, "channel": 0}, {"type": "note_on", "time": 29, "note": 67, "velocity": 113, "channel": 0}, {"type": "note_off", "time": 104, "note": 67, "velocity": 113, "channel": 0}, {"type": "note_on", "time": 16, "note": 70, "velocity": 109, "channel": 0}, {"type": "note_off", "time": 261, "note": 70, "velocity": 109, "channel": 0}, {"type": "note_on", "time": 18, "note": 68, "velocity": 116, "channel": 0}, {"type": "note_off", "time": 51, "note": 68, "velocity": 116, "channel": 0}, {"type": "note_on", "time": 2, "note": 70, "velocity": 103, "channel": 0}, {"type": "note_off", "time": 23, "note": 70, "velocity": 103, "channel": 0}, {"type": "note_on", "time": 7, "note": 68, "velocity": 109, "channel": 0}, {"type": "note_off", "time": 27, "note": 68, "velocity": 109, "channel": 0}, {"type": "note_on", "time": 6, "note": 65, "velocity": 111, "channel": 0}, {"type": "note_off", "time": 59, "note": 65, "velocity": 111, "channel": 0}, {"type": "note_on", "time": 11, "note": 63, "velocity": 123, "channel": 0}, {"type": "note_off", "time": 114, "note": 63, "velocity": 123, "channel": 0}, {"type": "note_on", "time": 27, "note": 65, "velocity": 107, "channel": 0}, {"type": "note_off", "time": 241, "note": 65, "velocity": 107, "channel": 0}, {"type": "note_on", "time": 127, "note": 70, "velocity": 111, "channel": 0}, {"type": "note_off", "time": 101, "note": 70, "velocity": 111, "channel": 0}, {"type": "note_on", "time": 70, "note": 68, "velocity": 109, "channel": 0}, {"type": "note_off", "time": 27, "note": 68, "velocity": 109, "channel": 0}, {"type": "note_on", "time": 14, "note": 65, "velocity": 112, "channel": 0}, {"type": "note_off", "time": 63, "note": 65, "velocity": 112, "channel": 0}, {"type": "note_on", "time": 11, "note": 63, "velocity": 120, "channel": 0}, {"type": "note_off", "time": 70, "note": 63, "velocity": 120, "channel": 0}, {"type": "note_on", "time": 3, "note": 64, "velocity": 110, "channel": 0}, {"type": "note_off", "time": 16, "note": 64, "velocity": 110, "channel": 0}, {"type": "note_on", "time": 2, "note": 63, "velocity": 117, "channel": 0}, {"type": "note_off", "time": 49, "note": 63, "velocity": 117, "channel": 0}, {"type": "note_on", "time": 7, "note": 61, "velocity": 111, "channel": 0}, {"type": "note_off", "time": 70, "note": 61, "velocity": 111, "channel": 0}, {"type": "note_on", "time": 2, "note": 58, "velocity": 97, "channel": 0}, {"type": "note_off", "time": 74, "note": 58, "velocity": 97, "channel": 0}, {"type": "note_on", "time": 4, "note": 56, "velocity": 103, "channel": 0}, {"type": "note_off", "time": 60, "note": 56, "velocity": 103, "channel": 0}, {"type": "note_on", "time": 20, "note": 58, "velocity": 93, "channel": 0}, {"type": "note_off", "time": 330, "note": 58, "velocity": 93, "channel": 0}, {"type": "note_on", "time": 8, "note": 55, "velocity": 97, "channel": 0}, {"type": "note_off", "time": 30, "note": 55, "velocity": 97, "channel": 0}, {"type": "note_on", "time": 20, "note": 58, "velocity": 94, "channel": 0}, {"type": "note_off", "time": 129, "note": 58, "velocity": 94, "channel": 0}, {"type": "note_on", "time": 13, "note": 58, "velocity": 97, "channel": 0}, {"type": "note_off", "time": 49, "note": 58, "velocity": 97, "channel": 0}, {"type": "note_on", "time": 302, "note": 70, "velocity": 115, "channel": 0}, {"type": "note_off", "time": 79, "note": 70, "velocity": 115, "channel": 0}, {"type": "note_on", "time": 15, "note": 68, "velocity": 104, "channel": 0}, {"type": "note_off", "time": 57, "note": 68, "velocity": 104, "channel": 0}, {"type": "note_on", "time": 2, "note": 70, "velocity": 88, "channel": 0}, {"type": "note_off", "time": 29, "note": 70, "velocity": 88, "channel": 0}, {"type": "note_on", "time": 6, "note": 68, "velocity": 103, "channel": 0}, {"type": "note_off", "time": 28, "note": 68, "velocity": 103, "channel": 0}, {"type": "note_on", "time": 5, "note": 65, "velocity": 102, "channel": 0}, {"type": "note_off", "time": 51, "note": 65, "velocity": 102, "channel": 0}, {"type": "note_on", "time": 14, "note": 63, "velocity": 115, "channel": 0}, {"type": "note_off", "time": 44, "note": 63, "velocity": 115, "channel": 0}, {"type": "note_on", "time": 4, "note": 65, "velocity": 102, "channel": 0}, {"type": "note_off", "time": 22, "note": 65, "velocity": 102, "channel": 0}, {"type": "note_on", "time": 3, "note": 63, "velocity": 116, "channel": 0}, {"type": "note_off", "time": 56, "note": 63, "velocity": 116, "channel": 0}, {"type": "note_on", "time": 5, "note": 61, "velocity": 109, "channel": 0}, {"type": "note_off", "time": 67, "note": 61, "velocity": 109, "channel": 0}, {"type": "note_on", "time": 3, "note": 58, "velocity": 96, "channel": 0}, {"type": "note_off", "time": 89, "note": 58, "velocity": 96, "channel": 0}, {"type": "note_on", "time": 16, "note": 56, "velocity": 97, "channel": 0}, {"type": "note_off", "time": 52, "note": 56, "velocity": 97, "channel": 0}, {"type": "note_on", "time": 11, "note": 58, "velocity": 94, "channel": 0}, {"type": "note_off", "time": 264, "note": 58, "velocity": 94, "channel": 0}, {"type": "note_on", "time": 71, "note": 56, "velocity": 93, "channel": 0}, {"type": "note_off", "time": 35, "note": 56, "velocity": 93, "channel": 0}, {"type": "note_on", "time": 39, "note": 58, "velocity": 98, "channel": 0}, {"type": "note_off", "time": 99, "note": 58, "velocity": 98, "channel": 0}, {"type": "note_on", "time": 12, "note": 61, "velocity": 116, "channel": 0}, {"type": "note_off", "time": 69, "note": 61, "velocity": 116, "channel": 0}, {"type": "note_on", "time": 301, "note": 70, "velocity": 112, "channel": 0}, {"type": "note_off", "time": 73, "note": 70, "velocity": 112, "channel": 0}, {"type": "note_on", "time": 2, "note": 68, "velocity": 98, "channel": 0}, {"type": "note_off", "time": 59, "note": 68, "velocity": 98, "channel": 0}, {"type": "note_on", "time": 8, "note": 70, "velocity": 83, "channel": 0}, {"type": "note_off", "time": 28, "note": 70, "velocity": 83, "channel": 0}, {"type": "note_on", "time": 7, "note": 68, "velocity": 101, "channel": 0}, {"type": "note_off", "time": 39, "note": 68, "velocity": 101, "channel": 0}, {"type": "note_on", "time": 8, "note": 65, "velocity": 110, "channel": 0}, {"type": "note_off", "time": 61, "note": 65, "velocity": 110, "channel": 0}, {"type": "note_on", "time": 13, "note": 63, "velocity": 118, "channel": 0}, {"type": "note_off", "time": 37, "note": 63, "velocity": 118, "channel": 0}, {"type": "note_on", "time": 9, "note": 65, "velocity": 108, "channel": 0}, {"type": "note_off", "time": 24, "note": 65, "velocity": 108, "channel": 0}, {"type": "note_on", "time": 9, "note": 63, "velocity": 121, "channel": 0}, {"type": "note_off", "time": 37, "note": 63, "velocity": 121, "channel": 0}, {"type": "note_on", "time": 8, "note": 61, "velocity": 114, "channel": 0}, {"type": "note_off", "time": 63, "note": 61, "velocity": 114, "channel": 0}, {"type": "note_on", "time": 3, "note": 58, "velocity": 98, "channel": 0}, {"type": "note_off", "time": 94, "note": 58, "velocity": 98, "channel": 0}, {"type": "note_on", "time": 12, "note": 56, "velocity": 103, "channel": 0}, {"type": "note_off", "time": 54, "note": 56, "velocity": 103, "channel": 0}, {"type": "note_on", "time": 15, "note": 58, "velocity": 100, "channel": 0}, {"type": "note_off", "time": 100, "note": 58, "velocity": 100, "channel": 0}, {"type": "note_on", "time": 93, "note": 58, "velocity": 99, "channel": 0}, {"type": "note_off", "time": 106, "note": 58, "velocity": 99, "channel": 0}, {"type": "note_on", "time": 20, "note": 58, "velocity": 100, "channel": 0}, {"type": "note_off", "time": 40, "note": 58, "velocity": 100, "channel": 0}, {"type": "note_on", "time": 39, "note": 61, "velocity": 114, "channel": 0}, {"type": "note_off", "time": 128, "note": 61, "velocity": 114, "channel": 0}, {"type": "note_on", "time": 57, "note": 61, "velocity": 116, "channel": 0}, {"type": "note_off", "time": 83, "note": 61, "velocity": 116, "channel": 0}, {"type": "note_on", "time": 24, "note": 61, "velocity": 114, "channel": 0}, {"type": "note_off", "time": 68, "note": 61, "velocity": 114, "channel": 0}, {"type": "note_on", "time": 24, "note": 58, "velocity": 90, "channel": 0}, {"type": "note_off", "time": 89, "note": 58, "velocity": 90, "channel": 0}, {"type": "note_on", "time": 18, "note": 61, "velocity": 112, "channel": 0}, {"type": "note_off", "time": 61, "note": 61, "velocity": 112, "channel": 0}, {"type": "note_on", "time": 20, "note": 63, "velocity": 117, "channel": 0}, {"type": "note_off", "time": 92, "note": 63, "velocity": 117, "channel": 0}, {"type": "note_on", "time": 130, "note": 65, "velocity": 112, "channel": 0}, {"type": "note_off", "time": 235, "note": 65, "velocity": 112, "channel": 0}, {"type": "note_on", "time": 52, "note": 63, "velocity": 121, "channel": 0}, {"type": "note_off", "time": 60, "note": 63, "velocity": 121, "channel": 0}, {"type": "note_on", "time": 30, "note": 61, "velocity": 107, "channel": 0}, {"type": "note_off", "time": 53, "note": 61, "velocity": 107, "channel": 0}, {"type": "note_on", "time": 5, "note": 62, "velocity": 111, "channel": 0}, {"type": "note_off", "time": 96, "note": 62, "velocity": 111, "channel": 0}, {"type": "note_on", "time": 29, "note": 58, "velocity": 101, "channel": 0}, {"type": "note_off", "time": 91, "note": 58, "velocity": 101, "channel": 0}, {"type": "note_on", "time": 29, "note": 58, "velocity": 95, "channel": 0}, {"type": "note_off", "time": 64, "note": 58, "velocity": 95, "channel": 0}, {"type": "note_on", "time": 27, "note": 60, "velocity": 111, "channel": 0}, {"type": "note_off", "time": 107, "note": 60, "velocity": 111, "channel": 0}, {"type": "note_on", "time": 114, "note": 55, "velocity": 108, "channel": 0}, {"type": "note_off", "time": 114, "note": 55, "velocity": 108, "channel": 0}, {"type": "note_on", "time": 18, "note": 58, "velocity": 93, "channel": 0}, {"type": "note_off", "time": 131, "note": 58, "velocity": 93, "channel": 0}, {"type": "note_on", "time": 7, "note": 60, "velocity": 107, "channel": 0}, {"type": "note_off", "time": 57, "note": 60, "velocity": 107, "channel": 0}, {"type": "note_on", "time": 21, "note": 62, "velocity": 122, "channel": 0}, {"type": "note_off", "time": 100, "note": 62, "velocity": 122, "channel": 0}, {"type": "note_on", "time": 120, "note": 60, "velocity": 113, "channel": 0}, {"type": "note_off", "time": 117, "note": 60, "velocity": 113, "channel": 0}, {"type": "note_on", "time": 17, "note": 58, "velocity": 102, "channel": 0}, {"type": "note_off", "time": 79, "note": 58, "velocity": 102, "channel": 0}, {"type": "note_on", "time": 290, "note": 58, "velocity": 118, "channel": 0}, {"type": "note_off", "time": 280, "note": 58, "velocity": 118, "channel": 0}, {"type": "note_on", "time": 17, "note": 55, "velocity": 93, "channel": 0}, {"type": "note_off", "time": 81, "note": 55, "velocity": 93, "channel": 0}, {"type": "note_on", "time": 49, "note": 51, "velocity": 109, "channel": 0}, {"type": "note_off", "time": 83, "note": 51, "velocity": 109, "channel": 0}, {"type": "note_on", "time": 283, "note": 60, "velocity": 113, "channel": 0}, {"type": "note_off", "time": 263, "note": 60, "velocity": 113, "channel": 0}, {"type": "note_on", "time": 14, "note": 58, "velocity": 101, "channel": 0}, {"type": "note_off", "time": 105, "note": 58, "velocity": 101, "channel": 0}, {"type": "note_on", "time": 10, "note": 54, "velocity": 100, "channel": 0}, {"type": "note_off", "time": 63, "note": 54, "velocity": 100, "channel": 0}, {"type": "note_on", "time": 300, "note": 61, "velocity": 113, "channel": 0}, {"type": "note_off", "time": 27, "note": 61, "velocity": 113, "channel": 0}, {"type": "note_on", "time": 3, "note": 62, "velocity": 120, "channel": 0}, {"type": "note_off", "time": 244, "note": 62, "velocity": 120, "channel": 0}, {"type": "note_on", "time": 17, "note": 58, "velocity": 96, "channel": 0}, {"type": "note_off", "time": 102, "note": 58, "velocity": 96, "channel": 0}, {"type": "note_on", "time": 31, "note": 55, "velocity": 105, "channel": 0}, {"type": "note_off", "time": 115, "note": 55, "velocity": 105, "channel": 0}, {"type": "note_on", "time": 78, "note": 62, "velocity": 120, "channel": 0}, {"type": "note_off", "time": 48, "note": 62, "velocity": 120, "channel": 0}, {"type": "note_on", "time": 4, "note": 63, "velocity": 118, "channel": 0}, {"type": "note_off", "time": 185, "note": 63, "velocity": 118, "channel": 0}, {"type": "note_on", "time": 20, "note": 60, "velocity": 110, "channel": 0}, {"type": "note_off", "time": 105, "note": 60, "velocity": 110, "channel": 0}, {"type": "note_on", "time": 12, "note": 57, "velocity": 106, "channel": 0}, {"type": "note_off", "time": 102, "note": 57, "velocity": 106, "channel": 0}, {"type": "note_on", "time": 85, "note": 64, "velocity": 121, "channel": 0}, {"type": "note_off", "time": 41, "note": 64, "velocity": 121, "channel": 0}, {"type": "note_on", "time": 6, "note": 65, "velocity": 114, "channel": 0}, {"type": "note_off", "time": 76, "note": 65, "velocity": 114, "channel": 0}, {"type": "note_on", "time": 68, "note": 63, "velocity": 113, "channel": 0}, {"type": "note_off", "time": 91, "note": 63, "velocity": 113, "channel": 0}, {"type": "note_on", "time": 16, "note": 62, "velocity": 111, "channel": 0}, {"type": "note_off", "time": 84, "note": 62, "velocity": 111, "channel": 0}, {"type": "note_on", "time": 14, "note": 63, "velocity": 121, "channel": 0}, {"type": "note_off", "time": 76, "note": 63, "velocity": 121, "channel": 0}, {"type": "note_on", "time": 9, "note": 65, "velocity": 115, "channel": 0}, {"type": "note_off", "time": 86, "note": 65, "velocity": 115, "channel": 0}, {"type": "note_on", "time": 85, "note": 58, "velocity": 97, "channel": 0}, {"type": "note_off", "time": 223, "note": 58, "velocity": 97, "channel": 0}, {"type": "note_on", "time": 367, "note": 60, "velocity": 111, "channel": 0}, {"type": "note_off", "time": 39, "note": 60, "velocity": 111, "channel": 0}, {"type": "note_on", "time": 12, "note": 62, "velocity": 111, "channel": 0}, {"type": "note_off", "time": 45, "note": 62, "velocity": 111, "channel": 0}, {"type": "note_on", "time": 4, "note": 63, "velocity": 112, "channel": 0}, {"type": "note_off", "time": 54, "note": 63, "velocity": 112, "channel": 0}, {"type": "note_on", "time": 15, "note": 67, "velocity": 109, "channel": 0}, {"type": "note_off", "time": 50, "note": 67, "velocity": 109, "channel": 0}, {"type": "note_on", "time": 6, "note": 69, "velocity": 115, "channel": 0}, {"type": "note_off", "time": 56, "note": 69, "velocity": 115, "channel": 0}, {"type": "note_on", "time": 1, "note": 70, "velocity": 116, "channel": 0}, {"type": "note_off", "time": 52, "note": 70, "velocity": 116, "channel": 0}, {"type": "note_on", "time": 4, "note": 72, "velocity": 108, "channel": 0}, {"type": "note_off", "time": 61, "note": 72, "velocity": 108, "channel": 0}, {"type": "note_on", "time": 3, "note": 74, "velocity": 109, "channel": 0}, {"type": "note_off", "time": 78, "note": 74, "velocity": 109, "channel": 0}, {"type": "note_on", "time": 406, "note": 74, "velocity": 110, "channel": 0}, {"type": "note_off", "time": 66, "note": 74, "velocity": 110, "channel": 0}, {"type": "note_on", "time": 2, "note": 73, "velocity": 111, "channel": 0}, {"type": "note_off", "time": 26, "note": 73, "velocity": 111, "channel": 0}, {"type": "note_on", "time": 0, "note": 70, "velocity": 111, "channel": 0}, {"type": "note_off", "time": 94, "note": 70, "velocity": 111, "channel": 0}, {"type": "note_on", "time": 28, "note": 65, "velocity": 112, "channel": 0}, {"type": "note_off", "time": 328, "note": 65, "velocity": 112, "channel": 0}, {"type": "note_on", "time": 56, "note": 70, "velocity": 113, "channel": 0}, {"type": "note_off", "time": 72, "note": 70, "velocity": 113, "channel": 0}, {"type": "note_on", "time": 32, "note": 68, "velocity": 116, "channel": 0}, {"type": "note_off", "time": 82, "note": 68, "velocity": 116, "channel": 0}, {"type": "note_on", "time": 27, "note": 64, "velocity": 119, "channel": 0}, {"type": "note_off", "time": 69, "note": 64, "velocity": 119, "channel": 0}, {"type": "note_on", "time": 16, "note": 67, "velocity": 114, "channel": 0}, {"type": "note_off", "time": 90, "note": 67, "velocity": 114, "channel": 0}, {"type": "note_on", "time": 21, "note": 65, "velocity": 116, "channel": 0}, {"type": "note_off", "time": 74, "note": 65, "velocity": 116, "channel": 0}, {"type": "note_on", "time": 15, "note": 61, "velocity": 109, "channel": 0}, {"type": "note_off", "time": 102, "note": 61, "velocity": 109, "channel": 0}, {"type": "note_on", "time": 6, "note": 59, "velocity": 103, "channel": 0}, {"type": "note_off", "time": 78, "note": 59, "velocity": 103, "channel": 0}, {"type": "note_on", "time": 5, "note": 58, "velocity": 102, "channel": 0}, {"type": "note_off", "time": 104, "note": 58, "velocity": 102, "channel": 0}, {"type": "note_on", "time": 12, "note": 55, "velocity": 102, "channel": 0}, {"type": "note_off", "time": 92, "note": 55, "velocity": 102, "channel": 0}, {"type": "note_on", "time": 5, "note": 56, "velocity": 95, "channel": 0}, {"type": "note_off", "time": 76, "note": 56, "velocity": 95, "channel": 0}, {"type": "note_on", "time": 18, "note": 58, "velocity": 100, "channel": 0}, {"type": "note_off", "time": 88, "note": 58, "velocity": 100, "channel": 0}, {"type": "note_on", "time": 13, "note": 55, "velocity": 105, "channel": 0}, {"type": "note_off", "time": 91, "note": 55, "velocity": 105, "channel": 0}, {"type": "note_on", "time": 8, "note": 51, "velocity": 106, "channel": 0}, {"type": "note_off", "time": 165, "note": 51, "velocity": 106, "channel": 0}, {"type": "note_on", "time": 6, "note": 53, "velocity": 102, "channel": 0}, {"type": "note_off", "time": 315, "note": 53, "velocity": 102, "channel": 0}, {"type": "note_on", "time": 575, "note": 53, "velocity": 113, "channel": 0}, {"type": "note_off", "time": 62, "note": 53, "velocity": 113, "channel": 0}, {"type": "note_on", "time": 1, "note": 52, "velocity": 110, "channel": 0}, {"type": "note_off", "time": 44, "note": 52, "velocity": 110, "channel": 0}, {"type": "note_on", "time": 27, "note": 51, "velocity": 104, "channel": 0}, {"type": "note_off", "time": 41, "note": 51, "velocity": 104, "channel": 0}, {"type": "note_on", "time": 3, "note": 53, "velocity": 100, "channel": 0}, {"type": "note_off", "time": 62, "note": 53, "velocity": 100, "channel": 0}, {"type": "note_on", "time": 3, "note": 55, "velocity": 11, "channel": 0}, {"type": "note_off", "time": 41, "note": 55, "velocity": 11, "channel": 0}, {"type": "note_on", "time": 2, "note": 57, "velocity": 43, "channel": 0}, {"type": "note_off", "time": 33, "note": 57, "velocity": 43, "channel": 0}, {"type": "note_on", "time": 2, "note": 62, "velocity": 118, "channel": 0}, {"type": "note_off", "time": 60, "note": 62, "velocity": 118, "channel": 0}, {"type": "note_on", "time": 2, "note": 61, "velocity": 108, "channel": 0}, {"type": "note_off", "time": 49, "note": 61, "velocity": 108, "channel": 0}, {"type": "note_on", "time": 2, "note": 60, "velocity": 107, "channel": 0}, {"type": "note_off", "time": 44, "note": 60, "velocity": 107, "channel": 0}, {"type": "note_on", "time": 6, "note": 59, "velocity": 104, "channel": 0}, {"type": "note_off", "time": 36, "note": 59, "velocity": 104, "channel": 0}, {"type": "note_on", "time": 2, "note": 58, "velocity": 100, "channel": 0}, {"type": "note_off", "time": 49, "note": 58, "velocity": 100, "channel": 0}, {"type": "note_on", "time": 12, "note": 55, "velocity": 100, "channel": 0}, {"type": "note_off", "time": 44, "note": 55, "velocity": 100, "channel": 0}, {"type": "note_on", "time": 12, "note": 51, "velocity": 98, "channel": 0}, {"type": "note_off", "time": 32, "note": 51, "velocity": 98, "channel": 0}, {"type": "note_on", "time": 15, "note": 48, "velocity": 101, "channel": 0}, {"type": "note_off", "time": 31, "note": 48, "velocity": 101, "channel": 0}, {"type": "note_on", "time": 189, "note": 53, "velocity": 115, "channel": 0}, {"type": "note_off", "time": 40, "note": 53, "velocity": 115, "channel": 0}, {"type": "note_on", "time": 5, "note": 52, "velocity": 110, "channel": 0}, {"type": "note_off", "time": 39, "note": 52, "velocity": 110, "channel": 0}, {"type": "note_on", "time": 10, "note": 50, "velocity": 108, "channel": 0}, {"type": "note_off", "time": 49, "note": 50, "velocity": 108, "channel": 0}, {"type": "note_on", "time": 6, "note": 52, "velocity": 106, "channel": 0}, {"type": "note_off", "time": 43, "note": 52, "velocity": 106, "channel": 0}, {"type": "note_on", "time": 11, "note": 53, "velocity": 106, "channel": 0}, {"type": "note_off", "time": 60, "note": 53, "velocity": 106, "channel": 0}, {"type": "note_on", "time": 12, "note": 55, "velocity": 105, "channel": 0}, {"type": "note_off", "time": 33, "note": 55, "velocity": 105, "channel": 0}, {"type": "note_on", "time": 8, "note": 57, "velocity": 100, "channel": 0}, {"type": "note_off", "time": 43, "note": 57, "velocity": 100, "channel": 0}, {"type": "note_on", "time": 6, "note": 59, "velocity": 104, "channel": 0}, {"type": "note_off", "time": 39, "note": 59, "velocity": 104, "channel": 0}, {"type": "note_on", "time": 3, "note": 60, "velocity": 109, "channel": 0}, {"type": "note_off", "time": 45, "note": 60, "velocity": 109, "channel": 0}, {"type": "note_on", "time": 8, "note": 55, "velocity": 112, "channel": 0}, {"type": "note_off", "time": 43, "note": 55, "velocity": 112, "channel": 0}, {"type": "note_on", "time": 375, "note": 48, "velocity": 116, "channel": 0}, {"type": "note_off", "time": 67, "note": 48, "velocity": 116, "channel": 0}, {"type": "note_on", "time": 7, "note": 50, "velocity": 104, "channel": 0}, {"type": "note_off", "time": 50, "note": 50, "velocity": 104, "channel": 0}, {"type": "note_on", "time": 7, "note": 51, "velocity": 101, "channel": 0}, {"type": "note_off", "time": 42, "note": 51, "velocity": 101, "channel": 0}, {"type": "note_on", "time": 28, "note": 55, "velocity": 105, "channel": 0}, {"type": "note_off", "time": 56, "note": 55, "velocity": 105, "channel": 0}, {"type": "note_on", "time": 9, "note": 58, "velocity": 99, "channel": 0}, {"type": "note_off", "time": 41, "note": 58, "velocity": 99, "channel": 0}, {"type": "note_on", "time": 14, "note": 57, "velocity": 106, "channel": 0}, {"type": "note_off", "time": 36, "note": 57, "velocity": 106, "channel": 0}, {"type": "note_on", "time": 19, "note": 55, "velocity": 105, "channel": 0}, {"type": "note_off", "time": 42, "note": 55, "velocity": 105, "channel": 0}, {"type": "note_on", "time": 71, "note": 55, "velocity": 101, "channel": 0}, {"type": "note_off", "time": 43, "note": 55, "velocity": 101, "channel": 0}, {"type": "note_on", "time": 11, "note": 62, "velocity": 118, "channel": 0}, {"type": "note_off", "time": 61, "note": 62, "velocity": 118, "channel": 0}, {"type": "note_on", "time": 1, "note": 61, "velocity": 108, "channel": 0}, {"type": "note_off", "time": 40, "note": 61, "velocity": 108, "channel": 0}, {"type": "note_on", "time": 8, "note": 60, "velocity": 102, "channel": 0}, {"type": "note_off", "time": 49, "note": 60, "velocity": 102, "channel": 0}, {"type": "note_on", "time": 21, "note": 59, "velocity": 98, "channel": 0}, {"type": "note_off", "time": 33, "note": 59, "velocity": 98, "channel": 0}, {"type": "note_on", "time": 11, "note": 58, "velocity": 100, "channel": 0}, {"type": "note_off", "time": 72, "note": 58, "velocity": 100, "channel": 0}, {"type": "note_on", "time": 334, "note": 64, "velocity": 115, "channel": 0}, {"type": "note_off", "time": 80, "note": 64, "velocity": 115, "channel": 0}, {"type": "note_on", "time": 4, "note": 65, "velocity": 105, "channel": 0}, {"type": "note_off", "time": 89, "note": 65, "velocity": 105, "channel": 0}, {"type": "note_on", "time": 112, "note": 63, "velocity": 119, "channel": 0}, {"type": "note_off", "time": 67, "note": 63, "velocity": 119, "channel": 0}, {"type": "note_on", "time": 10, "note": 62, "velocity": 110, "channel": 0}, {"type": "note_off", "time": 52, "note": 62, "velocity": 110, "channel": 0}, {"type": "note_on", "time": 5, "note": 63, "velocity": 119, "channel": 0}, {"type": "note_off", "time": 111, "note": 63, "velocity": 119, "channel": 0}, {"type": "note_on", "time": 15, "note": 65, "velocity": 114, "channel": 0}, {"type": "note_off", "time": 107, "note": 65, "velocity": 114, "channel": 0}, {"type": "note_on", "time": 418, "note": 58, "velocity": 88, "channel": 0}, {"type": "note_off", "time": 55, "note": 58, "velocity": 88, "channel": 0}, {"type": "note_on", "time": 17, "note": 61, "velocity": 106, "channel": 0}, {"type": "note_off", "time": 75, "note": 61, "velocity": 106, "channel": 0}, {"type": "note_on", "time": 2, "note": 62, "velocity": 116, "channel": 0}, {"type": "note_off", "time": 60, "note": 62, "velocity": 116, "channel": 0}, {"type": "note_on", "time": 17, "note": 65, "velocity": 116, "channel": 0}, {"type": "note_off", "time": 54, "note": 65, "velocity": 116, "channel": 0}, {"type": "note_on", "time": 26, "note": 61, "velocity": 99, "channel": 0}, {"type": "note_off", "time": 52, "note": 61, "velocity": 99, "channel": 0}, {"type": "note_on", "time": 5, "note": 62, "velocity": 104, "channel": 0}, {"type": "note_off", "time": 46, "note": 62, "velocity": 104, "channel": 0}, {"type": "note_on", "time": 22, "note": 65, "velocity": 114, "channel": 0}, {"type": "note_off", "time": 62, "note": 65, "velocity": 114, "channel": 0}, {"type": "note_on", "time": 38, "note": 58, "velocity": 98, "channel": 0}, {"type": "note_off", "time": 88, "note": 58, "velocity": 98, "channel": 0}, {"type": "note_on", "time": 37, "note": 58, "velocity": 92, "channel": 0}, {"type": "note_off", "time": 281, "note": 58, "velocity": 92, "channel": 0}, {"type": "note_on", "time": 59, "note": 61, "velocity": 106, "channel": 0}, {"type": "note_off", "time": 55, "note": 61, "velocity": 106, "channel": 0}, {"type": "note_on", "time": 11, "note": 62, "velocity": 107, "channel": 0}, {"type": "note_off", "time": 65, "note": 62, "velocity": 107, "channel": 0}, {"type": "note_on", "time": 6, "note": 65, "velocity": 105, "channel": 0}, {"type": "note_off", "time": 45, "note": 65, "velocity": 105, "channel": 0}, {"type": "note_on", "time": 2, "note": 67, "velocity": 111, "channel": 0}, {"type": "note_off", "time": 76, "note": 67, "velocity": 111, "channel": 0}, {"type": "note_on", "time": 4, "note": 70, "velocity": 118, "channel": 0}, {"type": "note_off", "time": 112, "note": 70, "velocity": 118, "channel": 0}, {"type": "note_on", "time": 18, "note": 70, "velocity": 119, "channel": 0}, {"type": "note_off", "time": 69, "note": 70, "velocity": 119, "channel": 0}, {"type": "note_on", "time": 288, "note": 58, "velocity": 95, "channel": 0}, {"type": "note_off", "time": 45, "note": 58, "velocity": 95, "channel": 0}, {"type": "note_on", "time": 14, "note": 61, "velocity": 102, "channel": 0}, {"type": "note_off", "time": 53, "note": 61, "velocity": 102, "channel": 0}, {"type": "note_on", "time": 9, "note": 62, "velocity": 113, "channel": 0}, {"type": "note_off", "time": 50, "note": 62, "velocity": 113, "channel": 0}, {"type": "note_on", "time": 7, "note": 65, "velocity": 111, "channel": 0}, {"type": "note_off", "time": 62, "note": 65, "velocity": 111, "channel": 0}, {"type": "note_on", "time": 21, "note": 58, "velocity": 95, "channel": 0}, {"type": "note_off", "time": 128, "note": 58, "velocity": 95, "channel": 0}, {"type": "note_on", "time": 32, "note": 58, "velocity": 94, "channel": 0}, {"type": "note_off", "time": 229, "note": 58, "velocity": 94, "channel": 0}, {"type": "note_on", "time": 265, "note": 65, "velocity": 117, "channel": 0}, {"type": "note_off", "time": 68, "note": 65, "velocity": 117, "channel": 0}, {"type": "note_on", "time": 40, "note": 70, "velocity": 117, "channel": 0}, {"type": "note_off", "time": 53, "note": 70, "velocity": 117, "channel": 0}, {"type": "note_on", "time": 64, "note": 70, "velocity": 114, "channel": 0}, {"type": "note_off", "time": 55, "note": 70, "velocity": 114, "channel": 0}, {"type": "note_on", "time": 36, "note": 68, "velocity": 116, "channel": 0}, {"type": "note_off", "time": 59, "note": 68, "velocity": 116, "channel": 0}, {"type": "note_on", "time": 54, "note": 68, "velocity": 118, "channel": 0}, {"type": "note_off", "time": 61, "note": 68, "velocity": 118, "channel": 0}, {"type": "note_on", "time": 24, "note": 67, "velocity": 115, "channel": 0}, {"type": "note_off", "time": 66, "note": 67, "velocity": 115, "channel": 0}, {"type": "note_on", "time": 36, "note": 67, "velocity": 113, "channel": 0}, {"type": "note_off", "time": 55, "note": 67, "velocity": 113, "channel": 0}, {"type": "note_on", "time": 39, "note": 65, "velocity": 115, "channel": 0}, {"type": "note_off", "time": 59, "note": 65, "velocity": 115, "channel": 0}, {"type": "note_on", "time": 50, "note": 65, "velocity": 116, "channel": 0}, {"type": "note_off", "time": 59, "note": 65, "velocity": 116, "channel": 0}, {"type": "note_on", "time": 17, "note": 63, "velocity": 124, "channel": 0}, {"type": "note_off", "time": 134, "note": 63, "velocity": 124, "channel": 0}, {"type": "note_on", "time": 18, "note": 63, "velocity": 123, "channel": 0}, {"type": "note_off", "time": 401, "note": 63, "velocity": 123, "channel": 0}, {"type": "note_on", "time": 22, "note": 63, "velocity": 121, "channel": 0}, {"type": "note_off", "time": 88, "note": 63, "velocity": 121, "channel": 0}, {"type": "note_on", "time": 11, "note": 67, "velocity": 114, "channel": 0}, {"type": "note_off", "time": 40, "note": 67, "velocity": 114, "channel": 0}, {"type": "note_on", "time": 7, "note": 72, "velocity": 118, "channel": 0}, {"type": "note_off", "time": 55, "note": 72, "velocity": 118, "channel": 0}, {"type": "note_on", "time": 10, "note": 70, "velocity": 107, "channel": 0}, {"type": "note_off", "time": 147, "note": 70, "velocity": 107, "channel": 0}, {"type": "note_on", "time": 34, "note": 72, "velocity": 114, "channel": 0}, {"type": "note_off", "time": 102, "note": 72, "velocity": 114, "channel": 0}, {"type": "note_on", "time": 90, "note": 70, "velocity": 109, "channel": 0}, {"type": "note_off", "time": 164, "note": 70, "velocity": 109, "channel": 0}, {"type": "note_on", "time": 42, "note": 72, "velocity": 106, "channel": 0}, {"type": "note_off", "time": 88, "note": 72, "velocity": 106, "channel": 0}, {"type": "note_on", "time": 388, "note": 71, "velocity": 111, "channel": 0}, {"type": "note_off", "time": 59, "note": 71, "velocity": 111, "channel": 0}, {"type": "note_on", "time": 12, "note": 73, "velocity": 105, "channel": 0}, {"type": "note_off", "time": 60, "note": 73, "velocity": 105, "channel": 0}, {"type": "note_on", "time": 81, "note": 70, "velocity": 115, "channel": 0}, {"type": "note_off", "time": 100, "note": 70, "velocity": 115, "channel": 0}, {"type": "note_on", "time": 75, "note": 68, "velocity": 115, "channel": 0}, {"type": "note_off", "time": 80, "note": 68, "velocity": 115, "channel": 0}, {"type": "note_on", "time": 21, "note": 65, "velocity": 112, "channel": 0}, {"type": "note_off", "time": 91, "note": 65, "velocity": 112, "channel": 0}, {"type": "note_on", "time": 7, "note": 63, "velocity": 122, "channel": 0}, {"type": "note_off", "time": 69, "note": 63, "velocity": 122, "channel": 0}, {"type": "note_on", "time": 30, "note": 61, "velocity": 108, "channel": 0}, {"type": "note_off", "time": 86, "note": 61, "velocity": 108, "channel": 0}, {"type": "note_on", "time": 12, "note": 58, "velocity": 106, "channel": 0}, {"type": "note_off", "time": 83, "note": 58, "velocity": 106, "channel": 0}, {"type": "note_on", "time": 24, "note": 56, "velocity": 99, "channel": 0}, {"type": "note_off", "time": 72, "note": 56, "velocity": 99, "channel": 0}, {"type": "note_on", "time": 113, "note": 56, "velocity": 101, "channel": 0}, {"type": "note_off", "time": 111, "note": 56, "velocity": 101, "channel": 0}, {"type": "note_on", "time": 69, "note": 58, "velocity": 96, "channel": 0}, {"type": "note_off", "time": 114, "note": 58, "velocity": 96, "channel": 0}, {"type": "note_on", "time": 34, "note": 58, "velocity": 121, "channel": 0}, {"type": "note_off", "time": 175, "note": 58, "velocity": 121, "channel": 0}, {"type": "note_on", "time": 404, "note": 58, "velocity": 103, "channel": 0}, {"type": "note_off", "time": 47, "note": 58, "velocity": 103, "channel": 0}, {"type": "note_on", "time": 41, "note": 61, "velocity": 113, "channel": 0}, {"type": "note_off", "time": 80, "note": 61, "velocity": 113, "channel": 0}, {"type": "note_on", "time": 8, "note": 62, "velocity": 119, "channel": 0}, {"type": "note_off", "time": 80, "note": 62, "velocity": 119, "channel": 0}, {"type": "note_on", "time": 16, "note": 63, "velocity": 124, "channel": 0}, {"type": "note_off", "time": 97, "note": 63, "velocity": 124, "channel": 0}, {"type": "note_on", "time": 18, "note": 64, "velocity": 119, "channel": 0}, {"type": "note_off", "time": 75, "note": 64, "velocity": 119, "channel": 0}, {"type": "note_on", "time": 10, "note": 65, "velocity": 112, "channel": 0}, {"type": "note_off", "time": 88, "note": 65, "velocity": 112, "channel": 0}, {"type": "note_on", "time": 28, "note": 57, "velocity": 100, "channel": 0}, {"type": "note_off", "time": 46, "note": 57, "velocity": 100, "channel": 0}, {"type": "note_on", "time": 27, "note": 61, "velocity": 111, "channel": 0}, {"type": "note_off", "time": 43, "note": 61, "velocity": 111, "channel": 0}, {"type": "note_on", "time": 12, "note": 62, "velocity": 115, "channel": 0}, {"type": "note_off", "time": 113, "note": 62, "velocity": 115, "channel": 0}, {"type": "note_on", "time": 20, "note": 58, "velocity": 99, "channel": 0}, {"type": "note_off", "time": 145, "note": 58, "velocity": 99, "channel": 0}, {"type": "note_on", "time": 58, "note": 60, "velocity": 111, "channel": 0}, {"type": "note_off", "time": 79, "note": 60, "velocity": 111, "channel": 0}, {"type": "note_on", "time": 31, "note": 57, "velocity": 106, "channel": 0}, {"type": "note_off", "time": 52, "note": 57, "velocity": 106, "channel": 0}, {"type": "note_on", "time": 24, "note": 61, "velocity": 111, "channel": 0}, {"type": "note_off", "time": 47, "note": 61, "velocity": 111, "channel": 0}, {"type": "note_on", "time": 3, "note": 62, "velocity": 112, "channel": 0}, {"type": "note_off", "time": 82, "note": 62, "velocity": 112, "channel": 0}, {"type": "note_on", "time": 28, "note": 65, "velocity": 111, "channel": 0}, {"type": "note_off", "time": 79, "note": 65, "velocity": 111, "channel": 0}, {"type": "note_on", "time": 69, "note": 63, "velocity": 116, "channel": 0}, {"type": "note_off", "time": 222, "note": 63, "velocity": 116, "channel": 0}, {"type": "note_on", "time": 30, "note": 65, "velocity": 109, "channel": 0}, {"type": "note_off", "time": 93, "note": 65, "velocity": 109, "channel": 0}, {"type": "note_on", "time": 9, "note": 63, "velocity": 113, "channel": 0}, {"type": "note_off", "time": 69, "note": 63, "velocity": 113, "channel": 0}, {"type": "note_on", "time": 15, "note": 66, "velocity": 108, "channel": 0}, {"type": "note_off", "time": 50, "note": 66, "velocity": 108, "channel": 0}, {"type": "note_on", "time": 7, "note": 67, "velocity": 108, "channel": 0}, {"type": "note_off", "time": 56, "note": 67, "velocity": 108, "channel": 0}, {"type": "note_on", "time": 30, "note": 70, "velocity": 104, "channel": 0}, {"type": "note_off", "time": 59, "note": 70, "velocity": 104, "channel": 0}, {"type": "note_on", "time": 35, "note": 72, "velocity": 98, "channel": 0}, {"type": "note_off", "time": 60, "note": 72, "velocity": 98, "channel": 0}, {"type": "note_on", "time": 31, "note": 73, "velocity": 97, "channel": 0}, {"type": "note_off", "time": 231, "note": 73, "velocity": 97, "channel": 0}, {"type": "note_on", "time": 43, "note": 72, "velocity": 98, "channel": 0}, {"type": "note_off", "time": 80, "note": 72, "velocity": 98, "channel": 0}, {"type": "note_on", "time": 24, "note": 71, "velocity": 108, "channel": 0}, {"type": "note_off", "time": 66, "note": 71, "velocity": 108, "channel": 0}, {"type": "note_on", "time": 27, "note": 70, "velocity": 106, "channel": 0}, {"type": "note_off", "time": 92, "note": 70, "velocity": 106, "channel": 0}, {"type": "note_on", "time": 41, "note": 65, "velocity": 107, "channel": 0}, {"type": "note_off", "time": 42, "note": 65, "velocity": 107, "channel": 0}, {"type": "note_on", "time": 336, "note": 68, "velocity": 113, "channel": 0}, {"type": "note_off", "time": 81, "note": 68, "velocity": 113, "channel": 0}, {"type": "note_on", "time": 4, "note": 67, "velocity": 114, "channel": 0}, {"type": "note_off", "time": 92, "note": 67, "velocity": 114, "channel": 0}, {"type": "note_on", "time": 18, "note": 66, "velocity": 115, "channel": 0}, {"type": "note_off", "time": 54, "note": 66, "velocity": 115, "channel": 0}, {"type": "note_on", "time": 36, "note": 65, "velocity": 113, "channel": 0}, {"type": "note_off", "time": 104, "note": 65, "velocity": 113, "channel": 0}, {"type": "note_on", "time": 31, "note": 58, "velocity": 106, "channel": 0}, {"type": "note_off", "time": 80, "note": 58, "velocity": 106, "channel": 0}, {"type": "note_on", "time": 86, "note": 61, "velocity": 112, "channel": 0}, {"type": "note_off", "time": 260, "note": 61, "velocity": 112, "channel": 0}, {"type": "note_on", "time": 23, "note": 60, "velocity": 109, "channel": 0}, {"type": "note_off", "time": 96, "note": 60, "velocity": 109, "channel": 0}, {"type": "note_on", "time": 13, "note": 59, "velocity": 104, "channel": 0}, {"type": "note_off", "time": 65, "note": 59, "velocity": 104, "channel": 0}, {"type": "note_on", "time": 34, "note": 58, "velocity": 97, "channel": 0}, {"type": "note_off", "time": 72, "note": 58, "velocity": 97, "channel": 0}, {"type": "note_on", "time": 28, "note": 60, "velocity": 118, "channel": 0}, {"type": "note_off", "time": 63, "note": 60, "velocity": 118, "channel": 0}, {"type": "note_on", "time": 34, "note": 62, "velocity": 114, "channel": 0}, {"type": "note_off", "time": 74, "note": 62, "velocity": 114, "channel": 0}, {"type": "note_on", "time": 20, "note": 63, "velocity": 122, "channel": 0}, {"type": "note_off", "time": 82, "note": 63, "velocity": 122, "channel": 0}, {"type": "note_on", "time": 3, "note": 65, "velocity": 115, "channel": 0}, {"type": "note_off", "time": 106, "note": 65, "velocity": 115, "channel": 0}, {"type": "note_on", "time": 38, "note": 62, "velocity": 105, "channel": 0}, {"type": "note_off", "time": 50, "note": 62, "velocity": 105, "channel": 0}, {"type": "note_on", "time": 13, "note": 63, "velocity": 107, "channel": 0}, {"type": "note_off", "time": 67, "note": 63, "velocity": 107, "channel": 0}, {"type": "note_on", "time": 11, "note": 65, "velocity": 117, "channel": 0}, {"type": "note_off", "time": 31, "note": 65, "velocity": 117, "channel": 0}, {"type": "note_on", "time": 8, "note": 63, "velocity": 121, "channel": 0}, {"type": "note_off", "time": 39, "note": 63, "velocity": 121, "channel": 0}, {"type": "note_on", "time": 11, "note": 62, "velocity": 117, "channel": 0}, {"type": "note_off", "time": 85, "note": 62, "velocity": 117, "channel": 0}, {"type": "note_on", "time": 23, "note": 54, "velocity": 107, "channel": 0}, {"type": "note_off", "time": 69, "note": 54, "velocity": 107, "channel": 0}, {"type": "note_on", "time": 4, "note": 56, "velocity": 101, "channel": 0}, {"type": "note_off", "time": 184, "note": 56, "velocity": 101, "channel": 0}, {"type": "note_on", "time": 11, "note": 55, "velocity": 108, "channel": 0}, {"type": "note_off", "time": 134, "note": 55, "velocity": 108, "channel": 0}, {"type": "note_on", "time": 518, "note": 46, "velocity": 114, "channel": 0}, {"type": "note_off", "time": 63, "note": 46, "velocity": 114, "channel": 0}, {"type": "note_on", "time": 18, "note": 51, "velocity": 110, "channel": 0}, {"type": "note_off", "time": 46, "note": 51, "velocity": 110, "channel": 0}, {"type": "note_on", "time": 16, "note": 55, "velocity": 109, "channel": 0}, {"type": "note_off", "time": 235, "note": 55, "velocity": 109, "channel": 0}, {"type": "note_on", "time": 24, "note": 49, "velocity": 109, "channel": 0}, {"type": "note_off", "time": 55, "note": 49, "velocity": 109, "channel": 0}, {"type": "note_on", "time": 15, "note": 53, "velocity": 114, "channel": 0}, {"type": "note_off", "time": 59, "note": 53, "velocity": 114, "channel": 0}, {"type": "note_on", "time": 15, "note": 56, "velocity": 108, "channel": 0}, {"type": "note_off", "time": 120, "note": 56, "velocity": 108, "channel": 0}, {"type": "note_on", "time": 18, "note": 54, "velocity": 106, "channel": 0}, {"type": "note_off", "time": 64, "note": 54, "velocity": 106, "channel": 0}, {"type": "note_on", "time": 23, "note": 59, "velocity": 103, "channel": 0}, {"type": "note_off", "time": 56, "note": 59, "velocity": 103, "channel": 0}, {"type": "note_on", "time": 6, "note": 61, "velocity": 117, "channel": 0}, {"type": "note_off", "time": 213, "note": 61, "velocity": 117, "channel": 0}, {"type": "note_on", "time": 399, "note": 59, "velocity": 103, "channel": 0}, {"type": "note_off", "time": 82, "note": 59, "velocity": 103, "channel": 0}, {"type": "note_on", "time": 7, "note": 63, "velocity": 125, "channel": 0}, {"type": "note_off", "time": 81, "note": 63, "velocity": 125, "channel": 0}, {"type": "note_on", "time": 25, "note": 66, "velocity": 114, "channel": 0}, {"type": "note_off", "time": 137, "note": 66, "velocity": 114, "channel": 0}, {"type": "note_on", "time": 34, "note": 59, "velocity": 94, "channel": 0}, {"type": "note_off", "time": 91, "note": 59, "velocity": 94, "channel": 0}, {"type": "note_on", "time": 22, "note": 62, "velocity": 116, "channel": 0}, {"type": "note_off", "time": 73, "note": 62, "velocity": 116, "channel": 0}, {"type": "note_on", "time": 41, "note": 67, "velocity": 117, "channel": 0}, {"type": "note_off", "time": 137, "note": 67, "velocity": 117, "channel": 0}, {"type": "note_on", "time": 96, "note": 62, "velocity": 104, "channel": 0}, {"type": "note_off", "time": 41, "note": 62, "velocity": 104, "channel": 0}, {"type": "note_on", "time": 20, "note": 65, "velocity": 113, "channel": 0}, {"type": "note_off", "time": 72, "note": 65, "velocity": 113, "channel": 0}, {"type": "note_on", "time": 37, "note": 62, "velocity": 110, "channel": 0}, {"type": "note_off", "time": 81, "note": 62, "velocity": 110, "channel": 0}, {"type": "note_on", "time": 4, "note": 63, "velocity": 120, "channel": 0}, {"type": "note_off", "time": 94, "note": 63, "velocity": 120, "channel": 0}, {"type": "note_on", "time": 5, "note": 67, "velocity": 108, "channel": 0}, {"type": "note_off", "time": 88, "note": 67, "velocity": 108, "channel": 0}, {"type": "note_on", "time": 11, "note": 70, "velocity": 107, "channel": 0}, {"type": "note_off", "time": 56, "note": 70, "velocity": 107, "channel": 0}, {"type": "note_on", "time": 40, "note": 74, "velocity": 110, "channel": 0}, {"type": "note_off", "time": 101, "note": 74, "velocity": 110, "channel": 0}, {"type": "note_on", "time": 27, "note": 74, "velocity": 111, "channel": 0}, {"type": "note_off", "time": 61, "note": 74, "velocity": 111, "channel": 0}, {"type": "note_on", "time": 22, "note": 74, "velocity": 109, "channel": 0}, {"type": "note_off", "time": 131, "note": 74, "velocity": 109, "channel": 0}, {"type": "note_on", "time": 836, "note": 58, "velocity": 91, "channel": 0}, {"type": "note_off", "time": 209, "note": 58, "velocity": 91, "channel": 0}, {"type": "note_on", "time": 20, "note": 60, "velocity": 93, "channel": 0}, {"type": "note_off", "time": 30, "note": 60, "velocity": 93, "channel": 0}, {"type": "note_on", "time": 12, "note": 62, "velocity": 101, "channel": 0}, {"type": "note_off", "time": 30, "note": 62, "velocity": 101, "channel": 0}, {"type": "note_on", "time": 21, "note": 70, "velocity": 120, "channel": 0}, {"type": "note_off", "time": 79, "note": 70, "velocity": 120, "channel": 0}, {"type": "note_on", "time": 33, "note": 70, "velocity": 119, "channel": 0}, {"type": "note_off", "time": 65, "note": 70, "velocity": 119, "channel": 0}, {"type": "note_on", "time": 14, "note": 70, "velocity": 120, "channel": 0}, {"type": "note_off", "time": 146, "note": 70, "velocity": 120, "channel": 0}, {"type": "note_on", "time": 745, "note": 70, "velocity": 116, "channel": 0}, {"type": "note_off", "time": 41, "note": 70, "velocity": 116, "channel": 0}, {"type": "note_on", "time": 21, "note": 70, "velocity": 117, "channel": 0}, {"type": "note_off", "time": 34, "note": 70, "velocity": 117, "channel": 0}, {"type": "note_on", "time": 96, "note": 70, "velocity": 118, "channel": 0}, {"type": "note_off", "time": 47, "note": 70, "velocity": 118, "channel": 0}, {"type": "note_on", "time": 22, "note": 70, "velocity": 116, "channel": 0}, {"type": "note_off", "time": 37, "note": 70, "velocity": 116, "channel": 0}, {"type": "note_on", "time": 100, "note": 70, "velocity": 116, "channel": 0}, {"type": "note_off", "time": 50, "note": 70, "velocity": 116, "channel": 0}, {"type": "note_on", "time": 19, "note": 70, "velocity": 114, "channel": 0}, {"type": "note_off", "time": 28, "note": 70, "velocity": 114, "channel": 0}, {"type": "note_on", "time": 100, "note": 70, "velocity": 112, "channel": 0}, {"type": "note_off", "time": 53, "note": 70, "velocity": 112, "channel": 0}, {"type": "note_on", "time": 15, "note": 70, "velocity": 112, "channel": 0}, {"type": "note_off", "time": 34, "note": 70, "velocity": 112, "channel": 0}, {"type": "note_on", "time": 86, "note": 70, "velocity": 115, "channel": 0}, {"type": "note_off", "time": 43, "note": 70, "velocity": 115, "channel": 0}, {"type": "note_on", "time": 18, "note": 70, "velocity": 114, "channel": 0}, {"type": "note_off", "time": 31, "note": 70, "velocity": 114, "channel": 0}, {"type": "note_on", "time": 100, "note": 70, "velocity": 112, "channel": 0}, {"type": "note_off", "time": 52, "note": 70, "velocity": 112, "channel": 0}, {"type": "note_on", "time": 18, "note": 70, "velocity": 114, "channel": 0}, {"type": "note_off", "time": 47, "note": 70, "velocity": 114, "channel": 0}, {"type": "note_on", "time": 75, "note": 70, "velocity": 112, "channel": 0}, {"type": "note_off", "time": 63, "note": 70, "velocity": 112, "channel": 0}, {"type": "note_on", "time": 16, "note": 70, "velocity": 116, "channel": 0}, {"type": "note_off", "time": 56, "note": 70, "velocity": 116, "channel": 0}, {"type": "note_on", "time": 58, "note": 70, "velocity": 112, "channel": 0}, {"type": "note_off", "time": 46, "note": 70, "velocity": 112, "channel": 0}, {"type": "note_on", "time": 18, "note": 70, "velocity": 115, "channel": 0}, {"type": "note_off", "time": 49, "note": 70, "velocity": 115, "channel": 0}, {"type": "note_on", "time": 80, "note": 76, "velocity": 121, "channel": 0}, {"type": "note_off", "time": 85, "note": 76, "velocity": 121, "channel": 0}, {"type": "note_on", "time": 4, "note": 77, "velocity": 105, "channel": 0}, {"type": "note_off", "time": 512, "note": 77, "velocity": 105, "channel": 0}, {"type": "note_on", "time": 49, "note": 75, "velocity": 114, "channel": 0}, {"type": "note_off", "time": 77, "note": 75, "velocity": 114, "channel": 0}, {"type": "note_on", "time": 12, "note": 74, "velocity": 112, "channel": 0}, {"type": "note_off", "time": 43, "note": 74, "velocity": 112, "channel": 0}, {"type": "note_on", "time": 6, "note": 75, "velocity": 109, "channel": 0}, {"type": "note_off", "time": 151, "note": 75, "velocity": 109, "channel": 0}, {"type": "note_on", "time": 2, "note": 77, "velocity": 109, "channel": 0}, {"type": "note_off", "time": 152, "note": 77, "velocity": 109, "channel": 0}, {"type": "note_on", "time": 347, "note": 70, "velocity": 95, "channel": 0}, {"type": "note_off", "time": 42, "note": 70, "velocity": 95, "channel": 0}, {"type": "note_on", "time": 57, "note": 76, "velocity": 122, "channel": 0}, {"type": "note_off", "time": 87, "note": 76, "velocity": 122, "channel": 0}, {"type": "note_on", "time": 15, "note": 75, "velocity": 115, "channel": 0}, {"type": "note_off", "time": 73, "note": 75, "velocity": 115, "channel": 0}, {"type": "note_on", "time": 14, "note": 73, "velocity": 107, "channel": 0}, {"type": "note_off", "time": 117, "note": 73, "velocity": 107, "channel": 0}, {"type": "note_on", "time": 16, "note": 70, "velocity": 112, "channel": 0}, {"type": "note_off", "time": 574, "note": 70, "velocity": 112, "channel": 0}, {"type": "note_on", "time": 14, "note": 76, "velocity": 117, "channel": 0}, {"type": "note_off", "time": 63, "note": 76, "velocity": 117, "channel": 0}, {"type": "note_on", "time": 4, "note": 75, "velocity": 107, "channel": 0}, {"type": "note_off", "time": 60, "note": 75, "velocity": 107, "channel": 0}, {"type": "note_on", "time": 12, "note": 73, "velocity": 104, "channel": 0}, {"type": "note_off", "time": 70, "note": 73, "velocity": 104, "channel": 0}, {"type": "note_on", "time": 10, "note": 70, "velocity": 109, "channel": 0}, {"type": "note_off", "time": 265, "note": 70, "velocity": 109, "channel": 0}, {"type": "note_on", "time": 43, "note": 68, "velocity": 113, "channel": 0}, {"type": "note_off", "time": 84, "note": 68, "velocity": 113, "channel": 0}, {"type": "note_on", "time": 8, "note": 65, "velocity": 108, "channel": 0}, {"type": "note_off", "time": 140, "note": 65, "velocity": 108, "channel": 0}, {"type": "note_on", "time": 6, "note": 65, "velocity": 111, "channel": 0}, {"type": "note_off", "time": 66, "note": 65, "velocity": 111, "channel": 0}, {"type": "note_on", "time": 6, "note": 64, "velocity": 109, "channel": 0}, {"type": "note_off", "time": 94, "note": 64, "velocity": 109, "channel": 0}, {"type": "note_on", "time": 566, "note": 62, "velocity": 113, "channel": 0}, {"type": "note_off", "time": 46, "note": 62, "velocity": 113, "channel": 0}, {"type": "note_on", "time": 2, "note": 63, "velocity": 117, "channel": 0}, {"type": "note_off", "time": 68, "note": 63, "velocity": 117, "channel": 0}, {"type": "note_on", "time": 10, "note": 65, "velocity": 113, "channel": 0}, {"type": "note_off", "time": 55, "note": 65, "velocity": 113, "channel": 0}, {"type": "note_on", "time": 9, "note": 70, "velocity": 117, "channel": 0}, {"type": "note_off", "time": 63, "note": 70, "velocity": 117, "channel": 0}, {"type": "note_on", "time": 4, "note": 62, "velocity": 114, "channel": 0}, {"type": "note_off", "time": 65, "note": 62, "velocity": 114, "channel": 0}, {"type": "note_on", "time": 6, "note": 65, "velocity": 115, "channel": 0}, {"type": "note_off", "time": 38, "note": 65, "velocity": 115, "channel": 0}, {"type": "note_on", "time": 5, "note": 64, "velocity": 123, "channel": 0}, {"type": "note_off", "time": 75, "note": 64, "velocity": 123, "channel": 0}, {"type": "note_on", "time": 6, "note": 63, "velocity": 116, "channel": 0}, {"type": "note_off", "time": 102, "note": 63, "velocity": 116, "channel": 0}, {"type": "note_on", "time": 9, "note": 61, "velocity": 112, "channel": 0}, {"type": "note_off", "time": 84, "note": 61, "velocity": 112, "channel": 0}, {"type": "note_on", "time": 20, "note": 58, "velocity": 97, "channel": 0}, {"type": "note_off", "time": 142, "note": 58, "velocity": 97, "channel": 0}, {"type": "note_on", "time": 44, "note": 66, "velocity": 114, "channel": 0}, {"type": "note_off", "time": 105, "note": 66, "velocity": 114, "channel": 0}, {"type": "note_on", "time": 35, "note": 58, "velocity": 89, "channel": 0}, {"type": "note_off", "time": 45, "note": 58, "velocity": 89, "channel": 0}, {"type": "note_on", "time": 7, "note": 61, "velocity": 103, "channel": 0}, {"type": "note_off", "time": 28, "note": 61, "velocity": 103, "channel": 0}, {"type": "note_on", "time": 5, "note": 62, "velocity": 111, "channel": 0}, {"type": "note_off", "time": 95, "note": 62, "velocity": 111, "channel": 0}, {"type": "note_on", "time": 32, "note": 65, "velocity": 112, "channel": 0}, {"type": "note_off", "time": 85, "note": 65, "velocity": 112, "channel": 0}, {"type": "note_on", "time": 60, "note": 70, "velocity": 109, "channel": 0}, {"type": "note_off", "time": 240, "note": 70, "velocity": 109, "channel": 0}, {"type": "note_on", "time": 47, "note": 67, "velocity": 109, "channel": 0}, {"type": "note_off", "time": 57, "note": 67, "velocity": 109, "channel": 0}, {"type": "note_on", "time": 30, "note": 63, "velocity": 116, "channel": 0}, {"type": "note_off", "time": 87, "note": 63, "velocity": 116, "channel": 0}, {"type": "note_on", "time": 13, "note": 62, "velocity": 113, "channel": 0}, {"type": "note_off", "time": 109, "note": 62, "velocity": 113, "channel": 0}, {"type": "note_on", "time": 59, "note": 65, "velocity": 111, "channel": 0}, {"type": "note_off", "time": 85, "note": 65, "velocity": 111, "channel": 0}, {"type": "note_on", "time": 48, "note": 57, "velocity": 100, "channel": 0}, {"type": "note_off", "time": 37, "note": 57, "velocity": 100, "channel": 0}, {"type": "note_on", "time": 7, "note": 58, "velocity": 95, "channel": 0}, {"type": "note_off", "time": 183, "note": 58, "velocity": 95, "channel": 0}, {"type": "note_on", "time": 30, "note": 60, "velocity": 111, "channel": 0}, {"type": "note_off", "time": 117, "note": 60, "velocity": 111, "channel": 0}, {"type": "note_on", "time": 5, "note": 58, "velocity": 98, "channel": 0}, {"type": "note_off", "time": 42, "note": 58, "velocity": 98, "channel": 0}, {"type": "note_on", "time": 21, "note": 61, "velocity": 107, "channel": 0}, {"type": "note_off", "time": 36, "note": 61, "velocity": 107, "channel": 0}, {"type": "note_on", "time": 2, "note": 62, "velocity": 113, "channel": 0}, {"type": "note_off", "time": 124, "note": 62, "velocity": 113, "channel": 0}, {"type": "note_on", "time": 17, "note": 55, "velocity": 102, "channel": 0}, {"type": "note_off", "time": 215, "note": 55, "velocity": 102, "channel": 0}, {"type": "note_on", "time": 348, "note": 55, "velocity": 119, "channel": 0}, {"type": "note_off", "time": 245, "note": 55, "velocity": 119, "channel": 0}, {"type": "note_on", "time": 21, "note": 55, "velocity": 101, "channel": 0}, {"type": "note_off", "time": 115, "note": 55, "velocity": 101, "channel": 0}, {"type": "note_on", "time": 23, "note": 55, "velocity": 116, "channel": 0}, {"type": "note_off", "time": 163, "note": 55, "velocity": 116, "channel": 0}, {"type": "note_on", "time": 414, "note": 55, "velocity": 112, "channel": 0}, {"type": "note_off", "time": 35, "note": 55, "velocity": 112, "channel": 0}, {"type": "note_on", "time": 21, "note": 55, "velocity": 105, "channel": 0}, {"type": "note_off", "time": 152, "note": 55, "velocity": 105, "channel": 0}, {"type": "note_on", "time": 15, "note": 55, "velocity": 115, "channel": 0}, {"type": "note_off", "time": 166, "note": 55, "velocity": 115, "channel": 0}, {"type": "note_on", "time": 359, "note": 55, "velocity": 109, "channel": 0}, {"type": "note_off", "time": 47, "note": 55, "velocity": 109, "channel": 0}, {"type": "note_on", "time": 10, "note": 55, "velocity": 103, "channel": 0}, {"type": "note_off", "time": 115, "note": 55, "velocity": 103, "channel": 0}, {"type": "note_on", "time": 34, "note": 55, "velocity": 113, "channel": 0}, {"type": "note_off", "time": 387, "note": 55, "velocity": 113, "channel": 0}, {"type": "note_on", "time": 368, "note": 50, "velocity": 111, "channel": 0}, {"type": "note_off", "time": 52, "note": 50, "velocity": 111, "channel": 0}, {"type": "note_on", "time": 6, "note": 51, "velocity": 106, "channel": 0}, {"type": "note_off", "time": 57, "note": 51, "velocity": 106, "channel": 0}, {"type": "note_on", "time": 4, "note": 53, "velocity": 103, "channel": 0}, {"type": "note_off", "time": 38, "note": 53, "velocity": 103, "channel": 0}, {"type": "note_on", "time": 2, "note": 55, "velocity": 108, "channel": 0}, {"type": "note_off", "time": 49, "note": 55, "velocity": 108, "channel": 0}, {"type": "note_on", "time": 3, "note": 56, "velocity": 111, "channel": 0}, {"type": "note_off", "time": 36, "note": 56, "velocity": 111, "channel": 0}, {"type": "note_on", "time": 11, "note": 55, "velocity": 105, "channel": 0}, {"type": "note_off", "time": 36, "note": 55, "velocity": 105, "channel": 0}, {"type": "note_on", "time": 8, "note": 53, "velocity": 9, "channel": 0}, {"type": "note_off", "time": 44, "note": 53, "velocity": 9, "channel": 0}, {"type": "note_on", "time": 4, "note": 51, "velocity": 93, "channel": 0}, {"type": "note_off", "time": 44, "note": 51, "velocity": 93, "channel": 0}, {"type": "note_on", "time": 5, "note": 50, "velocity": 93, "channel": 0}, {"type": "note_off", "time": 40, "note": 50, "velocity": 93, "channel": 0}, {"type": "note_on", "time": 46, "note": 53, "velocity": 107, "channel": 0}, {"type": "note_off", "time": 38, "note": 53, "velocity": 107, "channel": 0}, {"type": "note_on", "time": 4, "note": 56, "velocity": 107, "channel": 0}, {"type": "note_off", "time": 30, "note": 56, "velocity": 107, "channel": 0}, {"type": "note_on", "time": 13, "note": 59, "velocity": 106, "channel": 0}, {"type": "note_off", "time": 121, "note": 59, "velocity": 106, "channel": 0}, {"type": "note_on", "time": 643, "note": 54, "velocity": 106, "channel": 0}, {"type": "note_off", "time": 30, "note": 54, "velocity": 106, "channel": 0}, {"type": "note_on", "time": 6, "note": 55, "velocity": 97, "channel": 0}, {"type": "note_off", "time": 57, "note": 55, "velocity": 97, "channel": 0}, {"type": "note_on", "time": 5, "note": 54, "velocity": 92, "channel": 0}, {"type": "note_off", "time": 48, "note": 54, "velocity": 92, "channel": 0}, {"type": "note_on", "time": 7, "note": 55, "velocity": 102, "channel": 0}, {"type": "note_off", "time": 39, "note": 55, "velocity": 102, "channel": 0}, {"type": "note_on", "time": 1, "note": 58, "velocity": 103, "channel": 0}, {"type": "note_off", "time": 59, "note": 58, "velocity": 103, "channel": 0}, {"type": "note_on", "time": 11, "note": 54, "velocity": 96, "channel": 0}, {"type": "note_off", "time": 23, "note": 54, "velocity": 96, "channel": 0}, {"type": "note_on", "time": 3, "note": 55, "velocity": 97, "channel": 0}, {"type": "note_off", "time": 32, "note": 55, "velocity": 97, "channel": 0}, {"type": "note_on", "time": 11, "note": 58, "velocity": 101, "channel": 0}, {"type": "note_off", "time": 56, "note": 58, "velocity": 101, "channel": 0}, {"type": "note_on", "time": 10, "note": 55, "velocity": 102, "channel": 0}, {"type": "note_off", "time": 44, "note": 55, "velocity": 102, "channel": 0}, {"type": "note_on", "time": 6, "note": 54, "velocity": 102, "channel": 0}, {"type": "note_off", "time": 44, "note": 54, "velocity": 102, "channel": 0}, {"type": "note_on", "time": 10, "note": 53, "velocity": 108, "channel": 0}, {"type": "note_off", "time": 41, "note": 53, "velocity": 108, "channel": 0}, {"type": "note_on", "time": 19, "note": 51, "velocity": 105, "channel": 0}, {"type": "note_off", "time": 94, "note": 51, "velocity": 105, "channel": 0}, {"type": "note_on", "time": 284, "note": 46, "velocity": 106, "channel": 0}, {"type": "note_off", "time": 59, "note": 46, "velocity": 106, "channel": 0}, {"type": "note_on", "time": 4, "note": 48, "velocity": 104, "channel": 0}, {"type": "note_off", "time": 66, "note": 48, "velocity": 104, "channel": 0}, {"type": "note_on", "time": 21, "note": 53, "velocity": 103, "channel": 0}, {"type": "note_off", "time": 67, "note": 53, "velocity": 103, "channel": 0}, {"type": "note_on", "time": 8, "note": 49, "velocity": 101, "channel": 0}, {"type": "note_off", "time": 31, "note": 49, "velocity": 101, "channel": 0}, {"type": "note_on", "time": 2, "note": 50, "velocity": 98, "channel": 0}, {"type": "note_off", "time": 33, "note": 50, "velocity": 98, "channel": 0}, {"type": "note_on", "time": 4, "note": 51, "velocity": 103, "channel": 0}, {"type": "note_off", "time": 37, "note": 51, "velocity": 103, "channel": 0}, {"type": "note_on", "time": 6, "note": 56, "velocity": 105, "channel": 0}, {"type": "note_off", "time": 53, "note": 56, "velocity": 105, "channel": 0}, {"type": "note_on", "time": 12, "note": 54, "velocity": 99, "channel": 0}, {"type": "note_off", "time": 55, "note": 54, "velocity": 99, "channel": 0}, {"type": "note_on", "time": 31, "note": 56, "velocity": 111, "channel": 0}, {"type": "note_off", "time": 28, "note": 56, "velocity": 111, "channel": 0}, {"type": "note_on", "time": 6, "note": 58, "velocity": 106, "channel": 0}, {"type": "note_off", "time": 26, "note": 58, "velocity": 106, "channel": 0}, {"type": "note_on", "time": 9, "note": 61, "velocity": 106, "channel": 0}, {"type": "note_off", "time": 34, "note": 61, "velocity": 106, "channel": 0}, {"type": "note_on", "time": 10, "note": 58, "velocity": 90, "channel": 0}, {"type": "note_off", "time": 36, "note": 58, "velocity": 90, "channel": 0}, {"type": "note_on", "time": 21, "note": 61, "velocity": 105, "channel": 0}, {"type": "note_off", "time": 36, "note": 61, "velocity": 105, "channel": 0}, {"type": "note_on", "time": 12, "note": 63, "velocity": 106, "channel": 0}, {"type": "note_off", "time": 23, "note": 63, "velocity": 106, "channel": 0}, {"type": "note_on", "time": 6, "note": 66, "velocity": 109, "channel": 0}, {"type": "note_off", "time": 35, "note": 66, "velocity": 109, "channel": 0}, {"type": "note_on", "time": 9, "note": 64, "velocity": 119, "channel": 0}, {"type": "note_off", "time": 75, "note": 64, "velocity": 119, "channel": 0}, {"type": "note_on", "time": 282, "note": 51, "velocity": 107, "channel": 0}, {"type": "note_off", "time": 33, "note": 51, "velocity": 107, "channel": 0}, {"type": "note_on", "time": 39, "note": 55, "velocity": 93, "channel": 0}, {"type": "note_off", "time": 50, "note": 55, "velocity": 93, "channel": 0}, {"type": "note_on", "time": 15, "note": 56, "velocity": 110, "channel": 0}, {"type": "note_off", "time": 24, "note": 56, "velocity": 110, "channel": 0}, {"type": "note_on", "time": 11, "note": 59, "velocity": 106, "channel": 0}, {"type": "note_off", "time": 24, "note": 59, "velocity": 106, "channel": 0}, {"type": "note_on", "time": 15, "note": 56, "velocity": 106, "channel": 0}, {"type": "note_off", "time": 18, "note": 56, "velocity": 106, "channel": 0}, {"type": "note_on", "time": 51, "note": 59, "velocity": 104, "channel": 0}, {"type": "note_off", "time": 43, "note": 59, "velocity": 104, "channel": 0}, {"type": "note_on", "time": 8, "note": 62, "velocity": 109, "channel": 0}, {"type": "note_off", "time": 29, "note": 62, "velocity": 109, "channel": 0}, {"type": "note_on", "time": 0, "note": 64, "velocity": 119, "channel": 0}, {"type": "note_off", "time": 33, "note": 64, "velocity": 119, "channel": 0}, {"type": "note_on", "time": 5, "note": 62, "velocity": 106, "channel": 0}, {"type": "note_off", "time": 22, "note": 62, "velocity": 106, "channel": 0}, {"type": "note_on", "time": 616, "note": 70, "velocity": 101, "channel": 0}, {"type": "note_off", "time": 50, "note": 70, "velocity": 101, "channel": 0}, {"type": "note_on", "time": 150, "note": 62, "velocity": 115, "channel": 0}, {"type": "note_off", "time": 78, "note": 62, "velocity": 115, "channel": 0}, {"type": "note_on", "time": 10, "note": 63, "velocity": 122, "channel": 0}, {"type": "note_off", "time": 90, "note": 63, "velocity": 122, "channel": 0}, {"type": "note_on", "time": 16, "note": 65, "velocity": 111, "channel": 0}, {"type": "note_off", "time": 88, "note": 65, "velocity": 111, "channel": 0}, {"type": "note_on", "time": 23, "note": 67, "velocity": 114, "channel": 0}, {"type": "note_off", "time": 77, "note": 67, "velocity": 114, "channel": 0}, {"type": "note_on", "time": 15, "note": 70, "velocity": 115, "channel": 0}, {"type": "note_off", "time": 73, "note": 70, "velocity": 115, "channel": 0}, {"type": "note_on", "time": 12, "note": 69, "velocity": 115, "channel": 0}, {"type": "note_off", "time": 79, "note": 69, "velocity": 115, "channel": 0}, {"type": "note_on", "time": 21, "note": 67, "velocity": 113, "channel": 0}, {"type": "note_off", "time": 83, "note": 67, "velocity": 113, "channel": 0}, {"type": "note_on", "time": 33, "note": 65, "velocity": 111, "channel": 0}, {"type": "note_off", "time": 82, "note": 65, "velocity": 111, "channel": 0}, {"type": "note_on", "time": 131, "note": 60, "velocity": 92, "channel": 0}, {"type": "note_off", "time": 57, "note": 60, "velocity": 92, "channel": 0}, {"type": "note_on", "time": 3, "note": 63, "velocity": 118, "channel": 0}, {"type": "note_off", "time": 76, "note": 63, "velocity": 118, "channel": 0}, {"type": "note_on", "time": 29, "note": 62, "velocity": 113, "channel": 0}, {"type": "note_off", "time": 73, "note": 62, "velocity": 113, "channel": 0}, {"type": "note_on", "time": 15, "note": 61, "velocity": 104, "channel": 0}, {"type": "note_off", "time": 78, "note": 61, "velocity": 104, "channel": 0}, {"type": "note_on", "time": 12, "note": 60, "velocity": 103, "channel": 0}, {"type": "note_off", "time": 78, "note": 60, "velocity": 103, "channel": 0}, {"type": "note_on", "time": 15, "note": 59, "velocity": 106, "channel": 0}, {"type": "note_off", "time": 70, "note": 59, "velocity": 106, "channel": 0}, {"type": "note_on", "time": 8, "note": 58, "velocity": 105, "channel": 0}, {"type": "note_off", "time": 105, "note": 58, "velocity": 105, "channel": 0}, {"type": "note_on", "time": 201, "note": 61, "velocity": 109, "channel": 0}, {"type": "note_off", "time": 52, "note": 61, "velocity": 109, "channel": 0}, {"type": "note_on", "time": 5, "note": 62, "velocity": 116, "channel": 0}, {"type": "note_off", "time": 120, "note": 62, "velocity": 116, "channel": 0}, {"type": "note_on", "time": 13, "note": 65, "velocity": 117, "channel": 0}, {"type": "note_off", "time": 52, "note": 65, "velocity": 117, "channel": 0}, {"type": "note_on", "time": 37, "note": 67, "velocity": 112, "channel": 0}, {"type": "note_off", "time": 100, "note": 67, "velocity": 112, "channel": 0}, {"type": "note_on", "time": 78, "note": 70, "velocity": 111, "channel": 0}, {"type": "note_off", "time": 104, "note": 70, "velocity": 111, "channel": 0}, {"type": "note_on", "time": 13, "note": 70, "velocity": 113, "channel": 0}, {"type": "note_off", "time": 71, "note": 70, "velocity": 113, "channel": 0}, {"type": "note_on", "time": 16, "note": 70, "velocity": 114, "channel": 0}, {"type": "note_off", "time": 81, "note": 70, "velocity": 114, "channel": 0}, {"type": "note_on", "time": 20, "note": 70, "velocity": 114, "channel": 0}, {"type": "note_off", "time": 65, "note": 70, "velocity": 114, "channel": 0}, {"type": "note_on", "time": 32, "note": 68, "velocity": 115, "channel": 0}, {"type": "note_off", "time": 99, "note": 68, "velocity": 115, "channel": 0}, {"type": "note_on", "time": 28, "note": 65, "velocity": 110, "channel": 0}, {"type": "note_off", "time": 80, "note": 65, "velocity": 110, "channel": 0}, {"type": "note_on", "time": 55, "note": 70, "velocity": 105, "channel": 0}, {"type": "note_off", "time": 91, "note": 70, "velocity": 105, "channel": 0}, {"type": "note_on", "time": 29, "note": 68, "velocity": 110, "channel": 0}, {"type": "note_off", "time": 100, "note": 68, "velocity": 110, "channel": 0}, {"type": "note_on", "time": 27, "note": 65, "velocity": 106, "channel": 0}, {"type": "note_off", "time": 62, "note": 65, "velocity": 106, "channel": 0}, {"type": "note_on", "time": 89, "note": 65, "velocity": 109, "channel": 0}, {"type": "note_off", "time": 127, "note": 65, "velocity": 109, "channel": 0}, {"type": "note_on", "time": 442, "note": 58, "velocity": 95, "channel": 0}, {"type": "note_off", "time": 137, "note": 58, "velocity": 95, "channel": 0}, {"type": "note_on", "time": 37, "note": 61, "velocity": 103, "channel": 0}, {"type": "note_off", "time": 150, "note": 61, "velocity": 103, "channel": 0}, {"type": "note_on", "time": 25, "note": 65, "velocity": 108, "channel": 0}, {"type": "note_off", "time": 139, "note": 65, "velocity": 108, "channel": 0}, {"type": "note_on", "time": 36, "note": 70, "velocity": 100, "channel": 0}, {"type": "note_off", "time": 140, "note": 70, "velocity": 100, "channel": 0}, {"type": "note_on", "time": 46, "note": 73, "velocity": 99, "channel": 0}, {"type": "note_off", "time": 199, "note": 73, "velocity": 99, "channel": 0}, {"type": "note_on", "time": 7, "note": 77, "velocity": 110, "channel": 0}, {"type": "note_off", "time": 701, "note": 77, "velocity": 110, "channel": 0}, {"type": "note_on", "time": 609, "note": 76, "velocity": 119, "channel": 0}, {"type": "note_off", "time": 96, "note": 76, "velocity": 119, "channel": 0}, {"type": "note_on", "time": 621, "note": 83, "velocity": 114, "channel": 0}, {"type": "note_off", "time": 39, "note": 83, "velocity": 114, "channel": 0}, {"type": "note_on", "time": 8, "note": 84, "velocity": 108, "channel": 0}, {"type": "note_off", "time": 42, "note": 84, "velocity": 108, "channel": 0}, {"type": "note_on", "time": 111, "note": 76, "velocity": 116, "channel": 0}, {"type": "note_off", "time": 96, "note": 76, "velocity": 116, "channel": 0}, {"type": "note_on", "time": 17, "note": 75, "velocity": 114, "channel": 0}, {"type": "note_off", "time": 231, "note": 75, "velocity": 114, "channel": 0}, {"type": "note_on", "time": 30, "note": 73, "velocity": 108, "channel": 0}, {"type": "note_off", "time": 79, "note": 73, "velocity": 108, "channel": 0}, {"type": "note_on", "time": 19, "note": 70, "velocity": 105, "channel": 0}, {"type": "note_off", "time": 267, "note": 70, "velocity": 105, "channel": 0}, {"type": "note_on", "time": 22, "note": 73, "velocity": 110, "channel": 0}, {"type": "note_off", "time": 89, "note": 73, "velocity": 110, "channel": 0}, {"type": "note_on", "time": 98, "note": 70, "velocity": 100, "channel": 0}, {"type": "note_off", "time": 82, "note": 70, "velocity": 100, "channel": 0}, {"type": "note_on", "time": 16, "note": 73, "velocity": 108, "channel": 0}, {"type": "note_off", "time": 79, "note": 73, "velocity": 108, "channel": 0}, {"type": "note_on", "time": 21, "note": 75, "velocity": 111, "channel": 0}, {"type": "note_off", "time": 85, "note": 75, "velocity": 111, "channel": 0}, {"type": "note_on", "time": 5, "note": 75, "velocity": 123, "channel": 0}, {"type": "note_off", "time": 49, "note": 75, "velocity": 123, "channel": 0}, {"type": "note_on", "time": 2, "note": 76, "velocity": 119, "channel": 0}, {"type": "note_off", "time": 69, "note": 76, "velocity": 119, "channel": 0}, {"type": "note_on", "time": 10, "note": 75, "velocity": 115, "channel": 0}, {"type": "note_off", "time": 376, "note": 75, "velocity": 115, "channel": 0}, {"type": "note_on", "time": 419, "note": 76, "velocity": 121, "channel": 0}, {"type": "note_off", "time": 50, "note": 76, "velocity": 121, "channel": 0}, {"type": "note_on", "time": 5, "note": 75, "velocity": 112, "channel": 0}, {"type": "note_off", "time": 68, "note": 75, "velocity": 112, "channel": 0}, {"type": "note_on", "time": 11, "note": 73, "velocity": 100, "channel": 0}, {"type": "note_off", "time": 57, "note": 73, "velocity": 100, "channel": 0}, {"type": "note_on", "time": 1, "note": 70, "velocity": 107, "channel": 0}, {"type": "note_off", "time": 276, "note": 70, "velocity": 107, "channel": 0}, {"type": "note_on", "time": 28, "note": 68, "velocity": 115, "channel": 0}, {"type": "note_off", "time": 71, "note": 68, "velocity": 115, "channel": 0}, {"type": "note_on", "time": 20, "note": 65, "velocity": 107, "channel": 0}, {"type": "note_off", "time": 100, "note": 65, "velocity": 107, "channel": 0}, {"type": "note_on", "time": 15, "note": 68, "velocity": 114, "channel": 0}, {"type": "note_off", "time": 95, "note": 68, "velocity": 114, "channel": 0}, {"type": "note_on", "time": 926, "note": 72, "velocity": 115, "channel": 0}, {"type": "note_off", "time": 78, "note": 72, "velocity": 115, "channel": 0}, {"type": "note_on", "time": 2, "note": 73, "velocity": 108, "channel": 0}, {"type": "note_off", "time": 160, "note": 73, "velocity": 108, "channel": 0}, {"type": "note_on", "time": 40, "note": 70, "velocity": 101, "channel": 0}, {"type": "note_off", "time": 52, "note": 70, "velocity": 101, "channel": 0}, {"type": "note_on", "time": 22, "note": 73, "velocity": 102, "channel": 0}, {"type": "note_off", "time": 48, "note": 73, "velocity": 102, "channel": 0}, {"type": "note_on", "time": 29, "note": 70, "velocity": 105, "channel": 0}, {"type": "note_off", "time": 35, "note": 70, "velocity": 105, "channel": 0}, {"type": "note_on", "time": 15, "note": 73, "velocity": 98, "channel": 0}, {"type": "note_off", "time": 43, "note": 73, "velocity": 98, "channel": 0}, {"type": "note_on", "time": 14, "note": 70, "velocity": 109, "channel": 0}, {"type": "note_off", "time": 322, "note": 70, "velocity": 109, "channel": 0}, {"type": "note_on", "time": 66, "note": 68, "velocity": 113, "channel": 0}, {"type": "note_off", "time": 82, "note": 68, "velocity": 113, "channel": 0}, {"type": "note_on", "time": 58, "note": 68, "velocity": 111, "channel": 0}, {"type": "note_off", "time": 55, "note": 68, "velocity": 111, "channel": 0}, {"type": "note_on", "time": 22, "note": 65, "velocity": 109, "channel": 0}, {"type": "note_off", "time": 287, "note": 65, "velocity": 109, "channel": 0}, {"type": "note_on", "time": 46, "note": 63, "velocity": 121, "channel": 0}, {"type": "note_off", "time": 74, "note": 63, "velocity": 121, "channel": 0}, {"type": "note_on", "time": 4, "note": 61, "velocity": 105, "channel": 0}, {"type": "note_off", "time": 41, "note": 61, "velocity": 105, "channel": 0}, {"type": "note_on", "time": 2, "note": 63, "velocity": 116, "channel": 0}, {"type": "note_off", "time": 91, "note": 63, "velocity": 116, "channel": 0}, {"type": "note_on", "time": 20, "note": 58, "velocity": 95, "channel": 0}, {"type": "note_off", "time": 310, "note": 58, "velocity": 95, "channel": 0}, {"type": "note_on", "time": 58, "note": 56, "velocity": 103, "channel": 0}, {"type": "note_off", "time": 65, "note": 56, "velocity": 103, "channel": 0}, {"type": "note_on", "time": 10, "note": 53, "velocity": 101, "channel": 0}, {"type": "note_off", "time": 46, "note": 53, "velocity": 101, "channel": 0}, {"type": "note_on", "time": 5, "note": 56, "velocity": 104, "channel": 0}, {"type": "note_off", "time": 60, "note": 56, "velocity": 104, "channel": 0}, {"type": "note_on", "time": 11, "note": 53, "velocity": 101, "channel": 0}, {"type": "note_off", "time": 305, "note": 53, "velocity": 101, "channel": 0}, {"type": "note_on", "time": 6, "note": 56, "velocity": 98, "channel": 0}, {"type": "note_off", "time": 32, "note": 56, "velocity": 98, "channel": 0}, {"type": "note_on", "time": 4, "note": 60, "velocity": 103, "channel": 0}, {"type": "note_off", "time": 40, "note": 60, "velocity": 103, "channel": 0}, {"type": "note_on", "time": 8, "note": 63, "velocity": 111, "channel": 0}, {"type": "note_off", "time": 32, "note": 63, "velocity": 111, "channel": 0}, {"type": "note_on", "time": 10, "note": 67, "velocity": 108, "channel": 0}, {"type": "note_off", "time": 33, "note": 67, "velocity": 108, "channel": 0}, {"type": "note_on", "time": 19, "note": 62, "velocity": 114, "channel": 0}, {"type": "note_off", "time": 147, "note": 62, "velocity": 114, "channel": 0}, {"type": "note_on", "time": 14, "note": 65, "velocity": 104, "channel": 0}, {"type": "note_off", "time": 28, "note": 65, "velocity": 104, "channel": 0}, {"type": "note_on", "time": 7, "note": 68, "velocity": 105, "channel": 0}, {"type": "note_off", "time": 18, "note": 68, "velocity": 105, "channel": 0}, {"type": "note_on", "time": 9, "note": 72, "velocity": 102, "channel": 0}, {"type": "note_off", "time": 40, "note": 72, "velocity": 102, "channel": 0}, {"type": "note_on", "time": 8, "note": 70, "velocity": 115, "channel": 0}, {"type": "note_off", "time": 170, "note": 70, "velocity": 115, "channel": 0}, {"type": "note_on", "time": 296, "note": 75, "velocity": 113, "channel": 0}, {"type": "note_off", "time": 134, "note": 75, "velocity": 113, "channel": 0}, {"type": "note_on", "time": 142, "note": 73, "velocity": 107, "channel": 0}, {"type": "note_off", "time": 98, "note": 73, "velocity": 107, "channel": 0}, {"type": "note_on", "time": 54, "note": 70, "velocity": 111, "channel": 0}, {"type": "note_off", "time": 86, "note": 70, "velocity": 111, "channel": 0}, {"type": "note_on", "time": 61, "note": 75, "velocity": 111, "channel": 0}, {"type": "note_off", "time": 87, "note": 75, "velocity": 111, "channel": 0}, {"type": "note_on", "time": 31, "note": 73, "velocity": 108, "channel": 0}, {"type": "note_off", "time": 63, "note": 73, "velocity": 108, "channel": 0}, {"type": "note_on", "time": 16, "note": 70, "velocity": 106, "channel": 0}, {"type": "note_off", "time": 66, "note": 70, "velocity": 106, "channel": 0}, {"type": "note_on", "time": 23, "note": 68, "velocity": 115, "channel": 0}, {"type": "note_off", "time": 86, "note": 68, "velocity": 115, "channel": 0}, {"type": "note_on", "time": 20, "note": 66, "velocity": 114, "channel": 0}, {"type": "note_off", "time": 68, "note": 66, "velocity": 114, "channel": 0}, {"type": "note_on", "time": 27, "note": 63, "velocity": 118, "channel": 0}, {"type": "note_off", "time": 109, "note": 63, "velocity": 118, "channel": 0}, {"type": "note_on", "time": 10, "note": 65, "velocity": 112, "channel": 0}, {"type": "note_off", "time": 106, "note": 65, "velocity": 112, "channel": 0}, {"type": "note_on", "time": 255, "note": 63, "velocity": 116, "channel": 0}, {"type": "note_off", "time": 100, "note": 63, "velocity": 116, "channel": 0}, {"type": "note_on", "time": 1, "note": 65, "velocity": 106, "channel": 0}, {"type": "note_off", "time": 164, "note": 65, "velocity": 106, "channel": 0}, {"type": "note_on", "time": 9, "note": 63, "velocity": 121, "channel": 0}, {"type": "note_off", "time": 90, "note": 63, "velocity": 121, "channel": 0}, {"type": "note_on", "time": 13, "note": 61, "velocity": 103, "channel": 0}, {"type": "note_off", "time": 68, "note": 61, "velocity": 103, "channel": 0}, {"type": "note_on", "time": 19, "note": 58, "velocity": 97, "channel": 0}, {"type": "note_off", "time": 99, "note": 58, "velocity": 97, "channel": 0}, {"type": "note_on", "time": 117, "note": 60, "velocity": 110, "channel": 0}, {"type": "note_off", "time": 61, "note": 60, "velocity": 110, "channel": 0}, {"type": "note_on", "time": 10, "note": 61, "velocity": 108, "channel": 0}, {"type": "note_off", "time": 80, "note": 61, "velocity": 108, "channel": 0}, {"type": "note_on", "time": 22, "note": 60, "velocity": 105, "channel": 0}, {"type": "note_off", "time": 89, "note": 60, "velocity": 105, "channel": 0}, {"type": "note_on", "time": 21, "note": 58, "velocity": 99, "channel": 0}, {"type": "note_off", "time": 57, "note": 58, "velocity": 99, "channel": 0}, {"type": "note_on", "time": 28, "note": 57, "velocity": 101, "channel": 0}, {"type": "note_off", "time": 80, "note": 57, "velocity": 101, "channel": 0}, {"type": "note_on", "time": 28, "note": 53, "velocity": 107, "channel": 0}, {"type": "note_off", "time": 95, "note": 53, "velocity": 107, "channel": 0}, {"type": "note_on", "time": 842, "note": 60, "velocity": 112, "channel": 0}, {"type": "note_off", "time": 60, "note": 60, "velocity": 112, "channel": 0}, {"type": "note_on", "time": 9, "note": 62, "velocity": 117, "channel": 0}, {"type": "note_off", "time": 53, "note": 62, "velocity": 117, "channel": 0}, {"type": "note_on", "time": 8, "note": 63, "velocity": 104, "channel": 0}, {"type": "note_off", "time": 55, "note": 63, "velocity": 104, "channel": 0}, {"type": "note_on", "time": 27, "note": 67, "velocity": 112, "channel": 0}, {"type": "note_off", "time": 67, "note": 67, "velocity": 112, "channel": 0}, {"type": "note_on", "time": 1, "note": 70, "velocity": 106, "channel": 0}, {"type": "note_off", "time": 36, "note": 70, "velocity": 106, "channel": 0}, {"type": "note_on", "time": 3, "note": 69, "velocity": 114, "channel": 0}, {"type": "note_off", "time": 55, "note": 69, "velocity": 114, "channel": 0}, {"type": "note_on", "time": 6, "note": 67, "velocity": 115, "channel": 0}, {"type": "note_off", "time": 40, "note": 67, "velocity": 115, "channel": 0}, {"type": "note_on", "time": 5, "note": 65, "velocity": 116, "channel": 0}, {"type": "note_off", "time": 40, "note": 65, "velocity": 116, "channel": 0}, {"type": "note_on", "time": 6, "note": 64, "velocity": 116, "channel": 0}, {"type": "note_off", "time": 63, "note": 64, "velocity": 116, "channel": 0}, {"type": "note_on", "time": 2, "note": 63, "velocity": 113, "channel": 0}, {"type": "note_off", "time": 52, "note": 63, "velocity": 113, "channel": 0}, {"type": "note_on", "time": 3, "note": 62, "velocity": 106, "channel": 0}, {"type": "note_off", "time": 54, "note": 62, "velocity": 106, "channel": 0}, {"type": "note_on", "time": 6, "note": 60, "velocity": 106, "channel": 0}, {"type": "note_off", "time": 41, "note": 60, "velocity": 106, "channel": 0}, {"type": "note_on", "time": 4, "note": 58, "velocity": 99, "channel": 0}, {"type": "note_off", "time": 46, "note": 58, "velocity": 99, "channel": 0}, {"type": "note_on", "time": 4, "note": 57, "velocity": 108, "channel": 0}, {"type": "note_off", "time": 51, "note": 57, "velocity": 108, "channel": 0}, {"type": "note_on", "time": 617, "note": 64, "velocity": 120, "channel": 0}, {"type": "note_off", "time": 109, "note": 64, "velocity": 120, "channel": 0}, {"type": "note_on", "time": 6, "note": 65, "velocity": 118, "channel": 0}, {"type": "note_off", "time": 79, "note": 65, "velocity": 118, "channel": 0}, {"type": "note_on", "time": 652, "note": 64, "velocity": 121, "channel": 0}, {"type": "note_off", "time": 80, "note": 64, "velocity": 121, "channel": 0}, {"type": "note_on", "time": 11, "note": 65, "velocity": 115, "channel": 0}, {"type": "note_off", "time": 85, "note": 65, "velocity": 115, "channel": 0}, {"type": "note_on", "time": 25, "note": 65, "velocity": 117, "channel": 0}, {"type": "note_off", "time": 87, "note": 65, "velocity": 117, "channel": 0}, {"type": "note_on", "time": 11, "note": 65, "velocity": 119, "channel": 0}, {"type": "note_off", "time": 60, "note": 65, "velocity": 119, "channel": 0}, {"type": "note_on", "time": 27, "note": 64, "velocity": 121, "channel": 0}, {"type": "note_off", "time": 122, "note": 64, "velocity": 121, "channel": 0}, {"type": "note_on", "time": 4, "note": 65, "velocity": 116, "channel": 0}, {"type": "note_off", "time": 42, "note": 65, "velocity": 116, "channel": 0}, {"type": "note_on", "time": 19, "note": 65, "velocity": 117, "channel": 0}, {"type": "note_off", "time": 96, "note": 65, "velocity": 117, "channel": 0}, {"type": "note_on", "time": 11, "note": 65, "velocity": 120, "channel": 0}, {"type": "note_off", "time": 66, "note": 65, "velocity": 120, "channel": 0}, {"type": "note_on", "time": 15, "note": 64, "velocity": 122, "channel": 0}, {"type": "note_off", "time": 99, "note": 64, "velocity": 122, "channel": 0}, {"type": "note_on", "time": 2, "note": 65, "velocity": 118, "channel": 0}, {"type": "note_off", "time": 71, "note": 65, "velocity": 118, "channel": 0}, {"type": "note_on", "time": 11, "note": 65, "velocity": 119, "channel": 0}, {"type": "note_off", "time": 103, "note": 65, "velocity": 119, "channel": 0}, {"type": "note_on", "time": 17, "note": 65, "velocity": 121, "channel": 0}, {"type": "note_off", "time": 46, "note": 65, "velocity": 121, "channel": 0}, {"type": "note_on", "time": 11, "note": 64, "velocity": 121, "channel": 0}, {"type": "note_off", "time": 107, "note": 64, "velocity": 121, "channel": 0}, {"type": "note_on", "time": 3, "note": 65, "velocity": 118, "channel": 0}, {"type": "note_off", "time": 52, "note": 65, "velocity": 118, "channel": 0}, {"type": "note_on", "time": 15, "note": 65, "velocity": 117, "channel": 0}, {"type": "note_off", "time": 96, "note": 65, "velocity": 117, "channel": 0}, {"type": "note_on", "time": 10, "note": 65, "velocity": 120, "channel": 0}, {"type": "note_off", "time": 57, "note": 65, "velocity": 120, "channel": 0}, {"type": "note_on", "time": 23, "note": 64, "velocity": 118, "channel": 0}, {"type": "note_off", "time": 78, "note": 64, "velocity": 118, "channel": 0}, {"type": "note_on", "time": 8, "note": 65, "velocity": 110, "channel": 0}, {"type": "note_off", "time": 66, "note": 65, "velocity": 110, "channel": 0}, {"type": "note_on", "time": 16, "note": 65, "velocity": 113, "channel": 0}, {"type": "note_off", "time": 88, "note": 65, "velocity": 113, "channel": 0}, {"type": "note_on", "time": 16, "note": 65, "velocity": 116, "channel": 0}, {"type": "note_off", "time": 61, "note": 65, "velocity": 116, "channel": 0}, {"type": "note_on", "time": 14, "note": 64, "velocity": 113, "channel": 0}, {"type": "note_off", "time": 81, "note": 64, "velocity": 113, "channel": 0}, {"type": "note_on", "time": 2, "note": 65, "velocity": 109, "channel": 0}, {"type": "note_off", "time": 92, "note": 65, "velocity": 109, "channel": 0}, {"type": "note_on", "time": 4, "note": 65, "velocity": 111, "channel": 0}, {"type": "note_off", "time": 116, "note": 65, "velocity": 111, "channel": 0}, {"type": "note_on", "time": 5, "note": 65, "velocity": 109, "channel": 0}, {"type": "note_off", "time": 71, "note": 65, "velocity": 109, "channel": 0}, {"type": "note_on", "time": 64, "note": 70, "velocity": 112, "channel": 0}, {"type": "note_off", "time": 80, "note": 70, "velocity": 112, "channel": 0}, {"type": "note_on", "time": 76, "note": 63, "velocity": 127, "channel": 0}, {"type": "note_off", "time": 67, "note": 63, "velocity": 127, "channel": 0}, {"type": "note_on", "time": 8, "note": 64, "velocity": 116, "channel": 0}, {"type": "note_off", "time": 72, "note": 64, "velocity": 116, "channel": 0}, {"type": "note_on", "time": 6, "note": 63, "velocity": 114, "channel": 0}, {"type": "note_off", "time": 341, "note": 63, "velocity": 114, "channel": 0}, {"type": "note_on", "time": 13, "note": 61, "velocity": 115, "channel": 0}, {"type": "note_off", "time": 68, "note": 61, "velocity": 115, "channel": 0}, {"type": "note_on", "time": 23, "note": 58, "velocity": 100, "channel": 0}, {"type": "note_off", "time": 133, "note": 58, "velocity": 100, "channel": 0}, {"type": "note_on", "time": 10, "note": 58, "velocity": 105, "channel": 0}, {"type": "note_off", "time": 52, "note": 58, "velocity": 105, "channel": 0}, {"type": "note_on", "time": 621, "note": 58, "velocity": 93, "channel": 0}, {"type": "note_off", "time": 46, "note": 58, "velocity": 93, "channel": 0}, {"type": "note_on", "time": 19, "note": 61, "velocity": 111, "channel": 0}, {"type": "note_off", "time": 73, "note": 61, "velocity": 111, "channel": 0}, {"type": "note_on", "time": 5, "note": 62, "velocity": 101, "channel": 0}, {"type": "note_off", "time": 43, "note": 62, "velocity": 101, "channel": 0}, {"type": "note_on", "time": 36, "note": 65, "velocity": 112, "channel": 0}, {"type": "note_off", "time": 41, "note": 65, "velocity": 112, "channel": 0}, {"type": "note_on", "time": 7, "note": 61, "velocity": 105, "channel": 0}, {"type": "note_off", "time": 56, "note": 61, "velocity": 105, "channel": 0}, {"type": "note_on", "time": 9, "note": 62, "velocity": 104, "channel": 0}, {"type": "note_off", "time": 40, "note": 62, "velocity": 104, "channel": 0}, {"type": "note_on", "time": 21, "note": 65, "velocity": 116, "channel": 0}, {"type": "note_off", "time": 55, "note": 65, "velocity": 116, "channel": 0}, {"type": "note_on", "time": 15, "note": 61, "velocity": 102, "channel": 0}, {"type": "note_off", "time": 40, "note": 61, "velocity": 102, "channel": 0}, {"type": "note_on", "time": 15, "note": 62, "velocity": 107, "channel": 0}, {"type": "note_off", "time": 47, "note": 62, "velocity": 107, "channel": 0}, {"type": "note_on", "time": 13, "note": 65, "velocity": 114, "channel": 0}, {"type": "note_off", "time": 66, "note": 65, "velocity": 114, "channel": 0}, {"type": "note_on", "time": 53, "note": 57, "velocity": 95, "channel": 0}, {"type": "note_off", "time": 67, "note": 57, "velocity": 95, "channel": 0}, {"type": "note_on", "time": 5, "note": 58, "velocity": 95, "channel": 0}, {"type": "note_off", "time": 120, "note": 58, "velocity": 95, "channel": 0}, {"type": "note_on", "time": 95, "note": 67, "velocity": 118, "channel": 0}, {"type": "note_off", "time": 109, "note": 67, "velocity": 118, "channel": 0}, {"type": "note_on", "time": 21, "note": 65, "velocity": 116, "channel": 0}, {"type": "note_off", "time": 250, "note": 65, "velocity": 116, "channel": 0}, {"type": "note_on", "time": 726, "note": 60, "velocity": 116, "channel": 0}, {"type": "note_off", "time": 75, "note": 60, "velocity": 116, "channel": 0}, {"type": "note_on", "time": 13, "note": 63, "velocity": 124, "channel": 0}, {"type": "note_off", "time": 82, "note": 63, "velocity": 124, "channel": 0}, {"type": "note_on", "time": 8, "note": 62, "velocity": 102, "channel": 0}, {"type": "note_off", "time": 114, "note": 62, "velocity": 102, "channel": 0}, {"type": "note_on", "time": 10, "note": 60, "velocity": 81, "channel": 0}, {"type": "note_off", "time": 39, "note": 60, "velocity": 81, "channel": 0}, {"type": "note_on", "time": 21, "note": 65, "velocity": 120, "channel": 0}, {"type": "note_off", "time": 153, "note": 65, "velocity": 120, "channel": 0}, {"type": "note_on", "time": 32, "note": 60, "velocity": 98, "channel": 0}, {"type": "note_off", "time": 83, "note": 60, "velocity": 98, "channel": 0}, {"type": "note_on", "time": 28, "note": 63, "velocity": 120, "channel": 0}, {"type": "note_off", "time": 73, "note": 63, "velocity": 120, "channel": 0}, {"type": "note_on", "time": 15, "note": 62, "velocity": 106, "channel": 0}, {"type": "note_off", "time": 96, "note": 62, "velocity": 106, "channel": 0}, {"type": "note_on", "time": 17, "note": 60, "velocity": 84, "channel": 0}, {"type": "note_off", "time": 20, "note": 60, "velocity": 84, "channel": 0}, {"type": "note_on", "time": 48, "note": 65, "velocity": 116, "channel": 0}, {"type": "note_off", "time": 122, "note": 65, "velocity": 116, "channel": 0}, {"type": "note_on", "time": 60, "note": 60, "velocity": 110, "channel": 0}, {"type": "note_off", "time": 94, "note": 60, "velocity": 110, "channel": 0}, {"type": "note_on", "time": 17, "note": 63, "velocity": 118, "channel": 0}, {"type": "note_off", "time": 74, "note": 63, "velocity": 118, "channel": 0}, {"type": "note_on", "time": 4, "note": 62, "velocity": 100, "channel": 0}, {"type": "note_off", "time": 104, "note": 62, "velocity": 100, "channel": 0}, {"type": "note_on", "time": 16, "note": 60, "velocity": 98, "channel": 0}, {"type": "note_off", "time": 24, "note": 60, "velocity": 98, "channel": 0}, {"type": "note_on", "time": 54, "note": 65, "velocity": 108, "channel": 0}, {"type": "note_off", "time": 109, "note": 65, "velocity": 108, "channel": 0}, {"type": "note_on", "time": 4, "note": 65, "velocity": 119, "channel": 0}, {"type": "note_off", "time": 81, "note": 65, "velocity": 119, "channel": 0}, {"type": "note_on", "time": 18, "note": 65, "velocity": 114, "channel": 0}, {"type": "note_off", "time": 63, "note": 65, "velocity": 114, "channel": 0}, {"type": "note_on", "time": 24, "note": 65, "velocity": 118, "channel": 0}, {"type": "note_off", "time": 60, "note": 65, "velocity": 118, "channel": 0}, {"type": "note_on", "time": 20, "note": 61, "velocity": 113, "channel": 0}, {"type": "note_off", "time": 42, "note": 61, "velocity": 113, "channel": 0}, {"type": "note_on", "time": 6, "note": 62, "velocity": 116, "channel": 0}, {"type": "note_off", "time": 94, "note": 62, "velocity": 116, "channel": 0}, {"type": "note_on", "time": 14, "note": 62, "velocity": 122, "channel": 0}, {"type": "note_off", "time": 93, "note": 62, "velocity": 122, "channel": 0}, {"type": "note_on", "time": 936, "note": 70, "velocity": 116, "channel": 0}, {"type": "note_off", "time": 89, "note": 70, "velocity": 116, "channel": 0}, {"type": "note_on", "time": 90, "note": 69, "velocity": 123, "channel": 0}, {"type": "note_off", "time": 89, "note": 69, "velocity": 123, "channel": 0}, {"type": "note_on", "time": 90, "note": 67, "velocity": 119, "channel": 0}, {"type": "note_off", "time": 89, "note": 67, "velocity": 119, "channel": 0}, {"type": "note_on", "time": 196, "note": 70, "velocity": 117, "channel": 0}, {"type": "note_off", "time": 151, "note": 70, "velocity": 117, "channel": 0}, {"type": "note_on", "time": 43, "note": 65, "velocity": 103, "channel": 0}, {"type": "note_off", "time": 61, "note": 65, "velocity": 103, "channel": 0}, {"type": "note_on", "time": 111, "note": 65, "velocity": 9, "channel": 0}, {"type": "note_off", "time": 268, "note": 65, "velocity": 9, "channel": 0}, {"type": "note_on", "time": 31, "note": 63, "velocity": 119, "channel": 0}, {"type": "note_off", "time": 83, "note": 63, "velocity": 119, "channel": 0}, {"type": "note_on", "time": 5, "note": 62, "velocity": 116, "channel": 0}, {"type": "note_off", "time": 103, "note": 62, "velocity": 116, "channel": 0}, {"type": "note_on", "time": 59, "note": 62, "velocity": 117, "channel": 0}, {"type": "note_off", "time": 122, "note": 62, "velocity": 117, "channel": 0}, {"type": "note_on", "time": 62, "note": 60, "velocity": 113, "channel": 0}, {"type": "note_off", "time": 113, "note": 60, "velocity": 113, "channel": 0}, {"type": "note_on", "time": 60, "note": 60, "velocity": 113, "channel": 0}, {"type": "note_off", "time": 115, "note": 60, "velocity": 113, "channel": 0}, {"type": "note_on", "time": 72, "note": 58, "velocity": 91, "channel": 0}, {"type": "note_off", "time": 89, "note": 58, "velocity": 91, "channel": 0}, {"type": "note_on", "time": 15, "note": 60, "velocity": 109, "channel": 0}, {"type": "note_off", "time": 69, "note": 60, "velocity": 109, "channel": 0}, {"type": "note_on", "time": 20, "note": 62, "velocity": 117, "channel": 0}, {"type": "note_off", "time": 85, "note": 62, "velocity": 117, "channel": 0}, {"type": "note_on", "time": 21, "note": 63, "velocity": 120, "channel": 0}, {"type": "note_off", "time": 83, "note": 63, "velocity": 120, "channel": 0}, {"type": "note_on", "time": 17, "note": 65, "velocity": 112, "channel": 0}, {"type": "note_off", "time": 82, "note": 65, "velocity": 112, "channel": 0}, {"type": "note_on", "time": 206, "note": 65, "velocity": 116, "channel": 0}, {"type": "note_off", "time": 28, "note": 65, "velocity": 116, "channel": 0}, {"type": "note_on", "time": 1, "note": 63, "velocity": 117, "channel": 0}, {"type": "note_off", "time": 35, "note": 63, "velocity": 117, "channel": 0}, {"type": "note_on", "time": 7, "note": 61, "velocity": 110, "channel": 0}, {"type": "note_off", "time": 137, "note": 61, "velocity": 110, "channel": 0}, {"type": "note_on", "time": 7, "note": 58, "velocity": 92, "channel": 0}, {"type": "note_off", "time": 271, "note": 58, "velocity": 92, "channel": 0}, {"type": "note_on", "time": 443, "note": 55, "velocity": 93, "channel": 0}, {"type": "note_off", "time": 41, "note": 55, "velocity": 93, "channel": 0}, {"type": "note_on", "time": 5, "note": 58, "velocity": 95, "channel": 0}, {"type": "note_off", "time": 39, "note": 58, "velocity": 95, "channel": 0}, {"type": "note_on", "time": 7, "note": 61, "velocity": 109, "channel": 0}, {"type": "note_off", "time": 29, "note": 61, "velocity": 109, "channel": 0}, {"type": "note_on", "time": 1, "note": 65, "velocity": 115, "channel": 0}, {"type": "note_off", "time": 34, "note": 65, "velocity": 115, "channel": 0}, {"type": "note_on", "time": 3, "note": 69, "velocity": 117, "channel": 0}, {"type": "note_off", "time": 30, "note": 69, "velocity": 117, "channel": 0}, {"type": "note_on", "time": 7, "note": 73, "velocity": 117, "channel": 0}, {"type": "note_off", "time": 36, "note": 73, "velocity": 117, "channel": 0}, {"type": "note_on", "time": 6, "note": 69, "velocity": 114, "channel": 0}, {"type": "note_off", "time": 212, "note": 69, "velocity": 114, "channel": 0}, {"type": "note_on", "time": 16, "note": 72, "velocity": 114, "channel": 0}, {"type": "note_off", "time": 72, "note": 72, "velocity": 114, "channel": 0}, {"type": "note_on", "time": 32, "note": 64, "velocity": 116, "channel": 0}, {"type": "note_off", "time": 66, "note": 64, "velocity": 116, "channel": 0}, {"type": "note_on", "time": 2, "note": 65, "velocity": 104, "channel": 0}, {"type": "note_off", "time": 213, "note": 65, "velocity": 104, "channel": 0}, {"type": "note_on", "time": 550, "note": 76, "velocity": 123, "channel": 0}, {"type": "note_off", "time": 72, "note": 76, "velocity": 123, "channel": 0}, {"type": "note_on", "time": 5, "note": 74, "velocity": 110, "channel": 0}, {"type": "note_off", "time": 26, "note": 74, "velocity": 110, "channel": 0}, {"type": "note_on", "time": 2, "note": 72, "velocity": 102, "channel": 0}, {"type": "note_off", "time": 35, "note": 72, "velocity": 102, "channel": 0}, {"type": "note_on", "time": 4, "note": 68, "velocity": 114, "channel": 0}, {"type": "note_off", "time": 28, "note": 68, "velocity": 114, "channel": 0}, {"type": "note_on", "time": 7, "note": 65, "velocity": 114, "channel": 0}, {"type": "note_off", "time": 93, "note": 65, "velocity": 114, "channel": 0}, {"type": "note_on", "time": 81, "note": 75, "velocity": 115, "channel": 0}, {"type": "note_off", "time": 130, "note": 75, "velocity": 115, "channel": 0}, {"type": "note_on", "time": 6, "note": 70, "velocity": 103, "channel": 0}, {"type": "note_off", "time": 24, "note": 70, "velocity": 103, "channel": 0}, {"type": "note_on", "time": 3, "note": 68, "velocity": 110, "channel": 0}, {"type": "note_off", "time": 34, "note": 68, "velocity": 110, "channel": 0}, {"type": "note_on", "time": 7, "note": 64, "velocity": 120, "channel": 0}, {"type": "note_off", "time": 53, "note": 64, "velocity": 120, "channel": 0}, {"type": "note_on", "time": 3, "note": 63, "velocity": 123, "channel": 0}, {"type": "note_off", "time": 360, "note": 63, "velocity": 123, "channel": 0}, {"type": "note_on", "time": 4, "note": 67, "velocity": 107, "channel": 0}, {"type": "note_off", "time": 36, "note": 67, "velocity": 107, "channel": 0}, {"type": "note_on", "time": 0, "note": 70, "velocity": 111, "channel": 0}, {"type": "note_off", "time": 53, "note": 70, "velocity": 111, "channel": 0}, {"type": "note_on", "time": 4, "note": 73, "velocity": 109, "channel": 0}, {"type": "note_off", "time": 37, "note": 73, "velocity": 109, "channel": 0}, {"type": "note_on", "time": 4, "note": 74, "velocity": 105, "channel": 0}, {"type": "note_off", "time": 109, "note": 74, "velocity": 105, "channel": 0}, {"type": "note_on", "time": 8, "note": 72, "velocity": 103, "channel": 0}, {"type": "note_off", "time": 107, "note": 72, "velocity": 103, "channel": 0}, {"type": "note_on", "time": 249, "note": 76, "velocity": 116, "channel": 0}, {"type": "note_off", "time": 29, "note": 76, "velocity": 116, "channel": 0}, {"type": "note_on", "time": 5, "note": 77, "velocity": 112, "channel": 0}, {"type": "note_off", "time": 109, "note": 77, "velocity": 112, "channel": 0}, {"type": "note_on", "time": 116, "note": 74, "velocity": 116, "channel": 0}, {"type": "note_off", "time": 85, "note": 74, "velocity": 116, "channel": 0}, {"type": "note_on", "time": 6, "note": 72, "velocity": 94, "channel": 0}, {"type": "note_off", "time": 47, "note": 72, "velocity": 94, "channel": 0}, {"type": "note_on", "time": 105, "note": 69, "velocity": 98, "channel": 0}, {"type": "note_off", "time": 62, "note": 69, "velocity": 98, "channel": 0}, {"type": "note_on", "time": 24, "note": 72, "velocity": 101, "channel": 0}, {"type": "note_off", "time": 73, "note": 72, "velocity": 101, "channel": 0}, {"type": "note_on", "time": 4, "note": 70, "velocity": 111, "channel": 0}, {"type": "note_off", "time": 76, "note": 70, "velocity": 111, "channel": 0}, {"type": "note_on", "time": 43, "note": 65, "velocity": 109, "channel": 0}, {"type": "note_off", "time": 196, "note": 65, "velocity": 109, "channel": 0}, {"type": "note_on", "time": 330, "note": 66, "velocity": 113, "channel": 0}, {"type": "note_off", "time": 50, "note": 66, "velocity": 113, "channel": 0}, {"type": "note_on", "time": 3, "note": 67, "velocity": 115, "channel": 0}, {"type": "note_off", "time": 105, "note": 67, "velocity": 115, "channel": 0}, {"type": "note_on", "time": 6, "note": 68, "velocity": 114, "channel": 0}, {"type": "note_off", "time": 73, "note": 68, "velocity": 114, "channel": 0}, {"type": "note_on", "time": 12, "note": 67, "velocity": 114, "channel": 0}, {"type": "note_off", "time": 77, "note": 67, "velocity": 114, "channel": 0}, {"type": "note_on", "time": 4, "note": 66, "velocity": 111, "channel": 0}, {"type": "note_off", "time": 67, "note": 66, "velocity": 111, "channel": 0}, {"type": "note_on", "time": 17, "note": 65, "velocity": 114, "channel": 0}, {"type": "note_off", "time": 118, "note": 65, "velocity": 114, "channel": 0}, {"type": "note_on", "time": 19, "note": 58, "velocity": 102, "channel": 0}, {"type": "note_off", "time": 49, "note": 58, "velocity": 102, "channel": 0}, {"type": "note_on", "time": 34, "note": 61, "velocity": 116, "channel": 0}, {"type": "note_off", "time": 41, "note": 61, "velocity": 116, "channel": 0}, {"type": "note_on", "time": 2, "note": 62, "velocity": 115, "channel": 0}, {"type": "note_off", "time": 128, "note": 62, "velocity": 115, "channel": 0}, {"type": "note_on", "time": 11, "note": 58, "velocity": 101, "channel": 0}, {"type": "note_off", "time": 121, "note": 58, "velocity": 101, "channel": 0}, {"type": "note_on", "time": 33, "note": 58, "velocity": 92, "channel": 0}, {"type": "note_off", "time": 248, "note": 58, "velocity": 92, "channel": 0}, {"type": "end_of_track", "time": 0}]]}