{"ticks_per_beat": 192, "tracks": [[{"type": "track_name", "name": "Melody", "time": 0}, {"type": "set_tempo", "tempo": 271493, "time": 0}, {"type": "key_signature", "key": "Eb", "time": 0}, {"type": "time_signature", "numerator": 4, "denominator": 4, "clocks_per_click": 24, "notated_32nd_notes_per_beat": 8, "time": 0}, {"type": "note_on", "time": 586, "note": 61, "velocity": 119, "channel": 0}, {"type": "note_off", "time": 60, "note": 61, "velocity": 119, "channel": 0}, {"type": "note_on", "time": 3, "note": 62, "velocity": 121, "channel": 0}, {"type": "note_off", "time": 666, "note": 62, "velocity": 121, "channel": 0}, {"type": "note_on", "time": 90, "note": 60, "velocity": 108, "channel": 0}, {"type": "note_off", "time": 76, "note": 60, "velocity": 108, "channel": 0}, {"type": "note_on", "time": 2, "note": 62, "velocity": 115, "channel": 0}, {"type": "note_off", "time": 207, "note": 62, "velocity": 115, "channel": 0}, {"type": "note_on", "time": 49, "note": 60, "velocity": 108, "channel": 0}, {"type": "note_off", "time": 75, "note": 60, "velocity": 108, "channel": 0}, {"type": "note_on", "time": 5, "note": 62, "velocity": 118, "channel": 0}, {"type": "note_off", "time": 135, "note": 62, "velocity": 118, "channel": 0}, {"type": "note_on", "time": 43, "note": 60, "velocity": 110, "channel": 0}, {"type": "note_off", "time": 77, "note": 60, "velocity": 110, "channel": 0}, {"type": "note_on", "time": 60, "note": 57, "velocity": 102, "channel": 0}, {"type": "note_off", "time": 63, "note": 57, "velocity": 102, "channel": 0}, {"type": "note_on", "time": 66, "note": 55, "velocity": 114, "channel": 0}, {"type": "note_off", "time": 92, "note": 55, "velocity": 114, "channel": 0}, {"type": "note_on", "time": 57, "note": 55, "velocity": 107, "channel": 0}, {"type": "note_off", "time": 63, "note": 55, "velocity": 107, "channel": 0}, {"type": "note_on", "time": 81, "note": 62, "velocity": 120, "channel": 0}, {"type": "note_off", "time": 295, "note": 62, "velocity": 120, "channel": 0}, {"type": "note_on", "time": 12, "note": 59, "velocity": 102, "channel": 0}, {"type": "note_off", "time": 90, "note": 59, "velocity": 102, "channel": 0}, {"type": "note_on", "time": 10, "note": 57, "velocity": 103, "channel": 0}, {"type": "note_off", "time": 104, "note": 57, "velocity": 103, "channel": 0}, {"type": "note_on", "time": 2, "note": 55, "velocity": 103, "channel": 0}, {"type": "note_off", "time": 72, "note": 55, "velocity": 103, "channel": 0}, {"type": "note_on", "time": 11, "note": 57, "velocity": 108, "channel": 0}, {"type": "note_off", "time": 57, "note": 57, "velocity": 108, "channel": 0}, {"type": "note_on", "time": 72, "note": 62, "velocity": 121, "channel": 0}, {"type": "note_off", "time": 152, "note": 62, "velocity": 121, "channel": 0}, {"type": "note_on", "time": 637, "note": 62, "velocity": 119, "channel": 0}, {"type": "note_off", "time": 147, "note": 62, "velocity": 119, "channel": 0}, {"type": "note_on", "time": 2, "note": 60, "velocity": 104, "channel": 0}, {"type": "note_off", "time": 54, "note": 60, "velocity": 104, "channel": 0}, {"type": "note_on", "time": 2, "note": 62, "velocity": 122, "channel": 0}, {"type": "note_off", "time": 138, "note": 62, "velocity": 122, "channel": 0}, {"type": "note_on", "time": 0, "note": 67, "velocity": 115, "channel": 0}, {"type": "note_off", "time": 219, "note": 67, "velocity": 115, "channel": 0}, {"type": "note_on", "time": 53, "note": 62, "velocity": 120, "channel": 0}, {"type": "note_off", "time": 89, "note": 62, "velocity": 120, "channel": 0}, {"type": "note_on", "time": 14, "note": 60, "velocity": 107, "channel": 0}, {"type": "note_off", "time": 83, "note": 60, "velocity": 107, "channel": 0}, {"type": "note_on", "time": 5, "note": 56, "velocity": 107, "channel": 0}, {"type": "note_off", "time": 98, "note": 56, "velocity": 107, "channel": 0}, {"type": "note_on", "time": 14, "note": 53, "velocity": 107, "channel": 0}, {"type": "note_off", "time": 80, "note": 53, "velocity": 107, "channel": 0}, {"type": "note_on", "time": 40, "note": 50, "velocity": 98, "channel": 0}, {"type": "note_off", "time": 80, "note": 50, "velocity": 98, "channel": 0}, {"type": "note_on", "time": 18, "note": 48, "velocity": 99, "channel": 0}, {"type": "note_off", "time": 35, "note": 48, "velocity": 99, "channel": 0}, {"type": "note_on", "time": 47, "note": 55, "velocity": 110, "channel": 0}, {"type": "note_off", "time": 108, "note": 55, "velocity": 110, "channel": 0}, {"type": "note_on", "time": 32, "note": 53, "velocity": 103, "channel": 0}, {"type": "note_off", "time": 89, "note": 53, "velocity": 103, "channel": 0}, {"type": "note_on", "time": 42, "note": 55, "velocity": 114, "channel": 0}, {"type": "note_off", "time": 86, "note": 55, "velocity": 114, "channel": 0}, {"type": "note_on", "time": 0, "note": 56, "velocity": 110, "channel": 0}, {"type": "note_off", "time": 86, "note": 56, "velocity": 110, "channel": 0}, {"type": "note_on", "time": 2, "note": 58, "velocity": 110, "channel": 0}, {"type": "note_off", "time": 75, "note": 58, "velocity": 110, "channel": 0}, {"type": "note_on", "time": 2, "note": 60, "velocity": 114, "channel": 0}, {"type": "note_off", "time": 92, "note": 60, "velocity": 114, "channel": 0}, {"type": "note_on", "time": 14, "note": 63, "velocity": 123, "channel": 0}, {"type": "note_off", "time": 101, "note": 63, "velocity": 123, "channel": 0}, {"type": "note_on", "time": 5, "note": 62, "velocity": 118, "channel": 0}, {"type": "note_off", "time": 89, "note": 62, "velocity": 118, "channel": 0}, {"type": "note_on", "time": 6, "note": 60, "velocity": 103, "channel": 0}, {"type": "note_off", "time": 80, "note": 60, "velocity": 103, "channel": 0}, {"type": "note_on", "time": 28, "note": 58, "velocity": 102, "channel": 0}, {"type": "note_off", "time": 80, "note": 58, "velocity": 102, "channel": 0}, {"type": "note_on", "time": 5, "note": 59, "velocity": 103, "channel": 0}, {"type": "note_off", "time": 63, "note": 59, "velocity": 103, "channel": 0}, {"type": "note_on", "time": 19, "note": 60, "velocity": 113, "channel": 0}, {"type": "note_off", "time": 109, "note": 60, "velocity": 113, "channel": 0}, {"type": "note_on", "time": 44, "note": 67, "velocity": 99, "channel": 0}, {"type": "note_off", "time": 89, "note": 67, "velocity": 99, "channel": 0}, {"type": "note_on", "time": 11, "note": 53, "velocity": 96, "channel": 0}, {"type": "note_off", "time": 48, "note": 53, "velocity": 96, "channel": 0}, {"type": "note_on", "time": 1, "note": 54, "velocity": 94, "channel": 0}, {"type": "note_off", "time": 64, "note": 54, "velocity": 94, "channel": 0}, {"type": "note_on", "time": 20, "note": 58, "velocity": 107, "channel": 0}, {"type": "note_off", "time": 326, "note": 58, "velocity": 107, "channel": 0}, {"type": "note_on", "time": 251, "note": 62, "velocity": 123, "channel": 0}, {"type": "note_off", "time": 132, "note": 62, "velocity": 123, "channel": 0}, {"type": "note_on", "time": 8, "note": 67, "velocity": 115, "channel": 0}, {"type": "note_off", "time": 297, "note": 67, "velocity": 115, "channel": 0}, {"type": "note_on", "time": 0, "note": 66, "velocity": 117, "channel": 0}, {"type": "note_off", "time": 72, "note": 66, "velocity": 117, "channel": 0}, {"type": "note_on", "time": 11, "note": 64, "velocity": 119, "channel": 0}, {"type": "note_off", "time": 89, "note": 64, "velocity": 119, "channel": 0}, {"type": "note_on", "time": 4, "note": 65, "velocity": 120, "channel": 0}, {"type": "note_off", "time": 100, "note": 65, "velocity": 120, "channel": 0}, {"type": "note_on", "time": 14, "note": 57, "velocity": 95, "channel": 0}, {"type": "note_off", "time": 47, "note": 57, "velocity": 95, "channel": 0}, {"type": "note_on", "time": 17, "note": 62, "velocity": 115, "channel": 0}, {"type": "note_off", "time": 98, "note": 62, "velocity": 115, "channel": 0}, {"type": "note_on", "time": 5, "note": 65, "velocity": 120, "channel": 0}, {"type": "note_off", "time": 95, "note": 65, "velocity": 120, "channel": 0}, {"type": "note_on", "time": 8, "note": 64, "velocity": 122, "channel": 0}, {"type": "note_off", "time": 106, "note": 64, "velocity": 122, "channel": 0}, {"type": "note_on", "time": 0, "note": 62, "velocity": 117, "channel": 0}, {"type": "note_off", "time": 95, "note": 62, "velocity": 117, "channel": 0}, {"type": "note_on", "time": 5, "note": 61, "velocity": 115, "channel": 0}, {"type": "note_off", "time": 89, "note": 61, "velocity": 115, "channel": 0}, {"type": "note_on", "time": 9, "note": 62, "velocity": 109, "channel": 0}, {"type": "note_off", "time": 61, "note": 62, "velocity": 109, "channel": 0}, {"type": "note_on", "time": 22, "note": 64, "velocity": 120, "channel": 0}, {"type": "note_off", "time": 82, "note": 64, "velocity": 120, "channel": 0}, {"type": "note_on", "time": 8, "note": 65, "velocity": 118, "channel": 0}, {"type": "note_off", "time": 76, "note": 65, "velocity": 118, "channel": 0}, {"type": "note_on", "time": 48, "note": 62, "velocity": 123, "channel": 0}, {"type": "note_off", "time": 80, "note": 62, "velocity": 123, "channel": 0}, {"type": "note_on", "time": 13, "note": 60, "velocity": 109, "channel": 0}, {"type": "note_off", "time": 91, "note": 60, "velocity": 109, "channel": 0}, {"type": "note_on", "time": 10, "note": 59, "velocity": 106, "channel": 0}, {"type": "note_off", "time": 69, "note": 59, "velocity": 106, "channel": 0}, {"type": "note_on", "time": 14, "note": 60, "velocity": 110, "channel": 0}, {"type": "note_off", "time": 101, "note": 60, "velocity": 110, "channel": 0}, {"type": "note_on", "time": 2, "note": 62, "velocity": 123, "channel": 0}, {"type": "note_off", "time": 80, "note": 62, "velocity": 123, "channel": 0}, {"type": "note_on", "time": 21, "note": 63, "velocity": 119, "channel": 0}, {"type": "note_off", "time": 77, "note": 63, "velocity": 119, "channel": 0}, {"type": "note_on", "time": 13, "note": 60, "velocity": 106, "channel": 0}, {"type": "note_off", "time": 89, "note": 60, "velocity": 106, "channel": 0}, {"type": "note_on", "time": 17, "note": 56, "velocity": 104, "channel": 0}, {"type": "note_off", "time": 144, "note": 56, "velocity": 104, "channel": 0}, {"type": "note_on", "time": 24, "note": 55, "velocity": 117, "channel": 0}, {"type": "note_off", "time": 83, "note": 55, "velocity": 117, "channel": 0}, {"type": "note_on", "time": 27, "note": 58, "velocity": 117, "channel": 0}, {"type": "note_off", "time": 103, "note": 58, "velocity": 117, "channel": 0}, {"type": "note_on", "time": 107, "note": 60, "velocity": 102, "channel": 0}, {"type": "note_off", "time": 43, "note": 60, "velocity": 102, "channel": 0}, {"type": "note_on", "time": 4, "note": 63, "velocity": 118, "channel": 0}, {"type": "note_off", "time": 66, "note": 63, "velocity": 118, "channel": 0}, {"type": "note_on", "time": 24, "note": 67, "velocity": 118, "channel": 0}, {"type": "note_off", "time": 92, "note": 67, "velocity": 118, "channel": 0}, {"type": "note_on", "time": 22, "note": 68, "velocity": 118, "channel": 0}, {"type": "note_off", "time": 83, "note": 68, "velocity": 118, "channel": 0}, {"type": "note_on", "time": 17, "note": 67, "velocity": 117, "channel": 0}, {"type": "note_off", "time": 86, "note": 67, "velocity": 117, "channel": 0}, {"type": "note_on", "time": 28, "note": 66, "velocity": 119, "channel": 0}, {"type": "note_off", "time": 80, "note": 66, "velocity": 119, "channel": 0}, {"type": "note_on", "time": 18, "note": 63, "velocity": 116, "channel": 0}, {"type": "note_off", "time": 77, "note": 63, "velocity": 116, "channel": 0}, {"type": "note_on", "time": 24, "note": 58, "velocity": 97, "channel": 0}, {"type": "note_off", "time": 73, "note": 58, "velocity": 97, "channel": 0}, {"type": "note_on", "time": 7, "note": 60, "velocity": 103, "channel": 0}, {"type": "note_off", "time": 69, "note": 60, "velocity": 103, "channel": 0}, {"type": "note_on", "time": 36, "note": 61, "velocity": 117, "channel": 0}, {"type": "note_off", "time": 92, "note": 61, "velocity": 117, "channel": 0}, {"type": "note_on", "time": 6, "note": 58, "velocity": 108, "channel": 0}, {"type": "note_off", "time": 92, "note": 58, "velocity": 108, "channel": 0}, {"type": "note_on", "time": 9, "note": 54, "velocity": 106, "channel": 0}, {"type": "note_off", "time": 93, "note": 54, "velocity": 106, "channel": 0}, {"type": "note_on", "time": 21, "note": 53, "velocity": 103, "channel": 0}, {"type": "note_off", "time": 61, "note": 53, "velocity": 103, "channel": 0}, {"type": "note_on", "time": 28, "note": 51, "velocity": 120, "channel": 0}, {"type": "note_off", "time": 67, "note": 51, "velocity": 120, "channel": 0}, {"type": "note_on", "time": 18, "note": 50, "velocity": 109, "channel": 0}, {"type": "note_off", "time": 82, "note": 50, "velocity": 109, "channel": 0}, {"type": "note_on", "time": 280, "note": 62, "velocity": 123, "channel": 0}, {"type": "note_off", "time": 64, "note": 62, "velocity": 123, "channel": 0}, {"type": "note_on", "time": 3, "note": 63, "velocity": 120, "channel": 0}, {"type": "note_off", "time": 114, "note": 63, "velocity": 120, "channel": 0}, {"type": "note_on", "time": 4, "note": 62, "velocity": 120, "channel": 0}, {"type": "note_off", "time": 88, "note": 62, "velocity": 120, "channel": 0}, {"type": "note_on", "time": 19, "note": 60, "velocity": 120, "channel": 0}, {"type": "note_off", "time": 75, "note": 60, "velocity": 120, "channel": 0}, {"type": "note_on", "time": 36, "note": 59, "velocity": 114, "channel": 0}, {"type": "note_off", "time": 82, "note": 59, "velocity": 114, "channel": 0}, {"type": "note_on", "time": 32, "note": 60, "velocity": 106, "channel": 0}, {"type": "note_off", "time": 84, "note": 60, "velocity": 106, "channel": 0}, {"type": "note_on", "time": 10, "note": 62, "velocity": 125, "channel": 0}, {"type": "note_off", "time": 69, "note": 62, "velocity": 125, "channel": 0}, {"type": "note_on", "time": 18, "note": 63, "velocity": 117, "channel": 0}, {"type": "note_off", "time": 84, "note": 63, "velocity": 117, "channel": 0}, {"type": "note_on", "time": 22, "note": 60, "velocity": 110, "channel": 0}, {"type": "note_off", "time": 106, "note": 60, "velocity": 110, "channel": 0}, {"type": "note_on", "time": 19, "note": 55, "velocity": 108, "channel": 0}, {"type": "note_off", "time": 383, "note": 55, "velocity": 108, "channel": 0}, {"type": "note_on", "time": 607, "note": 60, "velocity": 113, "channel": 0}, {"type": "note_off", "time": 75, "note": 60, "velocity": 113, "channel": 0}, {"type": "note_on", "time": 12, "note": 59, "velocity": 111, "channel": 0}, {"type": "note_off", "time": 78, "note": 59, "velocity": 111, "channel": 0}, {"type": "note_on", "time": 29, "note": 60, "velocity": 114, "channel": 0}, {"type": "note_off", "time": 96, "note": 60, "velocity": 114, "channel": 0}, {"type": "note_on", "time": 3, "note": 62, "velocity": 125, "channel": 0}, {"type": "note_off", "time": 78, "note": 62, "velocity": 125, "channel": 0}, {"type": "note_on", "time": 22, "note": 63, "velocity": 122, "channel": 0}, {"type": "note_off", "time": 80, "note": 63, "velocity": 122, "channel": 0}, {"type": "note_on", "time": 14, "note": 62, "velocity": 118, "channel": 0}, {"type": "note_off", "time": 90, "note": 62, "velocity": 118, "channel": 0}, {"type": "note_on", "time": 0, "note": 63, "velocity": 120, "channel": 0}, {"type": "note_off", "time": 108, "note": 63, "velocity": 120, "channel": 0}, {"type": "note_on", "time": 8, "note": 65, "velocity": 119, "channel": 0}, {"type": "note_off", "time": 102, "note": 65, "velocity": 119, "channel": 0}, {"type": "note_on", "time": 3, "note": 66, "velocity": 119, "channel": 0}, {"type": "note_off", "time": 82, "note": 66, "velocity": 119, "channel": 0}, {"type": "note_on", "time": 18, "note": 67, "velocity": 115, "channel": 0}, {"type": "note_off", "time": 82, "note": 67, "velocity": 115, "channel": 0}, {"type": "note_on", "time": 8, "note": 68, "velocity": 118, "channel": 0}, {"type": "note_off", "time": 106, "note": 68, "velocity": 118, "channel": 0}, {"type": "note_on", "time": 4, "note": 66, "velocity": 123, "channel": 0}, {"type": "note_off", "time": 86, "note": 66, "velocity": 123, "channel": 0}, {"type": "note_on", "time": 5, "note": 67, "velocity": 114, "channel": 0}, {"type": "note_off", "time": 75, "note": 67, "velocity": 114, "channel": 0}, {"type": "note_on", "time": 14, "note": 63, "velocity": 121, "channel": 0}, {"type": "note_off", "time": 78, "note": 63, "velocity": 121, "channel": 0}, {"type": "note_on", "time": 9, "note": 62, "velocity": 118, "channel": 0}, {"type": "note_off", "time": 110, "note": 62, "velocity": 118, "channel": 0}, {"type": "note_on", "time": 8, "note": 60, "velocity": 95, "channel": 0}, {"type": "note_off", "time": 47, "note": 60, "velocity": 95, "channel": 0}, {"type": "note_on", "time": 30, "note": 65, "velocity": 112, "channel": 0}, {"type": "note_off", "time": 273, "note": 65, "velocity": 112, "channel": 0}, {"type": "note_on", "time": 15, "note": 62, "velocity": 122, "channel": 0}, {"type": "note_off", "time": 86, "note": 62, "velocity": 122, "channel": 0}, {"type": "note_on", "time": 8, "note": 63, "velocity": 115, "channel": 0}, {"type": "note_off", "time": 133, "note": 63, "velocity": 115, "channel": 0}, {"type": "note_on", "time": 43, "note": 55, "velocity": 92, "channel": 0}, {"type": "note_off", "time": 55, "note": 55, "velocity": 92, "channel": 0}, {"type": "note_on", "time": 12, "note": 57, "velocity": 94, "channel": 0}, {"type": "note_off", "time": 39, "note": 57, "velocity": 94, "channel": 0}, {"type": "note_on", "time": 20, "note": 59, "velocity": 95, "channel": 0}, {"type": "note_off", "time": 43, "note": 59, "velocity": 95, "channel": 0}, {"type": "note_on", "time": 18, "note": 62, "velocity": 124, "channel": 0}, {"type": "note_off", "time": 84, "note": 62, "velocity": 124, "channel": 0}, {"type": "note_on", "time": 32, "note": 59, "velocity": 100, "channel": 0}, {"type": "note_off", "time": 73, "note": 59, "velocity": 100, "channel": 0}, {"type": "note_on", "time": 20, "note": 60, "velocity": 101, "channel": 0}, {"type": "note_off", "time": 82, "note": 60, "velocity": 101, "channel": 0}, {"type": "note_on", "time": 18, "note": 62, "velocity": 111, "channel": 0}, {"type": "note_off", "time": 49, "note": 62, "velocity": 111, "channel": 0}, {"type": "note_on", "time": 6, "note": 64, "velocity": 121, "channel": 0}, {"type": "note_off", "time": 73, "note": 64, "velocity": 121, "channel": 0}, {"type": "note_on", "time": 12, "note": 65, "velocity": 119, "channel": 0}, {"type": "note_off", "time": 39, "note": 65, "velocity": 119, "channel": 0}, {"type": "note_on", "time": 12, "note": 64, "velocity": 122, "channel": 0}, {"type": "note_off", "time": 49, "note": 64, "velocity": 122, "channel": 0}, {"type": "note_on", "time": 14, "note": 62, "velocity": 122, "channel": 0}, {"type": "note_off", "time": 82, "note": 62, "velocity": 122, "channel": 0}, {"type": "note_on", "time": 36, "note": 60, "velocity": 111, "channel": 0}, {"type": "note_off", "time": 90, "note": 60, "velocity": 111, "channel": 0}, {"type": "note_on", "time": 16, "note": 59, "velocity": 108, "channel": 0}, {"type": "note_off", "time": 75, "note": 59, "velocity": 108, "channel": 0}, {"type": "note_on", "time": 39, "note": 55, "velocity": 101, "channel": 0}, {"type": "note_off", "time": 59, "note": 55, "velocity": 101, "channel": 0}, {"type": "note_on", "time": 30, "note": 58, "velocity": 113, "channel": 0}, {"type": "note_off", "time": 63, "note": 58, "velocity": 113, "channel": 0}, {"type": "note_on", "time": 14, "note": 55, "velocity": 103, "channel": 0}, {"type": "note_off", "time": 75, "note": 55, "velocity": 103, "channel": 0}, {"type": "note_on", "time": 47, "note": 53, "velocity": 102, "channel": 0}, {"type": "note_off", "time": 71, "note": 53, "velocity": 102, "channel": 0}, {"type": "note_on", "time": 4, "note": 56, "velocity": 113, "channel": 0}, {"type": "note_off", "time": 69, "note": 56, "velocity": 113, "channel": 0}, {"type": "note_on", "time": 20, "note": 55, "velocity": 106, "channel": 0}, {"type": "note_off", "time": 108, "note": 55, "velocity": 106, "channel": 0}, {"type": "note_on", "time": 14, "note": 53, "velocity": 109, "channel": 0}, {"type": "note_off", "time": 65, "note": 53, "velocity": 109, "channel": 0}, {"type": "note_on", "time": 14, "note": 52, "velocity": 102, "channel": 0}, {"type": "note_off", "time": 98, "note": 52, "velocity": 102, "channel": 0}, {"type": "note_on", "time": 11, "note": 61, "velocity": 110, "channel": 0}, {"type": "note_off", "time": 132, "note": 61, "velocity": 110, "channel": 0}, {"type": "note_on", "time": 75, "note": 58, "velocity": 102, "channel": 0}, {"type": "note_off", "time": 78, "note": 58, "velocity": 102, "channel": 0}, {"type": "note_on", "time": 8, "note": 60, "velocity": 114, "channel": 0}, {"type": "note_off", "time": 84, "note": 60, "velocity": 114, "channel": 0}, {"type": "note_on", "time": 42, "note": 56, "velocity": 96, "channel": 0}, {"type": "note_off", "time": 90, "note": 56, "velocity": 96, "channel": 0}, {"type": "note_on", "time": 44, "note": 55, "velocity": 104, "channel": 0}, {"type": "note_off", "time": 67, "note": 55, "velocity": 104, "channel": 0}, {"type": "note_on", "time": 12, "note": 56, "velocity": 105, "channel": 0}, {"type": "note_off", "time": 61, "note": 56, "velocity": 105, "channel": 0}, {"type": "note_on", "time": 8, "note": 58, "velocity": 116, "channel": 0}, {"type": "note_off", "time": 137, "note": 58, "velocity": 116, "channel": 0}, {"type": "note_on", "time": 43, "note": 60, "velocity": 105, "channel": 0}, {"type": "note_off", "time": 69, "note": 60, "velocity": 105, "channel": 0}, {"type": "note_on", "time": 18, "note": 63, "velocity": 111, "channel": 0}, {"type": "note_off", "time": 75, "note": 63, "velocity": 111, "channel": 0}, {"type": "note_on", "time": 12, "note": 67, "velocity": 118, "channel": 0}, {"type": "note_off", "time": 102, "note": 67, "velocity": 118, "channel": 0}, {"type": "note_on", "time": 55, "note": 65, "velocity": 115, "channel": 0}, {"type": "note_off", "time": 404, "note": 65, "velocity": 115, "channel": 0}, {"type": "note_on", "time": 493, "note": 67, "velocity": 115, "channel": 0}, {"type": "note_off", "time": 256, "note": 67, "velocity": 115, "channel": 0}, {"type": "note_on", "time": 8, "note": 65, "velocity": 113, "channel": 0}, {"type": "note_off", "time": 78, "note": 65, "velocity": 113, "channel": 0}, {"type": "note_on", "time": 18, "note": 60, "velocity": 110, "channel": 0}, {"type": "note_off", "time": 67, "note": 60, "velocity": 110, "channel": 0}, {"type": "note_on", "time": 0, "note": 56, "velocity": 108, "channel": 0}, {"type": "note_off", "time": 61, "note": 56, "velocity": 108, "channel": 0}, {"type": "note_on", "time": 4, "note": 55, "velocity": 111, "channel": 0}, {"type": "note_off", "time": 145, "note": 55, "velocity": 111, "channel": 0}, {"type": "note_on", "time": 6, "note": 53, "velocity": 111, "channel": 0}, {"type": "note_off", "time": 75, "note": 53, "velocity": 111, "channel": 0}, {"type": "note_on", "time": 100, "note": 70, "velocity": 115, "channel": 0}, {"type": "note_off", "time": 215, "note": 70, "velocity": 115, "channel": 0}, {"type": "note_on", "time": 8, "note": 68, "velocity": 117, "channel": 0}, {"type": "note_off", "time": 53, "note": 68, "velocity": 117, "channel": 0}, {"type": "note_on", "time": 2, "note": 63, "velocity": 117, "channel": 0}, {"type": "note_off", "time": 86, "note": 63, "velocity": 117, "channel": 0}, {"type": "note_on", "time": 0, "note": 58, "velocity": 113, "channel": 0}, {"type": "note_off", "time": 119, "note": 58, "velocity": 113, "channel": 0}, {"type": "note_on", "time": 8, "note": 56, "velocity": 106, "channel": 0}, {"type": "note_off", "time": 127, "note": 56, "velocity": 106, "channel": 0}, {"type": "note_on", "time": 306, "note": 69, "velocity": 124, "channel": 0}, {"type": "note_off", "time": 44, "note": 69, "velocity": 124, "channel": 0}, {"type": "note_on", "time": 3, "note": 70, "velocity": 119, "channel": 0}, {"type": "note_off", "time": 91, "note": 70, "velocity": 119, "channel": 0}, {"type": "note_on", "time": 136, "note": 68, "velocity": 118, "channel": 0}, {"type": "note_off", "time": 71, "note": 68, "velocity": 118, "channel": 0}, {"type": "note_on", "time": 39, "note": 63, "velocity": 120, "channel": 0}, {"type": "note_off", "time": 71, "note": 63, "velocity": 120, "channel": 0}, {"type": "note_on", "time": 13, "note": 58, "velocity": 105, "channel": 0}, {"type": "note_off", "time": 108, "note": 58, "velocity": 105, "channel": 0}, {"type": "note_on", "time": 42, "note": 57, "velocity": 89, "channel": 0}, {"type": "note_on", "time": 60, "note": 73, "velocity": 118, "channel": 0}, {"type": "note_off", "time": 0, "note": 57, "velocity": 89, "channel": 0}, {"type": "note_off", "time": 156, "note": 73, "velocity": 118, "channel": 0}, {"type": "note_on", "time": 5, "note": 70, "velocity": 117, "channel": 0}, {"type": "note_off", "time": 71, "note": 70, "velocity": 117, "channel": 0}, {"type": "note_on", "time": 18, "note": 65, "velocity": 112, "channel": 0}, {"type": "note_off", "time": 43, "note": 65, "velocity": 112, "channel": 0}, {"type": "note_on", "time": 6, "note": 62, "velocity": 116, "channel": 0}, {"type": "note_off", "time": 85, "note": 62, "velocity": 116, "channel": 0}, {"type": "note_on", "time": 5, "note": 61, "velocity": 113, "channel": 0}, {"type": "note_off", "time": 117, "note": 61, "velocity": 113, "channel": 0}, {"type": "note_on", "time": 16, "note": 59, "velocity": 108, "channel": 0}, {"type": "note_off", "time": 112, "note": 59, "velocity": 108, "channel": 0}, {"type": "note_on", "time": 47, "note": 70, "velocity": 116, "channel": 0}, {"type": "note_off", "time": 273, "note": 70, "velocity": 116, "channel": 0}, {"type": "note_on", "time": 8, "note": 66, "velocity": 118, "channel": 0}, {"type": "note_off", "time": 90, "note": 66, "velocity": 118, "channel": 0}, {"type": "note_on", "time": 11, "note": 65, "velocity": 123, "channel": 0}, {"type": "note_off", "time": 78, "note": 65, "velocity": 123, "channel": 0}, {"type": "note_on", "time": 11, "note": 63, "velocity": 122, "channel": 0}, {"type": "note_off", "time": 102, "note": 63, "velocity": 122, "channel": 0}, {"type": "note_on", "time": 178, "note": 67, "velocity": 122, "channel": 0}, {"type": "note_off", "time": 93, "note": 67, "velocity": 122, "channel": 0}, {"type": "note_on", "time": 5, "note": 68, "velocity": 117, "channel": 0}, {"type": "note_off", "time": 367, "note": 68, "velocity": 117, "channel": 0}, {"type": "note_on", "time": 22, "note": 65, "velocity": 114, "channel": 0}, {"type": "note_off", "time": 82, "note": 65, "velocity": 114, "channel": 0}, {"type": "note_on", "time": 22, "note": 63, "velocity": 118, "channel": 0}, {"type": "note_off", "time": 75, "note": 63, "velocity": 118, "channel": 0}, {"type": "note_on", "time": 9, "note": 59, "velocity": 107, "channel": 0}, {"type": "note_off", "time": 73, "note": 59, "velocity": 107, "channel": 0}, {"type": "note_on", "time": 74, "note": 54, "velocity": 107, "channel": 0}, {"type": "note_off", "time": 37, "note": 54, "velocity": 107, "channel": 0}, {"type": "note_on", "time": 10, "note": 58, "velocity": 108, "channel": 0}, {"type": "note_off", "time": 151, "note": 58, "velocity": 108, "channel": 0}, {"type": "note_on", "time": 37, "note": 56, "velocity": 109, "channel": 0}, {"type": "note_off", "time": 104, "note": 56, "velocity": 109, "channel": 0}, {"type": "note_on", "time": 78, "note": 55, "velocity": 107, "channel": 0}, {"type": "note_off", "time": 75, "note": 55, "velocity": 107, "channel": 0}, {"type": "note_on", "time": 63, "note": 62, "velocity": 118, "channel": 0}, {"type": "note_off", "time": 156, "note": 62, "velocity": 118, "channel": 0}, {"type": "note_on", "time": 432, "note": 62, "velocity": 116, "channel": 0}, {"type": "note_off", "time": 96, "note": 62, "velocity": 116, "channel": 0}, {"type": "note_on", "time": 10, "note": 64, "velocity": 118, "channel": 0}, {"type": "note_off", "time": 104, "note": 64, "velocity": 118, "channel": 0}, {"type": "note_on", "time": 4, "note": 65, "velocity": 115, "channel": 0}, {"type": "note_off", "time": 104, "note": 65, "velocity": 115, "channel": 0}, {"type": "note_on", "time": 0, "note": 67, "velocity": 112, "channel": 0}, {"type": "note_off", "time": 86, "note": 67, "velocity": 112, "channel": 0}, {"type": "note_on", "time": 11, "note": 69, "velocity": 115, "channel": 0}, {"type": "note_off", "time": 78, "note": 69, "velocity": 115, "channel": 0}, {"type": "note_on", "time": 30, "note": 67, "velocity": 115, "channel": 0}, {"type": "note_off", "time": 45, "note": 67, "velocity": 115, "channel": 0}, {"type": "note_on", "time": 1, "note": 65, "velocity": 117, "channel": 0}, {"type": "note_off", "time": 30, "note": 65, "velocity": 117, "channel": 0}, {"type": "note_on", "time": 6, "note": 64, "velocity": 117, "channel": 0}, {"type": "note_off", "time": 84, "note": 64, "velocity": 117, "channel": 0}, {"type": "note_on", "time": 49, "note": 69, "velocity": 116, "channel": 0}, {"type": "note_off", "time": 56, "note": 69, "velocity": 116, "channel": 0}, {"type": "note_on", "time": 31, "note": 65, "velocity": 119, "channel": 0}, {"type": "note_off", "time": 82, "note": 65, "velocity": 119, "channel": 0}, {"type": "note_on", "time": 14, "note": 62, "velocity": 120, "channel": 0}, {"type": "note_off", "time": 84, "note": 62, "velocity": 120, "channel": 0}, {"type": "note_on", "time": 4, "note": 58, "velocity": 105, "channel": 0}, {"type": "note_off", "time": 73, "note": 58, "velocity": 105, "channel": 0}, {"type": "note_on", "time": 105, "note": 64, "velocity": 124, "channel": 0}, {"type": "note_off", "time": 59, "note": 64, "velocity": 124, "channel": 0}, {"type": "note_on", "time": 18, "note": 65, "velocity": 116, "channel": 0}, {"type": "note_off", "time": 51, "note": 65, "velocity": 116, "channel": 0}, {"type": "note_on", "time": 8, "note": 66, "velocity": 118, "channel": 0}, {"type": "note_off", "time": 57, "note": 66, "velocity": 118, "channel": 0}, {"type": "note_on", "time": 10, "note": 67, "velocity": 114, "channel": 0}, {"type": "note_off", "time": 86, "note": 67, "velocity": 114, "channel": 0}, {"type": "note_on", "time": 4, "note": 66, "velocity": 118, "channel": 0}, {"type": "note_off", "time": 43, "note": 66, "velocity": 118, "channel": 0}, {"type": "note_on", "time": 4, "note": 65, "velocity": 118, "channel": 0}, {"type": "note_off", "time": 35, "note": 65, "velocity": 118, "channel": 0}, {"type": "note_on", "time": 2, "note": 64, "velocity": 122, "channel": 0}, {"type": "note_off", "time": 105, "note": 64, "velocity": 122, "channel": 0}, {"type": "note_on", "time": 8, "note": 62, "velocity": 124, "channel": 0}, {"type": "note_off", "time": 80, "note": 62, "velocity": 124, "channel": 0}, {"type": "note_on", "time": 8, "note": 60, "velocity": 110, "channel": 0}, {"type": "note_off", "time": 80, "note": 60, "velocity": 110, "channel": 0}, {"type": "note_on", "time": 41, "note": 59, "velocity": 113, "channel": 0}, {"type": "note_off", "time": 80, "note": 59, "velocity": 113, "channel": 0}, {"type": "note_on", "time": 9, "note": 58, "velocity": 110, "channel": 0}, {"type": "note_off", "time": 92, "note": 58, "velocity": 110, "channel": 0}, {"type": "note_on", "time": 8, "note": 57, "velocity": 103, "channel": 0}, {"type": "note_off", "time": 57, "note": 57, "velocity": 103, "channel": 0}, {"type": "note_on", "time": 6, "note": 58, "velocity": 110, "channel": 0}, {"type": "note_off", "time": 92, "note": 58, "velocity": 110, "channel": 0}, {"type": "note_on", "time": 122, "note": 65, "velocity": 116, "channel": 0}, {"type": "note_off", "time": 98, "note": 65, "velocity": 116, "channel": 0}, {"type": "note_on", "time": 18, "note": 64, "velocity": 105, "channel": 0}, {"type": "note_off", "time": 47, "note": 64, "velocity": 105, "channel": 0}, {"type": "note_on", "time": 32, "note": 65, "velocity": 118, "channel": 0}, {"type": "note_off", "time": 103, "note": 65, "velocity": 118, "channel": 0}, {"type": "note_on", "time": 70, "note": 63, "velocity": 124, "channel": 0}, {"type": "note_off", "time": 92, "note": 63, "velocity": 124, "channel": 0}, {"type": "note_on", "time": 16, "note": 62, "velocity": 113, "channel": 0}, {"type": "note_off", "time": 69, "note": 62, "velocity": 113, "channel": 0}, {"type": "note_on", "time": 20, "note": 63, "velocity": 121, "channel": 0}, {"type": "note_off", "time": 90, "note": 63, "velocity": 121, "channel": 0}, {"type": "note_on", "time": 39, "note": 70, "velocity": 120, "channel": 0}, {"type": "note_off", "time": 67, "note": 70, "velocity": 120, "channel": 0}, {"type": "note_on", "time": 22, "note": 67, "velocity": 116, "channel": 0}, {"type": "note_off", "time": 88, "note": 67, "velocity": 116, "channel": 0}, {"type": "note_on", "time": 8, "note": 68, "velocity": 118, "channel": 0}, {"type": "note_off", "time": 80, "note": 68, "velocity": 118, "channel": 0}, {"type": "note_on", "time": 24, "note": 64, "velocity": 122, "channel": 0}, {"type": "note_off", "time": 78, "note": 64, "velocity": 122, "channel": 0}, {"type": "note_on", "time": 36, "note": 67, "velocity": 117, "channel": 0}, {"type": "note_off", "time": 63, "note": 67, "velocity": 117, "channel": 0}, {"type": "note_on", "time": 16, "note": 65, "velocity": 120, "channel": 0}, {"type": "note_off", "time": 102, "note": 65, "velocity": 120, "channel": 0}, {"type": "note_on", "time": 24, "note": 55, "velocity": 106, "channel": 0}, {"type": "note_off", "time": 57, "note": 55, "velocity": 106, "channel": 0}, {"type": "note_on", "time": 16, "note": 62, "velocity": 119, "channel": 0}, {"type": "note_off", "time": 90, "note": 62, "velocity": 119, "channel": 0}, {"type": "note_on", "time": 12, "note": 63, "velocity": 120, "channel": 0}, {"type": "note_off", "time": 65, "note": 63, "velocity": 120, "channel": 0}, {"type": "note_on", "time": 34, "note": 60, "velocity": 109, "channel": 0}, {"type": "note_off", "time": 61, "note": 60, "velocity": 109, "channel": 0}, {"type": "note_on", "time": 12, "note": 61, "velocity": 116, "channel": 0}, {"type": "note_off", "time": 84, "note": 61, "velocity": 116, "channel": 0}, {"type": "note_on", "time": 218, "note": 65, "velocity": 120, "channel": 0}, {"type": "note_off", "time": 260, "note": 65, "velocity": 120, "channel": 0}, {"type": "note_on", "time": 19, "note": 61, "velocity": 119, "channel": 0}, {"type": "note_off", "time": 71, "note": 61, "velocity": 119, "channel": 0}, {"type": "note_on", "time": 18, "note": 60, "velocity": 112, "channel": 0}, {"type": "note_off", "time": 47, "note": 60, "velocity": 112, "channel": 0}, {"type": "note_on", "time": 6, "note": 61, "velocity": 112, "channel": 0}, {"type": "note_off", "time": 43, "note": 61, "velocity": 112, "channel": 0}, {"type": "note_on", "time": 22, "note": 58, "velocity": 109, "channel": 0}, {"type": "note_off", "time": 80, "note": 58, "velocity": 109, "channel": 0}, {"type": "note_on", "time": 0, "note": 54, "velocity": 103, "channel": 0}, {"type": "note_off", "time": 78, "note": 54, "velocity": 103, "channel": 0}, {"type": "note_on", "time": 28, "note": 52, "velocity": 106, "channel": 0}, {"type": "note_off", "time": 78, "note": 52, "velocity": 106, "channel": 0}, {"type": "note_on", "time": 4, "note": 53, "velocity": 106, "channel": 0}, {"type": "note_off", "time": 75, "note": 53, "velocity": 106, "channel": 0}, {"type": "note_on", "time": 41, "note": 55, "velocity": 104, "channel": 0}, {"type": "note_off", "time": 92, "note": 55, "velocity": 104, "channel": 0}, {"type": "note_on", "time": 14, "note": 57, "velocity": 105, "channel": 0}, {"type": "note_off", "time": 49, "note": 57, "velocity": 105, "channel": 0}, {"type": "note_on", "time": 12, "note": 59, "velocity": 106, "channel": 0}, {"type": "note_off", "time": 45, "note": 59, "velocity": 106, "channel": 0}, {"type": "note_on", "time": 29, "note": 64, "velocity": 121, "channel": 0}, {"type": "note_off", "time": 50, "note": 64, "velocity": 121, "channel": 0}, {"type": "note_on", "time": 4, "note": 65, "velocity": 120, "channel": 0}, {"type": "note_off", "time": 30, "note": 65, "velocity": 120, "channel": 0}, {"type": "note_on", "time": 5, "note": 64, "velocity": 125, "channel": 0}, {"type": "note_off", "time": 80, "note": 64, "velocity": 125, "channel": 0}, {"type": "note_on", "time": 5, "note": 62, "velocity": 122, "channel": 0}, {"type": "note_off", "time": 110, "note": 62, "velocity": 122, "channel": 0}, {"type": "note_on", "time": 2, "note": 60, "velocity": 117, "channel": 0}, {"type": "note_off", "time": 80, "note": 60, "velocity": 117, "channel": 0}, {"type": "note_on", "time": 6, "note": 59, "velocity": 111, "channel": 0}, {"type": "note_off", "time": 73, "note": 59, "velocity": 111, "channel": 0}, {"type": "note_on", "time": 47, "note": 62, "velocity": 110, "channel": 0}, {"type": "note_off", "time": 59, "note": 62, "velocity": 110, "channel": 0}, {"type": "note_on", "time": 7, "note": 65, "velocity": 120, "channel": 0}, {"type": "note_off", "time": 106, "note": 65, "velocity": 120, "channel": 0}, {"type": "note_on", "time": 2, "note": 69, "velocity": 117, "channel": 0}, {"type": "note_off", "time": 80, "note": 69, "velocity": 117, "channel": 0}, {"type": "note_on", "time": 13, "note": 63, "velocity": 117, "channel": 0}, {"type": "note_off", "time": 69, "note": 63, "velocity": 117, "channel": 0}, {"type": "note_on", "time": 6, "note": 65, "velocity": 114, "channel": 0}, {"type": "note_off", "time": 49, "note": 65, "velocity": 114, "channel": 0}, {"type": "note_on", "time": 17, "note": 66, "velocity": 115, "channel": 0}, {"type": "note_off", "time": 39, "note": 66, "velocity": 115, "channel": 0}, {"type": "note_on", "time": 13, "note": 67, "velocity": 109, "channel": 0}, {"type": "note_off", "time": 83, "note": 67, "velocity": 109, "channel": 0}, {"type": "note_on", "time": 3, "note": 66, "velocity": 118, "channel": 0}, {"type": "note_off", "time": 42, "note": 66, "velocity": 118, "channel": 0}, {"type": "note_on", "time": 4, "note": 65, "velocity": 117, "channel": 0}, {"type": "note_off", "time": 28, "note": 65, "velocity": 117, "channel": 0}, {"type": "note_on", "time": 4, "note": 63, "velocity": 117, "channel": 0}, {"type": "note_off", "time": 84, "note": 63, "velocity": 117, "channel": 0}, {"type": "note_on", "time": 139, "note": 51, "velocity": 100, "channel": 0}, {"type": "note_off", "time": 73, "note": 51, "velocity": 100, "channel": 0}, {"type": "note_on", "time": 4, "note": 55, "velocity": 112, "channel": 0}, {"type": "note_off", "time": 86, "note": 55, "velocity": 112, "channel": 0}, {"type": "note_on", "time": 5, "note": 62, "velocity": 124, "channel": 0}, {"type": "note_off", "time": 129, "note": 62, "velocity": 124, "channel": 0}, {"type": "note_on", "time": 7, "note": 60, "velocity": 109, "channel": 0}, {"type": "note_off", "time": 215, "note": 60, "velocity": 109, "channel": 0}, {"type": "note_on", "time": 462, "note": 51, "velocity": 114, "channel": 0}, {"type": "note_off", "time": 84, "note": 51, "velocity": 114, "channel": 0}, {"type": "note_on", "time": 24, "note": 55, "velocity": 115, "channel": 0}, {"type": "note_off", "time": 73, "note": 55, "velocity": 115, "channel": 0}, {"type": "note_on", "time": 18, "note": 62, "velocity": 125, "channel": 0}, {"type": "note_off", "time": 96, "note": 62, "velocity": 125, "channel": 0}, {"type": "note_on", "time": 19, "note": 67, "velocity": 122, "channel": 0}, {"type": "note_off", "time": 110, "note": 67, "velocity": 122, "channel": 0}, {"type": "note_on", "time": 58, "note": 74, "velocity": 113, "channel": 0}, {"type": "note_off", "time": 104, "note": 74, "velocity": 113, "channel": 0}, {"type": "note_on", "time": 24, "note": 74, "velocity": 116, "channel": 0}, {"type": "note_off", "time": 110, "note": 74, "velocity": 116, "channel": 0}, {"type": "note_on", "time": 9, "note": 67, "velocity": 121, "channel": 0}, {"type": "note_off", "time": 301, "note": 67, "velocity": 121, "channel": 0}, {"type": "note_on", "time": 318, "note": 71, "velocity": 120, "channel": 0}, {"type": "note_off", "time": 29, "note": 71, "velocity": 120, "channel": 0}, {"type": "note_on", "time": 5, "note": 72, "velocity": 118, "channel": 0}, {"type": "note_off", "time": 395, "note": 72, "velocity": 118, "channel": 0}, {"type": "note_on", "time": 15, "note": 70, "velocity": 122, "channel": 0}, {"type": "note_off", "time": 78, "note": 70, "velocity": 122, "channel": 0}, {"type": "note_on", "time": 25, "note": 68, "velocity": 117, "channel": 0}, {"type": "note_off", "time": 82, "note": 68, "velocity": 117, "channel": 0}, {"type": "note_on", "time": 12, "note": 70, "velocity": 117, "channel": 0}, {"type": "note_off", "time": 100, "note": 70, "velocity": 117, "channel": 0}, {"type": "note_on", "time": 15, "note": 68, "velocity": 119, "channel": 0}, {"type": "note_off", "time": 63, "note": 68, "velocity": 119, "channel": 0}, {"type": "note_on", "time": 33, "note": 67, "velocity": 116, "channel": 0}, {"type": "note_off", "time": 78, "note": 67, "velocity": 116, "channel": 0}, {"type": "note_on", "time": 18, "note": 65, "velocity": 118, "channel": 0}, {"type": "note_off", "time": 102, "note": 65, "velocity": 118, "channel": 0}, {"type": "note_on", "time": 4, "note": 64, "velocity": 119, "channel": 0}, {"type": "note_off", "time": 78, "note": 64, "velocity": 119, "channel": 0}, {"type": "note_on", "time": 8, "note": 65, "velocity": 116, "channel": 0}, {"type": "note_off", "time": 102, "note": 65, "velocity": 116, "channel": 0}, {"type": "note_on", "time": 7, "note": 67, "velocity": 116, "channel": 0}, {"type": "note_off", "time": 86, "note": 67, "velocity": 116, "channel": 0}, {"type": "note_on", "time": 8, "note": 68, "velocity": 119, "channel": 0}, {"type": "note_off", "time": 72, "note": 68, "velocity": 119, "channel": 0}, {"type": "note_on", "time": 30, "note": 67, "velocity": 113, "channel": 0}, {"type": "note_off", "time": 26, "note": 67, "velocity": 113, "channel": 0}, {"type": "note_on", "time": 5, "note": 65, "velocity": 118, "channel": 0}, {"type": "note_off", "time": 67, "note": 65, "velocity": 118, "channel": 0}, {"type": "note_on", "time": 12, "note": 64, "velocity": 121, "channel": 0}, {"type": "note_off", "time": 75, "note": 64, "velocity": 121, "channel": 0}, {"type": "note_on", "time": 6, "note": 67, "velocity": 117, "channel": 0}, {"type": "note_off", "time": 98, "note": 67, "velocity": 117, "channel": 0}, {"type": "note_on", "time": 5, "note": 65, "velocity": 117, "channel": 0}, {"type": "note_off", "time": 73, "note": 65, "velocity": 117, "channel": 0}, {"type": "note_on", "time": 30, "note": 63, "velocity": 123, "channel": 0}, {"type": "note_off", "time": 75, "note": 63, "velocity": 123, "channel": 0}, {"type": "note_on", "time": 7, "note": 62, "velocity": 119, "channel": 0}, {"type": "note_off", "time": 78, "note": 62, "velocity": 119, "channel": 0}, {"type": "note_on", "time": 34, "note": 60, "velocity": 110, "channel": 0}, {"type": "note_off", "time": 82, "note": 60, "velocity": 110, "channel": 0}, {"type": "note_on", "time": 28, "note": 58, "velocity": 97, "channel": 0}, {"type": "note_off", "time": 102, "note": 58, "velocity": 97, "channel": 0}, {"type": "note_on", "time": 61, "note": 60, "velocity": 113, "channel": 0}, {"type": "note_off", "time": 98, "note": 60, "velocity": 113, "channel": 0}, {"type": "note_on", "time": 30, "note": 56, "velocity": 111, "channel": 0}, {"type": "note_off", "time": 80, "note": 56, "velocity": 111, "channel": 0}, {"type": "note_on", "time": 10, "note": 55, "velocity": 119, "channel": 0}, {"type": "note_off", "time": 84, "note": 55, "velocity": 119, "channel": 0}, {"type": "note_on", "time": 8, "note": 53, "velocity": 112, "channel": 0}, {"type": "note_on", "time": 73, "note": 51, "velocity": 99, "channel": 0}, {"type": "note_off", "time": 0, "note": 53, "velocity": 112, "channel": 0}, {"type": "note_off", "time": 69, "note": 51, "velocity": 99, "channel": 0}, {"type": "note_on", "time": 34, "note": 49, "velocity": 114, "channel": 0}, {"type": "note_off", "time": 63, "note": 49, "velocity": 114, "channel": 0}, {"type": "note_on", "time": 18, "note": 58, "velocity": 114, "channel": 0}, {"type": "note_off", "time": 291, "note": 58, "velocity": 114, "channel": 0}, {"type": "note_on", "time": 501, "note": 65, "velocity": 123, "channel": 0}, {"type": "note_off", "time": 48, "note": 65, "velocity": 123, "channel": 0}, {"type": "note_on", "time": 3, "note": 66, "velocity": 116, "channel": 0}, {"type": "note_off", "time": 23, "note": 66, "velocity": 116, "channel": 0}, {"type": "note_on", "time": 8, "note": 65, "velocity": 120, "channel": 0}, {"type": "note_off", "time": 509, "note": 65, "velocity": 120, "channel": 0}, {"type": "note_on", "time": 26, "note": 67, "velocity": 120, "channel": 0}, {"type": "note_off", "time": 45, "note": 67, "velocity": 120, "channel": 0}, {"type": "note_on", "time": 3, "note": 68, "velocity": 122, "channel": 0}, {"type": "note_off", "time": 52, "note": 68, "velocity": 122, "channel": 0}, {"type": "note_on", "time": 14, "note": 67, "velocity": 116, "channel": 0}, {"type": "note_off", "time": 224, "note": 67, "velocity": 116, "channel": 0}, {"type": "note_on", "time": 65, "note": 67, "velocity": 117, "channel": 0}, {"type": "note_off", "time": 95, "note": 67, "velocity": 117, "channel": 0}, {"type": "note_on", "time": 16, "note": 65, "velocity": 119, "channel": 0}, {"type": "note_off", "time": 277, "note": 65, "velocity": 119, "channel": 0}, {"type": "note_on", "time": 80, "note": 65, "velocity": 116, "channel": 0}, {"type": "note_off", "time": 104, "note": 65, "velocity": 116, "channel": 0}, {"type": "note_on", "time": 0, "note": 63, "velocity": 120, "channel": 0}, {"type": "note_off", "time": 517, "note": 63, "velocity": 120, "channel": 0}, {"type": "note_on", "time": 30, "note": 63, "velocity": 122, "channel": 0}, {"type": "note_off", "time": 92, "note": 63, "velocity": 122, "channel": 0}, {"type": "note_on", "time": 22, "note": 62, "velocity": 120, "channel": 0}, {"type": "note_off", "time": 191, "note": 62, "velocity": 120, "channel": 0}, {"type": "note_on", "time": 20, "note": 62, "velocity": 115, "channel": 0}, {"type": "note_off", "time": 101, "note": 62, "velocity": 115, "channel": 0}, {"type": "note_on", "time": 31, "note": 60, "velocity": 105, "channel": 0}, {"type": "note_off", "time": 273, "note": 60, "velocity": 105, "channel": 0}, {"type": "note_on", "time": 2, "note": 64, "velocity": 119, "channel": 0}, {"type": "note_off", "time": 92, "note": 64, "velocity": 119, "channel": 0}, {"type": "note_on", "time": 6, "note": 65, "velocity": 118, "channel": 0}, {"type": "note_off", "time": 215, "note": 65, "velocity": 118, "channel": 0}, {"type": "note_on", "time": 17, "note": 62, "velocity": 119, "channel": 0}, {"type": "note_off", "time": 90, "note": 62, "velocity": 119, "channel": 0}, {"type": "note_on", "time": 4, "note": 63, "velocity": 119, "channel": 0}, {"type": "note_off", "time": 108, "note": 63, "velocity": 119, "channel": 0}, {"type": "note_on", "time": 4, "note": 60, "velocity": 110, "channel": 0}, {"type": "note_off", "time": 100, "note": 60, "velocity": 110, "channel": 0}, {"type": "note_on", "time": 32, "note": 56, "velocity": 104, "channel": 0}, {"type": "note_off", "time": 82, "note": 56, "velocity": 104, "channel": 0}, {"type": "note_on", "time": 64, "note": 63, "velocity": 117, "channel": 0}, {"type": "note_off", "time": 248, "note": 63, "velocity": 117, "channel": 0}, {"type": "note_on", "time": 5, "note": 61, "velocity": 111, "channel": 0}, {"type": "note_off", "time": 100, "note": 61, "velocity": 111, "channel": 0}, {"type": "note_on", "time": 12, "note": 62, "velocity": 121, "channel": 0}, {"type": "note_off", "time": 86, "note": 62, "velocity": 121, "channel": 0}, {"type": "note_on", "time": 7, "note": 58, "velocity": 100, "channel": 0}, {"type": "note_off", "time": 98, "note": 58, "velocity": 100, "channel": 0}, {"type": "note_on", "time": 8, "note": 59, "velocity": 101, "channel": 0}, {"type": "note_off", "time": 199, "note": 59, "velocity": 101, "channel": 0}, {"type": "note_on", "time": 20, "note": 62, "velocity": 119, "channel": 0}, {"type": "note_off", "time": 318, "note": 62, "velocity": 119, "channel": 0}, {"type": "note_on", "time": 16, "note": 59, "velocity": 105, "channel": 0}, {"type": "note_off", "time": 67, "note": 59, "velocity": 105, "channel": 0}, {"type": "note_on", "time": 32, "note": 60, "velocity": 118, "channel": 0}, {"type": "note_off", "time": 121, "note": 60, "velocity": 118, "channel": 0}, {"type": "note_on", "time": 28, "note": 57, "velocity": 103, "channel": 0}, {"type": "note_off", "time": 114, "note": 57, "velocity": 103, "channel": 0}, {"type": "note_on", "time": 851, "note": 51, "velocity": 115, "channel": 0}, {"type": "note_off", "time": 114, "note": 51, "velocity": 115, "channel": 0}, {"type": "note_on", "time": 4, "note": 57, "velocity": 105, "channel": 0}, {"type": "note_off", "time": 57, "note": 57, "velocity": 105, "channel": 0}, {"type": "note_on", "time": 39, "note": 62, "velocity": 121, "channel": 0}, {"type": "note_off", "time": 78, "note": 62, "velocity": 121, "channel": 0}, {"type": "note_on", "time": 43, "note": 67, "velocity": 116, "channel": 0}, {"type": "note_off", "time": 80, "note": 67, "velocity": 116, "channel": 0}, {"type": "note_on", "time": 0, "note": 72, "velocity": 119, "channel": 0}, {"type": "note_off", "time": 106, "note": 72, "velocity": 119, "channel": 0}, {"type": "note_on", "time": 45, "note": 72, "velocity": 118, "channel": 0}, {"type": "note_off", "time": 129, "note": 72, "velocity": 118, "channel": 0}, {"type": "note_on", "time": 3, "note": 76, "velocity": 116, "channel": 0}, {"type": "note_off", "time": 56, "note": 76, "velocity": 116, "channel": 0}, {"type": "note_on", "time": 3, "note": 77, "velocity": 122, "channel": 0}, {"type": "note_off", "time": 273, "note": 77, "velocity": 122, "channel": 0}, {"type": "note_on", "time": 31, "note": 75, "velocity": 118, "channel": 0}, {"type": "note_off", "time": 743, "note": 75, "velocity": 118, "channel": 0}, {"type": "note_on", "time": 58, "note": 71, "velocity": 115, "channel": 0}, {"type": "note_off", "time": 92, "note": 71, "velocity": 115, "channel": 0}, {"type": "note_on", "time": 11, "note": 74, "velocity": 114, "channel": 0}, {"type": "note_off", "time": 106, "note": 74, "velocity": 114, "channel": 0}, {"type": "note_on", "time": 11, "note": 72, "velocity": 116, "channel": 0}, {"type": "note_off", "time": 201, "note": 72, "velocity": 116, "channel": 0}, {"type": "note_on", "time": 410, "note": 74, "velocity": 123, "channel": 0}, {"type": "note_off", "time": 63, "note": 74, "velocity": 123, "channel": 0}, {"type": "note_on", "time": 8, "note": 75, "velocity": 118, "channel": 0}, {"type": "note_off", "time": 683, "note": 75, "velocity": 118, "channel": 0}, {"type": "note_on", "time": 53, "note": 72, "velocity": 112, "channel": 0}, {"type": "note_off", "time": 104, "note": 72, "velocity": 112, "channel": 0}, {"type": "note_on", "time": 81, "note": 67, "velocity": 118, "channel": 0}, {"type": "note_off", "time": 80, "note": 67, "velocity": 118, "channel": 0}, {"type": "note_on", "time": 26, "note": 70, "velocity": 120, "channel": 0}, {"type": "note_off", "time": 86, "note": 70, "velocity": 120, "channel": 0}, {"type": "note_on", "time": 42, "note": 68, "velocity": 119, "channel": 0}, {"type": "note_off", "time": 86, "note": 68, "velocity": 119, "channel": 0}, {"type": "note_on", "time": 78, "note": 67, "velocity": 118, "channel": 0}, {"type": "note_off", "time": 94, "note": 67, "velocity": 118, "channel": 0}, {"type": "note_on", "time": 8, "note": 68, "velocity": 118, "channel": 0}, {"type": "note_off", "time": 84, "note": 68, "velocity": 118, "channel": 0}, {"type": "note_on", "time": 11, "note": 64, "velocity": 122, "channel": 0}, {"type": "note_off", "time": 94, "note": 64, "velocity": 122, "channel": 0}, {"type": "note_on", "time": 8, "note": 67, "velocity": 114, "channel": 0}, {"type": "note_off", "time": 65, "note": 67, "velocity": 114, "channel": 0}, {"type": "note_on", "time": 34, "note": 65, "velocity": 119, "channel": 0}, {"type": "note_off", "time": 96, "note": 65, "velocity": 119, "channel": 0}, {"type": "note_on", "time": 10, "note": 63, "velocity": 122, "channel": 0}, {"type": "note_off", "time": 78, "note": 63, "velocity": 122, "channel": 0}, {"type": "note_on", "time": 16, "note": 62, "velocity": 123, "channel": 0}, {"type": "note_off", "time": 86, "note": 62, "velocity": 123, "channel": 0}, {"type": "note_on", "time": 12, "note": 60, "velocity": 106, "channel": 0}, {"type": "note_off", "time": 78, "note": 60, "velocity": 106, "channel": 0}, {"type": "note_on", "time": 16, "note": 58, "velocity": 103, "channel": 0}, {"type": "note_off", "time": 67, "note": 58, "velocity": 103, "channel": 0}, {"type": "note_on", "time": 0, "note": 59, "velocity": 94, "channel": 0}, {"type": "note_off", "time": 57, "note": 59, "velocity": 94, "channel": 0}, {"type": "note_on", "time": 12, "note": 60, "velocity": 106, "channel": 0}, {"type": "note_off", "time": 75, "note": 60, "velocity": 106, "channel": 0}, {"type": "note_on", "time": 45, "note": 65, "velocity": 101, "channel": 0}, {"type": "note_off", "time": 51, "note": 65, "velocity": 101, "channel": 0}, {"type": "note_on", "time": 212, "note": 58, "velocity": 112, "channel": 0}, {"type": "note_off", "time": 260, "note": 58, "velocity": 112, "channel": 0}, {"type": "note_on", "time": 577, "note": 62, "velocity": 123, "channel": 0}, {"type": "note_off", "time": 119, "note": 62, "velocity": 123, "channel": 0}, {"type": "note_on", "time": 43, "note": 69, "velocity": 114, "channel": 0}, {"type": "note_off", "time": 60, "note": 69, "velocity": 114, "channel": 0}, {"type": "note_on", "time": 7, "note": 72, "velocity": 115, "channel": 0}, {"type": "note_off", "time": 49, "note": 72, "velocity": 115, "channel": 0}, {"type": "note_on", "time": 22, "note": 71, "velocity": 118, "channel": 0}, {"type": "note_off", "time": 75, "note": 71, "velocity": 118, "channel": 0}, {"type": "note_on", "time": 10, "note": 69, "velocity": 119, "channel": 0}, {"type": "note_off", "time": 86, "note": 69, "velocity": 119, "channel": 0}, {"type": "note_on", "time": 26, "note": 68, "velocity": 117, "channel": 0}, {"type": "note_off", "time": 67, "note": 68, "velocity": 117, "channel": 0}, {"type": "note_on", "time": 7, "note": 69, "velocity": 120, "channel": 0}, {"type": "note_off", "time": 94, "note": 69, "velocity": 120, "channel": 0}, {"type": "note_on", "time": 12, "note": 70, "velocity": 118, "channel": 0}, {"type": "note_off", "time": 62, "note": 70, "velocity": 118, "channel": 0}, {"type": "note_on", "time": 13, "note": 72, "velocity": 114, "channel": 0}, {"type": "note_off", "time": 59, "note": 72, "velocity": 114, "channel": 0}, {"type": "note_on", "time": 47, "note": 69, "velocity": 116, "channel": 0}, {"type": "note_off", "time": 54, "note": 69, "velocity": 116, "channel": 0}, {"type": "note_on", "time": 64, "note": 65, "velocity": 125, "channel": 0}, {"type": "note_off", "time": 56, "note": 65, "velocity": 125, "channel": 0}, {"type": "note_on", "time": 7, "note": 64, "velocity": 122, "channel": 0}, {"type": "note_off", "time": 123, "note": 64, "velocity": 122, "channel": 0}, {"type": "note_on", "time": 2, "note": 62, "velocity": 106, "channel": 0}, {"type": "note_off", "time": 63, "note": 62, "velocity": 106, "channel": 0}, {"type": "note_on", "time": 12, "note": 67, "velocity": 118, "channel": 0}, {"type": "note_off", "time": 98, "note": 67, "velocity": 118, "channel": 0}, {"type": "note_on", "time": 30, "note": 66, "velocity": 119, "channel": 0}, {"type": "note_off", "time": 73, "note": 66, "velocity": 119, "channel": 0}, {"type": "note_on", "time": 10, "note": 65, "velocity": 120, "channel": 0}, {"type": "note_off", "time": 77, "note": 65, "velocity": 120, "channel": 0}, {"type": "note_on", "time": 4, "note": 64, "velocity": 122, "channel": 0}, {"type": "note_off", "time": 65, "note": 64, "velocity": 122, "channel": 0}, {"type": "note_on", "time": 24, "note": 63, "velocity": 120, "channel": 0}, {"type": "note_off", "time": 88, "note": 63, "velocity": 120, "channel": 0}, {"type": "note_on", "time": 32, "note": 62, "velocity": 120, "channel": 0}, {"type": "note_off", "time": 77, "note": 62, "velocity": 120, "channel": 0}, {"type": "note_on", "time": 5, "note": 60, "velocity": 106, "channel": 0}, {"type": "note_off", "time": 68, "note": 60, "velocity": 106, "channel": 0}, {"type": "note_on", "time": 27, "note": 59, "velocity": 103, "channel": 0}, {"type": "note_off", "time": 73, "note": 59, "velocity": 103, "channel": 0}, {"type": "note_on", "time": 8, "note": 62, "velocity": 127, "channel": 0}, {"type": "note_off", "time": 92, "note": 62, "velocity": 127, "channel": 0}, {"type": "note_on", "time": 9, "note": 63, "velocity": 120, "channel": 0}, {"type": "note_off", "time": 86, "note": 63, "velocity": 120, "channel": 0}, {"type": "note_on", "time": 11, "note": 60, "velocity": 110, "channel": 0}, {"type": "note_off", "time": 84, "note": 60, "velocity": 110, "channel": 0}, {"type": "note_on", "time": 38, "note": 56, "velocity": 103, "channel": 0}, {"type": "note_off", "time": 61, "note": 56, "velocity": 103, "channel": 0}, {"type": "note_on", "time": 18, "note": 55, "velocity": 103, "channel": 0}, {"type": "note_off", "time": 88, "note": 55, "velocity": 103, "channel": 0}, {"type": "note_on", "time": 18, "note": 54, "velocity": 97, "channel": 0}, {"type": "note_off", "time": 57, "note": 54, "velocity": 97, "channel": 0}, {"type": "note_on", "time": 35, "note": 58, "velocity": 116, "channel": 0}, {"type": "note_off", "time": 108, "note": 58, "velocity": 116, "channel": 0}, {"type": "note_on", "time": 27, "note": 56, "velocity": 108, "channel": 0}, {"type": "note_off", "time": 44, "note": 56, "velocity": 108, "channel": 0}, {"type": "note_on", "time": 97, "note": 65, "velocity": 117, "channel": 0}, {"type": "note_off", "time": 59, "note": 65, "velocity": 117, "channel": 0}, {"type": "note_on", "time": 5, "note": 68, "velocity": 117, "channel": 0}, {"type": "note_off", "time": 159, "note": 68, "velocity": 117, "channel": 0}, {"type": "note_on", "time": 13, "note": 66, "velocity": 117, "channel": 0}, {"type": "note_off", "time": 84, "note": 66, "velocity": 117, "channel": 0}, {"type": "note_on", "time": 44, "note": 65, "velocity": 112, "channel": 0}, {"type": "note_off", "time": 67, "note": 65, "velocity": 112, "channel": 0}, {"type": "note_on", "time": 22, "note": 68, "velocity": 121, "channel": 0}, {"type": "note_off", "time": 94, "note": 68, "velocity": 121, "channel": 0}, {"type": "note_on", "time": 24, "note": 66, "velocity": 119, "channel": 0}, {"type": "note_off", "time": 73, "note": 66, "velocity": 119, "channel": 0}, {"type": "note_on", "time": 102, "note": 65, "velocity": 121, "channel": 0}, {"type": "note_off", "time": 49, "note": 65, "velocity": 121, "channel": 0}, {"type": "note_on", "time": 3, "note": 67, "velocity": 117, "channel": 0}, {"type": "note_off", "time": 151, "note": 67, "velocity": 117, "channel": 0}, {"type": "note_on", "time": 62, "note": 65, "velocity": 120, "channel": 0}, {"type": "note_off", "time": 104, "note": 65, "velocity": 120, "channel": 0}, {"type": "note_on", "time": 18, "note": 63, "velocity": 120, "channel": 0}, {"type": "note_off", "time": 82, "note": 63, "velocity": 120, "channel": 0}, {"type": "note_on", "time": 4, "note": 67, "velocity": 119, "channel": 0}, {"type": "note_off", "time": 110, "note": 67, "velocity": 119, "channel": 0}, {"type": "note_on", "time": 12, "note": 65, "velocity": 120, "channel": 0}, {"type": "note_off", "time": 112, "note": 65, "velocity": 120, "channel": 0}, {"type": "note_on", "time": 65, "note": 63, "velocity": 100, "channel": 0}, {"type": "note_off", "time": 47, "note": 63, "velocity": 100, "channel": 0}, {"type": "note_on", "time": 8, "note": 67, "velocity": 116, "channel": 0}, {"type": "note_off", "time": 172, "note": 67, "velocity": 116, "channel": 0}, {"type": "note_on", "time": 24, "note": 65, "velocity": 121, "channel": 0}, {"type": "note_off", "time": 106, "note": 65, "velocity": 121, "channel": 0}, {"type": "note_on", "time": 21, "note": 61, "velocity": 110, "channel": 0}, {"type": "note_off", "time": 207, "note": 61, "velocity": 110, "channel": 0}, {"type": "note_on", "time": 24, "note": 62, "velocity": 121, "channel": 0}, {"type": "note_off", "time": 119, "note": 62, "velocity": 121, "channel": 0}, {"type": "note_on", "time": 367, "note": 67, "velocity": 113, "channel": 0}, {"type": "note_off", "time": 399, "note": 67, "velocity": 113, "channel": 0}, {"type": "note_on", "time": 12, "note": 65, "velocity": 120, "channel": 0}, {"type": "note_off", "time": 78, "note": 65, "velocity": 120, "channel": 0}, {"type": "note_on", "time": 22, "note": 63, "velocity": 123, "channel": 0}, {"type": "note_off", "time": 83, "note": 63, "velocity": 123, "channel": 0}, {"type": "note_on", "time": 7, "note": 65, "velocity": 116, "channel": 0}, {"type": "note_off", "time": 23, "note": 65, "velocity": 116, "channel": 0}, {"type": "note_on", "time": 4, "note": 63, "velocity": 121, "channel": 0}, {"type": "note_off", "time": 58, "note": 63, "velocity": 121, "channel": 0}, {"type": "note_on", "time": 4, "note": 62, "velocity": 121, "channel": 0}, {"type": "note_off", "time": 89, "note": 62, "velocity": 121, "channel": 0}, {"type": "note_on", "time": 5, "note": 63, "velocity": 110, "channel": 0}, {"type": "note_on", "time": 30, "note": 62, "velocity": 120, "channel": 0}, {"type": "note_off", "time": 0, "note": 63, "velocity": 110, "channel": 0}, {"type": "note_off", "time": 86, "note": 62, "velocity": 120, "channel": 0}, {"type": "note_on", "time": 8, "note": 60, "velocity": 109, "channel": 0}, {"type": "note_off", "time": 100, "note": 60, "velocity": 109, "channel": 0}, {"type": "note_on", "time": 6, "note": 62, "velocity": 121, "channel": 0}, {"type": "note_off", "time": 45, "note": 62, "velocity": 121, "channel": 0}, {"type": "note_on", "time": 4, "note": 63, "velocity": 120, "channel": 0}, {"type": "note_off", "time": 133, "note": 63, "velocity": 120, "channel": 0}, {"type": "note_on", "time": 51, "note": 65, "velocity": 94, "channel": 0}, {"type": "note_off", "time": 30, "note": 65, "velocity": 94, "channel": 0}, {"type": "note_on", "time": 8, "note": 66, "velocity": 118, "channel": 0}, {"type": "note_off", "time": 38, "note": 66, "velocity": 118, "channel": 0}, {"type": "note_on", "time": 5, "note": 67, "velocity": 117, "channel": 0}, {"type": "note_off", "time": 135, "note": 67, "velocity": 117, "channel": 0}, {"type": "note_on", "time": 5, "note": 70, "velocity": 120, "channel": 0}, {"type": "note_off", "time": 92, "note": 70, "velocity": 120, "channel": 0}, {"type": "note_on", "time": 7, "note": 67, "velocity": 119, "channel": 0}, {"type": "note_off", "time": 139, "note": 67, "velocity": 119, "channel": 0}, {"type": "note_on", "time": 7, "note": 66, "velocity": 118, "channel": 0}, {"type": "note_off", "time": 38, "note": 66, "velocity": 118, "channel": 0}, {"type": "note_on", "time": 114, "note": 63, "velocity": 122, "channel": 0}, {"type": "note_off", "time": 117, "note": 63, "velocity": 122, "channel": 0}, {"type": "note_on", "time": 3, "note": 67, "velocity": 117, "channel": 0}, {"type": "note_off", "time": 53, "note": 67, "velocity": 117, "channel": 0}, {"type": "note_on", "time": 32, "note": 63, "velocity": 120, "channel": 0}, {"type": "note_off", "time": 119, "note": 63, "velocity": 120, "channel": 0}, {"type": "note_on", "time": 65, "note": 60, "velocity": 104, "channel": 0}, {"type": "note_off", "time": 71, "note": 60, "velocity": 104, "channel": 0}, {"type": "note_on", "time": 10, "note": 63, "velocity": 122, "channel": 0}, {"type": "note_off", "time": 96, "note": 63, "velocity": 122, "channel": 0}, {"type": "note_on", "time": 34, "note": 60, "velocity": 112, "channel": 0}, {"type": "note_off", "time": 80, "note": 60, "velocity": 112, "channel": 0}, {"type": "note_on", "time": 49, "note": 55, "velocity": 100, "channel": 0}, {"type": "note_off", "time": 86, "note": 55, "velocity": 100, "channel": 0}, {"type": "note_on", "time": 39, "note": 58, "velocity": 113, "channel": 0}, {"type": "note_off", "time": 82, "note": 58, "velocity": 113, "channel": 0}, {"type": "note_on", "time": 30, "note": 55, "velocity": 106, "channel": 0}, {"type": "note_off", "time": 322, "note": 55, "velocity": 106, "channel": 0}, {"type": "note_on", "time": 327, "note": 70, "velocity": 120, "channel": 0}, {"type": "note_off", "time": 56, "note": 70, "velocity": 120, "channel": 0}, {"type": "note_on", "time": 8, "note": 72, "velocity": 119, "channel": 0}, {"type": "note_off", "time": 135, "note": 72, "velocity": 119, "channel": 0}, {"type": "note_on", "time": 70, "note": 70, "velocity": 122, "channel": 0}, {"type": "note_off", "time": 53, "note": 70, "velocity": 122, "channel": 0}, {"type": "note_on", "time": 7, "note": 71, "velocity": 118, "channel": 0}, {"type": "note_off", "time": 39, "note": 71, "velocity": 118, "channel": 0}, {"type": "note_on", "time": 12, "note": 70, "velocity": 121, "channel": 0}, {"type": "note_off", "time": 75, "note": 70, "velocity": 121, "channel": 0}, {"type": "note_on", "time": 8, "note": 68, "velocity": 117, "channel": 0}, {"type": "note_off", "time": 86, "note": 68, "velocity": 117, "channel": 0}, {"type": "note_on", "time": 12, "note": 67, "velocity": 121, "channel": 0}, {"type": "note_off", "time": 73, "note": 67, "velocity": 121, "channel": 0}, {"type": "note_on", "time": 38, "note": 65, "velocity": 122, "channel": 0}, {"type": "note_off", "time": 75, "note": 65, "velocity": 122, "channel": 0}, {"type": "note_on", "time": 80, "note": 64, "velocity": 123, "channel": 0}, {"type": "note_off", "time": 84, "note": 64, "velocity": 123, "channel": 0}, {"type": "note_on", "time": 30, "note": 65, "velocity": 120, "channel": 0}, {"type": "note_off", "time": 86, "note": 65, "velocity": 120, "channel": 0}, {"type": "note_on", "time": 10, "note": 67, "velocity": 118, "channel": 0}, {"type": "note_off", "time": 78, "note": 67, "velocity": 118, "channel": 0}, {"type": "note_on", "time": 18, "note": 68, "velocity": 122, "channel": 0}, {"type": "note_off", "time": 69, "note": 68, "velocity": 122, "channel": 0}, {"type": "note_on", "time": 34, "note": 65, "velocity": 119, "channel": 0}, {"type": "note_off", "time": 82, "note": 65, "velocity": 119, "channel": 0}, {"type": "note_on", "time": 41, "note": 60, "velocity": 104, "channel": 0}, {"type": "note_off", "time": 78, "note": 60, "velocity": 104, "channel": 0}, {"type": "note_on", "time": 2, "note": 63, "velocity": 124, "channel": 0}, {"type": "note_off", "time": 96, "note": 63, "velocity": 124, "channel": 0}, {"type": "note_on", "time": 6, "note": 60, "velocity": 109, "channel": 0}, {"type": "note_off", "time": 69, "note": 60, "velocity": 109, "channel": 0}, {"type": "note_on", "time": 4, "note": 61, "velocity": 115, "channel": 0}, {"type": "note_off", "time": 92, "note": 61, "velocity": 115, "channel": 0}, {"type": "note_on", "time": 6, "note": 62, "velocity": 119, "channel": 0}, {"type": "note_off", "time": 110, "note": 62, "velocity": 119, "channel": 0}, {"type": "note_on", "time": 53, "note": 58, "velocity": 94, "channel": 0}, {"type": "note_off", "time": 49, "note": 58, "velocity": 94, "channel": 0}, {"type": "note_on", "time": 10, "note": 59, "velocity": 102, "channel": 0}, {"type": "note_off", "time": 36, "note": 59, "velocity": 102, "channel": 0}, {"type": "note_on", "time": 18, "note": 60, "velocity": 111, "channel": 0}, {"type": "note_off", "time": 129, "note": 60, "velocity": 111, "channel": 0}, {"type": "note_on", "time": 25, "note": 67, "velocity": 101, "channel": 0}, {"type": "note_off", "time": 88, "note": 67, "velocity": 101, "channel": 0}, {"type": "note_on", "time": 4, "note": 66, "velocity": 100, "channel": 0}, {"type": "note_off", "time": 36, "note": 66, "velocity": 100, "channel": 0}, {"type": "note_on", "time": 121, "note": 58, "velocity": 114, "channel": 0}, {"type": "note_off", "time": 123, "note": 58, "velocity": 114, "channel": 0}, {"type": "note_on", "time": 20, "note": 56, "velocity": 105, "channel": 0}, {"type": "note_off", "time": 289, "note": 56, "velocity": 105, "channel": 0}, {"type": "note_on", "time": 287, "note": 62, "velocity": 126, "channel": 0}, {"type": "note_off", "time": 106, "note": 62, "velocity": 126, "channel": 0}, {"type": "note_on", "time": 11, "note": 65, "velocity": 124, "channel": 0}, {"type": "note_off", "time": 72, "note": 65, "velocity": 124, "channel": 0}, {"type": "note_on", "time": 10, "note": 64, "velocity": 123, "channel": 0}, {"type": "note_off", "time": 94, "note": 64, "velocity": 123, "channel": 0}, {"type": "note_on", "time": 56, "note": 60, "velocity": 106, "channel": 0}, {"type": "note_off", "time": 30, "note": 60, "velocity": 106, "channel": 0}, {"type": "note_on", "time": 25, "note": 67, "velocity": 119, "channel": 0}, {"type": "note_off", "time": 106, "note": 67, "velocity": 119, "channel": 0}, {"type": "note_on", "time": 73, "note": 62, "velocity": 125, "channel": 0}, {"type": "note_off", "time": 98, "note": 62, "velocity": 125, "channel": 0}, {"type": "note_on", "time": 12, "note": 65, "velocity": 125, "channel": 0}, {"type": "note_off", "time": 71, "note": 65, "velocity": 125, "channel": 0}, {"type": "note_on", "time": 12, "note": 64, "velocity": 126, "channel": 0}, {"type": "note_off", "time": 112, "note": 64, "velocity": 126, "channel": 0}, {"type": "note_on", "time": 87, "note": 67, "velocity": 117, "channel": 0}, {"type": "note_off", "time": 162, "note": 67, "velocity": 117, "channel": 0}, {"type": "note_on", "time": 12, "note": 65, "velocity": 106, "channel": 0}, {"type": "note_off", "time": 64, "note": 65, "velocity": 106, "channel": 0}, {"type": "note_on", "time": 332, "note": 60, "velocity": 118, "channel": 0}, {"type": "note_off", "time": 110, "note": 60, "velocity": 118, "channel": 0}, {"type": "note_on", "time": 0, "note": 63, "velocity": 125, "channel": 0}, {"type": "note_off", "time": 57, "note": 63, "velocity": 125, "channel": 0}, {"type": "note_on", "time": 18, "note": 62, "velocity": 119, "channel": 0}, {"type": "note_off", "time": 110, "note": 62, "velocity": 119, "channel": 0}, {"type": "note_on", "time": 36, "note": 60, "velocity": 97, "channel": 0}, {"type": "note_off", "time": 39, "note": 60, "velocity": 97, "channel": 0}, {"type": "note_on", "time": 10, "note": 65, "velocity": 118, "channel": 0}, {"type": "note_off", "time": 160, "note": 65, "velocity": 118, "channel": 0}, {"type": "note_on", "time": 24, "note": 60, "velocity": 117, "channel": 0}, {"type": "note_off", "time": 117, "note": 60, "velocity": 117, "channel": 0}, {"type": "note_on", "time": 8, "note": 63, "velocity": 124, "channel": 0}, {"type": "note_off", "time": 41, "note": 63, "velocity": 124, "channel": 0}, {"type": "note_on", "time": 6, "note": 62, "velocity": 120, "channel": 0}, {"type": "note_off", "time": 145, "note": 62, "velocity": 120, "channel": 0}, {"type": "note_on", "time": 16, "note": 60, "velocity": 97, "channel": 0}, {"type": "note_off", "time": 53, "note": 60, "velocity": 97, "channel": 0}, {"type": "note_on", "time": 14, "note": 65, "velocity": 118, "channel": 0}, {"type": "note_off", "time": 205, "note": 65, "velocity": 118, "channel": 0}, {"type": "note_on", "time": 170, "note": 63, "velocity": 121, "channel": 0}, {"type": "note_off", "time": 88, "note": 63, "velocity": 121, "channel": 0}, {"type": "note_on", "time": 49, "note": 68, "velocity": 116, "channel": 0}, {"type": "note_off", "time": 92, "note": 68, "velocity": 116, "channel": 0}, {"type": "note_on", "time": 75, "note": 63, "velocity": 106, "channel": 0}, {"type": "note_off", "time": 73, "note": 63, "velocity": 106, "channel": 0}, {"type": "note_on", "time": 18, "note": 67, "velocity": 117, "channel": 0}, {"type": "note_off", "time": 65, "note": 67, "velocity": 117, "channel": 0}, {"type": "note_on", "time": 6, "note": 68, "velocity": 113, "channel": 0}, {"type": "note_off", "time": 106, "note": 68, "velocity": 113, "channel": 0}, {"type": "note_on", "time": 4, "note": 63, "velocity": 118, "channel": 0}, {"type": "note_off", "time": 164, "note": 63, "velocity": 118, "channel": 0}, {"type": "note_on", "time": 0, "note": 62, "velocity": 120, "channel": 0}, {"type": "note_off", "time": 129, "note": 62, "velocity": 120, "channel": 0}, {"type": "note_on", "time": 22, "note": 67, "velocity": 113, "channel": 0}, {"type": "note_off", "time": 73, "note": 67, "velocity": 113, "channel": 0}, {"type": "note_on", "time": 160, "note": 67, "velocity": 113, "channel": 0}, {"type": "note_off", "time": 100, "note": 67, "velocity": 113, "channel": 0}, {"type": "note_on", "time": 32, "note": 62, "velocity": 120, "channel": 0}, {"type": "note_off", "time": 394, "note": 62, "velocity": 120, "channel": 0}, {"type": "note_on", "time": 61, "note": 62, "velocity": 124, "channel": 0}, {"type": "note_off", "time": 110, "note": 62, "velocity": 124, "channel": 0}, {"type": "note_on", "time": 5, "note": 63, "velocity": 117, "channel": 0}, {"type": "note_off", "time": 64, "note": 63, "velocity": 117, "channel": 0}, {"type": "note_on", "time": 9, "note": 62, "velocity": 120, "channel": 0}, {"type": "note_off", "time": 86, "note": 62, "velocity": 120, "channel": 0}, {"type": "note_on", "time": 36, "note": 60, "velocity": 109, "channel": 0}, {"type": "note_off", "time": 40, "note": 60, "velocity": 109, "channel": 0}, {"type": "note_on", "time": 11, "note": 55, "velocity": 105, "channel": 0}, {"type": "note_off", "time": 127, "note": 55, "velocity": 105, "channel": 0}, {"type": "note_on", "time": 47, "note": 55, "velocity": 105, "channel": 0}, {"type": "note_off", "time": 114, "note": 55, "velocity": 105, "channel": 0}, {"type": "note_on", "time": 36, "note": 55, "velocity": 103, "channel": 0}, {"type": "note_off", "time": 248, "note": 55, "velocity": 103, "channel": 0}, {"type": "note_on", "time": 567, "note": 62, "velocity": 118, "channel": 0}, {"type": "note_off", "time": 131, "note": 62, "velocity": 118, "channel": 0}, {"type": "note_on", "time": 49, "note": 62, "velocity": 119, "channel": 0}, {"type": "note_off", "time": 150, "note": 62, "velocity": 119, "channel": 0}, {"type": "note_on", "time": 77, "note": 62, "velocity": 119, "channel": 0}, {"type": "note_off", "time": 360, "note": 62, "velocity": 119, "channel": 0}, {"type": "note_on", "time": 79, "note": 64, "velocity": 113, "channel": 0}, {"type": "note_off", "time": 98, "note": 64, "velocity": 113, "channel": 0}, {"type": "note_on", "time": 92, "note": 69, "velocity": 116, "channel": 0}, {"type": "note_off", "time": 108, "note": 69, "velocity": 116, "channel": 0}, {"type": "note_on", "time": 55, "note": 67, "velocity": 120, "channel": 0}, {"type": "note_off", "time": 112, "note": 67, "velocity": 120, "channel": 0}, {"type": "note_on", "time": 4, "note": 64, "velocity": 118, "channel": 0}, {"type": "note_off", "time": 112, "note": 64, "velocity": 118, "channel": 0}, {"type": "note_on", "time": 22, "note": 62, "velocity": 121, "channel": 0}, {"type": "note_off", "time": 110, "note": 62, "velocity": 121, "channel": 0}, {"type": "note_on", "time": 10, "note": 60, "velocity": 106, "channel": 0}, {"type": "note_off", "time": 84, "note": 60, "velocity": 106, "channel": 0}, {"type": "note_on", "time": 19, "note": 62, "velocity": 120, "channel": 0}, {"type": "note_off", "time": 100, "note": 62, "velocity": 120, "channel": 0}, {"type": "note_on", "time": 60, "note": 55, "velocity": 102, "channel": 0}, {"type": "note_off", "time": 42, "note": 55, "velocity": 102, "channel": 0}, {"type": "note_on", "time": 68, "note": 58, "velocity": 92, "channel": 0}, {"type": "note_off", "time": 65, "note": 58, "velocity": 92, "channel": 0}, {"type": "note_on", "time": 8, "note": 60, "velocity": 112, "channel": 0}, {"type": "note_off", "time": 153, "note": 60, "velocity": 112, "channel": 0}, {"type": "note_on", "time": 20, "note": 60, "velocity": 114, "channel": 0}, {"type": "note_off", "time": 375, "note": 60, "velocity": 114, "channel": 0}, {"type": "note_on", "time": 473, "note": 60, "velocity": 112, "channel": 0}, {"type": "note_off", "time": 143, "note": 60, "velocity": 112, "channel": 0}, {"type": "note_on", "time": 99, "note": 60, "velocity": 114, "channel": 0}, {"type": "note_off", "time": 133, "note": 60, "velocity": 114, "channel": 0}, {"type": "note_on", "time": 32, "note": 60, "velocity": 113, "channel": 0}, {"type": "note_off", "time": 244, "note": 60, "velocity": 113, "channel": 0}, {"type": "note_on", "time": 34, "note": 63, "velocity": 119, "channel": 0}, {"type": "note_off", "time": 28, "note": 63, "velocity": 119, "channel": 0}, {"type": "note_on", "time": 32, "note": 65, "velocity": 118, "channel": 0}, {"type": "note_off", "time": 262, "note": 65, "velocity": 118, "channel": 0}, {"type": "note_on", "time": 67, "note": 63, "velocity": 121, "channel": 0}, {"type": "note_off", "time": 102, "note": 63, "velocity": 121, "channel": 0}, {"type": "note_on", "time": 4, "note": 65, "velocity": 118, "channel": 0}, {"type": "note_off", "time": 114, "note": 65, "velocity": 118, "channel": 0}, {"type": "note_on", "time": 9, "note": 63, "velocity": 119, "channel": 0}, {"type": "note_off", "time": 170, "note": 63, "velocity": 119, "channel": 0}, {"type": "note_on", "time": 219, "note": 62, "velocity": 122, "channel": 0}, {"type": "note_off", "time": 96, "note": 62, "velocity": 122, "channel": 0}, {"type": "note_on", "time": 15, "note": 63, "velocity": 121, "channel": 0}, {"type": "note_off", "time": 53, "note": 63, "velocity": 121, "channel": 0}, {"type": "note_on", "time": 12, "note": 62, "velocity": 118, "channel": 0}, {"type": "note_off", "time": 106, "note": 62, "velocity": 118, "channel": 0}, {"type": "note_on", "time": 29, "note": 60, "velocity": 109, "channel": 0}, {"type": "note_off", "time": 67, "note": 60, "velocity": 109, "channel": 0}, {"type": "note_on", "time": 10, "note": 59, "velocity": 100, "channel": 0}, {"type": "note_off", "time": 90, "note": 59, "velocity": 100, "channel": 0}, {"type": "note_on", "time": 20, "note": 62, "velocity": 109, "channel": 0}, {"type": "note_off", "time": 90, "note": 62, "velocity": 109, "channel": 0}, {"type": "note_on", "time": 6, "note": 65, "velocity": 116, "channel": 0}, {"type": "note_off", "time": 92, "note": 65, "velocity": 116, "channel": 0}, {"type": "note_on", "time": 0, "note": 68, "velocity": 115, "channel": 0}, {"type": "note_off", "time": 86, "note": 68, "velocity": 115, "channel": 0}, {"type": "note_on", "time": 2, "note": 67, "velocity": 113, "channel": 0}, {"type": "note_off", "time": 67, "note": 67, "velocity": 113, "channel": 0}, {"type": "note_on", "time": 43, "note": 65, "velocity": 117, "channel": 0}, {"type": "note_off", "time": 82, "note": 65, "velocity": 117, "channel": 0}, {"type": "note_on", "time": 17, "note": 60, "velocity": 113, "channel": 0}, {"type": "note_off", "time": 69, "note": 60, "velocity": 113, "channel": 0}, {"type": "note_on", "time": 40, "note": 55, "velocity": 103, "channel": 0}, {"type": "note_off", "time": 80, "note": 55, "velocity": 103, "channel": 0}, {"type": "note_on", "time": 108, "note": 59, "velocity": 96, "channel": 0}, {"type": "note_off", "time": 61, "note": 59, "velocity": 96, "channel": 0}, {"type": "note_on", "time": 2, "note": 62, "velocity": 120, "channel": 0}, {"type": "note_off", "time": 110, "note": 62, "velocity": 120, "channel": 0}, {"type": "note_on", "time": 17, "note": 60, "velocity": 95, "channel": 0}, {"type": "note_off", "time": 67, "note": 60, "velocity": 95, "channel": 0}, {"type": "note_on", "time": 5, "note": 67, "velocity": 105, "channel": 0}, {"type": "note_off", "time": 69, "note": 67, "velocity": 105, "channel": 0}, {"type": "note_on", "time": 55, "note": 60, "velocity": 99, "channel": 0}, {"type": "note_off", "time": 67, "note": 60, "velocity": 99, "channel": 0}, {"type": "note_on", "time": 14, "note": 63, "velocity": 118, "channel": 0}, {"type": "note_off", "time": 94, "note": 63, "velocity": 118, "channel": 0}, {"type": "note_on", "time": 8, "note": 67, "velocity": 114, "channel": 0}, {"type": "note_off", "time": 219, "note": 67, "velocity": 114, "channel": 0}, {"type": "note_on", "time": 47, "note": 65, "velocity": 121, "channel": 0}, {"type": "note_off", "time": 106, "note": 65, "velocity": 121, "channel": 0}, {"type": "note_on", "time": 5, "note": 67, "velocity": 118, "channel": 0}, {"type": "note_off", "time": 66, "note": 67, "velocity": 118, "channel": 0}, {"type": "note_on", "time": 10, "note": 68, "velocity": 115, "channel": 0}, {"type": "note_off", "time": 90, "note": 68, "velocity": 115, "channel": 0}, {"type": "note_on", "time": 25, "note": 72, "velocity": 117, "channel": 0}, {"type": "note_off", "time": 88, "note": 72, "velocity": 117, "channel": 0}, {"type": "note_on", "time": 188, "note": 66, "velocity": 120, "channel": 0}, {"type": "note_off", "time": 91, "note": 66, "velocity": 120, "channel": 0}, {"type": "note_on", "time": 7, "note": 67, "velocity": 116, "channel": 0}, {"type": "note_off", "time": 28, "note": 67, "velocity": 116, "channel": 0}, {"type": "note_on", "time": 8, "note": 69, "velocity": 116, "channel": 0}, {"type": "note_off", "time": 27, "note": 69, "velocity": 116, "channel": 0}, {"type": "note_on", "time": 2, "note": 71, "velocity": 110, "channel": 0}, {"type": "note_off", "time": 26, "note": 71, "velocity": 110, "channel": 0}, {"type": "note_on", "time": 5, "note": 74, "velocity": 112, "channel": 0}, {"type": "note_off", "time": 207, "note": 74, "velocity": 112, "channel": 0}, {"type": "note_on", "time": 26, "note": 71, "velocity": 118, "channel": 0}, {"type": "note_off", "time": 98, "note": 71, "velocity": 118, "channel": 0}, {"type": "note_on", "time": 39, "note": 72, "velocity": 117, "channel": 0}, {"type": "note_off", "time": 92, "note": 72, "velocity": 117, "channel": 0}, {"type": "note_on", "time": 38, "note": 67, "velocity": 115, "channel": 0}, {"type": "note_off", "time": 202, "note": 67, "velocity": 115, "channel": 0}, {"type": "note_on", "time": 781, "note": 60, "velocity": 118, "channel": 0}, {"type": "note_off", "time": 112, "note": 60, "velocity": 118, "channel": 0}, {"type": "note_on", "time": 0, "note": 61, "velocity": 119, "channel": 0}, {"type": "note_off", "time": 84, "note": 61, "velocity": 119, "channel": 0}, {"type": "note_on", "time": 10, "note": 64, "velocity": 121, "channel": 0}, {"type": "note_off", "time": 86, "note": 64, "velocity": 121, "channel": 0}, {"type": "note_on", "time": 20, "note": 68, "velocity": 113, "channel": 0}, {"type": "note_off", "time": 78, "note": 68, "velocity": 113, "channel": 0}, {"type": "note_on", "time": 24, "note": 70, "velocity": 117, "channel": 0}, {"type": "note_off", "time": 69, "note": 70, "velocity": 117, "channel": 0}, {"type": "note_on", "time": 104, "note": 75, "velocity": 122, "channel": 0}, {"type": "note_off", "time": 121, "note": 75, "velocity": 122, "channel": 0}, {"type": "note_on", "time": 20, "note": 73, "velocity": 114, "channel": 0}, {"type": "note_off", "time": 94, "note": 73, "velocity": 114, "channel": 0}, {"type": "note_on", "time": 9, "note": 72, "velocity": 113, "channel": 0}, {"type": "note_off", "time": 470, "note": 72, "velocity": 113, "channel": 0}, {"type": "note_on", "time": 24, "note": 70, "velocity": 119, "channel": 0}, {"type": "note_off", "time": 92, "note": 70, "velocity": 119, "channel": 0}, {"type": "note_on", "time": 24, "note": 67, "velocity": 111, "channel": 0}, {"type": "note_off", "time": 78, "note": 67, "velocity": 111, "channel": 0}, {"type": "note_on", "time": 7, "note": 68, "velocity": 115, "channel": 0}, {"type": "note_off", "time": 76, "note": 68, "velocity": 115, "channel": 0}, {"type": "note_on", "time": 25, "note": 60, "velocity": 99, "channel": 0}, {"type": "note_off", "time": 98, "note": 60, "velocity": 99, "channel": 0}, {"type": "note_on", "time": 34, "note": 62, "velocity": 105, "channel": 0}, {"type": "note_off", "time": 80, "note": 62, "velocity": 105, "channel": 0}, {"type": "note_on", "time": 4, "note": 64, "velocity": 106, "channel": 0}, {"type": "note_off", "time": 57, "note": 64, "velocity": 106, "channel": 0}, {"type": "note_on", "time": 20, "note": 67, "velocity": 115, "channel": 0}, {"type": "note_off", "time": 88, "note": 67, "velocity": 115, "channel": 0}, {"type": "note_on", "time": 18, "note": 65, "velocity": 113, "channel": 0}, {"type": "note_off", "time": 61, "note": 65, "velocity": 113, "channel": 0}, {"type": "note_on", "time": 28, "note": 64, "velocity": 110, "channel": 0}, {"type": "note_off", "time": 94, "note": 64, "velocity": 110, "channel": 0}, {"type": "note_on", "time": 7, "note": 65, "velocity": 116, "channel": 0}, {"type": "note_off", "time": 61, "note": 65, "velocity": 116, "channel": 0}, {"type": "note_on", "time": 4, "note": 68, "velocity": 118, "channel": 0}, {"type": "note_off", "time": 98, "note": 68, "velocity": 118, "channel": 0}, {"type": "note_on", "time": 31, "note": 72, "velocity": 118, "channel": 0}, {"type": "note_off", "time": 88, "note": 72, "velocity": 118, "channel": 0}, {"type": "note_on", "time": 5, "note": 70, "velocity": 111, "channel": 0}, {"type": "note_off", "time": 55, "note": 70, "velocity": 111, "channel": 0}, {"type": "note_on", "time": 445, "note": 62, "velocity": 124, "channel": 0}, {"type": "note_off", "time": 108, "note": 62, "velocity": 124, "channel": 0}, {"type": "note_on", "time": 0, "note": 65, "velocity": 107, "channel": 0}, {"type": "note_off", "time": 94, "note": 65, "velocity": 107, "channel": 0}, {"type": "note_on", "time": 6, "note": 69, "velocity": 112, "channel": 0}, {"type": "note_off", "time": 102, "note": 69, "velocity": 112, "channel": 0}, {"type": "note_on", "time": 10, "note": 72, "velocity": 112, "channel": 0}, {"type": "note_off", "time": 78, "note": 72, "velocity": 112, "channel": 0}, {"type": "note_on", "time": 16, "note": 72, "velocity": 112, "channel": 0}, {"type": "note_off", "time": 86, "note": 72, "velocity": 112, "channel": 0}, {"type": "note_on", "time": 100, "note": 76, "velocity": 124, "channel": 0}, {"type": "note_off", "time": 104, "note": 76, "velocity": 124, "channel": 0}, {"type": "note_on", "time": 106, "note": 79, "velocity": 121, "channel": 0}, {"type": "note_off", "time": 231, "note": 79, "velocity": 121, "channel": 0}, {"type": "note_on", "time": 16, "note": 76, "velocity": 125, "channel": 0}, {"type": "note_off", "time": 272, "note": 76, "velocity": 125, "channel": 0}, {"type": "note_on", "time": 285, "note": 76, "velocity": 117, "channel": 0}, {"type": "note_off", "time": 41, "note": 76, "velocity": 117, "channel": 0}, {"type": "note_on", "time": 8, "note": 77, "velocity": 114, "channel": 0}, {"type": "note_off", "time": 526, "note": 77, "velocity": 114, "channel": 0}, {"type": "note_on", "time": 78, "note": 74, "velocity": 116, "channel": 0}, {"type": "note_off", "time": 112, "note": 74, "velocity": 116, "channel": 0}, {"type": "note_on", "time": 52, "note": 74, "velocity": 120, "channel": 0}, {"type": "note_off", "time": 110, "note": 74, "velocity": 120, "channel": 0}, {"type": "note_on", "time": 41, "note": 70, "velocity": 116, "channel": 0}, {"type": "note_off", "time": 125, "note": 70, "velocity": 116, "channel": 0}, {"type": "note_on", "time": 22, "note": 70, "velocity": 115, "channel": 0}, {"type": "note_off", "time": 90, "note": 70, "velocity": 115, "channel": 0}, {"type": "note_on", "time": 56, "note": 68, "velocity": 112, "channel": 0}, {"type": "note_off", "time": 97, "note": 68, "velocity": 112, "channel": 0}, {"type": "note_on", "time": 5, "note": 67, "velocity": 117, "channel": 0}, {"type": "note_off", "time": 30, "note": 67, "velocity": 117, "channel": 0}, {"type": "note_on", "time": 2, "note": 67, "velocity": 110, "channel": 0}, {"type": "note_off", "time": 239, "note": 67, "velocity": 110, "channel": 0}, {"type": "note_on", "time": 482, "note": 68, "velocity": 118, "channel": 0}, {"type": "note_off", "time": 105, "note": 68, "velocity": 118, "channel": 0}, {"type": "note_on", "time": 3, "note": 67, "velocity": 112, "channel": 0}, {"type": "note_off", "time": 227, "note": 67, "velocity": 112, "channel": 0}, {"type": "note_on", "time": 13, "note": 68, "velocity": 119, "channel": 0}, {"type": "note_off", "time": 78, "note": 68, "velocity": 119, "channel": 0}, {"type": "note_on", "time": 7, "note": 67, "velocity": 115, "channel": 0}, {"type": "note_off", "time": 221, "note": 67, "velocity": 115, "channel": 0}, {"type": "note_on", "time": 46, "note": 68, "velocity": 119, "channel": 0}, {"type": "note_off", "time": 83, "note": 68, "velocity": 119, "channel": 0}, {"type": "note_on", "time": 10, "note": 67, "velocity": 114, "channel": 0}, {"type": "note_off", "time": 219, "note": 67, "velocity": 114, "channel": 0}, {"type": "note_on", "time": 60, "note": 63, "velocity": 120, "channel": 0}, {"type": "note_off", "time": 114, "note": 63, "velocity": 120, "channel": 0}, {"type": "note_on", "time": 12, "note": 62, "velocity": 120, "channel": 0}, {"type": "note_off", "time": 221, "note": 62, "velocity": 120, "channel": 0}, {"type": "note_on", "time": 16, "note": 56, "velocity": 109, "channel": 0}, {"type": "note_off", "time": 108, "note": 56, "velocity": 109, "channel": 0}, {"type": "note_on", "time": 20, "note": 55, "velocity": 113, "channel": 0}, {"type": "note_off", "time": 256, "note": 55, "velocity": 113, "channel": 0}, {"type": "note_on", "time": 110, "note": 62, "velocity": 121, "channel": 0}, {"type": "note_off", "time": 102, "note": 62, "velocity": 121, "channel": 0}, {"type": "note_on", "time": 4, "note": 63, "velocity": 124, "channel": 0}, {"type": "note_off", "time": 88, "note": 63, "velocity": 124, "channel": 0}, {"type": "note_on", "time": 18, "note": 62, "velocity": 120, "channel": 0}, {"type": "note_off", "time": 98, "note": 62, "velocity": 120, "channel": 0}, {"type": "note_on", "time": 28, "note": 60, "velocity": 109, "channel": 0}, {"type": "note_off", "time": 69, "note": 60, "velocity": 109, "channel": 0}, {"type": "note_on", "time": 6, "note": 55, "velocity": 104, "channel": 0}, {"type": "note_off", "time": 102, "note": 55, "velocity": 104, "channel": 0}, {"type": "note_on", "time": 63, "note": 55, "velocity": 103, "channel": 0}, {"type": "note_off", "time": 502, "note": 55, "velocity": 103, "channel": 0}, {"type": "end_of_track", "time": 0}]]}