{"ticks_per_beat": 192, "tracks": [[{"type": "track_name", "name": "Melody", "time": 0}, {"type": "set_tempo", "tempo": 242914, "time": 0}, {"type": "key_signature", "key": "C", "time": 0}, {"type": "time_signature", "numerator": 4, "denominator": 4, "clocks_per_click": 24, "notated_32nd_notes_per_beat": 8, "time": 0}, {"type": "note_on", "time": 3416, "note": 59, "velocity": 117, "channel": 0}, {"type": "note_off", "time": 75, "note": 59, "velocity": 117, "channel": 0}, {"type": "note_on", "time": 8, "note": 60, "velocity": 117, "channel": 0}, {"type": "note_off", "time": 91, "note": 60, "velocity": 117, "channel": 0}, {"type": "note_on", "time": 27, "note": 60, "velocity": 118, "channel": 0}, {"type": "note_off", "time": 79, "note": 60, "velocity": 118, "channel": 0}, {"type": "note_on", "time": 11, "note": 60, "velocity": 114, "channel": 0}, {"type": "note_off", "time": 66, "note": 60, "velocity": 114, "channel": 0}, {"type": "note_on", "time": 20, "note": 60, "velocity": 117, "channel": 0}, {"type": "note_off", "time": 91, "note": 60, "velocity": 117, "channel": 0}, {"type": "note_on", "time": 11, "note": 60, "velocity": 113, "channel": 0}, {"type": "note_off", "time": 67, "note": 60, "velocity": 113, "channel": 0}, {"type": "note_on", "time": 16, "note": 60, "velocity": 116, "channel": 0}, {"type": "note_off", "time": 95, "note": 60, "velocity": 116, "channel": 0}, {"type": "note_on", "time": 22, "note": 60, "velocity": 116, "channel": 0}, {"type": "note_off", "time": 70, "note": 60, "velocity": 116, "channel": 0}, {"type": "note_on", "time": 12, "note": 60, "velocity": 113, "channel": 0}, {"type": "note_off", "time": 90, "note": 60, "velocity": 113, "channel": 0}, {"type": "note_on", "time": 25, "note": 61, "velocity": 106, "channel": 0}, {"type": "note_off", "time": 79, "note": 61, "velocity": 106, "channel": 0}, {"type": "note_on", "time": 11, "note": 64, "velocity": 111, "channel": 0}, {"type": "note_off", "time": 156, "note": 64, "velocity": 111, "channel": 0}, {"type": "note_on", "time": 196, "note": 60, "velocity": 113, "channel": 0}, {"type": "note_off", "time": 69, "note": 60, "velocity": 113, "channel": 0}, {"type": "note_on", "time": 12, "note": 60, "velocity": 107, "channel": 0}, {"type": "note_off", "time": 77, "note": 60, "velocity": 107, "channel": 0}, {"type": "note_on", "time": 16, "note": 60, "velocity": 110, "channel": 0}, {"type": "note_off", "time": 108, "note": 60, "velocity": 110, "channel": 0}, {"type": "note_on", "time": 14, "note": 61, "velocity": 97, "channel": 0}, {"type": "note_off", "time": 41, "note": 61, "velocity": 97, "channel": 0}, {"type": "note_on", "time": 27, "note": 63, "velocity": 111, "channel": 0}, {"type": "note_off", "time": 145, "note": 63, "velocity": 111, "channel": 0}, {"type": "note_on", "time": 59, "note": 59, "velocity": 97, "channel": 0}, {"type": "note_off", "time": 64, "note": 59, "velocity": 97, "channel": 0}, {"type": "note_on", "time": 39, "note": 60, "velocity": 109, "channel": 0}, {"type": "note_off", "time": 246, "note": 60, "velocity": 109, "channel": 0}, {"type": "note_on", "time": 19, "note": 61, "velocity": 105, "channel": 0}, {"type": "note_off", "time": 153, "note": 61, "velocity": 105, "channel": 0}, {"type": "note_on", "time": 36, "note": 64, "velocity": 102, "channel": 0}, {"type": "note_off", "time": 170, "note": 64, "velocity": 102, "channel": 0}, {"type": "note_on", "time": 29, "note": 67, "velocity": 113, "channel": 0}, {"type": "note_off", "time": 196, "note": 67, "velocity": 113, "channel": 0}, {"type": "note_on", "time": 9, "note": 67, "velocity": 118, "channel": 0}, {"type": "note_off", "time": 125, "note": 67, "velocity": 118, "channel": 0}, {"type": "note_on", "time": 41, "note": 64, "velocity": 101, "channel": 0}, {"type": "note_off", "time": 112, "note": 64, "velocity": 101, "channel": 0}, {"type": "note_on", "time": 88, "note": 60, "velocity": 111, "channel": 0}, {"type": "note_off", "time": 93, "note": 60, "velocity": 111, "channel": 0}, {"type": "note_on", "time": 56, "note": 58, "velocity": 104, "channel": 0}, {"type": "note_off", "time": 98, "note": 58, "velocity": 104, "channel": 0}, {"type": "note_on", "time": 62, "note": 60, "velocity": 94, "channel": 0}, {"type": "note_off", "time": 404, "note": 60, "velocity": 94, "channel": 0}, {"type": "note_on", "time": 325, "note": 61, "velocity": 107, "channel": 0}, {"type": "note_off", "time": 41, "note": 61, "velocity": 107, "channel": 0}, {"type": "note_on", "time": 32, "note": 63, "velocity": 109, "channel": 0}, {"type": "note_off", "time": 91, "note": 63, "velocity": 109, "channel": 0}, {"type": "note_on", "time": 8, "note": 64, "velocity": 113, "channel": 0}, {"type": "note_off", "time": 145, "note": 64, "velocity": 113, "channel": 0}, {"type": "note_on", "time": 88, "note": 69, "velocity": 111, "channel": 0}, {"type": "note_off", "time": 140, "note": 69, "velocity": 111, "channel": 0}, {"type": "note_on", "time": 37, "note": 67, "velocity": 123, "channel": 0}, {"type": "note_off", "time": 108, "note": 67, "velocity": 123, "channel": 0}, {"type": "note_on", "time": 62, "note": 64, "velocity": 110, "channel": 0}, {"type": "note_off", "time": 83, "note": 64, "velocity": 110, "channel": 0}, {"type": "note_on", "time": 14, "note": 60, "velocity": 105, "channel": 0}, {"type": "note_off", "time": 122, "note": 60, "velocity": 105, "channel": 0}, {"type": "note_on", "time": 74, "note": 58, "velocity": 106, "channel": 0}, {"type": "note_off", "time": 83, "note": 58, "velocity": 106, "channel": 0}, {"type": "note_on", "time": 75, "note": 61, "velocity": 109, "channel": 0}, {"type": "note_off", "time": 96, "note": 61, "velocity": 109, "channel": 0}, {"type": "note_on", "time": 20, "note": 63, "velocity": 111, "channel": 0}, {"type": "note_off", "time": 132, "note": 63, "velocity": 111, "channel": 0}, {"type": "note_on", "time": 12, "note": 64, "velocity": 110, "channel": 0}, {"type": "note_off", "time": 185, "note": 64, "velocity": 110, "channel": 0}, {"type": "note_on", "time": 20, "note": 63, "velocity": 99, "channel": 0}, {"type": "note_off", "time": 112, "note": 63, "velocity": 99, "channel": 0}, {"type": "note_on", "time": 8, "note": 60, "velocity": 106, "channel": 0}, {"type": "note_off", "time": 112, "note": 60, "velocity": 106, "channel": 0}, {"type": "note_on", "time": 45, "note": 60, "velocity": 91, "channel": 0}, {"type": "note_off", "time": 377, "note": 60, "velocity": 91, "channel": 0}, {"type": "note_on", "time": 574, "note": 57, "velocity": 103, "channel": 0}, {"type": "note_off", "time": 50, "note": 57, "velocity": 103, "channel": 0}, {"type": "note_on", "time": 17, "note": 61, "velocity": 104, "channel": 0}, {"type": "note_off", "time": 48, "note": 61, "velocity": 104, "channel": 0}, {"type": "note_on", "time": 14, "note": 66, "velocity": 111, "channel": 0}, {"type": "note_off", "time": 43, "note": 66, "velocity": 111, "channel": 0}, {"type": "note_on", "time": 6, "note": 69, "velocity": 116, "channel": 0}, {"type": "note_off", "time": 25, "note": 69, "velocity": 116, "channel": 0}, {"type": "note_on", "time": 9, "note": 70, "velocity": 120, "channel": 0}, {"type": "note_off", "time": 248, "note": 70, "velocity": 120, "channel": 0}, {"type": "note_on", "time": 120, "note": 72, "velocity": 118, "channel": 0}, {"type": "note_off", "time": 106, "note": 72, "velocity": 118, "channel": 0}, {"type": "note_on", "time": 11, "note": 71, "velocity": 118, "channel": 0}, {"type": "note_off", "time": 96, "note": 71, "velocity": 118, "channel": 0}, {"type": "note_on", "time": 6, "note": 69, "velocity": 110, "channel": 0}, {"type": "note_off", "time": 33, "note": 69, "velocity": 110, "channel": 0}, {"type": "note_on", "time": 12, "note": 66, "velocity": 99, "channel": 0}, {"type": "note_off", "time": 41, "note": 66, "velocity": 99, "channel": 0}, {"type": "note_on", "time": 9, "note": 63, "velocity": 101, "channel": 0}, {"type": "note_off", "time": 43, "note": 63, "velocity": 101, "channel": 0}, {"type": "note_on", "time": 6, "note": 57, "velocity": 100, "channel": 0}, {"type": "note_off", "time": 20, "note": 57, "velocity": 100, "channel": 0}, {"type": "note_on", "time": 12, "note": 58, "velocity": 109, "channel": 0}, {"type": "note_off", "time": 254, "note": 58, "velocity": 109, "channel": 0}, {"type": "note_on", "time": 6, "note": 57, "velocity": 91, "channel": 0}, {"type": "note_off", "time": 24, "note": 57, "velocity": 91, "channel": 0}, {"type": "note_on", "time": 19, "note": 55, "velocity": 105, "channel": 0}, {"type": "note_off", "time": 125, "note": 55, "velocity": 105, "channel": 0}, {"type": "note_on", "time": 37, "note": 57, "velocity": 101, "channel": 0}, {"type": "note_off", "time": 167, "note": 57, "velocity": 101, "channel": 0}, {"type": "note_on", "time": 30, "note": 57, "velocity": 91, "channel": 0}, {"type": "note_off", "time": 64, "note": 57, "velocity": 91, "channel": 0}, {"type": "note_on", "time": 27, "note": 60, "velocity": 108, "channel": 0}, {"type": "note_off", "time": 93, "note": 60, "velocity": 108, "channel": 0}, {"type": "note_on", "time": 83, "note": 58, "velocity": 104, "channel": 0}, {"type": "note_off", "time": 137, "note": 58, "velocity": 104, "channel": 0}, {"type": "note_on", "time": 33, "note": 55, "velocity": 108, "channel": 0}, {"type": "note_off", "time": 120, "note": 55, "velocity": 108, "channel": 0}, {"type": "note_on", "time": 4, "note": 56, "velocity": 99, "channel": 0}, {"type": "note_off", "time": 156, "note": 56, "velocity": 99, "channel": 0}, {"type": "note_on", "time": 53, "note": 60, "velocity": 111, "channel": 0}, {"type": "note_off", "time": 112, "note": 60, "velocity": 111, "channel": 0}, {"type": "note_on", "time": 64, "note": 60, "velocity": 92, "channel": 0}, {"type": "note_off", "time": 596, "note": 60, "velocity": 92, "channel": 0}, {"type": "note_on", "time": 45, "note": 60, "velocity": 100, "channel": 0}, {"type": "note_off", "time": 151, "note": 60, "velocity": 100, "channel": 0}, {"type": "note_on", "time": 37, "note": 57, "velocity": 98, "channel": 0}, {"type": "note_off", "time": 70, "note": 57, "velocity": 98, "channel": 0}, {"type": "note_on", "time": 32, "note": 64, "velocity": 105, "channel": 0}, {"type": "note_off", "time": 50, "note": 64, "velocity": 105, "channel": 0}, {"type": "note_on", "time": 17, "note": 65, "velocity": 108, "channel": 0}, {"type": "note_off", "time": 114, "note": 65, "velocity": 108, "channel": 0}, {"type": "note_on", "time": 11, "note": 67, "velocity": 119, "channel": 0}, {"type": "note_off", "time": 156, "note": 67, "velocity": 119, "channel": 0}, {"type": "note_on", "time": 22, "note": 64, "velocity": 108, "channel": 0}, {"type": "note_off", "time": 83, "note": 64, "velocity": 108, "channel": 0}, {"type": "note_on", "time": 4, "note": 63, "velocity": 99, "channel": 0}, {"type": "note_off", "time": 43, "note": 63, "velocity": 99, "channel": 0}, {"type": "note_on", "time": 69, "note": 60, "velocity": 100, "channel": 0}, {"type": "note_off", "time": 133, "note": 60, "velocity": 100, "channel": 0}, {"type": "note_on", "time": 64, "note": 60, "velocity": 103, "channel": 0}, {"type": "note_off", "time": 175, "note": 60, "velocity": 103, "channel": 0}, {"type": "note_on", "time": 37, "note": 57, "velocity": 98, "channel": 0}, {"type": "note_off", "time": 33, "note": 57, "velocity": 98, "channel": 0}, {"type": "note_on", "time": 22, "note": 55, "velocity": 106, "channel": 0}, {"type": "note_off", "time": 104, "note": 55, "velocity": 106, "channel": 0}, {"type": "note_on", "time": 20, "note": 60, "velocity": 109, "channel": 0}, {"type": "note_off", "time": 137, "note": 60, "velocity": 109, "channel": 0}, {"type": "note_on", "time": 682, "note": 60, "velocity": 115, "channel": 0}, {"type": "note_off", "time": 167, "note": 60, "velocity": 115, "channel": 0}, {"type": "note_on", "time": 24, "note": 66, "velocity": 112, "channel": 0}, {"type": "note_off", "time": 79, "note": 66, "velocity": 112, "channel": 0}, {"type": "note_on", "time": 16, "note": 67, "velocity": 126, "channel": 0}, {"type": "note_off", "time": 129, "note": 67, "velocity": 126, "channel": 0}, {"type": "note_on", "time": 82, "note": 65, "velocity": 107, "channel": 0}, {"type": "note_off", "time": 93, "note": 65, "velocity": 107, "channel": 0}, {"type": "note_on", "time": 61, "note": 60, "velocity": 108, "channel": 0}, {"type": "note_off", "time": 98, "note": 60, "velocity": 108, "channel": 0}, {"type": "note_on", "time": 90, "note": 56, "velocity": 107, "channel": 0}, {"type": "note_off", "time": 119, "note": 56, "velocity": 107, "channel": 0}, {"type": "note_on", "time": 40, "note": 53, "velocity": 107, "channel": 0}, {"type": "note_off", "time": 129, "note": 53, "velocity": 107, "channel": 0}, {"type": "note_on", "time": 45, "note": 53, "velocity": 100, "channel": 0}, {"type": "note_off", "time": 364, "note": 53, "velocity": 100, "channel": 0}, {"type": "note_on", "time": 12, "note": 57, "velocity": 107, "channel": 0}, {"type": "note_off", "time": 117, "note": 57, "velocity": 107, "channel": 0}, {"type": "note_on", "time": 16, "note": 57, "velocity": 103, "channel": 0}, {"type": "note_off", "time": 111, "note": 57, "velocity": 103, "channel": 0}, {"type": "note_on", "time": 61, "note": 61, "velocity": 108, "channel": 0}, {"type": "note_off", "time": 119, "note": 61, "velocity": 108, "channel": 0}, {"type": "note_on", "time": 53, "note": 63, "velocity": 104, "channel": 0}, {"type": "note_off", "time": 111, "note": 63, "velocity": 104, "channel": 0}, {"type": "note_on", "time": 50, "note": 66, "velocity": 105, "channel": 0}, {"type": "note_off", "time": 64, "note": 66, "velocity": 105, "channel": 0}, {"type": "note_on", "time": 12, "note": 65, "velocity": 97, "channel": 0}, {"type": "note_off", "time": 29, "note": 65, "velocity": 97, "channel": 0}, {"type": "note_on", "time": 38, "note": 63, "velocity": 100, "channel": 0}, {"type": "note_off", "time": 116, "note": 63, "velocity": 100, "channel": 0}, {"type": "note_on", "time": 48, "note": 60, "velocity": 103, "channel": 0}, {"type": "note_off", "time": 108, "note": 60, "velocity": 103, "channel": 0}, {"type": "note_on", "time": 61, "note": 60, "velocity": 93, "channel": 0}, {"type": "note_off", "time": 387, "note": 60, "velocity": 93, "channel": 0}, {"type": "note_on", "time": 374, "note": 57, "velocity": 100, "channel": 0}, {"type": "note_off", "time": 35, "note": 57, "velocity": 100, "channel": 0}, {"type": "note_on", "time": 6, "note": 58, "velocity": 115, "channel": 0}, {"type": "note_off", "time": 188, "note": 58, "velocity": 115, "channel": 0}, {"type": "note_on", "time": 54, "note": 60, "velocity": 115, "channel": 0}, {"type": "note_off", "time": 175, "note": 60, "velocity": 115, "channel": 0}, {"type": "note_on", "time": 62, "note": 58, "velocity": 116, "channel": 0}, {"type": "note_off", "time": 119, "note": 58, "velocity": 116, "channel": 0}, {"type": "note_on", "time": 72, "note": 58, "velocity": 99, "channel": 0}, {"type": "note_off", "time": 454, "note": 58, "velocity": 99, "channel": 0}, {"type": "note_on", "time": 398, "note": 56, "velocity": 115, "channel": 0}, {"type": "note_off", "time": 74, "note": 56, "velocity": 115, "channel": 0}, {"type": "note_on", "time": 38, "note": 56, "velocity": 113, "channel": 0}, {"type": "note_off", "time": 133, "note": 56, "velocity": 113, "channel": 0}, {"type": "note_on", "time": 22, "note": 51, "velocity": 103, "channel": 0}, {"type": "note_off", "time": 56, "note": 51, "velocity": 103, "channel": 0}, {"type": "note_on", "time": 30, "note": 57, "velocity": 109, "channel": 0}, {"type": "note_off", "time": 248, "note": 57, "velocity": 109, "channel": 0}, {"type": "note_on", "time": 27, "note": 56, "velocity": 109, "channel": 0}, {"type": "note_off", "time": 220, "note": 56, "velocity": 109, "channel": 0}, {"type": "note_on", "time": 38, "note": 63, "velocity": 112, "channel": 0}, {"type": "note_off", "time": 70, "note": 63, "velocity": 112, "channel": 0}, {"type": "note_on", "time": 16, "note": 64, "velocity": 118, "channel": 0}, {"type": "note_off", "time": 69, "note": 64, "velocity": 118, "channel": 0}, {"type": "note_on", "time": 14, "note": 65, "velocity": 104, "channel": 0}, {"type": "note_off", "time": 425, "note": 65, "velocity": 104, "channel": 0}, {"type": "note_on", "time": 58, "note": 64, "velocity": 109, "channel": 0}, {"type": "note_off", "time": 183, "note": 64, "velocity": 109, "channel": 0}, {"type": "note_on", "time": 67, "note": 60, "velocity": 110, "channel": 0}, {"type": "note_off", "time": 151, "note": 60, "velocity": 110, "channel": 0}, {"type": "note_on", "time": 35, "note": 55, "velocity": 98, "channel": 0}, {"type": "note_off", "time": 348, "note": 55, "velocity": 98, "channel": 0}, {"type": "note_on", "time": 320, "note": 60, "velocity": 111, "channel": 0}, {"type": "note_off", "time": 124, "note": 60, "velocity": 111, "channel": 0}, {"type": "note_on", "time": 61, "note": 60, "velocity": 106, "channel": 0}, {"type": "note_off", "time": 135, "note": 60, "velocity": 106, "channel": 0}, {"type": "note_on", "time": 70, "note": 67, "velocity": 112, "channel": 0}, {"type": "note_off", "time": 354, "note": 67, "velocity": 112, "channel": 0}, {"type": "note_on", "time": 25, "note": 64, "velocity": 100, "channel": 0}, {"type": "note_off", "time": 14, "note": 64, "velocity": 100, "channel": 0}, {"type": "note_on", "time": 4, "note": 65, "velocity": 110, "channel": 0}, {"type": "note_off", "time": 88, "note": 65, "velocity": 110, "channel": 0}, {"type": "note_on", "time": 24, "note": 65, "velocity": 110, "channel": 0}, {"type": "note_off", "time": 109, "note": 65, "velocity": 110, "channel": 0}, {"type": "note_on", "time": 29, "note": 65, "velocity": 111, "channel": 0}, {"type": "note_off", "time": 91, "note": 65, "velocity": 111, "channel": 0}, {"type": "note_on", "time": 19, "note": 64, "velocity": 105, "channel": 0}, {"type": "note_off", "time": 164, "note": 64, "velocity": 105, "channel": 0}, {"type": "note_on", "time": 40, "note": 62, "velocity": 106, "channel": 0}, {"type": "note_off", "time": 85, "note": 62, "velocity": 106, "channel": 0}, {"type": "note_on", "time": 30, "note": 60, "velocity": 94, "channel": 0}, {"type": "note_off", "time": 330, "note": 60, "velocity": 94, "channel": 0}, {"type": "note_on", "time": 359, "note": 60, "velocity": 107, "channel": 0}, {"type": "note_off", "time": 90, "note": 60, "velocity": 107, "channel": 0}, {"type": "note_on", "time": 19, "note": 63, "velocity": 113, "channel": 0}, {"type": "note_off", "time": 151, "note": 63, "velocity": 113, "channel": 0}, {"type": "note_on", "time": 20, "note": 60, "velocity": 111, "channel": 0}, {"type": "note_off", "time": 125, "note": 60, "velocity": 111, "channel": 0}, {"type": "note_on", "time": 35, "note": 63, "velocity": 114, "channel": 0}, {"type": "note_off", "time": 122, "note": 63, "velocity": 114, "channel": 0}, {"type": "note_on", "time": 37, "note": 60, "velocity": 109, "channel": 0}, {"type": "note_off", "time": 130, "note": 60, "velocity": 109, "channel": 0}, {"type": "note_on", "time": 30, "note": 67, "velocity": 127, "channel": 0}, {"type": "note_off", "time": 116, "note": 67, "velocity": 127, "channel": 0}, {"type": "note_on", "time": 8, "note": 68, "velocity": 93, "channel": 0}, {"type": "note_off", "time": 88, "note": 68, "velocity": 93, "channel": 0}, {"type": "note_on", "time": 27, "note": 65, "velocity": 111, "channel": 0}, {"type": "note_off", "time": 70, "note": 65, "velocity": 111, "channel": 0}, {"type": "note_on", "time": 69, "note": 64, "velocity": 104, "channel": 0}, {"type": "note_off", "time": 100, "note": 64, "velocity": 104, "channel": 0}, {"type": "note_on", "time": 11, "note": 63, "velocity": 103, "channel": 0}, {"type": "note_off", "time": 111, "note": 63, "velocity": 103, "channel": 0}, {"type": "note_on", "time": 14, "note": 60, "velocity": 107, "channel": 0}, {"type": "note_off", "time": 151, "note": 60, "velocity": 107, "channel": 0}, {"type": "note_on", "time": 54, "note": 60, "velocity": 96, "channel": 0}, {"type": "note_off", "time": 441, "note": 60, "velocity": 96, "channel": 0}, {"type": "end_of_track", "time": 0}]]}