{"ticks_per_beat": 192, "tracks": [[{"type": "track_name", "name": "Melody", "time": 0}, {"type": "set_tempo", "tempo": 275229, "time": 0}, {"type": "key_signature", "key": "Bb", "time": 0}, {"type": "time_signature", "numerator": 4, "denominator": 4, "clocks_per_click": 24, "notated_32nd_notes_per_beat": 8, "time": 0}, {"type": "note_on", "time": 2862, "note": 67, "velocity": 113, "channel": 0}, {"type": "note_off", "time": 101, "note": 67, "velocity": 113, "channel": 0}, {"type": "note_on", "time": 83, "note": 65, "velocity": 113, "channel": 0}, {"type": "note_off", "time": 83, "note": 65, "velocity": 113, "channel": 0}, {"type": "note_on", "time": 112, "note": 65, "velocity": 108, "channel": 0}, {"type": "note_off", "time": 153, "note": 65, "velocity": 108, "channel": 0}, {"type": "note_on", "time": 138, "note": 58, "velocity": 112, "channel": 0}, {"type": "note_off", "time": 102, "note": 58, "velocity": 112, "channel": 0}, {"type": "note_on", "time": 39, "note": 62, "velocity": 104, "channel": 0}, {"type": "note_off", "time": 71, "note": 62, "velocity": 104, "channel": 0}, {"type": "note_on", "time": 2, "note": 63, "velocity": 91, "channel": 0}, {"type": "note_off", "time": 102, "note": 63, "velocity": 91, "channel": 0}, {"type": "note_on", "time": 64, "note": 65, "velocity": 112, "channel": 0}, {"type": "note_off", "time": 191, "note": 65, "velocity": 112, "channel": 0}, {"type": "note_on", "time": 219, "note": 58, "velocity": 100, "channel": 0}, {"type": "note_off", "time": 82, "note": 58, "velocity": 100, "channel": 0}, {"type": "note_on", "time": 8, "note": 60, "velocity": 91, "channel": 0}, {"type": "note_off", "time": 37, "note": 60, "velocity": 91, "channel": 0}, {"type": "note_on", "time": 12, "note": 62, "velocity": 99, "channel": 0}, {"type": "note_off", "time": 99, "note": 62, "velocity": 99, "channel": 0}, {"type": "note_on", "time": 17, "note": 67, "velocity": 117, "channel": 0}, {"type": "note_off", "time": 137, "note": 67, "velocity": 117, "channel": 0}, {"type": "note_on", "time": 63, "note": 58, "velocity": 100, "channel": 0}, {"type": "note_off", "time": 164, "note": 58, "velocity": 100, "channel": 0}, {"type": "note_on", "time": 21, "note": 61, "velocity": 99, "channel": 0}, {"type": "note_off", "time": 51, "note": 61, "velocity": 99, "channel": 0}, {"type": "note_on", "time": 14, "note": 62, "velocity": 103, "channel": 0}, {"type": "note_off", "time": 111, "note": 62, "velocity": 103, "channel": 0}, {"type": "note_on", "time": 21, "note": 65, "velocity": 107, "channel": 0}, {"type": "note_off", "time": 78, "note": 65, "velocity": 107, "channel": 0}, {"type": "note_on", "time": 130, "note": 59, "velocity": 88, "channel": 0}, {"type": "note_off", "time": 39, "note": 59, "velocity": 88, "channel": 0}, {"type": "note_on", "time": 13, "note": 65, "velocity": 109, "channel": 0}, {"type": "note_off", "time": 126, "note": 65, "velocity": 109, "channel": 0}, {"type": "note_on", "time": 62, "note": 65, "velocity": 112, "channel": 0}, {"type": "note_off", "time": 119, "note": 65, "velocity": 112, "channel": 0}, {"type": "note_on", "time": 90, "note": 65, "velocity": 108, "channel": 0}, {"type": "note_off", "time": 136, "note": 65, "velocity": 108, "channel": 0}, {"type": "note_on", "time": 53, "note": 67, "velocity": 116, "channel": 0}, {"type": "note_off", "time": 149, "note": 67, "velocity": 116, "channel": 0}, {"type": "note_on", "time": 30, "note": 67, "velocity": 120, "channel": 0}, {"type": "note_off", "time": 127, "note": 67, "velocity": 120, "channel": 0}, {"type": "note_on", "time": 94, "note": 58, "velocity": 113, "channel": 0}, {"type": "note_off", "time": 89, "note": 58, "velocity": 113, "channel": 0}, {"type": "note_on", "time": 20, "note": 61, "velocity": 109, "channel": 0}, {"type": "note_off", "time": 77, "note": 61, "velocity": 109, "channel": 0}, {"type": "note_on", "time": 13, "note": 62, "velocity": 108, "channel": 0}, {"type": "note_off", "time": 84, "note": 62, "velocity": 108, "channel": 0}, {"type": "note_on", "time": 14, "note": 65, "velocity": 106, "channel": 0}, {"type": "note_off", "time": 117, "note": 65, "velocity": 106, "channel": 0}, {"type": "note_on", "time": 68, "note": 65, "velocity": 113, "channel": 0}, {"type": "note_off", "time": 70, "note": 65, "velocity": 113, "channel": 0}, {"type": "note_on", "time": 9, "note": 64, "velocity": 107, "channel": 0}, {"type": "note_off", "time": 36, "note": 64, "velocity": 107, "channel": 0}, {"type": "note_on", "time": 86, "note": 58, "velocity": 108, "channel": 0}, {"type": "note_off", "time": 103, "note": 58, "velocity": 108, "channel": 0}, {"type": "note_on", "time": 63, "note": 61, "velocity": 103, "channel": 0}, {"type": "note_off", "time": 48, "note": 61, "velocity": 103, "channel": 0}, {"type": "note_on", "time": 8, "note": 62, "velocity": 102, "channel": 0}, {"type": "note_off", "time": 72, "note": 62, "velocity": 102, "channel": 0}, {"type": "note_on", "time": 76, "note": 58, "velocity": 108, "channel": 0}, {"type": "note_off", "time": 90, "note": 58, "velocity": 108, "channel": 0}, {"type": "note_on", "time": 86, "note": 61, "velocity": 104, "channel": 0}, {"type": "note_off", "time": 90, "note": 61, "velocity": 104, "channel": 0}, {"type": "note_on", "time": 0, "note": 62, "velocity": 101, "channel": 0}, {"type": "note_off", "time": 179, "note": 62, "velocity": 101, "channel": 0}, {"type": "note_on", "time": 8, "note": 58, "velocity": 102, "channel": 0}, {"type": "note_off", "time": 103, "note": 58, "velocity": 102, "channel": 0}, {"type": "note_on", "time": 21, "note": 56, "velocity": 105, "channel": 0}, {"type": "note_off", "time": 101, "note": 56, "velocity": 105, "channel": 0}, {"type": "note_on", "time": 12, "note": 55, "velocity": 95, "channel": 0}, {"type": "note_off", "time": 91, "note": 55, "velocity": 95, "channel": 0}, {"type": "note_on", "time": 5, "note": 53, "velocity": 98, "channel": 0}, {"type": "note_off", "time": 122, "note": 53, "velocity": 98, "channel": 0}, {"type": "note_on", "time": 59, "note": 65, "velocity": 89, "channel": 0}, {"type": "note_off", "time": 463, "note": 65, "velocity": 89, "channel": 0}, {"type": "note_on", "time": 141, "note": 67, "velocity": 127, "channel": 0}, {"type": "note_off", "time": 119, "note": 67, "velocity": 127, "channel": 0}, {"type": "note_on", "time": 988, "note": 80, "velocity": 117, "channel": 0}, {"type": "note_off", "time": 82, "note": 80, "velocity": 117, "channel": 0}, {"type": "note_on", "time": 247, "note": 44, "velocity": 90, "channel": 0}, {"type": "note_off", "time": 103, "note": 44, "velocity": 90, "channel": 0}, {"type": "note_on", "time": 64, "note": 46, "velocity": 98, "channel": 0}, {"type": "note_off", "time": 93, "note": 46, "velocity": 98, "channel": 0}, {"type": "note_on", "time": 55, "note": 53, "velocity": 96, "channel": 0}, {"type": "note_off", "time": 212, "note": 53, "velocity": 96, "channel": 0}, {"type": "note_on", "time": 666, "note": 80, "velocity": 98, "channel": 0}, {"type": "note_off", "time": 101, "note": 80, "velocity": 98, "channel": 0}, {"type": "note_on", "time": 115, "note": 43, "velocity": 98, "channel": 0}, {"type": "note_off", "time": 139, "note": 43, "velocity": 98, "channel": 0}, {"type": "note_on", "time": 73, "note": 45, "velocity": 103, "channel": 0}, {"type": "note_off", "time": 148, "note": 45, "velocity": 103, "channel": 0}, {"type": "note_on", "time": 66, "note": 53, "velocity": 85, "channel": 0}, {"type": "note_off", "time": 301, "note": 53, "velocity": 85, "channel": 0}, {"type": "note_on", "time": 591, "note": 79, "velocity": 107, "channel": 0}, {"type": "note_off", "time": 89, "note": 79, "velocity": 107, "channel": 0}, {"type": "note_on", "time": 174, "note": 46, "velocity": 99, "channel": 0}, {"type": "note_off", "time": 149, "note": 46, "velocity": 99, "channel": 0}, {"type": "note_on", "time": 57, "note": 48, "velocity": 101, "channel": 0}, {"type": "note_off", "time": 153, "note": 48, "velocity": 101, "channel": 0}, {"type": "note_on", "time": 27, "note": 53, "velocity": 102, "channel": 0}, {"type": "note_off", "time": 123, "note": 53, "velocity": 102, "channel": 0}, {"type": "note_on", "time": 8, "note": 65, "velocity": 116, "channel": 0}, {"type": "note_off", "time": 96, "note": 65, "velocity": 116, "channel": 0}, {"type": "note_on", "time": 87, "note": 61, "velocity": 98, "channel": 0}, {"type": "note_off", "time": 48, "note": 61, "velocity": 98, "channel": 0}, {"type": "note_on", "time": 4, "note": 62, "velocity": 105, "channel": 0}, {"type": "note_off", "time": 129, "note": 62, "velocity": 105, "channel": 0}, {"type": "note_on", "time": 77, "note": 58, "velocity": 107, "channel": 0}, {"type": "note_off", "time": 93, "note": 58, "velocity": 107, "channel": 0}, {"type": "note_on", "time": 95, "note": 58, "velocity": 97, "channel": 0}, {"type": "note_off", "time": 249, "note": 58, "velocity": 97, "channel": 0}, {"type": "note_on", "time": 79, "note": 65, "velocity": 116, "channel": 0}, {"type": "note_off", "time": 142, "note": 65, "velocity": 116, "channel": 0}, {"type": "note_on", "time": 689, "note": 53, "velocity": 111, "channel": 0}, {"type": "note_off", "time": 95, "note": 53, "velocity": 111, "channel": 0}, {"type": "note_on", "time": 58, "note": 64, "velocity": 117, "channel": 0}, {"type": "note_off", "time": 32, "note": 64, "velocity": 117, "channel": 0}, {"type": "note_on", "time": 4, "note": 65, "velocity": 118, "channel": 0}, {"type": "note_off", "time": 71, "note": 65, "velocity": 118, "channel": 0}, {"type": "note_on", "time": 61, "note": 62, "velocity": 110, "channel": 0}, {"type": "note_off", "time": 62, "note": 62, "velocity": 110, "channel": 0}, {"type": "note_on", "time": 17, "note": 60, "velocity": 101, "channel": 0}, {"type": "note_off", "time": 116, "note": 60, "velocity": 101, "channel": 0}, {"type": "note_on", "time": 35, "note": 58, "velocity": 111, "channel": 0}, {"type": "note_off", "time": 69, "note": 58, "velocity": 111, "channel": 0}, {"type": "note_on", "time": 91, "note": 53, "velocity": 115, "channel": 0}, {"type": "note_off", "time": 126, "note": 53, "velocity": 115, "channel": 0}, {"type": "note_on", "time": 55, "note": 64, "velocity": 114, "channel": 0}, {"type": "note_off", "time": 46, "note": 64, "velocity": 114, "channel": 0}, {"type": "note_on", "time": 5, "note": 65, "velocity": 117, "channel": 0}, {"type": "note_off", "time": 98, "note": 65, "velocity": 117, "channel": 0}, {"type": "note_on", "time": 109, "note": 62, "velocity": 105, "channel": 0}, {"type": "note_off", "time": 86, "note": 62, "velocity": 105, "channel": 0}, {"type": "note_on", "time": 12, "note": 63, "velocity": 90, "channel": 0}, {"type": "note_off", "time": 70, "note": 63, "velocity": 90, "channel": 0}, {"type": "note_on", "time": 52, "note": 55, "velocity": 101, "channel": 0}, {"type": "note_off", "time": 111, "note": 55, "velocity": 101, "channel": 0}, {"type": "note_on", "time": 238, "note": 49, "velocity": 109, "channel": 0}, {"type": "note_off", "time": 156, "note": 49, "velocity": 109, "channel": 0}, {"type": "note_on", "time": 37, "note": 59, "velocity": 102, "channel": 0}, {"type": "note_off", "time": 38, "note": 59, "velocity": 102, "channel": 0}, {"type": "note_on", "time": 7, "note": 60, "velocity": 109, "channel": 0}, {"type": "note_off", "time": 25, "note": 60, "velocity": 109, "channel": 0}, {"type": "note_on", "time": 9, "note": 61, "velocity": 109, "channel": 0}, {"type": "note_off", "time": 186, "note": 61, "velocity": 109, "channel": 0}, {"type": "note_on", "time": 49, "note": 61, "velocity": 108, "channel": 0}, {"type": "note_off", "time": 89, "note": 61, "velocity": 108, "channel": 0}, {"type": "note_on", "time": 19, "note": 60, "velocity": 106, "channel": 0}, {"type": "note_off", "time": 112, "note": 60, "velocity": 106, "channel": 0}, {"type": "note_on", "time": 42, "note": 58, "velocity": 108, "channel": 0}, {"type": "note_off", "time": 79, "note": 58, "velocity": 108, "channel": 0}, {"type": "note_on", "time": 66, "note": 63, "velocity": 98, "channel": 0}, {"type": "note_off", "time": 154, "note": 63, "velocity": 98, "channel": 0}, {"type": "note_on", "time": 714, "note": 52, "velocity": 107, "channel": 0}, {"type": "note_off", "time": 96, "note": 52, "velocity": 107, "channel": 0}, {"type": "note_on", "time": 43, "note": 55, "velocity": 115, "channel": 0}, {"type": "note_off", "time": 118, "note": 55, "velocity": 115, "channel": 0}, {"type": "note_on", "time": 31, "note": 58, "velocity": 114, "channel": 0}, {"type": "note_off", "time": 100, "note": 58, "velocity": 114, "channel": 0}, {"type": "note_on", "time": 68, "note": 62, "velocity": 122, "channel": 0}, {"type": "note_off", "time": 114, "note": 62, "velocity": 122, "channel": 0}, {"type": "note_on", "time": 13, "note": 61, "velocity": 107, "channel": 0}, {"type": "note_off", "time": 43, "note": 61, "velocity": 107, "channel": 0}, {"type": "note_on", "time": 6, "note": 62, "velocity": 114, "channel": 0}, {"type": "note_off", "time": 98, "note": 62, "velocity": 114, "channel": 0}, {"type": "note_on", "time": 15, "note": 60, "velocity": 114, "channel": 0}, {"type": "note_off", "time": 92, "note": 60, "velocity": 114, "channel": 0}, {"type": "note_on", "time": 95, "note": 53, "velocity": 113, "channel": 0}, {"type": "note_off", "time": 93, "note": 53, "velocity": 113, "channel": 0}, {"type": "note_on", "time": 26, "note": 53, "velocity": 106, "channel": 0}, {"type": "note_off", "time": 106, "note": 53, "velocity": 106, "channel": 0}, {"type": "note_on", "time": 79, "note": 65, "velocity": 118, "channel": 0}, {"type": "note_off", "time": 47, "note": 65, "velocity": 118, "channel": 0}, {"type": "note_on", "time": 36, "note": 62, "velocity": 110, "channel": 0}, {"type": "note_off", "time": 102, "note": 62, "velocity": 110, "channel": 0}, {"type": "note_on", "time": 71, "note": 65, "velocity": 117, "channel": 0}, {"type": "note_off", "time": 74, "note": 65, "velocity": 117, "channel": 0}, {"type": "note_on", "time": 17, "note": 62, "velocity": 112, "channel": 0}, {"type": "note_off", "time": 65, "note": 62, "velocity": 112, "channel": 0}, {"type": "note_on", "time": 11, "note": 60, "velocity": 98, "channel": 0}, {"type": "note_off", "time": 108, "note": 60, "velocity": 98, "channel": 0}, {"type": "note_on", "time": 37, "note": 55, "velocity": 103, "channel": 0}, {"type": "note_off", "time": 64, "note": 55, "velocity": 103, "channel": 0}, {"type": "note_on", "time": 8, "note": 56, "velocity": 106, "channel": 0}, {"type": "note_off", "time": 117, "note": 56, "velocity": 106, "channel": 0}, {"type": "note_on", "time": 9, "note": 53, "velocity": 95, "channel": 0}, {"type": "note_off", "time": 60, "note": 53, "velocity": 95, "channel": 0}, {"type": "note_on", "time": 122, "note": 65, "velocity": 114, "channel": 0}, {"type": "note_off", "time": 87, "note": 65, "velocity": 114, "channel": 0}, {"type": "note_on", "time": 6, "note": 67, "velocity": 105, "channel": 0}, {"type": "note_off", "time": 190, "note": 67, "velocity": 105, "channel": 0}, {"type": "note_on", "time": 576, "note": 72, "velocity": 122, "channel": 0}, {"type": "note_off", "time": 123, "note": 72, "velocity": 122, "channel": 0}, {"type": "note_on", "time": 5, "note": 73, "velocity": 126, "channel": 0}, {"type": "note_off", "time": 256, "note": 73, "velocity": 126, "channel": 0}, {"type": "note_on", "time": 10, "note": 73, "velocity": 120, "channel": 0}, {"type": "note_off", "time": 145, "note": 73, "velocity": 120, "channel": 0}, {"type": "note_on", "time": 140, "note": 58, "velocity": 92, "channel": 0}, {"type": "note_off", "time": 54, "note": 58, "velocity": 92, "channel": 0}, {"type": "note_on", "time": 58, "note": 61, "velocity": 105, "channel": 0}, {"type": "note_off", "time": 54, "note": 61, "velocity": 105, "channel": 0}, {"type": "note_on", "time": 6, "note": 62, "velocity": 111, "channel": 0}, {"type": "note_off", "time": 64, "note": 62, "velocity": 111, "channel": 0}, {"type": "note_on", "time": 30, "note": 58, "velocity": 109, "channel": 0}, {"type": "note_off", "time": 72, "note": 58, "velocity": 109, "channel": 0}, {"type": "note_on", "time": 56, "note": 61, "velocity": 98, "channel": 0}, {"type": "note_off", "time": 59, "note": 61, "velocity": 98, "channel": 0}, {"type": "note_on", "time": 6, "note": 62, "velocity": 105, "channel": 0}, {"type": "note_off", "time": 54, "note": 62, "velocity": 105, "channel": 0}, {"type": "note_on", "time": 58, "note": 57, "velocity": 103, "channel": 0}, {"type": "note_off", "time": 129, "note": 57, "velocity": 103, "channel": 0}, {"type": "note_on", "time": 38, "note": 56, "velocity": 101, "channel": 0}, {"type": "note_off", "time": 283, "note": 56, "velocity": 101, "channel": 0}, {"type": "note_on", "time": 11, "note": 53, "velocity": 98, "channel": 0}, {"type": "note_off", "time": 106, "note": 53, "velocity": 98, "channel": 0}, {"type": "note_on", "time": 13, "note": 65, "velocity": 99, "channel": 0}, {"type": "note_off", "time": 139, "note": 65, "velocity": 99, "channel": 0}, {"type": "note_on", "time": 51, "note": 62, "velocity": 108, "channel": 0}, {"type": "note_off", "time": 104, "note": 62, "velocity": 108, "channel": 0}, {"type": "note_on", "time": 87, "note": 62, "velocity": 96, "channel": 0}, {"type": "note_off", "time": 242, "note": 62, "velocity": 96, "channel": 0}, {"type": "note_on", "time": 404, "note": 60, "velocity": 108, "channel": 0}, {"type": "note_off", "time": 86, "note": 60, "velocity": 108, "channel": 0}, {"type": "note_on", "time": 16, "note": 62, "velocity": 103, "channel": 0}, {"type": "note_off", "time": 61, "note": 62, "velocity": 103, "channel": 0}, {"type": "note_on", "time": 16, "note": 64, "velocity": 106, "channel": 0}, {"type": "note_off", "time": 122, "note": 64, "velocity": 106, "channel": 0}, {"type": "note_on", "time": 17, "note": 65, "velocity": 112, "channel": 0}, {"type": "note_off", "time": 83, "note": 65, "velocity": 112, "channel": 0}, {"type": "note_on", "time": 106, "note": 62, "velocity": 91, "channel": 0}, {"type": "note_off", "time": 41, "note": 62, "velocity": 91, "channel": 0}, {"type": "note_on", "time": 33, "note": 65, "velocity": 101, "channel": 0}, {"type": "note_off", "time": 145, "note": 65, "velocity": 101, "channel": 0}, {"type": "note_on", "time": 45, "note": 65, "velocity": 105, "channel": 0}, {"type": "note_off", "time": 137, "note": 65, "velocity": 105, "channel": 0}, {"type": "note_on", "time": 63, "note": 65, "velocity": 108, "channel": 0}, {"type": "note_off", "time": 103, "note": 65, "velocity": 108, "channel": 0}, {"type": "note_on", "time": 28, "note": 62, "velocity": 100, "channel": 0}, {"type": "note_off", "time": 153, "note": 62, "velocity": 100, "channel": 0}, {"type": "note_on", "time": 25, "note": 61, "velocity": 102, "channel": 0}, {"type": "note_off", "time": 26, "note": 61, "velocity": 102, "channel": 0}, {"type": "note_on", "time": 6, "note": 60, "velocity": 111, "channel": 0}, {"type": "note_off", "time": 141, "note": 60, "velocity": 111, "channel": 0}, {"type": "note_on", "time": 22, "note": 58, "velocity": 111, "channel": 0}, {"type": "note_off", "time": 106, "note": 58, "velocity": 111, "channel": 0}, {"type": "note_on", "time": 85, "note": 58, "velocity": 101, "channel": 0}, {"type": "note_off", "time": 330, "note": 58, "velocity": 101, "channel": 0}, {"type": "end_of_track", "time": 0}]]}