{"ticks_per_beat": 192, "tracks": [[{"type": "track_name", "name": "Melody", "time": 0}, {"type": "set_tempo", "tempo": 346820, "time": 0}, {"type": "key_signature", "key": "Db", "time": 0}, {"type": "time_signature", "numerator": 4, "denominator": 4, "clocks_per_click": 24, "notated_32nd_notes_per_beat": 8, "time": 0}, {"type": "note_on", "time": 3179, "note": 70, "velocity": 85, "channel": 0}, {"type": "note_off", "time": 88, "note": 70, "velocity": 85, "channel": 0}, {"type": "note_on", "time": 109, "note": 70, "velocity": 95, "channel": 0}, {"type": "note_off", "time": 69, "note": 70, "velocity": 95, "channel": 0}, {"type": "note_on", "time": 132, "note": 70, "velocity": 94, "channel": 0}, {"type": "note_off", "time": 107, "note": 70, "velocity": 94, "channel": 0}, {"type": "note_on", "time": 101, "note": 68, "velocity": 75, "channel": 0}, {"type": "note_off", "time": 35, "note": 68, "velocity": 75, "channel": 0}, {"type": "note_on", "time": 12, "note": 70, "velocity": 103, "channel": 0}, {"type": "note_off", "time": 114, "note": 70, "velocity": 103, "channel": 0}, {"type": "note_on", "time": 84, "note": 70, "velocity": 113, "channel": 0}, {"type": "note_off", "time": 99, "note": 70, "velocity": 113, "channel": 0}, {"type": "note_on", "time": 86, "note": 70, "velocity": 115, "channel": 0}, {"type": "note_off", "time": 109, "note": 70, "velocity": 115, "channel": 0}, {"type": "note_on", "time": 12, "note": 64, "velocity": 110, "channel": 0}, {"type": "note_off", "time": 47, "note": 64, "velocity": 110, "channel": 0}, {"type": "note_on", "time": 5, "note": 65, "velocity": 107, "channel": 0}, {"type": "note_off", "time": 120, "note": 65, "velocity": 107, "channel": 0}, {"type": "note_on", "time": 20, "note": 60, "velocity": 91, "channel": 0}, {"type": "note_off", "time": 46, "note": 60, "velocity": 91, "channel": 0}, {"type": "note_on", "time": 22, "note": 61, "velocity": 107, "channel": 0}, {"type": "note_off", "time": 106, "note": 61, "velocity": 107, "channel": 0}, {"type": "note_on", "time": 78, "note": 58, "velocity": 111, "channel": 0}, {"type": "note_off", "time": 112, "note": 58, "velocity": 111, "channel": 0}, {"type": "note_on", "time": 29, "note": 61, "velocity": 93, "channel": 0}, {"type": "note_off", "time": 268, "note": 61, "velocity": 93, "channel": 0}, {"type": "note_on", "time": 289, "note": 61, "velocity": 108, "channel": 0}, {"type": "note_off", "time": 51, "note": 61, "velocity": 108, "channel": 0}, {"type": "note_on", "time": 9, "note": 64, "velocity": 113, "channel": 0}, {"type": "note_off", "time": 86, "note": 64, "velocity": 113, "channel": 0}, {"type": "note_on", "time": 14, "note": 65, "velocity": 112, "channel": 0}, {"type": "note_off", "time": 69, "note": 65, "velocity": 112, "channel": 0}, {"type": "note_on", "time": 24, "note": 61, "velocity": 112, "channel": 0}, {"type": "note_off", "time": 85, "note": 61, "velocity": 112, "channel": 0}, {"type": "note_on", "time": 27, "note": 58, "velocity": 97, "channel": 0}, {"type": "note_off", "time": 72, "note": 58, "velocity": 97, "channel": 0}, {"type": "note_on", "time": 2, "note": 61, "velocity": 114, "channel": 0}, {"type": "note_off", "time": 102, "note": 61, "velocity": 114, "channel": 0}, {"type": "note_on", "time": 6, "note": 61, "velocity": 109, "channel": 0}, {"type": "note_off", "time": 85, "note": 61, "velocity": 109, "channel": 0}, {"type": "note_on", "time": 15, "note": 56, "velocity": 107, "channel": 0}, {"type": "note_off", "time": 109, "note": 56, "velocity": 107, "channel": 0}, {"type": "note_on", "time": 27, "note": 52, "velocity": 114, "channel": 0}, {"type": "note_off", "time": 144, "note": 52, "velocity": 114, "channel": 0}, {"type": "note_on", "time": 12, "note": 53, "velocity": 109, "channel": 0}, {"type": "note_off", "time": 298, "note": 53, "velocity": 109, "channel": 0}, {"type": "note_on", "time": 73, "note": 61, "velocity": 111, "channel": 0}, {"type": "note_off", "time": 73, "note": 61, "velocity": 111, "channel": 0}, {"type": "note_on", "time": 24, "note": 64, "velocity": 117, "channel": 0}, {"type": "note_off", "time": 40, "note": 64, "velocity": 117, "channel": 0}, {"type": "note_on", "time": 8, "note": 65, "velocity": 116, "channel": 0}, {"type": "note_off", "time": 72, "note": 65, "velocity": 116, "channel": 0}, {"type": "note_on", "time": 36, "note": 61, "velocity": 116, "channel": 0}, {"type": "note_off", "time": 80, "note": 61, "velocity": 116, "channel": 0}, {"type": "note_on", "time": 62, "note": 64, "velocity": 119, "channel": 0}, {"type": "note_off", "time": 46, "note": 64, "velocity": 119, "channel": 0}, {"type": "note_on", "time": 2, "note": 65, "velocity": 120, "channel": 0}, {"type": "note_off", "time": 66, "note": 65, "velocity": 120, "channel": 0}, {"type": "note_on", "time": 75, "note": 64, "velocity": 118, "channel": 0}, {"type": "note_off", "time": 85, "note": 64, "velocity": 118, "channel": 0}, {"type": "note_on", "time": 12, "note": 65, "velocity": 113, "channel": 0}, {"type": "note_off", "time": 151, "note": 65, "velocity": 113, "channel": 0}, {"type": "note_on", "time": 16, "note": 61, "velocity": 114, "channel": 0}, {"type": "note_off", "time": 62, "note": 61, "velocity": 114, "channel": 0}, {"type": "note_on", "time": 69, "note": 56, "velocity": 96, "channel": 0}, {"type": "note_off", "time": 41, "note": 56, "velocity": 96, "channel": 0}, {"type": "note_on", "time": 6, "note": 60, "velocity": 115, "channel": 0}, {"type": "note_off", "time": 62, "note": 60, "velocity": 115, "channel": 0}, {"type": "note_on", "time": 1, "note": 61, "velocity": 109, "channel": 0}, {"type": "note_off", "time": 109, "note": 61, "velocity": 109, "channel": 0}, {"type": "note_on", "time": 15, "note": 58, "velocity": 108, "channel": 0}, {"type": "note_off", "time": 98, "note": 58, "velocity": 108, "channel": 0}, {"type": "note_on", "time": 32, "note": 52, "velocity": 108, "channel": 0}, {"type": "note_off", "time": 109, "note": 52, "velocity": 108, "channel": 0}, {"type": "note_on", "time": 41, "note": 53, "velocity": 102, "channel": 0}, {"type": "note_off", "time": 83, "note": 53, "velocity": 102, "channel": 0}, {"type": "note_on", "time": 12, "note": 65, "velocity": 109, "channel": 0}, {"type": "note_off", "time": 118, "note": 65, "velocity": 109, "channel": 0}, {"type": "note_on", "time": 20, "note": 61, "velocity": 93, "channel": 0}, {"type": "note_off", "time": 311, "note": 61, "velocity": 93, "channel": 0}, {"type": "note_on", "time": 503, "note": 57, "velocity": 111, "channel": 0}, {"type": "note_off", "time": 44, "note": 57, "velocity": 111, "channel": 0}, {"type": "note_on", "time": 3, "note": 58, "velocity": 118, "channel": 0}, {"type": "note_off", "time": 72, "note": 58, "velocity": 118, "channel": 0}, {"type": "note_on", "time": 10, "note": 58, "velocity": 120, "channel": 0}, {"type": "note_off", "time": 102, "note": 58, "velocity": 120, "channel": 0}, {"type": "note_on", "time": 78, "note": 64, "velocity": 121, "channel": 0}, {"type": "note_off", "time": 83, "note": 64, "velocity": 121, "channel": 0}, {"type": "note_on", "time": 11, "note": 63, "velocity": 115, "channel": 0}, {"type": "note_off", "time": 77, "note": 63, "velocity": 115, "channel": 0}, {"type": "note_on", "time": 27, "note": 61, "velocity": 100, "channel": 0}, {"type": "note_off", "time": 67, "note": 61, "velocity": 100, "channel": 0}, {"type": "note_on", "time": 19, "note": 64, "velocity": 117, "channel": 0}, {"type": "note_off", "time": 111, "note": 64, "velocity": 117, "channel": 0}, {"type": "note_on", "time": 13, "note": 63, "velocity": 114, "channel": 0}, {"type": "note_off", "time": 96, "note": 63, "velocity": 114, "channel": 0}, {"type": "note_on", "time": 36, "note": 60, "velocity": 100, "channel": 0}, {"type": "note_off", "time": 53, "note": 60, "velocity": 100, "channel": 0}, {"type": "note_on", "time": 13, "note": 59, "velocity": 112, "channel": 0}, {"type": "note_off", "time": 162, "note": 59, "velocity": 112, "channel": 0}, {"type": "note_on", "time": 19, "note": 56, "velocity": 103, "channel": 0}, {"type": "note_off", "time": 41, "note": 56, "velocity": 103, "channel": 0}, {"type": "note_on", "time": 30, "note": 59, "velocity": 109, "channel": 0}, {"type": "note_off", "time": 48, "note": 59, "velocity": 109, "channel": 0}, {"type": "note_on", "time": 5, "note": 60, "velocity": 104, "channel": 0}, {"type": "note_off", "time": 54, "note": 60, "velocity": 104, "channel": 0}, {"type": "note_on", "time": 9, "note": 58, "velocity": 112, "channel": 0}, {"type": "note_off", "time": 77, "note": 58, "velocity": 112, "channel": 0}, {"type": "note_on", "time": 97, "note": 51, "velocity": 106, "channel": 0}, {"type": "note_off", "time": 117, "note": 51, "velocity": 106, "channel": 0}, {"type": "note_on", "time": 16, "note": 52, "velocity": 107, "channel": 0}, {"type": "note_off", "time": 91, "note": 52, "velocity": 107, "channel": 0}, {"type": "note_on", "time": 10, "note": 53, "velocity": 113, "channel": 0}, {"type": "note_off", "time": 128, "note": 53, "velocity": 113, "channel": 0}, {"type": "note_on", "time": 37, "note": 61, "velocity": 109, "channel": 0}, {"type": "note_off", "time": 55, "note": 61, "velocity": 109, "channel": 0}, {"type": "note_on", "time": 15, "note": 58, "velocity": 104, "channel": 0}, {"type": "note_off", "time": 77, "note": 58, "velocity": 104, "channel": 0}, {"type": "note_on", "time": 13, "note": 56, "velocity": 91, "channel": 0}, {"type": "note_off", "time": 71, "note": 56, "velocity": 91, "channel": 0}, {"type": "note_on", "time": 17, "note": 61, "velocity": 113, "channel": 0}, {"type": "note_off", "time": 128, "note": 61, "velocity": 113, "channel": 0}, {"type": "note_on", "time": 7, "note": 64, "velocity": 112, "channel": 0}, {"type": "note_off", "time": 118, "note": 64, "velocity": 112, "channel": 0}, {"type": "note_on", "time": 9, "note": 65, "velocity": 101, "channel": 0}, {"type": "note_off", "time": 104, "note": 65, "velocity": 101, "channel": 0}, {"type": "note_on", "time": 17, "note": 64, "velocity": 102, "channel": 0}, {"type": "note_off", "time": 94, "note": 64, "velocity": 102, "channel": 0}, {"type": "note_on", "time": 15, "note": 58, "velocity": 106, "channel": 0}, {"type": "note_off", "time": 73, "note": 58, "velocity": 106, "channel": 0}, {"type": "note_on", "time": 9, "note": 58, "velocity": 98, "channel": 0}, {"type": "note_off", "time": 282, "note": 58, "velocity": 98, "channel": 0}, {"type": "note_on", "time": 402, "note": 49, "velocity": 106, "channel": 0}, {"type": "note_off", "time": 69, "note": 49, "velocity": 106, "channel": 0}, {"type": "note_on", "time": 28, "note": 49, "velocity": 108, "channel": 0}, {"type": "note_off", "time": 85, "note": 49, "velocity": 108, "channel": 0}, {"type": "note_on", "time": 14, "note": 51, "velocity": 109, "channel": 0}, {"type": "note_off", "time": 49, "note": 51, "velocity": 109, "channel": 0}, {"type": "note_on", "time": 17, "note": 52, "velocity": 114, "channel": 0}, {"type": "note_off", "time": 83, "note": 52, "velocity": 114, "channel": 0}, {"type": "note_on", "time": 24, "note": 53, "velocity": 109, "channel": 0}, {"type": "note_off", "time": 93, "note": 53, "velocity": 109, "channel": 0}, {"type": "note_on", "time": 112, "note": 57, "velocity": 110, "channel": 0}, {"type": "note_off", "time": 40, "note": 57, "velocity": 110, "channel": 0}, {"type": "note_on", "time": 8, "note": 58, "velocity": 119, "channel": 0}, {"type": "note_off", "time": 98, "note": 58, "velocity": 119, "channel": 0}, {"type": "note_on", "time": 25, "note": 62, "velocity": 111, "channel": 0}, {"type": "note_off", "time": 61, "note": 62, "velocity": 111, "channel": 0}, {"type": "note_on", "time": 17, "note": 64, "velocity": 120, "channel": 0}, {"type": "note_off", "time": 94, "note": 64, "velocity": 120, "channel": 0}, {"type": "note_on", "time": 14, "note": 65, "velocity": 119, "channel": 0}, {"type": "note_off", "time": 94, "note": 65, "velocity": 119, "channel": 0}, {"type": "note_on", "time": 113, "note": 56, "velocity": 102, "channel": 0}, {"type": "note_off", "time": 56, "note": 56, "velocity": 102, "channel": 0}, {"type": "note_on", "time": 11, "note": 58, "velocity": 117, "channel": 0}, {"type": "note_off", "time": 102, "note": 58, "velocity": 117, "channel": 0}, {"type": "note_on", "time": 60, "note": 61, "velocity": 111, "channel": 0}, {"type": "note_off", "time": 106, "note": 61, "velocity": 111, "channel": 0}, {"type": "note_on", "time": 11, "note": 64, "velocity": 118, "channel": 0}, {"type": "note_off", "time": 61, "note": 64, "velocity": 118, "channel": 0}, {"type": "note_on", "time": 4, "note": 65, "velocity": 121, "channel": 0}, {"type": "note_off", "time": 56, "note": 65, "velocity": 121, "channel": 0}, {"type": "note_on", "time": 640, "note": 67, "velocity": 116, "channel": 0}, {"type": "note_off", "time": 109, "note": 67, "velocity": 116, "channel": 0}, {"type": "note_on", "time": 0, "note": 70, "velocity": 113, "channel": 0}, {"type": "note_off", "time": 175, "note": 70, "velocity": 113, "channel": 0}, {"type": "note_on", "time": 26, "note": 70, "velocity": 81, "channel": 0}, {"type": "note_off", "time": 212, "note": 70, "velocity": 81, "channel": 0}, {"type": "note_on", "time": 25, "note": 45, "velocity": 105, "channel": 0}, {"type": "note_off", "time": 285, "note": 45, "velocity": 105, "channel": 0}, {"type": "note_on", "time": 0, "note": 52, "velocity": 107, "channel": 0}, {"type": "note_off", "time": 141, "note": 52, "velocity": 107, "channel": 0}, {"type": "note_on", "time": 20, "note": 53, "velocity": 106, "channel": 0}, {"type": "note_off", "time": 129, "note": 53, "velocity": 106, "channel": 0}, {"type": "note_on", "time": 14, "note": 46, "velocity": 108, "channel": 0}, {"type": "note_off", "time": 110, "note": 46, "velocity": 108, "channel": 0}, {"type": "note_on", "time": 79, "note": 65, "velocity": 105, "channel": 0}, {"type": "note_off", "time": 74, "note": 65, "velocity": 105, "channel": 0}, {"type": "note_on", "time": 46, "note": 64, "velocity": 108, "channel": 0}, {"type": "note_off", "time": 114, "note": 64, "velocity": 108, "channel": 0}, {"type": "note_on", "time": 32, "note": 62, "velocity": 104, "channel": 0}, {"type": "note_off", "time": 91, "note": 62, "velocity": 104, "channel": 0}, {"type": "note_on", "time": 21, "note": 60, "velocity": 106, "channel": 0}, {"type": "note_off", "time": 100, "note": 60, "velocity": 106, "channel": 0}, {"type": "note_on", "time": 66, "note": 62, "velocity": 96, "channel": 0}, {"type": "note_off", "time": 93, "note": 62, "velocity": 96, "channel": 0}, {"type": "note_on", "time": 568, "note": 53, "velocity": 113, "channel": 0}, {"type": "note_off", "time": 97, "note": 53, "velocity": 113, "channel": 0}, {"type": "note_on", "time": 92, "note": 53, "velocity": 115, "channel": 0}, {"type": "note_off", "time": 93, "note": 53, "velocity": 115, "channel": 0}, {"type": "note_on", "time": 101, "note": 65, "velocity": 117, "channel": 0}, {"type": "note_off", "time": 105, "note": 65, "velocity": 117, "channel": 0}, {"type": "note_on", "time": 12, "note": 62, "velocity": 105, "channel": 0}, {"type": "note_off", "time": 56, "note": 62, "velocity": 105, "channel": 0}, {"type": "note_on", "time": 7, "note": 65, "velocity": 115, "channel": 0}, {"type": "note_off", "time": 83, "note": 65, "velocity": 115, "channel": 0}, {"type": "note_on", "time": 15, "note": 62, "velocity": 116, "channel": 0}, {"type": "note_off", "time": 54, "note": 62, "velocity": 116, "channel": 0}, {"type": "note_on", "time": 15, "note": 60, "velocity": 108, "channel": 0}, {"type": "note_off", "time": 131, "note": 60, "velocity": 108, "channel": 0}, {"type": "note_on", "time": 13, "note": 53, "velocity": 103, "channel": 0}, {"type": "note_off", "time": 209, "note": 53, "velocity": 103, "channel": 0}, {"type": "note_on", "time": 442, "note": 58, "velocity": 114, "channel": 0}, {"type": "note_off", "time": 297, "note": 58, "velocity": 114, "channel": 0}, {"type": "note_on", "time": 14, "note": 58, "velocity": 113, "channel": 0}, {"type": "note_off", "time": 50, "note": 58, "velocity": 113, "channel": 0}, {"type": "note_on", "time": 21, "note": 58, "velocity": 122, "channel": 0}, {"type": "note_off", "time": 68, "note": 58, "velocity": 122, "channel": 0}, {"type": "note_on", "time": 40, "note": 60, "velocity": 119, "channel": 0}, {"type": "note_off", "time": 75, "note": 60, "velocity": 119, "channel": 0}, {"type": "note_on", "time": 4, "note": 61, "velocity": 115, "channel": 0}, {"type": "note_off", "time": 65, "note": 61, "velocity": 115, "channel": 0}, {"type": "note_on", "time": 17, "note": 64, "velocity": 111, "channel": 0}, {"type": "note_off", "time": 46, "note": 64, "velocity": 111, "channel": 0}, {"type": "note_on", "time": 14, "note": 61, "velocity": 116, "channel": 0}, {"type": "note_off", "time": 45, "note": 61, "velocity": 116, "channel": 0}, {"type": "note_on", "time": 12, "note": 60, "velocity": 115, "channel": 0}, {"type": "note_off", "time": 98, "note": 60, "velocity": 115, "channel": 0}, {"type": "note_on", "time": 20, "note": 58, "velocity": 119, "channel": 0}, {"type": "note_off", "time": 90, "note": 58, "velocity": 119, "channel": 0}, {"type": "note_on", "time": 89, "note": 60, "velocity": 117, "channel": 0}, {"type": "note_off", "time": 65, "note": 60, "velocity": 117, "channel": 0}, {"type": "note_on", "time": 13, "note": 63, "velocity": 117, "channel": 0}, {"type": "note_off", "time": 103, "note": 63, "velocity": 117, "channel": 0}, {"type": "note_on", "time": 27, "note": 51, "velocity": 114, "channel": 0}, {"type": "note_off", "time": 141, "note": 51, "velocity": 114, "channel": 0}, {"type": "note_on", "time": 10, "note": 52, "velocity": 112, "channel": 0}, {"type": "note_off", "time": 116, "note": 52, "velocity": 112, "channel": 0}, {"type": "note_on", "time": 12, "note": 53, "velocity": 107, "channel": 0}, {"type": "note_off", "time": 97, "note": 53, "velocity": 107, "channel": 0}, {"type": "note_on", "time": 30, "note": 61, "velocity": 113, "channel": 0}, {"type": "note_off", "time": 98, "note": 61, "velocity": 113, "channel": 0}, {"type": "note_on", "time": 34, "note": 61, "velocity": 108, "channel": 0}, {"type": "note_off", "time": 100, "note": 61, "velocity": 108, "channel": 0}, {"type": "note_on", "time": 22, "note": 60, "velocity": 112, "channel": 0}, {"type": "note_off", "time": 91, "note": 60, "velocity": 112, "channel": 0}, {"type": "note_on", "time": 22, "note": 56, "velocity": 106, "channel": 0}, {"type": "note_off", "time": 106, "note": 56, "velocity": 106, "channel": 0}, {"type": "note_on", "time": 51, "note": 56, "velocity": 105, "channel": 0}, {"type": "note_off", "time": 201, "note": 56, "velocity": 105, "channel": 0}, {"type": "note_on", "time": 592, "note": 68, "velocity": 124, "channel": 0}, {"type": "note_off", "time": 91, "note": 68, "velocity": 124, "channel": 0}, {"type": "note_on", "time": 2, "note": 70, "velocity": 125, "channel": 0}, {"type": "note_off", "time": 250, "note": 70, "velocity": 125, "channel": 0}, {"type": "note_on", "time": 34, "note": 72, "velocity": 120, "channel": 0}, {"type": "note_off", "time": 58, "note": 72, "velocity": 120, "channel": 0}, {"type": "note_on", "time": 11, "note": 72, "velocity": 124, "channel": 0}, {"type": "note_off", "time": 168, "note": 72, "velocity": 124, "channel": 0}, {"type": "note_on", "time": 6, "note": 65, "velocity": 116, "channel": 0}, {"type": "note_off", "time": 133, "note": 65, "velocity": 116, "channel": 0}, {"type": "note_on", "time": 87, "note": 65, "velocity": 115, "channel": 0}, {"type": "note_off", "time": 97, "note": 65, "velocity": 115, "channel": 0}, {"type": "note_on", "time": 32, "note": 58, "velocity": 114, "channel": 0}, {"type": "note_off", "time": 105, "note": 58, "velocity": 114, "channel": 0}, {"type": "note_on", "time": 68, "note": 60, "velocity": 108, "channel": 0}, {"type": "note_off", "time": 65, "note": 60, "velocity": 108, "channel": 0}, {"type": "note_on", "time": 10, "note": 61, "velocity": 103, "channel": 0}, {"type": "note_off", "time": 141, "note": 61, "velocity": 103, "channel": 0}, {"type": "note_on", "time": 38, "note": 52, "velocity": 110, "channel": 0}, {"type": "note_off", "time": 161, "note": 52, "velocity": 110, "channel": 0}, {"type": "note_on", "time": 43, "note": 53, "velocity": 110, "channel": 0}, {"type": "note_off", "time": 107, "note": 53, "velocity": 110, "channel": 0}, {"type": "note_on", "time": 26, "note": 64, "velocity": 111, "channel": 0}, {"type": "note_off", "time": 49, "note": 64, "velocity": 111, "channel": 0}, {"type": "note_on", "time": 3, "note": 65, "velocity": 114, "channel": 0}, {"type": "note_off", "time": 68, "note": 65, "velocity": 114, "channel": 0}, {"type": "note_on", "time": 65, "note": 61, "velocity": 107, "channel": 0}, {"type": "note_off", "time": 73, "note": 61, "velocity": 107, "channel": 0}, {"type": "note_on", "time": 7, "note": 60, "velocity": 107, "channel": 0}, {"type": "note_off", "time": 93, "note": 60, "velocity": 107, "channel": 0}, {"type": "note_on", "time": 23, "note": 58, "velocity": 102, "channel": 0}, {"type": "note_off", "time": 135, "note": 58, "velocity": 102, "channel": 0}, {"type": "note_on", "time": 34, "note": 58, "velocity": 100, "channel": 0}, {"type": "note_off", "time": 185, "note": 58, "velocity": 100, "channel": 0}, {"type": "note_on", "time": 415, "note": 56, "velocity": 115, "channel": 0}, {"type": "note_off", "time": 51, "note": 56, "velocity": 115, "channel": 0}, {"type": "note_on", "time": 12, "note": 58, "velocity": 121, "channel": 0}, {"type": "note_off", "time": 83, "note": 58, "velocity": 121, "channel": 0}, {"type": "note_on", "time": 22, "note": 61, "velocity": 116, "channel": 0}, {"type": "note_off", "time": 70, "note": 61, "velocity": 116, "channel": 0}, {"type": "note_on", "time": 16, "note": 64, "velocity": 122, "channel": 0}, {"type": "note_off", "time": 37, "note": 64, "velocity": 122, "channel": 0}, {"type": "note_on", "time": 11, "note": 65, "velocity": 120, "channel": 0}, {"type": "note_off", "time": 64, "note": 65, "velocity": 120, "channel": 0}, {"type": "note_on", "time": 48, "note": 61, "velocity": 117, "channel": 0}, {"type": "note_off", "time": 101, "note": 61, "velocity": 117, "channel": 0}, {"type": "note_on", "time": 50, "note": 64, "velocity": 122, "channel": 0}, {"type": "note_off", "time": 76, "note": 64, "velocity": 122, "channel": 0}, {"type": "note_on", "time": 2, "note": 65, "velocity": 120, "channel": 0}, {"type": "note_off", "time": 66, "note": 65, "velocity": 120, "channel": 0}, {"type": "note_on", "time": 45, "note": 61, "velocity": 115, "channel": 0}, {"type": "note_off", "time": 110, "note": 61, "velocity": 115, "channel": 0}, {"type": "note_on", "time": 70, "note": 64, "velocity": 120, "channel": 0}, {"type": "note_off", "time": 96, "note": 64, "velocity": 120, "channel": 0}, {"type": "note_on", "time": 2, "note": 65, "velocity": 111, "channel": 0}, {"type": "note_off", "time": 118, "note": 65, "velocity": 111, "channel": 0}, {"type": "note_on", "time": 20, "note": 70, "velocity": 127, "channel": 0}, {"type": "note_off", "time": 116, "note": 70, "velocity": 127, "channel": 0}, {"type": "note_on", "time": 295, "note": 56, "velocity": 118, "channel": 0}, {"type": "note_off", "time": 78, "note": 56, "velocity": 118, "channel": 0}, {"type": "note_on", "time": 31, "note": 58, "velocity": 110, "channel": 0}, {"type": "note_off", "time": 73, "note": 58, "velocity": 110, "channel": 0}, {"type": "note_on", "time": 9, "note": 61, "velocity": 114, "channel": 0}, {"type": "note_off", "time": 87, "note": 61, "velocity": 114, "channel": 0}, {"type": "note_on", "time": 9, "note": 65, "velocity": 118, "channel": 0}, {"type": "note_off", "time": 84, "note": 65, "velocity": 118, "channel": 0}, {"type": "note_on", "time": 14, "note": 61, "velocity": 110, "channel": 0}, {"type": "note_off", "time": 76, "note": 61, "velocity": 110, "channel": 0}, {"type": "note_on", "time": 13, "note": 58, "velocity": 106, "channel": 0}, {"type": "note_off", "time": 79, "note": 58, "velocity": 106, "channel": 0}, {"type": "note_on", "time": 16, "note": 56, "velocity": 118, "channel": 0}, {"type": "note_off", "time": 104, "note": 56, "velocity": 118, "channel": 0}, {"type": "note_on", "time": 28, "note": 52, "velocity": 107, "channel": 0}, {"type": "note_off", "time": 134, "note": 52, "velocity": 107, "channel": 0}, {"type": "note_on", "time": 44, "note": 53, "velocity": 103, "channel": 0}, {"type": "note_off", "time": 249, "note": 53, "velocity": 103, "channel": 0}, {"type": "end_of_track", "time": 0}]]}