{"ticks_per_beat": 192, "tracks": [[{"type": "track_name", "name": "Melody", "time": 0}, {"type": "set_tempo", "tempo": 326086, "time": 0}, {"type": "key_signature", "key": "Bb", "time": 0}, {"type": "time_signature", "numerator": 4, "denominator": 4, "clocks_per_click": 24, "notated_32nd_notes_per_beat": 8, "time": 0}, {"type": "note_on", "time": 3028, "note": 58, "velocity": 113, "channel": 0}, {"type": "note_off", "time": 49, "note": 58, "velocity": 113, "channel": 0}, {"type": "note_on", "time": 6, "note": 61, "velocity": 113, "channel": 0}, {"type": "note_off", "time": 46, "note": 61, "velocity": 113, "channel": 0}, {"type": "note_on", "time": 13, "note": 62, "velocity": 118, "channel": 0}, {"type": "note_off", "time": 76, "note": 62, "velocity": 118, "channel": 0}, {"type": "note_on", "time": 10, "note": 58, "velocity": 115, "channel": 0}, {"type": "note_off", "time": 90, "note": 58, "velocity": 115, "channel": 0}, {"type": "note_on", "time": 76, "note": 58, "velocity": 114, "channel": 0}, {"type": "note_off", "time": 99, "note": 58, "velocity": 114, "channel": 0}, {"type": "note_on", "time": 76, "note": 61, "velocity": 110, "channel": 0}, {"type": "note_off", "time": 97, "note": 61, "velocity": 110, "channel": 0}, {"type": "note_on", "time": 15, "note": 58, "velocity": 106, "channel": 0}, {"type": "note_off", "time": 71, "note": 58, "velocity": 106, "channel": 0}, {"type": "note_on", "time": 13, "note": 61, "velocity": 107, "channel": 0}, {"type": "note_off", "time": 73, "note": 61, "velocity": 107, "channel": 0}, {"type": "note_on", "time": 18, "note": 58, "velocity": 108, "channel": 0}, {"type": "note_off", "time": 100, "note": 58, "velocity": 108, "channel": 0}, {"type": "note_on", "time": 1, "note": 61, "velocity": 107, "channel": 0}, {"type": "note_off", "time": 76, "note": 61, "velocity": 107, "channel": 0}, {"type": "note_on", "time": 0, "note": 58, "velocity": 108, "channel": 0}, {"type": "note_off", "time": 97, "note": 58, "velocity": 108, "channel": 0}, {"type": "note_on", "time": 64, "note": 65, "velocity": 108, "channel": 0}, {"type": "note_off", "time": 139, "note": 65, "velocity": 108, "channel": 0}, {"type": "note_on", "time": 4, "note": 63, "velocity": 107, "channel": 0}, {"type": "note_off", "time": 68, "note": 63, "velocity": 107, "channel": 0}, {"type": "note_on", "time": 1, "note": 61, "velocity": 104, "channel": 0}, {"type": "note_off", "time": 105, "note": 61, "velocity": 104, "channel": 0}, {"type": "note_on", "time": 17, "note": 62, "velocity": 111, "channel": 0}, {"type": "note_off", "time": 66, "note": 62, "velocity": 111, "channel": 0}, {"type": "note_on", "time": 11, "note": 58, "velocity": 103, "channel": 0}, {"type": "note_off", "time": 105, "note": 58, "velocity": 103, "channel": 0}, {"type": "note_on", "time": 5, "note": 61, "velocity": 111, "channel": 0}, {"type": "note_off", "time": 71, "note": 61, "velocity": 111, "channel": 0}, {"type": "note_on", "time": 10, "note": 58, "velocity": 98, "channel": 0}, {"type": "note_off", "time": 174, "note": 58, "velocity": 98, "channel": 0}, {"type": "note_on", "time": 15, "note": 65, "velocity": 110, "channel": 0}, {"type": "note_off", "time": 119, "note": 65, "velocity": 110, "channel": 0}, {"type": "note_on", "time": 11, "note": 58, "velocity": 101, "channel": 0}, {"type": "note_off", "time": 68, "note": 58, "velocity": 101, "channel": 0}, {"type": "note_on", "time": 18, "note": 58, "velocity": 97, "channel": 0}, {"type": "note_off", "time": 83, "note": 58, "velocity": 97, "channel": 0}, {"type": "note_on", "time": 17, "note": 61, "velocity": 98, "channel": 0}, {"type": "note_off", "time": 51, "note": 61, "velocity": 98, "channel": 0}, {"type": "note_on", "time": 6, "note": 65, "velocity": 118, "channel": 0}, {"type": "note_off", "time": 76, "note": 65, "velocity": 118, "channel": 0}, {"type": "note_on", "time": 111, "note": 65, "velocity": 107, "channel": 0}, {"type": "note_off", "time": 109, "note": 65, "velocity": 107, "channel": 0}, {"type": "note_on", "time": 88, "note": 65, "velocity": 104, "channel": 0}, {"type": "note_off", "time": 117, "note": 65, "velocity": 104, "channel": 0}, {"type": "note_on", "time": 129, "note": 60, "velocity": 100, "channel": 0}, {"type": "note_off", "time": 99, "note": 60, "velocity": 100, "channel": 0}, {"type": "note_on", "time": 3, "note": 61, "velocity": 108, "channel": 0}, {"type": "note_off", "time": 124, "note": 61, "velocity": 108, "channel": 0}, {"type": "note_on", "time": 17, "note": 60, "velocity": 99, "channel": 0}, {"type": "note_off", "time": 181, "note": 60, "velocity": 99, "channel": 0}, {"type": "note_on", "time": 27, "note": 58, "velocity": 104, "channel": 0}, {"type": "note_off", "time": 66, "note": 58, "velocity": 104, "channel": 0}, {"type": "note_on", "time": 44, "note": 60, "velocity": 107, "channel": 0}, {"type": "note_off", "time": 37, "note": 60, "velocity": 107, "channel": 0}, {"type": "note_on", "time": 17, "note": 61, "velocity": 113, "channel": 0}, {"type": "note_off", "time": 61, "note": 61, "velocity": 113, "channel": 0}, {"type": "note_on", "time": 13, "note": 58, "velocity": 108, "channel": 0}, {"type": "note_off", "time": 63, "note": 58, "velocity": 108, "channel": 0}, {"type": "note_on", "time": 93, "note": 60, "velocity": 104, "channel": 0}, {"type": "note_off", "time": 42, "note": 60, "velocity": 104, "channel": 0}, {"type": "note_on", "time": 5, "note": 61, "velocity": 113, "channel": 0}, {"type": "note_off", "time": 70, "note": 61, "velocity": 113, "channel": 0}, {"type": "note_on", "time": 59, "note": 58, "velocity": 104, "channel": 0}, {"type": "note_off", "time": 211, "note": 58, "velocity": 104, "channel": 0}, {"type": "note_on", "time": 620, "note": 64, "velocity": 118, "channel": 0}, {"type": "note_off", "time": 67, "note": 64, "velocity": 118, "channel": 0}, {"type": "note_on", "time": 0, "note": 65, "velocity": 119, "channel": 0}, {"type": "note_off", "time": 88, "note": 65, "velocity": 119, "channel": 0}, {"type": "note_on", "time": 33, "note": 67, "velocity": 126, "channel": 0}, {"type": "note_off", "time": 141, "note": 67, "velocity": 126, "channel": 0}, {"type": "note_on", "time": 0, "note": 69, "velocity": 123, "channel": 0}, {"type": "note_off", "time": 103, "note": 69, "velocity": 123, "channel": 0}, {"type": "note_on", "time": 12, "note": 70, "velocity": 120, "channel": 0}, {"type": "note_off", "time": 114, "note": 70, "velocity": 120, "channel": 0}, {"type": "note_on", "time": 3, "note": 69, "velocity": 118, "channel": 0}, {"type": "note_off", "time": 99, "note": 69, "velocity": 118, "channel": 0}, {"type": "note_on", "time": 15, "note": 67, "velocity": 124, "channel": 0}, {"type": "note_off", "time": 100, "note": 67, "velocity": 124, "channel": 0}, {"type": "note_on", "time": 13, "note": 65, "velocity": 114, "channel": 0}, {"type": "note_off", "time": 95, "note": 65, "velocity": 114, "channel": 0}, {"type": "note_on", "time": 11, "note": 62, "velocity": 113, "channel": 0}, {"type": "note_off", "time": 76, "note": 62, "velocity": 113, "channel": 0}, {"type": "note_on", "time": 13, "note": 61, "velocity": 111, "channel": 0}, {"type": "note_off", "time": 117, "note": 61, "velocity": 111, "channel": 0}, {"type": "note_on", "time": 9, "note": 60, "velocity": 107, "channel": 0}, {"type": "note_off", "time": 68, "note": 60, "velocity": 107, "channel": 0}, {"type": "note_on", "time": 10, "note": 58, "velocity": 95, "channel": 0}, {"type": "note_off", "time": 72, "note": 58, "velocity": 95, "channel": 0}, {"type": "note_on", "time": 47, "note": 61, "velocity": 107, "channel": 0}, {"type": "note_off", "time": 100, "note": 61, "velocity": 107, "channel": 0}, {"type": "note_on", "time": 8, "note": 60, "velocity": 112, "channel": 0}, {"type": "note_off", "time": 96, "note": 60, "velocity": 112, "channel": 0}, {"type": "note_on", "time": 8, "note": 58, "velocity": 101, "channel": 0}, {"type": "note_off", "time": 88, "note": 58, "velocity": 101, "channel": 0}, {"type": "note_on", "time": 52, "note": 65, "velocity": 113, "channel": 0}, {"type": "note_off", "time": 88, "note": 65, "velocity": 113, "channel": 0}, {"type": "note_on", "time": 93, "note": 58, "velocity": 104, "channel": 0}, {"type": "note_off", "time": 67, "note": 58, "velocity": 104, "channel": 0}, {"type": "note_on", "time": 0, "note": 61, "velocity": 111, "channel": 0}, {"type": "note_off", "time": 112, "note": 61, "velocity": 111, "channel": 0}, {"type": "note_on", "time": 4, "note": 60, "velocity": 108, "channel": 0}, {"type": "note_off", "time": 60, "note": 60, "velocity": 108, "channel": 0}, {"type": "note_on", "time": 9, "note": 58, "velocity": 100, "channel": 0}, {"type": "note_off", "time": 72, "note": 58, "velocity": 100, "channel": 0}, {"type": "note_on", "time": 69, "note": 60, "velocity": 107, "channel": 0}, {"type": "note_off", "time": 86, "note": 60, "velocity": 107, "channel": 0}, {"type": "note_on", "time": 14, "note": 61, "velocity": 108, "channel": 0}, {"type": "note_off", "time": 136, "note": 61, "velocity": 108, "channel": 0}, {"type": "note_on", "time": 19, "note": 58, "velocity": 104, "channel": 0}, {"type": "note_off", "time": 69, "note": 58, "velocity": 104, "channel": 0}, {"type": "note_on", "time": 60, "note": 60, "velocity": 106, "channel": 0}, {"type": "note_off", "time": 79, "note": 60, "velocity": 106, "channel": 0}, {"type": "note_on", "time": 16, "note": 61, "velocity": 106, "channel": 0}, {"type": "note_off", "time": 132, "note": 61, "velocity": 106, "channel": 0}, {"type": "note_on", "time": 9, "note": 58, "velocity": 104, "channel": 0}, {"type": "note_off", "time": 144, "note": 58, "velocity": 104, "channel": 0}, {"type": "note_on", "time": 12, "note": 53, "velocity": 97, "channel": 0}, {"type": "note_off", "time": 420, "note": 53, "velocity": 97, "channel": 0}, {"type": "note_on", "time": 783, "note": 64, "velocity": 110, "channel": 0}, {"type": "note_off", "time": 72, "note": 64, "velocity": 110, "channel": 0}, {"type": "note_on", "time": 2, "note": 68, "velocity": 123, "channel": 0}, {"type": "note_off", "time": 285, "note": 68, "velocity": 123, "channel": 0}, {"type": "note_on", "time": 38, "note": 67, "velocity": 121, "channel": 0}, {"type": "note_off", "time": 161, "note": 67, "velocity": 121, "channel": 0}, {"type": "note_on", "time": 16, "note": 65, "velocity": 112, "channel": 0}, {"type": "note_off", "time": 74, "note": 65, "velocity": 112, "channel": 0}, {"type": "note_on", "time": 261, "note": 67, "velocity": 125, "channel": 0}, {"type": "note_off", "time": 91, "note": 67, "velocity": 125, "channel": 0}, {"type": "note_on", "time": 19, "note": 68, "velocity": 127, "channel": 0}, {"type": "note_off", "time": 141, "note": 68, "velocity": 127, "channel": 0}, {"type": "note_on", "time": 21, "note": 67, "velocity": 111, "channel": 0}, {"type": "note_off", "time": 129, "note": 67, "velocity": 111, "channel": 0}, {"type": "note_on", "time": 2, "note": 65, "velocity": 108, "channel": 0}, {"type": "note_off", "time": 168, "note": 65, "velocity": 108, "channel": 0}, {"type": "note_on", "time": 9, "note": 68, "velocity": 104, "channel": 0}, {"type": "note_off", "time": 62, "note": 68, "velocity": 104, "channel": 0}, {"type": "note_on", "time": 21, "note": 65, "velocity": 102, "channel": 0}, {"type": "note_off", "time": 67, "note": 65, "velocity": 102, "channel": 0}, {"type": "note_on", "time": 490, "note": 65, "velocity": 112, "channel": 0}, {"type": "note_off", "time": 112, "note": 65, "velocity": 112, "channel": 0}, {"type": "note_on", "time": 24, "note": 67, "velocity": 112, "channel": 0}, {"type": "note_off", "time": 45, "note": 67, "velocity": 112, "channel": 0}, {"type": "note_on", "time": 12, "note": 68, "velocity": 123, "channel": 0}, {"type": "note_off", "time": 127, "note": 68, "velocity": 123, "channel": 0}, {"type": "note_on", "time": 7, "note": 67, "velocity": 114, "channel": 0}, {"type": "note_off", "time": 48, "note": 67, "velocity": 114, "channel": 0}, {"type": "note_on", "time": 12, "note": 68, "velocity": 120, "channel": 0}, {"type": "note_off", "time": 105, "note": 68, "velocity": 120, "channel": 0}, {"type": "note_on", "time": 7, "note": 70, "velocity": 118, "channel": 0}, {"type": "note_off", "time": 269, "note": 70, "velocity": 118, "channel": 0}, {"type": "note_on", "time": 7, "note": 68, "velocity": 119, "channel": 0}, {"type": "note_off", "time": 132, "note": 68, "velocity": 119, "channel": 0}, {"type": "note_on", "time": 69, "note": 67, "velocity": 120, "channel": 0}, {"type": "note_off", "time": 124, "note": 67, "velocity": 120, "channel": 0}, {"type": "note_on", "time": 45, "note": 65, "velocity": 113, "channel": 0}, {"type": "note_off", "time": 112, "note": 65, "velocity": 113, "channel": 0}, {"type": "note_on", "time": 96, "note": 58, "velocity": 112, "channel": 0}, {"type": "note_off", "time": 112, "note": 58, "velocity": 112, "channel": 0}, {"type": "note_on", "time": 64, "note": 61, "velocity": 108, "channel": 0}, {"type": "note_off", "time": 38, "note": 61, "velocity": 108, "channel": 0}, {"type": "note_on", "time": 12, "note": 62, "velocity": 105, "channel": 0}, {"type": "note_off", "time": 79, "note": 62, "velocity": 105, "channel": 0}, {"type": "note_on", "time": 12, "note": 58, "velocity": 108, "channel": 0}, {"type": "note_off", "time": 62, "note": 58, "velocity": 108, "channel": 0}, {"type": "note_on", "time": 108, "note": 65, "velocity": 108, "channel": 0}, {"type": "note_off", "time": 355, "note": 65, "velocity": 108, "channel": 0}, {"type": "note_on", "time": 98, "note": 67, "velocity": 122, "channel": 0}, {"type": "note_off", "time": 117, "note": 67, "velocity": 122, "channel": 0}, {"type": "note_on", "time": 69, "note": 65, "velocity": 116, "channel": 0}, {"type": "note_off", "time": 103, "note": 65, "velocity": 116, "channel": 0}, {"type": "note_on", "time": 14, "note": 64, "velocity": 102, "channel": 0}, {"type": "note_off", "time": 48, "note": 64, "velocity": 102, "channel": 0}, {"type": "note_on", "time": 33, "note": 63, "velocity": 111, "channel": 0}, {"type": "note_off", "time": 134, "note": 63, "velocity": 111, "channel": 0}, {"type": "note_on", "time": 64, "note": 58, "velocity": 111, "channel": 0}, {"type": "note_off", "time": 105, "note": 58, "velocity": 111, "channel": 0}, {"type": "note_on", "time": 69, "note": 61, "velocity": 102, "channel": 0}, {"type": "note_off", "time": 55, "note": 61, "velocity": 102, "channel": 0}, {"type": "note_on", "time": 21, "note": 62, "velocity": 105, "channel": 0}, {"type": "note_off", "time": 86, "note": 62, "velocity": 105, "channel": 0}, {"type": "note_on", "time": 12, "note": 58, "velocity": 110, "channel": 0}, {"type": "note_off", "time": 79, "note": 58, "velocity": 110, "channel": 0}, {"type": "note_on", "time": 69, "note": 58, "velocity": 97, "channel": 0}, {"type": "note_off", "time": 261, "note": 58, "velocity": 97, "channel": 0}, {"type": "note_on", "time": 699, "note": 65, "velocity": 110, "channel": 0}, {"type": "note_off", "time": 64, "note": 65, "velocity": 110, "channel": 0}, {"type": "note_on", "time": 0, "note": 67, "velocity": 122, "channel": 0}, {"type": "note_off", "time": 108, "note": 67, "velocity": 122, "channel": 0}, {"type": "note_on", "time": 9, "note": 69, "velocity": 119, "channel": 0}, {"type": "note_off", "time": 72, "note": 69, "velocity": 119, "channel": 0}, {"type": "note_on", "time": 2, "note": 70, "velocity": 120, "channel": 0}, {"type": "note_off", "time": 100, "note": 70, "velocity": 120, "channel": 0}, {"type": "note_on", "time": 76, "note": 72, "velocity": 119, "channel": 0}, {"type": "note_off", "time": 117, "note": 72, "velocity": 119, "channel": 0}, {"type": "note_on", "time": 81, "note": 74, "velocity": 124, "channel": 0}, {"type": "note_off", "time": 136, "note": 74, "velocity": 124, "channel": 0}, {"type": "note_on", "time": 19, "note": 73, "velocity": 116, "channel": 0}, {"type": "note_off", "time": 88, "note": 73, "velocity": 116, "channel": 0}, {"type": "note_on", "time": 14, "note": 69, "velocity": 106, "channel": 0}, {"type": "note_off", "time": 81, "note": 69, "velocity": 106, "channel": 0}, {"type": "note_on", "time": 24, "note": 69, "velocity": 122, "channel": 0}, {"type": "note_off", "time": 67, "note": 69, "velocity": 122, "channel": 0}, {"type": "note_on", "time": 14, "note": 70, "velocity": 114, "channel": 0}, {"type": "note_off", "time": 98, "note": 70, "velocity": 114, "channel": 0}, {"type": "note_on", "time": 249, "note": 65, "velocity": 111, "channel": 0}, {"type": "note_off", "time": 120, "note": 65, "velocity": 111, "channel": 0}, {"type": "note_on", "time": 96, "note": 58, "velocity": 100, "channel": 0}, {"type": "note_on", "time": 182, "note": 61, "velocity": 109, "channel": 0}, {"type": "note_off", "time": 0, "note": 58, "velocity": 100, "channel": 0}, {"type": "note_off", "time": 108, "note": 61, "velocity": 109, "channel": 0}, {"type": "note_on", "time": 12, "note": 58, "velocity": 105, "channel": 0}, {"type": "note_off", "time": 103, "note": 58, "velocity": 105, "channel": 0}, {"type": "note_on", "time": 121, "note": 61, "velocity": 86, "channel": 0}, {"type": "note_off", "time": 45, "note": 61, "velocity": 86, "channel": 0}, {"type": "note_on", "time": 6, "note": 62, "velocity": 93, "channel": 0}, {"type": "note_off", "time": 293, "note": 62, "velocity": 93, "channel": 0}, {"type": "note_on", "time": 82, "note": 58, "velocity": 112, "channel": 0}, {"type": "note_off", "time": 127, "note": 58, "velocity": 112, "channel": 0}, {"type": "note_on", "time": 9, "note": 53, "velocity": 103, "channel": 0}, {"type": "note_off", "time": 182, "note": 53, "velocity": 103, "channel": 0}, {"type": "note_on", "time": 0, "note": 65, "velocity": 108, "channel": 0}, {"type": "note_off", "time": 117, "note": 65, "velocity": 108, "channel": 0}, {"type": "end_of_track", "time": 0}]]}