{"ticks_per_beat": 192, "tracks": [[{"type": "track_name", "name": "Melody", "time": 0}, {"type": "set_tempo", "tempo": 240963, "time": 0}, {"type": "key_signature", "key": "Bb", "time": 0}, {"type": "time_signature", "numerator": 4, "denominator": 4, "clocks_per_click": 24, "notated_32nd_notes_per_beat": 8, "time": 0}, {"type": "note_on", "time": 3592, "note": 74, "velocity": 114, "channel": 0}, {"type": "note_off", "time": 115, "note": 74, "velocity": 114, "channel": 0}, {"type": "note_on", "time": 83, "note": 77, "velocity": 118, "channel": 0}, {"type": "note_off", "time": 286, "note": 77, "velocity": 118, "channel": 0}, {"type": "note_on", "time": 26, "note": 74, "velocity": 117, "channel": 0}, {"type": "note_off", "time": 84, "note": 74, "velocity": 117, "channel": 0}, {"type": "note_on", "time": 16, "note": 75, "velocity": 121, "channel": 0}, {"type": "note_off", "time": 142, "note": 75, "velocity": 121, "channel": 0}, {"type": "note_on", "time": 19, "note": 77, "velocity": 114, "channel": 0}, {"type": "note_off", "time": 178, "note": 77, "velocity": 114, "channel": 0}, {"type": "note_on", "time": 603, "note": 74, "velocity": 110, "channel": 0}, {"type": "note_off", "time": 130, "note": 74, "velocity": 110, "channel": 0}, {"type": "note_on", "time": 70, "note": 75, "velocity": 118, "channel": 0}, {"type": "note_off", "time": 296, "note": 75, "velocity": 118, "channel": 0}, {"type": "note_on", "time": 137, "note": 75, "velocity": 118, "channel": 0}, {"type": "note_off", "time": 100, "note": 75, "velocity": 118, "channel": 0}, {"type": "note_on", "time": 65, "note": 74, "velocity": 111, "channel": 0}, {"type": "note_off", "time": 116, "note": 74, "velocity": 111, "channel": 0}, {"type": "note_on", "time": 16, "note": 77, "velocity": 104, "channel": 0}, {"type": "note_off", "time": 253, "note": 77, "velocity": 104, "channel": 0}, {"type": "note_on", "time": 966, "note": 86, "velocity": 125, "channel": 0}, {"type": "note_off", "time": 112, "note": 86, "velocity": 125, "channel": 0}, {"type": "note_on", "time": 41, "note": 84, "velocity": 113, "channel": 0}, {"type": "note_off", "time": 42, "note": 84, "velocity": 113, "channel": 0}, {"type": "note_on", "time": 8, "note": 82, "velocity": 119, "channel": 0}, {"type": "note_off", "time": 102, "note": 82, "velocity": 119, "channel": 0}, {"type": "note_on", "time": 95, "note": 84, "velocity": 127, "channel": 0}, {"type": "note_off", "time": 103, "note": 84, "velocity": 127, "channel": 0}, {"type": "note_on", "time": 18, "note": 82, "velocity": 120, "channel": 0}, {"type": "note_off", "time": 52, "note": 82, "velocity": 120, "channel": 0}, {"type": "note_on", "time": 10, "note": 81, "velocity": 121, "channel": 0}, {"type": "note_off", "time": 102, "note": 81, "velocity": 121, "channel": 0}, {"type": "note_on", "time": 19, "note": 79, "velocity": 110, "channel": 0}, {"type": "note_off", "time": 45, "note": 79, "velocity": 110, "channel": 0}, {"type": "note_on", "time": 10, "note": 77, "velocity": 119, "channel": 0}, {"type": "note_off", "time": 102, "note": 77, "velocity": 119, "channel": 0}, {"type": "note_on", "time": 23, "note": 75, "velocity": 117, "channel": 0}, {"type": "note_off", "time": 87, "note": 75, "velocity": 117, "channel": 0}, {"type": "note_on", "time": 17, "note": 73, "velocity": 100, "channel": 0}, {"type": "note_off", "time": 68, "note": 73, "velocity": 100, "channel": 0}, {"type": "note_on", "time": 7, "note": 74, "velocity": 118, "channel": 0}, {"type": "note_off", "time": 61, "note": 74, "velocity": 118, "channel": 0}, {"type": "note_on", "time": 13, "note": 75, "velocity": 117, "channel": 0}, {"type": "note_off", "time": 125, "note": 75, "velocity": 117, "channel": 0}, {"type": "note_on", "time": 30, "note": 73, "velocity": 96, "channel": 0}, {"type": "note_off", "time": 35, "note": 73, "velocity": 96, "channel": 0}, {"type": "note_on", "time": 21, "note": 74, "velocity": 117, "channel": 0}, {"type": "note_off", "time": 100, "note": 74, "velocity": 117, "channel": 0}, {"type": "note_on", "time": 18, "note": 70, "velocity": 101, "channel": 0}, {"type": "note_off", "time": 134, "note": 70, "velocity": 101, "channel": 0}, {"type": "note_on", "time": 896, "note": 84, "velocity": 122, "channel": 0}, {"type": "note_off", "time": 52, "note": 84, "velocity": 122, "channel": 0}, {"type": "note_on", "time": 14, "note": 86, "velocity": 109, "channel": 0}, {"type": "note_off", "time": 62, "note": 86, "velocity": 109, "channel": 0}, {"type": "note_on", "time": 12, "note": 89, "velocity": 119, "channel": 0}, {"type": "note_off", "time": 201, "note": 89, "velocity": 119, "channel": 0}, {"type": "note_on", "time": 417, "note": 87, "velocity": 101, "channel": 0}, {"type": "note_off", "time": 119, "note": 87, "velocity": 101, "channel": 0}, {"type": "note_on", "time": 79, "note": 80, "velocity": 113, "channel": 0}, {"type": "note_off", "time": 88, "note": 80, "velocity": 113, "channel": 0}, {"type": "note_on", "time": 18, "note": 84, "velocity": 122, "channel": 0}, {"type": "note_off", "time": 141, "note": 84, "velocity": 122, "channel": 0}, {"type": "note_on", "time": 29, "note": 82, "velocity": 118, "channel": 0}, {"type": "note_off", "time": 98, "note": 82, "velocity": 118, "channel": 0}, {"type": "note_on", "time": 6, "note": 81, "velocity": 117, "channel": 0}, {"type": "note_off", "time": 97, "note": 81, "velocity": 117, "channel": 0}, {"type": "note_on", "time": 21, "note": 79, "velocity": 107, "channel": 0}, {"type": "note_off", "time": 48, "note": 79, "velocity": 107, "channel": 0}, {"type": "note_on", "time": 10, "note": 77, "velocity": 118, "channel": 0}, {"type": "note_off", "time": 125, "note": 77, "velocity": 118, "channel": 0}, {"type": "note_on", "time": 16, "note": 76, "velocity": 117, "channel": 0}, {"type": "note_off", "time": 73, "note": 76, "velocity": 117, "channel": 0}, {"type": "note_on", "time": 20, "note": 75, "velocity": 122, "channel": 0}, {"type": "note_off", "time": 98, "note": 75, "velocity": 122, "channel": 0}, {"type": "note_on", "time": 27, "note": 67, "velocity": 103, "channel": 0}, {"type": "note_off", "time": 60, "note": 67, "velocity": 103, "channel": 0}, {"type": "note_on", "time": 3, "note": 70, "velocity": 119, "channel": 0}, {"type": "note_off", "time": 74, "note": 70, "velocity": 119, "channel": 0}, {"type": "note_on", "time": 15, "note": 74, "velocity": 118, "channel": 0}, {"type": "note_off", "time": 91, "note": 74, "velocity": 118, "channel": 0}, {"type": "note_on", "time": 6, "note": 72, "velocity": 118, "channel": 0}, {"type": "note_off", "time": 43, "note": 72, "velocity": 118, "channel": 0}, {"type": "note_on", "time": 11, "note": 74, "velocity": 116, "channel": 0}, {"type": "note_off", "time": 52, "note": 74, "velocity": 116, "channel": 0}, {"type": "note_on", "time": 21, "note": 72, "velocity": 119, "channel": 0}, {"type": "note_off", "time": 49, "note": 72, "velocity": 119, "channel": 0}, {"type": "note_on", "time": 10, "note": 70, "velocity": 118, "channel": 0}, {"type": "note_off", "time": 110, "note": 70, "velocity": 118, "channel": 0}, {"type": "note_on", "time": 10, "note": 67, "velocity": 104, "channel": 0}, {"type": "note_off", "time": 48, "note": 67, "velocity": 104, "channel": 0}, {"type": "note_on", "time": 21, "note": 68, "velocity": 110, "channel": 0}, {"type": "note_off", "time": 107, "note": 68, "velocity": 110, "channel": 0}, {"type": "note_on", "time": 12, "note": 70, "velocity": 118, "channel": 0}, {"type": "note_off", "time": 73, "note": 70, "velocity": 118, "channel": 0}, {"type": "note_on", "time": 15, "note": 68, "velocity": 111, "channel": 0}, {"type": "note_off", "time": 52, "note": 68, "velocity": 111, "channel": 0}, {"type": "note_on", "time": 9, "note": 70, "velocity": 109, "channel": 0}, {"type": "note_off", "time": 45, "note": 70, "velocity": 109, "channel": 0}, {"type": "note_on", "time": 7, "note": 68, "velocity": 114, "channel": 0}, {"type": "note_off", "time": 55, "note": 68, "velocity": 114, "channel": 0}, {"type": "note_on", "time": 19, "note": 67, "velocity": 110, "channel": 0}, {"type": "note_off", "time": 86, "note": 67, "velocity": 110, "channel": 0}, {"type": "note_on", "time": 10, "note": 65, "velocity": 110, "channel": 0}, {"type": "note_off", "time": 91, "note": 65, "velocity": 110, "channel": 0}, {"type": "note_on", "time": 17, "note": 64, "velocity": 104, "channel": 0}, {"type": "note_off", "time": 48, "note": 64, "velocity": 104, "channel": 0}, {"type": "note_on", "time": 47, "note": 70, "velocity": 107, "channel": 0}, {"type": "note_off", "time": 83, "note": 70, "velocity": 107, "channel": 0}, {"type": "note_on", "time": 15, "note": 73, "velocity": 112, "channel": 0}, {"type": "note_off", "time": 83, "note": 73, "velocity": 112, "channel": 0}, {"type": "note_on", "time": 9, "note": 74, "velocity": 117, "channel": 0}, {"type": "note_off", "time": 67, "note": 74, "velocity": 117, "channel": 0}, {"type": "note_on", "time": 5, "note": 75, "velocity": 121, "channel": 0}, {"type": "note_off", "time": 112, "note": 75, "velocity": 121, "channel": 0}, {"type": "note_on", "time": 18, "note": 76, "velocity": 113, "channel": 0}, {"type": "note_off", "time": 52, "note": 76, "velocity": 113, "channel": 0}, {"type": "note_on", "time": 12, "note": 77, "velocity": 118, "channel": 0}, {"type": "note_off", "time": 106, "note": 77, "velocity": 118, "channel": 0}, {"type": "note_on", "time": 88, "note": 70, "velocity": 111, "channel": 0}, {"type": "note_off", "time": 101, "note": 70, "velocity": 111, "channel": 0}, {"type": "note_on", "time": 21, "note": 74, "velocity": 117, "channel": 0}, {"type": "note_off", "time": 69, "note": 74, "velocity": 117, "channel": 0}, {"type": "note_on", "time": 13, "note": 73, "velocity": 116, "channel": 0}, {"type": "note_off", "time": 95, "note": 73, "velocity": 116, "channel": 0}, {"type": "note_on", "time": 82, "note": 72, "velocity": 117, "channel": 0}, {"type": "note_off", "time": 124, "note": 72, "velocity": 117, "channel": 0}, {"type": "note_on", "time": 17, "note": 68, "velocity": 114, "channel": 0}, {"type": "note_off", "time": 61, "note": 68, "velocity": 114, "channel": 0}, {"type": "note_on", "time": 6, "note": 67, "velocity": 108, "channel": 0}, {"type": "note_off", "time": 102, "note": 67, "velocity": 108, "channel": 0}, {"type": "note_on", "time": 26, "note": 65, "velocity": 95, "channel": 0}, {"type": "note_off", "time": 47, "note": 65, "velocity": 95, "channel": 0}, {"type": "note_on", "time": 5, "note": 70, "velocity": 116, "channel": 0}, {"type": "note_off", "time": 117, "note": 70, "velocity": 116, "channel": 0}, {"type": "note_on", "time": 30, "note": 67, "velocity": 97, "channel": 0}, {"type": "note_off", "time": 51, "note": 67, "velocity": 97, "channel": 0}, {"type": "note_on", "time": 13, "note": 68, "velocity": 110, "channel": 0}, {"type": "note_off", "time": 124, "note": 68, "velocity": 110, "channel": 0}, {"type": "note_on", "time": 1, "note": 70, "velocity": 117, "channel": 0}, {"type": "note_off", "time": 47, "note": 70, "velocity": 117, "channel": 0}, {"type": "note_on", "time": 8, "note": 68, "velocity": 102, "channel": 0}, {"type": "note_off", "time": 73, "note": 68, "velocity": 102, "channel": 0}, {"type": "note_on", "time": 8, "note": 70, "velocity": 106, "channel": 0}, {"type": "note_off", "time": 41, "note": 70, "velocity": 106, "channel": 0}, {"type": "note_on", "time": 8, "note": 68, "velocity": 112, "channel": 0}, {"type": "note_off", "time": 51, "note": 68, "velocity": 112, "channel": 0}, {"type": "note_on", "time": 19, "note": 67, "velocity": 112, "channel": 0}, {"type": "note_off", "time": 94, "note": 67, "velocity": 112, "channel": 0}, {"type": "note_on", "time": 13, "note": 65, "velocity": 114, "channel": 0}, {"type": "note_off", "time": 206, "note": 65, "velocity": 114, "channel": 0}, {"type": "note_on", "time": 9, "note": 67, "velocity": 108, "channel": 0}, {"type": "note_off", "time": 50, "note": 67, "velocity": 108, "channel": 0}, {"type": "note_on", "time": 13, "note": 64, "velocity": 113, "channel": 0}, {"type": "note_off", "time": 556, "note": 64, "velocity": 113, "channel": 0}, {"type": "note_on", "time": 12, "note": 69, "velocity": 115, "channel": 0}, {"type": "note_off", "time": 118, "note": 69, "velocity": 115, "channel": 0}, {"type": "note_on", "time": 14, "note": 71, "velocity": 113, "channel": 0}, {"type": "note_off", "time": 56, "note": 71, "velocity": 113, "channel": 0}, {"type": "note_on", "time": 12, "note": 72, "velocity": 118, "channel": 0}, {"type": "note_off", "time": 104, "note": 72, "velocity": 118, "channel": 0}, {"type": "note_on", "time": 10, "note": 71, "velocity": 114, "channel": 0}, {"type": "note_off", "time": 61, "note": 71, "velocity": 114, "channel": 0}, {"type": "note_on", "time": 12, "note": 69, "velocity": 113, "channel": 0}, {"type": "note_off", "time": 113, "note": 69, "velocity": 113, "channel": 0}, {"type": "note_on", "time": 19, "note": 67, "velocity": 112, "channel": 0}, {"type": "note_off", "time": 77, "note": 67, "velocity": 112, "channel": 0}, {"type": "note_on", "time": 19, "note": 66, "velocity": 95, "channel": 0}, {"type": "note_off", "time": 86, "note": 66, "velocity": 95, "channel": 0}, {"type": "note_on", "time": 67, "note": 72, "velocity": 117, "channel": 0}, {"type": "note_off", "time": 120, "note": 72, "velocity": 117, "channel": 0}, {"type": "note_on", "time": 5, "note": 75, "velocity": 118, "channel": 0}, {"type": "note_off", "time": 100, "note": 75, "velocity": 118, "channel": 0}, {"type": "note_on", "time": 4, "note": 74, "velocity": 118, "channel": 0}, {"type": "note_off", "time": 80, "note": 74, "velocity": 118, "channel": 0}, {"type": "note_on", "time": 10, "note": 72, "velocity": 114, "channel": 0}, {"type": "note_off", "time": 72, "note": 72, "velocity": 114, "channel": 0}, {"type": "note_on", "time": 6, "note": 71, "velocity": 111, "channel": 0}, {"type": "note_off", "time": 55, "note": 71, "velocity": 111, "channel": 0}, {"type": "note_on", "time": 10, "note": 74, "velocity": 93, "channel": 0}, {"type": "note_off", "time": 68, "note": 74, "velocity": 93, "channel": 0}, {"type": "note_on", "time": 12, "note": 76, "velocity": 100, "channel": 0}, {"type": "note_off", "time": 44, "note": 76, "velocity": 100, "channel": 0}, {"type": "note_on", "time": 4, "note": 81, "velocity": 121, "channel": 0}, {"type": "note_off", "time": 102, "note": 81, "velocity": 121, "channel": 0}, {"type": "note_on", "time": 28, "note": 84, "velocity": 119, "channel": 0}, {"type": "note_off", "time": 58, "note": 84, "velocity": 119, "channel": 0}, {"type": "note_on", "time": 12, "note": 83, "velocity": 119, "channel": 0}, {"type": "note_off", "time": 112, "note": 83, "velocity": 119, "channel": 0}, {"type": "note_on", "time": 15, "note": 85, "velocity": 122, "channel": 0}, {"type": "note_off", "time": 317, "note": 85, "velocity": 122, "channel": 0}, {"type": "note_on", "time": 903, "note": 79, "velocity": 115, "channel": 0}, {"type": "note_off", "time": 82, "note": 79, "velocity": 115, "channel": 0}, {"type": "note_on", "time": 10, "note": 81, "velocity": 96, "channel": 0}, {"type": "note_off", "time": 55, "note": 81, "velocity": 96, "channel": 0}, {"type": "note_on", "time": 12, "note": 86, "velocity": 85, "channel": 0}, {"type": "note_off", "time": 117, "note": 86, "velocity": 85, "channel": 0}, {"type": "note_on", "time": 64, "note": 89, "velocity": 122, "channel": 0}, {"type": "note_off", "time": 73, "note": 89, "velocity": 122, "channel": 0}, {"type": "note_on", "time": 6, "note": 88, "velocity": 120, "channel": 0}, {"type": "note_off", "time": 285, "note": 88, "velocity": 120, "channel": 0}, {"type": "note_on", "time": 4, "note": 83, "velocity": 96, "channel": 0}, {"type": "note_off", "time": 56, "note": 83, "velocity": 96, "channel": 0}, {"type": "note_on", "time": 18, "note": 86, "velocity": 124, "channel": 0}, {"type": "note_off", "time": 113, "note": 86, "velocity": 124, "channel": 0}, {"type": "note_on", "time": 19, "note": 84, "velocity": 113, "channel": 0}, {"type": "note_off", "time": 120, "note": 84, "velocity": 113, "channel": 0}, {"type": "note_on", "time": 67, "note": 74, "velocity": 97, "channel": 0}, {"type": "note_off", "time": 41, "note": 74, "velocity": 97, "channel": 0}, {"type": "note_on", "time": 8, "note": 82, "velocity": 119, "channel": 0}, {"type": "note_off", "time": 117, "note": 82, "velocity": 119, "channel": 0}, {"type": "note_on", "time": 9, "note": 81, "velocity": 116, "channel": 0}, {"type": "note_off", "time": 61, "note": 81, "velocity": 116, "channel": 0}, {"type": "note_on", "time": 8, "note": 80, "velocity": 114, "channel": 0}, {"type": "note_off", "time": 98, "note": 80, "velocity": 114, "channel": 0}, {"type": "note_on", "time": 16, "note": 78, "velocity": 105, "channel": 0}, {"type": "note_off", "time": 46, "note": 78, "velocity": 105, "channel": 0}, {"type": "note_on", "time": 36, "note": 77, "velocity": 114, "channel": 0}, {"type": "note_off", "time": 96, "note": 77, "velocity": 114, "channel": 0}, {"type": "note_on", "time": 19, "note": 74, "velocity": 117, "channel": 0}, {"type": "note_off", "time": 71, "note": 74, "velocity": 117, "channel": 0}, {"type": "note_on", "time": 9, "note": 75, "velocity": 115, "channel": 0}, {"type": "note_off", "time": 106, "note": 75, "velocity": 115, "channel": 0}, {"type": "note_on", "time": 12, "note": 70, "velocity": 104, "channel": 0}, {"type": "note_off", "time": 285, "note": 70, "velocity": 104, "channel": 0}, {"type": "note_on", "time": 870, "note": 77, "velocity": 110, "channel": 0}, {"type": "note_off", "time": 47, "note": 77, "velocity": 110, "channel": 0}, {"type": "note_on", "time": 54, "note": 89, "velocity": 110, "channel": 0}, {"type": "note_off", "time": 215, "note": 89, "velocity": 110, "channel": 0}, {"type": "note_on", "time": 13, "note": 86, "velocity": 105, "channel": 0}, {"type": "note_off", "time": 210, "note": 86, "velocity": 105, "channel": 0}, {"type": "note_on", "time": 3, "note": 89, "velocity": 112, "channel": 0}, {"type": "note_off", "time": 148, "note": 89, "velocity": 112, "channel": 0}, {"type": "note_on", "time": 18, "note": 86, "velocity": 93, "channel": 0}, {"type": "note_off", "time": 174, "note": 86, "velocity": 93, "channel": 0}, {"type": "note_on", "time": 0, "note": 89, "velocity": 89, "channel": 0}, {"type": "note_off", "time": 219, "note": 89, "velocity": 89, "channel": 0}, {"type": "note_on", "time": 9, "note": 86, "velocity": 85, "channel": 0}, {"type": "note_off", "time": 168, "note": 86, "velocity": 85, "channel": 0}, {"type": "note_on", "time": 11, "note": 89, "velocity": 80, "channel": 0}, {"type": "note_off", "time": 208, "note": 89, "velocity": 80, "channel": 0}, {"type": "note_on", "time": 9, "note": 86, "velocity": 88, "channel": 0}, {"type": "note_off", "time": 185, "note": 86, "velocity": 88, "channel": 0}, {"type": "note_on", "time": 8, "note": 89, "velocity": 110, "channel": 0}, {"type": "note_off", "time": 204, "note": 89, "velocity": 110, "channel": 0}, {"type": "note_on", "time": 13, "note": 86, "velocity": 111, "channel": 0}, {"type": "note_off", "time": 204, "note": 86, "velocity": 111, "channel": 0}, {"type": "note_on", "time": 26, "note": 82, "velocity": 85, "channel": 0}, {"type": "note_off", "time": 169, "note": 82, "velocity": 85, "channel": 0}, {"type": "note_on", "time": 27, "note": 79, "velocity": 80, "channel": 0}, {"type": "note_off", "time": 46, "note": 79, "velocity": 80, "channel": 0}, {"type": "note_on", "time": 26, "note": 84, "velocity": 117, "channel": 0}, {"type": "note_off", "time": 185, "note": 84, "velocity": 117, "channel": 0}, {"type": "note_on", "time": 17, "note": 82, "velocity": 117, "channel": 0}, {"type": "note_off", "time": 107, "note": 82, "velocity": 117, "channel": 0}, {"type": "note_on", "time": 13, "note": 80, "velocity": 114, "channel": 0}, {"type": "note_off", "time": 67, "note": 80, "velocity": 114, "channel": 0}, {"type": "note_on", "time": 9, "note": 79, "velocity": 116, "channel": 0}, {"type": "note_off", "time": 84, "note": 79, "velocity": 116, "channel": 0}, {"type": "note_on", "time": 14, "note": 77, "velocity": 115, "channel": 0}, {"type": "note_off", "time": 75, "note": 77, "velocity": 115, "channel": 0}, {"type": "note_on", "time": 8, "note": 75, "velocity": 117, "channel": 0}, {"type": "note_off", "time": 117, "note": 75, "velocity": 117, "channel": 0}, {"type": "note_on", "time": 90, "note": 74, "velocity": 113, "channel": 0}, {"type": "note_off", "time": 101, "note": 74, "velocity": 113, "channel": 0}, {"type": "note_on", "time": 10, "note": 70, "velocity": 115, "channel": 0}, {"type": "note_off", "time": 65, "note": 70, "velocity": 115, "channel": 0}, {"type": "note_on", "time": 12, "note": 69, "velocity": 106, "channel": 0}, {"type": "note_off", "time": 67, "note": 69, "velocity": 106, "channel": 0}, {"type": "note_on", "time": 113, "note": 72, "velocity": 115, "channel": 0}, {"type": "note_off", "time": 112, "note": 72, "velocity": 115, "channel": 0}, {"type": "note_on", "time": 12, "note": 68, "velocity": 111, "channel": 0}, {"type": "note_off", "time": 80, "note": 68, "velocity": 111, "channel": 0}, {"type": "note_on", "time": 211, "note": 70, "velocity": 116, "channel": 0}, {"type": "note_off", "time": 112, "note": 70, "velocity": 116, "channel": 0}, {"type": "note_on", "time": 12, "note": 67, "velocity": 93, "channel": 0}, {"type": "note_off", "time": 54, "note": 67, "velocity": 93, "channel": 0}, {"type": "note_on", "time": 12, "note": 68, "velocity": 106, "channel": 0}, {"type": "note_off", "time": 97, "note": 68, "velocity": 106, "channel": 0}, {"type": "note_on", "time": 26, "note": 70, "velocity": 118, "channel": 0}, {"type": "note_off", "time": 78, "note": 70, "velocity": 118, "channel": 0}, {"type": "note_on", "time": 9, "note": 68, "velocity": 108, "channel": 0}, {"type": "note_off", "time": 49, "note": 68, "velocity": 108, "channel": 0}, {"type": "note_on", "time": 11, "note": 70, "velocity": 102, "channel": 0}, {"type": "note_off", "time": 42, "note": 70, "velocity": 102, "channel": 0}, {"type": "note_on", "time": 15, "note": 68, "velocity": 111, "channel": 0}, {"type": "note_off", "time": 56, "note": 68, "velocity": 111, "channel": 0}, {"type": "note_on", "time": 17, "note": 67, "velocity": 112, "channel": 0}, {"type": "note_off", "time": 88, "note": 67, "velocity": 112, "channel": 0}, {"type": "note_on", "time": 17, "note": 65, "velocity": 106, "channel": 0}, {"type": "note_off", "time": 111, "note": 65, "velocity": 106, "channel": 0}, {"type": "note_on", "time": 83, "note": 70, "velocity": 106, "channel": 0}, {"type": "note_off", "time": 66, "note": 70, "velocity": 106, "channel": 0}, {"type": "note_on", "time": 14, "note": 73, "velocity": 111, "channel": 0}, {"type": "note_off", "time": 93, "note": 73, "velocity": 111, "channel": 0}, {"type": "note_on", "time": 9, "note": 74, "velocity": 117, "channel": 0}, {"type": "note_off", "time": 65, "note": 74, "velocity": 117, "channel": 0}, {"type": "note_on", "time": 9, "note": 75, "velocity": 116, "channel": 0}, {"type": "note_off", "time": 102, "note": 75, "velocity": 116, "channel": 0}, {"type": "note_on", "time": 16, "note": 76, "velocity": 116, "channel": 0}, {"type": "note_off", "time": 64, "note": 76, "velocity": 116, "channel": 0}, {"type": "note_on", "time": 9, "note": 77, "velocity": 116, "channel": 0}, {"type": "note_off", "time": 113, "note": 77, "velocity": 116, "channel": 0}, {"type": "note_on", "time": 128, "note": 70, "velocity": 106, "channel": 0}, {"type": "note_off", "time": 67, "note": 70, "velocity": 106, "channel": 0}, {"type": "note_on", "time": 9, "note": 74, "velocity": 115, "channel": 0}, {"type": "note_off", "time": 65, "note": 74, "velocity": 115, "channel": 0}, {"type": "note_on", "time": 5, "note": 73, "velocity": 107, "channel": 0}, {"type": "note_off", "time": 129, "note": 73, "velocity": 107, "channel": 0}, {"type": "note_on", "time": 89, "note": 72, "velocity": 117, "channel": 0}, {"type": "note_off", "time": 90, "note": 72, "velocity": 117, "channel": 0}, {"type": "note_on", "time": 12, "note": 68, "velocity": 107, "channel": 0}, {"type": "note_off", "time": 60, "note": 68, "velocity": 107, "channel": 0}, {"type": "note_on", "time": 14, "note": 67, "velocity": 107, "channel": 0}, {"type": "note_off", "time": 117, "note": 67, "velocity": 107, "channel": 0}, {"type": "note_on", "time": 84, "note": 70, "velocity": 111, "channel": 0}, {"type": "note_off", "time": 146, "note": 70, "velocity": 111, "channel": 0}, {"type": "end_of_track", "time": 0}]]}