{"ticks_per_beat": 840, "tracks": [[{"type": "track_name", "name": "Melody", "time": 0}, {"type": "set_tempo", "tempo": 845070, "time": 0}, {"type": "key_signature", "key": "G", "time": 0}, {"type": "time_signature", "numerator": 4, "denominator": 4, "clocks_per_click": 24, "notated_32nd_notes_per_beat": 8, "time": 0}, {"type": "note_on", "time": 8940, "note": 55, "velocity": 116, "channel": 0}, {"type": "note_off", "time": 219, "note": 55, "velocity": 116, "channel": 0}, {"type": "note_on", "time": 23, "note": 51, "velocity": 109, "channel": 0}, {"type": "note_off", "time": 190, "note": 51, "velocity": 109, "channel": 0}, {"type": "note_on", "time": 23, "note": 53, "velocity": 110, "channel": 0}, {"type": "note_off", "time": 167, "note": 53, "velocity": 110, "channel": 0}, {"type": "note_on", "time": 57, "note": 57, "velocity": 115, "channel": 0}, {"type": "note_off", "time": 150, "note": 57, "velocity": 115, "channel": 0}, {"type": "note_on", "time": 11, "note": 60, "velocity": 120, "channel": 0}, {"type": "note_off", "time": 155, "note": 60, "velocity": 120, "channel": 0}, {"type": "note_on", "time": 40, "note": 62, "velocity": 116, "channel": 0}, {"type": "note_off", "time": 167, "note": 62, "velocity": 116, "channel": 0}, {"type": "note_on", "time": 40, "note": 64, "velocity": 116, "channel": 0}, {"type": "note_off", "time": 184, "note": 64, "velocity": 116, "channel": 0}, {"type": "note_on", "time": 5, "note": 67, "velocity": 115, "channel": 0}, {"type": "note_off", "time": 173, "note": 67, "velocity": 115, "channel": 0}, {"type": "note_on", "time": 0, "note": 65, "velocity": 108, "channel": 0}, {"type": "note_off", "time": 36, "note": 65, "velocity": 108, "channel": 0}, {"type": "note_on", "time": 20, "note": 67, "velocity": 117, "channel": 0}, {"type": "note_off", "time": 85, "note": 67, "velocity": 117, "channel": 0}, {"type": "note_on", "time": 12, "note": 65, "velocity": 108, "channel": 0}, {"type": "note_off", "time": 60, "note": 65, "velocity": 108, "channel": 0}, {"type": "note_on", "time": 8, "note": 62, "velocity": 109, "channel": 0}, {"type": "note_off", "time": 162, "note": 62, "velocity": 109, "channel": 0}, {"type": "note_on", "time": 32, "note": 64, "velocity": 115, "channel": 0}, {"type": "note_off", "time": 166, "note": 64, "velocity": 115, "channel": 0}, {"type": "note_on", "time": 52, "note": 60, "velocity": 114, "channel": 0}, {"type": "note_off", "time": 174, "note": 60, "velocity": 114, "channel": 0}, {"type": "note_on", "time": 8, "note": 57, "velocity": 101, "channel": 0}, {"type": "note_off", "time": 182, "note": 57, "velocity": 101, "channel": 0}, {"type": "note_on", "time": 56, "note": 62, "velocity": 107, "channel": 0}, {"type": "note_off", "time": 535, "note": 62, "velocity": 107, "channel": 0}, {"type": "note_on", "time": 40, "note": 58, "velocity": 102, "channel": 0}, {"type": "note_off", "time": 194, "note": 58, "velocity": 102, "channel": 0}, {"type": "note_on", "time": 64, "note": 53, "velocity": 97, "channel": 0}, {"type": "note_off", "time": 150, "note": 53, "velocity": 97, "channel": 0}, {"type": "note_on", "time": 77, "note": 57, "velocity": 107, "channel": 0}, {"type": "note_off", "time": 154, "note": 57, "velocity": 107, "channel": 0}, {"type": "note_on", "time": 93, "note": 52, "velocity": 89, "channel": 0}, {"type": "note_off", "time": 121, "note": 52, "velocity": 89, "channel": 0}, {"type": "note_on", "time": 52, "note": 55, "velocity": 103, "channel": 0}, {"type": "note_off", "time": 166, "note": 55, "velocity": 103, "channel": 0}, {"type": "note_on", "time": 24, "note": 53, "velocity": 102, "channel": 0}, {"type": "note_off", "time": 125, "note": 53, "velocity": 102, "channel": 0}, {"type": "note_on", "time": 44, "note": 50, "velocity": 84, "channel": 0}, {"type": "note_off", "time": 389, "note": 50, "velocity": 84, "channel": 0}, {"type": "note_on", "time": 677, "note": 53, "velocity": 114, "channel": 0}, {"type": "note_off", "time": 158, "note": 53, "velocity": 114, "channel": 0}, {"type": "note_on", "time": 12, "note": 57, "velocity": 113, "channel": 0}, {"type": "note_off", "time": 121, "note": 57, "velocity": 113, "channel": 0}, {"type": "note_on", "time": 0, "note": 60, "velocity": 117, "channel": 0}, {"type": "note_off", "time": 97, "note": 60, "velocity": 117, "channel": 0}, {"type": "note_on", "time": 40, "note": 62, "velocity": 113, "channel": 0}, {"type": "note_off", "time": 137, "note": 62, "velocity": 113, "channel": 0}, {"type": "note_on", "time": 28, "note": 64, "velocity": 112, "channel": 0}, {"type": "note_off", "time": 219, "note": 64, "velocity": 112, "channel": 0}, {"type": "note_on", "time": 20, "note": 67, "velocity": 120, "channel": 0}, {"type": "note_off", "time": 170, "note": 67, "velocity": 120, "channel": 0}, {"type": "note_on", "time": 24, "note": 65, "velocity": 116, "channel": 0}, {"type": "note_off", "time": 190, "note": 65, "velocity": 116, "channel": 0}, {"type": "note_on", "time": 40, "note": 60, "velocity": 118, "channel": 0}, {"type": "note_off", "time": 202, "note": 60, "velocity": 118, "channel": 0}, {"type": "note_on", "time": 20, "note": 67, "velocity": 109, "channel": 0}, {"type": "note_off", "time": 40, "note": 67, "velocity": 109, "channel": 0}, {"type": "note_on", "time": 4, "note": 68, "velocity": 112, "channel": 0}, {"type": "note_off", "time": 186, "note": 68, "velocity": 112, "channel": 0}, {"type": "note_on", "time": 32, "note": 67, "velocity": 110, "channel": 0}, {"type": "note_on", "time": 48, "note": 68, "velocity": 110, "channel": 0}, {"type": "note_off", "time": 0, "note": 67, "velocity": 110, "channel": 0}, {"type": "note_off", "time": 129, "note": 68, "velocity": 110, "channel": 0}, {"type": "note_on", "time": 0, "note": 65, "velocity": 105, "channel": 0}, {"type": "note_off", "time": 166, "note": 65, "velocity": 105, "channel": 0}, {"type": "note_on", "time": 24, "note": 58, "velocity": 103, "channel": 0}, {"type": "note_off", "time": 162, "note": 58, "velocity": 103, "channel": 0}, {"type": "note_on", "time": 0, "note": 62, "velocity": 94, "channel": 0}, {"type": "note_off", "time": 24, "note": 62, "velocity": 94, "channel": 0}, {"type": "note_on", "time": 12, "note": 63, "velocity": 112, "channel": 0}, {"type": "note_off", "time": 170, "note": 63, "velocity": 112, "channel": 0}, {"type": "note_on", "time": 12, "note": 62, "velocity": 86, "channel": 0}, {"type": "note_off", "time": 40, "note": 62, "velocity": 86, "channel": 0}, {"type": "note_on", "time": 12, "note": 63, "velocity": 111, "channel": 0}, {"type": "note_off", "time": 142, "note": 63, "velocity": 111, "channel": 0}, {"type": "note_on", "time": 0, "note": 61, "velocity": 104, "channel": 0}, {"type": "note_off", "time": 624, "note": 61, "velocity": 104, "channel": 0}, {"type": "note_on", "time": 600, "note": 67, "velocity": 115, "channel": 0}, {"type": "note_on", "time": 52, "note": 68, "velocity": 115, "channel": 0}, {"type": "note_off", "time": 0, "note": 67, "velocity": 115, "channel": 0}, {"type": "note_off", "time": 141, "note": 68, "velocity": 115, "channel": 0}, {"type": "note_on", "time": 52, "note": 67, "velocity": 114, "channel": 0}, {"type": "note_off", "time": 44, "note": 67, "velocity": 114, "channel": 0}, {"type": "note_on", "time": 4, "note": 68, "velocity": 112, "channel": 0}, {"type": "note_off", "time": 125, "note": 68, "velocity": 112, "channel": 0}, {"type": "note_on", "time": 36, "note": 65, "velocity": 112, "channel": 0}, {"type": "note_off", "time": 178, "note": 65, "velocity": 112, "channel": 0}, {"type": "note_on", "time": 16, "note": 58, "velocity": 107, "channel": 0}, {"type": "note_off", "time": 198, "note": 58, "velocity": 107, "channel": 0}, {"type": "note_on", "time": 20, "note": 62, "velocity": 112, "channel": 0}, {"type": "note_off", "time": 40, "note": 62, "velocity": 112, "channel": 0}, {"type": "note_on", "time": 0, "note": 63, "velocity": 112, "channel": 0}, {"type": "note_off", "time": 154, "note": 63, "velocity": 112, "channel": 0}, {"type": "note_on", "time": 28, "note": 62, "velocity": 93, "channel": 0}, {"type": "note_off", "time": 32, "note": 62, "velocity": 93, "channel": 0}, {"type": "note_on", "time": 12, "note": 63, "velocity": 106, "channel": 0}, {"type": "note_off", "time": 154, "note": 63, "velocity": 106, "channel": 0}, {"type": "note_on", "time": 16, "note": 61, "velocity": 112, "channel": 0}, {"type": "note_off", "time": 381, "note": 61, "velocity": 112, "channel": 0}, {"type": "note_on", "time": 0, "note": 57, "velocity": 105, "channel": 0}, {"type": "note_off", "time": 40, "note": 57, "velocity": 105, "channel": 0}, {"type": "note_on", "time": 0, "note": 58, "velocity": 97, "channel": 0}, {"type": "note_off", "time": 158, "note": 58, "velocity": 97, "channel": 0}, {"type": "note_on", "time": 44, "note": 57, "velocity": 99, "channel": 0}, {"type": "note_off", "time": 44, "note": 57, "velocity": 99, "channel": 0}, {"type": "note_on", "time": 4, "note": 58, "velocity": 99, "channel": 0}, {"type": "note_off", "time": 129, "note": 58, "velocity": 99, "channel": 0}, {"type": "note_on", "time": 0, "note": 56, "velocity": 108, "channel": 0}, {"type": "note_off", "time": 279, "note": 56, "velocity": 108, "channel": 0}, {"type": "note_on", "time": 0, "note": 49, "velocity": 84, "channel": 0}, {"type": "note_off", "time": 121, "note": 49, "velocity": 84, "channel": 0}, {"type": "note_on", "time": 12, "note": 52, "velocity": 99, "channel": 0}, {"type": "note_off", "time": 40, "note": 52, "velocity": 99, "channel": 0}, {"type": "note_on", "time": 0, "note": 53, "velocity": 97, "channel": 0}, {"type": "note_off", "time": 142, "note": 53, "velocity": 97, "channel": 0}, {"type": "note_on", "time": 52, "note": 52, "velocity": 89, "channel": 0}, {"type": "note_off", "time": 56, "note": 52, "velocity": 89, "channel": 0}, {"type": "note_on", "time": 16, "note": 53, "velocity": 91, "channel": 0}, {"type": "note_off", "time": 129, "note": 53, "velocity": 91, "channel": 0}, {"type": "note_on", "time": 0, "note": 51, "velocity": 86, "channel": 0}, {"type": "note_off", "time": 413, "note": 51, "velocity": 86, "channel": 0}, {"type": "note_on", "time": 275, "note": 49, "velocity": 97, "channel": 0}, {"type": "note_off", "time": 73, "note": 49, "velocity": 97, "channel": 0}, {"type": "note_on", "time": 24, "note": 51, "velocity": 98, "channel": 0}, {"type": "note_off", "time": 64, "note": 51, "velocity": 98, "channel": 0}, {"type": "note_on", "time": 28, "note": 58, "velocity": 95, "channel": 0}, {"type": "note_off", "time": 109, "note": 58, "velocity": 95, "channel": 0}, {"type": "note_on", "time": 12, "note": 56, "velocity": 96, "channel": 0}, {"type": "note_off", "time": 210, "note": 56, "velocity": 96, "channel": 0}, {"type": "note_on", "time": 142, "note": 55, "velocity": 95, "channel": 0}, {"type": "note_off", "time": 194, "note": 55, "velocity": 95, "channel": 0}, {"type": "note_on", "time": 60, "note": 55, "velocity": 97, "channel": 0}, {"type": "note_off", "time": 133, "note": 55, "velocity": 97, "channel": 0}, {"type": "note_on", "time": 32, "note": 53, "velocity": 93, "channel": 0}, {"type": "note_off", "time": 166, "note": 53, "velocity": 93, "channel": 0}, {"type": "note_on", "time": 61, "note": 48, "velocity": 91, "channel": 0}, {"type": "note_off", "time": 588, "note": 48, "velocity": 91, "channel": 0}, {"type": "note_on", "time": 526, "note": 57, "velocity": 119, "channel": 0}, {"type": "note_off", "time": 170, "note": 57, "velocity": 119, "channel": 0}, {"type": "note_on", "time": 4, "note": 60, "velocity": 117, "channel": 0}, {"type": "note_off", "time": 137, "note": 60, "velocity": 117, "channel": 0}, {"type": "note_on", "time": 24, "note": 62, "velocity": 115, "channel": 0}, {"type": "note_off", "time": 137, "note": 62, "velocity": 115, "channel": 0}, {"type": "note_on", "time": 24, "note": 64, "velocity": 119, "channel": 0}, {"type": "note_off", "time": 182, "note": 64, "velocity": 119, "channel": 0}, {"type": "note_on", "time": 12, "note": 67, "velocity": 121, "channel": 0}, {"type": "note_off", "time": 206, "note": 67, "velocity": 121, "channel": 0}, {"type": "note_on", "time": 28, "note": 64, "velocity": 118, "channel": 0}, {"type": "note_off", "time": 146, "note": 64, "velocity": 118, "channel": 0}, {"type": "note_on", "time": 20, "note": 65, "velocity": 112, "channel": 0}, {"type": "note_off", "time": 219, "note": 65, "velocity": 112, "channel": 0}, {"type": "note_on", "time": 0, "note": 69, "velocity": 116, "channel": 0}, {"type": "note_off", "time": 251, "note": 69, "velocity": 116, "channel": 0}, {"type": "note_on", "time": 0, "note": 73, "velocity": 107, "channel": 0}, {"type": "note_off", "time": 44, "note": 73, "velocity": 107, "channel": 0}, {"type": "note_on", "time": 0, "note": 74, "velocity": 115, "channel": 0}, {"type": "note_off", "time": 194, "note": 74, "velocity": 115, "channel": 0}, {"type": "note_on", "time": 16, "note": 73, "velocity": 108, "channel": 0}, {"type": "note_off", "time": 166, "note": 73, "velocity": 108, "channel": 0}, {"type": "note_on", "time": 16, "note": 72, "velocity": 114, "channel": 0}, {"type": "note_off", "time": 150, "note": 72, "velocity": 114, "channel": 0}, {"type": "note_on", "time": 4, "note": 69, "velocity": 115, "channel": 0}, {"type": "note_off", "time": 105, "note": 69, "velocity": 115, "channel": 0}, {"type": "note_on", "time": 32, "note": 64, "velocity": 112, "channel": 0}, {"type": "note_off", "time": 158, "note": 64, "velocity": 112, "channel": 0}, {"type": "note_on", "time": 4, "note": 67, "velocity": 111, "channel": 0}, {"type": "note_off", "time": 129, "note": 67, "velocity": 111, "channel": 0}, {"type": "note_on", "time": 0, "note": 65, "velocity": 106, "channel": 0}, {"type": "note_off", "time": 52, "note": 65, "velocity": 106, "channel": 0}, {"type": "note_on", "time": 24, "note": 62, "velocity": 111, "channel": 0}, {"type": "note_off", "time": 141, "note": 62, "velocity": 111, "channel": 0}, {"type": "note_on", "time": 28, "note": 64, "velocity": 110, "channel": 0}, {"type": "note_off", "time": 117, "note": 64, "velocity": 110, "channel": 0}, {"type": "note_on", "time": 8, "note": 60, "velocity": 106, "channel": 0}, {"type": "note_off", "time": 113, "note": 60, "velocity": 106, "channel": 0}, {"type": "note_on", "time": 36, "note": 57, "velocity": 92, "channel": 0}, {"type": "note_off", "time": 584, "note": 57, "velocity": 92, "channel": 0}, {"type": "note_on", "time": 503, "note": 55, "velocity": 119, "channel": 0}, {"type": "note_off", "time": 48, "note": 55, "velocity": 119, "channel": 0}, {"type": "note_on", "time": 0, "note": 56, "velocity": 120, "channel": 0}, {"type": "note_off", "time": 166, "note": 56, "velocity": 120, "channel": 0}, {"type": "note_on", "time": 44, "note": 55, "velocity": 118, "channel": 0}, {"type": "note_off", "time": 28, "note": 55, "velocity": 118, "channel": 0}, {"type": "note_on", "time": 0, "note": 56, "velocity": 116, "channel": 0}, {"type": "note_off", "time": 150, "note": 56, "velocity": 116, "channel": 0}, {"type": "note_on", "time": 28, "note": 55, "velocity": 115, "channel": 0}, {"type": "note_off", "time": 184, "note": 55, "velocity": 115, "channel": 0}, {"type": "note_on", "time": 23, "note": 60, "velocity": 118, "channel": 0}, {"type": "note_off", "time": 69, "note": 60, "velocity": 118, "channel": 0}, {"type": "note_on", "time": 0, "note": 63, "velocity": 100, "channel": 0}, {"type": "note_off", "time": 1615, "note": 63, "velocity": 100, "channel": 0}, {"type": "note_on", "time": 184, "note": 62, "velocity": 104, "channel": 0}, {"type": "note_off", "time": 121, "note": 62, "velocity": 104, "channel": 0}, {"type": "note_on", "time": 36, "note": 60, "velocity": 112, "channel": 0}, {"type": "note_off", "time": 154, "note": 60, "velocity": 112, "channel": 0}, {"type": "note_on", "time": 16, "note": 58, "velocity": 104, "channel": 0}, {"type": "note_off", "time": 154, "note": 58, "velocity": 104, "channel": 0}, {"type": "note_on", "time": 36, "note": 57, "velocity": 107, "channel": 0}, {"type": "note_off", "time": 162, "note": 57, "velocity": 107, "channel": 0}, {"type": "note_on", "time": 68, "note": 55, "velocity": 100, "channel": 0}, {"type": "note_off", "time": 190, "note": 55, "velocity": 100, "channel": 0}, {"type": "note_on", "time": 52, "note": 51, "velocity": 97, "channel": 0}, {"type": "note_off", "time": 170, "note": 51, "velocity": 97, "channel": 0}, {"type": "note_on", "time": 24, "note": 48, "velocity": 86, "channel": 0}, {"type": "note_off", "time": 93, "note": 48, "velocity": 86, "channel": 0}, {"type": "note_on", "time": 52, "note": 50, "velocity": 91, "channel": 0}, {"type": "note_off", "time": 166, "note": 50, "velocity": 91, "channel": 0}, {"type": "note_on", "time": 64, "note": 54, "velocity": 100, "channel": 0}, {"type": "note_off", "time": 142, "note": 54, "velocity": 100, "channel": 0}, {"type": "note_on", "time": 32, "note": 57, "velocity": 84, "channel": 0}, {"type": "note_off", "time": 665, "note": 57, "velocity": 84, "channel": 0}, {"type": "note_on", "time": 316, "note": 55, "velocity": 108, "channel": 0}, {"type": "note_off", "time": 442, "note": 55, "velocity": 108, "channel": 0}, {"type": "note_on", "time": 52, "note": 57, "velocity": 112, "channel": 0}, {"type": "note_off", "time": 109, "note": 57, "velocity": 112, "channel": 0}, {"type": "note_on", "time": 28, "note": 60, "velocity": 117, "channel": 0}, {"type": "note_off", "time": 146, "note": 60, "velocity": 117, "channel": 0}, {"type": "note_on", "time": 85, "note": 62, "velocity": 113, "channel": 0}, {"type": "note_off", "time": 170, "note": 62, "velocity": 113, "channel": 0}, {"type": "note_on", "time": 28, "note": 63, "velocity": 114, "channel": 0}, {"type": "note_off", "time": 158, "note": 63, "velocity": 114, "channel": 0}, {"type": "note_on", "time": 12, "note": 62, "velocity": 110, "channel": 0}, {"type": "note_off", "time": 409, "note": 62, "velocity": 110, "channel": 0}, {"type": "note_on", "time": 16, "note": 60, "velocity": 112, "channel": 0}, {"type": "note_off", "time": 166, "note": 60, "velocity": 112, "channel": 0}, {"type": "note_on", "time": 20, "note": 58, "velocity": 100, "channel": 0}, {"type": "note_off", "time": 113, "note": 58, "velocity": 100, "channel": 0}, {"type": "note_on", "time": 64, "note": 54, "velocity": 103, "channel": 0}, {"type": "note_off", "time": 89, "note": 54, "velocity": 103, "channel": 0}, {"type": "note_on", "time": 28, "note": 57, "velocity": 102, "channel": 0}, {"type": "note_off", "time": 89, "note": 57, "velocity": 102, "channel": 0}, {"type": "note_on", "time": 24, "note": 55, "velocity": 98, "channel": 0}, {"type": "note_off", "time": 81, "note": 55, "velocity": 98, "channel": 0}, {"type": "note_on", "time": 44, "note": 51, "velocity": 97, "channel": 0}, {"type": "note_off", "time": 150, "note": 51, "velocity": 97, "channel": 0}, {"type": "note_on", "time": 8, "note": 50, "velocity": 89, "channel": 0}, {"type": "note_off", "time": 389, "note": 50, "velocity": 89, "channel": 0}, {"type": "note_on", "time": 474, "note": 51, "velocity": 108, "channel": 0}, {"type": "note_off", "time": 182, "note": 51, "velocity": 108, "channel": 0}, {"type": "note_on", "time": 28, "note": 50, "velocity": 98, "channel": 0}, {"type": "note_off", "time": 186, "note": 50, "velocity": 98, "channel": 0}, {"type": "note_on", "time": 68, "note": 56, "velocity": 100, "channel": 0}, {"type": "note_off", "time": 125, "note": 56, "velocity": 100, "channel": 0}, {"type": "note_on", "time": 0, "note": 58, "velocity": 86, "channel": 0}, {"type": "note_off", "time": 1038, "note": 58, "velocity": 86, "channel": 0}, {"type": "note_on", "time": 507, "note": 49, "velocity": 109, "channel": 0}, {"type": "note_off", "time": 215, "note": 49, "velocity": 109, "channel": 0}, {"type": "note_on", "time": 16, "note": 52, "velocity": 107, "channel": 0}, {"type": "note_off", "time": 194, "note": 52, "velocity": 107, "channel": 0}, {"type": "note_on", "time": 24, "note": 55, "velocity": 115, "channel": 0}, {"type": "note_off", "time": 210, "note": 55, "velocity": 115, "channel": 0}, {"type": "note_on", "time": 16, "note": 58, "velocity": 118, "channel": 0}, {"type": "note_off", "time": 154, "note": 58, "velocity": 118, "channel": 0}, {"type": "note_on", "time": 0, "note": 60, "velocity": 119, "channel": 0}, {"type": "note_off", "time": 137, "note": 60, "velocity": 119, "channel": 0}, {"type": "note_on", "time": 20, "note": 61, "velocity": 118, "channel": 0}, {"type": "note_off", "time": 150, "note": 61, "velocity": 118, "channel": 0}, {"type": "note_on", "time": 20, "note": 58, "velocity": 103, "channel": 0}, {"type": "note_off", "time": 141, "note": 58, "velocity": 103, "channel": 0}, {"type": "note_on", "time": 8, "note": 52, "velocity": 103, "channel": 0}, {"type": "note_off", "time": 121, "note": 52, "velocity": 103, "channel": 0}, {"type": "note_on", "time": 68, "note": 49, "velocity": 102, "channel": 0}, {"type": "note_off", "time": 146, "note": 49, "velocity": 102, "channel": 0}, {"type": "note_on", "time": 28, "note": 48, "velocity": 98, "channel": 0}, {"type": "note_off", "time": 137, "note": 48, "velocity": 98, "channel": 0}, {"type": "note_on", "time": 4, "note": 57, "velocity": 103, "channel": 0}, {"type": "note_off", "time": 137, "note": 57, "velocity": 103, "channel": 0}, {"type": "note_on", "time": 0, "note": 52, "velocity": 89, "channel": 0}, {"type": "note_off", "time": 64, "note": 52, "velocity": 89, "channel": 0}, {"type": "note_on", "time": 56, "note": 57, "velocity": 108, "channel": 0}, {"type": "note_off", "time": 150, "note": 57, "velocity": 108, "channel": 0}, {"type": "note_on", "time": 4, "note": 52, "velocity": 89, "channel": 0}, {"type": "note_off", "time": 64, "note": 52, "velocity": 89, "channel": 0}, {"type": "note_on", "time": 32, "note": 55, "velocity": 100, "channel": 0}, {"type": "note_off", "time": 56, "note": 55, "velocity": 100, "channel": 0}, {"type": "note_on", "time": 24, "note": 52, "velocity": 89, "channel": 0}, {"type": "note_off", "time": 85, "note": 52, "velocity": 89, "channel": 0}, {"type": "note_on", "time": 28, "note": 54, "velocity": 90, "channel": 0}, {"type": "note_off", "time": 531, "note": 54, "velocity": 90, "channel": 0}, {"type": "note_on", "time": 421, "note": 57, "velocity": 120, "channel": 0}, {"type": "note_off", "time": 154, "note": 57, "velocity": 120, "channel": 0}, {"type": "note_on", "time": 52, "note": 54, "velocity": 116, "channel": 0}, {"type": "note_off", "time": 194, "note": 54, "velocity": 116, "channel": 0}, {"type": "note_on", "time": 8, "note": 55, "velocity": 113, "channel": 0}, {"type": "note_off", "time": 174, "note": 55, "velocity": 113, "channel": 0}, {"type": "note_on", "time": 4, "note": 57, "velocity": 117, "channel": 0}, {"type": "note_off", "time": 162, "note": 57, "velocity": 117, "channel": 0}, {"type": "note_on", "time": 24, "note": 58, "velocity": 115, "channel": 0}, {"type": "note_off", "time": 146, "note": 58, "velocity": 115, "channel": 0}, {"type": "note_on", "time": 12, "note": 60, "velocity": 116, "channel": 0}, {"type": "note_on", "time": 206, "note": 62, "velocity": 116, "channel": 0}, {"type": "note_off", "time": 0, "note": 60, "velocity": 116, "channel": 0}, {"type": "note_off", "time": 206, "note": 62, "velocity": 116, "channel": 0}, {"type": "note_on", "time": 40, "note": 64, "velocity": 116, "channel": 0}, {"type": "note_off", "time": 198, "note": 64, "velocity": 116, "channel": 0}, {"type": "note_on", "time": 60, "note": 69, "velocity": 115, "channel": 0}, {"type": "note_off", "time": 210, "note": 69, "velocity": 115, "channel": 0}, {"type": "note_on", "time": 24, "note": 66, "velocity": 116, "channel": 0}, {"type": "note_off", "time": 182, "note": 66, "velocity": 116, "channel": 0}, {"type": "note_on", "time": 4, "note": 67, "velocity": 108, "channel": 0}, {"type": "note_off", "time": 202, "note": 67, "velocity": 108, "channel": 0}, {"type": "note_on", "time": 4, "note": 62, "velocity": 111, "channel": 0}, {"type": "note_off", "time": 178, "note": 62, "velocity": 111, "channel": 0}, {"type": "note_on", "time": 4, "note": 58, "velocity": 104, "channel": 0}, {"type": "note_off", "time": 146, "note": 58, "velocity": 104, "channel": 0}, {"type": "note_on", "time": 56, "note": 55, "velocity": 104, "channel": 0}, {"type": "note_off", "time": 198, "note": 55, "velocity": 104, "channel": 0}, {"type": "note_on", "time": 8, "note": 61, "velocity": 110, "channel": 0}, {"type": "note_off", "time": 215, "note": 61, "velocity": 110, "channel": 0}, {"type": "note_on", "time": 4, "note": 57, "velocity": 100, "channel": 0}, {"type": "note_off", "time": 109, "note": 57, "velocity": 100, "channel": 0}, {"type": "note_on", "time": 0, "note": 60, "velocity": 96, "channel": 0}, {"type": "note_off", "time": 490, "note": 60, "velocity": 96, "channel": 0}, {"type": "note_on", "time": 458, "note": 56, "velocity": 103, "channel": 0}, {"type": "note_off", "time": 64, "note": 56, "velocity": 103, "channel": 0}, {"type": "note_on", "time": 8, "note": 58, "velocity": 106, "channel": 0}, {"type": "note_off", "time": 60, "note": 58, "velocity": 106, "channel": 0}, {"type": "note_on", "time": 40, "note": 60, "velocity": 96, "channel": 0}, {"type": "note_off", "time": 718, "note": 60, "velocity": 96, "channel": 0}, {"type": "note_on", "time": 56, "note": 59, "velocity": 108, "channel": 0}, {"type": "note_off", "time": 56, "note": 59, "velocity": 108, "channel": 0}, {"type": "note_on", "time": 8, "note": 58, "velocity": 107, "channel": 0}, {"type": "note_off", "time": 121, "note": 58, "velocity": 107, "channel": 0}, {"type": "note_on", "time": 40, "note": 53, "velocity": 92, "channel": 0}, {"type": "note_off", "time": 531, "note": 53, "velocity": 92, "channel": 0}, {"type": "note_on", "time": 612, "note": 57, "velocity": 123, "channel": 0}, {"type": "note_off", "time": 174, "note": 57, "velocity": 123, "channel": 0}, {"type": "note_on", "time": 0, "note": 60, "velocity": 119, "channel": 0}, {"type": "note_off", "time": 166, "note": 60, "velocity": 119, "channel": 0}, {"type": "note_on", "time": 32, "note": 62, "velocity": 114, "channel": 0}, {"type": "note_off", "time": 182, "note": 62, "velocity": 114, "channel": 0}, {"type": "note_on", "time": 0, "note": 64, "velocity": 117, "channel": 0}, {"type": "note_off", "time": 170, "note": 64, "velocity": 117, "channel": 0}, {"type": "note_on", "time": 32, "note": 60, "velocity": 117, "channel": 0}, {"type": "note_off", "time": 170, "note": 60, "velocity": 117, "channel": 0}, {"type": "note_on", "time": 36, "note": 57, "velocity": 110, "channel": 0}, {"type": "note_off", "time": 158, "note": 57, "velocity": 110, "channel": 0}, {"type": "note_on", "time": 40, "note": 52, "velocity": 96, "channel": 0}, {"type": "note_off", "time": 182, "note": 52, "velocity": 96, "channel": 0}, {"type": "note_on", "time": 64, "note": 51, "velocity": 100, "channel": 0}, {"type": "note_off", "time": 190, "note": 51, "velocity": 100, "channel": 0}, {"type": "note_on", "time": 16, "note": 56, "velocity": 104, "channel": 0}, {"type": "note_off", "time": 235, "note": 56, "velocity": 104, "channel": 0}, {"type": "note_on", "time": 20, "note": 65, "velocity": 99, "channel": 0}, {"type": "note_off", "time": 178, "note": 65, "velocity": 99, "channel": 0}, {"type": "note_on", "time": 32, "note": 63, "velocity": 107, "channel": 0}, {"type": "note_off", "time": 154, "note": 63, "velocity": 107, "channel": 0}, {"type": "note_on", "time": 24, "note": 56, "velocity": 87, "channel": 0}, {"type": "note_off", "time": 738, "note": 56, "velocity": 87, "channel": 0}, {"type": "note_on", "time": 332, "note": 55, "velocity": 110, "channel": 0}, {"type": "note_off", "time": 186, "note": 55, "velocity": 110, "channel": 0}, {"type": "note_on", "time": 24, "note": 62, "velocity": 109, "channel": 0}, {"type": "note_off", "time": 142, "note": 62, "velocity": 109, "channel": 0}, {"type": "note_on", "time": 12, "note": 55, "velocity": 98, "channel": 0}, {"type": "note_off", "time": 170, "note": 55, "velocity": 98, "channel": 0}, {"type": "note_on", "time": 36, "note": 53, "velocity": 92, "channel": 0}, {"type": "note_off", "time": 206, "note": 53, "velocity": 92, "channel": 0}, {"type": "note_on", "time": 32, "note": 54, "velocity": 107, "channel": 0}, {"type": "note_off", "time": 182, "note": 54, "velocity": 107, "channel": 0}, {"type": "note_on", "time": 0, "note": 62, "velocity": 99, "channel": 0}, {"type": "note_off", "time": 198, "note": 62, "velocity": 99, "channel": 0}, {"type": "note_on", "time": 36, "note": 58, "velocity": 101, "channel": 0}, {"type": "note_off", "time": 154, "note": 58, "velocity": 101, "channel": 0}, {"type": "note_on", "time": 0, "note": 54, "velocity": 99, "channel": 0}, {"type": "note_off", "time": 186, "note": 54, "velocity": 99, "channel": 0}, {"type": "note_on", "time": 85, "note": 53, "velocity": 98, "channel": 0}, {"type": "note_off", "time": 158, "note": 53, "velocity": 98, "channel": 0}, {"type": "note_on", "time": 0, "note": 62, "velocity": 99, "channel": 0}, {"type": "note_off", "time": 154, "note": 62, "velocity": 99, "channel": 0}, {"type": "note_on", "time": 52, "note": 58, "velocity": 98, "channel": 0}, {"type": "note_off", "time": 174, "note": 58, "velocity": 98, "channel": 0}, {"type": "note_on", "time": 24, "note": 53, "velocity": 98, "channel": 0}, {"type": "note_off", "time": 141, "note": 53, "velocity": 98, "channel": 0}, {"type": "note_on", "time": 48, "note": 50, "velocity": 80, "channel": 0}, {"type": "note_off", "time": 93, "note": 50, "velocity": 80, "channel": 0}, {"type": "note_on", "time": 12, "note": 53, "velocity": 90, "channel": 0}, {"type": "note_off", "time": 137, "note": 53, "velocity": 90, "channel": 0}, {"type": "note_on", "time": 38, "note": 50, "velocity": 88, "channel": 0}, {"type": "note_off", "time": 57, "note": 50, "velocity": 88, "channel": 0}, {"type": "note_on", "time": 11, "note": 53, "velocity": 92, "channel": 0}, {"type": "note_off", "time": 57, "note": 53, "velocity": 92, "channel": 0}, {"type": "note_on", "time": 11, "note": 50, "velocity": 82, "channel": 0}, {"type": "note_off", "time": 92, "note": 50, "velocity": 82, "channel": 0}, {"type": "note_on", "time": 79, "note": 52, "velocity": 79, "channel": 0}, {"type": "note_off", "time": 259, "note": 52, "velocity": 79, "channel": 0}, {"type": "note_on", "time": 24, "note": 60, "velocity": 94, "channel": 0}, {"type": "note_off", "time": 129, "note": 60, "velocity": 94, "channel": 0}, {"type": "note_on", "time": 32, "note": 57, "velocity": 85, "channel": 0}, {"type": "note_off", "time": 608, "note": 57, "velocity": 85, "channel": 0}, {"type": "note_on", "time": 681, "note": 55, "velocity": 117, "channel": 0}, {"type": "note_off", "time": 186, "note": 55, "velocity": 117, "channel": 0}, {"type": "note_on", "time": 8, "note": 52, "velocity": 105, "channel": 0}, {"type": "note_off", "time": 158, "note": 52, "velocity": 105, "channel": 0}, {"type": "note_on", "time": 24, "note": 53, "velocity": 113, "channel": 0}, {"type": "note_off", "time": 158, "note": 53, "velocity": 113, "channel": 0}, {"type": "note_on", "time": 8, "note": 57, "velocity": 118, "channel": 0}, {"type": "note_off", "time": 137, "note": 57, "velocity": 118, "channel": 0}, {"type": "note_on", "time": 0, "note": 60, "velocity": 117, "channel": 0}, {"type": "note_off", "time": 142, "note": 60, "velocity": 117, "channel": 0}, {"type": "note_on", "time": 4, "note": 62, "velocity": 116, "channel": 0}, {"type": "note_off", "time": 142, "note": 62, "velocity": 116, "channel": 0}, {"type": "note_on", "time": 8, "note": 64, "velocity": 116, "channel": 0}, {"type": "note_off", "time": 154, "note": 64, "velocity": 116, "channel": 0}, {"type": "note_on", "time": 0, "note": 67, "velocity": 111, "channel": 0}, {"type": "note_on", "time": 141, "note": 65, "velocity": 109, "channel": 0}, {"type": "note_off", "time": 0, "note": 67, "velocity": 111, "channel": 0}, {"type": "note_off", "time": 32, "note": 65, "velocity": 109, "channel": 0}, {"type": "note_on", "time": 40, "note": 67, "velocity": 116, "channel": 0}, {"type": "note_off", "time": 56, "note": 67, "velocity": 116, "channel": 0}, {"type": "note_on", "time": 20, "note": 65, "velocity": 111, "channel": 0}, {"type": "note_off", "time": 89, "note": 65, "velocity": 111, "channel": 0}, {"type": "note_on", "time": 0, "note": 62, "velocity": 112, "channel": 0}, {"type": "note_off", "time": 93, "note": 62, "velocity": 112, "channel": 0}, {"type": "note_on", "time": 56, "note": 60, "velocity": 114, "channel": 0}, {"type": "note_off", "time": 170, "note": 60, "velocity": 114, "channel": 0}, {"type": "note_on", "time": 20, "note": 57, "velocity": 109, "channel": 0}, {"type": "note_off", "time": 150, "note": 57, "velocity": 109, "channel": 0}, {"type": "note_on", "time": 36, "note": 55, "velocity": 103, "channel": 0}, {"type": "note_off", "time": 137, "note": 55, "velocity": 103, "channel": 0}, {"type": "note_on", "time": 20, "note": 52, "velocity": 94, "channel": 0}, {"type": "note_off", "time": 133, "note": 52, "velocity": 94, "channel": 0}, {"type": "note_on", "time": 32, "note": 55, "velocity": 105, "channel": 0}, {"type": "note_off", "time": 129, "note": 55, "velocity": 105, "channel": 0}, {"type": "note_on", "time": 24, "note": 52, "velocity": 93, "channel": 0}, {"type": "note_off", "time": 105, "note": 52, "velocity": 93, "channel": 0}, {"type": "note_on", "time": 28, "note": 53, "velocity": 88, "channel": 0}, {"type": "note_off", "time": 604, "note": 53, "velocity": 88, "channel": 0}, {"type": "note_on", "time": 401, "note": 51, "velocity": 111, "channel": 0}, {"type": "note_off", "time": 206, "note": 51, "velocity": 111, "channel": 0}, {"type": "note_on", "time": 20, "note": 48, "velocity": 104, "channel": 0}, {"type": "note_off", "time": 198, "note": 48, "velocity": 104, "channel": 0}, {"type": "note_on", "time": 20, "note": 49, "velocity": 107, "channel": 0}, {"type": "note_off", "time": 158, "note": 49, "velocity": 107, "channel": 0}, {"type": "note_on", "time": 0, "note": 51, "velocity": 111, "channel": 0}, {"type": "note_off", "time": 154, "note": 51, "velocity": 111, "channel": 0}, {"type": "note_on", "time": 0, "note": 53, "velocity": 109, "channel": 0}, {"type": "note_off", "time": 190, "note": 53, "velocity": 109, "channel": 0}, {"type": "note_on", "time": 20, "note": 56, "velocity": 113, "channel": 0}, {"type": "note_off", "time": 186, "note": 56, "velocity": 113, "channel": 0}, {"type": "note_on", "time": 4, "note": 58, "velocity": 109, "channel": 0}, {"type": "note_off", "time": 117, "note": 58, "velocity": 109, "channel": 0}, {"type": "note_on", "time": 8, "note": 61, "velocity": 26, "channel": 0}, {"type": "note_off", "time": 121, "note": 61, "velocity": 26, "channel": 0}, {"type": "note_on", "time": 32, "note": 63, "velocity": 124, "channel": 0}, {"type": "note_off", "time": 198, "note": 63, "velocity": 124, "channel": 0}, {"type": "note_on", "time": 24, "note": 65, "velocity": 120, "channel": 0}, {"type": "note_off", "time": 198, "note": 65, "velocity": 120, "channel": 0}, {"type": "note_on", "time": 24, "note": 70, "velocity": 122, "channel": 0}, {"type": "note_off", "time": 178, "note": 70, "velocity": 122, "channel": 0}, {"type": "note_on", "time": 20, "note": 65, "velocity": 117, "channel": 0}, {"type": "note_off", "time": 219, "note": 65, "velocity": 117, "channel": 0}, {"type": "note_on", "time": 16, "note": 67, "velocity": 110, "channel": 0}, {"type": "note_off", "time": 113, "note": 67, "velocity": 110, "channel": 0}, {"type": "note_on", "time": 0, "note": 68, "velocity": 111, "channel": 0}, {"type": "note_off", "time": 133, "note": 68, "velocity": 111, "channel": 0}, {"type": "note_on", "time": 16, "note": 65, "velocity": 113, "channel": 0}, {"type": "note_off", "time": 186, "note": 65, "velocity": 113, "channel": 0}, {"type": "note_on", "time": 24, "note": 65, "velocity": 108, "channel": 0}, {"type": "note_off", "time": 81, "note": 65, "velocity": 108, "channel": 0}, {"type": "note_on", "time": 16, "note": 63, "velocity": 120, "channel": 0}, {"type": "note_off", "time": 125, "note": 63, "velocity": 120, "channel": 0}, {"type": "note_on", "time": 12, "note": 61, "velocity": 114, "channel": 0}, {"type": "note_off", "time": 154, "note": 61, "velocity": 114, "channel": 0}, {"type": "note_on", "time": 0, "note": 56, "velocity": 103, "channel": 0}, {"type": "note_off", "time": 876, "note": 56, "velocity": 103, "channel": 0}, {"type": "note_on", "time": 198, "note": 54, "velocity": 115, "channel": 0}, {"type": "note_off", "time": 198, "note": 54, "velocity": 115, "channel": 0}, {"type": "note_on", "time": 44, "note": 56, "velocity": 120, "channel": 0}, {"type": "note_off", "time": 194, "note": 56, "velocity": 120, "channel": 0}, {"type": "note_on", "time": 24, "note": 58, "velocity": 116, "channel": 0}, {"type": "note_off", "time": 146, "note": 58, "velocity": 116, "channel": 0}, {"type": "note_on", "time": 0, "note": 61, "velocity": 120, "channel": 0}, {"type": "note_off", "time": 137, "note": 61, "velocity": 120, "channel": 0}, {"type": "note_on", "time": 32, "note": 63, "velocity": 127, "channel": 0}, {"type": "note_off", "time": 210, "note": 63, "velocity": 127, "channel": 0}, {"type": "note_on", "time": 68, "note": 67, "velocity": 116, "channel": 0}, {"type": "note_off", "time": 56, "note": 67, "velocity": 116, "channel": 0}, {"type": "note_on", "time": 0, "note": 68, "velocity": 103, "channel": 0}, {"type": "note_off", "time": 154, "note": 68, "velocity": 103, "channel": 0}, {"type": "note_on", "time": 12, "note": 67, "velocity": 108, "channel": 0}, {"type": "note_off", "time": 48, "note": 67, "velocity": 108, "channel": 0}, {"type": "note_on", "time": 0, "note": 68, "velocity": 110, "channel": 0}, {"type": "note_off", "time": 105, "note": 68, "velocity": 110, "channel": 0}, {"type": "note_on", "time": 0, "note": 66, "velocity": 114, "channel": 0}, {"type": "note_off", "time": 162, "note": 66, "velocity": 114, "channel": 0}, {"type": "note_on", "time": 0, "note": 63, "velocity": 125, "channel": 0}, {"type": "note_off", "time": 397, "note": 63, "velocity": 125, "channel": 0}, {"type": "note_on", "time": 16, "note": 61, "velocity": 114, "channel": 0}, {"type": "note_off", "time": 68, "note": 61, "velocity": 114, "channel": 0}, {"type": "note_on", "time": 20, "note": 63, "velocity": 119, "channel": 0}, {"type": "note_off", "time": 68, "note": 63, "velocity": 119, "channel": 0}, {"type": "note_on", "time": 8, "note": 61, "velocity": 119, "channel": 0}, {"type": "note_off", "time": 101, "note": 61, "velocity": 119, "channel": 0}, {"type": "note_on", "time": 0, "note": 58, "velocity": 104, "channel": 0}, {"type": "note_off", "time": 133, "note": 58, "velocity": 104, "channel": 0}, {"type": "note_on", "time": 12, "note": 56, "velocity": 114, "channel": 0}, {"type": "note_off", "time": 357, "note": 56, "velocity": 114, "channel": 0}, {"type": "note_on", "time": 8, "note": 54, "velocity": 105, "channel": 0}, {"type": "note_off", "time": 56, "note": 54, "velocity": 105, "channel": 0}, {"type": "note_on", "time": 12, "note": 56, "velocity": 102, "channel": 0}, {"type": "note_off", "time": 44, "note": 56, "velocity": 102, "channel": 0}, {"type": "note_on", "time": 52, "note": 54, "velocity": 104, "channel": 0}, {"type": "note_off", "time": 52, "note": 54, "velocity": 104, "channel": 0}, {"type": "note_on", "time": 24, "note": 51, "velocity": 99, "channel": 0}, {"type": "note_off", "time": 146, "note": 51, "velocity": 99, "channel": 0}, {"type": "note_on", "time": 44, "note": 49, "velocity": 88, "channel": 0}, {"type": "note_off", "time": 783, "note": 49, "velocity": 88, "channel": 0}, {"type": "note_on", "time": 243, "note": 54, "velocity": 113, "channel": 0}, {"type": "note_off", "time": 149, "note": 54, "velocity": 113, "channel": 0}, {"type": "note_on", "time": 0, "note": 56, "velocity": 106, "channel": 0}, {"type": "note_off", "time": 920, "note": 56, "velocity": 106, "channel": 0}, {"type": "note_on", "time": 118, "note": 49, "velocity": 102, "channel": 0}, {"type": "note_off", "time": 162, "note": 49, "velocity": 102, "channel": 0}, {"type": "note_on", "time": 40, "note": 51, "velocity": 107, "channel": 0}, {"type": "note_off", "time": 206, "note": 51, "velocity": 107, "channel": 0}, {"type": "note_on", "time": 28, "note": 56, "velocity": 117, "channel": 0}, {"type": "note_off", "time": 146, "note": 56, "velocity": 117, "channel": 0}, {"type": "note_on", "time": 0, "note": 54, "velocity": 110, "channel": 0}, {"type": "note_off", "time": 174, "note": 54, "velocity": 110, "channel": 0}, {"type": "note_on", "time": 8, "note": 49, "velocity": 108, "channel": 0}, {"type": "note_off", "time": 604, "note": 49, "velocity": 108, "channel": 0}, {"type": "note_on", "time": 68, "note": 51, "velocity": 102, "channel": 0}, {"type": "note_off", "time": 547, "note": 51, "velocity": 102, "channel": 0}, {"type": "note_on", "time": 111, "note": 52, "velocity": 88, "channel": 0}, {"type": "note_off", "time": 807, "note": 52, "velocity": 88, "channel": 0}, {"type": "note_on", "time": 34, "note": 53, "velocity": 102, "channel": 0}, {"type": "note_off", "time": 3462, "note": 53, "velocity": 102, "channel": 0}, {"type": "end_of_track", "time": 0}]]}