{"ticks_per_beat": 840, "tracks": [[{"type": "track_name", "name": "Melody", "time": 0}, {"type": "set_tempo", "tempo": 566037, "time": 0}, {"type": "key_signature", "key": "F", "time": 0}, {"type": "time_signature", "numerator": 4, "denominator": 4, "clocks_per_click": 24, "notated_32nd_notes_per_beat": 8, "time": 0}, {"type": "note_on", "time": 12403, "note": 57, "velocity": 118, "channel": 0}, {"type": "note_off", "time": 193, "note": 57, "velocity": 118, "channel": 0}, {"type": "note_on", "time": 30, "note": 58, "velocity": 117, "channel": 0}, {"type": "note_off", "time": 181, "note": 58, "velocity": 117, "channel": 0}, {"type": "note_on", "time": 18, "note": 60, "velocity": 110, "channel": 0}, {"type": "note_off", "time": 187, "note": 60, "velocity": 110, "channel": 0}, {"type": "note_on", "time": 0, "note": 64, "velocity": 115, "channel": 0}, {"type": "note_off", "time": 224, "note": 64, "velocity": 115, "channel": 0}, {"type": "note_on", "time": 24, "note": 68, "velocity": 108, "channel": 0}, {"type": "note_off", "time": 175, "note": 68, "velocity": 108, "channel": 0}, {"type": "note_on", "time": 6, "note": 72, "velocity": 116, "channel": 0}, {"type": "note_off", "time": 205, "note": 72, "velocity": 116, "channel": 0}, {"type": "note_on", "time": 6, "note": 69, "velocity": 109, "channel": 0}, {"type": "note_off", "time": 811, "note": 69, "velocity": 109, "channel": 0}, {"type": "note_on", "time": 40, "note": 64, "velocity": 115, "channel": 0}, {"type": "note_off", "time": 262, "note": 64, "velocity": 115, "channel": 0}, {"type": "note_on", "time": 36, "note": 65, "velocity": 112, "channel": 0}, {"type": "note_off", "time": 172, "note": 65, "velocity": 112, "channel": 0}, {"type": "note_on", "time": 15, "note": 67, "velocity": 100, "channel": 0}, {"type": "note_off", "time": 155, "note": 67, "velocity": 100, "channel": 0}, {"type": "note_on", "time": 10, "note": 65, "velocity": 107, "channel": 0}, {"type": "note_off", "time": 139, "note": 65, "velocity": 107, "channel": 0}, {"type": "note_on", "time": 23, "note": 66, "velocity": 106, "channel": 0}, {"type": "note_off", "time": 857, "note": 66, "velocity": 106, "channel": 0}, {"type": "note_on", "time": 44, "note": 63, "velocity": 117, "channel": 0}, {"type": "note_off", "time": 198, "note": 63, "velocity": 117, "channel": 0}, {"type": "note_on", "time": 28, "note": 62, "velocity": 120, "channel": 0}, {"type": "note_off", "time": 171, "note": 62, "velocity": 120, "channel": 0}, {"type": "note_on", "time": 6, "note": 60, "velocity": 112, "channel": 0}, {"type": "note_off", "time": 218, "note": 60, "velocity": 112, "channel": 0}, {"type": "note_on", "time": 12, "note": 59, "velocity": 106, "channel": 0}, {"type": "note_off", "time": 199, "note": 59, "velocity": 106, "channel": 0}, {"type": "note_on", "time": 49, "note": 58, "velocity": 96, "channel": 0}, {"type": "note_off", "time": 632, "note": 58, "velocity": 96, "channel": 0}, {"type": "note_on", "time": 18, "note": 57, "velocity": 107, "channel": 0}, {"type": "note_off", "time": 109, "note": 57, "velocity": 107, "channel": 0}, {"type": "note_on", "time": 31, "note": 55, "velocity": 97, "channel": 0}, {"type": "note_off", "time": 484, "note": 55, "velocity": 97, "channel": 0}, {"type": "note_on", "time": 54, "note": 50, "velocity": 105, "channel": 0}, {"type": "note_off", "time": 230, "note": 50, "velocity": 105, "channel": 0}, {"type": "note_on", "time": 40, "note": 54, "velocity": 101, "channel": 0}, {"type": "note_off", "time": 218, "note": 54, "velocity": 101, "channel": 0}, {"type": "note_on", "time": 91, "note": 58, "velocity": 101, "channel": 0}, {"type": "note_off", "time": 186, "note": 58, "velocity": 101, "channel": 0}, {"type": "note_on", "time": 31, "note": 53, "velocity": 100, "channel": 0}, {"type": "note_off", "time": 124, "note": 53, "velocity": 100, "channel": 0}, {"type": "note_on", "time": 46, "note": 50, "velocity": 90, "channel": 0}, {"type": "note_off", "time": 199, "note": 50, "velocity": 90, "channel": 0}, {"type": "note_on", "time": 31, "note": 52, "velocity": 93, "channel": 0}, {"type": "note_off", "time": 236, "note": 52, "velocity": 93, "channel": 0}, {"type": "note_on", "time": 1465, "note": 73, "velocity": 102, "channel": 0}, {"type": "note_off", "time": 157, "note": 73, "velocity": 102, "channel": 0}, {"type": "note_on", "time": 17, "note": 72, "velocity": 111, "channel": 0}, {"type": "note_off", "time": 111, "note": 72, "velocity": 111, "channel": 0}, {"type": "note_on", "time": 3, "note": 71, "velocity": 109, "channel": 0}, {"type": "note_off", "time": 63, "note": 71, "velocity": 109, "channel": 0}, {"type": "note_on", "time": 23, "note": 70, "velocity": 113, "channel": 0}, {"type": "note_off", "time": 211, "note": 70, "velocity": 113, "channel": 0}, {"type": "note_on", "time": 41, "note": 66, "velocity": 105, "channel": 0}, {"type": "note_off", "time": 182, "note": 66, "velocity": 105, "channel": 0}, {"type": "note_on", "time": 17, "note": 69, "velocity": 101, "channel": 0}, {"type": "note_off", "time": 160, "note": 69, "velocity": 101, "channel": 0}, {"type": "note_on", "time": 22, "note": 67, "velocity": 103, "channel": 0}, {"type": "note_off", "time": 162, "note": 67, "velocity": 103, "channel": 0}, {"type": "note_on", "time": 36, "note": 65, "velocity": 106, "channel": 0}, {"type": "note_off", "time": 157, "note": 65, "velocity": 106, "channel": 0}, {"type": "note_on", "time": 29, "note": 62, "velocity": 113, "channel": 0}, {"type": "note_off", "time": 169, "note": 62, "velocity": 113, "channel": 0}, {"type": "note_on", "time": 27, "note": 64, "velocity": 122, "channel": 0}, {"type": "note_off", "time": 393, "note": 64, "velocity": 122, "channel": 0}, {"type": "note_on", "time": 28, "note": 61, "velocity": 116, "channel": 0}, {"type": "note_off", "time": 195, "note": 61, "velocity": 116, "channel": 0}, {"type": "note_on", "time": 14, "note": 60, "velocity": 108, "channel": 0}, {"type": "note_off", "time": 224, "note": 60, "velocity": 108, "channel": 0}, {"type": "note_on", "time": 3, "note": 58, "velocity": 107, "channel": 0}, {"type": "note_off", "time": 163, "note": 58, "velocity": 107, "channel": 0}, {"type": "note_on", "time": 26, "note": 55, "velocity": 104, "channel": 0}, {"type": "note_off", "time": 160, "note": 55, "velocity": 104, "channel": 0}, {"type": "note_on", "time": 12, "note": 56, "velocity": 102, "channel": 0}, {"type": "note_off", "time": 139, "note": 56, "velocity": 102, "channel": 0}, {"type": "note_on", "time": 29, "note": 57, "velocity": 103, "channel": 0}, {"type": "note_off", "time": 215, "note": 57, "velocity": 103, "channel": 0}, {"type": "note_on", "time": 436, "note": 67, "velocity": 97, "channel": 0}, {"type": "note_off", "time": 187, "note": 67, "velocity": 97, "channel": 0}, {"type": "note_on", "time": 24, "note": 64, "velocity": 101, "channel": 0}, {"type": "note_off", "time": 157, "note": 64, "velocity": 101, "channel": 0}, {"type": "note_on", "time": 18, "note": 65, "velocity": 102, "channel": 0}, {"type": "note_off", "time": 642, "note": 65, "velocity": 102, "channel": 0}, {"type": "note_on", "time": 12, "note": 62, "velocity": 111, "channel": 0}, {"type": "note_off", "time": 181, "note": 62, "velocity": 111, "channel": 0}, {"type": "note_on", "time": 60, "note": 58, "velocity": 102, "channel": 0}, {"type": "note_off", "time": 140, "note": 58, "velocity": 102, "channel": 0}, {"type": "note_on", "time": 69, "note": 55, "velocity": 100, "channel": 0}, {"type": "note_off", "time": 187, "note": 55, "velocity": 100, "channel": 0}, {"type": "note_on", "time": 25, "note": 52, "velocity": 100, "channel": 0}, {"type": "note_off", "time": 145, "note": 52, "velocity": 100, "channel": 0}, {"type": "note_on", "time": 257, "note": 55, "velocity": 108, "channel": 0}, {"type": "note_off", "time": 144, "note": 55, "velocity": 108, "channel": 0}, {"type": "note_on", "time": 24, "note": 52, "velocity": 104, "channel": 0}, {"type": "note_off", "time": 194, "note": 52, "velocity": 104, "channel": 0}, {"type": "note_on", "time": 26, "note": 53, "velocity": 110, "channel": 0}, {"type": "note_off", "time": 218, "note": 53, "velocity": 110, "channel": 0}, {"type": "note_on", "time": 25, "note": 57, "velocity": 104, "channel": 0}, {"type": "note_off", "time": 168, "note": 57, "velocity": 104, "channel": 0}, {"type": "note_on", "time": 17, "note": 60, "velocity": 105, "channel": 0}, {"type": "note_off", "time": 157, "note": 60, "velocity": 105, "channel": 0}, {"type": "note_on", "time": 44, "note": 62, "velocity": 114, "channel": 0}, {"type": "note_off", "time": 144, "note": 62, "velocity": 114, "channel": 0}, {"type": "note_on", "time": 17, "note": 63, "velocity": 115, "channel": 0}, {"type": "note_off", "time": 187, "note": 63, "velocity": 115, "channel": 0}, {"type": "note_on", "time": 27, "note": 65, "velocity": 97, "channel": 0}, {"type": "note_off", "time": 229, "note": 65, "velocity": 97, "channel": 0}, {"type": "note_on", "time": 40, "note": 67, "velocity": 72, "channel": 0}, {"type": "note_off", "time": 1001, "note": 67, "velocity": 72, "channel": 0}, {"type": "note_on", "time": 1182, "note": 65, "velocity": 115, "channel": 0}, {"type": "note_off", "time": 327, "note": 65, "velocity": 115, "channel": 0}, {"type": "note_on", "time": 45, "note": 69, "velocity": 113, "channel": 0}, {"type": "note_off", "time": 286, "note": 69, "velocity": 113, "channel": 0}, {"type": "note_on", "time": 18, "note": 72, "velocity": 115, "channel": 0}, {"type": "note_off", "time": 251, "note": 72, "velocity": 115, "channel": 0}, {"type": "note_on", "time": 18, "note": 70, "velocity": 112, "channel": 0}, {"type": "note_off", "time": 278, "note": 70, "velocity": 112, "channel": 0}, {"type": "note_on", "time": 27, "note": 65, "velocity": 109, "channel": 0}, {"type": "note_off", "time": 239, "note": 65, "velocity": 109, "channel": 0}, {"type": "note_on", "time": 51, "note": 63, "velocity": 117, "channel": 0}, {"type": "note_off", "time": 230, "note": 63, "velocity": 117, "channel": 0}, {"type": "note_on", "time": 81, "note": 61, "velocity": 112, "channel": 0}, {"type": "note_off", "time": 236, "note": 61, "velocity": 112, "channel": 0}, {"type": "note_on", "time": 0, "note": 58, "velocity": 101, "channel": 0}, {"type": "note_off", "time": 212, "note": 58, "velocity": 101, "channel": 0}, {"type": "note_on", "time": 18, "note": 53, "velocity": 104, "channel": 0}, {"type": "note_off", "time": 236, "note": 53, "velocity": 104, "channel": 0}, {"type": "note_on", "time": 28, "note": 49, "velocity": 100, "channel": 0}, {"type": "note_off", "time": 245, "note": 49, "velocity": 100, "channel": 0}, {"type": "note_on", "time": 12, "note": 48, "velocity": 91, "channel": 0}, {"type": "note_off", "time": 242, "note": 48, "velocity": 91, "channel": 0}, {"type": "note_on", "time": 13, "note": 55, "velocity": 103, "channel": 0}, {"type": "note_off", "time": 249, "note": 55, "velocity": 103, "channel": 0}, {"type": "note_on", "time": 21, "note": 52, "velocity": 100, "channel": 0}, {"type": "note_off", "time": 201, "note": 52, "velocity": 100, "channel": 0}, {"type": "note_on", "time": 33, "note": 53, "velocity": 105, "channel": 0}, {"type": "note_off", "time": 213, "note": 53, "velocity": 105, "channel": 0}, {"type": "note_on", "time": 89, "note": 60, "velocity": 84, "channel": 0}, {"type": "note_off", "time": 302, "note": 60, "velocity": 84, "channel": 0}, {"type": "note_on", "time": 30, "note": 57, "velocity": 101, "channel": 0}, {"type": "note_off", "time": 302, "note": 57, "velocity": 101, "channel": 0}, {"type": "note_on", "time": 18, "note": 58, "velocity": 106, "channel": 0}, {"type": "note_off", "time": 205, "note": 58, "velocity": 106, "channel": 0}, {"type": "note_on", "time": 61, "note": 52, "velocity": 103, "channel": 0}, {"type": "note_off", "time": 272, "note": 52, "velocity": 103, "channel": 0}, {"type": "note_on", "time": 23, "note": 56, "velocity": 97, "channel": 0}, {"type": "note_off", "time": 277, "note": 56, "velocity": 97, "channel": 0}, {"type": "note_on", "time": 30, "note": 60, "velocity": 88, "channel": 0}, {"type": "note_off", "time": 732, "note": 60, "velocity": 88, "channel": 0}, {"type": "note_on", "time": 867, "note": 55, "velocity": 105, "channel": 0}, {"type": "note_off", "time": 315, "note": 55, "velocity": 105, "channel": 0}, {"type": "note_on", "time": 18, "note": 57, "velocity": 109, "channel": 0}, {"type": "note_off", "time": 239, "note": 57, "velocity": 109, "channel": 0}, {"type": "note_on", "time": 13, "note": 65, "velocity": 105, "channel": 0}, {"type": "note_off", "time": 1023, "note": 65, "velocity": 105, "channel": 0}, {"type": "note_on", "time": 19, "note": 66, "velocity": 101, "channel": 0}, {"type": "note_off", "time": 74, "note": 66, "velocity": 101, "channel": 0}, {"type": "note_on", "time": 15, "note": 65, "velocity": 113, "channel": 0}, {"type": "note_off", "time": 107, "note": 65, "velocity": 113, "channel": 0}, {"type": "note_on", "time": 21, "note": 62, "velocity": 116, "channel": 0}, {"type": "note_off", "time": 193, "note": 62, "velocity": 116, "channel": 0}, {"type": "note_on", "time": 36, "note": 64, "velocity": 118, "channel": 0}, {"type": "note_off", "time": 205, "note": 64, "velocity": 118, "channel": 0}, {"type": "note_on", "time": 33, "note": 60, "velocity": 109, "channel": 0}, {"type": "note_off", "time": 162, "note": 60, "velocity": 109, "channel": 0}, {"type": "note_on", "time": 59, "note": 55, "velocity": 102, "channel": 0}, {"type": "note_off", "time": 168, "note": 55, "velocity": 102, "channel": 0}, {"type": "note_on", "time": 51, "note": 52, "velocity": 103, "channel": 0}, {"type": "note_off", "time": 168, "note": 52, "velocity": 103, "channel": 0}, {"type": "note_on", "time": 18, "note": 55, "velocity": 105, "channel": 0}, {"type": "note_off", "time": 187, "note": 55, "velocity": 105, "channel": 0}, {"type": "note_on", "time": 39, "note": 52, "velocity": 105, "channel": 0}, {"type": "note_off", "time": 165, "note": 52, "velocity": 105, "channel": 0}, {"type": "note_on", "time": 16, "note": 53, "velocity": 107, "channel": 0}, {"type": "note_off", "time": 153, "note": 53, "velocity": 107, "channel": 0}, {"type": "note_on", "time": 12, "note": 57, "velocity": 110, "channel": 0}, {"type": "note_off", "time": 181, "note": 57, "velocity": 110, "channel": 0}, {"type": "note_on", "time": 27, "note": 60, "velocity": 98, "channel": 0}, {"type": "note_off", "time": 1374, "note": 60, "velocity": 98, "channel": 0}, {"type": "note_on", "time": 359, "note": 59, "velocity": 114, "channel": 0}, {"type": "note_off", "time": 150, "note": 59, "velocity": 114, "channel": 0}, {"type": "note_on", "time": 11, "note": 60, "velocity": 115, "channel": 0}, {"type": "note_off", "time": 168, "note": 60, "velocity": 115, "channel": 0}, {"type": "note_on", "time": 33, "note": 61, "velocity": 109, "channel": 0}, {"type": "note_off", "time": 254, "note": 61, "velocity": 109, "channel": 0}, {"type": "note_on", "time": 52, "note": 62, "velocity": 111, "channel": 0}, {"type": "note_off", "time": 230, "note": 62, "velocity": 111, "channel": 0}, {"type": "note_on", "time": 48, "note": 65, "velocity": 106, "channel": 0}, {"type": "note_off", "time": 187, "note": 65, "velocity": 106, "channel": 0}, {"type": "note_on", "time": 16, "note": 62, "velocity": 110, "channel": 0}, {"type": "note_off", "time": 318, "note": 62, "velocity": 110, "channel": 0}, {"type": "note_on", "time": 33, "note": 64, "velocity": 115, "channel": 0}, {"type": "note_off", "time": 334, "note": 64, "velocity": 115, "channel": 0}, {"type": "note_on", "time": 17, "note": 67, "velocity": 97, "channel": 0}, {"type": "note_off", "time": 227, "note": 67, "velocity": 97, "channel": 0}, {"type": "note_on", "time": 189, "note": 72, "velocity": 90, "channel": 0}, {"type": "note_off", "time": 1072, "note": 72, "velocity": 90, "channel": 0}, {"type": "note_on", "time": 1431, "note": 74, "velocity": 108, "channel": 0}, {"type": "note_off", "time": 131, "note": 74, "velocity": 108, "channel": 0}, {"type": "note_on", "time": 19, "note": 73, "velocity": 110, "channel": 0}, {"type": "note_off", "time": 127, "note": 73, "velocity": 110, "channel": 0}, {"type": "note_on", "time": 7, "note": 72, "velocity": 116, "channel": 0}, {"type": "note_off", "time": 119, "note": 72, "velocity": 116, "channel": 0}, {"type": "note_on", "time": 11, "note": 71, "velocity": 115, "channel": 0}, {"type": "note_off", "time": 96, "note": 71, "velocity": 115, "channel": 0}, {"type": "note_on", "time": 17, "note": 70, "velocity": 110, "channel": 0}, {"type": "note_off", "time": 932, "note": 70, "velocity": 110, "channel": 0}, {"type": "note_on", "time": 22, "note": 67, "velocity": 107, "channel": 0}, {"type": "note_off", "time": 191, "note": 67, "velocity": 107, "channel": 0}, {"type": "note_on", "time": 14, "note": 66, "velocity": 109, "channel": 0}, {"type": "note_off", "time": 199, "note": 66, "velocity": 109, "channel": 0}, {"type": "note_on", "time": 12, "note": 63, "velocity": 114, "channel": 0}, {"type": "note_off", "time": 181, "note": 63, "velocity": 114, "channel": 0}, {"type": "note_on", "time": 10, "note": 61, "velocity": 106, "channel": 0}, {"type": "note_off", "time": 198, "note": 61, "velocity": 106, "channel": 0}, {"type": "note_on", "time": 21, "note": 57, "velocity": 98, "channel": 0}, {"type": "note_off", "time": 121, "note": 57, "velocity": 98, "channel": 0}, {"type": "note_on", "time": 18, "note": 54, "velocity": 103, "channel": 0}, {"type": "note_off", "time": 169, "note": 54, "velocity": 103, "channel": 0}, {"type": "note_on", "time": 34, "note": 51, "velocity": 104, "channel": 0}, {"type": "note_off", "time": 232, "note": 51, "velocity": 104, "channel": 0}, {"type": "note_on", "time": 29, "note": 49, "velocity": 99, "channel": 0}, {"type": "note_off", "time": 127, "note": 49, "velocity": 99, "channel": 0}, {"type": "note_on", "time": 9, "note": 48, "velocity": 92, "channel": 0}, {"type": "note_off", "time": 170, "note": 48, "velocity": 92, "channel": 0}, {"type": "note_on", "time": 47, "note": 55, "velocity": 106, "channel": 0}, {"type": "note_off", "time": 224, "note": 55, "velocity": 106, "channel": 0}, {"type": "note_on", "time": 39, "note": 52, "velocity": 107, "channel": 0}, {"type": "note_off", "time": 151, "note": 52, "velocity": 107, "channel": 0}, {"type": "note_on", "time": 18, "note": 53, "velocity": 103, "channel": 0}, {"type": "note_off", "time": 310, "note": 53, "velocity": 103, "channel": 0}, {"type": "note_on", "time": 92, "note": 62, "velocity": 115, "channel": 0}, {"type": "note_off", "time": 587, "note": 62, "velocity": 115, "channel": 0}, {"type": "note_on", "time": 30, "note": 57, "velocity": 110, "channel": 0}, {"type": "note_off", "time": 248, "note": 57, "velocity": 110, "channel": 0}, {"type": "note_on", "time": 46, "note": 60, "velocity": 104, "channel": 0}, {"type": "note_off", "time": 666, "note": 60, "velocity": 104, "channel": 0}, {"type": "note_on", "time": 872, "note": 67, "velocity": 111, "channel": 0}, {"type": "note_off", "time": 195, "note": 67, "velocity": 111, "channel": 0}, {"type": "note_on", "time": 12, "note": 63, "velocity": 114, "channel": 0}, {"type": "note_off", "time": 234, "note": 63, "velocity": 114, "channel": 0}, {"type": "note_on", "time": 77, "note": 58, "velocity": 100, "channel": 0}, {"type": "note_off", "time": 130, "note": 58, "velocity": 100, "channel": 0}, {"type": "note_on", "time": 20, "note": 59, "velocity": 100, "channel": 0}, {"type": "note_off", "time": 161, "note": 59, "velocity": 100, "channel": 0}, {"type": "note_on", "time": 29, "note": 62, "velocity": 114, "channel": 0}, {"type": "note_off", "time": 260, "note": 62, "velocity": 114, "channel": 0}, {"type": "note_on", "time": 4, "note": 60, "velocity": 110, "channel": 0}, {"type": "note_off", "time": 333, "note": 60, "velocity": 110, "channel": 0}, {"type": "note_on", "time": 16, "note": 61, "velocity": 109, "channel": 0}, {"type": "note_off", "time": 193, "note": 61, "velocity": 109, "channel": 0}, {"type": "note_on", "time": 183, "note": 57, "velocity": 113, "channel": 0}, {"type": "note_off", "time": 240, "note": 57, "velocity": 113, "channel": 0}, {"type": "note_on", "time": 22, "note": 55, "velocity": 106, "channel": 0}, {"type": "note_off", "time": 230, "note": 55, "velocity": 106, "channel": 0}, {"type": "note_on", "time": 30, "note": 51, "velocity": 107, "channel": 0}, {"type": "note_off", "time": 242, "note": 51, "velocity": 107, "channel": 0}, {"type": "note_on", "time": 48, "note": 50, "velocity": 108, "channel": 0}, {"type": "note_off", "time": 308, "note": 50, "velocity": 108, "channel": 0}, {"type": "note_on", "time": 36, "note": 53, "velocity": 109, "channel": 0}, {"type": "note_off", "time": 296, "note": 53, "velocity": 109, "channel": 0}, {"type": "note_on", "time": 75, "note": 58, "velocity": 99, "channel": 0}, {"type": "note_off", "time": 321, "note": 58, "velocity": 99, "channel": 0}, {"type": "note_on", "time": 0, "note": 60, "velocity": 88, "channel": 0}, {"type": "note_off", "time": 873, "note": 60, "velocity": 88, "channel": 0}, {"type": "note_on", "time": 25, "note": 58, "velocity": 108, "channel": 0}, {"type": "note_off", "time": 339, "note": 58, "velocity": 108, "channel": 0}, {"type": "note_on", "time": 48, "note": 53, "velocity": 90, "channel": 0}, {"type": "note_off", "time": 993, "note": 53, "velocity": 90, "channel": 0}, {"type": "note_on", "time": 701, "note": 56, "velocity": 113, "channel": 0}, {"type": "note_off", "time": 92, "note": 56, "velocity": 113, "channel": 0}, {"type": "note_on", "time": 6, "note": 57, "velocity": 121, "channel": 0}, {"type": "note_off", "time": 139, "note": 57, "velocity": 121, "channel": 0}, {"type": "note_on", "time": 69, "note": 58, "velocity": 116, "channel": 0}, {"type": "note_off", "time": 177, "note": 58, "velocity": 116, "channel": 0}, {"type": "note_on", "time": 39, "note": 57, "velocity": 113, "channel": 0}, {"type": "note_off", "time": 169, "note": 57, "velocity": 113, "channel": 0}, {"type": "note_on", "time": 25, "note": 53, "velocity": 110, "channel": 0}, {"type": "note_off", "time": 266, "note": 53, "velocity": 110, "channel": 0}, {"type": "note_on", "time": 52, "note": 50, "velocity": 109, "channel": 0}, {"type": "note_off", "time": 254, "note": 50, "velocity": 109, "channel": 0}, {"type": "note_on", "time": 24, "note": 52, "velocity": 112, "channel": 0}, {"type": "note_off", "time": 266, "note": 52, "velocity": 112, "channel": 0}, {"type": "note_on", "time": 9, "note": 55, "velocity": 108, "channel": 0}, {"type": "note_off", "time": 211, "note": 55, "velocity": 108, "channel": 0}, {"type": "note_on", "time": 65, "note": 60, "velocity": 112, "channel": 0}, {"type": "note_off", "time": 287, "note": 60, "velocity": 112, "channel": 0}, {"type": "note_on", "time": 222, "note": 57, "velocity": 119, "channel": 0}, {"type": "note_off", "time": 252, "note": 57, "velocity": 119, "channel": 0}, {"type": "note_on", "time": 163, "note": 53, "velocity": 104, "channel": 0}, {"type": "note_off", "time": 697, "note": 53, "velocity": 104, "channel": 0}, {"type": "note_on", "time": 1162, "note": 54, "velocity": 121, "channel": 0}, {"type": "note_off", "time": 78, "note": 54, "velocity": 121, "channel": 0}, {"type": "note_on", "time": 9, "note": 55, "velocity": 127, "channel": 0}, {"type": "note_off", "time": 155, "note": 55, "velocity": 127, "channel": 0}, {"type": "note_on", "time": 16, "note": 57, "velocity": 120, "channel": 0}, {"type": "note_off", "time": 289, "note": 57, "velocity": 120, "channel": 0}, {"type": "note_on", "time": 54, "note": 58, "velocity": 119, "channel": 0}, {"type": "note_off", "time": 246, "note": 58, "velocity": 119, "channel": 0}, {"type": "note_on", "time": 6, "note": 58, "velocity": 123, "channel": 0}, {"type": "note_off", "time": 120, "note": 58, "velocity": 123, "channel": 0}, {"type": "note_on", "time": 12, "note": 59, "velocity": 108, "channel": 0}, {"type": "note_off", "time": 90, "note": 59, "velocity": 108, "channel": 0}, {"type": "note_on", "time": 68, "note": 60, "velocity": 115, "channel": 0}, {"type": "note_off", "time": 176, "note": 60, "velocity": 115, "channel": 0}, {"type": "note_on", "time": 71, "note": 57, "velocity": 109, "channel": 0}, {"type": "note_off", "time": 110, "note": 57, "velocity": 109, "channel": 0}, {"type": "note_on", "time": 25, "note": 61, "velocity": 116, "channel": 0}, {"type": "note_off", "time": 193, "note": 61, "velocity": 116, "channel": 0}, {"type": "note_on", "time": 58, "note": 57, "velocity": 109, "channel": 0}, {"type": "note_off", "time": 96, "note": 57, "velocity": 109, "channel": 0}, {"type": "note_on", "time": 17, "note": 61, "velocity": 115, "channel": 0}, {"type": "note_off", "time": 132, "note": 61, "velocity": 115, "channel": 0}, {"type": "note_on", "time": 16, "note": 62, "velocity": 116, "channel": 0}, {"type": "note_off", "time": 408, "note": 62, "velocity": 116, "channel": 0}, {"type": "note_on", "time": 40, "note": 63, "velocity": 115, "channel": 0}, {"type": "note_off", "time": 261, "note": 63, "velocity": 115, "channel": 0}, {"type": "note_on", "time": 28, "note": 64, "velocity": 115, "channel": 0}, {"type": "note_off", "time": 227, "note": 64, "velocity": 115, "channel": 0}, {"type": "note_on", "time": 73, "note": 65, "velocity": 105, "channel": 0}, {"type": "note_off", "time": 152, "note": 65, "velocity": 105, "channel": 0}, {"type": "note_on", "time": 171, "note": 53, "velocity": 113, "channel": 0}, {"type": "note_off", "time": 296, "note": 53, "velocity": 113, "channel": 0}, {"type": "note_on", "time": 74, "note": 56, "velocity": 98, "channel": 0}, {"type": "note_off", "time": 848, "note": 56, "velocity": 98, "channel": 0}, {"type": "note_on", "time": 807, "note": 54, "velocity": 112, "channel": 0}, {"type": "note_off", "time": 295, "note": 54, "velocity": 112, "channel": 0}, {"type": "note_on", "time": 21, "note": 55, "velocity": 109, "channel": 0}, {"type": "note_off", "time": 163, "note": 55, "velocity": 109, "channel": 0}, {"type": "note_on", "time": 28, "note": 58, "velocity": 107, "channel": 0}, {"type": "note_off", "time": 192, "note": 58, "velocity": 107, "channel": 0}, {"type": "note_on", "time": 25, "note": 62, "velocity": 107, "channel": 0}, {"type": "note_off", "time": 201, "note": 62, "velocity": 107, "channel": 0}, {"type": "note_on", "time": 95, "note": 65, "velocity": 103, "channel": 0}, {"type": "note_off", "time": 196, "note": 65, "velocity": 103, "channel": 0}, {"type": "note_on", "time": 90, "note": 63, "velocity": 100, "channel": 0}, {"type": "note_off", "time": 302, "note": 63, "velocity": 100, "channel": 0}, {"type": "note_on", "time": 78, "note": 54, "velocity": 99, "channel": 0}, {"type": "note_off", "time": 872, "note": 54, "velocity": 99, "channel": 0}, {"type": "note_on", "time": 952, "note": 51, "velocity": 111, "channel": 0}, {"type": "note_off", "time": 278, "note": 51, "velocity": 111, "channel": 0}, {"type": "note_on", "time": 10, "note": 53, "velocity": 118, "channel": 0}, {"type": "note_off", "time": 216, "note": 53, "velocity": 118, "channel": 0}, {"type": "note_on", "time": 37, "note": 52, "velocity": 116, "channel": 0}, {"type": "note_off", "time": 234, "note": 52, "velocity": 116, "channel": 0}, {"type": "note_on", "time": 74, "note": 51, "velocity": 111, "channel": 0}, {"type": "note_off", "time": 327, "note": 51, "velocity": 111, "channel": 0}, {"type": "note_on", "time": 20, "note": 55, "velocity": 113, "channel": 0}, {"type": "note_off", "time": 241, "note": 55, "velocity": 113, "channel": 0}, {"type": "note_on", "time": 109, "note": 65, "velocity": 105, "channel": 0}, {"type": "note_off", "time": 181, "note": 65, "velocity": 105, "channel": 0}, {"type": "note_on", "time": 112, "note": 61, "velocity": 96, "channel": 0}, {"type": "note_off", "time": 274, "note": 61, "velocity": 96, "channel": 0}, {"type": "note_on", "time": 43, "note": 57, "velocity": 114, "channel": 0}, {"type": "note_off", "time": 177, "note": 57, "velocity": 114, "channel": 0}, {"type": "note_on", "time": 110, "note": 51, "velocity": 110, "channel": 0}, {"type": "note_off", "time": 260, "note": 51, "velocity": 110, "channel": 0}, {"type": "note_on", "time": 42, "note": 50, "velocity": 114, "channel": 0}, {"type": "note_off", "time": 234, "note": 50, "velocity": 114, "channel": 0}, {"type": "note_on", "time": 19, "note": 53, "velocity": 111, "channel": 0}, {"type": "note_off", "time": 321, "note": 53, "velocity": 111, "channel": 0}, {"type": "note_on", "time": 16, "note": 57, "velocity": 103, "channel": 0}, {"type": "note_off", "time": 279, "note": 57, "velocity": 103, "channel": 0}, {"type": "note_on", "time": 36, "note": 60, "velocity": 95, "channel": 0}, {"type": "note_off", "time": 391, "note": 60, "velocity": 95, "channel": 0}, {"type": "note_on", "time": 30, "note": 58, "velocity": 116, "channel": 0}, {"type": "note_off", "time": 265, "note": 58, "velocity": 116, "channel": 0}, {"type": "note_on", "time": 42, "note": 53, "velocity": 100, "channel": 0}, {"type": "note_off", "time": 1302, "note": 53, "velocity": 100, "channel": 0}, {"type": "note_on", "time": 601, "note": 70, "velocity": 115, "channel": 0}, {"type": "note_off", "time": 219, "note": 70, "velocity": 115, "channel": 0}, {"type": "note_on", "time": 88, "note": 63, "velocity": 117, "channel": 0}, {"type": "note_off", "time": 131, "note": 63, "velocity": 117, "channel": 0}, {"type": "note_on", "time": 21, "note": 64, "velocity": 116, "channel": 0}, {"type": "note_off", "time": 213, "note": 64, "velocity": 116, "channel": 0}, {"type": "note_on", "time": 14, "note": 65, "velocity": 115, "channel": 0}, {"type": "note_off", "time": 236, "note": 65, "velocity": 115, "channel": 0}, {"type": "note_on", "time": 45, "note": 67, "velocity": 112, "channel": 0}, {"type": "note_off", "time": 279, "note": 67, "velocity": 112, "channel": 0}, {"type": "note_on", "time": 29, "note": 68, "velocity": 110, "channel": 0}, {"type": "note_off", "time": 254, "note": 68, "velocity": 110, "channel": 0}, {"type": "note_on", "time": 16, "note": 72, "velocity": 113, "channel": 0}, {"type": "note_off", "time": 233, "note": 72, "velocity": 113, "channel": 0}, {"type": "note_on", "time": 63, "note": 67, "velocity": 98, "channel": 0}, {"type": "note_off", "time": 799, "note": 67, "velocity": 98, "channel": 0}, {"type": "note_on", "time": 92, "note": 65, "velocity": 109, "channel": 0}, {"type": "note_off", "time": 175, "note": 65, "velocity": 109, "channel": 0}, {"type": "note_on", "time": 118, "note": 62, "velocity": 120, "channel": 0}, {"type": "note_off", "time": 248, "note": 62, "velocity": 120, "channel": 0}, {"type": "note_on", "time": 51, "note": 60, "velocity": 101, "channel": 0}, {"type": "note_off", "time": 205, "note": 60, "velocity": 101, "channel": 0}, {"type": "note_on", "time": 63, "note": 55, "velocity": 106, "channel": 0}, {"type": "note_off", "time": 91, "note": 55, "velocity": 106, "channel": 0}, {"type": "note_on", "time": 16, "note": 56, "velocity": 110, "channel": 0}, {"type": "note_off", "time": 172, "note": 56, "velocity": 110, "channel": 0}, {"type": "note_on", "time": 15, "note": 55, "velocity": 109, "channel": 0}, {"type": "note_off", "time": 195, "note": 55, "velocity": 109, "channel": 0}, {"type": "note_on", "time": 34, "note": 58, "velocity": 111, "channel": 0}, {"type": "note_off", "time": 212, "note": 58, "velocity": 111, "channel": 0}, {"type": "note_on", "time": 42, "note": 63, "velocity": 99, "channel": 0}, {"type": "note_off", "time": 172, "note": 63, "velocity": 99, "channel": 0}, {"type": "note_on", "time": 6, "note": 65, "velocity": 95, "channel": 0}, {"type": "note_off", "time": 519, "note": 65, "velocity": 95, "channel": 0}, {"type": "note_on", "time": 28, "note": 63, "velocity": 112, "channel": 0}, {"type": "note_off", "time": 196, "note": 63, "velocity": 112, "channel": 0}, {"type": "note_on", "time": 200, "note": 54, "velocity": 98, "channel": 0}, {"type": "note_off", "time": 720, "note": 54, "velocity": 98, "channel": 0}, {"type": "note_on", "time": 824, "note": 53, "velocity": 112, "channel": 0}, {"type": "note_off", "time": 242, "note": 53, "velocity": 112, "channel": 0}, {"type": "note_on", "time": 18, "note": 58, "velocity": 112, "channel": 0}, {"type": "note_off", "time": 127, "note": 58, "velocity": 112, "channel": 0}, {"type": "note_on", "time": 30, "note": 62, "velocity": 122, "channel": 0}, {"type": "note_off", "time": 212, "note": 62, "velocity": 122, "channel": 0}, {"type": "note_on", "time": 18, "note": 63, "velocity": 122, "channel": 0}, {"type": "note_off", "time": 169, "note": 63, "velocity": 122, "channel": 0}, {"type": "note_on", "time": 18, "note": 62, "velocity": 119, "channel": 0}, {"type": "note_off", "time": 254, "note": 62, "velocity": 119, "channel": 0}, {"type": "note_on", "time": 6, "note": 60, "velocity": 116, "channel": 0}, {"type": "note_off", "time": 205, "note": 60, "velocity": 116, "channel": 0}, {"type": "note_on", "time": 10, "note": 58, "velocity": 112, "channel": 0}, {"type": "note_off", "time": 151, "note": 58, "velocity": 112, "channel": 0}, {"type": "note_on", "time": 31, "note": 55, "velocity": 111, "channel": 0}, {"type": "note_off", "time": 248, "note": 55, "velocity": 111, "channel": 0}, {"type": "note_on", "time": 16, "note": 53, "velocity": 102, "channel": 0}, {"type": "note_off", "time": 381, "note": 53, "velocity": 102, "channel": 0}, {"type": "note_on", "time": 20, "note": 52, "velocity": 103, "channel": 0}, {"type": "note_off", "time": 290, "note": 52, "velocity": 103, "channel": 0}, {"type": "note_on", "time": 230, "note": 51, "velocity": 84, "channel": 0}, {"type": "note_off", "time": 145, "note": 51, "velocity": 84, "channel": 0}, {"type": "note_on", "time": 0, "note": 49, "velocity": 106, "channel": 0}, {"type": "note_off", "time": 127, "note": 49, "velocity": 106, "channel": 0}, {"type": "note_on", "time": 17, "note": 50, "velocity": 113, "channel": 0}, {"type": "note_off", "time": 314, "note": 50, "velocity": 113, "channel": 0}, {"type": "note_on", "time": 62, "note": 58, "velocity": 109, "channel": 0}, {"type": "note_off", "time": 706, "note": 58, "velocity": 109, "channel": 0}, {"type": "note_on", "time": 33, "note": 55, "velocity": 115, "channel": 0}, {"type": "note_off", "time": 187, "note": 55, "velocity": 115, "channel": 0}, {"type": "note_on", "time": 19, "note": 56, "velocity": 115, "channel": 0}, {"type": "note_off", "time": 175, "note": 56, "velocity": 115, "channel": 0}, {"type": "note_on", "time": 76, "note": 60, "velocity": 107, "channel": 0}, {"type": "note_off", "time": 85, "note": 60, "velocity": 107, "channel": 0}, {"type": "note_on", "time": 17, "note": 63, "velocity": 117, "channel": 0}, {"type": "note_off", "time": 230, "note": 63, "velocity": 117, "channel": 0}, {"type": "note_on", "time": 49, "note": 67, "velocity": 108, "channel": 0}, {"type": "note_off", "time": 127, "note": 67, "velocity": 108, "channel": 0}, {"type": "note_on", "time": 23, "note": 66, "velocity": 104, "channel": 0}, {"type": "note_off", "time": 169, "note": 66, "velocity": 104, "channel": 0}, {"type": "note_on", "time": 1542, "note": 63, "velocity": 116, "channel": 0}, {"type": "note_off", "time": 204, "note": 63, "velocity": 116, "channel": 0}, {"type": "note_on", "time": 24, "note": 65, "velocity": 104, "channel": 0}, {"type": "note_off", "time": 1441, "note": 65, "velocity": 104, "channel": 0}, {"type": "note_on", "time": 24, "note": 66, "velocity": 99, "channel": 0}, {"type": "note_off", "time": 78, "note": 66, "velocity": 99, "channel": 0}, {"type": "note_on", "time": 21, "note": 69, "velocity": 111, "channel": 0}, {"type": "note_off", "time": 260, "note": 69, "velocity": 111, "channel": 0}, {"type": "note_on", "time": 46, "note": 60, "velocity": 99, "channel": 0}, {"type": "note_off", "time": 1438, "note": 60, "velocity": 99, "channel": 0}, {"type": "note_on", "time": 326, "note": 63, "velocity": 115, "channel": 0}, {"type": "note_off", "time": 125, "note": 63, "velocity": 115, "channel": 0}, {"type": "note_on", "time": 24, "note": 65, "velocity": 117, "channel": 0}, {"type": "note_off", "time": 261, "note": 65, "velocity": 117, "channel": 0}, {"type": "note_on", "time": 89, "note": 62, "velocity": 117, "channel": 0}, {"type": "note_off", "time": 48, "note": 62, "velocity": 117, "channel": 0}, {"type": "note_on", "time": 5, "note": 63, "velocity": 120, "channel": 0}, {"type": "note_off", "time": 49, "note": 63, "velocity": 120, "channel": 0}, {"type": "note_on", "time": 15, "note": 64, "velocity": 113, "channel": 0}, {"type": "note_off", "time": 74, "note": 64, "velocity": 113, "channel": 0}, {"type": "note_on", "time": 8, "note": 63, "velocity": 116, "channel": 0}, {"type": "note_off", "time": 188, "note": 63, "velocity": 116, "channel": 0}, {"type": "note_on", "time": 40, "note": 61, "velocity": 116, "channel": 0}, {"type": "note_off", "time": 122, "note": 61, "velocity": 116, "channel": 0}, {"type": "note_on", "time": 75, "note": 62, "velocity": 119, "channel": 0}, {"type": "note_off", "time": 247, "note": 62, "velocity": 119, "channel": 0}, {"type": "note_on", "time": 12, "note": 63, "velocity": 119, "channel": 0}, {"type": "note_off", "time": 417, "note": 63, "velocity": 119, "channel": 0}, {"type": "note_on", "time": 49, "note": 61, "velocity": 118, "channel": 0}, {"type": "note_off", "time": 124, "note": 61, "velocity": 118, "channel": 0}, {"type": "note_on", "time": 25, "note": 63, "velocity": 111, "channel": 0}, {"type": "note_off", "time": 144, "note": 63, "velocity": 111, "channel": 0}, {"type": "note_on", "time": 73, "note": 60, "velocity": 98, "channel": 0}, {"type": "note_off", "time": 1352, "note": 60, "velocity": 98, "channel": 0}, {"type": "note_on", "time": 522, "note": 58, "velocity": 111, "channel": 0}, {"type": "note_off", "time": 307, "note": 58, "velocity": 111, "channel": 0}, {"type": "note_on", "time": 15, "note": 60, "velocity": 97, "channel": 0}, {"type": "note_off", "time": 202, "note": 60, "velocity": 97, "channel": 0}, {"type": "note_on", "time": 12, "note": 56, "velocity": 114, "channel": 0}, {"type": "note_off", "time": 301, "note": 56, "velocity": 114, "channel": 0}, {"type": "note_on", "time": 20, "note": 57, "velocity": 100, "channel": 0}, {"type": "note_off", "time": 1326, "note": 57, "velocity": 100, "channel": 0}, {"type": "note_on", "time": 9, "note": 55, "velocity": 112, "channel": 0}, {"type": "note_off", "time": 165, "note": 55, "velocity": 112, "channel": 0}, {"type": "note_on", "time": 24, "note": 57, "velocity": 114, "channel": 0}, {"type": "note_off", "time": 118, "note": 57, "velocity": 114, "channel": 0}, {"type": "note_on", "time": 77, "note": 48, "velocity": 103, "channel": 0}, {"type": "note_off", "time": 1145, "note": 48, "velocity": 103, "channel": 0}, {"type": "note_on", "time": 555, "note": 55, "velocity": 116, "channel": 0}, {"type": "note_off", "time": 215, "note": 55, "velocity": 116, "channel": 0}, {"type": "note_on", "time": 45, "note": 52, "velocity": 116, "channel": 0}, {"type": "note_off", "time": 131, "note": 52, "velocity": 116, "channel": 0}, {"type": "note_on", "time": 14, "note": 53, "velocity": 117, "channel": 0}, {"type": "note_off", "time": 225, "note": 53, "velocity": 117, "channel": 0}, {"type": "note_on", "time": 13, "note": 57, "velocity": 119, "channel": 0}, {"type": "note_off", "time": 122, "note": 57, "velocity": 119, "channel": 0}, {"type": "note_on", "time": 61, "note": 60, "velocity": 117, "channel": 0}, {"type": "note_off", "time": 181, "note": 60, "velocity": 117, "channel": 0}, {"type": "note_on", "time": 20, "note": 63, "velocity": 120, "channel": 0}, {"type": "note_off", "time": 199, "note": 63, "velocity": 120, "channel": 0}, {"type": "note_on", "time": 52, "note": 67, "velocity": 114, "channel": 0}, {"type": "note_off", "time": 185, "note": 67, "velocity": 114, "channel": 0}, {"type": "note_on", "time": 9, "note": 63, "velocity": 119, "channel": 0}, {"type": "note_off", "time": 271, "note": 63, "velocity": 119, "channel": 0}, {"type": "note_on", "time": 58, "note": 58, "velocity": 109, "channel": 0}, {"type": "note_off", "time": 146, "note": 58, "velocity": 109, "channel": 0}, {"type": "note_on", "time": 23, "note": 59, "velocity": 114, "channel": 0}, {"type": "note_off", "time": 143, "note": 59, "velocity": 114, "channel": 0}, {"type": "note_on", "time": 5, "note": 61, "velocity": 115, "channel": 0}, {"type": "note_off", "time": 180, "note": 61, "velocity": 115, "channel": 0}, {"type": "note_on", "time": 15, "note": 63, "velocity": 121, "channel": 0}, {"type": "note_off", "time": 189, "note": 63, "velocity": 121, "channel": 0}, {"type": "note_on", "time": 21, "note": 68, "velocity": 110, "channel": 0}, {"type": "note_off", "time": 176, "note": 68, "velocity": 110, "channel": 0}, {"type": "note_on", "time": 4, "note": 66, "velocity": 118, "channel": 0}, {"type": "note_off", "time": 167, "note": 66, "velocity": 118, "channel": 0}, {"type": "note_on", "time": 8, "note": 63, "velocity": 125, "channel": 0}, {"type": "note_off", "time": 228, "note": 63, "velocity": 125, "channel": 0}, {"type": "note_on", "time": 53, "note": 61, "velocity": 118, "channel": 0}, {"type": "note_off", "time": 132, "note": 61, "velocity": 118, "channel": 0}, {"type": "note_on", "time": 9, "note": 59, "velocity": 109, "channel": 0}, {"type": "note_off", "time": 191, "note": 59, "velocity": 109, "channel": 0}, {"type": "note_on", "time": 63, "note": 54, "velocity": 116, "channel": 0}, {"type": "note_off", "time": 162, "note": 54, "velocity": 116, "channel": 0}, {"type": "note_on", "time": 10, "note": 52, "velocity": 113, "channel": 0}, {"type": "note_off", "time": 137, "note": 52, "velocity": 113, "channel": 0}, {"type": "note_on", "time": 61, "note": 51, "velocity": 111, "channel": 0}, {"type": "note_off", "time": 212, "note": 51, "velocity": 111, "channel": 0}, {"type": "note_on", "time": 43, "note": 49, "velocity": 107, "channel": 0}, {"type": "note_off", "time": 158, "note": 49, "velocity": 107, "channel": 0}, {"type": "note_on", "time": 78, "note": 52, "velocity": 115, "channel": 0}, {"type": "note_off", "time": 117, "note": 52, "velocity": 115, "channel": 0}, {"type": "note_on", "time": 13, "note": 55, "velocity": 120, "channel": 0}, {"type": "note_off", "time": 180, "note": 55, "velocity": 120, "channel": 0}, {"type": "note_on", "time": 25, "note": 52, "velocity": 114, "channel": 0}, {"type": "note_off", "time": 124, "note": 52, "velocity": 114, "channel": 0}, {"type": "note_on", "time": 12, "note": 53, "velocity": 118, "channel": 0}, {"type": "note_off", "time": 211, "note": 53, "velocity": 118, "channel": 0}, {"type": "note_on", "time": 24, "note": 57, "velocity": 109, "channel": 0}, {"type": "note_off", "time": 120, "note": 57, "velocity": 109, "channel": 0}, {"type": "note_on", "time": 59, "note": 62, "velocity": 124, "channel": 0}, {"type": "note_off", "time": 199, "note": 62, "velocity": 124, "channel": 0}, {"type": "note_on", "time": 22, "note": 65, "velocity": 112, "channel": 0}, {"type": "note_off", "time": 186, "note": 65, "velocity": 112, "channel": 0}, {"type": "note_on", "time": 7, "note": 58, "velocity": 116, "channel": 0}, {"type": "note_off", "time": 151, "note": 58, "velocity": 116, "channel": 0}, {"type": "note_on", "time": 20, "note": 59, "velocity": 108, "channel": 0}, {"type": "note_off", "time": 172, "note": 59, "velocity": 108, "channel": 0}, {"type": "note_on", "time": 30, "note": 62, "velocity": 120, "channel": 0}, {"type": "note_off", "time": 180, "note": 62, "velocity": 120, "channel": 0}, {"type": "note_on", "time": 33, "note": 65, "velocity": 110, "channel": 0}, {"type": "note_off", "time": 162, "note": 65, "velocity": 110, "channel": 0}, {"type": "note_on", "time": 27, "note": 68, "velocity": 112, "channel": 0}, {"type": "note_off", "time": 142, "note": 68, "velocity": 112, "channel": 0}, {"type": "note_on", "time": 969, "note": 69, "velocity": 116, "channel": 0}, {"type": "note_off", "time": 262, "note": 69, "velocity": 116, "channel": 0}, {"type": "note_on", "time": 125, "note": 70, "velocity": 115, "channel": 0}, {"type": "note_off", "time": 215, "note": 70, "velocity": 115, "channel": 0}, {"type": "note_on", "time": 95, "note": 71, "velocity": 108, "channel": 0}, {"type": "note_off", "time": 222, "note": 71, "velocity": 108, "channel": 0}, {"type": "note_on", "time": 15, "note": 72, "velocity": 114, "channel": 0}, {"type": "note_off", "time": 204, "note": 72, "velocity": 114, "channel": 0}, {"type": "note_on", "time": 142, "note": 61, "velocity": 113, "channel": 0}, {"type": "note_off", "time": 84, "note": 61, "velocity": 113, "channel": 0}, {"type": "note_on", "time": 16, "note": 62, "velocity": 113, "channel": 0}, {"type": "note_off", "time": 221, "note": 62, "velocity": 113, "channel": 0}, {"type": "note_on", "time": 58, "note": 63, "velocity": 118, "channel": 0}, {"type": "note_off", "time": 208, "note": 63, "velocity": 118, "channel": 0}, {"type": "note_on", "time": 83, "note": 64, "velocity": 114, "channel": 0}, {"type": "note_off", "time": 242, "note": 64, "velocity": 114, "channel": 0}, {"type": "note_on", "time": 19, "note": 65, "velocity": 107, "channel": 0}, {"type": "note_off", "time": 159, "note": 65, "velocity": 107, "channel": 0}, {"type": "note_on", "time": 192, "note": 66, "velocity": 98, "channel": 0}, {"type": "note_off", "time": 234, "note": 66, "velocity": 98, "channel": 0}, {"type": "note_on", "time": 80, "note": 67, "velocity": 90, "channel": 0}, {"type": "note_off", "time": 154, "note": 67, "velocity": 90, "channel": 0}, {"type": "note_on", "time": 125, "note": 62, "velocity": 113, "channel": 0}, {"type": "note_off", "time": 314, "note": 62, "velocity": 113, "channel": 0}, {"type": "note_on", "time": 8, "note": 60, "velocity": 97, "channel": 0}, {"type": "note_off", "time": 1158, "note": 60, "velocity": 97, "channel": 0}, {"type": "note_on", "time": 452, "note": 56, "velocity": 97, "channel": 0}, {"type": "note_off", "time": 682, "note": 56, "velocity": 97, "channel": 0}, {"type": "note_on", "time": 13, "note": 60, "velocity": 87, "channel": 0}, {"type": "note_off", "time": 2501, "note": 60, "velocity": 87, "channel": 0}, {"type": "end_of_track", "time": 0}]]}