{"ticks_per_beat": 840, "tracks": [[{"type": "track_name", "name": "Melody", "time": 0}, {"type": "set_tempo", "tempo": 606060, "time": 0}, {"type": "key_signature", "key": "Db", "time": 0}, {"type": "time_signature", "numerator": 4, "denominator": 4, "clocks_per_click": 24, "notated_32nd_notes_per_beat": 8, "time": 0}, {"type": "note_on", "time": 14932, "note": 51, "velocity": 107, "channel": 0}, {"type": "note_off", "time": 458, "note": 51, "velocity": 107, "channel": 0}, {"type": "note_on", "time": 17, "note": 56, "velocity": 108, "channel": 0}, {"type": "note_off", "time": 220, "note": 56, "velocity": 108, "channel": 0}, {"type": "note_on", "time": 62, "note": 59, "velocity": 109, "channel": 0}, {"type": "note_off", "time": 263, "note": 59, "velocity": 109, "channel": 0}, {"type": "note_on", "time": 33, "note": 58, "velocity": 110, "channel": 0}, {"type": "note_off", "time": 197, "note": 58, "velocity": 110, "channel": 0}, {"type": "note_on", "time": 16, "note": 51, "velocity": 84, "channel": 0}, {"type": "note_off", "time": 1660, "note": 51, "velocity": 84, "channel": 0}, {"type": "note_on", "time": 268, "note": 52, "velocity": 99, "channel": 0}, {"type": "note_off", "time": 226, "note": 52, "velocity": 99, "channel": 0}, {"type": "note_on", "time": 42, "note": 53, "velocity": 108, "channel": 0}, {"type": "note_off", "time": 212, "note": 53, "velocity": 108, "channel": 0}, {"type": "note_on", "time": 16, "note": 54, "velocity": 104, "channel": 0}, {"type": "note_off", "time": 231, "note": 54, "velocity": 104, "channel": 0}, {"type": "note_on", "time": 62, "note": 56, "velocity": 103, "channel": 0}, {"type": "note_off", "time": 248, "note": 56, "velocity": 103, "channel": 0}, {"type": "note_on", "time": 22, "note": 53, "velocity": 103, "channel": 0}, {"type": "note_off", "time": 243, "note": 53, "velocity": 103, "channel": 0}, {"type": "note_on", "time": 5, "note": 51, "velocity": 97, "channel": 0}, {"type": "note_off", "time": 172, "note": 51, "velocity": 97, "channel": 0}, {"type": "note_on", "time": 113, "note": 58, "velocity": 99, "channel": 0}, {"type": "note_off", "time": 277, "note": 58, "velocity": 99, "channel": 0}, {"type": "note_on", "time": 42, "note": 58, "velocity": 90, "channel": 0}, {"type": "note_off", "time": 1137, "note": 58, "velocity": 90, "channel": 0}, {"type": "note_on", "time": 636, "note": 52, "velocity": 106, "channel": 0}, {"type": "note_off", "time": 189, "note": 52, "velocity": 106, "channel": 0}, {"type": "note_on", "time": 25, "note": 56, "velocity": 111, "channel": 0}, {"type": "note_off", "time": 195, "note": 56, "velocity": 111, "channel": 0}, {"type": "note_on", "time": 45, "note": 64, "velocity": 118, "channel": 0}, {"type": "note_off", "time": 169, "note": 64, "velocity": 118, "channel": 0}, {"type": "note_on", "time": 41, "note": 60, "velocity": 110, "channel": 0}, {"type": "note_off", "time": 195, "note": 60, "velocity": 110, "channel": 0}, {"type": "note_on", "time": 32, "note": 58, "velocity": 102, "channel": 0}, {"type": "note_off", "time": 183, "note": 58, "velocity": 102, "channel": 0}, {"type": "note_on", "time": 23, "note": 54, "velocity": 102, "channel": 0}, {"type": "note_off", "time": 126, "note": 54, "velocity": 102, "channel": 0}, {"type": "note_on", "time": 42, "note": 53, "velocity": 91, "channel": 0}, {"type": "note_off", "time": 1082, "note": 53, "velocity": 91, "channel": 0}, {"type": "note_on", "time": 44, "note": 56, "velocity": 106, "channel": 0}, {"type": "note_off", "time": 187, "note": 56, "velocity": 106, "channel": 0}, {"type": "note_on", "time": 32, "note": 58, "velocity": 105, "channel": 0}, {"type": "note_off", "time": 172, "note": 58, "velocity": 105, "channel": 0}, {"type": "note_on", "time": 28, "note": 56, "velocity": 99, "channel": 0}, {"type": "note_off", "time": 114, "note": 56, "velocity": 99, "channel": 0}, {"type": "note_on", "time": 62, "note": 58, "velocity": 103, "channel": 0}, {"type": "note_off", "time": 426, "note": 58, "velocity": 103, "channel": 0}, {"type": "note_on", "time": 56, "note": 51, "velocity": 95, "channel": 0}, {"type": "note_off", "time": 134, "note": 51, "velocity": 95, "channel": 0}, {"type": "note_on", "time": 14, "note": 54, "velocity": 95, "channel": 0}, {"type": "note_off", "time": 112, "note": 54, "velocity": 95, "channel": 0}, {"type": "note_on", "time": 8, "note": 58, "velocity": 97, "channel": 0}, {"type": "note_off", "time": 134, "note": 58, "velocity": 97, "channel": 0}, {"type": "note_on", "time": 4, "note": 63, "velocity": 114, "channel": 0}, {"type": "note_off", "time": 251, "note": 63, "velocity": 114, "channel": 0}, {"type": "note_on", "time": 18, "note": 61, "velocity": 115, "channel": 0}, {"type": "note_off", "time": 183, "note": 61, "velocity": 115, "channel": 0}, {"type": "note_on", "time": 32, "note": 58, "velocity": 100, "channel": 0}, {"type": "note_off", "time": 154, "note": 58, "velocity": 100, "channel": 0}, {"type": "note_on", "time": 52, "note": 54, "velocity": 101, "channel": 0}, {"type": "note_off", "time": 136, "note": 54, "velocity": 101, "channel": 0}, {"type": "note_on", "time": 34, "note": 53, "velocity": 92, "channel": 0}, {"type": "note_off", "time": 179, "note": 53, "velocity": 92, "channel": 0}, {"type": "note_on", "time": 492, "note": 56, "velocity": 107, "channel": 0}, {"type": "note_off", "time": 378, "note": 56, "velocity": 107, "channel": 0}, {"type": "note_on", "time": 16, "note": 63, "velocity": 116, "channel": 0}, {"type": "note_off", "time": 339, "note": 63, "velocity": 116, "channel": 0}, {"type": "note_on", "time": 24, "note": 61, "velocity": 121, "channel": 0}, {"type": "note_off", "time": 301, "note": 61, "velocity": 121, "channel": 0}, {"type": "note_on", "time": 68, "note": 60, "velocity": 109, "channel": 0}, {"type": "note_off", "time": 543, "note": 60, "velocity": 109, "channel": 0}, {"type": "note_on", "time": 26, "note": 58, "velocity": 100, "channel": 0}, {"type": "note_off", "time": 396, "note": 58, "velocity": 100, "channel": 0}, {"type": "note_on", "time": 44, "note": 52, "velocity": 89, "channel": 0}, {"type": "note_off", "time": 193, "note": 52, "velocity": 89, "channel": 0}, {"type": "note_on", "time": 14, "note": 53, "velocity": 92, "channel": 0}, {"type": "note_off", "time": 130, "note": 53, "velocity": 92, "channel": 0}, {"type": "note_on", "time": 42, "note": 51, "velocity": 83, "channel": 0}, {"type": "note_off", "time": 826, "note": 51, "velocity": 83, "channel": 0}, {"type": "note_on", "time": 611, "note": 54, "velocity": 101, "channel": 0}, {"type": "note_off", "time": 341, "note": 54, "velocity": 101, "channel": 0}, {"type": "note_on", "time": 30, "note": 58, "velocity": 101, "channel": 0}, {"type": "note_off", "time": 317, "note": 58, "velocity": 101, "channel": 0}, {"type": "note_on", "time": 18, "note": 61, "velocity": 114, "channel": 0}, {"type": "note_off", "time": 259, "note": 61, "velocity": 114, "channel": 0}, {"type": "note_on", "time": 38, "note": 58, "velocity": 104, "channel": 0}, {"type": "note_off", "time": 211, "note": 58, "velocity": 104, "channel": 0}, {"type": "note_on", "time": 22, "note": 56, "velocity": 101, "channel": 0}, {"type": "note_off", "time": 201, "note": 56, "velocity": 101, "channel": 0}, {"type": "note_on", "time": 46, "note": 54, "velocity": 96, "channel": 0}, {"type": "note_off", "time": 195, "note": 54, "velocity": 96, "channel": 0}, {"type": "note_on", "time": 36, "note": 49, "velocity": 98, "channel": 0}, {"type": "note_off", "time": 247, "note": 49, "velocity": 98, "channel": 0}, {"type": "note_on", "time": 10, "note": 51, "velocity": 98, "channel": 0}, {"type": "note_off", "time": 160, "note": 51, "velocity": 98, "channel": 0}, {"type": "note_on", "time": 28, "note": 53, "velocity": 85, "channel": 0}, {"type": "note_off", "time": 741, "note": 53, "velocity": 85, "channel": 0}, {"type": "note_on", "time": 531, "note": 53, "velocity": 100, "channel": 0}, {"type": "note_off", "time": 466, "note": 53, "velocity": 100, "channel": 0}, {"type": "note_on", "time": 34, "note": 54, "velocity": 108, "channel": 0}, {"type": "note_off", "time": 189, "note": 54, "velocity": 108, "channel": 0}, {"type": "note_on", "time": 15, "note": 53, "velocity": 109, "channel": 0}, {"type": "note_off", "time": 285, "note": 53, "velocity": 109, "channel": 0}, {"type": "note_on", "time": 7, "note": 57, "velocity": 112, "channel": 0}, {"type": "note_off", "time": 260, "note": 57, "velocity": 112, "channel": 0}, {"type": "note_on", "time": 4, "note": 61, "velocity": 118, "channel": 0}, {"type": "note_off", "time": 231, "note": 61, "velocity": 118, "channel": 0}, {"type": "note_on", "time": 44, "note": 53, "velocity": 108, "channel": 0}, {"type": "note_off", "time": 255, "note": 53, "velocity": 108, "channel": 0}, {"type": "note_on", "time": 28, "note": 57, "velocity": 113, "channel": 0}, {"type": "note_off", "time": 281, "note": 57, "velocity": 113, "channel": 0}, {"type": "note_on", "time": 116, "note": 60, "velocity": 86, "channel": 0}, {"type": "note_off", "time": 464, "note": 60, "velocity": 86, "channel": 0}, {"type": "note_on", "time": 42, "note": 59, "velocity": 95, "channel": 0}, {"type": "note_off", "time": 219, "note": 59, "velocity": 95, "channel": 0}, {"type": "note_on", "time": 48, "note": 58, "velocity": 96, "channel": 0}, {"type": "note_off", "time": 221, "note": 58, "velocity": 96, "channel": 0}, {"type": "note_on", "time": 66, "note": 53, "velocity": 95, "channel": 0}, {"type": "note_off", "time": 575, "note": 53, "velocity": 95, "channel": 0}, {"type": "note_on", "time": 80, "note": 59, "velocity": 92, "channel": 0}, {"type": "note_off", "time": 504, "note": 59, "velocity": 92, "channel": 0}, {"type": "note_on", "time": 22, "note": 58, "velocity": 97, "channel": 0}, {"type": "note_off", "time": 170, "note": 58, "velocity": 97, "channel": 0}, {"type": "note_on", "time": 50, "note": 57, "velocity": 103, "channel": 0}, {"type": "note_off", "time": 213, "note": 57, "velocity": 103, "channel": 0}, {"type": "note_on", "time": 53, "note": 52, "velocity": 88, "channel": 0}, {"type": "note_off", "time": 205, "note": 52, "velocity": 88, "channel": 0}, {"type": "note_on", "time": 22, "note": 54, "velocity": 92, "channel": 0}, {"type": "note_off", "time": 183, "note": 54, "velocity": 92, "channel": 0}, {"type": "note_on", "time": 15, "note": 56, "velocity": 81, "channel": 0}, {"type": "note_off", "time": 828, "note": 56, "velocity": 81, "channel": 0}, {"type": "note_on", "time": 455, "note": 53, "velocity": 113, "channel": 0}, {"type": "note_off", "time": 223, "note": 53, "velocity": 113, "channel": 0}, {"type": "note_on", "time": 15, "note": 52, "velocity": 109, "channel": 0}, {"type": "note_off", "time": 158, "note": 52, "velocity": 109, "channel": 0}, {"type": "note_on", "time": 25, "note": 51, "velocity": 107, "channel": 0}, {"type": "note_off", "time": 231, "note": 51, "velocity": 107, "channel": 0}, {"type": "note_on", "time": 5, "note": 56, "velocity": 110, "channel": 0}, {"type": "note_off", "time": 181, "note": 56, "velocity": 110, "channel": 0}, {"type": "note_on", "time": 19, "note": 59, "velocity": 108, "channel": 0}, {"type": "note_off", "time": 220, "note": 59, "velocity": 108, "channel": 0}, {"type": "note_on", "time": 33, "note": 51, "velocity": 101, "channel": 0}, {"type": "note_off", "time": 183, "note": 51, "velocity": 101, "channel": 0}, {"type": "note_on", "time": 9, "note": 50, "velocity": 89, "channel": 0}, {"type": "note_off", "time": 764, "note": 50, "velocity": 89, "channel": 0}, {"type": "note_on", "time": 574, "note": 51, "velocity": 106, "channel": 0}, {"type": "note_off", "time": 174, "note": 51, "velocity": 106, "channel": 0}, {"type": "note_on", "time": 7, "note": 53, "velocity": 116, "channel": 0}, {"type": "note_off", "time": 209, "note": 53, "velocity": 116, "channel": 0}, {"type": "note_on", "time": 7, "note": 54, "velocity": 111, "channel": 0}, {"type": "note_off", "time": 188, "note": 54, "velocity": 111, "channel": 0}, {"type": "note_on", "time": 18, "note": 56, "velocity": 108, "channel": 0}, {"type": "note_off", "time": 172, "note": 56, "velocity": 108, "channel": 0}, {"type": "note_on", "time": 29, "note": 58, "velocity": 109, "channel": 0}, {"type": "note_off", "time": 212, "note": 58, "velocity": 109, "channel": 0}, {"type": "note_on", "time": 8, "note": 61, "velocity": 120, "channel": 0}, {"type": "note_off", "time": 186, "note": 61, "velocity": 120, "channel": 0}, {"type": "note_on", "time": 15, "note": 65, "velocity": 123, "channel": 0}, {"type": "note_off", "time": 182, "note": 65, "velocity": 123, "channel": 0}, {"type": "note_on", "time": 33, "note": 63, "velocity": 122, "channel": 0}, {"type": "note_off", "time": 155, "note": 63, "velocity": 122, "channel": 0}, {"type": "note_on", "time": 24, "note": 62, "velocity": 116, "channel": 0}, {"type": "note_off", "time": 196, "note": 62, "velocity": 116, "channel": 0}, {"type": "note_on", "time": 16, "note": 65, "velocity": 122, "channel": 0}, {"type": "note_off", "time": 274, "note": 65, "velocity": 122, "channel": 0}, {"type": "note_on", "time": 9, "note": 68, "velocity": 111, "channel": 0}, {"type": "note_off", "time": 272, "note": 68, "velocity": 111, "channel": 0}, {"type": "note_on", "time": 2, "note": 71, "velocity": 106, "channel": 0}, {"type": "note_off", "time": 284, "note": 71, "velocity": 106, "channel": 0}, {"type": "note_on", "time": 18, "note": 69, "velocity": 111, "channel": 0}, {"type": "note_off", "time": 224, "note": 69, "velocity": 111, "channel": 0}, {"type": "note_on", "time": 25, "note": 70, "velocity": 107, "channel": 0}, {"type": "note_off", "time": 222, "note": 70, "velocity": 107, "channel": 0}, {"type": "note_on", "time": 29, "note": 66, "velocity": 107, "channel": 0}, {"type": "note_off", "time": 162, "note": 66, "velocity": 107, "channel": 0}, {"type": "note_on", "time": 11, "note": 65, "velocity": 120, "channel": 0}, {"type": "note_off", "time": 71, "note": 65, "velocity": 120, "channel": 0}, {"type": "note_on", "time": 8, "note": 64, "velocity": 111, "channel": 0}, {"type": "note_off", "time": 109, "note": 64, "velocity": 111, "channel": 0}, {"type": "note_on", "time": 9, "note": 63, "velocity": 117, "channel": 0}, {"type": "note_off", "time": 158, "note": 63, "velocity": 117, "channel": 0}, {"type": "note_on", "time": 22, "note": 62, "velocity": 113, "channel": 0}, {"type": "note_off", "time": 249, "note": 62, "velocity": 113, "channel": 0}, {"type": "note_on", "time": 29, "note": 70, "velocity": 101, "channel": 0}, {"type": "note_off", "time": 231, "note": 70, "velocity": 101, "channel": 0}, {"type": "note_on", "time": 14, "note": 66, "velocity": 100, "channel": 0}, {"type": "note_off", "time": 176, "note": 66, "velocity": 100, "channel": 0}, {"type": "note_on", "time": 15, "note": 62, "velocity": 106, "channel": 0}, {"type": "note_off", "time": 185, "note": 62, "velocity": 106, "channel": 0}, {"type": "note_on", "time": 5, "note": 61, "velocity": 113, "channel": 0}, {"type": "note_off", "time": 224, "note": 61, "velocity": 113, "channel": 0}, {"type": "note_on", "time": 14, "note": 58, "velocity": 102, "channel": 0}, {"type": "note_off", "time": 168, "note": 58, "velocity": 102, "channel": 0}, {"type": "note_on", "time": 46, "note": 54, "velocity": 99, "channel": 0}, {"type": "note_off", "time": 108, "note": 54, "velocity": 99, "channel": 0}, {"type": "note_on", "time": 15, "note": 51, "velocity": 94, "channel": 0}, {"type": "note_off", "time": 134, "note": 51, "velocity": 94, "channel": 0}, {"type": "note_on", "time": 9, "note": 49, "velocity": 94, "channel": 0}, {"type": "note_off", "time": 153, "note": 49, "velocity": 94, "channel": 0}, {"type": "note_on", "time": 6, "note": 48, "velocity": 96, "channel": 0}, {"type": "note_off", "time": 219, "note": 48, "velocity": 96, "channel": 0}, {"type": "note_on", "time": 66, "note": 56, "velocity": 100, "channel": 0}, {"type": "note_off", "time": 129, "note": 56, "velocity": 100, "channel": 0}, {"type": "note_on", "time": 20, "note": 54, "velocity": 91, "channel": 0}, {"type": "note_off", "time": 211, "note": 54, "velocity": 91, "channel": 0}, {"type": "note_on", "time": 37, "note": 53, "velocity": 84, "channel": 0}, {"type": "note_off", "time": 828, "note": 53, "velocity": 84, "channel": 0}, {"type": "note_on", "time": 206, "note": 56, "velocity": 110, "channel": 0}, {"type": "note_off", "time": 181, "note": 56, "velocity": 110, "channel": 0}, {"type": "note_on", "time": 12, "note": 58, "velocity": 108, "channel": 0}, {"type": "note_off", "time": 223, "note": 58, "velocity": 108, "channel": 0}, {"type": "note_on", "time": 18, "note": 60, "velocity": 111, "channel": 0}, {"type": "note_off", "time": 233, "note": 60, "velocity": 111, "channel": 0}, {"type": "note_on", "time": 22, "note": 63, "velocity": 118, "channel": 0}, {"type": "note_off", "time": 316, "note": 63, "velocity": 118, "channel": 0}, {"type": "note_on", "time": 22, "note": 60, "velocity": 114, "channel": 0}, {"type": "note_off", "time": 203, "note": 60, "velocity": 114, "channel": 0}, {"type": "note_on", "time": 21, "note": 61, "velocity": 123, "channel": 0}, {"type": "note_off", "time": 205, "note": 61, "velocity": 123, "channel": 0}, {"type": "note_on", "time": 8, "note": 63, "velocity": 121, "channel": 0}, {"type": "note_off", "time": 224, "note": 63, "velocity": 121, "channel": 0}, {"type": "note_on", "time": 15, "note": 65, "velocity": 123, "channel": 0}, {"type": "note_off", "time": 264, "note": 65, "velocity": 123, "channel": 0}, {"type": "note_on", "time": 29, "note": 68, "velocity": 102, "channel": 0}, {"type": "note_off", "time": 261, "note": 68, "velocity": 102, "channel": 0}, {"type": "note_on", "time": 24, "note": 66, "velocity": 109, "channel": 0}, {"type": "note_off", "time": 195, "note": 66, "velocity": 109, "channel": 0}, {"type": "note_on", "time": 28, "note": 65, "velocity": 123, "channel": 0}, {"type": "note_off", "time": 200, "note": 65, "velocity": 123, "channel": 0}, {"type": "note_on", "time": 22, "note": 66, "velocity": 107, "channel": 0}, {"type": "note_off", "time": 165, "note": 66, "velocity": 107, "channel": 0}, {"type": "note_on", "time": 15, "note": 68, "velocity": 105, "channel": 0}, {"type": "note_off", "time": 202, "note": 68, "velocity": 105, "channel": 0}, {"type": "note_on", "time": 22, "note": 70, "velocity": 103, "channel": 0}, {"type": "note_off", "time": 193, "note": 70, "velocity": 103, "channel": 0}, {"type": "note_on", "time": 15, "note": 72, "velocity": 87, "channel": 0}, {"type": "note_off", "time": 246, "note": 72, "velocity": 87, "channel": 0}, {"type": "note_on", "time": 6, "note": 65, "velocity": 115, "channel": 0}, {"type": "note_off", "time": 278, "note": 65, "velocity": 115, "channel": 0}, {"type": "note_on", "time": 308, "note": 64, "velocity": 115, "channel": 0}, {"type": "note_off", "time": 236, "note": 64, "velocity": 115, "channel": 0}, {"type": "note_on", "time": 14, "note": 66, "velocity": 109, "channel": 0}, {"type": "note_off", "time": 222, "note": 66, "velocity": 109, "channel": 0}, {"type": "note_on", "time": 8, "note": 67, "velocity": 100, "channel": 0}, {"type": "note_off", "time": 151, "note": 67, "velocity": 100, "channel": 0}, {"type": "note_on", "time": 32, "note": 69, "velocity": 102, "channel": 0}, {"type": "note_off", "time": 224, "note": 69, "velocity": 102, "channel": 0}, {"type": "note_on", "time": 14, "note": 71, "velocity": 88, "channel": 0}, {"type": "note_off", "time": 226, "note": 71, "velocity": 88, "channel": 0}, {"type": "note_on", "time": 18, "note": 64, "velocity": 104, "channel": 0}, {"type": "note_off", "time": 561, "note": 64, "velocity": 104, "channel": 0}, {"type": "note_on", "time": 26, "note": 63, "velocity": 110, "channel": 0}, {"type": "note_off", "time": 206, "note": 63, "velocity": 110, "channel": 0}, {"type": "note_on", "time": 22, "note": 65, "velocity": 114, "channel": 0}, {"type": "note_off", "time": 216, "note": 65, "velocity": 114, "channel": 0}, {"type": "note_on", "time": 14, "note": 66, "velocity": 100, "channel": 0}, {"type": "note_off", "time": 197, "note": 66, "velocity": 100, "channel": 0}, {"type": "note_on", "time": 26, "note": 68, "velocity": 93, "channel": 0}, {"type": "note_off", "time": 149, "note": 68, "velocity": 93, "channel": 0}, {"type": "note_on", "time": 28, "note": 70, "velocity": 86, "channel": 0}, {"type": "note_off", "time": 622, "note": 70, "velocity": 86, "channel": 0}, {"type": "note_on", "time": 473, "note": 68, "velocity": 106, "channel": 0}, {"type": "note_off", "time": 189, "note": 68, "velocity": 106, "channel": 0}, {"type": "note_on", "time": 12, "note": 66, "velocity": 111, "channel": 0}, {"type": "note_off", "time": 182, "note": 66, "velocity": 111, "channel": 0}, {"type": "note_on", "time": 2, "note": 62, "velocity": 114, "channel": 0}, {"type": "note_off", "time": 168, "note": 62, "velocity": 114, "channel": 0}, {"type": "note_on", "time": 14, "note": 65, "velocity": 115, "channel": 0}, {"type": "note_off", "time": 93, "note": 65, "velocity": 115, "channel": 0}, {"type": "note_on", "time": 12, "note": 63, "velocity": 113, "channel": 0}, {"type": "note_off", "time": 94, "note": 63, "velocity": 113, "channel": 0}, {"type": "note_on", "time": 28, "note": 61, "velocity": 115, "channel": 0}, {"type": "note_off", "time": 155, "note": 61, "velocity": 115, "channel": 0}, {"type": "note_on", "time": 4, "note": 58, "velocity": 103, "channel": 0}, {"type": "note_off", "time": 162, "note": 58, "velocity": 103, "channel": 0}, {"type": "note_on", "time": 21, "note": 54, "velocity": 102, "channel": 0}, {"type": "note_off", "time": 108, "note": 54, "velocity": 102, "channel": 0}, {"type": "note_on", "time": 21, "note": 53, "velocity": 102, "channel": 0}, {"type": "note_off", "time": 294, "note": 53, "velocity": 102, "channel": 0}, {"type": "note_on", "time": 16, "note": 57, "velocity": 103, "channel": 0}, {"type": "note_off", "time": 213, "note": 57, "velocity": 103, "channel": 0}, {"type": "note_on", "time": 22, "note": 60, "velocity": 104, "channel": 0}, {"type": "note_off", "time": 158, "note": 60, "velocity": 104, "channel": 0}, {"type": "note_on", "time": 2, "note": 62, "velocity": 112, "channel": 0}, {"type": "note_off", "time": 195, "note": 62, "velocity": 112, "channel": 0}, {"type": "note_on", "time": 18, "note": 63, "velocity": 114, "channel": 0}, {"type": "note_off", "time": 223, "note": 63, "velocity": 114, "channel": 0}, {"type": "note_on", "time": 14, "note": 65, "velocity": 120, "channel": 0}, {"type": "note_off", "time": 217, "note": 65, "velocity": 120, "channel": 0}, {"type": "note_on", "time": 14, "note": 67, "velocity": 100, "channel": 0}, {"type": "note_off", "time": 152, "note": 67, "velocity": 100, "channel": 0}, {"type": "note_on", "time": 24, "note": 63, "velocity": 117, "channel": 0}, {"type": "note_off", "time": 190, "note": 63, "velocity": 117, "channel": 0}, {"type": "note_on", "time": 26, "note": 59, "velocity": 99, "channel": 0}, {"type": "note_off", "time": 186, "note": 59, "velocity": 99, "channel": 0}, {"type": "note_on", "time": 14, "note": 62, "velocity": 109, "channel": 0}, {"type": "note_off", "time": 172, "note": 62, "velocity": 109, "channel": 0}, {"type": "note_on", "time": 22, "note": 60, "velocity": 102, "channel": 0}, {"type": "note_off", "time": 185, "note": 60, "velocity": 102, "channel": 0}, {"type": "note_on", "time": 22, "note": 58, "velocity": 99, "channel": 0}, {"type": "note_off", "time": 148, "note": 58, "velocity": 99, "channel": 0}, {"type": "note_on", "time": 24, "note": 57, "velocity": 106, "channel": 0}, {"type": "note_off", "time": 175, "note": 57, "velocity": 106, "channel": 0}, {"type": "note_on", "time": 22, "note": 54, "velocity": 97, "channel": 0}, {"type": "note_off", "time": 159, "note": 54, "velocity": 97, "channel": 0}, {"type": "note_on", "time": 22, "note": 53, "velocity": 99, "channel": 0}, {"type": "note_off", "time": 210, "note": 53, "velocity": 99, "channel": 0}, {"type": "note_on", "time": 25, "note": 51, "velocity": 91, "channel": 0}, {"type": "note_off", "time": 120, "note": 51, "velocity": 91, "channel": 0}, {"type": "note_on", "time": 1169, "note": 56, "velocity": 111, "channel": 0}, {"type": "note_off", "time": 429, "note": 56, "velocity": 111, "channel": 0}, {"type": "note_on", "time": 18, "note": 55, "velocity": 108, "channel": 0}, {"type": "note_off", "time": 248, "note": 55, "velocity": 108, "channel": 0}, {"type": "note_on", "time": 5, "note": 64, "velocity": 116, "channel": 0}, {"type": "note_off", "time": 255, "note": 64, "velocity": 116, "channel": 0}, {"type": "note_on", "time": 5, "note": 61, "velocity": 121, "channel": 0}, {"type": "note_off", "time": 205, "note": 61, "velocity": 121, "channel": 0}, {"type": "note_on", "time": 16, "note": 55, "velocity": 108, "channel": 0}, {"type": "note_off", "time": 195, "note": 55, "velocity": 108, "channel": 0}, {"type": "note_on", "time": 19, "note": 54, "velocity": 103, "channel": 0}, {"type": "note_off", "time": 192, "note": 54, "velocity": 103, "channel": 0}, {"type": "note_on", "time": 46, "note": 63, "velocity": 122, "channel": 0}, {"type": "note_off", "time": 179, "note": 63, "velocity": 122, "channel": 0}, {"type": "note_on", "time": 19, "note": 60, "velocity": 107, "channel": 0}, {"type": "note_off", "time": 217, "note": 60, "velocity": 107, "channel": 0}, {"type": "note_on", "time": 32, "note": 54, "velocity": 103, "channel": 0}, {"type": "note_off", "time": 140, "note": 54, "velocity": 103, "channel": 0}, {"type": "note_on", "time": 19, "note": 53, "velocity": 89, "channel": 0}, {"type": "note_off", "time": 750, "note": 53, "velocity": 89, "channel": 0}, {"type": "note_on", "time": 298, "note": 57, "velocity": 110, "channel": 0}, {"type": "note_off", "time": 836, "note": 57, "velocity": 110, "channel": 0}, {"type": "note_on", "time": 52, "note": 66, "velocity": 107, "channel": 0}, {"type": "note_off", "time": 549, "note": 66, "velocity": 107, "channel": 0}, {"type": "note_on", "time": 6, "note": 64, "velocity": 118, "channel": 0}, {"type": "note_off", "time": 197, "note": 64, "velocity": 118, "channel": 0}, {"type": "note_on", "time": 35, "note": 62, "velocity": 117, "channel": 0}, {"type": "note_off", "time": 148, "note": 62, "velocity": 117, "channel": 0}, {"type": "note_on", "time": 21, "note": 61, "velocity": 117, "channel": 0}, {"type": "note_off", "time": 217, "note": 61, "velocity": 117, "channel": 0}, {"type": "note_on", "time": 14, "note": 55, "velocity": 107, "channel": 0}, {"type": "note_off", "time": 145, "note": 55, "velocity": 107, "channel": 0}, {"type": "note_on", "time": 29, "note": 54, "velocity": 96, "channel": 0}, {"type": "note_off", "time": 414, "note": 54, "velocity": 96, "channel": 0}, {"type": "note_on", "time": 21, "note": 57, "velocity": 106, "channel": 0}, {"type": "note_off", "time": 315, "note": 57, "velocity": 106, "channel": 0}, {"type": "note_on", "time": 5, "note": 59, "velocity": 102, "channel": 0}, {"type": "note_off", "time": 113, "note": 59, "velocity": 102, "channel": 0}, {"type": "note_on", "time": 9, "note": 64, "velocity": 116, "channel": 0}, {"type": "note_off", "time": 207, "note": 64, "velocity": 116, "channel": 0}, {"type": "note_on", "time": 8, "note": 62, "velocity": 110, "channel": 0}, {"type": "note_off", "time": 186, "note": 62, "velocity": 110, "channel": 0}, {"type": "note_on", "time": 18, "note": 57, "velocity": 108, "channel": 0}, {"type": "note_off", "time": 213, "note": 57, "velocity": 108, "channel": 0}, {"type": "note_on", "time": 25, "note": 55, "velocity": 102, "channel": 0}, {"type": "note_off", "time": 253, "note": 55, "velocity": 102, "channel": 0}, {"type": "note_on", "time": 21, "note": 55, "velocity": 100, "channel": 0}, {"type": "note_off", "time": 277, "note": 55, "velocity": 100, "channel": 0}, {"type": "note_on", "time": 22, "note": 62, "velocity": 98, "channel": 0}, {"type": "note_off", "time": 704, "note": 62, "velocity": 98, "channel": 0}, {"type": "note_on", "time": 564, "note": 57, "velocity": 113, "channel": 0}, {"type": "note_off", "time": 478, "note": 57, "velocity": 113, "channel": 0}, {"type": "note_on", "time": 8, "note": 58, "velocity": 104, "channel": 0}, {"type": "note_off", "time": 171, "note": 58, "velocity": 104, "channel": 0}, {"type": "note_on", "time": 5, "note": 61, "velocity": 119, "channel": 0}, {"type": "note_off", "time": 193, "note": 61, "velocity": 119, "channel": 0}, {"type": "note_on", "time": 9, "note": 64, "velocity": 117, "channel": 0}, {"type": "note_off", "time": 166, "note": 64, "velocity": 117, "channel": 0}, {"type": "note_on", "time": 22, "note": 61, "velocity": 119, "channel": 0}, {"type": "note_off", "time": 189, "note": 61, "velocity": 119, "channel": 0}, {"type": "note_on", "time": 9, "note": 62, "velocity": 115, "channel": 0}, {"type": "note_off", "time": 248, "note": 62, "velocity": 115, "channel": 0}, {"type": "note_on", "time": 38, "note": 66, "velocity": 112, "channel": 0}, {"type": "note_off", "time": 243, "note": 66, "velocity": 112, "channel": 0}, {"type": "note_on", "time": 117, "note": 69, "velocity": 115, "channel": 0}, {"type": "note_off", "time": 217, "note": 69, "velocity": 115, "channel": 0}, {"type": "note_on", "time": 21, "note": 67, "velocity": 106, "channel": 0}, {"type": "note_off", "time": 165, "note": 67, "velocity": 106, "channel": 0}, {"type": "note_on", "time": 21, "note": 62, "velocity": 116, "channel": 0}, {"type": "note_off", "time": 212, "note": 62, "velocity": 116, "channel": 0}, {"type": "note_on", "time": 16, "note": 60, "velocity": 103, "channel": 0}, {"type": "note_off", "time": 370, "note": 60, "velocity": 103, "channel": 0}, {"type": "note_on", "time": 18, "note": 58, "velocity": 101, "channel": 0}, {"type": "note_off", "time": 183, "note": 58, "velocity": 101, "channel": 0}, {"type": "note_on", "time": 31, "note": 57, "velocity": 101, "channel": 0}, {"type": "note_off", "time": 619, "note": 57, "velocity": 101, "channel": 0}, {"type": "note_on", "time": 478, "note": 67, "velocity": 110, "channel": 0}, {"type": "note_off", "time": 226, "note": 67, "velocity": 110, "channel": 0}, {"type": "note_on", "time": 11, "note": 65, "velocity": 122, "channel": 0}, {"type": "note_off", "time": 239, "note": 65, "velocity": 122, "channel": 0}, {"type": "note_on", "time": 22, "note": 66, "velocity": 116, "channel": 0}, {"type": "note_off", "time": 127, "note": 66, "velocity": 116, "channel": 0}, {"type": "note_on", "time": 9, "note": 64, "velocity": 116, "channel": 0}, {"type": "note_off", "time": 251, "note": 64, "velocity": 116, "channel": 0}, {"type": "note_on", "time": 31, "note": 65, "velocity": 127, "channel": 0}, {"type": "note_off", "time": 186, "note": 65, "velocity": 127, "channel": 0}, {"type": "note_on", "time": 16, "note": 62, "velocity": 113, "channel": 0}, {"type": "note_off", "time": 175, "note": 62, "velocity": 113, "channel": 0}, {"type": "note_on", "time": 19, "note": 59, "velocity": 105, "channel": 0}, {"type": "note_off", "time": 188, "note": 59, "velocity": 105, "channel": 0}, {"type": "note_on", "time": 9, "note": 56, "velocity": 104, "channel": 0}, {"type": "note_off", "time": 113, "note": 56, "velocity": 104, "channel": 0}, {"type": "note_on", "time": 14, "note": 55, "velocity": 107, "channel": 0}, {"type": "note_off", "time": 233, "note": 55, "velocity": 107, "channel": 0}, {"type": "note_on", "time": 22, "note": 64, "velocity": 114, "channel": 0}, {"type": "note_off", "time": 182, "note": 64, "velocity": 114, "channel": 0}, {"type": "note_on", "time": 21, "note": 61, "velocity": 115, "channel": 0}, {"type": "note_off", "time": 222, "note": 61, "velocity": 115, "channel": 0}, {"type": "note_on", "time": 14, "note": 55, "velocity": 104, "channel": 0}, {"type": "note_off", "time": 155, "note": 55, "velocity": 104, "channel": 0}, {"type": "note_on", "time": 19, "note": 54, "velocity": 96, "channel": 0}, {"type": "note_off", "time": 371, "note": 54, "velocity": 96, "channel": 0}, {"type": "note_on", "time": 36, "note": 57, "velocity": 110, "channel": 0}, {"type": "note_off", "time": 246, "note": 57, "velocity": 110, "channel": 0}, {"type": "note_on", "time": 16, "note": 59, "velocity": 103, "channel": 0}, {"type": "note_off", "time": 137, "note": 59, "velocity": 103, "channel": 0}, {"type": "note_on", "time": 18, "note": 64, "velocity": 115, "channel": 0}, {"type": "note_off", "time": 202, "note": 64, "velocity": 115, "channel": 0}, {"type": "note_on", "time": 18, "note": 59, "velocity": 96, "channel": 0}, {"type": "note_off", "time": 149, "note": 59, "velocity": 96, "channel": 0}, {"type": "note_on", "time": 21, "note": 62, "velocity": 115, "channel": 0}, {"type": "note_off", "time": 95, "note": 62, "velocity": 115, "channel": 0}, {"type": "note_on", "time": 6, "note": 63, "velocity": 113, "channel": 0}, {"type": "note_off", "time": 46, "note": 63, "velocity": 113, "channel": 0}, {"type": "note_on", "time": 17, "note": 62, "velocity": 111, "channel": 0}, {"type": "note_off", "time": 117, "note": 62, "velocity": 111, "channel": 0}, {"type": "note_on", "time": 16, "note": 59, "velocity": 93, "channel": 0}, {"type": "note_off", "time": 107, "note": 59, "velocity": 93, "channel": 0}, {"type": "note_on", "time": 24, "note": 57, "velocity": 88, "channel": 0}, {"type": "note_off", "time": 715, "note": 57, "velocity": 88, "channel": 0}, {"type": "note_on", "time": 551, "note": 71, "velocity": 110, "channel": 0}, {"type": "note_off", "time": 387, "note": 71, "velocity": 110, "channel": 0}, {"type": "note_on", "time": 8, "note": 74, "velocity": 109, "channel": 0}, {"type": "note_off", "time": 134, "note": 74, "velocity": 109, "channel": 0}, {"type": "note_on", "time": 7, "note": 73, "velocity": 107, "channel": 0}, {"type": "note_off", "time": 47, "note": 73, "velocity": 107, "channel": 0}, {"type": "note_on", "time": 15, "note": 72, "velocity": 103, "channel": 0}, {"type": "note_off", "time": 110, "note": 72, "velocity": 103, "channel": 0}, {"type": "note_on", "time": 14, "note": 71, "velocity": 112, "channel": 0}, {"type": "note_off", "time": 275, "note": 71, "velocity": 112, "channel": 0}, {"type": "note_on", "time": 15, "note": 69, "velocity": 113, "channel": 0}, {"type": "note_off", "time": 191, "note": 69, "velocity": 113, "channel": 0}, {"type": "note_on", "time": 19, "note": 67, "velocity": 108, "channel": 0}, {"type": "note_off", "time": 224, "note": 67, "velocity": 108, "channel": 0}, {"type": "note_on", "time": 14, "note": 66, "velocity": 115, "channel": 0}, {"type": "note_off", "time": 144, "note": 66, "velocity": 115, "channel": 0}, {"type": "note_on", "time": 14, "note": 65, "velocity": 9, "channel": 0}, {"type": "note_off", "time": 209, "note": 65, "velocity": 9, "channel": 0}, {"type": "note_on", "time": 19, "note": 64, "velocity": 114, "channel": 0}, {"type": "note_off", "time": 158, "note": 64, "velocity": 114, "channel": 0}, {"type": "note_on", "time": 12, "note": 62, "velocity": 120, "channel": 0}, {"type": "note_off", "time": 216, "note": 62, "velocity": 120, "channel": 0}, {"type": "note_on", "time": 14, "note": 61, "velocity": 116, "channel": 0}, {"type": "note_off", "time": 183, "note": 61, "velocity": 116, "channel": 0}, {"type": "note_on", "time": 28, "note": 58, "velocity": 103, "channel": 0}, {"type": "note_off", "time": 139, "note": 58, "velocity": 103, "channel": 0}, {"type": "note_on", "time": 21, "note": 57, "velocity": 105, "channel": 0}, {"type": "note_off", "time": 256, "note": 57, "velocity": 105, "channel": 0}, {"type": "note_on", "time": 6, "note": 56, "velocity": 95, "channel": 0}, {"type": "note_off", "time": 180, "note": 56, "velocity": 95, "channel": 0}, {"type": "note_on", "time": 29, "note": 53, "velocity": 100, "channel": 0}, {"type": "note_off", "time": 166, "note": 53, "velocity": 100, "channel": 0}, {"type": "note_on", "time": 9, "note": 51, "velocity": 91, "channel": 0}, {"type": "note_off", "time": 243, "note": 51, "velocity": 91, "channel": 0}, {"type": "note_on", "time": 439, "note": 55, "velocity": 108, "channel": 0}, {"type": "note_off", "time": 186, "note": 55, "velocity": 108, "channel": 0}, {"type": "note_on", "time": 2, "note": 52, "velocity": 93, "channel": 0}, {"type": "note_off", "time": 217, "note": 52, "velocity": 93, "channel": 0}, {"type": "note_on", "time": 11, "note": 53, "velocity": 93, "channel": 0}, {"type": "note_off", "time": 41, "note": 53, "velocity": 93, "channel": 0}, {"type": "note_on", "time": 10, "note": 55, "velocity": 104, "channel": 0}, {"type": "note_off", "time": 150, "note": 55, "velocity": 104, "channel": 0}, {"type": "note_on", "time": 24, "note": 57, "velocity": 107, "channel": 0}, {"type": "note_off", "time": 208, "note": 57, "velocity": 107, "channel": 0}, {"type": "note_on", "time": 12, "note": 59, "velocity": 99, "channel": 0}, {"type": "note_off", "time": 153, "note": 59, "velocity": 99, "channel": 0}, {"type": "note_on", "time": 7, "note": 62, "velocity": 110, "channel": 0}, {"type": "note_off", "time": 200, "note": 62, "velocity": 110, "channel": 0}, {"type": "note_on", "time": 24, "note": 59, "velocity": 93, "channel": 0}, {"type": "note_off", "time": 169, "note": 59, "velocity": 93, "channel": 0}, {"type": "note_on", "time": 21, "note": 60, "velocity": 103, "channel": 0}, {"type": "note_off", "time": 223, "note": 60, "velocity": 103, "channel": 0}, {"type": "note_on", "time": 22, "note": 57, "velocity": 103, "channel": 0}, {"type": "note_off", "time": 182, "note": 57, "velocity": 103, "channel": 0}, {"type": "note_on", "time": 9, "note": 55, "velocity": 98, "channel": 0}, {"type": "note_off", "time": 256, "note": 55, "velocity": 98, "channel": 0}, {"type": "note_on", "time": 28, "note": 52, "velocity": 87, "channel": 0}, {"type": "note_off", "time": 99, "note": 52, "velocity": 87, "channel": 0}, {"type": "note_on", "time": 16, "note": 54, "velocity": 102, "channel": 0}, {"type": "note_off", "time": 208, "note": 54, "velocity": 102, "channel": 0}, {"type": "note_on", "time": 38, "note": 63, "velocity": 93, "channel": 0}, {"type": "note_off", "time": 490, "note": 63, "velocity": 93, "channel": 0}, {"type": "note_on", "time": 388, "note": 68, "velocity": 100, "channel": 0}, {"type": "note_off", "time": 66, "note": 68, "velocity": 100, "channel": 0}, {"type": "note_on", "time": 4, "note": 66, "velocity": 120, "channel": 0}, {"type": "note_off", "time": 94, "note": 66, "velocity": 120, "channel": 0}, {"type": "note_on", "time": 11, "note": 65, "velocity": 123, "channel": 0}, {"type": "note_off", "time": 228, "note": 65, "velocity": 123, "channel": 0}, {"type": "note_on", "time": 11, "note": 62, "velocity": 118, "channel": 0}, {"type": "note_off", "time": 173, "note": 62, "velocity": 118, "channel": 0}, {"type": "note_on", "time": 19, "note": 61, "velocity": 123, "channel": 0}, {"type": "note_off", "time": 177, "note": 61, "velocity": 123, "channel": 0}, {"type": "note_on", "time": 10, "note": 65, "velocity": 119, "channel": 0}, {"type": "note_off", "time": 196, "note": 65, "velocity": 119, "channel": 0}, {"type": "note_on", "time": 14, "note": 69, "velocity": 112, "channel": 0}, {"type": "note_off", "time": 206, "note": 69, "velocity": 112, "channel": 0}, {"type": "note_on", "time": 9, "note": 73, "velocity": 109, "channel": 0}, {"type": "note_off", "time": 185, "note": 73, "velocity": 109, "channel": 0}, {"type": "note_on", "time": 15, "note": 72, "velocity": 98, "channel": 0}, {"type": "note_off", "time": 200, "note": 72, "velocity": 98, "channel": 0}, {"type": "note_on", "time": 7, "note": 65, "velocity": 114, "channel": 0}, {"type": "note_off", "time": 197, "note": 65, "velocity": 114, "channel": 0}, {"type": "note_on", "time": 14, "note": 69, "velocity": 108, "channel": 0}, {"type": "note_off", "time": 192, "note": 69, "velocity": 108, "channel": 0}, {"type": "note_on", "time": 7, "note": 72, "velocity": 104, "channel": 0}, {"type": "note_off", "time": 158, "note": 72, "velocity": 104, "channel": 0}, {"type": "note_on", "time": 23, "note": 59, "velocity": 94, "channel": 0}, {"type": "note_off", "time": 418, "note": 59, "velocity": 94, "channel": 0}, {"type": "note_on", "time": 22, "note": 62, "velocity": 109, "channel": 0}, {"type": "note_off", "time": 203, "note": 62, "velocity": 109, "channel": 0}, {"type": "note_on", "time": 16, "note": 65, "velocity": 110, "channel": 0}, {"type": "note_off", "time": 184, "note": 65, "velocity": 110, "channel": 0}, {"type": "note_on", "time": 17, "note": 67, "velocity": 99, "channel": 0}, {"type": "note_off", "time": 147, "note": 67, "velocity": 99, "channel": 0}, {"type": "note_on", "time": 9, "note": 65, "velocity": 120, "channel": 0}, {"type": "note_off", "time": 232, "note": 65, "velocity": 120, "channel": 0}, {"type": "note_on", "time": 18, "note": 64, "velocity": 109, "channel": 0}, {"type": "note_off", "time": 151, "note": 64, "velocity": 109, "channel": 0}, {"type": "note_on", "time": 43, "note": 55, "velocity": 104, "channel": 0}, {"type": "note_off", "time": 201, "note": 55, "velocity": 104, "channel": 0}, {"type": "note_on", "time": 5, "note": 54, "velocity": 105, "channel": 0}, {"type": "note_off", "time": 208, "note": 54, "velocity": 105, "channel": 0}, {"type": "note_on", "time": 15, "note": 63, "velocity": 109, "channel": 0}, {"type": "note_off", "time": 201, "note": 63, "velocity": 109, "channel": 0}, {"type": "note_on", "time": 12, "note": 59, "velocity": 97, "channel": 0}, {"type": "note_off", "time": 213, "note": 59, "velocity": 97, "channel": 0}, {"type": "note_on", "time": 11, "note": 51, "velocity": 89, "channel": 0}, {"type": "note_off", "time": 109, "note": 51, "velocity": 89, "channel": 0}, {"type": "note_on", "time": 10, "note": 50, "velocity": 106, "channel": 0}, {"type": "note_off", "time": 148, "note": 50, "velocity": 106, "channel": 0}, {"type": "note_on", "time": 504, "note": 56, "velocity": 109, "channel": 0}, {"type": "note_off", "time": 450, "note": 56, "velocity": 109, "channel": 0}, {"type": "note_on", "time": 31, "note": 58, "velocity": 109, "channel": 0}, {"type": "note_off", "time": 130, "note": 58, "velocity": 109, "channel": 0}, {"type": "note_on", "time": 12, "note": 59, "velocity": 105, "channel": 0}, {"type": "note_off", "time": 232, "note": 59, "velocity": 105, "channel": 0}, {"type": "note_on", "time": 10, "note": 61, "velocity": 120, "channel": 0}, {"type": "note_off", "time": 200, "note": 61, "velocity": 120, "channel": 0}, {"type": "note_on", "time": 1, "note": 62, "velocity": 115, "channel": 0}, {"type": "note_off", "time": 150, "note": 62, "velocity": 115, "channel": 0}, {"type": "note_on", "time": 24, "note": 65, "velocity": 117, "channel": 0}, {"type": "note_off", "time": 216, "note": 65, "velocity": 117, "channel": 0}, {"type": "note_on", "time": 12, "note": 63, "velocity": 119, "channel": 0}, {"type": "note_off", "time": 178, "note": 63, "velocity": 119, "channel": 0}, {"type": "note_on", "time": 14, "note": 61, "velocity": 112, "channel": 0}, {"type": "note_off", "time": 214, "note": 61, "velocity": 112, "channel": 0}, {"type": "note_on", "time": 9, "note": 58, "velocity": 90, "channel": 0}, {"type": "note_off", "time": 612, "note": 58, "velocity": 90, "channel": 0}, {"type": "note_on", "time": 497, "note": 63, "velocity": 123, "channel": 0}, {"type": "note_off", "time": 207, "note": 63, "velocity": 123, "channel": 0}, {"type": "note_on", "time": 15, "note": 62, "velocity": 108, "channel": 0}, {"type": "note_off", "time": 115, "note": 62, "velocity": 108, "channel": 0}, {"type": "note_on", "time": 31, "note": 66, "velocity": 102, "channel": 0}, {"type": "note_off", "time": 127, "note": 66, "velocity": 102, "channel": 0}, {"type": "note_on", "time": 9, "note": 70, "velocity": 106, "channel": 0}, {"type": "note_off", "time": 149, "note": 70, "velocity": 106, "channel": 0}, {"type": "note_on", "time": 23, "note": 62, "velocity": 97, "channel": 0}, {"type": "note_off", "time": 1158, "note": 62, "velocity": 97, "channel": 0}, {"type": "note_on", "time": 7, "note": 61, "velocity": 113, "channel": 0}, {"type": "note_off", "time": 223, "note": 61, "velocity": 113, "channel": 0}, {"type": "note_on", "time": 11, "note": 58, "velocity": 106, "channel": 0}, {"type": "note_off", "time": 134, "note": 58, "velocity": 106, "channel": 0}, {"type": "note_on", "time": 28, "note": 56, "velocity": 100, "channel": 0}, {"type": "note_off", "time": 64, "note": 56, "velocity": 100, "channel": 0}, {"type": "note_on", "time": 13, "note": 58, "velocity": 101, "channel": 0}, {"type": "note_off", "time": 50, "note": 58, "velocity": 101, "channel": 0}, {"type": "note_on", "time": 10, "note": 56, "velocity": 99, "channel": 0}, {"type": "note_off", "time": 87, "note": 56, "velocity": 99, "channel": 0}, {"type": "note_on", "time": 29, "note": 54, "velocity": 94, "channel": 0}, {"type": "note_off", "time": 184, "note": 54, "velocity": 94, "channel": 0}, {"type": "note_on", "time": 6, "note": 51, "velocity": 96, "channel": 0}, {"type": "note_off", "time": 231, "note": 51, "velocity": 96, "channel": 0}, {"type": "note_on", "time": 9, "note": 49, "velocity": 98, "channel": 0}, {"type": "note_off", "time": 198, "note": 49, "velocity": 98, "channel": 0}, {"type": "note_on", "time": 3, "note": 48, "velocity": 98, "channel": 0}, {"type": "note_off", "time": 158, "note": 48, "velocity": 98, "channel": 0}, {"type": "note_on", "time": 22, "note": 54, "velocity": 92, "channel": 0}, {"type": "note_off", "time": 67, "note": 54, "velocity": 92, "channel": 0}, {"type": "note_on", "time": 28, "note": 56, "velocity": 92, "channel": 0}, {"type": "note_off", "time": 152, "note": 56, "velocity": 92, "channel": 0}, {"type": "note_on", "time": 154, "note": 54, "velocity": 97, "channel": 0}, {"type": "note_off", "time": 77, "note": 54, "velocity": 97, "channel": 0}, {"type": "note_on", "time": 16, "note": 58, "velocity": 98, "channel": 0}, {"type": "note_off", "time": 103, "note": 58, "velocity": 98, "channel": 0}, {"type": "note_on", "time": 46, "note": 55, "velocity": 92, "channel": 0}, {"type": "note_off", "time": 137, "note": 55, "velocity": 92, "channel": 0}, {"type": "note_on", "time": 15, "note": 56, "velocity": 101, "channel": 0}, {"type": "note_off", "time": 121, "note": 56, "velocity": 101, "channel": 0}, {"type": "note_on", "time": 24, "note": 60, "velocity": 98, "channel": 0}, {"type": "note_off", "time": 63, "note": 60, "velocity": 98, "channel": 0}, {"type": "note_on", "time": 10, "note": 57, "velocity": 92, "channel": 0}, {"type": "note_off", "time": 29, "note": 57, "velocity": 92, "channel": 0}, {"type": "note_on", "time": 9, "note": 54, "velocity": 94, "channel": 0}, {"type": "note_off", "time": 154, "note": 54, "velocity": 94, "channel": 0}, {"type": "note_on", "time": 7, "note": 58, "velocity": 96, "channel": 0}, {"type": "note_off", "time": 162, "note": 58, "velocity": 96, "channel": 0}, {"type": "note_on", "time": 16, "note": 54, "velocity": 94, "channel": 0}, {"type": "note_off", "time": 43, "note": 54, "velocity": 94, "channel": 0}, {"type": "note_on", "time": 11, "note": 53, "velocity": 84, "channel": 0}, {"type": "note_off", "time": 504, "note": 53, "velocity": 84, "channel": 0}, {"type": "note_on", "time": 729, "note": 56, "velocity": 112, "channel": 0}, {"type": "note_off", "time": 278, "note": 56, "velocity": 112, "channel": 0}, {"type": "note_on", "time": 5, "note": 53, "velocity": 103, "channel": 0}, {"type": "note_off", "time": 226, "note": 53, "velocity": 103, "channel": 0}, {"type": "note_on", "time": 9, "note": 54, "velocity": 103, "channel": 0}, {"type": "note_off", "time": 80, "note": 54, "velocity": 103, "channel": 0}, {"type": "note_on", "time": 7, "note": 58, "velocity": 106, "channel": 0}, {"type": "note_off", "time": 94, "note": 58, "velocity": 106, "channel": 0}, {"type": "note_on", "time": 19, "note": 63, "velocity": 117, "channel": 0}, {"type": "note_off", "time": 163, "note": 63, "velocity": 117, "channel": 0}, {"type": "note_on", "time": 14, "note": 61, "velocity": 120, "channel": 0}, {"type": "note_off", "time": 202, "note": 61, "velocity": 120, "channel": 0}, {"type": "note_on", "time": 22, "note": 58, "velocity": 100, "channel": 0}, {"type": "note_off", "time": 134, "note": 58, "velocity": 100, "channel": 0}, {"type": "note_on", "time": 13, "note": 54, "velocity": 95, "channel": 0}, {"type": "note_off", "time": 646, "note": 54, "velocity": 95, "channel": 0}, {"type": "note_on", "time": 33, "note": 52, "velocity": 92, "channel": 0}, {"type": "note_off", "time": 108, "note": 52, "velocity": 92, "channel": 0}, {"type": "note_on", "time": 6, "note": 53, "velocity": 98, "channel": 0}, {"type": "note_off", "time": 170, "note": 53, "velocity": 98, "channel": 0}, {"type": "note_on", "time": 7, "note": 56, "velocity": 102, "channel": 0}, {"type": "note_off", "time": 110, "note": 56, "velocity": 102, "channel": 0}, {"type": "note_on", "time": 15, "note": 61, "velocity": 110, "channel": 0}, {"type": "note_off", "time": 189, "note": 61, "velocity": 110, "channel": 0}, {"type": "note_on", "time": 7, "note": 60, "velocity": 103, "channel": 0}, {"type": "note_off", "time": 207, "note": 60, "velocity": 103, "channel": 0}, {"type": "note_on", "time": 25, "note": 56, "velocity": 99, "channel": 0}, {"type": "note_off", "time": 188, "note": 56, "velocity": 99, "channel": 0}, {"type": "note_on", "time": 0, "note": 53, "velocity": 90, "channel": 0}, {"type": "note_off", "time": 608, "note": 53, "velocity": 90, "channel": 0}, {"type": "note_on", "time": 15, "note": 51, "velocity": 97, "channel": 0}, {"type": "note_off", "time": 165, "note": 51, "velocity": 97, "channel": 0}, {"type": "note_on", "time": 9, "note": 52, "velocity": 98, "channel": 0}, {"type": "note_off", "time": 134, "note": 52, "velocity": 98, "channel": 0}, {"type": "note_on", "time": 11, "note": 55, "velocity": 98, "channel": 0}, {"type": "note_off", "time": 159, "note": 55, "velocity": 98, "channel": 0}, {"type": "note_on", "time": 7, "note": 61, "velocity": 111, "channel": 0}, {"type": "note_off", "time": 176, "note": 61, "velocity": 111, "channel": 0}, {"type": "note_on", "time": 19, "note": 59, "velocity": 95, "channel": 0}, {"type": "note_off", "time": 185, "note": 59, "velocity": 95, "channel": 0}, {"type": "note_on", "time": 22, "note": 55, "velocity": 98, "channel": 0}, {"type": "note_off", "time": 164, "note": 55, "velocity": 98, "channel": 0}, {"type": "note_on", "time": 22, "note": 52, "velocity": 82, "channel": 0}, {"type": "note_off", "time": 635, "note": 52, "velocity": 82, "channel": 0}, {"type": "note_on", "time": 519, "note": 51, "velocity": 100, "channel": 0}, {"type": "note_off", "time": 128, "note": 51, "velocity": 100, "channel": 0}, {"type": "note_on", "time": 6, "note": 54, "velocity": 103, "channel": 0}, {"type": "note_off", "time": 91, "note": 54, "velocity": 103, "channel": 0}, {"type": "note_on", "time": 6, "note": 58, "velocity": 103, "channel": 0}, {"type": "note_off", "time": 106, "note": 58, "velocity": 103, "channel": 0}, {"type": "note_on", "time": 19, "note": 61, "velocity": 119, "channel": 0}, {"type": "note_off", "time": 168, "note": 61, "velocity": 119, "channel": 0}, {"type": "note_on", "time": 12, "note": 65, "velocity": 118, "channel": 0}, {"type": "note_off", "time": 205, "note": 65, "velocity": 118, "channel": 0}, {"type": "note_on", "time": 20, "note": 63, "velocity": 121, "channel": 0}, {"type": "note_off", "time": 207, "note": 63, "velocity": 121, "channel": 0}, {"type": "note_on", "time": 10, "note": 61, "velocity": 120, "channel": 0}, {"type": "note_off", "time": 231, "note": 61, "velocity": 120, "channel": 0}, {"type": "note_on", "time": 35, "note": 58, "velocity": 92, "channel": 0}, {"type": "note_off", "time": 899, "note": 58, "velocity": 92, "channel": 0}, {"type": "note_on", "time": 21, "note": 56, "velocity": 102, "channel": 0}, {"type": "note_off", "time": 86, "note": 56, "velocity": 102, "channel": 0}, {"type": "note_on", "time": 4, "note": 58, "velocity": 99, "channel": 0}, {"type": "note_off", "time": 100, "note": 58, "velocity": 99, "channel": 0}, {"type": "note_on", "time": 9, "note": 56, "velocity": 99, "channel": 0}, {"type": "note_off", "time": 89, "note": 56, "velocity": 99, "channel": 0}, {"type": "note_on", "time": 8, "note": 54, "velocity": 96, "channel": 0}, {"type": "note_off", "time": 110, "note": 54, "velocity": 96, "channel": 0}, {"type": "note_on", "time": 11, "note": 51, "velocity": 95, "channel": 0}, {"type": "note_off", "time": 190, "note": 51, "velocity": 95, "channel": 0}, {"type": "note_on", "time": 26, "note": 49, "velocity": 95, "channel": 0}, {"type": "note_off", "time": 189, "note": 49, "velocity": 95, "channel": 0}, {"type": "note_on", "time": 18, "note": 48, "velocity": 91, "channel": 0}, {"type": "note_off", "time": 408, "note": 48, "velocity": 91, "channel": 0}, {"type": "note_on", "time": 19, "note": 54, "velocity": 98, "channel": 0}, {"type": "note_off", "time": 332, "note": 54, "velocity": 98, "channel": 0}, {"type": "note_on", "time": 49, "note": 53, "velocity": 85, "channel": 0}, {"type": "note_off", "time": 804, "note": 53, "velocity": 85, "channel": 0}, {"type": "note_on", "time": 418, "note": 57, "velocity": 113, "channel": 0}, {"type": "note_off", "time": 277, "note": 57, "velocity": 113, "channel": 0}, {"type": "note_on", "time": 10, "note": 60, "velocity": 114, "channel": 0}, {"type": "note_off", "time": 249, "note": 60, "velocity": 114, "channel": 0}, {"type": "note_on", "time": 26, "note": 61, "velocity": 119, "channel": 0}, {"type": "note_off", "time": 275, "note": 61, "velocity": 119, "channel": 0}, {"type": "note_on", "time": 66, "note": 53, "velocity": 109, "channel": 0}, {"type": "note_off", "time": 269, "note": 53, "velocity": 109, "channel": 0}, {"type": "note_on", "time": 14, "note": 57, "velocity": 112, "channel": 0}, {"type": "note_off", "time": 253, "note": 57, "velocity": 112, "channel": 0}, {"type": "note_on", "time": 24, "note": 60, "velocity": 97, "channel": 0}, {"type": "note_off", "time": 424, "note": 60, "velocity": 97, "channel": 0}, {"type": "note_on", "time": 24, "note": 58, "velocity": 103, "channel": 0}, {"type": "note_off", "time": 243, "note": 58, "velocity": 103, "channel": 0}, {"type": "note_on", "time": 14, "note": 65, "velocity": 95, "channel": 0}, {"type": "note_off", "time": 939, "note": 65, "velocity": 95, "channel": 0}, {"type": "note_on", "time": 339, "note": 59, "velocity": 104, "channel": 0}, {"type": "note_off", "time": 277, "note": 59, "velocity": 104, "channel": 0}, {"type": "note_on", "time": 18, "note": 57, "velocity": 105, "channel": 0}, {"type": "note_off", "time": 253, "note": 57, "velocity": 105, "channel": 0}, {"type": "note_on", "time": 4, "note": 64, "velocity": 108, "channel": 0}, {"type": "note_off", "time": 669, "note": 64, "velocity": 108, "channel": 0}, {"type": "note_on", "time": 20, "note": 58, "velocity": 102, "channel": 0}, {"type": "note_off", "time": 247, "note": 58, "velocity": 102, "channel": 0}, {"type": "note_on", "time": 36, "note": 56, "velocity": 95, "channel": 0}, {"type": "note_off", "time": 193, "note": 56, "velocity": 95, "channel": 0}, {"type": "note_on", "time": 36, "note": 63, "velocity": 85, "channel": 0}, {"type": "note_off", "time": 1237, "note": 63, "velocity": 85, "channel": 0}, {"type": "note_on", "time": 358, "note": 62, "velocity": 120, "channel": 0}, {"type": "note_off", "time": 251, "note": 62, "velocity": 120, "channel": 0}, {"type": "note_on", "time": 30, "note": 65, "velocity": 124, "channel": 0}, {"type": "note_off", "time": 303, "note": 65, "velocity": 124, "channel": 0}, {"type": "note_on", "time": 20, "note": 68, "velocity": 110, "channel": 0}, {"type": "note_off", "time": 305, "note": 68, "velocity": 110, "channel": 0}, {"type": "note_on", "time": 16, "note": 71, "velocity": 108, "channel": 0}, {"type": "note_off", "time": 277, "note": 71, "velocity": 108, "channel": 0}, {"type": "note_on", "time": 6, "note": 69, "velocity": 111, "channel": 0}, {"type": "note_off", "time": 297, "note": 69, "velocity": 111, "channel": 0}, {"type": "note_on", "time": 22, "note": 70, "velocity": 112, "channel": 0}, {"type": "note_off", "time": 207, "note": 70, "velocity": 112, "channel": 0}, {"type": "note_on", "time": 18, "note": 75, "velocity": 94, "channel": 0}, {"type": "note_off", "time": 205, "note": 75, "velocity": 94, "channel": 0}, {"type": "note_on", "time": 26, "note": 68, "velocity": 86, "channel": 0}, {"type": "note_off", "time": 1397, "note": 68, "velocity": 86, "channel": 0}, {"type": "note_on", "time": 16, "note": 66, "velocity": 107, "channel": 0}, {"type": "note_off", "time": 217, "note": 66, "velocity": 107, "channel": 0}, {"type": "note_on", "time": 20, "note": 65, "velocity": 114, "channel": 0}, {"type": "note_off", "time": 255, "note": 65, "velocity": 114, "channel": 0}, {"type": "note_on", "time": 42, "note": 72, "velocity": 84, "channel": 0}, {"type": "note_off", "time": 100, "note": 72, "velocity": 84, "channel": 0}, {"type": "note_on", "time": 52, "note": 63, "velocity": 101, "channel": 0}, {"type": "note_off", "time": 748, "note": 63, "velocity": 101, "channel": 0}, {"type": "note_on", "time": 562, "note": 61, "velocity": 122, "channel": 0}, {"type": "note_off", "time": 227, "note": 61, "velocity": 122, "channel": 0}, {"type": "note_on", "time": 4, "note": 62, "velocity": 116, "channel": 0}, {"type": "note_off", "time": 166, "note": 62, "velocity": 116, "channel": 0}, {"type": "note_on", "time": 15, "note": 65, "velocity": 120, "channel": 0}, {"type": "note_off", "time": 209, "note": 65, "velocity": 120, "channel": 0}, {"type": "note_on", "time": 7, "note": 63, "velocity": 124, "channel": 0}, {"type": "note_off", "time": 216, "note": 63, "velocity": 124, "channel": 0}, {"type": "note_on", "time": 11, "note": 62, "velocity": 115, "channel": 0}, {"type": "note_off", "time": 181, "note": 62, "velocity": 115, "channel": 0}, {"type": "note_on", "time": 8, "note": 59, "velocity": 103, "channel": 0}, {"type": "note_off", "time": 196, "note": 59, "velocity": 103, "channel": 0}, {"type": "note_on", "time": 7, "note": 58, "velocity": 104, "channel": 0}, {"type": "note_off", "time": 175, "note": 58, "velocity": 104, "channel": 0}, {"type": "note_on", "time": 15, "note": 56, "velocity": 100, "channel": 0}, {"type": "note_off", "time": 172, "note": 56, "velocity": 100, "channel": 0}, {"type": "note_on", "time": 18, "note": 54, "velocity": 105, "channel": 0}, {"type": "note_off", "time": 207, "note": 54, "velocity": 105, "channel": 0}, {"type": "note_on", "time": 1, "note": 53, "velocity": 106, "channel": 0}, {"type": "note_off", "time": 185, "note": 53, "velocity": 106, "channel": 0}, {"type": "note_on", "time": 22, "note": 51, "velocity": 99, "channel": 0}, {"type": "note_off", "time": 205, "note": 51, "velocity": 99, "channel": 0}, {"type": "note_on", "time": 12, "note": 50, "velocity": 96, "channel": 0}, {"type": "note_off", "time": 152, "note": 50, "velocity": 96, "channel": 0}, {"type": "note_on", "time": 11, "note": 59, "velocity": 104, "channel": 0}, {"type": "note_off", "time": 210, "note": 59, "velocity": 104, "channel": 0}, {"type": "note_on", "time": 21, "note": 57, "velocity": 106, "channel": 0}, {"type": "note_off", "time": 193, "note": 57, "velocity": 106, "channel": 0}, {"type": "note_on", "time": 8, "note": 56, "velocity": 91, "channel": 0}, {"type": "note_off", "time": 790, "note": 56, "velocity": 91, "channel": 0}, {"type": "note_on", "time": 428, "note": 61, "velocity": 122, "channel": 0}, {"type": "note_off", "time": 261, "note": 61, "velocity": 122, "channel": 0}, {"type": "note_on", "time": 34, "note": 65, "velocity": 107, "channel": 0}, {"type": "note_off", "time": 380, "note": 65, "velocity": 107, "channel": 0}, {"type": "note_on", "time": 20, "note": 68, "velocity": 106, "channel": 0}, {"type": "note_off", "time": 150, "note": 68, "velocity": 106, "channel": 0}, {"type": "note_on", "time": 17, "note": 66, "velocity": 111, "channel": 0}, {"type": "note_off", "time": 192, "note": 66, "velocity": 111, "channel": 0}, {"type": "note_on", "time": 11, "note": 63, "velocity": 114, "channel": 0}, {"type": "note_off", "time": 188, "note": 63, "velocity": 114, "channel": 0}, {"type": "note_on", "time": 26, "note": 61, "velocity": 107, "channel": 0}, {"type": "note_off", "time": 431, "note": 61, "velocity": 107, "channel": 0}, {"type": "note_on", "time": 51, "note": 54, "velocity": 98, "channel": 0}, {"type": "note_off", "time": 168, "note": 54, "velocity": 98, "channel": 0}, {"type": "note_on", "time": 12, "note": 52, "velocity": 90, "channel": 0}, {"type": "note_off", "time": 110, "note": 52, "velocity": 90, "channel": 0}, {"type": "note_on", "time": 18, "note": 53, "velocity": 99, "channel": 0}, {"type": "note_off", "time": 467, "note": 53, "velocity": 99, "channel": 0}, {"type": "note_on", "time": 0, "note": 56, "velocity": 99, "channel": 0}, {"type": "note_off", "time": 205, "note": 56, "velocity": 99, "channel": 0}, {"type": "note_on", "time": 7, "note": 58, "velocity": 101, "channel": 0}, {"type": "note_off", "time": 193, "note": 58, "velocity": 101, "channel": 0}, {"type": "note_on", "time": 19, "note": 60, "velocity": 102, "channel": 0}, {"type": "note_off", "time": 214, "note": 60, "velocity": 102, "channel": 0}, {"type": "note_on", "time": 15, "note": 65, "velocity": 110, "channel": 0}, {"type": "note_off", "time": 192, "note": 65, "velocity": 110, "channel": 0}, {"type": "note_on", "time": 7, "note": 68, "velocity": 106, "channel": 0}, {"type": "note_off", "time": 209, "note": 68, "velocity": 106, "channel": 0}, {"type": "note_on", "time": 8, "note": 72, "velocity": 105, "channel": 0}, {"type": "note_off", "time": 149, "note": 72, "velocity": 105, "channel": 0}, {"type": "note_on", "time": 14, "note": 59, "velocity": 95, "channel": 0}, {"type": "note_off", "time": 453, "note": 59, "velocity": 95, "channel": 0}, {"type": "note_on", "time": 35, "note": 61, "velocity": 111, "channel": 0}, {"type": "note_off", "time": 209, "note": 61, "velocity": 111, "channel": 0}, {"type": "note_on", "time": 21, "note": 64, "velocity": 110, "channel": 0}, {"type": "note_off", "time": 149, "note": 64, "velocity": 110, "channel": 0}, {"type": "note_on", "time": 49, "note": 67, "velocity": 99, "channel": 0}, {"type": "note_off", "time": 156, "note": 67, "velocity": 99, "channel": 0}, {"type": "note_on", "time": 35, "note": 71, "velocity": 102, "channel": 0}, {"type": "note_off", "time": 171, "note": 71, "velocity": 102, "channel": 0}, {"type": "note_on", "time": 24, "note": 66, "velocity": 103, "channel": 0}, {"type": "note_off", "time": 196, "note": 66, "velocity": 103, "channel": 0}, {"type": "note_on", "time": 8, "note": 64, "velocity": 103, "channel": 0}, {"type": "note_off", "time": 168, "note": 64, "velocity": 103, "channel": 0}, {"type": "note_on", "time": 18, "note": 63, "velocity": 93, "channel": 0}, {"type": "note_off", "time": 695, "note": 63, "velocity": 93, "channel": 0}, {"type": "note_on", "time": 574, "note": 66, "velocity": 109, "channel": 0}, {"type": "note_off", "time": 258, "note": 66, "velocity": 109, "channel": 0}, {"type": "note_on", "time": 17, "note": 68, "velocity": 111, "channel": 0}, {"type": "note_off", "time": 195, "note": 68, "velocity": 111, "channel": 0}, {"type": "note_on", "time": 19, "note": 70, "velocity": 103, "channel": 0}, {"type": "note_off", "time": 395, "note": 70, "velocity": 103, "channel": 0}, {"type": "note_on", "time": 42, "note": 66, "velocity": 93, "channel": 0}, {"type": "note_off", "time": 114, "note": 66, "velocity": 93, "channel": 0}, {"type": "note_on", "time": 14, "note": 68, "velocity": 104, "channel": 0}, {"type": "note_off", "time": 55, "note": 68, "velocity": 104, "channel": 0}, {"type": "note_on", "time": 6, "note": 66, "velocity": 110, "channel": 0}, {"type": "note_off", "time": 175, "note": 66, "velocity": 110, "channel": 0}, {"type": "note_on", "time": 12, "note": 63, "velocity": 118, "channel": 0}, {"type": "note_off", "time": 196, "note": 63, "velocity": 118, "channel": 0}, {"type": "note_on", "time": 15, "note": 61, "velocity": 112, "channel": 0}, {"type": "note_off", "time": 189, "note": 61, "velocity": 112, "channel": 0}, {"type": "note_on", "time": 21, "note": 58, "velocity": 101, "channel": 0}, {"type": "note_off", "time": 152, "note": 58, "velocity": 101, "channel": 0}, {"type": "note_on", "time": 31, "note": 54, "velocity": 95, "channel": 0}, {"type": "note_off", "time": 131, "note": 54, "velocity": 95, "channel": 0}, {"type": "note_on", "time": 20, "note": 53, "velocity": 91, "channel": 0}, {"type": "note_off", "time": 850, "note": 53, "velocity": 91, "channel": 0}, {"type": "note_on", "time": 496, "note": 69, "velocity": 93, "channel": 0}, {"type": "note_off", "time": 362, "note": 69, "velocity": 93, "channel": 0}, {"type": "note_on", "time": 11, "note": 74, "velocity": 102, "channel": 0}, {"type": "note_off", "time": 113, "note": 74, "velocity": 102, "channel": 0}, {"type": "note_on", "time": 8, "note": 73, "velocity": 97, "channel": 0}, {"type": "note_off", "time": 71, "note": 73, "velocity": 97, "channel": 0}, {"type": "note_on", "time": 9, "note": 72, "velocity": 91, "channel": 0}, {"type": "note_off", "time": 100, "note": 72, "velocity": 91, "channel": 0}, {"type": "note_on", "time": 8, "note": 71, "velocity": 100, "channel": 0}, {"type": "note_off", "time": 112, "note": 71, "velocity": 100, "channel": 0}, {"type": "note_on", "time": 8, "note": 70, "velocity": 98, "channel": 0}, {"type": "note_off", "time": 82, "note": 70, "velocity": 98, "channel": 0}, {"type": "note_on", "time": 23, "note": 69, "velocity": 96, "channel": 0}, {"type": "note_off", "time": 185, "note": 69, "velocity": 96, "channel": 0}, {"type": "note_on", "time": 15, "note": 72, "velocity": 94, "channel": 0}, {"type": "note_off", "time": 53, "note": 72, "velocity": 94, "channel": 0}, {"type": "note_on", "time": 13, "note": 71, "velocity": 97, "channel": 0}, {"type": "note_off", "time": 44, "note": 71, "velocity": 97, "channel": 0}, {"type": "note_on", "time": 10, "note": 67, "velocity": 99, "channel": 0}, {"type": "note_off", "time": 102, "note": 67, "velocity": 99, "channel": 0}, {"type": "note_on", "time": 6, "note": 66, "velocity": 108, "channel": 0}, {"type": "note_off", "time": 109, "note": 66, "velocity": 108, "channel": 0}, {"type": "note_on", "time": 15, "note": 64, "velocity": 110, "channel": 0}, {"type": "note_off", "time": 131, "note": 64, "velocity": 110, "channel": 0}, {"type": "note_on", "time": 7, "note": 63, "velocity": 112, "channel": 0}, {"type": "note_off", "time": 186, "note": 63, "velocity": 112, "channel": 0}, {"type": "note_on", "time": 22, "note": 60, "velocity": 92, "channel": 0}, {"type": "note_off", "time": 86, "note": 60, "velocity": 92, "channel": 0}, {"type": "note_on", "time": 5, "note": 61, "velocity": 96, "channel": 0}, {"type": "note_off", "time": 113, "note": 61, "velocity": 96, "channel": 0}, {"type": "note_on", "time": 42, "note": 63, "velocity": 113, "channel": 0}, {"type": "note_off", "time": 132, "note": 63, "velocity": 113, "channel": 0}, {"type": "note_on", "time": 14, "note": 60, "velocity": 100, "channel": 0}, {"type": "note_off", "time": 128, "note": 60, "velocity": 100, "channel": 0}, {"type": "note_on", "time": 15, "note": 61, "velocity": 102, "channel": 0}, {"type": "note_off", "time": 63, "note": 61, "velocity": 102, "channel": 0}, {"type": "note_on", "time": 16, "note": 63, "velocity": 111, "channel": 0}, {"type": "note_off", "time": 104, "note": 63, "velocity": 111, "channel": 0}, {"type": "note_on", "time": 15, "note": 65, "velocity": 97, "channel": 0}, {"type": "note_off", "time": 903, "note": 65, "velocity": 97, "channel": 0}, {"type": "note_on", "time": 160, "note": 66, "velocity": 99, "channel": 0}, {"type": "note_off", "time": 115, "note": 66, "velocity": 99, "channel": 0}, {"type": "note_on", "time": 12, "note": 65, "velocity": 122, "channel": 0}, {"type": "note_off", "time": 87, "note": 65, "velocity": 122, "channel": 0}, {"type": "note_on", "time": 17, "note": 64, "velocity": 114, "channel": 0}, {"type": "note_off", "time": 93, "note": 64, "velocity": 114, "channel": 0}, {"type": "note_on", "time": 16, "note": 62, "velocity": 110, "channel": 0}, {"type": "note_off", "time": 94, "note": 62, "velocity": 110, "channel": 0}, {"type": "note_on", "time": 5, "note": 61, "velocity": 111, "channel": 0}, {"type": "note_off", "time": 132, "note": 61, "velocity": 111, "channel": 0}, {"type": "note_on", "time": 5, "note": 59, "velocity": 101, "channel": 0}, {"type": "note_off", "time": 73, "note": 59, "velocity": 101, "channel": 0}, {"type": "note_on", "time": 6, "note": 57, "velocity": 104, "channel": 0}, {"type": "note_off", "time": 85, "note": 57, "velocity": 104, "channel": 0}, {"type": "note_on", "time": 10, "note": 55, "velocity": 105, "channel": 0}, {"type": "note_off", "time": 119, "note": 55, "velocity": 105, "channel": 0}, {"type": "note_on", "time": 4, "note": 54, "velocity": 99, "channel": 0}, {"type": "note_off", "time": 132, "note": 54, "velocity": 99, "channel": 0}, {"type": "note_on", "time": 44, "note": 61, "velocity": 105, "channel": 0}, {"type": "note_off", "time": 144, "note": 61, "velocity": 105, "channel": 0}, {"type": "note_on", "time": 6, "note": 63, "velocity": 111, "channel": 0}, {"type": "note_off", "time": 109, "note": 63, "velocity": 111, "channel": 0}, {"type": "note_on", "time": 8, "note": 65, "velocity": 115, "channel": 0}, {"type": "note_off", "time": 99, "note": 65, "velocity": 115, "channel": 0}, {"type": "note_on", "time": 11, "note": 63, "velocity": 111, "channel": 0}, {"type": "note_off", "time": 107, "note": 63, "velocity": 111, "channel": 0}, {"type": "note_on", "time": 6, "note": 60, "velocity": 97, "channel": 0}, {"type": "note_off", "time": 74, "note": 60, "velocity": 97, "channel": 0}, {"type": "note_on", "time": 10, "note": 58, "velocity": 98, "channel": 0}, {"type": "note_off", "time": 70, "note": 58, "velocity": 98, "channel": 0}, {"type": "note_on", "time": 17, "note": 56, "velocity": 102, "channel": 0}, {"type": "note_off", "time": 81, "note": 56, "velocity": 102, "channel": 0}, {"type": "note_on", "time": 15, "note": 54, "velocity": 101, "channel": 0}, {"type": "note_off", "time": 63, "note": 54, "velocity": 101, "channel": 0}, {"type": "note_on", "time": 7, "note": 53, "velocity": 95, "channel": 0}, {"type": "note_off", "time": 149, "note": 53, "velocity": 95, "channel": 0}, {"type": "note_on", "time": 9, "note": 56, "velocity": 99, "channel": 0}, {"type": "note_off", "time": 71, "note": 56, "velocity": 99, "channel": 0}, {"type": "note_on", "time": 21, "note": 61, "velocity": 105, "channel": 0}, {"type": "note_off", "time": 134, "note": 61, "velocity": 105, "channel": 0}, {"type": "note_on", "time": 15, "note": 65, "velocity": 102, "channel": 0}, {"type": "note_off", "time": 216, "note": 65, "velocity": 102, "channel": 0}, {"type": "note_on", "time": 12, "note": 68, "velocity": 102, "channel": 0}, {"type": "note_off", "time": 87, "note": 68, "velocity": 102, "channel": 0}, {"type": "note_on", "time": 10, "note": 67, "velocity": 93, "channel": 0}, {"type": "note_off", "time": 124, "note": 67, "velocity": 93, "channel": 0}, {"type": "note_on", "time": 37, "note": 64, "velocity": 107, "channel": 0}, {"type": "note_off", "time": 103, "note": 64, "velocity": 107, "channel": 0}, {"type": "note_on", "time": 13, "note": 62, "velocity": 110, "channel": 0}, {"type": "note_off", "time": 123, "note": 62, "velocity": 110, "channel": 0}, {"type": "note_on", "time": 9, "note": 60, "velocity": 96, "channel": 0}, {"type": "note_off", "time": 66, "note": 60, "velocity": 96, "channel": 0}, {"type": "note_on", "time": 13, "note": 59, "velocity": 97, "channel": 0}, {"type": "note_off", "time": 104, "note": 59, "velocity": 97, "channel": 0}, {"type": "note_on", "time": 10, "note": 57, "velocity": 98, "channel": 0}, {"type": "note_off", "time": 85, "note": 57, "velocity": 98, "channel": 0}, {"type": "note_on", "time": 18, "note": 55, "velocity": 96, "channel": 0}, {"type": "note_off", "time": 162, "note": 55, "velocity": 96, "channel": 0}, {"type": "note_on", "time": 7, "note": 54, "velocity": 92, "channel": 0}, {"type": "note_off", "time": 147, "note": 54, "velocity": 92, "channel": 0}, {"type": "note_on", "time": 9, "note": 63, "velocity": 109, "channel": 0}, {"type": "note_off", "time": 92, "note": 63, "velocity": 109, "channel": 0}, {"type": "note_on", "time": 17, "note": 65, "velocity": 109, "channel": 0}, {"type": "note_off", "time": 44, "note": 65, "velocity": 109, "channel": 0}, {"type": "note_on", "time": 4, "note": 63, "velocity": 112, "channel": 0}, {"type": "note_off", "time": 145, "note": 63, "velocity": 112, "channel": 0}, {"type": "note_on", "time": 33, "note": 59, "velocity": 95, "channel": 0}, {"type": "note_off", "time": 107, "note": 59, "velocity": 95, "channel": 0}, {"type": "note_on", "time": 63, "note": 53, "velocity": 90, "channel": 0}, {"type": "note_off", "time": 567, "note": 53, "velocity": 90, "channel": 0}, {"type": "note_on", "time": 83, "note": 53, "velocity": 96, "channel": 0}, {"type": "note_off", "time": 80, "note": 53, "velocity": 96, "channel": 0}, {"type": "note_on", "time": 12, "note": 56, "velocity": 100, "channel": 0}, {"type": "note_off", "time": 70, "note": 56, "velocity": 100, "channel": 0}, {"type": "note_on", "time": 9, "note": 59, "velocity": 100, "channel": 0}, {"type": "note_off", "time": 104, "note": 59, "velocity": 100, "channel": 0}, {"type": "note_on", "time": 9, "note": 58, "velocity": 84, "channel": 0}, {"type": "note_off", "time": 574, "note": 58, "velocity": 84, "channel": 0}, {"type": "note_on", "time": 632, "note": 63, "velocity": 120, "channel": 0}, {"type": "note_off", "time": 222, "note": 63, "velocity": 120, "channel": 0}, {"type": "note_on", "time": 12, "note": 65, "velocity": 114, "channel": 0}, {"type": "note_off", "time": 319, "note": 65, "velocity": 114, "channel": 0}, {"type": "note_on", "time": 14, "note": 67, "velocity": 108, "channel": 0}, {"type": "note_off", "time": 79, "note": 67, "velocity": 108, "channel": 0}, {"type": "note_on", "time": 5, "note": 66, "velocity": 118, "channel": 0}, {"type": "note_off", "time": 51, "note": 66, "velocity": 118, "channel": 0}, {"type": "note_on", "time": 20, "note": 65, "velocity": 112, "channel": 0}, {"type": "note_off", "time": 161, "note": 65, "velocity": 112, "channel": 0}, {"type": "note_on", "time": 14, "note": 63, "velocity": 120, "channel": 0}, {"type": "note_off", "time": 271, "note": 63, "velocity": 120, "channel": 0}, {"type": "note_on", "time": 12, "note": 62, "velocity": 116, "channel": 0}, {"type": "note_off", "time": 217, "note": 62, "velocity": 116, "channel": 0}, {"type": "note_on", "time": 24, "note": 65, "velocity": 120, "channel": 0}, {"type": "note_off", "time": 231, "note": 65, "velocity": 120, "channel": 0}, {"type": "note_on", "time": 31, "note": 68, "velocity": 105, "channel": 0}, {"type": "note_off", "time": 195, "note": 68, "velocity": 105, "channel": 0}, {"type": "note_on", "time": 2, "note": 71, "velocity": 107, "channel": 0}, {"type": "note_off", "time": 254, "note": 71, "velocity": 107, "channel": 0}, {"type": "note_on", "time": 15, "note": 70, "velocity": 108, "channel": 0}, {"type": "note_off", "time": 240, "note": 70, "velocity": 108, "channel": 0}, {"type": "note_on", "time": 21, "note": 66, "velocity": 111, "channel": 0}, {"type": "note_off", "time": 195, "note": 66, "velocity": 111, "channel": 0}, {"type": "note_on", "time": 69, "note": 62, "velocity": 110, "channel": 0}, {"type": "note_off", "time": 188, "note": 62, "velocity": 110, "channel": 0}, {"type": "note_on", "time": 12, "note": 65, "velocity": 120, "channel": 0}, {"type": "note_off", "time": 200, "note": 65, "velocity": 120, "channel": 0}, {"type": "note_on", "time": 20, "note": 63, "velocity": 109, "channel": 0}, {"type": "note_off", "time": 283, "note": 63, "velocity": 109, "channel": 0}, {"type": "note_on", "time": 17, "note": 58, "velocity": 100, "channel": 0}, {"type": "note_off", "time": 174, "note": 58, "velocity": 100, "channel": 0}, {"type": "note_on", "time": 9, "note": 54, "velocity": 103, "channel": 0}, {"type": "note_off", "time": 151, "note": 54, "velocity": 103, "channel": 0}, {"type": "note_on", "time": 2, "note": 51, "velocity": 101, "channel": 0}, {"type": "note_off", "time": 256, "note": 51, "velocity": 101, "channel": 0}, {"type": "note_on", "time": 19, "note": 50, "velocity": 88, "channel": 0}, {"type": "note_off", "time": 203, "note": 50, "velocity": 88, "channel": 0}, {"type": "note_on", "time": 4, "note": 59, "velocity": 101, "channel": 0}, {"type": "note_off", "time": 195, "note": 59, "velocity": 101, "channel": 0}, {"type": "note_on", "time": 16, "note": 57, "velocity": 90, "channel": 0}, {"type": "note_off", "time": 834, "note": 57, "velocity": 90, "channel": 0}, {"type": "note_on", "time": 536, "note": 56, "velocity": 112, "channel": 0}, {"type": "note_off", "time": 144, "note": 56, "velocity": 112, "channel": 0}, {"type": "note_on", "time": 19, "note": 58, "velocity": 109, "channel": 0}, {"type": "note_off", "time": 223, "note": 58, "velocity": 109, "channel": 0}, {"type": "note_on", "time": 21, "note": 60, "velocity": 111, "channel": 0}, {"type": "note_off", "time": 178, "note": 60, "velocity": 111, "channel": 0}, {"type": "note_on", "time": 18, "note": 63, "velocity": 122, "channel": 0}, {"type": "note_off", "time": 205, "note": 63, "velocity": 122, "channel": 0}, {"type": "note_on", "time": 11, "note": 61, "velocity": 120, "channel": 0}, {"type": "note_off", "time": 209, "note": 61, "velocity": 120, "channel": 0}, {"type": "note_on", "time": 24, "note": 56, "velocity": 106, "channel": 0}, {"type": "note_off", "time": 158, "note": 56, "velocity": 106, "channel": 0}, {"type": "note_on", "time": 16, "note": 54, "velocity": 104, "channel": 0}, {"type": "note_off", "time": 229, "note": 54, "velocity": 104, "channel": 0}, {"type": "note_on", "time": 11, "note": 58, "velocity": 102, "channel": 0}, {"type": "note_off", "time": 200, "note": 58, "velocity": 102, "channel": 0}, {"type": "note_on", "time": 0, "note": 63, "velocity": 115, "channel": 0}, {"type": "note_off", "time": 222, "note": 63, "velocity": 115, "channel": 0}, {"type": "note_on", "time": 46, "note": 58, "velocity": 96, "channel": 0}, {"type": "note_off", "time": 108, "note": 58, "velocity": 96, "channel": 0}, {"type": "note_on", "time": 12, "note": 61, "velocity": 101, "channel": 0}, {"type": "note_off", "time": 794, "note": 61, "velocity": 101, "channel": 0}, {"type": "note_on", "time": 332, "note": 52, "velocity": 100, "channel": 0}, {"type": "note_off", "time": 166, "note": 52, "velocity": 100, "channel": 0}, {"type": "note_on", "time": 7, "note": 53, "velocity": 112, "channel": 0}, {"type": "note_off", "time": 196, "note": 53, "velocity": 112, "channel": 0}, {"type": "note_on", "time": 16, "note": 54, "velocity": 107, "channel": 0}, {"type": "note_off", "time": 149, "note": 54, "velocity": 107, "channel": 0}, {"type": "note_on", "time": 18, "note": 56, "velocity": 102, "channel": 0}, {"type": "note_off", "time": 237, "note": 56, "velocity": 102, "channel": 0}, {"type": "note_on", "time": 15, "note": 58, "velocity": 106, "channel": 0}, {"type": "note_off", "time": 168, "note": 58, "velocity": 106, "channel": 0}, {"type": "note_on", "time": 15, "note": 60, "velocity": 104, "channel": 0}, {"type": "note_off", "time": 231, "note": 60, "velocity": 104, "channel": 0}, {"type": "note_on", "time": 14, "note": 61, "velocity": 116, "channel": 0}, {"type": "note_off", "time": 159, "note": 61, "velocity": 116, "channel": 0}, {"type": "note_on", "time": 7, "note": 63, "velocity": 121, "channel": 0}, {"type": "note_off", "time": 207, "note": 63, "velocity": 121, "channel": 0}, {"type": "note_on", "time": 21, "note": 62, "velocity": 112, "channel": 0}, {"type": "note_off", "time": 159, "note": 62, "velocity": 112, "channel": 0}, {"type": "note_on", "time": 8, "note": 59, "velocity": 104, "channel": 0}, {"type": "note_off", "time": 168, "note": 59, "velocity": 104, "channel": 0}, {"type": "note_on", "time": 24, "note": 50, "velocity": 87, "channel": 0}, {"type": "note_off", "time": 161, "note": 50, "velocity": 87, "channel": 0}, {"type": "note_on", "time": 32, "note": 53, "velocity": 101, "channel": 0}, {"type": "note_off", "time": 240, "note": 53, "velocity": 101, "channel": 0}, {"type": "note_on", "time": 5, "note": 56, "velocity": 95, "channel": 0}, {"type": "note_off", "time": 209, "note": 56, "velocity": 95, "channel": 0}, {"type": "note_on", "time": 1, "note": 59, "velocity": 100, "channel": 0}, {"type": "note_off", "time": 213, "note": 59, "velocity": 100, "channel": 0}, {"type": "note_on", "time": 32, "note": 57, "velocity": 91, "channel": 0}, {"type": "note_off", "time": 107, "note": 57, "velocity": 91, "channel": 0}, {"type": "note_on", "time": 19, "note": 58, "velocity": 92, "channel": 0}, {"type": "note_off", "time": 584, "note": 58, "velocity": 92, "channel": 0}, {"type": "note_on", "time": 735, "note": 65, "velocity": 119, "channel": 0}, {"type": "note_off", "time": 247, "note": 65, "velocity": 119, "channel": 0}, {"type": "note_on", "time": 9, "note": 62, "velocity": 118, "channel": 0}, {"type": "note_off", "time": 175, "note": 62, "velocity": 118, "channel": 0}, {"type": "note_on", "time": 25, "note": 63, "velocity": 120, "channel": 0}, {"type": "note_off", "time": 209, "note": 63, "velocity": 120, "channel": 0}, {"type": "note_on", "time": 16, "note": 65, "velocity": 121, "channel": 0}, {"type": "note_off", "time": 192, "note": 65, "velocity": 121, "channel": 0}, {"type": "note_on", "time": 12, "note": 66, "velocity": 112, "channel": 0}, {"type": "note_off", "time": 175, "note": 66, "velocity": 112, "channel": 0}, {"type": "note_on", "time": 16, "note": 68, "velocity": 107, "channel": 0}, {"type": "note_off", "time": 186, "note": 68, "velocity": 107, "channel": 0}, {"type": "note_on", "time": 15, "note": 70, "velocity": 109, "channel": 0}, {"type": "note_off", "time": 219, "note": 70, "velocity": 109, "channel": 0}, {"type": "note_on", "time": 18, "note": 66, "velocity": 116, "channel": 0}, {"type": "note_off", "time": 159, "note": 66, "velocity": 116, "channel": 0}, {"type": "note_on", "time": 26, "note": 65, "velocity": 120, "channel": 0}, {"type": "note_off", "time": 186, "note": 65, "velocity": 120, "channel": 0}, {"type": "note_on", "time": 25, "note": 63, "velocity": 119, "channel": 0}, {"type": "note_off", "time": 185, "note": 63, "velocity": 119, "channel": 0}, {"type": "note_on", "time": 29, "note": 61, "velocity": 105, "channel": 0}, {"type": "note_off", "time": 200, "note": 61, "velocity": 105, "channel": 0}, {"type": "note_on", "time": 19, "note": 60, "velocity": 100, "channel": 0}, {"type": "note_off", "time": 161, "note": 60, "velocity": 100, "channel": 0}, {"type": "note_on", "time": 15, "note": 66, "velocity": 47, "channel": 0}, {"type": "note_off", "time": 192, "note": 66, "velocity": 47, "channel": 0}, {"type": "note_on", "time": 24, "note": 65, "velocity": 104, "channel": 0}, {"type": "note_off", "time": 633, "note": 65, "velocity": 104, "channel": 0}, {"type": "note_on", "time": 26, "note": 63, "velocity": 108, "channel": 0}, {"type": "note_off", "time": 200, "note": 63, "velocity": 108, "channel": 0}, {"type": "note_on", "time": 19, "note": 61, "velocity": 99, "channel": 0}, {"type": "note_off", "time": 217, "note": 61, "velocity": 99, "channel": 0}, {"type": "note_on", "time": 21, "note": 60, "velocity": 92, "channel": 0}, {"type": "note_off", "time": 141, "note": 60, "velocity": 92, "channel": 0}, {"type": "note_on", "time": 19, "note": 58, "velocity": 97, "channel": 0}, {"type": "note_off", "time": 148, "note": 58, "velocity": 97, "channel": 0}, {"type": "note_on", "time": 32, "note": 57, "velocity": 100, "channel": 0}, {"type": "note_off", "time": 231, "note": 57, "velocity": 100, "channel": 0}, {"type": "note_on", "time": 26, "note": 61, "velocity": 98, "channel": 0}, {"type": "note_off", "time": 196, "note": 61, "velocity": 98, "channel": 0}, {"type": "note_on", "time": 11, "note": 54, "velocity": 84, "channel": 0}, {"type": "note_off", "time": 649, "note": 54, "velocity": 84, "channel": 0}, {"type": "note_on", "time": 548, "note": 53, "velocity": 106, "channel": 0}, {"type": "note_off", "time": 199, "note": 53, "velocity": 106, "channel": 0}, {"type": "note_on", "time": 11, "note": 57, "velocity": 107, "channel": 0}, {"type": "note_off", "time": 223, "note": 57, "velocity": 107, "channel": 0}, {"type": "note_on", "time": 2, "note": 60, "velocity": 108, "channel": 0}, {"type": "note_off", "time": 280, "note": 60, "velocity": 108, "channel": 0}, {"type": "note_on", "time": 21, "note": 58, "velocity": 99, "channel": 0}, {"type": "note_off", "time": 272, "note": 58, "velocity": 99, "channel": 0}, {"type": "note_on", "time": 7, "note": 51, "velocity": 101, "channel": 0}, {"type": "note_off", "time": 278, "note": 51, "velocity": 101, "channel": 0}, {"type": "note_on", "time": 12, "note": 50, "velocity": 94, "channel": 0}, {"type": "note_off", "time": 216, "note": 50, "velocity": 94, "channel": 0}, {"type": "note_on", "time": 18, "note": 59, "velocity": 96, "channel": 0}, {"type": "note_off", "time": 222, "note": 59, "velocity": 96, "channel": 0}, {"type": "note_on", "time": 14, "note": 54, "velocity": 86, "channel": 0}, {"type": "note_off", "time": 210, "note": 54, "velocity": 86, "channel": 0}, {"type": "note_on", "time": 24, "note": 64, "velocity": 97, "channel": 0}, {"type": "note_off", "time": 251, "note": 64, "velocity": 97, "channel": 0}, {"type": "note_on", "time": 18, "note": 59, "velocity": 90, "channel": 0}, {"type": "note_off", "time": 247, "note": 59, "velocity": 90, "channel": 0}, {"type": "note_on", "time": 24, "note": 57, "velocity": 96, "channel": 0}, {"type": "note_off", "time": 247, "note": 57, "velocity": 96, "channel": 0}, {"type": "note_on", "time": 15, "note": 56, "velocity": 86, "channel": 0}, {"type": "note_off", "time": 707, "note": 56, "velocity": 86, "channel": 0}, {"type": "note_on", "time": 568, "note": 61, "velocity": 105, "channel": 0}, {"type": "note_off", "time": 1516, "note": 61, "velocity": 105, "channel": 0}, {"type": "note_on", "time": 28, "note": 64, "velocity": 109, "channel": 0}, {"type": "note_off", "time": 221, "note": 64, "velocity": 109, "channel": 0}, {"type": "note_on", "time": 4, "note": 55, "velocity": 97, "channel": 0}, {"type": "note_off", "time": 254, "note": 55, "velocity": 97, "channel": 0}, {"type": "note_on", "time": 19, "note": 54, "velocity": 91, "channel": 0}, {"type": "note_off", "time": 485, "note": 54, "velocity": 91, "channel": 0}, {"type": "note_on", "time": 43, "note": 57, "velocity": 104, "channel": 0}, {"type": "note_off", "time": 244, "note": 57, "velocity": 104, "channel": 0}, {"type": "note_on", "time": 19, "note": 59, "velocity": 98, "channel": 0}, {"type": "note_off", "time": 113, "note": 59, "velocity": 98, "channel": 0}, {"type": "note_on", "time": 26, "note": 64, "velocity": 108, "channel": 0}, {"type": "note_off", "time": 108, "note": 64, "velocity": 108, "channel": 0}, {"type": "note_on", "time": 8, "note": 65, "velocity": 110, "channel": 0}, {"type": "note_off", "time": 131, "note": 65, "velocity": 110, "channel": 0}, {"type": "note_on", "time": 8, "note": 64, "velocity": 108, "channel": 0}, {"type": "note_off", "time": 93, "note": 64, "velocity": 108, "channel": 0}, {"type": "note_on", "time": 21, "note": 62, "velocity": 109, "channel": 0}, {"type": "note_off", "time": 210, "note": 62, "velocity": 109, "channel": 0}, {"type": "note_on", "time": 48, "note": 55, "velocity": 89, "channel": 0}, {"type": "note_off", "time": 857, "note": 55, "velocity": 89, "channel": 0}, {"type": "note_on", "time": 688, "note": 57, "velocity": 111, "channel": 0}, {"type": "note_off", "time": 239, "note": 57, "velocity": 111, "channel": 0}, {"type": "note_on", "time": 0, "note": 59, "velocity": 99, "channel": 0}, {"type": "note_off", "time": 164, "note": 59, "velocity": 99, "channel": 0}, {"type": "note_on", "time": 15, "note": 64, "velocity": 113, "channel": 0}, {"type": "note_off", "time": 217, "note": 64, "velocity": 113, "channel": 0}, {"type": "note_on", "time": 18, "note": 61, "velocity": 115, "channel": 0}, {"type": "note_off", "time": 193, "note": 61, "velocity": 115, "channel": 0}, {"type": "note_on", "time": 12, "note": 62, "velocity": 109, "channel": 0}, {"type": "note_off", "time": 168, "note": 62, "velocity": 109, "channel": 0}, {"type": "note_on", "time": 32, "note": 64, "velocity": 108, "channel": 0}, {"type": "note_off", "time": 166, "note": 64, "velocity": 108, "channel": 0}, {"type": "note_on", "time": 69, "note": 69, "velocity": 105, "channel": 0}, {"type": "note_off", "time": 179, "note": 69, "velocity": 105, "channel": 0}, {"type": "note_on", "time": 10, "note": 71, "velocity": 97, "channel": 0}, {"type": "note_off", "time": 57, "note": 71, "velocity": 97, "channel": 0}, {"type": "note_on", "time": 7, "note": 69, "velocity": 101, "channel": 0}, {"type": "note_off", "time": 105, "note": 69, "velocity": 101, "channel": 0}, {"type": "note_on", "time": 9, "note": 67, "velocity": 101, "channel": 0}, {"type": "note_off", "time": 271, "note": 67, "velocity": 101, "channel": 0}, {"type": "note_on", "time": 17, "note": 60, "velocity": 99, "channel": 0}, {"type": "note_off", "time": 455, "note": 60, "velocity": 99, "channel": 0}, {"type": "note_on", "time": 6, "note": 58, "velocity": 83, "channel": 0}, {"type": "note_off", "time": 957, "note": 58, "velocity": 83, "channel": 0}, {"type": "note_on", "time": 441, "note": 67, "velocity": 99, "channel": 0}, {"type": "note_off", "time": 210, "note": 67, "velocity": 99, "channel": 0}, {"type": "note_on", "time": 13, "note": 65, "velocity": 110, "channel": 0}, {"type": "note_off", "time": 196, "note": 65, "velocity": 110, "channel": 0}, {"type": "note_on", "time": 12, "note": 66, "velocity": 106, "channel": 0}, {"type": "note_off", "time": 119, "note": 66, "velocity": 106, "channel": 0}, {"type": "note_on", "time": 19, "note": 67, "velocity": 102, "channel": 0}, {"type": "note_off", "time": 58, "note": 67, "velocity": 102, "channel": 0}, {"type": "note_on", "time": 11, "note": 66, "velocity": 107, "channel": 0}, {"type": "note_off", "time": 53, "note": 66, "velocity": 107, "channel": 0}, {"type": "note_on", "time": 7, "note": 64, "velocity": 110, "channel": 0}, {"type": "note_off", "time": 130, "note": 64, "velocity": 110, "channel": 0}, {"type": "note_on", "time": 17, "note": 62, "velocity": 107, "channel": 0}, {"type": "note_off", "time": 213, "note": 62, "velocity": 107, "channel": 0}, {"type": "note_on", "time": 32, "note": 59, "velocity": 98, "channel": 0}, {"type": "note_off", "time": 155, "note": 59, "velocity": 98, "channel": 0}, {"type": "note_on", "time": 21, "note": 57, "velocity": 104, "channel": 0}, {"type": "note_off", "time": 234, "note": 57, "velocity": 104, "channel": 0}, {"type": "note_on", "time": 29, "note": 55, "velocity": 100, "channel": 0}, {"type": "note_off", "time": 166, "note": 55, "velocity": 100, "channel": 0}, {"type": "note_on", "time": 19, "note": 56, "velocity": 98, "channel": 0}, {"type": "note_off", "time": 97, "note": 56, "velocity": 98, "channel": 0}, {"type": "note_on", "time": 7, "note": 59, "velocity": 91, "channel": 0}, {"type": "note_off", "time": 103, "note": 59, "velocity": 91, "channel": 0}, {"type": "note_on", "time": 19, "note": 62, "velocity": 104, "channel": 0}, {"type": "note_off", "time": 131, "note": 62, "velocity": 104, "channel": 0}, {"type": "note_on", "time": 17, "note": 65, "velocity": 114, "channel": 0}, {"type": "note_off", "time": 218, "note": 65, "velocity": 114, "channel": 0}, {"type": "note_on", "time": 14, "note": 63, "velocity": 108, "channel": 0}, {"type": "note_off", "time": 167, "note": 63, "velocity": 108, "channel": 0}, {"type": "note_on", "time": 10, "note": 64, "velocity": 101, "channel": 0}, {"type": "note_off", "time": 155, "note": 64, "velocity": 101, "channel": 0}, {"type": "note_on", "time": 13, "note": 61, "velocity": 104, "channel": 0}, {"type": "note_off", "time": 153, "note": 61, "velocity": 104, "channel": 0}, {"type": "note_on", "time": 9, "note": 59, "velocity": 94, "channel": 0}, {"type": "note_off", "time": 100, "note": 59, "velocity": 94, "channel": 0}, {"type": "note_on", "time": 11, "note": 55, "velocity": 95, "channel": 0}, {"type": "note_off", "time": 220, "note": 55, "velocity": 95, "channel": 0}, {"type": "note_on", "time": 9, "note": 53, "velocity": 96, "channel": 0}, {"type": "note_off", "time": 171, "note": 53, "velocity": 96, "channel": 0}, {"type": "note_on", "time": 7, "note": 54, "velocity": 94, "channel": 0}, {"type": "note_off", "time": 142, "note": 54, "velocity": 94, "channel": 0}, {"type": "note_on", "time": 18, "note": 57, "velocity": 95, "channel": 0}, {"type": "note_off", "time": 106, "note": 57, "velocity": 95, "channel": 0}, {"type": "note_on", "time": 13, "note": 59, "velocity": 94, "channel": 0}, {"type": "note_off", "time": 122, "note": 59, "velocity": 94, "channel": 0}, {"type": "note_on", "time": 30, "note": 64, "velocity": 106, "channel": 0}, {"type": "note_off", "time": 214, "note": 64, "velocity": 106, "channel": 0}, {"type": "note_on", "time": 154, "note": 62, "velocity": 93, "channel": 0}, {"type": "note_off", "time": 780, "note": 62, "velocity": 93, "channel": 0}, {"type": "note_on", "time": 521, "note": 74, "velocity": 110, "channel": 0}, {"type": "note_off", "time": 188, "note": 74, "velocity": 110, "channel": 0}, {"type": "note_on", "time": 46, "note": 70, "velocity": 107, "channel": 0}, {"type": "note_off", "time": 161, "note": 70, "velocity": 107, "channel": 0}, {"type": "note_on", "time": 34, "note": 66, "velocity": 110, "channel": 0}, {"type": "note_off", "time": 209, "note": 66, "velocity": 110, "channel": 0}, {"type": "note_on", "time": 11, "note": 60, "velocity": 105, "channel": 0}, {"type": "note_off", "time": 184, "note": 60, "velocity": 105, "channel": 0}, {"type": "note_on", "time": 19, "note": 59, "velocity": 97, "channel": 0}, {"type": "note_off", "time": 412, "note": 59, "velocity": 97, "channel": 0}, {"type": "note_on", "time": 0, "note": 64, "velocity": 110, "channel": 0}, {"type": "note_off", "time": 181, "note": 64, "velocity": 110, "channel": 0}, {"type": "note_on", "time": 69, "note": 59, "velocity": 99, "channel": 0}, {"type": "note_off", "time": 145, "note": 59, "velocity": 99, "channel": 0}, {"type": "note_on", "time": 26, "note": 62, "velocity": 110, "channel": 0}, {"type": "note_off", "time": 186, "note": 62, "velocity": 110, "channel": 0}, {"type": "note_on", "time": 18, "note": 64, "velocity": 108, "channel": 0}, {"type": "note_off", "time": 154, "note": 64, "velocity": 108, "channel": 0}, {"type": "note_on", "time": 22, "note": 65, "velocity": 117, "channel": 0}, {"type": "note_off", "time": 251, "note": 65, "velocity": 117, "channel": 0}, {"type": "note_on", "time": 17, "note": 67, "velocity": 97, "channel": 0}, {"type": "note_off", "time": 138, "note": 67, "velocity": 97, "channel": 0}, {"type": "note_on", "time": 10, "note": 68, "velocity": 101, "channel": 0}, {"type": "note_off", "time": 210, "note": 68, "velocity": 101, "channel": 0}, {"type": "note_on", "time": 7, "note": 69, "velocity": 108, "channel": 0}, {"type": "note_off", "time": 219, "note": 69, "velocity": 108, "channel": 0}, {"type": "note_on", "time": 424, "note": 79, "velocity": 103, "channel": 0}, {"type": "note_off", "time": 198, "note": 79, "velocity": 103, "channel": 0}, {"type": "note_on", "time": 15, "note": 75, "velocity": 105, "channel": 0}, {"type": "note_off", "time": 169, "note": 75, "velocity": 105, "channel": 0}, {"type": "note_on", "time": 19, "note": 71, "velocity": 104, "channel": 0}, {"type": "note_off", "time": 200, "note": 71, "velocity": 104, "channel": 0}, {"type": "note_on", "time": 16, "note": 67, "velocity": 101, "channel": 0}, {"type": "note_off", "time": 177, "note": 67, "velocity": 101, "channel": 0}, {"type": "note_on", "time": 12, "note": 66, "velocity": 111, "channel": 0}, {"type": "note_off", "time": 165, "note": 66, "velocity": 111, "channel": 0}, {"type": "note_on", "time": 9, "note": 65, "velocity": 118, "channel": 0}, {"type": "note_off", "time": 199, "note": 65, "velocity": 118, "channel": 0}, {"type": "note_on", "time": 8, "note": 64, "velocity": 109, "channel": 0}, {"type": "note_off", "time": 250, "note": 64, "velocity": 109, "channel": 0}, {"type": "note_on", "time": 43, "note": 55, "velocity": 100, "channel": 0}, {"type": "note_off", "time": 152, "note": 55, "velocity": 100, "channel": 0}, {"type": "note_on", "time": 11, "note": 57, "velocity": 100, "channel": 0}, {"type": "note_off", "time": 169, "note": 57, "velocity": 100, "channel": 0}, {"type": "note_on", "time": 17, "note": 59, "velocity": 99, "channel": 0}, {"type": "note_off", "time": 189, "note": 59, "velocity": 99, "channel": 0}, {"type": "note_on", "time": 13, "note": 62, "velocity": 109, "channel": 0}, {"type": "note_off", "time": 211, "note": 62, "velocity": 109, "channel": 0}, {"type": "note_on", "time": 12, "note": 59, "velocity": 99, "channel": 0}, {"type": "note_off", "time": 189, "note": 59, "velocity": 99, "channel": 0}, {"type": "note_on", "time": 9, "note": 60, "velocity": 100, "channel": 0}, {"type": "note_off", "time": 153, "note": 60, "velocity": 100, "channel": 0}, {"type": "note_on", "time": 18, "note": 62, "velocity": 106, "channel": 0}, {"type": "note_off", "time": 184, "note": 62, "velocity": 106, "channel": 0}, {"type": "note_on", "time": 31, "note": 64, "velocity": 109, "channel": 0}, {"type": "note_off", "time": 197, "note": 64, "velocity": 109, "channel": 0}, {"type": "note_on", "time": 36, "note": 67, "velocity": 94, "channel": 0}, {"type": "note_off", "time": 112, "note": 67, "velocity": 94, "channel": 0}, {"type": "note_on", "time": 13, "note": 69, "velocity": 109, "channel": 0}, {"type": "note_off", "time": 235, "note": 69, "velocity": 109, "channel": 0}, {"type": "note_on", "time": 52, "note": 73, "velocity": 97, "channel": 0}, {"type": "note_off", "time": 169, "note": 73, "velocity": 97, "channel": 0}, {"type": "note_on", "time": 35, "note": 66, "velocity": 94, "channel": 0}, {"type": "note_off", "time": 524, "note": 66, "velocity": 94, "channel": 0}, {"type": "note_on", "time": 575, "note": 65, "velocity": 103, "channel": 0}, {"type": "note_off", "time": 434, "note": 65, "velocity": 103, "channel": 0}, {"type": "note_on", "time": 32, "note": 69, "velocity": 104, "channel": 0}, {"type": "note_off", "time": 126, "note": 69, "velocity": 104, "channel": 0}, {"type": "note_on", "time": 38, "note": 63, "velocity": 103, "channel": 0}, {"type": "note_off", "time": 107, "note": 63, "velocity": 103, "channel": 0}, {"type": "note_on", "time": 11, "note": 65, "velocity": 108, "channel": 0}, {"type": "note_off", "time": 65, "note": 65, "velocity": 108, "channel": 0}, {"type": "note_on", "time": 14, "note": 64, "velocity": 110, "channel": 0}, {"type": "note_off", "time": 98, "note": 64, "velocity": 110, "channel": 0}, {"type": "note_on", "time": 19, "note": 62, "velocity": 104, "channel": 0}, {"type": "note_off", "time": 143, "note": 62, "velocity": 104, "channel": 0}, {"type": "note_on", "time": 11, "note": 61, "velocity": 110, "channel": 0}, {"type": "note_off", "time": 173, "note": 61, "velocity": 110, "channel": 0}, {"type": "note_on", "time": 2, "note": 57, "velocity": 102, "channel": 0}, {"type": "note_off", "time": 151, "note": 57, "velocity": 102, "channel": 0}, {"type": "note_on", "time": 14, "note": 60, "velocity": 99, "channel": 0}, {"type": "note_off", "time": 237, "note": 60, "velocity": 99, "channel": 0}, {"type": "note_on", "time": 8, "note": 57, "velocity": 103, "channel": 0}, {"type": "note_off", "time": 159, "note": 57, "velocity": 103, "channel": 0}, {"type": "note_on", "time": 31, "note": 53, "velocity": 95, "channel": 0}, {"type": "note_off", "time": 162, "note": 53, "velocity": 95, "channel": 0}, {"type": "note_on", "time": 46, "note": 48, "velocity": 90, "channel": 0}, {"type": "note_off", "time": 359, "note": 48, "velocity": 90, "channel": 0}, {"type": "note_on", "time": 39, "note": 57, "velocity": 105, "channel": 0}, {"type": "note_off", "time": 178, "note": 57, "velocity": 105, "channel": 0}, {"type": "note_on", "time": 14, "note": 53, "velocity": 101, "channel": 0}, {"type": "note_off", "time": 270, "note": 53, "velocity": 101, "channel": 0}, {"type": "note_on", "time": 108, "note": 52, "velocity": 87, "channel": 0}, {"type": "note_off", "time": 480, "note": 52, "velocity": 87, "channel": 0}, {"type": "note_on", "time": 386, "note": 51, "velocity": 100, "channel": 0}, {"type": "note_off", "time": 171, "note": 51, "velocity": 100, "channel": 0}, {"type": "note_on", "time": 15, "note": 54, "velocity": 96, "channel": 0}, {"type": "note_off", "time": 189, "note": 54, "velocity": 96, "channel": 0}, {"type": "note_on", "time": 2, "note": 61, "velocity": 116, "channel": 0}, {"type": "note_off", "time": 219, "note": 61, "velocity": 116, "channel": 0}, {"type": "note_on", "time": 12, "note": 59, "velocity": 103, "channel": 0}, {"type": "note_off", "time": 160, "note": 59, "velocity": 103, "channel": 0}, {"type": "note_on", "time": 84, "note": 51, "velocity": 101, "channel": 0}, {"type": "note_off", "time": 203, "note": 51, "velocity": 101, "channel": 0}, {"type": "note_on", "time": 14, "note": 53, "velocity": 100, "channel": 0}, {"type": "note_off", "time": 142, "note": 53, "velocity": 100, "channel": 0}, {"type": "note_on", "time": 2, "note": 60, "velocity": 105, "channel": 0}, {"type": "note_off", "time": 191, "note": 60, "velocity": 105, "channel": 0}, {"type": "note_on", "time": 24, "note": 58, "velocity": 100, "channel": 0}, {"type": "note_off", "time": 177, "note": 58, "velocity": 100, "channel": 0}, {"type": "note_on", "time": 27, "note": 62, "velocity": 113, "channel": 0}, {"type": "note_off", "time": 189, "note": 62, "velocity": 113, "channel": 0}, {"type": "note_on", "time": 14, "note": 65, "velocity": 114, "channel": 0}, {"type": "note_off", "time": 220, "note": 65, "velocity": 114, "channel": 0}, {"type": "note_on", "time": 26, "note": 68, "velocity": 107, "channel": 0}, {"type": "note_off", "time": 179, "note": 68, "velocity": 107, "channel": 0}, {"type": "note_on", "time": 14, "note": 65, "velocity": 119, "channel": 0}, {"type": "note_off", "time": 223, "note": 65, "velocity": 119, "channel": 0}, {"type": "note_on", "time": 15, "note": 66, "velocity": 86, "channel": 0}, {"type": "note_off", "time": 816, "note": 66, "velocity": 86, "channel": 0}, {"type": "note_on", "time": 394, "note": 51, "velocity": 103, "channel": 0}, {"type": "note_off", "time": 305, "note": 51, "velocity": 103, "channel": 0}, {"type": "note_on", "time": 29, "note": 53, "velocity": 105, "channel": 0}, {"type": "note_off", "time": 217, "note": 53, "velocity": 105, "channel": 0}, {"type": "note_on", "time": 24, "note": 51, "velocity": 101, "channel": 0}, {"type": "note_off", "time": 237, "note": 51, "velocity": 101, "channel": 0}, {"type": "note_on", "time": 40, "note": 53, "velocity": 91, "channel": 0}, {"type": "note_off", "time": 1118, "note": 53, "velocity": 91, "channel": 0}, {"type": "note_on", "time": 16, "note": 51, "velocity": 96, "channel": 0}, {"type": "note_off", "time": 142, "note": 51, "velocity": 96, "channel": 0}, {"type": "note_on", "time": 57, "note": 58, "velocity": 85, "channel": 0}, {"type": "note_off", "time": 1541, "note": 58, "velocity": 85, "channel": 0}, {"type": "note_on", "time": 379, "note": 60, "velocity": 112, "channel": 0}, {"type": "note_off", "time": 251, "note": 60, "velocity": 112, "channel": 0}, {"type": "note_on", "time": 8, "note": 61, "velocity": 118, "channel": 0}, {"type": "note_off", "time": 227, "note": 61, "velocity": 118, "channel": 0}, {"type": "note_on", "time": 16, "note": 58, "velocity": 106, "channel": 0}, {"type": "note_off", "time": 181, "note": 58, "velocity": 106, "channel": 0}, {"type": "note_on", "time": 32, "note": 60, "velocity": 108, "channel": 0}, {"type": "note_off", "time": 212, "note": 60, "velocity": 108, "channel": 0}, {"type": "note_on", "time": 14, "note": 56, "velocity": 105, "channel": 0}, {"type": "note_off", "time": 168, "note": 56, "velocity": 105, "channel": 0}, {"type": "note_on", "time": 18, "note": 52, "velocity": 94, "channel": 0}, {"type": "note_off", "time": 165, "note": 52, "velocity": 94, "channel": 0}, {"type": "note_on", "time": 219, "note": 53, "velocity": 91, "channel": 0}, {"type": "note_off", "time": 951, "note": 53, "velocity": 91, "channel": 0}, {"type": "note_on", "time": 280, "note": 56, "velocity": 107, "channel": 0}, {"type": "note_off", "time": 219, "note": 56, "velocity": 107, "channel": 0}, {"type": "note_on", "time": 12, "note": 58, "velocity": 108, "channel": 0}, {"type": "note_off", "time": 195, "note": 58, "velocity": 108, "channel": 0}, {"type": "note_on", "time": 22, "note": 60, "velocity": 105, "channel": 0}, {"type": "note_off", "time": 192, "note": 60, "velocity": 105, "channel": 0}, {"type": "note_on", "time": 25, "note": 63, "velocity": 120, "channel": 0}, {"type": "note_off", "time": 186, "note": 63, "velocity": 120, "channel": 0}, {"type": "note_on", "time": 16, "note": 61, "velocity": 118, "channel": 0}, {"type": "note_off", "time": 210, "note": 61, "velocity": 118, "channel": 0}, {"type": "note_on", "time": 5, "note": 58, "velocity": 102, "channel": 0}, {"type": "note_off", "time": 166, "note": 58, "velocity": 102, "channel": 0}, {"type": "note_on", "time": 37, "note": 54, "velocity": 90, "channel": 0}, {"type": "note_off", "time": 840, "note": 54, "velocity": 90, "channel": 0}, {"type": "note_on", "time": 284, "note": 52, "velocity": 106, "channel": 0}, {"type": "note_off", "time": 114, "note": 52, "velocity": 106, "channel": 0}, {"type": "note_on", "time": 6, "note": 53, "velocity": 106, "channel": 0}, {"type": "note_off", "time": 161, "note": 53, "velocity": 106, "channel": 0}, {"type": "note_on", "time": 3, "note": 56, "velocity": 109, "channel": 0}, {"type": "note_off", "time": 129, "note": 56, "velocity": 109, "channel": 0}, {"type": "note_on", "time": 21, "note": 60, "velocity": 110, "channel": 0}, {"type": "note_off", "time": 278, "note": 60, "velocity": 110, "channel": 0}, {"type": "note_on", "time": 24, "note": 63, "velocity": 116, "channel": 0}, {"type": "note_off", "time": 413, "note": 63, "velocity": 116, "channel": 0}, {"type": "note_on", "time": 16, "note": 61, "velocity": 119, "channel": 0}, {"type": "note_off", "time": 287, "note": 61, "velocity": 119, "channel": 0}, {"type": "note_on", "time": 31, "note": 60, "velocity": 110, "channel": 0}, {"type": "note_off", "time": 473, "note": 60, "velocity": 110, "channel": 0}, {"type": "note_on", "time": 16, "note": 58, "velocity": 93, "channel": 0}, {"type": "note_off", "time": 893, "note": 58, "velocity": 93, "channel": 0}, {"type": "note_on", "time": 121, "note": 54, "velocity": 102, "channel": 0}, {"type": "note_off", "time": 78, "note": 54, "velocity": 102, "channel": 0}, {"type": "note_on", "time": 26, "note": 51, "velocity": 95, "channel": 0}, {"type": "note_off", "time": 902, "note": 51, "velocity": 95, "channel": 0}, {"type": "note_on", "time": 383, "note": 54, "velocity": 110, "channel": 0}, {"type": "note_off", "time": 332, "note": 54, "velocity": 110, "channel": 0}, {"type": "note_on", "time": 26, "note": 58, "velocity": 101, "channel": 0}, {"type": "note_off", "time": 387, "note": 58, "velocity": 101, "channel": 0}, {"type": "note_on", "time": 9, "note": 61, "velocity": 119, "channel": 0}, {"type": "note_off", "time": 297, "note": 61, "velocity": 119, "channel": 0}, {"type": "note_on", "time": 14, "note": 58, "velocity": 106, "channel": 0}, {"type": "note_off", "time": 258, "note": 58, "velocity": 106, "channel": 0}, {"type": "note_on", "time": 11, "note": 56, "velocity": 108, "channel": 0}, {"type": "note_off", "time": 181, "note": 56, "velocity": 108, "channel": 0}, {"type": "note_on", "time": 16, "note": 54, "velocity": 102, "channel": 0}, {"type": "note_off", "time": 176, "note": 54, "velocity": 102, "channel": 0}, {"type": "note_on", "time": 87, "note": 49, "velocity": 96, "channel": 0}, {"type": "note_off", "time": 159, "note": 49, "velocity": 96, "channel": 0}, {"type": "note_on", "time": 8, "note": 51, "velocity": 100, "channel": 0}, {"type": "note_off", "time": 96, "note": 51, "velocity": 100, "channel": 0}, {"type": "note_on", "time": 14, "note": 53, "velocity": 95, "channel": 0}, {"type": "note_off", "time": 718, "note": 53, "velocity": 95, "channel": 0}, {"type": "note_on", "time": 644, "note": 53, "velocity": 105, "channel": 0}, {"type": "note_off", "time": 547, "note": 53, "velocity": 105, "channel": 0}, {"type": "note_on", "time": 18, "note": 54, "velocity": 106, "channel": 0}, {"type": "note_off", "time": 264, "note": 54, "velocity": 106, "channel": 0}, {"type": "note_on", "time": 8, "note": 57, "velocity": 112, "channel": 0}, {"type": "note_off", "time": 288, "note": 57, "velocity": 112, "channel": 0}, {"type": "note_on", "time": 14, "note": 60, "velocity": 110, "channel": 0}, {"type": "note_off", "time": 363, "note": 60, "velocity": 110, "channel": 0}, {"type": "note_on", "time": 24, "note": 61, "velocity": 116, "channel": 0}, {"type": "note_off", "time": 268, "note": 61, "velocity": 116, "channel": 0}, {"type": "note_on", "time": 39, "note": 53, "velocity": 108, "channel": 0}, {"type": "note_off", "time": 222, "note": 53, "velocity": 108, "channel": 0}, {"type": "note_on", "time": 28, "note": 57, "velocity": 109, "channel": 0}, {"type": "note_off", "time": 299, "note": 57, "velocity": 109, "channel": 0}, {"type": "note_on", "time": 39, "note": 60, "velocity": 84, "channel": 0}, {"type": "note_off", "time": 1765, "note": 60, "velocity": 84, "channel": 0}, {"type": "note_on", "time": 29, "note": 58, "velocity": 104, "channel": 0}, {"type": "note_off", "time": 203, "note": 58, "velocity": 104, "channel": 0}, {"type": "note_on", "time": 30, "note": 53, "velocity": 101, "channel": 0}, {"type": "note_off", "time": 199, "note": 53, "velocity": 101, "channel": 0}, {"type": "note_on", "time": 10, "note": 51, "velocity": 95, "channel": 0}, {"type": "note_off", "time": 185, "note": 51, "velocity": 95, "channel": 0}, {"type": "note_on", "time": 12, "note": 48, "velocity": 84, "channel": 0}, {"type": "note_off", "time": 261, "note": 48, "velocity": 84, "channel": 0}, {"type": "note_on", "time": 28, "note": 49, "velocity": 86, "channel": 0}, {"type": "note_off", "time": 177, "note": 49, "velocity": 86, "channel": 0}, {"type": "note_on", "time": 14, "note": 51, "velocity": 80, "channel": 0}, {"type": "note_off", "time": 221, "note": 51, "velocity": 80, "channel": 0}, {"type": "note_on", "time": 34, "note": 53, "velocity": 83, "channel": 0}, {"type": "note_off", "time": 231, "note": 53, "velocity": 83, "channel": 0}, {"type": "note_on", "time": 6, "note": 58, "velocity": 75, "channel": 0}, {"type": "note_off", "time": 265, "note": 58, "velocity": 75, "channel": 0}, {"type": "note_on", "time": 34, "note": 59, "velocity": 47, "channel": 0}, {"type": "note_off", "time": 1367, "note": 59, "velocity": 47, "channel": 0}, {"type": "end_of_track", "time": 0}]]}