{"ticks_per_beat": 1320, "tracks": [[{"type": "track_name", "name": "Melody", "time": 0}, {"type": "set_tempo", "tempo": 517241, "time": 0}, {"type": "key_signature", "key": "F", "time": 0}, {"type": "time_signature", "numerator": 4, "denominator": 4, "clocks_per_click": 24, "notated_32nd_notes_per_beat": 8, "time": 0}, {"type": "note_on", "time": 12295, "note": 53, "velocity": 110, "channel": 0}, {"type": "note_off", "time": 281, "note": 53, "velocity": 110, "channel": 0}, {"type": "note_on", "time": 59, "note": 56, "velocity": 107, "channel": 0}, {"type": "note_off", "time": 755, "note": 56, "velocity": 107, "channel": 0}, {"type": "note_on", "time": 281, "note": 58, "velocity": 112, "channel": 0}, {"type": "note_off", "time": 429, "note": 58, "velocity": 112, "channel": 0}, {"type": "note_on", "time": 162, "note": 55, "velocity": 99, "channel": 0}, {"type": "note_off", "time": 207, "note": 55, "velocity": 99, "channel": 0}, {"type": "note_on", "time": 133, "note": 58, "velocity": 106, "channel": 0}, {"type": "note_off", "time": 962, "note": 58, "velocity": 106, "channel": 0}, {"type": "note_on", "time": 133, "note": 57, "velocity": 106, "channel": 0}, {"type": "note_off", "time": 696, "note": 57, "velocity": 106, "channel": 0}, {"type": "note_on", "time": 29, "note": 53, "velocity": 102, "channel": 0}, {"type": "note_off", "time": 177, "note": 53, "velocity": 102, "channel": 0}, {"type": "note_on", "time": 1066, "note": 53, "velocity": 111, "channel": 0}, {"type": "note_off", "time": 207, "note": 53, "velocity": 111, "channel": 0}, {"type": "note_on", "time": 148, "note": 56, "velocity": 111, "channel": 0}, {"type": "note_off", "time": 622, "note": 56, "velocity": 111, "channel": 0}, {"type": "note_on", "time": 207, "note": 58, "velocity": 104, "channel": 0}, {"type": "note_off", "time": 592, "note": 58, "velocity": 104, "channel": 0}, {"type": "note_on", "time": 14, "note": 57, "velocity": 98, "channel": 0}, {"type": "note_off", "time": 148, "note": 57, "velocity": 98, "channel": 0}, {"type": "note_on", "time": 59, "note": 58, "velocity": 104, "channel": 0}, {"type": "note_off", "time": 977, "note": 58, "velocity": 104, "channel": 0}, {"type": "note_on", "time": 14, "note": 57, "velocity": 97, "channel": 0}, {"type": "note_off", "time": 711, "note": 57, "velocity": 97, "channel": 0}, {"type": "note_on", "time": 311, "note": 60, "velocity": 105, "channel": 0}, {"type": "note_off", "time": 355, "note": 60, "velocity": 105, "channel": 0}, {"type": "note_on", "time": 14, "note": 59, "velocity": 98, "channel": 0}, {"type": "note_off", "time": 88, "note": 59, "velocity": 98, "channel": 0}, {"type": "note_on", "time": 755, "note": 53, "velocity": 111, "channel": 0}, {"type": "note_off", "time": 325, "note": 53, "velocity": 111, "channel": 0}, {"type": "note_on", "time": 44, "note": 56, "velocity": 110, "channel": 0}, {"type": "note_off", "time": 1066, "note": 56, "velocity": 110, "channel": 0}, {"type": "note_on", "time": 88, "note": 57, "velocity": 101, "channel": 0}, {"type": "note_off", "time": 296, "note": 57, "velocity": 101, "channel": 0}, {"type": "note_on", "time": 133, "note": 65, "velocity": 105, "channel": 0}, {"type": "note_off", "time": 1140, "note": 65, "velocity": 105, "channel": 0}, {"type": "note_on", "time": 162, "note": 63, "velocity": 105, "channel": 0}, {"type": "note_off", "time": 785, "note": 63, "velocity": 105, "channel": 0}, {"type": "note_on", "time": 44, "note": 55, "velocity": 103, "channel": 0}, {"type": "note_off", "time": 399, "note": 55, "velocity": 103, "channel": 0}, {"type": "note_on", "time": 44, "note": 62, "velocity": 107, "channel": 0}, {"type": "note_off", "time": 637, "note": 62, "velocity": 107, "channel": 0}, {"type": "note_on", "time": 44, "note": 60, "velocity": 103, "channel": 0}, {"type": "note_off", "time": 503, "note": 60, "velocity": 103, "channel": 0}, {"type": "note_on", "time": 29, "note": 57, "velocity": 92, "channel": 0}, {"type": "note_off", "time": 681, "note": 57, "velocity": 92, "channel": 0}, {"type": "note_on", "time": 148, "note": 51, "velocity": 110, "channel": 0}, {"type": "note_off", "time": 622, "note": 51, "velocity": 110, "channel": 0}, {"type": "note_on", "time": 74, "note": 50, "velocity": 102, "channel": 0}, {"type": "note_off", "time": 577, "note": 50, "velocity": 102, "channel": 0}, {"type": "note_on", "time": 254, "note": 60, "velocity": 91, "channel": 0}, {"type": "note_off", "time": 2260, "note": 60, "velocity": 91, "channel": 0}, {"type": "note_on", "time": 218, "note": 59, "velocity": 107, "channel": 0}, {"type": "note_off", "time": 187, "note": 59, "velocity": 107, "channel": 0}, {"type": "note_on", "time": 10, "note": 60, "velocity": 105, "channel": 0}, {"type": "note_off", "time": 229, "note": 60, "velocity": 105, "channel": 0}, {"type": "note_on", "time": 52, "note": 59, "velocity": 100, "channel": 0}, {"type": "note_off", "time": 416, "note": 59, "velocity": 100, "channel": 0}, {"type": "note_on", "time": 0, "note": 58, "velocity": 103, "channel": 0}, {"type": "note_off", "time": 229, "note": 58, "velocity": 103, "channel": 0}, {"type": "note_on", "time": 10, "note": 56, "velocity": 103, "channel": 0}, {"type": "note_off", "time": 666, "note": 56, "velocity": 103, "channel": 0}, {"type": "note_on", "time": 312, "note": 56, "velocity": 97, "channel": 0}, {"type": "note_off", "time": 895, "note": 56, "velocity": 97, "channel": 0}, {"type": "note_on", "time": 2437, "note": 45, "velocity": 110, "channel": 0}, {"type": "note_off", "time": 218, "note": 45, "velocity": 110, "channel": 0}, {"type": "note_on", "time": 104, "note": 46, "velocity": 115, "channel": 0}, {"type": "note_off", "time": 208, "note": 46, "velocity": 115, "channel": 0}, {"type": "note_on", "time": 41, "note": 50, "velocity": 110, "channel": 0}, {"type": "note_off", "time": 333, "note": 50, "velocity": 110, "channel": 0}, {"type": "note_on", "time": 10, "note": 53, "velocity": 116, "channel": 0}, {"type": "note_off", "time": 385, "note": 53, "velocity": 116, "channel": 0}, {"type": "note_on", "time": 124, "note": 56, "velocity": 116, "channel": 0}, {"type": "note_off", "time": 437, "note": 56, "velocity": 116, "channel": 0}, {"type": "note_on", "time": 20, "note": 57, "velocity": 118, "channel": 0}, {"type": "note_off", "time": 562, "note": 57, "velocity": 118, "channel": 0}, {"type": "note_on", "time": 41, "note": 60, "velocity": 113, "channel": 0}, {"type": "note_off", "time": 572, "note": 60, "velocity": 113, "channel": 0}, {"type": "note_on", "time": 1031, "note": 57, "velocity": 121, "channel": 0}, {"type": "note_off", "time": 468, "note": 57, "velocity": 121, "channel": 0}, {"type": "note_on", "time": 104, "note": 58, "velocity": 116, "channel": 0}, {"type": "note_off", "time": 447, "note": 58, "velocity": 116, "channel": 0}, {"type": "note_on", "time": 62, "note": 65, "velocity": 101, "channel": 0}, {"type": "note_off", "time": 812, "note": 65, "velocity": 101, "channel": 0}, {"type": "note_on", "time": 583, "note": 57, "velocity": 115, "channel": 0}, {"type": "note_off", "time": 260, "note": 57, "velocity": 115, "channel": 0}, {"type": "note_on", "time": 593, "note": 59, "velocity": 108, "channel": 0}, {"type": "note_off", "time": 354, "note": 59, "velocity": 108, "channel": 0}, {"type": "note_on", "time": 41, "note": 62, "velocity": 114, "channel": 0}, {"type": "note_off", "time": 499, "note": 62, "velocity": 114, "channel": 0}, {"type": "note_on", "time": 114, "note": 65, "velocity": 116, "channel": 0}, {"type": "note_off", "time": 718, "note": 65, "velocity": 116, "channel": 0}, {"type": "note_on", "time": 0, "note": 68, "velocity": 109, "channel": 0}, {"type": "note_off", "time": 374, "note": 68, "velocity": 109, "channel": 0}, {"type": "note_on", "time": 72, "note": 69, "velocity": 93, "channel": 0}, {"type": "note_off", "time": 802, "note": 69, "velocity": 93, "channel": 0}, {"type": "note_on", "time": 135, "note": 64, "velocity": 118, "channel": 0}, {"type": "note_off", "time": 437, "note": 64, "velocity": 118, "channel": 0}, {"type": "note_on", "time": 52, "note": 63, "velocity": 103, "channel": 0}, {"type": "note_off", "time": 489, "note": 63, "velocity": 103, "channel": 0}, {"type": "note_on", "time": 343, "note": 61, "velocity": 105, "channel": 0}, {"type": "note_off", "time": 489, "note": 61, "velocity": 105, "channel": 0}, {"type": "note_on", "time": 31, "note": 62, "velocity": 105, "channel": 0}, {"type": "note_off", "time": 687, "note": 62, "velocity": 105, "channel": 0}, {"type": "note_on", "time": 2926, "note": 65, "velocity": 115, "channel": 0}, {"type": "note_off", "time": 5041, "note": 65, "velocity": 115, "channel": 0}, {"type": "note_on", "time": 72, "note": 66, "velocity": 109, "channel": 0}, {"type": "note_off", "time": 156, "note": 66, "velocity": 109, "channel": 0}, {"type": "note_on", "time": 0, "note": 65, "velocity": 117, "channel": 0}, {"type": "note_off", "time": 333, "note": 65, "velocity": 117, "channel": 0}, {"type": "note_on", "time": 10, "note": 62, "velocity": 114, "channel": 0}, {"type": "note_off", "time": 333, "note": 62, "velocity": 114, "channel": 0}, {"type": "note_on", "time": 104, "note": 56, "velocity": 97, "channel": 0}, {"type": "note_off", "time": 281, "note": 56, "velocity": 97, "channel": 0}, {"type": "note_on", "time": 121, "note": 52, "velocity": 113, "channel": 0}, {"type": "note_off", "time": 155, "note": 52, "velocity": 113, "channel": 0}, {"type": "note_on", "time": 899, "note": 53, "velocity": 94, "channel": 0}, {"type": "note_off", "time": 2114, "note": 53, "velocity": 94, "channel": 0}, {"type": "note_on", "time": 93, "note": 57, "velocity": 112, "channel": 0}, {"type": "note_off", "time": 395, "note": 57, "velocity": 112, "channel": 0}, {"type": "note_on", "time": 83, "note": 60, "velocity": 111, "channel": 0}, {"type": "note_off", "time": 322, "note": 60, "velocity": 111, "channel": 0}, {"type": "note_on", "time": 3104, "note": 65, "velocity": 114, "channel": 0}, {"type": "note_off", "time": 2864, "note": 65, "velocity": 114, "channel": 0}, {"type": "note_on", "time": 839, "note": 74, "velocity": 116, "channel": 0}, {"type": "note_off", "time": 170, "note": 74, "velocity": 116, "channel": 0}, {"type": "note_on", "time": 7, "note": 73, "velocity": 115, "channel": 0}, {"type": "note_off", "time": 244, "note": 73, "velocity": 115, "channel": 0}, {"type": "note_on", "time": 0, "note": 72, "velocity": 121, "channel": 0}, {"type": "note_off", "time": 155, "note": 72, "velocity": 121, "channel": 0}, {"type": "note_on", "time": 22, "note": 71, "velocity": 113, "channel": 0}, {"type": "note_off", "time": 437, "note": 71, "velocity": 113, "channel": 0}, {"type": "note_on", "time": 37, "note": 67, "velocity": 119, "channel": 0}, {"type": "note_off", "time": 207, "note": 67, "velocity": 119, "channel": 0}, {"type": "note_on", "time": 22, "note": 68, "velocity": 116, "channel": 0}, {"type": "note_off", "time": 170, "note": 68, "velocity": 116, "channel": 0}, {"type": "note_on", "time": 7, "note": 69, "velocity": 119, "channel": 0}, {"type": "note_off", "time": 170, "note": 69, "velocity": 119, "channel": 0}, {"type": "note_on", "time": 7, "note": 72, "velocity": 111, "channel": 0}, {"type": "note_off", "time": 244, "note": 72, "velocity": 111, "channel": 0}, {"type": "note_on", "time": 22, "note": 71, "velocity": 115, "channel": 0}, {"type": "note_off", "time": 125, "note": 71, "velocity": 115, "channel": 0}, {"type": "note_on", "time": 14, "note": 67, "velocity": 122, "channel": 0}, {"type": "note_off", "time": 237, "note": 67, "velocity": 122, "channel": 0}, {"type": "note_on", "time": 22, "note": 63, "velocity": 113, "channel": 0}, {"type": "note_off", "time": 251, "note": 63, "velocity": 113, "channel": 0}, {"type": "note_on", "time": 22, "note": 58, "velocity": 105, "channel": 0}, {"type": "note_off", "time": 325, "note": 58, "velocity": 105, "channel": 0}, {"type": "note_on", "time": 44, "note": 59, "velocity": 107, "channel": 0}, {"type": "note_off", "time": 274, "note": 59, "velocity": 107, "channel": 0}, {"type": "note_on", "time": 22, "note": 62, "velocity": 116, "channel": 0}, {"type": "note_off", "time": 237, "note": 62, "velocity": 116, "channel": 0}, {"type": "note_on", "time": 14, "note": 60, "velocity": 110, "channel": 0}, {"type": "note_off", "time": 222, "note": 60, "velocity": 110, "channel": 0}, {"type": "note_on", "time": 51, "note": 58, "velocity": 109, "channel": 0}, {"type": "note_off", "time": 429, "note": 58, "velocity": 109, "channel": 0}, {"type": "note_on", "time": 29, "note": 56, "velocity": 105, "channel": 0}, {"type": "note_off", "time": 140, "note": 56, "velocity": 105, "channel": 0}, {"type": "note_on", "time": 22, "note": 55, "velocity": 108, "channel": 0}, {"type": "note_off", "time": 162, "note": 55, "velocity": 108, "channel": 0}, {"type": "note_on", "time": 14, "note": 54, "velocity": 104, "channel": 0}, {"type": "note_off", "time": 148, "note": 54, "velocity": 104, "channel": 0}, {"type": "note_on", "time": 74, "note": 52, "velocity": 121, "channel": 0}, {"type": "note_off", "time": 96, "note": 52, "velocity": 121, "channel": 0}, {"type": "note_on", "time": 29, "note": 51, "velocity": 116, "channel": 0}, {"type": "note_off", "time": 88, "note": 51, "velocity": 116, "channel": 0}, {"type": "note_on", "time": 29, "note": 50, "velocity": 105, "channel": 0}, {"type": "note_off", "time": 244, "note": 50, "velocity": 105, "channel": 0}, {"type": "note_on", "time": 214, "note": 57, "velocity": 102, "channel": 0}, {"type": "note_off", "time": 229, "note": 57, "velocity": 102, "channel": 0}, {"type": "note_on", "time": 37, "note": 60, "velocity": 107, "channel": 0}, {"type": "note_off", "time": 511, "note": 60, "velocity": 107, "channel": 0}, {"type": "note_on", "time": 0, "note": 57, "velocity": 103, "channel": 0}, {"type": "note_off", "time": 207, "note": 57, "velocity": 103, "channel": 0}, {"type": "note_on", "time": 66, "note": 58, "velocity": 105, "channel": 0}, {"type": "note_off", "time": 251, "note": 58, "velocity": 105, "channel": 0}, {"type": "note_on", "time": 37, "note": 62, "velocity": 103, "channel": 0}, {"type": "note_off", "time": 170, "note": 62, "velocity": 103, "channel": 0}, {"type": "note_on", "time": 0, "note": 67, "velocity": 120, "channel": 0}, {"type": "note_off", "time": 348, "note": 67, "velocity": 120, "channel": 0}, {"type": "note_on", "time": 59, "note": 64, "velocity": 124, "channel": 0}, {"type": "note_off", "time": 274, "note": 64, "velocity": 124, "channel": 0}, {"type": "note_on", "time": 22, "note": 65, "velocity": 124, "channel": 0}, {"type": "note_off", "time": 325, "note": 65, "velocity": 124, "channel": 0}, {"type": "note_on", "time": 81, "note": 55, "velocity": 105, "channel": 0}, {"type": "note_off", "time": 1740, "note": 55, "velocity": 105, "channel": 0}, {"type": "note_on", "time": 44, "note": 56, "velocity": 112, "channel": 0}, {"type": "note_off", "time": 140, "note": 56, "velocity": 112, "channel": 0}, {"type": "note_on", "time": 44, "note": 58, "velocity": 113, "channel": 0}, {"type": "note_off", "time": 170, "note": 58, "velocity": 113, "channel": 0}, {"type": "note_on", "time": 7, "note": 61, "velocity": 101, "channel": 0}, {"type": "note_off", "time": 229, "note": 61, "velocity": 101, "channel": 0}, {"type": "note_on", "time": 0, "note": 64, "velocity": 108, "channel": 0}, {"type": "note_off", "time": 185, "note": 64, "velocity": 108, "channel": 0}, {"type": "note_on", "time": 7, "note": 67, "velocity": 116, "channel": 0}, {"type": "note_off", "time": 222, "note": 67, "velocity": 116, "channel": 0}, {"type": "note_on", "time": 29, "note": 65, "velocity": 117, "channel": 0}, {"type": "note_off", "time": 162, "note": 65, "velocity": 117, "channel": 0}, {"type": "note_on", "time": 14, "note": 64, "velocity": 118, "channel": 0}, {"type": "note_off", "time": 155, "note": 64, "velocity": 118, "channel": 0}, {"type": "note_on", "time": 7, "note": 65, "velocity": 116, "channel": 0}, {"type": "note_off", "time": 155, "note": 65, "velocity": 116, "channel": 0}, {"type": "note_on", "time": 7, "note": 66, "velocity": 113, "channel": 0}, {"type": "note_off", "time": 133, "note": 66, "velocity": 113, "channel": 0}, {"type": "note_on", "time": 29, "note": 67, "velocity": 110, "channel": 0}, {"type": "note_off", "time": 155, "note": 67, "velocity": 110, "channel": 0}, {"type": "note_on", "time": 29, "note": 68, "velocity": 102, "channel": 0}, {"type": "note_off", "time": 170, "note": 68, "velocity": 102, "channel": 0}, {"type": "note_on", "time": 14, "note": 70, "velocity": 106, "channel": 0}, {"type": "note_off", "time": 133, "note": 70, "velocity": 106, "channel": 0}, {"type": "note_on", "time": 14, "note": 71, "velocity": 116, "channel": 0}, {"type": "note_off", "time": 162, "note": 71, "velocity": 116, "channel": 0}, {"type": "note_on", "time": 59, "note": 72, "velocity": 112, "channel": 0}, {"type": "note_off", "time": 281, "note": 72, "velocity": 112, "channel": 0}, {"type": "note_on", "time": 2407, "note": 72, "velocity": 122, "channel": 0}, {"type": "note_off", "time": 696, "note": 72, "velocity": 122, "channel": 0}, {"type": "note_on", "time": 22, "note": 74, "velocity": 109, "channel": 0}, {"type": "note_off", "time": 155, "note": 74, "velocity": 109, "channel": 0}, {"type": "note_on", "time": 185, "note": 77, "velocity": 116, "channel": 0}, {"type": "note_off", "time": 4066, "note": 77, "velocity": 116, "channel": 0}, {"type": "note_on", "time": 22, "note": 75, "velocity": 117, "channel": 0}, {"type": "note_off", "time": 244, "note": 75, "velocity": 117, "channel": 0}, {"type": "note_on", "time": 22, "note": 77, "velocity": 123, "channel": 0}, {"type": "note_off", "time": 659, "note": 77, "velocity": 123, "channel": 0}, {"type": "note_on", "time": 0, "note": 76, "velocity": 119, "channel": 0}, {"type": "note_off", "time": 96, "note": 76, "velocity": 119, "channel": 0}, {"type": "note_on", "time": 22, "note": 73, "velocity": 115, "channel": 0}, {"type": "note_off", "time": 207, "note": 73, "velocity": 115, "channel": 0}, {"type": "note_on", "time": 22, "note": 72, "velocity": 120, "channel": 0}, {"type": "note_off", "time": 140, "note": 72, "velocity": 120, "channel": 0}, {"type": "note_on", "time": 29, "note": 71, "velocity": 112, "channel": 0}, {"type": "note_off", "time": 103, "note": 71, "velocity": 112, "channel": 0}, {"type": "note_on", "time": 7, "note": 72, "velocity": 106, "channel": 0}, {"type": "note_off", "time": 125, "note": 72, "velocity": 106, "channel": 0}, {"type": "note_on", "time": 7, "note": 71, "velocity": 109, "channel": 0}, {"type": "note_off", "time": 140, "note": 71, "velocity": 109, "channel": 0}, {"type": "note_on", "time": 22, "note": 67, "velocity": 118, "channel": 0}, {"type": "note_off", "time": 274, "note": 67, "velocity": 118, "channel": 0}, {"type": "note_on", "time": 162, "note": 65, "velocity": 111, "channel": 0}, {"type": "note_off", "time": 3429, "note": 65, "velocity": 111, "channel": 0}, {"type": "note_on", "time": 103, "note": 71, "velocity": 109, "channel": 0}, {"type": "note_off", "time": 614, "note": 71, "velocity": 109, "channel": 0}, {"type": "note_on", "time": 274, "note": 65, "velocity": 96, "channel": 0}, {"type": "note_off", "time": 1962, "note": 65, "velocity": 96, "channel": 0}, {"type": "note_on", "time": 1059, "note": 70, "velocity": 121, "channel": 0}, {"type": "note_off", "time": 488, "note": 70, "velocity": 121, "channel": 0}, {"type": "note_on", "time": 44, "note": 65, "velocity": 113, "channel": 0}, {"type": "note_off", "time": 866, "note": 65, "velocity": 113, "channel": 0}, {"type": "note_on", "time": 96, "note": 68, "velocity": 120, "channel": 0}, {"type": "note_off", "time": 429, "note": 68, "velocity": 120, "channel": 0}, {"type": "note_on", "time": 22, "note": 69, "velocity": 114, "channel": 0}, {"type": "note_off", "time": 607, "note": 69, "velocity": 114, "channel": 0}, {"type": "note_on", "time": 66, "note": 57, "velocity": 107, "channel": 0}, {"type": "note_off", "time": 474, "note": 57, "velocity": 107, "channel": 0}, {"type": "note_on", "time": 7, "note": 60, "velocity": 98, "channel": 0}, {"type": "note_off", "time": 1459, "note": 60, "velocity": 98, "channel": 0}, {"type": "note_on", "time": 1999, "note": 68, "velocity": 117, "channel": 0}, {"type": "note_off", "time": 199, "note": 68, "velocity": 117, "channel": 0}, {"type": "note_on", "time": 111, "note": 66, "velocity": 119, "channel": 0}, {"type": "note_off", "time": 111, "note": 66, "velocity": 119, "channel": 0}, {"type": "note_on", "time": 296, "note": 64, "velocity": 123, "channel": 0}, {"type": "note_off", "time": 466, "note": 64, "velocity": 123, "channel": 0}, {"type": "note_on", "time": 44, "note": 56, "velocity": 110, "channel": 0}, {"type": "note_off", "time": 133, "note": 56, "velocity": 110, "channel": 0}, {"type": "note_on", "time": 66, "note": 57, "velocity": 117, "channel": 0}, {"type": "note_off", "time": 214, "note": 57, "velocity": 117, "channel": 0}, {"type": "note_on", "time": 155, "note": 60, "velocity": 116, "channel": 0}, {"type": "note_off", "time": 207, "note": 60, "velocity": 116, "channel": 0}, {"type": "note_on", "time": 125, "note": 64, "velocity": 122, "channel": 0}, {"type": "note_off", "time": 229, "note": 64, "velocity": 122, "channel": 0}, {"type": "note_on", "time": 14, "note": 68, "velocity": 116, "channel": 0}, {"type": "note_off", "time": 251, "note": 68, "velocity": 116, "channel": 0}, {"type": "note_on", "time": 37, "note": 72, "velocity": 107, "channel": 0}, {"type": "note_off", "time": 162, "note": 72, "velocity": 107, "channel": 0}, {"type": "note_on", "time": 14, "note": 69, "velocity": 112, "channel": 0}, {"type": "note_off", "time": 311, "note": 69, "velocity": 112, "channel": 0}, {"type": "note_on", "time": 44, "note": 68, "velocity": 120, "channel": 0}, {"type": "note_off", "time": 651, "note": 68, "velocity": 120, "channel": 0}, {"type": "note_on", "time": 118, "note": 56, "velocity": 118, "channel": 0}, {"type": "note_off", "time": 1874, "note": 56, "velocity": 118, "channel": 0}, {"type": "note_on", "time": 74, "note": 55, "velocity": 115, "channel": 0}, {"type": "note_off", "time": 274, "note": 55, "velocity": 115, "channel": 0}, {"type": "note_on", "time": 118, "note": 58, "velocity": 108, "channel": 0}, {"type": "note_off", "time": 222, "note": 58, "velocity": 108, "channel": 0}, {"type": "note_on", "time": 29, "note": 62, "velocity": 118, "channel": 0}, {"type": "note_off", "time": 637, "note": 62, "velocity": 118, "channel": 0}, {"type": "note_on", "time": 37, "note": 63, "velocity": 114, "channel": 0}, {"type": "note_off", "time": 296, "note": 63, "velocity": 114, "channel": 0}, {"type": "note_on", "time": 14, "note": 64, "velocity": 118, "channel": 0}, {"type": "note_off", "time": 333, "note": 64, "velocity": 118, "channel": 0}, {"type": "note_on", "time": 7, "note": 65, "velocity": 108, "channel": 0}, {"type": "note_off", "time": 125, "note": 65, "velocity": 108, "channel": 0}, {"type": "note_on", "time": 14, "note": 66, "velocity": 99, "channel": 0}, {"type": "note_off", "time": 88, "note": 66, "velocity": 99, "channel": 0}, {"type": "note_on", "time": 37, "note": 65, "velocity": 111, "channel": 0}, {"type": "note_off", "time": 207, "note": 65, "velocity": 111, "channel": 0}, {"type": "note_on", "time": 44, "note": 62, "velocity": 99, "channel": 0}, {"type": "note_off", "time": 1259, "note": 62, "velocity": 99, "channel": 0}, {"type": "note_on", "time": 2074, "note": 64, "velocity": 123, "channel": 0}, {"type": "note_off", "time": 214, "note": 64, "velocity": 123, "channel": 0}, {"type": "note_on", "time": 29, "note": 65, "velocity": 122, "channel": 0}, {"type": "note_off", "time": 348, "note": 65, "velocity": 122, "channel": 0}, {"type": "note_on", "time": 244, "note": 70, "velocity": 122, "channel": 0}, {"type": "note_off", "time": 466, "note": 70, "velocity": 122, "channel": 0}, {"type": "note_on", "time": 22, "note": 69, "velocity": 116, "channel": 0}, {"type": "note_off", "time": 451, "note": 69, "velocity": 116, "channel": 0}, {"type": "note_on", "time": 207, "note": 65, "velocity": 124, "channel": 0}, {"type": "note_off", "time": 540, "note": 65, "velocity": 124, "channel": 0}, {"type": "note_on", "time": 162, "note": 60, "velocity": 115, "channel": 0}, {"type": "note_off", "time": 644, "note": 60, "velocity": 115, "channel": 0}, {"type": "note_on", "time": 125, "note": 64, "velocity": 125, "channel": 0}, {"type": "note_off", "time": 851, "note": 64, "velocity": 125, "channel": 0}, {"type": "note_on", "time": 29, "note": 65, "velocity": 126, "channel": 0}, {"type": "note_off", "time": 274, "note": 65, "velocity": 126, "channel": 0}, {"type": "note_on", "time": 718, "note": 60, "velocity": 89, "channel": 0}, {"type": "note_off", "time": 88, "note": 60, "velocity": 89, "channel": 0}, {"type": "note_on", "time": 22, "note": 61, "velocity": 121, "channel": 0}, {"type": "note_off", "time": 533, "note": 61, "velocity": 121, "channel": 0}, {"type": "note_on", "time": 29, "note": 62, "velocity": 120, "channel": 0}, {"type": "note_off", "time": 222, "note": 62, "velocity": 120, "channel": 0}, {"type": "note_on", "time": 44, "note": 64, "velocity": 127, "channel": 0}, {"type": "note_off", "time": 125, "note": 64, "velocity": 127, "channel": 0}, {"type": "note_on", "time": 14, "note": 62, "velocity": 118, "channel": 0}, {"type": "note_off", "time": 103, "note": 62, "velocity": 118, "channel": 0}, {"type": "note_on", "time": 0, "note": 64, "velocity": 123, "channel": 0}, {"type": "note_off", "time": 140, "note": 64, "velocity": 123, "channel": 0}, {"type": "note_on", "time": 14, "note": 62, "velocity": 116, "channel": 0}, {"type": "note_off", "time": 81, "note": 62, "velocity": 116, "channel": 0}, {"type": "note_on", "time": 0, "note": 65, "velocity": 117, "channel": 0}, {"type": "note_off", "time": 111, "note": 65, "velocity": 117, "channel": 0}, {"type": "note_on", "time": 51, "note": 63, "velocity": 115, "channel": 0}, {"type": "note_off", "time": 88, "note": 63, "velocity": 115, "channel": 0}, {"type": "note_on", "time": 3, "note": 65, "velocity": 113, "channel": 0}, {"type": "note_off", "time": 162, "note": 65, "velocity": 113, "channel": 0}, {"type": "note_on", "time": 44, "note": 63, "velocity": 114, "channel": 0}, {"type": "note_off", "time": 103, "note": 63, "velocity": 114, "channel": 0}, {"type": "note_on", "time": 18, "note": 64, "velocity": 112, "channel": 0}, {"type": "note_off", "time": 148, "note": 64, "velocity": 112, "channel": 0}, {"type": "note_on", "time": 18, "note": 62, "velocity": 107, "channel": 0}, {"type": "note_off", "time": 140, "note": 62, "velocity": 107, "channel": 0}, {"type": "note_on", "time": 29, "note": 64, "velocity": 97, "channel": 0}, {"type": "note_off", "time": 118, "note": 64, "velocity": 97, "channel": 0}, {"type": "note_on", "time": 3, "note": 62, "velocity": 102, "channel": 0}, {"type": "note_off", "time": 111, "note": 62, "velocity": 102, "channel": 0}, {"type": "note_on", "time": 11, "note": 64, "velocity": 108, "channel": 0}, {"type": "note_off", "time": 133, "note": 64, "velocity": 108, "channel": 0}, {"type": "note_on", "time": 3, "note": 62, "velocity": 103, "channel": 0}, {"type": "note_off", "time": 155, "note": 62, "velocity": 103, "channel": 0}, {"type": "note_on", "time": 0, "note": 64, "velocity": 101, "channel": 0}, {"type": "note_off", "time": 81, "note": 64, "velocity": 101, "channel": 0}, {"type": "note_on", "time": 0, "note": 62, "velocity": 97, "channel": 0}, {"type": "note_off", "time": 318, "note": 62, "velocity": 97, "channel": 0}, {"type": "note_on", "time": 14, "note": 61, "velocity": 110, "channel": 0}, {"type": "note_off", "time": 214, "note": 61, "velocity": 110, "channel": 0}, {"type": "note_on", "time": 7, "note": 63, "velocity": 105, "channel": 0}, {"type": "note_off", "time": 74, "note": 63, "velocity": 105, "channel": 0}, {"type": "note_on", "time": 0, "note": 61, "velocity": 104, "channel": 0}, {"type": "note_off", "time": 99, "note": 61, "velocity": 104, "channel": 0}, {"type": "note_on", "time": 0, "note": 60, "velocity": 106, "channel": 0}, {"type": "note_off", "time": 70, "note": 60, "velocity": 106, "channel": 0}, {"type": "note_on", "time": 240, "note": 63, "velocity": 98, "channel": 0}, {"type": "note_off", "time": 85, "note": 63, "velocity": 98, "channel": 0}, {"type": "note_on", "time": 14, "note": 62, "velocity": 102, "channel": 0}, {"type": "note_off", "time": 77, "note": 62, "velocity": 102, "channel": 0}, {"type": "note_on", "time": 3, "note": 61, "velocity": 106, "channel": 0}, {"type": "note_off", "time": 140, "note": 61, "velocity": 106, "channel": 0}, {"type": "note_on", "time": 0, "note": 60, "velocity": 108, "channel": 0}, {"type": "note_off", "time": 229, "note": 60, "velocity": 108, "channel": 0}, {"type": "note_on", "time": 18, "note": 55, "velocity": 102, "channel": 0}, {"type": "note_off", "time": 114, "note": 55, "velocity": 102, "channel": 0}, {"type": "note_on", "time": 688, "note": 52, "velocity": 110, "channel": 0}, {"type": "note_off", "time": 318, "note": 52, "velocity": 110, "channel": 0}, {"type": "note_on", "time": 192, "note": 58, "velocity": 104, "channel": 0}, {"type": "note_off", "time": 318, "note": 58, "velocity": 104, "channel": 0}, {"type": "note_on", "time": 29, "note": 59, "velocity": 110, "channel": 0}, {"type": "note_off", "time": 377, "note": 59, "velocity": 110, "channel": 0}, {"type": "note_on", "time": 96, "note": 57, "velocity": 103, "channel": 0}, {"type": "note_off", "time": 525, "note": 57, "velocity": 103, "channel": 0}, {"type": "note_on", "time": 22, "note": 58, "velocity": 110, "channel": 0}, {"type": "note_off", "time": 688, "note": 58, "velocity": 110, "channel": 0}, {"type": "note_on", "time": 125, "note": 60, "velocity": 102, "channel": 0}, {"type": "note_off", "time": 414, "note": 60, "velocity": 102, "channel": 0}, {"type": "note_on", "time": 148, "note": 56, "velocity": 101, "channel": 0}, {"type": "note_off", "time": 1488, "note": 56, "velocity": 101, "channel": 0}, {"type": "end_of_track", "time": 0}]]}