{"ticks_per_beat": 192, "tracks": [[{"type": "track_name", "name": "Melody", "time": 0}, {"type": "set_tempo", "tempo": 355029, "time": 0}, {"type": "key_signature", "key": "D", "time": 0}, {"type": "time_signature", "numerator": 4, "denominator": 4, "clocks_per_click": 24, "notated_32nd_notes_per_beat": 8, "time": 0}, {"type": "note_on", "time": 2944, "note": 68, "velocity": 102, "channel": 0}, {"type": "note_off", "time": 92, "note": 68, "velocity": 102, "channel": 0}, {"type": "note_on", "time": 48, "note": 64, "velocity": 95, "channel": 0}, {"type": "note_off", "time": 238, "note": 64, "velocity": 95, "channel": 0}, {"type": "note_on", "time": 33, "note": 62, "velocity": 96, "channel": 0}, {"type": "note_off", "time": 81, "note": 62, "velocity": 96, "channel": 0}, {"type": "note_on", "time": 15, "note": 64, "velocity": 106, "channel": 0}, {"type": "note_off", "time": 104, "note": 64, "velocity": 106, "channel": 0}, {"type": "note_on", "time": 69, "note": 68, "velocity": 109, "channel": 0}, {"type": "note_off", "time": 57, "note": 68, "velocity": 109, "channel": 0}, {"type": "note_on", "time": 8, "note": 69, "velocity": 104, "channel": 0}, {"type": "note_off", "time": 105, "note": 69, "velocity": 104, "channel": 0}, {"type": "note_on", "time": 53, "note": 67, "velocity": 93, "channel": 0}, {"type": "note_off", "time": 209, "note": 67, "velocity": 93, "channel": 0}, {"type": "note_on", "time": 70, "note": 63, "velocity": 86, "channel": 0}, {"type": "note_off", "time": 109, "note": 63, "velocity": 86, "channel": 0}, {"type": "note_on", "time": 12, "note": 65, "velocity": 80, "channel": 0}, {"type": "note_off", "time": 198, "note": 65, "velocity": 80, "channel": 0}, {"type": "note_on", "time": 1100, "note": 65, "velocity": 115, "channel": 0}, {"type": "note_off", "time": 66, "note": 65, "velocity": 115, "channel": 0}, {"type": "note_on", "time": 12, "note": 68, "velocity": 90, "channel": 0}, {"type": "note_off", "time": 36, "note": 68, "velocity": 90, "channel": 0}, {"type": "note_on", "time": 21, "note": 72, "velocity": 92, "channel": 0}, {"type": "note_off", "time": 30, "note": 72, "velocity": 92, "channel": 0}, {"type": "note_on", "time": 24, "note": 74, "velocity": 121, "channel": 0}, {"type": "note_off", "time": 48, "note": 74, "velocity": 121, "channel": 0}, {"type": "note_on", "time": 26, "note": 75, "velocity": 127, "channel": 0}, {"type": "note_off", "time": 113, "note": 75, "velocity": 127, "channel": 0}, {"type": "note_on", "time": 19, "note": 76, "velocity": 101, "channel": 0}, {"type": "note_off", "time": 24, "note": 76, "velocity": 101, "channel": 0}, {"type": "note_on", "time": 19, "note": 77, "velocity": 125, "channel": 0}, {"type": "note_off", "time": 90, "note": 77, "velocity": 125, "channel": 0}, {"type": "note_on", "time": 27, "note": 77, "velocity": 99, "channel": 0}, {"type": "note_off", "time": 562, "note": 77, "velocity": 99, "channel": 0}, {"type": "note_on", "time": 17, "note": 78, "velocity": 111, "channel": 0}, {"type": "note_off", "time": 118, "note": 78, "velocity": 111, "channel": 0}, {"type": "note_on", "time": 20, "note": 77, "velocity": 117, "channel": 0}, {"type": "note_off", "time": 51, "note": 77, "velocity": 117, "channel": 0}, {"type": "note_on", "time": 18, "note": 75, "velocity": 121, "channel": 0}, {"type": "note_off", "time": 52, "note": 75, "velocity": 121, "channel": 0}, {"type": "note_on", "time": 6, "note": 76, "velocity": 117, "channel": 0}, {"type": "note_off", "time": 154, "note": 76, "velocity": 117, "channel": 0}, {"type": "note_on", "time": 23, "note": 74, "velocity": 113, "channel": 0}, {"type": "note_off", "time": 22, "note": 74, "velocity": 113, "channel": 0}, {"type": "note_on", "time": 14, "note": 73, "velocity": 108, "channel": 0}, {"type": "note_off", "time": 34, "note": 73, "velocity": 108, "channel": 0}, {"type": "note_on", "time": 20, "note": 71, "velocity": 105, "channel": 0}, {"type": "note_off", "time": 70, "note": 71, "velocity": 105, "channel": 0}, {"type": "note_on", "time": 2, "note": 73, "velocity": 103, "channel": 0}, {"type": "note_off", "time": 174, "note": 73, "velocity": 103, "channel": 0}, {"type": "note_on", "time": 29, "note": 69, "velocity": 99, "channel": 0}, {"type": "note_off", "time": 50, "note": 69, "velocity": 99, "channel": 0}, {"type": "note_on", "time": 5, "note": 67, "velocity": 90, "channel": 0}, {"type": "note_off", "time": 58, "note": 67, "velocity": 90, "channel": 0}, {"type": "note_on", "time": 12, "note": 65, "velocity": 89, "channel": 0}, {"type": "note_off", "time": 51, "note": 65, "velocity": 89, "channel": 0}, {"type": "note_on", "time": 3, "note": 64, "velocity": 92, "channel": 0}, {"type": "note_off", "time": 350, "note": 64, "velocity": 92, "channel": 0}, {"type": "note_on", "time": 9, "note": 63, "velocity": 97, "channel": 0}, {"type": "note_off", "time": 99, "note": 63, "velocity": 97, "channel": 0}, {"type": "note_on", "time": 33, "note": 58, "velocity": 90, "channel": 0}, {"type": "note_off", "time": 46, "note": 58, "velocity": 90, "channel": 0}, {"type": "note_on", "time": 20, "note": 62, "velocity": 98, "channel": 0}, {"type": "note_off", "time": 91, "note": 62, "velocity": 98, "channel": 0}, {"type": "note_on", "time": 38, "note": 57, "velocity": 86, "channel": 0}, {"type": "note_off", "time": 45, "note": 57, "velocity": 86, "channel": 0}, {"type": "note_on", "time": 9, "note": 61, "velocity": 95, "channel": 0}, {"type": "note_off", "time": 131, "note": 61, "velocity": 95, "channel": 0}, {"type": "note_on", "time": 3, "note": 62, "velocity": 90, "channel": 0}, {"type": "note_off", "time": 189, "note": 62, "velocity": 90, "channel": 0}, {"type": "note_on", "time": 75, "note": 74, "velocity": 100, "channel": 0}, {"type": "note_off", "time": 94, "note": 74, "velocity": 100, "channel": 0}, {"type": "note_on", "time": 45, "note": 70, "velocity": 93, "channel": 0}, {"type": "note_off", "time": 25, "note": 70, "velocity": 93, "channel": 0}, {"type": "note_on", "time": 18, "note": 72, "velocity": 99, "channel": 0}, {"type": "note_off", "time": 83, "note": 72, "velocity": 99, "channel": 0}, {"type": "note_on", "time": 44, "note": 69, "velocity": 97, "channel": 0}, {"type": "note_off", "time": 49, "note": 69, "velocity": 97, "channel": 0}, {"type": "note_on", "time": 332, "note": 69, "velocity": 85, "channel": 0}, {"type": "note_off", "time": 30, "note": 69, "velocity": 85, "channel": 0}, {"type": "note_on", "time": 38, "note": 74, "velocity": 121, "channel": 0}, {"type": "note_off", "time": 84, "note": 74, "velocity": 121, "channel": 0}, {"type": "note_on", "time": 22, "note": 74, "velocity": 113, "channel": 0}, {"type": "note_off", "time": 21, "note": 74, "velocity": 113, "channel": 0}, {"type": "note_on", "time": 7, "note": 74, "velocity": 121, "channel": 0}, {"type": "note_off", "time": 36, "note": 74, "velocity": 121, "channel": 0}, {"type": "note_on", "time": 20, "note": 74, "velocity": 118, "channel": 0}, {"type": "note_off", "time": 62, "note": 74, "velocity": 118, "channel": 0}, {"type": "note_on", "time": 12, "note": 74, "velocity": 101, "channel": 0}, {"type": "note_off", "time": 39, "note": 74, "velocity": 101, "channel": 0}, {"type": "note_on", "time": 13, "note": 74, "velocity": 108, "channel": 0}, {"type": "note_off", "time": 40, "note": 74, "velocity": 108, "channel": 0}, {"type": "note_on", "time": 17, "note": 74, "velocity": 119, "channel": 0}, {"type": "note_off", "time": 121, "note": 74, "velocity": 119, "channel": 0}, {"type": "note_on", "time": 8, "note": 62, "velocity": 94, "channel": 0}, {"type": "note_off", "time": 210, "note": 62, "velocity": 94, "channel": 0}, {"type": "note_on", "time": 9, "note": 64, "velocity": 89, "channel": 0}, {"type": "note_off", "time": 195, "note": 64, "velocity": 89, "channel": 0}, {"type": "note_on", "time": 342, "note": 64, "velocity": 113, "channel": 0}, {"type": "note_off", "time": 54, "note": 64, "velocity": 113, "channel": 0}, {"type": "note_on", "time": 13, "note": 62, "velocity": 94, "channel": 0}, {"type": "note_off", "time": 98, "note": 62, "velocity": 94, "channel": 0}, {"type": "note_on", "time": 14, "note": 64, "velocity": 115, "channel": 0}, {"type": "note_off", "time": 67, "note": 64, "velocity": 115, "channel": 0}, {"type": "note_on", "time": 2, "note": 67, "velocity": 116, "channel": 0}, {"type": "note_off", "time": 98, "note": 67, "velocity": 116, "channel": 0}, {"type": "note_on", "time": 18, "note": 69, "velocity": 114, "channel": 0}, {"type": "note_off", "time": 60, "note": 69, "velocity": 114, "channel": 0}, {"type": "note_on", "time": 8, "note": 70, "velocity": 115, "channel": 0}, {"type": "note_off", "time": 108, "note": 70, "velocity": 115, "channel": 0}, {"type": "note_on", "time": 10, "note": 74, "velocity": 121, "channel": 0}, {"type": "note_off", "time": 410, "note": 74, "velocity": 121, "channel": 0}, {"type": "note_on", "time": 6, "note": 73, "velocity": 106, "channel": 0}, {"type": "note_off", "time": 49, "note": 73, "velocity": 106, "channel": 0}, {"type": "note_on", "time": 558, "note": 66, "velocity": 108, "channel": 0}, {"type": "note_off", "time": 22, "note": 66, "velocity": 108, "channel": 0}, {"type": "note_on", "time": 8, "note": 62, "velocity": 98, "channel": 0}, {"type": "note_off", "time": 131, "note": 62, "velocity": 98, "channel": 0}, {"type": "note_on", "time": 10, "note": 64, "velocity": 109, "channel": 0}, {"type": "note_off", "time": 120, "note": 64, "velocity": 109, "channel": 0}, {"type": "note_on", "time": 27, "note": 62, "velocity": 100, "channel": 0}, {"type": "note_off", "time": 141, "note": 62, "velocity": 100, "channel": 0}, {"type": "note_on", "time": 0, "note": 64, "velocity": 111, "channel": 0}, {"type": "note_off", "time": 98, "note": 64, "velocity": 111, "channel": 0}, {"type": "note_on", "time": 15, "note": 64, "velocity": 110, "channel": 0}, {"type": "note_off", "time": 23, "note": 64, "velocity": 110, "channel": 0}, {"type": "note_on", "time": 3, "note": 65, "velocity": 112, "channel": 0}, {"type": "note_off", "time": 339, "note": 65, "velocity": 112, "channel": 0}, {"type": "note_on", "time": 7, "note": 64, "velocity": 105, "channel": 0}, {"type": "note_off", "time": 89, "note": 64, "velocity": 105, "channel": 0}, {"type": "note_on", "time": 58, "note": 62, "velocity": 102, "channel": 0}, {"type": "note_off", "time": 35, "note": 62, "velocity": 102, "channel": 0}, {"type": "note_on", "time": 20, "note": 65, "velocity": 103, "channel": 0}, {"type": "note_off", "time": 113, "note": 65, "velocity": 103, "channel": 0}, {"type": "note_on", "time": 9, "note": 66, "velocity": 108, "channel": 0}, {"type": "note_off", "time": 267, "note": 66, "velocity": 108, "channel": 0}, {"type": "note_on", "time": 283, "note": 63, "velocity": 97, "channel": 0}, {"type": "note_off", "time": 35, "note": 63, "velocity": 97, "channel": 0}, {"type": "note_on", "time": 13, "note": 66, "velocity": 115, "channel": 0}, {"type": "note_off", "time": 105, "note": 66, "velocity": 115, "channel": 0}, {"type": "note_on", "time": 13, "note": 67, "velocity": 118, "channel": 0}, {"type": "note_off", "time": 46, "note": 67, "velocity": 118, "channel": 0}, {"type": "note_on", "time": 2, "note": 68, "velocity": 106, "channel": 0}, {"type": "note_off", "time": 1331, "note": 68, "velocity": 106, "channel": 0}, {"type": "note_on", "time": 9, "note": 66, "velocity": 88, "channel": 0}, {"type": "note_off", "time": 25, "note": 66, "velocity": 88, "channel": 0}, {"type": "note_on", "time": 10, "note": 64, "velocity": 101, "channel": 0}, {"type": "note_off", "time": 35, "note": 64, "velocity": 101, "channel": 0}, {"type": "note_on", "time": 27, "note": 68, "velocity": 111, "channel": 0}, {"type": "note_off", "time": 111, "note": 68, "velocity": 111, "channel": 0}, {"type": "note_on", "time": 9, "note": 69, "velocity": 112, "channel": 0}, {"type": "note_off", "time": 265, "note": 69, "velocity": 112, "channel": 0}, {"type": "note_on", "time": 13, "note": 67, "velocity": 93, "channel": 0}, {"type": "note_off", "time": 37, "note": 67, "velocity": 93, "channel": 0}, {"type": "note_on", "time": 655, "note": 65, "velocity": 110, "channel": 0}, {"type": "note_off", "time": 51, "note": 65, "velocity": 110, "channel": 0}, {"type": "note_on", "time": 9, "note": 63, "velocity": 103, "channel": 0}, {"type": "note_off", "time": 60, "note": 63, "velocity": 103, "channel": 0}, {"type": "note_on", "time": 39, "note": 62, "velocity": 93, "channel": 0}, {"type": "note_off", "time": 58, "note": 62, "velocity": 93, "channel": 0}, {"type": "note_on", "time": 66, "note": 63, "velocity": 108, "channel": 0}, {"type": "note_off", "time": 46, "note": 63, "velocity": 108, "channel": 0}, {"type": "note_on", "time": 27, "note": 65, "velocity": 108, "channel": 0}, {"type": "note_off", "time": 126, "note": 65, "velocity": 108, "channel": 0}, {"type": "note_on", "time": 9, "note": 67, "velocity": 114, "channel": 0}, {"type": "note_off", "time": 55, "note": 67, "velocity": 114, "channel": 0}, {"type": "note_on", "time": 13, "note": 69, "velocity": 115, "channel": 0}, {"type": "note_off", "time": 35, "note": 69, "velocity": 115, "channel": 0}, {"type": "note_on", "time": 13, "note": 70, "velocity": 117, "channel": 0}, {"type": "note_off", "time": 32, "note": 70, "velocity": 117, "channel": 0}, {"type": "note_on", "time": 13, "note": 72, "velocity": 118, "channel": 0}, {"type": "note_off", "time": 25, "note": 72, "velocity": 118, "channel": 0}, {"type": "note_on", "time": 18, "note": 74, "velocity": 119, "channel": 0}, {"type": "note_off", "time": 56, "note": 74, "velocity": 119, "channel": 0}, {"type": "note_on", "time": 13, "note": 72, "velocity": 117, "channel": 0}, {"type": "note_off", "time": 408, "note": 72, "velocity": 117, "channel": 0}, {"type": "note_on", "time": 14, "note": 70, "velocity": 111, "channel": 0}, {"type": "note_off", "time": 57, "note": 70, "velocity": 111, "channel": 0}, {"type": "note_on", "time": 16, "note": 69, "velocity": 110, "channel": 0}, {"type": "note_off", "time": 64, "note": 69, "velocity": 110, "channel": 0}, {"type": "note_on", "time": 12, "note": 70, "velocity": 104, "channel": 0}, {"type": "note_off", "time": 34, "note": 70, "velocity": 104, "channel": 0}, {"type": "note_on", "time": 4, "note": 69, "velocity": 107, "channel": 0}, {"type": "note_off", "time": 42, "note": 69, "velocity": 107, "channel": 0}, {"type": "note_on", "time": 9, "note": 67, "velocity": 104, "channel": 0}, {"type": "note_off", "time": 72, "note": 67, "velocity": 104, "channel": 0}, {"type": "note_on", "time": 4, "note": 65, "velocity": 97, "channel": 0}, {"type": "note_off", "time": 215, "note": 65, "velocity": 97, "channel": 0}, {"type": "note_on", "time": 359, "note": 69, "velocity": 94, "channel": 0}, {"type": "note_off", "time": 33, "note": 69, "velocity": 94, "channel": 0}, {"type": "note_on", "time": 48, "note": 74, "velocity": 125, "channel": 0}, {"type": "note_off", "time": 132, "note": 74, "velocity": 125, "channel": 0}, {"type": "note_on", "time": 11, "note": 73, "velocity": 116, "channel": 0}, {"type": "note_off", "time": 45, "note": 73, "velocity": 116, "channel": 0}, {"type": "note_on", "time": 17, "note": 74, "velocity": 122, "channel": 0}, {"type": "note_off", "time": 921, "note": 74, "velocity": 122, "channel": 0}, {"type": "time_signature", "numerator": 5, "denominator": 4, "clocks_per_click": 24, "notated_32nd_notes_per_beat": 8, "time": 14}, {"type": "note_on", "time": 0, "note": 72, "velocity": 111, "channel": 0}, {"type": "note_off", "time": 22, "note": 72, "velocity": 111, "channel": 0}, {"type": "note_on", "time": 24, "note": 74, "velocity": 120, "channel": 0}, {"type": "note_off", "time": 89, "note": 74, "velocity": 120, "channel": 0}, {"type": "note_on", "time": 9, "note": 77, "velocity": 122, "channel": 0}, {"type": "note_off", "time": 68, "note": 77, "velocity": 122, "channel": 0}, {"type": "note_on", "time": 25, "note": 75, "velocity": 125, "channel": 0}, {"type": "note_off", "time": 76, "note": 75, "velocity": 125, "channel": 0}, {"type": "note_on", "time": 25, "note": 74, "velocity": 123, "channel": 0}, {"type": "note_off", "time": 568, "note": 74, "velocity": 123, "channel": 0}, {"type": "time_signature", "numerator": 4, "denominator": 4, "clocks_per_click": 24, "notated_32nd_notes_per_beat": 8, "time": 14}, {"type": "note_on", "time": 0, "note": 72, "velocity": 118, "channel": 0}, {"type": "note_off", "time": 45, "note": 72, "velocity": 118, "channel": 0}, {"type": "note_on", "time": 20, "note": 70, "velocity": 116, "channel": 0}, {"type": "note_off", "time": 121, "note": 70, "velocity": 116, "channel": 0}, {"type": "note_on", "time": 5, "note": 69, "velocity": 116, "channel": 0}, {"type": "note_off", "time": 390, "note": 69, "velocity": 116, "channel": 0}, {"type": "note_on", "time": 252, "note": 69, "velocity": 116, "channel": 0}, {"type": "note_off", "time": 58, "note": 69, "velocity": 116, "channel": 0}, {"type": "note_on", "time": 9, "note": 70, "velocity": 120, "channel": 0}, {"type": "note_off", "time": 95, "note": 70, "velocity": 120, "channel": 0}, {"type": "note_on", "time": 12, "note": 73, "velocity": 123, "channel": 0}, {"type": "note_off", "time": 335, "note": 73, "velocity": 123, "channel": 0}, {"type": "note_on", "time": 23, "note": 73, "velocity": 120, "channel": 0}, {"type": "note_off", "time": 461, "note": 73, "velocity": 120, "channel": 0}, {"type": "note_on", "time": 392, "note": 76, "velocity": 125, "channel": 0}, {"type": "note_off", "time": 271, "note": 76, "velocity": 125, "channel": 0}, {"type": "note_on", "time": 31, "note": 74, "velocity": 123, "channel": 0}, {"type": "note_off", "time": 67, "note": 74, "velocity": 123, "channel": 0}, {"type": "note_on", "time": 32, "note": 66, "velocity": 112, "channel": 0}, {"type": "note_off", "time": 37, "note": 66, "velocity": 112, "channel": 0}, {"type": "note_on", "time": 31, "note": 69, "velocity": 115, "channel": 0}, {"type": "note_off", "time": 634, "note": 69, "velocity": 115, "channel": 0}, {"type": "note_on", "time": 65, "note": 78, "velocity": 122, "channel": 0}, {"type": "note_off", "time": 534, "note": 78, "velocity": 122, "channel": 0}, {"type": "note_on", "time": 61, "note": 76, "velocity": 110, "channel": 0}, {"type": "note_off", "time": 81, "note": 76, "velocity": 110, "channel": 0}, {"type": "note_on", "time": 59, "note": 69, "velocity": 104, "channel": 0}, {"type": "note_off", "time": 111, "note": 69, "velocity": 104, "channel": 0}, {"type": "note_on", "time": 10, "note": 69, "velocity": 93, "channel": 0}, {"type": "note_off", "time": 802, "note": 69, "velocity": 93, "channel": 0}, {"type": "end_of_track", "time": 0}]]}