{"ticks_per_beat": 192, "tracks": [[{"type": "track_name", "name": "Melody", "time": 0}, {"type": "set_tempo", "tempo": 447761, "time": 0}, {"type": "key_signature", "key": "C", "time": 0}, {"type": "time_signature", "numerator": 4, "denominator": 4, "clocks_per_click": 24, "notated_32nd_notes_per_beat": 8, "time": 0}, {"type": "note_on", "time": 2591, "note": 59, "velocity": 91, "channel": 0}, {"type": "note_off", "time": 123, "note": 59, "velocity": 91, "channel": 0}, {"type": "note_on", "time": 16, "note": 60, "velocity": 94, "channel": 0}, {"type": "note_off", "time": 33, "note": 60, "velocity": 94, "channel": 0}, {"type": "note_on", "time": 10, "note": 62, "velocity": 90, "channel": 0}, {"type": "note_off", "time": 17, "note": 62, "velocity": 90, "channel": 0}, {"type": "note_on", "time": 20, "note": 64, "velocity": 106, "channel": 0}, {"type": "note_off", "time": 92, "note": 64, "velocity": 106, "channel": 0}, {"type": "note_on", "time": 12, "note": 67, "velocity": 116, "channel": 0}, {"type": "note_off", "time": 78, "note": 67, "velocity": 116, "channel": 0}, {"type": "note_on", "time": 12, "note": 68, "velocity": 118, "channel": 0}, {"type": "note_off", "time": 88, "note": 68, "velocity": 118, "channel": 0}, {"type": "note_on", "time": 15, "note": 69, "velocity": 113, "channel": 0}, {"type": "note_off", "time": 71, "note": 69, "velocity": 113, "channel": 0}, {"type": "note_on", "time": 14, "note": 74, "velocity": 118, "channel": 0}, {"type": "note_off", "time": 154, "note": 74, "velocity": 118, "channel": 0}, {"type": "note_on", "time": 18, "note": 67, "velocity": 93, "channel": 0}, {"type": "note_off", "time": 360, "note": 67, "velocity": 93, "channel": 0}, {"type": "note_on", "time": 974, "note": 59, "velocity": 77, "channel": 0}, {"type": "note_off", "time": 95, "note": 59, "velocity": 77, "channel": 0}, {"type": "note_on", "time": 16, "note": 60, "velocity": 93, "channel": 0}, {"type": "note_off", "time": 39, "note": 60, "velocity": 93, "channel": 0}, {"type": "note_on", "time": 9, "note": 62, "velocity": 87, "channel": 0}, {"type": "note_off", "time": 22, "note": 62, "velocity": 87, "channel": 0}, {"type": "note_on", "time": 11, "note": 64, "velocity": 99, "channel": 0}, {"type": "note_off", "time": 85, "note": 64, "velocity": 99, "channel": 0}, {"type": "note_on", "time": 17, "note": 67, "velocity": 104, "channel": 0}, {"type": "note_off", "time": 63, "note": 67, "velocity": 104, "channel": 0}, {"type": "note_on", "time": 9, "note": 70, "velocity": 105, "channel": 0}, {"type": "note_off", "time": 90, "note": 70, "velocity": 105, "channel": 0}, {"type": "note_on", "time": 6, "note": 72, "velocity": 117, "channel": 0}, {"type": "note_off", "time": 74, "note": 72, "velocity": 117, "channel": 0}, {"type": "note_on", "time": 13, "note": 73, "velocity": 116, "channel": 0}, {"type": "note_off", "time": 98, "note": 73, "velocity": 116, "channel": 0}, {"type": "note_on", "time": 13, "note": 75, "velocity": 115, "channel": 0}, {"type": "note_off", "time": 80, "note": 75, "velocity": 115, "channel": 0}, {"type": "note_on", "time": 18, "note": 76, "velocity": 103, "channel": 0}, {"type": "note_off", "time": 146, "note": 76, "velocity": 103, "channel": 0}, {"type": "note_on", "time": 18, "note": 68, "velocity": 91, "channel": 0}, {"type": "note_off", "time": 252, "note": 68, "velocity": 91, "channel": 0}, {"type": "note_on", "time": 699, "note": 65, "velocity": 94, "channel": 0}, {"type": "note_off", "time": 89, "note": 65, "velocity": 94, "channel": 0}, {"type": "note_on", "time": 17, "note": 68, "velocity": 108, "channel": 0}, {"type": "note_off", "time": 65, "note": 68, "velocity": 108, "channel": 0}, {"type": "note_on", "time": 13, "note": 69, "velocity": 108, "channel": 0}, {"type": "note_off", "time": 77, "note": 69, "velocity": 108, "channel": 0}, {"type": "note_on", "time": 35, "note": 72, "velocity": 108, "channel": 0}, {"type": "note_off", "time": 80, "note": 72, "velocity": 108, "channel": 0}, {"type": "note_on", "time": 49, "note": 74, "velocity": 107, "channel": 0}, {"type": "note_off", "time": 133, "note": 74, "velocity": 107, "channel": 0}, {"type": "note_on", "time": 26, "note": 63, "velocity": 96, "channel": 0}, {"type": "note_off", "time": 160, "note": 63, "velocity": 96, "channel": 0}, {"type": "note_on", "time": 13, "note": 62, "velocity": 86, "channel": 0}, {"type": "note_off", "time": 136, "note": 62, "velocity": 86, "channel": 0}, {"type": "note_on", "time": 55, "note": 70, "velocity": 95, "channel": 0}, {"type": "note_off", "time": 150, "note": 70, "velocity": 95, "channel": 0}, {"type": "note_on", "time": 895, "note": 60, "velocity": 91, "channel": 0}, {"type": "note_off", "time": 30, "note": 60, "velocity": 91, "channel": 0}, {"type": "note_on", "time": 22, "note": 64, "velocity": 94, "channel": 0}, {"type": "note_off", "time": 43, "note": 64, "velocity": 94, "channel": 0}, {"type": "note_on", "time": 11, "note": 67, "velocity": 106, "channel": 0}, {"type": "note_off", "time": 42, "note": 67, "velocity": 106, "channel": 0}, {"type": "note_on", "time": 11, "note": 71, "velocity": 116, "channel": 0}, {"type": "note_off", "time": 30, "note": 71, "velocity": 116, "channel": 0}, {"type": "note_on", "time": 35, "note": 74, "velocity": 108, "channel": 0}, {"type": "note_off", "time": 54, "note": 74, "velocity": 108, "channel": 0}, {"type": "note_on", "time": 6, "note": 78, "velocity": 124, "channel": 0}, {"type": "note_off", "time": 49, "note": 78, "velocity": 124, "channel": 0}, {"type": "note_on", "time": 12, "note": 74, "velocity": 121, "channel": 0}, {"type": "note_off", "time": 49, "note": 74, "velocity": 121, "channel": 0}, {"type": "note_on", "time": 5, "note": 78, "velocity": 122, "channel": 0}, {"type": "note_off", "time": 58, "note": 78, "velocity": 122, "channel": 0}, {"type": "note_on", "time": 8, "note": 74, "velocity": 117, "channel": 0}, {"type": "note_off", "time": 57, "note": 74, "velocity": 117, "channel": 0}, {"type": "note_on", "time": 5, "note": 71, "velocity": 111, "channel": 0}, {"type": "note_off", "time": 62, "note": 71, "velocity": 111, "channel": 0}, {"type": "note_on", "time": 17, "note": 73, "velocity": 98, "channel": 0}, {"type": "note_off", "time": 267, "note": 73, "velocity": 98, "channel": 0}, {"type": "note_on", "time": 385, "note": 70, "velocity": 104, "channel": 0}, {"type": "note_off", "time": 45, "note": 70, "velocity": 104, "channel": 0}, {"type": "note_on", "time": 6, "note": 67, "velocity": 99, "channel": 0}, {"type": "note_off", "time": 52, "note": 67, "velocity": 99, "channel": 0}, {"type": "note_on", "time": 11, "note": 69, "velocity": 93, "channel": 0}, {"type": "note_off", "time": 152, "note": 69, "velocity": 93, "channel": 0}, {"type": "note_on", "time": 919, "note": 67, "velocity": 103, "channel": 0}, {"type": "note_off", "time": 75, "note": 67, "velocity": 103, "channel": 0}, {"type": "note_on", "time": 16, "note": 69, "velocity": 108, "channel": 0}, {"type": "note_off", "time": 82, "note": 69, "velocity": 108, "channel": 0}, {"type": "note_on", "time": 13, "note": 73, "velocity": 118, "channel": 0}, {"type": "note_off", "time": 77, "note": 73, "velocity": 118, "channel": 0}, {"type": "note_on", "time": 10, "note": 69, "velocity": 108, "channel": 0}, {"type": "note_off", "time": 90, "note": 69, "velocity": 108, "channel": 0}, {"type": "note_on", "time": 7, "note": 67, "velocity": 103, "channel": 0}, {"type": "note_off", "time": 74, "note": 67, "velocity": 103, "channel": 0}, {"type": "note_on", "time": 12, "note": 64, "velocity": 95, "channel": 0}, {"type": "note_off", "time": 162, "note": 64, "velocity": 95, "channel": 0}, {"type": "note_on", "time": 21, "note": 64, "velocity": 98, "channel": 0}, {"type": "note_off", "time": 110, "note": 64, "velocity": 98, "channel": 0}, {"type": "note_on", "time": 11, "note": 62, "velocity": 97, "channel": 0}, {"type": "note_off", "time": 63, "note": 62, "velocity": 97, "channel": 0}, {"type": "note_on", "time": 35, "note": 66, "velocity": 100, "channel": 0}, {"type": "note_off", "time": 84, "note": 66, "velocity": 100, "channel": 0}, {"type": "note_on", "time": 12, "note": 70, "velocity": 114, "channel": 0}, {"type": "note_off", "time": 69, "note": 70, "velocity": 114, "channel": 0}, {"type": "note_on", "time": 8, "note": 73, "velocity": 120, "channel": 0}, {"type": "note_off", "time": 89, "note": 73, "velocity": 120, "channel": 0}, {"type": "note_on", "time": 14, "note": 78, "velocity": 125, "channel": 0}, {"type": "note_off", "time": 84, "note": 78, "velocity": 125, "channel": 0}, {"type": "note_on", "time": 21, "note": 77, "velocity": 124, "channel": 0}, {"type": "note_off", "time": 146, "note": 77, "velocity": 124, "channel": 0}, {"type": "note_on", "time": 28, "note": 72, "velocity": 107, "channel": 0}, {"type": "note_off", "time": 76, "note": 72, "velocity": 107, "channel": 0}, {"type": "note_on", "time": 4, "note": 73, "velocity": 104, "channel": 0}, {"type": "note_off", "time": 37, "note": 73, "velocity": 104, "channel": 0}, {"type": "note_on", "time": 4, "note": 74, "velocity": 113, "channel": 0}, {"type": "note_off", "time": 46, "note": 74, "velocity": 113, "channel": 0}, {"type": "note_on", "time": 40, "note": 72, "velocity": 104, "channel": 0}, {"type": "note_off", "time": 75, "note": 72, "velocity": 104, "channel": 0}, {"type": "note_on", "time": 22, "note": 69, "velocity": 105, "channel": 0}, {"type": "note_off", "time": 51, "note": 69, "velocity": 105, "channel": 0}, {"type": "note_on", "time": 23, "note": 65, "velocity": 99, "channel": 0}, {"type": "note_off", "time": 64, "note": 65, "velocity": 99, "channel": 0}, {"type": "note_on", "time": 5, "note": 64, "velocity": 97, "channel": 0}, {"type": "note_off", "time": 49, "note": 64, "velocity": 97, "channel": 0}, {"type": "note_on", "time": 5, "note": 63, "velocity": 97, "channel": 0}, {"type": "note_off", "time": 62, "note": 63, "velocity": 97, "channel": 0}, {"type": "note_on", "time": 6, "note": 62, "velocity": 85, "channel": 0}, {"type": "note_off", "time": 143, "note": 62, "velocity": 85, "channel": 0}, {"type": "note_on", "time": 315, "note": 70, "velocity": 110, "channel": 0}, {"type": "note_off", "time": 100, "note": 70, "velocity": 110, "channel": 0}, {"type": "note_on", "time": 41, "note": 61, "velocity": 97, "channel": 0}, {"type": "note_off", "time": 64, "note": 61, "velocity": 97, "channel": 0}, {"type": "note_on", "time": 21, "note": 70, "velocity": 99, "channel": 0}, {"type": "note_off", "time": 63, "note": 70, "velocity": 99, "channel": 0}, {"type": "note_on", "time": 21, "note": 58, "velocity": 82, "channel": 0}, {"type": "note_off", "time": 34, "note": 58, "velocity": 82, "channel": 0}, {"type": "note_on", "time": 19, "note": 60, "velocity": 84, "channel": 0}, {"type": "note_off", "time": 243, "note": 60, "velocity": 84, "channel": 0}, {"type": "note_on", "time": 1076, "note": 77, "velocity": 124, "channel": 0}, {"type": "note_off", "time": 84, "note": 77, "velocity": 124, "channel": 0}, {"type": "note_on", "time": 19, "note": 72, "velocity": 115, "channel": 0}, {"type": "note_off", "time": 86, "note": 72, "velocity": 115, "channel": 0}, {"type": "note_on", "time": 15, "note": 77, "velocity": 122, "channel": 0}, {"type": "note_off", "time": 64, "note": 77, "velocity": 122, "channel": 0}, {"type": "note_on", "time": 22, "note": 68, "velocity": 111, "channel": 0}, {"type": "note_off", "time": 82, "note": 68, "velocity": 111, "channel": 0}, {"type": "note_on", "time": 32, "note": 65, "velocity": 101, "channel": 0}, {"type": "note_off", "time": 43, "note": 65, "velocity": 101, "channel": 0}, {"type": "note_on", "time": 22, "note": 60, "velocity": 90, "channel": 0}, {"type": "note_off", "time": 74, "note": 60, "velocity": 90, "channel": 0}, {"type": "note_on", "time": 22, "note": 70, "velocity": 103, "channel": 0}, {"type": "note_off", "time": 65, "note": 70, "velocity": 103, "channel": 0}, {"type": "note_on", "time": 44, "note": 65, "velocity": 79, "channel": 0}, {"type": "note_off", "time": 39, "note": 65, "velocity": 79, "channel": 0}, {"type": "note_on", "time": 7, "note": 58, "velocity": 86, "channel": 0}, {"type": "note_off", "time": 42, "note": 58, "velocity": 86, "channel": 0}, {"type": "note_on", "time": 3, "note": 56, "velocity": 87, "channel": 0}, {"type": "note_off", "time": 35, "note": 56, "velocity": 87, "channel": 0}, {"type": "note_on", "time": 12, "note": 55, "velocity": 88, "channel": 0}, {"type": "note_off", "time": 37, "note": 55, "velocity": 88, "channel": 0}, {"type": "note_on", "time": 25, "note": 62, "velocity": 93, "channel": 0}, {"type": "note_off", "time": 111, "note": 62, "velocity": 93, "channel": 0}, {"type": "note_on", "time": 8, "note": 64, "velocity": 95, "channel": 0}, {"type": "note_off", "time": 122, "note": 64, "velocity": 95, "channel": 0}, {"type": "note_on", "time": 32, "note": 67, "velocity": 87, "channel": 0}, {"type": "note_off", "time": 190, "note": 67, "velocity": 87, "channel": 0}, {"type": "note_on", "time": 899, "note": 60, "velocity": 89, "channel": 0}, {"type": "note_off", "time": 33, "note": 60, "velocity": 89, "channel": 0}, {"type": "note_on", "time": 7, "note": 62, "velocity": 97, "channel": 0}, {"type": "note_off", "time": 46, "note": 62, "velocity": 97, "channel": 0}, {"type": "note_on", "time": 18, "note": 64, "velocity": 104, "channel": 0}, {"type": "note_off", "time": 108, "note": 64, "velocity": 104, "channel": 0}, {"type": "note_on", "time": 14, "note": 65, "velocity": 115, "channel": 0}, {"type": "note_off", "time": 64, "note": 65, "velocity": 115, "channel": 0}, {"type": "note_on", "time": 11, "note": 67, "velocity": 116, "channel": 0}, {"type": "note_off", "time": 79, "note": 67, "velocity": 116, "channel": 0}, {"type": "note_on", "time": 11, "note": 69, "velocity": 119, "channel": 0}, {"type": "note_off", "time": 72, "note": 69, "velocity": 119, "channel": 0}, {"type": "note_on", "time": 8, "note": 70, "velocity": 120, "channel": 0}, {"type": "note_off", "time": 83, "note": 70, "velocity": 120, "channel": 0}, {"type": "note_on", "time": 11, "note": 72, "velocity": 120, "channel": 0}, {"type": "note_off", "time": 79, "note": 72, "velocity": 120, "channel": 0}, {"type": "note_on", "time": 13, "note": 73, "velocity": 124, "channel": 0}, {"type": "note_off", "time": 81, "note": 73, "velocity": 124, "channel": 0}, {"type": "note_on", "time": 13, "note": 75, "velocity": 124, "channel": 0}, {"type": "note_off", "time": 54, "note": 75, "velocity": 124, "channel": 0}, {"type": "note_on", "time": 3, "note": 77, "velocity": 122, "channel": 0}, {"type": "note_off", "time": 50, "note": 77, "velocity": 122, "channel": 0}, {"type": "note_on", "time": 5, "note": 78, "velocity": 124, "channel": 0}, {"type": "note_off", "time": 81, "note": 78, "velocity": 124, "channel": 0}, {"type": "note_on", "time": 196, "note": 77, "velocity": 122, "channel": 0}, {"type": "note_off", "time": 49, "note": 77, "velocity": 122, "channel": 0}, {"type": "note_on", "time": 5, "note": 75, "velocity": 119, "channel": 0}, {"type": "note_off", "time": 48, "note": 75, "velocity": 119, "channel": 0}, {"type": "note_on", "time": 8, "note": 73, "velocity": 111, "channel": 0}, {"type": "note_off", "time": 81, "note": 73, "velocity": 111, "channel": 0}, {"type": "note_on", "time": 188, "note": 71, "velocity": 111, "channel": 0}, {"type": "note_off", "time": 34, "note": 71, "velocity": 111, "channel": 0}, {"type": "note_on", "time": 4, "note": 70, "velocity": 106, "channel": 0}, {"type": "note_off", "time": 59, "note": 70, "velocity": 106, "channel": 0}, {"type": "note_on", "time": 14, "note": 68, "velocity": 102, "channel": 0}, {"type": "note_off", "time": 103, "note": 68, "velocity": 102, "channel": 0}, {"type": "note_on", "time": 33, "note": 70, "velocity": 101, "channel": 0}, {"type": "note_off", "time": 50, "note": 70, "velocity": 101, "channel": 0}, {"type": "note_on", "time": 10, "note": 67, "velocity": 92, "channel": 0}, {"type": "note_off", "time": 139, "note": 67, "velocity": 92, "channel": 0}, {"type": "note_on", "time": 125, "note": 70, "velocity": 114, "channel": 0}, {"type": "note_off", "time": 78, "note": 70, "velocity": 114, "channel": 0}, {"type": "note_on", "time": 57, "note": 67, "velocity": 106, "channel": 0}, {"type": "note_off", "time": 41, "note": 67, "velocity": 106, "channel": 0}, {"type": "note_on", "time": 4, "note": 70, "velocity": 100, "channel": 0}, {"type": "note_off", "time": 27, "note": 70, "velocity": 100, "channel": 0}, {"type": "note_on", "time": 8, "note": 66, "velocity": 110, "channel": 0}, {"type": "note_off", "time": 99, "note": 66, "velocity": 110, "channel": 0}, {"type": "note_on", "time": 66, "note": 70, "velocity": 107, "channel": 0}, {"type": "note_off", "time": 38, "note": 70, "velocity": 107, "channel": 0}, {"type": "note_on", "time": 8, "note": 68, "velocity": 106, "channel": 0}, {"type": "note_off", "time": 101, "note": 68, "velocity": 106, "channel": 0}, {"type": "note_on", "time": 28, "note": 70, "velocity": 104, "channel": 0}, {"type": "note_off", "time": 34, "note": 70, "velocity": 104, "channel": 0}, {"type": "note_on", "time": 7, "note": 66, "velocity": 102, "channel": 0}, {"type": "note_off", "time": 95, "note": 66, "velocity": 102, "channel": 0}, {"type": "note_on", "time": 23, "note": 70, "velocity": 104, "channel": 0}, {"type": "note_off", "time": 87, "note": 70, "velocity": 104, "channel": 0}, {"type": "note_on", "time": 44, "note": 68, "velocity": 103, "channel": 0}, {"type": "note_off", "time": 59, "note": 68, "velocity": 103, "channel": 0}, {"type": "note_on", "time": 6, "note": 70, "velocity": 99, "channel": 0}, {"type": "note_off", "time": 41, "note": 70, "velocity": 99, "channel": 0}, {"type": "note_on", "time": 72, "note": 67, "velocity": 99, "channel": 0}, {"type": "note_off", "time": 90, "note": 67, "velocity": 99, "channel": 0}, {"type": "note_on", "time": 23, "note": 70, "velocity": 108, "channel": 0}, {"type": "note_off", "time": 72, "note": 70, "velocity": 108, "channel": 0}, {"type": "note_on", "time": 20, "note": 67, "velocity": 102, "channel": 0}, {"type": "note_off", "time": 59, "note": 67, "velocity": 102, "channel": 0}, {"type": "note_on", "time": 26, "note": 70, "velocity": 115, "channel": 0}, {"type": "note_off", "time": 42, "note": 70, "velocity": 115, "channel": 0}, {"type": "note_on", "time": 14, "note": 69, "velocity": 104, "channel": 0}, {"type": "note_off", "time": 84, "note": 69, "velocity": 104, "channel": 0}, {"type": "note_on", "time": 12, "note": 70, "velocity": 112, "channel": 0}, {"type": "note_off", "time": 35, "note": 70, "velocity": 112, "channel": 0}, {"type": "note_on", "time": 13, "note": 68, "velocity": 108, "channel": 0}, {"type": "note_off", "time": 69, "note": 68, "velocity": 108, "channel": 0}, {"type": "note_on", "time": 19, "note": 70, "velocity": 111, "channel": 0}, {"type": "note_off", "time": 39, "note": 70, "velocity": 111, "channel": 0}, {"type": "note_on", "time": 13, "note": 67, "velocity": 98, "channel": 0}, {"type": "note_off", "time": 59, "note": 67, "velocity": 98, "channel": 0}, {"type": "note_on", "time": 17, "note": 70, "velocity": 111, "channel": 0}, {"type": "note_off", "time": 41, "note": 70, "velocity": 111, "channel": 0}, {"type": "note_on", "time": 11, "note": 67, "velocity": 107, "channel": 0}, {"type": "note_off", "time": 75, "note": 67, "velocity": 107, "channel": 0}, {"type": "note_on", "time": 34, "note": 70, "velocity": 113, "channel": 0}, {"type": "note_off", "time": 36, "note": 70, "velocity": 113, "channel": 0}, {"type": "note_on", "time": 11, "note": 69, "velocity": 108, "channel": 0}, {"type": "note_off", "time": 104, "note": 69, "velocity": 108, "channel": 0}, {"type": "note_on", "time": 16, "note": 70, "velocity": 112, "channel": 0}, {"type": "note_off", "time": 34, "note": 70, "velocity": 112, "channel": 0}, {"type": "note_on", "time": 8, "note": 68, "velocity": 110, "channel": 0}, {"type": "note_off", "time": 74, "note": 68, "velocity": 110, "channel": 0}, {"type": "note_on", "time": 8, "note": 70, "velocity": 111, "channel": 0}, {"type": "note_off", "time": 25, "note": 70, "velocity": 111, "channel": 0}, {"type": "note_on", "time": 9, "note": 67, "velocity": 104, "channel": 0}, {"type": "note_off", "time": 56, "note": 67, "velocity": 104, "channel": 0}, {"type": "note_on", "time": 18, "note": 70, "velocity": 111, "channel": 0}, {"type": "note_off", "time": 29, "note": 70, "velocity": 111, "channel": 0}, {"type": "note_on", "time": 6, "note": 69, "velocity": 108, "channel": 0}, {"type": "note_off", "time": 67, "note": 69, "velocity": 108, "channel": 0}, {"type": "note_on", "time": 10, "note": 70, "velocity": 109, "channel": 0}, {"type": "note_off", "time": 21, "note": 70, "velocity": 109, "channel": 0}, {"type": "note_on", "time": 6, "note": 68, "velocity": 114, "channel": 0}, {"type": "note_off", "time": 77, "note": 68, "velocity": 114, "channel": 0}, {"type": "note_on", "time": 15, "note": 69, "velocity": 109, "channel": 0}, {"type": "note_off", "time": 18, "note": 69, "velocity": 109, "channel": 0}, {"type": "note_on", "time": 10, "note": 67, "velocity": 105, "channel": 0}, {"type": "note_off", "time": 76, "note": 67, "velocity": 105, "channel": 0}, {"type": "note_on", "time": 14, "note": 70, "velocity": 112, "channel": 0}, {"type": "note_off", "time": 90, "note": 70, "velocity": 112, "channel": 0}, {"type": "note_on", "time": 14, "note": 68, "velocity": 115, "channel": 0}, {"type": "note_off", "time": 88, "note": 68, "velocity": 115, "channel": 0}, {"type": "note_on", "time": 10, "note": 69, "velocity": 106, "channel": 0}, {"type": "note_off", "time": 21, "note": 69, "velocity": 106, "channel": 0}, {"type": "note_on", "time": 4, "note": 68, "velocity": 112, "channel": 0}, {"type": "note_off", "time": 70, "note": 68, "velocity": 112, "channel": 0}, {"type": "note_on", "time": 6, "note": 69, "velocity": 98, "channel": 0}, {"type": "note_off", "time": 22, "note": 69, "velocity": 98, "channel": 0}, {"type": "note_on", "time": 9, "note": 67, "velocity": 108, "channel": 0}, {"type": "note_off", "time": 95, "note": 67, "velocity": 108, "channel": 0}, {"type": "note_on", "time": 13, "note": 70, "velocity": 106, "channel": 0}, {"type": "note_off", "time": 80, "note": 70, "velocity": 106, "channel": 0}, {"type": "note_on", "time": 17, "note": 64, "velocity": 115, "channel": 0}, {"type": "note_off", "time": 42, "note": 64, "velocity": 115, "channel": 0}, {"type": "note_on", "time": 37, "note": 69, "velocity": 105, "channel": 0}, {"type": "note_off", "time": 51, "note": 69, "velocity": 105, "channel": 0}, {"type": "note_on", "time": 20, "note": 68, "velocity": 110, "channel": 0}, {"type": "note_off", "time": 56, "note": 68, "velocity": 110, "channel": 0}, {"type": "note_on", "time": 10, "note": 70, "velocity": 97, "channel": 0}, {"type": "note_off", "time": 24, "note": 70, "velocity": 97, "channel": 0}, {"type": "note_on", "time": 13, "note": 67, "velocity": 96, "channel": 0}, {"type": "note_off", "time": 195, "note": 67, "velocity": 96, "channel": 0}, {"type": "note_on", "time": 525, "note": 64, "velocity": 99, "channel": 0}, {"type": "note_off", "time": 62, "note": 64, "velocity": 99, "channel": 0}, {"type": "note_on", "time": 13, "note": 67, "velocity": 105, "channel": 0}, {"type": "note_off", "time": 64, "note": 67, "velocity": 105, "channel": 0}, {"type": "note_on", "time": 34, "note": 70, "velocity": 118, "channel": 0}, {"type": "note_off", "time": 66, "note": 70, "velocity": 118, "channel": 0}, {"type": "note_on", "time": 24, "note": 75, "velocity": 117, "channel": 0}, {"type": "note_off", "time": 93, "note": 75, "velocity": 117, "channel": 0}, {"type": "note_on", "time": 10, "note": 80, "velocity": 123, "channel": 0}, {"type": "note_off", "time": 86, "note": 80, "velocity": 123, "channel": 0}, {"type": "note_on", "time": 10, "note": 78, "velocity": 112, "channel": 0}, {"type": "note_off", "time": 102, "note": 78, "velocity": 112, "channel": 0}, {"type": "note_on", "time": 14, "note": 76, "velocity": 107, "channel": 0}, {"type": "note_off", "time": 77, "note": 76, "velocity": 107, "channel": 0}, {"type": "note_on", "time": 78, "note": 75, "velocity": 108, "channel": 0}, {"type": "note_off", "time": 87, "note": 75, "velocity": 108, "channel": 0}, {"type": "note_on", "time": 67, "note": 73, "velocity": 107, "channel": 0}, {"type": "note_off", "time": 85, "note": 73, "velocity": 107, "channel": 0}, {"type": "note_on", "time": 45, "note": 72, "velocity": 99, "channel": 0}, {"type": "note_off", "time": 78, "note": 72, "velocity": 99, "channel": 0}, {"type": "note_on", "time": 53, "note": 70, "velocity": 104, "channel": 0}, {"type": "note_off", "time": 74, "note": 70, "velocity": 104, "channel": 0}, {"type": "note_on", "time": 63, "note": 69, "velocity": 99, "channel": 0}, {"type": "note_off", "time": 95, "note": 69, "velocity": 99, "channel": 0}, {"type": "note_on", "time": 24, "note": 68, "velocity": 102, "channel": 0}, {"type": "note_off", "time": 451, "note": 68, "velocity": 102, "channel": 0}, {"type": "note_on", "time": 441, "note": 62, "velocity": 89, "channel": 0}, {"type": "note_off", "time": 37, "note": 62, "velocity": 89, "channel": 0}, {"type": "note_on", "time": 29, "note": 65, "velocity": 103, "channel": 0}, {"type": "note_off", "time": 43, "note": 65, "velocity": 103, "channel": 0}, {"type": "note_on", "time": 14, "note": 68, "velocity": 109, "channel": 0}, {"type": "note_off", "time": 37, "note": 68, "velocity": 109, "channel": 0}, {"type": "note_on", "time": 9, "note": 70, "velocity": 118, "channel": 0}, {"type": "note_off", "time": 67, "note": 70, "velocity": 118, "channel": 0}, {"type": "note_on", "time": 7, "note": 68, "velocity": 110, "channel": 0}, {"type": "note_off", "time": 419, "note": 68, "velocity": 110, "channel": 0}, {"type": "note_on", "time": 17, "note": 64, "velocity": 102, "channel": 0}, {"type": "note_off", "time": 98, "note": 64, "velocity": 102, "channel": 0}, {"type": "note_on", "time": 33, "note": 64, "velocity": 99, "channel": 0}, {"type": "note_off", "time": 46, "note": 64, "velocity": 99, "channel": 0}, {"type": "note_on", "time": 312, "note": 60, "velocity": 94, "channel": 0}, {"type": "note_off", "time": 28, "note": 60, "velocity": 94, "channel": 0}, {"type": "note_on", "time": 24, "note": 64, "velocity": 107, "channel": 0}, {"type": "note_off", "time": 94, "note": 64, "velocity": 107, "channel": 0}, {"type": "note_on", "time": 14, "note": 67, "velocity": 104, "channel": 0}, {"type": "note_off", "time": 49, "note": 67, "velocity": 104, "channel": 0}, {"type": "note_on", "time": 29, "note": 70, "velocity": 109, "channel": 0}, {"type": "note_off", "time": 105, "note": 70, "velocity": 109, "channel": 0}, {"type": "note_on", "time": 13, "note": 75, "velocity": 114, "channel": 0}, {"type": "note_off", "time": 432, "note": 75, "velocity": 114, "channel": 0}, {"type": "note_on", "time": 14, "note": 73, "velocity": 103, "channel": 0}, {"type": "note_off", "time": 113, "note": 73, "velocity": 103, "channel": 0}, {"type": "note_on", "time": 8, "note": 80, "velocity": 117, "channel": 0}, {"type": "note_off", "time": 131, "note": 80, "velocity": 117, "channel": 0}, {"type": "note_on", "time": 835, "note": 70, "velocity": 117, "channel": 0}, {"type": "note_off", "time": 70, "note": 70, "velocity": 117, "channel": 0}, {"type": "note_on", "time": 14, "note": 75, "velocity": 113, "channel": 0}, {"type": "note_off", "time": 92, "note": 75, "velocity": 113, "channel": 0}, {"type": "note_on", "time": 7, "note": 80, "velocity": 111, "channel": 0}, {"type": "note_off", "time": 910, "note": 80, "velocity": 111, "channel": 0}, {"type": "note_on", "time": 77, "note": 69, "velocity": 103, "channel": 0}, {"type": "note_off", "time": 343, "note": 69, "velocity": 103, "channel": 0}, {"type": "note_on", "time": 18, "note": 74, "velocity": 112, "channel": 0}, {"type": "note_off", "time": 61, "note": 74, "velocity": 112, "channel": 0}, {"type": "note_on", "time": 12, "note": 79, "velocity": 107, "channel": 0}, {"type": "note_off", "time": 649, "note": 79, "velocity": 107, "channel": 0}, {"type": "note_on", "time": 224, "note": 68, "velocity": 111, "channel": 0}, {"type": "note_off", "time": 72, "note": 68, "velocity": 111, "channel": 0}, {"type": "note_on", "time": 2, "note": 73, "velocity": 107, "channel": 0}, {"type": "note_off", "time": 122, "note": 73, "velocity": 107, "channel": 0}, {"type": "note_on", "time": 8, "note": 78, "velocity": 110, "channel": 0}, {"type": "note_off", "time": 83, "note": 78, "velocity": 110, "channel": 0}, {"type": "note_on", "time": 462, "note": 77, "velocity": 107, "channel": 0}, {"type": "note_off", "time": 83, "note": 77, "velocity": 107, "channel": 0}, {"type": "note_on", "time": 38, "note": 76, "velocity": 123, "channel": 0}, {"type": "note_off", "time": 82, "note": 76, "velocity": 123, "channel": 0}, {"type": "note_on", "time": 36, "note": 71, "velocity": 108, "channel": 0}, {"type": "note_off", "time": 42, "note": 71, "velocity": 108, "channel": 0}, {"type": "note_on", "time": 15, "note": 74, "velocity": 106, "channel": 0}, {"type": "note_off", "time": 87, "note": 74, "velocity": 106, "channel": 0}, {"type": "note_on", "time": 12, "note": 73, "velocity": 103, "channel": 0}, {"type": "note_off", "time": 66, "note": 73, "velocity": 103, "channel": 0}, {"type": "note_on", "time": 17, "note": 72, "velocity": 103, "channel": 0}, {"type": "note_off", "time": 74, "note": 72, "velocity": 103, "channel": 0}, {"type": "note_on", "time": 28, "note": 67, "velocity": 110, "channel": 0}, {"type": "note_off", "time": 49, "note": 67, "velocity": 110, "channel": 0}, {"type": "note_on", "time": 14, "note": 64, "velocity": 104, "channel": 0}, {"type": "note_off", "time": 98, "note": 64, "velocity": 104, "channel": 0}, {"type": "note_on", "time": 18, "note": 62, "velocity": 102, "channel": 0}, {"type": "note_off", "time": 62, "note": 62, "velocity": 102, "channel": 0}, {"type": "note_on", "time": 22, "note": 59, "velocity": 88, "channel": 0}, {"type": "note_off", "time": 140, "note": 59, "velocity": 88, "channel": 0}, {"type": "note_on", "time": 375, "note": 82, "velocity": 116, "channel": 0}, {"type": "note_off", "time": 416, "note": 82, "velocity": 116, "channel": 0}, {"type": "note_on", "time": 8, "note": 79, "velocity": 109, "channel": 0}, {"type": "note_off", "time": 86, "note": 79, "velocity": 109, "channel": 0}, {"type": "note_on", "time": 22, "note": 77, "velocity": 111, "channel": 0}, {"type": "note_off", "time": 87, "note": 77, "velocity": 111, "channel": 0}, {"type": "note_on", "time": 4, "note": 76, "velocity": 118, "channel": 0}, {"type": "note_off", "time": 135, "note": 76, "velocity": 118, "channel": 0}, {"type": "note_on", "time": 6, "note": 76, "velocity": 112, "channel": 0}, {"type": "note_off", "time": 112, "note": 76, "velocity": 112, "channel": 0}, {"type": "note_on", "time": 1093, "note": 79, "velocity": 116, "channel": 0}, {"type": "note_off", "time": 112, "note": 79, "velocity": 116, "channel": 0}, {"type": "note_on", "time": 14, "note": 81, "velocity": 121, "channel": 0}, {"type": "note_off", "time": 60, "note": 81, "velocity": 121, "channel": 0}, {"type": "note_on", "time": 11, "note": 82, "velocity": 121, "channel": 0}, {"type": "note_off", "time": 103, "note": 82, "velocity": 121, "channel": 0}, {"type": "note_on", "time": 28, "note": 84, "velocity": 112, "channel": 0}, {"type": "note_off", "time": 48, "note": 84, "velocity": 112, "channel": 0}, {"type": "note_on", "time": 28, "note": 86, "velocity": 125, "channel": 0}, {"type": "note_off", "time": 124, "note": 86, "velocity": 125, "channel": 0}, {"type": "note_on", "time": 21, "note": 84, "velocity": 116, "channel": 0}, {"type": "note_off", "time": 113, "note": 84, "velocity": 116, "channel": 0}, {"type": "note_on", "time": 69, "note": 82, "velocity": 119, "channel": 0}, {"type": "note_off", "time": 133, "note": 82, "velocity": 119, "channel": 0}, {"type": "note_on", "time": 12, "note": 81, "velocity": 109, "channel": 0}, {"type": "note_off", "time": 298, "note": 81, "velocity": 109, "channel": 0}, {"type": "note_on", "time": 23, "note": 77, "velocity": 116, "channel": 0}, {"type": "note_off", "time": 133, "note": 77, "velocity": 116, "channel": 0}, {"type": "note_on", "time": 14, "note": 76, "velocity": 111, "channel": 0}, {"type": "note_off", "time": 70, "note": 76, "velocity": 111, "channel": 0}, {"type": "note_on", "time": 9, "note": 74, "velocity": 113, "channel": 0}, {"type": "note_off", "time": 154, "note": 74, "velocity": 113, "channel": 0}, {"type": "note_on", "time": 21, "note": 72, "velocity": 107, "channel": 0}, {"type": "note_off", "time": 108, "note": 72, "velocity": 107, "channel": 0}, {"type": "note_on", "time": 23, "note": 70, "velocity": 100, "channel": 0}, {"type": "note_off", "time": 227, "note": 70, "velocity": 100, "channel": 0}, {"type": "note_on", "time": 27, "note": 68, "velocity": 95, "channel": 0}, {"type": "note_off", "time": 166, "note": 68, "velocity": 95, "channel": 0}, {"type": "note_on", "time": 13, "note": 65, "velocity": 85, "channel": 0}, {"type": "note_off", "time": 219, "note": 65, "velocity": 85, "channel": 0}, {"type": "note_on", "time": 287, "note": 60, "velocity": 94, "channel": 0}, {"type": "note_off", "time": 27, "note": 60, "velocity": 94, "channel": 0}, {"type": "note_on", "time": 36, "note": 65, "velocity": 106, "channel": 0}, {"type": "note_off", "time": 35, "note": 65, "velocity": 106, "channel": 0}, {"type": "note_on", "time": 29, "note": 69, "velocity": 93, "channel": 0}, {"type": "note_off", "time": 30, "note": 69, "velocity": 93, "channel": 0}, {"type": "note_on", "time": 5, "note": 70, "velocity": 116, "channel": 0}, {"type": "note_off", "time": 72, "note": 70, "velocity": 116, "channel": 0}, {"type": "note_on", "time": 3, "note": 69, "velocity": 114, "channel": 0}, {"type": "note_off", "time": 51, "note": 69, "velocity": 114, "channel": 0}, {"type": "note_on", "time": 12, "note": 70, "velocity": 117, "channel": 0}, {"type": "note_off", "time": 54, "note": 70, "velocity": 117, "channel": 0}, {"type": "note_on", "time": 5, "note": 69, "velocity": 114, "channel": 0}, {"type": "note_off", "time": 44, "note": 69, "velocity": 114, "channel": 0}, {"type": "note_on", "time": 6, "note": 70, "velocity": 118, "channel": 0}, {"type": "note_off", "time": 67, "note": 70, "velocity": 118, "channel": 0}, {"type": "note_on", "time": 4, "note": 69, "velocity": 99, "channel": 0}, {"type": "note_off", "time": 55, "note": 69, "velocity": 99, "channel": 0}, {"type": "note_on", "time": 4, "note": 70, "velocity": 117, "channel": 0}, {"type": "note_off", "time": 62, "note": 70, "velocity": 117, "channel": 0}, {"type": "note_on", "time": 5, "note": 69, "velocity": 100, "channel": 0}, {"type": "note_off", "time": 61, "note": 69, "velocity": 100, "channel": 0}, {"type": "note_on", "time": 4, "note": 70, "velocity": 114, "channel": 0}, {"type": "note_off", "time": 65, "note": 70, "velocity": 114, "channel": 0}, {"type": "note_on", "time": 6, "note": 69, "velocity": 94, "channel": 0}, {"type": "note_off", "time": 53, "note": 69, "velocity": 94, "channel": 0}, {"type": "note_on", "time": 9, "note": 70, "velocity": 117, "channel": 0}, {"type": "note_off", "time": 60, "note": 70, "velocity": 117, "channel": 0}, {"type": "note_on", "time": 6, "note": 69, "velocity": 91, "channel": 0}, {"type": "note_off", "time": 49, "note": 69, "velocity": 91, "channel": 0}, {"type": "note_on", "time": 10, "note": 70, "velocity": 116, "channel": 0}, {"type": "note_off", "time": 85, "note": 70, "velocity": 116, "channel": 0}, {"type": "note_on", "time": 3, "note": 69, "velocity": 95, "channel": 0}, {"type": "note_off", "time": 42, "note": 69, "velocity": 95, "channel": 0}, {"type": "note_on", "time": 4, "note": 70, "velocity": 113, "channel": 0}, {"type": "note_off", "time": 75, "note": 70, "velocity": 113, "channel": 0}, {"type": "note_on", "time": 5, "note": 69, "velocity": 97, "channel": 0}, {"type": "note_off", "time": 40, "note": 69, "velocity": 97, "channel": 0}, {"type": "note_on", "time": 8, "note": 70, "velocity": 113, "channel": 0}, {"type": "note_off", "time": 67, "note": 70, "velocity": 113, "channel": 0}, {"type": "note_on", "time": 4, "note": 69, "velocity": 97, "channel": 0}, {"type": "note_off", "time": 43, "note": 69, "velocity": 97, "channel": 0}, {"type": "note_on", "time": 5, "note": 70, "velocity": 113, "channel": 0}, {"type": "note_off", "time": 186, "note": 70, "velocity": 113, "channel": 0}, {"type": "note_on", "time": 349, "note": 70, "velocity": 119, "channel": 0}, {"type": "note_off", "time": 44, "note": 70, "velocity": 119, "channel": 0}, {"type": "note_on", "time": 2, "note": 68, "velocity": 106, "channel": 0}, {"type": "note_off", "time": 59, "note": 68, "velocity": 106, "channel": 0}, {"type": "note_on", "time": 3, "note": 70, "velocity": 116, "channel": 0}, {"type": "note_off", "time": 72, "note": 70, "velocity": 116, "channel": 0}, {"type": "note_on", "time": 7, "note": 68, "velocity": 105, "channel": 0}, {"type": "note_off", "time": 39, "note": 68, "velocity": 105, "channel": 0}, {"type": "note_on", "time": 7, "note": 70, "velocity": 117, "channel": 0}, {"type": "note_off", "time": 86, "note": 70, "velocity": 117, "channel": 0}, {"type": "note_on", "time": 5, "note": 68, "velocity": 101, "channel": 0}, {"type": "note_off", "time": 27, "note": 68, "velocity": 101, "channel": 0}, {"type": "note_on", "time": 9, "note": 70, "velocity": 116, "channel": 0}, {"type": "note_off", "time": 77, "note": 70, "velocity": 116, "channel": 0}, {"type": "note_on", "time": 7, "note": 69, "velocity": 95, "channel": 0}, {"type": "note_off", "time": 41, "note": 69, "velocity": 95, "channel": 0}, {"type": "note_on", "time": 14, "note": 70, "velocity": 114, "channel": 0}, {"type": "note_off", "time": 69, "note": 70, "velocity": 114, "channel": 0}, {"type": "note_on", "time": 3, "note": 69, "velocity": 99, "channel": 0}, {"type": "note_off", "time": 41, "note": 69, "velocity": 99, "channel": 0}, {"type": "note_on", "time": 11, "note": 70, "velocity": 115, "channel": 0}, {"type": "note_off", "time": 78, "note": 70, "velocity": 115, "channel": 0}, {"type": "note_on", "time": 5, "note": 69, "velocity": 95, "channel": 0}, {"type": "note_off", "time": 45, "note": 69, "velocity": 95, "channel": 0}, {"type": "note_on", "time": 3, "note": 70, "velocity": 117, "channel": 0}, {"type": "note_off", "time": 69, "note": 70, "velocity": 117, "channel": 0}, {"type": "note_on", "time": 11, "note": 69, "velocity": 99, "channel": 0}, {"type": "note_off", "time": 40, "note": 69, "velocity": 99, "channel": 0}, {"type": "note_on", "time": 6, "note": 70, "velocity": 118, "channel": 0}, {"type": "note_off", "time": 70, "note": 70, "velocity": 118, "channel": 0}, {"type": "note_on", "time": 7, "note": 69, "velocity": 106, "channel": 0}, {"type": "note_off", "time": 39, "note": 69, "velocity": 106, "channel": 0}, {"type": "note_on", "time": 9, "note": 70, "velocity": 114, "channel": 0}, {"type": "note_off", "time": 202, "note": 70, "velocity": 114, "channel": 0}, {"type": "note_on", "time": 666, "note": 74, "velocity": 105, "channel": 0}, {"type": "note_off", "time": 82, "note": 74, "velocity": 105, "channel": 0}, {"type": "note_on", "time": 34, "note": 78, "velocity": 125, "channel": 0}, {"type": "note_off", "time": 96, "note": 78, "velocity": 125, "channel": 0}, {"type": "note_on", "time": 24, "note": 74, "velocity": 113, "channel": 0}, {"type": "note_off", "time": 70, "note": 74, "velocity": 113, "channel": 0}, {"type": "note_on", "time": 6, "note": 71, "velocity": 106, "channel": 0}, {"type": "note_off", "time": 92, "note": 71, "velocity": 106, "channel": 0}, {"type": "note_on", "time": 20, "note": 67, "velocity": 108, "channel": 0}, {"type": "note_off", "time": 60, "note": 67, "velocity": 108, "channel": 0}, {"type": "note_on", "time": 18, "note": 64, "velocity": 109, "channel": 0}, {"type": "note_off", "time": 38, "note": 64, "velocity": 109, "channel": 0}, {"type": "note_on", "time": 7, "note": 65, "velocity": 109, "channel": 0}, {"type": "note_off", "time": 38, "note": 65, "velocity": 109, "channel": 0}, {"type": "note_on", "time": 5, "note": 64, "velocity": 101, "channel": 0}, {"type": "note_off", "time": 21, "note": 64, "velocity": 101, "channel": 0}, {"type": "note_on", "time": 8, "note": 62, "velocity": 98, "channel": 0}, {"type": "note_off", "time": 53, "note": 62, "velocity": 98, "channel": 0}, {"type": "note_on", "time": 31, "note": 68, "velocity": 118, "channel": 0}, {"type": "note_off", "time": 93, "note": 68, "velocity": 118, "channel": 0}, {"type": "note_on", "time": 16, "note": 63, "velocity": 108, "channel": 0}, {"type": "note_off", "time": 66, "note": 63, "velocity": 108, "channel": 0}, {"type": "note_on", "time": 8, "note": 59, "velocity": 96, "channel": 0}, {"type": "note_off", "time": 118, "note": 59, "velocity": 96, "channel": 0}, {"type": "note_on", "time": 20, "note": 56, "velocity": 91, "channel": 0}, {"type": "note_off", "time": 25, "note": 56, "velocity": 91, "channel": 0}, {"type": "note_on", "time": 9, "note": 58, "velocity": 97, "channel": 0}, {"type": "note_off", "time": 93, "note": 58, "velocity": 97, "channel": 0}, {"type": "note_on", "time": 68, "note": 80, "velocity": 125, "channel": 0}, {"type": "note_off", "time": 79, "note": 80, "velocity": 125, "channel": 0}, {"type": "note_on", "time": 70, "note": 78, "velocity": 112, "channel": 0}, {"type": "note_off", "time": 91, "note": 78, "velocity": 112, "channel": 0}, {"type": "note_on", "time": 37, "note": 77, "velocity": 108, "channel": 0}, {"type": "note_off", "time": 125, "note": 77, "velocity": 108, "channel": 0}, {"type": "note_on", "time": 19, "note": 75, "velocity": 110, "channel": 0}, {"type": "note_off", "time": 64, "note": 75, "velocity": 110, "channel": 0}, {"type": "note_on", "time": 23, "note": 70, "velocity": 94, "channel": 0}, {"type": "note_off", "time": 62, "note": 70, "velocity": 94, "channel": 0}, {"type": "note_on", "time": 12, "note": 67, "velocity": 95, "channel": 0}, {"type": "note_off", "time": 61, "note": 67, "velocity": 95, "channel": 0}, {"type": "note_on", "time": 18, "note": 63, "velocity": 91, "channel": 0}, {"type": "note_off", "time": 133, "note": 63, "velocity": 91, "channel": 0}, {"type": "note_on", "time": 344, "note": 77, "velocity": 124, "channel": 0}, {"type": "note_off", "time": 103, "note": 77, "velocity": 124, "channel": 0}, {"type": "note_on", "time": 74, "note": 77, "velocity": 113, "channel": 0}, {"type": "note_off", "time": 23, "note": 77, "velocity": 113, "channel": 0}, {"type": "note_on", "time": 4, "note": 76, "velocity": 113, "channel": 0}, {"type": "note_off", "time": 27, "note": 76, "velocity": 113, "channel": 0}, {"type": "note_on", "time": 8, "note": 74, "velocity": 111, "channel": 0}, {"type": "note_off", "time": 119, "note": 74, "velocity": 111, "channel": 0}, {"type": "note_on", "time": 20, "note": 69, "velocity": 107, "channel": 0}, {"type": "note_off", "time": 30, "note": 69, "velocity": 107, "channel": 0}, {"type": "note_on", "time": 21, "note": 66, "velocity": 102, "channel": 0}, {"type": "note_off", "time": 79, "note": 66, "velocity": 102, "channel": 0}, {"type": "note_on", "time": 18, "note": 64, "velocity": 90, "channel": 0}, {"type": "note_off", "time": 56, "note": 64, "velocity": 90, "channel": 0}, {"type": "note_on", "time": 64, "note": 69, "velocity": 115, "channel": 0}, {"type": "note_off", "time": 29, "note": 69, "velocity": 115, "channel": 0}, {"type": "note_on", "time": 4, "note": 70, "velocity": 116, "channel": 0}, {"type": "note_off", "time": 26, "note": 70, "velocity": 116, "channel": 0}, {"type": "note_on", "time": 6, "note": 69, "velocity": 108, "channel": 0}, {"type": "note_off", "time": 34, "note": 69, "velocity": 108, "channel": 0}, {"type": "note_on", "time": 8, "note": 67, "velocity": 106, "channel": 0}, {"type": "note_off", "time": 41, "note": 67, "velocity": 106, "channel": 0}, {"type": "note_on", "time": 7, "note": 65, "velocity": 101, "channel": 0}, {"type": "note_off", "time": 145, "note": 65, "velocity": 101, "channel": 0}, {"type": "note_on", "time": 19, "note": 64, "velocity": 100, "channel": 0}, {"type": "note_off", "time": 100, "note": 64, "velocity": 100, "channel": 0}, {"type": "note_on", "time": 259, "note": 74, "velocity": 123, "channel": 0}, {"type": "note_off", "time": 81, "note": 74, "velocity": 123, "channel": 0}, {"type": "note_on", "time": 7, "note": 77, "velocity": 118, "channel": 0}, {"type": "note_off", "time": 119, "note": 77, "velocity": 118, "channel": 0}, {"type": "note_on", "time": 10, "note": 77, "velocity": 120, "channel": 0}, {"type": "note_off", "time": 54, "note": 77, "velocity": 120, "channel": 0}, {"type": "note_on", "time": 17, "note": 74, "velocity": 110, "channel": 0}, {"type": "note_off", "time": 77, "note": 74, "velocity": 110, "channel": 0}, {"type": "note_on", "time": 77, "note": 77, "velocity": 122, "channel": 0}, {"type": "note_off", "time": 116, "note": 77, "velocity": 122, "channel": 0}, {"type": "note_on", "time": 451, "note": 69, "velocity": 116, "channel": 0}, {"type": "note_off", "time": 25, "note": 69, "velocity": 116, "channel": 0}, {"type": "note_on", "time": 3, "note": 68, "velocity": 117, "channel": 0}, {"type": "note_off", "time": 19, "note": 68, "velocity": 117, "channel": 0}, {"type": "note_on", "time": 5, "note": 67, "velocity": 95, "channel": 0}, {"type": "note_off", "time": 116, "note": 67, "velocity": 95, "channel": 0}, {"type": "note_on", "time": 13, "note": 69, "velocity": 116, "channel": 0}, {"type": "note_off", "time": 56, "note": 69, "velocity": 116, "channel": 0}, {"type": "note_on", "time": 11, "note": 70, "velocity": 111, "channel": 0}, {"type": "note_off", "time": 107, "note": 70, "velocity": 111, "channel": 0}, {"type": "note_on", "time": 15, "note": 72, "velocity": 119, "channel": 0}, {"type": "note_off", "time": 51, "note": 72, "velocity": 119, "channel": 0}, {"type": "note_on", "time": 6, "note": 74, "velocity": 119, "channel": 0}, {"type": "note_off", "time": 131, "note": 74, "velocity": 119, "channel": 0}, {"type": "note_on", "time": 11, "note": 76, "velocity": 110, "channel": 0}, {"type": "note_off", "time": 57, "note": 76, "velocity": 110, "channel": 0}, {"type": "note_on", "time": 14, "note": 81, "velocity": 123, "channel": 0}, {"type": "note_off", "time": 109, "note": 81, "velocity": 123, "channel": 0}, {"type": "note_on", "time": 11, "note": 81, "velocity": 125, "channel": 0}, {"type": "note_off", "time": 72, "note": 81, "velocity": 125, "channel": 0}, {"type": "note_on", "time": 11, "note": 77, "velocity": 122, "channel": 0}, {"type": "note_off", "time": 115, "note": 77, "velocity": 122, "channel": 0}, {"type": "note_on", "time": 4, "note": 80, "velocity": 116, "channel": 0}, {"type": "note_off", "time": 270, "note": 80, "velocity": 116, "channel": 0}, {"type": "note_on", "time": 333, "note": 79, "velocity": 96, "channel": 0}, {"type": "note_off", "time": 20, "note": 79, "velocity": 96, "channel": 0}, {"type": "note_on", "time": 5, "note": 77, "velocity": 121, "channel": 0}, {"type": "note_off", "time": 23, "note": 77, "velocity": 121, "channel": 0}, {"type": "note_on", "time": 21, "note": 72, "velocity": 95, "channel": 0}, {"type": "note_off", "time": 126, "note": 72, "velocity": 95, "channel": 0}, {"type": "note_on", "time": 28, "note": 74, "velocity": 121, "channel": 0}, {"type": "note_off", "time": 55, "note": 74, "velocity": 121, "channel": 0}, {"type": "note_on", "time": 35, "note": 77, "velocity": 127, "channel": 0}, {"type": "note_off", "time": 85, "note": 77, "velocity": 127, "channel": 0}, {"type": "note_on", "time": 16, "note": 81, "velocity": 122, "channel": 0}, {"type": "note_off", "time": 150, "note": 81, "velocity": 122, "channel": 0}, {"type": "note_on", "time": 35, "note": 81, "velocity": 123, "channel": 0}, {"type": "note_off", "time": 65, "note": 81, "velocity": 123, "channel": 0}, {"type": "note_on", "time": 6, "note": 82, "velocity": 119, "channel": 0}, {"type": "note_off", "time": 79, "note": 82, "velocity": 119, "channel": 0}, {"type": "note_on", "time": 9, "note": 81, "velocity": 120, "channel": 0}, {"type": "note_off", "time": 107, "note": 81, "velocity": 120, "channel": 0}, {"type": "note_on", "time": 27, "note": 77, "velocity": 119, "channel": 0}, {"type": "note_off", "time": 105, "note": 77, "velocity": 119, "channel": 0}, {"type": "note_on", "time": 33, "note": 75, "velocity": 110, "channel": 0}, {"type": "note_off", "time": 115, "note": 75, "velocity": 110, "channel": 0}, {"type": "note_on", "time": 23, "note": 77, "velocity": 122, "channel": 0}, {"type": "note_off", "time": 70, "note": 77, "velocity": 122, "channel": 0}, {"type": "note_on", "time": 75, "note": 74, "velocity": 119, "channel": 0}, {"type": "note_off", "time": 63, "note": 74, "velocity": 119, "channel": 0}, {"type": "note_on", "time": 3, "note": 75, "velocity": 107, "channel": 0}, {"type": "note_off", "time": 57, "note": 75, "velocity": 107, "channel": 0}, {"type": "note_on", "time": 38, "note": 74, "velocity": 113, "channel": 0}, {"type": "note_off", "time": 113, "note": 74, "velocity": 113, "channel": 0}, {"type": "note_on", "time": 14, "note": 70, "velocity": 87, "channel": 0}, {"type": "note_off", "time": 193, "note": 70, "velocity": 87, "channel": 0}, {"type": "note_on", "time": 313, "note": 70, "velocity": 117, "channel": 0}, {"type": "note_off", "time": 100, "note": 70, "velocity": 117, "channel": 0}, {"type": "note_on", "time": 11, "note": 69, "velocity": 111, "channel": 0}, {"type": "note_off", "time": 72, "note": 69, "velocity": 111, "channel": 0}, {"type": "note_on", "time": 44, "note": 74, "velocity": 107, "channel": 0}, {"type": "note_off", "time": 76, "note": 74, "velocity": 107, "channel": 0}, {"type": "note_on", "time": 199, "note": 67, "velocity": 94, "channel": 0}, {"type": "note_off", "time": 115, "note": 67, "velocity": 94, "channel": 0}, {"type": "note_on", "time": 24, "note": 71, "velocity": 105, "channel": 0}, {"type": "note_off", "time": 47, "note": 71, "velocity": 105, "channel": 0}, {"type": "note_on", "time": 190, "note": 72, "velocity": 95, "channel": 0}, {"type": "note_off", "time": 112, "note": 72, "velocity": 95, "channel": 0}, {"type": "note_on", "time": 51, "note": 62, "velocity": 10, "channel": 0}, {"type": "note_off", "time": 52, "note": 62, "velocity": 10, "channel": 0}, {"type": "note_on", "time": 146, "note": 58, "velocity": 97, "channel": 0}, {"type": "note_off", "time": 60, "note": 58, "velocity": 97, "channel": 0}, {"type": "note_on", "time": 18, "note": 61, "velocity": 117, "channel": 0}, {"type": "note_off", "time": 87, "note": 61, "velocity": 117, "channel": 0}, {"type": "note_on", "time": 28, "note": 70, "velocity": 117, "channel": 0}, {"type": "note_off", "time": 55, "note": 70, "velocity": 117, "channel": 0}, {"type": "end_of_track", "time": 0}]]}