{"ticks_per_beat": 192, "tracks": [[{"type": "track_name", "name": "Melody", "time": 0}, {"type": "set_tempo", "tempo": 284360, "time": 0}, {"type": "key_signature", "key": "Bb", "time": 0}, {"type": "time_signature", "numerator": 4, "denominator": 4, "clocks_per_click": 24, "notated_32nd_notes_per_beat": 8, "time": 0}, {"type": "note_on", "time": 3184, "note": 76, "velocity": 114, "channel": 0}, {"type": "note_off", "time": 125, "note": 76, "velocity": 114, "channel": 0}, {"type": "note_on", "time": 21, "note": 79, "velocity": 97, "channel": 0}, {"type": "note_off", "time": 36, "note": 79, "velocity": 97, "channel": 0}, {"type": "note_on", "time": 9, "note": 81, "velocity": 119, "channel": 0}, {"type": "note_off", "time": 117, "note": 81, "velocity": 119, "channel": 0}, {"type": "note_on", "time": 13, "note": 81, "velocity": 121, "channel": 0}, {"type": "note_off", "time": 349, "note": 81, "velocity": 121, "channel": 0}, {"type": "note_on", "time": 308, "note": 76, "velocity": 114, "channel": 0}, {"type": "note_off", "time": 166, "note": 76, "velocity": 114, "channel": 0}, {"type": "note_on", "time": 50, "note": 79, "velocity": 117, "channel": 0}, {"type": "note_off", "time": 142, "note": 79, "velocity": 117, "channel": 0}, {"type": "note_on", "time": 238, "note": 76, "velocity": 116, "channel": 0}, {"type": "note_off", "time": 131, "note": 76, "velocity": 116, "channel": 0}, {"type": "note_on", "time": 10, "note": 79, "velocity": 122, "channel": 0}, {"type": "note_off", "time": 272, "note": 79, "velocity": 122, "channel": 0}, {"type": "note_on", "time": 0, "note": 81, "velocity": 121, "channel": 0}, {"type": "note_off", "time": 479, "note": 81, "velocity": 121, "channel": 0}, {"type": "note_on", "time": 26, "note": 81, "velocity": 119, "channel": 0}, {"type": "note_off", "time": 42, "note": 81, "velocity": 119, "channel": 0}, {"type": "note_on", "time": 4, "note": 82, "velocity": 120, "channel": 0}, {"type": "note_off", "time": 29, "note": 82, "velocity": 120, "channel": 0}, {"type": "note_on", "time": 6, "note": 81, "velocity": 123, "channel": 0}, {"type": "note_off", "time": 115, "note": 81, "velocity": 123, "channel": 0}, {"type": "note_on", "time": 32, "note": 76, "velocity": 109, "channel": 0}, {"type": "note_off", "time": 34, "note": 76, "velocity": 109, "channel": 0}, {"type": "note_on", "time": 22, "note": 79, "velocity": 120, "channel": 0}, {"type": "note_off", "time": 98, "note": 79, "velocity": 120, "channel": 0}, {"type": "note_on", "time": 376, "note": 76, "velocity": 117, "channel": 0}, {"type": "note_off", "time": 67, "note": 76, "velocity": 117, "channel": 0}, {"type": "note_on", "time": 10, "note": 79, "velocity": 119, "channel": 0}, {"type": "note_off", "time": 113, "note": 79, "velocity": 119, "channel": 0}, {"type": "note_on", "time": 14, "note": 81, "velocity": 123, "channel": 0}, {"type": "note_off", "time": 80, "note": 81, "velocity": 123, "channel": 0}, {"type": "note_on", "time": 14, "note": 81, "velocity": 119, "channel": 0}, {"type": "note_off", "time": 567, "note": 81, "velocity": 119, "channel": 0}, {"type": "note_on", "time": 31, "note": 79, "velocity": 114, "channel": 0}, {"type": "note_off", "time": 92, "note": 79, "velocity": 114, "channel": 0}, {"type": "note_on", "time": 18, "note": 76, "velocity": 115, "channel": 0}, {"type": "note_off", "time": 78, "note": 76, "velocity": 115, "channel": 0}, {"type": "note_on", "time": 8, "note": 74, "velocity": 116, "channel": 0}, {"type": "note_off", "time": 67, "note": 74, "velocity": 116, "channel": 0}, {"type": "note_on", "time": 22, "note": 73, "velocity": 114, "channel": 0}, {"type": "note_off", "time": 72, "note": 73, "velocity": 114, "channel": 0}, {"type": "note_on", "time": 8, "note": 72, "velocity": 112, "channel": 0}, {"type": "note_off", "time": 101, "note": 72, "velocity": 112, "channel": 0}, {"type": "note_on", "time": 20, "note": 71, "velocity": 114, "channel": 0}, {"type": "note_off", "time": 76, "note": 71, "velocity": 114, "channel": 0}, {"type": "note_on", "time": 6, "note": 70, "velocity": 116, "channel": 0}, {"type": "note_off", "time": 81, "note": 70, "velocity": 116, "channel": 0}, {"type": "note_on", "time": 36, "note": 65, "velocity": 116, "channel": 0}, {"type": "note_off", "time": 51, "note": 65, "velocity": 116, "channel": 0}, {"type": "note_on", "time": 25, "note": 67, "velocity": 115, "channel": 0}, {"type": "note_off", "time": 58, "note": 67, "velocity": 115, "channel": 0}, {"type": "note_on", "time": 8, "note": 69, "velocity": 116, "channel": 0}, {"type": "note_off", "time": 46, "note": 69, "velocity": 116, "channel": 0}, {"type": "note_on", "time": 6, "note": 70, "velocity": 115, "channel": 0}, {"type": "note_off", "time": 44, "note": 70, "velocity": 115, "channel": 0}, {"type": "note_on", "time": 11, "note": 69, "velocity": 115, "channel": 0}, {"type": "note_off", "time": 125, "note": 69, "velocity": 115, "channel": 0}, {"type": "note_on", "time": 20, "note": 70, "velocity": 107, "channel": 0}, {"type": "note_off", "time": 44, "note": 70, "velocity": 107, "channel": 0}, {"type": "note_on", "time": 4, "note": 66, "velocity": 109, "channel": 0}, {"type": "note_off", "time": 128, "note": 66, "velocity": 109, "channel": 0}, {"type": "note_on", "time": 16, "note": 69, "velocity": 113, "channel": 0}, {"type": "note_off", "time": 59, "note": 69, "velocity": 113, "channel": 0}, {"type": "note_on", "time": 30, "note": 64, "velocity": 113, "channel": 0}, {"type": "note_off", "time": 132, "note": 64, "velocity": 113, "channel": 0}, {"type": "note_on", "time": 13, "note": 64, "velocity": 100, "channel": 0}, {"type": "note_off", "time": 275, "note": 64, "velocity": 100, "channel": 0}, {"type": "note_on", "time": 482, "note": 81, "velocity": 116, "channel": 0}, {"type": "note_off", "time": 125, "note": 81, "velocity": 116, "channel": 0}, {"type": "note_on", "time": 17, "note": 82, "velocity": 114, "channel": 0}, {"type": "note_off", "time": 57, "note": 82, "velocity": 114, "channel": 0}, {"type": "note_on", "time": 13, "note": 84, "velocity": 121, "channel": 0}, {"type": "note_off", "time": 112, "note": 84, "velocity": 121, "channel": 0}, {"type": "note_on", "time": 21, "note": 84, "velocity": 121, "channel": 0}, {"type": "note_off", "time": 72, "note": 84, "velocity": 121, "channel": 0}, {"type": "note_on", "time": 1098, "note": 79, "velocity": 107, "channel": 0}, {"type": "note_off", "time": 53, "note": 79, "velocity": 107, "channel": 0}, {"type": "note_on", "time": 11, "note": 81, "velocity": 124, "channel": 0}, {"type": "note_off", "time": 105, "note": 81, "velocity": 124, "channel": 0}, {"type": "note_on", "time": 10, "note": 84, "velocity": 120, "channel": 0}, {"type": "note_off", "time": 64, "note": 84, "velocity": 120, "channel": 0}, {"type": "note_on", "time": 14, "note": 84, "velocity": 120, "channel": 0}, {"type": "note_off", "time": 89, "note": 84, "velocity": 120, "channel": 0}, {"type": "note_on", "time": 7, "note": 86, "velocity": 121, "channel": 0}, {"type": "note_off", "time": 94, "note": 86, "velocity": 121, "channel": 0}, {"type": "note_on", "time": 8, "note": 84, "velocity": 120, "channel": 0}, {"type": "note_off", "time": 97, "note": 84, "velocity": 120, "channel": 0}, {"type": "note_on", "time": 9, "note": 82, "velocity": 120, "channel": 0}, {"type": "note_off", "time": 60, "note": 82, "velocity": 120, "channel": 0}, {"type": "note_on", "time": 9, "note": 81, "velocity": 120, "channel": 0}, {"type": "note_off", "time": 107, "note": 81, "velocity": 120, "channel": 0}, {"type": "note_on", "time": 17, "note": 74, "velocity": 106, "channel": 0}, {"type": "note_off", "time": 59, "note": 74, "velocity": 106, "channel": 0}, {"type": "note_on", "time": 15, "note": 79, "velocity": 119, "channel": 0}, {"type": "note_off", "time": 107, "note": 79, "velocity": 119, "channel": 0}, {"type": "note_on", "time": 15, "note": 74, "velocity": 111, "channel": 0}, {"type": "note_off", "time": 58, "note": 74, "velocity": 111, "channel": 0}, {"type": "note_on", "time": 11, "note": 78, "velocity": 118, "channel": 0}, {"type": "note_off", "time": 97, "note": 78, "velocity": 118, "channel": 0}, {"type": "note_on", "time": 13, "note": 75, "velocity": 124, "channel": 0}, {"type": "note_off", "time": 90, "note": 75, "velocity": 124, "channel": 0}, {"type": "note_on", "time": 9, "note": 74, "velocity": 121, "channel": 0}, {"type": "note_off", "time": 88, "note": 74, "velocity": 121, "channel": 0}, {"type": "note_on", "time": 10, "note": 72, "velocity": 118, "channel": 0}, {"type": "note_off", "time": 81, "note": 72, "velocity": 118, "channel": 0}, {"type": "note_on", "time": 13, "note": 71, "velocity": 108, "channel": 0}, {"type": "note_off", "time": 96, "note": 71, "velocity": 108, "channel": 0}, {"type": "note_on", "time": 14, "note": 68, "velocity": 92, "channel": 0}, {"type": "note_off", "time": 65, "note": 68, "velocity": 92, "channel": 0}, {"type": "note_on", "time": 8, "note": 69, "velocity": 112, "channel": 0}, {"type": "note_off", "time": 106, "note": 69, "velocity": 112, "channel": 0}, {"type": "note_on", "time": 75, "note": 69, "velocity": 111, "channel": 0}, {"type": "note_off", "time": 321, "note": 69, "velocity": 111, "channel": 0}, {"type": "note_on", "time": 8, "note": 67, "velocity": 110, "channel": 0}, {"type": "note_off", "time": 77, "note": 67, "velocity": 110, "channel": 0}, {"type": "note_on", "time": 108, "note": 76, "velocity": 121, "channel": 0}, {"type": "note_off", "time": 95, "note": 76, "velocity": 121, "channel": 0}, {"type": "note_on", "time": 79, "note": 74, "velocity": 117, "channel": 0}, {"type": "note_off", "time": 85, "note": 74, "velocity": 117, "channel": 0}, {"type": "note_on", "time": 14, "note": 70, "velocity": 113, "channel": 0}, {"type": "note_off", "time": 114, "note": 70, "velocity": 113, "channel": 0}, {"type": "note_on", "time": 85, "note": 66, "velocity": 112, "channel": 0}, {"type": "note_off", "time": 101, "note": 66, "velocity": 112, "channel": 0}, {"type": "note_on", "time": 88, "note": 68, "velocity": 115, "channel": 0}, {"type": "note_off", "time": 95, "note": 68, "velocity": 115, "channel": 0}, {"type": "note_on", "time": 17, "note": 63, "velocity": 116, "channel": 0}, {"type": "note_off", "time": 67, "note": 63, "velocity": 116, "channel": 0}, {"type": "note_on", "time": 16, "note": 60, "velocity": 110, "channel": 0}, {"type": "note_off", "time": 93, "note": 60, "velocity": 110, "channel": 0}, {"type": "note_on", "time": 16, "note": 55, "velocity": 103, "channel": 0}, {"type": "note_off", "time": 60, "note": 55, "velocity": 103, "channel": 0}, {"type": "note_on", "time": 14, "note": 57, "velocity": 112, "channel": 0}, {"type": "note_off", "time": 234, "note": 57, "velocity": 112, "channel": 0}, {"type": "note_on", "time": 14, "note": 61, "velocity": 111, "channel": 0}, {"type": "note_off", "time": 65, "note": 61, "velocity": 111, "channel": 0}, {"type": "note_on", "time": 31, "note": 64, "velocity": 107, "channel": 0}, {"type": "note_off", "time": 61, "note": 64, "velocity": 107, "channel": 0}, {"type": "note_on", "time": 15, "note": 68, "velocity": 117, "channel": 0}, {"type": "note_off", "time": 115, "note": 68, "velocity": 117, "channel": 0}, {"type": "note_on", "time": 19, "note": 69, "velocity": 106, "channel": 0}, {"type": "note_off", "time": 292, "note": 69, "velocity": 106, "channel": 0}, {"type": "note_on", "time": 423, "note": 79, "velocity": 110, "channel": 0}, {"type": "note_off", "time": 34, "note": 79, "velocity": 110, "channel": 0}, {"type": "note_on", "time": 14, "note": 80, "velocity": 117, "channel": 0}, {"type": "note_off", "time": 36, "note": 80, "velocity": 117, "channel": 0}, {"type": "note_on", "time": 12, "note": 79, "velocity": 114, "channel": 0}, {"type": "note_off", "time": 394, "note": 79, "velocity": 114, "channel": 0}, {"type": "note_on", "time": 18, "note": 75, "velocity": 117, "channel": 0}, {"type": "note_off", "time": 88, "note": 75, "velocity": 117, "channel": 0}, {"type": "note_on", "time": 914, "note": 69, "velocity": 115, "channel": 0}, {"type": "note_off", "time": 35, "note": 69, "velocity": 115, "channel": 0}, {"type": "note_on", "time": 7, "note": 70, "velocity": 109, "channel": 0}, {"type": "note_off", "time": 27, "note": 70, "velocity": 109, "channel": 0}, {"type": "note_on", "time": 14, "note": 72, "velocity": 102, "channel": 0}, {"type": "note_off", "time": 92, "note": 72, "velocity": 102, "channel": 0}, {"type": "note_on", "time": 19, "note": 75, "velocity": 117, "channel": 0}, {"type": "note_off", "time": 68, "note": 75, "velocity": 117, "channel": 0}, {"type": "note_on", "time": 9, "note": 79, "velocity": 118, "channel": 0}, {"type": "note_off", "time": 160, "note": 79, "velocity": 118, "channel": 0}, {"type": "note_on", "time": 33, "note": 79, "velocity": 115, "channel": 0}, {"type": "note_off", "time": 155, "note": 79, "velocity": 115, "channel": 0}, {"type": "note_on", "time": 10, "note": 81, "velocity": 108, "channel": 0}, {"type": "note_off", "time": 28, "note": 81, "velocity": 108, "channel": 0}, {"type": "note_on", "time": 7, "note": 78, "velocity": 111, "channel": 0}, {"type": "note_off", "time": 18, "note": 78, "velocity": 111, "channel": 0}, {"type": "note_on", "time": 7, "note": 75, "velocity": 118, "channel": 0}, {"type": "note_off", "time": 57, "note": 75, "velocity": 118, "channel": 0}, {"type": "note_on", "time": 14, "note": 73, "velocity": 104, "channel": 0}, {"type": "note_off", "time": 28, "note": 73, "velocity": 104, "channel": 0}, {"type": "note_on", "time": 11, "note": 70, "velocity": 114, "channel": 0}, {"type": "note_off", "time": 38, "note": 70, "velocity": 114, "channel": 0}, {"type": "note_on", "time": 5, "note": 68, "velocity": 113, "channel": 0}, {"type": "note_off", "time": 108, "note": 68, "velocity": 113, "channel": 0}, {"type": "note_on", "time": 14, "note": 66, "velocity": 101, "channel": 0}, {"type": "note_off", "time": 59, "note": 66, "velocity": 101, "channel": 0}, {"type": "note_on", "time": 12, "note": 67, "velocity": 115, "channel": 0}, {"type": "note_off", "time": 99, "note": 67, "velocity": 115, "channel": 0}, {"type": "note_on", "time": 24, "note": 70, "velocity": 108, "channel": 0}, {"type": "note_off", "time": 43, "note": 70, "velocity": 108, "channel": 0}, {"type": "note_on", "time": 8, "note": 69, "velocity": 111, "channel": 0}, {"type": "note_off", "time": 26, "note": 69, "velocity": 111, "channel": 0}, {"type": "note_on", "time": 4, "note": 65, "velocity": 113, "channel": 0}, {"type": "note_off", "time": 99, "note": 65, "velocity": 113, "channel": 0}, {"type": "note_on", "time": 77, "note": 63, "velocity": 118, "channel": 0}, {"type": "note_off", "time": 108, "note": 63, "velocity": 118, "channel": 0}, {"type": "note_on", "time": 17, "note": 65, "velocity": 118, "channel": 0}, {"type": "note_off", "time": 39, "note": 65, "velocity": 118, "channel": 0}, {"type": "note_on", "time": 34, "note": 62, "velocity": 115, "channel": 0}, {"type": "note_off", "time": 95, "note": 62, "velocity": 115, "channel": 0}, {"type": "note_on", "time": 13, "note": 55, "velocity": 101, "channel": 0}, {"type": "note_off", "time": 55, "note": 55, "velocity": 101, "channel": 0}, {"type": "note_on", "time": 25, "note": 60, "velocity": 112, "channel": 0}, {"type": "note_off", "time": 93, "note": 60, "velocity": 112, "channel": 0}, {"type": "note_on", "time": 17, "note": 58, "velocity": 110, "channel": 0}, {"type": "note_off", "time": 65, "note": 58, "velocity": 110, "channel": 0}, {"type": "note_on", "time": 136, "note": 58, "velocity": 102, "channel": 0}, {"type": "note_off", "time": 44, "note": 58, "velocity": 102, "channel": 0}, {"type": "note_on", "time": 8, "note": 63, "velocity": 115, "channel": 0}, {"type": "note_off", "time": 105, "note": 63, "velocity": 115, "channel": 0}, {"type": "note_on", "time": 316, "note": 65, "velocity": 119, "channel": 0}, {"type": "note_off", "time": 84, "note": 65, "velocity": 119, "channel": 0}, {"type": "note_on", "time": 16, "note": 69, "velocity": 115, "channel": 0}, {"type": "note_off", "time": 75, "note": 69, "velocity": 115, "channel": 0}, {"type": "note_on", "time": 10, "note": 72, "velocity": 119, "channel": 0}, {"type": "note_off", "time": 104, "note": 72, "velocity": 119, "channel": 0}, {"type": "note_on", "time": 9, "note": 77, "velocity": 119, "channel": 0}, {"type": "note_off", "time": 50, "note": 77, "velocity": 119, "channel": 0}, {"type": "note_on", "time": 15, "note": 81, "velocity": 120, "channel": 0}, {"type": "note_off", "time": 265, "note": 81, "velocity": 120, "channel": 0}, {"type": "note_on", "time": 152, "note": 64, "velocity": 115, "channel": 0}, {"type": "note_off", "time": 86, "note": 64, "velocity": 115, "channel": 0}, {"type": "note_on", "time": 17, "note": 68, "velocity": 116, "channel": 0}, {"type": "note_off", "time": 73, "note": 68, "velocity": 116, "channel": 0}, {"type": "note_on", "time": 12, "note": 71, "velocity": 114, "channel": 0}, {"type": "note_off", "time": 90, "note": 71, "velocity": 114, "channel": 0}, {"type": "note_on", "time": 14, "note": 73, "velocity": 113, "channel": 0}, {"type": "note_off", "time": 56, "note": 73, "velocity": 113, "channel": 0}, {"type": "note_on", "time": 13, "note": 78, "velocity": 116, "channel": 0}, {"type": "note_off", "time": 30, "note": 78, "velocity": 116, "channel": 0}, {"type": "note_on", "time": 16, "note": 76, "velocity": 118, "channel": 0}, {"type": "note_off", "time": 153, "note": 76, "velocity": 118, "channel": 0}, {"type": "note_on", "time": 367, "note": 63, "velocity": 114, "channel": 0}, {"type": "note_off", "time": 84, "note": 63, "velocity": 114, "channel": 0}, {"type": "note_on", "time": 11, "note": 66, "velocity": 112, "channel": 0}, {"type": "note_off", "time": 72, "note": 66, "velocity": 112, "channel": 0}, {"type": "note_on", "time": 8, "note": 64, "velocity": 113, "channel": 0}, {"type": "note_off", "time": 73, "note": 64, "velocity": 113, "channel": 0}, {"type": "note_on", "time": 9, "note": 69, "velocity": 116, "channel": 0}, {"type": "note_off", "time": 30, "note": 69, "velocity": 116, "channel": 0}, {"type": "note_on", "time": 5, "note": 67, "velocity": 113, "channel": 0}, {"type": "note_off", "time": 38, "note": 67, "velocity": 113, "channel": 0}, {"type": "note_on", "time": 3, "note": 68, "velocity": 117, "channel": 0}, {"type": "note_off", "time": 24, "note": 68, "velocity": 117, "channel": 0}, {"type": "note_on", "time": 6, "note": 69, "velocity": 115, "channel": 0}, {"type": "note_off", "time": 30, "note": 69, "velocity": 115, "channel": 0}, {"type": "note_on", "time": 4, "note": 71, "velocity": 115, "channel": 0}, {"type": "note_off", "time": 28, "note": 71, "velocity": 115, "channel": 0}, {"type": "note_on", "time": 6, "note": 73, "velocity": 116, "channel": 0}, {"type": "note_off", "time": 30, "note": 73, "velocity": 116, "channel": 0}, {"type": "note_on", "time": 2, "note": 75, "velocity": 106, "channel": 0}, {"type": "note_off", "time": 22, "note": 75, "velocity": 106, "channel": 0}, {"type": "note_on", "time": 3, "note": 78, "velocity": 113, "channel": 0}, {"type": "note_off", "time": 52, "note": 78, "velocity": 113, "channel": 0}, {"type": "note_on", "time": 1, "note": 82, "velocity": 120, "channel": 0}, {"type": "note_off", "time": 73, "note": 82, "velocity": 120, "channel": 0}, {"type": "note_on", "time": 495, "note": 79, "velocity": 120, "channel": 0}, {"type": "note_off", "time": 114, "note": 79, "velocity": 120, "channel": 0}, {"type": "note_on", "time": 22, "note": 82, "velocity": 120, "channel": 0}, {"type": "note_off", "time": 111, "note": 82, "velocity": 120, "channel": 0}, {"type": "note_on", "time": 1260, "note": 77, "velocity": 113, "channel": 0}, {"type": "note_off", "time": 71, "note": 77, "velocity": 113, "channel": 0}, {"type": "note_on", "time": 8, "note": 79, "velocity": 119, "channel": 0}, {"type": "note_off", "time": 89, "note": 79, "velocity": 119, "channel": 0}, {"type": "note_on", "time": 9, "note": 81, "velocity": 122, "channel": 0}, {"type": "note_off", "time": 71, "note": 81, "velocity": 122, "channel": 0}, {"type": "note_on", "time": 11, "note": 82, "velocity": 121, "channel": 0}, {"type": "note_off", "time": 97, "note": 82, "velocity": 121, "channel": 0}, {"type": "note_on", "time": 12, "note": 81, "velocity": 113, "channel": 0}, {"type": "note_off", "time": 56, "note": 81, "velocity": 113, "channel": 0}, {"type": "note_on", "time": 15, "note": 82, "velocity": 121, "channel": 0}, {"type": "note_off", "time": 95, "note": 82, "velocity": 121, "channel": 0}, {"type": "note_on", "time": 12, "note": 81, "velocity": 120, "channel": 0}, {"type": "note_off", "time": 71, "note": 81, "velocity": 120, "channel": 0}, {"type": "note_on", "time": 11, "note": 79, "velocity": 115, "channel": 0}, {"type": "note_off", "time": 87, "note": 79, "velocity": 115, "channel": 0}, {"type": "note_on", "time": 26, "note": 76, "velocity": 119, "channel": 0}, {"type": "note_off", "time": 66, "note": 76, "velocity": 119, "channel": 0}, {"type": "note_on", "time": 9, "note": 75, "velocity": 118, "channel": 0}, {"type": "note_off", "time": 113, "note": 75, "velocity": 118, "channel": 0}, {"type": "note_on", "time": 10, "note": 73, "velocity": 115, "channel": 0}, {"type": "note_off", "time": 90, "note": 73, "velocity": 115, "channel": 0}, {"type": "note_on", "time": 9, "note": 74, "velocity": 120, "channel": 0}, {"type": "note_off", "time": 352, "note": 74, "velocity": 120, "channel": 0}, {"type": "note_on", "time": 37, "note": 77, "velocity": 120, "channel": 0}, {"type": "note_off", "time": 451, "note": 77, "velocity": 120, "channel": 0}, {"type": "note_on", "time": 25, "note": 74, "velocity": 123, "channel": 0}, {"type": "note_off", "time": 79, "note": 74, "velocity": 123, "channel": 0}, {"type": "note_on", "time": 3, "note": 73, "velocity": 114, "channel": 0}, {"type": "note_off", "time": 102, "note": 73, "velocity": 114, "channel": 0}, {"type": "note_on", "time": 5, "note": 74, "velocity": 125, "channel": 0}, {"type": "note_off", "time": 77, "note": 74, "velocity": 125, "channel": 0}, {"type": "note_on", "time": 15, "note": 80, "velocity": 116, "channel": 0}, {"type": "note_off", "time": 81, "note": 80, "velocity": 116, "channel": 0}, {"type": "note_on", "time": 29, "note": 75, "velocity": 122, "channel": 0}, {"type": "note_off", "time": 54, "note": 75, "velocity": 122, "channel": 0}, {"type": "note_on", "time": 15, "note": 72, "velocity": 102, "channel": 0}, {"type": "note_off", "time": 100, "note": 72, "velocity": 102, "channel": 0}, {"type": "note_on", "time": 21, "note": 68, "velocity": 119, "channel": 0}, {"type": "note_off", "time": 48, "note": 68, "velocity": 119, "channel": 0}, {"type": "note_on", "time": 21, "note": 66, "velocity": 112, "channel": 0}, {"type": "note_off", "time": 69, "note": 66, "velocity": 112, "channel": 0}, {"type": "note_on", "time": 52, "note": 69, "velocity": 117, "channel": 0}, {"type": "note_off", "time": 62, "note": 69, "velocity": 117, "channel": 0}, {"type": "note_on", "time": 8, "note": 68, "velocity": 117, "channel": 0}, {"type": "note_off", "time": 88, "note": 68, "velocity": 117, "channel": 0}, {"type": "note_on", "time": 29, "note": 63, "velocity": 118, "channel": 0}, {"type": "note_off", "time": 61, "note": 63, "velocity": 118, "channel": 0}, {"type": "note_on", "time": 7, "note": 60, "velocity": 112, "channel": 0}, {"type": "note_off", "time": 101, "note": 60, "velocity": 112, "channel": 0}, {"type": "note_on", "time": 9, "note": 56, "velocity": 106, "channel": 0}, {"type": "note_off", "time": 53, "note": 56, "velocity": 106, "channel": 0}, {"type": "note_on", "time": 7, "note": 58, "velocity": 114, "channel": 0}, {"type": "note_off", "time": 109, "note": 58, "velocity": 114, "channel": 0}, {"type": "note_on", "time": 15, "note": 61, "velocity": 110, "channel": 0}, {"type": "note_off", "time": 88, "note": 61, "velocity": 110, "channel": 0}, {"type": "note_on", "time": 491, "note": 73, "velocity": 118, "channel": 0}, {"type": "note_off", "time": 93, "note": 73, "velocity": 118, "channel": 0}, {"type": "note_on", "time": 73, "note": 76, "velocity": 118, "channel": 0}, {"type": "note_off", "time": 54, "note": 76, "velocity": 118, "channel": 0}, {"type": "note_on", "time": 26, "note": 80, "velocity": 118, "channel": 0}, {"type": "note_off", "time": 325, "note": 80, "velocity": 118, "channel": 0}, {"type": "note_on", "time": 34, "note": 75, "velocity": 122, "channel": 0}, {"type": "note_off", "time": 101, "note": 75, "velocity": 122, "channel": 0}, {"type": "note_on", "time": 56, "note": 79, "velocity": 112, "channel": 0}, {"type": "note_off", "time": 49, "note": 79, "velocity": 112, "channel": 0}, {"type": "note_on", "time": 14, "note": 82, "velocity": 119, "channel": 0}, {"type": "note_off", "time": 227, "note": 82, "velocity": 119, "channel": 0}, {"type": "note_on", "time": 555, "note": 73, "velocity": 111, "channel": 0}, {"type": "note_off", "time": 115, "note": 73, "velocity": 111, "channel": 0}, {"type": "note_on", "time": 14, "note": 76, "velocity": 119, "channel": 0}, {"type": "note_off", "time": 55, "note": 76, "velocity": 119, "channel": 0}, {"type": "note_on", "time": 5, "note": 80, "velocity": 118, "channel": 0}, {"type": "note_off", "time": 181, "note": 80, "velocity": 118, "channel": 0}, {"type": "note_on", "time": 28, "note": 80, "velocity": 114, "channel": 0}, {"type": "note_off", "time": 169, "note": 80, "velocity": 114, "channel": 0}, {"type": "note_on", "time": 25, "note": 80, "velocity": 114, "channel": 0}, {"type": "note_off", "time": 171, "note": 80, "velocity": 114, "channel": 0}, {"type": "note_on", "time": 26, "note": 82, "velocity": 117, "channel": 0}, {"type": "note_off", "time": 84, "note": 82, "velocity": 117, "channel": 0}, {"type": "note_on", "time": 27, "note": 78, "velocity": 118, "channel": 0}, {"type": "note_off", "time": 70, "note": 78, "velocity": 118, "channel": 0}, {"type": "note_on", "time": 16, "note": 75, "velocity": 121, "channel": 0}, {"type": "note_off", "time": 225, "note": 75, "velocity": 121, "channel": 0}, {"type": "note_on", "time": 331, "note": 73, "velocity": 112, "channel": 0}, {"type": "note_off", "time": 82, "note": 73, "velocity": 112, "channel": 0}, {"type": "note_on", "time": 98, "note": 76, "velocity": 120, "channel": 0}, {"type": "note_off", "time": 744, "note": 76, "velocity": 120, "channel": 0}, {"type": "note_on", "time": 36, "note": 76, "velocity": 119, "channel": 0}, {"type": "note_off", "time": 89, "note": 76, "velocity": 119, "channel": 0}, {"type": "note_on", "time": 16, "note": 77, "velocity": 121, "channel": 0}, {"type": "note_off", "time": 56, "note": 77, "velocity": 121, "channel": 0}, {"type": "note_on", "time": 11, "note": 75, "velocity": 119, "channel": 0}, {"type": "note_off", "time": 105, "note": 75, "velocity": 119, "channel": 0}, {"type": "note_on", "time": 17, "note": 73, "velocity": 117, "channel": 0}, {"type": "note_off", "time": 62, "note": 73, "velocity": 117, "channel": 0}, {"type": "note_on", "time": 9, "note": 74, "velocity": 121, "channel": 0}, {"type": "note_off", "time": 91, "note": 74, "velocity": 121, "channel": 0}, {"type": "note_on", "time": 26, "note": 70, "velocity": 115, "channel": 0}, {"type": "note_off", "time": 44, "note": 70, "velocity": 115, "channel": 0}, {"type": "note_on", "time": 24, "note": 72, "velocity": 118, "channel": 0}, {"type": "note_off", "time": 104, "note": 72, "velocity": 118, "channel": 0}, {"type": "note_on", "time": 9, "note": 71, "velocity": 112, "channel": 0}, {"type": "note_off", "time": 58, "note": 71, "velocity": 112, "channel": 0}, {"type": "note_on", "time": 24, "note": 70, "velocity": 113, "channel": 0}, {"type": "note_off", "time": 290, "note": 70, "velocity": 113, "channel": 0}, {"type": "note_on", "time": 65, "note": 70, "velocity": 106, "channel": 0}, {"type": "note_off", "time": 35, "note": 70, "velocity": 106, "channel": 0}, {"type": "note_on", "time": 9, "note": 67, "velocity": 111, "channel": 0}, {"type": "note_off", "time": 62, "note": 67, "velocity": 111, "channel": 0}, {"type": "note_on", "time": 11, "note": 69, "velocity": 110, "channel": 0}, {"type": "note_off", "time": 30, "note": 69, "velocity": 110, "channel": 0}, {"type": "note_on", "time": 4, "note": 70, "velocity": 116, "channel": 0}, {"type": "note_off", "time": 48, "note": 70, "velocity": 116, "channel": 0}, {"type": "note_on", "time": 5, "note": 69, "velocity": 114, "channel": 0}, {"type": "note_off", "time": 180, "note": 69, "velocity": 114, "channel": 0}, {"type": "note_on", "time": 498, "note": 76, "velocity": 120, "channel": 0}, {"type": "note_off", "time": 95, "note": 76, "velocity": 120, "channel": 0}, {"type": "note_on", "time": 53, "note": 76, "velocity": 118, "channel": 0}, {"type": "note_off", "time": 375, "note": 76, "velocity": 118, "channel": 0}, {"type": "note_on", "time": 29, "note": 74, "velocity": 114, "channel": 0}, {"type": "note_off", "time": 48, "note": 74, "velocity": 114, "channel": 0}, {"type": "note_on", "time": 22, "note": 77, "velocity": 121, "channel": 0}, {"type": "note_off", "time": 292, "note": 77, "velocity": 121, "channel": 0}, {"type": "note_on", "time": 70, "note": 76, "velocity": 122, "channel": 0}, {"type": "note_off", "time": 157, "note": 76, "velocity": 122, "channel": 0}, {"type": "note_on", "time": 9, "note": 71, "velocity": 105, "channel": 0}, {"type": "note_off", "time": 34, "note": 71, "velocity": 105, "channel": 0}, {"type": "note_on", "time": 8, "note": 77, "velocity": 119, "channel": 0}, {"type": "note_off", "time": 150, "note": 77, "velocity": 119, "channel": 0}, {"type": "note_on", "time": 554, "note": 70, "velocity": 99, "channel": 0}, {"type": "note_off", "time": 50, "note": 70, "velocity": 99, "channel": 0}, {"type": "note_on", "time": 15, "note": 76, "velocity": 108, "channel": 0}, {"type": "note_off", "time": 102, "note": 76, "velocity": 108, "channel": 0}, {"type": "note_on", "time": 8, "note": 77, "velocity": 115, "channel": 0}, {"type": "note_off", "time": 77, "note": 77, "velocity": 115, "channel": 0}, {"type": "note_on", "time": 11, "note": 79, "velocity": 119, "channel": 0}, {"type": "note_off", "time": 88, "note": 79, "velocity": 119, "channel": 0}, {"type": "note_on", "time": 11, "note": 81, "velocity": 119, "channel": 0}, {"type": "note_off", "time": 67, "note": 81, "velocity": 119, "channel": 0}, {"type": "note_on", "time": 12, "note": 82, "velocity": 121, "channel": 0}, {"type": "note_off", "time": 86, "note": 82, "velocity": 121, "channel": 0}, {"type": "note_on", "time": 17, "note": 80, "velocity": 115, "channel": 0}, {"type": "note_off", "time": 70, "note": 80, "velocity": 115, "channel": 0}, {"type": "note_on", "time": 11, "note": 81, "velocity": 122, "channel": 0}, {"type": "note_off", "time": 91, "note": 81, "velocity": 122, "channel": 0}, {"type": "note_on", "time": 12, "note": 79, "velocity": 116, "channel": 0}, {"type": "note_off", "time": 106, "note": 79, "velocity": 116, "channel": 0}, {"type": "note_on", "time": 7, "note": 78, "velocity": 118, "channel": 0}, {"type": "note_off", "time": 73, "note": 78, "velocity": 118, "channel": 0}, {"type": "note_on", "time": 31, "note": 75, "velocity": 122, "channel": 0}, {"type": "note_off", "time": 68, "note": 75, "velocity": 122, "channel": 0}, {"type": "note_on", "time": 8, "note": 74, "velocity": 123, "channel": 0}, {"type": "note_off", "time": 90, "note": 74, "velocity": 123, "channel": 0}, {"type": "note_on", "time": 9, "note": 72, "velocity": 117, "channel": 0}, {"type": "note_off", "time": 70, "note": 72, "velocity": 117, "channel": 0}, {"type": "note_on", "time": 6, "note": 71, "velocity": 113, "channel": 0}, {"type": "note_off", "time": 93, "note": 71, "velocity": 113, "channel": 0}, {"type": "note_on", "time": 15, "note": 69, "velocity": 103, "channel": 0}, {"type": "note_off", "time": 59, "note": 69, "velocity": 103, "channel": 0}, {"type": "note_on", "time": 13, "note": 70, "velocity": 117, "channel": 0}, {"type": "note_off", "time": 110, "note": 70, "velocity": 117, "channel": 0}, {"type": "note_on", "time": 8, "note": 66, "velocity": 111, "channel": 0}, {"type": "note_off", "time": 80, "note": 66, "velocity": 111, "channel": 0}, {"type": "note_on", "time": 460, "note": 69, "velocity": 116, "channel": 0}, {"type": "note_off", "time": 70, "note": 69, "velocity": 116, "channel": 0}, {"type": "note_on", "time": 24, "note": 67, "velocity": 111, "channel": 0}, {"type": "note_off", "time": 91, "note": 67, "velocity": 111, "channel": 0}, {"type": "note_on", "time": 5, "note": 69, "velocity": 117, "channel": 0}, {"type": "note_off", "time": 68, "note": 69, "velocity": 117, "channel": 0}, {"type": "note_on", "time": 5, "note": 70, "velocity": 117, "channel": 0}, {"type": "note_off", "time": 103, "note": 70, "velocity": 117, "channel": 0}, {"type": "note_on", "time": 9, "note": 72, "velocity": 118, "channel": 0}, {"type": "note_off", "time": 74, "note": 72, "velocity": 118, "channel": 0}, {"type": "note_on", "time": 3, "note": 74, "velocity": 120, "channel": 0}, {"type": "note_off", "time": 115, "note": 74, "velocity": 120, "channel": 0}, {"type": "note_on", "time": 5, "note": 77, "velocity": 117, "channel": 0}, {"type": "note_off", "time": 51, "note": 77, "velocity": 117, "channel": 0}, {"type": "note_on", "time": 10, "note": 81, "velocity": 120, "channel": 0}, {"type": "note_off", "time": 136, "note": 81, "velocity": 120, "channel": 0}, {"type": "note_on", "time": 12, "note": 74, "velocity": 99, "channel": 0}, {"type": "note_off", "time": 39, "note": 74, "velocity": 99, "channel": 0}, {"type": "note_on", "time": 9, "note": 79, "velocity": 116, "channel": 0}, {"type": "note_off", "time": 365, "note": 79, "velocity": 116, "channel": 0}, {"type": "note_on", "time": 13, "note": 82, "velocity": 121, "channel": 0}, {"type": "note_off", "time": 140, "note": 82, "velocity": 121, "channel": 0}, {"type": "note_on", "time": 9, "note": 84, "velocity": 123, "channel": 0}, {"type": "note_off", "time": 72, "note": 84, "velocity": 123, "channel": 0}, {"type": "note_on", "time": 925, "note": 87, "velocity": 9, "channel": 0}, {"type": "note_off", "time": 1282, "note": 87, "velocity": 9, "channel": 0}, {"type": "note_on", "time": 17, "note": 86, "velocity": 122, "channel": 0}, {"type": "note_off", "time": 111, "note": 86, "velocity": 122, "channel": 0}, {"type": "note_on", "time": 174, "note": 81, "velocity": 126, "channel": 0}, {"type": "note_off", "time": 97, "note": 81, "velocity": 126, "channel": 0}, {"type": "note_on", "time": 14, "note": 80, "velocity": 124, "channel": 0}, {"type": "note_off", "time": 90, "note": 80, "velocity": 124, "channel": 0}, {"type": "note_on", "time": 7, "note": 80, "velocity": 117, "channel": 0}, {"type": "note_off", "time": 24, "note": 80, "velocity": 117, "channel": 0}, {"type": "note_on", "time": 10, "note": 78, "velocity": 125, "channel": 0}, {"type": "note_off", "time": 52, "note": 78, "velocity": 125, "channel": 0}, {"type": "note_on", "time": 9, "note": 77, "velocity": 125, "channel": 0}, {"type": "note_off", "time": 96, "note": 77, "velocity": 125, "channel": 0}, {"type": "note_on", "time": 12, "note": 76, "velocity": 121, "channel": 0}, {"type": "note_off", "time": 48, "note": 76, "velocity": 121, "channel": 0}, {"type": "note_on", "time": 19, "note": 77, "velocity": 120, "channel": 0}, {"type": "note_off", "time": 85, "note": 77, "velocity": 120, "channel": 0}, {"type": "note_on", "time": 11, "note": 76, "velocity": 123, "channel": 0}, {"type": "note_off", "time": 77, "note": 76, "velocity": 123, "channel": 0}, {"type": "note_on", "time": 8, "note": 75, "velocity": 124, "channel": 0}, {"type": "note_off", "time": 92, "note": 75, "velocity": 124, "channel": 0}, {"type": "note_on", "time": 8, "note": 74, "velocity": 123, "channel": 0}, {"type": "note_off", "time": 66, "note": 74, "velocity": 123, "channel": 0}, {"type": "note_on", "time": 10, "note": 72, "velocity": 120, "channel": 0}, {"type": "note_off", "time": 39, "note": 72, "velocity": 120, "channel": 0}, {"type": "note_on", "time": 7, "note": 73, "velocity": 111, "channel": 0}, {"type": "note_off", "time": 38, "note": 73, "velocity": 111, "channel": 0}, {"type": "note_on", "time": 6, "note": 72, "velocity": 120, "channel": 0}, {"type": "note_off", "time": 31, "note": 72, "velocity": 120, "channel": 0}, {"type": "note_on", "time": 6, "note": 71, "velocity": 111, "channel": 0}, {"type": "note_off", "time": 67, "note": 71, "velocity": 111, "channel": 0}, {"type": "note_on", "time": 16, "note": 70, "velocity": 116, "channel": 0}, {"type": "note_off", "time": 81, "note": 70, "velocity": 116, "channel": 0}, {"type": "note_on", "time": 10, "note": 69, "velocity": 116, "channel": 0}, {"type": "note_off", "time": 70, "note": 69, "velocity": 116, "channel": 0}, {"type": "note_on", "time": 8, "note": 68, "velocity": 116, "channel": 0}, {"type": "note_off", "time": 88, "note": 68, "velocity": 116, "channel": 0}, {"type": "note_on", "time": 8, "note": 70, "velocity": 117, "channel": 0}, {"type": "note_off", "time": 42, "note": 70, "velocity": 117, "channel": 0}, {"type": "note_on", "time": 15, "note": 67, "velocity": 114, "channel": 0}, {"type": "note_off", "time": 119, "note": 67, "velocity": 114, "channel": 0}, {"type": "note_on", "time": 17, "note": 70, "velocity": 112, "channel": 0}, {"type": "note_off", "time": 251, "note": 70, "velocity": 112, "channel": 0}, {"type": "note_on", "time": 502, "note": 66, "velocity": 118, "channel": 0}, {"type": "note_off", "time": 24, "note": 66, "velocity": 118, "channel": 0}, {"type": "note_on", "time": 6, "note": 67, "velocity": 121, "channel": 0}, {"type": "note_off", "time": 35, "note": 67, "velocity": 121, "channel": 0}, {"type": "note_on", "time": 14, "note": 68, "velocity": 119, "channel": 0}, {"type": "note_off", "time": 73, "note": 68, "velocity": 119, "channel": 0}, {"type": "note_on", "time": 34, "note": 70, "velocity": 119, "channel": 0}, {"type": "note_off", "time": 64, "note": 70, "velocity": 119, "channel": 0}, {"type": "note_on", "time": 17, "note": 72, "velocity": 117, "channel": 0}, {"type": "note_off", "time": 79, "note": 72, "velocity": 117, "channel": 0}, {"type": "note_on", "time": 6, "note": 74, "velocity": 127, "channel": 0}, {"type": "note_off", "time": 81, "note": 74, "velocity": 127, "channel": 0}, {"type": "note_on", "time": 3, "note": 76, "velocity": 124, "channel": 0}, {"type": "note_off", "time": 92, "note": 76, "velocity": 124, "channel": 0}, {"type": "note_on", "time": 12, "note": 77, "velocity": 123, "channel": 0}, {"type": "note_off", "time": 50, "note": 77, "velocity": 123, "channel": 0}, {"type": "note_on", "time": 20, "note": 79, "velocity": 122, "channel": 0}, {"type": "note_off", "time": 126, "note": 79, "velocity": 122, "channel": 0}, {"type": "note_on", "time": 77, "note": 77, "velocity": 121, "channel": 0}, {"type": "note_off", "time": 99, "note": 77, "velocity": 121, "channel": 0}, {"type": "note_on", "time": 83, "note": 80, "velocity": 117, "channel": 0}, {"type": "note_off", "time": 110, "note": 80, "velocity": 117, "channel": 0}, {"type": "note_on", "time": 26, "note": 74, "velocity": 103, "channel": 0}, {"type": "note_off", "time": 37, "note": 74, "velocity": 103, "channel": 0}, {"type": "note_on", "time": 17, "note": 79, "velocity": 121, "channel": 0}, {"type": "note_off", "time": 110, "note": 79, "velocity": 121, "channel": 0}, {"type": "note_on", "time": 19, "note": 73, "velocity": 97, "channel": 0}, {"type": "note_off", "time": 35, "note": 73, "velocity": 97, "channel": 0}, {"type": "note_on", "time": 14, "note": 77, "velocity": 113, "channel": 0}, {"type": "note_off", "time": 321, "note": 77, "velocity": 113, "channel": 0}, {"type": "note_on", "time": 261, "note": 79, "velocity": 120, "channel": 0}, {"type": "note_off", "time": 148, "note": 79, "velocity": 120, "channel": 0}, {"type": "note_on", "time": 12, "note": 82, "velocity": 122, "channel": 0}, {"type": "note_off", "time": 563, "note": 82, "velocity": 122, "channel": 0}, {"type": "note_on", "time": 24, "note": 79, "velocity": 114, "channel": 0}, {"type": "note_off", "time": 103, "note": 79, "velocity": 114, "channel": 0}, {"type": "note_on", "time": 14, "note": 81, "velocity": 121, "channel": 0}, {"type": "note_off", "time": 108, "note": 81, "velocity": 121, "channel": 0}, {"type": "note_on", "time": 931, "note": 76, "velocity": 112, "channel": 0}, {"type": "note_off", "time": 69, "note": 76, "velocity": 112, "channel": 0}, {"type": "note_on", "time": 22, "note": 77, "velocity": 122, "channel": 0}, {"type": "note_off", "time": 70, "note": 77, "velocity": 122, "channel": 0}, {"type": "note_on", "time": 18, "note": 79, "velocity": 122, "channel": 0}, {"type": "note_off", "time": 90, "note": 79, "velocity": 122, "channel": 0}, {"type": "note_on", "time": 4, "note": 81, "velocity": 120, "channel": 0}, {"type": "note_off", "time": 61, "note": 81, "velocity": 120, "channel": 0}, {"type": "note_on", "time": 6, "note": 82, "velocity": 117, "channel": 0}, {"type": "note_off", "time": 91, "note": 82, "velocity": 117, "channel": 0}, {"type": "note_on", "time": 11, "note": 84, "velocity": 123, "channel": 0}, {"type": "note_off", "time": 257, "note": 84, "velocity": 123, "channel": 0}, {"type": "note_on", "time": 17, "note": 82, "velocity": 121, "channel": 0}, {"type": "note_off", "time": 95, "note": 82, "velocity": 121, "channel": 0}, {"type": "note_on", "time": 43, "note": 81, "velocity": 121, "channel": 0}, {"type": "note_off", "time": 152, "note": 81, "velocity": 121, "channel": 0}, {"type": "note_on", "time": 2, "note": 77, "velocity": 112, "channel": 0}, {"type": "note_off", "time": 70, "note": 77, "velocity": 112, "channel": 0}, {"type": "note_on", "time": 14, "note": 77, "velocity": 120, "channel": 0}, {"type": "note_off", "time": 88, "note": 77, "velocity": 120, "channel": 0}, {"type": "note_on", "time": 10, "note": 82, "velocity": 119, "channel": 0}, {"type": "note_off", "time": 79, "note": 82, "velocity": 119, "channel": 0}, {"type": "note_on", "time": 13, "note": 80, "velocity": 120, "channel": 0}, {"type": "note_off", "time": 101, "note": 80, "velocity": 120, "channel": 0}, {"type": "note_on", "time": 10, "note": 78, "velocity": 112, "channel": 0}, {"type": "note_off", "time": 27, "note": 78, "velocity": 112, "channel": 0}, {"type": "note_on", "time": 5, "note": 76, "velocity": 123, "channel": 0}, {"type": "note_off", "time": 52, "note": 76, "velocity": 123, "channel": 0}, {"type": "note_on", "time": 3, "note": 77, "velocity": 123, "channel": 0}, {"type": "note_off", "time": 89, "note": 77, "velocity": 123, "channel": 0}, {"type": "note_on", "time": 10, "note": 76, "velocity": 124, "channel": 0}, {"type": "note_off", "time": 66, "note": 76, "velocity": 124, "channel": 0}, {"type": "note_on", "time": 7, "note": 75, "velocity": 124, "channel": 0}, {"type": "note_off", "time": 86, "note": 75, "velocity": 124, "channel": 0}, {"type": "note_on", "time": 12, "note": 74, "velocity": 124, "channel": 0}, {"type": "note_off", "time": 55, "note": 74, "velocity": 124, "channel": 0}, {"type": "note_on", "time": 15, "note": 73, "velocity": 119, "channel": 0}, {"type": "note_off", "time": 90, "note": 73, "velocity": 119, "channel": 0}, {"type": "note_on", "time": 22, "note": 71, "velocity": 110, "channel": 0}, {"type": "note_off", "time": 75, "note": 71, "velocity": 110, "channel": 0}, {"type": "note_on", "time": 9, "note": 72, "velocity": 118, "channel": 0}, {"type": "note_off", "time": 282, "note": 72, "velocity": 118, "channel": 0}, {"type": "note_on", "time": 113, "note": 69, "velocity": 112, "channel": 0}, {"type": "note_off", "time": 86, "note": 69, "velocity": 112, "channel": 0}, {"type": "note_on", "time": 8, "note": 70, "velocity": 118, "channel": 0}, {"type": "note_off", "time": 68, "note": 70, "velocity": 118, "channel": 0}, {"type": "note_on", "time": 8, "note": 72, "velocity": 117, "channel": 0}, {"type": "note_off", "time": 99, "note": 72, "velocity": 117, "channel": 0}, {"type": "note_on", "time": 9, "note": 70, "velocity": 113, "channel": 0}, {"type": "note_off", "time": 276, "note": 70, "velocity": 113, "channel": 0}, {"type": "note_on", "time": 300, "note": 82, "velocity": 114, "channel": 0}, {"type": "note_off", "time": 97, "note": 82, "velocity": 114, "channel": 0}, {"type": "note_on", "time": 80, "note": 82, "velocity": 117, "channel": 0}, {"type": "note_off", "time": 82, "note": 82, "velocity": 117, "channel": 0}, {"type": "note_on", "time": 13, "note": 81, "velocity": 124, "channel": 0}, {"type": "note_off", "time": 153, "note": 81, "velocity": 124, "channel": 0}, {"type": "note_on", "time": 21, "note": 78, "velocity": 116, "channel": 0}, {"type": "note_off", "time": 102, "note": 78, "velocity": 116, "channel": 0}, {"type": "note_on", "time": 91, "note": 75, "velocity": 123, "channel": 0}, {"type": "note_off", "time": 98, "note": 75, "velocity": 123, "channel": 0}, {"type": "note_on", "time": 73, "note": 72, "velocity": 121, "channel": 0}, {"type": "note_off", "time": 101, "note": 72, "velocity": 121, "channel": 0}, {"type": "note_on", "time": 20, "note": 69, "velocity": 100, "channel": 0}, {"type": "note_off", "time": 44, "note": 69, "velocity": 100, "channel": 0}, {"type": "note_on", "time": 19, "note": 73, "velocity": 117, "channel": 0}, {"type": "note_off", "time": 96, "note": 73, "velocity": 117, "channel": 0}, {"type": "note_on", "time": 31, "note": 70, "velocity": 117, "channel": 0}, {"type": "note_off", "time": 50, "note": 70, "velocity": 117, "channel": 0}, {"type": "note_on", "time": 22, "note": 66, "velocity": 118, "channel": 0}, {"type": "note_off", "time": 97, "note": 66, "velocity": 118, "channel": 0}, {"type": "note_on", "time": 6, "note": 69, "velocity": 107, "channel": 0}, {"type": "note_off", "time": 269, "note": 69, "velocity": 107, "channel": 0}, {"type": "note_on", "time": 12, "note": 64, "velocity": 105, "channel": 0}, {"type": "note_off", "time": 104, "note": 64, "velocity": 105, "channel": 0}, {"type": "end_of_track", "time": 0}]]}