{"ticks_per_beat": 192, "tracks": [[{"type": "note_on", "time": 0, "note": 79, "velocity": 119, "channel": 0}, {"type": "track_name", "name": "Melody", "time": 521}, {"type": "set_tempo", "tempo": 348837, "time": 0}, {"type": "key_signature", "key": "Eb", "time": 0}, {"type": "time_signature", "numerator": 4, "denominator": 4, "clocks_per_click": 24, "notated_32nd_notes_per_beat": 8, "time": 0}, {"type": "note_off", "time": 3, "note": 79, "velocity": 119, "channel": 0}, {"type": "note_on", "time": 26, "note": 75, "velocity": 107, "channel": 0}, {"type": "note_off", "time": 35, "note": 75, "velocity": 107, "channel": 0}, {"type": "note_on", "time": 8, "note": 77, "velocity": 122, "channel": 0}, {"type": "note_off", "time": 318, "note": 77, "velocity": 122, "channel": 0}, {"type": "note_on", "time": 0, "note": 76, "velocity": 122, "channel": 0}, {"type": "note_off", "time": 95, "note": 76, "velocity": 122, "channel": 0}, {"type": "note_on", "time": 0, "note": 74, "velocity": 118, "channel": 0}, {"type": "note_off", "time": 41, "note": 74, "velocity": 118, "channel": 0}, {"type": "note_on", "time": 9, "note": 73, "velocity": 112, "channel": 0}, {"type": "note_off", "time": 35, "note": 73, "velocity": 112, "channel": 0}, {"type": "note_on", "time": 6, "note": 72, "velocity": 109, "channel": 0}, {"type": "note_off", "time": 76, "note": 72, "velocity": 109, "channel": 0}, {"type": "note_on", "time": 28, "note": 71, "velocity": 114, "channel": 0}, {"type": "note_off", "time": 89, "note": 71, "velocity": 114, "channel": 0}, {"type": "note_on", "time": 19, "note": 70, "velocity": 125, "channel": 0}, {"type": "note_off", "time": 89, "note": 70, "velocity": 125, "channel": 0}, {"type": "note_on", "time": 0, "note": 67, "velocity": 113, "channel": 0}, {"type": "note_off", "time": 73, "note": 67, "velocity": 113, "channel": 0}, {"type": "note_on", "time": 12, "note": 68, "velocity": 116, "channel": 0}, {"type": "note_off", "time": 60, "note": 68, "velocity": 116, "channel": 0}, {"type": "note_on", "time": 9, "note": 70, "velocity": 124, "channel": 0}, {"type": "note_off", "time": 63, "note": 70, "velocity": 124, "channel": 0}, {"type": "note_on", "time": 9, "note": 68, "velocity": 118, "channel": 0}, {"type": "note_off", "time": 57, "note": 68, "velocity": 118, "channel": 0}, {"type": "note_on", "time": 6, "note": 67, "velocity": 124, "channel": 0}, {"type": "note_off", "time": 57, "note": 67, "velocity": 124, "channel": 0}, {"type": "note_on", "time": 12, "note": 69, "velocity": 118, "channel": 0}, {"type": "note_off", "time": 38, "note": 69, "velocity": 118, "channel": 0}, {"type": "note_on", "time": 28, "note": 66, "velocity": 101, "channel": 0}, {"type": "note_off", "time": 57, "note": 66, "velocity": 101, "channel": 0}, {"type": "note_on", "time": 12, "note": 62, "velocity": 101, "channel": 0}, {"type": "note_on", "time": 63, "note": 65, "velocity": 98, "channel": 0}, {"type": "note_off", "time": 0, "note": 62, "velocity": 101, "channel": 0}, {"type": "note_off", "time": 102, "note": 65, "velocity": 98, "channel": 0}, {"type": "note_on", "time": 12, "note": 63, "velocity": 99, "channel": 0}, {"type": "note_off", "time": 60, "note": 63, "velocity": 99, "channel": 0}, {"type": "note_on", "time": 41, "note": 55, "velocity": 105, "channel": 0}, {"type": "note_off", "time": 70, "note": 55, "velocity": 105, "channel": 0}, {"type": "note_on", "time": 12, "note": 56, "velocity": 97, "channel": 0}, {"type": "note_off", "time": 115, "note": 56, "velocity": 97, "channel": 0}, {"type": "note_on", "time": 6, "note": 58, "velocity": 89, "channel": 0}, {"type": "note_off", "time": 313, "note": 58, "velocity": 89, "channel": 0}, {"type": "note_on", "time": 242, "note": 55, "velocity": 106, "channel": 0}, {"type": "note_off", "time": 63, "note": 55, "velocity": 106, "channel": 0}, {"type": "note_on", "time": 0, "note": 58, "velocity": 99, "channel": 0}, {"type": "note_off", "time": 38, "note": 58, "velocity": 99, "channel": 0}, {"type": "note_on", "time": 15, "note": 62, "velocity": 100, "channel": 0}, {"type": "note_off", "time": 31, "note": 62, "velocity": 100, "channel": 0}, {"type": "note_on", "time": 3, "note": 65, "velocity": 109, "channel": 0}, {"type": "note_off", "time": 130, "note": 65, "velocity": 109, "channel": 0}, {"type": "note_on", "time": 19, "note": 62, "velocity": 104, "channel": 0}, {"type": "note_off", "time": 76, "note": 62, "velocity": 104, "channel": 0}, {"type": "note_on", "time": 2, "note": 63, "velocity": 106, "channel": 0}, {"type": "note_off", "time": 67, "note": 63, "velocity": 106, "channel": 0}, {"type": "note_on", "time": 8, "note": 65, "velocity": 116, "channel": 0}, {"type": "note_off", "time": 85, "note": 65, "velocity": 116, "channel": 0}, {"type": "note_on", "time": 17, "note": 67, "velocity": 120, "channel": 0}, {"type": "note_off", "time": 76, "note": 67, "velocity": 120, "channel": 0}, {"type": "note_on", "time": 26, "note": 70, "velocity": 125, "channel": 0}, {"type": "note_off", "time": 103, "note": 70, "velocity": 125, "channel": 0}, {"type": "note_on", "time": 17, "note": 73, "velocity": 119, "channel": 0}, {"type": "note_off", "time": 103, "note": 73, "velocity": 119, "channel": 0}, {"type": "note_on", "time": 17, "note": 71, "velocity": 109, "channel": 0}, {"type": "note_off", "time": 71, "note": 71, "velocity": 109, "channel": 0}, {"type": "note_on", "time": 13, "note": 68, "velocity": 109, "channel": 0}, {"type": "note_off", "time": 795, "note": 68, "velocity": 109, "channel": 0}, {"type": "note_on", "time": 406, "note": 69, "velocity": 82, "channel": 0}, {"type": "note_off", "time": 31, "note": 69, "velocity": 82, "channel": 0}, {"type": "note_on", "time": 17, "note": 70, "velocity": 122, "channel": 0}, {"type": "note_off", "time": 51, "note": 70, "velocity": 122, "channel": 0}, {"type": "note_on", "time": 17, "note": 71, "velocity": 113, "channel": 0}, {"type": "note_off", "time": 33, "note": 71, "velocity": 113, "channel": 0}, {"type": "note_on", "time": 2, "note": 72, "velocity": 112, "channel": 0}, {"type": "note_off", "time": 38, "note": 72, "velocity": 112, "channel": 0}, {"type": "note_on", "time": 8, "note": 71, "velocity": 117, "channel": 0}, {"type": "note_on", "time": 38, "note": 70, "velocity": 117, "channel": 0}, {"type": "note_off", "time": 0, "note": 71, "velocity": 117, "channel": 0}, {"type": "note_off", "time": 47, "note": 70, "velocity": 117, "channel": 0}, {"type": "note_on", "time": 0, "note": 69, "velocity": 117, "channel": 0}, {"type": "note_off", "time": 26, "note": 69, "velocity": 117, "channel": 0}, {"type": "note_on", "time": 13, "note": 70, "velocity": 118, "channel": 0}, {"type": "note_off", "time": 35, "note": 70, "velocity": 118, "channel": 0}, {"type": "note_on", "time": 15, "note": 71, "velocity": 107, "channel": 0}, {"type": "note_off", "time": 38, "note": 71, "velocity": 107, "channel": 0}, {"type": "note_on", "time": 0, "note": 72, "velocity": 106, "channel": 0}, {"type": "note_off", "time": 49, "note": 72, "velocity": 106, "channel": 0}, {"type": "note_on", "time": 1, "note": 71, "velocity": 110, "channel": 0}, {"type": "note_off", "time": 43, "note": 71, "velocity": 110, "channel": 0}, {"type": "note_on", "time": 9, "note": 70, "velocity": 120, "channel": 0}, {"type": "note_on", "time": 35, "note": 69, "velocity": 119, "channel": 0}, {"type": "note_off", "time": 0, "note": 70, "velocity": 120, "channel": 0}, {"type": "note_off", "time": 15, "note": 69, "velocity": 119, "channel": 0}, {"type": "note_on", "time": 4, "note": 70, "velocity": 116, "channel": 0}, {"type": "note_off", "time": 36, "note": 70, "velocity": 116, "channel": 0}, {"type": "note_on", "time": 1, "note": 69, "velocity": 115, "channel": 0}, {"type": "note_off", "time": 23, "note": 69, "velocity": 115, "channel": 0}, {"type": "note_on", "time": 9, "note": 68, "velocity": 104, "channel": 0}, {"type": "note_off", "time": 38, "note": 68, "velocity": 104, "channel": 0}, {"type": "note_on", "time": 188, "note": 68, "velocity": 98, "channel": 0}, {"type": "note_off", "time": 31, "note": 68, "velocity": 98, "channel": 0}, {"type": "note_on", "time": 11, "note": 69, "velocity": 125, "channel": 0}, {"type": "note_off", "time": 44, "note": 69, "velocity": 125, "channel": 0}, {"type": "note_on", "time": 4, "note": 70, "velocity": 120, "channel": 0}, {"type": "note_off", "time": 33, "note": 70, "velocity": 120, "channel": 0}, {"type": "note_on", "time": 15, "note": 69, "velocity": 121, "channel": 0}, {"type": "note_off", "time": 169, "note": 69, "velocity": 121, "channel": 0}, {"type": "note_on", "time": 4, "note": 67, "velocity": 115, "channel": 0}, {"type": "note_off", "time": 28, "note": 67, "velocity": 115, "channel": 0}, {"type": "note_on", "time": 6, "note": 62, "velocity": 102, "channel": 0}, {"type": "note_off", "time": 68, "note": 62, "velocity": 102, "channel": 0}, {"type": "note_on", "time": 27, "note": 65, "velocity": 105, "channel": 0}, {"type": "note_off", "time": 91, "note": 65, "velocity": 105, "channel": 0}, {"type": "note_on", "time": 7, "note": 63, "velocity": 103, "channel": 0}, {"type": "note_off", "time": 87, "note": 63, "velocity": 103, "channel": 0}, {"type": "note_on", "time": 7, "note": 58, "velocity": 106, "channel": 0}, {"type": "note_off", "time": 57, "note": 58, "velocity": 106, "channel": 0}, {"type": "note_on", "time": 9, "note": 55, "velocity": 106, "channel": 0}, {"type": "note_off", "time": 118, "note": 55, "velocity": 106, "channel": 0}, {"type": "note_on", "time": 0, "note": 56, "velocity": 99, "channel": 0}, {"type": "note_off", "time": 70, "note": 56, "velocity": 99, "channel": 0}, {"type": "note_on", "time": 0, "note": 58, "velocity": 95, "channel": 0}, {"type": "note_off", "time": 292, "note": 58, "velocity": 95, "channel": 0}, {"type": "note_on", "time": 616, "note": 70, "velocity": 101, "channel": 0}, {"type": "note_off", "time": 67, "note": 70, "velocity": 101, "channel": 0}, {"type": "note_on", "time": 3, "note": 75, "velocity": 114, "channel": 0}, {"type": "note_off", "time": 87, "note": 75, "velocity": 114, "channel": 0}, {"type": "note_on", "time": 469, "note": 74, "velocity": 116, "channel": 0}, {"type": "note_off", "time": 107, "note": 74, "velocity": 116, "channel": 0}, {"type": "note_on", "time": 12, "note": 75, "velocity": 114, "channel": 0}, {"type": "note_off", "time": 73, "note": 75, "velocity": 114, "channel": 0}, {"type": "note_on", "time": 7, "note": 74, "velocity": 113, "channel": 0}, {"type": "note_off", "time": 92, "note": 74, "velocity": 113, "channel": 0}, {"type": "note_on", "time": 20, "note": 76, "velocity": 93, "channel": 0}, {"type": "note_off", "time": 55, "note": 76, "velocity": 93, "channel": 0}, {"type": "note_on", "time": 79, "note": 70, "velocity": 106, "channel": 0}, {"type": "note_off", "time": 70, "note": 70, "velocity": 106, "channel": 0}, {"type": "note_on", "time": 1, "note": 67, "velocity": 115, "channel": 0}, {"type": "note_off", "time": 67, "note": 67, "velocity": 115, "channel": 0}, {"type": "note_on", "time": 7, "note": 68, "velocity": 108, "channel": 0}, {"type": "note_off", "time": 43, "note": 68, "velocity": 108, "channel": 0}, {"type": "note_on", "time": 10, "note": 70, "velocity": 116, "channel": 0}, {"type": "note_off", "time": 66, "note": 70, "velocity": 116, "channel": 0}, {"type": "note_on", "time": 5, "note": 68, "velocity": 114, "channel": 0}, {"type": "note_off", "time": 52, "note": 68, "velocity": 114, "channel": 0}, {"type": "note_on", "time": 12, "note": 67, "velocity": 113, "channel": 0}, {"type": "note_off", "time": 69, "note": 67, "velocity": 113, "channel": 0}, {"type": "note_on", "time": 8, "note": 69, "velocity": 114, "channel": 0}, {"type": "note_off", "time": 44, "note": 69, "velocity": 114, "channel": 0}, {"type": "note_on", "time": 7, "note": 67, "velocity": 112, "channel": 0}, {"type": "note_off", "time": 37, "note": 67, "velocity": 112, "channel": 0}, {"type": "note_on", "time": 6, "note": 65, "velocity": 97, "channel": 0}, {"type": "note_off", "time": 25, "note": 65, "velocity": 97, "channel": 0}, {"type": "note_on", "time": 7, "note": 62, "velocity": 98, "channel": 0}, {"type": "note_off", "time": 83, "note": 62, "velocity": 98, "channel": 0}, {"type": "note_on", "time": 25, "note": 65, "velocity": 103, "channel": 0}, {"type": "note_off", "time": 67, "note": 65, "velocity": 103, "channel": 0}, {"type": "note_on", "time": 4, "note": 63, "velocity": 95, "channel": 0}, {"type": "note_off", "time": 76, "note": 63, "velocity": 95, "channel": 0}, {"type": "note_on", "time": 33, "note": 55, "velocity": 106, "channel": 0}, {"type": "note_off", "time": 76, "note": 55, "velocity": 106, "channel": 0}, {"type": "note_on", "time": 11, "note": 56, "velocity": 97, "channel": 0}, {"type": "note_off", "time": 102, "note": 56, "velocity": 97, "channel": 0}, {"type": "note_on", "time": 11, "note": 58, "velocity": 107, "channel": 0}, {"type": "note_off", "time": 62, "note": 58, "velocity": 107, "channel": 0}, {"type": "note_on", "time": 12, "note": 55, "velocity": 107, "channel": 0}, {"type": "note_off", "time": 65, "note": 55, "velocity": 107, "channel": 0}, {"type": "note_on", "time": 7, "note": 56, "velocity": 101, "channel": 0}, {"type": "note_off", "time": 46, "note": 56, "velocity": 101, "channel": 0}, {"type": "note_on", "time": 7, "note": 58, "velocity": 99, "channel": 0}, {"type": "note_off", "time": 31, "note": 58, "velocity": 99, "channel": 0}, {"type": "note_on", "time": 4, "note": 62, "velocity": 94, "channel": 0}, {"type": "note_off", "time": 36, "note": 62, "velocity": 94, "channel": 0}, {"type": "note_on", "time": 15, "note": 65, "velocity": 110, "channel": 0}, {"type": "note_off", "time": 100, "note": 65, "velocity": 110, "channel": 0}, {"type": "note_on", "time": 9, "note": 62, "velocity": 93, "channel": 0}, {"type": "note_off", "time": 52, "note": 62, "velocity": 93, "channel": 0}, {"type": "note_on", "time": 12, "note": 63, "velocity": 101, "channel": 0}, {"type": "note_off", "time": 75, "note": 63, "velocity": 101, "channel": 0}, {"type": "note_on", "time": 12, "note": 65, "velocity": 99, "channel": 0}, {"type": "note_off", "time": 33, "note": 65, "velocity": 99, "channel": 0}, {"type": "note_on", "time": 7, "note": 67, "velocity": 108, "channel": 0}, {"type": "note_off", "time": 67, "note": 67, "velocity": 108, "channel": 0}, {"type": "note_on", "time": 15, "note": 70, "velocity": 120, "channel": 0}, {"type": "note_off", "time": 108, "note": 70, "velocity": 120, "channel": 0}, {"type": "note_on", "time": 22, "note": 72, "velocity": 103, "channel": 0}, {"type": "note_off", "time": 54, "note": 72, "velocity": 103, "channel": 0}, {"type": "note_on", "time": 17, "note": 73, "velocity": 114, "channel": 0}, {"type": "note_off", "time": 107, "note": 73, "velocity": 114, "channel": 0}, {"type": "note_on", "time": 11, "note": 72, "velocity": 107, "channel": 0}, {"type": "note_off", "time": 55, "note": 72, "velocity": 107, "channel": 0}, {"type": "note_on", "time": 6, "note": 70, "velocity": 119, "channel": 0}, {"type": "note_off", "time": 123, "note": 70, "velocity": 119, "channel": 0}, {"type": "note_on", "time": 1, "note": 67, "velocity": 109, "channel": 0}, {"type": "note_off", "time": 68, "note": 67, "velocity": 109, "channel": 0}, {"type": "note_on", "time": 7, "note": 68, "velocity": 115, "channel": 0}, {"type": "note_off", "time": 94, "note": 68, "velocity": 115, "channel": 0}, {"type": "note_on", "time": 265, "note": 68, "velocity": 119, "channel": 0}, {"type": "note_off", "time": 67, "note": 68, "velocity": 119, "channel": 0}, {"type": "note_on", "time": 11, "note": 70, "velocity": 122, "channel": 0}, {"type": "note_off", "time": 59, "note": 70, "velocity": 122, "channel": 0}, {"type": "note_on", "time": 3, "note": 67, "velocity": 114, "channel": 0}, {"type": "note_off", "time": 38, "note": 67, "velocity": 114, "channel": 0}, {"type": "note_on", "time": 7, "note": 66, "velocity": 109, "channel": 0}, {"type": "note_off", "time": 31, "note": 66, "velocity": 109, "channel": 0}, {"type": "note_on", "time": 17, "note": 65, "velocity": 106, "channel": 0}, {"type": "note_off", "time": 67, "note": 65, "velocity": 106, "channel": 0}, {"type": "note_on", "time": 19, "note": 63, "velocity": 106, "channel": 0}, {"type": "note_off", "time": 70, "note": 63, "velocity": 106, "channel": 0}, {"type": "note_on", "time": 14, "note": 61, "velocity": 92, "channel": 0}, {"type": "note_off", "time": 103, "note": 61, "velocity": 92, "channel": 0}, {"type": "note_on", "time": 798, "note": 53, "velocity": 114, "channel": 0}, {"type": "note_off", "time": 57, "note": 53, "velocity": 114, "channel": 0}, {"type": "note_on", "time": 11, "note": 55, "velocity": 101, "channel": 0}, {"type": "note_off", "time": 39, "note": 55, "velocity": 101, "channel": 0}, {"type": "note_on", "time": 14, "note": 58, "velocity": 94, "channel": 0}, {"type": "note_off", "time": 46, "note": 58, "velocity": 94, "channel": 0}, {"type": "note_on", "time": 11, "note": 61, "velocity": 103, "channel": 0}, {"type": "note_off", "time": 68, "note": 61, "velocity": 103, "channel": 0}, {"type": "note_on", "time": 35, "note": 65, "velocity": 111, "channel": 0}, {"type": "note_off", "time": 99, "note": 65, "velocity": 111, "channel": 0}, {"type": "note_on", "time": 3, "note": 63, "velocity": 98, "channel": 0}, {"type": "note_off", "time": 60, "note": 63, "velocity": 98, "channel": 0}, {"type": "note_on", "time": 3, "note": 61, "velocity": 91, "channel": 0}, {"type": "note_off", "time": 99, "note": 61, "velocity": 91, "channel": 0}, {"type": "note_on", "time": 1, "note": 60, "velocity": 97, "channel": 0}, {"type": "note_off", "time": 65, "note": 60, "velocity": 97, "channel": 0}, {"type": "note_on", "time": 12, "note": 55, "velocity": 105, "channel": 0}, {"type": "note_off", "time": 159, "note": 55, "velocity": 105, "channel": 0}, {"type": "note_on", "time": 4, "note": 63, "velocity": 98, "channel": 0}, {"type": "note_off", "time": 47, "note": 63, "velocity": 98, "channel": 0}, {"type": "note_on", "time": 22, "note": 67, "velocity": 119, "channel": 0}, {"type": "note_off", "time": 102, "note": 67, "velocity": 119, "channel": 0}, {"type": "note_on", "time": 11, "note": 70, "velocity": 127, "channel": 0}, {"type": "note_off", "time": 83, "note": 70, "velocity": 127, "channel": 0}, {"type": "note_on", "time": 6, "note": 68, "velocity": 111, "channel": 0}, {"type": "note_off", "time": 134, "note": 68, "velocity": 111, "channel": 0}, {"type": "note_on", "time": 43, "note": 63, "velocity": 96, "channel": 0}, {"type": "note_off", "time": 102, "note": 63, "velocity": 96, "channel": 0}, {"type": "note_on", "time": 11, "note": 65, "velocity": 105, "channel": 0}, {"type": "note_off", "time": 123, "note": 65, "velocity": 105, "channel": 0}, {"type": "note_on", "time": 4, "note": 63, "velocity": 100, "channel": 0}, {"type": "note_off", "time": 119, "note": 63, "velocity": 100, "channel": 0}, {"type": "note_on", "time": 31, "note": 55, "velocity": 105, "channel": 0}, {"type": "note_off", "time": 92, "note": 55, "velocity": 105, "channel": 0}, {"type": "note_on", "time": 0, "note": 56, "velocity": 94, "channel": 0}, {"type": "note_off", "time": 81, "note": 56, "velocity": 94, "channel": 0}, {"type": "note_on", "time": 1, "note": 58, "velocity": 95, "channel": 0}, {"type": "note_off", "time": 284, "note": 58, "velocity": 95, "channel": 0}, {"type": "note_on", "time": 803, "note": 70, "velocity": 115, "channel": 0}, {"type": "note_off", "time": 41, "note": 70, "velocity": 115, "channel": 0}, {"type": "note_on", "time": 11, "note": 67, "velocity": 102, "channel": 0}, {"type": "note_off", "time": 22, "note": 67, "velocity": 102, "channel": 0}, {"type": "note_on", "time": 6, "note": 63, "velocity": 99, "channel": 0}, {"type": "note_off", "time": 30, "note": 63, "velocity": 99, "channel": 0}, {"type": "note_on", "time": 8, "note": 64, "velocity": 106, "channel": 0}, {"type": "note_off", "time": 45, "note": 64, "velocity": 106, "channel": 0}, {"type": "note_on", "time": 22, "note": 66, "velocity": 104, "channel": 0}, {"type": "note_off", "time": 22, "note": 66, "velocity": 104, "channel": 0}, {"type": "note_on", "time": 0, "note": 68, "velocity": 106, "channel": 0}, {"type": "note_off", "time": 23, "note": 68, "velocity": 106, "channel": 0}, {"type": "note_on", "time": 4, "note": 70, "velocity": 117, "channel": 0}, {"type": "note_off", "time": 369, "note": 70, "velocity": 117, "channel": 0}, {"type": "note_on", "time": 30, "note": 68, "velocity": 111, "channel": 0}, {"type": "note_off", "time": 105, "note": 68, "velocity": 111, "channel": 0}, {"type": "note_on", "time": 41, "note": 68, "velocity": 104, "channel": 0}, {"type": "note_off", "time": 81, "note": 68, "velocity": 104, "channel": 0}, {"type": "note_on", "time": 27, "note": 68, "velocity": 113, "channel": 0}, {"type": "note_off", "time": 92, "note": 68, "velocity": 113, "channel": 0}, {"type": "note_on", "time": 6, "note": 66, "velocity": 108, "channel": 0}, {"type": "note_off", "time": 89, "note": 66, "velocity": 108, "channel": 0}, {"type": "note_on", "time": 43, "note": 66, "velocity": 106, "channel": 0}, {"type": "note_off", "time": 79, "note": 66, "velocity": 106, "channel": 0}, {"type": "note_on", "time": 35, "note": 66, "velocity": 107, "channel": 0}, {"type": "note_off", "time": 15, "note": 66, "velocity": 107, "channel": 0}, {"type": "note_on", "time": 17, "note": 65, "velocity": 99, "channel": 0}, {"type": "note_off", "time": 193, "note": 65, "velocity": 99, "channel": 0}, {"type": "note_on", "time": 218, "note": 60, "velocity": 106, "channel": 0}, {"type": "note_off", "time": 30, "note": 60, "velocity": 106, "channel": 0}, {"type": "note_on", "time": 14, "note": 63, "velocity": 97, "channel": 0}, {"type": "note_off", "time": 25, "note": 63, "velocity": 97, "channel": 0}, {"type": "note_on", "time": 0, "note": 67, "velocity": 110, "channel": 0}, {"type": "note_off", "time": 54, "note": 67, "velocity": 110, "channel": 0}, {"type": "note_on", "time": 0, "note": 70, "velocity": 116, "channel": 0}, {"type": "note_off", "time": 71, "note": 70, "velocity": 116, "channel": 0}, {"type": "note_on", "time": 0, "note": 67, "velocity": 101, "channel": 0}, {"type": "note_off", "time": 49, "note": 67, "velocity": 101, "channel": 0}, {"type": "note_on", "time": 5, "note": 69, "velocity": 108, "channel": 0}, {"type": "note_off", "time": 60, "note": 69, "velocity": 108, "channel": 0}, {"type": "note_on", "time": 6, "note": 67, "velocity": 107, "channel": 0}, {"type": "note_off", "time": 40, "note": 67, "velocity": 107, "channel": 0}, {"type": "note_on", "time": 11, "note": 65, "velocity": 104, "channel": 0}, {"type": "note_off", "time": 47, "note": 65, "velocity": 104, "channel": 0}, {"type": "note_on", "time": 0, "note": 63, "velocity": 97, "channel": 0}, {"type": "note_off", "time": 53, "note": 63, "velocity": 97, "channel": 0}, {"type": "note_on", "time": 6, "note": 62, "velocity": 101, "channel": 0}, {"type": "note_off", "time": 69, "note": 62, "velocity": 101, "channel": 0}, {"type": "note_on", "time": 0, "note": 65, "velocity": 97, "channel": 0}, {"type": "note_off", "time": 69, "note": 65, "velocity": 97, "channel": 0}, {"type": "note_on", "time": 0, "note": 62, "velocity": 94, "channel": 0}, {"type": "note_off", "time": 31, "note": 62, "velocity": 94, "channel": 0}, {"type": "note_on", "time": 8, "note": 63, "velocity": 106, "channel": 0}, {"type": "note_off", "time": 53, "note": 63, "velocity": 106, "channel": 0}, {"type": "note_on", "time": 2, "note": 66, "velocity": 95, "channel": 0}, {"type": "note_off", "time": 24, "note": 66, "velocity": 95, "channel": 0}, {"type": "note_on", "time": 4, "note": 69, "velocity": 102, "channel": 0}, {"type": "note_off", "time": 56, "note": 69, "velocity": 102, "channel": 0}, {"type": "note_on", "time": 0, "note": 71, "velocity": 108, "channel": 0}, {"type": "note_off", "time": 53, "note": 71, "velocity": 108, "channel": 0}, {"type": "note_on", "time": 20, "note": 73, "velocity": 96, "channel": 0}, {"type": "note_off", "time": 22, "note": 73, "velocity": 96, "channel": 0}, {"type": "note_on", "time": 17, "note": 74, "velocity": 108, "channel": 0}, {"type": "note_off", "time": 29, "note": 74, "velocity": 108, "channel": 0}, {"type": "note_on", "time": 8, "note": 76, "velocity": 111, "channel": 0}, {"type": "note_off", "time": 42, "note": 76, "velocity": 111, "channel": 0}, {"type": "note_on", "time": 13, "note": 75, "velocity": 108, "channel": 0}, {"type": "note_off", "time": 22, "note": 75, "velocity": 108, "channel": 0}, {"type": "note_on", "time": 17, "note": 74, "velocity": 110, "channel": 0}, {"type": "note_off", "time": 38, "note": 74, "velocity": 110, "channel": 0}, {"type": "note_on", "time": 0, "note": 73, "velocity": 104, "channel": 0}, {"type": "note_off", "time": 29, "note": 73, "velocity": 104, "channel": 0}, {"type": "note_on", "time": 0, "note": 71, "velocity": 106, "channel": 0}, {"type": "note_off", "time": 31, "note": 71, "velocity": 106, "channel": 0}, {"type": "note_on", "time": 17, "note": 69, "velocity": 104, "channel": 0}, {"type": "note_off", "time": 38, "note": 69, "velocity": 104, "channel": 0}, {"type": "note_on", "time": 6, "note": 67, "velocity": 105, "channel": 0}, {"type": "note_off", "time": 67, "note": 67, "velocity": 105, "channel": 0}, {"type": "note_on", "time": 24, "note": 70, "velocity": 106, "channel": 0}, {"type": "note_off", "time": 62, "note": 70, "velocity": 106, "channel": 0}, {"type": "note_on", "time": 11, "note": 68, "velocity": 102, "channel": 0}, {"type": "note_off", "time": 62, "note": 68, "velocity": 102, "channel": 0}, {"type": "note_on", "time": 298, "note": 68, "velocity": 103, "channel": 0}, {"type": "note_off", "time": 35, "note": 68, "velocity": 103, "channel": 0}, {"type": "note_on", "time": 2, "note": 69, "velocity": 113, "channel": 0}, {"type": "note_off", "time": 47, "note": 69, "velocity": 113, "channel": 0}, {"type": "note_on", "time": 4, "note": 70, "velocity": 114, "channel": 0}, {"type": "note_off", "time": 62, "note": 70, "velocity": 114, "channel": 0}, {"type": "note_on", "time": 0, "note": 69, "velocity": 113, "channel": 0}, {"type": "note_off", "time": 49, "note": 69, "velocity": 113, "channel": 0}, {"type": "note_on", "time": 0, "note": 67, "velocity": 113, "channel": 0}, {"type": "note_off", "time": 42, "note": 67, "velocity": 113, "channel": 0}, {"type": "note_on", "time": 8, "note": 63, "velocity": 104, "channel": 0}, {"type": "note_off", "time": 35, "note": 63, "velocity": 104, "channel": 0}, {"type": "note_on", "time": 12, "note": 62, "velocity": 101, "channel": 0}, {"type": "note_off", "time": 29, "note": 62, "velocity": 101, "channel": 0}, {"type": "note_on", "time": 8, "note": 63, "velocity": 96, "channel": 0}, {"type": "note_off", "time": 38, "note": 63, "velocity": 96, "channel": 0}, {"type": "note_on", "time": 16, "note": 65, "velocity": 104, "channel": 0}, {"type": "note_off", "time": 44, "note": 65, "velocity": 104, "channel": 0}, {"type": "note_on", "time": 11, "note": 62, "velocity": 103, "channel": 0}, {"type": "note_off", "time": 35, "note": 62, "velocity": 103, "channel": 0}, {"type": "note_on", "time": 13, "note": 63, "velocity": 104, "channel": 0}, {"type": "note_off", "time": 62, "note": 63, "velocity": 104, "channel": 0}, {"type": "note_on", "time": 20, "note": 62, "velocity": 106, "channel": 0}, {"type": "note_off", "time": 44, "note": 62, "velocity": 106, "channel": 0}, {"type": "note_on", "time": 0, "note": 60, "velocity": 106, "channel": 0}, {"type": "note_off", "time": 40, "note": 60, "velocity": 106, "channel": 0}, {"type": "note_on", "time": 0, "note": 57, "velocity": 100, "channel": 0}, {"type": "note_off", "time": 56, "note": 57, "velocity": 100, "channel": 0}, {"type": "note_on", "time": 13, "note": 55, "velocity": 107, "channel": 0}, {"type": "note_off", "time": 56, "note": 55, "velocity": 107, "channel": 0}, {"type": "note_on", "time": 11, "note": 53, "velocity": 104, "channel": 0}, {"type": "note_off", "time": 53, "note": 53, "velocity": 104, "channel": 0}, {"type": "note_on", "time": 6, "note": 51, "velocity": 109, "channel": 0}, {"type": "note_off", "time": 40, "note": 51, "velocity": 109, "channel": 0}, {"type": "note_on", "time": 2, "note": 46, "velocity": 110, "channel": 0}, {"type": "note_off", "time": 19, "note": 46, "velocity": 110, "channel": 0}, {"type": "note_on", "time": 0, "note": 53, "velocity": 111, "channel": 0}, {"type": "note_off", "time": 49, "note": 53, "velocity": 111, "channel": 0}, {"type": "note_on", "time": 19, "note": 50, "velocity": 108, "channel": 0}, {"type": "note_off", "time": 60, "note": 50, "velocity": 108, "channel": 0}, {"type": "note_on", "time": 11, "note": 47, "velocity": 118, "channel": 0}, {"type": "note_off", "time": 20, "note": 47, "velocity": 118, "channel": 0}, {"type": "note_on", "time": 0, "note": 42, "velocity": 112, "channel": 0}, {"type": "note_off", "time": 47, "note": 42, "velocity": 112, "channel": 0}, {"type": "note_on", "time": 29, "note": 46, "velocity": 108, "channel": 0}, {"type": "note_off", "time": 37, "note": 46, "velocity": 108, "channel": 0}, {"type": "note_on", "time": 0, "note": 51, "velocity": 108, "channel": 0}, {"type": "note_off", "time": 51, "note": 51, "velocity": 108, "channel": 0}, {"type": "note_on", "time": 1, "note": 49, "velocity": 106, "channel": 0}, {"type": "note_off", "time": 45, "note": 49, "velocity": 106, "channel": 0}, {"type": "note_on", "time": 0, "note": 46, "velocity": 108, "channel": 0}, {"type": "note_off", "time": 39, "note": 46, "velocity": 108, "channel": 0}, {"type": "note_on", "time": 14, "note": 50, "velocity": 113, "channel": 0}, {"type": "note_off", "time": 35, "note": 50, "velocity": 113, "channel": 0}, {"type": "note_on", "time": 2, "note": 49, "velocity": 104, "channel": 0}, {"type": "note_off", "time": 60, "note": 49, "velocity": 104, "channel": 0}, {"type": "note_on", "time": 8, "note": 46, "velocity": 96, "channel": 0}, {"type": "note_off", "time": 44, "note": 46, "velocity": 96, "channel": 0}, {"type": "note_on", "time": 13, "note": 43, "velocity": 100, "channel": 0}, {"type": "note_off", "time": 44, "note": 43, "velocity": 100, "channel": 0}, {"type": "note_on", "time": 13, "note": 41, "velocity": 97, "channel": 0}, {"type": "note_off", "time": 62, "note": 41, "velocity": 97, "channel": 0}, {"type": "note_on", "time": 13, "note": 43, "velocity": 92, "channel": 0}, {"type": "note_off", "time": 47, "note": 43, "velocity": 92, "channel": 0}, {"type": "note_on", "time": 11, "note": 46, "velocity": 105, "channel": 0}, {"type": "note_off", "time": 31, "note": 46, "velocity": 105, "channel": 0}, {"type": "note_on", "time": 0, "note": 51, "velocity": 104, "channel": 0}, {"type": "note_off", "time": 38, "note": 51, "velocity": 104, "channel": 0}, {"type": "note_on", "time": 15, "note": 55, "velocity": 106, "channel": 0}, {"type": "note_off", "time": 87, "note": 55, "velocity": 106, "channel": 0}, {"type": "note_on", "time": 13, "note": 54, "velocity": 105, "channel": 0}, {"type": "note_off", "time": 49, "note": 54, "velocity": 105, "channel": 0}, {"type": "note_on", "time": 17, "note": 58, "velocity": 92, "channel": 0}, {"type": "note_off", "time": 42, "note": 58, "velocity": 92, "channel": 0}, {"type": "note_on", "time": 6, "note": 63, "velocity": 93, "channel": 0}, {"type": "note_off", "time": 22, "note": 63, "velocity": 93, "channel": 0}, {"type": "note_on", "time": 15, "note": 64, "velocity": 97, "channel": 0}, {"type": "note_off", "time": 22, "note": 64, "velocity": 97, "channel": 0}, {"type": "note_on", "time": 6, "note": 65, "velocity": 103, "channel": 0}, {"type": "note_off", "time": 67, "note": 65, "velocity": 103, "channel": 0}, {"type": "note_on", "time": 18, "note": 62, "velocity": 94, "channel": 0}, {"type": "note_off", "time": 43, "note": 62, "velocity": 94, "channel": 0}, {"type": "note_on", "time": 6, "note": 64, "velocity": 98, "channel": 0}, {"type": "note_off", "time": 27, "note": 64, "velocity": 98, "channel": 0}, {"type": "note_on", "time": 3, "note": 67, "velocity": 100, "channel": 0}, {"type": "note_off", "time": 20, "note": 67, "velocity": 100, "channel": 0}, {"type": "note_on", "time": 9, "note": 69, "velocity": 104, "channel": 0}, {"type": "note_off", "time": 19, "note": 69, "velocity": 104, "channel": 0}, {"type": "note_on", "time": 6, "note": 71, "velocity": 99, "channel": 0}, {"type": "note_off", "time": 20, "note": 71, "velocity": 99, "channel": 0}, {"type": "note_on", "time": 7, "note": 72, "velocity": 107, "channel": 0}, {"type": "note_off", "time": 39, "note": 72, "velocity": 107, "channel": 0}, {"type": "note_on", "time": 11, "note": 73, "velocity": 109, "channel": 0}, {"type": "note_off", "time": 42, "note": 73, "velocity": 109, "channel": 0}, {"type": "note_on", "time": 23, "note": 69, "velocity": 106, "channel": 0}, {"type": "note_off", "time": 78, "note": 69, "velocity": 106, "channel": 0}, {"type": "note_on", "time": 12, "note": 68, "velocity": 108, "channel": 0}, {"type": "note_off", "time": 106, "note": 68, "velocity": 108, "channel": 0}, {"type": "note_on", "time": 192, "note": 68, "velocity": 106, "channel": 0}, {"type": "note_off", "time": 58, "note": 68, "velocity": 106, "channel": 0}, {"type": "note_on", "time": 22, "note": 60, "velocity": 94, "channel": 0}, {"type": "note_off", "time": 31, "note": 60, "velocity": 94, "channel": 0}, {"type": "note_on", "time": 8, "note": 63, "velocity": 100, "channel": 0}, {"type": "note_off", "time": 31, "note": 63, "velocity": 100, "channel": 0}, {"type": "note_on", "time": 2, "note": 67, "velocity": 107, "channel": 0}, {"type": "note_off", "time": 31, "note": 67, "velocity": 107, "channel": 0}, {"type": "note_on", "time": 5, "note": 65, "velocity": 107, "channel": 0}, {"type": "note_off", "time": 35, "note": 65, "velocity": 107, "channel": 0}, {"type": "note_on", "time": 3, "note": 63, "velocity": 101, "channel": 0}, {"type": "note_off", "time": 54, "note": 63, "velocity": 101, "channel": 0}, {"type": "note_on", "time": 0, "note": 62, "velocity": 99, "channel": 0}, {"type": "note_off", "time": 56, "note": 62, "velocity": 99, "channel": 0}, {"type": "note_on", "time": 10, "note": 63, "velocity": 95, "channel": 0}, {"type": "note_off", "time": 32, "note": 63, "velocity": 95, "channel": 0}, {"type": "note_on", "time": 0, "note": 65, "velocity": 96, "channel": 0}, {"type": "note_off", "time": 57, "note": 65, "velocity": 96, "channel": 0}, {"type": "note_on", "time": 3, "note": 63, "velocity": 107, "channel": 0}, {"type": "note_off", "time": 35, "note": 63, "velocity": 107, "channel": 0}, {"type": "note_on", "time": 8, "note": 62, "velocity": 106, "channel": 0}, {"type": "note_off", "time": 28, "note": 62, "velocity": 106, "channel": 0}, {"type": "note_on", "time": 0, "note": 60, "velocity": 106, "channel": 0}, {"type": "note_off", "time": 28, "note": 60, "velocity": 106, "channel": 0}, {"type": "note_on", "time": 4, "note": 59, "velocity": 107, "channel": 0}, {"type": "note_off", "time": 34, "note": 59, "velocity": 107, "channel": 0}, {"type": "note_on", "time": 2, "note": 55, "velocity": 108, "channel": 0}, {"type": "note_off", "time": 76, "note": 55, "velocity": 108, "channel": 0}, {"type": "note_on", "time": 6, "note": 53, "velocity": 110, "channel": 0}, {"type": "note_off", "time": 51, "note": 53, "velocity": 110, "channel": 0}, {"type": "note_on", "time": 1, "note": 51, "velocity": 110, "channel": 0}, {"type": "note_off", "time": 47, "note": 51, "velocity": 110, "channel": 0}, {"type": "note_on", "time": 9, "note": 49, "velocity": 111, "channel": 0}, {"type": "note_off", "time": 28, "note": 49, "velocity": 111, "channel": 0}, {"type": "note_on", "time": 5, "note": 48, "velocity": 117, "channel": 0}, {"type": "note_off", "time": 42, "note": 48, "velocity": 117, "channel": 0}, {"type": "note_on", "time": 6, "note": 46, "velocity": 108, "channel": 0}, {"type": "note_off", "time": 37, "note": 46, "velocity": 108, "channel": 0}, {"type": "note_on", "time": 12, "note": 43, "velocity": 107, "channel": 0}, {"type": "note_off", "time": 49, "note": 43, "velocity": 107, "channel": 0}, {"type": "note_on", "time": 13, "note": 42, "velocity": 105, "channel": 0}, {"type": "note_off", "time": 59, "note": 42, "velocity": 105, "channel": 0}, {"type": "note_on", "time": 15, "note": 50, "velocity": 111, "channel": 0}, {"type": "note_off", "time": 39, "note": 50, "velocity": 111, "channel": 0}, {"type": "note_on", "time": 3, "note": 53, "velocity": 111, "channel": 0}, {"type": "note_off", "time": 42, "note": 53, "velocity": 111, "channel": 0}, {"type": "note_on", "time": 1, "note": 52, "velocity": 108, "channel": 0}, {"type": "note_off", "time": 40, "note": 52, "velocity": 108, "channel": 0}, {"type": "note_on", "time": 21, "note": 58, "velocity": 101, "channel": 0}, {"type": "note_off", "time": 55, "note": 58, "velocity": 101, "channel": 0}, {"type": "note_on", "time": 8, "note": 62, "velocity": 92, "channel": 0}, {"type": "note_off", "time": 21, "note": 62, "velocity": 92, "channel": 0}, {"type": "note_on", "time": 4, "note": 65, "velocity": 91, "channel": 0}, {"type": "note_off", "time": 31, "note": 65, "velocity": 91, "channel": 0}, {"type": "note_on", "time": 10, "note": 67, "velocity": 103, "channel": 0}, {"type": "note_off", "time": 44, "note": 67, "velocity": 103, "channel": 0}, {"type": "note_on", "time": 5, "note": 65, "velocity": 108, "channel": 0}, {"type": "note_off", "time": 61, "note": 65, "velocity": 108, "channel": 0}, {"type": "note_on", "time": 202, "note": 70, "velocity": 105, "channel": 0}, {"type": "note_off", "time": 20, "note": 70, "velocity": 105, "channel": 0}, {"type": "note_on", "time": 5, "note": 69, "velocity": 121, "channel": 0}, {"type": "note_off", "time": 13, "note": 69, "velocity": 121, "channel": 0}, {"type": "note_on", "time": 5, "note": 67, "velocity": 111, "channel": 0}, {"type": "note_off", "time": 34, "note": 67, "velocity": 111, "channel": 0}, {"type": "note_on", "time": 15, "note": 62, "velocity": 103, "channel": 0}, {"type": "note_on", "time": 62, "note": 65, "velocity": 112, "channel": 0}, {"type": "note_off", "time": 0, "note": 62, "velocity": 103, "channel": 0}, {"type": "note_off", "time": 34, "note": 65, "velocity": 112, "channel": 0}, {"type": "note_on", "time": 6, "note": 63, "velocity": 102, "channel": 0}, {"type": "note_off", "time": 57, "note": 63, "velocity": 102, "channel": 0}, {"type": "note_on", "time": 13, "note": 64, "velocity": 107, "channel": 0}, {"type": "note_off", "time": 21, "note": 64, "velocity": 107, "channel": 0}, {"type": "note_on", "time": 7, "note": 66, "velocity": 104, "channel": 0}, {"type": "note_off", "time": 11, "note": 66, "velocity": 104, "channel": 0}, {"type": "note_on", "time": 7, "note": 70, "velocity": 103, "channel": 0}, {"type": "note_off", "time": 26, "note": 70, "velocity": 103, "channel": 0}, {"type": "note_on", "time": 17, "note": 72, "velocity": 114, "channel": 0}, {"type": "note_off", "time": 66, "note": 72, "velocity": 114, "channel": 0}, {"type": "note_on", "time": 5, "note": 71, "velocity": 110, "channel": 0}, {"type": "note_off", "time": 105, "note": 71, "velocity": 110, "channel": 0}, {"type": "note_on", "time": 31, "note": 70, "velocity": 116, "channel": 0}, {"type": "note_off", "time": 71, "note": 70, "velocity": 116, "channel": 0}, {"type": "note_on", "time": 4, "note": 68, "velocity": 111, "channel": 0}, {"type": "note_off", "time": 122, "note": 68, "velocity": 111, "channel": 0}, {"type": "note_on", "time": 33, "note": 60, "velocity": 100, "channel": 0}, {"type": "note_off", "time": 40, "note": 60, "velocity": 100, "channel": 0}, {"type": "note_on", "time": 4, "note": 63, "velocity": 99, "channel": 0}, {"type": "note_off", "time": 97, "note": 63, "velocity": 99, "channel": 0}, {"type": "note_on", "time": 21, "note": 67, "velocity": 115, "channel": 0}, {"type": "note_off", "time": 64, "note": 67, "velocity": 115, "channel": 0}, {"type": "note_on", "time": 10, "note": 65, "velocity": 110, "channel": 0}, {"type": "note_off", "time": 38, "note": 65, "velocity": 110, "channel": 0}, {"type": "note_on", "time": 7, "note": 66, "velocity": 106, "channel": 0}, {"type": "note_off", "time": 39, "note": 66, "velocity": 106, "channel": 0}, {"type": "note_on", "time": 8, "note": 65, "velocity": 108, "channel": 0}, {"type": "note_off", "time": 39, "note": 65, "velocity": 108, "channel": 0}, {"type": "note_on", "time": 5, "note": 63, "velocity": 102, "channel": 0}, {"type": "note_off", "time": 62, "note": 63, "velocity": 102, "channel": 0}, {"type": "note_on", "time": 13, "note": 62, "velocity": 98, "channel": 0}, {"type": "note_off", "time": 60, "note": 62, "velocity": 98, "channel": 0}, {"type": "note_on", "time": 11, "note": 63, "velocity": 92, "channel": 0}, {"type": "note_off", "time": 26, "note": 63, "velocity": 92, "channel": 0}, {"type": "note_on", "time": 7, "note": 62, "velocity": 103, "channel": 0}, {"type": "note_off", "time": 27, "note": 62, "velocity": 103, "channel": 0}, {"type": "note_on", "time": 0, "note": 63, "velocity": 109, "channel": 0}, {"type": "note_off", "time": 41, "note": 63, "velocity": 109, "channel": 0}, {"type": "note_on", "time": 12, "note": 65, "velocity": 105, "channel": 0}, {"type": "note_off", "time": 117, "note": 65, "velocity": 105, "channel": 0}, {"type": "note_on", "time": 14, "note": 62, "velocity": 90, "channel": 0}, {"type": "note_off", "time": 39, "note": 62, "velocity": 90, "channel": 0}, {"type": "note_on", "time": 10, "note": 63, "velocity": 100, "channel": 0}, {"type": "note_off", "time": 114, "note": 63, "velocity": 100, "channel": 0}, {"type": "note_on", "time": 13, "note": 70, "velocity": 118, "channel": 0}, {"type": "note_off", "time": 174, "note": 70, "velocity": 118, "channel": 0}, {"type": "note_on", "time": 269, "note": 70, "velocity": 109, "channel": 0}, {"type": "note_off", "time": 1301, "note": 70, "velocity": 109, "channel": 0}, {"type": "note_on", "time": 246, "note": 74, "velocity": 113, "channel": 0}, {"type": "note_off", "time": 87, "note": 74, "velocity": 113, "channel": 0}, {"type": "note_on", "time": 1, "note": 79, "velocity": 104, "channel": 0}, {"type": "note_off", "time": 62, "note": 79, "velocity": 104, "channel": 0}, {"type": "note_on", "time": 2, "note": 74, "velocity": 101, "channel": 0}, {"type": "note_off", "time": 47, "note": 74, "velocity": 101, "channel": 0}, {"type": "note_on", "time": 20, "note": 74, "velocity": 108, "channel": 0}, {"type": "note_off", "time": 87, "note": 74, "velocity": 108, "channel": 0}, {"type": "note_on", "time": 15, "note": 72, "velocity": 108, "channel": 0}, {"type": "note_off", "time": 68, "note": 72, "velocity": 108, "channel": 0}, {"type": "note_on", "time": 6, "note": 70, "velocity": 122, "channel": 0}, {"type": "note_off", "time": 110, "note": 70, "velocity": 122, "channel": 0}, {"type": "note_on", "time": 11, "note": 67, "velocity": 112, "channel": 0}, {"type": "note_off", "time": 65, "note": 67, "velocity": 112, "channel": 0}, {"type": "note_on", "time": 3, "note": 68, "velocity": 111, "channel": 0}, {"type": "note_off", "time": 44, "note": 68, "velocity": 111, "channel": 0}, {"type": "note_on", "time": 12, "note": 70, "velocity": 108, "channel": 0}, {"type": "note_off", "time": 51, "note": 70, "velocity": 108, "channel": 0}, {"type": "note_on", "time": 0, "note": 68, "velocity": 111, "channel": 0}, {"type": "note_off", "time": 60, "note": 68, "velocity": 111, "channel": 0}, {"type": "note_on", "time": 14, "note": 67, "velocity": 111, "channel": 0}, {"type": "note_off", "time": 95, "note": 67, "velocity": 111, "channel": 0}, {"type": "note_on", "time": 15, "note": 70, "velocity": 115, "channel": 0}, {"type": "note_off", "time": 31, "note": 70, "velocity": 115, "channel": 0}, {"type": "note_on", "time": 12, "note": 67, "velocity": 107, "channel": 0}, {"type": "note_off", "time": 23, "note": 67, "velocity": 107, "channel": 0}, {"type": "note_on", "time": 6, "note": 65, "velocity": 108, "channel": 0}, {"type": "note_off", "time": 19, "note": 65, "velocity": 108, "channel": 0}, {"type": "note_on", "time": 3, "note": 63, "velocity": 95, "channel": 0}, {"type": "note_off", "time": 138, "note": 63, "velocity": 95, "channel": 0}, {"type": "note_on", "time": 4, "note": 65, "velocity": 106, "channel": 0}, {"type": "note_off", "time": 67, "note": 65, "velocity": 106, "channel": 0}, {"type": "note_on", "time": 11, "note": 65, "velocity": 106, "channel": 0}, {"type": "note_off", "time": 99, "note": 65, "velocity": 106, "channel": 0}, {"type": "note_on", "time": 12, "note": 63, "velocity": 85, "channel": 0}, {"type": "note_off", "time": 27, "note": 63, "velocity": 85, "channel": 0}, {"type": "note_on", "time": 5, "note": 66, "velocity": 99, "channel": 0}, {"type": "note_off", "time": 162, "note": 66, "velocity": 99, "channel": 0}, {"type": "note_on", "time": 11, "note": 63, "velocity": 91, "channel": 0}, {"type": "note_off", "time": 39, "note": 63, "velocity": 91, "channel": 0}, {"type": "note_on", "time": 7, "note": 65, "velocity": 108, "channel": 0}, {"type": "note_off", "time": 119, "note": 65, "velocity": 108, "channel": 0}, {"type": "note_on", "time": 6, "note": 68, "velocity": 108, "channel": 0}, {"type": "note_off", "time": 135, "note": 68, "velocity": 108, "channel": 0}, {"type": "note_on", "time": 527, "note": 69, "velocity": 120, "channel": 0}, {"type": "note_off", "time": 92, "note": 69, "velocity": 120, "channel": 0}, {"type": "note_on", "time": 6, "note": 70, "velocity": 122, "channel": 0}, {"type": "note_off", "time": 87, "note": 70, "velocity": 122, "channel": 0}, {"type": "note_on", "time": 3, "note": 69, "velocity": 114, "channel": 0}, {"type": "note_off", "time": 30, "note": 69, "velocity": 114, "channel": 0}, {"type": "note_on", "time": 12, "note": 70, "velocity": 120, "channel": 0}, {"type": "note_off", "time": 41, "note": 70, "velocity": 120, "channel": 0}, {"type": "note_on", "time": 6, "note": 69, "velocity": 115, "channel": 0}, {"type": "note_on", "time": 33, "note": 67, "velocity": 109, "channel": 0}, {"type": "note_off", "time": 0, "note": 69, "velocity": 115, "channel": 0}, {"type": "note_off", "time": 49, "note": 67, "velocity": 109, "channel": 0}, {"type": "note_on", "time": 12, "note": 65, "velocity": 109, "channel": 0}, {"type": "note_off", "time": 102, "note": 65, "velocity": 109, "channel": 0}, {"type": "note_on", "time": 36, "note": 64, "velocity": 110, "channel": 0}, {"type": "note_off", "time": 52, "note": 64, "velocity": 110, "channel": 0}, {"type": "note_on", "time": 20, "note": 63, "velocity": 105, "channel": 0}, {"type": "note_off", "time": 83, "note": 63, "velocity": 105, "channel": 0}, {"type": "note_on", "time": 14, "note": 65, "velocity": 107, "channel": 0}, {"type": "note_off", "time": 52, "note": 65, "velocity": 107, "channel": 0}, {"type": "note_on", "time": 9, "note": 63, "velocity": 102, "channel": 0}, {"type": "note_off", "time": 107, "note": 63, "velocity": 102, "channel": 0}, {"type": "note_on", "time": 6, "note": 59, "velocity": 105, "channel": 0}, {"type": "note_off", "time": 44, "note": 59, "velocity": 105, "channel": 0}, {"type": "note_on", "time": 15, "note": 60, "velocity": 100, "channel": 0}, {"type": "note_off", "time": 123, "note": 60, "velocity": 100, "channel": 0}, {"type": "note_on", "time": 15, "note": 56, "velocity": 108, "channel": 0}, {"type": "note_off", "time": 71, "note": 56, "velocity": 108, "channel": 0}, {"type": "note_on", "time": 4, "note": 55, "velocity": 112, "channel": 0}, {"type": "note_off", "time": 100, "note": 55, "velocity": 112, "channel": 0}, {"type": "note_on", "time": 4, "note": 53, "velocity": 110, "channel": 0}, {"type": "note_off", "time": 49, "note": 53, "velocity": 110, "channel": 0}, {"type": "note_on", "time": 4, "note": 51, "velocity": 111, "channel": 0}, {"type": "note_off", "time": 73, "note": 51, "velocity": 111, "channel": 0}, {"type": "note_on", "time": 3, "note": 50, "velocity": 104, "channel": 0}, {"type": "note_off", "time": 129, "note": 50, "velocity": 104, "channel": 0}, {"type": "note_on", "time": 0, "note": 53, "velocity": 111, "channel": 0}, {"type": "note_off", "time": 124, "note": 53, "velocity": 111, "channel": 0}, {"type": "note_on", "time": 22, "note": 50, "velocity": 108, "channel": 0}, {"type": "note_off", "time": 49, "note": 50, "velocity": 108, "channel": 0}, {"type": "note_on", "time": 7, "note": 51, "velocity": 109, "channel": 0}, {"type": "note_off", "time": 138, "note": 51, "velocity": 109, "channel": 0}, {"type": "note_on", "time": 1, "note": 58, "velocity": 101, "channel": 0}, {"type": "note_off", "time": 223, "note": 58, "velocity": 101, "channel": 0}, {"type": "note_on", "time": 787, "note": 70, "velocity": 124, "channel": 0}, {"type": "note_off", "time": 134, "note": 70, "velocity": 124, "channel": 0}, {"type": "note_on", "time": 4, "note": 67, "velocity": 109, "channel": 0}, {"type": "note_off", "time": 60, "note": 67, "velocity": 109, "channel": 0}, {"type": "note_on", "time": 8, "note": 68, "velocity": 116, "channel": 0}, {"type": "note_off", "time": 87, "note": 68, "velocity": 116, "channel": 0}, {"type": "note_on", "time": 13, "note": 70, "velocity": 117, "channel": 0}, {"type": "note_off", "time": 71, "note": 70, "velocity": 117, "channel": 0}, {"type": "note_on", "time": 0, "note": 66, "velocity": 113, "channel": 0}, {"type": "note_off", "time": 49, "note": 66, "velocity": 113, "channel": 0}, {"type": "note_on", "time": 10, "note": 67, "velocity": 115, "channel": 0}, {"type": "note_off", "time": 139, "note": 67, "velocity": 115, "channel": 0}, {"type": "note_on", "time": 28, "note": 67, "velocity": 96, "channel": 0}, {"type": "note_off", "time": 56, "note": 67, "velocity": 96, "channel": 0}, {"type": "note_on", "time": 423, "note": 70, "velocity": 116, "channel": 0}, {"type": "note_off", "time": 76, "note": 70, "velocity": 116, "channel": 0}, {"type": "note_on", "time": 2, "note": 68, "velocity": 118, "channel": 0}, {"type": "note_off", "time": 44, "note": 68, "velocity": 118, "channel": 0}, {"type": "note_on", "time": 6, "note": 67, "velocity": 112, "channel": 0}, {"type": "note_off", "time": 119, "note": 67, "velocity": 112, "channel": 0}, {"type": "note_on", "time": 29, "note": 65, "velocity": 116, "channel": 0}, {"type": "note_off", "time": 114, "note": 65, "velocity": 116, "channel": 0}, {"type": "note_on", "time": 6, "note": 62, "velocity": 107, "channel": 0}, {"type": "note_off", "time": 53, "note": 62, "velocity": 107, "channel": 0}, {"type": "note_on", "time": 13, "note": 63, "velocity": 110, "channel": 0}, {"type": "note_off", "time": 103, "note": 63, "velocity": 110, "channel": 0}, {"type": "note_on", "time": 2, "note": 65, "velocity": 114, "channel": 0}, {"type": "note_off", "time": 42, "note": 65, "velocity": 114, "channel": 0}, {"type": "note_on", "time": 2, "note": 63, "velocity": 110, "channel": 0}, {"type": "note_on", "time": 44, "note": 62, "velocity": 108, "channel": 0}, {"type": "note_off", "time": 0, "note": 63, "velocity": 110, "channel": 0}, {"type": "note_off", "time": 110, "note": 62, "velocity": 108, "channel": 0}, {"type": "note_on", "time": 11, "note": 60, "velocity": 108, "channel": 0}, {"type": "note_off", "time": 89, "note": 60, "velocity": 108, "channel": 0}, {"type": "note_on", "time": 0, "note": 58, "velocity": 106, "channel": 0}, {"type": "note_off", "time": 80, "note": 58, "velocity": 106, "channel": 0}, {"type": "note_on", "time": 2, "note": 55, "velocity": 118, "channel": 0}, {"type": "note_off", "time": 98, "note": 55, "velocity": 118, "channel": 0}, {"type": "note_on", "time": 6, "note": 55, "velocity": 118, "channel": 0}, {"type": "note_off", "time": 69, "note": 55, "velocity": 118, "channel": 0}, {"type": "note_on", "time": 11, "note": 53, "velocity": 116, "channel": 0}, {"type": "note_off", "time": 58, "note": 53, "velocity": 116, "channel": 0}, {"type": "note_on", "time": 2, "note": 51, "velocity": 115, "channel": 0}, {"type": "note_off", "time": 65, "note": 51, "velocity": 115, "channel": 0}, {"type": "note_on", "time": 2, "note": 50, "velocity": 108, "channel": 0}, {"type": "note_off", "time": 148, "note": 50, "velocity": 108, "channel": 0}, {"type": "note_on", "time": 17, "note": 53, "velocity": 114, "channel": 0}, {"type": "note_off", "time": 110, "note": 53, "velocity": 114, "channel": 0}, {"type": "note_on", "time": 8, "note": 50, "velocity": 111, "channel": 0}, {"type": "note_off", "time": 58, "note": 50, "velocity": 111, "channel": 0}, {"type": "note_on", "time": 8, "note": 51, "velocity": 124, "channel": 0}, {"type": "note_off", "time": 92, "note": 51, "velocity": 124, "channel": 0}, {"type": "note_on", "time": 0, "note": 53, "velocity": 120, "channel": 0}, {"type": "note_off", "time": 76, "note": 53, "velocity": 120, "channel": 0}, {"type": "note_on", "time": 8, "note": 55, "velocity": 111, "channel": 0}, {"type": "note_off", "time": 107, "note": 55, "velocity": 111, "channel": 0}, {"type": "note_on", "time": 35, "note": 55, "velocity": 113, "channel": 0}, {"type": "note_off", "time": 58, "note": 55, "velocity": 113, "channel": 0}, {"type": "note_on", "time": 4, "note": 58, "velocity": 107, "channel": 0}, {"type": "note_off", "time": 76, "note": 58, "velocity": 107, "channel": 0}, {"type": "note_on", "time": 49, "note": 55, "velocity": 114, "channel": 0}, {"type": "note_off", "time": 78, "note": 55, "velocity": 114, "channel": 0}, {"type": "note_on", "time": 8, "note": 58, "velocity": 100, "channel": 0}, {"type": "note_off", "time": 47, "note": 58, "velocity": 100, "channel": 0}, {"type": "note_on", "time": 11, "note": 62, "velocity": 104, "channel": 0}, {"type": "note_off", "time": 44, "note": 62, "velocity": 104, "channel": 0}, {"type": "note_on", "time": 6, "note": 65, "velocity": 112, "channel": 0}, {"type": "note_off", "time": 49, "note": 65, "velocity": 112, "channel": 0}, {"type": "note_on", "time": 6, "note": 62, "velocity": 103, "channel": 0}, {"type": "note_off", "time": 101, "note": 62, "velocity": 103, "channel": 0}, {"type": "note_on", "time": 31, "note": 63, "velocity": 100, "channel": 0}, {"type": "note_off", "time": 67, "note": 63, "velocity": 100, "channel": 0}, {"type": "note_on", "time": 13, "note": 64, "velocity": 114, "channel": 0}, {"type": "note_off", "time": 74, "note": 64, "velocity": 114, "channel": 0}, {"type": "note_on", "time": 6, "note": 67, "velocity": 117, "channel": 0}, {"type": "note_off", "time": 78, "note": 67, "velocity": 117, "channel": 0}, {"type": "note_on", "time": 8, "note": 70, "velocity": 125, "channel": 0}, {"type": "note_off", "time": 112, "note": 70, "velocity": 125, "channel": 0}, {"type": "note_on", "time": 0, "note": 72, "velocity": 106, "channel": 0}, {"type": "note_off", "time": 17, "note": 72, "velocity": 106, "channel": 0}, {"type": "note_on", "time": 11, "note": 73, "velocity": 116, "channel": 0}, {"type": "note_off", "time": 78, "note": 73, "velocity": 116, "channel": 0}, {"type": "note_on", "time": 0, "note": 72, "velocity": 114, "channel": 0}, {"type": "note_on", "time": 76, "note": 70, "velocity": 119, "channel": 0}, {"type": "note_off", "time": 0, "note": 72, "velocity": 114, "channel": 0}, {"type": "note_off", "time": 62, "note": 70, "velocity": 119, "channel": 0}, {"type": "note_on", "time": 20, "note": 68, "velocity": 110, "channel": 0}, {"type": "note_off", "time": 150, "note": 68, "velocity": 110, "channel": 0}, {"type": "note_on", "time": 13, "note": 70, "velocity": 120, "channel": 0}, {"type": "note_off", "time": 150, "note": 70, "velocity": 120, "channel": 0}, {"type": "note_on", "time": 11, "note": 66, "velocity": 110, "channel": 0}, {"type": "note_off", "time": 85, "note": 66, "velocity": 110, "channel": 0}, {"type": "note_on", "time": 343, "note": 72, "velocity": 96, "channel": 0}, {"type": "note_off", "time": 54, "note": 72, "velocity": 96, "channel": 0}, {"type": "note_on", "time": 15, "note": 73, "velocity": 112, "channel": 0}, {"type": "note_off", "time": 59, "note": 73, "velocity": 112, "channel": 0}, {"type": "note_on", "time": 25, "note": 64, "velocity": 101, "channel": 0}, {"type": "note_off", "time": 44, "note": 64, "velocity": 101, "channel": 0}, {"type": "note_on", "time": 14, "note": 65, "velocity": 114, "channel": 0}, {"type": "note_off", "time": 107, "note": 65, "velocity": 114, "channel": 0}, {"type": "note_on", "time": 0, "note": 67, "velocity": 117, "channel": 0}, {"type": "note_off", "time": 71, "note": 67, "velocity": 117, "channel": 0}, {"type": "note_on", "time": 12, "note": 68, "velocity": 114, "channel": 0}, {"type": "note_off", "time": 44, "note": 68, "velocity": 114, "channel": 0}, {"type": "note_on", "time": 17, "note": 69, "velocity": 118, "channel": 0}, {"type": "note_off", "time": 65, "note": 69, "velocity": 118, "channel": 0}, {"type": "note_on", "time": 0, "note": 68, "velocity": 116, "channel": 0}, {"type": "note_off", "time": 43, "note": 68, "velocity": 116, "channel": 0}, {"type": "note_on", "time": 6, "note": 67, "velocity": 115, "channel": 0}, {"type": "note_off", "time": 63, "note": 67, "velocity": 115, "channel": 0}, {"type": "note_on", "time": 3, "note": 69, "velocity": 126, "channel": 0}, {"type": "note_off", "time": 25, "note": 69, "velocity": 126, "channel": 0}, {"type": "note_on", "time": 3, "note": 68, "velocity": 117, "channel": 0}, {"type": "note_off", "time": 22, "note": 68, "velocity": 117, "channel": 0}, {"type": "note_on", "time": 3, "note": 67, "velocity": 116, "channel": 0}, {"type": "note_off", "time": 39, "note": 67, "velocity": 116, "channel": 0}, {"type": "note_on", "time": 9, "note": 65, "velocity": 108, "channel": 0}, {"type": "note_off", "time": 39, "note": 65, "velocity": 108, "channel": 0}, {"type": "note_on", "time": 1, "note": 62, "velocity": 103, "channel": 0}, {"type": "note_off", "time": 158, "note": 62, "velocity": 103, "channel": 0}, {"type": "note_on", "time": 20, "note": 65, "velocity": 108, "channel": 0}, {"type": "note_off", "time": 86, "note": 65, "velocity": 108, "channel": 0}, {"type": "note_on", "time": 484, "note": 67, "velocity": 118, "channel": 0}, {"type": "note_off", "time": 59, "note": 67, "velocity": 118, "channel": 0}, {"type": "note_on", "time": 0, "note": 70, "velocity": 124, "channel": 0}, {"type": "note_off", "time": 162, "note": 70, "velocity": 124, "channel": 0}, {"type": "note_on", "time": 22, "note": 67, "velocity": 111, "channel": 0}, {"type": "note_off", "time": 28, "note": 67, "velocity": 111, "channel": 0}, {"type": "note_on", "time": 9, "note": 70, "velocity": 121, "channel": 0}, {"type": "note_off", "time": 121, "note": 70, "velocity": 121, "channel": 0}, {"type": "note_on", "time": 12, "note": 67, "velocity": 114, "channel": 0}, {"type": "note_off", "time": 38, "note": 67, "velocity": 114, "channel": 0}, {"type": "note_on", "time": 15, "note": 69, "velocity": 124, "channel": 0}, {"type": "note_off", "time": 25, "note": 69, "velocity": 124, "channel": 0}, {"type": "note_on", "time": 14, "note": 70, "velocity": 119, "channel": 0}, {"type": "note_off", "time": 94, "note": 70, "velocity": 119, "channel": 0}, {"type": "note_on", "time": 1, "note": 67, "velocity": 115, "channel": 0}, {"type": "note_off", "time": 39, "note": 67, "velocity": 115, "channel": 0}, {"type": "note_on", "time": 11, "note": 70, "velocity": 120, "channel": 0}, {"type": "note_off", "time": 119, "note": 70, "velocity": 120, "channel": 0}, {"type": "note_on", "time": 17, "note": 67, "velocity": 112, "channel": 0}, {"type": "note_off", "time": 49, "note": 67, "velocity": 112, "channel": 0}, {"type": "note_on", "time": 6, "note": 70, "velocity": 124, "channel": 0}, {"type": "note_off", "time": 119, "note": 70, "velocity": 124, "channel": 0}, {"type": "note_on", "time": 1, "note": 67, "velocity": 109, "channel": 0}, {"type": "note_off", "time": 33, "note": 67, "velocity": 109, "channel": 0}, {"type": "note_on", "time": 19, "note": 70, "velocity": 123, "channel": 0}, {"type": "note_off", "time": 159, "note": 70, "velocity": 123, "channel": 0}, {"type": "note_on", "time": 15, "note": 67, "velocity": 96, "channel": 0}, {"type": "note_off", "time": 39, "note": 67, "velocity": 96, "channel": 0}, {"type": "note_on", "time": 85, "note": 67, "velocity": 99, "channel": 0}, {"type": "note_off", "time": 43, "note": 67, "velocity": 99, "channel": 0}, {"type": "note_on", "time": 3, "note": 70, "velocity": 110, "channel": 0}, {"type": "note_off", "time": 49, "note": 70, "velocity": 110, "channel": 0}, {"type": "note_on", "time": 15, "note": 72, "velocity": 111, "channel": 0}, {"type": "note_off", "time": 102, "note": 72, "velocity": 111, "channel": 0}, {"type": "note_on", "time": 230, "note": 72, "velocity": 110, "channel": 0}, {"type": "note_off", "time": 31, "note": 72, "velocity": 110, "channel": 0}, {"type": "note_on", "time": 4, "note": 73, "velocity": 104, "channel": 0}, {"type": "note_off", "time": 20, "note": 73, "velocity": 104, "channel": 0}, {"type": "note_on", "time": 15, "note": 74, "velocity": 118, "channel": 0}, {"type": "note_off", "time": 28, "note": 74, "velocity": 118, "channel": 0}, {"type": "note_on", "time": 14, "note": 76, "velocity": 117, "channel": 0}, {"type": "note_off", "time": 67, "note": 76, "velocity": 117, "channel": 0}, {"type": "note_on", "time": 7, "note": 74, "velocity": 117, "channel": 0}, {"type": "note_off", "time": 21, "note": 74, "velocity": 117, "channel": 0}, {"type": "note_on", "time": 5, "note": 73, "velocity": 107, "channel": 0}, {"type": "note_off", "time": 19, "note": 73, "velocity": 107, "channel": 0}, {"type": "note_on", "time": 3, "note": 72, "velocity": 111, "channel": 0}, {"type": "note_off", "time": 25, "note": 72, "velocity": 111, "channel": 0}, {"type": "note_on", "time": 5, "note": 74, "velocity": 102, "channel": 0}, {"type": "note_off", "time": 23, "note": 74, "velocity": 102, "channel": 0}, {"type": "note_on", "time": 3, "note": 76, "velocity": 97, "channel": 0}, {"type": "note_off", "time": 41, "note": 76, "velocity": 97, "channel": 0}, {"type": "note_on", "time": 156, "note": 71, "velocity": 115, "channel": 0}, {"type": "note_off", "time": 41, "note": 71, "velocity": 115, "channel": 0}, {"type": "note_on", "time": 0, "note": 72, "velocity": 110, "channel": 0}, {"type": "note_off", "time": 26, "note": 72, "velocity": 110, "channel": 0}, {"type": "note_on", "time": 2, "note": 74, "velocity": 109, "channel": 0}, {"type": "note_off", "time": 23, "note": 74, "velocity": 109, "channel": 0}, {"type": "note_on", "time": 14, "note": 75, "velocity": 111, "channel": 0}, {"type": "note_off", "time": 66, "note": 75, "velocity": 111, "channel": 0}, {"type": "note_on", "time": 3, "note": 74, "velocity": 112, "channel": 0}, {"type": "note_off", "time": 21, "note": 74, "velocity": 112, "channel": 0}, {"type": "note_on", "time": 6, "note": 73, "velocity": 112, "channel": 0}, {"type": "note_off", "time": 28, "note": 73, "velocity": 112, "channel": 0}, {"type": "note_on", "time": 3, "note": 72, "velocity": 109, "channel": 0}, {"type": "note_off", "time": 98, "note": 72, "velocity": 109, "channel": 0}, {"type": "note_on", "time": 150, "note": 72, "velocity": 104, "channel": 0}, {"type": "note_off", "time": 25, "note": 72, "velocity": 104, "channel": 0}, {"type": "note_on", "time": 2, "note": 74, "velocity": 109, "channel": 0}, {"type": "note_off", "time": 42, "note": 74, "velocity": 109, "channel": 0}, {"type": "note_on", "time": 5, "note": 75, "velocity": 116, "channel": 0}, {"type": "note_off", "time": 35, "note": 75, "velocity": 116, "channel": 0}, {"type": "note_on", "time": 17, "note": 76, "velocity": 112, "channel": 0}, {"type": "note_off", "time": 40, "note": 76, "velocity": 112, "channel": 0}, {"type": "note_on", "time": 1, "note": 75, "velocity": 114, "channel": 0}, {"type": "note_off", "time": 17, "note": 75, "velocity": 114, "channel": 0}, {"type": "note_on", "time": 4, "note": 74, "velocity": 113, "channel": 0}, {"type": "note_off", "time": 26, "note": 74, "velocity": 113, "channel": 0}, {"type": "note_on", "time": 9, "note": 73, "velocity": 107, "channel": 0}, {"type": "note_off", "time": 31, "note": 73, "velocity": 107, "channel": 0}, {"type": "note_on", "time": 10, "note": 71, "velocity": 112, "channel": 0}, {"type": "note_off", "time": 38, "note": 71, "velocity": 112, "channel": 0}, {"type": "note_on", "time": 13, "note": 70, "velocity": 115, "channel": 0}, {"type": "note_off", "time": 23, "note": 70, "velocity": 115, "channel": 0}, {"type": "note_on", "time": 10, "note": 69, "velocity": 116, "channel": 0}, {"type": "note_off", "time": 32, "note": 69, "velocity": 116, "channel": 0}, {"type": "note_on", "time": 4, "note": 67, "velocity": 113, "channel": 0}, {"type": "note_off", "time": 63, "note": 67, "velocity": 113, "channel": 0}, {"type": "note_on", "time": 4, "note": 69, "velocity": 114, "channel": 0}, {"type": "note_off", "time": 43, "note": 69, "velocity": 114, "channel": 0}, {"type": "note_on", "time": 7, "note": 70, "velocity": 119, "channel": 0}, {"type": "note_off", "time": 51, "note": 70, "velocity": 119, "channel": 0}, {"type": "note_on", "time": 10, "note": 68, "velocity": 110, "channel": 0}, {"type": "note_off", "time": 31, "note": 68, "velocity": 110, "channel": 0}, {"type": "note_on", "time": 4, "note": 67, "velocity": 112, "channel": 0}, {"type": "note_off", "time": 37, "note": 67, "velocity": 112, "channel": 0}, {"type": "note_on", "time": 0, "note": 69, "velocity": 117, "channel": 0}, {"type": "note_off", "time": 46, "note": 69, "velocity": 117, "channel": 0}, {"type": "note_on", "time": 4, "note": 68, "velocity": 113, "channel": 0}, {"type": "note_off", "time": 28, "note": 68, "velocity": 113, "channel": 0}, {"type": "note_on", "time": 4, "note": 67, "velocity": 113, "channel": 0}, {"type": "note_off", "time": 21, "note": 67, "velocity": 113, "channel": 0}, {"type": "note_on", "time": 1, "note": 65, "velocity": 109, "channel": 0}, {"type": "note_off", "time": 42, "note": 65, "velocity": 109, "channel": 0}, {"type": "note_on", "time": 6, "note": 62, "velocity": 102, "channel": 0}, {"type": "note_off", "time": 39, "note": 62, "velocity": 102, "channel": 0}, {"type": "note_on", "time": 8, "note": 63, "velocity": 100, "channel": 0}, {"type": "note_off", "time": 41, "note": 63, "velocity": 100, "channel": 0}, {"type": "note_on", "time": 5, "note": 65, "velocity": 98, "channel": 0}, {"type": "note_off", "time": 57, "note": 65, "velocity": 98, "channel": 0}, {"type": "note_on", "time": 8, "note": 63, "velocity": 108, "channel": 0}, {"type": "note_off", "time": 47, "note": 63, "velocity": 108, "channel": 0}, {"type": "note_on", "time": 5, "note": 62, "velocity": 108, "channel": 0}, {"type": "note_off", "time": 28, "note": 62, "velocity": 108, "channel": 0}, {"type": "note_on", "time": 4, "note": 60, "velocity": 105, "channel": 0}, {"type": "note_off", "time": 33, "note": 60, "velocity": 105, "channel": 0}, {"type": "note_on", "time": 0, "note": 59, "velocity": 105, "channel": 0}, {"type": "note_off", "time": 29, "note": 59, "velocity": 105, "channel": 0}, {"type": "note_on", "time": 4, "note": 55, "velocity": 108, "channel": 0}, {"type": "note_off", "time": 57, "note": 55, "velocity": 108, "channel": 0}, {"type": "note_on", "time": 7, "note": 53, "velocity": 109, "channel": 0}, {"type": "note_off", "time": 60, "note": 53, "velocity": 109, "channel": 0}, {"type": "note_on", "time": 12, "note": 51, "velocity": 110, "channel": 0}, {"type": "note_off", "time": 43, "note": 51, "velocity": 110, "channel": 0}, {"type": "note_on", "time": 8, "note": 50, "velocity": 106, "channel": 0}, {"type": "note_off", "time": 21, "note": 50, "velocity": 106, "channel": 0}, {"type": "note_on", "time": 0, "note": 53, "velocity": 110, "channel": 0}, {"type": "note_off", "time": 48, "note": 53, "velocity": 110, "channel": 0}, {"type": "note_on", "time": 6, "note": 50, "velocity": 113, "channel": 0}, {"type": "note_off", "time": 38, "note": 50, "velocity": 113, "channel": 0}, {"type": "note_on", "time": 2, "note": 51, "velocity": 115, "channel": 0}, {"type": "note_off", "time": 47, "note": 51, "velocity": 115, "channel": 0}, {"type": "note_on", "time": 16, "note": 52, "velocity": 107, "channel": 0}, {"type": "note_off", "time": 38, "note": 52, "velocity": 107, "channel": 0}, {"type": "note_on", "time": 2, "note": 50, "velocity": 114, "channel": 0}, {"type": "note_off", "time": 38, "note": 50, "velocity": 114, "channel": 0}, {"type": "note_on", "time": 3, "note": 48, "velocity": 110, "channel": 0}, {"type": "note_off", "time": 42, "note": 48, "velocity": 110, "channel": 0}, {"type": "note_on", "time": 6, "note": 46, "velocity": 104, "channel": 0}, {"type": "note_off", "time": 38, "note": 46, "velocity": 104, "channel": 0}, {"type": "note_on", "time": 12, "note": 45, "velocity": 98, "channel": 0}, {"type": "note_off", "time": 28, "note": 45, "velocity": 98, "channel": 0}, {"type": "note_on", "time": 10, "note": 43, "velocity": 115, "channel": 0}, {"type": "note_off", "time": 73, "note": 43, "velocity": 115, "channel": 0}, {"type": "note_on", "time": 37, "note": 46, "velocity": 105, "channel": 0}, {"type": "note_off", "time": 31, "note": 46, "velocity": 105, "channel": 0}, {"type": "note_on", "time": 3, "note": 43, "velocity": 100, "channel": 0}, {"type": "note_off", "time": 43, "note": 43, "velocity": 100, "channel": 0}, {"type": "note_on", "time": 5, "note": 44, "velocity": 112, "channel": 0}, {"type": "note_off", "time": 68, "note": 44, "velocity": 112, "channel": 0}, {"type": "note_on", "time": 1, "note": 47, "velocity": 108, "channel": 0}, {"type": "note_off", "time": 41, "note": 47, "velocity": 108, "channel": 0}, {"type": "note_on", "time": 3, "note": 49, "velocity": 110, "channel": 0}, {"type": "note_off", "time": 34, "note": 49, "velocity": 110, "channel": 0}, {"type": "note_on", "time": 7, "note": 51, "velocity": 110, "channel": 0}, {"type": "note_off", "time": 32, "note": 51, "velocity": 110, "channel": 0}, {"type": "note_on", "time": 22, "note": 53, "velocity": 111, "channel": 0}, {"type": "note_off", "time": 42, "note": 53, "velocity": 111, "channel": 0}, {"type": "note_on", "time": 245, "note": 49, "velocity": 116, "channel": 0}, {"type": "note_off", "time": 22, "note": 49, "velocity": 116, "channel": 0}, {"type": "note_on", "time": 6, "note": 51, "velocity": 117, "channel": 0}, {"type": "note_off", "time": 64, "note": 51, "velocity": 117, "channel": 0}, {"type": "note_on", "time": 0, "note": 50, "velocity": 114, "channel": 0}, {"type": "note_off", "time": 37, "note": 50, "velocity": 114, "channel": 0}, {"type": "note_on", "time": 8, "note": 49, "velocity": 110, "channel": 0}, {"type": "note_off", "time": 44, "note": 49, "velocity": 110, "channel": 0}, {"type": "note_on", "time": 1, "note": 48, "velocity": 103, "channel": 0}, {"type": "note_off", "time": 49, "note": 48, "velocity": 103, "channel": 0}, {"type": "note_on", "time": 8, "note": 43, "velocity": 99, "channel": 0}, {"type": "note_off", "time": 44, "note": 43, "velocity": 99, "channel": 0}, {"type": "note_on", "time": 22, "note": 43, "velocity": 113, "channel": 0}, {"type": "note_off", "time": 85, "note": 43, "velocity": 113, "channel": 0}, {"type": "note_on", "time": 16, "note": 46, "velocity": 101, "channel": 0}, {"type": "note_off", "time": 44, "note": 46, "velocity": 101, "channel": 0}, {"type": "note_on", "time": 3, "note": 41, "velocity": 96, "channel": 0}, {"type": "note_off", "time": 41, "note": 41, "velocity": 96, "channel": 0}, {"type": "note_on", "time": 6, "note": 43, "velocity": 104, "channel": 0}, {"type": "note_off", "time": 27, "note": 43, "velocity": 104, "channel": 0}, {"type": "note_on", "time": 3, "note": 45, "velocity": 95, "channel": 0}, {"type": "note_off", "time": 24, "note": 45, "velocity": 95, "channel": 0}, {"type": "note_on", "time": 11, "note": 46, "velocity": 100, "channel": 0}, {"type": "note_off", "time": 27, "note": 46, "velocity": 100, "channel": 0}, {"type": "note_on", "time": 7, "note": 48, "velocity": 106, "channel": 0}, {"type": "note_off", "time": 34, "note": 48, "velocity": 106, "channel": 0}, {"type": "note_on", "time": 13, "note": 51, "velocity": 116, "channel": 0}, {"type": "note_off", "time": 43, "note": 51, "velocity": 116, "channel": 0}, {"type": "note_on", "time": 6, "note": 49, "velocity": 105, "channel": 0}, {"type": "note_off", "time": 44, "note": 49, "velocity": 105, "channel": 0}, {"type": "note_on", "time": 13, "note": 50, "velocity": 117, "channel": 0}, {"type": "note_off", "time": 55, "note": 50, "velocity": 117, "channel": 0}, {"type": "note_on", "time": 11, "note": 49, "velocity": 110, "channel": 0}, {"type": "note_off", "time": 31, "note": 49, "velocity": 110, "channel": 0}, {"type": "note_on", "time": 3, "note": 48, "velocity": 110, "channel": 0}, {"type": "note_off", "time": 24, "note": 48, "velocity": 110, "channel": 0}, {"type": "note_on", "time": 2, "note": 47, "velocity": 104, "channel": 0}, {"type": "note_off", "time": 21, "note": 47, "velocity": 104, "channel": 0}, {"type": "note_on", "time": 12, "note": 44, "velocity": 100, "channel": 0}, {"type": "note_off", "time": 32, "note": 44, "velocity": 100, "channel": 0}, {"type": "note_on", "time": 7, "note": 43, "velocity": 93, "channel": 0}, {"type": "note_off", "time": 55, "note": 43, "velocity": 93, "channel": 0}, {"type": "note_on", "time": 24, "note": 45, "velocity": 108, "channel": 0}, {"type": "note_off", "time": 41, "note": 45, "velocity": 108, "channel": 0}, {"type": "note_on", "time": 9, "note": 43, "velocity": 105, "channel": 0}, {"type": "note_off", "time": 35, "note": 43, "velocity": 105, "channel": 0}, {"type": "note_on", "time": 14, "note": 46, "velocity": 111, "channel": 0}, {"type": "note_off", "time": 16, "note": 46, "velocity": 111, "channel": 0}, {"type": "note_on", "time": 10, "note": 49, "velocity": 112, "channel": 0}, {"type": "note_off", "time": 25, "note": 49, "velocity": 112, "channel": 0}, {"type": "note_on", "time": 5, "note": 52, "velocity": 105, "channel": 0}, {"type": "note_off", "time": 17, "note": 52, "velocity": 105, "channel": 0}, {"type": "note_on", "time": 5, "note": 54, "velocity": 104, "channel": 0}, {"type": "note_off", "time": 41, "note": 54, "velocity": 104, "channel": 0}, {"type": "note_on", "time": 22, "note": 58, "velocity": 105, "channel": 0}, {"type": "note_off", "time": 28, "note": 58, "velocity": 105, "channel": 0}, {"type": "note_on", "time": 10, "note": 54, "velocity": 98, "channel": 0}, {"type": "note_off", "time": 30, "note": 54, "velocity": 98, "channel": 0}, {"type": "note_on", "time": 19, "note": 58, "velocity": 103, "channel": 0}, {"type": "note_off", "time": 33, "note": 58, "velocity": 103, "channel": 0}, {"type": "note_on", "time": 9, "note": 62, "velocity": 93, "channel": 0}, {"type": "note_off", "time": 21, "note": 62, "velocity": 93, "channel": 0}, {"type": "note_on", "time": 9, "note": 63, "velocity": 96, "channel": 0}, {"type": "note_off", "time": 43, "note": 63, "velocity": 96, "channel": 0}, {"type": "note_on", "time": 32, "note": 64, "velocity": 107, "channel": 0}, {"type": "note_off", "time": 19, "note": 64, "velocity": 107, "channel": 0}, {"type": "note_on", "time": 7, "note": 67, "velocity": 100, "channel": 0}, {"type": "note_off", "time": 25, "note": 67, "velocity": 100, "channel": 0}, {"type": "note_on", "time": 3, "note": 65, "velocity": 104, "channel": 0}, {"type": "note_off", "time": 34, "note": 65, "velocity": 104, "channel": 0}, {"type": "note_on", "time": 16, "note": 62, "velocity": 103, "channel": 0}, {"type": "note_off", "time": 23, "note": 62, "velocity": 103, "channel": 0}, {"type": "note_on", "time": 7, "note": 63, "velocity": 101, "channel": 0}, {"type": "note_off", "time": 26, "note": 63, "velocity": 101, "channel": 0}, {"type": "note_on", "time": 8, "note": 65, "velocity": 100, "channel": 0}, {"type": "note_off", "time": 19, "note": 65, "velocity": 100, "channel": 0}, {"type": "note_on", "time": 5, "note": 67, "velocity": 104, "channel": 0}, {"type": "note_off", "time": 19, "note": 67, "velocity": 104, "channel": 0}, {"type": "note_on", "time": 3, "note": 68, "velocity": 104, "channel": 0}, {"type": "note_off", "time": 45, "note": 68, "velocity": 104, "channel": 0}, {"type": "note_on", "time": 15, "note": 66, "velocity": 109, "channel": 0}, {"type": "note_off", "time": 29, "note": 66, "velocity": 109, "channel": 0}, {"type": "note_on", "time": 1, "note": 65, "velocity": 112, "channel": 0}, {"type": "note_off", "time": 58, "note": 65, "velocity": 112, "channel": 0}, {"type": "note_on", "time": 4, "note": 63, "velocity": 105, "channel": 0}, {"type": "note_off", "time": 41, "note": 63, "velocity": 105, "channel": 0}, {"type": "note_on", "time": 10, "note": 62, "velocity": 104, "channel": 0}, {"type": "note_off", "time": 94, "note": 62, "velocity": 104, "channel": 0}, {"type": "note_on", "time": 30, "note": 65, "velocity": 111, "channel": 0}, {"type": "note_off", "time": 25, "note": 65, "velocity": 111, "channel": 0}, {"type": "note_on", "time": 11, "note": 62, "velocity": 103, "channel": 0}, {"type": "note_off", "time": 38, "note": 62, "velocity": 103, "channel": 0}, {"type": "note_on", "time": 2, "note": 64, "velocity": 103, "channel": 0}, {"type": "note_off", "time": 17, "note": 64, "velocity": 103, "channel": 0}, {"type": "note_on", "time": 3, "note": 67, "velocity": 104, "channel": 0}, {"type": "note_off", "time": 15, "note": 67, "velocity": 104, "channel": 0}, {"type": "note_on", "time": 7, "note": 64, "velocity": 100, "channel": 0}, {"type": "note_off", "time": 26, "note": 64, "velocity": 100, "channel": 0}, {"type": "note_on", "time": 8, "note": 63, "velocity": 110, "channel": 0}, {"type": "note_off", "time": 30, "note": 63, "velocity": 110, "channel": 0}, {"type": "note_on", "time": 4, "note": 62, "velocity": 106, "channel": 0}, {"type": "note_off", "time": 38, "note": 62, "velocity": 106, "channel": 0}, {"type": "note_on", "time": 3, "note": 60, "velocity": 103, "channel": 0}, {"type": "note_off", "time": 30, "note": 60, "velocity": 103, "channel": 0}, {"type": "note_on", "time": 7, "note": 58, "velocity": 103, "channel": 0}, {"type": "note_off", "time": 36, "note": 58, "velocity": 103, "channel": 0}, {"type": "note_on", "time": 5, "note": 56, "velocity": 106, "channel": 0}, {"type": "note_off", "time": 27, "note": 56, "velocity": 106, "channel": 0}, {"type": "note_on", "time": 7, "note": 55, "velocity": 109, "channel": 0}, {"type": "note_off", "time": 41, "note": 55, "velocity": 109, "channel": 0}, {"type": "note_on", "time": 2, "note": 53, "velocity": 107, "channel": 0}, {"type": "note_off", "time": 47, "note": 53, "velocity": 107, "channel": 0}, {"type": "note_on", "time": 6, "note": 51, "velocity": 112, "channel": 0}, {"type": "note_off", "time": 43, "note": 51, "velocity": 112, "channel": 0}, {"type": "note_on", "time": 7, "note": 50, "velocity": 114, "channel": 0}, {"type": "note_off", "time": 39, "note": 50, "velocity": 114, "channel": 0}, {"type": "note_on", "time": 11, "note": 48, "velocity": 111, "channel": 0}, {"type": "note_off", "time": 28, "note": 48, "velocity": 111, "channel": 0}, {"type": "note_on", "time": 5, "note": 46, "velocity": 103, "channel": 0}, {"type": "note_off", "time": 31, "note": 46, "velocity": 103, "channel": 0}, {"type": "note_on", "time": 7, "note": 44, "velocity": 98, "channel": 0}, {"type": "note_off", "time": 23, "note": 44, "velocity": 98, "channel": 0}, {"type": "note_on", "time": 6, "note": 43, "velocity": 114, "channel": 0}, {"type": "note_off", "time": 46, "note": 43, "velocity": 114, "channel": 0}, {"type": "note_on", "time": 0, "note": 41, "velocity": 107, "channel": 0}, {"type": "note_off", "time": 47, "note": 41, "velocity": 107, "channel": 0}, {"type": "note_on", "time": 12, "note": 48, "velocity": 108, "channel": 0}, {"type": "note_off", "time": 21, "note": 48, "velocity": 108, "channel": 0}, {"type": "note_on", "time": 8, "note": 51, "velocity": 111, "channel": 0}, {"type": "note_off", "time": 22, "note": 51, "velocity": 111, "channel": 0}, {"type": "note_on", "time": 6, "note": 54, "velocity": 107, "channel": 0}, {"type": "note_off", "time": 60, "note": 54, "velocity": 107, "channel": 0}, {"type": "note_on", "time": 11, "note": 58, "velocity": 107, "channel": 0}, {"type": "note_off", "time": 47, "note": 58, "velocity": 107, "channel": 0}, {"type": "note_on", "time": 1, "note": 60, "velocity": 102, "channel": 0}, {"type": "note_off", "time": 18, "note": 60, "velocity": 102, "channel": 0}, {"type": "note_on", "time": 2, "note": 64, "velocity": 102, "channel": 0}, {"type": "note_off", "time": 22, "note": 64, "velocity": 102, "channel": 0}, {"type": "note_on", "time": 2, "note": 67, "velocity": 106, "channel": 0}, {"type": "note_off", "time": 14, "note": 67, "velocity": 106, "channel": 0}, {"type": "note_on", "time": 3, "note": 69, "velocity": 101, "channel": 0}, {"type": "note_off", "time": 22, "note": 69, "velocity": 101, "channel": 0}, {"type": "note_on", "time": 3, "note": 71, "velocity": 95, "channel": 0}, {"type": "note_off", "time": 38, "note": 71, "velocity": 95, "channel": 0}, {"type": "note_on", "time": 4, "note": 73, "velocity": 104, "channel": 0}, {"type": "note_off", "time": 37, "note": 73, "velocity": 104, "channel": 0}, {"type": "note_on", "time": 12, "note": 75, "velocity": 118, "channel": 0}, {"type": "note_off", "time": 92, "note": 75, "velocity": 118, "channel": 0}, {"type": "note_on", "time": 190, "note": 74, "velocity": 113, "channel": 0}, {"type": "note_off", "time": 62, "note": 74, "velocity": 113, "channel": 0}, {"type": "note_on", "time": 7, "note": 73, "velocity": 110, "channel": 0}, {"type": "note_off", "time": 39, "note": 73, "velocity": 110, "channel": 0}, {"type": "note_on", "time": 27, "note": 70, "velocity": 106, "channel": 0}, {"type": "note_off", "time": 47, "note": 70, "velocity": 106, "channel": 0}, {"type": "note_on", "time": 6, "note": 67, "velocity": 111, "channel": 0}, {"type": "note_off", "time": 196, "note": 67, "velocity": 111, "channel": 0}, {"type": "note_on", "time": 1, "note": 70, "velocity": 125, "channel": 0}, {"type": "note_off", "time": 100, "note": 70, "velocity": 125, "channel": 0}, {"type": "note_on", "time": 30, "note": 67, "velocity": 111, "channel": 0}, {"type": "note_off", "time": 94, "note": 67, "velocity": 111, "channel": 0}, {"type": "note_on", "time": 9, "note": 68, "velocity": 114, "channel": 0}, {"type": "note_off", "time": 49, "note": 68, "velocity": 114, "channel": 0}, {"type": "note_on", "time": 9, "note": 70, "velocity": 111, "channel": 0}, {"type": "note_off", "time": 51, "note": 70, "velocity": 111, "channel": 0}, {"type": "note_on", "time": 6, "note": 68, "velocity": 116, "channel": 0}, {"type": "note_off", "time": 51, "note": 68, "velocity": 116, "channel": 0}, {"type": "note_on", "time": 15, "note": 67, "velocity": 111, "channel": 0}, {"type": "note_off", "time": 70, "note": 67, "velocity": 111, "channel": 0}, {"type": "note_on", "time": 11, "note": 69, "velocity": 121, "channel": 0}, {"type": "note_off", "time": 31, "note": 69, "velocity": 121, "channel": 0}, {"type": "note_on", "time": 9, "note": 67, "velocity": 110, "channel": 0}, {"type": "note_off", "time": 41, "note": 67, "velocity": 110, "channel": 0}, {"type": "note_on", "time": 23, "note": 62, "velocity": 101, "channel": 0}, {"type": "note_off", "time": 145, "note": 62, "velocity": 101, "channel": 0}, {"type": "note_on", "time": 7, "note": 65, "velocity": 105, "channel": 0}, {"type": "note_off", "time": 59, "note": 65, "velocity": 105, "channel": 0}, {"type": "note_on", "time": 167, "note": 62, "velocity": 95, "channel": 0}, {"type": "note_off", "time": 103, "note": 62, "velocity": 95, "channel": 0}, {"type": "note_on", "time": 7, "note": 63, "velocity": 108, "channel": 0}, {"type": "note_off", "time": 47, "note": 63, "velocity": 108, "channel": 0}, {"type": "note_on", "time": 15, "note": 67, "velocity": 118, "channel": 0}, {"type": "note_off", "time": 83, "note": 67, "velocity": 118, "channel": 0}, {"type": "note_on", "time": 15, "note": 70, "velocity": 117, "channel": 0}, {"type": "note_off", "time": 83, "note": 70, "velocity": 117, "channel": 0}, {"type": "note_on", "time": 6, "note": 74, "velocity": 119, "channel": 0}, {"type": "note_off", "time": 95, "note": 74, "velocity": 119, "channel": 0}, {"type": "note_on", "time": 7, "note": 72, "velocity": 108, "channel": 0}, {"type": "note_off", "time": 39, "note": 72, "velocity": 108, "channel": 0}, {"type": "note_on", "time": 3, "note": 69, "velocity": 108, "channel": 0}, {"type": "note_on", "time": 28, "note": 63, "velocity": 104, "channel": 0}, {"type": "note_off", "time": 0, "note": 69, "velocity": 108, "channel": 0}, {"type": "note_off", "time": 97, "note": 63, "velocity": 104, "channel": 0}, {"type": "note_on", "time": 115, "note": 65, "velocity": 109, "channel": 0}, {"type": "note_off", "time": 83, "note": 65, "velocity": 109, "channel": 0}, {"type": "note_on", "time": 193, "note": 70, "velocity": 113, "channel": 0}, {"type": "note_off", "time": 46, "note": 70, "velocity": 113, "channel": 0}, {"type": "note_on", "time": 0, "note": 67, "velocity": 110, "channel": 0}, {"type": "note_off", "time": 38, "note": 67, "velocity": 110, "channel": 0}, {"type": "note_on", "time": 6, "note": 62, "velocity": 100, "channel": 0}, {"type": "note_off", "time": 95, "note": 62, "velocity": 100, "channel": 0}, {"type": "note_on", "time": 20, "note": 62, "velocity": 103, "channel": 0}, {"type": "note_off", "time": 30, "note": 62, "velocity": 103, "channel": 0}, {"type": "note_on", "time": 9, "note": 64, "velocity": 100, "channel": 0}, {"type": "note_off", "time": 31, "note": 64, "velocity": 100, "channel": 0}, {"type": "note_on", "time": 14, "note": 65, "velocity": 116, "channel": 0}, {"type": "note_off", "time": 118, "note": 65, "velocity": 116, "channel": 0}, {"type": "note_on", "time": 4, "note": 62, "velocity": 102, "channel": 0}, {"type": "note_off", "time": 47, "note": 62, "velocity": 102, "channel": 0}, {"type": "note_on", "time": 20, "note": 63, "velocity": 106, "channel": 0}, {"type": "note_off", "time": 99, "note": 63, "velocity": 106, "channel": 0}, {"type": "note_on", "time": 6, "note": 65, "velocity": 114, "channel": 0}, {"type": "note_off", "time": 44, "note": 65, "velocity": 114, "channel": 0}, {"type": "note_on", "time": 0, "note": 63, "velocity": 113, "channel": 0}, {"type": "note_on", "time": 27, "note": 62, "velocity": 106, "channel": 0}, {"type": "note_off", "time": 0, "note": 63, "velocity": 113, "channel": 0}, {"type": "note_off", "time": 83, "note": 62, "velocity": 106, "channel": 0}, {"type": "note_on", "time": 23, "note": 60, "velocity": 106, "channel": 0}, {"type": "note_off", "time": 87, "note": 60, "velocity": 106, "channel": 0}, {"type": "note_on", "time": 3, "note": 58, "velocity": 104, "channel": 0}, {"type": "note_off", "time": 100, "note": 58, "velocity": 104, "channel": 0}, {"type": "end_of_track", "time": 0}]]}