{"ticks_per_beat": 5040, "tracks": [[{"type": "track_name", "name": "Melody", "time": 0}, {"type": "set_tempo", "tempo": 833333, "time": 0}, {"type": "key_signature", "key": "F", "time": 0}, {"type": "time_signature", "numerator": 4, "denominator": 4, "clocks_per_click": 24, "notated_32nd_notes_per_beat": 8, "time": 0}, {"type": "note_on", "time": 44201, "note": 67, "velocity": 115, "channel": 0}, {"type": "note_off", "time": 983, "note": 67, "velocity": 115, "channel": 0}, {"type": "note_on", "time": 35, "note": 66, "velocity": 111, "channel": 0}, {"type": "note_off", "time": 386, "note": 66, "velocity": 111, "channel": 0}, {"type": "note_on", "time": 148, "note": 64, "velocity": 121, "channel": 0}, {"type": "note_off", "time": 351, "note": 64, "velocity": 121, "channel": 0}, {"type": "note_on", "time": 19, "note": 62, "velocity": 108, "channel": 0}, {"type": "note_off", "time": 421, "note": 62, "velocity": 108, "channel": 0}, {"type": "note_on", "time": 97, "note": 63, "velocity": 114, "channel": 0}, {"type": "note_off", "time": 444, "note": 63, "velocity": 114, "channel": 0}, {"type": "note_on", "time": 222, "note": 63, "velocity": 110, "channel": 0}, {"type": "note_off", "time": 1012, "note": 63, "velocity": 110, "channel": 0}, {"type": "note_on", "time": 555, "note": 54, "velocity": 111, "channel": 0}, {"type": "note_off", "time": 357, "note": 54, "velocity": 111, "channel": 0}, {"type": "note_on", "time": 37, "note": 56, "velocity": 109, "channel": 0}, {"type": "note_off", "time": 271, "note": 56, "velocity": 109, "channel": 0}, {"type": "note_on", "time": 296, "note": 58, "velocity": 115, "channel": 0}, {"type": "note_off", "time": 1382, "note": 58, "velocity": 115, "channel": 0}, {"type": "note_on", "time": 209, "note": 62, "velocity": 106, "channel": 0}, {"type": "note_off", "time": 1394, "note": 62, "velocity": 106, "channel": 0}, {"type": "note_on", "time": 37, "note": 60, "velocity": 107, "channel": 0}, {"type": "note_off", "time": 370, "note": 60, "velocity": 107, "channel": 0}, {"type": "note_on", "time": 49, "note": 62, "velocity": 108, "channel": 0}, {"type": "note_off", "time": 345, "note": 62, "velocity": 108, "channel": 0}, {"type": "note_on", "time": 111, "note": 60, "velocity": 115, "channel": 0}, {"type": "note_off", "time": 394, "note": 60, "velocity": 115, "channel": 0}, {"type": "note_on", "time": 61, "note": 58, "velocity": 116, "channel": 0}, {"type": "note_off", "time": 789, "note": 58, "velocity": 116, "channel": 0}, {"type": "note_on", "time": 86, "note": 57, "velocity": 105, "channel": 0}, {"type": "note_off", "time": 999, "note": 57, "velocity": 105, "channel": 0}, {"type": "note_on", "time": 234, "note": 60, "velocity": 110, "channel": 0}, {"type": "note_off", "time": 432, "note": 60, "velocity": 110, "channel": 0}, {"type": "note_on", "time": 0, "note": 63, "velocity": 110, "channel": 0}, {"type": "note_off", "time": 259, "note": 63, "velocity": 110, "channel": 0}, {"type": "note_on", "time": 555, "note": 67, "velocity": 114, "channel": 0}, {"type": "note_off", "time": 1110, "note": 67, "velocity": 114, "channel": 0}, {"type": "note_on", "time": 246, "note": 59, "velocity": 99, "channel": 0}, {"type": "note_off", "time": 320, "note": 59, "velocity": 99, "channel": 0}, {"type": "note_on", "time": 100, "note": 60, "velocity": 100, "channel": 0}, {"type": "note_off", "time": 308, "note": 60, "velocity": 100, "channel": 0}, {"type": "note_on", "time": 109, "note": 64, "velocity": 111, "channel": 0}, {"type": "note_off", "time": 469, "note": 64, "velocity": 111, "channel": 0}, {"type": "note_on", "time": 135, "note": 65, "velocity": 115, "channel": 0}, {"type": "note_off", "time": 1135, "note": 65, "velocity": 115, "channel": 0}, {"type": "note_on", "time": 345, "note": 67, "velocity": 110, "channel": 0}, {"type": "note_off", "time": 938, "note": 67, "velocity": 110, "channel": 0}, {"type": "note_on", "time": 283, "note": 68, "velocity": 113, "channel": 0}, {"type": "note_off", "time": 1110, "note": 68, "velocity": 113, "channel": 0}, {"type": "note_on", "time": 74, "note": 70, "velocity": 110, "channel": 0}, {"type": "note_off", "time": 1172, "note": 70, "velocity": 110, "channel": 0}, {"type": "note_on", "time": 24, "note": 72, "velocity": 116, "channel": 0}, {"type": "note_off", "time": 1370, "note": 72, "velocity": 116, "channel": 0}, {"type": "note_on", "time": 296, "note": 64, "velocity": 111, "channel": 0}, {"type": "note_off", "time": 1172, "note": 64, "velocity": 111, "channel": 0}, {"type": "note_on", "time": 259, "note": 60, "velocity": 103, "channel": 0}, {"type": "note_off", "time": 1456, "note": 60, "velocity": 103, "channel": 0}, {"type": "note_on", "time": 1168, "note": 64, "velocity": 97, "channel": 0}, {"type": "note_off", "time": 5122, "note": 64, "velocity": 97, "channel": 0}, {"type": "note_on", "time": 9456, "note": 72, "velocity": 119, "channel": 0}, {"type": "note_off", "time": 921, "note": 72, "velocity": 119, "channel": 0}, {"type": "note_on", "time": 26, "note": 74, "velocity": 113, "channel": 0}, {"type": "note_off", "time": 500, "note": 74, "velocity": 113, "channel": 0}, {"type": "note_on", "time": 35, "note": 76, "velocity": 119, "channel": 0}, {"type": "note_off", "time": 693, "note": 76, "velocity": 119, "channel": 0}, {"type": "note_on", "time": 8, "note": 77, "velocity": 119, "channel": 0}, {"type": "note_off", "time": 912, "note": 77, "velocity": 119, "channel": 0}, {"type": "note_on", "time": 26, "note": 76, "velocity": 120, "channel": 0}, {"type": "note_off", "time": 2220, "note": 76, "velocity": 120, "channel": 0}, {"type": "note_on", "time": 157, "note": 72, "velocity": 112, "channel": 0}, {"type": "note_off", "time": 1360, "note": 72, "velocity": 112, "channel": 0}, {"type": "note_on", "time": 193, "note": 73, "velocity": 113, "channel": 0}, {"type": "note_off", "time": 465, "note": 73, "velocity": 113, "channel": 0}, {"type": "note_on", "time": 35, "note": 74, "velocity": 109, "channel": 0}, {"type": "note_off", "time": 754, "note": 74, "velocity": 109, "channel": 0}, {"type": "note_on", "time": 149, "note": 72, "velocity": 113, "channel": 0}, {"type": "note_off", "time": 1509, "note": 72, "velocity": 113, "channel": 0}, {"type": "note_on", "time": 52, "note": 69, "velocity": 104, "channel": 0}, {"type": "note_off", "time": 868, "note": 69, "velocity": 104, "channel": 0}, {"type": "note_on", "time": 0, "note": 70, "velocity": 112, "channel": 0}, {"type": "note_off", "time": 1483, "note": 70, "velocity": 112, "channel": 0}, {"type": "note_on", "time": 78, "note": 72, "velocity": 114, "channel": 0}, {"type": "note_off", "time": 939, "note": 72, "velocity": 114, "channel": 0}, {"type": "note_on", "time": 254, "note": 67, "velocity": 111, "channel": 0}, {"type": "note_off", "time": 544, "note": 67, "velocity": 111, "channel": 0}, {"type": "note_on", "time": 0, "note": 69, "velocity": 112, "channel": 0}, {"type": "note_off", "time": 842, "note": 69, "velocity": 112, "channel": 0}, {"type": "note_on", "time": 307, "note": 65, "velocity": 120, "channel": 0}, {"type": "note_off", "time": 904, "note": 65, "velocity": 120, "channel": 0}, {"type": "note_on", "time": 140, "note": 62, "velocity": 91, "channel": 0}, {"type": "note_off", "time": 596, "note": 62, "velocity": 91, "channel": 0}, {"type": "note_on", "time": 833, "note": 58, "velocity": 107, "channel": 0}, {"type": "note_off", "time": 702, "note": 58, "velocity": 107, "channel": 0}, {"type": "note_on", "time": 96, "note": 67, "velocity": 116, "channel": 0}, {"type": "note_off", "time": 500, "note": 67, "velocity": 116, "channel": 0}, {"type": "note_on", "time": 0, "note": 68, "velocity": 108, "channel": 0}, {"type": "note_off", "time": 737, "note": 68, "velocity": 108, "channel": 0}, {"type": "note_on", "time": 0, "note": 67, "velocity": 106, "channel": 0}, {"type": "note_off", "time": 544, "note": 67, "velocity": 106, "channel": 0}, {"type": "note_on", "time": 87, "note": 65, "velocity": 109, "channel": 0}, {"type": "note_off", "time": 640, "note": 65, "velocity": 109, "channel": 0}, {"type": "note_on", "time": 70, "note": 63, "velocity": 121, "channel": 0}, {"type": "note_off", "time": 394, "note": 63, "velocity": 121, "channel": 0}, {"type": "note_on", "time": 35, "note": 64, "velocity": 116, "channel": 0}, {"type": "note_off", "time": 1070, "note": 64, "velocity": 116, "channel": 0}, {"type": "note_on", "time": 166, "note": 61, "velocity": 102, "channel": 0}, {"type": "note_on", "time": 236, "note": 60, "velocity": 102, "channel": 0}, {"type": "note_off", "time": 0, "note": 61, "velocity": 102, "channel": 0}, {"type": "note_off", "time": 386, "note": 60, "velocity": 102, "channel": 0}, {"type": "note_on", "time": 114, "note": 63, "velocity": 110, "channel": 0}, {"type": "note_off", "time": 1500, "note": 63, "velocity": 110, "channel": 0}, {"type": "note_on", "time": 105, "note": 59, "velocity": 99, "channel": 0}, {"type": "note_off", "time": 1860, "note": 59, "velocity": 99, "channel": 0}, {"type": "note_on", "time": 1053, "note": 58, "velocity": 104, "channel": 0}, {"type": "note_off", "time": 517, "note": 58, "velocity": 104, "channel": 0}, {"type": "note_on", "time": 105, "note": 60, "velocity": 112, "channel": 0}, {"type": "note_off", "time": 421, "note": 60, "velocity": 112, "channel": 0}, {"type": "note_on", "time": 0, "note": 63, "velocity": 97, "channel": 0}, {"type": "note_off", "time": 324, "note": 63, "velocity": 97, "channel": 0}, {"type": "note_on", "time": 166, "note": 64, "velocity": 105, "channel": 0}, {"type": "note_off", "time": 596, "note": 64, "velocity": 105, "channel": 0}, {"type": "note_on", "time": 175, "note": 66, "velocity": 99, "channel": 0}, {"type": "note_off", "time": 658, "note": 66, "velocity": 99, "channel": 0}, {"type": "note_on", "time": 359, "note": 71, "velocity": 91, "channel": 0}, {"type": "note_off", "time": 482, "note": 71, "velocity": 91, "channel": 0}, {"type": "note_on", "time": 386, "note": 75, "velocity": 116, "channel": 0}, {"type": "note_off", "time": 535, "note": 75, "velocity": 116, "channel": 0}, {"type": "note_on", "time": 0, "note": 76, "velocity": 103, "channel": 0}, {"type": "note_off", "time": 4529, "note": 76, "velocity": 103, "channel": 0}, {"type": "note_on", "time": 6449, "note": 74, "velocity": 115, "channel": 0}, {"type": "note_off", "time": 864, "note": 74, "velocity": 115, "channel": 0}, {"type": "note_on", "time": 222, "note": 75, "velocity": 115, "channel": 0}, {"type": "note_off", "time": 740, "note": 75, "velocity": 115, "channel": 0}, {"type": "note_on", "time": 37, "note": 74, "velocity": 111, "channel": 0}, {"type": "note_off", "time": 506, "note": 74, "velocity": 111, "channel": 0}, {"type": "note_on", "time": 172, "note": 70, "velocity": 111, "channel": 0}, {"type": "note_off", "time": 814, "note": 70, "velocity": 111, "channel": 0}, {"type": "note_on", "time": 123, "note": 65, "velocity": 119, "channel": 0}, {"type": "note_off", "time": 580, "note": 65, "velocity": 119, "channel": 0}, {"type": "note_on", "time": 0, "note": 62, "velocity": 111, "channel": 0}, {"type": "note_off", "time": 691, "note": 62, "velocity": 111, "channel": 0}, {"type": "note_on", "time": 197, "note": 60, "velocity": 103, "channel": 0}, {"type": "note_off", "time": 654, "note": 60, "velocity": 103, "channel": 0}, {"type": "note_on", "time": 123, "note": 61, "velocity": 118, "channel": 0}, {"type": "note_off", "time": 283, "note": 61, "velocity": 118, "channel": 0}, {"type": "note_on", "time": 0, "note": 62, "velocity": 103, "channel": 0}, {"type": "note_off", "time": 703, "note": 62, "velocity": 103, "channel": 0}, {"type": "note_on", "time": 283, "note": 53, "velocity": 107, "channel": 0}, {"type": "note_off", "time": 654, "note": 53, "velocity": 107, "channel": 0}, {"type": "note_on", "time": 74, "note": 55, "velocity": 106, "channel": 0}, {"type": "note_off", "time": 1098, "note": 55, "velocity": 106, "channel": 0}, {"type": "note_on", "time": 0, "note": 56, "velocity": 108, "channel": 0}, {"type": "note_off", "time": 1814, "note": 56, "velocity": 108, "channel": 0}, {"type": "note_on", "time": 6640, "note": 61, "velocity": 108, "channel": 0}, {"type": "note_off", "time": 481, "note": 61, "velocity": 108, "channel": 0}, {"type": "note_on", "time": 61, "note": 63, "velocity": 120, "channel": 0}, {"type": "note_off", "time": 407, "note": 63, "velocity": 120, "channel": 0}, {"type": "note_on", "time": 24, "note": 65, "velocity": 114, "channel": 0}, {"type": "note_off", "time": 604, "note": 65, "velocity": 114, "channel": 0}, {"type": "note_on", "time": 24, "note": 66, "velocity": 105, "channel": 0}, {"type": "note_off", "time": 518, "note": 66, "velocity": 105, "channel": 0}, {"type": "note_on", "time": 49, "note": 67, "velocity": 99, "channel": 0}, {"type": "note_off", "time": 629, "note": 67, "velocity": 99, "channel": 0}, {"type": "note_on", "time": 37, "note": 70, "velocity": 95, "channel": 0}, {"type": "note_off", "time": 320, "note": 70, "velocity": 95, "channel": 0}, {"type": "note_on", "time": 24, "note": 72, "velocity": 119, "channel": 0}, {"type": "note_off", "time": 691, "note": 72, "velocity": 119, "channel": 0}, {"type": "note_on", "time": 111, "note": 68, "velocity": 115, "channel": 0}, {"type": "note_off", "time": 456, "note": 68, "velocity": 115, "channel": 0}, {"type": "note_on", "time": 61, "note": 67, "velocity": 105, "channel": 0}, {"type": "note_off", "time": 481, "note": 67, "velocity": 105, "channel": 0}, {"type": "note_on", "time": 135, "note": 65, "velocity": 102, "channel": 0}, {"type": "note_off", "time": 518, "note": 65, "velocity": 102, "channel": 0}, {"type": "note_on", "time": 197, "note": 70, "velocity": 120, "channel": 0}, {"type": "note_off", "time": 444, "note": 70, "velocity": 120, "channel": 0}, {"type": "note_on", "time": 24, "note": 71, "velocity": 103, "channel": 0}, {"type": "note_off", "time": 2937, "note": 71, "velocity": 103, "channel": 0}, {"type": "note_on", "time": 394, "note": 71, "velocity": 97, "channel": 0}, {"type": "note_off", "time": 555, "note": 71, "velocity": 97, "channel": 0}, {"type": "note_on", "time": 37, "note": 72, "velocity": 104, "channel": 0}, {"type": "note_off", "time": 629, "note": 72, "velocity": 104, "channel": 0}, {"type": "note_on", "time": 12, "note": 73, "velocity": 121, "channel": 0}, {"type": "note_off", "time": 333, "note": 73, "velocity": 121, "channel": 0}, {"type": "note_on", "time": 0, "note": 74, "velocity": 115, "channel": 0}, {"type": "note_off", "time": 419, "note": 74, "velocity": 115, "channel": 0}, {"type": "note_on", "time": 0, "note": 72, "velocity": 117, "channel": 0}, {"type": "note_off", "time": 506, "note": 72, "velocity": 117, "channel": 0}, {"type": "note_on", "time": 0, "note": 71, "velocity": 114, "channel": 0}, {"type": "note_off", "time": 629, "note": 71, "velocity": 114, "channel": 0}, {"type": "note_on", "time": 24, "note": 69, "velocity": 116, "channel": 0}, {"type": "note_off", "time": 617, "note": 69, "velocity": 116, "channel": 0}, {"type": "note_on", "time": 0, "note": 67, "velocity": 115, "channel": 0}, {"type": "note_off", "time": 678, "note": 67, "velocity": 115, "channel": 0}, {"type": "note_on", "time": 86, "note": 65, "velocity": 114, "channel": 0}, {"type": "note_off", "time": 617, "note": 65, "velocity": 114, "channel": 0}, {"type": "note_on", "time": 49, "note": 64, "velocity": 107, "channel": 0}, {"type": "note_off", "time": 666, "note": 64, "velocity": 107, "channel": 0}, {"type": "note_on", "time": 160, "note": 59, "velocity": 101, "channel": 0}, {"type": "note_on", "time": 493, "note": 62, "velocity": 111, "channel": 0}, {"type": "note_off", "time": 0, "note": 59, "velocity": 101, "channel": 0}, {"type": "note_off", "time": 666, "note": 62, "velocity": 111, "channel": 0}, {"type": "note_on", "time": 135, "note": 59, "velocity": 106, "channel": 0}, {"type": "note_off", "time": 506, "note": 59, "velocity": 106, "channel": 0}, {"type": "note_on", "time": 0, "note": 60, "velocity": 110, "channel": 0}, {"type": "note_off", "time": 691, "note": 60, "velocity": 110, "channel": 0}, {"type": "note_on", "time": 244, "note": 59, "velocity": 106, "channel": 0}, {"type": "note_off", "time": 491, "note": 59, "velocity": 106, "channel": 0}, {"type": "note_on", "time": 473, "note": 56, "velocity": 109, "channel": 0}, {"type": "note_off", "time": 631, "note": 56, "velocity": 109, "channel": 0}, {"type": "note_on", "time": 0, "note": 57, "velocity": 108, "channel": 0}, {"type": "note_off", "time": 4476, "note": 57, "velocity": 108, "channel": 0}, {"type": "note_on", "time": 322, "note": 60, "velocity": 108, "channel": 0}, {"type": "note_off", "time": 283, "note": 60, "velocity": 108, "channel": 0}, {"type": "note_on", "time": 0, "note": 64, "velocity": 120, "channel": 0}, {"type": "note_off", "time": 493, "note": 64, "velocity": 120, "channel": 0}, {"type": "note_on", "time": 172, "note": 67, "velocity": 115, "channel": 0}, {"type": "note_off", "time": 802, "note": 67, "velocity": 115, "channel": 0}, {"type": "note_on", "time": 86, "note": 64, "velocity": 118, "channel": 0}, {"type": "note_off", "time": 394, "note": 64, "velocity": 118, "channel": 0}, {"type": "note_on", "time": 172, "note": 59, "velocity": 102, "channel": 0}, {"type": "note_off", "time": 345, "note": 59, "velocity": 102, "channel": 0}, {"type": "note_on", "time": 61, "note": 57, "velocity": 101, "channel": 0}, {"type": "note_off", "time": 839, "note": 57, "velocity": 101, "channel": 0}, {"type": "note_on", "time": 666, "note": 62, "velocity": 114, "channel": 0}, {"type": "note_off", "time": 604, "note": 62, "velocity": 114, "channel": 0}, {"type": "note_on", "time": 0, "note": 64, "velocity": 119, "channel": 0}, {"type": "note_off", "time": 1851, "note": 64, "velocity": 119, "channel": 0}, {"type": "note_on", "time": 0, "note": 62, "velocity": 105, "channel": 0}, {"type": "note_off", "time": 2147, "note": 62, "velocity": 105, "channel": 0}, {"type": "note_on", "time": 5591, "note": 76, "velocity": 121, "channel": 0}, {"type": "note_off", "time": 752, "note": 76, "velocity": 121, "channel": 0}, {"type": "note_on", "time": 0, "note": 77, "velocity": 122, "channel": 0}, {"type": "note_off", "time": 394, "note": 77, "velocity": 122, "channel": 0}, {"type": "note_on", "time": 61, "note": 76, "velocity": 122, "channel": 0}, {"type": "note_off", "time": 703, "note": 76, "velocity": 122, "channel": 0}, {"type": "note_on", "time": 12, "note": 74, "velocity": 111, "channel": 0}, {"type": "note_off", "time": 691, "note": 74, "velocity": 111, "channel": 0}, {"type": "note_on", "time": 0, "note": 72, "velocity": 111, "channel": 0}, {"type": "note_off", "time": 654, "note": 72, "velocity": 111, "channel": 0}, {"type": "note_on", "time": 0, "note": 70, "velocity": 110, "channel": 0}, {"type": "note_off", "time": 580, "note": 70, "velocity": 110, "channel": 0}, {"type": "note_on", "time": 185, "note": 67, "velocity": 111, "channel": 0}, {"type": "note_off", "time": 382, "note": 67, "velocity": 111, "channel": 0}, {"type": "note_on", "time": 0, "note": 68, "velocity": 109, "channel": 0}, {"type": "note_off", "time": 530, "note": 68, "velocity": 109, "channel": 0}, {"type": "note_on", "time": 111, "note": 69, "velocity": 118, "channel": 0}, {"type": "note_off", "time": 592, "note": 69, "velocity": 118, "channel": 0}, {"type": "note_on", "time": 0, "note": 70, "velocity": 110, "channel": 0}, {"type": "note_off", "time": 518, "note": 70, "velocity": 110, "channel": 0}, {"type": "note_on", "time": 24, "note": 69, "velocity": 115, "channel": 0}, {"type": "note_off", "time": 530, "note": 69, "velocity": 115, "channel": 0}, {"type": "note_on", "time": 160, "note": 67, "velocity": 116, "channel": 0}, {"type": "note_off", "time": 728, "note": 67, "velocity": 116, "channel": 0}, {"type": "note_on", "time": 148, "note": 66, "velocity": 116, "channel": 0}, {"type": "note_off", "time": 493, "note": 66, "velocity": 116, "channel": 0}, {"type": "note_on", "time": 24, "note": 64, "velocity": 116, "channel": 0}, {"type": "note_off", "time": 1234, "note": 64, "velocity": 116, "channel": 0}, {"type": "note_on", "time": 222, "note": 60, "velocity": 105, "channel": 0}, {"type": "note_off", "time": 407, "note": 60, "velocity": 105, "channel": 0}, {"type": "note_on", "time": 172, "note": 63, "velocity": 112, "channel": 0}, {"type": "note_off", "time": 641, "note": 63, "velocity": 112, "channel": 0}, {"type": "note_on", "time": 135, "note": 60, "velocity": 107, "channel": 0}, {"type": "note_off", "time": 394, "note": 60, "velocity": 107, "channel": 0}, {"type": "note_on", "time": 24, "note": 61, "velocity": 114, "channel": 0}, {"type": "note_off", "time": 691, "note": 61, "velocity": 114, "channel": 0}, {"type": "note_on", "time": 148, "note": 54, "velocity": 109, "channel": 0}, {"type": "note_off", "time": 432, "note": 54, "velocity": 109, "channel": 0}, {"type": "note_on", "time": 49, "note": 58, "velocity": 110, "channel": 0}, {"type": "note_off", "time": 740, "note": 58, "velocity": 110, "channel": 0}, {"type": "note_on", "time": 12, "note": 61, "velocity": 117, "channel": 0}, {"type": "note_off", "time": 592, "note": 61, "velocity": 117, "channel": 0}, {"type": "note_on", "time": 0, "note": 58, "velocity": 114, "channel": 0}, {"type": "note_off", "time": 715, "note": 58, "velocity": 114, "channel": 0}, {"type": "note_on", "time": 592, "note": 60, "velocity": 117, "channel": 0}, {"type": "note_off", "time": 629, "note": 60, "velocity": 117, "channel": 0}, {"type": "note_on", "time": 123, "note": 58, "velocity": 111, "channel": 0}, {"type": "note_off", "time": 851, "note": 58, "velocity": 111, "channel": 0}, {"type": "note_on", "time": 98, "note": 60, "velocity": 103, "channel": 0}, {"type": "note_off", "time": 259, "note": 60, "velocity": 103, "channel": 0}, {"type": "note_on", "time": 98, "note": 63, "velocity": 107, "channel": 0}, {"type": "note_off", "time": 283, "note": 63, "velocity": 107, "channel": 0}, {"type": "note_on", "time": 209, "note": 70, "velocity": 117, "channel": 0}, {"type": "note_off", "time": 715, "note": 70, "velocity": 117, "channel": 0}, {"type": "note_on", "time": 37, "note": 69, "velocity": 111, "channel": 0}, {"type": "note_off", "time": 432, "note": 69, "velocity": 111, "channel": 0}, {"type": "note_on", "time": 123, "note": 66, "velocity": 115, "channel": 0}, {"type": "note_off", "time": 382, "note": 66, "velocity": 115, "channel": 0}, {"type": "note_on", "time": 98, "note": 67, "velocity": 109, "channel": 0}, {"type": "note_off", "time": 641, "note": 67, "velocity": 109, "channel": 0}, {"type": "note_on", "time": 98, "note": 68, "velocity": 105, "channel": 0}, {"type": "note_off", "time": 555, "note": 68, "velocity": 105, "channel": 0}, {"type": "note_on", "time": 86, "note": 70, "velocity": 98, "channel": 0}, {"type": "note_off", "time": 506, "note": 70, "velocity": 98, "channel": 0}, {"type": "note_on", "time": 0, "note": 72, "velocity": 101, "channel": 0}, {"type": "note_off", "time": 654, "note": 72, "velocity": 101, "channel": 0}, {"type": "note_on", "time": 0, "note": 74, "velocity": 118, "channel": 0}, {"type": "note_off", "time": 580, "note": 74, "velocity": 118, "channel": 0}, {"type": "note_on", "time": 37, "note": 72, "velocity": 114, "channel": 0}, {"type": "note_off", "time": 567, "note": 72, "velocity": 114, "channel": 0}, {"type": "note_on", "time": 148, "note": 70, "velocity": 111, "channel": 0}, {"type": "note_off", "time": 654, "note": 70, "velocity": 111, "channel": 0}, {"type": "note_on", "time": 0, "note": 69, "velocity": 104, "channel": 0}, {"type": "note_off", "time": 357, "note": 69, "velocity": 104, "channel": 0}, {"type": "note_on", "time": 357, "note": 77, "velocity": 117, "channel": 0}, {"type": "note_off", "time": 444, "note": 77, "velocity": 117, "channel": 0}, {"type": "note_on", "time": 37, "note": 79, "velocity": 112, "channel": 0}, {"type": "note_off", "time": 4974, "note": 79, "velocity": 112, "channel": 0}, {"type": "note_on", "time": 407, "note": 79, "velocity": 104, "channel": 0}, {"type": "note_off", "time": 493, "note": 79, "velocity": 104, "channel": 0}, {"type": "note_on", "time": 6776, "note": 78, "velocity": 127, "channel": 0}, {"type": "note_off", "time": 419, "note": 78, "velocity": 127, "channel": 0}, {"type": "note_on", "time": 157, "note": 79, "velocity": 117, "channel": 0}, {"type": "note_off", "time": 3563, "note": 79, "velocity": 117, "channel": 0}, {"type": "note_on", "time": 216, "note": 78, "velocity": 116, "channel": 0}, {"type": "note_off", "time": 641, "note": 78, "velocity": 116, "channel": 0}, {"type": "note_on", "time": 86, "note": 76, "velocity": 111, "channel": 0}, {"type": "note_on", "time": 456, "note": 75, "velocity": 115, "channel": 0}, {"type": "note_off", "time": 0, "note": 76, "velocity": 111, "channel": 0}, {"type": "note_off", "time": 493, "note": 75, "velocity": 115, "channel": 0}, {"type": "note_on", "time": 197, "note": 73, "velocity": 105, "channel": 0}, {"type": "note_off", "time": 506, "note": 73, "velocity": 105, "channel": 0}, {"type": "note_on", "time": 98, "note": 72, "velocity": 115, "channel": 0}, {"type": "note_off", "time": 641, "note": 72, "velocity": 115, "channel": 0}, {"type": "note_on", "time": 123, "note": 71, "velocity": 105, "channel": 0}, {"type": "note_off", "time": 271, "note": 71, "velocity": 105, "channel": 0}, {"type": "note_on", "time": 0, "note": 72, "velocity": 110, "channel": 0}, {"type": "note_off", "time": 283, "note": 72, "velocity": 110, "channel": 0}, {"type": "note_on", "time": 111, "note": 68, "velocity": 112, "channel": 0}, {"type": "note_off", "time": 691, "note": 68, "velocity": 112, "channel": 0}, {"type": "note_on", "time": 74, "note": 66, "velocity": 104, "channel": 0}, {"type": "note_on", "time": 493, "note": 64, "velocity": 107, "channel": 0}, {"type": "note_off", "time": 0, "note": 66, "velocity": 104, "channel": 0}, {"type": "note_off", "time": 703, "note": 64, "velocity": 107, "channel": 0}, {"type": "note_on", "time": 0, "note": 60, "velocity": 99, "channel": 0}, {"type": "note_off", "time": 777, "note": 60, "velocity": 99, "channel": 0}, {"type": "note_on", "time": 0, "note": 63, "velocity": 103, "channel": 0}, {"type": "note_off", "time": 1505, "note": 63, "velocity": 103, "channel": 0}, {"type": "note_on", "time": 6109, "note": 75, "velocity": 116, "channel": 0}, {"type": "note_off", "time": 567, "note": 75, "velocity": 116, "channel": 0}, {"type": "note_on", "time": 0, "note": 76, "velocity": 119, "channel": 0}, {"type": "note_off", "time": 678, "note": 76, "velocity": 119, "channel": 0}, {"type": "note_on", "time": 197, "note": 75, "velocity": 111, "channel": 0}, {"type": "note_off", "time": 357, "note": 75, "velocity": 111, "channel": 0}, {"type": "note_on", "time": 135, "note": 73, "velocity": 109, "channel": 0}, {"type": "note_off", "time": 592, "note": 73, "velocity": 109, "channel": 0}, {"type": "note_on", "time": 98, "note": 72, "velocity": 109, "channel": 0}, {"type": "note_off", "time": 506, "note": 72, "velocity": 109, "channel": 0}, {"type": "note_on", "time": 160, "note": 71, "velocity": 109, "channel": 0}, {"type": "note_off", "time": 481, "note": 71, "velocity": 109, "channel": 0}, {"type": "note_on", "time": 74, "note": 70, "velocity": 110, "channel": 0}, {"type": "note_off", "time": 666, "note": 70, "velocity": 110, "channel": 0}, {"type": "note_on", "time": 111, "note": 67, "velocity": 108, "channel": 0}, {"type": "note_off", "time": 530, "note": 67, "velocity": 108, "channel": 0}, {"type": "note_on", "time": 86, "note": 68, "velocity": 109, "channel": 0}, {"type": "note_off", "time": 555, "note": 68, "velocity": 109, "channel": 0}, {"type": "note_on", "time": 74, "note": 69, "velocity": 113, "channel": 0}, {"type": "note_off", "time": 580, "note": 69, "velocity": 113, "channel": 0}, {"type": "note_on", "time": 185, "note": 65, "velocity": 118, "channel": 0}, {"type": "note_off", "time": 382, "note": 65, "velocity": 118, "channel": 0}, {"type": "note_on", "time": 0, "note": 61, "velocity": 108, "channel": 0}, {"type": "note_off", "time": 530, "note": 61, "velocity": 108, "channel": 0}, {"type": "note_on", "time": 49, "note": 57, "velocity": 111, "channel": 0}, {"type": "note_off", "time": 296, "note": 57, "velocity": 111, "channel": 0}, {"type": "note_on", "time": 111, "note": 58, "velocity": 104, "channel": 0}, {"type": "note_off", "time": 481, "note": 58, "velocity": 104, "channel": 0}, {"type": "note_on", "time": 24, "note": 59, "velocity": 106, "channel": 0}, {"type": "note_off", "time": 617, "note": 59, "velocity": 106, "channel": 0}, {"type": "note_on", "time": 148, "note": 63, "velocity": 114, "channel": 0}, {"type": "note_off", "time": 432, "note": 63, "velocity": 114, "channel": 0}, {"type": "note_on", "time": 469, "note": 66, "velocity": 102, "channel": 0}, {"type": "note_off", "time": 333, "note": 66, "velocity": 102, "channel": 0}, {"type": "note_on", "time": 37, "note": 71, "velocity": 105, "channel": 0}, {"type": "note_off", "time": 246, "note": 71, "velocity": 105, "channel": 0}, {"type": "note_on", "time": 135, "note": 75, "velocity": 118, "channel": 0}, {"type": "note_off", "time": 308, "note": 75, "velocity": 118, "channel": 0}, {"type": "note_on", "time": 12, "note": 78, "velocity": 113, "channel": 0}, {"type": "note_off", "time": 320, "note": 78, "velocity": 113, "channel": 0}, {"type": "note_on", "time": 0, "note": 81, "velocity": 112, "channel": 0}, {"type": "note_off", "time": 4171, "note": 81, "velocity": 112, "channel": 0}, {"type": "note_on", "time": 12, "note": 77, "velocity": 105, "channel": 0}, {"type": "note_off", "time": 382, "note": 77, "velocity": 105, "channel": 0}, {"type": "note_on", "time": 24, "note": 76, "velocity": 102, "channel": 0}, {"type": "note_off", "time": 197, "note": 76, "velocity": 102, "channel": 0}, {"type": "note_on", "time": 61, "note": 73, "velocity": 101, "channel": 0}, {"type": "note_off", "time": 320, "note": 73, "velocity": 101, "channel": 0}, {"type": "note_on", "time": 160, "note": 69, "velocity": 102, "channel": 0}, {"type": "note_off", "time": 185, "note": 69, "velocity": 102, "channel": 0}, {"type": "note_on", "time": 74, "note": 65, "velocity": 110, "channel": 0}, {"type": "note_off", "time": 234, "note": 65, "velocity": 110, "channel": 0}, {"type": "note_on", "time": 135, "note": 61, "velocity": 94, "channel": 0}, {"type": "note_off", "time": 407, "note": 61, "velocity": 94, "channel": 0}, {"type": "note_on", "time": 481, "note": 70, "velocity": 118, "channel": 0}, {"type": "note_off", "time": 481, "note": 70, "velocity": 118, "channel": 0}, {"type": "note_on", "time": 74, "note": 71, "velocity": 117, "channel": 0}, {"type": "note_off", "time": 654, "note": 71, "velocity": 117, "channel": 0}, {"type": "note_on", "time": 185, "note": 67, "velocity": 113, "channel": 0}, {"type": "note_off", "time": 345, "note": 67, "velocity": 113, "channel": 0}, {"type": "note_on", "time": 61, "note": 63, "velocity": 112, "channel": 0}, {"type": "note_off", "time": 259, "note": 63, "velocity": 112, "channel": 0}, {"type": "note_on", "time": 135, "note": 59, "velocity": 97, "channel": 0}, {"type": "note_off", "time": 246, "note": 59, "velocity": 97, "channel": 0}, {"type": "note_on", "time": 419, "note": 68, "velocity": 106, "channel": 0}, {"type": "note_off", "time": 530, "note": 68, "velocity": 106, "channel": 0}, {"type": "note_on", "time": 0, "note": 69, "velocity": 115, "channel": 0}, {"type": "note_off", "time": 752, "note": 69, "velocity": 115, "channel": 0}, {"type": "note_on", "time": 135, "note": 65, "velocity": 117, "channel": 0}, {"type": "note_off", "time": 370, "note": 65, "velocity": 117, "channel": 0}, {"type": "note_on", "time": 135, "note": 61, "velocity": 104, "channel": 0}, {"type": "note_off", "time": 259, "note": 61, "velocity": 104, "channel": 0}, {"type": "note_on", "time": 123, "note": 57, "velocity": 106, "channel": 0}, {"type": "note_off", "time": 259, "note": 57, "velocity": 106, "channel": 0}, {"type": "note_on", "time": 24, "note": 55, "velocity": 102, "channel": 0}, {"type": "note_off", "time": 333, "note": 55, "velocity": 102, "channel": 0}, {"type": "note_on", "time": 320, "note": 67, "velocity": 112, "channel": 0}, {"type": "note_off", "time": 1110, "note": 67, "velocity": 112, "channel": 0}, {"type": "note_on", "time": 160, "note": 63, "velocity": 108, "channel": 0}, {"type": "note_off", "time": 222, "note": 63, "velocity": 108, "channel": 0}, {"type": "note_on", "time": 74, "note": 59, "velocity": 91, "channel": 0}, {"type": "note_off", "time": 271, "note": 59, "velocity": 91, "channel": 0}, {"type": "note_on", "time": 209, "note": 57, "velocity": 108, "channel": 0}, {"type": "note_off", "time": 333, "note": 57, "velocity": 108, "channel": 0}, {"type": "note_on", "time": 24, "note": 65, "velocity": 112, "channel": 0}, {"type": "note_off", "time": 1333, "note": 65, "velocity": 112, "channel": 0}, {"type": "note_on", "time": 234, "note": 61, "velocity": 100, "channel": 0}, {"type": "note_off", "time": 246, "note": 61, "velocity": 100, "channel": 0}, {"type": "note_on", "time": 24, "note": 57, "velocity": 103, "channel": 0}, {"type": "note_off", "time": 246, "note": 57, "velocity": 103, "channel": 0}, {"type": "note_on", "time": 61, "note": 55, "velocity": 99, "channel": 0}, {"type": "note_off", "time": 197, "note": 55, "velocity": 99, "channel": 0}, {"type": "note_on", "time": 49, "note": 53, "velocity": 99, "channel": 0}, {"type": "note_off", "time": 394, "note": 53, "velocity": 99, "channel": 0}, {"type": "note_on", "time": 296, "note": 58, "velocity": 102, "channel": 0}, {"type": "note_off", "time": 345, "note": 58, "velocity": 102, "channel": 0}, {"type": "note_on", "time": 0, "note": 59, "velocity": 107, "channel": 0}, {"type": "note_off", "time": 296, "note": 59, "velocity": 107, "channel": 0}, {"type": "note_on", "time": 61, "note": 63, "velocity": 107, "channel": 0}, {"type": "note_off", "time": 308, "note": 63, "velocity": 107, "channel": 0}, {"type": "note_on", "time": 86, "note": 65, "velocity": 124, "channel": 0}, {"type": "note_off", "time": 259, "note": 65, "velocity": 124, "channel": 0}, {"type": "note_on", "time": 148, "note": 68, "velocity": 108, "channel": 0}, {"type": "note_off", "time": 370, "note": 68, "velocity": 108, "channel": 0}, {"type": "note_on", "time": 74, "note": 67, "velocity": 107, "channel": 0}, {"type": "note_off", "time": 345, "note": 67, "velocity": 107, "channel": 0}, {"type": "note_on", "time": 135, "note": 73, "velocity": 100, "channel": 0}, {"type": "note_on", "time": 222, "note": 75, "velocity": 103, "channel": 0}, {"type": "note_off", "time": 0, "note": 73, "velocity": 100, "channel": 0}, {"type": "note_off", "time": 444, "note": 75, "velocity": 103, "channel": 0}, {"type": "note_on", "time": 197, "note": 71, "velocity": 113, "channel": 0}, {"type": "note_off", "time": 752, "note": 71, "velocity": 113, "channel": 0}, {"type": "note_on", "time": 10824, "note": 72, "velocity": 117, "channel": 0}, {"type": "note_off", "time": 506, "note": 72, "velocity": 117, "channel": 0}, {"type": "note_on", "time": 876, "note": 74, "velocity": 117, "channel": 0}, {"type": "note_off", "time": 641, "note": 74, "velocity": 117, "channel": 0}, {"type": "note_on", "time": 0, "note": 75, "velocity": 116, "channel": 0}, {"type": "note_off", "time": 654, "note": 75, "velocity": 116, "channel": 0}, {"type": "note_on", "time": 901, "note": 74, "velocity": 118, "channel": 0}, {"type": "note_off", "time": 543, "note": 74, "velocity": 118, "channel": 0}, {"type": "note_on", "time": 37, "note": 75, "velocity": 112, "channel": 0}, {"type": "note_off", "time": 765, "note": 75, "velocity": 112, "channel": 0}, {"type": "note_on", "time": 987, "note": 72, "velocity": 115, "channel": 0}, {"type": "note_off", "time": 901, "note": 72, "velocity": 115, "channel": 0}, {"type": "note_on", "time": 148, "note": 76, "velocity": 104, "channel": 0}, {"type": "note_off", "time": 333, "note": 76, "velocity": 104, "channel": 0}, {"type": "note_on", "time": 86, "note": 75, "velocity": 99, "channel": 0}, {"type": "note_off", "time": 419, "note": 75, "velocity": 99, "channel": 0}, {"type": "note_on", "time": 123, "note": 70, "velocity": 113, "channel": 0}, {"type": "note_off", "time": 715, "note": 70, "velocity": 113, "channel": 0}, {"type": "note_on", "time": 185, "note": 65, "velocity": 116, "channel": 0}, {"type": "note_off", "time": 1271, "note": 65, "velocity": 116, "channel": 0}, {"type": "note_on", "time": 1271, "note": 65, "velocity": 112, "channel": 0}, {"type": "note_off", "time": 2048, "note": 65, "velocity": 112, "channel": 0}, {"type": "note_on", "time": 382, "note": 62, "velocity": 103, "channel": 0}, {"type": "note_off", "time": 1061, "note": 62, "velocity": 103, "channel": 0}, {"type": "note_on", "time": 61, "note": 61, "velocity": 97, "channel": 0}, {"type": "note_off", "time": 604, "note": 61, "velocity": 97, "channel": 0}, {"type": "note_on", "time": 0, "note": 62, "velocity": 107, "channel": 0}, {"type": "note_off", "time": 839, "note": 62, "velocity": 107, "channel": 0}, {"type": "note_on", "time": 0, "note": 65, "velocity": 116, "channel": 0}, {"type": "note_off", "time": 1110, "note": 65, "velocity": 116, "channel": 0}, {"type": "note_on", "time": 3949, "note": 74, "velocity": 118, "channel": 0}, {"type": "note_off", "time": 678, "note": 74, "velocity": 118, "channel": 0}, {"type": "note_on", "time": 0, "note": 75, "velocity": 113, "channel": 0}, {"type": "note_off", "time": 777, "note": 75, "velocity": 113, "channel": 0}, {"type": "note_on", "time": 851, "note": 74, "velocity": 118, "channel": 0}, {"type": "note_off", "time": 666, "note": 74, "velocity": 118, "channel": 0}, {"type": "note_on", "time": 0, "note": 75, "velocity": 114, "channel": 0}, {"type": "note_off", "time": 876, "note": 75, "velocity": 114, "channel": 0}, {"type": "note_on", "time": 1123, "note": 72, "velocity": 112, "channel": 0}, {"type": "note_off", "time": 765, "note": 72, "velocity": 112, "channel": 0}, {"type": "note_on", "time": 431, "note": 75, "velocity": 113, "channel": 0}, {"type": "note_off", "time": 394, "note": 75, "velocity": 113, "channel": 0}, {"type": "note_on", "time": 98, "note": 73, "velocity": 101, "channel": 0}, {"type": "note_off", "time": 333, "note": 73, "velocity": 101, "channel": 0}, {"type": "note_on", "time": 148, "note": 65, "velocity": 114, "channel": 0}, {"type": "note_off", "time": 703, "note": 65, "velocity": 114, "channel": 0}, {"type": "note_on", "time": 123, "note": 68, "velocity": 106, "channel": 0}, {"type": "note_off", "time": 728, "note": 68, "velocity": 106, "channel": 0}, {"type": "note_on", "time": 49, "note": 70, "velocity": 111, "channel": 0}, {"type": "note_off", "time": 333, "note": 70, "velocity": 111, "channel": 0}, {"type": "note_on", "time": 703, "note": 70, "velocity": 112, "channel": 0}, {"type": "note_off", "time": 518, "note": 70, "velocity": 112, "channel": 0}, {"type": "note_on", "time": 49, "note": 72, "velocity": 114, "channel": 0}, {"type": "note_off", "time": 456, "note": 72, "velocity": 114, "channel": 0}, {"type": "note_on", "time": 160, "note": 77, "velocity": 104, "channel": 0}, {"type": "note_off", "time": 506, "note": 77, "velocity": 104, "channel": 0}, {"type": "note_on", "time": 222, "note": 69, "velocity": 107, "channel": 0}, {"type": "note_off", "time": 382, "note": 69, "velocity": 107, "channel": 0}, {"type": "note_on", "time": 74, "note": 70, "velocity": 104, "channel": 0}, {"type": "note_off", "time": 209, "note": 70, "velocity": 104, "channel": 0}, {"type": "note_on", "time": 135, "note": 72, "velocity": 107, "channel": 0}, {"type": "note_off", "time": 407, "note": 72, "velocity": 107, "channel": 0}, {"type": "note_on", "time": 86, "note": 75, "velocity": 106, "channel": 0}, {"type": "note_off", "time": 296, "note": 75, "velocity": 106, "channel": 0}, {"type": "note_on", "time": 98, "note": 71, "velocity": 104, "channel": 0}, {"type": "note_off", "time": 481, "note": 71, "velocity": 104, "channel": 0}, {"type": "note_on", "time": 0, "note": 68, "velocity": 117, "channel": 0}, {"type": "note_off", "time": 806, "note": 68, "velocity": 117, "channel": 0}, {"type": "note_on", "time": 0, "note": 65, "velocity": 116, "channel": 0}, {"type": "note_off", "time": 807, "note": 65, "velocity": 116, "channel": 0}, {"type": "note_on", "time": 26, "note": 63, "velocity": 98, "channel": 0}, {"type": "note_off", "time": 394, "note": 63, "velocity": 98, "channel": 0}, {"type": "note_on", "time": 8, "note": 61, "velocity": 101, "channel": 0}, {"type": "note_off", "time": 289, "note": 61, "velocity": 101, "channel": 0}, {"type": "note_on", "time": 8, "note": 63, "velocity": 105, "channel": 0}, {"type": "note_off", "time": 394, "note": 63, "velocity": 105, "channel": 0}, {"type": "note_on", "time": 26, "note": 65, "velocity": 116, "channel": 0}, {"type": "note_off", "time": 517, "note": 65, "velocity": 116, "channel": 0}, {"type": "note_on", "time": 43, "note": 65, "velocity": 118, "channel": 0}, {"type": "note_off", "time": 544, "note": 65, "velocity": 118, "channel": 0}, {"type": "note_on", "time": 43, "note": 67, "velocity": 103, "channel": 0}, {"type": "note_off", "time": 175, "note": 67, "velocity": 103, "channel": 0}, {"type": "note_on", "time": 8, "note": 68, "velocity": 112, "channel": 0}, {"type": "note_off", "time": 351, "note": 68, "velocity": 112, "channel": 0}, {"type": "note_on", "time": 166, "note": 68, "velocity": 110, "channel": 0}, {"type": "note_off", "time": 1053, "note": 68, "velocity": 110, "channel": 0}, {"type": "note_on", "time": 570, "note": 69, "velocity": 104, "channel": 0}, {"type": "note_on", "time": 87, "note": 70, "velocity": 93, "channel": 0}, {"type": "note_off", "time": 0, "note": 69, "velocity": 104, "channel": 0}, {"type": "note_off", "time": 412, "note": 70, "velocity": 93, "channel": 0}, {"type": "note_on", "time": 78, "note": 70, "velocity": 115, "channel": 0}, {"type": "note_off", "time": 605, "note": 70, "velocity": 115, "channel": 0}, {"type": "note_on", "time": 394, "note": 71, "velocity": 105, "channel": 0}, {"type": "note_off", "time": 570, "note": 71, "velocity": 105, "channel": 0}, {"type": "note_on", "time": 61, "note": 72, "velocity": 111, "channel": 0}, {"type": "note_off", "time": 781, "note": 72, "velocity": 111, "channel": 0}, {"type": "note_on", "time": 456, "note": 63, "velocity": 110, "channel": 0}, {"type": "note_off", "time": 614, "note": 63, "velocity": 110, "channel": 0}, {"type": "note_on", "time": 149, "note": 65, "velocity": 114, "channel": 0}, {"type": "note_off", "time": 702, "note": 65, "velocity": 114, "channel": 0}, {"type": "note_on", "time": 52, "note": 68, "velocity": 104, "channel": 0}, {"type": "note_off", "time": 860, "note": 68, "velocity": 104, "channel": 0}, {"type": "note_on", "time": 149, "note": 69, "velocity": 103, "channel": 0}, {"type": "note_off", "time": 351, "note": 69, "velocity": 103, "channel": 0}, {"type": "note_on", "time": 43, "note": 70, "velocity": 112, "channel": 0}, {"type": "note_off", "time": 517, "note": 70, "velocity": 112, "channel": 0}, {"type": "note_on", "time": 78, "note": 70, "velocity": 111, "channel": 0}, {"type": "note_off", "time": 737, "note": 70, "velocity": 111, "channel": 0}, {"type": "note_on", "time": 78, "note": 71, "velocity": 116, "channel": 0}, {"type": "note_off", "time": 236, "note": 71, "velocity": 116, "channel": 0}, {"type": "note_on", "time": 8, "note": 72, "velocity": 111, "channel": 0}, {"type": "note_off", "time": 447, "note": 72, "velocity": 111, "channel": 0}, {"type": "note_on", "time": 149, "note": 72, "velocity": 110, "channel": 0}, {"type": "note_off", "time": 254, "note": 72, "velocity": 110, "channel": 0}, {"type": "note_on", "time": 35, "note": 75, "velocity": 106, "channel": 0}, {"type": "note_off", "time": 280, "note": 75, "velocity": 106, "channel": 0}, {"type": "note_on", "time": 70, "note": 72, "velocity": 113, "channel": 0}, {"type": "note_off", "time": 377, "note": 72, "velocity": 113, "channel": 0}, {"type": "note_on", "time": 70, "note": 70, "velocity": 112, "channel": 0}, {"type": "note_off", "time": 219, "note": 70, "velocity": 112, "channel": 0}, {"type": "note_on", "time": 149, "note": 68, "velocity": 113, "channel": 0}, {"type": "note_off", "time": 236, "note": 68, "velocity": 113, "channel": 0}, {"type": "note_on", "time": 78, "note": 65, "velocity": 111, "channel": 0}, {"type": "note_off", "time": 421, "note": 65, "velocity": 111, "channel": 0}, {"type": "note_on", "time": 149, "note": 62, "velocity": 97, "channel": 0}, {"type": "note_off", "time": 430, "note": 62, "velocity": 97, "channel": 0}, {"type": "note_on", "time": 307, "note": 69, "velocity": 111, "channel": 0}, {"type": "note_off", "time": 1720, "note": 69, "velocity": 111, "channel": 0}, {"type": "note_on", "time": 5389, "note": 68, "velocity": 117, "channel": 0}, {"type": "note_off", "time": 614, "note": 68, "velocity": 117, "channel": 0}, {"type": "note_on", "time": 122, "note": 70, "velocity": 108, "channel": 0}, {"type": "note_off", "time": 324, "note": 70, "velocity": 108, "channel": 0}, {"type": "note_on", "time": 0, "note": 71, "velocity": 114, "channel": 0}, {"type": "note_off", "time": 781, "note": 71, "velocity": 114, "channel": 0}, {"type": "note_on", "time": 61, "note": 72, "velocity": 111, "channel": 0}, {"type": "note_off", "time": 1360, "note": 72, "velocity": 111, "channel": 0}, {"type": "note_on", "time": 157, "note": 76, "velocity": 104, "channel": 0}, {"type": "note_off", "time": 245, "note": 76, "velocity": 104, "channel": 0}, {"type": "note_on", "time": 70, "note": 75, "velocity": 106, "channel": 0}, {"type": "note_off", "time": 114, "note": 75, "velocity": 106, "channel": 0}, {"type": "note_on", "time": 52, "note": 72, "velocity": 115, "channel": 0}, {"type": "note_off", "time": 430, "note": 72, "velocity": 115, "channel": 0}, {"type": "note_on", "time": 8, "note": 70, "velocity": 110, "channel": 0}, {"type": "note_off", "time": 930, "note": 70, "velocity": 110, "channel": 0}, {"type": "note_on", "time": 35, "note": 69, "velocity": 107, "channel": 0}, {"type": "note_off", "time": 1246, "note": 69, "velocity": 107, "channel": 0}, {"type": "note_on", "time": 114, "note": 65, "velocity": 116, "channel": 0}, {"type": "note_off", "time": 825, "note": 65, "velocity": 116, "channel": 0}, {"type": "note_on", "time": 87, "note": 62, "velocity": 103, "channel": 0}, {"type": "note_off", "time": 588, "note": 62, "velocity": 103, "channel": 0}, {"type": "note_on", "time": 114, "note": 63, "velocity": 111, "channel": 0}, {"type": "note_off", "time": 825, "note": 63, "velocity": 111, "channel": 0}, {"type": "note_on", "time": 114, "note": 60, "velocity": 99, "channel": 0}, {"type": "note_off", "time": 473, "note": 60, "velocity": 99, "channel": 0}, {"type": "note_on", "time": 535, "note": 67, "velocity": 119, "channel": 0}, {"type": "note_off", "time": 552, "note": 67, "velocity": 119, "channel": 0}, {"type": "note_on", "time": 17, "note": 68, "velocity": 111, "channel": 0}, {"type": "note_off", "time": 315, "note": 68, "velocity": 111, "channel": 0}, {"type": "note_on", "time": 105, "note": 67, "velocity": 116, "channel": 0}, {"type": "note_off", "time": 526, "note": 67, "velocity": 116, "channel": 0}, {"type": "note_on", "time": 0, "note": 65, "velocity": 113, "channel": 0}, {"type": "note_off", "time": 728, "note": 65, "velocity": 113, "channel": 0}, {"type": "note_on", "time": 157, "note": 64, "velocity": 118, "channel": 0}, {"type": "note_off", "time": 1588, "note": 64, "velocity": 118, "channel": 0}, {"type": "note_on", "time": 61, "note": 62, "velocity": 21, "channel": 0}, {"type": "note_off", "time": 324, "note": 62, "velocity": 21, "channel": 0}, {"type": "note_on", "time": 447, "note": 63, "velocity": 108, "channel": 0}, {"type": "note_off", "time": 1035, "note": 63, "velocity": 108, "channel": 0}, {"type": "note_on", "time": 254, "note": 70, "velocity": 111, "channel": 0}, {"type": "note_off", "time": 307, "note": 70, "velocity": 111, "channel": 0}, {"type": "note_on", "time": 17, "note": 71, "velocity": 115, "channel": 0}, {"type": "note_off", "time": 368, "note": 71, "velocity": 115, "channel": 0}, {"type": "note_on", "time": 122, "note": 70, "velocity": 110, "channel": 0}, {"type": "note_off", "time": 307, "note": 70, "velocity": 110, "channel": 0}, {"type": "note_on", "time": 114, "note": 69, "velocity": 98, "channel": 0}, {"type": "note_off", "time": 289, "note": 69, "velocity": 98, "channel": 0}, {"type": "note_on", "time": 105, "note": 68, "velocity": 92, "channel": 0}, {"type": "note_off", "time": 386, "note": 68, "velocity": 92, "channel": 0}, {"type": "note_on", "time": 421, "note": 66, "velocity": 96, "channel": 0}, {"type": "note_off", "time": 684, "note": 66, "velocity": 96, "channel": 0}, {"type": "note_on", "time": 473, "note": 70, "velocity": 108, "channel": 0}, {"type": "note_off", "time": 1360, "note": 70, "velocity": 108, "channel": 0}, {"type": "note_on", "time": 1018, "note": 72, "velocity": 112, "channel": 0}, {"type": "note_off", "time": 1553, "note": 72, "velocity": 112, "channel": 0}, {"type": "note_on", "time": 228, "note": 72, "velocity": 112, "channel": 0}, {"type": "note_off", "time": 983, "note": 72, "velocity": 112, "channel": 0}, {"type": "note_on", "time": 974, "note": 70, "velocity": 108, "channel": 0}, {"type": "note_off", "time": 552, "note": 70, "velocity": 108, "channel": 0}, {"type": "note_on", "time": 175, "note": 72, "velocity": 113, "channel": 0}, {"type": "note_off", "time": 763, "note": 72, "velocity": 113, "channel": 0}, {"type": "note_on", "time": 78, "note": 75, "velocity": 109, "channel": 0}, {"type": "note_off", "time": 359, "note": 75, "velocity": 109, "channel": 0}, {"type": "note_on", "time": 114, "note": 72, "velocity": 107, "channel": 0}, {"type": "note_off", "time": 201, "note": 72, "velocity": 107, "channel": 0}, {"type": "note_on", "time": 52, "note": 70, "velocity": 106, "channel": 0}, {"type": "note_off", "time": 640, "note": 70, "velocity": 106, "channel": 0}, {"type": "note_on", "time": 8, "note": 68, "velocity": 109, "channel": 0}, {"type": "note_off", "time": 1062, "note": 68, "velocity": 109, "channel": 0}, {"type": "note_on", "time": 114, "note": 65, "velocity": 107, "channel": 0}, {"type": "note_off", "time": 623, "note": 65, "velocity": 107, "channel": 0}, {"type": "note_on", "time": 386, "note": 70, "velocity": 116, "channel": 0}, {"type": "note_off", "time": 219, "note": 70, "velocity": 116, "channel": 0}, {"type": "note_on", "time": 0, "note": 72, "velocity": 111, "channel": 0}, {"type": "note_off", "time": 842, "note": 72, "velocity": 111, "channel": 0}, {"type": "note_on", "time": 491, "note": 72, "velocity": 114, "channel": 0}, {"type": "note_off", "time": 1009, "note": 72, "velocity": 114, "channel": 0}, {"type": "note_on", "time": 570, "note": 72, "velocity": 113, "channel": 0}, {"type": "note_off", "time": 333, "note": 72, "velocity": 113, "channel": 0}, {"type": "note_on", "time": 52, "note": 71, "velocity": 112, "channel": 0}, {"type": "note_off", "time": 359, "note": 71, "velocity": 112, "channel": 0}, {"type": "note_on", "time": 0, "note": 72, "velocity": 110, "channel": 0}, {"type": "note_off", "time": 430, "note": 72, "velocity": 110, "channel": 0}, {"type": "note_on", "time": 342, "note": 75, "velocity": 110, "channel": 0}, {"type": "note_off", "time": 324, "note": 75, "velocity": 110, "channel": 0}, {"type": "note_on", "time": 70, "note": 72, "velocity": 109, "channel": 0}, {"type": "note_off", "time": 342, "note": 72, "velocity": 109, "channel": 0}, {"type": "note_on", "time": 0, "note": 70, "velocity": 106, "channel": 0}, {"type": "note_off", "time": 737, "note": 70, "velocity": 106, "channel": 0}, {"type": "note_on", "time": 17, "note": 68, "velocity": 112, "channel": 0}, {"type": "note_off", "time": 614, "note": 68, "velocity": 112, "channel": 0}, {"type": "note_on", "time": 87, "note": 65, "velocity": 103, "channel": 0}, {"type": "note_off", "time": 1263, "note": 65, "velocity": 103, "channel": 0}, {"type": "note_on", "time": 52, "note": 68, "velocity": 109, "channel": 0}, {"type": "note_off", "time": 658, "note": 68, "velocity": 109, "channel": 0}, {"type": "note_on", "time": 719, "note": 72, "velocity": 109, "channel": 0}, {"type": "note_off", "time": 351, "note": 72, "velocity": 109, "channel": 0}, {"type": "note_on", "time": 52, "note": 70, "velocity": 115, "channel": 0}, {"type": "note_off", "time": 315, "note": 70, "velocity": 115, "channel": 0}, {"type": "note_on", "time": 0, "note": 72, "velocity": 113, "channel": 0}, {"type": "note_off", "time": 781, "note": 72, "velocity": 113, "channel": 0}, {"type": "note_on", "time": 368, "note": 72, "velocity": 114, "channel": 0}, {"type": "note_off", "time": 403, "note": 72, "velocity": 114, "channel": 0}, {"type": "note_on", "time": 43, "note": 71, "velocity": 117, "channel": 0}, {"type": "note_off", "time": 333, "note": 71, "velocity": 117, "channel": 0}, {"type": "note_on", "time": 0, "note": 72, "velocity": 114, "channel": 0}, {"type": "note_off", "time": 377, "note": 72, "velocity": 114, "channel": 0}, {"type": "note_on", "time": 210, "note": 72, "velocity": 100, "channel": 0}, {"type": "note_off", "time": 263, "note": 72, "velocity": 100, "channel": 0}, {"type": "note_on", "time": 0, "note": 70, "velocity": 112, "channel": 0}, {"type": "note_off", "time": 245, "note": 70, "velocity": 112, "channel": 0}, {"type": "note_on", "time": 0, "note": 72, "velocity": 112, "channel": 0}, {"type": "note_off", "time": 684, "note": 72, "velocity": 112, "channel": 0}, {"type": "note_on", "time": 243, "note": 76, "velocity": 100, "channel": 0}, {"type": "note_off", "time": 271, "note": 76, "velocity": 100, "channel": 0}, {"type": "note_on", "time": 55, "note": 72, "velocity": 108, "channel": 0}, {"type": "note_off", "time": 324, "note": 72, "velocity": 108, "channel": 0}, {"type": "note_on", "time": 14, "note": 71, "velocity": 105, "channel": 0}, {"type": "note_off", "time": 324, "note": 71, "velocity": 105, "channel": 0}, {"type": "note_on", "time": 90, "note": 68, "velocity": 108, "channel": 0}, {"type": "note_off", "time": 737, "note": 68, "velocity": 108, "channel": 0}, {"type": "note_on", "time": 61, "note": 65, "velocity": 106, "channel": 0}, {"type": "note_off", "time": 465, "note": 65, "velocity": 106, "channel": 0}, {"type": "note_on", "time": 0, "note": 68, "velocity": 98, "channel": 0}, {"type": "note_off", "time": 491, "note": 68, "velocity": 98, "channel": 0}, {"type": "note_on", "time": 61, "note": 69, "velocity": 107, "channel": 0}, {"type": "note_off", "time": 342, "note": 69, "velocity": 107, "channel": 0}, {"type": "note_on", "time": 140, "note": 70, "velocity": 116, "channel": 0}, {"type": "note_off", "time": 403, "note": 70, "velocity": 116, "channel": 0}, {"type": "note_on", "time": 131, "note": 72, "velocity": 113, "channel": 0}, {"type": "note_off", "time": 807, "note": 72, "velocity": 113, "channel": 0}, {"type": "note_on", "time": 280, "note": 76, "velocity": 104, "channel": 0}, {"type": "note_off", "time": 289, "note": 76, "velocity": 104, "channel": 0}, {"type": "note_on", "time": 175, "note": 72, "velocity": 109, "channel": 0}, {"type": "note_off", "time": 394, "note": 72, "velocity": 109, "channel": 0}, {"type": "note_on", "time": 70, "note": 71, "velocity": 108, "channel": 0}, {"type": "note_off", "time": 438, "note": 71, "velocity": 108, "channel": 0}, {"type": "note_on", "time": 78, "note": 68, "velocity": 102, "channel": 0}, {"type": "note_off", "time": 403, "note": 68, "velocity": 102, "channel": 0}, {"type": "note_on", "time": 78, "note": 65, "velocity": 109, "channel": 0}, {"type": "note_off", "time": 544, "note": 65, "velocity": 109, "channel": 0}, {"type": "note_on", "time": 7522, "note": 72, "velocity": 115, "channel": 0}, {"type": "note_off", "time": 1650, "note": 72, "velocity": 115, "channel": 0}, {"type": "note_on", "time": 798, "note": 79, "velocity": 109, "channel": 0}, {"type": "note_off", "time": 1307, "note": 79, "velocity": 109, "channel": 0}, {"type": "note_on", "time": 43, "note": 77, "velocity": 108, "channel": 0}, {"type": "note_off", "time": 1263, "note": 77, "velocity": 108, "channel": 0}, {"type": "note_on", "time": 8, "note": 76, "velocity": 115, "channel": 0}, {"type": "note_off", "time": 1448, "note": 76, "velocity": 115, "channel": 0}, {"type": "note_on", "time": 1307, "note": 74, "velocity": 115, "channel": 0}, {"type": "note_off", "time": 368, "note": 74, "velocity": 115, "channel": 0}, {"type": "note_on", "time": 35, "note": 76, "velocity": 112, "channel": 0}, {"type": "note_off", "time": 1974, "note": 76, "velocity": 112, "channel": 0}, {"type": "note_on", "time": 509, "note": 74, "velocity": 107, "channel": 0}, {"type": "note_off", "time": 1000, "note": 74, "velocity": 107, "channel": 0}, {"type": "note_on", "time": 465, "note": 76, "velocity": 111, "channel": 0}, {"type": "note_off", "time": 860, "note": 76, "velocity": 111, "channel": 0}, {"type": "note_on", "time": 236, "note": 74, "velocity": 109, "channel": 0}, {"type": "note_off", "time": 456, "note": 74, "velocity": 109, "channel": 0}, {"type": "note_on", "time": 122, "note": 76, "velocity": 113, "channel": 0}, {"type": "note_off", "time": 596, "note": 76, "velocity": 113, "channel": 0}, {"type": "note_on", "time": 52, "note": 74, "velocity": 107, "channel": 0}, {"type": "note_off", "time": 403, "note": 74, "velocity": 107, "channel": 0}, {"type": "note_on", "time": 17, "note": 72, "velocity": 112, "channel": 0}, {"type": "note_off", "time": 877, "note": 72, "velocity": 112, "channel": 0}, {"type": "note_on", "time": 43, "note": 70, "velocity": 103, "channel": 0}, {"type": "note_off", "time": 210, "note": 70, "velocity": 103, "channel": 0}, {"type": "note_on", "time": 280, "note": 70, "velocity": 108, "channel": 0}, {"type": "note_off", "time": 324, "note": 70, "velocity": 108, "channel": 0}, {"type": "note_on", "time": 26, "note": 69, "velocity": 112, "channel": 0}, {"type": "note_off", "time": 667, "note": 69, "velocity": 112, "channel": 0}, {"type": "note_on", "time": 394, "note": 65, "velocity": 115, "channel": 0}, {"type": "note_off", "time": 974, "note": 65, "velocity": 115, "channel": 0}, {"type": "note_on", "time": 0, "note": 61, "velocity": 99, "channel": 0}, {"type": "note_off", "time": 219, "note": 61, "velocity": 99, "channel": 0}, {"type": "note_on", "time": 52, "note": 62, "velocity": 89, "channel": 0}, {"type": "note_off", "time": 1114, "note": 62, "velocity": 89, "channel": 0}, {"type": "note_on", "time": 105, "note": 65, "velocity": 104, "channel": 0}, {"type": "note_off", "time": 175, "note": 65, "velocity": 104, "channel": 0}, {"type": "note_on", "time": 17, "note": 62, "velocity": 96, "channel": 0}, {"type": "note_on", "time": 157, "note": 60, "velocity": 101, "channel": 0}, {"type": "note_off", "time": 0, "note": 62, "velocity": 96, "channel": 0}, {"type": "note_off", "time": 254, "note": 60, "velocity": 101, "channel": 0}, {"type": "note_on", "time": 412, "note": 67, "velocity": 114, "channel": 0}, {"type": "note_off", "time": 1220, "note": 67, "velocity": 114, "channel": 0}, {"type": "note_on", "time": 3484, "note": 84, "velocity": 113, "channel": 0}, {"type": "note_off", "time": 1676, "note": 84, "velocity": 113, "channel": 0}, {"type": "note_on", "time": 1176, "note": 79, "velocity": 110, "channel": 0}, {"type": "note_off", "time": 1518, "note": 79, "velocity": 110, "channel": 0}, {"type": "note_on", "time": 149, "note": 80, "velocity": 112, "channel": 0}, {"type": "note_off", "time": 307, "note": 80, "velocity": 112, "channel": 0}, {"type": "note_on", "time": 26, "note": 81, "velocity": 109, "channel": 0}, {"type": "note_off", "time": 359, "note": 81, "velocity": 109, "channel": 0}, {"type": "note_on", "time": 61, "note": 80, "velocity": 104, "channel": 0}, {"type": "note_off", "time": 526, "note": 80, "velocity": 104, "channel": 0}, {"type": "note_on", "time": 61, "note": 81, "velocity": 114, "channel": 0}, {"type": "note_off", "time": 228, "note": 81, "velocity": 114, "channel": 0}, {"type": "note_on", "time": 0, "note": 82, "velocity": 111, "channel": 0}, {"type": "note_off", "time": 904, "note": 82, "velocity": 111, "channel": 0}, {"type": "note_on", "time": 210, "note": 78, "velocity": 110, "channel": 0}, {"type": "note_off", "time": 1026, "note": 78, "velocity": 110, "channel": 0}, {"type": "note_on", "time": 114, "note": 73, "velocity": 112, "channel": 0}, {"type": "note_off", "time": 596, "note": 73, "velocity": 112, "channel": 0}, {"type": "note_on", "time": 0, "note": 70, "velocity": 110, "channel": 0}, {"type": "note_off", "time": 675, "note": 70, "velocity": 110, "channel": 0}, {"type": "note_on", "time": 175, "note": 65, "velocity": 109, "channel": 0}, {"type": "note_off", "time": 675, "note": 65, "velocity": 109, "channel": 0}, {"type": "note_on", "time": 96, "note": 61, "velocity": 100, "channel": 0}, {"type": "note_off", "time": 1957, "note": 61, "velocity": 100, "channel": 0}, {"type": "note_on", "time": 342, "note": 64, "velocity": 113, "channel": 0}, {"type": "note_off", "time": 447, "note": 64, "velocity": 113, "channel": 0}, {"type": "note_on", "time": 447, "note": 54, "velocity": 102, "channel": 0}, {"type": "note_off", "time": 517, "note": 54, "velocity": 102, "channel": 0}, {"type": "note_on", "time": 140, "note": 58, "velocity": 107, "channel": 0}, {"type": "note_off", "time": 667, "note": 58, "velocity": 107, "channel": 0}, {"type": "note_on", "time": 87, "note": 61, "velocity": 114, "channel": 0}, {"type": "note_off", "time": 271, "note": 61, "velocity": 114, "channel": 0}, {"type": "note_on", "time": 9, "note": 62, "velocity": 103, "channel": 0}, {"type": "note_off", "time": 956, "note": 62, "velocity": 103, "channel": 0}, {"type": "note_on", "time": 61, "note": 61, "velocity": 106, "channel": 0}, {"type": "note_off", "time": 667, "note": 61, "velocity": 106, "channel": 0}, {"type": "note_on", "time": 157, "note": 62, "velocity": 93, "channel": 0}, {"type": "note_off", "time": 3203, "note": 62, "velocity": 93, "channel": 0}, {"type": "note_on", "time": 1448, "note": 70, "velocity": 117, "channel": 0}, {"type": "note_off", "time": 289, "note": 70, "velocity": 117, "channel": 0}, {"type": "note_on", "time": 35, "note": 72, "velocity": 112, "channel": 0}, {"type": "note_off", "time": 2264, "note": 72, "velocity": 112, "channel": 0}, {"type": "note_on", "time": 403, "note": 77, "velocity": 98, "channel": 0}, {"type": "note_off", "time": 359, "note": 77, "velocity": 98, "channel": 0}, {"type": "note_on", "time": 17, "note": 76, "velocity": 103, "channel": 0}, {"type": "note_off", "time": 272, "note": 76, "velocity": 103, "channel": 0}, {"type": "note_on", "time": 78, "note": 72, "velocity": 108, "channel": 0}, {"type": "note_off", "time": 377, "note": 72, "velocity": 108, "channel": 0}, {"type": "note_on", "time": 105, "note": 70, "velocity": 110, "channel": 0}, {"type": "note_off", "time": 1246, "note": 70, "velocity": 110, "channel": 0}, {"type": "note_on", "time": 61, "note": 69, "velocity": 105, "channel": 0}, {"type": "note_off", "time": 1246, "note": 69, "velocity": 105, "channel": 0}, {"type": "note_on", "time": 149, "note": 67, "velocity": 107, "channel": 0}, {"type": "note_off", "time": 2132, "note": 67, "velocity": 107, "channel": 0}, {"type": "note_on", "time": 7179, "note": 61, "velocity": 108, "channel": 0}, {"type": "note_off", "time": 500, "note": 61, "velocity": 108, "channel": 0}, {"type": "note_on", "time": 0, "note": 64, "velocity": 112, "channel": 0}, {"type": "note_off", "time": 552, "note": 64, "velocity": 112, "channel": 0}, {"type": "note_on", "time": 87, "note": 68, "velocity": 117, "channel": 0}, {"type": "note_off", "time": 517, "note": 68, "velocity": 117, "channel": 0}, {"type": "note_on", "time": 131, "note": 69, "velocity": 103, "channel": 0}, {"type": "note_off", "time": 298, "note": 69, "velocity": 103, "channel": 0}, {"type": "note_on", "time": 149, "note": 70, "velocity": 100, "channel": 0}, {"type": "note_off", "time": 307, "note": 70, "velocity": 100, "channel": 0}, {"type": "note_on", "time": 114, "note": 71, "velocity": 105, "channel": 0}, {"type": "note_on", "time": 368, "note": 73, "velocity": 103, "channel": 0}, {"type": "note_off", "time": 0, "note": 71, "velocity": 105, "channel": 0}, {"type": "note_off", "time": 280, "note": 73, "velocity": 103, "channel": 0}, {"type": "note_on", "time": 342, "note": 74, "velocity": 114, "channel": 0}, {"type": "note_off", "time": 509, "note": 74, "velocity": 114, "channel": 0}, {"type": "note_on", "time": 61, "note": 76, "velocity": 114, "channel": 0}, {"type": "note_off", "time": 3221, "note": 76, "velocity": 114, "channel": 0}, {"type": "note_on", "time": 289, "note": 76, "velocity": 114, "channel": 0}, {"type": "note_off", "time": 544, "note": 76, "velocity": 114, "channel": 0}, {"type": "note_on", "time": 298, "note": 74, "velocity": 110, "channel": 0}, {"type": "note_off", "time": 473, "note": 74, "velocity": 110, "channel": 0}, {"type": "note_on", "time": 0, "note": 76, "velocity": 113, "channel": 0}, {"type": "note_off", "time": 640, "note": 76, "velocity": 113, "channel": 0}, {"type": "note_on", "time": 35, "note": 75, "velocity": 107, "channel": 0}, {"type": "note_off", "time": 535, "note": 75, "velocity": 107, "channel": 0}, {"type": "note_on", "time": 122, "note": 73, "velocity": 109, "channel": 0}, {"type": "note_off", "time": 588, "note": 73, "velocity": 109, "channel": 0}, {"type": "note_on", "time": 131, "note": 72, "velocity": 112, "channel": 0}, {"type": "note_off", "time": 614, "note": 72, "velocity": 112, "channel": 0}, {"type": "note_on", "time": 8, "note": 73, "velocity": 104, "channel": 0}, {"type": "note_off", "time": 570, "note": 73, "velocity": 104, "channel": 0}, {"type": "note_on", "time": 17, "note": 72, "velocity": 110, "channel": 0}, {"type": "note_off", "time": 667, "note": 72, "velocity": 110, "channel": 0}, {"type": "note_on", "time": 70, "note": 70, "velocity": 102, "channel": 0}, {"type": "note_off", "time": 149, "note": 70, "velocity": 102, "channel": 0}, {"type": "note_on", "time": 0, "note": 71, "velocity": 107, "channel": 0}, {"type": "note_off", "time": 631, "note": 71, "velocity": 107, "channel": 0}, {"type": "note_on", "time": 26, "note": 70, "velocity": 109, "channel": 0}, {"type": "note_off", "time": 570, "note": 70, "velocity": 109, "channel": 0}, {"type": "note_on", "time": 43, "note": 69, "velocity": 106, "channel": 0}, {"type": "note_off", "time": 640, "note": 69, "velocity": 106, "channel": 0}, {"type": "note_on", "time": 3238, "note": 60, "velocity": 118, "channel": 0}, {"type": "note_off", "time": 272, "note": 60, "velocity": 118, "channel": 0}, {"type": "note_on", "time": 114, "note": 64, "velocity": 114, "channel": 0}, {"type": "note_off", "time": 307, "note": 64, "velocity": 114, "channel": 0}, {"type": "note_on", "time": 131, "note": 67, "velocity": 112, "channel": 0}, {"type": "note_off", "time": 561, "note": 67, "velocity": 112, "channel": 0}, {"type": "note_on", "time": 149, "note": 71, "velocity": 111, "channel": 0}, {"type": "note_off", "time": 728, "note": 71, "velocity": 111, "channel": 0}, {"type": "note_on", "time": 0, "note": 69, "velocity": 104, "channel": 0}, {"type": "note_off", "time": 473, "note": 69, "velocity": 104, "channel": 0}, {"type": "note_on", "time": 728, "note": 73, "velocity": 111, "channel": 0}, {"type": "note_off", "time": 860, "note": 73, "velocity": 111, "channel": 0}, {"type": "note_on", "time": 342, "note": 69, "velocity": 115, "channel": 0}, {"type": "note_off", "time": 737, "note": 69, "velocity": 115, "channel": 0}, {"type": "note_on", "time": 737, "note": 71, "velocity": 111, "channel": 0}, {"type": "note_off", "time": 1246, "note": 71, "velocity": 111, "channel": 0}, {"type": "note_on", "time": 0, "note": 67, "velocity": 114, "channel": 0}, {"type": "note_off", "time": 649, "note": 67, "velocity": 114, "channel": 0}, {"type": "note_on", "time": 96, "note": 63, "velocity": 106, "channel": 0}, {"type": "note_off", "time": 377, "note": 63, "velocity": 106, "channel": 0}, {"type": "note_on", "time": 35, "note": 64, "velocity": 109, "channel": 0}, {"type": "note_off", "time": 482, "note": 64, "velocity": 109, "channel": 0}, {"type": "note_on", "time": 70, "note": 61, "velocity": 104, "channel": 0}, {"type": "note_off", "time": 351, "note": 61, "velocity": 104, "channel": 0}, {"type": "note_on", "time": 0, "note": 63, "velocity": 105, "channel": 0}, {"type": "note_off", "time": 552, "note": 63, "velocity": 105, "channel": 0}, {"type": "note_on", "time": 43, "note": 67, "velocity": 111, "channel": 0}, {"type": "note_off", "time": 623, "note": 67, "velocity": 111, "channel": 0}, {"type": "note_on", "time": 324, "note": 71, "velocity": 109, "channel": 0}, {"type": "note_off", "time": 579, "note": 71, "velocity": 109, "channel": 0}, {"type": "note_on", "time": 8, "note": 69, "velocity": 107, "channel": 0}, {"type": "note_off", "time": 517, "note": 69, "velocity": 107, "channel": 0}, {"type": "note_on", "time": 78, "note": 65, "velocity": 117, "channel": 0}, {"type": "note_off", "time": 667, "note": 65, "velocity": 117, "channel": 0}, {"type": "note_on", "time": 17, "note": 61, "velocity": 106, "channel": 0}, {"type": "note_off", "time": 333, "note": 61, "velocity": 106, "channel": 0}, {"type": "note_on", "time": 105, "note": 55, "velocity": 106, "channel": 0}, {"type": "note_off", "time": 201, "note": 55, "velocity": 106, "channel": 0}, {"type": "note_on", "time": 8, "note": 53, "velocity": 115, "channel": 0}, {"type": "note_off", "time": 289, "note": 53, "velocity": 115, "channel": 0}, {"type": "note_on", "time": 87, "note": 67, "velocity": 114, "channel": 0}, {"type": "note_off", "time": 579, "note": 67, "velocity": 114, "channel": 0}, {"type": "note_on", "time": 596, "note": 58, "velocity": 107, "channel": 0}, {"type": "note_off", "time": 596, "note": 58, "velocity": 107, "channel": 0}, {"type": "note_on", "time": 386, "note": 61, "velocity": 104, "channel": 0}, {"type": "note_off", "time": 333, "note": 61, "velocity": 104, "channel": 0}, {"type": "note_on", "time": 100, "note": 67, "velocity": 106, "channel": 0}, {"type": "note_off", "time": 443, "note": 67, "velocity": 106, "channel": 0}, {"type": "note_on", "time": 26, "note": 68, "velocity": 104, "channel": 0}, {"type": "note_off", "time": 460, "note": 68, "velocity": 104, "channel": 0}, {"type": "note_on", "time": 140, "note": 72, "velocity": 104, "channel": 0}, {"type": "note_on", "time": 245, "note": 71, "velocity": 115, "channel": 0}, {"type": "note_off", "time": 0, "note": 72, "velocity": 104, "channel": 0}, {"type": "note_off", "time": 188, "note": 71, "velocity": 115, "channel": 0}, {"type": "note_on", "time": 0, "note": 65, "velocity": 113, "channel": 0}, {"type": "note_off", "time": 667, "note": 65, "velocity": 113, "channel": 0}, {"type": "note_on", "time": 2815, "note": 65, "velocity": 113, "channel": 0}, {"type": "note_off", "time": 901, "note": 65, "velocity": 113, "channel": 0}, {"type": "note_on", "time": 12, "note": 67, "velocity": 96, "channel": 0}, {"type": "note_off", "time": 759, "note": 67, "velocity": 96, "channel": 0}, {"type": "note_on", "time": 74, "note": 68, "velocity": 106, "channel": 0}, {"type": "note_off", "time": 296, "note": 68, "velocity": 106, "channel": 0}, {"type": "note_on", "time": 43, "note": 69, "velocity": 102, "channel": 0}, {"type": "note_off", "time": 419, "note": 69, "velocity": 102, "channel": 0}, {"type": "note_on", "time": 43, "note": 69, "velocity": 117, "channel": 0}, {"type": "note_off", "time": 549, "note": 69, "velocity": 117, "channel": 0}, {"type": "note_on", "time": 43, "note": 67, "velocity": 110, "channel": 0}, {"type": "note_off", "time": 808, "note": 67, "velocity": 110, "channel": 0}, {"type": "note_on", "time": 6, "note": 66, "velocity": 109, "channel": 0}, {"type": "note_off", "time": 555, "note": 66, "velocity": 109, "channel": 0}, {"type": "note_on", "time": 246, "note": 64, "velocity": 110, "channel": 0}, {"type": "note_off", "time": 654, "note": 64, "velocity": 110, "channel": 0}, {"type": "note_on", "time": 80, "note": 61, "velocity": 104, "channel": 0}, {"type": "note_off", "time": 573, "note": 61, "velocity": 104, "channel": 0}, {"type": "note_on", "time": 74, "note": 63, "velocity": 113, "channel": 0}, {"type": "note_off", "time": 697, "note": 63, "velocity": 113, "channel": 0}, {"type": "note_on", "time": 18, "note": 59, "velocity": 102, "channel": 0}, {"type": "note_off", "time": 493, "note": 59, "velocity": 102, "channel": 0}, {"type": "note_on", "time": 86, "note": 61, "velocity": 108, "channel": 0}, {"type": "note_off", "time": 592, "note": 61, "velocity": 108, "channel": 0}, {"type": "note_on", "time": 178, "note": 57, "velocity": 104, "channel": 0}, {"type": "note_off", "time": 635, "note": 57, "velocity": 104, "channel": 0}, {"type": "note_on", "time": 999, "note": 69, "velocity": 106, "channel": 0}, {"type": "note_off", "time": 277, "note": 69, "velocity": 106, "channel": 0}, {"type": "note_on", "time": 6, "note": 71, "velocity": 113, "channel": 0}, {"type": "note_off", "time": 536, "note": 71, "velocity": 113, "channel": 0}, {"type": "note_on", "time": 14367, "note": 73, "velocity": 117, "channel": 0}, {"type": "note_off", "time": 765, "note": 73, "velocity": 117, "channel": 0}, {"type": "note_on", "time": 0, "note": 75, "velocity": 115, "channel": 0}, {"type": "note_off", "time": 962, "note": 75, "velocity": 115, "channel": 0}, {"type": "note_on", "time": 1154, "note": 75, "velocity": 113, "channel": 0}, {"type": "note_off", "time": 919, "note": 75, "velocity": 113, "channel": 0}, {"type": "note_on", "time": 0, "note": 76, "velocity": 110, "channel": 0}, {"type": "note_off", "time": 469, "note": 76, "velocity": 110, "channel": 0}, {"type": "note_on", "time": 1092, "note": 75, "velocity": 112, "channel": 0}, {"type": "note_off", "time": 876, "note": 75, "velocity": 112, "channel": 0}, {"type": "note_on", "time": 43, "note": 76, "velocity": 110, "channel": 0}, {"type": "note_off", "time": 469, "note": 76, "velocity": 110, "channel": 0}, {"type": "note_on", "time": 314, "note": 72, "velocity": 107, "channel": 0}, {"type": "note_off", "time": 1104, "note": 72, "velocity": 107, "channel": 0}, {"type": "note_on", "time": 962, "note": 74, "velocity": 115, "channel": 0}, {"type": "note_off", "time": 962, "note": 74, "velocity": 115, "channel": 0}, {"type": "note_on", "time": 12, "note": 75, "velocity": 105, "channel": 0}, {"type": "note_off", "time": 950, "note": 75, "velocity": 105, "channel": 0}, {"type": "note_on", "time": 4930, "note": 73, "velocity": 99, "channel": 0}, {"type": "note_off", "time": 351, "note": 73, "velocity": 99, "channel": 0}, {"type": "note_on", "time": 660, "note": 75, "velocity": 119, "channel": 0}, {"type": "note_off", "time": 543, "note": 75, "velocity": 119, "channel": 0}, {"type": "note_on", "time": 24, "note": 76, "velocity": 110, "channel": 0}, {"type": "note_off", "time": 845, "note": 76, "velocity": 110, "channel": 0}, {"type": "note_on", "time": 1228, "note": 75, "velocity": 117, "channel": 0}, {"type": "note_off", "time": 993, "note": 75, "velocity": 117, "channel": 0}, {"type": "note_on", "time": 6, "note": 76, "velocity": 112, "channel": 0}, {"type": "note_off", "time": 506, "note": 76, "velocity": 112, "channel": 0}, {"type": "note_on", "time": 882, "note": 75, "velocity": 114, "channel": 0}, {"type": "note_off", "time": 820, "note": 75, "velocity": 114, "channel": 0}, {"type": "note_on", "time": 43, "note": 76, "velocity": 108, "channel": 0}, {"type": "note_off", "time": 592, "note": 76, "velocity": 108, "channel": 0}, {"type": "note_on", "time": 74, "note": 73, "velocity": 97, "channel": 0}, {"type": "note_off", "time": 382, "note": 73, "velocity": 97, "channel": 0}, {"type": "note_on", "time": 728, "note": 75, "velocity": 115, "channel": 0}, {"type": "note_off", "time": 993, "note": 75, "velocity": 115, "channel": 0}, {"type": "note_on", "time": 80, "note": 76, "velocity": 108, "channel": 0}, {"type": "note_off", "time": 357, "note": 76, "velocity": 108, "channel": 0}, {"type": "note_on", "time": 506, "note": 72, "velocity": 101, "channel": 0}, {"type": "note_off", "time": 610, "note": 72, "velocity": 101, "channel": 0}, {"type": "note_on", "time": 1530, "note": 74, "velocity": 112, "channel": 0}, {"type": "note_off", "time": 1079, "note": 74, "velocity": 112, "channel": 0}, {"type": "note_on", "time": 6, "note": 75, "velocity": 105, "channel": 0}, {"type": "note_off", "time": 709, "note": 75, "velocity": 105, "channel": 0}, {"type": "note_on", "time": 697, "note": 74, "velocity": 113, "channel": 0}, {"type": "note_off", "time": 913, "note": 74, "velocity": 113, "channel": 0}, {"type": "note_on", "time": 37, "note": 75, "velocity": 100, "channel": 0}, {"type": "note_off", "time": 697, "note": 75, "velocity": 100, "channel": 0}, {"type": "note_on", "time": 382, "note": 74, "velocity": 111, "channel": 0}, {"type": "note_off", "time": 635, "note": 74, "velocity": 111, "channel": 0}, {"type": "note_on", "time": 6, "note": 75, "velocity": 107, "channel": 0}, {"type": "note_off", "time": 524, "note": 75, "velocity": 107, "channel": 0}, {"type": "note_on", "time": 641, "note": 74, "velocity": 108, "channel": 0}, {"type": "note_off", "time": 469, "note": 74, "velocity": 108, "channel": 0}, {"type": "note_on", "time": 43, "note": 75, "velocity": 107, "channel": 0}, {"type": "note_off", "time": 333, "note": 75, "velocity": 107, "channel": 0}, {"type": "note_on", "time": 43, "note": 77, "velocity": 112, "channel": 0}, {"type": "note_off", "time": 419, "note": 77, "velocity": 112, "channel": 0}, {"type": "note_on", "time": 166, "note": 76, "velocity": 112, "channel": 0}, {"type": "note_off", "time": 203, "note": 76, "velocity": 112, "channel": 0}, {"type": "note_on", "time": 55, "note": 72, "velocity": 107, "channel": 0}, {"type": "note_off", "time": 320, "note": 72, "velocity": 107, "channel": 0}, {"type": "note_on", "time": 18, "note": 70, "velocity": 105, "channel": 0}, {"type": "note_off", "time": 222, "note": 70, "velocity": 105, "channel": 0}, {"type": "note_on", "time": 74, "note": 68, "velocity": 111, "channel": 0}, {"type": "note_off", "time": 259, "note": 68, "velocity": 111, "channel": 0}, {"type": "note_on", "time": 61, "note": 65, "velocity": 106, "channel": 0}, {"type": "note_off", "time": 1172, "note": 65, "velocity": 106, "channel": 0}, {"type": "note_on", "time": 37, "note": 60, "velocity": 105, "channel": 0}, {"type": "note_off", "time": 752, "note": 60, "velocity": 105, "channel": 0}, {"type": "note_on", "time": 302, "note": 65, "velocity": 106, "channel": 0}, {"type": "note_off", "time": 1240, "note": 65, "velocity": 106, "channel": 0}, {"type": "note_on", "time": 5196, "note": 61, "velocity": 111, "channel": 0}, {"type": "note_off", "time": 425, "note": 61, "velocity": 111, "channel": 0}, {"type": "note_on", "time": 18, "note": 63, "velocity": 112, "channel": 0}, {"type": "note_off", "time": 475, "note": 63, "velocity": 112, "channel": 0}, {"type": "note_on", "time": 37, "note": 65, "velocity": 118, "channel": 0}, {"type": "note_off", "time": 709, "note": 65, "velocity": 118, "channel": 0}, {"type": "note_on", "time": 0, "note": 68, "velocity": 96, "channel": 0}, {"type": "note_off", "time": 592, "note": 68, "velocity": 96, "channel": 0}, {"type": "note_on", "time": 166, "note": 69, "velocity": 95, "channel": 0}, {"type": "note_off", "time": 580, "note": 69, "velocity": 95, "channel": 0}, {"type": "note_on", "time": 135, "note": 70, "velocity": 107, "channel": 0}, {"type": "note_off", "time": 333, "note": 70, "velocity": 107, "channel": 0}, {"type": "note_on", "time": 0, "note": 71, "velocity": 115, "channel": 0}, {"type": "note_off", "time": 1184, "note": 71, "velocity": 115, "channel": 0}, {"type": "note_on", "time": 3005, "note": 59, "velocity": 119, "channel": 0}, {"type": "note_off", "time": 407, "note": 59, "velocity": 119, "channel": 0}, {"type": "note_on", "time": 86, "note": 63, "velocity": 125, "channel": 0}, {"type": "note_off", "time": 382, "note": 63, "velocity": 125, "channel": 0}, {"type": "note_on", "time": 111, "note": 67, "velocity": 113, "channel": 0}, {"type": "note_off", "time": 364, "note": 67, "velocity": 113, "channel": 0}, {"type": "note_on", "time": 185, "note": 71, "velocity": 111, "channel": 0}, {"type": "note_off", "time": 573, "note": 71, "velocity": 111, "channel": 0}, {"type": "note_on", "time": 0, "note": 69, "velocity": 109, "channel": 0}, {"type": "note_off", "time": 469, "note": 69, "velocity": 109, "channel": 0}, {"type": "note_on", "time": 61, "note": 67, "velocity": 102, "channel": 0}, {"type": "note_off", "time": 543, "note": 67, "velocity": 102, "channel": 0}, {"type": "note_on", "time": 135, "note": 66, "velocity": 109, "channel": 0}, {"type": "note_off", "time": 178, "note": 66, "velocity": 109, "channel": 0}, {"type": "note_on", "time": 0, "note": 65, "velocity": 115, "channel": 0}, {"type": "note_off", "time": 401, "note": 65, "velocity": 115, "channel": 0}, {"type": "note_on", "time": 24, "note": 64, "velocity": 105, "channel": 0}, {"type": "note_off", "time": 882, "note": 64, "velocity": 105, "channel": 0}, {"type": "note_on", "time": 296, "note": 63, "velocity": 113, "channel": 0}, {"type": "note_off", "time": 543, "note": 63, "velocity": 113, "channel": 0}, {"type": "note_on", "time": 283, "note": 55, "velocity": 100, "channel": 0}, {"type": "note_off", "time": 981, "note": 55, "velocity": 100, "channel": 0}, {"type": "note_on", "time": 3443, "note": 63, "velocity": 117, "channel": 0}, {"type": "note_off", "time": 228, "note": 63, "velocity": 117, "channel": 0}, {"type": "note_on", "time": 24, "note": 59, "velocity": 110, "channel": 0}, {"type": "note_off", "time": 290, "note": 59, "velocity": 110, "channel": 0}, {"type": "note_on", "time": 234, "note": 54, "velocity": 113, "channel": 0}, {"type": "note_off", "time": 444, "note": 54, "velocity": 113, "channel": 0}, {"type": "note_on", "time": 80, "note": 55, "velocity": 114, "channel": 0}, {"type": "note_off", "time": 388, "note": 55, "velocity": 114, "channel": 0}, {"type": "note_on", "time": 148, "note": 57, "velocity": 111, "channel": 0}, {"type": "note_off", "time": 524, "note": 57, "velocity": 111, "channel": 0}, {"type": "note_on", "time": 37, "note": 58, "velocity": 110, "channel": 0}, {"type": "note_off", "time": 351, "note": 58, "velocity": 110, "channel": 0}, {"type": "note_on", "time": 43, "note": 60, "velocity": 103, "channel": 0}, {"type": "note_off", "time": 382, "note": 60, "velocity": 103, "channel": 0}, {"type": "note_on", "time": 43, "note": 63, "velocity": 113, "channel": 0}, {"type": "note_off", "time": 425, "note": 63, "velocity": 113, "channel": 0}, {"type": "note_on", "time": 74, "note": 60, "velocity": 112, "channel": 0}, {"type": "note_off", "time": 364, "note": 60, "velocity": 112, "channel": 0}, {"type": "note_on", "time": 185, "note": 62, "velocity": 111, "channel": 0}, {"type": "note_off", "time": 703, "note": 62, "velocity": 111, "channel": 0}, {"type": "note_on", "time": 24, "note": 60, "velocity": 117, "channel": 0}, {"type": "note_off", "time": 481, "note": 60, "velocity": 117, "channel": 0}, {"type": "note_on", "time": 0, "note": 59, "velocity": 109, "channel": 0}, {"type": "note_off", "time": 703, "note": 59, "velocity": 109, "channel": 0}, {"type": "note_on", "time": 74, "note": 61, "velocity": 113, "channel": 0}, {"type": "note_off", "time": 512, "note": 61, "velocity": 113, "channel": 0}, {"type": "note_on", "time": 0, "note": 63, "velocity": 111, "channel": 0}, {"type": "note_off", "time": 586, "note": 63, "velocity": 111, "channel": 0}, {"type": "note_on", "time": 253, "note": 69, "velocity": 106, "channel": 0}, {"type": "note_off", "time": 506, "note": 69, "velocity": 106, "channel": 0}, {"type": "note_on", "time": 74, "note": 69, "velocity": 117, "channel": 0}, {"type": "note_off", "time": 555, "note": 69, "velocity": 117, "channel": 0}, {"type": "note_on", "time": 104, "note": 66, "velocity": 110, "channel": 0}, {"type": "note_off", "time": 586, "note": 66, "velocity": 110, "channel": 0}, {"type": "note_on", "time": 43, "note": 67, "velocity": 105, "channel": 0}, {"type": "note_off", "time": 407, "note": 67, "velocity": 105, "channel": 0}, {"type": "note_on", "time": 123, "note": 68, "velocity": 104, "channel": 0}, {"type": "note_off", "time": 524, "note": 68, "velocity": 104, "channel": 0}, {"type": "note_on", "time": 253, "note": 69, "velocity": 98, "channel": 0}, {"type": "note_off", "time": 512, "note": 69, "velocity": 98, "channel": 0}, {"type": "note_on", "time": 166, "note": 72, "velocity": 103, "channel": 0}, {"type": "note_off", "time": 456, "note": 72, "velocity": 103, "channel": 0}, {"type": "note_on", "time": 12, "note": 74, "velocity": 109, "channel": 0}, {"type": "note_off", "time": 629, "note": 74, "velocity": 109, "channel": 0}, {"type": "note_on", "time": 37, "note": 72, "velocity": 112, "channel": 0}, {"type": "note_off", "time": 654, "note": 72, "velocity": 112, "channel": 0}, {"type": "note_on", "time": 6, "note": 70, "velocity": 110, "channel": 0}, {"type": "note_off", "time": 462, "note": 70, "velocity": 110, "channel": 0}, {"type": "note_on", "time": 74, "note": 68, "velocity": 111, "channel": 0}, {"type": "note_off", "time": 493, "note": 68, "velocity": 111, "channel": 0}, {"type": "note_on", "time": 680, "note": 68, "velocity": 96, "channel": 0}, {"type": "note_off", "time": 617, "note": 68, "velocity": 96, "channel": 0}, {"type": "note_on", "time": 368, "note": 84, "velocity": 113, "channel": 0}, {"type": "note_off", "time": 950, "note": 84, "velocity": 113, "channel": 0}, {"type": "note_on", "time": 364, "note": 84, "velocity": 112, "channel": 0}, {"type": "note_off", "time": 845, "note": 84, "velocity": 112, "channel": 0}, {"type": "note_on", "time": 330, "note": 68, "velocity": 86, "channel": 0}, {"type": "note_off", "time": 956, "note": 68, "velocity": 86, "channel": 0}, {"type": "note_on", "time": 614, "note": 80, "velocity": 112, "channel": 0}, {"type": "note_off", "time": 518, "note": 80, "velocity": 112, "channel": 0}, {"type": "note_on", "time": 0, "note": 81, "velocity": 117, "channel": 0}, {"type": "note_off", "time": 641, "note": 81, "velocity": 117, "channel": 0}, {"type": "note_on", "time": 6, "note": 82, "velocity": 103, "channel": 0}, {"type": "note_off", "time": 518, "note": 82, "velocity": 103, "channel": 0}, {"type": "note_on", "time": 92, "note": 84, "velocity": 97, "channel": 0}, {"type": "note_off", "time": 302, "note": 84, "velocity": 97, "channel": 0}, {"type": "note_on", "time": 12, "note": 78, "velocity": 116, "channel": 0}, {"type": "note_off", "time": 314, "note": 78, "velocity": 116, "channel": 0}, {"type": "note_on", "time": 6, "note": 77, "velocity": 107, "channel": 0}, {"type": "note_off", "time": 178, "note": 77, "velocity": 107, "channel": 0}, {"type": "note_on", "time": 37, "note": 74, "velocity": 105, "channel": 0}, {"type": "note_off", "time": 450, "note": 74, "velocity": 105, "channel": 0}, {"type": "note_on", "time": 0, "note": 71, "velocity": 110, "channel": 0}, {"type": "note_off", "time": 580, "note": 71, "velocity": 110, "channel": 0}, {"type": "note_on", "time": 6, "note": 66, "velocity": 111, "channel": 0}, {"type": "note_off", "time": 462, "note": 66, "velocity": 111, "channel": 0}, {"type": "note_on", "time": 0, "note": 62, "velocity": 98, "channel": 0}, {"type": "note_off", "time": 425, "note": 62, "velocity": 98, "channel": 0}, {"type": "note_on", "time": 0, "note": 59, "velocity": 104, "channel": 0}, {"type": "note_off", "time": 432, "note": 59, "velocity": 104, "channel": 0}, {"type": "note_on", "time": 74, "note": 54, "velocity": 99, "channel": 0}, {"type": "note_off", "time": 370, "note": 54, "velocity": 99, "channel": 0}, {"type": "note_on", "time": 382, "note": 58, "velocity": 104, "channel": 0}, {"type": "note_off", "time": 302, "note": 58, "velocity": 104, "channel": 0}, {"type": "note_on", "time": 117, "note": 62, "velocity": 104, "channel": 0}, {"type": "note_off", "time": 845, "note": 62, "velocity": 104, "channel": 0}, {"type": "note_on", "time": 172, "note": 60, "velocity": 111, "channel": 0}, {"type": "note_off", "time": 394, "note": 60, "velocity": 111, "channel": 0}, {"type": "note_on", "time": 0, "note": 62, "velocity": 117, "channel": 0}, {"type": "note_off", "time": 573, "note": 62, "velocity": 117, "channel": 0}, {"type": "note_on", "time": 111, "note": 60, "velocity": 111, "channel": 0}, {"type": "note_off", "time": 333, "note": 60, "velocity": 111, "channel": 0}, {"type": "note_on", "time": 49, "note": 58, "velocity": 107, "channel": 0}, {"type": "note_off", "time": 450, "note": 58, "velocity": 107, "channel": 0}, {"type": "note_on", "time": 30, "note": 60, "velocity": 102, "channel": 0}, {"type": "note_off", "time": 290, "note": 60, "velocity": 102, "channel": 0}, {"type": "note_on", "time": 55, "note": 61, "velocity": 119, "channel": 0}, {"type": "note_off", "time": 271, "note": 61, "velocity": 119, "channel": 0}, {"type": "note_on", "time": 37, "note": 65, "velocity": 116, "channel": 0}, {"type": "note_off", "time": 308, "note": 65, "velocity": 116, "channel": 0}, {"type": "note_on", "time": 49, "note": 68, "velocity": 111, "channel": 0}, {"type": "note_off", "time": 456, "note": 68, "velocity": 111, "channel": 0}, {"type": "note_on", "time": 24, "note": 74, "velocity": 103, "channel": 0}, {"type": "note_off", "time": 333, "note": 74, "velocity": 103, "channel": 0}, {"type": "note_on", "time": 277, "note": 65, "velocity": 112, "channel": 0}, {"type": "note_off", "time": 388, "note": 65, "velocity": 112, "channel": 0}, {"type": "note_on", "time": 6, "note": 68, "velocity": 93, "channel": 0}, {"type": "note_off", "time": 592, "note": 68, "velocity": 93, "channel": 0}, {"type": "note_on", "time": 3653, "note": 61, "velocity": 112, "channel": 0}, {"type": "note_off", "time": 302, "note": 61, "velocity": 112, "channel": 0}, {"type": "note_on", "time": 55, "note": 63, "velocity": 118, "channel": 0}, {"type": "note_off", "time": 388, "note": 63, "velocity": 118, "channel": 0}, {"type": "note_on", "time": 18, "note": 64, "velocity": 123, "channel": 0}, {"type": "note_off", "time": 401, "note": 64, "velocity": 123, "channel": 0}, {"type": "note_on", "time": 98, "note": 67, "velocity": 107, "channel": 0}, {"type": "note_off", "time": 413, "note": 67, "velocity": 107, "channel": 0}, {"type": "note_on", "time": 18, "note": 66, "velocity": 102, "channel": 0}, {"type": "note_off", "time": 357, "note": 66, "velocity": 102, "channel": 0}, {"type": "note_on", "time": 0, "note": 68, "velocity": 91, "channel": 0}, {"type": "note_off", "time": 228, "note": 68, "velocity": 91, "channel": 0}, {"type": "note_on", "time": 0, "note": 70, "velocity": 92, "channel": 0}, {"type": "note_off", "time": 327, "note": 70, "velocity": 92, "channel": 0}, {"type": "note_on", "time": 12, "note": 72, "velocity": 114, "channel": 0}, {"type": "note_off", "time": 444, "note": 72, "velocity": 114, "channel": 0}, {"type": "note_on", "time": 61, "note": 74, "velocity": 111, "channel": 0}, {"type": "note_off", "time": 419, "note": 74, "velocity": 111, "channel": 0}, {"type": "note_on", "time": 493, "note": 70, "velocity": 112, "channel": 0}, {"type": "note_off", "time": 549, "note": 70, "velocity": 112, "channel": 0}, {"type": "note_on", "time": 80, "note": 71, "velocity": 111, "channel": 0}, {"type": "note_off", "time": 487, "note": 71, "velocity": 111, "channel": 0}, {"type": "note_on", "time": 30, "note": 72, "velocity": 115, "channel": 0}, {"type": "note_off", "time": 968, "note": 72, "velocity": 115, "channel": 0}, {"type": "note_on", "time": 24, "note": 74, "velocity": 108, "channel": 0}, {"type": "note_off", "time": 314, "note": 74, "velocity": 108, "channel": 0}, {"type": "note_on", "time": 6, "note": 75, "velocity": 112, "channel": 0}, {"type": "note_off", "time": 524, "note": 75, "velocity": 112, "channel": 0}, {"type": "note_on", "time": 74, "note": 74, "velocity": 105, "channel": 0}, {"type": "note_off", "time": 271, "note": 74, "velocity": 105, "channel": 0}, {"type": "note_on", "time": 0, "note": 72, "velocity": 107, "channel": 0}, {"type": "note_off", "time": 216, "note": 72, "velocity": 107, "channel": 0}, {"type": "note_on", "time": 104, "note": 70, "velocity": 108, "channel": 0}, {"type": "note_off", "time": 178, "note": 70, "velocity": 108, "channel": 0}, {"type": "note_on", "time": 0, "note": 68, "velocity": 113, "channel": 0}, {"type": "note_off", "time": 302, "note": 68, "velocity": 113, "channel": 0}, {"type": "note_on", "time": 98, "note": 65, "velocity": 114, "channel": 0}, {"type": "note_off", "time": 580, "note": 65, "velocity": 114, "channel": 0}, {"type": "note_on", "time": 55, "note": 61, "velocity": 109, "channel": 0}, {"type": "note_off", "time": 314, "note": 61, "velocity": 109, "channel": 0}, {"type": "note_on", "time": 30, "note": 58, "velocity": 106, "channel": 0}, {"type": "note_off", "time": 283, "note": 58, "velocity": 106, "channel": 0}, {"type": "note_on", "time": 111, "note": 56, "velocity": 113, "channel": 0}, {"type": "note_off", "time": 419, "note": 56, "velocity": 113, "channel": 0}, {"type": "note_on", "time": 178, "note": 53, "velocity": 112, "channel": 0}, {"type": "note_off", "time": 481, "note": 53, "velocity": 112, "channel": 0}, {"type": "note_on", "time": 49, "note": 52, "velocity": 106, "channel": 0}, {"type": "note_off", "time": 1117, "note": 52, "velocity": 106, "channel": 0}, {"type": "note_on", "time": 5609, "note": 61, "velocity": 110, "channel": 0}, {"type": "note_off", "time": 234, "note": 61, "velocity": 110, "channel": 0}, {"type": "note_on", "time": 0, "note": 63, "velocity": 116, "channel": 0}, {"type": "note_on", "time": 462, "note": 67, "velocity": 115, "channel": 0}, {"type": "note_off", "time": 0, "note": 63, "velocity": 116, "channel": 0}, {"type": "note_off", "time": 647, "note": 67, "velocity": 115, "channel": 0}, {"type": "note_on", "time": 43, "note": 70, "velocity": 113, "channel": 0}, {"type": "note_off", "time": 567, "note": 70, "velocity": 113, "channel": 0}, {"type": "note_on", "time": 30, "note": 69, "velocity": 115, "channel": 0}, {"type": "note_off", "time": 623, "note": 69, "velocity": 115, "channel": 0}, {"type": "note_on", "time": 18, "note": 65, "velocity": 116, "channel": 0}, {"type": "note_off", "time": 506, "note": 65, "velocity": 116, "channel": 0}, {"type": "note_on", "time": 166, "note": 62, "velocity": 103, "channel": 0}, {"type": "note_off", "time": 931, "note": 62, "velocity": 103, "channel": 0}, {"type": "note_on", "time": 18, "note": 60, "velocity": 101, "channel": 0}, {"type": "note_off", "time": 191, "note": 60, "velocity": 101, "channel": 0}, {"type": "note_on", "time": 178, "note": 67, "velocity": 111, "channel": 0}, {"type": "note_off", "time": 654, "note": 67, "velocity": 111, "channel": 0}, {"type": "note_on", "time": 74, "note": 65, "velocity": 110, "channel": 0}, {"type": "note_off", "time": 543, "note": 65, "velocity": 110, "channel": 0}, {"type": "note_on", "time": 0, "note": 64, "velocity": 108, "channel": 0}, {"type": "note_off", "time": 709, "note": 64, "velocity": 108, "channel": 0}, {"type": "note_on", "time": 135, "note": 62, "velocity": 104, "channel": 0}, {"type": "note_off", "time": 481, "note": 62, "velocity": 104, "channel": 0}, {"type": "note_on", "time": 61, "note": 60, "velocity": 108, "channel": 0}, {"type": "note_off", "time": 456, "note": 60, "velocity": 108, "channel": 0}, {"type": "note_on", "time": 246, "note": 58, "velocity": 107, "channel": 0}, {"type": "note_off", "time": 450, "note": 58, "velocity": 107, "channel": 0}, {"type": "note_on", "time": 172, "note": 57, "velocity": 109, "channel": 0}, {"type": "note_off", "time": 290, "note": 57, "velocity": 109, "channel": 0}, {"type": "note_on", "time": 49, "note": 60, "velocity": 106, "channel": 0}, {"type": "note_off", "time": 345, "note": 60, "velocity": 106, "channel": 0}, {"type": "note_on", "time": 129, "note": 64, "velocity": 106, "channel": 0}, {"type": "note_off", "time": 370, "note": 64, "velocity": 106, "channel": 0}, {"type": "note_on", "time": 6, "note": 67, "velocity": 104, "channel": 0}, {"type": "note_off", "time": 351, "note": 67, "velocity": 104, "channel": 0}, {"type": "note_on", "time": 86, "note": 64, "velocity": 109, "channel": 0}, {"type": "note_off", "time": 370, "note": 64, "velocity": 109, "channel": 0}, {"type": "note_on", "time": 0, "note": 65, "velocity": 117, "channel": 0}, {"type": "note_off", "time": 580, "note": 65, "velocity": 117, "channel": 0}, {"type": "note_on", "time": 141, "note": 67, "velocity": 105, "channel": 0}, {"type": "note_off", "time": 487, "note": 67, "velocity": 105, "channel": 0}, {"type": "note_on", "time": 61, "note": 65, "velocity": 102, "channel": 0}, {"type": "note_off", "time": 277, "note": 65, "velocity": 102, "channel": 0}, {"type": "note_on", "time": 296, "note": 72, "velocity": 97, "channel": 0}, {"type": "note_off", "time": 246, "note": 72, "velocity": 97, "channel": 0}, {"type": "note_on", "time": 6, "note": 71, "velocity": 105, "channel": 0}, {"type": "note_off", "time": 327, "note": 71, "velocity": 105, "channel": 0}, {"type": "note_on", "time": 135, "note": 72, "velocity": 105, "channel": 0}, {"type": "note_off", "time": 2221, "note": 72, "velocity": 105, "channel": 0}, {"type": "note_on", "time": 111, "note": 74, "velocity": 112, "channel": 0}, {"type": "note_on", "time": 623, "note": 75, "velocity": 110, "channel": 0}, {"type": "note_off", "time": 0, "note": 74, "velocity": 112, "channel": 0}, {"type": "note_off", "time": 833, "note": 75, "velocity": 110, "channel": 0}, {"type": "note_on", "time": 253, "note": 72, "velocity": 98, "channel": 0}, {"type": "note_off", "time": 2252, "note": 72, "velocity": 98, "channel": 0}, {"type": "note_on", "time": 104, "note": 74, "velocity": 113, "channel": 0}, {"type": "note_off", "time": 438, "note": 74, "velocity": 113, "channel": 0}, {"type": "note_on", "time": 24, "note": 75, "velocity": 115, "channel": 0}, {"type": "note_off", "time": 851, "note": 75, "velocity": 115, "channel": 0}, {"type": "note_on", "time": 697, "note": 72, "velocity": 103, "channel": 0}, {"type": "note_off", "time": 364, "note": 72, "velocity": 103, "channel": 0}, {"type": "note_on", "time": 74, "note": 72, "velocity": 103, "channel": 0}, {"type": "note_off", "time": 438, "note": 72, "velocity": 103, "channel": 0}, {"type": "note_on", "time": 265, "note": 75, "velocity": 113, "channel": 0}, {"type": "note_off", "time": 351, "note": 75, "velocity": 113, "channel": 0}, {"type": "note_on", "time": 18, "note": 74, "velocity": 116, "channel": 0}, {"type": "note_off", "time": 370, "note": 74, "velocity": 116, "channel": 0}, {"type": "note_on", "time": 30, "note": 75, "velocity": 109, "channel": 0}, {"type": "note_off", "time": 1296, "note": 75, "velocity": 109, "channel": 0}, {"type": "note_on", "time": 117, "note": 72, "velocity": 107, "channel": 0}, {"type": "note_off", "time": 1086, "note": 72, "velocity": 107, "channel": 0}, {"type": "note_on", "time": 185, "note": 76, "velocity": 99, "channel": 0}, {"type": "note_off", "time": 203, "note": 76, "velocity": 99, "channel": 0}, {"type": "note_on", "time": 148, "note": 73, "velocity": 99, "channel": 0}, {"type": "note_off", "time": 308, "note": 73, "velocity": 99, "channel": 0}, {"type": "note_on", "time": 240, "note": 71, "velocity": 89, "channel": 0}, {"type": "note_off", "time": 357, "note": 71, "velocity": 89, "channel": 0}, {"type": "note_on", "time": 2098, "note": 72, "velocity": 114, "channel": 0}, {"type": "note_off", "time": 845, "note": 72, "velocity": 114, "channel": 0}, {"type": "note_on", "time": 98, "note": 76, "velocity": 109, "channel": 0}, {"type": "note_off", "time": 425, "note": 76, "velocity": 109, "channel": 0}, {"type": "note_on", "time": 55, "note": 73, "velocity": 93, "channel": 0}, {"type": "note_off", "time": 475, "note": 73, "velocity": 93, "channel": 0}, {"type": "note_on", "time": 74, "note": 72, "velocity": 97, "channel": 0}, {"type": "note_off", "time": 456, "note": 72, "velocity": 97, "channel": 0}, {"type": "note_on", "time": 0, "note": 71, "velocity": 102, "channel": 0}, {"type": "note_off", "time": 864, "note": 71, "velocity": 102, "channel": 0}, {"type": "note_on", "time": 209, "note": 72, "velocity": 113, "channel": 0}, {"type": "note_off", "time": 487, "note": 72, "velocity": 113, "channel": 0}, {"type": "note_on", "time": 283, "note": 75, "velocity": 97, "channel": 0}, {"type": "note_off", "time": 382, "note": 75, "velocity": 97, "channel": 0}, {"type": "note_on", "time": 117, "note": 75, "velocity": 103, "channel": 0}, {"type": "note_off", "time": 394, "note": 75, "velocity": 103, "channel": 0}, {"type": "note_on", "time": 104, "note": 72, "velocity": 105, "channel": 0}, {"type": "note_off", "time": 277, "note": 72, "velocity": 105, "channel": 0}, {"type": "note_on", "time": 6, "note": 70, "velocity": 109, "channel": 0}, {"type": "note_off", "time": 246, "note": 70, "velocity": 109, "channel": 0}, {"type": "note_on", "time": 0, "note": 71, "velocity": 109, "channel": 0}, {"type": "note_off", "time": 672, "note": 71, "velocity": 109, "channel": 0}, {"type": "note_on", "time": 43, "note": 68, "velocity": 106, "channel": 0}, {"type": "note_off", "time": 1351, "note": 68, "velocity": 106, "channel": 0}, {"type": "note_on", "time": 4258, "note": 72, "velocity": 117, "channel": 0}, {"type": "note_off", "time": 802, "note": 72, "velocity": 117, "channel": 0}, {"type": "note_on", "time": 123, "note": 75, "velocity": 93, "channel": 0}, {"type": "note_off", "time": 327, "note": 75, "velocity": 93, "channel": 0}, {"type": "note_on", "time": 24, "note": 74, "velocity": 102, "channel": 0}, {"type": "note_off", "time": 678, "note": 74, "velocity": 102, "channel": 0}, {"type": "note_on", "time": 18, "note": 70, "velocity": 108, "channel": 0}, {"type": "note_off", "time": 870, "note": 70, "velocity": 108, "channel": 0}, {"type": "note_on", "time": 74, "note": 69, "velocity": 116, "channel": 0}, {"type": "note_off", "time": 833, "note": 69, "velocity": 116, "channel": 0}, {"type": "note_on", "time": 222, "note": 65, "velocity": 116, "channel": 0}, {"type": "note_off", "time": 864, "note": 65, "velocity": 116, "channel": 0}, {"type": "note_on", "time": 64, "note": 62, "velocity": 87, "channel": 0}, {"type": "note_off", "time": 1860, "note": 62, "velocity": 87, "channel": 0}, {"type": "note_on", "time": 691, "note": 67, "velocity": 109, "channel": 0}, {"type": "note_off", "time": 1129, "note": 67, "velocity": 109, "channel": 0}, {"type": "note_on", "time": 314, "note": 62, "velocity": 106, "channel": 0}, {"type": "note_off", "time": 919, "note": 62, "velocity": 106, "channel": 0}, {"type": "note_on", "time": 18, "note": 67, "velocity": 106, "channel": 0}, {"type": "note_off", "time": 1876, "note": 67, "velocity": 106, "channel": 0}, {"type": "note_on", "time": 43, "note": 69, "velocity": 104, "channel": 0}, {"type": "note_off", "time": 2073, "note": 69, "velocity": 104, "channel": 0}, {"type": "note_on", "time": 4801, "note": 61, "velocity": 107, "channel": 0}, {"type": "note_off", "time": 506, "note": 61, "velocity": 107, "channel": 0}, {"type": "note_on", "time": 49, "note": 63, "velocity": 116, "channel": 0}, {"type": "note_off", "time": 580, "note": 63, "velocity": 116, "channel": 0}, {"type": "note_on", "time": 185, "note": 68, "velocity": 111, "channel": 0}, {"type": "note_off", "time": 728, "note": 68, "velocity": 111, "channel": 0}, {"type": "note_on", "time": 0, "note": 70, "velocity": 98, "channel": 0}, {"type": "note_off", "time": 444, "note": 70, "velocity": 98, "channel": 0}, {"type": "note_on", "time": 74, "note": 71, "velocity": 108, "channel": 0}, {"type": "note_off", "time": 752, "note": 71, "velocity": 108, "channel": 0}, {"type": "note_on", "time": 246, "note": 74, "velocity": 115, "channel": 0}, {"type": "note_off", "time": 678, "note": 74, "velocity": 115, "channel": 0}, {"type": "note_on", "time": 394, "note": 76, "velocity": 113, "channel": 0}, {"type": "note_off", "time": 728, "note": 76, "velocity": 113, "channel": 0}, {"type": "note_on", "time": 49, "note": 78, "velocity": 113, "channel": 0}, {"type": "note_off", "time": 2061, "note": 78, "velocity": 113, "channel": 0}, {"type": "note_on", "time": 123, "note": 77, "velocity": 106, "channel": 0}, {"type": "note_off", "time": 432, "note": 77, "velocity": 106, "channel": 0}, {"type": "note_on", "time": 160, "note": 78, "velocity": 107, "channel": 0}, {"type": "note_off", "time": 506, "note": 78, "velocity": 107, "channel": 0}, {"type": "note_on", "time": 0, "note": 77, "velocity": 110, "channel": 0}, {"type": "note_off", "time": 493, "note": 77, "velocity": 110, "channel": 0}, {"type": "note_on", "time": 49, "note": 78, "velocity": 9, "channel": 0}, {"type": "note_off", "time": 1246, "note": 78, "velocity": 9, "channel": 0}, {"type": "note_on", "time": 543, "note": 74, "velocity": 117, "channel": 0}, {"type": "note_off", "time": 592, "note": 74, "velocity": 117, "channel": 0}, {"type": "note_on", "time": 86, "note": 76, "velocity": 115, "channel": 0}, {"type": "note_off", "time": 456, "note": 76, "velocity": 115, "channel": 0}, {"type": "note_on", "time": 12, "note": 75, "velocity": 114, "channel": 0}, {"type": "note_off", "time": 543, "note": 75, "velocity": 114, "channel": 0}, {"type": "note_on", "time": 296, "note": 73, "velocity": 109, "channel": 0}, {"type": "note_off", "time": 493, "note": 73, "velocity": 109, "channel": 0}, {"type": "note_on", "time": 246, "note": 72, "velocity": 116, "channel": 0}, {"type": "note_off", "time": 394, "note": 72, "velocity": 116, "channel": 0}, {"type": "note_on", "time": 74, "note": 74, "velocity": 112, "channel": 0}, {"type": "note_off", "time": 543, "note": 74, "velocity": 112, "channel": 0}, {"type": "note_on", "time": 111, "note": 72, "velocity": 116, "channel": 0}, {"type": "note_off", "time": 506, "note": 72, "velocity": 116, "channel": 0}, {"type": "note_on", "time": 197, "note": 71, "velocity": 114, "channel": 0}, {"type": "note_off", "time": 555, "note": 71, "velocity": 114, "channel": 0}, {"type": "note_on", "time": 98, "note": 70, "velocity": 114, "channel": 0}, {"type": "note_off", "time": 629, "note": 70, "velocity": 114, "channel": 0}, {"type": "note_on", "time": 98, "note": 67, "velocity": 107, "channel": 0}, {"type": "note_off", "time": 567, "note": 67, "velocity": 107, "channel": 0}, {"type": "note_on", "time": 123, "note": 68, "velocity": 113, "channel": 0}, {"type": "note_off", "time": 580, "note": 68, "velocity": 113, "channel": 0}, {"type": "note_on", "time": 246, "note": 69, "velocity": 120, "channel": 0}, {"type": "note_off", "time": 592, "note": 69, "velocity": 120, "channel": 0}, {"type": "note_on", "time": 901, "note": 69, "velocity": 117, "channel": 0}, {"type": "note_off", "time": 444, "note": 69, "velocity": 117, "channel": 0}, {"type": "note_on", "time": 37, "note": 73, "velocity": 112, "channel": 0}, {"type": "note_off", "time": 444, "note": 73, "velocity": 112, "channel": 0}, {"type": "note_on", "time": 86, "note": 69, "velocity": 115, "channel": 0}, {"type": "note_off", "time": 580, "note": 69, "velocity": 115, "channel": 0}, {"type": "note_on", "time": 1246, "note": 69, "velocity": 112, "channel": 0}, {"type": "note_off", "time": 419, "note": 69, "velocity": 112, "channel": 0}, {"type": "note_on", "time": 0, "note": 73, "velocity": 111, "channel": 0}, {"type": "note_off", "time": 432, "note": 73, "velocity": 111, "channel": 0}, {"type": "note_on", "time": 234, "note": 69, "velocity": 116, "channel": 0}, {"type": "note_off", "time": 604, "note": 69, "velocity": 116, "channel": 0}, {"type": "note_on", "time": 703, "note": 69, "velocity": 110, "channel": 0}, {"type": "note_off", "time": 530, "note": 69, "velocity": 110, "channel": 0}, {"type": "note_on", "time": 0, "note": 73, "velocity": 104, "channel": 0}, {"type": "note_off", "time": 419, "note": 73, "velocity": 104, "channel": 0}, {"type": "note_on", "time": 160, "note": 69, "velocity": 111, "channel": 0}, {"type": "note_off", "time": 555, "note": 69, "velocity": 111, "channel": 0}, {"type": "note_on", "time": 209, "note": 67, "velocity": 109, "channel": 0}, {"type": "note_on", "time": 543, "note": 65, "velocity": 111, "channel": 0}, {"type": "note_off", "time": 0, "note": 67, "velocity": 109, "channel": 0}, {"type": "note_off", "time": 431, "note": 65, "velocity": 111, "channel": 0}, {"type": "note_on", "time": 12, "note": 67, "velocity": 107, "channel": 0}, {"type": "note_off", "time": 518, "note": 67, "velocity": 107, "channel": 0}, {"type": "note_on", "time": 160, "note": 69, "velocity": 123, "channel": 0}, {"type": "note_off", "time": 555, "note": 69, "velocity": 123, "channel": 0}, {"type": "note_on", "time": 826, "note": 69, "velocity": 115, "channel": 0}, {"type": "note_off", "time": 567, "note": 69, "velocity": 115, "channel": 0}, {"type": "note_on", "time": 123, "note": 73, "velocity": 114, "channel": 0}, {"type": "note_off", "time": 382, "note": 73, "velocity": 114, "channel": 0}, {"type": "note_on", "time": 0, "note": 71, "velocity": 117, "channel": 0}, {"type": "note_on", "time": 308, "note": 67, "velocity": 108, "channel": 0}, {"type": "note_off", "time": 0, "note": 71, "velocity": 117, "channel": 0}, {"type": "note_off", "time": 777, "note": 67, "velocity": 108, "channel": 0}, {"type": "note_on", "time": 0, "note": 61, "velocity": 116, "channel": 0}, {"type": "note_off", "time": 394, "note": 61, "velocity": 116, "channel": 0}, {"type": "note_on", "time": 123, "note": 67, "velocity": 116, "channel": 0}, {"type": "note_off", "time": 629, "note": 67, "velocity": 116, "channel": 0}, {"type": "note_on", "time": 98, "note": 71, "velocity": 110, "channel": 0}, {"type": "note_off", "time": 530, "note": 71, "velocity": 110, "channel": 0}, {"type": "note_on", "time": 0, "note": 67, "velocity": 114, "channel": 0}, {"type": "note_off", "time": 481, "note": 67, "velocity": 114, "channel": 0}, {"type": "note_on", "time": 111, "note": 61, "velocity": 116, "channel": 0}, {"type": "note_off", "time": 506, "note": 61, "velocity": 116, "channel": 0}, {"type": "note_on", "time": 357, "note": 67, "velocity": 118, "channel": 0}, {"type": "note_off", "time": 567, "note": 67, "velocity": 118, "channel": 0}, {"type": "note_on", "time": 49, "note": 71, "velocity": 110, "channel": 0}, {"type": "note_off", "time": 555, "note": 71, "velocity": 110, "channel": 0}, {"type": "note_on", "time": 0, "note": 69, "velocity": 112, "channel": 0}, {"type": "note_off", "time": 580, "note": 69, "velocity": 112, "channel": 0}, {"type": "note_on", "time": 0, "note": 67, "velocity": 112, "channel": 0}, {"type": "note_off", "time": 530, "note": 67, "velocity": 112, "channel": 0}, {"type": "note_on", "time": 148, "note": 65, "velocity": 111, "channel": 0}, {"type": "note_off", "time": 617, "note": 65, "velocity": 111, "channel": 0}, {"type": "note_on", "time": 580, "note": 65, "velocity": 115, "channel": 0}, {"type": "note_off", "time": 740, "note": 65, "velocity": 115, "channel": 0}, {"type": "note_on", "time": 580, "note": 65, "velocity": 117, "channel": 0}, {"type": "note_off", "time": 530, "note": 65, "velocity": 117, "channel": 0}, {"type": "note_on", "time": 49, "note": 69, "velocity": 115, "channel": 0}, {"type": "note_off", "time": 481, "note": 69, "velocity": 115, "channel": 0}, {"type": "note_on", "time": 160, "note": 65, "velocity": 114, "channel": 0}, {"type": "note_off", "time": 617, "note": 65, "velocity": 114, "channel": 0}, {"type": "note_on", "time": 12, "note": 61, "velocity": 123, "channel": 0}, {"type": "note_off", "time": 444, "note": 61, "velocity": 123, "channel": 0}, {"type": "note_on", "time": 172, "note": 65, "velocity": 120, "channel": 0}, {"type": "note_off", "time": 456, "note": 65, "velocity": 120, "channel": 0}, {"type": "note_on", "time": 296, "note": 69, "velocity": 104, "channel": 0}, {"type": "note_off", "time": 444, "note": 69, "velocity": 104, "channel": 0}, {"type": "note_on", "time": 111, "note": 63, "velocity": 112, "channel": 0}, {"type": "note_off", "time": 530, "note": 63, "velocity": 112, "channel": 0}, {"type": "note_on", "time": 197, "note": 61, "velocity": 106, "channel": 0}, {"type": "note_off", "time": 506, "note": 61, "velocity": 106, "channel": 0}, {"type": "note_on", "time": 0, "note": 63, "velocity": 115, "channel": 0}, {"type": "note_off", "time": 567, "note": 63, "velocity": 115, "channel": 0}, {"type": "note_on", "time": 0, "note": 65, "velocity": 109, "channel": 0}, {"type": "note_off", "time": 493, "note": 65, "velocity": 109, "channel": 0}, {"type": "note_on", "time": 123, "note": 60, "velocity": 125, "channel": 0}, {"type": "note_off", "time": 234, "note": 60, "velocity": 125, "channel": 0}, {"type": "note_on", "time": 0, "note": 61, "velocity": 117, "channel": 0}, {"type": "note_off", "time": 678, "note": 61, "velocity": 117, "channel": 0}, {"type": "end_of_track", "time": 0}]]}