{"ticks_per_beat": 192, "tracks": [[{"type": "track_name", "name": "Melody", "time": 0}, {"type": "set_tempo", "tempo": 298507, "time": 0}, {"type": "key_signature", "key": "Ab", "time": 0}, {"type": "time_signature", "numerator": 4, "denominator": 4, "clocks_per_click": 24, "notated_32nd_notes_per_beat": 8, "time": 0}, {"type": "note_on", "time": 1999, "note": 77, "velocity": 116, "channel": 0}, {"type": "note_off", "time": 123, "note": 77, "velocity": 116, "channel": 0}, {"type": "note_on", "time": 67, "note": 80, "velocity": 112, "channel": 0}, {"type": "note_off", "time": 112, "note": 80, "velocity": 112, "channel": 0}, {"type": "note_on", "time": 104, "note": 77, "velocity": 125, "channel": 0}, {"type": "note_off", "time": 93, "note": 77, "velocity": 125, "channel": 0}, {"type": "note_on", "time": 26, "note": 80, "velocity": 109, "channel": 0}, {"type": "note_off", "time": 85, "note": 80, "velocity": 109, "channel": 0}, {"type": "note_on", "time": 0, "note": 79, "velocity": 113, "channel": 0}, {"type": "note_off", "time": 126, "note": 79, "velocity": 113, "channel": 0}, {"type": "note_on", "time": 11, "note": 77, "velocity": 106, "channel": 0}, {"type": "note_off", "time": 108, "note": 77, "velocity": 106, "channel": 0}, {"type": "note_on", "time": 59, "note": 75, "velocity": 118, "channel": 0}, {"type": "note_off", "time": 67, "note": 75, "velocity": 118, "channel": 0}, {"type": "note_on", "time": 0, "note": 76, "velocity": 90, "channel": 0}, {"type": "note_off", "time": 29, "note": 76, "velocity": 90, "channel": 0}, {"type": "note_on", "time": 18, "note": 77, "velocity": 118, "channel": 0}, {"type": "note_off", "time": 29, "note": 77, "velocity": 118, "channel": 0}, {"type": "note_on", "time": 14, "note": 76, "velocity": 112, "channel": 0}, {"type": "note_off", "time": 48, "note": 76, "velocity": 112, "channel": 0}, {"type": "note_on", "time": 7, "note": 74, "velocity": 111, "channel": 0}, {"type": "note_off", "time": 67, "note": 74, "velocity": 111, "channel": 0}, {"type": "note_on", "time": 141, "note": 69, "velocity": 100, "channel": 0}, {"type": "note_off", "time": 59, "note": 69, "velocity": 100, "channel": 0}, {"type": "note_on", "time": 0, "note": 73, "velocity": 80, "channel": 0}, {"type": "note_on", "time": 29, "note": 74, "velocity": 86, "channel": 0}, {"type": "note_off", "time": 0, "note": 73, "velocity": 80, "channel": 0}, {"type": "note_off", "time": 41, "note": 74, "velocity": 86, "channel": 0}, {"type": "note_on", "time": 7, "note": 73, "velocity": 107, "channel": 0}, {"type": "note_off", "time": 82, "note": 73, "velocity": 107, "channel": 0}, {"type": "note_on", "time": 11, "note": 71, "velocity": 95, "channel": 0}, {"type": "note_off", "time": 85, "note": 71, "velocity": 95, "channel": 0}, {"type": "note_on", "time": 11, "note": 69, "velocity": 103, "channel": 0}, {"type": "note_off", "time": 74, "note": 69, "velocity": 103, "channel": 0}, {"type": "note_on", "time": 3, "note": 67, "velocity": 97, "channel": 0}, {"type": "note_off", "time": 74, "note": 67, "velocity": 97, "channel": 0}, {"type": "note_on", "time": 14, "note": 68, "velocity": 90, "channel": 0}, {"type": "note_off", "time": 82, "note": 68, "velocity": 90, "channel": 0}, {"type": "note_on", "time": 0, "note": 70, "velocity": 106, "channel": 0}, {"type": "note_on", "time": 78, "note": 68, "velocity": 93, "channel": 0}, {"type": "note_off", "time": 0, "note": 70, "velocity": 106, "channel": 0}, {"type": "note_off", "time": 108, "note": 68, "velocity": 93, "channel": 0}, {"type": "note_on", "time": 0, "note": 70, "velocity": 111, "channel": 0}, {"type": "note_off", "time": 89, "note": 70, "velocity": 111, "channel": 0}, {"type": "note_on", "time": 3, "note": 72, "velocity": 113, "channel": 0}, {"type": "note_off", "time": 89, "note": 72, "velocity": 113, "channel": 0}, {"type": "note_on", "time": 22, "note": 75, "velocity": 108, "channel": 0}, {"type": "note_off", "time": 89, "note": 75, "velocity": 108, "channel": 0}, {"type": "note_on", "time": 3, "note": 77, "velocity": 121, "channel": 0}, {"type": "note_off", "time": 104, "note": 77, "velocity": 121, "channel": 0}, {"type": "note_on", "time": 22, "note": 75, "velocity": 83, "channel": 0}, {"type": "note_off", "time": 63, "note": 75, "velocity": 83, "channel": 0}, {"type": "note_on", "time": 29, "note": 78, "velocity": 116, "channel": 0}, {"type": "note_off", "time": 134, "note": 78, "velocity": 116, "channel": 0}, {"type": "note_on", "time": 67, "note": 72, "velocity": 106, "channel": 0}, {"type": "note_off", "time": 119, "note": 72, "velocity": 106, "channel": 0}, {"type": "note_on", "time": 22, "note": 77, "velocity": 117, "channel": 0}, {"type": "note_off", "time": 231, "note": 77, "velocity": 117, "channel": 0}, {"type": "note_on", "time": 85, "note": 75, "velocity": 112, "channel": 0}, {"type": "note_off", "time": 97, "note": 75, "velocity": 112, "channel": 0}, {"type": "note_on", "time": 7, "note": 74, "velocity": 110, "channel": 0}, {"type": "note_on", "time": 85, "note": 73, "velocity": 96, "channel": 0}, {"type": "note_off", "time": 0, "note": 74, "velocity": 110, "channel": 0}, {"type": "note_off", "time": 104, "note": 73, "velocity": 96, "channel": 0}, {"type": "note_on", "time": 0, "note": 72, "velocity": 104, "channel": 0}, {"type": "note_off", "time": 85, "note": 72, "velocity": 104, "channel": 0}, {"type": "note_on", "time": 14, "note": 71, "velocity": 105, "channel": 0}, {"type": "note_off", "time": 93, "note": 71, "velocity": 105, "channel": 0}, {"type": "note_on", "time": 0, "note": 70, "velocity": 103, "channel": 0}, {"type": "note_off", "time": 100, "note": 70, "velocity": 103, "channel": 0}, {"type": "note_on", "time": 0, "note": 69, "velocity": 103, "channel": 0}, {"type": "note_off", "time": 74, "note": 69, "velocity": 103, "channel": 0}, {"type": "note_on", "time": 7, "note": 68, "velocity": 95, "channel": 0}, {"type": "note_off", "time": 89, "note": 68, "velocity": 95, "channel": 0}, {"type": "note_on", "time": 3, "note": 70, "velocity": 100, "channel": 0}, {"type": "note_off", "time": 82, "note": 70, "velocity": 100, "channel": 0}, {"type": "note_on", "time": 11, "note": 69, "velocity": 93, "channel": 0}, {"type": "note_off", "time": 164, "note": 69, "velocity": 93, "channel": 0}, {"type": "note_on", "time": 448, "note": 75, "velocity": 116, "channel": 0}, {"type": "note_off", "time": 70, "note": 75, "velocity": 116, "channel": 0}, {"type": "note_on", "time": 7, "note": 74, "velocity": 98, "channel": 0}, {"type": "note_off", "time": 41, "note": 74, "velocity": 98, "channel": 0}, {"type": "note_on", "time": 11, "note": 73, "velocity": 102, "channel": 0}, {"type": "note_off", "time": 41, "note": 73, "velocity": 102, "channel": 0}, {"type": "note_on", "time": 7, "note": 74, "velocity": 97, "channel": 0}, {"type": "note_off", "time": 89, "note": 74, "velocity": 97, "channel": 0}, {"type": "note_on", "time": 7, "note": 71, "velocity": 106, "channel": 0}, {"type": "note_off", "time": 89, "note": 71, "velocity": 106, "channel": 0}, {"type": "note_on", "time": 0, "note": 70, "velocity": 105, "channel": 0}, {"type": "note_off", "time": 93, "note": 70, "velocity": 105, "channel": 0}, {"type": "note_on", "time": 14, "note": 68, "velocity": 92, "channel": 0}, {"type": "note_off", "time": 89, "note": 68, "velocity": 92, "channel": 0}, {"type": "note_on", "time": 0, "note": 69, "velocity": 107, "channel": 0}, {"type": "note_off", "time": 82, "note": 69, "velocity": 107, "channel": 0}, {"type": "note_on", "time": 3, "note": 67, "velocity": 107, "channel": 0}, {"type": "note_off", "time": 89, "note": 67, "velocity": 107, "channel": 0}, {"type": "note_on", "time": 11, "note": 66, "velocity": 100, "channel": 0}, {"type": "note_off", "time": 78, "note": 66, "velocity": 100, "channel": 0}, {"type": "note_on", "time": 26, "note": 64, "velocity": 95, "channel": 0}, {"type": "note_off", "time": 74, "note": 64, "velocity": 95, "channel": 0}, {"type": "note_on", "time": 14, "note": 65, "velocity": 96, "channel": 0}, {"type": "note_on", "time": 97, "note": 67, "velocity": 99, "channel": 0}, {"type": "note_off", "time": 0, "note": 65, "velocity": 96, "channel": 0}, {"type": "note_off", "time": 100, "note": 67, "velocity": 99, "channel": 0}, {"type": "note_on", "time": 3, "note": 68, "velocity": 99, "channel": 0}, {"type": "note_off", "time": 97, "note": 68, "velocity": 99, "channel": 0}, {"type": "note_on", "time": 18, "note": 70, "velocity": 106, "channel": 0}, {"type": "note_off", "time": 85, "note": 70, "velocity": 106, "channel": 0}, {"type": "note_on", "time": 11, "note": 71, "velocity": 106, "channel": 0}, {"type": "note_off", "time": 85, "note": 71, "velocity": 106, "channel": 0}, {"type": "note_on", "time": 7, "note": 69, "velocity": 108, "channel": 0}, {"type": "note_off", "time": 100, "note": 69, "velocity": 108, "channel": 0}, {"type": "note_on", "time": 89, "note": 66, "velocity": 86, "channel": 0}, {"type": "note_on", "time": 82, "note": 68, "velocity": 97, "channel": 0}, {"type": "note_off", "time": 0, "note": 66, "velocity": 86, "channel": 0}, {"type": "note_off", "time": 44, "note": 68, "velocity": 97, "channel": 0}, {"type": "note_on", "time": 11, "note": 70, "velocity": 98, "channel": 0}, {"type": "note_off", "time": 52, "note": 70, "velocity": 98, "channel": 0}, {"type": "note_on", "time": 7, "note": 68, "velocity": 102, "channel": 0}, {"type": "note_off", "time": 59, "note": 68, "velocity": 102, "channel": 0}, {"type": "note_on", "time": 14, "note": 67, "velocity": 102, "channel": 0}, {"type": "note_off", "time": 97, "note": 67, "velocity": 102, "channel": 0}, {"type": "note_on", "time": 0, "note": 65, "velocity": 110, "channel": 0}, {"type": "note_off", "time": 100, "note": 65, "velocity": 110, "channel": 0}, {"type": "note_on", "time": 7, "note": 62, "velocity": 90, "channel": 0}, {"type": "note_off", "time": 74, "note": 62, "velocity": 90, "channel": 0}, {"type": "note_on", "time": 3, "note": 63, "velocity": 81, "channel": 0}, {"type": "note_off", "time": 70, "note": 63, "velocity": 81, "channel": 0}, {"type": "note_on", "time": 33, "note": 65, "velocity": 105, "channel": 0}, {"type": "note_off", "time": 74, "note": 65, "velocity": 105, "channel": 0}, {"type": "note_on", "time": 22, "note": 68, "velocity": 98, "channel": 0}, {"type": "note_off", "time": 89, "note": 68, "velocity": 98, "channel": 0}, {"type": "note_on", "time": 14, "note": 72, "velocity": 108, "channel": 0}, {"type": "note_off", "time": 56, "note": 72, "velocity": 108, "channel": 0}, {"type": "note_on", "time": 0, "note": 73, "velocity": 103, "channel": 0}, {"type": "note_off", "time": 44, "note": 73, "velocity": 103, "channel": 0}, {"type": "note_on", "time": 0, "note": 72, "velocity": 105, "channel": 0}, {"type": "note_off", "time": 52, "note": 72, "velocity": 105, "channel": 0}, {"type": "note_on", "time": 14, "note": 70, "velocity": 93, "channel": 0}, {"type": "note_off", "time": 126, "note": 70, "velocity": 93, "channel": 0}, {"type": "note_on", "time": 85, "note": 70, "velocity": 112, "channel": 0}, {"type": "note_off", "time": 33, "note": 70, "velocity": 112, "channel": 0}, {"type": "note_on", "time": 11, "note": 71, "velocity": 102, "channel": 0}, {"type": "note_off", "time": 37, "note": 71, "velocity": 102, "channel": 0}, {"type": "note_on", "time": 11, "note": 70, "velocity": 91, "channel": 0}, {"type": "note_on", "time": 59, "note": 69, "velocity": 105, "channel": 0}, {"type": "note_off", "time": 0, "note": 70, "velocity": 91, "channel": 0}, {"type": "note_off", "time": 74, "note": 69, "velocity": 105, "channel": 0}, {"type": "note_on", "time": 171, "note": 78, "velocity": 107, "channel": 0}, {"type": "note_off", "time": 67, "note": 78, "velocity": 107, "channel": 0}, {"type": "note_on", "time": 37, "note": 77, "velocity": 119, "channel": 0}, {"type": "note_off", "time": 216, "note": 77, "velocity": 119, "channel": 0}, {"type": "note_on", "time": 41, "note": 75, "velocity": 95, "channel": 0}, {"type": "note_off", "time": 153, "note": 75, "velocity": 95, "channel": 0}, {"type": "note_on", "time": 18, "note": 72, "velocity": 74, "channel": 0}, {"type": "note_off", "time": 85, "note": 72, "velocity": 74, "channel": 0}, {"type": "note_on", "time": 18, "note": 73, "velocity": 93, "channel": 0}, {"type": "note_off", "time": 104, "note": 73, "velocity": 93, "channel": 0}, {"type": "note_on", "time": 48, "note": 73, "velocity": 108, "channel": 0}, {"type": "note_off", "time": 44, "note": 73, "velocity": 108, "channel": 0}, {"type": "note_on", "time": 11, "note": 72, "velocity": 106, "channel": 0}, {"type": "note_off", "time": 37, "note": 72, "velocity": 106, "channel": 0}, {"type": "note_on", "time": 0, "note": 70, "velocity": 109, "channel": 0}, {"type": "note_off", "time": 63, "note": 70, "velocity": 109, "channel": 0}, {"type": "note_on", "time": 22, "note": 69, "velocity": 112, "channel": 0}, {"type": "note_off", "time": 100, "note": 69, "velocity": 112, "channel": 0}, {"type": "note_on", "time": 7, "note": 66, "velocity": 104, "channel": 0}, {"type": "note_off", "time": 115, "note": 66, "velocity": 104, "channel": 0}, {"type": "note_on", "time": 82, "note": 65, "velocity": 110, "channel": 0}, {"type": "note_off", "time": 119, "note": 65, "velocity": 110, "channel": 0}, {"type": "note_on", "time": 52, "note": 63, "velocity": 105, "channel": 0}, {"type": "note_off", "time": 123, "note": 63, "velocity": 105, "channel": 0}, {"type": "note_on", "time": 14, "note": 64, "velocity": 84, "channel": 0}, {"type": "note_off", "time": 41, "note": 64, "velocity": 84, "channel": 0}, {"type": "note_on", "time": 7, "note": 67, "velocity": 72, "channel": 0}, {"type": "note_off", "time": 33, "note": 67, "velocity": 72, "channel": 0}, {"type": "note_on", "time": 18, "note": 68, "velocity": 84, "channel": 0}, {"type": "note_off", "time": 56, "note": 68, "velocity": 84, "channel": 0}, {"type": "note_on", "time": 11, "note": 72, "velocity": 111, "channel": 0}, {"type": "note_off", "time": 108, "note": 72, "velocity": 111, "channel": 0}, {"type": "note_on", "time": 7, "note": 70, "velocity": 101, "channel": 0}, {"type": "note_off", "time": 164, "note": 70, "velocity": 101, "channel": 0}, {"type": "note_on", "time": 963, "note": 75, "velocity": 117, "channel": 0}, {"type": "note_off", "time": 145, "note": 75, "velocity": 117, "channel": 0}, {"type": "note_on", "time": 56, "note": 77, "velocity": 121, "channel": 0}, {"type": "note_off", "time": 149, "note": 77, "velocity": 121, "channel": 0}, {"type": "note_on", "time": 70, "note": 80, "velocity": 114, "channel": 0}, {"type": "note_off", "time": 138, "note": 80, "velocity": 114, "channel": 0}, {"type": "note_on", "time": 33, "note": 84, "velocity": 122, "channel": 0}, {"type": "note_off", "time": 156, "note": 84, "velocity": 122, "channel": 0}, {"type": "note_on", "time": 3, "note": 82, "velocity": 96, "channel": 0}, {"type": "note_off", "time": 115, "note": 82, "velocity": 96, "channel": 0}, {"type": "note_on", "time": 11, "note": 80, "velocity": 111, "channel": 0}, {"type": "note_off", "time": 104, "note": 80, "velocity": 111, "channel": 0}, {"type": "note_on", "time": 11, "note": 79, "velocity": 112, "channel": 0}, {"type": "note_off", "time": 89, "note": 79, "velocity": 112, "channel": 0}, {"type": "note_on", "time": 7, "note": 77, "velocity": 125, "channel": 0}, {"type": "note_off", "time": 63, "note": 77, "velocity": 125, "channel": 0}, {"type": "note_on", "time": 14, "note": 76, "velocity": 99, "channel": 0}, {"type": "note_off", "time": 48, "note": 76, "velocity": 99, "channel": 0}, {"type": "note_on", "time": 3, "note": 77, "velocity": 112, "channel": 0}, {"type": "note_off", "time": 18, "note": 77, "velocity": 112, "channel": 0}, {"type": "note_on", "time": 3, "note": 76, "velocity": 106, "channel": 0}, {"type": "note_off", "time": 56, "note": 76, "velocity": 106, "channel": 0}, {"type": "note_on", "time": 7, "note": 74, "velocity": 118, "channel": 0}, {"type": "note_off", "time": 63, "note": 74, "velocity": 118, "channel": 0}, {"type": "note_on", "time": 14, "note": 75, "velocity": 111, "channel": 0}, {"type": "note_off", "time": 70, "note": 75, "velocity": 111, "channel": 0}, {"type": "note_on", "time": 18, "note": 73, "velocity": 104, "channel": 0}, {"type": "note_off", "time": 97, "note": 73, "velocity": 104, "channel": 0}, {"type": "note_on", "time": 7, "note": 72, "velocity": 109, "channel": 0}, {"type": "note_off", "time": 82, "note": 72, "velocity": 109, "channel": 0}, {"type": "note_on", "time": 0, "note": 70, "velocity": 96, "channel": 0}, {"type": "note_off", "time": 78, "note": 70, "velocity": 96, "channel": 0}, {"type": "note_on", "time": 0, "note": 68, "velocity": 96, "channel": 0}, {"type": "note_off", "time": 29, "note": 68, "velocity": 96, "channel": 0}, {"type": "note_on", "time": 3, "note": 69, "velocity": 102, "channel": 0}, {"type": "note_off", "time": 48, "note": 69, "velocity": 102, "channel": 0}, {"type": "note_on", "time": 0, "note": 68, "velocity": 109, "channel": 0}, {"type": "note_off", "time": 56, "note": 68, "velocity": 109, "channel": 0}, {"type": "note_on", "time": 11, "note": 65, "velocity": 100, "channel": 0}, {"type": "note_off", "time": 59, "note": 65, "velocity": 100, "channel": 0}, {"type": "note_on", "time": 22, "note": 66, "velocity": 106, "channel": 0}, {"type": "note_off", "time": 78, "note": 66, "velocity": 106, "channel": 0}, {"type": "note_on", "time": 11, "note": 68, "velocity": 90, "channel": 0}, {"type": "note_off", "time": 63, "note": 68, "velocity": 90, "channel": 0}, {"type": "note_on", "time": 29, "note": 70, "velocity": 91, "channel": 0}, {"type": "note_off", "time": 89, "note": 70, "velocity": 91, "channel": 0}, {"type": "note_on", "time": 0, "note": 73, "velocity": 86, "channel": 0}, {"type": "note_off", "time": 82, "note": 73, "velocity": 86, "channel": 0}, {"type": "note_on", "time": 33, "note": 77, "velocity": 121, "channel": 0}, {"type": "note_off", "time": 104, "note": 77, "velocity": 121, "channel": 0}, {"type": "note_on", "time": 3, "note": 76, "velocity": 100, "channel": 0}, {"type": "note_off", "time": 89, "note": 76, "velocity": 100, "channel": 0}, {"type": "note_on", "time": 3, "note": 75, "velocity": 106, "channel": 0}, {"type": "note_off", "time": 82, "note": 75, "velocity": 106, "channel": 0}, {"type": "note_on", "time": 0, "note": 73, "velocity": 108, "channel": 0}, {"type": "note_off", "time": 82, "note": 73, "velocity": 108, "channel": 0}, {"type": "note_on", "time": 7, "note": 72, "velocity": 92, "channel": 0}, {"type": "note_off", "time": 63, "note": 72, "velocity": 92, "channel": 0}, {"type": "note_on", "time": 11, "note": 70, "velocity": 109, "channel": 0}, {"type": "note_off", "time": 93, "note": 70, "velocity": 109, "channel": 0}, {"type": "note_on", "time": 11, "note": 69, "velocity": 101, "channel": 0}, {"type": "note_off", "time": 37, "note": 69, "velocity": 101, "channel": 0}, {"type": "note_on", "time": 7, "note": 70, "velocity": 101, "channel": 0}, {"type": "note_off", "time": 41, "note": 70, "velocity": 101, "channel": 0}, {"type": "note_on", "time": 5, "note": 69, "velocity": 103, "channel": 0}, {"type": "note_off", "time": 44, "note": 69, "velocity": 103, "channel": 0}, {"type": "note_on", "time": 1, "note": 67, "velocity": 101, "channel": 0}, {"type": "note_off", "time": 70, "note": 67, "velocity": 101, "channel": 0}, {"type": "note_on", "time": 0, "note": 68, "velocity": 104, "channel": 0}, {"type": "note_off", "time": 130, "note": 68, "velocity": 104, "channel": 0}, {"type": "note_on", "time": 115, "note": 66, "velocity": 91, "channel": 0}, {"type": "note_off", "time": 78, "note": 66, "velocity": 91, "channel": 0}, {"type": "note_on", "time": 33, "note": 65, "velocity": 104, "channel": 0}, {"type": "note_off", "time": 85, "note": 65, "velocity": 104, "channel": 0}, {"type": "note_on", "time": 0, "note": 61, "velocity": 93, "channel": 0}, {"type": "note_off", "time": 89, "note": 61, "velocity": 93, "channel": 0}, {"type": "note_on", "time": 0, "note": 58, "velocity": 90, "channel": 0}, {"type": "note_off", "time": 78, "note": 58, "velocity": 90, "channel": 0}, {"type": "note_on", "time": 11, "note": 57, "velocity": 109, "channel": 0}, {"type": "note_off", "time": 78, "note": 57, "velocity": 109, "channel": 0}, {"type": "note_on", "time": 22, "note": 63, "velocity": 99, "channel": 0}, {"type": "note_off", "time": 93, "note": 63, "velocity": 99, "channel": 0}, {"type": "note_on", "time": 227, "note": 63, "velocity": 106, "channel": 0}, {"type": "note_off", "time": 93, "note": 63, "velocity": 106, "channel": 0}, {"type": "note_on", "time": 0, "note": 64, "velocity": 106, "channel": 0}, {"type": "note_off", "time": 82, "note": 64, "velocity": 106, "channel": 0}, {"type": "note_on", "time": 0, "note": 65, "velocity": 104, "channel": 0}, {"type": "note_off", "time": 67, "note": 65, "velocity": 104, "channel": 0}, {"type": "note_on", "time": 22, "note": 68, "velocity": 111, "channel": 0}, {"type": "note_off", "time": 89, "note": 68, "velocity": 111, "channel": 0}, {"type": "note_on", "time": 3, "note": 65, "velocity": 89, "channel": 0}, {"type": "note_off", "time": 70, "note": 65, "velocity": 89, "channel": 0}, {"type": "note_on", "time": 7, "note": 66, "velocity": 109, "channel": 0}, {"type": "note_off", "time": 70, "note": 66, "velocity": 109, "channel": 0}, {"type": "note_on", "time": 7, "note": 68, "velocity": 103, "channel": 0}, {"type": "note_off", "time": 85, "note": 68, "velocity": 103, "channel": 0}, {"type": "note_on", "time": 11, "note": 70, "velocity": 89, "channel": 0}, {"type": "note_off", "time": 100, "note": 70, "velocity": 89, "channel": 0}, {"type": "note_on", "time": 14, "note": 73, "velocity": 94, "channel": 0}, {"type": "note_off", "time": 108, "note": 73, "velocity": 94, "channel": 0}, {"type": "note_on", "time": 7, "note": 75, "velocity": 116, "channel": 0}, {"type": "note_off", "time": 93, "note": 75, "velocity": 116, "channel": 0}, {"type": "note_on", "time": 74, "note": 78, "velocity": 109, "channel": 0}, {"type": "note_off", "time": 112, "note": 78, "velocity": 109, "channel": 0}, {"type": "note_on", "time": 0, "note": 76, "velocity": 67, "channel": 0}, {"type": "note_off", "time": 52, "note": 76, "velocity": 67, "channel": 0}, {"type": "note_on", "time": 14, "note": 77, "velocity": 116, "channel": 0}, {"type": "note_off", "time": 78, "note": 77, "velocity": 116, "channel": 0}, {"type": "note_on", "time": 59, "note": 72, "velocity": 98, "channel": 0}, {"type": "note_off", "time": 89, "note": 72, "velocity": 98, "channel": 0}, {"type": "note_on", "time": 0, "note": 69, "velocity": 105, "channel": 0}, {"type": "note_off", "time": 100, "note": 69, "velocity": 105, "channel": 0}, {"type": "note_on", "time": 33, "note": 73, "velocity": 116, "channel": 0}, {"type": "note_off", "time": 41, "note": 73, "velocity": 116, "channel": 0}, {"type": "note_on", "time": 29, "note": 74, "velocity": 104, "channel": 0}, {"type": "note_off", "time": 153, "note": 74, "velocity": 104, "channel": 0}, {"type": "note_on", "time": 7, "note": 72, "velocity": 108, "channel": 0}, {"type": "note_off", "time": 104, "note": 72, "velocity": 108, "channel": 0}, {"type": "note_on", "time": 11, "note": 74, "velocity": 107, "channel": 0}, {"type": "note_off", "time": 93, "note": 74, "velocity": 107, "channel": 0}, {"type": "note_on", "time": 0, "note": 71, "velocity": 104, "channel": 0}, {"type": "note_off", "time": 67, "note": 71, "velocity": 104, "channel": 0}, {"type": "note_on", "time": 18, "note": 73, "velocity": 102, "channel": 0}, {"type": "note_off", "time": 70, "note": 73, "velocity": 102, "channel": 0}, {"type": "note_on", "time": 18, "note": 71, "velocity": 103, "channel": 0}, {"type": "note_off", "time": 85, "note": 71, "velocity": 103, "channel": 0}, {"type": "note_on", "time": 3, "note": 73, "velocity": 107, "channel": 0}, {"type": "note_off", "time": 85, "note": 73, "velocity": 107, "channel": 0}, {"type": "note_on", "time": 44, "note": 78, "velocity": 116, "channel": 0}, {"type": "note_off", "time": 100, "note": 78, "velocity": 116, "channel": 0}, {"type": "note_on", "time": 11, "note": 76, "velocity": 94, "channel": 0}, {"type": "note_off", "time": 130, "note": 76, "velocity": 94, "channel": 0}, {"type": "note_on", "time": 41, "note": 75, "velocity": 111, "channel": 0}, {"type": "note_off", "time": 97, "note": 75, "velocity": 111, "channel": 0}, {"type": "note_on", "time": 70, "note": 72, "velocity": 96, "channel": 0}, {"type": "note_off", "time": 100, "note": 72, "velocity": 96, "channel": 0}, {"type": "note_on", "time": 518, "note": 72, "velocity": 101, "channel": 0}, {"type": "note_off", "time": 85, "note": 72, "velocity": 101, "channel": 0}, {"type": "note_on", "time": 33, "note": 74, "velocity": 117, "channel": 0}, {"type": "note_off", "time": 160, "note": 74, "velocity": 117, "channel": 0}, {"type": "note_on", "time": 14, "note": 77, "velocity": 127, "channel": 0}, {"type": "note_off", "time": 97, "note": 77, "velocity": 127, "channel": 0}, {"type": "note_on", "time": 11, "note": 72, "velocity": 103, "channel": 0}, {"type": "note_off", "time": 100, "note": 72, "velocity": 103, "channel": 0}, {"type": "note_on", "time": 0, "note": 74, "velocity": 101, "channel": 0}, {"type": "note_off", "time": 70, "note": 74, "velocity": 101, "channel": 0}, {"type": "note_on", "time": 26, "note": 70, "velocity": 92, "channel": 0}, {"type": "note_off", "time": 97, "note": 70, "velocity": 92, "channel": 0}, {"type": "note_on", "time": 93, "note": 69, "velocity": 109, "channel": 0}, {"type": "note_off", "time": 115, "note": 69, "velocity": 109, "channel": 0}, {"type": "note_on", "time": 52, "note": 71, "velocity": 106, "channel": 0}, {"type": "note_off", "time": 108, "note": 71, "velocity": 106, "channel": 0}, {"type": "note_on", "time": 7, "note": 66, "velocity": 98, "channel": 0}, {"type": "note_off", "time": 93, "note": 66, "velocity": 98, "channel": 0}, {"type": "note_on", "time": 0, "note": 64, "velocity": 92, "channel": 0}, {"type": "note_off", "time": 220, "note": 64, "velocity": 92, "channel": 0}, {"type": "note_on", "time": 571, "note": 75, "velocity": 115, "channel": 0}, {"type": "note_off", "time": 115, "note": 75, "velocity": 115, "channel": 0}, {"type": "note_on", "time": 52, "note": 80, "velocity": 116, "channel": 0}, {"type": "note_off", "time": 115, "note": 80, "velocity": 116, "channel": 0}, {"type": "note_on", "time": 56, "note": 84, "velocity": 110, "channel": 0}, {"type": "note_off", "time": 119, "note": 84, "velocity": 110, "channel": 0}, {"type": "note_on", "time": 11, "note": 82, "velocity": 123, "channel": 0}, {"type": "note_off", "time": 112, "note": 82, "velocity": 123, "channel": 0}, {"type": "note_on", "time": 0, "note": 81, "velocity": 114, "channel": 0}, {"type": "note_off", "time": 123, "note": 81, "velocity": 114, "channel": 0}, {"type": "note_on", "time": 63, "note": 75, "velocity": 108, "channel": 0}, {"type": "note_off", "time": 97, "note": 75, "velocity": 108, "channel": 0}, {"type": "note_on", "time": 11, "note": 78, "velocity": 113, "channel": 0}, {"type": "note_off", "time": 104, "note": 78, "velocity": 113, "channel": 0}, {"type": "note_on", "time": 0, "note": 77, "velocity": 110, "channel": 0}, {"type": "note_off", "time": 97, "note": 77, "velocity": 110, "channel": 0}, {"type": "note_on", "time": 0, "note": 75, "velocity": 109, "channel": 0}, {"type": "note_off", "time": 78, "note": 75, "velocity": 109, "channel": 0}, {"type": "note_on", "time": 14, "note": 74, "velocity": 108, "channel": 0}, {"type": "note_off", "time": 97, "note": 74, "velocity": 108, "channel": 0}, {"type": "note_on", "time": 0, "note": 73, "velocity": 102, "channel": 0}, {"type": "note_on", "time": 93, "note": 74, "velocity": 93, "channel": 0}, {"type": "note_off", "time": 0, "note": 73, "velocity": 102, "channel": 0}, {"type": "note_off", "time": 52, "note": 74, "velocity": 93, "channel": 0}, {"type": "note_on", "time": 0, "note": 72, "velocity": 104, "channel": 0}, {"type": "note_off", "time": 48, "note": 72, "velocity": 104, "channel": 0}, {"type": "note_on", "time": 18, "note": 71, "velocity": 103, "channel": 0}, {"type": "note_off", "time": 37, "note": 71, "velocity": 103, "channel": 0}, {"type": "note_on", "time": 18, "note": 70, "velocity": 104, "channel": 0}, {"type": "note_off", "time": 85, "note": 70, "velocity": 104, "channel": 0}, {"type": "note_on", "time": 11, "note": 69, "velocity": 99, "channel": 0}, {"type": "note_off", "time": 78, "note": 69, "velocity": 99, "channel": 0}, {"type": "note_on", "time": 14, "note": 68, "velocity": 101, "channel": 0}, {"type": "note_off", "time": 104, "note": 68, "velocity": 101, "channel": 0}, {"type": "note_on", "time": 0, "note": 70, "velocity": 101, "channel": 0}, {"type": "note_off", "time": 93, "note": 70, "velocity": 101, "channel": 0}, {"type": "note_on", "time": 3, "note": 69, "velocity": 96, "channel": 0}, {"type": "note_off", "time": 33, "note": 69, "velocity": 96, "channel": 0}, {"type": "note_on", "time": 14, "note": 70, "velocity": 100, "channel": 0}, {"type": "note_off", "time": 33, "note": 70, "velocity": 100, "channel": 0}, {"type": "note_on", "time": 3, "note": 69, "velocity": 98, "channel": 0}, {"type": "note_on", "time": 33, "note": 67, "velocity": 97, "channel": 0}, {"type": "note_off", "time": 0, "note": 69, "velocity": 98, "channel": 0}, {"type": "note_off", "time": 82, "note": 67, "velocity": 97, "channel": 0}, {"type": "note_on", "time": 14, "note": 66, "velocity": 95, "channel": 0}, {"type": "note_off", "time": 123, "note": 66, "velocity": 95, "channel": 0}, {"type": "note_on", "time": 354, "note": 72, "velocity": 118, "channel": 0}, {"type": "note_off", "time": 130, "note": 72, "velocity": 118, "channel": 0}, {"type": "note_on", "time": 11, "note": 73, "velocity": 104, "channel": 0}, {"type": "note_off", "time": 41, "note": 73, "velocity": 104, "channel": 0}, {"type": "note_on", "time": 14, "note": 74, "velocity": 109, "channel": 0}, {"type": "note_off", "time": 41, "note": 74, "velocity": 109, "channel": 0}, {"type": "note_on", "time": 14, "note": 75, "velocity": 123, "channel": 0}, {"type": "note_off", "time": 126, "note": 75, "velocity": 123, "channel": 0}, {"type": "note_on", "time": 29, "note": 73, "velocity": 100, "channel": 0}, {"type": "note_off", "time": 104, "note": 73, "velocity": 100, "channel": 0}, {"type": "note_on", "time": 11, "note": 74, "velocity": 98, "channel": 0}, {"type": "note_off", "time": 41, "note": 74, "velocity": 98, "channel": 0}, {"type": "note_on", "time": 11, "note": 75, "velocity": 113, "channel": 0}, {"type": "note_off", "time": 37, "note": 75, "velocity": 113, "channel": 0}, {"type": "note_on", "time": 18, "note": 76, "velocity": 113, "channel": 0}, {"type": "note_off", "time": 130, "note": 76, "velocity": 113, "channel": 0}, {"type": "note_on", "time": 22, "note": 74, "velocity": 111, "channel": 0}, {"type": "note_off", "time": 104, "note": 74, "velocity": 111, "channel": 0}, {"type": "note_on", "time": 26, "note": 75, "velocity": 108, "channel": 0}, {"type": "note_off", "time": 48, "note": 75, "velocity": 108, "channel": 0}, {"type": "note_on", "time": 11, "note": 76, "velocity": 109, "channel": 0}, {"type": "note_off", "time": 26, "note": 76, "velocity": 109, "channel": 0}, {"type": "note_on", "time": 11, "note": 77, "velocity": 122, "channel": 0}, {"type": "note_off", "time": 138, "note": 77, "velocity": 122, "channel": 0}, {"type": "note_on", "time": 29, "note": 75, "velocity": 107, "channel": 0}, {"type": "note_off", "time": 89, "note": 75, "velocity": 107, "channel": 0}, {"type": "note_on", "time": 22, "note": 76, "velocity": 106, "channel": 0}, {"type": "note_off", "time": 41, "note": 76, "velocity": 106, "channel": 0}, {"type": "note_on", "time": 3, "note": 77, "velocity": 115, "channel": 0}, {"type": "note_off", "time": 41, "note": 77, "velocity": 115, "channel": 0}, {"type": "note_on", "time": 22, "note": 78, "velocity": 120, "channel": 0}, {"type": "note_off", "time": 126, "note": 78, "velocity": 120, "channel": 0}, {"type": "end_of_track", "time": 0}]]}