{"ticks_per_beat": 192, "tracks": [[{"type": "track_name", "name": "Melody", "time": 0}, {"type": "set_tempo", "tempo": 408163, "time": 0}, {"type": "key_signature", "key": "Bb", "time": 0}, {"type": "time_signature", "numerator": 4, "denominator": 4, "clocks_per_click": 24, "notated_32nd_notes_per_beat": 8, "time": 0}, {"type": "note_on", "time": 2246, "note": 79, "velocity": 117, "channel": 0}, {"type": "note_off", "time": 101, "note": 79, "velocity": 117, "channel": 0}, {"type": "note_on", "time": 42, "note": 79, "velocity": 115, "channel": 0}, {"type": "note_off", "time": 71, "note": 79, "velocity": 115, "channel": 0}, {"type": "note_on", "time": 63, "note": 74, "velocity": 121, "channel": 0}, {"type": "note_off", "time": 96, "note": 74, "velocity": 121, "channel": 0}, {"type": "note_on", "time": 17, "note": 77, "velocity": 111, "channel": 0}, {"type": "note_off", "time": 192, "note": 77, "velocity": 111, "channel": 0}, {"type": "note_on", "time": 303, "note": 75, "velocity": 121, "channel": 0}, {"type": "note_off", "time": 66, "note": 75, "velocity": 121, "channel": 0}, {"type": "note_on", "time": 72, "note": 77, "velocity": 120, "channel": 0}, {"type": "note_off", "time": 87, "note": 77, "velocity": 120, "channel": 0}, {"type": "note_on", "time": 13, "note": 75, "velocity": 120, "channel": 0}, {"type": "note_off", "time": 91, "note": 75, "velocity": 120, "channel": 0}, {"type": "note_on", "time": 17, "note": 74, "velocity": 116, "channel": 0}, {"type": "note_off", "time": 76, "note": 74, "velocity": 116, "channel": 0}, {"type": "note_on", "time": 15, "note": 72, "velocity": 115, "channel": 0}, {"type": "note_off", "time": 111, "note": 72, "velocity": 115, "channel": 0}, {"type": "note_on", "time": 42, "note": 73, "velocity": 109, "channel": 0}, {"type": "note_off", "time": 35, "note": 73, "velocity": 109, "channel": 0}, {"type": "note_on", "time": 9, "note": 74, "velocity": 118, "channel": 0}, {"type": "note_off", "time": 83, "note": 74, "velocity": 118, "channel": 0}, {"type": "note_on", "time": 43, "note": 74, "velocity": 119, "channel": 0}, {"type": "note_off", "time": 81, "note": 74, "velocity": 119, "channel": 0}, {"type": "note_on", "time": 83, "note": 69, "velocity": 119, "channel": 0}, {"type": "note_off", "time": 60, "note": 69, "velocity": 119, "channel": 0}, {"type": "note_on", "time": 34, "note": 72, "velocity": 92, "channel": 0}, {"type": "note_off", "time": 24, "note": 72, "velocity": 92, "channel": 0}, {"type": "note_on", "time": 5, "note": 74, "velocity": 118, "channel": 0}, {"type": "note_off", "time": 19, "note": 74, "velocity": 118, "channel": 0}, {"type": "note_on", "time": 7, "note": 72, "velocity": 111, "channel": 0}, {"type": "note_off", "time": 50, "note": 72, "velocity": 111, "channel": 0}, {"type": "note_on", "time": 6, "note": 70, "velocity": 116, "channel": 0}, {"type": "note_off", "time": 76, "note": 70, "velocity": 116, "channel": 0}, {"type": "note_on", "time": 13, "note": 69, "velocity": 111, "channel": 0}, {"type": "note_off", "time": 24, "note": 69, "velocity": 111, "channel": 0}, {"type": "note_on", "time": 2, "note": 70, "velocity": 113, "channel": 0}, {"type": "note_off", "time": 27, "note": 70, "velocity": 113, "channel": 0}, {"type": "note_on", "time": 4, "note": 69, "velocity": 111, "channel": 0}, {"type": "note_off", "time": 21, "note": 69, "velocity": 111, "channel": 0}, {"type": "note_on", "time": 17, "note": 67, "velocity": 113, "channel": 0}, {"type": "note_off", "time": 72, "note": 67, "velocity": 113, "channel": 0}, {"type": "note_on", "time": 14, "note": 65, "velocity": 113, "channel": 0}, {"type": "note_off", "time": 82, "note": 65, "velocity": 113, "channel": 0}, {"type": "note_on", "time": 24, "note": 62, "velocity": 89, "channel": 0}, {"type": "note_off", "time": 49, "note": 62, "velocity": 89, "channel": 0}, {"type": "note_on", "time": 7, "note": 63, "velocity": 92, "channel": 0}, {"type": "note_off", "time": 38, "note": 63, "velocity": 92, "channel": 0}, {"type": "note_on", "time": 24, "note": 67, "velocity": 91, "channel": 0}, {"type": "note_off", "time": 30, "note": 67, "velocity": 91, "channel": 0}, {"type": "note_on", "time": 13, "note": 70, "velocity": 120, "channel": 0}, {"type": "note_off", "time": 71, "note": 70, "velocity": 120, "channel": 0}, {"type": "note_on", "time": 18, "note": 74, "velocity": 119, "channel": 0}, {"type": "note_off", "time": 84, "note": 74, "velocity": 119, "channel": 0}, {"type": "note_on", "time": 14, "note": 77, "velocity": 115, "channel": 0}, {"type": "note_off", "time": 68, "note": 77, "velocity": 115, "channel": 0}, {"type": "note_on", "time": 10, "note": 75, "velocity": 109, "channel": 0}, {"type": "note_off", "time": 101, "note": 75, "velocity": 109, "channel": 0}, {"type": "note_on", "time": 17, "note": 72, "velocity": 84, "channel": 0}, {"type": "note_off", "time": 29, "note": 72, "velocity": 84, "channel": 0}, {"type": "note_on", "time": 36, "note": 74, "velocity": 117, "channel": 0}, {"type": "note_off", "time": 97, "note": 74, "velocity": 117, "channel": 0}, {"type": "note_on", "time": 16, "note": 70, "velocity": 112, "channel": 0}, {"type": "note_off", "time": 71, "note": 70, "velocity": 112, "channel": 0}, {"type": "note_on", "time": 6, "note": 69, "velocity": 97, "channel": 0}, {"type": "note_off", "time": 20, "note": 69, "velocity": 97, "channel": 0}, {"type": "note_on", "time": 5, "note": 70, "velocity": 105, "channel": 0}, {"type": "note_off", "time": 25, "note": 70, "velocity": 105, "channel": 0}, {"type": "note_on", "time": 4, "note": 69, "velocity": 102, "channel": 0}, {"type": "note_off", "time": 28, "note": 69, "velocity": 102, "channel": 0}, {"type": "note_on", "time": 16, "note": 67, "velocity": 110, "channel": 0}, {"type": "note_off", "time": 72, "note": 67, "velocity": 110, "channel": 0}, {"type": "note_on", "time": 10, "note": 68, "velocity": 109, "channel": 0}, {"type": "note_off", "time": 111, "note": 68, "velocity": 109, "channel": 0}, {"type": "note_on", "time": 29, "note": 79, "velocity": 102, "channel": 0}, {"type": "note_off", "time": 158, "note": 79, "velocity": 102, "channel": 0}, {"type": "note_on", "time": 352, "note": 77, "velocity": 116, "channel": 0}, {"type": "note_off", "time": 45, "note": 77, "velocity": 116, "channel": 0}, {"type": "note_on", "time": 7, "note": 76, "velocity": 115, "channel": 0}, {"type": "note_off", "time": 41, "note": 76, "velocity": 115, "channel": 0}, {"type": "note_on", "time": 9, "note": 75, "velocity": 87, "channel": 0}, {"type": "note_off", "time": 17, "note": 75, "velocity": 87, "channel": 0}, {"type": "note_on", "time": 8, "note": 74, "velocity": 105, "channel": 0}, {"type": "note_off", "time": 49, "note": 74, "velocity": 105, "channel": 0}, {"type": "note_on", "time": 3, "note": 72, "velocity": 90, "channel": 0}, {"type": "note_off", "time": 23, "note": 72, "velocity": 90, "channel": 0}, {"type": "note_on", "time": 4, "note": 68, "velocity": 89, "channel": 0}, {"type": "note_off", "time": 20, "note": 68, "velocity": 89, "channel": 0}, {"type": "note_on", "time": 1, "note": 70, "velocity": 90, "channel": 0}, {"type": "note_off", "time": 25, "note": 70, "velocity": 90, "channel": 0}, {"type": "note_on", "time": 12, "note": 74, "velocity": 108, "channel": 0}, {"type": "note_off", "time": 45, "note": 74, "velocity": 108, "channel": 0}, {"type": "note_on", "time": 2, "note": 73, "velocity": 101, "channel": 0}, {"type": "note_off", "time": 38, "note": 73, "velocity": 101, "channel": 0}, {"type": "note_on", "time": 3, "note": 72, "velocity": 103, "channel": 0}, {"type": "note_off", "time": 41, "note": 72, "velocity": 103, "channel": 0}, {"type": "note_on", "time": 3, "note": 70, "velocity": 116, "channel": 0}, {"type": "note_off", "time": 37, "note": 70, "velocity": 116, "channel": 0}, {"type": "note_on", "time": 3, "note": 69, "velocity": 110, "channel": 0}, {"type": "note_off", "time": 28, "note": 69, "velocity": 110, "channel": 0}, {"type": "note_on", "time": 5, "note": 70, "velocity": 97, "channel": 0}, {"type": "note_off", "time": 35, "note": 70, "velocity": 97, "channel": 0}, {"type": "note_on", "time": 3, "note": 71, "velocity": 88, "channel": 0}, {"type": "note_off", "time": 20, "note": 71, "velocity": 88, "channel": 0}, {"type": "note_on", "time": 3, "note": 72, "velocity": 103, "channel": 0}, {"type": "note_off", "time": 54, "note": 72, "velocity": 103, "channel": 0}, {"type": "note_on", "time": 8, "note": 69, "velocity": 95, "channel": 0}, {"type": "note_off", "time": 40, "note": 69, "velocity": 95, "channel": 0}, {"type": "note_on", "time": 4, "note": 70, "velocity": 115, "channel": 0}, {"type": "note_off", "time": 41, "note": 70, "velocity": 115, "channel": 0}, {"type": "note_on", "time": 8, "note": 68, "velocity": 114, "channel": 0}, {"type": "note_off", "time": 42, "note": 68, "velocity": 114, "channel": 0}, {"type": "note_on", "time": 3, "note": 67, "velocity": 103, "channel": 0}, {"type": "note_off", "time": 35, "note": 67, "velocity": 103, "channel": 0}, {"type": "note_on", "time": 9, "note": 65, "velocity": 89, "channel": 0}, {"type": "note_off", "time": 47, "note": 65, "velocity": 89, "channel": 0}, {"type": "note_on", "time": 4, "note": 69, "velocity": 106, "channel": 0}, {"type": "note_on", "time": 24, "note": 70, "velocity": 110, "channel": 0}, {"type": "note_off", "time": 0, "note": 69, "velocity": 106, "channel": 0}, {"type": "note_off", "time": 22, "note": 70, "velocity": 110, "channel": 0}, {"type": "note_on", "time": 2, "note": 69, "velocity": 107, "channel": 0}, {"type": "note_off", "time": 25, "note": 69, "velocity": 107, "channel": 0}, {"type": "note_on", "time": 7, "note": 67, "velocity": 105, "channel": 0}, {"type": "note_off", "time": 47, "note": 67, "velocity": 105, "channel": 0}, {"type": "note_on", "time": 2, "note": 65, "velocity": 107, "channel": 0}, {"type": "note_off", "time": 36, "note": 65, "velocity": 107, "channel": 0}, {"type": "note_on", "time": 5, "note": 63, "velocity": 95, "channel": 0}, {"type": "note_off", "time": 43, "note": 63, "velocity": 95, "channel": 0}, {"type": "note_on", "time": 8, "note": 62, "velocity": 93, "channel": 0}, {"type": "note_off", "time": 44, "note": 62, "velocity": 93, "channel": 0}, {"type": "note_on", "time": 11, "note": 65, "velocity": 93, "channel": 0}, {"type": "note_off", "time": 31, "note": 65, "velocity": 93, "channel": 0}, {"type": "note_on", "time": 16, "note": 69, "velocity": 88, "channel": 0}, {"type": "note_off", "time": 36, "note": 69, "velocity": 88, "channel": 0}, {"type": "note_on", "time": 9, "note": 72, "velocity": 109, "channel": 0}, {"type": "note_off", "time": 45, "note": 72, "velocity": 109, "channel": 0}, {"type": "note_on", "time": 8, "note": 69, "velocity": 97, "channel": 0}, {"type": "note_off", "time": 45, "note": 69, "velocity": 97, "channel": 0}, {"type": "note_on", "time": 46, "note": 72, "velocity": 116, "channel": 0}, {"type": "note_off", "time": 42, "note": 72, "velocity": 116, "channel": 0}, {"type": "note_on", "time": 8, "note": 73, "velocity": 107, "channel": 0}, {"type": "note_off", "time": 37, "note": 73, "velocity": 107, "channel": 0}, {"type": "note_on", "time": 9, "note": 74, "velocity": 106, "channel": 0}, {"type": "note_off", "time": 43, "note": 74, "velocity": 106, "channel": 0}, {"type": "note_on", "time": 11, "note": 79, "velocity": 114, "channel": 0}, {"type": "note_off", "time": 33, "note": 79, "velocity": 114, "channel": 0}, {"type": "note_on", "time": 6, "note": 75, "velocity": 101, "channel": 0}, {"type": "note_off", "time": 24, "note": 75, "velocity": 101, "channel": 0}, {"type": "note_on", "time": 5, "note": 73, "velocity": 101, "channel": 0}, {"type": "note_off", "time": 28, "note": 73, "velocity": 101, "channel": 0}, {"type": "note_on", "time": 4, "note": 77, "velocity": 108, "channel": 0}, {"type": "note_off", "time": 51, "note": 77, "velocity": 108, "channel": 0}, {"type": "note_on", "time": 12, "note": 74, "velocity": 75, "channel": 0}, {"type": "note_off", "time": 20, "note": 74, "velocity": 75, "channel": 0}, {"type": "note_on", "time": 72, "note": 75, "velocity": 115, "channel": 0}, {"type": "note_off", "time": 36, "note": 75, "velocity": 115, "channel": 0}, {"type": "note_on", "time": 19, "note": 75, "velocity": 96, "channel": 0}, {"type": "note_off", "time": 73, "note": 75, "velocity": 96, "channel": 0}, {"type": "note_on", "time": 14, "note": 72, "velocity": 102, "channel": 0}, {"type": "note_off", "time": 49, "note": 72, "velocity": 102, "channel": 0}, {"type": "note_on", "time": 28, "note": 65, "velocity": 106, "channel": 0}, {"type": "note_off", "time": 31, "note": 65, "velocity": 106, "channel": 0}, {"type": "note_on", "time": 5, "note": 70, "velocity": 108, "channel": 0}, {"type": "note_off", "time": 83, "note": 70, "velocity": 108, "channel": 0}, {"type": "note_on", "time": 684, "note": 77, "velocity": 119, "channel": 0}, {"type": "note_off", "time": 78, "note": 77, "velocity": 119, "channel": 0}, {"type": "note_on", "time": 106, "note": 79, "velocity": 119, "channel": 0}, {"type": "note_off", "time": 109, "note": 79, "velocity": 119, "channel": 0}, {"type": "note_on", "time": 39, "note": 82, "velocity": 119, "channel": 0}, {"type": "note_off", "time": 126, "note": 82, "velocity": 119, "channel": 0}, {"type": "note_on", "time": 26, "note": 86, "velocity": 123, "channel": 0}, {"type": "note_off", "time": 80, "note": 86, "velocity": 123, "channel": 0}, {"type": "note_on", "time": 16, "note": 81, "velocity": 111, "channel": 0}, {"type": "note_off", "time": 96, "note": 81, "velocity": 111, "channel": 0}, {"type": "note_on", "time": 9, "note": 84, "velocity": 119, "channel": 0}, {"type": "note_off", "time": 71, "note": 84, "velocity": 119, "channel": 0}, {"type": "note_on", "time": 9, "note": 82, "velocity": 118, "channel": 0}, {"type": "note_off", "time": 108, "note": 82, "velocity": 118, "channel": 0}, {"type": "note_on", "time": 0, "note": 65, "velocity": 90, "channel": 0}, {"type": "note_off", "time": 54, "note": 65, "velocity": 90, "channel": 0}, {"type": "note_on", "time": 21, "note": 77, "velocity": 120, "channel": 0}, {"type": "note_off", "time": 115, "note": 77, "velocity": 120, "channel": 0}, {"type": "note_on", "time": 20, "note": 81, "velocity": 117, "channel": 0}, {"type": "note_off", "time": 97, "note": 81, "velocity": 117, "channel": 0}, {"type": "note_on", "time": 9, "note": 86, "velocity": 123, "channel": 0}, {"type": "note_off", "time": 30, "note": 86, "velocity": 123, "channel": 0}, {"type": "note_on", "time": 4, "note": 89, "velocity": 104, "channel": 0}, {"type": "note_off", "time": 38, "note": 89, "velocity": 104, "channel": 0}, {"type": "note_on", "time": 23, "note": 79, "velocity": 117, "channel": 0}, {"type": "note_off", "time": 60, "note": 79, "velocity": 117, "channel": 0}, {"type": "note_on", "time": 1, "note": 77, "velocity": 119, "channel": 0}, {"type": "note_off", "time": 89, "note": 77, "velocity": 119, "channel": 0}, {"type": "note_on", "time": 8, "note": 76, "velocity": 120, "channel": 0}, {"type": "note_off", "time": 68, "note": 76, "velocity": 120, "channel": 0}, {"type": "note_on", "time": 13, "note": 75, "velocity": 121, "channel": 0}, {"type": "note_off", "time": 106, "note": 75, "velocity": 121, "channel": 0}, {"type": "note_on", "time": 88, "note": 70, "velocity": 119, "channel": 0}, {"type": "note_off", "time": 84, "note": 70, "velocity": 119, "channel": 0}, {"type": "note_on", "time": 26, "note": 73, "velocity": 116, "channel": 0}, {"type": "note_off", "time": 64, "note": 73, "velocity": 116, "channel": 0}, {"type": "note_on", "time": 8, "note": 74, "velocity": 110, "channel": 0}, {"type": "note_off", "time": 82, "note": 74, "velocity": 110, "channel": 0}, {"type": "note_on", "time": 13, "note": 70, "velocity": 111, "channel": 0}, {"type": "note_off", "time": 62, "note": 70, "velocity": 111, "channel": 0}, {"type": "note_on", "time": 24, "note": 67, "velocity": 107, "channel": 0}, {"type": "note_off", "time": 82, "note": 67, "velocity": 107, "channel": 0}, {"type": "note_on", "time": 12, "note": 65, "velocity": 92, "channel": 0}, {"type": "note_off", "time": 58, "note": 65, "velocity": 92, "channel": 0}, {"type": "note_on", "time": 17, "note": 69, "velocity": 114, "channel": 0}, {"type": "note_off", "time": 98, "note": 69, "velocity": 114, "channel": 0}, {"type": "note_on", "time": 14, "note": 70, "velocity": 111, "channel": 0}, {"type": "note_off", "time": 71, "note": 70, "velocity": 111, "channel": 0}, {"type": "note_on", "time": 7, "note": 72, "velocity": 106, "channel": 0}, {"type": "note_off", "time": 96, "note": 72, "velocity": 106, "channel": 0}, {"type": "note_on", "time": 18, "note": 68, "velocity": 95, "channel": 0}, {"type": "note_off", "time": 206, "note": 68, "velocity": 95, "channel": 0}, {"type": "note_on", "time": 599, "note": 77, "velocity": 119, "channel": 0}, {"type": "note_off", "time": 113, "note": 77, "velocity": 119, "channel": 0}, {"type": "note_on", "time": 13, "note": 79, "velocity": 109, "channel": 0}, {"type": "note_off", "time": 71, "note": 79, "velocity": 109, "channel": 0}, {"type": "note_on", "time": 12, "note": 82, "velocity": 116, "channel": 0}, {"type": "note_off", "time": 125, "note": 82, "velocity": 116, "channel": 0}, {"type": "note_on", "time": 24, "note": 86, "velocity": 127, "channel": 0}, {"type": "note_off", "time": 108, "note": 86, "velocity": 127, "channel": 0}, {"type": "note_on", "time": 41, "note": 82, "velocity": 115, "channel": 0}, {"type": "note_off", "time": 84, "note": 82, "velocity": 115, "channel": 0}, {"type": "note_on", "time": 30, "note": 80, "velocity": 100, "channel": 0}, {"type": "note_off", "time": 48, "note": 80, "velocity": 100, "channel": 0}, {"type": "note_on", "time": 7, "note": 84, "velocity": 110, "channel": 0}, {"type": "note_off", "time": 27, "note": 84, "velocity": 110, "channel": 0}, {"type": "note_on", "time": 31, "note": 79, "velocity": 111, "channel": 0}, {"type": "note_off", "time": 57, "note": 79, "velocity": 111, "channel": 0}, {"type": "note_on", "time": 14, "note": 77, "velocity": 121, "channel": 0}, {"type": "note_off", "time": 92, "note": 77, "velocity": 121, "channel": 0}, {"type": "note_on", "time": 10, "note": 75, "velocity": 121, "channel": 0}, {"type": "note_off", "time": 63, "note": 75, "velocity": 121, "channel": 0}, {"type": "note_on", "time": 5, "note": 74, "velocity": 113, "channel": 0}, {"type": "note_off", "time": 72, "note": 74, "velocity": 113, "channel": 0}, {"type": "note_on", "time": 40, "note": 73, "velocity": 118, "channel": 0}, {"type": "note_off", "time": 52, "note": 73, "velocity": 118, "channel": 0}, {"type": "note_on", "time": 8, "note": 74, "velocity": 119, "channel": 0}, {"type": "note_off", "time": 44, "note": 74, "velocity": 119, "channel": 0}, {"type": "note_on", "time": 18, "note": 70, "velocity": 119, "channel": 0}, {"type": "note_off", "time": 39, "note": 70, "velocity": 119, "channel": 0}, {"type": "note_on", "time": 7, "note": 69, "velocity": 112, "channel": 0}, {"type": "note_off", "time": 50, "note": 69, "velocity": 112, "channel": 0}, {"type": "note_on", "time": 39, "note": 68, "velocity": 108, "channel": 0}, {"type": "note_off", "time": 43, "note": 68, "velocity": 108, "channel": 0}, {"type": "note_on", "time": 10, "note": 70, "velocity": 102, "channel": 0}, {"type": "note_off", "time": 33, "note": 70, "velocity": 102, "channel": 0}, {"type": "note_on", "time": 5, "note": 72, "velocity": 106, "channel": 0}, {"type": "note_off", "time": 39, "note": 72, "velocity": 106, "channel": 0}, {"type": "note_on", "time": 14, "note": 75, "velocity": 113, "channel": 0}, {"type": "note_off", "time": 37, "note": 75, "velocity": 113, "channel": 0}, {"type": "note_on", "time": 2, "note": 79, "velocity": 106, "channel": 0}, {"type": "note_off", "time": 17, "note": 79, "velocity": 106, "channel": 0}, {"type": "note_on", "time": 2, "note": 80, "velocity": 106, "channel": 0}, {"type": "note_off", "time": 29, "note": 80, "velocity": 106, "channel": 0}, {"type": "note_on", "time": 3, "note": 79, "velocity": 96, "channel": 0}, {"type": "note_off", "time": 20, "note": 79, "velocity": 96, "channel": 0}, {"type": "note_on", "time": 10, "note": 77, "velocity": 113, "channel": 0}, {"type": "note_off", "time": 50, "note": 77, "velocity": 113, "channel": 0}, {"type": "note_on", "time": 6, "note": 75, "velocity": 116, "channel": 0}, {"type": "note_off", "time": 39, "note": 75, "velocity": 116, "channel": 0}, {"type": "note_on", "time": 5, "note": 74, "velocity": 112, "channel": 0}, {"type": "note_off", "time": 38, "note": 74, "velocity": 112, "channel": 0}, {"type": "note_on", "time": 0, "note": 77, "velocity": 117, "channel": 0}, {"type": "note_off", "time": 46, "note": 77, "velocity": 117, "channel": 0}, {"type": "note_on", "time": 6, "note": 76, "velocity": 109, "channel": 0}, {"type": "note_off", "time": 36, "note": 76, "velocity": 109, "channel": 0}, {"type": "note_on", "time": 6, "note": 74, "velocity": 100, "channel": 0}, {"type": "note_off", "time": 35, "note": 74, "velocity": 100, "channel": 0}, {"type": "note_on", "time": 6, "note": 75, "velocity": 110, "channel": 0}, {"type": "note_off", "time": 55, "note": 75, "velocity": 110, "channel": 0}, {"type": "note_on", "time": 6, "note": 67, "velocity": 91, "channel": 0}, {"type": "note_off", "time": 34, "note": 67, "velocity": 91, "channel": 0}, {"type": "note_on", "time": 10, "note": 70, "velocity": 94, "channel": 0}, {"type": "note_off", "time": 28, "note": 70, "velocity": 94, "channel": 0}, {"type": "note_on", "time": 8, "note": 73, "velocity": 116, "channel": 0}, {"type": "note_off", "time": 34, "note": 73, "velocity": 116, "channel": 0}, {"type": "note_on", "time": 2, "note": 74, "velocity": 110, "channel": 0}, {"type": "note_off", "time": 53, "note": 74, "velocity": 110, "channel": 0}, {"type": "note_on", "time": 15, "note": 71, "velocity": 107, "channel": 0}, {"type": "note_off", "time": 45, "note": 71, "velocity": 107, "channel": 0}, {"type": "note_on", "time": 2, "note": 69, "velocity": 92, "channel": 0}, {"type": "note_off", "time": 36, "note": 69, "velocity": 92, "channel": 0}, {"type": "note_on", "time": 41, "note": 68, "velocity": 111, "channel": 0}, {"type": "note_off", "time": 45, "note": 68, "velocity": 111, "channel": 0}, {"type": "note_on", "time": 4, "note": 72, "velocity": 110, "channel": 0}, {"type": "note_off", "time": 37, "note": 72, "velocity": 110, "channel": 0}, {"type": "note_on", "time": 4, "note": 68, "velocity": 84, "channel": 0}, {"type": "note_off", "time": 31, "note": 68, "velocity": 84, "channel": 0}, {"type": "note_on", "time": 28, "note": 64, "velocity": 96, "channel": 0}, {"type": "note_off", "time": 30, "note": 64, "velocity": 96, "channel": 0}, {"type": "note_on", "time": 10, "note": 65, "velocity": 112, "channel": 0}, {"type": "note_off", "time": 40, "note": 65, "velocity": 112, "channel": 0}, {"type": "note_on", "time": 6, "note": 63, "velocity": 84, "channel": 0}, {"type": "note_off", "time": 32, "note": 63, "velocity": 84, "channel": 0}, {"type": "note_on", "time": 7, "note": 64, "velocity": 97, "channel": 0}, {"type": "note_off", "time": 46, "note": 64, "velocity": 97, "channel": 0}, {"type": "note_on", "time": 72, "note": 62, "velocity": 104, "channel": 0}, {"type": "note_off", "time": 27, "note": 62, "velocity": 104, "channel": 0}, {"type": "note_on", "time": 6, "note": 63, "velocity": 105, "channel": 0}, {"type": "note_off", "time": 27, "note": 63, "velocity": 105, "channel": 0}, {"type": "note_on", "time": 5, "note": 65, "velocity": 105, "channel": 0}, {"type": "note_off", "time": 39, "note": 65, "velocity": 105, "channel": 0}, {"type": "note_on", "time": 14, "note": 67, "velocity": 110, "channel": 0}, {"type": "note_off", "time": 47, "note": 67, "velocity": 110, "channel": 0}, {"type": "note_on", "time": 4, "note": 68, "velocity": 102, "channel": 0}, {"type": "note_off", "time": 37, "note": 68, "velocity": 102, "channel": 0}, {"type": "note_on", "time": 6, "note": 70, "velocity": 112, "channel": 0}, {"type": "note_off", "time": 31, "note": 70, "velocity": 112, "channel": 0}, {"type": "note_on", "time": 9, "note": 72, "velocity": 107, "channel": 0}, {"type": "note_off", "time": 31, "note": 72, "velocity": 107, "channel": 0}, {"type": "note_on", "time": 7, "note": 75, "velocity": 105, "channel": 0}, {"type": "note_off", "time": 34, "note": 75, "velocity": 105, "channel": 0}, {"type": "note_on", "time": 24, "note": 80, "velocity": 110, "channel": 0}, {"type": "note_off", "time": 38, "note": 80, "velocity": 110, "channel": 0}, {"type": "note_on", "time": 9, "note": 79, "velocity": 104, "channel": 0}, {"type": "note_off", "time": 31, "note": 79, "velocity": 104, "channel": 0}, {"type": "note_on", "time": 8, "note": 77, "velocity": 105, "channel": 0}, {"type": "note_off", "time": 35, "note": 77, "velocity": 105, "channel": 0}, {"type": "note_on", "time": 9, "note": 75, "velocity": 116, "channel": 0}, {"type": "note_off", "time": 35, "note": 75, "velocity": 116, "channel": 0}, {"type": "note_on", "time": 8, "note": 74, "velocity": 120, "channel": 0}, {"type": "note_off", "time": 38, "note": 74, "velocity": 120, "channel": 0}, {"type": "note_on", "time": 7, "note": 75, "velocity": 112, "channel": 0}, {"type": "note_off", "time": 36, "note": 75, "velocity": 112, "channel": 0}, {"type": "note_on", "time": 6, "note": 76, "velocity": 95, "channel": 0}, {"type": "note_off", "time": 29, "note": 76, "velocity": 95, "channel": 0}, {"type": "note_on", "time": 4, "note": 77, "velocity": 114, "channel": 0}, {"type": "note_off", "time": 40, "note": 77, "velocity": 114, "channel": 0}, {"type": "note_on", "time": 12, "note": 74, "velocity": 107, "channel": 0}, {"type": "note_off", "time": 27, "note": 74, "velocity": 107, "channel": 0}, {"type": "note_on", "time": 6, "note": 75, "velocity": 118, "channel": 0}, {"type": "note_off", "time": 55, "note": 75, "velocity": 118, "channel": 0}, {"type": "note_on", "time": 13, "note": 67, "velocity": 97, "channel": 0}, {"type": "note_off", "time": 36, "note": 67, "velocity": 97, "channel": 0}, {"type": "note_on", "time": 7, "note": 70, "velocity": 95, "channel": 0}, {"type": "note_off", "time": 31, "note": 70, "velocity": 95, "channel": 0}, {"type": "note_on", "time": 8, "note": 73, "velocity": 116, "channel": 0}, {"type": "note_off", "time": 30, "note": 73, "velocity": 116, "channel": 0}, {"type": "note_on", "time": 4, "note": 74, "velocity": 116, "channel": 0}, {"type": "note_off", "time": 46, "note": 74, "velocity": 116, "channel": 0}, {"type": "note_on", "time": 8, "note": 71, "velocity": 114, "channel": 0}, {"type": "note_off", "time": 44, "note": 71, "velocity": 114, "channel": 0}, {"type": "note_on", "time": 12, "note": 70, "velocity": 97, "channel": 0}, {"type": "note_off", "time": 25, "note": 70, "velocity": 97, "channel": 0}, {"type": "note_on", "time": 12, "note": 69, "velocity": 108, "channel": 0}, {"type": "note_off", "time": 30, "note": 69, "velocity": 108, "channel": 0}, {"type": "note_on", "time": 6, "note": 68, "velocity": 107, "channel": 0}, {"type": "note_off", "time": 36, "note": 68, "velocity": 107, "channel": 0}, {"type": "note_on", "time": 12, "note": 72, "velocity": 117, "channel": 0}, {"type": "note_off", "time": 30, "note": 72, "velocity": 117, "channel": 0}, {"type": "note_on", "time": 27, "note": 67, "velocity": 102, "channel": 0}, {"type": "note_off", "time": 31, "note": 67, "velocity": 102, "channel": 0}, {"type": "note_on", "time": 7, "note": 64, "velocity": 93, "channel": 0}, {"type": "note_off", "time": 32, "note": 64, "velocity": 93, "channel": 0}, {"type": "note_on", "time": 12, "note": 65, "velocity": 112, "channel": 0}, {"type": "note_off", "time": 36, "note": 65, "velocity": 112, "channel": 0}, {"type": "note_on", "time": 30, "note": 60, "velocity": 99, "channel": 0}, {"type": "note_off", "time": 38, "note": 60, "velocity": 99, "channel": 0}, {"type": "note_on", "time": 7, "note": 63, "velocity": 112, "channel": 0}, {"type": "note_off", "time": 37, "note": 63, "velocity": 112, "channel": 0}, {"type": "note_on", "time": 24, "note": 61, "velocity": 82, "channel": 0}, {"type": "note_off", "time": 31, "note": 61, "velocity": 82, "channel": 0}, {"type": "note_on", "time": 11, "note": 63, "velocity": 104, "channel": 0}, {"type": "note_off", "time": 32, "note": 63, "velocity": 104, "channel": 0}, {"type": "note_on", "time": 5, "note": 64, "velocity": 103, "channel": 0}, {"type": "note_off", "time": 20, "note": 64, "velocity": 103, "channel": 0}, {"type": "note_on", "time": 11, "note": 65, "velocity": 108, "channel": 0}, {"type": "note_off", "time": 48, "note": 65, "velocity": 108, "channel": 0}, {"type": "note_on", "time": 18, "note": 67, "velocity": 110, "channel": 0}, {"type": "note_off", "time": 36, "note": 67, "velocity": 110, "channel": 0}, {"type": "note_on", "time": 6, "note": 68, "velocity": 104, "channel": 0}, {"type": "note_off", "time": 45, "note": 68, "velocity": 104, "channel": 0}, {"type": "note_on", "time": 13, "note": 70, "velocity": 105, "channel": 0}, {"type": "note_off", "time": 40, "note": 70, "velocity": 105, "channel": 0}, {"type": "note_on", "time": 7, "note": 72, "velocity": 108, "channel": 0}, {"type": "note_off", "time": 37, "note": 72, "velocity": 108, "channel": 0}, {"type": "note_on", "time": 9, "note": 68, "velocity": 114, "channel": 0}, {"type": "note_off", "time": 28, "note": 68, "velocity": 114, "channel": 0}, {"type": "note_on", "time": 12, "note": 67, "velocity": 107, "channel": 0}, {"type": "note_off", "time": 34, "note": 67, "velocity": 107, "channel": 0}, {"type": "note_on", "time": 25, "note": 65, "velocity": 101, "channel": 0}, {"type": "note_off", "time": 27, "note": 65, "velocity": 101, "channel": 0}, {"type": "note_on", "time": 6, "note": 70, "velocity": 114, "channel": 0}, {"type": "note_off", "time": 45, "note": 70, "velocity": 114, "channel": 0}, {"type": "note_on", "time": 10, "note": 68, "velocity": 112, "channel": 0}, {"type": "note_off", "time": 26, "note": 68, "velocity": 112, "channel": 0}, {"type": "note_on", "time": 5, "note": 67, "velocity": 108, "channel": 0}, {"type": "note_off", "time": 34, "note": 67, "velocity": 108, "channel": 0}, {"type": "note_on", "time": 10, "note": 65, "velocity": 112, "channel": 0}, {"type": "note_off", "time": 43, "note": 65, "velocity": 112, "channel": 0}, {"type": "note_on", "time": 6, "note": 64, "velocity": 109, "channel": 0}, {"type": "note_off", "time": 15, "note": 64, "velocity": 109, "channel": 0}, {"type": "note_on", "time": 17, "note": 61, "velocity": 98, "channel": 0}, {"type": "note_off", "time": 51, "note": 61, "velocity": 98, "channel": 0}, {"type": "note_on", "time": 4, "note": 63, "velocity": 108, "channel": 0}, {"type": "note_off", "time": 56, "note": 63, "velocity": 108, "channel": 0}, {"type": "note_on", "time": 4, "note": 60, "velocity": 83, "channel": 0}, {"type": "note_off", "time": 27, "note": 60, "velocity": 83, "channel": 0}, {"type": "note_on", "time": 8, "note": 61, "velocity": 102, "channel": 0}, {"type": "note_off", "time": 61, "note": 61, "velocity": 102, "channel": 0}, {"type": "note_on", "time": 791, "note": 72, "velocity": 111, "channel": 0}, {"type": "note_off", "time": 64, "note": 72, "velocity": 111, "channel": 0}, {"type": "note_on", "time": 10, "note": 75, "velocity": 90, "channel": 0}, {"type": "note_off", "time": 17, "note": 75, "velocity": 90, "channel": 0}, {"type": "note_on", "time": 10, "note": 79, "velocity": 123, "channel": 0}, {"type": "note_off", "time": 65, "note": 79, "velocity": 123, "channel": 0}, {"type": "note_on", "time": 23, "note": 82, "velocity": 122, "channel": 0}, {"type": "note_off", "time": 113, "note": 82, "velocity": 122, "channel": 0}, {"type": "note_on", "time": 7, "note": 81, "velocity": 117, "channel": 0}, {"type": "note_off", "time": 64, "note": 81, "velocity": 117, "channel": 0}, {"type": "note_on", "time": 12, "note": 80, "velocity": 111, "channel": 0}, {"type": "note_off", "time": 48, "note": 80, "velocity": 111, "channel": 0}, {"type": "note_on", "time": 4, "note": 82, "velocity": 111, "channel": 0}, {"type": "note_off", "time": 34, "note": 82, "velocity": 111, "channel": 0}, {"type": "note_on", "time": 8, "note": 80, "velocity": 99, "channel": 0}, {"type": "note_off", "time": 19, "note": 80, "velocity": 99, "channel": 0}, {"type": "note_on", "time": 6, "note": 79, "velocity": 122, "channel": 0}, {"type": "note_off", "time": 76, "note": 79, "velocity": 122, "channel": 0}, {"type": "note_on", "time": 11, "note": 77, "velocity": 120, "channel": 0}, {"type": "note_off", "time": 103, "note": 77, "velocity": 120, "channel": 0}, {"type": "note_on", "time": 8, "note": 75, "velocity": 119, "channel": 0}, {"type": "note_off", "time": 95, "note": 75, "velocity": 119, "channel": 0}, {"type": "note_on", "time": 8, "note": 74, "velocity": 115, "channel": 0}, {"type": "note_off", "time": 93, "note": 74, "velocity": 115, "channel": 0}, {"type": "note_on", "time": 4, "note": 72, "velocity": 111, "channel": 0}, {"type": "note_off", "time": 92, "note": 72, "velocity": 111, "channel": 0}, {"type": "note_on", "time": 6, "note": 70, "velocity": 113, "channel": 0}, {"type": "note_off", "time": 103, "note": 70, "velocity": 113, "channel": 0}, {"type": "note_on", "time": 6, "note": 69, "velocity": 116, "channel": 0}, {"type": "note_off", "time": 40, "note": 69, "velocity": 116, "channel": 0}, {"type": "note_on", "time": 11, "note": 68, "velocity": 103, "channel": 0}, {"type": "note_off", "time": 107, "note": 68, "velocity": 103, "channel": 0}, {"type": "note_on", "time": 10, "note": 70, "velocity": 114, "channel": 0}, {"type": "note_off", "time": 89, "note": 70, "velocity": 114, "channel": 0}, {"type": "note_on", "time": 7, "note": 67, "velocity": 105, "channel": 0}, {"type": "note_off", "time": 102, "note": 67, "velocity": 105, "channel": 0}, {"type": "note_on", "time": 6, "note": 65, "velocity": 110, "channel": 0}, {"type": "note_off", "time": 64, "note": 65, "velocity": 110, "channel": 0}, {"type": "note_on", "time": 12, "note": 63, "velocity": 113, "channel": 0}, {"type": "note_off", "time": 36, "note": 63, "velocity": 113, "channel": 0}, {"type": "note_on", "time": 0, "note": 65, "velocity": 111, "channel": 0}, {"type": "note_off", "time": 24, "note": 65, "velocity": 111, "channel": 0}, {"type": "note_on", "time": 6, "note": 63, "velocity": 114, "channel": 0}, {"type": "note_off", "time": 30, "note": 63, "velocity": 114, "channel": 0}, {"type": "note_on", "time": 19, "note": 62, "velocity": 109, "channel": 0}, {"type": "note_off", "time": 70, "note": 62, "velocity": 109, "channel": 0}, {"type": "note_on", "time": 12, "note": 63, "velocity": 105, "channel": 0}, {"type": "note_off", "time": 90, "note": 63, "velocity": 105, "channel": 0}, {"type": "note_on", "time": 45, "note": 74, "velocity": 113, "channel": 0}, {"type": "note_off", "time": 65, "note": 74, "velocity": 113, "channel": 0}, {"type": "note_on", "time": 6, "note": 73, "velocity": 109, "channel": 0}, {"type": "note_off", "time": 17, "note": 73, "velocity": 109, "channel": 0}, {"type": "note_on", "time": 3, "note": 74, "velocity": 110, "channel": 0}, {"type": "note_off", "time": 31, "note": 74, "velocity": 110, "channel": 0}, {"type": "note_on", "time": 5, "note": 73, "velocity": 109, "channel": 0}, {"type": "note_off", "time": 25, "note": 73, "velocity": 109, "channel": 0}, {"type": "note_on", "time": 12, "note": 71, "velocity": 115, "channel": 0}, {"type": "note_off", "time": 89, "note": 71, "velocity": 115, "channel": 0}, {"type": "note_on", "time": 15, "note": 72, "velocity": 112, "channel": 0}, {"type": "note_off", "time": 144, "note": 72, "velocity": 112, "channel": 0}, {"type": "note_on", "time": 40, "note": 70, "velocity": 115, "channel": 0}, {"type": "note_off", "time": 105, "note": 70, "velocity": 115, "channel": 0}, {"type": "note_on", "time": 85, "note": 77, "velocity": 116, "channel": 0}, {"type": "note_off", "time": 96, "note": 77, "velocity": 116, "channel": 0}, {"type": "note_on", "time": 7, "note": 74, "velocity": 120, "channel": 0}, {"type": "note_off", "time": 86, "note": 74, "velocity": 120, "channel": 0}, {"type": "note_on", "time": 8, "note": 69, "velocity": 119, "channel": 0}, {"type": "note_off", "time": 105, "note": 69, "velocity": 119, "channel": 0}, {"type": "note_on", "time": 34, "note": 65, "velocity": 105, "channel": 0}, {"type": "note_off", "time": 43, "note": 65, "velocity": 105, "channel": 0}, {"type": "note_on", "time": 11, "note": 67, "velocity": 119, "channel": 0}, {"type": "note_off", "time": 100, "note": 67, "velocity": 119, "channel": 0}, {"type": "note_on", "time": 20, "note": 62, "velocity": 107, "channel": 0}, {"type": "note_off", "time": 72, "note": 62, "velocity": 107, "channel": 0}, {"type": "note_on", "time": 22, "note": 60, "velocity": 99, "channel": 0}, {"type": "note_off", "time": 80, "note": 60, "velocity": 99, "channel": 0}, {"type": "note_on", "time": 12, "note": 65, "velocity": 97, "channel": 0}, {"type": "note_off", "time": 159, "note": 65, "velocity": 97, "channel": 0}, {"type": "note_on", "time": 639, "note": 77, "velocity": 120, "channel": 0}, {"type": "note_off", "time": 45, "note": 77, "velocity": 120, "channel": 0}, {"type": "note_on", "time": 10, "note": 75, "velocity": 114, "channel": 0}, {"type": "note_off", "time": 24, "note": 75, "velocity": 114, "channel": 0}, {"type": "note_on", "time": 10, "note": 74, "velocity": 108, "channel": 0}, {"type": "note_off", "time": 32, "note": 74, "velocity": 108, "channel": 0}, {"type": "note_on", "time": 15, "note": 72, "velocity": 112, "channel": 0}, {"type": "note_off", "time": 42, "note": 72, "velocity": 112, "channel": 0}, {"type": "note_on", "time": 3, "note": 71, "velocity": 104, "channel": 0}, {"type": "note_off", "time": 34, "note": 71, "velocity": 104, "channel": 0}, {"type": "note_on", "time": 11, "note": 80, "velocity": 113, "channel": 0}, {"type": "note_off", "time": 34, "note": 80, "velocity": 113, "channel": 0}, {"type": "note_on", "time": 8, "note": 78, "velocity": 114, "channel": 0}, {"type": "note_off", "time": 18, "note": 78, "velocity": 114, "channel": 0}, {"type": "note_on", "time": 2, "note": 77, "velocity": 116, "channel": 0}, {"type": "note_off", "time": 30, "note": 77, "velocity": 116, "channel": 0}, {"type": "note_on", "time": 3, "note": 76, "velocity": 104, "channel": 0}, {"type": "note_off", "time": 44, "note": 76, "velocity": 104, "channel": 0}, {"type": "note_on", "time": 5, "note": 79, "velocity": 117, "channel": 0}, {"type": "note_off", "time": 45, "note": 79, "velocity": 117, "channel": 0}, {"type": "note_on", "time": 10, "note": 75, "velocity": 116, "channel": 0}, {"type": "note_off", "time": 45, "note": 75, "velocity": 116, "channel": 0}, {"type": "note_on", "time": 9, "note": 74, "velocity": 108, "channel": 0}, {"type": "note_off", "time": 40, "note": 74, "velocity": 108, "channel": 0}, {"type": "note_on", "time": 8, "note": 72, "velocity": 92, "channel": 0}, {"type": "note_off", "time": 33, "note": 72, "velocity": 92, "channel": 0}, {"type": "note_on", "time": 9, "note": 77, "velocity": 113, "channel": 0}, {"type": "note_off", "time": 43, "note": 77, "velocity": 113, "channel": 0}, {"type": "note_on", "time": 4, "note": 76, "velocity": 116, "channel": 0}, {"type": "note_off", "time": 47, "note": 76, "velocity": 116, "channel": 0}, {"type": "note_on", "time": 0, "note": 75, "velocity": 113, "channel": 0}, {"type": "note_off", "time": 32, "note": 75, "velocity": 113, "channel": 0}, {"type": "note_on", "time": 11, "note": 67, "velocity": 95, "channel": 0}, {"type": "note_off", "time": 35, "note": 67, "velocity": 95, "channel": 0}, {"type": "note_on", "time": 16, "note": 73, "velocity": 110, "channel": 0}, {"type": "note_off", "time": 30, "note": 73, "velocity": 110, "channel": 0}, {"type": "note_on", "time": 4, "note": 74, "velocity": 90, "channel": 0}, {"type": "note_off", "time": 11, "note": 74, "velocity": 90, "channel": 0}, {"type": "note_on", "time": 2, "note": 73, "velocity": 114, "channel": 0}, {"type": "note_off", "time": 23, "note": 73, "velocity": 114, "channel": 0}, {"type": "note_on", "time": 6, "note": 74, "velocity": 111, "channel": 0}, {"type": "note_off", "time": 43, "note": 74, "velocity": 111, "channel": 0}, {"type": "note_on", "time": 9, "note": 70, "velocity": 117, "channel": 0}, {"type": "note_off", "time": 39, "note": 70, "velocity": 117, "channel": 0}, {"type": "note_on", "time": 3, "note": 69, "velocity": 114, "channel": 0}, {"type": "note_off", "time": 25, "note": 69, "velocity": 114, "channel": 0}, {"type": "note_on", "time": 77, "note": 74, "velocity": 75, "channel": 0}, {"type": "note_off", "time": 10, "note": 74, "velocity": 75, "channel": 0}, {"type": "note_on", "time": 2, "note": 75, "velocity": 109, "channel": 0}, {"type": "note_off", "time": 43, "note": 75, "velocity": 109, "channel": 0}, {"type": "note_on", "time": 8, "note": 71, "velocity": 85, "channel": 0}, {"type": "note_off", "time": 12, "note": 71, "velocity": 85, "channel": 0}, {"type": "note_on", "time": 2, "note": 69, "velocity": 99, "channel": 0}, {"type": "note_off", "time": 25, "note": 69, "velocity": 99, "channel": 0}, {"type": "note_on", "time": 16, "note": 73, "velocity": 105, "channel": 0}, {"type": "note_off", "time": 39, "note": 73, "velocity": 105, "channel": 0}, {"type": "note_on", "time": 6, "note": 64, "velocity": 91, "channel": 0}, {"type": "note_off", "time": 35, "note": 64, "velocity": 91, "channel": 0}, {"type": "note_on", "time": 12, "note": 70, "velocity": 98, "channel": 0}, {"type": "note_off", "time": 47, "note": 70, "velocity": 98, "channel": 0}, {"type": "note_on", "time": 10, "note": 68, "velocity": 100, "channel": 0}, {"type": "note_off", "time": 90, "note": 68, "velocity": 100, "channel": 0}, {"type": "note_on", "time": 631, "note": 65, "velocity": 116, "channel": 0}, {"type": "note_off", "time": 52, "note": 65, "velocity": 116, "channel": 0}, {"type": "note_on", "time": 6, "note": 67, "velocity": 95, "channel": 0}, {"type": "note_off", "time": 42, "note": 67, "velocity": 95, "channel": 0}, {"type": "note_on", "time": 44, "note": 70, "velocity": 99, "channel": 0}, {"type": "note_off", "time": 24, "note": 70, "velocity": 99, "channel": 0}, {"type": "note_on", "time": 18, "note": 74, "velocity": 122, "channel": 0}, {"type": "note_off", "time": 69, "note": 74, "velocity": 122, "channel": 0}, {"type": "note_on", "time": 17, "note": 76, "velocity": 106, "channel": 0}, {"type": "note_off", "time": 16, "note": 76, "velocity": 106, "channel": 0}, {"type": "note_on", "time": 3, "note": 77, "velocity": 115, "channel": 0}, {"type": "note_off", "time": 77, "note": 77, "velocity": 115, "channel": 0}, {"type": "note_on", "time": 9, "note": 76, "velocity": 110, "channel": 0}, {"type": "note_off", "time": 22, "note": 76, "velocity": 110, "channel": 0}, {"type": "note_on", "time": 2, "note": 77, "velocity": 114, "channel": 0}, {"type": "note_off", "time": 55, "note": 77, "velocity": 114, "channel": 0}, {"type": "note_on", "time": 11, "note": 76, "velocity": 111, "channel": 0}, {"type": "note_off", "time": 36, "note": 76, "velocity": 111, "channel": 0}, {"type": "note_on", "time": 5, "note": 77, "velocity": 112, "channel": 0}, {"type": "note_off", "time": 55, "note": 77, "velocity": 112, "channel": 0}, {"type": "note_on", "time": 7, "note": 75, "velocity": 120, "channel": 0}, {"type": "note_off", "time": 63, "note": 75, "velocity": 120, "channel": 0}, {"type": "note_on", "time": 16, "note": 72, "velocity": 104, "channel": 0}, {"type": "note_off", "time": 29, "note": 72, "velocity": 104, "channel": 0}, {"type": "note_on", "time": 14, "note": 74, "velocity": 114, "channel": 0}, {"type": "note_off", "time": 61, "note": 74, "velocity": 114, "channel": 0}, {"type": "note_on", "time": 15, "note": 70, "velocity": 118, "channel": 0}, {"type": "note_off", "time": 71, "note": 70, "velocity": 118, "channel": 0}, {"type": "note_on", "time": 19, "note": 67, "velocity": 115, "channel": 0}, {"type": "note_off", "time": 87, "note": 67, "velocity": 115, "channel": 0}, {"type": "note_on", "time": 13, "note": 65, "velocity": 97, "channel": 0}, {"type": "note_off", "time": 66, "note": 65, "velocity": 97, "channel": 0}, {"type": "note_on", "time": 12, "note": 69, "velocity": 119, "channel": 0}, {"type": "note_off", "time": 105, "note": 69, "velocity": 119, "channel": 0}, {"type": "note_on", "time": 12, "note": 65, "velocity": 95, "channel": 0}, {"type": "note_off", "time": 52, "note": 65, "velocity": 95, "channel": 0}, {"type": "note_on", "time": 9, "note": 69, "velocity": 120, "channel": 0}, {"type": "note_off", "time": 135, "note": 69, "velocity": 120, "channel": 0}, {"type": "note_on", "time": 8, "note": 70, "velocity": 119, "channel": 0}, {"type": "note_off", "time": 233, "note": 70, "velocity": 119, "channel": 0}, {"type": "note_on", "time": 12, "note": 68, "velocity": 114, "channel": 0}, {"type": "note_off", "time": 96, "note": 68, "velocity": 114, "channel": 0}, {"type": "note_on", "time": 21, "note": 65, "velocity": 114, "channel": 0}, {"type": "note_off", "time": 68, "note": 65, "velocity": 114, "channel": 0}, {"type": "note_on", "time": 30, "note": 61, "velocity": 104, "channel": 0}, {"type": "note_off", "time": 23, "note": 61, "velocity": 104, "channel": 0}, {"type": "note_on", "time": 5, "note": 62, "velocity": 106, "channel": 0}, {"type": "note_off", "time": 70, "note": 62, "velocity": 106, "channel": 0}, {"type": "note_on", "time": 94, "note": 64, "velocity": 105, "channel": 0}, {"type": "note_off", "time": 348, "note": 64, "velocity": 105, "channel": 0}, {"type": "note_on", "time": 16, "note": 63, "velocity": 110, "channel": 0}, {"type": "note_off", "time": 117, "note": 63, "velocity": 110, "channel": 0}, {"type": "end_of_track", "time": 0}]]}