{"ticks_per_beat": 20160, "tracks": [[{"type": "track_name", "name": "Melody", "time": 0}, {"type": "set_tempo", "tempo": 821917, "time": 0}, {"type": "key_signature", "key": "F", "time": 0}, {"type": "time_signature", "numerator": 4, "denominator": 4, "clocks_per_click": 24, "notated_32nd_notes_per_beat": 8, "time": 0}, {"type": "note_on", "time": 155827, "note": 77, "velocity": 111, "channel": 0}, {"type": "note_off", "time": 3153, "note": 77, "velocity": 111, "channel": 0}, {"type": "note_on", "time": 3230, "note": 80, "velocity": 109, "channel": 0}, {"type": "note_off", "time": 4422, "note": 80, "velocity": 109, "channel": 0}, {"type": "note_on", "time": 467, "note": 79, "velocity": 109, "channel": 0}, {"type": "note_off", "time": 4547, "note": 79, "velocity": 109, "channel": 0}, {"type": "note_on", "time": 498, "note": 77, "velocity": 112, "channel": 0}, {"type": "note_off", "time": 2896, "note": 77, "velocity": 112, "channel": 0}, {"type": "note_on", "time": 2429, "note": 75, "velocity": 100, "channel": 0}, {"type": "note_off", "time": 5917, "note": 75, "velocity": 100, "channel": 0}, {"type": "note_on", "time": 1245, "note": 77, "velocity": 111, "channel": 0}, {"type": "note_off", "time": 6852, "note": 77, "velocity": 111, "channel": 0}, {"type": "note_on", "time": 560, "note": 68, "velocity": 107, "channel": 0}, {"type": "note_off", "time": 6042, "note": 68, "velocity": 107, "channel": 0}, {"type": "note_on", "time": 55619, "note": 74, "velocity": 114, "channel": 0}, {"type": "note_off", "time": 4538, "note": 74, "velocity": 114, "channel": 0}, {"type": "note_on", "time": 1379, "note": 77, "velocity": 111, "channel": 0}, {"type": "note_off", "time": 3737, "note": 77, "velocity": 111, "channel": 0}, {"type": "note_on", "time": 2358, "note": 79, "velocity": 106, "channel": 0}, {"type": "note_off", "time": 4093, "note": 79, "velocity": 106, "channel": 0}, {"type": "note_on", "time": 589, "note": 80, "velocity": 113, "channel": 0}, {"type": "note_off", "time": 22125, "note": 80, "velocity": 113, "channel": 0}, {"type": "note_on", "time": 1891, "note": 79, "velocity": 108, "channel": 0}, {"type": "note_off", "time": 2180, "note": 79, "velocity": 108, "channel": 0}, {"type": "note_on", "time": 400, "note": 80, "velocity": 107, "channel": 0}, {"type": "note_off", "time": 934, "note": 80, "velocity": 107, "channel": 0}, {"type": "note_on", "time": 533, "note": 81, "velocity": 108, "channel": 0}, {"type": "note_off", "time": 1557, "note": 81, "velocity": 108, "channel": 0}, {"type": "note_on", "time": 889, "note": 77, "velocity": 114, "channel": 0}, {"type": "note_off", "time": 1779, "note": 77, "velocity": 114, "channel": 0}, {"type": "note_on", "time": 3737, "note": 80, "velocity": 111, "channel": 0}, {"type": "note_off", "time": 4316, "note": 80, "velocity": 111, "channel": 0}, {"type": "note_on", "time": 1201, "note": 79, "velocity": 109, "channel": 0}, {"type": "note_off", "time": 3337, "note": 79, "velocity": 109, "channel": 0}, {"type": "note_on", "time": 756, "note": 77, "velocity": 109, "channel": 0}, {"type": "note_off", "time": 4805, "note": 77, "velocity": 109, "channel": 0}, {"type": "note_on", "time": 311, "note": 75, "velocity": 108, "channel": 0}, {"type": "note_off", "time": 2847, "note": 75, "velocity": 108, "channel": 0}, {"type": "note_on", "time": 1735, "note": 77, "velocity": 110, "channel": 0}, {"type": "note_off", "time": 4849, "note": 77, "velocity": 110, "channel": 0}, {"type": "note_on", "time": 2803, "note": 68, "velocity": 110, "channel": 0}, {"type": "note_off", "time": 4938, "note": 68, "velocity": 110, "channel": 0}, {"type": "note_on", "time": 53305, "note": 81, "velocity": 118, "channel": 0}, {"type": "note_off", "time": 3790, "note": 81, "velocity": 118, "channel": 0}, {"type": "note_on", "time": 427, "note": 82, "velocity": 111, "channel": 0}, {"type": "note_off", "time": 4378, "note": 82, "velocity": 111, "channel": 0}, {"type": "note_on", "time": 2963, "note": 81, "velocity": 110, "channel": 0}, {"type": "note_off", "time": 5179, "note": 81, "velocity": 110, "channel": 0}, {"type": "note_on", "time": 2990, "note": 79, "velocity": 111, "channel": 0}, {"type": "note_off", "time": 3630, "note": 79, "velocity": 111, "channel": 0}, {"type": "note_on", "time": 1575, "note": 78, "velocity": 112, "channel": 0}, {"type": "note_off", "time": 3764, "note": 78, "velocity": 112, "channel": 0}, {"type": "note_on", "time": 1121, "note": 76, "velocity": 113, "channel": 0}, {"type": "note_off", "time": 3257, "note": 76, "velocity": 113, "channel": 0}, {"type": "note_on", "time": 680, "note": 74, "velocity": 104, "channel": 0}, {"type": "note_off", "time": 1561, "note": 74, "velocity": 104, "channel": 0}, {"type": "note_on", "time": 400, "note": 76, "velocity": 110, "channel": 0}, {"type": "note_off", "time": 1481, "note": 76, "velocity": 110, "channel": 0}, {"type": "note_on", "time": 280, "note": 78, "velocity": 104, "channel": 0}, {"type": "note_off", "time": 1521, "note": 78, "velocity": 104, "channel": 0}, {"type": "note_on", "time": 222, "note": 76, "velocity": 105, "channel": 0}, {"type": "note_off", "time": 1228, "note": 76, "velocity": 105, "channel": 0}, {"type": "note_on", "time": 418, "note": 73, "velocity": 110, "channel": 0}, {"type": "note_off", "time": 3283, "note": 73, "velocity": 110, "channel": 0}, {"type": "note_on", "time": 1014, "note": 71, "velocity": 113, "channel": 0}, {"type": "note_off", "time": 5152, "note": 71, "velocity": 113, "channel": 0}, {"type": "note_on", "time": 987, "note": 70, "velocity": 111, "channel": 0}, {"type": "note_off", "time": 3924, "note": 70, "velocity": 111, "channel": 0}, {"type": "note_on", "time": 525, "note": 69, "velocity": 105, "channel": 0}, {"type": "note_off", "time": 7581, "note": 69, "velocity": 105, "channel": 0}, {"type": "note_on", "time": 2411, "note": 80, "velocity": 115, "channel": 0}, {"type": "note_off", "time": 2589, "note": 80, "velocity": 115, "channel": 0}, {"type": "note_on", "time": 347, "note": 81, "velocity": 109, "channel": 0}, {"type": "note_off", "time": 1361, "note": 81, "velocity": 109, "channel": 0}, {"type": "note_on", "time": 427, "note": 80, "velocity": 106, "channel": 0}, {"type": "note_off", "time": 1495, "note": 80, "velocity": 106, "channel": 0}, {"type": "note_on", "time": 160, "note": 77, "velocity": 111, "channel": 0}, {"type": "note_off", "time": 1521, "note": 77, "velocity": 111, "channel": 0}, {"type": "note_on", "time": 4244, "note": 80, "velocity": 113, "channel": 0}, {"type": "note_off", "time": 4511, "note": 80, "velocity": 113, "channel": 0}, {"type": "note_on", "time": 2856, "note": 68, "velocity": 111, "channel": 0}, {"type": "note_off", "time": 5152, "note": 68, "velocity": 111, "channel": 0}, {"type": "note_on", "time": 62818, "note": 62, "velocity": 111, "channel": 0}, {"type": "note_off", "time": 1423, "note": 62, "velocity": 111, "channel": 0}, {"type": "note_on", "time": 289, "note": 63, "velocity": 109, "channel": 0}, {"type": "note_off", "time": 1357, "note": 63, "velocity": 109, "channel": 0}, {"type": "note_on", "time": 44, "note": 65, "velocity": 112, "channel": 0}, {"type": "note_off", "time": 1134, "note": 65, "velocity": 112, "channel": 0}, {"type": "note_on", "time": 102, "note": 68, "velocity": 113, "channel": 0}, {"type": "note_off", "time": 1334, "note": 68, "velocity": 113, "channel": 0}, {"type": "note_on", "time": 320, "note": 67, "velocity": 108, "channel": 0}, {"type": "note_off", "time": 1321, "note": 67, "velocity": 108, "channel": 0}, {"type": "note_on", "time": 703, "note": 65, "velocity": 114, "channel": 0}, {"type": "note_off", "time": 1179, "note": 65, "velocity": 114, "channel": 0}, {"type": "note_on", "time": 266, "note": 68, "velocity": 113, "channel": 0}, {"type": "note_off", "time": 2522, "note": 68, "velocity": 113, "channel": 0}, {"type": "note_on", "time": 2295, "note": 65, "velocity": 112, "channel": 0}, {"type": "note_off", "time": 6220, "note": 65, "velocity": 112, "channel": 0}, {"type": "note_on", "time": 1521, "note": 67, "velocity": 107, "channel": 0}, {"type": "note_off", "time": 1214, "note": 67, "velocity": 107, "channel": 0}, {"type": "note_on", "time": 293, "note": 68, "velocity": 114, "channel": 0}, {"type": "note_off", "time": 1134, "note": 68, "velocity": 114, "channel": 0}, {"type": "note_on", "time": 547, "note": 71, "velocity": 111, "channel": 0}, {"type": "note_off", "time": 2042, "note": 71, "velocity": 111, "channel": 0}, {"type": "note_on", "time": 120, "note": 70, "velocity": 114, "channel": 0}, {"type": "note_off", "time": 1147, "note": 70, "velocity": 114, "channel": 0}, {"type": "note_on", "time": 387, "note": 68, "velocity": 111, "channel": 0}, {"type": "note_off", "time": 1842, "note": 68, "velocity": 111, "channel": 0}, {"type": "note_on", "time": 226, "note": 71, "velocity": 114, "channel": 0}, {"type": "note_off", "time": 2950, "note": 71, "velocity": 114, "channel": 0}, {"type": "note_on", "time": 2941, "note": 61, "velocity": 103, "channel": 0}, {"type": "note_off", "time": 1512, "note": 61, "velocity": 103, "channel": 0}, {"type": "note_on", "time": 422, "note": 63, "velocity": 108, "channel": 0}, {"type": "note_off", "time": 1179, "note": 63, "velocity": 108, "channel": 0}, {"type": "note_on", "time": 155, "note": 65, "velocity": 108, "channel": 0}, {"type": "note_off", "time": 1624, "note": 65, "velocity": 108, "channel": 0}, {"type": "note_on", "time": 689, "note": 67, "velocity": 114, "channel": 0}, {"type": "note_off", "time": 1401, "note": 67, "velocity": 114, "channel": 0}, {"type": "note_on", "time": 400, "note": 68, "velocity": 110, "channel": 0}, {"type": "note_off", "time": 1112, "note": 68, "velocity": 110, "channel": 0}, {"type": "note_on", "time": 409, "note": 71, "velocity": 114, "channel": 0}, {"type": "note_off", "time": 1637, "note": 71, "velocity": 114, "channel": 0}, {"type": "note_on", "time": 689, "note": 73, "velocity": 115, "channel": 0}, {"type": "note_off", "time": 1245, "note": 73, "velocity": 115, "channel": 0}, {"type": "note_on", "time": 177, "note": 74, "velocity": 115, "channel": 0}, {"type": "note_off", "time": 1156, "note": 74, "velocity": 115, "channel": 0}, {"type": "note_on", "time": 111, "note": 76, "velocity": 114, "channel": 0}, {"type": "note_off", "time": 1423, "note": 76, "velocity": 114, "channel": 0}, {"type": "note_on", "time": 244, "note": 77, "velocity": 104, "channel": 0}, {"type": "note_off", "time": 1535, "note": 77, "velocity": 104, "channel": 0}, {"type": "note_on", "time": 177, "note": 79, "velocity": 113, "channel": 0}, {"type": "note_off", "time": 1624, "note": 79, "velocity": 113, "channel": 0}, {"type": "note_on", "time": 222, "note": 80, "velocity": 108, "channel": 0}, {"type": "note_off", "time": 1468, "note": 80, "velocity": 108, "channel": 0}, {"type": "note_on", "time": 40735, "note": 80, "velocity": 113, "channel": 0}, {"type": "note_off", "time": 4525, "note": 80, "velocity": 113, "channel": 0}, {"type": "note_on", "time": 369, "note": 85, "velocity": 99, "channel": 0}, {"type": "note_off", "time": 4307, "note": 85, "velocity": 99, "channel": 0}, {"type": "note_on", "time": 569, "note": 77, "velocity": 111, "channel": 0}, {"type": "note_off", "time": 3524, "note": 77, "velocity": 111, "channel": 0}, {"type": "note_on", "time": 1541, "note": 77, "velocity": 112, "channel": 0}, {"type": "note_off", "time": 4344, "note": 77, "velocity": 112, "channel": 0}, {"type": "note_on", "time": 680, "note": 76, "velocity": 113, "channel": 0}, {"type": "note_off", "time": 5085, "note": 76, "velocity": 113, "channel": 0}, {"type": "note_on", "time": 400, "note": 74, "velocity": 111, "channel": 0}, {"type": "note_off", "time": 4545, "note": 74, "velocity": 111, "channel": 0}, {"type": "note_on", "time": 660, "note": 72, "velocity": 111, "channel": 0}, {"type": "note_off", "time": 1942, "note": 72, "velocity": 111, "channel": 0}, {"type": "note_on", "time": 518, "note": 73, "velocity": 103, "channel": 0}, {"type": "note_off", "time": 1621, "note": 73, "velocity": 103, "channel": 0}, {"type": "note_on", "time": 262, "note": 72, "velocity": 111, "channel": 0}, {"type": "note_off", "time": 1241, "note": 72, "velocity": 111, "channel": 0}, {"type": "note_on", "time": 260, "note": 71, "velocity": 109, "channel": 0}, {"type": "note_off", "time": 3383, "note": 71, "velocity": 109, "channel": 0}, {"type": "note_on", "time": 1842, "note": 70, "velocity": 112, "channel": 0}, {"type": "note_off", "time": 4625, "note": 70, "velocity": 112, "channel": 0}, {"type": "note_on", "time": 160, "note": 69, "velocity": 108, "channel": 0}, {"type": "note_off", "time": 3504, "note": 69, "velocity": 108, "channel": 0}, {"type": "note_on", "time": 1201, "note": 67, "velocity": 109, "channel": 0}, {"type": "note_off", "time": 5085, "note": 67, "velocity": 109, "channel": 0}, {"type": "note_on", "time": 480, "note": 65, "velocity": 111, "channel": 0}, {"type": "note_off", "time": 3864, "note": 65, "velocity": 111, "channel": 0}, {"type": "note_on", "time": 720, "note": 64, "velocity": 112, "channel": 0}, {"type": "note_off", "time": 5025, "note": 64, "velocity": 112, "channel": 0}, {"type": "note_on", "time": 480, "note": 61, "velocity": 99, "channel": 0}, {"type": "note_off", "time": 2963, "note": 61, "velocity": 99, "channel": 0}, {"type": "note_on", "time": 540, "note": 62, "velocity": 108, "channel": 0}, {"type": "note_off", "time": 2843, "note": 62, "velocity": 108, "channel": 0}, {"type": "note_on", "time": 340, "note": 64, "velocity": 112, "channel": 0}, {"type": "note_off", "time": 1521, "note": 64, "velocity": 112, "channel": 0}, {"type": "note_on", "time": 340, "note": 67, "velocity": 110, "channel": 0}, {"type": "note_off", "time": 3263, "note": 67, "velocity": 110, "channel": 0}, {"type": "note_on", "time": 1641, "note": 64, "velocity": 112, "channel": 0}, {"type": "note_off", "time": 5386, "note": 64, "velocity": 112, "channel": 0}, {"type": "note_on", "time": 520, "note": 65, "velocity": 114, "channel": 0}, {"type": "note_off", "time": 3864, "note": 65, "velocity": 114, "channel": 0}, {"type": "note_on", "time": 1101, "note": 69, "velocity": 109, "channel": 0}, {"type": "note_off", "time": 4064, "note": 69, "velocity": 109, "channel": 0}, {"type": "note_on", "time": 840, "note": 72, "velocity": 108, "channel": 0}, {"type": "note_off", "time": 3644, "note": 72, "velocity": 108, "channel": 0}, {"type": "note_on", "time": 1641, "note": 73, "velocity": 114, "channel": 0}, {"type": "note_off", "time": 4885, "note": 73, "velocity": 114, "channel": 0}, {"type": "note_on", "time": 580, "note": 75, "velocity": 109, "channel": 0}, {"type": "note_off", "time": 4465, "note": 75, "velocity": 109, "channel": 0}, {"type": "note_on", "time": 140, "note": 77, "velocity": 113, "channel": 0}, {"type": "note_off", "time": 4224, "note": 77, "velocity": 113, "channel": 0}, {"type": "note_on", "time": 700, "note": 78, "velocity": 110, "channel": 0}, {"type": "note_off", "time": 3904, "note": 78, "velocity": 110, "channel": 0}, {"type": "note_on", "time": 1301, "note": 80, "velocity": 113, "channel": 0}, {"type": "note_off", "time": 4605, "note": 80, "velocity": 113, "channel": 0}, {"type": "note_on", "time": 580, "note": 82, "velocity": 112, "channel": 0}, {"type": "note_off", "time": 3824, "note": 82, "velocity": 112, "channel": 0}, {"type": "note_on", "time": 720, "note": 81, "velocity": 107, "channel": 0}, {"type": "note_off", "time": 4805, "note": 81, "velocity": 107, "channel": 0}, {"type": "note_on", "time": 1321, "note": 84, "velocity": 112, "channel": 0}, {"type": "note_off", "time": 11332, "note": 84, "velocity": 112, "channel": 0}, {"type": "note_on", "time": 420, "note": 82, "velocity": 112, "channel": 0}, {"type": "note_off", "time": 2582, "note": 82, "velocity": 112, "channel": 0}, {"type": "note_on", "time": 881, "note": 74, "velocity": 103, "channel": 0}, {"type": "note_off", "time": 1882, "note": 74, "velocity": 103, "channel": 0}, {"type": "note_on", "time": 1141, "note": 77, "velocity": 113, "channel": 0}, {"type": "note_off", "time": 2502, "note": 77, "velocity": 113, "channel": 0}, {"type": "note_on", "time": 2082, "note": 81, "velocity": 108, "channel": 0}, {"type": "note_off", "time": 3524, "note": 81, "velocity": 108, "channel": 0}, {"type": "note_on", "time": 1021, "note": 79, "velocity": 107, "channel": 0}, {"type": "note_off", "time": 3343, "note": 79, "velocity": 107, "channel": 0}, {"type": "note_on", "time": 1561, "note": 77, "velocity": 111, "channel": 0}, {"type": "note_off", "time": 4585, "note": 77, "velocity": 111, "channel": 0}, {"type": "note_on", "time": 560, "note": 76, "velocity": 113, "channel": 0}, {"type": "note_off", "time": 2422, "note": 76, "velocity": 113, "channel": 0}, {"type": "note_on", "time": 2743, "note": 74, "velocity": 113, "channel": 0}, {"type": "note_off", "time": 4585, "note": 74, "velocity": 113, "channel": 0}, {"type": "note_on", "time": 640, "note": 73, "velocity": 112, "channel": 0}, {"type": "note_off", "time": 2883, "note": 73, "velocity": 112, "channel": 0}, {"type": "note_on", "time": 1161, "note": 72, "velocity": 108, "channel": 0}, {"type": "note_off", "time": 2723, "note": 72, "velocity": 108, "channel": 0}, {"type": "note_on", "time": 1899, "note": 73, "velocity": 97, "channel": 0}, {"type": "note_off", "time": 1388, "note": 73, "velocity": 97, "channel": 0}, {"type": "note_on", "time": 771, "note": 70, "velocity": 104, "channel": 0}, {"type": "note_off", "time": 3829, "note": 70, "velocity": 104, "channel": 0}, {"type": "note_on", "time": 575, "note": 69, "velocity": 103, "channel": 0}, {"type": "note_off", "time": 6432, "note": 69, "velocity": 103, "channel": 0}, {"type": "note_on", "time": 876, "note": 67, "velocity": 106, "channel": 0}, {"type": "note_off", "time": 4680, "note": 67, "velocity": 106, "channel": 0}, {"type": "note_on", "time": 1878, "note": 75, "velocity": 113, "channel": 0}, {"type": "note_off", "time": 15235, "note": 75, "velocity": 113, "channel": 0}, {"type": "note_on", "time": 906, "note": 73, "velocity": 110, "channel": 0}, {"type": "note_off", "time": 5256, "note": 73, "velocity": 110, "channel": 0}, {"type": "note_on", "time": 743, "note": 78, "velocity": 107, "channel": 0}, {"type": "note_off", "time": 12351, "note": 78, "velocity": 107, "channel": 0}, {"type": "note_on", "time": 14914, "note": 75, "velocity": 112, "channel": 0}, {"type": "note_off", "time": 7653, "note": 75, "velocity": 112, "channel": 0}, {"type": "note_on", "time": 528, "note": 73, "velocity": 102, "channel": 0}, {"type": "note_off", "time": 1952, "note": 73, "velocity": 102, "channel": 0}, {"type": "note_on", "time": 1090, "note": 66, "velocity": 101, "channel": 0}, {"type": "note_off", "time": 10834, "note": 66, "velocity": 101, "channel": 0}, {"type": "note_on", "time": 17241, "note": 75, "velocity": 116, "channel": 0}, {"type": "note_off", "time": 4827, "note": 75, "velocity": 116, "channel": 0}, {"type": "note_on", "time": 100, "note": 73, "velocity": 114, "channel": 0}, {"type": "note_off", "time": 4927, "note": 73, "velocity": 114, "channel": 0}, {"type": "note_on", "time": 2298, "note": 66, "velocity": 103, "channel": 0}, {"type": "note_off", "time": 17815, "note": 66, "velocity": 103, "channel": 0}, {"type": "note_on", "time": 3399, "note": 75, "velocity": 110, "channel": 0}, {"type": "note_off", "time": 11141, "note": 75, "velocity": 110, "channel": 0}, {"type": "note_on", "time": 557, "note": 73, "velocity": 115, "channel": 0}, {"type": "note_off", "time": 4755, "note": 73, "velocity": 115, "channel": 0}, {"type": "note_on", "time": 1219, "note": 66, "velocity": 107, "channel": 0}, {"type": "note_off", "time": 15591, "note": 66, "velocity": 107, "channel": 0}, {"type": "note_on", "time": 3648, "note": 66, "velocity": 110, "channel": 0}, {"type": "note_off", "time": 2384, "note": 66, "velocity": 110, "channel": 0}, {"type": "note_on", "time": 2064, "note": 75, "velocity": 110, "channel": 0}, {"type": "note_off", "time": 4752, "note": 75, "velocity": 110, "channel": 0}, {"type": "note_on", "time": 854, "note": 75, "velocity": 113, "channel": 0}, {"type": "note_off", "time": 2918, "note": 75, "velocity": 113, "channel": 0}, {"type": "note_on", "time": 249, "note": 73, "velocity": 113, "channel": 0}, {"type": "note_off", "time": 6122, "note": 73, "velocity": 113, "channel": 0}, {"type": "note_on", "time": 747, "note": 73, "velocity": 114, "channel": 0}, {"type": "note_off", "time": 2153, "note": 73, "velocity": 114, "channel": 0}, {"type": "note_on", "time": 622, "note": 66, "velocity": 101, "channel": 0}, {"type": "note_off", "time": 7332, "note": 66, "velocity": 101, "channel": 0}, {"type": "note_on", "time": 961, "note": 66, "velocity": 105, "channel": 0}, {"type": "note_off", "time": 1512, "note": 66, "velocity": 105, "channel": 0}, {"type": "note_on", "time": 61154, "note": 77, "velocity": 118, "channel": 0}, {"type": "note_off", "time": 5481, "note": 77, "velocity": 118, "channel": 0}, {"type": "note_on", "time": 3025, "note": 75, "velocity": 113, "channel": 0}, {"type": "note_off", "time": 3773, "note": 75, "velocity": 113, "channel": 0}, {"type": "note_on", "time": 1156, "note": 80, "velocity": 108, "channel": 0}, {"type": "note_off", "time": 1388, "note": 80, "velocity": 108, "channel": 0}, {"type": "note_on", "time": 480, "note": 75, "velocity": 113, "channel": 0}, {"type": "note_off", "time": 1744, "note": 75, "velocity": 113, "channel": 0}, {"type": "note_on", "time": 622, "note": 71, "velocity": 113, "channel": 0}, {"type": "note_off", "time": 3203, "note": 71, "velocity": 113, "channel": 0}, {"type": "note_on", "time": 1032, "note": 70, "velocity": 111, "channel": 0}, {"type": "note_off", "time": 3648, "note": 70, "velocity": 111, "channel": 0}, {"type": "note_on", "time": 765, "note": 68, "velocity": 106, "channel": 0}, {"type": "note_off", "time": 3096, "note": 68, "velocity": 106, "channel": 0}, {"type": "note_on", "time": 1922, "note": 70, "velocity": 110, "channel": 0}, {"type": "note_off", "time": 5268, "note": 70, "velocity": 110, "channel": 0}, {"type": "note_on", "time": 373, "note": 70, "velocity": 110, "channel": 0}, {"type": "note_off", "time": 3043, "note": 70, "velocity": 110, "channel": 0}, {"type": "note_on", "time": 462, "note": 68, "velocity": 111, "channel": 0}, {"type": "note_off", "time": 5179, "note": 68, "velocity": 111, "channel": 0}, {"type": "note_on", "time": 996, "note": 68, "velocity": 113, "channel": 0}, {"type": "note_off", "time": 2082, "note": 68, "velocity": 113, "channel": 0}, {"type": "note_on", "time": 2527, "note": 70, "velocity": 111, "channel": 0}, {"type": "note_off", "time": 5535, "note": 70, "velocity": 111, "channel": 0}, {"type": "note_on", "time": 1156, "note": 70, "velocity": 113, "channel": 0}, {"type": "note_off", "time": 2723, "note": 70, "velocity": 113, "channel": 0}, {"type": "note_on", "time": 872, "note": 68, "velocity": 98, "channel": 0}, {"type": "note_off", "time": 3666, "note": 68, "velocity": 98, "channel": 0}, {"type": "note_on", "time": 1637, "note": 68, "velocity": 107, "channel": 0}, {"type": "note_off", "time": 1334, "note": 68, "velocity": 107, "channel": 0}, {"type": "note_on", "time": 3381, "note": 70, "velocity": 115, "channel": 0}, {"type": "note_off", "time": 3844, "note": 70, "velocity": 115, "channel": 0}, {"type": "note_on", "time": 1174, "note": 70, "velocity": 111, "channel": 0}, {"type": "note_off", "time": 2189, "note": 70, "velocity": 111, "channel": 0}, {"type": "note_on", "time": 747, "note": 68, "velocity": 100, "channel": 0}, {"type": "note_off", "time": 1156, "note": 68, "velocity": 100, "channel": 0}, {"type": "note_on", "time": 213, "note": 67, "velocity": 105, "channel": 0}, {"type": "note_off", "time": 2117, "note": 67, "velocity": 105, "channel": 0}, {"type": "note_on", "time": 516, "note": 68, "velocity": 109, "channel": 0}, {"type": "note_off", "time": 2206, "note": 68, "velocity": 109, "channel": 0}, {"type": "note_on", "time": 605, "note": 68, "velocity": 115, "channel": 0}, {"type": "note_off", "time": 2082, "note": 68, "velocity": 115, "channel": 0}, {"type": "note_on", "time": 1317, "note": 65, "velocity": 109, "channel": 0}, {"type": "note_off", "time": 4182, "note": 65, "velocity": 109, "channel": 0}, {"type": "note_on", "time": 1512, "note": 65, "velocity": 97, "channel": 0}, {"type": "note_off", "time": 1673, "note": 65, "velocity": 97, "channel": 0}, {"type": "note_on", "time": 36379, "note": 68, "velocity": 117, "channel": 0}, {"type": "note_off", "time": 3007, "note": 68, "velocity": 117, "channel": 0}, {"type": "note_on", "time": 409, "note": 69, "velocity": 112, "channel": 0}, {"type": "note_off", "time": 2082, "note": 69, "velocity": 112, "channel": 0}, {"type": "note_on", "time": 266, "note": 72, "velocity": 114, "channel": 0}, {"type": "note_off", "time": 1957, "note": 72, "velocity": 114, "channel": 0}, {"type": "note_on", "time": 231, "note": 74, "velocity": 112, "channel": 0}, {"type": "note_off", "time": 2260, "note": 74, "velocity": 112, "channel": 0}, {"type": "note_on", "time": 3986, "note": 89, "velocity": 110, "channel": 0}, {"type": "note_off", "time": 4378, "note": 89, "velocity": 110, "channel": 0}, {"type": "note_on", "time": 4784, "note": 74, "velocity": 115, "channel": 0}, {"type": "note_off", "time": 2452, "note": 74, "velocity": 115, "channel": 0}, {"type": "note_on", "time": 600, "note": 75, "velocity": 109, "channel": 0}, {"type": "note_off", "time": 16969, "note": 75, "velocity": 109, "channel": 0}, {"type": "note_on", "time": 1444, "note": 71, "velocity": 111, "channel": 0}, {"type": "note_off", "time": 5499, "note": 71, "velocity": 111, "channel": 0}, {"type": "note_on", "time": 714, "note": 70, "velocity": 106, "channel": 0}, {"type": "note_off", "time": 12564, "note": 70, "velocity": 106, "channel": 0}, {"type": "note_on", "time": 710, "note": 68, "velocity": 109, "channel": 0}, {"type": "note_off", "time": 2242, "note": 68, "velocity": 109, "channel": 0}, {"type": "note_on", "time": 284, "note": 69, "velocity": 94, "channel": 0}, {"type": "note_off", "time": 1139, "note": 69, "velocity": 94, "channel": 0}, {"type": "note_on", "time": 444, "note": 68, "velocity": 113, "channel": 0}, {"type": "note_off", "time": 1388, "note": 68, "velocity": 113, "channel": 0}, {"type": "note_on", "time": 551, "note": 65, "velocity": 106, "channel": 0}, {"type": "note_off", "time": 2295, "note": 65, "velocity": 106, "channel": 0}, {"type": "note_on", "time": 3456, "note": 70, "velocity": 109, "channel": 0}, {"type": "note_off", "time": 4655, "note": 70, "velocity": 109, "channel": 0}, {"type": "note_on", "time": 751, "note": 68, "velocity": 108, "channel": 0}, {"type": "note_off", "time": 2758, "note": 68, "velocity": 108, "channel": 0}, {"type": "note_on", "time": 1619, "note": 65, "velocity": 107, "channel": 0}, {"type": "note_off", "time": 4485, "note": 65, "velocity": 107, "channel": 0}, {"type": "note_on", "time": 1210, "note": 63, "velocity": 105, "channel": 0}, {"type": "note_off", "time": 2206, "note": 63, "velocity": 105, "channel": 0}, {"type": "note_on", "time": 605, "note": 65, "velocity": 105, "channel": 0}, {"type": "note_off", "time": 6371, "note": 65, "velocity": 105, "channel": 0}, {"type": "note_on", "time": 664, "note": 65, "velocity": 105, "channel": 0}, {"type": "note_off", "time": 9460, "note": 65, "velocity": 105, "channel": 0}, {"type": "note_on", "time": 68151, "note": 65, "velocity": 116, "channel": 0}, {"type": "note_off", "time": 3096, "note": 65, "velocity": 116, "channel": 0}, {"type": "note_on", "time": 427, "note": 63, "velocity": 115, "channel": 0}, {"type": "note_off", "time": 2545, "note": 63, "velocity": 115, "channel": 0}, {"type": "note_on", "time": 213, "note": 65, "velocity": 110, "channel": 0}, {"type": "note_off", "time": 907, "note": 65, "velocity": 110, "channel": 0}, {"type": "note_on", "time": 373, "note": 63, "velocity": 115, "channel": 0}, {"type": "note_off", "time": 1566, "note": 63, "velocity": 115, "channel": 0}, {"type": "note_on", "time": 427, "note": 61, "velocity": 113, "channel": 0}, {"type": "note_off", "time": 1673, "note": 61, "velocity": 113, "channel": 0}, {"type": "note_on", "time": 3826, "note": 62, "velocity": 108, "channel": 0}, {"type": "note_off", "time": 4823, "note": 62, "velocity": 108, "channel": 0}, {"type": "note_on", "time": 925, "note": 60, "velocity": 110, "channel": 0}, {"type": "note_off", "time": 3862, "note": 60, "velocity": 110, "channel": 0}, {"type": "note_on", "time": 587, "note": 58, "velocity": 110, "channel": 0}, {"type": "note_off", "time": 4556, "note": 58, "velocity": 110, "channel": 0}, {"type": "note_on", "time": 1245, "note": 57, "velocity": 111, "channel": 0}, {"type": "note_off", "time": 3648, "note": 57, "velocity": 111, "channel": 0}, {"type": "note_on", "time": 302, "note": 56, "velocity": 116, "channel": 0}, {"type": "note_off", "time": 6727, "note": 56, "velocity": 116, "channel": 0}, {"type": "note_on", "time": 516, "note": 58, "velocity": 114, "channel": 0}, {"type": "note_off", "time": 3381, "note": 58, "velocity": 114, "channel": 0}, {"type": "note_on", "time": 1281, "note": 60, "velocity": 9, "channel": 0}, {"type": "note_off", "time": 4947, "note": 60, "velocity": 9, "channel": 0}, {"type": "note_on", "time": 409, "note": 63, "velocity": 110, "channel": 0}, {"type": "note_off", "time": 4289, "note": 63, "velocity": 110, "channel": 0}, {"type": "note_on", "time": 622, "note": 67, "velocity": 113, "channel": 0}, {"type": "note_off", "time": 7386, "note": 67, "velocity": 113, "channel": 0}, {"type": "note_on", "time": 1797, "note": 67, "velocity": 107, "channel": 0}, {"type": "note_off", "time": 10162, "note": 67, "velocity": 107, "channel": 0}, {"type": "note_on", "time": 978, "note": 67, "velocity": 109, "channel": 0}, {"type": "note_off", "time": 24490, "note": 67, "velocity": 109, "channel": 0}, {"type": "note_on", "time": 1459, "note": 63, "velocity": 108, "channel": 0}, {"type": "note_off", "time": 3203, "note": 63, "velocity": 108, "channel": 0}, {"type": "note_on", "time": 1637, "note": 67, "velocity": 115, "channel": 0}, {"type": "note_off", "time": 3630, "note": 67, "velocity": 115, "channel": 0}, {"type": "note_on", "time": 996, "note": 63, "velocity": 110, "channel": 0}, {"type": "note_off", "time": 3844, "note": 63, "velocity": 110, "channel": 0}, {"type": "note_on", "time": 676, "note": 67, "velocity": 109, "channel": 0}, {"type": "note_off", "time": 11106, "note": 67, "velocity": 109, "channel": 0}, {"type": "note_on", "time": 62346, "note": 69, "velocity": 113, "channel": 0}, {"type": "note_off", "time": 2349, "note": 69, "velocity": 113, "channel": 0}, {"type": "note_on", "time": 516, "note": 71, "velocity": 118, "channel": 0}, {"type": "note_off", "time": 1726, "note": 71, "velocity": 118, "channel": 0}, {"type": "note_on", "time": 88, "note": 72, "velocity": 116, "channel": 0}, {"type": "note_off", "time": 1441, "note": 72, "velocity": 116, "channel": 0}, {"type": "note_on", "time": 284, "note": 74, "velocity": 109, "channel": 0}, {"type": "note_off", "time": 1281, "note": 74, "velocity": 109, "channel": 0}, {"type": "note_on", "time": 177, "note": 76, "velocity": 113, "channel": 0}, {"type": "note_off", "time": 10750, "note": 76, "velocity": 113, "channel": 0}, {"type": "note_on", "time": 872, "note": 72, "velocity": 109, "channel": 0}, {"type": "note_off", "time": 1530, "note": 72, "velocity": 109, "channel": 0}, {"type": "note_on", "time": 320, "note": 71, "velocity": 110, "channel": 0}, {"type": "note_off", "time": 2758, "note": 71, "velocity": 110, "channel": 0}, {"type": "note_on", "time": 2990, "note": 73, "velocity": 112, "channel": 0}, {"type": "note_off", "time": 11711, "note": 73, "velocity": 112, "channel": 0}, {"type": "note_on", "time": 412, "note": 72, "velocity": 113, "channel": 0}, {"type": "note_off", "time": 1501, "note": 72, "velocity": 113, "channel": 0}, {"type": "note_on", "time": 550, "note": 71, "velocity": 113, "channel": 0}, {"type": "note_off", "time": 1626, "note": 71, "velocity": 113, "channel": 0}, {"type": "note_on", "time": 49516, "note": 73, "velocity": 117, "channel": 0}, {"type": "note_off", "time": 5535, "note": 73, "velocity": 117, "channel": 0}, {"type": "note_on", "time": 302, "note": 72, "velocity": 111, "channel": 0}, {"type": "note_off", "time": 3702, "note": 72, "velocity": 111, "channel": 0}, {"type": "note_on", "time": 427, "note": 71, "velocity": 113, "channel": 0}, {"type": "note_off", "time": 5321, "note": 71, "velocity": 113, "channel": 0}, {"type": "note_on", "time": 444, "note": 70, "velocity": 110, "channel": 0}, {"type": "note_off", "time": 4378, "note": 70, "velocity": 110, "channel": 0}, {"type": "note_on", "time": 284, "note": 68, "velocity": 112, "channel": 0}, {"type": "note_off", "time": 2278, "note": 68, "velocity": 112, "channel": 0}, {"type": "note_on", "time": 302, "note": 70, "velocity": 104, "channel": 0}, {"type": "note_off", "time": 1192, "note": 70, "velocity": 104, "channel": 0}, {"type": "note_on", "time": 284, "note": 68, "velocity": 98, "channel": 0}, {"type": "note_off", "time": 1334, "note": 68, "velocity": 98, "channel": 0}, {"type": "note_on", "time": 462, "note": 66, "velocity": 107, "channel": 0}, {"type": "note_off", "time": 2473, "note": 66, "velocity": 107, "channel": 0}, {"type": "note_on", "time": 1973, "note": 63, "velocity": 109, "channel": 0}, {"type": "note_off", "time": 3704, "note": 63, "velocity": 109, "channel": 0}, {"type": "note_on", "time": 2077, "note": 59, "velocity": 104, "channel": 0}, {"type": "note_off", "time": 3629, "note": 59, "velocity": 104, "channel": 0}, {"type": "note_on", "time": 1176, "note": 57, "velocity": 107, "channel": 0}, {"type": "note_off", "time": 16243, "note": 57, "velocity": 107, "channel": 0}, {"type": "note_on", "time": 700, "note": 55, "velocity": 103, "channel": 0}, {"type": "note_off", "time": 2853, "note": 55, "velocity": 103, "channel": 0}, {"type": "note_on", "time": 692, "note": 60, "velocity": 103, "channel": 0}, {"type": "note_off", "time": 5553, "note": 60, "velocity": 103, "channel": 0}, {"type": "note_on", "time": 1563, "note": 58, "velocity": 106, "channel": 0}, {"type": "note_off", "time": 3178, "note": 58, "velocity": 106, "channel": 0}, {"type": "note_on", "time": 348, "note": 62, "velocity": 114, "channel": 0}, {"type": "note_off", "time": 4307, "note": 62, "velocity": 114, "channel": 0}, {"type": "note_on", "time": 444, "note": 60, "velocity": 97, "channel": 0}, {"type": "note_off", "time": 3239, "note": 60, "velocity": 97, "channel": 0}, {"type": "note_on", "time": 622, "note": 64, "velocity": 109, "channel": 0}, {"type": "note_off", "time": 2776, "note": 64, "velocity": 109, "channel": 0}, {"type": "note_on", "time": 729, "note": 62, "velocity": 109, "channel": 0}, {"type": "note_off", "time": 2295, "note": 62, "velocity": 109, "channel": 0}, {"type": "note_on", "time": 302, "note": 65, "velocity": 110, "channel": 0}, {"type": "note_off", "time": 2171, "note": 65, "velocity": 110, "channel": 0}, {"type": "note_on", "time": 249, "note": 64, "velocity": 106, "channel": 0}, {"type": "note_off", "time": 1619, "note": 64, "velocity": 106, "channel": 0}, {"type": "note_on", "time": 516, "note": 67, "velocity": 111, "channel": 0}, {"type": "note_off", "time": 2438, "note": 67, "velocity": 111, "channel": 0}, {"type": "note_on", "time": 302, "note": 65, "velocity": 111, "channel": 0}, {"type": "note_off", "time": 2046, "note": 65, "velocity": 111, "channel": 0}, {"type": "note_on", "time": 213, "note": 69, "velocity": 111, "channel": 0}, {"type": "note_off", "time": 1779, "note": 69, "velocity": 111, "channel": 0}, {"type": "note_on", "time": 640, "note": 67, "velocity": 111, "channel": 0}, {"type": "note_off", "time": 2171, "note": 67, "velocity": 111, "channel": 0}, {"type": "note_on", "time": 533, "note": 70, "velocity": 114, "channel": 0}, {"type": "note_off", "time": 1744, "note": 70, "velocity": 114, "channel": 0}, {"type": "note_on", "time": 391, "note": 69, "velocity": 111, "channel": 0}, {"type": "note_off", "time": 2420, "note": 69, "velocity": 111, "channel": 0}, {"type": "note_on", "time": 551, "note": 72, "velocity": 105, "channel": 0}, {"type": "note_off", "time": 4983, "note": 72, "velocity": 105, "channel": 0}, {"type": "note_on", "time": 28263, "note": 61, "velocity": 116, "channel": 0}, {"type": "note_off", "time": 2651, "note": 61, "velocity": 116, "channel": 0}, {"type": "note_on", "time": 480, "note": 63, "velocity": 111, "channel": 0}, {"type": "note_off", "time": 2011, "note": 63, "velocity": 111, "channel": 0}, {"type": "note_on", "time": 142, "note": 64, "velocity": 117, "channel": 0}, {"type": "note_off", "time": 1530, "note": 64, "velocity": 117, "channel": 0}, {"type": "note_on", "time": 427, "note": 67, "velocity": 108, "channel": 0}, {"type": "note_off", "time": 1637, "note": 67, "velocity": 108, "channel": 0}, {"type": "note_on", "time": 284, "note": 68, "velocity": 115, "channel": 0}, {"type": "note_off", "time": 1477, "note": 68, "velocity": 115, "channel": 0}, {"type": "note_on", "time": 338, "note": 71, "velocity": 112, "channel": 0}, {"type": "note_off", "time": 2829, "note": 71, "velocity": 112, "channel": 0}, {"type": "note_on", "time": 195, "note": 75, "velocity": 110, "channel": 0}, {"type": "note_off", "time": 8009, "note": 75, "velocity": 110, "channel": 0}, {"type": "note_on", "time": 177, "note": 73, "velocity": 113, "channel": 0}, {"type": "note_off", "time": 1922, "note": 73, "velocity": 113, "channel": 0}, {"type": "note_on", "time": 320, "note": 71, "velocity": 112, "channel": 0}, {"type": "note_off", "time": 2313, "note": 71, "velocity": 112, "channel": 0}, {"type": "note_on", "time": 320, "note": 70, "velocity": 112, "channel": 0}, {"type": "note_off", "time": 1601, "note": 70, "velocity": 112, "channel": 0}, {"type": "note_on", "time": 409, "note": 68, "velocity": 110, "channel": 0}, {"type": "note_off", "time": 1868, "note": 68, "velocity": 110, "channel": 0}, {"type": "note_on", "time": 1050, "note": 66, "velocity": 109, "channel": 0}, {"type": "note_off", "time": 1299, "note": 66, "velocity": 109, "channel": 0}, {"type": "note_on", "time": 978, "note": 65, "velocity": 110, "channel": 0}, {"type": "note_off", "time": 2402, "note": 65, "velocity": 110, "channel": 0}, {"type": "note_on", "time": 282, "note": 64, "velocity": 107, "channel": 0}, {"type": "note_off", "time": 8409, "note": 64, "velocity": 107, "channel": 0}, {"type": "note_on", "time": 34628, "note": 71, "velocity": 117, "channel": 0}, {"type": "note_off", "time": 4574, "note": 71, "velocity": 117, "channel": 0}, {"type": "note_on", "time": 373, "note": 73, "velocity": 115, "channel": 0}, {"type": "note_off", "time": 3666, "note": 73, "velocity": 115, "channel": 0}, {"type": "note_on", "time": 124, "note": 75, "velocity": 112, "channel": 0}, {"type": "note_off", "time": 4983, "note": 75, "velocity": 112, "channel": 0}, {"type": "note_on", "time": 2153, "note": 78, "velocity": 111, "channel": 0}, {"type": "note_off", "time": 13223, "note": 78, "velocity": 111, "channel": 0}, {"type": "note_on", "time": 294, "note": 75, "velocity": 113, "channel": 0}, {"type": "note_off", "time": 1927, "note": 75, "velocity": 113, "channel": 0}, {"type": "note_on", "time": 241, "note": 77, "velocity": 113, "channel": 0}, {"type": "note_off", "time": 1125, "note": 77, "velocity": 113, "channel": 0}, {"type": "note_on", "time": 122, "note": 75, "velocity": 108, "channel": 0}, {"type": "note_off", "time": 1566, "note": 75, "velocity": 108, "channel": 0}, {"type": "note_on", "time": 501, "note": 73, "velocity": 112, "channel": 0}, {"type": "note_off", "time": 3046, "note": 73, "velocity": 112, "channel": 0}, {"type": "note_on", "time": 1015, "note": 71, "velocity": 112, "channel": 0}, {"type": "note_off", "time": 5784, "note": 71, "velocity": 112, "channel": 0}, {"type": "note_on", "time": 961, "note": 66, "velocity": 109, "channel": 0}, {"type": "note_off", "time": 1886, "note": 66, "velocity": 109, "channel": 0}, {"type": "note_on", "time": 7848, "note": 66, "velocity": 95, "channel": 0}, {"type": "note_off", "time": 622, "note": 66, "velocity": 95, "channel": 0}, {"type": "note_on", "time": 2527, "note": 75, "velocity": 110, "channel": 0}, {"type": "note_off", "time": 9682, "note": 75, "velocity": 110, "channel": 0}, {"type": "note_on", "time": 302, "note": 73, "velocity": 113, "channel": 0}, {"type": "note_off", "time": 6033, "note": 73, "velocity": 113, "channel": 0}, {"type": "note_on", "time": 1906, "note": 71, "velocity": 108, "channel": 0}, {"type": "note_off", "time": 3804, "note": 71, "velocity": 108, "channel": 0}, {"type": "note_on", "time": 6457, "note": 66, "velocity": 112, "channel": 0}, {"type": "note_off", "time": 10161, "note": 66, "velocity": 112, "channel": 0}, {"type": "note_on", "time": 3028, "note": 75, "velocity": 116, "channel": 0}, {"type": "note_off", "time": 6056, "note": 75, "velocity": 116, "channel": 0}, {"type": "note_on", "time": 25, "note": 77, "velocity": 106, "channel": 0}, {"type": "note_off", "time": 1476, "note": 77, "velocity": 106, "channel": 0}, {"type": "note_on", "time": 175, "note": 75, "velocity": 111, "channel": 0}, {"type": "note_off", "time": 1726, "note": 75, "velocity": 111, "channel": 0}, {"type": "note_on", "time": 1061, "note": 73, "velocity": 114, "channel": 0}, {"type": "note_off", "time": 5570, "note": 73, "velocity": 114, "channel": 0}, {"type": "note_on", "time": 836, "note": 73, "velocity": 114, "channel": 0}, {"type": "note_off", "time": 3363, "note": 73, "velocity": 114, "channel": 0}, {"type": "note_on", "time": 480, "note": 71, "velocity": 109, "channel": 0}, {"type": "note_off", "time": 5588, "note": 71, "velocity": 109, "channel": 0}, {"type": "note_on", "time": 640, "note": 71, "velocity": 108, "channel": 0}, {"type": "note_off", "time": 3328, "note": 71, "velocity": 108, "channel": 0}, {"type": "note_on", "time": 516, "note": 66, "velocity": 106, "channel": 0}, {"type": "note_off", "time": 2331, "note": 66, "velocity": 106, "channel": 0}, {"type": "note_on", "time": 43833, "note": 77, "velocity": 109, "channel": 0}, {"type": "note_off", "time": 2352, "note": 77, "velocity": 109, "channel": 0}, {"type": "note_on", "time": 1576, "note": 80, "velocity": 114, "channel": 0}, {"type": "note_off", "time": 4380, "note": 80, "velocity": 114, "channel": 0}, {"type": "note_on", "time": 1026, "note": 81, "velocity": 112, "channel": 0}, {"type": "note_off", "time": 3303, "note": 81, "velocity": 112, "channel": 0}, {"type": "note_on", "time": 1176, "note": 82, "velocity": 112, "channel": 0}, {"type": "note_off", "time": 4955, "note": 82, "velocity": 112, "channel": 0}, {"type": "note_on", "time": 875, "note": 83, "velocity": 111, "channel": 0}, {"type": "note_off", "time": 3804, "note": 83, "velocity": 111, "channel": 0}, {"type": "note_on", "time": 1601, "note": 84, "velocity": 112, "channel": 0}, {"type": "note_off", "time": 4905, "note": 84, "velocity": 112, "channel": 0}, {"type": "note_on", "time": 4183, "note": 80, "velocity": 110, "channel": 0}, {"type": "note_off", "time": 1762, "note": 80, "velocity": 110, "channel": 0}, {"type": "note_on", "time": 85, "note": 79, "velocity": 111, "channel": 0}, {"type": "note_off", "time": 1590, "note": 79, "velocity": 111, "channel": 0}, {"type": "note_on", "time": 281, "note": 81, "velocity": 112, "channel": 0}, {"type": "note_off", "time": 2104, "note": 81, "velocity": 112, "channel": 0}, {"type": "note_on", "time": 3517, "note": 77, "velocity": 112, "channel": 0}, {"type": "note_off", "time": 6656, "note": 77, "velocity": 112, "channel": 0}, {"type": "note_on", "time": 1418, "note": 78, "velocity": 108, "channel": 0}, {"type": "note_off", "time": 951, "note": 78, "velocity": 108, "channel": 0}, {"type": "note_on", "time": 175, "note": 77, "velocity": 101, "channel": 0}, {"type": "note_off", "time": 1251, "note": 77, "velocity": 101, "channel": 0}, {"type": "note_on", "time": 16694, "note": 77, "velocity": 116, "channel": 0}, {"type": "note_off", "time": 1749, "note": 77, "velocity": 116, "channel": 0}, {"type": "note_on", "time": 1027, "note": 82, "velocity": 116, "channel": 0}, {"type": "note_off", "time": 2178, "note": 82, "velocity": 116, "channel": 0}, {"type": "note_on", "time": 1309, "note": 82, "velocity": 111, "channel": 0}, {"type": "note_off", "time": 2422, "note": 82, "velocity": 111, "channel": 0}, {"type": "note_on", "time": 624, "note": 83, "velocity": 113, "channel": 0}, {"type": "note_off", "time": 3169, "note": 83, "velocity": 113, "channel": 0}, {"type": "note_on", "time": 305, "note": 82, "velocity": 106, "channel": 0}, {"type": "note_off", "time": 3010, "note": 82, "velocity": 106, "channel": 0}, {"type": "note_on", "time": 599, "note": 80, "velocity": 112, "channel": 0}, {"type": "note_off", "time": 2704, "note": 80, "velocity": 112, "channel": 0}, {"type": "note_on", "time": 587, "note": 77, "velocity": 110, "channel": 0}, {"type": "note_off", "time": 2789, "note": 77, "velocity": 110, "channel": 0}, {"type": "note_on", "time": 1125, "note": 75, "velocity": 110, "channel": 0}, {"type": "note_off", "time": 2814, "note": 75, "velocity": 110, "channel": 0}, {"type": "note_on", "time": 648, "note": 72, "velocity": 109, "channel": 0}, {"type": "note_off", "time": 2728, "note": 72, "velocity": 109, "channel": 0}, {"type": "note_on", "time": 342, "note": 71, "velocity": 112, "channel": 0}, {"type": "note_off", "time": 2740, "note": 71, "velocity": 112, "channel": 0}, {"type": "note_on", "time": 636, "note": 70, "velocity": 107, "channel": 0}, {"type": "note_off", "time": 3230, "note": 70, "velocity": 107, "channel": 0}, {"type": "note_on", "time": 489, "note": 68, "velocity": 111, "channel": 0}, {"type": "note_off", "time": 2606, "note": 68, "velocity": 111, "channel": 0}, {"type": "note_on", "time": 526, "note": 65, "velocity": 110, "channel": 0}, {"type": "note_off", "time": 2557, "note": 65, "velocity": 110, "channel": 0}, {"type": "note_on", "time": 1272, "note": 63, "velocity": 107, "channel": 0}, {"type": "note_off", "time": 2936, "note": 63, "velocity": 107, "channel": 0}, {"type": "note_on", "time": 720, "note": 61, "velocity": 108, "channel": 0}, {"type": "note_off", "time": 2954, "note": 61, "velocity": 108, "channel": 0}, {"type": "note_on", "time": 569, "note": 60, "velocity": 103, "channel": 0}, {"type": "note_off", "time": 2705, "note": 60, "velocity": 103, "channel": 0}, {"type": "note_on", "time": 516, "note": 58, "velocity": 108, "channel": 0}, {"type": "note_off", "time": 3096, "note": 58, "velocity": 108, "channel": 0}, {"type": "note_on", "time": 338, "note": 56, "velocity": 105, "channel": 0}, {"type": "note_off", "time": 2527, "note": 56, "velocity": 105, "channel": 0}, {"type": "note_on", "time": 373, "note": 53, "velocity": 106, "channel": 0}, {"type": "note_off", "time": 2740, "note": 53, "velocity": 106, "channel": 0}, {"type": "note_on", "time": 284, "note": 56, "velocity": 109, "channel": 0}, {"type": "note_off", "time": 3879, "note": 56, "velocity": 109, "channel": 0}, {"type": "note_on", "time": 622, "note": 53, "velocity": 109, "channel": 0}, {"type": "note_off", "time": 2313, "note": 53, "velocity": 109, "channel": 0}, {"type": "note_on", "time": 427, "note": 56, "velocity": 110, "channel": 0}, {"type": "note_off", "time": 3897, "note": 56, "velocity": 110, "channel": 0}, {"type": "note_on", "time": 765, "note": 53, "velocity": 101, "channel": 0}, {"type": "note_off", "time": 2135, "note": 53, "velocity": 101, "channel": 0}, {"type": "note_on", "time": 302, "note": 56, "velocity": 112, "channel": 0}, {"type": "note_off", "time": 4057, "note": 56, "velocity": 112, "channel": 0}, {"type": "note_on", "time": 355, "note": 53, "velocity": 92, "channel": 0}, {"type": "note_off", "time": 2117, "note": 53, "velocity": 92, "channel": 0}, {"type": "note_on", "time": 409, "note": 56, "velocity": 110, "channel": 0}, {"type": "note_off", "time": 4093, "note": 56, "velocity": 110, "channel": 0}, {"type": "note_on", "time": 427, "note": 53, "velocity": 98, "channel": 0}, {"type": "note_off", "time": 2420, "note": 53, "velocity": 98, "channel": 0}, {"type": "note_on", "time": 355, "note": 56, "velocity": 106, "channel": 0}, {"type": "note_off", "time": 4342, "note": 56, "velocity": 106, "channel": 0}, {"type": "note_on", "time": 409, "note": 53, "velocity": 105, "channel": 0}, {"type": "note_off", "time": 1851, "note": 53, "velocity": 105, "channel": 0}, {"type": "note_on", "time": 195, "note": 56, "velocity": 111, "channel": 0}, {"type": "note_off", "time": 3862, "note": 56, "velocity": 111, "channel": 0}, {"type": "note_on", "time": 302, "note": 53, "velocity": 98, "channel": 0}, {"type": "note_off", "time": 2028, "note": 53, "velocity": 98, "channel": 0}, {"type": "note_on", "time": 231, "note": 56, "velocity": 110, "channel": 0}, {"type": "note_off", "time": 4182, "note": 56, "velocity": 110, "channel": 0}, {"type": "note_on", "time": 373, "note": 53, "velocity": 95, "channel": 0}, {"type": "note_off", "time": 1548, "note": 53, "velocity": 95, "channel": 0}, {"type": "note_on", "time": 320, "note": 56, "velocity": 111, "channel": 0}, {"type": "note_off", "time": 4360, "note": 56, "velocity": 111, "channel": 0}, {"type": "note_on", "time": 729, "note": 53, "velocity": 105, "channel": 0}, {"type": "note_off", "time": 1352, "note": 53, "velocity": 105, "channel": 0}, {"type": "note_on", "time": 480, "note": 56, "velocity": 111, "channel": 0}, {"type": "note_off", "time": 4485, "note": 56, "velocity": 111, "channel": 0}, {"type": "note_on", "time": 516, "note": 53, "velocity": 103, "channel": 0}, {"type": "note_off", "time": 711, "note": 53, "velocity": 103, "channel": 0}, {"type": "note_on", "time": 338, "note": 56, "velocity": 109, "channel": 0}, {"type": "note_off", "time": 4823, "note": 56, "velocity": 109, "channel": 0}, {"type": "note_on", "time": 444, "note": 53, "velocity": 108, "channel": 0}, {"type": "note_off", "time": 770, "note": 53, "velocity": 108, "channel": 0}, {"type": "note_on", "time": 232, "note": 56, "velocity": 127, "channel": 0}, {"type": "note_off", "time": 3205, "note": 56, "velocity": 127, "channel": 0}, {"type": "note_on", "time": 311, "note": 53, "velocity": 119, "channel": 0}, {"type": "note_off", "time": 5161, "note": 53, "velocity": 119, "channel": 0}, {"type": "note_on", "time": 818, "note": 53, "velocity": 104, "channel": 0}, {"type": "note_off", "time": 7404, "note": 53, "velocity": 104, "channel": 0}, {"type": "note_on", "time": 23278, "note": 75, "velocity": 113, "channel": 0}, {"type": "note_off", "time": 4054, "note": 75, "velocity": 113, "channel": 0}, {"type": "note_on", "time": 782, "note": 71, "velocity": 113, "channel": 0}, {"type": "note_off", "time": 2875, "note": 71, "velocity": 113, "channel": 0}, {"type": "note_on", "time": 61, "note": 73, "velocity": 110, "channel": 0}, {"type": "note_off", "time": 1566, "note": 73, "velocity": 110, "channel": 0}, {"type": "note_on", "time": 232, "note": 69, "velocity": 107, "channel": 0}, {"type": "note_off", "time": 2067, "note": 69, "velocity": 107, "channel": 0}, {"type": "note_on", "time": 122, "note": 66, "velocity": 111, "channel": 0}, {"type": "note_off", "time": 2667, "note": 66, "velocity": 111, "channel": 0}, {"type": "note_on", "time": 832, "note": 64, "velocity": 112, "channel": 0}, {"type": "note_off", "time": 2092, "note": 64, "velocity": 112, "channel": 0}, {"type": "note_on", "time": 330, "note": 63, "velocity": 107, "channel": 0}, {"type": "note_off", "time": 1443, "note": 63, "velocity": 107, "channel": 0}, {"type": "note_on", "time": 636, "note": 60, "velocity": 110, "channel": 0}, {"type": "note_off", "time": 2080, "note": 60, "velocity": 110, "channel": 0}, {"type": "note_on", "time": 709, "note": 61, "velocity": 105, "channel": 0}, {"type": "note_off", "time": 4135, "note": 61, "velocity": 105, "channel": 0}, {"type": "note_on", "time": 1407, "note": 57, "velocity": 108, "channel": 0}, {"type": "note_off", "time": 2557, "note": 57, "velocity": 108, "channel": 0}, {"type": "note_on", "time": 526, "note": 56, "velocity": 109, "channel": 0}, {"type": "note_off", "time": 3291, "note": 56, "velocity": 109, "channel": 0}, {"type": "note_on", "time": 1186, "note": 54, "velocity": 110, "channel": 0}, {"type": "note_off", "time": 2067, "note": 54, "velocity": 110, "channel": 0}, {"type": "note_on", "time": 489, "note": 59, "velocity": 107, "channel": 0}, {"type": "note_off", "time": 3499, "note": 59, "velocity": 107, "channel": 0}, {"type": "note_on", "time": 23229, "note": 65, "velocity": 111, "channel": 0}, {"type": "note_off", "time": 6051, "note": 65, "velocity": 111, "channel": 0}, {"type": "note_on", "time": 1281, "note": 63, "velocity": 112, "channel": 0}, {"type": "note_off", "time": 2651, "note": 63, "velocity": 112, "channel": 0}, {"type": "note_on", "time": 320, "note": 62, "velocity": 110, "channel": 0}, {"type": "note_off", "time": 1868, "note": 62, "velocity": 110, "channel": 0}, {"type": "note_on", "time": 462, "note": 63, "velocity": 110, "channel": 0}, {"type": "note_off", "time": 1690, "note": 63, "velocity": 110, "channel": 0}, {"type": "note_on", "time": 142, "note": 62, "velocity": 112, "channel": 0}, {"type": "note_off", "time": 1495, "note": 62, "velocity": 112, "channel": 0}, {"type": "note_on", "time": 747, "note": 60, "velocity": 109, "channel": 0}, {"type": "note_off", "time": 1939, "note": 60, "velocity": 109, "channel": 0}, {"type": "note_on", "time": 1868, "note": 58, "velocity": 113, "channel": 0}, {"type": "note_off", "time": 5802, "note": 58, "velocity": 113, "channel": 0}, {"type": "note_on", "time": 551, "note": 57, "velocity": 108, "channel": 0}, {"type": "note_off", "time": 3719, "note": 57, "velocity": 108, "channel": 0}, {"type": "note_on", "time": 800, "note": 56, "velocity": 108, "channel": 0}, {"type": "note_off", "time": 5553, "note": 56, "velocity": 108, "channel": 0}, {"type": "note_on", "time": 783, "note": 55, "velocity": 110, "channel": 0}, {"type": "note_off", "time": 4396, "note": 55, "velocity": 110, "channel": 0}, {"type": "note_on", "time": 658, "note": 53, "velocity": 109, "channel": 0}, {"type": "note_off", "time": 4574, "note": 53, "velocity": 109, "channel": 0}, {"type": "note_on", "time": 889, "note": 55, "velocity": 103, "channel": 0}, {"type": "note_off", "time": 3595, "note": 55, "velocity": 103, "channel": 0}, {"type": "note_on", "time": 373, "note": 56, "velocity": 108, "channel": 0}, {"type": "note_off", "time": 6496, "note": 56, "velocity": 108, "channel": 0}, {"type": "note_on", "time": 605, "note": 59, "velocity": 109, "channel": 0}, {"type": "note_off", "time": 3506, "note": 59, "velocity": 109, "channel": 0}, {"type": "note_on", "time": 547, "note": 60, "velocity": 104, "channel": 0}, {"type": "note_off", "time": 5080, "note": 60, "velocity": 104, "channel": 0}, {"type": "note_on", "time": 1226, "note": 65, "velocity": 97, "channel": 0}, {"type": "note_off", "time": 11563, "note": 65, "velocity": 97, "channel": 0}, {"type": "note_on", "time": 19634, "note": 65, "velocity": 112, "channel": 0}, {"type": "note_off", "time": 2918, "note": 65, "velocity": 112, "channel": 0}, {"type": "note_on", "time": 1156, "note": 68, "velocity": 116, "channel": 0}, {"type": "note_off", "time": 3684, "note": 68, "velocity": 116, "channel": 0}, {"type": "note_on", "time": 355, "note": 65, "velocity": 115, "channel": 0}, {"type": "note_off", "time": 1495, "note": 65, "velocity": 115, "channel": 0}, {"type": "note_on", "time": 694, "note": 67, "velocity": 113, "channel": 0}, {"type": "note_off", "time": 3043, "note": 67, "velocity": 113, "channel": 0}, {"type": "note_on", "time": 409, "note": 65, "velocity": 111, "channel": 0}, {"type": "note_off", "time": 5606, "note": 65, "velocity": 111, "channel": 0}, {"type": "note_on", "time": 1423, "note": 62, "velocity": 109, "channel": 0}, {"type": "note_off", "time": 1868, "note": 62, "velocity": 109, "channel": 0}, {"type": "note_on", "time": 1833, "note": 68, "velocity": 114, "channel": 0}, {"type": "note_off", "time": 2502, "note": 68, "velocity": 114, "channel": 0}, {"type": "note_on", "time": 625, "note": 65, "velocity": 113, "channel": 0}, {"type": "note_off", "time": 1351, "note": 65, "velocity": 113, "channel": 0}, {"type": "note_on", "time": 876, "note": 67, "velocity": 112, "channel": 0}, {"type": "note_off", "time": 3203, "note": 67, "velocity": 112, "channel": 0}, {"type": "note_on", "time": 1126, "note": 65, "velocity": 106, "channel": 0}, {"type": "note_off", "time": 7328, "note": 65, "velocity": 106, "channel": 0}, {"type": "note_on", "time": 0, "note": 62, "velocity": 106, "channel": 0}, {"type": "note_off", "time": 1637, "note": 62, "velocity": 106, "channel": 0}, {"type": "note_on", "time": 29616, "note": 62, "velocity": 115, "channel": 0}, {"type": "note_off", "time": 1228, "note": 62, "velocity": 115, "channel": 0}, {"type": "note_on", "time": 978, "note": 66, "velocity": 114, "channel": 0}, {"type": "note_off", "time": 1139, "note": 66, "velocity": 114, "channel": 0}, {"type": "note_on", "time": 373, "note": 67, "velocity": 114, "channel": 0}, {"type": "note_off", "time": 978, "note": 67, "velocity": 114, "channel": 0}, {"type": "note_on", "time": 160, "note": 69, "velocity": 109, "channel": 0}, {"type": "note_off", "time": 1245, "note": 69, "velocity": 109, "channel": 0}, {"type": "note_on", "time": 533, "note": 71, "velocity": 116, "channel": 0}, {"type": "note_off", "time": 1245, "note": 71, "velocity": 116, "channel": 0}, {"type": "note_on", "time": 106, "note": 72, "velocity": 104, "channel": 0}, {"type": "note_off", "time": 676, "note": 72, "velocity": 104, "channel": 0}, {"type": "note_on", "time": 53, "note": 74, "velocity": 115, "channel": 0}, {"type": "note_off", "time": 1708, "note": 74, "velocity": 115, "channel": 0}, {"type": "note_on", "time": 399, "note": 73, "velocity": 113, "channel": 0}, {"type": "note_off", "time": 9311, "note": 73, "velocity": 113, "channel": 0}, {"type": "note_on", "time": 122, "note": 71, "velocity": 112, "channel": 0}, {"type": "note_off", "time": 2190, "note": 71, "velocity": 112, "channel": 0}, {"type": "note_on", "time": 110, "note": 69, "velocity": 109, "channel": 0}, {"type": "note_off", "time": 1272, "note": 69, "velocity": 109, "channel": 0}, {"type": "note_on", "time": 298, "note": 68, "velocity": 108, "channel": 0}, {"type": "note_off", "time": 978, "note": 68, "velocity": 108, "channel": 0}, {"type": "note_on", "time": 195, "note": 67, "velocity": 109, "channel": 0}, {"type": "note_off", "time": 2278, "note": 67, "velocity": 109, "channel": 0}, {"type": "note_on", "time": 338, "note": 65, "velocity": 105, "channel": 0}, {"type": "note_off", "time": 1548, "note": 65, "velocity": 105, "channel": 0}, {"type": "note_on", "time": 213, "note": 64, "velocity": 112, "channel": 0}, {"type": "note_off", "time": 1228, "note": 64, "velocity": 112, "channel": 0}, {"type": "note_on", "time": 302, "note": 62, "velocity": 112, "channel": 0}, {"type": "note_off", "time": 2206, "note": 62, "velocity": 112, "channel": 0}, {"type": "note_on", "time": 775, "note": 61, "velocity": 107, "channel": 0}, {"type": "note_off", "time": 5616, "note": 61, "velocity": 107, "channel": 0}, {"type": "note_on", "time": 30414, "note": 76, "velocity": 117, "channel": 0}, {"type": "note_off", "time": 2616, "note": 76, "velocity": 117, "channel": 0}, {"type": "note_on", "time": 1673, "note": 79, "velocity": 114, "channel": 0}, {"type": "note_off", "time": 4769, "note": 79, "velocity": 114, "channel": 0}, {"type": "note_on", "time": 587, "note": 83, "velocity": 112, "channel": 0}, {"type": "note_off", "time": 3951, "note": 83, "velocity": 112, "channel": 0}, {"type": "note_on", "time": 391, "note": 81, "velocity": 112, "channel": 0}, {"type": "note_off", "time": 4449, "note": 81, "velocity": 112, "channel": 0}, {"type": "note_on", "time": 1299, "note": 79, "velocity": 113, "channel": 0}, {"type": "note_off", "time": 2687, "note": 79, "velocity": 113, "channel": 0}, {"type": "note_on", "time": 2384, "note": 78, "velocity": 112, "channel": 0}, {"type": "note_off", "time": 4787, "note": 78, "velocity": 112, "channel": 0}, {"type": "note_on", "time": 462, "note": 75, "velocity": 111, "channel": 0}, {"type": "note_off", "time": 3933, "note": 75, "velocity": 111, "channel": 0}, {"type": "note_on", "time": 622, "note": 71, "velocity": 112, "channel": 0}, {"type": "note_off", "time": 4716, "note": 71, "velocity": 112, "channel": 0}, {"type": "note_on", "time": 213, "note": 73, "velocity": 112, "channel": 0}, {"type": "note_off", "time": 3702, "note": 73, "velocity": 112, "channel": 0}, {"type": "note_on", "time": 1441, "note": 66, "velocity": 109, "channel": 0}, {"type": "note_off", "time": 4040, "note": 66, "velocity": 109, "channel": 0}, {"type": "note_on", "time": 1406, "note": 68, "velocity": 111, "channel": 0}, {"type": "note_off", "time": 3506, "note": 68, "velocity": 111, "channel": 0}, {"type": "note_on", "time": 954, "note": 60, "velocity": 108, "channel": 0}, {"type": "note_off", "time": 5080, "note": 60, "velocity": 108, "channel": 0}, {"type": "note_on", "time": 625, "note": 61, "velocity": 111, "channel": 0}, {"type": "note_off", "time": 2277, "note": 61, "velocity": 111, "channel": 0}, {"type": "note_on", "time": 18396, "note": 69, "velocity": 114, "channel": 0}, {"type": "note_off", "time": 1601, "note": 69, "velocity": 114, "channel": 0}, {"type": "note_on", "time": 3491, "note": 72, "velocity": 112, "channel": 0}, {"type": "note_off", "time": 1156, "note": 72, "velocity": 112, "channel": 0}, {"type": "note_on", "time": 302, "note": 73, "velocity": 113, "channel": 0}, {"type": "note_off", "time": 1103, "note": 73, "velocity": 113, "channel": 0}, {"type": "note_on", "time": 106, "note": 72, "velocity": 110, "channel": 0}, {"type": "note_off", "time": 889, "note": 72, "velocity": 110, "channel": 0}, {"type": "note_on", "time": 747, "note": 71, "velocity": 113, "channel": 0}, {"type": "note_off", "time": 4040, "note": 71, "velocity": 113, "channel": 0}, {"type": "note_on", "time": 1014, "note": 70, "velocity": 111, "channel": 0}, {"type": "note_off", "time": 4449, "note": 70, "velocity": 111, "channel": 0}, {"type": "note_on", "time": 1210, "note": 69, "velocity": 108, "channel": 0}, {"type": "note_off", "time": 4057, "note": 69, "velocity": 108, "channel": 0}, {"type": "note_on", "time": 658, "note": 67, "velocity": 108, "channel": 0}, {"type": "note_off", "time": 5392, "note": 67, "velocity": 108, "channel": 0}, {"type": "note_on", "time": 1587, "note": 62, "velocity": 110, "channel": 0}, {"type": "note_off", "time": 10612, "note": 62, "velocity": 110, "channel": 0}, {"type": "note_on", "time": 2056, "note": 66, "velocity": 102, "channel": 0}, {"type": "note_off", "time": 6264, "note": 66, "velocity": 102, "channel": 0}, {"type": "note_on", "time": 943, "note": 62, "velocity": 109, "channel": 0}, {"type": "note_off", "time": 2295, "note": 62, "velocity": 109, "channel": 0}, {"type": "note_on", "time": 605, "note": 65, "velocity": 112, "channel": 0}, {"type": "note_off", "time": 6389, "note": 65, "velocity": 112, "channel": 0}, {"type": "note_on", "time": 516, "note": 63, "velocity": 106, "channel": 0}, {"type": "note_off", "time": 28797, "note": 63, "velocity": 106, "channel": 0}, {"type": "note_on", "time": 818, "note": 61, "velocity": 107, "channel": 0}, {"type": "note_off", "time": 2349, "note": 61, "velocity": 107, "channel": 0}, {"type": "note_on", "time": 1032, "note": 66, "velocity": 107, "channel": 0}, {"type": "note_off", "time": 7902, "note": 66, "velocity": 107, "channel": 0}, {"type": "note_on", "time": 427, "note": 68, "velocity": 110, "channel": 0}, {"type": "note_off", "time": 1245, "note": 68, "velocity": 110, "channel": 0}, {"type": "note_on", "time": 249, "note": 70, "velocity": 108, "channel": 0}, {"type": "note_off", "time": 925, "note": 70, "velocity": 108, "channel": 0}, {"type": "note_on", "time": 177, "note": 71, "velocity": 112, "channel": 0}, {"type": "note_off", "time": 2349, "note": 71, "velocity": 112, "channel": 0}, {"type": "note_on", "time": 462, "note": 73, "velocity": 115, "channel": 0}, {"type": "note_off", "time": 5517, "note": 73, "velocity": 115, "channel": 0}, {"type": "note_on", "time": 249, "note": 71, "velocity": 109, "channel": 0}, {"type": "note_off", "time": 1370, "note": 71, "velocity": 109, "channel": 0}, {"type": "note_on", "time": 338, "note": 70, "velocity": 100, "channel": 0}, {"type": "note_off", "time": 622, "note": 70, "velocity": 100, "channel": 0}, {"type": "note_on", "time": 195, "note": 68, "velocity": 107, "channel": 0}, {"type": "note_off", "time": 1708, "note": 68, "velocity": 107, "channel": 0}, {"type": "note_on", "time": 284, "note": 67, "velocity": 106, "channel": 0}, {"type": "note_off", "time": 800, "note": 67, "velocity": 106, "channel": 0}, {"type": "note_on", "time": 390, "note": 66, "velocity": 103, "channel": 0}, {"type": "note_off", "time": 10762, "note": 66, "velocity": 103, "channel": 0}, {"type": "note_on", "time": 28145, "note": 71, "velocity": 112, "channel": 0}, {"type": "note_off", "time": 6603, "note": 71, "velocity": 112, "channel": 0}, {"type": "note_on", "time": 3417, "note": 71, "velocity": 111, "channel": 0}, {"type": "note_off", "time": 16925, "note": 71, "velocity": 111, "channel": 0}, {"type": "note_on", "time": 3292, "note": 70, "velocity": 107, "channel": 0}, {"type": "note_off", "time": 6051, "note": 70, "velocity": 107, "channel": 0}, {"type": "note_on", "time": 872, "note": 66, "velocity": 109, "channel": 0}, {"type": "note_off", "time": 3061, "note": 66, "velocity": 109, "channel": 0}, {"type": "note_on", "time": 309, "note": 68, "velocity": 9, "channel": 0}, {"type": "note_off", "time": 19271, "note": 68, "velocity": 9, "channel": 0}, {"type": "note_on", "time": 548, "note": 66, "velocity": 111, "channel": 0}, {"type": "note_off", "time": 5072, "note": 66, "velocity": 111, "channel": 0}, {"type": "note_on", "time": 1744, "note": 63, "velocity": 106, "channel": 0}, {"type": "note_off", "time": 18029, "note": 63, "velocity": 106, "channel": 0}, {"type": "note_on", "time": 605, "note": 66, "velocity": 111, "channel": 0}, {"type": "note_off", "time": 3292, "note": 66, "velocity": 111, "channel": 0}, {"type": "note_on", "time": 691, "note": 68, "velocity": 112, "channel": 0}, {"type": "note_off", "time": 5781, "note": 68, "velocity": 112, "channel": 0}, {"type": "note_on", "time": 775, "note": 65, "velocity": 93, "channel": 0}, {"type": "note_off", "time": 976, "note": 65, "velocity": 93, "channel": 0}, {"type": "note_on", "time": 34276, "note": 75, "velocity": 114, "channel": 0}, {"type": "note_off", "time": 1655, "note": 75, "velocity": 114, "channel": 0}, {"type": "note_on", "time": 177, "note": 74, "velocity": 117, "channel": 0}, {"type": "note_off", "time": 1334, "note": 74, "velocity": 117, "channel": 0}, {"type": "note_on", "time": 231, "note": 75, "velocity": 116, "channel": 0}, {"type": "note_off", "time": 1779, "note": 75, "velocity": 116, "channel": 0}, {"type": "note_on", "time": 605, "note": 71, "velocity": 112, "channel": 0}, {"type": "note_off", "time": 2776, "note": 71, "velocity": 112, "channel": 0}, {"type": "note_on", "time": 978, "note": 70, "velocity": 113, "channel": 0}, {"type": "note_off", "time": 2171, "note": 70, "velocity": 113, "channel": 0}, {"type": "note_on", "time": 622, "note": 68, "velocity": 112, "channel": 0}, {"type": "note_off", "time": 3363, "note": 68, "velocity": 112, "channel": 0}, {"type": "note_on", "time": 711, "note": 65, "velocity": 112, "channel": 0}, {"type": "note_off", "time": 1334, "note": 65, "velocity": 112, "channel": 0}, {"type": "note_on", "time": 1389, "note": 63, "velocity": 110, "channel": 0}, {"type": "note_off", "time": 1777, "note": 63, "velocity": 110, "channel": 0}, {"type": "note_on", "time": 400, "note": 60, "velocity": 106, "channel": 0}, {"type": "note_off", "time": 1451, "note": 60, "velocity": 106, "channel": 0}, {"type": "note_on", "time": 926, "note": 58, "velocity": 109, "channel": 0}, {"type": "note_off", "time": 1852, "note": 58, "velocity": 109, "channel": 0}, {"type": "note_on", "time": 825, "note": 56, "velocity": 105, "channel": 0}, {"type": "note_off", "time": 1802, "note": 56, "velocity": 105, "channel": 0}, {"type": "note_on", "time": 875, "note": 57, "velocity": 107, "channel": 0}, {"type": "note_off", "time": 2402, "note": 57, "velocity": 107, "channel": 0}, {"type": "note_on", "time": 825, "note": 65, "velocity": 107, "channel": 0}, {"type": "note_off", "time": 22675, "note": 65, "velocity": 107, "channel": 0}, {"type": "note_on", "time": 3954, "note": 65, "velocity": 108, "channel": 0}, {"type": "note_off", "time": 4204, "note": 65, "velocity": 108, "channel": 0}, {"type": "note_on", "time": 2252, "note": 65, "velocity": 103, "channel": 0}, {"type": "note_off", "time": 9210, "note": 65, "velocity": 103, "channel": 0}, {"type": "end_of_track", "time": 0}]]}