{"ticks_per_beat": 2520, "tracks": [[{"type": "track_name", "name": "Melody", "time": 0}, {"type": "set_tempo", "tempo": 476190, "time": 0}, {"type": "time_signature", "numerator": 4, "denominator": 4, "clocks_per_click": 24, "notated_32nd_notes_per_beat": 8, "time": 0}, {"type": "note_on", "time": 40024, "note": 62, "velocity": 94, "channel": 0}, {"type": "note_off", "time": 1036, "note": 62, "velocity": 94, "channel": 0}, {"type": "note_on", "time": 0, "note": 64, "velocity": 101, "channel": 0}, {"type": "note_off", "time": 1188, "note": 64, "velocity": 101, "channel": 0}, {"type": "note_on", "time": 108, "note": 62, "velocity": 95, "channel": 0}, {"type": "note_off", "time": 1101, "note": 62, "velocity": 95, "channel": 0}, {"type": "note_on", "time": 172, "note": 69, "velocity": 117, "channel": 0}, {"type": "note_off", "time": 1252, "note": 69, "velocity": 117, "channel": 0}, {"type": "note_on", "time": 64, "note": 71, "velocity": 114, "channel": 0}, {"type": "note_off", "time": 1166, "note": 71, "velocity": 114, "channel": 0}, {"type": "note_on", "time": 323, "note": 62, "velocity": 97, "channel": 0}, {"type": "note_off", "time": 2138, "note": 62, "velocity": 97, "channel": 0}, {"type": "note_on", "time": 43, "note": 64, "velocity": 106, "channel": 0}, {"type": "note_off", "time": 1404, "note": 64, "velocity": 106, "channel": 0}, {"type": "note_on", "time": 108, "note": 62, "velocity": 96, "channel": 0}, {"type": "note_off", "time": 928, "note": 62, "velocity": 96, "channel": 0}, {"type": "note_on", "time": 0, "note": 67, "velocity": 104, "channel": 0}, {"type": "note_off", "time": 28010, "note": 67, "velocity": 104, "channel": 0}, {"type": "note_on", "time": 245, "note": 67, "velocity": 99, "channel": 0}, {"type": "note_off", "time": 430, "note": 67, "velocity": 99, "channel": 0}, {"type": "note_on", "time": 0, "note": 69, "velocity": 98, "channel": 0}, {"type": "note_off", "time": 399, "note": 69, "velocity": 98, "channel": 0}, {"type": "note_on", "time": 184, "note": 72, "velocity": 94, "channel": 0}, {"type": "note_off", "time": 368, "note": 72, "velocity": 94, "channel": 0}, {"type": "note_on", "time": 153, "note": 74, "velocity": 104, "channel": 0}, {"type": "note_on", "time": 583, "note": 72, "velocity": 100, "channel": 0}, {"type": "note_off", "time": 0, "note": 74, "velocity": 104, "channel": 0}, {"type": "note_off", "time": 430, "note": 72, "velocity": 100, "channel": 0}, {"type": "note_on", "time": 153, "note": 69, "velocity": 97, "channel": 0}, {"type": "note_off", "time": 337, "note": 69, "velocity": 97, "channel": 0}, {"type": "note_on", "time": 184, "note": 67, "velocity": 98, "channel": 0}, {"type": "note_off", "time": 2580, "note": 67, "velocity": 98, "channel": 0}, {"type": "note_on", "time": 0, "note": 66, "velocity": 98, "channel": 0}, {"type": "note_off", "time": 276, "note": 66, "velocity": 98, "channel": 0}, {"type": "note_on", "time": 122, "note": 65, "velocity": 110, "channel": 0}, {"type": "note_off", "time": 337, "note": 65, "velocity": 110, "channel": 0}, {"type": "note_on", "time": 61, "note": 64, "velocity": 102, "channel": 0}, {"type": "note_off", "time": 337, "note": 64, "velocity": 102, "channel": 0}, {"type": "note_on", "time": 92, "note": 62, "velocity": 97, "channel": 0}, {"type": "note_off", "time": 552, "note": 62, "velocity": 97, "channel": 0}, {"type": "note_on", "time": 215, "note": 60, "velocity": 87, "channel": 0}, {"type": "note_off", "time": 3962, "note": 60, "velocity": 87, "channel": 0}, {"type": "note_on", "time": 10352, "note": 74, "velocity": 127, "channel": 0}, {"type": "note_off", "time": 2365, "note": 74, "velocity": 127, "channel": 0}, {"type": "note_on", "time": 0, "note": 76, "velocity": 118, "channel": 0}, {"type": "note_on", "time": 1628, "note": 74, "velocity": 120, "channel": 0}, {"type": "note_off", "time": 0, "note": 76, "velocity": 118, "channel": 0}, {"type": "note_off", "time": 1566, "note": 74, "velocity": 120, "channel": 0}, {"type": "note_on", "time": 184, "note": 76, "velocity": 118, "channel": 0}, {"type": "note_off", "time": 1505, "note": 76, "velocity": 118, "channel": 0}, {"type": "note_on", "time": 0, "note": 74, "velocity": 120, "channel": 0}, {"type": "note_off", "time": 1228, "note": 74, "velocity": 120, "channel": 0}, {"type": "note_on", "time": 122, "note": 76, "velocity": 119, "channel": 0}, {"type": "note_off", "time": 1167, "note": 76, "velocity": 119, "channel": 0}, {"type": "note_on", "time": 184, "note": 74, "velocity": 121, "channel": 0}, {"type": "note_off", "time": 1259, "note": 74, "velocity": 121, "channel": 0}, {"type": "note_on", "time": 92, "note": 83, "velocity": 114, "channel": 0}, {"type": "note_off", "time": 1474, "note": 83, "velocity": 114, "channel": 0}, {"type": "note_on", "time": 184, "note": 81, "velocity": 120, "channel": 0}, {"type": "note_off", "time": 1044, "note": 81, "velocity": 120, "channel": 0}, {"type": "note_on", "time": 645, "note": 81, "velocity": 118, "channel": 0}, {"type": "note_off", "time": 9062, "note": 81, "velocity": 118, "channel": 0}, {"type": "note_on", "time": 2703, "note": 74, "velocity": 121, "channel": 0}, {"type": "note_off", "time": 1136, "note": 74, "velocity": 121, "channel": 0}, {"type": "note_on", "time": 92, "note": 76, "velocity": 119, "channel": 0}, {"type": "note_off", "time": 1013, "note": 76, "velocity": 119, "channel": 0}, {"type": "note_on", "time": 30, "note": 74, "velocity": 121, "channel": 0}, {"type": "note_off", "time": 1075, "note": 74, "velocity": 121, "channel": 0}, {"type": "note_on", "time": 122, "note": 83, "velocity": 117, "channel": 0}, {"type": "note_off", "time": 1198, "note": 83, "velocity": 117, "channel": 0}, {"type": "note_on", "time": 153, "note": 81, "velocity": 117, "channel": 0}, {"type": "note_off", "time": 1075, "note": 81, "velocity": 117, "channel": 0}, {"type": "note_on", "time": 491, "note": 81, "velocity": 114, "channel": 0}, {"type": "note_off", "time": 1167, "note": 81, "velocity": 114, "channel": 0}, {"type": "note_on", "time": 276, "note": 72, "velocity": 113, "channel": 0}, {"type": "note_off", "time": 829, "note": 72, "velocity": 113, "channel": 0}, {"type": "note_on", "time": 491, "note": 72, "velocity": 114, "channel": 0}, {"type": "note_off", "time": 1075, "note": 72, "velocity": 114, "channel": 0}, {"type": "note_on", "time": 61, "note": 74, "velocity": 122, "channel": 0}, {"type": "note_off", "time": 1136, "note": 74, "velocity": 122, "channel": 0}, {"type": "note_on", "time": 276, "note": 74, "velocity": 122, "channel": 0}, {"type": "note_off", "time": 829, "note": 74, "velocity": 122, "channel": 0}, {"type": "note_on", "time": 30, "note": 72, "velocity": 112, "channel": 0}, {"type": "note_off", "time": 768, "note": 72, "velocity": 112, "channel": 0}, {"type": "note_on", "time": 430, "note": 79, "velocity": 113, "channel": 0}, {"type": "note_off", "time": 1013, "note": 79, "velocity": 113, "channel": 0}, {"type": "note_on", "time": 92, "note": 77, "velocity": 118, "channel": 0}, {"type": "note_off", "time": 1075, "note": 77, "velocity": 118, "channel": 0}, {"type": "note_on", "time": 276, "note": 77, "velocity": 115, "channel": 0}, {"type": "note_off", "time": 15882, "note": 77, "velocity": 115, "channel": 0}, {"type": "note_on", "time": 75, "note": 74, "velocity": 112, "channel": 0}, {"type": "note_off", "time": 496, "note": 74, "velocity": 112, "channel": 0}, {"type": "note_on", "time": 43, "note": 72, "velocity": 101, "channel": 0}, {"type": "note_off", "time": 388, "note": 72, "velocity": 101, "channel": 0}, {"type": "note_on", "time": 86, "note": 70, "velocity": 107, "channel": 0}, {"type": "note_off", "time": 302, "note": 70, "velocity": 107, "channel": 0}, {"type": "note_on", "time": 216, "note": 69, "velocity": 108, "channel": 0}, {"type": "note_off", "time": 280, "note": 69, "velocity": 108, "channel": 0}, {"type": "note_on", "time": 129, "note": 67, "velocity": 106, "channel": 0}, {"type": "note_off", "time": 1468, "note": 67, "velocity": 106, "channel": 0}, {"type": "note_on", "time": 129, "note": 68, "velocity": 101, "channel": 0}, {"type": "note_off", "time": 1166, "note": 68, "velocity": 101, "channel": 0}, {"type": "note_on", "time": 43, "note": 67, "velocity": 96, "channel": 0}, {"type": "note_off", "time": 561, "note": 67, "velocity": 96, "channel": 0}, {"type": "note_on", "time": 216, "note": 65, "velocity": 101, "channel": 0}, {"type": "note_off", "time": 626, "note": 65, "velocity": 101, "channel": 0}, {"type": "note_on", "time": 259, "note": 63, "velocity": 94, "channel": 0}, {"type": "note_off", "time": 539, "note": 63, "velocity": 94, "channel": 0}, {"type": "note_on", "time": 108, "note": 62, "velocity": 92, "channel": 0}, {"type": "note_off", "time": 669, "note": 62, "velocity": 92, "channel": 0}, {"type": "note_on", "time": 64, "note": 63, "velocity": 85, "channel": 0}, {"type": "note_off", "time": 864, "note": 63, "velocity": 85, "channel": 0}, {"type": "note_on", "time": 0, "note": 60, "velocity": 83, "channel": 0}, {"type": "note_off", "time": 6544, "note": 60, "velocity": 83, "channel": 0}, {"type": "note_on", "time": 8532, "note": 65, "velocity": 104, "channel": 0}, {"type": "note_off", "time": 3650, "note": 65, "velocity": 104, "channel": 0}, {"type": "note_on", "time": 108, "note": 68, "velocity": 110, "channel": 0}, {"type": "note_off", "time": 1512, "note": 68, "velocity": 110, "channel": 0}, {"type": "note_on", "time": 21, "note": 65, "velocity": 99, "channel": 0}, {"type": "note_off", "time": 928, "note": 65, "velocity": 99, "channel": 0}, {"type": "note_on", "time": 0, "note": 68, "velocity": 110, "channel": 0}, {"type": "note_off", "time": 2116, "note": 68, "velocity": 110, "channel": 0}, {"type": "note_on", "time": 86, "note": 72, "velocity": 116, "channel": 0}, {"type": "note_off", "time": 5724, "note": 72, "velocity": 116, "channel": 0}, {"type": "note_on", "time": 367, "note": 72, "velocity": 115, "channel": 0}, {"type": "note_off", "time": 1490, "note": 72, "velocity": 115, "channel": 0}, {"type": "note_on", "time": 129, "note": 73, "velocity": 114, "channel": 0}, {"type": "note_off", "time": 1252, "note": 73, "velocity": 114, "channel": 0}, {"type": "note_on", "time": 129, "note": 75, "velocity": 114, "channel": 0}, {"type": "note_off", "time": 1598, "note": 75, "velocity": 114, "channel": 0}, {"type": "note_on", "time": 237, "note": 77, "velocity": 114, "channel": 0}, {"type": "note_off", "time": 1879, "note": 77, "velocity": 114, "channel": 0}, {"type": "note_on", "time": 86, "note": 70, "velocity": 92, "channel": 0}, {"type": "note_off", "time": 17928, "note": 70, "velocity": 92, "channel": 0}, {"type": "note_on", "time": 496, "note": 71, "velocity": 93, "channel": 0}, {"type": "note_off", "time": 1533, "note": 71, "velocity": 93, "channel": 0}, {"type": "note_on", "time": 864, "note": 70, "velocity": 97, "channel": 0}, {"type": "note_off", "time": 1512, "note": 70, "velocity": 97, "channel": 0}, {"type": "note_on", "time": 820, "note": 71, "velocity": 94, "channel": 0}, {"type": "note_off", "time": 1231, "note": 71, "velocity": 94, "channel": 0}, {"type": "note_on", "time": 691, "note": 71, "velocity": 86, "channel": 0}, {"type": "note_off", "time": 496, "note": 71, "velocity": 86, "channel": 0}, {"type": "note_on", "time": 302, "note": 70, "velocity": 99, "channel": 0}, {"type": "note_off", "time": 1641, "note": 70, "velocity": 99, "channel": 0}, {"type": "note_on", "time": 669, "note": 71, "velocity": 97, "channel": 0}, {"type": "note_off", "time": 1965, "note": 71, "velocity": 97, "channel": 0}, {"type": "note_on", "time": 194, "note": 71, "velocity": 78, "channel": 0}, {"type": "note_off", "time": 367, "note": 71, "velocity": 78, "channel": 0}, {"type": "note_on", "time": 21, "note": 70, "velocity": 99, "channel": 0}, {"type": "note_off", "time": 1447, "note": 70, "velocity": 99, "channel": 0}, {"type": "note_on", "time": 496, "note": 68, "velocity": 89, "channel": 0}, {"type": "note_off", "time": 3175, "note": 68, "velocity": 89, "channel": 0}, {"type": "note_on", "time": 21, "note": 70, "velocity": 99, "channel": 0}, {"type": "note_off", "time": 1296, "note": 70, "velocity": 99, "channel": 0}, {"type": "note_on", "time": 561, "note": 71, "velocity": 93, "channel": 0}, {"type": "note_off", "time": 4125, "note": 71, "velocity": 93, "channel": 0}, {"type": "note_on", "time": 237, "note": 68, "velocity": 87, "channel": 0}, {"type": "note_off", "time": 583, "note": 68, "velocity": 87, "channel": 0}, {"type": "note_on", "time": 43, "note": 65, "velocity": 92, "channel": 0}, {"type": "note_off", "time": 647, "note": 65, "velocity": 92, "channel": 0}, {"type": "note_on", "time": 561, "note": 70, "velocity": 94, "channel": 0}, {"type": "note_off", "time": 539, "note": 70, "velocity": 94, "channel": 0}, {"type": "note_on", "time": 64, "note": 68, "velocity": 94, "channel": 0}, {"type": "note_off", "time": 626, "note": 68, "velocity": 94, "channel": 0}, {"type": "note_on", "time": 86, "note": 63, "velocity": 84, "channel": 0}, {"type": "note_off", "time": 734, "note": 63, "velocity": 84, "channel": 0}, {"type": "note_on", "time": 323, "note": 61, "velocity": 82, "channel": 0}, {"type": "note_off", "time": 712, "note": 61, "velocity": 82, "channel": 0}, {"type": "note_on", "time": 710, "note": 63, "velocity": 84, "channel": 0}, {"type": "note_off", "time": 1812, "note": 63, "velocity": 84, "channel": 0}, {"type": "note_on", "time": 10782, "note": 64, "velocity": 85, "channel": 0}, {"type": "note_off", "time": 691, "note": 64, "velocity": 85, "channel": 0}, {"type": "note_on", "time": 1015, "note": 64, "velocity": 88, "channel": 0}, {"type": "note_off", "time": 1166, "note": 64, "velocity": 88, "channel": 0}, {"type": "note_on", "time": 756, "note": 64, "velocity": 89, "channel": 0}, {"type": "note_off", "time": 14126, "note": 64, "velocity": 89, "channel": 0}, {"type": "note_on", "time": 172, "note": 65, "velocity": 97, "channel": 0}, {"type": "note_off", "time": 561, "note": 65, "velocity": 97, "channel": 0}, {"type": "note_on", "time": 151, "note": 67, "velocity": 101, "channel": 0}, {"type": "note_off", "time": 756, "note": 67, "velocity": 101, "channel": 0}, {"type": "note_on", "time": 216, "note": 69, "velocity": 103, "channel": 0}, {"type": "note_off", "time": 5184, "note": 69, "velocity": 103, "channel": 0}, {"type": "note_on", "time": 21, "note": 67, "velocity": 94, "channel": 0}, {"type": "note_off", "time": 648, "note": 67, "velocity": 94, "channel": 0}, {"type": "note_on", "time": 0, "note": 65, "velocity": 95, "channel": 0}, {"type": "note_off", "time": 799, "note": 65, "velocity": 95, "channel": 0}, {"type": "note_on", "time": 108, "note": 64, "velocity": 84, "channel": 0}, {"type": "note_off", "time": 9892, "note": 64, "velocity": 84, "channel": 0}, {"type": "note_on", "time": 4190, "note": 63, "velocity": 94, "channel": 0}, {"type": "note_off", "time": 604, "note": 63, "velocity": 94, "channel": 0}, {"type": "note_on", "time": 21, "note": 62, "velocity": 95, "channel": 0}, {"type": "note_off", "time": 604, "note": 62, "velocity": 95, "channel": 0}, {"type": "note_on", "time": 0, "note": 60, "velocity": 93, "channel": 0}, {"type": "note_off", "time": 583, "note": 60, "velocity": 93, "channel": 0}, {"type": "note_on", "time": 907, "note": 60, "velocity": 91, "channel": 0}, {"type": "note_off", "time": 561, "note": 60, "velocity": 91, "channel": 0}, {"type": "note_on", "time": 0, "note": 62, "velocity": 91, "channel": 0}, {"type": "note_off", "time": 518, "note": 62, "velocity": 91, "channel": 0}, {"type": "note_on", "time": 108, "note": 63, "velocity": 102, "channel": 0}, {"type": "note_off", "time": 604, "note": 63, "velocity": 102, "channel": 0}, {"type": "note_on", "time": 0, "note": 65, "velocity": 95, "channel": 0}, {"type": "note_off", "time": 453, "note": 65, "velocity": 95, "channel": 0}, {"type": "note_on", "time": 43, "note": 67, "velocity": 103, "channel": 0}, {"type": "note_off", "time": 604, "note": 67, "velocity": 103, "channel": 0}, {"type": "note_on", "time": 108, "note": 69, "velocity": 104, "channel": 0}, {"type": "note_off", "time": 604, "note": 69, "velocity": 104, "channel": 0}, {"type": "note_on", "time": 129, "note": 70, "velocity": 108, "channel": 0}, {"type": "note_off", "time": 432, "note": 70, "velocity": 108, "channel": 0}, {"type": "note_on", "time": 21, "note": 72, "velocity": 113, "channel": 0}, {"type": "note_off", "time": 712, "note": 72, "velocity": 113, "channel": 0}, {"type": "note_on", "time": 64, "note": 74, "velocity": 117, "channel": 0}, {"type": "note_off", "time": 604, "note": 74, "velocity": 117, "channel": 0}, {"type": "note_on", "time": 0, "note": 75, "velocity": 114, "channel": 0}, {"type": "note_off", "time": 1015, "note": 75, "velocity": 114, "channel": 0}, {"type": "note_on", "time": 64, "note": 77, "velocity": 118, "channel": 0}, {"type": "note_off", "time": 1425, "note": 77, "velocity": 118, "channel": 0}, {"type": "note_on", "time": 0, "note": 74, "velocity": 9, "channel": 0}, {"type": "note_off", "time": 1188, "note": 74, "velocity": 9, "channel": 0}, {"type": "note_on", "time": 172, "note": 74, "velocity": 123, "channel": 0}, {"type": "note_off", "time": 5378, "note": 74, "velocity": 123, "channel": 0}, {"type": "note_on", "time": 64, "note": 72, "velocity": 104, "channel": 0}, {"type": "note_off", "time": 583, "note": 72, "velocity": 104, "channel": 0}, {"type": "note_on", "time": 172, "note": 70, "velocity": 104, "channel": 0}, {"type": "note_off", "time": 518, "note": 70, "velocity": 104, "channel": 0}, {"type": "note_on", "time": 626, "note": 74, "velocity": 112, "channel": 0}, {"type": "note_off", "time": 388, "note": 74, "velocity": 112, "channel": 0}, {"type": "note_on", "time": 172, "note": 72, "velocity": 106, "channel": 0}, {"type": "note_off", "time": 259, "note": 72, "velocity": 106, "channel": 0}, {"type": "note_on", "time": 43, "note": 70, "velocity": 110, "channel": 0}, {"type": "note_off", "time": 388, "note": 70, "velocity": 110, "channel": 0}, {"type": "note_on", "time": 43, "note": 68, "velocity": 109, "channel": 0}, {"type": "note_off", "time": 324, "note": 68, "velocity": 109, "channel": 0}, {"type": "note_on", "time": 151, "note": 67, "velocity": 105, "channel": 0}, {"type": "note_off", "time": 4751, "note": 67, "velocity": 105, "channel": 0}, {"type": "note_on", "time": 11167, "note": 76, "velocity": 108, "channel": 0}, {"type": "note_off", "time": 583, "note": 76, "velocity": 108, "channel": 0}, {"type": "note_on", "time": 86, "note": 79, "velocity": 111, "channel": 0}, {"type": "note_off", "time": 648, "note": 79, "velocity": 111, "channel": 0}, {"type": "note_on", "time": 151, "note": 83, "velocity": 120, "channel": 0}, {"type": "note_off", "time": 648, "note": 83, "velocity": 120, "channel": 0}, {"type": "note_on", "time": 367, "note": 76, "velocity": 111, "channel": 0}, {"type": "note_off", "time": 756, "note": 76, "velocity": 111, "channel": 0}, {"type": "note_on", "time": 475, "note": 79, "velocity": 115, "channel": 0}, {"type": "note_off", "time": 799, "note": 79, "velocity": 115, "channel": 0}, {"type": "note_on", "time": 108, "note": 83, "velocity": 112, "channel": 0}, {"type": "note_off", "time": 626, "note": 83, "velocity": 112, "channel": 0}, {"type": "note_on", "time": 712, "note": 76, "velocity": 109, "channel": 0}, {"type": "note_off", "time": 756, "note": 76, "velocity": 109, "channel": 0}, {"type": "note_on", "time": 388, "note": 81, "velocity": 112, "channel": 0}, {"type": "note_off", "time": 669, "note": 81, "velocity": 112, "channel": 0}, {"type": "note_on", "time": 928, "note": 83, "velocity": 113, "channel": 0}, {"type": "note_off", "time": 669, "note": 83, "velocity": 113, "channel": 0}, {"type": "note_on", "time": 799, "note": 83, "velocity": 106, "channel": 0}, {"type": "note_off", "time": 885, "note": 83, "velocity": 106, "channel": 0}, {"type": "note_on", "time": 280, "note": 84, "velocity": 117, "channel": 0}, {"type": "note_off", "time": 993, "note": 84, "velocity": 117, "channel": 0}, {"type": "note_on", "time": 259, "note": 83, "velocity": 107, "channel": 0}, {"type": "note_off", "time": 1036, "note": 83, "velocity": 107, "channel": 0}, {"type": "note_on", "time": 432, "note": 79, "velocity": 116, "channel": 0}, {"type": "note_off", "time": 691, "note": 79, "velocity": 116, "channel": 0}, {"type": "note_on", "time": 86, "note": 81, "velocity": 118, "channel": 0}, {"type": "note_off", "time": 777, "note": 81, "velocity": 118, "channel": 0}, {"type": "note_on", "time": 518, "note": 83, "velocity": 116, "channel": 0}, {"type": "note_off", "time": 691, "note": 83, "velocity": 116, "channel": 0}, {"type": "note_on", "time": 475, "note": 83, "velocity": 111, "channel": 0}, {"type": "note_off", "time": 475, "note": 83, "velocity": 111, "channel": 0}, {"type": "note_on", "time": 540, "note": 84, "velocity": 97, "channel": 0}, {"type": "note_off", "time": 604, "note": 84, "velocity": 97, "channel": 0}, {"type": "note_on", "time": 0, "note": 83, "velocity": 118, "channel": 0}, {"type": "note_off", "time": 475, "note": 83, "velocity": 118, "channel": 0}, {"type": "note_on", "time": 215, "note": 83, "velocity": 106, "channel": 0}, {"type": "note_off", "time": 691, "note": 83, "velocity": 106, "channel": 0}, {"type": "note_on", "time": 0, "note": 79, "velocity": 115, "channel": 0}, {"type": "note_off", "time": 691, "note": 79, "velocity": 115, "channel": 0}, {"type": "note_on", "time": 518, "note": 83, "velocity": 118, "channel": 0}, {"type": "note_off", "time": 691, "note": 83, "velocity": 118, "channel": 0}, {"type": "note_on", "time": 518, "note": 83, "velocity": 116, "channel": 0}, {"type": "note_off", "time": 669, "note": 83, "velocity": 116, "channel": 0}, {"type": "note_on", "time": 0, "note": 84, "velocity": 104, "channel": 0}, {"type": "note_off", "time": 648, "note": 84, "velocity": 104, "channel": 0}, {"type": "note_on", "time": 280, "note": 83, "velocity": 114, "channel": 0}, {"type": "note_off", "time": 518, "note": 83, "velocity": 114, "channel": 0}, {"type": "note_on", "time": 129, "note": 79, "velocity": 109, "channel": 0}, {"type": "note_off", "time": 626, "note": 79, "velocity": 109, "channel": 0}, {"type": "note_on", "time": 756, "note": 83, "velocity": 117, "channel": 0}, {"type": "note_off", "time": 410, "note": 83, "velocity": 117, "channel": 0}, {"type": "note_on", "time": 755, "note": 84, "velocity": 112, "channel": 0}, {"type": "note_off", "time": 669, "note": 84, "velocity": 112, "channel": 0}, {"type": "note_on", "time": 410, "note": 83, "velocity": 95, "channel": 0}, {"type": "note_off", "time": 907, "note": 83, "velocity": 95, "channel": 0}, {"type": "note_on", "time": 323, "note": 79, "velocity": 96, "channel": 0}, {"type": "note_off", "time": 907, "note": 79, "velocity": 96, "channel": 0}, {"type": "note_on", "time": 172, "note": 77, "velocity": 95, "channel": 0}, {"type": "note_off", "time": 345, "note": 77, "velocity": 95, "channel": 0}, {"type": "note_on", "time": 172, "note": 81, "velocity": 67, "channel": 0}, {"type": "note_off", "time": 216, "note": 81, "velocity": 67, "channel": 0}, {"type": "note_on", "time": 237, "note": 83, "velocity": 103, "channel": 0}, {"type": "note_off", "time": 388, "note": 83, "velocity": 103, "channel": 0}, {"type": "note_on", "time": 0, "note": 85, "velocity": 111, "channel": 0}, {"type": "note_off", "time": 367, "note": 85, "velocity": 111, "channel": 0}, {"type": "note_on", "time": 194, "note": 86, "velocity": 102, "channel": 0}, {"type": "note_off", "time": 561, "note": 86, "velocity": 102, "channel": 0}, {"type": "note_on", "time": 129, "note": 84, "velocity": 107, "channel": 0}, {"type": "note_off", "time": 475, "note": 84, "velocity": 107, "channel": 0}, {"type": "note_on", "time": 151, "note": 84, "velocity": 116, "channel": 0}, {"type": "note_off", "time": 475, "note": 84, "velocity": 116, "channel": 0}, {"type": "note_on", "time": 172, "note": 83, "velocity": 103, "channel": 0}, {"type": "note_off", "time": 626, "note": 83, "velocity": 103, "channel": 0}, {"type": "note_on", "time": 108, "note": 81, "velocity": 108, "channel": 0}, {"type": "note_off", "time": 540, "note": 81, "velocity": 108, "channel": 0}, {"type": "note_on", "time": 64, "note": 79, "velocity": 114, "channel": 0}, {"type": "note_off", "time": 561, "note": 79, "velocity": 114, "channel": 0}, {"type": "note_on", "time": 43, "note": 78, "velocity": 112, "channel": 0}, {"type": "note_off", "time": 648, "note": 78, "velocity": 112, "channel": 0}, {"type": "note_on", "time": 0, "note": 73, "velocity": 109, "channel": 0}, {"type": "note_off", "time": 475, "note": 73, "velocity": 109, "channel": 0}, {"type": "note_on", "time": 129, "note": 74, "velocity": 110, "channel": 0}, {"type": "note_off", "time": 691, "note": 74, "velocity": 110, "channel": 0}, {"type": "note_on", "time": 64, "note": 73, "velocity": 113, "channel": 0}, {"type": "note_off", "time": 518, "note": 73, "velocity": 113, "channel": 0}, {"type": "note_on", "time": 0, "note": 72, "velocity": 107, "channel": 0}, {"type": "note_off", "time": 604, "note": 72, "velocity": 107, "channel": 0}, {"type": "note_on", "time": 64, "note": 70, "velocity": 111, "channel": 0}, {"type": "note_off", "time": 626, "note": 70, "velocity": 111, "channel": 0}, {"type": "note_on", "time": 86, "note": 69, "velocity": 109, "channel": 0}, {"type": "note_off", "time": 626, "note": 69, "velocity": 109, "channel": 0}, {"type": "note_on", "time": 129, "note": 67, "velocity": 112, "channel": 0}, {"type": "note_off", "time": 540, "note": 67, "velocity": 112, "channel": 0}, {"type": "note_on", "time": 43, "note": 65, "velocity": 109, "channel": 0}, {"type": "note_off", "time": 496, "note": 65, "velocity": 109, "channel": 0}, {"type": "note_on", "time": 108, "note": 64, "velocity": 104, "channel": 0}, {"type": "note_off", "time": 669, "note": 64, "velocity": 104, "channel": 0}, {"type": "note_on", "time": 86, "note": 63, "velocity": 103, "channel": 0}, {"type": "note_off", "time": 518, "note": 63, "velocity": 103, "channel": 0}, {"type": "note_on", "time": 0, "note": 62, "velocity": 104, "channel": 0}, {"type": "note_off", "time": 453, "note": 62, "velocity": 104, "channel": 0}, {"type": "note_on", "time": 43, "note": 60, "velocity": 89, "channel": 0}, {"type": "note_off", "time": 669, "note": 60, "velocity": 89, "channel": 0}, {"type": "note_on", "time": 21, "note": 63, "velocity": 99, "channel": 0}, {"type": "note_off", "time": 518, "note": 63, "velocity": 99, "channel": 0}, {"type": "note_on", "time": 86, "note": 67, "velocity": 96, "channel": 0}, {"type": "note_off", "time": 496, "note": 67, "velocity": 96, "channel": 0}, {"type": "note_on", "time": 129, "note": 69, "velocity": 92, "channel": 0}, {"type": "note_off", "time": 345, "note": 69, "velocity": 92, "channel": 0}, {"type": "note_on", "time": 0, "note": 73, "velocity": 91, "channel": 0}, {"type": "note_off", "time": 194, "note": 73, "velocity": 91, "channel": 0}, {"type": "note_on", "time": 129, "note": 75, "velocity": 115, "channel": 0}, {"type": "note_on", "time": 475, "note": 77, "velocity": 110, "channel": 0}, {"type": "note_off", "time": 0, "note": 75, "velocity": 115, "channel": 0}, {"type": "note_off", "time": 561, "note": 77, "velocity": 110, "channel": 0}, {"type": "note_on", "time": 669, "note": 72, "velocity": 112, "channel": 0}, {"type": "note_off", "time": 324, "note": 72, "velocity": 112, "channel": 0}, {"type": "note_on", "time": 0, "note": 74, "velocity": 110, "channel": 0}, {"type": "note_off", "time": 194, "note": 74, "velocity": 110, "channel": 0}, {"type": "note_on", "time": 64, "note": 75, "velocity": 111, "channel": 0}, {"type": "note_off", "time": 237, "note": 75, "velocity": 111, "channel": 0}, {"type": "note_on", "time": 0, "note": 77, "velocity": 107, "channel": 0}, {"type": "note_off", "time": 410, "note": 77, "velocity": 107, "channel": 0}, {"type": "note_on", "time": 388, "note": 72, "velocity": 74, "channel": 0}, {"type": "note_off", "time": 367, "note": 72, "velocity": 74, "channel": 0}, {"type": "note_on", "time": 64, "note": 74, "velocity": 114, "channel": 0}, {"type": "note_off", "time": 237, "note": 74, "velocity": 114, "channel": 0}, {"type": "note_on", "time": 64, "note": 75, "velocity": 112, "channel": 0}, {"type": "note_off", "time": 216, "note": 75, "velocity": 112, "channel": 0}, {"type": "note_on", "time": 237, "note": 77, "velocity": 107, "channel": 0}, {"type": "note_off", "time": 453, "note": 77, "velocity": 107, "channel": 0}, {"type": "note_on", "time": 907, "note": 72, "velocity": 73, "channel": 0}, {"type": "note_off", "time": 237, "note": 72, "velocity": 73, "channel": 0}, {"type": "note_on", "time": 86, "note": 74, "velocity": 88, "channel": 0}, {"type": "note_off", "time": 237, "note": 74, "velocity": 88, "channel": 0}, {"type": "note_on", "time": 215, "note": 75, "velocity": 105, "channel": 0}, {"type": "note_off", "time": 345, "note": 75, "velocity": 105, "channel": 0}, {"type": "note_on", "time": 324, "note": 74, "velocity": 81, "channel": 0}, {"type": "note_off", "time": 367, "note": 74, "velocity": 81, "channel": 0}, {"type": "note_on", "time": 237, "note": 75, "velocity": 118, "channel": 0}, {"type": "note_off", "time": 388, "note": 75, "velocity": 118, "channel": 0}, {"type": "note_on", "time": 0, "note": 77, "velocity": 104, "channel": 0}, {"type": "note_off", "time": 367, "note": 77, "velocity": 104, "channel": 0}, {"type": "note_on", "time": 345, "note": 75, "velocity": 109, "channel": 0}, {"type": "note_off", "time": 237, "note": 75, "velocity": 109, "channel": 0}, {"type": "note_on", "time": 172, "note": 74, "velocity": 108, "channel": 0}, {"type": "note_off", "time": 194, "note": 74, "velocity": 108, "channel": 0}, {"type": "note_on", "time": 302, "note": 75, "velocity": 110, "channel": 0}, {"type": "note_off", "time": 280, "note": 75, "velocity": 110, "channel": 0}, {"type": "note_on", "time": 259, "note": 72, "velocity": 70, "channel": 0}, {"type": "note_off", "time": 259, "note": 72, "velocity": 70, "channel": 0}, {"type": "note_on", "time": 86, "note": 74, "velocity": 109, "channel": 0}, {"type": "note_off", "time": 324, "note": 74, "velocity": 109, "channel": 0}, {"type": "note_on", "time": 216, "note": 77, "velocity": 83, "channel": 0}, {"type": "note_off", "time": 561, "note": 77, "velocity": 83, "channel": 0}, {"type": "note_on", "time": 410, "note": 79, "velocity": 108, "channel": 0}, {"type": "note_off", "time": 410, "note": 79, "velocity": 108, "channel": 0}, {"type": "note_on", "time": 43, "note": 77, "velocity": 98, "channel": 0}, {"type": "note_on", "time": 367, "note": 75, "velocity": 111, "channel": 0}, {"type": "note_off", "time": 0, "note": 77, "velocity": 98, "channel": 0}, {"type": "note_off", "time": 410, "note": 75, "velocity": 111, "channel": 0}, {"type": "note_on", "time": 194, "note": 77, "velocity": 97, "channel": 0}, {"type": "note_off", "time": 432, "note": 77, "velocity": 97, "channel": 0}, {"type": "note_on", "time": 0, "note": 75, "velocity": 104, "channel": 0}, {"type": "note_off", "time": 259, "note": 75, "velocity": 104, "channel": 0}, {"type": "note_on", "time": 86, "note": 74, "velocity": 101, "channel": 0}, {"type": "note_off", "time": 345, "note": 74, "velocity": 101, "channel": 0}, {"type": "note_on", "time": 259, "note": 75, "velocity": 108, "channel": 0}, {"type": "note_off", "time": 280, "note": 75, "velocity": 108, "channel": 0}, {"type": "note_on", "time": 108, "note": 73, "velocity": 99, "channel": 0}, {"type": "note_off", "time": 280, "note": 73, "velocity": 99, "channel": 0}, {"type": "note_on", "time": 0, "note": 72, "velocity": 100, "channel": 0}, {"type": "note_off", "time": 388, "note": 72, "velocity": 100, "channel": 0}, {"type": "note_on", "time": 151, "note": 74, "velocity": 106, "channel": 0}, {"type": "note_off", "time": 151, "note": 74, "velocity": 106, "channel": 0}, {"type": "note_on", "time": 64, "note": 72, "velocity": 101, "channel": 0}, {"type": "note_off", "time": 259, "note": 72, "velocity": 101, "channel": 0}, {"type": "note_on", "time": 108, "note": 70, "velocity": 108, "channel": 0}, {"type": "note_off", "time": 345, "note": 70, "velocity": 108, "channel": 0}, {"type": "note_on", "time": 86, "note": 72, "velocity": 100, "channel": 0}, {"type": "note_off", "time": 302, "note": 72, "velocity": 100, "channel": 0}, {"type": "note_on", "time": 0, "note": 70, "velocity": 84, "channel": 0}, {"type": "note_off", "time": 194, "note": 70, "velocity": 84, "channel": 0}, {"type": "note_on", "time": 0, "note": 69, "velocity": 98, "channel": 0}, {"type": "note_off", "time": 280, "note": 69, "velocity": 98, "channel": 0}, {"type": "note_on", "time": 43, "note": 67, "velocity": 105, "channel": 0}, {"type": "note_off", "time": 280, "note": 67, "velocity": 105, "channel": 0}, {"type": "note_on", "time": 168, "note": 63, "velocity": 90, "channel": 0}, {"type": "note_off", "time": 324, "note": 63, "velocity": 90, "channel": 0}, {"type": "note_on", "time": 90, "note": 62, "velocity": 99, "channel": 0}, {"type": "note_off", "time": 280, "note": 62, "velocity": 99, "channel": 0}, {"type": "note_on", "time": 0, "note": 60, "velocity": 97, "channel": 0}, {"type": "note_off", "time": 388, "note": 60, "velocity": 97, "channel": 0}, {"type": "note_on", "time": 0, "note": 58, "velocity": 96, "channel": 0}, {"type": "note_off", "time": 388, "note": 58, "velocity": 96, "channel": 0}, {"type": "note_on", "time": 43, "note": 57, "velocity": 103, "channel": 0}, {"type": "note_off", "time": 259, "note": 57, "velocity": 103, "channel": 0}, {"type": "note_on", "time": 43, "note": 55, "velocity": 93, "channel": 0}, {"type": "note_off", "time": 518, "note": 55, "velocity": 93, "channel": 0}, {"type": "note_on", "time": 4060, "note": 79, "velocity": 51, "channel": 0}, {"type": "note_off", "time": 237, "note": 79, "velocity": 51, "channel": 0}, {"type": "note_on", "time": 64, "note": 80, "velocity": 114, "channel": 0}, {"type": "note_off", "time": 626, "note": 80, "velocity": 114, "channel": 0}, {"type": "note_on", "time": 15, "note": 79, "velocity": 107, "channel": 0}, {"type": "note_off", "time": 215, "note": 79, "velocity": 107, "channel": 0}, {"type": "note_on", "time": 92, "note": 78, "velocity": 108, "channel": 0}, {"type": "note_off", "time": 245, "note": 78, "velocity": 108, "channel": 0}, {"type": "note_on", "time": 144, "note": 75, "velocity": 89, "channel": 0}, {"type": "note_off", "time": 345, "note": 75, "velocity": 89, "channel": 0}, {"type": "note_on", "time": 107, "note": 76, "velocity": 113, "channel": 0}, {"type": "note_off", "time": 561, "note": 76, "velocity": 113, "channel": 0}, {"type": "note_on", "time": 86, "note": 75, "velocity": 116, "channel": 0}, {"type": "note_off", "time": 540, "note": 75, "velocity": 116, "channel": 0}, {"type": "note_on", "time": 64, "note": 74, "velocity": 112, "channel": 0}, {"type": "note_off", "time": 561, "note": 74, "velocity": 112, "channel": 0}, {"type": "note_on", "time": 64, "note": 72, "velocity": 111, "channel": 0}, {"type": "note_on", "time": 518, "note": 70, "velocity": 112, "channel": 0}, {"type": "note_off", "time": 0, "note": 72, "velocity": 111, "channel": 0}, {"type": "note_off", "time": 647, "note": 70, "velocity": 112, "channel": 0}, {"type": "note_on", "time": 0, "note": 69, "velocity": 109, "channel": 0}, {"type": "note_off", "time": 712, "note": 69, "velocity": 109, "channel": 0}, {"type": "note_on", "time": 43, "note": 67, "velocity": 110, "channel": 0}, {"type": "note_off", "time": 691, "note": 67, "velocity": 110, "channel": 0}, {"type": "note_on", "time": 21, "note": 65, "velocity": 108, "channel": 0}, {"type": "note_off", "time": 648, "note": 65, "velocity": 108, "channel": 0}, {"type": "note_on", "time": 0, "note": 64, "velocity": 111, "channel": 0}, {"type": "note_off", "time": 583, "note": 64, "velocity": 111, "channel": 0}, {"type": "note_on", "time": 21, "note": 63, "velocity": 99, "channel": 0}, {"type": "note_off", "time": 691, "note": 63, "velocity": 99, "channel": 0}, {"type": "note_on", "time": 0, "note": 62, "velocity": 109, "channel": 0}, {"type": "note_on", "time": 531, "note": 60, "velocity": 100, "channel": 0}, {"type": "note_off", "time": 0, "note": 62, "velocity": 109, "channel": 0}, {"type": "note_off", "time": 604, "note": 60, "velocity": 100, "channel": 0}, {"type": "note_on", "time": 94, "note": 58, "velocity": 102, "channel": 0}, {"type": "note_off", "time": 604, "note": 58, "velocity": 102, "channel": 0}, {"type": "note_on", "time": 43, "note": 57, "velocity": 99, "channel": 0}, {"type": "note_off", "time": 712, "note": 57, "velocity": 99, "channel": 0}, {"type": "note_on", "time": 777, "note": 57, "velocity": 97, "channel": 0}, {"type": "note_off", "time": 583, "note": 57, "velocity": 97, "channel": 0}, {"type": "note_on", "time": 799, "note": 57, "velocity": 103, "channel": 0}, {"type": "note_off", "time": 367, "note": 57, "velocity": 103, "channel": 0}, {"type": "note_on", "time": 216, "note": 60, "velocity": 103, "channel": 0}, {"type": "note_off", "time": 518, "note": 60, "velocity": 103, "channel": 0}, {"type": "note_on", "time": 86, "note": 61, "velocity": 100, "channel": 0}, {"type": "note_off", "time": 496, "note": 61, "velocity": 100, "channel": 0}, {"type": "note_on", "time": 0, "note": 62, "velocity": 102, "channel": 0}, {"type": "note_off", "time": 648, "note": 62, "velocity": 102, "channel": 0}, {"type": "note_on", "time": 21, "note": 64, "velocity": 103, "channel": 0}, {"type": "note_on", "time": 669, "note": 66, "velocity": 108, "channel": 0}, {"type": "note_off", "time": 0, "note": 64, "velocity": 103, "channel": 0}, {"type": "note_off", "time": 518, "note": 66, "velocity": 108, "channel": 0}, {"type": "note_on", "time": 64, "note": 67, "velocity": 105, "channel": 0}, {"type": "note_off", "time": 518, "note": 67, "velocity": 105, "channel": 0}, {"type": "note_on", "time": 107, "note": 69, "velocity": 95, "channel": 0}, {"type": "note_off", "time": 561, "note": 69, "velocity": 95, "channel": 0}, {"type": "note_on", "time": 43, "note": 71, "velocity": 117, "channel": 0}, {"type": "note_off", "time": 475, "note": 71, "velocity": 117, "channel": 0}, {"type": "note_on", "time": 86, "note": 72, "velocity": 115, "channel": 0}, {"type": "note_off", "time": 388, "note": 72, "velocity": 115, "channel": 0}, {"type": "note_on", "time": 21, "note": 73, "velocity": 117, "channel": 0}, {"type": "note_off", "time": 626, "note": 73, "velocity": 117, "channel": 0}, {"type": "note_on", "time": 64, "note": 74, "velocity": 108, "channel": 0}, {"type": "note_off", "time": 1144, "note": 74, "velocity": 108, "channel": 0}, {"type": "note_on", "time": 0, "note": 71, "velocity": 103, "channel": 0}, {"type": "note_off", "time": 1490, "note": 71, "velocity": 103, "channel": 0}, {"type": "note_on", "time": 98, "note": 68, "velocity": 108, "channel": 0}, {"type": "note_off", "time": 660, "note": 68, "velocity": 108, "channel": 0}, {"type": "note_on", "time": 122, "note": 69, "velocity": 104, "channel": 0}, {"type": "note_off", "time": 675, "note": 69, "velocity": 104, "channel": 0}, {"type": "note_on", "time": 138, "note": 68, "velocity": 104, "channel": 0}, {"type": "note_off", "time": 506, "note": 68, "velocity": 104, "channel": 0}, {"type": "note_on", "time": 307, "note": 69, "velocity": 108, "channel": 0}, {"type": "note_off", "time": 1290, "note": 69, "velocity": 108, "channel": 0}, {"type": "note_on", "time": 491, "note": 63, "velocity": 105, "channel": 0}, {"type": "note_off", "time": 1320, "note": 63, "velocity": 105, "channel": 0}, {"type": "note_on", "time": 76, "note": 64, "velocity": 99, "channel": 0}, {"type": "note_off", "time": 1428, "note": 64, "velocity": 99, "channel": 0}, {"type": "note_on", "time": 138, "note": 61, "velocity": 90, "channel": 0}, {"type": "note_off", "time": 829, "note": 61, "velocity": 90, "channel": 0}, {"type": "note_on", "time": 230, "note": 62, "velocity": 90, "channel": 0}, {"type": "note_off", "time": 906, "note": 62, "velocity": 90, "channel": 0}, {"type": "note_on", "time": 199, "note": 64, "velocity": 90, "channel": 0}, {"type": "note_off", "time": 4239, "note": 64, "velocity": 90, "channel": 0}, {"type": "note_on", "time": 6205, "note": 68, "velocity": 119, "channel": 0}, {"type": "note_off", "time": 460, "note": 68, "velocity": 119, "channel": 0}, {"type": "note_on", "time": 153, "note": 69, "velocity": 119, "channel": 0}, {"type": "note_off", "time": 568, "note": 69, "velocity": 119, "channel": 0}, {"type": "note_on", "time": 46, "note": 66, "velocity": 117, "channel": 0}, {"type": "note_off", "time": 1674, "note": 66, "velocity": 117, "channel": 0}, {"type": "note_on", "time": 184, "note": 64, "velocity": 111, "channel": 0}, {"type": "note_off", "time": 460, "note": 64, "velocity": 111, "channel": 0}, {"type": "note_on", "time": 138, "note": 60, "velocity": 100, "channel": 0}, {"type": "note_off", "time": 430, "note": 60, "velocity": 100, "channel": 0}, {"type": "note_on", "time": 0, "note": 62, "velocity": 100, "channel": 0}, {"type": "note_off", "time": 568, "note": 62, "velocity": 100, "channel": 0}, {"type": "note_on", "time": 322, "note": 61, "velocity": 107, "channel": 0}, {"type": "note_off", "time": 537, "note": 61, "velocity": 107, "channel": 0}, {"type": "note_on", "time": 15, "note": 62, "velocity": 108, "channel": 0}, {"type": "note_off", "time": 506, "note": 62, "velocity": 108, "channel": 0}, {"type": "note_on", "time": 0, "note": 57, "velocity": 105, "channel": 0}, {"type": "note_off", "time": 875, "note": 57, "velocity": 105, "channel": 0}, {"type": "note_on", "time": 4316, "note": 61, "velocity": 105, "channel": 0}, {"type": "note_off", "time": 491, "note": 61, "velocity": 105, "channel": 0}, {"type": "note_on", "time": 107, "note": 63, "velocity": 109, "channel": 0}, {"type": "note_off", "time": 460, "note": 63, "velocity": 109, "channel": 0}, {"type": "note_on", "time": 46, "note": 67, "velocity": 114, "channel": 0}, {"type": "note_off", "time": 552, "note": 67, "velocity": 114, "channel": 0}, {"type": "note_on", "time": 168, "note": 70, "velocity": 107, "channel": 0}, {"type": "note_off", "time": 491, "note": 70, "velocity": 107, "channel": 0}, {"type": "note_on", "time": 153, "note": 74, "velocity": 113, "channel": 0}, {"type": "note_off", "time": 399, "note": 74, "velocity": 113, "channel": 0}, {"type": "note_on", "time": 92, "note": 75, "velocity": 123, "channel": 0}, {"type": "note_off", "time": 322, "note": 75, "velocity": 123, "channel": 0}, {"type": "note_on", "time": 61, "note": 76, "velocity": 107, "channel": 0}, {"type": "note_off", "time": 215, "note": 76, "velocity": 107, "channel": 0}, {"type": "note_on", "time": 199, "note": 77, "velocity": 116, "channel": 0}, {"type": "note_off", "time": 2319, "note": 77, "velocity": 116, "channel": 0}, {"type": "note_on", "time": 15, "note": 74, "velocity": 109, "channel": 0}, {"type": "note_off", "time": 261, "note": 74, "velocity": 109, "channel": 0}, {"type": "note_on", "time": 122, "note": 75, "velocity": 118, "channel": 0}, {"type": "note_off", "time": 184, "note": 75, "velocity": 118, "channel": 0}, {"type": "note_on", "time": 122, "note": 76, "velocity": 117, "channel": 0}, {"type": "note_off", "time": 199, "note": 76, "velocity": 117, "channel": 0}, {"type": "note_on", "time": 61, "note": 77, "velocity": 118, "channel": 0}, {"type": "note_off", "time": 506, "note": 77, "velocity": 118, "channel": 0}, {"type": "note_on", "time": 76, "note": 72, "velocity": 111, "channel": 0}, {"type": "note_off", "time": 353, "note": 72, "velocity": 111, "channel": 0}, {"type": "note_on", "time": 46, "note": 74, "velocity": 103, "channel": 0}, {"type": "note_off", "time": 184, "note": 74, "velocity": 103, "channel": 0}, {"type": "note_on", "time": 92, "note": 75, "velocity": 119, "channel": 0}, {"type": "note_off", "time": 691, "note": 75, "velocity": 119, "channel": 0}, {"type": "note_on", "time": 153, "note": 70, "velocity": 101, "channel": 0}, {"type": "note_off", "time": 384, "note": 70, "velocity": 101, "channel": 0}, {"type": "note_on", "time": 46, "note": 72, "velocity": 117, "channel": 0}, {"type": "note_off", "time": 291, "note": 72, "velocity": 117, "channel": 0}, {"type": "note_on", "time": 61, "note": 74, "velocity": 110, "channel": 0}, {"type": "note_off", "time": 660, "note": 74, "velocity": 110, "channel": 0}, {"type": "note_on", "time": 92, "note": 67, "velocity": 108, "channel": 0}, {"type": "note_off", "time": 368, "note": 67, "velocity": 108, "channel": 0}, {"type": "note_on", "time": 92, "note": 69, "velocity": 110, "channel": 0}, {"type": "note_off", "time": 307, "note": 69, "velocity": 110, "channel": 0}, {"type": "note_on", "time": 76, "note": 70, "velocity": 107, "channel": 0}, {"type": "note_off", "time": 307, "note": 70, "velocity": 107, "channel": 0}, {"type": "note_on", "time": 337, "note": 63, "velocity": 104, "channel": 0}, {"type": "note_off", "time": 322, "note": 63, "velocity": 104, "channel": 0}, {"type": "note_on", "time": 61, "note": 65, "velocity": 103, "channel": 0}, {"type": "note_off", "time": 399, "note": 65, "velocity": 103, "channel": 0}, {"type": "note_on", "time": 15, "note": 67, "velocity": 106, "channel": 0}, {"type": "note_off", "time": 660, "note": 67, "velocity": 106, "channel": 0}, {"type": "note_on", "time": 568, "note": 60, "velocity": 95, "channel": 0}, {"type": "note_off", "time": 307, "note": 60, "velocity": 95, "channel": 0}, {"type": "note_on", "time": 46, "note": 62, "velocity": 92, "channel": 0}, {"type": "note_off", "time": 353, "note": 62, "velocity": 92, "channel": 0}, {"type": "note_on", "time": 168, "note": 63, "velocity": 107, "channel": 0}, {"type": "note_off", "time": 537, "note": 63, "velocity": 107, "channel": 0}, {"type": "note_on", "time": 92, "note": 62, "velocity": 102, "channel": 0}, {"type": "note_off", "time": 215, "note": 62, "velocity": 102, "channel": 0}, {"type": "note_on", "time": 92, "note": 63, "velocity": 107, "channel": 0}, {"type": "note_off", "time": 399, "note": 63, "velocity": 107, "channel": 0}, {"type": "note_on", "time": 46, "note": 65, "velocity": 104, "channel": 0}, {"type": "note_off", "time": 276, "note": 65, "velocity": 104, "channel": 0}, {"type": "note_on", "time": 61, "note": 63, "velocity": 108, "channel": 0}, {"type": "note_off", "time": 230, "note": 63, "velocity": 108, "channel": 0}, {"type": "note_on", "time": 46, "note": 65, "velocity": 93, "channel": 0}, {"type": "note_off", "time": 337, "note": 65, "velocity": 93, "channel": 0}, {"type": "note_on", "time": 184, "note": 67, "velocity": 80, "channel": 0}, {"type": "note_off", "time": 445, "note": 67, "velocity": 80, "channel": 0}, {"type": "note_on", "time": 138, "note": 65, "velocity": 102, "channel": 0}, {"type": "note_off", "time": 307, "note": 65, "velocity": 102, "channel": 0}, {"type": "note_on", "time": 92, "note": 67, "velocity": 99, "channel": 0}, {"type": "note_off", "time": 353, "note": 67, "velocity": 99, "channel": 0}, {"type": "note_on", "time": 153, "note": 69, "velocity": 102, "channel": 0}, {"type": "note_off", "time": 322, "note": 69, "velocity": 102, "channel": 0}, {"type": "note_on", "time": 46, "note": 67, "velocity": 102, "channel": 0}, {"type": "note_off", "time": 261, "note": 67, "velocity": 102, "channel": 0}, {"type": "note_on", "time": 92, "note": 69, "velocity": 99, "channel": 0}, {"type": "note_off", "time": 245, "note": 69, "velocity": 99, "channel": 0}, {"type": "note_on", "time": 46, "note": 70, "velocity": 106, "channel": 0}, {"type": "note_off", "time": 337, "note": 70, "velocity": 106, "channel": 0}, {"type": "note_on", "time": 107, "note": 69, "velocity": 107, "channel": 0}, {"type": "note_off", "time": 307, "note": 69, "velocity": 107, "channel": 0}, {"type": "note_on", "time": 92, "note": 70, "velocity": 100, "channel": 0}, {"type": "note_off", "time": 184, "note": 70, "velocity": 100, "channel": 0}, {"type": "note_on", "time": 46, "note": 72, "velocity": 104, "channel": 0}, {"type": "note_off", "time": 384, "note": 72, "velocity": 104, "channel": 0}, {"type": "note_on", "time": 30, "note": 70, "velocity": 105, "channel": 0}, {"type": "note_off", "time": 307, "note": 70, "velocity": 105, "channel": 0}, {"type": "note_on", "time": 46, "note": 72, "velocity": 105, "channel": 0}, {"type": "note_off", "time": 368, "note": 72, "velocity": 105, "channel": 0}, {"type": "note_on", "time": 76, "note": 74, "velocity": 111, "channel": 0}, {"type": "note_off", "time": 353, "note": 74, "velocity": 111, "channel": 0}, {"type": "note_on", "time": 122, "note": 72, "velocity": 110, "channel": 0}, {"type": "note_off", "time": 291, "note": 72, "velocity": 110, "channel": 0}, {"type": "note_on", "time": 184, "note": 76, "velocity": 90, "channel": 0}, {"type": "note_off", "time": 430, "note": 76, "velocity": 90, "channel": 0}, {"type": "note_on", "time": 184, "note": 74, "velocity": 119, "channel": 0}, {"type": "note_off", "time": 337, "note": 74, "velocity": 119, "channel": 0}, {"type": "note_on", "time": 122, "note": 75, "velocity": 119, "channel": 0}, {"type": "note_off", "time": 337, "note": 75, "velocity": 119, "channel": 0}, {"type": "note_on", "time": 15, "note": 77, "velocity": 119, "channel": 0}, {"type": "note_off", "time": 138, "note": 77, "velocity": 119, "channel": 0}, {"type": "note_on", "time": 107, "note": 79, "velocity": 111, "channel": 0}, {"type": "note_off", "time": 430, "note": 79, "velocity": 111, "channel": 0}, {"type": "note_on", "time": 0, "note": 77, "velocity": 112, "channel": 0}, {"type": "note_off", "time": 307, "note": 77, "velocity": 112, "channel": 0}, {"type": "note_on", "time": 107, "note": 74, "velocity": 95, "channel": 0}, {"type": "note_off", "time": 399, "note": 74, "velocity": 95, "channel": 0}, {"type": "note_on", "time": 215, "note": 78, "velocity": 98, "channel": 0}, {"type": "note_off", "time": 307, "note": 78, "velocity": 98, "channel": 0}, {"type": "note_on", "time": 168, "note": 74, "velocity": 115, "channel": 0}, {"type": "note_off", "time": 276, "note": 74, "velocity": 115, "channel": 0}, {"type": "note_on", "time": 92, "note": 75, "velocity": 106, "channel": 0}, {"type": "note_off", "time": 184, "note": 75, "velocity": 106, "channel": 0}, {"type": "note_on", "time": 76, "note": 74, "velocity": 111, "channel": 0}, {"type": "note_off", "time": 291, "note": 74, "velocity": 111, "channel": 0}, {"type": "note_on", "time": 92, "note": 72, "velocity": 109, "channel": 0}, {"type": "note_off", "time": 322, "note": 72, "velocity": 109, "channel": 0}, {"type": "note_on", "time": 15, "note": 70, "velocity": 107, "channel": 0}, {"type": "note_off", "time": 307, "note": 70, "velocity": 107, "channel": 0}, {"type": "note_on", "time": 15, "note": 69, "velocity": 110, "channel": 0}, {"type": "note_off", "time": 261, "note": 69, "velocity": 110, "channel": 0}, {"type": "note_on", "time": 30, "note": 67, "velocity": 106, "channel": 0}, {"type": "note_off", "time": 307, "note": 67, "velocity": 106, "channel": 0}, {"type": "note_on", "time": 46, "note": 65, "velocity": 105, "channel": 0}, {"type": "note_off", "time": 199, "note": 65, "velocity": 105, "channel": 0}, {"type": "note_on", "time": 76, "note": 64, "velocity": 117, "channel": 0}, {"type": "note_off", "time": 168, "note": 64, "velocity": 117, "channel": 0}, {"type": "note_on", "time": 245, "note": 63, "velocity": 106, "channel": 0}, {"type": "note_off", "time": 184, "note": 63, "velocity": 106, "channel": 0}, {"type": "note_on", "time": 46, "note": 62, "velocity": 101, "channel": 0}, {"type": "note_off", "time": 138, "note": 62, "velocity": 101, "channel": 0}, {"type": "note_on", "time": 15, "note": 60, "velocity": 100, "channel": 0}, {"type": "note_off", "time": 184, "note": 60, "velocity": 100, "channel": 0}, {"type": "note_on", "time": 30, "note": 58, "velocity": 103, "channel": 0}, {"type": "note_off", "time": 261, "note": 58, "velocity": 103, "channel": 0}, {"type": "note_on", "time": 76, "note": 56, "velocity": 95, "channel": 0}, {"type": "note_off", "time": 368, "note": 56, "velocity": 95, "channel": 0}, {"type": "note_on", "time": 153, "note": 57, "velocity": 99, "channel": 0}, {"type": "note_off", "time": 230, "note": 57, "velocity": 99, "channel": 0}, {"type": "note_on", "time": 245, "note": 58, "velocity": 109, "channel": 0}, {"type": "note_off", "time": 261, "note": 58, "velocity": 109, "channel": 0}, {"type": "note_on", "time": 0, "note": 60, "velocity": 102, "channel": 0}, {"type": "note_off", "time": 153, "note": 60, "velocity": 102, "channel": 0}, {"type": "note_on", "time": 215, "note": 62, "velocity": 104, "channel": 0}, {"type": "note_off", "time": 184, "note": 62, "velocity": 104, "channel": 0}, {"type": "note_on", "time": 92, "note": 63, "velocity": 96, "channel": 0}, {"type": "note_off", "time": 230, "note": 63, "velocity": 96, "channel": 0}, {"type": "note_on", "time": 76, "note": 64, "velocity": 106, "channel": 0}, {"type": "note_off", "time": 291, "note": 64, "velocity": 106, "channel": 0}, {"type": "note_on", "time": 76, "note": 67, "velocity": 97, "channel": 0}, {"type": "note_off", "time": 199, "note": 67, "velocity": 97, "channel": 0}, {"type": "note_on", "time": 92, "note": 68, "velocity": 100, "channel": 0}, {"type": "note_off", "time": 261, "note": 68, "velocity": 100, "channel": 0}, {"type": "note_on", "time": 92, "note": 70, "velocity": 108, "channel": 0}, {"type": "note_off", "time": 307, "note": 70, "velocity": 108, "channel": 0}, {"type": "note_on", "time": 15, "note": 72, "velocity": 107, "channel": 0}, {"type": "note_off", "time": 491, "note": 72, "velocity": 107, "channel": 0}, {"type": "note_on", "time": 15, "note": 69, "velocity": 109, "channel": 0}, {"type": "note_off", "time": 199, "note": 69, "velocity": 109, "channel": 0}, {"type": "note_on", "time": 153, "note": 72, "velocity": 113, "channel": 0}, {"type": "note_off", "time": 445, "note": 72, "velocity": 113, "channel": 0}, {"type": "note_on", "time": 30, "note": 70, "velocity": 109, "channel": 0}, {"type": "note_off", "time": 184, "note": 70, "velocity": 109, "channel": 0}, {"type": "note_on", "time": 46, "note": 68, "velocity": 105, "channel": 0}, {"type": "note_off", "time": 322, "note": 68, "velocity": 105, "channel": 0}, {"type": "note_on", "time": 76, "note": 67, "velocity": 110, "channel": 0}, {"type": "note_on", "time": 245, "note": 65, "velocity": 110, "channel": 0}, {"type": "note_off", "time": 0, "note": 67, "velocity": 110, "channel": 0}, {"type": "note_off", "time": 261, "note": 65, "velocity": 110, "channel": 0}, {"type": "note_on", "time": 30, "note": 64, "velocity": 102, "channel": 0}, {"type": "note_off", "time": 307, "note": 64, "velocity": 102, "channel": 0}, {"type": "note_on", "time": 0, "note": 62, "velocity": 110, "channel": 0}, {"type": "note_off", "time": 368, "note": 62, "velocity": 110, "channel": 0}, {"type": "note_on", "time": 61, "note": 61, "velocity": 110, "channel": 0}, {"type": "note_off", "time": 322, "note": 61, "velocity": 110, "channel": 0}, {"type": "note_on", "time": 76, "note": 60, "velocity": 110, "channel": 0}, {"type": "note_off", "time": 276, "note": 60, "velocity": 110, "channel": 0}, {"type": "note_on", "time": 92, "note": 58, "velocity": 114, "channel": 0}, {"type": "note_off", "time": 245, "note": 58, "velocity": 114, "channel": 0}, {"type": "note_on", "time": 0, "note": 60, "velocity": 98, "channel": 0}, {"type": "note_off", "time": 261, "note": 60, "velocity": 98, "channel": 0}, {"type": "note_on", "time": 0, "note": 61, "velocity": 104, "channel": 0}, {"type": "note_off", "time": 261, "note": 61, "velocity": 104, "channel": 0}, {"type": "note_on", "time": 76, "note": 63, "velocity": 111, "channel": 0}, {"type": "note_off", "time": 322, "note": 63, "velocity": 111, "channel": 0}, {"type": "note_on", "time": 30, "note": 65, "velocity": 111, "channel": 0}, {"type": "note_off", "time": 199, "note": 65, "velocity": 111, "channel": 0}, {"type": "note_on", "time": 76, "note": 67, "velocity": 109, "channel": 0}, {"type": "note_off", "time": 322, "note": 67, "velocity": 109, "channel": 0}, {"type": "note_on", "time": 46, "note": 68, "velocity": 110, "channel": 0}, {"type": "note_off", "time": 276, "note": 68, "velocity": 110, "channel": 0}, {"type": "note_on", "time": 61, "note": 70, "velocity": 100, "channel": 0}, {"type": "note_off", "time": 168, "note": 70, "velocity": 100, "channel": 0}, {"type": "note_on", "time": 138, "note": 72, "velocity": 112, "channel": 0}, {"type": "note_off", "time": 430, "note": 72, "velocity": 112, "channel": 0}, {"type": "note_on", "time": 61, "note": 69, "velocity": 109, "channel": 0}, {"type": "note_off", "time": 230, "note": 69, "velocity": 109, "channel": 0}, {"type": "note_on", "time": 92, "note": 72, "velocity": 111, "channel": 0}, {"type": "note_off", "time": 368, "note": 72, "velocity": 111, "channel": 0}, {"type": "note_on", "time": 138, "note": 70, "velocity": 101, "channel": 0}, {"type": "note_off", "time": 230, "note": 70, "velocity": 101, "channel": 0}, {"type": "note_on", "time": 0, "note": 68, "velocity": 109, "channel": 0}, {"type": "note_off", "time": 230, "note": 68, "velocity": 109, "channel": 0}, {"type": "note_on", "time": 92, "note": 67, "velocity": 109, "channel": 0}, {"type": "note_off", "time": 215, "note": 67, "velocity": 109, "channel": 0}, {"type": "note_on", "time": 153, "note": 65, "velocity": 106, "channel": 0}, {"type": "note_off", "time": 337, "note": 65, "velocity": 106, "channel": 0}, {"type": "note_on", "time": 107, "note": 63, "velocity": 111, "channel": 0}, {"type": "note_off", "time": 414, "note": 63, "velocity": 111, "channel": 0}, {"type": "note_on", "time": 0, "note": 61, "velocity": 119, "channel": 0}, {"type": "note_off", "time": 261, "note": 61, "velocity": 119, "channel": 0}, {"type": "note_on", "time": 76, "note": 60, "velocity": 114, "channel": 0}, {"type": "note_off", "time": 291, "note": 60, "velocity": 114, "channel": 0}, {"type": "note_on", "time": 46, "note": 58, "velocity": 108, "channel": 0}, {"type": "note_off", "time": 261, "note": 58, "velocity": 108, "channel": 0}, {"type": "note_on", "time": 107, "note": 60, "velocity": 106, "channel": 0}, {"type": "note_off", "time": 168, "note": 60, "velocity": 106, "channel": 0}, {"type": "note_on", "time": 30, "note": 61, "velocity": 97, "channel": 0}, {"type": "note_off", "time": 230, "note": 61, "velocity": 97, "channel": 0}, {"type": "note_on", "time": 122, "note": 63, "velocity": 97, "channel": 0}, {"type": "note_off", "time": 245, "note": 63, "velocity": 97, "channel": 0}, {"type": "note_on", "time": 168, "note": 65, "velocity": 107, "channel": 0}, {"type": "note_off", "time": 245, "note": 65, "velocity": 107, "channel": 0}, {"type": "note_on", "time": 92, "note": 67, "velocity": 101, "channel": 0}, {"type": "note_off", "time": 261, "note": 67, "velocity": 101, "channel": 0}, {"type": "note_on", "time": 153, "note": 68, "velocity": 100, "channel": 0}, {"type": "note_off", "time": 245, "note": 68, "velocity": 100, "channel": 0}, {"type": "note_on", "time": 61, "note": 70, "velocity": 107, "channel": 0}, {"type": "note_off", "time": 245, "note": 70, "velocity": 107, "channel": 0}, {"type": "note_on", "time": 76, "note": 72, "velocity": 111, "channel": 0}, {"type": "note_off", "time": 353, "note": 72, "velocity": 111, "channel": 0}, {"type": "note_on", "time": 61, "note": 69, "velocity": 98, "channel": 0}, {"type": "note_off", "time": 307, "note": 69, "velocity": 98, "channel": 0}, {"type": "note_on", "time": 30, "note": 72, "velocity": 109, "channel": 0}, {"type": "note_off", "time": 460, "note": 72, "velocity": 109, "channel": 0}, {"type": "note_on", "time": 15, "note": 70, "velocity": 100, "channel": 0}, {"type": "note_off", "time": 353, "note": 70, "velocity": 100, "channel": 0}, {"type": "note_on", "time": 15, "note": 68, "velocity": 108, "channel": 0}, {"type": "note_off", "time": 184, "note": 68, "velocity": 108, "channel": 0}, {"type": "note_on", "time": 61, "note": 67, "velocity": 106, "channel": 0}, {"type": "note_off", "time": 337, "note": 67, "velocity": 106, "channel": 0}, {"type": "note_on", "time": 30, "note": 65, "velocity": 108, "channel": 0}, {"type": "note_off", "time": 199, "note": 65, "velocity": 108, "channel": 0}, {"type": "note_on", "time": 15, "note": 63, "velocity": 107, "channel": 0}, {"type": "note_off", "time": 215, "note": 63, "velocity": 107, "channel": 0}, {"type": "note_on", "time": 15, "note": 61, "velocity": 105, "channel": 0}, {"type": "note_off", "time": 245, "note": 61, "velocity": 105, "channel": 0}, {"type": "note_on", "time": 92, "note": 60, "velocity": 104, "channel": 0}, {"type": "note_off", "time": 291, "note": 60, "velocity": 104, "channel": 0}, {"type": "note_on", "time": 61, "note": 58, "velocity": 103, "channel": 0}, {"type": "note_off", "time": 322, "note": 58, "velocity": 103, "channel": 0}, {"type": "note_on", "time": 138, "note": 57, "velocity": 110, "channel": 0}, {"type": "note_off", "time": 276, "note": 57, "velocity": 110, "channel": 0}, {"type": "note_on", "time": 4469, "note": 60, "velocity": 95, "channel": 0}, {"type": "note_off", "time": 353, "note": 60, "velocity": 95, "channel": 0}, {"type": "note_on", "time": 230, "note": 61, "velocity": 93, "channel": 0}, {"type": "note_off", "time": 337, "note": 61, "velocity": 93, "channel": 0}, {"type": "note_on", "time": 107, "note": 63, "velocity": 99, "channel": 0}, {"type": "note_off", "time": 261, "note": 63, "velocity": 99, "channel": 0}, {"type": "note_on", "time": 138, "note": 65, "velocity": 98, "channel": 0}, {"type": "note_off", "time": 261, "note": 65, "velocity": 98, "channel": 0}, {"type": "note_on", "time": 168, "note": 67, "velocity": 108, "channel": 0}, {"type": "note_off", "time": 307, "note": 67, "velocity": 108, "channel": 0}, {"type": "note_on", "time": 184, "note": 70, "velocity": 93, "channel": 0}, {"type": "note_off", "time": 199, "note": 70, "velocity": 93, "channel": 0}, {"type": "note_on", "time": 230, "note": 72, "velocity": 107, "channel": 0}, {"type": "note_off", "time": 322, "note": 72, "velocity": 107, "channel": 0}, {"type": "note_on", "time": 399, "note": 68, "velocity": 106, "channel": 0}, {"type": "note_off", "time": 337, "note": 68, "velocity": 106, "channel": 0}, {"type": "note_on", "time": 61, "note": 70, "velocity": 100, "channel": 0}, {"type": "note_off", "time": 337, "note": 70, "velocity": 100, "channel": 0}, {"type": "note_on", "time": 122, "note": 68, "velocity": 105, "channel": 0}, {"type": "note_off", "time": 215, "note": 68, "velocity": 105, "channel": 0}, {"type": "note_on", "time": 76, "note": 67, "velocity": 108, "channel": 0}, {"type": "note_off", "time": 276, "note": 67, "velocity": 108, "channel": 0}, {"type": "note_on", "time": 15, "note": 65, "velocity": 106, "channel": 0}, {"type": "note_on", "time": 307, "note": 63, "velocity": 107, "channel": 0}, {"type": "note_off", "time": 0, "note": 65, "velocity": 106, "channel": 0}, {"type": "note_off", "time": 245, "note": 63, "velocity": 107, "channel": 0}, {"type": "note_on", "time": 0, "note": 62, "velocity": 109, "channel": 0}, {"type": "note_off", "time": 230, "note": 62, "velocity": 109, "channel": 0}, {"type": "note_on", "time": 15, "note": 61, "velocity": 105, "channel": 0}, {"type": "note_off", "time": 199, "note": 61, "velocity": 105, "channel": 0}, {"type": "note_on", "time": 30, "note": 60, "velocity": 107, "channel": 0}, {"type": "note_off", "time": 153, "note": 60, "velocity": 107, "channel": 0}, {"type": "note_on", "time": 46, "note": 58, "velocity": 101, "channel": 0}, {"type": "note_off", "time": 199, "note": 58, "velocity": 101, "channel": 0}, {"type": "note_on", "time": 168, "note": 57, "velocity": 104, "channel": 0}, {"type": "note_off", "time": 261, "note": 57, "velocity": 104, "channel": 0}, {"type": "note_on", "time": 61, "note": 58, "velocity": 99, "channel": 0}, {"type": "note_off", "time": 322, "note": 58, "velocity": 99, "channel": 0}, {"type": "note_on", "time": 15, "note": 60, "velocity": 105, "channel": 0}, {"type": "note_off", "time": 291, "note": 60, "velocity": 105, "channel": 0}, {"type": "note_on", "time": 0, "note": 63, "velocity": 99, "channel": 0}, {"type": "note_off", "time": 261, "note": 63, "velocity": 99, "channel": 0}, {"type": "note_on", "time": 30, "note": 65, "velocity": 100, "channel": 0}, {"type": "note_off", "time": 261, "note": 65, "velocity": 100, "channel": 0}, {"type": "note_on", "time": 138, "note": 66, "velocity": 98, "channel": 0}, {"type": "note_off", "time": 291, "note": 66, "velocity": 98, "channel": 0}, {"type": "note_on", "time": 122, "note": 68, "velocity": 100, "channel": 0}, {"type": "note_off", "time": 245, "note": 68, "velocity": 100, "channel": 0}, {"type": "note_on", "time": 138, "note": 70, "velocity": 97, "channel": 0}, {"type": "note_off", "time": 353, "note": 70, "velocity": 97, "channel": 0}, {"type": "note_on", "time": 46, "note": 72, "velocity": 109, "channel": 0}, {"type": "note_off", "time": 399, "note": 72, "velocity": 109, "channel": 0}, {"type": "note_on", "time": 107, "note": 69, "velocity": 110, "channel": 0}, {"type": "note_off", "time": 168, "note": 69, "velocity": 110, "channel": 0}, {"type": "note_on", "time": 122, "note": 75, "velocity": 101, "channel": 0}, {"type": "note_off", "time": 230, "note": 75, "velocity": 101, "channel": 0}, {"type": "note_on", "time": 122, "note": 72, "velocity": 109, "channel": 0}, {"type": "note_off", "time": 261, "note": 72, "velocity": 109, "channel": 0}, {"type": "note_on", "time": 46, "note": 70, "velocity": 112, "channel": 0}, {"type": "note_off", "time": 168, "note": 70, "velocity": 112, "channel": 0}, {"type": "note_on", "time": 46, "note": 68, "velocity": 113, "channel": 0}, {"type": "note_off", "time": 230, "note": 68, "velocity": 113, "channel": 0}, {"type": "note_on", "time": 0, "note": 67, "velocity": 113, "channel": 0}, {"type": "note_off", "time": 230, "note": 67, "velocity": 113, "channel": 0}, {"type": "note_on", "time": 122, "note": 65, "velocity": 111, "channel": 0}, {"type": "note_off", "time": 215, "note": 65, "velocity": 111, "channel": 0}, {"type": "note_on", "time": 46, "note": 63, "velocity": 108, "channel": 0}, {"type": "note_off", "time": 215, "note": 63, "velocity": 108, "channel": 0}, {"type": "note_on", "time": 168, "note": 62, "velocity": 108, "channel": 0}, {"type": "note_off", "time": 291, "note": 62, "velocity": 108, "channel": 0}, {"type": "note_on", "time": 122, "note": 61, "velocity": 106, "channel": 0}, {"type": "note_off", "time": 583, "note": 61, "velocity": 106, "channel": 0}, {"type": "note_on", "time": 30, "note": 58, "velocity": 107, "channel": 0}, {"type": "note_off", "time": 353, "note": 58, "velocity": 107, "channel": 0}, {"type": "note_on", "time": 61, "note": 60, "velocity": 106, "channel": 0}, {"type": "note_off", "time": 261, "note": 60, "velocity": 106, "channel": 0}, {"type": "note_on", "time": 122, "note": 61, "velocity": 107, "channel": 0}, {"type": "note_off", "time": 168, "note": 61, "velocity": 107, "channel": 0}, {"type": "note_on", "time": 107, "note": 63, "velocity": 106, "channel": 0}, {"type": "note_off", "time": 261, "note": 63, "velocity": 106, "channel": 0}, {"type": "note_on", "time": 138, "note": 65, "velocity": 112, "channel": 0}, {"type": "note_off", "time": 215, "note": 65, "velocity": 112, "channel": 0}, {"type": "note_on", "time": 153, "note": 67, "velocity": 107, "channel": 0}, {"type": "note_off", "time": 230, "note": 67, "velocity": 107, "channel": 0}, {"type": "note_on", "time": 30, "note": 68, "velocity": 107, "channel": 0}, {"type": "note_off", "time": 276, "note": 68, "velocity": 107, "channel": 0}, {"type": "note_on", "time": 107, "note": 70, "velocity": 105, "channel": 0}, {"type": "note_off", "time": 215, "note": 70, "velocity": 105, "channel": 0}, {"type": "note_on", "time": 92, "note": 72, "velocity": 95, "channel": 0}, {"type": "note_off", "time": 460, "note": 72, "velocity": 95, "channel": 0}, {"type": "note_on", "time": 184, "note": 69, "velocity": 110, "channel": 0}, {"type": "note_off", "time": 322, "note": 69, "velocity": 110, "channel": 0}, {"type": "note_on", "time": 0, "note": 72, "velocity": 101, "channel": 0}, {"type": "note_off", "time": 430, "note": 72, "velocity": 101, "channel": 0}, {"type": "note_on", "time": 15, "note": 70, "velocity": 102, "channel": 0}, {"type": "note_off", "time": 368, "note": 70, "velocity": 102, "channel": 0}, {"type": "note_on", "time": 15, "note": 68, "velocity": 108, "channel": 0}, {"type": "note_off", "time": 261, "note": 68, "velocity": 108, "channel": 0}, {"type": "note_on", "time": 0, "note": 67, "velocity": 104, "channel": 0}, {"type": "note_off", "time": 261, "note": 67, "velocity": 104, "channel": 0}, {"type": "note_on", "time": 46, "note": 65, "velocity": 111, "channel": 0}, {"type": "note_off", "time": 337, "note": 65, "velocity": 111, "channel": 0}, {"type": "note_on", "time": 76, "note": 64, "velocity": 104, "channel": 0}, {"type": "note_off", "time": 261, "note": 64, "velocity": 104, "channel": 0}, {"type": "note_on", "time": 30, "note": 62, "velocity": 99, "channel": 0}, {"type": "note_off", "time": 199, "note": 62, "velocity": 99, "channel": 0}, {"type": "note_on", "time": 107, "note": 61, "velocity": 93, "channel": 0}, {"type": "note_off", "time": 307, "note": 61, "velocity": 93, "channel": 0}, {"type": "note_on", "time": 184, "note": 63, "velocity": 94, "channel": 0}, {"type": "note_off", "time": 184, "note": 63, "velocity": 94, "channel": 0}, {"type": "note_on", "time": 0, "note": 64, "velocity": 101, "channel": 0}, {"type": "note_off", "time": 138, "note": 64, "velocity": 101, "channel": 0}, {"type": "note_on", "time": 115, "note": 66, "velocity": 106, "channel": 0}, {"type": "note_off", "time": 92, "note": 66, "velocity": 106, "channel": 0}, {"type": "note_on", "time": 61, "note": 68, "velocity": 100, "channel": 0}, {"type": "note_off", "time": 88, "note": 68, "velocity": 100, "channel": 0}, {"type": "note_on", "time": 0, "note": 69, "velocity": 100, "channel": 0}, {"type": "note_off", "time": 199, "note": 69, "velocity": 100, "channel": 0}, {"type": "note_on", "time": 126, "note": 71, "velocity": 90, "channel": 0}, {"type": "note_off", "time": 291, "note": 71, "velocity": 90, "channel": 0}, {"type": "note_on", "time": 176, "note": 69, "velocity": 100, "channel": 0}, {"type": "note_off", "time": 92, "note": 69, "velocity": 100, "channel": 0}, {"type": "note_on", "time": 80, "note": 68, "velocity": 93, "channel": 0}, {"type": "note_off", "time": 76, "note": 68, "velocity": 93, "channel": 0}, {"type": "note_on", "time": 0, "note": 66, "velocity": 105, "channel": 0}, {"type": "note_off", "time": 92, "note": 66, "velocity": 105, "channel": 0}, {"type": "note_on", "time": 103, "note": 65, "velocity": 96, "channel": 0}, {"type": "note_off", "time": 245, "note": 65, "velocity": 96, "channel": 0}, {"type": "note_on", "time": 61, "note": 63, "velocity": 106, "channel": 0}, {"type": "note_off", "time": 168, "note": 63, "velocity": 106, "channel": 0}, {"type": "note_on", "time": 0, "note": 69, "velocity": 102, "channel": 0}, {"type": "note_off", "time": 399, "note": 69, "velocity": 102, "channel": 0}, {"type": "note_on", "time": 69, "note": 67, "velocity": 104, "channel": 0}, {"type": "note_off", "time": 192, "note": 67, "velocity": 104, "channel": 0}, {"type": "note_on", "time": 0, "note": 69, "velocity": 108, "channel": 0}, {"type": "note_off", "time": 384, "note": 69, "velocity": 108, "channel": 0}, {"type": "note_on", "time": 168, "note": 75, "velocity": 110, "channel": 0}, {"type": "note_off", "time": 430, "note": 75, "velocity": 110, "channel": 0}, {"type": "note_on", "time": 46, "note": 73, "velocity": 113, "channel": 0}, {"type": "note_off", "time": 261, "note": 73, "velocity": 113, "channel": 0}, {"type": "note_on", "time": 122, "note": 71, "velocity": 107, "channel": 0}, {"type": "note_off", "time": 215, "note": 71, "velocity": 107, "channel": 0}, {"type": "note_on", "time": 92, "note": 70, "velocity": 108, "channel": 0}, {"type": "note_off", "time": 445, "note": 70, "velocity": 108, "channel": 0}, {"type": "note_on", "time": 30, "note": 68, "velocity": 109, "channel": 0}, {"type": "note_off", "time": 307, "note": 68, "velocity": 109, "channel": 0}, {"type": "note_on", "time": 107, "note": 67, "velocity": 105, "channel": 0}, {"type": "note_off", "time": 307, "note": 67, "velocity": 105, "channel": 0}, {"type": "note_on", "time": 92, "note": 66, "velocity": 108, "channel": 0}, {"type": "note_off", "time": 337, "note": 66, "velocity": 108, "channel": 0}, {"type": "note_on", "time": 92, "note": 65, "velocity": 101, "channel": 0}, {"type": "note_off", "time": 215, "note": 65, "velocity": 101, "channel": 0}, {"type": "note_on", "time": 261, "note": 63, "velocity": 106, "channel": 0}, {"type": "note_off", "time": 230, "note": 63, "velocity": 106, "channel": 0}, {"type": "note_on", "time": 230, "note": 64, "velocity": 103, "channel": 0}, {"type": "note_off", "time": 353, "note": 64, "velocity": 103, "channel": 0}, {"type": "note_on", "time": 107, "note": 63, "velocity": 113, "channel": 0}, {"type": "note_off", "time": 307, "note": 63, "velocity": 113, "channel": 0}, {"type": "note_on", "time": 46, "note": 65, "velocity": 104, "channel": 0}, {"type": "note_off", "time": 153, "note": 65, "velocity": 104, "channel": 0}, {"type": "note_on", "time": 92, "note": 66, "velocity": 108, "channel": 0}, {"type": "note_off", "time": 199, "note": 66, "velocity": 108, "channel": 0}, {"type": "note_on", "time": 92, "note": 68, "velocity": 108, "channel": 0}, {"type": "note_off", "time": 168, "note": 68, "velocity": 108, "channel": 0}, {"type": "note_on", "time": 138, "note": 70, "velocity": 106, "channel": 0}, {"type": "note_off", "time": 399, "note": 70, "velocity": 106, "channel": 0}, {"type": "note_on", "time": 61, "note": 71, "velocity": 102, "channel": 0}, {"type": "note_off", "time": 291, "note": 71, "velocity": 102, "channel": 0}, {"type": "note_on", "time": 30, "note": 72, "velocity": 111, "channel": 0}, {"type": "note_off", "time": 230, "note": 72, "velocity": 111, "channel": 0}, {"type": "note_on", "time": 122, "note": 75, "velocity": 111, "channel": 0}, {"type": "note_off", "time": 153, "note": 75, "velocity": 111, "channel": 0}, {"type": "note_on", "time": 53, "note": 72, "velocity": 112, "channel": 0}, {"type": "note_off", "time": 168, "note": 72, "velocity": 112, "channel": 0}, {"type": "note_on", "time": 7, "note": 75, "velocity": 111, "channel": 0}, {"type": "note_off", "time": 276, "note": 75, "velocity": 111, "channel": 0}, {"type": "note_on", "time": 30, "note": 73, "velocity": 107, "channel": 0}, {"type": "note_off", "time": 291, "note": 73, "velocity": 107, "channel": 0}, {"type": "note_on", "time": 15, "note": 71, "velocity": 110, "channel": 0}, {"type": "note_off", "time": 261, "note": 71, "velocity": 110, "channel": 0}, {"type": "note_on", "time": 184, "note": 69, "velocity": 105, "channel": 0}, {"type": "note_off", "time": 276, "note": 69, "velocity": 105, "channel": 0}, {"type": "note_on", "time": 92, "note": 68, "velocity": 103, "channel": 0}, {"type": "note_off", "time": 337, "note": 68, "velocity": 103, "channel": 0}, {"type": "note_on", "time": 107, "note": 66, "velocity": 103, "channel": 0}, {"type": "note_off", "time": 368, "note": 66, "velocity": 103, "channel": 0}, {"type": "note_on", "time": 0, "note": 64, "velocity": 99, "channel": 0}, {"type": "note_off", "time": 138, "note": 64, "velocity": 99, "channel": 0}, {"type": "note_on", "time": 30, "note": 63, "velocity": 94, "channel": 0}, {"type": "note_off", "time": 168, "note": 63, "velocity": 94, "channel": 0}, {"type": "note_on", "time": 122, "note": 61, "velocity": 99, "channel": 0}, {"type": "note_off", "time": 460, "note": 61, "velocity": 99, "channel": 0}, {"type": "note_on", "time": 122, "note": 60, "velocity": 101, "channel": 0}, {"type": "note_off", "time": 460, "note": 60, "velocity": 101, "channel": 0}, {"type": "note_on", "time": 276, "note": 64, "velocity": 113, "channel": 0}, {"type": "note_off", "time": 307, "note": 64, "velocity": 113, "channel": 0}, {"type": "note_on", "time": 199, "note": 66, "velocity": 106, "channel": 0}, {"type": "note_off", "time": 230, "note": 66, "velocity": 106, "channel": 0}, {"type": "note_on", "time": 168, "note": 68, "velocity": 96, "channel": 0}, {"type": "note_off", "time": 199, "note": 68, "velocity": 96, "channel": 0}, {"type": "note_on", "time": 184, "note": 70, "velocity": 80, "channel": 0}, {"type": "note_off", "time": 184, "note": 70, "velocity": 80, "channel": 0}, {"type": "note_on", "time": 307, "note": 71, "velocity": 100, "channel": 0}, {"type": "note_off", "time": 184, "note": 71, "velocity": 100, "channel": 0}, {"type": "note_on", "time": 153, "note": 73, "velocity": 107, "channel": 0}, {"type": "note_off", "time": 230, "note": 73, "velocity": 107, "channel": 0}, {"type": "note_on", "time": 0, "note": 74, "velocity": 107, "channel": 0}, {"type": "note_off", "time": 168, "note": 74, "velocity": 107, "channel": 0}, {"type": "note_on", "time": 138, "note": 72, "velocity": 92, "channel": 0}, {"type": "note_off", "time": 153, "note": 72, "velocity": 92, "channel": 0}, {"type": "note_on", "time": 168, "note": 74, "velocity": 106, "channel": 0}, {"type": "note_off", "time": 245, "note": 74, "velocity": 106, "channel": 0}, {"type": "note_on", "time": 30, "note": 73, "velocity": 111, "channel": 0}, {"type": "note_off", "time": 107, "note": 73, "velocity": 111, "channel": 0}, {"type": "note_on", "time": 0, "note": 71, "velocity": 104, "channel": 0}, {"type": "note_off", "time": 322, "note": 71, "velocity": 104, "channel": 0}, {"type": "note_on", "time": 15, "note": 70, "velocity": 101, "channel": 0}, {"type": "note_off", "time": 414, "note": 70, "velocity": 101, "channel": 0}, {"type": "note_on", "time": 61, "note": 68, "velocity": 104, "channel": 0}, {"type": "note_off", "time": 276, "note": 68, "velocity": 104, "channel": 0}, {"type": "note_on", "time": 76, "note": 67, "velocity": 100, "channel": 0}, {"type": "note_off", "time": 261, "note": 67, "velocity": 100, "channel": 0}, {"type": "note_on", "time": 76, "note": 66, "velocity": 105, "channel": 0}, {"type": "note_off", "time": 184, "note": 66, "velocity": 105, "channel": 0}, {"type": "note_on", "time": 122, "note": 64, "velocity": 107, "channel": 0}, {"type": "note_off", "time": 445, "note": 64, "velocity": 107, "channel": 0}, {"type": "note_on", "time": 15, "note": 63, "velocity": 106, "channel": 0}, {"type": "note_on", "time": 307, "note": 61, "velocity": 103, "channel": 0}, {"type": "note_off", "time": 0, "note": 63, "velocity": 106, "channel": 0}, {"type": "note_off", "time": 230, "note": 61, "velocity": 103, "channel": 0}, {"type": "note_on", "time": 107, "note": 63, "velocity": 104, "channel": 0}, {"type": "note_off", "time": 230, "note": 63, "velocity": 104, "channel": 0}, {"type": "note_on", "time": 168, "note": 64, "velocity": 106, "channel": 0}, {"type": "note_off", "time": 230, "note": 64, "velocity": 106, "channel": 0}, {"type": "note_on", "time": 107, "note": 66, "velocity": 100, "channel": 0}, {"type": "note_off", "time": 307, "note": 66, "velocity": 100, "channel": 0}, {"type": "note_on", "time": 46, "note": 68, "velocity": 102, "channel": 0}, {"type": "note_off", "time": 430, "note": 68, "velocity": 102, "channel": 0}, {"type": "note_on", "time": 0, "note": 70, "velocity": 106, "channel": 0}, {"type": "note_off", "time": 384, "note": 70, "velocity": 106, "channel": 0}, {"type": "note_on", "time": 92, "note": 71, "velocity": 97, "channel": 0}, {"type": "note_off", "time": 215, "note": 71, "velocity": 97, "channel": 0}, {"type": "note_on", "time": 107, "note": 72, "velocity": 103, "channel": 0}, {"type": "note_off", "time": 337, "note": 72, "velocity": 103, "channel": 0}, {"type": "note_on", "time": 153, "note": 75, "velocity": 114, "channel": 0}, {"type": "note_off", "time": 337, "note": 75, "velocity": 114, "channel": 0}, {"type": "note_on", "time": 61, "note": 74, "velocity": 106, "channel": 0}, {"type": "note_off", "time": 261, "note": 74, "velocity": 106, "channel": 0}, {"type": "note_on", "time": 30, "note": 72, "velocity": 107, "channel": 0}, {"type": "note_off", "time": 276, "note": 72, "velocity": 107, "channel": 0}, {"type": "note_on", "time": 0, "note": 71, "velocity": 115, "channel": 0}, {"type": "note_off", "time": 245, "note": 71, "velocity": 115, "channel": 0}, {"type": "note_on", "time": 61, "note": 70, "velocity": 109, "channel": 0}, {"type": "note_off", "time": 276, "note": 70, "velocity": 109, "channel": 0}, {"type": "note_on", "time": 30, "note": 68, "velocity": 113, "channel": 0}, {"type": "note_off", "time": 199, "note": 68, "velocity": 113, "channel": 0}, {"type": "note_on", "time": 138, "note": 67, "velocity": 109, "channel": 0}, {"type": "note_off", "time": 199, "note": 67, "velocity": 109, "channel": 0}, {"type": "note_on", "time": 76, "note": 66, "velocity": 108, "channel": 0}, {"type": "note_off", "time": 322, "note": 66, "velocity": 108, "channel": 0}, {"type": "note_on", "time": 0, "note": 64, "velocity": 110, "channel": 0}, {"type": "note_off", "time": 353, "note": 64, "velocity": 110, "channel": 0}, {"type": "note_on", "time": 76, "note": 63, "velocity": 110, "channel": 0}, {"type": "note_off", "time": 337, "note": 63, "velocity": 110, "channel": 0}, {"type": "note_on", "time": 61, "note": 62, "velocity": 107, "channel": 0}, {"type": "note_off", "time": 337, "note": 62, "velocity": 107, "channel": 0}, {"type": "note_on", "time": 92, "note": 61, "velocity": 105, "channel": 0}, {"type": "note_off", "time": 399, "note": 61, "velocity": 105, "channel": 0}, {"type": "note_on", "time": 46, "note": 60, "velocity": 110, "channel": 0}, {"type": "note_off", "time": 261, "note": 60, "velocity": 110, "channel": 0}, {"type": "note_on", "time": 153, "note": 59, "velocity": 96, "channel": 0}, {"type": "note_off", "time": 230, "note": 59, "velocity": 96, "channel": 0}, {"type": "note_on", "time": 184, "note": 57, "velocity": 101, "channel": 0}, {"type": "note_off", "time": 337, "note": 57, "velocity": 101, "channel": 0}, {"type": "note_on", "time": 4285, "note": 64, "velocity": 101, "channel": 0}, {"type": "note_off", "time": 476, "note": 64, "velocity": 101, "channel": 0}, {"type": "note_on", "time": 76, "note": 62, "velocity": 96, "channel": 0}, {"type": "note_off", "time": 491, "note": 62, "velocity": 96, "channel": 0}, {"type": "note_on", "time": 107, "note": 60, "velocity": 84, "channel": 0}, {"type": "note_off", "time": 506, "note": 60, "velocity": 84, "channel": 0}, {"type": "note_on", "time": 0, "note": 62, "velocity": 92, "channel": 0}, {"type": "note_off", "time": 384, "note": 62, "velocity": 92, "channel": 0}, {"type": "note_on", "time": 122, "note": 64, "velocity": 87, "channel": 0}, {"type": "note_off", "time": 15160, "note": 64, "velocity": 87, "channel": 0}, {"type": "note_on", "time": 11105, "note": 67, "velocity": 112, "channel": 0}, {"type": "note_off", "time": 1612, "note": 67, "velocity": 112, "channel": 0}, {"type": "note_on", "time": 399, "note": 67, "velocity": 115, "channel": 0}, {"type": "note_off", "time": 1259, "note": 67, "velocity": 115, "channel": 0}, {"type": "note_on", "time": 552, "note": 67, "velocity": 114, "channel": 0}, {"type": "note_off", "time": 752, "note": 67, "velocity": 114, "channel": 0}, {"type": "note_on", "time": 30, "note": 66, "velocity": 109, "channel": 0}, {"type": "note_off", "time": 860, "note": 66, "velocity": 109, "channel": 0}, {"type": "note_on", "time": 215, "note": 64, "velocity": 113, "channel": 0}, {"type": "note_off", "time": 660, "note": 64, "velocity": 113, "channel": 0}, {"type": "note_on", "time": 92, "note": 66, "velocity": 111, "channel": 0}, {"type": "note_off", "time": 783, "note": 66, "velocity": 111, "channel": 0}, {"type": "note_on", "time": 15, "note": 67, "velocity": 105, "channel": 0}, {"type": "note_off", "time": 10905, "note": 67, "velocity": 105, "channel": 0}, {"type": "note_on", "time": 76, "note": 69, "velocity": 120, "channel": 0}, {"type": "note_off", "time": 1720, "note": 69, "velocity": 120, "channel": 0}, {"type": "note_on", "time": 168, "note": 70, "velocity": 121, "channel": 0}, {"type": "note_off", "time": 1474, "note": 70, "velocity": 121, "channel": 0}, {"type": "note_on", "time": 30, "note": 69, "velocity": 117, "channel": 0}, {"type": "note_off", "time": 983, "note": 69, "velocity": 117, "channel": 0}, {"type": "note_on", "time": 138, "note": 67, "velocity": 114, "channel": 0}, {"type": "note_off", "time": 967, "note": 67, "velocity": 114, "channel": 0}, {"type": "note_on", "time": 92, "note": 69, "velocity": 118, "channel": 0}, {"type": "note_off", "time": 1182, "note": 69, "velocity": 118, "channel": 0}, {"type": "note_on", "time": 0, "note": 70, "velocity": 9, "channel": 0}, {"type": "note_off", "time": 13547, "note": 70, "velocity": 9, "channel": 0}, {"type": "note_on", "time": 11596, "note": 74, "velocity": 120, "channel": 0}, {"type": "note_off", "time": 8401, "note": 74, "velocity": 120, "channel": 0}, {"type": "note_on", "time": 76, "note": 71, "velocity": 106, "channel": 0}, {"type": "note_off", "time": 752, "note": 71, "velocity": 106, "channel": 0}, {"type": "note_on", "time": 199, "note": 64, "velocity": 83, "channel": 0}, {"type": "note_off", "time": 860, "note": 64, "velocity": 83, "channel": 0}, {"type": "end_of_track", "time": 0}]]}