{"ticks_per_beat": 192, "tracks": [[{"type": "track_name", "name": "Melody", "time": 0}, {"type": "set_tempo", "tempo": 526315, "time": 0}, {"type": "key_signature", "key": "F", "time": 0}, {"type": "time_signature", "numerator": 4, "denominator": 4, "clocks_per_click": 24, "notated_32nd_notes_per_beat": 8, "time": 0}, {"type": "note_on", "time": 1764, "note": 77, "velocity": 124, "channel": 0}, {"type": "note_off", "time": 76, "note": 77, "velocity": 124, "channel": 0}, {"type": "note_on", "time": 374, "note": 68, "velocity": 114, "channel": 0}, {"type": "note_off", "time": 144, "note": 68, "velocity": 114, "channel": 0}, {"type": "note_on", "time": 0, "note": 65, "velocity": 85, "channel": 0}, {"type": "note_off", "time": 47, "note": 65, "velocity": 85, "channel": 0}, {"type": "note_on", "time": 6, "note": 68, "velocity": 108, "channel": 0}, {"type": "note_off", "time": 122, "note": 68, "velocity": 108, "channel": 0}, {"type": "note_on", "time": 76, "note": 65, "velocity": 113, "channel": 0}, {"type": "note_off", "time": 138, "note": 65, "velocity": 113, "channel": 0}, {"type": "note_on", "time": 65, "note": 65, "velocity": 114, "channel": 0}, {"type": "note_off", "time": 157, "note": 65, "velocity": 114, "channel": 0}, {"type": "note_on", "time": 40, "note": 68, "velocity": 105, "channel": 0}, {"type": "note_off", "time": 47, "note": 68, "velocity": 105, "channel": 0}, {"type": "note_on", "time": 5, "note": 65, "velocity": 110, "channel": 0}, {"type": "note_off", "time": 57, "note": 65, "velocity": 110, "channel": 0}, {"type": "note_on", "time": 1, "note": 68, "velocity": 116, "channel": 0}, {"type": "note_off", "time": 65, "note": 68, "velocity": 116, "channel": 0}, {"type": "note_on", "time": 7, "note": 65, "velocity": 116, "channel": 0}, {"type": "note_off", "time": 130, "note": 65, "velocity": 116, "channel": 0}, {"type": "note_on", "time": 11, "note": 65, "velocity": 111, "channel": 0}, {"type": "note_off", "time": 155, "note": 65, "velocity": 111, "channel": 0}, {"type": "note_on", "time": 807, "note": 80, "velocity": 121, "channel": 0}, {"type": "note_off", "time": 85, "note": 80, "velocity": 121, "channel": 0}, {"type": "note_on", "time": 5, "note": 79, "velocity": 117, "channel": 0}, {"type": "note_off", "time": 100, "note": 79, "velocity": 117, "channel": 0}, {"type": "note_on", "time": 9, "note": 77, "velocity": 119, "channel": 0}, {"type": "note_off", "time": 203, "note": 77, "velocity": 119, "channel": 0}, {"type": "note_on", "time": 10, "note": 75, "velocity": 115, "channel": 0}, {"type": "note_off", "time": 69, "note": 75, "velocity": 115, "channel": 0}, {"type": "note_on", "time": 13, "note": 74, "velocity": 112, "channel": 0}, {"type": "note_off", "time": 97, "note": 74, "velocity": 112, "channel": 0}, {"type": "note_on", "time": 9, "note": 72, "velocity": 112, "channel": 0}, {"type": "note_off", "time": 164, "note": 72, "velocity": 112, "channel": 0}, {"type": "note_on", "time": 29, "note": 68, "velocity": 112, "channel": 0}, {"type": "note_off", "time": 77, "note": 68, "velocity": 112, "channel": 0}, {"type": "note_on", "time": 9, "note": 67, "velocity": 112, "channel": 0}, {"type": "note_off", "time": 100, "note": 67, "velocity": 112, "channel": 0}, {"type": "note_on", "time": 3, "note": 65, "velocity": 105, "channel": 0}, {"type": "note_off", "time": 202, "note": 65, "velocity": 105, "channel": 0}, {"type": "note_on", "time": 245, "note": 77, "velocity": 124, "channel": 0}, {"type": "note_off", "time": 57, "note": 77, "velocity": 124, "channel": 0}, {"type": "note_on", "time": 257, "note": 65, "velocity": 96, "channel": 0}, {"type": "note_off", "time": 27, "note": 65, "velocity": 96, "channel": 0}, {"type": "note_on", "time": 37, "note": 68, "velocity": 107, "channel": 0}, {"type": "note_off", "time": 129, "note": 68, "velocity": 107, "channel": 0}, {"type": "note_on", "time": 18, "note": 65, "velocity": 91, "channel": 0}, {"type": "note_off", "time": 26, "note": 65, "velocity": 91, "channel": 0}, {"type": "note_on", "time": 19, "note": 68, "velocity": 99, "channel": 0}, {"type": "note_off", "time": 113, "note": 68, "velocity": 99, "channel": 0}, {"type": "note_on", "time": 13, "note": 65, "velocity": 114, "channel": 0}, {"type": "note_off", "time": 62, "note": 65, "velocity": 114, "channel": 0}, {"type": "note_on", "time": 836, "note": 74, "velocity": 93, "channel": 0}, {"type": "note_off", "time": 55, "note": 74, "velocity": 93, "channel": 0}, {"type": "note_on", "time": 8, "note": 77, "velocity": 122, "channel": 0}, {"type": "note_off", "time": 45, "note": 77, "velocity": 122, "channel": 0}, {"type": "note_on", "time": 16, "note": 79, "velocity": 120, "channel": 0}, {"type": "note_off", "time": 61, "note": 79, "velocity": 120, "channel": 0}, {"type": "note_on", "time": 1, "note": 77, "velocity": 93, "channel": 0}, {"type": "note_off", "time": 64, "note": 77, "velocity": 93, "channel": 0}, {"type": "note_on", "time": 6, "note": 79, "velocity": 119, "channel": 0}, {"type": "note_off", "time": 61, "note": 79, "velocity": 119, "channel": 0}, {"type": "note_on", "time": 4, "note": 77, "velocity": 114, "channel": 0}, {"type": "note_off", "time": 56, "note": 77, "velocity": 114, "channel": 0}, {"type": "note_on", "time": 1, "note": 79, "velocity": 118, "channel": 0}, {"type": "note_off", "time": 55, "note": 79, "velocity": 118, "channel": 0}, {"type": "note_on", "time": 0, "note": 77, "velocity": 112, "channel": 0}, {"type": "note_off", "time": 64, "note": 77, "velocity": 112, "channel": 0}, {"type": "note_on", "time": 19, "note": 80, "velocity": 122, "channel": 0}, {"type": "note_off", "time": 60, "note": 80, "velocity": 122, "channel": 0}, {"type": "note_on", "time": 1, "note": 77, "velocity": 120, "channel": 0}, {"type": "note_off", "time": 38, "note": 77, "velocity": 120, "channel": 0}, {"type": "note_on", "time": 155, "note": 74, "velocity": 106, "channel": 0}, {"type": "note_off", "time": 45, "note": 74, "velocity": 106, "channel": 0}, {"type": "note_on", "time": 11, "note": 77, "velocity": 118, "channel": 0}, {"type": "note_off", "time": 50, "note": 77, "velocity": 118, "channel": 0}, {"type": "note_on", "time": 22, "note": 77, "velocity": 120, "channel": 0}, {"type": "note_off", "time": 57, "note": 77, "velocity": 120, "channel": 0}, {"type": "note_on", "time": 3, "note": 77, "velocity": 107, "channel": 0}, {"type": "note_off", "time": 41, "note": 77, "velocity": 107, "channel": 0}, {"type": "note_on", "time": 20, "note": 79, "velocity": 117, "channel": 0}, {"type": "note_off", "time": 54, "note": 79, "velocity": 117, "channel": 0}, {"type": "note_on", "time": 11, "note": 77, "velocity": 122, "channel": 0}, {"type": "note_off", "time": 44, "note": 77, "velocity": 122, "channel": 0}, {"type": "note_on", "time": 16, "note": 79, "velocity": 117, "channel": 0}, {"type": "note_off", "time": 49, "note": 79, "velocity": 117, "channel": 0}, {"type": "note_on", "time": 6, "note": 77, "velocity": 117, "channel": 0}, {"type": "note_off", "time": 45, "note": 77, "velocity": 117, "channel": 0}, {"type": "note_on", "time": 26, "note": 80, "velocity": 122, "channel": 0}, {"type": "note_on", "time": 68, "note": 77, "velocity": 121, "channel": 0}, {"type": "note_off", "time": 0, "note": 80, "velocity": 122, "channel": 0}, {"type": "note_off", "time": 34, "note": 77, "velocity": 121, "channel": 0}, {"type": "note_on", "time": 38, "note": 79, "velocity": 117, "channel": 0}, {"type": "note_off", "time": 54, "note": 79, "velocity": 117, "channel": 0}, {"type": "note_on", "time": 25, "note": 77, "velocity": 121, "channel": 0}, {"type": "note_off", "time": 73, "note": 77, "velocity": 121, "channel": 0}, {"type": "note_on", "time": 39, "note": 74, "velocity": 108, "channel": 0}, {"type": "note_off", "time": 29, "note": 74, "velocity": 108, "channel": 0}, {"type": "note_on", "time": 1, "note": 72, "velocity": 116, "channel": 0}, {"type": "note_off", "time": 60, "note": 72, "velocity": 116, "channel": 0}, {"type": "note_on", "time": 1019, "note": 75, "velocity": 117, "channel": 0}, {"type": "note_off", "time": 386, "note": 75, "velocity": 117, "channel": 0}, {"type": "note_on", "time": 34, "note": 70, "velocity": 121, "channel": 0}, {"type": "note_off", "time": 20, "note": 70, "velocity": 121, "channel": 0}, {"type": "note_on", "time": 2, "note": 71, "velocity": 120, "channel": 0}, {"type": "note_off", "time": 29, "note": 71, "velocity": 120, "channel": 0}, {"type": "note_on", "time": 21, "note": 70, "velocity": 115, "channel": 0}, {"type": "note_off", "time": 131, "note": 70, "velocity": 115, "channel": 0}, {"type": "note_on", "time": 7, "note": 68, "velocity": 109, "channel": 0}, {"type": "note_off", "time": 41, "note": 68, "velocity": 109, "channel": 0}, {"type": "note_on", "time": 6, "note": 70, "velocity": 112, "channel": 0}, {"type": "note_off", "time": 171, "note": 70, "velocity": 112, "channel": 0}, {"type": "note_on", "time": 26, "note": 68, "velocity": 115, "channel": 0}, {"type": "note_off", "time": 95, "note": 68, "velocity": 115, "channel": 0}, {"type": "note_on", "time": 94, "note": 71, "velocity": 110, "channel": 0}, {"type": "note_off", "time": 176, "note": 71, "velocity": 110, "channel": 0}, {"type": "note_on", "time": 35, "note": 70, "velocity": 108, "channel": 0}, {"type": "note_off", "time": 72, "note": 70, "velocity": 108, "channel": 0}, {"type": "note_on", "time": 5, "note": 68, "velocity": 109, "channel": 0}, {"type": "note_off", "time": 46, "note": 68, "velocity": 109, "channel": 0}, {"type": "note_on", "time": 6, "note": 65, "velocity": 109, "channel": 0}, {"type": "note_off", "time": 37, "note": 65, "velocity": 109, "channel": 0}, {"type": "note_on", "time": 30, "note": 70, "velocity": 106, "channel": 0}, {"type": "note_off", "time": 174, "note": 70, "velocity": 106, "channel": 0}, {"type": "note_on", "time": 4, "note": 68, "velocity": 107, "channel": 0}, {"type": "note_off", "time": 77, "note": 68, "velocity": 107, "channel": 0}, {"type": "note_on", "time": 58, "note": 75, "velocity": 114, "channel": 0}, {"type": "note_off", "time": 238, "note": 75, "velocity": 114, "channel": 0}, {"type": "note_on", "time": 32, "note": 71, "velocity": 112, "channel": 0}, {"type": "note_off", "time": 43, "note": 71, "velocity": 112, "channel": 0}, {"type": "note_on", "time": 10, "note": 70, "velocity": 108, "channel": 0}, {"type": "note_off", "time": 52, "note": 70, "velocity": 108, "channel": 0}, {"type": "note_on", "time": 3, "note": 68, "velocity": 108, "channel": 0}, {"type": "note_off", "time": 60, "note": 68, "velocity": 108, "channel": 0}, {"type": "note_on", "time": 13, "note": 70, "velocity": 109, "channel": 0}, {"type": "note_off", "time": 118, "note": 70, "velocity": 109, "channel": 0}, {"type": "note_on", "time": 6, "note": 68, "velocity": 111, "channel": 0}, {"type": "note_off", "time": 37, "note": 68, "velocity": 111, "channel": 0}, {"type": "note_on", "time": 2, "note": 65, "velocity": 110, "channel": 0}, {"type": "note_off", "time": 154, "note": 65, "velocity": 110, "channel": 0}, {"type": "note_on", "time": 13, "note": 63, "velocity": 95, "channel": 0}, {"type": "note_off", "time": 24, "note": 63, "velocity": 95, "channel": 0}, {"type": "note_on", "time": 27, "note": 65, "velocity": 93, "channel": 0}, {"type": "note_off", "time": 164, "note": 65, "velocity": 93, "channel": 0}, {"type": "note_on", "time": 32, "note": 68, "velocity": 94, "channel": 0}, {"type": "note_off", "time": 79, "note": 68, "velocity": 94, "channel": 0}, {"type": "note_on", "time": 622, "note": 80, "velocity": 122, "channel": 0}, {"type": "note_off", "time": 99, "note": 80, "velocity": 122, "channel": 0}, {"type": "note_on", "time": 81, "note": 77, "velocity": 125, "channel": 0}, {"type": "note_off", "time": 99, "note": 77, "velocity": 125, "channel": 0}, {"type": "note_on", "time": 105, "note": 71, "velocity": 118, "channel": 0}, {"type": "note_off", "time": 56, "note": 71, "velocity": 118, "channel": 0}, {"type": "note_on", "time": 9, "note": 70, "velocity": 113, "channel": 0}, {"type": "note_off", "time": 58, "note": 70, "velocity": 113, "channel": 0}, {"type": "note_on", "time": 6, "note": 68, "velocity": 111, "channel": 0}, {"type": "note_off", "time": 57, "note": 68, "velocity": 111, "channel": 0}, {"type": "note_on", "time": 2, "note": 65, "velocity": 108, "channel": 0}, {"type": "note_off", "time": 56, "note": 65, "velocity": 108, "channel": 0}, {"type": "note_on", "time": 2, "note": 70, "velocity": 114, "channel": 0}, {"type": "note_off", "time": 56, "note": 70, "velocity": 114, "channel": 0}, {"type": "note_on", "time": 10, "note": 65, "velocity": 105, "channel": 0}, {"type": "note_off", "time": 56, "note": 65, "velocity": 105, "channel": 0}, {"type": "note_on", "time": 0, "note": 71, "velocity": 112, "channel": 0}, {"type": "note_off", "time": 57, "note": 71, "velocity": 112, "channel": 0}, {"type": "note_on", "time": 11, "note": 65, "velocity": 104, "channel": 0}, {"type": "note_on", "time": 59, "note": 68, "velocity": 110, "channel": 0}, {"type": "note_off", "time": 0, "note": 65, "velocity": 104, "channel": 0}, {"type": "note_off", "time": 59, "note": 68, "velocity": 110, "channel": 0}, {"type": "note_on", "time": 4, "note": 65, "velocity": 99, "channel": 0}, {"type": "note_off", "time": 61, "note": 65, "velocity": 99, "channel": 0}, {"type": "note_on", "time": 1, "note": 71, "velocity": 114, "channel": 0}, {"type": "note_off", "time": 60, "note": 71, "velocity": 114, "channel": 0}, {"type": "note_on", "time": 8, "note": 65, "velocity": 106, "channel": 0}, {"type": "note_off", "time": 52, "note": 65, "velocity": 106, "channel": 0}, {"type": "note_on", "time": 1, "note": 70, "velocity": 105, "channel": 0}, {"type": "note_off", "time": 69, "note": 70, "velocity": 105, "channel": 0}, {"type": "note_on", "time": 5, "note": 68, "velocity": 107, "channel": 0}, {"type": "note_off", "time": 54, "note": 68, "velocity": 107, "channel": 0}, {"type": "note_on", "time": 9, "note": 65, "velocity": 95, "channel": 0}, {"type": "note_off", "time": 56, "note": 65, "velocity": 95, "channel": 0}, {"type": "note_on", "time": 209, "note": 75, "velocity": 115, "channel": 0}, {"type": "note_off", "time": 138, "note": 75, "velocity": 115, "channel": 0}, {"type": "note_on", "time": 217, "note": 71, "velocity": 114, "channel": 0}, {"type": "note_off", "time": 75, "note": 71, "velocity": 114, "channel": 0}, {"type": "note_on", "time": 13, "note": 70, "velocity": 102, "channel": 0}, {"type": "note_off", "time": 110, "note": 70, "velocity": 102, "channel": 0}, {"type": "note_on", "time": 5, "note": 68, "velocity": 104, "channel": 0}, {"type": "note_off", "time": 258, "note": 68, "velocity": 104, "channel": 0}, {"type": "note_on", "time": 16, "note": 68, "velocity": 106, "channel": 0}, {"type": "note_off", "time": 58, "note": 68, "velocity": 106, "channel": 0}, {"type": "note_on", "time": 3, "note": 65, "velocity": 97, "channel": 0}, {"type": "note_off", "time": 45, "note": 65, "velocity": 97, "channel": 0}, {"type": "note_on", "time": 11, "note": 68, "velocity": 105, "channel": 0}, {"type": "note_off", "time": 55, "note": 68, "velocity": 105, "channel": 0}, {"type": "note_on", "time": 13, "note": 65, "velocity": 102, "channel": 0}, {"type": "note_off", "time": 65, "note": 65, "velocity": 102, "channel": 0}, {"type": "note_on", "time": 0, "note": 71, "velocity": 105, "channel": 0}, {"type": "note_off", "time": 59, "note": 71, "velocity": 105, "channel": 0}, {"type": "note_on", "time": 5, "note": 65, "velocity": 101, "channel": 0}, {"type": "note_off", "time": 52, "note": 65, "velocity": 101, "channel": 0}, {"type": "note_on", "time": 7, "note": 70, "velocity": 100, "channel": 0}, {"type": "note_off", "time": 58, "note": 70, "velocity": 100, "channel": 0}, {"type": "note_on", "time": 2, "note": 65, "velocity": 102, "channel": 0}, {"type": "note_off", "time": 63, "note": 65, "velocity": 102, "channel": 0}, {"type": "note_on", "time": 5, "note": 68, "velocity": 111, "channel": 0}, {"type": "note_off", "time": 64, "note": 68, "velocity": 111, "channel": 0}, {"type": "note_on", "time": 18, "note": 65, "velocity": 100, "channel": 0}, {"type": "note_off", "time": 112, "note": 65, "velocity": 100, "channel": 0}, {"type": "note_on", "time": 14, "note": 65, "velocity": 99, "channel": 0}, {"type": "note_off", "time": 141, "note": 65, "velocity": 99, "channel": 0}, {"type": "note_on", "time": 603, "note": 62, "velocity": 104, "channel": 0}, {"type": "note_off", "time": 16, "note": 62, "velocity": 104, "channel": 0}, {"type": "note_on", "time": 1, "note": 63, "velocity": 116, "channel": 0}, {"type": "note_off", "time": 371, "note": 63, "velocity": 116, "channel": 0}, {"type": "note_on", "time": 5, "note": 60, "velocity": 91, "channel": 0}, {"type": "note_off", "time": 61, "note": 60, "velocity": 91, "channel": 0}, {"type": "note_on", "time": 10, "note": 63, "velocity": 103, "channel": 0}, {"type": "note_off", "time": 94, "note": 63, "velocity": 103, "channel": 0}, {"type": "note_on", "time": 22, "note": 67, "velocity": 110, "channel": 0}, {"type": "note_off", "time": 64, "note": 67, "velocity": 110, "channel": 0}, {"type": "note_on", "time": 36, "note": 65, "velocity": 104, "channel": 0}, {"type": "note_off", "time": 155, "note": 65, "velocity": 104, "channel": 0}, {"type": "note_on", "time": 119, "note": 77, "velocity": 125, "channel": 0}, {"type": "note_off", "time": 85, "note": 77, "velocity": 125, "channel": 0}, {"type": "note_on", "time": 1235, "note": 83, "velocity": 123, "channel": 0}, {"type": "note_off", "time": 38, "note": 83, "velocity": 123, "channel": 0}, {"type": "note_on", "time": 9, "note": 83, "velocity": 126, "channel": 0}, {"type": "note_off", "time": 38, "note": 83, "velocity": 126, "channel": 0}, {"type": "note_on", "time": 113, "note": 79, "velocity": 116, "channel": 0}, {"type": "note_off", "time": 27, "note": 79, "velocity": 116, "channel": 0}, {"type": "note_on", "time": 73, "note": 80, "velocity": 122, "channel": 0}, {"type": "note_off", "time": 38, "note": 80, "velocity": 122, "channel": 0}, {"type": "note_on", "time": 10, "note": 80, "velocity": 124, "channel": 0}, {"type": "note_on", "time": 43, "note": 77, "velocity": 121, "channel": 0}, {"type": "note_off", "time": 0, "note": 80, "velocity": 124, "channel": 0}, {"type": "note_off", "time": 32, "note": 77, "velocity": 121, "channel": 0}, {"type": "note_on", "time": 29, "note": 80, "velocity": 123, "channel": 0}, {"type": "note_off", "time": 34, "note": 80, "velocity": 123, "channel": 0}, {"type": "note_on", "time": 47, "note": 82, "velocity": 116, "channel": 0}, {"type": "note_off", "time": 49, "note": 82, "velocity": 116, "channel": 0}, {"type": "note_on", "time": 167, "note": 81, "velocity": 120, "channel": 0}, {"type": "note_off", "time": 21, "note": 81, "velocity": 120, "channel": 0}, {"type": "note_on", "time": 3, "note": 83, "velocity": 115, "channel": 0}, {"type": "note_off", "time": 24, "note": 83, "velocity": 115, "channel": 0}, {"type": "note_on", "time": 43, "note": 83, "velocity": 124, "channel": 0}, {"type": "note_off", "time": 52, "note": 83, "velocity": 124, "channel": 0}, {"type": "note_on", "time": 44, "note": 77, "velocity": 122, "channel": 0}, {"type": "note_off", "time": 48, "note": 77, "velocity": 122, "channel": 0}, {"type": "note_on", "time": 42, "note": 80, "velocity": 125, "channel": 0}, {"type": "note_off", "time": 47, "note": 80, "velocity": 125, "channel": 0}, {"type": "note_on", "time": 6, "note": 80, "velocity": 121, "channel": 0}, {"type": "note_off", "time": 43, "note": 80, "velocity": 121, "channel": 0}, {"type": "note_on", "time": 3, "note": 77, "velocity": 122, "channel": 0}, {"type": "note_off", "time": 48, "note": 77, "velocity": 122, "channel": 0}, {"type": "note_on", "time": 18, "note": 80, "velocity": 123, "channel": 0}, {"type": "note_off", "time": 52, "note": 80, "velocity": 123, "channel": 0}, {"type": "note_on", "time": 34, "note": 82, "velocity": 118, "channel": 0}, {"type": "note_off", "time": 55, "note": 82, "velocity": 118, "channel": 0}, {"type": "note_on", "time": 140, "note": 75, "velocity": 102, "channel": 0}, {"type": "note_off", "time": 27, "note": 75, "velocity": 102, "channel": 0}, {"type": "note_on", "time": 5, "note": 83, "velocity": 127, "channel": 0}, {"type": "note_off", "time": 47, "note": 83, "velocity": 127, "channel": 0}, {"type": "note_on", "time": 48, "note": 83, "velocity": 121, "channel": 0}, {"type": "note_off", "time": 50, "note": 83, "velocity": 121, "channel": 0}, {"type": "note_on", "time": 45, "note": 77, "velocity": 122, "channel": 0}, {"type": "note_off", "time": 54, "note": 77, "velocity": 122, "channel": 0}, {"type": "note_on", "time": 32, "note": 80, "velocity": 123, "channel": 0}, {"type": "note_off", "time": 43, "note": 80, "velocity": 123, "channel": 0}, {"type": "note_on", "time": 15, "note": 80, "velocity": 121, "channel": 0}, {"type": "note_off", "time": 32, "note": 80, "velocity": 121, "channel": 0}, {"type": "note_on", "time": 3, "note": 77, "velocity": 122, "channel": 0}, {"type": "note_off", "time": 54, "note": 77, "velocity": 122, "channel": 0}, {"type": "note_on", "time": 12, "note": 80, "velocity": 124, "channel": 0}, {"type": "note_off", "time": 37, "note": 80, "velocity": 124, "channel": 0}, {"type": "note_on", "time": 59, "note": 82, "velocity": 123, "channel": 0}, {"type": "note_off", "time": 36, "note": 82, "velocity": 123, "channel": 0}, {"type": "note_on", "time": 149, "note": 71, "velocity": 97, "channel": 0}, {"type": "note_off", "time": 28, "note": 71, "velocity": 97, "channel": 0}, {"type": "note_on", "time": 17, "note": 83, "velocity": 125, "channel": 0}, {"type": "note_off", "time": 43, "note": 83, "velocity": 125, "channel": 0}, {"type": "note_on", "time": 50, "note": 83, "velocity": 119, "channel": 0}, {"type": "note_off", "time": 51, "note": 83, "velocity": 119, "channel": 0}, {"type": "note_on", "time": 37, "note": 77, "velocity": 121, "channel": 0}, {"type": "note_off", "time": 45, "note": 77, "velocity": 121, "channel": 0}, {"type": "note_on", "time": 49, "note": 80, "velocity": 118, "channel": 0}, {"type": "note_off", "time": 40, "note": 80, "velocity": 118, "channel": 0}, {"type": "note_on", "time": 6, "note": 80, "velocity": 112, "channel": 0}, {"type": "note_off", "time": 34, "note": 80, "velocity": 112, "channel": 0}, {"type": "note_on", "time": 6, "note": 77, "velocity": 117, "channel": 0}, {"type": "note_off", "time": 51, "note": 77, "velocity": 117, "channel": 0}, {"type": "note_on", "time": 22, "note": 80, "velocity": 118, "channel": 0}, {"type": "note_off", "time": 47, "note": 80, "velocity": 118, "channel": 0}, {"type": "note_on", "time": 37, "note": 82, "velocity": 122, "channel": 0}, {"type": "note_off", "time": 36, "note": 82, "velocity": 122, "channel": 0}, {"type": "note_on", "time": 193, "note": 83, "velocity": 124, "channel": 0}, {"type": "note_off", "time": 34, "note": 83, "velocity": 124, "channel": 0}, {"type": "note_on", "time": 50, "note": 82, "velocity": 117, "channel": 0}, {"type": "note_off", "time": 36, "note": 82, "velocity": 117, "channel": 0}, {"type": "note_on", "time": 13, "note": 80, "velocity": 119, "channel": 0}, {"type": "note_off", "time": 44, "note": 80, "velocity": 119, "channel": 0}, {"type": "note_on", "time": 5, "note": 77, "velocity": 111, "channel": 0}, {"type": "note_off", "time": 42, "note": 77, "velocity": 111, "channel": 0}, {"type": "note_on", "time": 52, "note": 80, "velocity": 121, "channel": 0}, {"type": "note_off", "time": 40, "note": 80, "velocity": 121, "channel": 0}, {"type": "note_on", "time": 3, "note": 80, "velocity": 112, "channel": 0}, {"type": "note_off", "time": 39, "note": 80, "velocity": 112, "channel": 0}, {"type": "note_on", "time": 3, "note": 77, "velocity": 119, "channel": 0}, {"type": "note_off", "time": 46, "note": 77, "velocity": 119, "channel": 0}, {"type": "note_on", "time": 18, "note": 80, "velocity": 117, "channel": 0}, {"type": "note_off", "time": 38, "note": 80, "velocity": 117, "channel": 0}, {"type": "note_on", "time": 48, "note": 82, "velocity": 121, "channel": 0}, {"type": "note_off", "time": 39, "note": 82, "velocity": 121, "channel": 0}, {"type": "note_on", "time": 158, "note": 74, "velocity": 94, "channel": 0}, {"type": "note_off", "time": 27, "note": 74, "velocity": 94, "channel": 0}, {"type": "note_on", "time": 7, "note": 83, "velocity": 123, "channel": 0}, {"type": "note_off", "time": 43, "note": 83, "velocity": 123, "channel": 0}, {"type": "note_on", "time": 60, "note": 82, "velocity": 119, "channel": 0}, {"type": "note_off", "time": 41, "note": 82, "velocity": 119, "channel": 0}, {"type": "note_on", "time": 3, "note": 80, "velocity": 119, "channel": 0}, {"type": "note_off", "time": 30, "note": 80, "velocity": 119, "channel": 0}, {"type": "note_on", "time": 7, "note": 79, "velocity": 113, "channel": 0}, {"type": "note_off", "time": 13, "note": 79, "velocity": 113, "channel": 0}, {"type": "note_on", "time": 3, "note": 77, "velocity": 119, "channel": 0}, {"type": "note_off", "time": 36, "note": 77, "velocity": 119, "channel": 0}, {"type": "note_on", "time": 34, "note": 80, "velocity": 119, "channel": 0}, {"type": "note_off", "time": 50, "note": 80, "velocity": 119, "channel": 0}, {"type": "note_on", "time": 11, "note": 80, "velocity": 116, "channel": 0}, {"type": "note_off", "time": 23, "note": 80, "velocity": 116, "channel": 0}, {"type": "note_on", "time": 6, "note": 77, "velocity": 120, "channel": 0}, {"type": "note_off", "time": 49, "note": 77, "velocity": 120, "channel": 0}, {"type": "note_on", "time": 18, "note": 80, "velocity": 120, "channel": 0}, {"type": "note_off", "time": 41, "note": 80, "velocity": 120, "channel": 0}, {"type": "note_on", "time": 46, "note": 82, "velocity": 115, "channel": 0}, {"type": "note_off", "time": 46, "note": 82, "velocity": 115, "channel": 0}, {"type": "note_on", "time": 168, "note": 75, "velocity": 87, "channel": 0}, {"type": "note_off", "time": 22, "note": 75, "velocity": 87, "channel": 0}, {"type": "note_on", "time": 0, "note": 83, "velocity": 123, "channel": 0}, {"type": "note_off", "time": 47, "note": 83, "velocity": 123, "channel": 0}, {"type": "note_on", "time": 43, "note": 82, "velocity": 120, "channel": 0}, {"type": "note_off", "time": 36, "note": 82, "velocity": 120, "channel": 0}, {"type": "note_on", "time": 26, "note": 80, "velocity": 121, "channel": 0}, {"type": "note_off", "time": 33, "note": 80, "velocity": 121, "channel": 0}, {"type": "note_on", "time": 5, "note": 79, "velocity": 111, "channel": 0}, {"type": "note_off", "time": 33, "note": 79, "velocity": 111, "channel": 0}, {"type": "note_on", "time": 46, "note": 80, "velocity": 119, "channel": 0}, {"type": "note_off", "time": 38, "note": 80, "velocity": 119, "channel": 0}, {"type": "note_on", "time": 13, "note": 80, "velocity": 111, "channel": 0}, {"type": "note_off", "time": 34, "note": 80, "velocity": 111, "channel": 0}, {"type": "note_on", "time": 5, "note": 77, "velocity": 118, "channel": 0}, {"type": "note_off", "time": 58, "note": 77, "velocity": 118, "channel": 0}, {"type": "note_on", "time": 9, "note": 75, "velocity": 115, "channel": 0}, {"type": "note_off", "time": 51, "note": 75, "velocity": 115, "channel": 0}, {"type": "note_on", "time": 31, "note": 77, "velocity": 106, "channel": 0}, {"type": "note_off", "time": 21, "note": 77, "velocity": 106, "channel": 0}, {"type": "note_on", "time": 4, "note": 75, "velocity": 112, "channel": 0}, {"type": "note_off", "time": 13, "note": 75, "velocity": 112, "channel": 0}, {"type": "note_on", "time": 2, "note": 71, "velocity": 111, "channel": 0}, {"type": "note_off", "time": 57, "note": 71, "velocity": 111, "channel": 0}, {"type": "note_on", "time": 3, "note": 70, "velocity": 110, "channel": 0}, {"type": "note_off", "time": 152, "note": 70, "velocity": 110, "channel": 0}, {"type": "note_on", "time": 3, "note": 68, "velocity": 111, "channel": 0}, {"type": "note_off", "time": 22, "note": 68, "velocity": 111, "channel": 0}, {"type": "note_on", "time": 2, "note": 65, "velocity": 106, "channel": 0}, {"type": "note_off", "time": 27, "note": 65, "velocity": 106, "channel": 0}, {"type": "note_on", "time": 3, "note": 63, "velocity": 109, "channel": 0}, {"type": "note_off", "time": 21, "note": 63, "velocity": 109, "channel": 0}, {"type": "note_on", "time": 9, "note": 60, "velocity": 106, "channel": 0}, {"type": "note_off", "time": 23, "note": 60, "velocity": 106, "channel": 0}, {"type": "note_on", "time": 1, "note": 58, "velocity": 99, "channel": 0}, {"type": "note_off", "time": 19, "note": 58, "velocity": 99, "channel": 0}, {"type": "note_on", "time": 1, "note": 56, "velocity": 96, "channel": 0}, {"type": "note_off", "time": 17, "note": 56, "velocity": 96, "channel": 0}, {"type": "note_on", "time": 3, "note": 54, "velocity": 84, "channel": 0}, {"type": "note_off", "time": 26, "note": 54, "velocity": 84, "channel": 0}, {"type": "note_on", "time": 6, "note": 56, "velocity": 112, "channel": 0}, {"type": "note_off", "time": 263, "note": 56, "velocity": 112, "channel": 0}, {"type": "note_on", "time": 12, "note": 56, "velocity": 102, "channel": 0}, {"type": "note_off", "time": 46, "note": 56, "velocity": 102, "channel": 0}, {"type": "note_on", "time": 2, "note": 54, "velocity": 91, "channel": 0}, {"type": "note_off", "time": 37, "note": 54, "velocity": 91, "channel": 0}, {"type": "note_on", "time": 4, "note": 56, "velocity": 98, "channel": 0}, {"type": "note_off", "time": 51, "note": 56, "velocity": 98, "channel": 0}, {"type": "note_on", "time": 10, "note": 58, "velocity": 102, "channel": 0}, {"type": "note_off", "time": 30, "note": 58, "velocity": 102, "channel": 0}, {"type": "note_on", "time": 10, "note": 60, "velocity": 101, "channel": 0}, {"type": "note_off", "time": 26, "note": 60, "velocity": 101, "channel": 0}, {"type": "note_on", "time": 10, "note": 63, "velocity": 100, "channel": 0}, {"type": "note_off", "time": 30, "note": 63, "velocity": 100, "channel": 0}, {"type": "note_on", "time": 7, "note": 65, "velocity": 104, "channel": 0}, {"type": "note_off", "time": 26, "note": 65, "velocity": 104, "channel": 0}, {"type": "note_on", "time": 4, "note": 68, "velocity": 107, "channel": 0}, {"type": "note_off", "time": 37, "note": 68, "velocity": 107, "channel": 0}, {"type": "note_on", "time": 2, "note": 70, "velocity": 94, "channel": 0}, {"type": "note_off", "time": 194, "note": 70, "velocity": 94, "channel": 0}, {"type": "note_on", "time": 645, "note": 77, "velocity": 121, "channel": 0}, {"type": "note_off", "time": 62, "note": 77, "velocity": 121, "channel": 0}, {"type": "note_on", "time": 9, "note": 72, "velocity": 109, "channel": 0}, {"type": "note_off", "time": 39, "note": 72, "velocity": 109, "channel": 0}, {"type": "note_on", "time": 26, "note": 70, "velocity": 119, "channel": 0}, {"type": "note_off", "time": 38, "note": 70, "velocity": 119, "channel": 0}, {"type": "note_on", "time": 2, "note": 71, "velocity": 114, "channel": 0}, {"type": "note_off", "time": 24, "note": 71, "velocity": 114, "channel": 0}, {"type": "note_on", "time": 2, "note": 70, "velocity": 117, "channel": 0}, {"type": "note_off", "time": 58, "note": 70, "velocity": 117, "channel": 0}, {"type": "note_on", "time": 1, "note": 68, "velocity": 118, "channel": 0}, {"type": "note_off", "time": 60, "note": 68, "velocity": 118, "channel": 0}, {"type": "note_on", "time": 6, "note": 65, "velocity": 109, "channel": 0}, {"type": "note_off", "time": 33, "note": 65, "velocity": 109, "channel": 0}, {"type": "note_on", "time": 38, "note": 70, "velocity": 117, "channel": 0}, {"type": "note_off", "time": 31, "note": 70, "velocity": 117, "channel": 0}, {"type": "note_on", "time": 6, "note": 68, "velocity": 115, "channel": 0}, {"type": "note_off", "time": 52, "note": 68, "velocity": 115, "channel": 0}, {"type": "note_on", "time": 0, "note": 65, "velocity": 111, "channel": 0}, {"type": "note_off", "time": 46, "note": 65, "velocity": 111, "channel": 0}, {"type": "note_on", "time": 0, "note": 63, "velocity": 101, "channel": 0}, {"type": "note_off", "time": 34, "note": 63, "velocity": 101, "channel": 0}, {"type": "note_on", "time": 19, "note": 65, "velocity": 106, "channel": 0}, {"type": "note_off", "time": 140, "note": 65, "velocity": 106, "channel": 0}, {"type": "note_on", "time": 42, "note": 68, "velocity": 108, "channel": 0}, {"type": "note_off", "time": 42, "note": 68, "velocity": 108, "channel": 0}, {"type": "note_on", "time": 2, "note": 67, "velocity": 102, "channel": 0}, {"type": "note_off", "time": 60, "note": 67, "velocity": 102, "channel": 0}, {"type": "note_on", "time": 2, "note": 68, "velocity": 107, "channel": 0}, {"type": "note_off", "time": 62, "note": 68, "velocity": 107, "channel": 0}, {"type": "note_on", "time": 908, "note": 80, "velocity": 125, "channel": 0}, {"type": "note_off", "time": 79, "note": 80, "velocity": 125, "channel": 0}, {"type": "note_on", "time": 6, "note": 79, "velocity": 120, "channel": 0}, {"type": "note_off", "time": 98, "note": 79, "velocity": 120, "channel": 0}, {"type": "note_on", "time": 8, "note": 77, "velocity": 118, "channel": 0}, {"type": "note_off", "time": 163, "note": 77, "velocity": 118, "channel": 0}, {"type": "note_on", "time": 31, "note": 75, "velocity": 116, "channel": 0}, {"type": "note_on", "time": 90, "note": 74, "velocity": 118, "channel": 0}, {"type": "note_off", "time": 0, "note": 75, "velocity": 116, "channel": 0}, {"type": "note_off", "time": 103, "note": 74, "velocity": 118, "channel": 0}, {"type": "note_on", "time": 13, "note": 72, "velocity": 117, "channel": 0}, {"type": "note_off", "time": 119, "note": 72, "velocity": 117, "channel": 0}, {"type": "note_on", "time": 57, "note": 68, "velocity": 115, "channel": 0}, {"type": "note_off", "time": 92, "note": 68, "velocity": 115, "channel": 0}, {"type": "note_on", "time": 1, "note": 67, "velocity": 109, "channel": 0}, {"type": "note_off", "time": 94, "note": 67, "velocity": 109, "channel": 0}, {"type": "note_on", "time": 25, "note": 65, "velocity": 111, "channel": 0}, {"type": "note_off", "time": 102, "note": 65, "velocity": 111, "channel": 0}, {"type": "note_on", "time": 67, "note": 63, "velocity": 116, "channel": 0}, {"type": "note_off", "time": 86, "note": 63, "velocity": 116, "channel": 0}, {"type": "note_on", "time": 7, "note": 62, "velocity": 115, "channel": 0}, {"type": "note_off", "time": 97, "note": 62, "velocity": 115, "channel": 0}, {"type": "note_on", "time": 15, "note": 60, "velocity": 110, "channel": 0}, {"type": "note_off", "time": 56, "note": 60, "velocity": 110, "channel": 0}, {"type": "note_on", "time": 133, "note": 72, "velocity": 122, "channel": 0}, {"type": "note_off", "time": 77, "note": 72, "velocity": 122, "channel": 0}, {"type": "note_on", "time": 4, "note": 74, "velocity": 122, "channel": 0}, {"type": "note_off", "time": 110, "note": 74, "velocity": 122, "channel": 0}, {"type": "note_on", "time": 0, "note": 72, "velocity": 117, "channel": 0}, {"type": "note_off", "time": 95, "note": 72, "velocity": 117, "channel": 0}, {"type": "note_on", "time": 104, "note": 67, "velocity": 113, "channel": 0}, {"type": "note_off", "time": 25, "note": 67, "velocity": 113, "channel": 0}, {"type": "note_on", "time": 4, "note": 68, "velocity": 113, "channel": 0}, {"type": "note_off", "time": 39, "note": 68, "velocity": 113, "channel": 0}, {"type": "note_on", "time": 8, "note": 67, "velocity": 110, "channel": 0}, {"type": "note_off", "time": 87, "note": 67, "velocity": 110, "channel": 0}, {"type": "note_on", "time": 19, "note": 65, "velocity": 109, "channel": 0}, {"type": "note_off", "time": 118, "note": 65, "velocity": 109, "channel": 0}, {"type": "note_on", "time": 81, "note": 60, "velocity": 96, "channel": 0}, {"type": "note_off", "time": 49, "note": 60, "velocity": 96, "channel": 0}, {"type": "note_on", "time": 26, "note": 62, "velocity": 100, "channel": 0}, {"type": "note_off", "time": 45, "note": 62, "velocity": 100, "channel": 0}, {"type": "note_on", "time": 2, "note": 64, "velocity": 92, "channel": 0}, {"type": "note_off", "time": 22, "note": 64, "velocity": 92, "channel": 0}, {"type": "note_on", "time": 5, "note": 63, "velocity": 101, "channel": 0}, {"type": "note_off", "time": 30, "note": 63, "velocity": 101, "channel": 0}, {"type": "note_on", "time": 0, "note": 60, "velocity": 91, "channel": 0}, {"type": "note_off", "time": 51, "note": 60, "velocity": 91, "channel": 0}, {"type": "note_on", "time": 24, "note": 62, "velocity": 100, "channel": 0}, {"type": "note_off", "time": 23, "note": 62, "velocity": 100, "channel": 0}, {"type": "note_on", "time": 2, "note": 63, "velocity": 107, "channel": 0}, {"type": "note_off", "time": 137, "note": 63, "velocity": 107, "channel": 0}, {"type": "note_on", "time": 28, "note": 62, "velocity": 102, "channel": 0}, {"type": "note_off", "time": 117, "note": 62, "velocity": 102, "channel": 0}, {"type": "note_on", "time": 3, "note": 61, "velocity": 103, "channel": 0}, {"type": "note_off", "time": 54, "note": 61, "velocity": 103, "channel": 0}, {"type": "note_on", "time": 141, "note": 75, "velocity": 123, "channel": 0}, {"type": "note_off", "time": 95, "note": 75, "velocity": 123, "channel": 0}, {"type": "note_on", "time": 3, "note": 74, "velocity": 118, "channel": 0}, {"type": "note_off", "time": 86, "note": 74, "velocity": 118, "channel": 0}, {"type": "note_on", "time": 13, "note": 72, "velocity": 113, "channel": 0}, {"type": "note_off", "time": 42, "note": 72, "velocity": 113, "channel": 0}, {"type": "note_on", "time": 145, "note": 68, "velocity": 107, "channel": 0}, {"type": "note_off", "time": 75, "note": 68, "velocity": 107, "channel": 0}, {"type": "note_on", "time": 10, "note": 67, "velocity": 103, "channel": 0}, {"type": "note_off", "time": 97, "note": 67, "velocity": 103, "channel": 0}, {"type": "note_on", "time": 6, "note": 65, "velocity": 99, "channel": 0}, {"type": "note_off", "time": 40, "note": 65, "velocity": 99, "channel": 0}, {"type": "note_on", "time": 146, "note": 80, "velocity": 120, "channel": 0}, {"type": "note_off", "time": 82, "note": 80, "velocity": 120, "channel": 0}, {"type": "note_on", "time": 7, "note": 79, "velocity": 112, "channel": 0}, {"type": "note_off", "time": 95, "note": 79, "velocity": 112, "channel": 0}, {"type": "note_on", "time": 8, "note": 77, "velocity": 117, "channel": 0}, {"type": "note_off", "time": 75, "note": 77, "velocity": 117, "channel": 0}, {"type": "note_on", "time": 109, "note": 74, "velocity": 117, "channel": 0}, {"type": "note_off", "time": 28, "note": 74, "velocity": 117, "channel": 0}, {"type": "note_on", "time": 3, "note": 75, "velocity": 119, "channel": 0}, {"type": "note_off", "time": 63, "note": 75, "velocity": 119, "channel": 0}, {"type": "note_on", "time": 2, "note": 74, "velocity": 117, "channel": 0}, {"type": "note_off", "time": 90, "note": 74, "velocity": 117, "channel": 0}, {"type": "note_on", "time": 15, "note": 72, "velocity": 114, "channel": 0}, {"type": "note_off", "time": 69, "note": 72, "velocity": 114, "channel": 0}, {"type": "note_on", "time": 103, "note": 67, "velocity": 110, "channel": 0}, {"type": "note_off", "time": 51, "note": 67, "velocity": 110, "channel": 0}, {"type": "note_on", "time": 0, "note": 68, "velocity": 109, "channel": 0}, {"type": "note_off", "time": 43, "note": 68, "velocity": 109, "channel": 0}, {"type": "note_on", "time": 4, "note": 67, "velocity": 112, "channel": 0}, {"type": "note_off", "time": 100, "note": 67, "velocity": 112, "channel": 0}, {"type": "note_on", "time": 18, "note": 65, "velocity": 94, "channel": 0}, {"type": "note_off", "time": 1148, "note": 65, "velocity": 94, "channel": 0}, {"type": "note_on", "time": 75, "note": 68, "velocity": 101, "channel": 0}, {"type": "note_off", "time": 133, "note": 68, "velocity": 101, "channel": 0}, {"type": "note_on", "time": 10, "note": 65, "velocity": 93, "channel": 0}, {"type": "note_off", "time": 40, "note": 65, "velocity": 93, "channel": 0}, {"type": "note_on", "time": 0, "note": 68, "velocity": 100, "channel": 0}, {"type": "note_off", "time": 117, "note": 68, "velocity": 100, "channel": 0}, {"type": "note_on", "time": 46, "note": 65, "velocity": 101, "channel": 0}, {"type": "note_off", "time": 139, "note": 65, "velocity": 101, "channel": 0}, {"type": "note_on", "time": 11, "note": 65, "velocity": 99, "channel": 0}, {"type": "note_off", "time": 44, "note": 65, "velocity": 99, "channel": 0}, {"type": "note_on", "time": 730, "note": 75, "velocity": 120, "channel": 0}, {"type": "note_off", "time": 86, "note": 75, "velocity": 120, "channel": 0}, {"type": "note_on", "time": 7, "note": 72, "velocity": 115, "channel": 0}, {"type": "note_off", "time": 96, "note": 72, "velocity": 115, "channel": 0}, {"type": "note_on", "time": 7, "note": 73, "velocity": 117, "channel": 0}, {"type": "note_off", "time": 80, "note": 73, "velocity": 117, "channel": 0}, {"type": "note_on", "time": 9, "note": 72, "velocity": 113, "channel": 0}, {"type": "note_off", "time": 90, "note": 72, "velocity": 113, "channel": 0}, {"type": "note_on", "time": 13, "note": 68, "velocity": 115, "channel": 0}, {"type": "note_off", "time": 66, "note": 68, "velocity": 115, "channel": 0}, {"type": "note_on", "time": 24, "note": 64, "velocity": 105, "channel": 0}, {"type": "note_off", "time": 91, "note": 64, "velocity": 105, "channel": 0}, {"type": "note_on", "time": 20, "note": 63, "velocity": 98, "channel": 0}, {"type": "note_off", "time": 330, "note": 63, "velocity": 98, "channel": 0}, {"type": "note_on", "time": 10, "note": 61, "velocity": 97, "channel": 0}, {"type": "note_off", "time": 41, "note": 61, "velocity": 97, "channel": 0}, {"type": "note_on", "time": 10, "note": 63, "velocity": 94, "channel": 0}, {"type": "note_off", "time": 36, "note": 63, "velocity": 94, "channel": 0}, {"type": "note_on", "time": 29, "note": 60, "velocity": 95, "channel": 0}, {"type": "note_off", "time": 116, "note": 60, "velocity": 95, "channel": 0}, {"type": "note_on", "time": 5, "note": 65, "velocity": 99, "channel": 0}, {"type": "note_off", "time": 154, "note": 65, "velocity": 99, "channel": 0}, {"type": "note_on", "time": 1045, "note": 72, "velocity": 114, "channel": 0}, {"type": "note_off", "time": 42, "note": 72, "velocity": 114, "channel": 0}, {"type": "note_on", "time": 0, "note": 75, "velocity": 120, "channel": 0}, {"type": "note_off", "time": 40, "note": 75, "velocity": 120, "channel": 0}, {"type": "note_on", "time": 29, "note": 79, "velocity": 120, "channel": 0}, {"type": "note_off", "time": 113, "note": 79, "velocity": 120, "channel": 0}, {"type": "note_on", "time": 34, "note": 72, "velocity": 108, "channel": 0}, {"type": "note_off", "time": 29, "note": 72, "velocity": 108, "channel": 0}, {"type": "note_on", "time": 7, "note": 75, "velocity": 90, "channel": 0}, {"type": "note_off", "time": 54, "note": 75, "velocity": 90, "channel": 0}, {"type": "note_on", "time": 25, "note": 79, "velocity": 120, "channel": 0}, {"type": "note_off", "time": 115, "note": 79, "velocity": 120, "channel": 0}, {"type": "note_on", "time": 74, "note": 71, "velocity": 109, "channel": 0}, {"type": "note_off", "time": 42, "note": 71, "velocity": 109, "channel": 0}, {"type": "note_on", "time": 9, "note": 74, "velocity": 110, "channel": 0}, {"type": "note_off", "time": 30, "note": 74, "velocity": 110, "channel": 0}, {"type": "note_on", "time": 34, "note": 79, "velocity": 120, "channel": 0}, {"type": "note_off", "time": 112, "note": 79, "velocity": 120, "channel": 0}, {"type": "note_on", "time": 37, "note": 72, "velocity": 106, "channel": 0}, {"type": "note_off", "time": 32, "note": 72, "velocity": 106, "channel": 0}, {"type": "note_on", "time": 10, "note": 75, "velocity": 109, "channel": 0}, {"type": "note_off", "time": 28, "note": 75, "velocity": 109, "channel": 0}, {"type": "note_on", "time": 48, "note": 79, "velocity": 120, "channel": 0}, {"type": "note_off", "time": 128, "note": 79, "velocity": 120, "channel": 0}, {"type": "note_on", "time": 65, "note": 72, "velocity": 109, "channel": 0}, {"type": "note_off", "time": 39, "note": 72, "velocity": 109, "channel": 0}, {"type": "note_on", "time": 6, "note": 75, "velocity": 102, "channel": 0}, {"type": "note_off", "time": 32, "note": 75, "velocity": 102, "channel": 0}, {"type": "note_on", "time": 43, "note": 79, "velocity": 123, "channel": 0}, {"type": "note_off", "time": 118, "note": 79, "velocity": 123, "channel": 0}, {"type": "note_on", "time": 23, "note": 72, "velocity": 108, "channel": 0}, {"type": "note_off", "time": 31, "note": 72, "velocity": 108, "channel": 0}, {"type": "note_on", "time": 20, "note": 75, "velocity": 105, "channel": 0}, {"type": "note_off", "time": 28, "note": 75, "velocity": 105, "channel": 0}, {"type": "note_on", "time": 47, "note": 79, "velocity": 120, "channel": 0}, {"type": "note_off", "time": 174, "note": 79, "velocity": 120, "channel": 0}, {"type": "note_on", "time": 11, "note": 72, "velocity": 117, "channel": 0}, {"type": "note_off", "time": 37, "note": 72, "velocity": 117, "channel": 0}, {"type": "note_on", "time": 14, "note": 75, "velocity": 118, "channel": 0}, {"type": "note_off", "time": 34, "note": 75, "velocity": 118, "channel": 0}, {"type": "note_on", "time": 45, "note": 79, "velocity": 122, "channel": 0}, {"type": "note_off", "time": 48, "note": 79, "velocity": 122, "channel": 0}, {"type": "note_on", "time": 2, "note": 80, "velocity": 122, "channel": 0}, {"type": "note_off", "time": 37, "note": 80, "velocity": 122, "channel": 0}, {"type": "note_on", "time": 2, "note": 79, "velocity": 118, "channel": 0}, {"type": "note_off", "time": 195, "note": 79, "velocity": 118, "channel": 0}, {"type": "note_on", "time": 239, "note": 74, "velocity": 123, "channel": 0}, {"type": "note_off", "time": 41, "note": 74, "velocity": 123, "channel": 0}, {"type": "note_on", "time": 2, "note": 75, "velocity": 123, "channel": 0}, {"type": "note_off", "time": 44, "note": 75, "velocity": 123, "channel": 0}, {"type": "note_on", "time": 7, "note": 74, "velocity": 123, "channel": 0}, {"type": "note_off", "time": 49, "note": 74, "velocity": 123, "channel": 0}, {"type": "note_on", "time": 2, "note": 72, "velocity": 122, "channel": 0}, {"type": "note_off", "time": 69, "note": 72, "velocity": 122, "channel": 0}, {"type": "note_on", "time": 36, "note": 79, "velocity": 120, "channel": 0}, {"type": "note_off", "time": 183, "note": 79, "velocity": 120, "channel": 0}, {"type": "note_on", "time": 4, "note": 80, "velocity": 105, "channel": 0}, {"type": "note_off", "time": 71, "note": 80, "velocity": 105, "channel": 0}, {"type": "note_on", "time": 3, "note": 79, "velocity": 119, "channel": 0}, {"type": "note_off", "time": 476, "note": 79, "velocity": 119, "channel": 0}, {"type": "note_on", "time": 40, "note": 77, "velocity": 121, "channel": 0}, {"type": "note_off", "time": 83, "note": 77, "velocity": 121, "channel": 0}, {"type": "note_on", "time": 2, "note": 75, "velocity": 122, "channel": 0}, {"type": "note_off", "time": 56, "note": 75, "velocity": 122, "channel": 0}, {"type": "note_on", "time": 0, "note": 74, "velocity": 122, "channel": 0}, {"type": "note_off", "time": 47, "note": 74, "velocity": 122, "channel": 0}, {"type": "note_on", "time": 16, "note": 72, "velocity": 116, "channel": 0}, {"type": "note_off", "time": 179, "note": 72, "velocity": 116, "channel": 0}, {"type": "note_on", "time": 30, "note": 70, "velocity": 111, "channel": 0}, {"type": "note_off", "time": 46, "note": 70, "velocity": 111, "channel": 0}, {"type": "note_on", "time": 44, "note": 68, "velocity": 115, "channel": 0}, {"type": "note_off", "time": 46, "note": 68, "velocity": 115, "channel": 0}, {"type": "note_on", "time": 7, "note": 67, "velocity": 113, "channel": 0}, {"type": "note_off", "time": 55, "note": 67, "velocity": 113, "channel": 0}, {"type": "note_on", "time": 10, "note": 65, "velocity": 106, "channel": 0}, {"type": "note_off", "time": 212, "note": 65, "velocity": 106, "channel": 0}, {"type": "note_on", "time": 16, "note": 65, "velocity": 107, "channel": 0}, {"type": "note_off", "time": 43, "note": 65, "velocity": 107, "channel": 0}, {"type": "note_on", "time": 27, "note": 65, "velocity": 109, "channel": 0}, {"type": "note_off", "time": 42, "note": 65, "velocity": 109, "channel": 0}, {"type": "note_on", "time": 15, "note": 63, "velocity": 90, "channel": 0}, {"type": "note_off", "time": 29, "note": 63, "velocity": 90, "channel": 0}, {"type": "note_on", "time": 17, "note": 65, "velocity": 102, "channel": 0}, {"type": "note_off", "time": 263, "note": 65, "velocity": 102, "channel": 0}, {"type": "note_on", "time": 11, "note": 65, "velocity": 106, "channel": 0}, {"type": "note_off", "time": 45, "note": 65, "velocity": 106, "channel": 0}, {"type": "note_on", "time": 6, "note": 63, "velocity": 101, "channel": 0}, {"type": "note_off", "time": 48, "note": 63, "velocity": 101, "channel": 0}, {"type": "note_on", "time": 17, "note": 65, "velocity": 101, "channel": 0}, {"type": "note_off", "time": 165, "note": 65, "velocity": 101, "channel": 0}, {"type": "note_on", "time": 1009, "note": 77, "velocity": 116, "channel": 0}, {"type": "note_off", "time": 48, "note": 77, "velocity": 116, "channel": 0}, {"type": "note_on", "time": 2, "note": 81, "velocity": 123, "channel": 0}, {"type": "note_off", "time": 43, "note": 81, "velocity": 123, "channel": 0}, {"type": "note_on", "time": 8, "note": 79, "velocity": 118, "channel": 0}, {"type": "note_off", "time": 37, "note": 79, "velocity": 118, "channel": 0}, {"type": "note_on", "time": 5, "note": 77, "velocity": 121, "channel": 0}, {"type": "note_off", "time": 44, "note": 77, "velocity": 121, "channel": 0}, {"type": "note_on", "time": 7, "note": 76, "velocity": 121, "channel": 0}, {"type": "note_off", "time": 39, "note": 76, "velocity": 121, "channel": 0}, {"type": "note_on", "time": 4, "note": 74, "velocity": 121, "channel": 0}, {"type": "note_off", "time": 40, "note": 74, "velocity": 121, "channel": 0}, {"type": "note_on", "time": 1, "note": 73, "velocity": 121, "channel": 0}, {"type": "note_off", "time": 40, "note": 73, "velocity": 121, "channel": 0}, {"type": "note_on", "time": 2, "note": 74, "velocity": 122, "channel": 0}, {"type": "note_off", "time": 44, "note": 74, "velocity": 122, "channel": 0}, {"type": "note_on", "time": 10, "note": 76, "velocity": 123, "channel": 0}, {"type": "note_off", "time": 40, "note": 76, "velocity": 123, "channel": 0}, {"type": "note_on", "time": 6, "note": 77, "velocity": 123, "channel": 0}, {"type": "note_off", "time": 40, "note": 77, "velocity": 123, "channel": 0}, {"type": "note_on", "time": 7, "note": 74, "velocity": 123, "channel": 0}, {"type": "note_off", "time": 47, "note": 74, "velocity": 123, "channel": 0}, {"type": "note_on", "time": 8, "note": 70, "velocity": 118, "channel": 0}, {"type": "note_off", "time": 45, "note": 70, "velocity": 118, "channel": 0}, {"type": "note_on", "time": 4, "note": 69, "velocity": 119, "channel": 0}, {"type": "note_off", "time": 47, "note": 69, "velocity": 119, "channel": 0}, {"type": "note_on", "time": 11, "note": 67, "velocity": 116, "channel": 0}, {"type": "note_off", "time": 46, "note": 67, "velocity": 116, "channel": 0}, {"type": "note_on", "time": 41, "note": 75, "velocity": 121, "channel": 0}, {"type": "note_off", "time": 49, "note": 75, "velocity": 121, "channel": 0}, {"type": "note_on", "time": 30, "note": 72, "velocity": 119, "channel": 0}, {"type": "note_off", "time": 43, "note": 72, "velocity": 119, "channel": 0}, {"type": "note_on", "time": 0, "note": 73, "velocity": 117, "channel": 0}, {"type": "note_off", "time": 57, "note": 73, "velocity": 117, "channel": 0}, {"type": "note_on", "time": 3, "note": 72, "velocity": 117, "channel": 0}, {"type": "note_off", "time": 54, "note": 72, "velocity": 117, "channel": 0}, {"type": "note_on", "time": 35, "note": 69, "velocity": 116, "channel": 0}, {"type": "note_off", "time": 43, "note": 69, "velocity": 116, "channel": 0}, {"type": "note_on", "time": 7, "note": 70, "velocity": 112, "channel": 0}, {"type": "note_off", "time": 48, "note": 70, "velocity": 112, "channel": 0}, {"type": "note_on", "time": 6, "note": 69, "velocity": 117, "channel": 0}, {"type": "note_off", "time": 36, "note": 69, "velocity": 117, "channel": 0}, {"type": "note_on", "time": 62, "note": 67, "velocity": 112, "channel": 0}, {"type": "note_off", "time": 28, "note": 67, "velocity": 112, "channel": 0}, {"type": "note_on", "time": 6, "note": 66, "velocity": 109, "channel": 0}, {"type": "note_off", "time": 44, "note": 66, "velocity": 109, "channel": 0}, {"type": "note_on", "time": 3, "note": 64, "velocity": 114, "channel": 0}, {"type": "note_off", "time": 43, "note": 64, "velocity": 114, "channel": 0}, {"type": "note_on", "time": 14, "note": 63, "velocity": 108, "channel": 0}, {"type": "note_off", "time": 28, "note": 63, "velocity": 108, "channel": 0}, {"type": "note_on", "time": 8, "note": 61, "velocity": 110, "channel": 0}, {"type": "note_off", "time": 45, "note": 61, "velocity": 110, "channel": 0}, {"type": "note_on", "time": 8, "note": 60, "velocity": 98, "channel": 0}, {"type": "note_off", "time": 50, "note": 60, "velocity": 98, "channel": 0}, {"type": "note_on", "time": 13, "note": 58, "velocity": 93, "channel": 0}, {"type": "note_off", "time": 47, "note": 58, "velocity": 93, "channel": 0}, {"type": "note_on", "time": 19, "note": 67, "velocity": 111, "channel": 0}, {"type": "note_off", "time": 46, "note": 67, "velocity": 111, "channel": 0}, {"type": "note_on", "time": 7, "note": 64, "velocity": 106, "channel": 0}, {"type": "note_off", "time": 48, "note": 64, "velocity": 106, "channel": 0}, {"type": "note_on", "time": 51, "note": 65, "velocity": 108, "channel": 0}, {"type": "note_off", "time": 40, "note": 65, "velocity": 108, "channel": 0}, {"type": "note_on", "time": 2, "note": 67, "velocity": 111, "channel": 0}, {"type": "note_off", "time": 38, "note": 67, "velocity": 111, "channel": 0}, {"type": "note_on", "time": 2, "note": 69, "velocity": 113, "channel": 0}, {"type": "note_off", "time": 36, "note": 69, "velocity": 113, "channel": 0}, {"type": "note_on", "time": 6, "note": 72, "velocity": 120, "channel": 0}, {"type": "note_off", "time": 38, "note": 72, "velocity": 120, "channel": 0}, {"type": "note_on", "time": 7, "note": 69, "velocity": 115, "channel": 0}, {"type": "note_off", "time": 49, "note": 69, "velocity": 115, "channel": 0}, {"type": "note_on", "time": 6, "note": 70, "velocity": 119, "channel": 0}, {"type": "note_off", "time": 31, "note": 70, "velocity": 119, "channel": 0}, {"type": "note_on", "time": 11, "note": 74, "velocity": 122, "channel": 0}, {"type": "note_off", "time": 46, "note": 74, "velocity": 122, "channel": 0}, {"type": "note_on", "time": 3, "note": 77, "velocity": 120, "channel": 0}, {"type": "note_off", "time": 38, "note": 77, "velocity": 120, "channel": 0}, {"type": "note_on", "time": 8, "note": 81, "velocity": 121, "channel": 0}, {"type": "note_off", "time": 43, "note": 81, "velocity": 121, "channel": 0}, {"type": "note_on", "time": 5, "note": 79, "velocity": 117, "channel": 0}, {"type": "note_off", "time": 43, "note": 79, "velocity": 117, "channel": 0}, {"type": "note_on", "time": 6, "note": 78, "velocity": 116, "channel": 0}, {"type": "note_off", "time": 45, "note": 78, "velocity": 116, "channel": 0}, {"type": "note_on", "time": 2, "note": 76, "velocity": 118, "channel": 0}, {"type": "note_off", "time": 48, "note": 76, "velocity": 118, "channel": 0}, {"type": "note_on", "time": 5, "note": 75, "velocity": 113, "channel": 0}, {"type": "note_off", "time": 38, "note": 75, "velocity": 113, "channel": 0}, {"type": "note_on", "time": 7, "note": 73, "velocity": 114, "channel": 0}, {"type": "note_off", "time": 35, "note": 73, "velocity": 114, "channel": 0}, {"type": "note_on", "time": 13, "note": 72, "velocity": 109, "channel": 0}, {"type": "note_off", "time": 35, "note": 72, "velocity": 109, "channel": 0}, {"type": "note_on", "time": 9, "note": 71, "velocity": 108, "channel": 0}, {"type": "note_off", "time": 38, "note": 71, "velocity": 108, "channel": 0}, {"type": "note_on", "time": 7, "note": 70, "velocity": 105, "channel": 0}, {"type": "note_off", "time": 41, "note": 70, "velocity": 105, "channel": 0}, {"type": "note_on", "time": 7, "note": 69, "velocity": 110, "channel": 0}, {"type": "note_off", "time": 33, "note": 69, "velocity": 110, "channel": 0}, {"type": "note_on", "time": 3, "note": 67, "velocity": 107, "channel": 0}, {"type": "note_off", "time": 43, "note": 67, "velocity": 107, "channel": 0}, {"type": "note_on", "time": 7, "note": 65, "velocity": 111, "channel": 0}, {"type": "note_off", "time": 30, "note": 65, "velocity": 111, "channel": 0}, {"type": "note_on", "time": 8, "note": 64, "velocity": 102, "channel": 0}, {"type": "note_off", "time": 40, "note": 64, "velocity": 102, "channel": 0}, {"type": "note_on", "time": 7, "note": 67, "velocity": 108, "channel": 0}, {"type": "note_off", "time": 33, "note": 67, "velocity": 108, "channel": 0}, {"type": "note_on", "time": 9, "note": 70, "velocity": 104, "channel": 0}, {"type": "note_off", "time": 42, "note": 70, "velocity": 104, "channel": 0}, {"type": "note_on", "time": 10, "note": 70, "velocity": 97, "channel": 0}, {"type": "note_off", "time": 22, "note": 70, "velocity": 97, "channel": 0}, {"type": "note_on", "time": 8, "note": 75, "velocity": 116, "channel": 0}, {"type": "note_off", "time": 51, "note": 75, "velocity": 116, "channel": 0}, {"type": "note_on", "time": 6, "note": 74, "velocity": 120, "channel": 0}, {"type": "note_off", "time": 43, "note": 74, "velocity": 120, "channel": 0}, {"type": "note_on", "time": 6, "note": 73, "velocity": 114, "channel": 0}, {"type": "note_off", "time": 41, "note": 73, "velocity": 114, "channel": 0}, {"type": "note_on", "time": 4, "note": 71, "velocity": 112, "channel": 0}, {"type": "note_off", "time": 48, "note": 71, "velocity": 112, "channel": 0}, {"type": "note_on", "time": 1, "note": 72, "velocity": 109, "channel": 0}, {"type": "note_off", "time": 31, "note": 72, "velocity": 109, "channel": 0}, {"type": "note_on", "time": 26, "note": 79, "velocity": 107, "channel": 0}, {"type": "note_off", "time": 23, "note": 79, "velocity": 107, "channel": 0}, {"type": "note_on", "time": 5, "note": 75, "velocity": 116, "channel": 0}, {"type": "note_off", "time": 38, "note": 75, "velocity": 116, "channel": 0}, {"type": "note_on", "time": 7, "note": 74, "velocity": 118, "channel": 0}, {"type": "note_off", "time": 27, "note": 74, "velocity": 118, "channel": 0}, {"type": "note_on", "time": 4, "note": 72, "velocity": 110, "channel": 0}, {"type": "note_off", "time": 27, "note": 72, "velocity": 110, "channel": 0}, {"type": "note_on", "time": 22, "note": 77, "velocity": 120, "channel": 0}, {"type": "note_off", "time": 66, "note": 77, "velocity": 120, "channel": 0}, {"type": "note_on", "time": 7, "note": 75, "velocity": 116, "channel": 0}, {"type": "note_off", "time": 46, "note": 75, "velocity": 116, "channel": 0}, {"type": "note_on", "time": 493, "note": 74, "velocity": 110, "channel": 0}, {"type": "note_off", "time": 58, "note": 74, "velocity": 110, "channel": 0}, {"type": "note_on", "time": 24, "note": 72, "velocity": 117, "channel": 0}, {"type": "note_off", "time": 44, "note": 72, "velocity": 117, "channel": 0}, {"type": "note_on", "time": 5, "note": 70, "velocity": 117, "channel": 0}, {"type": "note_off", "time": 33, "note": 70, "velocity": 117, "channel": 0}, {"type": "note_on", "time": 10, "note": 69, "velocity": 118, "channel": 0}, {"type": "note_off", "time": 40, "note": 69, "velocity": 118, "channel": 0}, {"type": "note_on", "time": 8, "note": 68, "velocity": 118, "channel": 0}, {"type": "note_off", "time": 37, "note": 68, "velocity": 118, "channel": 0}, {"type": "note_on", "time": 8, "note": 67, "velocity": 115, "channel": 0}, {"type": "note_off", "time": 36, "note": 67, "velocity": 115, "channel": 0}, {"type": "note_on", "time": 9, "note": 65, "velocity": 112, "channel": 0}, {"type": "note_off", "time": 41, "note": 65, "velocity": 112, "channel": 0}, {"type": "note_on", "time": 13, "note": 64, "velocity": 112, "channel": 0}, {"type": "note_off", "time": 33, "note": 64, "velocity": 112, "channel": 0}, {"type": "note_on", "time": 3, "note": 62, "velocity": 110, "channel": 0}, {"type": "note_off", "time": 40, "note": 62, "velocity": 110, "channel": 0}, {"type": "note_on", "time": 12, "note": 61, "velocity": 111, "channel": 0}, {"type": "note_off", "time": 34, "note": 61, "velocity": 111, "channel": 0}, {"type": "note_on", "time": 7, "note": 60, "velocity": 105, "channel": 0}, {"type": "note_off", "time": 41, "note": 60, "velocity": 105, "channel": 0}, {"type": "note_on", "time": 11, "note": 58, "velocity": 110, "channel": 0}, {"type": "note_off", "time": 41, "note": 58, "velocity": 110, "channel": 0}, {"type": "note_on", "time": 7, "note": 55, "velocity": 91, "channel": 0}, {"type": "note_off", "time": 51, "note": 55, "velocity": 91, "channel": 0}, {"type": "note_on", "time": 5, "note": 56, "velocity": 100, "channel": 0}, {"type": "note_off", "time": 31, "note": 56, "velocity": 100, "channel": 0}, {"type": "note_on", "time": 6, "note": 57, "velocity": 100, "channel": 0}, {"type": "note_off", "time": 44, "note": 57, "velocity": 100, "channel": 0}, {"type": "note_on", "time": 17, "note": 65, "velocity": 107, "channel": 0}, {"type": "note_off", "time": 142, "note": 65, "velocity": 107, "channel": 0}, {"type": "note_on", "time": 954, "note": 78, "velocity": 123, "channel": 0}, {"type": "note_off", "time": 47, "note": 78, "velocity": 123, "channel": 0}, {"type": "note_on", "time": 1, "note": 80, "velocity": 119, "channel": 0}, {"type": "note_off", "time": 32, "note": 80, "velocity": 119, "channel": 0}, {"type": "note_on", "time": 4, "note": 77, "velocity": 122, "channel": 0}, {"type": "note_off", "time": 172, "note": 77, "velocity": 122, "channel": 0}, {"type": "note_on", "time": 33, "note": 75, "velocity": 119, "channel": 0}, {"type": "note_off", "time": 58, "note": 75, "velocity": 119, "channel": 0}, {"type": "note_on", "time": 4, "note": 77, "velocity": 115, "channel": 0}, {"type": "note_off", "time": 31, "note": 77, "velocity": 115, "channel": 0}, {"type": "note_on", "time": 45, "note": 74, "velocity": 112, "channel": 0}, {"type": "note_off", "time": 263, "note": 74, "velocity": 112, "channel": 0}, {"type": "note_on", "time": 40, "note": 72, "velocity": 117, "channel": 0}, {"type": "note_off", "time": 64, "note": 72, "velocity": 117, "channel": 0}, {"type": "note_on", "time": 18, "note": 70, "velocity": 116, "channel": 0}, {"type": "note_off", "time": 78, "note": 70, "velocity": 116, "channel": 0}, {"type": "note_on", "time": 30, "note": 69, "velocity": 119, "channel": 0}, {"type": "note_off", "time": 74, "note": 69, "velocity": 119, "channel": 0}, {"type": "note_on", "time": 9, "note": 68, "velocity": 116, "channel": 0}, {"type": "note_off", "time": 46, "note": 68, "velocity": 116, "channel": 0}, {"type": "note_on", "time": 1, "note": 70, "velocity": 110, "channel": 0}, {"type": "note_off", "time": 18, "note": 70, "velocity": 110, "channel": 0}, {"type": "note_on", "time": 3, "note": 68, "velocity": 117, "channel": 0}, {"type": "note_off", "time": 33, "note": 68, "velocity": 117, "channel": 0}, {"type": "note_on", "time": 6, "note": 67, "velocity": 117, "channel": 0}, {"type": "note_off", "time": 53, "note": 67, "velocity": 117, "channel": 0}, {"type": "note_on", "time": 11, "note": 65, "velocity": 109, "channel": 0}, {"type": "note_off", "time": 111, "note": 65, "velocity": 109, "channel": 0}, {"type": "note_on", "time": 52, "note": 62, "velocity": 91, "channel": 0}, {"type": "note_off", "time": 18, "note": 62, "velocity": 91, "channel": 0}, {"type": "note_on", "time": 3, "note": 63, "velocity": 108, "channel": 0}, {"type": "note_off", "time": 50, "note": 63, "velocity": 108, "channel": 0}, {"type": "note_on", "time": 6, "note": 65, "velocity": 101, "channel": 0}, {"type": "note_off", "time": 31, "note": 65, "velocity": 101, "channel": 0}, {"type": "note_on", "time": 8, "note": 63, "velocity": 99, "channel": 0}, {"type": "note_off", "time": 26, "note": 63, "velocity": 99, "channel": 0}, {"type": "note_on", "time": 5, "note": 60, "velocity": 93, "channel": 0}, {"type": "note_off", "time": 36, "note": 60, "velocity": 93, "channel": 0}, {"type": "note_on", "time": 36, "note": 62, "velocity": 105, "channel": 0}, {"type": "note_off", "time": 61, "note": 62, "velocity": 105, "channel": 0}, {"type": "note_on", "time": 51, "note": 71, "velocity": 119, "channel": 0}, {"type": "note_off", "time": 37, "note": 71, "velocity": 119, "channel": 0}, {"type": "note_on", "time": 4, "note": 72, "velocity": 120, "channel": 0}, {"type": "note_off", "time": 84, "note": 72, "velocity": 120, "channel": 0}, {"type": "note_on", "time": 27, "note": 70, "velocity": 114, "channel": 0}, {"type": "note_off", "time": 50, "note": 70, "velocity": 114, "channel": 0}, {"type": "note_on", "time": 3, "note": 68, "velocity": 114, "channel": 0}, {"type": "note_off", "time": 56, "note": 68, "velocity": 114, "channel": 0}, {"type": "note_on", "time": 15, "note": 65, "velocity": 103, "channel": 0}, {"type": "note_off", "time": 92, "note": 65, "velocity": 103, "channel": 0}, {"type": "note_on", "time": 94, "note": 65, "velocity": 104, "channel": 0}, {"type": "note_off", "time": 121, "note": 65, "velocity": 104, "channel": 0}, {"type": "note_on", "time": 49, "note": 65, "velocity": 103, "channel": 0}, {"type": "note_off", "time": 168, "note": 65, "velocity": 103, "channel": 0}, {"type": "note_on", "time": 39, "note": 65, "velocity": 103, "channel": 0}, {"type": "note_off", "time": 122, "note": 65, "velocity": 103, "channel": 0}, {"type": "note_on", "time": 68, "note": 65, "velocity": 102, "channel": 0}, {"type": "note_off", "time": 132, "note": 65, "velocity": 102, "channel": 0}, {"type": "note_on", "time": 52, "note": 65, "velocity": 103, "channel": 0}, {"type": "note_off", "time": 111, "note": 65, "velocity": 103, "channel": 0}, {"type": "note_on", "time": 86, "note": 65, "velocity": 106, "channel": 0}, {"type": "note_off", "time": 109, "note": 65, "velocity": 106, "channel": 0}, {"type": "note_on", "time": 88, "note": 65, "velocity": 104, "channel": 0}, {"type": "note_off", "time": 108, "note": 65, "velocity": 104, "channel": 0}, {"type": "note_on", "time": 86, "note": 70, "velocity": 112, "channel": 0}, {"type": "note_off", "time": 39, "note": 70, "velocity": 112, "channel": 0}, {"type": "note_on", "time": 1, "note": 69, "velocity": 107, "channel": 0}, {"type": "note_off", "time": 55, "note": 69, "velocity": 107, "channel": 0}, {"type": "note_on", "time": 13, "note": 65, "velocity": 102, "channel": 0}, {"type": "note_off", "time": 66, "note": 65, "velocity": 102, "channel": 0}, {"type": "note_on", "time": 30, "note": 60, "velocity": 95, "channel": 0}, {"type": "note_off", "time": 86, "note": 60, "velocity": 95, "channel": 0}, {"type": "note_on", "time": 9, "note": 58, "velocity": 103, "channel": 0}, {"type": "note_off", "time": 126, "note": 58, "velocity": 103, "channel": 0}, {"type": "note_on", "time": 1220, "note": 75, "velocity": 120, "channel": 0}, {"type": "note_off", "time": 178, "note": 75, "velocity": 120, "channel": 0}, {"type": "note_on", "time": 18, "note": 75, "velocity": 119, "channel": 0}, {"type": "note_off", "time": 66, "note": 75, "velocity": 119, "channel": 0}, {"type": "note_on", "time": 2, "note": 74, "velocity": 108, "channel": 0}, {"type": "note_off", "time": 97, "note": 74, "velocity": 108, "channel": 0}, {"type": "note_on", "time": 18, "note": 74, "velocity": 124, "channel": 0}, {"type": "note_off", "time": 80, "note": 74, "velocity": 124, "channel": 0}, {"type": "note_on", "time": 6, "note": 73, "velocity": 107, "channel": 0}, {"type": "note_off", "time": 90, "note": 73, "velocity": 107, "channel": 0}, {"type": "note_on", "time": 12, "note": 73, "velocity": 123, "channel": 0}, {"type": "note_off", "time": 72, "note": 73, "velocity": 123, "channel": 0}, {"type": "note_on", "time": 6, "note": 72, "velocity": 105, "channel": 0}, {"type": "note_off", "time": 92, "note": 72, "velocity": 105, "channel": 0}, {"type": "note_on", "time": 23, "note": 72, "velocity": 116, "channel": 0}, {"type": "note_off", "time": 68, "note": 72, "velocity": 116, "channel": 0}, {"type": "note_on", "time": 8, "note": 71, "velocity": 108, "channel": 0}, {"type": "note_off", "time": 99, "note": 71, "velocity": 108, "channel": 0}, {"type": "note_on", "time": 7, "note": 71, "velocity": 111, "channel": 0}, {"type": "note_off", "time": 61, "note": 71, "velocity": 111, "channel": 0}, {"type": "note_on", "time": 6, "note": 70, "velocity": 102, "channel": 0}, {"type": "note_off", "time": 120, "note": 70, "velocity": 102, "channel": 0}, {"type": "note_on", "time": 10, "note": 70, "velocity": 107, "channel": 0}, {"type": "note_off", "time": 61, "note": 70, "velocity": 107, "channel": 0}, {"type": "note_on", "time": 2, "note": 68, "velocity": 111, "channel": 0}, {"type": "note_off", "time": 57, "note": 68, "velocity": 111, "channel": 0}, {"type": "end_of_track", "time": 0}]]}