{"ticks_per_beat": 192, "tracks": [[{"type": "track_name", "name": "Melody", "time": 0}, {"type": "set_tempo", "tempo": 410958, "time": 0}, {"type": "key_signature", "key": "A", "time": 0}, {"type": "time_signature", "numerator": 4, "denominator": 4, "clocks_per_click": 24, "notated_32nd_notes_per_beat": 8, "time": 0}, {"type": "note_on", "time": 2266, "note": 61, "velocity": 121, "channel": 0}, {"type": "note_off", "time": 82, "note": 61, "velocity": 121, "channel": 0}, {"type": "note_on", "time": 64, "note": 64, "velocity": 127, "channel": 0}, {"type": "note_off", "time": 101, "note": 64, "velocity": 127, "channel": 0}, {"type": "note_on", "time": 4, "note": 63, "velocity": 126, "channel": 0}, {"type": "note_off", "time": 134, "note": 63, "velocity": 126, "channel": 0}, {"type": "note_on", "time": 20, "note": 68, "velocity": 126, "channel": 0}, {"type": "note_off", "time": 118, "note": 68, "velocity": 126, "channel": 0}, {"type": "note_on", "time": 42, "note": 68, "velocity": 116, "channel": 0}, {"type": "note_off", "time": 106, "note": 68, "velocity": 116, "channel": 0}, {"type": "note_on", "time": 23, "note": 68, "velocity": 114, "channel": 0}, {"type": "note_off", "time": 469, "note": 68, "velocity": 114, "channel": 0}, {"type": "note_on", "time": 44, "note": 66, "velocity": 105, "channel": 0}, {"type": "note_off", "time": 116, "note": 66, "velocity": 105, "channel": 0}, {"type": "note_on", "time": 29, "note": 61, "velocity": 102, "channel": 0}, {"type": "note_off", "time": 358, "note": 61, "velocity": 102, "channel": 0}, {"type": "note_on", "time": 529, "note": 69, "velocity": 115, "channel": 0}, {"type": "note_off", "time": 29, "note": 69, "velocity": 115, "channel": 0}, {"type": "note_on", "time": 10, "note": 71, "velocity": 119, "channel": 0}, {"type": "note_off", "time": 36, "note": 71, "velocity": 119, "channel": 0}, {"type": "note_on", "time": 13, "note": 73, "velocity": 118, "channel": 0}, {"type": "note_off", "time": 357, "note": 73, "velocity": 118, "channel": 0}, {"type": "note_on", "time": 8, "note": 74, "velocity": 121, "channel": 0}, {"type": "note_on", "time": 29, "note": 76, "velocity": 114, "channel": 0}, {"type": "note_off", "time": 0, "note": 74, "velocity": 121, "channel": 0}, {"type": "note_off", "time": 18, "note": 76, "velocity": 114, "channel": 0}, {"type": "note_on", "time": 1, "note": 77, "velocity": 122, "channel": 0}, {"type": "note_off", "time": 42, "note": 77, "velocity": 122, "channel": 0}, {"type": "note_on", "time": 10, "note": 81, "velocity": 115, "channel": 0}, {"type": "note_off", "time": 151, "note": 81, "velocity": 115, "channel": 0}, {"type": "note_on", "time": 8, "note": 79, "velocity": 113, "channel": 0}, {"type": "note_off", "time": 31, "note": 79, "velocity": 113, "channel": 0}, {"type": "note_on", "time": 10, "note": 77, "velocity": 117, "channel": 0}, {"type": "note_off", "time": 26, "note": 77, "velocity": 117, "channel": 0}, {"type": "note_on", "time": 7, "note": 76, "velocity": 110, "channel": 0}, {"type": "note_off", "time": 23, "note": 76, "velocity": 110, "channel": 0}, {"type": "note_on", "time": 3, "note": 77, "velocity": 109, "channel": 0}, {"type": "note_off", "time": 20, "note": 77, "velocity": 109, "channel": 0}, {"type": "note_on", "time": 17, "note": 73, "velocity": 113, "channel": 0}, {"type": "note_off", "time": 158, "note": 73, "velocity": 113, "channel": 0}, {"type": "note_on", "time": 12, "note": 74, "velocity": 107, "channel": 0}, {"type": "note_off", "time": 22, "note": 74, "velocity": 107, "channel": 0}, {"type": "note_on", "time": 8, "note": 73, "velocity": 112, "channel": 0}, {"type": "note_off", "time": 116, "note": 73, "velocity": 112, "channel": 0}, {"type": "note_on", "time": 0, "note": 74, "velocity": 113, "channel": 0}, {"type": "note_off", "time": 39, "note": 74, "velocity": 113, "channel": 0}, {"type": "note_on", "time": 9, "note": 73, "velocity": 110, "channel": 0}, {"type": "note_off", "time": 83, "note": 73, "velocity": 110, "channel": 0}, {"type": "note_on", "time": 7, "note": 76, "velocity": 108, "channel": 0}, {"type": "note_off", "time": 32, "note": 76, "velocity": 108, "channel": 0}, {"type": "note_on", "time": 3, "note": 75, "velocity": 106, "channel": 0}, {"type": "note_off", "time": 69, "note": 75, "velocity": 106, "channel": 0}, {"type": "note_on", "time": 10, "note": 76, "velocity": 100, "channel": 0}, {"type": "note_off", "time": 30, "note": 76, "velocity": 100, "channel": 0}, {"type": "note_on", "time": 19, "note": 73, "velocity": 109, "channel": 0}, {"type": "note_off", "time": 114, "note": 73, "velocity": 109, "channel": 0}, {"type": "note_on", "time": 39, "note": 66, "velocity": 96, "channel": 0}, {"type": "note_off", "time": 117, "note": 66, "velocity": 96, "channel": 0}, {"type": "note_on", "time": 8, "note": 69, "velocity": 104, "channel": 0}, {"type": "note_off", "time": 284, "note": 69, "velocity": 104, "channel": 0}, {"type": "note_on", "time": 452, "note": 76, "velocity": 114, "channel": 0}, {"type": "note_off", "time": 37, "note": 76, "velocity": 114, "channel": 0}, {"type": "note_on", "time": 15, "note": 79, "velocity": 116, "channel": 0}, {"type": "note_off", "time": 43, "note": 79, "velocity": 116, "channel": 0}, {"type": "note_on", "time": 21, "note": 81, "velocity": 115, "channel": 0}, {"type": "note_off", "time": 225, "note": 81, "velocity": 115, "channel": 0}, {"type": "note_on", "time": 48, "note": 79, "velocity": 112, "channel": 0}, {"type": "note_off", "time": 74, "note": 79, "velocity": 112, "channel": 0}, {"type": "note_on", "time": 27, "note": 77, "velocity": 117, "channel": 0}, {"type": "note_off", "time": 89, "note": 77, "velocity": 117, "channel": 0}, {"type": "note_on", "time": 2, "note": 76, "velocity": 117, "channel": 0}, {"type": "note_off", "time": 91, "note": 76, "velocity": 117, "channel": 0}, {"type": "note_on", "time": 6, "note": 74, "velocity": 118, "channel": 0}, {"type": "note_off", "time": 90, "note": 74, "velocity": 118, "channel": 0}, {"type": "note_on", "time": 11, "note": 72, "velocity": 114, "channel": 0}, {"type": "note_off", "time": 85, "note": 72, "velocity": 114, "channel": 0}, {"type": "note_on", "time": 20, "note": 71, "velocity": 115, "channel": 0}, {"type": "note_off", "time": 69, "note": 71, "velocity": 115, "channel": 0}, {"type": "note_on", "time": 13, "note": 69, "velocity": 110, "channel": 0}, {"type": "note_off", "time": 77, "note": 69, "velocity": 110, "channel": 0}, {"type": "note_on", "time": 13, "note": 67, "velocity": 110, "channel": 0}, {"type": "note_off", "time": 98, "note": 67, "velocity": 110, "channel": 0}, {"type": "note_on", "time": 10, "note": 66, "velocity": 108, "channel": 0}, {"type": "note_off", "time": 75, "note": 66, "velocity": 108, "channel": 0}, {"type": "note_on", "time": 12, "note": 65, "velocity": 111, "channel": 0}, {"type": "note_off", "time": 267, "note": 65, "velocity": 111, "channel": 0}, {"type": "note_on", "time": 4, "note": 66, "velocity": 106, "channel": 0}, {"type": "note_off", "time": 42, "note": 66, "velocity": 106, "channel": 0}, {"type": "note_on", "time": 8, "note": 68, "velocity": 113, "channel": 0}, {"type": "note_off", "time": 40, "note": 68, "velocity": 113, "channel": 0}, {"type": "note_on", "time": 10, "note": 69, "velocity": 113, "channel": 0}, {"type": "note_off", "time": 242, "note": 69, "velocity": 113, "channel": 0}, {"type": "note_on", "time": 13, "note": 71, "velocity": 110, "channel": 0}, {"type": "note_off", "time": 41, "note": 71, "velocity": 110, "channel": 0}, {"type": "note_on", "time": 6, "note": 73, "velocity": 115, "channel": 0}, {"type": "note_off", "time": 54, "note": 73, "velocity": 115, "channel": 0}, {"type": "note_on", "time": 25, "note": 69, "velocity": 108, "channel": 0}, {"type": "note_off", "time": 127, "note": 69, "velocity": 108, "channel": 0}, {"type": "note_on", "time": 30, "note": 69, "velocity": 106, "channel": 0}, {"type": "note_off", "time": 285, "note": 69, "velocity": 106, "channel": 0}, {"type": "note_on", "time": 611, "note": 73, "velocity": 117, "channel": 0}, {"type": "note_off", "time": 52, "note": 73, "velocity": 117, "channel": 0}, {"type": "note_on", "time": 18, "note": 76, "velocity": 119, "channel": 0}, {"type": "note_off", "time": 98, "note": 76, "velocity": 119, "channel": 0}, {"type": "note_on", "time": 17, "note": 76, "velocity": 126, "channel": 0}, {"type": "note_off", "time": 57, "note": 76, "velocity": 126, "channel": 0}, {"type": "note_on", "time": 6, "note": 80, "velocity": 121, "channel": 0}, {"type": "note_off", "time": 107, "note": 80, "velocity": 121, "channel": 0}, {"type": "note_on", "time": 8, "note": 83, "velocity": 119, "channel": 0}, {"type": "note_off", "time": 954, "note": 83, "velocity": 119, "channel": 0}, {"type": "note_on", "time": 199, "note": 73, "velocity": 113, "channel": 0}, {"type": "note_off", "time": 44, "note": 73, "velocity": 113, "channel": 0}, {"type": "note_on", "time": 21, "note": 76, "velocity": 119, "channel": 0}, {"type": "note_off", "time": 104, "note": 76, "velocity": 119, "channel": 0}, {"type": "note_on", "time": 12, "note": 78, "velocity": 116, "channel": 0}, {"type": "note_off", "time": 67, "note": 78, "velocity": 116, "channel": 0}, {"type": "note_on", "time": 6, "note": 80, "velocity": 119, "channel": 0}, {"type": "note_on", "time": 132, "note": 83, "velocity": 120, "channel": 0}, {"type": "note_off", "time": 0, "note": 80, "velocity": 119, "channel": 0}, {"type": "note_off", "time": 565, "note": 83, "velocity": 120, "channel": 0}, {"type": "note_on", "time": 569, "note": 81, "velocity": 119, "channel": 0}, {"type": "note_off", "time": 213, "note": 81, "velocity": 119, "channel": 0}, {"type": "note_on", "time": 36, "note": 86, "velocity": 119, "channel": 0}, {"type": "note_off", "time": 71, "note": 86, "velocity": 119, "channel": 0}, {"type": "note_on", "time": 4, "note": 85, "velocity": 122, "channel": 0}, {"type": "note_off", "time": 86, "note": 85, "velocity": 122, "channel": 0}, {"type": "note_on", "time": 4, "note": 88, "velocity": 118, "channel": 0}, {"type": "note_off", "time": 783, "note": 88, "velocity": 118, "channel": 0}, {"type": "note_on", "time": 362, "note": 69, "velocity": 110, "channel": 0}, {"type": "note_off", "time": 215, "note": 69, "velocity": 110, "channel": 0}, {"type": "note_on", "time": 27, "note": 73, "velocity": 113, "channel": 0}, {"type": "note_off", "time": 58, "note": 73, "velocity": 113, "channel": 0}, {"type": "note_on", "time": 27, "note": 78, "velocity": 112, "channel": 0}, {"type": "note_off", "time": 38, "note": 78, "velocity": 112, "channel": 0}, {"type": "note_on", "time": 15, "note": 81, "velocity": 116, "channel": 0}, {"type": "note_off", "time": 48, "note": 81, "velocity": 116, "channel": 0}, {"type": "note_on", "time": 38, "note": 83, "velocity": 121, "channel": 0}, {"type": "note_off", "time": 69, "note": 83, "velocity": 121, "channel": 0}, {"type": "note_on", "time": 26, "note": 83, "velocity": 118, "channel": 0}, {"type": "note_off", "time": 67, "note": 83, "velocity": 118, "channel": 0}, {"type": "note_on", "time": 11, "note": 80, "velocity": 118, "channel": 0}, {"type": "note_off", "time": 67, "note": 80, "velocity": 118, "channel": 0}, {"type": "note_on", "time": 44, "note": 80, "velocity": 110, "channel": 0}, {"type": "note_off", "time": 76, "note": 80, "velocity": 110, "channel": 0}, {"type": "note_on", "time": 6, "note": 76, "velocity": 111, "channel": 0}, {"type": "note_off", "time": 98, "note": 76, "velocity": 111, "channel": 0}, {"type": "note_on", "time": 1, "note": 74, "velocity": 117, "channel": 0}, {"type": "note_off", "time": 83, "note": 74, "velocity": 117, "channel": 0}, {"type": "note_on", "time": 3, "note": 73, "velocity": 114, "channel": 0}, {"type": "note_off", "time": 104, "note": 73, "velocity": 114, "channel": 0}, {"type": "note_on", "time": 4, "note": 71, "velocity": 113, "channel": 0}, {"type": "note_off", "time": 73, "note": 71, "velocity": 113, "channel": 0}, {"type": "note_on", "time": 18, "note": 69, "velocity": 109, "channel": 0}, {"type": "note_off", "time": 101, "note": 69, "velocity": 109, "channel": 0}, {"type": "note_on", "time": 17, "note": 65, "velocity": 116, "channel": 0}, {"type": "note_off", "time": 69, "note": 65, "velocity": 116, "channel": 0}, {"type": "note_on", "time": 13, "note": 61, "velocity": 109, "channel": 0}, {"type": "note_off", "time": 84, "note": 61, "velocity": 109, "channel": 0}, {"type": "note_on", "time": 10, "note": 57, "velocity": 97, "channel": 0}, {"type": "note_off", "time": 34, "note": 57, "velocity": 97, "channel": 0}, {"type": "note_on", "time": 59, "note": 64, "velocity": 111, "channel": 0}, {"type": "note_off", "time": 35, "note": 64, "velocity": 111, "channel": 0}, {"type": "note_on", "time": 0, "note": 65, "velocity": 109, "channel": 0}, {"type": "note_off", "time": 33, "note": 65, "velocity": 109, "channel": 0}, {"type": "note_on", "time": 4, "note": 64, "velocity": 108, "channel": 0}, {"type": "note_off", "time": 34, "note": 64, "velocity": 108, "channel": 0}, {"type": "note_on", "time": 4, "note": 61, "velocity": 111, "channel": 0}, {"type": "note_off", "time": 35, "note": 61, "velocity": 111, "channel": 0}, {"type": "note_on", "time": 40, "note": 62, "velocity": 103, "channel": 0}, {"type": "note_off", "time": 76, "note": 62, "velocity": 103, "channel": 0}, {"type": "note_on", "time": 37, "note": 65, "velocity": 102, "channel": 0}, {"type": "note_off", "time": 37, "note": 65, "velocity": 102, "channel": 0}, {"type": "note_on", "time": 21, "note": 69, "velocity": 105, "channel": 0}, {"type": "note_off", "time": 35, "note": 69, "velocity": 105, "channel": 0}, {"type": "note_on", "time": 18, "note": 69, "velocity": 102, "channel": 0}, {"type": "note_off", "time": 37, "note": 69, "velocity": 102, "channel": 0}, {"type": "note_on", "time": 19, "note": 76, "velocity": 111, "channel": 0}, {"type": "note_off", "time": 52, "note": 76, "velocity": 111, "channel": 0}, {"type": "note_on", "time": 15, "note": 79, "velocity": 109, "channel": 0}, {"type": "note_off", "time": 42, "note": 79, "velocity": 109, "channel": 0}, {"type": "note_on", "time": 13, "note": 76, "velocity": 113, "channel": 0}, {"type": "note_off", "time": 34, "note": 76, "velocity": 113, "channel": 0}, {"type": "note_on", "time": 6, "note": 77, "velocity": 108, "channel": 0}, {"type": "note_off", "time": 37, "note": 77, "velocity": 108, "channel": 0}, {"type": "note_on", "time": 11, "note": 74, "velocity": 99, "channel": 0}, {"type": "note_off", "time": 21, "note": 74, "velocity": 99, "channel": 0}, {"type": "note_on", "time": 3, "note": 73, "velocity": 112, "channel": 0}, {"type": "note_off", "time": 89, "note": 73, "velocity": 112, "channel": 0}, {"type": "note_on", "time": 25, "note": 76, "velocity": 109, "channel": 0}, {"type": "note_off", "time": 89, "note": 76, "velocity": 109, "channel": 0}, {"type": "note_on", "time": 14, "note": 74, "velocity": 112, "channel": 0}, {"type": "note_off", "time": 99, "note": 74, "velocity": 112, "channel": 0}, {"type": "note_on", "time": 19, "note": 69, "velocity": 102, "channel": 0}, {"type": "note_off", "time": 189, "note": 69, "velocity": 102, "channel": 0}, {"type": "note_on", "time": 770, "note": 78, "velocity": 114, "channel": 0}, {"type": "note_off", "time": 66, "note": 78, "velocity": 114, "channel": 0}, {"type": "note_on", "time": 15, "note": 76, "velocity": 118, "channel": 0}, {"type": "note_off", "time": 85, "note": 76, "velocity": 118, "channel": 0}, {"type": "note_on", "time": 46, "note": 73, "velocity": 117, "channel": 0}, {"type": "note_off", "time": 117, "note": 73, "velocity": 117, "channel": 0}, {"type": "note_on", "time": 67, "note": 72, "velocity": 115, "channel": 0}, {"type": "note_off", "time": 62, "note": 72, "velocity": 115, "channel": 0}, {"type": "note_on", "time": 10, "note": 71, "velocity": 116, "channel": 0}, {"type": "note_off", "time": 111, "note": 71, "velocity": 116, "channel": 0}, {"type": "note_on", "time": 6, "note": 69, "velocity": 111, "channel": 0}, {"type": "note_off", "time": 233, "note": 69, "velocity": 111, "channel": 0}, {"type": "note_on", "time": 23, "note": 66, "velocity": 116, "channel": 0}, {"type": "note_off", "time": 41, "note": 66, "velocity": 116, "channel": 0}, {"type": "note_on", "time": 6, "note": 64, "velocity": 117, "channel": 0}, {"type": "note_off", "time": 27, "note": 64, "velocity": 117, "channel": 0}, {"type": "note_on", "time": 7, "note": 66, "velocity": 111, "channel": 0}, {"type": "note_off", "time": 40, "note": 66, "velocity": 111, "channel": 0}, {"type": "note_on", "time": 12, "note": 64, "velocity": 114, "channel": 0}, {"type": "note_on", "time": 61, "note": 61, "velocity": 110, "channel": 0}, {"type": "note_off", "time": 0, "note": 64, "velocity": 114, "channel": 0}, {"type": "note_off", "time": 181, "note": 61, "velocity": 110, "channel": 0}, {"type": "note_on", "time": 23, "note": 59, "velocity": 109, "channel": 0}, {"type": "note_off", "time": 126, "note": 59, "velocity": 109, "channel": 0}, {"type": "note_on", "time": 19, "note": 57, "velocity": 112, "channel": 0}, {"type": "note_off", "time": 555, "note": 57, "velocity": 112, "channel": 0}, {"type": "end_of_track", "time": 0}]]}