{"ticks_per_beat": 192, "tracks": [[{"type": "track_name", "name": "Melody", "time": 0}, {"type": "set_tempo", "tempo": 434782, "time": 0}, {"type": "key_signature", "key": "G", "time": 0}, {"type": "time_signature", "numerator": 4, "denominator": 4, "clocks_per_click": 24, "notated_32nd_notes_per_beat": 8, "time": 0}, {"type": "note_on", "time": 912, "note": 55, "velocity": 105, "channel": 0}, {"type": "note_off", "time": 114, "note": 55, "velocity": 105, "channel": 0}, {"type": "note_on", "time": 10, "note": 50, "velocity": 98, "channel": 0}, {"type": "note_off", "time": 69, "note": 50, "velocity": 98, "channel": 0}, {"type": "note_on", "time": 9, "note": 47, "velocity": 99, "channel": 0}, {"type": "note_off", "time": 107, "note": 47, "velocity": 99, "channel": 0}, {"type": "note_on", "time": 10, "note": 44, "velocity": 98, "channel": 0}, {"type": "note_off", "time": 82, "note": 44, "velocity": 98, "channel": 0}, {"type": "note_on", "time": 8, "note": 47, "velocity": 94, "channel": 0}, {"type": "note_off", "time": 126, "note": 47, "velocity": 94, "channel": 0}, {"type": "note_on", "time": 72, "note": 52, "velocity": 100, "channel": 0}, {"type": "note_off", "time": 126, "note": 52, "velocity": 100, "channel": 0}, {"type": "note_on", "time": 11, "note": 52, "velocity": 98, "channel": 0}, {"type": "note_off", "time": 55, "note": 52, "velocity": 98, "channel": 0}, {"type": "note_on", "time": 15, "note": 50, "velocity": 94, "channel": 0}, {"type": "note_off", "time": 101, "note": 50, "velocity": 94, "channel": 0}, {"type": "note_on", "time": 4, "note": 46, "velocity": 104, "channel": 0}, {"type": "note_off", "time": 89, "note": 46, "velocity": 104, "channel": 0}, {"type": "note_on", "time": 14, "note": 48, "velocity": 97, "channel": 0}, {"type": "note_off", "time": 127, "note": 48, "velocity": 97, "channel": 0}, {"type": "note_on", "time": 47, "note": 55, "velocity": 115, "channel": 0}, {"type": "note_off", "time": 126, "note": 55, "velocity": 115, "channel": 0}, {"type": "note_on", "time": 8, "note": 57, "velocity": 119, "channel": 0}, {"type": "note_off", "time": 65, "note": 57, "velocity": 119, "channel": 0}, {"type": "note_on", "time": 14, "note": 58, "velocity": 113, "channel": 0}, {"type": "note_off", "time": 97, "note": 58, "velocity": 113, "channel": 0}, {"type": "note_on", "time": 9, "note": 59, "velocity": 113, "channel": 0}, {"type": "note_off", "time": 76, "note": 59, "velocity": 113, "channel": 0}, {"type": "note_on", "time": 23, "note": 60, "velocity": 118, "channel": 0}, {"type": "note_off", "time": 103, "note": 60, "velocity": 118, "channel": 0}, {"type": "note_on", "time": 15, "note": 61, "velocity": 118, "channel": 0}, {"type": "note_off", "time": 79, "note": 61, "velocity": 118, "channel": 0}, {"type": "note_on", "time": 7, "note": 62, "velocity": 114, "channel": 0}, {"type": "note_off", "time": 110, "note": 62, "velocity": 114, "channel": 0}, {"type": "note_on", "time": 6, "note": 67, "velocity": 105, "channel": 0}, {"type": "note_off", "time": 70, "note": 67, "velocity": 105, "channel": 0}, {"type": "note_on", "time": 9, "note": 64, "velocity": 106, "channel": 0}, {"type": "note_off", "time": 98, "note": 64, "velocity": 106, "channel": 0}, {"type": "note_on", "time": 14, "note": 63, "velocity": 114, "channel": 0}, {"type": "note_off", "time": 96, "note": 63, "velocity": 114, "channel": 0}, {"type": "note_on", "time": 11, "note": 62, "velocity": 108, "channel": 0}, {"type": "note_off", "time": 77, "note": 62, "velocity": 108, "channel": 0}, {"type": "note_on", "time": 18, "note": 55, "velocity": 95, "channel": 0}, {"type": "note_off", "time": 52, "note": 55, "velocity": 95, "channel": 0}, {"type": "note_on", "time": 12, "note": 57, "velocity": 109, "channel": 0}, {"type": "note_off", "time": 121, "note": 57, "velocity": 109, "channel": 0}, {"type": "note_on", "time": 26, "note": 58, "velocity": 92, "channel": 0}, {"type": "note_off", "time": 207, "note": 58, "velocity": 92, "channel": 0}, {"type": "note_on", "time": 334, "note": 62, "velocity": 113, "channel": 0}, {"type": "note_off", "time": 59, "note": 62, "velocity": 113, "channel": 0}, {"type": "note_on", "time": 10, "note": 64, "velocity": 110, "channel": 0}, {"type": "note_off", "time": 124, "note": 64, "velocity": 110, "channel": 0}, {"type": "note_on", "time": 13, "note": 63, "velocity": 114, "channel": 0}, {"type": "note_off", "time": 85, "note": 63, "velocity": 114, "channel": 0}, {"type": "note_on", "time": 8, "note": 62, "velocity": 106, "channel": 0}, {"type": "note_off", "time": 77, "note": 62, "velocity": 106, "channel": 0}, {"type": "note_on", "time": 19, "note": 55, "velocity": 111, "channel": 0}, {"type": "note_off", "time": 72, "note": 55, "velocity": 111, "channel": 0}, {"type": "note_on", "time": 4, "note": 57, "velocity": 112, "channel": 0}, {"type": "note_off", "time": 104, "note": 57, "velocity": 112, "channel": 0}, {"type": "note_on", "time": 17, "note": 60, "velocity": 117, "channel": 0}, {"type": "note_off", "time": 82, "note": 60, "velocity": 117, "channel": 0}, {"type": "note_on", "time": 8, "note": 59, "velocity": 106, "channel": 0}, {"type": "note_off", "time": 82, "note": 59, "velocity": 106, "channel": 0}, {"type": "note_on", "time": 52, "note": 50, "velocity": 96, "channel": 0}, {"type": "note_off", "time": 67, "note": 50, "velocity": 96, "channel": 0}, {"type": "note_on", "time": 1, "note": 52, "velocity": 96, "channel": 0}, {"type": "note_off", "time": 107, "note": 52, "velocity": 96, "channel": 0}, {"type": "note_on", "time": 9, "note": 53, "velocity": 95, "channel": 0}, {"type": "note_off", "time": 215, "note": 53, "velocity": 95, "channel": 0}, {"type": "note_on", "time": 20, "note": 53, "velocity": 94, "channel": 0}, {"type": "note_off", "time": 46, "note": 53, "velocity": 94, "channel": 0}, {"type": "note_on", "time": 11, "note": 52, "velocity": 99, "channel": 0}, {"type": "note_off", "time": 94, "note": 52, "velocity": 99, "channel": 0}, {"type": "note_on", "time": 160, "note": 58, "velocity": 111, "channel": 0}, {"type": "note_off", "time": 91, "note": 58, "velocity": 111, "channel": 0}, {"type": "note_on", "time": 12, "note": 57, "velocity": 107, "channel": 0}, {"type": "note_off", "time": 87, "note": 57, "velocity": 107, "channel": 0}, {"type": "note_on", "time": 18, "note": 55, "velocity": 108, "channel": 0}, {"type": "note_off", "time": 60, "note": 55, "velocity": 108, "channel": 0}, {"type": "note_on", "time": 8, "note": 61, "velocity": 100, "channel": 0}, {"type": "note_off", "time": 153, "note": 61, "velocity": 100, "channel": 0}, {"type": "note_on", "time": 9, "note": 61, "velocity": 110, "channel": 0}, {"type": "note_off", "time": 48, "note": 61, "velocity": 110, "channel": 0}, {"type": "note_on", "time": 12, "note": 60, "velocity": 110, "channel": 0}, {"type": "note_off", "time": 91, "note": 60, "velocity": 110, "channel": 0}, {"type": "note_on", "time": 10, "note": 58, "velocity": 111, "channel": 0}, {"type": "note_off", "time": 112, "note": 58, "velocity": 111, "channel": 0}, {"type": "note_on", "time": 269, "note": 55, "velocity": 115, "channel": 0}, {"type": "note_off", "time": 62, "note": 55, "velocity": 115, "channel": 0}, {"type": "note_on", "time": 8, "note": 58, "velocity": 102, "channel": 0}, {"type": "note_off", "time": 216, "note": 58, "velocity": 102, "channel": 0}, {"type": "note_on", "time": 10, "note": 55, "velocity": 112, "channel": 0}, {"type": "note_off", "time": 108, "note": 55, "velocity": 112, "channel": 0}, {"type": "note_on", "time": 26, "note": 50, "velocity": 100, "channel": 0}, {"type": "note_off", "time": 104, "note": 50, "velocity": 100, "channel": 0}, {"type": "note_on", "time": 51, "note": 50, "velocity": 97, "channel": 0}, {"type": "note_off", "time": 69, "note": 50, "velocity": 97, "channel": 0}, {"type": "note_on", "time": 22, "note": 48, "velocity": 100, "channel": 0}, {"type": "note_off", "time": 111, "note": 48, "velocity": 100, "channel": 0}, {"type": "note_on", "time": 1, "note": 45, "velocity": 109, "channel": 0}, {"type": "note_off", "time": 91, "note": 45, "velocity": 109, "channel": 0}, {"type": "note_on", "time": 8, "note": 47, "velocity": 89, "channel": 0}, {"type": "note_off", "time": 101, "note": 47, "velocity": 89, "channel": 0}, {"type": "note_on", "time": 8, "note": 50, "velocity": 99, "channel": 0}, {"type": "note_off", "time": 66, "note": 50, "velocity": 99, "channel": 0}, {"type": "note_on", "time": 13, "note": 52, "velocity": 101, "channel": 0}, {"type": "note_off", "time": 115, "note": 52, "velocity": 101, "channel": 0}, {"type": "note_on", "time": 10, "note": 50, "velocity": 88, "channel": 0}, {"type": "note_off", "time": 30, "note": 50, "velocity": 88, "channel": 0}, {"type": "note_on", "time": 20, "note": 55, "velocity": 110, "channel": 0}, {"type": "note_off", "time": 130, "note": 55, "velocity": 110, "channel": 0}, {"type": "note_on", "time": 4, "note": 57, "velocity": 86, "channel": 0}, {"type": "note_off", "time": 47, "note": 57, "velocity": 86, "channel": 0}, {"type": "note_on", "time": 12, "note": 59, "velocity": 101, "channel": 0}, {"type": "note_off", "time": 118, "note": 59, "velocity": 101, "channel": 0}, {"type": "note_on", "time": 8, "note": 62, "velocity": 95, "channel": 0}, {"type": "note_off", "time": 325, "note": 62, "velocity": 95, "channel": 0}, {"type": "note_on", "time": 230, "note": 62, "velocity": 106, "channel": 0}, {"type": "note_off", "time": 82, "note": 62, "velocity": 106, "channel": 0}, {"type": "note_on", "time": 8, "note": 64, "velocity": 94, "channel": 0}, {"type": "note_off", "time": 167, "note": 64, "velocity": 94, "channel": 0}, {"type": "note_on", "time": 30, "note": 67, "velocity": 110, "channel": 0}, {"type": "note_off", "time": 108, "note": 67, "velocity": 110, "channel": 0}, {"type": "note_on", "time": 260, "note": 62, "velocity": 95, "channel": 0}, {"type": "note_off", "time": 248, "note": 62, "velocity": 95, "channel": 0}, {"type": "note_on", "time": 95, "note": 59, "velocity": 112, "channel": 0}, {"type": "note_off", "time": 66, "note": 59, "velocity": 112, "channel": 0}, {"type": "note_on", "time": 17, "note": 60, "velocity": 114, "channel": 0}, {"type": "note_off", "time": 92, "note": 60, "velocity": 114, "channel": 0}, {"type": "note_on", "time": 12, "note": 62, "velocity": 91, "channel": 0}, {"type": "note_off", "time": 48, "note": 62, "velocity": 91, "channel": 0}, {"type": "note_on", "time": 23, "note": 64, "velocity": 105, "channel": 0}, {"type": "note_off", "time": 121, "note": 64, "velocity": 105, "channel": 0}, {"type": "note_on", "time": 7, "note": 57, "velocity": 114, "channel": 0}, {"type": "note_off", "time": 124, "note": 57, "velocity": 114, "channel": 0}, {"type": "note_on", "time": 42, "note": 59, "velocity": 107, "channel": 0}, {"type": "note_off", "time": 72, "note": 59, "velocity": 107, "channel": 0}, {"type": "note_on", "time": 10, "note": 60, "velocity": 101, "channel": 0}, {"type": "note_off", "time": 178, "note": 60, "velocity": 101, "channel": 0}, {"type": "note_on", "time": 19, "note": 59, "velocity": 102, "channel": 0}, {"type": "note_off", "time": 88, "note": 59, "velocity": 102, "channel": 0}, {"type": "note_on", "time": 21, "note": 60, "velocity": 112, "channel": 0}, {"type": "note_off", "time": 74, "note": 60, "velocity": 112, "channel": 0}, {"type": "note_on", "time": 7, "note": 62, "velocity": 105, "channel": 0}, {"type": "note_off", "time": 96, "note": 62, "velocity": 105, "channel": 0}, {"type": "note_on", "time": 96, "note": 55, "velocity": 108, "channel": 0}, {"type": "note_off", "time": 108, "note": 55, "velocity": 108, "channel": 0}, {"type": "note_on", "time": 4, "note": 57, "velocity": 116, "channel": 0}, {"type": "note_off", "time": 63, "note": 57, "velocity": 116, "channel": 0}, {"type": "note_on", "time": 18, "note": 59, "velocity": 109, "channel": 0}, {"type": "note_off", "time": 93, "note": 59, "velocity": 109, "channel": 0}, {"type": "note_on", "time": 262, "note": 49, "velocity": 100, "channel": 0}, {"type": "note_off", "time": 104, "note": 49, "velocity": 100, "channel": 0}, {"type": "note_on", "time": 12, "note": 51, "velocity": 107, "channel": 0}, {"type": "note_off", "time": 78, "note": 51, "velocity": 107, "channel": 0}, {"type": "note_on", "time": 3, "note": 53, "velocity": 123, "channel": 0}, {"type": "note_off", "time": 65, "note": 53, "velocity": 123, "channel": 0}, {"type": "note_on", "time": 12, "note": 56, "velocity": 107, "channel": 0}, {"type": "note_off", "time": 50, "note": 56, "velocity": 107, "channel": 0}, {"type": "note_on", "time": 1, "note": 60, "velocity": 115, "channel": 0}, {"type": "note_off", "time": 72, "note": 60, "velocity": 115, "channel": 0}, {"type": "note_on", "time": 8, "note": 63, "velocity": 118, "channel": 0}, {"type": "note_off", "time": 86, "note": 63, "velocity": 118, "channel": 0}, {"type": "note_on", "time": 14, "note": 61, "velocity": 118, "channel": 0}, {"type": "note_off", "time": 66, "note": 61, "velocity": 118, "channel": 0}, {"type": "note_on", "time": 6, "note": 62, "velocity": 105, "channel": 0}, {"type": "note_off", "time": 105, "note": 62, "velocity": 105, "channel": 0}, {"type": "note_on", "time": 8, "note": 61, "velocity": 117, "channel": 0}, {"type": "note_off", "time": 85, "note": 61, "velocity": 117, "channel": 0}, {"type": "note_on", "time": 9, "note": 60, "velocity": 106, "channel": 0}, {"type": "note_off", "time": 116, "note": 60, "velocity": 106, "channel": 0}, {"type": "note_on", "time": 24, "note": 59, "velocity": 103, "channel": 0}, {"type": "note_off", "time": 129, "note": 59, "velocity": 103, "channel": 0}, {"type": "note_on", "time": 16, "note": 57, "velocity": 97, "channel": 0}, {"type": "note_off", "time": 252, "note": 57, "velocity": 97, "channel": 0}, {"type": "note_on", "time": 17, "note": 55, "velocity": 110, "channel": 0}, {"type": "note_off", "time": 105, "note": 55, "velocity": 110, "channel": 0}, {"type": "note_on", "time": 4, "note": 53, "velocity": 122, "channel": 0}, {"type": "note_off", "time": 121, "note": 53, "velocity": 122, "channel": 0}, {"type": "note_on", "time": 2, "note": 56, "velocity": 91, "channel": 0}, {"type": "note_off", "time": 33, "note": 56, "velocity": 91, "channel": 0}, {"type": "note_on", "time": 2, "note": 57, "velocity": 98, "channel": 0}, {"type": "note_off", "time": 28, "note": 57, "velocity": 98, "channel": 0}, {"type": "note_on", "time": 5, "note": 60, "velocity": 109, "channel": 0}, {"type": "note_off", "time": 53, "note": 60, "velocity": 109, "channel": 0}, {"type": "note_on", "time": 5, "note": 65, "velocity": 94, "channel": 0}, {"type": "note_off", "time": 129, "note": 65, "velocity": 94, "channel": 0}, {"type": "note_on", "time": 1, "note": 63, "velocity": 111, "channel": 0}, {"type": "note_off", "time": 97, "note": 63, "velocity": 111, "channel": 0}, {"type": "note_on", "time": 6, "note": 62, "velocity": 104, "channel": 0}, {"type": "note_off", "time": 75, "note": 62, "velocity": 104, "channel": 0}, {"type": "note_on", "time": 7, "note": 60, "velocity": 112, "channel": 0}, {"type": "note_off", "time": 85, "note": 60, "velocity": 112, "channel": 0}, {"type": "note_on", "time": 5, "note": 59, "velocity": 94, "channel": 0}, {"type": "note_off", "time": 118, "note": 59, "velocity": 94, "channel": 0}, {"type": "note_on", "time": 13, "note": 62, "velocity": 101, "channel": 0}, {"type": "note_off", "time": 26, "note": 62, "velocity": 101, "channel": 0}, {"type": "note_on", "time": 5, "note": 63, "velocity": 105, "channel": 0}, {"type": "note_off", "time": 36, "note": 63, "velocity": 105, "channel": 0}, {"type": "note_on", "time": 6, "note": 67, "velocity": 112, "channel": 0}, {"type": "note_off", "time": 109, "note": 67, "velocity": 112, "channel": 0}, {"type": "note_on", "time": 812, "note": 67, "velocity": 112, "channel": 0}, {"type": "note_off", "time": 106, "note": 67, "velocity": 112, "channel": 0}, {"type": "note_on", "time": 10, "note": 68, "velocity": 109, "channel": 0}, {"type": "note_off", "time": 82, "note": 68, "velocity": 109, "channel": 0}, {"type": "note_on", "time": 18, "note": 64, "velocity": 111, "channel": 0}, {"type": "note_off", "time": 78, "note": 64, "velocity": 111, "channel": 0}, {"type": "note_on", "time": 10, "note": 61, "velocity": 119, "channel": 0}, {"type": "note_off", "time": 86, "note": 61, "velocity": 119, "channel": 0}, {"type": "note_on", "time": 9, "note": 57, "velocity": 103, "channel": 0}, {"type": "note_off", "time": 153, "note": 57, "velocity": 103, "channel": 0}, {"type": "note_on", "time": 42, "note": 56, "velocity": 106, "channel": 0}, {"type": "note_off", "time": 116, "note": 56, "velocity": 106, "channel": 0}, {"type": "note_on", "time": 35, "note": 54, "velocity": 112, "channel": 0}, {"type": "note_off", "time": 116, "note": 54, "velocity": 112, "channel": 0}, {"type": "note_on", "time": 23, "note": 56, "velocity": 109, "channel": 0}, {"type": "note_off", "time": 66, "note": 56, "velocity": 109, "channel": 0}, {"type": "note_on", "time": 7, "note": 57, "velocity": 112, "channel": 0}, {"type": "note_off", "time": 94, "note": 57, "velocity": 112, "channel": 0}, {"type": "note_on", "time": 18, "note": 59, "velocity": 110, "channel": 0}, {"type": "note_off", "time": 78, "note": 59, "velocity": 110, "channel": 0}, {"type": "note_on", "time": 7, "note": 61, "velocity": 103, "channel": 0}, {"type": "note_off", "time": 194, "note": 61, "velocity": 103, "channel": 0}, {"type": "note_on", "time": 8, "note": 64, "velocity": 112, "channel": 0}, {"type": "note_off", "time": 100, "note": 64, "velocity": 112, "channel": 0}, {"type": "note_on", "time": 5, "note": 61, "velocity": 116, "channel": 0}, {"type": "note_off", "time": 89, "note": 61, "velocity": 116, "channel": 0}, {"type": "note_on", "time": 7, "note": 63, "velocity": 112, "channel": 0}, {"type": "note_off", "time": 86, "note": 63, "velocity": 112, "channel": 0}, {"type": "note_on", "time": 9, "note": 64, "velocity": 112, "channel": 0}, {"type": "note_off", "time": 100, "note": 64, "velocity": 112, "channel": 0}, {"type": "note_on", "time": 5, "note": 66, "velocity": 104, "channel": 0}, {"type": "note_off", "time": 97, "note": 66, "velocity": 104, "channel": 0}, {"type": "note_on", "time": 21, "note": 67, "velocity": 107, "channel": 0}, {"type": "note_off", "time": 111, "note": 67, "velocity": 107, "channel": 0}, {"type": "note_on", "time": 47, "note": 66, "velocity": 99, "channel": 0}, {"type": "note_off", "time": 67, "note": 66, "velocity": 99, "channel": 0}, {"type": "note_on", "time": 28, "note": 64, "velocity": 106, "channel": 0}, {"type": "note_off", "time": 77, "note": 64, "velocity": 106, "channel": 0}, {"type": "note_on", "time": 19, "note": 59, "velocity": 101, "channel": 0}, {"type": "note_off", "time": 67, "note": 59, "velocity": 101, "channel": 0}, {"type": "note_on", "time": 24, "note": 57, "velocity": 103, "channel": 0}, {"type": "note_off", "time": 87, "note": 57, "velocity": 103, "channel": 0}, {"type": "note_on", "time": 14, "note": 59, "velocity": 103, "channel": 0}, {"type": "note_off", "time": 235, "note": 59, "velocity": 103, "channel": 0}, {"type": "note_on", "time": 55, "note": 52, "velocity": 98, "channel": 0}, {"type": "note_off", "time": 113, "note": 52, "velocity": 98, "channel": 0}, {"type": "note_on", "time": 352, "note": 52, "velocity": 100, "channel": 0}, {"type": "note_off", "time": 57, "note": 52, "velocity": 100, "channel": 0}, {"type": "note_on", "time": 23, "note": 55, "velocity": 108, "channel": 0}, {"type": "note_off", "time": 100, "note": 55, "velocity": 108, "channel": 0}, {"type": "note_on", "time": 6, "note": 59, "velocity": 104, "channel": 0}, {"type": "note_off", "time": 87, "note": 59, "velocity": 104, "channel": 0}, {"type": "note_on", "time": 7, "note": 64, "velocity": 108, "channel": 0}, {"type": "note_off", "time": 97, "note": 64, "velocity": 108, "channel": 0}, {"type": "note_on", "time": 29, "note": 54, "velocity": 98, "channel": 0}, {"type": "note_off", "time": 36, "note": 54, "velocity": 98, "channel": 0}, {"type": "note_on", "time": 6, "note": 57, "velocity": 100, "channel": 0}, {"type": "note_off", "time": 117, "note": 57, "velocity": 100, "channel": 0}, {"type": "note_on", "time": 13, "note": 61, "velocity": 117, "channel": 0}, {"type": "note_off", "time": 77, "note": 61, "velocity": 117, "channel": 0}, {"type": "note_on", "time": 15, "note": 64, "velocity": 113, "channel": 0}, {"type": "note_off", "time": 100, "note": 64, "velocity": 113, "channel": 0}, {"type": "note_on", "time": 12, "note": 59, "velocity": 96, "channel": 0}, {"type": "note_off", "time": 55, "note": 59, "velocity": 96, "channel": 0}, {"type": "note_on", "time": 22, "note": 62, "velocity": 107, "channel": 0}, {"type": "note_off", "time": 89, "note": 62, "velocity": 107, "channel": 0}, {"type": "note_on", "time": 102, "note": 61, "velocity": 116, "channel": 0}, {"type": "note_off", "time": 83, "note": 61, "velocity": 116, "channel": 0}, {"type": "note_on", "time": 7, "note": 59, "velocity": 109, "channel": 0}, {"type": "note_off", "time": 76, "note": 59, "velocity": 109, "channel": 0}, {"type": "note_on", "time": 21, "note": 57, "velocity": 99, "channel": 0}, {"type": "note_off", "time": 92, "note": 57, "velocity": 99, "channel": 0}, {"type": "note_on", "time": 4, "note": 56, "velocity": 110, "channel": 0}, {"type": "note_off", "time": 100, "note": 56, "velocity": 110, "channel": 0}, {"type": "note_on", "time": 2, "note": 55, "velocity": 101, "channel": 0}, {"type": "note_off", "time": 91, "note": 55, "velocity": 101, "channel": 0}, {"type": "note_on", "time": 8, "note": 52, "velocity": 103, "channel": 0}, {"type": "note_off", "time": 64, "note": 52, "velocity": 103, "channel": 0}, {"type": "note_on", "time": 6, "note": 49, "velocity": 100, "channel": 0}, {"type": "note_off", "time": 155, "note": 49, "velocity": 100, "channel": 0}, {"type": "note_on", "time": 53, "note": 50, "velocity": 103, "channel": 0}, {"type": "note_off", "time": 129, "note": 50, "velocity": 103, "channel": 0}, {"type": "note_on", "time": 707, "note": 38, "velocity": 114, "channel": 0}, {"type": "note_off", "time": 98, "note": 38, "velocity": 114, "channel": 0}, {"type": "note_on", "time": 13, "note": 45, "velocity": 113, "channel": 0}, {"type": "note_off", "time": 84, "note": 45, "velocity": 113, "channel": 0}, {"type": "note_on", "time": 9, "note": 46, "velocity": 114, "channel": 0}, {"type": "note_off", "time": 94, "note": 46, "velocity": 114, "channel": 0}, {"type": "note_on", "time": 14, "note": 50, "velocity": 96, "channel": 0}, {"type": "note_off", "time": 84, "note": 50, "velocity": 96, "channel": 0}, {"type": "note_on", "time": 4, "note": 54, "velocity": 120, "channel": 0}, {"type": "note_off", "time": 77, "note": 54, "velocity": 120, "channel": 0}, {"type": "note_on", "time": 13, "note": 57, "velocity": 108, "channel": 0}, {"type": "note_off", "time": 89, "note": 57, "velocity": 108, "channel": 0}, {"type": "note_on", "time": 7, "note": 58, "velocity": 115, "channel": 0}, {"type": "note_off", "time": 62, "note": 58, "velocity": 115, "channel": 0}, {"type": "note_on", "time": 30, "note": 54, "velocity": 95, "channel": 0}, {"type": "note_off", "time": 84, "note": 54, "velocity": 95, "channel": 0}, {"type": "note_on", "time": 5, "note": 55, "velocity": 102, "channel": 0}, {"type": "note_off", "time": 63, "note": 55, "velocity": 102, "channel": 0}, {"type": "note_on", "time": 24, "note": 57, "velocity": 112, "channel": 0}, {"type": "note_off", "time": 101, "note": 57, "velocity": 112, "channel": 0}, {"type": "note_on", "time": 7, "note": 54, "velocity": 91, "channel": 0}, {"type": "note_off", "time": 72, "note": 54, "velocity": 91, "channel": 0}, {"type": "note_on", "time": 14, "note": 55, "velocity": 99, "channel": 0}, {"type": "note_off", "time": 177, "note": 55, "velocity": 99, "channel": 0}, {"type": "note_on", "time": 2, "note": 62, "velocity": 109, "channel": 0}, {"type": "note_off", "time": 168, "note": 62, "velocity": 109, "channel": 0}, {"type": "note_on", "time": 28, "note": 60, "velocity": 93, "channel": 0}, {"type": "note_off", "time": 183, "note": 60, "velocity": 93, "channel": 0}, {"type": "note_on", "time": 10, "note": 64, "velocity": 114, "channel": 0}, {"type": "note_off", "time": 148, "note": 64, "velocity": 114, "channel": 0}, {"type": "note_on", "time": 60, "note": 57, "velocity": 101, "channel": 0}, {"type": "note_off", "time": 101, "note": 57, "velocity": 101, "channel": 0}, {"type": "note_on", "time": 7, "note": 58, "velocity": 108, "channel": 0}, {"type": "note_off", "time": 59, "note": 58, "velocity": 108, "channel": 0}, {"type": "note_on", "time": 4, "note": 59, "velocity": 110, "channel": 0}, {"type": "note_off", "time": 21, "note": 59, "velocity": 110, "channel": 0}, {"type": "note_on", "time": 3, "note": 60, "velocity": 112, "channel": 0}, {"type": "note_off", "time": 87, "note": 60, "velocity": 112, "channel": 0}, {"type": "note_on", "time": 10, "note": 58, "velocity": 96, "channel": 0}, {"type": "note_off", "time": 73, "note": 58, "velocity": 96, "channel": 0}, {"type": "note_on", "time": 5, "note": 59, "velocity": 94, "channel": 0}, {"type": "note_off", "time": 98, "note": 59, "velocity": 94, "channel": 0}, {"type": "note_on", "time": 9, "note": 60, "velocity": 114, "channel": 0}, {"type": "note_off", "time": 89, "note": 60, "velocity": 114, "channel": 0}, {"type": "note_on", "time": 12, "note": 62, "velocity": 107, "channel": 0}, {"type": "note_off", "time": 116, "note": 62, "velocity": 107, "channel": 0}, {"type": "note_on", "time": 58, "note": 55, "velocity": 109, "channel": 0}, {"type": "note_off", "time": 106, "note": 55, "velocity": 109, "channel": 0}, {"type": "note_on", "time": 8, "note": 57, "velocity": 113, "channel": 0}, {"type": "note_off", "time": 74, "note": 57, "velocity": 113, "channel": 0}, {"type": "note_on", "time": 10, "note": 59, "velocity": 103, "channel": 0}, {"type": "note_off", "time": 101, "note": 59, "velocity": 103, "channel": 0}, {"type": "note_on", "time": 9, "note": 60, "velocity": 111, "channel": 0}, {"type": "note_off", "time": 74, "note": 60, "velocity": 111, "channel": 0}, {"type": "note_on", "time": 16, "note": 62, "velocity": 105, "channel": 0}, {"type": "note_off", "time": 78, "note": 62, "velocity": 105, "channel": 0}, {"type": "note_on", "time": 4, "note": 64, "velocity": 111, "channel": 0}, {"type": "note_off", "time": 75, "note": 64, "velocity": 111, "channel": 0}, {"type": "note_on", "time": 12, "note": 65, "velocity": 100, "channel": 0}, {"type": "note_off", "time": 141, "note": 65, "velocity": 100, "channel": 0}, {"type": "note_on", "time": 16, "note": 65, "velocity": 97, "channel": 0}, {"type": "note_off", "time": 215, "note": 65, "velocity": 97, "channel": 0}, {"type": "note_on", "time": 18, "note": 64, "velocity": 106, "channel": 0}, {"type": "note_off", "time": 96, "note": 64, "velocity": 106, "channel": 0}, {"type": "note_on", "time": 7, "note": 61, "velocity": 104, "channel": 0}, {"type": "note_off", "time": 73, "note": 61, "velocity": 104, "channel": 0}, {"type": "note_on", "time": 14, "note": 62, "velocity": 97, "channel": 0}, {"type": "note_off", "time": 184, "note": 62, "velocity": 97, "channel": 0}, {"type": "note_on", "time": 92, "note": 61, "velocity": 112, "channel": 0}, {"type": "note_off", "time": 99, "note": 61, "velocity": 112, "channel": 0}, {"type": "note_on", "time": 8, "note": 60, "velocity": 107, "channel": 0}, {"type": "note_off", "time": 72, "note": 60, "velocity": 107, "channel": 0}, {"type": "note_on", "time": 9, "note": 59, "velocity": 103, "channel": 0}, {"type": "note_off", "time": 69, "note": 59, "velocity": 103, "channel": 0}, {"type": "note_on", "time": 17, "note": 57, "velocity": 111, "channel": 0}, {"type": "note_off", "time": 94, "note": 57, "velocity": 111, "channel": 0}, {"type": "note_on", "time": 380, "note": 62, "velocity": 104, "channel": 0}, {"type": "note_off", "time": 42, "note": 62, "velocity": 104, "channel": 0}, {"type": "note_on", "time": 11, "note": 61, "velocity": 114, "channel": 0}, {"type": "note_off", "time": 53, "note": 61, "velocity": 114, "channel": 0}, {"type": "note_on", "time": 17, "note": 60, "velocity": 9, "channel": 0}, {"type": "note_off", "time": 83, "note": 60, "velocity": 9, "channel": 0}, {"type": "note_on", "time": 13, "note": 57, "velocity": 127, "channel": 0}, {"type": "note_off", "time": 51, "note": 57, "velocity": 127, "channel": 0}, {"type": "note_on", "time": 13, "note": 54, "velocity": 116, "channel": 0}, {"type": "note_off", "time": 96, "note": 54, "velocity": 116, "channel": 0}, {"type": "note_on", "time": 33, "note": 50, "velocity": 94, "channel": 0}, {"type": "note_off", "time": 42, "note": 50, "velocity": 94, "channel": 0}, {"type": "note_on", "time": 15, "note": 55, "velocity": 114, "channel": 0}, {"type": "note_off", "time": 114, "note": 55, "velocity": 114, "channel": 0}, {"type": "note_on", "time": 12, "note": 57, "velocity": 124, "channel": 0}, {"type": "note_off", "time": 59, "note": 57, "velocity": 124, "channel": 0}, {"type": "note_on", "time": 10, "note": 59, "velocity": 111, "channel": 0}, {"type": "note_off", "time": 91, "note": 59, "velocity": 111, "channel": 0}, {"type": "note_on", "time": 12, "note": 57, "velocity": 124, "channel": 0}, {"type": "note_off", "time": 71, "note": 57, "velocity": 124, "channel": 0}, {"type": "note_on", "time": 9, "note": 55, "velocity": 112, "channel": 0}, {"type": "note_off", "time": 114, "note": 55, "velocity": 112, "channel": 0}, {"type": "note_on", "time": 10, "note": 62, "velocity": 95, "channel": 0}, {"type": "note_off", "time": 176, "note": 62, "velocity": 95, "channel": 0}, {"type": "note_on", "time": 388, "note": 62, "velocity": 113, "channel": 0}, {"type": "note_off", "time": 37, "note": 62, "velocity": 113, "channel": 0}, {"type": "note_on", "time": 3, "note": 61, "velocity": 117, "channel": 0}, {"type": "note_off", "time": 40, "note": 61, "velocity": 117, "channel": 0}, {"type": "note_on", "time": 9, "note": 60, "velocity": 112, "channel": 0}, {"type": "note_off", "time": 100, "note": 60, "velocity": 112, "channel": 0}, {"type": "note_on", "time": 7, "note": 59, "velocity": 114, "channel": 0}, {"type": "note_off", "time": 60, "note": 59, "velocity": 114, "channel": 0}, {"type": "note_on", "time": 21, "note": 57, "velocity": 110, "channel": 0}, {"type": "note_off", "time": 86, "note": 57, "velocity": 110, "channel": 0}, {"type": "note_on", "time": 4, "note": 55, "velocity": 97, "channel": 0}, {"type": "note_off", "time": 78, "note": 55, "velocity": 97, "channel": 0}, {"type": "note_on", "time": 2, "note": 59, "velocity": 100, "channel": 0}, {"type": "note_off", "time": 646, "note": 59, "velocity": 100, "channel": 0}, {"type": "note_on", "time": 16, "note": 55, "velocity": 92, "channel": 0}, {"type": "note_off", "time": 45, "note": 55, "velocity": 92, "channel": 0}, {"type": "note_on", "time": 7, "note": 53, "velocity": 98, "channel": 0}, {"type": "note_off", "time": 56, "note": 53, "velocity": 98, "channel": 0}, {"type": "note_on", "time": 11, "note": 52, "velocity": 88, "channel": 0}, {"type": "note_off", "time": 587, "note": 52, "velocity": 88, "channel": 0}, {"type": "end_of_track", "time": 0}]]}