{"ticks_per_beat": 192, "tracks": [[{"type": "track_name", "name": "Melody", "time": 0}, {"type": "set_tempo", "tempo": 285714, "time": 0}, {"type": "key_signature", "key": "Bb", "time": 0}, {"type": "time_signature", "numerator": 4, "denominator": 4, "clocks_per_click": 24, "notated_32nd_notes_per_beat": 8, "time": 0}, {"type": "note_on", "time": 1824, "note": 70, "velocity": 114, "channel": 0}, {"type": "note_off", "time": 93, "note": 70, "velocity": 114, "channel": 0}, {"type": "note_on", "time": 93, "note": 70, "velocity": 116, "channel": 0}, {"type": "note_off", "time": 87, "note": 70, "velocity": 116, "channel": 0}, {"type": "note_on", "time": 93, "note": 70, "velocity": 118, "channel": 0}, {"type": "note_off", "time": 142, "note": 70, "velocity": 118, "channel": 0}, {"type": "note_on", "time": 126, "note": 72, "velocity": 122, "channel": 0}, {"type": "note_off", "time": 93, "note": 72, "velocity": 122, "channel": 0}, {"type": "note_on", "time": 10, "note": 73, "velocity": 122, "channel": 0}, {"type": "note_off", "time": 82, "note": 73, "velocity": 122, "channel": 0}, {"type": "note_on", "time": 49, "note": 67, "velocity": 100, "channel": 0}, {"type": "note_off", "time": 115, "note": 67, "velocity": 100, "channel": 0}, {"type": "note_on", "time": 38, "note": 70, "velocity": 117, "channel": 0}, {"type": "note_off", "time": 87, "note": 70, "velocity": 117, "channel": 0}, {"type": "note_on", "time": 5, "note": 69, "velocity": 92, "channel": 0}, {"type": "note_off", "time": 82, "note": 69, "velocity": 92, "channel": 0}, {"type": "note_on", "time": 526, "note": 73, "velocity": 122, "channel": 0}, {"type": "note_off", "time": 76, "note": 73, "velocity": 122, "channel": 0}, {"type": "note_on", "time": 5, "note": 74, "velocity": 124, "channel": 0}, {"type": "note_off", "time": 115, "note": 74, "velocity": 124, "channel": 0}, {"type": "note_on", "time": 21, "note": 75, "velocity": 118, "channel": 0}, {"type": "note_off", "time": 98, "note": 75, "velocity": 118, "channel": 0}, {"type": "note_on", "time": 65, "note": 74, "velocity": 121, "channel": 0}, {"type": "note_off", "time": 98, "note": 74, "velocity": 121, "channel": 0}, {"type": "note_on", "time": 0, "note": 75, "velocity": 123, "channel": 0}, {"type": "note_off", "time": 131, "note": 75, "velocity": 123, "channel": 0}, {"type": "note_on", "time": 21, "note": 74, "velocity": 120, "channel": 0}, {"type": "note_off", "time": 93, "note": 74, "velocity": 120, "channel": 0}, {"type": "note_on", "time": 54, "note": 74, "velocity": 124, "channel": 0}, {"type": "note_off", "time": 76, "note": 74, "velocity": 124, "channel": 0}, {"type": "note_on", "time": 115, "note": 67, "velocity": 111, "channel": 0}, {"type": "note_off", "time": 192, "note": 67, "velocity": 111, "channel": 0}, {"type": "note_on", "time": 65, "note": 70, "velocity": 107, "channel": 0}, {"type": "note_off", "time": 115, "note": 70, "velocity": 107, "channel": 0}, {"type": "note_on", "time": 104, "note": 70, "velocity": 120, "channel": 0}, {"type": "note_off", "time": 60, "note": 70, "velocity": 120, "channel": 0}, {"type": "note_on", "time": 43, "note": 70, "velocity": 119, "channel": 0}, {"type": "note_off", "time": 49, "note": 70, "velocity": 119, "channel": 0}, {"type": "note_on", "time": 5, "note": 69, "velocity": 118, "channel": 0}, {"type": "note_off", "time": 98, "note": 69, "velocity": 118, "channel": 0}, {"type": "note_on", "time": 10, "note": 67, "velocity": 116, "channel": 0}, {"type": "note_off", "time": 104, "note": 67, "velocity": 116, "channel": 0}, {"type": "note_on", "time": 115, "note": 63, "velocity": 97, "channel": 0}, {"type": "note_off", "time": 285, "note": 63, "velocity": 97, "channel": 0}, {"type": "note_on", "time": 194, "note": 73, "velocity": 124, "channel": 0}, {"type": "note_on", "time": 65, "note": 74, "velocity": 120, "channel": 0}, {"type": "note_off", "time": 0, "note": 73, "velocity": 124, "channel": 0}, {"type": "note_off", "time": 87, "note": 74, "velocity": 120, "channel": 0}, {"type": "note_on", "time": 2, "note": 73, "velocity": 121, "channel": 0}, {"type": "note_off", "time": 93, "note": 73, "velocity": 121, "channel": 0}, {"type": "note_on", "time": 0, "note": 74, "velocity": 123, "channel": 0}, {"type": "note_off", "time": 93, "note": 74, "velocity": 123, "channel": 0}, {"type": "note_on", "time": 5, "note": 72, "velocity": 118, "channel": 0}, {"type": "note_off", "time": 90, "note": 72, "velocity": 118, "channel": 0}, {"type": "note_on", "time": 27, "note": 67, "velocity": 108, "channel": 0}, {"type": "note_off", "time": 68, "note": 67, "velocity": 108, "channel": 0}, {"type": "note_on", "time": 98, "note": 70, "velocity": 113, "channel": 0}, {"type": "note_off", "time": 246, "note": 70, "velocity": 113, "channel": 0}, {"type": "note_on", "time": 2, "note": 67, "velocity": 107, "channel": 0}, {"type": "note_off", "time": 101, "note": 67, "velocity": 107, "channel": 0}, {"type": "note_on", "time": 8, "note": 65, "velocity": 98, "channel": 0}, {"type": "note_off", "time": 87, "note": 65, "velocity": 98, "channel": 0}, {"type": "note_on", "time": 24, "note": 64, "velocity": 110, "channel": 0}, {"type": "note_off", "time": 115, "note": 64, "velocity": 110, "channel": 0}, {"type": "note_on", "time": 19, "note": 67, "velocity": 116, "channel": 0}, {"type": "note_off", "time": 90, "note": 67, "velocity": 116, "channel": 0}, {"type": "note_on", "time": 16, "note": 69, "velocity": 113, "channel": 0}, {"type": "note_off", "time": 112, "note": 69, "velocity": 113, "channel": 0}, {"type": "note_on", "time": 0, "note": 67, "velocity": 110, "channel": 0}, {"type": "note_off", "time": 106, "note": 67, "velocity": 110, "channel": 0}, {"type": "note_on", "time": 35, "note": 63, "velocity": 112, "channel": 0}, {"type": "note_off", "time": 211, "note": 63, "velocity": 112, "channel": 0}, {"type": "note_on", "time": 75, "note": 62, "velocity": 93, "channel": 0}, {"type": "note_off", "time": 101, "note": 62, "velocity": 93, "channel": 0}, {"type": "note_on", "time": 7, "note": 67, "velocity": 118, "channel": 0}, {"type": "note_off", "time": 74, "note": 67, "velocity": 118, "channel": 0}, {"type": "note_on", "time": 0, "note": 69, "velocity": 114, "channel": 0}, {"type": "note_off", "time": 132, "note": 69, "velocity": 114, "channel": 0}, {"type": "note_on", "time": 7, "note": 67, "velocity": 111, "channel": 0}, {"type": "note_off", "time": 113, "note": 67, "velocity": 111, "channel": 0}, {"type": "note_on", "time": 46, "note": 63, "velocity": 108, "channel": 0}, {"type": "note_off", "time": 218, "note": 63, "velocity": 108, "channel": 0}, {"type": "note_on", "time": 66, "note": 61, "velocity": 102, "channel": 0}, {"type": "note_off", "time": 120, "note": 61, "velocity": 102, "channel": 0}, {"type": "note_on", "time": 0, "note": 62, "velocity": 105, "channel": 0}, {"type": "note_off", "time": 120, "note": 62, "velocity": 105, "channel": 0}, {"type": "note_on", "time": 66, "note": 65, "velocity": 109, "channel": 0}, {"type": "note_off", "time": 210, "note": 65, "velocity": 109, "channel": 0}, {"type": "note_on", "time": 441, "note": 73, "velocity": 125, "channel": 0}, {"type": "note_off", "time": 65, "note": 73, "velocity": 125, "channel": 0}, {"type": "note_on", "time": 10, "note": 74, "velocity": 126, "channel": 0}, {"type": "note_off", "time": 87, "note": 74, "velocity": 126, "channel": 0}, {"type": "note_on", "time": 10, "note": 75, "velocity": 125, "channel": 0}, {"type": "note_off", "time": 106, "note": 75, "velocity": 125, "channel": 0}, {"type": "note_on", "time": 0, "note": 74, "velocity": 118, "channel": 0}, {"type": "note_off", "time": 128, "note": 74, "velocity": 118, "channel": 0}, {"type": "note_on", "time": 52, "note": 72, "velocity": 118, "channel": 0}, {"type": "note_off", "time": 79, "note": 72, "velocity": 118, "channel": 0}, {"type": "note_on", "time": 68, "note": 67, "velocity": 112, "channel": 0}, {"type": "note_off", "time": 71, "note": 67, "velocity": 112, "channel": 0}, {"type": "note_on", "time": 19, "note": 63, "velocity": 116, "channel": 0}, {"type": "note_off", "time": 93, "note": 63, "velocity": 116, "channel": 0}, {"type": "note_on", "time": 38, "note": 60, "velocity": 100, "channel": 0}, {"type": "note_off", "time": 148, "note": 60, "velocity": 100, "channel": 0}, {"type": "note_on", "time": 128, "note": 72, "velocity": 118, "channel": 0}, {"type": "note_off", "time": 87, "note": 72, "velocity": 118, "channel": 0}, {"type": "note_on", "time": 24, "note": 70, "velocity": 114, "channel": 0}, {"type": "note_off", "time": 79, "note": 70, "velocity": 114, "channel": 0}, {"type": "note_on", "time": 8, "note": 69, "velocity": 119, "channel": 0}, {"type": "note_off", "time": 74, "note": 69, "velocity": 119, "channel": 0}, {"type": "note_on", "time": 98, "note": 69, "velocity": 117, "channel": 0}, {"type": "note_off", "time": 82, "note": 69, "velocity": 117, "channel": 0}, {"type": "note_on", "time": 21, "note": 66, "velocity": 112, "channel": 0}, {"type": "note_off", "time": 82, "note": 66, "velocity": 112, "channel": 0}, {"type": "note_on", "time": 10, "note": 62, "velocity": 105, "channel": 0}, {"type": "note_off", "time": 87, "note": 62, "velocity": 105, "channel": 0}, {"type": "note_on", "time": 13, "note": 64, "velocity": 113, "channel": 0}, {"type": "note_off", "time": 87, "note": 64, "velocity": 113, "channel": 0}, {"type": "note_on", "time": 93, "note": 57, "velocity": 99, "channel": 0}, {"type": "note_off", "time": 145, "note": 57, "velocity": 99, "channel": 0}, {"type": "note_on", "time": 2, "note": 55, "velocity": 96, "channel": 0}, {"type": "note_off", "time": 249, "note": 55, "velocity": 96, "channel": 0}, {"type": "note_on", "time": 415, "note": 77, "velocity": 102, "channel": 0}, {"type": "note_off", "time": 46, "note": 77, "velocity": 102, "channel": 0}, {"type": "note_on", "time": 15, "note": 79, "velocity": 118, "channel": 0}, {"type": "note_off", "time": 3198, "note": 79, "velocity": 118, "channel": 0}, {"type": "note_on", "time": 436, "note": 77, "velocity": 122, "channel": 0}, {"type": "note_off", "time": 66, "note": 77, "velocity": 122, "channel": 0}, {"type": "note_on", "time": 0, "note": 79, "velocity": 117, "channel": 0}, {"type": "note_off", "time": 70, "note": 79, "velocity": 117, "channel": 0}, {"type": "note_on", "time": 7, "note": 81, "velocity": 124, "channel": 0}, {"type": "note_off", "time": 136, "note": 81, "velocity": 124, "channel": 0}, {"type": "note_on", "time": 39, "note": 81, "velocity": 125, "channel": 0}, {"type": "note_off", "time": 124, "note": 81, "velocity": 125, "channel": 0}, {"type": "note_on", "time": 31, "note": 81, "velocity": 125, "channel": 0}, {"type": "note_off", "time": 210, "note": 81, "velocity": 125, "channel": 0}, {"type": "note_on", "time": 35, "note": 79, "velocity": 123, "channel": 0}, {"type": "note_off", "time": 85, "note": 79, "velocity": 123, "channel": 0}, {"type": "note_on", "time": 50, "note": 79, "velocity": 121, "channel": 0}, {"type": "note_off", "time": 113, "note": 79, "velocity": 121, "channel": 0}, {"type": "note_on", "time": 50, "note": 74, "velocity": 116, "channel": 0}, {"type": "note_on", "time": 105, "note": 77, "velocity": 124, "channel": 0}, {"type": "note_off", "time": 0, "note": 74, "velocity": 116, "channel": 0}, {"type": "note_off", "time": 101, "note": 77, "velocity": 124, "channel": 0}, {"type": "note_on", "time": 0, "note": 76, "velocity": 121, "channel": 0}, {"type": "note_off", "time": 70, "note": 76, "velocity": 121, "channel": 0}, {"type": "note_on", "time": 11, "note": 75, "velocity": 124, "channel": 0}, {"type": "note_off", "time": 113, "note": 75, "velocity": 124, "channel": 0}, {"type": "note_on", "time": 11, "note": 74, "velocity": 120, "channel": 0}, {"type": "note_off", "time": 117, "note": 74, "velocity": 120, "channel": 0}, {"type": "note_on", "time": 62, "note": 74, "velocity": 119, "channel": 0}, {"type": "note_off", "time": 253, "note": 74, "velocity": 119, "channel": 0}, {"type": "note_on", "time": 46, "note": 72, "velocity": 113, "channel": 0}, {"type": "note_off", "time": 93, "note": 72, "velocity": 113, "channel": 0}, {"type": "note_on", "time": 70, "note": 72, "velocity": 120, "channel": 0}, {"type": "note_off", "time": 89, "note": 72, "velocity": 120, "channel": 0}, {"type": "note_on", "time": 19, "note": 70, "velocity": 114, "channel": 0}, {"type": "note_off", "time": 101, "note": 70, "velocity": 114, "channel": 0}, {"type": "note_on", "time": 85, "note": 67, "velocity": 113, "channel": 0}, {"type": "note_off", "time": 62, "note": 67, "velocity": 113, "channel": 0}, {"type": "note_on", "time": 11, "note": 70, "velocity": 119, "channel": 0}, {"type": "note_off", "time": 117, "note": 70, "velocity": 119, "channel": 0}, {"type": "note_on", "time": 3, "note": 67, "velocity": 101, "channel": 0}, {"type": "note_off", "time": 78, "note": 67, "velocity": 101, "channel": 0}, {"type": "note_on", "time": 15, "note": 68, "velocity": 110, "channel": 0}, {"type": "note_off", "time": 70, "note": 68, "velocity": 110, "channel": 0}, {"type": "note_on", "time": 19, "note": 69, "velocity": 112, "channel": 0}, {"type": "note_off", "time": 245, "note": 69, "velocity": 112, "channel": 0}, {"type": "note_on", "time": 0, "note": 67, "velocity": 112, "channel": 0}, {"type": "note_off", "time": 74, "note": 67, "velocity": 112, "channel": 0}, {"type": "note_on", "time": 54, "note": 65, "velocity": 103, "channel": 0}, {"type": "note_off", "time": 54, "note": 65, "velocity": 103, "channel": 0}, {"type": "note_on", "time": 11, "note": 63, "velocity": 105, "channel": 0}, {"type": "note_off", "time": 124, "note": 63, "velocity": 105, "channel": 0}, {"type": "note_on", "time": 296, "note": 73, "velocity": 126, "channel": 0}, {"type": "note_off", "time": 78, "note": 73, "velocity": 126, "channel": 0}, {"type": "note_on", "time": 3, "note": 74, "velocity": 123, "channel": 0}, {"type": "note_off", "time": 78, "note": 74, "velocity": 123, "channel": 0}, {"type": "note_on", "time": 15, "note": 73, "velocity": 125, "channel": 0}, {"type": "note_off", "time": 85, "note": 73, "velocity": 125, "channel": 0}, {"type": "note_on", "time": 0, "note": 74, "velocity": 123, "channel": 0}, {"type": "note_off", "time": 81, "note": 74, "velocity": 123, "channel": 0}, {"type": "note_on", "time": 0, "note": 72, "velocity": 120, "channel": 0}, {"type": "note_off", "time": 89, "note": 72, "velocity": 120, "channel": 0}, {"type": "note_on", "time": 70, "note": 67, "velocity": 108, "channel": 0}, {"type": "note_off", "time": 101, "note": 67, "velocity": 108, "channel": 0}, {"type": "note_on", "time": 42, "note": 70, "velocity": 116, "channel": 0}, {"type": "note_off", "time": 261, "note": 70, "velocity": 116, "channel": 0}, {"type": "note_on", "time": 23, "note": 67, "velocity": 108, "channel": 0}, {"type": "note_off", "time": 74, "note": 67, "velocity": 108, "channel": 0}, {"type": "note_on", "time": 39, "note": 65, "velocity": 110, "channel": 0}, {"type": "note_off", "time": 54, "note": 65, "velocity": 110, "channel": 0}, {"type": "note_on", "time": 7, "note": 64, "velocity": 109, "channel": 0}, {"type": "note_off", "time": 101, "note": 64, "velocity": 109, "channel": 0}, {"type": "note_on", "time": 66, "note": 67, "velocity": 102, "channel": 0}, {"type": "note_off", "time": 89, "note": 67, "velocity": 102, "channel": 0}, {"type": "note_on", "time": 11, "note": 70, "velocity": 107, "channel": 0}, {"type": "note_off", "time": 97, "note": 70, "velocity": 107, "channel": 0}, {"type": "note_on", "time": 15, "note": 69, "velocity": 113, "channel": 0}, {"type": "note_off", "time": 109, "note": 69, "velocity": 113, "channel": 0}, {"type": "note_on", "time": 54, "note": 67, "velocity": 107, "channel": 0}, {"type": "note_off", "time": 74, "note": 67, "velocity": 107, "channel": 0}, {"type": "note_on", "time": 89, "note": 69, "velocity": 113, "channel": 0}, {"type": "note_off", "time": 195, "note": 69, "velocity": 113, "channel": 0}, {"type": "note_on", "time": 19, "note": 63, "velocity": 113, "channel": 0}, {"type": "note_off", "time": 210, "note": 63, "velocity": 113, "channel": 0}, {"type": "note_on", "time": 592, "note": 74, "velocity": 124, "channel": 0}, {"type": "note_off", "time": 58, "note": 74, "velocity": 124, "channel": 0}, {"type": "note_on", "time": 15, "note": 75, "velocity": 123, "channel": 0}, {"type": "note_off", "time": 39, "note": 75, "velocity": 123, "channel": 0}, {"type": "note_on", "time": 11, "note": 76, "velocity": 121, "channel": 0}, {"type": "note_off", "time": 42, "note": 76, "velocity": 121, "channel": 0}, {"type": "note_on", "time": 0, "note": 77, "velocity": 127, "channel": 0}, {"type": "note_off", "time": 304, "note": 77, "velocity": 127, "channel": 0}, {"type": "note_on", "time": 0, "note": 76, "velocity": 121, "channel": 0}, {"type": "note_off", "time": 39, "note": 76, "velocity": 121, "channel": 0}, {"type": "note_on", "time": 7, "note": 75, "velocity": 120, "channel": 0}, {"type": "note_off", "time": 39, "note": 75, "velocity": 120, "channel": 0}, {"type": "note_on", "time": 11, "note": 74, "velocity": 120, "channel": 0}, {"type": "note_off", "time": 144, "note": 74, "velocity": 120, "channel": 0}, {"type": "note_on", "time": 74, "note": 73, "velocity": 124, "channel": 0}, {"type": "note_off", "time": 78, "note": 73, "velocity": 124, "channel": 0}, {"type": "note_on", "time": 7, "note": 74, "velocity": 124, "channel": 0}, {"type": "note_off", "time": 66, "note": 74, "velocity": 124, "channel": 0}, {"type": "note_on", "time": 27, "note": 75, "velocity": 124, "channel": 0}, {"type": "note_off", "time": 89, "note": 75, "velocity": 124, "channel": 0}, {"type": "note_on", "time": 27, "note": 74, "velocity": 120, "channel": 0}, {"type": "note_off", "time": 105, "note": 74, "velocity": 120, "channel": 0}, {"type": "note_on", "time": 81, "note": 72, "velocity": 118, "channel": 0}, {"type": "note_off", "time": 202, "note": 72, "velocity": 118, "channel": 0}, {"type": "note_on", "time": 58, "note": 67, "velocity": 106, "channel": 0}, {"type": "note_off", "time": 81, "note": 67, "velocity": 106, "channel": 0}, {"type": "note_on", "time": 109, "note": 70, "velocity": 120, "channel": 0}, {"type": "note_off", "time": 113, "note": 70, "velocity": 120, "channel": 0}, {"type": "note_on", "time": 105, "note": 70, "velocity": 122, "channel": 0}, {"type": "note_off", "time": 78, "note": 70, "velocity": 122, "channel": 0}, {"type": "note_on", "time": 11, "note": 69, "velocity": 119, "channel": 0}, {"type": "note_off", "time": 81, "note": 69, "velocity": 119, "channel": 0}, {"type": "note_on", "time": 280, "note": 77, "velocity": 83, "channel": 0}, {"type": "note_off", "time": 54, "note": 77, "velocity": 83, "channel": 0}, {"type": "note_on", "time": 0, "note": 78, "velocity": 91, "channel": 0}, {"type": "note_off", "time": 19, "note": 78, "velocity": 91, "channel": 0}, {"type": "note_on", "time": 19, "note": 80, "velocity": 120, "channel": 0}, {"type": "note_off", "time": 667, "note": 80, "velocity": 120, "channel": 0}, {"type": "note_on", "time": 23, "note": 79, "velocity": 92, "channel": 0}, {"type": "note_off", "time": 42, "note": 79, "velocity": 92, "channel": 0}, {"type": "note_on", "time": 39, "note": 77, "velocity": 120, "channel": 0}, {"type": "note_off", "time": 101, "note": 77, "velocity": 120, "channel": 0}, {"type": "note_on", "time": 85, "note": 75, "velocity": 126, "channel": 0}, {"type": "note_off", "time": 101, "note": 75, "velocity": 126, "channel": 0}, {"type": "note_on", "time": 46, "note": 73, "velocity": 121, "channel": 0}, {"type": "note_off", "time": 113, "note": 73, "velocity": 121, "channel": 0}, {"type": "note_on", "time": 35, "note": 74, "velocity": 118, "channel": 0}, {"type": "note_off", "time": 113, "note": 74, "velocity": 118, "channel": 0}, {"type": "note_on", "time": 46, "note": 77, "velocity": 122, "channel": 0}, {"type": "note_off", "time": 109, "note": 77, "velocity": 122, "channel": 0}, {"type": "note_on", "time": 46, "note": 74, "velocity": 113, "channel": 0}, {"type": "note_off", "time": 89, "note": 74, "velocity": 113, "channel": 0}, {"type": "note_on", "time": 15, "note": 77, "velocity": 123, "channel": 0}, {"type": "note_off", "time": 70, "note": 77, "velocity": 123, "channel": 0}, {"type": "note_on", "time": 19, "note": 76, "velocity": 120, "channel": 0}, {"type": "note_off", "time": 70, "note": 76, "velocity": 120, "channel": 0}, {"type": "note_on", "time": 7, "note": 75, "velocity": 122, "channel": 0}, {"type": "note_off", "time": 109, "note": 75, "velocity": 122, "channel": 0}, {"type": "note_on", "time": 3, "note": 74, "velocity": 115, "channel": 0}, {"type": "note_off", "time": 58, "note": 74, "velocity": 115, "channel": 0}, {"type": "note_on", "time": 7, "note": 73, "velocity": 122, "channel": 0}, {"type": "note_off", "time": 105, "note": 73, "velocity": 122, "channel": 0}, {"type": "note_on", "time": 19, "note": 74, "velocity": 121, "channel": 0}, {"type": "note_off", "time": 54, "note": 74, "velocity": 121, "channel": 0}, {"type": "note_on", "time": 15, "note": 73, "velocity": 120, "channel": 0}, {"type": "note_off", "time": 105, "note": 73, "velocity": 120, "channel": 0}, {"type": "note_on", "time": 3, "note": 74, "velocity": 122, "channel": 0}, {"type": "note_off", "time": 93, "note": 74, "velocity": 122, "channel": 0}, {"type": "note_on", "time": 0, "note": 73, "velocity": 120, "channel": 0}, {"type": "note_off", "time": 89, "note": 73, "velocity": 120, "channel": 0}, {"type": "note_on", "time": 0, "note": 74, "velocity": 122, "channel": 0}, {"type": "note_off", "time": 89, "note": 74, "velocity": 122, "channel": 0}, {"type": "note_on", "time": 0, "note": 72, "velocity": 118, "channel": 0}, {"type": "note_off", "time": 89, "note": 72, "velocity": 118, "channel": 0}, {"type": "note_on", "time": 62, "note": 67, "velocity": 102, "channel": 0}, {"type": "note_off", "time": 97, "note": 67, "velocity": 102, "channel": 0}, {"type": "note_on", "time": 70, "note": 70, "velocity": 112, "channel": 0}, {"type": "note_off", "time": 210, "note": 70, "velocity": 112, "channel": 0}, {"type": "note_on", "time": 54, "note": 67, "velocity": 112, "channel": 0}, {"type": "note_off", "time": 89, "note": 67, "velocity": 112, "channel": 0}, {"type": "note_on", "time": 109, "note": 73, "velocity": 124, "channel": 0}, {"type": "note_off", "time": 89, "note": 73, "velocity": 124, "channel": 0}, {"type": "note_on", "time": 11, "note": 74, "velocity": 121, "channel": 0}, {"type": "note_off", "time": 58, "note": 74, "velocity": 121, "channel": 0}, {"type": "note_on", "time": 11, "note": 73, "velocity": 121, "channel": 0}, {"type": "note_off", "time": 81, "note": 73, "velocity": 121, "channel": 0}, {"type": "note_on", "time": 7, "note": 74, "velocity": 122, "channel": 0}, {"type": "note_off", "time": 81, "note": 74, "velocity": 122, "channel": 0}, {"type": "note_on", "time": 3, "note": 77, "velocity": 123, "channel": 0}, {"type": "note_off", "time": 113, "note": 77, "velocity": 123, "channel": 0}, {"type": "note_on", "time": 15, "note": 74, "velocity": 121, "channel": 0}, {"type": "note_off", "time": 105, "note": 74, "velocity": 121, "channel": 0}, {"type": "note_on", "time": 74, "note": 70, "velocity": 97, "channel": 0}, {"type": "note_off", "time": 105, "note": 70, "velocity": 97, "channel": 0}, {"type": "note_on", "time": 159, "note": 70, "velocity": 116, "channel": 0}, {"type": "note_off", "time": 78, "note": 70, "velocity": 116, "channel": 0}, {"type": "note_on", "time": 46, "note": 70, "velocity": 115, "channel": 0}, {"type": "note_off", "time": 54, "note": 70, "velocity": 115, "channel": 0}, {"type": "note_on", "time": 0, "note": 69, "velocity": 112, "channel": 0}, {"type": "note_off", "time": 74, "note": 69, "velocity": 112, "channel": 0}, {"type": "note_on", "time": 39, "note": 69, "velocity": 104, "channel": 0}, {"type": "note_off", "time": 85, "note": 69, "velocity": 104, "channel": 0}, {"type": "note_on", "time": 7, "note": 67, "velocity": 111, "channel": 0}, {"type": "note_off", "time": 81, "note": 67, "velocity": 111, "channel": 0}, {"type": "note_on", "time": 113, "note": 65, "velocity": 112, "channel": 0}, {"type": "note_off", "time": 101, "note": 65, "velocity": 112, "channel": 0}, {"type": "end_of_track", "time": 0}]]}