{"ticks_per_beat": 192, "tracks": [[{"type": "track_name", "name": "Melody", "time": 0}, {"type": "set_tempo", "tempo": 224719, "time": 0}, {"type": "time_signature", "numerator": 4, "denominator": 4, "clocks_per_click": 24, "notated_32nd_notes_per_beat": 8, "time": 0}, {"type": "note_on", "time": 5890, "note": 57, "velocity": 96, "channel": 0}, {"type": "note_off", "time": 271, "note": 57, "velocity": 96, "channel": 0}, {"type": "note_on", "time": 9, "note": 62, "velocity": 112, "channel": 0}, {"type": "note_off", "time": 220, "note": 62, "velocity": 112, "channel": 0}, {"type": "note_on", "time": 0, "note": 57, "velocity": 101, "channel": 0}, {"type": "note_off", "time": 168, "note": 57, "velocity": 101, "channel": 0}, {"type": "note_on", "time": 0, "note": 56, "velocity": 100, "channel": 0}, {"type": "note_off", "time": 696, "note": 56, "velocity": 100, "channel": 0}, {"type": "note_on", "time": 138, "note": 55, "velocity": 118, "channel": 0}, {"type": "note_off", "time": 120, "note": 55, "velocity": 118, "channel": 0}, {"type": "note_on", "time": 1, "note": 54, "velocity": 111, "channel": 0}, {"type": "note_off", "time": 83, "note": 54, "velocity": 111, "channel": 0}, {"type": "note_on", "time": 1, "note": 55, "velocity": 111, "channel": 0}, {"type": "note_off", "time": 87, "note": 55, "velocity": 111, "channel": 0}, {"type": "note_on", "time": 1, "note": 57, "velocity": 107, "channel": 0}, {"type": "note_off", "time": 80, "note": 57, "velocity": 107, "channel": 0}, {"type": "note_on", "time": 0, "note": 58, "velocity": 107, "channel": 0}, {"type": "note_off", "time": 71, "note": 58, "velocity": 107, "channel": 0}, {"type": "note_on", "time": 0, "note": 60, "velocity": 119, "channel": 0}, {"type": "note_off", "time": 108, "note": 60, "velocity": 119, "channel": 0}, {"type": "note_on", "time": 1, "note": 61, "velocity": 116, "channel": 0}, {"type": "note_off", "time": 109, "note": 61, "velocity": 116, "channel": 0}, {"type": "note_on", "time": 0, "note": 62, "velocity": 111, "channel": 0}, {"type": "note_off", "time": 73, "note": 62, "velocity": 111, "channel": 0}, {"type": "note_on", "time": 0, "note": 67, "velocity": 112, "channel": 0}, {"type": "note_off", "time": 184, "note": 67, "velocity": 112, "channel": 0}, {"type": "note_on", "time": 109, "note": 62, "velocity": 118, "channel": 0}, {"type": "note_off", "time": 122, "note": 62, "velocity": 118, "channel": 0}, {"type": "note_on", "time": 92, "note": 61, "velocity": 122, "channel": 0}, {"type": "note_off", "time": 127, "note": 61, "velocity": 122, "channel": 0}, {"type": "note_on", "time": 535, "note": 60, "velocity": 121, "channel": 0}, {"type": "note_off", "time": 168, "note": 60, "velocity": 121, "channel": 0}, {"type": "note_on", "time": 94, "note": 59, "velocity": 121, "channel": 0}, {"type": "note_off", "time": 106, "note": 59, "velocity": 121, "channel": 0}, {"type": "note_on", "time": 4, "note": 58, "velocity": 107, "channel": 0}, {"type": "note_off", "time": 91, "note": 58, "velocity": 107, "channel": 0}, {"type": "note_on", "time": 7, "note": 57, "velocity": 104, "channel": 0}, {"type": "note_off", "time": 79, "note": 57, "velocity": 104, "channel": 0}, {"type": "note_on", "time": 4, "note": 56, "velocity": 109, "channel": 0}, {"type": "note_off", "time": 118, "note": 56, "velocity": 109, "channel": 0}, {"type": "note_on", "time": 653, "note": 55, "velocity": 116, "channel": 0}, {"type": "note_off", "time": 121, "note": 55, "velocity": 116, "channel": 0}, {"type": "note_on", "time": 90, "note": 53, "velocity": 112, "channel": 0}, {"type": "note_off", "time": 91, "note": 53, "velocity": 112, "channel": 0}, {"type": "note_on", "time": 18, "note": 55, "velocity": 107, "channel": 0}, {"type": "note_off", "time": 68, "note": 55, "velocity": 107, "channel": 0}, {"type": "note_on", "time": 2, "note": 56, "velocity": 108, "channel": 0}, {"type": "note_off", "time": 74, "note": 56, "velocity": 108, "channel": 0}, {"type": "note_on", "time": 24, "note": 57, "velocity": 101, "channel": 0}, {"type": "note_off", "time": 81, "note": 57, "velocity": 101, "channel": 0}, {"type": "note_on", "time": 4, "note": 58, "velocity": 104, "channel": 0}, {"type": "note_off", "time": 80, "note": 58, "velocity": 104, "channel": 0}, {"type": "note_on", "time": 4, "note": 60, "velocity": 112, "channel": 0}, {"type": "note_off", "time": 79, "note": 60, "velocity": 112, "channel": 0}, {"type": "note_on", "time": 1, "note": 63, "velocity": 108, "channel": 0}, {"type": "note_off", "time": 158, "note": 63, "velocity": 108, "channel": 0}, {"type": "note_on", "time": 57, "note": 62, "velocity": 118, "channel": 0}, {"type": "note_off", "time": 163, "note": 62, "velocity": 118, "channel": 0}, {"type": "note_on", "time": 52, "note": 61, "velocity": 122, "channel": 0}, {"type": "note_off", "time": 89, "note": 61, "velocity": 122, "channel": 0}, {"type": "note_on", "time": 3, "note": 59, "velocity": 113, "channel": 0}, {"type": "note_off", "time": 63, "note": 59, "velocity": 113, "channel": 0}, {"type": "note_on", "time": 417, "note": 60, "velocity": 117, "channel": 0}, {"type": "note_off", "time": 112, "note": 60, "velocity": 117, "channel": 0}, {"type": "note_on", "time": 12, "note": 57, "velocity": 97, "channel": 0}, {"type": "note_off", "time": 35, "note": 57, "velocity": 97, "channel": 0}, {"type": "note_on", "time": 15, "note": 58, "velocity": 109, "channel": 0}, {"type": "note_off", "time": 117, "note": 58, "velocity": 109, "channel": 0}, {"type": "note_on", "time": 274, "note": 57, "velocity": 110, "channel": 0}, {"type": "note_off", "time": 113, "note": 57, "velocity": 110, "channel": 0}, {"type": "note_on", "time": 5, "note": 55, "velocity": 105, "channel": 0}, {"type": "note_off", "time": 76, "note": 55, "velocity": 105, "channel": 0}, {"type": "note_on", "time": 15, "note": 56, "velocity": 112, "channel": 0}, {"type": "note_off", "time": 87, "note": 56, "velocity": 112, "channel": 0}, {"type": "note_on", "time": 3, "note": 54, "velocity": 106, "channel": 0}, {"type": "note_off", "time": 81, "note": 54, "velocity": 106, "channel": 0}, {"type": "note_on", "time": 6, "note": 55, "velocity": 110, "channel": 0}, {"type": "note_off", "time": 80, "note": 55, "velocity": 110, "channel": 0}, {"type": "note_on", "time": 8, "note": 54, "velocity": 115, "channel": 0}, {"type": "note_off", "time": 85, "note": 54, "velocity": 115, "channel": 0}, {"type": "note_on", "time": 6, "note": 53, "velocity": 105, "channel": 0}, {"type": "note_off", "time": 115, "note": 53, "velocity": 105, "channel": 0}, {"type": "note_on", "time": 6, "note": 52, "velocity": 118, "channel": 0}, {"type": "note_off", "time": 97, "note": 52, "velocity": 118, "channel": 0}, {"type": "note_on", "time": 12, "note": 50, "velocity": 96, "channel": 0}, {"type": "note_off", "time": 104, "note": 50, "velocity": 96, "channel": 0}, {"type": "note_on", "time": 54, "note": 51, "velocity": 110, "channel": 0}, {"type": "note_off", "time": 127, "note": 51, "velocity": 110, "channel": 0}, {"type": "note_on", "time": 12, "note": 48, "velocity": 111, "channel": 0}, {"type": "note_off", "time": 95, "note": 48, "velocity": 111, "channel": 0}, {"type": "note_on", "time": 1, "note": 49, "velocity": 113, "channel": 0}, {"type": "note_off", "time": 74, "note": 49, "velocity": 113, "channel": 0}, {"type": "note_on", "time": 5, "note": 51, "velocity": 105, "channel": 0}, {"type": "note_off", "time": 87, "note": 51, "velocity": 105, "channel": 0}, {"type": "note_on", "time": 3, "note": 52, "velocity": 107, "channel": 0}, {"type": "note_off", "time": 83, "note": 52, "velocity": 107, "channel": 0}, {"type": "note_on", "time": 0, "note": 54, "velocity": 108, "channel": 0}, {"type": "note_off", "time": 90, "note": 54, "velocity": 108, "channel": 0}, {"type": "note_on", "time": 0, "note": 55, "velocity": 106, "channel": 0}, {"type": "note_off", "time": 85, "note": 55, "velocity": 106, "channel": 0}, {"type": "note_on", "time": 3, "note": 57, "velocity": 103, "channel": 0}, {"type": "note_off", "time": 85, "note": 57, "velocity": 103, "channel": 0}, {"type": "note_on", "time": 3, "note": 58, "velocity": 106, "channel": 0}, {"type": "note_off", "time": 85, "note": 58, "velocity": 106, "channel": 0}, {"type": "note_on", "time": 0, "note": 60, "velocity": 112, "channel": 0}, {"type": "note_on", "time": 99, "note": 61, "velocity": 123, "channel": 0}, {"type": "note_off", "time": 0, "note": 60, "velocity": 112, "channel": 0}, {"type": "note_off", "time": 115, "note": 61, "velocity": 123, "channel": 0}, {"type": "note_on", "time": 111, "note": 60, "velocity": 114, "channel": 0}, {"type": "note_off", "time": 285, "note": 60, "velocity": 114, "channel": 0}, {"type": "note_on", "time": 0, "note": 55, "velocity": 98, "channel": 0}, {"type": "note_off", "time": 177, "note": 55, "velocity": 98, "channel": 0}, {"type": "note_on", "time": 3, "note": 58, "velocity": 103, "channel": 0}, {"type": "note_off", "time": 190, "note": 58, "velocity": 103, "channel": 0}, {"type": "note_on", "time": 3, "note": 57, "velocity": 104, "channel": 0}, {"type": "note_off", "time": 120, "note": 57, "velocity": 104, "channel": 0}, {"type": "note_on", "time": 0, "note": 56, "velocity": 103, "channel": 0}, {"type": "note_off", "time": 99, "note": 56, "velocity": 103, "channel": 0}, {"type": "note_on", "time": 0, "note": 58, "velocity": 109, "channel": 0}, {"type": "note_off", "time": 62, "note": 58, "velocity": 109, "channel": 0}, {"type": "note_on", "time": 6, "note": 60, "velocity": 107, "channel": 0}, {"type": "note_off", "time": 184, "note": 60, "velocity": 107, "channel": 0}, {"type": "note_on", "time": 6, "note": 55, "velocity": 116, "channel": 0}, {"type": "note_off", "time": 122, "note": 55, "velocity": 116, "channel": 0}, {"type": "note_on", "time": 1, "note": 56, "velocity": 114, "channel": 0}, {"type": "note_off", "time": 90, "note": 56, "velocity": 114, "channel": 0}, {"type": "note_on", "time": 0, "note": 58, "velocity": 109, "channel": 0}, {"type": "note_off", "time": 122, "note": 58, "velocity": 109, "channel": 0}, {"type": "note_on", "time": 85, "note": 53, "velocity": 117, "channel": 0}, {"type": "note_off", "time": 97, "note": 53, "velocity": 117, "channel": 0}, {"type": "note_on", "time": 3, "note": 55, "velocity": 107, "channel": 0}, {"type": "note_off", "time": 104, "note": 55, "velocity": 107, "channel": 0}, {"type": "note_on", "time": 0, "note": 56, "velocity": 107, "channel": 0}, {"type": "note_off", "time": 132, "note": 56, "velocity": 107, "channel": 0}, {"type": "note_on", "time": 48, "note": 52, "velocity": 111, "channel": 0}, {"type": "note_off", "time": 115, "note": 52, "velocity": 111, "channel": 0}, {"type": "note_on", "time": 0, "note": 53, "velocity": 112, "channel": 0}, {"type": "note_off", "time": 50, "note": 53, "velocity": 112, "channel": 0}, {"type": "note_on", "time": 0, "note": 55, "velocity": 116, "channel": 0}, {"type": "note_off", "time": 104, "note": 55, "velocity": 116, "channel": 0}, {"type": "note_on", "time": 0, "note": 53, "velocity": 107, "channel": 0}, {"type": "note_off", "time": 251, "note": 53, "velocity": 107, "channel": 0}, {"type": "note_on", "time": 687, "note": 48, "velocity": 108, "channel": 0}, {"type": "note_off", "time": 97, "note": 48, "velocity": 108, "channel": 0}, {"type": "note_on", "time": 11, "note": 51, "velocity": 108, "channel": 0}, {"type": "note_off", "time": 83, "note": 51, "velocity": 108, "channel": 0}, {"type": "note_on", "time": 13, "note": 55, "velocity": 108, "channel": 0}, {"type": "note_off", "time": 90, "note": 55, "velocity": 108, "channel": 0}, {"type": "note_on", "time": 20, "note": 50, "velocity": 100, "channel": 0}, {"type": "note_off", "time": 66, "note": 50, "velocity": 100, "channel": 0}, {"type": "note_on", "time": 92, "note": 56, "velocity": 115, "channel": 0}, {"type": "note_off", "time": 95, "note": 56, "velocity": 115, "channel": 0}, {"type": "note_on", "time": 1, "note": 57, "velocity": 111, "channel": 0}, {"type": "note_off", "time": 90, "note": 57, "velocity": 111, "channel": 0}, {"type": "note_on", "time": 6, "note": 58, "velocity": 112, "channel": 0}, {"type": "note_off", "time": 221, "note": 58, "velocity": 112, "channel": 0}, {"type": "note_on", "time": 5, "note": 56, "velocity": 115, "channel": 0}, {"type": "note_off", "time": 108, "note": 56, "velocity": 115, "channel": 0}, {"type": "note_on", "time": 824, "note": 58, "velocity": 121, "channel": 0}, {"type": "note_off", "time": 136, "note": 58, "velocity": 121, "channel": 0}, {"type": "note_on", "time": 3, "note": 55, "velocity": 114, "channel": 0}, {"type": "note_off", "time": 95, "note": 55, "velocity": 114, "channel": 0}, {"type": "note_on", "time": 3, "note": 56, "velocity": 113, "channel": 0}, {"type": "note_off", "time": 69, "note": 56, "velocity": 113, "channel": 0}, {"type": "note_on", "time": 0, "note": 58, "velocity": 117, "channel": 0}, {"type": "note_off", "time": 81, "note": 58, "velocity": 117, "channel": 0}, {"type": "note_on", "time": 13, "note": 59, "velocity": 101, "channel": 0}, {"type": "note_off", "time": 73, "note": 59, "velocity": 101, "channel": 0}, {"type": "note_on", "time": 8, "note": 61, "velocity": 102, "channel": 0}, {"type": "note_off", "time": 136, "note": 61, "velocity": 102, "channel": 0}, {"type": "note_on", "time": 10, "note": 63, "velocity": 119, "channel": 0}, {"type": "note_off", "time": 69, "note": 63, "velocity": 119, "channel": 0}, {"type": "note_on", "time": 5, "note": 64, "velocity": 112, "channel": 0}, {"type": "note_off", "time": 68, "note": 64, "velocity": 112, "channel": 0}, {"type": "note_on", "time": 0, "note": 65, "velocity": 108, "channel": 0}, {"type": "note_off", "time": 92, "note": 65, "velocity": 108, "channel": 0}, {"type": "note_on", "time": 15, "note": 67, "velocity": 108, "channel": 0}, {"type": "note_off", "time": 85, "note": 67, "velocity": 108, "channel": 0}, {"type": "note_on", "time": 0, "note": 68, "velocity": 110, "channel": 0}, {"type": "note_off", "time": 134, "note": 68, "velocity": 110, "channel": 0}, {"type": "note_on", "time": 0, "note": 64, "velocity": 102, "channel": 0}, {"type": "note_off", "time": 50, "note": 64, "velocity": 102, "channel": 0}, {"type": "note_on", "time": 0, "note": 67, "velocity": 119, "channel": 0}, {"type": "note_off", "time": 160, "note": 67, "velocity": 119, "channel": 0}, {"type": "note_on", "time": 0, "note": 64, "velocity": 96, "channel": 0}, {"type": "note_off", "time": 40, "note": 64, "velocity": 96, "channel": 0}, {"type": "note_on", "time": 31, "note": 65, "velocity": 108, "channel": 0}, {"type": "note_off", "time": 87, "note": 65, "velocity": 108, "channel": 0}, {"type": "note_on", "time": 5, "note": 67, "velocity": 121, "channel": 0}, {"type": "note_off", "time": 108, "note": 67, "velocity": 121, "channel": 0}, {"type": "note_on", "time": 17, "note": 68, "velocity": 107, "channel": 0}, {"type": "note_off", "time": 66, "note": 68, "velocity": 107, "channel": 0}, {"type": "note_on", "time": 6, "note": 70, "velocity": 108, "channel": 0}, {"type": "note_off", "time": 88, "note": 70, "velocity": 108, "channel": 0}, {"type": "note_on", "time": 15, "note": 71, "velocity": 108, "channel": 0}, {"type": "note_off", "time": 85, "note": 71, "velocity": 108, "channel": 0}, {"type": "note_on", "time": 0, "note": 72, "velocity": 116, "channel": 0}, {"type": "note_off", "time": 108, "note": 72, "velocity": 116, "channel": 0}, {"type": "note_on", "time": 3, "note": 73, "velocity": 110, "channel": 0}, {"type": "note_off", "time": 94, "note": 73, "velocity": 110, "channel": 0}, {"type": "note_on", "time": 1, "note": 74, "velocity": 104, "channel": 0}, {"type": "note_off", "time": 160, "note": 74, "velocity": 104, "channel": 0}, {"type": "note_on", "time": 10, "note": 73, "velocity": 117, "channel": 0}, {"type": "note_off", "time": 90, "note": 73, "velocity": 117, "channel": 0}, {"type": "note_on", "time": 3, "note": 72, "velocity": 115, "channel": 0}, {"type": "note_off", "time": 52, "note": 72, "velocity": 115, "channel": 0}, {"type": "note_on", "time": 15, "note": 71, "velocity": 104, "channel": 0}, {"type": "note_off", "time": 55, "note": 71, "velocity": 104, "channel": 0}, {"type": "note_on", "time": 0, "note": 70, "velocity": 120, "channel": 0}, {"type": "note_off", "time": 94, "note": 70, "velocity": 120, "channel": 0}, {"type": "note_on", "time": 5, "note": 69, "velocity": 111, "channel": 0}, {"type": "note_off", "time": 83, "note": 69, "velocity": 111, "channel": 0}, {"type": "note_on", "time": 3, "note": 68, "velocity": 115, "channel": 0}, {"type": "note_on", "time": 123, "note": 67, "velocity": 104, "channel": 0}, {"type": "note_off", "time": 0, "note": 68, "velocity": 115, "channel": 0}, {"type": "note_off", "time": 68, "note": 67, "velocity": 104, "channel": 0}, {"type": "note_on", "time": 0, "note": 66, "velocity": 117, "channel": 0}, {"type": "note_off", "time": 127, "note": 66, "velocity": 117, "channel": 0}, {"type": "note_on", "time": 1, "note": 65, "velocity": 111, "channel": 0}, {"type": "note_off", "time": 73, "note": 65, "velocity": 111, "channel": 0}, {"type": "note_on", "time": 0, "note": 64, "velocity": 113, "channel": 0}, {"type": "note_off", "time": 88, "note": 64, "velocity": 113, "channel": 0}, {"type": "note_on", "time": 0, "note": 63, "velocity": 115, "channel": 0}, {"type": "note_off", "time": 123, "note": 63, "velocity": 115, "channel": 0}, {"type": "note_on", "time": 1, "note": 68, "velocity": 114, "channel": 0}, {"type": "note_off", "time": 74, "note": 68, "velocity": 114, "channel": 0}, {"type": "note_on", "time": 0, "note": 62, "velocity": 116, "channel": 0}, {"type": "note_off", "time": 139, "note": 62, "velocity": 116, "channel": 0}, {"type": "note_on", "time": 54, "note": 62, "velocity": 123, "channel": 0}, {"type": "note_off", "time": 172, "note": 62, "velocity": 123, "channel": 0}, {"type": "note_on", "time": 29, "note": 62, "velocity": 122, "channel": 0}, {"type": "note_off", "time": 116, "note": 62, "velocity": 122, "channel": 0}, {"type": "note_on", "time": 6, "note": 60, "velocity": 113, "channel": 0}, {"type": "note_off", "time": 81, "note": 60, "velocity": 113, "channel": 0}, {"type": "note_on", "time": 0, "note": 61, "velocity": 120, "channel": 0}, {"type": "note_off", "time": 83, "note": 61, "velocity": 120, "channel": 0}, {"type": "note_on", "time": 0, "note": 64, "velocity": 119, "channel": 0}, {"type": "note_off", "time": 92, "note": 64, "velocity": 119, "channel": 0}, {"type": "note_on", "time": 0, "note": 63, "velocity": 120, "channel": 0}, {"type": "note_off", "time": 112, "note": 63, "velocity": 120, "channel": 0}, {"type": "note_on", "time": 0, "note": 61, "velocity": 126, "channel": 0}, {"type": "note_off", "time": 104, "note": 61, "velocity": 126, "channel": 0}, {"type": "note_on", "time": 3, "note": 60, "velocity": 101, "channel": 0}, {"type": "note_off", "time": 59, "note": 60, "velocity": 101, "channel": 0}, {"type": "note_on", "time": 12, "note": 58, "velocity": 122, "channel": 0}, {"type": "note_off", "time": 142, "note": 58, "velocity": 122, "channel": 0}, {"type": "note_on", "time": 5, "note": 57, "velocity": 105, "channel": 0}, {"type": "note_off", "time": 67, "note": 57, "velocity": 105, "channel": 0}, {"type": "note_on", "time": 6, "note": 55, "velocity": 99, "channel": 0}, {"type": "note_off", "time": 75, "note": 55, "velocity": 99, "channel": 0}, {"type": "note_on", "time": 20, "note": 56, "velocity": 123, "channel": 0}, {"type": "note_off", "time": 115, "note": 56, "velocity": 123, "channel": 0}, {"type": "note_on", "time": 0, "note": 52, "velocity": 113, "channel": 0}, {"type": "note_off", "time": 74, "note": 52, "velocity": 113, "channel": 0}, {"type": "note_on", "time": 0, "note": 54, "velocity": 107, "channel": 0}, {"type": "note_off", "time": 92, "note": 54, "velocity": 107, "channel": 0}, {"type": "note_on", "time": 6, "note": 57, "velocity": 113, "channel": 0}, {"type": "note_off", "time": 91, "note": 57, "velocity": 113, "channel": 0}, {"type": "note_on", "time": 1, "note": 56, "velocity": 119, "channel": 0}, {"type": "note_off", "time": 104, "note": 56, "velocity": 119, "channel": 0}, {"type": "note_on", "time": 0, "note": 54, "velocity": 116, "channel": 0}, {"type": "note_off", "time": 100, "note": 54, "velocity": 116, "channel": 0}, {"type": "note_on", "time": 0, "note": 53, "velocity": 116, "channel": 0}, {"type": "note_off", "time": 82, "note": 53, "velocity": 116, "channel": 0}, {"type": "note_on", "time": 0, "note": 54, "velocity": 119, "channel": 0}, {"type": "note_off", "time": 119, "note": 54, "velocity": 119, "channel": 0}, {"type": "note_on", "time": 0, "note": 56, "velocity": 117, "channel": 0}, {"type": "note_off", "time": 107, "note": 56, "velocity": 117, "channel": 0}, {"type": "note_on", "time": 3, "note": 57, "velocity": 116, "channel": 0}, {"type": "note_off", "time": 69, "note": 57, "velocity": 116, "channel": 0}, {"type": "note_on", "time": 0, "note": 58, "velocity": 111, "channel": 0}, {"type": "note_off", "time": 86, "note": 58, "velocity": 111, "channel": 0}, {"type": "note_on", "time": 4, "note": 60, "velocity": 109, "channel": 0}, {"type": "note_off", "time": 96, "note": 60, "velocity": 109, "channel": 0}, {"type": "note_on", "time": 1, "note": 62, "velocity": 114, "channel": 0}, {"type": "note_off", "time": 95, "note": 62, "velocity": 114, "channel": 0}, {"type": "note_on", "time": 2, "note": 63, "velocity": 119, "channel": 0}, {"type": "note_off", "time": 120, "note": 63, "velocity": 119, "channel": 0}, {"type": "note_on", "time": 85, "note": 59, "velocity": 101, "channel": 0}, {"type": "note_off", "time": 79, "note": 59, "velocity": 101, "channel": 0}, {"type": "note_on", "time": 0, "note": 62, "velocity": 122, "channel": 0}, {"type": "note_off", "time": 129, "note": 62, "velocity": 122, "channel": 0}, {"type": "note_on", "time": 0, "note": 61, "velocity": 123, "channel": 0}, {"type": "note_off", "time": 95, "note": 61, "velocity": 123, "channel": 0}, {"type": "note_on", "time": 3, "note": 60, "velocity": 115, "channel": 0}, {"type": "note_off", "time": 78, "note": 60, "velocity": 115, "channel": 0}, {"type": "note_on", "time": 0, "note": 59, "velocity": 115, "channel": 0}, {"type": "note_off", "time": 96, "note": 59, "velocity": 115, "channel": 0}, {"type": "note_on", "time": 0, "note": 58, "velocity": 113, "channel": 0}, {"type": "note_off", "time": 74, "note": 58, "velocity": 113, "channel": 0}, {"type": "note_on", "time": 0, "note": 56, "velocity": 118, "channel": 0}, {"type": "note_off", "time": 104, "note": 56, "velocity": 118, "channel": 0}, {"type": "note_on", "time": 1, "note": 55, "velocity": 116, "channel": 0}, {"type": "note_off", "time": 64, "note": 55, "velocity": 116, "channel": 0}, {"type": "note_on", "time": 31, "note": 54, "velocity": 117, "channel": 0}, {"type": "note_off", "time": 115, "note": 54, "velocity": 117, "channel": 0}, {"type": "note_on", "time": 2, "note": 53, "velocity": 113, "channel": 0}, {"type": "note_off", "time": 95, "note": 53, "velocity": 113, "channel": 0}, {"type": "note_on", "time": 2, "note": 52, "velocity": 108, "channel": 0}, {"type": "note_off", "time": 77, "note": 52, "velocity": 108, "channel": 0}, {"type": "note_on", "time": 6, "note": 51, "velocity": 111, "channel": 0}, {"type": "note_off", "time": 136, "note": 51, "velocity": 111, "channel": 0}, {"type": "note_on", "time": 66, "note": 51, "velocity": 108, "channel": 0}, {"type": "note_off", "time": 107, "note": 51, "velocity": 108, "channel": 0}, {"type": "note_on", "time": 23, "note": 56, "velocity": 117, "channel": 0}, {"type": "note_off", "time": 116, "note": 56, "velocity": 117, "channel": 0}, {"type": "note_on", "time": 0, "note": 52, "velocity": 111, "channel": 0}, {"type": "note_off", "time": 131, "note": 52, "velocity": 111, "channel": 0}, {"type": "note_on", "time": 23, "note": 52, "velocity": 113, "channel": 0}, {"type": "note_off", "time": 109, "note": 52, "velocity": 113, "channel": 0}, {"type": "note_on", "time": 8, "note": 56, "velocity": 116, "channel": 0}, {"type": "note_off", "time": 91, "note": 56, "velocity": 116, "channel": 0}, {"type": "note_on", "time": 2, "note": 53, "velocity": 114, "channel": 0}, {"type": "note_off", "time": 131, "note": 53, "velocity": 114, "channel": 0}, {"type": "note_on", "time": 57, "note": 53, "velocity": 109, "channel": 0}, {"type": "note_off", "time": 111, "note": 53, "velocity": 109, "channel": 0}, {"type": "note_on", "time": 0, "note": 57, "velocity": 109, "channel": 0}, {"type": "note_off", "time": 68, "note": 57, "velocity": 109, "channel": 0}, {"type": "note_on", "time": 9, "note": 54, "velocity": 112, "channel": 0}, {"type": "note_off", "time": 142, "note": 54, "velocity": 112, "channel": 0}, {"type": "note_on", "time": 58, "note": 54, "velocity": 114, "channel": 0}, {"type": "note_off", "time": 95, "note": 54, "velocity": 114, "channel": 0}, {"type": "note_on", "time": 6, "note": 58, "velocity": 116, "channel": 0}, {"type": "note_off", "time": 102, "note": 58, "velocity": 116, "channel": 0}, {"type": "note_on", "time": 9, "note": 55, "velocity": 112, "channel": 0}, {"type": "note_off", "time": 85, "note": 55, "velocity": 112, "channel": 0}, {"type": "note_on", "time": 0, "note": 59, "velocity": 119, "channel": 0}, {"type": "note_off", "time": 135, "note": 59, "velocity": 119, "channel": 0}, {"type": "note_on", "time": 54, "note": 56, "velocity": 116, "channel": 0}, {"type": "note_off", "time": 117, "note": 56, "velocity": 116, "channel": 0}, {"type": "note_on", "time": 69, "note": 60, "velocity": 118, "channel": 0}, {"type": "note_off", "time": 151, "note": 60, "velocity": 118, "channel": 0}, {"type": "note_on", "time": 66, "note": 56, "velocity": 100, "channel": 0}, {"type": "note_off", "time": 70, "note": 56, "velocity": 100, "channel": 0}, {"type": "note_on", "time": 1, "note": 59, "velocity": 118, "channel": 0}, {"type": "note_off", "time": 163, "note": 59, "velocity": 118, "channel": 0}, {"type": "note_on", "time": 60, "note": 56, "velocity": 112, "channel": 0}, {"type": "note_off", "time": 97, "note": 56, "velocity": 112, "channel": 0}, {"type": "note_on", "time": 4, "note": 57, "velocity": 113, "channel": 0}, {"type": "note_off", "time": 81, "note": 57, "velocity": 113, "channel": 0}, {"type": "note_on", "time": 1, "note": 58, "velocity": 114, "channel": 0}, {"type": "note_off", "time": 88, "note": 58, "velocity": 114, "channel": 0}, {"type": "note_on", "time": 2, "note": 59, "velocity": 114, "channel": 0}, {"type": "note_off", "time": 88, "note": 59, "velocity": 114, "channel": 0}, {"type": "note_on", "time": 3, "note": 60, "velocity": 114, "channel": 0}, {"type": "note_off", "time": 80, "note": 60, "velocity": 114, "channel": 0}, {"type": "note_on", "time": 1, "note": 61, "velocity": 123, "channel": 0}, {"type": "note_off", "time": 78, "note": 61, "velocity": 123, "channel": 0}, {"type": "note_on", "time": 8, "note": 62, "velocity": 114, "channel": 0}, {"type": "note_off", "time": 132, "note": 62, "velocity": 114, "channel": 0}, {"type": "note_on", "time": 77, "note": 63, "velocity": 107, "channel": 0}, {"type": "note_off", "time": 357, "note": 63, "velocity": 107, "channel": 0}, {"type": "note_on", "time": 13, "note": 62, "velocity": 118, "channel": 0}, {"type": "note_off", "time": 277, "note": 62, "velocity": 118, "channel": 0}, {"type": "note_on", "time": 1, "note": 61, "velocity": 125, "channel": 0}, {"type": "note_off", "time": 277, "note": 61, "velocity": 125, "channel": 0}, {"type": "note_on", "time": 629, "note": 62, "velocity": 124, "channel": 0}, {"type": "note_off", "time": 148, "note": 62, "velocity": 124, "channel": 0}, {"type": "note_on", "time": 40, "note": 62, "velocity": 119, "channel": 0}, {"type": "note_off", "time": 122, "note": 62, "velocity": 119, "channel": 0}, {"type": "note_on", "time": 1, "note": 60, "velocity": 103, "channel": 0}, {"type": "note_off", "time": 90, "note": 60, "velocity": 103, "channel": 0}, {"type": "note_on", "time": 3, "note": 61, "velocity": 122, "channel": 0}, {"type": "note_off", "time": 97, "note": 61, "velocity": 122, "channel": 0}, {"type": "note_on", "time": 10, "note": 59, "velocity": 102, "channel": 0}, {"type": "note_off", "time": 54, "note": 59, "velocity": 102, "channel": 0}, {"type": "note_on", "time": 3, "note": 60, "velocity": 121, "channel": 0}, {"type": "note_off", "time": 106, "note": 60, "velocity": 121, "channel": 0}, {"type": "note_on", "time": 6, "note": 59, "velocity": 114, "channel": 0}, {"type": "note_off", "time": 85, "note": 59, "velocity": 114, "channel": 0}, {"type": "note_on", "time": 17, "note": 58, "velocity": 104, "channel": 0}, {"type": "note_off", "time": 59, "note": 58, "velocity": 104, "channel": 0}, {"type": "note_on", "time": 228, "note": 67, "velocity": 106, "channel": 0}, {"type": "note_off", "time": 191, "note": 67, "velocity": 106, "channel": 0}, {"type": "note_on", "time": 12, "note": 66, "velocity": 102, "channel": 0}, {"type": "note_off", "time": 57, "note": 66, "velocity": 102, "channel": 0}, {"type": "note_on", "time": 5, "note": 67, "velocity": 114, "channel": 0}, {"type": "note_off", "time": 197, "note": 67, "velocity": 114, "channel": 0}, {"type": "note_on", "time": 212, "note": 66, "velocity": 108, "channel": 0}, {"type": "note_off", "time": 146, "note": 66, "velocity": 108, "channel": 0}, {"type": "note_on", "time": 32, "note": 65, "velocity": 108, "channel": 0}, {"type": "note_off", "time": 144, "note": 65, "velocity": 108, "channel": 0}, {"type": "note_on", "time": 143, "note": 63, "velocity": 114, "channel": 0}, {"type": "note_off", "time": 177, "note": 63, "velocity": 114, "channel": 0}, {"type": "note_on", "time": 10, "note": 63, "velocity": 119, "channel": 0}, {"type": "note_off", "time": 97, "note": 63, "velocity": 119, "channel": 0}, {"type": "note_on", "time": 10, "note": 61, "velocity": 116, "channel": 0}, {"type": "note_off", "time": 101, "note": 61, "velocity": 116, "channel": 0}, {"type": "note_on", "time": 659, "note": 62, "velocity": 118, "channel": 0}, {"type": "note_off", "time": 130, "note": 62, "velocity": 118, "channel": 0}, {"type": "note_on", "time": 0, "note": 60, "velocity": 109, "channel": 0}, {"type": "note_off", "time": 64, "note": 60, "velocity": 109, "channel": 0}, {"type": "note_on", "time": 1, "note": 61, "velocity": 119, "channel": 0}, {"type": "note_off", "time": 102, "note": 61, "velocity": 119, "channel": 0}, {"type": "note_on", "time": 0, "note": 63, "velocity": 115, "channel": 0}, {"type": "note_off", "time": 106, "note": 63, "velocity": 115, "channel": 0}, {"type": "note_on", "time": 0, "note": 64, "velocity": 101, "channel": 0}, {"type": "note_off", "time": 62, "note": 64, "velocity": 101, "channel": 0}, {"type": "note_on", "time": 13, "note": 66, "velocity": 105, "channel": 0}, {"type": "note_off", "time": 76, "note": 66, "velocity": 105, "channel": 0}, {"type": "note_on", "time": 33, "note": 67, "velocity": 101, "channel": 0}, {"type": "note_off", "time": 74, "note": 67, "velocity": 101, "channel": 0}, {"type": "note_on", "time": 0, "note": 69, "velocity": 109, "channel": 0}, {"type": "note_off", "time": 120, "note": 69, "velocity": 109, "channel": 0}, {"type": "note_on", "time": 1, "note": 70, "velocity": 105, "channel": 0}, {"type": "note_off", "time": 92, "note": 70, "velocity": 105, "channel": 0}, {"type": "note_on", "time": 3, "note": 72, "velocity": 98, "channel": 0}, {"type": "note_off", "time": 68, "note": 72, "velocity": 98, "channel": 0}, {"type": "note_on", "time": 13, "note": 73, "velocity": 113, "channel": 0}, {"type": "note_off", "time": 123, "note": 73, "velocity": 113, "channel": 0}, {"type": "note_on", "time": 8, "note": 70, "velocity": 93, "channel": 0}, {"type": "note_off", "time": 64, "note": 70, "velocity": 93, "channel": 0}, {"type": "note_on", "time": 6, "note": 72, "velocity": 105, "channel": 0}, {"type": "note_off", "time": 94, "note": 72, "velocity": 105, "channel": 0}, {"type": "note_on", "time": 0, "note": 67, "velocity": 113, "channel": 0}, {"type": "note_off", "time": 108, "note": 67, "velocity": 113, "channel": 0}, {"type": "note_on", "time": 6, "note": 64, "velocity": 101, "channel": 0}, {"type": "note_off", "time": 95, "note": 64, "velocity": 101, "channel": 0}, {"type": "note_on", "time": 5, "note": 60, "velocity": 98, "channel": 0}, {"type": "note_off", "time": 59, "note": 60, "velocity": 98, "channel": 0}, {"type": "note_on", "time": 24, "note": 70, "velocity": 113, "channel": 0}, {"type": "note_off", "time": 83, "note": 70, "velocity": 113, "channel": 0}, {"type": "note_on", "time": 12, "note": 60, "velocity": 98, "channel": 0}, {"type": "note_off", "time": 43, "note": 60, "velocity": 98, "channel": 0}, {"type": "note_on", "time": 31, "note": 65, "velocity": 100, "channel": 0}, {"type": "note_off", "time": 71, "note": 65, "velocity": 100, "channel": 0}, {"type": "note_on", "time": 17, "note": 70, "velocity": 110, "channel": 0}, {"type": "note_off", "time": 83, "note": 70, "velocity": 110, "channel": 0}, {"type": "note_on", "time": 8, "note": 69, "velocity": 107, "channel": 0}, {"type": "note_off", "time": 78, "note": 69, "velocity": 107, "channel": 0}, {"type": "note_on", "time": 10, "note": 66, "velocity": 101, "channel": 0}, {"type": "note_off", "time": 90, "note": 66, "velocity": 101, "channel": 0}, {"type": "note_on", "time": 10, "note": 65, "velocity": 98, "channel": 0}, {"type": "note_off", "time": 78, "note": 65, "velocity": 98, "channel": 0}, {"type": "note_on", "time": 6, "note": 63, "velocity": 119, "channel": 0}, {"type": "note_off", "time": 108, "note": 63, "velocity": 119, "channel": 0}, {"type": "note_on", "time": 3, "note": 62, "velocity": 111, "channel": 0}, {"type": "note_off", "time": 87, "note": 62, "velocity": 111, "channel": 0}, {"type": "note_on", "time": 8, "note": 60, "velocity": 110, "channel": 0}, {"type": "note_off", "time": 78, "note": 60, "velocity": 110, "channel": 0}, {"type": "note_on", "time": 5, "note": 59, "velocity": 113, "channel": 0}, {"type": "note_off", "time": 104, "note": 59, "velocity": 113, "channel": 0}, {"type": "note_on", "time": 8, "note": 58, "velocity": 110, "channel": 0}, {"type": "note_off", "time": 76, "note": 58, "velocity": 110, "channel": 0}, {"type": "note_on", "time": 596, "note": 57, "velocity": 107, "channel": 0}, {"type": "note_off", "time": 97, "note": 57, "velocity": 107, "channel": 0}, {"type": "note_on", "time": 5, "note": 55, "velocity": 106, "channel": 0}, {"type": "note_off", "time": 92, "note": 55, "velocity": 106, "channel": 0}, {"type": "note_on", "time": 5, "note": 56, "velocity": 107, "channel": 0}, {"type": "note_off", "time": 61, "note": 56, "velocity": 107, "channel": 0}, {"type": "note_on", "time": 5, "note": 59, "velocity": 115, "channel": 0}, {"type": "note_off", "time": 92, "note": 59, "velocity": 115, "channel": 0}, {"type": "note_on", "time": 12, "note": 58, "velocity": 110, "channel": 0}, {"type": "note_off", "time": 102, "note": 58, "velocity": 110, "channel": 0}, {"type": "note_on", "time": 5, "note": 56, "velocity": 117, "channel": 0}, {"type": "note_off", "time": 92, "note": 56, "velocity": 117, "channel": 0}, {"type": "note_on", "time": 1, "note": 55, "velocity": 104, "channel": 0}, {"type": "note_off", "time": 85, "note": 55, "velocity": 104, "channel": 0}, {"type": "note_on", "time": 8, "note": 54, "velocity": 113, "channel": 0}, {"type": "note_off", "time": 101, "note": 54, "velocity": 113, "channel": 0}, {"type": "note_on", "time": 3, "note": 53, "velocity": 96, "channel": 0}, {"type": "note_off", "time": 68, "note": 53, "velocity": 96, "channel": 0}, {"type": "note_on", "time": 6, "note": 52, "velocity": 118, "channel": 0}, {"type": "note_off", "time": 130, "note": 52, "velocity": 118, "channel": 0}, {"type": "note_on", "time": 3, "note": 50, "velocity": 104, "channel": 0}, {"type": "note_off", "time": 122, "note": 50, "velocity": 104, "channel": 0}, {"type": "note_on", "time": 40, "note": 54, "velocity": 113, "channel": 0}, {"type": "note_off", "time": 120, "note": 54, "velocity": 113, "channel": 0}, {"type": "note_on", "time": 4, "note": 51, "velocity": 103, "channel": 0}, {"type": "note_off", "time": 50, "note": 51, "velocity": 103, "channel": 0}, {"type": "note_on", "time": 9, "note": 51, "velocity": 100, "channel": 0}, {"type": "note_off", "time": 57, "note": 51, "velocity": 100, "channel": 0}, {"type": "note_on", "time": 26, "note": 55, "velocity": 115, "channel": 0}, {"type": "note_off", "time": 99, "note": 55, "velocity": 115, "channel": 0}, {"type": "note_on", "time": 3, "note": 54, "velocity": 116, "channel": 0}, {"type": "note_off", "time": 115, "note": 54, "velocity": 116, "channel": 0}, {"type": "note_on", "time": 5, "note": 51, "velocity": 103, "channel": 0}, {"type": "note_off", "time": 48, "note": 51, "velocity": 103, "channel": 0}, {"type": "note_on", "time": 48, "note": 51, "velocity": 105, "channel": 0}, {"type": "note_off", "time": 94, "note": 51, "velocity": 105, "channel": 0}, {"type": "note_on", "time": 0, "note": 52, "velocity": 100, "channel": 0}, {"type": "note_off", "time": 90, "note": 52, "velocity": 100, "channel": 0}, {"type": "note_on", "time": 3, "note": 55, "velocity": 104, "channel": 0}, {"type": "note_off", "time": 90, "note": 55, "velocity": 104, "channel": 0}, {"type": "note_on", "time": 0, "note": 56, "velocity": 112, "channel": 0}, {"type": "note_off", "time": 123, "note": 56, "velocity": 112, "channel": 0}, {"type": "note_on", "time": 0, "note": 52, "velocity": 110, "channel": 0}, {"type": "note_off", "time": 78, "note": 52, "velocity": 110, "channel": 0}, {"type": "note_on", "time": 5, "note": 53, "velocity": 105, "channel": 0}, {"type": "note_off", "time": 109, "note": 53, "velocity": 105, "channel": 0}, {"type": "note_on", "time": 6, "note": 56, "velocity": 106, "channel": 0}, {"type": "note_off", "time": 87, "note": 56, "velocity": 106, "channel": 0}, {"type": "note_on", "time": 1, "note": 57, "velocity": 110, "channel": 0}, {"type": "note_off", "time": 101, "note": 57, "velocity": 110, "channel": 0}, {"type": "note_on", "time": 3, "note": 53, "velocity": 107, "channel": 0}, {"type": "note_off", "time": 73, "note": 53, "velocity": 107, "channel": 0}, {"type": "note_on", "time": 1, "note": 54, "velocity": 109, "channel": 0}, {"type": "note_off", "time": 88, "note": 54, "velocity": 109, "channel": 0}, {"type": "note_on", "time": 12, "note": 57, "velocity": 96, "channel": 0}, {"type": "note_off", "time": 88, "note": 57, "velocity": 96, "channel": 0}, {"type": "note_on", "time": 3, "note": 58, "velocity": 111, "channel": 0}, {"type": "note_off", "time": 120, "note": 58, "velocity": 111, "channel": 0}, {"type": "note_on", "time": 3, "note": 54, "velocity": 97, "channel": 0}, {"type": "note_off", "time": 95, "note": 54, "velocity": 97, "channel": 0}, {"type": "note_on", "time": 467, "note": 59, "velocity": 118, "channel": 0}, {"type": "note_off", "time": 120, "note": 59, "velocity": 118, "channel": 0}, {"type": "note_on", "time": 34, "note": 55, "velocity": 107, "channel": 0}, {"type": "note_off", "time": 61, "note": 55, "velocity": 107, "channel": 0}, {"type": "note_on", "time": 12, "note": 56, "velocity": 102, "channel": 0}, {"type": "note_off", "time": 69, "note": 56, "velocity": 102, "channel": 0}, {"type": "note_on", "time": 19, "note": 59, "velocity": 102, "channel": 0}, {"type": "note_off", "time": 87, "note": 59, "velocity": 102, "channel": 0}, {"type": "note_on", "time": 3, "note": 60, "velocity": 114, "channel": 0}, {"type": "note_off", "time": 97, "note": 60, "velocity": 114, "channel": 0}, {"type": "note_on", "time": 0, "note": 61, "velocity": 127, "channel": 0}, {"type": "note_off", "time": 108, "note": 61, "velocity": 127, "channel": 0}, {"type": "note_on", "time": 204, "note": 57, "velocity": 111, "channel": 0}, {"type": "note_off", "time": 113, "note": 57, "velocity": 111, "channel": 0}, {"type": "note_on", "time": 69, "note": 60, "velocity": 116, "channel": 0}, {"type": "note_off", "time": 130, "note": 60, "velocity": 116, "channel": 0}, {"type": "note_on", "time": 31, "note": 58, "velocity": 107, "channel": 0}, {"type": "note_off", "time": 96, "note": 58, "velocity": 107, "channel": 0}, {"type": "note_on", "time": 2, "note": 60, "velocity": 119, "channel": 0}, {"type": "note_off", "time": 104, "note": 60, "velocity": 119, "channel": 0}, {"type": "note_on", "time": 0, "note": 61, "velocity": 116, "channel": 0}, {"type": "note_off", "time": 108, "note": 61, "velocity": 116, "channel": 0}, {"type": "note_on", "time": 5, "note": 62, "velocity": 112, "channel": 0}, {"type": "note_on", "time": 59, "note": 65, "velocity": 117, "channel": 0}, {"type": "note_off", "time": 0, "note": 62, "velocity": 112, "channel": 0}, {"type": "note_off", "time": 116, "note": 65, "velocity": 117, "channel": 0}, {"type": "note_on", "time": 5, "note": 62, "velocity": 119, "channel": 0}, {"type": "note_off", "time": 102, "note": 62, "velocity": 119, "channel": 0}, {"type": "note_on", "time": 10, "note": 58, "velocity": 107, "channel": 0}, {"type": "note_off", "time": 85, "note": 58, "velocity": 107, "channel": 0}, {"type": "note_on", "time": 1, "note": 55, "velocity": 102, "channel": 0}, {"type": "note_off", "time": 74, "note": 55, "velocity": 102, "channel": 0}, {"type": "note_on", "time": 5, "note": 60, "velocity": 119, "channel": 0}, {"type": "note_off", "time": 156, "note": 60, "velocity": 119, "channel": 0}, {"type": "note_on", "time": 48, "note": 58, "velocity": 109, "channel": 0}, {"type": "note_off", "time": 74, "note": 58, "velocity": 109, "channel": 0}, {"type": "note_on", "time": 1, "note": 60, "velocity": 118, "channel": 0}, {"type": "note_off", "time": 115, "note": 60, "velocity": 118, "channel": 0}, {"type": "note_on", "time": 5, "note": 61, "velocity": 121, "channel": 0}, {"type": "note_off", "time": 101, "note": 61, "velocity": 121, "channel": 0}, {"type": "note_on", "time": 0, "note": 63, "velocity": 118, "channel": 0}, {"type": "note_off", "time": 88, "note": 63, "velocity": 118, "channel": 0}, {"type": "note_on", "time": 1, "note": 64, "velocity": 111, "channel": 0}, {"type": "note_off", "time": 85, "note": 64, "velocity": 111, "channel": 0}, {"type": "note_on", "time": 0, "note": 66, "velocity": 99, "channel": 0}, {"type": "note_off", "time": 101, "note": 66, "velocity": 99, "channel": 0}, {"type": "note_on", "time": 3, "note": 69, "velocity": 104, "channel": 0}, {"type": "note_off", "time": 57, "note": 69, "velocity": 104, "channel": 0}, {"type": "note_on", "time": 0, "note": 73, "velocity": 117, "channel": 0}, {"type": "note_off", "time": 130, "note": 73, "velocity": 117, "channel": 0}, {"type": "note_on", "time": 15, "note": 69, "velocity": 98, "channel": 0}, {"type": "note_off", "time": 41, "note": 69, "velocity": 98, "channel": 0}, {"type": "note_on", "time": 3, "note": 72, "velocity": 109, "channel": 0}, {"type": "note_off", "time": 129, "note": 72, "velocity": 109, "channel": 0}, {"type": "note_on", "time": 3, "note": 71, "velocity": 97, "channel": 0}, {"type": "note_off", "time": 90, "note": 71, "velocity": 97, "channel": 0}, {"type": "note_on", "time": 3, "note": 70, "velocity": 108, "channel": 0}, {"type": "note_off", "time": 85, "note": 70, "velocity": 108, "channel": 0}, {"type": "note_on", "time": 12, "note": 68, "velocity": 99, "channel": 0}, {"type": "note_off", "time": 106, "note": 68, "velocity": 99, "channel": 0}, {"type": "note_on", "time": 1199, "note": 75, "velocity": 121, "channel": 0}, {"type": "note_off", "time": 106, "note": 75, "velocity": 121, "channel": 0}, {"type": "note_on", "time": 6, "note": 76, "velocity": 110, "channel": 0}, {"type": "note_off", "time": 73, "note": 76, "velocity": 110, "channel": 0}, {"type": "note_on", "time": 9, "note": 77, "velocity": 112, "channel": 0}, {"type": "note_off", "time": 85, "note": 77, "velocity": 112, "channel": 0}, {"type": "note_on", "time": 8, "note": 80, "velocity": 113, "channel": 0}, {"type": "note_off", "time": 81, "note": 80, "velocity": 113, "channel": 0}, {"type": "note_on", "time": 0, "note": 77, "velocity": 115, "channel": 0}, {"type": "note_off", "time": 83, "note": 77, "velocity": 115, "channel": 0}, {"type": "note_on", "time": 6, "note": 75, "velocity": 120, "channel": 0}, {"type": "note_off", "time": 109, "note": 75, "velocity": 120, "channel": 0}, {"type": "note_on", "time": 1, "note": 74, "velocity": 98, "channel": 0}, {"type": "note_off", "time": 87, "note": 74, "velocity": 98, "channel": 0}, {"type": "note_on", "time": 12, "note": 73, "velocity": 118, "channel": 0}, {"type": "note_off", "time": 113, "note": 73, "velocity": 118, "channel": 0}, {"type": "note_on", "time": 13, "note": 72, "velocity": 104, "channel": 0}, {"type": "note_off", "time": 68, "note": 72, "velocity": 104, "channel": 0}, {"type": "note_on", "time": 5, "note": 71, "velocity": 104, "channel": 0}, {"type": "note_off", "time": 90, "note": 71, "velocity": 104, "channel": 0}, {"type": "note_on", "time": 1, "note": 70, "velocity": 109, "channel": 0}, {"type": "note_off", "time": 74, "note": 70, "velocity": 109, "channel": 0}, {"type": "note_on", "time": 1, "note": 68, "velocity": 110, "channel": 0}, {"type": "note_off", "time": 111, "note": 68, "velocity": 110, "channel": 0}, {"type": "note_on", "time": 5, "note": 67, "velocity": 105, "channel": 0}, {"type": "note_off", "time": 88, "note": 67, "velocity": 105, "channel": 0}, {"type": "note_on", "time": 0, "note": 66, "velocity": 106, "channel": 0}, {"type": "note_off", "time": 106, "note": 66, "velocity": 106, "channel": 0}, {"type": "note_on", "time": 6, "note": 65, "velocity": 103, "channel": 0}, {"type": "note_off", "time": 83, "note": 65, "velocity": 103, "channel": 0}, {"type": "note_on", "time": 6, "note": 64, "velocity": 103, "channel": 0}, {"type": "note_off", "time": 76, "note": 64, "velocity": 103, "channel": 0}, {"type": "note_on", "time": 12, "note": 63, "velocity": 116, "channel": 0}, {"type": "note_off", "time": 90, "note": 63, "velocity": 116, "channel": 0}, {"type": "note_on", "time": 22, "note": 59, "velocity": 103, "channel": 0}, {"type": "note_off", "time": 69, "note": 59, "velocity": 103, "channel": 0}, {"type": "note_on", "time": 10, "note": 62, "velocity": 122, "channel": 0}, {"type": "note_off", "time": 115, "note": 62, "velocity": 122, "channel": 0}, {"type": "note_on", "time": 3, "note": 59, "velocity": 107, "channel": 0}, {"type": "note_off", "time": 52, "note": 59, "velocity": 107, "channel": 0}, {"type": "note_on", "time": 25, "note": 60, "velocity": 100, "channel": 0}, {"type": "note_off", "time": 94, "note": 60, "velocity": 100, "channel": 0}, {"type": "note_on", "time": 6, "note": 62, "velocity": 118, "channel": 0}, {"type": "note_off", "time": 136, "note": 62, "velocity": 118, "channel": 0}, {"type": "note_on", "time": 1, "note": 63, "velocity": 111, "channel": 0}, {"type": "note_off", "time": 83, "note": 63, "velocity": 111, "channel": 0}, {"type": "note_on", "time": 0, "note": 65, "velocity": 104, "channel": 0}, {"type": "note_off", "time": 81, "note": 65, "velocity": 104, "channel": 0}, {"type": "note_on", "time": 6, "note": 66, "velocity": 104, "channel": 0}, {"type": "note_off", "time": 97, "note": 66, "velocity": 104, "channel": 0}, {"type": "note_on", "time": 15, "note": 63, "velocity": 104, "channel": 0}, {"type": "note_off", "time": 76, "note": 63, "velocity": 104, "channel": 0}, {"type": "note_on", "time": 3, "note": 65, "velocity": 112, "channel": 0}, {"type": "note_off", "time": 99, "note": 65, "velocity": 112, "channel": 0}, {"type": "note_on", "time": 0, "note": 62, "velocity": 113, "channel": 0}, {"type": "note_off", "time": 83, "note": 62, "velocity": 113, "channel": 0}, {"type": "note_on", "time": 24, "note": 58, "velocity": 104, "channel": 0}, {"type": "note_off", "time": 88, "note": 58, "velocity": 104, "channel": 0}, {"type": "note_on", "time": 13, "note": 55, "velocity": 98, "channel": 0}, {"type": "note_off", "time": 55, "note": 55, "velocity": 98, "channel": 0}, {"type": "note_on", "time": 22, "note": 63, "velocity": 118, "channel": 0}, {"type": "note_off", "time": 87, "note": 63, "velocity": 118, "channel": 0}, {"type": "note_on", "time": 12, "note": 60, "velocity": 113, "channel": 0}, {"type": "note_off", "time": 151, "note": 60, "velocity": 113, "channel": 0}, {"type": "note_on", "time": 25, "note": 61, "velocity": 125, "channel": 0}, {"type": "note_off", "time": 135, "note": 61, "velocity": 125, "channel": 0}, {"type": "note_on", "time": 91, "note": 58, "velocity": 100, "channel": 0}, {"type": "note_off", "time": 64, "note": 58, "velocity": 100, "channel": 0}, {"type": "note_on", "time": 3, "note": 60, "velocity": 117, "channel": 0}, {"type": "note_off", "time": 126, "note": 60, "velocity": 117, "channel": 0}, {"type": "note_on", "time": 1, "note": 57, "velocity": 102, "channel": 0}, {"type": "note_off", "time": 69, "note": 57, "velocity": 102, "channel": 0}, {"type": "note_on", "time": 7, "note": 58, "velocity": 110, "channel": 0}, {"type": "note_off", "time": 147, "note": 58, "velocity": 110, "channel": 0}, {"type": "note_on", "time": 55, "note": 55, "velocity": 112, "channel": 0}, {"type": "note_off", "time": 152, "note": 55, "velocity": 112, "channel": 0}, {"type": "note_on", "time": 55, "note": 56, "velocity": 113, "channel": 0}, {"type": "note_off", "time": 140, "note": 56, "velocity": 113, "channel": 0}, {"type": "note_on", "time": 30, "note": 55, "velocity": 9, "channel": 0}, {"type": "note_off", "time": 99, "note": 55, "velocity": 9, "channel": 0}, {"type": "note_on", "time": 47, "note": 51, "velocity": 104, "channel": 0}, {"type": "note_off", "time": 40, "note": 51, "velocity": 104, "channel": 0}, {"type": "note_on", "time": 35, "note": 54, "velocity": 120, "channel": 0}, {"type": "note_off", "time": 84, "note": 54, "velocity": 120, "channel": 0}, {"type": "note_on", "time": 7, "note": 50, "velocity": 106, "channel": 0}, {"type": "note_off", "time": 89, "note": 50, "velocity": 106, "channel": 0}, {"type": "note_on", "time": 69, "note": 53, "velocity": 118, "channel": 0}, {"type": "note_off", "time": 143, "note": 53, "velocity": 118, "channel": 0}, {"type": "note_on", "time": 80, "note": 51, "velocity": 112, "channel": 0}, {"type": "note_off", "time": 105, "note": 51, "velocity": 112, "channel": 0}, {"type": "note_on", "time": 94, "note": 48, "velocity": 103, "channel": 0}, {"type": "note_off", "time": 119, "note": 48, "velocity": 103, "channel": 0}, {"type": "note_on", "time": 384, "note": 50, "velocity": 117, "channel": 0}, {"type": "note_off", "time": 120, "note": 50, "velocity": 117, "channel": 0}, {"type": "note_on", "time": 0, "note": 47, "velocity": 112, "channel": 0}, {"type": "note_off", "time": 52, "note": 47, "velocity": 112, "channel": 0}, {"type": "note_on", "time": 0, "note": 48, "velocity": 109, "channel": 0}, {"type": "note_off", "time": 85, "note": 48, "velocity": 109, "channel": 0}, {"type": "note_on", "time": 3, "note": 50, "velocity": 111, "channel": 0}, {"type": "note_off", "time": 104, "note": 50, "velocity": 111, "channel": 0}, {"type": "note_on", "time": 5, "note": 51, "velocity": 112, "channel": 0}, {"type": "note_off", "time": 85, "note": 51, "velocity": 112, "channel": 0}, {"type": "note_on", "time": 1, "note": 53, "velocity": 121, "channel": 0}, {"type": "note_off", "time": 102, "note": 53, "velocity": 121, "channel": 0}, {"type": "note_on", "time": 2, "note": 54, "velocity": 114, "channel": 0}, {"type": "note_off", "time": 95, "note": 54, "velocity": 114, "channel": 0}, {"type": "note_on", "time": 4, "note": 55, "velocity": 114, "channel": 0}, {"type": "note_off", "time": 68, "note": 55, "velocity": 114, "channel": 0}, {"type": "note_on", "time": 8, "note": 60, "velocity": 118, "channel": 0}, {"type": "note_off", "time": 99, "note": 60, "velocity": 118, "channel": 0}, {"type": "note_on", "time": 1, "note": 59, "velocity": 114, "channel": 0}, {"type": "note_off", "time": 86, "note": 59, "velocity": 114, "channel": 0}, {"type": "note_on", "time": 3, "note": 58, "velocity": 111, "channel": 0}, {"type": "note_off", "time": 85, "note": 58, "velocity": 111, "channel": 0}, {"type": "note_on", "time": 3, "note": 56, "velocity": 114, "channel": 0}, {"type": "note_off", "time": 102, "note": 56, "velocity": 114, "channel": 0}, {"type": "note_on", "time": 2, "note": 55, "velocity": 108, "channel": 0}, {"type": "note_off", "time": 78, "note": 55, "velocity": 108, "channel": 0}, {"type": "note_on", "time": 3, "note": 54, "velocity": 117, "channel": 0}, {"type": "note_off", "time": 130, "note": 54, "velocity": 117, "channel": 0}, {"type": "note_on", "time": 6, "note": 53, "velocity": 106, "channel": 0}, {"type": "note_off", "time": 83, "note": 53, "velocity": 106, "channel": 0}, {"type": "note_on", "time": 2, "note": 51, "velocity": 107, "channel": 0}, {"type": "note_off", "time": 100, "note": 51, "velocity": 107, "channel": 0}, {"type": "note_on", "time": 7, "note": 50, "velocity": 109, "channel": 0}, {"type": "note_off", "time": 114, "note": 50, "velocity": 109, "channel": 0}, {"type": "note_on", "time": 1232, "note": 50, "velocity": 111, "channel": 0}, {"type": "note_off", "time": 113, "note": 50, "velocity": 111, "channel": 0}, {"type": "note_on", "time": 74, "note": 54, "velocity": 110, "channel": 0}, {"type": "note_off", "time": 83, "note": 54, "velocity": 110, "channel": 0}, {"type": "note_on", "time": 13, "note": 58, "velocity": 110, "channel": 0}, {"type": "note_off", "time": 83, "note": 58, "velocity": 110, "channel": 0}, {"type": "note_on", "time": 20, "note": 51, "velocity": 109, "channel": 0}, {"type": "note_off", "time": 144, "note": 51, "velocity": 109, "channel": 0}, {"type": "note_on", "time": 8, "note": 55, "velocity": 108, "channel": 0}, {"type": "note_off", "time": 108, "note": 55, "velocity": 108, "channel": 0}, {"type": "note_on", "time": 1, "note": 59, "velocity": 108, "channel": 0}, {"type": "note_off", "time": 83, "note": 59, "velocity": 108, "channel": 0}, {"type": "note_on", "time": 0, "note": 52, "velocity": 108, "channel": 0}, {"type": "note_off", "time": 156, "note": 52, "velocity": 108, "channel": 0}, {"type": "note_on", "time": 8, "note": 56, "velocity": 112, "channel": 0}, {"type": "note_off", "time": 108, "note": 56, "velocity": 112, "channel": 0}, {"type": "note_on", "time": 8, "note": 60, "velocity": 118, "channel": 0}, {"type": "note_off", "time": 83, "note": 60, "velocity": 118, "channel": 0}, {"type": "note_on", "time": 0, "note": 53, "velocity": 113, "channel": 0}, {"type": "note_off", "time": 102, "note": 53, "velocity": 113, "channel": 0}, {"type": "note_on", "time": 19, "note": 57, "velocity": 105, "channel": 0}, {"type": "note_off", "time": 73, "note": 57, "velocity": 105, "channel": 0}, {"type": "note_on", "time": 10, "note": 61, "velocity": 123, "channel": 0}, {"type": "note_on", "time": 95, "note": 54, "velocity": 119, "channel": 0}, {"type": "note_off", "time": 0, "note": 61, "velocity": 123, "channel": 0}, {"type": "note_off", "time": 129, "note": 54, "velocity": 119, "channel": 0}, {"type": "note_on", "time": 72, "note": 58, "velocity": 109, "channel": 0}, {"type": "note_off", "time": 37, "note": 58, "velocity": 109, "channel": 0}, {"type": "note_on", "time": 4, "note": 62, "velocity": 116, "channel": 0}, {"type": "note_off", "time": 62, "note": 62, "velocity": 116, "channel": 0}, {"type": "note_on", "time": 3, "note": 55, "velocity": 114, "channel": 0}, {"type": "note_off", "time": 147, "note": 55, "velocity": 114, "channel": 0}, {"type": "note_on", "time": 18, "note": 59, "velocity": 101, "channel": 0}, {"type": "note_off", "time": 97, "note": 59, "velocity": 101, "channel": 0}, {"type": "note_on", "time": 5, "note": 63, "velocity": 115, "channel": 0}, {"type": "note_off", "time": 81, "note": 63, "velocity": 115, "channel": 0}, {"type": "note_on", "time": 0, "note": 56, "velocity": 122, "channel": 0}, {"type": "note_off", "time": 118, "note": 56, "velocity": 122, "channel": 0}, {"type": "note_on", "time": 10, "note": 60, "velocity": 106, "channel": 0}, {"type": "note_off", "time": 87, "note": 60, "velocity": 106, "channel": 0}, {"type": "note_on", "time": 0, "note": 64, "velocity": 106, "channel": 0}, {"type": "note_off", "time": 120, "note": 64, "velocity": 106, "channel": 0}, {"type": "note_on", "time": 0, "note": 57, "velocity": 103, "channel": 0}, {"type": "note_off", "time": 94, "note": 57, "velocity": 103, "channel": 0}, {"type": "note_on", "time": 0, "note": 61, "velocity": 117, "channel": 0}, {"type": "note_off", "time": 104, "note": 61, "velocity": 117, "channel": 0}, {"type": "note_on", "time": 1, "note": 65, "velocity": 106, "channel": 0}, {"type": "note_off", "time": 52, "note": 65, "velocity": 106, "channel": 0}, {"type": "note_on", "time": 0, "note": 58, "velocity": 115, "channel": 0}, {"type": "note_off", "time": 132, "note": 58, "velocity": 115, "channel": 0}, {"type": "note_on", "time": 6, "note": 62, "velocity": 111, "channel": 0}, {"type": "note_off", "time": 68, "note": 62, "velocity": 111, "channel": 0}, {"type": "note_on", "time": 6, "note": 66, "velocity": 102, "channel": 0}, {"type": "note_off", "time": 151, "note": 66, "velocity": 102, "channel": 0}, {"type": "note_on", "time": 50, "note": 67, "velocity": 111, "channel": 0}, {"type": "note_off", "time": 195, "note": 67, "velocity": 111, "channel": 0}, {"type": "note_on", "time": 10, "note": 63, "velocity": 110, "channel": 0}, {"type": "note_off", "time": 111, "note": 63, "velocity": 110, "channel": 0}, {"type": "note_on", "time": 6, "note": 59, "velocity": 99, "channel": 0}, {"type": "note_off", "time": 64, "note": 59, "velocity": 99, "channel": 0}, {"type": "note_on", "time": 5, "note": 68, "velocity": 109, "channel": 0}, {"type": "note_off", "time": 115, "note": 68, "velocity": 109, "channel": 0}, {"type": "note_on", "time": 0, "note": 64, "velocity": 105, "channel": 0}, {"type": "note_off", "time": 76, "note": 64, "velocity": 105, "channel": 0}, {"type": "note_on", "time": 24, "note": 60, "velocity": 104, "channel": 0}, {"type": "note_off", "time": 52, "note": 60, "velocity": 104, "channel": 0}, {"type": "note_on", "time": 5, "note": 69, "velocity": 114, "channel": 0}, {"type": "note_off", "time": 108, "note": 69, "velocity": 114, "channel": 0}, {"type": "note_on", "time": 5, "note": 68, "velocity": 109, "channel": 0}, {"type": "note_off", "time": 99, "note": 68, "velocity": 109, "channel": 0}, {"type": "note_on", "time": 3, "note": 66, "velocity": 102, "channel": 0}, {"type": "note_off", "time": 99, "note": 66, "velocity": 102, "channel": 0}, {"type": "note_on", "time": 6, "note": 65, "velocity": 106, "channel": 0}, {"type": "note_off", "time": 71, "note": 65, "velocity": 106, "channel": 0}, {"type": "note_on", "time": 15, "note": 63, "velocity": 106, "channel": 0}, {"type": "note_off", "time": 224, "note": 63, "velocity": 106, "channel": 0}, {"type": "note_on", "time": 448, "note": 62, "velocity": 123, "channel": 0}, {"type": "note_off", "time": 120, "note": 62, "velocity": 123, "channel": 0}, {"type": "note_on", "time": 1, "note": 60, "velocity": 112, "channel": 0}, {"type": "note_off", "time": 76, "note": 60, "velocity": 112, "channel": 0}, {"type": "note_on", "time": 6, "note": 61, "velocity": 113, "channel": 0}, {"type": "note_off", "time": 59, "note": 61, "velocity": 113, "channel": 0}, {"type": "note_on", "time": 5, "note": 64, "velocity": 109, "channel": 0}, {"type": "note_off", "time": 97, "note": 64, "velocity": 109, "channel": 0}, {"type": "note_on", "time": 1, "note": 63, "velocity": 114, "channel": 0}, {"type": "note_off", "time": 87, "note": 63, "velocity": 114, "channel": 0}, {"type": "note_on", "time": 10, "note": 61, "velocity": 121, "channel": 0}, {"type": "note_off", "time": 106, "note": 61, "velocity": 121, "channel": 0}, {"type": "note_on", "time": 8, "note": 60, "velocity": 106, "channel": 0}, {"type": "note_off", "time": 76, "note": 60, "velocity": 106, "channel": 0}, {"type": "note_on", "time": 2, "note": 61, "velocity": 124, "channel": 0}, {"type": "note_off", "time": 218, "note": 61, "velocity": 124, "channel": 0}, {"type": "note_on", "time": 8, "note": 68, "velocity": 101, "channel": 0}, {"type": "note_off", "time": 61, "note": 68, "velocity": 101, "channel": 0}, {"type": "note_on", "time": 15, "note": 72, "velocity": 100, "channel": 0}, {"type": "note_off", "time": 139, "note": 72, "velocity": 100, "channel": 0}, {"type": "note_on", "time": 80, "note": 71, "velocity": 104, "channel": 0}, {"type": "note_off", "time": 71, "note": 71, "velocity": 104, "channel": 0}, {"type": "note_on", "time": 3, "note": 67, "velocity": 111, "channel": 0}, {"type": "note_off", "time": 76, "note": 67, "velocity": 111, "channel": 0}, {"type": "note_on", "time": 1, "note": 64, "velocity": 102, "channel": 0}, {"type": "note_off", "time": 108, "note": 64, "velocity": 102, "channel": 0}, {"type": "note_on", "time": 10, "note": 60, "velocity": 97, "channel": 0}, {"type": "note_off", "time": 57, "note": 60, "velocity": 97, "channel": 0}, {"type": "note_on", "time": 50, "note": 70, "velocity": 113, "channel": 0}, {"type": "note_off", "time": 73, "note": 70, "velocity": 113, "channel": 0}, {"type": "note_on", "time": 6, "note": 62, "velocity": 112, "channel": 0}, {"type": "note_off", "time": 85, "note": 62, "velocity": 112, "channel": 0}, {"type": "note_on", "time": 27, "note": 66, "velocity": 94, "channel": 0}, {"type": "note_on", "time": 69, "note": 70, "velocity": 110, "channel": 0}, {"type": "note_off", "time": 0, "note": 66, "velocity": 94, "channel": 0}, {"type": "note_off", "time": 99, "note": 70, "velocity": 110, "channel": 0}, {"type": "note_on", "time": 0, "note": 69, "velocity": 103, "channel": 0}, {"type": "note_off", "time": 78, "note": 69, "velocity": 103, "channel": 0}, {"type": "note_on", "time": 6, "note": 66, "velocity": 104, "channel": 0}, {"type": "note_off", "time": 94, "note": 66, "velocity": 104, "channel": 0}, {"type": "note_on", "time": 8, "note": 65, "velocity": 103, "channel": 0}, {"type": "note_off", "time": 74, "note": 65, "velocity": 103, "channel": 0}, {"type": "note_on", "time": 18, "note": 64, "velocity": 113, "channel": 0}, {"type": "note_off", "time": 104, "note": 64, "velocity": 113, "channel": 0}, {"type": "note_on", "time": 6, "note": 62, "velocity": 112, "channel": 0}, {"type": "note_off", "time": 112, "note": 62, "velocity": 112, "channel": 0}, {"type": "note_on", "time": 9, "note": 60, "velocity": 98, "channel": 0}, {"type": "note_off", "time": 69, "note": 60, "velocity": 98, "channel": 0}, {"type": "note_on", "time": 0, "note": 63, "velocity": 115, "channel": 0}, {"type": "note_off", "time": 179, "note": 63, "velocity": 115, "channel": 0}, {"type": "note_on", "time": 1, "note": 58, "velocity": 101, "channel": 0}, {"type": "note_off", "time": 91, "note": 58, "velocity": 101, "channel": 0}, {"type": "note_on", "time": 0, "note": 63, "velocity": 117, "channel": 0}, {"type": "note_off", "time": 121, "note": 63, "velocity": 117, "channel": 0}, {"type": "note_on", "time": 1, "note": 62, "velocity": 117, "channel": 0}, {"type": "note_off", "time": 79, "note": 62, "velocity": 117, "channel": 0}, {"type": "note_on", "time": 0, "note": 61, "velocity": 122, "channel": 0}, {"type": "note_off", "time": 89, "note": 61, "velocity": 122, "channel": 0}, {"type": "note_on", "time": 3, "note": 60, "velocity": 111, "channel": 0}, {"type": "note_off", "time": 95, "note": 60, "velocity": 111, "channel": 0}, {"type": "note_on", "time": 11, "note": 58, "velocity": 115, "channel": 0}, {"type": "note_off", "time": 105, "note": 58, "velocity": 115, "channel": 0}, {"type": "note_on", "time": 3, "note": 57, "velocity": 110, "channel": 0}, {"type": "note_off", "time": 80, "note": 57, "velocity": 110, "channel": 0}, {"type": "note_on", "time": 3, "note": 55, "velocity": 104, "channel": 0}, {"type": "note_off", "time": 99, "note": 55, "velocity": 104, "channel": 0}, {"type": "note_on", "time": 1, "note": 54, "velocity": 105, "channel": 0}, {"type": "note_off", "time": 86, "note": 54, "velocity": 105, "channel": 0}, {"type": "note_on", "time": 6, "note": 57, "velocity": 104, "channel": 0}, {"type": "note_off", "time": 109, "note": 57, "velocity": 104, "channel": 0}, {"type": "note_on", "time": 7, "note": 56, "velocity": 111, "channel": 0}, {"type": "note_off", "time": 81, "note": 56, "velocity": 111, "channel": 0}, {"type": "note_on", "time": 1, "note": 54, "velocity": 105, "channel": 0}, {"type": "note_off", "time": 78, "note": 54, "velocity": 105, "channel": 0}, {"type": "note_on", "time": 8, "note": 55, "velocity": 106, "channel": 0}, {"type": "note_off", "time": 111, "note": 55, "velocity": 106, "channel": 0}, {"type": "note_on", "time": 0, "note": 57, "velocity": 107, "channel": 0}, {"type": "note_off", "time": 76, "note": 57, "velocity": 107, "channel": 0}, {"type": "note_on", "time": 4, "note": 58, "velocity": 104, "channel": 0}, {"type": "note_off", "time": 92, "note": 58, "velocity": 104, "channel": 0}, {"type": "note_on", "time": 3, "note": 60, "velocity": 115, "channel": 0}, {"type": "note_off", "time": 121, "note": 60, "velocity": 115, "channel": 0}, {"type": "note_on", "time": 4, "note": 62, "velocity": 106, "channel": 0}, {"type": "note_off", "time": 88, "note": 62, "velocity": 106, "channel": 0}, {"type": "note_on", "time": 7, "note": 65, "velocity": 100, "channel": 0}, {"type": "note_off", "time": 74, "note": 65, "velocity": 100, "channel": 0}, {"type": "note_on", "time": 1, "note": 69, "velocity": 114, "channel": 0}, {"type": "note_off", "time": 106, "note": 69, "velocity": 114, "channel": 0}, {"type": "note_on", "time": 7, "note": 65, "velocity": 110, "channel": 0}, {"type": "note_off", "time": 69, "note": 65, "velocity": 110, "channel": 0}, {"type": "note_on", "time": 4, "note": 62, "velocity": 107, "channel": 0}, {"type": "note_off", "time": 96, "note": 62, "velocity": 107, "channel": 0}, {"type": "note_on", "time": 4, "note": 60, "velocity": 103, "channel": 0}, {"type": "note_off", "time": 66, "note": 60, "velocity": 103, "channel": 0}, {"type": "note_on", "time": 14, "note": 68, "velocity": 110, "channel": 0}, {"type": "note_off", "time": 101, "note": 68, "velocity": 110, "channel": 0}, {"type": "note_on", "time": 7, "note": 64, "velocity": 106, "channel": 0}, {"type": "note_off", "time": 84, "note": 64, "velocity": 106, "channel": 0}, {"type": "note_on", "time": 3, "note": 61, "velocity": 119, "channel": 0}, {"type": "note_off", "time": 96, "note": 61, "velocity": 119, "channel": 0}, {"type": "note_on", "time": 4, "note": 59, "velocity": 111, "channel": 0}, {"type": "note_off", "time": 86, "note": 59, "velocity": 111, "channel": 0}, {"type": "note_on", "time": 16, "note": 58, "velocity": 103, "channel": 0}, {"type": "note_off", "time": 66, "note": 58, "velocity": 103, "channel": 0}, {"type": "note_on", "time": 6, "note": 59, "velocity": 112, "channel": 0}, {"type": "note_off", "time": 83, "note": 59, "velocity": 112, "channel": 0}, {"type": "note_on", "time": 0, "note": 58, "velocity": 108, "channel": 0}, {"type": "note_off", "time": 140, "note": 58, "velocity": 108, "channel": 0}, {"type": "note_on", "time": 107, "note": 57, "velocity": 101, "channel": 0}, {"type": "note_off", "time": 87, "note": 57, "velocity": 101, "channel": 0}, {"type": "note_on", "time": 0, "note": 58, "velocity": 108, "channel": 0}, {"type": "note_off", "time": 83, "note": 58, "velocity": 108, "channel": 0}, {"type": "note_on", "time": 0, "note": 57, "velocity": 100, "channel": 0}, {"type": "note_off", "time": 90, "note": 57, "velocity": 100, "channel": 0}, {"type": "note_on", "time": 89, "note": 56, "velocity": 110, "channel": 0}, {"type": "note_off", "time": 87, "note": 56, "velocity": 110, "channel": 0}, {"type": "note_on", "time": 0, "note": 57, "velocity": 115, "channel": 0}, {"type": "note_off", "time": 90, "note": 57, "velocity": 115, "channel": 0}, {"type": "note_on", "time": 7, "note": 56, "velocity": 110, "channel": 0}, {"type": "note_off", "time": 100, "note": 56, "velocity": 110, "channel": 0}, {"type": "note_on", "time": 123, "note": 55, "velocity": 104, "channel": 0}, {"type": "note_off", "time": 68, "note": 55, "velocity": 104, "channel": 0}, {"type": "note_on", "time": 0, "note": 56, "velocity": 109, "channel": 0}, {"type": "note_off", "time": 102, "note": 56, "velocity": 109, "channel": 0}, {"type": "note_on", "time": 3, "note": 55, "velocity": 104, "channel": 0}, {"type": "note_off", "time": 83, "note": 55, "velocity": 104, "channel": 0}, {"type": "note_on", "time": 4, "note": 54, "velocity": 104, "channel": 0}, {"type": "note_off", "time": 838, "note": 54, "velocity": 104, "channel": 0}, {"type": "note_on", "time": 64, "note": 54, "velocity": 106, "channel": 0}, {"type": "note_off", "time": 261, "note": 54, "velocity": 106, "channel": 0}, {"type": "note_on", "time": 8, "note": 54, "velocity": 108, "channel": 0}, {"type": "note_off", "time": 258, "note": 54, "velocity": 108, "channel": 0}, {"type": "note_on", "time": 10, "note": 58, "velocity": 104, "channel": 0}, {"type": "note_off", "time": 122, "note": 58, "velocity": 104, "channel": 0}, {"type": "note_on", "time": 1, "note": 53, "velocity": 102, "channel": 0}, {"type": "note_off", "time": 812, "note": 53, "velocity": 102, "channel": 0}, {"type": "note_on", "time": 96, "note": 54, "velocity": 104, "channel": 0}, {"type": "note_off", "time": 295, "note": 54, "velocity": 104, "channel": 0}, {"type": "note_on", "time": 9, "note": 54, "velocity": 105, "channel": 0}, {"type": "note_off", "time": 254, "note": 54, "velocity": 105, "channel": 0}, {"type": "note_on", "time": 0, "note": 58, "velocity": 106, "channel": 0}, {"type": "note_off", "time": 120, "note": 58, "velocity": 106, "channel": 0}, {"type": "note_on", "time": 9, "note": 53, "velocity": 103, "channel": 0}, {"type": "note_off", "time": 796, "note": 53, "velocity": 103, "channel": 0}, {"type": "note_on", "time": 55, "note": 54, "velocity": 104, "channel": 0}, {"type": "note_off", "time": 275, "note": 54, "velocity": 104, "channel": 0}, {"type": "note_on", "time": 6, "note": 54, "velocity": 110, "channel": 0}, {"type": "note_off", "time": 251, "note": 54, "velocity": 110, "channel": 0}, {"type": "note_on", "time": 12, "note": 58, "velocity": 104, "channel": 0}, {"type": "note_off", "time": 134, "note": 58, "velocity": 104, "channel": 0}, {"type": "note_on", "time": 6, "note": 62, "velocity": 95, "channel": 0}, {"type": "note_off", "time": 782, "note": 62, "velocity": 95, "channel": 0}, {"type": "note_on", "time": 69, "note": 54, "velocity": 110, "channel": 0}, {"type": "note_off", "time": 280, "note": 54, "velocity": 110, "channel": 0}, {"type": "note_on", "time": 6, "note": 54, "velocity": 110, "channel": 0}, {"type": "note_off", "time": 266, "note": 54, "velocity": 110, "channel": 0}, {"type": "note_on", "time": 6, "note": 58, "velocity": 105, "channel": 0}, {"type": "note_off", "time": 111, "note": 58, "velocity": 105, "channel": 0}, {"type": "note_on", "time": 1, "note": 53, "velocity": 103, "channel": 0}, {"type": "note_off", "time": 863, "note": 53, "velocity": 103, "channel": 0}, {"type": "end_of_track", "time": 0}]]}