{"ticks_per_beat": 192, "tracks": [[{"type": "track_name", "name": "Melody", "time": 0}, {"type": "set_tempo", "tempo": 203389, "time": 0}, {"type": "time_signature", "numerator": 4, "denominator": 4, "clocks_per_click": 24, "notated_32nd_notes_per_beat": 8, "time": 0}, {"type": "note_on", "time": 2847, "note": 60, "velocity": 89, "channel": 0}, {"type": "note_off", "time": 73, "note": 60, "velocity": 89, "channel": 0}, {"type": "note_on", "time": 3, "note": 63, "velocity": 88, "channel": 0}, {"type": "note_off", "time": 69, "note": 63, "velocity": 88, "channel": 0}, {"type": "note_on", "time": 21, "note": 67, "velocity": 82, "channel": 0}, {"type": "note_off", "time": 522, "note": 67, "velocity": 82, "channel": 0}, {"type": "note_on", "time": 512, "note": 63, "velocity": 107, "channel": 0}, {"type": "note_off", "time": 102, "note": 63, "velocity": 107, "channel": 0}, {"type": "note_on", "time": 11, "note": 65, "velocity": 96, "channel": 0}, {"type": "note_off", "time": 98, "note": 65, "velocity": 96, "channel": 0}, {"type": "note_on", "time": 5, "note": 62, "velocity": 103, "channel": 0}, {"type": "note_off", "time": 82, "note": 62, "velocity": 103, "channel": 0}, {"type": "note_on", "time": 1225, "note": 62, "velocity": 99, "channel": 0}, {"type": "note_off", "time": 82, "note": 62, "velocity": 99, "channel": 0}, {"type": "note_on", "time": 12, "note": 63, "velocity": 120, "channel": 0}, {"type": "note_off", "time": 139, "note": 63, "velocity": 120, "channel": 0}, {"type": "note_on", "time": 72, "note": 61, "velocity": 104, "channel": 0}, {"type": "note_off", "time": 73, "note": 61, "velocity": 104, "channel": 0}, {"type": "note_on", "time": 11, "note": 62, "velocity": 118, "channel": 0}, {"type": "note_off", "time": 57, "note": 62, "velocity": 118, "channel": 0}, {"type": "note_on", "time": 11, "note": 63, "velocity": 94, "channel": 0}, {"type": "note_off", "time": 115, "note": 63, "velocity": 94, "channel": 0}, {"type": "note_on", "time": 23, "note": 66, "velocity": 98, "channel": 0}, {"type": "note_off", "time": 80, "note": 66, "velocity": 98, "channel": 0}, {"type": "note_on", "time": 9, "note": 67, "velocity": 94, "channel": 0}, {"type": "note_off", "time": 100, "note": 67, "velocity": 94, "channel": 0}, {"type": "note_on", "time": 1, "note": 69, "velocity": 102, "channel": 0}, {"type": "note_off", "time": 61, "note": 69, "velocity": 102, "channel": 0}, {"type": "note_on", "time": 1, "note": 70, "velocity": 114, "channel": 0}, {"type": "note_off", "time": 152, "note": 70, "velocity": 114, "channel": 0}, {"type": "note_on", "time": 607, "note": 63, "velocity": 100, "channel": 0}, {"type": "note_off", "time": 261, "note": 63, "velocity": 100, "channel": 0}, {"type": "note_on", "time": 18, "note": 63, "velocity": 97, "channel": 0}, {"type": "note_off", "time": 256, "note": 63, "velocity": 97, "channel": 0}, {"type": "note_on", "time": 39, "note": 77, "velocity": 115, "channel": 0}, {"type": "note_off", "time": 105, "note": 77, "velocity": 115, "channel": 0}, {"type": "note_on", "time": 3, "note": 76, "velocity": 122, "channel": 0}, {"type": "note_off", "time": 102, "note": 76, "velocity": 122, "channel": 0}, {"type": "note_on", "time": 1, "note": 75, "velocity": 116, "channel": 0}, {"type": "note_off", "time": 83, "note": 75, "velocity": 116, "channel": 0}, {"type": "note_on", "time": 5, "note": 71, "velocity": 111, "channel": 0}, {"type": "note_off", "time": 104, "note": 71, "velocity": 111, "channel": 0}, {"type": "note_on", "time": 4, "note": 70, "velocity": 106, "channel": 0}, {"type": "note_off", "time": 95, "note": 70, "velocity": 106, "channel": 0}, {"type": "note_on", "time": 1, "note": 69, "velocity": 101, "channel": 0}, {"type": "note_off", "time": 100, "note": 69, "velocity": 101, "channel": 0}, {"type": "note_on", "time": 4, "note": 68, "velocity": 105, "channel": 0}, {"type": "note_off", "time": 56, "note": 68, "velocity": 105, "channel": 0}, {"type": "note_on", "time": 4, "note": 71, "velocity": 109, "channel": 0}, {"type": "note_off", "time": 132, "note": 71, "velocity": 109, "channel": 0}, {"type": "note_on", "time": 1232, "note": 71, "velocity": 121, "channel": 0}, {"type": "note_off", "time": 123, "note": 71, "velocity": 121, "channel": 0}, {"type": "note_on", "time": 3, "note": 69, "velocity": 103, "channel": 0}, {"type": "note_off", "time": 78, "note": 69, "velocity": 103, "channel": 0}, {"type": "note_on", "time": 0, "note": 67, "velocity": 90, "channel": 0}, {"type": "note_off", "time": 88, "note": 67, "velocity": 90, "channel": 0}, {"type": "note_on", "time": 25, "note": 62, "velocity": 98, "channel": 0}, {"type": "note_off", "time": 90, "note": 62, "velocity": 98, "channel": 0}, {"type": "note_on", "time": 3, "note": 66, "velocity": 108, "channel": 0}, {"type": "note_off", "time": 96, "note": 66, "velocity": 108, "channel": 0}, {"type": "note_on", "time": 0, "note": 63, "velocity": 110, "channel": 0}, {"type": "note_off", "time": 100, "note": 63, "velocity": 110, "channel": 0}, {"type": "note_on", "time": 1, "note": 65, "velocity": 99, "channel": 0}, {"type": "note_off", "time": 94, "note": 65, "velocity": 99, "channel": 0}, {"type": "note_on", "time": 9, "note": 63, "velocity": 122, "channel": 0}, {"type": "note_off", "time": 77, "note": 63, "velocity": 122, "channel": 0}, {"type": "note_on", "time": 5, "note": 62, "velocity": 114, "channel": 0}, {"type": "note_off", "time": 84, "note": 62, "velocity": 114, "channel": 0}, {"type": "note_on", "time": 5, "note": 60, "velocity": 101, "channel": 0}, {"type": "note_off", "time": 86, "note": 60, "velocity": 101, "channel": 0}, {"type": "note_on", "time": 13, "note": 59, "velocity": 103, "channel": 0}, {"type": "note_off", "time": 87, "note": 59, "velocity": 103, "channel": 0}, {"type": "note_on", "time": 8, "note": 62, "velocity": 119, "channel": 0}, {"type": "note_off", "time": 104, "note": 62, "velocity": 119, "channel": 0}, {"type": "note_on", "time": 1, "note": 61, "velocity": 113, "channel": 0}, {"type": "note_off", "time": 72, "note": 61, "velocity": 113, "channel": 0}, {"type": "note_on", "time": 7, "note": 59, "velocity": 99, "channel": 0}, {"type": "note_off", "time": 52, "note": 59, "velocity": 99, "channel": 0}, {"type": "note_on", "time": 2, "note": 60, "velocity": 103, "channel": 0}, {"type": "note_off", "time": 138, "note": 60, "velocity": 103, "channel": 0}, {"type": "note_on", "time": 5, "note": 56, "velocity": 108, "channel": 0}, {"type": "note_off", "time": 71, "note": 56, "velocity": 108, "channel": 0}, {"type": "note_on", "time": 6, "note": 55, "velocity": 107, "channel": 0}, {"type": "note_off", "time": 82, "note": 55, "velocity": 107, "channel": 0}, {"type": "note_on", "time": 0, "note": 56, "velocity": 107, "channel": 0}, {"type": "note_off", "time": 101, "note": 56, "velocity": 107, "channel": 0}, {"type": "note_on", "time": 10, "note": 58, "velocity": 99, "channel": 0}, {"type": "note_off", "time": 83, "note": 58, "velocity": 99, "channel": 0}, {"type": "note_on", "time": 4, "note": 59, "velocity": 107, "channel": 0}, {"type": "note_off", "time": 86, "note": 59, "velocity": 107, "channel": 0}, {"type": "note_on", "time": 691, "note": 51, "velocity": 86, "channel": 0}, {"type": "note_off", "time": 63, "note": 51, "velocity": 86, "channel": 0}, {"type": "note_on", "time": 22, "note": 55, "velocity": 119, "channel": 0}, {"type": "note_off", "time": 93, "note": 55, "velocity": 119, "channel": 0}, {"type": "note_on", "time": 9, "note": 56, "velocity": 108, "channel": 0}, {"type": "note_off", "time": 86, "note": 56, "velocity": 108, "channel": 0}, {"type": "note_on", "time": 0, "note": 58, "velocity": 103, "channel": 0}, {"type": "note_off", "time": 92, "note": 58, "velocity": 103, "channel": 0}, {"type": "note_on", "time": 0, "note": 59, "velocity": 114, "channel": 0}, {"type": "note_off", "time": 115, "note": 59, "velocity": 114, "channel": 0}, {"type": "note_on", "time": 636, "note": 55, "velocity": 108, "channel": 0}, {"type": "note_off", "time": 60, "note": 55, "velocity": 108, "channel": 0}, {"type": "note_on", "time": 16, "note": 57, "velocity": 111, "channel": 0}, {"type": "note_on", "time": 56, "note": 58, "velocity": 105, "channel": 0}, {"type": "note_off", "time": 0, "note": 57, "velocity": 111, "channel": 0}, {"type": "note_off", "time": 79, "note": 58, "velocity": 105, "channel": 0}, {"type": "note_on", "time": 0, "note": 60, "velocity": 100, "channel": 0}, {"type": "note_off", "time": 90, "note": 60, "velocity": 100, "channel": 0}, {"type": "note_on", "time": 1, "note": 61, "velocity": 119, "channel": 0}, {"type": "note_off", "time": 144, "note": 61, "velocity": 119, "channel": 0}, {"type": "note_on", "time": 589, "note": 50, "velocity": 94, "channel": 0}, {"type": "note_off", "time": 75, "note": 50, "velocity": 94, "channel": 0}, {"type": "note_on", "time": 41, "note": 55, "velocity": 111, "channel": 0}, {"type": "note_off", "time": 105, "note": 55, "velocity": 111, "channel": 0}, {"type": "note_on", "time": 9, "note": 56, "velocity": 114, "channel": 0}, {"type": "note_off", "time": 86, "note": 56, "velocity": 114, "channel": 0}, {"type": "note_on", "time": 0, "note": 58, "velocity": 99, "channel": 0}, {"type": "note_off", "time": 90, "note": 58, "velocity": 99, "channel": 0}, {"type": "note_on", "time": 5, "note": 59, "velocity": 105, "channel": 0}, {"type": "note_off", "time": 140, "note": 59, "velocity": 105, "channel": 0}, {"type": "note_on", "time": 641, "note": 55, "velocity": 98, "channel": 0}, {"type": "note_off", "time": 47, "note": 55, "velocity": 98, "channel": 0}, {"type": "note_on", "time": 10, "note": 57, "velocity": 109, "channel": 0}, {"type": "note_off", "time": 57, "note": 57, "velocity": 109, "channel": 0}, {"type": "note_on", "time": 17, "note": 58, "velocity": 100, "channel": 0}, {"type": "note_off", "time": 86, "note": 58, "velocity": 100, "channel": 0}, {"type": "note_on", "time": 8, "note": 60, "velocity": 101, "channel": 0}, {"type": "note_off", "time": 80, "note": 60, "velocity": 101, "channel": 0}, {"type": "note_on", "time": 14, "note": 61, "velocity": 111, "channel": 0}, {"type": "note_off", "time": 138, "note": 61, "velocity": 111, "channel": 0}, {"type": "note_on", "time": 680, "note": 55, "velocity": 113, "channel": 0}, {"type": "note_off", "time": 102, "note": 55, "velocity": 113, "channel": 0}, {"type": "note_on", "time": 15, "note": 56, "velocity": 111, "channel": 0}, {"type": "note_off", "time": 80, "note": 56, "velocity": 111, "channel": 0}, {"type": "note_on", "time": 9, "note": 58, "velocity": 101, "channel": 0}, {"type": "note_off", "time": 80, "note": 58, "velocity": 101, "channel": 0}, {"type": "note_on", "time": 17, "note": 59, "velocity": 110, "channel": 0}, {"type": "note_off", "time": 196, "note": 59, "velocity": 110, "channel": 0}, {"type": "note_on", "time": 606, "note": 55, "velocity": 98, "channel": 0}, {"type": "note_off", "time": 98, "note": 55, "velocity": 98, "channel": 0}, {"type": "note_on", "time": 5, "note": 57, "velocity": 110, "channel": 0}, {"type": "note_off", "time": 63, "note": 57, "velocity": 110, "channel": 0}, {"type": "note_on", "time": 5, "note": 58, "velocity": 96, "channel": 0}, {"type": "note_off", "time": 84, "note": 58, "velocity": 96, "channel": 0}, {"type": "note_on", "time": 10, "note": 60, "velocity": 101, "channel": 0}, {"type": "note_off", "time": 79, "note": 60, "velocity": 101, "channel": 0}, {"type": "note_on", "time": 3, "note": 61, "velocity": 113, "channel": 0}, {"type": "note_off", "time": 167, "note": 61, "velocity": 113, "channel": 0}, {"type": "note_on", "time": 656, "note": 51, "velocity": 89, "channel": 0}, {"type": "note_off", "time": 50, "note": 51, "velocity": 89, "channel": 0}, {"type": "note_on", "time": 28, "note": 55, "velocity": 115, "channel": 0}, {"type": "note_off", "time": 102, "note": 55, "velocity": 115, "channel": 0}, {"type": "note_on", "time": 0, "note": 56, "velocity": 106, "channel": 0}, {"type": "note_off", "time": 63, "note": 56, "velocity": 106, "channel": 0}, {"type": "note_on", "time": 13, "note": 58, "velocity": 98, "channel": 0}, {"type": "note_off", "time": 75, "note": 58, "velocity": 98, "channel": 0}, {"type": "note_on", "time": 13, "note": 59, "velocity": 105, "channel": 0}, {"type": "note_off", "time": 154, "note": 59, "velocity": 105, "channel": 0}, {"type": "note_on", "time": 739, "note": 57, "velocity": 107, "channel": 0}, {"type": "note_off", "time": 90, "note": 57, "velocity": 107, "channel": 0}, {"type": "note_on", "time": 2, "note": 58, "velocity": 93, "channel": 0}, {"type": "note_off", "time": 90, "note": 58, "velocity": 93, "channel": 0}, {"type": "note_on", "time": 2, "note": 60, "velocity": 97, "channel": 0}, {"type": "note_off", "time": 84, "note": 60, "velocity": 97, "channel": 0}, {"type": "note_on", "time": 5, "note": 61, "velocity": 117, "channel": 0}, {"type": "note_off", "time": 138, "note": 61, "velocity": 117, "channel": 0}, {"type": "note_on", "time": 656, "note": 51, "velocity": 93, "channel": 0}, {"type": "note_off", "time": 65, "note": 51, "velocity": 93, "channel": 0}, {"type": "note_on", "time": 19, "note": 55, "velocity": 111, "channel": 0}, {"type": "note_off", "time": 113, "note": 55, "velocity": 111, "channel": 0}, {"type": "note_on", "time": 0, "note": 56, "velocity": 104, "channel": 0}, {"type": "note_off", "time": 77, "note": 56, "velocity": 104, "channel": 0}, {"type": "note_on", "time": 0, "note": 58, "velocity": 97, "channel": 0}, {"type": "note_off", "time": 96, "note": 58, "velocity": 97, "channel": 0}, {"type": "note_on", "time": 3, "note": 59, "velocity": 115, "channel": 0}, {"type": "note_off", "time": 208, "note": 59, "velocity": 115, "channel": 0}, {"type": "note_on", "time": 0, "note": 58, "velocity": 109, "channel": 0}, {"type": "note_off", "time": 109, "note": 58, "velocity": 109, "channel": 0}, {"type": "note_on", "time": 7, "note": 55, "velocity": 108, "channel": 0}, {"type": "note_off", "time": 100, "note": 55, "velocity": 108, "channel": 0}, {"type": "note_on", "time": 13, "note": 56, "velocity": 106, "channel": 0}, {"type": "note_off", "time": 63, "note": 56, "velocity": 106, "channel": 0}, {"type": "note_on", "time": 8, "note": 58, "velocity": 100, "channel": 0}, {"type": "note_off", "time": 77, "note": 58, "velocity": 100, "channel": 0}, {"type": "note_on", "time": 9, "note": 59, "velocity": 104, "channel": 0}, {"type": "note_off", "time": 90, "note": 59, "velocity": 104, "channel": 0}, {"type": "note_on", "time": 0, "note": 61, "velocity": 112, "channel": 0}, {"type": "note_off", "time": 78, "note": 61, "velocity": 112, "channel": 0}, {"type": "note_on", "time": 1, "note": 62, "velocity": 110, "channel": 0}, {"type": "note_off", "time": 98, "note": 62, "velocity": 110, "channel": 0}, {"type": "note_on", "time": 1, "note": 65, "velocity": 100, "channel": 0}, {"type": "note_off", "time": 283, "note": 65, "velocity": 100, "channel": 0}, {"type": "note_on", "time": 19, "note": 60, "velocity": 97, "channel": 0}, {"type": "note_off", "time": 65, "note": 60, "velocity": 97, "channel": 0}, {"type": "note_on", "time": 30, "note": 65, "velocity": 100, "channel": 0}, {"type": "note_off", "time": 262, "note": 65, "velocity": 100, "channel": 0}, {"type": "note_on", "time": 9, "note": 60, "velocity": 91, "channel": 0}, {"type": "note_off", "time": 84, "note": 60, "velocity": 91, "channel": 0}, {"type": "note_on", "time": 0, "note": 63, "velocity": 123, "channel": 0}, {"type": "note_off", "time": 148, "note": 63, "velocity": 123, "channel": 0}, {"type": "note_on", "time": 53, "note": 65, "velocity": 100, "channel": 0}, {"type": "note_off", "time": 169, "note": 65, "velocity": 100, "channel": 0}, {"type": "note_on", "time": 737, "note": 58, "velocity": 93, "channel": 0}, {"type": "note_off", "time": 80, "note": 58, "velocity": 93, "channel": 0}, {"type": "note_on", "time": 30, "note": 67, "velocity": 105, "channel": 0}, {"type": "note_off", "time": 144, "note": 67, "velocity": 105, "channel": 0}, {"type": "note_on", "time": 48, "note": 65, "velocity": 105, "channel": 0}, {"type": "note_off", "time": 84, "note": 65, "velocity": 105, "channel": 0}, {"type": "note_on", "time": 23, "note": 63, "velocity": 111, "channel": 0}, {"type": "note_off", "time": 188, "note": 63, "velocity": 111, "channel": 0}, {"type": "note_on", "time": 603, "note": 58, "velocity": 95, "channel": 0}, {"type": "note_off", "time": 53, "note": 58, "velocity": 95, "channel": 0}, {"type": "note_on", "time": 19, "note": 67, "velocity": 105, "channel": 0}, {"type": "note_off", "time": 150, "note": 67, "velocity": 105, "channel": 0}, {"type": "note_on", "time": 4, "note": 60, "velocity": 97, "channel": 0}, {"type": "note_off", "time": 52, "note": 60, "velocity": 97, "channel": 0}, {"type": "note_on", "time": 14, "note": 65, "velocity": 92, "channel": 0}, {"type": "note_off", "time": 117, "note": 65, "velocity": 92, "channel": 0}, {"type": "note_on", "time": 4, "note": 60, "velocity": 95, "channel": 0}, {"type": "note_off", "time": 43, "note": 60, "velocity": 95, "channel": 0}, {"type": "note_on", "time": 5, "note": 63, "velocity": 124, "channel": 0}, {"type": "note_off", "time": 123, "note": 63, "velocity": 124, "channel": 0}, {"type": "note_on", "time": 4, "note": 56, "velocity": 107, "channel": 0}, {"type": "note_off", "time": 46, "note": 56, "velocity": 107, "channel": 0}, {"type": "note_on", "time": 8, "note": 62, "velocity": 119, "channel": 0}, {"type": "note_off", "time": 136, "note": 62, "velocity": 119, "channel": 0}, {"type": "note_on", "time": 0, "note": 59, "velocity": 101, "channel": 0}, {"type": "note_on", "time": 75, "note": 60, "velocity": 97, "channel": 0}, {"type": "note_off", "time": 0, "note": 59, "velocity": 101, "channel": 0}, {"type": "note_off", "time": 73, "note": 60, "velocity": 97, "channel": 0}, {"type": "note_on", "time": 5, "note": 62, "velocity": 111, "channel": 0}, {"type": "note_off", "time": 115, "note": 62, "velocity": 111, "channel": 0}, {"type": "note_on", "time": 0, "note": 63, "velocity": 112, "channel": 0}, {"type": "note_off", "time": 94, "note": 63, "velocity": 112, "channel": 0}, {"type": "note_on", "time": 5, "note": 65, "velocity": 95, "channel": 0}, {"type": "note_off", "time": 87, "note": 65, "velocity": 95, "channel": 0}, {"type": "note_on", "time": 1, "note": 67, "velocity": 91, "channel": 0}, {"type": "note_off", "time": 82, "note": 67, "velocity": 91, "channel": 0}, {"type": "note_on", "time": 1, "note": 71, "velocity": 110, "channel": 0}, {"type": "note_off", "time": 71, "note": 71, "velocity": 110, "channel": 0}, {"type": "note_on", "time": 0, "note": 74, "velocity": 117, "channel": 0}, {"type": "note_off", "time": 131, "note": 74, "velocity": 117, "channel": 0}, {"type": "note_on", "time": 4, "note": 72, "velocity": 105, "channel": 0}, {"type": "note_off", "time": 91, "note": 72, "velocity": 105, "channel": 0}, {"type": "note_on", "time": 297, "note": 62, "velocity": 94, "channel": 0}, {"type": "note_off", "time": 36, "note": 62, "velocity": 94, "channel": 0}, {"type": "note_on", "time": 5, "note": 77, "velocity": 111, "channel": 0}, {"type": "note_off", "time": 153, "note": 77, "velocity": 111, "channel": 0}, {"type": "note_on", "time": 2, "note": 72, "velocity": 101, "channel": 0}, {"type": "note_off", "time": 26, "note": 72, "velocity": 101, "channel": 0}, {"type": "note_on", "time": 4, "note": 75, "velocity": 116, "channel": 0}, {"type": "note_off", "time": 197, "note": 75, "velocity": 116, "channel": 0}, {"type": "note_on", "time": 345, "note": 63, "velocity": 107, "channel": 0}, {"type": "note_off", "time": 49, "note": 63, "velocity": 107, "channel": 0}, {"type": "note_on", "time": 30, "note": 74, "velocity": 115, "channel": 0}, {"type": "note_off", "time": 256, "note": 74, "velocity": 115, "channel": 0}, {"type": "note_on", "time": 5, "note": 63, "velocity": 115, "channel": 0}, {"type": "note_off", "time": 49, "note": 63, "velocity": 115, "channel": 0}, {"type": "note_on", "time": 4, "note": 72, "velocity": 113, "channel": 0}, {"type": "note_off", "time": 80, "note": 72, "velocity": 113, "channel": 0}, {"type": "note_on", "time": 10, "note": 73, "velocity": 95, "channel": 0}, {"type": "note_off", "time": 221, "note": 73, "velocity": 95, "channel": 0}, {"type": "note_on", "time": 15, "note": 70, "velocity": 113, "channel": 0}, {"type": "note_off", "time": 184, "note": 70, "velocity": 113, "channel": 0}, {"type": "note_on", "time": 8, "note": 68, "velocity": 117, "channel": 0}, {"type": "note_off", "time": 110, "note": 68, "velocity": 117, "channel": 0}, {"type": "note_on", "time": 2, "note": 67, "velocity": 107, "channel": 0}, {"type": "note_off", "time": 90, "note": 67, "velocity": 107, "channel": 0}, {"type": "note_on", "time": 1, "note": 65, "velocity": 91, "channel": 0}, {"type": "note_off", "time": 65, "note": 65, "velocity": 91, "channel": 0}, {"type": "note_on", "time": 19, "note": 68, "velocity": 107, "channel": 0}, {"type": "note_off", "time": 142, "note": 68, "velocity": 107, "channel": 0}, {"type": "note_on", "time": 42, "note": 64, "velocity": 110, "channel": 0}, {"type": "note_off", "time": 95, "note": 64, "velocity": 110, "channel": 0}, {"type": "note_on", "time": 13, "note": 68, "velocity": 115, "channel": 0}, {"type": "note_off", "time": 104, "note": 68, "velocity": 115, "channel": 0}, {"type": "note_on", "time": 6, "note": 67, "velocity": 114, "channel": 0}, {"type": "note_off", "time": 65, "note": 67, "velocity": 114, "channel": 0}, {"type": "note_on", "time": 2, "note": 66, "velocity": 112, "channel": 0}, {"type": "note_off", "time": 93, "note": 66, "velocity": 112, "channel": 0}, {"type": "note_on", "time": 68, "note": 64, "velocity": 122, "channel": 0}, {"type": "note_off", "time": 126, "note": 64, "velocity": 122, "channel": 0}, {"type": "note_on", "time": 0, "note": 62, "velocity": 112, "channel": 0}, {"type": "note_off", "time": 79, "note": 62, "velocity": 112, "channel": 0}, {"type": "note_on", "time": 4, "note": 60, "velocity": 101, "channel": 0}, {"type": "note_off", "time": 57, "note": 60, "velocity": 101, "channel": 0}, {"type": "note_on", "time": 4, "note": 63, "velocity": 125, "channel": 0}, {"type": "note_off", "time": 178, "note": 63, "velocity": 125, "channel": 0}, {"type": "note_on", "time": 709, "note": 58, "velocity": 98, "channel": 0}, {"type": "note_off", "time": 109, "note": 58, "velocity": 98, "channel": 0}, {"type": "note_on", "time": 86, "note": 57, "velocity": 110, "channel": 0}, {"type": "note_off", "time": 115, "note": 57, "velocity": 110, "channel": 0}, {"type": "note_on", "time": 5, "note": 62, "velocity": 99, "channel": 0}, {"type": "note_off", "time": 153, "note": 62, "velocity": 99, "channel": 0}, {"type": "note_on", "time": 23, "note": 67, "velocity": 108, "channel": 0}, {"type": "note_off", "time": 102, "note": 67, "velocity": 108, "channel": 0}, {"type": "note_on", "time": 11, "note": 72, "velocity": 103, "channel": 0}, {"type": "note_off", "time": 69, "note": 72, "velocity": 103, "channel": 0}, {"type": "note_on", "time": 5, "note": 75, "velocity": 117, "channel": 0}, {"type": "note_off", "time": 80, "note": 75, "velocity": 117, "channel": 0}, {"type": "note_on", "time": 0, "note": 79, "velocity": 112, "channel": 0}, {"type": "note_off", "time": 115, "note": 79, "velocity": 112, "channel": 0}, {"type": "note_on", "time": 5, "note": 73, "velocity": 88, "channel": 0}, {"type": "note_off", "time": 73, "note": 73, "velocity": 88, "channel": 0}, {"type": "note_on", "time": 0, "note": 74, "velocity": 112, "channel": 0}, {"type": "note_off", "time": 75, "note": 74, "velocity": 112, "channel": 0}, {"type": "note_on", "time": 5, "note": 77, "velocity": 112, "channel": 0}, {"type": "note_off", "time": 86, "note": 77, "velocity": 112, "channel": 0}, {"type": "note_on", "time": 5, "note": 76, "velocity": 127, "channel": 0}, {"type": "note_off", "time": 96, "note": 76, "velocity": 127, "channel": 0}, {"type": "note_on", "time": 23, "note": 75, "velocity": 110, "channel": 0}, {"type": "note_off", "time": 154, "note": 75, "velocity": 110, "channel": 0}, {"type": "note_on", "time": 74, "note": 70, "velocity": 123, "channel": 0}, {"type": "note_off", "time": 36, "note": 70, "velocity": 123, "channel": 0}, {"type": "note_on", "time": 1, "note": 71, "velocity": 114, "channel": 0}, {"type": "note_off", "time": 138, "note": 71, "velocity": 114, "channel": 0}, {"type": "note_on", "time": 108, "note": 70, "velocity": 115, "channel": 0}, {"type": "note_off", "time": 111, "note": 70, "velocity": 115, "channel": 0}, {"type": "note_on", "time": 15, "note": 62, "velocity": 107, "channel": 0}, {"type": "note_off", "time": 98, "note": 62, "velocity": 107, "channel": 0}, {"type": "note_on", "time": 0, "note": 67, "velocity": 104, "channel": 0}, {"type": "note_off", "time": 55, "note": 67, "velocity": 104, "channel": 0}, {"type": "note_on", "time": 7, "note": 70, "velocity": 120, "channel": 0}, {"type": "note_off", "time": 92, "note": 70, "velocity": 120, "channel": 0}, {"type": "note_on", "time": 955, "note": 67, "velocity": 117, "channel": 0}, {"type": "note_off", "time": 113, "note": 67, "velocity": 117, "channel": 0}, {"type": "note_on", "time": 5, "note": 69, "velocity": 106, "channel": 0}, {"type": "note_off", "time": 253, "note": 69, "velocity": 106, "channel": 0}, {"type": "note_on", "time": 90, "note": 67, "velocity": 103, "channel": 0}, {"type": "note_off", "time": 346, "note": 67, "velocity": 103, "channel": 0}, {"type": "note_on", "time": 2, "note": 62, "velocity": 104, "channel": 0}, {"type": "note_off", "time": 279, "note": 62, "velocity": 104, "channel": 0}, {"type": "note_on", "time": 41, "note": 65, "velocity": 98, "channel": 0}, {"type": "note_off", "time": 256, "note": 65, "velocity": 98, "channel": 0}, {"type": "note_on", "time": 113, "note": 62, "velocity": 105, "channel": 0}, {"type": "note_off", "time": 90, "note": 62, "velocity": 105, "channel": 0}, {"type": "note_on", "time": 6, "note": 63, "velocity": 113, "channel": 0}, {"type": "note_off", "time": 202, "note": 63, "velocity": 113, "channel": 0}, {"type": "note_on", "time": 911, "note": 58, "velocity": 88, "channel": 0}, {"type": "note_off", "time": 30, "note": 58, "velocity": 88, "channel": 0}, {"type": "note_on", "time": 12, "note": 62, "velocity": 109, "channel": 0}, {"type": "note_off", "time": 297, "note": 62, "velocity": 109, "channel": 0}, {"type": "note_on", "time": 1, "note": 61, "velocity": 122, "channel": 0}, {"type": "note_off", "time": 82, "note": 61, "velocity": 122, "channel": 0}, {"type": "note_on", "time": 6, "note": 60, "velocity": 98, "channel": 0}, {"type": "note_off", "time": 109, "note": 60, "velocity": 98, "channel": 0}, {"type": "note_on", "time": 0, "note": 62, "velocity": 118, "channel": 0}, {"type": "note_off", "time": 123, "note": 62, "velocity": 118, "channel": 0}, {"type": "note_on", "time": 6, "note": 63, "velocity": 103, "channel": 0}, {"type": "note_off", "time": 113, "note": 63, "velocity": 103, "channel": 0}, {"type": "note_on", "time": 0, "note": 65, "velocity": 89, "channel": 0}, {"type": "note_off", "time": 75, "note": 65, "velocity": 89, "channel": 0}, {"type": "note_on", "time": 13, "note": 67, "velocity": 100, "channel": 0}, {"type": "note_off", "time": 76, "note": 67, "velocity": 100, "channel": 0}, {"type": "note_on", "time": 1, "note": 71, "velocity": 108, "channel": 0}, {"type": "note_off", "time": 69, "note": 71, "velocity": 108, "channel": 0}, {"type": "note_on", "time": 1, "note": 74, "velocity": 114, "channel": 0}, {"type": "note_off", "time": 121, "note": 74, "velocity": 114, "channel": 0}, {"type": "note_on", "time": 5, "note": 71, "velocity": 101, "channel": 0}, {"type": "note_off", "time": 52, "note": 71, "velocity": 101, "channel": 0}, {"type": "note_on", "time": 11, "note": 72, "velocity": 107, "channel": 0}, {"type": "note_off", "time": 104, "note": 72, "velocity": 107, "channel": 0}, {"type": "note_on", "time": 9, "note": 74, "velocity": 107, "channel": 0}, {"type": "note_off", "time": 80, "note": 74, "velocity": 107, "channel": 0}, {"type": "note_on", "time": 5, "note": 75, "velocity": 109, "channel": 0}, {"type": "note_off", "time": 88, "note": 75, "velocity": 109, "channel": 0}, {"type": "note_on", "time": 7, "note": 77, "velocity": 112, "channel": 0}, {"type": "note_off", "time": 77, "note": 77, "velocity": 112, "channel": 0}, {"type": "note_on", "time": 21, "note": 78, "velocity": 112, "channel": 0}, {"type": "note_off", "time": 96, "note": 78, "velocity": 112, "channel": 0}, {"type": "note_on", "time": 11, "note": 79, "velocity": 106, "channel": 0}, {"type": "note_off", "time": 61, "note": 79, "velocity": 106, "channel": 0}, {"type": "note_on", "time": 11, "note": 82, "velocity": 106, "channel": 0}, {"type": "note_off", "time": 100, "note": 82, "velocity": 106, "channel": 0}, {"type": "note_on", "time": 5, "note": 81, "velocity": 101, "channel": 0}, {"type": "note_off", "time": 67, "note": 81, "velocity": 101, "channel": 0}, {"type": "note_on", "time": 13, "note": 80, "velocity": 109, "channel": 0}, {"type": "note_off", "time": 77, "note": 80, "velocity": 109, "channel": 0}, {"type": "note_on", "time": 3, "note": 78, "velocity": 121, "channel": 0}, {"type": "note_off", "time": 159, "note": 78, "velocity": 121, "channel": 0}, {"type": "note_on", "time": 23, "note": 75, "velocity": 121, "channel": 0}, {"type": "note_off", "time": 140, "note": 75, "velocity": 121, "channel": 0}, {"type": "note_on", "time": 7, "note": 74, "velocity": 101, "channel": 0}, {"type": "note_off", "time": 80, "note": 74, "velocity": 101, "channel": 0}, {"type": "note_on", "time": 50, "note": 75, "velocity": 110, "channel": 0}, {"type": "note_off", "time": 221, "note": 75, "velocity": 110, "channel": 0}, {"type": "note_on", "time": 2082, "note": 78, "velocity": 120, "channel": 0}, {"type": "note_off", "time": 119, "note": 78, "velocity": 120, "channel": 0}, {"type": "note_on", "time": 7, "note": 79, "velocity": 98, "channel": 0}, {"type": "note_off", "time": 71, "note": 79, "velocity": 98, "channel": 0}, {"type": "note_on", "time": 19, "note": 87, "velocity": 109, "channel": 0}, {"type": "note_off", "time": 78, "note": 87, "velocity": 109, "channel": 0}, {"type": "note_on", "time": 11, "note": 77, "velocity": 106, "channel": 0}, {"type": "note_off", "time": 92, "note": 77, "velocity": 106, "channel": 0}, {"type": "note_on", "time": 9, "note": 78, "velocity": 110, "channel": 0}, {"type": "note_off", "time": 75, "note": 78, "velocity": 110, "channel": 0}, {"type": "note_on", "time": 3, "note": 86, "velocity": 98, "channel": 0}, {"type": "note_off", "time": 55, "note": 86, "velocity": 98, "channel": 0}, {"type": "note_on", "time": 1, "note": 76, "velocity": 125, "channel": 0}, {"type": "note_off", "time": 131, "note": 76, "velocity": 125, "channel": 0}, {"type": "note_on", "time": 3, "note": 77, "velocity": 100, "channel": 0}, {"type": "note_off", "time": 53, "note": 77, "velocity": 100, "channel": 0}, {"type": "note_on", "time": 9, "note": 85, "velocity": 109, "channel": 0}, {"type": "note_off", "time": 82, "note": 85, "velocity": 109, "channel": 0}, {"type": "note_on", "time": 5, "note": 75, "velocity": 118, "channel": 0}, {"type": "note_off", "time": 132, "note": 75, "velocity": 118, "channel": 0}, {"type": "note_on", "time": 10, "note": 76, "velocity": 109, "channel": 0}, {"type": "note_off", "time": 38, "note": 76, "velocity": 109, "channel": 0}, {"type": "note_on", "time": 5, "note": 84, "velocity": 113, "channel": 0}, {"type": "note_off", "time": 84, "note": 84, "velocity": 113, "channel": 0}, {"type": "note_on", "time": 3, "note": 74, "velocity": 114, "channel": 0}, {"type": "note_off", "time": 200, "note": 74, "velocity": 114, "channel": 0}, {"type": "note_on", "time": 462, "note": 83, "velocity": 114, "channel": 0}, {"type": "note_off", "time": 26, "note": 83, "velocity": 114, "channel": 0}, {"type": "note_on", "time": 0, "note": 82, "velocity": 117, "channel": 0}, {"type": "note_off", "time": 30, "note": 82, "velocity": 117, "channel": 0}, {"type": "note_on", "time": 3, "note": 80, "velocity": 108, "channel": 0}, {"type": "note_off", "time": 104, "note": 80, "velocity": 108, "channel": 0}, {"type": "note_on", "time": 9, "note": 79, "velocity": 114, "channel": 0}, {"type": "note_off", "time": 90, "note": 79, "velocity": 114, "channel": 0}, {"type": "note_on", "time": 9, "note": 78, "velocity": 118, "channel": 0}, {"type": "note_off", "time": 167, "note": 78, "velocity": 118, "channel": 0}, {"type": "note_on", "time": 389, "note": 77, "velocity": 110, "channel": 0}, {"type": "note_off", "time": 150, "note": 77, "velocity": 110, "channel": 0}, {"type": "note_on", "time": 5, "note": 74, "velocity": 107, "channel": 0}, {"type": "note_off", "time": 54, "note": 74, "velocity": 107, "channel": 0}, {"type": "note_on", "time": 10, "note": 75, "velocity": 111, "channel": 0}, {"type": "note_off", "time": 60, "note": 75, "velocity": 111, "channel": 0}, {"type": "note_on", "time": 8, "note": 77, "velocity": 114, "channel": 0}, {"type": "note_off", "time": 54, "note": 77, "velocity": 114, "channel": 0}, {"type": "note_on", "time": 5, "note": 75, "velocity": 122, "channel": 0}, {"type": "note_off", "time": 90, "note": 75, "velocity": 122, "channel": 0}, {"type": "note_on", "time": 3, "note": 74, "velocity": 104, "channel": 0}, {"type": "note_off", "time": 75, "note": 74, "velocity": 104, "channel": 0}, {"type": "note_on", "time": 3, "note": 72, "velocity": 104, "channel": 0}, {"type": "note_off", "time": 78, "note": 72, "velocity": 104, "channel": 0}, {"type": "note_on", "time": 13, "note": 71, "velocity": 107, "channel": 0}, {"type": "note_off", "time": 65, "note": 71, "velocity": 107, "channel": 0}, {"type": "note_on", "time": 13, "note": 74, "velocity": 118, "channel": 0}, {"type": "note_off", "time": 109, "note": 74, "velocity": 118, "channel": 0}, {"type": "note_on", "time": 17, "note": 73, "velocity": 105, "channel": 0}, {"type": "note_off", "time": 50, "note": 73, "velocity": 105, "channel": 0}, {"type": "note_on", "time": 13, "note": 71, "velocity": 96, "channel": 0}, {"type": "note_off", "time": 57, "note": 71, "velocity": 96, "channel": 0}, {"type": "note_on", "time": 13, "note": 72, "velocity": 108, "channel": 0}, {"type": "note_off", "time": 273, "note": 72, "velocity": 108, "channel": 0}, {"type": "note_on", "time": 161, "note": 68, "velocity": 103, "channel": 0}, {"type": "note_off", "time": 194, "note": 68, "velocity": 103, "channel": 0}, {"type": "note_on", "time": 3, "note": 67, "velocity": 97, "channel": 0}, {"type": "note_on", "time": 67, "note": 66, "velocity": 114, "channel": 0}, {"type": "note_off", "time": 0, "note": 67, "velocity": 97, "channel": 0}, {"type": "note_off", "time": 213, "note": 66, "velocity": 114, "channel": 0}, {"type": "note_on", "time": 11, "note": 64, "velocity": 112, "channel": 0}, {"type": "note_off", "time": 77, "note": 64, "velocity": 112, "channel": 0}, {"type": "note_on", "time": 0, "note": 63, "velocity": 123, "channel": 0}, {"type": "note_off", "time": 171, "note": 63, "velocity": 123, "channel": 0}, {"type": "note_on", "time": 40, "note": 59, "velocity": 97, "channel": 0}, {"type": "note_off", "time": 55, "note": 59, "velocity": 97, "channel": 0}, {"type": "note_on", "time": 0, "note": 62, "velocity": 118, "channel": 0}, {"type": "note_on", "time": 127, "note": 61, "velocity": 111, "channel": 0}, {"type": "note_off", "time": 0, "note": 62, "velocity": 118, "channel": 0}, {"type": "note_off", "time": 90, "note": 61, "velocity": 111, "channel": 0}, {"type": "note_on", "time": 9, "note": 59, "velocity": 99, "channel": 0}, {"type": "note_off", "time": 61, "note": 59, "velocity": 99, "channel": 0}, {"type": "note_on", "time": 19, "note": 60, "velocity": 111, "channel": 0}, {"type": "note_off", "time": 115, "note": 60, "velocity": 111, "channel": 0}, {"type": "note_on", "time": 0, "note": 56, "velocity": 100, "channel": 0}, {"type": "note_off", "time": 55, "note": 56, "velocity": 100, "channel": 0}, {"type": "note_on", "time": 72, "note": 56, "velocity": 107, "channel": 0}, {"type": "note_off", "time": 276, "note": 56, "velocity": 107, "channel": 0}, {"type": "note_on", "time": 26, "note": 67, "velocity": 105, "channel": 0}, {"type": "note_off", "time": 173, "note": 67, "velocity": 105, "channel": 0}, {"type": "note_on", "time": 5, "note": 65, "velocity": 92, "channel": 0}, {"type": "note_off", "time": 109, "note": 65, "velocity": 92, "channel": 0}, {"type": "note_on", "time": 9, "note": 67, "velocity": 105, "channel": 0}, {"type": "note_off", "time": 109, "note": 67, "velocity": 105, "channel": 0}, {"type": "note_on", "time": 5, "note": 68, "velocity": 99, "channel": 0}, {"type": "note_off", "time": 98, "note": 68, "velocity": 99, "channel": 0}, {"type": "note_on", "time": 5, "note": 69, "velocity": 108, "channel": 0}, {"type": "note_off", "time": 65, "note": 69, "velocity": 108, "channel": 0}, {"type": "note_on", "time": 0, "note": 70, "velocity": 116, "channel": 0}, {"type": "note_off", "time": 119, "note": 70, "velocity": 116, "channel": 0}, {"type": "note_on", "time": 2, "note": 69, "velocity": 106, "channel": 0}, {"type": "note_off", "time": 89, "note": 69, "velocity": 106, "channel": 0}, {"type": "note_on", "time": 5, "note": 68, "velocity": 106, "channel": 0}, {"type": "note_off", "time": 109, "note": 68, "velocity": 106, "channel": 0}, {"type": "note_on", "time": 8, "note": 67, "velocity": 94, "channel": 0}, {"type": "note_off", "time": 106, "note": 67, "velocity": 94, "channel": 0}, {"type": "note_on", "time": 2, "note": 68, "velocity": 101, "channel": 0}, {"type": "note_off", "time": 109, "note": 68, "velocity": 101, "channel": 0}, {"type": "note_on", "time": 1, "note": 69, "velocity": 102, "channel": 0}, {"type": "note_off", "time": 73, "note": 69, "velocity": 102, "channel": 0}, {"type": "note_on", "time": 1, "note": 70, "velocity": 116, "channel": 0}, {"type": "note_off", "time": 130, "note": 70, "velocity": 116, "channel": 0}, {"type": "note_on", "time": 8, "note": 69, "velocity": 112, "channel": 0}, {"type": "note_off", "time": 83, "note": 69, "velocity": 112, "channel": 0}, {"type": "note_on", "time": 1, "note": 68, "velocity": 108, "channel": 0}, {"type": "note_off", "time": 67, "note": 68, "velocity": 108, "channel": 0}, {"type": "note_on", "time": 8, "note": 67, "velocity": 101, "channel": 0}, {"type": "note_off", "time": 105, "note": 67, "velocity": 101, "channel": 0}, {"type": "note_on", "time": 5, "note": 68, "velocity": 106, "channel": 0}, {"type": "note_off", "time": 83, "note": 68, "velocity": 106, "channel": 0}, {"type": "note_on", "time": 2, "note": 69, "velocity": 109, "channel": 0}, {"type": "note_off", "time": 60, "note": 69, "velocity": 109, "channel": 0}, {"type": "note_on", "time": 8, "note": 70, "velocity": 117, "channel": 0}, {"type": "note_on", "time": 120, "note": 69, "velocity": 111, "channel": 0}, {"type": "note_off", "time": 0, "note": 70, "velocity": 117, "channel": 0}, {"type": "note_off", "time": 56, "note": 69, "velocity": 111, "channel": 0}, {"type": "note_on", "time": 0, "note": 68, "velocity": 110, "channel": 0}, {"type": "note_off", "time": 82, "note": 68, "velocity": 110, "channel": 0}, {"type": "note_on", "time": 2, "note": 67, "velocity": 104, "channel": 0}, {"type": "note_off", "time": 87, "note": 67, "velocity": 104, "channel": 0}, {"type": "note_on", "time": 6, "note": 68, "velocity": 107, "channel": 0}, {"type": "note_off", "time": 91, "note": 68, "velocity": 107, "channel": 0}, {"type": "note_on", "time": 3, "note": 69, "velocity": 106, "channel": 0}, {"type": "note_off", "time": 65, "note": 69, "velocity": 106, "channel": 0}, {"type": "note_on", "time": 23, "note": 70, "velocity": 118, "channel": 0}, {"type": "note_off", "time": 69, "note": 70, "velocity": 118, "channel": 0}, {"type": "note_on", "time": 19, "note": 69, "velocity": 113, "channel": 0}, {"type": "note_off", "time": 65, "note": 69, "velocity": 113, "channel": 0}, {"type": "note_on", "time": 8, "note": 68, "velocity": 107, "channel": 0}, {"type": "note_off", "time": 71, "note": 68, "velocity": 107, "channel": 0}, {"type": "note_on", "time": 0, "note": 67, "velocity": 106, "channel": 0}, {"type": "note_off", "time": 89, "note": 67, "velocity": 106, "channel": 0}, {"type": "note_on", "time": 12, "note": 68, "velocity": 95, "channel": 0}, {"type": "note_off", "time": 119, "note": 68, "velocity": 95, "channel": 0}, {"type": "note_on", "time": 5, "note": 69, "velocity": 104, "channel": 0}, {"type": "note_off", "time": 67, "note": 69, "velocity": 104, "channel": 0}, {"type": "note_on", "time": 1, "note": 70, "velocity": 117, "channel": 0}, {"type": "note_off", "time": 104, "note": 70, "velocity": 117, "channel": 0}, {"type": "note_on", "time": 5, "note": 69, "velocity": 108, "channel": 0}, {"type": "note_off", "time": 83, "note": 69, "velocity": 108, "channel": 0}, {"type": "note_on", "time": 9, "note": 68, "velocity": 107, "channel": 0}, {"type": "note_off", "time": 82, "note": 68, "velocity": 107, "channel": 0}, {"type": "note_on", "time": 10, "note": 67, "velocity": 99, "channel": 0}, {"type": "note_off", "time": 79, "note": 67, "velocity": 99, "channel": 0}, {"type": "note_on", "time": 4, "note": 68, "velocity": 106, "channel": 0}, {"type": "note_off", "time": 102, "note": 68, "velocity": 106, "channel": 0}, {"type": "note_on", "time": 2, "note": 69, "velocity": 109, "channel": 0}, {"type": "note_off", "time": 83, "note": 69, "velocity": 109, "channel": 0}, {"type": "note_on", "time": 2, "note": 70, "velocity": 119, "channel": 0}, {"type": "note_off", "time": 101, "note": 70, "velocity": 119, "channel": 0}, {"type": "note_on", "time": 2, "note": 69, "velocity": 110, "channel": 0}, {"type": "note_off", "time": 93, "note": 69, "velocity": 110, "channel": 0}, {"type": "note_on", "time": 5, "note": 68, "velocity": 105, "channel": 0}, {"type": "note_off", "time": 75, "note": 68, "velocity": 105, "channel": 0}, {"type": "note_on", "time": 4, "note": 67, "velocity": 100, "channel": 0}, {"type": "note_off", "time": 90, "note": 67, "velocity": 100, "channel": 0}, {"type": "note_on", "time": 12, "note": 68, "velocity": 100, "channel": 0}, {"type": "note_off", "time": 91, "note": 68, "velocity": 100, "channel": 0}, {"type": "note_on", "time": 6, "note": 69, "velocity": 104, "channel": 0}, {"type": "note_off", "time": 90, "note": 69, "velocity": 104, "channel": 0}, {"type": "note_on", "time": 5, "note": 70, "velocity": 118, "channel": 0}, {"type": "note_off", "time": 93, "note": 70, "velocity": 118, "channel": 0}, {"type": "note_on", "time": 0, "note": 69, "velocity": 111, "channel": 0}, {"type": "note_off", "time": 87, "note": 69, "velocity": 111, "channel": 0}, {"type": "note_on", "time": 15, "note": 68, "velocity": 105, "channel": 0}, {"type": "note_on", "time": 86, "note": 67, "velocity": 97, "channel": 0}, {"type": "note_off", "time": 0, "note": 68, "velocity": 105, "channel": 0}, {"type": "note_off", "time": 116, "note": 67, "velocity": 97, "channel": 0}, {"type": "note_on", "time": 5, "note": 68, "velocity": 101, "channel": 0}, {"type": "note_off", "time": 71, "note": 68, "velocity": 101, "channel": 0}, {"type": "note_on", "time": 2, "note": 69, "velocity": 108, "channel": 0}, {"type": "note_off", "time": 80, "note": 69, "velocity": 108, "channel": 0}, {"type": "note_on", "time": 13, "note": 70, "velocity": 116, "channel": 0}, {"type": "note_off", "time": 97, "note": 70, "velocity": 116, "channel": 0}, {"type": "note_on", "time": 3, "note": 69, "velocity": 107, "channel": 0}, {"type": "note_off", "time": 90, "note": 69, "velocity": 107, "channel": 0}, {"type": "note_on", "time": 1, "note": 68, "velocity": 100, "channel": 0}, {"type": "note_off", "time": 152, "note": 68, "velocity": 100, "channel": 0}, {"type": "note_on", "time": 18, "note": 67, "velocity": 107, "channel": 0}, {"type": "note_off", "time": 247, "note": 67, "velocity": 107, "channel": 0}, {"type": "note_on", "time": 22, "note": 70, "velocity": 110, "channel": 0}, {"type": "note_off", "time": 275, "note": 70, "velocity": 110, "channel": 0}, {"type": "note_on", "time": 17, "note": 75, "velocity": 118, "channel": 0}, {"type": "note_off", "time": 271, "note": 75, "velocity": 118, "channel": 0}, {"type": "note_on", "time": 21, "note": 80, "velocity": 116, "channel": 0}, {"type": "note_off", "time": 250, "note": 80, "velocity": 116, "channel": 0}, {"type": "note_on", "time": 15, "note": 85, "velocity": 98, "channel": 0}, {"type": "note_off", "time": 231, "note": 85, "velocity": 98, "channel": 0}, {"type": "note_on", "time": 37, "note": 80, "velocity": 108, "channel": 0}, {"type": "note_off", "time": 284, "note": 80, "velocity": 108, "channel": 0}, {"type": "note_on", "time": 37, "note": 91, "velocity": 113, "channel": 0}, {"type": "note_off", "time": 113, "note": 91, "velocity": 113, "channel": 0}, {"type": "note_on", "time": 9, "note": 90, "velocity": 98, "channel": 0}, {"type": "note_off", "time": 123, "note": 90, "velocity": 98, "channel": 0}, {"type": "note_on", "time": 67, "note": 89, "velocity": 112, "channel": 0}, {"type": "note_off", "time": 98, "note": 89, "velocity": 112, "channel": 0}, {"type": "note_on", "time": 3, "note": 88, "velocity": 80, "channel": 0}, {"type": "note_off", "time": 138, "note": 88, "velocity": 80, "channel": 0}, {"type": "note_on", "time": 986, "note": 89, "velocity": 111, "channel": 0}, {"type": "note_off", "time": 129, "note": 89, "velocity": 111, "channel": 0}, {"type": "note_on", "time": 5, "note": 88, "velocity": 88, "channel": 0}, {"type": "note_off", "time": 82, "note": 88, "velocity": 88, "channel": 0}, {"type": "note_on", "time": 13, "note": 87, "velocity": 99, "channel": 0}, {"type": "note_off", "time": 67, "note": 87, "velocity": 99, "channel": 0}, {"type": "note_on", "time": 7, "note": 83, "velocity": 114, "channel": 0}, {"type": "note_off", "time": 90, "note": 83, "velocity": 114, "channel": 0}, {"type": "note_on", "time": 23, "note": 82, "velocity": 101, "channel": 0}, {"type": "note_on", "time": 90, "note": 80, "velocity": 41, "channel": 0}, {"type": "note_off", "time": 0, "note": 82, "velocity": 101, "channel": 0}, {"type": "note_off", "time": 98, "note": 80, "velocity": 41, "channel": 0}, {"type": "note_on", "time": 9, "note": 79, "velocity": 85, "channel": 0}, {"type": "note_off", "time": 53, "note": 79, "velocity": 85, "channel": 0}, {"type": "note_on", "time": 5, "note": 78, "velocity": 123, "channel": 0}, {"type": "note_off", "time": 111, "note": 78, "velocity": 123, "channel": 0}, {"type": "note_on", "time": 9, "note": 77, "velocity": 106, "channel": 0}, {"type": "note_off", "time": 78, "note": 77, "velocity": 106, "channel": 0}, {"type": "note_on", "time": 13, "note": 75, "velocity": 110, "channel": 0}, {"type": "note_off", "time": 61, "note": 75, "velocity": 110, "channel": 0}, {"type": "note_on", "time": 30, "note": 78, "velocity": 121, "channel": 0}, {"type": "note_off", "time": 285, "note": 78, "velocity": 121, "channel": 0}, {"type": "note_on", "time": 21, "note": 74, "velocity": 113, "channel": 0}, {"type": "note_off", "time": 96, "note": 74, "velocity": 113, "channel": 0}, {"type": "note_on", "time": 739, "note": 77, "velocity": 107, "channel": 0}, {"type": "note_off", "time": 294, "note": 77, "velocity": 107, "channel": 0}, {"type": "note_on", "time": 5, "note": 74, "velocity": 119, "channel": 0}, {"type": "note_off", "time": 144, "note": 74, "velocity": 119, "channel": 0}, {"type": "note_on", "time": 5, "note": 71, "velocity": 109, "channel": 0}, {"type": "note_off", "time": 115, "note": 71, "velocity": 109, "channel": 0}, {"type": "note_on", "time": 11, "note": 67, "velocity": 101, "channel": 0}, {"type": "note_off", "time": 136, "note": 67, "velocity": 101, "channel": 0}, {"type": "note_on", "time": 5, "note": 69, "velocity": 103, "channel": 0}, {"type": "note_off", "time": 140, "note": 69, "velocity": 103, "channel": 0}, {"type": "note_on", "time": 707, "note": 74, "velocity": 125, "channel": 0}, {"type": "note_off", "time": 169, "note": 74, "velocity": 125, "channel": 0}, {"type": "note_on", "time": 7, "note": 71, "velocity": 115, "channel": 0}, {"type": "note_off", "time": 127, "note": 71, "velocity": 115, "channel": 0}, {"type": "note_on", "time": 7, "note": 67, "velocity": 101, "channel": 0}, {"type": "note_off", "time": 73, "note": 67, "velocity": 101, "channel": 0}, {"type": "note_on", "time": 25, "note": 62, "velocity": 103, "channel": 0}, {"type": "note_off", "time": 77, "note": 62, "velocity": 103, "channel": 0}, {"type": "note_on", "time": 21, "note": 64, "velocity": 115, "channel": 0}, {"type": "note_off", "time": 117, "note": 64, "velocity": 115, "channel": 0}, {"type": "note_on", "time": 495, "note": 62, "velocity": 102, "channel": 0}, {"type": "note_off", "time": 57, "note": 62, "velocity": 102, "channel": 0}, {"type": "note_on", "time": 30, "note": 71, "velocity": 121, "channel": 0}, {"type": "note_off", "time": 117, "note": 71, "velocity": 121, "channel": 0}, {"type": "note_on", "time": 26, "note": 67, "velocity": 108, "channel": 0}, {"type": "note_off", "time": 121, "note": 67, "velocity": 108, "channel": 0}, {"type": "note_on", "time": 17, "note": 62, "velocity": 102, "channel": 0}, {"type": "note_off", "time": 94, "note": 62, "velocity": 102, "channel": 0}, {"type": "note_on", "time": 15, "note": 59, "velocity": 95, "channel": 0}, {"type": "note_off", "time": 75, "note": 59, "velocity": 95, "channel": 0}, {"type": "note_on", "time": 15, "note": 60, "velocity": 106, "channel": 0}, {"type": "note_off", "time": 121, "note": 60, "velocity": 106, "channel": 0}, {"type": "note_on", "time": 530, "note": 69, "velocity": 118, "channel": 0}, {"type": "note_off", "time": 109, "note": 69, "velocity": 118, "channel": 0}, {"type": "note_on", "time": 0, "note": 65, "velocity": 100, "channel": 0}, {"type": "note_off", "time": 107, "note": 65, "velocity": 100, "channel": 0}, {"type": "note_on", "time": 7, "note": 62, "velocity": 109, "channel": 0}, {"type": "note_off", "time": 113, "note": 62, "velocity": 109, "channel": 0}, {"type": "note_on", "time": 1, "note": 57, "velocity": 95, "channel": 0}, {"type": "note_off", "time": 80, "note": 57, "velocity": 95, "channel": 0}, {"type": "note_on", "time": 11, "note": 59, "velocity": 109, "channel": 0}, {"type": "note_off", "time": 144, "note": 59, "velocity": 109, "channel": 0}, {"type": "note_on", "time": 547, "note": 67, "velocity": 116, "channel": 0}, {"type": "note_off", "time": 127, "note": 67, "velocity": 116, "channel": 0}, {"type": "note_on", "time": 23, "note": 62, "velocity": 111, "channel": 0}, {"type": "note_off", "time": 104, "note": 62, "velocity": 111, "channel": 0}, {"type": "note_on", "time": 5, "note": 59, "velocity": 106, "channel": 0}, {"type": "note_off", "time": 78, "note": 59, "velocity": 106, "channel": 0}, {"type": "note_on", "time": 19, "note": 55, "velocity": 97, "channel": 0}, {"type": "note_off", "time": 92, "note": 55, "velocity": 97, "channel": 0}, {"type": "note_on", "time": 19, "note": 57, "velocity": 103, "channel": 0}, {"type": "note_off", "time": 219, "note": 57, "velocity": 103, "channel": 0}, {"type": "note_on", "time": 483, "note": 65, "velocity": 98, "channel": 0}, {"type": "note_off", "time": 204, "note": 65, "velocity": 98, "channel": 0}, {"type": "note_on", "time": 44, "note": 62, "velocity": 104, "channel": 0}, {"type": "note_off", "time": 86, "note": 62, "velocity": 104, "channel": 0}, {"type": "note_on", "time": 15, "note": 57, "velocity": 101, "channel": 0}, {"type": "note_off", "time": 104, "note": 57, "velocity": 101, "channel": 0}, {"type": "note_on", "time": 9, "note": 53, "velocity": 94, "channel": 0}, {"type": "note_off", "time": 78, "note": 53, "velocity": 94, "channel": 0}, {"type": "note_on", "time": 7, "note": 55, "velocity": 97, "channel": 0}, {"type": "note_off", "time": 757, "note": 55, "velocity": 97, "channel": 0}, {"type": "note_on", "time": 23, "note": 63, "velocity": 111, "channel": 0}, {"type": "note_off", "time": 196, "note": 63, "velocity": 111, "channel": 0}, {"type": "note_on", "time": 15, "note": 60, "velocity": 93, "channel": 0}, {"type": "note_off", "time": 105, "note": 60, "velocity": 93, "channel": 0}, {"type": "note_on", "time": 9, "note": 55, "velocity": 98, "channel": 0}, {"type": "note_off", "time": 88, "note": 55, "velocity": 98, "channel": 0}, {"type": "note_on", "time": 19, "note": 51, "velocity": 87, "channel": 0}, {"type": "note_off", "time": 125, "note": 51, "velocity": 87, "channel": 0}, {"type": "note_on", "time": 1, "note": 53, "velocity": 77, "channel": 0}, {"type": "note_off", "time": 899, "note": 53, "velocity": 77, "channel": 0}, {"type": "end_of_track", "time": 0}]]}