{"ticks_per_beat": 192, "tracks": [[{"type": "track_name", "name": "Melody", "time": 0}, {"type": "set_tempo", "tempo": 209790, "time": 0}, {"type": "time_signature", "numerator": 4, "denominator": 4, "clocks_per_click": 24, "notated_32nd_notes_per_beat": 8, "time": 0}, {"type": "note_on", "time": 4249, "note": 61, "velocity": 115, "channel": 0}, {"type": "note_off", "time": 134, "note": 61, "velocity": 115, "channel": 0}, {"type": "note_on", "time": 0, "note": 67, "velocity": 111, "channel": 0}, {"type": "note_off", "time": 93, "note": 67, "velocity": 111, "channel": 0}, {"type": "note_on", "time": 0, "note": 61, "velocity": 112, "channel": 0}, {"type": "note_off", "time": 151, "note": 61, "velocity": 112, "channel": 0}, {"type": "note_on", "time": 435, "note": 61, "velocity": 114, "channel": 0}, {"type": "note_off", "time": 121, "note": 61, "velocity": 114, "channel": 0}, {"type": "note_on", "time": 7, "note": 58, "velocity": 94, "channel": 0}, {"type": "note_off", "time": 76, "note": 58, "velocity": 94, "channel": 0}, {"type": "note_on", "time": 0, "note": 61, "velocity": 107, "channel": 0}, {"type": "note_off", "time": 130, "note": 61, "velocity": 107, "channel": 0}, {"type": "note_on", "time": 842, "note": 67, "velocity": 122, "channel": 0}, {"type": "note_off", "time": 119, "note": 67, "velocity": 122, "channel": 0}, {"type": "note_on", "time": 7, "note": 66, "velocity": 113, "channel": 0}, {"type": "note_off", "time": 104, "note": 66, "velocity": 113, "channel": 0}, {"type": "note_on", "time": 14, "note": 65, "velocity": 112, "channel": 0}, {"type": "note_off", "time": 59, "note": 65, "velocity": 112, "channel": 0}, {"type": "note_on", "time": 7, "note": 64, "velocity": 116, "channel": 0}, {"type": "note_off", "time": 85, "note": 64, "velocity": 116, "channel": 0}, {"type": "note_on", "time": 7, "note": 63, "velocity": 116, "channel": 0}, {"type": "note_off", "time": 78, "note": 63, "velocity": 116, "channel": 0}, {"type": "note_on", "time": 5, "note": 61, "velocity": 115, "channel": 0}, {"type": "note_off", "time": 91, "note": 61, "velocity": 115, "channel": 0}, {"type": "note_on", "time": 0, "note": 60, "velocity": 105, "channel": 0}, {"type": "note_off", "time": 70, "note": 60, "velocity": 105, "channel": 0}, {"type": "note_on", "time": 13, "note": 58, "velocity": 107, "channel": 0}, {"type": "note_off", "time": 104, "note": 58, "velocity": 107, "channel": 0}, {"type": "note_on", "time": 13, "note": 56, "velocity": 108, "channel": 0}, {"type": "note_off", "time": 91, "note": 56, "velocity": 108, "channel": 0}, {"type": "note_on", "time": 662, "note": 56, "velocity": 116, "channel": 0}, {"type": "note_off", "time": 170, "note": 56, "velocity": 116, "channel": 0}, {"type": "note_on", "time": 26, "note": 55, "velocity": 108, "channel": 0}, {"type": "note_off", "time": 119, "note": 55, "velocity": 108, "channel": 0}, {"type": "note_on", "time": 13, "note": 52, "velocity": 100, "channel": 0}, {"type": "note_off", "time": 87, "note": 52, "velocity": 100, "channel": 0}, {"type": "note_on", "time": 2, "note": 53, "velocity": 107, "channel": 0}, {"type": "note_off", "time": 63, "note": 53, "velocity": 107, "channel": 0}, {"type": "note_on", "time": 2, "note": 54, "velocity": 113, "channel": 0}, {"type": "note_off", "time": 71, "note": 54, "velocity": 113, "channel": 0}, {"type": "note_on", "time": 13, "note": 53, "velocity": 106, "channel": 0}, {"type": "note_off", "time": 77, "note": 53, "velocity": 106, "channel": 0}, {"type": "note_on", "time": 5, "note": 54, "velocity": 90, "channel": 0}, {"type": "note_off", "time": 66, "note": 54, "velocity": 90, "channel": 0}, {"type": "note_on", "time": 637, "note": 54, "velocity": 119, "channel": 0}, {"type": "note_off", "time": 130, "note": 54, "velocity": 119, "channel": 0}, {"type": "note_on", "time": 2, "note": 52, "velocity": 102, "channel": 0}, {"type": "note_off", "time": 82, "note": 52, "velocity": 102, "channel": 0}, {"type": "note_on", "time": 0, "note": 53, "velocity": 115, "channel": 0}, {"type": "note_off", "time": 116, "note": 53, "velocity": 115, "channel": 0}, {"type": "note_on", "time": 7, "note": 51, "velocity": 105, "channel": 0}, {"type": "note_off", "time": 92, "note": 51, "velocity": 105, "channel": 0}, {"type": "note_on", "time": 10, "note": 50, "velocity": 96, "channel": 0}, {"type": "note_off", "time": 95, "note": 50, "velocity": 96, "channel": 0}, {"type": "note_on", "time": 13, "note": 51, "velocity": 108, "channel": 0}, {"type": "note_off", "time": 108, "note": 51, "velocity": 108, "channel": 0}, {"type": "note_on", "time": 0, "note": 55, "velocity": 104, "channel": 0}, {"type": "note_off", "time": 69, "note": 55, "velocity": 104, "channel": 0}, {"type": "note_on", "time": 0, "note": 58, "velocity": 105, "channel": 0}, {"type": "note_off", "time": 58, "note": 58, "velocity": 105, "channel": 0}, {"type": "note_on", "time": 0, "note": 62, "velocity": 116, "channel": 0}, {"type": "note_off", "time": 138, "note": 62, "velocity": 116, "channel": 0}, {"type": "note_on", "time": 10, "note": 55, "velocity": 102, "channel": 0}, {"type": "note_off", "time": 77, "note": 55, "velocity": 102, "channel": 0}, {"type": "note_on", "time": 358, "note": 60, "velocity": 116, "channel": 0}, {"type": "note_off", "time": 310, "note": 60, "velocity": 116, "channel": 0}, {"type": "note_on", "time": 0, "note": 58, "velocity": 104, "channel": 0}, {"type": "note_off", "time": 114, "note": 58, "velocity": 104, "channel": 0}, {"type": "note_on", "time": 2, "note": 55, "velocity": 91, "channel": 0}, {"type": "note_off", "time": 103, "note": 55, "velocity": 91, "channel": 0}, {"type": "note_on", "time": 0, "note": 56, "velocity": 105, "channel": 0}, {"type": "note_off", "time": 106, "note": 56, "velocity": 105, "channel": 0}, {"type": "note_on", "time": 2, "note": 58, "velocity": 99, "channel": 0}, {"type": "note_off", "time": 74, "note": 58, "velocity": 99, "channel": 0}, {"type": "note_on", "time": 0, "note": 60, "velocity": 113, "channel": 0}, {"type": "note_off", "time": 122, "note": 60, "velocity": 113, "channel": 0}, {"type": "note_on", "time": 5, "note": 62, "velocity": 112, "channel": 0}, {"type": "note_off", "time": 102, "note": 62, "velocity": 112, "channel": 0}, {"type": "note_on", "time": 4, "note": 63, "velocity": 105, "channel": 0}, {"type": "note_off", "time": 71, "note": 63, "velocity": 105, "channel": 0}, {"type": "note_on", "time": 7, "note": 65, "velocity": 111, "channel": 0}, {"type": "note_off", "time": 119, "note": 65, "velocity": 111, "channel": 0}, {"type": "note_on", "time": 2, "note": 67, "velocity": 105, "channel": 0}, {"type": "note_off", "time": 90, "note": 67, "velocity": 105, "channel": 0}, {"type": "note_on", "time": 0, "note": 68, "velocity": 106, "channel": 0}, {"type": "note_off", "time": 103, "note": 68, "velocity": 106, "channel": 0}, {"type": "note_on", "time": 0, "note": 70, "velocity": 87, "channel": 0}, {"type": "note_off", "time": 127, "note": 70, "velocity": 87, "channel": 0}, {"type": "note_on", "time": 972, "note": 65, "velocity": 113, "channel": 0}, {"type": "note_off", "time": 78, "note": 65, "velocity": 113, "channel": 0}, {"type": "note_on", "time": 4, "note": 67, "velocity": 108, "channel": 0}, {"type": "note_off", "time": 204, "note": 67, "velocity": 108, "channel": 0}, {"type": "note_on", "time": 5, "note": 65, "velocity": 107, "channel": 0}, {"type": "note_off", "time": 116, "note": 65, "velocity": 107, "channel": 0}, {"type": "note_on", "time": 0, "note": 60, "velocity": 105, "channel": 0}, {"type": "note_off", "time": 87, "note": 60, "velocity": 105, "channel": 0}, {"type": "note_on", "time": 5, "note": 60, "velocity": 101, "channel": 0}, {"type": "note_off", "time": 111, "note": 60, "velocity": 101, "channel": 0}, {"type": "note_on", "time": 1317, "note": 62, "velocity": 124, "channel": 0}, {"type": "note_off", "time": 124, "note": 62, "velocity": 124, "channel": 0}, {"type": "note_on", "time": 2, "note": 63, "velocity": 114, "channel": 0}, {"type": "note_on", "time": 100, "note": 62, "velocity": 107, "channel": 0}, {"type": "note_off", "time": 0, "note": 63, "velocity": 114, "channel": 0}, {"type": "note_off", "time": 79, "note": 62, "velocity": 107, "channel": 0}, {"type": "note_on", "time": 0, "note": 61, "velocity": 118, "channel": 0}, {"type": "note_off", "time": 95, "note": 61, "velocity": 118, "channel": 0}, {"type": "note_on", "time": 87, "note": 59, "velocity": 115, "channel": 0}, {"type": "note_off", "time": 114, "note": 59, "velocity": 115, "channel": 0}, {"type": "note_on", "time": 0, "note": 57, "velocity": 100, "channel": 0}, {"type": "note_off", "time": 108, "note": 57, "velocity": 100, "channel": 0}, {"type": "note_on", "time": 7, "note": 55, "velocity": 103, "channel": 0}, {"type": "note_off", "time": 82, "note": 55, "velocity": 103, "channel": 0}, {"type": "note_on", "time": 37, "note": 58, "velocity": 109, "channel": 0}, {"type": "note_off", "time": 63, "note": 58, "velocity": 109, "channel": 0}, {"type": "note_on", "time": 0, "note": 55, "velocity": 103, "channel": 0}, {"type": "note_off", "time": 92, "note": 55, "velocity": 103, "channel": 0}, {"type": "note_on", "time": 10, "note": 56, "velocity": 95, "channel": 0}, {"type": "note_off", "time": 79, "note": 56, "velocity": 95, "channel": 0}, {"type": "note_on", "time": 0, "note": 58, "velocity": 99, "channel": 0}, {"type": "note_off", "time": 90, "note": 58, "velocity": 99, "channel": 0}, {"type": "note_on", "time": 1057, "note": 54, "velocity": 111, "channel": 0}, {"type": "note_off", "time": 87, "note": 54, "velocity": 111, "channel": 0}, {"type": "note_on", "time": 0, "note": 55, "velocity": 97, "channel": 0}, {"type": "note_off", "time": 92, "note": 55, "velocity": 97, "channel": 0}, {"type": "note_on", "time": 10, "note": 57, "velocity": 104, "channel": 0}, {"type": "note_off", "time": 103, "note": 57, "velocity": 104, "channel": 0}, {"type": "note_on", "time": 7, "note": 58, "velocity": 104, "channel": 0}, {"type": "note_off", "time": 98, "note": 58, "velocity": 104, "channel": 0}, {"type": "note_on", "time": 2, "note": 60, "velocity": 110, "channel": 0}, {"type": "note_off", "time": 116, "note": 60, "velocity": 110, "channel": 0}, {"type": "note_on", "time": 2, "note": 61, "velocity": 86, "channel": 0}, {"type": "note_off", "time": 119, "note": 61, "velocity": 86, "channel": 0}, {"type": "note_on", "time": 55, "note": 60, "velocity": 117, "channel": 0}, {"type": "note_off", "time": 156, "note": 60, "velocity": 117, "channel": 0}, {"type": "note_on", "time": 71, "note": 58, "velocity": 113, "channel": 0}, {"type": "note_off", "time": 77, "note": 58, "velocity": 113, "channel": 0}, {"type": "note_on", "time": 0, "note": 60, "velocity": 117, "channel": 0}, {"type": "note_off", "time": 66, "note": 60, "velocity": 117, "channel": 0}, {"type": "note_on", "time": 0, "note": 61, "velocity": 116, "channel": 0}, {"type": "note_on", "time": 106, "note": 63, "velocity": 113, "channel": 0}, {"type": "note_off", "time": 0, "note": 61, "velocity": 116, "channel": 0}, {"type": "note_off", "time": 92, "note": 63, "velocity": 113, "channel": 0}, {"type": "note_on", "time": 0, "note": 64, "velocity": 106, "channel": 0}, {"type": "note_off", "time": 90, "note": 64, "velocity": 106, "channel": 0}, {"type": "note_on", "time": 0, "note": 66, "velocity": 108, "channel": 0}, {"type": "note_off", "time": 95, "note": 66, "velocity": 108, "channel": 0}, {"type": "note_on", "time": 85, "note": 67, "velocity": 113, "channel": 0}, {"type": "note_off", "time": 42, "note": 67, "velocity": 113, "channel": 0}, {"type": "note_on", "time": 2, "note": 69, "velocity": 108, "channel": 0}, {"type": "note_off", "time": 114, "note": 69, "velocity": 108, "channel": 0}, {"type": "note_on", "time": 0, "note": 70, "velocity": 104, "channel": 0}, {"type": "note_off", "time": 58, "note": 70, "velocity": 104, "channel": 0}, {"type": "note_on", "time": 0, "note": 72, "velocity": 102, "channel": 0}, {"type": "note_off", "time": 77, "note": 72, "velocity": 102, "channel": 0}, {"type": "note_on", "time": 2, "note": 73, "velocity": 107, "channel": 0}, {"type": "note_off", "time": 87, "note": 73, "velocity": 107, "channel": 0}, {"type": "note_on", "time": 7, "note": 70, "velocity": 92, "channel": 0}, {"type": "note_off", "time": 61, "note": 70, "velocity": 92, "channel": 0}, {"type": "note_on", "time": 7, "note": 72, "velocity": 112, "channel": 0}, {"type": "note_off", "time": 119, "note": 72, "velocity": 112, "channel": 0}, {"type": "note_on", "time": 10, "note": 70, "velocity": 95, "channel": 0}, {"type": "note_off", "time": 69, "note": 70, "velocity": 95, "channel": 0}, {"type": "note_on", "time": 18, "note": 71, "velocity": 106, "channel": 0}, {"type": "note_off", "time": 87, "note": 71, "velocity": 106, "channel": 0}, {"type": "note_on", "time": 0, "note": 69, "velocity": 107, "channel": 0}, {"type": "note_off", "time": 130, "note": 69, "velocity": 107, "channel": 0}, {"type": "note_on", "time": 0, "note": 68, "velocity": 110, "channel": 0}, {"type": "note_off", "time": 66, "note": 68, "velocity": 110, "channel": 0}, {"type": "note_on", "time": 0, "note": 66, "velocity": 108, "channel": 0}, {"type": "note_off", "time": 103, "note": 66, "velocity": 108, "channel": 0}, {"type": "note_on", "time": 10, "note": 65, "velocity": 105, "channel": 0}, {"type": "note_off", "time": 77, "note": 65, "velocity": 105, "channel": 0}, {"type": "note_on", "time": 5, "note": 63, "velocity": 126, "channel": 0}, {"type": "note_off", "time": 124, "note": 63, "velocity": 126, "channel": 0}, {"type": "note_on", "time": 5, "note": 60, "velocity": 97, "channel": 0}, {"type": "note_off", "time": 66, "note": 60, "velocity": 97, "channel": 0}, {"type": "note_on", "time": 7, "note": 61, "velocity": 112, "channel": 0}, {"type": "note_off", "time": 69, "note": 61, "velocity": 112, "channel": 0}, {"type": "note_on", "time": 5, "note": 62, "velocity": 123, "channel": 0}, {"type": "note_off", "time": 85, "note": 62, "velocity": 123, "channel": 0}, {"type": "note_on", "time": 29, "note": 61, "velocity": 117, "channel": 0}, {"type": "note_off", "time": 156, "note": 61, "velocity": 117, "channel": 0}, {"type": "note_on", "time": 7, "note": 59, "velocity": 119, "channel": 0}, {"type": "note_off", "time": 108, "note": 59, "velocity": 119, "channel": 0}, {"type": "note_on", "time": 0, "note": 58, "velocity": 109, "channel": 0}, {"type": "note_off", "time": 79, "note": 58, "velocity": 109, "channel": 0}, {"type": "note_on", "time": 10, "note": 56, "velocity": 118, "channel": 0}, {"type": "note_off", "time": 79, "note": 56, "velocity": 118, "channel": 0}, {"type": "note_on", "time": 13, "note": 55, "velocity": 107, "channel": 0}, {"type": "note_off", "time": 90, "note": 55, "velocity": 107, "channel": 0}, {"type": "note_on", "time": 5, "note": 54, "velocity": 122, "channel": 0}, {"type": "note_off", "time": 114, "note": 54, "velocity": 122, "channel": 0}, {"type": "note_on", "time": 0, "note": 53, "velocity": 114, "channel": 0}, {"type": "note_off", "time": 82, "note": 53, "velocity": 114, "channel": 0}, {"type": "note_on", "time": 7, "note": 52, "velocity": 107, "channel": 0}, {"type": "note_off", "time": 90, "note": 52, "velocity": 107, "channel": 0}, {"type": "note_on", "time": 13, "note": 51, "velocity": 108, "channel": 0}, {"type": "note_off", "time": 85, "note": 51, "velocity": 108, "channel": 0}, {"type": "note_on", "time": 0, "note": 48, "velocity": 105, "channel": 0}, {"type": "note_off", "time": 111, "note": 48, "velocity": 105, "channel": 0}, {"type": "note_on", "time": 0, "note": 49, "velocity": 104, "channel": 0}, {"type": "note_off", "time": 77, "note": 49, "velocity": 104, "channel": 0}, {"type": "note_on", "time": 2, "note": 51, "velocity": 108, "channel": 0}, {"type": "note_off", "time": 74, "note": 51, "velocity": 108, "channel": 0}, {"type": "note_on", "time": 2, "note": 52, "velocity": 105, "channel": 0}, {"type": "note_off", "time": 98, "note": 52, "velocity": 105, "channel": 0}, {"type": "note_on", "time": 0, "note": 54, "velocity": 106, "channel": 0}, {"type": "note_off", "time": 95, "note": 54, "velocity": 106, "channel": 0}, {"type": "note_on", "time": 18, "note": 53, "velocity": 107, "channel": 0}, {"type": "note_off", "time": 74, "note": 53, "velocity": 107, "channel": 0}, {"type": "note_on", "time": 10, "note": 54, "velocity": 104, "channel": 0}, {"type": "note_off", "time": 92, "note": 54, "velocity": 104, "channel": 0}, {"type": "note_on", "time": 2, "note": 56, "velocity": 109, "channel": 0}, {"type": "note_off", "time": 111, "note": 56, "velocity": 109, "channel": 0}, {"type": "note_on", "time": 5, "note": 57, "velocity": 112, "channel": 0}, {"type": "note_on", "time": 74, "note": 59, "velocity": 113, "channel": 0}, {"type": "note_off", "time": 0, "note": 57, "velocity": 112, "channel": 0}, {"type": "note_off", "time": 100, "note": 59, "velocity": 113, "channel": 0}, {"type": "note_on", "time": 10, "note": 57, "velocity": 106, "channel": 0}, {"type": "note_on", "time": 79, "note": 56, "velocity": 113, "channel": 0}, {"type": "note_off", "time": 0, "note": 57, "velocity": 106, "channel": 0}, {"type": "note_off", "time": 82, "note": 56, "velocity": 113, "channel": 0}, {"type": "note_on", "time": 0, "note": 54, "velocity": 114, "channel": 0}, {"type": "note_off", "time": 98, "note": 54, "velocity": 114, "channel": 0}, {"type": "note_on", "time": 0, "note": 53, "velocity": 103, "channel": 0}, {"type": "note_off", "time": 74, "note": 53, "velocity": 103, "channel": 0}, {"type": "note_on", "time": 7, "note": 51, "velocity": 103, "channel": 0}, {"type": "note_off", "time": 79, "note": 51, "velocity": 103, "channel": 0}, {"type": "note_on", "time": 2, "note": 52, "velocity": 98, "channel": 0}, {"type": "note_on", "time": 74, "note": 54, "velocity": 103, "channel": 0}, {"type": "note_off", "time": 0, "note": 52, "velocity": 98, "channel": 0}, {"type": "note_off", "time": 92, "note": 54, "velocity": 103, "channel": 0}, {"type": "note_on", "time": 13, "note": 56, "velocity": 106, "channel": 0}, {"type": "note_off", "time": 90, "note": 56, "velocity": 106, "channel": 0}, {"type": "note_on", "time": 15, "note": 60, "velocity": 112, "channel": 0}, {"type": "note_off", "time": 116, "note": 60, "velocity": 112, "channel": 0}, {"type": "note_on", "time": 7, "note": 54, "velocity": 101, "channel": 0}, {"type": "note_off", "time": 100, "note": 54, "velocity": 101, "channel": 0}, {"type": "note_on", "time": 634, "note": 54, "velocity": 119, "channel": 0}, {"type": "note_off", "time": 177, "note": 54, "velocity": 119, "channel": 0}, {"type": "note_on", "time": 8, "note": 60, "velocity": 116, "channel": 0}, {"type": "note_off", "time": 129, "note": 60, "velocity": 116, "channel": 0}, {"type": "note_on", "time": 0, "note": 55, "velocity": 106, "channel": 0}, {"type": "note_off", "time": 74, "note": 55, "velocity": 106, "channel": 0}, {"type": "note_on", "time": 69, "note": 61, "velocity": 120, "channel": 0}, {"type": "note_off", "time": 130, "note": 61, "velocity": 120, "channel": 0}, {"type": "note_on", "time": 18, "note": 56, "velocity": 115, "channel": 0}, {"type": "note_off", "time": 154, "note": 56, "velocity": 115, "channel": 0}, {"type": "note_on", "time": 0, "note": 62, "velocity": 114, "channel": 0}, {"type": "note_off", "time": 114, "note": 62, "velocity": 114, "channel": 0}, {"type": "note_on", "time": 2, "note": 57, "velocity": 104, "channel": 0}, {"type": "note_off", "time": 85, "note": 57, "velocity": 104, "channel": 0}, {"type": "note_on", "time": 61, "note": 63, "velocity": 118, "channel": 0}, {"type": "note_on", "time": 148, "note": 58, "velocity": 109, "channel": 0}, {"type": "note_off", "time": 0, "note": 63, "velocity": 118, "channel": 0}, {"type": "note_off", "time": 85, "note": 58, "velocity": 109, "channel": 0}, {"type": "note_on", "time": 31, "note": 64, "velocity": 110, "channel": 0}, {"type": "note_off", "time": 132, "note": 64, "velocity": 110, "channel": 0}, {"type": "note_on", "time": 2, "note": 57, "velocity": 109, "channel": 0}, {"type": "note_off", "time": 79, "note": 57, "velocity": 109, "channel": 0}, {"type": "note_on", "time": 69, "note": 63, "velocity": 120, "channel": 0}, {"type": "note_off", "time": 106, "note": 63, "velocity": 120, "channel": 0}, {"type": "note_on", "time": 26, "note": 56, "velocity": 114, "channel": 0}, {"type": "note_off", "time": 146, "note": 56, "velocity": 114, "channel": 0}, {"type": "note_on", "time": 414, "note": 62, "velocity": 126, "channel": 0}, {"type": "note_off", "time": 116, "note": 62, "velocity": 126, "channel": 0}, {"type": "note_on", "time": 5, "note": 61, "velocity": 120, "channel": 0}, {"type": "note_off", "time": 103, "note": 61, "velocity": 120, "channel": 0}, {"type": "note_on", "time": 7, "note": 60, "velocity": 114, "channel": 0}, {"type": "note_off", "time": 69, "note": 60, "velocity": 114, "channel": 0}, {"type": "note_on", "time": 7, "note": 59, "velocity": 110, "channel": 0}, {"type": "note_off", "time": 103, "note": 59, "velocity": 110, "channel": 0}, {"type": "note_on", "time": 7, "note": 58, "velocity": 103, "channel": 0}, {"type": "note_off", "time": 92, "note": 58, "velocity": 103, "channel": 0}, {"type": "note_on", "time": 0, "note": 57, "velocity": 102, "channel": 0}, {"type": "note_off", "time": 95, "note": 57, "velocity": 102, "channel": 0}, {"type": "note_on", "time": 10, "note": 56, "velocity": 106, "channel": 0}, {"type": "note_off", "time": 85, "note": 56, "velocity": 106, "channel": 0}, {"type": "note_on", "time": 7, "note": 60, "velocity": 118, "channel": 0}, {"type": "note_off", "time": 100, "note": 60, "velocity": 118, "channel": 0}, {"type": "note_on", "time": 5, "note": 55, "velocity": 104, "channel": 0}, {"type": "note_off", "time": 85, "note": 55, "velocity": 104, "channel": 0}, {"type": "note_on", "time": 0, "note": 53, "velocity": 102, "channel": 0}, {"type": "note_off", "time": 82, "note": 53, "velocity": 102, "channel": 0}, {"type": "note_on", "time": 18, "note": 58, "velocity": 111, "channel": 0}, {"type": "note_off", "time": 87, "note": 58, "velocity": 111, "channel": 0}, {"type": "note_on", "time": 438, "note": 55, "velocity": 111, "channel": 0}, {"type": "note_off", "time": 111, "note": 55, "velocity": 111, "channel": 0}, {"type": "note_on", "time": 5, "note": 56, "velocity": 109, "channel": 0}, {"type": "note_off", "time": 85, "note": 56, "velocity": 109, "channel": 0}, {"type": "note_on", "time": 116, "note": 63, "velocity": 105, "channel": 0}, {"type": "note_off", "time": 103, "note": 63, "velocity": 105, "channel": 0}, {"type": "note_on", "time": 0, "note": 67, "velocity": 111, "channel": 0}, {"type": "note_off", "time": 151, "note": 67, "velocity": 111, "channel": 0}, {"type": "note_on", "time": 26, "note": 66, "velocity": 100, "channel": 0}, {"type": "note_on", "time": 92, "note": 67, "velocity": 112, "channel": 0}, {"type": "note_off", "time": 0, "note": 66, "velocity": 100, "channel": 0}, {"type": "note_off", "time": 77, "note": 67, "velocity": 112, "channel": 0}, {"type": "note_on", "time": 2, "note": 66, "velocity": 113, "channel": 0}, {"type": "note_off", "time": 55, "note": 66, "velocity": 113, "channel": 0}, {"type": "note_on", "time": 0, "note": 64, "velocity": 102, "channel": 0}, {"type": "note_off", "time": 63, "note": 64, "velocity": 102, "channel": 0}, {"type": "note_on", "time": 7, "note": 62, "velocity": 120, "channel": 0}, {"type": "note_off", "time": 85, "note": 62, "velocity": 120, "channel": 0}, {"type": "note_on", "time": 2, "note": 63, "velocity": 118, "channel": 0}, {"type": "note_off", "time": 98, "note": 63, "velocity": 118, "channel": 0}, {"type": "note_on", "time": 5, "note": 61, "velocity": 120, "channel": 0}, {"type": "note_off", "time": 122, "note": 61, "velocity": 120, "channel": 0}, {"type": "note_on", "time": 53, "note": 58, "velocity": 110, "channel": 0}, {"type": "note_off", "time": 100, "note": 58, "velocity": 110, "channel": 0}, {"type": "note_on", "time": 5, "note": 57, "velocity": 104, "channel": 0}, {"type": "note_off", "time": 98, "note": 57, "velocity": 104, "channel": 0}, {"type": "note_on", "time": 7, "note": 55, "velocity": 99, "channel": 0}, {"type": "note_off", "time": 95, "note": 55, "velocity": 99, "channel": 0}, {"type": "note_on", "time": 0, "note": 60, "velocity": 119, "channel": 0}, {"type": "note_off", "time": 114, "note": 60, "velocity": 119, "channel": 0}, {"type": "note_on", "time": 0, "note": 57, "velocity": 108, "channel": 0}, {"type": "note_off", "time": 90, "note": 57, "velocity": 108, "channel": 0}, {"type": "note_on", "time": 2, "note": 58, "velocity": 108, "channel": 0}, {"type": "note_off", "time": 71, "note": 58, "velocity": 108, "channel": 0}, {"type": "note_on", "time": 2, "note": 60, "velocity": 119, "channel": 0}, {"type": "note_off", "time": 106, "note": 60, "velocity": 119, "channel": 0}, {"type": "note_on", "time": 2, "note": 61, "velocity": 115, "channel": 0}, {"type": "note_off", "time": 100, "note": 61, "velocity": 115, "channel": 0}, {"type": "note_on", "time": 0, "note": 63, "velocity": 115, "channel": 0}, {"type": "note_off", "time": 77, "note": 63, "velocity": 115, "channel": 0}, {"type": "note_on", "time": 0, "note": 64, "velocity": 111, "channel": 0}, {"type": "note_off", "time": 69, "note": 64, "velocity": 111, "channel": 0}, {"type": "note_on", "time": 7, "note": 66, "velocity": 102, "channel": 0}, {"type": "note_off", "time": 85, "note": 66, "velocity": 102, "channel": 0}, {"type": "note_on", "time": 2, "note": 67, "velocity": 100, "channel": 0}, {"type": "note_off", "time": 82, "note": 67, "velocity": 100, "channel": 0}, {"type": "note_on", "time": 7, "note": 69, "velocity": 113, "channel": 0}, {"type": "note_off", "time": 114, "note": 69, "velocity": 113, "channel": 0}, {"type": "note_on", "time": 21, "note": 70, "velocity": 102, "channel": 0}, {"type": "note_off", "time": 55, "note": 70, "velocity": 102, "channel": 0}, {"type": "note_on", "time": 7, "note": 72, "velocity": 99, "channel": 0}, {"type": "note_off", "time": 90, "note": 72, "velocity": 99, "channel": 0}, {"type": "note_on", "time": 10, "note": 73, "velocity": 110, "channel": 0}, {"type": "note_off", "time": 100, "note": 73, "velocity": 110, "channel": 0}, {"type": "note_on", "time": 13, "note": 70, "velocity": 96, "channel": 0}, {"type": "note_off", "time": 61, "note": 70, "velocity": 96, "channel": 0}, {"type": "note_on", "time": 0, "note": 72, "velocity": 109, "channel": 0}, {"type": "note_off", "time": 106, "note": 72, "velocity": 109, "channel": 0}, {"type": "note_on", "time": 0, "note": 70, "velocity": 104, "channel": 0}, {"type": "note_off", "time": 69, "note": 70, "velocity": 104, "channel": 0}, {"type": "note_on", "time": 10, "note": 69, "velocity": 106, "channel": 0}, {"type": "note_off", "time": 61, "note": 69, "velocity": 106, "channel": 0}, {"type": "note_on", "time": 13, "note": 67, "velocity": 97, "channel": 0}, {"type": "note_off", "time": 66, "note": 67, "velocity": 97, "channel": 0}, {"type": "note_on", "time": 15, "note": 66, "velocity": 103, "channel": 0}, {"type": "note_off", "time": 77, "note": 66, "velocity": 103, "channel": 0}, {"type": "note_on", "time": 13, "note": 64, "velocity": 110, "channel": 0}, {"type": "note_off", "time": 108, "note": 64, "velocity": 110, "channel": 0}, {"type": "note_on", "time": 0, "note": 63, "velocity": 105, "channel": 0}, {"type": "note_off", "time": 90, "note": 63, "velocity": 105, "channel": 0}, {"type": "note_on", "time": 858, "note": 62, "velocity": 123, "channel": 0}, {"type": "note_off", "time": 92, "note": 62, "velocity": 123, "channel": 0}, {"type": "note_on", "time": 13, "note": 61, "velocity": 119, "channel": 0}, {"type": "note_off", "time": 116, "note": 61, "velocity": 119, "channel": 0}, {"type": "note_on", "time": 7, "note": 62, "velocity": 114, "channel": 0}, {"type": "note_off", "time": 85, "note": 62, "velocity": 114, "channel": 0}, {"type": "note_on", "time": 5, "note": 63, "velocity": 127, "channel": 0}, {"type": "note_off", "time": 79, "note": 63, "velocity": 127, "channel": 0}, {"type": "note_on", "time": 13, "note": 60, "velocity": 98, "channel": 0}, {"type": "note_off", "time": 82, "note": 60, "velocity": 98, "channel": 0}, {"type": "note_on", "time": 0, "note": 65, "velocity": 114, "channel": 0}, {"type": "note_off", "time": 106, "note": 65, "velocity": 114, "channel": 0}, {"type": "note_on", "time": 5, "note": 66, "velocity": 109, "channel": 0}, {"type": "note_off", "time": 122, "note": 66, "velocity": 109, "channel": 0}, {"type": "note_on", "time": 0, "note": 67, "velocity": 120, "channel": 0}, {"type": "note_off", "time": 87, "note": 67, "velocity": 120, "channel": 0}, {"type": "note_on", "time": 5, "note": 68, "velocity": 102, "channel": 0}, {"type": "note_off", "time": 85, "note": 68, "velocity": 102, "channel": 0}, {"type": "note_on", "time": 7, "note": 71, "velocity": 97, "channel": 0}, {"type": "note_off", "time": 55, "note": 71, "velocity": 97, "channel": 0}, {"type": "note_on", "time": 2, "note": 75, "velocity": 123, "channel": 0}, {"type": "note_off", "time": 114, "note": 75, "velocity": 123, "channel": 0}, {"type": "note_on", "time": 0, "note": 71, "velocity": 103, "channel": 0}, {"type": "note_off", "time": 95, "note": 71, "velocity": 103, "channel": 0}, {"type": "note_on", "time": 15, "note": 68, "velocity": 103, "channel": 0}, {"type": "note_off", "time": 98, "note": 68, "velocity": 103, "channel": 0}, {"type": "note_on", "time": 45, "note": 75, "velocity": 121, "channel": 0}, {"type": "note_off", "time": 175, "note": 75, "velocity": 121, "channel": 0}, {"type": "note_on", "time": 122, "note": 75, "velocity": 119, "channel": 0}, {"type": "note_off", "time": 156, "note": 75, "velocity": 119, "channel": 0}, {"type": "note_on", "time": 18, "note": 76, "velocity": 93, "channel": 0}, {"type": "note_off", "time": 196, "note": 76, "velocity": 93, "channel": 0}, {"type": "note_on", "time": 15, "note": 73, "velocity": 116, "channel": 0}, {"type": "note_off", "time": 159, "note": 73, "velocity": 116, "channel": 0}, {"type": "note_on", "time": 2, "note": 71, "velocity": 98, "channel": 0}, {"type": "note_off", "time": 124, "note": 71, "velocity": 98, "channel": 0}, {"type": "note_on", "time": 92, "note": 77, "velocity": 115, "channel": 0}, {"type": "note_off", "time": 180, "note": 77, "velocity": 115, "channel": 0}, {"type": "note_on", "time": 13, "note": 74, "velocity": 117, "channel": 0}, {"type": "note_off", "time": 116, "note": 74, "velocity": 117, "channel": 0}, {"type": "note_on", "time": 7, "note": 70, "velocity": 100, "channel": 0}, {"type": "note_off", "time": 143, "note": 70, "velocity": 100, "channel": 0}, {"type": "note_on", "time": 15, "note": 78, "velocity": 110, "channel": 0}, {"type": "note_off", "time": 324, "note": 78, "velocity": 110, "channel": 0}, {"type": "note_on", "time": 812, "note": 77, "velocity": 124, "channel": 0}, {"type": "note_off", "time": 108, "note": 77, "velocity": 124, "channel": 0}, {"type": "note_on", "time": 2, "note": 78, "velocity": 113, "channel": 0}, {"type": "note_off", "time": 106, "note": 78, "velocity": 113, "channel": 0}, {"type": "note_on", "time": 0, "note": 77, "velocity": 107, "channel": 0}, {"type": "note_off", "time": 108, "note": 77, "velocity": 107, "channel": 0}, {"type": "note_on", "time": 2, "note": 75, "velocity": 100, "channel": 0}, {"type": "note_off", "time": 79, "note": 75, "velocity": 100, "channel": 0}, {"type": "note_on", "time": 2, "note": 76, "velocity": 108, "channel": 0}, {"type": "note_off", "time": 85, "note": 76, "velocity": 108, "channel": 0}, {"type": "note_on", "time": 5, "note": 77, "velocity": 118, "channel": 0}, {"type": "note_off", "time": 135, "note": 77, "velocity": 118, "channel": 0}, {"type": "note_on", "time": 2, "note": 76, "velocity": 104, "channel": 0}, {"type": "note_off", "time": 66, "note": 76, "velocity": 104, "channel": 0}, {"type": "note_on", "time": 0, "note": 73, "velocity": 108, "channel": 0}, {"type": "note_off", "time": 87, "note": 73, "velocity": 108, "channel": 0}, {"type": "note_on", "time": 7, "note": 75, "velocity": 118, "channel": 0}, {"type": "note_off", "time": 103, "note": 75, "velocity": 118, "channel": 0}, {"type": "note_on", "time": 2, "note": 76, "velocity": 107, "channel": 0}, {"type": "note_off", "time": 79, "note": 76, "velocity": 107, "channel": 0}, {"type": "note_on", "time": 5, "note": 75, "velocity": 112, "channel": 0}, {"type": "note_off", "time": 87, "note": 75, "velocity": 112, "channel": 0}, {"type": "note_on", "time": 7, "note": 72, "velocity": 106, "channel": 0}, {"type": "note_off", "time": 87, "note": 72, "velocity": 106, "channel": 0}, {"type": "note_on", "time": 2, "note": 74, "velocity": 113, "channel": 0}, {"type": "note_on", "time": 79, "note": 75, "velocity": 120, "channel": 0}, {"type": "note_off", "time": 0, "note": 74, "velocity": 113, "channel": 0}, {"type": "note_off", "time": 92, "note": 75, "velocity": 120, "channel": 0}, {"type": "note_on", "time": 2, "note": 74, "velocity": 106, "channel": 0}, {"type": "note_off", "time": 90, "note": 74, "velocity": 106, "channel": 0}, {"type": "note_on", "time": 5, "note": 71, "velocity": 102, "channel": 0}, {"type": "note_off", "time": 85, "note": 71, "velocity": 102, "channel": 0}, {"type": "note_on", "time": 10, "note": 73, "velocity": 113, "channel": 0}, {"type": "note_off", "time": 82, "note": 73, "velocity": 113, "channel": 0}, {"type": "note_on", "time": 5, "note": 74, "velocity": 111, "channel": 0}, {"type": "note_off", "time": 98, "note": 74, "velocity": 111, "channel": 0}, {"type": "note_on", "time": 5, "note": 73, "velocity": 107, "channel": 0}, {"type": "note_off", "time": 95, "note": 73, "velocity": 107, "channel": 0}, {"type": "note_on", "time": 0, "note": 70, "velocity": 103, "channel": 0}, {"type": "note_off", "time": 61, "note": 70, "velocity": 103, "channel": 0}, {"type": "note_on", "time": 0, "note": 72, "velocity": 107, "channel": 0}, {"type": "note_off", "time": 90, "note": 72, "velocity": 107, "channel": 0}, {"type": "note_on", "time": 2, "note": 73, "velocity": 114, "channel": 0}, {"type": "note_off", "time": 108, "note": 73, "velocity": 114, "channel": 0}, {"type": "note_on", "time": 2, "note": 72, "velocity": 110, "channel": 0}, {"type": "note_off", "time": 98, "note": 72, "velocity": 110, "channel": 0}, {"type": "note_on", "time": 2, "note": 70, "velocity": 110, "channel": 0}, {"type": "note_off", "time": 74, "note": 70, "velocity": 110, "channel": 0}, {"type": "note_on", "time": 10, "note": 69, "velocity": 96, "channel": 0}, {"type": "note_off", "time": 71, "note": 69, "velocity": 96, "channel": 0}, {"type": "note_on", "time": 10, "note": 68, "velocity": 110, "channel": 0}, {"type": "note_off", "time": 103, "note": 68, "velocity": 110, "channel": 0}, {"type": "note_on", "time": 0, "note": 67, "velocity": 100, "channel": 0}, {"type": "note_off", "time": 77, "note": 67, "velocity": 100, "channel": 0}, {"type": "note_on", "time": 5, "note": 66, "velocity": 113, "channel": 0}, {"type": "note_off", "time": 92, "note": 66, "velocity": 113, "channel": 0}, {"type": "note_on", "time": 7, "note": 65, "velocity": 110, "channel": 0}, {"type": "note_off", "time": 92, "note": 65, "velocity": 110, "channel": 0}, {"type": "note_on", "time": 2, "note": 64, "velocity": 111, "channel": 0}, {"type": "note_off", "time": 87, "note": 64, "velocity": 111, "channel": 0}, {"type": "note_on", "time": 7, "note": 63, "velocity": 116, "channel": 0}, {"type": "note_off", "time": 167, "note": 63, "velocity": 116, "channel": 0}, {"type": "note_on", "time": 791, "note": 62, "velocity": 124, "channel": 0}, {"type": "note_off", "time": 127, "note": 62, "velocity": 124, "channel": 0}, {"type": "note_on", "time": 7, "note": 61, "velocity": 114, "channel": 0}, {"type": "note_off", "time": 103, "note": 61, "velocity": 114, "channel": 0}, {"type": "note_on", "time": 0, "note": 62, "velocity": 110, "channel": 0}, {"type": "note_off", "time": 108, "note": 62, "velocity": 110, "channel": 0}, {"type": "note_on", "time": 0, "note": 64, "velocity": 102, "channel": 0}, {"type": "note_off", "time": 108, "note": 64, "velocity": 102, "channel": 0}, {"type": "note_on", "time": 0, "note": 66, "velocity": 96, "channel": 0}, {"type": "note_off", "time": 92, "note": 66, "velocity": 96, "channel": 0}, {"type": "note_on", "time": 0, "note": 67, "velocity": 107, "channel": 0}, {"type": "note_off", "time": 63, "note": 67, "velocity": 107, "channel": 0}, {"type": "note_on", "time": 10, "note": 69, "velocity": 117, "channel": 0}, {"type": "note_off", "time": 100, "note": 69, "velocity": 117, "channel": 0}, {"type": "note_on", "time": 7, "note": 66, "velocity": 106, "channel": 0}, {"type": "note_off", "time": 79, "note": 66, "velocity": 106, "channel": 0}, {"type": "note_on", "time": 10, "note": 62, "velocity": 110, "channel": 0}, {"type": "note_off", "time": 77, "note": 62, "velocity": 110, "channel": 0}, {"type": "note_on", "time": 5, "note": 59, "velocity": 107, "channel": 0}, {"type": "note_off", "time": 79, "note": 59, "velocity": 107, "channel": 0}, {"type": "note_on", "time": 5, "note": 61, "velocity": 122, "channel": 0}, {"type": "note_off", "time": 90, "note": 61, "velocity": 122, "channel": 0}, {"type": "note_on", "time": 0, "note": 59, "velocity": 112, "channel": 0}, {"type": "note_off", "time": 61, "note": 59, "velocity": 112, "channel": 0}, {"type": "note_on", "time": 10, "note": 58, "velocity": 100, "channel": 0}, {"type": "note_off", "time": 98, "note": 58, "velocity": 100, "channel": 0}, {"type": "note_on", "time": 18, "note": 65, "velocity": 112, "channel": 0}, {"type": "note_off", "time": 167, "note": 65, "velocity": 112, "channel": 0}, {"type": "note_on", "time": 146, "note": 60, "velocity": 113, "channel": 0}, {"type": "note_off", "time": 196, "note": 60, "velocity": 113, "channel": 0}, {"type": "note_on", "time": 162, "note": 60, "velocity": 120, "channel": 0}, {"type": "note_off", "time": 191, "note": 60, "velocity": 120, "channel": 0}, {"type": "note_on", "time": 0, "note": 58, "velocity": 100, "channel": 0}, {"type": "note_on", "time": 82, "note": 60, "velocity": 113, "channel": 0}, {"type": "note_off", "time": 0, "note": 58, "velocity": 100, "channel": 0}, {"type": "note_off", "time": 130, "note": 60, "velocity": 113, "channel": 0}, {"type": "note_on", "time": 95, "note": 61, "velocity": 123, "channel": 0}, {"type": "note_off", "time": 132, "note": 61, "velocity": 123, "channel": 0}, {"type": "note_on", "time": 2, "note": 58, "velocity": 99, "channel": 0}, {"type": "note_off", "time": 106, "note": 58, "velocity": 99, "channel": 0}, {"type": "note_on", "time": 393, "note": 60, "velocity": 121, "channel": 0}, {"type": "note_off", "time": 151, "note": 60, "velocity": 121, "channel": 0}, {"type": "note_on", "time": 10, "note": 57, "velocity": 106, "channel": 0}, {"type": "note_off", "time": 53, "note": 57, "velocity": 106, "channel": 0}, {"type": "note_on", "time": 0, "note": 58, "velocity": 105, "channel": 0}, {"type": "note_on", "time": 71, "note": 60, "velocity": 117, "channel": 0}, {"type": "note_off", "time": 0, "note": 58, "velocity": 105, "channel": 0}, {"type": "note_off", "time": 130, "note": 60, "velocity": 117, "channel": 0}, {"type": "note_on", "time": 0, "note": 61, "velocity": 112, "channel": 0}, {"type": "note_off", "time": 87, "note": 61, "velocity": 112, "channel": 0}, {"type": "note_on", "time": 2, "note": 62, "velocity": 107, "channel": 0}, {"type": "note_off", "time": 71, "note": 62, "velocity": 107, "channel": 0}, {"type": "note_on", "time": 0, "note": 67, "velocity": 120, "channel": 0}, {"type": "note_off", "time": 111, "note": 67, "velocity": 120, "channel": 0}, {"type": "note_on", "time": 10, "note": 66, "velocity": 118, "channel": 0}, {"type": "note_off", "time": 85, "note": 66, "velocity": 118, "channel": 0}, {"type": "note_on", "time": 10, "note": 65, "velocity": 104, "channel": 0}, {"type": "note_off", "time": 71, "note": 65, "velocity": 104, "channel": 0}, {"type": "note_on", "time": 5, "note": 64, "velocity": 115, "channel": 0}, {"type": "note_off", "time": 100, "note": 64, "velocity": 115, "channel": 0}, {"type": "note_on", "time": 0, "note": 63, "velocity": 115, "channel": 0}, {"type": "note_off", "time": 103, "note": 63, "velocity": 115, "channel": 0}, {"type": "note_on", "time": 0, "note": 61, "velocity": 122, "channel": 0}, {"type": "note_off", "time": 79, "note": 61, "velocity": 122, "channel": 0}, {"type": "note_on", "time": 7, "note": 60, "velocity": 106, "channel": 0}, {"type": "note_off", "time": 85, "note": 60, "velocity": 106, "channel": 0}, {"type": "note_on", "time": 2, "note": 59, "velocity": 119, "channel": 0}, {"type": "note_off", "time": 119, "note": 59, "velocity": 119, "channel": 0}, {"type": "note_on", "time": 10, "note": 57, "velocity": 106, "channel": 0}, {"type": "note_off", "time": 82, "note": 57, "velocity": 106, "channel": 0}, {"type": "note_on", "time": 0, "note": 55, "velocity": 99, "channel": 0}, {"type": "note_off", "time": 74, "note": 55, "velocity": 99, "channel": 0}, {"type": "note_on", "time": 10, "note": 61, "velocity": 122, "channel": 0}, {"type": "note_off", "time": 100, "note": 61, "velocity": 122, "channel": 0}, {"type": "note_on", "time": 21, "note": 53, "velocity": 102, "channel": 0}, {"type": "note_on", "time": 71, "note": 57, "velocity": 95, "channel": 0}, {"type": "note_off", "time": 0, "note": 53, "velocity": 102, "channel": 0}, {"type": "note_off", "time": 87, "note": 57, "velocity": 95, "channel": 0}, {"type": "note_on", "time": 7, "note": 61, "velocity": 124, "channel": 0}, {"type": "note_off", "time": 114, "note": 61, "velocity": 124, "channel": 0}, {"type": "note_on", "time": 26, "note": 56, "velocity": 105, "channel": 0}, {"type": "note_off", "time": 69, "note": 56, "velocity": 105, "channel": 0}, {"type": "note_on", "time": 0, "note": 57, "velocity": 108, "channel": 0}, {"type": "note_off", "time": 74, "note": 57, "velocity": 108, "channel": 0}, {"type": "note_on", "time": 5, "note": 61, "velocity": 114, "channel": 0}, {"type": "note_off", "time": 103, "note": 61, "velocity": 114, "channel": 0}, {"type": "note_on", "time": 5, "note": 64, "velocity": 98, "channel": 0}, {"type": "note_off", "time": 79, "note": 64, "velocity": 98, "channel": 0}, {"type": "note_on", "time": 7, "note": 69, "velocity": 114, "channel": 0}, {"type": "note_off", "time": 106, "note": 69, "velocity": 114, "channel": 0}, {"type": "note_on", "time": 10, "note": 64, "velocity": 111, "channel": 0}, {"type": "note_off", "time": 85, "note": 64, "velocity": 111, "channel": 0}, {"type": "note_on", "time": 7, "note": 61, "velocity": 114, "channel": 0}, {"type": "note_off", "time": 90, "note": 61, "velocity": 114, "channel": 0}, {"type": "note_on", "time": 0, "note": 57, "velocity": 91, "channel": 0}, {"type": "note_off", "time": 77, "note": 57, "velocity": 91, "channel": 0}, {"type": "note_on", "time": 23, "note": 68, "velocity": 106, "channel": 0}, {"type": "note_off", "time": 148, "note": 68, "velocity": 106, "channel": 0}, {"type": "note_on", "time": 116, "note": 68, "velocity": 114, "channel": 0}, {"type": "note_off", "time": 100, "note": 68, "velocity": 114, "channel": 0}, {"type": "note_on", "time": 0, "note": 63, "velocity": 115, "channel": 0}, {"type": "note_off", "time": 98, "note": 63, "velocity": 115, "channel": 0}, {"type": "note_on", "time": 10, "note": 68, "velocity": 114, "channel": 0}, {"type": "note_off", "time": 87, "note": 68, "velocity": 114, "channel": 0}, {"type": "note_on", "time": 0, "note": 63, "velocity": 113, "channel": 0}, {"type": "note_off", "time": 111, "note": 63, "velocity": 113, "channel": 0}, {"type": "note_on", "time": 10, "note": 60, "velocity": 104, "channel": 0}, {"type": "note_off", "time": 114, "note": 60, "velocity": 104, "channel": 0}, {"type": "note_on", "time": 10, "note": 56, "velocity": 98, "channel": 0}, {"type": "note_off", "time": 130, "note": 56, "velocity": 98, "channel": 0}, {"type": "note_on", "time": 13, "note": 66, "velocity": 107, "channel": 0}, {"type": "note_off", "time": 108, "note": 66, "velocity": 107, "channel": 0}, {"type": "note_on", "time": 15, "note": 60, "velocity": 114, "channel": 0}, {"type": "note_off", "time": 98, "note": 60, "velocity": 114, "channel": 0}, {"type": "note_on", "time": 0, "note": 56, "velocity": 116, "channel": 0}, {"type": "note_off", "time": 80, "note": 56, "velocity": 116, "channel": 0}, {"type": "note_on", "time": 13, "note": 52, "velocity": 112, "channel": 0}, {"type": "note_off", "time": 100, "note": 52, "velocity": 112, "channel": 0}, {"type": "note_on", "time": 18, "note": 51, "velocity": 106, "channel": 0}, {"type": "note_off", "time": 59, "note": 51, "velocity": 106, "channel": 0}, {"type": "note_on", "time": 11, "note": 49, "velocity": 110, "channel": 0}, {"type": "note_off", "time": 61, "note": 49, "velocity": 110, "channel": 0}, {"type": "note_on", "time": 14, "note": 50, "velocity": 104, "channel": 0}, {"type": "note_off", "time": 70, "note": 50, "velocity": 104, "channel": 0}, {"type": "note_on", "time": 75, "note": 56, "velocity": 95, "channel": 0}, {"type": "note_off", "time": 92, "note": 56, "velocity": 95, "channel": 0}, {"type": "note_on", "time": 0, "note": 60, "velocity": 114, "channel": 0}, {"type": "note_off", "time": 138, "note": 60, "velocity": 114, "channel": 0}, {"type": "note_on", "time": 0, "note": 54, "velocity": 98, "channel": 0}, {"type": "note_off", "time": 95, "note": 54, "velocity": 98, "channel": 0}, {"type": "note_on", "time": 10, "note": 55, "velocity": 101, "channel": 0}, {"type": "note_off", "time": 92, "note": 55, "velocity": 101, "channel": 0}, {"type": "note_on", "time": 10, "note": 58, "velocity": 109, "channel": 0}, {"type": "note_off", "time": 92, "note": 58, "velocity": 109, "channel": 0}, {"type": "note_on", "time": 0, "note": 57, "velocity": 101, "channel": 0}, {"type": "note_off", "time": 114, "note": 57, "velocity": 101, "channel": 0}, {"type": "note_on", "time": 17, "note": 56, "velocity": 91, "channel": 0}, {"type": "note_off", "time": 98, "note": 56, "velocity": 91, "channel": 0}, {"type": "note_on", "time": 260, "note": 56, "velocity": 120, "channel": 0}, {"type": "note_off", "time": 100, "note": 56, "velocity": 120, "channel": 0}, {"type": "note_on", "time": 18, "note": 53, "velocity": 108, "channel": 0}, {"type": "note_off", "time": 69, "note": 53, "velocity": 108, "channel": 0}, {"type": "note_on", "time": 26, "note": 56, "velocity": 120, "channel": 0}, {"type": "note_off", "time": 108, "note": 56, "velocity": 120, "channel": 0}, {"type": "note_on", "time": 236, "note": 60, "velocity": 119, "channel": 0}, {"type": "note_off", "time": 130, "note": 60, "velocity": 119, "channel": 0}, {"type": "note_on", "time": 0, "note": 56, "velocity": 113, "channel": 0}, {"type": "note_on", "time": 85, "note": 60, "velocity": 107, "channel": 0}, {"type": "note_off", "time": 0, "note": 56, "velocity": 113, "channel": 0}, {"type": "note_off", "time": 111, "note": 60, "velocity": 107, "channel": 0}, {"type": "note_on", "time": 231, "note": 63, "velocity": 122, "channel": 0}, {"type": "note_off", "time": 124, "note": 63, "velocity": 122, "channel": 0}, {"type": "note_on", "time": 0, "note": 60, "velocity": 111, "channel": 0}, {"type": "note_off", "time": 92, "note": 60, "velocity": 111, "channel": 0}, {"type": "note_on", "time": 2, "note": 63, "velocity": 104, "channel": 0}, {"type": "note_off", "time": 132, "note": 63, "velocity": 104, "channel": 0}, {"type": "note_on", "time": 50, "note": 67, "velocity": 116, "channel": 0}, {"type": "note_off", "time": 98, "note": 67, "velocity": 116, "channel": 0}, {"type": "note_on", "time": 0, "note": 63, "velocity": 97, "channel": 0}, {"type": "note_on", "time": 87, "note": 67, "velocity": 111, "channel": 0}, {"type": "note_off", "time": 0, "note": 63, "velocity": 97, "channel": 0}, {"type": "note_off", "time": 87, "note": 67, "velocity": 111, "channel": 0}, {"type": "note_on", "time": 5, "note": 70, "velocity": 114, "channel": 0}, {"type": "note_off", "time": 114, "note": 70, "velocity": 114, "channel": 0}, {"type": "note_on", "time": 55, "note": 67, "velocity": 105, "channel": 0}, {"type": "note_off", "time": 79, "note": 67, "velocity": 105, "channel": 0}, {"type": "note_on", "time": 0, "note": 70, "velocity": 113, "channel": 0}, {"type": "note_off", "time": 140, "note": 70, "velocity": 113, "channel": 0}, {"type": "note_on", "time": 74, "note": 67, "velocity": 114, "channel": 0}, {"type": "note_off", "time": 140, "note": 67, "velocity": 114, "channel": 0}, {"type": "note_on", "time": 10, "note": 63, "velocity": 107, "channel": 0}, {"type": "note_off", "time": 74, "note": 63, "velocity": 107, "channel": 0}, {"type": "note_on", "time": 13, "note": 67, "velocity": 107, "channel": 0}, {"type": "note_off", "time": 124, "note": 67, "velocity": 107, "channel": 0}, {"type": "note_on", "time": 1118, "note": 70, "velocity": 113, "channel": 0}, {"type": "note_off", "time": 132, "note": 70, "velocity": 113, "channel": 0}, {"type": "note_on", "time": 7, "note": 67, "velocity": 108, "channel": 0}, {"type": "note_off", "time": 98, "note": 67, "velocity": 108, "channel": 0}, {"type": "note_on", "time": 0, "note": 70, "velocity": 112, "channel": 0}, {"type": "note_off", "time": 114, "note": 70, "velocity": 112, "channel": 0}, {"type": "note_on", "time": 63, "note": 75, "velocity": 120, "channel": 0}, {"type": "note_off", "time": 127, "note": 75, "velocity": 120, "channel": 0}, {"type": "note_on", "time": 13, "note": 70, "velocity": 100, "channel": 0}, {"type": "note_off", "time": 66, "note": 70, "velocity": 100, "channel": 0}, {"type": "note_on", "time": 5, "note": 75, "velocity": 115, "channel": 0}, {"type": "note_off", "time": 130, "note": 75, "velocity": 115, "channel": 0}, {"type": "note_on", "time": 55, "note": 70, "velocity": 107, "channel": 0}, {"type": "note_off", "time": 108, "note": 70, "velocity": 107, "channel": 0}, {"type": "note_on", "time": 2, "note": 67, "velocity": 108, "channel": 0}, {"type": "note_off", "time": 69, "note": 67, "velocity": 108, "channel": 0}, {"type": "note_on", "time": 0, "note": 70, "velocity": 102, "channel": 0}, {"type": "note_off", "time": 127, "note": 70, "velocity": 102, "channel": 0}, {"type": "note_on", "time": 811, "note": 68, "velocity": 114, "channel": 0}, {"type": "note_off", "time": 112, "note": 68, "velocity": 114, "channel": 0}, {"type": "note_on", "time": 0, "note": 65, "velocity": 105, "channel": 0}, {"type": "note_off", "time": 90, "note": 65, "velocity": 105, "channel": 0}, {"type": "note_on", "time": 5, "note": 68, "velocity": 105, "channel": 0}, {"type": "note_off", "time": 90, "note": 68, "velocity": 105, "channel": 0}, {"type": "note_on", "time": 7, "note": 73, "velocity": 113, "channel": 0}, {"type": "note_off", "time": 122, "note": 73, "velocity": 113, "channel": 0}, {"type": "note_on", "time": 77, "note": 68, "velocity": 97, "channel": 0}, {"type": "note_off", "time": 53, "note": 68, "velocity": 97, "channel": 0}, {"type": "note_on", "time": 0, "note": 73, "velocity": 114, "channel": 0}, {"type": "note_off", "time": 177, "note": 73, "velocity": 114, "channel": 0}, {"type": "note_on", "time": 793, "note": 66, "velocity": 103, "channel": 0}, {"type": "note_off", "time": 138, "note": 66, "velocity": 103, "channel": 0}, {"type": "note_on", "time": 5, "note": 63, "velocity": 93, "channel": 0}, {"type": "note_off", "time": 71, "note": 63, "velocity": 93, "channel": 0}, {"type": "note_on", "time": 13, "note": 66, "velocity": 108, "channel": 0}, {"type": "note_off", "time": 79, "note": 66, "velocity": 108, "channel": 0}, {"type": "note_on", "time": 0, "note": 63, "velocity": 108, "channel": 0}, {"type": "note_off", "time": 69, "note": 63, "velocity": 108, "channel": 0}, {"type": "note_on", "time": 5, "note": 65, "velocity": 116, "channel": 0}, {"type": "note_off", "time": 95, "note": 65, "velocity": 116, "channel": 0}, {"type": "note_on", "time": 0, "note": 64, "velocity": 112, "channel": 0}, {"type": "note_off", "time": 103, "note": 64, "velocity": 112, "channel": 0}, {"type": "note_on", "time": 2, "note": 63, "velocity": 98, "channel": 0}, {"type": "note_off", "time": 92, "note": 63, "velocity": 98, "channel": 0}, {"type": "note_on", "time": 456, "note": 63, "velocity": 123, "channel": 0}, {"type": "note_off", "time": 111, "note": 63, "velocity": 123, "channel": 0}, {"type": "note_on", "time": 0, "note": 61, "velocity": 111, "channel": 0}, {"type": "note_off", "time": 69, "note": 61, "velocity": 111, "channel": 0}, {"type": "note_on", "time": 5, "note": 62, "velocity": 121, "channel": 0}, {"type": "note_off", "time": 92, "note": 62, "velocity": 121, "channel": 0}, {"type": "note_on", "time": 7, "note": 61, "velocity": 113, "channel": 0}, {"type": "note_on", "time": 106, "note": 60, "velocity": 106, "channel": 0}, {"type": "note_off", "time": 0, "note": 61, "velocity": 113, "channel": 0}, {"type": "note_off", "time": 58, "note": 60, "velocity": 106, "channel": 0}, {"type": "note_on", "time": 0, "note": 59, "velocity": 117, "channel": 0}, {"type": "note_off", "time": 111, "note": 59, "velocity": 117, "channel": 0}, {"type": "note_on", "time": 21, "note": 58, "velocity": 105, "channel": 0}, {"type": "note_off", "time": 92, "note": 58, "velocity": 105, "channel": 0}, {"type": "note_on", "time": 0, "note": 56, "velocity": 103, "channel": 0}, {"type": "note_off", "time": 98, "note": 56, "velocity": 103, "channel": 0}, {"type": "note_on", "time": 53, "note": 56, "velocity": 110, "channel": 0}, {"type": "note_off", "time": 106, "note": 56, "velocity": 110, "channel": 0}, {"type": "note_on", "time": 15, "note": 59, "velocity": 98, "channel": 0}, {"type": "note_off", "time": 116, "note": 59, "velocity": 98, "channel": 0}, {"type": "note_on", "time": 90, "note": 67, "velocity": 119, "channel": 0}, {"type": "note_off", "time": 111, "note": 67, "velocity": 119, "channel": 0}, {"type": "note_on", "time": 2, "note": 68, "velocity": 108, "channel": 0}, {"type": "note_off", "time": 111, "note": 68, "velocity": 108, "channel": 0}, {"type": "note_on", "time": 0, "note": 67, "velocity": 109, "channel": 0}, {"type": "note_off", "time": 74, "note": 67, "velocity": 109, "channel": 0}, {"type": "note_on", "time": 7, "note": 66, "velocity": 106, "channel": 0}, {"type": "note_off", "time": 79, "note": 66, "velocity": 106, "channel": 0}, {"type": "note_on", "time": 77, "note": 64, "velocity": 113, "channel": 0}, {"type": "note_off", "time": 98, "note": 64, "velocity": 113, "channel": 0}, {"type": "note_on", "time": 5, "note": 62, "velocity": 111, "channel": 0}, {"type": "note_off", "time": 92, "note": 62, "velocity": 111, "channel": 0}, {"type": "note_on", "time": 10, "note": 60, "velocity": 96, "channel": 0}, {"type": "note_off", "time": 90, "note": 60, "velocity": 96, "channel": 0}, {"type": "note_on", "time": 10, "note": 63, "velocity": 118, "channel": 0}, {"type": "note_off", "time": 114, "note": 63, "velocity": 118, "channel": 0}, {"type": "note_on", "time": 15, "note": 57, "velocity": 103, "channel": 0}, {"type": "note_off", "time": 71, "note": 57, "velocity": 103, "channel": 0}, {"type": "note_on", "time": 10, "note": 61, "velocity": 117, "channel": 0}, {"type": "note_off", "time": 82, "note": 61, "velocity": 117, "channel": 0}, {"type": "note_on", "time": 0, "note": 63, "velocity": 124, "channel": 0}, {"type": "note_off", "time": 95, "note": 63, "velocity": 124, "channel": 0}, {"type": "note_on", "time": 10, "note": 65, "velocity": 115, "channel": 0}, {"type": "note_off", "time": 95, "note": 65, "velocity": 115, "channel": 0}, {"type": "note_on", "time": 2, "note": 66, "velocity": 102, "channel": 0}, {"type": "note_off", "time": 71, "note": 66, "velocity": 102, "channel": 0}, {"type": "note_on", "time": 13, "note": 68, "velocity": 107, "channel": 0}, {"type": "note_on", "time": 85, "note": 71, "velocity": 114, "channel": 0}, {"type": "note_off", "time": 0, "note": 68, "velocity": 107, "channel": 0}, {"type": "note_off", "time": 114, "note": 71, "velocity": 114, "channel": 0}, {"type": "note_on", "time": 50, "note": 69, "velocity": 114, "channel": 0}, {"type": "note_off", "time": 108, "note": 69, "velocity": 114, "channel": 0}, {"type": "note_on", "time": 5, "note": 68, "velocity": 112, "channel": 0}, {"type": "note_off", "time": 79, "note": 68, "velocity": 112, "channel": 0}, {"type": "note_on", "time": 5, "note": 66, "velocity": 110, "channel": 0}, {"type": "note_off", "time": 82, "note": 66, "velocity": 110, "channel": 0}, {"type": "note_on", "time": 10, "note": 65, "velocity": 105, "channel": 0}, {"type": "note_off", "time": 106, "note": 65, "velocity": 105, "channel": 0}, {"type": "note_on", "time": 5, "note": 63, "velocity": 124, "channel": 0}, {"type": "note_off", "time": 90, "note": 63, "velocity": 124, "channel": 0}, {"type": "note_on", "time": 0, "note": 62, "velocity": 118, "channel": 0}, {"type": "note_off", "time": 108, "note": 62, "velocity": 118, "channel": 0}, {"type": "note_on", "time": 85, "note": 69, "velocity": 109, "channel": 0}, {"type": "note_off", "time": 262, "note": 69, "velocity": 109, "channel": 0}, {"type": "note_on", "time": 5, "note": 67, "velocity": 118, "channel": 0}, {"type": "note_off", "time": 124, "note": 67, "velocity": 118, "channel": 0}, {"type": "note_on", "time": 13, "note": 66, "velocity": 113, "channel": 0}, {"type": "note_off", "time": 77, "note": 66, "velocity": 113, "channel": 0}, {"type": "note_on", "time": 0, "note": 64, "velocity": 111, "channel": 0}, {"type": "note_off", "time": 98, "note": 64, "velocity": 111, "channel": 0}, {"type": "note_on", "time": 5, "note": 63, "velocity": 122, "channel": 0}, {"type": "note_off", "time": 98, "note": 63, "velocity": 122, "channel": 0}, {"type": "note_on", "time": 10, "note": 61, "velocity": 112, "channel": 0}, {"type": "note_off", "time": 95, "note": 61, "velocity": 112, "channel": 0}, {"type": "note_on", "time": 2, "note": 60, "velocity": 97, "channel": 0}, {"type": "note_off", "time": 87, "note": 60, "velocity": 97, "channel": 0}, {"type": "note_on", "time": 90, "note": 67, "velocity": 122, "channel": 0}, {"type": "note_on", "time": 119, "note": 65, "velocity": 121, "channel": 0}, {"type": "note_off", "time": 0, "note": 67, "velocity": 122, "channel": 0}, {"type": "note_off", "time": 95, "note": 65, "velocity": 121, "channel": 0}, {"type": "note_on", "time": 5, "note": 64, "velocity": 113, "channel": 0}, {"type": "note_off", "time": 92, "note": 64, "velocity": 113, "channel": 0}, {"type": "note_on", "time": 2, "note": 62, "velocity": 120, "channel": 0}, {"type": "note_on", "time": 87, "note": 63, "velocity": 122, "channel": 0}, {"type": "note_off", "time": 0, "note": 62, "velocity": 120, "channel": 0}, {"type": "note_off", "time": 92, "note": 63, "velocity": 122, "channel": 0}, {"type": "note_on", "time": 0, "note": 61, "velocity": 121, "channel": 0}, {"type": "note_off", "time": 92, "note": 61, "velocity": 121, "channel": 0}, {"type": "note_on", "time": 0, "note": 60, "velocity": 97, "channel": 0}, {"type": "note_off", "time": 77, "note": 60, "velocity": 97, "channel": 0}, {"type": "note_on", "time": 0, "note": 58, "velocity": 114, "channel": 0}, {"type": "note_on", "time": 108, "note": 57, "velocity": 108, "channel": 0}, {"type": "note_off", "time": 0, "note": 58, "velocity": 114, "channel": 0}, {"type": "note_off", "time": 90, "note": 57, "velocity": 108, "channel": 0}, {"type": "note_on", "time": 10, "note": 55, "velocity": 105, "channel": 0}, {"type": "note_off", "time": 106, "note": 55, "velocity": 105, "channel": 0}, {"type": "note_on", "time": 2, "note": 57, "velocity": 105, "channel": 0}, {"type": "note_off", "time": 79, "note": 57, "velocity": 105, "channel": 0}, {"type": "note_on", "time": 8, "note": 53, "velocity": 113, "channel": 0}, {"type": "note_off", "time": 44, "note": 53, "velocity": 113, "channel": 0}, {"type": "note_on", "time": 1, "note": 54, "velocity": 110, "channel": 0}, {"type": "note_off", "time": 50, "note": 54, "velocity": 110, "channel": 0}, {"type": "note_on", "time": 5, "note": 55, "velocity": 95, "channel": 0}, {"type": "note_off", "time": 111, "note": 55, "velocity": 95, "channel": 0}, {"type": "note_on", "time": 818, "note": 53, "velocity": 118, "channel": 0}, {"type": "note_off", "time": 193, "note": 53, "velocity": 118, "channel": 0}, {"type": "note_on", "time": 5, "note": 53, "velocity": 117, "channel": 0}, {"type": "note_off", "time": 130, "note": 53, "velocity": 117, "channel": 0}, {"type": "note_on", "time": 7, "note": 56, "velocity": 116, "channel": 0}, {"type": "note_off", "time": 106, "note": 56, "velocity": 116, "channel": 0}, {"type": "note_on", "time": 7, "note": 55, "velocity": 105, "channel": 0}, {"type": "note_off", "time": 151, "note": 55, "velocity": 105, "channel": 0}, {"type": "note_on", "time": 18, "note": 55, "velocity": 109, "channel": 0}, {"type": "note_off", "time": 108, "note": 55, "velocity": 109, "channel": 0}, {"type": "note_on", "time": 7, "note": 58, "velocity": 111, "channel": 0}, {"type": "note_off", "time": 119, "note": 58, "velocity": 111, "channel": 0}, {"type": "note_on", "time": 13, "note": 56, "velocity": 103, "channel": 0}, {"type": "note_off", "time": 135, "note": 56, "velocity": 103, "channel": 0}, {"type": "note_on", "time": 7, "note": 56, "velocity": 103, "channel": 0}, {"type": "note_on", "time": 77, "note": 60, "velocity": 116, "channel": 0}, {"type": "note_off", "time": 0, "note": 56, "velocity": 103, "channel": 0}, {"type": "note_off", "time": 124, "note": 60, "velocity": 116, "channel": 0}, {"type": "note_on", "time": 5, "note": 58, "velocity": 102, "channel": 0}, {"type": "note_off", "time": 159, "note": 58, "velocity": 102, "channel": 0}, {"type": "note_on", "time": 10, "note": 58, "velocity": 100, "channel": 0}, {"type": "note_off", "time": 87, "note": 58, "velocity": 100, "channel": 0}, {"type": "note_on", "time": 0, "note": 62, "velocity": 119, "channel": 0}, {"type": "note_off", "time": 108, "note": 62, "velocity": 119, "channel": 0}, {"type": "note_on", "time": 5, "note": 60, "velocity": 106, "channel": 0}, {"type": "note_off", "time": 162, "note": 60, "velocity": 106, "channel": 0}, {"type": "note_on", "time": 13, "note": 60, "velocity": 108, "channel": 0}, {"type": "note_off", "time": 95, "note": 60, "velocity": 108, "channel": 0}, {"type": "note_on", "time": 0, "note": 63, "velocity": 123, "channel": 0}, {"type": "note_off", "time": 127, "note": 63, "velocity": 123, "channel": 0}, {"type": "note_on", "time": 0, "note": 62, "velocity": 111, "channel": 0}, {"type": "note_off", "time": 170, "note": 62, "velocity": 111, "channel": 0}, {"type": "note_on", "time": 15, "note": 62, "velocity": 115, "channel": 0}, {"type": "note_off", "time": 98, "note": 62, "velocity": 115, "channel": 0}, {"type": "note_on", "time": 0, "note": 65, "velocity": 111, "channel": 0}, {"type": "note_on", "time": 103, "note": 61, "velocity": 108, "channel": 0}, {"type": "note_off", "time": 0, "note": 65, "velocity": 111, "channel": 0}, {"type": "note_off", "time": 154, "note": 61, "velocity": 108, "channel": 0}, {"type": "note_on", "time": 21, "note": 61, "velocity": 120, "channel": 0}, {"type": "note_off", "time": 106, "note": 61, "velocity": 120, "channel": 0}, {"type": "note_on", "time": 0, "note": 65, "velocity": 115, "channel": 0}, {"type": "note_off", "time": 130, "note": 65, "velocity": 115, "channel": 0}, {"type": "note_on", "time": 10, "note": 63, "velocity": 106, "channel": 0}, {"type": "note_off", "time": 156, "note": 63, "velocity": 106, "channel": 0}, {"type": "note_on", "time": 13, "note": 63, "velocity": 111, "channel": 0}, {"type": "note_off", "time": 77, "note": 63, "velocity": 111, "channel": 0}, {"type": "note_on", "time": 2, "note": 67, "velocity": 113, "channel": 0}, {"type": "note_off", "time": 92, "note": 67, "velocity": 113, "channel": 0}, {"type": "note_on", "time": 0, "note": 65, "velocity": 112, "channel": 0}, {"type": "note_off", "time": 172, "note": 65, "velocity": 112, "channel": 0}, {"type": "note_on", "time": 18, "note": 65, "velocity": 107, "channel": 0}, {"type": "note_off", "time": 162, "note": 65, "velocity": 107, "channel": 0}, {"type": "note_on", "time": 310, "note": 64, "velocity": 107, "channel": 0}, {"type": "note_off", "time": 140, "note": 64, "velocity": 107, "channel": 0}, {"type": "note_on", "time": 47, "note": 64, "velocity": 108, "channel": 0}, {"type": "note_off", "time": 143, "note": 64, "velocity": 108, "channel": 0}, {"type": "note_on", "time": 61, "note": 67, "velocity": 116, "channel": 0}, {"type": "note_off", "time": 111, "note": 67, "velocity": 116, "channel": 0}, {"type": "note_on", "time": 10, "note": 65, "velocity": 110, "channel": 0}, {"type": "note_off", "time": 132, "note": 65, "velocity": 110, "channel": 0}, {"type": "note_on", "time": 45, "note": 65, "velocity": 111, "channel": 0}, {"type": "note_off", "time": 122, "note": 65, "velocity": 111, "channel": 0}, {"type": "note_on", "time": 0, "note": 68, "velocity": 113, "channel": 0}, {"type": "note_off", "time": 106, "note": 68, "velocity": 113, "channel": 0}, {"type": "note_on", "time": 0, "note": 67, "velocity": 105, "channel": 0}, {"type": "note_off", "time": 143, "note": 67, "velocity": 105, "channel": 0}, {"type": "note_on", "time": 21, "note": 67, "velocity": 105, "channel": 0}, {"type": "note_off", "time": 95, "note": 67, "velocity": 105, "channel": 0}, {"type": "note_on", "time": 0, "note": 70, "velocity": 114, "channel": 0}, {"type": "note_off", "time": 132, "note": 70, "velocity": 114, "channel": 0}, {"type": "note_on", "time": 5, "note": 68, "velocity": 110, "channel": 0}, {"type": "note_off", "time": 151, "note": 68, "velocity": 110, "channel": 0}, {"type": "note_on", "time": 483, "note": 69, "velocity": 106, "channel": 0}, {"type": "note_off", "time": 172, "note": 69, "velocity": 106, "channel": 0}, {"type": "note_on", "time": 21, "note": 69, "velocity": 108, "channel": 0}, {"type": "note_off", "time": 154, "note": 69, "velocity": 108, "channel": 0}, {"type": "note_on", "time": 34, "note": 72, "velocity": 108, "channel": 0}, {"type": "note_off", "time": 116, "note": 72, "velocity": 108, "channel": 0}, {"type": "note_on", "time": 7, "note": 71, "velocity": 110, "channel": 0}, {"type": "note_off", "time": 148, "note": 71, "velocity": 110, "channel": 0}, {"type": "note_on", "time": 53, "note": 71, "velocity": 107, "channel": 0}, {"type": "note_off", "time": 90, "note": 71, "velocity": 107, "channel": 0}, {"type": "note_on", "time": 5, "note": 74, "velocity": 117, "channel": 0}, {"type": "note_off", "time": 114, "note": 74, "velocity": 117, "channel": 0}, {"type": "note_on", "time": 2, "note": 73, "velocity": 111, "channel": 0}, {"type": "note_off", "time": 167, "note": 73, "velocity": 111, "channel": 0}, {"type": "note_on", "time": 2, "note": 73, "velocity": 111, "channel": 0}, {"type": "note_off", "time": 100, "note": 73, "velocity": 111, "channel": 0}, {"type": "note_on", "time": 2, "note": 76, "velocity": 112, "channel": 0}, {"type": "note_off", "time": 111, "note": 76, "velocity": 112, "channel": 0}, {"type": "note_on", "time": 5, "note": 75, "velocity": 116, "channel": 0}, {"type": "note_off", "time": 146, "note": 75, "velocity": 116, "channel": 0}, {"type": "note_on", "time": 21, "note": 75, "velocity": 110, "channel": 0}, {"type": "note_off", "time": 95, "note": 75, "velocity": 110, "channel": 0}, {"type": "note_on", "time": 18, "note": 78, "velocity": 118, "channel": 0}, {"type": "note_off", "time": 87, "note": 78, "velocity": 118, "channel": 0}, {"type": "note_on", "time": 7, "note": 77, "velocity": 115, "channel": 0}, {"type": "note_off", "time": 151, "note": 77, "velocity": 115, "channel": 0}, {"type": "note_on", "time": 34, "note": 77, "velocity": 101, "channel": 0}, {"type": "note_off", "time": 108, "note": 77, "velocity": 101, "channel": 0}, {"type": "note_on", "time": 2, "note": 80, "velocity": 104, "channel": 0}, {"type": "note_off", "time": 90, "note": 80, "velocity": 104, "channel": 0}, {"type": "note_on", "time": 15, "note": 78, "velocity": 119, "channel": 0}, {"type": "note_off", "time": 135, "note": 78, "velocity": 119, "channel": 0}, {"type": "note_on", "time": 12, "note": 78, "velocity": 93, "channel": 0}, {"type": "note_off", "time": 127, "note": 78, "velocity": 93, "channel": 0}, {"type": "note_on", "time": 1, "note": 81, "velocity": 110, "channel": 0}, {"type": "note_off", "time": 116, "note": 81, "velocity": 110, "channel": 0}, {"type": "note_on", "time": 10, "note": 83, "velocity": 93, "channel": 0}, {"type": "note_off", "time": 385, "note": 83, "velocity": 93, "channel": 0}, {"type": "note_on", "time": 119, "note": 81, "velocity": 114, "channel": 0}, {"type": "note_off", "time": 130, "note": 81, "velocity": 114, "channel": 0}, {"type": "note_on", "time": 7, "note": 80, "velocity": 95, "channel": 0}, {"type": "note_off", "time": 140, "note": 80, "velocity": 95, "channel": 0}, {"type": "note_on", "time": 13, "note": 78, "velocity": 124, "channel": 0}, {"type": "note_off", "time": 95, "note": 78, "velocity": 124, "channel": 0}, {"type": "note_on", "time": 7, "note": 77, "velocity": 114, "channel": 0}, {"type": "note_off", "time": 77, "note": 77, "velocity": 114, "channel": 0}, {"type": "note_on", "time": 10, "note": 75, "velocity": 122, "channel": 0}, {"type": "note_off", "time": 111, "note": 75, "velocity": 122, "channel": 0}, {"type": "note_on", "time": 5, "note": 74, "velocity": 111, "channel": 0}, {"type": "note_off", "time": 82, "note": 74, "velocity": 111, "channel": 0}, {"type": "note_on", "time": 5, "note": 72, "velocity": 105, "channel": 0}, {"type": "note_off", "time": 90, "note": 72, "velocity": 105, "channel": 0}, {"type": "note_on", "time": 7, "note": 71, "velocity": 102, "channel": 0}, {"type": "note_off", "time": 69, "note": 71, "velocity": 102, "channel": 0}, {"type": "note_on", "time": 0, "note": 74, "velocity": 114, "channel": 0}, {"type": "note_off", "time": 111, "note": 74, "velocity": 114, "channel": 0}, {"type": "note_on", "time": 7, "note": 73, "velocity": 103, "channel": 0}, {"type": "note_on", "time": 98, "note": 71, "velocity": 100, "channel": 0}, {"type": "note_off", "time": 0, "note": 73, "velocity": 103, "channel": 0}, {"type": "note_off", "time": 71, "note": 71, "velocity": 100, "channel": 0}, {"type": "note_on", "time": 0, "note": 72, "velocity": 109, "channel": 0}, {"type": "note_off", "time": 114, "note": 72, "velocity": 109, "channel": 0}, {"type": "note_on", "time": 5, "note": 71, "velocity": 101, "channel": 0}, {"type": "note_off", "time": 111, "note": 71, "velocity": 101, "channel": 0}, {"type": "note_on", "time": 0, "note": 72, "velocity": 105, "channel": 0}, {"type": "note_off", "time": 100, "note": 72, "velocity": 105, "channel": 0}, {"type": "note_on", "time": 5, "note": 74, "velocity": 113, "channel": 0}, {"type": "note_off", "time": 79, "note": 74, "velocity": 113, "channel": 0}, {"type": "note_on", "time": 7, "note": 75, "velocity": 119, "channel": 0}, {"type": "note_off", "time": 87, "note": 75, "velocity": 119, "channel": 0}, {"type": "note_on", "time": 7, "note": 77, "velocity": 119, "channel": 0}, {"type": "note_off", "time": 87, "note": 77, "velocity": 119, "channel": 0}, {"type": "note_on", "time": 5, "note": 78, "velocity": 108, "channel": 0}, {"type": "note_off", "time": 71, "note": 78, "velocity": 108, "channel": 0}, {"type": "note_on", "time": 0, "note": 79, "velocity": 99, "channel": 0}, {"type": "note_off", "time": 71, "note": 79, "velocity": 99, "channel": 0}, {"type": "note_on", "time": 0, "note": 82, "velocity": 122, "channel": 0}, {"type": "note_on", "time": 106, "note": 78, "velocity": 119, "channel": 0}, {"type": "note_off", "time": 0, "note": 82, "velocity": 122, "channel": 0}, {"type": "note_off", "time": 92, "note": 78, "velocity": 119, "channel": 0}, {"type": "note_on", "time": 5, "note": 77, "velocity": 111, "channel": 0}, {"type": "note_off", "time": 71, "note": 77, "velocity": 111, "channel": 0}, {"type": "note_on", "time": 7, "note": 75, "velocity": 126, "channel": 0}, {"type": "note_off", "time": 55, "note": 75, "velocity": 126, "channel": 0}, {"type": "note_on", "time": 18, "note": 74, "velocity": 119, "channel": 0}, {"type": "note_off", "time": 42, "note": 74, "velocity": 119, "channel": 0}, {"type": "note_on", "time": 10, "note": 73, "velocity": 104, "channel": 0}, {"type": "note_off", "time": 45, "note": 73, "velocity": 104, "channel": 0}, {"type": "note_on", "time": 18, "note": 72, "velocity": 103, "channel": 0}, {"type": "note_off", "time": 95, "note": 72, "velocity": 103, "channel": 0}, {"type": "note_on", "time": 7, "note": 70, "velocity": 106, "channel": 0}, {"type": "note_off", "time": 114, "note": 70, "velocity": 106, "channel": 0}, {"type": "note_on", "time": 13, "note": 66, "velocity": 103, "channel": 0}, {"type": "note_off", "time": 79, "note": 66, "velocity": 103, "channel": 0}, {"type": "note_on", "time": 0, "note": 65, "velocity": 104, "channel": 0}, {"type": "note_off", "time": 92, "note": 65, "velocity": 104, "channel": 0}, {"type": "note_on", "time": 15, "note": 62, "velocity": 104, "channel": 0}, {"type": "note_off", "time": 247, "note": 62, "velocity": 104, "channel": 0}, {"type": "note_on", "time": 220, "note": 65, "velocity": 115, "channel": 0}, {"type": "note_off", "time": 185, "note": 65, "velocity": 115, "channel": 0}, {"type": "note_on", "time": 103, "note": 62, "velocity": 119, "channel": 0}, {"type": "note_off", "time": 98, "note": 62, "velocity": 119, "channel": 0}, {"type": "note_on", "time": 0, "note": 63, "velocity": 115, "channel": 0}, {"type": "note_off", "time": 100, "note": 63, "velocity": 115, "channel": 0}, {"type": "note_on", "time": 2, "note": 65, "velocity": 111, "channel": 0}, {"type": "note_off", "time": 130, "note": 65, "velocity": 111, "channel": 0}, {"type": "note_on", "time": 77, "note": 67, "velocity": 99, "channel": 0}, {"type": "note_off", "time": 58, "note": 67, "velocity": 99, "channel": 0}, {"type": "note_on", "time": 0, "note": 70, "velocity": 115, "channel": 0}, {"type": "note_off", "time": 154, "note": 70, "velocity": 115, "channel": 0}, {"type": "note_on", "time": 613, "note": 68, "velocity": 114, "channel": 0}, {"type": "note_off", "time": 98, "note": 68, "velocity": 114, "channel": 0}, {"type": "note_on", "time": 7, "note": 69, "velocity": 104, "channel": 0}, {"type": "note_off", "time": 82, "note": 69, "velocity": 104, "channel": 0}, {"type": "note_on", "time": 7, "note": 67, "velocity": 97, "channel": 0}, {"type": "note_off", "time": 87, "note": 67, "velocity": 97, "channel": 0}, {"type": "note_on", "time": 5, "note": 66, "velocity": 113, "channel": 0}, {"type": "note_off", "time": 114, "note": 66, "velocity": 113, "channel": 0}, {"type": "note_on", "time": 5, "note": 65, "velocity": 112, "channel": 0}, {"type": "note_off", "time": 82, "note": 65, "velocity": 112, "channel": 0}, {"type": "note_on", "time": 2, "note": 64, "velocity": 112, "channel": 0}, {"type": "note_off", "time": 98, "note": 64, "velocity": 112, "channel": 0}, {"type": "note_on", "time": 5, "note": 63, "velocity": 122, "channel": 0}, {"type": "note_off", "time": 108, "note": 63, "velocity": 122, "channel": 0}, {"type": "note_on", "time": 5, "note": 61, "velocity": 120, "channel": 0}, {"type": "note_off", "time": 154, "note": 61, "velocity": 120, "channel": 0}, {"type": "note_on", "time": 7, "note": 59, "velocity": 117, "channel": 0}, {"type": "note_off", "time": 138, "note": 59, "velocity": 117, "channel": 0}, {"type": "note_on", "time": 0, "note": 57, "velocity": 100, "channel": 0}, {"type": "note_off", "time": 77, "note": 57, "velocity": 100, "channel": 0}, {"type": "note_on", "time": 5, "note": 55, "velocity": 101, "channel": 0}, {"type": "note_off", "time": 79, "note": 55, "velocity": 101, "channel": 0}, {"type": "note_on", "time": 7, "note": 58, "velocity": 109, "channel": 0}, {"type": "note_off", "time": 98, "note": 58, "velocity": 109, "channel": 0}, {"type": "note_on", "time": 2, "note": 55, "velocity": 110, "channel": 0}, {"type": "note_off", "time": 106, "note": 55, "velocity": 110, "channel": 0}, {"type": "note_on", "time": 0, "note": 58, "velocity": 97, "channel": 0}, {"type": "note_off", "time": 98, "note": 58, "velocity": 97, "channel": 0}, {"type": "note_on", "time": 82, "note": 61, "velocity": 121, "channel": 0}, {"type": "note_off", "time": 124, "note": 61, "velocity": 121, "channel": 0}, {"type": "note_on", "time": 7, "note": 58, "velocity": 106, "channel": 0}, {"type": "note_off", "time": 92, "note": 58, "velocity": 106, "channel": 0}, {"type": "note_on", "time": 7, "note": 61, "velocity": 109, "channel": 0}, {"type": "note_off", "time": 90, "note": 61, "velocity": 109, "channel": 0}, {"type": "note_on", "time": 39, "note": 65, "velocity": 113, "channel": 0}, {"type": "note_off", "time": 122, "note": 65, "velocity": 113, "channel": 0}, {"type": "note_on", "time": 10, "note": 61, "velocity": 112, "channel": 0}, {"type": "note_off", "time": 119, "note": 61, "velocity": 112, "channel": 0}, {"type": "note_on", "time": 2, "note": 65, "velocity": 103, "channel": 0}, {"type": "note_off", "time": 79, "note": 65, "velocity": 103, "channel": 0}, {"type": "note_on", "time": 69, "note": 68, "velocity": 110, "channel": 0}, {"type": "note_off", "time": 132, "note": 68, "velocity": 110, "channel": 0}, {"type": "note_on", "time": 119, "note": 72, "velocity": 100, "channel": 0}, {"type": "note_off", "time": 177, "note": 72, "velocity": 100, "channel": 0}, {"type": "note_on", "time": 23, "note": 72, "velocity": 106, "channel": 0}, {"type": "note_off", "time": 146, "note": 72, "velocity": 106, "channel": 0}, {"type": "note_on", "time": 39, "note": 70, "velocity": 109, "channel": 0}, {"type": "note_off", "time": 119, "note": 70, "velocity": 109, "channel": 0}, {"type": "note_on", "time": 7, "note": 68, "velocity": 99, "channel": 0}, {"type": "note_off", "time": 77, "note": 68, "velocity": 99, "channel": 0}, {"type": "note_on", "time": 2, "note": 70, "velocity": 100, "channel": 0}, {"type": "note_off", "time": 39, "note": 70, "velocity": 100, "channel": 0}, {"type": "note_on", "time": 0, "note": 68, "velocity": 105, "channel": 0}, {"type": "note_off", "time": 31, "note": 68, "velocity": 105, "channel": 0}, {"type": "note_on", "time": 15, "note": 65, "velocity": 111, "channel": 0}, {"type": "note_off", "time": 138, "note": 65, "velocity": 111, "channel": 0}, {"type": "note_on", "time": 869, "note": 58, "velocity": 112, "channel": 0}, {"type": "note_off", "time": 89, "note": 58, "velocity": 112, "channel": 0}, {"type": "note_on", "time": 0, "note": 59, "velocity": 105, "channel": 0}, {"type": "note_off", "time": 93, "note": 59, "velocity": 105, "channel": 0}, {"type": "note_on", "time": 24, "note": 61, "velocity": 106, "channel": 0}, {"type": "note_off", "time": 149, "note": 61, "velocity": 106, "channel": 0}, {"type": "note_on", "time": 5, "note": 62, "velocity": 106, "channel": 0}, {"type": "note_on", "time": 56, "note": 64, "velocity": 109, "channel": 0}, {"type": "note_off", "time": 0, "note": 62, "velocity": 106, "channel": 0}, {"type": "note_off", "time": 110, "note": 64, "velocity": 109, "channel": 0}, {"type": "note_on", "time": 0, "note": 65, "velocity": 108, "channel": 0}, {"type": "note_off", "time": 69, "note": 65, "velocity": 108, "channel": 0}, {"type": "note_on", "time": 7, "note": 67, "velocity": 104, "channel": 0}, {"type": "note_off", "time": 76, "note": 67, "velocity": 104, "channel": 0}, {"type": "note_on", "time": 5, "note": 68, "velocity": 118, "channel": 0}, {"type": "note_off", "time": 87, "note": 68, "velocity": 118, "channel": 0}, {"type": "note_on", "time": 13, "note": 65, "velocity": 111, "channel": 0}, {"type": "note_off", "time": 95, "note": 65, "velocity": 111, "channel": 0}, {"type": "note_on", "time": 5, "note": 62, "velocity": 109, "channel": 0}, {"type": "note_off", "time": 104, "note": 62, "velocity": 109, "channel": 0}, {"type": "note_on", "time": 7, "note": 59, "velocity": 103, "channel": 0}, {"type": "note_off", "time": 74, "note": 59, "velocity": 103, "channel": 0}, {"type": "note_on", "time": 5, "note": 65, "velocity": 112, "channel": 0}, {"type": "note_off", "time": 104, "note": 65, "velocity": 112, "channel": 0}, {"type": "note_on", "time": 9, "note": 61, "velocity": 103, "channel": 0}, {"type": "note_off", "time": 59, "note": 61, "velocity": 103, "channel": 0}, {"type": "note_on", "time": 0, "note": 64, "velocity": 114, "channel": 0}, {"type": "note_off", "time": 89, "note": 64, "velocity": 114, "channel": 0}, {"type": "note_on", "time": 5, "note": 61, "velocity": 115, "channel": 0}, {"type": "note_off", "time": 128, "note": 61, "velocity": 115, "channel": 0}, {"type": "note_on", "time": 42, "note": 61, "velocity": 122, "channel": 0}, {"type": "note_off", "time": 151, "note": 61, "velocity": 122, "channel": 0}, {"type": "note_on", "time": 0, "note": 64, "velocity": 106, "channel": 0}, {"type": "note_off", "time": 84, "note": 64, "velocity": 106, "channel": 0}, {"type": "note_on", "time": 7, "note": 68, "velocity": 100, "channel": 0}, {"type": "note_off", "time": 74, "note": 68, "velocity": 100, "channel": 0}, {"type": "note_on", "time": 13, "note": 72, "velocity": 108, "channel": 0}, {"type": "note_off", "time": 56, "note": 72, "velocity": 108, "channel": 0}, {"type": "note_on", "time": 5, "note": 69, "velocity": 105, "channel": 0}, {"type": "note_off", "time": 72, "note": 69, "velocity": 105, "channel": 0}, {"type": "note_on", "time": 1, "note": 70, "velocity": 109, "channel": 0}, {"type": "note_off", "time": 106, "note": 70, "velocity": 109, "channel": 0}, {"type": "note_on", "time": 3, "note": 72, "velocity": 113, "channel": 0}, {"type": "note_off", "time": 121, "note": 72, "velocity": 113, "channel": 0}, {"type": "note_on", "time": 3, "note": 73, "velocity": 109, "channel": 0}, {"type": "note_off", "time": 78, "note": 73, "velocity": 109, "channel": 0}, {"type": "note_on", "time": 7, "note": 75, "velocity": 111, "channel": 0}, {"type": "note_off", "time": 72, "note": 75, "velocity": 111, "channel": 0}, {"type": "note_on", "time": 1, "note": 80, "velocity": 105, "channel": 0}, {"type": "note_off", "time": 91, "note": 80, "velocity": 105, "channel": 0}, {"type": "note_on", "time": 0, "note": 78, "velocity": 114, "channel": 0}, {"type": "note_off", "time": 87, "note": 78, "velocity": 114, "channel": 0}, {"type": "note_on", "time": 11, "note": 73, "velocity": 110, "channel": 0}, {"type": "note_off", "time": 91, "note": 73, "velocity": 110, "channel": 0}, {"type": "note_on", "time": 7, "note": 69, "velocity": 95, "channel": 0}, {"type": "note_off", "time": 63, "note": 69, "velocity": 95, "channel": 0}, {"type": "note_on", "time": 5, "note": 68, "velocity": 106, "channel": 0}, {"type": "note_off", "time": 93, "note": 68, "velocity": 106, "channel": 0}, {"type": "note_on", "time": 3, "note": 67, "velocity": 110, "channel": 0}, {"type": "note_off", "time": 85, "note": 67, "velocity": 110, "channel": 0}, {"type": "note_on", "time": 9, "note": 66, "velocity": 102, "channel": 0}, {"type": "note_on", "time": 91, "note": 68, "velocity": 111, "channel": 0}, {"type": "note_off", "time": 0, "note": 66, "velocity": 102, "channel": 0}, {"type": "note_off", "time": 108, "note": 68, "velocity": 111, "channel": 0}, {"type": "note_on", "time": 0, "note": 65, "velocity": 105, "channel": 0}, {"type": "note_off", "time": 89, "note": 65, "velocity": 105, "channel": 0}, {"type": "note_on", "time": 1, "note": 63, "velocity": 122, "channel": 0}, {"type": "note_off", "time": 117, "note": 63, "velocity": 122, "channel": 0}, {"type": "note_on", "time": 7, "note": 60, "velocity": 105, "channel": 0}, {"type": "note_off", "time": 54, "note": 60, "velocity": 105, "channel": 0}, {"type": "note_on", "time": 3, "note": 61, "velocity": 113, "channel": 0}, {"type": "note_off", "time": 125, "note": 61, "velocity": 113, "channel": 0}, {"type": "note_on", "time": 9, "note": 62, "velocity": 103, "channel": 0}, {"type": "note_off", "time": 186, "note": 62, "velocity": 103, "channel": 0}, {"type": "note_on", "time": 343, "note": 63, "velocity": 123, "channel": 0}, {"type": "note_off", "time": 323, "note": 63, "velocity": 123, "channel": 0}, {"type": "note_on", "time": 5, "note": 60, "velocity": 98, "channel": 0}, {"type": "note_on", "time": 78, "note": 63, "velocity": 121, "channel": 0}, {"type": "note_off", "time": 0, "note": 60, "velocity": 98, "channel": 0}, {"type": "note_off", "time": 140, "note": 63, "velocity": 121, "channel": 0}, {"type": "note_on", "time": 0, "note": 60, "velocity": 108, "channel": 0}, {"type": "note_off", "time": 76, "note": 60, "velocity": 108, "channel": 0}, {"type": "note_on", "time": 1, "note": 63, "velocity": 122, "channel": 0}, {"type": "note_off", "time": 184, "note": 63, "velocity": 122, "channel": 0}, {"type": "note_on", "time": 369, "note": 64, "velocity": 114, "channel": 0}, {"type": "note_off", "time": 76, "note": 64, "velocity": 114, "channel": 0}, {"type": "note_on", "time": 0, "note": 65, "velocity": 109, "channel": 0}, {"type": "note_off", "time": 74, "note": 65, "velocity": 109, "channel": 0}, {"type": "note_on", "time": 5, "note": 64, "velocity": 115, "channel": 0}, {"type": "note_off", "time": 47, "note": 64, "velocity": 115, "channel": 0}, {"type": "note_on", "time": 4, "note": 61, "velocity": 113, "channel": 0}, {"type": "note_off", "time": 103, "note": 61, "velocity": 113, "channel": 0}, {"type": "note_on", "time": 81, "note": 64, "velocity": 109, "channel": 0}, {"type": "note_off", "time": 58, "note": 64, "velocity": 109, "channel": 0}, {"type": "note_on", "time": 5, "note": 65, "velocity": 112, "channel": 0}, {"type": "note_off", "time": 75, "note": 65, "velocity": 112, "channel": 0}, {"type": "note_on", "time": 4, "note": 64, "velocity": 111, "channel": 0}, {"type": "note_off", "time": 50, "note": 64, "velocity": 111, "channel": 0}, {"type": "note_on", "time": 0, "note": 61, "velocity": 108, "channel": 0}, {"type": "note_off", "time": 67, "note": 61, "velocity": 108, "channel": 0}, {"type": "note_on", "time": 1, "note": 65, "velocity": 111, "channel": 0}, {"type": "note_off", "time": 324, "note": 65, "velocity": 111, "channel": 0}, {"type": "note_on", "time": 576, "note": 67, "velocity": 121, "channel": 0}, {"type": "note_off", "time": 107, "note": 67, "velocity": 121, "channel": 0}, {"type": "note_on", "time": 4, "note": 66, "velocity": 117, "channel": 0}, {"type": "note_off", "time": 103, "note": 66, "velocity": 117, "channel": 0}, {"type": "note_on", "time": 6, "note": 65, "velocity": 96, "channel": 0}, {"type": "note_off", "time": 57, "note": 65, "velocity": 96, "channel": 0}, {"type": "note_on", "time": 8, "note": 63, "velocity": 124, "channel": 0}, {"type": "note_off", "time": 108, "note": 63, "velocity": 124, "channel": 0}, {"type": "note_on", "time": 3, "note": 62, "velocity": 115, "channel": 0}, {"type": "note_off", "time": 62, "note": 62, "velocity": 115, "channel": 0}, {"type": "note_on", "time": 2, "note": 60, "velocity": 112, "channel": 0}, {"type": "note_off", "time": 86, "note": 60, "velocity": 112, "channel": 0}, {"type": "note_on", "time": 5, "note": 58, "velocity": 108, "channel": 0}, {"type": "note_off", "time": 126, "note": 58, "velocity": 108, "channel": 0}, {"type": "note_on", "time": 652, "note": 67, "velocity": 121, "channel": 0}, {"type": "note_off", "time": 117, "note": 67, "velocity": 121, "channel": 0}, {"type": "note_on", "time": 0, "note": 66, "velocity": 113, "channel": 0}, {"type": "note_off", "time": 72, "note": 66, "velocity": 113, "channel": 0}, {"type": "note_on", "time": 7, "note": 65, "velocity": 105, "channel": 0}, {"type": "note_off", "time": 76, "note": 65, "velocity": 105, "channel": 0}, {"type": "note_on", "time": 3, "note": 63, "velocity": 125, "channel": 0}, {"type": "note_off", "time": 97, "note": 63, "velocity": 125, "channel": 0}, {"type": "note_on", "time": 9, "note": 62, "velocity": 116, "channel": 0}, {"type": "note_off", "time": 82, "note": 62, "velocity": 116, "channel": 0}, {"type": "note_on", "time": 3, "note": 60, "velocity": 104, "channel": 0}, {"type": "note_off", "time": 82, "note": 60, "velocity": 104, "channel": 0}, {"type": "note_on", "time": 3, "note": 58, "velocity": 107, "channel": 0}, {"type": "note_off", "time": 117, "note": 58, "velocity": 107, "channel": 0}, {"type": "note_on", "time": 1060, "note": 67, "velocity": 123, "channel": 0}, {"type": "note_off", "time": 121, "note": 67, "velocity": 123, "channel": 0}, {"type": "note_on", "time": 3, "note": 66, "velocity": 116, "channel": 0}, {"type": "note_off", "time": 87, "note": 66, "velocity": 116, "channel": 0}, {"type": "note_on", "time": 0, "note": 65, "velocity": 104, "channel": 0}, {"type": "note_off", "time": 57, "note": 65, "velocity": 104, "channel": 0}, {"type": "note_on", "time": 9, "note": 63, "velocity": 125, "channel": 0}, {"type": "note_off", "time": 87, "note": 63, "velocity": 125, "channel": 0}, {"type": "note_on", "time": 5, "note": 62, "velocity": 110, "channel": 0}, {"type": "note_off", "time": 82, "note": 62, "velocity": 110, "channel": 0}, {"type": "note_on", "time": 7, "note": 60, "velocity": 109, "channel": 0}, {"type": "note_off", "time": 85, "note": 60, "velocity": 109, "channel": 0}, {"type": "note_on", "time": 1, "note": 58, "velocity": 106, "channel": 0}, {"type": "note_off", "time": 87, "note": 58, "velocity": 106, "channel": 0}, {"type": "note_on", "time": 874, "note": 67, "velocity": 121, "channel": 0}, {"type": "note_off", "time": 84, "note": 67, "velocity": 121, "channel": 0}, {"type": "note_on", "time": 3, "note": 65, "velocity": 111, "channel": 0}, {"type": "note_off", "time": 112, "note": 65, "velocity": 111, "channel": 0}, {"type": "note_on", "time": 0, "note": 66, "velocity": 103, "channel": 0}, {"type": "note_off", "time": 82, "note": 66, "velocity": 103, "channel": 0}, {"type": "note_on", "time": 5, "note": 65, "velocity": 113, "channel": 0}, {"type": "note_off", "time": 119, "note": 65, "velocity": 113, "channel": 0}, {"type": "note_on", "time": 44, "note": 63, "velocity": 109, "channel": 0}, {"type": "note_off", "time": 108, "note": 63, "velocity": 109, "channel": 0}, {"type": "note_on", "time": 5, "note": 62, "velocity": 100, "channel": 0}, {"type": "note_off", "time": 97, "note": 62, "velocity": 100, "channel": 0}, {"type": "note_on", "time": 773, "note": 67, "velocity": 121, "channel": 0}, {"type": "note_off", "time": 106, "note": 67, "velocity": 121, "channel": 0}, {"type": "note_on", "time": 3, "note": 68, "velocity": 115, "channel": 0}, {"type": "note_off", "time": 76, "note": 68, "velocity": 115, "channel": 0}, {"type": "note_on", "time": 3, "note": 66, "velocity": 101, "channel": 0}, {"type": "note_off", "time": 74, "note": 66, "velocity": 101, "channel": 0}, {"type": "note_on", "time": 5, "note": 67, "velocity": 114, "channel": 0}, {"type": "note_off", "time": 104, "note": 67, "velocity": 114, "channel": 0}, {"type": "note_on", "time": 1, "note": 65, "velocity": 109, "channel": 0}, {"type": "note_off", "time": 82, "note": 65, "velocity": 109, "channel": 0}, {"type": "note_on", "time": 0, "note": 66, "velocity": 105, "channel": 0}, {"type": "note_off", "time": 136, "note": 66, "velocity": 105, "channel": 0}, {"type": "note_on", "time": 0, "note": 64, "velocity": 103, "channel": 0}, {"type": "note_off", "time": 56, "note": 64, "velocity": 103, "channel": 0}, {"type": "note_on", "time": 3, "note": 65, "velocity": 110, "channel": 0}, {"type": "note_off", "time": 155, "note": 65, "velocity": 110, "channel": 0}, {"type": "note_on", "time": 128, "note": 63, "velocity": 123, "channel": 0}, {"type": "note_off", "time": 97, "note": 63, "velocity": 123, "channel": 0}, {"type": "note_on", "time": 3, "note": 64, "velocity": 109, "channel": 0}, {"type": "note_off", "time": 108, "note": 64, "velocity": 109, "channel": 0}, {"type": "note_on", "time": 9, "note": 66, "velocity": 106, "channel": 0}, {"type": "note_off", "time": 145, "note": 66, "velocity": 106, "channel": 0}, {"type": "note_on", "time": 0, "note": 69, "velocity": 113, "channel": 0}, {"type": "note_off", "time": 132, "note": 69, "velocity": 113, "channel": 0}, {"type": "note_on", "time": 0, "note": 70, "velocity": 107, "channel": 0}, {"type": "note_off", "time": 70, "note": 70, "velocity": 107, "channel": 0}, {"type": "note_on", "time": 7, "note": 71, "velocity": 92, "channel": 0}, {"type": "note_off", "time": 84, "note": 71, "velocity": 92, "channel": 0}, {"type": "note_on", "time": 14, "note": 73, "velocity": 112, "channel": 0}, {"type": "note_off", "time": 98, "note": 73, "velocity": 112, "channel": 0}, {"type": "note_on", "time": 0, "note": 70, "velocity": 101, "channel": 0}, {"type": "note_off", "time": 76, "note": 70, "velocity": 101, "channel": 0}, {"type": "note_on", "time": 7, "note": 72, "velocity": 103, "channel": 0}, {"type": "note_off", "time": 164, "note": 72, "velocity": 103, "channel": 0}, {"type": "note_on", "time": 1, "note": 70, "velocity": 103, "channel": 0}, {"type": "note_on", "time": 127, "note": 68, "velocity": 104, "channel": 0}, {"type": "note_off", "time": 0, "note": 70, "velocity": 103, "channel": 0}, {"type": "note_off", "time": 84, "note": 68, "velocity": 104, "channel": 0}, {"type": "note_on", "time": 0, "note": 69, "velocity": 110, "channel": 0}, {"type": "note_off", "time": 141, "note": 69, "velocity": 110, "channel": 0}, {"type": "note_on", "time": 420, "note": 67, "velocity": 121, "channel": 0}, {"type": "note_off", "time": 110, "note": 67, "velocity": 121, "channel": 0}, {"type": "note_on", "time": 0, "note": 66, "velocity": 114, "channel": 0}, {"type": "note_off", "time": 91, "note": 66, "velocity": 114, "channel": 0}, {"type": "note_on", "time": 0, "note": 67, "velocity": 101, "channel": 0}, {"type": "note_off", "time": 102, "note": 67, "velocity": 101, "channel": 0}, {"type": "note_on", "time": 1, "note": 68, "velocity": 105, "channel": 0}, {"type": "note_off", "time": 141, "note": 68, "velocity": 105, "channel": 0}, {"type": "note_on", "time": 46, "note": 71, "velocity": 106, "channel": 0}, {"type": "note_off", "time": 130, "note": 71, "velocity": 106, "channel": 0}, {"type": "note_on", "time": 5, "note": 73, "velocity": 104, "channel": 0}, {"type": "note_off", "time": 69, "note": 73, "velocity": 104, "channel": 0}, {"type": "note_on", "time": 9, "note": 74, "velocity": 102, "channel": 0}, {"type": "note_off", "time": 59, "note": 74, "velocity": 102, "channel": 0}, {"type": "note_on", "time": 5, "note": 75, "velocity": 117, "channel": 0}, {"type": "note_off", "time": 115, "note": 75, "velocity": 117, "channel": 0}, {"type": "note_on", "time": 1, "note": 72, "velocity": 101, "channel": 0}, {"type": "note_on", "time": 63, "note": 74, "velocity": 110, "channel": 0}, {"type": "note_off", "time": 0, "note": 72, "velocity": 101, "channel": 0}, {"type": "note_off", "time": 112, "note": 74, "velocity": 110, "channel": 0}, {"type": "note_on", "time": 0, "note": 72, "velocity": 99, "channel": 0}, {"type": "note_off", "time": 78, "note": 72, "velocity": 99, "channel": 0}, {"type": "note_on", "time": 9, "note": 73, "velocity": 109, "channel": 0}, {"type": "note_off", "time": 97, "note": 73, "velocity": 109, "channel": 0}, {"type": "note_on", "time": 3, "note": 70, "velocity": 96, "channel": 0}, {"type": "note_off", "time": 85, "note": 70, "velocity": 96, "channel": 0}, {"type": "note_on", "time": 3, "note": 72, "velocity": 108, "channel": 0}, {"type": "note_off", "time": 128, "note": 72, "velocity": 108, "channel": 0}, {"type": "note_on", "time": 5, "note": 69, "velocity": 97, "channel": 0}, {"type": "note_off", "time": 72, "note": 69, "velocity": 97, "channel": 0}, {"type": "note_on", "time": 3, "note": 70, "velocity": 92, "channel": 0}, {"type": "note_off", "time": 84, "note": 70, "velocity": 92, "channel": 0}, {"type": "note_on", "time": 0, "note": 68, "velocity": 98, "channel": 0}, {"type": "note_off", "time": 69, "note": 68, "velocity": 98, "channel": 0}, {"type": "note_on", "time": 3, "note": 69, "velocity": 114, "channel": 0}, {"type": "note_off", "time": 89, "note": 69, "velocity": 114, "channel": 0}, {"type": "note_on", "time": 0, "note": 68, "velocity": 110, "channel": 0}, {"type": "note_off", "time": 74, "note": 68, "velocity": 110, "channel": 0}, {"type": "note_on", "time": 42, "note": 67, "velocity": 101, "channel": 0}, {"type": "note_off", "time": 69, "note": 67, "velocity": 101, "channel": 0}, {"type": "note_on", "time": 0, "note": 66, "velocity": 110, "channel": 0}, {"type": "note_off", "time": 91, "note": 66, "velocity": 110, "channel": 0}, {"type": "note_on", "time": 18, "note": 65, "velocity": 105, "channel": 0}, {"type": "note_off", "time": 82, "note": 65, "velocity": 105, "channel": 0}, {"type": "note_on", "time": 13, "note": 64, "velocity": 110, "channel": 0}, {"type": "note_off", "time": 91, "note": 64, "velocity": 110, "channel": 0}, {"type": "note_on", "time": 9, "note": 63, "velocity": 118, "channel": 0}, {"type": "note_off", "time": 127, "note": 63, "velocity": 118, "channel": 0}, {"type": "note_on", "time": 5, "note": 66, "velocity": 102, "channel": 0}, {"type": "note_off", "time": 121, "note": 66, "velocity": 102, "channel": 0}, {"type": "note_on", "time": 499, "note": 65, "velocity": 112, "channel": 0}, {"type": "note_off", "time": 199, "note": 65, "velocity": 112, "channel": 0}, {"type": "note_on", "time": 10, "note": 65, "velocity": 123, "channel": 0}, {"type": "note_off", "time": 111, "note": 65, "velocity": 123, "channel": 0}, {"type": "note_on", "time": 18, "note": 63, "velocity": 121, "channel": 0}, {"type": "note_off", "time": 106, "note": 63, "velocity": 121, "channel": 0}, {"type": "note_on", "time": 18, "note": 63, "velocity": 103, "channel": 0}, {"type": "note_off", "time": 122, "note": 63, "velocity": 103, "channel": 0}, {"type": "note_on", "time": 13, "note": 65, "velocity": 110, "channel": 0}, {"type": "note_off", "time": 177, "note": 65, "velocity": 110, "channel": 0}, {"type": "note_on", "time": 13, "note": 65, "velocity": 113, "channel": 0}, {"type": "note_off", "time": 114, "note": 65, "velocity": 113, "channel": 0}, {"type": "note_on", "time": 18, "note": 61, "velocity": 112, "channel": 0}, {"type": "note_off", "time": 124, "note": 61, "velocity": 112, "channel": 0}, {"type": "note_on", "time": 34, "note": 61, "velocity": 109, "channel": 0}, {"type": "note_off", "time": 106, "note": 61, "velocity": 109, "channel": 0}, {"type": "note_on", "time": 0, "note": 65, "velocity": 113, "channel": 0}, {"type": "note_off", "time": 199, "note": 65, "velocity": 113, "channel": 0}, {"type": "note_on", "time": 23, "note": 65, "velocity": 113, "channel": 0}, {"type": "note_off", "time": 61, "note": 65, "velocity": 113, "channel": 0}, {"type": "note_on", "time": 18, "note": 60, "velocity": 111, "channel": 0}, {"type": "note_off", "time": 74, "note": 60, "velocity": 111, "channel": 0}, {"type": "note_on", "time": 100, "note": 60, "velocity": 108, "channel": 0}, {"type": "note_off", "time": 108, "note": 60, "velocity": 108, "channel": 0}, {"type": "note_on", "time": 0, "note": 65, "velocity": 114, "channel": 0}, {"type": "note_off", "time": 156, "note": 65, "velocity": 114, "channel": 0}, {"type": "note_on", "time": 34, "note": 65, "velocity": 114, "channel": 0}, {"type": "note_off", "time": 124, "note": 65, "velocity": 114, "channel": 0}, {"type": "note_on", "time": 0, "note": 58, "velocity": 108, "channel": 0}, {"type": "note_off", "time": 119, "note": 58, "velocity": 108, "channel": 0}, {"type": "note_on", "time": 23, "note": 58, "velocity": 106, "channel": 0}, {"type": "note_off", "time": 111, "note": 58, "velocity": 106, "channel": 0}, {"type": "note_on", "time": 0, "note": 59, "velocity": 115, "channel": 0}, {"type": "note_off", "time": 146, "note": 59, "velocity": 115, "channel": 0}, {"type": "note_on", "time": 31, "note": 59, "velocity": 106, "channel": 0}, {"type": "note_off", "time": 98, "note": 59, "velocity": 106, "channel": 0}, {"type": "note_on", "time": 2, "note": 68, "velocity": 106, "channel": 0}, {"type": "note_off", "time": 130, "note": 68, "velocity": 106, "channel": 0}, {"type": "note_on", "time": 45, "note": 68, "velocity": 94, "channel": 0}, {"type": "note_off", "time": 108, "note": 68, "velocity": 94, "channel": 0}, {"type": "note_on", "time": 7, "note": 67, "velocity": 110, "channel": 0}, {"type": "note_off", "time": 135, "note": 67, "velocity": 110, "channel": 0}, {"type": "note_on", "time": 47, "note": 67, "velocity": 112, "channel": 0}, {"type": "note_on", "time": 111, "note": 61, "velocity": 116, "channel": 0}, {"type": "note_off", "time": 0, "note": 67, "velocity": 112, "channel": 0}, {"type": "note_off", "time": 108, "note": 61, "velocity": 116, "channel": 0}, {"type": "note_on", "time": 58, "note": 61, "velocity": 115, "channel": 0}, {"type": "note_off", "time": 127, "note": 61, "velocity": 115, "channel": 0}, {"type": "note_on", "time": 0, "note": 65, "velocity": 109, "channel": 0}, {"type": "note_off", "time": 106, "note": 65, "velocity": 109, "channel": 0}, {"type": "note_on", "time": 5, "note": 68, "velocity": 107, "channel": 0}, {"type": "note_off", "time": 63, "note": 68, "velocity": 107, "channel": 0}, {"type": "note_on", "time": 2, "note": 72, "velocity": 106, "channel": 0}, {"type": "note_off", "time": 127, "note": 72, "velocity": 106, "channel": 0}, {"type": "note_on", "time": 0, "note": 69, "velocity": 99, "channel": 0}, {"type": "note_off", "time": 58, "note": 69, "velocity": 99, "channel": 0}, {"type": "note_on", "time": 0, "note": 70, "velocity": 103, "channel": 0}, {"type": "note_off", "time": 79, "note": 70, "velocity": 103, "channel": 0}, {"type": "note_on", "time": 2, "note": 72, "velocity": 114, "channel": 0}, {"type": "note_off", "time": 92, "note": 72, "velocity": 114, "channel": 0}, {"type": "note_on", "time": 5, "note": 73, "velocity": 111, "channel": 0}, {"type": "note_off", "time": 82, "note": 73, "velocity": 111, "channel": 0}, {"type": "note_on", "time": 0, "note": 75, "velocity": 115, "channel": 0}, {"type": "note_off", "time": 95, "note": 75, "velocity": 115, "channel": 0}, {"type": "note_on", "time": 5, "note": 76, "velocity": 110, "channel": 0}, {"type": "note_off", "time": 90, "note": 76, "velocity": 110, "channel": 0}, {"type": "note_on", "time": 0, "note": 78, "velocity": 116, "channel": 0}, {"type": "note_off", "time": 119, "note": 78, "velocity": 116, "channel": 0}, {"type": "note_on", "time": 0, "note": 79, "velocity": 99, "channel": 0}, {"type": "note_off", "time": 53, "note": 79, "velocity": 99, "channel": 0}, {"type": "note_on", "time": 0, "note": 81, "velocity": 108, "channel": 0}, {"type": "note_off", "time": 143, "note": 81, "velocity": 108, "channel": 0}, {"type": "note_on", "time": 0, "note": 82, "velocity": 103, "channel": 0}, {"type": "note_off", "time": 61, "note": 82, "velocity": 103, "channel": 0}, {"type": "note_on", "time": 2, "note": 84, "velocity": 104, "channel": 0}, {"type": "note_off", "time": 61, "note": 84, "velocity": 104, "channel": 0}, {"type": "note_on", "time": 7, "note": 85, "velocity": 109, "channel": 0}, {"type": "note_off", "time": 130, "note": 85, "velocity": 109, "channel": 0}, {"type": "note_on", "time": 63, "note": 84, "velocity": 112, "channel": 0}, {"type": "note_off", "time": 114, "note": 84, "velocity": 112, "channel": 0}, {"type": "note_on", "time": 0, "note": 82, "velocity": 115, "channel": 0}, {"type": "note_off", "time": 90, "note": 82, "velocity": 115, "channel": 0}, {"type": "note_on", "time": 5, "note": 81, "velocity": 102, "channel": 0}, {"type": "note_off", "time": 71, "note": 81, "velocity": 102, "channel": 0}, {"type": "note_on", "time": 0, "note": 79, "velocity": 99, "channel": 0}, {"type": "note_off", "time": 77, "note": 79, "velocity": 99, "channel": 0}, {"type": "note_on", "time": 7, "note": 78, "velocity": 116, "channel": 0}, {"type": "note_off", "time": 111, "note": 78, "velocity": 116, "channel": 0}, {"type": "note_on", "time": 7, "note": 76, "velocity": 101, "channel": 0}, {"type": "note_off", "time": 69, "note": 76, "velocity": 101, "channel": 0}, {"type": "note_on", "time": 0, "note": 77, "velocity": 112, "channel": 0}, {"type": "note_off", "time": 122, "note": 77, "velocity": 112, "channel": 0}, {"type": "note_on", "time": 1577, "note": 84, "velocity": 102, "channel": 0}, {"type": "note_off", "time": 185, "note": 84, "velocity": 102, "channel": 0}, {"type": "note_on", "time": 5, "note": 87, "velocity": 104, "channel": 0}, {"type": "note_off", "time": 156, "note": 87, "velocity": 104, "channel": 0}, {"type": "note_on", "time": 5, "note": 86, "velocity": 125, "channel": 0}, {"type": "note_off", "time": 37, "note": 86, "velocity": 125, "channel": 0}, {"type": "note_on", "time": 0, "note": 85, "velocity": 112, "channel": 0}, {"type": "note_off", "time": 58, "note": 85, "velocity": 112, "channel": 0}, {"type": "note_on", "time": 7, "note": 84, "velocity": 104, "channel": 0}, {"type": "note_off", "time": 92, "note": 84, "velocity": 104, "channel": 0}, {"type": "note_on", "time": 0, "note": 82, "velocity": 119, "channel": 0}, {"type": "note_off", "time": 85, "note": 82, "velocity": 119, "channel": 0}, {"type": "note_on", "time": 5, "note": 81, "velocity": 104, "channel": 0}, {"type": "note_off", "time": 61, "note": 81, "velocity": 104, "channel": 0}, {"type": "note_on", "time": 2, "note": 79, "velocity": 101, "channel": 0}, {"type": "note_off", "time": 79, "note": 79, "velocity": 101, "channel": 0}, {"type": "note_on", "time": 21, "note": 80, "velocity": 97, "channel": 0}, {"type": "note_off", "time": 85, "note": 80, "velocity": 97, "channel": 0}, {"type": "note_on", "time": 7, "note": 77, "velocity": 99, "channel": 0}, {"type": "note_off", "time": 69, "note": 77, "velocity": 99, "channel": 0}, {"type": "note_on", "time": 7, "note": 78, "velocity": 110, "channel": 0}, {"type": "note_off", "time": 92, "note": 78, "velocity": 110, "channel": 0}, {"type": "note_on", "time": 15, "note": 76, "velocity": 99, "channel": 0}, {"type": "note_off", "time": 79, "note": 76, "velocity": 99, "channel": 0}, {"type": "note_on", "time": 7, "note": 77, "velocity": 118, "channel": 0}, {"type": "note_off", "time": 106, "note": 77, "velocity": 118, "channel": 0}, {"type": "note_on", "time": 7, "note": 75, "velocity": 88, "channel": 0}, {"type": "note_off", "time": 85, "note": 75, "velocity": 88, "channel": 0}, {"type": "note_on", "time": 536, "note": 73, "velocity": 103, "channel": 0}, {"type": "note_off", "time": 98, "note": 73, "velocity": 103, "channel": 0}, {"type": "note_on", "time": 0, "note": 77, "velocity": 105, "channel": 0}, {"type": "note_off", "time": 154, "note": 77, "velocity": 105, "channel": 0}, {"type": "note_on", "time": 42, "note": 77, "velocity": 118, "channel": 0}, {"type": "note_off", "time": 233, "note": 77, "velocity": 118, "channel": 0}, {"type": "note_on", "time": 69, "note": 79, "velocity": 104, "channel": 0}, {"type": "note_off", "time": 151, "note": 79, "velocity": 104, "channel": 0}, {"type": "note_on", "time": 53, "note": 73, "velocity": 101, "channel": 0}, {"type": "note_off", "time": 119, "note": 73, "velocity": 101, "channel": 0}, {"type": "note_on", "time": 50, "note": 77, "velocity": 9, "channel": 0}, {"type": "note_off", "time": 154, "note": 77, "velocity": 9, "channel": 0}, {"type": "note_on", "time": 13, "note": 79, "velocity": 9, "channel": 0}, {"type": "note_off", "time": 199, "note": 79, "velocity": 9, "channel": 0}, {"type": "note_on", "time": 618, "note": 74, "velocity": 118, "channel": 0}, {"type": "note_off", "time": 114, "note": 74, "velocity": 118, "channel": 0}, {"type": "note_on", "time": 13, "note": 75, "velocity": 118, "channel": 0}, {"type": "note_off", "time": 85, "note": 75, "velocity": 118, "channel": 0}, {"type": "note_on", "time": 10, "note": 74, "velocity": 105, "channel": 0}, {"type": "note_off", "time": 71, "note": 74, "velocity": 105, "channel": 0}, {"type": "note_on", "time": 10, "note": 70, "velocity": 113, "channel": 0}, {"type": "note_off", "time": 87, "note": 70, "velocity": 113, "channel": 0}, {"type": "note_on", "time": 5, "note": 65, "velocity": 104, "channel": 0}, {"type": "note_off", "time": 95, "note": 65, "velocity": 104, "channel": 0}, {"type": "note_on", "time": 0, "note": 63, "velocity": 125, "channel": 0}, {"type": "note_off", "time": 92, "note": 63, "velocity": 125, "channel": 0}, {"type": "note_on", "time": 2, "note": 61, "velocity": 115, "channel": 0}, {"type": "note_off", "time": 116, "note": 61, "velocity": 115, "channel": 0}, {"type": "end_of_track", "time": 0}]]}