{"ticks_per_beat": 192, "tracks": [[{"type": "track_name", "name": "Melody", "time": 0}, {"type": "set_tempo", "tempo": 451127, "time": 0}, {"type": "key_signature", "key": "Ab", "time": 0}, {"type": "time_signature", "numerator": 4, "denominator": 4, "clocks_per_click": 24, "notated_32nd_notes_per_beat": 8, "time": 0}, {"type": "note_on", "time": 482, "note": 60, "velocity": 109, "channel": 0}, {"type": "note_off", "time": 96, "note": 60, "velocity": 109, "channel": 0}, {"type": "note_on", "time": 20, "note": 61, "velocity": 112, "channel": 0}, {"type": "note_off", "time": 40, "note": 61, "velocity": 112, "channel": 0}, {"type": "note_on", "time": 29, "note": 60, "velocity": 103, "channel": 0}, {"type": "note_off", "time": 79, "note": 60, "velocity": 103, "channel": 0}, {"type": "note_on", "time": 18, "note": 61, "velocity": 103, "channel": 0}, {"type": "note_off", "time": 69, "note": 61, "velocity": 103, "channel": 0}, {"type": "note_on", "time": 14, "note": 60, "velocity": 103, "channel": 0}, {"type": "note_off", "time": 67, "note": 60, "velocity": 103, "channel": 0}, {"type": "note_on", "time": 18, "note": 61, "velocity": 112, "channel": 0}, {"type": "note_off", "time": 63, "note": 61, "velocity": 112, "channel": 0}, {"type": "note_on", "time": 16, "note": 63, "velocity": 112, "channel": 0}, {"type": "note_off", "time": 88, "note": 63, "velocity": 112, "channel": 0}, {"type": "note_on", "time": 86, "note": 63, "velocity": 110, "channel": 0}, {"type": "note_off", "time": 187, "note": 63, "velocity": 110, "channel": 0}, {"type": "note_on", "time": 24, "note": 63, "velocity": 111, "channel": 0}, {"type": "note_off", "time": 170, "note": 63, "velocity": 111, "channel": 0}, {"type": "note_on", "time": 15, "note": 63, "velocity": 111, "channel": 0}, {"type": "note_off", "time": 85, "note": 63, "velocity": 111, "channel": 0}, {"type": "note_on", "time": 13, "note": 64, "velocity": 107, "channel": 0}, {"type": "note_off", "time": 59, "note": 64, "velocity": 107, "channel": 0}, {"type": "note_on", "time": 22, "note": 66, "velocity": 110, "channel": 0}, {"type": "note_off", "time": 92, "note": 66, "velocity": 110, "channel": 0}, {"type": "note_on", "time": 6, "note": 64, "velocity": 112, "channel": 0}, {"type": "note_off", "time": 74, "note": 64, "velocity": 112, "channel": 0}, {"type": "note_on", "time": 32, "note": 63, "velocity": 107, "channel": 0}, {"type": "note_off", "time": 242, "note": 63, "velocity": 107, "channel": 0}, {"type": "note_on", "time": 37, "note": 60, "velocity": 106, "channel": 0}, {"type": "note_off", "time": 56, "note": 60, "velocity": 106, "channel": 0}, {"type": "note_on", "time": 37, "note": 58, "velocity": 105, "channel": 0}, {"type": "note_off", "time": 123, "note": 58, "velocity": 105, "channel": 0}, {"type": "note_on", "time": 11, "note": 58, "velocity": 97, "channel": 0}, {"type": "note_off", "time": 187, "note": 58, "velocity": 97, "channel": 0}, {"type": "note_on", "time": 41, "note": 58, "velocity": 94, "channel": 0}, {"type": "note_off", "time": 121, "note": 58, "velocity": 94, "channel": 0}, {"type": "note_on", "time": 314, "note": 57, "velocity": 101, "channel": 0}, {"type": "note_off", "time": 33, "note": 57, "velocity": 101, "channel": 0}, {"type": "note_on", "time": 15, "note": 58, "velocity": 97, "channel": 0}, {"type": "note_off", "time": 36, "note": 58, "velocity": 97, "channel": 0}, {"type": "note_on", "time": 7, "note": 58, "velocity": 99, "channel": 0}, {"type": "note_off", "time": 44, "note": 58, "velocity": 99, "channel": 0}, {"type": "note_on", "time": 15, "note": 58, "velocity": 106, "channel": 0}, {"type": "note_off", "time": 47, "note": 58, "velocity": 106, "channel": 0}, {"type": "note_on", "time": 23, "note": 58, "velocity": 107, "channel": 0}, {"type": "note_off", "time": 36, "note": 58, "velocity": 107, "channel": 0}, {"type": "note_on", "time": 12, "note": 58, "velocity": 112, "channel": 0}, {"type": "note_off", "time": 50, "note": 58, "velocity": 112, "channel": 0}, {"type": "note_on", "time": 17, "note": 58, "velocity": 113, "channel": 0}, {"type": "note_off", "time": 627, "note": 58, "velocity": 113, "channel": 0}, {"type": "note_on", "time": 64, "note": 60, "velocity": 112, "channel": 0}, {"type": "note_off", "time": 49, "note": 60, "velocity": 112, "channel": 0}, {"type": "note_on", "time": 22, "note": 58, "velocity": 107, "channel": 0}, {"type": "note_off", "time": 59, "note": 58, "velocity": 107, "channel": 0}, {"type": "note_on", "time": 651, "note": 60, "velocity": 109, "channel": 0}, {"type": "note_off", "time": 59, "note": 60, "velocity": 109, "channel": 0}, {"type": "note_on", "time": 17, "note": 58, "velocity": 104, "channel": 0}, {"type": "note_off", "time": 45, "note": 58, "velocity": 104, "channel": 0}, {"type": "note_on", "time": 260, "note": 60, "velocity": 103, "channel": 0}, {"type": "note_off", "time": 38, "note": 60, "velocity": 103, "channel": 0}, {"type": "note_on", "time": 27, "note": 58, "velocity": 101, "channel": 0}, {"type": "note_off", "time": 36, "note": 58, "velocity": 101, "channel": 0}, {"type": "note_on", "time": 88, "note": 60, "velocity": 111, "channel": 0}, {"type": "note_off", "time": 34, "note": 60, "velocity": 111, "channel": 0}, {"type": "note_on", "time": 20, "note": 58, "velocity": 107, "channel": 0}, {"type": "note_off", "time": 66, "note": 58, "velocity": 107, "channel": 0}, {"type": "note_on", "time": 138, "note": 58, "velocity": 104, "channel": 0}, {"type": "note_off", "time": 448, "note": 58, "velocity": 104, "channel": 0}, {"type": "note_on", "time": 333, "note": 63, "velocity": 115, "channel": 0}, {"type": "note_off", "time": 616, "note": 63, "velocity": 115, "channel": 0}, {"type": "note_on", "time": 62, "note": 61, "velocity": 115, "channel": 0}, {"type": "note_off", "time": 45, "note": 61, "velocity": 115, "channel": 0}, {"type": "note_on", "time": 55, "note": 58, "velocity": 109, "channel": 0}, {"type": "note_off", "time": 76, "note": 58, "velocity": 109, "channel": 0}, {"type": "note_on", "time": 20, "note": 58, "velocity": 106, "channel": 0}, {"type": "note_off", "time": 425, "note": 58, "velocity": 106, "channel": 0}, {"type": "note_on", "time": 356, "note": 72, "velocity": 120, "channel": 0}, {"type": "note_off", "time": 95, "note": 72, "velocity": 120, "channel": 0}, {"type": "note_on", "time": 68, "note": 67, "velocity": 113, "channel": 0}, {"type": "note_off", "time": 71, "note": 67, "velocity": 113, "channel": 0}, {"type": "note_on", "time": 24, "note": 70, "velocity": 118, "channel": 0}, {"type": "note_off", "time": 140, "note": 70, "velocity": 118, "channel": 0}, {"type": "note_on", "time": 34, "note": 68, "velocity": 110, "channel": 0}, {"type": "note_off", "time": 154, "note": 68, "velocity": 110, "channel": 0}, {"type": "note_on", "time": 31, "note": 67, "velocity": 110, "channel": 0}, {"type": "note_off", "time": 154, "note": 67, "velocity": 110, "channel": 0}, {"type": "note_on", "time": 24, "note": 65, "velocity": 112, "channel": 0}, {"type": "note_off", "time": 151, "note": 65, "velocity": 112, "channel": 0}, {"type": "note_on", "time": 47, "note": 64, "velocity": 112, "channel": 0}, {"type": "note_off", "time": 161, "note": 64, "velocity": 112, "channel": 0}, {"type": "note_on", "time": 22, "note": 67, "velocity": 105, "channel": 0}, {"type": "note_off", "time": 147, "note": 67, "velocity": 105, "channel": 0}, {"type": "note_on", "time": 43, "note": 65, "velocity": 112, "channel": 0}, {"type": "note_off", "time": 149, "note": 65, "velocity": 112, "channel": 0}, {"type": "note_on", "time": 30, "note": 60, "velocity": 105, "channel": 0}, {"type": "note_off", "time": 86, "note": 60, "velocity": 105, "channel": 0}, {"type": "note_on", "time": 46, "note": 58, "velocity": 107, "channel": 0}, {"type": "note_off", "time": 95, "note": 58, "velocity": 107, "channel": 0}, {"type": "note_on", "time": 106, "note": 58, "velocity": 104, "channel": 0}, {"type": "note_off", "time": 158, "note": 58, "velocity": 104, "channel": 0}, {"type": "note_on", "time": 99, "note": 58, "velocity": 94, "channel": 0}, {"type": "note_off", "time": 119, "note": 58, "velocity": 94, "channel": 0}, {"type": "note_on", "time": 297, "note": 57, "velocity": 94, "channel": 0}, {"type": "note_off", "time": 23, "note": 57, "velocity": 94, "channel": 0}, {"type": "note_on", "time": 18, "note": 58, "velocity": 94, "channel": 0}, {"type": "note_off", "time": 39, "note": 58, "velocity": 94, "channel": 0}, {"type": "note_on", "time": 11, "note": 58, "velocity": 105, "channel": 0}, {"type": "note_off", "time": 34, "note": 58, "velocity": 105, "channel": 0}, {"type": "note_on", "time": 18, "note": 58, "velocity": 107, "channel": 0}, {"type": "note_off", "time": 39, "note": 58, "velocity": 107, "channel": 0}, {"type": "note_on", "time": 18, "note": 58, "velocity": 108, "channel": 0}, {"type": "note_off", "time": 47, "note": 58, "velocity": 108, "channel": 0}, {"type": "note_on", "time": 14, "note": 58, "velocity": 108, "channel": 0}, {"type": "note_off", "time": 47, "note": 58, "velocity": 108, "channel": 0}, {"type": "note_on", "time": 8, "note": 58, "velocity": 108, "channel": 0}, {"type": "note_off", "time": 169, "note": 58, "velocity": 108, "channel": 0}, {"type": "note_on", "time": 24, "note": 56, "velocity": 102, "channel": 0}, {"type": "note_off", "time": 74, "note": 56, "velocity": 102, "channel": 0}, {"type": "note_on", "time": 111, "note": 59, "velocity": 105, "channel": 0}, {"type": "note_off", "time": 52, "note": 59, "velocity": 105, "channel": 0}, {"type": "note_on", "time": 5, "note": 60, "velocity": 111, "channel": 0}, {"type": "note_off", "time": 240, "note": 60, "velocity": 111, "channel": 0}, {"type": "note_on", "time": 243, "note": 56, "velocity": 100, "channel": 0}, {"type": "note_off", "time": 29, "note": 56, "velocity": 100, "channel": 0}, {"type": "note_on", "time": 33, "note": 58, "velocity": 102, "channel": 0}, {"type": "note_off", "time": 42, "note": 58, "velocity": 102, "channel": 0}, {"type": "note_on", "time": 76, "note": 60, "velocity": 102, "channel": 0}, {"type": "note_off", "time": 36, "note": 60, "velocity": 102, "channel": 0}, {"type": "note_on", "time": 36, "note": 67, "velocity": 108, "channel": 0}, {"type": "note_off", "time": 77, "note": 67, "velocity": 108, "channel": 0}, {"type": "note_on", "time": 36, "note": 67, "velocity": 112, "channel": 0}, {"type": "note_off", "time": 39, "note": 67, "velocity": 112, "channel": 0}, {"type": "note_on", "time": 18, "note": 65, "velocity": 107, "channel": 0}, {"type": "note_off", "time": 57, "note": 65, "velocity": 107, "channel": 0}, {"type": "note_on", "time": 59, "note": 65, "velocity": 113, "channel": 0}, {"type": "note_off", "time": 63, "note": 65, "velocity": 113, "channel": 0}, {"type": "note_on", "time": 18, "note": 63, "velocity": 110, "channel": 0}, {"type": "note_off", "time": 155, "note": 63, "velocity": 110, "channel": 0}, {"type": "note_on", "time": 40, "note": 62, "velocity": 113, "channel": 0}, {"type": "note_off", "time": 105, "note": 62, "velocity": 113, "channel": 0}, {"type": "note_on", "time": 8, "note": 61, "velocity": 114, "channel": 0}, {"type": "note_off", "time": 878, "note": 61, "velocity": 114, "channel": 0}, {"type": "note_on", "time": 352, "note": 63, "velocity": 111, "channel": 0}, {"type": "note_off", "time": 83, "note": 63, "velocity": 111, "channel": 0}, {"type": "note_on", "time": 66, "note": 65, "velocity": 111, "channel": 0}, {"type": "note_off", "time": 62, "note": 65, "velocity": 111, "channel": 0}, {"type": "note_on", "time": 100, "note": 67, "velocity": 109, "channel": 0}, {"type": "note_off", "time": 46, "note": 67, "velocity": 109, "channel": 0}, {"type": "note_on", "time": 17, "note": 68, "velocity": 114, "channel": 0}, {"type": "note_off", "time": 85, "note": 68, "velocity": 114, "channel": 0}, {"type": "note_on", "time": 101, "note": 63, "velocity": 114, "channel": 0}, {"type": "note_off", "time": 100, "note": 63, "velocity": 114, "channel": 0}, {"type": "note_on", "time": 102, "note": 65, "velocity": 113, "channel": 0}, {"type": "note_off", "time": 91, "note": 65, "velocity": 113, "channel": 0}, {"type": "note_on", "time": 18, "note": 61, "velocity": 116, "channel": 0}, {"type": "note_off", "time": 47, "note": 61, "velocity": 116, "channel": 0}, {"type": "note_on", "time": 26, "note": 58, "velocity": 108, "channel": 0}, {"type": "note_off", "time": 66, "note": 58, "velocity": 108, "channel": 0}, {"type": "note_on", "time": 54, "note": 55, "velocity": 104, "channel": 0}, {"type": "note_off", "time": 55, "note": 55, "velocity": 104, "channel": 0}, {"type": "note_on", "time": 4, "note": 56, "velocity": 101, "channel": 0}, {"type": "note_off", "time": 72, "note": 56, "velocity": 101, "channel": 0}, {"type": "note_on", "time": 61, "note": 58, "velocity": 105, "channel": 0}, {"type": "note_off", "time": 34, "note": 58, "velocity": 105, "channel": 0}, {"type": "note_on", "time": 26, "note": 60, "velocity": 107, "channel": 0}, {"type": "note_off", "time": 107, "note": 60, "velocity": 107, "channel": 0}, {"type": "note_on", "time": 86, "note": 58, "velocity": 101, "channel": 0}, {"type": "note_off", "time": 48, "note": 58, "velocity": 101, "channel": 0}, {"type": "note_on", "time": 84, "note": 60, "velocity": 108, "channel": 0}, {"type": "note_off", "time": 45, "note": 60, "velocity": 108, "channel": 0}, {"type": "note_on", "time": 6, "note": 61, "velocity": 106, "channel": 0}, {"type": "note_off", "time": 62, "note": 61, "velocity": 106, "channel": 0}, {"type": "note_on", "time": 78, "note": 63, "velocity": 111, "channel": 0}, {"type": "note_off", "time": 39, "note": 63, "velocity": 111, "channel": 0}, {"type": "note_on", "time": 20, "note": 65, "velocity": 111, "channel": 0}, {"type": "note_off", "time": 162, "note": 65, "velocity": 111, "channel": 0}, {"type": "note_on", "time": 29, "note": 68, "velocity": 118, "channel": 0}, {"type": "note_off", "time": 163, "note": 68, "velocity": 118, "channel": 0}, {"type": "note_on", "time": 26, "note": 63, "velocity": 116, "channel": 0}, {"type": "note_off", "time": 168, "note": 63, "velocity": 116, "channel": 0}, {"type": "note_on", "time": 21, "note": 63, "velocity": 114, "channel": 0}, {"type": "note_off", "time": 128, "note": 63, "velocity": 114, "channel": 0}, {"type": "note_on", "time": 8, "note": 63, "velocity": 110, "channel": 0}, {"type": "note_off", "time": 269, "note": 63, "velocity": 110, "channel": 0}, {"type": "note_on", "time": 574, "note": 72, "velocity": 127, "channel": 0}, {"type": "note_off", "time": 84, "note": 72, "velocity": 127, "channel": 0}, {"type": "note_on", "time": 93, "note": 67, "velocity": 120, "channel": 0}, {"type": "note_off", "time": 90, "note": 67, "velocity": 120, "channel": 0}, {"type": "note_on", "time": 99, "note": 70, "velocity": 123, "channel": 0}, {"type": "note_off", "time": 83, "note": 70, "velocity": 123, "channel": 0}, {"type": "note_on", "time": 47, "note": 68, "velocity": 125, "channel": 0}, {"type": "note_off", "time": 59, "note": 68, "velocity": 125, "channel": 0}, {"type": "note_on", "time": 1, "note": 67, "velocity": 120, "channel": 0}, {"type": "note_off", "time": 90, "note": 67, "velocity": 120, "channel": 0}, {"type": "note_on", "time": 17, "note": 65, "velocity": 110, "channel": 0}, {"type": "note_off", "time": 74, "note": 65, "velocity": 110, "channel": 0}, {"type": "note_on", "time": 29, "note": 63, "velocity": 106, "channel": 0}, {"type": "note_off", "time": 97, "note": 63, "velocity": 106, "channel": 0}, {"type": "note_on", "time": 25, "note": 60, "velocity": 114, "channel": 0}, {"type": "note_off", "time": 185, "note": 60, "velocity": 114, "channel": 0}, {"type": "note_on", "time": 50, "note": 64, "velocity": 108, "channel": 0}, {"type": "note_off", "time": 112, "note": 64, "velocity": 108, "channel": 0}, {"type": "note_on", "time": 9, "note": 60, "velocity": 114, "channel": 0}, {"type": "note_off", "time": 66, "note": 60, "velocity": 114, "channel": 0}, {"type": "note_on", "time": 206, "note": 64, "velocity": 110, "channel": 0}, {"type": "note_off", "time": 55, "note": 64, "velocity": 110, "channel": 0}, {"type": "note_on", "time": 1, "note": 65, "velocity": 116, "channel": 0}, {"type": "note_off", "time": 468, "note": 65, "velocity": 116, "channel": 0}, {"type": "note_on", "time": 185, "note": 60, "velocity": 109, "channel": 0}, {"type": "note_off", "time": 40, "note": 60, "velocity": 109, "channel": 0}, {"type": "note_on", "time": 23, "note": 63, "velocity": 116, "channel": 0}, {"type": "note_off", "time": 55, "note": 63, "velocity": 116, "channel": 0}, {"type": "note_on", "time": 18, "note": 60, "velocity": 93, "channel": 0}, {"type": "note_off", "time": 39, "note": 60, "velocity": 93, "channel": 0}, {"type": "note_on", "time": 6, "note": 61, "velocity": 114, "channel": 0}, {"type": "note_off", "time": 49, "note": 61, "velocity": 114, "channel": 0}, {"type": "note_on", "time": 30, "note": 63, "velocity": 114, "channel": 0}, {"type": "note_off", "time": 44, "note": 63, "velocity": 114, "channel": 0}, {"type": "note_on", "time": 23, "note": 60, "velocity": 108, "channel": 0}, {"type": "note_off", "time": 43, "note": 60, "velocity": 108, "channel": 0}, {"type": "note_on", "time": 8, "note": 61, "velocity": 112, "channel": 0}, {"type": "note_off", "time": 38, "note": 61, "velocity": 112, "channel": 0}, {"type": "note_on", "time": 28, "note": 63, "velocity": 112, "channel": 0}, {"type": "note_off", "time": 43, "note": 63, "velocity": 112, "channel": 0}, {"type": "note_on", "time": 27, "note": 60, "velocity": 107, "channel": 0}, {"type": "note_off", "time": 38, "note": 60, "velocity": 107, "channel": 0}, {"type": "note_on", "time": 6, "note": 61, "velocity": 111, "channel": 0}, {"type": "note_off", "time": 45, "note": 61, "velocity": 111, "channel": 0}, {"type": "note_on", "time": 22, "note": 63, "velocity": 113, "channel": 0}, {"type": "note_off", "time": 100, "note": 63, "velocity": 113, "channel": 0}, {"type": "note_on", "time": 113, "note": 67, "velocity": 118, "channel": 0}, {"type": "note_off", "time": 58, "note": 67, "velocity": 118, "channel": 0}, {"type": "note_on", "time": 1, "note": 64, "velocity": 105, "channel": 0}, {"type": "note_off", "time": 30, "note": 64, "velocity": 105, "channel": 0}, {"type": "note_on", "time": 9, "note": 65, "velocity": 112, "channel": 0}, {"type": "note_off", "time": 55, "note": 65, "velocity": 112, "channel": 0}, {"type": "note_on", "time": 11, "note": 67, "velocity": 116, "channel": 0}, {"type": "note_off", "time": 259, "note": 67, "velocity": 116, "channel": 0}, {"type": "note_on", "time": 13, "note": 64, "velocity": 99, "channel": 0}, {"type": "note_off", "time": 29, "note": 64, "velocity": 99, "channel": 0}, {"type": "note_on", "time": 11, "note": 65, "velocity": 113, "channel": 0}, {"type": "note_off", "time": 45, "note": 65, "velocity": 113, "channel": 0}, {"type": "note_on", "time": 26, "note": 67, "velocity": 115, "channel": 0}, {"type": "note_off", "time": 55, "note": 67, "velocity": 115, "channel": 0}, {"type": "note_on", "time": 12, "note": 64, "velocity": 106, "channel": 0}, {"type": "note_off", "time": 34, "note": 64, "velocity": 106, "channel": 0}, {"type": "note_on", "time": 9, "note": 65, "velocity": 113, "channel": 0}, {"type": "note_off", "time": 44, "note": 65, "velocity": 113, "channel": 0}, {"type": "note_on", "time": 9, "note": 67, "velocity": 120, "channel": 0}, {"type": "note_off", "time": 43, "note": 67, "velocity": 120, "channel": 0}, {"type": "note_on", "time": 395, "note": 67, "velocity": 118, "channel": 0}, {"type": "note_off", "time": 40, "note": 67, "velocity": 118, "channel": 0}, {"type": "note_on", "time": 12, "note": 64, "velocity": 110, "channel": 0}, {"type": "note_off", "time": 27, "note": 64, "velocity": 110, "channel": 0}, {"type": "note_on", "time": 16, "note": 65, "velocity": 104, "channel": 0}, {"type": "note_off", "time": 42, "note": 65, "velocity": 104, "channel": 0}, {"type": "note_on", "time": 29, "note": 67, "velocity": 117, "channel": 0}, {"type": "note_off", "time": 53, "note": 67, "velocity": 117, "channel": 0}, {"type": "note_on", "time": 16, "note": 64, "velocity": 96, "channel": 0}, {"type": "note_off", "time": 29, "note": 64, "velocity": 96, "channel": 0}, {"type": "note_on", "time": 9, "note": 65, "velocity": 110, "channel": 0}, {"type": "note_off", "time": 40, "note": 65, "velocity": 110, "channel": 0}, {"type": "note_on", "time": 30, "note": 70, "velocity": 117, "channel": 0}, {"type": "note_off", "time": 96, "note": 70, "velocity": 117, "channel": 0}, {"type": "note_on", "time": 74, "note": 70, "velocity": 119, "channel": 0}, {"type": "note_off", "time": 307, "note": 70, "velocity": 119, "channel": 0}, {"type": "note_on", "time": 32, "note": 68, "velocity": 117, "channel": 0}, {"type": "note_off", "time": 50, "note": 68, "velocity": 117, "channel": 0}, {"type": "note_on", "time": 22, "note": 67, "velocity": 115, "channel": 0}, {"type": "note_off", "time": 51, "note": 67, "velocity": 115, "channel": 0}, {"type": "note_on", "time": 16, "note": 64, "velocity": 101, "channel": 0}, {"type": "note_off", "time": 38, "note": 64, "velocity": 101, "channel": 0}, {"type": "note_on", "time": 2, "note": 65, "velocity": 107, "channel": 0}, {"type": "note_off", "time": 58, "note": 65, "velocity": 107, "channel": 0}, {"type": "note_on", "time": 5, "note": 67, "velocity": 113, "channel": 0}, {"type": "note_off", "time": 84, "note": 67, "velocity": 113, "channel": 0}, {"type": "note_on", "time": 11, "note": 65, "velocity": 110, "channel": 0}, {"type": "note_off", "time": 101, "note": 65, "velocity": 110, "channel": 0}, {"type": "note_on", "time": 6, "note": 67, "velocity": 112, "channel": 0}, {"type": "note_off", "time": 40, "note": 67, "velocity": 112, "channel": 0}, {"type": "note_on", "time": 9, "note": 65, "velocity": 109, "channel": 0}, {"type": "note_off", "time": 117, "note": 65, "velocity": 109, "channel": 0}, {"type": "note_on", "time": 16, "note": 67, "velocity": 112, "channel": 0}, {"type": "note_off", "time": 32, "note": 67, "velocity": 112, "channel": 0}, {"type": "note_on", "time": 16, "note": 65, "velocity": 100, "channel": 0}, {"type": "note_off", "time": 76, "note": 65, "velocity": 100, "channel": 0}, {"type": "note_on", "time": 84, "note": 67, "velocity": 110, "channel": 0}, {"type": "note_off", "time": 37, "note": 67, "velocity": 110, "channel": 0}, {"type": "note_on", "time": 16, "note": 65, "velocity": 82, "channel": 0}, {"type": "note_off", "time": 82, "note": 65, "velocity": 82, "channel": 0}, {"type": "note_on", "time": 50, "note": 58, "velocity": 86, "channel": 0}, {"type": "note_off", "time": 182, "note": 58, "velocity": 86, "channel": 0}, {"type": "note_on", "time": 308, "note": 65, "velocity": 109, "channel": 0}, {"type": "note_off", "time": 50, "note": 65, "velocity": 109, "channel": 0}, {"type": "note_on", "time": 7, "note": 67, "velocity": 9, "channel": 0}, {"type": "note_off", "time": 54, "note": 67, "velocity": 9, "channel": 0}, {"type": "note_on", "time": 84, "note": 68, "velocity": 119, "channel": 0}, {"type": "note_off", "time": 51, "note": 68, "velocity": 119, "channel": 0}, {"type": "note_on", "time": 7, "note": 67, "velocity": 113, "channel": 0}, {"type": "note_off", "time": 48, "note": 67, "velocity": 113, "channel": 0}, {"type": "note_on", "time": 284, "note": 65, "velocity": 108, "channel": 0}, {"type": "note_off", "time": 49, "note": 65, "velocity": 108, "channel": 0}, {"type": "note_on", "time": 9, "note": 64, "velocity": 107, "channel": 0}, {"type": "note_off", "time": 44, "note": 64, "velocity": 107, "channel": 0}, {"type": "note_on", "time": 266, "note": 67, "velocity": 111, "channel": 0}, {"type": "note_off", "time": 61, "note": 67, "velocity": 111, "channel": 0}, {"type": "note_on", "time": 11, "note": 65, "velocity": 113, "channel": 0}, {"type": "note_off", "time": 55, "note": 65, "velocity": 113, "channel": 0}, {"type": "note_on", "time": 276, "note": 68, "velocity": 121, "channel": 0}, {"type": "note_off", "time": 55, "note": 68, "velocity": 121, "channel": 0}, {"type": "note_on", "time": 23, "note": 66, "velocity": 109, "channel": 0}, {"type": "note_off", "time": 34, "note": 66, "velocity": 109, "channel": 0}, {"type": "note_on", "time": 260, "note": 70, "velocity": 117, "channel": 0}, {"type": "note_off", "time": 64, "note": 70, "velocity": 117, "channel": 0}, {"type": "note_on", "time": 21, "note": 68, "velocity": 116, "channel": 0}, {"type": "note_off", "time": 71, "note": 68, "velocity": 116, "channel": 0}, {"type": "note_on", "time": 243, "note": 73, "velocity": 120, "channel": 0}, {"type": "note_off", "time": 54, "note": 73, "velocity": 120, "channel": 0}, {"type": "note_on", "time": 17, "note": 72, "velocity": 110, "channel": 0}, {"type": "note_off", "time": 71, "note": 72, "velocity": 110, "channel": 0}, {"type": "note_on", "time": 44, "note": 70, "velocity": 122, "channel": 0}, {"type": "note_off", "time": 45, "note": 70, "velocity": 122, "channel": 0}, {"type": "note_on", "time": 4, "note": 68, "velocity": 111, "channel": 0}, {"type": "note_off", "time": 59, "note": 68, "velocity": 111, "channel": 0}, {"type": "note_on", "time": 294, "note": 64, "velocity": 113, "channel": 0}, {"type": "note_off", "time": 22, "note": 64, "velocity": 113, "channel": 0}, {"type": "note_on", "time": 7, "note": 65, "velocity": 110, "channel": 0}, {"type": "note_off", "time": 184, "note": 65, "velocity": 110, "channel": 0}, {"type": "note_on", "time": 24, "note": 63, "velocity": 106, "channel": 0}, {"type": "note_off", "time": 142, "note": 63, "velocity": 106, "channel": 0}, {"type": "note_on", "time": 33, "note": 60, "velocity": 102, "channel": 0}, {"type": "note_off", "time": 160, "note": 60, "velocity": 102, "channel": 0}, {"type": "note_on", "time": 50, "note": 56, "velocity": 94, "channel": 0}, {"type": "note_off", "time": 260, "note": 56, "velocity": 94, "channel": 0}, {"type": "note_on", "time": 436, "note": 65, "velocity": 116, "channel": 0}, {"type": "note_off", "time": 44, "note": 65, "velocity": 116, "channel": 0}, {"type": "note_on", "time": 30, "note": 63, "velocity": 105, "channel": 0}, {"type": "note_off", "time": 42, "note": 63, "velocity": 105, "channel": 0}, {"type": "note_on", "time": 95, "note": 60, "velocity": 92, "channel": 0}, {"type": "note_off", "time": 33, "note": 60, "velocity": 92, "channel": 0}, {"type": "note_on", "time": 24, "note": 56, "velocity": 101, "channel": 0}, {"type": "note_off", "time": 98, "note": 56, "velocity": 101, "channel": 0}, {"type": "note_on", "time": 96, "note": 56, "velocity": 103, "channel": 0}, {"type": "note_off", "time": 147, "note": 56, "velocity": 103, "channel": 0}, {"type": "note_on", "time": 53, "note": 56, "velocity": 109, "channel": 0}, {"type": "note_off", "time": 100, "note": 56, "velocity": 109, "channel": 0}, {"type": "note_on", "time": 31, "note": 56, "velocity": 98, "channel": 0}, {"type": "note_off", "time": 291, "note": 56, "velocity": 98, "channel": 0}, {"type": "note_on", "time": 467, "note": 60, "velocity": 105, "channel": 0}, {"type": "note_off", "time": 48, "note": 60, "velocity": 105, "channel": 0}, {"type": "note_on", "time": 15, "note": 65, "velocity": 105, "channel": 0}, {"type": "note_off", "time": 65, "note": 65, "velocity": 105, "channel": 0}, {"type": "note_on", "time": 4, "note": 67, "velocity": 106, "channel": 0}, {"type": "note_off", "time": 33, "note": 67, "velocity": 106, "channel": 0}, {"type": "note_on", "time": 10, "note": 68, "velocity": 116, "channel": 0}, {"type": "note_off", "time": 46, "note": 68, "velocity": 116, "channel": 0}, {"type": "note_on", "time": 32, "note": 68, "velocity": 117, "channel": 0}, {"type": "note_off", "time": 42, "note": 68, "velocity": 117, "channel": 0}, {"type": "note_on", "time": 13, "note": 67, "velocity": 107, "channel": 0}, {"type": "note_off", "time": 53, "note": 67, "velocity": 107, "channel": 0}, {"type": "note_on", "time": 8, "note": 65, "velocity": 108, "channel": 0}, {"type": "note_off", "time": 55, "note": 65, "velocity": 108, "channel": 0}, {"type": "note_on", "time": 20, "note": 65, "velocity": 108, "channel": 0}, {"type": "note_off", "time": 56, "note": 65, "velocity": 108, "channel": 0}, {"type": "note_on", "time": 0, "note": 67, "velocity": 103, "channel": 0}, {"type": "note_off", "time": 48, "note": 67, "velocity": 103, "channel": 0}, {"type": "note_on", "time": 9, "note": 68, "velocity": 120, "channel": 0}, {"type": "note_off", "time": 55, "note": 68, "velocity": 120, "channel": 0}, {"type": "note_on", "time": 25, "note": 68, "velocity": 119, "channel": 0}, {"type": "note_off", "time": 54, "note": 68, "velocity": 119, "channel": 0}, {"type": "note_on", "time": 2, "note": 67, "velocity": 112, "channel": 0}, {"type": "note_off", "time": 46, "note": 67, "velocity": 112, "channel": 0}, {"type": "note_on", "time": 8, "note": 65, "velocity": 110, "channel": 0}, {"type": "note_off", "time": 56, "note": 65, "velocity": 110, "channel": 0}, {"type": "note_on", "time": 9, "note": 64, "velocity": 112, "channel": 0}, {"type": "note_off", "time": 253, "note": 64, "velocity": 112, "channel": 0}, {"type": "note_on", "time": 22, "note": 64, "velocity": 102, "channel": 0}, {"type": "note_off", "time": 46, "note": 64, "velocity": 102, "channel": 0}, {"type": "note_on", "time": 15, "note": 65, "velocity": 104, "channel": 0}, {"type": "note_off", "time": 33, "note": 65, "velocity": 104, "channel": 0}, {"type": "note_on", "time": 21, "note": 67, "velocity": 112, "channel": 0}, {"type": "note_off", "time": 79, "note": 67, "velocity": 112, "channel": 0}, {"type": "note_on", "time": 119, "note": 67, "velocity": 117, "channel": 0}, {"type": "note_off", "time": 40, "note": 67, "velocity": 117, "channel": 0}, {"type": "note_on", "time": 18, "note": 65, "velocity": 108, "channel": 0}, {"type": "note_off", "time": 46, "note": 65, "velocity": 108, "channel": 0}, {"type": "note_on", "time": 11, "note": 64, "velocity": 108, "channel": 0}, {"type": "note_off", "time": 51, "note": 64, "velocity": 108, "channel": 0}, {"type": "note_on", "time": 14, "note": 63, "velocity": 105, "channel": 0}, {"type": "note_off", "time": 227, "note": 63, "velocity": 105, "channel": 0}, {"type": "note_on", "time": 27, "note": 65, "velocity": 107, "channel": 0}, {"type": "note_off", "time": 50, "note": 65, "velocity": 107, "channel": 0}, {"type": "note_on", "time": 8, "note": 67, "velocity": 113, "channel": 0}, {"type": "note_off", "time": 44, "note": 67, "velocity": 113, "channel": 0}, {"type": "note_on", "time": 9, "note": 67, "velocity": 114, "channel": 0}, {"type": "note_off", "time": 50, "note": 67, "velocity": 114, "channel": 0}, {"type": "note_on", "time": 14, "note": 65, "velocity": 107, "channel": 0}, {"type": "note_off", "time": 52, "note": 65, "velocity": 107, "channel": 0}, {"type": "note_on", "time": 17, "note": 63, "velocity": 107, "channel": 0}, {"type": "note_off", "time": 59, "note": 63, "velocity": 107, "channel": 0}, {"type": "note_on", "time": 22, "note": 63, "velocity": 107, "channel": 0}, {"type": "note_off", "time": 116, "note": 63, "velocity": 107, "channel": 0}, {"type": "note_on", "time": 75, "note": 62, "velocity": 108, "channel": 0}, {"type": "note_off", "time": 219, "note": 62, "velocity": 108, "channel": 0}, {"type": "note_on", "time": 29, "note": 63, "velocity": 100, "channel": 0}, {"type": "note_off", "time": 42, "note": 63, "velocity": 100, "channel": 0}, {"type": "note_on", "time": 16, "note": 65, "velocity": 111, "channel": 0}, {"type": "note_off", "time": 48, "note": 65, "velocity": 111, "channel": 0}, {"type": "note_on", "time": 19, "note": 65, "velocity": 113, "channel": 0}, {"type": "note_off", "time": 53, "note": 65, "velocity": 113, "channel": 0}, {"type": "note_on", "time": 339, "note": 58, "velocity": 99, "channel": 0}, {"type": "note_off", "time": 29, "note": 58, "velocity": 99, "channel": 0}, {"type": "note_on", "time": 19, "note": 60, "velocity": 104, "channel": 0}, {"type": "note_off", "time": 35, "note": 60, "velocity": 104, "channel": 0}, {"type": "note_on", "time": 13, "note": 61, "velocity": 112, "channel": 0}, {"type": "note_off", "time": 48, "note": 61, "velocity": 112, "channel": 0}, {"type": "note_on", "time": 14, "note": 61, "velocity": 110, "channel": 0}, {"type": "note_off", "time": 108, "note": 61, "velocity": 110, "channel": 0}, {"type": "note_on", "time": 37, "note": 61, "velocity": 104, "channel": 0}, {"type": "note_off", "time": 426, "note": 61, "velocity": 104, "channel": 0}, {"type": "note_on", "time": 422, "note": 58, "velocity": 105, "channel": 0}, {"type": "note_off", "time": 45, "note": 58, "velocity": 105, "channel": 0}, {"type": "note_on", "time": 22, "note": 60, "velocity": 102, "channel": 0}, {"type": "note_off", "time": 40, "note": 60, "velocity": 102, "channel": 0}, {"type": "note_on", "time": 4, "note": 61, "velocity": 103, "channel": 0}, {"type": "note_off", "time": 59, "note": 61, "velocity": 103, "channel": 0}, {"type": "note_on", "time": 12, "note": 60, "velocity": 96, "channel": 0}, {"type": "note_off", "time": 59, "note": 60, "velocity": 96, "channel": 0}, {"type": "note_on", "time": 22, "note": 61, "velocity": 97, "channel": 0}, {"type": "note_off", "time": 27, "note": 61, "velocity": 97, "channel": 0}, {"type": "note_on", "time": 17, "note": 63, "velocity": 104, "channel": 0}, {"type": "note_off", "time": 46, "note": 63, "velocity": 104, "channel": 0}, {"type": "note_on", "time": 26, "note": 61, "velocity": 103, "channel": 0}, {"type": "note_off", "time": 38, "note": 61, "velocity": 103, "channel": 0}, {"type": "note_on", "time": 17, "note": 63, "velocity": 94, "channel": 0}, {"type": "note_off", "time": 45, "note": 63, "velocity": 94, "channel": 0}, {"type": "note_on", "time": 12, "note": 65, "velocity": 109, "channel": 0}, {"type": "note_off", "time": 46, "note": 65, "velocity": 109, "channel": 0}, {"type": "note_on", "time": 19, "note": 63, "velocity": 99, "channel": 0}, {"type": "note_off", "time": 38, "note": 63, "velocity": 99, "channel": 0}, {"type": "note_on", "time": 18, "note": 61, "velocity": 104, "channel": 0}, {"type": "note_off", "time": 42, "note": 61, "velocity": 104, "channel": 0}, {"type": "note_on", "time": 14, "note": 60, "velocity": 104, "channel": 0}, {"type": "note_off", "time": 35, "note": 60, "velocity": 104, "channel": 0}, {"type": "note_on", "time": 37, "note": 58, "velocity": 102, "channel": 0}, {"type": "note_off", "time": 42, "note": 58, "velocity": 102, "channel": 0}, {"type": "note_on", "time": 12, "note": 56, "velocity": 93, "channel": 0}, {"type": "note_off", "time": 35, "note": 56, "velocity": 93, "channel": 0}, {"type": "note_on", "time": 26, "note": 55, "velocity": 90, "channel": 0}, {"type": "note_off", "time": 45, "note": 55, "velocity": 90, "channel": 0}, {"type": "note_on", "time": 28, "note": 53, "velocity": 101, "channel": 0}, {"type": "note_off", "time": 22, "note": 53, "velocity": 101, "channel": 0}, {"type": "note_on", "time": 5, "note": 51, "velocity": 93, "channel": 0}, {"type": "note_off", "time": 67, "note": 51, "velocity": 93, "channel": 0}, {"type": "note_on", "time": 411, "note": 62, "velocity": 110, "channel": 0}, {"type": "note_off", "time": 34, "note": 62, "velocity": 110, "channel": 0}, {"type": "note_on", "time": 25, "note": 63, "velocity": 106, "channel": 0}, {"type": "note_off", "time": 641, "note": 63, "velocity": 106, "channel": 0}, {"type": "note_on", "time": 87, "note": 56, "velocity": 95, "channel": 0}, {"type": "note_off", "time": 43, "note": 56, "velocity": 95, "channel": 0}, {"type": "note_on", "time": 21, "note": 58, "velocity": 110, "channel": 0}, {"type": "note_off", "time": 55, "note": 58, "velocity": 110, "channel": 0}, {"type": "note_on", "time": 242, "note": 60, "velocity": 112, "channel": 0}, {"type": "note_off", "time": 43, "note": 60, "velocity": 112, "channel": 0}, {"type": "note_on", "time": 25, "note": 58, "velocity": 108, "channel": 0}, {"type": "note_off", "time": 77, "note": 58, "velocity": 108, "channel": 0}, {"type": "note_on", "time": 230, "note": 60, "velocity": 110, "channel": 0}, {"type": "note_off", "time": 46, "note": 60, "velocity": 110, "channel": 0}, {"type": "note_on", "time": 21, "note": 58, "velocity": 101, "channel": 0}, {"type": "note_off", "time": 71, "note": 58, "velocity": 101, "channel": 0}, {"type": "note_on", "time": 255, "note": 72, "velocity": 119, "channel": 0}, {"type": "note_off", "time": 61, "note": 72, "velocity": 119, "channel": 0}, {"type": "note_on", "time": 21, "note": 71, "velocity": 119, "channel": 0}, {"type": "note_off", "time": 48, "note": 71, "velocity": 119, "channel": 0}, {"type": "note_on", "time": 229, "note": 58, "velocity": 109, "channel": 0}, {"type": "note_off", "time": 60, "note": 58, "velocity": 109, "channel": 0}, {"type": "note_on", "time": 21, "note": 56, "velocity": 105, "channel": 0}, {"type": "note_off", "time": 34, "note": 56, "velocity": 105, "channel": 0}, {"type": "note_on", "time": 263, "note": 60, "velocity": 116, "channel": 0}, {"type": "note_off", "time": 49, "note": 60, "velocity": 116, "channel": 0}, {"type": "note_on", "time": 25, "note": 58, "velocity": 109, "channel": 0}, {"type": "note_off", "time": 58, "note": 58, "velocity": 109, "channel": 0}, {"type": "note_on", "time": 255, "note": 72, "velocity": 122, "channel": 0}, {"type": "note_off", "time": 60, "note": 72, "velocity": 122, "channel": 0}, {"type": "note_on", "time": 11, "note": 70, "velocity": 122, "channel": 0}, {"type": "note_off", "time": 66, "note": 70, "velocity": 122, "channel": 0}, {"type": "note_on", "time": 260, "note": 60, "velocity": 117, "channel": 0}, {"type": "note_off", "time": 45, "note": 60, "velocity": 117, "channel": 0}, {"type": "note_on", "time": 21, "note": 58, "velocity": 107, "channel": 0}, {"type": "note_off", "time": 145, "note": 58, "velocity": 107, "channel": 0}, {"type": "note_on", "time": 38, "note": 56, "velocity": 104, "channel": 0}, {"type": "note_off", "time": 88, "note": 56, "velocity": 104, "channel": 0}, {"type": "note_on", "time": 100, "note": 58, "velocity": 106, "channel": 0}, {"type": "note_off", "time": 67, "note": 58, "velocity": 106, "channel": 0}, {"type": "note_on", "time": 3, "note": 56, "velocity": 94, "channel": 0}, {"type": "note_off", "time": 27, "note": 56, "velocity": 94, "channel": 0}, {"type": "note_on", "time": 211, "note": 60, "velocity": 99, "channel": 0}, {"type": "note_off", "time": 46, "note": 60, "velocity": 99, "channel": 0}, {"type": "note_on", "time": 43, "note": 69, "velocity": 102, "channel": 0}, {"type": "note_off", "time": 61, "note": 69, "velocity": 102, "channel": 0}, {"type": "note_on", "time": 41, "note": 67, "velocity": 114, "channel": 0}, {"type": "note_off", "time": 58, "note": 67, "velocity": 114, "channel": 0}, {"type": "note_on", "time": 9, "note": 65, "velocity": 105, "channel": 0}, {"type": "note_off", "time": 85, "note": 65, "velocity": 105, "channel": 0}, {"type": "note_on", "time": 46, "note": 65, "velocity": 103, "channel": 0}, {"type": "note_off", "time": 59, "note": 65, "velocity": 103, "channel": 0}, {"type": "note_on", "time": 10, "note": 63, "velocity": 104, "channel": 0}, {"type": "note_off", "time": 156, "note": 63, "velocity": 104, "channel": 0}, {"type": "note_on", "time": 34, "note": 62, "velocity": 110, "channel": 0}, {"type": "note_off", "time": 114, "note": 62, "velocity": 110, "channel": 0}, {"type": "note_on", "time": 9, "note": 61, "velocity": 108, "channel": 0}, {"type": "note_off", "time": 308, "note": 61, "velocity": 108, "channel": 0}, {"type": "note_on", "time": 65, "note": 52, "velocity": 95, "channel": 0}, {"type": "note_off", "time": 35, "note": 52, "velocity": 95, "channel": 0}, {"type": "note_on", "time": 45, "note": 60, "velocity": 104, "channel": 0}, {"type": "note_off", "time": 94, "note": 60, "velocity": 104, "channel": 0}, {"type": "note_on", "time": 16, "note": 58, "velocity": 98, "channel": 0}, {"type": "note_off", "time": 384, "note": 58, "velocity": 98, "channel": 0}, {"type": "note_on", "time": 478, "note": 63, "velocity": 100, "channel": 0}, {"type": "note_off", "time": 38, "note": 63, "velocity": 100, "channel": 0}, {"type": "note_on", "time": 9, "note": 65, "velocity": 98, "channel": 0}, {"type": "note_off", "time": 46, "note": 65, "velocity": 98, "channel": 0}, {"type": "note_on", "time": 8, "note": 67, "velocity": 114, "channel": 0}, {"type": "note_off", "time": 44, "note": 67, "velocity": 114, "channel": 0}, {"type": "note_on", "time": 28, "note": 68, "velocity": 119, "channel": 0}, {"type": "note_off", "time": 109, "note": 68, "velocity": 119, "channel": 0}, {"type": "note_on", "time": 75, "note": 63, "velocity": 104, "channel": 0}, {"type": "note_off", "time": 132, "note": 63, "velocity": 104, "channel": 0}, {"type": "note_on", "time": 71, "note": 63, "velocity": 103, "channel": 0}, {"type": "note_off", "time": 70, "note": 63, "velocity": 103, "channel": 0}, {"type": "note_on", "time": 52, "note": 65, "velocity": 108, "channel": 0}, {"type": "note_off", "time": 53, "note": 65, "velocity": 108, "channel": 0}, {"type": "note_on", "time": 17, "note": 63, "velocity": 103, "channel": 0}, {"type": "note_off", "time": 54, "note": 63, "velocity": 103, "channel": 0}, {"type": "note_on", "time": 64, "note": 61, "velocity": 105, "channel": 0}, {"type": "note_off", "time": 45, "note": 61, "velocity": 105, "channel": 0}, {"type": "note_on", "time": 55, "note": 59, "velocity": 101, "channel": 0}, {"type": "note_off", "time": 42, "note": 59, "velocity": 101, "channel": 0}, {"type": "note_on", "time": 7, "note": 60, "velocity": 106, "channel": 0}, {"type": "note_off", "time": 107, "note": 60, "velocity": 106, "channel": 0}, {"type": "note_on", "time": 8, "note": 56, "velocity": 100, "channel": 0}, {"type": "note_off", "time": 117, "note": 56, "velocity": 100, "channel": 0}, {"type": "note_on", "time": 11, "note": 58, "velocity": 103, "channel": 0}, {"type": "note_off", "time": 368, "note": 58, "velocity": 103, "channel": 0}, {"type": "note_on", "time": 291, "note": 51, "velocity": 95, "channel": 0}, {"type": "note_off", "time": 35, "note": 51, "velocity": 95, "channel": 0}, {"type": "note_on", "time": 7, "note": 53, "velocity": 88, "channel": 0}, {"type": "note_off", "time": 53, "note": 53, "velocity": 88, "channel": 0}, {"type": "note_on", "time": 14, "note": 55, "velocity": 91, "channel": 0}, {"type": "note_off", "time": 53, "note": 55, "velocity": 91, "channel": 0}, {"type": "note_on", "time": 8, "note": 56, "velocity": 90, "channel": 0}, {"type": "note_off", "time": 49, "note": 56, "velocity": 90, "channel": 0}, {"type": "note_on", "time": 6, "note": 58, "velocity": 96, "channel": 0}, {"type": "note_off", "time": 47, "note": 58, "velocity": 96, "channel": 0}, {"type": "note_on", "time": 16, "note": 60, "velocity": 103, "channel": 0}, {"type": "note_off", "time": 40, "note": 60, "velocity": 103, "channel": 0}, {"type": "note_on", "time": 25, "note": 61, "velocity": 106, "channel": 0}, {"type": "note_off", "time": 54, "note": 61, "velocity": 106, "channel": 0}, {"type": "note_on", "time": 12, "note": 60, "velocity": 101, "channel": 0}, {"type": "note_off", "time": 29, "note": 60, "velocity": 101, "channel": 0}, {"type": "note_on", "time": 11, "note": 58, "velocity": 95, "channel": 0}, {"type": "note_off", "time": 53, "note": 58, "velocity": 95, "channel": 0}, {"type": "note_on", "time": 28, "note": 63, "velocity": 107, "channel": 0}, {"type": "note_off", "time": 214, "note": 63, "velocity": 107, "channel": 0}, {"type": "note_on", "time": 42, "note": 61, "velocity": 101, "channel": 0}, {"type": "note_off", "time": 45, "note": 61, "velocity": 101, "channel": 0}, {"type": "note_on", "time": 6, "note": 60, "velocity": 94, "channel": 0}, {"type": "note_off", "time": 46, "note": 60, "velocity": 94, "channel": 0}, {"type": "note_on", "time": 21, "note": 65, "velocity": 105, "channel": 0}, {"type": "note_off", "time": 231, "note": 65, "velocity": 105, "channel": 0}, {"type": "note_on", "time": 38, "note": 63, "velocity": 99, "channel": 0}, {"type": "note_off", "time": 33, "note": 63, "velocity": 99, "channel": 0}, {"type": "note_on", "time": 15, "note": 61, "velocity": 100, "channel": 0}, {"type": "note_off", "time": 47, "note": 61, "velocity": 100, "channel": 0}, {"type": "note_on", "time": 16, "note": 67, "velocity": 117, "channel": 0}, {"type": "note_off", "time": 30, "note": 67, "velocity": 117, "channel": 0}, {"type": "note_on", "time": 16, "note": 65, "velocity": 107, "channel": 0}, {"type": "note_off", "time": 46, "note": 65, "velocity": 107, "channel": 0}, {"type": "note_on", "time": 13, "note": 63, "velocity": 97, "channel": 0}, {"type": "note_off", "time": 43, "note": 63, "velocity": 97, "channel": 0}, {"type": "note_on", "time": 32, "note": 68, "velocity": 116, "channel": 0}, {"type": "note_off", "time": 63, "note": 68, "velocity": 116, "channel": 0}, {"type": "note_on", "time": 273, "note": 67, "velocity": 116, "channel": 0}, {"type": "note_off", "time": 120, "note": 67, "velocity": 116, "channel": 0}, {"type": "note_on", "time": 61, "note": 65, "velocity": 104, "channel": 0}, {"type": "note_off", "time": 58, "note": 65, "velocity": 104, "channel": 0}, {"type": "note_on", "time": 9, "note": 64, "velocity": 105, "channel": 0}, {"type": "note_off", "time": 63, "note": 64, "velocity": 105, "channel": 0}, {"type": "note_on", "time": 127, "note": 67, "velocity": 115, "channel": 0}, {"type": "note_off", "time": 160, "note": 67, "velocity": 115, "channel": 0}, {"type": "note_on", "time": 28, "note": 65, "velocity": 117, "channel": 0}, {"type": "note_off", "time": 124, "note": 65, "velocity": 117, "channel": 0}, {"type": "note_on", "time": 76, "note": 60, "velocity": 107, "channel": 0}, {"type": "note_off", "time": 67, "note": 60, "velocity": 107, "channel": 0}, {"type": "note_on", "time": 103, "note": 65, "velocity": 110, "channel": 0}, {"type": "note_off", "time": 110, "note": 65, "velocity": 110, "channel": 0}, {"type": "note_on", "time": 229, "note": 60, "velocity": 105, "channel": 0}, {"type": "note_off", "time": 43, "note": 60, "velocity": 105, "channel": 0}, {"type": "note_on", "time": 18, "note": 65, "velocity": 107, "channel": 0}, {"type": "note_off", "time": 76, "note": 65, "velocity": 107, "channel": 0}, {"type": "note_on", "time": 58, "note": 60, "velocity": 110, "channel": 0}, {"type": "note_off", "time": 37, "note": 60, "velocity": 110, "channel": 0}, {"type": "note_on", "time": 22, "note": 56, "velocity": 99, "channel": 0}, {"type": "note_off", "time": 102, "note": 56, "velocity": 99, "channel": 0}, {"type": "note_on", "time": 98, "note": 63, "velocity": 103, "channel": 0}, {"type": "note_off", "time": 93, "note": 63, "velocity": 103, "channel": 0}, {"type": "note_on", "time": 25, "note": 61, "velocity": 102, "channel": 0}, {"type": "note_off", "time": 271, "note": 61, "velocity": 102, "channel": 0}, {"type": "note_on", "time": 172, "note": 68, "velocity": 119, "channel": 0}, {"type": "note_off", "time": 65, "note": 68, "velocity": 119, "channel": 0}, {"type": "note_on", "time": 67, "note": 60, "velocity": 103, "channel": 0}, {"type": "note_off", "time": 34, "note": 60, "velocity": 103, "channel": 0}, {"type": "note_on", "time": 57, "note": 66, "velocity": 110, "channel": 0}, {"type": "note_off", "time": 38, "note": 66, "velocity": 110, "channel": 0}, {"type": "note_on", "time": 7, "note": 67, "velocity": 112, "channel": 0}, {"type": "note_off", "time": 40, "note": 67, "velocity": 112, "channel": 0}, {"type": "note_on", "time": 4, "note": 67, "velocity": 121, "channel": 0}, {"type": "note_off", "time": 58, "note": 67, "velocity": 121, "channel": 0}, {"type": "note_on", "time": 18, "note": 67, "velocity": 119, "channel": 0}, {"type": "note_off", "time": 161, "note": 67, "velocity": 119, "channel": 0}, {"type": "note_on", "time": 18, "note": 67, "velocity": 118, "channel": 0}, {"type": "note_off", "time": 113, "note": 67, "velocity": 118, "channel": 0}, {"type": "note_on", "time": 76, "note": 67, "velocity": 114, "channel": 0}, {"type": "note_off", "time": 130, "note": 67, "velocity": 114, "channel": 0}, {"type": "note_on", "time": 58, "note": 67, "velocity": 117, "channel": 0}, {"type": "note_off", "time": 168, "note": 67, "velocity": 117, "channel": 0}, {"type": "note_on", "time": 35, "note": 67, "velocity": 114, "channel": 0}, {"type": "note_off", "time": 97, "note": 67, "velocity": 114, "channel": 0}, {"type": "note_on", "time": 45, "note": 67, "velocity": 115, "channel": 0}, {"type": "note_off", "time": 126, "note": 67, "velocity": 115, "channel": 0}, {"type": "note_on", "time": 50, "note": 65, "velocity": 111, "channel": 0}, {"type": "note_off", "time": 63, "note": 65, "velocity": 111, "channel": 0}, {"type": "note_on", "time": 9, "note": 64, "velocity": 105, "channel": 0}, {"type": "note_off", "time": 95, "note": 64, "velocity": 105, "channel": 0}, {"type": "note_on", "time": 11, "note": 65, "velocity": 9, "channel": 0}, {"type": "note_off", "time": 67, "note": 65, "velocity": 9, "channel": 0}, {"type": "note_on", "time": 40, "note": 70, "velocity": 116, "channel": 0}, {"type": "note_off", "time": 396, "note": 70, "velocity": 116, "channel": 0}, {"type": "note_on", "time": 256, "note": 68, "velocity": 116, "channel": 0}, {"type": "note_off", "time": 77, "note": 68, "velocity": 116, "channel": 0}, {"type": "note_on", "time": 14, "note": 67, "velocity": 114, "channel": 0}, {"type": "note_off", "time": 74, "note": 67, "velocity": 114, "channel": 0}, {"type": "note_on", "time": 33, "note": 65, "velocity": 103, "channel": 0}, {"type": "note_off", "time": 427, "note": 65, "velocity": 103, "channel": 0}, {"type": "note_on", "time": 717, "note": 65, "velocity": 111, "channel": 0}, {"type": "note_off", "time": 42, "note": 65, "velocity": 111, "channel": 0}, {"type": "note_on", "time": 26, "note": 67, "velocity": 119, "channel": 0}, {"type": "note_off", "time": 51, "note": 67, "velocity": 119, "channel": 0}, {"type": "note_on", "time": 68, "note": 68, "velocity": 123, "channel": 0}, {"type": "note_off", "time": 55, "note": 68, "velocity": 123, "channel": 0}, {"type": "note_on", "time": 14, "note": 67, "velocity": 117, "channel": 0}, {"type": "note_off", "time": 166, "note": 67, "velocity": 117, "channel": 0}, {"type": "note_on", "time": 28, "note": 65, "velocity": 108, "channel": 0}, {"type": "note_off", "time": 149, "note": 65, "velocity": 108, "channel": 0}, {"type": "note_on", "time": 38, "note": 64, "velocity": 108, "channel": 0}, {"type": "note_off", "time": 63, "note": 64, "velocity": 108, "channel": 0}, {"type": "note_on", "time": 65, "note": 61, "velocity": 112, "channel": 0}, {"type": "note_off", "time": 43, "note": 61, "velocity": 112, "channel": 0}, {"type": "note_on", "time": 34, "note": 60, "velocity": 112, "channel": 0}, {"type": "note_off", "time": 64, "note": 60, "velocity": 112, "channel": 0}, {"type": "note_on", "time": 46, "note": 58, "velocity": 108, "channel": 0}, {"type": "note_off", "time": 53, "note": 58, "velocity": 108, "channel": 0}, {"type": "note_on", "time": 19, "note": 55, "velocity": 105, "channel": 0}, {"type": "note_off", "time": 113, "note": 55, "velocity": 105, "channel": 0}, {"type": "note_on", "time": 15, "note": 56, "velocity": 109, "channel": 0}, {"type": "note_off", "time": 211, "note": 56, "velocity": 109, "channel": 0}, {"type": "note_on", "time": 316, "note": 68, "velocity": 116, "channel": 0}, {"type": "note_off", "time": 48, "note": 68, "velocity": 116, "channel": 0}, {"type": "note_on", "time": 4, "note": 67, "velocity": 118, "channel": 0}, {"type": "note_off", "time": 46, "note": 67, "velocity": 118, "channel": 0}, {"type": "note_on", "time": 6, "note": 66, "velocity": 113, "channel": 0}, {"type": "note_off", "time": 55, "note": 66, "velocity": 113, "channel": 0}, {"type": "note_on", "time": 16, "note": 58, "velocity": 88, "channel": 0}, {"type": "note_off", "time": 38, "note": 58, "velocity": 88, "channel": 0}, {"type": "note_on", "time": 8, "note": 61, "velocity": 109, "channel": 0}, {"type": "note_off", "time": 49, "note": 61, "velocity": 109, "channel": 0}, {"type": "note_on", "time": 11, "note": 65, "velocity": 108, "channel": 0}, {"type": "note_off", "time": 38, "note": 65, "velocity": 108, "channel": 0}, {"type": "note_on", "time": 18, "note": 63, "velocity": 107, "channel": 0}, {"type": "note_off", "time": 35, "note": 63, "velocity": 107, "channel": 0}, {"type": "note_on", "time": 19, "note": 61, "velocity": 111, "channel": 0}, {"type": "note_off", "time": 58, "note": 61, "velocity": 111, "channel": 0}, {"type": "note_on", "time": 18, "note": 60, "velocity": 112, "channel": 0}, {"type": "note_off", "time": 52, "note": 60, "velocity": 112, "channel": 0}, {"type": "note_on", "time": 74, "note": 58, "velocity": 109, "channel": 0}, {"type": "note_off", "time": 51, "note": 58, "velocity": 109, "channel": 0}, {"type": "note_on", "time": 4, "note": 57, "velocity": 102, "channel": 0}, {"type": "note_off", "time": 111, "note": 57, "velocity": 102, "channel": 0}, {"type": "note_on", "time": 17, "note": 56, "velocity": 110, "channel": 0}, {"type": "note_off", "time": 347, "note": 56, "velocity": 110, "channel": 0}, {"type": "note_on", "time": 48, "note": 63, "velocity": 112, "channel": 0}, {"type": "note_off", "time": 74, "note": 63, "velocity": 112, "channel": 0}, {"type": "note_on", "time": 3, "note": 62, "velocity": 104, "channel": 0}, {"type": "note_off", "time": 155, "note": 62, "velocity": 104, "channel": 0}, {"type": "note_on", "time": 17, "note": 63, "velocity": 110, "channel": 0}, {"type": "note_off", "time": 77, "note": 63, "velocity": 110, "channel": 0}, {"type": "note_on", "time": 120, "note": 56, "velocity": 109, "channel": 0}, {"type": "note_off", "time": 78, "note": 56, "velocity": 109, "channel": 0}, {"type": "note_on", "time": 237, "note": 58, "velocity": 105, "channel": 0}, {"type": "note_off", "time": 50, "note": 58, "velocity": 105, "channel": 0}, {"type": "note_on", "time": 11, "note": 60, "velocity": 115, "channel": 0}, {"type": "note_off", "time": 89, "note": 60, "velocity": 115, "channel": 0}, {"type": "note_on", "time": 243, "note": 51, "velocity": 100, "channel": 0}, {"type": "note_off", "time": 51, "note": 51, "velocity": 100, "channel": 0}, {"type": "note_on", "time": 27, "note": 53, "velocity": 97, "channel": 0}, {"type": "note_off", "time": 56, "note": 53, "velocity": 97, "channel": 0}, {"type": "note_on", "time": 64, "note": 55, "velocity": 104, "channel": 0}, {"type": "note_off", "time": 40, "note": 55, "velocity": 104, "channel": 0}, {"type": "note_on", "time": 9, "note": 56, "velocity": 104, "channel": 0}, {"type": "note_off", "time": 85, "note": 56, "velocity": 104, "channel": 0}, {"type": "note_on", "time": 36, "note": 58, "velocity": 102, "channel": 0}, {"type": "note_off", "time": 55, "note": 58, "velocity": 102, "channel": 0}, {"type": "note_on", "time": 24, "note": 60, "velocity": 108, "channel": 0}, {"type": "note_off", "time": 97, "note": 60, "velocity": 108, "channel": 0}, {"type": "note_on", "time": 4, "note": 61, "velocity": 112, "channel": 0}, {"type": "note_off", "time": 68, "note": 61, "velocity": 112, "channel": 0}, {"type": "note_on", "time": 9, "note": 63, "velocity": 110, "channel": 0}, {"type": "note_off", "time": 96, "note": 63, "velocity": 110, "channel": 0}, {"type": "note_on", "time": 3, "note": 61, "velocity": 111, "channel": 0}, {"type": "note_off", "time": 71, "note": 61, "velocity": 111, "channel": 0}, {"type": "note_on", "time": 5, "note": 60, "velocity": 109, "channel": 0}, {"type": "note_off", "time": 101, "note": 60, "velocity": 109, "channel": 0}, {"type": "note_on", "time": 25, "note": 61, "velocity": 113, "channel": 0}, {"type": "note_off", "time": 211, "note": 61, "velocity": 113, "channel": 0}, {"type": "note_on", "time": 63, "note": 58, "velocity": 97, "channel": 0}, {"type": "note_off", "time": 139, "note": 58, "velocity": 97, "channel": 0}, {"type": "note_on", "time": 39, "note": 60, "velocity": 103, "channel": 0}, {"type": "note_off", "time": 88, "note": 60, "velocity": 103, "channel": 0}, {"type": "note_on", "time": 22, "note": 56, "velocity": 99, "channel": 0}, {"type": "note_off", "time": 366, "note": 56, "velocity": 99, "channel": 0}, {"type": "end_of_track", "time": 0}]]}