{"ticks_per_beat": 192, "tracks": [[{"type": "track_name", "name": "Melody", "time": 0}, {"type": "set_tempo", "tempo": 189873, "time": 0}, {"type": "key_signature", "key": "F", "time": 0}, {"type": "time_signature", "numerator": 4, "denominator": 4, "clocks_per_click": 24, "notated_32nd_notes_per_beat": 8, "time": 0}, {"type": "note_on", "time": 7174, "note": 53, "velocity": 94, "channel": 0}, {"type": "note_off", "time": 142, "note": 53, "velocity": 94, "channel": 0}, {"type": "note_on", "time": 57, "note": 55, "velocity": 87, "channel": 0}, {"type": "note_off", "time": 165, "note": 55, "velocity": 87, "channel": 0}, {"type": "note_on", "time": 24, "note": 57, "velocity": 101, "channel": 0}, {"type": "note_off", "time": 536, "note": 57, "velocity": 101, "channel": 0}, {"type": "note_on", "time": 90, "note": 58, "velocity": 109, "channel": 0}, {"type": "note_off", "time": 82, "note": 58, "velocity": 109, "channel": 0}, {"type": "note_on", "time": 37, "note": 60, "velocity": 99, "channel": 0}, {"type": "note_off", "time": 173, "note": 60, "velocity": 99, "channel": 0}, {"type": "note_on", "time": 39, "note": 62, "velocity": 102, "channel": 0}, {"type": "note_off", "time": 57, "note": 62, "velocity": 102, "channel": 0}, {"type": "note_on", "time": 24, "note": 63, "velocity": 100, "channel": 0}, {"type": "note_off", "time": 82, "note": 63, "velocity": 100, "channel": 0}, {"type": "note_on", "time": 28, "note": 64, "velocity": 87, "channel": 0}, {"type": "note_off", "time": 59, "note": 64, "velocity": 87, "channel": 0}, {"type": "note_on", "time": 30, "note": 67, "velocity": 104, "channel": 0}, {"type": "note_off", "time": 76, "note": 67, "velocity": 104, "channel": 0}, {"type": "note_on", "time": 12, "note": 66, "velocity": 104, "channel": 0}, {"type": "note_off", "time": 123, "note": 66, "velocity": 104, "channel": 0}, {"type": "note_on", "time": 14, "note": 65, "velocity": 102, "channel": 0}, {"type": "note_off", "time": 63, "note": 65, "velocity": 102, "channel": 0}, {"type": "note_on", "time": 10, "note": 64, "velocity": 99, "channel": 0}, {"type": "note_off", "time": 84, "note": 64, "velocity": 99, "channel": 0}, {"type": "note_on", "time": 16, "note": 63, "velocity": 97, "channel": 0}, {"type": "note_off", "time": 55, "note": 63, "velocity": 97, "channel": 0}, {"type": "note_on", "time": 144, "note": 58, "velocity": 103, "channel": 0}, {"type": "note_off", "time": 74, "note": 58, "velocity": 103, "channel": 0}, {"type": "note_on", "time": 16, "note": 62, "velocity": 98, "channel": 0}, {"type": "note_off", "time": 115, "note": 62, "velocity": 98, "channel": 0}, {"type": "note_on", "time": 89, "note": 60, "velocity": 100, "channel": 0}, {"type": "note_off", "time": 126, "note": 60, "velocity": 100, "channel": 0}, {"type": "note_on", "time": 16, "note": 58, "velocity": 103, "channel": 0}, {"type": "note_off", "time": 52, "note": 58, "velocity": 103, "channel": 0}, {"type": "note_on", "time": 16, "note": 57, "velocity": 98, "channel": 0}, {"type": "note_off", "time": 54, "note": 57, "velocity": 98, "channel": 0}, {"type": "note_on", "time": 32, "note": 55, "velocity": 99, "channel": 0}, {"type": "note_off", "time": 71, "note": 55, "velocity": 99, "channel": 0}, {"type": "note_on", "time": 217, "note": 53, "velocity": 104, "channel": 0}, {"type": "note_off", "time": 300, "note": 53, "velocity": 104, "channel": 0}, {"type": "note_on", "time": 145, "note": 65, "velocity": 100, "channel": 0}, {"type": "note_off", "time": 321, "note": 65, "velocity": 100, "channel": 0}, {"type": "note_on", "time": 716, "note": 65, "velocity": 100, "channel": 0}, {"type": "note_off", "time": 242, "note": 65, "velocity": 100, "channel": 0}, {"type": "note_on", "time": 30, "note": 63, "velocity": 105, "channel": 0}, {"type": "note_off", "time": 110, "note": 63, "velocity": 105, "channel": 0}, {"type": "note_on", "time": 41, "note": 61, "velocity": 86, "channel": 0}, {"type": "note_off", "time": 51, "note": 61, "velocity": 86, "channel": 0}, {"type": "note_on", "time": 5, "note": 62, "velocity": 108, "channel": 0}, {"type": "note_off", "time": 98, "note": 62, "velocity": 108, "channel": 0}, {"type": "note_on", "time": 20, "note": 58, "velocity": 107, "channel": 0}, {"type": "note_off", "time": 98, "note": 58, "velocity": 107, "channel": 0}, {"type": "note_on", "time": 936, "note": 58, "velocity": 99, "channel": 0}, {"type": "note_off", "time": 77, "note": 58, "velocity": 99, "channel": 0}, {"type": "note_on", "time": 70, "note": 61, "velocity": 104, "channel": 0}, {"type": "note_off", "time": 121, "note": 61, "velocity": 104, "channel": 0}, {"type": "note_on", "time": 60, "note": 64, "velocity": 86, "channel": 0}, {"type": "note_off", "time": 58, "note": 64, "velocity": 86, "channel": 0}, {"type": "note_on", "time": 44, "note": 65, "velocity": 90, "channel": 0}, {"type": "note_off", "time": 123, "note": 65, "velocity": 90, "channel": 0}, {"type": "note_on", "time": 63, "note": 64, "velocity": 98, "channel": 0}, {"type": "note_off", "time": 115, "note": 64, "velocity": 98, "channel": 0}, {"type": "note_on", "time": 77, "note": 63, "velocity": 91, "channel": 0}, {"type": "note_off", "time": 117, "note": 63, "velocity": 91, "channel": 0}, {"type": "note_on", "time": 76, "note": 62, "velocity": 111, "channel": 0}, {"type": "note_off", "time": 114, "note": 62, "velocity": 111, "channel": 0}, {"type": "note_on", "time": 10, "note": 61, "velocity": 98, "channel": 0}, {"type": "note_off", "time": 149, "note": 61, "velocity": 98, "channel": 0}, {"type": "note_on", "time": 76, "note": 56, "velocity": 109, "channel": 0}, {"type": "note_off", "time": 67, "note": 56, "velocity": 109, "channel": 0}, {"type": "note_on", "time": 19, "note": 60, "velocity": 96, "channel": 0}, {"type": "note_off", "time": 117, "note": 60, "velocity": 96, "channel": 0}, {"type": "note_on", "time": 77, "note": 58, "velocity": 100, "channel": 0}, {"type": "note_off", "time": 115, "note": 58, "velocity": 100, "channel": 0}, {"type": "note_on", "time": 89, "note": 56, "velocity": 94, "channel": 0}, {"type": "note_off", "time": 44, "note": 56, "velocity": 94, "channel": 0}, {"type": "note_on", "time": 2, "note": 55, "velocity": 97, "channel": 0}, {"type": "note_off", "time": 48, "note": 55, "velocity": 97, "channel": 0}, {"type": "note_on", "time": 8, "note": 53, "velocity": 109, "channel": 0}, {"type": "note_off", "time": 112, "note": 53, "velocity": 109, "channel": 0}, {"type": "note_on", "time": 13, "note": 52, "velocity": 108, "channel": 0}, {"type": "note_off", "time": 86, "note": 52, "velocity": 108, "channel": 0}, {"type": "note_on", "time": 1, "note": 50, "velocity": 93, "channel": 0}, {"type": "note_off", "time": 118, "note": 50, "velocity": 93, "channel": 0}, {"type": "note_on", "time": 13, "note": 51, "velocity": 98, "channel": 0}, {"type": "note_off", "time": 143, "note": 51, "velocity": 98, "channel": 0}, {"type": "note_on", "time": 270, "note": 63, "velocity": 111, "channel": 0}, {"type": "note_off", "time": 245, "note": 63, "velocity": 111, "channel": 0}, {"type": "note_on", "time": 29, "note": 61, "velocity": 111, "channel": 0}, {"type": "note_off", "time": 111, "note": 61, "velocity": 111, "channel": 0}, {"type": "note_on", "time": 14, "note": 60, "velocity": 106, "channel": 0}, {"type": "note_off", "time": 110, "note": 60, "velocity": 106, "channel": 0}, {"type": "note_on", "time": 114, "note": 63, "velocity": 98, "channel": 0}, {"type": "note_off", "time": 129, "note": 63, "velocity": 98, "channel": 0}, {"type": "note_on", "time": 38, "note": 61, "velocity": 97, "channel": 0}, {"type": "note_off", "time": 98, "note": 61, "velocity": 97, "channel": 0}, {"type": "note_on", "time": 93, "note": 54, "velocity": 100, "channel": 0}, {"type": "note_off", "time": 77, "note": 54, "velocity": 100, "channel": 0}, {"type": "note_on", "time": 22, "note": 56, "velocity": 99, "channel": 0}, {"type": "note_off", "time": 123, "note": 56, "velocity": 99, "channel": 0}, {"type": "note_on", "time": 39, "note": 60, "velocity": 102, "channel": 0}, {"type": "note_off", "time": 63, "note": 60, "velocity": 102, "channel": 0}, {"type": "note_on", "time": 16, "note": 58, "velocity": 109, "channel": 0}, {"type": "note_off", "time": 107, "note": 58, "velocity": 109, "channel": 0}, {"type": "note_on", "time": 45, "note": 55, "velocity": 104, "channel": 0}, {"type": "note_off", "time": 49, "note": 55, "velocity": 104, "channel": 0}, {"type": "note_on", "time": 8, "note": 54, "velocity": 95, "channel": 0}, {"type": "note_off", "time": 52, "note": 54, "velocity": 95, "channel": 0}, {"type": "note_on", "time": 8, "note": 53, "velocity": 99, "channel": 0}, {"type": "note_off", "time": 105, "note": 53, "velocity": 99, "channel": 0}, {"type": "note_on", "time": 26, "note": 52, "velocity": 89, "channel": 0}, {"type": "note_off", "time": 121, "note": 52, "velocity": 89, "channel": 0}, {"type": "note_on", "time": 68, "note": 51, "velocity": 108, "channel": 0}, {"type": "note_off", "time": 321, "note": 51, "velocity": 108, "channel": 0}, {"type": "note_on", "time": 64, "note": 63, "velocity": 113, "channel": 0}, {"type": "note_off", "time": 165, "note": 63, "velocity": 113, "channel": 0}, {"type": "note_on", "time": 23, "note": 60, "velocity": 94, "channel": 0}, {"type": "note_off", "time": 68, "note": 60, "velocity": 94, "channel": 0}, {"type": "note_on", "time": 137, "note": 64, "velocity": 110, "channel": 0}, {"type": "note_off", "time": 107, "note": 64, "velocity": 110, "channel": 0}, {"type": "note_on", "time": 19, "note": 60, "velocity": 107, "channel": 0}, {"type": "note_off", "time": 111, "note": 60, "velocity": 107, "channel": 0}, {"type": "note_on", "time": 529, "note": 65, "velocity": 105, "channel": 0}, {"type": "note_off", "time": 55, "note": 65, "velocity": 105, "channel": 0}, {"type": "note_on", "time": 19, "note": 65, "velocity": 111, "channel": 0}, {"type": "note_off", "time": 51, "note": 65, "velocity": 111, "channel": 0}, {"type": "note_on", "time": 20, "note": 63, "velocity": 105, "channel": 0}, {"type": "note_off", "time": 102, "note": 63, "velocity": 105, "channel": 0}, {"type": "note_on", "time": 102, "note": 65, "velocity": 98, "channel": 0}, {"type": "note_off", "time": 142, "note": 65, "velocity": 98, "channel": 0}, {"type": "note_on", "time": 180, "note": 65, "velocity": 111, "channel": 0}, {"type": "note_off", "time": 202, "note": 65, "velocity": 111, "channel": 0}, {"type": "note_on", "time": 46, "note": 65, "velocity": 103, "channel": 0}, {"type": "note_off", "time": 74, "note": 65, "velocity": 103, "channel": 0}, {"type": "note_on", "time": 17, "note": 65, "velocity": 107, "channel": 0}, {"type": "note_off", "time": 85, "note": 65, "velocity": 107, "channel": 0}, {"type": "note_on", "time": 17, "note": 63, "velocity": 101, "channel": 0}, {"type": "note_off", "time": 105, "note": 63, "velocity": 101, "channel": 0}, {"type": "note_on", "time": 8, "note": 65, "velocity": 112, "channel": 0}, {"type": "note_off", "time": 76, "note": 65, "velocity": 112, "channel": 0}, {"type": "note_on", "time": 8, "note": 63, "velocity": 98, "channel": 0}, {"type": "note_off", "time": 61, "note": 63, "velocity": 98, "channel": 0}, {"type": "note_on", "time": 121, "note": 65, "velocity": 114, "channel": 0}, {"type": "note_off", "time": 118, "note": 65, "velocity": 114, "channel": 0}, {"type": "note_on", "time": 10, "note": 64, "velocity": 101, "channel": 0}, {"type": "note_off", "time": 33, "note": 64, "velocity": 101, "channel": 0}, {"type": "note_on", "time": 13, "note": 63, "velocity": 107, "channel": 0}, {"type": "note_off", "time": 58, "note": 63, "velocity": 107, "channel": 0}, {"type": "note_on", "time": 151, "note": 65, "velocity": 98, "channel": 0}, {"type": "note_off", "time": 173, "note": 65, "velocity": 98, "channel": 0}, {"type": "note_on", "time": 123, "note": 65, "velocity": 104, "channel": 0}, {"type": "note_off", "time": 162, "note": 65, "velocity": 104, "channel": 0}, {"type": "note_on", "time": 107, "note": 66, "velocity": 110, "channel": 0}, {"type": "note_off", "time": 63, "note": 66, "velocity": 110, "channel": 0}, {"type": "note_on", "time": 26, "note": 66, "velocity": 113, "channel": 0}, {"type": "note_off", "time": 79, "note": 66, "velocity": 113, "channel": 0}, {"type": "note_on", "time": 14, "note": 62, "velocity": 89, "channel": 0}, {"type": "note_off", "time": 68, "note": 62, "velocity": 89, "channel": 0}, {"type": "note_on", "time": 13, "note": 65, "velocity": 100, "channel": 0}, {"type": "note_off", "time": 42, "note": 65, "velocity": 100, "channel": 0}, {"type": "note_on", "time": 14, "note": 63, "velocity": 107, "channel": 0}, {"type": "note_off", "time": 85, "note": 63, "velocity": 107, "channel": 0}, {"type": "note_on", "time": 165, "note": 65, "velocity": 104, "channel": 0}, {"type": "note_off", "time": 80, "note": 65, "velocity": 104, "channel": 0}, {"type": "note_on", "time": 85, "note": 65, "velocity": 102, "channel": 0}, {"type": "note_off", "time": 71, "note": 65, "velocity": 102, "channel": 0}, {"type": "note_on", "time": 10, "note": 65, "velocity": 105, "channel": 0}, {"type": "note_off", "time": 77, "note": 65, "velocity": 105, "channel": 0}, {"type": "note_on", "time": 20, "note": 62, "velocity": 106, "channel": 0}, {"type": "note_off", "time": 250, "note": 62, "velocity": 106, "channel": 0}, {"type": "note_on", "time": 2481, "note": 48, "velocity": 101, "channel": 0}, {"type": "note_off", "time": 152, "note": 48, "velocity": 101, "channel": 0}, {"type": "note_on", "time": 48, "note": 50, "velocity": 95, "channel": 0}, {"type": "note_off", "time": 110, "note": 50, "velocity": 95, "channel": 0}, {"type": "note_on", "time": 29, "note": 53, "velocity": 98, "channel": 0}, {"type": "note_off", "time": 130, "note": 53, "velocity": 98, "channel": 0}, {"type": "note_on", "time": 88, "note": 56, "velocity": 106, "channel": 0}, {"type": "note_off", "time": 54, "note": 56, "velocity": 106, "channel": 0}, {"type": "note_on", "time": 23, "note": 55, "velocity": 105, "channel": 0}, {"type": "note_off", "time": 133, "note": 55, "velocity": 105, "channel": 0}, {"type": "note_on", "time": 44, "note": 52, "velocity": 102, "channel": 0}, {"type": "note_off", "time": 80, "note": 52, "velocity": 102, "channel": 0}, {"type": "note_on", "time": 0, "note": 48, "velocity": 108, "channel": 0}, {"type": "note_off", "time": 164, "note": 48, "velocity": 108, "channel": 0}, {"type": "note_on", "time": 57, "note": 58, "velocity": 108, "channel": 0}, {"type": "note_off", "time": 36, "note": 58, "velocity": 108, "channel": 0}, {"type": "note_on", "time": 10, "note": 61, "velocity": 110, "channel": 0}, {"type": "note_off", "time": 41, "note": 61, "velocity": 110, "channel": 0}, {"type": "note_on", "time": 19, "note": 60, "velocity": 104, "channel": 0}, {"type": "note_off", "time": 99, "note": 60, "velocity": 104, "channel": 0}, {"type": "note_on", "time": 17, "note": 58, "velocity": 105, "channel": 0}, {"type": "note_off", "time": 68, "note": 58, "velocity": 105, "channel": 0}, {"type": "note_on", "time": 19, "note": 56, "velocity": 108, "channel": 0}, {"type": "note_off", "time": 165, "note": 56, "velocity": 108, "channel": 0}, {"type": "note_on", "time": 29, "note": 53, "velocity": 107, "channel": 0}, {"type": "note_off", "time": 82, "note": 53, "velocity": 107, "channel": 0}, {"type": "note_on", "time": 22, "note": 56, "velocity": 111, "channel": 0}, {"type": "note_off", "time": 76, "note": 56, "velocity": 111, "channel": 0}, {"type": "note_on", "time": 2, "note": 55, "velocity": 110, "channel": 0}, {"type": "note_off", "time": 57, "note": 55, "velocity": 110, "channel": 0}, {"type": "note_on", "time": 10, "note": 53, "velocity": 110, "channel": 0}, {"type": "note_off", "time": 80, "note": 53, "velocity": 110, "channel": 0}, {"type": "note_on", "time": 5, "note": 52, "velocity": 108, "channel": 0}, {"type": "note_off", "time": 120, "note": 52, "velocity": 108, "channel": 0}, {"type": "note_on", "time": 76, "note": 56, "velocity": 92, "channel": 0}, {"type": "note_off", "time": 60, "note": 56, "velocity": 92, "channel": 0}, {"type": "note_on", "time": 23, "note": 63, "velocity": 115, "channel": 0}, {"type": "note_off", "time": 90, "note": 63, "velocity": 115, "channel": 0}, {"type": "note_on", "time": 23, "note": 61, "velocity": 116, "channel": 0}, {"type": "note_off", "time": 124, "note": 61, "velocity": 116, "channel": 0}, {"type": "note_on", "time": 14, "note": 60, "velocity": 114, "channel": 0}, {"type": "note_off", "time": 248, "note": 60, "velocity": 114, "channel": 0}, {"type": "note_on", "time": 13, "note": 61, "velocity": 106, "channel": 0}, {"type": "note_off", "time": 108, "note": 61, "velocity": 106, "channel": 0}, {"type": "note_on", "time": 161, "note": 63, "velocity": 115, "channel": 0}, {"type": "note_off", "time": 347, "note": 63, "velocity": 115, "channel": 0}, {"type": "note_on", "time": 49, "note": 60, "velocity": 106, "channel": 0}, {"type": "note_off", "time": 101, "note": 60, "velocity": 106, "channel": 0}, {"type": "note_on", "time": 152, "note": 58, "velocity": 103, "channel": 0}, {"type": "note_off", "time": 85, "note": 58, "velocity": 103, "channel": 0}, {"type": "note_on", "time": 8, "note": 57, "velocity": 105, "channel": 0}, {"type": "note_off", "time": 112, "note": 57, "velocity": 105, "channel": 0}, {"type": "note_on", "time": 102, "note": 60, "velocity": 100, "channel": 0}, {"type": "note_off", "time": 76, "note": 60, "velocity": 100, "channel": 0}, {"type": "note_on", "time": 10, "note": 68, "velocity": 108, "channel": 0}, {"type": "note_off", "time": 42, "note": 68, "velocity": 108, "channel": 0}, {"type": "note_on", "time": 5, "note": 67, "velocity": 114, "channel": 0}, {"type": "note_off", "time": 41, "note": 67, "velocity": 114, "channel": 0}, {"type": "note_on", "time": 13, "note": 66, "velocity": 108, "channel": 0}, {"type": "note_off", "time": 112, "note": 66, "velocity": 108, "channel": 0}, {"type": "note_on", "time": 26, "note": 65, "velocity": 104, "channel": 0}, {"type": "note_off", "time": 149, "note": 65, "velocity": 104, "channel": 0}, {"type": "note_on", "time": 11, "note": 63, "velocity": 99, "channel": 0}, {"type": "note_off", "time": 79, "note": 63, "velocity": 99, "channel": 0}, {"type": "note_on", "time": 20, "note": 62, "velocity": 101, "channel": 0}, {"type": "note_off", "time": 66, "note": 62, "velocity": 101, "channel": 0}, {"type": "note_on", "time": 7, "note": 58, "velocity": 97, "channel": 0}, {"type": "note_off", "time": 114, "note": 58, "velocity": 97, "channel": 0}, {"type": "note_on", "time": 148, "note": 61, "velocity": 101, "channel": 0}, {"type": "note_off", "time": 57, "note": 61, "velocity": 101, "channel": 0}, {"type": "note_on", "time": 11, "note": 60, "velocity": 108, "channel": 0}, {"type": "note_off", "time": 107, "note": 60, "velocity": 108, "channel": 0}, {"type": "note_on", "time": 8, "note": 58, "velocity": 107, "channel": 0}, {"type": "note_off", "time": 68, "note": 58, "velocity": 107, "channel": 0}, {"type": "note_on", "time": 10, "note": 57, "velocity": 104, "channel": 0}, {"type": "note_off", "time": 41, "note": 57, "velocity": 104, "channel": 0}, {"type": "note_on", "time": 22, "note": 60, "velocity": 102, "channel": 0}, {"type": "note_off", "time": 95, "note": 60, "velocity": 102, "channel": 0}, {"type": "note_on", "time": 24, "note": 56, "velocity": 110, "channel": 0}, {"type": "note_off", "time": 142, "note": 56, "velocity": 110, "channel": 0}, {"type": "note_on", "time": 607, "note": 67, "velocity": 112, "channel": 0}, {"type": "note_off", "time": 126, "note": 67, "velocity": 112, "channel": 0}, {"type": "note_on", "time": 57, "note": 72, "velocity": 97, "channel": 0}, {"type": "note_off", "time": 157, "note": 72, "velocity": 97, "channel": 0}, {"type": "note_on", "time": 22, "note": 71, "velocity": 123, "channel": 0}, {"type": "note_off", "time": 107, "note": 71, "velocity": 123, "channel": 0}, {"type": "note_on", "time": 19, "note": 67, "velocity": 103, "channel": 0}, {"type": "note_off", "time": 145, "note": 67, "velocity": 103, "channel": 0}, {"type": "note_on", "time": 19, "note": 70, "velocity": 127, "channel": 0}, {"type": "note_off", "time": 242, "note": 70, "velocity": 127, "channel": 0}, {"type": "note_on", "time": 16, "note": 66, "velocity": 113, "channel": 0}, {"type": "note_off", "time": 30, "note": 66, "velocity": 113, "channel": 0}, {"type": "note_on", "time": 10, "note": 64, "velocity": 102, "channel": 0}, {"type": "note_off", "time": 48, "note": 64, "velocity": 102, "channel": 0}, {"type": "note_on", "time": 5, "note": 60, "velocity": 102, "channel": 0}, {"type": "note_off", "time": 64, "note": 60, "velocity": 102, "channel": 0}, {"type": "note_on", "time": 96, "note": 70, "velocity": 114, "channel": 0}, {"type": "note_off", "time": 66, "note": 70, "velocity": 114, "channel": 0}, {"type": "note_on", "time": 14, "note": 69, "velocity": 118, "channel": 0}, {"type": "note_off", "time": 80, "note": 69, "velocity": 118, "channel": 0}, {"type": "note_on", "time": 22, "note": 67, "velocity": 119, "channel": 0}, {"type": "note_off", "time": 66, "note": 67, "velocity": 119, "channel": 0}, {"type": "note_on", "time": 22, "note": 66, "velocity": 121, "channel": 0}, {"type": "note_off", "time": 99, "note": 66, "velocity": 121, "channel": 0}, {"type": "note_on", "time": 8, "note": 67, "velocity": 103, "channel": 0}, {"type": "note_off", "time": 64, "note": 67, "velocity": 103, "channel": 0}, {"type": "note_on", "time": 187, "note": 64, "velocity": 100, "channel": 0}, {"type": "note_off", "time": 80, "note": 64, "velocity": 100, "channel": 0}, {"type": "note_on", "time": 8, "note": 63, "velocity": 114, "channel": 0}, {"type": "note_off", "time": 82, "note": 63, "velocity": 114, "channel": 0}, {"type": "note_on", "time": 132, "note": 58, "velocity": 102, "channel": 0}, {"type": "note_off", "time": 32, "note": 58, "velocity": 102, "channel": 0}, {"type": "note_on", "time": 39, "note": 62, "velocity": 104, "channel": 0}, {"type": "note_off", "time": 120, "note": 62, "velocity": 104, "channel": 0}, {"type": "note_on", "time": 96, "note": 60, "velocity": 108, "channel": 0}, {"type": "note_off", "time": 96, "note": 60, "velocity": 108, "channel": 0}, {"type": "note_on", "time": 136, "note": 69, "velocity": 102, "channel": 0}, {"type": "note_off", "time": 67, "note": 69, "velocity": 102, "channel": 0}, {"type": "note_on", "time": 51, "note": 68, "velocity": 113, "channel": 0}, {"type": "note_off", "time": 57, "note": 68, "velocity": 113, "channel": 0}, {"type": "note_on", "time": 10, "note": 66, "velocity": 110, "channel": 0}, {"type": "note_off", "time": 148, "note": 66, "velocity": 110, "channel": 0}, {"type": "note_on", "time": 79, "note": 65, "velocity": 114, "channel": 0}, {"type": "note_off", "time": 327, "note": 65, "velocity": 114, "channel": 0}, {"type": "note_on", "time": 16, "note": 64, "velocity": 88, "channel": 0}, {"type": "note_off", "time": 35, "note": 64, "velocity": 88, "channel": 0}, {"type": "note_on", "time": 8, "note": 65, "velocity": 105, "channel": 0}, {"type": "note_off", "time": 35, "note": 65, "velocity": 105, "channel": 0}, {"type": "note_on", "time": 5, "note": 63, "velocity": 104, "channel": 0}, {"type": "note_off", "time": 51, "note": 63, "velocity": 104, "channel": 0}, {"type": "note_on", "time": 4, "note": 60, "velocity": 103, "channel": 0}, {"type": "note_off", "time": 88, "note": 60, "velocity": 103, "channel": 0}, {"type": "note_on", "time": 105, "note": 63, "velocity": 115, "channel": 0}, {"type": "note_off", "time": 186, "note": 63, "velocity": 115, "channel": 0}, {"type": "note_on", "time": 13, "note": 61, "velocity": 107, "channel": 0}, {"type": "note_off", "time": 20, "note": 61, "velocity": 107, "channel": 0}, {"type": "note_on", "time": 11, "note": 60, "velocity": 111, "channel": 0}, {"type": "note_off", "time": 24, "note": 60, "velocity": 111, "channel": 0}, {"type": "note_on", "time": 7, "note": 58, "velocity": 108, "channel": 0}, {"type": "note_off", "time": 17, "note": 58, "velocity": 108, "channel": 0}, {"type": "note_on", "time": 7, "note": 53, "velocity": 105, "channel": 0}, {"type": "note_off", "time": 99, "note": 53, "velocity": 105, "channel": 0}, {"type": "note_on", "time": 92, "note": 62, "velocity": 110, "channel": 0}, {"type": "note_off", "time": 76, "note": 62, "velocity": 110, "channel": 0}, {"type": "note_on", "time": 16, "note": 60, "velocity": 108, "channel": 0}, {"type": "note_off", "time": 57, "note": 60, "velocity": 108, "channel": 0}, {"type": "note_on", "time": 24, "note": 58, "velocity": 108, "channel": 0}, {"type": "note_off", "time": 127, "note": 58, "velocity": 108, "channel": 0}, {"type": "note_on", "time": 19, "note": 52, "velocity": 92, "channel": 0}, {"type": "note_off", "time": 49, "note": 52, "velocity": 92, "channel": 0}, {"type": "note_on", "time": 17, "note": 56, "velocity": 112, "channel": 0}, {"type": "note_off", "time": 95, "note": 56, "velocity": 112, "channel": 0}, {"type": "note_on", "time": 99, "note": 52, "velocity": 103, "channel": 0}, {"type": "note_off", "time": 71, "note": 52, "velocity": 103, "channel": 0}, {"type": "note_on", "time": 16, "note": 55, "velocity": 100, "channel": 0}, {"type": "note_off", "time": 104, "note": 55, "velocity": 100, "channel": 0}, {"type": "note_on", "time": 26, "note": 53, "velocity": 110, "channel": 0}, {"type": "note_off", "time": 108, "note": 53, "velocity": 110, "channel": 0}, {"type": "note_on", "time": 10, "note": 52, "velocity": 110, "channel": 0}, {"type": "note_off", "time": 70, "note": 52, "velocity": 110, "channel": 0}, {"type": "note_on", "time": 17, "note": 49, "velocity": 102, "channel": 0}, {"type": "note_off", "time": 93, "note": 49, "velocity": 102, "channel": 0}, {"type": "note_on", "time": 16, "note": 53, "velocity": 106, "channel": 0}, {"type": "note_off", "time": 165, "note": 53, "velocity": 106, "channel": 0}, {"type": "note_on", "time": 66, "note": 60, "velocity": 97, "channel": 0}, {"type": "note_off", "time": 74, "note": 60, "velocity": 97, "channel": 0}, {"type": "note_on", "time": 45, "note": 63, "velocity": 111, "channel": 0}, {"type": "note_off", "time": 214, "note": 63, "velocity": 111, "channel": 0}, {"type": "note_on", "time": 16, "note": 61, "velocity": 97, "channel": 0}, {"type": "note_off", "time": 117, "note": 61, "velocity": 97, "channel": 0}, {"type": "note_on", "time": 67, "note": 57, "velocity": 97, "channel": 0}, {"type": "note_off", "time": 58, "note": 57, "velocity": 97, "channel": 0}, {"type": "note_on", "time": 30, "note": 60, "velocity": 101, "channel": 0}, {"type": "note_off", "time": 164, "note": 60, "velocity": 101, "channel": 0}, {"type": "note_on", "time": 1310, "note": 57, "velocity": 103, "channel": 0}, {"type": "note_off", "time": 74, "note": 57, "velocity": 103, "channel": 0}, {"type": "note_on", "time": 8, "note": 58, "velocity": 95, "channel": 0}, {"type": "note_off", "time": 30, "note": 58, "velocity": 95, "channel": 0}, {"type": "note_on", "time": 14, "note": 60, "velocity": 99, "channel": 0}, {"type": "note_off", "time": 46, "note": 60, "velocity": 99, "channel": 0}, {"type": "note_on", "time": 22, "note": 61, "velocity": 100, "channel": 0}, {"type": "note_off", "time": 137, "note": 61, "velocity": 100, "channel": 0}, {"type": "note_on", "time": 20, "note": 65, "velocity": 93, "channel": 0}, {"type": "note_off", "time": 174, "note": 65, "velocity": 93, "channel": 0}, {"type": "note_on", "time": 36, "note": 70, "velocity": 116, "channel": 0}, {"type": "note_off", "time": 98, "note": 70, "velocity": 116, "channel": 0}, {"type": "note_on", "time": 24, "note": 69, "velocity": 117, "channel": 0}, {"type": "note_off", "time": 135, "note": 69, "velocity": 117, "channel": 0}, {"type": "note_on", "time": 60, "note": 65, "velocity": 88, "channel": 0}, {"type": "note_off", "time": 130, "note": 65, "velocity": 88, "channel": 0}, {"type": "note_on", "time": 64, "note": 68, "velocity": 117, "channel": 0}, {"type": "note_off", "time": 202, "note": 68, "velocity": 117, "channel": 0}, {"type": "note_on", "time": 19, "note": 65, "velocity": 87, "channel": 0}, {"type": "note_off", "time": 14, "note": 65, "velocity": 87, "channel": 0}, {"type": "note_on", "time": 13, "note": 63, "velocity": 101, "channel": 0}, {"type": "note_off", "time": 36, "note": 63, "velocity": 101, "channel": 0}, {"type": "note_on", "time": 8, "note": 62, "velocity": 103, "channel": 0}, {"type": "note_off", "time": 49, "note": 62, "velocity": 103, "channel": 0}, {"type": "note_on", "time": 24, "note": 60, "velocity": 87, "channel": 0}, {"type": "note_off", "time": 64, "note": 60, "velocity": 87, "channel": 0}, {"type": "note_on", "time": 66, "note": 67, "velocity": 117, "channel": 0}, {"type": "note_off", "time": 48, "note": 67, "velocity": 117, "channel": 0}, {"type": "note_on", "time": 19, "note": 67, "velocity": 111, "channel": 0}, {"type": "note_off", "time": 76, "note": 67, "velocity": 111, "channel": 0}, {"type": "note_on", "time": 11, "note": 65, "velocity": 108, "channel": 0}, {"type": "note_off", "time": 71, "note": 65, "velocity": 108, "channel": 0}, {"type": "note_on", "time": 32, "note": 63, "velocity": 111, "channel": 0}, {"type": "note_off", "time": 230, "note": 63, "velocity": 111, "channel": 0}, {"type": "note_on", "time": 154, "note": 60, "velocity": 90, "channel": 0}, {"type": "note_off", "time": 51, "note": 60, "velocity": 90, "channel": 0}, {"type": "note_on", "time": 2, "note": 61, "velocity": 103, "channel": 0}, {"type": "note_off", "time": 115, "note": 61, "velocity": 103, "channel": 0}, {"type": "note_on", "time": 88, "note": 58, "velocity": 110, "channel": 0}, {"type": "note_off", "time": 70, "note": 58, "velocity": 110, "channel": 0}, {"type": "note_on", "time": 10, "note": 60, "velocity": 113, "channel": 0}, {"type": "note_off", "time": 224, "note": 60, "velocity": 113, "channel": 0}, {"type": "note_on", "time": 14, "note": 59, "velocity": 113, "channel": 0}, {"type": "note_off", "time": 46, "note": 59, "velocity": 113, "channel": 0}, {"type": "note_on", "time": 11, "note": 58, "velocity": 112, "channel": 0}, {"type": "note_off", "time": 24, "note": 58, "velocity": 112, "channel": 0}, {"type": "note_on", "time": 11, "note": 57, "velocity": 111, "channel": 0}, {"type": "note_off", "time": 23, "note": 57, "velocity": 111, "channel": 0}, {"type": "note_on", "time": 16, "note": 55, "velocity": 98, "channel": 0}, {"type": "note_off", "time": 95, "note": 55, "velocity": 98, "channel": 0}, {"type": "note_on", "time": 55, "note": 58, "velocity": 111, "channel": 0}, {"type": "note_off", "time": 258, "note": 58, "velocity": 111, "channel": 0}, {"type": "note_on", "time": 98, "note": 58, "velocity": 114, "channel": 0}, {"type": "note_off", "time": 85, "note": 58, "velocity": 114, "channel": 0}, {"type": "note_on", "time": 10, "note": 60, "velocity": 104, "channel": 0}, {"type": "note_off", "time": 393, "note": 60, "velocity": 104, "channel": 0}, {"type": "note_on", "time": 733, "note": 60, "velocity": 110, "channel": 0}, {"type": "note_off", "time": 374, "note": 60, "velocity": 110, "channel": 0}, {"type": "note_on", "time": 581, "note": 60, "velocity": 117, "channel": 0}, {"type": "note_off", "time": 423, "note": 60, "velocity": 117, "channel": 0}, {"type": "note_on", "time": 173, "note": 60, "velocity": 111, "channel": 0}, {"type": "note_off", "time": 243, "note": 60, "velocity": 111, "channel": 0}, {"type": "note_on", "time": 76, "note": 60, "velocity": 106, "channel": 0}, {"type": "note_off", "time": 55, "note": 60, "velocity": 106, "channel": 0}, {"type": "note_on", "time": 26, "note": 60, "velocity": 116, "channel": 0}, {"type": "note_off", "time": 177, "note": 60, "velocity": 116, "channel": 0}, {"type": "note_on", "time": 109, "note": 60, "velocity": 111, "channel": 0}, {"type": "note_off", "time": 63, "note": 60, "velocity": 111, "channel": 0}, {"type": "note_on", "time": 26, "note": 60, "velocity": 113, "channel": 0}, {"type": "note_off", "time": 214, "note": 60, "velocity": 113, "channel": 0}, {"type": "note_on", "time": 90, "note": 60, "velocity": 95, "channel": 0}, {"type": "note_off", "time": 70, "note": 60, "velocity": 95, "channel": 0}, {"type": "note_on", "time": 16, "note": 60, "velocity": 114, "channel": 0}, {"type": "note_off", "time": 216, "note": 60, "velocity": 114, "channel": 0}, {"type": "note_on", "time": 133, "note": 60, "velocity": 115, "channel": 0}, {"type": "note_off", "time": 196, "note": 60, "velocity": 115, "channel": 0}, {"type": "note_on", "time": 1, "note": 58, "velocity": 114, "channel": 0}, {"type": "note_off", "time": 33, "note": 58, "velocity": 114, "channel": 0}, {"type": "note_on", "time": 14, "note": 55, "velocity": 98, "channel": 0}, {"type": "note_off", "time": 135, "note": 55, "velocity": 98, "channel": 0}, {"type": "note_on", "time": 48, "note": 55, "velocity": 101, "channel": 0}, {"type": "note_off", "time": 390, "note": 55, "velocity": 101, "channel": 0}, {"type": "note_on", "time": 2288, "note": 60, "velocity": 106, "channel": 0}, {"type": "note_off", "time": 96, "note": 60, "velocity": 106, "channel": 0}, {"type": "note_on", "time": 120, "note": 62, "velocity": 102, "channel": 0}, {"type": "note_off", "time": 112, "note": 62, "velocity": 102, "channel": 0}, {"type": "note_on", "time": 77, "note": 65, "velocity": 101, "channel": 0}, {"type": "note_off", "time": 130, "note": 65, "velocity": 101, "channel": 0}, {"type": "note_on", "time": 46, "note": 68, "velocity": 114, "channel": 0}, {"type": "note_off", "time": 95, "note": 68, "velocity": 114, "channel": 0}, {"type": "note_on", "time": 7, "note": 67, "velocity": 116, "channel": 0}, {"type": "note_off", "time": 138, "note": 67, "velocity": 116, "channel": 0}, {"type": "note_on", "time": 53, "note": 65, "velocity": 99, "channel": 0}, {"type": "note_off", "time": 86, "note": 65, "velocity": 99, "channel": 0}, {"type": "note_on", "time": 4, "note": 64, "velocity": 109, "channel": 0}, {"type": "note_off", "time": 95, "note": 64, "velocity": 109, "channel": 0}, {"type": "note_on", "time": 122, "note": 58, "velocity": 107, "channel": 0}, {"type": "note_off", "time": 81, "note": 58, "velocity": 107, "channel": 0}, {"type": "note_on", "time": 31, "note": 59, "velocity": 90, "channel": 0}, {"type": "note_off", "time": 36, "note": 59, "velocity": 90, "channel": 0}, {"type": "note_on", "time": 14, "note": 60, "velocity": 101, "channel": 0}, {"type": "note_off", "time": 55, "note": 60, "velocity": 101, "channel": 0}, {"type": "note_on", "time": 15, "note": 58, "velocity": 109, "channel": 0}, {"type": "note_off", "time": 89, "note": 58, "velocity": 109, "channel": 0}, {"type": "note_on", "time": 10, "note": 56, "velocity": 109, "channel": 0}, {"type": "note_off", "time": 132, "note": 56, "velocity": 109, "channel": 0}, {"type": "note_on", "time": 92, "note": 51, "velocity": 103, "channel": 0}, {"type": "note_off", "time": 50, "note": 51, "velocity": 103, "channel": 0}, {"type": "note_on", "time": 7, "note": 53, "velocity": 104, "channel": 0}, {"type": "note_off", "time": 24, "note": 53, "velocity": 104, "channel": 0}, {"type": "note_on", "time": 16, "note": 55, "velocity": 107, "channel": 0}, {"type": "note_off", "time": 43, "note": 55, "velocity": 107, "channel": 0}, {"type": "note_on", "time": 15, "note": 56, "velocity": 106, "channel": 0}, {"type": "note_off", "time": 72, "note": 56, "velocity": 106, "channel": 0}, {"type": "note_on", "time": 28, "note": 53, "velocity": 112, "channel": 0}, {"type": "note_off", "time": 84, "note": 53, "velocity": 112, "channel": 0}, {"type": "note_on", "time": 14, "note": 52, "velocity": 109, "channel": 0}, {"type": "note_off", "time": 75, "note": 52, "velocity": 109, "channel": 0}, {"type": "note_on", "time": 922, "note": 63, "velocity": 99, "channel": 0}, {"type": "note_off", "time": 104, "note": 63, "velocity": 99, "channel": 0}, {"type": "note_on", "time": 88, "note": 68, "velocity": 118, "channel": 0}, {"type": "note_off", "time": 76, "note": 68, "velocity": 118, "channel": 0}, {"type": "note_on", "time": 8, "note": 67, "velocity": 122, "channel": 0}, {"type": "note_off", "time": 106, "note": 67, "velocity": 122, "channel": 0}, {"type": "note_on", "time": 102, "note": 65, "velocity": 107, "channel": 0}, {"type": "note_off", "time": 75, "note": 65, "velocity": 107, "channel": 0}, {"type": "note_on", "time": 11, "note": 63, "velocity": 109, "channel": 0}, {"type": "note_off", "time": 84, "note": 63, "velocity": 109, "channel": 0}, {"type": "note_on", "time": 20, "note": 61, "velocity": 116, "channel": 0}, {"type": "note_off", "time": 86, "note": 61, "velocity": 116, "channel": 0}, {"type": "note_on", "time": 6, "note": 60, "velocity": 111, "channel": 0}, {"type": "note_off", "time": 164, "note": 60, "velocity": 111, "channel": 0}, {"type": "note_on", "time": 18, "note": 58, "velocity": 112, "channel": 0}, {"type": "note_off", "time": 136, "note": 58, "velocity": 112, "channel": 0}, {"type": "note_on", "time": 44, "note": 57, "velocity": 97, "channel": 0}, {"type": "note_off", "time": 110, "note": 57, "velocity": 97, "channel": 0}, {"type": "note_on", "time": 28, "note": 66, "velocity": 115, "channel": 0}, {"type": "note_off", "time": 76, "note": 66, "velocity": 115, "channel": 0}, {"type": "note_on", "time": 10, "note": 65, "velocity": 108, "channel": 0}, {"type": "note_off", "time": 100, "note": 65, "velocity": 108, "channel": 0}, {"type": "note_on", "time": 6, "note": 63, "velocity": 108, "channel": 0}, {"type": "note_off", "time": 40, "note": 63, "velocity": 108, "channel": 0}, {"type": "note_on", "time": 27, "note": 61, "velocity": 96, "channel": 0}, {"type": "note_off", "time": 169, "note": 61, "velocity": 96, "channel": 0}, {"type": "note_on", "time": 61, "note": 58, "velocity": 100, "channel": 0}, {"type": "note_off", "time": 70, "note": 58, "velocity": 100, "channel": 0}, {"type": "note_on", "time": 22, "note": 61, "velocity": 112, "channel": 0}, {"type": "note_off", "time": 119, "note": 61, "velocity": 112, "channel": 0}, {"type": "note_on", "time": 14, "note": 58, "velocity": 105, "channel": 0}, {"type": "note_off", "time": 117, "note": 58, "velocity": 105, "channel": 0}, {"type": "note_on", "time": 22, "note": 57, "velocity": 107, "channel": 0}, {"type": "note_off", "time": 119, "note": 57, "velocity": 107, "channel": 0}, {"type": "note_on", "time": 96, "note": 56, "velocity": 112, "channel": 0}, {"type": "note_off", "time": 180, "note": 56, "velocity": 112, "channel": 0}, {"type": "note_on", "time": 122, "note": 60, "velocity": 111, "channel": 0}, {"type": "note_off", "time": 247, "note": 60, "velocity": 111, "channel": 0}, {"type": "note_on", "time": 20, "note": 58, "velocity": 101, "channel": 0}, {"type": "note_off", "time": 137, "note": 58, "velocity": 101, "channel": 0}, {"type": "end_of_track", "time": 0}]]}