{"ticks_per_beat": 192, "tracks": [[{"type": "track_name", "name": "Melody", "time": 0}, {"type": "set_tempo", "tempo": 304568, "time": 0}, {"type": "key_signature", "key": "Bb", "time": 0}, {"type": "time_signature", "numerator": 4, "denominator": 4, "clocks_per_click": 24, "notated_32nd_notes_per_beat": 8, "time": 0}, {"type": "note_on", "time": 4937, "note": 69, "velocity": 110, "channel": 0}, {"type": "note_off", "time": 39, "note": 69, "velocity": 110, "channel": 0}, {"type": "note_on", "time": 34, "note": 65, "velocity": 108, "channel": 0}, {"type": "note_off", "time": 118, "note": 65, "velocity": 108, "channel": 0}, {"type": "note_on", "time": 9, "note": 64, "velocity": 108, "channel": 0}, {"type": "note_off", "time": 65, "note": 64, "velocity": 108, "channel": 0}, {"type": "note_on", "time": 15, "note": 63, "velocity": 105, "channel": 0}, {"type": "note_off", "time": 164, "note": 63, "velocity": 105, "channel": 0}, {"type": "note_on", "time": 66, "note": 58, "velocity": 98, "channel": 0}, {"type": "note_off", "time": 65, "note": 58, "velocity": 98, "channel": 0}, {"type": "note_on", "time": 34, "note": 62, "velocity": 109, "channel": 0}, {"type": "note_off", "time": 65, "note": 62, "velocity": 109, "channel": 0}, {"type": "note_on", "time": 12, "note": 60, "velocity": 99, "channel": 0}, {"type": "note_off", "time": 72, "note": 60, "velocity": 99, "channel": 0}, {"type": "note_on", "time": 27, "note": 58, "velocity": 109, "channel": 0}, {"type": "note_off", "time": 59, "note": 58, "velocity": 109, "channel": 0}, {"type": "note_on", "time": 6, "note": 57, "velocity": 105, "channel": 0}, {"type": "note_off", "time": 46, "note": 57, "velocity": 105, "channel": 0}, {"type": "note_on", "time": 101, "note": 63, "velocity": 105, "channel": 0}, {"type": "note_off", "time": 52, "note": 63, "velocity": 105, "channel": 0}, {"type": "note_on", "time": 36, "note": 68, "velocity": 115, "channel": 0}, {"type": "note_off", "time": 169, "note": 68, "velocity": 115, "channel": 0}, {"type": "note_on", "time": 11, "note": 66, "velocity": 108, "channel": 0}, {"type": "note_off", "time": 95, "note": 66, "velocity": 108, "channel": 0}, {"type": "note_on", "time": 120, "note": 65, "velocity": 101, "channel": 0}, {"type": "note_off", "time": 160, "note": 65, "velocity": 101, "channel": 0}, {"type": "note_on", "time": 36, "note": 62, "velocity": 108, "channel": 0}, {"type": "note_off", "time": 79, "note": 62, "velocity": 108, "channel": 0}, {"type": "note_on", "time": 33, "note": 57, "velocity": 103, "channel": 0}, {"type": "note_off", "time": 274, "note": 57, "velocity": 103, "channel": 0}, {"type": "note_on", "time": 312, "note": 53, "velocity": 99, "channel": 0}, {"type": "note_off", "time": 56, "note": 53, "velocity": 99, "channel": 0}, {"type": "note_on", "time": 11, "note": 55, "velocity": 105, "channel": 0}, {"type": "note_off", "time": 108, "note": 55, "velocity": 105, "channel": 0}, {"type": "note_on", "time": 12, "note": 56, "velocity": 112, "channel": 0}, {"type": "note_off", "time": 57, "note": 56, "velocity": 112, "channel": 0}, {"type": "note_on", "time": 132, "note": 63, "velocity": 111, "channel": 0}, {"type": "note_off", "time": 51, "note": 63, "velocity": 111, "channel": 0}, {"type": "note_on", "time": 16, "note": 61, "velocity": 109, "channel": 0}, {"type": "note_off", "time": 92, "note": 61, "velocity": 109, "channel": 0}, {"type": "note_on", "time": 88, "note": 60, "velocity": 109, "channel": 0}, {"type": "note_off", "time": 119, "note": 60, "velocity": 109, "channel": 0}, {"type": "note_on", "time": 14, "note": 55, "velocity": 92, "channel": 0}, {"type": "note_off", "time": 239, "note": 55, "velocity": 92, "channel": 0}, {"type": "note_on", "time": 459, "note": 65, "velocity": 112, "channel": 0}, {"type": "note_off", "time": 119, "note": 65, "velocity": 112, "channel": 0}, {"type": "note_on", "time": 61, "note": 70, "velocity": 118, "channel": 0}, {"type": "note_off", "time": 106, "note": 70, "velocity": 118, "channel": 0}, {"type": "note_on", "time": 6, "note": 69, "velocity": 117, "channel": 0}, {"type": "note_off", "time": 129, "note": 69, "velocity": 117, "channel": 0}, {"type": "note_on", "time": 39, "note": 67, "velocity": 109, "channel": 0}, {"type": "note_off", "time": 52, "note": 67, "velocity": 109, "channel": 0}, {"type": "note_on", "time": 15, "note": 65, "velocity": 109, "channel": 0}, {"type": "note_off", "time": 108, "note": 65, "velocity": 109, "channel": 0}, {"type": "note_on", "time": 11, "note": 64, "velocity": 111, "channel": 0}, {"type": "note_off", "time": 57, "note": 64, "velocity": 111, "channel": 0}, {"type": "note_on", "time": 16, "note": 62, "velocity": 111, "channel": 0}, {"type": "note_off", "time": 74, "note": 62, "velocity": 111, "channel": 0}, {"type": "note_on", "time": 32, "note": 61, "velocity": 99, "channel": 0}, {"type": "note_off", "time": 50, "note": 61, "velocity": 99, "channel": 0}, {"type": "note_on", "time": 11, "note": 58, "velocity": 109, "channel": 0}, {"type": "note_off", "time": 77, "note": 58, "velocity": 109, "channel": 0}, {"type": "note_on", "time": 122, "note": 60, "velocity": 113, "channel": 0}, {"type": "note_off", "time": 88, "note": 60, "velocity": 113, "channel": 0}, {"type": "note_on", "time": 30, "note": 57, "velocity": 110, "channel": 0}, {"type": "note_off", "time": 42, "note": 57, "velocity": 110, "channel": 0}, {"type": "note_on", "time": 5, "note": 58, "velocity": 101, "channel": 0}, {"type": "note_off", "time": 83, "note": 58, "velocity": 101, "channel": 0}, {"type": "note_on", "time": 9, "note": 63, "velocity": 89, "channel": 0}, {"type": "note_off", "time": 32, "note": 63, "velocity": 89, "channel": 0}, {"type": "note_on", "time": 21, "note": 65, "velocity": 99, "channel": 0}, {"type": "note_off", "time": 65, "note": 65, "velocity": 99, "channel": 0}, {"type": "note_on", "time": 30, "note": 69, "velocity": 120, "channel": 0}, {"type": "note_off", "time": 95, "note": 69, "velocity": 120, "channel": 0}, {"type": "note_on", "time": 9, "note": 68, "velocity": 115, "channel": 0}, {"type": "note_off", "time": 65, "note": 68, "velocity": 115, "channel": 0}, {"type": "note_on", "time": 5, "note": 67, "velocity": 117, "channel": 0}, {"type": "note_off", "time": 90, "note": 67, "velocity": 117, "channel": 0}, {"type": "note_on", "time": 10, "note": 66, "velocity": 116, "channel": 0}, {"type": "note_off", "time": 78, "note": 66, "velocity": 116, "channel": 0}, {"type": "note_on", "time": 5, "note": 65, "velocity": 112, "channel": 0}, {"type": "note_off", "time": 63, "note": 65, "velocity": 112, "channel": 0}, {"type": "note_on", "time": 162, "note": 62, "velocity": 104, "channel": 0}, {"type": "note_off", "time": 55, "note": 62, "velocity": 104, "channel": 0}, {"type": "note_on", "time": 137, "note": 63, "velocity": 115, "channel": 0}, {"type": "note_off", "time": 316, "note": 63, "velocity": 115, "channel": 0}, {"type": "note_on", "time": 107, "note": 55, "velocity": 109, "channel": 0}, {"type": "note_off", "time": 131, "note": 55, "velocity": 109, "channel": 0}, {"type": "note_on", "time": 236, "note": 62, "velocity": 111, "channel": 0}, {"type": "note_off", "time": 122, "note": 62, "velocity": 111, "channel": 0}, {"type": "note_on", "time": 15, "note": 58, "velocity": 92, "channel": 0}, {"type": "note_off", "time": 28, "note": 58, "velocity": 92, "channel": 0}, {"type": "note_on", "time": 29, "note": 62, "velocity": 115, "channel": 0}, {"type": "note_off", "time": 93, "note": 62, "velocity": 115, "channel": 0}, {"type": "note_on", "time": 16, "note": 60, "velocity": 107, "channel": 0}, {"type": "note_off", "time": 315, "note": 60, "velocity": 107, "channel": 0}, {"type": "note_on", "time": 52, "note": 58, "velocity": 110, "channel": 0}, {"type": "note_off", "time": 66, "note": 58, "velocity": 110, "channel": 0}, {"type": "note_on", "time": 11, "note": 57, "velocity": 113, "channel": 0}, {"type": "note_off", "time": 61, "note": 57, "velocity": 113, "channel": 0}, {"type": "note_on", "time": 132, "note": 53, "velocity": 102, "channel": 0}, {"type": "note_off", "time": 91, "note": 53, "velocity": 102, "channel": 0}, {"type": "note_on", "time": 24, "note": 56, "velocity": 97, "channel": 0}, {"type": "note_off", "time": 70, "note": 56, "velocity": 97, "channel": 0}, {"type": "note_on", "time": 10, "note": 57, "velocity": 103, "channel": 0}, {"type": "note_off", "time": 436, "note": 57, "velocity": 103, "channel": 0}, {"type": "note_on", "time": 1536, "note": 70, "velocity": 109, "channel": 0}, {"type": "note_off", "time": 135, "note": 70, "velocity": 109, "channel": 0}, {"type": "note_on", "time": 50, "note": 68, "velocity": 124, "channel": 0}, {"type": "note_off", "time": 110, "note": 68, "velocity": 124, "channel": 0}, {"type": "note_on", "time": 9, "note": 65, "velocity": 111, "channel": 0}, {"type": "note_off", "time": 68, "note": 65, "velocity": 111, "channel": 0}, {"type": "note_on", "time": 74, "note": 63, "velocity": 109, "channel": 0}, {"type": "note_off", "time": 72, "note": 63, "velocity": 109, "channel": 0}, {"type": "note_on", "time": 10, "note": 60, "velocity": 98, "channel": 0}, {"type": "note_off", "time": 27, "note": 60, "velocity": 98, "channel": 0}, {"type": "note_on", "time": 14, "note": 58, "velocity": 110, "channel": 0}, {"type": "note_off", "time": 54, "note": 58, "velocity": 110, "channel": 0}, {"type": "note_on", "time": 36, "note": 56, "velocity": 88, "channel": 0}, {"type": "note_off", "time": 52, "note": 56, "velocity": 88, "channel": 0}, {"type": "note_on", "time": 19, "note": 60, "velocity": 98, "channel": 0}, {"type": "note_off", "time": 73, "note": 60, "velocity": 98, "channel": 0}, {"type": "note_on", "time": 9, "note": 62, "velocity": 106, "channel": 0}, {"type": "note_off", "time": 266, "note": 62, "velocity": 106, "channel": 0}, {"type": "note_on", "time": 19, "note": 65, "velocity": 114, "channel": 0}, {"type": "note_off", "time": 149, "note": 65, "velocity": 114, "channel": 0}, {"type": "note_on", "time": 984, "note": 70, "velocity": 117, "channel": 0}, {"type": "note_off", "time": 240, "note": 70, "velocity": 117, "channel": 0}, {"type": "note_on", "time": 48, "note": 67, "velocity": 127, "channel": 0}, {"type": "note_off", "time": 69, "note": 67, "velocity": 127, "channel": 0}, {"type": "note_on", "time": 10, "note": 65, "velocity": 114, "channel": 0}, {"type": "note_off", "time": 102, "note": 65, "velocity": 114, "channel": 0}, {"type": "note_on", "time": 34, "note": 63, "velocity": 107, "channel": 0}, {"type": "note_off", "time": 87, "note": 63, "velocity": 107, "channel": 0}, {"type": "note_on", "time": 69, "note": 70, "velocity": 120, "channel": 0}, {"type": "note_off", "time": 126, "note": 70, "velocity": 120, "channel": 0}, {"type": "note_on", "time": 78, "note": 70, "velocity": 114, "channel": 0}, {"type": "note_off", "time": 126, "note": 70, "velocity": 114, "channel": 0}, {"type": "note_on", "time": 19, "note": 66, "velocity": 114, "channel": 0}, {"type": "note_off", "time": 87, "note": 66, "velocity": 114, "channel": 0}, {"type": "note_on", "time": 20, "note": 65, "velocity": 110, "channel": 0}, {"type": "note_off", "time": 92, "note": 65, "velocity": 110, "channel": 0}, {"type": "note_on", "time": 21, "note": 63, "velocity": 108, "channel": 0}, {"type": "note_off", "time": 169, "note": 63, "velocity": 108, "channel": 0}, {"type": "note_on", "time": 101, "note": 61, "velocity": 107, "channel": 0}, {"type": "note_off", "time": 30, "note": 61, "velocity": 107, "channel": 0}, {"type": "note_on", "time": 5, "note": 62, "velocity": 110, "channel": 0}, {"type": "note_off", "time": 308, "note": 62, "velocity": 110, "channel": 0}, {"type": "note_on", "time": 28, "note": 65, "velocity": 110, "channel": 0}, {"type": "note_off", "time": 110, "note": 65, "velocity": 110, "channel": 0}, {"type": "note_on", "time": 324, "note": 64, "velocity": 111, "channel": 0}, {"type": "note_off", "time": 126, "note": 64, "velocity": 111, "channel": 0}, {"type": "note_on", "time": 57, "note": 67, "velocity": 118, "channel": 0}, {"type": "note_off", "time": 77, "note": 67, "velocity": 118, "channel": 0}, {"type": "note_on", "time": 14, "note": 66, "velocity": 112, "channel": 0}, {"type": "note_off", "time": 84, "note": 66, "velocity": 112, "channel": 0}, {"type": "note_on", "time": 96, "note": 63, "velocity": 111, "channel": 0}, {"type": "note_off", "time": 59, "note": 63, "velocity": 111, "channel": 0}, {"type": "note_on", "time": 9, "note": 62, "velocity": 106, "channel": 0}, {"type": "note_off", "time": 160, "note": 62, "velocity": 106, "channel": 0}, {"type": "note_on", "time": 30, "note": 60, "velocity": 114, "channel": 0}, {"type": "note_off", "time": 88, "note": 60, "velocity": 114, "channel": 0}, {"type": "note_on", "time": 20, "note": 57, "velocity": 115, "channel": 0}, {"type": "note_off", "time": 54, "note": 57, "velocity": 115, "channel": 0}, {"type": "note_on", "time": 9, "note": 58, "velocity": 105, "channel": 0}, {"type": "note_off", "time": 66, "note": 58, "velocity": 105, "channel": 0}, {"type": "note_on", "time": 20, "note": 62, "velocity": 100, "channel": 0}, {"type": "note_off", "time": 20, "note": 62, "velocity": 100, "channel": 0}, {"type": "note_on", "time": 15, "note": 65, "velocity": 104, "channel": 0}, {"type": "note_off", "time": 59, "note": 65, "velocity": 104, "channel": 0}, {"type": "note_on", "time": 20, "note": 69, "velocity": 120, "channel": 0}, {"type": "note_off", "time": 108, "note": 69, "velocity": 120, "channel": 0}, {"type": "note_on", "time": 20, "note": 72, "velocity": 121, "channel": 0}, {"type": "note_off", "time": 69, "note": 72, "velocity": 121, "channel": 0}, {"type": "note_on", "time": 5, "note": 70, "velocity": 122, "channel": 0}, {"type": "note_off", "time": 109, "note": 70, "velocity": 122, "channel": 0}, {"type": "note_on", "time": 74, "note": 65, "velocity": 100, "channel": 0}, {"type": "note_off", "time": 78, "note": 65, "velocity": 100, "channel": 0}, {"type": "note_on", "time": 38, "note": 69, "velocity": 116, "channel": 0}, {"type": "note_off", "time": 60, "note": 69, "velocity": 116, "channel": 0}, {"type": "note_on", "time": 11, "note": 67, "velocity": 113, "channel": 0}, {"type": "note_off", "time": 135, "note": 67, "velocity": 113, "channel": 0}, {"type": "note_on", "time": 14, "note": 64, "velocity": 104, "channel": 0}, {"type": "note_off", "time": 117, "note": 64, "velocity": 104, "channel": 0}, {"type": "note_on", "time": 142, "note": 58, "velocity": 98, "channel": 0}, {"type": "note_off", "time": 57, "note": 58, "velocity": 98, "channel": 0}, {"type": "note_on", "time": 14, "note": 62, "velocity": 108, "channel": 0}, {"type": "note_off", "time": 47, "note": 62, "velocity": 108, "channel": 0}, {"type": "note_on", "time": 11, "note": 60, "velocity": 115, "channel": 0}, {"type": "note_off", "time": 57, "note": 60, "velocity": 115, "channel": 0}, {"type": "note_on", "time": 58, "note": 58, "velocity": 116, "channel": 0}, {"type": "note_off", "time": 45, "note": 58, "velocity": 116, "channel": 0}, {"type": "note_on", "time": 14, "note": 57, "velocity": 109, "channel": 0}, {"type": "note_off", "time": 96, "note": 57, "velocity": 109, "channel": 0}, {"type": "note_on", "time": 13, "note": 56, "velocity": 90, "channel": 0}, {"type": "note_off", "time": 76, "note": 56, "velocity": 90, "channel": 0}, {"type": "note_on", "time": 11, "note": 53, "velocity": 101, "channel": 0}, {"type": "note_off", "time": 135, "note": 53, "velocity": 101, "channel": 0}, {"type": "note_on", "time": 24, "note": 51, "velocity": 97, "channel": 0}, {"type": "note_off", "time": 41, "note": 51, "velocity": 97, "channel": 0}, {"type": "note_on", "time": 6, "note": 50, "velocity": 94, "channel": 0}, {"type": "note_off", "time": 94, "note": 50, "velocity": 94, "channel": 0}, {"type": "note_on", "time": 21, "note": 58, "velocity": 107, "channel": 0}, {"type": "note_off", "time": 81, "note": 58, "velocity": 107, "channel": 0}, {"type": "note_on", "time": 5, "note": 61, "velocity": 102, "channel": 0}, {"type": "note_off", "time": 53, "note": 61, "velocity": 102, "channel": 0}, {"type": "note_on", "time": 7, "note": 62, "velocity": 111, "channel": 0}, {"type": "note_off", "time": 74, "note": 62, "velocity": 111, "channel": 0}, {"type": "note_on", "time": 22, "note": 60, "velocity": 99, "channel": 0}, {"type": "note_off", "time": 224, "note": 60, "velocity": 99, "channel": 0}, {"type": "note_on", "time": 805, "note": 65, "velocity": 109, "channel": 0}, {"type": "note_off", "time": 477, "note": 65, "velocity": 109, "channel": 0}, {"type": "note_on", "time": 16, "note": 62, "velocity": 106, "channel": 0}, {"type": "note_off", "time": 101, "note": 62, "velocity": 106, "channel": 0}, {"type": "note_on", "time": 119, "note": 63, "velocity": 111, "channel": 0}, {"type": "note_off", "time": 73, "note": 63, "velocity": 111, "channel": 0}, {"type": "note_on", "time": 102, "note": 67, "velocity": 119, "channel": 0}, {"type": "note_off", "time": 114, "note": 67, "velocity": 119, "channel": 0}, {"type": "note_on", "time": 15, "note": 65, "velocity": 112, "channel": 0}, {"type": "note_off", "time": 93, "note": 65, "velocity": 112, "channel": 0}, {"type": "note_on", "time": 77, "note": 64, "velocity": 109, "channel": 0}, {"type": "note_off", "time": 59, "note": 64, "velocity": 109, "channel": 0}, {"type": "note_on", "time": 13, "note": 62, "velocity": 107, "channel": 0}, {"type": "note_off", "time": 98, "note": 62, "velocity": 107, "channel": 0}, {"type": "note_on", "time": 16, "note": 60, "velocity": 104, "channel": 0}, {"type": "note_off", "time": 55, "note": 60, "velocity": 104, "channel": 0}, {"type": "note_on", "time": 9, "note": 58, "velocity": 109, "channel": 0}, {"type": "note_off", "time": 99, "note": 58, "velocity": 109, "channel": 0}, {"type": "note_on", "time": 123, "note": 57, "velocity": 108, "channel": 0}, {"type": "note_off", "time": 94, "note": 57, "velocity": 108, "channel": 0}, {"type": "note_on", "time": 19, "note": 60, "velocity": 113, "channel": 0}, {"type": "note_off", "time": 237, "note": 60, "velocity": 113, "channel": 0}, {"type": "note_on", "time": 16, "note": 57, "velocity": 104, "channel": 0}, {"type": "note_off", "time": 98, "note": 57, "velocity": 104, "channel": 0}, {"type": "note_on", "time": 30, "note": 60, "velocity": 111, "channel": 0}, {"type": "note_off", "time": 64, "note": 60, "velocity": 111, "channel": 0}, {"type": "note_on", "time": 7, "note": 59, "velocity": 101, "channel": 0}, {"type": "note_off", "time": 102, "note": 59, "velocity": 101, "channel": 0}, {"type": "note_on", "time": 18, "note": 68, "velocity": 120, "channel": 0}, {"type": "note_off", "time": 60, "note": 68, "velocity": 120, "channel": 0}, {"type": "note_on", "time": 10, "note": 67, "velocity": 116, "channel": 0}, {"type": "note_off", "time": 86, "note": 67, "velocity": 116, "channel": 0}, {"type": "note_on", "time": 10, "note": 65, "velocity": 112, "channel": 0}, {"type": "note_off", "time": 65, "note": 65, "velocity": 112, "channel": 0}, {"type": "note_on", "time": 19, "note": 63, "velocity": 112, "channel": 0}, {"type": "note_off", "time": 85, "note": 63, "velocity": 112, "channel": 0}, {"type": "note_on", "time": 121, "note": 57, "velocity": 93, "channel": 0}, {"type": "note_off", "time": 85, "note": 57, "velocity": 93, "channel": 0}, {"type": "note_on", "time": 89, "note": 62, "velocity": 117, "channel": 0}, {"type": "note_off", "time": 86, "note": 62, "velocity": 117, "channel": 0}, {"type": "note_on", "time": 30, "note": 60, "velocity": 99, "channel": 0}, {"type": "note_off", "time": 279, "note": 60, "velocity": 99, "channel": 0}, {"type": "note_on", "time": 673, "note": 73, "velocity": 116, "channel": 0}, {"type": "note_off", "time": 33, "note": 73, "velocity": 116, "channel": 0}, {"type": "note_on", "time": 2, "note": 74, "velocity": 104, "channel": 0}, {"type": "note_off", "time": 36, "note": 74, "velocity": 104, "channel": 0}, {"type": "note_on", "time": 154, "note": 72, "velocity": 108, "channel": 0}, {"type": "note_off", "time": 150, "note": 72, "velocity": 108, "channel": 0}, {"type": "note_on", "time": 15, "note": 70, "velocity": 118, "channel": 0}, {"type": "note_off", "time": 67, "note": 70, "velocity": 118, "channel": 0}, {"type": "note_on", "time": 10, "note": 68, "velocity": 122, "channel": 0}, {"type": "note_off", "time": 89, "note": 68, "velocity": 122, "channel": 0}, {"type": "note_on", "time": 7, "note": 65, "velocity": 113, "channel": 0}, {"type": "note_off", "time": 68, "note": 65, "velocity": 113, "channel": 0}, {"type": "note_on", "time": 14, "note": 63, "velocity": 106, "channel": 0}, {"type": "note_off", "time": 107, "note": 63, "velocity": 106, "channel": 0}, {"type": "note_on", "time": 98, "note": 60, "velocity": 108, "channel": 0}, {"type": "note_off", "time": 63, "note": 60, "velocity": 108, "channel": 0}, {"type": "note_on", "time": 9, "note": 62, "velocity": 109, "channel": 0}, {"type": "note_off", "time": 203, "note": 62, "velocity": 109, "channel": 0}, {"type": "note_on", "time": 41, "note": 60, "velocity": 107, "channel": 0}, {"type": "note_off", "time": 53, "note": 60, "velocity": 107, "channel": 0}, {"type": "note_on", "time": 8, "note": 59, "velocity": 111, "channel": 0}, {"type": "note_off", "time": 73, "note": 59, "velocity": 111, "channel": 0}, {"type": "note_on", "time": 32, "note": 57, "velocity": 107, "channel": 0}, {"type": "note_off", "time": 61, "note": 57, "velocity": 107, "channel": 0}, {"type": "note_on", "time": 6, "note": 55, "velocity": 107, "channel": 0}, {"type": "note_off", "time": 85, "note": 55, "velocity": 107, "channel": 0}, {"type": "note_on", "time": 107, "note": 53, "velocity": 111, "channel": 0}, {"type": "note_off", "time": 92, "note": 53, "velocity": 111, "channel": 0}, {"type": "end_of_track", "time": 0}]]}