{"ticks_per_beat": 192, "tracks": [[{"type": "track_name", "name": "Melody", "time": 0}, {"type": "set_tempo", "tempo": 382165, "time": 0}, {"type": "key_signature", "key": "Eb", "time": 0}, {"type": "time_signature", "numerator": 4, "denominator": 4, "clocks_per_click": 24, "notated_32nd_notes_per_beat": 8, "time": 0}, {"type": "note_on", "time": 888, "note": 67, "velocity": 124, "channel": 0}, {"type": "note_off", "time": 70, "note": 67, "velocity": 124, "channel": 0}, {"type": "note_on", "time": 2, "note": 70, "velocity": 122, "channel": 0}, {"type": "note_off", "time": 71, "note": 70, "velocity": 122, "channel": 0}, {"type": "note_on", "time": 2, "note": 67, "velocity": 112, "channel": 0}, {"type": "note_off", "time": 48, "note": 67, "velocity": 112, "channel": 0}, {"type": "note_on", "time": 2, "note": 68, "velocity": 122, "channel": 0}, {"type": "note_off", "time": 67, "note": 68, "velocity": 122, "channel": 0}, {"type": "note_on", "time": 11, "note": 63, "velocity": 117, "channel": 0}, {"type": "note_off", "time": 70, "note": 63, "velocity": 117, "channel": 0}, {"type": "note_on", "time": 14, "note": 59, "velocity": 97, "channel": 0}, {"type": "note_off", "time": 61, "note": 59, "velocity": 97, "channel": 0}, {"type": "note_on", "time": 207, "note": 67, "velocity": 117, "channel": 0}, {"type": "note_off", "time": 34, "note": 67, "velocity": 117, "channel": 0}, {"type": "note_on", "time": 2, "note": 68, "velocity": 116, "channel": 0}, {"type": "note_off", "time": 27, "note": 68, "velocity": 116, "channel": 0}, {"type": "note_on", "time": 3, "note": 67, "velocity": 114, "channel": 0}, {"type": "note_off", "time": 105, "note": 67, "velocity": 114, "channel": 0}, {"type": "note_on", "time": 8, "note": 65, "velocity": 113, "channel": 0}, {"type": "note_off", "time": 77, "note": 65, "velocity": 113, "channel": 0}, {"type": "note_on", "time": 20, "note": 63, "velocity": 120, "channel": 0}, {"type": "note_off", "time": 116, "note": 63, "velocity": 120, "channel": 0}, {"type": "note_on", "time": 10, "note": 60, "velocity": 108, "channel": 0}, {"type": "note_off", "time": 224, "note": 60, "velocity": 108, "channel": 0}, {"type": "note_on", "time": 11, "note": 61, "velocity": 113, "channel": 0}, {"type": "note_off", "time": 125, "note": 61, "velocity": 113, "channel": 0}, {"type": "note_on", "time": 16, "note": 58, "velocity": 96, "channel": 0}, {"type": "note_off", "time": 241, "note": 58, "velocity": 96, "channel": 0}, {"type": "note_on", "time": 33, "note": 59, "velocity": 104, "channel": 0}, {"type": "note_off", "time": 91, "note": 59, "velocity": 104, "channel": 0}, {"type": "note_on", "time": 16, "note": 55, "velocity": 108, "channel": 0}, {"type": "note_off", "time": 59, "note": 55, "velocity": 108, "channel": 0}, {"type": "note_on", "time": 4, "note": 52, "velocity": 112, "channel": 0}, {"type": "note_off", "time": 82, "note": 52, "velocity": 112, "channel": 0}, {"type": "note_on", "time": 24, "note": 50, "velocity": 108, "channel": 0}, {"type": "note_off", "time": 77, "note": 50, "velocity": 108, "channel": 0}, {"type": "note_on", "time": 1, "note": 49, "velocity": 102, "channel": 0}, {"type": "note_off", "time": 121, "note": 49, "velocity": 102, "channel": 0}, {"type": "note_on", "time": 23, "note": 60, "velocity": 108, "channel": 0}, {"type": "note_off", "time": 355, "note": 60, "velocity": 108, "channel": 0}, {"type": "note_on", "time": 8, "note": 56, "velocity": 107, "channel": 0}, {"type": "note_off", "time": 67, "note": 56, "velocity": 107, "channel": 0}, {"type": "note_on", "time": 27, "note": 53, "velocity": 107, "channel": 0}, {"type": "note_off", "time": 82, "note": 53, "velocity": 107, "channel": 0}, {"type": "note_on", "time": 8, "note": 51, "velocity": 105, "channel": 0}, {"type": "note_off", "time": 81, "note": 51, "velocity": 105, "channel": 0}, {"type": "note_on", "time": 6, "note": 50, "velocity": 101, "channel": 0}, {"type": "note_off", "time": 118, "note": 50, "velocity": 101, "channel": 0}, {"type": "note_on", "time": 8, "note": 61, "velocity": 109, "channel": 0}, {"type": "note_off", "time": 31, "note": 61, "velocity": 109, "channel": 0}, {"type": "note_on", "time": 3, "note": 62, "velocity": 119, "channel": 0}, {"type": "note_off", "time": 68, "note": 62, "velocity": 119, "channel": 0}, {"type": "note_on", "time": 97, "note": 60, "velocity": 113, "channel": 0}, {"type": "note_off", "time": 82, "note": 60, "velocity": 113, "channel": 0}, {"type": "note_on", "time": 7, "note": 58, "velocity": 100, "channel": 0}, {"type": "note_off", "time": 92, "note": 58, "velocity": 100, "channel": 0}, {"type": "note_on", "time": 20, "note": 55, "velocity": 103, "channel": 0}, {"type": "note_off", "time": 79, "note": 55, "velocity": 103, "channel": 0}, {"type": "note_on", "time": 9, "note": 53, "velocity": 98, "channel": 0}, {"type": "note_off", "time": 91, "note": 53, "velocity": 98, "channel": 0}, {"type": "note_on", "time": 5, "note": 51, "velocity": 108, "channel": 0}, {"type": "note_off", "time": 70, "note": 51, "velocity": 108, "channel": 0}, {"type": "note_on", "time": 8, "note": 56, "velocity": 103, "channel": 0}, {"type": "note_off", "time": 96, "note": 56, "velocity": 103, "channel": 0}, {"type": "note_on", "time": 16, "note": 55, "velocity": 104, "channel": 0}, {"type": "note_off", "time": 69, "note": 55, "velocity": 104, "channel": 0}, {"type": "note_on", "time": 16, "note": 53, "velocity": 98, "channel": 0}, {"type": "note_off", "time": 98, "note": 53, "velocity": 98, "channel": 0}, {"type": "note_on", "time": 2, "note": 50, "velocity": 91, "channel": 0}, {"type": "note_off", "time": 61, "note": 50, "velocity": 91, "channel": 0}, {"type": "note_on", "time": 3, "note": 51, "velocity": 101, "channel": 0}, {"type": "note_off", "time": 138, "note": 51, "velocity": 101, "channel": 0}, {"type": "note_on", "time": 8, "note": 60, "velocity": 104, "channel": 0}, {"type": "note_off", "time": 66, "note": 60, "velocity": 104, "channel": 0}, {"type": "note_on", "time": 669, "note": 55, "velocity": 112, "channel": 0}, {"type": "note_off", "time": 51, "note": 55, "velocity": 112, "channel": 0}, {"type": "note_on", "time": 2, "note": 56, "velocity": 107, "channel": 0}, {"type": "note_off", "time": 28, "note": 56, "velocity": 107, "channel": 0}, {"type": "note_on", "time": 4, "note": 58, "velocity": 107, "channel": 0}, {"type": "note_off", "time": 46, "note": 58, "velocity": 107, "channel": 0}, {"type": "note_on", "time": 2, "note": 59, "velocity": 107, "channel": 0}, {"type": "note_off", "time": 48, "note": 59, "velocity": 107, "channel": 0}, {"type": "note_on", "time": 3, "note": 61, "velocity": 113, "channel": 0}, {"type": "note_off", "time": 57, "note": 61, "velocity": 113, "channel": 0}, {"type": "note_on", "time": 0, "note": 63, "velocity": 119, "channel": 0}, {"type": "note_off", "time": 35, "note": 63, "velocity": 119, "channel": 0}, {"type": "note_on", "time": 4, "note": 66, "velocity": 116, "channel": 0}, {"type": "note_off", "time": 42, "note": 66, "velocity": 116, "channel": 0}, {"type": "note_on", "time": 8, "note": 65, "velocity": 117, "channel": 0}, {"type": "note_off", "time": 44, "note": 65, "velocity": 117, "channel": 0}, {"type": "note_on", "time": 2, "note": 63, "velocity": 118, "channel": 0}, {"type": "note_off", "time": 48, "note": 63, "velocity": 118, "channel": 0}, {"type": "note_on", "time": 4, "note": 61, "velocity": 111, "channel": 0}, {"type": "note_off", "time": 46, "note": 61, "velocity": 111, "channel": 0}, {"type": "note_on", "time": 18, "note": 59, "velocity": 104, "channel": 0}, {"type": "note_off", "time": 47, "note": 59, "velocity": 104, "channel": 0}, {"type": "note_on", "time": 4, "note": 58, "velocity": 101, "channel": 0}, {"type": "note_off", "time": 435, "note": 58, "velocity": 101, "channel": 0}, {"type": "note_on", "time": 109, "note": 64, "velocity": 123, "channel": 0}, {"type": "note_off", "time": 41, "note": 64, "velocity": 123, "channel": 0}, {"type": "note_on", "time": 1, "note": 65, "velocity": 120, "channel": 0}, {"type": "note_off", "time": 22, "note": 65, "velocity": 120, "channel": 0}, {"type": "note_on", "time": 2, "note": 64, "velocity": 120, "channel": 0}, {"type": "note_off", "time": 33, "note": 64, "velocity": 120, "channel": 0}, {"type": "note_on", "time": 5, "note": 62, "velocity": 122, "channel": 0}, {"type": "note_off", "time": 68, "note": 62, "velocity": 122, "channel": 0}, {"type": "note_on", "time": 7, "note": 61, "velocity": 108, "channel": 0}, {"type": "note_off", "time": 92, "note": 61, "velocity": 108, "channel": 0}, {"type": "note_on", "time": 18, "note": 59, "velocity": 110, "channel": 0}, {"type": "note_off", "time": 68, "note": 59, "velocity": 110, "channel": 0}, {"type": "note_on", "time": 6, "note": 58, "velocity": 103, "channel": 0}, {"type": "note_off", "time": 120, "note": 58, "velocity": 103, "channel": 0}, {"type": "note_on", "time": 23, "note": 54, "velocity": 106, "channel": 0}, {"type": "note_off", "time": 39, "note": 54, "velocity": 106, "channel": 0}, {"type": "note_on", "time": 10, "note": 56, "velocity": 108, "channel": 0}, {"type": "note_off", "time": 81, "note": 56, "velocity": 108, "channel": 0}, {"type": "note_on", "time": 8, "note": 57, "velocity": 103, "channel": 0}, {"type": "note_off", "time": 236, "note": 57, "velocity": 103, "channel": 0}, {"type": "note_on", "time": 19, "note": 53, "velocity": 102, "channel": 0}, {"type": "note_off", "time": 100, "note": 53, "velocity": 102, "channel": 0}, {"type": "note_on", "time": 38, "note": 55, "velocity": 109, "channel": 0}, {"type": "note_off", "time": 40, "note": 55, "velocity": 109, "channel": 0}, {"type": "note_on", "time": 5, "note": 56, "velocity": 103, "channel": 0}, {"type": "note_off", "time": 227, "note": 56, "velocity": 103, "channel": 0}, {"type": "note_on", "time": 15, "note": 59, "velocity": 106, "channel": 0}, {"type": "note_off", "time": 59, "note": 59, "velocity": 106, "channel": 0}, {"type": "note_on", "time": 6, "note": 54, "velocity": 110, "channel": 0}, {"type": "note_off", "time": 45, "note": 54, "velocity": 110, "channel": 0}, {"type": "note_on", "time": 9, "note": 52, "velocity": 114, "channel": 0}, {"type": "note_off", "time": 38, "note": 52, "velocity": 114, "channel": 0}, {"type": "note_on", "time": 30, "note": 51, "velocity": 101, "channel": 0}, {"type": "note_off", "time": 248, "note": 51, "velocity": 101, "channel": 0}, {"type": "note_on", "time": 1586, "note": 67, "velocity": 122, "channel": 0}, {"type": "note_off", "time": 60, "note": 67, "velocity": 122, "channel": 0}, {"type": "note_on", "time": 17, "note": 68, "velocity": 120, "channel": 0}, {"type": "note_off", "time": 64, "note": 68, "velocity": 120, "channel": 0}, {"type": "note_on", "time": 29, "note": 68, "velocity": 121, "channel": 0}, {"type": "note_off", "time": 35, "note": 68, "velocity": 121, "channel": 0}, {"type": "note_on", "time": 6, "note": 67, "velocity": 122, "channel": 0}, {"type": "note_off", "time": 43, "note": 67, "velocity": 122, "channel": 0}, {"type": "note_on", "time": 10, "note": 66, "velocity": 115, "channel": 0}, {"type": "note_off", "time": 87, "note": 66, "velocity": 115, "channel": 0}, {"type": "note_on", "time": 17, "note": 67, "velocity": 117, "channel": 0}, {"type": "note_off", "time": 56, "note": 67, "velocity": 117, "channel": 0}, {"type": "note_on", "time": 39, "note": 74, "velocity": 111, "channel": 0}, {"type": "note_off", "time": 43, "note": 74, "velocity": 111, "channel": 0}, {"type": "note_on", "time": 7, "note": 75, "velocity": 106, "channel": 0}, {"type": "note_off", "time": 71, "note": 75, "velocity": 106, "channel": 0}, {"type": "note_on", "time": 13, "note": 74, "velocity": 112, "channel": 0}, {"type": "note_off", "time": 121, "note": 74, "velocity": 112, "channel": 0}, {"type": "note_on", "time": 9, "note": 72, "velocity": 115, "channel": 0}, {"type": "note_off", "time": 15, "note": 72, "velocity": 115, "channel": 0}, {"type": "note_on", "time": 4, "note": 71, "velocity": 124, "channel": 0}, {"type": "note_off", "time": 21, "note": 71, "velocity": 124, "channel": 0}, {"type": "note_on", "time": 2, "note": 72, "velocity": 117, "channel": 0}, {"type": "note_off", "time": 325, "note": 72, "velocity": 117, "channel": 0}, {"type": "note_on", "time": 12, "note": 68, "velocity": 112, "channel": 0}, {"type": "note_off", "time": 24, "note": 68, "velocity": 112, "channel": 0}, {"type": "note_on", "time": 4, "note": 65, "velocity": 107, "channel": 0}, {"type": "note_off", "time": 17, "note": 65, "velocity": 107, "channel": 0}, {"type": "note_on", "time": 5, "note": 63, "velocity": 116, "channel": 0}, {"type": "note_off", "time": 20, "note": 63, "velocity": 116, "channel": 0}, {"type": "note_on", "time": 4, "note": 62, "velocity": 116, "channel": 0}, {"type": "note_off", "time": 34, "note": 62, "velocity": 116, "channel": 0}, {"type": "note_on", "time": 1, "note": 60, "velocity": 104, "channel": 0}, {"type": "note_off", "time": 17, "note": 60, "velocity": 104, "channel": 0}, {"type": "note_on", "time": 3, "note": 59, "velocity": 104, "channel": 0}, {"type": "note_off", "time": 243, "note": 59, "velocity": 104, "channel": 0}, {"type": "note_on", "time": 116, "note": 56, "velocity": 99, "channel": 0}, {"type": "note_off", "time": 20, "note": 56, "velocity": 99, "channel": 0}, {"type": "note_on", "time": 4, "note": 55, "velocity": 105, "channel": 0}, {"type": "note_off", "time": 24, "note": 55, "velocity": 105, "channel": 0}, {"type": "note_on", "time": 0, "note": 51, "velocity": 101, "channel": 0}, {"type": "note_off", "time": 23, "note": 51, "velocity": 101, "channel": 0}, {"type": "note_on", "time": 0, "note": 50, "velocity": 106, "channel": 0}, {"type": "note_off", "time": 42, "note": 50, "velocity": 106, "channel": 0}, {"type": "note_on", "time": 0, "note": 48, "velocity": 109, "channel": 0}, {"type": "note_off", "time": 25, "note": 48, "velocity": 109, "channel": 0}, {"type": "note_on", "time": 3, "note": 47, "velocity": 109, "channel": 0}, {"type": "note_off", "time": 57, "note": 47, "velocity": 109, "channel": 0}, {"type": "note_on", "time": 12, "note": 50, "velocity": 103, "channel": 0}, {"type": "note_off", "time": 34, "note": 50, "velocity": 103, "channel": 0}, {"type": "note_on", "time": 1, "note": 56, "velocity": 109, "channel": 0}, {"type": "note_off", "time": 37, "note": 56, "velocity": 109, "channel": 0}, {"type": "note_on", "time": 1, "note": 55, "velocity": 111, "channel": 0}, {"type": "note_off", "time": 137, "note": 55, "velocity": 111, "channel": 0}, {"type": "note_on", "time": 77, "note": 67, "velocity": 121, "channel": 0}, {"type": "note_off", "time": 79, "note": 67, "velocity": 121, "channel": 0}, {"type": "note_on", "time": 0, "note": 65, "velocity": 116, "channel": 0}, {"type": "note_off", "time": 86, "note": 65, "velocity": 116, "channel": 0}, {"type": "note_on", "time": 5, "note": 63, "velocity": 119, "channel": 0}, {"type": "note_off", "time": 88, "note": 63, "velocity": 119, "channel": 0}, {"type": "note_on", "time": 3, "note": 60, "velocity": 108, "channel": 0}, {"type": "note_off", "time": 143, "note": 60, "velocity": 108, "channel": 0}, {"type": "note_on", "time": 2, "note": 61, "velocity": 104, "channel": 0}, {"type": "note_off", "time": 28, "note": 61, "velocity": 104, "channel": 0}, {"type": "note_on", "time": 3, "note": 65, "velocity": 99, "channel": 0}, {"type": "note_off", "time": 29, "note": 65, "velocity": 99, "channel": 0}, {"type": "note_on", "time": 6, "note": 68, "velocity": 98, "channel": 0}, {"type": "note_off", "time": 39, "note": 68, "velocity": 98, "channel": 0}, {"type": "note_on", "time": 7, "note": 72, "velocity": 118, "channel": 0}, {"type": "note_off", "time": 96, "note": 72, "velocity": 118, "channel": 0}, {"type": "note_on", "time": 64, "note": 58, "velocity": 103, "channel": 0}, {"type": "note_off", "time": 151, "note": 58, "velocity": 103, "channel": 0}, {"type": "note_on", "time": 572, "note": 71, "velocity": 119, "channel": 0}, {"type": "note_off", "time": 48, "note": 71, "velocity": 119, "channel": 0}, {"type": "note_on", "time": 0, "note": 67, "velocity": 118, "channel": 0}, {"type": "note_off", "time": 57, "note": 67, "velocity": 118, "channel": 0}, {"type": "note_on", "time": 1, "note": 64, "velocity": 122, "channel": 0}, {"type": "note_off", "time": 38, "note": 64, "velocity": 122, "channel": 0}, {"type": "note_on", "time": 0, "note": 62, "velocity": 119, "channel": 0}, {"type": "note_off", "time": 37, "note": 62, "velocity": 119, "channel": 0}, {"type": "note_on", "time": 0, "note": 61, "velocity": 104, "channel": 0}, {"type": "note_off", "time": 122, "note": 61, "velocity": 104, "channel": 0}, {"type": "note_on", "time": 75, "note": 72, "velocity": 119, "channel": 0}, {"type": "note_off", "time": 42, "note": 72, "velocity": 119, "channel": 0}, {"type": "note_on", "time": 0, "note": 68, "velocity": 116, "channel": 0}, {"type": "note_off", "time": 42, "note": 68, "velocity": 116, "channel": 0}, {"type": "note_on", "time": 0, "note": 65, "velocity": 116, "channel": 0}, {"type": "note_off", "time": 43, "note": 65, "velocity": 116, "channel": 0}, {"type": "note_on", "time": 0, "note": 63, "velocity": 116, "channel": 0}, {"type": "note_off", "time": 49, "note": 63, "velocity": 116, "channel": 0}, {"type": "note_on", "time": 2, "note": 62, "velocity": 117, "channel": 0}, {"type": "note_off", "time": 133, "note": 62, "velocity": 117, "channel": 0}, {"type": "note_on", "time": 191, "note": 72, "velocity": 119, "channel": 0}, {"type": "note_off", "time": 73, "note": 72, "velocity": 119, "channel": 0}, {"type": "note_on", "time": 0, "note": 68, "velocity": 119, "channel": 0}, {"type": "note_off", "time": 109, "note": 68, "velocity": 119, "channel": 0}, {"type": "note_on", "time": 85, "note": 70, "velocity": 117, "channel": 0}, {"type": "note_off", "time": 111, "note": 70, "velocity": 117, "channel": 0}, {"type": "note_on", "time": 19, "note": 67, "velocity": 115, "channel": 0}, {"type": "note_off", "time": 102, "note": 67, "velocity": 115, "channel": 0}, {"type": "note_on", "time": 111, "note": 62, "velocity": 88, "channel": 0}, {"type": "note_off", "time": 33, "note": 62, "velocity": 88, "channel": 0}, {"type": "note_on", "time": 44, "note": 65, "velocity": 116, "channel": 0}, {"type": "note_off", "time": 52, "note": 65, "velocity": 116, "channel": 0}, {"type": "note_on", "time": 6, "note": 66, "velocity": 112, "channel": 0}, {"type": "note_off", "time": 46, "note": 66, "velocity": 112, "channel": 0}, {"type": "note_on", "time": 0, "note": 65, "velocity": 116, "channel": 0}, {"type": "note_off", "time": 32, "note": 65, "velocity": 116, "channel": 0}, {"type": "note_on", "time": 2, "note": 63, "velocity": 118, "channel": 0}, {"type": "note_off", "time": 52, "note": 63, "velocity": 118, "channel": 0}, {"type": "note_on", "time": 0, "note": 61, "velocity": 106, "channel": 0}, {"type": "note_off", "time": 91, "note": 61, "velocity": 106, "channel": 0}, {"type": "note_on", "time": 1, "note": 59, "velocity": 95, "channel": 0}, {"type": "note_off", "time": 48, "note": 59, "velocity": 95, "channel": 0}, {"type": "note_on", "time": 30, "note": 67, "velocity": 113, "channel": 0}, {"type": "note_off", "time": 77, "note": 67, "velocity": 113, "channel": 0}, {"type": "note_on", "time": 23, "note": 67, "velocity": 114, "channel": 0}, {"type": "note_off", "time": 39, "note": 67, "velocity": 114, "channel": 0}, {"type": "note_on", "time": 2, "note": 65, "velocity": 112, "channel": 0}, {"type": "note_off", "time": 33, "note": 65, "velocity": 112, "channel": 0}, {"type": "note_on", "time": 3, "note": 63, "velocity": 115, "channel": 0}, {"type": "note_off", "time": 142, "note": 63, "velocity": 115, "channel": 0}, {"type": "note_on", "time": 6, "note": 67, "velocity": 93, "channel": 0}, {"type": "note_off", "time": 40, "note": 67, "velocity": 93, "channel": 0}, {"type": "note_on", "time": 11, "note": 62, "velocity": 122, "channel": 0}, {"type": "note_off", "time": 100, "note": 62, "velocity": 122, "channel": 0}, {"type": "note_on", "time": 21, "note": 60, "velocity": 111, "channel": 0}, {"type": "note_off", "time": 46, "note": 60, "velocity": 111, "channel": 0}, {"type": "note_on", "time": 11, "note": 58, "velocity": 100, "channel": 0}, {"type": "note_off", "time": 28, "note": 58, "velocity": 100, "channel": 0}, {"type": "note_on", "time": 6, "note": 59, "velocity": 99, "channel": 0}, {"type": "note_off", "time": 32, "note": 59, "velocity": 99, "channel": 0}, {"type": "note_on", "time": 5, "note": 58, "velocity": 96, "channel": 0}, {"type": "note_off", "time": 39, "note": 58, "velocity": 96, "channel": 0}, {"type": "note_on", "time": 2, "note": 55, "velocity": 112, "channel": 0}, {"type": "note_off", "time": 48, "note": 55, "velocity": 112, "channel": 0}, {"type": "note_on", "time": 46, "note": 59, "velocity": 113, "channel": 0}, {"type": "note_off", "time": 97, "note": 59, "velocity": 113, "channel": 0}, {"type": "note_on", "time": 20, "note": 54, "velocity": 104, "channel": 0}, {"type": "note_off", "time": 37, "note": 54, "velocity": 104, "channel": 0}, {"type": "note_on", "time": 11, "note": 51, "velocity": 105, "channel": 0}, {"type": "note_off", "time": 114, "note": 51, "velocity": 105, "channel": 0}, {"type": "note_on", "time": 10, "note": 56, "velocity": 97, "channel": 0}, {"type": "note_off", "time": 261, "note": 56, "velocity": 97, "channel": 0}, {"type": "note_on", "time": 595, "note": 62, "velocity": 122, "channel": 0}, {"type": "note_off", "time": 102, "note": 62, "velocity": 122, "channel": 0}, {"type": "note_on", "time": 12, "note": 59, "velocity": 111, "channel": 0}, {"type": "note_off", "time": 69, "note": 59, "velocity": 111, "channel": 0}, {"type": "note_on", "time": 14, "note": 53, "velocity": 102, "channel": 0}, {"type": "note_off", "time": 29, "note": 53, "velocity": 102, "channel": 0}, {"type": "note_on", "time": 2, "note": 54, "velocity": 99, "channel": 0}, {"type": "note_off", "time": 65, "note": 54, "velocity": 99, "channel": 0}, {"type": "note_on", "time": 97, "note": 61, "velocity": 110, "channel": 0}, {"type": "note_off", "time": 52, "note": 61, "velocity": 110, "channel": 0}, {"type": "note_on", "time": 6, "note": 60, "velocity": 111, "channel": 0}, {"type": "note_off", "time": 52, "note": 60, "velocity": 111, "channel": 0}, {"type": "note_on", "time": 24, "note": 58, "velocity": 114, "channel": 0}, {"type": "note_off", "time": 56, "note": 58, "velocity": 114, "channel": 0}, {"type": "note_on", "time": 6, "note": 55, "velocity": 106, "channel": 0}, {"type": "note_off", "time": 108, "note": 55, "velocity": 106, "channel": 0}, {"type": "note_on", "time": 60, "note": 56, "velocity": 110, "channel": 0}, {"type": "note_off", "time": 45, "note": 56, "velocity": 110, "channel": 0}, {"type": "note_on", "time": 2, "note": 57, "velocity": 105, "channel": 0}, {"type": "note_off", "time": 255, "note": 57, "velocity": 105, "channel": 0}, {"type": "note_on", "time": 43, "note": 53, "velocity": 114, "channel": 0}, {"type": "note_off", "time": 45, "note": 53, "velocity": 114, "channel": 0}, {"type": "note_on", "time": 12, "note": 55, "velocity": 110, "channel": 0}, {"type": "note_off", "time": 27, "note": 55, "velocity": 110, "channel": 0}, {"type": "note_on", "time": 7, "note": 56, "velocity": 111, "channel": 0}, {"type": "note_off", "time": 52, "note": 56, "velocity": 111, "channel": 0}, {"type": "note_on", "time": 21, "note": 59, "velocity": 113, "channel": 0}, {"type": "note_off", "time": 72, "note": 59, "velocity": 113, "channel": 0}, {"type": "note_on", "time": 8, "note": 54, "velocity": 104, "channel": 0}, {"type": "note_off", "time": 98, "note": 54, "velocity": 104, "channel": 0}, {"type": "note_on", "time": 3, "note": 52, "velocity": 110, "channel": 0}, {"type": "note_off", "time": 75, "note": 52, "velocity": 110, "channel": 0}, {"type": "note_on", "time": 12, "note": 51, "velocity": 109, "channel": 0}, {"type": "note_off", "time": 85, "note": 51, "velocity": 109, "channel": 0}, {"type": "note_on", "time": 0, "note": 47, "velocity": 114, "channel": 0}, {"type": "note_off", "time": 93, "note": 47, "velocity": 114, "channel": 0}, {"type": "note_on", "time": 304, "note": 47, "velocity": 114, "channel": 0}, {"type": "note_off", "time": 57, "note": 47, "velocity": 114, "channel": 0}, {"type": "note_on", "time": 249, "note": 51, "velocity": 113, "channel": 0}, {"type": "note_off", "time": 80, "note": 51, "velocity": 113, "channel": 0}, {"type": "note_on", "time": 8, "note": 53, "velocity": 106, "channel": 0}, {"type": "note_off", "time": 70, "note": 53, "velocity": 106, "channel": 0}, {"type": "note_on", "time": 0, "note": 56, "velocity": 113, "channel": 0}, {"type": "note_off", "time": 128, "note": 56, "velocity": 113, "channel": 0}, {"type": "note_on", "time": 24, "note": 51, "velocity": 106, "channel": 0}, {"type": "note_off", "time": 38, "note": 51, "velocity": 106, "channel": 0}, {"type": "note_on", "time": 5, "note": 58, "velocity": 117, "channel": 0}, {"type": "note_off", "time": 102, "note": 58, "velocity": 117, "channel": 0}, {"type": "note_on", "time": 15, "note": 56, "velocity": 112, "channel": 0}, {"type": "note_off", "time": 93, "note": 56, "velocity": 112, "channel": 0}, {"type": "note_on", "time": 4, "note": 55, "velocity": 110, "channel": 0}, {"type": "note_off", "time": 86, "note": 55, "velocity": 110, "channel": 0}, {"type": "note_on", "time": 15, "note": 51, "velocity": 90, "channel": 0}, {"type": "note_off", "time": 40, "note": 51, "velocity": 90, "channel": 0}, {"type": "note_on", "time": 19, "note": 53, "velocity": 107, "channel": 0}, {"type": "note_off", "time": 211, "note": 53, "velocity": 107, "channel": 0}, {"type": "note_on", "time": 627, "note": 67, "velocity": 119, "channel": 0}, {"type": "note_off", "time": 42, "note": 67, "velocity": 119, "channel": 0}, {"type": "note_on", "time": 4, "note": 66, "velocity": 104, "channel": 0}, {"type": "note_off", "time": 32, "note": 66, "velocity": 104, "channel": 0}, {"type": "note_on", "time": 4, "note": 67, "velocity": 103, "channel": 0}, {"type": "note_off", "time": 24, "note": 67, "velocity": 103, "channel": 0}, {"type": "note_on", "time": 12, "note": 68, "velocity": 123, "channel": 0}, {"type": "note_off", "time": 71, "note": 68, "velocity": 123, "channel": 0}, {"type": "note_on", "time": 2, "note": 67, "velocity": 112, "channel": 0}, {"type": "note_off", "time": 31, "note": 67, "velocity": 112, "channel": 0}, {"type": "note_on", "time": 5, "note": 68, "velocity": 122, "channel": 0}, {"type": "note_off", "time": 32, "note": 68, "velocity": 122, "channel": 0}, {"type": "note_on", "time": 4, "note": 67, "velocity": 119, "channel": 0}, {"type": "note_off", "time": 52, "note": 67, "velocity": 119, "channel": 0}, {"type": "note_on", "time": 2, "note": 66, "velocity": 104, "channel": 0}, {"type": "note_off", "time": 37, "note": 66, "velocity": 104, "channel": 0}, {"type": "note_on", "time": 3, "note": 67, "velocity": 110, "channel": 0}, {"type": "note_off", "time": 38, "note": 67, "velocity": 110, "channel": 0}, {"type": "note_on", "time": 2, "note": 68, "velocity": 121, "channel": 0}, {"type": "note_off", "time": 44, "note": 68, "velocity": 121, "channel": 0}, {"type": "note_on", "time": 2, "note": 67, "velocity": 113, "channel": 0}, {"type": "note_off", "time": 40, "note": 67, "velocity": 113, "channel": 0}, {"type": "note_on", "time": 9, "note": 66, "velocity": 104, "channel": 0}, {"type": "note_off", "time": 40, "note": 66, "velocity": 104, "channel": 0}, {"type": "note_on", "time": 5, "note": 67, "velocity": 105, "channel": 0}, {"type": "note_off", "time": 37, "note": 67, "velocity": 105, "channel": 0}, {"type": "note_on", "time": 3, "note": 66, "velocity": 107, "channel": 0}, {"type": "note_off", "time": 40, "note": 66, "velocity": 107, "channel": 0}, {"type": "note_on", "time": 6, "note": 67, "velocity": 108, "channel": 0}, {"type": "note_off", "time": 31, "note": 67, "velocity": 108, "channel": 0}, {"type": "note_on", "time": 5, "note": 66, "velocity": 100, "channel": 0}, {"type": "note_off", "time": 26, "note": 66, "velocity": 100, "channel": 0}, {"type": "note_on", "time": 1, "note": 68, "velocity": 122, "channel": 0}, {"type": "note_off", "time": 55, "note": 68, "velocity": 122, "channel": 0}, {"type": "note_on", "time": 2, "note": 67, "velocity": 109, "channel": 0}, {"type": "note_off", "time": 41, "note": 67, "velocity": 109, "channel": 0}, {"type": "note_on", "time": 2, "note": 68, "velocity": 106, "channel": 0}, {"type": "note_off", "time": 39, "note": 68, "velocity": 106, "channel": 0}, {"type": "note_on", "time": 0, "note": 67, "velocity": 102, "channel": 0}, {"type": "note_off", "time": 36, "note": 67, "velocity": 102, "channel": 0}, {"type": "note_on", "time": 2, "note": 66, "velocity": 90, "channel": 0}, {"type": "note_off", "time": 53, "note": 66, "velocity": 90, "channel": 0}, {"type": "note_on", "time": 390, "note": 67, "velocity": 116, "channel": 0}, {"type": "note_on", "time": 52, "note": 66, "velocity": 103, "channel": 0}, {"type": "note_off", "time": 0, "note": 67, "velocity": 116, "channel": 0}, {"type": "note_off", "time": 42, "note": 66, "velocity": 103, "channel": 0}, {"type": "note_on", "time": 1, "note": 67, "velocity": 105, "channel": 0}, {"type": "note_off", "time": 47, "note": 67, "velocity": 105, "channel": 0}, {"type": "note_on", "time": 0, "note": 68, "velocity": 125, "channel": 0}, {"type": "note_off", "time": 44, "note": 68, "velocity": 125, "channel": 0}, {"type": "note_on", "time": 0, "note": 67, "velocity": 114, "channel": 0}, {"type": "note_off", "time": 50, "note": 67, "velocity": 114, "channel": 0}, {"type": "note_on", "time": 0, "note": 66, "velocity": 102, "channel": 0}, {"type": "note_on", "time": 51, "note": 67, "velocity": 103, "channel": 0}, {"type": "note_off", "time": 0, "note": 66, "velocity": 102, "channel": 0}, {"type": "note_off", "time": 45, "note": 67, "velocity": 103, "channel": 0}, {"type": "note_on", "time": 5, "note": 66, "velocity": 95, "channel": 0}, {"type": "note_off", "time": 39, "note": 66, "velocity": 95, "channel": 0}, {"type": "note_on", "time": 0, "note": 67, "velocity": 101, "channel": 0}, {"type": "note_off", "time": 46, "note": 67, "velocity": 101, "channel": 0}, {"type": "note_on", "time": 2, "note": 68, "velocity": 123, "channel": 0}, {"type": "note_off", "time": 51, "note": 68, "velocity": 123, "channel": 0}, {"type": "note_on", "time": 0, "note": 67, "velocity": 117, "channel": 0}, {"type": "note_off", "time": 48, "note": 67, "velocity": 117, "channel": 0}, {"type": "note_on", "time": 8, "note": 66, "velocity": 97, "channel": 0}, {"type": "note_off", "time": 50, "note": 66, "velocity": 97, "channel": 0}, {"type": "note_on", "time": 5, "note": 67, "velocity": 101, "channel": 0}, {"type": "note_off", "time": 43, "note": 67, "velocity": 101, "channel": 0}, {"type": "note_on", "time": 10, "note": 68, "velocity": 89, "channel": 0}, {"type": "note_off", "time": 42, "note": 68, "velocity": 89, "channel": 0}, {"type": "note_on", "time": 951, "note": 66, "velocity": 121, "channel": 0}, {"type": "note_off", "time": 50, "note": 66, "velocity": 121, "channel": 0}, {"type": "note_on", "time": 10, "note": 66, "velocity": 118, "channel": 0}, {"type": "note_off", "time": 34, "note": 66, "velocity": 118, "channel": 0}, {"type": "note_on", "time": 3, "note": 64, "velocity": 121, "channel": 0}, {"type": "note_off", "time": 60, "note": 64, "velocity": 121, "channel": 0}, {"type": "note_on", "time": 4, "note": 62, "velocity": 121, "channel": 0}, {"type": "note_off", "time": 50, "note": 62, "velocity": 121, "channel": 0}, {"type": "note_on", "time": 4, "note": 61, "velocity": 114, "channel": 0}, {"type": "note_off", "time": 44, "note": 61, "velocity": 114, "channel": 0}, {"type": "note_on", "time": 11, "note": 57, "velocity": 89, "channel": 0}, {"type": "note_off", "time": 32, "note": 57, "velocity": 89, "channel": 0}, {"type": "note_on", "time": 68, "note": 67, "velocity": 118, "channel": 0}, {"type": "note_off", "time": 38, "note": 67, "velocity": 118, "channel": 0}, {"type": "note_on", "time": 3, "note": 68, "velocity": 118, "channel": 0}, {"type": "note_off", "time": 21, "note": 68, "velocity": 118, "channel": 0}, {"type": "note_on", "time": 3, "note": 67, "velocity": 119, "channel": 0}, {"type": "note_off", "time": 53, "note": 67, "velocity": 119, "channel": 0}, {"type": "note_on", "time": 0, "note": 65, "velocity": 114, "channel": 0}, {"type": "note_off", "time": 56, "note": 65, "velocity": 114, "channel": 0}, {"type": "note_on", "time": 0, "note": 63, "velocity": 120, "channel": 0}, {"type": "note_off", "time": 58, "note": 63, "velocity": 120, "channel": 0}, {"type": "note_on", "time": 2, "note": 62, "velocity": 120, "channel": 0}, {"type": "note_off", "time": 48, "note": 62, "velocity": 120, "channel": 0}, {"type": "note_on", "time": 1, "note": 60, "velocity": 102, "channel": 0}, {"type": "note_off", "time": 32, "note": 60, "velocity": 102, "channel": 0}, {"type": "note_on", "time": 0, "note": 58, "velocity": 106, "channel": 0}, {"type": "note_off", "time": 45, "note": 58, "velocity": 106, "channel": 0}, {"type": "note_on", "time": 7, "note": 57, "velocity": 106, "channel": 0}, {"type": "note_off", "time": 24, "note": 57, "velocity": 106, "channel": 0}, {"type": "note_on", "time": 2, "note": 56, "velocity": 107, "channel": 0}, {"type": "note_off", "time": 39, "note": 56, "velocity": 107, "channel": 0}, {"type": "note_on", "time": 2, "note": 60, "velocity": 108, "channel": 0}, {"type": "note_off", "time": 44, "note": 60, "velocity": 108, "channel": 0}, {"type": "note_on", "time": 1, "note": 55, "velocity": 105, "channel": 0}, {"type": "note_off", "time": 41, "note": 55, "velocity": 105, "channel": 0}, {"type": "note_on", "time": 3, "note": 53, "velocity": 110, "channel": 0}, {"type": "note_off", "time": 38, "note": 53, "velocity": 110, "channel": 0}, {"type": "note_on", "time": 18, "note": 66, "velocity": 108, "channel": 0}, {"type": "note_off", "time": 25, "note": 66, "velocity": 108, "channel": 0}, {"type": "note_on", "time": 0, "note": 69, "velocity": 104, "channel": 0}, {"type": "note_on", "time": 31, "note": 66, "velocity": 93, "channel": 0}, {"type": "note_off", "time": 0, "note": 69, "velocity": 104, "channel": 0}, {"type": "note_off", "time": 32, "note": 66, "velocity": 93, "channel": 0}, {"type": "note_on", "time": 4, "note": 67, "velocity": 100, "channel": 0}, {"type": "note_off", "time": 45, "note": 67, "velocity": 100, "channel": 0}, {"type": "note_on", "time": 4, "note": 68, "velocity": 108, "channel": 0}, {"type": "note_off", "time": 45, "note": 68, "velocity": 108, "channel": 0}, {"type": "note_on", "time": 0, "note": 59, "velocity": 109, "channel": 0}, {"type": "note_off", "time": 40, "note": 59, "velocity": 109, "channel": 0}, {"type": "note_on", "time": 0, "note": 61, "velocity": 111, "channel": 0}, {"type": "note_off", "time": 58, "note": 61, "velocity": 111, "channel": 0}, {"type": "note_on", "time": 4, "note": 62, "velocity": 115, "channel": 0}, {"type": "note_off", "time": 48, "note": 62, "velocity": 115, "channel": 0}, {"type": "note_on", "time": 0, "note": 64, "velocity": 120, "channel": 0}, {"type": "note_off", "time": 56, "note": 64, "velocity": 120, "channel": 0}, {"type": "note_on", "time": 5, "note": 65, "velocity": 99, "channel": 0}, {"type": "note_off", "time": 43, "note": 65, "velocity": 99, "channel": 0}, {"type": "note_on", "time": 81, "note": 68, "velocity": 107, "channel": 0}, {"type": "note_off", "time": 31, "note": 68, "velocity": 107, "channel": 0}, {"type": "note_on", "time": 10, "note": 70, "velocity": 123, "channel": 0}, {"type": "note_off", "time": 58, "note": 70, "velocity": 123, "channel": 0}, {"type": "note_on", "time": 8, "note": 71, "velocity": 121, "channel": 0}, {"type": "note_off", "time": 50, "note": 71, "velocity": 121, "channel": 0}, {"type": "note_on", "time": 0, "note": 68, "velocity": 120, "channel": 0}, {"type": "note_off", "time": 47, "note": 68, "velocity": 120, "channel": 0}, {"type": "note_on", "time": 1, "note": 67, "velocity": 117, "channel": 0}, {"type": "note_off", "time": 68, "note": 67, "velocity": 117, "channel": 0}, {"type": "note_on", "time": 1, "note": 66, "velocity": 108, "channel": 0}, {"type": "note_off", "time": 65, "note": 66, "velocity": 108, "channel": 0}, {"type": "note_on", "time": 469, "note": 67, "velocity": 125, "channel": 0}, {"type": "note_off", "time": 49, "note": 67, "velocity": 125, "channel": 0}, {"type": "note_on", "time": 5, "note": 65, "velocity": 121, "channel": 0}, {"type": "note_off", "time": 36, "note": 65, "velocity": 121, "channel": 0}, {"type": "note_on", "time": 3, "note": 63, "velocity": 122, "channel": 0}, {"type": "note_off", "time": 53, "note": 63, "velocity": 122, "channel": 0}, {"type": "note_on", "time": 1, "note": 61, "velocity": 117, "channel": 0}, {"type": "note_off", "time": 50, "note": 61, "velocity": 117, "channel": 0}, {"type": "note_on", "time": 0, "note": 60, "velocity": 107, "channel": 0}, {"type": "note_off", "time": 41, "note": 60, "velocity": 107, "channel": 0}, {"type": "note_on", "time": 0, "note": 58, "velocity": 105, "channel": 0}, {"type": "note_off", "time": 52, "note": 58, "velocity": 105, "channel": 0}, {"type": "note_on", "time": 3, "note": 59, "velocity": 102, "channel": 0}, {"type": "note_off", "time": 53, "note": 59, "velocity": 102, "channel": 0}, {"type": "note_on", "time": 77, "note": 58, "velocity": 113, "channel": 0}, {"type": "note_off", "time": 39, "note": 58, "velocity": 113, "channel": 0}, {"type": "note_on", "time": 13, "note": 56, "velocity": 109, "channel": 0}, {"type": "note_off", "time": 25, "note": 56, "velocity": 109, "channel": 0}, {"type": "note_on", "time": 10, "note": 51, "velocity": 109, "channel": 0}, {"type": "note_off", "time": 39, "note": 51, "velocity": 109, "channel": 0}, {"type": "note_on", "time": 5, "note": 54, "velocity": 110, "channel": 0}, {"type": "note_off", "time": 65, "note": 54, "velocity": 110, "channel": 0}, {"type": "note_on", "time": 14, "note": 51, "velocity": 108, "channel": 0}, {"type": "note_off", "time": 65, "note": 51, "velocity": 108, "channel": 0}, {"type": "note_on", "time": 29, "note": 47, "velocity": 110, "channel": 0}, {"type": "note_off", "time": 39, "note": 47, "velocity": 110, "channel": 0}, {"type": "note_on", "time": 1, "note": 46, "velocity": 109, "channel": 0}, {"type": "note_off", "time": 38, "note": 46, "velocity": 109, "channel": 0}, {"type": "note_on", "time": 3, "note": 45, "velocity": 116, "channel": 0}, {"type": "note_off", "time": 39, "note": 45, "velocity": 116, "channel": 0}, {"type": "note_on", "time": 2, "note": 44, "velocity": 106, "channel": 0}, {"type": "note_off", "time": 37, "note": 44, "velocity": 106, "channel": 0}, {"type": "note_on", "time": 82, "note": 58, "velocity": 106, "channel": 0}, {"type": "note_off", "time": 48, "note": 58, "velocity": 106, "channel": 0}, {"type": "note_on", "time": 6, "note": 55, "velocity": 107, "channel": 0}, {"type": "note_off", "time": 43, "note": 55, "velocity": 107, "channel": 0}, {"type": "note_on", "time": 2, "note": 56, "velocity": 110, "channel": 0}, {"type": "note_off", "time": 27, "note": 56, "velocity": 110, "channel": 0}, {"type": "note_on", "time": 10, "note": 58, "velocity": 104, "channel": 0}, {"type": "note_off", "time": 27, "note": 58, "velocity": 104, "channel": 0}, {"type": "note_on", "time": 2, "note": 59, "velocity": 102, "channel": 0}, {"type": "note_off", "time": 30, "note": 59, "velocity": 102, "channel": 0}, {"type": "note_on", "time": 3, "note": 61, "velocity": 106, "channel": 0}, {"type": "note_off", "time": 34, "note": 61, "velocity": 106, "channel": 0}, {"type": "note_on", "time": 5, "note": 62, "velocity": 114, "channel": 0}, {"type": "note_off", "time": 27, "note": 62, "velocity": 114, "channel": 0}, {"type": "note_on", "time": 3, "note": 63, "velocity": 114, "channel": 0}, {"type": "note_off", "time": 20, "note": 63, "velocity": 114, "channel": 0}, {"type": "note_on", "time": 2, "note": 65, "velocity": 117, "channel": 0}, {"type": "note_off", "time": 19, "note": 65, "velocity": 117, "channel": 0}, {"type": "note_on", "time": 3, "note": 64, "velocity": 119, "channel": 0}, {"type": "note_off", "time": 67, "note": 64, "velocity": 119, "channel": 0}, {"type": "note_on", "time": 5, "note": 65, "velocity": 98, "channel": 0}, {"type": "note_off", "time": 37, "note": 65, "velocity": 98, "channel": 0}, {"type": "note_on", "time": 14, "note": 69, "velocity": 97, "channel": 0}, {"type": "note_off", "time": 33, "note": 69, "velocity": 97, "channel": 0}, {"type": "note_on", "time": 9, "note": 71, "velocity": 101, "channel": 0}, {"type": "note_off", "time": 21, "note": 71, "velocity": 101, "channel": 0}, {"type": "note_on", "time": 2, "note": 76, "velocity": 127, "channel": 0}, {"type": "note_off", "time": 43, "note": 76, "velocity": 127, "channel": 0}, {"type": "note_on", "time": 5, "note": 77, "velocity": 96, "channel": 0}, {"type": "note_off", "time": 19, "note": 77, "velocity": 96, "channel": 0}, {"type": "note_on", "time": 5, "note": 76, "velocity": 119, "channel": 0}, {"type": "note_off", "time": 49, "note": 76, "velocity": 119, "channel": 0}, {"type": "note_on", "time": 0, "note": 75, "velocity": 109, "channel": 0}, {"type": "note_off", "time": 72, "note": 75, "velocity": 109, "channel": 0}, {"type": "note_on", "time": 707, "note": 74, "velocity": 113, "channel": 0}, {"type": "note_off", "time": 74, "note": 74, "velocity": 113, "channel": 0}, {"type": "note_on", "time": 113, "note": 72, "velocity": 116, "channel": 0}, {"type": "note_off", "time": 49, "note": 72, "velocity": 116, "channel": 0}, {"type": "note_on", "time": 0, "note": 70, "velocity": 115, "channel": 0}, {"type": "note_off", "time": 47, "note": 70, "velocity": 115, "channel": 0}, {"type": "note_on", "time": 0, "note": 67, "velocity": 113, "channel": 0}, {"type": "note_off", "time": 56, "note": 67, "velocity": 113, "channel": 0}, {"type": "note_on", "time": 10, "note": 69, "velocity": 119, "channel": 0}, {"type": "note_off", "time": 64, "note": 69, "velocity": 119, "channel": 0}, {"type": "note_on", "time": 132, "note": 60, "velocity": 111, "channel": 0}, {"type": "note_off", "time": 63, "note": 60, "velocity": 111, "channel": 0}, {"type": "note_on", "time": 132, "note": 68, "velocity": 125, "channel": 0}, {"type": "note_off", "time": 65, "note": 68, "velocity": 125, "channel": 0}, {"type": "note_on", "time": 7, "note": 66, "velocity": 117, "channel": 0}, {"type": "note_off", "time": 29, "note": 66, "velocity": 117, "channel": 0}, {"type": "note_on", "time": 4, "note": 63, "velocity": 121, "channel": 0}, {"type": "note_off", "time": 44, "note": 63, "velocity": 121, "channel": 0}, {"type": "note_on", "time": 3, "note": 61, "velocity": 26, "channel": 0}, {"type": "note_off", "time": 48, "note": 61, "velocity": 26, "channel": 0}, {"type": "note_on", "time": 6, "note": 59, "velocity": 104, "channel": 0}, {"type": "note_off", "time": 196, "note": 59, "velocity": 104, "channel": 0}, {"type": "note_on", "time": 323, "note": 70, "velocity": 122, "channel": 0}, {"type": "note_off", "time": 36, "note": 70, "velocity": 122, "channel": 0}, {"type": "note_on", "time": 2, "note": 71, "velocity": 125, "channel": 0}, {"type": "note_off", "time": 54, "note": 71, "velocity": 125, "channel": 0}, {"type": "note_on", "time": 4, "note": 70, "velocity": 123, "channel": 0}, {"type": "note_off", "time": 52, "note": 70, "velocity": 123, "channel": 0}, {"type": "note_on", "time": 32, "note": 68, "velocity": 126, "channel": 0}, {"type": "note_off", "time": 80, "note": 68, "velocity": 126, "channel": 0}, {"type": "note_on", "time": 26, "note": 66, "velocity": 119, "channel": 0}, {"type": "note_off", "time": 66, "note": 66, "velocity": 119, "channel": 0}, {"type": "note_on", "time": 5, "note": 67, "velocity": 121, "channel": 0}, {"type": "note_off", "time": 43, "note": 67, "velocity": 121, "channel": 0}, {"type": "note_on", "time": 4, "note": 66, "velocity": 115, "channel": 0}, {"type": "note_off", "time": 44, "note": 66, "velocity": 115, "channel": 0}, {"type": "note_on", "time": 1, "note": 63, "velocity": 119, "channel": 0}, {"type": "note_off", "time": 71, "note": 63, "velocity": 119, "channel": 0}, {"type": "note_on", "time": 20, "note": 62, "velocity": 122, "channel": 0}, {"type": "note_off", "time": 94, "note": 62, "velocity": 122, "channel": 0}, {"type": "note_on", "time": 12, "note": 60, "velocity": 108, "channel": 0}, {"type": "note_off", "time": 59, "note": 60, "velocity": 108, "channel": 0}, {"type": "note_on", "time": 8, "note": 58, "velocity": 109, "channel": 0}, {"type": "note_off", "time": 90, "note": 58, "velocity": 109, "channel": 0}, {"type": "note_on", "time": 9, "note": 55, "velocity": 105, "channel": 0}, {"type": "note_off", "time": 74, "note": 55, "velocity": 105, "channel": 0}, {"type": "note_on", "time": 12, "note": 53, "velocity": 103, "channel": 0}, {"type": "note_off", "time": 100, "note": 53, "velocity": 103, "channel": 0}, {"type": "note_on", "time": 0, "note": 51, "velocity": 116, "channel": 0}, {"type": "note_off", "time": 83, "note": 51, "velocity": 116, "channel": 0}, {"type": "note_on", "time": 6, "note": 56, "velocity": 117, "channel": 0}, {"type": "note_off", "time": 116, "note": 56, "velocity": 117, "channel": 0}, {"type": "note_on", "time": 24, "note": 54, "velocity": 106, "channel": 0}, {"type": "note_off", "time": 42, "note": 54, "velocity": 106, "channel": 0}, {"type": "note_on", "time": 13, "note": 55, "velocity": 106, "channel": 0}, {"type": "note_off", "time": 108, "note": 55, "velocity": 106, "channel": 0}, {"type": "note_on", "time": 210, "note": 67, "velocity": 126, "channel": 0}, {"type": "note_off", "time": 68, "note": 67, "velocity": 126, "channel": 0}, {"type": "note_on", "time": 12, "note": 68, "velocity": 120, "channel": 0}, {"type": "note_off", "time": 79, "note": 68, "velocity": 120, "channel": 0}, {"type": "note_on", "time": 58, "note": 74, "velocity": 112, "channel": 0}, {"type": "note_off", "time": 33, "note": 74, "velocity": 112, "channel": 0}, {"type": "note_on", "time": 1, "note": 75, "velocity": 102, "channel": 0}, {"type": "note_off", "time": 329, "note": 75, "velocity": 102, "channel": 0}, {"type": "note_on", "time": 2, "note": 73, "velocity": 113, "channel": 0}, {"type": "note_off", "time": 31, "note": 73, "velocity": 113, "channel": 0}, {"type": "note_on", "time": 0, "note": 74, "velocity": 104, "channel": 0}, {"type": "note_off", "time": 334, "note": 74, "velocity": 104, "channel": 0}, {"type": "note_on", "time": 10, "note": 72, "velocity": 118, "channel": 0}, {"type": "note_off", "time": 43, "note": 72, "velocity": 118, "channel": 0}, {"type": "note_on", "time": 4, "note": 73, "velocity": 113, "channel": 0}, {"type": "note_off", "time": 203, "note": 73, "velocity": 113, "channel": 0}, {"type": "note_on", "time": 11, "note": 71, "velocity": 117, "channel": 0}, {"type": "note_off", "time": 28, "note": 71, "velocity": 117, "channel": 0}, {"type": "note_on", "time": 8, "note": 68, "velocity": 111, "channel": 0}, {"type": "note_off", "time": 41, "note": 68, "velocity": 111, "channel": 0}, {"type": "note_on", "time": 6, "note": 66, "velocity": 109, "channel": 0}, {"type": "note_off", "time": 18, "note": 66, "velocity": 109, "channel": 0}, {"type": "note_on", "time": 8, "note": 64, "velocity": 118, "channel": 0}, {"type": "note_off", "time": 38, "note": 64, "velocity": 118, "channel": 0}, {"type": "note_on", "time": 3, "note": 61, "velocity": 105, "channel": 0}, {"type": "note_off", "time": 58, "note": 61, "velocity": 105, "channel": 0}, {"type": "note_on", "time": 14, "note": 59, "velocity": 108, "channel": 0}, {"type": "note_off", "time": 71, "note": 59, "velocity": 108, "channel": 0}, {"type": "note_on", "time": 20, "note": 56, "velocity": 109, "channel": 0}, {"type": "note_off", "time": 43, "note": 56, "velocity": 109, "channel": 0}, {"type": "note_on", "time": 25, "note": 55, "velocity": 111, "channel": 0}, {"type": "note_off", "time": 90, "note": 55, "velocity": 111, "channel": 0}, {"type": "note_on", "time": 28, "note": 55, "velocity": 122, "channel": 0}, {"type": "note_off", "time": 32, "note": 55, "velocity": 122, "channel": 0}, {"type": "note_on", "time": 10, "note": 53, "velocity": 111, "channel": 0}, {"type": "note_off", "time": 69, "note": 53, "velocity": 111, "channel": 0}, {"type": "note_on", "time": 8, "note": 51, "velocity": 105, "channel": 0}, {"type": "note_off", "time": 91, "note": 51, "velocity": 105, "channel": 0}, {"type": "note_on", "time": 7, "note": 46, "velocity": 110, "channel": 0}, {"type": "note_off", "time": 87, "note": 46, "velocity": 110, "channel": 0}, {"type": "note_on", "time": 6, "note": 44, "velocity": 112, "channel": 0}, {"type": "note_off", "time": 105, "note": 44, "velocity": 112, "channel": 0}, {"type": "note_on", "time": 80, "note": 58, "velocity": 103, "channel": 0}, {"type": "note_off", "time": 42, "note": 58, "velocity": 103, "channel": 0}, {"type": "note_on", "time": 6, "note": 56, "velocity": 119, "channel": 0}, {"type": "note_off", "time": 77, "note": 56, "velocity": 119, "channel": 0}, {"type": "note_on", "time": 10, "note": 51, "velocity": 113, "channel": 0}, {"type": "note_off", "time": 92, "note": 51, "velocity": 113, "channel": 0}, {"type": "note_on", "time": 10, "note": 54, "velocity": 126, "channel": 0}, {"type": "note_off", "time": 86, "note": 54, "velocity": 126, "channel": 0}, {"type": "note_on", "time": 7, "note": 55, "velocity": 109, "channel": 0}, {"type": "note_off", "time": 169, "note": 55, "velocity": 109, "channel": 0}, {"type": "note_on", "time": 22, "note": 59, "velocity": 105, "channel": 0}, {"type": "note_off", "time": 90, "note": 59, "velocity": 105, "channel": 0}, {"type": "note_on", "time": 1, "note": 62, "velocity": 112, "channel": 0}, {"type": "note_off", "time": 92, "note": 62, "velocity": 112, "channel": 0}, {"type": "note_on", "time": 34, "note": 66, "velocity": 114, "channel": 0}, {"type": "note_off", "time": 120, "note": 66, "velocity": 114, "channel": 0}, {"type": "note_on", "time": 9, "note": 62, "velocity": 120, "channel": 0}, {"type": "note_off", "time": 33, "note": 62, "velocity": 120, "channel": 0}, {"type": "note_on", "time": 1, "note": 64, "velocity": 119, "channel": 0}, {"type": "note_off", "time": 98, "note": 64, "velocity": 119, "channel": 0}, {"type": "note_on", "time": 221, "note": 56, "velocity": 111, "channel": 0}, {"type": "note_off", "time": 79, "note": 56, "velocity": 111, "channel": 0}, {"type": "note_on", "time": 3, "note": 60, "velocity": 105, "channel": 0}, {"type": "note_off", "time": 59, "note": 60, "velocity": 105, "channel": 0}, {"type": "note_on", "time": 156, "note": 67, "velocity": 121, "channel": 0}, {"type": "note_off", "time": 113, "note": 67, "velocity": 121, "channel": 0}, {"type": "note_on", "time": 4, "note": 65, "velocity": 119, "channel": 0}, {"type": "note_off", "time": 46, "note": 65, "velocity": 119, "channel": 0}, {"type": "note_on", "time": 3, "note": 62, "velocity": 122, "channel": 0}, {"type": "note_off", "time": 117, "note": 62, "velocity": 122, "channel": 0}, {"type": "note_on", "time": 370, "note": 65, "velocity": 118, "channel": 0}, {"type": "note_off", "time": 52, "note": 65, "velocity": 118, "channel": 0}, {"type": "note_on", "time": 2, "note": 63, "velocity": 124, "channel": 0}, {"type": "note_off", "time": 107, "note": 63, "velocity": 124, "channel": 0}, {"type": "note_on", "time": 5, "note": 61, "velocity": 116, "channel": 0}, {"type": "note_off", "time": 66, "note": 61, "velocity": 116, "channel": 0}, {"type": "note_on", "time": 7, "note": 59, "velocity": 106, "channel": 0}, {"type": "note_off", "time": 108, "note": 59, "velocity": 106, "channel": 0}, {"type": "note_on", "time": 8, "note": 56, "velocity": 113, "channel": 0}, {"type": "note_off", "time": 87, "note": 56, "velocity": 113, "channel": 0}, {"type": "note_on", "time": 5, "note": 55, "velocity": 105, "channel": 0}, {"type": "note_off", "time": 84, "note": 55, "velocity": 105, "channel": 0}, {"type": "note_on", "time": 36, "note": 63, "velocity": 121, "channel": 0}, {"type": "note_off", "time": 58, "note": 63, "velocity": 121, "channel": 0}, {"type": "note_on", "time": 29, "note": 58, "velocity": 102, "channel": 0}, {"type": "note_off", "time": 50, "note": 58, "velocity": 102, "channel": 0}, {"type": "note_on", "time": 1, "note": 59, "velocity": 102, "channel": 0}, {"type": "note_off", "time": 52, "note": 59, "velocity": 102, "channel": 0}, {"type": "note_on", "time": 60, "note": 60, "velocity": 114, "channel": 0}, {"type": "note_off", "time": 111, "note": 60, "velocity": 114, "channel": 0}, {"type": "note_on", "time": 10, "note": 62, "velocity": 124, "channel": 0}, {"type": "note_off", "time": 72, "note": 62, "velocity": 124, "channel": 0}, {"type": "note_on", "time": 6, "note": 63, "velocity": 122, "channel": 0}, {"type": "note_off", "time": 82, "note": 63, "velocity": 122, "channel": 0}, {"type": "note_on", "time": 22, "note": 65, "velocity": 123, "channel": 0}, {"type": "note_off", "time": 58, "note": 65, "velocity": 123, "channel": 0}, {"type": "note_on", "time": 23, "note": 66, "velocity": 116, "channel": 0}, {"type": "note_off", "time": 66, "note": 66, "velocity": 116, "channel": 0}, {"type": "note_on", "time": 10, "note": 66, "velocity": 116, "channel": 0}, {"type": "note_off", "time": 36, "note": 66, "velocity": 116, "channel": 0}, {"type": "note_on", "time": 5, "note": 63, "velocity": 118, "channel": 0}, {"type": "note_off", "time": 51, "note": 63, "velocity": 118, "channel": 0}, {"type": "note_on", "time": 27, "note": 59, "velocity": 106, "channel": 0}, {"type": "note_off", "time": 80, "note": 59, "velocity": 106, "channel": 0}, {"type": "note_on", "time": 4, "note": 56, "velocity": 108, "channel": 0}, {"type": "note_off", "time": 65, "note": 56, "velocity": 108, "channel": 0}, {"type": "note_on", "time": 7, "note": 64, "velocity": 121, "channel": 0}, {"type": "note_off", "time": 27, "note": 64, "velocity": 121, "channel": 0}, {"type": "note_on", "time": 4, "note": 65, "velocity": 112, "channel": 0}, {"type": "note_off", "time": 158, "note": 65, "velocity": 112, "channel": 0}, {"type": "note_on", "time": 577, "note": 72, "velocity": 119, "channel": 0}, {"type": "note_off", "time": 29, "note": 72, "velocity": 119, "channel": 0}, {"type": "note_on", "time": 9, "note": 69, "velocity": 119, "channel": 0}, {"type": "note_off", "time": 30, "note": 69, "velocity": 119, "channel": 0}, {"type": "note_on", "time": 2, "note": 67, "velocity": 114, "channel": 0}, {"type": "note_off", "time": 33, "note": 67, "velocity": 114, "channel": 0}, {"type": "note_on", "time": 3, "note": 66, "velocity": 112, "channel": 0}, {"type": "note_off", "time": 36, "note": 66, "velocity": 112, "channel": 0}, {"type": "note_on", "time": 1, "note": 65, "velocity": 113, "channel": 0}, {"type": "note_off", "time": 26, "note": 65, "velocity": 113, "channel": 0}, {"type": "note_on", "time": 3, "note": 64, "velocity": 122, "channel": 0}, {"type": "note_off", "time": 36, "note": 64, "velocity": 122, "channel": 0}, {"type": "note_on", "time": 2, "note": 63, "velocity": 112, "channel": 0}, {"type": "note_off", "time": 27, "note": 63, "velocity": 112, "channel": 0}, {"type": "note_on", "time": 0, "note": 61, "velocity": 104, "channel": 0}, {"type": "note_off", "time": 24, "note": 61, "velocity": 104, "channel": 0}, {"type": "note_on", "time": 1, "note": 59, "velocity": 108, "channel": 0}, {"type": "note_off", "time": 27, "note": 59, "velocity": 108, "channel": 0}, {"type": "note_on", "time": 3, "note": 57, "velocity": 115, "channel": 0}, {"type": "note_off", "time": 21, "note": 57, "velocity": 115, "channel": 0}, {"type": "note_on", "time": 3, "note": 55, "velocity": 115, "channel": 0}, {"type": "note_off", "time": 28, "note": 55, "velocity": 115, "channel": 0}, {"type": "note_on", "time": 9, "note": 54, "velocity": 112, "channel": 0}, {"type": "note_off", "time": 39, "note": 54, "velocity": 112, "channel": 0}, {"type": "note_on", "time": 5, "note": 52, "velocity": 107, "channel": 0}, {"type": "note_off", "time": 39, "note": 52, "velocity": 107, "channel": 0}, {"type": "note_on", "time": 1, "note": 50, "velocity": 107, "channel": 0}, {"type": "note_off", "time": 21, "note": 50, "velocity": 107, "channel": 0}, {"type": "note_on", "time": 1, "note": 48, "velocity": 109, "channel": 0}, {"type": "note_off", "time": 34, "note": 48, "velocity": 109, "channel": 0}, {"type": "note_on", "time": 17, "note": 47, "velocity": 107, "channel": 0}, {"type": "note_off", "time": 27, "note": 47, "velocity": 107, "channel": 0}, {"type": "note_on", "time": 3, "note": 46, "velocity": 103, "channel": 0}, {"type": "note_off", "time": 78, "note": 46, "velocity": 103, "channel": 0}, {"type": "note_on", "time": 116, "note": 58, "velocity": 111, "channel": 0}, {"type": "note_off", "time": 44, "note": 58, "velocity": 111, "channel": 0}, {"type": "note_on", "time": 9, "note": 55, "velocity": 107, "channel": 0}, {"type": "note_off", "time": 51, "note": 55, "velocity": 107, "channel": 0}, {"type": "note_on", "time": 8, "note": 57, "velocity": 101, "channel": 0}, {"type": "note_off", "time": 48, "note": 57, "velocity": 101, "channel": 0}, {"type": "note_on", "time": 13, "note": 60, "velocity": 109, "channel": 0}, {"type": "note_off", "time": 49, "note": 60, "velocity": 109, "channel": 0}, {"type": "note_on", "time": 34, "note": 63, "velocity": 105, "channel": 0}, {"type": "note_off", "time": 34, "note": 63, "velocity": 105, "channel": 0}, {"type": "note_on", "time": 2, "note": 67, "velocity": 116, "channel": 0}, {"type": "note_off", "time": 30, "note": 67, "velocity": 116, "channel": 0}, {"type": "note_on", "time": 16, "note": 62, "velocity": 119, "channel": 0}, {"type": "note_off", "time": 45, "note": 62, "velocity": 119, "channel": 0}, {"type": "note_on", "time": 25, "note": 59, "velocity": 105, "channel": 0}, {"type": "note_off", "time": 28, "note": 59, "velocity": 105, "channel": 0}, {"type": "note_on", "time": 4, "note": 66, "velocity": 118, "channel": 0}, {"type": "note_off", "time": 38, "note": 66, "velocity": 118, "channel": 0}, {"type": "note_on", "time": 5, "note": 63, "velocity": 116, "channel": 0}, {"type": "note_off", "time": 113, "note": 63, "velocity": 116, "channel": 0}, {"type": "note_on", "time": 334, "note": 63, "velocity": 123, "channel": 0}, {"type": "note_off", "time": 51, "note": 63, "velocity": 123, "channel": 0}, {"type": "note_on", "time": 8, "note": 68, "velocity": 122, "channel": 0}, {"type": "note_off", "time": 35, "note": 68, "velocity": 122, "channel": 0}, {"type": "note_on", "time": 2, "note": 66, "velocity": 117, "channel": 0}, {"type": "note_off", "time": 15, "note": 66, "velocity": 117, "channel": 0}, {"type": "note_on", "time": 2, "note": 63, "velocity": 115, "channel": 0}, {"type": "note_off", "time": 55, "note": 63, "velocity": 115, "channel": 0}, {"type": "note_on", "time": 3, "note": 61, "velocity": 112, "channel": 0}, {"type": "note_off", "time": 31, "note": 61, "velocity": 112, "channel": 0}, {"type": "note_on", "time": 14, "note": 59, "velocity": 116, "channel": 0}, {"type": "note_off", "time": 36, "note": 59, "velocity": 116, "channel": 0}, {"type": "note_on", "time": 6, "note": 61, "velocity": 108, "channel": 0}, {"type": "note_off", "time": 47, "note": 61, "velocity": 108, "channel": 0}, {"type": "note_on", "time": 6, "note": 63, "velocity": 112, "channel": 0}, {"type": "note_off", "time": 44, "note": 63, "velocity": 112, "channel": 0}, {"type": "note_on", "time": 2, "note": 66, "velocity": 115, "channel": 0}, {"type": "note_off", "time": 35, "note": 66, "velocity": 115, "channel": 0}, {"type": "note_on", "time": 3, "note": 65, "velocity": 118, "channel": 0}, {"type": "note_off", "time": 51, "note": 65, "velocity": 118, "channel": 0}, {"type": "note_on", "time": 5, "note": 64, "velocity": 124, "channel": 0}, {"type": "note_off", "time": 43, "note": 64, "velocity": 124, "channel": 0}, {"type": "note_on", "time": 7, "note": 63, "velocity": 121, "channel": 0}, {"type": "note_off", "time": 48, "note": 63, "velocity": 121, "channel": 0}, {"type": "note_on", "time": 6, "note": 60, "velocity": 108, "channel": 0}, {"type": "note_off", "time": 41, "note": 60, "velocity": 108, "channel": 0}, {"type": "note_on", "time": 11, "note": 55, "velocity": 103, "channel": 0}, {"type": "note_off", "time": 29, "note": 55, "velocity": 103, "channel": 0}, {"type": "note_on", "time": 0, "note": 53, "velocity": 96, "channel": 0}, {"type": "note_off", "time": 35, "note": 53, "velocity": 96, "channel": 0}, {"type": "note_on", "time": 16, "note": 62, "velocity": 119, "channel": 0}, {"type": "note_off", "time": 57, "note": 62, "velocity": 119, "channel": 0}, {"type": "note_on", "time": 0, "note": 60, "velocity": 112, "channel": 0}, {"type": "note_off", "time": 35, "note": 60, "velocity": 112, "channel": 0}, {"type": "note_on", "time": 6, "note": 58, "velocity": 109, "channel": 0}, {"type": "note_off", "time": 39, "note": 58, "velocity": 109, "channel": 0}, {"type": "note_on", "time": 3, "note": 57, "velocity": 104, "channel": 0}, {"type": "note_off", "time": 39, "note": 57, "velocity": 104, "channel": 0}, {"type": "note_on", "time": 3, "note": 56, "velocity": 106, "channel": 0}, {"type": "note_off", "time": 45, "note": 56, "velocity": 106, "channel": 0}, {"type": "note_on", "time": 3, "note": 60, "velocity": 114, "channel": 0}, {"type": "note_off", "time": 37, "note": 60, "velocity": 114, "channel": 0}, {"type": "note_on", "time": 0, "note": 55, "velocity": 106, "channel": 0}, {"type": "note_off", "time": 49, "note": 55, "velocity": 106, "channel": 0}, {"type": "note_on", "time": 12, "note": 53, "velocity": 104, "channel": 0}, {"type": "note_off", "time": 41, "note": 53, "velocity": 104, "channel": 0}, {"type": "note_on", "time": 2, "note": 58, "velocity": 113, "channel": 0}, {"type": "note_off", "time": 39, "note": 58, "velocity": 113, "channel": 0}, {"type": "note_on", "time": 40, "note": 56, "velocity": 107, "channel": 0}, {"type": "note_off", "time": 27, "note": 56, "velocity": 107, "channel": 0}, {"type": "note_on", "time": 5, "note": 58, "velocity": 105, "channel": 0}, {"type": "note_off", "time": 42, "note": 58, "velocity": 105, "channel": 0}, {"type": "note_on", "time": 3, "note": 60, "velocity": 96, "channel": 0}, {"type": "note_off", "time": 43, "note": 60, "velocity": 96, "channel": 0}, {"type": "note_on", "time": 23, "note": 63, "velocity": 109, "channel": 0}, {"type": "note_off", "time": 23, "note": 63, "velocity": 109, "channel": 0}, {"type": "note_on", "time": 4, "note": 67, "velocity": 115, "channel": 0}, {"type": "note_off", "time": 47, "note": 67, "velocity": 115, "channel": 0}, {"type": "note_on", "time": 4, "note": 63, "velocity": 94, "channel": 0}, {"type": "note_off", "time": 32, "note": 63, "velocity": 94, "channel": 0}, {"type": "note_on", "time": 10, "note": 66, "velocity": 117, "channel": 0}, {"type": "note_off", "time": 43, "note": 66, "velocity": 117, "channel": 0}, {"type": "note_on", "time": 23, "note": 66, "velocity": 110, "channel": 0}, {"type": "note_off", "time": 32, "note": 66, "velocity": 110, "channel": 0}, {"type": "note_on", "time": 3, "note": 64, "velocity": 118, "channel": 0}, {"type": "note_off", "time": 32, "note": 64, "velocity": 118, "channel": 0}, {"type": "note_on", "time": 5, "note": 62, "velocity": 113, "channel": 0}, {"type": "note_off", "time": 36, "note": 62, "velocity": 113, "channel": 0}, {"type": "note_on", "time": 4, "note": 60, "velocity": 102, "channel": 0}, {"type": "note_off", "time": 38, "note": 60, "velocity": 102, "channel": 0}, {"type": "note_on", "time": 4, "note": 58, "velocity": 105, "channel": 0}, {"type": "note_off", "time": 36, "note": 58, "velocity": 105, "channel": 0}, {"type": "note_on", "time": 7, "note": 56, "velocity": 105, "channel": 0}, {"type": "note_off", "time": 33, "note": 56, "velocity": 105, "channel": 0}, {"type": "note_on", "time": 13, "note": 55, "velocity": 107, "channel": 0}, {"type": "note_off", "time": 27, "note": 55, "velocity": 107, "channel": 0}, {"type": "note_on", "time": 0, "note": 57, "velocity": 104, "channel": 0}, {"type": "note_off", "time": 17, "note": 57, "velocity": 104, "channel": 0}, {"type": "note_on", "time": 1, "note": 58, "velocity": 101, "channel": 0}, {"type": "note_off", "time": 33, "note": 58, "velocity": 101, "channel": 0}, {"type": "note_on", "time": 104, "note": 51, "velocity": 109, "channel": 0}, {"type": "note_off", "time": 65, "note": 51, "velocity": 109, "channel": 0}, {"type": "note_on", "time": 225, "note": 67, "velocity": 123, "channel": 0}, {"type": "note_off", "time": 61, "note": 67, "velocity": 123, "channel": 0}, {"type": "note_on", "time": 3, "note": 65, "velocity": 117, "channel": 0}, {"type": "note_off", "time": 96, "note": 65, "velocity": 117, "channel": 0}, {"type": "note_on", "time": 24, "note": 63, "velocity": 119, "channel": 0}, {"type": "note_off", "time": 103, "note": 63, "velocity": 119, "channel": 0}, {"type": "note_on", "time": 358, "note": 67, "velocity": 118, "channel": 0}, {"type": "note_off", "time": 122, "note": 67, "velocity": 118, "channel": 0}, {"type": "note_on", "time": 1, "note": 65, "velocity": 104, "channel": 0}, {"type": "note_off", "time": 39, "note": 65, "velocity": 104, "channel": 0}, {"type": "note_on", "time": 16, "note": 65, "velocity": 114, "channel": 0}, {"type": "note_off", "time": 18, "note": 65, "velocity": 114, "channel": 0}, {"type": "note_on", "time": 5, "note": 67, "velocity": 122, "channel": 0}, {"type": "note_off", "time": 73, "note": 67, "velocity": 122, "channel": 0}, {"type": "note_on", "time": 122, "note": 70, "velocity": 117, "channel": 0}, {"type": "note_off", "time": 111, "note": 70, "velocity": 117, "channel": 0}, {"type": "note_on", "time": 4, "note": 68, "velocity": 105, "channel": 0}, {"type": "note_off", "time": 47, "note": 68, "velocity": 105, "channel": 0}, {"type": "note_on", "time": 10, "note": 70, "velocity": 118, "channel": 0}, {"type": "note_off", "time": 405, "note": 70, "velocity": 118, "channel": 0}, {"type": "note_on", "time": 79, "note": 67, "velocity": 121, "channel": 0}, {"type": "note_off", "time": 103, "note": 67, "velocity": 121, "channel": 0}, {"type": "note_on", "time": 2, "note": 70, "velocity": 119, "channel": 0}, {"type": "note_off", "time": 32, "note": 70, "velocity": 119, "channel": 0}, {"type": "note_on", "time": 4, "note": 67, "velocity": 118, "channel": 0}, {"type": "note_off", "time": 41, "note": 67, "velocity": 118, "channel": 0}, {"type": "note_on", "time": 4, "note": 65, "velocity": 117, "channel": 0}, {"type": "note_off", "time": 36, "note": 65, "velocity": 117, "channel": 0}, {"type": "note_on", "time": 4, "note": 63, "velocity": 125, "channel": 0}, {"type": "note_off", "time": 51, "note": 63, "velocity": 125, "channel": 0}, {"type": "note_on", "time": 2, "note": 67, "velocity": 119, "channel": 0}, {"type": "note_off", "time": 33, "note": 67, "velocity": 119, "channel": 0}, {"type": "note_on", "time": 2, "note": 65, "velocity": 118, "channel": 0}, {"type": "note_off", "time": 33, "note": 65, "velocity": 118, "channel": 0}, {"type": "note_on", "time": 2, "note": 61, "velocity": 107, "channel": 0}, {"type": "note_off", "time": 57, "note": 61, "velocity": 107, "channel": 0}, {"type": "note_on", "time": 38, "note": 65, "velocity": 116, "channel": 0}, {"type": "note_off", "time": 71, "note": 65, "velocity": 116, "channel": 0}, {"type": "note_on", "time": 0, "note": 68, "velocity": 119, "channel": 0}, {"type": "note_off", "time": 46, "note": 68, "velocity": 119, "channel": 0}, {"type": "note_on", "time": 3, "note": 66, "velocity": 114, "channel": 0}, {"type": "note_off", "time": 52, "note": 66, "velocity": 114, "channel": 0}, {"type": "note_on", "time": 17, "note": 61, "velocity": 112, "channel": 0}, {"type": "note_on", "time": 59, "note": 58, "velocity": 106, "channel": 0}, {"type": "note_off", "time": 0, "note": 61, "velocity": 112, "channel": 0}, {"type": "note_off", "time": 79, "note": 58, "velocity": 106, "channel": 0}, {"type": "note_on", "time": 240, "note": 66, "velocity": 119, "channel": 0}, {"type": "note_off", "time": 30, "note": 66, "velocity": 119, "channel": 0}, {"type": "note_on", "time": 4, "note": 69, "velocity": 119, "channel": 0}, {"type": "note_off", "time": 34, "note": 69, "velocity": 119, "channel": 0}, {"type": "note_on", "time": 2, "note": 67, "velocity": 117, "channel": 0}, {"type": "note_off", "time": 41, "note": 67, "velocity": 117, "channel": 0}, {"type": "note_on", "time": 3, "note": 64, "velocity": 117, "channel": 0}, {"type": "note_off", "time": 26, "note": 64, "velocity": 117, "channel": 0}, {"type": "note_on", "time": 1, "note": 62, "velocity": 121, "channel": 0}, {"type": "note_off", "time": 49, "note": 62, "velocity": 121, "channel": 0}, {"type": "note_on", "time": 4, "note": 66, "velocity": 114, "channel": 0}, {"type": "note_off", "time": 36, "note": 66, "velocity": 114, "channel": 0}, {"type": "note_on", "time": 4, "note": 64, "velocity": 117, "channel": 0}, {"type": "note_off", "time": 53, "note": 64, "velocity": 117, "channel": 0}, {"type": "note_on", "time": 2, "note": 61, "velocity": 108, "channel": 0}, {"type": "note_off", "time": 30, "note": 61, "velocity": 108, "channel": 0}, {"type": "note_on", "time": 5, "note": 59, "velocity": 105, "channel": 0}, {"type": "note_off", "time": 83, "note": 59, "velocity": 105, "channel": 0}, {"type": "note_on", "time": 28, "note": 67, "velocity": 120, "channel": 0}, {"type": "note_off", "time": 80, "note": 67, "velocity": 120, "channel": 0}, {"type": "note_on", "time": 5, "note": 70, "velocity": 116, "channel": 0}, {"type": "note_off", "time": 36, "note": 70, "velocity": 116, "channel": 0}, {"type": "note_on", "time": 1, "note": 68, "velocity": 121, "channel": 0}, {"type": "note_off", "time": 34, "note": 68, "velocity": 121, "channel": 0}, {"type": "note_on", "time": 2, "note": 65, "velocity": 116, "channel": 0}, {"type": "note_off", "time": 41, "note": 65, "velocity": 116, "channel": 0}, {"type": "note_on", "time": 1, "note": 63, "velocity": 117, "channel": 0}, {"type": "note_off", "time": 29, "note": 63, "velocity": 117, "channel": 0}, {"type": "note_on", "time": 2, "note": 67, "velocity": 117, "channel": 0}, {"type": "note_off", "time": 37, "note": 67, "velocity": 117, "channel": 0}, {"type": "note_on", "time": 2, "note": 65, "velocity": 113, "channel": 0}, {"type": "note_off", "time": 35, "note": 65, "velocity": 113, "channel": 0}, {"type": "note_on", "time": 0, "note": 60, "velocity": 106, "channel": 0}, {"type": "note_off", "time": 57, "note": 60, "velocity": 106, "channel": 0}, {"type": "note_on", "time": 2, "note": 63, "velocity": 114, "channel": 0}, {"type": "note_off", "time": 33, "note": 63, "velocity": 114, "channel": 0}, {"type": "note_on", "time": 1, "note": 62, "velocity": 116, "channel": 0}, {"type": "note_off", "time": 39, "note": 62, "velocity": 116, "channel": 0}, {"type": "note_on", "time": 3, "note": 58, "velocity": 103, "channel": 0}, {"type": "note_off", "time": 23, "note": 58, "velocity": 103, "channel": 0}, {"type": "note_on", "time": 0, "note": 56, "velocity": 112, "channel": 0}, {"type": "note_off", "time": 52, "note": 56, "velocity": 112, "channel": 0}, {"type": "note_on", "time": 2, "note": 60, "velocity": 100, "channel": 0}, {"type": "note_off", "time": 38, "note": 60, "velocity": 100, "channel": 0}, {"type": "note_on", "time": 2, "note": 55, "velocity": 102, "channel": 0}, {"type": "note_off", "time": 26, "note": 55, "velocity": 102, "channel": 0}, {"type": "note_on", "time": 4, "note": 53, "velocity": 101, "channel": 0}, {"type": "note_off", "time": 35, "note": 53, "velocity": 101, "channel": 0}, {"type": "note_on", "time": 5, "note": 56, "velocity": 99, "channel": 0}, {"type": "note_off", "time": 29, "note": 56, "velocity": 99, "channel": 0}, {"type": "note_on", "time": 0, "note": 55, "velocity": 100, "channel": 0}, {"type": "note_off", "time": 24, "note": 55, "velocity": 100, "channel": 0}, {"type": "note_on", "time": 4, "note": 53, "velocity": 107, "channel": 0}, {"type": "note_off", "time": 18, "note": 53, "velocity": 107, "channel": 0}, {"type": "note_on", "time": 0, "note": 51, "velocity": 104, "channel": 0}, {"type": "note_off", "time": 43, "note": 51, "velocity": 104, "channel": 0}, {"type": "note_on", "time": 4, "note": 53, "velocity": 111, "channel": 0}, {"type": "note_off", "time": 23, "note": 53, "velocity": 111, "channel": 0}, {"type": "note_on", "time": 12, "note": 51, "velocity": 117, "channel": 0}, {"type": "note_off", "time": 26, "note": 51, "velocity": 117, "channel": 0}, {"type": "note_on", "time": 3, "note": 50, "velocity": 113, "channel": 0}, {"type": "note_off", "time": 39, "note": 50, "velocity": 113, "channel": 0}, {"type": "note_on", "time": 2, "note": 48, "velocity": 109, "channel": 0}, {"type": "note_off", "time": 22, "note": 48, "velocity": 109, "channel": 0}, {"type": "note_on", "time": 5, "note": 46, "velocity": 103, "channel": 0}, {"type": "note_off", "time": 74, "note": 46, "velocity": 103, "channel": 0}, {"type": "note_on", "time": 753, "note": 67, "velocity": 118, "channel": 0}, {"type": "note_off", "time": 75, "note": 67, "velocity": 118, "channel": 0}, {"type": "note_on", "time": 4, "note": 72, "velocity": 123, "channel": 0}, {"type": "note_off", "time": 122, "note": 72, "velocity": 123, "channel": 0}, {"type": "note_on", "time": 0, "note": 74, "velocity": 113, "channel": 0}, {"type": "note_off", "time": 328, "note": 74, "velocity": 113, "channel": 0}, {"type": "note_on", "time": 57, "note": 67, "velocity": 113, "channel": 0}, {"type": "note_off", "time": 71, "note": 67, "velocity": 113, "channel": 0}, {"type": "note_on", "time": 6, "note": 71, "velocity": 122, "channel": 0}, {"type": "note_off", "time": 113, "note": 71, "velocity": 122, "channel": 0}, {"type": "note_on", "time": 4, "note": 74, "velocity": 116, "channel": 0}, {"type": "note_off", "time": 30, "note": 74, "velocity": 116, "channel": 0}, {"type": "note_on", "time": 6, "note": 75, "velocity": 113, "channel": 0}, {"type": "note_off", "time": 233, "note": 75, "velocity": 113, "channel": 0}, {"type": "note_on", "time": 4, "note": 73, "velocity": 118, "channel": 0}, {"type": "note_off", "time": 164, "note": 73, "velocity": 118, "channel": 0}, {"type": "note_on", "time": 13, "note": 70, "velocity": 117, "channel": 0}, {"type": "note_off", "time": 27, "note": 70, "velocity": 117, "channel": 0}, {"type": "note_on", "time": 3, "note": 71, "velocity": 124, "channel": 0}, {"type": "note_off", "time": 102, "note": 71, "velocity": 124, "channel": 0}, {"type": "note_on", "time": 1, "note": 70, "velocity": 117, "channel": 0}, {"type": "note_off", "time": 25, "note": 70, "velocity": 117, "channel": 0}, {"type": "note_on", "time": 2, "note": 69, "velocity": 121, "channel": 0}, {"type": "note_off", "time": 32, "note": 69, "velocity": 121, "channel": 0}, {"type": "note_on", "time": 1, "note": 70, "velocity": 112, "channel": 0}, {"type": "note_off", "time": 145, "note": 70, "velocity": 112, "channel": 0}, {"type": "note_on", "time": 1, "note": 71, "velocity": 110, "channel": 0}, {"type": "note_off", "time": 17, "note": 71, "velocity": 110, "channel": 0}, {"type": "note_on", "time": 3, "note": 67, "velocity": 113, "channel": 0}, {"type": "note_off", "time": 17, "note": 67, "velocity": 113, "channel": 0}, {"type": "note_on", "time": 3, "note": 65, "velocity": 111, "channel": 0}, {"type": "note_off", "time": 18, "note": 65, "velocity": 111, "channel": 0}, {"type": "note_on", "time": 4, "note": 64, "velocity": 121, "channel": 0}, {"type": "note_off", "time": 98, "note": 64, "velocity": 121, "channel": 0}, {"type": "note_on", "time": 12, "note": 59, "velocity": 111, "channel": 0}, {"type": "note_off", "time": 80, "note": 59, "velocity": 111, "channel": 0}, {"type": "note_on", "time": 1, "note": 58, "velocity": 104, "channel": 0}, {"type": "note_off", "time": 105, "note": 58, "velocity": 104, "channel": 0}, {"type": "note_on", "time": 10, "note": 54, "velocity": 103, "channel": 0}, {"type": "note_off", "time": 30, "note": 54, "velocity": 103, "channel": 0}, {"type": "note_on", "time": 10, "note": 56, "velocity": 104, "channel": 0}, {"type": "note_off", "time": 103, "note": 56, "velocity": 104, "channel": 0}, {"type": "note_on", "time": 15, "note": 56, "velocity": 114, "channel": 0}, {"type": "note_off", "time": 21, "note": 56, "velocity": 114, "channel": 0}, {"type": "note_on", "time": 3, "note": 57, "velocity": 104, "channel": 0}, {"type": "note_off", "time": 193, "note": 57, "velocity": 104, "channel": 0}, {"type": "note_on", "time": 30, "note": 60, "velocity": 101, "channel": 0}, {"type": "note_off", "time": 42, "note": 60, "velocity": 101, "channel": 0}, {"type": "note_on", "time": 7, "note": 63, "velocity": 107, "channel": 0}, {"type": "note_off", "time": 53, "note": 63, "velocity": 107, "channel": 0}, {"type": "note_on", "time": 29, "note": 67, "velocity": 94, "channel": 0}, {"type": "note_off", "time": 24, "note": 67, "velocity": 94, "channel": 0}, {"type": "note_on", "time": 18, "note": 70, "velocity": 93, "channel": 0}, {"type": "note_off", "time": 36, "note": 70, "velocity": 93, "channel": 0}, {"type": "note_on", "time": 14, "note": 74, "velocity": 113, "channel": 0}, {"type": "note_off", "time": 91, "note": 74, "velocity": 113, "channel": 0}, {"type": "note_on", "time": 6, "note": 72, "velocity": 118, "channel": 0}, {"type": "note_off", "time": 75, "note": 72, "velocity": 118, "channel": 0}, {"type": "note_on", "time": 11, "note": 67, "velocity": 117, "channel": 0}, {"type": "note_off", "time": 101, "note": 67, "velocity": 117, "channel": 0}, {"type": "note_on", "time": 4, "note": 66, "velocity": 104, "channel": 0}, {"type": "note_off", "time": 58, "note": 66, "velocity": 104, "channel": 0}, {"type": "note_on", "time": 13, "note": 71, "velocity": 117, "channel": 0}, {"type": "note_off", "time": 49, "note": 71, "velocity": 117, "channel": 0}, {"type": "note_on", "time": 2, "note": 72, "velocity": 116, "channel": 0}, {"type": "note_off", "time": 30, "note": 72, "velocity": 116, "channel": 0}, {"type": "note_on", "time": 2, "note": 73, "velocity": 111, "channel": 0}, {"type": "note_off", "time": 53, "note": 73, "velocity": 111, "channel": 0}, {"type": "note_on", "time": 21, "note": 69, "velocity": 107, "channel": 0}, {"type": "note_off", "time": 68, "note": 69, "velocity": 107, "channel": 0}, {"type": "note_on", "time": 1, "note": 68, "velocity": 110, "channel": 0}, {"type": "note_off", "time": 64, "note": 68, "velocity": 110, "channel": 0}, {"type": "note_on", "time": 21, "note": 66, "velocity": 116, "channel": 0}, {"type": "note_off", "time": 72, "note": 66, "velocity": 116, "channel": 0}, {"type": "note_on", "time": 6, "note": 64, "velocity": 122, "channel": 0}, {"type": "note_off", "time": 96, "note": 64, "velocity": 122, "channel": 0}, {"type": "note_on", "time": 3, "note": 63, "velocity": 120, "channel": 0}, {"type": "note_off", "time": 88, "note": 63, "velocity": 120, "channel": 0}, {"type": "note_on", "time": 6, "note": 61, "velocity": 109, "channel": 0}, {"type": "note_off", "time": 96, "note": 61, "velocity": 109, "channel": 0}, {"type": "note_on", "time": 2, "note": 59, "velocity": 109, "channel": 0}, {"type": "note_off", "time": 85, "note": 59, "velocity": 109, "channel": 0}, {"type": "note_on", "time": 0, "note": 57, "velocity": 102, "channel": 0}, {"type": "note_off", "time": 111, "note": 57, "velocity": 102, "channel": 0}, {"type": "note_on", "time": 7, "note": 54, "velocity": 97, "channel": 0}, {"type": "note_off", "time": 35, "note": 54, "velocity": 97, "channel": 0}, {"type": "note_on", "time": 15, "note": 56, "velocity": 103, "channel": 0}, {"type": "note_off", "time": 284, "note": 56, "velocity": 103, "channel": 0}, {"type": "note_on", "time": 207, "note": 58, "velocity": 112, "channel": 0}, {"type": "note_off", "time": 35, "note": 58, "velocity": 112, "channel": 0}, {"type": "note_on", "time": 11, "note": 56, "velocity": 114, "channel": 0}, {"type": "note_off", "time": 30, "note": 56, "velocity": 114, "channel": 0}, {"type": "note_on", "time": 4, "note": 55, "velocity": 114, "channel": 0}, {"type": "note_off", "time": 111, "note": 55, "velocity": 114, "channel": 0}, {"type": "note_on", "time": 30, "note": 51, "velocity": 101, "channel": 0}, {"type": "note_off", "time": 69, "note": 51, "velocity": 101, "channel": 0}, {"type": "note_on", "time": 175, "note": 58, "velocity": 109, "channel": 0}, {"type": "note_off", "time": 30, "note": 58, "velocity": 109, "channel": 0}, {"type": "note_on", "time": 3, "note": 59, "velocity": 102, "channel": 0}, {"type": "note_off", "time": 44, "note": 59, "velocity": 102, "channel": 0}, {"type": "note_on", "time": 4, "note": 58, "velocity": 104, "channel": 0}, {"type": "note_off", "time": 33, "note": 58, "velocity": 104, "channel": 0}, {"type": "note_on", "time": 6, "note": 55, "velocity": 103, "channel": 0}, {"type": "note_off", "time": 76, "note": 55, "velocity": 103, "channel": 0}, {"type": "note_on", "time": 5, "note": 56, "velocity": 104, "channel": 0}, {"type": "note_off", "time": 90, "note": 56, "velocity": 104, "channel": 0}, {"type": "note_on", "time": 10, "note": 58, "velocity": 107, "channel": 0}, {"type": "note_off", "time": 99, "note": 58, "velocity": 107, "channel": 0}, {"type": "note_on", "time": 2, "note": 59, "velocity": 106, "channel": 0}, {"type": "note_off", "time": 85, "note": 59, "velocity": 106, "channel": 0}, {"type": "note_on", "time": 19, "note": 61, "velocity": 107, "channel": 0}, {"type": "note_off", "time": 68, "note": 61, "velocity": 107, "channel": 0}, {"type": "note_on", "time": 0, "note": 62, "velocity": 115, "channel": 0}, {"type": "note_off", "time": 118, "note": 62, "velocity": 115, "channel": 0}, {"type": "note_on", "time": 2, "note": 64, "velocity": 120, "channel": 0}, {"type": "note_off", "time": 79, "note": 64, "velocity": 120, "channel": 0}, {"type": "note_on", "time": 5, "note": 65, "velocity": 114, "channel": 0}, {"type": "note_off", "time": 101, "note": 65, "velocity": 114, "channel": 0}, {"type": "note_on", "time": 1, "note": 67, "velocity": 118, "channel": 0}, {"type": "note_off", "time": 60, "note": 67, "velocity": 118, "channel": 0}, {"type": "note_on", "time": 25, "note": 68, "velocity": 118, "channel": 0}, {"type": "note_off", "time": 108, "note": 68, "velocity": 118, "channel": 0}, {"type": "note_on", "time": 6, "note": 66, "velocity": 119, "channel": 0}, {"type": "note_off", "time": 21, "note": 66, "velocity": 119, "channel": 0}, {"type": "note_on", "time": 3, "note": 67, "velocity": 113, "channel": 0}, {"type": "note_off", "time": 208, "note": 67, "velocity": 113, "channel": 0}, {"type": "note_on", "time": 13, "note": 63, "velocity": 113, "channel": 0}, {"type": "note_off", "time": 116, "note": 63, "velocity": 113, "channel": 0}, {"type": "note_on", "time": 1, "note": 56, "velocity": 97, "channel": 0}, {"type": "note_off", "time": 199, "note": 56, "velocity": 97, "channel": 0}, {"type": "end_of_track", "time": 0}]]}