{"ticks_per_beat": 840, "tracks": [[{"type": "track_name", "name": "Melody", "time": 0}, {"type": "set_tempo", "tempo": 392156, "time": 0}, {"type": "key_signature", "key": "Eb", "time": 0}, {"type": "time_signature", "numerator": 4, "denominator": 4, "clocks_per_click": 24, "notated_32nd_notes_per_beat": 8, "time": 0}, {"type": "note_on", "time": 9288, "note": 63, "velocity": 121, "channel": 0}, {"type": "note_off", "time": 385, "note": 63, "velocity": 121, "channel": 0}, {"type": "note_on", "time": 49, "note": 63, "velocity": 124, "channel": 0}, {"type": "note_off", "time": 373, "note": 63, "velocity": 124, "channel": 0}, {"type": "note_on", "time": 0, "note": 65, "velocity": 122, "channel": 0}, {"type": "note_off", "time": 186, "note": 65, "velocity": 122, "channel": 0}, {"type": "note_on", "time": 0, "note": 67, "velocity": 119, "channel": 0}, {"type": "note_off", "time": 310, "note": 67, "velocity": 119, "channel": 0}, {"type": "note_on", "time": 62, "note": 63, "velocity": 118, "channel": 0}, {"type": "note_off", "time": 4513, "note": 63, "velocity": 118, "channel": 0}, {"type": "note_on", "time": 24, "note": 61, "velocity": 115, "channel": 0}, {"type": "note_off", "time": 211, "note": 61, "velocity": 115, "channel": 0}, {"type": "note_on", "time": 0, "note": 58, "velocity": 109, "channel": 0}, {"type": "note_off", "time": 323, "note": 58, "velocity": 109, "channel": 0}, {"type": "note_on", "time": 37, "note": 61, "velocity": 116, "channel": 0}, {"type": "note_off", "time": 236, "note": 61, "velocity": 116, "channel": 0}, {"type": "note_on", "time": 24, "note": 63, "velocity": 120, "channel": 0}, {"type": "note_off", "time": 236, "note": 63, "velocity": 120, "channel": 0}, {"type": "note_on", "time": 12, "note": 65, "velocity": 123, "channel": 0}, {"type": "note_off", "time": 310, "note": 65, "velocity": 123, "channel": 0}, {"type": "note_on", "time": 410, "note": 58, "velocity": 106, "channel": 0}, {"type": "note_off", "time": 248, "note": 58, "velocity": 106, "channel": 0}, {"type": "note_on", "time": 335, "note": 63, "velocity": 119, "channel": 0}, {"type": "note_off", "time": 236, "note": 63, "velocity": 119, "channel": 0}, {"type": "note_on", "time": 74, "note": 65, "velocity": 118, "channel": 0}, {"type": "note_off", "time": 310, "note": 65, "velocity": 118, "channel": 0}, {"type": "note_on", "time": 248, "note": 66, "velocity": 119, "channel": 0}, {"type": "note_off", "time": 198, "note": 66, "velocity": 119, "channel": 0}, {"type": "note_on", "time": 37, "note": 67, "velocity": 120, "channel": 0}, {"type": "note_off", "time": 236, "note": 67, "velocity": 120, "channel": 0}, {"type": "note_on", "time": 12, "note": 63, "velocity": 122, "channel": 0}, {"type": "note_off", "time": 2300, "note": 63, "velocity": 122, "channel": 0}, {"type": "note_on", "time": 409, "note": 61, "velocity": 118, "channel": 0}, {"type": "note_off", "time": 332, "note": 61, "velocity": 118, "channel": 0}, {"type": "note_on", "time": 17, "note": 58, "velocity": 107, "channel": 0}, {"type": "note_off", "time": 288, "note": 58, "velocity": 107, "channel": 0}, {"type": "note_on", "time": 69, "note": 61, "velocity": 115, "channel": 0}, {"type": "note_off", "time": 323, "note": 61, "velocity": 115, "channel": 0}, {"type": "note_on", "time": 34, "note": 58, "velocity": 107, "channel": 0}, {"type": "note_off", "time": 262, "note": 58, "velocity": 107, "channel": 0}, {"type": "note_on", "time": 0, "note": 56, "velocity": 110, "channel": 0}, {"type": "note_on", "time": 288, "note": 58, "velocity": 105, "channel": 0}, {"type": "note_off", "time": 0, "note": 56, "velocity": 110, "channel": 0}, {"type": "note_off", "time": 218, "note": 58, "velocity": 105, "channel": 0}, {"type": "note_on", "time": 96, "note": 54, "velocity": 106, "channel": 0}, {"type": "note_off", "time": 209, "note": 54, "velocity": 106, "channel": 0}, {"type": "note_on", "time": 0, "note": 55, "velocity": 105, "channel": 0}, {"type": "note_off", "time": 262, "note": 55, "velocity": 105, "channel": 0}, {"type": "note_on", "time": 78, "note": 51, "velocity": 96, "channel": 0}, {"type": "note_off", "time": 2211, "note": 51, "velocity": 96, "channel": 0}, {"type": "note_on", "time": 2937, "note": 68, "velocity": 123, "channel": 0}, {"type": "note_off", "time": 271, "note": 68, "velocity": 123, "channel": 0}, {"type": "note_on", "time": 43, "note": 68, "velocity": 123, "channel": 0}, {"type": "note_off", "time": 288, "note": 68, "velocity": 123, "channel": 0}, {"type": "note_on", "time": 96, "note": 71, "velocity": 125, "channel": 0}, {"type": "note_off", "time": 209, "note": 71, "velocity": 125, "channel": 0}, {"type": "note_on", "time": 52, "note": 72, "velocity": 123, "channel": 0}, {"type": "note_off", "time": 271, "note": 72, "velocity": 123, "channel": 0}, {"type": "note_on", "time": 0, "note": 68, "velocity": 121, "channel": 0}, {"type": "note_off", "time": 2107, "note": 68, "velocity": 121, "channel": 0}, {"type": "note_on", "time": 43, "note": 66, "velocity": 115, "channel": 0}, {"type": "note_off", "time": 209, "note": 66, "velocity": 115, "channel": 0}, {"type": "note_on", "time": 0, "note": 63, "velocity": 115, "channel": 0}, {"type": "note_off", "time": 218, "note": 63, "velocity": 115, "channel": 0}, {"type": "note_on", "time": 8, "note": 66, "velocity": 117, "channel": 0}, {"type": "note_off", "time": 244, "note": 66, "velocity": 117, "channel": 0}, {"type": "note_on", "time": 61, "note": 68, "velocity": 108, "channel": 0}, {"type": "note_off", "time": 288, "note": 68, "velocity": 108, "channel": 0}, {"type": "note_on", "time": 8, "note": 70, "velocity": 119, "channel": 0}, {"type": "note_off", "time": 236, "note": 70, "velocity": 119, "channel": 0}, {"type": "note_on", "time": 113, "note": 68, "velocity": 120, "channel": 0}, {"type": "note_off", "time": 314, "note": 68, "velocity": 120, "channel": 0}, {"type": "note_on", "time": 26, "note": 66, "velocity": 112, "channel": 0}, {"type": "note_off", "time": 349, "note": 66, "velocity": 112, "channel": 0}, {"type": "note_on", "time": 0, "note": 63, "velocity": 108, "channel": 0}, {"type": "note_off", "time": 1232, "note": 63, "velocity": 108, "channel": 0}, {"type": "note_on", "time": 1972, "note": 68, "velocity": 120, "channel": 0}, {"type": "note_off", "time": 254, "note": 68, "velocity": 120, "channel": 0}, {"type": "note_on", "time": 19, "note": 71, "velocity": 119, "channel": 0}, {"type": "note_off", "time": 227, "note": 71, "velocity": 119, "channel": 0}, {"type": "note_on", "time": 26, "note": 72, "velocity": 119, "channel": 0}, {"type": "note_off", "time": 192, "note": 72, "velocity": 119, "channel": 0}, {"type": "note_on", "time": 43, "note": 68, "velocity": 121, "channel": 0}, {"type": "note_off", "time": 671, "note": 68, "velocity": 121, "channel": 0}, {"type": "note_on", "time": 44, "note": 71, "velocity": 123, "channel": 0}, {"type": "note_off", "time": 179, "note": 71, "velocity": 123, "channel": 0}, {"type": "note_on", "time": 0, "note": 72, "velocity": 121, "channel": 0}, {"type": "note_on", "time": 230, "note": 68, "velocity": 123, "channel": 0}, {"type": "note_off", "time": 0, "note": 72, "velocity": 121, "channel": 0}, {"type": "note_off", "time": 397, "note": 68, "velocity": 123, "channel": 0}, {"type": "note_on", "time": 62, "note": 71, "velocity": 123, "channel": 0}, {"type": "note_off", "time": 310, "note": 71, "velocity": 123, "channel": 0}, {"type": "note_on", "time": 0, "note": 72, "velocity": 118, "channel": 0}, {"type": "note_off", "time": 323, "note": 72, "velocity": 118, "channel": 0}, {"type": "note_on", "time": 18, "note": 68, "velocity": 122, "channel": 0}, {"type": "note_off", "time": 478, "note": 68, "velocity": 122, "channel": 0}, {"type": "note_on", "time": 12, "note": 63, "velocity": 124, "channel": 0}, {"type": "note_off", "time": 223, "note": 63, "velocity": 124, "channel": 0}, {"type": "note_on", "time": 186, "note": 66, "velocity": 116, "channel": 0}, {"type": "note_off", "time": 1119, "note": 66, "velocity": 116, "channel": 0}, {"type": "note_on", "time": 43, "note": 63, "velocity": 121, "channel": 0}, {"type": "note_off", "time": 304, "note": 63, "velocity": 121, "channel": 0}, {"type": "note_on", "time": 130, "note": 66, "velocity": 114, "channel": 0}, {"type": "note_off", "time": 410, "note": 66, "velocity": 114, "channel": 0}, {"type": "note_on", "time": 18, "note": 63, "velocity": 118, "channel": 0}, {"type": "note_off", "time": 826, "note": 63, "velocity": 118, "channel": 0}, {"type": "note_on", "time": 12, "note": 66, "velocity": 115, "channel": 0}, {"type": "note_off", "time": 111, "note": 66, "velocity": 115, "channel": 0}, {"type": "note_on", "time": 37, "note": 67, "velocity": 107, "channel": 0}, {"type": "note_off", "time": 174, "note": 67, "velocity": 107, "channel": 0}, {"type": "note_on", "time": 43, "note": 63, "velocity": 114, "channel": 0}, {"type": "note_off", "time": 889, "note": 63, "velocity": 114, "channel": 0}, {"type": "note_on", "time": 62, "note": 61, "velocity": 113, "channel": 0}, {"type": "note_off", "time": 217, "note": 61, "velocity": 113, "channel": 0}, {"type": "note_on", "time": 55, "note": 63, "velocity": 115, "channel": 0}, {"type": "note_off", "time": 1025, "note": 63, "velocity": 115, "channel": 0}, {"type": "note_on", "time": 31, "note": 66, "velocity": 112, "channel": 0}, {"type": "note_off", "time": 198, "note": 66, "velocity": 112, "channel": 0}, {"type": "note_on", "time": 0, "note": 67, "velocity": 109, "channel": 0}, {"type": "note_off", "time": 217, "note": 67, "velocity": 109, "channel": 0}, {"type": "note_on", "time": 12, "note": 63, "velocity": 117, "channel": 0}, {"type": "note_off", "time": 808, "note": 63, "velocity": 117, "channel": 0}, {"type": "note_on", "time": 37, "note": 61, "velocity": 116, "channel": 0}, {"type": "note_off", "time": 192, "note": 61, "velocity": 116, "channel": 0}, {"type": "note_on", "time": 31, "note": 63, "velocity": 116, "channel": 0}, {"type": "note_off", "time": 211, "note": 63, "velocity": 116, "channel": 0}, {"type": "note_on", "time": 24, "note": 66, "velocity": 110, "channel": 0}, {"type": "note_off", "time": 136, "note": 66, "velocity": 110, "channel": 0}, {"type": "note_on", "time": 24, "note": 67, "velocity": 104, "channel": 0}, {"type": "note_off", "time": 192, "note": 67, "velocity": 104, "channel": 0}, {"type": "note_on", "time": 49, "note": 63, "velocity": 116, "channel": 0}, {"type": "note_off", "time": 478, "note": 63, "velocity": 116, "channel": 0}, {"type": "note_on", "time": 6, "note": 61, "velocity": 114, "channel": 0}, {"type": "note_off", "time": 149, "note": 61, "velocity": 114, "channel": 0}, {"type": "note_on", "time": 6, "note": 63, "velocity": 115, "channel": 0}, {"type": "note_off", "time": 553, "note": 63, "velocity": 115, "channel": 0}, {"type": "note_on", "time": 24, "note": 66, "velocity": 114, "channel": 0}, {"type": "note_off", "time": 155, "note": 66, "velocity": 114, "channel": 0}, {"type": "note_on", "time": 24, "note": 67, "velocity": 112, "channel": 0}, {"type": "note_off", "time": 186, "note": 67, "velocity": 112, "channel": 0}, {"type": "note_on", "time": 31, "note": 63, "velocity": 116, "channel": 0}, {"type": "note_off", "time": 1218, "note": 63, "velocity": 116, "channel": 0}, {"type": "note_on", "time": 6, "note": 61, "velocity": 109, "channel": 0}, {"type": "note_off", "time": 167, "note": 61, "velocity": 109, "channel": 0}, {"type": "note_on", "time": 31, "note": 63, "velocity": 116, "channel": 0}, {"type": "note_on", "time": 111, "note": 66, "velocity": 111, "channel": 0}, {"type": "note_off", "time": 0, "note": 63, "velocity": 116, "channel": 0}, {"type": "note_off", "time": 149, "note": 66, "velocity": 111, "channel": 0}, {"type": "note_on", "time": 24, "note": 67, "velocity": 108, "channel": 0}, {"type": "note_off", "time": 149, "note": 67, "velocity": 108, "channel": 0}, {"type": "note_on", "time": 24, "note": 63, "velocity": 114, "channel": 0}, {"type": "note_off", "time": 913, "note": 63, "velocity": 114, "channel": 0}, {"type": "note_on", "time": 6, "note": 61, "velocity": 113, "channel": 0}, {"type": "note_off", "time": 453, "note": 61, "velocity": 113, "channel": 0}, {"type": "note_on", "time": 6, "note": 63, "velocity": 116, "channel": 0}, {"type": "note_off", "time": 1230, "note": 63, "velocity": 116, "channel": 0}, {"type": "note_on", "time": 4593, "note": 68, "velocity": 127, "channel": 0}, {"type": "note_on", "time": 174, "note": 67, "velocity": 121, "channel": 0}, {"type": "note_off", "time": 0, "note": 68, "velocity": 127, "channel": 0}, {"type": "note_off", "time": 174, "note": 67, "velocity": 121, "channel": 0}, {"type": "note_on", "time": 0, "note": 66, "velocity": 117, "channel": 0}, {"type": "note_off", "time": 104, "note": 66, "velocity": 117, "channel": 0}, {"type": "note_on", "time": 17, "note": 65, "velocity": 119, "channel": 0}, {"type": "note_off", "time": 638, "note": 65, "velocity": 119, "channel": 0}, {"type": "note_on", "time": 26, "note": 63, "velocity": 118, "channel": 0}, {"type": "note_off", "time": 139, "note": 63, "velocity": 118, "channel": 0}, {"type": "note_on", "time": 26, "note": 62, "velocity": 120, "channel": 0}, {"type": "note_off", "time": 646, "note": 62, "velocity": 120, "channel": 0}, {"type": "note_on", "time": 22, "note": 61, "velocity": 117, "channel": 0}, {"type": "note_off", "time": 71, "note": 61, "velocity": 117, "channel": 0}, {"type": "note_on", "time": 21, "note": 60, "velocity": 112, "channel": 0}, {"type": "note_off", "time": 65, "note": 60, "velocity": 112, "channel": 0}, {"type": "note_on", "time": 15, "note": 59, "velocity": 107, "channel": 0}, {"type": "note_off", "time": 65, "note": 59, "velocity": 107, "channel": 0}, {"type": "note_on", "time": 27, "note": 58, "velocity": 103, "channel": 0}, {"type": "note_off", "time": 620, "note": 58, "velocity": 103, "channel": 0}, {"type": "note_on", "time": 8, "note": 57, "velocity": 103, "channel": 0}, {"type": "note_off", "time": 113, "note": 57, "velocity": 103, "channel": 0}, {"type": "note_on", "time": 34, "note": 56, "velocity": 103, "channel": 0}, {"type": "note_off", "time": 524, "note": 56, "velocity": 103, "channel": 0}, {"type": "note_on", "time": 13, "note": 55, "velocity": 104, "channel": 0}, {"type": "note_off", "time": 83, "note": 55, "velocity": 104, "channel": 0}, {"type": "note_on", "time": 27, "note": 54, "velocity": 105, "channel": 0}, {"type": "note_off", "time": 80, "note": 54, "velocity": 105, "channel": 0}, {"type": "note_on", "time": 30, "note": 53, "velocity": 116, "channel": 0}, {"type": "note_off", "time": 568, "note": 53, "velocity": 116, "channel": 0}, {"type": "note_on", "time": 61, "note": 52, "velocity": 107, "channel": 0}, {"type": "note_off", "time": 122, "note": 52, "velocity": 107, "channel": 0}, {"type": "note_on", "time": 26, "note": 51, "velocity": 107, "channel": 0}, {"type": "note_off", "time": 157, "note": 51, "velocity": 107, "channel": 0}, {"type": "note_on", "time": 34, "note": 50, "velocity": 109, "channel": 0}, {"type": "note_off", "time": 638, "note": 50, "velocity": 109, "channel": 0}, {"type": "note_on", "time": 0, "note": 53, "velocity": 114, "channel": 0}, {"type": "note_off", "time": 192, "note": 53, "velocity": 114, "channel": 0}, {"type": "note_on", "time": 43, "note": 56, "velocity": 107, "channel": 0}, {"type": "note_off", "time": 577, "note": 56, "velocity": 107, "channel": 0}, {"type": "note_on", "time": 1696, "note": 56, "velocity": 103, "channel": 0}, {"type": "note_on", "time": 209, "note": 60, "velocity": 109, "channel": 0}, {"type": "note_off", "time": 0, "note": 56, "velocity": 103, "channel": 0}, {"type": "note_off", "time": 201, "note": 60, "velocity": 109, "channel": 0}, {"type": "note_on", "time": 51, "note": 63, "velocity": 108, "channel": 0}, {"type": "note_off", "time": 227, "note": 63, "velocity": 108, "channel": 0}, {"type": "note_on", "time": 10, "note": 65, "velocity": 119, "channel": 0}, {"type": "note_off", "time": 192, "note": 65, "velocity": 119, "channel": 0}, {"type": "note_on", "time": 34, "note": 62, "velocity": 121, "channel": 0}, {"type": "note_off", "time": 209, "note": 62, "velocity": 121, "channel": 0}, {"type": "note_on", "time": 0, "note": 65, "velocity": 109, "channel": 0}, {"type": "note_off", "time": 236, "note": 65, "velocity": 109, "channel": 0}, {"type": "note_on", "time": 21, "note": 68, "velocity": 108, "channel": 0}, {"type": "note_off", "time": 167, "note": 68, "velocity": 108, "channel": 0}, {"type": "note_on", "time": 2, "note": 73, "velocity": 109, "channel": 0}, {"type": "note_off", "time": 174, "note": 73, "velocity": 109, "channel": 0}, {"type": "note_on", "time": 8, "note": 70, "velocity": 114, "channel": 0}, {"type": "note_off", "time": 236, "note": 70, "velocity": 114, "channel": 0}, {"type": "note_on", "time": 1040, "note": 63, "velocity": 121, "channel": 0}, {"type": "note_off", "time": 358, "note": 63, "velocity": 121, "channel": 0}, {"type": "note_on", "time": 3668, "note": 58, "velocity": 117, "channel": 0}, {"type": "note_off", "time": 105, "note": 58, "velocity": 117, "channel": 0}, {"type": "note_on", "time": 6, "note": 63, "velocity": 110, "channel": 0}, {"type": "note_off", "time": 167, "note": 63, "velocity": 110, "channel": 0}, {"type": "note_on", "time": 31, "note": 67, "velocity": 101, "channel": 0}, {"type": "note_off", "time": 198, "note": 67, "velocity": 101, "channel": 0}, {"type": "note_on", "time": 9, "note": 68, "velocity": 119, "channel": 0}, {"type": "note_off", "time": 192, "note": 68, "velocity": 119, "channel": 0}, {"type": "note_on", "time": 13, "note": 67, "velocity": 107, "channel": 0}, {"type": "note_off", "time": 148, "note": 67, "velocity": 107, "channel": 0}, {"type": "note_on", "time": 13, "note": 68, "velocity": 116, "channel": 0}, {"type": "note_off", "time": 183, "note": 68, "velocity": 116, "channel": 0}, {"type": "note_on", "time": 8, "note": 67, "velocity": 109, "channel": 0}, {"type": "note_off", "time": 170, "note": 67, "velocity": 109, "channel": 0}, {"type": "note_on", "time": 34, "note": 68, "velocity": 114, "channel": 0}, {"type": "note_off", "time": 240, "note": 68, "velocity": 114, "channel": 0}, {"type": "note_on", "time": 4, "note": 67, "velocity": 107, "channel": 0}, {"type": "note_off", "time": 157, "note": 67, "velocity": 107, "channel": 0}, {"type": "note_on", "time": 26, "note": 68, "velocity": 121, "channel": 0}, {"type": "note_off", "time": 196, "note": 68, "velocity": 121, "channel": 0}, {"type": "note_on", "time": 13, "note": 67, "velocity": 109, "channel": 0}, {"type": "note_off", "time": 166, "note": 67, "velocity": 109, "channel": 0}, {"type": "note_on", "time": 21, "note": 68, "velocity": 121, "channel": 0}, {"type": "note_off", "time": 179, "note": 68, "velocity": 121, "channel": 0}, {"type": "note_on", "time": 8, "note": 67, "velocity": 109, "channel": 0}, {"type": "note_off", "time": 157, "note": 67, "velocity": 109, "channel": 0}, {"type": "note_on", "time": 0, "note": 68, "velocity": 119, "channel": 0}, {"type": "note_off", "time": 236, "note": 68, "velocity": 119, "channel": 0}, {"type": "note_on", "time": 21, "note": 67, "velocity": 111, "channel": 0}, {"type": "note_off", "time": 174, "note": 67, "velocity": 111, "channel": 0}, {"type": "note_on", "time": 21, "note": 68, "velocity": 121, "channel": 0}, {"type": "note_off", "time": 209, "note": 68, "velocity": 121, "channel": 0}, {"type": "note_on", "time": 4, "note": 67, "velocity": 110, "channel": 0}, {"type": "note_off", "time": 161, "note": 67, "velocity": 110, "channel": 0}, {"type": "note_on", "time": 4, "note": 68, "velocity": 121, "channel": 0}, {"type": "note_off", "time": 153, "note": 68, "velocity": 121, "channel": 0}, {"type": "note_on", "time": 65, "note": 67, "velocity": 116, "channel": 0}, {"type": "note_off", "time": 148, "note": 67, "velocity": 116, "channel": 0}, {"type": "note_on", "time": 13, "note": 68, "velocity": 118, "channel": 0}, {"type": "note_off", "time": 179, "note": 68, "velocity": 118, "channel": 0}, {"type": "note_on", "time": 0, "note": 67, "velocity": 108, "channel": 0}, {"type": "note_off", "time": 214, "note": 67, "velocity": 108, "channel": 0}, {"type": "note_on", "time": 4, "note": 68, "velocity": 120, "channel": 0}, {"type": "note_off", "time": 187, "note": 68, "velocity": 120, "channel": 0}, {"type": "note_on", "time": 17, "note": 67, "velocity": 110, "channel": 0}, {"type": "note_off", "time": 166, "note": 67, "velocity": 110, "channel": 0}, {"type": "note_on", "time": 30, "note": 68, "velocity": 118, "channel": 0}, {"type": "note_off", "time": 231, "note": 68, "velocity": 118, "channel": 0}, {"type": "note_on", "time": 21, "note": 67, "velocity": 108, "channel": 0}, {"type": "note_off", "time": 157, "note": 67, "velocity": 108, "channel": 0}, {"type": "note_on", "time": 21, "note": 68, "velocity": 114, "channel": 0}, {"type": "note_off", "time": 153, "note": 68, "velocity": 114, "channel": 0}, {"type": "note_on", "time": 48, "note": 67, "velocity": 108, "channel": 0}, {"type": "note_off", "time": 205, "note": 67, "velocity": 108, "channel": 0}, {"type": "note_on", "time": 13, "note": 68, "velocity": 119, "channel": 0}, {"type": "note_off", "time": 227, "note": 68, "velocity": 119, "channel": 0}, {"type": "note_on", "time": 21, "note": 67, "velocity": 114, "channel": 0}, {"type": "note_off", "time": 179, "note": 67, "velocity": 114, "channel": 0}, {"type": "note_on", "time": 4, "note": 68, "velocity": 113, "channel": 0}, {"type": "note_off", "time": 209, "note": 68, "velocity": 113, "channel": 0}, {"type": "note_on", "time": 8, "note": 67, "velocity": 108, "channel": 0}, {"type": "note_off", "time": 166, "note": 67, "velocity": 108, "channel": 0}, {"type": "note_on", "time": 39, "note": 68, "velocity": 119, "channel": 0}, {"type": "note_off", "time": 223, "note": 68, "velocity": 119, "channel": 0}, {"type": "note_on", "time": 6, "note": 70, "velocity": 110, "channel": 0}, {"type": "note_off", "time": 198, "note": 70, "velocity": 110, "channel": 0}, {"type": "note_on", "time": 37, "note": 65, "velocity": 112, "channel": 0}, {"type": "note_off", "time": 136, "note": 65, "velocity": 112, "channel": 0}, {"type": "note_on", "time": 37, "note": 67, "velocity": 121, "channel": 0}, {"type": "note_off", "time": 285, "note": 67, "velocity": 121, "channel": 0}, {"type": "note_on", "time": 0, "note": 63, "velocity": 121, "channel": 0}, {"type": "note_off", "time": 186, "note": 63, "velocity": 121, "channel": 0}, {"type": "note_on", "time": 12, "note": 65, "velocity": 114, "channel": 0}, {"type": "note_off", "time": 192, "note": 65, "velocity": 114, "channel": 0}, {"type": "note_on", "time": 285, "note": 63, "velocity": 117, "channel": 0}, {"type": "note_off", "time": 211, "note": 63, "velocity": 117, "channel": 0}, {"type": "note_on", "time": 205, "note": 61, "velocity": 116, "channel": 0}, {"type": "note_off", "time": 317, "note": 61, "velocity": 116, "channel": 0}, {"type": "note_on", "time": 248, "note": 58, "velocity": 111, "channel": 0}, {"type": "note_off", "time": 254, "note": 58, "velocity": 111, "channel": 0}, {"type": "note_on", "time": 52, "note": 51, "velocity": 106, "channel": 0}, {"type": "note_off", "time": 290, "note": 51, "velocity": 106, "channel": 0}, {"type": "note_on", "time": 66, "note": 51, "velocity": 112, "channel": 0}, {"type": "note_off", "time": 261, "note": 51, "velocity": 112, "channel": 0}, {"type": "note_on", "time": 10, "note": 56, "velocity": 113, "channel": 0}, {"type": "note_off", "time": 174, "note": 56, "velocity": 113, "channel": 0}, {"type": "note_on", "time": 20, "note": 54, "velocity": 104, "channel": 0}, {"type": "note_off", "time": 230, "note": 54, "velocity": 104, "channel": 0}, {"type": "note_on", "time": 18, "note": 51, "velocity": 102, "channel": 0}, {"type": "note_off", "time": 242, "note": 51, "velocity": 102, "channel": 0}, {"type": "note_on", "time": 31, "note": 49, "velocity": 114, "channel": 0}, {"type": "note_off", "time": 205, "note": 49, "velocity": 114, "channel": 0}, {"type": "note_on", "time": 6, "note": 51, "velocity": 105, "channel": 0}, {"type": "note_off", "time": 205, "note": 51, "velocity": 105, "channel": 0}, {"type": "note_on", "time": 1939, "note": 51, "velocity": 110, "channel": 0}, {"type": "note_off", "time": 174, "note": 51, "velocity": 110, "channel": 0}, {"type": "note_on", "time": 42, "note": 54, "velocity": 105, "channel": 0}, {"type": "note_off", "time": 218, "note": 54, "velocity": 105, "channel": 0}, {"type": "note_on", "time": 36, "note": 55, "velocity": 104, "channel": 0}, {"type": "note_off", "time": 198, "note": 55, "velocity": 104, "channel": 0}, {"type": "note_on", "time": 37, "note": 56, "velocity": 120, "channel": 0}, {"type": "note_off", "time": 186, "note": 56, "velocity": 120, "channel": 0}, {"type": "note_on", "time": 0, "note": 57, "velocity": 115, "channel": 0}, {"type": "note_off", "time": 142, "note": 57, "velocity": 115, "channel": 0}, {"type": "note_on", "time": 12, "note": 58, "velocity": 115, "channel": 0}, {"type": "note_off", "time": 161, "note": 58, "velocity": 115, "channel": 0}, {"type": "note_on", "time": 125, "note": 51, "velocity": 110, "channel": 0}, {"type": "note_off", "time": 306, "note": 51, "velocity": 110, "channel": 0}, {"type": "note_on", "time": 0, "note": 54, "velocity": 107, "channel": 0}, {"type": "note_off", "time": 297, "note": 54, "velocity": 107, "channel": 0}, {"type": "note_on", "time": 41, "note": 55, "velocity": 105, "channel": 0}, {"type": "note_off", "time": 211, "note": 55, "velocity": 105, "channel": 0}, {"type": "note_on", "time": 37, "note": 56, "velocity": 100, "channel": 0}, {"type": "note_off", "time": 223, "note": 56, "velocity": 100, "channel": 0}, {"type": "note_on", "time": 31, "note": 57, "velocity": 100, "channel": 0}, {"type": "note_off", "time": 186, "note": 57, "velocity": 100, "channel": 0}, {"type": "note_on", "time": 6, "note": 58, "velocity": 114, "channel": 0}, {"type": "note_off", "time": 248, "note": 58, "velocity": 114, "channel": 0}, {"type": "note_on", "time": 43, "note": 51, "velocity": 103, "channel": 0}, {"type": "note_off", "time": 348, "note": 51, "velocity": 103, "channel": 0}, {"type": "note_on", "time": 2443, "note": 63, "velocity": 112, "channel": 0}, {"type": "note_off", "time": 273, "note": 63, "velocity": 112, "channel": 0}, {"type": "note_on", "time": 6, "note": 66, "velocity": 111, "channel": 0}, {"type": "note_off", "time": 298, "note": 66, "velocity": 111, "channel": 0}, {"type": "note_on", "time": 24, "note": 67, "velocity": 109, "channel": 0}, {"type": "note_off", "time": 186, "note": 67, "velocity": 109, "channel": 0}, {"type": "note_on", "time": 18, "note": 68, "velocity": 111, "channel": 0}, {"type": "note_off", "time": 124, "note": 68, "velocity": 111, "channel": 0}, {"type": "note_on", "time": 24, "note": 69, "velocity": 111, "channel": 0}, {"type": "note_off", "time": 149, "note": 69, "velocity": 111, "channel": 0}, {"type": "note_on", "time": 6, "note": 70, "velocity": 116, "channel": 0}, {"type": "note_off", "time": 211, "note": 70, "velocity": 116, "channel": 0}, {"type": "note_on", "time": 12, "note": 63, "velocity": 113, "channel": 0}, {"type": "note_off", "time": 174, "note": 63, "velocity": 113, "channel": 0}, {"type": "note_on", "time": 6, "note": 66, "velocity": 117, "channel": 0}, {"type": "note_off", "time": 298, "note": 66, "velocity": 117, "channel": 0}, {"type": "note_on", "time": 18, "note": 67, "velocity": 123, "channel": 0}, {"type": "note_off", "time": 161, "note": 67, "velocity": 123, "channel": 0}, {"type": "note_on", "time": 12, "note": 68, "velocity": 120, "channel": 0}, {"type": "note_off", "time": 149, "note": 68, "velocity": 120, "channel": 0}, {"type": "note_on", "time": 12, "note": 69, "velocity": 113, "channel": 0}, {"type": "note_off", "time": 111, "note": 69, "velocity": 113, "channel": 0}, {"type": "note_on", "time": 12, "note": 70, "velocity": 116, "channel": 0}, {"type": "note_off", "time": 205, "note": 70, "velocity": 116, "channel": 0}, {"type": "note_on", "time": 46, "note": 63, "velocity": 107, "channel": 0}, {"type": "note_off", "time": 192, "note": 63, "velocity": 107, "channel": 0}, {"type": "note_on", "time": 34, "note": 66, "velocity": 115, "channel": 0}, {"type": "note_off", "time": 279, "note": 66, "velocity": 115, "channel": 0}, {"type": "note_on", "time": 24, "note": 67, "velocity": 117, "channel": 0}, {"type": "note_off", "time": 118, "note": 67, "velocity": 117, "channel": 0}, {"type": "note_on", "time": 0, "note": 68, "velocity": 112, "channel": 0}, {"type": "note_off", "time": 142, "note": 68, "velocity": 112, "channel": 0}, {"type": "note_on", "time": 18, "note": 69, "velocity": 107, "channel": 0}, {"type": "note_off", "time": 149, "note": 69, "velocity": 107, "channel": 0}, {"type": "note_on", "time": 24, "note": 70, "velocity": 114, "channel": 0}, {"type": "note_off", "time": 267, "note": 70, "velocity": 114, "channel": 0}, {"type": "note_on", "time": 43, "note": 69, "velocity": 120, "channel": 0}, {"type": "note_off", "time": 180, "note": 69, "velocity": 120, "channel": 0}, {"type": "note_on", "time": 950, "note": 51, "velocity": 104, "channel": 0}, {"type": "note_off", "time": 305, "note": 51, "velocity": 104, "channel": 0}, {"type": "note_on", "time": 0, "note": 54, "velocity": 102, "channel": 0}, {"type": "note_off", "time": 218, "note": 54, "velocity": 102, "channel": 0}, {"type": "note_on", "time": 8, "note": 55, "velocity": 104, "channel": 0}, {"type": "note_off", "time": 113, "note": 55, "velocity": 104, "channel": 0}, {"type": "note_on", "time": 26, "note": 56, "velocity": 110, "channel": 0}, {"type": "note_off", "time": 157, "note": 56, "velocity": 110, "channel": 0}, {"type": "note_on", "time": 43, "note": 57, "velocity": 105, "channel": 0}, {"type": "note_off", "time": 139, "note": 57, "velocity": 105, "channel": 0}, {"type": "note_on", "time": 34, "note": 58, "velocity": 113, "channel": 0}, {"type": "note_off", "time": 236, "note": 58, "velocity": 113, "channel": 0}, {"type": "note_on", "time": 43, "note": 51, "velocity": 100, "channel": 0}, {"type": "note_off", "time": 166, "note": 51, "velocity": 100, "channel": 0}, {"type": "note_on", "time": 34, "note": 54, "velocity": 107, "channel": 0}, {"type": "note_off", "time": 201, "note": 54, "velocity": 107, "channel": 0}, {"type": "note_on", "time": 52, "note": 55, "velocity": 106, "channel": 0}, {"type": "note_off", "time": 148, "note": 55, "velocity": 106, "channel": 0}, {"type": "note_on", "time": 13, "note": 56, "velocity": 107, "channel": 0}, {"type": "note_off", "time": 122, "note": 56, "velocity": 107, "channel": 0}, {"type": "note_on", "time": 17, "note": 57, "velocity": 108, "channel": 0}, {"type": "note_off", "time": 131, "note": 57, "velocity": 108, "channel": 0}, {"type": "note_on", "time": 17, "note": 58, "velocity": 116, "channel": 0}, {"type": "note_off", "time": 166, "note": 58, "velocity": 116, "channel": 0}, {"type": "note_on", "time": 52, "note": 63, "velocity": 112, "channel": 0}, {"type": "note_off", "time": 249, "note": 63, "velocity": 112, "channel": 0}, {"type": "note_on", "time": 0, "note": 66, "velocity": 115, "channel": 0}, {"type": "note_off", "time": 240, "note": 66, "velocity": 115, "channel": 0}, {"type": "note_on", "time": 13, "note": 67, "velocity": 116, "channel": 0}, {"type": "note_off", "time": 144, "note": 67, "velocity": 116, "channel": 0}, {"type": "note_on", "time": 8, "note": 68, "velocity": 115, "channel": 0}, {"type": "note_off", "time": 122, "note": 68, "velocity": 115, "channel": 0}, {"type": "note_on", "time": 17, "note": 69, "velocity": 107, "channel": 0}, {"type": "note_off", "time": 170, "note": 69, "velocity": 107, "channel": 0}, {"type": "note_on", "time": 17, "note": 70, "velocity": 108, "channel": 0}, {"type": "note_off", "time": 227, "note": 70, "velocity": 108, "channel": 0}, {"type": "note_on", "time": 113, "note": 63, "velocity": 104, "channel": 0}, {"type": "note_off", "time": 144, "note": 63, "velocity": 104, "channel": 0}, {"type": "note_on", "time": 91, "note": 66, "velocity": 113, "channel": 0}, {"type": "note_off", "time": 209, "note": 66, "velocity": 113, "channel": 0}, {"type": "note_on", "time": 21, "note": 67, "velocity": 114, "channel": 0}, {"type": "note_off", "time": 187, "note": 67, "velocity": 114, "channel": 0}, {"type": "note_on", "time": 8, "note": 68, "velocity": 115, "channel": 0}, {"type": "note_off", "time": 126, "note": 68, "velocity": 115, "channel": 0}, {"type": "note_on", "time": 4, "note": 69, "velocity": 116, "channel": 0}, {"type": "note_off", "time": 144, "note": 69, "velocity": 116, "channel": 0}, {"type": "note_on", "time": 26, "note": 70, "velocity": 108, "channel": 0}, {"type": "note_off", "time": 192, "note": 70, "velocity": 108, "channel": 0}, {"type": "note_on", "time": 23, "note": 63, "velocity": 102, "channel": 0}, {"type": "note_off", "time": 211, "note": 63, "velocity": 102, "channel": 0}, {"type": "note_on", "time": 45, "note": 66, "velocity": 116, "channel": 0}, {"type": "note_off", "time": 218, "note": 66, "velocity": 116, "channel": 0}, {"type": "note_on", "time": 34, "note": 67, "velocity": 116, "channel": 0}, {"type": "note_off", "time": 157, "note": 67, "velocity": 116, "channel": 0}, {"type": "note_on", "time": 30, "note": 68, "velocity": 111, "channel": 0}, {"type": "note_off", "time": 157, "note": 68, "velocity": 111, "channel": 0}, {"type": "note_on", "time": 21, "note": 69, "velocity": 102, "channel": 0}, {"type": "note_off", "time": 148, "note": 69, "velocity": 102, "channel": 0}, {"type": "note_on", "time": 18, "note": 70, "velocity": 115, "channel": 0}, {"type": "note_off", "time": 310, "note": 70, "velocity": 115, "channel": 0}, {"type": "note_on", "time": 43, "note": 63, "velocity": 105, "channel": 0}, {"type": "note_off", "time": 267, "note": 63, "velocity": 105, "channel": 0}, {"type": "note_on", "time": 2253, "note": 62, "velocity": 118, "channel": 0}, {"type": "note_off", "time": 149, "note": 62, "velocity": 118, "channel": 0}, {"type": "note_on", "time": 49, "note": 63, "velocity": 121, "channel": 0}, {"type": "note_off", "time": 1709, "note": 63, "velocity": 121, "channel": 0}, {"type": "note_on", "time": 24, "note": 61, "velocity": 111, "channel": 0}, {"type": "note_off", "time": 230, "note": 61, "velocity": 111, "channel": 0}, {"type": "note_on", "time": 31, "note": 60, "velocity": 113, "channel": 0}, {"type": "note_off", "time": 236, "note": 60, "velocity": 113, "channel": 0}, {"type": "note_on", "time": 18, "note": 58, "velocity": 106, "channel": 0}, {"type": "note_off", "time": 198, "note": 58, "velocity": 106, "channel": 0}, {"type": "note_on", "time": 18, "note": 56, "velocity": 102, "channel": 0}, {"type": "note_off", "time": 223, "note": 56, "velocity": 102, "channel": 0}, {"type": "note_on", "time": 6, "note": 55, "velocity": 111, "channel": 0}, {"type": "note_off", "time": 205, "note": 55, "velocity": 111, "channel": 0}, {"type": "note_on", "time": 14, "note": 54, "velocity": 114, "channel": 0}, {"type": "note_off", "time": 367, "note": 54, "velocity": 114, "channel": 0}, {"type": "note_on", "time": 2515, "note": 44, "velocity": 116, "channel": 0}, {"type": "note_off", "time": 1796, "note": 44, "velocity": 116, "channel": 0}, {"type": "note_on", "time": 3161, "note": 56, "velocity": 114, "channel": 0}, {"type": "note_off", "time": 223, "note": 56, "velocity": 114, "channel": 0}, {"type": "note_on", "time": 13, "note": 59, "velocity": 111, "channel": 0}, {"type": "note_off", "time": 205, "note": 59, "velocity": 111, "channel": 0}, {"type": "note_on", "time": 8, "note": 63, "velocity": 121, "channel": 0}, {"type": "note_off", "time": 205, "note": 63, "velocity": 121, "channel": 0}, {"type": "note_on", "time": 0, "note": 65, "velocity": 124, "channel": 0}, {"type": "note_off", "time": 198, "note": 65, "velocity": 124, "channel": 0}, {"type": "note_on", "time": 29, "note": 65, "velocity": 114, "channel": 0}, {"type": "note_off", "time": 769, "note": 65, "velocity": 114, "channel": 0}, {"type": "note_on", "time": 17, "note": 66, "velocity": 115, "channel": 0}, {"type": "note_off", "time": 1346, "note": 66, "velocity": 115, "channel": 0}, {"type": "note_on", "time": 17, "note": 63, "velocity": 118, "channel": 0}, {"type": "note_off", "time": 236, "note": 63, "velocity": 118, "channel": 0}, {"type": "note_on", "time": 8, "note": 66, "velocity": 116, "channel": 0}, {"type": "note_off", "time": 314, "note": 66, "velocity": 116, "channel": 0}, {"type": "note_on", "time": 8, "note": 63, "velocity": 122, "channel": 0}, {"type": "note_off", "time": 297, "note": 63, "velocity": 122, "channel": 0}, {"type": "note_on", "time": 8, "note": 66, "velocity": 116, "channel": 0}, {"type": "note_on", "time": 314, "note": 63, "velocity": 123, "channel": 0}, {"type": "note_off", "time": 0, "note": 66, "velocity": 116, "channel": 0}, {"type": "note_off", "time": 332, "note": 63, "velocity": 123, "channel": 0}, {"type": "note_on", "time": 34, "note": 61, "velocity": 120, "channel": 0}, {"type": "note_off", "time": 340, "note": 61, "velocity": 120, "channel": 0}, {"type": "note_on", "time": 52, "note": 58, "velocity": 111, "channel": 0}, {"type": "note_off", "time": 244, "note": 58, "velocity": 111, "channel": 0}, {"type": "note_on", "time": 61, "note": 56, "velocity": 117, "channel": 0}, {"type": "note_off", "time": 223, "note": 56, "velocity": 117, "channel": 0}, {"type": "note_on", "time": 0, "note": 51, "velocity": 111, "channel": 0}, {"type": "note_off", "time": 481, "note": 51, "velocity": 111, "channel": 0}, {"type": "note_on", "time": 28, "note": 54, "velocity": 110, "channel": 0}, {"type": "note_off", "time": 323, "note": 54, "velocity": 110, "channel": 0}, {"type": "note_on", "time": 26, "note": 56, "velocity": 106, "channel": 0}, {"type": "note_off", "time": 1250, "note": 56, "velocity": 106, "channel": 0}, {"type": "note_on", "time": 17, "note": 54, "velocity": 107, "channel": 0}, {"type": "note_off", "time": 279, "note": 54, "velocity": 107, "channel": 0}, {"type": "note_on", "time": 17, "note": 51, "velocity": 110, "channel": 0}, {"type": "note_off", "time": 332, "note": 51, "velocity": 110, "channel": 0}, {"type": "note_on", "time": 17, "note": 53, "velocity": 112, "channel": 0}, {"type": "note_off", "time": 148, "note": 53, "velocity": 112, "channel": 0}, {"type": "note_on", "time": 8, "note": 55, "velocity": 106, "channel": 0}, {"type": "note_off", "time": 367, "note": 55, "velocity": 106, "channel": 0}, {"type": "note_on", "time": 34, "note": 58, "velocity": 110, "channel": 0}, {"type": "note_off", "time": 402, "note": 58, "velocity": 110, "channel": 0}, {"type": "note_on", "time": 148, "note": 63, "velocity": 9, "channel": 0}, {"type": "note_off", "time": 1302, "note": 63, "velocity": 9, "channel": 0}, {"type": "note_on", "time": 0, "note": 66, "velocity": 113, "channel": 0}, {"type": "note_off", "time": 69, "note": 66, "velocity": 113, "channel": 0}, {"type": "note_on", "time": 52, "note": 67, "velocity": 115, "channel": 0}, {"type": "note_off", "time": 288, "note": 67, "velocity": 115, "channel": 0}, {"type": "note_on", "time": 43, "note": 70, "velocity": 117, "channel": 0}, {"type": "note_off", "time": 227, "note": 70, "velocity": 117, "channel": 0}, {"type": "note_on", "time": 559, "note": 75, "velocity": 104, "channel": 0}, {"type": "note_off", "time": 1722, "note": 75, "velocity": 104, "channel": 0}, {"type": "note_on", "time": 2421, "note": 73, "velocity": 125, "channel": 0}, {"type": "note_off", "time": 323, "note": 73, "velocity": 125, "channel": 0}, {"type": "note_on", "time": 17, "note": 70, "velocity": 120, "channel": 0}, {"type": "note_off", "time": 314, "note": 70, "velocity": 120, "channel": 0}, {"type": "note_on", "time": 288, "note": 63, "velocity": 120, "channel": 0}, {"type": "note_off", "time": 367, "note": 63, "velocity": 120, "channel": 0}, {"type": "note_on", "time": 192, "note": 63, "velocity": 120, "channel": 0}, {"type": "note_off", "time": 402, "note": 63, "velocity": 120, "channel": 0}, {"type": "note_on", "time": 271, "note": 73, "velocity": 124, "channel": 0}, {"type": "note_off", "time": 218, "note": 73, "velocity": 124, "channel": 0}, {"type": "note_on", "time": 34, "note": 72, "velocity": 122, "channel": 0}, {"type": "note_off", "time": 786, "note": 72, "velocity": 122, "channel": 0}, {"type": "note_on", "time": 148, "note": 68, "velocity": 123, "channel": 0}, {"type": "note_off", "time": 262, "note": 68, "velocity": 123, "channel": 0}, {"type": "note_on", "time": 0, "note": 65, "velocity": 115, "channel": 0}, {"type": "note_off", "time": 297, "note": 65, "velocity": 115, "channel": 0}, {"type": "note_on", "time": 17, "note": 63, "velocity": 107, "channel": 0}, {"type": "note_off", "time": 979, "note": 63, "velocity": 107, "channel": 0}, {"type": "note_on", "time": 2526, "note": 73, "velocity": 117, "channel": 0}, {"type": "note_off", "time": 183, "note": 73, "velocity": 117, "channel": 0}, {"type": "note_on", "time": 0, "note": 72, "velocity": 117, "channel": 0}, {"type": "note_off", "time": 646, "note": 72, "velocity": 117, "channel": 0}, {"type": "note_on", "time": 34, "note": 68, "velocity": 121, "channel": 0}, {"type": "note_off", "time": 227, "note": 68, "velocity": 121, "channel": 0}, {"type": "note_on", "time": 26, "note": 65, "velocity": 115, "channel": 0}, {"type": "note_off", "time": 174, "note": 65, "velocity": 115, "channel": 0}, {"type": "note_on", "time": 15, "note": 60, "velocity": 101, "channel": 0}, {"type": "note_off", "time": 267, "note": 60, "velocity": 101, "channel": 0}, {"type": "note_on", "time": 22, "note": 63, "velocity": 111, "channel": 0}, {"type": "note_off", "time": 244, "note": 63, "velocity": 111, "channel": 0}, {"type": "note_on", "time": 0, "note": 67, "velocity": 110, "channel": 0}, {"type": "note_off", "time": 223, "note": 67, "velocity": 110, "channel": 0}, {"type": "note_on", "time": 6, "note": 65, "velocity": 119, "channel": 0}, {"type": "note_off", "time": 273, "note": 65, "velocity": 119, "channel": 0}, {"type": "note_on", "time": 12, "note": 62, "velocity": 122, "channel": 0}, {"type": "note_off", "time": 335, "note": 62, "velocity": 122, "channel": 0}, {"type": "note_on", "time": 2602, "note": 60, "velocity": 111, "channel": 0}, {"type": "note_off", "time": 187, "note": 60, "velocity": 111, "channel": 0}, {"type": "note_on", "time": 8, "note": 59, "velocity": 116, "channel": 0}, {"type": "note_off", "time": 174, "note": 59, "velocity": 116, "channel": 0}, {"type": "note_on", "time": 13, "note": 60, "velocity": 114, "channel": 0}, {"type": "note_off", "time": 240, "note": 60, "velocity": 114, "channel": 0}, {"type": "note_on", "time": 26, "note": 63, "velocity": 109, "channel": 0}, {"type": "note_off", "time": 192, "note": 63, "velocity": 109, "channel": 0}, {"type": "note_on", "time": 34, "note": 65, "velocity": 102, "channel": 0}, {"type": "note_off", "time": 83, "note": 65, "velocity": 102, "channel": 0}, {"type": "note_on", "time": 8, "note": 67, "velocity": 101, "channel": 0}, {"type": "note_off", "time": 87, "note": 67, "velocity": 101, "channel": 0}, {"type": "note_on", "time": 34, "note": 70, "velocity": 118, "channel": 0}, {"type": "note_off", "time": 214, "note": 70, "velocity": 118, "channel": 0}, {"type": "note_on", "time": 17, "note": 69, "velocity": 115, "channel": 0}, {"type": "note_off", "time": 135, "note": 69, "velocity": 115, "channel": 0}, {"type": "note_on", "time": 26, "note": 68, "velocity": 116, "channel": 0}, {"type": "note_off", "time": 192, "note": 68, "velocity": 116, "channel": 0}, {"type": "note_on", "time": 174, "note": 60, "velocity": 105, "channel": 0}, {"type": "note_off", "time": 161, "note": 60, "velocity": 105, "channel": 0}, {"type": "note_on", "time": 13, "note": 67, "velocity": 112, "channel": 0}, {"type": "note_off", "time": 166, "note": 67, "velocity": 112, "channel": 0}, {"type": "note_on", "time": 30, "note": 65, "velocity": 114, "channel": 0}, {"type": "note_off", "time": 148, "note": 65, "velocity": 114, "channel": 0}, {"type": "note_on", "time": 26, "note": 60, "velocity": 113, "channel": 0}, {"type": "note_off", "time": 161, "note": 60, "velocity": 113, "channel": 0}, {"type": "note_on", "time": 78, "note": 64, "velocity": 113, "channel": 0}, {"type": "note_off", "time": 74, "note": 64, "velocity": 113, "channel": 0}, {"type": "note_on", "time": 30, "note": 66, "velocity": 110, "channel": 0}, {"type": "note_off", "time": 249, "note": 66, "velocity": 110, "channel": 0}, {"type": "note_on", "time": 87, "note": 62, "velocity": 118, "channel": 0}, {"type": "note_off", "time": 174, "note": 62, "velocity": 118, "channel": 0}, {"type": "note_on", "time": 21, "note": 61, "velocity": 111, "channel": 0}, {"type": "note_off", "time": 196, "note": 61, "velocity": 111, "channel": 0}, {"type": "note_on", "time": 69, "note": 59, "velocity": 106, "channel": 0}, {"type": "note_off", "time": 148, "note": 59, "velocity": 106, "channel": 0}, {"type": "note_on", "time": 26, "note": 58, "velocity": 108, "channel": 0}, {"type": "note_off", "time": 214, "note": 58, "velocity": 108, "channel": 0}, {"type": "note_on", "time": 113, "note": 56, "velocity": 110, "channel": 0}, {"type": "note_off", "time": 118, "note": 56, "velocity": 110, "channel": 0}, {"type": "note_on", "time": 0, "note": 55, "velocity": 105, "channel": 0}, {"type": "note_off", "time": 218, "note": 55, "velocity": 105, "channel": 0}, {"type": "note_on", "time": 34, "note": 53, "velocity": 104, "channel": 0}, {"type": "note_off", "time": 118, "note": 53, "velocity": 104, "channel": 0}, {"type": "note_on", "time": 41, "note": 51, "velocity": 102, "channel": 0}, {"type": "note_off", "time": 298, "note": 51, "velocity": 102, "channel": 0}, {"type": "note_on", "time": 45, "note": 53, "velocity": 117, "channel": 0}, {"type": "note_off", "time": 321, "note": 53, "velocity": 117, "channel": 0}, {"type": "note_on", "time": 63, "note": 55, "velocity": 105, "channel": 0}, {"type": "note_off", "time": 170, "note": 55, "velocity": 105, "channel": 0}, {"type": "note_on", "time": 8, "note": 58, "velocity": 108, "channel": 0}, {"type": "note_off", "time": 183, "note": 58, "velocity": 108, "channel": 0}, {"type": "note_on", "time": 1997, "note": 58, "velocity": 107, "channel": 0}, {"type": "note_off", "time": 170, "note": 58, "velocity": 107, "channel": 0}, {"type": "note_on", "time": 13, "note": 63, "velocity": 119, "channel": 0}, {"type": "note_off", "time": 249, "note": 63, "velocity": 119, "channel": 0}, {"type": "note_on", "time": 21, "note": 62, "velocity": 118, "channel": 0}, {"type": "note_off", "time": 126, "note": 62, "velocity": 118, "channel": 0}, {"type": "note_on", "time": 21, "note": 63, "velocity": 114, "channel": 0}, {"type": "note_off", "time": 227, "note": 63, "velocity": 114, "channel": 0}, {"type": "note_on", "time": 39, "note": 65, "velocity": 113, "channel": 0}, {"type": "note_off", "time": 126, "note": 65, "velocity": 113, "channel": 0}, {"type": "note_on", "time": 13, "note": 67, "velocity": 120, "channel": 0}, {"type": "note_off", "time": 257, "note": 67, "velocity": 120, "channel": 0}, {"type": "note_on", "time": 78, "note": 63, "velocity": 119, "channel": 0}, {"type": "note_off", "time": 284, "note": 63, "velocity": 119, "channel": 0}, {"type": "note_on", "time": 4161, "note": 63, "velocity": 116, "channel": 0}, {"type": "note_off", "time": 214, "note": 63, "velocity": 116, "channel": 0}, {"type": "note_on", "time": 0, "note": 68, "velocity": 123, "channel": 0}, {"type": "note_off", "time": 218, "note": 68, "velocity": 123, "channel": 0}, {"type": "note_on", "time": 30, "note": 67, "velocity": 119, "channel": 0}, {"type": "note_off", "time": 179, "note": 67, "velocity": 119, "channel": 0}, {"type": "note_on", "time": 4, "note": 66, "velocity": 118, "channel": 0}, {"type": "note_off", "time": 205, "note": 66, "velocity": 118, "channel": 0}, {"type": "note_on", "time": 13, "note": 63, "velocity": 115, "channel": 0}, {"type": "note_off", "time": 196, "note": 63, "velocity": 115, "channel": 0}, {"type": "note_on", "time": 0, "note": 68, "velocity": 118, "channel": 0}, {"type": "note_off", "time": 205, "note": 68, "velocity": 118, "channel": 0}, {"type": "note_on", "time": 16, "note": 67, "velocity": 121, "channel": 0}, {"type": "note_off", "time": 105, "note": 67, "velocity": 121, "channel": 0}, {"type": "note_on", "time": 24, "note": 66, "velocity": 112, "channel": 0}, {"type": "note_off", "time": 90, "note": 66, "velocity": 112, "channel": 0}, {"type": "note_on", "time": 31, "note": 66, "velocity": 116, "channel": 0}, {"type": "note_off", "time": 174, "note": 66, "velocity": 116, "channel": 0}, {"type": "note_on", "time": 29, "note": 63, "velocity": 109, "channel": 0}, {"type": "note_off", "time": 205, "note": 63, "velocity": 109, "channel": 0}, {"type": "note_on", "time": 21, "note": 68, "velocity": 119, "channel": 0}, {"type": "note_off", "time": 222, "note": 68, "velocity": 119, "channel": 0}, {"type": "note_on", "time": 17, "note": 67, "velocity": 120, "channel": 0}, {"type": "note_off", "time": 90, "note": 67, "velocity": 120, "channel": 0}, {"type": "note_on", "time": 12, "note": 66, "velocity": 114, "channel": 0}, {"type": "note_off", "time": 71, "note": 66, "velocity": 114, "channel": 0}, {"type": "note_on", "time": 21, "note": 66, "velocity": 115, "channel": 0}, {"type": "note_off", "time": 130, "note": 66, "velocity": 115, "channel": 0}, {"type": "note_on", "time": 19, "note": 63, "velocity": 109, "channel": 0}, {"type": "note_off", "time": 183, "note": 63, "velocity": 109, "channel": 0}, {"type": "note_on", "time": 48, "note": 68, "velocity": 115, "channel": 0}, {"type": "note_off", "time": 205, "note": 68, "velocity": 115, "channel": 0}, {"type": "note_on", "time": 13, "note": 67, "velocity": 117, "channel": 0}, {"type": "note_off", "time": 96, "note": 67, "velocity": 117, "channel": 0}, {"type": "note_on", "time": 17, "note": 66, "velocity": 115, "channel": 0}, {"type": "note_off", "time": 104, "note": 66, "velocity": 115, "channel": 0}, {"type": "note_on", "time": 21, "note": 66, "velocity": 110, "channel": 0}, {"type": "note_off", "time": 96, "note": 66, "velocity": 110, "channel": 0}, {"type": "note_on", "time": 30, "note": 63, "velocity": 103, "channel": 0}, {"type": "note_off", "time": 201, "note": 63, "velocity": 103, "channel": 0}, {"type": "note_on", "time": 8, "note": 68, "velocity": 114, "channel": 0}, {"type": "note_off", "time": 227, "note": 68, "velocity": 114, "channel": 0}, {"type": "note_on", "time": 0, "note": 67, "velocity": 112, "channel": 0}, {"type": "note_off", "time": 87, "note": 67, "velocity": 112, "channel": 0}, {"type": "note_on", "time": 31, "note": 66, "velocity": 116, "channel": 0}, {"type": "note_off", "time": 83, "note": 66, "velocity": 116, "channel": 0}, {"type": "note_on", "time": 31, "note": 66, "velocity": 108, "channel": 0}, {"type": "note_off", "time": 177, "note": 66, "velocity": 108, "channel": 0}, {"type": "note_on", "time": 47, "note": 63, "velocity": 106, "channel": 0}, {"type": "note_off", "time": 166, "note": 63, "velocity": 106, "channel": 0}, {"type": "note_on", "time": 34, "note": 68, "velocity": 113, "channel": 0}, {"type": "note_off", "time": 214, "note": 68, "velocity": 113, "channel": 0}, {"type": "note_on", "time": 13, "note": 67, "velocity": 116, "channel": 0}, {"type": "note_off", "time": 96, "note": 67, "velocity": 116, "channel": 0}, {"type": "note_on", "time": 30, "note": 66, "velocity": 115, "channel": 0}, {"type": "note_off", "time": 80, "note": 66, "velocity": 115, "channel": 0}, {"type": "note_on", "time": 34, "note": 66, "velocity": 118, "channel": 0}, {"type": "note_off", "time": 155, "note": 66, "velocity": 118, "channel": 0}, {"type": "note_on", "time": 48, "note": 63, "velocity": 113, "channel": 0}, {"type": "note_off", "time": 139, "note": 63, "velocity": 113, "channel": 0}, {"type": "note_on", "time": 26, "note": 68, "velocity": 115, "channel": 0}, {"type": "note_off", "time": 192, "note": 68, "velocity": 115, "channel": 0}, {"type": "note_on", "time": 24, "note": 67, "velocity": 117, "channel": 0}, {"type": "note_off", "time": 93, "note": 67, "velocity": 117, "channel": 0}, {"type": "note_on", "time": 21, "note": 66, "velocity": 111, "channel": 0}, {"type": "note_off", "time": 90, "note": 66, "velocity": 111, "channel": 0}, {"type": "note_on", "time": 15, "note": 66, "velocity": 110, "channel": 0}, {"type": "note_off", "time": 174, "note": 66, "velocity": 110, "channel": 0}, {"type": "note_on", "time": 21, "note": 63, "velocity": 112, "channel": 0}, {"type": "note_off", "time": 144, "note": 63, "velocity": 112, "channel": 0}, {"type": "note_on", "time": 4, "note": 68, "velocity": 116, "channel": 0}, {"type": "note_off", "time": 135, "note": 68, "velocity": 116, "channel": 0}, {"type": "note_on", "time": 8, "note": 67, "velocity": 115, "channel": 0}, {"type": "note_off", "time": 118, "note": 67, "velocity": 115, "channel": 0}, {"type": "note_on", "time": 17, "note": 66, "velocity": 111, "channel": 0}, {"type": "note_off", "time": 122, "note": 66, "velocity": 111, "channel": 0}, {"type": "note_on", "time": 26, "note": 63, "velocity": 104, "channel": 0}, {"type": "note_off", "time": 196, "note": 63, "velocity": 104, "channel": 0}, {"type": "note_on", "time": 4, "note": 68, "velocity": 111, "channel": 0}, {"type": "note_off", "time": 166, "note": 68, "velocity": 111, "channel": 0}, {"type": "note_on", "time": 19, "note": 67, "velocity": 112, "channel": 0}, {"type": "note_off", "time": 142, "note": 67, "velocity": 112, "channel": 0}, {"type": "note_on", "time": 24, "note": 66, "velocity": 109, "channel": 0}, {"type": "note_off", "time": 149, "note": 66, "velocity": 109, "channel": 0}, {"type": "note_on", "time": 0, "note": 63, "velocity": 109, "channel": 0}, {"type": "note_on", "time": 142, "note": 68, "velocity": 110, "channel": 0}, {"type": "note_off", "time": 0, "note": 63, "velocity": 109, "channel": 0}, {"type": "note_off", "time": 167, "note": 68, "velocity": 110, "channel": 0}, {"type": "note_on", "time": 0, "note": 67, "velocity": 111, "channel": 0}, {"type": "note_off", "time": 105, "note": 67, "velocity": 111, "channel": 0}, {"type": "note_on", "time": 6, "note": 66, "velocity": 106, "channel": 0}, {"type": "note_off", "time": 174, "note": 66, "velocity": 106, "channel": 0}, {"type": "note_on", "time": 49, "note": 63, "velocity": 110, "channel": 0}, {"type": "note_off", "time": 111, "note": 63, "velocity": 110, "channel": 0}, {"type": "note_on", "time": 0, "note": 68, "velocity": 113, "channel": 0}, {"type": "note_off", "time": 130, "note": 68, "velocity": 113, "channel": 0}, {"type": "note_on", "time": 6, "note": 67, "velocity": 117, "channel": 0}, {"type": "note_off", "time": 155, "note": 67, "velocity": 117, "channel": 0}, {"type": "note_on", "time": 18, "note": 66, "velocity": 114, "channel": 0}, {"type": "note_off", "time": 167, "note": 66, "velocity": 114, "channel": 0}, {"type": "note_on", "time": 43, "note": 63, "velocity": 114, "channel": 0}, {"type": "note_off", "time": 135, "note": 63, "velocity": 114, "channel": 0}, {"type": "note_on", "time": 4, "note": 68, "velocity": 112, "channel": 0}, {"type": "note_off", "time": 118, "note": 68, "velocity": 112, "channel": 0}, {"type": "note_on", "time": 34, "note": 67, "velocity": 115, "channel": 0}, {"type": "note_off", "time": 131, "note": 67, "velocity": 115, "channel": 0}, {"type": "note_on", "time": 13, "note": 66, "velocity": 109, "channel": 0}, {"type": "note_off", "time": 118, "note": 66, "velocity": 109, "channel": 0}, {"type": "note_on", "time": 21, "note": 63, "velocity": 105, "channel": 0}, {"type": "note_off", "time": 161, "note": 63, "velocity": 105, "channel": 0}, {"type": "note_on", "time": 4, "note": 68, "velocity": 113, "channel": 0}, {"type": "note_off", "time": 157, "note": 68, "velocity": 113, "channel": 0}, {"type": "note_on", "time": 8, "note": 67, "velocity": 114, "channel": 0}, {"type": "note_off", "time": 139, "note": 67, "velocity": 114, "channel": 0}, {"type": "note_on", "time": 0, "note": 66, "velocity": 107, "channel": 0}, {"type": "note_off", "time": 131, "note": 66, "velocity": 107, "channel": 0}, {"type": "note_on", "time": 39, "note": 63, "velocity": 111, "channel": 0}, {"type": "note_off", "time": 131, "note": 63, "velocity": 111, "channel": 0}, {"type": "note_on", "time": 54, "note": 68, "velocity": 120, "channel": 0}, {"type": "note_off", "time": 284, "note": 68, "velocity": 120, "channel": 0}, {"type": "note_on", "time": 7, "note": 66, "velocity": 109, "channel": 0}, {"type": "note_off", "time": 170, "note": 66, "velocity": 109, "channel": 0}, {"type": "note_on", "time": 30, "note": 63, "velocity": 105, "channel": 0}, {"type": "note_off", "time": 183, "note": 63, "velocity": 105, "channel": 0}, {"type": "note_on", "time": 85, "note": 68, "velocity": 119, "channel": 0}, {"type": "note_off", "time": 202, "note": 68, "velocity": 119, "channel": 0}, {"type": "note_on", "time": 0, "note": 66, "velocity": 108, "channel": 0}, {"type": "note_off", "time": 166, "note": 66, "velocity": 108, "channel": 0}, {"type": "note_on", "time": 13, "note": 63, "velocity": 111, "channel": 0}, {"type": "note_off", "time": 244, "note": 63, "velocity": 111, "channel": 0}, {"type": "note_on", "time": 60, "note": 68, "velocity": 119, "channel": 0}, {"type": "note_off", "time": 170, "note": 68, "velocity": 119, "channel": 0}, {"type": "note_on", "time": 1, "note": 66, "velocity": 109, "channel": 0}, {"type": "note_off", "time": 135, "note": 66, "velocity": 109, "channel": 0}, {"type": "note_on", "time": 48, "note": 63, "velocity": 108, "channel": 0}, {"type": "note_off", "time": 135, "note": 63, "velocity": 108, "channel": 0}, {"type": "note_on", "time": 37, "note": 68, "velocity": 116, "channel": 0}, {"type": "note_off", "time": 179, "note": 68, "velocity": 116, "channel": 0}, {"type": "note_on", "time": 5, "note": 66, "velocity": 106, "channel": 0}, {"type": "note_off", "time": 135, "note": 66, "velocity": 106, "channel": 0}, {"type": "note_on", "time": 26, "note": 63, "velocity": 113, "channel": 0}, {"type": "note_off", "time": 179, "note": 63, "velocity": 113, "channel": 0}, {"type": "note_on", "time": 24, "note": 68, "velocity": 118, "channel": 0}, {"type": "note_off", "time": 157, "note": 68, "velocity": 118, "channel": 0}, {"type": "note_on", "time": 19, "note": 66, "velocity": 108, "channel": 0}, {"type": "note_off", "time": 122, "note": 66, "velocity": 108, "channel": 0}, {"type": "note_on", "time": 21, "note": 63, "velocity": 113, "channel": 0}, {"type": "note_off", "time": 148, "note": 63, "velocity": 113, "channel": 0}, {"type": "note_on", "time": 30, "note": 68, "velocity": 117, "channel": 0}, {"type": "note_off", "time": 153, "note": 68, "velocity": 117, "channel": 0}, {"type": "note_on", "time": 21, "note": 66, "velocity": 106, "channel": 0}, {"type": "note_off", "time": 174, "note": 66, "velocity": 106, "channel": 0}, {"type": "note_on", "time": 0, "note": 63, "velocity": 112, "channel": 0}, {"type": "note_off", "time": 203, "note": 63, "velocity": 112, "channel": 0}, {"type": "note_on", "time": 0, "note": 68, "velocity": 113, "channel": 0}, {"type": "note_off", "time": 135, "note": 68, "velocity": 113, "channel": 0}, {"type": "note_on", "time": 19, "note": 66, "velocity": 109, "channel": 0}, {"type": "note_off", "time": 126, "note": 66, "velocity": 109, "channel": 0}, {"type": "note_on", "time": 8, "note": 63, "velocity": 114, "channel": 0}, {"type": "note_off", "time": 161, "note": 63, "velocity": 114, "channel": 0}, {"type": "note_on", "time": 1, "note": 68, "velocity": 111, "channel": 0}, {"type": "note_off", "time": 201, "note": 68, "velocity": 111, "channel": 0}, {"type": "note_on", "time": 6, "note": 66, "velocity": 108, "channel": 0}, {"type": "note_off", "time": 104, "note": 66, "velocity": 108, "channel": 0}, {"type": "note_on", "time": 34, "note": 63, "velocity": 114, "channel": 0}, {"type": "note_off", "time": 115, "note": 63, "velocity": 114, "channel": 0}, {"type": "note_on", "time": 0, "note": 68, "velocity": 113, "channel": 0}, {"type": "note_off", "time": 144, "note": 68, "velocity": 113, "channel": 0}, {"type": "note_on", "time": 29, "note": 66, "velocity": 108, "channel": 0}, {"type": "note_off", "time": 131, "note": 66, "velocity": 108, "channel": 0}, {"type": "note_on", "time": 0, "note": 63, "velocity": 113, "channel": 0}, {"type": "note_off", "time": 124, "note": 63, "velocity": 113, "channel": 0}, {"type": "note_on", "time": 0, "note": 68, "velocity": 113, "channel": 0}, {"type": "note_off", "time": 135, "note": 68, "velocity": 113, "channel": 0}, {"type": "note_on", "time": 19, "note": 66, "velocity": 115, "channel": 0}, {"type": "note_off", "time": 122, "note": 66, "velocity": 115, "channel": 0}, {"type": "note_on", "time": 17, "note": 63, "velocity": 115, "channel": 0}, {"type": "note_off", "time": 113, "note": 63, "velocity": 115, "channel": 0}, {"type": "note_on", "time": 23, "note": 68, "velocity": 113, "channel": 0}, {"type": "note_off", "time": 148, "note": 68, "velocity": 113, "channel": 0}, {"type": "note_on", "time": 2, "note": 66, "velocity": 109, "channel": 0}, {"type": "note_off", "time": 96, "note": 66, "velocity": 109, "channel": 0}, {"type": "note_on", "time": 17, "note": 63, "velocity": 103, "channel": 0}, {"type": "note_off", "time": 118, "note": 63, "velocity": 103, "channel": 0}, {"type": "note_on", "time": 2, "note": 68, "velocity": 104, "channel": 0}, {"type": "note_off", "time": 118, "note": 68, "velocity": 104, "channel": 0}, {"type": "note_on", "time": 15, "note": 66, "velocity": 110, "channel": 0}, {"type": "note_off", "time": 52, "note": 66, "velocity": 110, "channel": 0}, {"type": "note_on", "time": 43, "note": 63, "velocity": 104, "channel": 0}, {"type": "note_off", "time": 93, "note": 63, "velocity": 104, "channel": 0}, {"type": "note_on", "time": 0, "note": 68, "velocity": 105, "channel": 0}, {"type": "note_off", "time": 91, "note": 68, "velocity": 105, "channel": 0}, {"type": "note_on", "time": 11, "note": 66, "velocity": 107, "channel": 0}, {"type": "note_off", "time": 100, "note": 66, "velocity": 107, "channel": 0}, {"type": "note_on", "time": 30, "note": 63, "velocity": 105, "channel": 0}, {"type": "note_off", "time": 78, "note": 63, "velocity": 105, "channel": 0}, {"type": "note_on", "time": 16, "note": 68, "velocity": 108, "channel": 0}, {"type": "note_off", "time": 91, "note": 68, "velocity": 108, "channel": 0}, {"type": "note_on", "time": 5, "note": 66, "velocity": 105, "channel": 0}, {"type": "note_off", "time": 74, "note": 66, "velocity": 105, "channel": 0}, {"type": "note_on", "time": 8, "note": 63, "velocity": 114, "channel": 0}, {"type": "note_off", "time": 113, "note": 63, "velocity": 114, "channel": 0}, {"type": "note_on", "time": 45, "note": 68, "velocity": 109, "channel": 0}, {"type": "note_off", "time": 205, "note": 68, "velocity": 109, "channel": 0}, {"type": "note_on", "time": 21, "note": 66, "velocity": 108, "channel": 0}, {"type": "note_off", "time": 220, "note": 66, "velocity": 108, "channel": 0}, {"type": "note_on", "time": 27, "note": 63, "velocity": 110, "channel": 0}, {"type": "note_off", "time": 904, "note": 63, "velocity": 110, "channel": 0}, {"type": "note_on", "time": 1783, "note": 61, "velocity": 114, "channel": 0}, {"type": "note_off", "time": 262, "note": 61, "velocity": 114, "channel": 0}, {"type": "note_on", "time": 3, "note": 58, "velocity": 108, "channel": 0}, {"type": "note_off", "time": 149, "note": 58, "velocity": 108, "channel": 0}, {"type": "note_on", "time": 24, "note": 61, "velocity": 122, "channel": 0}, {"type": "note_off", "time": 230, "note": 61, "velocity": 122, "channel": 0}, {"type": "note_on", "time": 18, "note": 63, "velocity": 117, "channel": 0}, {"type": "note_off", "time": 180, "note": 63, "velocity": 117, "channel": 0}, {"type": "note_on", "time": 18, "note": 65, "velocity": 120, "channel": 0}, {"type": "note_off", "time": 223, "note": 65, "velocity": 120, "channel": 0}, {"type": "note_on", "time": 18, "note": 63, "velocity": 122, "channel": 0}, {"type": "note_off", "time": 167, "note": 63, "velocity": 122, "channel": 0}, {"type": "note_on", "time": 31, "note": 61, "velocity": 116, "channel": 0}, {"type": "note_off", "time": 435, "note": 61, "velocity": 116, "channel": 0}, {"type": "note_on", "time": 55, "note": 58, "velocity": 120, "channel": 0}, {"type": "note_off", "time": 136, "note": 58, "velocity": 120, "channel": 0}, {"type": "note_on", "time": 24, "note": 61, "velocity": 122, "channel": 0}, {"type": "note_off", "time": 397, "note": 61, "velocity": 122, "channel": 0}, {"type": "note_on", "time": 49, "note": 58, "velocity": 94, "channel": 0}, {"type": "note_off", "time": 142, "note": 58, "velocity": 94, "channel": 0}, {"type": "note_on", "time": 6, "note": 61, "velocity": 116, "channel": 0}, {"type": "note_off", "time": 385, "note": 61, "velocity": 116, "channel": 0}, {"type": "note_on", "time": 24, "note": 58, "velocity": 101, "channel": 0}, {"type": "note_off", "time": 105, "note": 58, "velocity": 101, "channel": 0}, {"type": "note_on", "time": 74, "note": 61, "velocity": 118, "channel": 0}, {"type": "note_off", "time": 447, "note": 61, "velocity": 118, "channel": 0}, {"type": "note_on", "time": 24, "note": 58, "velocity": 88, "channel": 0}, {"type": "note_off", "time": 142, "note": 58, "velocity": 88, "channel": 0}, {"type": "note_on", "time": 24, "note": 61, "velocity": 116, "channel": 0}, {"type": "note_off", "time": 478, "note": 61, "velocity": 116, "channel": 0}, {"type": "note_on", "time": 24, "note": 58, "velocity": 104, "channel": 0}, {"type": "note_on", "time": 341, "note": 51, "velocity": 99, "channel": 0}, {"type": "note_off", "time": 0, "note": 58, "velocity": 104, "channel": 0}, {"type": "note_off", "time": 279, "note": 51, "velocity": 99, "channel": 0}, {"type": "note_on", "time": 62, "note": 54, "velocity": 122, "channel": 0}, {"type": "note_off", "time": 428, "note": 54, "velocity": 122, "channel": 0}, {"type": "note_on", "time": 0, "note": 56, "velocity": 112, "channel": 0}, {"type": "note_off", "time": 397, "note": 56, "velocity": 112, "channel": 0}, {"type": "note_on", "time": 31, "note": 58, "velocity": 105, "channel": 0}, {"type": "note_off", "time": 677, "note": 58, "velocity": 105, "channel": 0}, {"type": "note_on", "time": 5259, "note": 68, "velocity": 123, "channel": 0}, {"type": "note_off", "time": 130, "note": 68, "velocity": 123, "channel": 0}, {"type": "note_on", "time": 71, "note": 68, "velocity": 115, "channel": 0}, {"type": "note_off", "time": 96, "note": 68, "velocity": 115, "channel": 0}, {"type": "note_on", "time": 18, "note": 72, "velocity": 106, "channel": 0}, {"type": "note_off", "time": 273, "note": 72, "velocity": 106, "channel": 0}, {"type": "note_on", "time": 0, "note": 75, "velocity": 93, "channel": 0}, {"type": "note_off", "time": 223, "note": 75, "velocity": 93, "channel": 0}, {"type": "note_on", "time": 88, "note": 79, "velocity": 113, "channel": 0}, {"type": "note_off", "time": 227, "note": 79, "velocity": 113, "channel": 0}, {"type": "note_on", "time": 402, "note": 78, "velocity": 115, "channel": 0}, {"type": "note_off", "time": 577, "note": 78, "velocity": 115, "channel": 0}, {"type": "note_on", "time": 6268, "note": 73, "velocity": 116, "channel": 0}, {"type": "note_off", "time": 99, "note": 73, "velocity": 116, "channel": 0}, {"type": "note_on", "time": 49, "note": 75, "velocity": 115, "channel": 0}, {"type": "note_off", "time": 1538, "note": 75, "velocity": 115, "channel": 0}, {"type": "note_on", "time": 78, "note": 73, "velocity": 109, "channel": 0}, {"type": "note_off", "time": 253, "note": 73, "velocity": 109, "channel": 0}, {"type": "note_on", "time": 26, "note": 73, "velocity": 115, "channel": 0}, {"type": "note_off", "time": 244, "note": 73, "velocity": 115, "channel": 0}, {"type": "note_on", "time": 34, "note": 68, "velocity": 109, "channel": 0}, {"type": "note_off", "time": 183, "note": 68, "velocity": 109, "channel": 0}, {"type": "note_on", "time": 61, "note": 70, "velocity": 112, "channel": 0}, {"type": "note_off", "time": 218, "note": 70, "velocity": 112, "channel": 0}, {"type": "note_on", "time": 26, "note": 66, "velocity": 110, "channel": 0}, {"type": "note_off", "time": 166, "note": 66, "velocity": 110, "channel": 0}, {"type": "note_on", "time": 8, "note": 65, "velocity": 115, "channel": 0}, {"type": "note_off", "time": 166, "note": 65, "velocity": 115, "channel": 0}, {"type": "note_on", "time": 26, "note": 64, "velocity": 122, "channel": 0}, {"type": "note_off", "time": 201, "note": 64, "velocity": 122, "channel": 0}, {"type": "note_on", "time": 0, "note": 63, "velocity": 119, "channel": 0}, {"type": "note_off", "time": 253, "note": 63, "velocity": 119, "channel": 0}, {"type": "note_on", "time": 26, "note": 61, "velocity": 114, "channel": 0}, {"type": "note_off", "time": 174, "note": 61, "velocity": 114, "channel": 0}, {"type": "note_on", "time": 61, "note": 56, "velocity": 108, "channel": 0}, {"type": "note_off", "time": 166, "note": 56, "velocity": 108, "channel": 0}, {"type": "note_on", "time": 43, "note": 60, "velocity": 106, "channel": 0}, {"type": "note_off", "time": 139, "note": 60, "velocity": 106, "channel": 0}, {"type": "note_on", "time": 0, "note": 63, "velocity": 116, "channel": 0}, {"type": "note_off", "time": 209, "note": 63, "velocity": 116, "channel": 0}, {"type": "note_on", "time": 8, "note": 61, "velocity": 113, "channel": 0}, {"type": "note_off", "time": 166, "note": 61, "velocity": 113, "channel": 0}, {"type": "note_on", "time": 16, "note": 59, "velocity": 103, "channel": 0}, {"type": "note_off", "time": 170, "note": 59, "velocity": 103, "channel": 0}, {"type": "note_on", "time": 31, "note": 56, "velocity": 99, "channel": 0}, {"type": "note_off", "time": 157, "note": 56, "velocity": 99, "channel": 0}, {"type": "note_on", "time": 26, "note": 55, "velocity": 121, "channel": 0}, {"type": "note_off", "time": 183, "note": 55, "velocity": 121, "channel": 0}, {"type": "note_on", "time": 21, "note": 56, "velocity": 122, "channel": 0}, {"type": "note_off", "time": 80, "note": 56, "velocity": 122, "channel": 0}, {"type": "note_on", "time": 12, "note": 57, "velocity": 119, "channel": 0}, {"type": "note_off", "time": 80, "note": 57, "velocity": 119, "channel": 0}, {"type": "note_on", "time": 18, "note": 58, "velocity": 119, "channel": 0}, {"type": "note_off", "time": 115, "note": 58, "velocity": 119, "channel": 0}, {"type": "note_on", "time": 21, "note": 53, "velocity": 109, "channel": 0}, {"type": "note_off", "time": 157, "note": 53, "velocity": 109, "channel": 0}, {"type": "note_on", "time": 16, "note": 54, "velocity": 102, "channel": 0}, {"type": "note_off", "time": 226, "note": 54, "velocity": 102, "channel": 0}, {"type": "note_on", "time": 0, "note": 56, "velocity": 109, "channel": 0}, {"type": "note_off", "time": 227, "note": 56, "velocity": 109, "channel": 0}, {"type": "note_on", "time": 17, "note": 54, "velocity": 103, "channel": 0}, {"type": "note_off", "time": 244, "note": 54, "velocity": 103, "channel": 0}, {"type": "note_on", "time": 17, "note": 53, "velocity": 104, "channel": 0}, {"type": "note_off", "time": 1267, "note": 53, "velocity": 104, "channel": 0}, {"type": "note_on", "time": 34, "note": 51, "velocity": 100, "channel": 0}, {"type": "note_off", "time": 183, "note": 51, "velocity": 100, "channel": 0}, {"type": "note_on", "time": 87, "note": 55, "velocity": 100, "channel": 0}, {"type": "note_off", "time": 367, "note": 55, "velocity": 100, "channel": 0}, {"type": "note_on", "time": 43, "note": 58, "velocity": 109, "channel": 0}, {"type": "note_off", "time": 524, "note": 58, "velocity": 109, "channel": 0}, {"type": "note_on", "time": 3710, "note": 63, "velocity": 119, "channel": 0}, {"type": "note_off", "time": 211, "note": 63, "velocity": 119, "channel": 0}, {"type": "note_on", "time": 6, "note": 66, "velocity": 114, "channel": 0}, {"type": "note_off", "time": 223, "note": 66, "velocity": 114, "channel": 0}, {"type": "note_on", "time": 9, "note": 67, "velocity": 111, "channel": 0}, {"type": "note_off", "time": 209, "note": 67, "velocity": 111, "channel": 0}, {"type": "note_on", "time": 8, "note": 68, "velocity": 105, "channel": 0}, {"type": "note_off", "time": 179, "note": 68, "velocity": 105, "channel": 0}, {"type": "note_on", "time": 30, "note": 69, "velocity": 106, "channel": 0}, {"type": "note_off", "time": 170, "note": 69, "velocity": 106, "channel": 0}, {"type": "note_on", "time": 7, "note": 70, "velocity": 115, "channel": 0}, {"type": "note_off", "time": 267, "note": 70, "velocity": 115, "channel": 0}, {"type": "note_on", "time": 62, "note": 63, "velocity": 119, "channel": 0}, {"type": "note_off", "time": 230, "note": 63, "velocity": 119, "channel": 0}, {"type": "note_on", "time": 149, "note": 63, "velocity": 100, "channel": 0}, {"type": "note_off", "time": 230, "note": 63, "velocity": 100, "channel": 0}, {"type": "note_on", "time": 6, "note": 66, "velocity": 112, "channel": 0}, {"type": "note_off", "time": 186, "note": 66, "velocity": 112, "channel": 0}, {"type": "note_on", "time": 2, "note": 67, "velocity": 117, "channel": 0}, {"type": "note_off", "time": 183, "note": 67, "velocity": 117, "channel": 0}, {"type": "note_on", "time": 21, "note": 63, "velocity": 121, "channel": 0}, {"type": "note_off", "time": 257, "note": 63, "velocity": 121, "channel": 0}, {"type": "note_on", "time": 21, "note": 61, "velocity": 115, "channel": 0}, {"type": "note_off", "time": 218, "note": 61, "velocity": 115, "channel": 0}, {"type": "note_on", "time": 34, "note": 66, "velocity": 112, "channel": 0}, {"type": "note_off", "time": 292, "note": 66, "velocity": 112, "channel": 0}, {"type": "note_on", "time": 17, "note": 64, "velocity": 122, "channel": 0}, {"type": "note_off", "time": 297, "note": 64, "velocity": 122, "channel": 0}, {"type": "note_on", "time": 17, "note": 61, "velocity": 113, "channel": 0}, {"type": "note_off", "time": 135, "note": 61, "velocity": 113, "channel": 0}, {"type": "note_on", "time": 39, "note": 60, "velocity": 110, "channel": 0}, {"type": "note_off", "time": 375, "note": 60, "velocity": 110, "channel": 0}, {"type": "note_on", "time": 2553, "note": 60, "velocity": 112, "channel": 0}, {"type": "note_off", "time": 180, "note": 60, "velocity": 112, "channel": 0}, {"type": "note_on", "time": 37, "note": 65, "velocity": 108, "channel": 0}, {"type": "note_off", "time": 174, "note": 65, "velocity": 108, "channel": 0}, {"type": "note_on", "time": 6, "note": 67, "velocity": 108, "channel": 0}, {"type": "note_off", "time": 74, "note": 67, "velocity": 108, "channel": 0}, {"type": "note_on", "time": 0, "note": 72, "velocity": 114, "channel": 0}, {"type": "note_off", "time": 192, "note": 72, "velocity": 114, "channel": 0}, {"type": "note_on", "time": 0, "note": 68, "velocity": 116, "channel": 0}, {"type": "note_off", "time": 80, "note": 68, "velocity": 116, "channel": 0}, {"type": "note_on", "time": 12, "note": 65, "velocity": 108, "channel": 0}, {"type": "note_off", "time": 124, "note": 65, "velocity": 108, "channel": 0}, {"type": "note_on", "time": 24, "note": 60, "velocity": 109, "channel": 0}, {"type": "note_off", "time": 142, "note": 60, "velocity": 109, "channel": 0}, {"type": "note_on", "time": 12, "note": 64, "velocity": 126, "channel": 0}, {"type": "note_off", "time": 254, "note": 64, "velocity": 126, "channel": 0}, {"type": "note_on", "time": 15, "note": 60, "velocity": 111, "channel": 0}, {"type": "note_off", "time": 267, "note": 60, "velocity": 111, "channel": 0}, {"type": "note_on", "time": 68, "note": 64, "velocity": 105, "channel": 0}, {"type": "note_off", "time": 74, "note": 64, "velocity": 105, "channel": 0}, {"type": "note_on", "time": 21, "note": 62, "velocity": 107, "channel": 0}, {"type": "note_off", "time": 80, "note": 62, "velocity": 107, "channel": 0}, {"type": "note_on", "time": 18, "note": 60, "velocity": 102, "channel": 0}, {"type": "note_off", "time": 74, "note": 60, "velocity": 102, "channel": 0}, {"type": "note_on", "time": 12, "note": 63, "velocity": 122, "channel": 0}, {"type": "note_off", "time": 248, "note": 63, "velocity": 122, "channel": 0}, {"type": "note_on", "time": 18, "note": 63, "velocity": 120, "channel": 0}, {"type": "note_off", "time": 192, "note": 63, "velocity": 120, "channel": 0}, {"type": "note_on", "time": 22, "note": 62, "velocity": 120, "channel": 0}, {"type": "note_off", "time": 249, "note": 62, "velocity": 120, "channel": 0}, {"type": "note_on", "time": 8, "note": 60, "velocity": 112, "channel": 0}, {"type": "note_off", "time": 174, "note": 60, "velocity": 112, "channel": 0}, {"type": "note_on", "time": 30, "note": 58, "velocity": 106, "channel": 0}, {"type": "note_off", "time": 222, "note": 58, "velocity": 106, "channel": 0}, {"type": "note_on", "time": 30, "note": 57, "velocity": 108, "channel": 0}, {"type": "note_off", "time": 196, "note": 57, "velocity": 108, "channel": 0}, {"type": "note_on", "time": 34, "note": 56, "velocity": 108, "channel": 0}, {"type": "note_off", "time": 257, "note": 56, "velocity": 108, "channel": 0}, {"type": "note_on", "time": 0, "note": 60, "velocity": 108, "channel": 0}, {"type": "note_off", "time": 122, "note": 60, "velocity": 108, "channel": 0}, {"type": "note_on", "time": 0, "note": 55, "velocity": 105, "channel": 0}, {"type": "note_off", "time": 489, "note": 55, "velocity": 105, "channel": 0}, {"type": "note_on", "time": 21, "note": 53, "velocity": 99, "channel": 0}, {"type": "note_off", "time": 96, "note": 53, "velocity": 99, "channel": 0}, {"type": "note_on", "time": 21, "note": 58, "velocity": 109, "channel": 0}, {"type": "note_off", "time": 292, "note": 58, "velocity": 109, "channel": 0}, {"type": "note_on", "time": 39, "note": 56, "velocity": 98, "channel": 0}, {"type": "note_off", "time": 945, "note": 56, "velocity": 98, "channel": 0}, {"type": "note_on", "time": 1032, "note": 63, "velocity": 109, "channel": 0}, {"type": "note_off", "time": 205, "note": 63, "velocity": 109, "channel": 0}, {"type": "note_on", "time": 99, "note": 66, "velocity": 111, "channel": 0}, {"type": "note_off", "time": 422, "note": 66, "velocity": 111, "channel": 0}, {"type": "note_on", "time": 6, "note": 67, "velocity": 117, "channel": 0}, {"type": "note_off", "time": 348, "note": 67, "velocity": 117, "channel": 0}, {"type": "note_on", "time": 18, "note": 66, "velocity": 118, "channel": 0}, {"type": "note_off", "time": 416, "note": 66, "velocity": 118, "channel": 0}, {"type": "note_on", "time": 18, "note": 67, "velocity": 117, "channel": 0}, {"type": "note_off", "time": 366, "note": 67, "velocity": 117, "channel": 0}, {"type": "note_on", "time": 105, "note": 63, "velocity": 120, "channel": 0}, {"type": "note_off", "time": 522, "note": 63, "velocity": 120, "channel": 0}, {"type": "note_on", "time": 43, "note": 65, "velocity": 122, "channel": 0}, {"type": "note_off", "time": 248, "note": 65, "velocity": 122, "channel": 0}, {"type": "note_on", "time": 547, "note": 63, "velocity": 121, "channel": 0}, {"type": "note_off", "time": 335, "note": 63, "velocity": 121, "channel": 0}, {"type": "note_on", "time": 553, "note": 61, "velocity": 120, "channel": 0}, {"type": "note_off", "time": 292, "note": 61, "velocity": 120, "channel": 0}, {"type": "note_on", "time": 845, "note": 58, "velocity": 106, "channel": 0}, {"type": "note_off", "time": 422, "note": 58, "velocity": 106, "channel": 0}, {"type": "note_on", "time": 24, "note": 51, "velocity": 109, "channel": 0}, {"type": "note_off", "time": 634, "note": 51, "velocity": 109, "channel": 0}, {"type": "note_on", "time": 553, "note": 51, "velocity": 113, "channel": 0}, {"type": "note_off", "time": 192, "note": 51, "velocity": 113, "channel": 0}, {"type": "note_on", "time": 49, "note": 56, "velocity": 113, "channel": 0}, {"type": "note_off", "time": 453, "note": 56, "velocity": 113, "channel": 0}, {"type": "note_on", "time": 37, "note": 54, "velocity": 101, "channel": 0}, {"type": "note_off", "time": 118, "note": 54, "velocity": 101, "channel": 0}, {"type": "note_on", "time": 31, "note": 56, "velocity": 112, "channel": 0}, {"type": "note_off", "time": 696, "note": 56, "velocity": 112, "channel": 0}, {"type": "note_on", "time": 62, "note": 54, "velocity": 102, "channel": 0}, {"type": "note_off", "time": 136, "note": 54, "velocity": 102, "channel": 0}, {"type": "note_on", "time": 55, "note": 56, "velocity": 108, "channel": 0}, {"type": "note_off", "time": 1249, "note": 56, "velocity": 108, "channel": 0}, {"type": "note_on", "time": 43, "note": 58, "velocity": 108, "channel": 0}, {"type": "note_off", "time": 230, "note": 58, "velocity": 108, "channel": 0}, {"type": "note_on", "time": 105, "note": 54, "velocity": 106, "channel": 0}, {"type": "note_off", "time": 155, "note": 54, "velocity": 106, "channel": 0}, {"type": "note_on", "time": 31, "note": 55, "velocity": 101, "channel": 0}, {"type": "note_off", "time": 261, "note": 55, "velocity": 101, "channel": 0}, {"type": "note_on", "time": 93, "note": 51, "velocity": 102, "channel": 0}, {"type": "note_off", "time": 1137, "note": 51, "velocity": 102, "channel": 0}, {"type": "note_on", "time": 1069, "note": 55, "velocity": 100, "channel": 0}, {"type": "note_off", "time": 248, "note": 55, "velocity": 100, "channel": 0}, {"type": "note_on", "time": 43, "note": 58, "velocity": 109, "channel": 0}, {"type": "note_off", "time": 435, "note": 58, "velocity": 109, "channel": 0}, {"type": "note_on", "time": 49, "note": 56, "velocity": 108, "channel": 0}, {"type": "note_off", "time": 329, "note": 56, "velocity": 108, "channel": 0}, {"type": "note_on", "time": 223, "note": 59, "velocity": 110, "channel": 0}, {"type": "note_off", "time": 105, "note": 59, "velocity": 110, "channel": 0}, {"type": "note_on", "time": 12, "note": 60, "velocity": 111, "channel": 0}, {"type": "note_off", "time": 304, "note": 60, "velocity": 111, "channel": 0}, {"type": "note_on", "time": 230, "note": 63, "velocity": 115, "channel": 0}, {"type": "note_off", "time": 516, "note": 63, "velocity": 115, "channel": 0}, {"type": "note_on", "time": 74, "note": 63, "velocity": 115, "channel": 0}, {"type": "note_off", "time": 497, "note": 63, "velocity": 115, "channel": 0}, {"type": "note_on", "time": 155, "note": 63, "velocity": 112, "channel": 0}, {"type": "note_off", "time": 460, "note": 63, "velocity": 112, "channel": 0}, {"type": "note_on", "time": 93, "note": 63, "velocity": 113, "channel": 0}, {"type": "note_off", "time": 236, "note": 63, "velocity": 113, "channel": 0}, {"type": "note_on", "time": 55, "note": 61, "velocity": 98, "channel": 0}, {"type": "note_off", "time": 198, "note": 61, "velocity": 98, "channel": 0}, {"type": "note_on", "time": 49, "note": 63, "velocity": 100, "channel": 0}, {"type": "note_off", "time": 2474, "note": 63, "velocity": 100, "channel": 0}, {"type": "end_of_track", "time": 0}]]}