{"ticks_per_beat": 192, "tracks": [[{"type": "note_on", "time": 0, "note": 65, "velocity": 126, "channel": 0}, {"type": "note_off", "time": 99, "note": 65, "velocity": 126, "channel": 0}, {"type": "note_on", "time": 24, "note": 62, "velocity": 107, "channel": 0}, {"type": "note_off", "time": 91, "note": 62, "velocity": 107, "channel": 0}, {"type": "note_on", "time": 0, "note": 58, "velocity": 104, "channel": 0}, {"type": "note_off", "time": 52, "note": 58, "velocity": 104, "channel": 0}, {"type": "note_on", "time": 3, "note": 55, "velocity": 106, "channel": 0}, {"type": "note_off", "time": 82, "note": 55, "velocity": 106, "channel": 0}, {"type": "note_on", "time": 15, "note": 56, "velocity": 116, "channel": 0}, {"type": "note_off", "time": 150, "note": 56, "velocity": 116, "channel": 0}, {"type": "note_on", "time": 154, "note": 65, "velocity": 118, "channel": 0}, {"type": "note_off", "time": 134, "note": 65, "velocity": 118, "channel": 0}, {"type": "note_on", "time": 378, "note": 65, "velocity": 109, "channel": 0}, {"type": "note_on", "time": 93, "note": 63, "velocity": 122, "channel": 0}, {"type": "note_off", "time": 0, "note": 65, "velocity": 109, "channel": 0}, {"type": "note_off", "time": 78, "note": 63, "velocity": 122, "channel": 0}, {"type": "note_on", "time": 11, "note": 60, "velocity": 110, "channel": 0}, {"type": "note_off", "time": 37, "note": 60, "velocity": 110, "channel": 0}, {"type": "note_on", "time": 15, "note": 57, "velocity": 103, "channel": 0}, {"type": "note_off", "time": 46, "note": 57, "velocity": 103, "channel": 0}, {"type": "note_on", "time": 52, "note": 56, "velocity": 115, "channel": 0}, {"type": "note_off", "time": 115, "note": 56, "velocity": 115, "channel": 0}, {"type": "note_on", "time": 3, "note": 57, "velocity": 112, "channel": 0}, {"type": "note_off", "time": 41, "note": 57, "velocity": 112, "channel": 0}, {"type": "note_on", "time": 124, "note": 65, "velocity": 124, "channel": 0}, {"type": "note_off", "time": 140, "note": 65, "velocity": 124, "channel": 0}, {"type": "note_on", "time": 0, "note": 63, "velocity": 90, "channel": 0}, {"type": "note_off", "time": 39, "note": 63, "velocity": 90, "channel": 0}, {"type": "note_on", "time": 7, "note": 60, "velocity": 111, "channel": 0}, {"type": "note_off", "time": 39, "note": 60, "velocity": 111, "channel": 0}, {"type": "note_on", "time": 25, "note": 57, "velocity": 102, "channel": 0}, {"type": "note_off", "time": 76, "note": 57, "velocity": 102, "channel": 0}, {"type": "note_on", "time": 75, "note": 55, "velocity": 100, "channel": 0}, {"type": "note_off", "time": 74, "note": 55, "velocity": 100, "channel": 0}, {"type": "note_on", "time": 4, "note": 56, "velocity": 117, "channel": 0}, {"type": "note_off", "time": 70, "note": 56, "velocity": 117, "channel": 0}, {"type": "note_on", "time": 0, "note": 57, "velocity": 110, "channel": 0}, {"type": "track_name", "name": "Melody", "time": 96}, {"type": "set_tempo", "tempo": 200668, "time": 0}, {"type": "key_signature", "key": "Eb", "time": 0}, {"type": "time_signature", "numerator": 4, "denominator": 4, "clocks_per_click": 24, "notated_32nd_notes_per_beat": 8, "time": 0}, {"type": "note_off", "time": 5, "note": 57, "velocity": 110, "channel": 0}, {"type": "note_on", "time": 109, "note": 57, "velocity": 111, "channel": 0}, {"type": "note_off", "time": 120, "note": 57, "velocity": 111, "channel": 0}, {"type": "note_on", "time": 66, "note": 61, "velocity": 110, "channel": 0}, {"type": "note_off", "time": 111, "note": 61, "velocity": 110, "channel": 0}, {"type": "note_on", "time": 101, "note": 65, "velocity": 96, "channel": 0}, {"type": "note_off", "time": 54, "note": 65, "velocity": 96, "channel": 0}, {"type": "note_on", "time": 15, "note": 69, "velocity": 119, "channel": 0}, {"type": "note_on", "time": 118, "note": 67, "velocity": 118, "channel": 0}, {"type": "note_off", "time": 0, "note": 69, "velocity": 119, "channel": 0}, {"type": "note_off", "time": 88, "note": 67, "velocity": 118, "channel": 0}, {"type": "note_on", "time": 6, "note": 65, "velocity": 120, "channel": 0}, {"type": "note_off", "time": 108, "note": 65, "velocity": 120, "channel": 0}, {"type": "note_on", "time": 1, "note": 63, "velocity": 110, "channel": 0}, {"type": "note_off", "time": 83, "note": 63, "velocity": 110, "channel": 0}, {"type": "note_on", "time": 12, "note": 65, "velocity": 114, "channel": 0}, {"type": "note_off", "time": 37, "note": 65, "velocity": 114, "channel": 0}, {"type": "note_on", "time": 12, "note": 64, "velocity": 115, "channel": 0}, {"type": "note_on", "time": 70, "note": 62, "velocity": 114, "channel": 0}, {"type": "note_off", "time": 0, "note": 64, "velocity": 115, "channel": 0}, {"type": "note_off", "time": 49, "note": 62, "velocity": 114, "channel": 0}, {"type": "note_on", "time": 5, "note": 63, "velocity": 119, "channel": 0}, {"type": "note_on", "time": 45, "note": 61, "velocity": 110, "channel": 0}, {"type": "note_off", "time": 0, "note": 63, "velocity": 119, "channel": 0}, {"type": "note_off", "time": 101, "note": 61, "velocity": 110, "channel": 0}, {"type": "note_on", "time": 1563, "note": 63, "velocity": 113, "channel": 0}, {"type": "note_off", "time": 55, "note": 63, "velocity": 113, "channel": 0}, {"type": "note_on", "time": 0, "note": 65, "velocity": 115, "channel": 0}, {"type": "note_off", "time": 51, "note": 65, "velocity": 115, "channel": 0}, {"type": "note_on", "time": 0, "note": 66, "velocity": 110, "channel": 0}, {"type": "note_off", "time": 41, "note": 66, "velocity": 110, "channel": 0}, {"type": "note_on", "time": 19, "note": 68, "velocity": 120, "channel": 0}, {"type": "note_off", "time": 112, "note": 68, "velocity": 120, "channel": 0}, {"type": "note_on", "time": 0, "note": 64, "velocity": 107, "channel": 0}, {"type": "note_on", "time": 65, "note": 61, "velocity": 115, "channel": 0}, {"type": "note_off", "time": 0, "note": 64, "velocity": 107, "channel": 0}, {"type": "note_off", "time": 79, "note": 61, "velocity": 115, "channel": 0}, {"type": "note_on", "time": 12, "note": 60, "velocity": 104, "channel": 0}, {"type": "note_off", "time": 76, "note": 60, "velocity": 104, "channel": 0}, {"type": "note_on", "time": 9, "note": 59, "velocity": 106, "channel": 0}, {"type": "note_off", "time": 72, "note": 59, "velocity": 106, "channel": 0}, {"type": "note_on", "time": 12, "note": 55, "velocity": 91, "channel": 0}, {"type": "note_off", "time": 165, "note": 55, "velocity": 91, "channel": 0}, {"type": "note_on", "time": 34, "note": 57, "velocity": 108, "channel": 0}, {"type": "note_off", "time": 93, "note": 57, "velocity": 108, "channel": 0}, {"type": "note_on", "time": 0, "note": 48, "velocity": 102, "channel": 0}, {"type": "note_off", "time": 105, "note": 48, "velocity": 102, "channel": 0}, {"type": "note_on", "time": 9, "note": 50, "velocity": 106, "channel": 0}, {"type": "note_on", "time": 94, "note": 52, "velocity": 108, "channel": 0}, {"type": "note_off", "time": 0, "note": 50, "velocity": 106, "channel": 0}, {"type": "note_off", "time": 65, "note": 52, "velocity": 108, "channel": 0}, {"type": "note_on", "time": 0, "note": 55, "velocity": 112, "channel": 0}, {"type": "note_off", "time": 87, "note": 55, "velocity": 112, "channel": 0}, {"type": "note_on", "time": 11, "note": 52, "velocity": 104, "channel": 0}, {"type": "note_off", "time": 99, "note": 52, "velocity": 104, "channel": 0}, {"type": "note_on", "time": 23, "note": 53, "velocity": 114, "channel": 0}, {"type": "note_off", "time": 69, "note": 53, "velocity": 114, "channel": 0}, {"type": "note_on", "time": 11, "note": 55, "velocity": 107, "channel": 0}, {"type": "note_off", "time": 86, "note": 55, "velocity": 107, "channel": 0}, {"type": "note_on", "time": 6, "note": 57, "velocity": 104, "channel": 0}, {"type": "note_on", "time": 83, "note": 58, "velocity": 108, "channel": 0}, {"type": "note_off", "time": 0, "note": 57, "velocity": 104, "channel": 0}, {"type": "note_off", "time": 79, "note": 58, "velocity": 108, "channel": 0}, {"type": "note_on", "time": 19, "note": 60, "velocity": 109, "channel": 0}, {"type": "note_off", "time": 88, "note": 60, "velocity": 109, "channel": 0}, {"type": "note_on", "time": 0, "note": 62, "velocity": 121, "channel": 0}, {"type": "note_off", "time": 81, "note": 62, "velocity": 121, "channel": 0}, {"type": "note_on", "time": 16, "note": 63, "velocity": 121, "channel": 0}, {"type": "note_off", "time": 111, "note": 63, "velocity": 121, "channel": 0}, {"type": "note_on", "time": 13, "note": 65, "velocity": 108, "channel": 0}, {"type": "note_off", "time": 76, "note": 65, "velocity": 108, "channel": 0}, {"type": "note_on", "time": 8, "note": 67, "velocity": 113, "channel": 0}, {"type": "note_off", "time": 104, "note": 67, "velocity": 113, "channel": 0}, {"type": "note_on", "time": 5, "note": 63, "velocity": 115, "channel": 0}, {"type": "note_off", "time": 81, "note": 63, "velocity": 115, "channel": 0}, {"type": "note_on", "time": 9, "note": 60, "velocity": 102, "channel": 0}, {"type": "note_off", "time": 102, "note": 60, "velocity": 102, "channel": 0}, {"type": "note_on", "time": 0, "note": 62, "velocity": 105, "channel": 0}, {"type": "note_off", "time": 77, "note": 62, "velocity": 105, "channel": 0}, {"type": "note_on", "time": 0, "note": 63, "velocity": 117, "channel": 0}, {"type": "note_off", "time": 77, "note": 63, "velocity": 117, "channel": 0}, {"type": "note_on", "time": 33, "note": 60, "velocity": 107, "channel": 0}, {"type": "note_off", "time": 79, "note": 60, "velocity": 107, "channel": 0}, {"type": "note_on", "time": 26, "note": 57, "velocity": 101, "channel": 0}, {"type": "note_off", "time": 84, "note": 57, "velocity": 101, "channel": 0}, {"type": "note_on", "time": 27, "note": 58, "velocity": 99, "channel": 0}, {"type": "note_off", "time": 73, "note": 58, "velocity": 99, "channel": 0}, {"type": "note_on", "time": 6, "note": 60, "velocity": 104, "channel": 0}, {"type": "note_off", "time": 83, "note": 60, "velocity": 104, "channel": 0}, {"type": "note_on", "time": 24, "note": 57, "velocity": 107, "channel": 0}, {"type": "note_off", "time": 74, "note": 57, "velocity": 107, "channel": 0}, {"type": "note_on", "time": 1, "note": 53, "velocity": 109, "channel": 0}, {"type": "note_off", "time": 136, "note": 53, "velocity": 109, "channel": 0}, {"type": "note_on", "time": 4, "note": 56, "velocity": 98, "channel": 0}, {"type": "note_off", "time": 44, "note": 56, "velocity": 98, "channel": 0}, {"type": "note_on", "time": 12, "note": 57, "velocity": 103, "channel": 0}, {"type": "note_off", "time": 99, "note": 57, "velocity": 103, "channel": 0}, {"type": "note_on", "time": 15, "note": 53, "velocity": 106, "channel": 0}, {"type": "note_off", "time": 66, "note": 53, "velocity": 106, "channel": 0}, {"type": "note_on", "time": 15, "note": 58, "velocity": 102, "channel": 0}, {"type": "note_off", "time": 97, "note": 58, "velocity": 102, "channel": 0}, {"type": "note_on", "time": 8, "note": 60, "velocity": 105, "channel": 0}, {"type": "note_off", "time": 87, "note": 60, "velocity": 105, "channel": 0}, {"type": "note_on", "time": 5, "note": 62, "velocity": 109, "channel": 0}, {"type": "note_off", "time": 49, "note": 62, "velocity": 109, "channel": 0}, {"type": "note_on", "time": 1, "note": 63, "velocity": 108, "channel": 0}, {"type": "note_off", "time": 48, "note": 63, "velocity": 108, "channel": 0}, {"type": "note_on", "time": 0, "note": 65, "velocity": 114, "channel": 0}, {"type": "note_off", "time": 77, "note": 65, "velocity": 114, "channel": 0}, {"type": "note_on", "time": 1, "note": 61, "velocity": 111, "channel": 0}, {"type": "note_off", "time": 104, "note": 61, "velocity": 111, "channel": 0}, {"type": "note_on", "time": 44, "note": 63, "velocity": 101, "channel": 0}, {"type": "note_off", "time": 68, "note": 63, "velocity": 101, "channel": 0}, {"type": "note_on", "time": 15, "note": 65, "velocity": 97, "channel": 0}, {"type": "note_off", "time": 77, "note": 65, "velocity": 97, "channel": 0}, {"type": "note_on", "time": 33, "note": 67, "velocity": 86, "channel": 0}, {"type": "note_off", "time": 44, "note": 67, "velocity": 86, "channel": 0}, {"type": "note_on", "time": 0, "note": 73, "velocity": 117, "channel": 0}, {"type": "note_off", "time": 95, "note": 73, "velocity": 117, "channel": 0}, {"type": "note_on", "time": 33, "note": 72, "velocity": 109, "channel": 0}, {"type": "note_off", "time": 538, "note": 72, "velocity": 109, "channel": 0}, {"type": "note_on", "time": 4, "note": 70, "velocity": 107, "channel": 0}, {"type": "note_off", "time": 86, "note": 70, "velocity": 107, "channel": 0}, {"type": "note_on", "time": 0, "note": 69, "velocity": 118, "channel": 0}, {"type": "note_off", "time": 123, "note": 69, "velocity": 118, "channel": 0}, {"type": "note_on", "time": 106, "note": 62, "velocity": 106, "channel": 0}, {"type": "note_off", "time": 108, "note": 62, "velocity": 106, "channel": 0}, {"type": "note_on", "time": 0, "note": 64, "velocity": 102, "channel": 0}, {"type": "note_off", "time": 41, "note": 64, "velocity": 102, "channel": 0}, {"type": "note_on", "time": 5, "note": 67, "velocity": 116, "channel": 0}, {"type": "note_off", "time": 88, "note": 67, "velocity": 116, "channel": 0}, {"type": "note_on", "time": 0, "note": 64, "velocity": 121, "channel": 0}, {"type": "note_off", "time": 95, "note": 64, "velocity": 121, "channel": 0}, {"type": "note_on", "time": 5, "note": 65, "velocity": 115, "channel": 0}, {"type": "note_off", "time": 101, "note": 65, "velocity": 115, "channel": 0}, {"type": "note_on", "time": 6, "note": 67, "velocity": 111, "channel": 0}, {"type": "note_off", "time": 97, "note": 67, "velocity": 111, "channel": 0}, {"type": "note_on", "time": 16, "note": 69, "velocity": 117, "channel": 0}, {"type": "note_off", "time": 76, "note": 69, "velocity": 117, "channel": 0}, {"type": "note_on", "time": 0, "note": 70, "velocity": 107, "channel": 0}, {"type": "note_off", "time": 81, "note": 70, "velocity": 107, "channel": 0}, {"type": "note_on", "time": 2, "note": 69, "velocity": 112, "channel": 0}, {"type": "note_on", "time": 90, "note": 67, "velocity": 107, "channel": 0}, {"type": "note_off", "time": 0, "note": 69, "velocity": 112, "channel": 0}, {"type": "note_off", "time": 91, "note": 67, "velocity": 107, "channel": 0}, {"type": "note_on", "time": 11, "note": 66, "velocity": 108, "channel": 0}, {"type": "note_on", "time": 91, "note": 63, "velocity": 117, "channel": 0}, {"type": "note_off", "time": 0, "note": 66, "velocity": 108, "channel": 0}, {"type": "note_off", "time": 77, "note": 63, "velocity": 117, "channel": 0}, {"type": "note_on", "time": 11, "note": 62, "velocity": 116, "channel": 0}, {"type": "note_off", "time": 101, "note": 62, "velocity": 116, "channel": 0}, {"type": "note_on", "time": 2, "note": 60, "velocity": 99, "channel": 0}, {"type": "note_off", "time": 86, "note": 60, "velocity": 99, "channel": 0}, {"type": "note_on", "time": 6, "note": 58, "velocity": 104, "channel": 0}, {"type": "note_on", "time": 81, "note": 62, "velocity": 110, "channel": 0}, {"type": "note_off", "time": 0, "note": 58, "velocity": 104, "channel": 0}, {"type": "note_off", "time": 133, "note": 62, "velocity": 110, "channel": 0}, {"type": "note_on", "time": 34, "note": 65, "velocity": 99, "channel": 0}, {"type": "note_off", "time": 73, "note": 65, "velocity": 99, "channel": 0}, {"type": "note_on", "time": 27, "note": 69, "velocity": 122, "channel": 0}, {"type": "note_off", "time": 93, "note": 69, "velocity": 122, "channel": 0}, {"type": "note_on", "time": 0, "note": 67, "velocity": 108, "channel": 0}, {"type": "note_off", "time": 88, "note": 67, "velocity": 108, "channel": 0}, {"type": "note_on", "time": 0, "note": 65, "velocity": 114, "channel": 0}, {"type": "note_off", "time": 95, "note": 65, "velocity": 114, "channel": 0}, {"type": "note_on", "time": 11, "note": 62, "velocity": 107, "channel": 0}, {"type": "note_off", "time": 91, "note": 62, "velocity": 107, "channel": 0}, {"type": "note_on", "time": 1, "note": 63, "velocity": 122, "channel": 0}, {"type": "note_off", "time": 74, "note": 63, "velocity": 122, "channel": 0}, {"type": "note_on", "time": 5, "note": 62, "velocity": 116, "channel": 0}, {"type": "note_off", "time": 72, "note": 62, "velocity": 116, "channel": 0}, {"type": "note_on", "time": 20, "note": 60, "velocity": 100, "channel": 0}, {"type": "note_off", "time": 80, "note": 60, "velocity": 100, "channel": 0}, {"type": "note_on", "time": 34, "note": 58, "velocity": 99, "channel": 0}, {"type": "note_off", "time": 118, "note": 58, "velocity": 99, "channel": 0}, {"type": "note_on", "time": 43, "note": 62, "velocity": 116, "channel": 0}, {"type": "note_off", "time": 106, "note": 62, "velocity": 116, "channel": 0}, {"type": "note_on", "time": 8, "note": 60, "velocity": 103, "channel": 0}, {"type": "note_off", "time": 99, "note": 60, "velocity": 103, "channel": 0}, {"type": "note_on", "time": 23, "note": 59, "velocity": 105, "channel": 0}, {"type": "note_off", "time": 93, "note": 59, "velocity": 105, "channel": 0}, {"type": "note_on", "time": 2, "note": 58, "velocity": 95, "channel": 0}, {"type": "note_off", "time": 72, "note": 58, "velocity": 95, "channel": 0}, {"type": "note_on", "time": 29, "note": 55, "velocity": 90, "channel": 0}, {"type": "note_off", "time": 61, "note": 55, "velocity": 90, "channel": 0}, {"type": "note_on", "time": 12, "note": 57, "velocity": 105, "channel": 0}, {"type": "note_off", "time": 90, "note": 57, "velocity": 105, "channel": 0}, {"type": "note_on", "time": 24, "note": 56, "velocity": 103, "channel": 0}, {"type": "note_off", "time": 72, "note": 56, "velocity": 103, "channel": 0}, {"type": "note_on", "time": 9, "note": 53, "velocity": 103, "channel": 0}, {"type": "note_off", "time": 115, "note": 53, "velocity": 103, "channel": 0}, {"type": "note_on", "time": 587, "note": 72, "velocity": 112, "channel": 0}, {"type": "note_off", "time": 102, "note": 72, "velocity": 112, "channel": 0}, {"type": "note_on", "time": 102, "note": 72, "velocity": 113, "channel": 0}, {"type": "note_off", "time": 98, "note": 72, "velocity": 113, "channel": 0}, {"type": "note_on", "time": 99, "note": 72, "velocity": 112, "channel": 0}, {"type": "note_off", "time": 94, "note": 72, "velocity": 112, "channel": 0}, {"type": "note_on", "time": 80, "note": 65, "velocity": 113, "channel": 0}, {"type": "note_off", "time": 102, "note": 65, "velocity": 113, "channel": 0}, {"type": "note_on", "time": 109, "note": 68, "velocity": 122, "channel": 0}, {"type": "note_off", "time": 101, "note": 68, "velocity": 122, "channel": 0}, {"type": "note_on", "time": 86, "note": 65, "velocity": 113, "channel": 0}, {"type": "note_off", "time": 101, "note": 65, "velocity": 113, "channel": 0}, {"type": "note_on", "time": 81, "note": 70, "velocity": 115, "channel": 0}, {"type": "note_off", "time": 104, "note": 70, "velocity": 115, "channel": 0}, {"type": "note_on", "time": 90, "note": 65, "velocity": 101, "channel": 0}, {"type": "note_off", "time": 95, "note": 65, "velocity": 101, "channel": 0}, {"type": "note_on", "time": 79, "note": 71, "velocity": 106, "channel": 0}, {"type": "note_off", "time": 112, "note": 71, "velocity": 106, "channel": 0}, {"type": "note_on", "time": 81, "note": 65, "velocity": 108, "channel": 0}, {"type": "note_off", "time": 95, "note": 65, "velocity": 108, "channel": 0}, {"type": "note_on", "time": 80, "note": 72, "velocity": 113, "channel": 0}, {"type": "note_off", "time": 94, "note": 72, "velocity": 113, "channel": 0}, {"type": "note_on", "time": 109, "note": 65, "velocity": 106, "channel": 0}, {"type": "note_off", "time": 102, "note": 65, "velocity": 106, "channel": 0}, {"type": "note_on", "time": 91, "note": 65, "velocity": 104, "channel": 0}, {"type": "note_off", "time": 62, "note": 65, "velocity": 104, "channel": 0}, {"type": "note_on", "time": 20, "note": 68, "velocity": 124, "channel": 0}, {"type": "note_off", "time": 112, "note": 68, "velocity": 124, "channel": 0}, {"type": "note_on", "time": 0, "note": 65, "velocity": 101, "channel": 0}, {"type": "note_off", "time": 68, "note": 65, "velocity": 101, "channel": 0}, {"type": "note_on", "time": 9, "note": 68, "velocity": 122, "channel": 0}, {"type": "note_off", "time": 124, "note": 68, "velocity": 122, "channel": 0}, {"type": "note_on", "time": 11, "note": 69, "velocity": 97, "channel": 0}, {"type": "note_off", "time": 34, "note": 69, "velocity": 97, "channel": 0}, {"type": "note_on", "time": 0, "note": 68, "velocity": 120, "channel": 0}, {"type": "note_off", "time": 45, "note": 68, "velocity": 120, "channel": 0}, {"type": "note_on", "time": 4, "note": 65, "velocity": 110, "channel": 0}, {"type": "note_off", "time": 104, "note": 65, "velocity": 110, "channel": 0}, {"type": "note_on", "time": 0, "note": 63, "velocity": 120, "channel": 0}, {"type": "note_off", "time": 80, "note": 63, "velocity": 120, "channel": 0}, {"type": "note_on", "time": 15, "note": 61, "velocity": 109, "channel": 0}, {"type": "note_off", "time": 105, "note": 61, "velocity": 109, "channel": 0}, {"type": "note_on", "time": 4, "note": 59, "velocity": 112, "channel": 0}, {"type": "note_off", "time": 52, "note": 59, "velocity": 112, "channel": 0}, {"type": "note_on", "time": 2, "note": 58, "velocity": 113, "channel": 0}, {"type": "note_off", "time": 108, "note": 58, "velocity": 113, "channel": 0}, {"type": "note_on", "time": 30, "note": 56, "velocity": 110, "channel": 0}, {"type": "note_off", "time": 161, "note": 56, "velocity": 110, "channel": 0}, {"type": "note_on", "time": 112, "note": 56, "velocity": 107, "channel": 0}, {"type": "note_off", "time": 138, "note": 56, "velocity": 107, "channel": 0}, {"type": "note_on", "time": 1280, "note": 65, "velocity": 106, "channel": 0}, {"type": "note_off", "time": 79, "note": 65, "velocity": 106, "channel": 0}, {"type": "note_on", "time": 2, "note": 72, "velocity": 117, "channel": 0}, {"type": "note_off", "time": 88, "note": 72, "velocity": 117, "channel": 0}, {"type": "note_on", "time": 11, "note": 65, "velocity": 110, "channel": 0}, {"type": "note_off", "time": 119, "note": 65, "velocity": 110, "channel": 0}, {"type": "note_on", "time": 1, "note": 67, "velocity": 105, "channel": 0}, {"type": "note_on", "time": 61, "note": 70, "velocity": 110, "channel": 0}, {"type": "note_off", "time": 0, "note": 67, "velocity": 105, "channel": 0}, {"type": "note_off", "time": 102, "note": 70, "velocity": 110, "channel": 0}, {"type": "note_on", "time": 0, "note": 68, "velocity": 119, "channel": 0}, {"type": "note_off", "time": 119, "note": 68, "velocity": 119, "channel": 0}, {"type": "note_on", "time": 40, "note": 60, "velocity": 106, "channel": 0}, {"type": "note_off", "time": 72, "note": 60, "velocity": 106, "channel": 0}, {"type": "note_on", "time": 2, "note": 63, "velocity": 111, "channel": 0}, {"type": "note_off", "time": 18, "note": 63, "velocity": 111, "channel": 0}, {"type": "note_on", "time": 0, "note": 65, "velocity": 113, "channel": 0}, {"type": "note_off", "time": 65, "note": 65, "velocity": 113, "channel": 0}, {"type": "note_on", "time": 0, "note": 68, "velocity": 122, "channel": 0}, {"type": "note_off", "time": 104, "note": 68, "velocity": 122, "channel": 0}, {"type": "note_on", "time": 0, "note": 65, "velocity": 116, "channel": 0}, {"type": "note_off", "time": 83, "note": 65, "velocity": 116, "channel": 0}, {"type": "note_on", "time": 2, "note": 60, "velocity": 106, "channel": 0}, {"type": "note_off", "time": 73, "note": 60, "velocity": 106, "channel": 0}, {"type": "note_on", "time": 12, "note": 58, "velocity": 98, "channel": 0}, {"type": "note_off", "time": 83, "note": 58, "velocity": 98, "channel": 0}, {"type": "note_on", "time": 19, "note": 55, "velocity": 95, "channel": 0}, {"type": "note_off", "time": 56, "note": 55, "velocity": 95, "channel": 0}, {"type": "note_on", "time": 38, "note": 63, "velocity": 123, "channel": 0}, {"type": "note_off", "time": 229, "note": 63, "velocity": 123, "channel": 0}, {"type": "note_on", "time": 2, "note": 62, "velocity": 119, "channel": 0}, {"type": "note_off", "time": 27, "note": 62, "velocity": 119, "channel": 0}, {"type": "note_on", "time": 0, "note": 61, "velocity": 117, "channel": 0}, {"type": "note_off", "time": 83, "note": 61, "velocity": 117, "channel": 0}, {"type": "note_on", "time": 19, "note": 60, "velocity": 113, "channel": 0}, {"type": "note_off", "time": 127, "note": 60, "velocity": 113, "channel": 0}, {"type": "note_on", "time": 9, "note": 58, "velocity": 108, "channel": 0}, {"type": "note_off", "time": 162, "note": 58, "velocity": 108, "channel": 0}, {"type": "note_on", "time": 16, "note": 54, "velocity": 105, "channel": 0}, {"type": "note_off", "time": 176, "note": 54, "velocity": 105, "channel": 0}, {"type": "note_on", "time": 1, "note": 57, "velocity": 113, "channel": 0}, {"type": "note_off", "time": 179, "note": 57, "velocity": 113, "channel": 0}, {"type": "note_on", "time": 2, "note": 54, "velocity": 106, "channel": 0}, {"type": "note_off", "time": 161, "note": 54, "velocity": 106, "channel": 0}, {"type": "note_on", "time": 8, "note": 55, "velocity": 108, "channel": 0}, {"type": "note_off", "time": 206, "note": 55, "velocity": 108, "channel": 0}, {"type": "note_on", "time": 4, "note": 58, "velocity": 111, "channel": 0}, {"type": "note_off", "time": 179, "note": 58, "velocity": 111, "channel": 0}, {"type": "note_on", "time": 11, "note": 60, "velocity": 112, "channel": 0}, {"type": "note_off", "time": 172, "note": 60, "velocity": 112, "channel": 0}, {"type": "note_on", "time": 18, "note": 62, "velocity": 124, "channel": 0}, {"type": "note_off", "time": 220, "note": 62, "velocity": 124, "channel": 0}, {"type": "note_on", "time": 4, "note": 65, "velocity": 120, "channel": 0}, {"type": "note_off", "time": 202, "note": 65, "velocity": 120, "channel": 0}, {"type": "note_on", "time": 12, "note": 62, "velocity": 110, "channel": 0}, {"type": "note_off", "time": 159, "note": 62, "velocity": 110, "channel": 0}, {"type": "note_on", "time": 2, "note": 64, "velocity": 127, "channel": 0}, {"type": "note_off", "time": 209, "note": 64, "velocity": 127, "channel": 0}, {"type": "note_on", "time": 0, "note": 67, "velocity": 117, "channel": 0}, {"type": "note_off", "time": 195, "note": 67, "velocity": 117, "channel": 0}, {"type": "note_on", "time": 1, "note": 63, "velocity": 105, "channel": 0}, {"type": "note_off", "time": 70, "note": 63, "velocity": 105, "channel": 0}, {"type": "note_on", "time": 4, "note": 65, "velocity": 122, "channel": 0}, {"type": "note_off", "time": 90, "note": 65, "velocity": 122, "channel": 0}, {"type": "note_on", "time": 0, "note": 64, "velocity": 124, "channel": 0}, {"type": "note_off", "time": 115, "note": 64, "velocity": 124, "channel": 0}, {"type": "note_on", "time": 11, "note": 63, "velocity": 116, "channel": 0}, {"type": "note_off", "time": 99, "note": 63, "velocity": 116, "channel": 0}, {"type": "note_on", "time": 19, "note": 61, "velocity": 110, "channel": 0}, {"type": "note_off", "time": 109, "note": 61, "velocity": 110, "channel": 0}, {"type": "note_on", "time": 4, "note": 60, "velocity": 105, "channel": 0}, {"type": "note_off", "time": 62, "note": 60, "velocity": 105, "channel": 0}, {"type": "note_on", "time": 18, "note": 58, "velocity": 110, "channel": 0}, {"type": "note_off", "time": 66, "note": 58, "velocity": 110, "channel": 0}, {"type": "note_on", "time": 1, "note": 55, "velocity": 112, "channel": 0}, {"type": "note_off", "time": 163, "note": 55, "velocity": 112, "channel": 0}, {"type": "note_on", "time": 62, "note": 56, "velocity": 98, "channel": 0}, {"type": "note_off", "time": 130, "note": 56, "velocity": 98, "channel": 0}, {"type": "note_on", "time": 30, "note": 57, "velocity": 113, "channel": 0}, {"type": "note_off", "time": 151, "note": 57, "velocity": 113, "channel": 0}, {"type": "note_on", "time": 15, "note": 48, "velocity": 113, "channel": 0}, {"type": "note_off", "time": 187, "note": 48, "velocity": 113, "channel": 0}, {"type": "note_on", "time": 29, "note": 51, "velocity": 113, "channel": 0}, {"type": "note_off", "time": 163, "note": 51, "velocity": 113, "channel": 0}, {"type": "note_on", "time": 5, "note": 55, "velocity": 112, "channel": 0}, {"type": "note_off", "time": 159, "note": 55, "velocity": 112, "channel": 0}, {"type": "note_on", "time": 24, "note": 62, "velocity": 119, "channel": 0}, {"type": "note_off", "time": 162, "note": 62, "velocity": 119, "channel": 0}, {"type": "note_on", "time": 133, "note": 63, "velocity": 116, "channel": 0}, {"type": "note_off", "time": 136, "note": 63, "velocity": 116, "channel": 0}, {"type": "note_on", "time": 420, "note": 62, "velocity": 106, "channel": 0}, {"type": "note_off", "time": 144, "note": 62, "velocity": 106, "channel": 0}, {"type": "note_on", "time": 238, "note": 67, "velocity": 120, "channel": 0}, {"type": "note_off", "time": 90, "note": 67, "velocity": 120, "channel": 0}, {"type": "note_on", "time": 0, "note": 66, "velocity": 113, "channel": 0}, {"type": "note_off", "time": 70, "note": 66, "velocity": 113, "channel": 0}, {"type": "note_on", "time": 12, "note": 63, "velocity": 119, "channel": 0}, {"type": "note_on", "time": 120, "note": 61, "velocity": 107, "channel": 0}, {"type": "note_off", "time": 0, "note": 63, "velocity": 119, "channel": 0}, {"type": "note_off", "time": 62, "note": 61, "velocity": 107, "channel": 0}, {"type": "note_on", "time": 36, "note": 59, "velocity": 101, "channel": 0}, {"type": "note_off", "time": 77, "note": 59, "velocity": 101, "channel": 0}, {"type": "note_on", "time": 1, "note": 50, "velocity": 101, "channel": 0}, {"type": "note_off", "time": 102, "note": 50, "velocity": 101, "channel": 0}, {"type": "note_on", "time": 0, "note": 51, "velocity": 106, "channel": 0}, {"type": "note_off", "time": 113, "note": 51, "velocity": 106, "channel": 0}, {"type": "note_on", "time": 0, "note": 54, "velocity": 106, "channel": 0}, {"type": "note_off", "time": 91, "note": 54, "velocity": 106, "channel": 0}, {"type": "note_on", "time": 1, "note": 53, "velocity": 114, "channel": 0}, {"type": "note_off", "time": 80, "note": 53, "velocity": 114, "channel": 0}, {"type": "note_on", "time": 0, "note": 51, "velocity": 110, "channel": 0}, {"type": "note_off", "time": 88, "note": 51, "velocity": 110, "channel": 0}, {"type": "note_on", "time": 11, "note": 48, "velocity": 105, "channel": 0}, {"type": "note_off", "time": 149, "note": 48, "velocity": 105, "channel": 0}, {"type": "note_on", "time": 2, "note": 46, "velocity": 113, "channel": 0}, {"type": "note_off", "time": 87, "note": 46, "velocity": 113, "channel": 0}, {"type": "note_on", "time": 1074, "note": 46, "velocity": 114, "channel": 0}, {"type": "note_off", "time": 151, "note": 46, "velocity": 114, "channel": 0}, {"type": "note_on", "time": 227, "note": 56, "velocity": 118, "channel": 0}, {"type": "note_off", "time": 109, "note": 56, "velocity": 118, "channel": 0}, {"type": "note_on", "time": 0, "note": 57, "velocity": 112, "channel": 0}, {"type": "note_off", "time": 86, "note": 57, "velocity": 112, "channel": 0}, {"type": "note_on", "time": 616, "note": 67, "velocity": 125, "channel": 0}, {"type": "note_off", "time": 44, "note": 67, "velocity": 125, "channel": 0}, {"type": "note_on", "time": 0, "note": 68, "velocity": 122, "channel": 0}, {"type": "note_off", "time": 72, "note": 68, "velocity": 122, "channel": 0}, {"type": "note_on", "time": 0, "note": 69, "velocity": 106, "channel": 0}, {"type": "note_on", "time": 54, "note": 65, "velocity": 116, "channel": 0}, {"type": "note_off", "time": 0, "note": 69, "velocity": 106, "channel": 0}, {"type": "note_off", "time": 112, "note": 65, "velocity": 116, "channel": 0}, {"type": "note_on", "time": 12, "note": 67, "velocity": 104, "channel": 0}, {"type": "note_off", "time": 99, "note": 67, "velocity": 104, "channel": 0}, {"type": "note_on", "time": 401, "note": 67, "velocity": 122, "channel": 0}, {"type": "note_off", "time": 37, "note": 67, "velocity": 122, "channel": 0}, {"type": "note_on", "time": 2, "note": 68, "velocity": 122, "channel": 0}, {"type": "note_off", "time": 56, "note": 68, "velocity": 122, "channel": 0}, {"type": "note_on", "time": 0, "note": 69, "velocity": 117, "channel": 0}, {"type": "note_off", "time": 58, "note": 69, "velocity": 117, "channel": 0}, {"type": "note_on", "time": 8, "note": 65, "velocity": 114, "channel": 0}, {"type": "note_off", "time": 118, "note": 65, "velocity": 114, "channel": 0}, {"type": "note_on", "time": 24, "note": 60, "velocity": 106, "channel": 0}, {"type": "note_on", "time": 73, "note": 68, "velocity": 118, "channel": 0}, {"type": "note_off", "time": 0, "note": 60, "velocity": 106, "channel": 0}, {"type": "note_off", "time": 99, "note": 68, "velocity": 118, "channel": 0}, {"type": "note_on", "time": 8, "note": 69, "velocity": 108, "channel": 0}, {"type": "note_off", "time": 79, "note": 69, "velocity": 108, "channel": 0}, {"type": "note_on", "time": 9, "note": 65, "velocity": 108, "channel": 0}, {"type": "note_off", "time": 134, "note": 65, "velocity": 108, "channel": 0}, {"type": "note_on", "time": 0, "note": 60, "velocity": 97, "channel": 0}, {"type": "note_off", "time": 44, "note": 60, "velocity": 97, "channel": 0}, {"type": "note_on", "time": 19, "note": 68, "velocity": 116, "channel": 0}, {"type": "note_off", "time": 116, "note": 68, "velocity": 116, "channel": 0}, {"type": "note_on", "time": 13, "note": 69, "velocity": 105, "channel": 0}, {"type": "note_off", "time": 66, "note": 69, "velocity": 105, "channel": 0}, {"type": "note_on", "time": 77, "note": 65, "velocity": 110, "channel": 0}, {"type": "note_off", "time": 94, "note": 65, "velocity": 110, "channel": 0}, {"type": "note_on", "time": 91, "note": 60, "velocity": 111, "channel": 0}, {"type": "note_off", "time": 76, "note": 60, "velocity": 111, "channel": 0}, {"type": "note_on", "time": 27, "note": 60, "velocity": 118, "channel": 0}, {"type": "note_off", "time": 73, "note": 60, "velocity": 118, "channel": 0}, {"type": "note_on", "time": 81, "note": 68, "velocity": 120, "channel": 0}, {"type": "note_off", "time": 104, "note": 68, "velocity": 120, "channel": 0}, {"type": "note_on", "time": 1, "note": 69, "velocity": 112, "channel": 0}, {"type": "note_off", "time": 79, "note": 69, "velocity": 112, "channel": 0}, {"type": "note_on", "time": 12, "note": 65, "velocity": 110, "channel": 0}, {"type": "note_off", "time": 91, "note": 65, "velocity": 110, "channel": 0}, {"type": "note_on", "time": 9, "note": 60, "velocity": 97, "channel": 0}, {"type": "note_off", "time": 79, "note": 60, "velocity": 97, "channel": 0}, {"type": "note_on", "time": 33, "note": 68, "velocity": 116, "channel": 0}, {"type": "note_off", "time": 81, "note": 68, "velocity": 116, "channel": 0}, {"type": "note_on", "time": 18, "note": 69, "velocity": 113, "channel": 0}, {"type": "note_off", "time": 58, "note": 69, "velocity": 113, "channel": 0}, {"type": "note_on", "time": 18, "note": 65, "velocity": 108, "channel": 0}, {"type": "note_off", "time": 102, "note": 65, "velocity": 108, "channel": 0}, {"type": "note_on", "time": 65, "note": 67, "velocity": 109, "channel": 0}, {"type": "note_off", "time": 70, "note": 67, "velocity": 109, "channel": 0}, {"type": "note_on", "time": 72, "note": 68, "velocity": 111, "channel": 0}, {"type": "note_off", "time": 61, "note": 68, "velocity": 111, "channel": 0}, {"type": "note_on", "time": 542, "note": 65, "velocity": 117, "channel": 0}, {"type": "note_off", "time": 65, "note": 65, "velocity": 117, "channel": 0}, {"type": "note_on", "time": 15, "note": 68, "velocity": 121, "channel": 0}, {"type": "note_off", "time": 95, "note": 68, "velocity": 121, "channel": 0}, {"type": "note_on", "time": 0, "note": 69, "velocity": 116, "channel": 0}, {"type": "note_off", "time": 58, "note": 69, "velocity": 116, "channel": 0}, {"type": "note_on", "time": 4, "note": 68, "velocity": 118, "channel": 0}, {"type": "note_off", "time": 120, "note": 68, "velocity": 118, "channel": 0}, {"type": "note_on", "time": 13, "note": 69, "velocity": 110, "channel": 0}, {"type": "note_off", "time": 55, "note": 69, "velocity": 110, "channel": 0}, {"type": "note_on", "time": 5, "note": 68, "velocity": 112, "channel": 0}, {"type": "note_off", "time": 77, "note": 68, "velocity": 112, "channel": 0}, {"type": "note_on", "time": 1, "note": 65, "velocity": 111, "channel": 0}, {"type": "note_off", "time": 83, "note": 65, "velocity": 111, "channel": 0}, {"type": "note_on", "time": 26, "note": 65, "velocity": 115, "channel": 0}, {"type": "note_off", "time": 62, "note": 65, "velocity": 115, "channel": 0}, {"type": "note_on", "time": 361, "note": 68, "velocity": 120, "channel": 0}, {"type": "note_off", "time": 88, "note": 68, "velocity": 120, "channel": 0}, {"type": "note_on", "time": 0, "note": 69, "velocity": 108, "channel": 0}, {"type": "note_off", "time": 54, "note": 69, "velocity": 108, "channel": 0}, {"type": "note_on", "time": 15, "note": 65, "velocity": 115, "channel": 0}, {"type": "note_off", "time": 86, "note": 65, "velocity": 115, "channel": 0}, {"type": "note_on", "time": 8, "note": 63, "velocity": 106, "channel": 0}, {"type": "note_off", "time": 91, "note": 63, "velocity": 106, "channel": 0}, {"type": "note_on", "time": 19, "note": 65, "velocity": 116, "channel": 0}, {"type": "note_off", "time": 47, "note": 65, "velocity": 116, "channel": 0}, {"type": "note_on", "time": 0, "note": 68, "velocity": 117, "channel": 0}, {"type": "note_off", "time": 83, "note": 68, "velocity": 117, "channel": 0}, {"type": "note_on", "time": 1, "note": 69, "velocity": 110, "channel": 0}, {"type": "note_off", "time": 55, "note": 69, "velocity": 110, "channel": 0}, {"type": "note_on", "time": 29, "note": 65, "velocity": 104, "channel": 0}, {"type": "note_off", "time": 93, "note": 65, "velocity": 104, "channel": 0}, {"type": "note_on", "time": 20, "note": 63, "velocity": 102, "channel": 0}, {"type": "note_off", "time": 51, "note": 63, "velocity": 102, "channel": 0}, {"type": "note_on", "time": 4, "note": 65, "velocity": 119, "channel": 0}, {"type": "note_off", "time": 51, "note": 65, "velocity": 119, "channel": 0}, {"type": "note_on", "time": 0, "note": 68, "velocity": 118, "channel": 0}, {"type": "note_off", "time": 63, "note": 68, "velocity": 118, "channel": 0}, {"type": "note_on", "time": 18, "note": 69, "velocity": 111, "channel": 0}, {"type": "note_off", "time": 66, "note": 69, "velocity": 111, "channel": 0}, {"type": "note_on", "time": 11, "note": 65, "velocity": 111, "channel": 0}, {"type": "note_off", "time": 102, "note": 65, "velocity": 111, "channel": 0}, {"type": "note_on", "time": 22, "note": 63, "velocity": 103, "channel": 0}, {"type": "note_off", "time": 54, "note": 63, "velocity": 103, "channel": 0}, {"type": "note_on", "time": 24, "note": 68, "velocity": 116, "channel": 0}, {"type": "note_off", "time": 101, "note": 68, "velocity": 116, "channel": 0}, {"type": "note_on", "time": 2, "note": 69, "velocity": 104, "channel": 0}, {"type": "note_off", "time": 54, "note": 69, "velocity": 104, "channel": 0}, {"type": "note_on", "time": 19, "note": 65, "velocity": 111, "channel": 0}, {"type": "note_off", "time": 102, "note": 65, "velocity": 111, "channel": 0}, {"type": "note_on", "time": 26, "note": 63, "velocity": 109, "channel": 0}, {"type": "note_off", "time": 54, "note": 63, "velocity": 109, "channel": 0}, {"type": "note_on", "time": 31, "note": 67, "velocity": 115, "channel": 0}, {"type": "note_off", "time": 118, "note": 67, "velocity": 115, "channel": 0}, {"type": "note_on", "time": 9, "note": 68, "velocity": 115, "channel": 0}, {"type": "note_off", "time": 93, "note": 68, "velocity": 115, "channel": 0}, {"type": "note_on", "time": 101, "note": 65, "velocity": 112, "channel": 0}, {"type": "note_off", "time": 88, "note": 65, "velocity": 112, "channel": 0}, {"type": "note_on", "time": 87, "note": 61, "velocity": 111, "channel": 0}, {"type": "note_off", "time": 87, "note": 61, "velocity": 111, "channel": 0}, {"type": "note_on", "time": 101, "note": 67, "velocity": 114, "channel": 0}, {"type": "note_off", "time": 102, "note": 67, "velocity": 114, "channel": 0}, {"type": "note_on", "time": 76, "note": 68, "velocity": 115, "channel": 0}, {"type": "note_off", "time": 81, "note": 68, "velocity": 115, "channel": 0}, {"type": "note_on", "time": 131, "note": 65, "velocity": 116, "channel": 0}, {"type": "note_off", "time": 98, "note": 65, "velocity": 116, "channel": 0}, {"type": "note_on", "time": 34, "note": 61, "velocity": 108, "channel": 0}, {"type": "note_off", "time": 54, "note": 61, "velocity": 108, "channel": 0}, {"type": "note_on", "time": 31, "note": 66, "velocity": 110, "channel": 0}, {"type": "note_on", "time": 41, "note": 67, "velocity": 116, "channel": 0}, {"type": "note_off", "time": 0, "note": 66, "velocity": 110, "channel": 0}, {"type": "note_off", "time": 81, "note": 67, "velocity": 116, "channel": 0}, {"type": "note_on", "time": 5, "note": 68, "velocity": 105, "channel": 0}, {"type": "note_off", "time": 73, "note": 68, "velocity": 105, "channel": 0}, {"type": "note_on", "time": 4, "note": 65, "velocity": 119, "channel": 0}, {"type": "note_off", "time": 106, "note": 65, "velocity": 119, "channel": 0}, {"type": "note_on", "time": 27, "note": 63, "velocity": 109, "channel": 0}, {"type": "note_off", "time": 93, "note": 63, "velocity": 109, "channel": 0}, {"type": "note_on", "time": 68, "note": 68, "velocity": 116, "channel": 0}, {"type": "note_off", "time": 77, "note": 68, "velocity": 116, "channel": 0}, {"type": "note_on", "time": 129, "note": 69, "velocity": 111, "channel": 0}, {"type": "note_off", "time": 83, "note": 69, "velocity": 111, "channel": 0}, {"type": "note_on", "time": 122, "note": 65, "velocity": 114, "channel": 0}, {"type": "note_off", "time": 80, "note": 65, "velocity": 114, "channel": 0}, {"type": "note_on", "time": 88, "note": 65, "velocity": 98, "channel": 0}, {"type": "note_off", "time": 55, "note": 65, "velocity": 98, "channel": 0}, {"type": "note_on", "time": 44, "note": 71, "velocity": 113, "channel": 0}, {"type": "note_off", "time": 90, "note": 71, "velocity": 113, "channel": 0}, {"type": "note_on", "time": 1, "note": 72, "velocity": 103, "channel": 0}, {"type": "note_off", "time": 63, "note": 72, "velocity": 103, "channel": 0}, {"type": "note_on", "time": 22, "note": 68, "velocity": 111, "channel": 0}, {"type": "note_off", "time": 77, "note": 68, "velocity": 111, "channel": 0}, {"type": "note_on", "time": 140, "note": 70, "velocity": 108, "channel": 0}, {"type": "note_off", "time": 73, "note": 70, "velocity": 108, "channel": 0}, {"type": "note_on", "time": 11, "note": 68, "velocity": 111, "channel": 0}, {"type": "note_off", "time": 77, "note": 68, "velocity": 111, "channel": 0}, {"type": "note_on", "time": 23, "note": 66, "velocity": 107, "channel": 0}, {"type": "note_off", "time": 76, "note": 66, "velocity": 107, "channel": 0}, {"type": "note_on", "time": 26, "note": 64, "velocity": 92, "channel": 0}, {"type": "note_off", "time": 51, "note": 64, "velocity": 92, "channel": 0}, {"type": "note_on", "time": 26, "note": 68, "velocity": 117, "channel": 0}, {"type": "note_off", "time": 77, "note": 68, "velocity": 117, "channel": 0}, {"type": "note_on", "time": 0, "note": 67, "velocity": 112, "channel": 0}, {"type": "note_on", "time": 77, "note": 63, "velocity": 105, "channel": 0}, {"type": "note_off", "time": 0, "note": 67, "velocity": 112, "channel": 0}, {"type": "note_off", "time": 47, "note": 63, "velocity": 105, "channel": 0}, {"type": "note_on", "time": 1, "note": 65, "velocity": 108, "channel": 0}, {"type": "note_off", "time": 51, "note": 65, "velocity": 108, "channel": 0}, {"type": "note_on", "time": 11, "note": 67, "velocity": 117, "channel": 0}, {"type": "note_on", "time": 58, "note": 65, "velocity": 117, "channel": 0}, {"type": "note_off", "time": 0, "note": 67, "velocity": 117, "channel": 0}, {"type": "note_off", "time": 72, "note": 65, "velocity": 117, "channel": 0}, {"type": "note_on", "time": 19, "note": 64, "velocity": 111, "channel": 0}, {"type": "note_off", "time": 49, "note": 64, "velocity": 111, "channel": 0}, {"type": "note_on", "time": 47, "note": 61, "velocity": 107, "channel": 0}, {"type": "note_off", "time": 72, "note": 61, "velocity": 107, "channel": 0}, {"type": "note_on", "time": 9, "note": 58, "velocity": 97, "channel": 0}, {"type": "note_off", "time": 108, "note": 58, "velocity": 97, "channel": 0}, {"type": "note_on", "time": 55, "note": 63, "velocity": 117, "channel": 0}, {"type": "note_off", "time": 87, "note": 63, "velocity": 117, "channel": 0}, {"type": "note_on", "time": 0, "note": 62, "velocity": 110, "channel": 0}, {"type": "note_off", "time": 77, "note": 62, "velocity": 110, "channel": 0}, {"type": "note_on", "time": 9, "note": 61, "velocity": 99, "channel": 0}, {"type": "note_off", "time": 94, "note": 61, "velocity": 99, "channel": 0}, {"type": "note_on", "time": 16, "note": 59, "velocity": 107, "channel": 0}, {"type": "note_off", "time": 108, "note": 59, "velocity": 107, "channel": 0}, {"type": "note_on", "time": 0, "note": 60, "velocity": 106, "channel": 0}, {"type": "note_off", "time": 49, "note": 60, "velocity": 106, "channel": 0}, {"type": "note_on", "time": 13, "note": 59, "velocity": 107, "channel": 0}, {"type": "note_off", "time": 41, "note": 59, "velocity": 107, "channel": 0}, {"type": "note_on", "time": 11, "note": 54, "velocity": 119, "channel": 0}, {"type": "note_off", "time": 126, "note": 54, "velocity": 119, "channel": 0}, {"type": "note_on", "time": 107, "note": 59, "velocity": 101, "channel": 0}, {"type": "note_off", "time": 102, "note": 59, "velocity": 101, "channel": 0}, {"type": "note_on", "time": 87, "note": 53, "velocity": 109, "channel": 0}, {"type": "note_off", "time": 73, "note": 53, "velocity": 109, "channel": 0}, {"type": "note_on", "time": 28, "note": 54, "velocity": 106, "channel": 0}, {"type": "note_off", "time": 47, "note": 54, "velocity": 106, "channel": 0}, {"type": "note_on", "time": 22, "note": 56, "velocity": 105, "channel": 0}, {"type": "note_off", "time": 102, "note": 56, "velocity": 105, "channel": 0}, {"type": "note_on", "time": 1054, "note": 72, "velocity": 119, "channel": 0}, {"type": "note_off", "time": 84, "note": 72, "velocity": 119, "channel": 0}, {"type": "note_on", "time": 111, "note": 75, "velocity": 106, "channel": 0}, {"type": "note_off", "time": 565, "note": 75, "velocity": 106, "channel": 0}, {"type": "note_on", "time": 0, "note": 72, "velocity": 121, "channel": 0}, {"type": "note_off", "time": 115, "note": 72, "velocity": 121, "channel": 0}, {"type": "note_on", "time": 19, "note": 71, "velocity": 108, "channel": 0}, {"type": "note_off", "time": 69, "note": 71, "velocity": 108, "channel": 0}, {"type": "note_on", "time": 0, "note": 75, "velocity": 112, "channel": 0}, {"type": "note_off", "time": 195, "note": 75, "velocity": 112, "channel": 0}, {"type": "note_on", "time": 0, "note": 72, "velocity": 114, "channel": 0}, {"type": "note_off", "time": 86, "note": 72, "velocity": 114, "channel": 0}, {"type": "note_on", "time": 56, "note": 82, "velocity": 117, "channel": 0}, {"type": "note_off", "time": 98, "note": 82, "velocity": 117, "channel": 0}, {"type": "note_on", "time": 0, "note": 75, "velocity": 105, "channel": 0}, {"type": "note_off", "time": 487, "note": 75, "velocity": 105, "channel": 0}, {"type": "note_on", "time": 18, "note": 72, "velocity": 112, "channel": 0}, {"type": "note_off", "time": 108, "note": 72, "velocity": 112, "channel": 0}, {"type": "note_on", "time": 0, "note": 77, "velocity": 109, "channel": 0}, {"type": "note_off", "time": 84, "note": 77, "velocity": 109, "channel": 0}, {"type": "note_on", "time": 0, "note": 75, "velocity": 109, "channel": 0}, {"type": "note_off", "time": 201, "note": 75, "velocity": 109, "channel": 0}, {"type": "note_on", "time": 5, "note": 72, "velocity": 115, "channel": 0}, {"type": "note_off", "time": 84, "note": 72, "velocity": 115, "channel": 0}, {"type": "note_on", "time": 0, "note": 83, "velocity": 117, "channel": 0}, {"type": "note_off", "time": 108, "note": 83, "velocity": 117, "channel": 0}, {"type": "note_on", "time": 0, "note": 75, "velocity": 108, "channel": 0}, {"type": "note_off", "time": 474, "note": 75, "velocity": 108, "channel": 0}, {"type": "note_on", "time": 4, "note": 72, "velocity": 115, "channel": 0}, {"type": "note_off", "time": 397, "note": 72, "velocity": 115, "channel": 0}, {"type": "note_on", "time": 88, "note": 72, "velocity": 111, "channel": 0}, {"type": "note_off", "time": 84, "note": 72, "velocity": 111, "channel": 0}, {"type": "note_on", "time": 1, "note": 77, "velocity": 108, "channel": 0}, {"type": "note_off", "time": 74, "note": 77, "velocity": 108, "channel": 0}, {"type": "note_on", "time": 6, "note": 75, "velocity": 106, "channel": 0}, {"type": "note_off", "time": 195, "note": 75, "velocity": 106, "channel": 0}, {"type": "note_on", "time": 9, "note": 72, "velocity": 114, "channel": 0}, {"type": "note_off", "time": 99, "note": 72, "velocity": 114, "channel": 0}, {"type": "note_on", "time": 12, "note": 83, "velocity": 109, "channel": 0}, {"type": "note_off", "time": 88, "note": 83, "velocity": 109, "channel": 0}, {"type": "note_on", "time": 0, "note": 82, "velocity": 111, "channel": 0}, {"type": "note_off", "time": 49, "note": 82, "velocity": 111, "channel": 0}, {"type": "note_on", "time": 0, "note": 75, "velocity": 105, "channel": 0}, {"type": "note_off", "time": 376, "note": 75, "velocity": 105, "channel": 0}, {"type": "note_on", "time": 108, "note": 72, "velocity": 119, "channel": 0}, {"type": "note_off", "time": 165, "note": 72, "velocity": 119, "channel": 0}, {"type": "note_on", "time": 2, "note": 71, "velocity": 109, "channel": 0}, {"type": "note_off", "time": 43, "note": 71, "velocity": 109, "channel": 0}, {"type": "note_on", "time": 517, "note": 72, "velocity": 115, "channel": 0}, {"type": "note_off", "time": 118, "note": 72, "velocity": 115, "channel": 0}, {"type": "note_on", "time": 0, "note": 77, "velocity": 106, "channel": 0}, {"type": "note_off", "time": 40, "note": 77, "velocity": 106, "channel": 0}, {"type": "note_on", "time": 0, "note": 75, "velocity": 101, "channel": 0}, {"type": "note_off", "time": 504, "note": 75, "velocity": 101, "channel": 0}, {"type": "note_on", "time": 20, "note": 72, "velocity": 120, "channel": 0}, {"type": "note_off", "time": 112, "note": 72, "velocity": 120, "channel": 0}, {"type": "note_on", "time": 102, "note": 65, "velocity": 113, "channel": 0}, {"type": "note_off", "time": 94, "note": 65, "velocity": 113, "channel": 0}, {"type": "note_on", "time": 101, "note": 65, "velocity": 108, "channel": 0}, {"type": "note_off", "time": 59, "note": 65, "velocity": 108, "channel": 0}, {"type": "note_on", "time": 27, "note": 68, "velocity": 117, "channel": 0}, {"type": "note_off", "time": 112, "note": 68, "velocity": 117, "channel": 0}, {"type": "note_on", "time": 70, "note": 70, "velocity": 112, "channel": 0}, {"type": "note_off", "time": 97, "note": 70, "velocity": 112, "channel": 0}, {"type": "note_on", "time": 115, "note": 68, "velocity": 118, "channel": 0}, {"type": "note_off", "time": 177, "note": 68, "velocity": 118, "channel": 0}, {"type": "note_on", "time": 2, "note": 69, "velocity": 108, "channel": 0}, {"type": "note_off", "time": 480, "note": 69, "velocity": 108, "channel": 0}, {"type": "note_on", "time": 41, "note": 67, "velocity": 116, "channel": 0}, {"type": "note_off", "time": 77, "note": 67, "velocity": 116, "channel": 0}, {"type": "note_on", "time": 16, "note": 65, "velocity": 113, "channel": 0}, {"type": "note_off", "time": 58, "note": 65, "velocity": 113, "channel": 0}, {"type": "note_on", "time": 45, "note": 60, "velocity": 107, "channel": 0}, {"type": "note_off", "time": 55, "note": 60, "velocity": 107, "channel": 0}, {"type": "note_on", "time": 26, "note": 58, "velocity": 107, "channel": 0}, {"type": "note_off", "time": 69, "note": 58, "velocity": 107, "channel": 0}, {"type": "note_on", "time": 24, "note": 55, "velocity": 104, "channel": 0}, {"type": "note_off", "time": 54, "note": 55, "velocity": 104, "channel": 0}, {"type": "note_on", "time": 0, "note": 63, "velocity": 117, "channel": 0}, {"type": "note_off", "time": 202, "note": 63, "velocity": 117, "channel": 0}, {"type": "note_on", "time": 0, "note": 64, "velocity": 110, "channel": 0}, {"type": "note_off", "time": 30, "note": 64, "velocity": 110, "channel": 0}, {"type": "note_on", "time": 1252, "note": 69, "velocity": 118, "channel": 0}, {"type": "note_off", "time": 105, "note": 69, "velocity": 118, "channel": 0}, {"type": "note_on", "time": 6, "note": 67, "velocity": 117, "channel": 0}, {"type": "note_off", "time": 87, "note": 67, "velocity": 117, "channel": 0}, {"type": "note_on", "time": 1, "note": 63, "velocity": 116, "channel": 0}, {"type": "note_off", "time": 145, "note": 63, "velocity": 116, "channel": 0}, {"type": "note_on", "time": 430, "note": 60, "velocity": 110, "channel": 0}, {"type": "note_off", "time": 149, "note": 60, "velocity": 110, "channel": 0}, {"type": "note_on", "time": 143, "note": 55, "velocity": 117, "channel": 0}, {"type": "note_off", "time": 58, "note": 55, "velocity": 117, "channel": 0}, {"type": "note_on", "time": 0, "note": 57, "velocity": 105, "channel": 0}, {"type": "note_off", "time": 87, "note": 57, "velocity": 105, "channel": 0}, {"type": "note_on", "time": 23, "note": 60, "velocity": 107, "channel": 0}, {"type": "note_off", "time": 90, "note": 60, "velocity": 107, "channel": 0}, {"type": "note_on", "time": 62, "note": 65, "velocity": 93, "channel": 0}, {"type": "note_off", "time": 74, "note": 65, "velocity": 93, "channel": 0}, {"type": "note_on", "time": 29, "note": 70, "velocity": 114, "channel": 0}, {"type": "note_off", "time": 108, "note": 70, "velocity": 114, "channel": 0}, {"type": "note_on", "time": 23, "note": 68, "velocity": 121, "channel": 0}, {"type": "note_off", "time": 59, "note": 68, "velocity": 121, "channel": 0}, {"type": "note_on", "time": 18, "note": 65, "velocity": 118, "channel": 0}, {"type": "note_off", "time": 84, "note": 65, "velocity": 118, "channel": 0}, {"type": "note_on", "time": 15, "note": 60, "velocity": 100, "channel": 0}, {"type": "note_off", "time": 66, "note": 60, "velocity": 100, "channel": 0}, {"type": "note_on", "time": 8, "note": 68, "velocity": 119, "channel": 0}, {"type": "note_off", "time": 123, "note": 68, "velocity": 119, "channel": 0}, {"type": "note_on", "time": 15, "note": 66, "velocity": 115, "channel": 0}, {"type": "note_off", "time": 70, "note": 66, "velocity": 115, "channel": 0}, {"type": "note_on", "time": 11, "note": 63, "velocity": 119, "channel": 0}, {"type": "note_off", "time": 101, "note": 63, "velocity": 119, "channel": 0}, {"type": "note_on", "time": 8, "note": 59, "velocity": 103, "channel": 0}, {"type": "note_off", "time": 70, "note": 59, "velocity": 103, "channel": 0}, {"type": "note_on", "time": 4, "note": 64, "velocity": 123, "channel": 0}, {"type": "note_off", "time": 91, "note": 64, "velocity": 123, "channel": 0}, {"type": "note_on", "time": 0, "note": 68, "velocity": 120, "channel": 0}, {"type": "note_off", "time": 88, "note": 68, "velocity": 120, "channel": 0}, {"type": "note_on", "time": 0, "note": 66, "velocity": 112, "channel": 0}, {"type": "note_off", "time": 83, "note": 66, "velocity": 112, "channel": 0}, {"type": "note_on", "time": 0, "note": 64, "velocity": 112, "channel": 0}, {"type": "note_off", "time": 161, "note": 64, "velocity": 112, "channel": 0}, {"type": "note_on", "time": 130, "note": 64, "velocity": 10, "channel": 0}, {"type": "note_off", "time": 102, "note": 64, "velocity": 10, "channel": 0}, {"type": "note_on", "time": 4, "note": 63, "velocity": 119, "channel": 0}, {"type": "note_off", "time": 83, "note": 63, "velocity": 119, "channel": 0}, {"type": "note_on", "time": 8, "note": 62, "velocity": 121, "channel": 0}, {"type": "note_off", "time": 98, "note": 62, "velocity": 121, "channel": 0}, {"type": "note_on", "time": 1, "note": 61, "velocity": 112, "channel": 0}, {"type": "note_off", "time": 80, "note": 61, "velocity": 112, "channel": 0}, {"type": "note_on", "time": 29, "note": 59, "velocity": 103, "channel": 0}, {"type": "note_on", "time": 38, "note": 58, "velocity": 104, "channel": 0}, {"type": "note_off", "time": 0, "note": 59, "velocity": 103, "channel": 0}, {"type": "note_off", "time": 19, "note": 58, "velocity": 104, "channel": 0}, {"type": "note_on", "time": 212, "note": 57, "velocity": 116, "channel": 0}, {"type": "note_off", "time": 72, "note": 57, "velocity": 116, "channel": 0}, {"type": "note_on", "time": 4, "note": 54, "velocity": 103, "channel": 0}, {"type": "note_off", "time": 69, "note": 54, "velocity": 103, "channel": 0}, {"type": "note_on", "time": 26, "note": 55, "velocity": 106, "channel": 0}, {"type": "note_off", "time": 76, "note": 55, "velocity": 106, "channel": 0}, {"type": "note_on", "time": 24, "note": 56, "velocity": 109, "channel": 0}, {"type": "note_off", "time": 295, "note": 56, "velocity": 109, "channel": 0}, {"type": "note_on", "time": 517, "note": 58, "velocity": 117, "channel": 0}, {"type": "note_off", "time": 81, "note": 58, "velocity": 117, "channel": 0}, {"type": "note_on", "time": 304, "note": 57, "velocity": 111, "channel": 0}, {"type": "note_off", "time": 104, "note": 57, "velocity": 111, "channel": 0}, {"type": "note_on", "time": 0, "note": 53, "velocity": 107, "channel": 0}, {"type": "note_off", "time": 52, "note": 53, "velocity": 107, "channel": 0}, {"type": "note_on", "time": 6, "note": 50, "velocity": 102, "channel": 0}, {"type": "note_off", "time": 58, "note": 50, "velocity": 102, "channel": 0}, {"type": "note_on", "time": 61, "note": 51, "velocity": 109, "channel": 0}, {"type": "note_off", "time": 48, "note": 51, "velocity": 109, "channel": 0}, {"type": "note_on", "time": 8, "note": 53, "velocity": 107, "channel": 0}, {"type": "note_off", "time": 40, "note": 53, "velocity": 107, "channel": 0}, {"type": "note_on", "time": 8, "note": 55, "velocity": 114, "channel": 0}, {"type": "note_off", "time": 68, "note": 55, "velocity": 114, "channel": 0}, {"type": "note_on", "time": 23, "note": 52, "velocity": 116, "channel": 0}, {"type": "note_off", "time": 93, "note": 52, "velocity": 116, "channel": 0}, {"type": "note_on", "time": 30, "note": 53, "velocity": 110, "channel": 0}, {"type": "note_off", "time": 63, "note": 53, "velocity": 110, "channel": 0}, {"type": "note_on", "time": 13, "note": 55, "velocity": 107, "channel": 0}, {"type": "note_off", "time": 68, "note": 55, "velocity": 107, "channel": 0}, {"type": "note_on", "time": 29, "note": 56, "velocity": 112, "channel": 0}, {"type": "note_off", "time": 70, "note": 56, "velocity": 112, "channel": 0}, {"type": "note_on", "time": 26, "note": 58, "velocity": 109, "channel": 0}, {"type": "note_off", "time": 68, "note": 58, "velocity": 109, "channel": 0}, {"type": "note_on", "time": 22, "note": 60, "velocity": 112, "channel": 0}, {"type": "note_off", "time": 83, "note": 60, "velocity": 112, "channel": 0}, {"type": "note_on", "time": 13, "note": 62, "velocity": 115, "channel": 0}, {"type": "note_off", "time": 94, "note": 62, "velocity": 115, "channel": 0}, {"type": "note_on", "time": 5, "note": 63, "velocity": 123, "channel": 0}, {"type": "note_off", "time": 93, "note": 63, "velocity": 123, "channel": 0}, {"type": "note_on", "time": 0, "note": 61, "velocity": 110, "channel": 0}, {"type": "note_off", "time": 86, "note": 61, "velocity": 110, "channel": 0}, {"type": "note_on", "time": 13, "note": 62, "velocity": 114, "channel": 0}, {"type": "note_off", "time": 99, "note": 62, "velocity": 114, "channel": 0}, {"type": "note_on", "time": 488, "note": 69, "velocity": 120, "channel": 0}, {"type": "note_off", "time": 109, "note": 69, "velocity": 120, "channel": 0}, {"type": "note_on", "time": 12, "note": 70, "velocity": 112, "channel": 0}, {"type": "note_off", "time": 88, "note": 70, "velocity": 112, "channel": 0}, {"type": "note_on", "time": 0, "note": 66, "velocity": 116, "channel": 0}, {"type": "note_off", "time": 69, "note": 66, "velocity": 116, "channel": 0}, {"type": "note_on", "time": 20, "note": 69, "velocity": 112, "channel": 0}, {"type": "note_off", "time": 88, "note": 69, "velocity": 112, "channel": 0}, {"type": "note_on", "time": 0, "note": 67, "velocity": 114, "channel": 0}, {"type": "note_off", "time": 102, "note": 67, "velocity": 114, "channel": 0}, {"type": "note_on", "time": 12, "note": 62, "velocity": 106, "channel": 0}, {"type": "note_off", "time": 86, "note": 62, "velocity": 106, "channel": 0}, {"type": "note_on", "time": 0, "note": 65, "velocity": 117, "channel": 0}, {"type": "note_off", "time": 93, "note": 65, "velocity": 117, "channel": 0}, {"type": "note_on", "time": 5, "note": 62, "velocity": 106, "channel": 0}, {"type": "note_off", "time": 80, "note": 62, "velocity": 106, "channel": 0}, {"type": "note_on", "time": 0, "note": 64, "velocity": 119, "channel": 0}, {"type": "note_on", "time": 112, "note": 62, "velocity": 119, "channel": 0}, {"type": "note_off", "time": 0, "note": 64, "velocity": 119, "channel": 0}, {"type": "note_off", "time": 99, "note": 62, "velocity": 119, "channel": 0}, {"type": "note_on", "time": 6, "note": 60, "velocity": 109, "channel": 0}, {"type": "note_off", "time": 79, "note": 60, "velocity": 109, "channel": 0}, {"type": "note_on", "time": 23, "note": 59, "velocity": 107, "channel": 0}, {"type": "note_off", "time": 86, "note": 59, "velocity": 107, "channel": 0}, {"type": "note_on", "time": 0, "note": 58, "velocity": 111, "channel": 0}, {"type": "note_off", "time": 59, "note": 58, "velocity": 111, "channel": 0}, {"type": "note_on", "time": 0, "note": 60, "velocity": 111, "channel": 0}, {"type": "note_off", "time": 59, "note": 60, "velocity": 111, "channel": 0}, {"type": "note_on", "time": 11, "note": 62, "velocity": 116, "channel": 0}, {"type": "note_off", "time": 76, "note": 62, "velocity": 116, "channel": 0}, {"type": "note_on", "time": 30, "note": 65, "velocity": 112, "channel": 0}, {"type": "note_off", "time": 72, "note": 65, "velocity": 112, "channel": 0}, {"type": "note_on", "time": 12, "note": 69, "velocity": 121, "channel": 0}, {"type": "note_off", "time": 99, "note": 69, "velocity": 121, "channel": 0}, {"type": "note_on", "time": 6, "note": 68, "velocity": 118, "channel": 0}, {"type": "note_off", "time": 84, "note": 68, "velocity": 118, "channel": 0}, {"type": "note_on", "time": 24, "note": 64, "velocity": 117, "channel": 0}, {"type": "note_on", "time": 118, "note": 58, "velocity": 100, "channel": 0}, {"type": "note_off", "time": 0, "note": 64, "velocity": 117, "channel": 0}, {"type": "note_off", "time": 55, "note": 58, "velocity": 100, "channel": 0}, {"type": "note_on", "time": 9, "note": 67, "velocity": 117, "channel": 0}, {"type": "note_off", "time": 105, "note": 67, "velocity": 117, "channel": 0}, {"type": "note_on", "time": 6, "note": 61, "velocity": 113, "channel": 0}, {"type": "note_on", "time": 133, "note": 62, "velocity": 114, "channel": 0}, {"type": "note_off", "time": 0, "note": 61, "velocity": 113, "channel": 0}, {"type": "note_off", "time": 63, "note": 62, "velocity": 114, "channel": 0}, {"type": "note_on", "time": 0, "note": 63, "velocity": 121, "channel": 0}, {"type": "note_off", "time": 377, "note": 63, "velocity": 121, "channel": 0}, {"type": "note_on", "time": 74, "note": 67, "velocity": 121, "channel": 0}, {"type": "note_off", "time": 112, "note": 67, "velocity": 121, "channel": 0}, {"type": "note_on", "time": 68, "note": 62, "velocity": 115, "channel": 0}, {"type": "note_off", "time": 105, "note": 62, "velocity": 115, "channel": 0}, {"type": "note_on", "time": 8, "note": 63, "velocity": 120, "channel": 0}, {"type": "note_off", "time": 220, "note": 63, "velocity": 120, "channel": 0}, {"type": "note_on", "time": 29, "note": 67, "velocity": 122, "channel": 0}, {"type": "note_off", "time": 127, "note": 67, "velocity": 122, "channel": 0}, {"type": "note_on", "time": 76, "note": 62, "velocity": 111, "channel": 0}, {"type": "note_off", "time": 112, "note": 62, "velocity": 111, "channel": 0}, {"type": "note_on", "time": 5, "note": 63, "velocity": 122, "channel": 0}, {"type": "note_off", "time": 234, "note": 63, "velocity": 122, "channel": 0}, {"type": "note_on", "time": 26, "note": 67, "velocity": 120, "channel": 0}, {"type": "note_off", "time": 113, "note": 67, "velocity": 120, "channel": 0}, {"type": "note_on", "time": 66, "note": 62, "velocity": 113, "channel": 0}, {"type": "note_off", "time": 119, "note": 62, "velocity": 113, "channel": 0}, {"type": "note_on", "time": 4, "note": 63, "velocity": 113, "channel": 0}, {"type": "note_off", "time": 163, "note": 63, "velocity": 113, "channel": 0}, {"type": "note_on", "time": 19, "note": 68, "velocity": 118, "channel": 0}, {"type": "note_off", "time": 284, "note": 68, "velocity": 118, "channel": 0}, {"type": "note_on", "time": 369, "note": 72, "velocity": 122, "channel": 0}, {"type": "note_off", "time": 118, "note": 72, "velocity": 122, "channel": 0}, {"type": "note_on", "time": 0, "note": 65, "velocity": 108, "channel": 0}, {"type": "note_off", "time": 59, "note": 65, "velocity": 108, "channel": 0}, {"type": "note_on", "time": 18, "note": 67, "velocity": 115, "channel": 0}, {"type": "note_off", "time": 131, "note": 67, "velocity": 115, "channel": 0}, {"type": "note_on", "time": 8, "note": 68, "velocity": 121, "channel": 0}, {"type": "note_off", "time": 213, "note": 68, "velocity": 121, "channel": 0}, {"type": "note_on", "time": 37, "note": 72, "velocity": 112, "channel": 0}, {"type": "note_off", "time": 116, "note": 72, "velocity": 112, "channel": 0}, {"type": "note_on", "time": 66, "note": 67, "velocity": 118, "channel": 0}, {"type": "note_off", "time": 119, "note": 67, "velocity": 118, "channel": 0}, {"type": "note_on", "time": 20, "note": 68, "velocity": 119, "channel": 0}, {"type": "note_off", "time": 201, "note": 68, "velocity": 119, "channel": 0}, {"type": "note_on", "time": 27, "note": 72, "velocity": 112, "channel": 0}, {"type": "note_off", "time": 129, "note": 72, "velocity": 112, "channel": 0}, {"type": "note_on", "time": 56, "note": 67, "velocity": 116, "channel": 0}, {"type": "note_off", "time": 136, "note": 67, "velocity": 116, "channel": 0}, {"type": "note_on", "time": 55, "note": 67, "velocity": 109, "channel": 0}, {"type": "note_off", "time": 143, "note": 67, "velocity": 109, "channel": 0}, {"type": "note_on", "time": 68, "note": 62, "velocity": 108, "channel": 0}, {"type": "note_off", "time": 84, "note": 62, "velocity": 108, "channel": 0}, {"type": "note_on", "time": 6, "note": 63, "velocity": 121, "channel": 0}, {"type": "note_off", "time": 236, "note": 63, "velocity": 121, "channel": 0}, {"type": "note_on", "time": 19, "note": 67, "velocity": 115, "channel": 0}, {"type": "note_off", "time": 118, "note": 67, "velocity": 115, "channel": 0}, {"type": "note_on", "time": 47, "note": 62, "velocity": 113, "channel": 0}, {"type": "note_off", "time": 88, "note": 62, "velocity": 113, "channel": 0}, {"type": "note_on", "time": 8, "note": 63, "velocity": 119, "channel": 0}, {"type": "note_off", "time": 148, "note": 63, "velocity": 119, "channel": 0}, {"type": "note_on", "time": 236, "note": 68, "velocity": 120, "channel": 0}, {"type": "note_off", "time": 162, "note": 68, "velocity": 120, "channel": 0}, {"type": "note_on", "time": 738, "note": 69, "velocity": 115, "channel": 0}, {"type": "note_off", "time": 76, "note": 69, "velocity": 115, "channel": 0}, {"type": "note_on", "time": 6, "note": 71, "velocity": 118, "channel": 0}, {"type": "note_off", "time": 63, "note": 71, "velocity": 118, "channel": 0}, {"type": "note_on", "time": 0, "note": 70, "velocity": 119, "channel": 0}, {"type": "note_off", "time": 45, "note": 70, "velocity": 119, "channel": 0}, {"type": "note_on", "time": 38, "note": 66, "velocity": 111, "channel": 0}, {"type": "note_off", "time": 59, "note": 66, "velocity": 111, "channel": 0}, {"type": "note_on", "time": 102, "note": 68, "velocity": 126, "channel": 0}, {"type": "note_off", "time": 126, "note": 68, "velocity": 126, "channel": 0}, {"type": "note_on", "time": 56, "note": 60, "velocity": 116, "channel": 0}, {"type": "note_off", "time": 112, "note": 60, "velocity": 116, "channel": 0}, {"type": "note_on", "time": 1706, "note": 72, "velocity": 123, "channel": 0}, {"type": "note_off", "time": 62, "note": 72, "velocity": 123, "channel": 0}, {"type": "note_on", "time": 0, "note": 73, "velocity": 118, "channel": 0}, {"type": "note_off", "time": 33, "note": 73, "velocity": 118, "channel": 0}, {"type": "note_on", "time": 2, "note": 75, "velocity": 112, "channel": 0}, {"type": "note_off", "time": 642, "note": 75, "velocity": 112, "channel": 0}, {"type": "note_on", "time": 48, "note": 72, "velocity": 125, "channel": 0}, {"type": "note_off", "time": 83, "note": 72, "velocity": 125, "channel": 0}, {"type": "note_on", "time": 0, "note": 73, "velocity": 117, "channel": 0}, {"type": "note_off", "time": 33, "note": 73, "velocity": 117, "channel": 0}, {"type": "note_on", "time": 0, "note": 74, "velocity": 111, "channel": 0}, {"type": "note_off", "time": 45, "note": 74, "velocity": 111, "channel": 0}, {"type": "note_on", "time": 0, "note": 70, "velocity": 122, "channel": 0}, {"type": "note_on", "time": 108, "note": 72, "velocity": 120, "channel": 0}, {"type": "note_off", "time": 0, "note": 70, "velocity": 122, "channel": 0}, {"type": "note_off", "time": 81, "note": 72, "velocity": 120, "channel": 0}, {"type": "note_on", "time": 2, "note": 68, "velocity": 123, "channel": 0}, {"type": "note_off", "time": 99, "note": 68, "velocity": 123, "channel": 0}, {"type": "note_on", "time": 0, "note": 70, "velocity": 118, "channel": 0}, {"type": "note_off", "time": 76, "note": 70, "velocity": 118, "channel": 0}, {"type": "note_on", "time": 9, "note": 65, "velocity": 117, "channel": 0}, {"type": "note_off", "time": 101, "note": 65, "velocity": 117, "channel": 0}, {"type": "note_on", "time": 13, "note": 68, "velocity": 124, "channel": 0}, {"type": "note_off", "time": 52, "note": 68, "velocity": 124, "channel": 0}, {"type": "note_on", "time": 0, "note": 65, "velocity": 120, "channel": 0}, {"type": "note_on", "time": 40, "note": 63, "velocity": 122, "channel": 0}, {"type": "note_off", "time": 0, "note": 65, "velocity": 120, "channel": 0}, {"type": "note_off", "time": 123, "note": 63, "velocity": 122, "channel": 0}, {"type": "note_on", "time": 0, "note": 65, "velocity": 115, "channel": 0}, {"type": "note_off", "time": 66, "note": 65, "velocity": 115, "channel": 0}, {"type": "note_on", "time": 6, "note": 60, "velocity": 115, "channel": 0}, {"type": "note_off", "time": 101, "note": 60, "velocity": 115, "channel": 0}, {"type": "note_on", "time": 23, "note": 63, "velocity": 112, "channel": 0}, {"type": "note_off", "time": 80, "note": 63, "velocity": 112, "channel": 0}, {"type": "note_on", "time": 0, "note": 68, "velocity": 111, "channel": 0}, {"type": "note_off", "time": 93, "note": 68, "velocity": 111, "channel": 0}, {"type": "note_on", "time": 0, "note": 66, "velocity": 112, "channel": 0}, {"type": "note_off", "time": 184, "note": 66, "velocity": 112, "channel": 0}, {"type": "note_on", "time": 18, "note": 65, "velocity": 102, "channel": 0}, {"type": "note_off", "time": 83, "note": 65, "velocity": 102, "channel": 0}, {"type": "note_on", "time": 9, "note": 67, "velocity": 111, "channel": 0}, {"type": "note_off", "time": 69, "note": 67, "velocity": 111, "channel": 0}, {"type": "note_on", "time": 1, "note": 68, "velocity": 109, "channel": 0}, {"type": "note_off", "time": 34, "note": 68, "velocity": 109, "channel": 0}, {"type": "note_on", "time": 8, "note": 69, "velocity": 108, "channel": 0}, {"type": "note_off", "time": 66, "note": 69, "velocity": 108, "channel": 0}, {"type": "note_on", "time": 18, "note": 65, "velocity": 116, "channel": 0}, {"type": "note_off", "time": 99, "note": 65, "velocity": 116, "channel": 0}, {"type": "note_on", "time": 0, "note": 62, "velocity": 113, "channel": 0}, {"type": "note_off", "time": 88, "note": 62, "velocity": 113, "channel": 0}, {"type": "note_on", "time": 9, "note": 67, "velocity": 122, "channel": 0}, {"type": "note_off", "time": 99, "note": 67, "velocity": 122, "channel": 0}, {"type": "note_on", "time": 5, "note": 64, "velocity": 125, "channel": 0}, {"type": "note_off", "time": 88, "note": 64, "velocity": 125, "channel": 0}, {"type": "note_on", "time": 12, "note": 65, "velocity": 119, "channel": 0}, {"type": "note_off", "time": 68, "note": 65, "velocity": 119, "channel": 0}, {"type": "note_on", "time": 0, "note": 64, "velocity": 126, "channel": 0}, {"type": "note_off", "time": 136, "note": 64, "velocity": 126, "channel": 0}, {"type": "note_on", "time": 5, "note": 63, "velocity": 122, "channel": 0}, {"type": "note_off", "time": 95, "note": 63, "velocity": 122, "channel": 0}, {"type": "note_on", "time": 13, "note": 61, "velocity": 115, "channel": 0}, {"type": "note_off", "time": 73, "note": 61, "velocity": 115, "channel": 0}, {"type": "note_on", "time": 6, "note": 58, "velocity": 97, "channel": 0}, {"type": "note_off", "time": 88, "note": 58, "velocity": 97, "channel": 0}, {"type": "note_on", "time": 72, "note": 62, "velocity": 122, "channel": 0}, {"type": "note_off", "time": 105, "note": 62, "velocity": 122, "channel": 0}, {"type": "note_on", "time": 5, "note": 61, "velocity": 114, "channel": 0}, {"type": "note_off", "time": 65, "note": 61, "velocity": 114, "channel": 0}, {"type": "note_on", "time": 13, "note": 60, "velocity": 110, "channel": 0}, {"type": "note_off", "time": 81, "note": 60, "velocity": 110, "channel": 0}, {"type": "note_on", "time": 51, "note": 59, "velocity": 112, "channel": 0}, {"type": "note_off", "time": 66, "note": 59, "velocity": 112, "channel": 0}, {"type": "note_on", "time": 13, "note": 58, "velocity": 104, "channel": 0}, {"type": "note_off", "time": 81, "note": 58, "velocity": 104, "channel": 0}, {"type": "note_on", "time": 22, "note": 57, "velocity": 110, "channel": 0}, {"type": "note_off", "time": 58, "note": 57, "velocity": 110, "channel": 0}, {"type": "note_on", "time": 13, "note": 56, "velocity": 115, "channel": 0}, {"type": "note_off", "time": 94, "note": 56, "velocity": 115, "channel": 0}, {"type": "note_on", "time": 38, "note": 55, "velocity": 113, "channel": 0}, {"type": "note_off", "time": 51, "note": 55, "velocity": 113, "channel": 0}, {"type": "note_on", "time": 0, "note": 54, "velocity": 107, "channel": 0}, {"type": "note_off", "time": 161, "note": 54, "velocity": 107, "channel": 0}, {"type": "note_on", "time": 8, "note": 50, "velocity": 95, "channel": 0}, {"type": "note_off", "time": 84, "note": 50, "velocity": 95, "channel": 0}, {"type": "note_on", "time": 15, "note": 53, "velocity": 113, "channel": 0}, {"type": "note_off", "time": 130, "note": 53, "velocity": 113, "channel": 0}, {"type": "note_on", "time": 362, "note": 55, "velocity": 113, "channel": 0}, {"type": "note_off", "time": 116, "note": 55, "velocity": 113, "channel": 0}, {"type": "note_on", "time": 6, "note": 52, "velocity": 113, "channel": 0}, {"type": "note_off", "time": 62, "note": 52, "velocity": 113, "channel": 0}, {"type": "note_on", "time": 4, "note": 53, "velocity": 111, "channel": 0}, {"type": "note_off", "time": 61, "note": 53, "velocity": 111, "channel": 0}, {"type": "note_on", "time": 24, "note": 55, "velocity": 114, "channel": 0}, {"type": "note_off", "time": 97, "note": 55, "velocity": 114, "channel": 0}, {"type": "note_on", "time": 8, "note": 57, "velocity": 108, "channel": 0}, {"type": "note_off", "time": 59, "note": 57, "velocity": 108, "channel": 0}, {"type": "note_on", "time": 6, "note": 59, "velocity": 107, "channel": 0}, {"type": "note_on", "time": 33, "note": 58, "velocity": 105, "channel": 0}, {"type": "note_off", "time": 0, "note": 59, "velocity": 107, "channel": 0}, {"type": "note_off", "time": 76, "note": 58, "velocity": 105, "channel": 0}, {"type": "note_on", "time": 0, "note": 60, "velocity": 114, "channel": 0}, {"type": "note_off", "time": 93, "note": 60, "velocity": 114, "channel": 0}, {"type": "note_on", "time": 0, "note": 62, "velocity": 111, "channel": 0}, {"type": "note_off", "time": 77, "note": 62, "velocity": 111, "channel": 0}, {"type": "note_on", "time": 13, "note": 63, "velocity": 124, "channel": 0}, {"type": "note_off", "time": 133, "note": 63, "velocity": 124, "channel": 0}, {"type": "note_on", "time": 27, "note": 65, "velocity": 120, "channel": 0}, {"type": "note_off", "time": 134, "note": 65, "velocity": 120, "channel": 0}, {"type": "note_on", "time": 12, "note": 62, "velocity": 123, "channel": 0}, {"type": "note_off", "time": 111, "note": 62, "velocity": 123, "channel": 0}, {"type": "note_on", "time": 80, "note": 58, "velocity": 112, "channel": 0}, {"type": "note_off", "time": 101, "note": 58, "velocity": 112, "channel": 0}, {"type": "note_on", "time": 166, "note": 53, "velocity": 112, "channel": 0}, {"type": "note_off", "time": 88, "note": 53, "velocity": 112, "channel": 0}, {"type": "note_on", "time": 43, "note": 50, "velocity": 102, "channel": 0}, {"type": "note_off", "time": 63, "note": 50, "velocity": 102, "channel": 0}, {"type": "note_on", "time": 8, "note": 51, "velocity": 103, "channel": 0}, {"type": "note_off", "time": 87, "note": 51, "velocity": 103, "channel": 0}, {"type": "note_on", "time": 119, "note": 57, "velocity": 106, "channel": 0}, {"type": "note_off", "time": 69, "note": 57, "velocity": 106, "channel": 0}, {"type": "note_on", "time": 104, "note": 60, "velocity": 118, "channel": 0}, {"type": "note_off", "time": 77, "note": 60, "velocity": 118, "channel": 0}, {"type": "note_on", "time": 27, "note": 57, "velocity": 104, "channel": 0}, {"type": "note_off", "time": 73, "note": 57, "velocity": 104, "channel": 0}, {"type": "note_on", "time": 18, "note": 58, "velocity": 110, "channel": 0}, {"type": "note_off", "time": 66, "note": 58, "velocity": 110, "channel": 0}, {"type": "note_on", "time": 22, "note": 60, "velocity": 112, "channel": 0}, {"type": "note_off", "time": 102, "note": 60, "velocity": 112, "channel": 0}, {"type": "note_on", "time": 70, "note": 62, "velocity": 105, "channel": 0}, {"type": "note_off", "time": 88, "note": 62, "velocity": 105, "channel": 0}, {"type": "note_on", "time": 16, "note": 69, "velocity": 120, "channel": 0}, {"type": "note_off", "time": 97, "note": 69, "velocity": 120, "channel": 0}, {"type": "note_on", "time": 2, "note": 68, "velocity": 121, "channel": 0}, {"type": "note_off", "time": 86, "note": 68, "velocity": 121, "channel": 0}, {"type": "note_on", "time": 8, "note": 67, "velocity": 112, "channel": 0}, {"type": "note_off", "time": 88, "note": 67, "velocity": 112, "channel": 0}, {"type": "note_on", "time": 18, "note": 66, "velocity": 111, "channel": 0}, {"type": "note_off", "time": 73, "note": 66, "velocity": 111, "channel": 0}, {"type": "note_on", "time": 24, "note": 65, "velocity": 117, "channel": 0}, {"type": "note_off", "time": 72, "note": 65, "velocity": 117, "channel": 0}, {"type": "note_on", "time": 20, "note": 64, "velocity": 115, "channel": 0}, {"type": "note_off", "time": 44, "note": 64, "velocity": 115, "channel": 0}, {"type": "note_on", "time": 16, "note": 63, "velocity": 118, "channel": 0}, {"type": "note_off", "time": 127, "note": 63, "velocity": 118, "channel": 0}, {"type": "note_on", "time": 5, "note": 61, "velocity": 114, "channel": 0}, {"type": "note_off", "time": 66, "note": 61, "velocity": 114, "channel": 0}, {"type": "note_on", "time": 19, "note": 60, "velocity": 109, "channel": 0}, {"type": "note_off", "time": 49, "note": 60, "velocity": 109, "channel": 0}, {"type": "note_on", "time": 30, "note": 58, "velocity": 109, "channel": 0}, {"type": "note_off", "time": 72, "note": 58, "velocity": 109, "channel": 0}, {"type": "end_of_track", "time": 0}]]}