{"ticks_per_beat": 192, "tracks": [[{"type": "track_name", "name": "Melody", "time": 0}, {"type": "set_tempo", "tempo": 272727, "time": 0}, {"type": "key_signature", "key": "Db", "time": 0}, {"type": "time_signature", "numerator": 4, "denominator": 4, "clocks_per_click": 24, "notated_32nd_notes_per_beat": 8, "time": 0}, {"type": "note_on", "time": 4624, "note": 65, "velocity": 108, "channel": 0}, {"type": "note_off", "time": 95, "note": 65, "velocity": 108, "channel": 0}, {"type": "note_on", "time": 788, "note": 60, "velocity": 109, "channel": 0}, {"type": "note_off", "time": 51, "note": 60, "velocity": 109, "channel": 0}, {"type": "note_on", "time": 10, "note": 63, "velocity": 114, "channel": 0}, {"type": "note_off", "time": 125, "note": 63, "velocity": 114, "channel": 0}, {"type": "note_on", "time": 11, "note": 60, "velocity": 101, "channel": 0}, {"type": "note_off", "time": 51, "note": 60, "velocity": 101, "channel": 0}, {"type": "note_on", "time": 14, "note": 62, "velocity": 112, "channel": 0}, {"type": "note_off", "time": 104, "note": 62, "velocity": 112, "channel": 0}, {"type": "note_on", "time": 14, "note": 58, "velocity": 108, "channel": 0}, {"type": "note_off", "time": 114, "note": 58, "velocity": 108, "channel": 0}, {"type": "note_on", "time": 103, "note": 61, "velocity": 117, "channel": 0}, {"type": "note_off", "time": 95, "note": 61, "velocity": 117, "channel": 0}, {"type": "note_on", "time": 129, "note": 58, "velocity": 117, "channel": 0}, {"type": "note_off", "time": 129, "note": 58, "velocity": 117, "channel": 0}, {"type": "note_on", "time": 63, "note": 59, "velocity": 123, "channel": 0}, {"type": "note_off", "time": 145, "note": 59, "velocity": 123, "channel": 0}, {"type": "note_on", "time": 9, "note": 60, "velocity": 118, "channel": 0}, {"type": "note_off", "time": 86, "note": 60, "velocity": 118, "channel": 0}, {"type": "note_on", "time": 680, "note": 72, "velocity": 125, "channel": 0}, {"type": "note_off", "time": 65, "note": 72, "velocity": 125, "channel": 0}, {"type": "note_on", "time": 12, "note": 70, "velocity": 122, "channel": 0}, {"type": "note_off", "time": 104, "note": 70, "velocity": 122, "channel": 0}, {"type": "note_on", "time": 11, "note": 68, "velocity": 125, "channel": 0}, {"type": "note_off", "time": 77, "note": 68, "velocity": 125, "channel": 0}, {"type": "note_on", "time": 11, "note": 65, "velocity": 117, "channel": 0}, {"type": "note_off", "time": 143, "note": 65, "velocity": 117, "channel": 0}, {"type": "note_on", "time": 25, "note": 63, "velocity": 124, "channel": 0}, {"type": "note_off", "time": 109, "note": 63, "velocity": 124, "channel": 0}, {"type": "note_on", "time": 29, "note": 61, "velocity": 116, "channel": 0}, {"type": "note_off", "time": 265, "note": 61, "velocity": 116, "channel": 0}, {"type": "note_on", "time": 14, "note": 60, "velocity": 116, "channel": 0}, {"type": "note_off", "time": 73, "note": 60, "velocity": 116, "channel": 0}, {"type": "note_on", "time": 20, "note": 58, "velocity": 121, "channel": 0}, {"type": "note_off", "time": 77, "note": 58, "velocity": 121, "channel": 0}, {"type": "note_on", "time": 21, "note": 57, "velocity": 123, "channel": 0}, {"type": "note_off", "time": 78, "note": 57, "velocity": 123, "channel": 0}, {"type": "note_on", "time": 6, "note": 56, "velocity": 121, "channel": 0}, {"type": "note_off", "time": 59, "note": 56, "velocity": 121, "channel": 0}, {"type": "note_on", "time": 18, "note": 54, "velocity": 112, "channel": 0}, {"type": "note_off", "time": 59, "note": 54, "velocity": 112, "channel": 0}, {"type": "note_on", "time": 14, "note": 53, "velocity": 107, "channel": 0}, {"type": "note_off", "time": 70, "note": 53, "velocity": 107, "channel": 0}, {"type": "note_on", "time": 12, "note": 51, "velocity": 103, "channel": 0}, {"type": "note_off", "time": 21, "note": 51, "velocity": 103, "channel": 0}, {"type": "note_on", "time": 21, "note": 49, "velocity": 108, "channel": 0}, {"type": "note_off", "time": 104, "note": 49, "velocity": 108, "channel": 0}, {"type": "note_on", "time": 27, "note": 51, "velocity": 104, "channel": 0}, {"type": "note_off", "time": 52, "note": 51, "velocity": 104, "channel": 0}, {"type": "note_on", "time": 208, "note": 58, "velocity": 122, "channel": 0}, {"type": "note_off", "time": 106, "note": 58, "velocity": 122, "channel": 0}, {"type": "note_on", "time": 171, "note": 58, "velocity": 122, "channel": 0}, {"type": "note_off", "time": 100, "note": 58, "velocity": 122, "channel": 0}, {"type": "note_on", "time": 19, "note": 59, "velocity": 120, "channel": 0}, {"type": "note_off", "time": 83, "note": 59, "velocity": 120, "channel": 0}, {"type": "note_on", "time": 13, "note": 61, "velocity": 109, "channel": 0}, {"type": "note_off", "time": 52, "note": 61, "velocity": 109, "channel": 0}, {"type": "note_on", "time": 17, "note": 64, "velocity": 98, "channel": 0}, {"type": "note_off", "time": 51, "note": 64, "velocity": 98, "channel": 0}, {"type": "note_on", "time": 56, "note": 68, "velocity": 104, "channel": 0}, {"type": "note_off", "time": 43, "note": 68, "velocity": 104, "channel": 0}, {"type": "note_on", "time": 25, "note": 70, "velocity": 119, "channel": 0}, {"type": "note_off", "time": 87, "note": 70, "velocity": 119, "channel": 0}, {"type": "note_on", "time": 15, "note": 68, "velocity": 115, "channel": 0}, {"type": "note_off", "time": 42, "note": 68, "velocity": 115, "channel": 0}, {"type": "note_on", "time": 14, "note": 64, "velocity": 113, "channel": 0}, {"type": "note_off", "time": 36, "note": 64, "velocity": 113, "channel": 0}, {"type": "note_on", "time": 12, "note": 61, "velocity": 115, "channel": 0}, {"type": "note_off", "time": 85, "note": 61, "velocity": 115, "channel": 0}, {"type": "note_on", "time": 9, "note": 59, "velocity": 123, "channel": 0}, {"type": "note_off", "time": 76, "note": 59, "velocity": 123, "channel": 0}, {"type": "note_on", "time": 14, "note": 58, "velocity": 120, "channel": 0}, {"type": "note_off", "time": 96, "note": 58, "velocity": 120, "channel": 0}, {"type": "note_on", "time": 20, "note": 56, "velocity": 120, "channel": 0}, {"type": "note_off", "time": 61, "note": 56, "velocity": 120, "channel": 0}, {"type": "note_on", "time": 18, "note": 53, "velocity": 115, "channel": 0}, {"type": "note_off", "time": 74, "note": 53, "velocity": 115, "channel": 0}, {"type": "note_on", "time": 23, "note": 56, "velocity": 114, "channel": 0}, {"type": "note_off", "time": 59, "note": 56, "velocity": 114, "channel": 0}, {"type": "note_on", "time": 38, "note": 53, "velocity": 96, "channel": 0}, {"type": "note_off", "time": 228, "note": 53, "velocity": 96, "channel": 0}, {"type": "note_on", "time": 85, "note": 55, "velocity": 122, "channel": 0}, {"type": "note_off", "time": 82, "note": 55, "velocity": 122, "channel": 0}, {"type": "note_on", "time": 5, "note": 56, "velocity": 122, "channel": 0}, {"type": "note_off", "time": 104, "note": 56, "velocity": 122, "channel": 0}, {"type": "note_on", "time": 281, "note": 58, "velocity": 123, "channel": 0}, {"type": "note_off", "time": 90, "note": 58, "velocity": 123, "channel": 0}, {"type": "note_on", "time": 15, "note": 59, "velocity": 123, "channel": 0}, {"type": "note_off", "time": 66, "note": 59, "velocity": 123, "channel": 0}, {"type": "note_on", "time": 15, "note": 63, "velocity": 107, "channel": 0}, {"type": "note_off", "time": 64, "note": 63, "velocity": 107, "channel": 0}, {"type": "note_on", "time": 53, "note": 66, "velocity": 91, "channel": 0}, {"type": "note_off", "time": 22, "note": 66, "velocity": 91, "channel": 0}, {"type": "note_on", "time": 56, "note": 73, "velocity": 120, "channel": 0}, {"type": "note_off", "time": 93, "note": 73, "velocity": 120, "channel": 0}, {"type": "note_on", "time": 12, "note": 71, "velocity": 120, "channel": 0}, {"type": "note_off", "time": 74, "note": 71, "velocity": 120, "channel": 0}, {"type": "note_on", "time": 22, "note": 66, "velocity": 97, "channel": 0}, {"type": "note_off", "time": 81, "note": 66, "velocity": 97, "channel": 0}, {"type": "note_on", "time": 119, "note": 67, "velocity": 122, "channel": 0}, {"type": "note_off", "time": 28, "note": 67, "velocity": 122, "channel": 0}, {"type": "note_on", "time": 7, "note": 68, "velocity": 113, "channel": 0}, {"type": "note_off", "time": 601, "note": 68, "velocity": 113, "channel": 0}, {"type": "note_on", "time": 12, "note": 68, "velocity": 118, "channel": 0}, {"type": "note_off", "time": 17, "note": 68, "velocity": 118, "channel": 0}, {"type": "note_on", "time": 10, "note": 66, "velocity": 118, "channel": 0}, {"type": "note_off", "time": 58, "note": 66, "velocity": 118, "channel": 0}, {"type": "note_on", "time": 16, "note": 61, "velocity": 106, "channel": 0}, {"type": "note_off", "time": 114, "note": 61, "velocity": 106, "channel": 0}, {"type": "note_on", "time": 12, "note": 60, "velocity": 117, "channel": 0}, {"type": "note_off", "time": 59, "note": 60, "velocity": 117, "channel": 0}, {"type": "note_on", "time": 18, "note": 57, "velocity": 126, "channel": 0}, {"type": "note_off", "time": 117, "note": 57, "velocity": 126, "channel": 0}, {"type": "note_on", "time": 12, "note": 55, "velocity": 106, "channel": 0}, {"type": "note_off", "time": 43, "note": 55, "velocity": 106, "channel": 0}, {"type": "note_on", "time": 22, "note": 63, "velocity": 120, "channel": 0}, {"type": "note_off", "time": 101, "note": 63, "velocity": 120, "channel": 0}, {"type": "note_on", "time": 10, "note": 61, "velocity": 115, "channel": 0}, {"type": "note_off", "time": 79, "note": 61, "velocity": 115, "channel": 0}, {"type": "note_on", "time": 2, "note": 60, "velocity": 120, "channel": 0}, {"type": "note_off", "time": 102, "note": 60, "velocity": 120, "channel": 0}, {"type": "note_on", "time": 11, "note": 58, "velocity": 124, "channel": 0}, {"type": "note_off", "time": 76, "note": 58, "velocity": 124, "channel": 0}, {"type": "note_on", "time": 17, "note": 56, "velocity": 121, "channel": 0}, {"type": "note_off", "time": 84, "note": 56, "velocity": 121, "channel": 0}, {"type": "note_on", "time": 20, "note": 54, "velocity": 111, "channel": 0}, {"type": "note_off", "time": 58, "note": 54, "velocity": 111, "channel": 0}, {"type": "note_on", "time": 12, "note": 53, "velocity": 112, "channel": 0}, {"type": "note_off", "time": 140, "note": 53, "velocity": 112, "channel": 0}, {"type": "note_on", "time": 5, "note": 51, "velocity": 114, "channel": 0}, {"type": "note_off", "time": 20, "note": 51, "velocity": 114, "channel": 0}, {"type": "note_on", "time": 5, "note": 50, "velocity": 110, "channel": 0}, {"type": "note_off", "time": 18, "note": 50, "velocity": 110, "channel": 0}, {"type": "note_on", "time": 36, "note": 61, "velocity": 116, "channel": 0}, {"type": "note_off", "time": 126, "note": 61, "velocity": 116, "channel": 0}, {"type": "note_on", "time": 1104, "note": 70, "velocity": 119, "channel": 0}, {"type": "note_off", "time": 44, "note": 70, "velocity": 119, "channel": 0}, {"type": "note_on", "time": 15, "note": 71, "velocity": 120, "channel": 0}, {"type": "note_off", "time": 102, "note": 71, "velocity": 120, "channel": 0}, {"type": "note_on", "time": 130, "note": 70, "velocity": 122, "channel": 0}, {"type": "note_off", "time": 92, "note": 70, "velocity": 122, "channel": 0}, {"type": "note_on", "time": 10, "note": 68, "velocity": 120, "channel": 0}, {"type": "note_off", "time": 67, "note": 68, "velocity": 120, "channel": 0}, {"type": "note_on", "time": 17, "note": 63, "velocity": 120, "channel": 0}, {"type": "note_off", "time": 92, "note": 63, "velocity": 120, "channel": 0}, {"type": "note_on", "time": 10, "note": 66, "velocity": 117, "channel": 0}, {"type": "note_off", "time": 93, "note": 66, "velocity": 117, "channel": 0}, {"type": "note_on", "time": 9, "note": 65, "velocity": 117, "channel": 0}, {"type": "note_off", "time": 81, "note": 65, "velocity": 117, "channel": 0}, {"type": "note_on", "time": 5, "note": 64, "velocity": 119, "channel": 0}, {"type": "note_off", "time": 93, "note": 64, "velocity": 119, "channel": 0}, {"type": "note_on", "time": 5, "note": 63, "velocity": 119, "channel": 0}, {"type": "note_off", "time": 108, "note": 63, "velocity": 119, "channel": 0}, {"type": "note_on", "time": 10, "note": 62, "velocity": 120, "channel": 0}, {"type": "note_off", "time": 56, "note": 62, "velocity": 120, "channel": 0}, {"type": "note_on", "time": 12, "note": 61, "velocity": 121, "channel": 0}, {"type": "note_off", "time": 114, "note": 61, "velocity": 121, "channel": 0}, {"type": "note_on", "time": 15, "note": 59, "velocity": 115, "channel": 0}, {"type": "note_off", "time": 64, "note": 59, "velocity": 115, "channel": 0}, {"type": "note_on", "time": 22, "note": 56, "velocity": 122, "channel": 0}, {"type": "note_off", "time": 79, "note": 56, "velocity": 122, "channel": 0}, {"type": "note_on", "time": 16, "note": 54, "velocity": 111, "channel": 0}, {"type": "note_off", "time": 74, "note": 54, "velocity": 111, "channel": 0}, {"type": "note_on", "time": 10, "note": 56, "velocity": 125, "channel": 0}, {"type": "note_off", "time": 15, "note": 56, "velocity": 125, "channel": 0}, {"type": "note_on", "time": 5, "note": 57, "velocity": 120, "channel": 0}, {"type": "note_off", "time": 89, "note": 57, "velocity": 120, "channel": 0}, {"type": "note_on", "time": 8, "note": 58, "velocity": 118, "channel": 0}, {"type": "note_off", "time": 158, "note": 58, "velocity": 118, "channel": 0}, {"type": "note_on", "time": 22, "note": 60, "velocity": 121, "channel": 0}, {"type": "note_off", "time": 237, "note": 60, "velocity": 121, "channel": 0}, {"type": "note_on", "time": 12, "note": 61, "velocity": 120, "channel": 0}, {"type": "note_off", "time": 163, "note": 61, "velocity": 120, "channel": 0}, {"type": "note_on", "time": 7, "note": 64, "velocity": 116, "channel": 0}, {"type": "note_off", "time": 155, "note": 64, "velocity": 116, "channel": 0}, {"type": "note_on", "time": 11, "note": 67, "velocity": 118, "channel": 0}, {"type": "note_off", "time": 172, "note": 67, "velocity": 118, "channel": 0}, {"type": "note_on", "time": 5, "note": 72, "velocity": 116, "channel": 0}, {"type": "note_off", "time": 93, "note": 72, "velocity": 116, "channel": 0}, {"type": "note_on", "time": 118, "note": 76, "velocity": 114, "channel": 0}, {"type": "note_off", "time": 137, "note": 76, "velocity": 114, "channel": 0}, {"type": "note_on", "time": 37, "note": 83, "velocity": 104, "channel": 0}, {"type": "note_off", "time": 25, "note": 83, "velocity": 104, "channel": 0}, {"type": "note_on", "time": 83, "note": 70, "velocity": 98, "channel": 0}, {"type": "note_off", "time": 156, "note": 70, "velocity": 98, "channel": 0}, {"type": "note_on", "time": 169, "note": 79, "velocity": 115, "channel": 0}, {"type": "note_off", "time": 154, "note": 79, "velocity": 115, "channel": 0}, {"type": "note_on", "time": 248, "note": 70, "velocity": 119, "channel": 0}, {"type": "note_off", "time": 41, "note": 70, "velocity": 119, "channel": 0}, {"type": "note_on", "time": 5, "note": 71, "velocity": 117, "channel": 0}, {"type": "note_off", "time": 15, "note": 71, "velocity": 117, "channel": 0}, {"type": "note_on", "time": 6, "note": 72, "velocity": 116, "channel": 0}, {"type": "note_off", "time": 191, "note": 72, "velocity": 116, "channel": 0}, {"type": "note_on", "time": 5, "note": 71, "velocity": 114, "channel": 0}, {"type": "note_off", "time": 13, "note": 71, "velocity": 114, "channel": 0}, {"type": "note_on", "time": 9, "note": 69, "velocity": 113, "channel": 0}, {"type": "note_off", "time": 43, "note": 69, "velocity": 113, "channel": 0}, {"type": "note_on", "time": 6, "note": 66, "velocity": 113, "channel": 0}, {"type": "note_off", "time": 39, "note": 66, "velocity": 113, "channel": 0}, {"type": "note_on", "time": 10, "note": 64, "velocity": 118, "channel": 0}, {"type": "note_off", "time": 127, "note": 64, "velocity": 118, "channel": 0}, {"type": "note_on", "time": 7, "note": 65, "velocity": 107, "channel": 0}, {"type": "note_off", "time": 57, "note": 65, "velocity": 107, "channel": 0}, {"type": "note_on", "time": 179, "note": 66, "velocity": 110, "channel": 0}, {"type": "note_off", "time": 124, "note": 66, "velocity": 110, "channel": 0}, {"type": "note_on", "time": 201, "note": 73, "velocity": 121, "channel": 0}, {"type": "note_off", "time": 35, "note": 73, "velocity": 121, "channel": 0}, {"type": "note_on", "time": 8, "note": 71, "velocity": 117, "channel": 0}, {"type": "note_off", "time": 44, "note": 71, "velocity": 117, "channel": 0}, {"type": "note_on", "time": 9, "note": 72, "velocity": 111, "channel": 0}, {"type": "note_off", "time": 54, "note": 72, "velocity": 111, "channel": 0}, {"type": "note_on", "time": 18, "note": 69, "velocity": 111, "channel": 0}, {"type": "note_off", "time": 137, "note": 69, "velocity": 111, "channel": 0}, {"type": "note_on", "time": 7, "note": 68, "velocity": 107, "channel": 0}, {"type": "note_off", "time": 45, "note": 68, "velocity": 107, "channel": 0}, {"type": "note_on", "time": 20, "note": 66, "velocity": 108, "channel": 0}, {"type": "note_off", "time": 52, "note": 66, "velocity": 108, "channel": 0}, {"type": "note_on", "time": 10, "note": 64, "velocity": 115, "channel": 0}, {"type": "note_off", "time": 98, "note": 64, "velocity": 115, "channel": 0}, {"type": "note_on", "time": 7, "note": 63, "velocity": 118, "channel": 0}, {"type": "note_off", "time": 65, "note": 63, "velocity": 118, "channel": 0}, {"type": "note_on", "time": 7, "note": 62, "velocity": 108, "channel": 0}, {"type": "note_off", "time": 26, "note": 62, "velocity": 108, "channel": 0}, {"type": "note_on", "time": 7, "note": 63, "velocity": 104, "channel": 0}, {"type": "note_off", "time": 51, "note": 63, "velocity": 104, "channel": 0}, {"type": "note_on", "time": 9, "note": 62, "velocity": 108, "channel": 0}, {"type": "note_off", "time": 35, "note": 62, "velocity": 108, "channel": 0}, {"type": "note_on", "time": 14, "note": 61, "velocity": 111, "channel": 0}, {"type": "note_off", "time": 57, "note": 61, "velocity": 111, "channel": 0}, {"type": "note_on", "time": 13, "note": 59, "velocity": 113, "channel": 0}, {"type": "note_off", "time": 135, "note": 59, "velocity": 113, "channel": 0}, {"type": "note_on", "time": 172, "note": 57, "velocity": 119, "channel": 0}, {"type": "note_off", "time": 71, "note": 57, "velocity": 119, "channel": 0}, {"type": "note_on", "time": 7, "note": 56, "velocity": 114, "channel": 0}, {"type": "note_off", "time": 163, "note": 56, "velocity": 114, "channel": 0}, {"type": "note_on", "time": 19, "note": 57, "velocity": 123, "channel": 0}, {"type": "note_off", "time": 122, "note": 57, "velocity": 123, "channel": 0}, {"type": "note_on", "time": 12, "note": 52, "velocity": 104, "channel": 0}, {"type": "note_off", "time": 236, "note": 52, "velocity": 104, "channel": 0}, {"type": "note_on", "time": 735, "note": 68, "velocity": 123, "channel": 0}, {"type": "note_off", "time": 41, "note": 68, "velocity": 123, "channel": 0}, {"type": "note_on", "time": 7, "note": 67, "velocity": 116, "channel": 0}, {"type": "note_off", "time": 35, "note": 67, "velocity": 116, "channel": 0}, {"type": "note_on", "time": 8, "note": 68, "velocity": 109, "channel": 0}, {"type": "note_off", "time": 68, "note": 68, "velocity": 109, "channel": 0}, {"type": "note_on", "time": 10, "note": 67, "velocity": 113, "channel": 0}, {"type": "note_off", "time": 35, "note": 67, "velocity": 113, "channel": 0}, {"type": "note_on", "time": 13, "note": 65, "velocity": 109, "channel": 0}, {"type": "note_off", "time": 65, "note": 65, "velocity": 109, "channel": 0}, {"type": "note_on", "time": 6, "note": 70, "velocity": 121, "channel": 0}, {"type": "note_off", "time": 104, "note": 70, "velocity": 121, "channel": 0}, {"type": "note_on", "time": 170, "note": 67, "velocity": 123, "channel": 0}, {"type": "note_off", "time": 93, "note": 67, "velocity": 123, "channel": 0}, {"type": "note_on", "time": 7, "note": 68, "velocity": 118, "channel": 0}, {"type": "note_off", "time": 84, "note": 68, "velocity": 118, "channel": 0}, {"type": "note_on", "time": 24, "note": 60, "velocity": 101, "channel": 0}, {"type": "note_off", "time": 75, "note": 60, "velocity": 101, "channel": 0}, {"type": "note_on", "time": 216, "note": 67, "velocity": 123, "channel": 0}, {"type": "note_off", "time": 93, "note": 67, "velocity": 123, "channel": 0}, {"type": "note_on", "time": 16, "note": 65, "velocity": 113, "channel": 0}, {"type": "note_off", "time": 46, "note": 65, "velocity": 113, "channel": 0}, {"type": "note_on", "time": 20, "note": 60, "velocity": 119, "channel": 0}, {"type": "note_off", "time": 87, "note": 60, "velocity": 119, "channel": 0}, {"type": "note_on", "time": 8, "note": 63, "velocity": 118, "channel": 0}, {"type": "note_off", "time": 89, "note": 63, "velocity": 118, "channel": 0}, {"type": "note_on", "time": 11, "note": 62, "velocity": 116, "channel": 0}, {"type": "note_off", "time": 85, "note": 62, "velocity": 116, "channel": 0}, {"type": "note_on", "time": 25, "note": 58, "velocity": 112, "channel": 0}, {"type": "note_off", "time": 71, "note": 58, "velocity": 112, "channel": 0}, {"type": "note_on", "time": 15, "note": 54, "velocity": 108, "channel": 0}, {"type": "note_off", "time": 76, "note": 54, "velocity": 108, "channel": 0}, {"type": "note_on", "time": 92, "note": 56, "velocity": 119, "channel": 0}, {"type": "note_off", "time": 129, "note": 56, "velocity": 119, "channel": 0}, {"type": "note_on", "time": 20, "note": 58, "velocity": 119, "channel": 0}, {"type": "note_off", "time": 160, "note": 58, "velocity": 119, "channel": 0}, {"type": "note_on", "time": 7, "note": 59, "velocity": 118, "channel": 0}, {"type": "note_off", "time": 178, "note": 59, "velocity": 118, "channel": 0}, {"type": "note_on", "time": 9, "note": 56, "velocity": 123, "channel": 0}, {"type": "note_off", "time": 75, "note": 56, "velocity": 123, "channel": 0}, {"type": "note_on", "time": 279, "note": 55, "velocity": 113, "channel": 0}, {"type": "note_off", "time": 33, "note": 55, "velocity": 113, "channel": 0}, {"type": "note_on", "time": 8, "note": 56, "velocity": 121, "channel": 0}, {"type": "note_off", "time": 31, "note": 56, "velocity": 121, "channel": 0}, {"type": "note_on", "time": 17, "note": 58, "velocity": 117, "channel": 0}, {"type": "note_off", "time": 45, "note": 58, "velocity": 117, "channel": 0}, {"type": "note_on", "time": 7, "note": 60, "velocity": 99, "channel": 0}, {"type": "note_off", "time": 13, "note": 60, "velocity": 99, "channel": 0}, {"type": "note_on", "time": 7, "note": 62, "velocity": 108, "channel": 0}, {"type": "note_off", "time": 22, "note": 62, "velocity": 108, "channel": 0}, {"type": "note_on", "time": 7, "note": 64, "velocity": 112, "channel": 0}, {"type": "note_off", "time": 50, "note": 64, "velocity": 112, "channel": 0}, {"type": "note_on", "time": 3, "note": 65, "velocity": 101, "channel": 0}, {"type": "note_off", "time": 16, "note": 65, "velocity": 101, "channel": 0}, {"type": "note_on", "time": 1, "note": 67, "velocity": 102, "channel": 0}, {"type": "note_off", "time": 28, "note": 67, "velocity": 102, "channel": 0}, {"type": "note_on", "time": 5, "note": 71, "velocity": 118, "channel": 0}, {"type": "note_off", "time": 95, "note": 71, "velocity": 118, "channel": 0}, {"type": "note_on", "time": 28, "note": 67, "velocity": 111, "channel": 0}, {"type": "note_off", "time": 52, "note": 67, "velocity": 111, "channel": 0}, {"type": "note_on", "time": 6, "note": 64, "velocity": 116, "channel": 0}, {"type": "note_off", "time": 117, "note": 64, "velocity": 116, "channel": 0}, {"type": "note_on", "time": 12, "note": 60, "velocity": 115, "channel": 0}, {"type": "note_off", "time": 72, "note": 60, "velocity": 115, "channel": 0}, {"type": "note_on", "time": 20, "note": 63, "velocity": 114, "channel": 0}, {"type": "note_off", "time": 238, "note": 63, "velocity": 114, "channel": 0}, {"type": "note_on", "time": 34, "note": 63, "velocity": 116, "channel": 0}, {"type": "note_off", "time": 353, "note": 63, "velocity": 116, "channel": 0}, {"type": "note_on", "time": 25, "note": 63, "velocity": 115, "channel": 0}, {"type": "note_off", "time": 337, "note": 63, "velocity": 115, "channel": 0}, {"type": "note_on", "time": 26, "note": 61, "velocity": 107, "channel": 0}, {"type": "note_off", "time": 66, "note": 61, "velocity": 107, "channel": 0}, {"type": "note_on", "time": 18, "note": 63, "velocity": 119, "channel": 0}, {"type": "note_off", "time": 89, "note": 63, "velocity": 119, "channel": 0}, {"type": "note_on", "time": 15, "note": 61, "velocity": 115, "channel": 0}, {"type": "note_off", "time": 64, "note": 61, "velocity": 115, "channel": 0}, {"type": "note_on", "time": 8, "note": 60, "velocity": 119, "channel": 0}, {"type": "note_off", "time": 94, "note": 60, "velocity": 119, "channel": 0}, {"type": "note_on", "time": 41, "note": 58, "velocity": 118, "channel": 0}, {"type": "note_off", "time": 76, "note": 58, "velocity": 118, "channel": 0}, {"type": "note_on", "time": 25, "note": 56, "velocity": 119, "channel": 0}, {"type": "note_off", "time": 40, "note": 56, "velocity": 119, "channel": 0}, {"type": "note_on", "time": 30, "note": 54, "velocity": 114, "channel": 0}, {"type": "note_off", "time": 90, "note": 54, "velocity": 114, "channel": 0}, {"type": "note_on", "time": 19, "note": 53, "velocity": 109, "channel": 0}, {"type": "note_off", "time": 57, "note": 53, "velocity": 109, "channel": 0}, {"type": "note_on", "time": 22, "note": 51, "velocity": 104, "channel": 0}, {"type": "note_off", "time": 48, "note": 51, "velocity": 104, "channel": 0}, {"type": "note_on", "time": 16, "note": 49, "velocity": 108, "channel": 0}, {"type": "note_off", "time": 115, "note": 49, "velocity": 108, "channel": 0}, {"type": "note_on", "time": 24, "note": 51, "velocity": 104, "channel": 0}, {"type": "note_off", "time": 65, "note": 51, "velocity": 104, "channel": 0}, {"type": "note_on", "time": 22, "note": 53, "velocity": 103, "channel": 0}, {"type": "note_off", "time": 43, "note": 53, "velocity": 103, "channel": 0}, {"type": "note_on", "time": 17, "note": 56, "velocity": 118, "channel": 0}, {"type": "note_off", "time": 70, "note": 56, "velocity": 118, "channel": 0}, {"type": "note_on", "time": 22, "note": 61, "velocity": 117, "channel": 0}, {"type": "note_off", "time": 83, "note": 61, "velocity": 117, "channel": 0}, {"type": "note_on", "time": 15, "note": 63, "velocity": 113, "channel": 0}, {"type": "note_off", "time": 153, "note": 63, "velocity": 113, "channel": 0}, {"type": "note_on", "time": 45, "note": 68, "velocity": 112, "channel": 0}, {"type": "note_off", "time": 35, "note": 68, "velocity": 112, "channel": 0}, {"type": "note_on", "time": 28, "note": 72, "velocity": 115, "channel": 0}, {"type": "note_off", "time": 435, "note": 72, "velocity": 115, "channel": 0}, {"type": "note_on", "time": 14, "note": 73, "velocity": 120, "channel": 0}, {"type": "note_off", "time": 327, "note": 73, "velocity": 120, "channel": 0}, {"type": "note_on", "time": 15, "note": 70, "velocity": 111, "channel": 0}, {"type": "note_off", "time": 123, "note": 70, "velocity": 111, "channel": 0}, {"type": "note_on", "time": 42, "note": 63, "velocity": 110, "channel": 0}, {"type": "note_off", "time": 103, "note": 63, "velocity": 110, "channel": 0}, {"type": "note_on", "time": 955, "note": 68, "velocity": 120, "channel": 0}, {"type": "note_off", "time": 84, "note": 68, "velocity": 120, "channel": 0}, {"type": "note_on", "time": 13, "note": 66, "velocity": 113, "channel": 0}, {"type": "note_off", "time": 71, "note": 66, "velocity": 113, "channel": 0}, {"type": "note_on", "time": 11, "note": 65, "velocity": 86, "channel": 0}, {"type": "note_off", "time": 64, "note": 65, "velocity": 86, "channel": 0}, {"type": "note_on", "time": 35, "note": 68, "velocity": 120, "channel": 0}, {"type": "note_off", "time": 312, "note": 68, "velocity": 120, "channel": 0}, {"type": "note_on", "time": 16, "note": 66, "velocity": 99, "channel": 0}, {"type": "note_off", "time": 57, "note": 66, "velocity": 99, "channel": 0}, {"type": "note_on", "time": 19, "note": 68, "velocity": 121, "channel": 0}, {"type": "note_off", "time": 115, "note": 68, "velocity": 121, "channel": 0}, {"type": "note_on", "time": 17, "note": 66, "velocity": 110, "channel": 0}, {"type": "note_off", "time": 49, "note": 66, "velocity": 110, "channel": 0}, {"type": "note_on", "time": 10, "note": 68, "velocity": 123, "channel": 0}, {"type": "note_off", "time": 100, "note": 68, "velocity": 123, "channel": 0}, {"type": "note_on", "time": 18, "note": 66, "velocity": 115, "channel": 0}, {"type": "note_off", "time": 58, "note": 66, "velocity": 115, "channel": 0}, {"type": "note_on", "time": 7, "note": 64, "velocity": 119, "channel": 0}, {"type": "note_off", "time": 158, "note": 64, "velocity": 119, "channel": 0}, {"type": "note_on", "time": 15, "note": 60, "velocity": 120, "channel": 0}, {"type": "note_off", "time": 78, "note": 60, "velocity": 120, "channel": 0}, {"type": "note_on", "time": 6, "note": 61, "velocity": 123, "channel": 0}, {"type": "note_off", "time": 28, "note": 61, "velocity": 123, "channel": 0}, {"type": "note_on", "time": 8, "note": 62, "velocity": 120, "channel": 0}, {"type": "note_off", "time": 35, "note": 62, "velocity": 120, "channel": 0}, {"type": "note_on", "time": 9, "note": 63, "velocity": 118, "channel": 0}, {"type": "note_off", "time": 316, "note": 63, "velocity": 118, "channel": 0}, {"type": "note_on", "time": 11, "note": 61, "velocity": 112, "channel": 0}, {"type": "note_off", "time": 68, "note": 61, "velocity": 112, "channel": 0}, {"type": "note_on", "time": 9, "note": 63, "velocity": 117, "channel": 0}, {"type": "note_off", "time": 117, "note": 63, "velocity": 117, "channel": 0}, {"type": "note_on", "time": 9, "note": 61, "velocity": 118, "channel": 0}, {"type": "note_off", "time": 69, "note": 61, "velocity": 118, "channel": 0}, {"type": "note_on", "time": 422, "note": 62, "velocity": 115, "channel": 0}, {"type": "note_off", "time": 106, "note": 62, "velocity": 115, "channel": 0}, {"type": "note_on", "time": 11, "note": 63, "velocity": 120, "channel": 0}, {"type": "note_off", "time": 72, "note": 63, "velocity": 120, "channel": 0}, {"type": "note_on", "time": 10, "note": 66, "velocity": 119, "channel": 0}, {"type": "note_off", "time": 92, "note": 66, "velocity": 119, "channel": 0}, {"type": "note_on", "time": 20, "note": 65, "velocity": 116, "channel": 0}, {"type": "note_off", "time": 56, "note": 65, "velocity": 116, "channel": 0}, {"type": "note_on", "time": 5, "note": 64, "velocity": 122, "channel": 0}, {"type": "note_off", "time": 99, "note": 64, "velocity": 122, "channel": 0}, {"type": "note_on", "time": 11, "note": 63, "velocity": 119, "channel": 0}, {"type": "note_off", "time": 78, "note": 63, "velocity": 119, "channel": 0}, {"type": "note_on", "time": 13, "note": 61, "velocity": 113, "channel": 0}, {"type": "note_off", "time": 89, "note": 61, "velocity": 113, "channel": 0}, {"type": "note_on", "time": 23, "note": 59, "velocity": 116, "channel": 0}, {"type": "note_off", "time": 46, "note": 59, "velocity": 116, "channel": 0}, {"type": "note_on", "time": 6, "note": 58, "velocity": 115, "channel": 0}, {"type": "note_off", "time": 146, "note": 58, "velocity": 115, "channel": 0}, {"type": "note_on", "time": 10, "note": 54, "velocity": 106, "channel": 0}, {"type": "note_off", "time": 49, "note": 54, "velocity": 106, "channel": 0}, {"type": "note_on", "time": 8, "note": 56, "velocity": 117, "channel": 0}, {"type": "note_off", "time": 92, "note": 56, "velocity": 117, "channel": 0}, {"type": "note_on", "time": 314, "note": 54, "velocity": 115, "channel": 0}, {"type": "note_off", "time": 80, "note": 54, "velocity": 115, "channel": 0}, {"type": "note_on", "time": 18, "note": 56, "velocity": 120, "channel": 0}, {"type": "note_off", "time": 59, "note": 56, "velocity": 120, "channel": 0}, {"type": "note_on", "time": 25, "note": 58, "velocity": 110, "channel": 0}, {"type": "note_off", "time": 109, "note": 58, "velocity": 110, "channel": 0}, {"type": "note_on", "time": 41, "note": 59, "velocity": 107, "channel": 0}, {"type": "note_off", "time": 92, "note": 59, "velocity": 107, "channel": 0}, {"type": "note_on", "time": 32, "note": 61, "velocity": 107, "channel": 0}, {"type": "note_off", "time": 64, "note": 61, "velocity": 107, "channel": 0}, {"type": "note_on", "time": 118, "note": 65, "velocity": 104, "channel": 0}, {"type": "note_off", "time": 49, "note": 65, "velocity": 104, "channel": 0}, {"type": "note_on", "time": 35, "note": 72, "velocity": 119, "channel": 0}, {"type": "note_off", "time": 102, "note": 72, "velocity": 119, "channel": 0}, {"type": "note_on", "time": 15, "note": 68, "velocity": 91, "channel": 0}, {"type": "note_off", "time": 36, "note": 68, "velocity": 91, "channel": 0}, {"type": "note_on", "time": 34, "note": 70, "velocity": 114, "channel": 0}, {"type": "note_off", "time": 85, "note": 70, "velocity": 114, "channel": 0}, {"type": "note_on", "time": 17, "note": 68, "velocity": 109, "channel": 0}, {"type": "note_off", "time": 73, "note": 68, "velocity": 109, "channel": 0}, {"type": "note_on", "time": 11, "note": 64, "velocity": 113, "channel": 0}, {"type": "note_off", "time": 111, "note": 64, "velocity": 113, "channel": 0}, {"type": "note_on", "time": 227, "note": 60, "velocity": 96, "channel": 0}, {"type": "note_off", "time": 35, "note": 60, "velocity": 96, "channel": 0}, {"type": "note_on", "time": 17, "note": 67, "velocity": 114, "channel": 0}, {"type": "note_off", "time": 95, "note": 67, "velocity": 114, "channel": 0}, {"type": "note_on", "time": 210, "note": 66, "velocity": 107, "channel": 0}, {"type": "note_off", "time": 91, "note": 66, "velocity": 107, "channel": 0}, {"type": "note_on", "time": 6, "note": 65, "velocity": 107, "channel": 0}, {"type": "note_off", "time": 73, "note": 65, "velocity": 107, "channel": 0}, {"type": "note_on", "time": 11, "note": 64, "velocity": 117, "channel": 0}, {"type": "note_off", "time": 81, "note": 64, "velocity": 117, "channel": 0}, {"type": "note_on", "time": 8, "note": 63, "velocity": 112, "channel": 0}, {"type": "note_off", "time": 87, "note": 63, "velocity": 112, "channel": 0}, {"type": "note_on", "time": 14, "note": 62, "velocity": 116, "channel": 0}, {"type": "note_off", "time": 63, "note": 62, "velocity": 116, "channel": 0}, {"type": "note_on", "time": 8, "note": 61, "velocity": 112, "channel": 0}, {"type": "note_off", "time": 104, "note": 61, "velocity": 112, "channel": 0}, {"type": "note_on", "time": 18, "note": 58, "velocity": 123, "channel": 0}, {"type": "note_off", "time": 71, "note": 58, "velocity": 123, "channel": 0}, {"type": "note_on", "time": 27, "note": 54, "velocity": 105, "channel": 0}, {"type": "note_off", "time": 57, "note": 54, "velocity": 105, "channel": 0}, {"type": "note_on", "time": 32, "note": 50, "velocity": 86, "channel": 0}, {"type": "note_off", "time": 52, "note": 50, "velocity": 86, "channel": 0}, {"type": "note_on", "time": 24, "note": 53, "velocity": 110, "channel": 0}, {"type": "note_off", "time": 133, "note": 53, "velocity": 110, "channel": 0}, {"type": "note_on", "time": 10, "note": 49, "velocity": 108, "channel": 0}, {"type": "note_off", "time": 25, "note": 49, "velocity": 108, "channel": 0}, {"type": "note_on", "time": 15, "note": 53, "velocity": 111, "channel": 0}, {"type": "note_off", "time": 112, "note": 53, "velocity": 111, "channel": 0}, {"type": "note_on", "time": 9, "note": 51, "velocity": 102, "channel": 0}, {"type": "note_off", "time": 28, "note": 51, "velocity": 102, "channel": 0}, {"type": "note_on", "time": 20, "note": 56, "velocity": 118, "channel": 0}, {"type": "note_off", "time": 230, "note": 56, "velocity": 118, "channel": 0}, {"type": "note_on", "time": 10, "note": 55, "velocity": 121, "channel": 0}, {"type": "note_off", "time": 26, "note": 55, "velocity": 121, "channel": 0}, {"type": "note_on", "time": 13, "note": 56, "velocity": 124, "channel": 0}, {"type": "note_off", "time": 29, "note": 56, "velocity": 124, "channel": 0}, {"type": "note_on", "time": 14, "note": 54, "velocity": 118, "channel": 0}, {"type": "note_off", "time": 77, "note": 54, "velocity": 118, "channel": 0}, {"type": "note_on", "time": 14, "note": 50, "velocity": 116, "channel": 0}, {"type": "note_off", "time": 45, "note": 50, "velocity": 116, "channel": 0}, {"type": "note_on", "time": 6, "note": 52, "velocity": 120, "channel": 0}, {"type": "note_off", "time": 68, "note": 52, "velocity": 120, "channel": 0}, {"type": "note_on", "time": 30, "note": 48, "velocity": 117, "channel": 0}, {"type": "note_off", "time": 112, "note": 48, "velocity": 117, "channel": 0}, {"type": "note_on", "time": 15, "note": 44, "velocity": 118, "channel": 0}, {"type": "note_off", "time": 204, "note": 44, "velocity": 118, "channel": 0}, {"type": "note_on", "time": 278, "note": 56, "velocity": 118, "channel": 0}, {"type": "note_off", "time": 140, "note": 56, "velocity": 118, "channel": 0}, {"type": "note_on", "time": 183, "note": 54, "velocity": 111, "channel": 0}, {"type": "note_off", "time": 35, "note": 54, "velocity": 111, "channel": 0}, {"type": "note_on", "time": 4, "note": 53, "velocity": 107, "channel": 0}, {"type": "note_off", "time": 111, "note": 53, "velocity": 107, "channel": 0}, {"type": "note_on", "time": 22, "note": 54, "velocity": 109, "channel": 0}, {"type": "note_off", "time": 59, "note": 54, "velocity": 109, "channel": 0}, {"type": "note_on", "time": 13, "note": 56, "velocity": 110, "channel": 0}, {"type": "note_off", "time": 59, "note": 56, "velocity": 110, "channel": 0}, {"type": "note_on", "time": 18, "note": 58, "velocity": 115, "channel": 0}, {"type": "note_off", "time": 45, "note": 58, "velocity": 115, "channel": 0}, {"type": "note_on", "time": 66, "note": 63, "velocity": 112, "channel": 0}, {"type": "note_off", "time": 118, "note": 63, "velocity": 112, "channel": 0}, {"type": "note_on", "time": 12, "note": 61, "velocity": 105, "channel": 0}, {"type": "note_off", "time": 142, "note": 61, "velocity": 105, "channel": 0}, {"type": "note_on", "time": 600, "note": 70, "velocity": 119, "channel": 0}, {"type": "note_off", "time": 72, "note": 70, "velocity": 119, "channel": 0}, {"type": "note_on", "time": 12, "note": 71, "velocity": 119, "channel": 0}, {"type": "note_off", "time": 98, "note": 71, "velocity": 119, "channel": 0}, {"type": "note_on", "time": 113, "note": 70, "velocity": 118, "channel": 0}, {"type": "note_off", "time": 80, "note": 70, "velocity": 118, "channel": 0}, {"type": "note_on", "time": 17, "note": 68, "velocity": 119, "channel": 0}, {"type": "note_off", "time": 73, "note": 68, "velocity": 119, "channel": 0}, {"type": "note_on", "time": 21, "note": 63, "velocity": 122, "channel": 0}, {"type": "note_off", "time": 73, "note": 63, "velocity": 122, "channel": 0}, {"type": "note_on", "time": 32, "note": 66, "velocity": 118, "channel": 0}, {"type": "note_off", "time": 82, "note": 66, "velocity": 118, "channel": 0}, {"type": "note_on", "time": 7, "note": 65, "velocity": 115, "channel": 0}, {"type": "note_off", "time": 91, "note": 65, "velocity": 115, "channel": 0}, {"type": "note_on", "time": 12, "note": 64, "velocity": 121, "channel": 0}, {"type": "note_off", "time": 77, "note": 64, "velocity": 121, "channel": 0}, {"type": "note_on", "time": 12, "note": 63, "velocity": 117, "channel": 0}, {"type": "note_off", "time": 87, "note": 63, "velocity": 117, "channel": 0}, {"type": "note_on", "time": 14, "note": 62, "velocity": 119, "channel": 0}, {"type": "note_off", "time": 61, "note": 62, "velocity": 119, "channel": 0}, {"type": "note_on", "time": 7, "note": 61, "velocity": 116, "channel": 0}, {"type": "note_off", "time": 116, "note": 61, "velocity": 116, "channel": 0}, {"type": "note_on", "time": 31, "note": 71, "velocity": 114, "channel": 0}, {"type": "note_off", "time": 51, "note": 71, "velocity": 114, "channel": 0}, {"type": "note_on", "time": 14, "note": 72, "velocity": 10, "channel": 0}, {"type": "note_off", "time": 555, "note": 72, "velocity": 10, "channel": 0}, {"type": "note_on", "time": 34, "note": 71, "velocity": 123, "channel": 0}, {"type": "note_off", "time": 44, "note": 71, "velocity": 123, "channel": 0}, {"type": "note_on", "time": 22, "note": 72, "velocity": 123, "channel": 0}, {"type": "note_off", "time": 265, "note": 72, "velocity": 123, "channel": 0}, {"type": "note_on", "time": 44, "note": 71, "velocity": 123, "channel": 0}, {"type": "note_off", "time": 34, "note": 71, "velocity": 123, "channel": 0}, {"type": "note_on", "time": 12, "note": 72, "velocity": 123, "channel": 0}, {"type": "note_off", "time": 257, "note": 72, "velocity": 123, "channel": 0}, {"type": "note_on", "time": 22, "note": 67, "velocity": 118, "channel": 0}, {"type": "note_off", "time": 425, "note": 67, "velocity": 118, "channel": 0}, {"type": "note_on", "time": 28, "note": 66, "velocity": 127, "channel": 0}, {"type": "note_off", "time": 28, "note": 66, "velocity": 127, "channel": 0}, {"type": "note_on", "time": 20, "note": 67, "velocity": 118, "channel": 0}, {"type": "note_off", "time": 251, "note": 67, "velocity": 118, "channel": 0}, {"type": "note_on", "time": 25, "note": 65, "velocity": 116, "channel": 0}, {"type": "note_off", "time": 56, "note": 65, "velocity": 116, "channel": 0}, {"type": "note_on", "time": 12, "note": 64, "velocity": 119, "channel": 0}, {"type": "note_off", "time": 83, "note": 64, "velocity": 119, "channel": 0}, {"type": "note_on", "time": 11, "note": 62, "velocity": 122, "channel": 0}, {"type": "note_off", "time": 50, "note": 62, "velocity": 122, "channel": 0}, {"type": "note_on", "time": 12, "note": 60, "velocity": 116, "channel": 0}, {"type": "note_off", "time": 99, "note": 60, "velocity": 116, "channel": 0}, {"type": "note_on", "time": 28, "note": 57, "velocity": 120, "channel": 0}, {"type": "note_off", "time": 64, "note": 57, "velocity": 120, "channel": 0}, {"type": "note_on", "time": 27, "note": 55, "velocity": 122, "channel": 0}, {"type": "note_off", "time": 93, "note": 55, "velocity": 122, "channel": 0}, {"type": "note_on", "time": 24, "note": 53, "velocity": 111, "channel": 0}, {"type": "note_off", "time": 43, "note": 53, "velocity": 111, "channel": 0}, {"type": "note_on", "time": 17, "note": 52, "velocity": 107, "channel": 0}, {"type": "note_off", "time": 91, "note": 52, "velocity": 107, "channel": 0}, {"type": "note_on", "time": 116, "note": 54, "velocity": 107, "channel": 0}, {"type": "note_off", "time": 277, "note": 54, "velocity": 107, "channel": 0}, {"type": "note_on", "time": 580, "note": 70, "velocity": 122, "channel": 0}, {"type": "note_off", "time": 81, "note": 70, "velocity": 122, "channel": 0}, {"type": "note_on", "time": 188, "note": 63, "velocity": 115, "channel": 0}, {"type": "note_off", "time": 91, "note": 63, "velocity": 115, "channel": 0}, {"type": "note_on", "time": 18, "note": 65, "velocity": 104, "channel": 0}, {"type": "note_off", "time": 45, "note": 65, "velocity": 104, "channel": 0}, {"type": "note_on", "time": 14, "note": 70, "velocity": 113, "channel": 0}, {"type": "note_off", "time": 112, "note": 70, "velocity": 113, "channel": 0}, {"type": "note_on", "time": 21, "note": 68, "velocity": 109, "channel": 0}, {"type": "note_off", "time": 254, "note": 68, "velocity": 109, "channel": 0}, {"type": "note_on", "time": 37, "note": 63, "velocity": 116, "channel": 0}, {"type": "note_off", "time": 129, "note": 63, "velocity": 116, "channel": 0}, {"type": "note_on", "time": 8, "note": 59, "velocity": 109, "channel": 0}, {"type": "note_off", "time": 41, "note": 59, "velocity": 109, "channel": 0}, {"type": "note_on", "time": 27, "note": 66, "velocity": 111, "channel": 0}, {"type": "note_off", "time": 83, "note": 66, "velocity": 111, "channel": 0}, {"type": "note_on", "time": 8, "note": 64, "velocity": 116, "channel": 0}, {"type": "note_off", "time": 87, "note": 64, "velocity": 116, "channel": 0}, {"type": "note_on", "time": 14, "note": 63, "velocity": 119, "channel": 0}, {"type": "note_off", "time": 90, "note": 63, "velocity": 119, "channel": 0}, {"type": "note_on", "time": 12, "note": 62, "velocity": 105, "channel": 0}, {"type": "note_off", "time": 31, "note": 62, "velocity": 105, "channel": 0}, {"type": "note_on", "time": 51, "note": 61, "velocity": 120, "channel": 0}, {"type": "note_off", "time": 93, "note": 61, "velocity": 120, "channel": 0}, {"type": "note_on", "time": 15, "note": 56, "velocity": 124, "channel": 0}, {"type": "note_off", "time": 53, "note": 56, "velocity": 124, "channel": 0}, {"type": "note_on", "time": 31, "note": 54, "velocity": 97, "channel": 0}, {"type": "note_off", "time": 76, "note": 54, "velocity": 97, "channel": 0}, {"type": "note_on", "time": 94, "note": 52, "velocity": 109, "channel": 0}, {"type": "note_off", "time": 93, "note": 52, "velocity": 109, "channel": 0}, {"type": "note_on", "time": 96, "note": 51, "velocity": 106, "channel": 0}, {"type": "note_off", "time": 96, "note": 51, "velocity": 106, "channel": 0}, {"type": "note_on", "time": 20, "note": 58, "velocity": 123, "channel": 0}, {"type": "note_off", "time": 56, "note": 58, "velocity": 123, "channel": 0}, {"type": "note_on", "time": 10, "note": 59, "velocity": 119, "channel": 0}, {"type": "note_off", "time": 278, "note": 59, "velocity": 119, "channel": 0}, {"type": "note_on", "time": 38, "note": 63, "velocity": 103, "channel": 0}, {"type": "note_off", "time": 44, "note": 63, "velocity": 103, "channel": 0}, {"type": "note_on", "time": 35, "note": 58, "velocity": 120, "channel": 0}, {"type": "note_off", "time": 35, "note": 58, "velocity": 120, "channel": 0}, {"type": "note_on", "time": 12, "note": 59, "velocity": 119, "channel": 0}, {"type": "note_off", "time": 212, "note": 59, "velocity": 119, "channel": 0}, {"type": "note_on", "time": 57, "note": 56, "velocity": 98, "channel": 0}, {"type": "note_off", "time": 40, "note": 56, "velocity": 98, "channel": 0}, {"type": "note_on", "time": 21, "note": 59, "velocity": 120, "channel": 0}, {"type": "note_off", "time": 136, "note": 59, "velocity": 120, "channel": 0}, {"type": "note_on", "time": 34, "note": 51, "velocity": 110, "channel": 0}, {"type": "note_off", "time": 93, "note": 51, "velocity": 110, "channel": 0}, {"type": "note_on", "time": 15, "note": 50, "velocity": 114, "channel": 0}, {"type": "note_off", "time": 158, "note": 50, "velocity": 114, "channel": 0}, {"type": "note_on", "time": 119, "note": 50, "velocity": 106, "channel": 0}, {"type": "note_off", "time": 84, "note": 50, "velocity": 106, "channel": 0}, {"type": "note_on", "time": 20, "note": 56, "velocity": 124, "channel": 0}, {"type": "note_off", "time": 54, "note": 56, "velocity": 124, "channel": 0}, {"type": "note_on", "time": 8, "note": 57, "velocity": 116, "channel": 0}, {"type": "note_off", "time": 310, "note": 57, "velocity": 116, "channel": 0}, {"type": "note_on", "time": 80, "note": 56, "velocity": 121, "channel": 0}, {"type": "note_off", "time": 63, "note": 56, "velocity": 121, "channel": 0}, {"type": "note_on", "time": 7, "note": 57, "velocity": 122, "channel": 0}, {"type": "note_off", "time": 117, "note": 57, "velocity": 122, "channel": 0}, {"type": "note_on", "time": 25, "note": 49, "velocity": 115, "channel": 0}, {"type": "note_off", "time": 99, "note": 49, "velocity": 115, "channel": 0}, {"type": "note_on", "time": 17, "note": 48, "velocity": 115, "channel": 0}, {"type": "note_off", "time": 149, "note": 48, "velocity": 115, "channel": 0}, {"type": "note_on", "time": 334, "note": 68, "velocity": 125, "channel": 0}, {"type": "note_off", "time": 74, "note": 68, "velocity": 125, "channel": 0}, {"type": "note_on", "time": 228, "note": 68, "velocity": 120, "channel": 0}, {"type": "note_off", "time": 102, "note": 68, "velocity": 120, "channel": 0}, {"type": "note_on", "time": 99, "note": 61, "velocity": 115, "channel": 0}, {"type": "note_off", "time": 57, "note": 61, "velocity": 115, "channel": 0}, {"type": "note_on", "time": 199, "note": 72, "velocity": 123, "channel": 0}, {"type": "note_off", "time": 120, "note": 72, "velocity": 123, "channel": 0}, {"type": "note_on", "time": 40, "note": 71, "velocity": 123, "channel": 0}, {"type": "note_off", "time": 48, "note": 71, "velocity": 123, "channel": 0}, {"type": "note_on", "time": 8, "note": 72, "velocity": 122, "channel": 0}, {"type": "note_off", "time": 165, "note": 72, "velocity": 122, "channel": 0}, {"type": "note_on", "time": 8, "note": 67, "velocity": 120, "channel": 0}, {"type": "note_off", "time": 100, "note": 67, "velocity": 120, "channel": 0}, {"type": "note_on", "time": 35, "note": 65, "velocity": 123, "channel": 0}, {"type": "note_off", "time": 38, "note": 65, "velocity": 123, "channel": 0}, {"type": "note_on", "time": 10, "note": 67, "velocity": 119, "channel": 0}, {"type": "note_off", "time": 173, "note": 67, "velocity": 119, "channel": 0}, {"type": "note_on", "time": 12, "note": 64, "velocity": 125, "channel": 0}, {"type": "note_off", "time": 104, "note": 64, "velocity": 125, "channel": 0}, {"type": "note_on", "time": 21, "note": 60, "velocity": 113, "channel": 0}, {"type": "note_off", "time": 47, "note": 60, "velocity": 113, "channel": 0}, {"type": "note_on", "time": 12, "note": 64, "velocity": 126, "channel": 0}, {"type": "note_off", "time": 135, "note": 64, "velocity": 126, "channel": 0}, {"type": "note_on", "time": 27, "note": 60, "velocity": 117, "channel": 0}, {"type": "note_off", "time": 112, "note": 60, "velocity": 117, "channel": 0}, {"type": "note_on", "time": 91, "note": 60, "velocity": 118, "channel": 0}, {"type": "note_off", "time": 150, "note": 60, "velocity": 118, "channel": 0}, {"type": "note_on", "time": 43, "note": 55, "velocity": 115, "channel": 0}, {"type": "note_off", "time": 109, "note": 55, "velocity": 115, "channel": 0}, {"type": "note_on", "time": 11, "note": 52, "velocity": 110, "channel": 0}, {"type": "note_off", "time": 34, "note": 52, "velocity": 110, "channel": 0}, {"type": "note_on", "time": 20, "note": 55, "velocity": 115, "channel": 0}, {"type": "note_off", "time": 166, "note": 55, "velocity": 115, "channel": 0}, {"type": "note_on", "time": 17, "note": 51, "velocity": 116, "channel": 0}, {"type": "note_off", "time": 71, "note": 51, "velocity": 116, "channel": 0}, {"type": "note_on", "time": 11, "note": 52, "velocity": 112, "channel": 0}, {"type": "note_off", "time": 205, "note": 52, "velocity": 112, "channel": 0}, {"type": "note_on", "time": 11, "note": 48, "velocity": 111, "channel": 0}, {"type": "note_off", "time": 64, "note": 48, "velocity": 111, "channel": 0}, {"type": "note_on", "time": 14, "note": 50, "velocity": 113, "channel": 0}, {"type": "note_off", "time": 100, "note": 50, "velocity": 113, "channel": 0}, {"type": "note_on", "time": 33, "note": 48, "velocity": 109, "channel": 0}, {"type": "note_off", "time": 80, "note": 48, "velocity": 109, "channel": 0}, {"type": "note_on", "time": 169, "note": 59, "velocity": 114, "channel": 0}, {"type": "note_off", "time": 265, "note": 59, "velocity": 114, "channel": 0}, {"type": "end_of_track", "time": 0}]]}