{"ticks_per_beat": 840, "tracks": [[{"type": "track_name", "name": "Melody", "time": 0}, {"type": "set_tempo", "tempo": 480000, "time": 0}, {"type": "key_signature", "key": "C", "time": 0}, {"type": "time_signature", "numerator": 4, "denominator": 4, "clocks_per_click": 24, "notated_32nd_notes_per_beat": 8, "time": 0}, {"type": "note_on", "time": 12504, "note": 55, "velocity": 93, "channel": 0}, {"type": "note_off", "time": 297, "note": 55, "velocity": 93, "channel": 0}, {"type": "note_on", "time": 9, "note": 52, "velocity": 82, "channel": 0}, {"type": "note_off", "time": 150, "note": 52, "velocity": 82, "channel": 0}, {"type": "note_on", "time": 28, "note": 53, "velocity": 88, "channel": 0}, {"type": "note_off", "time": 200, "note": 53, "velocity": 88, "channel": 0}, {"type": "note_on", "time": 23, "note": 55, "velocity": 96, "channel": 0}, {"type": "note_off", "time": 209, "note": 55, "velocity": 96, "channel": 0}, {"type": "note_on", "time": 24, "note": 56, "velocity": 92, "channel": 0}, {"type": "note_off", "time": 213, "note": 56, "velocity": 92, "channel": 0}, {"type": "note_on", "time": 12, "note": 58, "velocity": 85, "channel": 0}, {"type": "note_off", "time": 196, "note": 58, "velocity": 85, "channel": 0}, {"type": "note_on", "time": 25, "note": 59, "velocity": 85, "channel": 0}, {"type": "note_off", "time": 157, "note": 59, "velocity": 85, "channel": 0}, {"type": "note_on", "time": 0, "note": 60, "velocity": 103, "channel": 0}, {"type": "note_off", "time": 233, "note": 60, "velocity": 103, "channel": 0}, {"type": "note_on", "time": 15, "note": 61, "velocity": 103, "channel": 0}, {"type": "note_on", "time": 177, "note": 62, "velocity": 108, "channel": 0}, {"type": "note_off", "time": 0, "note": 61, "velocity": 103, "channel": 0}, {"type": "note_off", "time": 187, "note": 62, "velocity": 108, "channel": 0}, {"type": "note_on", "time": 25, "note": 64, "velocity": 114, "channel": 0}, {"type": "note_off", "time": 152, "note": 64, "velocity": 114, "channel": 0}, {"type": "note_on", "time": 10, "note": 65, "velocity": 109, "channel": 0}, {"type": "note_off", "time": 223, "note": 65, "velocity": 109, "channel": 0}, {"type": "note_on", "time": 0, "note": 67, "velocity": 111, "channel": 0}, {"type": "note_off", "time": 208, "note": 67, "velocity": 111, "channel": 0}, {"type": "note_on", "time": 10, "note": 68, "velocity": 107, "channel": 0}, {"type": "note_off", "time": 116, "note": 68, "velocity": 107, "channel": 0}, {"type": "note_on", "time": 10, "note": 70, "velocity": 101, "channel": 0}, {"type": "note_off", "time": 270, "note": 70, "velocity": 101, "channel": 0}, {"type": "note_on", "time": 20, "note": 72, "velocity": 110, "channel": 0}, {"type": "note_off", "time": 180, "note": 72, "velocity": 110, "channel": 0}, {"type": "note_on", "time": 15, "note": 70, "velocity": 109, "channel": 0}, {"type": "note_off", "time": 969, "note": 70, "velocity": 109, "channel": 0}, {"type": "note_on", "time": 28, "note": 68, "velocity": 117, "channel": 0}, {"type": "note_off", "time": 240, "note": 68, "velocity": 117, "channel": 0}, {"type": "note_on", "time": 13, "note": 67, "velocity": 112, "channel": 0}, {"type": "note_off", "time": 140, "note": 67, "velocity": 112, "channel": 0}, {"type": "note_on", "time": 39, "note": 65, "velocity": 107, "channel": 0}, {"type": "note_off", "time": 223, "note": 65, "velocity": 107, "channel": 0}, {"type": "note_on", "time": 15, "note": 64, "velocity": 109, "channel": 0}, {"type": "note_off", "time": 208, "note": 64, "velocity": 109, "channel": 0}, {"type": "note_on", "time": 10, "note": 65, "velocity": 102, "channel": 0}, {"type": "note_off", "time": 182, "note": 65, "velocity": 102, "channel": 0}, {"type": "note_on", "time": 19, "note": 67, "velocity": 110, "channel": 0}, {"type": "note_off", "time": 264, "note": 67, "velocity": 110, "channel": 0}, {"type": "note_on", "time": 20, "note": 64, "velocity": 109, "channel": 0}, {"type": "note_off", "time": 193, "note": 64, "velocity": 109, "channel": 0}, {"type": "note_on", "time": 3, "note": 66, "velocity": 102, "channel": 0}, {"type": "note_off", "time": 1059, "note": 66, "velocity": 102, "channel": 0}, {"type": "note_on", "time": 5, "note": 65, "velocity": 104, "channel": 0}, {"type": "note_off", "time": 121, "note": 65, "velocity": 104, "channel": 0}, {"type": "note_on", "time": 13, "note": 64, "velocity": 105, "channel": 0}, {"type": "note_off", "time": 232, "note": 64, "velocity": 105, "channel": 0}, {"type": "note_on", "time": 17, "note": 62, "velocity": 97, "channel": 0}, {"type": "note_on", "time": 238, "note": 63, "velocity": 106, "channel": 0}, {"type": "note_off", "time": 0, "note": 62, "velocity": 97, "channel": 0}, {"type": "note_off", "time": 208, "note": 63, "velocity": 106, "channel": 0}, {"type": "note_on", "time": 17, "note": 66, "velocity": 94, "channel": 0}, {"type": "note_off", "time": 184, "note": 66, "velocity": 94, "channel": 0}, {"type": "note_on", "time": 11, "note": 63, "velocity": 100, "channel": 0}, {"type": "note_off", "time": 240, "note": 63, "velocity": 100, "channel": 0}, {"type": "note_on", "time": 43, "note": 59, "velocity": 83, "channel": 0}, {"type": "note_off", "time": 163, "note": 59, "velocity": 83, "channel": 0}, {"type": "note_on", "time": 17, "note": 56, "velocity": 95, "channel": 0}, {"type": "note_off", "time": 219, "note": 56, "velocity": 95, "channel": 0}, {"type": "note_on", "time": 31, "note": 54, "velocity": 90, "channel": 0}, {"type": "note_off", "time": 259, "note": 54, "velocity": 90, "channel": 0}, {"type": "note_on", "time": 2, "note": 61, "velocity": 91, "channel": 0}, {"type": "note_off", "time": 611, "note": 61, "velocity": 91, "channel": 0}, {"type": "note_on", "time": 97, "note": 56, "velocity": 92, "channel": 0}, {"type": "note_off", "time": 167, "note": 56, "velocity": 92, "channel": 0}, {"type": "note_on", "time": 20, "note": 54, "velocity": 88, "channel": 0}, {"type": "note_off", "time": 223, "note": 54, "velocity": 88, "channel": 0}, {"type": "note_on", "time": 25, "note": 51, "velocity": 80, "channel": 0}, {"type": "note_off", "time": 208, "note": 51, "velocity": 80, "channel": 0}, {"type": "note_on", "time": 38, "note": 56, "velocity": 97, "channel": 0}, {"type": "note_off", "time": 226, "note": 56, "velocity": 97, "channel": 0}, {"type": "note_on", "time": 81, "note": 54, "velocity": 94, "channel": 0}, {"type": "note_off", "time": 177, "note": 54, "velocity": 94, "channel": 0}, {"type": "note_on", "time": 1413, "note": 67, "velocity": 117, "channel": 0}, {"type": "note_off", "time": 211, "note": 67, "velocity": 117, "channel": 0}, {"type": "note_on", "time": 13, "note": 65, "velocity": 109, "channel": 0}, {"type": "note_off", "time": 222, "note": 65, "velocity": 109, "channel": 0}, {"type": "note_on", "time": 1, "note": 70, "velocity": 107, "channel": 0}, {"type": "note_off", "time": 224, "note": 70, "velocity": 107, "channel": 0}, {"type": "note_on", "time": 28, "note": 67, "velocity": 109, "channel": 0}, {"type": "note_off", "time": 190, "note": 67, "velocity": 109, "channel": 0}, {"type": "note_on", "time": 24, "note": 62, "velocity": 110, "channel": 0}, {"type": "note_off", "time": 158, "note": 62, "velocity": 110, "channel": 0}, {"type": "note_on", "time": 26, "note": 67, "velocity": 108, "channel": 0}, {"type": "note_off", "time": 194, "note": 67, "velocity": 108, "channel": 0}, {"type": "note_on", "time": 9, "note": 65, "velocity": 103, "channel": 0}, {"type": "note_off", "time": 691, "note": 65, "velocity": 103, "channel": 0}, {"type": "note_on", "time": 41, "note": 60, "velocity": 102, "channel": 0}, {"type": "note_off", "time": 154, "note": 60, "velocity": 102, "channel": 0}, {"type": "note_on", "time": 41, "note": 58, "velocity": 91, "channel": 0}, {"type": "note_off", "time": 234, "note": 58, "velocity": 91, "channel": 0}, {"type": "note_on", "time": 6, "note": 63, "velocity": 101, "channel": 0}, {"type": "note_off", "time": 228, "note": 63, "velocity": 101, "channel": 0}, {"type": "note_on", "time": 28, "note": 61, "velocity": 97, "channel": 0}, {"type": "note_off", "time": 150, "note": 61, "velocity": 97, "channel": 0}, {"type": "note_on", "time": 14, "note": 58, "velocity": 91, "channel": 0}, {"type": "note_off", "time": 185, "note": 58, "velocity": 91, "channel": 0}, {"type": "note_on", "time": 21, "note": 60, "velocity": 93, "channel": 0}, {"type": "note_off", "time": 821, "note": 60, "velocity": 93, "channel": 0}, {"type": "note_on", "time": 71, "note": 58, "velocity": 92, "channel": 0}, {"type": "note_off", "time": 200, "note": 58, "velocity": 92, "channel": 0}, {"type": "note_on", "time": 30, "note": 56, "velocity": 99, "channel": 0}, {"type": "note_off", "time": 184, "note": 56, "velocity": 99, "channel": 0}, {"type": "note_on", "time": 26, "note": 53, "velocity": 95, "channel": 0}, {"type": "note_off", "time": 192, "note": 53, "velocity": 95, "channel": 0}, {"type": "note_on", "time": 44, "note": 51, "velocity": 92, "channel": 0}, {"type": "note_off", "time": 164, "note": 51, "velocity": 92, "channel": 0}, {"type": "note_on", "time": 14, "note": 56, "velocity": 97, "channel": 0}, {"type": "note_off", "time": 164, "note": 56, "velocity": 97, "channel": 0}, {"type": "note_on", "time": 31, "note": 53, "velocity": 97, "channel": 0}, {"type": "note_off", "time": 171, "note": 53, "velocity": 97, "channel": 0}, {"type": "note_on", "time": 18, "note": 51, "velocity": 89, "channel": 0}, {"type": "note_off", "time": 242, "note": 51, "velocity": 89, "channel": 0}, {"type": "note_on", "time": 14, "note": 48, "velocity": 99, "channel": 0}, {"type": "note_off", "time": 302, "note": 48, "velocity": 99, "channel": 0}, {"type": "note_on", "time": 22, "note": 51, "velocity": 96, "channel": 0}, {"type": "note_off", "time": 268, "note": 51, "velocity": 96, "channel": 0}, {"type": "note_on", "time": 34, "note": 48, "velocity": 102, "channel": 0}, {"type": "note_off", "time": 354, "note": 48, "velocity": 102, "channel": 0}, {"type": "note_on", "time": 1937, "note": 53, "velocity": 98, "channel": 0}, {"type": "note_off", "time": 193, "note": 53, "velocity": 98, "channel": 0}, {"type": "note_on", "time": 71, "note": 57, "velocity": 102, "channel": 0}, {"type": "note_off", "time": 200, "note": 57, "velocity": 102, "channel": 0}, {"type": "note_on", "time": 0, "note": 60, "velocity": 109, "channel": 0}, {"type": "note_off", "time": 340, "note": 60, "velocity": 109, "channel": 0}, {"type": "note_on", "time": 15, "note": 60, "velocity": 111, "channel": 0}, {"type": "note_off", "time": 245, "note": 60, "velocity": 111, "channel": 0}, {"type": "note_on", "time": 22, "note": 58, "velocity": 95, "channel": 0}, {"type": "note_off", "time": 308, "note": 58, "velocity": 95, "channel": 0}, {"type": "note_on", "time": 19, "note": 60, "velocity": 110, "channel": 0}, {"type": "note_off", "time": 278, "note": 60, "velocity": 110, "channel": 0}, {"type": "note_on", "time": 15, "note": 61, "velocity": 112, "channel": 0}, {"type": "note_off", "time": 226, "note": 61, "velocity": 112, "channel": 0}, {"type": "note_on", "time": 34, "note": 61, "velocity": 115, "channel": 0}, {"type": "note_off", "time": 264, "note": 61, "velocity": 115, "channel": 0}, {"type": "note_on", "time": 22, "note": 63, "velocity": 119, "channel": 0}, {"type": "note_off", "time": 205, "note": 63, "velocity": 119, "channel": 0}, {"type": "note_on", "time": 72, "note": 63, "velocity": 121, "channel": 0}, {"type": "note_off", "time": 318, "note": 63, "velocity": 121, "channel": 0}, {"type": "note_on", "time": 19, "note": 65, "velocity": 113, "channel": 0}, {"type": "note_off", "time": 238, "note": 65, "velocity": 113, "channel": 0}, {"type": "note_on", "time": 45, "note": 65, "velocity": 115, "channel": 0}, {"type": "note_off", "time": 213, "note": 65, "velocity": 115, "channel": 0}, {"type": "note_on", "time": 8, "note": 68, "velocity": 112, "channel": 0}, {"type": "note_off", "time": 306, "note": 68, "velocity": 112, "channel": 0}, {"type": "note_on", "time": 60, "note": 67, "velocity": 117, "channel": 0}, {"type": "note_off", "time": 309, "note": 67, "velocity": 117, "channel": 0}, {"type": "note_on", "time": 45, "note": 67, "velocity": 115, "channel": 0}, {"type": "note_off", "time": 248, "note": 67, "velocity": 115, "channel": 0}, {"type": "note_on", "time": 0, "note": 64, "velocity": 116, "channel": 0}, {"type": "note_off", "time": 257, "note": 64, "velocity": 116, "channel": 0}, {"type": "note_on", "time": 43, "note": 59, "velocity": 88, "channel": 0}, {"type": "note_off", "time": 327, "note": 59, "velocity": 88, "channel": 0}, {"type": "note_on", "time": 32, "note": 55, "velocity": 102, "channel": 0}, {"type": "note_off", "time": 222, "note": 55, "velocity": 102, "channel": 0}, {"type": "note_on", "time": 20, "note": 62, "velocity": 113, "channel": 0}, {"type": "note_off", "time": 881, "note": 62, "velocity": 113, "channel": 0}, {"type": "note_on", "time": 27, "note": 60, "velocity": 99, "channel": 0}, {"type": "note_off", "time": 218, "note": 60, "velocity": 99, "channel": 0}, {"type": "note_on", "time": 20, "note": 59, "velocity": 91, "channel": 0}, {"type": "note_off", "time": 147, "note": 59, "velocity": 91, "channel": 0}, {"type": "note_on", "time": 19, "note": 57, "velocity": 89, "channel": 0}, {"type": "note_off", "time": 125, "note": 57, "velocity": 89, "channel": 0}, {"type": "note_on", "time": 17, "note": 55, "velocity": 103, "channel": 0}, {"type": "note_off", "time": 238, "note": 55, "velocity": 103, "channel": 0}, {"type": "note_on", "time": 30, "note": 53, "velocity": 94, "channel": 0}, {"type": "note_off", "time": 294, "note": 53, "velocity": 94, "channel": 0}, {"type": "note_on", "time": 10, "note": 52, "velocity": 97, "channel": 0}, {"type": "note_off", "time": 142, "note": 52, "velocity": 97, "channel": 0}, {"type": "note_on", "time": 1208, "note": 66, "velocity": 109, "channel": 0}, {"type": "note_off", "time": 248, "note": 66, "velocity": 109, "channel": 0}, {"type": "note_on", "time": 6, "note": 71, "velocity": 112, "channel": 0}, {"type": "note_off", "time": 232, "note": 71, "velocity": 112, "channel": 0}, {"type": "note_on", "time": 5, "note": 68, "velocity": 114, "channel": 0}, {"type": "note_off", "time": 190, "note": 68, "velocity": 114, "channel": 0}, {"type": "note_on", "time": 6, "note": 66, "velocity": 109, "channel": 0}, {"type": "note_off", "time": 172, "note": 66, "velocity": 109, "channel": 0}, {"type": "note_on", "time": 5, "note": 64, "velocity": 111, "channel": 0}, {"type": "note_off", "time": 194, "note": 64, "velocity": 111, "channel": 0}, {"type": "note_on", "time": 0, "note": 68, "velocity": 114, "channel": 0}, {"type": "note_off", "time": 247, "note": 68, "velocity": 114, "channel": 0}, {"type": "note_on", "time": 13, "note": 66, "velocity": 106, "channel": 0}, {"type": "note_off", "time": 310, "note": 66, "velocity": 106, "channel": 0}, {"type": "note_on", "time": 9, "note": 63, "velocity": 115, "channel": 0}, {"type": "note_off", "time": 299, "note": 63, "velocity": 115, "channel": 0}, {"type": "note_on", "time": 9, "note": 66, "velocity": 105, "channel": 0}, {"type": "note_off", "time": 274, "note": 66, "velocity": 105, "channel": 0}, {"type": "note_on", "time": 125, "note": 63, "velocity": 110, "channel": 0}, {"type": "note_off", "time": 249, "note": 63, "velocity": 110, "channel": 0}, {"type": "note_on", "time": 100, "note": 64, "velocity": 118, "channel": 0}, {"type": "note_off", "time": 259, "note": 64, "velocity": 118, "channel": 0}, {"type": "note_on", "time": 106, "note": 66, "velocity": 104, "channel": 0}, {"type": "note_off", "time": 279, "note": 66, "velocity": 104, "channel": 0}, {"type": "note_on", "time": 104, "note": 63, "velocity": 115, "channel": 0}, {"type": "note_off", "time": 285, "note": 63, "velocity": 115, "channel": 0}, {"type": "note_on", "time": 140, "note": 63, "velocity": 113, "channel": 0}, {"type": "note_off", "time": 316, "note": 63, "velocity": 113, "channel": 0}, {"type": "note_on", "time": 11, "note": 64, "velocity": 111, "channel": 0}, {"type": "note_off", "time": 283, "note": 64, "velocity": 111, "channel": 0}, {"type": "note_on", "time": 30, "note": 61, "velocity": 105, "channel": 0}, {"type": "note_off", "time": 219, "note": 61, "velocity": 105, "channel": 0}, {"type": "note_on", "time": 40, "note": 61, "velocity": 100, "channel": 0}, {"type": "note_off", "time": 278, "note": 61, "velocity": 100, "channel": 0}, {"type": "note_on", "time": 123, "note": 59, "velocity": 92, "channel": 0}, {"type": "note_off", "time": 198, "note": 59, "velocity": 92, "channel": 0}, {"type": "note_on", "time": 15, "note": 56, "velocity": 99, "channel": 0}, {"type": "note_off", "time": 268, "note": 56, "velocity": 99, "channel": 0}, {"type": "note_on", "time": 38, "note": 56, "velocity": 96, "channel": 0}, {"type": "note_off", "time": 243, "note": 56, "velocity": 96, "channel": 0}, {"type": "note_on", "time": 69, "note": 54, "velocity": 91, "channel": 0}, {"type": "note_off", "time": 161, "note": 54, "velocity": 91, "channel": 0}, {"type": "note_on", "time": 0, "note": 51, "velocity": 92, "channel": 0}, {"type": "note_off", "time": 430, "note": 51, "velocity": 92, "channel": 0}, {"type": "note_on", "time": 633, "note": 74, "velocity": 105, "channel": 0}, {"type": "note_off", "time": 96, "note": 74, "velocity": 105, "channel": 0}, {"type": "note_on", "time": 17, "note": 72, "velocity": 115, "channel": 0}, {"type": "note_off", "time": 146, "note": 72, "velocity": 115, "channel": 0}, {"type": "note_on", "time": 14, "note": 70, "velocity": 110, "channel": 0}, {"type": "note_off", "time": 200, "note": 70, "velocity": 110, "channel": 0}, {"type": "note_on", "time": 10, "note": 68, "velocity": 118, "channel": 0}, {"type": "note_off", "time": 228, "note": 68, "velocity": 118, "channel": 0}, {"type": "note_on", "time": 10, "note": 67, "velocity": 115, "channel": 0}, {"type": "note_off", "time": 214, "note": 67, "velocity": 115, "channel": 0}, {"type": "note_on", "time": 7, "note": 66, "velocity": 112, "channel": 0}, {"type": "note_off", "time": 207, "note": 66, "velocity": 112, "channel": 0}, {"type": "note_on", "time": 133, "note": 65, "velocity": 95, "channel": 0}, {"type": "note_off", "time": 60, "note": 65, "velocity": 95, "channel": 0}, {"type": "note_on", "time": 18, "note": 64, "velocity": 117, "channel": 0}, {"type": "note_off", "time": 226, "note": 64, "velocity": 117, "channel": 0}, {"type": "note_on", "time": 0, "note": 63, "velocity": 112, "channel": 0}, {"type": "note_off", "time": 196, "note": 63, "velocity": 112, "channel": 0}, {"type": "note_on", "time": 5, "note": 62, "velocity": 104, "channel": 0}, {"type": "note_off", "time": 220, "note": 62, "velocity": 104, "channel": 0}, {"type": "note_on", "time": 11, "note": 60, "velocity": 91, "channel": 0}, {"type": "note_off", "time": 228, "note": 60, "velocity": 91, "channel": 0}, {"type": "note_on", "time": 26, "note": 59, "velocity": 97, "channel": 0}, {"type": "note_off", "time": 173, "note": 59, "velocity": 97, "channel": 0}, {"type": "note_on", "time": 32, "note": 58, "velocity": 97, "channel": 0}, {"type": "note_off", "time": 173, "note": 58, "velocity": 97, "channel": 0}, {"type": "note_on", "time": 33, "note": 55, "velocity": 103, "channel": 0}, {"type": "note_off", "time": 207, "note": 55, "velocity": 103, "channel": 0}, {"type": "note_on", "time": 18, "note": 54, "velocity": 97, "channel": 0}, {"type": "note_off", "time": 196, "note": 54, "velocity": 97, "channel": 0}, {"type": "note_on", "time": 74, "note": 51, "velocity": 95, "channel": 0}, {"type": "note_off", "time": 182, "note": 51, "velocity": 95, "channel": 0}, {"type": "note_on", "time": 14, "note": 53, "velocity": 102, "channel": 0}, {"type": "note_off", "time": 182, "note": 53, "velocity": 102, "channel": 0}, {"type": "note_on", "time": 9, "note": 52, "velocity": 96, "channel": 0}, {"type": "note_off", "time": 135, "note": 52, "velocity": 96, "channel": 0}, {"type": "note_on", "time": 20, "note": 51, "velocity": 95, "channel": 0}, {"type": "note_off", "time": 247, "note": 51, "velocity": 95, "channel": 0}, {"type": "note_on", "time": 97, "note": 53, "velocity": 89, "channel": 0}, {"type": "note_off", "time": 147, "note": 53, "velocity": 89, "channel": 0}, {"type": "note_on", "time": 0, "note": 54, "velocity": 93, "channel": 0}, {"type": "note_off", "time": 116, "note": 54, "velocity": 93, "channel": 0}, {"type": "note_on", "time": 33, "note": 56, "velocity": 88, "channel": 0}, {"type": "note_off", "time": 85, "note": 56, "velocity": 88, "channel": 0}, {"type": "note_on", "time": 5, "note": 58, "velocity": 89, "channel": 0}, {"type": "note_off", "time": 55, "note": 58, "velocity": 89, "channel": 0}, {"type": "note_on", "time": 15, "note": 62, "velocity": 103, "channel": 0}, {"type": "note_off", "time": 110, "note": 62, "velocity": 103, "channel": 0}, {"type": "note_on", "time": 15, "note": 65, "velocity": 111, "channel": 0}, {"type": "note_off", "time": 222, "note": 65, "velocity": 111, "channel": 0}, {"type": "note_on", "time": 15, "note": 64, "velocity": 114, "channel": 0}, {"type": "note_off", "time": 175, "note": 64, "velocity": 114, "channel": 0}, {"type": "note_on", "time": 40, "note": 63, "velocity": 109, "channel": 0}, {"type": "note_off", "time": 178, "note": 63, "velocity": 109, "channel": 0}, {"type": "note_on", "time": 1, "note": 65, "velocity": 102, "channel": 0}, {"type": "note_off", "time": 201, "note": 65, "velocity": 102, "channel": 0}, {"type": "note_on", "time": 194, "note": 68, "velocity": 86, "channel": 0}, {"type": "note_off", "time": 116, "note": 68, "velocity": 86, "channel": 0}, {"type": "note_on", "time": 26, "note": 70, "velocity": 104, "channel": 0}, {"type": "note_off", "time": 287, "note": 70, "velocity": 104, "channel": 0}, {"type": "note_on", "time": 9, "note": 66, "velocity": 106, "channel": 0}, {"type": "note_off", "time": 188, "note": 66, "velocity": 106, "channel": 0}, {"type": "note_on", "time": 15, "note": 65, "velocity": 95, "channel": 0}, {"type": "note_off", "time": 167, "note": 65, "velocity": 95, "channel": 0}, {"type": "note_on", "time": 90, "note": 64, "velocity": 85, "channel": 0}, {"type": "note_off", "time": 121, "note": 64, "velocity": 85, "channel": 0}, {"type": "note_on", "time": 10, "note": 68, "velocity": 104, "channel": 0}, {"type": "note_off", "time": 302, "note": 68, "velocity": 104, "channel": 0}, {"type": "note_on", "time": 397, "note": 65, "velocity": 103, "channel": 0}, {"type": "note_off", "time": 301, "note": 65, "velocity": 103, "channel": 0}, {"type": "note_on", "time": 0, "note": 61, "velocity": 98, "channel": 0}, {"type": "note_off", "time": 167, "note": 61, "velocity": 98, "channel": 0}, {"type": "note_on", "time": 19, "note": 58, "velocity": 86, "channel": 0}, {"type": "note_off", "time": 174, "note": 58, "velocity": 86, "channel": 0}, {"type": "note_on", "time": 14, "note": 57, "velocity": 95, "channel": 0}, {"type": "note_off", "time": 173, "note": 57, "velocity": 95, "channel": 0}, {"type": "note_on", "time": 8, "note": 63, "velocity": 113, "channel": 0}, {"type": "note_off", "time": 285, "note": 63, "velocity": 113, "channel": 0}, {"type": "note_on", "time": 14, "note": 61, "velocity": 97, "channel": 0}, {"type": "note_off", "time": 200, "note": 61, "velocity": 97, "channel": 0}, {"type": "note_on", "time": 14, "note": 58, "velocity": 90, "channel": 0}, {"type": "note_off", "time": 192, "note": 58, "velocity": 90, "channel": 0}, {"type": "note_on", "time": 161, "note": 56, "velocity": 100, "channel": 0}, {"type": "note_off", "time": 218, "note": 56, "velocity": 100, "channel": 0}, {"type": "note_on", "time": 2, "note": 57, "velocity": 93, "channel": 0}, {"type": "note_off", "time": 167, "note": 57, "velocity": 93, "channel": 0}, {"type": "note_on", "time": 30, "note": 60, "velocity": 105, "channel": 0}, {"type": "note_off", "time": 215, "note": 60, "velocity": 105, "channel": 0}, {"type": "note_on", "time": 63, "note": 57, "velocity": 92, "channel": 0}, {"type": "note_off", "time": 132, "note": 57, "velocity": 92, "channel": 0}, {"type": "note_on", "time": 15, "note": 58, "velocity": 92, "channel": 0}, {"type": "note_off", "time": 210, "note": 58, "velocity": 92, "channel": 0}, {"type": "note_on", "time": 20, "note": 60, "velocity": 97, "channel": 0}, {"type": "note_off", "time": 165, "note": 60, "velocity": 97, "channel": 0}, {"type": "note_on", "time": 7, "note": 61, "velocity": 89, "channel": 0}, {"type": "note_off", "time": 99, "note": 61, "velocity": 89, "channel": 0}, {"type": "note_on", "time": 4, "note": 63, "velocity": 84, "channel": 0}, {"type": "note_off", "time": 135, "note": 63, "velocity": 84, "channel": 0}, {"type": "note_on", "time": 126, "note": 72, "velocity": 97, "channel": 0}, {"type": "note_off", "time": 241, "note": 72, "velocity": 97, "channel": 0}, {"type": "note_on", "time": 12, "note": 68, "velocity": 102, "channel": 0}, {"type": "note_off", "time": 203, "note": 68, "velocity": 102, "channel": 0}, {"type": "note_on", "time": 12, "note": 65, "velocity": 94, "channel": 0}, {"type": "note_off", "time": 187, "note": 65, "velocity": 94, "channel": 0}, {"type": "note_on", "time": 17, "note": 62, "velocity": 72, "channel": 0}, {"type": "note_off", "time": 116, "note": 62, "velocity": 72, "channel": 0}, {"type": "note_on", "time": 66, "note": 70, "velocity": 105, "channel": 0}, {"type": "note_off", "time": 299, "note": 70, "velocity": 105, "channel": 0}, {"type": "note_on", "time": 17, "note": 70, "velocity": 103, "channel": 0}, {"type": "note_off", "time": 353, "note": 70, "velocity": 103, "channel": 0}, {"type": "note_on", "time": 1290, "note": 74, "velocity": 110, "channel": 0}, {"type": "note_off", "time": 132, "note": 74, "velocity": 110, "channel": 0}, {"type": "note_on", "time": 20, "note": 72, "velocity": 115, "channel": 0}, {"type": "note_off", "time": 147, "note": 72, "velocity": 115, "channel": 0}, {"type": "note_on", "time": 10, "note": 71, "velocity": 112, "channel": 0}, {"type": "note_off", "time": 172, "note": 71, "velocity": 112, "channel": 0}, {"type": "note_on", "time": 60, "note": 68, "velocity": 115, "channel": 0}, {"type": "note_off", "time": 182, "note": 68, "velocity": 115, "channel": 0}, {"type": "note_on", "time": 13, "note": 67, "velocity": 111, "channel": 0}, {"type": "note_off", "time": 245, "note": 67, "velocity": 111, "channel": 0}, {"type": "note_on", "time": 9, "note": 66, "velocity": 110, "channel": 0}, {"type": "note_off", "time": 169, "note": 66, "velocity": 110, "channel": 0}, {"type": "note_on", "time": 13, "note": 65, "velocity": 100, "channel": 0}, {"type": "note_off", "time": 127, "note": 65, "velocity": 100, "channel": 0}, {"type": "note_on", "time": 20, "note": 64, "velocity": 114, "channel": 0}, {"type": "note_off", "time": 177, "note": 64, "velocity": 114, "channel": 0}, {"type": "note_on", "time": 26, "note": 62, "velocity": 104, "channel": 0}, {"type": "note_off", "time": 146, "note": 62, "velocity": 104, "channel": 0}, {"type": "note_on", "time": 34, "note": 60, "velocity": 100, "channel": 0}, {"type": "note_off", "time": 182, "note": 60, "velocity": 100, "channel": 0}, {"type": "note_on", "time": 14, "note": 59, "velocity": 96, "channel": 0}, {"type": "note_off", "time": 163, "note": 59, "velocity": 96, "channel": 0}, {"type": "note_on", "time": 45, "note": 56, "velocity": 102, "channel": 0}, {"type": "note_off", "time": 157, "note": 56, "velocity": 102, "channel": 0}, {"type": "note_on", "time": 45, "note": 55, "velocity": 103, "channel": 0}, {"type": "note_off", "time": 193, "note": 55, "velocity": 103, "channel": 0}, {"type": "note_on", "time": 15, "note": 54, "velocity": 102, "channel": 0}, {"type": "note_off", "time": 81, "note": 54, "velocity": 102, "channel": 0}, {"type": "note_on", "time": 15, "note": 52, "velocity": 98, "channel": 0}, {"type": "note_off", "time": 116, "note": 52, "velocity": 98, "channel": 0}, {"type": "note_on", "time": 0, "note": 53, "velocity": 97, "channel": 0}, {"type": "note_off", "time": 116, "note": 53, "velocity": 97, "channel": 0}, {"type": "note_on", "time": 40, "note": 55, "velocity": 97, "channel": 0}, {"type": "note_on", "time": 106, "note": 59, "velocity": 93, "channel": 0}, {"type": "note_off", "time": 0, "note": 55, "velocity": 97, "channel": 0}, {"type": "note_off", "time": 96, "note": 59, "velocity": 93, "channel": 0}, {"type": "note_on", "time": 64, "note": 62, "velocity": 106, "channel": 0}, {"type": "note_off", "time": 249, "note": 62, "velocity": 106, "channel": 0}, {"type": "note_on", "time": 178, "note": 60, "velocity": 101, "channel": 0}, {"type": "note_off", "time": 198, "note": 60, "velocity": 101, "channel": 0}, {"type": "note_on", "time": 0, "note": 64, "velocity": 111, "channel": 0}, {"type": "note_off", "time": 218, "note": 64, "velocity": 111, "channel": 0}, {"type": "note_on", "time": 20, "note": 62, "velocity": 88, "channel": 0}, {"type": "note_off", "time": 101, "note": 62, "velocity": 88, "channel": 0}, {"type": "note_on", "time": 5, "note": 60, "velocity": 90, "channel": 0}, {"type": "note_off", "time": 142, "note": 60, "velocity": 90, "channel": 0}, {"type": "note_on", "time": 19, "note": 59, "velocity": 92, "channel": 0}, {"type": "note_off", "time": 152, "note": 59, "velocity": 92, "channel": 0}, {"type": "note_on", "time": 8, "note": 60, "velocity": 99, "channel": 0}, {"type": "note_off", "time": 186, "note": 60, "velocity": 99, "channel": 0}, {"type": "note_on", "time": 7, "note": 65, "velocity": 108, "channel": 0}, {"type": "note_off", "time": 147, "note": 65, "velocity": 108, "channel": 0}, {"type": "note_on", "time": 6, "note": 69, "velocity": 108, "channel": 0}, {"type": "note_off", "time": 167, "note": 69, "velocity": 108, "channel": 0}, {"type": "note_on", "time": 7, "note": 67, "velocity": 111, "channel": 0}, {"type": "note_off", "time": 156, "note": 67, "velocity": 111, "channel": 0}, {"type": "note_on", "time": 15, "note": 65, "velocity": 102, "channel": 0}, {"type": "note_off", "time": 146, "note": 65, "velocity": 102, "channel": 0}, {"type": "note_on", "time": 36, "note": 64, "velocity": 103, "channel": 0}, {"type": "note_off", "time": 114, "note": 64, "velocity": 103, "channel": 0}, {"type": "note_on", "time": 7, "note": 67, "velocity": 96, "channel": 0}, {"type": "note_off", "time": 114, "note": 67, "velocity": 96, "channel": 0}, {"type": "note_on", "time": 65, "note": 74, "velocity": 97, "channel": 0}, {"type": "note_off", "time": 203, "note": 74, "velocity": 97, "channel": 0}, {"type": "note_on", "time": 25, "note": 72, "velocity": 109, "channel": 0}, {"type": "note_off", "time": 279, "note": 72, "velocity": 109, "channel": 0}, {"type": "note_on", "time": 25, "note": 67, "velocity": 110, "channel": 0}, {"type": "note_off", "time": 294, "note": 67, "velocity": 110, "channel": 0}, {"type": "note_on", "time": 1891, "note": 63, "velocity": 118, "channel": 0}, {"type": "note_off", "time": 291, "note": 63, "velocity": 118, "channel": 0}, {"type": "note_on", "time": 22, "note": 60, "velocity": 107, "channel": 0}, {"type": "note_off", "time": 236, "note": 60, "velocity": 107, "channel": 0}, {"type": "note_on", "time": 162, "note": 63, "velocity": 117, "channel": 0}, {"type": "note_off", "time": 289, "note": 63, "velocity": 117, "channel": 0}, {"type": "note_on", "time": 14, "note": 60, "velocity": 103, "channel": 0}, {"type": "note_off", "time": 222, "note": 60, "velocity": 103, "channel": 0}, {"type": "note_on", "time": 99, "note": 65, "velocity": 115, "channel": 0}, {"type": "note_off", "time": 146, "note": 65, "velocity": 115, "channel": 0}, {"type": "note_on", "time": 3, "note": 66, "velocity": 110, "channel": 0}, {"type": "note_off", "time": 224, "note": 66, "velocity": 110, "channel": 0}, {"type": "note_on", "time": 177, "note": 60, "velocity": 100, "channel": 0}, {"type": "note_off", "time": 255, "note": 60, "velocity": 100, "channel": 0}, {"type": "note_on", "time": 1, "note": 63, "velocity": 102, "channel": 0}, {"type": "note_off", "time": 964, "note": 63, "velocity": 102, "channel": 0}, {"type": "note_on", "time": 866, "note": 74, "velocity": 121, "channel": 0}, {"type": "note_off", "time": 177, "note": 74, "velocity": 121, "channel": 0}, {"type": "note_on", "time": 0, "note": 75, "velocity": 119, "channel": 0}, {"type": "note_off", "time": 95, "note": 75, "velocity": 119, "channel": 0}, {"type": "note_on", "time": 0, "note": 74, "velocity": 110, "channel": 0}, {"type": "note_off", "time": 76, "note": 74, "velocity": 110, "channel": 0}, {"type": "note_on", "time": 15, "note": 73, "velocity": 114, "channel": 0}, {"type": "note_off", "time": 163, "note": 73, "velocity": 114, "channel": 0}, {"type": "note_on", "time": 27, "note": 71, "velocity": 121, "channel": 0}, {"type": "note_off", "time": 283, "note": 71, "velocity": 121, "channel": 0}, {"type": "note_on", "time": 166, "note": 71, "velocity": 119, "channel": 0}, {"type": "note_off", "time": 422, "note": 71, "velocity": 119, "channel": 0}, {"type": "note_on", "time": 22, "note": 69, "velocity": 111, "channel": 0}, {"type": "note_off", "time": 346, "note": 69, "velocity": 111, "channel": 0}, {"type": "note_on", "time": 110, "note": 68, "velocity": 109, "channel": 0}, {"type": "note_off", "time": 173, "note": 68, "velocity": 109, "channel": 0}, {"type": "note_on", "time": 11, "note": 69, "velocity": 105, "channel": 0}, {"type": "note_off", "time": 142, "note": 69, "velocity": 105, "channel": 0}, {"type": "note_on", "time": 19, "note": 68, "velocity": 106, "channel": 0}, {"type": "note_off", "time": 127, "note": 68, "velocity": 106, "channel": 0}, {"type": "note_on", "time": 51, "note": 63, "velocity": 111, "channel": 0}, {"type": "note_off", "time": 262, "note": 63, "velocity": 111, "channel": 0}, {"type": "note_on", "time": 30, "note": 68, "velocity": 107, "channel": 0}, {"type": "note_off", "time": 93, "note": 68, "velocity": 107, "channel": 0}, {"type": "note_on", "time": 3, "note": 69, "velocity": 111, "channel": 0}, {"type": "note_off", "time": 638, "note": 69, "velocity": 111, "channel": 0}, {"type": "note_on", "time": 15, "note": 71, "velocity": 115, "channel": 0}, {"type": "note_off", "time": 420, "note": 71, "velocity": 115, "channel": 0}, {"type": "note_on", "time": 206, "note": 78, "velocity": 93, "channel": 0}, {"type": "note_off", "time": 1378, "note": 78, "velocity": 93, "channel": 0}, {"type": "note_on", "time": 5, "note": 76, "velocity": 123, "channel": 0}, {"type": "note_off", "time": 340, "note": 76, "velocity": 123, "channel": 0}, {"type": "note_on", "time": 1, "note": 75, "velocity": 120, "channel": 0}, {"type": "note_off", "time": 310, "note": 75, "velocity": 120, "channel": 0}, {"type": "note_on", "time": 13, "note": 73, "velocity": 106, "channel": 0}, {"type": "note_off", "time": 203, "note": 73, "velocity": 106, "channel": 0}, {"type": "note_on", "time": 17, "note": 71, "velocity": 113, "channel": 0}, {"type": "note_off", "time": 281, "note": 71, "velocity": 113, "channel": 0}, {"type": "note_on", "time": 188, "note": 71, "velocity": 115, "channel": 0}, {"type": "note_off", "time": 297, "note": 71, "velocity": 115, "channel": 0}, {"type": "note_on", "time": 3, "note": 68, "velocity": 106, "channel": 0}, {"type": "note_off", "time": 179, "note": 68, "velocity": 106, "channel": 0}, {"type": "note_on", "time": 20, "note": 66, "velocity": 109, "channel": 0}, {"type": "note_off", "time": 321, "note": 66, "velocity": 109, "channel": 0}, {"type": "note_on", "time": 42, "note": 66, "velocity": 107, "channel": 0}, {"type": "note_off", "time": 357, "note": 66, "velocity": 107, "channel": 0}, {"type": "note_on", "time": 67, "note": 66, "velocity": 108, "channel": 0}, {"type": "note_off", "time": 266, "note": 66, "velocity": 108, "channel": 0}, {"type": "note_on", "time": 187, "note": 73, "velocity": 100, "channel": 0}, {"type": "note_off", "time": 249, "note": 73, "velocity": 100, "channel": 0}, {"type": "note_on", "time": 0, "note": 70, "velocity": 111, "channel": 0}, {"type": "note_off", "time": 739, "note": 70, "velocity": 111, "channel": 0}, {"type": "note_on", "time": 38, "note": 73, "velocity": 113, "channel": 0}, {"type": "note_off", "time": 247, "note": 73, "velocity": 113, "channel": 0}, {"type": "note_on", "time": 33, "note": 71, "velocity": 118, "channel": 0}, {"type": "note_off", "time": 892, "note": 71, "velocity": 118, "channel": 0}, {"type": "note_on", "time": 14, "note": 68, "velocity": 104, "channel": 0}, {"type": "note_off", "time": 164, "note": 68, "velocity": 104, "channel": 0}, {"type": "note_on", "time": 7, "note": 66, "velocity": 106, "channel": 0}, {"type": "note_off", "time": 185, "note": 66, "velocity": 106, "channel": 0}, {"type": "note_on", "time": 12, "note": 63, "velocity": 108, "channel": 0}, {"type": "note_off", "time": 171, "note": 63, "velocity": 108, "channel": 0}, {"type": "note_on", "time": 17, "note": 68, "velocity": 106, "channel": 0}, {"type": "note_off", "time": 175, "note": 68, "velocity": 106, "channel": 0}, {"type": "note_on", "time": 9, "note": 66, "velocity": 105, "channel": 0}, {"type": "note_off", "time": 120, "note": 66, "velocity": 105, "channel": 0}, {"type": "note_on", "time": 43, "note": 63, "velocity": 113, "channel": 0}, {"type": "note_off", "time": 150, "note": 63, "velocity": 113, "channel": 0}, {"type": "note_on", "time": 10, "note": 64, "velocity": 109, "channel": 0}, {"type": "note_off", "time": 156, "note": 64, "velocity": 109, "channel": 0}, {"type": "note_on", "time": 40, "note": 66, "velocity": 103, "channel": 0}, {"type": "note_off", "time": 164, "note": 66, "velocity": 103, "channel": 0}, {"type": "note_on", "time": 11, "note": 63, "velocity": 117, "channel": 0}, {"type": "note_off", "time": 666, "note": 63, "velocity": 117, "channel": 0}, {"type": "note_on", "time": 9, "note": 61, "velocity": 103, "channel": 0}, {"type": "note_off", "time": 190, "note": 61, "velocity": 103, "channel": 0}, {"type": "note_on", "time": 11, "note": 59, "velocity": 99, "channel": 0}, {"type": "note_off", "time": 137, "note": 59, "velocity": 99, "channel": 0}, {"type": "note_on", "time": 26, "note": 56, "velocity": 100, "channel": 0}, {"type": "note_off", "time": 137, "note": 56, "velocity": 100, "channel": 0}, {"type": "note_on", "time": 60, "note": 54, "velocity": 97, "channel": 0}, {"type": "note_off", "time": 118, "note": 54, "velocity": 97, "channel": 0}, {"type": "note_on", "time": 34, "note": 52, "velocity": 89, "channel": 0}, {"type": "note_off", "time": 184, "note": 52, "velocity": 89, "channel": 0}, {"type": "note_on", "time": 11, "note": 54, "velocity": 100, "channel": 0}, {"type": "note_off", "time": 213, "note": 54, "velocity": 100, "channel": 0}, {"type": "note_on", "time": 157, "note": 52, "velocity": 92, "channel": 0}, {"type": "note_off", "time": 207, "note": 52, "velocity": 92, "channel": 0}, {"type": "note_on", "time": 1039, "note": 65, "velocity": 112, "channel": 0}, {"type": "note_off", "time": 217, "note": 65, "velocity": 112, "channel": 0}, {"type": "note_on", "time": 0, "note": 67, "velocity": 119, "channel": 0}, {"type": "note_off", "time": 121, "note": 67, "velocity": 119, "channel": 0}, {"type": "note_on", "time": 3, "note": 68, "velocity": 116, "channel": 0}, {"type": "note_off", "time": 117, "note": 68, "velocity": 116, "channel": 0}, {"type": "note_on", "time": 3, "note": 72, "velocity": 119, "channel": 0}, {"type": "note_off", "time": 128, "note": 72, "velocity": 119, "channel": 0}, {"type": "note_on", "time": 17, "note": 71, "velocity": 119, "channel": 0}, {"type": "note_off", "time": 196, "note": 71, "velocity": 119, "channel": 0}, {"type": "note_on", "time": 3, "note": 69, "velocity": 106, "channel": 0}, {"type": "note_off", "time": 200, "note": 69, "velocity": 106, "channel": 0}, {"type": "note_on", "time": 6, "note": 70, "velocity": 112, "channel": 0}, {"type": "note_off", "time": 179, "note": 70, "velocity": 112, "channel": 0}, {"type": "note_on", "time": 46, "note": 67, "velocity": 113, "channel": 0}, {"type": "note_off", "time": 167, "note": 67, "velocity": 113, "channel": 0}, {"type": "note_on", "time": 6, "note": 68, "velocity": 112, "channel": 0}, {"type": "note_off", "time": 190, "note": 68, "velocity": 112, "channel": 0}, {"type": "note_on", "time": 66, "note": 60, "velocity": 85, "channel": 0}, {"type": "note_off", "time": 152, "note": 60, "velocity": 85, "channel": 0}, {"type": "note_on", "time": 30, "note": 63, "velocity": 94, "channel": 0}, {"type": "note_off", "time": 150, "note": 63, "velocity": 94, "channel": 0}, {"type": "note_on", "time": 4, "note": 67, "velocity": 112, "channel": 0}, {"type": "note_off", "time": 226, "note": 67, "velocity": 112, "channel": 0}, {"type": "note_on", "time": 19, "note": 66, "velocity": 108, "channel": 0}, {"type": "note_off", "time": 160, "note": 66, "velocity": 108, "channel": 0}, {"type": "note_on", "time": 17, "note": 64, "velocity": 97, "channel": 0}, {"type": "note_off", "time": 121, "note": 64, "velocity": 97, "channel": 0}, {"type": "note_on", "time": 10, "note": 65, "velocity": 112, "channel": 0}, {"type": "note_off", "time": 257, "note": 65, "velocity": 112, "channel": 0}, {"type": "note_on", "time": 0, "note": 63, "velocity": 118, "channel": 0}, {"type": "note_off", "time": 221, "note": 63, "velocity": 118, "channel": 0}, {"type": "note_on", "time": 14, "note": 62, "velocity": 112, "channel": 0}, {"type": "note_off", "time": 203, "note": 62, "velocity": 112, "channel": 0}, {"type": "note_on", "time": 3, "note": 63, "velocity": 108, "channel": 0}, {"type": "note_off", "time": 146, "note": 63, "velocity": 108, "channel": 0}, {"type": "note_on", "time": 232, "note": 70, "velocity": 106, "channel": 0}, {"type": "note_off", "time": 135, "note": 70, "velocity": 106, "channel": 0}, {"type": "note_on", "time": 135, "note": 74, "velocity": 106, "channel": 0}, {"type": "note_off", "time": 245, "note": 74, "velocity": 106, "channel": 0}, {"type": "note_on", "time": 480, "note": 72, "velocity": 115, "channel": 0}, {"type": "note_off", "time": 222, "note": 72, "velocity": 115, "channel": 0}, {"type": "note_on", "time": 9, "note": 70, "velocity": 110, "channel": 0}, {"type": "note_off", "time": 184, "note": 70, "velocity": 110, "channel": 0}, {"type": "note_on", "time": 14, "note": 68, "velocity": 109, "channel": 0}, {"type": "note_off", "time": 228, "note": 68, "velocity": 109, "channel": 0}, {"type": "note_on", "time": 10, "note": 67, "velocity": 114, "channel": 0}, {"type": "note_off", "time": 187, "note": 67, "velocity": 114, "channel": 0}, {"type": "note_on", "time": 21, "note": 66, "velocity": 110, "channel": 0}, {"type": "note_off", "time": 192, "note": 66, "velocity": 110, "channel": 0}, {"type": "note_on", "time": 4, "note": 71, "velocity": 105, "channel": 0}, {"type": "note_off", "time": 142, "note": 71, "velocity": 105, "channel": 0}, {"type": "note_on", "time": 55, "note": 66, "velocity": 110, "channel": 0}, {"type": "note_off", "time": 253, "note": 66, "velocity": 110, "channel": 0}, {"type": "note_on", "time": 20, "note": 65, "velocity": 108, "channel": 0}, {"type": "note_off", "time": 131, "note": 65, "velocity": 108, "channel": 0}, {"type": "note_on", "time": 3, "note": 64, "velocity": 112, "channel": 0}, {"type": "note_off", "time": 297, "note": 64, "velocity": 112, "channel": 0}, {"type": "note_on", "time": 20, "note": 62, "velocity": 97, "channel": 0}, {"type": "note_off", "time": 96, "note": 62, "velocity": 97, "channel": 0}, {"type": "note_on", "time": 0, "note": 63, "velocity": 112, "channel": 0}, {"type": "note_off", "time": 243, "note": 63, "velocity": 112, "channel": 0}, {"type": "note_on", "time": 25, "note": 66, "velocity": 110, "channel": 0}, {"type": "note_off", "time": 167, "note": 66, "velocity": 110, "channel": 0}, {"type": "note_on", "time": 219, "note": 61, "velocity": 106, "channel": 0}, {"type": "note_off", "time": 184, "note": 61, "velocity": 106, "channel": 0}, {"type": "note_on", "time": 32, "note": 59, "velocity": 93, "channel": 0}, {"type": "note_off", "time": 187, "note": 59, "velocity": 93, "channel": 0}, {"type": "note_on", "time": 35, "note": 56, "velocity": 94, "channel": 0}, {"type": "note_off", "time": 142, "note": 56, "velocity": 94, "channel": 0}, {"type": "note_on", "time": 25, "note": 63, "velocity": 114, "channel": 0}, {"type": "note_off", "time": 248, "note": 63, "velocity": 114, "channel": 0}, {"type": "note_on", "time": 3, "note": 61, "velocity": 100, "channel": 0}, {"type": "note_off", "time": 121, "note": 61, "velocity": 100, "channel": 0}, {"type": "note_on", "time": 13, "note": 56, "velocity": 99, "channel": 0}, {"type": "note_off", "time": 201, "note": 56, "velocity": 99, "channel": 0}, {"type": "note_on", "time": 24, "note": 54, "velocity": 110, "channel": 0}, {"type": "note_off", "time": 162, "note": 54, "velocity": 110, "channel": 0}, {"type": "note_on", "time": 0, "note": 51, "velocity": 102, "channel": 0}, {"type": "note_off", "time": 266, "note": 51, "velocity": 102, "channel": 0}, {"type": "note_on", "time": 7, "note": 56, "velocity": 105, "channel": 0}, {"type": "note_off", "time": 177, "note": 56, "velocity": 105, "channel": 0}, {"type": "note_on", "time": 5, "note": 54, "velocity": 106, "channel": 0}, {"type": "note_off", "time": 264, "note": 54, "velocity": 106, "channel": 0}, {"type": "note_on", "time": 10, "note": 51, "velocity": 93, "channel": 0}, {"type": "note_off", "time": 208, "note": 51, "velocity": 93, "channel": 0}, {"type": "note_on", "time": 10, "note": 52, "velocity": 97, "channel": 0}, {"type": "note_off", "time": 194, "note": 52, "velocity": 97, "channel": 0}, {"type": "note_on", "time": 30, "note": 54, "velocity": 98, "channel": 0}, {"type": "note_off", "time": 182, "note": 54, "velocity": 98, "channel": 0}, {"type": "note_on", "time": 17, "note": 51, "velocity": 96, "channel": 0}, {"type": "note_off", "time": 158, "note": 51, "velocity": 96, "channel": 0}, {"type": "note_on", "time": 5, "note": 56, "velocity": 99, "channel": 0}, {"type": "note_off", "time": 125, "note": 56, "velocity": 99, "channel": 0}, {"type": "note_on", "time": 52, "note": 63, "velocity": 114, "channel": 0}, {"type": "note_off", "time": 218, "note": 63, "velocity": 114, "channel": 0}, {"type": "note_on", "time": 228, "note": 61, "velocity": 103, "channel": 0}, {"type": "note_off", "time": 218, "note": 61, "velocity": 103, "channel": 0}, {"type": "note_on", "time": 1, "note": 63, "velocity": 109, "channel": 0}, {"type": "note_off", "time": 190, "note": 63, "velocity": 109, "channel": 0}, {"type": "note_on", "time": 15, "note": 64, "velocity": 107, "channel": 0}, {"type": "note_off", "time": 208, "note": 64, "velocity": 107, "channel": 0}, {"type": "note_on", "time": 5, "note": 66, "velocity": 107, "channel": 0}, {"type": "note_off", "time": 233, "note": 66, "velocity": 107, "channel": 0}, {"type": "note_on", "time": 3, "note": 67, "velocity": 110, "channel": 0}, {"type": "note_off", "time": 213, "note": 67, "velocity": 110, "channel": 0}, {"type": "note_on", "time": 7, "note": 68, "velocity": 113, "channel": 0}, {"type": "note_off", "time": 205, "note": 68, "velocity": 113, "channel": 0}, {"type": "note_on", "time": 11, "note": 69, "velocity": 110, "channel": 0}, {"type": "note_off", "time": 198, "note": 69, "velocity": 110, "channel": 0}, {"type": "note_on", "time": 5, "note": 70, "velocity": 96, "channel": 0}, {"type": "note_off", "time": 187, "note": 70, "velocity": 96, "channel": 0}, {"type": "note_on", "time": 1, "note": 71, "velocity": 115, "channel": 0}, {"type": "note_off", "time": 222, "note": 71, "velocity": 115, "channel": 0}, {"type": "note_on", "time": 19, "note": 73, "velocity": 102, "channel": 0}, {"type": "note_off", "time": 187, "note": 73, "velocity": 102, "channel": 0}, {"type": "note_on", "time": 3, "note": 70, "velocity": 108, "channel": 0}, {"type": "note_off", "time": 207, "note": 70, "velocity": 108, "channel": 0}, {"type": "note_on", "time": 12, "note": 67, "velocity": 104, "channel": 0}, {"type": "note_off", "time": 218, "note": 67, "velocity": 104, "channel": 0}, {"type": "note_on", "time": 10, "note": 68, "velocity": 103, "channel": 0}, {"type": "note_off", "time": 198, "note": 68, "velocity": 103, "channel": 0}, {"type": "note_on", "time": 228, "note": 67, "velocity": 110, "channel": 0}, {"type": "note_off", "time": 187, "note": 67, "velocity": 110, "channel": 0}, {"type": "note_on", "time": 594, "note": 66, "velocity": 114, "channel": 0}, {"type": "note_off", "time": 259, "note": 66, "velocity": 114, "channel": 0}, {"type": "note_on", "time": 5, "note": 65, "velocity": 112, "channel": 0}, {"type": "note_off", "time": 123, "note": 65, "velocity": 112, "channel": 0}, {"type": "note_on", "time": 30, "note": 64, "velocity": 43, "channel": 0}, {"type": "note_off", "time": 173, "note": 64, "velocity": 43, "channel": 0}, {"type": "note_on", "time": 47, "note": 62, "velocity": 99, "channel": 0}, {"type": "note_off", "time": 142, "note": 62, "velocity": 99, "channel": 0}, {"type": "note_on", "time": 8, "note": 63, "velocity": 126, "channel": 0}, {"type": "note_off", "time": 259, "note": 63, "velocity": 126, "channel": 0}, {"type": "note_on", "time": 37, "note": 63, "velocity": 127, "channel": 0}, {"type": "note_off", "time": 203, "note": 63, "velocity": 127, "channel": 0}, {"type": "note_on", "time": 35, "note": 62, "velocity": 115, "channel": 0}, {"type": "note_off", "time": 223, "note": 62, "velocity": 115, "channel": 0}, {"type": "note_on", "time": 10, "note": 60, "velocity": 109, "channel": 0}, {"type": "note_off", "time": 162, "note": 60, "velocity": 109, "channel": 0}, {"type": "note_on", "time": 30, "note": 58, "velocity": 103, "channel": 0}, {"type": "note_off", "time": 193, "note": 58, "velocity": 103, "channel": 0}, {"type": "note_on", "time": 45, "note": 55, "velocity": 110, "channel": 0}, {"type": "note_off", "time": 193, "note": 55, "velocity": 110, "channel": 0}, {"type": "note_on", "time": 34, "note": 53, "velocity": 104, "channel": 0}, {"type": "note_off", "time": 201, "note": 53, "velocity": 104, "channel": 0}, {"type": "note_on", "time": 41, "note": 52, "velocity": 106, "channel": 0}, {"type": "note_off", "time": 154, "note": 52, "velocity": 106, "channel": 0}, {"type": "note_on", "time": 5, "note": 51, "velocity": 102, "channel": 0}, {"type": "note_off", "time": 310, "note": 51, "velocity": 102, "channel": 0}, {"type": "note_on", "time": 66, "note": 54, "velocity": 97, "channel": 0}, {"type": "note_off", "time": 87, "note": 54, "velocity": 97, "channel": 0}, {"type": "note_on", "time": 33, "note": 57, "velocity": 93, "channel": 0}, {"type": "note_off", "time": 145, "note": 57, "velocity": 93, "channel": 0}, {"type": "note_on", "time": 0, "note": 61, "velocity": 105, "channel": 0}, {"type": "note_off", "time": 160, "note": 61, "velocity": 105, "channel": 0}, {"type": "note_on", "time": 83, "note": 65, "velocity": 119, "channel": 0}, {"type": "note_off", "time": 238, "note": 65, "velocity": 119, "channel": 0}, {"type": "note_on", "time": 30, "note": 63, "velocity": 106, "channel": 0}, {"type": "note_off", "time": 133, "note": 63, "velocity": 106, "channel": 0}, {"type": "note_on", "time": 59, "note": 65, "velocity": 112, "channel": 0}, {"type": "note_off", "time": 278, "note": 65, "velocity": 112, "channel": 0}, {"type": "note_on", "time": 28, "note": 66, "velocity": 113, "channel": 0}, {"type": "note_off", "time": 221, "note": 66, "velocity": 113, "channel": 0}, {"type": "note_on", "time": 7, "note": 68, "velocity": 115, "channel": 0}, {"type": "note_off", "time": 818, "note": 68, "velocity": 115, "channel": 0}, {"type": "note_on", "time": 0, "note": 65, "velocity": 106, "channel": 0}, {"type": "note_off", "time": 264, "note": 65, "velocity": 106, "channel": 0}, {"type": "note_on", "time": 15, "note": 61, "velocity": 102, "channel": 0}, {"type": "note_off", "time": 108, "note": 61, "velocity": 102, "channel": 0}, {"type": "note_on", "time": 57, "note": 58, "velocity": 97, "channel": 0}, {"type": "note_off", "time": 207, "note": 58, "velocity": 97, "channel": 0}, {"type": "note_on", "time": 135, "note": 63, "velocity": 117, "channel": 0}, {"type": "note_off", "time": 321, "note": 63, "velocity": 117, "channel": 0}, {"type": "note_on", "time": 15, "note": 57, "velocity": 107, "channel": 0}, {"type": "note_off", "time": 403, "note": 57, "velocity": 107, "channel": 0}, {"type": "note_on", "time": 44, "note": 65, "velocity": 105, "channel": 0}, {"type": "note_off", "time": 892, "note": 65, "velocity": 105, "channel": 0}, {"type": "note_on", "time": 14, "note": 63, "velocity": 114, "channel": 0}, {"type": "note_off", "time": 306, "note": 63, "velocity": 114, "channel": 0}, {"type": "note_on", "time": 142, "note": 61, "velocity": 106, "channel": 0}, {"type": "note_off", "time": 557, "note": 61, "velocity": 106, "channel": 0}, {"type": "note_on", "time": 96, "note": 58, "velocity": 82, "channel": 0}, {"type": "note_off", "time": 1432, "note": 58, "velocity": 82, "channel": 0}, {"type": "note_on", "time": 1076, "note": 65, "velocity": 121, "channel": 0}, {"type": "note_off", "time": 306, "note": 65, "velocity": 121, "channel": 0}, {"type": "note_on", "time": 38, "note": 60, "velocity": 109, "channel": 0}, {"type": "note_off", "time": 264, "note": 60, "velocity": 109, "channel": 0}, {"type": "note_on", "time": 35, "note": 65, "velocity": 117, "channel": 0}, {"type": "note_off", "time": 349, "note": 65, "velocity": 117, "channel": 0}, {"type": "note_on", "time": 77, "note": 67, "velocity": 122, "channel": 0}, {"type": "note_off", "time": 335, "note": 67, "velocity": 122, "channel": 0}, {"type": "note_on", "time": 13, "note": 68, "velocity": 121, "channel": 0}, {"type": "note_off", "time": 245, "note": 68, "velocity": 121, "channel": 0}, {"type": "note_on", "time": 7, "note": 67, "velocity": 123, "channel": 0}, {"type": "note_off", "time": 564, "note": 67, "velocity": 123, "channel": 0}, {"type": "note_on", "time": 14, "note": 65, "velocity": 117, "channel": 0}, {"type": "note_off", "time": 392, "note": 65, "velocity": 117, "channel": 0}, {"type": "note_on", "time": 38, "note": 64, "velocity": 123, "channel": 0}, {"type": "note_off", "time": 700, "note": 64, "velocity": 123, "channel": 0}, {"type": "note_on", "time": 19, "note": 67, "velocity": 109, "channel": 0}, {"type": "note_off", "time": 139, "note": 67, "velocity": 109, "channel": 0}, {"type": "note_on", "time": 15, "note": 71, "velocity": 108, "channel": 0}, {"type": "note_off", "time": 137, "note": 71, "velocity": 108, "channel": 0}, {"type": "note_on", "time": 7, "note": 74, "velocity": 98, "channel": 0}, {"type": "note_off", "time": 140, "note": 74, "velocity": 98, "channel": 0}, {"type": "note_on", "time": 15, "note": 71, "velocity": 116, "channel": 0}, {"type": "note_off", "time": 201, "note": 71, "velocity": 116, "channel": 0}, {"type": "note_on", "time": 20, "note": 74, "velocity": 99, "channel": 0}, {"type": "note_off", "time": 110, "note": 74, "velocity": 99, "channel": 0}, {"type": "note_on", "time": 24, "note": 71, "velocity": 95, "channel": 0}, {"type": "note_off", "time": 630, "note": 71, "velocity": 95, "channel": 0}, {"type": "note_on", "time": 79, "note": 67, "velocity": 93, "channel": 0}, {"type": "note_off", "time": 150, "note": 67, "velocity": 93, "channel": 0}, {"type": "note_on", "time": 5, "note": 71, "velocity": 100, "channel": 0}, {"type": "note_off", "time": 177, "note": 71, "velocity": 100, "channel": 0}, {"type": "note_on", "time": 17, "note": 67, "velocity": 105, "channel": 0}, {"type": "note_off", "time": 114, "note": 67, "velocity": 105, "channel": 0}, {"type": "note_on", "time": 52, "note": 64, "velocity": 113, "channel": 0}, {"type": "note_off", "time": 635, "note": 64, "velocity": 113, "channel": 0}, {"type": "note_on", "time": 71, "note": 64, "velocity": 97, "channel": 0}, {"type": "note_off", "time": 121, "note": 64, "velocity": 97, "channel": 0}, {"type": "note_on", "time": 21, "note": 66, "velocity": 101, "channel": 0}, {"type": "note_off", "time": 131, "note": 66, "velocity": 101, "channel": 0}, {"type": "note_on", "time": 17, "note": 64, "velocity": 107, "channel": 0}, {"type": "note_off", "time": 93, "note": 64, "velocity": 107, "channel": 0}, {"type": "note_on", "time": 72, "note": 63, "velocity": 104, "channel": 0}, {"type": "note_off", "time": 535, "note": 63, "velocity": 104, "channel": 0}, {"type": "note_on", "time": 50, "note": 66, "velocity": 86, "channel": 0}, {"type": "note_off", "time": 148, "note": 66, "velocity": 86, "channel": 0}, {"type": "note_on", "time": 34, "note": 63, "velocity": 94, "channel": 0}, {"type": "note_off", "time": 131, "note": 63, "velocity": 94, "channel": 0}, {"type": "note_on", "time": 49, "note": 59, "velocity": 84, "channel": 0}, {"type": "note_off", "time": 142, "note": 59, "velocity": 84, "channel": 0}, {"type": "end_of_track", "time": 0}]]}