{"ticks_per_beat": 5040, "tracks": [[{"type": "track_name", "name": "Melody", "time": 0}, {"type": "set_tempo", "tempo": 1000000, "time": 0}, {"type": "key_signature", "key": "Db", "time": 0}, {"type": "time_signature", "numerator": 4, "denominator": 4, "clocks_per_click": 24, "notated_32nd_notes_per_beat": 8, "time": 0}, {"type": "note_on", "time": 45808, "note": 54, "velocity": 107, "channel": 0}, {"type": "note_off", "time": 1170, "note": 54, "velocity": 107, "channel": 0}, {"type": "note_on", "time": 124, "note": 57, "velocity": 100, "channel": 0}, {"type": "note_off", "time": 1404, "note": 57, "velocity": 100, "channel": 0}, {"type": "note_on", "time": 179, "note": 55, "velocity": 109, "channel": 0}, {"type": "note_off", "time": 1193, "note": 55, "velocity": 109, "channel": 0}, {"type": "note_on", "time": 473, "note": 61, "velocity": 110, "channel": 0}, {"type": "note_off", "time": 1265, "note": 61, "velocity": 110, "channel": 0}, {"type": "note_on", "time": 133, "note": 57, "velocity": 95, "channel": 0}, {"type": "note_off", "time": 1345, "note": 57, "velocity": 95, "channel": 0}, {"type": "note_on", "time": 135, "note": 64, "velocity": 113, "channel": 0}, {"type": "note_off", "time": 1491, "note": 64, "velocity": 113, "channel": 0}, {"type": "note_on", "time": 102, "note": 66, "velocity": 102, "channel": 0}, {"type": "note_off", "time": 1326, "note": 66, "velocity": 102, "channel": 0}, {"type": "note_on", "time": 123, "note": 69, "velocity": 101, "channel": 0}, {"type": "note_off", "time": 2592, "note": 69, "velocity": 101, "channel": 0}, {"type": "note_on", "time": 34, "note": 71, "velocity": 92, "channel": 0}, {"type": "note_off", "time": 354, "note": 71, "velocity": 92, "channel": 0}, {"type": "note_on", "time": 58, "note": 73, "velocity": 96, "channel": 0}, {"type": "note_off", "time": 1173, "note": 73, "velocity": 96, "channel": 0}, {"type": "note_on", "time": 64, "note": 69, "velocity": 103, "channel": 0}, {"type": "note_off", "time": 1152, "note": 69, "velocity": 103, "channel": 0}, {"type": "note_on", "time": 483, "note": 72, "velocity": 92, "channel": 0}, {"type": "note_off", "time": 292, "note": 72, "velocity": 92, "channel": 0}, {"type": "note_on", "time": 109, "note": 73, "velocity": 96, "channel": 0}, {"type": "note_off", "time": 958, "note": 73, "velocity": 96, "channel": 0}, {"type": "note_on", "time": 27, "note": 69, "velocity": 105, "channel": 0}, {"type": "note_off", "time": 1810, "note": 69, "velocity": 105, "channel": 0}, {"type": "note_on", "time": 246, "note": 69, "velocity": 102, "channel": 0}, {"type": "note_off", "time": 1429, "note": 69, "velocity": 102, "channel": 0}, {"type": "note_on", "time": 298, "note": 69, "velocity": 102, "channel": 0}, {"type": "note_off", "time": 1193, "note": 69, "velocity": 102, "channel": 0}, {"type": "note_on", "time": 308, "note": 66, "velocity": 102, "channel": 0}, {"type": "note_off", "time": 1830, "note": 66, "velocity": 102, "channel": 0}, {"type": "note_on", "time": 123, "note": 65, "velocity": 100, "channel": 0}, {"type": "note_off", "time": 1573, "note": 65, "velocity": 100, "channel": 0}, {"type": "note_on", "time": 174, "note": 66, "velocity": 96, "channel": 0}, {"type": "note_off", "time": 2252, "note": 66, "velocity": 96, "channel": 0}, {"type": "note_on", "time": 699, "note": 61, "velocity": 101, "channel": 0}, {"type": "note_off", "time": 565, "note": 61, "velocity": 101, "channel": 0}, {"type": "note_on", "time": 92, "note": 64, "velocity": 110, "channel": 0}, {"type": "note_off", "time": 819, "note": 64, "velocity": 110, "channel": 0}, {"type": "note_on", "time": 13, "note": 62, "velocity": 100, "channel": 0}, {"type": "note_off", "time": 658, "note": 62, "velocity": 100, "channel": 0}, {"type": "note_on", "time": 30, "note": 64, "velocity": 102, "channel": 0}, {"type": "note_off", "time": 760, "note": 64, "velocity": 102, "channel": 0}, {"type": "note_on", "time": 141, "note": 66, "velocity": 101, "channel": 0}, {"type": "note_off", "time": 1930, "note": 66, "velocity": 101, "channel": 0}, {"type": "note_on", "time": 3492, "note": 66, "velocity": 104, "channel": 0}, {"type": "note_off", "time": 390, "note": 66, "velocity": 104, "channel": 0}, {"type": "note_on", "time": 41, "note": 67, "velocity": 109, "channel": 0}, {"type": "note_off", "time": 1681, "note": 67, "velocity": 109, "channel": 0}, {"type": "note_on", "time": 51, "note": 69, "velocity": 109, "channel": 0}, {"type": "note_off", "time": 678, "note": 69, "velocity": 109, "channel": 0}, {"type": "note_on", "time": 77, "note": 70, "velocity": 107, "channel": 0}, {"type": "note_off", "time": 653, "note": 70, "velocity": 107, "channel": 0}, {"type": "note_on", "time": 87, "note": 72, "velocity": 96, "channel": 0}, {"type": "note_off", "time": 828, "note": 72, "velocity": 96, "channel": 0}, {"type": "note_on", "time": 46, "note": 69, "velocity": 109, "channel": 0}, {"type": "note_off", "time": 2273, "note": 69, "velocity": 109, "channel": 0}, {"type": "note_on", "time": 164, "note": 70, "velocity": 105, "channel": 0}, {"type": "note_off", "time": 1023, "note": 70, "velocity": 105, "channel": 0}, {"type": "note_on", "time": 52, "note": 69, "velocity": 96, "channel": 0}, {"type": "note_off", "time": 6239, "note": 69, "velocity": 96, "channel": 0}, {"type": "note_on", "time": 186, "note": 72, "velocity": 89, "channel": 0}, {"type": "note_off", "time": 343, "note": 72, "velocity": 89, "channel": 0}, {"type": "note_on", "time": 51, "note": 73, "velocity": 87, "channel": 0}, {"type": "note_off", "time": 1312, "note": 73, "velocity": 87, "channel": 0}, {"type": "note_on", "time": 88, "note": 67, "velocity": 98, "channel": 0}, {"type": "note_off", "time": 1667, "note": 67, "velocity": 98, "channel": 0}, {"type": "note_on", "time": 101, "note": 66, "velocity": 101, "channel": 0}, {"type": "note_off", "time": 2018, "note": 66, "velocity": 101, "channel": 0}, {"type": "note_on", "time": 102, "note": 64, "velocity": 102, "channel": 0}, {"type": "note_off", "time": 2223, "note": 64, "velocity": 102, "channel": 0}, {"type": "note_on", "time": 73, "note": 69, "velocity": 95, "channel": 0}, {"type": "note_off", "time": 468, "note": 69, "velocity": 95, "channel": 0}, {"type": "note_on", "time": 87, "note": 71, "velocity": 83, "channel": 0}, {"type": "note_off", "time": 6941, "note": 71, "velocity": 83, "channel": 0}, {"type": "note_on", "time": 47, "note": 69, "velocity": 92, "channel": 0}, {"type": "note_off", "time": 2509, "note": 69, "velocity": 92, "channel": 0}, {"type": "note_on", "time": 92, "note": 66, "velocity": 92, "channel": 0}, {"type": "note_off", "time": 3456, "note": 66, "velocity": 92, "channel": 0}, {"type": "note_on", "time": 3682, "note": 64, "velocity": 116, "channel": 0}, {"type": "note_off", "time": 2340, "note": 64, "velocity": 116, "channel": 0}, {"type": "note_on", "time": 148, "note": 61, "velocity": 106, "channel": 0}, {"type": "note_off", "time": 2428, "note": 61, "velocity": 106, "channel": 0}, {"type": "note_on", "time": 50, "note": 57, "velocity": 98, "channel": 0}, {"type": "note_off", "time": 2106, "note": 57, "velocity": 98, "channel": 0}, {"type": "note_on", "time": 238, "note": 56, "velocity": 105, "channel": 0}, {"type": "note_off", "time": 263, "note": 56, "velocity": 105, "channel": 0}, {"type": "note_on", "time": 58, "note": 57, "velocity": 100, "channel": 0}, {"type": "note_off", "time": 2040, "note": 57, "velocity": 100, "channel": 0}, {"type": "note_on", "time": 190, "note": 55, "velocity": 106, "channel": 0}, {"type": "note_off", "time": 2428, "note": 55, "velocity": 106, "channel": 0}, {"type": "note_on", "time": 131, "note": 53, "velocity": 99, "channel": 0}, {"type": "note_off", "time": 4289, "note": 53, "velocity": 99, "channel": 0}, {"type": "note_on", "time": 442, "note": 55, "velocity": 107, "channel": 0}, {"type": "note_off", "time": 1758, "note": 55, "velocity": 107, "channel": 0}, {"type": "note_on", "time": 246, "note": 55, "velocity": 106, "channel": 0}, {"type": "note_off", "time": 1347, "note": 55, "velocity": 106, "channel": 0}, {"type": "note_on", "time": 202, "note": 52, "velocity": 103, "channel": 0}, {"type": "note_off", "time": 1689, "note": 52, "velocity": 103, "channel": 0}, {"type": "note_on", "time": 133, "note": 50, "velocity": 99, "channel": 0}, {"type": "note_off", "time": 1635, "note": 50, "velocity": 99, "channel": 0}, {"type": "note_on", "time": 174, "note": 47, "velocity": 100, "channel": 0}, {"type": "note_off", "time": 1522, "note": 47, "velocity": 100, "channel": 0}, {"type": "note_on", "time": 92, "note": 50, "velocity": 95, "channel": 0}, {"type": "note_off", "time": 1805, "note": 50, "velocity": 95, "channel": 0}, {"type": "note_on", "time": 159, "note": 45, "velocity": 101, "channel": 0}, {"type": "note_off", "time": 3846, "note": 45, "velocity": 101, "channel": 0}, {"type": "note_on", "time": 586, "note": 57, "velocity": 96, "channel": 0}, {"type": "note_off", "time": 1813, "note": 57, "velocity": 96, "channel": 0}, {"type": "note_on", "time": 150, "note": 54, "velocity": 105, "channel": 0}, {"type": "note_off", "time": 1357, "note": 54, "velocity": 105, "channel": 0}, {"type": "note_on", "time": 133, "note": 55, "velocity": 94, "channel": 0}, {"type": "note_off", "time": 4155, "note": 55, "velocity": 94, "channel": 0}, {"type": "note_on", "time": 406, "note": 57, "velocity": 99, "channel": 0}, {"type": "note_off", "time": 673, "note": 57, "velocity": 99, "channel": 0}, {"type": "note_on", "time": 82, "note": 58, "velocity": 101, "channel": 0}, {"type": "note_off", "time": 833, "note": 58, "velocity": 101, "channel": 0}, {"type": "note_on", "time": 30, "note": 64, "velocity": 113, "channel": 0}, {"type": "note_off", "time": 684, "note": 64, "velocity": 113, "channel": 0}, {"type": "note_on", "time": 113, "note": 65, "velocity": 104, "channel": 0}, {"type": "note_off", "time": 735, "note": 65, "velocity": 104, "channel": 0}, {"type": "note_on", "time": 195, "note": 69, "velocity": 109, "channel": 0}, {"type": "note_off", "time": 843, "note": 69, "velocity": 109, "channel": 0}, {"type": "note_on", "time": 432, "note": 72, "velocity": 105, "channel": 0}, {"type": "note_off", "time": 889, "note": 72, "velocity": 105, "channel": 0}, {"type": "note_on", "time": 56, "note": 73, "velocity": 102, "channel": 0}, {"type": "note_off", "time": 827, "note": 73, "velocity": 102, "channel": 0}, {"type": "note_on", "time": 77, "note": 70, "velocity": 102, "channel": 0}, {"type": "note_off", "time": 843, "note": 70, "velocity": 102, "channel": 0}, {"type": "note_on", "time": 473, "note": 65, "velocity": 106, "channel": 0}, {"type": "note_off", "time": 730, "note": 65, "velocity": 106, "channel": 0}, {"type": "note_on", "time": 277, "note": 70, "velocity": 95, "channel": 0}, {"type": "note_off", "time": 802, "note": 70, "velocity": 95, "channel": 0}, {"type": "note_on", "time": 164, "note": 69, "velocity": 95, "channel": 0}, {"type": "note_off", "time": 1825, "note": 69, "velocity": 95, "channel": 0}, {"type": "note_on", "time": 92, "note": 64, "velocity": 99, "channel": 0}, {"type": "note_off", "time": 838, "note": 64, "velocity": 99, "channel": 0}, {"type": "note_on", "time": 72, "note": 67, "velocity": 86, "channel": 0}, {"type": "note_off", "time": 1974, "note": 67, "velocity": 86, "channel": 0}, {"type": "note_on", "time": 359, "note": 65, "velocity": 99, "channel": 0}, {"type": "note_off", "time": 1275, "note": 65, "velocity": 99, "channel": 0}, {"type": "note_on", "time": 468, "note": 57, "velocity": 97, "channel": 0}, {"type": "note_off", "time": 1879, "note": 57, "velocity": 97, "channel": 0}, {"type": "note_on", "time": 212, "note": 64, "velocity": 98, "channel": 0}, {"type": "note_off", "time": 3189, "note": 64, "velocity": 98, "channel": 0}, {"type": "note_on", "time": 73, "note": 62, "velocity": 89, "channel": 0}, {"type": "note_off", "time": 2889, "note": 62, "velocity": 89, "channel": 0}, {"type": "note_on", "time": 586, "note": 59, "velocity": 91, "channel": 0}, {"type": "note_off", "time": 1409, "note": 59, "velocity": 91, "channel": 0}, {"type": "note_on", "time": 213, "note": 55, "velocity": 95, "channel": 0}, {"type": "note_off", "time": 4725, "note": 55, "velocity": 95, "channel": 0}, {"type": "note_on", "time": 109, "note": 54, "velocity": 94, "channel": 0}, {"type": "note_off", "time": 5185, "note": 54, "velocity": 94, "channel": 0}, {"type": "note_on", "time": 95, "note": 53, "velocity": 93, "channel": 0}, {"type": "note_off", "time": 2830, "note": 53, "velocity": 93, "channel": 0}, {"type": "note_on", "time": 87, "note": 58, "velocity": 82, "channel": 0}, {"type": "note_off", "time": 7723, "note": 58, "velocity": 82, "channel": 0}, {"type": "note_on", "time": 7102, "note": 51, "velocity": 104, "channel": 0}, {"type": "note_off", "time": 1170, "note": 51, "velocity": 104, "channel": 0}, {"type": "note_on", "time": 329, "note": 53, "velocity": 107, "channel": 0}, {"type": "note_off", "time": 921, "note": 53, "velocity": 107, "channel": 0}, {"type": "note_on", "time": 168, "note": 51, "velocity": 104, "channel": 0}, {"type": "note_off", "time": 746, "note": 51, "velocity": 104, "channel": 0}, {"type": "note_on", "time": 168, "note": 53, "velocity": 108, "channel": 0}, {"type": "note_off", "time": 797, "note": 53, "velocity": 108, "channel": 0}, {"type": "note_on", "time": 124, "note": 51, "velocity": 101, "channel": 0}, {"type": "note_off", "time": 650, "note": 51, "velocity": 101, "channel": 0}, {"type": "note_on", "time": 270, "note": 53, "velocity": 105, "channel": 0}, {"type": "note_off", "time": 804, "note": 53, "velocity": 105, "channel": 0}, {"type": "note_on", "time": 131, "note": 51, "velocity": 105, "channel": 0}, {"type": "note_off", "time": 672, "note": 51, "velocity": 105, "channel": 0}, {"type": "note_on", "time": 380, "note": 53, "velocity": 119, "channel": 0}, {"type": "note_off", "time": 658, "note": 53, "velocity": 119, "channel": 0}, {"type": "note_on", "time": 124, "note": 51, "velocity": 104, "channel": 0}, {"type": "note_off", "time": 782, "note": 51, "velocity": 104, "channel": 0}, {"type": "note_on", "time": 533, "note": 53, "velocity": 112, "channel": 0}, {"type": "note_off", "time": 819, "note": 53, "velocity": 112, "channel": 0}, {"type": "note_on", "time": 204, "note": 51, "velocity": 108, "channel": 0}, {"type": "note_off", "time": 899, "note": 51, "velocity": 108, "channel": 0}, {"type": "note_on", "time": 160, "note": 50, "velocity": 110, "channel": 0}, {"type": "note_off", "time": 563, "note": 50, "velocity": 110, "channel": 0}, {"type": "note_on", "time": 190, "note": 51, "velocity": 109, "channel": 0}, {"type": "note_off", "time": 636, "note": 51, "velocity": 109, "channel": 0}, {"type": "note_on", "time": 402, "note": 53, "velocity": 113, "channel": 0}, {"type": "note_off", "time": 972, "note": 53, "velocity": 113, "channel": 0}, {"type": "note_on", "time": 160, "note": 51, "velocity": 106, "channel": 0}, {"type": "note_off", "time": 1126, "note": 51, "velocity": 106, "channel": 0}, {"type": "note_on", "time": 175, "note": 46, "velocity": 109, "channel": 0}, {"type": "note_off", "time": 1601, "note": 46, "velocity": 109, "channel": 0}, {"type": "note_on", "time": 81, "note": 55, "velocity": 103, "channel": 0}, {"type": "note_off", "time": 298, "note": 55, "velocity": 103, "channel": 0}, {"type": "note_on", "time": 36, "note": 58, "velocity": 99, "channel": 0}, {"type": "note_off", "time": 5281, "note": 58, "velocity": 99, "channel": 0}, {"type": "note_on", "time": 1410, "note": 50, "velocity": 101, "channel": 0}, {"type": "note_off", "time": 349, "note": 50, "velocity": 101, "channel": 0}, {"type": "note_on", "time": 36, "note": 52, "velocity": 99, "channel": 0}, {"type": "note_off", "time": 329, "note": 52, "velocity": 99, "channel": 0}, {"type": "note_on", "time": 94, "note": 54, "velocity": 102, "channel": 0}, {"type": "note_off", "time": 420, "note": 54, "velocity": 102, "channel": 0}, {"type": "note_on", "time": 36, "note": 58, "velocity": 101, "channel": 0}, {"type": "note_off", "time": 471, "note": 58, "velocity": 101, "channel": 0}, {"type": "note_on", "time": 58, "note": 57, "velocity": 105, "channel": 0}, {"type": "note_off", "time": 453, "note": 57, "velocity": 105, "channel": 0}, {"type": "note_on", "time": 87, "note": 56, "velocity": 106, "channel": 0}, {"type": "note_off", "time": 585, "note": 56, "velocity": 106, "channel": 0}, {"type": "note_on", "time": 65, "note": 60, "velocity": 101, "channel": 0}, {"type": "note_off", "time": 607, "note": 60, "velocity": 101, "channel": 0}, {"type": "note_on", "time": 215, "note": 56, "velocity": 110, "channel": 0}, {"type": "note_off", "time": 508, "note": 56, "velocity": 110, "channel": 0}, {"type": "note_on", "time": 47, "note": 58, "velocity": 101, "channel": 0}, {"type": "note_off", "time": 351, "note": 58, "velocity": 101, "channel": 0}, {"type": "note_on", "time": 40, "note": 60, "velocity": 104, "channel": 0}, {"type": "note_off", "time": 501, "note": 60, "velocity": 104, "channel": 0}, {"type": "note_on", "time": 299, "note": 64, "velocity": 102, "channel": 0}, {"type": "note_off", "time": 292, "note": 64, "velocity": 102, "channel": 0}, {"type": "note_on", "time": 36, "note": 66, "velocity": 98, "channel": 0}, {"type": "note_off", "time": 256, "note": 66, "velocity": 98, "channel": 0}, {"type": "note_on", "time": 43, "note": 68, "velocity": 94, "channel": 0}, {"type": "note_off", "time": 362, "note": 68, "velocity": 94, "channel": 0}, {"type": "note_on", "time": 58, "note": 72, "velocity": 82, "channel": 0}, {"type": "note_off", "time": 625, "note": 72, "velocity": 82, "channel": 0}, {"type": "note_on", "time": 84, "note": 66, "velocity": 105, "channel": 0}, {"type": "note_off", "time": 1620, "note": 66, "velocity": 105, "channel": 0}, {"type": "note_on", "time": 248, "note": 68, "velocity": 86, "channel": 0}, {"type": "note_off", "time": 826, "note": 68, "velocity": 86, "channel": 0}, {"type": "note_on", "time": 279, "note": 65, "velocity": 86, "channel": 0}, {"type": "note_off", "time": 4772, "note": 65, "velocity": 86, "channel": 0}, {"type": "note_on", "time": 4772, "note": 63, "velocity": 120, "channel": 0}, {"type": "note_off", "time": 1228, "note": 63, "velocity": 120, "channel": 0}, {"type": "note_on", "time": 217, "note": 61, "velocity": 116, "channel": 0}, {"type": "note_off", "time": 1316, "note": 61, "velocity": 116, "channel": 0}, {"type": "note_on", "time": 172, "note": 60, "velocity": 109, "channel": 0}, {"type": "note_off", "time": 1258, "note": 60, "velocity": 109, "channel": 0}, {"type": "note_on", "time": 208, "note": 63, "velocity": 117, "channel": 0}, {"type": "note_off", "time": 1492, "note": 63, "velocity": 117, "channel": 0}, {"type": "note_on", "time": 171, "note": 65, "velocity": 109, "channel": 0}, {"type": "note_off", "time": 1199, "note": 65, "velocity": 109, "channel": 0}, {"type": "note_on", "time": 181, "note": 68, "velocity": 110, "channel": 0}, {"type": "note_off", "time": 1287, "note": 68, "velocity": 110, "channel": 0}, {"type": "note_on", "time": 114, "note": 70, "velocity": 111, "channel": 0}, {"type": "note_off", "time": 1514, "note": 70, "velocity": 111, "channel": 0}, {"type": "note_on", "time": 73, "note": 72, "velocity": 111, "channel": 0}, {"type": "note_off", "time": 5193, "note": 72, "velocity": 111, "channel": 0}, {"type": "note_on", "time": 131, "note": 68, "velocity": 109, "channel": 0}, {"type": "note_off", "time": 1104, "note": 68, "velocity": 109, "channel": 0}, {"type": "note_on", "time": 416, "note": 68, "velocity": 108, "channel": 0}, {"type": "note_off", "time": 1572, "note": 68, "velocity": 108, "channel": 0}, {"type": "note_on", "time": 197, "note": 68, "velocity": 106, "channel": 0}, {"type": "note_off", "time": 1031, "note": 68, "velocity": 106, "channel": 0}, {"type": "note_on", "time": 343, "note": 71, "velocity": 100, "channel": 0}, {"type": "note_off", "time": 279, "note": 71, "velocity": 100, "channel": 0}, {"type": "note_on", "time": 54, "note": 73, "velocity": 104, "channel": 0}, {"type": "note_off", "time": 1568, "note": 73, "velocity": 104, "channel": 0}, {"type": "note_on", "time": 35, "note": 71, "velocity": 97, "channel": 0}, {"type": "note_off", "time": 5888, "note": 71, "velocity": 97, "channel": 0}, {"type": "note_on", "time": 191, "note": 73, "velocity": 89, "channel": 0}, {"type": "note_off", "time": 709, "note": 73, "velocity": 89, "channel": 0}, {"type": "note_on", "time": 200, "note": 75, "velocity": 78, "channel": 0}, {"type": "note_off", "time": 884, "note": 75, "velocity": 78, "channel": 0}, {"type": "note_on", "time": 246, "note": 70, "velocity": 88, "channel": 0}, {"type": "note_off", "time": 8598, "note": 70, "velocity": 88, "channel": 0}, {"type": "note_on", "time": 2552, "note": 73, "velocity": 107, "channel": 0}, {"type": "note_off", "time": 1148, "note": 73, "velocity": 107, "channel": 0}, {"type": "note_on", "time": 73, "note": 70, "velocity": 107, "channel": 0}, {"type": "note_off", "time": 1258, "note": 70, "velocity": 107, "channel": 0}, {"type": "note_on", "time": 408, "note": 66, "velocity": 112, "channel": 0}, {"type": "note_off", "time": 1717, "note": 66, "velocity": 112, "channel": 0}, {"type": "note_on", "time": 185, "note": 67, "velocity": 105, "channel": 0}, {"type": "note_off", "time": 298, "note": 67, "velocity": 105, "channel": 0}, {"type": "note_on", "time": 36, "note": 68, "velocity": 102, "channel": 0}, {"type": "note_off", "time": 2216, "note": 68, "velocity": 102, "channel": 0}, {"type": "note_on", "time": 404, "note": 65, "velocity": 10, "channel": 0}, {"type": "note_off", "time": 4388, "note": 65, "velocity": 10, "channel": 0}, {"type": "note_on", "time": 2058, "note": 60, "velocity": 115, "channel": 0}, {"type": "note_off", "time": 713, "note": 60, "velocity": 115, "channel": 0}, {"type": "note_on", "time": 65, "note": 61, "velocity": 109, "channel": 0}, {"type": "note_off", "time": 373, "note": 61, "velocity": 109, "channel": 0}, {"type": "note_on", "time": 54, "note": 63, "velocity": 112, "channel": 0}, {"type": "note_off", "time": 241, "note": 63, "velocity": 112, "channel": 0}, {"type": "note_on", "time": 33, "note": 67, "velocity": 97, "channel": 0}, {"type": "note_off", "time": 196, "note": 67, "velocity": 97, "channel": 0}, {"type": "note_on", "time": 22, "note": 69, "velocity": 99, "channel": 0}, {"type": "note_off", "time": 258, "note": 69, "velocity": 99, "channel": 0}, {"type": "note_on", "time": 45, "note": 71, "velocity": 100, "channel": 0}, {"type": "note_off", "time": 291, "note": 71, "velocity": 100, "channel": 0}, {"type": "note_on", "time": 40, "note": 67, "velocity": 104, "channel": 0}, {"type": "note_off", "time": 453, "note": 67, "velocity": 104, "channel": 0}, {"type": "note_on", "time": 62, "note": 68, "velocity": 102, "channel": 0}, {"type": "note_off", "time": 358, "note": 68, "velocity": 102, "channel": 0}, {"type": "note_on", "time": 47, "note": 69, "velocity": 107, "channel": 0}, {"type": "note_off", "time": 526, "note": 69, "velocity": 107, "channel": 0}, {"type": "note_on", "time": 258, "note": 60, "velocity": 100, "channel": 0}, {"type": "note_off", "time": 241, "note": 60, "velocity": 100, "channel": 0}, {"type": "note_on", "time": 80, "note": 63, "velocity": 111, "channel": 0}, {"type": "note_off", "time": 306, "note": 63, "velocity": 111, "channel": 0}, {"type": "note_on", "time": 42, "note": 67, "velocity": 107, "channel": 0}, {"type": "note_off", "time": 372, "note": 67, "velocity": 107, "channel": 0}, {"type": "note_on", "time": 118, "note": 64, "velocity": 113, "channel": 0}, {"type": "note_off", "time": 329, "note": 64, "velocity": 113, "channel": 0}, {"type": "note_on", "time": 72, "note": 65, "velocity": 114, "channel": 0}, {"type": "note_off", "time": 422, "note": 65, "velocity": 114, "channel": 0}, {"type": "note_on", "time": 95, "note": 66, "velocity": 113, "channel": 0}, {"type": "note_off", "time": 292, "note": 66, "velocity": 113, "channel": 0}, {"type": "note_on", "time": 117, "note": 69, "velocity": 96, "channel": 0}, {"type": "note_off", "time": 316, "note": 69, "velocity": 96, "channel": 0}, {"type": "note_on", "time": 42, "note": 66, "velocity": 117, "channel": 0}, {"type": "note_off", "time": 470, "note": 66, "velocity": 117, "channel": 0}, {"type": "note_on", "time": 72, "note": 65, "velocity": 114, "channel": 0}, {"type": "note_off", "time": 364, "note": 65, "velocity": 114, "channel": 0}, {"type": "note_on", "time": 22, "note": 64, "velocity": 115, "channel": 0}, {"type": "note_off", "time": 274, "note": 64, "velocity": 115, "channel": 0}, {"type": "note_on", "time": 52, "note": 63, "velocity": 112, "channel": 0}, {"type": "note_off", "time": 492, "note": 63, "velocity": 112, "channel": 0}, {"type": "note_on", "time": 282, "note": 69, "velocity": 92, "channel": 0}, {"type": "note_off", "time": 318, "note": 69, "velocity": 92, "channel": 0}, {"type": "note_on", "time": 98, "note": 65, "velocity": 107, "channel": 0}, {"type": "note_off", "time": 563, "note": 65, "velocity": 107, "channel": 0}, {"type": "note_on", "time": 58, "note": 61, "velocity": 96, "channel": 0}, {"type": "note_off", "time": 254, "note": 61, "velocity": 96, "channel": 0}, {"type": "note_on", "time": 65, "note": 60, "velocity": 107, "channel": 0}, {"type": "note_off", "time": 570, "note": 60, "velocity": 107, "channel": 0}, {"type": "note_on", "time": 65, "note": 58, "velocity": 106, "channel": 0}, {"type": "note_off", "time": 437, "note": 58, "velocity": 106, "channel": 0}, {"type": "note_on", "time": 135, "note": 53, "velocity": 96, "channel": 0}, {"type": "note_off", "time": 365, "note": 53, "velocity": 96, "channel": 0}, {"type": "note_on", "time": 126, "note": 56, "velocity": 108, "channel": 0}, {"type": "note_off", "time": 266, "note": 56, "velocity": 108, "channel": 0}, {"type": "note_on", "time": 40, "note": 57, "velocity": 105, "channel": 0}, {"type": "note_off", "time": 475, "note": 57, "velocity": 105, "channel": 0}, {"type": "note_on", "time": 196, "note": 63, "velocity": 99, "channel": 0}, {"type": "note_off", "time": 389, "note": 63, "velocity": 99, "channel": 0}, {"type": "note_on", "time": 27, "note": 60, "velocity": 95, "channel": 0}, {"type": "note_off", "time": 485, "note": 60, "velocity": 95, "channel": 0}, {"type": "note_on", "time": 429, "note": 58, "velocity": 103, "channel": 0}, {"type": "note_off", "time": 514, "note": 58, "velocity": 103, "channel": 0}, {"type": "note_on", "time": 14, "note": 55, "velocity": 108, "channel": 0}, {"type": "note_off", "time": 603, "note": 55, "velocity": 108, "channel": 0}, {"type": "note_on", "time": 91, "note": 51, "velocity": 99, "channel": 0}, {"type": "note_off", "time": 555, "note": 51, "velocity": 99, "channel": 0}, {"type": "note_on", "time": 377, "note": 55, "velocity": 103, "channel": 0}, {"type": "note_off", "time": 522, "note": 55, "velocity": 103, "channel": 0}, {"type": "note_on", "time": 36, "note": 57, "velocity": 104, "channel": 0}, {"type": "note_off", "time": 943, "note": 57, "velocity": 104, "channel": 0}, {"type": "note_on", "time": 51, "note": 54, "velocity": 99, "channel": 0}, {"type": "note_off", "time": 176, "note": 54, "velocity": 99, "channel": 0}, {"type": "note_on", "time": 25, "note": 51, "velocity": 100, "channel": 0}, {"type": "note_off", "time": 442, "note": 51, "velocity": 100, "channel": 0}, {"type": "note_on", "time": 67, "note": 48, "velocity": 102, "channel": 0}, {"type": "note_off", "time": 389, "note": 48, "velocity": 102, "channel": 0}, {"type": "note_on", "time": 35, "note": 46, "velocity": 109, "channel": 0}, {"type": "note_off", "time": 526, "note": 46, "velocity": 109, "channel": 0}, {"type": "note_on", "time": 29, "note": 45, "velocity": 110, "channel": 0}, {"type": "note_off", "time": 1755, "note": 45, "velocity": 110, "channel": 0}, {"type": "note_on", "time": 3386, "note": 63, "velocity": 109, "channel": 0}, {"type": "note_off", "time": 614, "note": 63, "velocity": 109, "channel": 0}, {"type": "note_on", "time": 36, "note": 65, "velocity": 112, "channel": 0}, {"type": "note_off", "time": 1404, "note": 65, "velocity": 112, "channel": 0}, {"type": "note_on", "time": 241, "note": 58, "velocity": 103, "channel": 0}, {"type": "note_off", "time": 1009, "note": 58, "velocity": 103, "channel": 0}, {"type": "note_on", "time": 175, "note": 61, "velocity": 119, "channel": 0}, {"type": "note_off", "time": 1967, "note": 61, "velocity": 119, "channel": 0}, {"type": "note_on", "time": 153, "note": 61, "velocity": 106, "channel": 0}, {"type": "note_off", "time": 2691, "note": 61, "velocity": 106, "channel": 0}, {"type": "note_on", "time": 2259, "note": 63, "velocity": 124, "channel": 0}, {"type": "note_off", "time": 1152, "note": 63, "velocity": 124, "channel": 0}, {"type": "note_on", "time": 205, "note": 65, "velocity": 122, "channel": 0}, {"type": "note_off", "time": 1172, "note": 65, "velocity": 122, "channel": 0}, {"type": "note_on", "time": 133, "note": 66, "velocity": 121, "channel": 0}, {"type": "note_off", "time": 1419, "note": 66, "velocity": 121, "channel": 0}, {"type": "note_on", "time": 190, "note": 68, "velocity": 117, "channel": 0}, {"type": "note_off", "time": 1944, "note": 68, "velocity": 117, "channel": 0}, {"type": "note_on", "time": 195, "note": 68, "velocity": 117, "channel": 0}, {"type": "note_off", "time": 1254, "note": 68, "velocity": 117, "channel": 0}, {"type": "note_on", "time": 87, "note": 71, "velocity": 115, "channel": 0}, {"type": "note_off", "time": 1002, "note": 71, "velocity": 115, "channel": 0}, {"type": "note_on", "time": 72, "note": 69, "velocity": 111, "channel": 0}, {"type": "note_off", "time": 946, "note": 69, "velocity": 111, "channel": 0}, {"type": "note_on", "time": 478, "note": 75, "velocity": 127, "channel": 0}, {"type": "note_off", "time": 3525, "note": 75, "velocity": 127, "channel": 0}, {"type": "note_on", "time": 175, "note": 71, "velocity": 105, "channel": 0}, {"type": "note_off", "time": 4096, "note": 71, "velocity": 105, "channel": 0}, {"type": "note_on", "time": 73, "note": 69, "velocity": 92, "channel": 0}, {"type": "note_off", "time": 19192, "note": 69, "velocity": 92, "channel": 0}, {"type": "note_on", "time": 3481, "note": 68, "velocity": 112, "channel": 0}, {"type": "note_off", "time": 936, "note": 68, "velocity": 112, "channel": 0}, {"type": "note_on", "time": 146, "note": 65, "velocity": 112, "channel": 0}, {"type": "note_off", "time": 936, "note": 65, "velocity": 112, "channel": 0}, {"type": "note_on", "time": 175, "note": 72, "velocity": 96, "channel": 0}, {"type": "note_off", "time": 1141, "note": 72, "velocity": 96, "channel": 0}, {"type": "note_on", "time": 0, "note": 68, "velocity": 104, "channel": 0}, {"type": "note_off", "time": 1141, "note": 68, "velocity": 104, "channel": 0}, {"type": "note_on", "time": 0, "note": 65, "velocity": 109, "channel": 0}, {"type": "note_off", "time": 1053, "note": 65, "velocity": 109, "channel": 0}, {"type": "note_on", "time": 95, "note": 68, "velocity": 97, "channel": 0}, {"type": "note_off", "time": 1199, "note": 68, "velocity": 97, "channel": 0}, {"type": "note_on", "time": 75, "note": 66, "velocity": 108, "channel": 0}, {"type": "note_off", "time": 1440, "note": 66, "velocity": 108, "channel": 0}, {"type": "note_on", "time": 493, "note": 58, "velocity": 104, "channel": 0}, {"type": "note_off", "time": 1013, "note": 58, "velocity": 104, "channel": 0}, {"type": "note_on", "time": 133, "note": 65, "velocity": 106, "channel": 0}, {"type": "note_off", "time": 1424, "note": 65, "velocity": 106, "channel": 0}, {"type": "note_on", "time": 97, "note": 63, "velocity": 110, "channel": 0}, {"type": "note_off", "time": 1892, "note": 63, "velocity": 110, "channel": 0}, {"type": "note_on", "time": 72, "note": 64, "velocity": 109, "channel": 0}, {"type": "note_off", "time": 2905, "note": 64, "velocity": 109, "channel": 0}, {"type": "note_on", "time": 68, "note": 60, "velocity": 103, "channel": 0}, {"type": "note_off", "time": 3349, "note": 60, "velocity": 103, "channel": 0}, {"type": "note_on", "time": 87, "note": 61, "velocity": 95, "channel": 0}, {"type": "note_off", "time": 457, "note": 61, "velocity": 95, "channel": 0}, {"type": "note_on", "time": 47, "note": 63, "velocity": 98, "channel": 0}, {"type": "note_off", "time": 7565, "note": 63, "velocity": 98, "channel": 0}, {"type": "note_on", "time": 165, "note": 60, "velocity": 88, "channel": 0}, {"type": "note_off", "time": 54067, "note": 60, "velocity": 88, "channel": 0}, {"type": "end_of_track", "time": 0}]]}