{"ticks_per_beat": 20160, "tracks": [[{"type": "track_name", "name": "Melody", "time": 0}, {"type": "set_tempo", "tempo": 952380, "time": 0}, {"type": "key_signature", "key": "B", "time": 0}, {"type": "time_signature", "numerator": 4, "denominator": 4, "clocks_per_click": 24, "notated_32nd_notes_per_beat": 8, "time": 0}, {"type": "note_on", "time": 135680, "note": 75, "velocity": 112, "channel": 0}, {"type": "note_off", "time": 3809, "note": 75, "velocity": 112, "channel": 0}, {"type": "note_on", "time": 552, "note": 73, "velocity": 105, "channel": 0}, {"type": "note_off", "time": 4608, "note": 73, "velocity": 105, "channel": 0}, {"type": "note_on", "time": 522, "note": 71, "velocity": 105, "channel": 0}, {"type": "note_off", "time": 2119, "note": 71, "velocity": 105, "channel": 0}, {"type": "note_on", "time": 737, "note": 73, "velocity": 108, "channel": 0}, {"type": "note_off", "time": 2949, "note": 73, "velocity": 108, "channel": 0}, {"type": "note_on", "time": 1320, "note": 70, "velocity": 107, "channel": 0}, {"type": "note_off", "time": 2979, "note": 70, "velocity": 107, "channel": 0}, {"type": "note_on", "time": 614, "note": 68, "velocity": 111, "channel": 0}, {"type": "note_off", "time": 3317, "note": 68, "velocity": 111, "channel": 0}, {"type": "note_on", "time": 491, "note": 70, "velocity": 105, "channel": 0}, {"type": "note_off", "time": 3440, "note": 70, "velocity": 105, "channel": 0}, {"type": "note_on", "time": 522, "note": 66, "velocity": 108, "channel": 0}, {"type": "note_off", "time": 3409, "note": 66, "velocity": 108, "channel": 0}, {"type": "note_on", "time": 522, "note": 68, "velocity": 104, "channel": 0}, {"type": "note_off", "time": 3348, "note": 68, "velocity": 104, "channel": 0}, {"type": "note_on", "time": 153, "note": 63, "velocity": 99, "channel": 0}, {"type": "note_off", "time": 3532, "note": 63, "velocity": 99, "channel": 0}, {"type": "note_on", "time": 1044, "note": 66, "velocity": 104, "channel": 0}, {"type": "note_off", "time": 4177, "note": 66, "velocity": 104, "channel": 0}, {"type": "note_on", "time": 4708, "note": 73, "velocity": 112, "channel": 0}, {"type": "note_off", "time": 3369, "note": 73, "velocity": 112, "channel": 0}, {"type": "note_on", "time": 216, "note": 74, "velocity": 105, "channel": 0}, {"type": "note_off", "time": 3283, "note": 74, "velocity": 105, "channel": 0}, {"type": "note_on", "time": 777, "note": 69, "velocity": 113, "channel": 0}, {"type": "note_off", "time": 4406, "note": 69, "velocity": 113, "channel": 0}, {"type": "note_on", "time": 259, "note": 66, "velocity": 105, "channel": 0}, {"type": "note_off", "time": 3801, "note": 66, "velocity": 105, "channel": 0}, {"type": "note_on", "time": 518, "note": 73, "velocity": 106, "channel": 0}, {"type": "note_off", "time": 3369, "note": 73, "velocity": 106, "channel": 0}, {"type": "note_on", "time": 864, "note": 69, "velocity": 105, "channel": 0}, {"type": "note_off", "time": 2937, "note": 69, "velocity": 105, "channel": 0}, {"type": "note_on", "time": 1512, "note": 71, "velocity": 108, "channel": 0}, {"type": "note_off", "time": 6393, "note": 71, "velocity": 108, "channel": 0}, {"type": "note_on", "time": 6696, "note": 66, "velocity": 110, "channel": 0}, {"type": "note_off", "time": 2764, "note": 66, "velocity": 110, "channel": 0}, {"type": "note_on", "time": 1209, "note": 69, "velocity": 95, "channel": 0}, {"type": "note_off", "time": 2116, "note": 69, "velocity": 95, "channel": 0}, {"type": "note_on", "time": 907, "note": 62, "velocity": 96, "channel": 0}, {"type": "note_off", "time": 3024, "note": 62, "velocity": 96, "channel": 0}, {"type": "note_on", "time": 432, "note": 66, "velocity": 112, "channel": 0}, {"type": "note_off", "time": 5832, "note": 66, "velocity": 112, "channel": 0}, {"type": "note_on", "time": 86, "note": 59, "velocity": 97, "channel": 0}, {"type": "note_off", "time": 4190, "note": 59, "velocity": 97, "channel": 0}, {"type": "note_on", "time": 2505, "note": 64, "velocity": 105, "channel": 0}, {"type": "note_off", "time": 9115, "note": 64, "velocity": 105, "channel": 0}, {"type": "note_on", "time": 3931, "note": 61, "velocity": 110, "channel": 0}, {"type": "note_off", "time": 4406, "note": 61, "velocity": 110, "channel": 0}, {"type": "note_on", "time": 820, "note": 57, "velocity": 100, "channel": 0}, {"type": "note_off", "time": 5529, "note": 57, "velocity": 100, "channel": 0}, {"type": "note_on", "time": 1512, "note": 54, "velocity": 106, "channel": 0}, {"type": "note_off", "time": 8035, "note": 54, "velocity": 106, "channel": 0}, {"type": "note_on", "time": 27302, "note": 55, "velocity": 98, "channel": 0}, {"type": "note_off", "time": 9115, "note": 55, "velocity": 98, "channel": 0}, {"type": "note_on", "time": 1036, "note": 58, "velocity": 104, "channel": 0}, {"type": "note_off", "time": 9676, "note": 58, "velocity": 104, "channel": 0}, {"type": "note_on", "time": 734, "note": 60, "velocity": 98, "channel": 0}, {"type": "note_off", "time": 12614, "note": 60, "velocity": 98, "channel": 0}, {"type": "note_on", "time": 1166, "note": 63, "velocity": 110, "channel": 0}, {"type": "note_off", "time": 6912, "note": 63, "velocity": 110, "channel": 0}, {"type": "note_on", "time": 172, "note": 67, "velocity": 104, "channel": 0}, {"type": "note_off", "time": 2376, "note": 67, "velocity": 104, "channel": 0}, {"type": "note_on", "time": 388, "note": 70, "velocity": 113, "channel": 0}, {"type": "note_off", "time": 5961, "note": 70, "velocity": 113, "channel": 0}, {"type": "note_on", "time": 1166, "note": 72, "velocity": 104, "channel": 0}, {"type": "note_off", "time": 17366, "note": 72, "velocity": 104, "channel": 0}, {"type": "note_on", "time": 531, "note": 74, "velocity": 98, "channel": 0}, {"type": "note_off", "time": 2304, "note": 74, "velocity": 98, "channel": 0}, {"type": "note_on", "time": 0, "note": 76, "velocity": 107, "channel": 0}, {"type": "note_off", "time": 2549, "note": 76, "velocity": 107, "channel": 0}, {"type": "note_on", "time": 276, "note": 77, "velocity": 104, "channel": 0}, {"type": "note_off", "time": 1413, "note": 77, "velocity": 104, "channel": 0}, {"type": "note_on", "time": 307, "note": 76, "velocity": 111, "channel": 0}, {"type": "note_off", "time": 14469, "note": 76, "velocity": 111, "channel": 0}, {"type": "note_on", "time": 307, "note": 72, "velocity": 77, "channel": 0}, {"type": "note_off", "time": 1505, "note": 72, "velocity": 77, "channel": 0}, {"type": "note_on", "time": 337, "note": 74, "velocity": 90, "channel": 0}, {"type": "note_off", "time": 2519, "note": 74, "velocity": 90, "channel": 0}, {"type": "note_on", "time": 337, "note": 76, "velocity": 110, "channel": 0}, {"type": "note_off", "time": 4239, "note": 76, "velocity": 110, "channel": 0}, {"type": "note_on", "time": 92, "note": 72, "velocity": 107, "channel": 0}, {"type": "note_off", "time": 5621, "note": 72, "velocity": 107, "channel": 0}, {"type": "note_on", "time": 1075, "note": 72, "velocity": 109, "channel": 0}, {"type": "note_off", "time": 12963, "note": 72, "velocity": 109, "channel": 0}, {"type": "note_on", "time": 460, "note": 69, "velocity": 101, "channel": 0}, {"type": "note_off", "time": 1152, "note": 69, "velocity": 101, "channel": 0}, {"type": "note_on", "time": 399, "note": 70, "velocity": 99, "channel": 0}, {"type": "note_off", "time": 1536, "note": 70, "velocity": 99, "channel": 0}, {"type": "note_on", "time": 983, "note": 74, "velocity": 108, "channel": 0}, {"type": "note_off", "time": 1981, "note": 74, "velocity": 108, "channel": 0}, {"type": "note_on", "time": 307, "note": 72, "velocity": 103, "channel": 0}, {"type": "note_off", "time": 2903, "note": 72, "velocity": 103, "channel": 0}, {"type": "note_on", "time": 384, "note": 71, "velocity": 109, "channel": 0}, {"type": "note_off", "time": 3256, "note": 71, "velocity": 109, "channel": 0}, {"type": "note_on", "time": 261, "note": 76, "velocity": 99, "channel": 0}, {"type": "note_off", "time": 1766, "note": 76, "velocity": 99, "channel": 0}, {"type": "note_on", "time": 0, "note": 70, "velocity": 107, "channel": 0}, {"type": "note_off", "time": 3102, "note": 70, "velocity": 107, "channel": 0}, {"type": "note_on", "time": 2088, "note": 69, "velocity": 111, "channel": 0}, {"type": "note_off", "time": 1812, "note": 69, "velocity": 111, "channel": 0}, {"type": "note_on", "time": 552, "note": 68, "velocity": 112, "channel": 0}, {"type": "note_off", "time": 2027, "note": 68, "velocity": 112, "channel": 0}, {"type": "note_on", "time": 230, "note": 71, "velocity": 105, "channel": 0}, {"type": "note_off", "time": 3394, "note": 71, "velocity": 105, "channel": 0}, {"type": "note_on", "time": 721, "note": 70, "velocity": 96, "channel": 0}, {"type": "note_off", "time": 1351, "note": 70, "velocity": 96, "channel": 0}, {"type": "note_on", "time": 138, "note": 68, "velocity": 110, "channel": 0}, {"type": "note_off", "time": 2565, "note": 68, "velocity": 110, "channel": 0}, {"type": "note_on", "time": 1474, "note": 64, "velocity": 103, "channel": 0}, {"type": "note_off", "time": 1889, "note": 64, "velocity": 103, "channel": 0}, {"type": "note_on", "time": 2626, "note": 63, "velocity": 100, "channel": 0}, {"type": "note_off", "time": 3471, "note": 63, "velocity": 100, "channel": 0}, {"type": "note_on", "time": 7203, "note": 63, "velocity": 100, "channel": 0}, {"type": "note_off", "time": 2549, "note": 63, "velocity": 100, "channel": 0}, {"type": "note_on", "time": 215, "note": 64, "velocity": 104, "channel": 0}, {"type": "note_off", "time": 1904, "note": 64, "velocity": 104, "channel": 0}, {"type": "note_on", "time": 230, "note": 66, "velocity": 105, "channel": 0}, {"type": "note_off", "time": 3440, "note": 66, "velocity": 105, "channel": 0}, {"type": "note_on", "time": 3819, "note": 75, "velocity": 109, "channel": 0}, {"type": "note_off", "time": 2959, "note": 75, "velocity": 109, "channel": 0}, {"type": "note_on", "time": 345, "note": 74, "velocity": 113, "channel": 0}, {"type": "note_off", "time": 2332, "note": 74, "velocity": 113, "channel": 0}, {"type": "note_on", "time": 280, "note": 73, "velocity": 96, "channel": 0}, {"type": "note_off", "time": 4255, "note": 73, "velocity": 96, "channel": 0}, {"type": "note_on", "time": 756, "note": 68, "velocity": 90, "channel": 0}, {"type": "note_off", "time": 2484, "note": 68, "velocity": 90, "channel": 0}, {"type": "note_on", "time": 367, "note": 73, "velocity": 106, "channel": 0}, {"type": "note_off", "time": 2160, "note": 73, "velocity": 106, "channel": 0}, {"type": "note_on", "time": 324, "note": 70, "velocity": 104, "channel": 0}, {"type": "note_off", "time": 6242, "note": 70, "velocity": 104, "channel": 0}, {"type": "note_on", "time": 475, "note": 68, "velocity": 102, "channel": 0}, {"type": "note_off", "time": 3240, "note": 68, "velocity": 102, "channel": 0}, {"type": "note_on", "time": 496, "note": 66, "velocity": 111, "channel": 0}, {"type": "note_off", "time": 8769, "note": 66, "velocity": 111, "channel": 0}, {"type": "note_on", "time": 34342, "note": 54, "velocity": 113, "channel": 0}, {"type": "note_off", "time": 2918, "note": 54, "velocity": 113, "channel": 0}, {"type": "note_on", "time": 522, "note": 57, "velocity": 104, "channel": 0}, {"type": "note_off", "time": 1136, "note": 57, "velocity": 104, "channel": 0}, {"type": "note_on", "time": 122, "note": 58, "velocity": 107, "channel": 0}, {"type": "note_off", "time": 1029, "note": 58, "velocity": 107, "channel": 0}, {"type": "note_on", "time": 168, "note": 59, "velocity": 106, "channel": 0}, {"type": "note_off", "time": 1151, "note": 59, "velocity": 106, "channel": 0}, {"type": "note_on", "time": 122, "note": 61, "velocity": 110, "channel": 0}, {"type": "note_off", "time": 1121, "note": 61, "velocity": 110, "channel": 0}, {"type": "note_on", "time": 430, "note": 62, "velocity": 113, "channel": 0}, {"type": "note_off", "time": 1889, "note": 62, "velocity": 113, "channel": 0}, {"type": "note_on", "time": 368, "note": 61, "velocity": 113, "channel": 0}, {"type": "note_off", "time": 1474, "note": 61, "velocity": 113, "channel": 0}, {"type": "note_on", "time": 614, "note": 62, "velocity": 110, "channel": 0}, {"type": "note_off", "time": 1827, "note": 62, "velocity": 110, "channel": 0}, {"type": "note_on", "time": 337, "note": 66, "velocity": 110, "channel": 0}, {"type": "note_off", "time": 2841, "note": 66, "velocity": 110, "channel": 0}, {"type": "note_on", "time": 368, "note": 62, "velocity": 106, "channel": 0}, {"type": "note_off", "time": 1244, "note": 62, "velocity": 106, "channel": 0}, {"type": "note_on", "time": 276, "note": 64, "velocity": 101, "channel": 0}, {"type": "note_off", "time": 844, "note": 64, "velocity": 101, "channel": 0}, {"type": "note_on", "time": 368, "note": 66, "velocity": 109, "channel": 0}, {"type": "note_off", "time": 3025, "note": 66, "velocity": 109, "channel": 0}, {"type": "note_on", "time": 353, "note": 71, "velocity": 106, "channel": 0}, {"type": "note_off", "time": 1505, "note": 71, "velocity": 106, "channel": 0}, {"type": "note_on", "time": 184, "note": 73, "velocity": 111, "channel": 0}, {"type": "note_off", "time": 1305, "note": 73, "velocity": 111, "channel": 0}, {"type": "note_on", "time": 76, "note": 78, "velocity": 116, "channel": 0}, {"type": "note_off", "time": 1935, "note": 78, "velocity": 116, "channel": 0}, {"type": "note_on", "time": 445, "note": 76, "velocity": 116, "channel": 0}, {"type": "note_off", "time": 10936, "note": 76, "velocity": 116, "channel": 0}, {"type": "note_on", "time": 1029, "note": 74, "velocity": 110, "channel": 0}, {"type": "note_off", "time": 4039, "note": 74, "velocity": 110, "channel": 0}, {"type": "note_on", "time": 2119, "note": 75, "velocity": 113, "channel": 0}, {"type": "note_off", "time": 4899, "note": 75, "velocity": 113, "channel": 0}, {"type": "note_on", "time": 812, "note": 70, "velocity": 108, "channel": 0}, {"type": "note_off", "time": 8424, "note": 70, "velocity": 108, "channel": 0}, {"type": "note_on", "time": 388, "note": 68, "velocity": 98, "channel": 0}, {"type": "note_off", "time": 3283, "note": 68, "velocity": 98, "channel": 0}, {"type": "note_on", "time": 648, "note": 70, "velocity": 107, "channel": 0}, {"type": "note_off", "time": 5875, "note": 70, "velocity": 107, "channel": 0}, {"type": "note_on", "time": 864, "note": 63, "velocity": 102, "channel": 0}, {"type": "note_off", "time": 8899, "note": 63, "velocity": 102, "channel": 0}, {"type": "note_on", "time": 1425, "note": 58, "velocity": 90, "channel": 0}, {"type": "note_off", "time": 1814, "note": 58, "velocity": 90, "channel": 0}, {"type": "note_on", "time": 734, "note": 63, "velocity": 101, "channel": 0}, {"type": "note_off", "time": 7214, "note": 63, "velocity": 101, "channel": 0}, {"type": "note_on", "time": 1042, "note": 58, "velocity": 98, "channel": 0}, {"type": "note_off", "time": 7864, "note": 58, "velocity": 98, "channel": 0}, {"type": "note_on", "time": 583, "note": 56, "velocity": 106, "channel": 0}, {"type": "note_off", "time": 2734, "note": 56, "velocity": 106, "channel": 0}, {"type": "note_on", "time": 768, "note": 58, "velocity": 99, "channel": 0}, {"type": "note_off", "time": 6051, "note": 58, "velocity": 99, "channel": 0}, {"type": "note_on", "time": 983, "note": 51, "velocity": 110, "channel": 0}, {"type": "note_off", "time": 8110, "note": 51, "velocity": 110, "channel": 0}, {"type": "note_on", "time": 337, "note": 49, "velocity": 110, "channel": 0}, {"type": "note_off", "time": 9861, "note": 49, "velocity": 110, "channel": 0}, {"type": "note_on", "time": 13823, "note": 68, "velocity": 110, "channel": 0}, {"type": "note_off", "time": 15790, "note": 68, "velocity": 110, "channel": 0}, {"type": "note_on", "time": 614, "note": 66, "velocity": 103, "channel": 0}, {"type": "note_off", "time": 2887, "note": 66, "velocity": 103, "channel": 0}, {"type": "note_on", "time": 737, "note": 68, "velocity": 110, "channel": 0}, {"type": "note_off", "time": 5253, "note": 68, "velocity": 110, "channel": 0}, {"type": "note_on", "time": 1167, "note": 61, "velocity": 101, "channel": 0}, {"type": "note_off", "time": 9584, "note": 61, "velocity": 101, "channel": 0}, {"type": "note_on", "time": 5007, "note": 61, "velocity": 104, "channel": 0}, {"type": "note_off", "time": 13977, "note": 61, "velocity": 104, "channel": 0}, {"type": "note_on", "time": 430, "note": 63, "velocity": 101, "channel": 0}, {"type": "note_off", "time": 4024, "note": 63, "velocity": 101, "channel": 0}, {"type": "note_on", "time": 1228, "note": 64, "velocity": 103, "channel": 0}, {"type": "note_off", "time": 5437, "note": 64, "velocity": 103, "channel": 0}, {"type": "note_on", "time": 829, "note": 66, "velocity": 110, "channel": 0}, {"type": "note_off", "time": 4884, "note": 66, "velocity": 110, "channel": 0}, {"type": "note_on", "time": 430, "note": 68, "velocity": 108, "channel": 0}, {"type": "note_off", "time": 3133, "note": 68, "velocity": 108, "channel": 0}, {"type": "note_on", "time": 1075, "note": 71, "velocity": 116, "channel": 0}, {"type": "note_off", "time": 5160, "note": 71, "velocity": 116, "channel": 0}, {"type": "note_on", "time": 583, "note": 70, "velocity": 107, "channel": 0}, {"type": "note_off", "time": 2611, "note": 70, "velocity": 107, "channel": 0}, {"type": "note_on", "time": 1812, "note": 68, "velocity": 113, "channel": 0}, {"type": "note_off", "time": 4147, "note": 68, "velocity": 113, "channel": 0}, {"type": "note_on", "time": 798, "note": 67, "velocity": 106, "channel": 0}, {"type": "note_off", "time": 4300, "note": 67, "velocity": 106, "channel": 0}, {"type": "note_on", "time": 1443, "note": 70, "velocity": 105, "channel": 0}, {"type": "note_off", "time": 16496, "note": 70, "velocity": 105, "channel": 0}, {"type": "note_on", "time": 591, "note": 69, "velocity": 107, "channel": 0}, {"type": "note_off", "time": 2052, "note": 69, "velocity": 107, "channel": 0}, {"type": "note_on", "time": 324, "note": 70, "velocity": 103, "channel": 0}, {"type": "note_off", "time": 3520, "note": 70, "velocity": 103, "channel": 0}, {"type": "note_on", "time": 172, "note": 69, "velocity": 98, "channel": 0}, {"type": "note_off", "time": 2268, "note": 69, "velocity": 98, "channel": 0}, {"type": "note_on", "time": 432, "note": 70, "velocity": 102, "channel": 0}, {"type": "note_off", "time": 2915, "note": 70, "velocity": 102, "channel": 0}, {"type": "note_on", "time": 928, "note": 75, "velocity": 96, "channel": 0}, {"type": "note_off", "time": 2419, "note": 75, "velocity": 96, "channel": 0}, {"type": "note_on", "time": 648, "note": 68, "velocity": 110, "channel": 0}, {"type": "note_off", "time": 9374, "note": 68, "velocity": 110, "channel": 0}, {"type": "note_on", "time": 237, "note": 67, "velocity": 98, "channel": 0}, {"type": "note_off", "time": 2116, "note": 67, "velocity": 98, "channel": 0}, {"type": "note_on", "time": 604, "note": 68, "velocity": 104, "channel": 0}, {"type": "note_off", "time": 2289, "note": 68, "velocity": 104, "channel": 0}, {"type": "note_on", "time": 3294, "note": 68, "velocity": 105, "channel": 0}, {"type": "note_off", "time": 9891, "note": 68, "velocity": 105, "channel": 0}, {"type": "note_on", "time": 368, "note": 67, "velocity": 101, "channel": 0}, {"type": "note_off", "time": 2856, "note": 67, "velocity": 101, "channel": 0}, {"type": "note_on", "time": 92, "note": 68, "velocity": 106, "channel": 0}, {"type": "note_off", "time": 1505, "note": 68, "velocity": 106, "channel": 0}, {"type": "note_on", "time": 675, "note": 73, "velocity": 99, "channel": 0}, {"type": "note_off", "time": 7987, "note": 73, "velocity": 99, "channel": 0}, {"type": "note_on", "time": 31625, "note": 75, "velocity": 109, "channel": 0}, {"type": "note_off", "time": 2635, "note": 75, "velocity": 109, "channel": 0}, {"type": "note_on", "time": 194, "note": 76, "velocity": 117, "channel": 0}, {"type": "note_off", "time": 1814, "note": 76, "velocity": 117, "channel": 0}, {"type": "note_on", "time": 388, "note": 78, "velocity": 117, "channel": 0}, {"type": "note_off", "time": 2937, "note": 78, "velocity": 117, "channel": 0}, {"type": "note_on", "time": 345, "note": 79, "velocity": 104, "channel": 0}, {"type": "note_off", "time": 2419, "note": 79, "velocity": 104, "channel": 0}, {"type": "note_on", "time": 108, "note": 75, "velocity": 116, "channel": 0}, {"type": "note_off", "time": 1900, "note": 75, "velocity": 116, "channel": 0}, {"type": "note_on", "time": 453, "note": 76, "velocity": 103, "channel": 0}, {"type": "note_off", "time": 3326, "note": 76, "velocity": 103, "channel": 0}, {"type": "note_on", "time": 3889, "note": 76, "velocity": 117, "channel": 0}, {"type": "note_off", "time": 1950, "note": 76, "velocity": 117, "channel": 0}, {"type": "note_on", "time": 215, "note": 75, "velocity": 116, "channel": 0}, {"type": "note_off", "time": 1935, "note": 75, "velocity": 116, "channel": 0}, {"type": "note_on", "time": 476, "note": 74, "velocity": 110, "channel": 0}, {"type": "note_off", "time": 2319, "note": 74, "velocity": 110, "channel": 0}, {"type": "note_on", "time": 276, "note": 73, "velocity": 113, "channel": 0}, {"type": "note_off", "time": 2903, "note": 73, "velocity": 113, "channel": 0}, {"type": "note_on", "time": 491, "note": 72, "velocity": 109, "channel": 0}, {"type": "note_off", "time": 1827, "note": 72, "velocity": 109, "channel": 0}, {"type": "note_on", "time": 92, "note": 71, "velocity": 109, "channel": 0}, {"type": "note_off", "time": 2549, "note": 71, "velocity": 109, "channel": 0}, {"type": "note_on", "time": 1722, "note": 75, "velocity": 112, "channel": 0}, {"type": "note_off", "time": 3844, "note": 75, "velocity": 112, "channel": 0}, {"type": "note_on", "time": 7995, "note": 73, "velocity": 111, "channel": 0}, {"type": "note_off", "time": 3747, "note": 73, "velocity": 111, "channel": 0}, {"type": "note_on", "time": 3317, "note": 71, "velocity": 117, "channel": 0}, {"type": "note_off", "time": 2365, "note": 71, "velocity": 117, "channel": 0}, {"type": "note_on", "time": 399, "note": 70, "velocity": 107, "channel": 0}, {"type": "note_off", "time": 2119, "note": 70, "velocity": 107, "channel": 0}, {"type": "note_on", "time": 829, "note": 66, "velocity": 109, "channel": 0}, {"type": "note_off", "time": 2549, "note": 66, "velocity": 109, "channel": 0}, {"type": "note_on", "time": 430, "note": 63, "velocity": 91, "channel": 0}, {"type": "note_off", "time": 2764, "note": 63, "velocity": 91, "channel": 0}, {"type": "note_on", "time": 1136, "note": 68, "velocity": 110, "channel": 0}, {"type": "note_off", "time": 6727, "note": 68, "velocity": 110, "channel": 0}, {"type": "note_on", "time": 1198, "note": 63, "velocity": 96, "channel": 0}, {"type": "note_off", "time": 1812, "note": 63, "velocity": 96, "channel": 0}, {"type": "note_on", "time": 153, "note": 66, "velocity": 111, "channel": 0}, {"type": "note_off", "time": 3563, "note": 66, "velocity": 111, "channel": 0}, {"type": "note_on", "time": 491, "note": 63, "velocity": 101, "channel": 0}, {"type": "note_off", "time": 1904, "note": 63, "velocity": 101, "channel": 0}, {"type": "note_on", "time": 675, "note": 58, "velocity": 100, "channel": 0}, {"type": "note_off", "time": 2273, "note": 58, "velocity": 100, "channel": 0}, {"type": "note_on", "time": 23181, "note": 71, "velocity": 106, "channel": 0}, {"type": "note_off", "time": 2894, "note": 71, "velocity": 106, "channel": 0}, {"type": "note_on", "time": 43, "note": 73, "velocity": 106, "channel": 0}, {"type": "note_off", "time": 777, "note": 73, "velocity": 106, "channel": 0}, {"type": "note_on", "time": 367, "note": 74, "velocity": 105, "channel": 0}, {"type": "note_off", "time": 1058, "note": 74, "velocity": 105, "channel": 0}, {"type": "note_on", "time": 367, "note": 78, "velocity": 117, "channel": 0}, {"type": "note_off", "time": 2980, "note": 78, "velocity": 117, "channel": 0}, {"type": "note_on", "time": 475, "note": 76, "velocity": 115, "channel": 0}, {"type": "note_off", "time": 2030, "note": 76, "velocity": 115, "channel": 0}, {"type": "note_on", "time": 216, "note": 74, "velocity": 118, "channel": 0}, {"type": "note_off", "time": 2051, "note": 74, "velocity": 118, "channel": 0}, {"type": "note_on", "time": 583, "note": 73, "velocity": 115, "channel": 0}, {"type": "note_off", "time": 1987, "note": 73, "velocity": 115, "channel": 0}, {"type": "note_on", "time": 540, "note": 71, "velocity": 118, "channel": 0}, {"type": "note_off", "time": 2159, "note": 71, "velocity": 118, "channel": 0}, {"type": "note_on", "time": 311, "note": 69, "velocity": 115, "channel": 0}, {"type": "note_off", "time": 2332, "note": 69, "velocity": 115, "channel": 0}, {"type": "note_on", "time": 272, "note": 73, "velocity": 112, "channel": 0}, {"type": "note_off", "time": 1836, "note": 73, "velocity": 112, "channel": 0}, {"type": "note_on", "time": 172, "note": 71, "velocity": 112, "channel": 0}, {"type": "note_off", "time": 2397, "note": 71, "velocity": 112, "channel": 0}, {"type": "note_on", "time": 345, "note": 66, "velocity": 112, "channel": 0}, {"type": "note_off", "time": 3585, "note": 66, "velocity": 112, "channel": 0}, {"type": "note_on", "time": 561, "note": 69, "velocity": 120, "channel": 0}, {"type": "note_off", "time": 2872, "note": 69, "velocity": 120, "channel": 0}, {"type": "note_on", "time": 1101, "note": 66, "velocity": 104, "channel": 0}, {"type": "note_off", "time": 1987, "note": 66, "velocity": 104, "channel": 0}, {"type": "note_on", "time": 1036, "note": 69, "velocity": 117, "channel": 0}, {"type": "note_off", "time": 3240, "note": 69, "velocity": 117, "channel": 0}, {"type": "note_on", "time": 1274, "note": 64, "velocity": 108, "channel": 0}, {"type": "note_off", "time": 2268, "note": 64, "velocity": 108, "channel": 0}, {"type": "note_on", "time": 64, "note": 63, "velocity": 104, "channel": 0}, {"type": "note_off", "time": 950, "note": 63, "velocity": 104, "channel": 0}, {"type": "note_on", "time": 194, "note": 62, "velocity": 101, "channel": 0}, {"type": "note_off", "time": 1468, "note": 62, "velocity": 101, "channel": 0}, {"type": "note_on", "time": 151, "note": 69, "velocity": 115, "channel": 0}, {"type": "note_off", "time": 4665, "note": 69, "velocity": 115, "channel": 0}, {"type": "note_on", "time": 2699, "note": 66, "velocity": 116, "channel": 0}, {"type": "note_off", "time": 2246, "note": 66, "velocity": 116, "channel": 0}, {"type": "note_on", "time": 432, "note": 64, "velocity": 109, "channel": 0}, {"type": "note_off", "time": 2311, "note": 64, "velocity": 109, "channel": 0}, {"type": "note_on", "time": 367, "note": 62, "velocity": 104, "channel": 0}, {"type": "note_off", "time": 1749, "note": 62, "velocity": 104, "channel": 0}, {"type": "note_on", "time": 367, "note": 63, "velocity": 106, "channel": 0}, {"type": "note_off", "time": 2224, "note": 63, "velocity": 106, "channel": 0}, {"type": "note_on", "time": 734, "note": 62, "velocity": 110, "channel": 0}, {"type": "note_off", "time": 1943, "note": 62, "velocity": 110, "channel": 0}, {"type": "note_on", "time": 496, "note": 61, "velocity": 105, "channel": 0}, {"type": "note_off", "time": 2937, "note": 61, "velocity": 105, "channel": 0}, {"type": "note_on", "time": 475, "note": 63, "velocity": 102, "channel": 0}, {"type": "note_off", "time": 1360, "note": 63, "velocity": 102, "channel": 0}, {"type": "note_on", "time": 215, "note": 65, "velocity": 115, "channel": 0}, {"type": "note_off", "time": 3758, "note": 65, "velocity": 115, "channel": 0}, {"type": "note_on", "time": 540, "note": 60, "velocity": 101, "channel": 0}, {"type": "note_off", "time": 1598, "note": 60, "velocity": 101, "channel": 0}, {"type": "note_on", "time": 410, "note": 63, "velocity": 97, "channel": 0}, {"type": "note_off", "time": 1490, "note": 63, "velocity": 97, "channel": 0}, {"type": "note_on", "time": 820, "note": 65, "velocity": 111, "channel": 0}, {"type": "note_off", "time": 2354, "note": 65, "velocity": 111, "channel": 0}, {"type": "note_on", "time": 237, "note": 68, "velocity": 95, "channel": 0}, {"type": "note_off", "time": 1555, "note": 68, "velocity": 95, "channel": 0}, {"type": "note_on", "time": 215, "note": 72, "velocity": 86, "channel": 0}, {"type": "note_off", "time": 993, "note": 72, "velocity": 86, "channel": 0}, {"type": "note_on", "time": 237, "note": 75, "velocity": 110, "channel": 0}, {"type": "note_off", "time": 1922, "note": 75, "velocity": 110, "channel": 0}, {"type": "note_on", "time": 237, "note": 73, "velocity": 109, "channel": 0}, {"type": "note_off", "time": 2160, "note": 73, "velocity": 109, "channel": 0}, {"type": "note_on", "time": 712, "note": 72, "velocity": 107, "channel": 0}, {"type": "note_off", "time": 2332, "note": 72, "velocity": 107, "channel": 0}, {"type": "note_on", "time": 583, "note": 71, "velocity": 104, "channel": 0}, {"type": "note_off", "time": 2980, "note": 71, "velocity": 104, "channel": 0}, {"type": "note_on", "time": 1576, "note": 72, "velocity": 107, "channel": 0}, {"type": "note_off", "time": 3542, "note": 72, "velocity": 107, "channel": 0}, {"type": "note_on", "time": 5097, "note": 65, "velocity": 94, "channel": 0}, {"type": "note_off", "time": 1209, "note": 65, "velocity": 94, "channel": 0}, {"type": "note_on", "time": 108, "note": 67, "velocity": 107, "channel": 0}, {"type": "note_off", "time": 2440, "note": 67, "velocity": 107, "channel": 0}, {"type": "note_on", "time": 604, "note": 70, "velocity": 110, "channel": 0}, {"type": "note_off", "time": 5724, "note": 70, "velocity": 110, "channel": 0}, {"type": "note_on", "time": 648, "note": 68, "velocity": 115, "channel": 0}, {"type": "note_off", "time": 2786, "note": 68, "velocity": 115, "channel": 0}, {"type": "note_on", "time": 323, "note": 67, "velocity": 109, "channel": 0}, {"type": "note_off", "time": 2030, "note": 67, "velocity": 109, "channel": 0}, {"type": "note_on", "time": 432, "note": 65, "velocity": 112, "channel": 0}, {"type": "note_off", "time": 1620, "note": 65, "velocity": 112, "channel": 0}, {"type": "note_on", "time": 561, "note": 63, "velocity": 104, "channel": 0}, {"type": "note_off", "time": 5313, "note": 63, "velocity": 104, "channel": 0}, {"type": "note_on", "time": 734, "note": 63, "velocity": 99, "channel": 0}, {"type": "note_off", "time": 1598, "note": 63, "velocity": 99, "channel": 0}, {"type": "note_on", "time": 734, "note": 61, "velocity": 104, "channel": 0}, {"type": "note_off", "time": 1836, "note": 61, "velocity": 104, "channel": 0}, {"type": "note_on", "time": 604, "note": 60, "velocity": 99, "channel": 0}, {"type": "note_off", "time": 2160, "note": 60, "velocity": 99, "channel": 0}, {"type": "note_on", "time": 1425, "note": 58, "velocity": 102, "channel": 0}, {"type": "note_off", "time": 4600, "note": 58, "velocity": 102, "channel": 0}, {"type": "note_on", "time": 12777, "note": 55, "velocity": 100, "channel": 0}, {"type": "note_off", "time": 2856, "note": 55, "velocity": 100, "channel": 0}, {"type": "note_on", "time": 276, "note": 58, "velocity": 97, "channel": 0}, {"type": "note_off", "time": 1198, "note": 58, "velocity": 97, "channel": 0}, {"type": "note_on", "time": 798, "note": 62, "velocity": 106, "channel": 0}, {"type": "note_off", "time": 2088, "note": 62, "velocity": 106, "channel": 0}, {"type": "note_on", "time": 337, "note": 60, "velocity": 102, "channel": 0}, {"type": "note_off", "time": 1843, "note": 60, "velocity": 102, "channel": 0}, {"type": "note_on", "time": 1136, "note": 58, "velocity": 99, "channel": 0}, {"type": "note_off", "time": 1320, "note": 58, "velocity": 99, "channel": 0}, {"type": "note_on", "time": 307, "note": 60, "velocity": 97, "channel": 0}, {"type": "note_off", "time": 1228, "note": 60, "velocity": 97, "channel": 0}, {"type": "note_on", "time": 337, "note": 63, "velocity": 100, "channel": 0}, {"type": "note_off", "time": 1075, "note": 63, "velocity": 100, "channel": 0}, {"type": "note_on", "time": 368, "note": 67, "velocity": 115, "channel": 0}, {"type": "note_off", "time": 2119, "note": 67, "velocity": 115, "channel": 0}, {"type": "note_on", "time": 16, "note": 65, "velocity": 107, "channel": 0}, {"type": "note_off", "time": 1080, "note": 65, "velocity": 107, "channel": 0}, {"type": "note_on", "time": 37, "note": 64, "velocity": 105, "channel": 0}, {"type": "note_off", "time": 1415, "note": 64, "velocity": 105, "channel": 0}, {"type": "note_on", "time": 448, "note": 60, "velocity": 101, "channel": 0}, {"type": "note_off", "time": 1151, "note": 60, "velocity": 101, "channel": 0}, {"type": "note_on", "time": 164, "note": 62, "velocity": 106, "channel": 0}, {"type": "note_off", "time": 1235, "note": 62, "velocity": 106, "channel": 0}, {"type": "note_on", "time": 137, "note": 64, "velocity": 104, "channel": 0}, {"type": "note_off", "time": 1404, "note": 64, "velocity": 104, "channel": 0}, {"type": "note_on", "time": 400, "note": 65, "velocity": 106, "channel": 0}, {"type": "note_off", "time": 2484, "note": 65, "velocity": 106, "channel": 0}, {"type": "note_on", "time": 410, "note": 64, "velocity": 103, "channel": 0}, {"type": "note_off", "time": 2376, "note": 64, "velocity": 103, "channel": 0}, {"type": "note_on", "time": 1036, "note": 67, "velocity": 92, "channel": 0}, {"type": "note_off", "time": 1598, "note": 67, "velocity": 92, "channel": 0}, {"type": "note_on", "time": 0, "note": 69, "velocity": 108, "channel": 0}, {"type": "note_off", "time": 1274, "note": 69, "velocity": 108, "channel": 0}, {"type": "note_on", "time": 1187, "note": 74, "velocity": 88, "channel": 0}, {"type": "note_off", "time": 2419, "note": 74, "velocity": 88, "channel": 0}, {"type": "note_on", "time": 626, "note": 65, "velocity": 108, "channel": 0}, {"type": "note_off", "time": 1382, "note": 65, "velocity": 108, "channel": 0}, {"type": "note_on", "time": 302, "note": 69, "velocity": 105, "channel": 0}, {"type": "note_off", "time": 1922, "note": 69, "velocity": 105, "channel": 0}, {"type": "note_on", "time": 0, "note": 74, "velocity": 109, "channel": 0}, {"type": "note_off", "time": 1641, "note": 74, "velocity": 109, "channel": 0}, {"type": "note_on", "time": 475, "note": 72, "velocity": 107, "channel": 0}, {"type": "note_off", "time": 1425, "note": 72, "velocity": 107, "channel": 0}, {"type": "note_on", "time": 345, "note": 70, "velocity": 106, "channel": 0}, {"type": "note_off", "time": 1123, "note": 70, "velocity": 106, "channel": 0}, {"type": "note_on", "time": 345, "note": 69, "velocity": 107, "channel": 0}, {"type": "note_off", "time": 2267, "note": 69, "velocity": 107, "channel": 0}, {"type": "note_on", "time": 540, "note": 79, "velocity": 109, "channel": 0}, {"type": "note_off", "time": 2116, "note": 79, "velocity": 109, "channel": 0}, {"type": "note_on", "time": 410, "note": 76, "velocity": 112, "channel": 0}, {"type": "note_off", "time": 7149, "note": 76, "velocity": 112, "channel": 0}, {"type": "note_on", "time": 14203, "note": 80, "velocity": 104, "channel": 0}, {"type": "note_off", "time": 3532, "note": 80, "velocity": 104, "channel": 0}, {"type": "note_on", "time": 522, "note": 78, "velocity": 111, "channel": 0}, {"type": "note_off", "time": 2181, "note": 78, "velocity": 111, "channel": 0}, {"type": "note_on", "time": 430, "note": 75, "velocity": 116, "channel": 0}, {"type": "note_off", "time": 4761, "note": 75, "velocity": 116, "channel": 0}, {"type": "note_on", "time": 1167, "note": 75, "velocity": 114, "channel": 0}, {"type": "note_off", "time": 3225, "note": 75, "velocity": 114, "channel": 0}, {"type": "note_on", "time": 706, "note": 73, "velocity": 110, "channel": 0}, {"type": "note_off", "time": 3778, "note": 73, "velocity": 110, "channel": 0}, {"type": "note_on", "time": 829, "note": 78, "velocity": 114, "channel": 0}, {"type": "note_off", "time": 8140, "note": 78, "velocity": 114, "channel": 0}, {"type": "note_on", "time": 491, "note": 75, "velocity": 114, "channel": 0}, {"type": "note_off", "time": 4055, "note": 75, "velocity": 114, "channel": 0}, {"type": "note_on", "time": 768, "note": 78, "velocity": 106, "channel": 0}, {"type": "note_off", "time": 13209, "note": 78, "velocity": 106, "channel": 0}, {"type": "note_on", "time": 614, "note": 75, "velocity": 107, "channel": 0}, {"type": "note_off", "time": 3348, "note": 75, "velocity": 107, "channel": 0}, {"type": "note_on", "time": 552, "note": 71, "velocity": 92, "channel": 0}, {"type": "note_off", "time": 2795, "note": 71, "velocity": 92, "channel": 0}, {"type": "note_on", "time": 399, "note": 75, "velocity": 112, "channel": 0}, {"type": "note_off", "time": 3624, "note": 75, "velocity": 112, "channel": 0}, {"type": "note_on", "time": 252, "note": 70, "velocity": 110, "channel": 0}, {"type": "note_off", "time": 2116, "note": 70, "velocity": 110, "channel": 0}, {"type": "note_on", "time": 539, "note": 68, "velocity": 111, "channel": 0}, {"type": "note_off", "time": 3240, "note": 68, "velocity": 111, "channel": 0}, {"type": "note_on", "time": 1490, "note": 70, "velocity": 108, "channel": 0}, {"type": "note_off", "time": 6091, "note": 70, "velocity": 108, "channel": 0}, {"type": "note_on", "time": 10886, "note": 71, "velocity": 108, "channel": 0}, {"type": "note_off", "time": 3304, "note": 71, "velocity": 108, "channel": 0}, {"type": "note_on", "time": 496, "note": 73, "velocity": 105, "channel": 0}, {"type": "note_off", "time": 1555, "note": 73, "velocity": 105, "channel": 0}, {"type": "note_on", "time": 280, "note": 74, "velocity": 101, "channel": 0}, {"type": "note_off", "time": 2937, "note": 74, "velocity": 101, "channel": 0}, {"type": "note_on", "time": 647, "note": 66, "velocity": 103, "channel": 0}, {"type": "note_off", "time": 2160, "note": 66, "velocity": 103, "channel": 0}, {"type": "note_on", "time": 540, "note": 76, "velocity": 108, "channel": 0}, {"type": "note_off", "time": 1555, "note": 76, "velocity": 108, "channel": 0}, {"type": "note_on", "time": 215, "note": 74, "velocity": 109, "channel": 0}, {"type": "note_off", "time": 1598, "note": 74, "velocity": 109, "channel": 0}, {"type": "note_on", "time": 388, "note": 73, "velocity": 102, "channel": 0}, {"type": "note_off", "time": 1857, "note": 73, "velocity": 102, "channel": 0}, {"type": "note_on", "time": 216, "note": 72, "velocity": 94, "channel": 0}, {"type": "note_off", "time": 1339, "note": 72, "velocity": 94, "channel": 0}, {"type": "note_on", "time": 1879, "note": 73, "velocity": 108, "channel": 0}, {"type": "note_off", "time": 4190, "note": 73, "velocity": 108, "channel": 0}, {"type": "note_on", "time": 151, "note": 66, "velocity": 104, "channel": 0}, {"type": "note_off", "time": 1879, "note": 66, "velocity": 104, "channel": 0}, {"type": "note_on", "time": 1317, "note": 73, "velocity": 103, "channel": 0}, {"type": "note_off", "time": 3715, "note": 73, "velocity": 103, "channel": 0}, {"type": "note_on", "time": 950, "note": 69, "velocity": 104, "channel": 0}, {"type": "note_off", "time": 4233, "note": 69, "velocity": 104, "channel": 0}, {"type": "note_on", "time": 561, "note": 71, "velocity": 111, "channel": 0}, {"type": "note_off", "time": 3693, "note": 71, "velocity": 111, "channel": 0}, {"type": "note_on", "time": 885, "note": 66, "velocity": 109, "channel": 0}, {"type": "note_off", "time": 2397, "note": 66, "velocity": 109, "channel": 0}, {"type": "note_on", "time": 496, "note": 64, "velocity": 98, "channel": 0}, {"type": "note_off", "time": 2462, "note": 64, "velocity": 98, "channel": 0}, {"type": "note_on", "time": 1555, "note": 69, "velocity": 111, "channel": 0}, {"type": "note_off", "time": 2613, "note": 69, "velocity": 111, "channel": 0}, {"type": "note_on", "time": 496, "note": 66, "velocity": 102, "channel": 0}, {"type": "note_off", "time": 2224, "note": 66, "velocity": 102, "channel": 0}, {"type": "note_on", "time": 194, "note": 61, "velocity": 108, "channel": 0}, {"type": "note_off", "time": 3240, "note": 61, "velocity": 108, "channel": 0}, {"type": "note_on", "time": 2375, "note": 59, "velocity": 105, "channel": 0}, {"type": "note_off", "time": 5032, "note": 59, "velocity": 105, "channel": 0}, {"type": "note_on", "time": 367, "note": 59, "velocity": 102, "channel": 0}, {"type": "note_off", "time": 3391, "note": 59, "velocity": 102, "channel": 0}, {"type": "note_on", "time": 11750, "note": 59, "velocity": 106, "channel": 0}, {"type": "note_off", "time": 3693, "note": 59, "velocity": 106, "channel": 0}, {"type": "note_on", "time": 496, "note": 58, "velocity": 103, "channel": 0}, {"type": "note_off", "time": 5875, "note": 58, "velocity": 103, "channel": 0}, {"type": "note_on", "time": 1015, "note": 56, "velocity": 111, "channel": 0}, {"type": "note_off", "time": 3024, "note": 56, "velocity": 111, "channel": 0}, {"type": "note_on", "time": 410, "note": 54, "velocity": 109, "channel": 0}, {"type": "note_off", "time": 2937, "note": 54, "velocity": 109, "channel": 0}, {"type": "note_on", "time": 181, "note": 61, "velocity": 114, "channel": 0}, {"type": "note_off", "time": 5898, "note": 61, "velocity": 114, "channel": 0}, {"type": "note_on", "time": 583, "note": 58, "velocity": 104, "channel": 0}, {"type": "note_off", "time": 5775, "note": 58, "velocity": 104, "channel": 0}, {"type": "note_on", "time": 552, "note": 54, "velocity": 110, "channel": 0}, {"type": "note_off", "time": 7864, "note": 54, "velocity": 110, "channel": 0}, {"type": "note_on", "time": 614, "note": 54, "velocity": 97, "channel": 0}, {"type": "note_off", "time": 11827, "note": 54, "velocity": 97, "channel": 0}, {"type": "note_on", "time": 18278, "note": 56, "velocity": 106, "channel": 0}, {"type": "note_off", "time": 2887, "note": 56, "velocity": 106, "channel": 0}, {"type": "note_on", "time": 645, "note": 59, "velocity": 104, "channel": 0}, {"type": "note_off", "time": 3932, "note": 59, "velocity": 104, "channel": 0}, {"type": "note_on", "time": 491, "note": 59, "velocity": 109, "channel": 0}, {"type": "note_off", "time": 2887, "note": 59, "velocity": 109, "channel": 0}, {"type": "note_on", "time": 491, "note": 63, "velocity": 107, "channel": 0}, {"type": "note_off", "time": 2519, "note": 63, "velocity": 107, "channel": 0}, {"type": "note_on", "time": 768, "note": 61, "velocity": 114, "channel": 0}, {"type": "note_off", "time": 3225, "note": 61, "velocity": 114, "channel": 0}, {"type": "note_on", "time": 538, "note": 63, "velocity": 106, "channel": 0}, {"type": "note_off", "time": 2570, "note": 63, "velocity": 106, "channel": 0}, {"type": "note_on", "time": 1080, "note": 64, "velocity": 107, "channel": 0}, {"type": "note_off", "time": 3240, "note": 64, "velocity": 107, "channel": 0}, {"type": "note_on", "time": 777, "note": 66, "velocity": 113, "channel": 0}, {"type": "note_off", "time": 3564, "note": 66, "velocity": 113, "channel": 0}, {"type": "note_on", "time": 517, "note": 68, "velocity": 115, "channel": 0}, {"type": "note_off", "time": 3164, "note": 68, "velocity": 115, "channel": 0}, {"type": "note_on", "time": 368, "note": 70, "velocity": 107, "channel": 0}, {"type": "note_off", "time": 2949, "note": 70, "velocity": 107, "channel": 0}, {"type": "note_on", "time": 675, "note": 71, "velocity": 111, "channel": 0}, {"type": "note_off", "time": 3471, "note": 71, "velocity": 111, "channel": 0}, {"type": "note_on", "time": 675, "note": 75, "velocity": 111, "channel": 0}, {"type": "note_off", "time": 3686, "note": 75, "velocity": 111, "channel": 0}, {"type": "note_on", "time": 368, "note": 76, "velocity": 121, "channel": 0}, {"type": "note_off", "time": 3102, "note": 76, "velocity": 121, "channel": 0}, {"type": "note_on", "time": 860, "note": 78, "velocity": 115, "channel": 0}, {"type": "note_off", "time": 3655, "note": 78, "velocity": 115, "channel": 0}, {"type": "note_on", "time": 399, "note": 79, "velocity": 107, "channel": 0}, {"type": "note_off", "time": 3471, "note": 79, "velocity": 107, "channel": 0}, {"type": "note_on", "time": 460, "note": 75, "velocity": 112, "channel": 0}, {"type": "note_off", "time": 3164, "note": 75, "velocity": 112, "channel": 0}, {"type": "note_on", "time": 614, "note": 76, "velocity": 113, "channel": 0}, {"type": "note_off", "time": 4116, "note": 76, "velocity": 113, "channel": 0}, {"type": "note_on", "time": 1351, "note": 68, "velocity": 91, "channel": 0}, {"type": "note_off", "time": 1966, "note": 68, "velocity": 91, "channel": 0}, {"type": "note_on", "time": 430, "note": 71, "velocity": 108, "channel": 0}, {"type": "note_off", "time": 3717, "note": 71, "velocity": 108, "channel": 0}, {"type": "note_on", "time": 336, "note": 75, "velocity": 107, "channel": 0}, {"type": "note_off", "time": 3261, "note": 75, "velocity": 107, "channel": 0}, {"type": "note_on", "time": 918, "note": 67, "velocity": 111, "channel": 0}, {"type": "note_off", "time": 12564, "note": 67, "velocity": 111, "channel": 0}, {"type": "note_on", "time": 721, "note": 68, "velocity": 109, "channel": 0}, {"type": "note_off", "time": 1996, "note": 68, "velocity": 109, "channel": 0}, {"type": "note_on", "time": 552, "note": 71, "velocity": 93, "channel": 0}, {"type": "note_off", "time": 2488, "note": 71, "velocity": 93, "channel": 0}, {"type": "note_on", "time": 4690, "note": 66, "velocity": 108, "channel": 0}, {"type": "note_off", "time": 9763, "note": 66, "velocity": 108, "channel": 0}, {"type": "note_on", "time": 1295, "note": 64, "velocity": 98, "channel": 0}, {"type": "note_off", "time": 4082, "note": 64, "velocity": 98, "channel": 0}, {"type": "note_on", "time": 1101, "note": 63, "velocity": 101, "channel": 0}, {"type": "note_off", "time": 7214, "note": 63, "velocity": 101, "channel": 0}, {"type": "note_on", "time": 1663, "note": 63, "velocity": 92, "channel": 0}, {"type": "note_off", "time": 4492, "note": 63, "velocity": 92, "channel": 0}, {"type": "note_on", "time": 453, "note": 64, "velocity": 94, "channel": 0}, {"type": "note_off", "time": 2181, "note": 64, "velocity": 94, "channel": 0}, {"type": "note_on", "time": 453, "note": 66, "velocity": 108, "channel": 0}, {"type": "note_off", "time": 4298, "note": 66, "velocity": 108, "channel": 0}, {"type": "note_on", "time": 475, "note": 63, "velocity": 101, "channel": 0}, {"type": "note_off", "time": 7581, "note": 63, "velocity": 101, "channel": 0}, {"type": "note_on", "time": 648, "note": 61, "velocity": 100, "channel": 0}, {"type": "note_off", "time": 6156, "note": 61, "velocity": 100, "channel": 0}, {"type": "note_on", "time": 431, "note": 63, "velocity": 93, "channel": 0}, {"type": "note_off", "time": 7171, "note": 63, "velocity": 93, "channel": 0}, {"type": "note_on", "time": 10540, "note": 70, "velocity": 112, "channel": 0}, {"type": "note_off", "time": 26956, "note": 70, "velocity": 112, "channel": 0}, {"type": "note_on", "time": 261, "note": 68, "velocity": 109, "channel": 0}, {"type": "note_off", "time": 1797, "note": 68, "velocity": 109, "channel": 0}, {"type": "note_on", "time": 168, "note": 70, "velocity": 108, "channel": 0}, {"type": "note_off", "time": 2288, "note": 70, "velocity": 108, "channel": 0}, {"type": "note_on", "time": 307, "note": 71, "velocity": 106, "channel": 0}, {"type": "note_off", "time": 2119, "note": 71, "velocity": 106, "channel": 0}, {"type": "note_on", "time": 476, "note": 75, "velocity": 110, "channel": 0}, {"type": "note_off", "time": 3041, "note": 75, "velocity": 110, "channel": 0}, {"type": "note_on", "time": 476, "note": 70, "velocity": 104, "channel": 0}, {"type": "note_off", "time": 1904, "note": 70, "velocity": 104, "channel": 0}, {"type": "note_on", "time": 506, "note": 68, "velocity": 108, "channel": 0}, {"type": "note_off", "time": 2058, "note": 68, "velocity": 108, "channel": 0}, {"type": "note_on", "time": 491, "note": 73, "velocity": 102, "channel": 0}, {"type": "note_off", "time": 5007, "note": 73, "velocity": 102, "channel": 0}, {"type": "note_on", "time": 414, "note": 70, "velocity": 101, "channel": 0}, {"type": "note_off", "time": 3624, "note": 70, "velocity": 101, "channel": 0}, {"type": "note_on", "time": 307, "note": 66, "velocity": 98, "channel": 0}, {"type": "note_off", "time": 2718, "note": 66, "velocity": 98, "channel": 0}, {"type": "note_on", "time": 109, "note": 68, "velocity": 105, "channel": 0}, {"type": "note_off", "time": 2246, "note": 68, "velocity": 105, "channel": 0}, {"type": "note_on", "time": 518, "note": 70, "velocity": 102, "channel": 0}, {"type": "note_off", "time": 2808, "note": 70, "velocity": 102, "channel": 0}, {"type": "note_on", "time": 259, "note": 69, "velocity": 109, "channel": 0}, {"type": "note_off", "time": 2505, "note": 69, "velocity": 109, "channel": 0}, {"type": "note_on", "time": 345, "note": 68, "velocity": 109, "channel": 0}, {"type": "note_off", "time": 2635, "note": 68, "velocity": 109, "channel": 0}, {"type": "note_on", "time": 648, "note": 67, "velocity": 101, "channel": 0}, {"type": "note_off", "time": 2138, "note": 67, "velocity": 101, "channel": 0}, {"type": "note_on", "time": 388, "note": 65, "velocity": 101, "channel": 0}, {"type": "note_off", "time": 1490, "note": 65, "velocity": 101, "channel": 0}, {"type": "note_on", "time": 583, "note": 66, "velocity": 104, "channel": 0}, {"type": "note_off", "time": 3909, "note": 66, "velocity": 104, "channel": 0}, {"type": "note_on", "time": 108, "note": 63, "velocity": 93, "channel": 0}, {"type": "note_off", "time": 1252, "note": 63, "velocity": 93, "channel": 0}, {"type": "note_on", "time": 280, "note": 64, "velocity": 94, "channel": 0}, {"type": "note_off", "time": 2224, "note": 64, "velocity": 94, "channel": 0}, {"type": "note_on", "time": 388, "note": 59, "velocity": 96, "channel": 0}, {"type": "note_off", "time": 2483, "note": 59, "velocity": 96, "channel": 0}, {"type": "note_on", "time": 1360, "note": 60, "velocity": 97, "channel": 0}, {"type": "note_off", "time": 1512, "note": 60, "velocity": 97, "channel": 0}, {"type": "note_on", "time": 216, "note": 59, "velocity": 90, "channel": 0}, {"type": "note_off", "time": 1468, "note": 59, "velocity": 90, "channel": 0}, {"type": "note_on", "time": 561, "note": 68, "velocity": 104, "channel": 0}, {"type": "note_off", "time": 3024, "note": 68, "velocity": 104, "channel": 0}, {"type": "note_on", "time": 4816, "note": 66, "velocity": 104, "channel": 0}, {"type": "note_off", "time": 1922, "note": 66, "velocity": 104, "channel": 0}, {"type": "note_on", "time": 432, "note": 68, "velocity": 102, "channel": 0}, {"type": "note_off", "time": 1296, "note": 68, "velocity": 102, "channel": 0}, {"type": "note_on", "time": 410, "note": 71, "velocity": 97, "channel": 0}, {"type": "note_off", "time": 1900, "note": 71, "velocity": 97, "channel": 0}, {"type": "note_on", "time": 669, "note": 75, "velocity": 111, "channel": 0}, {"type": "note_off", "time": 1922, "note": 75, "velocity": 111, "channel": 0}, {"type": "note_on", "time": 648, "note": 73, "velocity": 106, "channel": 0}, {"type": "note_off", "time": 2700, "note": 73, "velocity": 106, "channel": 0}, {"type": "note_on", "time": 280, "note": 70, "velocity": 101, "channel": 0}, {"type": "note_off", "time": 3067, "note": 70, "velocity": 101, "channel": 0}, {"type": "note_on", "time": 907, "note": 70, "velocity": 107, "channel": 0}, {"type": "note_off", "time": 3088, "note": 70, "velocity": 107, "channel": 0}, {"type": "note_on", "time": 4514, "note": 66, "velocity": 109, "channel": 0}, {"type": "note_off", "time": 2980, "note": 66, "velocity": 109, "channel": 0}, {"type": "note_on", "time": 172, "note": 63, "velocity": 94, "channel": 0}, {"type": "note_off", "time": 1771, "note": 63, "velocity": 94, "channel": 0}, {"type": "note_on", "time": 302, "note": 61, "velocity": 98, "channel": 0}, {"type": "note_off", "time": 3024, "note": 61, "velocity": 98, "channel": 0}, {"type": "note_on", "time": 151, "note": 58, "velocity": 98, "channel": 0}, {"type": "note_off", "time": 5810, "note": 58, "velocity": 98, "channel": 0}, {"type": "note_on", "time": 324, "note": 58, "velocity": 90, "channel": 0}, {"type": "note_off", "time": 5724, "note": 58, "velocity": 90, "channel": 0}, {"type": "note_on", "time": 18705, "note": 50, "velocity": 112, "channel": 0}, {"type": "note_off", "time": 2030, "note": 50, "velocity": 112, "channel": 0}, {"type": "note_on", "time": 216, "note": 52, "velocity": 111, "channel": 0}, {"type": "note_off", "time": 1296, "note": 52, "velocity": 111, "channel": 0}, {"type": "note_on", "time": 561, "note": 54, "velocity": 103, "channel": 0}, {"type": "note_off", "time": 1468, "note": 54, "velocity": 103, "channel": 0}, {"type": "note_on", "time": 164, "note": 62, "velocity": 112, "channel": 0}, {"type": "note_off", "time": 1013, "note": 62, "velocity": 112, "channel": 0}, {"type": "note_on", "time": 368, "note": 54, "velocity": 117, "channel": 0}, {"type": "note_off", "time": 3102, "note": 54, "velocity": 117, "channel": 0}, {"type": "note_on", "time": 860, "note": 57, "velocity": 103, "channel": 0}, {"type": "note_off", "time": 1413, "note": 57, "velocity": 103, "channel": 0}, {"type": "note_on", "time": 215, "note": 59, "velocity": 100, "channel": 0}, {"type": "note_off", "time": 1228, "note": 59, "velocity": 100, "channel": 0}, {"type": "note_on", "time": 215, "note": 62, "velocity": 105, "channel": 0}, {"type": "note_off", "time": 1474, "note": 62, "velocity": 105, "channel": 0}, {"type": "note_on", "time": 460, "note": 61, "velocity": 103, "channel": 0}, {"type": "note_off", "time": 1505, "note": 61, "velocity": 103, "channel": 0}, {"type": "note_on", "time": 276, "note": 59, "velocity": 95, "channel": 0}, {"type": "note_off", "time": 1259, "note": 59, "velocity": 95, "channel": 0}, {"type": "note_on", "time": 552, "note": 62, "velocity": 96, "channel": 0}, {"type": "note_off", "time": 1228, "note": 62, "velocity": 96, "channel": 0}, {"type": "note_on", "time": 168, "note": 66, "velocity": 107, "channel": 0}, {"type": "note_off", "time": 3283, "note": 66, "velocity": 107, "channel": 0}, {"type": "note_on", "time": 172, "note": 62, "velocity": 106, "channel": 0}, {"type": "note_off", "time": 1576, "note": 62, "velocity": 106, "channel": 0}, {"type": "note_on", "time": 367, "note": 64, "velocity": 101, "channel": 0}, {"type": "note_off", "time": 1382, "note": 64, "velocity": 101, "channel": 0}, {"type": "note_on", "time": 799, "note": 66, "velocity": 106, "channel": 0}, {"type": "note_off", "time": 3045, "note": 66, "velocity": 106, "channel": 0}, {"type": "note_on", "time": 604, "note": 74, "velocity": 95, "channel": 0}, {"type": "note_off", "time": 1339, "note": 74, "velocity": 95, "channel": 0}, {"type": "note_on", "time": 151, "note": 78, "velocity": 114, "channel": 0}, {"type": "note_off", "time": 1814, "note": 78, "velocity": 114, "channel": 0}, {"type": "note_on", "time": 820, "note": 76, "velocity": 117, "channel": 0}, {"type": "note_off", "time": 6177, "note": 76, "velocity": 117, "channel": 0}, {"type": "note_on", "time": 5032, "note": 74, "velocity": 112, "channel": 0}, {"type": "note_off", "time": 3175, "note": 74, "velocity": 112, "channel": 0}, {"type": "note_on", "time": 302, "note": 73, "velocity": 109, "channel": 0}, {"type": "note_off", "time": 2008, "note": 73, "velocity": 109, "channel": 0}, {"type": "note_on", "time": 323, "note": 72, "velocity": 109, "channel": 0}, {"type": "note_off", "time": 2181, "note": 72, "velocity": 109, "channel": 0}, {"type": "note_on", "time": 302, "note": 71, "velocity": 112, "channel": 0}, {"type": "note_off", "time": 2462, "note": 71, "velocity": 112, "channel": 0}, {"type": "note_on", "time": 259, "note": 70, "velocity": 112, "channel": 0}, {"type": "note_off", "time": 1620, "note": 70, "velocity": 112, "channel": 0}, {"type": "note_on", "time": 324, "note": 69, "velocity": 111, "channel": 0}, {"type": "note_off", "time": 2332, "note": 69, "velocity": 111, "channel": 0}, {"type": "note_on", "time": 302, "note": 68, "velocity": 114, "channel": 0}, {"type": "note_off", "time": 2484, "note": 68, "velocity": 114, "channel": 0}, {"type": "note_on", "time": 302, "note": 67, "velocity": 108, "channel": 0}, {"type": "note_off", "time": 2376, "note": 67, "velocity": 108, "channel": 0}, {"type": "note_on", "time": 431, "note": 66, "velocity": 110, "channel": 0}, {"type": "note_off", "time": 3110, "note": 66, "velocity": 110, "channel": 0}, {"type": "note_on", "time": 345, "note": 65, "velocity": 94, "channel": 0}, {"type": "note_off", "time": 1663, "note": 65, "velocity": 94, "channel": 0}, {"type": "note_on", "time": 1339, "note": 63, "velocity": 103, "channel": 0}, {"type": "note_off", "time": 2505, "note": 63, "velocity": 103, "channel": 0}, {"type": "note_on", "time": 604, "note": 67, "velocity": 109, "channel": 0}, {"type": "note_off", "time": 2700, "note": 67, "velocity": 109, "channel": 0}, {"type": "note_on", "time": 5313, "note": 65, "velocity": 111, "channel": 0}, {"type": "note_off", "time": 3261, "note": 65, "velocity": 111, "channel": 0}, {"type": "note_on", "time": 1404, "note": 63, "velocity": 99, "channel": 0}, {"type": "note_off", "time": 3067, "note": 63, "velocity": 99, "channel": 0}, {"type": "note_on", "time": 237, "note": 65, "velocity": 98, "channel": 0}, {"type": "note_off", "time": 2440, "note": 65, "velocity": 98, "channel": 0}, {"type": "note_on", "time": 648, "note": 68, "velocity": 100, "channel": 0}, {"type": "note_off", "time": 1447, "note": 68, "velocity": 100, "channel": 0}, {"type": "note_on", "time": 626, "note": 75, "velocity": 107, "channel": 0}, {"type": "note_off", "time": 1684, "note": 75, "velocity": 107, "channel": 0}, {"type": "note_on", "time": 561, "note": 79, "velocity": 108, "channel": 0}, {"type": "note_off", "time": 4730, "note": 79, "velocity": 108, "channel": 0}, {"type": "note_on", "time": 21, "note": 75, "velocity": 115, "channel": 0}, {"type": "note_off", "time": 4557, "note": 75, "velocity": 115, "channel": 0}, {"type": "note_on", "time": 345, "note": 79, "velocity": 101, "channel": 0}, {"type": "note_off", "time": 4449, "note": 79, "velocity": 101, "channel": 0}, {"type": "note_on", "time": 194, "note": 75, "velocity": 114, "channel": 0}, {"type": "note_off", "time": 5378, "note": 75, "velocity": 114, "channel": 0}, {"type": "note_on", "time": 302, "note": 72, "velocity": 107, "channel": 0}, {"type": "note_off", "time": 3348, "note": 72, "velocity": 107, "channel": 0}, {"type": "note_on", "time": 1576, "note": 75, "velocity": 109, "channel": 0}, {"type": "note_off", "time": 5119, "note": 75, "velocity": 109, "channel": 0}, {"type": "note_on", "time": 1144, "note": 68, "velocity": 89, "channel": 0}, {"type": "note_off", "time": 2419, "note": 68, "velocity": 89, "channel": 0}, {"type": "note_on", "time": 1792, "note": 72, "velocity": 108, "channel": 0}, {"type": "note_off", "time": 9396, "note": 72, "velocity": 108, "channel": 0}, {"type": "note_on", "time": 9806, "note": 72, "velocity": 99, "channel": 0}, {"type": "note_off", "time": 4881, "note": 72, "velocity": 99, "channel": 0}, {"type": "note_on", "time": 2525, "note": 60, "velocity": 101, "channel": 0}, {"type": "note_off", "time": 2851, "note": 60, "velocity": 101, "channel": 0}, {"type": "note_on", "time": 1621, "note": 72, "velocity": 91, "channel": 0}, {"type": "note_off", "time": 3628, "note": 72, "velocity": 91, "channel": 0}, {"type": "note_on", "time": 1114, "note": 72, "velocity": 85, "channel": 0}, {"type": "note_off", "time": 3010, "note": 72, "velocity": 85, "channel": 0}, {"type": "note_on", "time": 1474, "note": 72, "velocity": 105, "channel": 0}, {"type": "note_off", "time": 6266, "note": 72, "velocity": 105, "channel": 0}, {"type": "note_on", "time": 1474, "note": 60, "velocity": 101, "channel": 0}, {"type": "note_off", "time": 2088, "note": 60, "velocity": 101, "channel": 0}, {"type": "note_on", "time": 1105, "note": 69, "velocity": 110, "channel": 0}, {"type": "note_off", "time": 12072, "note": 69, "velocity": 110, "channel": 0}, {"type": "note_on", "time": 322, "note": 70, "velocity": 106, "channel": 0}, {"type": "note_off", "time": 1966, "note": 70, "velocity": 106, "channel": 0}, {"type": "note_on", "time": 506, "note": 72, "velocity": 99, "channel": 0}, {"type": "note_off", "time": 1812, "note": 72, "velocity": 99, "channel": 0}, {"type": "note_on", "time": 322, "note": 74, "velocity": 107, "channel": 0}, {"type": "note_off", "time": 2426, "note": 74, "velocity": 107, "channel": 0}, {"type": "note_on", "time": 710, "note": 69, "velocity": 103, "channel": 0}, {"type": "note_off", "time": 7819, "note": 69, "velocity": 103, "channel": 0}, {"type": "note_on", "time": 13573, "note": 67, "velocity": 111, "channel": 0}, {"type": "note_off", "time": 2488, "note": 67, "velocity": 111, "channel": 0}, {"type": "note_on", "time": 138, "note": 68, "velocity": 108, "channel": 0}, {"type": "note_off", "time": 1735, "note": 68, "velocity": 108, "channel": 0}, {"type": "note_on", "time": 245, "note": 70, "velocity": 107, "channel": 0}, {"type": "note_off", "time": 2088, "note": 70, "velocity": 107, "channel": 0}, {"type": "note_on", "time": 383, "note": 71, "velocity": 105, "channel": 0}, {"type": "note_off", "time": 2795, "note": 71, "velocity": 105, "channel": 0}, {"type": "note_on", "time": 291, "note": 75, "velocity": 112, "channel": 0}, {"type": "note_off", "time": 2764, "note": 75, "velocity": 112, "channel": 0}, {"type": "note_on", "time": 153, "note": 74, "velocity": 103, "channel": 0}, {"type": "note_off", "time": 1443, "note": 74, "velocity": 103, "channel": 0}, {"type": "note_on", "time": 4193, "note": 73, "velocity": 106, "channel": 0}, {"type": "note_off", "time": 3179, "note": 73, "velocity": 106, "channel": 0}, {"type": "note_on", "time": 906, "note": 66, "velocity": 94, "channel": 0}, {"type": "note_off", "time": 1843, "note": 66, "velocity": 94, "channel": 0}, {"type": "note_on", "time": 76, "note": 68, "velocity": 98, "channel": 0}, {"type": "note_off", "time": 1152, "note": 68, "velocity": 98, "channel": 0}, {"type": "note_on", "time": 92, "note": 71, "velocity": 108, "channel": 0}, {"type": "note_off", "time": 2841, "note": 71, "velocity": 108, "channel": 0}, {"type": "note_on", "time": 291, "note": 70, "velocity": 108, "channel": 0}, {"type": "note_off", "time": 2181, "note": 70, "velocity": 108, "channel": 0}, {"type": "note_on", "time": 384, "note": 66, "velocity": 101, "channel": 0}, {"type": "note_off", "time": 2918, "note": 66, "velocity": 101, "channel": 0}, {"type": "note_on", "time": 460, "note": 63, "velocity": 95, "channel": 0}, {"type": "note_off", "time": 2088, "note": 63, "velocity": 95, "channel": 0}, {"type": "note_on", "time": 1597, "note": 61, "velocity": 92, "channel": 0}, {"type": "note_off", "time": 2181, "note": 61, "velocity": 92, "channel": 0}, {"type": "note_on", "time": 4691, "note": 63, "velocity": 91, "channel": 0}, {"type": "note_off", "time": 1684, "note": 63, "velocity": 91, "channel": 0}, {"type": "note_on", "time": 2225, "note": 66, "velocity": 114, "channel": 0}, {"type": "note_off", "time": 2734, "note": 66, "velocity": 114, "channel": 0}, {"type": "note_on", "time": 506, "note": 63, "velocity": 94, "channel": 0}, {"type": "note_off", "time": 2365, "note": 63, "velocity": 94, "channel": 0}, {"type": "note_on", "time": 3932, "note": 61, "velocity": 106, "channel": 0}, {"type": "note_off", "time": 6481, "note": 61, "velocity": 106, "channel": 0}, {"type": "note_on", "time": 983, "note": 58, "velocity": 100, "channel": 0}, {"type": "note_off", "time": 1797, "note": 58, "velocity": 100, "channel": 0}, {"type": "note_on", "time": 245, "note": 59, "velocity": 102, "channel": 0}, {"type": "note_off", "time": 2734, "note": 59, "velocity": 102, "channel": 0}, {"type": "note_on", "time": 3164, "note": 51, "velocity": 108, "channel": 0}, {"type": "note_off", "time": 3302, "note": 51, "velocity": 108, "channel": 0}, {"type": "note_on", "time": 18600, "note": 52, "velocity": 109, "channel": 0}, {"type": "note_off", "time": 2242, "note": 52, "velocity": 109, "channel": 0}, {"type": "note_on", "time": 814, "note": 57, "velocity": 106, "channel": 0}, {"type": "note_off", "time": 5483, "note": 57, "velocity": 106, "channel": 0}, {"type": "note_on", "time": 1704, "note": 54, "velocity": 110, "channel": 0}, {"type": "note_off", "time": 1735, "note": 54, "velocity": 110, "channel": 0}, {"type": "note_on", "time": 522, "note": 59, "velocity": 108, "channel": 0}, {"type": "note_off", "time": 5760, "note": 59, "velocity": 108, "channel": 0}, {"type": "note_on", "time": 460, "note": 57, "velocity": 102, "channel": 0}, {"type": "note_off", "time": 2058, "note": 57, "velocity": 102, "channel": 0}, {"type": "note_on", "time": 399, "note": 61, "velocity": 113, "channel": 0}, {"type": "note_off", "time": 6988, "note": 61, "velocity": 113, "channel": 0}, {"type": "note_on", "time": 460, "note": 59, "velocity": 103, "channel": 0}, {"type": "note_off", "time": 2672, "note": 59, "velocity": 103, "channel": 0}, {"type": "note_on", "time": 399, "note": 64, "velocity": 112, "channel": 0}, {"type": "note_off", "time": 2273, "note": 64, "velocity": 112, "channel": 0}, {"type": "note_on", "time": 245, "note": 61, "velocity": 107, "channel": 0}, {"type": "note_off", "time": 2135, "note": 61, "velocity": 107, "channel": 0}, {"type": "note_on", "time": 491, "note": 69, "velocity": 111, "channel": 0}, {"type": "note_off", "time": 2442, "note": 69, "velocity": 111, "channel": 0}, {"type": "note_on", "time": 230, "note": 66, "velocity": 109, "channel": 0}, {"type": "note_off", "time": 1996, "note": 66, "velocity": 109, "channel": 0}, {"type": "note_on", "time": 430, "note": 71, "velocity": 115, "channel": 0}, {"type": "note_off", "time": 2242, "note": 71, "velocity": 115, "channel": 0}, {"type": "note_on", "time": 307, "note": 69, "velocity": 115, "channel": 0}, {"type": "note_off", "time": 1920, "note": 69, "velocity": 115, "channel": 0}, {"type": "note_on", "time": 337, "note": 73, "velocity": 109, "channel": 0}, {"type": "note_off", "time": 1889, "note": 73, "velocity": 109, "channel": 0}, {"type": "note_on", "time": 30, "note": 71, "velocity": 108, "channel": 0}, {"type": "note_off", "time": 2380, "note": 71, "velocity": 108, "channel": 0}, {"type": "note_on", "time": 522, "note": 76, "velocity": 111, "channel": 0}, {"type": "note_off", "time": 2365, "note": 76, "velocity": 111, "channel": 0}, {"type": "note_on", "time": 384, "note": 71, "velocity": 109, "channel": 0}, {"type": "note_off", "time": 1812, "note": 71, "velocity": 109, "channel": 0}, {"type": "note_on", "time": 539, "note": 73, "velocity": 91, "channel": 0}, {"type": "note_off", "time": 1728, "note": 73, "velocity": 91, "channel": 0}, {"type": "note_on", "time": 282, "note": 75, "velocity": 112, "channel": 0}, {"type": "note_off", "time": 2826, "note": 75, "velocity": 112, "channel": 0}, {"type": "note_on", "time": 645, "note": 71, "velocity": 98, "channel": 0}, {"type": "note_off", "time": 3640, "note": 71, "velocity": 98, "channel": 0}, {"type": "note_on", "time": 2657, "note": 75, "velocity": 111, "channel": 0}, {"type": "note_off", "time": 2872, "note": 75, "velocity": 111, "channel": 0}, {"type": "note_on", "time": 562, "note": 66, "velocity": 104, "channel": 0}, {"type": "note_off", "time": 1583, "note": 66, "velocity": 104, "channel": 0}, {"type": "note_on", "time": 285, "note": 68, "velocity": 106, "channel": 0}, {"type": "note_off", "time": 1964, "note": 68, "velocity": 106, "channel": 0}, {"type": "note_on", "time": 479, "note": 71, "velocity": 102, "channel": 0}, {"type": "note_off", "time": 4665, "note": 71, "velocity": 102, "channel": 0}, {"type": "note_on", "time": 289, "note": 66, "velocity": 106, "channel": 0}, {"type": "note_off", "time": 2626, "note": 66, "velocity": 106, "channel": 0}, {"type": "note_on", "time": 291, "note": 63, "velocity": 97, "channel": 0}, {"type": "note_off", "time": 2565, "note": 63, "velocity": 97, "channel": 0}, {"type": "note_on", "time": 1090, "note": 68, "velocity": 108, "channel": 0}, {"type": "note_off", "time": 3348, "note": 68, "velocity": 108, "channel": 0}, {"type": "note_on", "time": 261, "note": 63, "velocity": 91, "channel": 0}, {"type": "note_off", "time": 1228, "note": 63, "velocity": 91, "channel": 0}, {"type": "note_on", "time": 445, "note": 66, "velocity": 111, "channel": 0}, {"type": "note_off", "time": 3993, "note": 66, "velocity": 111, "channel": 0}, {"type": "note_on", "time": 2242, "note": 63, "velocity": 103, "channel": 0}, {"type": "note_off", "time": 2350, "note": 63, "velocity": 103, "channel": 0}, {"type": "note_on", "time": 522, "note": 59, "velocity": 102, "channel": 0}, {"type": "note_off", "time": 2165, "note": 59, "velocity": 102, "channel": 0}, {"type": "note_on", "time": 510, "note": 58, "velocity": 98, "channel": 0}, {"type": "note_off", "time": 1814, "note": 58, "velocity": 98, "channel": 0}, {"type": "note_on", "time": 216, "note": 56, "velocity": 95, "channel": 0}, {"type": "note_off", "time": 1425, "note": 56, "velocity": 95, "channel": 0}, {"type": "note_on", "time": 134, "note": 61, "velocity": 106, "channel": 0}, {"type": "note_off", "time": 6835, "note": 61, "velocity": 106, "channel": 0}, {"type": "note_on", "time": 783, "note": 58, "velocity": 101, "channel": 0}, {"type": "note_off", "time": 1594, "note": 58, "velocity": 101, "channel": 0}, {"type": "note_on", "time": 306, "note": 59, "velocity": 102, "channel": 0}, {"type": "note_off", "time": 3062, "note": 59, "velocity": 102, "channel": 0}, {"type": "note_on", "time": 611, "note": 66, "velocity": 112, "channel": 0}, {"type": "note_off", "time": 7970, "note": 66, "velocity": 112, "channel": 0}, {"type": "note_on", "time": 16269, "note": 58, "velocity": 99, "channel": 0}, {"type": "note_off", "time": 1720, "note": 58, "velocity": 99, "channel": 0}, {"type": "note_on", "time": 1351, "note": 59, "velocity": 101, "channel": 0}, {"type": "note_off", "time": 1658, "note": 59, "velocity": 101, "channel": 0}, {"type": "note_on", "time": 556, "note": 63, "velocity": 99, "channel": 0}, {"type": "note_off", "time": 2786, "note": 63, "velocity": 99, "channel": 0}, {"type": "note_on", "time": 540, "note": 66, "velocity": 110, "channel": 0}, {"type": "note_off", "time": 2527, "note": 66, "velocity": 110, "channel": 0}, {"type": "note_on", "time": 0, "note": 68, "velocity": 115, "channel": 0}, {"type": "note_off", "time": 3499, "note": 68, "velocity": 115, "channel": 0}, {"type": "note_on", "time": 259, "note": 66, "velocity": 100, "channel": 0}, {"type": "note_off", "time": 2332, "note": 66, "velocity": 100, "channel": 0}, {"type": "note_on", "time": 583, "note": 68, "velocity": 110, "channel": 0}, {"type": "note_off", "time": 8208, "note": 68, "velocity": 110, "channel": 0}, {"type": "note_on", "time": 885, "note": 66, "velocity": 98, "channel": 0}, {"type": "note_off", "time": 3715, "note": 66, "velocity": 98, "channel": 0}, {"type": "note_on", "time": 496, "note": 68, "velocity": 108, "channel": 0}, {"type": "note_off", "time": 13413, "note": 68, "velocity": 108, "channel": 0}, {"type": "note_on", "time": 280, "note": 71, "velocity": 103, "channel": 0}, {"type": "note_off", "time": 1987, "note": 71, "velocity": 103, "channel": 0}, {"type": "note_on", "time": 583, "note": 73, "velocity": 110, "channel": 0}, {"type": "note_off", "time": 2613, "note": 73, "velocity": 110, "channel": 0}, {"type": "note_on", "time": 561, "note": 75, "velocity": 111, "channel": 0}, {"type": "note_off", "time": 15768, "note": 75, "velocity": 111, "channel": 0}, {"type": "note_on", "time": 345, "note": 76, "velocity": 112, "channel": 0}, {"type": "note_off", "time": 2224, "note": 76, "velocity": 112, "channel": 0}, {"type": "note_on", "time": 432, "note": 78, "velocity": 108, "channel": 0}, {"type": "note_off", "time": 2268, "note": 78, "velocity": 108, "channel": 0}, {"type": "note_on", "time": 43, "note": 76, "velocity": 108, "channel": 0}, {"type": "note_off", "time": 16113, "note": 76, "velocity": 108, "channel": 0}, {"type": "note_on", "time": 440, "note": 78, "velocity": 97, "channel": 0}, {"type": "note_off", "time": 2626, "note": 78, "velocity": 97, "channel": 0}, {"type": "note_on", "time": 168, "note": 80, "velocity": 92, "channel": 0}, {"type": "note_off", "time": 4654, "note": 80, "velocity": 92, "channel": 0}, {"type": "note_on", "time": 476, "note": 75, "velocity": 103, "channel": 0}, {"type": "note_off", "time": 7680, "note": 75, "velocity": 103, "channel": 0}, {"type": "note_on", "time": 767, "note": 73, "velocity": 106, "channel": 0}, {"type": "note_off", "time": 4270, "note": 73, "velocity": 106, "channel": 0}, {"type": "note_on", "time": 2764, "note": 78, "velocity": 106, "channel": 0}, {"type": "note_off", "time": 16527, "note": 78, "velocity": 106, "channel": 0}, {"type": "note_on", "time": 19691, "note": 78, "velocity": 109, "channel": 0}, {"type": "note_off", "time": 10967, "note": 78, "velocity": 109, "channel": 0}, {"type": "note_on", "time": 399, "note": 76, "velocity": 108, "channel": 0}, {"type": "note_off", "time": 5775, "note": 76, "velocity": 108, "channel": 0}, {"type": "note_on", "time": 614, "note": 78, "velocity": 105, "channel": 0}, {"type": "note_off", "time": 10260, "note": 78, "velocity": 105, "channel": 0}, {"type": "note_on", "time": 1075, "note": 80, "velocity": 104, "channel": 0}, {"type": "note_off", "time": 8785, "note": 80, "velocity": 104, "channel": 0}, {"type": "note_on", "time": 30, "note": 73, "velocity": 100, "channel": 0}, {"type": "note_off", "time": 10045, "note": 73, "velocity": 100, "channel": 0}, {"type": "note_on", "time": 737, "note": 73, "velocity": 101, "channel": 0}, {"type": "note_off", "time": 6144, "note": 73, "velocity": 101, "channel": 0}, {"type": "note_on", "time": 765, "note": 71, "velocity": 110, "channel": 0}, {"type": "note_off", "time": 2856, "note": 71, "velocity": 110, "channel": 0}, {"type": "note_on", "time": 525, "note": 73, "velocity": 101, "channel": 0}, {"type": "note_off", "time": 2703, "note": 73, "velocity": 101, "channel": 0}, {"type": "note_on", "time": 768, "note": 75, "velocity": 109, "channel": 0}, {"type": "note_off", "time": 2396, "note": 75, "velocity": 109, "channel": 0}, {"type": "note_on", "time": 737, "note": 78, "velocity": 95, "channel": 0}, {"type": "note_off", "time": 3194, "note": 78, "velocity": 95, "channel": 0}, {"type": "note_on", "time": 1044, "note": 70, "velocity": 106, "channel": 0}, {"type": "note_off", "time": 3072, "note": 70, "velocity": 106, "channel": 0}, {"type": "note_on", "time": 153, "note": 76, "velocity": 86, "channel": 0}, {"type": "note_off", "time": 2058, "note": 76, "velocity": 86, "channel": 0}, {"type": "note_on", "time": 1635, "note": 70, "velocity": 113, "channel": 0}, {"type": "note_off", "time": 2119, "note": 70, "velocity": 113, "channel": 0}, {"type": "note_on", "time": 1466, "note": 76, "velocity": 91, "channel": 0}, {"type": "note_off", "time": 2119, "note": 76, "velocity": 91, "channel": 0}, {"type": "note_on", "time": 1320, "note": 68, "velocity": 113, "channel": 0}, {"type": "note_off", "time": 3102, "note": 68, "velocity": 113, "channel": 0}, {"type": "note_on", "time": 3563, "note": 66, "velocity": 101, "channel": 0}, {"type": "note_off", "time": 5222, "note": 66, "velocity": 101, "channel": 0}, {"type": "note_on", "time": 3116, "note": 67, "velocity": 106, "channel": 0}, {"type": "note_off", "time": 2426, "note": 67, "velocity": 106, "channel": 0}, {"type": "note_on", "time": 1307, "note": 59, "velocity": 98, "channel": 0}, {"type": "note_off", "time": 2918, "note": 59, "velocity": 98, "channel": 0}, {"type": "note_on", "time": 952, "note": 63, "velocity": 106, "channel": 0}, {"type": "note_off", "time": 1720, "note": 63, "velocity": 106, "channel": 0}, {"type": "note_on", "time": 178, "note": 67, "velocity": 112, "channel": 0}, {"type": "note_off", "time": 3133, "note": 67, "velocity": 112, "channel": 0}, {"type": "note_on", "time": 2801, "note": 63, "velocity": 105, "channel": 0}, {"type": "note_off", "time": 3379, "note": 63, "velocity": 105, "channel": 0}, {"type": "note_on", "time": 2090, "note": 59, "velocity": 99, "channel": 0}, {"type": "note_off", "time": 1814, "note": 59, "velocity": 99, "channel": 0}, {"type": "note_on", "time": 1286, "note": 66, "velocity": 109, "channel": 0}, {"type": "note_off", "time": 3256, "note": 66, "velocity": 109, "channel": 0}, {"type": "note_on", "time": 645, "note": 63, "velocity": 104, "channel": 0}, {"type": "note_off", "time": 1996, "note": 63, "velocity": 104, "channel": 0}, {"type": "note_on", "time": 798, "note": 59, "velocity": 91, "channel": 0}, {"type": "note_off", "time": 5928, "note": 59, "velocity": 91, "channel": 0}, {"type": "note_on", "time": 1198, "note": 63, "velocity": 104, "channel": 0}, {"type": "note_off", "time": 3932, "note": 63, "velocity": 104, "channel": 0}, {"type": "note_on", "time": 860, "note": 58, "velocity": 103, "channel": 0}, {"type": "note_off", "time": 2918, "note": 58, "velocity": 103, "channel": 0}, {"type": "note_on", "time": 491, "note": 54, "velocity": 104, "channel": 0}, {"type": "note_off", "time": 11304, "note": 54, "velocity": 104, "channel": 0}, {"type": "note_on", "time": 10828, "note": 62, "velocity": 117, "channel": 0}, {"type": "note_off", "time": 6393, "note": 62, "velocity": 117, "channel": 0}, {"type": "note_on", "time": 734, "note": 61, "velocity": 113, "channel": 0}, {"type": "note_off", "time": 2656, "note": 61, "velocity": 113, "channel": 0}, {"type": "note_on", "time": 324, "note": 62, "velocity": 114, "channel": 0}, {"type": "note_off", "time": 1576, "note": 62, "velocity": 114, "channel": 0}, {"type": "note_on", "time": 345, "note": 69, "velocity": 118, "channel": 0}, {"type": "note_off", "time": 2073, "note": 69, "velocity": 118, "channel": 0}, {"type": "note_on", "time": 712, "note": 61, "velocity": 116, "channel": 0}, {"type": "note_off", "time": 2462, "note": 61, "velocity": 116, "channel": 0}, {"type": "note_on", "time": 345, "note": 62, "velocity": 111, "channel": 0}, {"type": "note_off", "time": 1684, "note": 62, "velocity": 111, "channel": 0}, {"type": "note_on", "time": 302, "note": 66, "velocity": 120, "channel": 0}, {"type": "note_off", "time": 3456, "note": 66, "velocity": 120, "channel": 0}, {"type": "note_on", "time": 519, "note": 61, "velocity": 116, "channel": 0}, {"type": "note_off", "time": 1911, "note": 61, "velocity": 116, "channel": 0}, {"type": "note_on", "time": 200, "note": 62, "velocity": 110, "channel": 0}, {"type": "note_off", "time": 707, "note": 62, "velocity": 110, "channel": 0}, {"type": "note_on", "time": 221, "note": 64, "velocity": 103, "channel": 0}, {"type": "note_off", "time": 802, "note": 64, "velocity": 103, "channel": 0}, {"type": "note_on", "time": 369, "note": 66, "velocity": 106, "channel": 0}, {"type": "note_off", "time": 4466, "note": 66, "velocity": 106, "channel": 0}, {"type": "note_on", "time": 248, "note": 71, "velocity": 102, "channel": 0}, {"type": "note_off", "time": 1474, "note": 71, "velocity": 102, "channel": 0}, {"type": "note_on", "time": 430, "note": 73, "velocity": 112, "channel": 0}, {"type": "note_off", "time": 2242, "note": 73, "velocity": 112, "channel": 0}, {"type": "note_on", "time": 491, "note": 78, "velocity": 120, "channel": 0}, {"type": "note_off", "time": 3932, "note": 78, "velocity": 120, "channel": 0}, {"type": "note_on", "time": 4617, "note": 76, "velocity": 120, "channel": 0}, {"type": "note_off", "time": 3348, "note": 76, "velocity": 120, "channel": 0}, {"type": "note_on", "time": 410, "note": 74, "velocity": 116, "channel": 0}, {"type": "note_off", "time": 2008, "note": 74, "velocity": 116, "channel": 0}, {"type": "note_on", "time": 345, "note": 73, "velocity": 106, "channel": 0}, {"type": "note_off", "time": 1987, "note": 73, "velocity": 106, "channel": 0}, {"type": "note_on", "time": 410, "note": 71, "velocity": 116, "channel": 0}, {"type": "note_off", "time": 2980, "note": 71, "velocity": 116, "channel": 0}, {"type": "note_on", "time": 172, "note": 69, "velocity": 111, "channel": 0}, {"type": "note_off", "time": 1749, "note": 69, "velocity": 111, "channel": 0}, {"type": "note_on", "time": 237, "note": 66, "velocity": 111, "channel": 0}, {"type": "note_off", "time": 2419, "note": 66, "velocity": 111, "channel": 0}, {"type": "note_on", "time": 280, "note": 64, "velocity": 102, "channel": 0}, {"type": "note_off", "time": 2052, "note": 64, "velocity": 102, "channel": 0}, {"type": "note_on", "time": 1944, "note": 77, "velocity": 118, "channel": 0}, {"type": "note_off", "time": 6912, "note": 77, "velocity": 118, "channel": 0}, {"type": "note_on", "time": 410, "note": 76, "velocity": 117, "channel": 0}, {"type": "note_off", "time": 1749, "note": 76, "velocity": 117, "channel": 0}, {"type": "note_on", "time": 496, "note": 75, "velocity": 114, "channel": 0}, {"type": "note_off", "time": 2246, "note": 75, "velocity": 114, "channel": 0}, {"type": "note_on", "time": 959, "note": 72, "velocity": 111, "channel": 0}, {"type": "note_off", "time": 1674, "note": 72, "velocity": 111, "channel": 0}, {"type": "note_on", "time": 614, "note": 73, "velocity": 110, "channel": 0}, {"type": "note_off", "time": 2457, "note": 73, "velocity": 110, "channel": 0}, {"type": "note_on", "time": 368, "note": 65, "velocity": 115, "channel": 0}, {"type": "note_off", "time": 1720, "note": 65, "velocity": 115, "channel": 0}, {"type": "note_on", "time": 476, "note": 68, "velocity": 112, "channel": 0}, {"type": "note_off", "time": 1920, "note": 68, "velocity": 112, "channel": 0}, {"type": "note_on", "time": 399, "note": 72, "velocity": 110, "channel": 0}, {"type": "note_off", "time": 2304, "note": 72, "velocity": 110, "channel": 0}, {"type": "note_on", "time": 337, "note": 71, "velocity": 103, "channel": 0}, {"type": "note_off", "time": 1920, "note": 71, "velocity": 103, "channel": 0}, {"type": "note_on", "time": 1751, "note": 69, "velocity": 106, "channel": 0}, {"type": "note_off", "time": 1213, "note": 69, "velocity": 106, "channel": 0}, {"type": "note_on", "time": 122, "note": 70, "velocity": 106, "channel": 0}, {"type": "note_off", "time": 4515, "note": 70, "velocity": 106, "channel": 0}, {"type": "note_on", "time": 2565, "note": 65, "velocity": 110, "channel": 0}, {"type": "note_off", "time": 1566, "note": 65, "velocity": 110, "channel": 0}, {"type": "note_on", "time": 460, "note": 68, "velocity": 113, "channel": 0}, {"type": "note_off", "time": 3148, "note": 68, "velocity": 113, "channel": 0}, {"type": "note_on", "time": 168, "note": 67, "velocity": 114, "channel": 0}, {"type": "note_off", "time": 6251, "note": 67, "velocity": 114, "channel": 0}, {"type": "note_on", "time": 552, "note": 63, "velocity": 103, "channel": 0}, {"type": "note_off", "time": 2872, "note": 63, "velocity": 103, "channel": 0}, {"type": "note_on", "time": 891, "note": 60, "velocity": 97, "channel": 0}, {"type": "note_off", "time": 10756, "note": 60, "velocity": 97, "channel": 0}, {"type": "note_on", "time": 9849, "note": 54, "velocity": 113, "channel": 0}, {"type": "note_off", "time": 2851, "note": 54, "velocity": 113, "channel": 0}, {"type": "note_on", "time": 496, "note": 58, "velocity": 104, "channel": 0}, {"type": "note_off", "time": 1728, "note": 58, "velocity": 104, "channel": 0}, {"type": "note_on", "time": 259, "note": 53, "velocity": 110, "channel": 0}, {"type": "note_off", "time": 2829, "note": 53, "velocity": 110, "channel": 0}, {"type": "note_on", "time": 280, "note": 55, "velocity": 110, "channel": 0}, {"type": "note_off", "time": 1598, "note": 55, "velocity": 110, "channel": 0}, {"type": "note_on", "time": 129, "note": 58, "velocity": 101, "channel": 0}, {"type": "note_on", "time": 1295, "note": 62, "velocity": 109, "channel": 0}, {"type": "note_off", "time": 0, "note": 58, "velocity": 101, "channel": 0}, {"type": "note_off", "time": 1792, "note": 62, "velocity": 109, "channel": 0}, {"type": "note_on", "time": 475, "note": 60, "velocity": 101, "channel": 0}, {"type": "note_off", "time": 1706, "note": 60, "velocity": 101, "channel": 0}, {"type": "note_on", "time": 259, "note": 62, "velocity": 108, "channel": 0}, {"type": "note_off", "time": 3412, "note": 62, "velocity": 108, "channel": 0}, {"type": "note_on", "time": 280, "note": 65, "velocity": 115, "channel": 0}, {"type": "note_off", "time": 1231, "note": 65, "velocity": 115, "channel": 0}, {"type": "note_on", "time": 172, "note": 69, "velocity": 110, "channel": 0}, {"type": "note_off", "time": 1836, "note": 69, "velocity": 110, "channel": 0}, {"type": "note_on", "time": 367, "note": 67, "velocity": 111, "channel": 0}, {"type": "note_off", "time": 885, "note": 67, "velocity": 111, "channel": 0}, {"type": "note_on", "time": 151, "note": 65, "velocity": 104, "channel": 0}, {"type": "note_off", "time": 1101, "note": 65, "velocity": 104, "channel": 0}, {"type": "note_on", "time": 194, "note": 64, "velocity": 109, "channel": 0}, {"type": "note_off", "time": 1684, "note": 64, "velocity": 109, "channel": 0}, {"type": "note_on", "time": 104, "note": 65, "velocity": 110, "channel": 0}, {"type": "note_off", "time": 1668, "note": 65, "velocity": 110, "channel": 0}, {"type": "note_on", "time": 106, "note": 70, "velocity": 113, "channel": 0}, {"type": "note_off", "time": 1015, "note": 70, "velocity": 113, "channel": 0}, {"type": "note_on", "time": 103, "note": 74, "velocity": 116, "channel": 0}, {"type": "note_off", "time": 1393, "note": 74, "velocity": 116, "channel": 0}, {"type": "note_on", "time": 137, "note": 72, "velocity": 113, "channel": 0}, {"type": "note_off", "time": 1541, "note": 72, "velocity": 113, "channel": 0}, {"type": "note_on", "time": 95, "note": 70, "velocity": 108, "channel": 0}, {"type": "note_off", "time": 960, "note": 70, "velocity": 108, "channel": 0}, {"type": "note_on", "time": 131, "note": 69, "velocity": 107, "channel": 0}, {"type": "note_off", "time": 2548, "note": 69, "velocity": 107, "channel": 0}, {"type": "note_on", "time": 453, "note": 79, "velocity": 104, "channel": 0}, {"type": "note_off", "time": 2786, "note": 79, "velocity": 104, "channel": 0}, {"type": "note_on", "time": 86, "note": 77, "velocity": 120, "channel": 0}, {"type": "note_off", "time": 1166, "note": 77, "velocity": 120, "channel": 0}, {"type": "note_on", "time": 648, "note": 76, "velocity": 110, "channel": 0}, {"type": "note_off", "time": 6328, "note": 76, "velocity": 110, "channel": 0}, {"type": "note_on", "time": 8575, "note": 74, "velocity": 80, "channel": 0}, {"type": "note_off", "time": 1490, "note": 74, "velocity": 80, "channel": 0}, {"type": "note_on", "time": 194, "note": 72, "velocity": 111, "channel": 0}, {"type": "note_off", "time": 2246, "note": 72, "velocity": 111, "channel": 0}, {"type": "note_on", "time": 113, "note": 69, "velocity": 110, "channel": 0}, {"type": "note_off", "time": 1594, "note": 69, "velocity": 110, "channel": 0}, {"type": "note_on", "time": 274, "note": 67, "velocity": 108, "channel": 0}, {"type": "note_off", "time": 1689, "note": 67, "velocity": 108, "channel": 0}, {"type": "note_on", "time": 179, "note": 65, "velocity": 106, "channel": 0}, {"type": "note_off", "time": 1214, "note": 65, "velocity": 106, "channel": 0}, {"type": "note_on", "time": 200, "note": 64, "velocity": 107, "channel": 0}, {"type": "note_off", "time": 2766, "note": 64, "velocity": 107, "channel": 0}, {"type": "note_on", "time": 2392, "note": 62, "velocity": 104, "channel": 0}, {"type": "note_off", "time": 1843, "note": 62, "velocity": 104, "channel": 0}, {"type": "note_on", "time": 491, "note": 64, "velocity": 99, "channel": 0}, {"type": "note_off", "time": 1689, "note": 64, "velocity": 99, "channel": 0}, {"type": "note_on", "time": 491, "note": 68, "velocity": 113, "channel": 0}, {"type": "note_off", "time": 2426, "note": 68, "velocity": 113, "channel": 0}, {"type": "note_on", "time": 230, "note": 67, "velocity": 116, "channel": 0}, {"type": "note_off", "time": 952, "note": 67, "velocity": 116, "channel": 0}, {"type": "note_on", "time": 168, "note": 65, "velocity": 108, "channel": 0}, {"type": "note_off", "time": 967, "note": 65, "velocity": 108, "channel": 0}, {"type": "note_on", "time": 368, "note": 64, "velocity": 109, "channel": 0}, {"type": "note_off", "time": 2257, "note": 64, "velocity": 109, "channel": 0}, {"type": "note_on", "time": 322, "note": 62, "velocity": 110, "channel": 0}, {"type": "note_off", "time": 2411, "note": 62, "velocity": 110, "channel": 0}, {"type": "note_on", "time": 291, "note": 60, "velocity": 104, "channel": 0}, {"type": "note_off", "time": 1935, "note": 60, "velocity": 104, "channel": 0}, {"type": "note_on", "time": 691, "note": 59, "velocity": 104, "channel": 0}, {"type": "note_off", "time": 2304, "note": 59, "velocity": 104, "channel": 0}, {"type": "note_on", "time": 2350, "note": 63, "velocity": 104, "channel": 0}, {"type": "note_off", "time": 1658, "note": 63, "velocity": 104, "channel": 0}, {"type": "note_on", "time": 552, "note": 59, "velocity": 104, "channel": 0}, {"type": "note_off", "time": 3072, "note": 59, "velocity": 104, "channel": 0}, {"type": "note_on", "time": 337, "note": 58, "velocity": 102, "channel": 0}, {"type": "note_off", "time": 1259, "note": 58, "velocity": 102, "channel": 0}, {"type": "note_on", "time": 138, "note": 57, "velocity": 102, "channel": 0}, {"type": "note_off", "time": 1904, "note": 57, "velocity": 102, "channel": 0}, {"type": "note_on", "time": 380, "note": 55, "velocity": 109, "channel": 0}, {"type": "note_off", "time": 1555, "note": 55, "velocity": 109, "channel": 0}, {"type": "note_on", "time": 384, "note": 56, "velocity": 110, "channel": 0}, {"type": "note_off", "time": 2380, "note": 56, "velocity": 110, "channel": 0}, {"type": "note_on", "time": 875, "note": 59, "velocity": 104, "channel": 0}, {"type": "note_off", "time": 2104, "note": 59, "velocity": 104, "channel": 0}, {"type": "note_on", "time": 322, "note": 63, "velocity": 95, "channel": 0}, {"type": "note_off", "time": 890, "note": 63, "velocity": 95, "channel": 0}, {"type": "note_on", "time": 168, "note": 66, "velocity": 109, "channel": 0}, {"type": "note_off", "time": 2810, "note": 66, "velocity": 109, "channel": 0}, {"type": "note_on", "time": 1090, "note": 63, "velocity": 109, "channel": 0}, {"type": "note_off", "time": 3563, "note": 63, "velocity": 109, "channel": 0}, {"type": "note_on", "time": 675, "note": 66, "velocity": 110, "channel": 0}, {"type": "note_off", "time": 3240, "note": 66, "velocity": 110, "channel": 0}, {"type": "note_on", "time": 245, "note": 68, "velocity": 110, "channel": 0}, {"type": "note_off", "time": 1996, "note": 68, "velocity": 110, "channel": 0}, {"type": "note_on", "time": 1075, "note": 71, "velocity": 91, "channel": 0}, {"type": "note_off", "time": 1290, "note": 71, "velocity": 91, "channel": 0}, {"type": "note_on", "time": 230, "note": 73, "velocity": 103, "channel": 0}, {"type": "note_off", "time": 1781, "note": 73, "velocity": 103, "channel": 0}, {"type": "note_on", "time": 414, "note": 75, "velocity": 115, "channel": 0}, {"type": "note_off", "time": 3164, "note": 75, "velocity": 115, "channel": 0}, {"type": "note_on", "time": 445, "note": 73, "velocity": 113, "channel": 0}, {"type": "note_off", "time": 2426, "note": 73, "velocity": 113, "channel": 0}, {"type": "note_on", "time": 150, "note": 70, "velocity": 112, "channel": 0}, {"type": "note_off", "time": 12528, "note": 70, "velocity": 112, "channel": 0}, {"type": "note_on", "time": 496, "note": 68, "velocity": 114, "channel": 0}, {"type": "note_off", "time": 3218, "note": 68, "velocity": 114, "channel": 0}, {"type": "note_on", "time": 453, "note": 70, "velocity": 107, "channel": 0}, {"type": "note_off", "time": 2700, "note": 70, "velocity": 107, "channel": 0}, {"type": "note_on", "time": 1533, "note": 66, "velocity": 116, "channel": 0}, {"type": "note_off", "time": 6091, "note": 66, "velocity": 116, "channel": 0}, {"type": "note_on", "time": 1274, "note": 66, "velocity": 111, "channel": 0}, {"type": "note_off", "time": 6350, "note": 66, "velocity": 111, "channel": 0}, {"type": "note_on", "time": 11037, "note": 66, "velocity": 114, "channel": 0}, {"type": "note_off", "time": 10281, "note": 66, "velocity": 114, "channel": 0}, {"type": "note_on", "time": 950, "note": 66, "velocity": 117, "channel": 0}, {"type": "note_off", "time": 15076, "note": 66, "velocity": 117, "channel": 0}, {"type": "note_on", "time": 386, "note": 67, "velocity": 107, "channel": 0}, {"type": "note_off", "time": 1873, "note": 67, "velocity": 107, "channel": 0}, {"type": "note_on", "time": 322, "note": 69, "velocity": 110, "channel": 0}, {"type": "note_off", "time": 1781, "note": 69, "velocity": 110, "channel": 0}, {"type": "note_on", "time": 522, "note": 71, "velocity": 107, "channel": 0}, {"type": "note_off", "time": 2856, "note": 71, "velocity": 107, "channel": 0}, {"type": "note_on", "time": 568, "note": 66, "velocity": 113, "channel": 0}, {"type": "note_off", "time": 17541, "note": 66, "velocity": 113, "channel": 0}, {"type": "note_on", "time": 522, "note": 66, "velocity": 105, "channel": 0}, {"type": "note_off", "time": 16680, "note": 66, "velocity": 105, "channel": 0}, {"type": "note_on", "time": 6758, "note": 63, "velocity": 107, "channel": 0}, {"type": "note_off", "time": 8355, "note": 63, "velocity": 107, "channel": 0}, {"type": "note_on", "time": 215, "note": 61, "velocity": 103, "channel": 0}, {"type": "note_off", "time": 2887, "note": 61, "velocity": 103, "channel": 0}, {"type": "note_on", "time": 276, "note": 63, "velocity": 109, "channel": 0}, {"type": "note_off", "time": 6912, "note": 63, "velocity": 109, "channel": 0}, {"type": "note_on", "time": 245, "note": 61, "velocity": 105, "channel": 0}, {"type": "note_off", "time": 3102, "note": 61, "velocity": 105, "channel": 0}, {"type": "note_on", "time": 276, "note": 63, "velocity": 102, "channel": 0}, {"type": "note_off", "time": 6174, "note": 63, "velocity": 102, "channel": 0}, {"type": "note_on", "time": 368, "note": 61, "velocity": 103, "channel": 0}, {"type": "note_off", "time": 2795, "note": 61, "velocity": 103, "channel": 0}, {"type": "note_on", "time": 1198, "note": 63, "velocity": 108, "channel": 0}, {"type": "note_off", "time": 14899, "note": 63, "velocity": 108, "channel": 0}, {"type": "note_on", "time": 583, "note": 61, "velocity": 108, "channel": 0}, {"type": "note_off", "time": 3717, "note": 61, "velocity": 108, "channel": 0}, {"type": "note_on", "time": 307, "note": 63, "velocity": 107, "channel": 0}, {"type": "note_off", "time": 6451, "note": 63, "velocity": 107, "channel": 0}, {"type": "note_on", "time": 522, "note": 61, "velocity": 101, "channel": 0}, {"type": "note_off", "time": 2426, "note": 61, "velocity": 101, "channel": 0}, {"type": "note_on", "time": 368, "note": 63, "velocity": 101, "channel": 0}, {"type": "note_off", "time": 6266, "note": 63, "velocity": 101, "channel": 0}, {"type": "note_on", "time": 614, "note": 61, "velocity": 95, "channel": 0}, {"type": "note_off", "time": 3287, "note": 61, "velocity": 95, "channel": 0}, {"type": "note_on", "time": 245, "note": 63, "velocity": 102, "channel": 0}, {"type": "note_off", "time": 6727, "note": 63, "velocity": 102, "channel": 0}, {"type": "note_on", "time": 983, "note": 61, "velocity": 105, "channel": 0}, {"type": "note_off", "time": 2949, "note": 61, "velocity": 105, "channel": 0}, {"type": "note_on", "time": 61, "note": 68, "velocity": 114, "channel": 0}, {"type": "note_off", "time": 6727, "note": 68, "velocity": 114, "channel": 0}, {"type": "note_on", "time": 399, "note": 66, "velocity": 100, "channel": 0}, {"type": "note_off", "time": 2826, "note": 66, "velocity": 100, "channel": 0}, {"type": "note_on", "time": 552, "note": 68, "velocity": 105, "channel": 0}, {"type": "note_off", "time": 14438, "note": 68, "velocity": 105, "channel": 0}, {"type": "note_on", "time": 1843, "note": 66, "velocity": 109, "channel": 0}, {"type": "note_off", "time": 4976, "note": 66, "velocity": 109, "channel": 0}, {"type": "note_on", "time": 3102, "note": 63, "velocity": 106, "channel": 0}, {"type": "note_off", "time": 4362, "note": 63, "velocity": 106, "channel": 0}, {"type": "note_on", "time": 860, "note": 61, "velocity": 103, "channel": 0}, {"type": "note_off", "time": 15144, "note": 61, "velocity": 103, "channel": 0}, {"type": "note_on", "time": 675, "note": 51, "velocity": 116, "channel": 0}, {"type": "note_off", "time": 6328, "note": 51, "velocity": 116, "channel": 0}, {"type": "note_on", "time": 430, "note": 49, "velocity": 115, "channel": 0}, {"type": "note_off", "time": 16281, "note": 49, "velocity": 115, "channel": 0}, {"type": "note_on", "time": 22702, "note": 51, "velocity": 115, "channel": 0}, {"type": "note_off", "time": 7004, "note": 51, "velocity": 115, "channel": 0}, {"type": "note_on", "time": 430, "note": 49, "velocity": 127, "channel": 0}, {"type": "note_off", "time": 6758, "note": 49, "velocity": 127, "channel": 0}, {"type": "note_on", "time": 1167, "note": 54, "velocity": 105, "channel": 0}, {"type": "note_off", "time": 29306, "note": 54, "velocity": 105, "channel": 0}, {"type": "note_on", "time": 9069, "note": 54, "velocity": 113, "channel": 0}, {"type": "note_off", "time": 2116, "note": 54, "velocity": 113, "channel": 0}, {"type": "note_on", "time": 324, "note": 56, "velocity": 114, "channel": 0}, {"type": "note_off", "time": 1879, "note": 56, "velocity": 114, "channel": 0}, {"type": "note_on", "time": 237, "note": 58, "velocity": 110, "channel": 0}, {"type": "note_off", "time": 1965, "note": 58, "velocity": 110, "channel": 0}, {"type": "note_on", "time": 330, "note": 59, "velocity": 104, "channel": 0}, {"type": "note_off", "time": 1214, "note": 59, "velocity": 104, "channel": 0}, {"type": "note_on", "time": 285, "note": 61, "velocity": 109, "channel": 0}, {"type": "note_off", "time": 2492, "note": 61, "velocity": 109, "channel": 0}, {"type": "note_on", "time": 295, "note": 63, "velocity": 102, "channel": 0}, {"type": "note_off", "time": 1362, "note": 63, "velocity": 102, "channel": 0}, {"type": "note_on", "time": 359, "note": 66, "velocity": 115, "channel": 0}, {"type": "note_off", "time": 2154, "note": 66, "velocity": 115, "channel": 0}, {"type": "note_on", "time": 158, "note": 68, "velocity": 120, "channel": 0}, {"type": "note_off", "time": 908, "note": 68, "velocity": 120, "channel": 0}, {"type": "note_on", "time": 590, "note": 70, "velocity": 110, "channel": 0}, {"type": "note_off", "time": 23347, "note": 70, "velocity": 110, "channel": 0}, {"type": "note_on", "time": 522, "note": 66, "velocity": 107, "channel": 0}, {"type": "note_off", "time": 3532, "note": 66, "velocity": 107, "channel": 0}, {"type": "note_on", "time": 552, "note": 63, "velocity": 99, "channel": 0}, {"type": "note_off", "time": 3072, "note": 63, "velocity": 99, "channel": 0}, {"type": "note_on", "time": 522, "note": 61, "velocity": 95, "channel": 0}, {"type": "note_off", "time": 13824, "note": 61, "velocity": 95, "channel": 0}, {"type": "note_on", "time": 19722, "note": 63, "velocity": 106, "channel": 0}, {"type": "note_off", "time": 3962, "note": 63, "velocity": 106, "channel": 0}, {"type": "note_on", "time": 215, "note": 61, "velocity": 104, "channel": 0}, {"type": "note_off", "time": 2979, "note": 61, "velocity": 104, "channel": 0}, {"type": "note_on", "time": 337, "note": 63, "velocity": 100, "channel": 0}, {"type": "note_off", "time": 16128, "note": 63, "velocity": 100, "channel": 0}, {"type": "note_on", "time": 583, "note": 61, "velocity": 106, "channel": 0}, {"type": "note_off", "time": 4700, "note": 61, "velocity": 106, "channel": 0}, {"type": "note_on", "time": 1628, "note": 63, "velocity": 103, "channel": 0}, {"type": "note_off", "time": 2918, "note": 63, "velocity": 103, "channel": 0}, {"type": "note_on", "time": 3041, "note": 61, "velocity": 110, "channel": 0}, {"type": "note_off", "time": 2887, "note": 61, "velocity": 110, "channel": 0}, {"type": "note_on", "time": 2979, "note": 60, "velocity": 96, "channel": 0}, {"type": "note_off", "time": 2795, "note": 60, "velocity": 96, "channel": 0}, {"type": "note_on", "time": 2952, "note": 61, "velocity": 107, "channel": 0}, {"type": "note_off", "time": 4320, "note": 61, "velocity": 107, "channel": 0}, {"type": "note_on", "time": 259, "note": 66, "velocity": 106, "channel": 0}, {"type": "note_off", "time": 15681, "note": 66, "velocity": 106, "channel": 0}, {"type": "note_on", "time": 1857, "note": 66, "velocity": 97, "channel": 0}, {"type": "note_off", "time": 24105, "note": 66, "velocity": 97, "channel": 0}, {"type": "note_on", "time": 4514, "note": 59, "velocity": 85, "channel": 0}, {"type": "note_off", "time": 1123, "note": 59, "velocity": 85, "channel": 0}, {"type": "note_on", "time": 324, "note": 62, "velocity": 112, "channel": 0}, {"type": "note_off", "time": 2592, "note": 62, "velocity": 112, "channel": 0}, {"type": "note_on", "time": 453, "note": 61, "velocity": 108, "channel": 0}, {"type": "note_off", "time": 1641, "note": 61, "velocity": 108, "channel": 0}, {"type": "note_on", "time": 345, "note": 62, "velocity": 102, "channel": 0}, {"type": "note_off", "time": 1857, "note": 62, "velocity": 102, "channel": 0}, {"type": "note_on", "time": 172, "note": 66, "velocity": 108, "channel": 0}, {"type": "note_off", "time": 2678, "note": 66, "velocity": 108, "channel": 0}, {"type": "note_on", "time": 410, "note": 62, "velocity": 106, "channel": 0}, {"type": "note_off", "time": 1857, "note": 62, "velocity": 106, "channel": 0}, {"type": "note_on", "time": 1900, "note": 67, "velocity": 104, "channel": 0}, {"type": "note_off", "time": 1339, "note": 67, "velocity": 104, "channel": 0}, {"type": "note_on", "time": 129, "note": 69, "velocity": 93, "channel": 0}, {"type": "note_off", "time": 1490, "note": 69, "velocity": 93, "channel": 0}, {"type": "note_on", "time": 367, "note": 74, "velocity": 92, "channel": 0}, {"type": "note_off", "time": 1188, "note": 74, "velocity": 92, "channel": 0}, {"type": "note_on", "time": 151, "note": 78, "velocity": 105, "channel": 0}, {"type": "note_off", "time": 1706, "note": 78, "velocity": 105, "channel": 0}, {"type": "note_on", "time": 583, "note": 76, "velocity": 96, "channel": 0}, {"type": "note_off", "time": 7927, "note": 76, "velocity": 96, "channel": 0}, {"type": "note_on", "time": 280, "note": 74, "velocity": 100, "channel": 0}, {"type": "note_off", "time": 2289, "note": 74, "velocity": 100, "channel": 0}, {"type": "note_on", "time": 475, "note": 73, "velocity": 97, "channel": 0}, {"type": "note_off", "time": 2138, "note": 73, "velocity": 97, "channel": 0}, {"type": "note_on", "time": 367, "note": 71, "velocity": 105, "channel": 0}, {"type": "note_off", "time": 3585, "note": 71, "velocity": 105, "channel": 0}, {"type": "note_on", "time": 1080, "note": 73, "velocity": 93, "channel": 0}, {"type": "note_off", "time": 5011, "note": 73, "velocity": 93, "channel": 0}, {"type": "note_on", "time": 1079, "note": 69, "velocity": 100, "channel": 0}, {"type": "note_off", "time": 10936, "note": 69, "velocity": 100, "channel": 0}, {"type": "note_on", "time": 28656, "note": 66, "velocity": 115, "channel": 0}, {"type": "note_off", "time": 8942, "note": 66, "velocity": 115, "channel": 0}, {"type": "note_on", "time": 583, "note": 68, "velocity": 121, "channel": 0}, {"type": "note_off", "time": 9374, "note": 68, "velocity": 121, "channel": 0}, {"type": "note_on", "time": 540, "note": 70, "velocity": 118, "channel": 0}, {"type": "note_off", "time": 9028, "note": 70, "velocity": 118, "channel": 0}, {"type": "note_on", "time": 505, "note": 72, "velocity": 116, "channel": 0}, {"type": "note_off", "time": 23347, "note": 72, "velocity": 116, "channel": 0}, {"type": "note_on", "time": 2434, "note": 72, "velocity": 108, "channel": 0}, {"type": "note_off", "time": 4104, "note": 72, "velocity": 108, "channel": 0}, {"type": "note_on", "time": 4752, "note": 72, "velocity": 109, "channel": 0}, {"type": "note_off", "time": 5270, "note": 72, "velocity": 109, "channel": 0}, {"type": "note_on", "time": 7300, "note": 72, "velocity": 107, "channel": 0}, {"type": "note_off", "time": 18791, "note": 72, "velocity": 107, "channel": 0}, {"type": "note_on", "time": 1814, "note": 72, "velocity": 106, "channel": 0}, {"type": "note_off", "time": 10281, "note": 72, "velocity": 106, "channel": 0}, {"type": "note_on", "time": 1512, "note": 60, "velocity": 98, "channel": 0}, {"type": "note_off", "time": 4881, "note": 60, "velocity": 98, "channel": 0}, {"type": "note_on", "time": 475, "note": 69, "velocity": 98, "channel": 0}, {"type": "note_off", "time": 27086, "note": 69, "velocity": 98, "channel": 0}, {"type": "note_on", "time": 16761, "note": 63, "velocity": 106, "channel": 0}, {"type": "note_off", "time": 18921, "note": 63, "velocity": 106, "channel": 0}, {"type": "note_on", "time": 1036, "note": 61, "velocity": 104, "channel": 0}, {"type": "note_off", "time": 16804, "note": 61, "velocity": 104, "channel": 0}, {"type": "note_on", "time": 1555, "note": 66, "velocity": 97, "channel": 0}, {"type": "note_off", "time": 62899, "note": 66, "velocity": 97, "channel": 0}, {"type": "note_on", "time": 63417, "note": 63, "velocity": 107, "channel": 0}, {"type": "note_off", "time": 17280, "note": 63, "velocity": 107, "channel": 0}, {"type": "note_on", "time": 432, "note": 61, "velocity": 105, "channel": 0}, {"type": "note_off", "time": 3369, "note": 61, "velocity": 105, "channel": 0}, {"type": "note_on", "time": 950, "note": 63, "velocity": 102, "channel": 0}, {"type": "note_off", "time": 8812, "note": 63, "velocity": 102, "channel": 0}, {"type": "note_on", "time": 734, "note": 61, "velocity": 111, "channel": 0}, {"type": "note_off", "time": 7214, "note": 61, "velocity": 111, "channel": 0}, {"type": "note_on", "time": 864, "note": 63, "velocity": 9, "channel": 0}, {"type": "note_off", "time": 29289, "note": 63, "velocity": 9, "channel": 0}, {"type": "note_on", "time": 15163, "note": 68, "velocity": 118, "channel": 0}, {"type": "note_off", "time": 31017, "note": 68, "velocity": 118, "channel": 0}, {"type": "note_on", "time": 3542, "note": 66, "velocity": 108, "channel": 0}, {"type": "note_off", "time": 5616, "note": 66, "velocity": 108, "channel": 0}, {"type": "note_on", "time": 907, "note": 63, "velocity": 102, "channel": 0}, {"type": "note_off", "time": 5011, "note": 63, "velocity": 102, "channel": 0}, {"type": "note_on", "time": 432, "note": 61, "velocity": 118, "channel": 0}, {"type": "note_off", "time": 8856, "note": 61, "velocity": 118, "channel": 0}, {"type": "note_on", "time": 1036, "note": 61, "velocity": 110, "channel": 0}, {"type": "note_off", "time": 27388, "note": 61, "velocity": 110, "channel": 0}, {"type": "note_on", "time": 14904, "note": 59, "velocity": 111, "channel": 0}, {"type": "note_off", "time": 3153, "note": 59, "velocity": 111, "channel": 0}, {"type": "note_on", "time": 691, "note": 61, "velocity": 117, "channel": 0}, {"type": "note_off", "time": 4752, "note": 61, "velocity": 117, "channel": 0}, {"type": "note_on", "time": 647, "note": 58, "velocity": 115, "channel": 0}, {"type": "note_off", "time": 6177, "note": 58, "velocity": 115, "channel": 0}, {"type": "note_on", "time": 691, "note": 59, "velocity": 114, "channel": 0}, {"type": "note_off", "time": 6480, "note": 59, "velocity": 114, "channel": 0}, {"type": "note_on", "time": 1425, "note": 63, "velocity": 111, "channel": 0}, {"type": "note_off", "time": 38016, "note": 63, "velocity": 111, "channel": 0}, {"type": "note_on", "time": 7516, "note": 70, "velocity": 119, "channel": 0}, {"type": "note_off", "time": 13176, "note": 70, "velocity": 119, "channel": 0}, {"type": "note_on", "time": 259, "note": 68, "velocity": 115, "channel": 0}, {"type": "note_off", "time": 1339, "note": 68, "velocity": 115, "channel": 0}, {"type": "note_on", "time": 237, "note": 67, "velocity": 116, "channel": 0}, {"type": "note_off", "time": 1900, "note": 67, "velocity": 116, "channel": 0}, {"type": "note_on", "time": 324, "note": 66, "velocity": 120, "channel": 0}, {"type": "note_off", "time": 10454, "note": 66, "velocity": 120, "channel": 0}, {"type": "note_on", "time": 980, "note": 63, "velocity": 113, "channel": 0}, {"type": "note_off", "time": 12441, "note": 63, "velocity": 113, "channel": 0}, {"type": "note_on", "time": 1050, "note": 61, "velocity": 112, "channel": 0}, {"type": "note_off", "time": 31795, "note": 61, "velocity": 112, "channel": 0}, {"type": "note_on", "time": 11207, "note": 63, "velocity": 110, "channel": 0}, {"type": "note_off", "time": 22487, "note": 63, "velocity": 110, "channel": 0}, {"type": "note_on", "time": 614, "note": 61, "velocity": 110, "channel": 0}, {"type": "note_off", "time": 21995, "note": 61, "velocity": 110, "channel": 0}, {"type": "note_on", "time": 1756, "note": 66, "velocity": 110, "channel": 0}, {"type": "note_off", "time": 35337, "note": 66, "velocity": 110, "channel": 0}, {"type": "note_on", "time": 1403, "note": 68, "velocity": 107, "channel": 0}, {"type": "note_off", "time": 2527, "note": 68, "velocity": 107, "channel": 0}, {"type": "note_on", "time": 410, "note": 70, "velocity": 103, "channel": 0}, {"type": "note_off", "time": 2311, "note": 70, "velocity": 103, "channel": 0}, {"type": "note_on", "time": 539, "note": 71, "velocity": 108, "channel": 0}, {"type": "note_off", "time": 2138, "note": 71, "velocity": 108, "channel": 0}, {"type": "note_on", "time": 799, "note": 75, "velocity": 114, "channel": 0}, {"type": "note_off", "time": 2635, "note": 75, "velocity": 114, "channel": 0}, {"type": "note_on", "time": 777, "note": 70, "velocity": 110, "channel": 0}, {"type": "note_off", "time": 3088, "note": 70, "velocity": 110, "channel": 0}, {"type": "note_on", "time": 604, "note": 75, "velocity": 113, "channel": 0}, {"type": "note_off", "time": 3650, "note": 75, "velocity": 113, "channel": 0}, {"type": "note_on", "time": 820, "note": 78, "velocity": 112, "channel": 0}, {"type": "note_off", "time": 3758, "note": 78, "velocity": 112, "channel": 0}, {"type": "note_on", "time": 475, "note": 73, "velocity": 109, "channel": 0}, {"type": "note_off", "time": 3369, "note": 73, "velocity": 109, "channel": 0}, {"type": "note_on", "time": 712, "note": 75, "velocity": 115, "channel": 0}, {"type": "note_off", "time": 3672, "note": 75, "velocity": 115, "channel": 0}, {"type": "note_on", "time": 626, "note": 70, "velocity": 113, "channel": 0}, {"type": "note_off", "time": 3801, "note": 70, "velocity": 113, "channel": 0}, {"type": "note_on", "time": 1166, "note": 73, "velocity": 99, "channel": 0}, {"type": "note_off", "time": 3348, "note": 73, "velocity": 99, "channel": 0}, {"type": "note_on", "time": 712, "note": 68, "velocity": 115, "channel": 0}, {"type": "note_off", "time": 7106, "note": 68, "velocity": 115, "channel": 0}, {"type": "note_on", "time": 864, "note": 70, "velocity": 109, "channel": 0}, {"type": "note_off", "time": 3024, "note": 70, "velocity": 109, "channel": 0}, {"type": "note_on", "time": 3326, "note": 66, "velocity": 119, "channel": 0}, {"type": "note_off", "time": 4989, "note": 66, "velocity": 119, "channel": 0}, {"type": "note_on", "time": 561, "note": 68, "velocity": 110, "channel": 0}, {"type": "note_off", "time": 4881, "note": 68, "velocity": 110, "channel": 0}, {"type": "note_on", "time": 496, "note": 63, "velocity": 107, "channel": 0}, {"type": "note_off", "time": 8380, "note": 63, "velocity": 107, "channel": 0}, {"type": "note_on", "time": 201, "note": 61, "velocity": 114, "channel": 0}, {"type": "note_off", "time": 21749, "note": 61, "velocity": 114, "channel": 0}, {"type": "note_on", "time": 10275, "note": 58, "velocity": 113, "channel": 0}, {"type": "note_off", "time": 3672, "note": 58, "velocity": 113, "channel": 0}, {"type": "note_on", "time": 604, "note": 56, "velocity": 109, "channel": 0}, {"type": "note_off", "time": 4622, "note": 56, "velocity": 109, "channel": 0}, {"type": "note_on", "time": 1123, "note": 51, "velocity": 115, "channel": 0}, {"type": "note_off", "time": 9374, "note": 51, "velocity": 115, "channel": 0}, {"type": "note_on", "time": 248, "note": 49, "velocity": 109, "channel": 0}, {"type": "note_off", "time": 51548, "note": 49, "velocity": 109, "channel": 0}, {"type": "end_of_track", "time": 0}]]}