{"ticks_per_beat": 192, "tracks": [[{"type": "track_name", "name": "Melody", "time": 0}, {"type": "set_tempo", "tempo": 285714, "time": 0}, {"type": "key_signature", "key": "Bb", "time": 0}, {"type": "time_signature", "numerator": 4, "denominator": 4, "clocks_per_click": 24, "notated_32nd_notes_per_beat": 8, "time": 0}, {"type": "note_on", "time": 3397, "note": 63, "velocity": 114, "channel": 0}, {"type": "note_off", "time": 85, "note": 63, "velocity": 114, "channel": 0}, {"type": "note_on", "time": 10, "note": 65, "velocity": 112, "channel": 0}, {"type": "note_off", "time": 100, "note": 65, "velocity": 112, "channel": 0}, {"type": "note_on", "time": 8, "note": 68, "velocity": 112, "channel": 0}, {"type": "note_off", "time": 101, "note": 68, "velocity": 112, "channel": 0}, {"type": "note_on", "time": 3, "note": 71, "velocity": 110, "channel": 0}, {"type": "note_off", "time": 156, "note": 71, "velocity": 110, "channel": 0}, {"type": "note_on", "time": 24, "note": 75, "velocity": 121, "channel": 0}, {"type": "note_off", "time": 124, "note": 75, "velocity": 121, "channel": 0}, {"type": "note_on", "time": 10, "note": 77, "velocity": 117, "channel": 0}, {"type": "note_off", "time": 358, "note": 77, "velocity": 117, "channel": 0}, {"type": "note_on", "time": 3, "note": 80, "velocity": 122, "channel": 0}, {"type": "note_off", "time": 129, "note": 80, "velocity": 122, "channel": 0}, {"type": "note_on", "time": 5, "note": 82, "velocity": 112, "channel": 0}, {"type": "note_off", "time": 535, "note": 82, "velocity": 112, "channel": 0}, {"type": "note_on", "time": 0, "note": 78, "velocity": 117, "channel": 0}, {"type": "note_off", "time": 145, "note": 78, "velocity": 117, "channel": 0}, {"type": "note_on", "time": 6, "note": 75, "velocity": 111, "channel": 0}, {"type": "note_off", "time": 66, "note": 75, "velocity": 111, "channel": 0}, {"type": "note_on", "time": 1, "note": 76, "velocity": 116, "channel": 0}, {"type": "note_off", "time": 177, "note": 76, "velocity": 116, "channel": 0}, {"type": "note_on", "time": 7, "note": 80, "velocity": 113, "channel": 0}, {"type": "note_off", "time": 182, "note": 80, "velocity": 113, "channel": 0}, {"type": "note_on", "time": 0, "note": 75, "velocity": 106, "channel": 0}, {"type": "note_off", "time": 50, "note": 75, "velocity": 106, "channel": 0}, {"type": "note_on", "time": 4, "note": 76, "velocity": 117, "channel": 0}, {"type": "note_off", "time": 160, "note": 76, "velocity": 117, "channel": 0}, {"type": "note_on", "time": 4, "note": 78, "velocity": 112, "channel": 0}, {"type": "note_off", "time": 165, "note": 78, "velocity": 112, "channel": 0}, {"type": "note_on", "time": 10, "note": 73, "velocity": 90, "channel": 0}, {"type": "note_off", "time": 42, "note": 73, "velocity": 90, "channel": 0}, {"type": "note_on", "time": 1, "note": 76, "velocity": 115, "channel": 0}, {"type": "note_off", "time": 226, "note": 76, "velocity": 115, "channel": 0}, {"type": "note_on", "time": 591, "note": 79, "velocity": 117, "channel": 0}, {"type": "note_off", "time": 117, "note": 79, "velocity": 117, "channel": 0}, {"type": "note_on", "time": 6, "note": 77, "velocity": 118, "channel": 0}, {"type": "note_off", "time": 105, "note": 77, "velocity": 118, "channel": 0}, {"type": "note_on", "time": 0, "note": 80, "velocity": 111, "channel": 0}, {"type": "note_off", "time": 105, "note": 80, "velocity": 111, "channel": 0}, {"type": "note_on", "time": 2, "note": 77, "velocity": 122, "channel": 0}, {"type": "note_off", "time": 90, "note": 77, "velocity": 122, "channel": 0}, {"type": "note_on", "time": 0, "note": 79, "velocity": 114, "channel": 0}, {"type": "note_off", "time": 105, "note": 79, "velocity": 114, "channel": 0}, {"type": "note_on", "time": 1, "note": 78, "velocity": 117, "channel": 0}, {"type": "note_off", "time": 93, "note": 78, "velocity": 117, "channel": 0}, {"type": "note_on", "time": 0, "note": 79, "velocity": 113, "channel": 0}, {"type": "note_off", "time": 89, "note": 79, "velocity": 113, "channel": 0}, {"type": "note_on", "time": 3, "note": 79, "velocity": 111, "channel": 0}, {"type": "note_off", "time": 46, "note": 79, "velocity": 111, "channel": 0}, {"type": "note_on", "time": 1, "note": 78, "velocity": 118, "channel": 0}, {"type": "note_off", "time": 53, "note": 78, "velocity": 118, "channel": 0}, {"type": "note_on", "time": 0, "note": 77, "velocity": 117, "channel": 0}, {"type": "note_off", "time": 99, "note": 77, "velocity": 117, "channel": 0}, {"type": "note_on", "time": 3, "note": 76, "velocity": 121, "channel": 0}, {"type": "note_off", "time": 105, "note": 76, "velocity": 121, "channel": 0}, {"type": "note_on", "time": 3, "note": 75, "velocity": 121, "channel": 0}, {"type": "note_off", "time": 103, "note": 75, "velocity": 121, "channel": 0}, {"type": "note_on", "time": 2, "note": 78, "velocity": 115, "channel": 0}, {"type": "note_off", "time": 78, "note": 78, "velocity": 115, "channel": 0}, {"type": "note_on", "time": 9, "note": 76, "velocity": 121, "channel": 0}, {"type": "note_off", "time": 101, "note": 76, "velocity": 121, "channel": 0}, {"type": "note_on", "time": 5, "note": 72, "velocity": 121, "channel": 0}, {"type": "note_off", "time": 101, "note": 72, "velocity": 121, "channel": 0}, {"type": "note_on", "time": 2, "note": 69, "velocity": 109, "channel": 0}, {"type": "note_off", "time": 93, "note": 69, "velocity": 109, "channel": 0}, {"type": "note_on", "time": 5, "note": 66, "velocity": 100, "channel": 0}, {"type": "note_off", "time": 94, "note": 66, "velocity": 100, "channel": 0}, {"type": "note_on", "time": 14, "note": 68, "velocity": 113, "channel": 0}, {"type": "note_off", "time": 126, "note": 68, "velocity": 113, "channel": 0}, {"type": "note_on", "time": 1, "note": 69, "velocity": 107, "channel": 0}, {"type": "note_off", "time": 50, "note": 69, "velocity": 107, "channel": 0}, {"type": "note_on", "time": 13, "note": 74, "velocity": 123, "channel": 0}, {"type": "note_off", "time": 82, "note": 74, "velocity": 123, "channel": 0}, {"type": "note_on", "time": 0, "note": 73, "velocity": 105, "channel": 0}, {"type": "note_off", "time": 60, "note": 73, "velocity": 105, "channel": 0}, {"type": "note_on", "time": 46, "note": 76, "velocity": 119, "channel": 0}, {"type": "note_off", "time": 122, "note": 76, "velocity": 119, "channel": 0}, {"type": "note_on", "time": 3, "note": 72, "velocity": 119, "channel": 0}, {"type": "note_off", "time": 82, "note": 72, "velocity": 119, "channel": 0}, {"type": "note_on", "time": 0, "note": 68, "velocity": 109, "channel": 0}, {"type": "note_off", "time": 112, "note": 68, "velocity": 109, "channel": 0}, {"type": "note_on", "time": 8, "note": 66, "velocity": 100, "channel": 0}, {"type": "note_off", "time": 79, "note": 66, "velocity": 100, "channel": 0}, {"type": "note_on", "time": 7, "note": 65, "velocity": 113, "channel": 0}, {"type": "note_off", "time": 145, "note": 65, "velocity": 113, "channel": 0}, {"type": "note_on", "time": 8, "note": 68, "velocity": 108, "channel": 0}, {"type": "note_off", "time": 117, "note": 68, "velocity": 108, "channel": 0}, {"type": "note_on", "time": 288, "note": 64, "velocity": 115, "channel": 0}, {"type": "note_off", "time": 145, "note": 64, "velocity": 115, "channel": 0}, {"type": "note_on", "time": 6, "note": 61, "velocity": 85, "channel": 0}, {"type": "note_off", "time": 69, "note": 61, "velocity": 85, "channel": 0}, {"type": "note_on", "time": 6, "note": 64, "velocity": 119, "channel": 0}, {"type": "note_off", "time": 126, "note": 64, "velocity": 119, "channel": 0}, {"type": "note_on", "time": 13, "note": 65, "velocity": 115, "channel": 0}, {"type": "note_off", "time": 140, "note": 65, "velocity": 115, "channel": 0}, {"type": "note_on", "time": 43, "note": 61, "velocity": 88, "channel": 0}, {"type": "note_off", "time": 51, "note": 61, "velocity": 88, "channel": 0}, {"type": "note_on", "time": 3, "note": 64, "velocity": 118, "channel": 0}, {"type": "note_off", "time": 174, "note": 64, "velocity": 118, "channel": 0}, {"type": "note_on", "time": 6, "note": 65, "velocity": 117, "channel": 0}, {"type": "note_off", "time": 184, "note": 65, "velocity": 117, "channel": 0}, {"type": "note_on", "time": 248, "note": 66, "velocity": 113, "channel": 0}, {"type": "note_off", "time": 93, "note": 66, "velocity": 113, "channel": 0}, {"type": "note_on", "time": 5, "note": 68, "velocity": 112, "channel": 0}, {"type": "note_off", "time": 85, "note": 68, "velocity": 112, "channel": 0}, {"type": "note_on", "time": 6, "note": 70, "velocity": 107, "channel": 0}, {"type": "note_off", "time": 103, "note": 70, "velocity": 107, "channel": 0}, {"type": "note_on", "time": 4, "note": 73, "velocity": 124, "channel": 0}, {"type": "note_off", "time": 128, "note": 73, "velocity": 124, "channel": 0}, {"type": "note_on", "time": 1, "note": 70, "velocity": 101, "channel": 0}, {"type": "note_off", "time": 128, "note": 70, "velocity": 101, "channel": 0}, {"type": "note_on", "time": 37, "note": 71, "velocity": 116, "channel": 0}, {"type": "note_off", "time": 41, "note": 71, "velocity": 116, "channel": 0}, {"type": "note_on", "time": 2, "note": 72, "velocity": 125, "channel": 0}, {"type": "note_off", "time": 175, "note": 72, "velocity": 125, "channel": 0}, {"type": "note_on", "time": 3, "note": 70, "velocity": 103, "channel": 0}, {"type": "note_off", "time": 104, "note": 70, "velocity": 103, "channel": 0}, {"type": "note_on", "time": 0, "note": 66, "velocity": 114, "channel": 0}, {"type": "note_off", "time": 269, "note": 66, "velocity": 114, "channel": 0}, {"type": "note_on", "time": 683, "note": 69, "velocity": 106, "channel": 0}, {"type": "note_off", "time": 85, "note": 69, "velocity": 106, "channel": 0}, {"type": "note_on", "time": 18, "note": 70, "velocity": 89, "channel": 0}, {"type": "note_off", "time": 45, "note": 70, "velocity": 89, "channel": 0}, {"type": "note_on", "time": 1, "note": 73, "velocity": 104, "channel": 0}, {"type": "note_off", "time": 50, "note": 73, "velocity": 104, "channel": 0}, {"type": "note_on", "time": 6, "note": 76, "velocity": 117, "channel": 0}, {"type": "note_off", "time": 86, "note": 76, "velocity": 117, "channel": 0}, {"type": "note_on", "time": 8, "note": 78, "velocity": 119, "channel": 0}, {"type": "note_off", "time": 118, "note": 78, "velocity": 119, "channel": 0}, {"type": "note_on", "time": 4, "note": 79, "velocity": 115, "channel": 0}, {"type": "note_off", "time": 82, "note": 79, "velocity": 115, "channel": 0}, {"type": "note_on", "time": 1, "note": 76, "velocity": 121, "channel": 0}, {"type": "note_off", "time": 118, "note": 76, "velocity": 121, "channel": 0}, {"type": "note_on", "time": 49, "note": 77, "velocity": 120, "channel": 0}, {"type": "note_off", "time": 117, "note": 77, "velocity": 120, "channel": 0}, {"type": "note_on", "time": 2, "note": 76, "velocity": 120, "channel": 0}, {"type": "note_off", "time": 89, "note": 76, "velocity": 120, "channel": 0}, {"type": "note_on", "time": 0, "note": 75, "velocity": 118, "channel": 0}, {"type": "note_off", "time": 109, "note": 75, "velocity": 118, "channel": 0}, {"type": "note_on", "time": 60, "note": 67, "velocity": 96, "channel": 0}, {"type": "note_off", "time": 46, "note": 67, "velocity": 96, "channel": 0}, {"type": "note_on", "time": 3, "note": 74, "velocity": 122, "channel": 0}, {"type": "note_off", "time": 119, "note": 74, "velocity": 122, "channel": 0}, {"type": "note_on", "time": 0, "note": 72, "velocity": 123, "channel": 0}, {"type": "note_off", "time": 75, "note": 72, "velocity": 123, "channel": 0}, {"type": "note_on", "time": 0, "note": 70, "velocity": 105, "channel": 0}, {"type": "note_off", "time": 85, "note": 70, "velocity": 105, "channel": 0}, {"type": "note_on", "time": 38, "note": 68, "velocity": 86, "channel": 0}, {"type": "note_off", "time": 72, "note": 68, "velocity": 86, "channel": 0}, {"type": "note_on", "time": 4, "note": 69, "velocity": 107, "channel": 0}, {"type": "note_off", "time": 152, "note": 69, "velocity": 107, "channel": 0}, {"type": "note_on", "time": 3, "note": 76, "velocity": 119, "channel": 0}, {"type": "note_off", "time": 131, "note": 76, "velocity": 119, "channel": 0}, {"type": "note_on", "time": 6, "note": 72, "velocity": 118, "channel": 0}, {"type": "note_off", "time": 100, "note": 72, "velocity": 118, "channel": 0}, {"type": "note_on", "time": 6, "note": 67, "velocity": 111, "channel": 0}, {"type": "note_off", "time": 45, "note": 67, "velocity": 111, "channel": 0}, {"type": "note_on", "time": 1, "note": 68, "velocity": 107, "channel": 0}, {"type": "note_off", "time": 98, "note": 68, "velocity": 107, "channel": 0}, {"type": "note_on", "time": 0, "note": 64, "velocity": 115, "channel": 0}, {"type": "note_off", "time": 124, "note": 64, "velocity": 115, "channel": 0}, {"type": "note_on", "time": 6, "note": 62, "velocity": 113, "channel": 0}, {"type": "note_off", "time": 115, "note": 62, "velocity": 113, "channel": 0}, {"type": "note_on", "time": 52, "note": 62, "velocity": 113, "channel": 0}, {"type": "note_off", "time": 101, "note": 62, "velocity": 113, "channel": 0}, {"type": "note_on", "time": 5, "note": 56, "velocity": 114, "channel": 0}, {"type": "note_off", "time": 252, "note": 56, "velocity": 114, "channel": 0}, {"type": "note_on", "time": 10, "note": 55, "velocity": 110, "channel": 0}, {"type": "note_off", "time": 49, "note": 55, "velocity": 110, "channel": 0}, {"type": "note_on", "time": 447, "note": 67, "velocity": 109, "channel": 0}, {"type": "note_off", "time": 132, "note": 67, "velocity": 109, "channel": 0}, {"type": "note_on", "time": 1, "note": 66, "velocity": 102, "channel": 0}, {"type": "note_off", "time": 85, "note": 66, "velocity": 102, "channel": 0}, {"type": "note_on", "time": 2, "note": 67, "velocity": 109, "channel": 0}, {"type": "note_off", "time": 301, "note": 67, "velocity": 109, "channel": 0}, {"type": "note_on", "time": 0, "note": 66, "velocity": 104, "channel": 0}, {"type": "note_off", "time": 66, "note": 66, "velocity": 104, "channel": 0}, {"type": "note_on", "time": 2, "note": 67, "velocity": 105, "channel": 0}, {"type": "note_off", "time": 123, "note": 67, "velocity": 105, "channel": 0}, {"type": "note_on", "time": 25, "note": 68, "velocity": 96, "channel": 0}, {"type": "note_off", "time": 59, "note": 68, "velocity": 96, "channel": 0}, {"type": "note_on", "time": 3, "note": 70, "velocity": 105, "channel": 0}, {"type": "note_off", "time": 105, "note": 70, "velocity": 105, "channel": 0}, {"type": "note_on", "time": 3, "note": 68, "velocity": 111, "channel": 0}, {"type": "note_off", "time": 93, "note": 68, "velocity": 111, "channel": 0}, {"type": "note_on", "time": 6, "note": 67, "velocity": 113, "channel": 0}, {"type": "note_off", "time": 160, "note": 67, "velocity": 113, "channel": 0}, {"type": "note_on", "time": 584, "note": 66, "velocity": 112, "channel": 0}, {"type": "note_off", "time": 116, "note": 66, "velocity": 112, "channel": 0}, {"type": "note_on", "time": 2, "note": 67, "velocity": 113, "channel": 0}, {"type": "note_off", "time": 104, "note": 67, "velocity": 113, "channel": 0}, {"type": "note_on", "time": 3, "note": 70, "velocity": 103, "channel": 0}, {"type": "note_off", "time": 94, "note": 70, "velocity": 103, "channel": 0}, {"type": "note_on", "time": 8, "note": 76, "velocity": 126, "channel": 0}, {"type": "note_off", "time": 101, "note": 76, "velocity": 126, "channel": 0}, {"type": "note_on", "time": 7, "note": 72, "velocity": 126, "channel": 0}, {"type": "note_off", "time": 102, "note": 72, "velocity": 126, "channel": 0}, {"type": "note_on", "time": 2, "note": 70, "velocity": 105, "channel": 0}, {"type": "note_off", "time": 93, "note": 70, "velocity": 105, "channel": 0}, {"type": "note_on", "time": 11, "note": 67, "velocity": 109, "channel": 0}, {"type": "note_off", "time": 117, "note": 67, "velocity": 109, "channel": 0}, {"type": "note_on", "time": 16, "note": 60, "velocity": 86, "channel": 0}, {"type": "note_off", "time": 57, "note": 60, "velocity": 86, "channel": 0}, {"type": "note_on", "time": 0, "note": 66, "velocity": 114, "channel": 0}, {"type": "note_off", "time": 93, "note": 66, "velocity": 114, "channel": 0}, {"type": "note_on", "time": 13, "note": 64, "velocity": 110, "channel": 0}, {"type": "note_off", "time": 74, "note": 64, "velocity": 110, "channel": 0}, {"type": "note_on", "time": 4, "note": 65, "velocity": 118, "channel": 0}, {"type": "note_off", "time": 113, "note": 65, "velocity": 118, "channel": 0}, {"type": "note_on", "time": 0, "note": 64, "velocity": 114, "channel": 0}, {"type": "note_off", "time": 78, "note": 64, "velocity": 114, "channel": 0}, {"type": "note_on", "time": 7, "note": 63, "velocity": 118, "channel": 0}, {"type": "note_off", "time": 142, "note": 63, "velocity": 118, "channel": 0}, {"type": "note_on", "time": 169, "note": 70, "velocity": 105, "channel": 0}, {"type": "note_off", "time": 52, "note": 70, "velocity": 105, "channel": 0}, {"type": "note_on", "time": 11, "note": 74, "velocity": 124, "channel": 0}, {"type": "note_off", "time": 109, "note": 74, "velocity": 124, "channel": 0}, {"type": "note_on", "time": 3, "note": 77, "velocity": 121, "channel": 0}, {"type": "note_off", "time": 109, "note": 77, "velocity": 121, "channel": 0}, {"type": "note_on", "time": 3, "note": 76, "velocity": 120, "channel": 0}, {"type": "note_off", "time": 115, "note": 76, "velocity": 120, "channel": 0}, {"type": "note_on", "time": 2, "note": 74, "velocity": 95, "channel": 0}, {"type": "note_off", "time": 41, "note": 74, "velocity": 95, "channel": 0}, {"type": "note_on", "time": 0, "note": 75, "velocity": 121, "channel": 0}, {"type": "note_off", "time": 129, "note": 75, "velocity": 121, "channel": 0}, {"type": "note_on", "time": 4, "note": 77, "velocity": 117, "channel": 0}, {"type": "note_off", "time": 97, "note": 77, "velocity": 117, "channel": 0}, {"type": "note_on", "time": 0, "note": 78, "velocity": 113, "channel": 0}, {"type": "note_off", "time": 97, "note": 78, "velocity": 113, "channel": 0}, {"type": "note_on", "time": 9, "note": 81, "velocity": 106, "channel": 0}, {"type": "note_off", "time": 101, "note": 81, "velocity": 106, "channel": 0}, {"type": "note_on", "time": 4, "note": 76, "velocity": 115, "channel": 0}, {"type": "note_off", "time": 27, "note": 76, "velocity": 115, "channel": 0}, {"type": "note_on", "time": 6, "note": 77, "velocity": 117, "channel": 0}, {"type": "note_off", "time": 142, "note": 77, "velocity": 117, "channel": 0}, {"type": "note_on", "time": 2, "note": 75, "velocity": 118, "channel": 0}, {"type": "note_off", "time": 122, "note": 75, "velocity": 118, "channel": 0}, {"type": "note_on", "time": 4, "note": 76, "velocity": 115, "channel": 0}, {"type": "note_off", "time": 242, "note": 76, "velocity": 115, "channel": 0}, {"type": "note_on", "time": 4, "note": 73, "velocity": 114, "channel": 0}, {"type": "note_off", "time": 177, "note": 73, "velocity": 114, "channel": 0}, {"type": "note_on", "time": 2, "note": 75, "velocity": 116, "channel": 0}, {"type": "note_off", "time": 138, "note": 75, "velocity": 116, "channel": 0}, {"type": "note_on", "time": 9, "note": 73, "velocity": 117, "channel": 0}, {"type": "note_off", "time": 70, "note": 73, "velocity": 117, "channel": 0}, {"type": "note_on", "time": 9, "note": 68, "velocity": 108, "channel": 0}, {"type": "note_off", "time": 101, "note": 68, "velocity": 108, "channel": 0}, {"type": "note_on", "time": 2, "note": 66, "velocity": 110, "channel": 0}, {"type": "note_off", "time": 76, "note": 66, "velocity": 110, "channel": 0}, {"type": "note_on", "time": 6, "note": 65, "velocity": 109, "channel": 0}, {"type": "note_off", "time": 165, "note": 65, "velocity": 109, "channel": 0}, {"type": "note_on", "time": 2, "note": 72, "velocity": 125, "channel": 0}, {"type": "note_off", "time": 390, "note": 72, "velocity": 125, "channel": 0}, {"type": "note_on", "time": 2, "note": 68, "velocity": 105, "channel": 0}, {"type": "note_off", "time": 133, "note": 68, "velocity": 105, "channel": 0}, {"type": "note_on", "time": 49, "note": 73, "velocity": 122, "channel": 0}, {"type": "note_off", "time": 232, "note": 73, "velocity": 122, "channel": 0}, {"type": "note_on", "time": 359, "note": 75, "velocity": 121, "channel": 0}, {"type": "note_off", "time": 68, "note": 75, "velocity": 121, "channel": 0}, {"type": "note_on", "time": 0, "note": 77, "velocity": 120, "channel": 0}, {"type": "note_off", "time": 337, "note": 77, "velocity": 120, "channel": 0}, {"type": "note_on", "time": 5, "note": 73, "velocity": 120, "channel": 0}, {"type": "note_off", "time": 148, "note": 73, "velocity": 120, "channel": 0}, {"type": "note_on", "time": 83, "note": 71, "velocity": 105, "channel": 0}, {"type": "note_off", "time": 136, "note": 71, "velocity": 105, "channel": 0}, {"type": "note_on", "time": 4, "note": 73, "velocity": 124, "channel": 0}, {"type": "note_off", "time": 272, "note": 73, "velocity": 124, "channel": 0}, {"type": "note_on", "time": 331, "note": 66, "velocity": 111, "channel": 0}, {"type": "note_off", "time": 120, "note": 66, "velocity": 111, "channel": 0}, {"type": "note_on", "time": 16, "note": 71, "velocity": 109, "channel": 0}, {"type": "note_off", "time": 57, "note": 71, "velocity": 109, "channel": 0}, {"type": "note_on", "time": 0, "note": 70, "velocity": 102, "channel": 0}, {"type": "note_off", "time": 137, "note": 70, "velocity": 102, "channel": 0}, {"type": "note_on", "time": 4, "note": 66, "velocity": 104, "channel": 0}, {"type": "note_off", "time": 77, "note": 66, "velocity": 104, "channel": 0}, {"type": "note_on", "time": 4, "note": 69, "velocity": 105, "channel": 0}, {"type": "note_off", "time": 41, "note": 69, "velocity": 105, "channel": 0}, {"type": "note_on", "time": 1, "note": 71, "velocity": 106, "channel": 0}, {"type": "note_off", "time": 120, "note": 71, "velocity": 106, "channel": 0}, {"type": "note_on", "time": 0, "note": 70, "velocity": 103, "channel": 0}, {"type": "note_off", "time": 116, "note": 70, "velocity": 103, "channel": 0}, {"type": "note_on", "time": 12, "note": 66, "velocity": 114, "channel": 0}, {"type": "note_off", "time": 199, "note": 66, "velocity": 114, "channel": 0}, {"type": "note_on", "time": 388, "note": 57, "velocity": 107, "channel": 0}, {"type": "note_off", "time": 91, "note": 57, "velocity": 107, "channel": 0}, {"type": "note_on", "time": 9, "note": 61, "velocity": 91, "channel": 0}, {"type": "note_off", "time": 32, "note": 61, "velocity": 91, "channel": 0}, {"type": "note_on", "time": 16, "note": 65, "velocity": 93, "channel": 0}, {"type": "note_off", "time": 54, "note": 65, "velocity": 93, "channel": 0}, {"type": "note_on", "time": 11, "note": 67, "velocity": 114, "channel": 0}, {"type": "note_off", "time": 105, "note": 67, "velocity": 114, "channel": 0}, {"type": "note_on", "time": 0, "note": 66, "velocity": 114, "channel": 0}, {"type": "note_off", "time": 101, "note": 66, "velocity": 114, "channel": 0}, {"type": "note_on", "time": 61, "note": 64, "velocity": 110, "channel": 0}, {"type": "note_off", "time": 117, "note": 64, "velocity": 110, "channel": 0}, {"type": "note_on", "time": 0, "note": 65, "velocity": 115, "channel": 0}, {"type": "note_off", "time": 358, "note": 65, "velocity": 115, "channel": 0}, {"type": "note_on", "time": 5, "note": 63, "velocity": 116, "channel": 0}, {"type": "note_off", "time": 104, "note": 63, "velocity": 116, "channel": 0}, {"type": "note_on", "time": 455, "note": 57, "velocity": 115, "channel": 0}, {"type": "note_off", "time": 63, "note": 57, "velocity": 115, "channel": 0}, {"type": "note_on", "time": 10, "note": 64, "velocity": 90, "channel": 0}, {"type": "note_off", "time": 54, "note": 64, "velocity": 90, "channel": 0}, {"type": "note_on", "time": 6, "note": 66, "velocity": 104, "channel": 0}, {"type": "note_off", "time": 50, "note": 66, "velocity": 104, "channel": 0}, {"type": "note_on", "time": 6, "note": 67, "velocity": 114, "channel": 0}, {"type": "note_off", "time": 82, "note": 67, "velocity": 114, "channel": 0}, {"type": "note_on", "time": 9, "note": 66, "velocity": 108, "channel": 0}, {"type": "note_off", "time": 101, "note": 66, "velocity": 108, "channel": 0}, {"type": "note_on", "time": 4, "note": 71, "velocity": 108, "channel": 0}, {"type": "note_off", "time": 95, "note": 71, "velocity": 108, "channel": 0}, {"type": "note_on", "time": 3, "note": 68, "velocity": 110, "channel": 0}, {"type": "note_off", "time": 111, "note": 68, "velocity": 110, "channel": 0}, {"type": "note_on", "time": 2, "note": 71, "velocity": 100, "channel": 0}, {"type": "note_off", "time": 56, "note": 71, "velocity": 100, "channel": 0}, {"type": "note_on", "time": 3, "note": 72, "velocity": 123, "channel": 0}, {"type": "note_off", "time": 113, "note": 72, "velocity": 123, "channel": 0}, {"type": "note_on", "time": 94, "note": 71, "velocity": 106, "channel": 0}, {"type": "note_off", "time": 104, "note": 71, "velocity": 106, "channel": 0}, {"type": "note_on", "time": 10, "note": 76, "velocity": 117, "channel": 0}, {"type": "note_off", "time": 86, "note": 76, "velocity": 117, "channel": 0}, {"type": "note_on", "time": 4, "note": 77, "velocity": 114, "channel": 0}, {"type": "note_off", "time": 90, "note": 77, "velocity": 114, "channel": 0}, {"type": "note_on", "time": 7, "note": 83, "velocity": 111, "channel": 0}, {"type": "note_off", "time": 70, "note": 83, "velocity": 111, "channel": 0}, {"type": "note_on", "time": 4, "note": 80, "velocity": 120, "channel": 0}, {"type": "note_off", "time": 113, "note": 80, "velocity": 120, "channel": 0}, {"type": "note_on", "time": 0, "note": 78, "velocity": 118, "channel": 0}, {"type": "note_off", "time": 79, "note": 78, "velocity": 118, "channel": 0}, {"type": "note_on", "time": 5, "note": 77, "velocity": 118, "channel": 0}, {"type": "note_off", "time": 171, "note": 77, "velocity": 118, "channel": 0}, {"type": "note_on", "time": 0, "note": 80, "velocity": 113, "channel": 0}, {"type": "note_off", "time": 175, "note": 80, "velocity": 113, "channel": 0}, {"type": "note_on", "time": 26, "note": 85, "velocity": 102, "channel": 0}, {"type": "note_off", "time": 286, "note": 85, "velocity": 102, "channel": 0}, {"type": "note_on", "time": 84, "note": 83, "velocity": 107, "channel": 0}, {"type": "note_off", "time": 120, "note": 83, "velocity": 107, "channel": 0}, {"type": "note_on", "time": 7, "note": 85, "velocity": 106, "channel": 0}, {"type": "note_off", "time": 74, "note": 85, "velocity": 106, "channel": 0}, {"type": "note_on", "time": 0, "note": 86, "velocity": 102, "channel": 0}, {"type": "note_on", "time": 32, "note": 87, "velocity": 101, "channel": 0}, {"type": "note_off", "time": 0, "note": 86, "velocity": 102, "channel": 0}, {"type": "note_off", "time": 79, "note": 87, "velocity": 101, "channel": 0}, {"type": "note_on", "time": 0, "note": 83, "velocity": 111, "channel": 0}, {"type": "note_off", "time": 92, "note": 83, "velocity": 111, "channel": 0}, {"type": "note_on", "time": 2, "note": 80, "velocity": 114, "channel": 0}, {"type": "note_off", "time": 170, "note": 80, "velocity": 114, "channel": 0}, {"type": "note_on", "time": 4, "note": 78, "velocity": 112, "channel": 0}, {"type": "note_off", "time": 200, "note": 78, "velocity": 112, "channel": 0}, {"type": "note_on", "time": 345, "note": 82, "velocity": 114, "channel": 0}, {"type": "note_off", "time": 113, "note": 82, "velocity": 114, "channel": 0}, {"type": "note_on", "time": 10, "note": 85, "velocity": 109, "channel": 0}, {"type": "note_off", "time": 79, "note": 85, "velocity": 109, "channel": 0}, {"type": "note_on", "time": 4, "note": 84, "velocity": 110, "channel": 0}, {"type": "note_off", "time": 24, "note": 84, "velocity": 110, "channel": 0}, {"type": "note_on", "time": 6, "note": 80, "velocity": 111, "channel": 0}, {"type": "note_off", "time": 76, "note": 80, "velocity": 111, "channel": 0}, {"type": "note_on", "time": 5, "note": 82, "velocity": 108, "channel": 0}, {"type": "note_off", "time": 136, "note": 82, "velocity": 108, "channel": 0}, {"type": "note_on", "time": 45, "note": 78, "velocity": 112, "channel": 0}, {"type": "note_off", "time": 146, "note": 78, "velocity": 112, "channel": 0}, {"type": "note_on", "time": 37, "note": 80, "velocity": 121, "channel": 0}, {"type": "note_off", "time": 150, "note": 80, "velocity": 121, "channel": 0}, {"type": "note_on", "time": 42, "note": 76, "velocity": 118, "channel": 0}, {"type": "note_off", "time": 82, "note": 76, "velocity": 118, "channel": 0}, {"type": "note_on", "time": 4, "note": 78, "velocity": 115, "channel": 0}, {"type": "note_off", "time": 113, "note": 78, "velocity": 115, "channel": 0}, {"type": "note_on", "time": 3, "note": 80, "velocity": 119, "channel": 0}, {"type": "note_off", "time": 98, "note": 80, "velocity": 119, "channel": 0}, {"type": "note_on", "time": 5, "note": 79, "velocity": 118, "channel": 0}, {"type": "note_off", "time": 115, "note": 79, "velocity": 118, "channel": 0}, {"type": "note_on", "time": 49, "note": 72, "velocity": 120, "channel": 0}, {"type": "note_off", "time": 123, "note": 72, "velocity": 120, "channel": 0}, {"type": "note_on", "time": 10, "note": 79, "velocity": 116, "channel": 0}, {"type": "note_off", "time": 85, "note": 79, "velocity": 116, "channel": 0}, {"type": "note_on", "time": 5, "note": 78, "velocity": 115, "channel": 0}, {"type": "note_off", "time": 79, "note": 78, "velocity": 115, "channel": 0}, {"type": "note_on", "time": 19, "note": 76, "velocity": 118, "channel": 0}, {"type": "note_off", "time": 74, "note": 76, "velocity": 118, "channel": 0}, {"type": "note_on", "time": 2, "note": 77, "velocity": 119, "channel": 0}, {"type": "note_off", "time": 120, "note": 77, "velocity": 119, "channel": 0}, {"type": "note_on", "time": 29, "note": 73, "velocity": 111, "channel": 0}, {"type": "note_off", "time": 52, "note": 73, "velocity": 111, "channel": 0}, {"type": "note_on", "time": 5, "note": 75, "velocity": 119, "channel": 0}, {"type": "note_off", "time": 171, "note": 75, "velocity": 119, "channel": 0}, {"type": "note_on", "time": 215, "note": 74, "velocity": 123, "channel": 0}, {"type": "note_off", "time": 105, "note": 74, "velocity": 123, "channel": 0}, {"type": "note_on", "time": 3, "note": 72, "velocity": 123, "channel": 0}, {"type": "note_off", "time": 97, "note": 72, "velocity": 123, "channel": 0}, {"type": "note_on", "time": 4, "note": 70, "velocity": 105, "channel": 0}, {"type": "note_off", "time": 72, "note": 70, "velocity": 105, "channel": 0}, {"type": "note_on", "time": 8, "note": 68, "velocity": 114, "channel": 0}, {"type": "note_off", "time": 104, "note": 68, "velocity": 114, "channel": 0}, {"type": "note_on", "time": 2, "note": 67, "velocity": 112, "channel": 0}, {"type": "note_off", "time": 96, "note": 67, "velocity": 112, "channel": 0}, {"type": "note_on", "time": 2, "note": 66, "velocity": 118, "channel": 0}, {"type": "note_off", "time": 68, "note": 66, "velocity": 118, "channel": 0}, {"type": "note_on", "time": 8, "note": 65, "velocity": 115, "channel": 0}, {"type": "note_off", "time": 89, "note": 65, "velocity": 115, "channel": 0}, {"type": "note_on", "time": 0, "note": 63, "velocity": 116, "channel": 0}, {"type": "note_off", "time": 79, "note": 63, "velocity": 116, "channel": 0}, {"type": "note_on", "time": 8, "note": 62, "velocity": 119, "channel": 0}, {"type": "note_off", "time": 109, "note": 62, "velocity": 119, "channel": 0}, {"type": "note_on", "time": 7, "note": 60, "velocity": 116, "channel": 0}, {"type": "note_off", "time": 102, "note": 60, "velocity": 116, "channel": 0}, {"type": "note_on", "time": 2, "note": 59, "velocity": 118, "channel": 0}, {"type": "note_off", "time": 65, "note": 59, "velocity": 118, "channel": 0}, {"type": "note_on", "time": 2, "note": 58, "velocity": 113, "channel": 0}, {"type": "note_off", "time": 57, "note": 58, "velocity": 113, "channel": 0}, {"type": "note_on", "time": 5, "note": 60, "velocity": 105, "channel": 0}, {"type": "note_off", "time": 128, "note": 60, "velocity": 105, "channel": 0}, {"type": "note_on", "time": 13, "note": 64, "velocity": 105, "channel": 0}, {"type": "note_off", "time": 43, "note": 64, "velocity": 105, "channel": 0}, {"type": "note_on", "time": 16, "note": 66, "velocity": 98, "channel": 0}, {"type": "note_off", "time": 65, "note": 66, "velocity": 98, "channel": 0}, {"type": "note_on", "time": 24, "note": 69, "velocity": 110, "channel": 0}, {"type": "note_off", "time": 52, "note": 69, "velocity": 110, "channel": 0}, {"type": "note_on", "time": 0, "note": 65, "velocity": 107, "channel": 0}, {"type": "note_off", "time": 79, "note": 65, "velocity": 107, "channel": 0}, {"type": "note_on", "time": 4, "note": 68, "velocity": 110, "channel": 0}, {"type": "note_off", "time": 23, "note": 68, "velocity": 110, "channel": 0}, {"type": "note_on", "time": 2, "note": 67, "velocity": 114, "channel": 0}, {"type": "note_off", "time": 76, "note": 67, "velocity": 114, "channel": 0}, {"type": "note_on", "time": 36, "note": 68, "velocity": 111, "channel": 0}, {"type": "note_off", "time": 45, "note": 68, "velocity": 111, "channel": 0}, {"type": "note_on", "time": 5, "note": 69, "velocity": 90, "channel": 0}, {"type": "note_off", "time": 38, "note": 69, "velocity": 90, "channel": 0}, {"type": "note_on", "time": 76, "note": 71, "velocity": 103, "channel": 0}, {"type": "note_off", "time": 85, "note": 71, "velocity": 103, "channel": 0}, {"type": "note_on", "time": 2, "note": 76, "velocity": 120, "channel": 0}, {"type": "note_off", "time": 99, "note": 76, "velocity": 120, "channel": 0}, {"type": "note_on", "time": 1, "note": 73, "velocity": 122, "channel": 0}, {"type": "note_off", "time": 101, "note": 73, "velocity": 122, "channel": 0}, {"type": "note_on", "time": 5, "note": 68, "velocity": 110, "channel": 0}, {"type": "note_off", "time": 98, "note": 68, "velocity": 110, "channel": 0}, {"type": "note_on", "time": 8, "note": 65, "velocity": 113, "channel": 0}, {"type": "note_off", "time": 68, "note": 65, "velocity": 113, "channel": 0}, {"type": "note_on", "time": 2, "note": 66, "velocity": 107, "channel": 0}, {"type": "note_off", "time": 106, "note": 66, "velocity": 107, "channel": 0}, {"type": "note_on", "time": 21, "note": 70, "velocity": 92, "channel": 0}, {"type": "note_off", "time": 54, "note": 70, "velocity": 92, "channel": 0}, {"type": "note_on", "time": 16, "note": 65, "velocity": 113, "channel": 0}, {"type": "note_off", "time": 362, "note": 65, "velocity": 113, "channel": 0}, {"type": "note_on", "time": 0, "note": 66, "velocity": 113, "channel": 0}, {"type": "note_off", "time": 115, "note": 66, "velocity": 113, "channel": 0}, {"type": "note_on", "time": 3, "note": 67, "velocity": 116, "channel": 0}, {"type": "note_off", "time": 98, "note": 67, "velocity": 116, "channel": 0}, {"type": "note_on", "time": 5, "note": 68, "velocity": 115, "channel": 0}, {"type": "note_off", "time": 120, "note": 68, "velocity": 115, "channel": 0}, {"type": "note_on", "time": 9, "note": 65, "velocity": 120, "channel": 0}, {"type": "note_off", "time": 85, "note": 65, "velocity": 120, "channel": 0}, {"type": "note_on", "time": 263, "note": 66, "velocity": 114, "channel": 0}, {"type": "note_off", "time": 109, "note": 66, "velocity": 114, "channel": 0}, {"type": "note_on", "time": 40, "note": 70, "velocity": 95, "channel": 0}, {"type": "note_off", "time": 38, "note": 70, "velocity": 95, "channel": 0}, {"type": "note_on", "time": 4, "note": 71, "velocity": 96, "channel": 0}, {"type": "note_off", "time": 40, "note": 71, "velocity": 96, "channel": 0}, {"type": "note_on", "time": 7, "note": 76, "velocity": 127, "channel": 0}, {"type": "note_off", "time": 38, "note": 76, "velocity": 127, "channel": 0}, {"type": "note_on", "time": 2, "note": 75, "velocity": 122, "channel": 0}, {"type": "note_off", "time": 35, "note": 75, "velocity": 122, "channel": 0}, {"type": "note_on", "time": 13, "note": 70, "velocity": 103, "channel": 0}, {"type": "note_off", "time": 109, "note": 70, "velocity": 103, "channel": 0}, {"type": "note_on", "time": 37, "note": 73, "velocity": 125, "channel": 0}, {"type": "note_off", "time": 112, "note": 73, "velocity": 125, "channel": 0}, {"type": "note_on", "time": 4, "note": 76, "velocity": 113, "channel": 0}, {"type": "note_off", "time": 93, "note": 76, "velocity": 113, "channel": 0}, {"type": "note_on", "time": 2, "note": 78, "velocity": 117, "channel": 0}, {"type": "note_off", "time": 134, "note": 78, "velocity": 117, "channel": 0}, {"type": "note_on", "time": 2, "note": 82, "velocity": 114, "channel": 0}, {"type": "note_off", "time": 78, "note": 82, "velocity": 114, "channel": 0}, {"type": "note_on", "time": 6, "note": 85, "velocity": 100, "channel": 0}, {"type": "note_off", "time": 117, "note": 85, "velocity": 100, "channel": 0}, {"type": "note_on", "time": 5, "note": 82, "velocity": 113, "channel": 0}, {"type": "note_off", "time": 268, "note": 82, "velocity": 113, "channel": 0}, {"type": "note_on", "time": 296, "note": 69, "velocity": 109, "channel": 0}, {"type": "note_off", "time": 52, "note": 69, "velocity": 109, "channel": 0}, {"type": "note_on", "time": 5, "note": 70, "velocity": 101, "channel": 0}, {"type": "note_off", "time": 41, "note": 70, "velocity": 101, "channel": 0}, {"type": "note_on", "time": 2, "note": 72, "velocity": 125, "channel": 0}, {"type": "note_off", "time": 46, "note": 72, "velocity": 125, "channel": 0}, {"type": "note_on", "time": 10, "note": 75, "velocity": 115, "channel": 0}, {"type": "note_off", "time": 35, "note": 75, "velocity": 115, "channel": 0}, {"type": "note_on", "time": 3, "note": 77, "velocity": 119, "channel": 0}, {"type": "note_off", "time": 80, "note": 77, "velocity": 119, "channel": 0}, {"type": "note_on", "time": 4, "note": 79, "velocity": 119, "channel": 0}, {"type": "note_off", "time": 85, "note": 79, "velocity": 119, "channel": 0}, {"type": "note_on", "time": 8, "note": 78, "velocity": 118, "channel": 0}, {"type": "note_off", "time": 38, "note": 78, "velocity": 118, "channel": 0}, {"type": "note_on", "time": 8, "note": 79, "velocity": 118, "channel": 0}, {"type": "note_off", "time": 50, "note": 79, "velocity": 118, "channel": 0}, {"type": "note_on", "time": 1, "note": 78, "velocity": 117, "channel": 0}, {"type": "note_off", "time": 43, "note": 78, "velocity": 117, "channel": 0}, {"type": "note_on", "time": 4, "note": 77, "velocity": 122, "channel": 0}, {"type": "note_off", "time": 23, "note": 77, "velocity": 122, "channel": 0}, {"type": "note_on", "time": 7, "note": 76, "velocity": 120, "channel": 0}, {"type": "note_off", "time": 45, "note": 76, "velocity": 120, "channel": 0}, {"type": "note_on", "time": 3, "note": 75, "velocity": 119, "channel": 0}, {"type": "note_off", "time": 52, "note": 75, "velocity": 119, "channel": 0}, {"type": "note_on", "time": 2, "note": 78, "velocity": 111, "channel": 0}, {"type": "note_off", "time": 63, "note": 78, "velocity": 111, "channel": 0}, {"type": "note_on", "time": 5, "note": 77, "velocity": 119, "channel": 0}, {"type": "note_off", "time": 39, "note": 77, "velocity": 119, "channel": 0}, {"type": "note_on", "time": 2, "note": 75, "velocity": 120, "channel": 0}, {"type": "note_off", "time": 41, "note": 75, "velocity": 120, "channel": 0}, {"type": "note_on", "time": 8, "note": 74, "velocity": 119, "channel": 0}, {"type": "note_off", "time": 49, "note": 74, "velocity": 119, "channel": 0}, {"type": "note_on", "time": 8, "note": 72, "velocity": 116, "channel": 0}, {"type": "note_off", "time": 42, "note": 72, "velocity": 116, "channel": 0}, {"type": "note_on", "time": 5, "note": 70, "velocity": 104, "channel": 0}, {"type": "note_off", "time": 39, "note": 70, "velocity": 104, "channel": 0}, {"type": "note_on", "time": 4, "note": 68, "velocity": 112, "channel": 0}, {"type": "note_off", "time": 57, "note": 68, "velocity": 112, "channel": 0}, {"type": "note_on", "time": 13, "note": 67, "velocity": 111, "channel": 0}, {"type": "note_off", "time": 54, "note": 67, "velocity": 111, "channel": 0}, {"type": "note_on", "time": 2, "note": 65, "velocity": 109, "channel": 0}, {"type": "note_off", "time": 37, "note": 65, "velocity": 109, "channel": 0}, {"type": "note_on", "time": 6, "note": 63, "velocity": 115, "channel": 0}, {"type": "note_off", "time": 30, "note": 63, "velocity": 115, "channel": 0}, {"type": "note_on", "time": 1, "note": 62, "velocity": 109, "channel": 0}, {"type": "note_off", "time": 54, "note": 62, "velocity": 109, "channel": 0}, {"type": "note_on", "time": 7, "note": 60, "velocity": 93, "channel": 0}, {"type": "note_off", "time": 76, "note": 60, "velocity": 93, "channel": 0}, {"type": "note_on", "time": 601, "note": 57, "velocity": 111, "channel": 0}, {"type": "note_off", "time": 68, "note": 57, "velocity": 111, "channel": 0}, {"type": "note_on", "time": 15, "note": 60, "velocity": 103, "channel": 0}, {"type": "note_off", "time": 54, "note": 60, "velocity": 103, "channel": 0}, {"type": "note_on", "time": 8, "note": 64, "velocity": 105, "channel": 0}, {"type": "note_off", "time": 32, "note": 64, "velocity": 105, "channel": 0}, {"type": "note_on", "time": 5, "note": 66, "velocity": 114, "channel": 0}, {"type": "note_off", "time": 41, "note": 66, "velocity": 114, "channel": 0}, {"type": "note_on", "time": 2, "note": 67, "velocity": 117, "channel": 0}, {"type": "note_off", "time": 136, "note": 67, "velocity": 117, "channel": 0}, {"type": "note_on", "time": 7, "note": 66, "velocity": 39, "channel": 0}, {"type": "note_off", "time": 78, "note": 66, "velocity": 39, "channel": 0}, {"type": "note_on", "time": 7, "note": 64, "velocity": 110, "channel": 0}, {"type": "note_off", "time": 103, "note": 64, "velocity": 110, "channel": 0}, {"type": "note_on", "time": 11, "note": 62, "velocity": 100, "channel": 0}, {"type": "note_off", "time": 65, "note": 62, "velocity": 100, "channel": 0}, {"type": "note_on", "time": 6, "note": 71, "velocity": 105, "channel": 0}, {"type": "note_off", "time": 179, "note": 71, "velocity": 105, "channel": 0}, {"type": "note_on", "time": 1, "note": 68, "velocity": 111, "channel": 0}, {"type": "note_off", "time": 230, "note": 68, "velocity": 111, "channel": 0}, {"type": "note_on", "time": 356, "note": 67, "velocity": 107, "channel": 0}, {"type": "note_off", "time": 117, "note": 67, "velocity": 107, "channel": 0}, {"type": "note_on", "time": 9, "note": 65, "velocity": 109, "channel": 0}, {"type": "note_off", "time": 64, "note": 65, "velocity": 109, "channel": 0}, {"type": "note_on", "time": 0, "note": 71, "velocity": 104, "channel": 0}, {"type": "note_off", "time": 113, "note": 71, "velocity": 104, "channel": 0}, {"type": "note_on", "time": 0, "note": 69, "velocity": 100, "channel": 0}, {"type": "note_off", "time": 78, "note": 69, "velocity": 100, "channel": 0}, {"type": "note_on", "time": 2, "note": 68, "velocity": 100, "channel": 0}, {"type": "note_off", "time": 27, "note": 68, "velocity": 100, "channel": 0}, {"type": "note_on", "time": 7, "note": 70, "velocity": 100, "channel": 0}, {"type": "note_off", "time": 91, "note": 70, "velocity": 100, "channel": 0}, {"type": "note_on", "time": 0, "note": 67, "velocity": 106, "channel": 0}, {"type": "note_off", "time": 76, "note": 67, "velocity": 106, "channel": 0}, {"type": "note_on", "time": 7, "note": 68, "velocity": 108, "channel": 0}, {"type": "note_off", "time": 99, "note": 68, "velocity": 108, "channel": 0}, {"type": "note_on", "time": 2, "note": 66, "velocity": 96, "channel": 0}, {"type": "note_off", "time": 86, "note": 66, "velocity": 96, "channel": 0}, {"type": "note_on", "time": 9, "note": 67, "velocity": 109, "channel": 0}, {"type": "note_off", "time": 96, "note": 67, "velocity": 109, "channel": 0}, {"type": "note_on", "time": 0, "note": 66, "velocity": 111, "channel": 0}, {"type": "note_off", "time": 74, "note": 66, "velocity": 111, "channel": 0}, {"type": "note_on", "time": 1, "note": 65, "velocity": 114, "channel": 0}, {"type": "note_off", "time": 124, "note": 65, "velocity": 114, "channel": 0}, {"type": "note_on", "time": 17, "note": 63, "velocity": 104, "channel": 0}, {"type": "note_off", "time": 66, "note": 63, "velocity": 104, "channel": 0}, {"type": "note_on", "time": 13, "note": 64, "velocity": 112, "channel": 0}, {"type": "note_off", "time": 105, "note": 64, "velocity": 112, "channel": 0}, {"type": "note_on", "time": 12, "note": 65, "velocity": 111, "channel": 0}, {"type": "note_off", "time": 74, "note": 65, "velocity": 111, "channel": 0}, {"type": "note_on", "time": 6, "note": 66, "velocity": 106, "channel": 0}, {"type": "note_off", "time": 79, "note": 66, "velocity": 106, "channel": 0}, {"type": "note_on", "time": 10, "note": 70, "velocity": 99, "channel": 0}, {"type": "note_off", "time": 72, "note": 70, "velocity": 99, "channel": 0}, {"type": "note_on", "time": 7, "note": 72, "velocity": 123, "channel": 0}, {"type": "note_off", "time": 106, "note": 72, "velocity": 123, "channel": 0}, {"type": "note_on", "time": 6, "note": 76, "velocity": 109, "channel": 0}, {"type": "note_off", "time": 77, "note": 76, "velocity": 109, "channel": 0}, {"type": "note_on", "time": 1, "note": 78, "velocity": 112, "channel": 0}, {"type": "note_off", "time": 128, "note": 78, "velocity": 112, "channel": 0}, {"type": "note_on", "time": 11, "note": 70, "velocity": 92, "channel": 0}, {"type": "note_off", "time": 66, "note": 70, "velocity": 92, "channel": 0}, {"type": "note_on", "time": 3, "note": 72, "velocity": 118, "channel": 0}, {"type": "note_off", "time": 140, "note": 72, "velocity": 118, "channel": 0}, {"type": "note_on", "time": 47, "note": 76, "velocity": 115, "channel": 0}, {"type": "note_off", "time": 37, "note": 76, "velocity": 115, "channel": 0}, {"type": "note_on", "time": 2, "note": 77, "velocity": 113, "channel": 0}, {"type": "note_off", "time": 129, "note": 77, "velocity": 113, "channel": 0}, {"type": "note_on", "time": 2, "note": 78, "velocity": 113, "channel": 0}, {"type": "note_off", "time": 206, "note": 78, "velocity": 113, "channel": 0}, {"type": "note_on", "time": 302, "note": 79, "velocity": 111, "channel": 0}, {"type": "note_off", "time": 60, "note": 79, "velocity": 111, "channel": 0}, {"type": "note_on", "time": 13, "note": 80, "velocity": 107, "channel": 0}, {"type": "note_off", "time": 109, "note": 80, "velocity": 107, "channel": 0}, {"type": "note_on", "time": 88, "note": 75, "velocity": 120, "channel": 0}, {"type": "note_off", "time": 127, "note": 75, "velocity": 120, "channel": 0}, {"type": "note_on", "time": 8, "note": 80, "velocity": 110, "channel": 0}, {"type": "note_off", "time": 76, "note": 80, "velocity": 110, "channel": 0}, {"type": "note_on", "time": 3, "note": 78, "velocity": 102, "channel": 0}, {"type": "note_off", "time": 70, "note": 78, "velocity": 102, "channel": 0}, {"type": "note_on", "time": 6, "note": 79, "velocity": 100, "channel": 0}, {"type": "note_off", "time": 42, "note": 79, "velocity": 100, "channel": 0}, {"type": "note_on", "time": 0, "note": 76, "velocity": 113, "channel": 0}, {"type": "note_off", "time": 81, "note": 76, "velocity": 113, "channel": 0}, {"type": "note_on", "time": 1, "note": 77, "velocity": 111, "channel": 0}, {"type": "note_off", "time": 113, "note": 77, "velocity": 111, "channel": 0}, {"type": "note_on", "time": 4, "note": 72, "velocity": 114, "channel": 0}, {"type": "note_off", "time": 94, "note": 72, "velocity": 114, "channel": 0}, {"type": "note_on", "time": 5, "note": 69, "velocity": 103, "channel": 0}, {"type": "note_off", "time": 59, "note": 69, "velocity": 103, "channel": 0}, {"type": "note_on", "time": 0, "note": 65, "velocity": 114, "channel": 0}, {"type": "note_off", "time": 121, "note": 65, "velocity": 114, "channel": 0}, {"type": "note_on", "time": 12, "note": 63, "velocity": 114, "channel": 0}, {"type": "note_off", "time": 153, "note": 63, "velocity": 114, "channel": 0}, {"type": "note_on", "time": 8, "note": 57, "velocity": 111, "channel": 0}, {"type": "note_off", "time": 96, "note": 57, "velocity": 111, "channel": 0}, {"type": "note_on", "time": 4, "note": 56, "velocity": 113, "channel": 0}, {"type": "note_off", "time": 308, "note": 56, "velocity": 113, "channel": 0}, {"type": "note_on", "time": 29, "note": 59, "velocity": 92, "channel": 0}, {"type": "note_off", "time": 31, "note": 59, "velocity": 92, "channel": 0}, {"type": "note_on", "time": 4, "note": 62, "velocity": 108, "channel": 0}, {"type": "note_off", "time": 39, "note": 62, "velocity": 108, "channel": 0}, {"type": "note_on", "time": 11, "note": 68, "velocity": 105, "channel": 0}, {"type": "note_off", "time": 66, "note": 68, "velocity": 105, "channel": 0}, {"type": "note_on", "time": 12, "note": 61, "velocity": 112, "channel": 0}, {"type": "note_off", "time": 127, "note": 61, "velocity": 112, "channel": 0}, {"type": "note_on", "time": 4, "note": 63, "velocity": 109, "channel": 0}, {"type": "note_off", "time": 72, "note": 63, "velocity": 109, "channel": 0}, {"type": "note_on", "time": 6, "note": 66, "velocity": 109, "channel": 0}, {"type": "note_off", "time": 107, "note": 66, "velocity": 109, "channel": 0}, {"type": "note_on", "time": 8, "note": 65, "velocity": 109, "channel": 0}, {"type": "note_off", "time": 25, "note": 65, "velocity": 109, "channel": 0}, {"type": "note_on", "time": 3, "note": 68, "velocity": 109, "channel": 0}, {"type": "note_off", "time": 58, "note": 68, "velocity": 109, "channel": 0}, {"type": "note_on", "time": 2, "note": 64, "velocity": 110, "channel": 0}, {"type": "note_off", "time": 313, "note": 64, "velocity": 110, "channel": 0}, {"type": "note_on", "time": 5, "note": 66, "velocity": 109, "channel": 0}, {"type": "note_off", "time": 118, "note": 66, "velocity": 109, "channel": 0}, {"type": "note_on", "time": 14, "note": 76, "velocity": 113, "channel": 0}, {"type": "note_off", "time": 191, "note": 76, "velocity": 113, "channel": 0}, {"type": "note_on", "time": 227, "note": 77, "velocity": 122, "channel": 0}, {"type": "note_off", "time": 136, "note": 77, "velocity": 122, "channel": 0}, {"type": "note_on", "time": 11, "note": 73, "velocity": 121, "channel": 0}, {"type": "note_off", "time": 175, "note": 73, "velocity": 121, "channel": 0}, {"type": "note_on", "time": 207, "note": 80, "velocity": 115, "channel": 0}, {"type": "note_off", "time": 117, "note": 80, "velocity": 115, "channel": 0}, {"type": "note_on", "time": 0, "note": 83, "velocity": 106, "channel": 0}, {"type": "note_off", "time": 113, "note": 83, "velocity": 106, "channel": 0}, {"type": "note_on", "time": 2, "note": 85, "velocity": 108, "channel": 0}, {"type": "note_off", "time": 169, "note": 85, "velocity": 108, "channel": 0}, {"type": "note_on", "time": 160, "note": 83, "velocity": 93, "channel": 0}, {"type": "note_off", "time": 86, "note": 83, "velocity": 93, "channel": 0}, {"type": "note_on", "time": 1, "note": 77, "velocity": 115, "channel": 0}, {"type": "note_off", "time": 97, "note": 77, "velocity": 115, "channel": 0}, {"type": "note_on", "time": 7, "note": 83, "velocity": 107, "channel": 0}, {"type": "note_off", "time": 113, "note": 83, "velocity": 107, "channel": 0}, {"type": "note_on", "time": 6, "note": 82, "velocity": 112, "channel": 0}, {"type": "note_off", "time": 88, "note": 82, "velocity": 112, "channel": 0}, {"type": "note_on", "time": 5, "note": 78, "velocity": 114, "channel": 0}, {"type": "note_off", "time": 75, "note": 78, "velocity": 114, "channel": 0}, {"type": "note_on", "time": 2, "note": 76, "velocity": 116, "channel": 0}, {"type": "note_off", "time": 85, "note": 76, "velocity": 116, "channel": 0}, {"type": "note_on", "time": 11, "note": 80, "velocity": 114, "channel": 0}, {"type": "note_off", "time": 89, "note": 80, "velocity": 114, "channel": 0}, {"type": "note_on", "time": 5, "note": 78, "velocity": 111, "channel": 0}, {"type": "note_off", "time": 101, "note": 78, "velocity": 111, "channel": 0}, {"type": "note_on", "time": 1, "note": 73, "velocity": 117, "channel": 0}, {"type": "note_off", "time": 85, "note": 73, "velocity": 117, "channel": 0}, {"type": "note_on", "time": 0, "note": 70, "velocity": 100, "channel": 0}, {"type": "note_off", "time": 101, "note": 70, "velocity": 100, "channel": 0}, {"type": "note_on", "time": 8, "note": 66, "velocity": 82, "channel": 0}, {"type": "note_off", "time": 68, "note": 66, "velocity": 82, "channel": 0}, {"type": "note_on", "time": 2, "note": 73, "velocity": 118, "channel": 0}, {"type": "note_off", "time": 56, "note": 73, "velocity": 118, "channel": 0}, {"type": "note_on", "time": 1, "note": 74, "velocity": 115, "channel": 0}, {"type": "note_off", "time": 27, "note": 74, "velocity": 115, "channel": 0}, {"type": "note_on", "time": 4, "note": 76, "velocity": 115, "channel": 0}, {"type": "note_off", "time": 102, "note": 76, "velocity": 115, "channel": 0}, {"type": "note_on", "time": 7, "note": 78, "velocity": 112, "channel": 0}, {"type": "note_off", "time": 307, "note": 78, "velocity": 112, "channel": 0}, {"type": "note_on", "time": 334, "note": 57, "velocity": 121, "channel": 0}, {"type": "note_off", "time": 42, "note": 57, "velocity": 121, "channel": 0}, {"type": "note_on", "time": 1, "note": 58, "velocity": 114, "channel": 0}, {"type": "note_off", "time": 62, "note": 58, "velocity": 114, "channel": 0}, {"type": "note_on", "time": 12, "note": 61, "velocity": 113, "channel": 0}, {"type": "note_off", "time": 27, "note": 61, "velocity": 113, "channel": 0}, {"type": "note_on", "time": 8, "note": 62, "velocity": 95, "channel": 0}, {"type": "note_off", "time": 15, "note": 62, "velocity": 95, "channel": 0}, {"type": "note_on", "time": 13, "note": 66, "velocity": 108, "channel": 0}, {"type": "note_off", "time": 25, "note": 66, "velocity": 108, "channel": 0}, {"type": "note_on", "time": 0, "note": 65, "velocity": 113, "channel": 0}, {"type": "note_off", "time": 31, "note": 65, "velocity": 113, "channel": 0}, {"type": "note_on", "time": 1, "note": 58, "velocity": 118, "channel": 0}, {"type": "note_off", "time": 23, "note": 58, "velocity": 118, "channel": 0}, {"type": "note_on", "time": 5, "note": 59, "velocity": 121, "channel": 0}, {"type": "note_off", "time": 21, "note": 59, "velocity": 121, "channel": 0}, {"type": "note_on", "time": 9, "note": 62, "velocity": 113, "channel": 0}, {"type": "note_off", "time": 39, "note": 62, "velocity": 113, "channel": 0}, {"type": "note_on", "time": 9, "note": 64, "velocity": 92, "channel": 0}, {"type": "note_off", "time": 42, "note": 64, "velocity": 92, "channel": 0}, {"type": "note_on", "time": 25, "note": 58, "velocity": 120, "channel": 0}, {"type": "note_off", "time": 23, "note": 58, "velocity": 120, "channel": 0}, {"type": "note_on", "time": 0, "note": 59, "velocity": 101, "channel": 0}, {"type": "note_off", "time": 37, "note": 59, "velocity": 101, "channel": 0}, {"type": "note_on", "time": 7, "note": 63, "velocity": 112, "channel": 0}, {"type": "note_on", "time": 33, "note": 66, "velocity": 111, "channel": 0}, {"type": "note_off", "time": 0, "note": 63, "velocity": 112, "channel": 0}, {"type": "note_off", "time": 39, "note": 66, "velocity": 111, "channel": 0}, {"type": "note_on", "time": 3, "note": 64, "velocity": 115, "channel": 0}, {"type": "note_off", "time": 37, "note": 64, "velocity": 115, "channel": 0}, {"type": "note_on", "time": 3, "note": 62, "velocity": 112, "channel": 0}, {"type": "note_off", "time": 46, "note": 62, "velocity": 112, "channel": 0}, {"type": "note_on", "time": 15, "note": 63, "velocity": 114, "channel": 0}, {"type": "note_off", "time": 82, "note": 63, "velocity": 114, "channel": 0}, {"type": "note_on", "time": 97, "note": 74, "velocity": 107, "channel": 0}, {"type": "note_off", "time": 64, "note": 74, "velocity": 107, "channel": 0}, {"type": "note_on", "time": 8, "note": 67, "velocity": 110, "channel": 0}, {"type": "note_off", "time": 59, "note": 67, "velocity": 110, "channel": 0}, {"type": "note_on", "time": 6, "note": 70, "velocity": 96, "channel": 0}, {"type": "note_off", "time": 23, "note": 70, "velocity": 96, "channel": 0}, {"type": "note_on", "time": 5, "note": 71, "velocity": 113, "channel": 0}, {"type": "note_off", "time": 33, "note": 71, "velocity": 113, "channel": 0}, {"type": "note_on", "time": 3, "note": 72, "velocity": 108, "channel": 0}, {"type": "note_off", "time": 58, "note": 72, "velocity": 108, "channel": 0}, {"type": "note_on", "time": 5, "note": 73, "velocity": 103, "channel": 0}, {"type": "note_off", "time": 39, "note": 73, "velocity": 103, "channel": 0}, {"type": "note_on", "time": 5, "note": 74, "velocity": 110, "channel": 0}, {"type": "note_off", "time": 49, "note": 74, "velocity": 110, "channel": 0}, {"type": "note_on", "time": 5, "note": 75, "velocity": 109, "channel": 0}, {"type": "note_off", "time": 60, "note": 75, "velocity": 109, "channel": 0}, {"type": "note_on", "time": 2, "note": 73, "velocity": 111, "channel": 0}, {"type": "note_off", "time": 41, "note": 73, "velocity": 111, "channel": 0}, {"type": "note_on", "time": 10, "note": 74, "velocity": 111, "channel": 0}, {"type": "note_off", "time": 42, "note": 74, "velocity": 111, "channel": 0}, {"type": "note_on", "time": 1, "note": 78, "velocity": 94, "channel": 0}, {"type": "note_off", "time": 31, "note": 78, "velocity": 94, "channel": 0}, {"type": "note_on", "time": 4, "note": 80, "velocity": 108, "channel": 0}, {"type": "note_off", "time": 66, "note": 80, "velocity": 108, "channel": 0}, {"type": "note_on", "time": 8, "note": 78, "velocity": 110, "channel": 0}, {"type": "note_off", "time": 60, "note": 78, "velocity": 110, "channel": 0}, {"type": "note_on", "time": 0, "note": 77, "velocity": 109, "channel": 0}, {"type": "note_off", "time": 44, "note": 77, "velocity": 109, "channel": 0}, {"type": "note_on", "time": 0, "note": 75, "velocity": 109, "channel": 0}, {"type": "note_off", "time": 44, "note": 75, "velocity": 109, "channel": 0}, {"type": "note_on", "time": 9, "note": 74, "velocity": 109, "channel": 0}, {"type": "note_off", "time": 40, "note": 74, "velocity": 109, "channel": 0}, {"type": "note_on", "time": 1, "note": 76, "velocity": 105, "channel": 0}, {"type": "note_off", "time": 19, "note": 76, "velocity": 105, "channel": 0}, {"type": "note_on", "time": 3, "note": 78, "velocity": 110, "channel": 0}, {"type": "note_on", "time": 46, "note": 79, "velocity": 106, "channel": 0}, {"type": "note_off", "time": 0, "note": 78, "velocity": 110, "channel": 0}, {"type": "note_off", "time": 21, "note": 79, "velocity": 106, "channel": 0}, {"type": "note_on", "time": 5, "note": 81, "velocity": 112, "channel": 0}, {"type": "note_off", "time": 37, "note": 81, "velocity": 112, "channel": 0}, {"type": "note_on", "time": 12, "note": 86, "velocity": 96, "channel": 0}, {"type": "note_off", "time": 19, "note": 86, "velocity": 96, "channel": 0}, {"type": "note_on", "time": 3, "note": 84, "velocity": 103, "channel": 0}, {"type": "note_on", "time": 37, "note": 83, "velocity": 105, "channel": 0}, {"type": "note_off", "time": 0, "note": 84, "velocity": 103, "channel": 0}, {"type": "note_off", "time": 39, "note": 83, "velocity": 105, "channel": 0}, {"type": "note_on", "time": 11, "note": 81, "velocity": 108, "channel": 0}, {"type": "note_off", "time": 58, "note": 81, "velocity": 108, "channel": 0}, {"type": "note_on", "time": 0, "note": 79, "velocity": 106, "channel": 0}, {"type": "note_off", "time": 25, "note": 79, "velocity": 106, "channel": 0}, {"type": "note_on", "time": 0, "note": 78, "velocity": 108, "channel": 0}, {"type": "note_off", "time": 40, "note": 78, "velocity": 108, "channel": 0}, {"type": "note_on", "time": 0, "note": 79, "velocity": 112, "channel": 0}, {"type": "note_off", "time": 21, "note": 79, "velocity": 112, "channel": 0}, {"type": "note_on", "time": 0, "note": 80, "velocity": 113, "channel": 0}, {"type": "note_off", "time": 58, "note": 80, "velocity": 113, "channel": 0}, {"type": "note_on", "time": 7, "note": 78, "velocity": 110, "channel": 0}, {"type": "note_off", "time": 41, "note": 78, "velocity": 110, "channel": 0}, {"type": "note_on", "time": 4, "note": 76, "velocity": 114, "channel": 0}, {"type": "note_off", "time": 42, "note": 76, "velocity": 114, "channel": 0}, {"type": "note_on", "time": 1, "note": 74, "velocity": 109, "channel": 0}, {"type": "note_off", "time": 31, "note": 74, "velocity": 109, "channel": 0}, {"type": "note_on", "time": 1, "note": 72, "velocity": 114, "channel": 0}, {"type": "note_off", "time": 40, "note": 72, "velocity": 114, "channel": 0}, {"type": "note_on", "time": 3, "note": 70, "velocity": 101, "channel": 0}, {"type": "note_off", "time": 17, "note": 70, "velocity": 101, "channel": 0}, {"type": "note_on", "time": 0, "note": 69, "velocity": 102, "channel": 0}, {"type": "note_off", "time": 37, "note": 69, "velocity": 102, "channel": 0}, {"type": "note_on", "time": 9, "note": 65, "velocity": 118, "channel": 0}, {"type": "note_off", "time": 42, "note": 65, "velocity": 118, "channel": 0}, {"type": "note_on", "time": 2, "note": 64, "velocity": 115, "channel": 0}, {"type": "note_off", "time": 32, "note": 64, "velocity": 115, "channel": 0}, {"type": "note_on", "time": 1, "note": 62, "velocity": 115, "channel": 0}, {"type": "note_off", "time": 41, "note": 62, "velocity": 115, "channel": 0}, {"type": "note_on", "time": 0, "note": 60, "velocity": 112, "channel": 0}, {"type": "note_off", "time": 30, "note": 60, "velocity": 112, "channel": 0}, {"type": "note_on", "time": 1, "note": 57, "velocity": 112, "channel": 0}, {"type": "note_off", "time": 49, "note": 57, "velocity": 112, "channel": 0}, {"type": "note_on", "time": 5, "note": 56, "velocity": 113, "channel": 0}, {"type": "note_off", "time": 159, "note": 56, "velocity": 113, "channel": 0}, {"type": "note_on", "time": 288, "note": 83, "velocity": 104, "channel": 0}, {"type": "note_off", "time": 124, "note": 83, "velocity": 104, "channel": 0}, {"type": "note_on", "time": 0, "note": 85, "velocity": 102, "channel": 0}, {"type": "note_off", "time": 79, "note": 85, "velocity": 102, "channel": 0}, {"type": "note_on", "time": 3, "note": 87, "velocity": 105, "channel": 0}, {"type": "note_off", "time": 112, "note": 87, "velocity": 105, "channel": 0}, {"type": "note_on", "time": 38, "note": 86, "velocity": 91, "channel": 0}, {"type": "note_off", "time": 41, "note": 86, "velocity": 91, "channel": 0}, {"type": "note_on", "time": 5, "note": 88, "velocity": 100, "channel": 0}, {"type": "note_off", "time": 52, "note": 88, "velocity": 100, "channel": 0}, {"type": "note_on", "time": 0, "note": 87, "velocity": 103, "channel": 0}, {"type": "note_off", "time": 46, "note": 87, "velocity": 103, "channel": 0}, {"type": "note_on", "time": 15, "note": 83, "velocity": 88, "channel": 0}, {"type": "note_off", "time": 41, "note": 83, "velocity": 88, "channel": 0}, {"type": "note_on", "time": 2, "note": 85, "velocity": 98, "channel": 0}, {"type": "note_off", "time": 32, "note": 85, "velocity": 98, "channel": 0}, {"type": "note_on", "time": 21, "note": 88, "velocity": 92, "channel": 0}, {"type": "note_off", "time": 65, "note": 88, "velocity": 92, "channel": 0}, {"type": "note_on", "time": 13, "note": 85, "velocity": 95, "channel": 0}, {"type": "note_off", "time": 49, "note": 85, "velocity": 95, "channel": 0}, {"type": "note_on", "time": 13, "note": 83, "velocity": 105, "channel": 0}, {"type": "note_off", "time": 99, "note": 83, "velocity": 105, "channel": 0}, {"type": "note_on", "time": 0, "note": 80, "velocity": 108, "channel": 0}, {"type": "note_off", "time": 95, "note": 80, "velocity": 108, "channel": 0}, {"type": "note_on", "time": 10, "note": 83, "velocity": 106, "channel": 0}, {"type": "note_off", "time": 97, "note": 83, "velocity": 106, "channel": 0}, {"type": "note_on", "time": 4, "note": 80, "velocity": 113, "channel": 0}, {"type": "note_off", "time": 105, "note": 80, "velocity": 113, "channel": 0}, {"type": "note_on", "time": 3, "note": 78, "velocity": 111, "channel": 0}, {"type": "note_off", "time": 73, "note": 78, "velocity": 111, "channel": 0}, {"type": "note_on", "time": 0, "note": 80, "velocity": 112, "channel": 0}, {"type": "note_off", "time": 87, "note": 80, "velocity": 112, "channel": 0}, {"type": "note_on", "time": 0, "note": 82, "velocity": 106, "channel": 0}, {"type": "note_off", "time": 109, "note": 82, "velocity": 106, "channel": 0}, {"type": "note_on", "time": 8, "note": 78, "velocity": 113, "channel": 0}, {"type": "note_off", "time": 65, "note": 78, "velocity": 113, "channel": 0}, {"type": "note_on", "time": 1, "note": 76, "velocity": 112, "channel": 0}, {"type": "note_on", "time": 97, "note": 80, "velocity": 111, "channel": 0}, {"type": "note_off", "time": 0, "note": 76, "velocity": 112, "channel": 0}, {"type": "note_off", "time": 98, "note": 80, "velocity": 111, "channel": 0}, {"type": "note_on", "time": 0, "note": 78, "velocity": 110, "channel": 0}, {"type": "note_off", "time": 78, "note": 78, "velocity": 110, "channel": 0}, {"type": "note_on", "time": 9, "note": 73, "velocity": 112, "channel": 0}, {"type": "note_off", "time": 90, "note": 73, "velocity": 112, "channel": 0}, {"type": "note_on", "time": 1, "note": 74, "velocity": 114, "channel": 0}, {"type": "note_off", "time": 90, "note": 74, "velocity": 114, "channel": 0}, {"type": "note_on", "time": 7, "note": 78, "velocity": 110, "channel": 0}, {"type": "note_off", "time": 93, "note": 78, "velocity": 110, "channel": 0}, {"type": "note_on", "time": 4, "note": 76, "velocity": 110, "channel": 0}, {"type": "note_off", "time": 89, "note": 76, "velocity": 110, "channel": 0}, {"type": "note_on", "time": 2, "note": 73, "velocity": 116, "channel": 0}, {"type": "note_off", "time": 83, "note": 73, "velocity": 116, "channel": 0}, {"type": "note_on", "time": 2, "note": 70, "velocity": 102, "channel": 0}, {"type": "note_off", "time": 109, "note": 70, "velocity": 102, "channel": 0}, {"type": "note_on", "time": 54, "note": 68, "velocity": 106, "channel": 0}, {"type": "note_off", "time": 123, "note": 68, "velocity": 106, "channel": 0}, {"type": "note_on", "time": 2, "note": 73, "velocity": 114, "channel": 0}, {"type": "note_off", "time": 105, "note": 73, "velocity": 114, "channel": 0}, {"type": "note_on", "time": 7, "note": 67, "velocity": 103, "channel": 0}, {"type": "note_off", "time": 136, "note": 67, "velocity": 103, "channel": 0}, {"type": "note_on", "time": 33, "note": 72, "velocity": 117, "channel": 0}, {"type": "note_off", "time": 109, "note": 72, "velocity": 117, "channel": 0}, {"type": "note_on", "time": 11, "note": 73, "velocity": 117, "channel": 0}, {"type": "note_off", "time": 79, "note": 73, "velocity": 117, "channel": 0}, {"type": "note_on", "time": 0, "note": 70, "velocity": 99, "channel": 0}, {"type": "note_off", "time": 90, "note": 70, "velocity": 99, "channel": 0}, {"type": "note_on", "time": 35, "note": 66, "velocity": 108, "channel": 0}, {"type": "note_off", "time": 101, "note": 66, "velocity": 108, "channel": 0}, {"type": "note_on", "time": 2, "note": 65, "velocity": 108, "channel": 0}, {"type": "note_off", "time": 71, "note": 65, "velocity": 108, "channel": 0}, {"type": "note_on", "time": 16, "note": 64, "velocity": 110, "channel": 0}, {"type": "note_off", "time": 98, "note": 64, "velocity": 110, "channel": 0}, {"type": "note_on", "time": 0, "note": 63, "velocity": 105, "channel": 0}, {"type": "note_off", "time": 82, "note": 63, "velocity": 105, "channel": 0}, {"type": "note_on", "time": 0, "note": 67, "velocity": 110, "channel": 0}, {"type": "note_off", "time": 82, "note": 67, "velocity": 110, "channel": 0}, {"type": "note_on", "time": 8, "note": 62, "velocity": 102, "channel": 0}, {"type": "note_off", "time": 76, "note": 62, "velocity": 102, "channel": 0}, {"type": "note_on", "time": 54, "note": 63, "velocity": 107, "channel": 0}, {"type": "note_off", "time": 46, "note": 63, "velocity": 107, "channel": 0}, {"type": "note_on", "time": 189, "note": 74, "velocity": 112, "channel": 0}, {"type": "note_off", "time": 120, "note": 74, "velocity": 112, "channel": 0}, {"type": "note_on", "time": 16, "note": 75, "velocity": 117, "channel": 0}, {"type": "note_off", "time": 187, "note": 75, "velocity": 117, "channel": 0}, {"type": "note_on", "time": 375, "note": 68, "velocity": 108, "channel": 0}, {"type": "note_off", "time": 54, "note": 68, "velocity": 108, "channel": 0}, {"type": "note_on", "time": 0, "note": 69, "velocity": 104, "channel": 0}, {"type": "note_off", "time": 93, "note": 69, "velocity": 104, "channel": 0}, {"type": "note_on", "time": 2, "note": 72, "velocity": 119, "channel": 0}, {"type": "note_off", "time": 98, "note": 72, "velocity": 119, "channel": 0}, {"type": "note_on", "time": 2, "note": 74, "velocity": 110, "channel": 0}, {"type": "note_off", "time": 35, "note": 74, "velocity": 110, "channel": 0}, {"type": "note_on", "time": 2, "note": 76, "velocity": 106, "channel": 0}, {"type": "note_off", "time": 74, "note": 76, "velocity": 106, "channel": 0}, {"type": "note_on", "time": 8, "note": 79, "velocity": 108, "channel": 0}, {"type": "note_off", "time": 81, "note": 79, "velocity": 108, "channel": 0}, {"type": "note_on", "time": 9, "note": 83, "velocity": 111, "channel": 0}, {"type": "note_off", "time": 132, "note": 83, "velocity": 111, "channel": 0}, {"type": "note_on", "time": 6, "note": 80, "velocity": 111, "channel": 0}, {"type": "note_off", "time": 257, "note": 80, "velocity": 111, "channel": 0}, {"type": "note_on", "time": 467, "note": 57, "velocity": 111, "channel": 0}, {"type": "note_off", "time": 88, "note": 57, "velocity": 111, "channel": 0}, {"type": "note_on", "time": 0, "note": 58, "velocity": 107, "channel": 0}, {"type": "note_off", "time": 32, "note": 58, "velocity": 107, "channel": 0}, {"type": "note_on", "time": 8, "note": 60, "velocity": 107, "channel": 0}, {"type": "note_off", "time": 38, "note": 60, "velocity": 107, "channel": 0}, {"type": "note_on", "time": 2, "note": 61, "velocity": 109, "channel": 0}, {"type": "note_off", "time": 24, "note": 61, "velocity": 109, "channel": 0}, {"type": "note_on", "time": 8, "note": 65, "velocity": 117, "channel": 0}, {"type": "note_off", "time": 41, "note": 65, "velocity": 117, "channel": 0}, {"type": "note_on", "time": 8, "note": 64, "velocity": 113, "channel": 0}, {"type": "note_on", "time": 40, "note": 61, "velocity": 114, "channel": 0}, {"type": "note_off", "time": 0, "note": 64, "velocity": 113, "channel": 0}, {"type": "note_off", "time": 97, "note": 61, "velocity": 114, "channel": 0}, {"type": "note_on", "time": 11, "note": 63, "velocity": 115, "channel": 0}, {"type": "note_off", "time": 81, "note": 63, "velocity": 115, "channel": 0}, {"type": "note_on", "time": 3, "note": 65, "velocity": 114, "channel": 0}, {"type": "note_off", "time": 97, "note": 65, "velocity": 114, "channel": 0}, {"type": "note_on", "time": 88, "note": 70, "velocity": 101, "channel": 0}, {"type": "note_off", "time": 78, "note": 70, "velocity": 101, "channel": 0}, {"type": "note_on", "time": 0, "note": 73, "velocity": 116, "channel": 0}, {"type": "note_off", "time": 89, "note": 73, "velocity": 116, "channel": 0}, {"type": "note_on", "time": 2, "note": 75, "velocity": 108, "channel": 0}, {"type": "note_off", "time": 124, "note": 75, "velocity": 108, "channel": 0}, {"type": "note_on", "time": 5, "note": 77, "velocity": 111, "channel": 0}, {"type": "note_off", "time": 87, "note": 77, "velocity": 111, "channel": 0}, {"type": "note_on", "time": 5, "note": 78, "velocity": 109, "channel": 0}, {"type": "note_off", "time": 74, "note": 78, "velocity": 109, "channel": 0}, {"type": "note_on", "time": 0, "note": 80, "velocity": 115, "channel": 0}, {"type": "note_off", "time": 93, "note": 80, "velocity": 115, "channel": 0}, {"type": "note_on", "time": 5, "note": 82, "velocity": 101, "channel": 0}, {"type": "note_off", "time": 104, "note": 82, "velocity": 101, "channel": 0}, {"type": "note_on", "time": 8, "note": 78, "velocity": 110, "channel": 0}, {"type": "note_off", "time": 120, "note": 78, "velocity": 110, "channel": 0}, {"type": "note_on", "time": 0, "note": 77, "velocity": 112, "channel": 0}, {"type": "note_off", "time": 63, "note": 77, "velocity": 112, "channel": 0}, {"type": "note_on", "time": 5, "note": 75, "velocity": 98, "channel": 0}, {"type": "note_off", "time": 69, "note": 75, "velocity": 98, "channel": 0}, {"type": "note_on", "time": 2, "note": 76, "velocity": 111, "channel": 0}, {"type": "note_off", "time": 279, "note": 76, "velocity": 111, "channel": 0}, {"type": "note_on", "time": 16, "note": 75, "velocity": 107, "channel": 0}, {"type": "note_off", "time": 70, "note": 75, "velocity": 107, "channel": 0}, {"type": "note_on", "time": 3, "note": 76, "velocity": 113, "channel": 0}, {"type": "note_off", "time": 124, "note": 76, "velocity": 113, "channel": 0}, {"type": "note_on", "time": 4, "note": 75, "velocity": 105, "channel": 0}, {"type": "note_off", "time": 65, "note": 75, "velocity": 105, "channel": 0}, {"type": "note_on", "time": 19, "note": 76, "velocity": 113, "channel": 0}, {"type": "note_off", "time": 148, "note": 76, "velocity": 113, "channel": 0}, {"type": "note_on", "time": 15, "note": 75, "velocity": 111, "channel": 0}, {"type": "note_off", "time": 112, "note": 75, "velocity": 111, "channel": 0}, {"type": "note_on", "time": 0, "note": 73, "velocity": 117, "channel": 0}, {"type": "note_off", "time": 202, "note": 73, "velocity": 117, "channel": 0}, {"type": "note_on", "time": 348, "note": 73, "velocity": 122, "channel": 0}, {"type": "note_off", "time": 74, "note": 73, "velocity": 122, "channel": 0}, {"type": "note_on", "time": 10, "note": 74, "velocity": 111, "channel": 0}, {"type": "note_off", "time": 49, "note": 74, "velocity": 111, "channel": 0}, {"type": "note_on", "time": 4, "note": 76, "velocity": 118, "channel": 0}, {"type": "note_off", "time": 32, "note": 76, "velocity": 118, "channel": 0}, {"type": "note_on", "time": 1, "note": 78, "velocity": 107, "channel": 0}, {"type": "note_off", "time": 31, "note": 78, "velocity": 107, "channel": 0}, {"type": "note_on", "time": 6, "note": 79, "velocity": 106, "channel": 0}, {"type": "note_off", "time": 72, "note": 79, "velocity": 106, "channel": 0}, {"type": "note_on", "time": 4, "note": 76, "velocity": 116, "channel": 0}, {"type": "note_off", "time": 116, "note": 76, "velocity": 116, "channel": 0}, {"type": "note_on", "time": 2, "note": 77, "velocity": 111, "channel": 0}, {"type": "note_off", "time": 66, "note": 77, "velocity": 111, "channel": 0}, {"type": "note_on", "time": 1, "note": 78, "velocity": 110, "channel": 0}, {"type": "note_on", "time": 103, "note": 80, "velocity": 111, "channel": 0}, {"type": "note_off", "time": 0, "note": 78, "velocity": 110, "channel": 0}, {"type": "note_off", "time": 78, "note": 80, "velocity": 111, "channel": 0}, {"type": "note_on", "time": 4, "note": 82, "velocity": 107, "channel": 0}, {"type": "note_off", "time": 104, "note": 82, "velocity": 107, "channel": 0}, {"type": "note_on", "time": 5, "note": 83, "velocity": 87, "channel": 0}, {"type": "note_on", "time": 35, "note": 85, "velocity": 98, "channel": 0}, {"type": "note_off", "time": 0, "note": 83, "velocity": 87, "channel": 0}, {"type": "note_off", "time": 112, "note": 85, "velocity": 98, "channel": 0}, {"type": "note_on", "time": 5, "note": 86, "velocity": 95, "channel": 0}, {"type": "note_off", "time": 35, "note": 86, "velocity": 95, "channel": 0}, {"type": "note_on", "time": 8, "note": 82, "velocity": 107, "channel": 0}, {"type": "note_off", "time": 97, "note": 82, "velocity": 107, "channel": 0}, {"type": "note_on", "time": 3, "note": 79, "velocity": 110, "channel": 0}, {"type": "note_off", "time": 145, "note": 79, "velocity": 110, "channel": 0}, {"type": "note_on", "time": 32, "note": 81, "velocity": 110, "channel": 0}, {"type": "note_off", "time": 109, "note": 81, "velocity": 110, "channel": 0}, {"type": "note_on", "time": 30, "note": 86, "velocity": 98, "channel": 0}, {"type": "note_off", "time": 60, "note": 86, "velocity": 98, "channel": 0}, {"type": "note_on", "time": 16, "note": 83, "velocity": 106, "channel": 0}, {"type": "note_off", "time": 85, "note": 83, "velocity": 106, "channel": 0}, {"type": "note_on", "time": 13, "note": 80, "velocity": 107, "channel": 0}, {"type": "note_off", "time": 76, "note": 80, "velocity": 107, "channel": 0}, {"type": "note_on", "time": 0, "note": 76, "velocity": 106, "channel": 0}, {"type": "note_off", "time": 145, "note": 76, "velocity": 106, "channel": 0}, {"type": "note_on", "time": 51, "note": 80, "velocity": 112, "channel": 0}, {"type": "note_off", "time": 109, "note": 80, "velocity": 112, "channel": 0}, {"type": "note_on", "time": 0, "note": 77, "velocity": 109, "channel": 0}, {"type": "note_off", "time": 84, "note": 77, "velocity": 109, "channel": 0}, {"type": "note_on", "time": 4, "note": 72, "velocity": 117, "channel": 0}, {"type": "note_off", "time": 125, "note": 72, "velocity": 117, "channel": 0}, {"type": "note_on", "time": 65, "note": 72, "velocity": 120, "channel": 0}, {"type": "note_off", "time": 200, "note": 72, "velocity": 120, "channel": 0}, {"type": "note_on", "time": 0, "note": 73, "velocity": 115, "channel": 0}, {"type": "note_off", "time": 175, "note": 73, "velocity": 115, "channel": 0}, {"type": "note_on", "time": 5, "note": 74, "velocity": 114, "channel": 0}, {"type": "note_off", "time": 123, "note": 74, "velocity": 114, "channel": 0}, {"type": "note_on", "time": 381, "note": 77, "velocity": 120, "channel": 0}, {"type": "note_on", "time": 74, "note": 76, "velocity": 122, "channel": 0}, {"type": "note_off", "time": 0, "note": 77, "velocity": 120, "channel": 0}, {"type": "note_off", "time": 123, "note": 76, "velocity": 122, "channel": 0}, {"type": "note_on", "time": 4, "note": 72, "velocity": 110, "channel": 0}, {"type": "note_off", "time": 79, "note": 72, "velocity": 110, "channel": 0}, {"type": "note_on", "time": 2, "note": 79, "velocity": 108, "channel": 0}, {"type": "note_off", "time": 124, "note": 79, "velocity": 108, "channel": 0}, {"type": "note_on", "time": 9, "note": 76, "velocity": 106, "channel": 0}, {"type": "note_off", "time": 54, "note": 76, "velocity": 106, "channel": 0}, {"type": "note_on", "time": 2, "note": 77, "velocity": 110, "channel": 0}, {"type": "note_off", "time": 93, "note": 77, "velocity": 110, "channel": 0}, {"type": "note_on", "time": 8, "note": 79, "velocity": 109, "channel": 0}, {"type": "note_off", "time": 85, "note": 79, "velocity": 109, "channel": 0}, {"type": "note_on", "time": 5, "note": 80, "velocity": 110, "channel": 0}, {"type": "note_off", "time": 85, "note": 80, "velocity": 110, "channel": 0}, {"type": "note_on", "time": 4, "note": 82, "velocity": 108, "channel": 0}, {"type": "note_off", "time": 75, "note": 82, "velocity": 108, "channel": 0}, {"type": "note_on", "time": 3, "note": 83, "velocity": 104, "channel": 0}, {"type": "note_off", "time": 94, "note": 83, "velocity": 104, "channel": 0}, {"type": "note_on", "time": 2, "note": 84, "velocity": 104, "channel": 0}, {"type": "note_off", "time": 117, "note": 84, "velocity": 104, "channel": 0}, {"type": "note_on", "time": 3, "note": 85, "velocity": 96, "channel": 0}, {"type": "note_off", "time": 50, "note": 85, "velocity": 96, "channel": 0}, {"type": "note_on", "time": 3, "note": 86, "velocity": 99, "channel": 0}, {"type": "note_off", "time": 87, "note": 86, "velocity": 99, "channel": 0}, {"type": "note_on", "time": 1, "note": 83, "velocity": 101, "channel": 0}, {"type": "note_off", "time": 159, "note": 83, "velocity": 101, "channel": 0}, {"type": "note_on", "time": 30, "note": 79, "velocity": 111, "channel": 0}, {"type": "note_off", "time": 27, "note": 79, "velocity": 111, "channel": 0}, {"type": "note_on", "time": 0, "note": 80, "velocity": 109, "channel": 0}, {"type": "note_off", "time": 101, "note": 80, "velocity": 109, "channel": 0}, {"type": "note_on", "time": 67, "note": 84, "velocity": 104, "channel": 0}, {"type": "note_off", "time": 144, "note": 84, "velocity": 104, "channel": 0}, {"type": "note_on", "time": 13, "note": 82, "velocity": 106, "channel": 0}, {"type": "note_off", "time": 156, "note": 82, "velocity": 106, "channel": 0}, {"type": "note_on", "time": 13, "note": 78, "velocity": 113, "channel": 0}, {"type": "note_off", "time": 81, "note": 78, "velocity": 113, "channel": 0}, {"type": "note_on", "time": 7, "note": 76, "velocity": 109, "channel": 0}, {"type": "note_off", "time": 109, "note": 76, "velocity": 109, "channel": 0}, {"type": "note_on", "time": 1, "note": 72, "velocity": 102, "channel": 0}, {"type": "note_off", "time": 63, "note": 72, "velocity": 102, "channel": 0}, {"type": "note_on", "time": 9, "note": 78, "velocity": 110, "channel": 0}, {"type": "note_off", "time": 115, "note": 78, "velocity": 110, "channel": 0}, {"type": "note_on", "time": 3, "note": 76, "velocity": 110, "channel": 0}, {"type": "note_off", "time": 68, "note": 76, "velocity": 110, "channel": 0}, {"type": "note_on", "time": 11, "note": 72, "velocity": 116, "channel": 0}, {"type": "note_off", "time": 82, "note": 72, "velocity": 116, "channel": 0}, {"type": "note_on", "time": 19, "note": 70, "velocity": 102, "channel": 0}, {"type": "note_off", "time": 87, "note": 70, "velocity": 102, "channel": 0}, {"type": "note_on", "time": 0, "note": 66, "velocity": 110, "channel": 0}, {"type": "note_off", "time": 90, "note": 66, "velocity": 110, "channel": 0}, {"type": "note_on", "time": 8, "note": 64, "velocity": 110, "channel": 0}, {"type": "note_off", "time": 112, "note": 64, "velocity": 110, "channel": 0}, {"type": "note_on", "time": 14, "note": 60, "velocity": 113, "channel": 0}, {"type": "note_off", "time": 93, "note": 60, "velocity": 113, "channel": 0}, {"type": "note_on", "time": 8, "note": 59, "velocity": 112, "channel": 0}, {"type": "note_off", "time": 60, "note": 59, "velocity": 112, "channel": 0}, {"type": "note_on", "time": 0, "note": 58, "velocity": 108, "channel": 0}, {"type": "note_off", "time": 255, "note": 58, "velocity": 108, "channel": 0}, {"type": "note_on", "time": 394, "note": 65, "velocity": 112, "channel": 0}, {"type": "note_off", "time": 90, "note": 65, "velocity": 112, "channel": 0}, {"type": "note_on", "time": 6, "note": 66, "velocity": 109, "channel": 0}, {"type": "note_off", "time": 124, "note": 66, "velocity": 109, "channel": 0}, {"type": "note_on", "time": 0, "note": 65, "velocity": 108, "channel": 0}, {"type": "note_off", "time": 65, "note": 65, "velocity": 108, "channel": 0}, {"type": "note_on", "time": 13, "note": 63, "velocity": 109, "channel": 0}, {"type": "note_off", "time": 117, "note": 63, "velocity": 109, "channel": 0}, {"type": "note_on", "time": 22, "note": 60, "velocity": 100, "channel": 0}, {"type": "note_off", "time": 63, "note": 60, "velocity": 100, "channel": 0}, {"type": "note_on", "time": 24, "note": 66, "velocity": 109, "channel": 0}, {"type": "note_off", "time": 192, "note": 66, "velocity": 109, "channel": 0}, {"type": "note_on", "time": 262, "note": 56, "velocity": 109, "channel": 0}, {"type": "note_off", "time": 67, "note": 56, "velocity": 109, "channel": 0}, {"type": "note_on", "time": 33, "note": 62, "velocity": 101, "channel": 0}, {"type": "note_off", "time": 80, "note": 62, "velocity": 101, "channel": 0}, {"type": "note_on", "time": 5, "note": 66, "velocity": 110, "channel": 0}, {"type": "note_off", "time": 85, "note": 66, "velocity": 110, "channel": 0}, {"type": "note_on", "time": 12, "note": 65, "velocity": 110, "channel": 0}, {"type": "note_off", "time": 79, "note": 65, "velocity": 110, "channel": 0}, {"type": "note_on", "time": 31, "note": 57, "velocity": 99, "channel": 0}, {"type": "note_off", "time": 55, "note": 57, "velocity": 99, "channel": 0}, {"type": "note_on", "time": 3, "note": 62, "velocity": 108, "channel": 0}, {"type": "note_off", "time": 109, "note": 62, "velocity": 108, "channel": 0}, {"type": "note_on", "time": 88, "note": 64, "velocity": 111, "channel": 0}, {"type": "note_off", "time": 327, "note": 64, "velocity": 111, "channel": 0}, {"type": "note_on", "time": 219, "note": 57, "velocity": 110, "channel": 0}, {"type": "note_off", "time": 72, "note": 57, "velocity": 110, "channel": 0}, {"type": "note_on", "time": 8, "note": 60, "velocity": 101, "channel": 0}, {"type": "note_off", "time": 32, "note": 60, "velocity": 101, "channel": 0}, {"type": "note_on", "time": 2, "note": 61, "velocity": 107, "channel": 0}, {"type": "note_off", "time": 41, "note": 61, "velocity": 107, "channel": 0}, {"type": "note_on", "time": 0, "note": 62, "velocity": 114, "channel": 0}, {"type": "note_off", "time": 21, "note": 62, "velocity": 114, "channel": 0}, {"type": "note_on", "time": 5, "note": 63, "velocity": 103, "channel": 0}, {"type": "note_off", "time": 21, "note": 63, "velocity": 103, "channel": 0}, {"type": "note_on", "time": 5, "note": 65, "velocity": 106, "channel": 0}, {"type": "note_off", "time": 17, "note": 65, "velocity": 106, "channel": 0}, {"type": "note_on", "time": 1, "note": 66, "velocity": 106, "channel": 0}, {"type": "note_off", "time": 54, "note": 66, "velocity": 106, "channel": 0}, {"type": "note_on", "time": 6, "note": 65, "velocity": 105, "channel": 0}, {"type": "note_off", "time": 45, "note": 65, "velocity": 105, "channel": 0}, {"type": "note_on", "time": 5, "note": 63, "velocity": 106, "channel": 0}, {"type": "note_off", "time": 63, "note": 63, "velocity": 106, "channel": 0}, {"type": "note_on", "time": 30, "note": 59, "velocity": 109, "channel": 0}, {"type": "note_off", "time": 52, "note": 59, "velocity": 109, "channel": 0}, {"type": "note_on", "time": 10, "note": 63, "velocity": 100, "channel": 0}, {"type": "note_off", "time": 32, "note": 63, "velocity": 100, "channel": 0}, {"type": "note_on", "time": 5, "note": 66, "velocity": 98, "channel": 0}, {"type": "note_off", "time": 21, "note": 66, "velocity": 98, "channel": 0}, {"type": "note_on", "time": 5, "note": 70, "velocity": 103, "channel": 0}, {"type": "note_off", "time": 46, "note": 70, "velocity": 103, "channel": 0}, {"type": "note_on", "time": 5, "note": 66, "velocity": 99, "channel": 0}, {"type": "note_off", "time": 35, "note": 66, "velocity": 99, "channel": 0}, {"type": "note_on", "time": 2, "note": 65, "velocity": 100, "channel": 0}, {"type": "note_off", "time": 35, "note": 65, "velocity": 100, "channel": 0}, {"type": "note_on", "time": 2, "note": 68, "velocity": 108, "channel": 0}, {"type": "note_off", "time": 49, "note": 68, "velocity": 108, "channel": 0}, {"type": "note_on", "time": 10, "note": 75, "velocity": 109, "channel": 0}, {"type": "note_off", "time": 35, "note": 75, "velocity": 109, "channel": 0}, {"type": "note_on", "time": 2, "note": 74, "velocity": 95, "channel": 0}, {"type": "note_off", "time": 41, "note": 74, "velocity": 95, "channel": 0}, {"type": "note_on", "time": 25, "note": 67, "velocity": 103, "channel": 0}, {"type": "note_off", "time": 39, "note": 67, "velocity": 103, "channel": 0}, {"type": "note_on", "time": 3, "note": 68, "velocity": 108, "channel": 0}, {"type": "note_off", "time": 28, "note": 68, "velocity": 108, "channel": 0}, {"type": "note_on", "time": 5, "note": 70, "velocity": 96, "channel": 0}, {"type": "note_off", "time": 31, "note": 70, "velocity": 96, "channel": 0}, {"type": "note_on", "time": 6, "note": 73, "velocity": 111, "channel": 0}, {"type": "note_off", "time": 49, "note": 73, "velocity": 111, "channel": 0}, {"type": "note_on", "time": 15, "note": 75, "velocity": 104, "channel": 0}, {"type": "note_off", "time": 46, "note": 75, "velocity": 104, "channel": 0}, {"type": "note_on", "time": 2, "note": 77, "velocity": 94, "channel": 0}, {"type": "note_off", "time": 32, "note": 77, "velocity": 94, "channel": 0}, {"type": "note_on", "time": 15, "note": 82, "velocity": 103, "channel": 0}, {"type": "note_off", "time": 36, "note": 82, "velocity": 103, "channel": 0}, {"type": "note_on", "time": 8, "note": 80, "velocity": 112, "channel": 0}, {"type": "note_off", "time": 163, "note": 80, "velocity": 112, "channel": 0}, {"type": "note_on", "time": 469, "note": 58, "velocity": 108, "channel": 0}, {"type": "note_off", "time": 49, "note": 58, "velocity": 108, "channel": 0}, {"type": "note_on", "time": 16, "note": 62, "velocity": 105, "channel": 0}, {"type": "note_off", "time": 56, "note": 62, "velocity": 105, "channel": 0}, {"type": "note_on", "time": 6, "note": 66, "velocity": 105, "channel": 0}, {"type": "note_off", "time": 52, "note": 66, "velocity": 105, "channel": 0}, {"type": "note_on", "time": 3, "note": 65, "velocity": 111, "channel": 0}, {"type": "note_off", "time": 67, "note": 65, "velocity": 111, "channel": 0}, {"type": "note_on", "time": 0, "note": 66, "velocity": 108, "channel": 0}, {"type": "note_off", "time": 60, "note": 66, "velocity": 108, "channel": 0}, {"type": "note_on", "time": 2, "note": 65, "velocity": 105, "channel": 0}, {"type": "note_off", "time": 65, "note": 65, "velocity": 105, "channel": 0}, {"type": "note_on", "time": 28, "note": 58, "velocity": 86, "channel": 0}, {"type": "note_off", "time": 17, "note": 58, "velocity": 86, "channel": 0}, {"type": "note_on", "time": 1, "note": 59, "velocity": 97, "channel": 0}, {"type": "note_off", "time": 23, "note": 59, "velocity": 97, "channel": 0}, {"type": "note_on", "time": 2, "note": 63, "velocity": 110, "channel": 0}, {"type": "note_off", "time": 148, "note": 63, "velocity": 110, "channel": 0}, {"type": "note_on", "time": 3, "note": 64, "velocity": 112, "channel": 0}, {"type": "note_off", "time": 210, "note": 64, "velocity": 112, "channel": 0}, {"type": "note_on", "time": 358, "note": 57, "velocity": 106, "channel": 0}, {"type": "note_off", "time": 78, "note": 57, "velocity": 106, "channel": 0}, {"type": "note_on", "time": 6, "note": 58, "velocity": 101, "channel": 0}, {"type": "note_off", "time": 30, "note": 58, "velocity": 101, "channel": 0}, {"type": "note_on", "time": 21, "note": 64, "velocity": 106, "channel": 0}, {"type": "note_off", "time": 54, "note": 64, "velocity": 106, "channel": 0}, {"type": "note_on", "time": 5, "note": 66, "velocity": 107, "channel": 0}, {"type": "note_off", "time": 171, "note": 66, "velocity": 107, "channel": 0}, {"type": "note_on", "time": 4, "note": 67, "velocity": 112, "channel": 0}, {"type": "note_off", "time": 200, "note": 67, "velocity": 112, "channel": 0}, {"type": "note_on", "time": 1, "note": 66, "velocity": 105, "channel": 0}, {"type": "note_off", "time": 175, "note": 66, "velocity": 105, "channel": 0}, {"type": "note_on", "time": 197, "note": 64, "velocity": 108, "channel": 0}, {"type": "note_off", "time": 175, "note": 64, "velocity": 108, "channel": 0}, {"type": "note_on", "time": 3, "note": 65, "velocity": 107, "channel": 0}, {"type": "note_off", "time": 202, "note": 65, "velocity": 107, "channel": 0}, {"type": "note_on", "time": 1, "note": 63, "velocity": 109, "channel": 0}, {"type": "note_off", "time": 204, "note": 63, "velocity": 109, "channel": 0}, {"type": "note_on", "time": 280, "note": 57, "velocity": 109, "channel": 0}, {"type": "note_off", "time": 89, "note": 57, "velocity": 109, "channel": 0}, {"type": "note_on", "time": 14, "note": 63, "velocity": 93, "channel": 0}, {"type": "note_off", "time": 54, "note": 63, "velocity": 93, "channel": 0}, {"type": "note_on", "time": 8, "note": 66, "velocity": 96, "channel": 0}, {"type": "note_off", "time": 82, "note": 66, "velocity": 96, "channel": 0}, {"type": "note_on", "time": 2, "note": 67, "velocity": 111, "channel": 0}, {"type": "note_off", "time": 132, "note": 67, "velocity": 111, "channel": 0}, {"type": "note_on", "time": 7, "note": 66, "velocity": 100, "channel": 0}, {"type": "note_off", "time": 76, "note": 66, "velocity": 100, "channel": 0}, {"type": "note_on", "time": 2, "note": 71, "velocity": 104, "channel": 0}, {"type": "note_off", "time": 112, "note": 71, "velocity": 104, "channel": 0}, {"type": "note_on", "time": 5, "note": 68, "velocity": 112, "channel": 0}, {"type": "note_off", "time": 268, "note": 68, "velocity": 112, "channel": 0}, {"type": "note_on", "time": 65, "note": 66, "velocity": 109, "channel": 0}, {"type": "note_off", "time": 66, "note": 66, "velocity": 109, "channel": 0}, {"type": "note_on", "time": 6, "note": 62, "velocity": 109, "channel": 0}, {"type": "note_off", "time": 109, "note": 62, "velocity": 109, "channel": 0}, {"type": "note_on", "time": 1, "note": 56, "velocity": 113, "channel": 0}, {"type": "note_off", "time": 245, "note": 56, "velocity": 113, "channel": 0}, {"type": "note_on", "time": 15, "note": 58, "velocity": 108, "channel": 0}, {"type": "note_off", "time": 269, "note": 58, "velocity": 108, "channel": 0}, {"type": "end_of_track", "time": 0}]]}