{"ticks_per_beat": 192, "tracks": [[{"type": "track_name", "name": "Melody", "time": 0}, {"type": "set_tempo", "tempo": 198019, "time": 0}, {"type": "key_signature", "key": "F", "time": 0}, {"type": "time_signature", "numerator": 4, "denominator": 4, "clocks_per_click": 24, "notated_32nd_notes_per_beat": 8, "time": 0}, {"type": "note_on", "time": 6731, "note": 57, "velocity": 100, "channel": 0}, {"type": "note_off", "time": 106, "note": 57, "velocity": 100, "channel": 0}, {"type": "note_on", "time": 11, "note": 53, "velocity": 103, "channel": 0}, {"type": "note_off", "time": 75, "note": 53, "velocity": 103, "channel": 0}, {"type": "note_on", "time": 11, "note": 52, "velocity": 105, "channel": 0}, {"type": "note_off", "time": 87, "note": 52, "velocity": 105, "channel": 0}, {"type": "note_on", "time": 15, "note": 57, "velocity": 100, "channel": 0}, {"type": "note_off", "time": 79, "note": 57, "velocity": 100, "channel": 0}, {"type": "note_on", "time": 19, "note": 62, "velocity": 116, "channel": 0}, {"type": "note_off", "time": 94, "note": 62, "velocity": 116, "channel": 0}, {"type": "note_on", "time": 3, "note": 58, "velocity": 117, "channel": 0}, {"type": "note_off", "time": 79, "note": 58, "velocity": 117, "channel": 0}, {"type": "note_on", "time": 7, "note": 55, "velocity": 112, "channel": 0}, {"type": "note_off", "time": 91, "note": 55, "velocity": 112, "channel": 0}, {"type": "note_on", "time": 0, "note": 58, "velocity": 117, "channel": 0}, {"type": "note_off", "time": 79, "note": 58, "velocity": 117, "channel": 0}, {"type": "note_on", "time": 7, "note": 60, "velocity": 116, "channel": 0}, {"type": "note_off", "time": 114, "note": 60, "velocity": 116, "channel": 0}, {"type": "note_on", "time": 11, "note": 57, "velocity": 114, "channel": 0}, {"type": "note_off", "time": 87, "note": 57, "velocity": 114, "channel": 0}, {"type": "note_on", "time": 3, "note": 58, "velocity": 108, "channel": 0}, {"type": "note_on", "time": 114, "note": 60, "velocity": 110, "channel": 0}, {"type": "note_off", "time": 0, "note": 58, "velocity": 108, "channel": 0}, {"type": "note_off", "time": 94, "note": 60, "velocity": 110, "channel": 0}, {"type": "note_on", "time": 3, "note": 61, "velocity": 101, "channel": 0}, {"type": "note_off", "time": 71, "note": 61, "velocity": 101, "channel": 0}, {"type": "note_on", "time": 0, "note": 63, "velocity": 101, "channel": 0}, {"type": "note_off", "time": 51, "note": 63, "velocity": 101, "channel": 0}, {"type": "note_on", "time": 15, "note": 64, "velocity": 103, "channel": 0}, {"type": "note_off", "time": 55, "note": 64, "velocity": 103, "channel": 0}, {"type": "note_on", "time": 8, "note": 67, "velocity": 107, "channel": 0}, {"type": "note_off", "time": 128, "note": 67, "velocity": 107, "channel": 0}, {"type": "note_on", "time": 7, "note": 64, "velocity": 100, "channel": 0}, {"type": "note_off", "time": 43, "note": 64, "velocity": 100, "channel": 0}, {"type": "note_on", "time": 22, "note": 65, "velocity": 99, "channel": 0}, {"type": "note_on", "time": 102, "note": 72, "velocity": 105, "channel": 0}, {"type": "note_off", "time": 0, "note": 65, "velocity": 99, "channel": 0}, {"type": "note_off", "time": 85, "note": 72, "velocity": 105, "channel": 0}, {"type": "note_on", "time": 15, "note": 69, "velocity": 104, "channel": 0}, {"type": "note_off", "time": 108, "note": 69, "velocity": 104, "channel": 0}, {"type": "note_on", "time": 22, "note": 65, "velocity": 106, "channel": 0}, {"type": "note_off", "time": 70, "note": 65, "velocity": 106, "channel": 0}, {"type": "note_on", "time": 16, "note": 64, "velocity": 101, "channel": 0}, {"type": "note_off", "time": 119, "note": 64, "velocity": 101, "channel": 0}, {"type": "note_on", "time": 24, "note": 62, "velocity": 92, "channel": 0}, {"type": "note_off", "time": 75, "note": 62, "velocity": 92, "channel": 0}, {"type": "note_on", "time": 48, "note": 67, "velocity": 100, "channel": 0}, {"type": "note_off", "time": 247, "note": 67, "velocity": 100, "channel": 0}, {"type": "note_on", "time": 25, "note": 65, "velocity": 106, "channel": 0}, {"type": "note_off", "time": 91, "note": 65, "velocity": 106, "channel": 0}, {"type": "note_on", "time": 15, "note": 67, "velocity": 97, "channel": 0}, {"type": "note_off", "time": 40, "note": 67, "velocity": 97, "channel": 0}, {"type": "note_on", "time": 5, "note": 65, "velocity": 105, "channel": 0}, {"type": "note_off", "time": 36, "note": 65, "velocity": 105, "channel": 0}, {"type": "note_on", "time": 11, "note": 64, "velocity": 111, "channel": 0}, {"type": "note_off", "time": 140, "note": 64, "velocity": 111, "channel": 0}, {"type": "note_on", "time": 16, "note": 62, "velocity": 110, "channel": 0}, {"type": "note_off", "time": 108, "note": 62, "velocity": 110, "channel": 0}, {"type": "note_on", "time": 34, "note": 60, "velocity": 97, "channel": 0}, {"type": "note_off", "time": 106, "note": 60, "velocity": 97, "channel": 0}, {"type": "note_on", "time": 106, "note": 60, "velocity": 104, "channel": 0}, {"type": "note_off", "time": 134, "note": 60, "velocity": 104, "channel": 0}, {"type": "note_on", "time": 110, "note": 58, "velocity": 96, "channel": 0}, {"type": "note_off", "time": 193, "note": 58, "velocity": 96, "channel": 0}, {"type": "note_on", "time": 91, "note": 57, "velocity": 101, "channel": 0}, {"type": "note_off", "time": 126, "note": 57, "velocity": 101, "channel": 0}, {"type": "note_on", "time": 496, "note": 60, "velocity": 107, "channel": 0}, {"type": "note_off", "time": 284, "note": 60, "velocity": 107, "channel": 0}, {"type": "note_on", "time": 52, "note": 57, "velocity": 105, "channel": 0}, {"type": "note_off", "time": 40, "note": 57, "velocity": 105, "channel": 0}, {"type": "note_on", "time": 9, "note": 58, "velocity": 101, "channel": 0}, {"type": "note_off", "time": 66, "note": 58, "velocity": 101, "channel": 0}, {"type": "note_on", "time": 8, "note": 57, "velocity": 93, "channel": 0}, {"type": "note_off", "time": 28, "note": 57, "velocity": 93, "channel": 0}, {"type": "note_on", "time": 226, "note": 56, "velocity": 88, "channel": 0}, {"type": "note_off", "time": 47, "note": 56, "velocity": 88, "channel": 0}, {"type": "note_on", "time": 7, "note": 57, "velocity": 104, "channel": 0}, {"type": "note_off", "time": 102, "note": 57, "velocity": 104, "channel": 0}, {"type": "note_on", "time": 36, "note": 55, "velocity": 99, "channel": 0}, {"type": "note_off", "time": 71, "note": 55, "velocity": 99, "channel": 0}, {"type": "note_on", "time": 35, "note": 53, "velocity": 100, "channel": 0}, {"type": "note_off", "time": 59, "note": 53, "velocity": 100, "channel": 0}, {"type": "note_on", "time": 81, "note": 54, "velocity": 100, "channel": 0}, {"type": "note_off", "time": 36, "note": 54, "velocity": 100, "channel": 0}, {"type": "note_on", "time": 7, "note": 55, "velocity": 97, "channel": 0}, {"type": "note_off", "time": 88, "note": 55, "velocity": 97, "channel": 0}, {"type": "note_on", "time": 78, "note": 53, "velocity": 103, "channel": 0}, {"type": "note_off", "time": 126, "note": 53, "velocity": 103, "channel": 0}, {"type": "note_on", "time": 22, "note": 54, "velocity": 104, "channel": 0}, {"type": "note_off", "time": 61, "note": 54, "velocity": 104, "channel": 0}, {"type": "note_on", "time": 42, "note": 57, "velocity": 101, "channel": 0}, {"type": "note_off", "time": 63, "note": 57, "velocity": 101, "channel": 0}, {"type": "note_on", "time": 34, "note": 52, "velocity": 97, "channel": 0}, {"type": "note_off", "time": 119, "note": 52, "velocity": 97, "channel": 0}, {"type": "note_on", "time": 103, "note": 55, "velocity": 108, "channel": 0}, {"type": "note_off", "time": 130, "note": 55, "velocity": 108, "channel": 0}, {"type": "note_on", "time": 89, "note": 53, "velocity": 104, "channel": 0}, {"type": "note_off", "time": 87, "note": 53, "velocity": 104, "channel": 0}, {"type": "note_on", "time": 9, "note": 50, "velocity": 107, "channel": 0}, {"type": "note_off", "time": 61, "note": 50, "velocity": 107, "channel": 0}, {"type": "note_on", "time": 1124, "note": 56, "velocity": 95, "channel": 0}, {"type": "note_off", "time": 60, "note": 56, "velocity": 95, "channel": 0}, {"type": "note_on", "time": 19, "note": 59, "velocity": 113, "channel": 0}, {"type": "note_off", "time": 77, "note": 59, "velocity": 113, "channel": 0}, {"type": "note_on", "time": 18, "note": 56, "velocity": 100, "channel": 0}, {"type": "note_off", "time": 95, "note": 56, "velocity": 100, "channel": 0}, {"type": "note_on", "time": 4, "note": 57, "velocity": 103, "channel": 0}, {"type": "note_off", "time": 78, "note": 57, "velocity": 103, "channel": 0}, {"type": "note_on", "time": 2, "note": 58, "velocity": 106, "channel": 0}, {"type": "note_off", "time": 75, "note": 58, "velocity": 106, "channel": 0}, {"type": "note_on", "time": 18, "note": 60, "velocity": 120, "channel": 0}, {"type": "note_off", "time": 84, "note": 60, "velocity": 120, "channel": 0}, {"type": "note_on", "time": 208, "note": 60, "velocity": 114, "channel": 0}, {"type": "note_off", "time": 52, "note": 60, "velocity": 114, "channel": 0}, {"type": "note_on", "time": 8, "note": 61, "velocity": 102, "channel": 0}, {"type": "note_off", "time": 80, "note": 61, "velocity": 102, "channel": 0}, {"type": "note_on", "time": 14, "note": 64, "velocity": 87, "channel": 0}, {"type": "note_off", "time": 94, "note": 64, "velocity": 87, "channel": 0}, {"type": "note_on", "time": 43, "note": 67, "velocity": 106, "channel": 0}, {"type": "note_off", "time": 150, "note": 67, "velocity": 106, "channel": 0}, {"type": "note_on", "time": 134, "note": 66, "velocity": 116, "channel": 0}, {"type": "note_off", "time": 104, "note": 66, "velocity": 116, "channel": 0}, {"type": "note_on", "time": 3, "note": 65, "velocity": 107, "channel": 0}, {"type": "note_off", "time": 100, "note": 65, "velocity": 107, "channel": 0}, {"type": "note_on", "time": 5, "note": 64, "velocity": 112, "channel": 0}, {"type": "note_off", "time": 89, "note": 64, "velocity": 112, "channel": 0}, {"type": "note_on", "time": 13, "note": 62, "velocity": 107, "channel": 0}, {"type": "note_off", "time": 63, "note": 62, "velocity": 107, "channel": 0}, {"type": "note_on", "time": 11, "note": 61, "velocity": 104, "channel": 0}, {"type": "note_off", "time": 75, "note": 61, "velocity": 104, "channel": 0}, {"type": "note_on", "time": 3, "note": 60, "velocity": 103, "channel": 0}, {"type": "note_off", "time": 113, "note": 60, "velocity": 103, "channel": 0}, {"type": "note_on", "time": 13, "note": 59, "velocity": 99, "channel": 0}, {"type": "note_off", "time": 67, "note": 59, "velocity": 99, "channel": 0}, {"type": "note_on", "time": 9, "note": 58, "velocity": 98, "channel": 0}, {"type": "note_off", "time": 98, "note": 58, "velocity": 98, "channel": 0}, {"type": "note_on", "time": 113, "note": 54, "velocity": 100, "channel": 0}, {"type": "note_off", "time": 98, "note": 54, "velocity": 100, "channel": 0}, {"type": "note_on", "time": 66, "note": 61, "velocity": 111, "channel": 0}, {"type": "note_off", "time": 106, "note": 61, "velocity": 111, "channel": 0}, {"type": "note_on", "time": 96, "note": 58, "velocity": 99, "channel": 0}, {"type": "note_off", "time": 79, "note": 58, "velocity": 99, "channel": 0}, {"type": "note_on", "time": 23, "note": 61, "velocity": 97, "channel": 0}, {"type": "note_off", "time": 83, "note": 61, "velocity": 97, "channel": 0}, {"type": "note_on", "time": 16, "note": 64, "velocity": 122, "channel": 0}, {"type": "note_off", "time": 121, "note": 64, "velocity": 122, "channel": 0}, {"type": "note_on", "time": 32, "note": 61, "velocity": 99, "channel": 0}, {"type": "note_off", "time": 67, "note": 61, "velocity": 99, "channel": 0}, {"type": "note_on", "time": 4, "note": 62, "velocity": 111, "channel": 0}, {"type": "note_off", "time": 163, "note": 62, "velocity": 111, "channel": 0}, {"type": "note_on", "time": 21, "note": 64, "velocity": 106, "channel": 0}, {"type": "note_off", "time": 115, "note": 64, "velocity": 106, "channel": 0}, {"type": "note_on", "time": 85, "note": 64, "velocity": 114, "channel": 0}, {"type": "note_off", "time": 105, "note": 64, "velocity": 114, "channel": 0}, {"type": "note_on", "time": 0, "note": 65, "velocity": 113, "channel": 0}, {"type": "note_off", "time": 109, "note": 65, "velocity": 113, "channel": 0}, {"type": "note_on", "time": 19, "note": 62, "velocity": 102, "channel": 0}, {"type": "note_off", "time": 113, "note": 62, "velocity": 102, "channel": 0}, {"type": "note_on", "time": 613, "note": 65, "velocity": 114, "channel": 0}, {"type": "note_off", "time": 129, "note": 65, "velocity": 114, "channel": 0}, {"type": "note_on", "time": 2, "note": 66, "velocity": 101, "channel": 0}, {"type": "note_off", "time": 66, "note": 66, "velocity": 101, "channel": 0}, {"type": "note_on", "time": 15, "note": 70, "velocity": 109, "channel": 0}, {"type": "note_off", "time": 105, "note": 70, "velocity": 109, "channel": 0}, {"type": "note_on", "time": 14, "note": 66, "velocity": 112, "channel": 0}, {"type": "note_off", "time": 70, "note": 66, "velocity": 112, "channel": 0}, {"type": "note_on", "time": 15, "note": 64, "velocity": 99, "channel": 0}, {"type": "note_off", "time": 77, "note": 64, "velocity": 99, "channel": 0}, {"type": "note_on", "time": 17, "note": 62, "velocity": 103, "channel": 0}, {"type": "note_off", "time": 65, "note": 62, "velocity": 103, "channel": 0}, {"type": "note_on", "time": 0, "note": 68, "velocity": 109, "channel": 0}, {"type": "note_off", "time": 73, "note": 68, "velocity": 109, "channel": 0}, {"type": "note_on", "time": 48, "note": 59, "velocity": 91, "channel": 0}, {"type": "note_off", "time": 70, "note": 59, "velocity": 91, "channel": 0}, {"type": "note_on", "time": 10, "note": 60, "velocity": 93, "channel": 0}, {"type": "note_off", "time": 106, "note": 60, "velocity": 93, "channel": 0}, {"type": "note_on", "time": 5, "note": 67, "velocity": 109, "channel": 0}, {"type": "note_off", "time": 81, "note": 67, "velocity": 109, "channel": 0}, {"type": "note_on", "time": 94, "note": 64, "velocity": 94, "channel": 0}, {"type": "note_off", "time": 43, "note": 64, "velocity": 94, "channel": 0}, {"type": "note_on", "time": 15, "note": 62, "velocity": 101, "channel": 0}, {"type": "note_off", "time": 52, "note": 62, "velocity": 101, "channel": 0}, {"type": "note_on", "time": 39, "note": 58, "velocity": 95, "channel": 0}, {"type": "note_off", "time": 83, "note": 58, "velocity": 95, "channel": 0}, {"type": "note_on", "time": 86, "note": 62, "velocity": 105, "channel": 0}, {"type": "note_off", "time": 97, "note": 62, "velocity": 105, "channel": 0}, {"type": "note_on", "time": 295, "note": 57, "velocity": 114, "channel": 0}, {"type": "note_off", "time": 118, "note": 57, "velocity": 114, "channel": 0}, {"type": "note_on", "time": 278, "note": 60, "velocity": 117, "channel": 0}, {"type": "note_off", "time": 135, "note": 60, "velocity": 117, "channel": 0}, {"type": "note_on", "time": 176, "note": 57, "velocity": 99, "channel": 0}, {"type": "note_off", "time": 94, "note": 57, "velocity": 99, "channel": 0}, {"type": "note_on", "time": 11, "note": 58, "velocity": 100, "channel": 0}, {"type": "note_off", "time": 126, "note": 58, "velocity": 100, "channel": 0}, {"type": "note_on", "time": 31, "note": 60, "velocity": 106, "channel": 0}, {"type": "note_off", "time": 98, "note": 60, "velocity": 106, "channel": 0}, {"type": "note_on", "time": 85, "note": 62, "velocity": 110, "channel": 0}, {"type": "note_off", "time": 178, "note": 62, "velocity": 110, "channel": 0}, {"type": "note_on", "time": 12, "note": 64, "velocity": 106, "channel": 0}, {"type": "note_off", "time": 403, "note": 64, "velocity": 106, "channel": 0}, {"type": "note_on", "time": 31, "note": 60, "velocity": 96, "channel": 0}, {"type": "note_off", "time": 79, "note": 60, "velocity": 96, "channel": 0}, {"type": "note_on", "time": 95, "note": 62, "velocity": 109, "channel": 0}, {"type": "note_off", "time": 147, "note": 62, "velocity": 109, "channel": 0}, {"type": "note_on", "time": 18, "note": 64, "velocity": 109, "channel": 0}, {"type": "note_off", "time": 393, "note": 64, "velocity": 109, "channel": 0}, {"type": "note_on", "time": 14, "note": 60, "velocity": 97, "channel": 0}, {"type": "note_off", "time": 94, "note": 60, "velocity": 97, "channel": 0}, {"type": "note_on", "time": 95, "note": 60, "velocity": 100, "channel": 0}, {"type": "note_off", "time": 130, "note": 60, "velocity": 100, "channel": 0}, {"type": "note_on", "time": 441, "note": 64, "velocity": 126, "channel": 0}, {"type": "note_off", "time": 113, "note": 64, "velocity": 126, "channel": 0}, {"type": "note_on", "time": 8, "note": 62, "velocity": 119, "channel": 0}, {"type": "note_off", "time": 87, "note": 62, "velocity": 119, "channel": 0}, {"type": "note_on", "time": 15, "note": 60, "velocity": 107, "channel": 0}, {"type": "note_off", "time": 71, "note": 60, "velocity": 107, "channel": 0}, {"type": "note_on", "time": 19, "note": 59, "velocity": 100, "channel": 0}, {"type": "note_off", "time": 85, "note": 59, "velocity": 100, "channel": 0}, {"type": "note_on", "time": 21, "note": 58, "velocity": 100, "channel": 0}, {"type": "note_off", "time": 95, "note": 58, "velocity": 100, "channel": 0}, {"type": "note_on", "time": 1, "note": 55, "velocity": 89, "channel": 0}, {"type": "note_off", "time": 71, "note": 55, "velocity": 89, "channel": 0}, {"type": "note_on", "time": 3, "note": 56, "velocity": 99, "channel": 0}, {"type": "note_off", "time": 102, "note": 56, "velocity": 99, "channel": 0}, {"type": "note_on", "time": 17, "note": 57, "velocity": 102, "channel": 0}, {"type": "note_off", "time": 90, "note": 57, "velocity": 102, "channel": 0}, {"type": "note_on", "time": 14, "note": 53, "velocity": 92, "channel": 0}, {"type": "note_off", "time": 97, "note": 53, "velocity": 92, "channel": 0}, {"type": "note_on", "time": 14, "note": 52, "velocity": 84, "channel": 0}, {"type": "note_off", "time": 53, "note": 52, "velocity": 84, "channel": 0}, {"type": "note_on", "time": 9, "note": 55, "velocity": 95, "channel": 0}, {"type": "note_off", "time": 95, "note": 55, "velocity": 95, "channel": 0}, {"type": "note_on", "time": 267, "note": 54, "velocity": 103, "channel": 0}, {"type": "note_off", "time": 84, "note": 54, "velocity": 103, "channel": 0}, {"type": "note_on", "time": 106, "note": 50, "velocity": 96, "channel": 0}, {"type": "note_off", "time": 88, "note": 50, "velocity": 96, "channel": 0}, {"type": "note_on", "time": 790, "note": 57, "velocity": 106, "channel": 0}, {"type": "note_off", "time": 71, "note": 57, "velocity": 106, "channel": 0}, {"type": "note_on", "time": 19, "note": 56, "velocity": 96, "channel": 0}, {"type": "note_off", "time": 118, "note": 56, "velocity": 96, "channel": 0}, {"type": "note_on", "time": 26, "note": 53, "velocity": 102, "channel": 0}, {"type": "note_off", "time": 88, "note": 53, "velocity": 102, "channel": 0}, {"type": "note_on", "time": 175, "note": 55, "velocity": 103, "channel": 0}, {"type": "note_off", "time": 101, "note": 55, "velocity": 103, "channel": 0}, {"type": "note_on", "time": 18, "note": 54, "velocity": 102, "channel": 0}, {"type": "note_off", "time": 85, "note": 54, "velocity": 102, "channel": 0}, {"type": "note_on", "time": 18, "note": 53, "velocity": 94, "channel": 0}, {"type": "note_off", "time": 98, "note": 53, "velocity": 94, "channel": 0}, {"type": "note_on", "time": 68, "note": 52, "velocity": 96, "channel": 0}, {"type": "note_off", "time": 126, "note": 52, "velocity": 96, "channel": 0}, {"type": "note_on", "time": 198, "note": 57, "velocity": 103, "channel": 0}, {"type": "note_off", "time": 57, "note": 57, "velocity": 103, "channel": 0}, {"type": "note_on", "time": 8, "note": 62, "velocity": 105, "channel": 0}, {"type": "note_off", "time": 122, "note": 62, "velocity": 105, "channel": 0}, {"type": "note_on", "time": 12, "note": 61, "velocity": 104, "channel": 0}, {"type": "note_off", "time": 91, "note": 61, "velocity": 104, "channel": 0}, {"type": "note_on", "time": 11, "note": 60, "velocity": 104, "channel": 0}, {"type": "note_off", "time": 80, "note": 60, "velocity": 104, "channel": 0}, {"type": "note_on", "time": 11, "note": 59, "velocity": 104, "channel": 0}, {"type": "note_off", "time": 83, "note": 59, "velocity": 104, "channel": 0}, {"type": "note_on", "time": 7, "note": 58, "velocity": 97, "channel": 0}, {"type": "note_off", "time": 94, "note": 58, "velocity": 97, "channel": 0}, {"type": "note_on", "time": 23, "note": 56, "velocity": 102, "channel": 0}, {"type": "note_off", "time": 53, "note": 56, "velocity": 102, "channel": 0}, {"type": "note_on", "time": 32, "note": 57, "velocity": 105, "channel": 0}, {"type": "note_off", "time": 92, "note": 57, "velocity": 105, "channel": 0}, {"type": "note_on", "time": 25, "note": 54, "velocity": 94, "channel": 0}, {"type": "note_off", "time": 54, "note": 54, "velocity": 94, "channel": 0}, {"type": "note_on", "time": 15, "note": 55, "velocity": 92, "channel": 0}, {"type": "note_off", "time": 83, "note": 55, "velocity": 92, "channel": 0}, {"type": "note_on", "time": 21, "note": 57, "velocity": 101, "channel": 0}, {"type": "note_off", "time": 61, "note": 57, "velocity": 101, "channel": 0}, {"type": "note_on", "time": 14, "note": 58, "velocity": 100, "channel": 0}, {"type": "note_off", "time": 90, "note": 58, "velocity": 100, "channel": 0}, {"type": "note_on", "time": 2, "note": 62, "velocity": 108, "channel": 0}, {"type": "note_off", "time": 83, "note": 62, "velocity": 108, "channel": 0}, {"type": "note_on", "time": 11, "note": 64, "velocity": 106, "channel": 0}, {"type": "note_off", "time": 91, "note": 64, "velocity": 106, "channel": 0}, {"type": "note_on", "time": 7, "note": 65, "velocity": 104, "channel": 0}, {"type": "note_off", "time": 90, "note": 65, "velocity": 104, "channel": 0}, {"type": "note_on", "time": 12, "note": 67, "velocity": 97, "channel": 0}, {"type": "note_off", "time": 75, "note": 67, "velocity": 97, "channel": 0}, {"type": "note_on", "time": 84, "note": 69, "velocity": 119, "channel": 0}, {"type": "note_off", "time": 151, "note": 69, "velocity": 119, "channel": 0}, {"type": "note_on", "time": 4, "note": 70, "velocity": 114, "channel": 0}, {"type": "note_off", "time": 232, "note": 70, "velocity": 114, "channel": 0}, {"type": "note_on", "time": 30, "note": 67, "velocity": 110, "channel": 0}, {"type": "note_off", "time": 142, "note": 67, "velocity": 110, "channel": 0}, {"type": "note_on", "time": 537, "note": 67, "velocity": 121, "channel": 0}, {"type": "note_off", "time": 94, "note": 67, "velocity": 121, "channel": 0}, {"type": "note_on", "time": 8, "note": 64, "velocity": 116, "channel": 0}, {"type": "note_off", "time": 101, "note": 64, "velocity": 116, "channel": 0}, {"type": "note_on", "time": 14, "note": 62, "velocity": 114, "channel": 0}, {"type": "note_off", "time": 88, "note": 62, "velocity": 114, "channel": 0}, {"type": "note_on", "time": 19, "note": 60, "velocity": 104, "channel": 0}, {"type": "note_off", "time": 80, "note": 60, "velocity": 104, "channel": 0}, {"type": "note_on", "time": 4, "note": 58, "velocity": 105, "channel": 0}, {"type": "note_off", "time": 66, "note": 58, "velocity": 105, "channel": 0}, {"type": "note_on", "time": 12, "note": 57, "velocity": 101, "channel": 0}, {"type": "note_off", "time": 143, "note": 57, "velocity": 101, "channel": 0}, {"type": "note_on", "time": 10, "note": 60, "velocity": 102, "channel": 0}, {"type": "note_off", "time": 90, "note": 60, "velocity": 102, "channel": 0}, {"type": "note_on", "time": 9, "note": 62, "velocity": 95, "channel": 0}, {"type": "note_off", "time": 87, "note": 62, "velocity": 95, "channel": 0}, {"type": "note_on", "time": 7, "note": 67, "velocity": 106, "channel": 0}, {"type": "note_off", "time": 189, "note": 67, "velocity": 106, "channel": 0}, {"type": "note_on", "time": 704, "note": 67, "velocity": 114, "channel": 0}, {"type": "note_off", "time": 213, "note": 67, "velocity": 114, "channel": 0}, {"type": "note_on", "time": 35, "note": 67, "velocity": 99, "channel": 0}, {"type": "note_off", "time": 67, "note": 67, "velocity": 99, "channel": 0}, {"type": "note_on", "time": 6, "note": 67, "velocity": 111, "channel": 0}, {"type": "note_off", "time": 130, "note": 67, "velocity": 111, "channel": 0}, {"type": "note_on", "time": 33, "note": 67, "velocity": 89, "channel": 0}, {"type": "note_off", "time": 79, "note": 67, "velocity": 89, "channel": 0}, {"type": "note_on", "time": 15, "note": 67, "velocity": 87, "channel": 0}, {"type": "note_off", "time": 102, "note": 67, "velocity": 87, "channel": 0}, {"type": "note_on", "time": 40, "note": 67, "velocity": 107, "channel": 0}, {"type": "note_off", "time": 154, "note": 67, "velocity": 107, "channel": 0}, {"type": "note_on", "time": 14, "note": 67, "velocity": 95, "channel": 0}, {"type": "note_off", "time": 63, "note": 67, "velocity": 95, "channel": 0}, {"type": "note_on", "time": 31, "note": 67, "velocity": 92, "channel": 0}, {"type": "note_off", "time": 87, "note": 67, "velocity": 92, "channel": 0}, {"type": "note_on", "time": 43, "note": 67, "velocity": 105, "channel": 0}, {"type": "note_off", "time": 154, "note": 67, "velocity": 105, "channel": 0}, {"type": "note_on", "time": 23, "note": 67, "velocity": 108, "channel": 0}, {"type": "note_off", "time": 83, "note": 67, "velocity": 108, "channel": 0}, {"type": "note_on", "time": 23, "note": 67, "velocity": 104, "channel": 0}, {"type": "note_off", "time": 87, "note": 67, "velocity": 104, "channel": 0}, {"type": "note_on", "time": 39, "note": 67, "velocity": 109, "channel": 0}, {"type": "note_off", "time": 122, "note": 67, "velocity": 109, "channel": 0}, {"type": "note_on", "time": 7, "note": 67, "velocity": 94, "channel": 0}, {"type": "note_off", "time": 83, "note": 67, "velocity": 94, "channel": 0}, {"type": "note_on", "time": 23, "note": 67, "velocity": 92, "channel": 0}, {"type": "note_off", "time": 75, "note": 67, "velocity": 92, "channel": 0}, {"type": "note_on", "time": 12, "note": 67, "velocity": 97, "channel": 0}, {"type": "note_off", "time": 596, "note": 67, "velocity": 97, "channel": 0}, {"type": "note_on", "time": 63, "note": 72, "velocity": 103, "channel": 0}, {"type": "note_off", "time": 158, "note": 72, "velocity": 103, "channel": 0}, {"type": "note_on", "time": 502, "note": 67, "velocity": 112, "channel": 0}, {"type": "note_off", "time": 150, "note": 67, "velocity": 112, "channel": 0}, {"type": "note_on", "time": 35, "note": 67, "velocity": 92, "channel": 0}, {"type": "note_off", "time": 83, "note": 67, "velocity": 92, "channel": 0}, {"type": "note_on", "time": 26, "note": 67, "velocity": 104, "channel": 0}, {"type": "note_off", "time": 160, "note": 67, "velocity": 104, "channel": 0}, {"type": "note_on", "time": 35, "note": 67, "velocity": 96, "channel": 0}, {"type": "note_off", "time": 75, "note": 67, "velocity": 96, "channel": 0}, {"type": "note_on", "time": 35, "note": 67, "velocity": 93, "channel": 0}, {"type": "note_off", "time": 87, "note": 67, "velocity": 93, "channel": 0}, {"type": "note_on", "time": 15, "note": 67, "velocity": 107, "channel": 0}, {"type": "note_off", "time": 122, "note": 67, "velocity": 107, "channel": 0}, {"type": "note_on", "time": 11, "note": 67, "velocity": 99, "channel": 0}, {"type": "note_off", "time": 83, "note": 67, "velocity": 99, "channel": 0}, {"type": "note_on", "time": 11, "note": 67, "velocity": 93, "channel": 0}, {"type": "note_off", "time": 63, "note": 67, "velocity": 93, "channel": 0}, {"type": "note_on", "time": 39, "note": 67, "velocity": 106, "channel": 0}, {"type": "note_off", "time": 126, "note": 67, "velocity": 106, "channel": 0}, {"type": "note_on", "time": 27, "note": 67, "velocity": 93, "channel": 0}, {"type": "note_off", "time": 71, "note": 67, "velocity": 93, "channel": 0}, {"type": "note_on", "time": 35, "note": 67, "velocity": 97, "channel": 0}, {"type": "note_off", "time": 71, "note": 67, "velocity": 97, "channel": 0}, {"type": "note_on", "time": 43, "note": 67, "velocity": 102, "channel": 0}, {"type": "note_off", "time": 118, "note": 67, "velocity": 102, "channel": 0}, {"type": "note_on", "time": 43, "note": 67, "velocity": 96, "channel": 0}, {"type": "note_off", "time": 83, "note": 67, "velocity": 96, "channel": 0}, {"type": "note_on", "time": 47, "note": 67, "velocity": 93, "channel": 0}, {"type": "note_off", "time": 94, "note": 67, "velocity": 93, "channel": 0}, {"type": "note_on", "time": 56, "note": 67, "velocity": 102, "channel": 0}, {"type": "note_off", "time": 368, "note": 67, "velocity": 102, "channel": 0}, {"type": "note_on", "time": 25, "note": 62, "velocity": 91, "channel": 0}, {"type": "note_off", "time": 156, "note": 62, "velocity": 91, "channel": 0}, {"type": "note_on", "time": 596, "note": 74, "velocity": 104, "channel": 0}, {"type": "note_off", "time": 95, "note": 74, "velocity": 104, "channel": 0}, {"type": "note_on", "time": 9, "note": 72, "velocity": 102, "channel": 0}, {"type": "note_off", "time": 81, "note": 72, "velocity": 102, "channel": 0}, {"type": "note_on", "time": 8, "note": 71, "velocity": 109, "channel": 0}, {"type": "note_off", "time": 111, "note": 71, "velocity": 109, "channel": 0}, {"type": "note_on", "time": 8, "note": 69, "velocity": 113, "channel": 0}, {"type": "note_off", "time": 61, "note": 69, "velocity": 113, "channel": 0}, {"type": "note_on", "time": 21, "note": 68, "velocity": 100, "channel": 0}, {"type": "note_off", "time": 108, "note": 68, "velocity": 100, "channel": 0}, {"type": "note_on", "time": 5, "note": 66, "velocity": 105, "channel": 0}, {"type": "note_off", "time": 84, "note": 66, "velocity": 105, "channel": 0}, {"type": "note_on", "time": 5, "note": 65, "velocity": 105, "channel": 0}, {"type": "note_off", "time": 85, "note": 65, "velocity": 105, "channel": 0}, {"type": "note_on", "time": 12, "note": 64, "velocity": 107, "channel": 0}, {"type": "note_off", "time": 92, "note": 64, "velocity": 107, "channel": 0}, {"type": "note_on", "time": 5, "note": 62, "velocity": 103, "channel": 0}, {"type": "note_off", "time": 84, "note": 62, "velocity": 103, "channel": 0}, {"type": "note_on", "time": 8, "note": 60, "velocity": 93, "channel": 0}, {"type": "note_off", "time": 81, "note": 60, "velocity": 93, "channel": 0}, {"type": "note_on", "time": 11, "note": 59, "velocity": 92, "channel": 0}, {"type": "note_off", "time": 101, "note": 59, "velocity": 92, "channel": 0}, {"type": "note_on", "time": 23, "note": 56, "velocity": 95, "channel": 0}, {"type": "note_off", "time": 71, "note": 56, "velocity": 95, "channel": 0}, {"type": "note_on", "time": 8, "note": 57, "velocity": 91, "channel": 0}, {"type": "note_off", "time": 83, "note": 57, "velocity": 91, "channel": 0}, {"type": "note_on", "time": 7, "note": 58, "velocity": 90, "channel": 0}, {"type": "note_off", "time": 63, "note": 58, "velocity": 90, "channel": 0}, {"type": "note_on", "time": 5, "note": 60, "velocity": 100, "channel": 0}, {"type": "note_off", "time": 116, "note": 60, "velocity": 100, "channel": 0}, {"type": "note_on", "time": 8, "note": 57, "velocity": 94, "channel": 0}, {"type": "note_off", "time": 66, "note": 57, "velocity": 94, "channel": 0}, {"type": "note_on", "time": 15, "note": 58, "velocity": 91, "channel": 0}, {"type": "note_off", "time": 94, "note": 58, "velocity": 91, "channel": 0}, {"type": "note_on", "time": 9, "note": 60, "velocity": 103, "channel": 0}, {"type": "note_off", "time": 81, "note": 60, "velocity": 103, "channel": 0}, {"type": "note_on", "time": 7, "note": 61, "velocity": 96, "channel": 0}, {"type": "note_off", "time": 87, "note": 61, "velocity": 96, "channel": 0}, {"type": "note_on", "time": 19, "note": 65, "velocity": 94, "channel": 0}, {"type": "note_off", "time": 74, "note": 65, "velocity": 94, "channel": 0}, {"type": "note_on", "time": 11, "note": 69, "velocity": 110, "channel": 0}, {"type": "note_off", "time": 95, "note": 69, "velocity": 110, "channel": 0}, {"type": "note_on", "time": 5, "note": 70, "velocity": 99, "channel": 0}, {"type": "note_off", "time": 40, "note": 70, "velocity": 99, "channel": 0}, {"type": "note_on", "time": 9, "note": 69, "velocity": 107, "channel": 0}, {"type": "note_off", "time": 57, "note": 69, "velocity": 107, "channel": 0}, {"type": "note_on", "time": 8, "note": 67, "velocity": 104, "channel": 0}, {"type": "note_off", "time": 81, "note": 67, "velocity": 104, "channel": 0}, {"type": "note_on", "time": 9, "note": 65, "velocity": 104, "channel": 0}, {"type": "note_off", "time": 56, "note": 65, "velocity": 104, "channel": 0}, {"type": "note_on", "time": 8, "note": 64, "velocity": 112, "channel": 0}, {"type": "note_off", "time": 105, "note": 64, "velocity": 112, "channel": 0}, {"type": "note_on", "time": 277, "note": 67, "velocity": 110, "channel": 0}, {"type": "note_off", "time": 116, "note": 67, "velocity": 110, "channel": 0}, {"type": "note_on", "time": 164, "note": 66, "velocity": 114, "channel": 0}, {"type": "note_off", "time": 91, "note": 66, "velocity": 114, "channel": 0}, {"type": "note_on", "time": 8, "note": 65, "velocity": 108, "channel": 0}, {"type": "note_off", "time": 90, "note": 65, "velocity": 108, "channel": 0}, {"type": "note_on", "time": 8, "note": 64, "velocity": 112, "channel": 0}, {"type": "note_off", "time": 88, "note": 64, "velocity": 112, "channel": 0}, {"type": "note_on", "time": 18, "note": 62, "velocity": 106, "channel": 0}, {"type": "note_off", "time": 91, "note": 62, "velocity": 106, "channel": 0}, {"type": "note_on", "time": 15, "note": 61, "velocity": 97, "channel": 0}, {"type": "note_off", "time": 60, "note": 61, "velocity": 97, "channel": 0}, {"type": "note_on", "time": 8, "note": 58, "velocity": 96, "channel": 0}, {"type": "note_off", "time": 81, "note": 58, "velocity": 96, "channel": 0}, {"type": "note_on", "time": 33, "note": 55, "velocity": 96, "channel": 0}, {"type": "note_off", "time": 105, "note": 55, "velocity": 96, "channel": 0}, {"type": "note_on", "time": 18, "note": 56, "velocity": 92, "channel": 0}, {"type": "note_off", "time": 119, "note": 56, "velocity": 92, "channel": 0}, {"type": "note_on", "time": 8, "note": 57, "velocity": 100, "channel": 0}, {"type": "note_off", "time": 87, "note": 57, "velocity": 100, "channel": 0}, {"type": "note_on", "time": 19, "note": 53, "velocity": 95, "channel": 0}, {"type": "note_off", "time": 101, "note": 53, "velocity": 95, "channel": 0}, {"type": "note_on", "time": 13, "note": 50, "velocity": 90, "channel": 0}, {"type": "note_off", "time": 110, "note": 50, "velocity": 90, "channel": 0}, {"type": "note_on", "time": 87, "note": 55, "velocity": 98, "channel": 0}, {"type": "note_off", "time": 99, "note": 55, "velocity": 98, "channel": 0}, {"type": "note_on", "time": 53, "note": 52, "velocity": 87, "channel": 0}, {"type": "note_off", "time": 77, "note": 52, "velocity": 87, "channel": 0}, {"type": "note_on", "time": 22, "note": 53, "velocity": 88, "channel": 0}, {"type": "note_off", "time": 66, "note": 53, "velocity": 88, "channel": 0}, {"type": "note_on", "time": 7, "note": 55, "velocity": 95, "channel": 0}, {"type": "note_off", "time": 104, "note": 55, "velocity": 95, "channel": 0}, {"type": "note_on", "time": 0, "note": 56, "velocity": 84, "channel": 0}, {"type": "note_off", "time": 94, "note": 56, "velocity": 84, "channel": 0}, {"type": "note_on", "time": 15, "note": 59, "velocity": 98, "channel": 0}, {"type": "note_off", "time": 73, "note": 59, "velocity": 98, "channel": 0}, {"type": "note_on", "time": 5, "note": 61, "velocity": 97, "channel": 0}, {"type": "note_off", "time": 75, "note": 61, "velocity": 97, "channel": 0}, {"type": "note_on", "time": 12, "note": 58, "velocity": 95, "channel": 0}, {"type": "note_off", "time": 73, "note": 58, "velocity": 95, "channel": 0}, {"type": "note_on", "time": 8, "note": 59, "velocity": 96, "channel": 0}, {"type": "note_off", "time": 88, "note": 59, "velocity": 96, "channel": 0}, {"type": "note_on", "time": 19, "note": 61, "velocity": 102, "channel": 0}, {"type": "note_off", "time": 101, "note": 61, "velocity": 102, "channel": 0}, {"type": "note_on", "time": 12, "note": 63, "velocity": 99, "channel": 0}, {"type": "note_off", "time": 87, "note": 63, "velocity": 99, "channel": 0}, {"type": "note_on", "time": 14, "note": 65, "velocity": 98, "channel": 0}, {"type": "note_off", "time": 96, "note": 65, "velocity": 98, "channel": 0}, {"type": "note_on", "time": 5, "note": 66, "velocity": 94, "channel": 0}, {"type": "note_off", "time": 71, "note": 66, "velocity": 94, "channel": 0}, {"type": "note_on", "time": 8, "note": 70, "velocity": 96, "channel": 0}, {"type": "note_off", "time": 80, "note": 70, "velocity": 96, "channel": 0}, {"type": "note_on", "time": 26, "note": 68, "velocity": 93, "channel": 0}, {"type": "note_off", "time": 80, "note": 68, "velocity": 93, "channel": 0}, {"type": "note_on", "time": 60, "note": 65, "velocity": 85, "channel": 0}, {"type": "note_off", "time": 64, "note": 65, "velocity": 85, "channel": 0}, {"type": "note_on", "time": 59, "note": 67, "velocity": 102, "channel": 0}, {"type": "note_off", "time": 68, "note": 67, "velocity": 102, "channel": 0}, {"type": "note_on", "time": 21, "note": 65, "velocity": 97, "channel": 0}, {"type": "note_off", "time": 56, "note": 65, "velocity": 97, "channel": 0}, {"type": "note_on", "time": 9, "note": 63, "velocity": 85, "channel": 0}, {"type": "note_off", "time": 39, "note": 63, "velocity": 85, "channel": 0}, {"type": "note_on", "time": 35, "note": 61, "velocity": 93, "channel": 0}, {"type": "note_off", "time": 35, "note": 61, "velocity": 93, "channel": 0}, {"type": "note_on", "time": 56, "note": 58, "velocity": 97, "channel": 0}, {"type": "note_off", "time": 122, "note": 58, "velocity": 97, "channel": 0}, {"type": "note_on", "time": 28, "note": 64, "velocity": 107, "channel": 0}, {"type": "note_off", "time": 98, "note": 64, "velocity": 107, "channel": 0}, {"type": "note_on", "time": 223, "note": 62, "velocity": 107, "channel": 0}, {"type": "note_off", "time": 109, "note": 62, "velocity": 107, "channel": 0}, {"type": "note_on", "time": 8, "note": 60, "velocity": 94, "channel": 0}, {"type": "note_off", "time": 91, "note": 60, "velocity": 94, "channel": 0}, {"type": "note_on", "time": 11, "note": 58, "velocity": 87, "channel": 0}, {"type": "note_off", "time": 80, "note": 58, "velocity": 87, "channel": 0}, {"type": "note_on", "time": 2, "note": 60, "velocity": 98, "channel": 0}, {"type": "note_off", "time": 106, "note": 60, "velocity": 98, "channel": 0}, {"type": "note_on", "time": 253, "note": 60, "velocity": 99, "channel": 0}, {"type": "note_off", "time": 247, "note": 60, "velocity": 99, "channel": 0}, {"type": "note_on", "time": 2, "note": 62, "velocity": 91, "channel": 0}, {"type": "note_off", "time": 61, "note": 62, "velocity": 91, "channel": 0}, {"type": "note_on", "time": 12, "note": 64, "velocity": 92, "channel": 0}, {"type": "note_off", "time": 36, "note": 64, "velocity": 92, "channel": 0}, {"type": "note_on", "time": 5, "note": 65, "velocity": 101, "channel": 0}, {"type": "note_off", "time": 128, "note": 65, "velocity": 101, "channel": 0}, {"type": "note_on", "time": 25, "note": 60, "velocity": 98, "channel": 0}, {"type": "note_off", "time": 74, "note": 60, "velocity": 98, "channel": 0}, {"type": "note_on", "time": 295, "note": 60, "velocity": 103, "channel": 0}, {"type": "note_off", "time": 123, "note": 60, "velocity": 103, "channel": 0}, {"type": "note_on", "time": 9, "note": 62, "velocity": 93, "channel": 0}, {"type": "note_off", "time": 50, "note": 62, "velocity": 93, "channel": 0}, {"type": "note_on", "time": 22, "note": 64, "velocity": 98, "channel": 0}, {"type": "note_off", "time": 63, "note": 64, "velocity": 98, "channel": 0}, {"type": "note_on", "time": 14, "note": 65, "velocity": 104, "channel": 0}, {"type": "note_off", "time": 94, "note": 65, "velocity": 104, "channel": 0}, {"type": "note_on", "time": 59, "note": 60, "velocity": 90, "channel": 0}, {"type": "note_off", "time": 70, "note": 60, "velocity": 90, "channel": 0}, {"type": "note_on", "time": 21, "note": 62, "velocity": 86, "channel": 0}, {"type": "note_off", "time": 63, "note": 62, "velocity": 86, "channel": 0}, {"type": "note_on", "time": 9, "note": 64, "velocity": 96, "channel": 0}, {"type": "note_off", "time": 53, "note": 64, "velocity": 96, "channel": 0}, {"type": "note_on", "time": 14, "note": 65, "velocity": 103, "channel": 0}, {"type": "note_off", "time": 109, "note": 65, "velocity": 103, "channel": 0}, {"type": "note_on", "time": 102, "note": 62, "velocity": 89, "channel": 0}, {"type": "note_off", "time": 47, "note": 62, "velocity": 89, "channel": 0}, {"type": "note_on", "time": 15, "note": 64, "velocity": 91, "channel": 0}, {"type": "note_off", "time": 47, "note": 64, "velocity": 91, "channel": 0}, {"type": "note_on", "time": 28, "note": 65, "velocity": 103, "channel": 0}, {"type": "note_off", "time": 94, "note": 65, "velocity": 103, "channel": 0}, {"type": "note_on", "time": 30, "note": 60, "velocity": 102, "channel": 0}, {"type": "note_off", "time": 81, "note": 60, "velocity": 102, "channel": 0}, {"type": "note_on", "time": 693, "note": 60, "velocity": 99, "channel": 0}, {"type": "note_off", "time": 135, "note": 60, "velocity": 99, "channel": 0}, {"type": "note_on", "time": 11, "note": 64, "velocity": 100, "channel": 0}, {"type": "note_off", "time": 49, "note": 64, "velocity": 100, "channel": 0}, {"type": "note_on", "time": 18, "note": 67, "velocity": 99, "channel": 0}, {"type": "note_off", "time": 63, "note": 67, "velocity": 99, "channel": 0}, {"type": "note_on", "time": 26, "note": 69, "velocity": 116, "channel": 0}, {"type": "note_off", "time": 64, "note": 69, "velocity": 116, "channel": 0}, {"type": "note_on", "time": 12, "note": 70, "velocity": 104, "channel": 0}, {"type": "note_off", "time": 32, "note": 70, "velocity": 104, "channel": 0}, {"type": "note_on", "time": 8, "note": 69, "velocity": 116, "channel": 0}, {"type": "note_off", "time": 68, "note": 69, "velocity": 116, "channel": 0}, {"type": "note_on", "time": 4, "note": 67, "velocity": 111, "channel": 0}, {"type": "note_off", "time": 85, "note": 67, "velocity": 111, "channel": 0}, {"type": "note_on", "time": 9, "note": 65, "velocity": 105, "channel": 0}, {"type": "note_off", "time": 85, "note": 65, "velocity": 105, "channel": 0}, {"type": "note_on", "time": 5, "note": 64, "velocity": 111, "channel": 0}, {"type": "note_off", "time": 83, "note": 64, "velocity": 111, "channel": 0}, {"type": "note_on", "time": 19, "note": 62, "velocity": 108, "channel": 0}, {"type": "note_off", "time": 71, "note": 62, "velocity": 108, "channel": 0}, {"type": "note_on", "time": 8, "note": 60, "velocity": 98, "channel": 0}, {"type": "note_off", "time": 70, "note": 60, "velocity": 98, "channel": 0}, {"type": "note_on", "time": 19, "note": 58, "velocity": 97, "channel": 0}, {"type": "note_off", "time": 95, "note": 58, "velocity": 97, "channel": 0}, {"type": "note_on", "time": 15, "note": 57, "velocity": 100, "channel": 0}, {"type": "note_off", "time": 81, "note": 57, "velocity": 100, "channel": 0}, {"type": "note_on", "time": 23, "note": 55, "velocity": 94, "channel": 0}, {"type": "note_off", "time": 94, "note": 55, "velocity": 94, "channel": 0}, {"type": "note_on", "time": 14, "note": 53, "velocity": 92, "channel": 0}, {"type": "note_off", "time": 64, "note": 53, "velocity": 92, "channel": 0}, {"type": "note_on", "time": 12, "note": 52, "velocity": 81, "channel": 0}, {"type": "note_off", "time": 75, "note": 52, "velocity": 81, "channel": 0}, {"type": "note_on", "time": 15, "note": 55, "velocity": 98, "channel": 0}, {"type": "note_off", "time": 142, "note": 55, "velocity": 98, "channel": 0}, {"type": "note_on", "time": 38, "note": 53, "velocity": 93, "channel": 0}, {"type": "note_off", "time": 78, "note": 53, "velocity": 93, "channel": 0}, {"type": "note_on", "time": 22, "note": 55, "velocity": 92, "channel": 0}, {"type": "note_off", "time": 73, "note": 55, "velocity": 92, "channel": 0}, {"type": "note_on", "time": 32, "note": 57, "velocity": 102, "channel": 0}, {"type": "note_off", "time": 118, "note": 57, "velocity": 102, "channel": 0}, {"type": "note_on", "time": 41, "note": 51, "velocity": 88, "channel": 0}, {"type": "note_off", "time": 75, "note": 51, "velocity": 88, "channel": 0}, {"type": "note_on", "time": 520, "note": 62, "velocity": 119, "channel": 0}, {"type": "note_off", "time": 106, "note": 62, "velocity": 119, "channel": 0}, {"type": "note_on", "time": 10, "note": 60, "velocity": 106, "channel": 0}, {"type": "note_off", "time": 73, "note": 60, "velocity": 106, "channel": 0}, {"type": "note_on", "time": 9, "note": 59, "velocity": 96, "channel": 0}, {"type": "note_off", "time": 85, "note": 59, "velocity": 96, "channel": 0}, {"type": "note_on", "time": 19, "note": 57, "velocity": 104, "channel": 0}, {"type": "note_off", "time": 98, "note": 57, "velocity": 104, "channel": 0}, {"type": "note_on", "time": 12, "note": 56, "velocity": 86, "channel": 0}, {"type": "note_off", "time": 136, "note": 56, "velocity": 86, "channel": 0}, {"type": "note_on", "time": 140, "note": 53, "velocity": 98, "channel": 0}, {"type": "note_off", "time": 95, "note": 53, "velocity": 98, "channel": 0}, {"type": "note_on", "time": 4, "note": 52, "velocity": 96, "channel": 0}, {"type": "note_off", "time": 125, "note": 52, "velocity": 96, "channel": 0}, {"type": "note_on", "time": 22, "note": 60, "velocity": 110, "channel": 0}, {"type": "note_off", "time": 92, "note": 60, "velocity": 110, "channel": 0}, {"type": "note_on", "time": 4, "note": 59, "velocity": 100, "channel": 0}, {"type": "note_off", "time": 71, "note": 59, "velocity": 100, "channel": 0}, {"type": "note_on", "time": 6, "note": 57, "velocity": 105, "channel": 0}, {"type": "note_off", "time": 81, "note": 57, "velocity": 105, "channel": 0}, {"type": "note_on", "time": 10, "note": 56, "velocity": 98, "channel": 0}, {"type": "note_off", "time": 80, "note": 56, "velocity": 98, "channel": 0}, {"type": "note_on", "time": 9, "note": 54, "velocity": 97, "channel": 0}, {"type": "note_off", "time": 79, "note": 54, "velocity": 97, "channel": 0}, {"type": "note_on", "time": 26, "note": 52, "velocity": 89, "channel": 0}, {"type": "note_off", "time": 78, "note": 52, "velocity": 89, "channel": 0}, {"type": "note_on", "time": 81, "note": 55, "velocity": 94, "channel": 0}, {"type": "note_off", "time": 99, "note": 55, "velocity": 94, "channel": 0}, {"type": "note_on", "time": 54, "note": 57, "velocity": 106, "channel": 0}, {"type": "note_off", "time": 74, "note": 57, "velocity": 106, "channel": 0}, {"type": "note_on", "time": 19, "note": 58, "velocity": 100, "channel": 0}, {"type": "note_off", "time": 81, "note": 58, "velocity": 100, "channel": 0}, {"type": "note_on", "time": 63, "note": 58, "velocity": 102, "channel": 0}, {"type": "note_off", "time": 85, "note": 58, "velocity": 102, "channel": 0}, {"type": "note_on", "time": 19, "note": 57, "velocity": 97, "channel": 0}, {"type": "note_off", "time": 36, "note": 57, "velocity": 97, "channel": 0}, {"type": "note_on", "time": 30, "note": 55, "velocity": 98, "channel": 0}, {"type": "note_off", "time": 60, "note": 55, "velocity": 98, "channel": 0}, {"type": "note_on", "time": 7, "note": 54, "velocity": 94, "channel": 0}, {"type": "note_off", "time": 95, "note": 54, "velocity": 94, "channel": 0}, {"type": "note_on", "time": 94, "note": 53, "velocity": 92, "channel": 0}, {"type": "note_off", "time": 102, "note": 53, "velocity": 92, "channel": 0}, {"type": "note_on", "time": 820, "note": 53, "velocity": 84, "channel": 0}, {"type": "note_off", "time": 64, "note": 53, "velocity": 84, "channel": 0}, {"type": "note_on", "time": 9, "note": 57, "velocity": 108, "channel": 0}, {"type": "note_off", "time": 74, "note": 57, "velocity": 108, "channel": 0}, {"type": "note_on", "time": 19, "note": 55, "velocity": 101, "channel": 0}, {"type": "note_off", "time": 91, "note": 55, "velocity": 101, "channel": 0}, {"type": "note_on", "time": 11, "note": 53, "velocity": 97, "channel": 0}, {"type": "note_off", "time": 87, "note": 53, "velocity": 97, "channel": 0}, {"type": "note_on", "time": 10, "note": 52, "velocity": 87, "channel": 0}, {"type": "note_off", "time": 84, "note": 52, "velocity": 87, "channel": 0}, {"type": "note_on", "time": 39, "note": 55, "velocity": 93, "channel": 0}, {"type": "note_off", "time": 61, "note": 55, "velocity": 93, "channel": 0}, {"type": "note_on", "time": 22, "note": 58, "velocity": 98, "channel": 0}, {"type": "note_off", "time": 75, "note": 58, "velocity": 98, "channel": 0}, {"type": "note_on", "time": 2, "note": 63, "velocity": 106, "channel": 0}, {"type": "note_off", "time": 63, "note": 63, "velocity": 106, "channel": 0}, {"type": "note_on", "time": 22, "note": 61, "velocity": 96, "channel": 0}, {"type": "note_off", "time": 88, "note": 61, "velocity": 96, "channel": 0}, {"type": "note_on", "time": 22, "note": 57, "velocity": 92, "channel": 0}, {"type": "note_off", "time": 67, "note": 57, "velocity": 92, "channel": 0}, {"type": "note_on", "time": 8, "note": 60, "velocity": 104, "channel": 0}, {"type": "note_off", "time": 80, "note": 60, "velocity": 104, "channel": 0}, {"type": "note_on", "time": 21, "note": 60, "velocity": 99, "channel": 0}, {"type": "note_off", "time": 94, "note": 60, "velocity": 99, "channel": 0}, {"type": "note_on", "time": 11, "note": 58, "velocity": 98, "channel": 0}, {"type": "note_off", "time": 98, "note": 58, "velocity": 98, "channel": 0}, {"type": "note_on", "time": 83, "note": 57, "velocity": 96, "channel": 0}, {"type": "note_off", "time": 88, "note": 57, "velocity": 96, "channel": 0}, {"type": "note_on", "time": 16, "note": 60, "velocity": 96, "channel": 0}, {"type": "note_off", "time": 109, "note": 60, "velocity": 96, "channel": 0}, {"type": "note_on", "time": 12, "note": 62, "velocity": 89, "channel": 0}, {"type": "note_off", "time": 77, "note": 62, "velocity": 89, "channel": 0}, {"type": "note_on", "time": 5, "note": 64, "velocity": 90, "channel": 0}, {"type": "note_off", "time": 61, "note": 64, "velocity": 90, "channel": 0}, {"type": "note_on", "time": 13, "note": 67, "velocity": 106, "channel": 0}, {"type": "note_off", "time": 111, "note": 67, "velocity": 106, "channel": 0}, {"type": "note_on", "time": 12, "note": 65, "velocity": 104, "channel": 0}, {"type": "note_off", "time": 132, "note": 65, "velocity": 104, "channel": 0}, {"type": "note_on", "time": 802, "note": 67, "velocity": 119, "channel": 0}, {"type": "note_off", "time": 33, "note": 67, "velocity": 119, "channel": 0}, {"type": "note_on", "time": 25, "note": 69, "velocity": 115, "channel": 0}, {"type": "note_off", "time": 67, "note": 69, "velocity": 115, "channel": 0}, {"type": "note_on", "time": 81, "note": 72, "velocity": 110, "channel": 0}, {"type": "note_off", "time": 73, "note": 72, "velocity": 110, "channel": 0}, {"type": "note_on", "time": 91, "note": 69, "velocity": 98, "channel": 0}, {"type": "note_off", "time": 101, "note": 69, "velocity": 98, "channel": 0}, {"type": "note_on", "time": 9, "note": 70, "velocity": 106, "channel": 0}, {"type": "note_off", "time": 81, "note": 70, "velocity": 106, "channel": 0}, {"type": "note_on", "time": 33, "note": 69, "velocity": 114, "channel": 0}, {"type": "note_off", "time": 78, "note": 69, "velocity": 114, "channel": 0}, {"type": "note_on", "time": 8, "note": 67, "velocity": 106, "channel": 0}, {"type": "note_off", "time": 77, "note": 67, "velocity": 106, "channel": 0}, {"type": "note_on", "time": 29, "note": 65, "velocity": 104, "channel": 0}, {"type": "note_off", "time": 85, "note": 65, "velocity": 104, "channel": 0}, {"type": "note_on", "time": 15, "note": 64, "velocity": 9, "channel": 0}, {"type": "note_off", "time": 105, "note": 64, "velocity": 9, "channel": 0}, {"type": "note_on", "time": 7, "note": 65, "velocity": 85, "channel": 0}, {"type": "note_off", "time": 36, "note": 65, "velocity": 85, "channel": 0}, {"type": "note_on", "time": 16, "note": 67, "velocity": 108, "channel": 0}, {"type": "note_off", "time": 315, "note": 67, "velocity": 108, "channel": 0}, {"type": "note_on", "time": 9, "note": 66, "velocity": 109, "channel": 0}, {"type": "note_off", "time": 91, "note": 66, "velocity": 109, "channel": 0}, {"type": "note_on", "time": 7, "note": 65, "velocity": 104, "channel": 0}, {"type": "note_off", "time": 88, "note": 65, "velocity": 104, "channel": 0}, {"type": "note_on", "time": 18, "note": 64, "velocity": 113, "channel": 0}, {"type": "note_off", "time": 106, "note": 64, "velocity": 113, "channel": 0}, {"type": "note_on", "time": 12, "note": 63, "velocity": 101, "channel": 0}, {"type": "note_off", "time": 69, "note": 63, "velocity": 101, "channel": 0}, {"type": "note_on", "time": 9, "note": 61, "velocity": 101, "channel": 0}, {"type": "note_off", "time": 71, "note": 61, "velocity": 101, "channel": 0}, {"type": "note_on", "time": 17, "note": 60, "velocity": 95, "channel": 0}, {"type": "note_off", "time": 83, "note": 60, "velocity": 95, "channel": 0}, {"type": "note_on", "time": 10, "note": 59, "velocity": 92, "channel": 0}, {"type": "note_off", "time": 81, "note": 59, "velocity": 92, "channel": 0}, {"type": "note_on", "time": 9, "note": 58, "velocity": 91, "channel": 0}, {"type": "note_off", "time": 98, "note": 58, "velocity": 91, "channel": 0}, {"type": "note_on", "time": 1, "note": 56, "velocity": 82, "channel": 0}, {"type": "note_off", "time": 75, "note": 56, "velocity": 82, "channel": 0}, {"type": "note_on", "time": 27, "note": 53, "velocity": 100, "channel": 0}, {"type": "note_off", "time": 59, "note": 53, "velocity": 100, "channel": 0}, {"type": "note_on", "time": 15, "note": 54, "velocity": 88, "channel": 0}, {"type": "note_off", "time": 55, "note": 54, "velocity": 88, "channel": 0}, {"type": "note_on", "time": 24, "note": 60, "velocity": 96, "channel": 0}, {"type": "note_off", "time": 121, "note": 60, "velocity": 96, "channel": 0}, {"type": "note_on", "time": 25, "note": 57, "velocity": 93, "channel": 0}, {"type": "note_off", "time": 53, "note": 57, "velocity": 93, "channel": 0}, {"type": "note_on", "time": 18, "note": 58, "velocity": 96, "channel": 0}, {"type": "note_off", "time": 75, "note": 58, "velocity": 96, "channel": 0}, {"type": "note_on", "time": 2, "note": 60, "velocity": 98, "channel": 0}, {"type": "note_off", "time": 59, "note": 60, "velocity": 98, "channel": 0}, {"type": "note_on", "time": 12, "note": 61, "velocity": 95, "channel": 0}, {"type": "note_off", "time": 84, "note": 61, "velocity": 95, "channel": 0}, {"type": "note_on", "time": 22, "note": 62, "velocity": 96, "channel": 0}, {"type": "note_off", "time": 81, "note": 62, "velocity": 96, "channel": 0}, {"type": "note_on", "time": 5, "note": 64, "velocity": 103, "channel": 0}, {"type": "note_off", "time": 80, "note": 64, "velocity": 103, "channel": 0}, {"type": "note_on", "time": 22, "note": 65, "velocity": 99, "channel": 0}, {"type": "note_off", "time": 70, "note": 65, "velocity": 99, "channel": 0}, {"type": "note_on", "time": 4, "note": 67, "velocity": 96, "channel": 0}, {"type": "note_off", "time": 84, "note": 67, "velocity": 96, "channel": 0}, {"type": "note_on", "time": 11, "note": 68, "velocity": 100, "channel": 0}, {"type": "note_off", "time": 78, "note": 68, "velocity": 100, "channel": 0}, {"type": "note_on", "time": 12, "note": 69, "velocity": 107, "channel": 0}, {"type": "note_off", "time": 95, "note": 69, "velocity": 107, "channel": 0}, {"type": "note_on", "time": 8, "note": 70, "velocity": 103, "channel": 0}, {"type": "note_off", "time": 142, "note": 70, "velocity": 103, "channel": 0}, {"type": "note_on", "time": 32, "note": 67, "velocity": 100, "channel": 0}, {"type": "note_off", "time": 39, "note": 67, "velocity": 100, "channel": 0}, {"type": "note_on", "time": 14, "note": 65, "velocity": 102, "channel": 0}, {"type": "note_off", "time": 80, "note": 65, "velocity": 102, "channel": 0}, {"type": "note_on", "time": 25, "note": 64, "velocity": 88, "channel": 0}, {"type": "note_off", "time": 66, "note": 64, "velocity": 88, "channel": 0}, {"type": "note_on", "time": 37, "note": 67, "velocity": 104, "channel": 0}, {"type": "note_off", "time": 102, "note": 67, "velocity": 104, "channel": 0}, {"type": "note_on", "time": 211, "note": 65, "velocity": 105, "channel": 0}, {"type": "note_off", "time": 63, "note": 65, "velocity": 105, "channel": 0}, {"type": "note_on", "time": 18, "note": 64, "velocity": 105, "channel": 0}, {"type": "note_off", "time": 113, "note": 64, "velocity": 105, "channel": 0}, {"type": "note_on", "time": 8, "note": 62, "velocity": 104, "channel": 0}, {"type": "note_off", "time": 99, "note": 62, "velocity": 104, "channel": 0}, {"type": "note_on", "time": 9, "note": 60, "velocity": 92, "channel": 0}, {"type": "note_off", "time": 53, "note": 60, "velocity": 92, "channel": 0}, {"type": "note_on", "time": 19, "note": 58, "velocity": 94, "channel": 0}, {"type": "note_off", "time": 60, "note": 58, "velocity": 94, "channel": 0}, {"type": "note_on", "time": 25, "note": 56, "velocity": 111, "channel": 0}, {"type": "note_off", "time": 54, "note": 56, "velocity": 111, "channel": 0}, {"type": "note_on", "time": 0, "note": 57, "velocity": 105, "channel": 0}, {"type": "note_off", "time": 75, "note": 57, "velocity": 105, "channel": 0}, {"type": "note_on", "time": 12, "note": 56, "velocity": 88, "channel": 0}, {"type": "note_off", "time": 30, "note": 56, "velocity": 88, "channel": 0}, {"type": "note_on", "time": 32, "note": 57, "velocity": 98, "channel": 0}, {"type": "note_off", "time": 61, "note": 57, "velocity": 98, "channel": 0}, {"type": "note_on", "time": 23, "note": 62, "velocity": 107, "channel": 0}, {"type": "note_off", "time": 83, "note": 62, "velocity": 107, "channel": 0}, {"type": "note_on", "time": 33, "note": 60, "velocity": 101, "channel": 0}, {"type": "note_off", "time": 87, "note": 60, "velocity": 101, "channel": 0}, {"type": "note_on", "time": 23, "note": 57, "velocity": 101, "channel": 0}, {"type": "note_off", "time": 81, "note": 57, "velocity": 101, "channel": 0}, {"type": "note_on", "time": 6, "note": 53, "velocity": 81, "channel": 0}, {"type": "note_off", "time": 92, "note": 53, "velocity": 81, "channel": 0}, {"type": "note_on", "time": 81, "note": 55, "velocity": 97, "channel": 0}, {"type": "note_off", "time": 73, "note": 55, "velocity": 97, "channel": 0}, {"type": "note_on", "time": 314, "note": 54, "velocity": 96, "channel": 0}, {"type": "note_off", "time": 70, "note": 54, "velocity": 96, "channel": 0}, {"type": "note_on", "time": 18, "note": 50, "velocity": 90, "channel": 0}, {"type": "note_off", "time": 90, "note": 50, "velocity": 90, "channel": 0}, {"type": "note_on", "time": 689, "note": 59, "velocity": 98, "channel": 0}, {"type": "note_off", "time": 67, "note": 59, "velocity": 98, "channel": 0}, {"type": "note_on", "time": 28, "note": 56, "velocity": 90, "channel": 0}, {"type": "note_off", "time": 60, "note": 56, "velocity": 90, "channel": 0}, {"type": "note_on", "time": 72, "note": 52, "velocity": 82, "channel": 0}, {"type": "note_off", "time": 130, "note": 52, "velocity": 82, "channel": 0}, {"type": "note_on", "time": 299, "note": 64, "velocity": 103, "channel": 0}, {"type": "note_off", "time": 251, "note": 64, "velocity": 103, "channel": 0}, {"type": "note_on", "time": 43, "note": 62, "velocity": 107, "channel": 0}, {"type": "note_off", "time": 84, "note": 62, "velocity": 107, "channel": 0}, {"type": "note_on", "time": 36, "note": 60, "velocity": 93, "channel": 0}, {"type": "note_off", "time": 94, "note": 60, "velocity": 93, "channel": 0}, {"type": "note_on", "time": 8, "note": 57, "velocity": 98, "channel": 0}, {"type": "note_off", "time": 87, "note": 57, "velocity": 98, "channel": 0}, {"type": "note_on", "time": 0, "note": 55, "velocity": 84, "channel": 0}, {"type": "note_off", "time": 63, "note": 55, "velocity": 84, "channel": 0}, {"type": "note_on", "time": 124, "note": 55, "velocity": 90, "channel": 0}, {"type": "note_off", "time": 125, "note": 55, "velocity": 90, "channel": 0}, {"type": "note_on", "time": 59, "note": 57, "velocity": 100, "channel": 0}, {"type": "note_off", "time": 133, "note": 57, "velocity": 100, "channel": 0}, {"type": "note_on", "time": 616, "note": 50, "velocity": 100, "channel": 0}, {"type": "note_off", "time": 85, "note": 50, "velocity": 100, "channel": 0}, {"type": "note_on", "time": 22, "note": 53, "velocity": 98, "channel": 0}, {"type": "note_off", "time": 70, "note": 53, "velocity": 98, "channel": 0}, {"type": "note_on", "time": 26, "note": 57, "velocity": 96, "channel": 0}, {"type": "note_off", "time": 80, "note": 57, "velocity": 96, "channel": 0}, {"type": "note_on", "time": 7, "note": 55, "velocity": 93, "channel": 0}, {"type": "note_off", "time": 97, "note": 55, "velocity": 93, "channel": 0}, {"type": "note_on", "time": 28, "note": 53, "velocity": 83, "channel": 0}, {"type": "note_off", "time": 87, "note": 53, "velocity": 83, "channel": 0}, {"type": "note_on", "time": 4, "note": 52, "velocity": 84, "channel": 0}, {"type": "note_off", "time": 75, "note": 52, "velocity": 84, "channel": 0}, {"type": "note_on", "time": 15, "note": 54, "velocity": 84, "channel": 0}, {"type": "note_off", "time": 61, "note": 54, "velocity": 84, "channel": 0}, {"type": "note_on", "time": 19, "note": 57, "velocity": 91, "channel": 0}, {"type": "note_off", "time": 71, "note": 57, "velocity": 91, "channel": 0}, {"type": "note_on", "time": 23, "note": 61, "velocity": 94, "channel": 0}, {"type": "note_off", "time": 142, "note": 61, "velocity": 94, "channel": 0}, {"type": "note_on", "time": 7, "note": 57, "velocity": 86, "channel": 0}, {"type": "note_off", "time": 59, "note": 57, "velocity": 86, "channel": 0}, {"type": "note_on", "time": 0, "note": 56, "velocity": 76, "channel": 0}, {"type": "note_off", "time": 43, "note": 56, "velocity": 76, "channel": 0}, {"type": "note_on", "time": 3, "note": 57, "velocity": 89, "channel": 0}, {"type": "note_off", "time": 39, "note": 57, "velocity": 89, "channel": 0}, {"type": "note_on", "time": 12, "note": 62, "velocity": 85, "channel": 0}, {"type": "note_off", "time": 52, "note": 62, "velocity": 85, "channel": 0}, {"type": "note_on", "time": 5, "note": 64, "velocity": 105, "channel": 0}, {"type": "note_off", "time": 122, "note": 64, "velocity": 105, "channel": 0}, {"type": "note_on", "time": 16, "note": 61, "velocity": 92, "channel": 0}, {"type": "note_off", "time": 64, "note": 61, "velocity": 92, "channel": 0}, {"type": "note_on", "time": 11, "note": 62, "velocity": 98, "channel": 0}, {"type": "note_off", "time": 90, "note": 62, "velocity": 98, "channel": 0}, {"type": "note_on", "time": 18, "note": 64, "velocity": 105, "channel": 0}, {"type": "note_off", "time": 77, "note": 64, "velocity": 105, "channel": 0}, {"type": "note_on", "time": 17, "note": 65, "velocity": 97, "channel": 0}, {"type": "note_off", "time": 100, "note": 65, "velocity": 97, "channel": 0}, {"type": "note_on", "time": 6, "note": 66, "velocity": 91, "channel": 0}, {"type": "note_off", "time": 64, "note": 66, "velocity": 91, "channel": 0}, {"type": "note_on", "time": 11, "note": 68, "velocity": 97, "channel": 0}, {"type": "note_off", "time": 74, "note": 68, "velocity": 97, "channel": 0}, {"type": "note_on", "time": 18, "note": 70, "velocity": 96, "channel": 0}, {"type": "note_off", "time": 83, "note": 70, "velocity": 96, "channel": 0}, {"type": "note_on", "time": 7, "note": 71, "velocity": 103, "channel": 0}, {"type": "note_off", "time": 98, "note": 71, "velocity": 103, "channel": 0}, {"type": "note_on", "time": 4, "note": 75, "velocity": 89, "channel": 0}, {"type": "note_off", "time": 75, "note": 75, "velocity": 89, "channel": 0}, {"type": "note_on", "time": 37, "note": 73, "velocity": 97, "channel": 0}, {"type": "note_off", "time": 75, "note": 73, "velocity": 97, "channel": 0}, {"type": "note_on", "time": 19, "note": 68, "velocity": 100, "channel": 0}, {"type": "note_off", "time": 67, "note": 68, "velocity": 100, "channel": 0}, {"type": "note_on", "time": 14, "note": 67, "velocity": 98, "channel": 0}, {"type": "note_off", "time": 108, "note": 67, "velocity": 98, "channel": 0}, {"type": "note_on", "time": 5, "note": 65, "velocity": 94, "channel": 0}, {"type": "note_off", "time": 83, "note": 65, "velocity": 94, "channel": 0}, {"type": "note_on", "time": 5, "note": 64, "velocity": 98, "channel": 0}, {"type": "note_off", "time": 78, "note": 64, "velocity": 98, "channel": 0}, {"type": "note_on", "time": 277, "note": 72, "velocity": 101, "channel": 0}, {"type": "note_off", "time": 288, "note": 72, "velocity": 101, "channel": 0}, {"type": "note_on", "time": 27, "note": 70, "velocity": 107, "channel": 0}, {"type": "note_off", "time": 90, "note": 70, "velocity": 107, "channel": 0}, {"type": "note_on", "time": 22, "note": 69, "velocity": 112, "channel": 0}, {"type": "note_off", "time": 94, "note": 69, "velocity": 112, "channel": 0}, {"type": "note_on", "time": 18, "note": 67, "velocity": 107, "channel": 0}, {"type": "note_off", "time": 63, "note": 67, "velocity": 107, "channel": 0}, {"type": "note_on", "time": 3, "note": 65, "velocity": 99, "channel": 0}, {"type": "note_off", "time": 87, "note": 65, "velocity": 99, "channel": 0}, {"type": "note_on", "time": 4, "note": 64, "velocity": 108, "channel": 0}, {"type": "note_off", "time": 98, "note": 64, "velocity": 108, "channel": 0}, {"type": "note_on", "time": 0, "note": 62, "velocity": 99, "channel": 0}, {"type": "note_off", "time": 91, "note": 62, "velocity": 99, "channel": 0}, {"type": "note_on", "time": 5, "note": 60, "velocity": 98, "channel": 0}, {"type": "note_off", "time": 99, "note": 60, "velocity": 98, "channel": 0}, {"type": "note_on", "time": 0, "note": 58, "velocity": 93, "channel": 0}, {"type": "note_off", "time": 63, "note": 58, "velocity": 93, "channel": 0}, {"type": "note_on", "time": 21, "note": 57, "velocity": 89, "channel": 0}, {"type": "note_off", "time": 53, "note": 57, "velocity": 89, "channel": 0}, {"type": "note_on", "time": 911, "note": 74, "velocity": 108, "channel": 0}, {"type": "note_off", "time": 98, "note": 74, "velocity": 108, "channel": 0}, {"type": "note_on", "time": 22, "note": 72, "velocity": 106, "channel": 0}, {"type": "note_off", "time": 67, "note": 72, "velocity": 106, "channel": 0}, {"type": "note_on", "time": 3, "note": 69, "velocity": 115, "channel": 0}, {"type": "note_off", "time": 79, "note": 69, "velocity": 115, "channel": 0}, {"type": "note_on", "time": 5, "note": 67, "velocity": 111, "channel": 0}, {"type": "note_off", "time": 73, "note": 67, "velocity": 111, "channel": 0}, {"type": "note_on", "time": 14, "note": 64, "velocity": 112, "channel": 0}, {"type": "note_off", "time": 101, "note": 64, "velocity": 112, "channel": 0}, {"type": "note_on", "time": 23, "note": 62, "velocity": 101, "channel": 0}, {"type": "note_off", "time": 85, "note": 62, "velocity": 101, "channel": 0}, {"type": "note_on", "time": 7, "note": 57, "velocity": 97, "channel": 0}, {"type": "note_off", "time": 67, "note": 57, "velocity": 97, "channel": 0}, {"type": "note_on", "time": 15, "note": 55, "velocity": 92, "channel": 0}, {"type": "note_off", "time": 79, "note": 55, "velocity": 92, "channel": 0}, {"type": "note_on", "time": 15, "note": 52, "velocity": 82, "channel": 0}, {"type": "note_off", "time": 70, "note": 52, "velocity": 82, "channel": 0}, {"type": "note_on", "time": 602, "note": 74, "velocity": 104, "channel": 0}, {"type": "note_off", "time": 95, "note": 74, "velocity": 104, "channel": 0}, {"type": "note_on", "time": 7, "note": 72, "velocity": 109, "channel": 0}, {"type": "note_off", "time": 73, "note": 72, "velocity": 109, "channel": 0}, {"type": "note_on", "time": 21, "note": 69, "velocity": 111, "channel": 0}, {"type": "note_off", "time": 80, "note": 69, "velocity": 111, "channel": 0}, {"type": "note_on", "time": 9, "note": 67, "velocity": 109, "channel": 0}, {"type": "note_off", "time": 56, "note": 67, "velocity": 109, "channel": 0}, {"type": "note_on", "time": 22, "note": 64, "velocity": 107, "channel": 0}, {"type": "note_off", "time": 92, "note": 64, "velocity": 107, "channel": 0}, {"type": "note_on", "time": 6, "note": 62, "velocity": 99, "channel": 0}, {"type": "note_off", "time": 71, "note": 62, "velocity": 99, "channel": 0}, {"type": "note_on", "time": 15, "note": 57, "velocity": 97, "channel": 0}, {"type": "note_off", "time": 68, "note": 57, "velocity": 97, "channel": 0}, {"type": "note_on", "time": 18, "note": 55, "velocity": 89, "channel": 0}, {"type": "note_off", "time": 102, "note": 55, "velocity": 89, "channel": 0}, {"type": "note_on", "time": 3, "note": 52, "velocity": 80, "channel": 0}, {"type": "note_off", "time": 83, "note": 52, "velocity": 80, "channel": 0}, {"type": "note_on", "time": 6, "note": 50, "velocity": 81, "channel": 0}, {"type": "note_off", "time": 74, "note": 50, "velocity": 81, "channel": 0}, {"type": "note_on", "time": 81, "note": 74, "velocity": 98, "channel": 0}, {"type": "note_off", "time": 285, "note": 74, "velocity": 98, "channel": 0}, {"type": "note_on", "time": 15, "note": 72, "velocity": 100, "channel": 0}, {"type": "note_off", "time": 91, "note": 72, "velocity": 100, "channel": 0}, {"type": "note_on", "time": 8, "note": 69, "velocity": 101, "channel": 0}, {"type": "note_off", "time": 90, "note": 69, "velocity": 101, "channel": 0}, {"type": "note_on", "time": 8, "note": 67, "velocity": 99, "channel": 0}, {"type": "note_off", "time": 78, "note": 67, "velocity": 99, "channel": 0}, {"type": "note_on", "time": 14, "note": 64, "velocity": 100, "channel": 0}, {"type": "note_off", "time": 75, "note": 64, "velocity": 100, "channel": 0}, {"type": "note_on", "time": 25, "note": 62, "velocity": 98, "channel": 0}, {"type": "note_off", "time": 85, "note": 62, "velocity": 98, "channel": 0}, {"type": "note_on", "time": 16, "note": 61, "velocity": 82, "channel": 0}, {"type": "note_off", "time": 59, "note": 61, "velocity": 82, "channel": 0}, {"type": "note_on", "time": 12, "note": 62, "velocity": 77, "channel": 0}, {"type": "note_off", "time": 75, "note": 62, "velocity": 77, "channel": 0}, {"type": "note_on", "time": 9, "note": 69, "velocity": 95, "channel": 0}, {"type": "note_off", "time": 118, "note": 69, "velocity": 95, "channel": 0}, {"type": "note_on", "time": 18, "note": 61, "velocity": 77, "channel": 0}, {"type": "note_off", "time": 56, "note": 61, "velocity": 77, "channel": 0}, {"type": "note_on", "time": 28, "note": 62, "velocity": 87, "channel": 0}, {"type": "note_off", "time": 81, "note": 62, "velocity": 87, "channel": 0}, {"type": "note_on", "time": 4, "note": 69, "velocity": 106, "channel": 0}, {"type": "note_off", "time": 91, "note": 69, "velocity": 106, "channel": 0}, {"type": "note_on", "time": 68, "note": 65, "velocity": 98, "channel": 0}, {"type": "note_off", "time": 95, "note": 65, "velocity": 98, "channel": 0}, {"type": "note_on", "time": 9, "note": 64, "velocity": 102, "channel": 0}, {"type": "note_off", "time": 64, "note": 64, "velocity": 102, "channel": 0}, {"type": "note_on", "time": 8, "note": 60, "velocity": 98, "channel": 0}, {"type": "note_off", "time": 85, "note": 60, "velocity": 98, "channel": 0}, {"type": "note_on", "time": 33, "note": 59, "velocity": 89, "channel": 0}, {"type": "note_off", "time": 90, "note": 59, "velocity": 89, "channel": 0}, {"type": "note_on", "time": 75, "note": 57, "velocity": 91, "channel": 0}, {"type": "note_off", "time": 78, "note": 57, "velocity": 91, "channel": 0}, {"type": "note_on", "time": 111, "note": 64, "velocity": 103, "channel": 0}, {"type": "note_off", "time": 75, "note": 64, "velocity": 103, "channel": 0}, {"type": "note_on", "time": 24, "note": 60, "velocity": 86, "channel": 0}, {"type": "note_off", "time": 71, "note": 60, "velocity": 86, "channel": 0}, {"type": "note_on", "time": 2, "note": 56, "velocity": 89, "channel": 0}, {"type": "note_off", "time": 67, "note": 56, "velocity": 89, "channel": 0}, {"type": "note_on", "time": 9, "note": 53, "velocity": 84, "channel": 0}, {"type": "note_off", "time": 91, "note": 53, "velocity": 84, "channel": 0}, {"type": "note_on", "time": 1, "note": 52, "velocity": 80, "channel": 0}, {"type": "note_off", "time": 116, "note": 52, "velocity": 80, "channel": 0}, {"type": "note_on", "time": 477, "note": 48, "velocity": 96, "channel": 0}, {"type": "note_off", "time": 63, "note": 48, "velocity": 96, "channel": 0}, {"type": "note_on", "time": 2, "note": 49, "velocity": 92, "channel": 0}, {"type": "note_off", "time": 47, "note": 49, "velocity": 92, "channel": 0}, {"type": "note_on", "time": 23, "note": 53, "velocity": 88, "channel": 0}, {"type": "note_off", "time": 61, "note": 53, "velocity": 88, "channel": 0}, {"type": "note_on", "time": 25, "note": 57, "velocity": 106, "channel": 0}, {"type": "note_off", "time": 66, "note": 57, "velocity": 106, "channel": 0}, {"type": "note_on", "time": 4, "note": 55, "velocity": 99, "channel": 0}, {"type": "note_off", "time": 70, "note": 55, "velocity": 99, "channel": 0}, {"type": "note_on", "time": 28, "note": 53, "velocity": 94, "channel": 0}, {"type": "note_off", "time": 61, "note": 53, "velocity": 94, "channel": 0}, {"type": "note_on", "time": 14, "note": 52, "velocity": 87, "channel": 0}, {"type": "note_off", "time": 80, "note": 52, "velocity": 87, "channel": 0}, {"type": "note_on", "time": 21, "note": 53, "velocity": 91, "channel": 0}, {"type": "note_off", "time": 98, "note": 53, "velocity": 91, "channel": 0}, {"type": "note_on", "time": 23, "note": 58, "velocity": 98, "channel": 0}, {"type": "note_off", "time": 50, "note": 58, "velocity": 98, "channel": 0}, {"type": "note_on", "time": 15, "note": 62, "velocity": 98, "channel": 0}, {"type": "note_off", "time": 90, "note": 62, "velocity": 98, "channel": 0}, {"type": "note_on", "time": 7, "note": 56, "velocity": 89, "channel": 0}, {"type": "note_off", "time": 57, "note": 56, "velocity": 89, "channel": 0}, {"type": "note_on", "time": 0, "note": 57, "velocity": 102, "channel": 0}, {"type": "note_off", "time": 88, "note": 57, "velocity": 102, "channel": 0}, {"type": "note_on", "time": 16, "note": 58, "velocity": 101, "channel": 0}, {"type": "note_off", "time": 74, "note": 58, "velocity": 101, "channel": 0}, {"type": "note_on", "time": 47, "note": 60, "velocity": 97, "channel": 0}, {"type": "note_off", "time": 125, "note": 60, "velocity": 97, "channel": 0}, {"type": "note_on", "time": 7, "note": 57, "velocity": 94, "channel": 0}, {"type": "note_off", "time": 46, "note": 57, "velocity": 94, "channel": 0}, {"type": "note_on", "time": 18, "note": 58, "velocity": 107, "channel": 0}, {"type": "note_off", "time": 71, "note": 58, "velocity": 107, "channel": 0}, {"type": "note_on", "time": 6, "note": 60, "velocity": 100, "channel": 0}, {"type": "note_off", "time": 67, "note": 60, "velocity": 100, "channel": 0}, {"type": "note_on", "time": 4, "note": 61, "velocity": 90, "channel": 0}, {"type": "note_off", "time": 63, "note": 61, "velocity": 90, "channel": 0}, {"type": "note_on", "time": 23, "note": 64, "velocity": 94, "channel": 0}, {"type": "note_off", "time": 56, "note": 64, "velocity": 94, "channel": 0}, {"type": "note_on", "time": 12, "note": 67, "velocity": 97, "channel": 0}, {"type": "note_off", "time": 59, "note": 67, "velocity": 97, "channel": 0}, {"type": "note_on", "time": 4, "note": 69, "velocity": 113, "channel": 0}, {"type": "note_off", "time": 85, "note": 69, "velocity": 113, "channel": 0}, {"type": "note_on", "time": 5, "note": 67, "velocity": 102, "channel": 0}, {"type": "note_off", "time": 52, "note": 67, "velocity": 102, "channel": 0}, {"type": "note_on", "time": 12, "note": 65, "velocity": 100, "channel": 0}, {"type": "note_off", "time": 57, "note": 65, "velocity": 100, "channel": 0}, {"type": "note_on", "time": 11, "note": 64, "velocity": 100, "channel": 0}, {"type": "note_off", "time": 84, "note": 64, "velocity": 100, "channel": 0}, {"type": "note_on", "time": 7, "note": 62, "velocity": 87, "channel": 0}, {"type": "note_off", "time": 50, "note": 62, "velocity": 87, "channel": 0}, {"type": "note_on", "time": 19, "note": 67, "velocity": 101, "channel": 0}, {"type": "note_off", "time": 122, "note": 67, "velocity": 101, "channel": 0}, {"type": "note_on", "time": 9, "note": 64, "velocity": 101, "channel": 0}, {"type": "note_off", "time": 79, "note": 64, "velocity": 101, "channel": 0}, {"type": "note_on", "time": 7, "note": 62, "velocity": 91, "channel": 0}, {"type": "note_off", "time": 47, "note": 62, "velocity": 91, "channel": 0}, {"type": "note_on", "time": 19, "note": 60, "velocity": 81, "channel": 0}, {"type": "note_off", "time": 49, "note": 60, "velocity": 81, "channel": 0}, {"type": "note_on", "time": 37, "note": 65, "velocity": 100, "channel": 0}, {"type": "note_off", "time": 97, "note": 65, "velocity": 100, "channel": 0}, {"type": "note_on", "time": 4, "note": 64, "velocity": 98, "channel": 0}, {"type": "note_off", "time": 35, "note": 64, "velocity": 98, "channel": 0}, {"type": "note_on", "time": 8, "note": 62, "velocity": 102, "channel": 0}, {"type": "note_off", "time": 42, "note": 62, "velocity": 102, "channel": 0}, {"type": "note_on", "time": 5, "note": 60, "velocity": 94, "channel": 0}, {"type": "note_off", "time": 77, "note": 60, "velocity": 94, "channel": 0}, {"type": "note_on", "time": 22, "note": 58, "velocity": 96, "channel": 0}, {"type": "note_off", "time": 135, "note": 58, "velocity": 96, "channel": 0}, {"type": "note_on", "time": 367, "note": 63, "velocity": 111, "channel": 0}, {"type": "note_off", "time": 40, "note": 63, "velocity": 111, "channel": 0}, {"type": "note_on", "time": 0, "note": 64, "velocity": 120, "channel": 0}, {"type": "note_off", "time": 405, "note": 64, "velocity": 120, "channel": 0}, {"type": "note_on", "time": 15, "note": 62, "velocity": 110, "channel": 0}, {"type": "note_off", "time": 77, "note": 62, "velocity": 110, "channel": 0}, {"type": "note_on", "time": 21, "note": 60, "velocity": 99, "channel": 0}, {"type": "note_off", "time": 67, "note": 60, "velocity": 99, "channel": 0}, {"type": "note_on", "time": 8, "note": 58, "velocity": 97, "channel": 0}, {"type": "note_off", "time": 92, "note": 58, "velocity": 97, "channel": 0}, {"type": "note_on", "time": 11, "note": 57, "velocity": 102, "channel": 0}, {"type": "note_off", "time": 73, "note": 57, "velocity": 102, "channel": 0}, {"type": "note_on", "time": 14, "note": 55, "velocity": 95, "channel": 0}, {"type": "note_off", "time": 84, "note": 55, "velocity": 95, "channel": 0}, {"type": "note_on", "time": 17, "note": 52, "velocity": 90, "channel": 0}, {"type": "note_off", "time": 80, "note": 52, "velocity": 90, "channel": 0}, {"type": "note_on", "time": 14, "note": 53, "velocity": 89, "channel": 0}, {"type": "note_off", "time": 63, "note": 53, "velocity": 89, "channel": 0}, {"type": "note_on", "time": 8, "note": 55, "velocity": 92, "channel": 0}, {"type": "note_off", "time": 147, "note": 55, "velocity": 92, "channel": 0}, {"type": "note_on", "time": 52, "note": 57, "velocity": 101, "channel": 0}, {"type": "note_off", "time": 160, "note": 57, "velocity": 101, "channel": 0}, {"type": "note_on", "time": 586, "note": 47, "velocity": 102, "channel": 0}, {"type": "note_off", "time": 80, "note": 47, "velocity": 102, "channel": 0}, {"type": "note_on", "time": 56, "note": 65, "velocity": 83, "channel": 0}, {"type": "note_off", "time": 23, "note": 65, "velocity": 83, "channel": 0}, {"type": "note_on", "time": 35, "note": 68, "velocity": 95, "channel": 0}, {"type": "note_off", "time": 35, "note": 68, "velocity": 95, "channel": 0}, {"type": "note_on", "time": 27, "note": 65, "velocity": 94, "channel": 0}, {"type": "note_off", "time": 31, "note": 65, "velocity": 94, "channel": 0}, {"type": "note_on", "time": 84, "note": 53, "velocity": 89, "channel": 0}, {"type": "note_off", "time": 101, "note": 53, "velocity": 89, "channel": 0}, {"type": "note_on", "time": 0, "note": 52, "velocity": 86, "channel": 0}, {"type": "note_off", "time": 79, "note": 52, "velocity": 86, "channel": 0}, {"type": "note_on", "time": 0, "note": 55, "velocity": 90, "channel": 0}, {"type": "note_off", "time": 63, "note": 55, "velocity": 90, "channel": 0}, {"type": "note_on", "time": 15, "note": 58, "velocity": 101, "channel": 0}, {"type": "note_off", "time": 91, "note": 58, "velocity": 101, "channel": 0}, {"type": "note_on", "time": 19, "note": 62, "velocity": 101, "channel": 0}, {"type": "note_off", "time": 49, "note": 62, "velocity": 101, "channel": 0}, {"type": "note_on", "time": 38, "note": 55, "velocity": 96, "channel": 0}, {"type": "note_off", "time": 98, "note": 55, "velocity": 96, "channel": 0}, {"type": "note_on", "time": 13, "note": 57, "velocity": 92, "channel": 0}, {"type": "note_off", "time": 71, "note": 57, "velocity": 92, "channel": 0}, {"type": "note_on", "time": 32, "note": 60, "velocity": 99, "channel": 0}, {"type": "note_off", "time": 106, "note": 60, "velocity": 99, "channel": 0}, {"type": "note_on", "time": 4, "note": 57, "velocity": 93, "channel": 0}, {"type": "note_off", "time": 74, "note": 57, "velocity": 93, "channel": 0}, {"type": "note_on", "time": 12, "note": 58, "velocity": 97, "channel": 0}, {"type": "note_off", "time": 87, "note": 58, "velocity": 97, "channel": 0}, {"type": "note_on", "time": 5, "note": 60, "velocity": 92, "channel": 0}, {"type": "note_off", "time": 75, "note": 60, "velocity": 92, "channel": 0}, {"type": "note_on", "time": 2, "note": 61, "velocity": 92, "channel": 0}, {"type": "note_off", "time": 74, "note": 61, "velocity": 92, "channel": 0}, {"type": "note_on", "time": 5, "note": 63, "velocity": 86, "channel": 0}, {"type": "note_off", "time": 28, "note": 63, "velocity": 86, "channel": 0}, {"type": "note_on", "time": 0, "note": 64, "velocity": 91, "channel": 0}, {"type": "note_off", "time": 49, "note": 64, "velocity": 91, "channel": 0}, {"type": "note_on", "time": 35, "note": 67, "velocity": 100, "channel": 0}, {"type": "note_off", "time": 109, "note": 67, "velocity": 100, "channel": 0}, {"type": "note_on", "time": 18, "note": 64, "velocity": 90, "channel": 0}, {"type": "note_off", "time": 57, "note": 64, "velocity": 90, "channel": 0}, {"type": "note_on", "time": 7, "note": 65, "velocity": 89, "channel": 0}, {"type": "note_off", "time": 99, "note": 65, "velocity": 89, "channel": 0}, {"type": "note_on", "time": 68, "note": 72, "velocity": 106, "channel": 0}, {"type": "note_off", "time": 333, "note": 72, "velocity": 106, "channel": 0}, {"type": "note_on", "time": 33, "note": 70, "velocity": 102, "channel": 0}, {"type": "note_off", "time": 128, "note": 70, "velocity": 102, "channel": 0}, {"type": "note_on", "time": 23, "note": 65, "velocity": 86, "channel": 0}, {"type": "note_off", "time": 59, "note": 65, "velocity": 86, "channel": 0}, {"type": "note_on", "time": 8, "note": 68, "velocity": 106, "channel": 0}, {"type": "note_off", "time": 60, "note": 68, "velocity": 106, "channel": 0}, {"type": "note_on", "time": 0, "note": 69, "velocity": 111, "channel": 0}, {"type": "note_off", "time": 149, "note": 69, "velocity": 111, "channel": 0}, {"type": "note_on", "time": 4, "note": 65, "velocity": 95, "channel": 0}, {"type": "note_off", "time": 104, "note": 65, "velocity": 95, "channel": 0}, {"type": "note_on", "time": 57, "note": 66, "velocity": 113, "channel": 0}, {"type": "note_off", "time": 61, "note": 66, "velocity": 113, "channel": 0}, {"type": "note_on", "time": 0, "note": 67, "velocity": 91, "channel": 0}, {"type": "note_off", "time": 676, "note": 67, "velocity": 91, "channel": 0}, {"type": "note_on", "time": 37, "note": 67, "velocity": 100, "channel": 0}, {"type": "note_off", "time": 94, "note": 67, "velocity": 100, "channel": 0}, {"type": "note_on", "time": 15, "note": 65, "velocity": 99, "channel": 0}, {"type": "note_off", "time": 60, "note": 65, "velocity": 99, "channel": 0}, {"type": "note_on", "time": 23, "note": 62, "velocity": 98, "channel": 0}, {"type": "note_off", "time": 80, "note": 62, "velocity": 98, "channel": 0}, {"type": "note_on", "time": 28, "note": 60, "velocity": 99, "channel": 0}, {"type": "note_off", "time": 101, "note": 60, "velocity": 99, "channel": 0}, {"type": "note_on", "time": 751, "note": 68, "velocity": 113, "channel": 0}, {"type": "note_off", "time": 105, "note": 68, "velocity": 113, "channel": 0}, {"type": "note_on", "time": 12, "note": 67, "velocity": 115, "channel": 0}, {"type": "note_off", "time": 81, "note": 67, "velocity": 115, "channel": 0}, {"type": "note_on", "time": 12, "note": 66, "velocity": 114, "channel": 0}, {"type": "note_off", "time": 99, "note": 66, "velocity": 114, "channel": 0}, {"type": "note_on", "time": 1, "note": 67, "velocity": 107, "channel": 0}, {"type": "note_off", "time": 37, "note": 67, "velocity": 107, "channel": 0}, {"type": "note_on", "time": 25, "note": 69, "velocity": 115, "channel": 0}, {"type": "note_off", "time": 106, "note": 69, "velocity": 115, "channel": 0}, {"type": "note_on", "time": 27, "note": 69, "velocity": 107, "channel": 0}, {"type": "note_off", "time": 106, "note": 69, "velocity": 107, "channel": 0}, {"type": "note_on", "time": 10, "note": 66, "velocity": 112, "channel": 0}, {"type": "note_off", "time": 84, "note": 66, "velocity": 112, "channel": 0}, {"type": "note_on", "time": 14, "note": 65, "velocity": 111, "channel": 0}, {"type": "note_off", "time": 52, "note": 65, "velocity": 111, "channel": 0}, {"type": "note_on", "time": 19, "note": 64, "velocity": 112, "channel": 0}, {"type": "note_off", "time": 91, "note": 64, "velocity": 112, "channel": 0}, {"type": "note_on", "time": 19, "note": 62, "velocity": 100, "channel": 0}, {"type": "note_off", "time": 73, "note": 62, "velocity": 100, "channel": 0}, {"type": "note_on", "time": 2, "note": 63, "velocity": 109, "channel": 0}, {"type": "note_off", "time": 60, "note": 63, "velocity": 109, "channel": 0}, {"type": "note_on", "time": 18, "note": 66, "velocity": 112, "channel": 0}, {"type": "note_off", "time": 97, "note": 66, "velocity": 112, "channel": 0}, {"type": "note_on", "time": 8, "note": 65, "velocity": 109, "channel": 0}, {"type": "note_off", "time": 85, "note": 65, "velocity": 109, "channel": 0}, {"type": "note_on", "time": 7, "note": 63, "velocity": 111, "channel": 0}, {"type": "note_off", "time": 75, "note": 63, "velocity": 111, "channel": 0}, {"type": "note_on", "time": 6, "note": 62, "velocity": 106, "channel": 0}, {"type": "note_off", "time": 81, "note": 62, "velocity": 106, "channel": 0}, {"type": "note_on", "time": 16, "note": 60, "velocity": 99, "channel": 0}, {"type": "note_off", "time": 85, "note": 60, "velocity": 99, "channel": 0}, {"type": "note_on", "time": 13, "note": 59, "velocity": 98, "channel": 0}, {"type": "note_off", "time": 78, "note": 59, "velocity": 98, "channel": 0}, {"type": "note_on", "time": 30, "note": 57, "velocity": 101, "channel": 0}, {"type": "note_off", "time": 92, "note": 57, "velocity": 101, "channel": 0}, {"type": "note_on", "time": 4, "note": 56, "velocity": 90, "channel": 0}, {"type": "note_off", "time": 71, "note": 56, "velocity": 90, "channel": 0}, {"type": "note_on", "time": 22, "note": 53, "velocity": 92, "channel": 0}, {"type": "note_off", "time": 85, "note": 53, "velocity": 92, "channel": 0}, {"type": "note_on", "time": 9, "note": 52, "velocity": 94, "channel": 0}, {"type": "note_off", "time": 104, "note": 52, "velocity": 94, "channel": 0}, {"type": "note_on", "time": 14, "note": 50, "velocity": 96, "channel": 0}, {"type": "note_off", "time": 50, "note": 50, "velocity": 96, "channel": 0}, {"type": "note_on", "time": 14, "note": 48, "velocity": 95, "channel": 0}, {"type": "note_off", "time": 61, "note": 48, "velocity": 95, "channel": 0}, {"type": "note_on", "time": 23, "note": 46, "velocity": 93, "channel": 0}, {"type": "note_off", "time": 60, "note": 46, "velocity": 93, "channel": 0}, {"type": "note_on", "time": 25, "note": 45, "velocity": 97, "channel": 0}, {"type": "note_off", "time": 115, "note": 45, "velocity": 97, "channel": 0}, {"type": "note_on", "time": 782, "note": 46, "velocity": 112, "channel": 0}, {"type": "note_off", "time": 88, "note": 46, "velocity": 112, "channel": 0}, {"type": "note_on", "time": 0, "note": 50, "velocity": 99, "channel": 0}, {"type": "note_off", "time": 54, "note": 50, "velocity": 99, "channel": 0}, {"type": "note_on", "time": 4, "note": 53, "velocity": 93, "channel": 0}, {"type": "note_off", "time": 23, "note": 53, "velocity": 93, "channel": 0}, {"type": "note_on", "time": 23, "note": 57, "velocity": 93, "channel": 0}, {"type": "note_off", "time": 61, "note": 57, "velocity": 93, "channel": 0}, {"type": "note_on", "time": 16, "note": 55, "velocity": 97, "channel": 0}, {"type": "note_off", "time": 71, "note": 55, "velocity": 97, "channel": 0}, {"type": "note_on", "time": 23, "note": 53, "velocity": 95, "channel": 0}, {"type": "note_off", "time": 71, "note": 53, "velocity": 95, "channel": 0}, {"type": "note_on", "time": 14, "note": 52, "velocity": 88, "channel": 0}, {"type": "note_off", "time": 77, "note": 52, "velocity": 88, "channel": 0}, {"type": "note_on", "time": 9, "note": 55, "velocity": 96, "channel": 0}, {"type": "note_off", "time": 57, "note": 55, "velocity": 96, "channel": 0}, {"type": "note_on", "time": 16, "note": 58, "velocity": 99, "channel": 0}, {"type": "note_off", "time": 66, "note": 58, "velocity": 99, "channel": 0}, {"type": "note_on", "time": 2, "note": 62, "velocity": 105, "channel": 0}, {"type": "note_off", "time": 81, "note": 62, "velocity": 105, "channel": 0}, {"type": "note_on", "time": 17, "note": 56, "velocity": 90, "channel": 0}, {"type": "note_off", "time": 71, "note": 56, "velocity": 90, "channel": 0}, {"type": "note_on", "time": 23, "note": 58, "velocity": 101, "channel": 0}, {"type": "note_off", "time": 56, "note": 58, "velocity": 101, "channel": 0}, {"type": "note_on", "time": 5, "note": 61, "velocity": 102, "channel": 0}, {"type": "note_off", "time": 67, "note": 61, "velocity": 102, "channel": 0}, {"type": "note_on", "time": 14, "note": 62, "velocity": 104, "channel": 0}, {"type": "note_off", "time": 70, "note": 62, "velocity": 104, "channel": 0}, {"type": "note_on", "time": 8, "note": 64, "velocity": 102, "channel": 0}, {"type": "note_off", "time": 56, "note": 64, "velocity": 102, "channel": 0}, {"type": "note_on", "time": 14, "note": 65, "velocity": 103, "channel": 0}, {"type": "note_off", "time": 66, "note": 65, "velocity": 103, "channel": 0}, {"type": "note_on", "time": 15, "note": 69, "velocity": 103, "channel": 0}, {"type": "note_off", "time": 92, "note": 69, "velocity": 103, "channel": 0}, {"type": "note_on", "time": 11, "note": 71, "velocity": 99, "channel": 0}, {"type": "note_off", "time": 67, "note": 71, "velocity": 99, "channel": 0}, {"type": "note_on", "time": 13, "note": 73, "velocity": 104, "channel": 0}, {"type": "note_off", "time": 90, "note": 73, "velocity": 104, "channel": 0}, {"type": "note_on", "time": 16, "note": 74, "velocity": 104, "channel": 0}, {"type": "note_off", "time": 124, "note": 74, "velocity": 104, "channel": 0}, {"type": "note_on", "time": 23, "note": 69, "velocity": 106, "channel": 0}, {"type": "note_off", "time": 94, "note": 69, "velocity": 106, "channel": 0}, {"type": "note_on", "time": 33, "note": 65, "velocity": 99, "channel": 0}, {"type": "note_off", "time": 84, "note": 65, "velocity": 99, "channel": 0}, {"type": "note_on", "time": 16, "note": 64, "velocity": 99, "channel": 0}, {"type": "note_off", "time": 77, "note": 64, "velocity": 99, "channel": 0}, {"type": "note_on", "time": 8, "note": 62, "velocity": 88, "channel": 0}, {"type": "note_off", "time": 106, "note": 62, "velocity": 88, "channel": 0}, {"type": "note_on", "time": 32, "note": 67, "velocity": 101, "channel": 0}, {"type": "note_off", "time": 100, "note": 67, "velocity": 101, "channel": 0}, {"type": "note_on", "time": 0, "note": 64, "velocity": 95, "channel": 0}, {"type": "note_off", "time": 79, "note": 64, "velocity": 95, "channel": 0}, {"type": "note_on", "time": 19, "note": 65, "velocity": 93, "channel": 0}, {"type": "note_off", "time": 97, "note": 65, "velocity": 93, "channel": 0}, {"type": "note_on", "time": 23, "note": 69, "velocity": 101, "channel": 0}, {"type": "note_off", "time": 29, "note": 69, "velocity": 101, "channel": 0}, {"type": "note_on", "time": 2, "note": 71, "velocity": 108, "channel": 0}, {"type": "note_off", "time": 220, "note": 71, "velocity": 108, "channel": 0}, {"type": "note_on", "time": 22, "note": 75, "velocity": 95, "channel": 0}, {"type": "note_off", "time": 75, "note": 75, "velocity": 95, "channel": 0}, {"type": "note_on", "time": 112, "note": 73, "velocity": 96, "channel": 0}, {"type": "note_off", "time": 88, "note": 73, "velocity": 96, "channel": 0}, {"type": "note_on", "time": 104, "note": 68, "velocity": 100, "channel": 0}, {"type": "note_off", "time": 88, "note": 68, "velocity": 100, "channel": 0}, {"type": "note_on", "time": 43, "note": 66, "velocity": 91, "channel": 0}, {"type": "note_off", "time": 59, "note": 66, "velocity": 91, "channel": 0}, {"type": "note_on", "time": 16, "note": 71, "velocity": 104, "channel": 0}, {"type": "note_off", "time": 95, "note": 71, "velocity": 104, "channel": 0}, {"type": "note_on", "time": 21, "note": 66, "velocity": 87, "channel": 0}, {"type": "note_off", "time": 59, "note": 66, "velocity": 87, "channel": 0}, {"type": "note_on", "time": 195, "note": 70, "velocity": 102, "channel": 0}, {"type": "note_off", "time": 74, "note": 70, "velocity": 102, "channel": 0}, {"type": "note_on", "time": 211, "note": 68, "velocity": 100, "channel": 0}, {"type": "note_off", "time": 68, "note": 68, "velocity": 100, "channel": 0}, {"type": "note_on", "time": 33, "note": 67, "velocity": 98, "channel": 0}, {"type": "note_off", "time": 75, "note": 67, "velocity": 98, "channel": 0}, {"type": "note_on", "time": 18, "note": 65, "velocity": 98, "channel": 0}, {"type": "note_off", "time": 41, "note": 65, "velocity": 98, "channel": 0}, {"type": "note_on", "time": 1, "note": 64, "velocity": 100, "channel": 0}, {"type": "note_off", "time": 33, "note": 64, "velocity": 100, "channel": 0}, {"type": "note_on", "time": 29, "note": 58, "velocity": 95, "channel": 0}, {"type": "note_off", "time": 64, "note": 58, "velocity": 95, "channel": 0}, {"type": "note_on", "time": 128, "note": 68, "velocity": 95, "channel": 0}, {"type": "note_off", "time": 128, "note": 68, "velocity": 95, "channel": 0}, {"type": "note_on", "time": 14, "note": 68, "velocity": 93, "channel": 0}, {"type": "note_off", "time": 36, "note": 68, "velocity": 93, "channel": 0}, {"type": "note_on", "time": 12, "note": 69, "velocity": 99, "channel": 0}, {"type": "note_off", "time": 253, "note": 69, "velocity": 99, "channel": 0}, {"type": "note_on", "time": 439, "note": 66, "velocity": 110, "channel": 0}, {"type": "note_off", "time": 45, "note": 66, "velocity": 110, "channel": 0}, {"type": "note_on", "time": 5, "note": 67, "velocity": 108, "channel": 0}, {"type": "note_off", "time": 257, "note": 67, "velocity": 108, "channel": 0}, {"type": "note_on", "time": 12, "note": 65, "velocity": 103, "channel": 0}, {"type": "note_off", "time": 92, "note": 65, "velocity": 103, "channel": 0}, {"type": "note_on", "time": 18, "note": 64, "velocity": 105, "channel": 0}, {"type": "note_off", "time": 102, "note": 64, "velocity": 105, "channel": 0}, {"type": "note_on", "time": 18, "note": 62, "velocity": 99, "channel": 0}, {"type": "note_off", "time": 73, "note": 62, "velocity": 99, "channel": 0}, {"type": "note_on", "time": 3, "note": 60, "velocity": 89, "channel": 0}, {"type": "note_off", "time": 83, "note": 60, "velocity": 89, "channel": 0}, {"type": "note_on", "time": 11, "note": 58, "velocity": 112, "channel": 0}, {"type": "note_off", "time": 88, "note": 58, "velocity": 112, "channel": 0}, {"type": "note_on", "time": 23, "note": 57, "velocity": 92, "channel": 0}, {"type": "note_off", "time": 139, "note": 57, "velocity": 92, "channel": 0}, {"type": "note_on", "time": 56, "note": 61, "velocity": 92, "channel": 0}, {"type": "note_off", "time": 61, "note": 61, "velocity": 92, "channel": 0}, {"type": "note_on", "time": 21, "note": 62, "velocity": 98, "channel": 0}, {"type": "note_off", "time": 211, "note": 62, "velocity": 98, "channel": 0}, {"type": "note_on", "time": 19, "note": 69, "velocity": 109, "channel": 0}, {"type": "note_off", "time": 133, "note": 69, "velocity": 109, "channel": 0}, {"type": "note_on", "time": 551, "note": 48, "velocity": 107, "channel": 0}, {"type": "note_off", "time": 81, "note": 48, "velocity": 107, "channel": 0}, {"type": "note_on", "time": 9, "note": 50, "velocity": 103, "channel": 0}, {"type": "note_off", "time": 22, "note": 50, "velocity": 103, "channel": 0}, {"type": "note_on", "time": 4, "note": 52, "velocity": 100, "channel": 0}, {"type": "note_off", "time": 19, "note": 52, "velocity": 100, "channel": 0}, {"type": "note_on", "time": 4, "note": 53, "velocity": 104, "channel": 0}, {"type": "note_off", "time": 40, "note": 53, "velocity": 104, "channel": 0}, {"type": "note_on", "time": 12, "note": 57, "velocity": 104, "channel": 0}, {"type": "note_off", "time": 63, "note": 57, "velocity": 104, "channel": 0}, {"type": "note_on", "time": 18, "note": 55, "velocity": 100, "channel": 0}, {"type": "note_off", "time": 60, "note": 55, "velocity": 100, "channel": 0}, {"type": "note_on", "time": 4, "note": 53, "velocity": 93, "channel": 0}, {"type": "note_off", "time": 33, "note": 53, "velocity": 93, "channel": 0}, {"type": "note_on", "time": 7, "note": 52, "velocity": 88, "channel": 0}, {"type": "note_off", "time": 77, "note": 52, "velocity": 88, "channel": 0}, {"type": "note_on", "time": 5, "note": 54, "velocity": 93, "channel": 0}, {"type": "note_off", "time": 52, "note": 54, "velocity": 93, "channel": 0}, {"type": "note_on", "time": 8, "note": 58, "velocity": 105, "channel": 0}, {"type": "note_off", "time": 75, "note": 58, "velocity": 105, "channel": 0}, {"type": "note_on", "time": 15, "note": 62, "velocity": 100, "channel": 0}, {"type": "note_off", "time": 42, "note": 62, "velocity": 100, "channel": 0}, {"type": "note_on", "time": 18, "note": 57, "velocity": 100, "channel": 0}, {"type": "note_off", "time": 80, "note": 57, "velocity": 100, "channel": 0}, {"type": "note_on", "time": 5, "note": 58, "velocity": 104, "channel": 0}, {"type": "note_off", "time": 74, "note": 58, "velocity": 104, "channel": 0}, {"type": "note_on", "time": 5, "note": 60, "velocity": 99, "channel": 0}, {"type": "note_off", "time": 56, "note": 60, "velocity": 99, "channel": 0}, {"type": "note_on", "time": 2, "note": 62, "velocity": 96, "channel": 0}, {"type": "note_off", "time": 47, "note": 62, "velocity": 96, "channel": 0}, {"type": "note_on", "time": 0, "note": 63, "velocity": 99, "channel": 0}, {"type": "note_off", "time": 32, "note": 63, "velocity": 99, "channel": 0}, {"type": "note_on", "time": 4, "note": 64, "velocity": 104, "channel": 0}, {"type": "note_off", "time": 45, "note": 64, "velocity": 104, "channel": 0}, {"type": "note_on", "time": 9, "note": 65, "velocity": 103, "channel": 0}, {"type": "note_off", "time": 33, "note": 65, "velocity": 103, "channel": 0}, {"type": "note_on", "time": 18, "note": 67, "velocity": 106, "channel": 0}, {"type": "note_off", "time": 68, "note": 67, "velocity": 106, "channel": 0}, {"type": "note_on", "time": 19, "note": 69, "velocity": 110, "channel": 0}, {"type": "note_off", "time": 78, "note": 69, "velocity": 110, "channel": 0}, {"type": "note_on", "time": 2, "note": 61, "velocity": 102, "channel": 0}, {"type": "note_off", "time": 104, "note": 61, "velocity": 102, "channel": 0}, {"type": "note_on", "time": 14, "note": 62, "velocity": 100, "channel": 0}, {"type": "note_off", "time": 151, "note": 62, "velocity": 100, "channel": 0}, {"type": "note_on", "time": 12, "note": 69, "velocity": 108, "channel": 0}, {"type": "note_off", "time": 268, "note": 69, "velocity": 108, "channel": 0}, {"type": "note_on", "time": 333, "note": 70, "velocity": 89, "channel": 0}, {"type": "note_on", "time": 29, "note": 69, "velocity": 110, "channel": 0}, {"type": "note_off", "time": 0, "note": 70, "velocity": 89, "channel": 0}, {"type": "note_off", "time": 25, "note": 69, "velocity": 110, "channel": 0}, {"type": "note_on", "time": 8, "note": 67, "velocity": 114, "channel": 0}, {"type": "note_off", "time": 33, "note": 67, "velocity": 114, "channel": 0}, {"type": "note_on", "time": 12, "note": 66, "velocity": 110, "channel": 0}, {"type": "note_off", "time": 49, "note": 66, "velocity": 110, "channel": 0}, {"type": "note_on", "time": 2, "note": 64, "velocity": 106, "channel": 0}, {"type": "note_off", "time": 54, "note": 64, "velocity": 106, "channel": 0}, {"type": "note_on", "time": 15, "note": 62, "velocity": 104, "channel": 0}, {"type": "note_off", "time": 63, "note": 62, "velocity": 104, "channel": 0}, {"type": "note_on", "time": 1, "note": 61, "velocity": 91, "channel": 0}, {"type": "note_off", "time": 30, "note": 61, "velocity": 91, "channel": 0}, {"type": "note_on", "time": 11, "note": 60, "velocity": 105, "channel": 0}, {"type": "note_off", "time": 26, "note": 60, "velocity": 105, "channel": 0}, {"type": "note_on", "time": 9, "note": 58, "velocity": 99, "channel": 0}, {"type": "note_off", "time": 56, "note": 58, "velocity": 99, "channel": 0}, {"type": "note_on", "time": 14, "note": 57, "velocity": 102, "channel": 0}, {"type": "note_off", "time": 45, "note": 57, "velocity": 102, "channel": 0}, {"type": "note_on", "time": 944, "note": 44, "velocity": 114, "channel": 0}, {"type": "note_off", "time": 98, "note": 44, "velocity": 114, "channel": 0}, {"type": "note_on", "time": 11, "note": 50, "velocity": 118, "channel": 0}, {"type": "note_off", "time": 99, "note": 50, "velocity": 118, "channel": 0}, {"type": "note_on", "time": 14, "note": 45, "velocity": 112, "channel": 0}, {"type": "note_off", "time": 80, "note": 45, "velocity": 112, "channel": 0}, {"type": "note_on", "time": 23, "note": 51, "velocity": 115, "channel": 0}, {"type": "note_off", "time": 77, "note": 51, "velocity": 115, "channel": 0}, {"type": "note_on", "time": 0, "note": 46, "velocity": 119, "channel": 0}, {"type": "note_off", "time": 78, "note": 46, "velocity": 119, "channel": 0}, {"type": "note_on", "time": 25, "note": 50, "velocity": 109, "channel": 0}, {"type": "note_off", "time": 63, "note": 50, "velocity": 109, "channel": 0}, {"type": "note_on", "time": 0, "note": 53, "velocity": 107, "channel": 0}, {"type": "note_off", "time": 98, "note": 53, "velocity": 107, "channel": 0}, {"type": "note_on", "time": 15, "note": 49, "velocity": 109, "channel": 0}, {"type": "note_off", "time": 91, "note": 49, "velocity": 109, "channel": 0}, {"type": "note_on", "time": 7, "note": 51, "velocity": 102, "channel": 0}, {"type": "note_off", "time": 73, "note": 51, "velocity": 102, "channel": 0}, {"type": "note_on", "time": 0, "note": 54, "velocity": 99, "channel": 0}, {"type": "note_off", "time": 80, "note": 54, "velocity": 99, "channel": 0}, {"type": "note_on", "time": 26, "note": 56, "velocity": 104, "channel": 0}, {"type": "note_off", "time": 37, "note": 56, "velocity": 104, "channel": 0}, {"type": "note_on", "time": 15, "note": 55, "velocity": 101, "channel": 0}, {"type": "note_off", "time": 56, "note": 55, "velocity": 101, "channel": 0}, {"type": "note_on", "time": 12, "note": 54, "velocity": 102, "channel": 0}, {"type": "note_off", "time": 61, "note": 54, "velocity": 102, "channel": 0}, {"type": "note_on", "time": 5, "note": 53, "velocity": 98, "channel": 0}, {"type": "note_off", "time": 87, "note": 53, "velocity": 98, "channel": 0}, {"type": "note_on", "time": 32, "note": 56, "velocity": 90, "channel": 0}, {"type": "note_off", "time": 37, "note": 56, "velocity": 90, "channel": 0}, {"type": "note_on", "time": 9, "note": 58, "velocity": 104, "channel": 0}, {"type": "note_off", "time": 42, "note": 58, "velocity": 104, "channel": 0}, {"type": "note_on", "time": 18, "note": 62, "velocity": 109, "channel": 0}, {"type": "note_off", "time": 70, "note": 62, "velocity": 109, "channel": 0}, {"type": "note_on", "time": 8, "note": 60, "velocity": 99, "channel": 0}, {"type": "note_off", "time": 30, "note": 60, "velocity": 99, "channel": 0}, {"type": "note_on", "time": 12, "note": 58, "velocity": 105, "channel": 0}, {"type": "note_off", "time": 49, "note": 58, "velocity": 105, "channel": 0}, {"type": "note_on", "time": 36, "note": 55, "velocity": 101, "channel": 0}, {"type": "note_off", "time": 50, "note": 55, "velocity": 101, "channel": 0}, {"type": "note_on", "time": 11, "note": 57, "velocity": 100, "channel": 0}, {"type": "note_off", "time": 46, "note": 57, "velocity": 100, "channel": 0}, {"type": "note_on", "time": 18, "note": 58, "velocity": 102, "channel": 0}, {"type": "note_off", "time": 60, "note": 58, "velocity": 102, "channel": 0}, {"type": "note_on", "time": 0, "note": 60, "velocity": 106, "channel": 0}, {"type": "note_off", "time": 85, "note": 60, "velocity": 106, "channel": 0}, {"type": "note_on", "time": 2, "note": 57, "velocity": 101, "channel": 0}, {"type": "note_off", "time": 46, "note": 57, "velocity": 101, "channel": 0}, {"type": "note_on", "time": 16, "note": 58, "velocity": 98, "channel": 0}, {"type": "note_off", "time": 43, "note": 58, "velocity": 98, "channel": 0}, {"type": "note_on", "time": 37, "note": 60, "velocity": 104, "channel": 0}, {"type": "note_off", "time": 73, "note": 60, "velocity": 104, "channel": 0}, {"type": "note_on", "time": 9, "note": 61, "velocity": 102, "channel": 0}, {"type": "note_off", "time": 40, "note": 61, "velocity": 102, "channel": 0}, {"type": "note_on", "time": 7, "note": 62, "velocity": 103, "channel": 0}, {"type": "note_off", "time": 75, "note": 62, "velocity": 103, "channel": 0}, {"type": "note_on", "time": 2, "note": 69, "velocity": 100, "channel": 0}, {"type": "note_off", "time": 33, "note": 69, "velocity": 100, "channel": 0}, {"type": "note_on", "time": 9, "note": 72, "velocity": 102, "channel": 0}, {"type": "note_off", "time": 60, "note": 72, "velocity": 102, "channel": 0}, {"type": "note_on", "time": 8, "note": 70, "velocity": 104, "channel": 0}, {"type": "note_off", "time": 122, "note": 70, "velocity": 104, "channel": 0}, {"type": "note_on", "time": 779, "note": 69, "velocity": 109, "channel": 0}, {"type": "note_off", "time": 43, "note": 69, "velocity": 109, "channel": 0}, {"type": "note_on", "time": 6, "note": 67, "velocity": 116, "channel": 0}, {"type": "note_off", "time": 56, "note": 67, "velocity": 116, "channel": 0}, {"type": "note_on", "time": 0, "note": 65, "velocity": 107, "channel": 0}, {"type": "note_off", "time": 63, "note": 65, "velocity": 107, "channel": 0}, {"type": "note_on", "time": 8, "note": 64, "velocity": 113, "channel": 0}, {"type": "note_off", "time": 91, "note": 64, "velocity": 113, "channel": 0}, {"type": "note_on", "time": 12, "note": 62, "velocity": 108, "channel": 0}, {"type": "note_off", "time": 74, "note": 62, "velocity": 108, "channel": 0}, {"type": "note_on", "time": 16, "note": 60, "velocity": 99, "channel": 0}, {"type": "note_off", "time": 67, "note": 60, "velocity": 99, "channel": 0}, {"type": "note_on", "time": 12, "note": 58, "velocity": 108, "channel": 0}, {"type": "note_off", "time": 95, "note": 58, "velocity": 108, "channel": 0}, {"type": "note_on", "time": 29, "note": 55, "velocity": 99, "channel": 0}, {"type": "note_off", "time": 63, "note": 55, "velocity": 99, "channel": 0}, {"type": "note_on", "time": 7, "note": 56, "velocity": 92, "channel": 0}, {"type": "note_off", "time": 112, "note": 56, "velocity": 92, "channel": 0}, {"type": "note_on", "time": 17, "note": 52, "velocity": 107, "channel": 0}, {"type": "note_off", "time": 47, "note": 52, "velocity": 107, "channel": 0}, {"type": "note_on", "time": 31, "note": 53, "velocity": 100, "channel": 0}, {"type": "note_off", "time": 65, "note": 53, "velocity": 100, "channel": 0}, {"type": "note_on", "time": 24, "note": 52, "velocity": 88, "channel": 0}, {"type": "note_off", "time": 35, "note": 52, "velocity": 88, "channel": 0}, {"type": "note_on", "time": 21, "note": 50, "velocity": 91, "channel": 0}, {"type": "note_off", "time": 64, "note": 50, "velocity": 91, "channel": 0}, {"type": "note_on", "time": 29, "note": 48, "velocity": 110, "channel": 0}, {"type": "note_off", "time": 35, "note": 48, "velocity": 110, "channel": 0}, {"type": "note_on", "time": 76, "note": 55, "velocity": 99, "channel": 0}, {"type": "note_off", "time": 66, "note": 55, "velocity": 99, "channel": 0}, {"type": "note_on", "time": 8, "note": 53, "velocity": 102, "channel": 0}, {"type": "note_off", "time": 115, "note": 53, "velocity": 102, "channel": 0}, {"type": "note_on", "time": 704, "note": 57, "velocity": 94, "channel": 0}, {"type": "note_off", "time": 144, "note": 57, "velocity": 94, "channel": 0}, {"type": "note_on", "time": 43, "note": 60, "velocity": 111, "channel": 0}, {"type": "note_off", "time": 146, "note": 60, "velocity": 111, "channel": 0}, {"type": "note_on", "time": 19, "note": 57, "velocity": 102, "channel": 0}, {"type": "note_off", "time": 140, "note": 57, "velocity": 102, "channel": 0}, {"type": "note_on", "time": 61, "note": 58, "velocity": 99, "channel": 0}, {"type": "note_off", "time": 108, "note": 58, "velocity": 99, "channel": 0}, {"type": "note_on", "time": 7, "note": 60, "velocity": 89, "channel": 0}, {"type": "note_off", "time": 59, "note": 60, "velocity": 89, "channel": 0}, {"type": "note_on", "time": 27, "note": 62, "velocity": 108, "channel": 0}, {"type": "note_off", "time": 114, "note": 62, "velocity": 108, "channel": 0}, {"type": "note_on", "time": 7, "note": 65, "velocity": 109, "channel": 0}, {"type": "note_off", "time": 114, "note": 65, "velocity": 109, "channel": 0}, {"type": "note_on", "time": 639, "note": 62, "velocity": 117, "channel": 0}, {"type": "note_off", "time": 98, "note": 62, "velocity": 117, "channel": 0}, {"type": "note_on", "time": 5, "note": 60, "velocity": 92, "channel": 0}, {"type": "note_off", "time": 146, "note": 60, "velocity": 92, "channel": 0}, {"type": "note_on", "time": 51, "note": 62, "velocity": 113, "channel": 0}, {"type": "note_off", "time": 87, "note": 62, "velocity": 113, "channel": 0}, {"type": "note_on", "time": 87, "note": 58, "velocity": 103, "channel": 0}, {"type": "note_off", "time": 166, "note": 58, "velocity": 103, "channel": 0}, {"type": "note_on", "time": 31, "note": 60, "velocity": 108, "channel": 0}, {"type": "note_off", "time": 100, "note": 60, "velocity": 108, "channel": 0}, {"type": "note_on", "time": 53, "note": 56, "velocity": 100, "channel": 0}, {"type": "note_off", "time": 128, "note": 56, "velocity": 100, "channel": 0}, {"type": "note_on", "time": 71, "note": 58, "velocity": 98, "channel": 0}, {"type": "note_off", "time": 100, "note": 58, "velocity": 98, "channel": 0}, {"type": "note_on", "time": 35, "note": 55, "velocity": 93, "channel": 0}, {"type": "note_off", "time": 176, "note": 55, "velocity": 93, "channel": 0}, {"type": "note_on", "time": 71, "note": 56, "velocity": 93, "channel": 0}, {"type": "note_off", "time": 45, "note": 56, "velocity": 93, "channel": 0}, {"type": "note_on", "time": 17, "note": 57, "velocity": 91, "channel": 0}, {"type": "note_off", "time": 93, "note": 57, "velocity": 91, "channel": 0}, {"type": "note_on", "time": 43, "note": 53, "velocity": 94, "channel": 0}, {"type": "note_off", "time": 253, "note": 53, "velocity": 94, "channel": 0}, {"type": "note_on", "time": 110, "note": 54, "velocity": 97, "channel": 0}, {"type": "note_off", "time": 53, "note": 54, "velocity": 97, "channel": 0}, {"type": "note_on", "time": 15, "note": 55, "velocity": 95, "channel": 0}, {"type": "note_off", "time": 104, "note": 55, "velocity": 95, "channel": 0}, {"type": "note_on", "time": 21, "note": 53, "velocity": 89, "channel": 0}, {"type": "note_off", "time": 150, "note": 53, "velocity": 89, "channel": 0}, {"type": "note_on", "time": 61, "note": 55, "velocity": 101, "channel": 0}, {"type": "note_off", "time": 59, "note": 55, "velocity": 101, "channel": 0}, {"type": "note_on", "time": 17, "note": 56, "velocity": 97, "channel": 0}, {"type": "note_off", "time": 59, "note": 56, "velocity": 97, "channel": 0}, {"type": "note_on", "time": 27, "note": 60, "velocity": 101, "channel": 0}, {"type": "note_off", "time": 77, "note": 60, "velocity": 101, "channel": 0}, {"type": "note_on", "time": 87, "note": 55, "velocity": 87, "channel": 0}, {"type": "note_off", "time": 320, "note": 55, "velocity": 87, "channel": 0}, {"type": "note_on", "time": 75, "note": 53, "velocity": 93, "channel": 0}, {"type": "note_off", "time": 45, "note": 53, "velocity": 93, "channel": 0}, {"type": "note_on", "time": 1, "note": 55, "velocity": 98, "channel": 0}, {"type": "note_off", "time": 79, "note": 55, "velocity": 98, "channel": 0}, {"type": "note_on", "time": 23, "note": 57, "velocity": 102, "channel": 0}, {"type": "note_off", "time": 104, "note": 57, "velocity": 102, "channel": 0}, {"type": "note_on", "time": 1339, "note": 71, "velocity": 113, "channel": 0}, {"type": "note_off", "time": 71, "note": 71, "velocity": 113, "channel": 0}, {"type": "note_on", "time": 21, "note": 69, "velocity": 116, "channel": 0}, {"type": "note_off", "time": 65, "note": 69, "velocity": 116, "channel": 0}, {"type": "note_on", "time": 11, "note": 68, "velocity": 113, "channel": 0}, {"type": "note_off", "time": 89, "note": 68, "velocity": 113, "channel": 0}, {"type": "note_on", "time": 17, "note": 66, "velocity": 110, "channel": 0}, {"type": "note_off", "time": 118, "note": 66, "velocity": 110, "channel": 0}, {"type": "note_on", "time": 11, "note": 65, "velocity": 101, "channel": 0}, {"type": "note_off", "time": 53, "note": 65, "velocity": 101, "channel": 0}, {"type": "note_on", "time": 23, "note": 64, "velocity": 113, "channel": 0}, {"type": "note_off", "time": 61, "note": 64, "velocity": 113, "channel": 0}, {"type": "note_on", "time": 0, "note": 62, "velocity": 101, "channel": 0}, {"type": "note_off", "time": 96, "note": 62, "velocity": 101, "channel": 0}, {"type": "note_on", "time": 17, "note": 60, "velocity": 99, "channel": 0}, {"type": "note_off", "time": 75, "note": 60, "velocity": 99, "channel": 0}, {"type": "note_on", "time": 5, "note": 59, "velocity": 98, "channel": 0}, {"type": "note_off", "time": 83, "note": 59, "velocity": 98, "channel": 0}, {"type": "note_on", "time": 19, "note": 55, "velocity": 96, "channel": 0}, {"type": "note_off", "time": 73, "note": 55, "velocity": 96, "channel": 0}, {"type": "note_on", "time": 3, "note": 56, "velocity": 84, "channel": 0}, {"type": "note_off", "time": 55, "note": 56, "velocity": 84, "channel": 0}, {"type": "note_on", "time": 35, "note": 57, "velocity": 97, "channel": 0}, {"type": "note_off", "time": 71, "note": 57, "velocity": 97, "channel": 0}, {"type": "note_on", "time": 15, "note": 59, "velocity": 95, "channel": 0}, {"type": "note_off", "time": 106, "note": 59, "velocity": 95, "channel": 0}, {"type": "note_on", "time": 11, "note": 57, "velocity": 93, "channel": 0}, {"type": "note_off", "time": 91, "note": 57, "velocity": 93, "channel": 0}, {"type": "note_on", "time": 0, "note": 53, "velocity": 87, "channel": 0}, {"type": "note_off", "time": 140, "note": 53, "velocity": 87, "channel": 0}, {"type": "note_on", "time": 9, "note": 52, "velocity": 83, "channel": 0}, {"type": "note_off", "time": 122, "note": 52, "velocity": 83, "channel": 0}, {"type": "note_on", "time": 7, "note": 54, "velocity": 82, "channel": 0}, {"type": "note_off", "time": 71, "note": 54, "velocity": 82, "channel": 0}, {"type": "note_on", "time": 19, "note": 55, "velocity": 95, "channel": 0}, {"type": "note_off", "time": 91, "note": 55, "velocity": 95, "channel": 0}, {"type": "note_on", "time": 27, "note": 54, "velocity": 97, "channel": 0}, {"type": "note_off", "time": 102, "note": 54, "velocity": 97, "channel": 0}, {"type": "note_on", "time": 13, "note": 53, "velocity": 94, "channel": 0}, {"type": "note_off", "time": 112, "note": 53, "velocity": 94, "channel": 0}, {"type": "note_on", "time": 85, "note": 52, "velocity": 94, "channel": 0}, {"type": "note_off", "time": 63, "note": 52, "velocity": 94, "channel": 0}, {"type": "note_on", "time": 3, "note": 54, "velocity": 91, "channel": 0}, {"type": "note_off", "time": 69, "note": 54, "velocity": 91, "channel": 0}, {"type": "note_on", "time": 27, "note": 55, "velocity": 95, "channel": 0}, {"type": "note_off", "time": 91, "note": 55, "velocity": 95, "channel": 0}, {"type": "note_on", "time": 29, "note": 63, "velocity": 104, "channel": 0}, {"type": "note_off", "time": 51, "note": 63, "velocity": 104, "channel": 0}, {"type": "note_on", "time": 65, "note": 57, "velocity": 101, "channel": 0}, {"type": "note_off", "time": 45, "note": 57, "velocity": 101, "channel": 0}, {"type": "note_on", "time": 15, "note": 58, "velocity": 97, "channel": 0}, {"type": "note_off", "time": 65, "note": 58, "velocity": 97, "channel": 0}, {"type": "note_on", "time": 13, "note": 64, "velocity": 107, "channel": 0}, {"type": "note_off", "time": 96, "note": 64, "velocity": 107, "channel": 0}, {"type": "note_on", "time": 21, "note": 66, "velocity": 97, "channel": 0}, {"type": "note_off", "time": 65, "note": 66, "velocity": 97, "channel": 0}, {"type": "note_on", "time": 106, "note": 71, "velocity": 86, "channel": 0}, {"type": "note_off", "time": 67, "note": 71, "velocity": 86, "channel": 0}, {"type": "note_on", "time": 47, "note": 76, "velocity": 95, "channel": 0}, {"type": "note_off", "time": 67, "note": 76, "velocity": 95, "channel": 0}, {"type": "note_on", "time": 29, "note": 71, "velocity": 104, "channel": 0}, {"type": "note_off", "time": 59, "note": 71, "velocity": 104, "channel": 0}, {"type": "note_on", "time": 17, "note": 67, "velocity": 100, "channel": 0}, {"type": "note_off", "time": 73, "note": 67, "velocity": 100, "channel": 0}, {"type": "note_on", "time": 13, "note": 67, "velocity": 92, "channel": 0}, {"type": "note_off", "time": 53, "note": 67, "velocity": 92, "channel": 0}, {"type": "note_on", "time": 17, "note": 64, "velocity": 100, "channel": 0}, {"type": "note_off", "time": 91, "note": 64, "velocity": 100, "channel": 0}, {"type": "note_on", "time": 136, "note": 69, "velocity": 9, "channel": 0}, {"type": "note_off", "time": 118, "note": 69, "velocity": 9, "channel": 0}, {"type": "note_on", "time": 51, "note": 60, "velocity": 86, "channel": 0}, {"type": "note_off", "time": 69, "note": 60, "velocity": 86, "channel": 0}, {"type": "note_on", "time": 61, "note": 67, "velocity": 98, "channel": 0}, {"type": "note_off", "time": 59, "note": 67, "velocity": 98, "channel": 0}, {"type": "note_on", "time": 3, "note": 66, "velocity": 98, "channel": 0}, {"type": "note_off", "time": 77, "note": 66, "velocity": 98, "channel": 0}, {"type": "note_on", "time": 41, "note": 65, "velocity": 105, "channel": 0}, {"type": "note_off", "time": 67, "note": 65, "velocity": 105, "channel": 0}, {"type": "note_on", "time": 17, "note": 64, "velocity": 103, "channel": 0}, {"type": "note_off", "time": 96, "note": 64, "velocity": 103, "channel": 0}, {"type": "note_on", "time": 61, "note": 62, "velocity": 96, "channel": 0}, {"type": "note_off", "time": 51, "note": 62, "velocity": 96, "channel": 0}, {"type": "note_on", "time": 23, "note": 63, "velocity": 95, "channel": 0}, {"type": "note_off", "time": 75, "note": 63, "velocity": 95, "channel": 0}, {"type": "note_on", "time": 41, "note": 70, "velocity": 101, "channel": 0}, {"type": "note_off", "time": 136, "note": 70, "velocity": 101, "channel": 0}, {"type": "note_on", "time": 31, "note": 68, "velocity": 101, "channel": 0}, {"type": "note_off", "time": 57, "note": 68, "velocity": 101, "channel": 0}, {"type": "note_on", "time": 338, "note": 58, "velocity": 99, "channel": 0}, {"type": "note_off", "time": 67, "note": 58, "velocity": 99, "channel": 0}, {"type": "note_on", "time": 19, "note": 62, "velocity": 97, "channel": 0}, {"type": "note_off", "time": 67, "note": 62, "velocity": 97, "channel": 0}, {"type": "note_on", "time": 13, "note": 65, "velocity": 89, "channel": 0}, {"type": "note_off", "time": 61, "note": 65, "velocity": 89, "channel": 0}, {"type": "note_on", "time": 33, "note": 69, "velocity": 105, "channel": 0}, {"type": "note_off", "time": 108, "note": 69, "velocity": 105, "channel": 0}, {"type": "note_on", "time": 23, "note": 67, "velocity": 100, "channel": 0}, {"type": "note_off", "time": 73, "note": 67, "velocity": 100, "channel": 0}, {"type": "note_on", "time": 484, "note": 67, "velocity": 112, "channel": 0}, {"type": "note_off", "time": 69, "note": 67, "velocity": 112, "channel": 0}, {"type": "note_on", "time": 23, "note": 65, "velocity": 104, "channel": 0}, {"type": "note_off", "time": 83, "note": 65, "velocity": 104, "channel": 0}, {"type": "note_on", "time": 221, "note": 65, "velocity": 110, "channel": 0}, {"type": "note_off", "time": 73, "note": 65, "velocity": 110, "channel": 0}, {"type": "note_on", "time": 9, "note": 64, "velocity": 108, "channel": 0}, {"type": "note_off", "time": 67, "note": 64, "velocity": 108, "channel": 0}, {"type": "note_on", "time": 215, "note": 65, "velocity": 105, "channel": 0}, {"type": "note_off", "time": 39, "note": 65, "velocity": 105, "channel": 0}, {"type": "note_on", "time": 17, "note": 64, "velocity": 109, "channel": 0}, {"type": "note_off", "time": 79, "note": 64, "velocity": 109, "channel": 0}, {"type": "note_on", "time": 11, "note": 62, "velocity": 86, "channel": 0}, {"type": "note_off", "time": 51, "note": 62, "velocity": 86, "channel": 0}, {"type": "note_on", "time": 205, "note": 64, "velocity": 109, "channel": 0}, {"type": "note_off", "time": 41, "note": 64, "velocity": 109, "channel": 0}, {"type": "note_on", "time": 13, "note": 62, "velocity": 103, "channel": 0}, {"type": "note_off", "time": 45, "note": 62, "velocity": 103, "channel": 0}, {"type": "note_on", "time": 9, "note": 60, "velocity": 85, "channel": 0}, {"type": "note_off", "time": 69, "note": 60, "velocity": 85, "channel": 0}, {"type": "note_on", "time": 478, "note": 58, "velocity": 102, "channel": 0}, {"type": "note_off", "time": 375, "note": 58, "velocity": 102, "channel": 0}, {"type": "note_on", "time": 28, "note": 55, "velocity": 85, "channel": 0}, {"type": "note_off", "time": 104, "note": 55, "velocity": 85, "channel": 0}, {"type": "note_on", "time": 26, "note": 56, "velocity": 106, "channel": 0}, {"type": "note_off", "time": 61, "note": 56, "velocity": 106, "channel": 0}, {"type": "note_on", "time": 9, "note": 57, "velocity": 94, "channel": 0}, {"type": "note_off", "time": 160, "note": 57, "velocity": 94, "channel": 0}, {"type": "note_on", "time": 11, "note": 60, "velocity": 107, "channel": 0}, {"type": "note_off", "time": 77, "note": 60, "velocity": 107, "channel": 0}, {"type": "note_on", "time": 119, "note": 56, "velocity": 91, "channel": 0}, {"type": "note_off", "time": 74, "note": 56, "velocity": 91, "channel": 0}, {"type": "note_on", "time": 12, "note": 57, "velocity": 96, "channel": 0}, {"type": "note_off", "time": 186, "note": 57, "velocity": 96, "channel": 0}, {"type": "note_on", "time": 871, "note": 73, "velocity": 100, "channel": 0}, {"type": "note_off", "time": 81, "note": 73, "velocity": 100, "channel": 0}, {"type": "note_on", "time": 11, "note": 72, "velocity": 90, "channel": 0}, {"type": "note_off", "time": 61, "note": 72, "velocity": 90, "channel": 0}, {"type": "note_on", "time": 14, "note": 71, "velocity": 93, "channel": 0}, {"type": "note_off", "time": 64, "note": 71, "velocity": 93, "channel": 0}, {"type": "note_on", "time": 22, "note": 70, "velocity": 93, "channel": 0}, {"type": "note_off", "time": 75, "note": 70, "velocity": 93, "channel": 0}, {"type": "note_on", "time": 8, "note": 69, "velocity": 106, "channel": 0}, {"type": "note_off", "time": 81, "note": 69, "velocity": 106, "channel": 0}, {"type": "note_on", "time": 19, "note": 68, "velocity": 96, "channel": 0}, {"type": "note_off", "time": 70, "note": 68, "velocity": 96, "channel": 0}, {"type": "note_on", "time": 16, "note": 67, "velocity": 104, "channel": 0}, {"type": "note_off", "time": 64, "note": 67, "velocity": 104, "channel": 0}, {"type": "note_on", "time": 14, "note": 66, "velocity": 99, "channel": 0}, {"type": "note_off", "time": 78, "note": 66, "velocity": 99, "channel": 0}, {"type": "note_on", "time": 25, "note": 65, "velocity": 101, "channel": 0}, {"type": "note_off", "time": 137, "note": 65, "velocity": 101, "channel": 0}, {"type": "note_on", "time": 5, "note": 64, "velocity": 102, "channel": 0}, {"type": "note_off", "time": 80, "note": 64, "velocity": 102, "channel": 0}, {"type": "note_on", "time": 29, "note": 62, "velocity": 100, "channel": 0}, {"type": "note_off", "time": 59, "note": 62, "velocity": 100, "channel": 0}, {"type": "note_on", "time": 11, "note": 60, "velocity": 95, "channel": 0}, {"type": "note_off", "time": 95, "note": 60, "velocity": 95, "channel": 0}, {"type": "note_on", "time": 7, "note": 59, "velocity": 99, "channel": 0}, {"type": "note_off", "time": 95, "note": 59, "velocity": 99, "channel": 0}, {"type": "note_on", "time": 14, "note": 58, "velocity": 102, "channel": 0}, {"type": "note_off", "time": 95, "note": 58, "velocity": 102, "channel": 0}, {"type": "note_on", "time": 25, "note": 57, "velocity": 96, "channel": 0}, {"type": "note_off", "time": 83, "note": 57, "velocity": 96, "channel": 0}, {"type": "note_on", "time": 18, "note": 56, "velocity": 93, "channel": 0}, {"type": "note_off", "time": 54, "note": 56, "velocity": 93, "channel": 0}, {"type": "note_on", "time": 19, "note": 55, "velocity": 90, "channel": 0}, {"type": "note_off", "time": 84, "note": 55, "velocity": 90, "channel": 0}, {"type": "note_on", "time": 22, "note": 54, "velocity": 90, "channel": 0}, {"type": "note_off", "time": 97, "note": 54, "velocity": 90, "channel": 0}, {"type": "note_on", "time": 9, "note": 53, "velocity": 92, "channel": 0}, {"type": "note_off", "time": 61, "note": 53, "velocity": 92, "channel": 0}, {"type": "note_on", "time": 40, "note": 58, "velocity": 93, "channel": 0}, {"type": "note_off", "time": 63, "note": 58, "velocity": 93, "channel": 0}, {"type": "note_on", "time": 4, "note": 59, "velocity": 98, "channel": 0}, {"type": "note_off", "time": 88, "note": 59, "velocity": 98, "channel": 0}, {"type": "note_on", "time": 9, "note": 54, "velocity": 95, "channel": 0}, {"type": "note_off", "time": 90, "note": 54, "velocity": 95, "channel": 0}, {"type": "note_on", "time": 14, "note": 53, "velocity": 89, "channel": 0}, {"type": "note_off", "time": 64, "note": 53, "velocity": 89, "channel": 0}, {"type": "note_on", "time": 19, "note": 51, "velocity": 86, "channel": 0}, {"type": "note_off", "time": 73, "note": 51, "velocity": 86, "channel": 0}, {"type": "note_on", "time": 23, "note": 52, "velocity": 92, "channel": 0}, {"type": "note_off", "time": 157, "note": 52, "velocity": 92, "channel": 0}, {"type": "note_on", "time": 430, "note": 62, "velocity": 99, "channel": 0}, {"type": "note_off", "time": 111, "note": 62, "velocity": 99, "channel": 0}, {"type": "note_on", "time": 16, "note": 61, "velocity": 92, "channel": 0}, {"type": "note_off", "time": 71, "note": 61, "velocity": 92, "channel": 0}, {"type": "note_on", "time": 5, "note": 60, "velocity": 89, "channel": 0}, {"type": "note_off", "time": 97, "note": 60, "velocity": 89, "channel": 0}, {"type": "note_on", "time": 106, "note": 59, "velocity": 95, "channel": 0}, {"type": "note_off", "time": 87, "note": 59, "velocity": 95, "channel": 0}, {"type": "note_on", "time": 98, "note": 56, "velocity": 87, "channel": 0}, {"type": "note_off", "time": 98, "note": 56, "velocity": 87, "channel": 0}, {"type": "note_on", "time": 196, "note": 60, "velocity": 99, "channel": 0}, {"type": "note_off", "time": 98, "note": 60, "velocity": 99, "channel": 0}, {"type": "note_on", "time": 182, "note": 58, "velocity": 88, "channel": 0}, {"type": "note_off", "time": 61, "note": 58, "velocity": 88, "channel": 0}, {"type": "note_on", "time": 8, "note": 61, "velocity": 77, "channel": 0}, {"type": "note_off", "time": 59, "note": 61, "velocity": 77, "channel": 0}, {"type": "note_on", "time": 15, "note": 64, "velocity": 111, "channel": 0}, {"type": "note_off", "time": 99, "note": 64, "velocity": 111, "channel": 0}, {"type": "note_on", "time": 11, "note": 61, "velocity": 97, "channel": 0}, {"type": "note_off", "time": 73, "note": 61, "velocity": 97, "channel": 0}, {"type": "note_on", "time": 7, "note": 62, "velocity": 95, "channel": 0}, {"type": "note_off", "time": 59, "note": 62, "velocity": 95, "channel": 0}, {"type": "note_on", "time": 53, "note": 68, "velocity": 107, "channel": 0}, {"type": "note_off", "time": 67, "note": 68, "velocity": 107, "channel": 0}, {"type": "note_on", "time": 4, "note": 69, "velocity": 109, "channel": 0}, {"type": "note_off", "time": 208, "note": 69, "velocity": 109, "channel": 0}, {"type": "note_on", "time": 1, "note": 67, "velocity": 101, "channel": 0}, {"type": "note_off", "time": 71, "note": 67, "velocity": 101, "channel": 0}, {"type": "note_on", "time": 133, "note": 62, "velocity": 87, "channel": 0}, {"type": "note_off", "time": 278, "note": 62, "velocity": 87, "channel": 0}, {"type": "note_on", "time": 469, "note": 62, "velocity": 104, "channel": 0}, {"type": "note_off", "time": 115, "note": 62, "velocity": 104, "channel": 0}, {"type": "note_on", "time": 16, "note": 59, "velocity": 90, "channel": 0}, {"type": "note_off", "time": 59, "note": 59, "velocity": 90, "channel": 0}, {"type": "note_on", "time": 0, "note": 64, "velocity": 106, "channel": 0}, {"type": "note_off", "time": 177, "note": 64, "velocity": 106, "channel": 0}, {"type": "note_on", "time": 7, "note": 65, "velocity": 98, "channel": 0}, {"type": "note_off", "time": 116, "note": 65, "velocity": 98, "channel": 0}, {"type": "note_on", "time": 25, "note": 67, "velocity": 102, "channel": 0}, {"type": "note_off", "time": 135, "note": 67, "velocity": 102, "channel": 0}, {"type": "note_on", "time": 0, "note": 60, "velocity": 96, "channel": 0}, {"type": "note_off", "time": 98, "note": 60, "velocity": 96, "channel": 0}, {"type": "note_on", "time": 51, "note": 60, "velocity": 87, "channel": 0}, {"type": "note_off", "time": 267, "note": 60, "velocity": 87, "channel": 0}, {"type": "note_on", "time": 81, "note": 65, "velocity": 107, "channel": 0}, {"type": "note_off", "time": 52, "note": 65, "velocity": 107, "channel": 0}, {"type": "note_on", "time": 50, "note": 69, "velocity": 105, "channel": 0}, {"type": "note_off", "time": 170, "note": 69, "velocity": 105, "channel": 0}, {"type": "note_on", "time": 90, "note": 59, "velocity": 92, "channel": 0}, {"type": "note_off", "time": 281, "note": 59, "velocity": 92, "channel": 0}, {"type": "note_on", "time": 232, "note": 60, "velocity": 102, "channel": 0}, {"type": "note_off", "time": 97, "note": 60, "velocity": 102, "channel": 0}, {"type": "note_on", "time": 21, "note": 65, "velocity": 93, "channel": 0}, {"type": "note_off", "time": 45, "note": 65, "velocity": 93, "channel": 0}, {"type": "note_on", "time": 21, "note": 69, "velocity": 110, "channel": 0}, {"type": "note_off", "time": 95, "note": 69, "velocity": 110, "channel": 0}, {"type": "note_on", "time": 0, "note": 70, "velocity": 99, "channel": 0}, {"type": "note_off", "time": 92, "note": 70, "velocity": 99, "channel": 0}, {"type": "note_on", "time": 7, "note": 69, "velocity": 104, "channel": 0}, {"type": "note_off", "time": 108, "note": 69, "velocity": 104, "channel": 0}, {"type": "note_on", "time": 19, "note": 65, "velocity": 87, "channel": 0}, {"type": "note_off", "time": 56, "note": 65, "velocity": 87, "channel": 0}, {"type": "note_on", "time": 22, "note": 60, "velocity": 78, "channel": 0}, {"type": "note_off", "time": 78, "note": 60, "velocity": 78, "channel": 0}, {"type": "note_on", "time": 142, "note": 69, "velocity": 112, "channel": 0}, {"type": "note_off", "time": 90, "note": 69, "velocity": 112, "channel": 0}, {"type": "note_on", "time": 5, "note": 70, "velocity": 106, "channel": 0}, {"type": "note_off", "time": 95, "note": 70, "velocity": 106, "channel": 0}, {"type": "note_on", "time": 2, "note": 69, "velocity": 105, "channel": 0}, {"type": "note_off", "time": 88, "note": 69, "velocity": 105, "channel": 0}, {"type": "note_on", "time": 8, "note": 65, "velocity": 95, "channel": 0}, {"type": "note_off", "time": 68, "note": 65, "velocity": 95, "channel": 0}, {"type": "note_on", "time": 9, "note": 60, "velocity": 90, "channel": 0}, {"type": "note_off", "time": 63, "note": 60, "velocity": 90, "channel": 0}, {"type": "note_on", "time": 97, "note": 65, "velocity": 102, "channel": 0}, {"type": "note_off", "time": 39, "note": 65, "velocity": 102, "channel": 0}, {"type": "note_on", "time": 2, "note": 69, "velocity": 108, "channel": 0}, {"type": "note_off", "time": 92, "note": 69, "velocity": 108, "channel": 0}, {"type": "note_on", "time": 11, "note": 70, "velocity": 107, "channel": 0}, {"type": "note_off", "time": 71, "note": 70, "velocity": 107, "channel": 0}, {"type": "note_on", "time": 8, "note": 69, "velocity": 109, "channel": 0}, {"type": "note_off", "time": 90, "note": 69, "velocity": 109, "channel": 0}, {"type": "note_on", "time": 25, "note": 65, "velocity": 93, "channel": 0}, {"type": "note_off", "time": 87, "note": 65, "velocity": 93, "channel": 0}, {"type": "note_on", "time": 12, "note": 60, "velocity": 90, "channel": 0}, {"type": "note_off", "time": 52, "note": 60, "velocity": 90, "channel": 0}, {"type": "note_on", "time": 46, "note": 65, "velocity": 97, "channel": 0}, {"type": "note_off", "time": 73, "note": 65, "velocity": 97, "channel": 0}, {"type": "note_on", "time": 15, "note": 69, "velocity": 109, "channel": 0}, {"type": "note_off", "time": 254, "note": 69, "velocity": 109, "channel": 0}, {"type": "note_on", "time": 12, "note": 70, "velocity": 102, "channel": 0}, {"type": "note_off", "time": 99, "note": 70, "velocity": 102, "channel": 0}, {"type": "note_on", "time": 15, "note": 69, "velocity": 106, "channel": 0}, {"type": "note_off", "time": 80, "note": 69, "velocity": 106, "channel": 0}, {"type": "note_on", "time": 15, "note": 65, "velocity": 103, "channel": 0}, {"type": "note_off", "time": 70, "note": 65, "velocity": 103, "channel": 0}, {"type": "note_on", "time": 7, "note": 60, "velocity": 100, "channel": 0}, {"type": "note_off", "time": 54, "note": 60, "velocity": 100, "channel": 0}, {"type": "note_on", "time": 32, "note": 65, "velocity": 99, "channel": 0}, {"type": "note_off", "time": 64, "note": 65, "velocity": 99, "channel": 0}, {"type": "note_on", "time": 5, "note": 69, "velocity": 104, "channel": 0}, {"type": "note_off", "time": 139, "note": 69, "velocity": 104, "channel": 0}, {"type": "note_on", "time": 4, "note": 70, "velocity": 101, "channel": 0}, {"type": "note_off", "time": 63, "note": 70, "velocity": 101, "channel": 0}, {"type": "note_on", "time": 11, "note": 69, "velocity": 103, "channel": 0}, {"type": "note_off", "time": 75, "note": 69, "velocity": 103, "channel": 0}, {"type": "note_on", "time": 23, "note": 65, "velocity": 108, "channel": 0}, {"type": "note_off", "time": 64, "note": 65, "velocity": 108, "channel": 0}, {"type": "note_on", "time": 33, "note": 60, "velocity": 99, "channel": 0}, {"type": "note_off", "time": 54, "note": 60, "velocity": 99, "channel": 0}, {"type": "note_on", "time": 35, "note": 65, "velocity": 89, "channel": 0}, {"type": "note_off", "time": 42, "note": 65, "velocity": 89, "channel": 0}, {"type": "note_on", "time": 28, "note": 69, "velocity": 107, "channel": 0}, {"type": "note_off", "time": 745, "note": 69, "velocity": 107, "channel": 0}, {"type": "note_on", "time": 30, "note": 70, "velocity": 103, "channel": 0}, {"type": "note_off", "time": 87, "note": 70, "velocity": 103, "channel": 0}, {"type": "note_on", "time": 15, "note": 69, "velocity": 108, "channel": 0}, {"type": "note_off", "time": 79, "note": 69, "velocity": 108, "channel": 0}, {"type": "note_on", "time": 17, "note": 65, "velocity": 96, "channel": 0}, {"type": "note_off", "time": 118, "note": 65, "velocity": 96, "channel": 0}, {"type": "note_on", "time": 27, "note": 62, "velocity": 93, "channel": 0}, {"type": "note_off", "time": 79, "note": 62, "velocity": 93, "channel": 0}, {"type": "note_on", "time": 21, "note": 69, "velocity": 111, "channel": 0}, {"type": "note_off", "time": 106, "note": 69, "velocity": 111, "channel": 0}, {"type": "note_on", "time": 13, "note": 70, "velocity": 100, "channel": 0}, {"type": "note_off", "time": 77, "note": 70, "velocity": 100, "channel": 0}, {"type": "note_on", "time": 21, "note": 69, "velocity": 110, "channel": 0}, {"type": "note_off", "time": 91, "note": 69, "velocity": 110, "channel": 0}, {"type": "note_on", "time": 25, "note": 65, "velocity": 105, "channel": 0}, {"type": "note_off", "time": 91, "note": 65, "velocity": 105, "channel": 0}, {"type": "note_on", "time": 9, "note": 62, "velocity": 90, "channel": 0}, {"type": "note_off", "time": 63, "note": 62, "velocity": 90, "channel": 0}, {"type": "note_on", "time": 98, "note": 69, "velocity": 110, "channel": 0}, {"type": "note_off", "time": 110, "note": 69, "velocity": 110, "channel": 0}, {"type": "note_on", "time": 13, "note": 70, "velocity": 93, "channel": 0}, {"type": "note_off", "time": 55, "note": 70, "velocity": 93, "channel": 0}, {"type": "note_on", "time": 19, "note": 69, "velocity": 105, "channel": 0}, {"type": "note_off", "time": 116, "note": 69, "velocity": 105, "channel": 0}, {"type": "note_on", "time": 550, "note": 62, "velocity": 113, "channel": 0}, {"type": "note_off", "time": 56, "note": 62, "velocity": 113, "channel": 0}, {"type": "note_on", "time": 0, "note": 65, "velocity": 108, "channel": 0}, {"type": "note_off", "time": 40, "note": 65, "velocity": 108, "channel": 0}, {"type": "note_on", "time": 0, "note": 68, "velocity": 100, "channel": 0}, {"type": "note_off", "time": 33, "note": 68, "velocity": 100, "channel": 0}, {"type": "note_on", "time": 14, "note": 69, "velocity": 113, "channel": 0}, {"type": "note_off", "time": 47, "note": 69, "velocity": 113, "channel": 0}, {"type": "note_on", "time": 2, "note": 74, "velocity": 111, "channel": 0}, {"type": "note_off", "time": 75, "note": 74, "velocity": 111, "channel": 0}, {"type": "note_on", "time": 13, "note": 71, "velocity": 117, "channel": 0}, {"type": "note_off", "time": 69, "note": 71, "velocity": 117, "channel": 0}, {"type": "note_on", "time": 4, "note": 69, "velocity": 116, "channel": 0}, {"type": "note_off", "time": 70, "note": 69, "velocity": 116, "channel": 0}, {"type": "note_on", "time": 3, "note": 67, "velocity": 110, "channel": 0}, {"type": "note_off", "time": 21, "note": 67, "velocity": 110, "channel": 0}, {"type": "note_on", "time": 13, "note": 65, "velocity": 103, "channel": 0}, {"type": "note_off", "time": 28, "note": 65, "velocity": 103, "channel": 0}, {"type": "note_on", "time": 8, "note": 64, "velocity": 103, "channel": 0}, {"type": "note_off", "time": 93, "note": 64, "velocity": 103, "channel": 0}, {"type": "note_on", "time": 14, "note": 68, "velocity": 92, "channel": 0}, {"type": "note_off", "time": 49, "note": 68, "velocity": 92, "channel": 0}, {"type": "note_on", "time": 10, "note": 71, "velocity": 106, "channel": 0}, {"type": "note_off", "time": 96, "note": 71, "velocity": 106, "channel": 0}, {"type": "note_on", "time": 0, "note": 69, "velocity": 109, "channel": 0}, {"type": "note_off", "time": 32, "note": 69, "velocity": 109, "channel": 0}, {"type": "note_on", "time": 14, "note": 68, "velocity": 99, "channel": 0}, {"type": "note_off", "time": 74, "note": 68, "velocity": 99, "channel": 0}, {"type": "note_on", "time": 12, "note": 63, "velocity": 96, "channel": 0}, {"type": "note_off", "time": 35, "note": 63, "velocity": 96, "channel": 0}, {"type": "note_on", "time": 7, "note": 62, "velocity": 98, "channel": 0}, {"type": "note_off", "time": 35, "note": 62, "velocity": 98, "channel": 0}, {"type": "note_on", "time": 15, "note": 61, "velocity": 99, "channel": 0}, {"type": "note_off", "time": 43, "note": 61, "velocity": 99, "channel": 0}, {"type": "note_on", "time": 0, "note": 59, "velocity": 100, "channel": 0}, {"type": "note_off", "time": 67, "note": 59, "velocity": 100, "channel": 0}, {"type": "note_on", "time": 15, "note": 56, "velocity": 96, "channel": 0}, {"type": "note_off", "time": 44, "note": 56, "velocity": 96, "channel": 0}, {"type": "note_on", "time": 2, "note": 54, "velocity": 88, "channel": 0}, {"type": "note_off", "time": 39, "note": 54, "velocity": 88, "channel": 0}, {"type": "note_on", "time": 7, "note": 53, "velocity": 87, "channel": 0}, {"type": "note_off", "time": 38, "note": 53, "velocity": 87, "channel": 0}, {"type": "note_on", "time": 0, "note": 52, "velocity": 85, "channel": 0}, {"type": "note_off", "time": 60, "note": 52, "velocity": 85, "channel": 0}, {"type": "note_on", "time": 453, "note": 67, "velocity": 106, "channel": 0}, {"type": "note_off", "time": 55, "note": 67, "velocity": 106, "channel": 0}, {"type": "note_on", "time": 0, "note": 68, "velocity": 107, "channel": 0}, {"type": "note_off", "time": 33, "note": 68, "velocity": 107, "channel": 0}, {"type": "note_on", "time": 4, "note": 69, "velocity": 110, "channel": 0}, {"type": "note_off", "time": 42, "note": 69, "velocity": 110, "channel": 0}, {"type": "note_on", "time": 6, "note": 71, "velocity": 110, "channel": 0}, {"type": "note_off", "time": 64, "note": 71, "velocity": 110, "channel": 0}, {"type": "note_on", "time": 38, "note": 75, "velocity": 102, "channel": 0}, {"type": "note_off", "time": 78, "note": 75, "velocity": 102, "channel": 0}, {"type": "note_on", "time": 9, "note": 72, "velocity": 105, "channel": 0}, {"type": "note_off", "time": 34, "note": 72, "velocity": 105, "channel": 0}, {"type": "note_on", "time": 3, "note": 73, "velocity": 107, "channel": 0}, {"type": "note_off", "time": 51, "note": 73, "velocity": 107, "channel": 0}, {"type": "note_on", "time": 7, "note": 71, "velocity": 109, "channel": 0}, {"type": "note_off", "time": 46, "note": 71, "velocity": 109, "channel": 0}, {"type": "note_on", "time": 8, "note": 70, "velocity": 106, "channel": 0}, {"type": "note_off", "time": 78, "note": 70, "velocity": 106, "channel": 0}, {"type": "note_on", "time": 2, "note": 71, "velocity": 103, "channel": 0}, {"type": "note_on", "time": 50, "note": 69, "velocity": 97, "channel": 0}, {"type": "note_off", "time": 0, "note": 71, "velocity": 103, "channel": 0}, {"type": "note_off", "time": 48, "note": 69, "velocity": 97, "channel": 0}, {"type": "note_on", "time": 36, "note": 67, "velocity": 99, "channel": 0}, {"type": "note_off", "time": 45, "note": 67, "velocity": 99, "channel": 0}, {"type": "note_on", "time": 12, "note": 69, "velocity": 107, "channel": 0}, {"type": "note_off", "time": 27, "note": 69, "velocity": 107, "channel": 0}, {"type": "note_on", "time": 16, "note": 72, "velocity": 110, "channel": 0}, {"type": "note_off", "time": 64, "note": 72, "velocity": 110, "channel": 0}, {"type": "note_on", "time": 16, "note": 72, "velocity": 107, "channel": 0}, {"type": "note_off", "time": 56, "note": 72, "velocity": 107, "channel": 0}, {"type": "note_on", "time": 6, "note": 70, "velocity": 103, "channel": 0}, {"type": "note_off", "time": 31, "note": 70, "velocity": 103, "channel": 0}, {"type": "note_on", "time": 10, "note": 69, "velocity": 105, "channel": 0}, {"type": "note_off", "time": 35, "note": 69, "velocity": 105, "channel": 0}, {"type": "note_on", "time": 1, "note": 67, "velocity": 104, "channel": 0}, {"type": "note_off", "time": 59, "note": 67, "velocity": 104, "channel": 0}, {"type": "note_on", "time": 6, "note": 66, "velocity": 106, "channel": 0}, {"type": "note_off", "time": 92, "note": 66, "velocity": 106, "channel": 0}, {"type": "note_on", "time": 3, "note": 67, "velocity": 101, "channel": 0}, {"type": "note_off", "time": 68, "note": 67, "velocity": 101, "channel": 0}, {"type": "note_on", "time": 10, "note": 70, "velocity": 99, "channel": 0}, {"type": "note_off", "time": 56, "note": 70, "velocity": 99, "channel": 0}, {"type": "note_on", "time": 15, "note": 66, "velocity": 104, "channel": 0}, {"type": "note_off", "time": 41, "note": 66, "velocity": 104, "channel": 0}, {"type": "note_on", "time": 8, "note": 65, "velocity": 101, "channel": 0}, {"type": "note_off", "time": 46, "note": 65, "velocity": 101, "channel": 0}, {"type": "note_on", "time": 2, "note": 64, "velocity": 108, "channel": 0}, {"type": "note_off", "time": 37, "note": 64, "velocity": 108, "channel": 0}, {"type": "note_on", "time": 12, "note": 65, "velocity": 100, "channel": 0}, {"type": "note_off", "time": 41, "note": 65, "velocity": 100, "channel": 0}, {"type": "note_on", "time": 2, "note": 67, "velocity": 104, "channel": 0}, {"type": "note_off", "time": 38, "note": 67, "velocity": 104, "channel": 0}, {"type": "note_on", "time": 8, "note": 69, "velocity": 109, "channel": 0}, {"type": "note_off", "time": 47, "note": 69, "velocity": 109, "channel": 0}, {"type": "note_on", "time": 0, "note": 65, "velocity": 99, "channel": 0}, {"type": "note_off", "time": 19, "note": 65, "velocity": 99, "channel": 0}, {"type": "note_on", "time": 13, "note": 64, "velocity": 97, "channel": 0}, {"type": "note_off", "time": 27, "note": 64, "velocity": 97, "channel": 0}, {"type": "note_on", "time": 16, "note": 63, "velocity": 95, "channel": 0}, {"type": "note_off", "time": 31, "note": 63, "velocity": 95, "channel": 0}, {"type": "note_on", "time": 2, "note": 64, "velocity": 102, "channel": 0}, {"type": "note_off", "time": 36, "note": 64, "velocity": 102, "channel": 0}, {"type": "note_on", "time": 7, "note": 67, "velocity": 102, "channel": 0}, {"type": "note_off", "time": 94, "note": 67, "velocity": 102, "channel": 0}, {"type": "note_on", "time": 14, "note": 71, "velocity": 102, "channel": 0}, {"type": "note_off", "time": 67, "note": 71, "velocity": 102, "channel": 0}, {"type": "note_on", "time": 0, "note": 66, "velocity": 105, "channel": 0}, {"type": "note_off", "time": 78, "note": 66, "velocity": 105, "channel": 0}, {"type": "note_on", "time": 4, "note": 65, "velocity": 106, "channel": 0}, {"type": "note_off", "time": 62, "note": 65, "velocity": 106, "channel": 0}, {"type": "note_on", "time": 3, "note": 61, "velocity": 102, "channel": 0}, {"type": "note_off", "time": 60, "note": 61, "velocity": 102, "channel": 0}, {"type": "note_on", "time": 30, "note": 58, "velocity": 101, "channel": 0}, {"type": "note_off", "time": 68, "note": 58, "velocity": 101, "channel": 0}, {"type": "note_on", "time": 5, "note": 57, "velocity": 102, "channel": 0}, {"type": "note_off", "time": 25, "note": 57, "velocity": 102, "channel": 0}, {"type": "note_on", "time": 22, "note": 56, "velocity": 93, "channel": 0}, {"type": "note_off", "time": 81, "note": 56, "velocity": 93, "channel": 0}, {"type": "note_on", "time": 20, "note": 58, "velocity": 98, "channel": 0}, {"type": "note_off", "time": 61, "note": 58, "velocity": 98, "channel": 0}, {"type": "note_on", "time": 0, "note": 64, "velocity": 103, "channel": 0}, {"type": "note_off", "time": 45, "note": 64, "velocity": 103, "channel": 0}, {"type": "note_on", "time": 6, "note": 62, "velocity": 109, "channel": 0}, {"type": "note_off", "time": 60, "note": 62, "velocity": 109, "channel": 0}, {"type": "note_on", "time": 2, "note": 61, "velocity": 103, "channel": 0}, {"type": "note_off", "time": 59, "note": 61, "velocity": 103, "channel": 0}, {"type": "note_on", "time": 41, "note": 55, "velocity": 95, "channel": 0}, {"type": "note_off", "time": 52, "note": 55, "velocity": 95, "channel": 0}, {"type": "note_on", "time": 8, "note": 53, "velocity": 97, "channel": 0}, {"type": "note_off", "time": 46, "note": 53, "velocity": 97, "channel": 0}, {"type": "note_on", "time": 1, "note": 51, "velocity": 98, "channel": 0}, {"type": "note_off", "time": 49, "note": 51, "velocity": 98, "channel": 0}, {"type": "note_on", "time": 5, "note": 49, "velocity": 99, "channel": 0}, {"type": "note_off", "time": 70, "note": 49, "velocity": 99, "channel": 0}, {"type": "note_on", "time": 146, "note": 48, "velocity": 101, "channel": 0}, {"type": "note_off", "time": 112, "note": 48, "velocity": 101, "channel": 0}, {"type": "note_on", "time": 29, "note": 46, "velocity": 111, "channel": 0}, {"type": "note_off", "time": 78, "note": 46, "velocity": 111, "channel": 0}, {"type": "note_on", "time": 6, "note": 44, "velocity": 105, "channel": 0}, {"type": "note_off", "time": 224, "note": 44, "velocity": 105, "channel": 0}, {"type": "note_on", "time": 482, "note": 44, "velocity": 106, "channel": 0}, {"type": "note_off", "time": 63, "note": 44, "velocity": 106, "channel": 0}, {"type": "note_on", "time": 5, "note": 51, "velocity": 100, "channel": 0}, {"type": "note_off", "time": 67, "note": 51, "velocity": 100, "channel": 0}, {"type": "note_on", "time": 12, "note": 46, "velocity": 107, "channel": 0}, {"type": "note_off", "time": 80, "note": 46, "velocity": 107, "channel": 0}, {"type": "note_on", "time": 7, "note": 50, "velocity": 105, "channel": 0}, {"type": "note_off", "time": 73, "note": 50, "velocity": 105, "channel": 0}, {"type": "note_on", "time": 4, "note": 46, "velocity": 114, "channel": 0}, {"type": "note_off", "time": 43, "note": 46, "velocity": 114, "channel": 0}, {"type": "note_on", "time": 9, "note": 45, "velocity": 110, "channel": 0}, {"type": "note_off", "time": 86, "note": 45, "velocity": 110, "channel": 0}, {"type": "note_on", "time": 6, "note": 50, "velocity": 106, "channel": 0}, {"type": "note_off", "time": 32, "note": 50, "velocity": 106, "channel": 0}, {"type": "note_on", "time": 3, "note": 54, "velocity": 106, "channel": 0}, {"type": "note_off", "time": 81, "note": 54, "velocity": 106, "channel": 0}, {"type": "note_on", "time": 1, "note": 53, "velocity": 104, "channel": 0}, {"type": "note_off", "time": 93, "note": 53, "velocity": 104, "channel": 0}, {"type": "note_on", "time": 4, "note": 52, "velocity": 100, "channel": 0}, {"type": "note_off", "time": 28, "note": 52, "velocity": 100, "channel": 0}, {"type": "note_on", "time": 15, "note": 50, "velocity": 104, "channel": 0}, {"type": "note_off", "time": 24, "note": 50, "velocity": 104, "channel": 0}, {"type": "note_on", "time": 7, "note": 49, "velocity": 105, "channel": 0}, {"type": "note_off", "time": 52, "note": 49, "velocity": 105, "channel": 0}, {"type": "note_on", "time": 7, "note": 48, "velocity": 100, "channel": 0}, {"type": "note_off", "time": 67, "note": 48, "velocity": 100, "channel": 0}, {"type": "note_on", "time": 13, "note": 53, "velocity": 97, "channel": 0}, {"type": "note_off", "time": 23, "note": 53, "velocity": 97, "channel": 0}, {"type": "note_on", "time": 8, "note": 54, "velocity": 99, "channel": 0}, {"type": "note_off", "time": 28, "note": 54, "velocity": 99, "channel": 0}, {"type": "note_on", "time": 13, "note": 58, "velocity": 107, "channel": 0}, {"type": "note_off", "time": 73, "note": 58, "velocity": 107, "channel": 0}, {"type": "note_on", "time": 26, "note": 55, "velocity": 110, "channel": 0}, {"type": "note_off", "time": 48, "note": 55, "velocity": 110, "channel": 0}, {"type": "note_on", "time": 8, "note": 56, "velocity": 106, "channel": 0}, {"type": "note_off", "time": 54, "note": 56, "velocity": 106, "channel": 0}, {"type": "note_on", "time": 10, "note": 58, "velocity": 106, "channel": 0}, {"type": "note_off", "time": 71, "note": 58, "velocity": 106, "channel": 0}, {"type": "note_on", "time": 14, "note": 60, "velocity": 100, "channel": 0}, {"type": "note_off", "time": 73, "note": 60, "velocity": 100, "channel": 0}, {"type": "note_on", "time": 6, "note": 57, "velocity": 106, "channel": 0}, {"type": "note_off", "time": 55, "note": 57, "velocity": 106, "channel": 0}, {"type": "note_on", "time": 7, "note": 58, "velocity": 114, "channel": 0}, {"type": "note_off", "time": 70, "note": 58, "velocity": 114, "channel": 0}, {"type": "note_on", "time": 1, "note": 60, "velocity": 95, "channel": 0}, {"type": "note_off", "time": 46, "note": 60, "velocity": 95, "channel": 0}, {"type": "note_on", "time": 5, "note": 61, "velocity": 101, "channel": 0}, {"type": "note_off", "time": 50, "note": 61, "velocity": 101, "channel": 0}, {"type": "note_on", "time": 11, "note": 62, "velocity": 103, "channel": 0}, {"type": "note_off", "time": 42, "note": 62, "velocity": 103, "channel": 0}, {"type": "note_on", "time": 12, "note": 63, "velocity": 99, "channel": 0}, {"type": "note_off", "time": 76, "note": 63, "velocity": 99, "channel": 0}, {"type": "note_on", "time": 9, "note": 61, "velocity": 100, "channel": 0}, {"type": "note_off", "time": 60, "note": 61, "velocity": 100, "channel": 0}, {"type": "note_on", "time": 18, "note": 62, "velocity": 101, "channel": 0}, {"type": "note_off", "time": 56, "note": 62, "velocity": 101, "channel": 0}, {"type": "note_on", "time": 14, "note": 61, "velocity": 94, "channel": 0}, {"type": "note_off", "time": 80, "note": 61, "velocity": 94, "channel": 0}, {"type": "note_on", "time": 22, "note": 64, "velocity": 97, "channel": 0}, {"type": "note_off", "time": 35, "note": 64, "velocity": 97, "channel": 0}, {"type": "note_on", "time": 22, "note": 68, "velocity": 103, "channel": 0}, {"type": "note_off", "time": 34, "note": 68, "velocity": 103, "channel": 0}, {"type": "note_on", "time": 4, "note": 69, "velocity": 110, "channel": 0}, {"type": "note_off", "time": 55, "note": 69, "velocity": 110, "channel": 0}, {"type": "note_on", "time": 10, "note": 68, "velocity": 96, "channel": 0}, {"type": "note_off", "time": 40, "note": 68, "velocity": 96, "channel": 0}, {"type": "note_on", "time": 6, "note": 66, "velocity": 95, "channel": 0}, {"type": "note_off", "time": 59, "note": 66, "velocity": 95, "channel": 0}, {"type": "note_on", "time": 0, "note": 65, "velocity": 89, "channel": 0}, {"type": "note_off", "time": 44, "note": 65, "velocity": 89, "channel": 0}, {"type": "note_on", "time": 10, "note": 63, "velocity": 98, "channel": 0}, {"type": "note_off", "time": 55, "note": 63, "velocity": 98, "channel": 0}, {"type": "note_on", "time": 0, "note": 62, "velocity": 97, "channel": 0}, {"type": "note_off", "time": 75, "note": 62, "velocity": 97, "channel": 0}, {"type": "note_on", "time": 18, "note": 65, "velocity": 93, "channel": 0}, {"type": "note_off", "time": 35, "note": 65, "velocity": 93, "channel": 0}, {"type": "note_on", "time": 2, "note": 67, "velocity": 96, "channel": 0}, {"type": "note_off", "time": 48, "note": 67, "velocity": 96, "channel": 0}, {"type": "note_on", "time": 12, "note": 70, "velocity": 104, "channel": 0}, {"type": "note_off", "time": 31, "note": 70, "velocity": 104, "channel": 0}, {"type": "note_on", "time": 5, "note": 74, "velocity": 105, "channel": 0}, {"type": "note_off", "time": 63, "note": 74, "velocity": 105, "channel": 0}, {"type": "note_on", "time": 7, "note": 72, "velocity": 109, "channel": 0}, {"type": "note_off", "time": 116, "note": 72, "velocity": 109, "channel": 0}, {"type": "note_on", "time": 946, "note": 60, "velocity": 97, "channel": 0}, {"type": "note_off", "time": 46, "note": 60, "velocity": 97, "channel": 0}, {"type": "note_on", "time": 6, "note": 64, "velocity": 91, "channel": 0}, {"type": "note_off", "time": 29, "note": 64, "velocity": 91, "channel": 0}, {"type": "note_on", "time": 17, "note": 69, "velocity": 101, "channel": 0}, {"type": "note_off", "time": 46, "note": 69, "velocity": 101, "channel": 0}, {"type": "note_on", "time": 4, "note": 74, "velocity": 106, "channel": 0}, {"type": "note_off", "time": 62, "note": 74, "velocity": 106, "channel": 0}, {"type": "note_on", "time": 6, "note": 72, "velocity": 108, "channel": 0}, {"type": "note_off", "time": 64, "note": 72, "velocity": 108, "channel": 0}, {"type": "note_on", "time": 4, "note": 71, "velocity": 104, "channel": 0}, {"type": "note_off", "time": 35, "note": 71, "velocity": 104, "channel": 0}, {"type": "note_on", "time": 6, "note": 69, "velocity": 112, "channel": 0}, {"type": "note_off", "time": 70, "note": 69, "velocity": 112, "channel": 0}, {"type": "note_on", "time": 16, "note": 65, "velocity": 101, "channel": 0}, {"type": "note_off", "time": 118, "note": 65, "velocity": 101, "channel": 0}, {"type": "note_on", "time": 98, "note": 70, "velocity": 103, "channel": 0}, {"type": "note_off", "time": 78, "note": 70, "velocity": 103, "channel": 0}, {"type": "note_on", "time": 17, "note": 69, "velocity": 113, "channel": 0}, {"type": "note_off", "time": 70, "note": 69, "velocity": 113, "channel": 0}, {"type": "note_on", "time": 24, "note": 67, "velocity": 107, "channel": 0}, {"type": "note_off", "time": 83, "note": 67, "velocity": 107, "channel": 0}, {"type": "note_on", "time": 18, "note": 66, "velocity": 108, "channel": 0}, {"type": "note_off", "time": 98, "note": 66, "velocity": 108, "channel": 0}, {"type": "note_on", "time": 21, "note": 65, "velocity": 107, "channel": 0}, {"type": "note_off", "time": 94, "note": 65, "velocity": 107, "channel": 0}, {"type": "note_on", "time": 19, "note": 64, "velocity": 113, "channel": 0}, {"type": "note_off", "time": 76, "note": 64, "velocity": 113, "channel": 0}, {"type": "note_on", "time": 6, "note": 62, "velocity": 107, "channel": 0}, {"type": "note_off", "time": 69, "note": 62, "velocity": 107, "channel": 0}, {"type": "note_on", "time": 18, "note": 61, "velocity": 105, "channel": 0}, {"type": "note_off", "time": 71, "note": 61, "velocity": 105, "channel": 0}, {"type": "note_on", "time": 7, "note": 60, "velocity": 96, "channel": 0}, {"type": "note_off", "time": 111, "note": 60, "velocity": 96, "channel": 0}, {"type": "note_on", "time": 26, "note": 58, "velocity": 101, "channel": 0}, {"type": "note_off", "time": 79, "note": 58, "velocity": 101, "channel": 0}, {"type": "note_on", "time": 24, "note": 55, "velocity": 89, "channel": 0}, {"type": "note_off", "time": 67, "note": 55, "velocity": 89, "channel": 0}, {"type": "note_on", "time": 2, "note": 56, "velocity": 100, "channel": 0}, {"type": "note_off", "time": 62, "note": 56, "velocity": 100, "channel": 0}, {"type": "note_on", "time": 4, "note": 57, "velocity": 104, "channel": 0}, {"type": "note_off", "time": 93, "note": 57, "velocity": 104, "channel": 0}, {"type": "note_on", "time": 31, "note": 53, "velocity": 91, "channel": 0}, {"type": "note_off", "time": 69, "note": 53, "velocity": 91, "channel": 0}, {"type": "note_on", "time": 14, "note": 52, "velocity": 90, "channel": 0}, {"type": "note_off", "time": 99, "note": 52, "velocity": 90, "channel": 0}, {"type": "note_on", "time": 83, "note": 55, "velocity": 96, "channel": 0}, {"type": "note_off", "time": 89, "note": 55, "velocity": 96, "channel": 0}, {"type": "note_on", "time": 92, "note": 52, "velocity": 86, "channel": 0}, {"type": "note_off", "time": 89, "note": 52, "velocity": 86, "channel": 0}, {"type": "note_on", "time": 49, "note": 53, "velocity": 94, "channel": 0}, {"type": "note_off", "time": 101, "note": 53, "velocity": 94, "channel": 0}, {"type": "note_on", "time": 19, "note": 50, "velocity": 93, "channel": 0}, {"type": "note_off", "time": 84, "note": 50, "velocity": 93, "channel": 0}, {"type": "note_on", "time": 570, "note": 62, "velocity": 127, "channel": 0}, {"type": "note_off", "time": 86, "note": 62, "velocity": 127, "channel": 0}, {"type": "note_on", "time": 16, "note": 60, "velocity": 110, "channel": 0}, {"type": "note_off", "time": 67, "note": 60, "velocity": 110, "channel": 0}, {"type": "note_on", "time": 24, "note": 59, "velocity": 101, "channel": 0}, {"type": "note_off", "time": 72, "note": 59, "velocity": 101, "channel": 0}, {"type": "note_on", "time": 28, "note": 56, "velocity": 99, "channel": 0}, {"type": "note_off", "time": 95, "note": 56, "velocity": 99, "channel": 0}, {"type": "note_on", "time": 8, "note": 57, "velocity": 95, "channel": 0}, {"type": "note_off", "time": 88, "note": 57, "velocity": 95, "channel": 0}, {"type": "note_on", "time": 22, "note": 59, "velocity": 93, "channel": 0}, {"type": "note_off", "time": 45, "note": 59, "velocity": 93, "channel": 0}, {"type": "note_on", "time": 18, "note": 64, "velocity": 100, "channel": 0}, {"type": "note_off", "time": 74, "note": 64, "velocity": 100, "channel": 0}, {"type": "note_on", "time": 88, "note": 57, "velocity": 98, "channel": 0}, {"type": "note_off", "time": 64, "note": 57, "velocity": 98, "channel": 0}, {"type": "note_on", "time": 4, "note": 58, "velocity": 98, "channel": 0}, {"type": "note_off", "time": 58, "note": 58, "velocity": 98, "channel": 0}, {"type": "note_on", "time": 17, "note": 60, "velocity": 99, "channel": 0}, {"type": "note_off", "time": 41, "note": 60, "velocity": 99, "channel": 0}, {"type": "note_on", "time": 19, "note": 64, "velocity": 106, "channel": 0}, {"type": "note_off", "time": 102, "note": 64, "velocity": 106, "channel": 0}, {"type": "note_on", "time": 32, "note": 61, "velocity": 90, "channel": 0}, {"type": "note_off", "time": 52, "note": 61, "velocity": 90, "channel": 0}, {"type": "note_on", "time": 27, "note": 62, "velocity": 96, "channel": 0}, {"type": "note_off", "time": 73, "note": 62, "velocity": 96, "channel": 0}, {"type": "note_on", "time": 33, "note": 64, "velocity": 104, "channel": 0}, {"type": "note_off", "time": 47, "note": 64, "velocity": 104, "channel": 0}, {"type": "note_on", "time": 8, "note": 65, "velocity": 90, "channel": 0}, {"type": "note_off", "time": 70, "note": 65, "velocity": 90, "channel": 0}, {"type": "note_on", "time": 26, "note": 67, "velocity": 95, "channel": 0}, {"type": "note_off", "time": 41, "note": 67, "velocity": 95, "channel": 0}, {"type": "note_on", "time": 8, "note": 68, "velocity": 103, "channel": 0}, {"type": "note_off", "time": 93, "note": 68, "velocity": 103, "channel": 0}, {"type": "note_on", "time": 17, "note": 69, "velocity": 109, "channel": 0}, {"type": "note_off", "time": 112, "note": 69, "velocity": 109, "channel": 0}, {"type": "note_on", "time": 391, "note": 69, "velocity": 115, "channel": 0}, {"type": "note_off", "time": 59, "note": 69, "velocity": 115, "channel": 0}, {"type": "note_on", "time": 14, "note": 70, "velocity": 109, "channel": 0}, {"type": "note_off", "time": 191, "note": 70, "velocity": 109, "channel": 0}, {"type": "note_on", "time": 21, "note": 69, "velocity": 113, "channel": 0}, {"type": "note_off", "time": 82, "note": 69, "velocity": 113, "channel": 0}, {"type": "note_on", "time": 28, "note": 67, "velocity": 103, "channel": 0}, {"type": "note_off", "time": 74, "note": 67, "velocity": 103, "channel": 0}, {"type": "note_on", "time": 12, "note": 65, "velocity": 98, "channel": 0}, {"type": "note_off", "time": 103, "note": 65, "velocity": 98, "channel": 0}, {"type": "note_on", "time": 8, "note": 64, "velocity": 99, "channel": 0}, {"type": "note_off", "time": 72, "note": 64, "velocity": 99, "channel": 0}, {"type": "note_on", "time": 8, "note": 65, "velocity": 90, "channel": 0}, {"type": "note_off", "time": 49, "note": 65, "velocity": 90, "channel": 0}, {"type": "note_on", "time": 14, "note": 67, "velocity": 104, "channel": 0}, {"type": "note_off", "time": 93, "note": 67, "velocity": 104, "channel": 0}, {"type": "note_on", "time": 7, "note": 66, "velocity": 99, "channel": 0}, {"type": "note_off", "time": 73, "note": 66, "velocity": 99, "channel": 0}, {"type": "note_on", "time": 11, "note": 65, "velocity": 100, "channel": 0}, {"type": "note_off", "time": 106, "note": 65, "velocity": 100, "channel": 0}, {"type": "note_on", "time": 14, "note": 63, "velocity": 88, "channel": 0}, {"type": "note_off", "time": 56, "note": 63, "velocity": 88, "channel": 0}, {"type": "note_on", "time": 14, "note": 64, "velocity": 99, "channel": 0}, {"type": "note_off", "time": 57, "note": 64, "velocity": 99, "channel": 0}, {"type": "note_on", "time": 28, "note": 67, "velocity": 100, "channel": 0}, {"type": "note_off", "time": 63, "note": 67, "velocity": 100, "channel": 0}, {"type": "note_on", "time": 24, "note": 65, "velocity": 94, "channel": 0}, {"type": "note_off", "time": 60, "note": 65, "velocity": 94, "channel": 0}, {"type": "note_on", "time": 28, "note": 62, "velocity": 98, "channel": 0}, {"type": "note_off", "time": 71, "note": 62, "velocity": 98, "channel": 0}, {"type": "note_on", "time": 8, "note": 58, "velocity": 100, "channel": 0}, {"type": "note_off", "time": 86, "note": 58, "velocity": 100, "channel": 0}, {"type": "note_on", "time": 135, "note": 64, "velocity": 106, "channel": 0}, {"type": "note_off", "time": 420, "note": 64, "velocity": 106, "channel": 0}, {"type": "note_on", "time": 15, "note": 62, "velocity": 101, "channel": 0}, {"type": "note_off", "time": 122, "note": 62, "velocity": 101, "channel": 0}, {"type": "note_on", "time": 5, "note": 61, "velocity": 98, "channel": 0}, {"type": "note_off", "time": 55, "note": 61, "velocity": 98, "channel": 0}, {"type": "note_on", "time": 7, "note": 58, "velocity": 105, "channel": 0}, {"type": "note_off", "time": 81, "note": 58, "velocity": 105, "channel": 0}, {"type": "note_on", "time": 10, "note": 60, "velocity": 106, "channel": 0}, {"type": "note_off", "time": 96, "note": 60, "velocity": 106, "channel": 0}, {"type": "note_on", "time": 22, "note": 61, "velocity": 99, "channel": 0}, {"type": "note_off", "time": 68, "note": 61, "velocity": 99, "channel": 0}, {"type": "note_on", "time": 7, "note": 58, "velocity": 102, "channel": 0}, {"type": "note_off", "time": 94, "note": 58, "velocity": 102, "channel": 0}, {"type": "note_on", "time": 479, "note": 68, "velocity": 112, "channel": 0}, {"type": "note_off", "time": 75, "note": 68, "velocity": 112, "channel": 0}, {"type": "note_on", "time": 35, "note": 66, "velocity": 99, "channel": 0}, {"type": "note_off", "time": 68, "note": 66, "velocity": 99, "channel": 0}, {"type": "note_on", "time": 4, "note": 61, "velocity": 101, "channel": 0}, {"type": "note_off", "time": 71, "note": 61, "velocity": 101, "channel": 0}, {"type": "note_on", "time": 37, "note": 59, "velocity": 104, "channel": 0}, {"type": "note_off", "time": 66, "note": 59, "velocity": 104, "channel": 0}, {"type": "note_on", "time": 25, "note": 67, "velocity": 103, "channel": 0}, {"type": "note_off", "time": 87, "note": 67, "velocity": 103, "channel": 0}, {"type": "note_on", "time": 20, "note": 64, "velocity": 97, "channel": 0}, {"type": "note_off", "time": 71, "note": 64, "velocity": 97, "channel": 0}, {"type": "note_on", "time": 26, "note": 60, "velocity": 93, "channel": 0}, {"type": "note_off", "time": 65, "note": 60, "velocity": 93, "channel": 0}, {"type": "note_on", "time": 13, "note": 57, "velocity": 84, "channel": 0}, {"type": "note_off", "time": 57, "note": 57, "velocity": 84, "channel": 0}, {"type": "note_on", "time": 17, "note": 66, "velocity": 110, "channel": 0}, {"type": "note_off", "time": 83, "note": 66, "velocity": 110, "channel": 0}, {"type": "note_on", "time": 17, "note": 62, "velocity": 101, "channel": 0}, {"type": "note_off", "time": 52, "note": 62, "velocity": 101, "channel": 0}, {"type": "note_on", "time": 44, "note": 58, "velocity": 100, "channel": 0}, {"type": "note_off", "time": 76, "note": 58, "velocity": 100, "channel": 0}, {"type": "note_on", "time": 21, "note": 55, "velocity": 85, "channel": 0}, {"type": "note_off", "time": 80, "note": 55, "velocity": 85, "channel": 0}, {"type": "note_on", "time": 2, "note": 64, "velocity": 101, "channel": 0}, {"type": "note_off", "time": 92, "note": 64, "velocity": 101, "channel": 0}, {"type": "note_on", "time": 21, "note": 60, "velocity": 90, "channel": 0}, {"type": "note_off", "time": 57, "note": 60, "velocity": 90, "channel": 0}, {"type": "note_on", "time": 14, "note": 56, "velocity": 96, "channel": 0}, {"type": "note_off", "time": 79, "note": 56, "velocity": 96, "channel": 0}, {"type": "note_on", "time": 121, "note": 62, "velocity": 102, "channel": 0}, {"type": "note_off", "time": 103, "note": 62, "velocity": 102, "channel": 0}, {"type": "note_on", "time": 352, "note": 64, "velocity": 109, "channel": 0}, {"type": "note_off", "time": 402, "note": 64, "velocity": 109, "channel": 0}, {"type": "note_on", "time": 2, "note": 60, "velocity": 102, "channel": 0}, {"type": "note_off", "time": 94, "note": 60, "velocity": 102, "channel": 0}, {"type": "note_on", "time": 22, "note": 57, "velocity": 100, "channel": 0}, {"type": "note_off", "time": 93, "note": 57, "velocity": 100, "channel": 0}, {"type": "note_on", "time": 64, "note": 62, "velocity": 104, "channel": 0}, {"type": "note_off", "time": 101, "note": 62, "velocity": 104, "channel": 0}, {"type": "note_on", "time": 27, "note": 56, "velocity": 96, "channel": 0}, {"type": "note_off", "time": 68, "note": 56, "velocity": 96, "channel": 0}, {"type": "note_on", "time": 24, "note": 53, "velocity": 88, "channel": 0}, {"type": "note_off", "time": 79, "note": 53, "velocity": 88, "channel": 0}, {"type": "note_on", "time": 114, "note": 60, "velocity": 95, "channel": 0}, {"type": "note_off", "time": 92, "note": 60, "velocity": 95, "channel": 0}, {"type": "note_on", "time": 14, "note": 55, "velocity": 91, "channel": 0}, {"type": "note_off", "time": 36, "note": 55, "velocity": 91, "channel": 0}, {"type": "note_on", "time": 10, "note": 53, "velocity": 89, "channel": 0}, {"type": "note_off", "time": 35, "note": 53, "velocity": 89, "channel": 0}, {"type": "note_on", "time": 9, "note": 50, "velocity": 87, "channel": 0}, {"type": "note_off", "time": 45, "note": 50, "velocity": 87, "channel": 0}, {"type": "note_on", "time": 132, "note": 55, "velocity": 97, "channel": 0}, {"type": "note_off", "time": 36, "note": 55, "velocity": 97, "channel": 0}, {"type": "note_on", "time": 10, "note": 57, "velocity": 105, "channel": 0}, {"type": "note_off", "time": 102, "note": 57, "velocity": 105, "channel": 0}, {"type": "note_on", "time": 963, "note": 59, "velocity": 104, "channel": 0}, {"type": "note_off", "time": 50, "note": 59, "velocity": 104, "channel": 0}, {"type": "note_on", "time": 28, "note": 60, "velocity": 106, "channel": 0}, {"type": "note_off", "time": 169, "note": 60, "velocity": 106, "channel": 0}, {"type": "note_on", "time": 32, "note": 58, "velocity": 107, "channel": 0}, {"type": "note_off", "time": 87, "note": 58, "velocity": 107, "channel": 0}, {"type": "note_on", "time": 14, "note": 57, "velocity": 108, "channel": 0}, {"type": "note_off", "time": 74, "note": 57, "velocity": 108, "channel": 0}, {"type": "note_on", "time": 15, "note": 55, "velocity": 98, "channel": 0}, {"type": "note_off", "time": 68, "note": 55, "velocity": 98, "channel": 0}, {"type": "note_on", "time": 19, "note": 53, "velocity": 95, "channel": 0}, {"type": "note_off", "time": 88, "note": 53, "velocity": 95, "channel": 0}, {"type": "note_on", "time": 18, "note": 54, "velocity": 88, "channel": 0}, {"type": "note_off", "time": 68, "note": 54, "velocity": 88, "channel": 0}, {"type": "note_on", "time": 15, "note": 55, "velocity": 103, "channel": 0}, {"type": "note_off", "time": 97, "note": 55, "velocity": 103, "channel": 0}, {"type": "note_on", "time": 15, "note": 54, "velocity": 99, "channel": 0}, {"type": "note_off", "time": 84, "note": 54, "velocity": 99, "channel": 0}, {"type": "note_on", "time": 21, "note": 53, "velocity": 98, "channel": 0}, {"type": "note_off", "time": 101, "note": 53, "velocity": 98, "channel": 0}, {"type": "note_on", "time": 21, "note": 51, "velocity": 90, "channel": 0}, {"type": "note_off", "time": 75, "note": 51, "velocity": 90, "channel": 0}, {"type": "note_on", "time": 0, "note": 52, "velocity": 106, "channel": 0}, {"type": "note_off", "time": 151, "note": 52, "velocity": 106, "channel": 0}, {"type": "note_on", "time": 5, "note": 45, "velocity": 105, "channel": 0}, {"type": "note_off", "time": 173, "note": 45, "velocity": 105, "channel": 0}, {"type": "note_on", "time": 25, "note": 50, "velocity": 96, "channel": 0}, {"type": "note_off", "time": 302, "note": 50, "velocity": 96, "channel": 0}, {"type": "note_on", "time": 958, "note": 46, "velocity": 103, "channel": 0}, {"type": "note_off", "time": 60, "note": 46, "velocity": 103, "channel": 0}, {"type": "note_on", "time": 5, "note": 47, "velocity": 98, "channel": 0}, {"type": "note_off", "time": 64, "note": 47, "velocity": 98, "channel": 0}, {"type": "note_on", "time": 40, "note": 56, "velocity": 104, "channel": 0}, {"type": "note_off", "time": 67, "note": 56, "velocity": 104, "channel": 0}, {"type": "note_on", "time": 40, "note": 44, "velocity": 105, "channel": 0}, {"type": "note_off", "time": 106, "note": 44, "velocity": 105, "channel": 0}, {"type": "note_on", "time": 33, "note": 46, "velocity": 95, "channel": 0}, {"type": "note_off", "time": 67, "note": 46, "velocity": 95, "channel": 0}, {"type": "note_on", "time": 206, "note": 45, "velocity": 100, "channel": 0}, {"type": "note_off", "time": 142, "note": 45, "velocity": 100, "channel": 0}, {"type": "note_on", "time": 248, "note": 48, "velocity": 99, "channel": 0}, {"type": "note_off", "time": 105, "note": 48, "velocity": 99, "channel": 0}, {"type": "note_on", "time": 258, "note": 52, "velocity": 103, "channel": 0}, {"type": "note_off", "time": 95, "note": 52, "velocity": 103, "channel": 0}, {"type": "note_on", "time": 26, "note": 49, "velocity": 89, "channel": 0}, {"type": "note_off", "time": 71, "note": 49, "velocity": 89, "channel": 0}, {"type": "note_on", "time": 5, "note": 50, "velocity": 94, "channel": 0}, {"type": "note_off", "time": 91, "note": 50, "velocity": 94, "channel": 0}, {"type": "note_on", "time": 25, "note": 52, "velocity": 100, "channel": 0}, {"type": "note_off", "time": 74, "note": 52, "velocity": 100, "channel": 0}, {"type": "note_on", "time": 11, "note": 53, "velocity": 98, "channel": 0}, {"type": "note_off", "time": 78, "note": 53, "velocity": 98, "channel": 0}, {"type": "note_on", "time": 11, "note": 55, "velocity": 94, "channel": 0}, {"type": "note_off", "time": 70, "note": 55, "velocity": 94, "channel": 0}, {"type": "note_on", "time": 9, "note": 56, "velocity": 102, "channel": 0}, {"type": "note_off", "time": 61, "note": 56, "velocity": 102, "channel": 0}, {"type": "note_on", "time": 21, "note": 64, "velocity": 108, "channel": 0}, {"type": "note_off", "time": 64, "note": 64, "velocity": 108, "channel": 0}, {"type": "note_on", "time": 45, "note": 56, "velocity": 96, "channel": 0}, {"type": "note_off", "time": 63, "note": 56, "velocity": 96, "channel": 0}, {"type": "note_on", "time": 7, "note": 55, "velocity": 76, "channel": 0}, {"type": "note_off", "time": 75, "note": 55, "velocity": 76, "channel": 0}, {"type": "note_on", "time": 19, "note": 64, "velocity": 102, "channel": 0}, {"type": "note_off", "time": 136, "note": 64, "velocity": 102, "channel": 0}, {"type": "note_on", "time": 7, "note": 65, "velocity": 101, "channel": 0}, {"type": "note_off", "time": 95, "note": 65, "velocity": 101, "channel": 0}, {"type": "note_on", "time": 2, "note": 69, "velocity": 100, "channel": 0}, {"type": "note_off", "time": 63, "note": 69, "velocity": 100, "channel": 0}, {"type": "note_on", "time": 12, "note": 71, "velocity": 86, "channel": 0}, {"type": "note_off", "time": 43, "note": 71, "velocity": 86, "channel": 0}, {"type": "note_on", "time": 43, "note": 76, "velocity": 87, "channel": 0}, {"type": "note_off", "time": 92, "note": 76, "velocity": 87, "channel": 0}, {"type": "note_on", "time": 136, "note": 81, "velocity": 88, "channel": 0}, {"type": "note_off", "time": 461, "note": 81, "velocity": 88, "channel": 0}, {"type": "note_on", "time": 610, "note": 82, "velocity": 99, "channel": 0}, {"type": "note_off", "time": 47, "note": 82, "velocity": 99, "channel": 0}, {"type": "note_on", "time": 28, "note": 80, "velocity": 88, "channel": 0}, {"type": "note_off", "time": 75, "note": 80, "velocity": 88, "channel": 0}, {"type": "note_on", "time": 14, "note": 79, "velocity": 101, "channel": 0}, {"type": "note_off", "time": 63, "note": 79, "velocity": 101, "channel": 0}, {"type": "note_on", "time": 40, "note": 77, "velocity": 85, "channel": 0}, {"type": "note_off", "time": 84, "note": 77, "velocity": 85, "channel": 0}, {"type": "note_on", "time": 18, "note": 75, "velocity": 102, "channel": 0}, {"type": "note_off", "time": 68, "note": 75, "velocity": 102, "channel": 0}, {"type": "note_on", "time": 53, "note": 73, "velocity": 95, "channel": 0}, {"type": "note_off", "time": 135, "note": 73, "velocity": 95, "channel": 0}, {"type": "note_on", "time": 71, "note": 71, "velocity": 104, "channel": 0}, {"type": "note_off", "time": 111, "note": 71, "velocity": 104, "channel": 0}, {"type": "note_on", "time": 21, "note": 69, "velocity": 103, "channel": 0}, {"type": "note_off", "time": 46, "note": 69, "velocity": 103, "channel": 0}, {"type": "note_on", "time": 9, "note": 68, "velocity": 102, "channel": 0}, {"type": "note_off", "time": 42, "note": 68, "velocity": 102, "channel": 0}, {"type": "note_on", "time": 8, "note": 67, "velocity": 100, "channel": 0}, {"type": "note_off", "time": 77, "note": 67, "velocity": 100, "channel": 0}, {"type": "note_on", "time": 22, "note": 66, "velocity": 99, "channel": 0}, {"type": "note_off", "time": 137, "note": 66, "velocity": 99, "channel": 0}, {"type": "note_on", "time": 14, "note": 64, "velocity": 93, "channel": 0}, {"type": "note_off", "time": 67, "note": 64, "velocity": 93, "channel": 0}, {"type": "note_on", "time": 125, "note": 64, "velocity": 83, "channel": 0}, {"type": "note_off", "time": 66, "note": 64, "velocity": 83, "channel": 0}, {"type": "note_on", "time": 22, "note": 69, "velocity": 101, "channel": 0}, {"type": "note_off", "time": 98, "note": 69, "velocity": 101, "channel": 0}, {"type": "note_on", "time": 28, "note": 66, "velocity": 99, "channel": 0}, {"type": "note_off", "time": 84, "note": 66, "velocity": 99, "channel": 0}, {"type": "note_on", "time": 14, "note": 65, "velocity": 99, "channel": 0}, {"type": "note_off", "time": 56, "note": 65, "velocity": 99, "channel": 0}, {"type": "note_on", "time": 23, "note": 63, "velocity": 89, "channel": 0}, {"type": "note_off", "time": 40, "note": 63, "velocity": 89, "channel": 0}, {"type": "note_on", "time": 8, "note": 64, "velocity": 106, "channel": 0}, {"type": "note_off", "time": 149, "note": 64, "velocity": 106, "channel": 0}, {"type": "note_on", "time": 109, "note": 74, "velocity": 94, "channel": 0}, {"type": "note_off", "time": 98, "note": 74, "velocity": 94, "channel": 0}, {"type": "note_on", "time": 258, "note": 72, "velocity": 108, "channel": 0}, {"type": "note_off", "time": 143, "note": 72, "velocity": 108, "channel": 0}, {"type": "note_on", "time": 223, "note": 69, "velocity": 113, "channel": 0}, {"type": "note_off", "time": 122, "note": 69, "velocity": 113, "channel": 0}, {"type": "note_on", "time": 282, "note": 70, "velocity": 111, "channel": 0}, {"type": "note_off", "time": 102, "note": 70, "velocity": 111, "channel": 0}, {"type": "note_on", "time": 460, "note": 66, "velocity": 112, "channel": 0}, {"type": "note_off", "time": 71, "note": 66, "velocity": 112, "channel": 0}, {"type": "note_on", "time": 8, "note": 69, "velocity": 113, "channel": 0}, {"type": "note_off", "time": 285, "note": 69, "velocity": 113, "channel": 0}, {"type": "note_on", "time": 32, "note": 65, "velocity": 107, "channel": 0}, {"type": "note_off", "time": 90, "note": 65, "velocity": 107, "channel": 0}, {"type": "note_on", "time": 14, "note": 67, "velocity": 105, "channel": 0}, {"type": "note_off", "time": 237, "note": 67, "velocity": 105, "channel": 0}, {"type": "note_on", "time": 39, "note": 64, "velocity": 114, "channel": 0}, {"type": "note_off", "time": 118, "note": 64, "velocity": 114, "channel": 0}, {"type": "note_on", "time": 9, "note": 65, "velocity": 105, "channel": 0}, {"type": "note_off", "time": 202, "note": 65, "velocity": 105, "channel": 0}, {"type": "note_on", "time": 59, "note": 60, "velocity": 103, "channel": 0}, {"type": "note_off", "time": 119, "note": 60, "velocity": 103, "channel": 0}, {"type": "note_on", "time": 681, "note": 60, "velocity": 104, "channel": 0}, {"type": "note_off", "time": 70, "note": 60, "velocity": 104, "channel": 0}, {"type": "note_on", "time": 14, "note": 62, "velocity": 108, "channel": 0}, {"type": "note_off", "time": 49, "note": 62, "velocity": 108, "channel": 0}, {"type": "note_on", "time": 2, "note": 64, "velocity": 101, "channel": 0}, {"type": "note_off", "time": 26, "note": 64, "velocity": 101, "channel": 0}, {"type": "note_on", "time": 9, "note": 67, "velocity": 95, "channel": 0}, {"type": "note_off", "time": 22, "note": 67, "velocity": 95, "channel": 0}, {"type": "note_on", "time": 23, "note": 69, "velocity": 98, "channel": 0}, {"type": "note_off", "time": 45, "note": 69, "velocity": 98, "channel": 0}, {"type": "note_on", "time": 21, "note": 72, "velocity": 102, "channel": 0}, {"type": "note_off", "time": 88, "note": 72, "velocity": 102, "channel": 0}, {"type": "note_on", "time": 18, "note": 69, "velocity": 108, "channel": 0}, {"type": "note_off", "time": 88, "note": 69, "velocity": 108, "channel": 0}, {"type": "note_on", "time": 9, "note": 65, "velocity": 95, "channel": 0}, {"type": "note_off", "time": 57, "note": 65, "velocity": 95, "channel": 0}, {"type": "note_on", "time": 4, "note": 64, "velocity": 92, "channel": 0}, {"type": "note_off", "time": 56, "note": 64, "velocity": 92, "channel": 0}, {"type": "note_on", "time": 68, "note": 69, "velocity": 105, "channel": 0}, {"type": "note_off", "time": 94, "note": 69, "velocity": 105, "channel": 0}, {"type": "note_on", "time": 115, "note": 64, "velocity": 89, "channel": 0}, {"type": "note_off", "time": 66, "note": 64, "velocity": 89, "channel": 0}, {"type": "note_on", "time": 36, "note": 67, "velocity": 101, "channel": 0}, {"type": "note_off", "time": 56, "note": 67, "velocity": 101, "channel": 0}, {"type": "note_on", "time": 33, "note": 66, "velocity": 98, "channel": 0}, {"type": "note_off", "time": 70, "note": 66, "velocity": 98, "channel": 0}, {"type": "note_on", "time": 21, "note": 62, "velocity": 95, "channel": 0}, {"type": "note_off", "time": 87, "note": 62, "velocity": 95, "channel": 0}, {"type": "note_on", "time": 468, "note": 58, "velocity": 89, "channel": 0}, {"type": "note_off", "time": 50, "note": 58, "velocity": 89, "channel": 0}, {"type": "note_on", "time": 4, "note": 57, "velocity": 113, "channel": 0}, {"type": "note_off", "time": 56, "note": 57, "velocity": 113, "channel": 0}, {"type": "note_on", "time": 7, "note": 56, "velocity": 113, "channel": 0}, {"type": "note_off", "time": 35, "note": 56, "velocity": 113, "channel": 0}, {"type": "note_on", "time": 12, "note": 55, "velocity": 103, "channel": 0}, {"type": "note_off", "time": 39, "note": 55, "velocity": 103, "channel": 0}, {"type": "note_on", "time": 4, "note": 54, "velocity": 99, "channel": 0}, {"type": "note_off", "time": 25, "note": 54, "velocity": 99, "channel": 0}, {"type": "note_on", "time": 11, "note": 46, "velocity": 110, "channel": 0}, {"type": "note_off", "time": 66, "note": 46, "velocity": 110, "channel": 0}, {"type": "note_on", "time": 104, "note": 53, "velocity": 99, "channel": 0}, {"type": "note_off", "time": 63, "note": 53, "velocity": 99, "channel": 0}, {"type": "note_on", "time": 8, "note": 52, "velocity": 94, "channel": 0}, {"type": "note_off", "time": 84, "note": 52, "velocity": 94, "channel": 0}, {"type": "note_on", "time": 137, "note": 59, "velocity": 107, "channel": 0}, {"type": "note_off", "time": 80, "note": 59, "velocity": 107, "channel": 0}, {"type": "note_on", "time": 4, "note": 58, "velocity": 106, "channel": 0}, {"type": "note_off", "time": 36, "note": 58, "velocity": 106, "channel": 0}, {"type": "note_on", "time": 19, "note": 57, "velocity": 108, "channel": 0}, {"type": "note_off", "time": 37, "note": 57, "velocity": 108, "channel": 0}, {"type": "note_on", "time": 14, "note": 56, "velocity": 104, "channel": 0}, {"type": "note_off", "time": 63, "note": 56, "velocity": 104, "channel": 0}, {"type": "note_on", "time": 5, "note": 55, "velocity": 100, "channel": 0}, {"type": "note_off", "time": 15, "note": 55, "velocity": 100, "channel": 0}, {"type": "note_on", "time": 29, "note": 54, "velocity": 9, "channel": 0}, {"type": "note_off", "time": 46, "note": 54, "velocity": 9, "channel": 0}, {"type": "note_on", "time": 0, "note": 53, "velocity": 9, "channel": 0}, {"type": "note_off", "time": 22, "note": 53, "velocity": 9, "channel": 0}, {"type": "note_on", "time": 5, "note": 52, "velocity": 80, "channel": 0}, {"type": "note_off", "time": 23, "note": 52, "velocity": 80, "channel": 0}, {"type": "note_on", "time": 126, "note": 55, "velocity": 98, "channel": 0}, {"type": "note_off", "time": 90, "note": 55, "velocity": 98, "channel": 0}, {"type": "note_on", "time": 30, "note": 57, "velocity": 102, "channel": 0}, {"type": "note_off", "time": 85, "note": 57, "velocity": 102, "channel": 0}, {"type": "note_on", "time": 11, "note": 58, "velocity": 101, "channel": 0}, {"type": "note_off", "time": 77, "note": 58, "velocity": 101, "channel": 0}, {"type": "note_on", "time": 7, "note": 55, "velocity": 95, "channel": 0}, {"type": "note_off", "time": 90, "note": 55, "velocity": 95, "channel": 0}, {"type": "note_on", "time": 11, "note": 56, "velocity": 104, "channel": 0}, {"type": "note_off", "time": 18, "note": 56, "velocity": 104, "channel": 0}, {"type": "note_on", "time": 14, "note": 57, "velocity": 107, "channel": 0}, {"type": "note_off", "time": 60, "note": 57, "velocity": 107, "channel": 0}, {"type": "note_on", "time": 9, "note": 55, "velocity": 98, "channel": 0}, {"type": "note_off", "time": 59, "note": 55, "velocity": 98, "channel": 0}, {"type": "note_on", "time": 17, "note": 53, "velocity": 92, "channel": 0}, {"type": "note_off", "time": 77, "note": 53, "velocity": 92, "channel": 0}, {"type": "note_on", "time": 11, "note": 50, "velocity": 89, "channel": 0}, {"type": "note_off", "time": 83, "note": 50, "velocity": 89, "channel": 0}, {"type": "note_on", "time": 25, "note": 53, "velocity": 91, "channel": 0}, {"type": "note_off", "time": 170, "note": 53, "velocity": 91, "channel": 0}, {"type": "note_on", "time": 631, "note": 48, "velocity": 107, "channel": 0}, {"type": "note_off", "time": 87, "note": 48, "velocity": 107, "channel": 0}, {"type": "note_on", "time": 12, "note": 50, "velocity": 98, "channel": 0}, {"type": "note_off", "time": 36, "note": 50, "velocity": 98, "channel": 0}, {"type": "note_on", "time": 0, "note": 52, "velocity": 96, "channel": 0}, {"type": "note_off", "time": 47, "note": 52, "velocity": 96, "channel": 0}, {"type": "note_on", "time": 5, "note": 53, "velocity": 98, "channel": 0}, {"type": "note_off", "time": 50, "note": 53, "velocity": 98, "channel": 0}, {"type": "note_on", "time": 28, "note": 55, "velocity": 100, "channel": 0}, {"type": "note_off", "time": 85, "note": 55, "velocity": 100, "channel": 0}, {"type": "note_on", "time": 32, "note": 53, "velocity": 97, "channel": 0}, {"type": "note_off", "time": 68, "note": 53, "velocity": 97, "channel": 0}, {"type": "note_on", "time": 8, "note": 52, "velocity": 94, "channel": 0}, {"type": "note_off", "time": 78, "note": 52, "velocity": 94, "channel": 0}, {"type": "note_on", "time": 32, "note": 55, "velocity": 91, "channel": 0}, {"type": "note_off", "time": 68, "note": 55, "velocity": 91, "channel": 0}, {"type": "note_on", "time": 15, "note": 58, "velocity": 95, "channel": 0}, {"type": "note_off", "time": 67, "note": 58, "velocity": 95, "channel": 0}, {"type": "note_on", "time": 9, "note": 60, "velocity": 97, "channel": 0}, {"type": "note_off", "time": 102, "note": 60, "velocity": 97, "channel": 0}, {"type": "note_on", "time": 7, "note": 57, "velocity": 89, "channel": 0}, {"type": "note_off", "time": 88, "note": 57, "velocity": 89, "channel": 0}, {"type": "note_on", "time": 32, "note": 58, "velocity": 92, "channel": 0}, {"type": "note_off", "time": 67, "note": 58, "velocity": 92, "channel": 0}, {"type": "note_on", "time": 0, "note": 60, "velocity": 98, "channel": 0}, {"type": "note_off", "time": 90, "note": 60, "velocity": 98, "channel": 0}, {"type": "note_on", "time": 12, "note": 61, "velocity": 100, "channel": 0}, {"type": "note_off", "time": 59, "note": 61, "velocity": 100, "channel": 0}, {"type": "note_on", "time": 11, "note": 63, "velocity": 98, "channel": 0}, {"type": "note_off", "time": 61, "note": 63, "velocity": 98, "channel": 0}, {"type": "note_on", "time": 15, "note": 64, "velocity": 91, "channel": 0}, {"type": "note_off", "time": 80, "note": 64, "velocity": 91, "channel": 0}, {"type": "note_on", "time": 25, "note": 67, "velocity": 106, "channel": 0}, {"type": "note_off", "time": 108, "note": 67, "velocity": 106, "channel": 0}, {"type": "note_on", "time": 12, "note": 64, "velocity": 96, "channel": 0}, {"type": "note_off", "time": 88, "note": 64, "velocity": 96, "channel": 0}, {"type": "note_on", "time": 18, "note": 65, "velocity": 93, "channel": 0}, {"type": "note_off", "time": 52, "note": 65, "velocity": 93, "channel": 0}, {"type": "note_on", "time": 26, "note": 67, "velocity": 86, "channel": 0}, {"type": "note_off", "time": 75, "note": 67, "velocity": 86, "channel": 0}, {"type": "note_on", "time": 25, "note": 69, "velocity": 107, "channel": 0}, {"type": "note_off", "time": 111, "note": 69, "velocity": 107, "channel": 0}, {"type": "note_on", "time": 8, "note": 65, "velocity": 95, "channel": 0}, {"type": "note_off", "time": 151, "note": 65, "velocity": 95, "channel": 0}, {"type": "note_on", "time": 633, "note": 65, "velocity": 112, "channel": 0}, {"type": "note_off", "time": 97, "note": 65, "velocity": 112, "channel": 0}, {"type": "note_on", "time": 5, "note": 67, "velocity": 95, "channel": 0}, {"type": "note_off", "time": 71, "note": 67, "velocity": 95, "channel": 0}, {"type": "note_on", "time": 18, "note": 69, "velocity": 112, "channel": 0}, {"type": "note_off", "time": 77, "note": 69, "velocity": 112, "channel": 0}, {"type": "note_on", "time": 12, "note": 72, "velocity": 105, "channel": 0}, {"type": "note_off", "time": 71, "note": 72, "velocity": 105, "channel": 0}, {"type": "note_on", "time": 30, "note": 69, "velocity": 103, "channel": 0}, {"type": "note_off", "time": 94, "note": 69, "velocity": 103, "channel": 0}, {"type": "note_on", "time": 5, "note": 65, "velocity": 104, "channel": 0}, {"type": "note_off", "time": 87, "note": 65, "velocity": 104, "channel": 0}, {"type": "note_on", "time": 22, "note": 60, "velocity": 89, "channel": 0}, {"type": "note_off", "time": 89, "note": 60, "velocity": 89, "channel": 0}, {"type": "note_on", "time": 13, "note": 65, "velocity": 86, "channel": 0}, {"type": "note_off", "time": 75, "note": 65, "velocity": 86, "channel": 0}, {"type": "note_on", "time": 23, "note": 69, "velocity": 103, "channel": 0}, {"type": "note_off", "time": 98, "note": 69, "velocity": 103, "channel": 0}, {"type": "note_on", "time": 0, "note": 71, "velocity": 106, "channel": 0}, {"type": "note_off", "time": 64, "note": 71, "velocity": 106, "channel": 0}, {"type": "note_on", "time": 9, "note": 72, "velocity": 97, "channel": 0}, {"type": "note_off", "time": 192, "note": 72, "velocity": 97, "channel": 0}, {"type": "note_on", "time": 21, "note": 70, "velocity": 98, "channel": 0}, {"type": "note_off", "time": 113, "note": 70, "velocity": 98, "channel": 0}, {"type": "note_on", "time": 52, "note": 67, "velocity": 100, "channel": 0}, {"type": "note_off", "time": 61, "note": 67, "velocity": 100, "channel": 0}, {"type": "note_on", "time": 15, "note": 69, "velocity": 102, "channel": 0}, {"type": "note_off", "time": 244, "note": 69, "velocity": 102, "channel": 0}, {"type": "note_on", "time": 403, "note": 65, "velocity": 83, "channel": 0}, {"type": "note_off", "time": 49, "note": 65, "velocity": 83, "channel": 0}, {"type": "note_on", "time": 25, "note": 74, "velocity": 106, "channel": 0}, {"type": "note_off", "time": 90, "note": 74, "velocity": 106, "channel": 0}, {"type": "note_on", "time": 15, "note": 73, "velocity": 101, "channel": 0}, {"type": "note_off", "time": 85, "note": 73, "velocity": 101, "channel": 0}, {"type": "note_on", "time": 19, "note": 72, "velocity": 105, "channel": 0}, {"type": "note_off", "time": 64, "note": 72, "velocity": 105, "channel": 0}, {"type": "note_on", "time": 11, "note": 71, "velocity": 110, "channel": 0}, {"type": "note_off", "time": 90, "note": 71, "velocity": 110, "channel": 0}, {"type": "note_on", "time": 16, "note": 70, "velocity": 102, "channel": 0}, {"type": "note_off", "time": 102, "note": 70, "velocity": 102, "channel": 0}, {"type": "note_on", "time": 21, "note": 67, "velocity": 101, "channel": 0}, {"type": "note_off", "time": 63, "note": 67, "velocity": 101, "channel": 0}, {"type": "note_on", "time": 2, "note": 68, "velocity": 96, "channel": 0}, {"type": "note_off", "time": 92, "note": 68, "velocity": 96, "channel": 0}, {"type": "note_on", "time": 28, "note": 69, "velocity": 102, "channel": 0}, {"type": "note_off", "time": 90, "note": 69, "velocity": 102, "channel": 0}, {"type": "note_on", "time": 0, "note": 72, "velocity": 98, "channel": 0}, {"type": "note_off", "time": 80, "note": 72, "velocity": 98, "channel": 0}, {"type": "note_on", "time": 9, "note": 69, "velocity": 107, "channel": 0}, {"type": "note_off", "time": 85, "note": 69, "velocity": 107, "channel": 0}, {"type": "note_on", "time": 21, "note": 65, "velocity": 96, "channel": 0}, {"type": "note_off", "time": 112, "note": 65, "velocity": 96, "channel": 0}, {"type": "note_on", "time": 67, "note": 67, "velocity": 98, "channel": 0}, {"type": "note_off", "time": 102, "note": 67, "velocity": 98, "channel": 0}, {"type": "note_on", "time": 8, "note": 69, "velocity": 104, "channel": 0}, {"type": "note_off", "time": 63, "note": 69, "velocity": 104, "channel": 0}, {"type": "note_on", "time": 21, "note": 70, "velocity": 98, "channel": 0}, {"type": "note_off", "time": 80, "note": 70, "velocity": 98, "channel": 0}, {"type": "note_on", "time": 16, "note": 67, "velocity": 101, "channel": 0}, {"type": "note_off", "time": 99, "note": 67, "velocity": 101, "channel": 0}, {"type": "note_on", "time": 7, "note": 65, "velocity": 97, "channel": 0}, {"type": "note_off", "time": 109, "note": 65, "velocity": 97, "channel": 0}, {"type": "note_on", "time": 29, "note": 67, "velocity": 99, "channel": 0}, {"type": "note_off", "time": 123, "note": 67, "velocity": 99, "channel": 0}, {"type": "note_on", "time": 230, "note": 66, "velocity": 108, "channel": 0}, {"type": "note_off", "time": 60, "note": 66, "velocity": 108, "channel": 0}, {"type": "note_on", "time": 12, "note": 65, "velocity": 96, "channel": 0}, {"type": "note_off", "time": 91, "note": 65, "velocity": 96, "channel": 0}, {"type": "note_on", "time": 18, "note": 64, "velocity": 107, "channel": 0}, {"type": "note_off", "time": 106, "note": 64, "velocity": 107, "channel": 0}, {"type": "note_on", "time": 12, "note": 62, "velocity": 102, "channel": 0}, {"type": "note_off", "time": 91, "note": 62, "velocity": 102, "channel": 0}, {"type": "note_on", "time": 5, "note": 61, "velocity": 91, "channel": 0}, {"type": "note_off", "time": 75, "note": 61, "velocity": 91, "channel": 0}, {"type": "note_on", "time": 11, "note": 58, "velocity": 96, "channel": 0}, {"type": "note_off", "time": 115, "note": 58, "velocity": 96, "channel": 0}, {"type": "note_on", "time": 29, "note": 55, "velocity": 88, "channel": 0}, {"type": "note_off", "time": 42, "note": 55, "velocity": 88, "channel": 0}, {"type": "note_on", "time": 1, "note": 56, "velocity": 83, "channel": 0}, {"type": "note_off", "time": 90, "note": 56, "velocity": 83, "channel": 0}, {"type": "note_on", "time": 95, "note": 64, "velocity": 104, "channel": 0}, {"type": "note_off", "time": 88, "note": 64, "velocity": 104, "channel": 0}, {"type": "note_on", "time": 14, "note": 60, "velocity": 93, "channel": 0}, {"type": "note_off", "time": 85, "note": 60, "velocity": 93, "channel": 0}, {"type": "note_on", "time": 12, "note": 56, "velocity": 98, "channel": 0}, {"type": "note_off", "time": 94, "note": 56, "velocity": 98, "channel": 0}, {"type": "note_on", "time": 1, "note": 53, "velocity": 93, "channel": 0}, {"type": "note_off", "time": 87, "note": 53, "velocity": 93, "channel": 0}, {"type": "note_on", "time": 16, "note": 50, "velocity": 86, "channel": 0}, {"type": "note_off", "time": 87, "note": 50, "velocity": 86, "channel": 0}, {"type": "note_on", "time": 18, "note": 49, "velocity": 86, "channel": 0}, {"type": "note_off", "time": 54, "note": 49, "velocity": 86, "channel": 0}, {"type": "note_on", "time": 33, "note": 54, "velocity": 94, "channel": 0}, {"type": "note_off", "time": 74, "note": 54, "velocity": 94, "channel": 0}, {"type": "note_on", "time": 287, "note": 53, "velocity": 102, "channel": 0}, {"type": "note_off", "time": 121, "note": 53, "velocity": 102, "channel": 0}, {"type": "note_on", "time": 7, "note": 50, "velocity": 84, "channel": 0}, {"type": "note_off", "time": 148, "note": 50, "velocity": 84, "channel": 0}, {"type": "note_on", "time": 400, "note": 49, "velocity": 103, "channel": 0}, {"type": "note_off", "time": 67, "note": 49, "velocity": 103, "channel": 0}, {"type": "note_on", "time": 5, "note": 50, "velocity": 106, "channel": 0}, {"type": "note_off", "time": 26, "note": 50, "velocity": 106, "channel": 0}, {"type": "note_on", "time": 9, "note": 51, "velocity": 103, "channel": 0}, {"type": "note_off", "time": 22, "note": 51, "velocity": 103, "channel": 0}, {"type": "note_on", "time": 11, "note": 53, "velocity": 103, "channel": 0}, {"type": "note_off", "time": 26, "note": 53, "velocity": 103, "channel": 0}, {"type": "note_on", "time": 4, "note": 57, "velocity": 101, "channel": 0}, {"type": "note_off", "time": 77, "note": 57, "velocity": 101, "channel": 0}, {"type": "note_on", "time": 3, "note": 56, "velocity": 100, "channel": 0}, {"type": "note_off", "time": 94, "note": 56, "velocity": 100, "channel": 0}, {"type": "note_on", "time": 9, "note": 54, "velocity": 91, "channel": 0}, {"type": "note_off", "time": 69, "note": 54, "velocity": 91, "channel": 0}, {"type": "note_on", "time": 14, "note": 53, "velocity": 91, "channel": 0}, {"type": "note_off", "time": 51, "note": 53, "velocity": 91, "channel": 0}, {"type": "note_on", "time": 11, "note": 51, "velocity": 89, "channel": 0}, {"type": "note_off", "time": 41, "note": 51, "velocity": 89, "channel": 0}, {"type": "note_on", "time": 0, "note": 50, "velocity": 98, "channel": 0}, {"type": "note_off", "time": 43, "note": 50, "velocity": 98, "channel": 0}, {"type": "note_on", "time": 59, "note": 59, "velocity": 99, "channel": 0}, {"type": "note_off", "time": 100, "note": 59, "velocity": 99, "channel": 0}, {"type": "note_on", "time": 31, "note": 56, "velocity": 88, "channel": 0}, {"type": "note_off", "time": 94, "note": 56, "velocity": 88, "channel": 0}, {"type": "note_on", "time": 0, "note": 57, "velocity": 94, "channel": 0}, {"type": "note_off", "time": 85, "note": 57, "velocity": 94, "channel": 0}, {"type": "note_on", "time": 11, "note": 58, "velocity": 93, "channel": 0}, {"type": "note_off", "time": 55, "note": 58, "velocity": 93, "channel": 0}, {"type": "note_on", "time": 16, "note": 60, "velocity": 100, "channel": 0}, {"type": "note_off", "time": 81, "note": 60, "velocity": 100, "channel": 0}, {"type": "note_on", "time": 34, "note": 57, "velocity": 91, "channel": 0}, {"type": "note_off", "time": 83, "note": 57, "velocity": 91, "channel": 0}, {"type": "note_on", "time": 9, "note": 58, "velocity": 90, "channel": 0}, {"type": "note_off", "time": 61, "note": 58, "velocity": 90, "channel": 0}, {"type": "note_on", "time": 17, "note": 60, "velocity": 94, "channel": 0}, {"type": "note_off", "time": 94, "note": 60, "velocity": 94, "channel": 0}, {"type": "note_on", "time": 5, "note": 61, "velocity": 91, "channel": 0}, {"type": "note_off", "time": 37, "note": 61, "velocity": 91, "channel": 0}, {"type": "note_on", "time": 29, "note": 64, "velocity": 88, "channel": 0}, {"type": "note_off", "time": 41, "note": 64, "velocity": 88, "channel": 0}, {"type": "note_on", "time": 11, "note": 65, "velocity": 91, "channel": 0}, {"type": "note_off", "time": 41, "note": 65, "velocity": 91, "channel": 0}, {"type": "note_on", "time": 27, "note": 69, "velocity": 97, "channel": 0}, {"type": "note_off", "time": 166, "note": 69, "velocity": 97, "channel": 0}, {"type": "note_on", "time": 215, "note": 67, "velocity": 101, "channel": 0}, {"type": "note_off", "time": 45, "note": 67, "velocity": 101, "channel": 0}, {"type": "note_on", "time": 1, "note": 68, "velocity": 105, "channel": 0}, {"type": "note_off", "time": 79, "note": 68, "velocity": 105, "channel": 0}, {"type": "note_on", "time": 1, "note": 67, "velocity": 109, "channel": 0}, {"type": "note_off", "time": 47, "note": 67, "velocity": 109, "channel": 0}, {"type": "note_on", "time": 13, "note": 66, "velocity": 105, "channel": 0}, {"type": "note_off", "time": 69, "note": 66, "velocity": 105, "channel": 0}, {"type": "note_on", "time": 25, "note": 65, "velocity": 107, "channel": 0}, {"type": "note_off", "time": 73, "note": 65, "velocity": 107, "channel": 0}, {"type": "note_on", "time": 15, "note": 64, "velocity": 110, "channel": 0}, {"type": "note_off", "time": 81, "note": 64, "velocity": 110, "channel": 0}, {"type": "note_on", "time": 35, "note": 62, "velocity": 109, "channel": 0}, {"type": "note_off", "time": 81, "note": 62, "velocity": 109, "channel": 0}, {"type": "note_on", "time": 15, "note": 60, "velocity": 100, "channel": 0}, {"type": "note_off", "time": 132, "note": 60, "velocity": 100, "channel": 0}, {"type": "note_on", "time": 13, "note": 61, "velocity": 95, "channel": 0}, {"type": "note_off", "time": 106, "note": 61, "velocity": 95, "channel": 0}, {"type": "note_on", "time": 19, "note": 60, "velocity": 92, "channel": 0}, {"type": "note_off", "time": 69, "note": 60, "velocity": 92, "channel": 0}, {"type": "note_on", "time": 18, "note": 56, "velocity": 89, "channel": 0}, {"type": "note_off", "time": 47, "note": 56, "velocity": 89, "channel": 0}, {"type": "note_on", "time": 8, "note": 55, "velocity": 86, "channel": 0}, {"type": "note_off", "time": 55, "note": 55, "velocity": 86, "channel": 0}, {"type": "note_on", "time": 17, "note": 56, "velocity": 91, "channel": 0}, {"type": "note_off", "time": 45, "note": 56, "velocity": 91, "channel": 0}, {"type": "note_on", "time": 1, "note": 57, "velocity": 97, "channel": 0}, {"type": "note_off", "time": 154, "note": 57, "velocity": 97, "channel": 0}, {"type": "note_on", "time": 223, "note": 54, "velocity": 97, "channel": 0}, {"type": "note_off", "time": 91, "note": 54, "velocity": 97, "channel": 0}, {"type": "note_on", "time": 13, "note": 55, "velocity": 91, "channel": 0}, {"type": "note_off", "time": 269, "note": 55, "velocity": 91, "channel": 0}, {"type": "note_on", "time": 17, "note": 52, "velocity": 97, "channel": 0}, {"type": "note_off", "time": 73, "note": 52, "velocity": 97, "channel": 0}, {"type": "note_on", "time": 13, "note": 53, "velocity": 90, "channel": 0}, {"type": "note_off", "time": 122, "note": 53, "velocity": 90, "channel": 0}, {"type": "note_on", "time": 4, "note": 50, "velocity": 91, "channel": 0}, {"type": "note_off", "time": 56, "note": 50, "velocity": 91, "channel": 0}, {"type": "note_on", "time": 498, "note": 44, "velocity": 104, "channel": 0}, {"type": "note_off", "time": 80, "note": 44, "velocity": 104, "channel": 0}, {"type": "note_on", "time": 9, "note": 46, "velocity": 100, "channel": 0}, {"type": "note_off", "time": 47, "note": 46, "velocity": 100, "channel": 0}, {"type": "note_on", "time": 7, "note": 51, "velocity": 96, "channel": 0}, {"type": "note_off", "time": 84, "note": 51, "velocity": 96, "channel": 0}, {"type": "note_on", "time": 22, "note": 53, "velocity": 89, "channel": 0}, {"type": "note_off", "time": 94, "note": 53, "velocity": 89, "channel": 0}, {"type": "note_on", "time": 0, "note": 56, "velocity": 93, "channel": 0}, {"type": "note_off", "time": 57, "note": 56, "velocity": 93, "channel": 0}, {"type": "note_on", "time": 16, "note": 58, "velocity": 94, "channel": 0}, {"type": "note_off", "time": 106, "note": 58, "velocity": 94, "channel": 0}, {"type": "note_on", "time": 7, "note": 63, "velocity": 106, "channel": 0}, {"type": "note_off", "time": 80, "note": 63, "velocity": 106, "channel": 0}, {"type": "note_on", "time": 14, "note": 65, "velocity": 91, "channel": 0}, {"type": "note_off", "time": 77, "note": 65, "velocity": 91, "channel": 0}, {"type": "note_on", "time": 19, "note": 68, "velocity": 95, "channel": 0}, {"type": "note_off", "time": 66, "note": 68, "velocity": 95, "channel": 0}, {"type": "note_on", "time": 21, "note": 69, "velocity": 96, "channel": 0}, {"type": "note_off", "time": 71, "note": 69, "velocity": 96, "channel": 0}, {"type": "note_on", "time": 11, "note": 71, "velocity": 92, "channel": 0}, {"type": "note_off", "time": 66, "note": 71, "velocity": 92, "channel": 0}, {"type": "note_on", "time": 7, "note": 76, "velocity": 88, "channel": 0}, {"type": "note_off", "time": 156, "note": 76, "velocity": 88, "channel": 0}, {"type": "note_on", "time": 607, "note": 45, "velocity": 106, "channel": 0}, {"type": "note_off", "time": 257, "note": 45, "velocity": 106, "channel": 0}, {"type": "note_on", "time": 19, "note": 48, "velocity": 102, "channel": 0}, {"type": "note_off", "time": 77, "note": 48, "velocity": 102, "channel": 0}, {"type": "note_on", "time": 30, "note": 50, "velocity": 95, "channel": 0}, {"type": "note_off", "time": 74, "note": 50, "velocity": 95, "channel": 0}, {"type": "note_on", "time": 26, "note": 52, "velocity": 100, "channel": 0}, {"type": "note_off", "time": 77, "note": 52, "velocity": 100, "channel": 0}, {"type": "note_on", "time": 7, "note": 53, "velocity": 102, "channel": 0}, {"type": "note_off", "time": 106, "note": 53, "velocity": 102, "channel": 0}, {"type": "note_on", "time": 0, "note": 55, "velocity": 97, "channel": 0}, {"type": "note_off", "time": 50, "note": 55, "velocity": 97, "channel": 0}, {"type": "note_on", "time": 7, "note": 56, "velocity": 101, "channel": 0}, {"type": "note_off", "time": 56, "note": 56, "velocity": 101, "channel": 0}, {"type": "note_on", "time": 22, "note": 57, "velocity": 98, "channel": 0}, {"type": "note_off", "time": 47, "note": 57, "velocity": 98, "channel": 0}, {"type": "note_on", "time": 8, "note": 59, "velocity": 94, "channel": 0}, {"type": "note_off", "time": 50, "note": 59, "velocity": 94, "channel": 0}, {"type": "note_on", "time": 26, "note": 60, "velocity": 97, "channel": 0}, {"type": "note_off", "time": 26, "note": 60, "velocity": 97, "channel": 0}, {"type": "note_on", "time": 19, "note": 64, "velocity": 111, "channel": 0}, {"type": "note_off", "time": 67, "note": 64, "velocity": 111, "channel": 0}, {"type": "note_on", "time": 19, "note": 65, "velocity": 97, "channel": 0}, {"type": "note_off", "time": 104, "note": 65, "velocity": 97, "channel": 0}, {"type": "note_on", "time": 29, "note": 69, "velocity": 98, "channel": 0}, {"type": "note_off", "time": 61, "note": 69, "velocity": 98, "channel": 0}, {"type": "note_on", "time": 9, "note": 71, "velocity": 98, "channel": 0}, {"type": "note_off", "time": 60, "note": 71, "velocity": 98, "channel": 0}, {"type": "note_on", "time": 2, "note": 73, "velocity": 99, "channel": 0}, {"type": "note_off", "time": 45, "note": 73, "velocity": 99, "channel": 0}, {"type": "note_on", "time": 4, "note": 74, "velocity": 93, "channel": 0}, {"type": "note_off", "time": 102, "note": 74, "velocity": 93, "channel": 0}, {"type": "note_on", "time": 18, "note": 76, "velocity": 88, "channel": 0}, {"type": "note_off", "time": 392, "note": 76, "velocity": 88, "channel": 0}, {"type": "note_on", "time": 365, "note": 74, "velocity": 105, "channel": 0}, {"type": "note_off", "time": 111, "note": 74, "velocity": 105, "channel": 0}, {"type": "note_on", "time": 2, "note": 72, "velocity": 101, "channel": 0}, {"type": "note_off", "time": 277, "note": 72, "velocity": 101, "channel": 0}, {"type": "note_on", "time": 23, "note": 69, "velocity": 109, "channel": 0}, {"type": "note_off", "time": 137, "note": 69, "velocity": 109, "channel": 0}, {"type": "note_on", "time": 37, "note": 64, "velocity": 86, "channel": 0}, {"type": "note_off", "time": 67, "note": 64, "velocity": 86, "channel": 0}, {"type": "note_on", "time": 30, "note": 70, "velocity": 101, "channel": 0}, {"type": "note_off", "time": 126, "note": 70, "velocity": 101, "channel": 0}, {"type": "note_on", "time": 15, "note": 67, "velocity": 102, "channel": 0}, {"type": "note_off", "time": 135, "note": 67, "velocity": 102, "channel": 0}, {"type": "note_on", "time": 9, "note": 65, "velocity": 94, "channel": 0}, {"type": "note_off", "time": 52, "note": 65, "velocity": 94, "channel": 0}, {"type": "note_on", "time": 4, "note": 68, "velocity": 101, "channel": 0}, {"type": "note_off", "time": 28, "note": 68, "velocity": 101, "channel": 0}, {"type": "note_on", "time": 7, "note": 69, "velocity": 103, "channel": 0}, {"type": "note_off", "time": 140, "note": 69, "velocity": 103, "channel": 0}, {"type": "note_on", "time": 5, "note": 65, "velocity": 97, "channel": 0}, {"type": "note_off", "time": 74, "note": 65, "velocity": 97, "channel": 0}, {"type": "note_on", "time": 16, "note": 62, "velocity": 90, "channel": 0}, {"type": "note_off", "time": 85, "note": 62, "velocity": 90, "channel": 0}, {"type": "note_on", "time": 5, "note": 67, "velocity": 100, "channel": 0}, {"type": "note_off", "time": 142, "note": 67, "velocity": 100, "channel": 0}, {"type": "note_on", "time": 589, "note": 69, "velocity": 111, "channel": 0}, {"type": "note_off", "time": 115, "note": 69, "velocity": 111, "channel": 0}, {"type": "note_on", "time": 2, "note": 68, "velocity": 106, "channel": 0}, {"type": "note_off", "time": 74, "note": 68, "velocity": 106, "channel": 0}, {"type": "note_on", "time": 9, "note": 67, "velocity": 109, "channel": 0}, {"type": "note_off", "time": 108, "note": 67, "velocity": 109, "channel": 0}, {"type": "note_on", "time": 4, "note": 66, "velocity": 107, "channel": 0}, {"type": "note_off", "time": 83, "note": 66, "velocity": 107, "channel": 0}, {"type": "note_on", "time": 14, "note": 65, "velocity": 107, "channel": 0}, {"type": "note_off", "time": 92, "note": 65, "velocity": 107, "channel": 0}, {"type": "note_on", "time": 14, "note": 64, "velocity": 111, "channel": 0}, {"type": "note_off", "time": 88, "note": 64, "velocity": 111, "channel": 0}, {"type": "note_on", "time": 16, "note": 62, "velocity": 105, "channel": 0}, {"type": "note_off", "time": 75, "note": 62, "velocity": 105, "channel": 0}, {"type": "note_on", "time": 7, "note": 60, "velocity": 102, "channel": 0}, {"type": "note_off", "time": 90, "note": 60, "velocity": 102, "channel": 0}, {"type": "note_on", "time": 5, "note": 59, "velocity": 100, "channel": 0}, {"type": "note_off", "time": 61, "note": 59, "velocity": 100, "channel": 0}, {"type": "note_on", "time": 299, "note": 62, "velocity": 115, "channel": 0}, {"type": "note_off", "time": 112, "note": 62, "velocity": 115, "channel": 0}, {"type": "note_on", "time": 11, "note": 60, "velocity": 103, "channel": 0}, {"type": "note_off", "time": 70, "note": 60, "velocity": 103, "channel": 0}, {"type": "note_on", "time": 5, "note": 59, "velocity": 95, "channel": 0}, {"type": "note_off", "time": 75, "note": 59, "velocity": 95, "channel": 0}, {"type": "note_on", "time": 5, "note": 57, "velocity": 101, "channel": 0}, {"type": "note_off", "time": 83, "note": 57, "velocity": 101, "channel": 0}, {"type": "note_on", "time": 15, "note": 56, "velocity": 92, "channel": 0}, {"type": "note_off", "time": 115, "note": 56, "velocity": 92, "channel": 0}, {"type": "note_on", "time": 159, "note": 53, "velocity": 91, "channel": 0}, {"type": "note_off", "time": 95, "note": 53, "velocity": 91, "channel": 0}, {"type": "note_on", "time": 4, "note": 52, "velocity": 91, "channel": 0}, {"type": "note_off", "time": 66, "note": 52, "velocity": 91, "channel": 0}, {"type": "note_on", "time": 35, "note": 60, "velocity": 104, "channel": 0}, {"type": "note_off", "time": 92, "note": 60, "velocity": 104, "channel": 0}, {"type": "note_on", "time": 14, "note": 59, "velocity": 92, "channel": 0}, {"type": "note_off", "time": 90, "note": 59, "velocity": 92, "channel": 0}, {"type": "note_on", "time": 14, "note": 57, "velocity": 101, "channel": 0}, {"type": "note_off", "time": 90, "note": 57, "velocity": 101, "channel": 0}, {"type": "note_on", "time": 8, "note": 56, "velocity": 91, "channel": 0}, {"type": "note_off", "time": 60, "note": 56, "velocity": 91, "channel": 0}, {"type": "note_on", "time": 0, "note": 54, "velocity": 100, "channel": 0}, {"type": "note_off", "time": 68, "note": 54, "velocity": 100, "channel": 0}, {"type": "note_on", "time": 8, "note": 52, "velocity": 99, "channel": 0}, {"type": "note_off", "time": 87, "note": 52, "velocity": 99, "channel": 0}, {"type": "note_on", "time": 35, "note": 53, "velocity": 81, "channel": 0}, {"type": "note_off", "time": 64, "note": 53, "velocity": 81, "channel": 0}, {"type": "note_on", "time": 16, "note": 55, "velocity": 87, "channel": 0}, {"type": "note_off", "time": 81, "note": 55, "velocity": 87, "channel": 0}, {"type": "note_on", "time": 43, "note": 57, "velocity": 104, "channel": 0}, {"type": "note_off", "time": 56, "note": 57, "velocity": 104, "channel": 0}, {"type": "note_on", "time": 8, "note": 58, "velocity": 99, "channel": 0}, {"type": "note_off", "time": 102, "note": 58, "velocity": 99, "channel": 0}, {"type": "note_on", "time": 29, "note": 55, "velocity": 83, "channel": 0}, {"type": "note_off", "time": 42, "note": 55, "velocity": 83, "channel": 0}, {"type": "note_on", "time": 11, "note": 58, "velocity": 95, "channel": 0}, {"type": "note_off", "time": 68, "note": 58, "velocity": 95, "channel": 0}, {"type": "note_on", "time": 14, "note": 57, "velocity": 90, "channel": 0}, {"type": "note_off", "time": 45, "note": 57, "velocity": 90, "channel": 0}, {"type": "note_on", "time": 11, "note": 55, "velocity": 94, "channel": 0}, {"type": "note_off", "time": 61, "note": 55, "velocity": 94, "channel": 0}, {"type": "note_on", "time": 16, "note": 54, "velocity": 95, "channel": 0}, {"type": "note_off", "time": 94, "note": 54, "velocity": 95, "channel": 0}, {"type": "note_on", "time": 39, "note": 52, "velocity": 80, "channel": 0}, {"type": "note_on", "time": 64, "note": 53, "velocity": 95, "channel": 0}, {"type": "note_off", "time": 0, "note": 52, "velocity": 80, "channel": 0}, {"type": "note_off", "time": 111, "note": 53, "velocity": 95, "channel": 0}, {"type": "note_on", "time": 455, "note": 60, "velocity": 110, "channel": 0}, {"type": "note_on", "time": 105, "note": 58, "velocity": 102, "channel": 0}, {"type": "note_off", "time": 0, "note": 60, "velocity": 110, "channel": 0}, {"type": "note_off", "time": 108, "note": 58, "velocity": 102, "channel": 0}, {"type": "note_on", "time": 384, "note": 48, "velocity": 107, "channel": 0}, {"type": "note_off", "time": 104, "note": 48, "velocity": 107, "channel": 0}, {"type": "note_on", "time": 0, "note": 50, "velocity": 105, "channel": 0}, {"type": "note_off", "time": 73, "note": 50, "velocity": 105, "channel": 0}, {"type": "note_on", "time": 8, "note": 52, "velocity": 97, "channel": 0}, {"type": "note_off", "time": 64, "note": 52, "velocity": 97, "channel": 0}, {"type": "note_on", "time": 2, "note": 54, "velocity": 89, "channel": 0}, {"type": "note_off", "time": 56, "note": 54, "velocity": 89, "channel": 0}, {"type": "note_on", "time": 11, "note": 55, "velocity": 101, "channel": 0}, {"type": "note_off", "time": 89, "note": 55, "velocity": 101, "channel": 0}, {"type": "note_on", "time": 17, "note": 56, "velocity": 99, "channel": 0}, {"type": "note_off", "time": 93, "note": 56, "velocity": 99, "channel": 0}, {"type": "note_on", "time": 16, "note": 57, "velocity": 109, "channel": 0}, {"type": "note_off", "time": 94, "note": 57, "velocity": 109, "channel": 0}, {"type": "note_on", "time": 12, "note": 58, "velocity": 102, "channel": 0}, {"type": "note_off", "time": 99, "note": 58, "velocity": 102, "channel": 0}, {"type": "note_on", "time": 21, "note": 55, "velocity": 93, "channel": 0}, {"type": "note_off", "time": 85, "note": 55, "velocity": 93, "channel": 0}, {"type": "note_on", "time": 9, "note": 53, "velocity": 93, "channel": 0}, {"type": "note_off", "time": 97, "note": 53, "velocity": 93, "channel": 0}, {"type": "note_on", "time": 12, "note": 52, "velocity": 85, "channel": 0}, {"type": "note_off", "time": 95, "note": 52, "velocity": 85, "channel": 0}, {"type": "note_on", "time": 25, "note": 53, "velocity": 92, "channel": 0}, {"type": "note_off", "time": 98, "note": 53, "velocity": 92, "channel": 0}, {"type": "note_on", "time": 5, "note": 57, "velocity": 92, "channel": 0}, {"type": "note_off", "time": 73, "note": 57, "velocity": 92, "channel": 0}, {"type": "note_on", "time": 59, "note": 62, "velocity": 101, "channel": 0}, {"type": "note_off", "time": 104, "note": 62, "velocity": 101, "channel": 0}, {"type": "note_on", "time": 95, "note": 58, "velocity": 87, "channel": 0}, {"type": "note_off", "time": 42, "note": 58, "velocity": 87, "channel": 0}, {"type": "note_on", "time": 8, "note": 61, "velocity": 80, "channel": 0}, {"type": "note_off", "time": 50, "note": 61, "velocity": 80, "channel": 0}, {"type": "note_on", "time": 5, "note": 63, "velocity": 87, "channel": 0}, {"type": "note_off", "time": 50, "note": 63, "velocity": 87, "channel": 0}, {"type": "note_on", "time": 12, "note": 64, "velocity": 107, "channel": 0}, {"type": "note_off", "time": 75, "note": 64, "velocity": 107, "channel": 0}, {"type": "note_on", "time": 48, "note": 61, "velocity": 92, "channel": 0}, {"type": "note_off", "time": 59, "note": 61, "velocity": 92, "channel": 0}, {"type": "note_on", "time": 17, "note": 62, "velocity": 98, "channel": 0}, {"type": "note_off", "time": 81, "note": 62, "velocity": 98, "channel": 0}, {"type": "note_on", "time": 8, "note": 64, "velocity": 99, "channel": 0}, {"type": "note_off", "time": 67, "note": 64, "velocity": 99, "channel": 0}, {"type": "note_on", "time": 22, "note": 65, "velocity": 88, "channel": 0}, {"type": "note_off", "time": 75, "note": 65, "velocity": 88, "channel": 0}, {"type": "note_on", "time": 28, "note": 67, "velocity": 87, "channel": 0}, {"type": "note_off", "time": 64, "note": 67, "velocity": 87, "channel": 0}, {"type": "note_on", "time": 19, "note": 68, "velocity": 100, "channel": 0}, {"type": "note_off", "time": 33, "note": 68, "velocity": 100, "channel": 0}, {"type": "note_on", "time": 30, "note": 69, "velocity": 103, "channel": 0}, {"type": "note_off", "time": 348, "note": 69, "velocity": 103, "channel": 0}, {"type": "note_on", "time": 30, "note": 67, "velocity": 94, "channel": 0}, {"type": "note_off", "time": 121, "note": 67, "velocity": 94, "channel": 0}, {"type": "note_on", "time": 28, "note": 65, "velocity": 88, "channel": 0}, {"type": "note_off", "time": 104, "note": 65, "velocity": 88, "channel": 0}, {"type": "end_of_track", "time": 0}]]}