{"ticks_per_beat": 840, "tracks": [[{"type": "note_on", "time": 0, "note": 50, "velocity": 92, "channel": 0}, {"type": "note_off", "time": 160, "note": 50, "velocity": 92, "channel": 0}, {"type": "note_on", "time": 21, "note": 51, "velocity": 93, "channel": 0}, {"type": "note_off", "time": 147, "note": 51, "velocity": 93, "channel": 0}, {"type": "note_on", "time": 16, "note": 52, "velocity": 88, "channel": 0}, {"type": "note_off", "time": 86, "note": 52, "velocity": 88, "channel": 0}, {"type": "note_on", "time": 26, "note": 55, "velocity": 99, "channel": 0}, {"type": "note_off", "time": 86, "note": 55, "velocity": 99, "channel": 0}, {"type": "note_on", "time": 0, "note": 57, "velocity": 104, "channel": 0}, {"type": "note_off", "time": 147, "note": 57, "velocity": 104, "channel": 0}, {"type": "note_on", "time": 0, "note": 58, "velocity": 101, "channel": 0}, {"type": "note_off", "time": 192, "note": 58, "velocity": 101, "channel": 0}, {"type": "note_on", "time": 0, "note": 55, "velocity": 95, "channel": 0}, {"type": "note_off", "time": 117, "note": 55, "velocity": 95, "channel": 0}, {"type": "note_on", "time": 55, "note": 57, "velocity": 103, "channel": 0}, {"type": "note_on", "time": 147, "note": 64, "velocity": 105, "channel": 0}, {"type": "note_off", "time": 0, "note": 57, "velocity": 103, "channel": 0}, {"type": "note_off", "time": 200, "note": 64, "velocity": 105, "channel": 0}, {"type": "note_on", "time": 33, "note": 57, "velocity": 100, "channel": 0}, {"type": "note_off", "time": 160, "note": 57, "velocity": 100, "channel": 0}, {"type": "note_on", "time": 15, "note": 58, "velocity": 101, "channel": 0}, {"type": "note_off", "time": 180, "note": 58, "velocity": 101, "channel": 0}, {"type": "note_on", "time": 0, "note": 63, "velocity": 97, "channel": 0}, {"type": "note_off", "time": 113, "note": 63, "velocity": 97, "channel": 0}, {"type": "note_on", "time": 11, "note": 64, "velocity": 100, "channel": 0}, {"type": "note_off", "time": 200, "note": 64, "velocity": 100, "channel": 0}, {"type": "note_on", "time": 3, "note": 67, "velocity": 94, "channel": 0}, {"type": "note_off", "time": 158, "note": 67, "velocity": 94, "channel": 0}, {"type": "note_on", "time": 0, "note": 70, "velocity": 101, "channel": 0}, {"type": "note_off", "time": 173, "note": 70, "velocity": 101, "channel": 0}, {"type": "note_on", "time": 51, "note": 67, "velocity": 88, "channel": 0}, {"type": "note_off", "time": 147, "note": 67, "velocity": 88, "channel": 0}, {"type": "note_on", "time": 20, "note": 69, "velocity": 107, "channel": 0}, {"type": "note_off", "time": 243, "note": 69, "velocity": 107, "channel": 0}, {"type": "note_on", "time": 160, "note": 62, "velocity": 89, "channel": 0}, {"type": "note_off", "time": 173, "note": 62, "velocity": 89, "channel": 0}, {"type": "note_on", "time": 66, "note": 67, "velocity": 89, "channel": 0}, {"type": "note_off", "time": 356, "note": 67, "velocity": 89, "channel": 0}, {"type": "note_on", "time": 46, "note": 65, "velocity": 92, "channel": 0}, {"type": "note_off", "time": 130, "note": 65, "velocity": 92, "channel": 0}, {"type": "note_on", "time": 17, "note": 61, "velocity": 91, "channel": 0}, {"type": "note_off", "time": 156, "note": 61, "velocity": 91, "channel": 0}, {"type": "note_on", "time": 21, "note": 58, "velocity": 100, "channel": 0}, {"type": "note_off", "time": 256, "note": 58, "velocity": 100, "channel": 0}, {"type": "note_on", "time": 277, "note": 57, "velocity": 99, "channel": 0}, {"type": "note_off", "time": 252, "note": 57, "velocity": 99, "channel": 0}, {"type": "note_on", "time": 83, "note": 61, "velocity": 92, "channel": 0}, {"type": "note_off", "time": 565, "note": 61, "velocity": 92, "channel": 0}, {"type": "note_on", "time": 34, "note": 57, "velocity": 102, "channel": 0}, {"type": "note_off", "time": 239, "note": 57, "velocity": 102, "channel": 0}, {"type": "note_on", "time": 265, "note": 56, "velocity": 98, "channel": 0}, {"type": "note_off", "time": 365, "note": 56, "velocity": 98, "channel": 0}, {"type": "note_on", "time": 1, "note": 52, "velocity": 84, "channel": 0}, {"type": "note_off", "time": 178, "note": 52, "velocity": 84, "channel": 0}, {"type": "note_on", "time": 23, "note": 50, "velocity": 84, "channel": 0}, {"type": "note_off", "time": 212, "note": 50, "velocity": 84, "channel": 0}, {"type": "note_on", "time": 19, "note": 55, "velocity": 94, "channel": 0}, {"type": "note_off", "time": 252, "note": 55, "velocity": 94, "channel": 0}, {"type": "note_on", "time": 69, "note": 53, "velocity": 87, "channel": 0}, {"type": "note_off", "time": 234, "note": 53, "velocity": 87, "channel": 0}, {"type": "note_on", "time": 69, "note": 56, "velocity": 94, "channel": 0}, {"type": "track_name", "name": "Melody", "time": 73}, {"type": "set_tempo", "tempo": 560747, "time": 0}, {"type": "key_signature", "key": "C", "time": 0}, {"type": "time_signature", "numerator": 4, "denominator": 4, "clocks_per_click": 24, "notated_32nd_notes_per_beat": 8, "time": 0}, {"type": "note_off", "time": 552, "note": 56, "velocity": 94, "channel": 0}, {"type": "note_on", "time": 560, "note": 55, "velocity": 98, "channel": 0}, {"type": "note_off", "time": 143, "note": 55, "velocity": 98, "channel": 0}, {"type": "note_on", "time": 17, "note": 56, "velocity": 96, "channel": 0}, {"type": "note_off", "time": 156, "note": 56, "velocity": 96, "channel": 0}, {"type": "note_on", "time": 95, "note": 58, "velocity": 104, "channel": 0}, {"type": "note_on", "time": 173, "note": 59, "velocity": 101, "channel": 0}, {"type": "note_off", "time": 0, "note": 58, "velocity": 104, "channel": 0}, {"type": "note_off", "time": 177, "note": 59, "velocity": 101, "channel": 0}, {"type": "note_on", "time": 0, "note": 62, "velocity": 110, "channel": 0}, {"type": "note_off", "time": 139, "note": 62, "velocity": 110, "channel": 0}, {"type": "note_on", "time": 38, "note": 65, "velocity": 99, "channel": 0}, {"type": "note_off", "time": 244, "note": 65, "velocity": 99, "channel": 0}, {"type": "note_on", "time": 0, "note": 68, "velocity": 114, "channel": 0}, {"type": "note_off", "time": 234, "note": 68, "velocity": 114, "channel": 0}, {"type": "note_on", "time": 9, "note": 66, "velocity": 102, "channel": 0}, {"type": "note_off", "time": 208, "note": 66, "velocity": 102, "channel": 0}, {"type": "note_on", "time": 7, "note": 67, "velocity": 96, "channel": 0}, {"type": "note_off", "time": 200, "note": 67, "velocity": 96, "channel": 0}, {"type": "note_on", "time": 44, "note": 61, "velocity": 92, "channel": 0}, {"type": "note_off", "time": 247, "note": 61, "velocity": 92, "channel": 0}, {"type": "note_on", "time": 43, "note": 63, "velocity": 82, "channel": 0}, {"type": "note_off", "time": 156, "note": 63, "velocity": 82, "channel": 0}, {"type": "note_on", "time": 10, "note": 66, "velocity": 104, "channel": 0}, {"type": "note_off", "time": 217, "note": 66, "velocity": 104, "channel": 0}, {"type": "note_on", "time": 71, "note": 63, "velocity": 80, "channel": 0}, {"type": "note_off", "time": 121, "note": 63, "velocity": 80, "channel": 0}, {"type": "note_on", "time": 56, "note": 64, "velocity": 103, "channel": 0}, {"type": "note_off", "time": 495, "note": 64, "velocity": 103, "channel": 0}, {"type": "note_on", "time": 40, "note": 62, "velocity": 99, "channel": 0}, {"type": "note_off", "time": 220, "note": 62, "velocity": 99, "channel": 0}, {"type": "note_on", "time": 6, "note": 60, "velocity": 94, "channel": 0}, {"type": "note_off", "time": 214, "note": 60, "velocity": 94, "channel": 0}, {"type": "note_on", "time": 36, "note": 56, "velocity": 102, "channel": 0}, {"type": "note_off", "time": 256, "note": 56, "velocity": 102, "channel": 0}, {"type": "note_on", "time": 16, "note": 55, "velocity": 100, "channel": 0}, {"type": "note_off", "time": 213, "note": 55, "velocity": 100, "channel": 0}, {"type": "note_on", "time": 26, "note": 53, "velocity": 87, "channel": 0}, {"type": "note_off", "time": 156, "note": 53, "velocity": 87, "channel": 0}, {"type": "note_on", "time": 160, "note": 48, "velocity": 75, "channel": 0}, {"type": "note_off", "time": 186, "note": 48, "velocity": 75, "channel": 0}, {"type": "note_on", "time": 173, "note": 52, "velocity": 88, "channel": 0}, {"type": "note_off", "time": 360, "note": 52, "velocity": 88, "channel": 0}, {"type": "note_on", "time": 113, "note": 48, "velocity": 84, "channel": 0}, {"type": "note_off", "time": 197, "note": 48, "velocity": 84, "channel": 0}, {"type": "note_on", "time": 33, "note": 47, "velocity": 90, "channel": 0}, {"type": "note_off", "time": 152, "note": 47, "velocity": 90, "channel": 0}, {"type": "note_on", "time": 30, "note": 50, "velocity": 84, "channel": 0}, {"type": "note_off", "time": 270, "note": 50, "velocity": 84, "channel": 0}, {"type": "note_on", "time": 158, "note": 48, "velocity": 84, "channel": 0}, {"type": "note_off", "time": 521, "note": 48, "velocity": 84, "channel": 0}, {"type": "note_on", "time": 1016, "note": 59, "velocity": 106, "channel": 0}, {"type": "note_off", "time": 260, "note": 59, "velocity": 106, "channel": 0}, {"type": "note_on", "time": 20, "note": 57, "velocity": 109, "channel": 0}, {"type": "note_off", "time": 321, "note": 57, "velocity": 109, "channel": 0}, {"type": "note_on", "time": 9, "note": 53, "velocity": 99, "channel": 0}, {"type": "note_off", "time": 252, "note": 53, "velocity": 99, "channel": 0}, {"type": "note_on", "time": 32, "note": 52, "velocity": 90, "channel": 0}, {"type": "note_off", "time": 221, "note": 52, "velocity": 90, "channel": 0}, {"type": "note_on", "time": 150, "note": 55, "velocity": 104, "channel": 0}, {"type": "note_off", "time": 304, "note": 55, "velocity": 104, "channel": 0}, {"type": "note_on", "time": 15, "note": 53, "velocity": 90, "channel": 0}, {"type": "note_off", "time": 191, "note": 53, "velocity": 90, "channel": 0}, {"type": "note_on", "time": 26, "note": 52, "velocity": 84, "channel": 0}, {"type": "note_off", "time": 104, "note": 52, "velocity": 84, "channel": 0}, {"type": "note_on", "time": 56, "note": 50, "velocity": 77, "channel": 0}, {"type": "note_off", "time": 560, "note": 50, "velocity": 77, "channel": 0}, {"type": "note_on", "time": 1634, "note": 62, "velocity": 117, "channel": 0}, {"type": "note_off", "time": 313, "note": 62, "velocity": 117, "channel": 0}, {"type": "note_on", "time": 118, "note": 62, "velocity": 111, "channel": 0}, {"type": "note_off", "time": 395, "note": 62, "velocity": 111, "channel": 0}, {"type": "note_on", "time": 51, "note": 64, "velocity": 115, "channel": 0}, {"type": "note_off", "time": 321, "note": 64, "velocity": 115, "channel": 0}, {"type": "note_on", "time": 34, "note": 60, "velocity": 105, "channel": 0}, {"type": "note_off", "time": 339, "note": 60, "velocity": 105, "channel": 0}, {"type": "note_on", "time": 83, "note": 60, "velocity": 106, "channel": 0}, {"type": "note_off", "time": 332, "note": 60, "velocity": 106, "channel": 0}, {"type": "note_on", "time": 57, "note": 62, "velocity": 99, "channel": 0}, {"type": "note_off", "time": 313, "note": 62, "velocity": 99, "channel": 0}, {"type": "note_on", "time": 134, "note": 60, "velocity": 104, "channel": 0}, {"type": "note_off", "time": 260, "note": 60, "velocity": 104, "channel": 0}, {"type": "note_on", "time": 60, "note": 62, "velocity": 96, "channel": 0}, {"type": "note_off", "time": 313, "note": 62, "velocity": 96, "channel": 0}, {"type": "note_on", "time": 90, "note": 59, "velocity": 106, "channel": 0}, {"type": "note_off", "time": 426, "note": 59, "velocity": 106, "channel": 0}, {"type": "note_on", "time": 95, "note": 59, "velocity": 98, "channel": 0}, {"type": "note_off", "time": 426, "note": 59, "velocity": 98, "channel": 0}, {"type": "note_on", "time": 170, "note": 58, "velocity": 100, "channel": 0}, {"type": "note_off", "time": 415, "note": 58, "velocity": 100, "channel": 0}, {"type": "note_on", "time": 63, "note": 56, "velocity": 93, "channel": 0}, {"type": "note_off", "time": 460, "note": 56, "velocity": 93, "channel": 0}, {"type": "note_on", "time": 156, "note": 56, "velocity": 99, "channel": 0}, {"type": "note_off", "time": 247, "note": 56, "velocity": 99, "channel": 0}, {"type": "note_on", "time": 0, "note": 58, "velocity": 95, "channel": 0}, {"type": "note_off", "time": 339, "note": 58, "velocity": 95, "channel": 0}, {"type": "note_on", "time": 95, "note": 58, "velocity": 92, "channel": 0}, {"type": "note_off", "time": 565, "note": 58, "velocity": 92, "channel": 0}, {"type": "note_on", "time": 47, "note": 55, "velocity": 92, "channel": 0}, {"type": "note_off", "time": 613, "note": 55, "velocity": 92, "channel": 0}, {"type": "note_on", "time": 1204, "note": 57, "velocity": 109, "channel": 0}, {"type": "note_off", "time": 391, "note": 57, "velocity": 109, "channel": 0}, {"type": "note_on", "time": 47, "note": 52, "velocity": 98, "channel": 0}, {"type": "note_off", "time": 243, "note": 52, "velocity": 98, "channel": 0}, {"type": "note_on", "time": 169, "note": 55, "velocity": 104, "channel": 0}, {"type": "note_off", "time": 269, "note": 55, "velocity": 104, "channel": 0}, {"type": "note_on", "time": 95, "note": 53, "velocity": 93, "channel": 0}, {"type": "note_off", "time": 321, "note": 53, "velocity": 93, "channel": 0}, {"type": "note_on", "time": 130, "note": 53, "velocity": 93, "channel": 0}, {"type": "note_off", "time": 330, "note": 53, "velocity": 93, "channel": 0}, {"type": "note_on", "time": 69, "note": 55, "velocity": 100, "channel": 0}, {"type": "note_off", "time": 365, "note": 55, "velocity": 100, "channel": 0}, {"type": "note_on", "time": 130, "note": 56, "velocity": 103, "channel": 0}, {"type": "note_off", "time": 730, "note": 56, "velocity": 103, "channel": 0}, {"type": "note_on", "time": 156, "note": 58, "velocity": 102, "channel": 0}, {"type": "note_off", "time": 243, "note": 58, "velocity": 102, "channel": 0}, {"type": "note_on", "time": 0, "note": 59, "velocity": 99, "channel": 0}, {"type": "note_off", "time": 226, "note": 59, "velocity": 99, "channel": 0}, {"type": "note_on", "time": 34, "note": 62, "velocity": 100, "channel": 0}, {"type": "note_on", "time": 217, "note": 64, "velocity": 83, "channel": 0}, {"type": "note_off", "time": 0, "note": 62, "velocity": 100, "channel": 0}, {"type": "note_off", "time": 1058, "note": 64, "velocity": 83, "channel": 0}, {"type": "note_on", "time": 1709, "note": 65, "velocity": 106, "channel": 0}, {"type": "note_off", "time": 95, "note": 65, "velocity": 106, "channel": 0}, {"type": "note_on", "time": 14, "note": 64, "velocity": 109, "channel": 0}, {"type": "note_off", "time": 156, "note": 64, "velocity": 109, "channel": 0}, {"type": "note_on", "time": 6, "note": 62, "velocity": 105, "channel": 0}, {"type": "note_off", "time": 139, "note": 62, "velocity": 105, "channel": 0}, {"type": "note_on", "time": 11, "note": 61, "velocity": 100, "channel": 0}, {"type": "note_off", "time": 109, "note": 61, "velocity": 100, "channel": 0}, {"type": "note_on", "time": 55, "note": 59, "velocity": 104, "channel": 0}, {"type": "note_off", "time": 114, "note": 59, "velocity": 104, "channel": 0}, {"type": "note_on", "time": 36, "note": 58, "velocity": 103, "channel": 0}, {"type": "note_off", "time": 156, "note": 58, "velocity": 103, "channel": 0}, {"type": "note_on", "time": 30, "note": 57, "velocity": 109, "channel": 0}, {"type": "note_off", "time": 121, "note": 57, "velocity": 109, "channel": 0}, {"type": "note_on", "time": 16, "note": 56, "velocity": 103, "channel": 0}, {"type": "note_off", "time": 115, "note": 56, "velocity": 103, "channel": 0}, {"type": "note_on", "time": 93, "note": 58, "velocity": 103, "channel": 0}, {"type": "note_off", "time": 104, "note": 58, "velocity": 103, "channel": 0}, {"type": "note_on", "time": 45, "note": 62, "velocity": 102, "channel": 0}, {"type": "note_off", "time": 147, "note": 62, "velocity": 102, "channel": 0}, {"type": "note_on", "time": 8, "note": 60, "velocity": 101, "channel": 0}, {"type": "note_off", "time": 130, "note": 60, "velocity": 101, "channel": 0}, {"type": "note_on", "time": 0, "note": 56, "velocity": 100, "channel": 0}, {"type": "note_off", "time": 134, "note": 56, "velocity": 100, "channel": 0}, {"type": "note_on", "time": 367, "note": 58, "velocity": 106, "channel": 0}, {"type": "note_off", "time": 243, "note": 58, "velocity": 106, "channel": 0}, {"type": "note_on", "time": 34, "note": 55, "velocity": 91, "channel": 0}, {"type": "note_off", "time": 168, "note": 55, "velocity": 91, "channel": 0}, {"type": "note_on", "time": 38, "note": 56, "velocity": 105, "channel": 0}, {"type": "note_off", "time": 232, "note": 56, "velocity": 105, "channel": 0}, {"type": "note_on", "time": 209, "note": 50, "velocity": 83, "channel": 0}, {"type": "note_off", "time": 130, "note": 50, "velocity": 83, "channel": 0}, {"type": "note_on", "time": 51, "note": 55, "velocity": 104, "channel": 0}, {"type": "note_off", "time": 182, "note": 55, "velocity": 104, "channel": 0}, {"type": "note_on", "time": 303, "note": 50, "velocity": 81, "channel": 0}, {"type": "note_off", "time": 178, "note": 50, "velocity": 81, "channel": 0}, {"type": "note_on", "time": 51, "note": 53, "velocity": 95, "channel": 0}, {"type": "note_off", "time": 295, "note": 53, "velocity": 95, "channel": 0}, {"type": "note_on", "time": 135, "note": 52, "velocity": 89, "channel": 0}, {"type": "note_off", "time": 286, "note": 52, "velocity": 89, "channel": 0}, {"type": "note_on", "time": 34, "note": 55, "velocity": 88, "channel": 0}, {"type": "note_off", "time": 730, "note": 55, "velocity": 88, "channel": 0}, {"type": "note_on", "time": 110, "note": 52, "velocity": 93, "channel": 0}, {"type": "note_off", "time": 321, "note": 52, "velocity": 93, "channel": 0}, {"type": "note_on", "time": 36, "note": 50, "velocity": 87, "channel": 0}, {"type": "note_off", "time": 278, "note": 50, "velocity": 87, "channel": 0}, {"type": "note_on", "time": 8, "note": 48, "velocity": 84, "channel": 0}, {"type": "note_off", "time": 282, "note": 48, "velocity": 84, "channel": 0}, {"type": "note_on", "time": 197, "note": 52, "velocity": 83, "channel": 0}, {"type": "note_off", "time": 478, "note": 52, "velocity": 83, "channel": 0}, {"type": "note_on", "time": 212, "note": 48, "velocity": 93, "channel": 0}, {"type": "note_off", "time": 234, "note": 48, "velocity": 93, "channel": 0}, {"type": "note_on", "time": 29, "note": 45, "velocity": 91, "channel": 0}, {"type": "note_off", "time": 831, "note": 45, "velocity": 91, "channel": 0}, {"type": "note_on", "time": 2849, "note": 48, "velocity": 83, "channel": 0}, {"type": "note_off", "time": 177, "note": 48, "velocity": 83, "channel": 0}, {"type": "note_on", "time": 30, "note": 50, "velocity": 86, "channel": 0}, {"type": "note_off", "time": 143, "note": 50, "velocity": 86, "channel": 0}, {"type": "note_on", "time": 22, "note": 53, "velocity": 92, "channel": 0}, {"type": "note_off", "time": 165, "note": 53, "velocity": 92, "channel": 0}, {"type": "note_on", "time": 2, "note": 56, "velocity": 106, "channel": 0}, {"type": "note_off", "time": 206, "note": 56, "velocity": 106, "channel": 0}, {"type": "note_on", "time": 30, "note": 54, "velocity": 93, "channel": 0}, {"type": "note_off", "time": 190, "note": 54, "velocity": 93, "channel": 0}, {"type": "note_on", "time": 17, "note": 55, "velocity": 97, "channel": 0}, {"type": "note_off", "time": 165, "note": 55, "velocity": 97, "channel": 0}, {"type": "note_on", "time": 29, "note": 58, "velocity": 110, "channel": 0}, {"type": "note_off", "time": 217, "note": 58, "velocity": 110, "channel": 0}, {"type": "note_on", "time": 26, "note": 55, "velocity": 99, "channel": 0}, {"type": "note_off", "time": 148, "note": 55, "velocity": 99, "channel": 0}, {"type": "note_on", "time": 23, "note": 56, "velocity": 107, "channel": 0}, {"type": "note_off", "time": 188, "note": 56, "velocity": 107, "channel": 0}, {"type": "note_on", "time": 44, "note": 58, "velocity": 109, "channel": 0}, {"type": "note_off", "time": 175, "note": 58, "velocity": 109, "channel": 0}, {"type": "note_on", "time": 35, "note": 59, "velocity": 93, "channel": 0}, {"type": "note_off", "time": 126, "note": 59, "velocity": 93, "channel": 0}, {"type": "note_on", "time": 39, "note": 60, "velocity": 111, "channel": 0}, {"type": "note_off", "time": 189, "note": 60, "velocity": 111, "channel": 0}, {"type": "note_on", "time": 19, "note": 61, "velocity": 102, "channel": 0}, {"type": "note_off", "time": 106, "note": 61, "velocity": 102, "channel": 0}, {"type": "note_on", "time": 16, "note": 63, "velocity": 102, "channel": 0}, {"type": "note_off", "time": 156, "note": 63, "velocity": 102, "channel": 0}, {"type": "note_on", "time": 15, "note": 64, "velocity": 108, "channel": 0}, {"type": "note_off", "time": 201, "note": 64, "velocity": 108, "channel": 0}, {"type": "note_on", "time": 21, "note": 65, "velocity": 104, "channel": 0}, {"type": "note_off", "time": 79, "note": 65, "velocity": 104, "channel": 0}, {"type": "note_on", "time": 15, "note": 66, "velocity": 107, "channel": 0}, {"type": "note_off", "time": 174, "note": 66, "velocity": 107, "channel": 0}, {"type": "note_on", "time": 51, "note": 67, "velocity": 106, "channel": 0}, {"type": "note_off", "time": 234, "note": 67, "velocity": 106, "channel": 0}, {"type": "note_on", "time": 18, "note": 64, "velocity": 107, "channel": 0}, {"type": "note_off", "time": 139, "note": 64, "velocity": 107, "channel": 0}, {"type": "note_on", "time": 42, "note": 60, "velocity": 108, "channel": 0}, {"type": "note_off", "time": 191, "note": 60, "velocity": 108, "channel": 0}, {"type": "note_on", "time": 87, "note": 55, "velocity": 86, "channel": 0}, {"type": "note_off", "time": 100, "note": 55, "velocity": 86, "channel": 0}, {"type": "note_on", "time": 21, "note": 59, "velocity": 100, "channel": 0}, {"type": "note_off", "time": 226, "note": 59, "velocity": 100, "channel": 0}, {"type": "note_on", "time": 36, "note": 57, "velocity": 97, "channel": 0}, {"type": "note_off", "time": 214, "note": 57, "velocity": 97, "channel": 0}, {"type": "note_on", "time": 16, "note": 58, "velocity": 107, "channel": 0}, {"type": "note_off", "time": 246, "note": 58, "velocity": 107, "channel": 0}, {"type": "note_on", "time": 103, "note": 56, "velocity": 102, "channel": 0}, {"type": "note_off", "time": 278, "note": 56, "velocity": 102, "channel": 0}, {"type": "note_on", "time": 134, "note": 52, "velocity": 91, "channel": 0}, {"type": "note_off", "time": 128, "note": 52, "velocity": 91, "channel": 0}, {"type": "note_on", "time": 15, "note": 51, "velocity": 90, "channel": 0}, {"type": "note_off", "time": 253, "note": 51, "velocity": 90, "channel": 0}, {"type": "note_on", "time": 41, "note": 53, "velocity": 91, "channel": 0}, {"type": "note_off", "time": 469, "note": 53, "velocity": 91, "channel": 0}, {"type": "note_on", "time": 33, "note": 53, "velocity": 92, "channel": 0}, {"type": "note_off", "time": 513, "note": 53, "velocity": 92, "channel": 0}, {"type": "note_on", "time": 40, "note": 52, "velocity": 88, "channel": 0}, {"type": "note_off", "time": 168, "note": 52, "velocity": 88, "channel": 0}, {"type": "note_on", "time": 61, "note": 55, "velocity": 89, "channel": 0}, {"type": "note_off", "time": 859, "note": 55, "velocity": 89, "channel": 0}, {"type": "note_on", "time": 403, "note": 57, "velocity": 76, "channel": 0}, {"type": "note_off", "time": 95, "note": 57, "velocity": 76, "channel": 0}, {"type": "note_on", "time": 21, "note": 59, "velocity": 95, "channel": 0}, {"type": "note_off", "time": 202, "note": 59, "velocity": 95, "channel": 0}, {"type": "note_on", "time": 22, "note": 62, "velocity": 115, "channel": 0}, {"type": "note_off", "time": 330, "note": 62, "velocity": 115, "channel": 0}, {"type": "note_on", "time": 85, "note": 59, "velocity": 80, "channel": 0}, {"type": "note_off", "time": 170, "note": 59, "velocity": 80, "channel": 0}, {"type": "note_on", "time": 81, "note": 60, "velocity": 108, "channel": 0}, {"type": "note_off", "time": 382, "note": 60, "velocity": 108, "channel": 0}, {"type": "note_on", "time": 557, "note": 57, "velocity": 96, "channel": 0}, {"type": "note_off", "time": 923, "note": 57, "velocity": 96, "channel": 0}, {"type": "note_on", "time": 505, "note": 55, "velocity": 106, "channel": 0}, {"type": "note_off", "time": 162, "note": 55, "velocity": 106, "channel": 0}, {"type": "note_on", "time": 26, "note": 53, "velocity": 83, "channel": 0}, {"type": "note_off", "time": 973, "note": 53, "velocity": 83, "channel": 0}, {"type": "note_on", "time": 407, "note": 52, "velocity": 93, "channel": 0}, {"type": "note_off", "time": 204, "note": 52, "velocity": 93, "channel": 0}, {"type": "note_on", "time": 122, "note": 48, "velocity": 87, "channel": 0}, {"type": "note_off", "time": 565, "note": 48, "velocity": 87, "channel": 0}, {"type": "note_on", "time": 1582, "note": 48, "velocity": 101, "channel": 0}, {"type": "note_off", "time": 217, "note": 48, "velocity": 101, "channel": 0}, {"type": "note_on", "time": 3, "note": 47, "velocity": 99, "channel": 0}, {"type": "note_off", "time": 252, "note": 47, "velocity": 99, "channel": 0}, {"type": "note_on", "time": 32, "note": 46, "velocity": 99, "channel": 0}, {"type": "note_off", "time": 321, "note": 46, "velocity": 99, "channel": 0}, {"type": "note_on", "time": 45, "note": 48, "velocity": 88, "channel": 0}, {"type": "note_off", "time": 244, "note": 48, "velocity": 88, "channel": 0}, {"type": "note_on", "time": 49, "note": 45, "velocity": 99, "channel": 0}, {"type": "note_off", "time": 730, "note": 45, "velocity": 99, "channel": 0}, {"type": "note_on", "time": 1440, "note": 69, "velocity": 115, "channel": 0}, {"type": "note_off", "time": 626, "note": 69, "velocity": 115, "channel": 0}, {"type": "note_on", "time": 39, "note": 69, "velocity": 107, "channel": 0}, {"type": "note_off", "time": 324, "note": 69, "velocity": 107, "channel": 0}, {"type": "note_on", "time": 30, "note": 66, "velocity": 106, "channel": 0}, {"type": "note_off", "time": 217, "note": 66, "velocity": 106, "channel": 0}, {"type": "note_on", "time": 16, "note": 63, "velocity": 101, "channel": 0}, {"type": "note_off", "time": 260, "note": 63, "velocity": 101, "channel": 0}, {"type": "note_on", "time": 45, "note": 57, "velocity": 106, "channel": 0}, {"type": "note_off", "time": 281, "note": 57, "velocity": 106, "channel": 0}, {"type": "note_on", "time": 25, "note": 61, "velocity": 102, "channel": 0}, {"type": "note_off", "time": 304, "note": 61, "velocity": 102, "channel": 0}, {"type": "note_on", "time": 20, "note": 57, "velocity": 106, "channel": 0}, {"type": "note_off", "time": 259, "note": 57, "velocity": 106, "channel": 0}, {"type": "note_on", "time": 118, "note": 59, "velocity": 100, "channel": 0}, {"type": "note_off", "time": 247, "note": 59, "velocity": 100, "channel": 0}, {"type": "note_on", "time": 79, "note": 54, "velocity": 89, "channel": 0}, {"type": "note_off", "time": 272, "note": 54, "velocity": 89, "channel": 0}, {"type": "note_on", "time": 94, "note": 52, "velocity": 91, "channel": 0}, {"type": "note_off", "time": 247, "note": 52, "velocity": 91, "channel": 0}, {"type": "note_on", "time": 74, "note": 49, "velocity": 84, "channel": 0}, {"type": "note_off", "time": 209, "note": 49, "velocity": 84, "channel": 0}, {"type": "note_on", "time": 145, "note": 53, "velocity": 88, "channel": 0}, {"type": "note_off", "time": 382, "note": 53, "velocity": 88, "channel": 0}, {"type": "note_on", "time": 95, "note": 49, "velocity": 82, "channel": 0}, {"type": "note_off", "time": 321, "note": 49, "velocity": 82, "channel": 0}, {"type": "note_on", "time": 124, "note": 47, "velocity": 94, "channel": 0}, {"type": "note_off", "time": 281, "note": 47, "velocity": 94, "channel": 0}, {"type": "note_on", "time": 1892, "note": 50, "velocity": 90, "channel": 0}, {"type": "note_off", "time": 68, "note": 50, "velocity": 90, "channel": 0}, {"type": "note_on", "time": 10, "note": 51, "velocity": 90, "channel": 0}, {"type": "note_off", "time": 135, "note": 51, "velocity": 90, "channel": 0}, {"type": "note_on", "time": 46, "note": 52, "velocity": 93, "channel": 0}, {"type": "note_off", "time": 140, "note": 52, "velocity": 93, "channel": 0}, {"type": "note_on", "time": 58, "note": 54, "velocity": 97, "channel": 0}, {"type": "note_off", "time": 172, "note": 54, "velocity": 97, "channel": 0}, {"type": "note_on", "time": 40, "note": 57, "velocity": 115, "channel": 0}, {"type": "note_off", "time": 240, "note": 57, "velocity": 115, "channel": 0}, {"type": "note_on", "time": 1, "note": 54, "velocity": 93, "channel": 0}, {"type": "note_off", "time": 183, "note": 54, "velocity": 93, "channel": 0}, {"type": "note_on", "time": 73, "note": 61, "velocity": 101, "channel": 0}, {"type": "note_off", "time": 295, "note": 61, "velocity": 101, "channel": 0}, {"type": "note_on", "time": 393, "note": 61, "velocity": 103, "channel": 0}, {"type": "note_off", "time": 156, "note": 61, "velocity": 103, "channel": 0}, {"type": "note_on", "time": 21, "note": 62, "velocity": 108, "channel": 0}, {"type": "note_off", "time": 260, "note": 62, "velocity": 108, "channel": 0}, {"type": "note_on", "time": 5, "note": 64, "velocity": 116, "channel": 0}, {"type": "note_off", "time": 139, "note": 64, "velocity": 116, "channel": 0}, {"type": "note_on", "time": 1, "note": 66, "velocity": 103, "channel": 0}, {"type": "note_off", "time": 157, "note": 66, "velocity": 103, "channel": 0}, {"type": "note_on", "time": 13, "note": 69, "velocity": 110, "channel": 0}, {"type": "note_off", "time": 200, "note": 69, "velocity": 110, "channel": 0}, {"type": "note_on", "time": 32, "note": 72, "velocity": 108, "channel": 0}, {"type": "note_off", "time": 136, "note": 72, "velocity": 108, "channel": 0}, {"type": "note_on", "time": 16, "note": 73, "velocity": 78, "channel": 0}, {"type": "note_off", "time": 1537, "note": 73, "velocity": 78, "channel": 0}, {"type": "note_on", "time": 1394, "note": 69, "velocity": 114, "channel": 0}, {"type": "note_off", "time": 191, "note": 69, "velocity": 114, "channel": 0}, {"type": "note_on", "time": 43, "note": 72, "velocity": 112, "channel": 0}, {"type": "note_off", "time": 116, "note": 72, "velocity": 112, "channel": 0}, {"type": "note_on", "time": 18, "note": 73, "velocity": 105, "channel": 0}, {"type": "note_off", "time": 192, "note": 73, "velocity": 105, "channel": 0}, {"type": "note_on", "time": 18, "note": 72, "velocity": 84, "channel": 0}, {"type": "note_off", "time": 168, "note": 72, "velocity": 84, "channel": 0}, {"type": "note_on", "time": 125, "note": 72, "velocity": 111, "channel": 0}, {"type": "note_off", "time": 174, "note": 72, "velocity": 111, "channel": 0}, {"type": "note_on", "time": 12, "note": 73, "velocity": 102, "channel": 0}, {"type": "note_off", "time": 204, "note": 73, "velocity": 102, "channel": 0}, {"type": "note_on", "time": 0, "note": 72, "velocity": 99, "channel": 0}, {"type": "note_off", "time": 76, "note": 72, "velocity": 99, "channel": 0}, {"type": "note_on", "time": 10, "note": 69, "velocity": 113, "channel": 0}, {"type": "note_off", "time": 278, "note": 69, "velocity": 113, "channel": 0}, {"type": "note_on", "time": 131, "note": 69, "velocity": 105, "channel": 0}, {"type": "note_off", "time": 330, "note": 69, "velocity": 105, "channel": 0}, {"type": "note_on", "time": 27, "note": 68, "velocity": 91, "channel": 0}, {"type": "note_off", "time": 84, "note": 68, "velocity": 91, "channel": 0}, {"type": "note_on", "time": 165, "note": 69, "velocity": 104, "channel": 0}, {"type": "note_off", "time": 322, "note": 69, "velocity": 104, "channel": 0}, {"type": "note_on", "time": 143, "note": 68, "velocity": 95, "channel": 0}, {"type": "note_off", "time": 78, "note": 68, "velocity": 95, "channel": 0}, {"type": "note_on", "time": 15, "note": 69, "velocity": 107, "channel": 0}, {"type": "note_off", "time": 275, "note": 69, "velocity": 107, "channel": 0}, {"type": "note_on", "time": 30, "note": 68, "velocity": 95, "channel": 0}, {"type": "note_off", "time": 91, "note": 68, "velocity": 95, "channel": 0}, {"type": "note_on", "time": 12, "note": 69, "velocity": 100, "channel": 0}, {"type": "note_off", "time": 382, "note": 69, "velocity": 100, "channel": 0}, {"type": "note_on", "time": 85, "note": 67, "velocity": 92, "channel": 0}, {"type": "note_off", "time": 261, "note": 67, "velocity": 92, "channel": 0}, {"type": "note_on", "time": 228, "note": 67, "velocity": 91, "channel": 0}, {"type": "note_off", "time": 382, "note": 67, "velocity": 91, "channel": 0}, {"type": "note_on", "time": 267, "note": 67, "velocity": 88, "channel": 0}, {"type": "note_off", "time": 324, "note": 67, "velocity": 88, "channel": 0}, {"type": "note_on", "time": 162, "note": 65, "velocity": 81, "channel": 0}, {"type": "note_off", "time": 611, "note": 65, "velocity": 81, "channel": 0}, {"type": "note_on", "time": 963, "note": 64, "velocity": 118, "channel": 0}, {"type": "note_off", "time": 243, "note": 64, "velocity": 118, "channel": 0}, {"type": "note_on", "time": 17, "note": 62, "velocity": 108, "channel": 0}, {"type": "note_off", "time": 217, "note": 62, "velocity": 108, "channel": 0}, {"type": "note_on", "time": 13, "note": 60, "velocity": 106, "channel": 0}, {"type": "note_off", "time": 250, "note": 60, "velocity": 106, "channel": 0}, {"type": "note_on", "time": 44, "note": 59, "velocity": 103, "channel": 0}, {"type": "note_off", "time": 302, "note": 59, "velocity": 103, "channel": 0}, {"type": "note_on", "time": 43, "note": 64, "velocity": 9, "channel": 0}, {"type": "note_off", "time": 886, "note": 64, "velocity": 9, "channel": 0}, {"type": "note_on", "time": 1798, "note": 65, "velocity": 109, "channel": 0}, {"type": "note_off", "time": 217, "note": 65, "velocity": 109, "channel": 0}, {"type": "note_on", "time": 26, "note": 64, "velocity": 109, "channel": 0}, {"type": "note_off", "time": 182, "note": 64, "velocity": 109, "channel": 0}, {"type": "note_on", "time": 11, "note": 63, "velocity": 106, "channel": 0}, {"type": "note_off", "time": 164, "note": 63, "velocity": 106, "channel": 0}, {"type": "note_on", "time": 102, "note": 65, "velocity": 103, "channel": 0}, {"type": "note_off", "time": 191, "note": 65, "velocity": 103, "channel": 0}, {"type": "note_on", "time": 1, "note": 66, "velocity": 101, "channel": 0}, {"type": "note_off", "time": 179, "note": 66, "velocity": 101, "channel": 0}, {"type": "note_on", "time": 46, "note": 70, "velocity": 103, "channel": 0}, {"type": "note_off", "time": 131, "note": 70, "velocity": 103, "channel": 0}, {"type": "note_on", "time": 27, "note": 69, "velocity": 94, "channel": 0}, {"type": "note_off", "time": 64, "note": 69, "velocity": 94, "channel": 0}, {"type": "note_on", "time": 70, "note": 65, "velocity": 99, "channel": 0}, {"type": "note_off", "time": 226, "note": 65, "velocity": 99, "channel": 0}, {"type": "note_on", "time": 36, "note": 61, "velocity": 96, "channel": 0}, {"type": "note_off", "time": 259, "note": 61, "velocity": 96, "channel": 0}, {"type": "note_on", "time": 138, "note": 68, "velocity": 103, "channel": 0}, {"type": "note_off", "time": 173, "note": 68, "velocity": 103, "channel": 0}, {"type": "note_on", "time": 0, "note": 65, "velocity": 98, "channel": 0}, {"type": "note_off", "time": 321, "note": 65, "velocity": 98, "channel": 0}, {"type": "note_on", "time": 173, "note": 63, "velocity": 95, "channel": 0}, {"type": "note_off", "time": 156, "note": 63, "velocity": 95, "channel": 0}, {"type": "note_on", "time": 84, "note": 66, "velocity": 92, "channel": 0}, {"type": "note_off", "time": 530, "note": 66, "velocity": 92, "channel": 0}, {"type": "note_on", "time": 2, "note": 65, "velocity": 96, "channel": 0}, {"type": "note_off", "time": 269, "note": 65, "velocity": 96, "channel": 0}, {"type": "note_on", "time": 2, "note": 63, "velocity": 94, "channel": 0}, {"type": "note_on", "time": 204, "note": 62, "velocity": 96, "channel": 0}, {"type": "note_off", "time": 0, "note": 63, "velocity": 94, "channel": 0}, {"type": "note_off", "time": 191, "note": 62, "velocity": 96, "channel": 0}, {"type": "note_on", "time": 16, "note": 60, "velocity": 98, "channel": 0}, {"type": "note_off", "time": 226, "note": 60, "velocity": 98, "channel": 0}, {"type": "note_on", "time": 13, "note": 59, "velocity": 102, "channel": 0}, {"type": "note_off", "time": 169, "note": 59, "velocity": 102, "channel": 0}, {"type": "note_on", "time": 77, "note": 56, "velocity": 92, "channel": 0}, {"type": "note_off", "time": 256, "note": 56, "velocity": 92, "channel": 0}, {"type": "note_on", "time": 29, "note": 55, "velocity": 78, "channel": 0}, {"type": "note_off", "time": 73, "note": 55, "velocity": 78, "channel": 0}, {"type": "note_on", "time": 64, "note": 54, "velocity": 90, "channel": 0}, {"type": "note_off", "time": 79, "note": 54, "velocity": 90, "channel": 0}, {"type": "note_on", "time": 97, "note": 52, "velocity": 88, "channel": 0}, {"type": "note_off", "time": 379, "note": 52, "velocity": 88, "channel": 0}, {"type": "note_on", "time": 368, "note": 55, "velocity": 86, "channel": 0}, {"type": "note_off", "time": 134, "note": 55, "velocity": 86, "channel": 0}, {"type": "note_on", "time": 51, "note": 59, "velocity": 104, "channel": 0}, {"type": "note_off", "time": 339, "note": 59, "velocity": 104, "channel": 0}, {"type": "note_on", "time": 448, "note": 57, "velocity": 106, "channel": 0}, {"type": "note_off", "time": 330, "note": 57, "velocity": 106, "channel": 0}, {"type": "note_on", "time": 22, "note": 52, "velocity": 87, "channel": 0}, {"type": "note_off", "time": 269, "note": 52, "velocity": 87, "channel": 0}, {"type": "note_on", "time": 314, "note": 55, "velocity": 98, "channel": 0}, {"type": "note_off", "time": 278, "note": 55, "velocity": 98, "channel": 0}, {"type": "note_on", "time": 69, "note": 53, "velocity": 87, "channel": 0}, {"type": "note_off", "time": 408, "note": 53, "velocity": 87, "channel": 0}, {"type": "note_on", "time": 1400, "note": 57, "velocity": 92, "channel": 0}, {"type": "note_off", "time": 116, "note": 57, "velocity": 92, "channel": 0}, {"type": "note_on", "time": 9, "note": 60, "velocity": 109, "channel": 0}, {"type": "note_off", "time": 147, "note": 60, "velocity": 109, "channel": 0}, {"type": "note_on", "time": 33, "note": 57, "velocity": 109, "channel": 0}, {"type": "note_off", "time": 252, "note": 57, "velocity": 109, "channel": 0}, {"type": "note_on", "time": 34, "note": 58, "velocity": 106, "channel": 0}, {"type": "note_off", "time": 208, "note": 58, "velocity": 106, "channel": 0}, {"type": "note_on", "time": 0, "note": 59, "velocity": 103, "channel": 0}, {"type": "note_off", "time": 252, "note": 59, "velocity": 103, "channel": 0}, {"type": "note_on", "time": 8, "note": 61, "velocity": 97, "channel": 0}, {"type": "note_off", "time": 165, "note": 61, "velocity": 97, "channel": 0}, {"type": "note_on", "time": 26, "note": 62, "velocity": 103, "channel": 0}, {"type": "note_off", "time": 139, "note": 62, "velocity": 103, "channel": 0}, {"type": "note_on", "time": 0, "note": 64, "velocity": 98, "channel": 0}, {"type": "note_off", "time": 67, "note": 64, "velocity": 98, "channel": 0}, {"type": "note_on", "time": 18, "note": 66, "velocity": 103, "channel": 0}, {"type": "note_on", "time": 95, "note": 69, "velocity": 109, "channel": 0}, {"type": "note_off", "time": 0, "note": 66, "velocity": 103, "channel": 0}, {"type": "note_off", "time": 154, "note": 69, "velocity": 109, "channel": 0}, {"type": "note_on", "time": 0, "note": 73, "velocity": 100, "channel": 0}, {"type": "note_off", "time": 119, "note": 73, "velocity": 100, "channel": 0}, {"type": "note_on", "time": 33, "note": 74, "velocity": 90, "channel": 0}, {"type": "note_off", "time": 152, "note": 74, "velocity": 90, "channel": 0}, {"type": "note_on", "time": 15, "note": 73, "velocity": 94, "channel": 0}, {"type": "note_off", "time": 125, "note": 73, "velocity": 94, "channel": 0}, {"type": "note_on", "time": 25, "note": 71, "velocity": 104, "channel": 0}, {"type": "note_on", "time": 173, "note": 69, "velocity": 111, "channel": 0}, {"type": "note_off", "time": 0, "note": 71, "velocity": 104, "channel": 0}, {"type": "note_off", "time": 182, "note": 69, "velocity": 111, "channel": 0}, {"type": "note_on", "time": 0, "note": 68, "velocity": 104, "channel": 0}, {"type": "note_off", "time": 241, "note": 68, "velocity": 104, "channel": 0}, {"type": "note_on", "time": 0, "note": 66, "velocity": 101, "channel": 0}, {"type": "note_off", "time": 191, "note": 66, "velocity": 101, "channel": 0}, {"type": "note_on", "time": 24, "note": 65, "velocity": 95, "channel": 0}, {"type": "note_off", "time": 189, "note": 65, "velocity": 95, "channel": 0}, {"type": "note_on", "time": 10, "note": 64, "velocity": 106, "channel": 0}, {"type": "note_off", "time": 167, "note": 64, "velocity": 106, "channel": 0}, {"type": "note_on", "time": 29, "note": 63, "velocity": 96, "channel": 0}, {"type": "note_off", "time": 156, "note": 63, "velocity": 96, "channel": 0}, {"type": "note_on", "time": 35, "note": 68, "velocity": 105, "channel": 0}, {"type": "note_off", "time": 191, "note": 68, "velocity": 105, "channel": 0}, {"type": "note_on", "time": 30, "note": 67, "velocity": 95, "channel": 0}, {"type": "note_off", "time": 260, "note": 67, "velocity": 95, "channel": 0}, {"type": "note_on", "time": 1, "note": 62, "velocity": 90, "channel": 0}, {"type": "note_off", "time": 113, "note": 62, "velocity": 90, "channel": 0}, {"type": "note_on", "time": 0, "note": 64, "velocity": 101, "channel": 0}, {"type": "note_off", "time": 226, "note": 64, "velocity": 101, "channel": 0}, {"type": "note_on", "time": 21, "note": 67, "velocity": 99, "channel": 0}, {"type": "note_off", "time": 191, "note": 67, "velocity": 99, "channel": 0}, {"type": "note_on", "time": 135, "note": 64, "velocity": 87, "channel": 0}, {"type": "note_off", "time": 88, "note": 64, "velocity": 87, "channel": 0}, {"type": "note_on", "time": 61, "note": 60, "velocity": 98, "channel": 0}, {"type": "note_off", "time": 119, "note": 60, "velocity": 98, "channel": 0}, {"type": "note_on", "time": 24, "note": 59, "velocity": 101, "channel": 0}, {"type": "note_off", "time": 235, "note": 59, "velocity": 101, "channel": 0}, {"type": "note_on", "time": 105, "note": 57, "velocity": 101, "channel": 0}, {"type": "note_off", "time": 272, "note": 57, "velocity": 101, "channel": 0}, {"type": "note_on", "time": 29, "note": 58, "velocity": 101, "channel": 0}, {"type": "note_off", "time": 185, "note": 58, "velocity": 101, "channel": 0}, {"type": "note_on", "time": 27, "note": 59, "velocity": 87, "channel": 0}, {"type": "note_off", "time": 154, "note": 59, "velocity": 87, "channel": 0}, {"type": "note_on", "time": 102, "note": 63, "velocity": 90, "channel": 0}, {"type": "note_off", "time": 121, "note": 63, "velocity": 90, "channel": 0}, {"type": "note_on", "time": 260, "note": 67, "velocity": 84, "channel": 0}, {"type": "note_off", "time": 88, "note": 67, "velocity": 84, "channel": 0}, {"type": "note_on", "time": 17, "note": 70, "velocity": 103, "channel": 0}, {"type": "note_off", "time": 347, "note": 70, "velocity": 103, "channel": 0}, {"type": "note_on", "time": 303, "note": 68, "velocity": 101, "channel": 0}, {"type": "note_off", "time": 252, "note": 68, "velocity": 101, "channel": 0}, {"type": "note_on", "time": 86, "note": 65, "velocity": 96, "channel": 0}, {"type": "note_off", "time": 103, "note": 65, "velocity": 96, "channel": 0}, {"type": "note_on", "time": 16, "note": 62, "velocity": 88, "channel": 0}, {"type": "note_off", "time": 143, "note": 62, "velocity": 88, "channel": 0}, {"type": "note_on", "time": 137, "note": 59, "velocity": 96, "channel": 0}, {"type": "note_off", "time": 201, "note": 59, "velocity": 96, "channel": 0}, {"type": "note_on", "time": 39, "note": 55, "velocity": 93, "channel": 0}, {"type": "note_off", "time": 232, "note": 55, "velocity": 93, "channel": 0}, {"type": "note_on", "time": 164, "note": 59, "velocity": 98, "channel": 0}, {"type": "note_off", "time": 182, "note": 59, "velocity": 98, "channel": 0}, {"type": "note_on", "time": 38, "note": 55, "velocity": 91, "channel": 0}, {"type": "note_off", "time": 657, "note": 55, "velocity": 91, "channel": 0}, {"type": "note_on", "time": 152, "note": 53, "velocity": 84, "channel": 0}, {"type": "note_off", "time": 229, "note": 53, "velocity": 84, "channel": 0}, {"type": "note_on", "time": 36, "note": 52, "velocity": 82, "channel": 0}, {"type": "note_off", "time": 272, "note": 52, "velocity": 82, "channel": 0}, {"type": "note_on", "time": 1568, "note": 53, "velocity": 102, "channel": 0}, {"type": "note_off", "time": 125, "note": 53, "velocity": 102, "channel": 0}, {"type": "note_on", "time": 19, "note": 52, "velocity": 97, "channel": 0}, {"type": "note_off", "time": 131, "note": 52, "velocity": 97, "channel": 0}, {"type": "note_on", "time": 34, "note": 50, "velocity": 95, "channel": 0}, {"type": "note_off", "time": 546, "note": 50, "velocity": 95, "channel": 0}, {"type": "note_on", "time": 0, "note": 52, "velocity": 95, "channel": 0}, {"type": "note_off", "time": 137, "note": 52, "velocity": 95, "channel": 0}, {"type": "note_on", "time": 9, "note": 53, "velocity": 95, "channel": 0}, {"type": "note_off", "time": 110, "note": 53, "velocity": 95, "channel": 0}, {"type": "note_on", "time": 40, "note": 55, "velocity": 101, "channel": 0}, {"type": "note_off", "time": 147, "note": 55, "velocity": 101, "channel": 0}, {"type": "note_on", "time": 0, "note": 56, "velocity": 105, "channel": 0}, {"type": "note_off", "time": 156, "note": 56, "velocity": 105, "channel": 0}, {"type": "note_on", "time": 0, "note": 58, "velocity": 103, "channel": 0}, {"type": "note_off", "time": 791, "note": 58, "velocity": 103, "channel": 0}, {"type": "note_on", "time": 25, "note": 56, "velocity": 103, "channel": 0}, {"type": "note_off", "time": 152, "note": 56, "velocity": 103, "channel": 0}, {"type": "note_on", "time": 33, "note": 55, "velocity": 92, "channel": 0}, {"type": "note_off", "time": 165, "note": 55, "velocity": 92, "channel": 0}, {"type": "note_on", "time": 33, "note": 53, "velocity": 91, "channel": 0}, {"type": "note_off", "time": 171, "note": 53, "velocity": 91, "channel": 0}, {"type": "note_on", "time": 30, "note": 52, "velocity": 90, "channel": 0}, {"type": "note_off", "time": 290, "note": 52, "velocity": 90, "channel": 0}, {"type": "note_on", "time": 348, "note": 59, "velocity": 91, "channel": 0}, {"type": "note_off", "time": 183, "note": 59, "velocity": 91, "channel": 0}, {"type": "note_on", "time": 10, "note": 62, "velocity": 103, "channel": 0}, {"type": "note_off", "time": 295, "note": 62, "velocity": 103, "channel": 0}, {"type": "note_on", "time": 39, "note": 59, "velocity": 84, "channel": 0}, {"type": "note_off", "time": 123, "note": 59, "velocity": 84, "channel": 0}, {"type": "note_on", "time": 0, "note": 60, "velocity": 102, "channel": 0}, {"type": "note_off", "time": 217, "note": 60, "velocity": 102, "channel": 0}, {"type": "note_on", "time": 16, "note": 62, "velocity": 96, "channel": 0}, {"type": "note_off", "time": 207, "note": 62, "velocity": 96, "channel": 0}, {"type": "note_on", "time": 0, "note": 65, "velocity": 101, "channel": 0}, {"type": "note_off", "time": 252, "note": 65, "velocity": 101, "channel": 0}, {"type": "note_on", "time": 6, "note": 64, "velocity": 105, "channel": 0}, {"type": "note_off", "time": 217, "note": 64, "velocity": 105, "channel": 0}, {"type": "note_on", "time": 6, "note": 63, "velocity": 104, "channel": 0}, {"type": "note_off", "time": 156, "note": 63, "velocity": 104, "channel": 0}, {"type": "note_on", "time": 14, "note": 60, "velocity": 97, "channel": 0}, {"type": "note_off", "time": 217, "note": 60, "velocity": 97, "channel": 0}, {"type": "note_on", "time": 14, "note": 58, "velocity": 103, "channel": 0}, {"type": "note_off", "time": 208, "note": 58, "velocity": 103, "channel": 0}, {"type": "note_on", "time": 88, "note": 55, "velocity": 92, "channel": 0}, {"type": "note_off", "time": 108, "note": 55, "velocity": 92, "channel": 0}, {"type": "note_on", "time": 10, "note": 56, "velocity": 91, "channel": 0}, {"type": "note_off", "time": 258, "note": 56, "velocity": 91, "channel": 0}, {"type": "note_on", "time": 56, "note": 56, "velocity": 104, "channel": 0}, {"type": "note_off", "time": 159, "note": 56, "velocity": 104, "channel": 0}, {"type": "note_on", "time": 21, "note": 55, "velocity": 97, "channel": 0}, {"type": "note_off", "time": 95, "note": 55, "velocity": 97, "channel": 0}, {"type": "note_on", "time": 22, "note": 54, "velocity": 93, "channel": 0}, {"type": "note_off", "time": 140, "note": 54, "velocity": 93, "channel": 0}, {"type": "note_on", "time": 32, "note": 55, "velocity": 95, "channel": 0}, {"type": "note_off", "time": 214, "note": 55, "velocity": 95, "channel": 0}, {"type": "note_on", "time": 1139, "note": 53, "velocity": 98, "channel": 0}, {"type": "note_off", "time": 260, "note": 53, "velocity": 98, "channel": 0}, {"type": "note_on", "time": 0, "note": 52, "velocity": 93, "channel": 0}, {"type": "note_off", "time": 512, "note": 52, "velocity": 93, "channel": 0}, {"type": "note_on", "time": 0, "note": 55, "velocity": 94, "channel": 0}, {"type": "note_off", "time": 574, "note": 55, "velocity": 94, "channel": 0}, {"type": "note_on", "time": 102, "note": 52, "velocity": 94, "channel": 0}, {"type": "note_off", "time": 137, "note": 52, "velocity": 94, "channel": 0}, {"type": "note_on", "time": 8, "note": 50, "velocity": 95, "channel": 0}, {"type": "note_off", "time": 313, "note": 50, "velocity": 95, "channel": 0}, {"type": "note_on", "time": 13, "note": 48, "velocity": 93, "channel": 0}, {"type": "note_off", "time": 278, "note": 48, "velocity": 93, "channel": 0}, {"type": "note_on", "time": 3155, "note": 74, "velocity": 109, "channel": 0}, {"type": "note_off", "time": 200, "note": 74, "velocity": 109, "channel": 0}, {"type": "note_on", "time": 0, "note": 72, "velocity": 114, "channel": 0}, {"type": "note_off", "time": 113, "note": 72, "velocity": 114, "channel": 0}, {"type": "note_on", "time": 21, "note": 71, "velocity": 120, "channel": 0}, {"type": "note_off", "time": 269, "note": 71, "velocity": 120, "channel": 0}, {"type": "note_on", "time": 23, "note": 72, "velocity": 108, "channel": 0}, {"type": "note_off", "time": 156, "note": 72, "velocity": 108, "channel": 0}, {"type": "note_on", "time": 21, "note": 71, "velocity": 114, "channel": 0}, {"type": "note_off", "time": 143, "note": 71, "velocity": 114, "channel": 0}, {"type": "note_on", "time": 21, "note": 70, "velocity": 108, "channel": 0}, {"type": "note_off", "time": 128, "note": 70, "velocity": 108, "channel": 0}, {"type": "note_on", "time": 10, "note": 69, "velocity": 117, "channel": 0}, {"type": "note_off", "time": 255, "note": 69, "velocity": 117, "channel": 0}, {"type": "note_on", "time": 173, "note": 71, "velocity": 109, "channel": 0}, {"type": "note_off", "time": 173, "note": 71, "velocity": 109, "channel": 0}, {"type": "note_on", "time": 12, "note": 69, "velocity": 113, "channel": 0}, {"type": "note_off", "time": 115, "note": 69, "velocity": 113, "channel": 0}, {"type": "note_on", "time": 19, "note": 68, "velocity": 110, "channel": 0}, {"type": "note_off", "time": 91, "note": 68, "velocity": 110, "channel": 0}, {"type": "note_on", "time": 5, "note": 67, "velocity": 105, "channel": 0}, {"type": "note_off", "time": 199, "note": 67, "velocity": 105, "channel": 0}, {"type": "note_on", "time": 202, "note": 69, "velocity": 116, "channel": 0}, {"type": "note_off", "time": 260, "note": 69, "velocity": 116, "channel": 0}, {"type": "note_on", "time": 1403, "note": 68, "velocity": 113, "channel": 0}, {"type": "note_off", "time": 167, "note": 68, "velocity": 113, "channel": 0}, {"type": "note_on", "time": 19, "note": 67, "velocity": 104, "channel": 0}, {"type": "note_off", "time": 69, "note": 67, "velocity": 104, "channel": 0}, {"type": "note_on", "time": 34, "note": 66, "velocity": 104, "channel": 0}, {"type": "note_off", "time": 110, "note": 66, "velocity": 104, "channel": 0}, {"type": "note_on", "time": 17, "note": 65, "velocity": 103, "channel": 0}, {"type": "note_off", "time": 145, "note": 65, "velocity": 103, "channel": 0}, {"type": "note_on", "time": 13, "note": 66, "velocity": 83, "channel": 0}, {"type": "note_off", "time": 132, "note": 66, "velocity": 83, "channel": 0}, {"type": "note_on", "time": 143, "note": 67, "velocity": 105, "channel": 0}, {"type": "note_off", "time": 239, "note": 67, "velocity": 105, "channel": 0}, {"type": "note_on", "time": 28, "note": 65, "velocity": 98, "channel": 0}, {"type": "note_off", "time": 43, "note": 65, "velocity": 98, "channel": 0}, {"type": "note_on", "time": 13, "note": 64, "velocity": 101, "channel": 0}, {"type": "note_off", "time": 69, "note": 64, "velocity": 101, "channel": 0}, {"type": "note_on", "time": 17, "note": 63, "velocity": 96, "channel": 0}, {"type": "note_off", "time": 208, "note": 63, "velocity": 96, "channel": 0}, {"type": "note_on", "time": 67, "note": 66, "velocity": 89, "channel": 0}, {"type": "note_off", "time": 412, "note": 66, "velocity": 89, "channel": 0}, {"type": "note_on", "time": 606, "note": 65, "velocity": 104, "channel": 0}, {"type": "note_off", "time": 147, "note": 65, "velocity": 104, "channel": 0}, {"type": "note_on", "time": 31, "note": 64, "velocity": 76, "channel": 0}, {"type": "note_off", "time": 252, "note": 64, "velocity": 76, "channel": 0}, {"type": "note_on", "time": 446, "note": 64, "velocity": 111, "channel": 0}, {"type": "note_off", "time": 339, "note": 64, "velocity": 111, "channel": 0}, {"type": "note_on", "time": 1282, "note": 63, "velocity": 103, "channel": 0}, {"type": "note_off", "time": 330, "note": 63, "velocity": 103, "channel": 0}, {"type": "note_on", "time": 106, "note": 59, "velocity": 94, "channel": 0}, {"type": "note_off", "time": 269, "note": 59, "velocity": 94, "channel": 0}, {"type": "note_on", "time": 62, "note": 62, "velocity": 99, "channel": 0}, {"type": "note_off", "time": 391, "note": 62, "velocity": 99, "channel": 0}, {"type": "note_on", "time": 622, "note": 62, "velocity": 102, "channel": 0}, {"type": "note_off", "time": 252, "note": 62, "velocity": 102, "channel": 0}, {"type": "note_on", "time": 28, "note": 59, "velocity": 96, "channel": 0}, {"type": "note_off", "time": 354, "note": 59, "velocity": 96, "channel": 0}, {"type": "note_on", "time": 2152, "note": 59, "velocity": 101, "channel": 0}, {"type": "note_off", "time": 207, "note": 59, "velocity": 101, "channel": 0}, {"type": "note_on", "time": 44, "note": 55, "velocity": 99, "channel": 0}, {"type": "note_off", "time": 120, "note": 55, "velocity": 99, "channel": 0}, {"type": "note_on", "time": 14, "note": 57, "velocity": 111, "channel": 0}, {"type": "note_off", "time": 289, "note": 57, "velocity": 111, "channel": 0}, {"type": "note_on", "time": 42, "note": 53, "velocity": 95, "channel": 0}, {"type": "note_off", "time": 189, "note": 53, "velocity": 95, "channel": 0}, {"type": "note_on", "time": 13, "note": 52, "velocity": 86, "channel": 0}, {"type": "note_off", "time": 202, "note": 52, "velocity": 86, "channel": 0}, {"type": "note_on", "time": 255, "note": 55, "velocity": 104, "channel": 0}, {"type": "note_off", "time": 234, "note": 55, "velocity": 104, "channel": 0}, {"type": "note_on", "time": 52, "note": 54, "velocity": 97, "channel": 0}, {"type": "note_off", "time": 234, "note": 54, "velocity": 97, "channel": 0}, {"type": "note_on", "time": 0, "note": 53, "velocity": 90, "channel": 0}, {"type": "note_off", "time": 200, "note": 53, "velocity": 90, "channel": 0}, {"type": "note_on", "time": 46, "note": 52, "velocity": 90, "channel": 0}, {"type": "note_off", "time": 215, "note": 52, "velocity": 90, "channel": 0}, {"type": "note_on", "time": 47, "note": 53, "velocity": 94, "channel": 0}, {"type": "note_off", "time": 171, "note": 53, "velocity": 94, "channel": 0}, {"type": "note_on", "time": 34, "note": 55, "velocity": 88, "channel": 0}, {"type": "note_off", "time": 140, "note": 55, "velocity": 88, "channel": 0}, {"type": "note_on", "time": 65, "note": 58, "velocity": 100, "channel": 0}, {"type": "note_off", "time": 86, "note": 58, "velocity": 100, "channel": 0}, {"type": "note_on", "time": 6, "note": 62, "velocity": 100, "channel": 0}, {"type": "note_off", "time": 162, "note": 62, "velocity": 100, "channel": 0}, {"type": "note_on", "time": 0, "note": 65, "velocity": 107, "channel": 0}, {"type": "note_off", "time": 234, "note": 65, "velocity": 107, "channel": 0}, {"type": "note_on", "time": 15, "note": 64, "velocity": 107, "channel": 0}, {"type": "note_off", "time": 191, "note": 64, "velocity": 107, "channel": 0}, {"type": "note_on", "time": 5, "note": 63, "velocity": 105, "channel": 0}, {"type": "note_off", "time": 173, "note": 63, "velocity": 105, "channel": 0}, {"type": "note_on", "time": 21, "note": 62, "velocity": 108, "channel": 0}, {"type": "note_off", "time": 173, "note": 62, "velocity": 108, "channel": 0}, {"type": "note_on", "time": 49, "note": 61, "velocity": 98, "channel": 0}, {"type": "note_on", "time": 220, "note": 59, "velocity": 103, "channel": 0}, {"type": "note_off", "time": 0, "note": 61, "velocity": 98, "channel": 0}, {"type": "note_off", "time": 143, "note": 59, "velocity": 103, "channel": 0}, {"type": "note_on", "time": 18, "note": 58, "velocity": 103, "channel": 0}, {"type": "note_off", "time": 248, "note": 58, "velocity": 103, "channel": 0}, {"type": "note_on", "time": 0, "note": 56, "velocity": 103, "channel": 0}, {"type": "note_off", "time": 132, "note": 56, "velocity": 103, "channel": 0}, {"type": "note_on", "time": 36, "note": 55, "velocity": 100, "channel": 0}, {"type": "note_off", "time": 208, "note": 55, "velocity": 100, "channel": 0}, {"type": "note_on", "time": 15, "note": 58, "velocity": 106, "channel": 0}, {"type": "note_off", "time": 165, "note": 58, "velocity": 106, "channel": 0}, {"type": "note_on", "time": 50, "note": 54, "velocity": 96, "channel": 0}, {"type": "note_off", "time": 215, "note": 54, "velocity": 96, "channel": 0}, {"type": "note_on", "time": 241, "note": 53, "velocity": 93, "channel": 0}, {"type": "note_off", "time": 208, "note": 53, "velocity": 93, "channel": 0}, {"type": "note_on", "time": 122, "note": 50, "velocity": 86, "channel": 0}, {"type": "note_off", "time": 188, "note": 50, "velocity": 86, "channel": 0}, {"type": "note_on", "time": 1665, "note": 57, "velocity": 109, "channel": 0}, {"type": "note_off", "time": 134, "note": 57, "velocity": 109, "channel": 0}, {"type": "note_on", "time": 0, "note": 55, "velocity": 102, "channel": 0}, {"type": "note_off", "time": 102, "note": 55, "velocity": 102, "channel": 0}, {"type": "note_on", "time": 17, "note": 54, "velocity": 94, "channel": 0}, {"type": "note_off", "time": 76, "note": 54, "velocity": 94, "channel": 0}, {"type": "note_on", "time": 17, "note": 52, "velocity": 91, "channel": 0}, {"type": "note_off", "time": 132, "note": 52, "velocity": 91, "channel": 0}, {"type": "note_on", "time": 32, "note": 55, "velocity": 97, "channel": 0}, {"type": "note_off", "time": 100, "note": 55, "velocity": 97, "channel": 0}, {"type": "note_on", "time": 19, "note": 58, "velocity": 102, "channel": 0}, {"type": "note_off", "time": 84, "note": 58, "velocity": 102, "channel": 0}, {"type": "note_on", "time": 13, "note": 62, "velocity": 110, "channel": 0}, {"type": "note_off", "time": 156, "note": 62, "velocity": 110, "channel": 0}, {"type": "note_on", "time": 65, "note": 59, "velocity": 104, "channel": 0}, {"type": "note_off", "time": 145, "note": 59, "velocity": 104, "channel": 0}, {"type": "note_on", "time": 13, "note": 57, "velocity": 107, "channel": 0}, {"type": "note_off", "time": 145, "note": 57, "velocity": 107, "channel": 0}, {"type": "note_on", "time": 26, "note": 56, "velocity": 98, "channel": 0}, {"type": "note_off", "time": 104, "note": 56, "velocity": 98, "channel": 0}, {"type": "note_on", "time": 43, "note": 58, "velocity": 102, "channel": 0}, {"type": "note_off", "time": 121, "note": 58, "velocity": 102, "channel": 0}, {"type": "note_on", "time": 2, "note": 60, "velocity": 110, "channel": 0}, {"type": "note_off", "time": 130, "note": 60, "velocity": 110, "channel": 0}, {"type": "note_on", "time": 125, "note": 59, "velocity": 92, "channel": 0}, {"type": "note_off", "time": 134, "note": 59, "velocity": 92, "channel": 0}, {"type": "note_on", "time": 98, "note": 60, "velocity": 101, "channel": 0}, {"type": "note_off", "time": 76, "note": 60, "velocity": 101, "channel": 0}, {"type": "note_on", "time": 0, "note": 62, "velocity": 98, "channel": 0}, {"type": "note_on", "time": 47, "note": 64, "velocity": 109, "channel": 0}, {"type": "note_off", "time": 0, "note": 62, "velocity": 98, "channel": 0}, {"type": "note_off", "time": 123, "note": 64, "velocity": 109, "channel": 0}, {"type": "note_on", "time": 2, "note": 62, "velocity": 101, "channel": 0}, {"type": "note_off", "time": 45, "note": 62, "velocity": 101, "channel": 0}, {"type": "note_on", "time": 4, "note": 60, "velocity": 100, "channel": 0}, {"type": "note_off", "time": 76, "note": 60, "velocity": 100, "channel": 0}, {"type": "note_on", "time": 43, "note": 59, "velocity": 98, "channel": 0}, {"type": "note_off", "time": 163, "note": 59, "velocity": 98, "channel": 0}, {"type": "note_on", "time": 13, "note": 60, "velocity": 93, "channel": 0}, {"type": "note_off", "time": 126, "note": 60, "velocity": 93, "channel": 0}, {"type": "note_on", "time": 4, "note": 65, "velocity": 101, "channel": 0}, {"type": "note_off", "time": 94, "note": 65, "velocity": 101, "channel": 0}, {"type": "note_on", "time": 4, "note": 69, "velocity": 113, "channel": 0}, {"type": "note_off", "time": 139, "note": 69, "velocity": 113, "channel": 0}, {"type": "note_on", "time": 26, "note": 67, "velocity": 104, "channel": 0}, {"type": "note_off", "time": 106, "note": 67, "velocity": 104, "channel": 0}, {"type": "note_on", "time": 15, "note": 65, "velocity": 96, "channel": 0}, {"type": "note_off", "time": 65, "note": 65, "velocity": 96, "channel": 0}, {"type": "note_on", "time": 28, "note": 64, "velocity": 99, "channel": 0}, {"type": "note_off", "time": 195, "note": 64, "velocity": 99, "channel": 0}, {"type": "note_on", "time": 53, "note": 70, "velocity": 87, "channel": 0}, {"type": "note_off", "time": 85, "note": 70, "velocity": 87, "channel": 0}, {"type": "note_on", "time": 23, "note": 74, "velocity": 105, "channel": 0}, {"type": "note_off", "time": 139, "note": 74, "velocity": 105, "channel": 0}, {"type": "note_on", "time": 9, "note": 72, "velocity": 114, "channel": 0}, {"type": "note_off", "time": 286, "note": 72, "velocity": 114, "channel": 0}, {"type": "note_on", "time": 25, "note": 69, "velocity": 110, "channel": 0}, {"type": "note_off", "time": 391, "note": 69, "velocity": 110, "channel": 0}, {"type": "note_on", "time": 1491, "note": 67, "velocity": 87, "channel": 0}, {"type": "note_off", "time": 58, "note": 67, "velocity": 87, "channel": 0}, {"type": "note_on", "time": 15, "note": 69, "velocity": 120, "channel": 0}, {"type": "note_off", "time": 229, "note": 69, "velocity": 120, "channel": 0}, {"type": "note_on", "time": 0, "note": 67, "velocity": 116, "channel": 0}, {"type": "note_off", "time": 260, "note": 67, "velocity": 116, "channel": 0}, {"type": "note_on", "time": 20, "note": 66, "velocity": 115, "channel": 0}, {"type": "note_off", "time": 150, "note": 66, "velocity": 115, "channel": 0}, {"type": "note_on", "time": 17, "note": 65, "velocity": 113, "channel": 0}, {"type": "note_off", "time": 208, "note": 65, "velocity": 113, "channel": 0}, {"type": "note_on", "time": 19, "note": 64, "velocity": 121, "channel": 0}, {"type": "note_off", "time": 252, "note": 64, "velocity": 121, "channel": 0}, {"type": "note_on", "time": 4, "note": 62, "velocity": 117, "channel": 0}, {"type": "note_off", "time": 365, "note": 62, "velocity": 117, "channel": 0}, {"type": "note_on", "time": 0, "note": 60, "velocity": 108, "channel": 0}, {"type": "note_off", "time": 236, "note": 60, "velocity": 108, "channel": 0}, {"type": "note_on", "time": 23, "note": 59, "velocity": 103, "channel": 0}, {"type": "note_off", "time": 263, "note": 59, "velocity": 103, "channel": 0}, {"type": "note_on", "time": 50, "note": 57, "velocity": 110, "channel": 0}, {"type": "note_off", "time": 152, "note": 57, "velocity": 110, "channel": 0}, {"type": "note_on", "time": 42, "note": 55, "velocity": 98, "channel": 0}, {"type": "note_off", "time": 220, "note": 55, "velocity": 98, "channel": 0}, {"type": "note_on", "time": 39, "note": 54, "velocity": 92, "channel": 0}, {"type": "note_off", "time": 247, "note": 54, "velocity": 92, "channel": 0}, {"type": "note_on", "time": 30, "note": 53, "velocity": 89, "channel": 0}, {"type": "note_off", "time": 394, "note": 53, "velocity": 89, "channel": 0}, {"type": "note_on", "time": 950, "note": 51, "velocity": 89, "channel": 0}, {"type": "note_off", "time": 174, "note": 51, "velocity": 89, "channel": 0}, {"type": "note_on", "time": 51, "note": 52, "velocity": 88, "channel": 0}, {"type": "note_off", "time": 174, "note": 52, "velocity": 88, "channel": 0}, {"type": "note_on", "time": 9, "note": 55, "velocity": 100, "channel": 0}, {"type": "note_off", "time": 204, "note": 55, "velocity": 100, "channel": 0}, {"type": "note_on", "time": 30, "note": 58, "velocity": 106, "channel": 0}, {"type": "note_off", "time": 220, "note": 58, "velocity": 106, "channel": 0}, {"type": "note_on", "time": 30, "note": 59, "velocity": 103, "channel": 0}, {"type": "note_off", "time": 165, "note": 59, "velocity": 103, "channel": 0}, {"type": "note_on", "time": 36, "note": 61, "velocity": 103, "channel": 0}, {"type": "note_off", "time": 191, "note": 61, "velocity": 103, "channel": 0}, {"type": "note_on", "time": 35, "note": 63, "velocity": 107, "channel": 0}, {"type": "note_off", "time": 148, "note": 63, "velocity": 107, "channel": 0}, {"type": "note_on", "time": 0, "note": 65, "velocity": 107, "channel": 0}, {"type": "note_off", "time": 226, "note": 65, "velocity": 107, "channel": 0}, {"type": "note_on", "time": 26, "note": 64, "velocity": 116, "channel": 0}, {"type": "note_off", "time": 181, "note": 64, "velocity": 116, "channel": 0}, {"type": "note_on", "time": 0, "note": 63, "velocity": 107, "channel": 0}, {"type": "note_off", "time": 191, "note": 63, "velocity": 107, "channel": 0}, {"type": "note_on", "time": 8, "note": 65, "velocity": 105, "channel": 0}, {"type": "note_off", "time": 234, "note": 65, "velocity": 105, "channel": 0}, {"type": "note_on", "time": 123, "note": 68, "velocity": 108, "channel": 0}, {"type": "note_off", "time": 208, "note": 68, "velocity": 108, "channel": 0}, {"type": "note_on", "time": 41, "note": 69, "velocity": 111, "channel": 0}, {"type": "note_off", "time": 243, "note": 69, "velocity": 111, "channel": 0}, {"type": "note_on", "time": 13, "note": 71, "velocity": 91, "channel": 0}, {"type": "note_off", "time": 113, "note": 71, "velocity": 91, "channel": 0}, {"type": "note_on", "time": 41, "note": 75, "velocity": 100, "channel": 0}, {"type": "note_off", "time": 180, "note": 75, "velocity": 100, "channel": 0}, {"type": "note_on", "time": 39, "note": 76, "velocity": 100, "channel": 0}, {"type": "note_off", "time": 223, "note": 76, "velocity": 100, "channel": 0}, {"type": "note_on", "time": 41, "note": 73, "velocity": 99, "channel": 0}, {"type": "note_off", "time": 286, "note": 73, "velocity": 99, "channel": 0}, {"type": "note_on", "time": 52, "note": 69, "velocity": 109, "channel": 0}, {"type": "note_off", "time": 313, "note": 69, "velocity": 109, "channel": 0}, {"type": "note_on", "time": 143, "note": 70, "velocity": 102, "channel": 0}, {"type": "note_off", "time": 252, "note": 70, "velocity": 102, "channel": 0}, {"type": "note_on", "time": 29, "note": 68, "velocity": 108, "channel": 0}, {"type": "note_off", "time": 304, "note": 68, "velocity": 108, "channel": 0}, {"type": "note_on", "time": 351, "note": 63, "velocity": 85, "channel": 0}, {"type": "note_off", "time": 97, "note": 63, "velocity": 85, "channel": 0}, {"type": "note_on", "time": 51, "note": 67, "velocity": 103, "channel": 0}, {"type": "note_off", "time": 800, "note": 67, "velocity": 103, "channel": 0}, {"type": "note_on", "time": 20, "note": 65, "velocity": 99, "channel": 0}, {"type": "note_off", "time": 234, "note": 65, "velocity": 99, "channel": 0}, {"type": "note_on", "time": 32, "note": 67, "velocity": 98, "channel": 0}, {"type": "note_off", "time": 78, "note": 67, "velocity": 98, "channel": 0}, {"type": "note_on", "time": 26, "note": 65, "velocity": 100, "channel": 0}, {"type": "note_off", "time": 71, "note": 65, "velocity": 100, "channel": 0}, {"type": "note_on", "time": 32, "note": 64, "velocity": 106, "channel": 0}, {"type": "note_off", "time": 147, "note": 64, "velocity": 106, "channel": 0}, {"type": "note_on", "time": 10, "note": 65, "velocity": 97, "channel": 0}, {"type": "note_off", "time": 80, "note": 65, "velocity": 97, "channel": 0}, {"type": "note_on", "time": 15, "note": 64, "velocity": 103, "channel": 0}, {"type": "note_off", "time": 162, "note": 64, "velocity": 103, "channel": 0}, {"type": "note_on", "time": 0, "note": 62, "velocity": 100, "channel": 0}, {"type": "note_off", "time": 139, "note": 62, "velocity": 100, "channel": 0}, {"type": "note_on", "time": 15, "note": 64, "velocity": 81, "channel": 0}, {"type": "note_off", "time": 65, "note": 64, "velocity": 81, "channel": 0}, {"type": "note_on", "time": 13, "note": 62, "velocity": 85, "channel": 0}, {"type": "note_off", "time": 160, "note": 62, "velocity": 85, "channel": 0}, {"type": "note_on", "time": 21, "note": 60, "velocity": 100, "channel": 0}, {"type": "note_off", "time": 186, "note": 60, "velocity": 100, "channel": 0}, {"type": "note_on", "time": 2, "note": 62, "velocity": 86, "channel": 0}, {"type": "note_off", "time": 84, "note": 62, "velocity": 86, "channel": 0}, {"type": "note_on", "time": 15, "note": 60, "velocity": 90, "channel": 0}, {"type": "note_off", "time": 169, "note": 60, "velocity": 90, "channel": 0}, {"type": "note_on", "time": 476, "note": 62, "velocity": 110, "channel": 0}, {"type": "note_off", "time": 286, "note": 62, "velocity": 110, "channel": 0}, {"type": "note_on", "time": 932, "note": 60, "velocity": 109, "channel": 0}, {"type": "note_off", "time": 165, "note": 60, "velocity": 109, "channel": 0}, {"type": "note_on", "time": 13, "note": 62, "velocity": 95, "channel": 0}, {"type": "note_off", "time": 56, "note": 62, "velocity": 95, "channel": 0}, {"type": "note_on", "time": 19, "note": 60, "velocity": 96, "channel": 0}, {"type": "note_off", "time": 143, "note": 60, "velocity": 96, "channel": 0}, {"type": "note_on", "time": 52, "note": 59, "velocity": 94, "channel": 0}, {"type": "note_off", "time": 563, "note": 59, "velocity": 94, "channel": 0}, {"type": "note_on", "time": 60, "note": 57, "velocity": 108, "channel": 0}, {"type": "note_off", "time": 243, "note": 57, "velocity": 108, "channel": 0}, {"type": "note_on", "time": 10, "note": 55, "velocity": 100, "channel": 0}, {"type": "note_off", "time": 330, "note": 55, "velocity": 100, "channel": 0}, {"type": "note_on", "time": 44, "note": 55, "velocity": 93, "channel": 0}, {"type": "note_off", "time": 199, "note": 55, "velocity": 93, "channel": 0}, {"type": "note_on", "time": 0, "note": 64, "velocity": 108, "channel": 0}, {"type": "note_off", "time": 313, "note": 64, "velocity": 108, "channel": 0}, {"type": "note_on", "time": 34, "note": 60, "velocity": 102, "channel": 0}, {"type": "note_off", "time": 269, "note": 60, "velocity": 102, "channel": 0}, {"type": "note_on", "time": 169, "note": 60, "velocity": 95, "channel": 0}, {"type": "note_off", "time": 664, "note": 60, "velocity": 95, "channel": 0}, {"type": "note_on", "time": 714, "note": 65, "velocity": 119, "channel": 0}, {"type": "note_off", "time": 243, "note": 65, "velocity": 119, "channel": 0}, {"type": "note_on", "time": 27, "note": 64, "velocity": 123, "channel": 0}, {"type": "note_off", "time": 182, "note": 64, "velocity": 123, "channel": 0}, {"type": "note_on", "time": 0, "note": 63, "velocity": 113, "channel": 0}, {"type": "note_off", "time": 208, "note": 63, "velocity": 113, "channel": 0}, {"type": "note_on", "time": 0, "note": 65, "velocity": 111, "channel": 0}, {"type": "note_off", "time": 182, "note": 65, "velocity": 111, "channel": 0}, {"type": "note_on", "time": 43, "note": 66, "velocity": 105, "channel": 0}, {"type": "note_off", "time": 216, "note": 66, "velocity": 105, "channel": 0}, {"type": "note_on", "time": 0, "note": 70, "velocity": 102, "channel": 0}, {"type": "note_off", "time": 228, "note": 70, "velocity": 102, "channel": 0}, {"type": "note_on", "time": 25, "note": 68, "velocity": 112, "channel": 0}, {"type": "note_off", "time": 217, "note": 68, "velocity": 112, "channel": 0}, {"type": "note_on", "time": 34, "note": 67, "velocity": 109, "channel": 0}, {"type": "note_off", "time": 177, "note": 67, "velocity": 109, "channel": 0}, {"type": "note_on", "time": 0, "note": 66, "velocity": 100, "channel": 0}, {"type": "note_off", "time": 182, "note": 66, "velocity": 100, "channel": 0}, {"type": "note_on", "time": 41, "note": 68, "velocity": 115, "channel": 0}, {"type": "note_off", "time": 226, "note": 68, "velocity": 115, "channel": 0}, {"type": "note_on", "time": 6, "note": 65, "velocity": 104, "channel": 0}, {"type": "note_off", "time": 234, "note": 65, "velocity": 104, "channel": 0}, {"type": "note_on", "time": 318, "note": 64, "velocity": 116, "channel": 0}, {"type": "note_off", "time": 191, "note": 64, "velocity": 116, "channel": 0}, {"type": "note_on", "time": 17, "note": 63, "velocity": 108, "channel": 0}, {"type": "note_off", "time": 208, "note": 63, "velocity": 108, "channel": 0}, {"type": "note_on", "time": 3, "note": 66, "velocity": 103, "channel": 0}, {"type": "note_off", "time": 134, "note": 66, "velocity": 103, "channel": 0}, {"type": "note_on", "time": 8, "note": 65, "velocity": 103, "channel": 0}, {"type": "note_off", "time": 160, "note": 65, "velocity": 103, "channel": 0}, {"type": "note_on", "time": 21, "note": 64, "velocity": 95, "channel": 0}, {"type": "note_off", "time": 121, "note": 64, "velocity": 95, "channel": 0}, {"type": "note_on", "time": 0, "note": 61, "velocity": 107, "channel": 0}, {"type": "note_off", "time": 217, "note": 61, "velocity": 107, "channel": 0}, {"type": "note_on", "time": 19, "note": 59, "velocity": 106, "channel": 0}, {"type": "note_off", "time": 167, "note": 59, "velocity": 106, "channel": 0}, {"type": "note_on", "time": 149, "note": 54, "velocity": 90, "channel": 0}, {"type": "note_off", "time": 97, "note": 54, "velocity": 90, "channel": 0}, {"type": "note_on", "time": 16, "note": 55, "velocity": 93, "channel": 0}, {"type": "note_off", "time": 143, "note": 55, "velocity": 93, "channel": 0}, {"type": "note_on", "time": 108, "note": 59, "velocity": 106, "channel": 0}, {"type": "note_off", "time": 165, "note": 59, "velocity": 106, "channel": 0}, {"type": "note_on", "time": 6, "note": 62, "velocity": 106, "channel": 0}, {"type": "note_off", "time": 200, "note": 62, "velocity": 106, "channel": 0}, {"type": "note_on", "time": 15, "note": 61, "velocity": 92, "channel": 0}, {"type": "note_off", "time": 217, "note": 61, "velocity": 92, "channel": 0}, {"type": "note_on", "time": 19, "note": 56, "velocity": 102, "channel": 0}, {"type": "note_off", "time": 201, "note": 56, "velocity": 102, "channel": 0}, {"type": "note_on", "time": 0, "note": 55, "velocity": 99, "channel": 0}, {"type": "note_off", "time": 158, "note": 55, "velocity": 99, "channel": 0}, {"type": "note_on", "time": 27, "note": 54, "velocity": 89, "channel": 0}, {"type": "note_off", "time": 210, "note": 54, "velocity": 89, "channel": 0}, {"type": "note_on", "time": 79, "note": 58, "velocity": 97, "channel": 0}, {"type": "note_off", "time": 134, "note": 58, "velocity": 97, "channel": 0}, {"type": "note_on", "time": 45, "note": 53, "velocity": 94, "channel": 0}, {"type": "note_off", "time": 250, "note": 53, "velocity": 94, "channel": 0}, {"type": "note_on", "time": 324, "note": 52, "velocity": 9, "channel": 0}, {"type": "note_off", "time": 330, "note": 52, "velocity": 9, "channel": 0}, {"type": "note_on", "time": 55, "note": 57, "velocity": 75, "channel": 0}, {"type": "note_off", "time": 885, "note": 57, "velocity": 75, "channel": 0}, {"type": "note_on", "time": 1043, "note": 49, "velocity": 99, "channel": 0}, {"type": "note_off", "time": 200, "note": 49, "velocity": 99, "channel": 0}, {"type": "note_on", "time": 34, "note": 52, "velocity": 93, "channel": 0}, {"type": "note_off", "time": 200, "note": 52, "velocity": 93, "channel": 0}, {"type": "note_on", "time": 47, "note": 47, "velocity": 98, "channel": 0}, {"type": "note_off", "time": 269, "note": 47, "velocity": 98, "channel": 0}, {"type": "note_on", "time": 26, "note": 45, "velocity": 96, "channel": 0}, {"type": "note_off", "time": 830, "note": 45, "velocity": 96, "channel": 0}, {"type": "note_on", "time": 1857, "note": 47, "velocity": 89, "channel": 0}, {"type": "note_off", "time": 179, "note": 47, "velocity": 89, "channel": 0}, {"type": "note_on", "time": 20, "note": 49, "velocity": 87, "channel": 0}, {"type": "note_off", "time": 85, "note": 49, "velocity": 87, "channel": 0}, {"type": "note_on", "time": 48, "note": 54, "velocity": 101, "channel": 0}, {"type": "note_off", "time": 174, "note": 54, "velocity": 101, "channel": 0}, {"type": "note_on", "time": 106, "note": 49, "velocity": 89, "channel": 0}, {"type": "note_off", "time": 210, "note": 49, "velocity": 89, "channel": 0}, {"type": "note_on", "time": 12, "note": 50, "velocity": 93, "channel": 0}, {"type": "note_off", "time": 94, "note": 50, "velocity": 93, "channel": 0}, {"type": "note_on", "time": 36, "note": 52, "velocity": 91, "channel": 0}, {"type": "note_off", "time": 70, "note": 52, "velocity": 91, "channel": 0}, {"type": "note_on", "time": 39, "note": 53, "velocity": 84, "channel": 0}, {"type": "note_off", "time": 171, "note": 53, "velocity": 84, "channel": 0}, {"type": "note_on", "time": 48, "note": 56, "velocity": 95, "channel": 0}, {"type": "note_off", "time": 122, "note": 56, "velocity": 95, "channel": 0}, {"type": "note_on", "time": 0, "note": 54, "velocity": 94, "channel": 0}, {"type": "note_off", "time": 149, "note": 54, "velocity": 94, "channel": 0}, {"type": "note_on", "time": 13, "note": 56, "velocity": 100, "channel": 0}, {"type": "note_off", "time": 70, "note": 56, "velocity": 100, "channel": 0}, {"type": "note_on", "time": 56, "note": 61, "velocity": 96, "channel": 0}, {"type": "note_off", "time": 218, "note": 61, "velocity": 96, "channel": 0}, {"type": "note_on", "time": 444, "note": 61, "velocity": 92, "channel": 0}, {"type": "note_off", "time": 205, "note": 61, "velocity": 92, "channel": 0}, {"type": "note_on", "time": 0, "note": 64, "velocity": 115, "channel": 0}, {"type": "note_off", "time": 269, "note": 64, "velocity": 115, "channel": 0}, {"type": "note_on", "time": 4, "note": 61, "velocity": 92, "channel": 0}, {"type": "note_off", "time": 113, "note": 61, "velocity": 92, "channel": 0}, {"type": "note_on", "time": 8, "note": 62, "velocity": 96, "channel": 0}, {"type": "note_off", "time": 221, "note": 62, "velocity": 96, "channel": 0}, {"type": "note_on", "time": 0, "note": 64, "velocity": 87, "channel": 0}, {"type": "note_off", "time": 134, "note": 64, "velocity": 87, "channel": 0}, {"type": "note_on", "time": 0, "note": 65, "velocity": 105, "channel": 0}, {"type": "note_off", "time": 148, "note": 65, "velocity": 105, "channel": 0}, {"type": "note_on", "time": 0, "note": 66, "velocity": 106, "channel": 0}, {"type": "note_off", "time": 886, "note": 66, "velocity": 106, "channel": 0}, {"type": "note_on", "time": 12, "note": 65, "velocity": 108, "channel": 0}, {"type": "note_off", "time": 186, "note": 65, "velocity": 108, "channel": 0}, {"type": "note_on", "time": 45, "note": 64, "velocity": 105, "channel": 0}, {"type": "note_off", "time": 277, "note": 64, "velocity": 105, "channel": 0}, {"type": "note_on", "time": 0, "note": 63, "velocity": 103, "channel": 0}, {"type": "note_off", "time": 156, "note": 63, "velocity": 103, "channel": 0}, {"type": "note_on", "time": 0, "note": 62, "velocity": 102, "channel": 0}, {"type": "note_off", "time": 278, "note": 62, "velocity": 102, "channel": 0}, {"type": "note_on", "time": 0, "note": 60, "velocity": 101, "channel": 0}, {"type": "note_off", "time": 139, "note": 60, "velocity": 101, "channel": 0}, {"type": "note_on", "time": 0, "note": 61, "velocity": 88, "channel": 0}, {"type": "note_off", "time": 191, "note": 61, "velocity": 88, "channel": 0}, {"type": "note_on", "time": 69, "note": 64, "velocity": 109, "channel": 0}, {"type": "note_off", "time": 295, "note": 64, "velocity": 109, "channel": 0}, {"type": "note_on", "time": 67, "note": 61, "velocity": 82, "channel": 0}, {"type": "note_off", "time": 91, "note": 61, "velocity": 82, "channel": 0}, {"type": "note_on", "time": 36, "note": 62, "velocity": 95, "channel": 0}, {"type": "note_off", "time": 278, "note": 62, "velocity": 95, "channel": 0}, {"type": "note_on", "time": 18, "note": 64, "velocity": 108, "channel": 0}, {"type": "note_off", "time": 147, "note": 64, "velocity": 108, "channel": 0}, {"type": "note_on", "time": 33, "note": 65, "velocity": 98, "channel": 0}, {"type": "note_off", "time": 242, "note": 65, "velocity": 98, "channel": 0}, {"type": "note_on", "time": 0, "note": 67, "velocity": 100, "channel": 0}, {"type": "note_off", "time": 130, "note": 67, "velocity": 100, "channel": 0}, {"type": "note_on", "time": 0, "note": 69, "velocity": 109, "channel": 0}, {"type": "note_off", "time": 203, "note": 69, "velocity": 109, "channel": 0}, {"type": "note_on", "time": 0, "note": 72, "velocity": 97, "channel": 0}, {"type": "note_off", "time": 94, "note": 72, "velocity": 97, "channel": 0}, {"type": "note_on", "time": 3, "note": 74, "velocity": 95, "channel": 0}, {"type": "note_off", "time": 94, "note": 74, "velocity": 95, "channel": 0}, {"type": "note_on", "time": 6, "note": 75, "velocity": 90, "channel": 0}, {"type": "note_off", "time": 174, "note": 75, "velocity": 90, "channel": 0}, {"type": "note_on", "time": 42, "note": 76, "velocity": 100, "channel": 0}, {"type": "note_off", "time": 889, "note": 76, "velocity": 100, "channel": 0}, {"type": "note_on", "time": 0, "note": 74, "velocity": 92, "channel": 0}, {"type": "note_off", "time": 165, "note": 74, "velocity": 92, "channel": 0}, {"type": "note_on", "time": 19, "note": 72, "velocity": 106, "channel": 0}, {"type": "note_off", "time": 113, "note": 72, "velocity": 106, "channel": 0}, {"type": "note_on", "time": 19, "note": 71, "velocity": 98, "channel": 0}, {"type": "note_off", "time": 269, "note": 71, "velocity": 98, "channel": 0}, {"type": "note_on", "time": 0, "note": 74, "velocity": 103, "channel": 0}, {"type": "note_off", "time": 269, "note": 74, "velocity": 103, "channel": 0}, {"type": "note_on", "time": 0, "note": 72, "velocity": 101, "channel": 0}, {"type": "note_on", "time": 173, "note": 71, "velocity": 95, "channel": 0}, {"type": "note_off", "time": 0, "note": 72, "velocity": 101, "channel": 0}, {"type": "note_off", "time": 217, "note": 71, "velocity": 95, "channel": 0}, {"type": "note_on", "time": 1, "note": 72, "velocity": 107, "channel": 0}, {"type": "note_off", "time": 320, "note": 72, "velocity": 107, "channel": 0}, {"type": "note_on", "time": 0, "note": 69, "velocity": 99, "channel": 0}, {"type": "note_off", "time": 408, "note": 69, "velocity": 99, "channel": 0}, {"type": "note_on", "time": 822, "note": 71, "velocity": 108, "channel": 0}, {"type": "note_off", "time": 165, "note": 71, "velocity": 108, "channel": 0}, {"type": "note_on", "time": 2, "note": 69, "velocity": 115, "channel": 0}, {"type": "note_off", "time": 64, "note": 69, "velocity": 115, "channel": 0}, {"type": "note_on", "time": 37, "note": 68, "velocity": 115, "channel": 0}, {"type": "note_off", "time": 82, "note": 68, "velocity": 115, "channel": 0}, {"type": "note_on", "time": 6, "note": 67, "velocity": 108, "channel": 0}, {"type": "note_off", "time": 250, "note": 67, "velocity": 108, "channel": 0}, {"type": "note_on", "time": 119, "note": 69, "velocity": 117, "channel": 0}, {"type": "note_off", "time": 200, "note": 69, "velocity": 117, "channel": 0}, {"type": "note_on", "time": 42, "note": 68, "velocity": 107, "channel": 0}, {"type": "note_off", "time": 185, "note": 68, "velocity": 107, "channel": 0}, {"type": "note_on", "time": 0, "note": 64, "velocity": 105, "channel": 0}, {"type": "note_off", "time": 278, "note": 64, "velocity": 105, "channel": 0}, {"type": "note_on", "time": 84, "note": 67, "velocity": 109, "channel": 0}, {"type": "note_off", "time": 355, "note": 67, "velocity": 109, "channel": 0}, {"type": "note_on", "time": 197, "note": 67, "velocity": 104, "channel": 0}, {"type": "note_off", "time": 323, "note": 67, "velocity": 104, "channel": 0}, {"type": "note_on", "time": 136, "note": 67, "velocity": 104, "channel": 0}, {"type": "note_off", "time": 373, "note": 67, "velocity": 104, "channel": 0}, {"type": "note_on", "time": 38, "note": 67, "velocity": 103, "channel": 0}, {"type": "note_off", "time": 286, "note": 67, "velocity": 103, "channel": 0}, {"type": "note_on", "time": 165, "note": 68, "velocity": 104, "channel": 0}, {"type": "note_off", "time": 512, "note": 68, "velocity": 104, "channel": 0}, {"type": "note_on", "time": 0, "note": 69, "velocity": 105, "channel": 0}, {"type": "note_off", "time": 478, "note": 69, "velocity": 105, "channel": 0}, {"type": "note_on", "time": 996, "note": 63, "velocity": 109, "channel": 0}, {"type": "note_off", "time": 94, "note": 63, "velocity": 109, "channel": 0}, {"type": "note_on", "time": 18, "note": 64, "velocity": 111, "channel": 0}, {"type": "note_off", "time": 204, "note": 64, "velocity": 111, "channel": 0}, {"type": "note_on", "time": 12, "note": 67, "velocity": 105, "channel": 0}, {"type": "note_off", "time": 304, "note": 67, "velocity": 105, "channel": 0}, {"type": "note_on", "time": 102, "note": 64, "velocity": 114, "channel": 0}, {"type": "note_off", "time": 226, "note": 64, "velocity": 114, "channel": 0}, {"type": "note_on", "time": 32, "note": 65, "velocity": 89, "channel": 0}, {"type": "note_off", "time": 1086, "note": 65, "velocity": 89, "channel": 0}, {"type": "note_on", "time": 0, "note": 66, "velocity": 92, "channel": 0}, {"type": "note_off", "time": 1147, "note": 66, "velocity": 92, "channel": 0}, {"type": "note_on", "time": 1, "note": 67, "velocity": 92, "channel": 0}, {"type": "note_off", "time": 373, "note": 67, "velocity": 92, "channel": 0}, {"type": "note_on", "time": 764, "note": 64, "velocity": 111, "channel": 0}, {"type": "note_off", "time": 286, "note": 64, "velocity": 111, "channel": 0}, {"type": "note_on", "time": 0, "note": 62, "velocity": 95, "channel": 0}, {"type": "note_off", "time": 299, "note": 62, "velocity": 95, "channel": 0}, {"type": "note_on", "time": 1301, "note": 64, "velocity": 113, "channel": 0}, {"type": "note_off", "time": 382, "note": 64, "velocity": 113, "channel": 0}, {"type": "note_on", "time": 104, "note": 57, "velocity": 97, "channel": 0}, {"type": "note_off", "time": 582, "note": 57, "velocity": 97, "channel": 0}, {"type": "note_on", "time": 1016, "note": 56, "velocity": 104, "channel": 0}, {"type": "note_off", "time": 107, "note": 56, "velocity": 104, "channel": 0}, {"type": "note_on", "time": 15, "note": 57, "velocity": 108, "channel": 0}, {"type": "note_off", "time": 119, "note": 57, "velocity": 108, "channel": 0}, {"type": "note_on", "time": 19, "note": 58, "velocity": 110, "channel": 0}, {"type": "note_off", "time": 93, "note": 58, "velocity": 110, "channel": 0}, {"type": "note_on", "time": 0, "note": 60, "velocity": 113, "channel": 0}, {"type": "note_off", "time": 104, "note": 60, "velocity": 113, "channel": 0}, {"type": "note_on", "time": 36, "note": 64, "velocity": 113, "channel": 0}, {"type": "note_off", "time": 137, "note": 64, "velocity": 113, "channel": 0}, {"type": "note_on", "time": 0, "note": 62, "velocity": 107, "channel": 0}, {"type": "note_off", "time": 39, "note": 62, "velocity": 107, "channel": 0}, {"type": "note_on", "time": 17, "note": 60, "velocity": 109, "channel": 0}, {"type": "note_off", "time": 69, "note": 60, "velocity": 109, "channel": 0}, {"type": "note_on", "time": 22, "note": 59, "velocity": 111, "channel": 0}, {"type": "note_off", "time": 149, "note": 59, "velocity": 111, "channel": 0}, {"type": "note_on", "time": 0, "note": 61, "velocity": 110, "channel": 0}, {"type": "note_off", "time": 138, "note": 61, "velocity": 110, "channel": 0}, {"type": "note_on", "time": 0, "note": 64, "velocity": 113, "channel": 0}, {"type": "note_off", "time": 91, "note": 64, "velocity": 113, "channel": 0}, {"type": "note_on", "time": 4, "note": 65, "velocity": 106, "channel": 0}, {"type": "note_off", "time": 58, "note": 65, "velocity": 106, "channel": 0}, {"type": "note_on", "time": 0, "note": 69, "velocity": 121, "channel": 0}, {"type": "note_off", "time": 104, "note": 69, "velocity": 121, "channel": 0}, {"type": "note_on", "time": 35, "note": 68, "velocity": 116, "channel": 0}, {"type": "note_off", "time": 217, "note": 68, "velocity": 116, "channel": 0}, {"type": "note_on", "time": 1107, "note": 67, "velocity": 102, "channel": 0}, {"type": "note_off", "time": 140, "note": 67, "velocity": 102, "channel": 0}, {"type": "note_on", "time": 9, "note": 68, "velocity": 117, "channel": 0}, {"type": "note_off", "time": 119, "note": 68, "velocity": 117, "channel": 0}, {"type": "note_on", "time": 32, "note": 65, "velocity": 106, "channel": 0}, {"type": "note_off", "time": 102, "note": 65, "velocity": 106, "channel": 0}, {"type": "note_on", "time": 18, "note": 60, "velocity": 103, "channel": 0}, {"type": "note_off", "time": 103, "note": 60, "velocity": 103, "channel": 0}, {"type": "note_on", "time": 21, "note": 58, "velocity": 107, "channel": 0}, {"type": "note_off", "time": 155, "note": 58, "velocity": 107, "channel": 0}, {"type": "note_on", "time": 16, "note": 54, "velocity": 85, "channel": 0}, {"type": "note_off", "time": 105, "note": 54, "velocity": 85, "channel": 0}, {"type": "note_on", "time": 102, "note": 67, "velocity": 113, "channel": 0}, {"type": "note_off", "time": 217, "note": 67, "velocity": 113, "channel": 0}, {"type": "note_on", "time": 77, "note": 63, "velocity": 106, "channel": 0}, {"type": "note_off", "time": 93, "note": 63, "velocity": 106, "channel": 0}, {"type": "note_on", "time": 29, "note": 60, "velocity": 101, "channel": 0}, {"type": "note_off", "time": 117, "note": 60, "velocity": 101, "channel": 0}, {"type": "note_on", "time": 47, "note": 58, "velocity": 108, "channel": 0}, {"type": "note_off", "time": 82, "note": 58, "velocity": 108, "channel": 0}, {"type": "note_on", "time": 6, "note": 59, "velocity": 98, "channel": 0}, {"type": "note_off", "time": 114, "note": 59, "velocity": 98, "channel": 0}, {"type": "note_on", "time": 84, "note": 56, "velocity": 105, "channel": 0}, {"type": "note_off", "time": 88, "note": 56, "velocity": 105, "channel": 0}, {"type": "note_on", "time": 9, "note": 57, "velocity": 108, "channel": 0}, {"type": "note_off", "time": 175, "note": 57, "velocity": 108, "channel": 0}, {"type": "note_on", "time": 11, "note": 60, "velocity": 110, "channel": 0}, {"type": "note_off", "time": 156, "note": 60, "velocity": 110, "channel": 0}, {"type": "note_on", "time": 120, "note": 59, "velocity": 102, "channel": 0}, {"type": "note_off", "time": 137, "note": 59, "velocity": 102, "channel": 0}, {"type": "note_on", "time": 32, "note": 60, "velocity": 113, "channel": 0}, {"type": "note_off", "time": 158, "note": 60, "velocity": 113, "channel": 0}, {"type": "note_on", "time": 19, "note": 62, "velocity": 94, "channel": 0}, {"type": "note_off", "time": 79, "note": 62, "velocity": 94, "channel": 0}, {"type": "note_on", "time": 19, "note": 64, "velocity": 94, "channel": 0}, {"type": "note_off", "time": 88, "note": 64, "velocity": 94, "channel": 0}, {"type": "note_on", "time": 15, "note": 66, "velocity": 97, "channel": 0}, {"type": "note_off", "time": 79, "note": 66, "velocity": 97, "channel": 0}, {"type": "note_on", "time": 23, "note": 70, "velocity": 107, "channel": 0}, {"type": "note_off", "time": 156, "note": 70, "velocity": 107, "channel": 0}, {"type": "note_on", "time": 8, "note": 69, "velocity": 112, "channel": 0}, {"type": "note_off", "time": 286, "note": 69, "velocity": 112, "channel": 0}, {"type": "note_on", "time": 81, "note": 61, "velocity": 94, "channel": 0}, {"type": "note_off", "time": 76, "note": 61, "velocity": 94, "channel": 0}, {"type": "note_on", "time": 18, "note": 63, "velocity": 92, "channel": 0}, {"type": "note_off", "time": 82, "note": 63, "velocity": 92, "channel": 0}, {"type": "note_on", "time": 50, "note": 66, "velocity": 102, "channel": 0}, {"type": "note_off", "time": 172, "note": 66, "velocity": 102, "channel": 0}, {"type": "note_on", "time": 16, "note": 65, "velocity": 94, "channel": 0}, {"type": "note_off", "time": 126, "note": 65, "velocity": 94, "channel": 0}, {"type": "note_on", "time": 44, "note": 61, "velocity": 97, "channel": 0}, {"type": "note_off", "time": 94, "note": 61, "velocity": 97, "channel": 0}, {"type": "note_on", "time": 51, "note": 58, "velocity": 106, "channel": 0}, {"type": "note_off", "time": 146, "note": 58, "velocity": 106, "channel": 0}, {"type": "note_on", "time": 53, "note": 54, "velocity": 92, "channel": 0}, {"type": "note_off", "time": 102, "note": 54, "velocity": 92, "channel": 0}, {"type": "note_on", "time": 18, "note": 56, "velocity": 102, "channel": 0}, {"type": "note_off", "time": 128, "note": 56, "velocity": 102, "channel": 0}, {"type": "note_on", "time": 31, "note": 63, "velocity": 92, "channel": 0}, {"type": "note_off", "time": 73, "note": 63, "velocity": 92, "channel": 0}, {"type": "note_on", "time": 24, "note": 61, "velocity": 101, "channel": 0}, {"type": "note_off", "time": 117, "note": 61, "velocity": 101, "channel": 0}, {"type": "note_on", "time": 7, "note": 58, "velocity": 108, "channel": 0}, {"type": "note_off", "time": 113, "note": 58, "velocity": 108, "channel": 0}, {"type": "note_on", "time": 38, "note": 54, "velocity": 89, "channel": 0}, {"type": "note_off", "time": 88, "note": 54, "velocity": 89, "channel": 0}, {"type": "note_on", "time": 65, "note": 49, "velocity": 86, "channel": 0}, {"type": "note_off", "time": 137, "note": 49, "velocity": 86, "channel": 0}, {"type": "note_on", "time": 22, "note": 46, "velocity": 99, "channel": 0}, {"type": "note_off", "time": 207, "note": 46, "velocity": 99, "channel": 0}, {"type": "note_on", "time": 17, "note": 51, "velocity": 91, "channel": 0}, {"type": "note_off", "time": 140, "note": 51, "velocity": 91, "channel": 0}, {"type": "note_on", "time": 80, "note": 44, "velocity": 99, "channel": 0}, {"type": "note_off", "time": 586, "note": 44, "velocity": 99, "channel": 0}, {"type": "note_on", "time": 1977, "note": 49, "velocity": 96, "channel": 0}, {"type": "note_off", "time": 104, "note": 49, "velocity": 96, "channel": 0}, {"type": "note_on", "time": 30, "note": 47, "velocity": 98, "channel": 0}, {"type": "note_off", "time": 147, "note": 47, "velocity": 98, "channel": 0}, {"type": "note_on", "time": 29, "note": 49, "velocity": 89, "channel": 0}, {"type": "note_off", "time": 137, "note": 49, "velocity": 89, "channel": 0}, {"type": "note_on", "time": 73, "note": 47, "velocity": 94, "channel": 0}, {"type": "note_off", "time": 116, "note": 47, "velocity": 94, "channel": 0}, {"type": "note_on", "time": 33, "note": 53, "velocity": 102, "channel": 0}, {"type": "note_off", "time": 143, "note": 53, "velocity": 102, "channel": 0}, {"type": "note_on", "time": 3, "note": 51, "velocity": 99, "channel": 0}, {"type": "note_off", "time": 119, "note": 51, "velocity": 99, "channel": 0}, {"type": "note_on", "time": 42, "note": 50, "velocity": 96, "channel": 0}, {"type": "note_off", "time": 100, "note": 50, "velocity": 96, "channel": 0}, {"type": "note_on", "time": 6, "note": 49, "velocity": 103, "channel": 0}, {"type": "note_off", "time": 183, "note": 49, "velocity": 103, "channel": 0}, {"type": "note_on", "time": 122, "note": 58, "velocity": 111, "channel": 0}, {"type": "note_off", "time": 173, "note": 58, "velocity": 111, "channel": 0}, {"type": "note_on", "time": 0, "note": 56, "velocity": 106, "channel": 0}, {"type": "note_on", "time": 233, "note": 58, "velocity": 104, "channel": 0}, {"type": "note_off", "time": 0, "note": 56, "velocity": 106, "channel": 0}, {"type": "note_off", "time": 156, "note": 58, "velocity": 104, "channel": 0}, {"type": "note_on", "time": 0, "note": 63, "velocity": 101, "channel": 0}, {"type": "note_off", "time": 106, "note": 63, "velocity": 101, "channel": 0}, {"type": "note_on", "time": 0, "note": 58, "velocity": 110, "channel": 0}, {"type": "note_off", "time": 84, "note": 58, "velocity": 110, "channel": 0}, {"type": "note_on", "time": 6, "note": 59, "velocity": 107, "channel": 0}, {"type": "note_off", "time": 115, "note": 59, "velocity": 107, "channel": 0}, {"type": "note_on", "time": 6, "note": 60, "velocity": 108, "channel": 0}, {"type": "note_off", "time": 80, "note": 60, "velocity": 108, "channel": 0}, {"type": "note_on", "time": 2, "note": 63, "velocity": 105, "channel": 0}, {"type": "note_off", "time": 126, "note": 63, "velocity": 105, "channel": 0}, {"type": "note_on", "time": 17, "note": 60, "velocity": 110, "channel": 0}, {"type": "note_off", "time": 128, "note": 60, "velocity": 110, "channel": 0}, {"type": "note_on", "time": 13, "note": 61, "velocity": 105, "channel": 0}, {"type": "note_off", "time": 84, "note": 61, "velocity": 105, "channel": 0}, {"type": "note_on", "time": 41, "note": 63, "velocity": 99, "channel": 0}, {"type": "note_off", "time": 169, "note": 63, "velocity": 99, "channel": 0}, {"type": "note_on", "time": 77, "note": 60, "velocity": 102, "channel": 0}, {"type": "note_off", "time": 65, "note": 60, "velocity": 102, "channel": 0}, {"type": "note_on", "time": 1, "note": 62, "velocity": 107, "channel": 0}, {"type": "note_off", "time": 73, "note": 62, "velocity": 107, "channel": 0}, {"type": "note_on", "time": 7, "note": 64, "velocity": 106, "channel": 0}, {"type": "note_off", "time": 173, "note": 64, "velocity": 106, "channel": 0}, {"type": "note_on", "time": 0, "note": 62, "velocity": 104, "channel": 0}, {"type": "note_off", "time": 103, "note": 62, "velocity": 104, "channel": 0}, {"type": "note_on", "time": 0, "note": 60, "velocity": 102, "channel": 0}, {"type": "note_off", "time": 86, "note": 60, "velocity": 102, "channel": 0}, {"type": "note_on", "time": 1, "note": 59, "velocity": 103, "channel": 0}, {"type": "note_off", "time": 207, "note": 59, "velocity": 103, "channel": 0}, {"type": "note_on", "time": 0, "note": 57, "velocity": 106, "channel": 0}, {"type": "note_off", "time": 120, "note": 57, "velocity": 106, "channel": 0}, {"type": "note_on", "time": 24, "note": 56, "velocity": 96, "channel": 0}, {"type": "note_off", "time": 93, "note": 56, "velocity": 96, "channel": 0}, {"type": "note_on", "time": 22, "note": 59, "velocity": 101, "channel": 0}, {"type": "note_off", "time": 70, "note": 59, "velocity": 101, "channel": 0}, {"type": "note_on", "time": 16, "note": 58, "velocity": 102, "channel": 0}, {"type": "note_off", "time": 61, "note": 58, "velocity": 102, "channel": 0}, {"type": "note_on", "time": 0, "note": 62, "velocity": 106, "channel": 0}, {"type": "note_off", "time": 182, "note": 62, "velocity": 106, "channel": 0}, {"type": "note_on", "time": 78, "note": 59, "velocity": 98, "channel": 0}, {"type": "note_off", "time": 200, "note": 59, "velocity": 98, "channel": 0}, {"type": "note_on", "time": 39, "note": 60, "velocity": 97, "channel": 0}, {"type": "note_off", "time": 89, "note": 60, "velocity": 97, "channel": 0}, {"type": "note_on", "time": 19, "note": 64, "velocity": 101, "channel": 0}, {"type": "note_off", "time": 121, "note": 64, "velocity": 101, "channel": 0}, {"type": "note_on", "time": 17, "note": 69, "velocity": 117, "channel": 0}, {"type": "note_off", "time": 180, "note": 69, "velocity": 117, "channel": 0}, {"type": "note_on", "time": 0, "note": 67, "velocity": 108, "channel": 0}, {"type": "note_off", "time": 755, "note": 67, "velocity": 108, "channel": 0}, {"type": "note_on", "time": 76, "note": 67, "velocity": 96, "channel": 0}, {"type": "note_off", "time": 134, "note": 67, "velocity": 96, "channel": 0}, {"type": "note_on", "time": 187, "note": 64, "velocity": 116, "channel": 0}, {"type": "note_off", "time": 217, "note": 64, "velocity": 116, "channel": 0}, {"type": "note_on", "time": 0, "note": 62, "velocity": 108, "channel": 0}, {"type": "note_off", "time": 295, "note": 62, "velocity": 108, "channel": 0}, {"type": "note_on", "time": 60, "note": 60, "velocity": 105, "channel": 0}, {"type": "note_off", "time": 207, "note": 60, "velocity": 105, "channel": 0}, {"type": "note_on", "time": 1226, "note": 65, "velocity": 119, "channel": 0}, {"type": "note_off", "time": 108, "note": 65, "velocity": 119, "channel": 0}, {"type": "note_on", "time": 26, "note": 64, "velocity": 117, "channel": 0}, {"type": "note_off", "time": 123, "note": 64, "velocity": 117, "channel": 0}, {"type": "note_on", "time": 26, "note": 63, "velocity": 106, "channel": 0}, {"type": "note_off", "time": 86, "note": 63, "velocity": 106, "channel": 0}, {"type": "note_on", "time": 22, "note": 62, "velocity": 108, "channel": 0}, {"type": "note_off", "time": 83, "note": 62, "velocity": 108, "channel": 0}, {"type": "note_on", "time": 0, "note": 60, "velocity": 105, "channel": 0}, {"type": "note_off", "time": 110, "note": 60, "velocity": 105, "channel": 0}, {"type": "note_on", "time": 0, "note": 59, "velocity": 108, "channel": 0}, {"type": "note_off", "time": 139, "note": 59, "velocity": 108, "channel": 0}, {"type": "note_on", "time": 17, "note": 58, "velocity": 106, "channel": 0}, {"type": "note_off", "time": 91, "note": 58, "velocity": 106, "channel": 0}, {"type": "note_on", "time": 43, "note": 56, "velocity": 107, "channel": 0}, {"type": "note_off", "time": 121, "note": 56, "velocity": 107, "channel": 0}, {"type": "note_on", "time": 15, "note": 55, "velocity": 101, "channel": 0}, {"type": "note_off", "time": 100, "note": 55, "velocity": 101, "channel": 0}, {"type": "note_on", "time": 1071, "note": 71, "velocity": 119, "channel": 0}, {"type": "note_off", "time": 230, "note": 71, "velocity": 119, "channel": 0}, {"type": "note_on", "time": 2, "note": 72, "velocity": 116, "channel": 0}, {"type": "note_off", "time": 39, "note": 72, "velocity": 116, "channel": 0}, {"type": "note_on", "time": 21, "note": 74, "velocity": 117, "channel": 0}, {"type": "note_off", "time": 178, "note": 74, "velocity": 117, "channel": 0}, {"type": "note_on", "time": 2, "note": 73, "velocity": 114, "channel": 0}, {"type": "note_off", "time": 58, "note": 73, "velocity": 114, "channel": 0}, {"type": "note_on", "time": 10, "note": 72, "velocity": 121, "channel": 0}, {"type": "note_off", "time": 108, "note": 72, "velocity": 121, "channel": 0}, {"type": "note_on", "time": 0, "note": 71, "velocity": 127, "channel": 0}, {"type": "note_off", "time": 200, "note": 71, "velocity": 127, "channel": 0}, {"type": "note_on", "time": 8, "note": 69, "velocity": 120, "channel": 0}, {"type": "note_off", "time": 134, "note": 69, "velocity": 120, "channel": 0}, {"type": "note_on", "time": 30, "note": 67, "velocity": 117, "channel": 0}, {"type": "note_off", "time": 165, "note": 67, "velocity": 117, "channel": 0}, {"type": "note_on", "time": 13, "note": 65, "velocity": 107, "channel": 0}, {"type": "note_off", "time": 141, "note": 65, "velocity": 107, "channel": 0}, {"type": "note_on", "time": 32, "note": 64, "velocity": 104, "channel": 0}, {"type": "note_off", "time": 143, "note": 64, "velocity": 104, "channel": 0}, {"type": "note_on", "time": 17, "note": 62, "velocity": 97, "channel": 0}, {"type": "note_off", "time": 86, "note": 62, "velocity": 97, "channel": 0}, {"type": "note_on", "time": 26, "note": 64, "velocity": 96, "channel": 0}, {"type": "note_off", "time": 52, "note": 64, "velocity": 96, "channel": 0}, {"type": "note_on", "time": 0, "note": 67, "velocity": 115, "channel": 0}, {"type": "note_off", "time": 226, "note": 67, "velocity": 115, "channel": 0}, {"type": "note_on", "time": 41, "note": 64, "velocity": 98, "channel": 0}, {"type": "note_off", "time": 145, "note": 64, "velocity": 98, "channel": 0}, {"type": "note_on", "time": 34, "note": 65, "velocity": 105, "channel": 0}, {"type": "note_off", "time": 234, "note": 65, "velocity": 105, "channel": 0}, {"type": "note_on", "time": 15, "note": 60, "velocity": 112, "channel": 0}, {"type": "note_off", "time": 176, "note": 60, "velocity": 112, "channel": 0}, {"type": "note_on", "time": 30, "note": 57, "velocity": 101, "channel": 0}, {"type": "note_off", "time": 180, "note": 57, "velocity": 101, "channel": 0}, {"type": "note_on", "time": 221, "note": 64, "velocity": 108, "channel": 0}, {"type": "note_off", "time": 111, "note": 64, "velocity": 108, "channel": 0}, {"type": "note_on", "time": 0, "note": 65, "velocity": 109, "channel": 0}, {"type": "note_off", "time": 44, "note": 65, "velocity": 109, "channel": 0}, {"type": "note_on", "time": 7, "note": 64, "velocity": 108, "channel": 0}, {"type": "note_off", "time": 123, "note": 64, "velocity": 108, "channel": 0}, {"type": "note_on", "time": 1, "note": 62, "velocity": 98, "channel": 0}, {"type": "note_off", "time": 182, "note": 62, "velocity": 98, "channel": 0}, {"type": "note_on", "time": 23, "note": 57, "velocity": 105, "channel": 0}, {"type": "note_off", "time": 241, "note": 57, "velocity": 105, "channel": 0}, {"type": "note_on", "time": 20, "note": 53, "velocity": 93, "channel": 0}, {"type": "note_off", "time": 128, "note": 53, "velocity": 93, "channel": 0}, {"type": "note_on", "time": 5, "note": 52, "velocity": 93, "channel": 0}, {"type": "note_off", "time": 217, "note": 52, "velocity": 93, "channel": 0}, {"type": "note_on", "time": 334, "note": 50, "velocity": 86, "channel": 0}, {"type": "note_off", "time": 317, "note": 50, "velocity": 86, "channel": 0}, {"type": "note_on", "time": 1377, "note": 50, "velocity": 95, "channel": 0}, {"type": "note_off", "time": 136, "note": 50, "velocity": 95, "channel": 0}, {"type": "note_on", "time": 10, "note": 52, "velocity": 90, "channel": 0}, {"type": "note_off", "time": 95, "note": 52, "velocity": 90, "channel": 0}, {"type": "note_on", "time": 8, "note": 53, "velocity": 91, "channel": 0}, {"type": "note_off", "time": 78, "note": 53, "velocity": 91, "channel": 0}, {"type": "note_on", "time": 13, "note": 57, "velocity": 103, "channel": 0}, {"type": "note_off", "time": 95, "note": 57, "velocity": 103, "channel": 0}, {"type": "note_on", "time": 47, "note": 60, "velocity": 111, "channel": 0}, {"type": "note_off", "time": 117, "note": 60, "velocity": 111, "channel": 0}, {"type": "note_on", "time": 18, "note": 58, "velocity": 112, "channel": 0}, {"type": "note_off", "time": 184, "note": 58, "velocity": 112, "channel": 0}, {"type": "note_on", "time": 10, "note": 59, "velocity": 106, "channel": 0}, {"type": "note_off", "time": 149, "note": 59, "velocity": 106, "channel": 0}, {"type": "note_on", "time": 12, "note": 60, "velocity": 116, "channel": 0}, {"type": "note_off", "time": 192, "note": 60, "velocity": 116, "channel": 0}, {"type": "note_on", "time": 1, "note": 61, "velocity": 107, "channel": 0}, {"type": "note_off", "time": 56, "note": 61, "velocity": 107, "channel": 0}, {"type": "note_on", "time": 6, "note": 62, "velocity": 102, "channel": 0}, {"type": "note_off", "time": 65, "note": 62, "velocity": 102, "channel": 0}, {"type": "note_on", "time": 4, "note": 63, "velocity": 106, "channel": 0}, {"type": "note_off", "time": 130, "note": 63, "velocity": 106, "channel": 0}, {"type": "note_on", "time": 1, "note": 65, "velocity": 106, "channel": 0}, {"type": "note_off", "time": 173, "note": 65, "velocity": 106, "channel": 0}, {"type": "note_on", "time": 0, "note": 66, "velocity": 104, "channel": 0}, {"type": "note_off", "time": 121, "note": 66, "velocity": 104, "channel": 0}, {"type": "note_on", "time": 0, "note": 67, "velocity": 114, "channel": 0}, {"type": "note_off", "time": 156, "note": 67, "velocity": 114, "channel": 0}, {"type": "note_on", "time": 4, "note": 68, "velocity": 117, "channel": 0}, {"type": "note_off", "time": 146, "note": 68, "velocity": 117, "channel": 0}, {"type": "note_on", "time": 53, "note": 65, "velocity": 106, "channel": 0}, {"type": "note_off", "time": 175, "note": 65, "velocity": 106, "channel": 0}, {"type": "note_on", "time": 24, "note": 61, "velocity": 97, "channel": 0}, {"type": "note_off", "time": 116, "note": 61, "velocity": 97, "channel": 0}, {"type": "note_on", "time": 32, "note": 58, "velocity": 104, "channel": 0}, {"type": "note_off", "time": 137, "note": 58, "velocity": 104, "channel": 0}, {"type": "note_on", "time": 61, "note": 65, "velocity": 101, "channel": 0}, {"type": "note_off", "time": 121, "note": 65, "velocity": 101, "channel": 0}, {"type": "note_on", "time": 39, "note": 67, "velocity": 110, "channel": 0}, {"type": "note_off", "time": 474, "note": 67, "velocity": 110, "channel": 0}, {"type": "note_on", "time": 0, "note": 66, "velocity": 98, "channel": 0}, {"type": "note_off", "time": 45, "note": 66, "velocity": 98, "channel": 0}, {"type": "note_on", "time": 12, "note": 65, "velocity": 102, "channel": 0}, {"type": "note_off", "time": 84, "note": 65, "velocity": 102, "channel": 0}, {"type": "note_on", "time": 19, "note": 64, "velocity": 109, "channel": 0}, {"type": "note_off", "time": 103, "note": 64, "velocity": 109, "channel": 0}, {"type": "note_on", "time": 10, "note": 62, "velocity": 105, "channel": 0}, {"type": "note_off", "time": 108, "note": 62, "velocity": 105, "channel": 0}, {"type": "note_on", "time": 13, "note": 60, "velocity": 107, "channel": 0}, {"type": "note_off", "time": 114, "note": 60, "velocity": 107, "channel": 0}, {"type": "note_on", "time": 24, "note": 59, "velocity": 102, "channel": 0}, {"type": "note_off", "time": 172, "note": 59, "velocity": 102, "channel": 0}, {"type": "note_on", "time": 64, "note": 56, "velocity": 102, "channel": 0}, {"type": "note_off", "time": 79, "note": 56, "velocity": 102, "channel": 0}, {"type": "note_on", "time": 4, "note": 57, "velocity": 101, "channel": 0}, {"type": "note_off", "time": 180, "note": 57, "velocity": 101, "channel": 0}, {"type": "note_on", "time": 45, "note": 60, "velocity": 93, "channel": 0}, {"type": "note_off", "time": 117, "note": 60, "velocity": 93, "channel": 0}, {"type": "note_on", "time": 24, "note": 58, "velocity": 102, "channel": 0}, {"type": "note_off", "time": 120, "note": 58, "velocity": 102, "channel": 0}, {"type": "note_on", "time": 10, "note": 59, "velocity": 102, "channel": 0}, {"type": "note_off", "time": 154, "note": 59, "velocity": 102, "channel": 0}, {"type": "note_on", "time": 15, "note": 61, "velocity": 95, "channel": 0}, {"type": "note_off", "time": 125, "note": 61, "velocity": 95, "channel": 0}, {"type": "note_on", "time": 3, "note": 63, "velocity": 88, "channel": 0}, {"type": "note_off", "time": 111, "note": 63, "velocity": 88, "channel": 0}, {"type": "note_on", "time": 24, "note": 67, "velocity": 87, "channel": 0}, {"type": "note_off", "time": 126, "note": 67, "velocity": 87, "channel": 0}, {"type": "note_on", "time": 4, "note": 70, "velocity": 107, "channel": 0}, {"type": "note_off", "time": 197, "note": 70, "velocity": 107, "channel": 0}, {"type": "note_on", "time": 12, "note": 67, "velocity": 84, "channel": 0}, {"type": "note_off", "time": 58, "note": 67, "velocity": 84, "channel": 0}, {"type": "note_on", "time": 6, "note": 68, "velocity": 108, "channel": 0}, {"type": "note_off", "time": 207, "note": 68, "velocity": 108, "channel": 0}, {"type": "note_on", "time": 24, "note": 70, "velocity": 97, "channel": 0}, {"type": "note_off", "time": 157, "note": 70, "velocity": 97, "channel": 0}, {"type": "note_on", "time": 18, "note": 71, "velocity": 76, "channel": 0}, {"type": "note_off", "time": 97, "note": 71, "velocity": 76, "channel": 0}, {"type": "note_on", "time": 33, "note": 75, "velocity": 84, "channel": 0}, {"type": "note_off", "time": 103, "note": 75, "velocity": 84, "channel": 0}, {"type": "note_on", "time": 59, "note": 75, "velocity": 86, "channel": 0}, {"type": "note_off", "time": 510, "note": 75, "velocity": 86, "channel": 0}, {"type": "note_on", "time": 56, "note": 71, "velocity": 84, "channel": 0}, {"type": "note_off", "time": 193, "note": 71, "velocity": 84, "channel": 0}, {"type": "note_on", "time": 315, "note": 76, "velocity": 96, "channel": 0}, {"type": "note_off", "time": 321, "note": 76, "velocity": 96, "channel": 0}, {"type": "note_on", "time": 797, "note": 71, "velocity": 114, "channel": 0}, {"type": "note_off", "time": 165, "note": 71, "velocity": 114, "channel": 0}, {"type": "note_on", "time": 82, "note": 69, "velocity": 112, "channel": 0}, {"type": "note_off", "time": 130, "note": 69, "velocity": 112, "channel": 0}, {"type": "note_on", "time": 195, "note": 69, "velocity": 109, "channel": 0}, {"type": "note_off", "time": 330, "note": 69, "velocity": 109, "channel": 0}, {"type": "note_on", "time": 37, "note": 69, "velocity": 97, "channel": 0}, {"type": "note_off", "time": 252, "note": 69, "velocity": 97, "channel": 0}, {"type": "note_on", "time": 170, "note": 69, "velocity": 104, "channel": 0}, {"type": "note_off", "time": 286, "note": 69, "velocity": 104, "channel": 0}, {"type": "note_on", "time": 28, "note": 67, "velocity": 96, "channel": 0}, {"type": "note_off", "time": 217, "note": 67, "velocity": 96, "channel": 0}, {"type": "note_on", "time": 245, "note": 72, "velocity": 113, "channel": 0}, {"type": "note_off", "time": 730, "note": 72, "velocity": 113, "channel": 0}, {"type": "note_on", "time": 54, "note": 71, "velocity": 108, "channel": 0}, {"type": "note_off", "time": 243, "note": 71, "velocity": 108, "channel": 0}, {"type": "note_on", "time": 10, "note": 69, "velocity": 109, "channel": 0}, {"type": "note_off", "time": 243, "note": 69, "velocity": 109, "channel": 0}, {"type": "note_on", "time": 21, "note": 65, "velocity": 97, "channel": 0}, {"type": "note_off", "time": 252, "note": 65, "velocity": 97, "channel": 0}, {"type": "note_on", "time": 67, "note": 67, "velocity": 103, "channel": 0}, {"type": "note_off", "time": 620, "note": 67, "velocity": 103, "channel": 0}, {"type": "note_on", "time": 105, "note": 67, "velocity": 99, "channel": 0}, {"type": "note_off", "time": 158, "note": 67, "velocity": 99, "channel": 0}, {"type": "note_on", "time": 67, "note": 66, "velocity": 100, "channel": 0}, {"type": "note_off", "time": 156, "note": 66, "velocity": 100, "channel": 0}, {"type": "note_on", "time": 31, "note": 65, "velocity": 102, "channel": 0}, {"type": "note_off", "time": 208, "note": 65, "velocity": 102, "channel": 0}, {"type": "note_on", "time": 0, "note": 64, "velocity": 113, "channel": 0}, {"type": "note_off", "time": 191, "note": 64, "velocity": 113, "channel": 0}, {"type": "note_on", "time": 0, "note": 63, "velocity": 102, "channel": 0}, {"type": "note_off", "time": 217, "note": 63, "velocity": 102, "channel": 0}, {"type": "note_on", "time": 5, "note": 65, "velocity": 103, "channel": 0}, {"type": "note_off", "time": 139, "note": 65, "velocity": 103, "channel": 0}, {"type": "note_on", "time": 28, "note": 66, "velocity": 97, "channel": 0}, {"type": "note_off", "time": 182, "note": 66, "velocity": 97, "channel": 0}, {"type": "note_on", "time": 26, "note": 70, "velocity": 105, "channel": 0}, {"type": "note_off", "time": 173, "note": 70, "velocity": 105, "channel": 0}, {"type": "note_on", "time": 51, "note": 68, "velocity": 108, "channel": 0}, {"type": "note_off", "time": 286, "note": 68, "velocity": 108, "channel": 0}, {"type": "note_on", "time": 0, "note": 61, "velocity": 103, "channel": 0}, {"type": "note_off", "time": 177, "note": 61, "velocity": 103, "channel": 0}, {"type": "note_on", "time": 198, "note": 66, "velocity": 101, "channel": 0}, {"type": "note_off", "time": 189, "note": 66, "velocity": 101, "channel": 0}, {"type": "note_on", "time": 6, "note": 65, "velocity": 96, "channel": 0}, {"type": "note_off", "time": 229, "note": 65, "velocity": 96, "channel": 0}, {"type": "note_on", "time": 27, "note": 64, "velocity": 90, "channel": 0}, {"type": "note_off", "time": 183, "note": 64, "velocity": 90, "channel": 0}, {"type": "note_on", "time": 33, "note": 65, "velocity": 104, "channel": 0}, {"type": "note_off", "time": 217, "note": 65, "velocity": 104, "channel": 0}, {"type": "note_on", "time": 17, "note": 61, "velocity": 92, "channel": 0}, {"type": "note_off", "time": 204, "note": 61, "velocity": 92, "channel": 0}, {"type": "note_on", "time": 173, "note": 56, "velocity": 99, "channel": 0}, {"type": "note_off", "time": 165, "note": 56, "velocity": 99, "channel": 0}, {"type": "note_on", "time": 80, "note": 62, "velocity": 96, "channel": 0}, {"type": "note_off", "time": 765, "note": 62, "velocity": 96, "channel": 0}, {"type": "note_on", "time": 0, "note": 60, "velocity": 92, "channel": 0}, {"type": "note_on", "time": 366, "note": 62, "velocity": 91, "channel": 0}, {"type": "note_off", "time": 0, "note": 60, "velocity": 92, "channel": 0}, {"type": "note_off", "time": 80, "note": 62, "velocity": 91, "channel": 0}, {"type": "note_on", "time": 23, "note": 59, "velocity": 96, "channel": 0}, {"type": "note_off", "time": 321, "note": 59, "velocity": 96, "channel": 0}, {"type": "note_on", "time": 510, "note": 57, "velocity": 105, "channel": 0}, {"type": "note_off", "time": 204, "note": 57, "velocity": 105, "channel": 0}, {"type": "note_on", "time": 36, "note": 59, "velocity": 92, "channel": 0}, {"type": "note_off", "time": 130, "note": 59, "velocity": 92, "channel": 0}, {"type": "note_on", "time": 39, "note": 55, "velocity": 92, "channel": 0}, {"type": "note_off", "time": 680, "note": 55, "velocity": 92, "channel": 0}, {"type": "note_on", "time": 104, "note": 53, "velocity": 85, "channel": 0}, {"type": "note_off", "time": 165, "note": 53, "velocity": 85, "channel": 0}, {"type": "note_on", "time": 58, "note": 55, "velocity": 92, "channel": 0}, {"type": "note_off", "time": 117, "note": 55, "velocity": 92, "channel": 0}, {"type": "note_on", "time": 52, "note": 52, "velocity": 90, "channel": 0}, {"type": "note_off", "time": 230, "note": 52, "velocity": 90, "channel": 0}, {"type": "note_on", "time": 263, "note": 59, "velocity": 95, "channel": 0}, {"type": "note_off", "time": 189, "note": 59, "velocity": 95, "channel": 0}, {"type": "note_on", "time": 21, "note": 62, "velocity": 87, "channel": 0}, {"type": "note_off", "time": 669, "note": 62, "velocity": 87, "channel": 0}, {"type": "note_on", "time": 575, "note": 60, "velocity": 103, "channel": 0}, {"type": "note_off", "time": 330, "note": 60, "velocity": 103, "channel": 0}, {"type": "note_on", "time": 25, "note": 57, "velocity": 98, "channel": 0}, {"type": "note_off", "time": 330, "note": 57, "velocity": 98, "channel": 0}, {"type": "note_on", "time": 1143, "note": 52, "velocity": 91, "channel": 0}, {"type": "note_off", "time": 193, "note": 52, "velocity": 91, "channel": 0}, {"type": "note_on", "time": 104, "note": 55, "velocity": 103, "channel": 0}, {"type": "note_off", "time": 304, "note": 55, "velocity": 103, "channel": 0}, {"type": "note_on", "time": 36, "note": 52, "velocity": 97, "channel": 0}, {"type": "note_off", "time": 167, "note": 52, "velocity": 97, "channel": 0}, {"type": "note_on", "time": 9, "note": 53, "velocity": 90, "channel": 0}, {"type": "note_off", "time": 226, "note": 53, "velocity": 90, "channel": 0}, {"type": "note_on", "time": 216, "note": 50, "velocity": 90, "channel": 0}, {"type": "note_off", "time": 360, "note": 50, "velocity": 90, "channel": 0}, {"type": "note_on", "time": 1526, "note": 62, "velocity": 125, "channel": 0}, {"type": "note_off", "time": 341, "note": 62, "velocity": 125, "channel": 0}, {"type": "note_on", "time": 63, "note": 62, "velocity": 121, "channel": 0}, {"type": "note_off", "time": 234, "note": 62, "velocity": 121, "channel": 0}, {"type": "note_on", "time": 243, "note": 62, "velocity": 113, "channel": 0}, {"type": "note_off", "time": 339, "note": 62, "velocity": 113, "channel": 0}, {"type": "note_on", "time": 128, "note": 64, "velocity": 107, "channel": 0}, {"type": "note_off", "time": 339, "note": 64, "velocity": 107, "channel": 0}, {"type": "note_on", "time": 165, "note": 60, "velocity": 101, "channel": 0}, {"type": "note_off", "time": 356, "note": 60, "velocity": 101, "channel": 0}, {"type": "note_on", "time": 56, "note": 62, "velocity": 99, "channel": 0}, {"type": "note_off", "time": 317, "note": 62, "velocity": 99, "channel": 0}, {"type": "note_on", "time": 161, "note": 59, "velocity": 99, "channel": 0}, {"type": "note_off", "time": 293, "note": 59, "velocity": 99, "channel": 0}, {"type": "note_on", "time": 375, "note": 59, "velocity": 98, "channel": 0}, {"type": "note_off", "time": 295, "note": 59, "velocity": 98, "channel": 0}, {"type": "note_on", "time": 1073, "note": 58, "velocity": 100, "channel": 0}, {"type": "note_off", "time": 182, "note": 58, "velocity": 100, "channel": 0}, {"type": "note_on", "time": 0, "note": 57, "velocity": 98, "channel": 0}, {"type": "note_off", "time": 65, "note": 57, "velocity": 98, "channel": 0}, {"type": "note_on", "time": 34, "note": 53, "velocity": 89, "channel": 0}, {"type": "note_off", "time": 117, "note": 53, "velocity": 89, "channel": 0}, {"type": "note_on", "time": 52, "note": 46, "velocity": 99, "channel": 0}, {"type": "note_off", "time": 289, "note": 46, "velocity": 99, "channel": 0}, {"type": "note_on", "time": 23, "note": 44, "velocity": 101, "channel": 0}, {"type": "note_off", "time": 697, "note": 44, "velocity": 101, "channel": 0}, {"type": "note_on", "time": 1344, "note": 71, "velocity": 119, "channel": 0}, {"type": "note_off", "time": 243, "note": 71, "velocity": 119, "channel": 0}, {"type": "note_on", "time": 26, "note": 68, "velocity": 113, "channel": 0}, {"type": "note_off", "time": 243, "note": 68, "velocity": 113, "channel": 0}, {"type": "note_on", "time": 2, "note": 74, "velocity": 101, "channel": 0}, {"type": "note_off", "time": 200, "note": 74, "velocity": 101, "channel": 0}, {"type": "note_on", "time": 17, "note": 68, "velocity": 113, "channel": 0}, {"type": "note_off", "time": 139, "note": 68, "velocity": 113, "channel": 0}, {"type": "note_on", "time": 29, "note": 69, "velocity": 113, "channel": 0}, {"type": "note_off", "time": 234, "note": 69, "velocity": 113, "channel": 0}, {"type": "note_on", "time": 27, "note": 71, "velocity": 101, "channel": 0}, {"type": "note_off", "time": 252, "note": 71, "velocity": 101, "channel": 0}, {"type": "note_on", "time": 15, "note": 65, "velocity": 101, "channel": 0}, {"type": "note_off", "time": 278, "note": 65, "velocity": 101, "channel": 0}, {"type": "note_on", "time": 105, "note": 64, "velocity": 116, "channel": 0}, {"type": "note_off", "time": 252, "note": 64, "velocity": 116, "channel": 0}, {"type": "note_on", "time": 90, "note": 67, "velocity": 106, "channel": 0}, {"type": "note_off", "time": 278, "note": 67, "velocity": 106, "channel": 0}, {"type": "note_on", "time": 114, "note": 64, "velocity": 115, "channel": 0}, {"type": "note_off", "time": 191, "note": 64, "velocity": 115, "channel": 0}, {"type": "note_on", "time": 32, "note": 65, "velocity": 101, "channel": 0}, {"type": "note_off", "time": 269, "note": 65, "velocity": 101, "channel": 0}, {"type": "note_on", "time": 2, "note": 60, "velocity": 107, "channel": 0}, {"type": "note_off", "time": 154, "note": 60, "velocity": 107, "channel": 0}, {"type": "note_on", "time": 78, "note": 56, "velocity": 97, "channel": 0}, {"type": "note_off", "time": 163, "note": 56, "velocity": 97, "channel": 0}, {"type": "note_on", "time": 8, "note": 57, "velocity": 101, "channel": 0}, {"type": "note_off", "time": 154, "note": 57, "velocity": 101, "channel": 0}, {"type": "note_on", "time": 0, "note": 64, "velocity": 109, "channel": 0}, {"type": "note_off", "time": 617, "note": 64, "velocity": 109, "channel": 0}, {"type": "note_on", "time": 32, "note": 62, "velocity": 106, "channel": 0}, {"type": "note_off", "time": 252, "note": 62, "velocity": 106, "channel": 0}, {"type": "note_on", "time": 30, "note": 60, "velocity": 103, "channel": 0}, {"type": "note_off", "time": 243, "note": 60, "velocity": 103, "channel": 0}, {"type": "note_on", "time": 56, "note": 62, "velocity": 93, "channel": 0}, {"type": "note_off", "time": 289, "note": 62, "velocity": 93, "channel": 0}, {"type": "note_on", "time": 93, "note": 64, "velocity": 94, "channel": 0}, {"type": "note_off", "time": 434, "note": 64, "velocity": 94, "channel": 0}, {"type": "note_on", "time": 41, "note": 60, "velocity": 100, "channel": 0}, {"type": "note_off", "time": 373, "note": 60, "velocity": 100, "channel": 0}, {"type": "note_on", "time": 21, "note": 57, "velocity": 79, "channel": 0}, {"type": "note_off", "time": 84, "note": 57, "velocity": 79, "channel": 0}, {"type": "note_on", "time": 50, "note": 60, "velocity": 104, "channel": 0}, {"type": "note_off", "time": 898, "note": 60, "velocity": 104, "channel": 0}, {"type": "note_on", "time": 221, "note": 60, "velocity": 101, "channel": 0}, {"type": "note_off", "time": 785, "note": 60, "velocity": 101, "channel": 0}, {"type": "note_on", "time": 91, "note": 60, "velocity": 100, "channel": 0}, {"type": "note_off", "time": 308, "note": 60, "velocity": 100, "channel": 0}, {"type": "note_on", "time": 19, "note": 59, "velocity": 93, "channel": 0}, {"type": "note_off", "time": 116, "note": 59, "velocity": 93, "channel": 0}, {"type": "note_on", "time": 1526, "note": 60, "velocity": 105, "channel": 0}, {"type": "note_off", "time": 167, "note": 60, "velocity": 105, "channel": 0}, {"type": "note_on", "time": 14, "note": 61, "velocity": 101, "channel": 0}, {"type": "note_off", "time": 103, "note": 61, "velocity": 101, "channel": 0}, {"type": "note_on", "time": 45, "note": 62, "velocity": 105, "channel": 0}, {"type": "note_off", "time": 81, "note": 62, "velocity": 105, "channel": 0}, {"type": "note_on", "time": 20, "note": 63, "velocity": 102, "channel": 0}, {"type": "note_off", "time": 84, "note": 63, "velocity": 102, "channel": 0}, {"type": "note_on", "time": 15, "note": 64, "velocity": 118, "channel": 0}, {"type": "note_off", "time": 426, "note": 64, "velocity": 118, "channel": 0}, {"type": "note_on", "time": 13, "note": 65, "velocity": 110, "channel": 0}, {"type": "note_off", "time": 106, "note": 65, "velocity": 110, "channel": 0}, {"type": "note_on", "time": 13, "note": 66, "velocity": 106, "channel": 0}, {"type": "note_off", "time": 384, "note": 66, "velocity": 106, "channel": 0}, {"type": "note_on", "time": 30, "note": 67, "velocity": 116, "channel": 0}, {"type": "note_off", "time": 130, "note": 67, "velocity": 116, "channel": 0}, {"type": "note_on", "time": 20, "note": 68, "velocity": 119, "channel": 0}, {"type": "note_off", "time": 110, "note": 68, "velocity": 119, "channel": 0}, {"type": "note_on", "time": 18, "note": 69, "velocity": 106, "channel": 0}, {"type": "note_off", "time": 1109, "note": 69, "velocity": 106, "channel": 0}, {"type": "note_on", "time": 67, "note": 68, "velocity": 110, "channel": 0}, {"type": "note_off", "time": 143, "note": 68, "velocity": 110, "channel": 0}, {"type": "note_on", "time": 26, "note": 69, "velocity": 90, "channel": 0}, {"type": "note_off", "time": 1191, "note": 69, "velocity": 90, "channel": 0}, {"type": "note_on", "time": 84, "note": 69, "velocity": 98, "channel": 0}, {"type": "note_off", "time": 718, "note": 69, "velocity": 98, "channel": 0}, {"type": "note_on", "time": 1155, "note": 66, "velocity": 98, "channel": 0}, {"type": "note_off", "time": 486, "note": 66, "velocity": 98, "channel": 0}, {"type": "note_on", "time": 372, "note": 66, "velocity": 95, "channel": 0}, {"type": "note_off", "time": 556, "note": 66, "velocity": 95, "channel": 0}, {"type": "note_on", "time": 34, "note": 65, "velocity": 101, "channel": 0}, {"type": "note_off", "time": 242, "note": 65, "velocity": 101, "channel": 0}, {"type": "note_on", "time": 0, "note": 64, "velocity": 103, "channel": 0}, {"type": "note_off", "time": 495, "note": 64, "velocity": 103, "channel": 0}, {"type": "note_on", "time": 391, "note": 66, "velocity": 79, "channel": 0}, {"type": "note_off", "time": 669, "note": 66, "velocity": 79, "channel": 0}, {"type": "note_on", "time": 106, "note": 69, "velocity": 98, "channel": 0}, {"type": "note_off", "time": 205, "note": 69, "velocity": 98, "channel": 0}, {"type": "note_on", "time": 35, "note": 68, "velocity": 78, "channel": 0}, {"type": "note_off", "time": 133, "note": 68, "velocity": 78, "channel": 0}, {"type": "note_on", "time": 1119, "note": 66, "velocity": 78, "channel": 0}, {"type": "note_off", "time": 128, "note": 66, "velocity": 78, "channel": 0}, {"type": "note_on", "time": 191, "note": 71, "velocity": 92, "channel": 0}, {"type": "note_off", "time": 226, "note": 71, "velocity": 92, "channel": 0}, {"type": "note_on", "time": 74, "note": 78, "velocity": 88, "channel": 0}, {"type": "note_off", "time": 125, "note": 78, "velocity": 88, "channel": 0}, {"type": "note_on", "time": 35, "note": 76, "velocity": 103, "channel": 0}, {"type": "note_off", "time": 200, "note": 76, "velocity": 103, "channel": 0}, {"type": "note_on", "time": 33, "note": 73, "velocity": 92, "channel": 0}, {"type": "note_off", "time": 86, "note": 73, "velocity": 92, "channel": 0}, {"type": "note_on", "time": 1, "note": 72, "velocity": 97, "channel": 0}, {"type": "note_off", "time": 131, "note": 72, "velocity": 97, "channel": 0}, {"type": "note_on", "time": 0, "note": 69, "velocity": 108, "channel": 0}, {"type": "note_off", "time": 158, "note": 69, "velocity": 108, "channel": 0}, {"type": "note_on", "time": 0, "note": 71, "velocity": 99, "channel": 0}, {"type": "note_off", "time": 238, "note": 71, "velocity": 99, "channel": 0}, {"type": "note_on", "time": 0, "note": 66, "velocity": 95, "channel": 0}, {"type": "note_off", "time": 165, "note": 66, "velocity": 95, "channel": 0}, {"type": "note_on", "time": 27, "note": 64, "velocity": 107, "channel": 0}, {"type": "note_off", "time": 204, "note": 64, "velocity": 107, "channel": 0}, {"type": "note_on", "time": 131, "note": 69, "velocity": 112, "channel": 0}, {"type": "note_off", "time": 182, "note": 69, "velocity": 112, "channel": 0}, {"type": "note_on", "time": 53, "note": 66, "velocity": 94, "channel": 0}, {"type": "note_off", "time": 217, "note": 66, "velocity": 94, "channel": 0}, {"type": "note_on", "time": 136, "note": 64, "velocity": 98, "channel": 0}, {"type": "note_off", "time": 278, "note": 64, "velocity": 98, "channel": 0}, {"type": "note_on", "time": 0, "note": 61, "velocity": 88, "channel": 0}, {"type": "note_off", "time": 113, "note": 61, "velocity": 88, "channel": 0}, {"type": "note_on", "time": 15, "note": 62, "velocity": 100, "channel": 0}, {"type": "note_off", "time": 204, "note": 62, "velocity": 100, "channel": 0}, {"type": "note_on", "time": 97, "note": 64, "velocity": 102, "channel": 0}, {"type": "note_off", "time": 121, "note": 64, "velocity": 102, "channel": 0}, {"type": "note_on", "time": 0, "note": 65, "velocity": 98, "channel": 0}, {"type": "note_off", "time": 304, "note": 65, "velocity": 98, "channel": 0}, {"type": "note_on", "time": 139, "note": 67, "velocity": 97, "channel": 0}, {"type": "note_off", "time": 313, "note": 67, "velocity": 97, "channel": 0}, {"type": "note_on", "time": 15, "note": 62, "velocity": 85, "channel": 0}, {"type": "note_off", "time": 107, "note": 62, "velocity": 85, "channel": 0}, {"type": "note_on", "time": 25, "note": 68, "velocity": 103, "channel": 0}, {"type": "note_off", "time": 95, "note": 68, "velocity": 103, "channel": 0}, {"type": "note_on", "time": 38, "note": 69, "velocity": 99, "channel": 0}, {"type": "note_off", "time": 1021, "note": 69, "velocity": 99, "channel": 0}, {"type": "note_on", "time": 561, "note": 68, "velocity": 108, "channel": 0}, {"type": "note_off", "time": 121, "note": 68, "velocity": 108, "channel": 0}, {"type": "note_on", "time": 28, "note": 69, "velocity": 113, "channel": 0}, {"type": "note_off", "time": 443, "note": 69, "velocity": 113, "channel": 0}, {"type": "note_on", "time": 31, "note": 68, "velocity": 110, "channel": 0}, {"type": "note_off", "time": 86, "note": 68, "velocity": 110, "channel": 0}, {"type": "note_on", "time": 0, "note": 69, "velocity": 113, "channel": 0}, {"type": "note_off", "time": 264, "note": 69, "velocity": 113, "channel": 0}, {"type": "note_on", "time": 0, "note": 68, "velocity": 105, "channel": 0}, {"type": "note_off", "time": 278, "note": 68, "velocity": 105, "channel": 0}, {"type": "note_on", "time": 0, "note": 65, "velocity": 101, "channel": 0}, {"type": "note_off", "time": 415, "note": 65, "velocity": 101, "channel": 0}, {"type": "note_on", "time": 0, "note": 63, "velocity": 100, "channel": 0}, {"type": "note_off", "time": 76, "note": 63, "velocity": 100, "channel": 0}, {"type": "note_on", "time": 12, "note": 64, "velocity": 105, "channel": 0}, {"type": "note_off", "time": 452, "note": 64, "velocity": 105, "channel": 0}, {"type": "note_on", "time": 9, "note": 63, "velocity": 93, "channel": 0}, {"type": "note_off", "time": 51, "note": 63, "velocity": 93, "channel": 0}, {"type": "note_on", "time": 27, "note": 64, "velocity": 97, "channel": 0}, {"type": "note_off", "time": 556, "note": 64, "velocity": 97, "channel": 0}, {"type": "note_on", "time": 56, "note": 62, "velocity": 97, "channel": 0}, {"type": "note_off", "time": 608, "note": 62, "velocity": 97, "channel": 0}, {"type": "note_on", "time": 76, "note": 67, "velocity": 94, "channel": 0}, {"type": "note_off", "time": 1200, "note": 67, "velocity": 94, "channel": 0}, {"type": "note_on", "time": 130, "note": 64, "velocity": 101, "channel": 0}, {"type": "note_off", "time": 217, "note": 64, "velocity": 101, "channel": 0}, {"type": "note_on", "time": 26, "note": 67, "velocity": 100, "channel": 0}, {"type": "note_off", "time": 330, "note": 67, "velocity": 100, "channel": 0}, {"type": "note_on", "time": 119, "note": 68, "velocity": 104, "channel": 0}, {"type": "note_off", "time": 362, "note": 68, "velocity": 104, "channel": 0}, {"type": "note_on", "time": 22, "note": 67, "velocity": 94, "channel": 0}, {"type": "note_off", "time": 93, "note": 67, "velocity": 94, "channel": 0}, {"type": "note_on", "time": 1368, "note": 67, "velocity": 116, "channel": 0}, {"type": "note_off", "time": 200, "note": 67, "velocity": 116, "channel": 0}, {"type": "note_on", "time": 25, "note": 69, "velocity": 115, "channel": 0}, {"type": "note_off", "time": 642, "note": 69, "velocity": 115, "channel": 0}, {"type": "note_on", "time": 76, "note": 64, "velocity": 104, "channel": 0}, {"type": "note_off", "time": 168, "note": 64, "velocity": 104, "channel": 0}, {"type": "note_on", "time": 69, "note": 69, "velocity": 113, "channel": 0}, {"type": "note_off", "time": 286, "note": 69, "velocity": 113, "channel": 0}, {"type": "note_on", "time": 56, "note": 69, "velocity": 112, "channel": 0}, {"type": "note_off", "time": 186, "note": 69, "velocity": 112, "channel": 0}, {"type": "note_on", "time": 12, "note": 70, "velocity": 113, "channel": 0}, {"type": "note_off", "time": 892, "note": 70, "velocity": 113, "channel": 0}, {"type": "note_on", "time": 129, "note": 70, "velocity": 108, "channel": 0}, {"type": "note_off", "time": 200, "note": 70, "velocity": 108, "channel": 0}, {"type": "note_on", "time": 171, "note": 70, "velocity": 104, "channel": 0}, {"type": "note_off", "time": 192, "note": 70, "velocity": 104, "channel": 0}, {"type": "note_on", "time": 48, "note": 74, "velocity": 101, "channel": 0}, {"type": "note_off", "time": 226, "note": 74, "velocity": 101, "channel": 0}, {"type": "note_on", "time": 57, "note": 71, "velocity": 96, "channel": 0}, {"type": "note_off", "time": 1254, "note": 71, "velocity": 96, "channel": 0}, {"type": "note_on", "time": 0, "note": 69, "velocity": 94, "channel": 0}, {"type": "note_off", "time": 76, "note": 69, "velocity": 94, "channel": 0}, {"type": "note_on", "time": 17, "note": 67, "velocity": 95, "channel": 0}, {"type": "note_off", "time": 278, "note": 67, "velocity": 95, "channel": 0}, {"type": "note_on", "time": 7, "note": 71, "velocity": 90, "channel": 0}, {"type": "note_off", "time": 234, "note": 71, "velocity": 90, "channel": 0}, {"type": "note_on", "time": 0, "note": 67, "velocity": 95, "channel": 0}, {"type": "note_off", "time": 339, "note": 67, "velocity": 95, "channel": 0}, {"type": "note_on", "time": 26, "note": 64, "velocity": 100, "channel": 0}, {"type": "note_off", "time": 259, "note": 64, "velocity": 100, "channel": 0}, {"type": "note_on", "time": 116, "note": 68, "velocity": 108, "channel": 0}, {"type": "note_off", "time": 146, "note": 68, "velocity": 108, "channel": 0}, {"type": "note_on", "time": 15, "note": 69, "velocity": 106, "channel": 0}, {"type": "note_off", "time": 324, "note": 69, "velocity": 106, "channel": 0}, {"type": "note_on", "time": 27, "note": 68, "velocity": 98, "channel": 0}, {"type": "note_off", "time": 125, "note": 68, "velocity": 98, "channel": 0}, {"type": "note_on", "time": 128, "note": 65, "velocity": 94, "channel": 0}, {"type": "note_off", "time": 177, "note": 65, "velocity": 94, "channel": 0}, {"type": "note_on", "time": 88, "note": 64, "velocity": 100, "channel": 0}, {"type": "note_off", "time": 336, "note": 64, "velocity": 100, "channel": 0}, {"type": "note_on", "time": 81, "note": 62, "velocity": 99, "channel": 0}, {"type": "note_off", "time": 347, "note": 62, "velocity": 99, "channel": 0}, {"type": "note_on", "time": 83, "note": 62, "velocity": 100, "channel": 0}, {"type": "note_off", "time": 252, "note": 62, "velocity": 100, "channel": 0}, {"type": "note_on", "time": 15, "note": 60, "velocity": 102, "channel": 0}, {"type": "note_off", "time": 278, "note": 60, "velocity": 102, "channel": 0}, {"type": "note_on", "time": 171, "note": 59, "velocity": 97, "channel": 0}, {"type": "note_off", "time": 284, "note": 59, "velocity": 97, "channel": 0}, {"type": "note_on", "time": 112, "note": 57, "velocity": 71, "channel": 0}, {"type": "note_off", "time": 1030, "note": 57, "velocity": 71, "channel": 0}, {"type": "note_on", "time": 605, "note": 62, "velocity": 113, "channel": 0}, {"type": "note_off", "time": 365, "note": 62, "velocity": 113, "channel": 0}, {"type": "note_on", "time": 217, "note": 64, "velocity": 113, "channel": 0}, {"type": "note_off", "time": 373, "note": 64, "velocity": 113, "channel": 0}, {"type": "note_on", "time": 295, "note": 60, "velocity": 92, "channel": 0}, {"type": "note_off", "time": 382, "note": 60, "velocity": 92, "channel": 0}, {"type": "note_on", "time": 261, "note": 62, "velocity": 96, "channel": 0}, {"type": "note_off", "time": 452, "note": 62, "velocity": 96, "channel": 0}, {"type": "note_on", "time": 168, "note": 59, "velocity": 100, "channel": 0}, {"type": "note_off", "time": 334, "note": 59, "velocity": 100, "channel": 0}, {"type": "note_on", "time": 434, "note": 59, "velocity": 88, "channel": 0}, {"type": "note_off", "time": 621, "note": 59, "velocity": 88, "channel": 0}, {"type": "note_on", "time": 982, "note": 47, "velocity": 98, "channel": 0}, {"type": "note_off", "time": 208, "note": 47, "velocity": 98, "channel": 0}, {"type": "note_on", "time": 30, "note": 48, "velocity": 90, "channel": 0}, {"type": "note_off", "time": 278, "note": 48, "velocity": 90, "channel": 0}, {"type": "note_on", "time": 113, "note": 52, "velocity": 98, "channel": 0}, {"type": "note_off", "time": 304, "note": 52, "velocity": 98, "channel": 0}, {"type": "note_on", "time": 26, "note": 55, "velocity": 107, "channel": 0}, {"type": "note_off", "time": 321, "note": 55, "velocity": 107, "channel": 0}, {"type": "note_on", "time": 112, "note": 58, "velocity": 100, "channel": 0}, {"type": "note_off", "time": 178, "note": 58, "velocity": 100, "channel": 0}, {"type": "note_on", "time": 26, "note": 59, "velocity": 94, "channel": 0}, {"type": "note_off", "time": 417, "note": 59, "velocity": 94, "channel": 0}, {"type": "note_on", "time": 34, "note": 60, "velocity": 89, "channel": 0}, {"type": "note_off", "time": 369, "note": 60, "velocity": 89, "channel": 0}, {"type": "note_on", "time": 130, "note": 57, "velocity": 93, "channel": 0}, {"type": "note_off", "time": 365, "note": 57, "velocity": 93, "channel": 0}, {"type": "note_on", "time": 604, "note": 55, "velocity": 100, "channel": 0}, {"type": "note_off", "time": 226, "note": 55, "velocity": 100, "channel": 0}, {"type": "note_on", "time": 160, "note": 53, "velocity": 85, "channel": 0}, {"type": "note_off", "time": 213, "note": 53, "velocity": 85, "channel": 0}, {"type": "note_on", "time": 43, "note": 55, "velocity": 96, "channel": 0}, {"type": "note_off", "time": 213, "note": 55, "velocity": 96, "channel": 0}, {"type": "note_on", "time": 262, "note": 62, "velocity": 92, "channel": 0}, {"type": "note_off", "time": 191, "note": 62, "velocity": 92, "channel": 0}, {"type": "note_on", "time": 72, "note": 65, "velocity": 94, "channel": 0}, {"type": "note_off", "time": 1043, "note": 65, "velocity": 94, "channel": 0}, {"type": "note_on", "time": 69, "note": 64, "velocity": 105, "channel": 0}, {"type": "note_off", "time": 200, "note": 64, "velocity": 105, "channel": 0}, {"type": "note_on", "time": 0, "note": 62, "velocity": 100, "channel": 0}, {"type": "note_off", "time": 104, "note": 62, "velocity": 100, "channel": 0}, {"type": "note_on", "time": 47, "note": 60, "velocity": 103, "channel": 0}, {"type": "note_off", "time": 198, "note": 60, "velocity": 103, "channel": 0}, {"type": "note_on", "time": 47, "note": 59, "velocity": 96, "channel": 0}, {"type": "note_off", "time": 408, "note": 59, "velocity": 96, "channel": 0}, {"type": "note_on", "time": 210, "note": 55, "velocity": 88, "channel": 0}, {"type": "note_off", "time": 160, "note": 55, "velocity": 88, "channel": 0}, {"type": "note_on", "time": 62, "note": 62, "velocity": 101, "channel": 0}, {"type": "note_off", "time": 382, "note": 62, "velocity": 101, "channel": 0}, {"type": "note_on", "time": 0, "note": 60, "velocity": 98, "channel": 0}, {"type": "note_off", "time": 513, "note": 60, "velocity": 98, "channel": 0}, {"type": "note_on", "time": 1394, "note": 63, "velocity": 105, "channel": 0}, {"type": "note_off", "time": 173, "note": 63, "velocity": 105, "channel": 0}, {"type": "note_on", "time": 46, "note": 65, "velocity": 104, "channel": 0}, {"type": "note_off", "time": 200, "note": 65, "velocity": 104, "channel": 0}, {"type": "note_on", "time": 29, "note": 67, "velocity": 99, "channel": 0}, {"type": "note_off", "time": 199, "note": 67, "velocity": 99, "channel": 0}, {"type": "note_on", "time": 0, "note": 70, "velocity": 100, "channel": 0}, {"type": "note_off", "time": 260, "note": 70, "velocity": 100, "channel": 0}, {"type": "note_on", "time": 0, "note": 68, "velocity": 112, "channel": 0}, {"type": "note_off", "time": 243, "note": 68, "velocity": 112, "channel": 0}, {"type": "note_on", "time": 0, "note": 67, "velocity": 102, "channel": 0}, {"type": "note_off", "time": 200, "note": 67, "velocity": 102, "channel": 0}, {"type": "note_on", "time": 19, "note": 66, "velocity": 98, "channel": 0}, {"type": "note_off", "time": 482, "note": 66, "velocity": 98, "channel": 0}, {"type": "note_on", "time": 17, "note": 65, "velocity": 97, "channel": 0}, {"type": "note_off", "time": 208, "note": 65, "velocity": 97, "channel": 0}, {"type": "note_on", "time": 39, "note": 64, "velocity": 108, "channel": 0}, {"type": "note_off", "time": 191, "note": 64, "velocity": 108, "channel": 0}, {"type": "note_on", "time": 13, "note": 62, "velocity": 87, "channel": 0}, {"type": "note_off", "time": 130, "note": 62, "velocity": 87, "channel": 0}, {"type": "note_on", "time": 2, "note": 63, "velocity": 98, "channel": 0}, {"type": "note_off", "time": 278, "note": 63, "velocity": 98, "channel": 0}, {"type": "note_on", "time": 5, "note": 60, "velocity": 102, "channel": 0}, {"type": "note_off", "time": 165, "note": 60, "velocity": 102, "channel": 0}, {"type": "note_on", "time": 56, "note": 56, "velocity": 94, "channel": 0}, {"type": "note_off", "time": 178, "note": 56, "velocity": 94, "channel": 0}, {"type": "note_on", "time": 243, "note": 55, "velocity": 93, "channel": 0}, {"type": "note_off", "time": 460, "note": 55, "velocity": 93, "channel": 0}, {"type": "note_on", "time": 79, "note": 67, "velocity": 79, "channel": 0}, {"type": "note_off", "time": 247, "note": 67, "velocity": 79, "channel": 0}, {"type": "note_on", "time": 101, "note": 62, "velocity": 97, "channel": 0}, {"type": "note_off", "time": 521, "note": 62, "velocity": 97, "channel": 0}, {"type": "note_on", "time": 23, "note": 62, "velocity": 87, "channel": 0}, {"type": "note_off", "time": 443, "note": 62, "velocity": 87, "channel": 0}, {"type": "note_on", "time": 291, "note": 64, "velocity": 75, "channel": 0}, {"type": "note_off", "time": 1371, "note": 64, "velocity": 75, "channel": 0}, {"type": "end_of_track", "time": 0}]]}