{"ticks_per_beat": 192, "tracks": [[{"type": "track_name", "name": "Melody", "time": 0}, {"type": "set_tempo", "tempo": 422535, "time": 0}, {"type": "key_signature", "key": "F", "time": 0}, {"type": "time_signature", "numerator": 4, "denominator": 4, "clocks_per_click": 24, "notated_32nd_notes_per_beat": 8, "time": 0}, {"type": "note_on", "time": 2092, "note": 77, "velocity": 120, "channel": 0}, {"type": "note_off", "time": 73, "note": 77, "velocity": 120, "channel": 0}, {"type": "note_on", "time": 2, "note": 78, "velocity": 119, "channel": 0}, {"type": "note_off", "time": 63, "note": 78, "velocity": 119, "channel": 0}, {"type": "note_on", "time": 8, "note": 79, "velocity": 122, "channel": 0}, {"type": "note_off", "time": 46, "note": 79, "velocity": 122, "channel": 0}, {"type": "note_on", "time": 4, "note": 82, "velocity": 114, "channel": 0}, {"type": "note_off", "time": 32, "note": 82, "velocity": 114, "channel": 0}, {"type": "note_on", "time": 4, "note": 79, "velocity": 115, "channel": 0}, {"type": "note_off", "time": 222, "note": 79, "velocity": 115, "channel": 0}, {"type": "note_on", "time": 8, "note": 77, "velocity": 105, "channel": 0}, {"type": "note_off", "time": 39, "note": 77, "velocity": 105, "channel": 0}, {"type": "note_on", "time": 5, "note": 75, "velocity": 115, "channel": 0}, {"type": "note_off", "time": 48, "note": 75, "velocity": 115, "channel": 0}, {"type": "note_on", "time": 20, "note": 72, "velocity": 90, "channel": 0}, {"type": "note_off", "time": 276, "note": 72, "velocity": 90, "channel": 0}, {"type": "note_on", "time": 50, "note": 85, "velocity": 125, "channel": 0}, {"type": "note_off", "time": 357, "note": 85, "velocity": 125, "channel": 0}, {"type": "note_on", "time": 30, "note": 82, "velocity": 112, "channel": 0}, {"type": "note_off", "time": 43, "note": 82, "velocity": 112, "channel": 0}, {"type": "note_on", "time": 9, "note": 84, "velocity": 109, "channel": 0}, {"type": "note_off", "time": 30, "note": 84, "velocity": 109, "channel": 0}, {"type": "note_on", "time": 13, "note": 82, "velocity": 103, "channel": 0}, {"type": "note_off", "time": 222, "note": 82, "velocity": 103, "channel": 0}, {"type": "note_on", "time": 64, "note": 78, "velocity": 112, "channel": 0}, {"type": "note_off", "time": 94, "note": 78, "velocity": 112, "channel": 0}, {"type": "note_on", "time": 46, "note": 79, "velocity": 118, "channel": 0}, {"type": "note_off", "time": 42, "note": 79, "velocity": 118, "channel": 0}, {"type": "note_on", "time": 20, "note": 75, "velocity": 116, "channel": 0}, {"type": "note_off", "time": 84, "note": 75, "velocity": 116, "channel": 0}, {"type": "note_on", "time": 41, "note": 72, "velocity": 114, "channel": 0}, {"type": "note_off", "time": 52, "note": 72, "velocity": 114, "channel": 0}, {"type": "note_on", "time": 19, "note": 75, "velocity": 118, "channel": 0}, {"type": "note_off", "time": 36, "note": 75, "velocity": 118, "channel": 0}, {"type": "note_on", "time": 21, "note": 72, "velocity": 98, "channel": 0}, {"type": "note_off", "time": 220, "note": 72, "velocity": 98, "channel": 0}, {"type": "note_on", "time": 116, "note": 73, "velocity": 121, "channel": 0}, {"type": "note_off", "time": 73, "note": 73, "velocity": 121, "channel": 0}, {"type": "note_on", "time": 43, "note": 74, "velocity": 114, "channel": 0}, {"type": "note_off", "time": 60, "note": 74, "velocity": 114, "channel": 0}, {"type": "note_on", "time": 19, "note": 77, "velocity": 119, "channel": 0}, {"type": "note_off", "time": 75, "note": 77, "velocity": 119, "channel": 0}, {"type": "note_on", "time": 31, "note": 74, "velocity": 108, "channel": 0}, {"type": "note_off", "time": 52, "note": 74, "velocity": 108, "channel": 0}, {"type": "note_on", "time": 18, "note": 79, "velocity": 116, "channel": 0}, {"type": "note_off", "time": 102, "note": 79, "velocity": 116, "channel": 0}, {"type": "note_on", "time": 22, "note": 77, "velocity": 115, "channel": 0}, {"type": "note_off", "time": 43, "note": 77, "velocity": 115, "channel": 0}, {"type": "note_on", "time": 22, "note": 80, "velocity": 117, "channel": 0}, {"type": "note_off", "time": 92, "note": 80, "velocity": 117, "channel": 0}, {"type": "note_on", "time": 35, "note": 70, "velocity": 107, "channel": 0}, {"type": "note_off", "time": 59, "note": 70, "velocity": 107, "channel": 0}, {"type": "note_on", "time": 21, "note": 79, "velocity": 115, "channel": 0}, {"type": "note_off", "time": 85, "note": 79, "velocity": 115, "channel": 0}, {"type": "note_on", "time": 22, "note": 82, "velocity": 115, "channel": 0}, {"type": "note_off", "time": 64, "note": 82, "velocity": 115, "channel": 0}, {"type": "note_on", "time": 23, "note": 84, "velocity": 113, "channel": 0}, {"type": "note_off", "time": 84, "note": 84, "velocity": 113, "channel": 0}, {"type": "note_on", "time": 113, "note": 84, "velocity": 114, "channel": 0}, {"type": "note_off", "time": 77, "note": 84, "velocity": 114, "channel": 0}, {"type": "note_on", "time": 33, "note": 72, "velocity": 113, "channel": 0}, {"type": "note_off", "time": 61, "note": 72, "velocity": 113, "channel": 0}, {"type": "note_on", "time": 9, "note": 75, "velocity": 114, "channel": 0}, {"type": "note_off", "time": 84, "note": 75, "velocity": 114, "channel": 0}, {"type": "note_on", "time": 20, "note": 72, "velocity": 106, "channel": 0}, {"type": "note_off", "time": 49, "note": 72, "velocity": 106, "channel": 0}, {"type": "note_on", "time": 139, "note": 75, "velocity": 119, "channel": 0}, {"type": "note_off", "time": 71, "note": 75, "velocity": 119, "channel": 0}, {"type": "note_on", "time": 13, "note": 77, "velocity": 117, "channel": 0}, {"type": "note_off", "time": 75, "note": 77, "velocity": 117, "channel": 0}, {"type": "note_on", "time": 21, "note": 78, "velocity": 115, "channel": 0}, {"type": "note_off", "time": 55, "note": 78, "velocity": 115, "channel": 0}, {"type": "note_on", "time": 32, "note": 79, "velocity": 115, "channel": 0}, {"type": "note_off", "time": 46, "note": 79, "velocity": 115, "channel": 0}, {"type": "note_on", "time": 27, "note": 84, "velocity": 106, "channel": 0}, {"type": "note_off", "time": 195, "note": 84, "velocity": 106, "channel": 0}, {"type": "note_on", "time": 124, "note": 77, "velocity": 117, "channel": 0}, {"type": "note_off", "time": 72, "note": 77, "velocity": 117, "channel": 0}, {"type": "note_on", "time": 34, "note": 79, "velocity": 116, "channel": 0}, {"type": "note_off", "time": 58, "note": 79, "velocity": 116, "channel": 0}, {"type": "note_on", "time": 9, "note": 75, "velocity": 117, "channel": 0}, {"type": "note_off", "time": 88, "note": 75, "velocity": 117, "channel": 0}, {"type": "note_on", "time": 26, "note": 77, "velocity": 115, "channel": 0}, {"type": "note_off", "time": 65, "note": 77, "velocity": 115, "channel": 0}, {"type": "note_on", "time": 8, "note": 72, "velocity": 114, "channel": 0}, {"type": "note_off", "time": 80, "note": 72, "velocity": 114, "channel": 0}, {"type": "note_on", "time": 47, "note": 75, "velocity": 102, "channel": 0}, {"type": "note_off", "time": 158, "note": 75, "velocity": 102, "channel": 0}, {"type": "note_on", "time": 21, "note": 70, "velocity": 101, "channel": 0}, {"type": "note_off", "time": 70, "note": 70, "velocity": 101, "channel": 0}, {"type": "note_on", "time": 5, "note": 73, "velocity": 113, "channel": 0}, {"type": "note_off", "time": 45, "note": 73, "velocity": 113, "channel": 0}, {"type": "note_on", "time": 9, "note": 74, "velocity": 112, "channel": 0}, {"type": "note_off", "time": 108, "note": 74, "velocity": 112, "channel": 0}, {"type": "note_on", "time": 5, "note": 73, "velocity": 102, "channel": 0}, {"type": "note_off", "time": 43, "note": 73, "velocity": 102, "channel": 0}, {"type": "note_on", "time": 6, "note": 70, "velocity": 115, "channel": 0}, {"type": "note_off", "time": 87, "note": 70, "velocity": 115, "channel": 0}, {"type": "note_on", "time": 20, "note": 82, "velocity": 98, "channel": 0}, {"type": "note_off", "time": 263, "note": 82, "velocity": 98, "channel": 0}, {"type": "note_on", "time": 49, "note": 84, "velocity": 85, "channel": 0}, {"type": "note_off", "time": 55, "note": 84, "velocity": 85, "channel": 0}, {"type": "note_on", "time": 106, "note": 78, "velocity": 113, "channel": 0}, {"type": "note_off", "time": 98, "note": 78, "velocity": 113, "channel": 0}, {"type": "note_on", "time": 18, "note": 79, "velocity": 112, "channel": 0}, {"type": "note_off", "time": 64, "note": 79, "velocity": 112, "channel": 0}, {"type": "note_on", "time": 31, "note": 84, "velocity": 127, "channel": 0}, {"type": "note_off", "time": 48, "note": 84, "velocity": 127, "channel": 0}, {"type": "note_on", "time": 131, "note": 85, "velocity": 121, "channel": 0}, {"type": "note_off", "time": 47, "note": 85, "velocity": 121, "channel": 0}, {"type": "note_on", "time": 56, "note": 84, "velocity": 110, "channel": 0}, {"type": "note_off", "time": 118, "note": 84, "velocity": 110, "channel": 0}, {"type": "note_on", "time": 146, "note": 77, "velocity": 116, "channel": 0}, {"type": "note_off", "time": 91, "note": 77, "velocity": 116, "channel": 0}, {"type": "note_on", "time": 23, "note": 79, "velocity": 104, "channel": 0}, {"type": "note_off", "time": 67, "note": 79, "velocity": 104, "channel": 0}, {"type": "note_on", "time": 10, "note": 80, "velocity": 112, "channel": 0}, {"type": "note_off", "time": 64, "note": 80, "velocity": 112, "channel": 0}, {"type": "note_on", "time": 43, "note": 74, "velocity": 106, "channel": 0}, {"type": "note_off", "time": 60, "note": 74, "velocity": 106, "channel": 0}, {"type": "note_on", "time": 25, "note": 77, "velocity": 115, "channel": 0}, {"type": "note_off", "time": 75, "note": 77, "velocity": 115, "channel": 0}, {"type": "note_on", "time": 20, "note": 70, "velocity": 110, "channel": 0}, {"type": "note_off", "time": 170, "note": 70, "velocity": 110, "channel": 0}, {"type": "note_on", "time": 194, "note": 74, "velocity": 104, "channel": 0}, {"type": "note_off", "time": 30, "note": 74, "velocity": 104, "channel": 0}, {"type": "note_on", "time": 10, "note": 78, "velocity": 116, "channel": 0}, {"type": "note_off", "time": 36, "note": 78, "velocity": 116, "channel": 0}, {"type": "note_on", "time": 4, "note": 79, "velocity": 112, "channel": 0}, {"type": "note_off", "time": 60, "note": 79, "velocity": 112, "channel": 0}, {"type": "note_on", "time": 92, "note": 77, "velocity": 111, "channel": 0}, {"type": "note_off", "time": 32, "note": 77, "velocity": 111, "channel": 0}, {"type": "note_on", "time": 0, "note": 79, "velocity": 112, "channel": 0}, {"type": "note_off", "time": 56, "note": 79, "velocity": 112, "channel": 0}, {"type": "note_on", "time": 73, "note": 75, "velocity": 115, "channel": 0}, {"type": "note_off", "time": 89, "note": 75, "velocity": 115, "channel": 0}, {"type": "note_on", "time": 15, "note": 77, "velocity": 117, "channel": 0}, {"type": "note_off", "time": 84, "note": 77, "velocity": 117, "channel": 0}, {"type": "note_on", "time": 14, "note": 75, "velocity": 103, "channel": 0}, {"type": "note_off", "time": 163, "note": 75, "velocity": 103, "channel": 0}, {"type": "note_on", "time": 16, "note": 77, "velocity": 108, "channel": 0}, {"type": "note_off", "time": 147, "note": 77, "velocity": 108, "channel": 0}, {"type": "note_on", "time": 46, "note": 75, "velocity": 114, "channel": 0}, {"type": "note_off", "time": 60, "note": 75, "velocity": 114, "channel": 0}, {"type": "note_on", "time": 11, "note": 77, "velocity": 115, "channel": 0}, {"type": "note_off", "time": 84, "note": 77, "velocity": 115, "channel": 0}, {"type": "note_on", "time": 33, "note": 75, "velocity": 117, "channel": 0}, {"type": "note_off", "time": 47, "note": 75, "velocity": 117, "channel": 0}, {"type": "note_on", "time": 32, "note": 72, "velocity": 116, "channel": 0}, {"type": "note_off", "time": 71, "note": 72, "velocity": 116, "channel": 0}, {"type": "note_on", "time": 41, "note": 67, "velocity": 96, "channel": 0}, {"type": "note_off", "time": 36, "note": 67, "velocity": 96, "channel": 0}, {"type": "note_on", "time": 44, "note": 75, "velocity": 118, "channel": 0}, {"type": "note_off", "time": 80, "note": 75, "velocity": 118, "channel": 0}, {"type": "note_on", "time": 22, "note": 77, "velocity": 112, "channel": 0}, {"type": "note_off", "time": 73, "note": 77, "velocity": 112, "channel": 0}, {"type": "note_on", "time": 4, "note": 78, "velocity": 115, "channel": 0}, {"type": "note_off", "time": 97, "note": 78, "velocity": 115, "channel": 0}, {"type": "note_on", "time": 20, "note": 79, "velocity": 111, "channel": 0}, {"type": "note_off", "time": 64, "note": 79, "velocity": 111, "channel": 0}, {"type": "note_on", "time": 13, "note": 84, "velocity": 125, "channel": 0}, {"type": "note_off", "time": 56, "note": 84, "velocity": 125, "channel": 0}, {"type": "note_on", "time": 38, "note": 82, "velocity": 103, "channel": 0}, {"type": "note_off", "time": 176, "note": 82, "velocity": 103, "channel": 0}, {"type": "note_on", "time": 108, "note": 70, "velocity": 117, "channel": 0}, {"type": "note_off", "time": 75, "note": 70, "velocity": 117, "channel": 0}, {"type": "note_on", "time": 36, "note": 72, "velocity": 112, "channel": 0}, {"type": "note_off", "time": 68, "note": 72, "velocity": 112, "channel": 0}, {"type": "note_on", "time": 5, "note": 73, "velocity": 119, "channel": 0}, {"type": "note_off", "time": 77, "note": 73, "velocity": 119, "channel": 0}, {"type": "note_on", "time": 30, "note": 74, "velocity": 112, "channel": 0}, {"type": "note_off", "time": 54, "note": 74, "velocity": 112, "channel": 0}, {"type": "note_on", "time": 31, "note": 77, "velocity": 116, "channel": 0}, {"type": "note_off", "time": 76, "note": 77, "velocity": 116, "channel": 0}, {"type": "note_on", "time": 30, "note": 80, "velocity": 104, "channel": 0}, {"type": "note_off", "time": 130, "note": 80, "velocity": 104, "channel": 0}, {"type": "note_on", "time": 137, "note": 78, "velocity": 100, "channel": 0}, {"type": "note_off", "time": 84, "note": 78, "velocity": 100, "channel": 0}, {"type": "note_on", "time": 27, "note": 85, "velocity": 99, "channel": 0}, {"type": "note_off", "time": 259, "note": 85, "velocity": 99, "channel": 0}, {"type": "note_on", "time": 3, "note": 84, "velocity": 119, "channel": 0}, {"type": "note_off", "time": 74, "note": 84, "velocity": 119, "channel": 0}, {"type": "note_on", "time": 37, "note": 77, "velocity": 112, "channel": 0}, {"type": "note_off", "time": 108, "note": 77, "velocity": 112, "channel": 0}, {"type": "note_on", "time": 69, "note": 79, "velocity": 108, "channel": 0}, {"type": "note_off", "time": 68, "note": 79, "velocity": 108, "channel": 0}, {"type": "note_on", "time": 14, "note": 75, "velocity": 112, "channel": 0}, {"type": "note_off", "time": 75, "note": 75, "velocity": 112, "channel": 0}, {"type": "note_on", "time": 22, "note": 73, "velocity": 112, "channel": 0}, {"type": "note_off", "time": 34, "note": 73, "velocity": 112, "channel": 0}, {"type": "note_on", "time": 3, "note": 72, "velocity": 114, "channel": 0}, {"type": "note_off", "time": 40, "note": 72, "velocity": 114, "channel": 0}, {"type": "note_on", "time": 2, "note": 70, "velocity": 116, "channel": 0}, {"type": "note_off", "time": 85, "note": 70, "velocity": 116, "channel": 0}, {"type": "note_on", "time": 32, "note": 65, "velocity": 101, "channel": 0}, {"type": "note_off", "time": 143, "note": 65, "velocity": 101, "channel": 0}, {"type": "note_on", "time": 8, "note": 66, "velocity": 93, "channel": 0}, {"type": "note_off", "time": 72, "note": 66, "velocity": 93, "channel": 0}, {"type": "note_on", "time": 4, "note": 65, "velocity": 91, "channel": 0}, {"type": "note_off", "time": 170, "note": 65, "velocity": 91, "channel": 0}, {"type": "end_of_track", "time": 0}]]}