{"ticks_per_beat": 192, "tracks": [[{"type": "track_name", "name": "Melody", "time": 0}, {"type": "set_tempo", "tempo": 288461, "time": 0}, {"type": "key_signature", "key": "C", "time": 0}, {"type": "time_signature", "numerator": 4, "denominator": 4, "clocks_per_click": 24, "notated_32nd_notes_per_beat": 8, "time": 0}, {"type": "note_on", "time": 3355, "note": 75, "velocity": 111, "channel": 0}, {"type": "note_off", "time": 75, "note": 75, "velocity": 111, "channel": 0}, {"type": "note_on", "time": 38, "note": 72, "velocity": 89, "channel": 0}, {"type": "note_off", "time": 110, "note": 72, "velocity": 89, "channel": 0}, {"type": "note_on", "time": 12, "note": 76, "velocity": 101, "channel": 0}, {"type": "note_off", "time": 82, "note": 76, "velocity": 101, "channel": 0}, {"type": "note_on", "time": 76, "note": 84, "velocity": 99, "channel": 0}, {"type": "note_off", "time": 210, "note": 84, "velocity": 99, "channel": 0}, {"type": "note_on", "time": 190, "note": 79, "velocity": 104, "channel": 0}, {"type": "note_off", "time": 84, "note": 79, "velocity": 104, "channel": 0}, {"type": "note_on", "time": 21, "note": 81, "velocity": 95, "channel": 0}, {"type": "note_off", "time": 157, "note": 81, "velocity": 95, "channel": 0}, {"type": "note_on", "time": 39, "note": 75, "velocity": 98, "channel": 0}, {"type": "note_off", "time": 85, "note": 75, "velocity": 98, "channel": 0}, {"type": "note_on", "time": 14, "note": 76, "velocity": 99, "channel": 0}, {"type": "note_off", "time": 78, "note": 76, "velocity": 99, "channel": 0}, {"type": "note_on", "time": 4, "note": 79, "velocity": 98, "channel": 0}, {"type": "note_off", "time": 91, "note": 79, "velocity": 98, "channel": 0}, {"type": "note_on", "time": 12, "note": 76, "velocity": 100, "channel": 0}, {"type": "note_off", "time": 82, "note": 76, "velocity": 100, "channel": 0}, {"type": "note_on", "time": 84, "note": 76, "velocity": 89, "channel": 0}, {"type": "note_off", "time": 528, "note": 76, "velocity": 89, "channel": 0}, {"type": "note_on", "time": 247, "note": 76, "velocity": 103, "channel": 0}, {"type": "note_off", "time": 59, "note": 76, "velocity": 103, "channel": 0}, {"type": "note_on", "time": 4, "note": 79, "velocity": 103, "channel": 0}, {"type": "note_off", "time": 52, "note": 79, "velocity": 103, "channel": 0}, {"type": "note_on", "time": 4, "note": 76, "velocity": 100, "channel": 0}, {"type": "note_off", "time": 63, "note": 76, "velocity": 100, "channel": 0}, {"type": "note_on", "time": 11, "note": 75, "velocity": 108, "channel": 0}, {"type": "note_off", "time": 76, "note": 75, "velocity": 108, "channel": 0}, {"type": "note_on", "time": 54, "note": 76, "velocity": 101, "channel": 0}, {"type": "note_off", "time": 53, "note": 76, "velocity": 101, "channel": 0}, {"type": "note_on", "time": 11, "note": 77, "velocity": 102, "channel": 0}, {"type": "note_off", "time": 77, "note": 77, "velocity": 102, "channel": 0}, {"type": "note_on", "time": 29, "note": 78, "velocity": 100, "channel": 0}, {"type": "note_off", "time": 74, "note": 78, "velocity": 100, "channel": 0}, {"type": "note_on", "time": 29, "note": 79, "velocity": 108, "channel": 0}, {"type": "note_off", "time": 71, "note": 79, "velocity": 108, "channel": 0}, {"type": "note_on", "time": 0, "note": 80, "velocity": 102, "channel": 0}, {"type": "note_off", "time": 82, "note": 80, "velocity": 102, "channel": 0}, {"type": "note_on", "time": 7, "note": 79, "velocity": 106, "channel": 0}, {"type": "note_off", "time": 73, "note": 79, "velocity": 106, "channel": 0}, {"type": "note_on", "time": 4, "note": 80, "velocity": 115, "channel": 0}, {"type": "note_off", "time": 172, "note": 80, "velocity": 115, "channel": 0}, {"type": "note_on", "time": 3, "note": 81, "velocity": 103, "channel": 0}, {"type": "note_off", "time": 965, "note": 81, "velocity": 103, "channel": 0}, {"type": "note_on", "time": 31, "note": 79, "velocity": 104, "channel": 0}, {"type": "note_off", "time": 65, "note": 79, "velocity": 104, "channel": 0}, {"type": "note_on", "time": 8, "note": 81, "velocity": 116, "channel": 0}, {"type": "note_off", "time": 91, "note": 81, "velocity": 116, "channel": 0}, {"type": "note_on", "time": 6, "note": 80, "velocity": 108, "channel": 0}, {"type": "note_off", "time": 71, "note": 80, "velocity": 108, "channel": 0}, {"type": "note_on", "time": 23, "note": 81, "velocity": 113, "channel": 0}, {"type": "note_off", "time": 95, "note": 81, "velocity": 113, "channel": 0}, {"type": "note_on", "time": 31, "note": 80, "velocity": 107, "channel": 0}, {"type": "note_off", "time": 40, "note": 80, "velocity": 107, "channel": 0}, {"type": "note_on", "time": 11, "note": 79, "velocity": 101, "channel": 0}, {"type": "note_off", "time": 30, "note": 79, "velocity": 101, "channel": 0}, {"type": "note_on", "time": 84, "note": 79, "velocity": 93, "channel": 0}, {"type": "note_off", "time": 646, "note": 79, "velocity": 93, "channel": 0}, {"type": "note_on", "time": 315, "note": 79, "velocity": 114, "channel": 0}, {"type": "note_off", "time": 82, "note": 79, "velocity": 114, "channel": 0}, {"type": "note_on", "time": 5, "note": 80, "velocity": 118, "channel": 0}, {"type": "note_off", "time": 89, "note": 80, "velocity": 118, "channel": 0}, {"type": "note_on", "time": 9, "note": 84, "velocity": 127, "channel": 0}, {"type": "note_off", "time": 103, "note": 84, "velocity": 127, "channel": 0}, {"type": "note_on", "time": 25, "note": 84, "velocity": 100, "channel": 0}, {"type": "note_off", "time": 460, "note": 84, "velocity": 100, "channel": 0}, {"type": "note_on", "time": 8, "note": 84, "velocity": 86, "channel": 0}, {"type": "note_off", "time": 57, "note": 84, "velocity": 86, "channel": 0}, {"type": "note_on", "time": 203, "note": 80, "velocity": 93, "channel": 0}, {"type": "note_off", "time": 20, "note": 80, "velocity": 93, "channel": 0}, {"type": "note_on", "time": 9, "note": 81, "velocity": 103, "channel": 0}, {"type": "note_off", "time": 67, "note": 81, "velocity": 103, "channel": 0}, {"type": "note_on", "time": 16, "note": 84, "velocity": 111, "channel": 0}, {"type": "note_off", "time": 62, "note": 84, "velocity": 111, "channel": 0}, {"type": "note_on", "time": 15, "note": 86, "velocity": 113, "channel": 0}, {"type": "note_off", "time": 77, "note": 86, "velocity": 113, "channel": 0}, {"type": "note_on", "time": 19, "note": 87, "velocity": 112, "channel": 0}, {"type": "note_off", "time": 86, "note": 87, "velocity": 112, "channel": 0}, {"type": "note_on", "time": 11, "note": 86, "velocity": 118, "channel": 0}, {"type": "note_off", "time": 82, "note": 86, "velocity": 118, "channel": 0}, {"type": "note_on", "time": 8, "note": 84, "velocity": 107, "channel": 0}, {"type": "note_off", "time": 89, "note": 84, "velocity": 107, "channel": 0}, {"type": "note_on", "time": 34, "note": 86, "velocity": 117, "channel": 0}, {"type": "note_off", "time": 107, "note": 86, "velocity": 117, "channel": 0}, {"type": "note_on", "time": 38, "note": 84, "velocity": 111, "channel": 0}, {"type": "note_off", "time": 131, "note": 84, "velocity": 111, "channel": 0}, {"type": "note_on", "time": 69, "note": 84, "velocity": 101, "channel": 0}, {"type": "note_off", "time": 131, "note": 84, "velocity": 101, "channel": 0}, {"type": "note_on", "time": 73, "note": 79, "velocity": 103, "channel": 0}, {"type": "note_off", "time": 99, "note": 79, "velocity": 103, "channel": 0}, {"type": "note_on", "time": 33, "note": 81, "velocity": 102, "channel": 0}, {"type": "note_off", "time": 182, "note": 81, "velocity": 102, "channel": 0}, {"type": "note_on", "time": 14, "note": 80, "velocity": 104, "channel": 0}, {"type": "note_off", "time": 57, "note": 80, "velocity": 104, "channel": 0}, {"type": "note_on", "time": 5, "note": 81, "velocity": 105, "channel": 0}, {"type": "note_off", "time": 54, "note": 81, "velocity": 105, "channel": 0}, {"type": "note_on", "time": 11, "note": 79, "velocity": 100, "channel": 0}, {"type": "note_off", "time": 97, "note": 79, "velocity": 100, "channel": 0}, {"type": "note_on", "time": 19, "note": 76, "velocity": 107, "channel": 0}, {"type": "note_off", "time": 105, "note": 76, "velocity": 107, "channel": 0}, {"type": "note_on", "time": 9, "note": 75, "velocity": 106, "channel": 0}, {"type": "note_off", "time": 80, "note": 75, "velocity": 106, "channel": 0}, {"type": "note_on", "time": 7, "note": 76, "velocity": 102, "channel": 0}, {"type": "note_off", "time": 96, "note": 76, "velocity": 102, "channel": 0}, {"type": "note_on", "time": 2, "note": 79, "velocity": 103, "channel": 0}, {"type": "note_off", "time": 74, "note": 79, "velocity": 103, "channel": 0}, {"type": "note_on", "time": 14, "note": 76, "velocity": 108, "channel": 0}, {"type": "note_off", "time": 82, "note": 76, "velocity": 108, "channel": 0}, {"type": "note_on", "time": 14, "note": 75, "velocity": 111, "channel": 0}, {"type": "note_off", "time": 71, "note": 75, "velocity": 111, "channel": 0}, {"type": "note_on", "time": 25, "note": 74, "velocity": 101, "channel": 0}, {"type": "note_off", "time": 194, "note": 74, "velocity": 101, "channel": 0}, {"type": "note_on", "time": 197, "note": 74, "velocity": 104, "channel": 0}, {"type": "note_off", "time": 78, "note": 74, "velocity": 104, "channel": 0}, {"type": "note_on", "time": 19, "note": 74, "velocity": 105, "channel": 0}, {"type": "note_off", "time": 86, "note": 74, "velocity": 105, "channel": 0}, {"type": "note_on", "time": 8, "note": 73, "velocity": 113, "channel": 0}, {"type": "note_off", "time": 67, "note": 73, "velocity": 113, "channel": 0}, {"type": "note_on", "time": 39, "note": 74, "velocity": 105, "channel": 0}, {"type": "note_off", "time": 52, "note": 74, "velocity": 105, "channel": 0}, {"type": "note_on", "time": 21, "note": 72, "velocity": 110, "channel": 0}, {"type": "note_off", "time": 95, "note": 72, "velocity": 110, "channel": 0}, {"type": "note_on", "time": 43, "note": 72, "velocity": 110, "channel": 0}, {"type": "note_off", "time": 95, "note": 72, "velocity": 110, "channel": 0}, {"type": "note_on", "time": 76, "note": 72, "velocity": 105, "channel": 0}, {"type": "note_off", "time": 167, "note": 72, "velocity": 105, "channel": 0}, {"type": "note_on", "time": 175, "note": 69, "velocity": 109, "channel": 0}, {"type": "note_off", "time": 44, "note": 69, "velocity": 109, "channel": 0}, {"type": "note_on", "time": 6, "note": 70, "velocity": 113, "channel": 0}, {"type": "note_off", "time": 67, "note": 70, "velocity": 113, "channel": 0}, {"type": "note_on", "time": 20, "note": 73, "velocity": 85, "channel": 0}, {"type": "note_off", "time": 695, "note": 73, "velocity": 85, "channel": 0}, {"type": "note_on", "time": 12, "note": 79, "velocity": 97, "channel": 0}, {"type": "note_off", "time": 114, "note": 79, "velocity": 97, "channel": 0}, {"type": "note_on", "time": 11, "note": 77, "velocity": 103, "channel": 0}, {"type": "note_off", "time": 78, "note": 77, "velocity": 103, "channel": 0}, {"type": "note_on", "time": 3, "note": 74, "velocity": 96, "channel": 0}, {"type": "note_off", "time": 89, "note": 74, "velocity": 96, "channel": 0}, {"type": "note_on", "time": 9, "note": 72, "velocity": 105, "channel": 0}, {"type": "note_off", "time": 67, "note": 72, "velocity": 105, "channel": 0}, {"type": "note_on", "time": 6, "note": 71, "velocity": 111, "channel": 0}, {"type": "note_off", "time": 85, "note": 71, "velocity": 111, "channel": 0}, {"type": "note_on", "time": 27, "note": 67, "velocity": 88, "channel": 0}, {"type": "note_off", "time": 74, "note": 67, "velocity": 88, "channel": 0}, {"type": "note_on", "time": 21, "note": 79, "velocity": 99, "channel": 0}, {"type": "note_off", "time": 89, "note": 79, "velocity": 99, "channel": 0}, {"type": "note_on", "time": 15, "note": 77, "velocity": 97, "channel": 0}, {"type": "note_off", "time": 59, "note": 77, "velocity": 97, "channel": 0}, {"type": "note_on", "time": 3, "note": 76, "velocity": 109, "channel": 0}, {"type": "note_off", "time": 113, "note": 76, "velocity": 109, "channel": 0}, {"type": "note_on", "time": 94, "note": 76, "velocity": 116, "channel": 0}, {"type": "note_off", "time": 146, "note": 76, "velocity": 116, "channel": 0}, {"type": "note_on", "time": 47, "note": 72, "velocity": 101, "channel": 0}, {"type": "note_off", "time": 187, "note": 72, "velocity": 101, "channel": 0}, {"type": "note_on", "time": 196, "note": 72, "velocity": 108, "channel": 0}, {"type": "note_off", "time": 97, "note": 72, "velocity": 108, "channel": 0}, {"type": "note_on", "time": 29, "note": 74, "velocity": 103, "channel": 0}, {"type": "note_off", "time": 56, "note": 74, "velocity": 103, "channel": 0}, {"type": "note_on", "time": 2, "note": 76, "velocity": 109, "channel": 0}, {"type": "note_off", "time": 74, "note": 76, "velocity": 109, "channel": 0}, {"type": "note_on", "time": 44, "note": 72, "velocity": 102, "channel": 0}, {"type": "note_off", "time": 58, "note": 72, "velocity": 102, "channel": 0}, {"type": "note_on", "time": 23, "note": 79, "velocity": 102, "channel": 0}, {"type": "note_off", "time": 80, "note": 79, "velocity": 102, "channel": 0}, {"type": "note_on", "time": 94, "note": 79, "velocity": 95, "channel": 0}, {"type": "note_off", "time": 149, "note": 79, "velocity": 95, "channel": 0}, {"type": "note_on", "time": 51, "note": 76, "velocity": 109, "channel": 0}, {"type": "note_off", "time": 137, "note": 76, "velocity": 109, "channel": 0}, {"type": "note_on", "time": 246, "note": 78, "velocity": 95, "channel": 0}, {"type": "note_off", "time": 33, "note": 78, "velocity": 95, "channel": 0}, {"type": "note_on", "time": 3, "note": 80, "velocity": 104, "channel": 0}, {"type": "note_off", "time": 70, "note": 80, "velocity": 104, "channel": 0}, {"type": "note_on", "time": 40, "note": 80, "velocity": 111, "channel": 0}, {"type": "note_off", "time": 85, "note": 80, "velocity": 111, "channel": 0}, {"type": "note_on", "time": 68, "note": 80, "velocity": 98, "channel": 0}, {"type": "note_off", "time": 68, "note": 80, "velocity": 98, "channel": 0}, {"type": "note_on", "time": 14, "note": 76, "velocity": 98, "channel": 0}, {"type": "note_off", "time": 136, "note": 76, "velocity": 98, "channel": 0}, {"type": "note_on", "time": 11, "note": 75, "velocity": 102, "channel": 0}, {"type": "note_off", "time": 38, "note": 75, "velocity": 102, "channel": 0}, {"type": "note_on", "time": 7, "note": 76, "velocity": 109, "channel": 0}, {"type": "note_off", "time": 61, "note": 76, "velocity": 109, "channel": 0}, {"type": "note_on", "time": 63, "note": 76, "velocity": 110, "channel": 0}, {"type": "note_off", "time": 123, "note": 76, "velocity": 110, "channel": 0}, {"type": "note_on", "time": 52, "note": 75, "velocity": 108, "channel": 0}, {"type": "note_off", "time": 66, "note": 75, "velocity": 108, "channel": 0}, {"type": "note_on", "time": 17, "note": 76, "velocity": 109, "channel": 0}, {"type": "note_off", "time": 207, "note": 76, "velocity": 109, "channel": 0}, {"type": "note_on", "time": 12, "note": 79, "velocity": 100, "channel": 0}, {"type": "note_off", "time": 279, "note": 79, "velocity": 100, "channel": 0}, {"type": "note_on", "time": 0, "note": 81, "velocity": 98, "channel": 0}, {"type": "note_off", "time": 248, "note": 81, "velocity": 98, "channel": 0}, {"type": "note_on", "time": 190, "note": 72, "velocity": 103, "channel": 0}, {"type": "note_off", "time": 252, "note": 72, "velocity": 103, "channel": 0}, {"type": "note_on", "time": 24, "note": 80, "velocity": 109, "channel": 0}, {"type": "note_off", "time": 190, "note": 80, "velocity": 109, "channel": 0}, {"type": "note_on", "time": 66, "note": 79, "velocity": 112, "channel": 0}, {"type": "note_off", "time": 103, "note": 79, "velocity": 112, "channel": 0}, {"type": "note_on", "time": 10, "note": 80, "velocity": 114, "channel": 0}, {"type": "note_off", "time": 218, "note": 80, "velocity": 114, "channel": 0}, {"type": "note_on", "time": 42, "note": 79, "velocity": 107, "channel": 0}, {"type": "note_off", "time": 76, "note": 79, "velocity": 107, "channel": 0}, {"type": "note_on", "time": 15, "note": 80, "velocity": 103, "channel": 0}, {"type": "note_off", "time": 71, "note": 80, "velocity": 103, "channel": 0}, {"type": "note_on", "time": 4, "note": 79, "velocity": 98, "channel": 0}, {"type": "note_off", "time": 702, "note": 79, "velocity": 98, "channel": 0}, {"type": "note_on", "time": 213, "note": 79, "velocity": 106, "channel": 0}, {"type": "note_off", "time": 77, "note": 79, "velocity": 106, "channel": 0}, {"type": "note_on", "time": 17, "note": 80, "velocity": 112, "channel": 0}, {"type": "note_off", "time": 92, "note": 80, "velocity": 112, "channel": 0}, {"type": "note_on", "time": 76, "note": 84, "velocity": 101, "channel": 0}, {"type": "note_off", "time": 236, "note": 84, "velocity": 101, "channel": 0}, {"type": "note_on", "time": 137, "note": 79, "velocity": 93, "channel": 0}, {"type": "note_off", "time": 20, "note": 79, "velocity": 93, "channel": 0}, {"type": "note_on", "time": 3, "note": 80, "velocity": 111, "channel": 0}, {"type": "note_off", "time": 64, "note": 80, "velocity": 111, "channel": 0}, {"type": "note_on", "time": 40, "note": 79, "velocity": 107, "channel": 0}, {"type": "note_off", "time": 94, "note": 79, "velocity": 107, "channel": 0}, {"type": "note_on", "time": 75, "note": 79, "velocity": 99, "channel": 0}, {"type": "note_off", "time": 66, "note": 79, "velocity": 99, "channel": 0}, {"type": "note_on", "time": 8, "note": 77, "velocity": 107, "channel": 0}, {"type": "note_off", "time": 66, "note": 77, "velocity": 107, "channel": 0}, {"type": "note_on", "time": 44, "note": 72, "velocity": 104, "channel": 0}, {"type": "note_off", "time": 77, "note": 72, "velocity": 104, "channel": 0}, {"type": "note_on", "time": 6, "note": 74, "velocity": 106, "channel": 0}, {"type": "note_off", "time": 74, "note": 74, "velocity": 106, "channel": 0}, {"type": "note_on", "time": 62, "note": 75, "velocity": 111, "channel": 0}, {"type": "note_off", "time": 99, "note": 75, "velocity": 111, "channel": 0}, {"type": "note_on", "time": 77, "note": 75, "velocity": 112, "channel": 0}, {"type": "note_off", "time": 101, "note": 75, "velocity": 112, "channel": 0}, {"type": "note_on", "time": 70, "note": 72, "velocity": 106, "channel": 0}, {"type": "note_off", "time": 71, "note": 72, "velocity": 106, "channel": 0}, {"type": "note_on", "time": 8, "note": 76, "velocity": 104, "channel": 0}, {"type": "note_off", "time": 98, "note": 76, "velocity": 104, "channel": 0}, {"type": "note_on", "time": 40, "note": 67, "velocity": 101, "channel": 0}, {"type": "note_off", "time": 52, "note": 67, "velocity": 101, "channel": 0}, {"type": "note_on", "time": 14, "note": 72, "velocity": 107, "channel": 0}, {"type": "note_off", "time": 68, "note": 72, "velocity": 107, "channel": 0}, {"type": "note_on", "time": 40, "note": 76, "velocity": 95, "channel": 0}, {"type": "note_off", "time": 61, "note": 76, "velocity": 95, "channel": 0}, {"type": "note_on", "time": 24, "note": 79, "velocity": 98, "channel": 0}, {"type": "note_off", "time": 76, "note": 79, "velocity": 98, "channel": 0}, {"type": "note_on", "time": 26, "note": 76, "velocity": 105, "channel": 0}, {"type": "note_off", "time": 61, "note": 76, "velocity": 105, "channel": 0}, {"type": "note_on", "time": 27, "note": 79, "velocity": 99, "channel": 0}, {"type": "note_off", "time": 94, "note": 79, "velocity": 99, "channel": 0}, {"type": "note_on", "time": 10, "note": 76, "velocity": 95, "channel": 0}, {"type": "note_off", "time": 65, "note": 76, "velocity": 95, "channel": 0}, {"type": "note_on", "time": 0, "note": 80, "velocity": 101, "channel": 0}, {"type": "note_off", "time": 112, "note": 80, "velocity": 101, "channel": 0}, {"type": "note_on", "time": 4, "note": 79, "velocity": 89, "channel": 0}, {"type": "note_off", "time": 65, "note": 79, "velocity": 89, "channel": 0}, {"type": "note_on", "time": 19, "note": 81, "velocity": 104, "channel": 0}, {"type": "note_off", "time": 101, "note": 81, "velocity": 104, "channel": 0}, {"type": "note_on", "time": 32, "note": 81, "velocity": 106, "channel": 0}, {"type": "note_off", "time": 119, "note": 81, "velocity": 106, "channel": 0}, {"type": "note_on", "time": 34, "note": 76, "velocity": 106, "channel": 0}, {"type": "note_off", "time": 112, "note": 76, "velocity": 106, "channel": 0}, {"type": "note_on", "time": 167, "note": 81, "velocity": 109, "channel": 0}, {"type": "note_off", "time": 110, "note": 81, "velocity": 109, "channel": 0}, {"type": "note_on", "time": 85, "note": 81, "velocity": 109, "channel": 0}, {"type": "note_off", "time": 140, "note": 81, "velocity": 109, "channel": 0}, {"type": "note_on", "time": 53, "note": 74, "velocity": 95, "channel": 0}, {"type": "note_off", "time": 203, "note": 74, "velocity": 95, "channel": 0}, {"type": "note_on", "time": 179, "note": 79, "velocity": 104, "channel": 0}, {"type": "note_off", "time": 116, "note": 79, "velocity": 104, "channel": 0}, {"type": "note_on", "time": 11, "note": 77, "velocity": 98, "channel": 0}, {"type": "note_off", "time": 29, "note": 77, "velocity": 98, "channel": 0}, {"type": "note_on", "time": 4, "note": 79, "velocity": 105, "channel": 0}, {"type": "note_off", "time": 116, "note": 79, "velocity": 105, "channel": 0}, {"type": "note_on", "time": 22, "note": 76, "velocity": 105, "channel": 0}, {"type": "note_off", "time": 83, "note": 76, "velocity": 105, "channel": 0}, {"type": "note_on", "time": 1, "note": 77, "velocity": 105, "channel": 0}, {"type": "note_off", "time": 79, "note": 77, "velocity": 105, "channel": 0}, {"type": "note_on", "time": 30, "note": 74, "velocity": 103, "channel": 0}, {"type": "note_off", "time": 67, "note": 74, "velocity": 103, "channel": 0}, {"type": "note_on", "time": 7, "note": 77, "velocity": 101, "channel": 0}, {"type": "note_off", "time": 103, "note": 77, "velocity": 101, "channel": 0}, {"type": "note_on", "time": 7, "note": 74, "velocity": 99, "channel": 0}, {"type": "note_off", "time": 58, "note": 74, "velocity": 99, "channel": 0}, {"type": "note_on", "time": 13, "note": 76, "velocity": 109, "channel": 0}, {"type": "note_off", "time": 116, "note": 76, "velocity": 109, "channel": 0}, {"type": "end_of_track", "time": 0}]]}