{"ticks_per_beat": 840, "tracks": [[{"type": "note_on", "time": 0, "note": 64, "velocity": 115, "channel": 0}, {"type": "note_off", "time": 2053, "note": 64, "velocity": 115, "channel": 0}, {"type": "note_on", "time": 0, "note": 62, "velocity": 112, "channel": 0}, {"type": "note_off", "time": 856, "note": 62, "velocity": 112, "channel": 0}, {"type": "note_on", "time": 67, "note": 65, "velocity": 108, "channel": 0}, {"type": "note_off", "time": 705, "note": 65, "velocity": 108, "channel": 0}, {"type": "note_on", "time": 285, "note": 65, "velocity": 116, "channel": 0}, {"type": "track_name", "name": "Melody", "time": 579}, {"type": "set_tempo", "tempo": 204081, "time": 0}, {"type": "key_signature", "key": "F", "time": 0}, {"type": "time_signature", "numerator": 4, "denominator": 4, "clocks_per_click": 24, "notated_32nd_notes_per_beat": 8, "time": 0}, {"type": "note_off", "time": 42, "note": 65, "velocity": 116, "channel": 0}, {"type": "note_on", "time": 16, "note": 67, "velocity": 110, "channel": 0}, {"type": "note_off", "time": 520, "note": 67, "velocity": 110, "channel": 0}, {"type": "note_on", "time": 100, "note": 69, "velocity": 106, "channel": 0}, {"type": "note_off", "time": 1999, "note": 69, "velocity": 106, "channel": 0}, {"type": "note_on", "time": 50, "note": 67, "velocity": 103, "channel": 0}, {"type": "note_off", "time": 302, "note": 67, "velocity": 103, "channel": 0}, {"type": "note_on", "time": 117, "note": 65, "velocity": 110, "channel": 0}, {"type": "note_off", "time": 504, "note": 65, "velocity": 110, "channel": 0}, {"type": "note_on", "time": 33, "note": 62, "velocity": 102, "channel": 0}, {"type": "note_off", "time": 1041, "note": 62, "velocity": 102, "channel": 0}, {"type": "note_on", "time": 2049, "note": 69, "velocity": 106, "channel": 0}, {"type": "note_off", "time": 974, "note": 69, "velocity": 106, "channel": 0}, {"type": "note_on", "time": 0, "note": 62, "velocity": 111, "channel": 0}, {"type": "note_off", "time": 369, "note": 62, "velocity": 111, "channel": 0}, {"type": "note_on", "time": 100, "note": 65, "velocity": 111, "channel": 0}, {"type": "note_off", "time": 2436, "note": 65, "velocity": 111, "channel": 0}, {"type": "note_on", "time": 2099, "note": 69, "velocity": 110, "channel": 0}, {"type": "note_off", "time": 1041, "note": 69, "velocity": 110, "channel": 0}, {"type": "note_on", "time": 16, "note": 67, "velocity": 103, "channel": 0}, {"type": "note_off", "time": 285, "note": 67, "velocity": 103, "channel": 0}, {"type": "note_on", "time": 33, "note": 69, "velocity": 112, "channel": 0}, {"type": "note_on", "time": 369, "note": 67, "velocity": 109, "channel": 0}, {"type": "note_off", "time": 0, "note": 69, "velocity": 112, "channel": 0}, {"type": "note_off", "time": 470, "note": 67, "velocity": 109, "channel": 0}, {"type": "note_on", "time": 43, "note": 62, "velocity": 109, "channel": 0}, {"type": "note_off", "time": 346, "note": 62, "velocity": 109, "channel": 0}, {"type": "note_on", "time": 23, "note": 65, "velocity": 110, "channel": 0}, {"type": "note_off", "time": 1039, "note": 65, "velocity": 110, "channel": 0}, {"type": "note_on", "time": 0, "note": 64, "velocity": 105, "channel": 0}, {"type": "note_off", "time": 155, "note": 64, "velocity": 105, "channel": 0}, {"type": "note_on", "time": 3028, "note": 67, "velocity": 111, "channel": 0}, {"type": "note_off", "time": 268, "note": 67, "velocity": 111, "channel": 0}, {"type": "note_on", "time": 0, "note": 68, "velocity": 111, "channel": 0}, {"type": "note_off", "time": 151, "note": 68, "velocity": 111, "channel": 0}, {"type": "note_on", "time": 16, "note": 69, "velocity": 111, "channel": 0}, {"type": "note_off", "time": 2721, "note": 69, "velocity": 111, "channel": 0}, {"type": "note_on", "time": 610, "note": 69, "velocity": 109, "channel": 0}, {"type": "note_off", "time": 752, "note": 69, "velocity": 109, "channel": 0}, {"type": "note_on", "time": 71, "note": 69, "velocity": 106, "channel": 0}, {"type": "note_off", "time": 537, "note": 69, "velocity": 106, "channel": 0}, {"type": "note_on", "time": 446, "note": 69, "velocity": 111, "channel": 0}, {"type": "note_off", "time": 840, "note": 69, "velocity": 111, "channel": 0}, {"type": "note_on", "time": 0, "note": 67, "velocity": 105, "channel": 0}, {"type": "note_off", "time": 470, "note": 67, "velocity": 105, "channel": 0}, {"type": "note_on", "time": 16, "note": 69, "velocity": 111, "channel": 0}, {"type": "note_off", "time": 890, "note": 69, "velocity": 111, "channel": 0}, {"type": "note_on", "time": 67, "note": 71, "velocity": 113, "channel": 0}, {"type": "note_off", "time": 537, "note": 71, "velocity": 113, "channel": 0}, {"type": "note_on", "time": 67, "note": 72, "velocity": 115, "channel": 0}, {"type": "note_off", "time": 218, "note": 72, "velocity": 115, "channel": 0}, {"type": "note_on", "time": 50, "note": 73, "velocity": 114, "channel": 0}, {"type": "note_off", "time": 420, "note": 73, "velocity": 114, "channel": 0}, {"type": "note_on", "time": 134, "note": 69, "velocity": 109, "channel": 0}, {"type": "note_off", "time": 1848, "note": 69, "velocity": 109, "channel": 0}, {"type": "note_on", "time": 13, "note": 67, "velocity": 103, "channel": 0}, {"type": "note_off", "time": 442, "note": 67, "velocity": 103, "channel": 0}, {"type": "note_on", "time": 71, "note": 69, "velocity": 108, "channel": 0}, {"type": "note_off", "time": 382, "note": 69, "velocity": 108, "channel": 0}, {"type": "note_on", "time": 47, "note": 71, "velocity": 111, "channel": 0}, {"type": "note_off", "time": 370, "note": 71, "velocity": 111, "channel": 0}, {"type": "note_on", "time": 11, "note": 67, "velocity": 104, "channel": 0}, {"type": "note_off", "time": 406, "note": 67, "velocity": 104, "channel": 0}, {"type": "note_on", "time": 11, "note": 65, "velocity": 106, "channel": 0}, {"type": "note_off", "time": 442, "note": 65, "velocity": 106, "channel": 0}, {"type": "note_on", "time": 35, "note": 67, "velocity": 101, "channel": 0}, {"type": "note_off", "time": 298, "note": 67, "velocity": 101, "channel": 0}, {"type": "note_on", "time": 71, "note": 69, "velocity": 107, "channel": 0}, {"type": "note_off", "time": 573, "note": 69, "velocity": 107, "channel": 0}, {"type": "note_on", "time": 0, "note": 71, "velocity": 110, "channel": 0}, {"type": "note_off", "time": 358, "note": 71, "velocity": 110, "channel": 0}, {"type": "note_on", "time": 0, "note": 67, "velocity": 102, "channel": 0}, {"type": "note_off", "time": 525, "note": 67, "velocity": 102, "channel": 0}, {"type": "note_on", "time": 11, "note": 65, "velocity": 105, "channel": 0}, {"type": "note_off", "time": 274, "note": 65, "velocity": 105, "channel": 0}, {"type": "note_on", "time": 83, "note": 67, "velocity": 105, "channel": 0}, {"type": "note_off", "time": 549, "note": 67, "velocity": 105, "channel": 0}, {"type": "note_on", "time": 35, "note": 65, "velocity": 105, "channel": 0}, {"type": "note_off", "time": 716, "note": 65, "velocity": 105, "channel": 0}, {"type": "note_on", "time": 71, "note": 65, "velocity": 103, "channel": 0}, {"type": "note_off", "time": 394, "note": 65, "velocity": 103, "channel": 0}, {"type": "note_on", "time": 23, "note": 67, "velocity": 107, "channel": 0}, {"type": "note_off", "time": 442, "note": 67, "velocity": 107, "channel": 0}, {"type": "note_on", "time": 573, "note": 69, "velocity": 104, "channel": 0}, {"type": "note_off", "time": 1887, "note": 69, "velocity": 104, "channel": 0}, {"type": "note_on", "time": 11, "note": 67, "velocity": 104, "channel": 0}, {"type": "note_off", "time": 394, "note": 67, "velocity": 104, "channel": 0}, {"type": "note_on", "time": 83, "note": 69, "velocity": 106, "channel": 0}, {"type": "note_off", "time": 406, "note": 69, "velocity": 106, "channel": 0}, {"type": "note_on", "time": 83, "note": 71, "velocity": 104, "channel": 0}, {"type": "note_off", "time": 406, "note": 71, "velocity": 104, "channel": 0}, {"type": "note_on", "time": 69, "note": 73, "velocity": 112, "channel": 0}, {"type": "note_off", "time": 218, "note": 73, "velocity": 112, "channel": 0}, {"type": "note_on", "time": 67, "note": 73, "velocity": 98, "channel": 0}, {"type": "note_off", "time": 252, "note": 73, "velocity": 98, "channel": 0}, {"type": "note_on", "time": 336, "note": 69, "velocity": 104, "channel": 0}, {"type": "note_off", "time": 453, "note": 69, "velocity": 104, "channel": 0}, {"type": "note_on", "time": 0, "note": 71, "velocity": 100, "channel": 0}, {"type": "note_off", "time": 142, "note": 71, "velocity": 100, "channel": 0}, {"type": "note_on", "time": 117, "note": 71, "velocity": 96, "channel": 0}, {"type": "note_off", "time": 260, "note": 71, "velocity": 96, "channel": 0}, {"type": "note_on", "time": 75, "note": 69, "velocity": 101, "channel": 0}, {"type": "note_off", "time": 378, "note": 69, "velocity": 101, "channel": 0}, {"type": "note_on", "time": 142, "note": 65, "velocity": 103, "channel": 0}, {"type": "note_off", "time": 672, "note": 65, "velocity": 103, "channel": 0}, {"type": "note_on", "time": 67, "note": 65, "velocity": 100, "channel": 0}, {"type": "note_off", "time": 562, "note": 65, "velocity": 100, "channel": 0}, {"type": "note_on", "time": 2167, "note": 65, "velocity": 108, "channel": 0}, {"type": "note_off", "time": 512, "note": 65, "velocity": 108, "channel": 0}, {"type": "note_on", "time": 58, "note": 67, "velocity": 105, "channel": 0}, {"type": "note_off", "time": 672, "note": 67, "velocity": 105, "channel": 0}, {"type": "note_on", "time": 109, "note": 71, "velocity": 106, "channel": 0}, {"type": "note_off", "time": 386, "note": 71, "velocity": 106, "channel": 0}, {"type": "note_on", "time": 0, "note": 64, "velocity": 109, "channel": 0}, {"type": "note_off", "time": 520, "note": 64, "velocity": 109, "channel": 0}, {"type": "note_on", "time": 58, "note": 65, "velocity": 104, "channel": 0}, {"type": "note_off", "time": 319, "note": 65, "velocity": 104, "channel": 0}, {"type": "note_on", "time": 0, "note": 67, "velocity": 105, "channel": 0}, {"type": "note_off", "time": 495, "note": 67, "velocity": 105, "channel": 0}, {"type": "note_on", "time": 75, "note": 67, "velocity": 102, "channel": 0}, {"type": "note_off", "time": 277, "note": 67, "velocity": 102, "channel": 0}, {"type": "note_on", "time": 142, "note": 61, "velocity": 106, "channel": 0}, {"type": "note_off", "time": 411, "note": 61, "velocity": 106, "channel": 0}, {"type": "note_on", "time": 0, "note": 60, "velocity": 103, "channel": 0}, {"type": "note_off", "time": 327, "note": 60, "velocity": 103, "channel": 0}, {"type": "note_on", "time": 50, "note": 59, "velocity": 106, "channel": 0}, {"type": "note_off", "time": 579, "note": 59, "velocity": 106, "channel": 0}, {"type": "note_on", "time": 0, "note": 58, "velocity": 107, "channel": 0}, {"type": "note_off", "time": 285, "note": 58, "velocity": 107, "channel": 0}, {"type": "note_on", "time": 50, "note": 57, "velocity": 108, "channel": 0}, {"type": "note_off", "time": 546, "note": 57, "velocity": 108, "channel": 0}, {"type": "note_on", "time": 109, "note": 56, "velocity": 104, "channel": 0}, {"type": "note_off", "time": 184, "note": 56, "velocity": 104, "channel": 0}, {"type": "note_on", "time": 92, "note": 55, "velocity": 100, "channel": 0}, {"type": "note_off", "time": 428, "note": 55, "velocity": 100, "channel": 0}, {"type": "note_on", "time": 42, "note": 59, "velocity": 103, "channel": 0}, {"type": "note_off", "time": 344, "note": 59, "velocity": 103, "channel": 0}, {"type": "note_on", "time": 100, "note": 64, "velocity": 104, "channel": 0}, {"type": "note_off", "time": 588, "note": 64, "velocity": 104, "channel": 0}, {"type": "note_on", "time": 25, "note": 65, "velocity": 102, "channel": 0}, {"type": "note_off", "time": 134, "note": 65, "velocity": 102, "channel": 0}, {"type": "note_on", "time": 33, "note": 66, "velocity": 104, "channel": 0}, {"type": "note_off", "time": 159, "note": 66, "velocity": 104, "channel": 0}, {"type": "note_on", "time": 0, "note": 68, "velocity": 103, "channel": 0}, {"type": "note_off", "time": 436, "note": 68, "velocity": 103, "channel": 0}, {"type": "note_on", "time": 50, "note": 68, "velocity": 118, "channel": 0}, {"type": "note_off", "time": 453, "note": 68, "velocity": 118, "channel": 0}, {"type": "note_on", "time": 67, "note": 68, "velocity": 105, "channel": 0}, {"type": "note_off", "time": 285, "note": 68, "velocity": 105, "channel": 0}, {"type": "note_on", "time": 168, "note": 67, "velocity": 115, "channel": 0}, {"type": "note_off", "time": 697, "note": 67, "velocity": 115, "channel": 0}, {"type": "note_on", "time": 109, "note": 67, "velocity": 108, "channel": 0}, {"type": "note_off", "time": 462, "note": 67, "velocity": 108, "channel": 0}, {"type": "note_on", "time": 33, "note": 62, "velocity": 108, "channel": 0}, {"type": "note_off", "time": 495, "note": 62, "velocity": 108, "channel": 0}, {"type": "note_on", "time": 42, "note": 65, "velocity": 106, "channel": 0}, {"type": "note_off", "time": 243, "note": 65, "velocity": 106, "channel": 0}, {"type": "note_on", "time": 67, "note": 69, "velocity": 104, "channel": 0}, {"type": "note_off", "time": 503, "note": 69, "velocity": 104, "channel": 0}, {"type": "note_on", "time": 42, "note": 72, "velocity": 108, "channel": 0}, {"type": "note_off", "time": 134, "note": 72, "velocity": 108, "channel": 0}, {"type": "note_on", "time": 25, "note": 71, "velocity": 111, "channel": 0}, {"type": "note_off", "time": 319, "note": 71, "velocity": 111, "channel": 0}, {"type": "note_on", "time": 0, "note": 69, "velocity": 106, "channel": 0}, {"type": "note_off", "time": 361, "note": 69, "velocity": 106, "channel": 0}, {"type": "note_on", "time": 0, "note": 65, "velocity": 101, "channel": 0}, {"type": "note_off", "time": 260, "note": 65, "velocity": 101, "channel": 0}, {"type": "note_on", "time": 67, "note": 62, "velocity": 110, "channel": 0}, {"type": "note_off", "time": 588, "note": 62, "velocity": 110, "channel": 0}, {"type": "note_on", "time": 100, "note": 57, "velocity": 96, "channel": 0}, {"type": "note_off", "time": 344, "note": 57, "velocity": 96, "channel": 0}, {"type": "note_on", "time": 60, "note": 59, "velocity": 105, "channel": 0}, {"type": "note_off", "time": 764, "note": 59, "velocity": 105, "channel": 0}, {"type": "note_on", "time": 5525, "note": 63, "velocity": 112, "channel": 0}, {"type": "note_off", "time": 487, "note": 63, "velocity": 112, "channel": 0}, {"type": "note_on", "time": 151, "note": 68, "velocity": 110, "channel": 0}, {"type": "note_off", "time": 319, "note": 68, "velocity": 110, "channel": 0}, {"type": "note_on", "time": 0, "note": 72, "velocity": 116, "channel": 0}, {"type": "note_off", "time": 361, "note": 72, "velocity": 116, "channel": 0}, {"type": "note_on", "time": 75, "note": 72, "velocity": 114, "channel": 0}, {"type": "note_off", "time": 420, "note": 72, "velocity": 114, "channel": 0}, {"type": "note_on", "time": 462, "note": 72, "velocity": 116, "channel": 0}, {"type": "note_off", "time": 453, "note": 72, "velocity": 116, "channel": 0}, {"type": "note_on", "time": 25, "note": 70, "velocity": 105, "channel": 0}, {"type": "note_off", "time": 386, "note": 70, "velocity": 105, "channel": 0}, {"type": "note_on", "time": 125, "note": 66, "velocity": 110, "channel": 0}, {"type": "note_off", "time": 252, "note": 66, "velocity": 110, "channel": 0}, {"type": "note_on", "time": 33, "note": 63, "velocity": 111, "channel": 0}, {"type": "note_off", "time": 436, "note": 63, "velocity": 111, "channel": 0}, {"type": "note_on", "time": 0, "note": 60, "velocity": 113, "channel": 0}, {"type": "note_off", "time": 604, "note": 60, "velocity": 113, "channel": 0}, {"type": "note_on", "time": 2528, "note": 60, "velocity": 100, "channel": 0}, {"type": "note_off", "time": 504, "note": 60, "velocity": 100, "channel": 0}, {"type": "note_on", "time": 42, "note": 63, "velocity": 111, "channel": 0}, {"type": "note_off", "time": 394, "note": 63, "velocity": 111, "channel": 0}, {"type": "note_on", "time": 25, "note": 68, "velocity": 107, "channel": 0}, {"type": "note_off", "time": 1335, "note": 68, "velocity": 107, "channel": 0}, {"type": "note_on", "time": 8, "note": 63, "velocity": 105, "channel": 0}, {"type": "note_off", "time": 470, "note": 63, "velocity": 105, "channel": 0}, {"type": "note_on", "time": 0, "note": 68, "velocity": 108, "channel": 0}, {"type": "note_off", "time": 495, "note": 68, "velocity": 108, "channel": 0}, {"type": "note_on", "time": 25, "note": 65, "velocity": 111, "channel": 0}, {"type": "note_off", "time": 403, "note": 65, "velocity": 111, "channel": 0}, {"type": "note_on", "time": 0, "note": 60, "velocity": 101, "channel": 0}, {"type": "note_off", "time": 462, "note": 60, "velocity": 101, "channel": 0}, {"type": "note_on", "time": 58, "note": 59, "velocity": 104, "channel": 0}, {"type": "note_off", "time": 302, "note": 59, "velocity": 104, "channel": 0}, {"type": "note_on", "time": 58, "note": 58, "velocity": 104, "channel": 0}, {"type": "note_off", "time": 537, "note": 58, "velocity": 104, "channel": 0}, {"type": "note_on", "time": 3082, "note": 69, "velocity": 111, "channel": 0}, {"type": "note_off", "time": 487, "note": 69, "velocity": 111, "channel": 0}, {"type": "note_on", "time": 58, "note": 65, "velocity": 108, "channel": 0}, {"type": "note_off", "time": 277, "note": 65, "velocity": 108, "channel": 0}, {"type": "note_on", "time": 58, "note": 67, "velocity": 114, "channel": 0}, {"type": "note_off", "time": 504, "note": 67, "velocity": 114, "channel": 0}, {"type": "note_on", "time": 84, "note": 66, "velocity": 109, "channel": 0}, {"type": "note_off", "time": 336, "note": 66, "velocity": 109, "channel": 0}, {"type": "note_on", "time": 83, "note": 63, "velocity": 111, "channel": 0}, {"type": "note_off", "time": 462, "note": 63, "velocity": 111, "channel": 0}, {"type": "note_on", "time": 33, "note": 66, "velocity": 109, "channel": 0}, {"type": "note_off", "time": 268, "note": 66, "velocity": 109, "channel": 0}, {"type": "note_on", "time": 0, "note": 67, "velocity": 111, "channel": 0}, {"type": "note_off", "time": 378, "note": 67, "velocity": 111, "channel": 0}, {"type": "note_on", "time": 67, "note": 67, "velocity": 114, "channel": 0}, {"type": "note_off", "time": 487, "note": 67, "velocity": 114, "channel": 0}, {"type": "note_on", "time": 176, "note": 58, "velocity": 103, "channel": 0}, {"type": "note_off", "time": 445, "note": 58, "velocity": 103, "channel": 0}, {"type": "note_on", "time": 1738, "note": 58, "velocity": 104, "channel": 0}, {"type": "note_off", "time": 512, "note": 58, "velocity": 104, "channel": 0}, {"type": "note_on", "time": 50, "note": 61, "velocity": 95, "channel": 0}, {"type": "note_off", "time": 361, "note": 61, "velocity": 95, "channel": 0}, {"type": "note_on", "time": 50, "note": 63, "velocity": 106, "channel": 0}, {"type": "note_off", "time": 386, "note": 63, "velocity": 106, "channel": 0}, {"type": "note_on", "time": 33, "note": 65, "velocity": 107, "channel": 0}, {"type": "note_off", "time": 420, "note": 65, "velocity": 107, "channel": 0}, {"type": "note_on", "time": 991, "note": 68, "velocity": 93, "channel": 0}, {"type": "note_off", "time": 151, "note": 68, "velocity": 93, "channel": 0}, {"type": "note_on", "time": 0, "note": 65, "velocity": 103, "channel": 0}, {"type": "note_off", "time": 184, "note": 65, "velocity": 103, "channel": 0}, {"type": "note_on", "time": 58, "note": 63, "velocity": 115, "channel": 0}, {"type": "note_off", "time": 630, "note": 63, "velocity": 115, "channel": 0}, {"type": "note_on", "time": 33, "note": 66, "velocity": 108, "channel": 0}, {"type": "note_on", "time": 209, "note": 68, "velocity": 104, "channel": 0}, {"type": "note_off", "time": 0, "note": 66, "velocity": 108, "channel": 0}, {"type": "note_off", "time": 394, "note": 68, "velocity": 104, "channel": 0}, {"type": "note_on", "time": 8, "note": 70, "velocity": 104, "channel": 0}, {"type": "note_off", "time": 394, "note": 70, "velocity": 104, "channel": 0}, {"type": "note_on", "time": 16, "note": 72, "velocity": 115, "channel": 0}, {"type": "note_off", "time": 604, "note": 72, "velocity": 115, "channel": 0}, {"type": "note_on", "time": 1722, "note": 57, "velocity": 103, "channel": 0}, {"type": "note_off", "time": 394, "note": 57, "velocity": 103, "channel": 0}, {"type": "note_on", "time": 33, "note": 59, "velocity": 102, "channel": 0}, {"type": "note_off", "time": 352, "note": 59, "velocity": 102, "channel": 0}, {"type": "note_on", "time": 0, "note": 62, "velocity": 106, "channel": 0}, {"type": "note_on", "time": 436, "note": 65, "velocity": 106, "channel": 0}, {"type": "note_off", "time": 0, "note": 62, "velocity": 106, "channel": 0}, {"type": "note_off", "time": 403, "note": 65, "velocity": 106, "channel": 0}, {"type": "note_on", "time": 1048, "note": 59, "velocity": 105, "channel": 0}, {"type": "note_off", "time": 411, "note": 59, "velocity": 105, "channel": 0}, {"type": "note_on", "time": 1, "note": 62, "velocity": 105, "channel": 0}, {"type": "note_off", "time": 336, "note": 62, "velocity": 105, "channel": 0}, {"type": "note_on", "time": 109, "note": 65, "velocity": 106, "channel": 0}, {"type": "note_off", "time": 386, "note": 65, "velocity": 106, "channel": 0}, {"type": "note_on", "time": 0, "note": 69, "velocity": 106, "channel": 0}, {"type": "note_off", "time": 453, "note": 69, "velocity": 106, "channel": 0}, {"type": "note_on", "time": 0, "note": 71, "velocity": 112, "channel": 0}, {"type": "note_off", "time": 445, "note": 71, "velocity": 112, "channel": 0}, {"type": "note_on", "time": 0, "note": 74, "velocity": 108, "channel": 0}, {"type": "note_off", "time": 352, "note": 74, "velocity": 108, "channel": 0}, {"type": "note_on", "time": 2019, "note": 57, "velocity": 108, "channel": 0}, {"type": "note_off", "time": 319, "note": 57, "velocity": 108, "channel": 0}, {"type": "note_on", "time": 105, "note": 59, "velocity": 104, "channel": 0}, {"type": "note_off", "time": 361, "note": 59, "velocity": 104, "channel": 0}, {"type": "note_on", "time": 8, "note": 62, "velocity": 106, "channel": 0}, {"type": "note_off", "time": 403, "note": 62, "velocity": 106, "channel": 0}, {"type": "note_on", "time": 67, "note": 65, "velocity": 107, "channel": 0}, {"type": "note_off", "time": 403, "note": 65, "velocity": 107, "channel": 0}, {"type": "note_on", "time": 117, "note": 69, "velocity": 107, "channel": 0}, {"type": "note_off", "time": 403, "note": 69, "velocity": 107, "channel": 0}, {"type": "note_on", "time": 0, "note": 71, "velocity": 109, "channel": 0}, {"type": "note_off", "time": 411, "note": 71, "velocity": 109, "channel": 0}, {"type": "note_on", "time": 92, "note": 74, "velocity": 102, "channel": 0}, {"type": "note_off", "time": 344, "note": 74, "velocity": 102, "channel": 0}, {"type": "note_on", "time": 0, "note": 69, "velocity": 108, "channel": 0}, {"type": "note_off", "time": 445, "note": 69, "velocity": 108, "channel": 0}, {"type": "note_on", "time": 1528, "note": 71, "velocity": 111, "channel": 0}, {"type": "note_off", "time": 453, "note": 71, "velocity": 111, "channel": 0}, {"type": "note_on", "time": 67, "note": 69, "velocity": 106, "channel": 0}, {"type": "note_off", "time": 327, "note": 69, "velocity": 106, "channel": 0}, {"type": "note_on", "time": 42, "note": 65, "velocity": 106, "channel": 0}, {"type": "note_off", "time": 394, "note": 65, "velocity": 106, "channel": 0}, {"type": "note_on", "time": 75, "note": 62, "velocity": 109, "channel": 0}, {"type": "note_off", "time": 470, "note": 62, "velocity": 109, "channel": 0}, {"type": "note_on", "time": 0, "note": 59, "velocity": 104, "channel": 0}, {"type": "note_off", "time": 445, "note": 59, "velocity": 104, "channel": 0}, {"type": "note_on", "time": 1385, "note": 59, "velocity": 105, "channel": 0}, {"type": "note_off", "time": 470, "note": 59, "velocity": 105, "channel": 0}, {"type": "note_on", "time": 1050, "note": 59, "velocity": 104, "channel": 0}, {"type": "note_off", "time": 327, "note": 59, "velocity": 104, "channel": 0}, {"type": "note_on", "time": 0, "note": 62, "velocity": 110, "channel": 0}, {"type": "note_off", "time": 462, "note": 62, "velocity": 110, "channel": 0}, {"type": "note_on", "time": 58, "note": 65, "velocity": 110, "channel": 0}, {"type": "note_off", "time": 336, "note": 65, "velocity": 110, "channel": 0}, {"type": "note_on", "time": 41, "note": 69, "velocity": 111, "channel": 0}, {"type": "note_off", "time": 428, "note": 69, "velocity": 111, "channel": 0}, {"type": "note_on", "time": 0, "note": 71, "velocity": 113, "channel": 0}, {"type": "note_on", "time": 361, "note": 74, "velocity": 107, "channel": 0}, {"type": "note_off", "time": 0, "note": 71, "velocity": 113, "channel": 0}, {"type": "note_off", "time": 478, "note": 74, "velocity": 107, "channel": 0}, {"type": "note_on", "time": 8, "note": 72, "velocity": 107, "channel": 0}, {"type": "note_off", "time": 428, "note": 72, "velocity": 107, "channel": 0}, {"type": "note_on", "time": 0, "note": 69, "velocity": 108, "channel": 0}, {"type": "note_off", "time": 579, "note": 69, "velocity": 108, "channel": 0}, {"type": "note_on", "time": 33, "note": 71, "velocity": 106, "channel": 0}, {"type": "note_off", "time": 461, "note": 71, "velocity": 106, "channel": 0}, {"type": "note_on", "time": 0, "note": 69, "velocity": 104, "channel": 0}, {"type": "note_off", "time": 277, "note": 69, "velocity": 104, "channel": 0}, {"type": "note_on", "time": 109, "note": 65, "velocity": 100, "channel": 0}, {"type": "note_off", "time": 386, "note": 65, "velocity": 100, "channel": 0}, {"type": "note_on", "time": 109, "note": 62, "velocity": 90, "channel": 0}, {"type": "note_off", "time": 386, "note": 62, "velocity": 90, "channel": 0}, {"type": "note_on", "time": 109, "note": 59, "velocity": 86, "channel": 0}, {"type": "note_off", "time": 461, "note": 59, "velocity": 86, "channel": 0}, {"type": "note_on", "time": 0, "note": 67, "velocity": 93, "channel": 0}, {"type": "note_off", "time": 310, "note": 67, "velocity": 93, "channel": 0}, {"type": "note_on", "time": 8, "note": 65, "velocity": 101, "channel": 0}, {"type": "note_off", "time": 327, "note": 65, "velocity": 101, "channel": 0}, {"type": "note_on", "time": 0, "note": 62, "velocity": 95, "channel": 0}, {"type": "note_off", "time": 453, "note": 62, "velocity": 95, "channel": 0}, {"type": "note_on", "time": 50, "note": 57, "velocity": 96, "channel": 0}, {"type": "note_off", "time": 369, "note": 57, "velocity": 96, "channel": 0}, {"type": "note_on", "time": 2914, "note": 71, "velocity": 101, "channel": 0}, {"type": "note_off", "time": 478, "note": 71, "velocity": 101, "channel": 0}, {"type": "note_on", "time": 25, "note": 67, "velocity": 100, "channel": 0}, {"type": "note_off", "time": 420, "note": 67, "velocity": 100, "channel": 0}, {"type": "note_on", "time": 109, "note": 69, "velocity": 101, "channel": 0}, {"type": "note_off", "time": 352, "note": 69, "velocity": 101, "channel": 0}, {"type": "note_on", "time": 83, "note": 65, "velocity": 101, "channel": 0}, {"type": "note_off", "time": 319, "note": 65, "velocity": 101, "channel": 0}, {"type": "note_on", "time": 75, "note": 62, "velocity": 95, "channel": 0}, {"type": "note_off", "time": 277, "note": 62, "velocity": 95, "channel": 0}, {"type": "note_on", "time": 33, "note": 59, "velocity": 94, "channel": 0}, {"type": "note_off", "time": 495, "note": 59, "velocity": 94, "channel": 0}, {"type": "note_on", "time": 2032, "note": 62, "velocity": 94, "channel": 0}, {"type": "note_off", "time": 386, "note": 62, "velocity": 94, "channel": 0}, {"type": "note_on", "time": 117, "note": 65, "velocity": 103, "channel": 0}, {"type": "note_off", "time": 378, "note": 65, "velocity": 103, "channel": 0}, {"type": "note_on", "time": 50, "note": 67, "velocity": 94, "channel": 0}, {"type": "note_off", "time": 302, "note": 67, "velocity": 94, "channel": 0}, {"type": "note_on", "time": 58, "note": 69, "velocity": 99, "channel": 0}, {"type": "note_off", "time": 436, "note": 69, "velocity": 99, "channel": 0}, {"type": "note_on", "time": 25, "note": 71, "velocity": 106, "channel": 0}, {"type": "note_off", "time": 529, "note": 71, "velocity": 106, "channel": 0}, {"type": "note_on", "time": 2058, "note": 62, "velocity": 100, "channel": 0}, {"type": "note_off", "time": 378, "note": 62, "velocity": 100, "channel": 0}, {"type": "note_on", "time": 50, "note": 65, "velocity": 103, "channel": 0}, {"type": "note_off", "time": 428, "note": 65, "velocity": 103, "channel": 0}, {"type": "note_on", "time": 0, "note": 60, "velocity": 97, "channel": 0}, {"type": "note_off", "time": 436, "note": 60, "velocity": 97, "channel": 0}, {"type": "note_on", "time": 25, "note": 65, "velocity": 103, "channel": 0}, {"type": "note_off", "time": 403, "note": 65, "velocity": 103, "channel": 0}, {"type": "note_on", "time": 0, "note": 69, "velocity": 102, "channel": 0}, {"type": "note_off", "time": 403, "note": 69, "velocity": 102, "channel": 0}, {"type": "note_on", "time": 16, "note": 67, "velocity": 106, "channel": 0}, {"type": "note_off", "time": 495, "note": 67, "velocity": 106, "channel": 0}, {"type": "note_on", "time": 0, "note": 69, "velocity": 105, "channel": 0}, {"type": "note_off", "time": 352, "note": 69, "velocity": 105, "channel": 0}, {"type": "note_on", "time": 0, "note": 67, "velocity": 111, "channel": 0}, {"type": "note_off", "time": 411, "note": 67, "velocity": 111, "channel": 0}, {"type": "note_on", "time": 0, "note": 69, "velocity": 109, "channel": 0}, {"type": "note_off", "time": 529, "note": 69, "velocity": 109, "channel": 0}, {"type": "note_on", "time": 134, "note": 67, "velocity": 102, "channel": 0}, {"type": "note_off", "time": 512, "note": 67, "velocity": 102, "channel": 0}, {"type": "note_on", "time": 0, "note": 60, "velocity": 104, "channel": 0}, {"type": "note_off", "time": 411, "note": 60, "velocity": 104, "channel": 0}, {"type": "note_on", "time": 0, "note": 65, "velocity": 99, "channel": 0}, {"type": "note_off", "time": 327, "note": 65, "velocity": 99, "channel": 0}, {"type": "note_on", "time": 33, "note": 69, "velocity": 97, "channel": 0}, {"type": "note_off", "time": 562, "note": 69, "velocity": 97, "channel": 0}, {"type": "note_on", "time": 75, "note": 74, "velocity": 90, "channel": 0}, {"type": "note_off", "time": 218, "note": 74, "velocity": 90, "channel": 0}, {"type": "note_on", "time": 0, "note": 73, "velocity": 99, "channel": 0}, {"type": "note_off", "time": 285, "note": 73, "velocity": 99, "channel": 0}, {"type": "note_on", "time": 25, "note": 69, "velocity": 95, "channel": 0}, {"type": "note_off", "time": 327, "note": 69, "velocity": 95, "channel": 0}, {"type": "note_on", "time": 50, "note": 65, "velocity": 104, "channel": 0}, {"type": "note_off", "time": 268, "note": 65, "velocity": 104, "channel": 0}, {"type": "note_on", "time": 92, "note": 62, "velocity": 99, "channel": 0}, {"type": "note_off", "time": 478, "note": 62, "velocity": 99, "channel": 0}, {"type": "note_on", "time": 84, "note": 58, "velocity": 86, "channel": 0}, {"type": "note_on", "time": 361, "note": 67, "velocity": 101, "channel": 0}, {"type": "note_off", "time": 0, "note": 58, "velocity": 86, "channel": 0}, {"type": "note_off", "time": 361, "note": 67, "velocity": 101, "channel": 0}, {"type": "note_on", "time": 8, "note": 65, "velocity": 100, "channel": 0}, {"type": "note_off", "time": 235, "note": 65, "velocity": 100, "channel": 0}, {"type": "note_on", "time": 8, "note": 62, "velocity": 101, "channel": 0}, {"type": "note_off", "time": 462, "note": 62, "velocity": 101, "channel": 0}, {"type": "note_on", "time": 126, "note": 57, "velocity": 102, "channel": 0}, {"type": "note_off", "time": 520, "note": 57, "velocity": 102, "channel": 0}, {"type": "note_on", "time": 386, "note": 57, "velocity": 103, "channel": 0}, {"type": "note_off", "time": 420, "note": 57, "velocity": 103, "channel": 0}, {"type": "note_on", "time": 0, "note": 59, "velocity": 101, "channel": 0}, {"type": "note_off", "time": 378, "note": 59, "velocity": 101, "channel": 0}, {"type": "note_on", "time": 92, "note": 55, "velocity": 97, "channel": 0}, {"type": "note_off", "time": 546, "note": 55, "velocity": 97, "channel": 0}, {"type": "note_on", "time": 2209, "note": 55, "velocity": 100, "channel": 0}, {"type": "note_off", "time": 411, "note": 55, "velocity": 100, "channel": 0}, {"type": "note_on", "time": 41, "note": 59, "velocity": 102, "channel": 0}, {"type": "note_off", "time": 352, "note": 59, "velocity": 102, "channel": 0}, {"type": "note_on", "time": 42, "note": 57, "velocity": 99, "channel": 0}, {"type": "note_off", "time": 294, "note": 57, "velocity": 99, "channel": 0}, {"type": "note_on", "time": 50, "note": 55, "velocity": 99, "channel": 0}, {"type": "note_off", "time": 193, "note": 55, "velocity": 99, "channel": 0}, {"type": "note_on", "time": 50, "note": 53, "velocity": 99, "channel": 0}, {"type": "note_off", "time": 344, "note": 53, "velocity": 99, "channel": 0}, {"type": "note_on", "time": 1318, "note": 53, "velocity": 106, "channel": 0}, {"type": "note_off", "time": 487, "note": 53, "velocity": 106, "channel": 0}, {"type": "note_on", "time": 512, "note": 59, "velocity": 102, "channel": 0}, {"type": "note_off", "time": 411, "note": 59, "velocity": 102, "channel": 0}, {"type": "note_on", "time": 8, "note": 60, "velocity": 109, "channel": 0}, {"type": "note_off", "time": 386, "note": 60, "velocity": 109, "channel": 0}, {"type": "note_on", "time": 50, "note": 57, "velocity": 104, "channel": 0}, {"type": "note_off", "time": 336, "note": 57, "velocity": 104, "channel": 0}, {"type": "note_on", "time": 1453, "note": 55, "velocity": 101, "channel": 0}, {"type": "note_off", "time": 537, "note": 55, "velocity": 101, "channel": 0}, {"type": "note_on", "time": 67, "note": 59, "velocity": 103, "channel": 0}, {"type": "note_off", "time": 319, "note": 59, "velocity": 103, "channel": 0}, {"type": "note_on", "time": 42, "note": 62, "velocity": 105, "channel": 0}, {"type": "note_on", "time": 403, "note": 57, "velocity": 103, "channel": 0}, {"type": "note_off", "time": 0, "note": 62, "velocity": 105, "channel": 0}, {"type": "note_off", "time": 445, "note": 57, "velocity": 103, "channel": 0}, {"type": "note_on", "time": 1780, "note": 57, "velocity": 109, "channel": 0}, {"type": "note_off", "time": 520, "note": 57, "velocity": 109, "channel": 0}, {"type": "note_on", "time": 335, "note": 60, "velocity": 107, "channel": 0}, {"type": "note_off", "time": 361, "note": 60, "velocity": 107, "channel": 0}, {"type": "note_on", "time": 33, "note": 64, "velocity": 114, "channel": 0}, {"type": "note_off", "time": 394, "note": 64, "velocity": 114, "channel": 0}, {"type": "note_on", "time": 0, "note": 59, "velocity": 106, "channel": 0}, {"type": "note_off", "time": 386, "note": 59, "velocity": 106, "channel": 0}, {"type": "note_on", "time": 1478, "note": 59, "velocity": 107, "channel": 0}, {"type": "note_off", "time": 504, "note": 59, "velocity": 107, "channel": 0}, {"type": "note_on", "time": 361, "note": 62, "velocity": 111, "channel": 0}, {"type": "note_off", "time": 420, "note": 62, "velocity": 111, "channel": 0}, {"type": "note_on", "time": 33, "note": 65, "velocity": 107, "channel": 0}, {"type": "note_off", "time": 319, "note": 65, "velocity": 107, "channel": 0}, {"type": "note_on", "time": 50, "note": 67, "velocity": 107, "channel": 0}, {"type": "note_off", "time": 504, "note": 67, "velocity": 107, "channel": 0}, {"type": "note_on", "time": 1419, "note": 62, "velocity": 110, "channel": 0}, {"type": "note_off", "time": 411, "note": 62, "velocity": 110, "channel": 0}, {"type": "note_on", "time": 50, "note": 65, "velocity": 104, "channel": 0}, {"type": "note_off", "time": 260, "note": 65, "velocity": 104, "channel": 0}, {"type": "note_on", "time": 75, "note": 69, "velocity": 109, "channel": 0}, {"type": "note_off", "time": 470, "note": 69, "velocity": 109, "channel": 0}, {"type": "note_on", "time": 67, "note": 72, "velocity": 105, "channel": 0}, {"type": "note_off", "time": 352, "note": 72, "velocity": 105, "channel": 0}, {"type": "note_on", "time": 25, "note": 67, "velocity": 105, "channel": 0}, {"type": "note_off", "time": 420, "note": 67, "velocity": 105, "channel": 0}, {"type": "note_on", "time": 1453, "note": 67, "velocity": 106, "channel": 0}, {"type": "note_off", "time": 478, "note": 67, "velocity": 106, "channel": 0}, {"type": "note_on", "time": 478, "note": 71, "velocity": 113, "channel": 0}, {"type": "note_off", "time": 453, "note": 71, "velocity": 113, "channel": 0}, {"type": "note_on", "time": 67, "note": 74, "velocity": 106, "channel": 0}, {"type": "note_off", "time": 335, "note": 74, "velocity": 106, "channel": 0}, {"type": "note_on", "time": 0, "note": 73, "velocity": 110, "channel": 0}, {"type": "note_off", "time": 67, "note": 73, "velocity": 110, "channel": 0}, {"type": "note_on", "time": 33, "note": 72, "velocity": 114, "channel": 0}, {"type": "note_off", "time": 529, "note": 72, "velocity": 114, "channel": 0}, {"type": "note_on", "time": 1192, "note": 65, "velocity": 108, "channel": 0}, {"type": "note_off", "time": 520, "note": 65, "velocity": 108, "channel": 0}, {"type": "note_on", "time": 327, "note": 69, "velocity": 107, "channel": 0}, {"type": "note_off", "time": 470, "note": 69, "velocity": 107, "channel": 0}, {"type": "note_on", "time": 92, "note": 72, "velocity": 107, "channel": 0}, {"type": "note_off", "time": 336, "note": 72, "velocity": 107, "channel": 0}, {"type": "note_on", "time": 109, "note": 71, "velocity": 104, "channel": 0}, {"type": "note_off", "time": 462, "note": 71, "velocity": 104, "channel": 0}, {"type": "note_on", "time": 41, "note": 67, "velocity": 98, "channel": 0}, {"type": "note_off", "time": 310, "note": 67, "velocity": 98, "channel": 0}, {"type": "note_on", "time": 117, "note": 74, "velocity": 97, "channel": 0}, {"type": "note_off", "time": 361, "note": 74, "velocity": 97, "channel": 0}, {"type": "note_on", "time": 16, "note": 72, "velocity": 95, "channel": 0}, {"type": "note_off", "time": 117, "note": 72, "velocity": 95, "channel": 0}, {"type": "note_on", "time": 25, "note": 71, "velocity": 105, "channel": 0}, {"type": "note_off", "time": 151, "note": 71, "velocity": 105, "channel": 0}, {"type": "note_on", "time": 8, "note": 62, "velocity": 103, "channel": 0}, {"type": "note_off", "time": 596, "note": 62, "velocity": 103, "channel": 0}, {"type": "note_on", "time": 1192, "note": 62, "velocity": 110, "channel": 0}, {"type": "note_off", "time": 453, "note": 62, "velocity": 110, "channel": 0}, {"type": "note_on", "time": 495, "note": 69, "velocity": 105, "channel": 0}, {"type": "note_off", "time": 436, "note": 69, "velocity": 105, "channel": 0}, {"type": "note_on", "time": 126, "note": 71, "velocity": 102, "channel": 0}, {"type": "note_off", "time": 218, "note": 71, "velocity": 102, "channel": 0}, {"type": "note_on", "time": 16, "note": 70, "velocity": 109, "channel": 0}, {"type": "note_off", "time": 92, "note": 70, "velocity": 109, "channel": 0}, {"type": "note_on", "time": 25, "note": 66, "velocity": 112, "channel": 0}, {"type": "note_off", "time": 512, "note": 66, "velocity": 112, "channel": 0}, {"type": "note_on", "time": 50, "note": 68, "velocity": 110, "channel": 0}, {"type": "note_off", "time": 386, "note": 68, "velocity": 110, "channel": 0}, {"type": "note_on", "time": 0, "note": 64, "velocity": 107, "channel": 0}, {"type": "note_off", "time": 445, "note": 64, "velocity": 107, "channel": 0}, {"type": "note_on", "time": 42, "note": 60, "velocity": 99, "channel": 0}, {"type": "note_off", "time": 369, "note": 60, "velocity": 99, "channel": 0}, {"type": "note_on", "time": 0, "note": 62, "velocity": 111, "channel": 0}, {"type": "note_off", "time": 445, "note": 62, "velocity": 111, "channel": 0}, {"type": "note_on", "time": 58, "note": 60, "velocity": 101, "channel": 0}, {"type": "note_off", "time": 268, "note": 60, "velocity": 101, "channel": 0}, {"type": "note_on", "time": 75, "note": 59, "velocity": 101, "channel": 0}, {"type": "note_off", "time": 226, "note": 59, "velocity": 101, "channel": 0}, {"type": "note_on", "time": 588, "note": 63, "velocity": 113, "channel": 0}, {"type": "note_off", "time": 672, "note": 63, "velocity": 113, "channel": 0}, {"type": "note_on", "time": 310, "note": 70, "velocity": 107, "channel": 0}, {"type": "note_off", "time": 478, "note": 70, "velocity": 107, "channel": 0}, {"type": "note_on", "time": 84, "note": 70, "velocity": 102, "channel": 0}, {"type": "note_off", "time": 277, "note": 70, "velocity": 102, "channel": 0}, {"type": "note_on", "time": 138, "note": 61, "velocity": 112, "channel": 0}, {"type": "note_off", "time": 436, "note": 61, "velocity": 112, "channel": 0}, {"type": "note_on", "time": 1337, "note": 61, "velocity": 107, "channel": 0}, {"type": "note_off", "time": 412, "note": 61, "velocity": 107, "channel": 0}, {"type": "note_on", "time": 65, "note": 66, "velocity": 99, "channel": 0}, {"type": "note_off", "time": 244, "note": 66, "velocity": 99, "channel": 0}, {"type": "note_on", "time": 113, "note": 70, "velocity": 105, "channel": 0}, {"type": "note_off", "time": 292, "note": 70, "velocity": 105, "channel": 0}, {"type": "note_on", "time": 59, "note": 71, "velocity": 106, "channel": 0}, {"type": "note_off", "time": 286, "note": 71, "velocity": 106, "channel": 0}, {"type": "note_on", "time": 107, "note": 63, "velocity": 113, "channel": 0}, {"type": "note_off", "time": 615, "note": 63, "velocity": 113, "channel": 0}, {"type": "note_on", "time": 0, "note": 66, "velocity": 102, "channel": 0}, {"type": "note_off", "time": 286, "note": 66, "velocity": 102, "channel": 0}, {"type": "note_on", "time": 29, "note": 70, "velocity": 104, "channel": 0}, {"type": "note_off", "time": 471, "note": 70, "velocity": 104, "channel": 0}, {"type": "note_on", "time": 41, "note": 72, "velocity": 109, "channel": 0}, {"type": "note_off", "time": 370, "note": 72, "velocity": 109, "channel": 0}, {"type": "note_on", "time": 29, "note": 68, "velocity": 106, "channel": 0}, {"type": "note_off", "time": 412, "note": 68, "velocity": 106, "channel": 0}, {"type": "note_on", "time": 1415, "note": 68, "velocity": 102, "channel": 0}, {"type": "note_off", "time": 388, "note": 68, "velocity": 102, "channel": 0}, {"type": "note_on", "time": 537, "note": 72, "velocity": 107, "channel": 0}, {"type": "note_off", "time": 388, "note": 72, "velocity": 107, "channel": 0}, {"type": "note_on", "time": 119, "note": 75, "velocity": 103, "channel": 0}, {"type": "note_off", "time": 388, "note": 75, "velocity": 103, "channel": 0}, {"type": "note_on", "time": 53, "note": 73, "velocity": 103, "channel": 0}, {"type": "note_off", "time": 459, "note": 73, "velocity": 103, "channel": 0}, {"type": "note_on", "time": 119, "note": 70, "velocity": 104, "channel": 0}, {"type": "note_off", "time": 328, "note": 70, "velocity": 104, "channel": 0}, {"type": "note_on", "time": 41, "note": 73, "velocity": 105, "channel": 0}, {"type": "note_off", "time": 328, "note": 73, "velocity": 105, "channel": 0}, {"type": "note_on", "time": 53, "note": 70, "velocity": 95, "channel": 0}, {"type": "note_off", "time": 495, "note": 70, "velocity": 95, "channel": 0}, {"type": "note_on", "time": 979, "note": 63, "velocity": 106, "channel": 0}, {"type": "note_off", "time": 448, "note": 63, "velocity": 106, "channel": 0}, {"type": "note_on", "time": 29, "note": 68, "velocity": 97, "channel": 0}, {"type": "note_off", "time": 298, "note": 68, "velocity": 97, "channel": 0}, {"type": "note_on", "time": 41, "note": 72, "velocity": 105, "channel": 0}, {"type": "note_off", "time": 298, "note": 72, "velocity": 105, "channel": 0}, {"type": "note_on", "time": 1463, "note": 61, "velocity": 108, "channel": 0}, {"type": "note_off", "time": 436, "note": 61, "velocity": 108, "channel": 0}, {"type": "note_on", "time": 23, "note": 66, "velocity": 98, "channel": 0}, {"type": "note_off", "time": 304, "note": 66, "velocity": 98, "channel": 0}, {"type": "note_on", "time": 65, "note": 70, "velocity": 97, "channel": 0}, {"type": "note_off", "time": 292, "note": 70, "velocity": 97, "channel": 0}, {"type": "note_on", "time": 113, "note": 60, "velocity": 106, "channel": 0}, {"type": "note_off", "time": 525, "note": 60, "velocity": 106, "channel": 0}, {"type": "note_on", "time": 997, "note": 60, "velocity": 93, "channel": 0}, {"type": "note_off", "time": 298, "note": 60, "velocity": 93, "channel": 0}, {"type": "note_on", "time": 191, "note": 63, "velocity": 104, "channel": 0}, {"type": "note_off", "time": 346, "note": 63, "velocity": 104, "channel": 0}, {"type": "note_on", "time": 65, "note": 68, "velocity": 104, "channel": 0}, {"type": "note_off", "time": 400, "note": 68, "velocity": 104, "channel": 0}, {"type": "note_on", "time": 23, "note": 67, "velocity": 109, "channel": 0}, {"type": "note_off", "time": 537, "note": 67, "velocity": 109, "channel": 0}, {"type": "note_on", "time": 29, "note": 67, "velocity": 103, "channel": 0}, {"type": "note_off", "time": 256, "note": 67, "velocity": 103, "channel": 0}, {"type": "note_on", "time": 11, "note": 64, "velocity": 102, "channel": 0}, {"type": "note_off", "time": 179, "note": 64, "velocity": 102, "channel": 0}, {"type": "note_on", "time": 5, "note": 65, "velocity": 96, "channel": 0}, {"type": "note_off", "time": 256, "note": 65, "velocity": 96, "channel": 0}, {"type": "note_on", "time": 65, "note": 69, "velocity": 100, "channel": 0}, {"type": "note_off", "time": 280, "note": 69, "velocity": 100, "channel": 0}, {"type": "note_on", "time": 1451, "note": 58, "velocity": 99, "channel": 0}, {"type": "note_off", "time": 400, "note": 58, "velocity": 99, "channel": 0}, {"type": "note_on", "time": 35, "note": 61, "velocity": 95, "channel": 0}, {"type": "note_off", "time": 298, "note": 61, "velocity": 95, "channel": 0}, {"type": "note_on", "time": 47, "note": 62, "velocity": 101, "channel": 0}, {"type": "note_off", "time": 442, "note": 62, "velocity": 101, "channel": 0}, {"type": "note_on", "time": 71, "note": 65, "velocity": 107, "channel": 0}, {"type": "note_off", "time": 430, "note": 65, "velocity": 107, "channel": 0}, {"type": "note_on", "time": 59, "note": 63, "velocity": 111, "channel": 0}, {"type": "note_off", "time": 483, "note": 63, "velocity": 111, "channel": 0}, {"type": "note_on", "time": 11, "note": 66, "velocity": 101, "channel": 0}, {"type": "note_off", "time": 191, "note": 66, "velocity": 101, "channel": 0}, {"type": "note_on", "time": 244, "note": 70, "velocity": 99, "channel": 0}, {"type": "note_off", "time": 262, "note": 70, "velocity": 99, "channel": 0}, {"type": "note_on", "time": 113, "note": 72, "velocity": 99, "channel": 0}, {"type": "note_off", "time": 221, "note": 72, "velocity": 99, "channel": 0}, {"type": "note_on", "time": 0, "note": 71, "velocity": 104, "channel": 0}, {"type": "note_off", "time": 292, "note": 71, "velocity": 104, "channel": 0}, {"type": "note_on", "time": 17, "note": 68, "velocity": 101, "channel": 0}, {"type": "note_off", "time": 453, "note": 68, "velocity": 101, "channel": 0}, {"type": "note_on", "time": 77, "note": 66, "velocity": 95, "channel": 0}, {"type": "note_off", "time": 179, "note": 66, "velocity": 95, "channel": 0}, {"type": "note_on", "time": 11, "note": 63, "velocity": 103, "channel": 0}, {"type": "note_off", "time": 489, "note": 63, "velocity": 103, "channel": 0}, {"type": "note_on", "time": 1433, "note": 62, "velocity": 103, "channel": 0}, {"type": "note_off", "time": 304, "note": 62, "velocity": 103, "channel": 0}, {"type": "note_on", "time": 95, "note": 65, "velocity": 107, "channel": 0}, {"type": "note_off", "time": 197, "note": 65, "velocity": 107, "channel": 0}, {"type": "note_on", "time": 89, "note": 69, "velocity": 103, "channel": 0}, {"type": "note_off", "time": 292, "note": 69, "velocity": 103, "channel": 0}, {"type": "note_on", "time": 1463, "note": 64, "velocity": 109, "channel": 0}, {"type": "note_off", "time": 501, "note": 64, "velocity": 109, "channel": 0}, {"type": "note_on", "time": 47, "note": 67, "velocity": 100, "channel": 0}, {"type": "note_off", "time": 286, "note": 67, "velocity": 100, "channel": 0}, {"type": "note_on", "time": 0, "note": 71, "velocity": 106, "channel": 0}, {"type": "note_off", "time": 513, "note": 71, "velocity": 106, "channel": 0}, {"type": "note_on", "time": 53, "note": 65, "velocity": 99, "channel": 0}, {"type": "note_off", "time": 412, "note": 65, "velocity": 99, "channel": 0}, {"type": "note_on", "time": 1039, "note": 65, "velocity": 101, "channel": 0}, {"type": "note_off", "time": 471, "note": 65, "velocity": 101, "channel": 0}, {"type": "note_on", "time": 0, "note": 69, "velocity": 101, "channel": 0}, {"type": "note_off", "time": 376, "note": 69, "velocity": 101, "channel": 0}, {"type": "note_on", "time": 47, "note": 72, "velocity": 104, "channel": 0}, {"type": "note_off", "time": 430, "note": 72, "velocity": 104, "channel": 0}, {"type": "note_on", "time": 101, "note": 67, "velocity": 97, "channel": 0}, {"type": "note_off", "time": 250, "note": 67, "velocity": 97, "channel": 0}, {"type": "note_on", "time": 29, "note": 69, "velocity": 101, "channel": 0}, {"type": "note_off", "time": 394, "note": 69, "velocity": 101, "channel": 0}, {"type": "note_on", "time": 173, "note": 72, "velocity": 103, "channel": 0}, {"type": "note_off", "time": 244, "note": 72, "velocity": 103, "channel": 0}, {"type": "note_on", "time": 89, "note": 69, "velocity": 105, "channel": 0}, {"type": "note_off", "time": 448, "note": 69, "velocity": 105, "channel": 0}, {"type": "note_on", "time": 1451, "note": 69, "velocity": 104, "channel": 0}, {"type": "note_on", "time": 298, "note": 71, "velocity": 101, "channel": 0}, {"type": "note_off", "time": 0, "note": 69, "velocity": 104, "channel": 0}, {"type": "note_off", "time": 316, "note": 71, "velocity": 101, "channel": 0}, {"type": "note_on", "time": 59, "note": 72, "velocity": 102, "channel": 0}, {"type": "note_off", "time": 489, "note": 72, "velocity": 102, "channel": 0}, {"type": "note_on", "time": 232, "note": 74, "velocity": 97, "channel": 0}, {"type": "note_off", "time": 221, "note": 74, "velocity": 97, "channel": 0}, {"type": "note_on", "time": 17, "note": 72, "velocity": 103, "channel": 0}, {"type": "note_off", "time": 131, "note": 72, "velocity": 103, "channel": 0}, {"type": "note_on", "time": 29, "note": 69, "velocity": 103, "channel": 0}, {"type": "note_off", "time": 304, "note": 69, "velocity": 103, "channel": 0}, {"type": "note_on", "time": 191, "note": 65, "velocity": 100, "channel": 0}, {"type": "note_off", "time": 346, "note": 65, "velocity": 100, "channel": 0}, {"type": "note_on", "time": 11, "note": 62, "velocity": 94, "channel": 0}, {"type": "note_off", "time": 346, "note": 62, "velocity": 94, "channel": 0}, {"type": "note_on", "time": 525, "note": 62, "velocity": 99, "channel": 0}, {"type": "note_off", "time": 364, "note": 62, "velocity": 99, "channel": 0}, {"type": "note_on", "time": 549, "note": 66, "velocity": 90, "channel": 0}, {"type": "note_off", "time": 131, "note": 66, "velocity": 90, "channel": 0}, {"type": "note_on", "time": 0, "note": 69, "velocity": 100, "channel": 0}, {"type": "note_off", "time": 286, "note": 69, "velocity": 100, "channel": 0}, {"type": "note_on", "time": 23, "note": 69, "velocity": 95, "channel": 0}, {"type": "note_off", "time": 173, "note": 69, "velocity": 95, "channel": 0}, {"type": "note_on", "time": 53, "note": 72, "velocity": 101, "channel": 0}, {"type": "note_off", "time": 161, "note": 72, "velocity": 101, "channel": 0}, {"type": "note_on", "time": 0, "note": 66, "velocity": 109, "channel": 0}, {"type": "note_off", "time": 155, "note": 66, "velocity": 109, "channel": 0}, {"type": "note_on", "time": 59, "note": 60, "velocity": 103, "channel": 0}, {"type": "note_off", "time": 412, "note": 60, "velocity": 103, "channel": 0}, {"type": "note_on", "time": 764, "note": 67, "velocity": 102, "channel": 0}, {"type": "note_off", "time": 209, "note": 67, "velocity": 102, "channel": 0}, {"type": "note_on", "time": 11, "note": 71, "velocity": 98, "channel": 0}, {"type": "note_off", "time": 250, "note": 71, "velocity": 98, "channel": 0}, {"type": "note_on", "time": 40, "note": 62, "velocity": 86, "channel": 0}, {"type": "note_off", "time": 424, "note": 62, "velocity": 86, "channel": 0}, {"type": "note_on", "time": 491, "note": 69, "velocity": 103, "channel": 0}, {"type": "note_off", "time": 465, "note": 69, "velocity": 103, "channel": 0}, {"type": "note_on", "time": 0, "note": 71, "velocity": 100, "channel": 0}, {"type": "note_off", "time": 382, "note": 71, "velocity": 100, "channel": 0}, {"type": "note_on", "time": 77, "note": 64, "velocity": 97, "channel": 0}, {"type": "note_off", "time": 280, "note": 64, "velocity": 97, "channel": 0}, {"type": "note_on", "time": 651, "note": 71, "velocity": 97, "channel": 0}, {"type": "note_off", "time": 256, "note": 71, "velocity": 97, "channel": 0}, {"type": "note_on", "time": 77, "note": 71, "velocity": 96, "channel": 0}, {"type": "note_off", "time": 322, "note": 71, "velocity": 96, "channel": 0}, {"type": "note_on", "time": 179, "note": 72, "velocity": 99, "channel": 0}, {"type": "note_off", "time": 352, "note": 72, "velocity": 99, "channel": 0}, {"type": "note_on", "time": 149, "note": 69, "velocity": 101, "channel": 0}, {"type": "note_off", "time": 322, "note": 69, "velocity": 101, "channel": 0}, {"type": "note_on", "time": 95, "note": 72, "velocity": 101, "channel": 0}, {"type": "note_off", "time": 340, "note": 72, "velocity": 101, "channel": 0}, {"type": "note_on", "time": 23, "note": 69, "velocity": 96, "channel": 0}, {"type": "note_off", "time": 322, "note": 69, "velocity": 96, "channel": 0}, {"type": "note_on", "time": 95, "note": 71, "velocity": 104, "channel": 0}, {"type": "note_off", "time": 412, "note": 71, "velocity": 104, "channel": 0}, {"type": "note_on", "time": 0, "note": 69, "velocity": 102, "channel": 0}, {"type": "note_off", "time": 495, "note": 69, "velocity": 102, "channel": 0}, {"type": "note_on", "time": 2230, "note": 70, "velocity": 98, "channel": 0}, {"type": "note_off", "time": 310, "note": 70, "velocity": 98, "channel": 0}, {"type": "note_on", "time": 0, "note": 71, "velocity": 9, "channel": 0}, {"type": "note_off", "time": 1234, "note": 71, "velocity": 9, "channel": 0}, {"type": "note_on", "time": 500, "note": 69, "velocity": 109, "channel": 0}, {"type": "note_off", "time": 424, "note": 69, "velocity": 109, "channel": 0}, {"type": "note_on", "time": 430, "note": 71, "velocity": 110, "channel": 0}, {"type": "note_off", "time": 436, "note": 71, "velocity": 110, "channel": 0}, {"type": "note_on", "time": 59, "note": 71, "velocity": 103, "channel": 0}, {"type": "note_off", "time": 131, "note": 71, "velocity": 103, "channel": 0}, {"type": "note_on", "time": 65, "note": 74, "velocity": 102, "channel": 0}, {"type": "note_off", "time": 209, "note": 74, "velocity": 102, "channel": 0}, {"type": "note_on", "time": 47, "note": 69, "velocity": 113, "channel": 0}, {"type": "note_off", "time": 430, "note": 69, "velocity": 113, "channel": 0}, {"type": "note_on", "time": 1553, "note": 69, "velocity": 106, "channel": 0}, {"type": "note_off", "time": 310, "note": 69, "velocity": 106, "channel": 0}, {"type": "note_on", "time": 65, "note": 72, "velocity": 106, "channel": 0}, {"type": "note_off", "time": 226, "note": 72, "velocity": 106, "channel": 0}, {"type": "note_on", "time": 107, "note": 74, "velocity": 101, "channel": 0}, {"type": "note_off", "time": 328, "note": 74, "velocity": 101, "channel": 0}, {"type": "note_on", "time": 41, "note": 73, "velocity": 94, "channel": 0}, {"type": "note_off", "time": 226, "note": 73, "velocity": 94, "channel": 0}, {"type": "note_on", "time": 0, "note": 65, "velocity": 90, "channel": 0}, {"type": "note_off", "time": 250, "note": 65, "velocity": 90, "channel": 0}, {"type": "note_on", "time": 53, "note": 69, "velocity": 107, "channel": 0}, {"type": "note_off", "time": 430, "note": 69, "velocity": 107, "channel": 0}, {"type": "note_on", "time": 1493, "note": 65, "velocity": 106, "channel": 0}, {"type": "note_off", "time": 424, "note": 65, "velocity": 106, "channel": 0}, {"type": "note_on", "time": 65, "note": 69, "velocity": 104, "channel": 0}, {"type": "note_off", "time": 489, "note": 69, "velocity": 104, "channel": 0}, {"type": "note_on", "time": 89, "note": 72, "velocity": 103, "channel": 0}, {"type": "note_off", "time": 131, "note": 72, "velocity": 103, "channel": 0}, {"type": "note_on", "time": 107, "note": 72, "velocity": 108, "channel": 0}, {"type": "note_off", "time": 471, "note": 72, "velocity": 108, "channel": 0}, {"type": "note_on", "time": 59, "note": 69, "velocity": 105, "channel": 0}, {"type": "note_off", "time": 358, "note": 69, "velocity": 105, "channel": 0}, {"type": "note_on", "time": 131, "note": 65, "velocity": 106, "channel": 0}, {"type": "note_off", "time": 280, "note": 65, "velocity": 106, "channel": 0}, {"type": "note_on", "time": 71, "note": 62, "velocity": 106, "channel": 0}, {"type": "note_off", "time": 352, "note": 62, "velocity": 106, "channel": 0}, {"type": "note_on", "time": 155, "note": 57, "velocity": 102, "channel": 0}, {"type": "note_off", "time": 226, "note": 57, "velocity": 102, "channel": 0}, {"type": "note_on", "time": 65, "note": 64, "velocity": 109, "channel": 0}, {"type": "note_off", "time": 442, "note": 64, "velocity": 109, "channel": 0}, {"type": "note_on", "time": 1379, "note": 64, "velocity": 106, "channel": 0}, {"type": "note_off", "time": 232, "note": 64, "velocity": 106, "channel": 0}, {"type": "note_on", "time": 11, "note": 67, "velocity": 108, "channel": 0}, {"type": "note_off", "time": 107, "note": 67, "velocity": 108, "channel": 0}, {"type": "note_on", "time": 77, "note": 62, "velocity": 94, "channel": 0}, {"type": "note_off", "time": 209, "note": 62, "velocity": 94, "channel": 0}, {"type": "note_on", "time": 173, "note": 67, "velocity": 99, "channel": 0}, {"type": "note_off", "time": 525, "note": 67, "velocity": 99, "channel": 0}, {"type": "note_on", "time": 59, "note": 71, "velocity": 101, "channel": 0}, {"type": "note_off", "time": 280, "note": 71, "velocity": 101, "channel": 0}, {"type": "note_on", "time": 86, "note": 70, "velocity": 92, "channel": 0}, {"type": "note_off", "time": 448, "note": 70, "velocity": 92, "channel": 0}, {"type": "note_on", "time": 63, "note": 68, "velocity": 98, "channel": 0}, {"type": "note_off", "time": 226, "note": 68, "velocity": 98, "channel": 0}, {"type": "note_on", "time": 29, "note": 71, "velocity": 105, "channel": 0}, {"type": "note_off", "time": 334, "note": 71, "velocity": 105, "channel": 0}, {"type": "note_on", "time": 11, "note": 70, "velocity": 101, "channel": 0}, {"type": "note_off", "time": 919, "note": 70, "velocity": 101, "channel": 0}, {"type": "note_on", "time": 137, "note": 68, "velocity": 107, "channel": 0}, {"type": "note_off", "time": 292, "note": 68, "velocity": 107, "channel": 0}, {"type": "note_on", "time": 155, "note": 67, "velocity": 106, "channel": 0}, {"type": "note_off", "time": 250, "note": 67, "velocity": 106, "channel": 0}, {"type": "note_on", "time": 149, "note": 67, "velocity": 109, "channel": 0}, {"type": "note_off", "time": 322, "note": 67, "velocity": 109, "channel": 0}, {"type": "note_on", "time": 29, "note": 64, "velocity": 103, "channel": 0}, {"type": "note_off", "time": 197, "note": 64, "velocity": 103, "channel": 0}, {"type": "note_on", "time": 35, "note": 60, "velocity": 100, "channel": 0}, {"type": "note_off", "time": 316, "note": 60, "velocity": 100, "channel": 0}, {"type": "note_on", "time": 35, "note": 65, "velocity": 101, "channel": 0}, {"type": "note_off", "time": 209, "note": 65, "velocity": 101, "channel": 0}, {"type": "note_on", "time": 0, "note": 69, "velocity": 100, "channel": 0}, {"type": "note_off", "time": 519, "note": 69, "velocity": 100, "channel": 0}, {"type": "note_on", "time": 155, "note": 72, "velocity": 107, "channel": 0}, {"type": "note_off", "time": 412, "note": 72, "velocity": 107, "channel": 0}, {"type": "note_on", "time": 65, "note": 69, "velocity": 102, "channel": 0}, {"type": "note_off", "time": 304, "note": 69, "velocity": 102, "channel": 0}, {"type": "note_on", "time": 191, "note": 65, "velocity": 101, "channel": 0}, {"type": "note_off", "time": 203, "note": 65, "velocity": 101, "channel": 0}, {"type": "note_on", "time": 107, "note": 62, "velocity": 105, "channel": 0}, {"type": "note_off", "time": 519, "note": 62, "velocity": 105, "channel": 0}, {"type": "note_on", "time": 119, "note": 64, "velocity": 97, "channel": 0}, {"type": "note_off", "time": 149, "note": 64, "velocity": 97, "channel": 0}, {"type": "note_on", "time": 107, "note": 65, "velocity": 108, "channel": 0}, {"type": "note_off", "time": 758, "note": 65, "velocity": 108, "channel": 0}, {"type": "note_on", "time": 65, "note": 67, "velocity": 102, "channel": 0}, {"type": "note_off", "time": 286, "note": 67, "velocity": 102, "channel": 0}, {"type": "note_on", "time": 17, "note": 66, "velocity": 108, "channel": 0}, {"type": "note_off", "time": 113, "note": 66, "velocity": 108, "channel": 0}, {"type": "note_on", "time": 59, "note": 62, "velocity": 107, "channel": 0}, {"type": "note_off", "time": 609, "note": 62, "velocity": 107, "channel": 0}, {"type": "note_on", "time": 2586, "note": 67, "velocity": 103, "channel": 0}, {"type": "note_off", "time": 185, "note": 67, "velocity": 103, "channel": 0}, {"type": "note_on", "time": 47, "note": 68, "velocity": 100, "channel": 0}, {"type": "note_off", "time": 197, "note": 68, "velocity": 100, "channel": 0}, {"type": "note_on", "time": 5, "note": 69, "velocity": 102, "channel": 0}, {"type": "note_off", "time": 1642, "note": 69, "velocity": 102, "channel": 0}, {"type": "note_on", "time": 436, "note": 62, "velocity": 101, "channel": 0}, {"type": "note_off", "time": 943, "note": 62, "velocity": 101, "channel": 0}, {"type": "note_on", "time": 125, "note": 65, "velocity": 104, "channel": 0}, {"type": "note_off", "time": 274, "note": 65, "velocity": 104, "channel": 0}, {"type": "note_on", "time": 710, "note": 61, "velocity": 106, "channel": 0}, {"type": "note_off", "time": 692, "note": 61, "velocity": 106, "channel": 0}, {"type": "note_on", "time": 29, "note": 64, "velocity": 104, "channel": 0}, {"type": "note_off", "time": 453, "note": 64, "velocity": 104, "channel": 0}, {"type": "note_on", "time": 35, "note": 62, "velocity": 102, "channel": 0}, {"type": "note_off", "time": 513, "note": 62, "velocity": 102, "channel": 0}, {"type": "note_on", "time": 1714, "note": 62, "velocity": 101, "channel": 0}, {"type": "note_off", "time": 400, "note": 62, "velocity": 101, "channel": 0}, {"type": "note_on", "time": 483, "note": 69, "velocity": 101, "channel": 0}, {"type": "note_off", "time": 364, "note": 69, "velocity": 101, "channel": 0}, {"type": "note_on", "time": 65, "note": 71, "velocity": 112, "channel": 0}, {"type": "note_off", "time": 316, "note": 71, "velocity": 112, "channel": 0}, {"type": "note_on", "time": 238, "note": 64, "velocity": 115, "channel": 0}, {"type": "note_off", "time": 424, "note": 64, "velocity": 115, "channel": 0}, {"type": "note_on", "time": 107, "note": 63, "velocity": 102, "channel": 0}, {"type": "note_off", "time": 304, "note": 63, "velocity": 102, "channel": 0}, {"type": "note_on", "time": 89, "note": 62, "velocity": 105, "channel": 0}, {"type": "note_off", "time": 322, "note": 62, "velocity": 105, "channel": 0}, {"type": "note_on", "time": 77, "note": 65, "velocity": 108, "channel": 0}, {"type": "note_off", "time": 286, "note": 65, "velocity": 108, "channel": 0}, {"type": "note_on", "time": 23, "note": 60, "velocity": 109, "channel": 0}, {"type": "note_off", "time": 501, "note": 60, "velocity": 109, "channel": 0}, {"type": "note_on", "time": 23, "note": 63, "velocity": 113, "channel": 0}, {"type": "note_off", "time": 436, "note": 63, "velocity": 113, "channel": 0}, {"type": "note_on", "time": 23, "note": 68, "velocity": 97, "channel": 0}, {"type": "note_off", "time": 310, "note": 68, "velocity": 97, "channel": 0}, {"type": "note_on", "time": 185, "note": 71, "velocity": 105, "channel": 0}, {"type": "note_off", "time": 250, "note": 71, "velocity": 105, "channel": 0}, {"type": "note_on", "time": 71, "note": 64, "velocity": 99, "channel": 0}, {"type": "note_off", "time": 424, "note": 64, "velocity": 99, "channel": 0}, {"type": "note_on", "time": 1547, "note": 64, "velocity": 105, "channel": 0}, {"type": "note_off", "time": 364, "note": 64, "velocity": 105, "channel": 0}, {"type": "note_on", "time": 71, "note": 68, "velocity": 100, "channel": 0}, {"type": "note_off", "time": 268, "note": 68, "velocity": 100, "channel": 0}, {"type": "note_on", "time": 29, "note": 70, "velocity": 103, "channel": 0}, {"type": "note_off", "time": 370, "note": 70, "velocity": 103, "channel": 0}, {"type": "note_on", "time": 107, "note": 71, "velocity": 104, "channel": 0}, {"type": "note_off", "time": 262, "note": 71, "velocity": 104, "channel": 0}, {"type": "note_on", "time": 292, "note": 63, "velocity": 102, "channel": 0}, {"type": "note_off", "time": 304, "note": 63, "velocity": 102, "channel": 0}, {"type": "note_on", "time": 609, "note": 63, "velocity": 106, "channel": 0}, {"type": "note_off", "time": 436, "note": 63, "velocity": 106, "channel": 0}, {"type": "note_on", "time": 143, "note": 66, "velocity": 95, "channel": 0}, {"type": "note_off", "time": 232, "note": 66, "velocity": 95, "channel": 0}, {"type": "note_on", "time": 26, "note": 70, "velocity": 107, "channel": 0}, {"type": "note_off", "time": 1201, "note": 70, "velocity": 107, "channel": 0}, {"type": "note_on", "time": 92, "note": 68, "velocity": 107, "channel": 0}, {"type": "note_off", "time": 386, "note": 68, "velocity": 107, "channel": 0}, {"type": "note_on", "time": 84, "note": 66, "velocity": 100, "channel": 0}, {"type": "note_off", "time": 361, "note": 66, "velocity": 100, "channel": 0}, {"type": "note_on", "time": 134, "note": 63, "velocity": 101, "channel": 0}, {"type": "note_off", "time": 411, "note": 63, "velocity": 101, "channel": 0}, {"type": "note_on", "time": 92, "note": 59, "velocity": 97, "channel": 0}, {"type": "note_off", "time": 512, "note": 59, "velocity": 97, "channel": 0}, {"type": "note_on", "time": 142, "note": 61, "velocity": 106, "channel": 0}, {"type": "note_off", "time": 411, "note": 61, "velocity": 106, "channel": 0}, {"type": "note_on", "time": 50, "note": 62, "velocity": 105, "channel": 0}, {"type": "note_off", "time": 562, "note": 62, "velocity": 105, "channel": 0}, {"type": "note_on", "time": 302, "note": 67, "velocity": 104, "channel": 0}, {"type": "note_off", "time": 407, "note": 67, "velocity": 104, "channel": 0}, {"type": "note_on", "time": 20, "note": 62, "velocity": 103, "channel": 0}, {"type": "note_off", "time": 424, "note": 62, "velocity": 103, "channel": 0}, {"type": "note_on", "time": 50, "note": 61, "velocity": 108, "channel": 0}, {"type": "note_off", "time": 516, "note": 61, "velocity": 108, "channel": 0}, {"type": "note_on", "time": 8, "note": 59, "velocity": 101, "channel": 0}, {"type": "note_off", "time": 340, "note": 59, "velocity": 101, "channel": 0}, {"type": "note_on", "time": 79, "note": 58, "velocity": 102, "channel": 0}, {"type": "note_off", "time": 520, "note": 58, "velocity": 102, "channel": 0}, {"type": "note_on", "time": 12, "note": 57, "velocity": 102, "channel": 0}, {"type": "note_off", "time": 310, "note": 57, "velocity": 102, "channel": 0}, {"type": "note_on", "time": 92, "note": 56, "velocity": 102, "channel": 0}, {"type": "note_off", "time": 424, "note": 56, "velocity": 102, "channel": 0}, {"type": "note_on", "time": 4, "note": 55, "velocity": 100, "channel": 0}, {"type": "note_off", "time": 256, "note": 55, "velocity": 100, "channel": 0}, {"type": "note_on", "time": 172, "note": 59, "velocity": 102, "channel": 0}, {"type": "note_off", "time": 348, "note": 59, "velocity": 102, "channel": 0}, {"type": "note_on", "time": 79, "note": 57, "velocity": 102, "channel": 0}, {"type": "note_off", "time": 344, "note": 57, "velocity": 102, "channel": 0}, {"type": "note_on", "time": 205, "note": 62, "velocity": 106, "channel": 0}, {"type": "note_off", "time": 352, "note": 62, "velocity": 106, "channel": 0}, {"type": "note_on", "time": 105, "note": 65, "velocity": 99, "channel": 0}, {"type": "note_off", "time": 294, "note": 65, "velocity": 99, "channel": 0}, {"type": "note_on", "time": 58, "note": 69, "velocity": 96, "channel": 0}, {"type": "note_off", "time": 336, "note": 69, "velocity": 96, "channel": 0}, {"type": "note_on", "time": 20, "note": 74, "velocity": 93, "channel": 0}, {"type": "note_off", "time": 151, "note": 74, "velocity": 93, "channel": 0}, {"type": "note_on", "time": 3536, "note": 70, "velocity": 102, "channel": 0}, {"type": "note_off", "time": 3309, "note": 70, "velocity": 102, "channel": 0}, {"type": "note_on", "time": 58, "note": 68, "velocity": 99, "channel": 0}, {"type": "note_off", "time": 394, "note": 68, "velocity": 99, "channel": 0}, {"type": "note_on", "time": 35, "note": 70, "velocity": 101, "channel": 0}, {"type": "note_off", "time": 657, "note": 70, "velocity": 101, "channel": 0}, {"type": "note_on", "time": 1947, "note": 70, "velocity": 91, "channel": 0}, {"type": "note_off", "time": 238, "note": 70, "velocity": 91, "channel": 0}, {"type": "note_on", "time": 11, "note": 71, "velocity": 95, "channel": 0}, {"type": "note_off", "time": 149, "note": 71, "velocity": 95, "channel": 0}, {"type": "note_on", "time": 23, "note": 72, "velocity": 97, "channel": 0}, {"type": "note_off", "time": 1320, "note": 72, "velocity": 97, "channel": 0}, {"type": "note_on", "time": 53, "note": 70, "velocity": 98, "channel": 0}, {"type": "note_off", "time": 519, "note": 70, "velocity": 98, "channel": 0}, {"type": "note_on", "time": 59, "note": 68, "velocity": 96, "channel": 0}, {"type": "note_off", "time": 310, "note": 68, "velocity": 96, "channel": 0}, {"type": "note_on", "time": 77, "note": 66, "velocity": 99, "channel": 0}, {"type": "note_off", "time": 400, "note": 66, "velocity": 99, "channel": 0}, {"type": "note_on", "time": 95, "note": 63, "velocity": 105, "channel": 0}, {"type": "note_off", "time": 674, "note": 63, "velocity": 105, "channel": 0}, {"type": "note_on", "time": 35, "note": 61, "velocity": 96, "channel": 0}, {"type": "note_off", "time": 113, "note": 61, "velocity": 96, "channel": 0}, {"type": "note_on", "time": 23, "note": 63, "velocity": 118, "channel": 0}, {"type": "note_off", "time": 734, "note": 63, "velocity": 118, "channel": 0}, {"type": "note_on", "time": 2299, "note": 70, "velocity": 99, "channel": 0}, {"type": "note_off", "time": 161, "note": 70, "velocity": 99, "channel": 0}, {"type": "note_on", "time": 5, "note": 71, "velocity": 101, "channel": 0}, {"type": "note_off", "time": 143, "note": 71, "velocity": 101, "channel": 0}, {"type": "note_on", "time": 35, "note": 72, "velocity": 103, "channel": 0}, {"type": "note_off", "time": 1320, "note": 72, "velocity": 103, "channel": 0}, {"type": "note_on", "time": 121, "note": 73, "velocity": 91, "channel": 0}, {"type": "note_off", "time": 336, "note": 73, "velocity": 91, "channel": 0}, {"type": "note_on", "time": 142, "note": 68, "velocity": 100, "channel": 0}, {"type": "note_off", "time": 361, "note": 68, "velocity": 100, "channel": 0}, {"type": "note_on", "time": 0, "note": 72, "velocity": 102, "channel": 0}, {"type": "note_off", "time": 370, "note": 72, "velocity": 102, "channel": 0}, {"type": "note_on", "time": 0, "note": 71, "velocity": 103, "channel": 0}, {"type": "note_off", "time": 3572, "note": 71, "velocity": 103, "channel": 0}, {"type": "note_on", "time": 11, "note": 70, "velocity": 109, "channel": 0}, {"type": "note_off", "time": 459, "note": 70, "velocity": 109, "channel": 0}, {"type": "note_on", "time": 41, "note": 69, "velocity": 108, "channel": 0}, {"type": "note_off", "time": 388, "note": 69, "velocity": 108, "channel": 0}, {"type": "note_on", "time": 5, "note": 68, "velocity": 105, "channel": 0}, {"type": "note_off", "time": 1344, "note": 68, "velocity": 105, "channel": 0}, {"type": "note_on", "time": 29, "note": 67, "velocity": 99, "channel": 0}, {"type": "note_off", "time": 310, "note": 67, "velocity": 99, "channel": 0}, {"type": "note_on", "time": 77, "note": 66, "velocity": 101, "channel": 0}, {"type": "note_off", "time": 388, "note": 66, "velocity": 101, "channel": 0}, {"type": "note_on", "time": 161, "note": 72, "velocity": 104, "channel": 0}, {"type": "note_off", "time": 358, "note": 72, "velocity": 104, "channel": 0}, {"type": "note_on", "time": 65, "note": 69, "velocity": 102, "channel": 0}, {"type": "note_off", "time": 394, "note": 69, "velocity": 102, "channel": 0}, {"type": "note_on", "time": 59, "note": 66, "velocity": 101, "channel": 0}, {"type": "note_off", "time": 370, "note": 66, "velocity": 101, "channel": 0}, {"type": "note_on", "time": 71, "note": 65, "velocity": 103, "channel": 0}, {"type": "note_off", "time": 328, "note": 65, "velocity": 103, "channel": 0}, {"type": "note_on", "time": 0, "note": 64, "velocity": 108, "channel": 0}, {"type": "note_on", "time": 316, "note": 63, "velocity": 115, "channel": 0}, {"type": "note_off", "time": 0, "note": 64, "velocity": 108, "channel": 0}, {"type": "note_off", "time": 412, "note": 63, "velocity": 115, "channel": 0}, {"type": "note_on", "time": 35, "note": 62, "velocity": 106, "channel": 0}, {"type": "note_off", "time": 495, "note": 62, "velocity": 106, "channel": 0}, {"type": "note_on", "time": 65, "note": 61, "velocity": 112, "channel": 0}, {"type": "note_off", "time": 244, "note": 61, "velocity": 112, "channel": 0}, {"type": "note_on", "time": 53, "note": 60, "velocity": 104, "channel": 0}, {"type": "note_off", "time": 597, "note": 60, "velocity": 104, "channel": 0}, {"type": "note_on", "time": 0, "note": 59, "velocity": 98, "channel": 0}, {"type": "note_off", "time": 280, "note": 59, "velocity": 98, "channel": 0}, {"type": "note_on", "time": 47, "note": 58, "velocity": 98, "channel": 0}, {"type": "note_off", "time": 352, "note": 58, "velocity": 98, "channel": 0}, {"type": "note_on", "time": 119, "note": 57, "velocity": 109, "channel": 0}, {"type": "note_off", "time": 459, "note": 57, "velocity": 109, "channel": 0}, {"type": "note_on", "time": 53, "note": 56, "velocity": 102, "channel": 0}, {"type": "note_off", "time": 298, "note": 56, "velocity": 102, "channel": 0}, {"type": "note_on", "time": 29, "note": 55, "velocity": 104, "channel": 0}, {"type": "note_off", "time": 495, "note": 55, "velocity": 104, "channel": 0}, {"type": "note_on", "time": 59, "note": 59, "velocity": 105, "channel": 0}, {"type": "note_off", "time": 322, "note": 59, "velocity": 105, "channel": 0}, {"type": "note_on", "time": 35, "note": 57, "velocity": 101, "channel": 0}, {"type": "note_off", "time": 442, "note": 57, "velocity": 101, "channel": 0}, {"type": "note_on", "time": 113, "note": 62, "velocity": 101, "channel": 0}, {"type": "note_off", "time": 465, "note": 62, "velocity": 101, "channel": 0}, {"type": "note_on", "time": 812, "note": 72, "velocity": 101, "channel": 0}, {"type": "note_off", "time": 334, "note": 72, "velocity": 101, "channel": 0}, {"type": "note_on", "time": 53, "note": 72, "velocity": 89, "channel": 0}, {"type": "note_off", "time": 418, "note": 72, "velocity": 89, "channel": 0}, {"type": "note_on", "time": 47, "note": 69, "velocity": 104, "channel": 0}, {"type": "note_off", "time": 417, "note": 69, "velocity": 104, "channel": 0}, {"type": "note_on", "time": 0, "note": 71, "velocity": 104, "channel": 0}, {"type": "note_off", "time": 340, "note": 71, "velocity": 104, "channel": 0}, {"type": "note_on", "time": 29, "note": 69, "velocity": 105, "channel": 0}, {"type": "note_off", "time": 445, "note": 69, "velocity": 105, "channel": 0}, {"type": "note_on", "time": 117, "note": 65, "velocity": 109, "channel": 0}, {"type": "note_off", "time": 294, "note": 65, "velocity": 109, "channel": 0}, {"type": "note_on", "time": 33, "note": 64, "velocity": 106, "channel": 0}, {"type": "note_off", "time": 537, "note": 64, "velocity": 106, "channel": 0}, {"type": "note_on", "time": 42, "note": 67, "velocity": 102, "channel": 0}, {"type": "note_off", "time": 369, "note": 67, "velocity": 102, "channel": 0}, {"type": "note_on", "time": 33, "note": 62, "velocity": 107, "channel": 0}, {"type": "note_off", "time": 478, "note": 62, "velocity": 107, "channel": 0}, {"type": "note_on", "time": 16, "note": 61, "velocity": 101, "channel": 0}, {"type": "note_off", "time": 428, "note": 61, "velocity": 101, "channel": 0}, {"type": "note_on", "time": 58, "note": 57, "velocity": 98, "channel": 0}, {"type": "note_off", "time": 336, "note": 57, "velocity": 98, "channel": 0}, {"type": "note_on", "time": 112, "note": 54, "velocity": 103, "channel": 0}, {"type": "note_off", "time": 221, "note": 54, "velocity": 103, "channel": 0}, {"type": "note_on", "time": 41, "note": 55, "velocity": 96, "channel": 0}, {"type": "note_off", "time": 388, "note": 55, "velocity": 96, "channel": 0}, {"type": "note_on", "time": 1642, "note": 57, "velocity": 104, "channel": 0}, {"type": "note_off", "time": 370, "note": 57, "velocity": 104, "channel": 0}, {"type": "note_on", "time": 1367, "note": 64, "velocity": 113, "channel": 0}, {"type": "note_off", "time": 388, "note": 64, "velocity": 113, "channel": 0}, {"type": "note_on", "time": 29, "note": 62, "velocity": 108, "channel": 0}, {"type": "note_off", "time": 328, "note": 62, "velocity": 108, "channel": 0}, {"type": "note_on", "time": 72, "note": 59, "velocity": 98, "channel": 0}, {"type": "note_off", "time": 335, "note": 59, "velocity": 98, "channel": 0}, {"type": "note_on", "time": 176, "note": 55, "velocity": 102, "channel": 0}, {"type": "note_off", "time": 420, "note": 55, "velocity": 102, "channel": 0}, {"type": "note_on", "time": 42, "note": 57, "velocity": 107, "channel": 0}, {"type": "note_off", "time": 294, "note": 57, "velocity": 107, "channel": 0}, {"type": "note_on", "time": 32, "note": 52, "velocity": 103, "channel": 0}, {"type": "note_off", "time": 274, "note": 52, "velocity": 103, "channel": 0}, {"type": "note_on", "time": 107, "note": 50, "velocity": 106, "channel": 0}, {"type": "note_off", "time": 436, "note": 50, "velocity": 106, "channel": 0}, {"type": "note_on", "time": 23, "note": 54, "velocity": 99, "channel": 0}, {"type": "note_off", "time": 448, "note": 54, "velocity": 99, "channel": 0}, {"type": "note_on", "time": 501, "note": 62, "velocity": 93, "channel": 0}, {"type": "note_off", "time": 266, "note": 62, "velocity": 93, "channel": 0}, {"type": "note_on", "time": 0, "note": 68, "velocity": 99, "channel": 0}, {"type": "note_off", "time": 310, "note": 68, "velocity": 99, "channel": 0}, {"type": "note_on", "time": 100, "note": 67, "velocity": 108, "channel": 0}, {"type": "note_off", "time": 378, "note": 67, "velocity": 108, "channel": 0}, {"type": "note_on", "time": 184, "note": 69, "velocity": 104, "channel": 0}, {"type": "note_off", "time": 344, "note": 69, "velocity": 104, "channel": 0}, {"type": "note_on", "time": 0, "note": 65, "velocity": 87, "channel": 0}, {"type": "note_off", "time": 403, "note": 65, "velocity": 87, "channel": 0}, {"type": "note_on", "time": 1015, "note": 74, "velocity": 101, "channel": 0}, {"type": "note_off", "time": 298, "note": 74, "velocity": 101, "channel": 0}, {"type": "note_on", "time": 95, "note": 71, "velocity": 110, "channel": 0}, {"type": "note_off", "time": 209, "note": 71, "velocity": 110, "channel": 0}, {"type": "note_on", "time": 5, "note": 70, "velocity": 105, "channel": 0}, {"type": "note_off", "time": 143, "note": 70, "velocity": 105, "channel": 0}, {"type": "note_on", "time": 35, "note": 69, "velocity": 101, "channel": 0}, {"type": "note_off", "time": 155, "note": 69, "velocity": 101, "channel": 0}, {"type": "note_on", "time": 53, "note": 68, "velocity": 106, "channel": 0}, {"type": "note_off", "time": 167, "note": 68, "velocity": 106, "channel": 0}, {"type": "note_on", "time": 41, "note": 67, "velocity": 106, "channel": 0}, {"type": "note_off", "time": 507, "note": 67, "velocity": 106, "channel": 0}, {"type": "note_on", "time": 5, "note": 66, "velocity": 107, "channel": 0}, {"type": "note_off", "time": 155, "note": 66, "velocity": 107, "channel": 0}, {"type": "note_on", "time": 29, "note": 65, "velocity": 100, "channel": 0}, {"type": "note_off", "time": 137, "note": 65, "velocity": 100, "channel": 0}, {"type": "note_on", "time": 2801, "note": 73, "velocity": 105, "channel": 0}, {"type": "note_off", "time": 286, "note": 73, "velocity": 105, "channel": 0}, {"type": "note_on", "time": 11, "note": 74, "velocity": 101, "channel": 0}, {"type": "note_off", "time": 1128, "note": 74, "velocity": 101, "channel": 0}, {"type": "note_on", "time": 884, "note": 69, "velocity": 105, "channel": 0}, {"type": "note_off", "time": 412, "note": 69, "velocity": 105, "channel": 0}, {"type": "note_on", "time": 59, "note": 74, "velocity": 102, "channel": 0}, {"type": "note_off", "time": 597, "note": 74, "velocity": 102, "channel": 0}, {"type": "note_on", "time": 20, "note": 73, "velocity": 97, "channel": 0}, {"type": "note_off", "time": 214, "note": 73, "velocity": 97, "channel": 0}, {"type": "note_on", "time": 46, "note": 71, "velocity": 102, "channel": 0}, {"type": "note_off", "time": 310, "note": 71, "velocity": 102, "channel": 0}, {"type": "note_on", "time": 54, "note": 68, "velocity": 102, "channel": 0}, {"type": "note_off", "time": 814, "note": 68, "velocity": 102, "channel": 0}, {"type": "note_on", "time": 2350, "note": 71, "velocity": 97, "channel": 0}, {"type": "note_off", "time": 1594, "note": 71, "velocity": 97, "channel": 0}, {"type": "note_on", "time": 53, "note": 69, "velocity": 95, "channel": 0}, {"type": "note_off", "time": 331, "note": 69, "velocity": 95, "channel": 0}, {"type": "note_on", "time": 50, "note": 65, "velocity": 103, "channel": 0}, {"type": "note_off", "time": 470, "note": 65, "velocity": 103, "channel": 0}, {"type": "note_on", "time": 50, "note": 62, "velocity": 97, "channel": 0}, {"type": "note_off", "time": 344, "note": 62, "velocity": 97, "channel": 0}, {"type": "note_on", "time": 3876, "note": 71, "velocity": 101, "channel": 0}, {"type": "note_off", "time": 1444, "note": 71, "velocity": 101, "channel": 0}, {"type": "note_on", "time": 75, "note": 69, "velocity": 102, "channel": 0}, {"type": "note_off", "time": 378, "note": 69, "velocity": 102, "channel": 0}, {"type": "note_on", "time": 67, "note": 65, "velocity": 109, "channel": 0}, {"type": "note_off", "time": 445, "note": 65, "velocity": 109, "channel": 0}, {"type": "note_on", "time": 0, "note": 62, "velocity": 101, "channel": 0}, {"type": "note_off", "time": 310, "note": 62, "velocity": 101, "channel": 0}, {"type": "note_on", "time": 1285, "note": 74, "velocity": 102, "channel": 0}, {"type": "note_off", "time": 361, "note": 74, "velocity": 102, "channel": 0}, {"type": "note_on", "time": 210, "note": 64, "velocity": 91, "channel": 0}, {"type": "note_off", "time": 210, "note": 64, "velocity": 91, "channel": 0}, {"type": "note_on", "time": 75, "note": 69, "velocity": 90, "channel": 0}, {"type": "note_off", "time": 495, "note": 69, "velocity": 90, "channel": 0}, {"type": "note_on", "time": 100, "note": 74, "velocity": 95, "channel": 0}, {"type": "note_off", "time": 210, "note": 74, "velocity": 95, "channel": 0}, {"type": "note_on", "time": 18, "note": 73, "velocity": 96, "channel": 0}, {"type": "note_off", "time": 113, "note": 73, "velocity": 96, "channel": 0}, {"type": "note_on", "time": 23, "note": 72, "velocity": 94, "channel": 0}, {"type": "note_off", "time": 101, "note": 72, "velocity": 94, "channel": 0}, {"type": "note_on", "time": 83, "note": 69, "velocity": 95, "channel": 0}, {"type": "note_off", "time": 262, "note": 69, "velocity": 95, "channel": 0}, {"type": "note_on", "time": 77, "note": 66, "velocity": 97, "channel": 0}, {"type": "note_off", "time": 364, "note": 66, "velocity": 97, "channel": 0}, {"type": "note_on", "time": 47, "note": 62, "velocity": 97, "channel": 0}, {"type": "note_off", "time": 388, "note": 62, "velocity": 97, "channel": 0}, {"type": "note_on", "time": 467, "note": 65, "velocity": 107, "channel": 0}, {"type": "note_off", "time": 1268, "note": 65, "velocity": 107, "channel": 0}, {"type": "note_on", "time": 168, "note": 68, "velocity": 103, "channel": 0}, {"type": "note_off", "time": 222, "note": 68, "velocity": 103, "channel": 0}, {"type": "note_on", "time": 21, "note": 65, "velocity": 104, "channel": 0}, {"type": "note_on", "time": 138, "note": 64, "velocity": 114, "channel": 0}, {"type": "note_off", "time": 0, "note": 65, "velocity": 104, "channel": 0}, {"type": "note_off", "time": 430, "note": 64, "velocity": 114, "channel": 0}, {"type": "note_on", "time": 1018, "note": 67, "velocity": 103, "channel": 0}, {"type": "note_off", "time": 180, "note": 67, "velocity": 103, "channel": 0}, {"type": "note_on", "time": 16, "note": 65, "velocity": 106, "channel": 0}, {"type": "note_off", "time": 105, "note": 65, "velocity": 106, "channel": 0}, {"type": "note_on", "time": 33, "note": 64, "velocity": 94, "channel": 0}, {"type": "note_off", "time": 226, "note": 64, "velocity": 94, "channel": 0}, {"type": "note_on", "time": 1171, "note": 67, "velocity": 103, "channel": 0}, {"type": "note_off", "time": 348, "note": 67, "velocity": 103, "channel": 0}, {"type": "note_on", "time": 71, "note": 61, "velocity": 103, "channel": 0}, {"type": "note_on", "time": 449, "note": 62, "velocity": 102, "channel": 0}, {"type": "note_off", "time": 0, "note": 61, "velocity": 103, "channel": 0}, {"type": "note_off", "time": 306, "note": 62, "velocity": 102, "channel": 0}, {"type": "note_on", "time": 29, "note": 64, "velocity": 110, "channel": 0}, {"type": "note_off", "time": 407, "note": 64, "velocity": 110, "channel": 0}, {"type": "note_on", "time": 83, "note": 65, "velocity": 107, "channel": 0}, {"type": "note_off", "time": 340, "note": 65, "velocity": 107, "channel": 0}, {"type": "note_on", "time": 33, "note": 62, "velocity": 104, "channel": 0}, {"type": "note_off", "time": 403, "note": 62, "velocity": 104, "channel": 0}, {"type": "note_on", "time": 50, "note": 60, "velocity": 97, "channel": 0}, {"type": "note_off", "time": 415, "note": 60, "velocity": 97, "channel": 0}, {"type": "note_on", "time": 4, "note": 59, "velocity": 96, "channel": 0}, {"type": "note_off", "time": 319, "note": 59, "velocity": 96, "channel": 0}, {"type": "note_on", "time": 180, "note": 62, "velocity": 107, "channel": 0}, {"type": "note_off", "time": 294, "note": 62, "velocity": 107, "channel": 0}, {"type": "note_on", "time": 20, "note": 57, "velocity": 106, "channel": 0}, {"type": "note_off", "time": 327, "note": 57, "velocity": 106, "channel": 0}, {"type": "note_on", "time": 1209, "note": 68, "velocity": 116, "channel": 0}, {"type": "note_off", "time": 554, "note": 68, "velocity": 116, "channel": 0}, {"type": "note_on", "time": 1398, "note": 64, "velocity": 100, "channel": 0}, {"type": "note_off", "time": 125, "note": 64, "velocity": 100, "channel": 0}, {"type": "note_on", "time": 25, "note": 65, "velocity": 108, "channel": 0}, {"type": "note_off", "time": 407, "note": 65, "velocity": 108, "channel": 0}, {"type": "note_on", "time": 1113, "note": 65, "velocity": 106, "channel": 0}, {"type": "note_off", "time": 340, "note": 65, "velocity": 106, "channel": 0}, {"type": "note_on", "time": 4, "note": 69, "velocity": 101, "channel": 0}, {"type": "note_off", "time": 310, "note": 69, "velocity": 101, "channel": 0}, {"type": "note_on", "time": 1150, "note": 69, "velocity": 106, "channel": 0}, {"type": "note_off", "time": 294, "note": 69, "velocity": 106, "channel": 0}, {"type": "note_on", "time": 4, "note": 72, "velocity": 106, "channel": 0}, {"type": "note_off", "time": 411, "note": 72, "velocity": 106, "channel": 0}, {"type": "note_on", "time": 919, "note": 72, "velocity": 109, "channel": 0}, {"type": "note_off", "time": 331, "note": 72, "velocity": 109, "channel": 0}, {"type": "note_on", "time": 0, "note": 71, "velocity": 105, "channel": 0}, {"type": "note_off", "time": 285, "note": 71, "velocity": 105, "channel": 0}, {"type": "note_on", "time": 1079, "note": 71, "velocity": 110, "channel": 0}, {"type": "note_off", "time": 323, "note": 71, "velocity": 110, "channel": 0}, {"type": "note_on", "time": 67, "note": 67, "velocity": 106, "channel": 0}, {"type": "note_off", "time": 348, "note": 67, "velocity": 106, "channel": 0}, {"type": "note_on", "time": 67, "note": 69, "velocity": 110, "channel": 0}, {"type": "note_off", "time": 352, "note": 69, "velocity": 110, "channel": 0}, {"type": "note_on", "time": 37, "note": 71, "velocity": 109, "channel": 0}, {"type": "note_off", "time": 348, "note": 71, "velocity": 109, "channel": 0}, {"type": "note_on", "time": 79, "note": 67, "velocity": 102, "channel": 0}, {"type": "note_off", "time": 348, "note": 67, "velocity": 102, "channel": 0}, {"type": "note_on", "time": 92, "note": 65, "velocity": 103, "channel": 0}, {"type": "note_off", "time": 399, "note": 65, "velocity": 103, "channel": 0}, {"type": "note_on", "time": 29, "note": 67, "velocity": 99, "channel": 0}, {"type": "note_off", "time": 268, "note": 67, "velocity": 99, "channel": 0}, {"type": "note_on", "time": 0, "note": 69, "velocity": 97, "channel": 0}, {"type": "note_off", "time": 466, "note": 69, "velocity": 97, "channel": 0}, {"type": "note_on", "time": 121, "note": 71, "velocity": 104, "channel": 0}, {"type": "note_off", "time": 302, "note": 71, "velocity": 104, "channel": 0}, {"type": "note_on", "time": 0, "note": 65, "velocity": 106, "channel": 0}, {"type": "note_off", "time": 394, "note": 65, "velocity": 106, "channel": 0}, {"type": "note_on", "time": 1117, "note": 67, "velocity": 106, "channel": 0}, {"type": "note_off", "time": 377, "note": 67, "velocity": 106, "channel": 0}, {"type": "note_on", "time": 12, "note": 64, "velocity": 105, "channel": 0}, {"type": "note_off", "time": 449, "note": 64, "velocity": 105, "channel": 0}, {"type": "note_on", "time": 945, "note": 67, "velocity": 109, "channel": 0}, {"type": "note_off", "time": 436, "note": 67, "velocity": 109, "channel": 0}, {"type": "note_on", "time": 54, "note": 61, "velocity": 111, "channel": 0}, {"type": "note_off", "time": 453, "note": 61, "velocity": 111, "channel": 0}, {"type": "note_on", "time": 46, "note": 62, "velocity": 108, "channel": 0}, {"type": "note_off", "time": 424, "note": 62, "velocity": 108, "channel": 0}, {"type": "note_on", "time": 4, "note": 64, "velocity": 109, "channel": 0}, {"type": "note_off", "time": 315, "note": 64, "velocity": 109, "channel": 0}, {"type": "note_on", "time": 37, "note": 65, "velocity": 108, "channel": 0}, {"type": "note_off", "time": 390, "note": 65, "velocity": 108, "channel": 0}, {"type": "note_on", "time": 21, "note": 62, "velocity": 107, "channel": 0}, {"type": "note_off", "time": 420, "note": 62, "velocity": 107, "channel": 0}, {"type": "note_on", "time": 37, "note": 60, "velocity": 101, "channel": 0}, {"type": "note_off", "time": 457, "note": 60, "velocity": 101, "channel": 0}, {"type": "note_on", "time": 8, "note": 59, "velocity": 104, "channel": 0}, {"type": "note_off", "time": 327, "note": 59, "velocity": 104, "channel": 0}, {"type": "note_on", "time": 147, "note": 62, "velocity": 109, "channel": 0}, {"type": "note_on", "time": 294, "note": 57, "velocity": 106, "channel": 0}, {"type": "note_off", "time": 0, "note": 62, "velocity": 109, "channel": 0}, {"type": "note_off", "time": 470, "note": 57, "velocity": 106, "channel": 0}, {"type": "note_on", "time": 1033, "note": 68, "velocity": 101, "channel": 0}, {"type": "note_off", "time": 298, "note": 68, "velocity": 101, "channel": 0}, {"type": "note_on", "time": 8, "note": 62, "velocity": 96, "channel": 0}, {"type": "note_off", "time": 256, "note": 62, "velocity": 96, "channel": 0}, {"type": "note_on", "time": 1331, "note": 69, "velocity": 100, "channel": 0}, {"type": "note_off", "time": 361, "note": 69, "velocity": 100, "channel": 0}, {"type": "note_on", "time": 0, "note": 66, "velocity": 104, "channel": 0}, {"type": "note_off", "time": 130, "note": 66, "velocity": 104, "channel": 0}, {"type": "note_on", "time": 25, "note": 65, "velocity": 112, "channel": 0}, {"type": "note_off", "time": 273, "note": 65, "velocity": 112, "channel": 0}, {"type": "note_on", "time": 0, "note": 62, "velocity": 103, "channel": 0}, {"type": "note_off", "time": 273, "note": 62, "velocity": 103, "channel": 0}, {"type": "note_on", "time": 890, "note": 69, "velocity": 108, "channel": 0}, {"type": "note_off", "time": 474, "note": 69, "velocity": 108, "channel": 0}, {"type": "note_on", "time": 188, "note": 65, "velocity": 108, "channel": 0}, {"type": "note_off", "time": 319, "note": 65, "velocity": 108, "channel": 0}, {"type": "note_on", "time": 8, "note": 62, "velocity": 102, "channel": 0}, {"type": "note_off", "time": 424, "note": 62, "velocity": 102, "channel": 0}, {"type": "note_on", "time": 575, "note": 63, "velocity": 111, "channel": 0}, {"type": "note_off", "time": 474, "note": 63, "velocity": 111, "channel": 0}, {"type": "note_on", "time": 810, "note": 68, "velocity": 108, "channel": 0}, {"type": "note_off", "time": 256, "note": 68, "velocity": 108, "channel": 0}, {"type": "note_on", "time": 8, "note": 66, "velocity": 106, "channel": 0}, {"type": "note_off", "time": 310, "note": 66, "velocity": 106, "channel": 0}, {"type": "note_on", "time": 1167, "note": 70, "velocity": 110, "channel": 0}, {"type": "note_off", "time": 357, "note": 70, "velocity": 110, "channel": 0}, {"type": "note_on", "time": 37, "note": 72, "velocity": 105, "channel": 0}, {"type": "note_off", "time": 252, "note": 72, "velocity": 105, "channel": 0}, {"type": "note_on", "time": 1033, "note": 68, "velocity": 106, "channel": 0}, {"type": "note_off", "time": 344, "note": 68, "velocity": 106, "channel": 0}, {"type": "note_on", "time": 46, "note": 72, "velocity": 104, "channel": 0}, {"type": "note_off", "time": 298, "note": 72, "velocity": 104, "channel": 0}, {"type": "note_on", "time": 12, "note": 71, "velocity": 98, "channel": 0}, {"type": "note_off", "time": 189, "note": 71, "velocity": 98, "channel": 0}, {"type": "note_on", "time": 4, "note": 70, "velocity": 104, "channel": 0}, {"type": "note_off", "time": 361, "note": 70, "velocity": 104, "channel": 0}, {"type": "note_on", "time": 67, "note": 66, "velocity": 96, "channel": 0}, {"type": "note_off", "time": 491, "note": 66, "velocity": 96, "channel": 0}, {"type": "note_on", "time": 50, "note": 70, "velocity": 97, "channel": 0}, {"type": "note_off", "time": 243, "note": 70, "velocity": 97, "channel": 0}, {"type": "note_on", "time": 0, "note": 68, "velocity": 102, "channel": 0}, {"type": "note_off", "time": 411, "note": 68, "velocity": 102, "channel": 0}, {"type": "note_on", "time": 1386, "note": 63, "velocity": 108, "channel": 0}, {"type": "note_off", "time": 529, "note": 63, "velocity": 108, "channel": 0}, {"type": "note_on", "time": 932, "note": 68, "velocity": 108, "channel": 0}, {"type": "note_off", "time": 394, "note": 68, "velocity": 108, "channel": 0}, {"type": "note_on", "time": 4, "note": 66, "velocity": 104, "channel": 0}, {"type": "note_off", "time": 331, "note": 66, "velocity": 104, "channel": 0}, {"type": "note_on", "time": 1440, "note": 68, "velocity": 111, "channel": 0}, {"type": "note_off", "time": 424, "note": 68, "velocity": 111, "channel": 0}, {"type": "note_on", "time": 50, "note": 66, "velocity": 102, "channel": 0}, {"type": "note_off", "time": 382, "note": 66, "velocity": 102, "channel": 0}, {"type": "note_on", "time": 0, "note": 63, "velocity": 112, "channel": 0}, {"type": "note_off", "time": 567, "note": 63, "velocity": 112, "channel": 0}, {"type": "note_on", "time": 92, "note": 60, "velocity": 93, "channel": 0}, {"type": "note_off", "time": 142, "note": 60, "velocity": 93, "channel": 0}, {"type": "note_on", "time": 25, "note": 65, "velocity": 107, "channel": 0}, {"type": "note_off", "time": 403, "note": 65, "velocity": 107, "channel": 0}, {"type": "note_on", "time": 1024, "note": 68, "velocity": 111, "channel": 0}, {"type": "note_off", "time": 457, "note": 68, "velocity": 111, "channel": 0}, {"type": "note_on", "time": 12, "note": 67, "velocity": 103, "channel": 0}, {"type": "note_off", "time": 403, "note": 67, "velocity": 103, "channel": 0}, {"type": "note_on", "time": 995, "note": 68, "velocity": 108, "channel": 0}, {"type": "note_off", "time": 403, "note": 68, "velocity": 108, "channel": 0}, {"type": "note_on", "time": 0, "note": 63, "velocity": 114, "channel": 0}, {"type": "note_off", "time": 508, "note": 63, "velocity": 114, "channel": 0}, {"type": "note_on", "time": 8, "note": 70, "velocity": 102, "channel": 0}, {"type": "note_off", "time": 415, "note": 70, "velocity": 102, "channel": 0}, {"type": "note_on", "time": 0, "note": 66, "velocity": 97, "channel": 0}, {"type": "note_off", "time": 361, "note": 66, "velocity": 97, "channel": 0}, {"type": "note_on", "time": 16, "note": 63, "velocity": 111, "channel": 0}, {"type": "note_off", "time": 567, "note": 63, "velocity": 111, "channel": 0}, {"type": "note_on", "time": 0, "note": 61, "velocity": 102, "channel": 0}, {"type": "note_off", "time": 424, "note": 61, "velocity": 102, "channel": 0}, {"type": "note_on", "time": 46, "note": 60, "velocity": 105, "channel": 0}, {"type": "note_off", "time": 382, "note": 60, "velocity": 105, "channel": 0}, {"type": "note_on", "time": 37, "note": 58, "velocity": 95, "channel": 0}, {"type": "note_off", "time": 285, "note": 58, "velocity": 95, "channel": 0}, {"type": "note_on", "time": 121, "note": 63, "velocity": 104, "channel": 0}, {"type": "note_off", "time": 491, "note": 63, "velocity": 104, "channel": 0}, {"type": "note_on", "time": 1768, "note": 60, "velocity": 103, "channel": 0}, {"type": "note_off", "time": 432, "note": 60, "velocity": 103, "channel": 0}, {"type": "note_on", "time": 928, "note": 56, "velocity": 99, "channel": 0}, {"type": "note_off", "time": 338, "note": 56, "velocity": 99, "channel": 0}, {"type": "note_on", "time": 0, "note": 50, "velocity": 98, "channel": 0}, {"type": "note_off", "time": 302, "note": 50, "velocity": 98, "channel": 0}, {"type": "note_on", "time": 50, "note": 63, "velocity": 105, "channel": 0}, {"type": "note_off", "time": 292, "note": 63, "velocity": 105, "channel": 0}, {"type": "note_on", "time": 0, "note": 67, "velocity": 106, "channel": 0}, {"type": "note_off", "time": 489, "note": 67, "velocity": 106, "channel": 0}, {"type": "note_on", "time": 65, "note": 67, "velocity": 112, "channel": 0}, {"type": "note_off", "time": 555, "note": 67, "velocity": 112, "channel": 0}, {"type": "note_on", "time": 5, "note": 69, "velocity": 106, "channel": 0}, {"type": "note_off", "time": 304, "note": 69, "velocity": 106, "channel": 0}, {"type": "note_on", "time": 89, "note": 67, "velocity": 105, "channel": 0}, {"type": "note_off", "time": 609, "note": 67, "velocity": 105, "channel": 0}, {"type": "note_on", "time": 50, "note": 66, "velocity": 90, "channel": 0}, {"type": "note_off", "time": 277, "note": 66, "velocity": 90, "channel": 0}, {"type": "note_on", "time": 45, "note": 65, "velocity": 104, "channel": 0}, {"type": "note_off", "time": 358, "note": 65, "velocity": 104, "channel": 0}, {"type": "note_on", "time": 49, "note": 62, "velocity": 93, "channel": 0}, {"type": "note_off", "time": 772, "note": 62, "velocity": 93, "channel": 0}, {"type": "note_on", "time": 626, "note": 65, "velocity": 101, "channel": 0}, {"type": "note_off", "time": 292, "note": 65, "velocity": 101, "channel": 0}, {"type": "note_on", "time": 83, "note": 69, "velocity": 104, "channel": 0}, {"type": "note_off", "time": 394, "note": 69, "velocity": 104, "channel": 0}, {"type": "note_on", "time": 1003, "note": 71, "velocity": 105, "channel": 0}, {"type": "note_off", "time": 346, "note": 71, "velocity": 105, "channel": 0}, {"type": "note_on", "time": 0, "note": 74, "velocity": 102, "channel": 0}, {"type": "note_off", "time": 340, "note": 74, "velocity": 102, "channel": 0}, {"type": "note_on", "time": 1051, "note": 66, "velocity": 93, "channel": 0}, {"type": "note_off", "time": 298, "note": 66, "velocity": 93, "channel": 0}, {"type": "note_on", "time": 22, "note": 69, "velocity": 97, "channel": 0}, {"type": "note_off", "time": 373, "note": 69, "velocity": 97, "channel": 0}, {"type": "note_on", "time": 0, "note": 74, "velocity": 99, "channel": 0}, {"type": "note_off", "time": 268, "note": 74, "velocity": 99, "channel": 0}, {"type": "note_on", "time": 0, "note": 73, "velocity": 101, "channel": 0}, {"type": "note_on", "time": 214, "note": 69, "velocity": 102, "channel": 0}, {"type": "note_off", "time": 0, "note": 73, "velocity": 101, "channel": 0}, {"type": "note_off", "time": 499, "note": 69, "velocity": 102, "channel": 0}, {"type": "note_on", "time": 126, "note": 65, "velocity": 107, "channel": 0}, {"type": "note_off", "time": 323, "note": 65, "velocity": 107, "channel": 0}, {"type": "note_on", "time": 0, "note": 62, "velocity": 103, "channel": 0}, {"type": "note_off", "time": 470, "note": 62, "velocity": 103, "channel": 0}, {"type": "note_on", "time": 1314, "note": 67, "velocity": 96, "channel": 0}, {"type": "note_off", "time": 483, "note": 67, "velocity": 96, "channel": 0}, {"type": "note_on", "time": 1033, "note": 69, "velocity": 100, "channel": 0}, {"type": "note_off", "time": 340, "note": 69, "velocity": 100, "channel": 0}, {"type": "note_on", "time": 54, "note": 65, "velocity": 102, "channel": 0}, {"type": "note_off", "time": 386, "note": 65, "velocity": 102, "channel": 0}, {"type": "note_on", "time": 995, "note": 69, "velocity": 107, "channel": 0}, {"type": "note_off", "time": 268, "note": 69, "velocity": 107, "channel": 0}, {"type": "note_on", "time": 33, "note": 65, "velocity": 105, "channel": 0}, {"type": "note_off", "time": 92, "note": 65, "velocity": 105, "channel": 0}, {"type": "note_on", "time": 0, "note": 61, "velocity": 109, "channel": 0}, {"type": "note_off", "time": 487, "note": 61, "velocity": 109, "channel": 0}, {"type": "note_on", "time": 949, "note": 69, "velocity": 103, "channel": 0}, {"type": "note_off", "time": 201, "note": 69, "velocity": 103, "channel": 0}, {"type": "note_on", "time": 4, "note": 68, "velocity": 104, "channel": 0}, {"type": "note_off", "time": 96, "note": 68, "velocity": 104, "channel": 0}, {"type": "note_on", "time": 0, "note": 64, "velocity": 110, "channel": 0}, {"type": "note_off", "time": 394, "note": 64, "velocity": 110, "channel": 0}, {"type": "note_on", "time": 1495, "note": 65, "velocity": 108, "channel": 0}, {"type": "note_off", "time": 436, "note": 65, "velocity": 108, "channel": 0}, {"type": "note_on", "time": 830, "note": 69, "velocity": 94, "channel": 0}, {"type": "note_on", "time": 209, "note": 67, "velocity": 103, "channel": 0}, {"type": "note_off", "time": 0, "note": 69, "velocity": 94, "channel": 0}, {"type": "note_off", "time": 179, "note": 67, "velocity": 103, "channel": 0}, {"type": "note_on", "time": 0, "note": 62, "velocity": 100, "channel": 0}, {"type": "note_off", "time": 470, "note": 62, "velocity": 100, "channel": 0}, {"type": "note_on", "time": 944, "note": 71, "velocity": 112, "channel": 0}, {"type": "note_off", "time": 294, "note": 71, "velocity": 112, "channel": 0}, {"type": "note_on", "time": 109, "note": 67, "velocity": 110, "channel": 0}, {"type": "note_off", "time": 79, "note": 67, "velocity": 110, "channel": 0}, {"type": "note_on", "time": 0, "note": 64, "velocity": 110, "channel": 0}, {"type": "note_off", "time": 428, "note": 64, "velocity": 110, "channel": 0}, {"type": "note_on", "time": 109, "note": 69, "velocity": 99, "channel": 0}, {"type": "note_off", "time": 550, "note": 69, "velocity": 99, "channel": 0}, {"type": "note_on", "time": 105, "note": 72, "velocity": 107, "channel": 0}, {"type": "note_off", "time": 247, "note": 72, "velocity": 107, "channel": 0}, {"type": "note_on", "time": 0, "note": 71, "velocity": 111, "channel": 0}, {"type": "note_off", "time": 315, "note": 71, "velocity": 111, "channel": 0}, {"type": "note_on", "time": 58, "note": 69, "velocity": 104, "channel": 0}, {"type": "note_off", "time": 294, "note": 69, "velocity": 104, "channel": 0}, {"type": "note_on", "time": 33, "note": 65, "velocity": 104, "channel": 0}, {"type": "note_off", "time": 348, "note": 65, "velocity": 104, "channel": 0}, {"type": "note_on", "time": 54, "note": 62, "velocity": 99, "channel": 0}, {"type": "note_off", "time": 293, "note": 62, "velocity": 99, "channel": 0}, {"type": "note_on", "time": 0, "note": 59, "velocity": 92, "channel": 0}, {"type": "note_off", "time": 346, "note": 59, "velocity": 92, "channel": 0}, {"type": "note_on", "time": 3446, "note": 69, "velocity": 96, "channel": 0}, {"type": "note_off", "time": 1732, "note": 69, "velocity": 96, "channel": 0}, {"type": "note_on", "time": 325, "note": 69, "velocity": 107, "channel": 0}, {"type": "note_off", "time": 420, "note": 69, "velocity": 107, "channel": 0}, {"type": "note_on", "time": 31, "note": 71, "velocity": 112, "channel": 0}, {"type": "note_off", "time": 2162, "note": 71, "velocity": 112, "channel": 0}, {"type": "note_on", "time": 119, "note": 69, "velocity": 94, "channel": 0}, {"type": "note_off", "time": 298, "note": 69, "velocity": 94, "channel": 0}, {"type": "note_on", "time": 47, "note": 71, "velocity": 103, "channel": 0}, {"type": "note_off", "time": 2114, "note": 71, "velocity": 103, "channel": 0}, {"type": "note_on", "time": 95, "note": 69, "velocity": 98, "channel": 0}, {"type": "note_off", "time": 310, "note": 69, "velocity": 98, "channel": 0}, {"type": "note_on", "time": 95, "note": 71, "velocity": 103, "channel": 0}, {"type": "note_off", "time": 2923, "note": 71, "velocity": 103, "channel": 0}, {"type": "note_on", "time": 39, "note": 67, "velocity": 108, "channel": 0}, {"type": "note_off", "time": 477, "note": 67, "velocity": 108, "channel": 0}, {"type": "note_on", "time": 0, "note": 65, "velocity": 114, "channel": 0}, {"type": "note_off", "time": 470, "note": 65, "velocity": 114, "channel": 0}, {"type": "note_on", "time": 2170, "note": 71, "velocity": 109, "channel": 0}, {"type": "note_off", "time": 1176, "note": 71, "velocity": 109, "channel": 0}, {"type": "note_on", "time": 25, "note": 69, "velocity": 103, "channel": 0}, {"type": "note_off", "time": 226, "note": 69, "velocity": 103, "channel": 0}, {"type": "note_on", "time": 8, "note": 71, "velocity": 104, "channel": 0}, {"type": "note_off", "time": 294, "note": 71, "velocity": 104, "channel": 0}, {"type": "note_on", "time": 180, "note": 62, "velocity": 100, "channel": 0}, {"type": "note_off", "time": 280, "note": 62, "velocity": 100, "channel": 0}, {"type": "note_on", "time": 0, "note": 67, "velocity": 101, "channel": 0}, {"type": "note_off", "time": 412, "note": 67, "velocity": 101, "channel": 0}, {"type": "note_on", "time": 71, "note": 69, "velocity": 106, "channel": 0}, {"type": "note_off", "time": 364, "note": 69, "velocity": 106, "channel": 0}, {"type": "note_on", "time": 0, "note": 71, "velocity": 111, "channel": 0}, {"type": "note_off", "time": 477, "note": 71, "velocity": 111, "channel": 0}, {"type": "note_on", "time": 137, "note": 62, "velocity": 102, "channel": 0}, {"type": "note_off", "time": 250, "note": 62, "velocity": 102, "channel": 0}, {"type": "note_on", "time": 89, "note": 67, "velocity": 109, "channel": 0}, {"type": "note_off", "time": 513, "note": 67, "velocity": 109, "channel": 0}, {"type": "note_on", "time": 5, "note": 69, "velocity": 109, "channel": 0}, {"type": "note_off", "time": 430, "note": 69, "velocity": 109, "channel": 0}, {"type": "note_on", "time": 17, "note": 71, "velocity": 112, "channel": 0}, {"type": "note_off", "time": 403, "note": 71, "velocity": 112, "channel": 0}, {"type": "note_on", "time": 0, "note": 69, "velocity": 9, "channel": 0}, {"type": "note_off", "time": 1688, "note": 69, "velocity": 9, "channel": 0}, {"type": "note_on", "time": 67, "note": 71, "velocity": 107, "channel": 0}, {"type": "note_off", "time": 411, "note": 71, "velocity": 107, "channel": 0}, {"type": "note_on", "time": 39, "note": 69, "velocity": 102, "channel": 0}, {"type": "note_off", "time": 328, "note": 69, "velocity": 102, "channel": 0}, {"type": "note_on", "time": 94, "note": 65, "velocity": 109, "channel": 0}, {"type": "note_off", "time": 465, "note": 65, "velocity": 109, "channel": 0}, {"type": "note_on", "time": 25, "note": 64, "velocity": 105, "channel": 0}, {"type": "note_off", "time": 376, "note": 64, "velocity": 105, "channel": 0}, {"type": "note_on", "time": 23, "note": 67, "velocity": 101, "channel": 0}, {"type": "note_off", "time": 364, "note": 67, "velocity": 101, "channel": 0}, {"type": "note_on", "time": 17, "note": 65, "velocity": 103, "channel": 0}, {"type": "note_off", "time": 334, "note": 65, "velocity": 103, "channel": 0}, {"type": "note_on", "time": 143, "note": 62, "velocity": 102, "channel": 0}, {"type": "note_off", "time": 519, "note": 62, "velocity": 102, "channel": 0}, {"type": "note_on", "time": 29, "note": 61, "velocity": 98, "channel": 0}, {"type": "note_off", "time": 328, "note": 61, "velocity": 98, "channel": 0}, {"type": "note_on", "time": 29, "note": 64, "velocity": 102, "channel": 0}, {"type": "note_off", "time": 316, "note": 64, "velocity": 102, "channel": 0}, {"type": "note_on", "time": 71, "note": 62, "velocity": 108, "channel": 0}, {"type": "note_off", "time": 674, "note": 62, "velocity": 108, "channel": 0}, {"type": "note_on", "time": 2478, "note": 69, "velocity": 96, "channel": 0}, {"type": "note_off", "time": 1457, "note": 69, "velocity": 96, "channel": 0}, {"type": "note_on", "time": 0, "note": 67, "velocity": 102, "channel": 0}, {"type": "note_off", "time": 346, "note": 67, "velocity": 102, "channel": 0}, {"type": "note_on", "time": 59, "note": 65, "velocity": 103, "channel": 0}, {"type": "note_off", "time": 364, "note": 65, "velocity": 103, "channel": 0}, {"type": "note_on", "time": 41, "note": 62, "velocity": 98, "channel": 0}, {"type": "note_off", "time": 322, "note": 62, "velocity": 98, "channel": 0}, {"type": "note_on", "time": 555, "note": 68, "velocity": 90, "channel": 0}, {"type": "note_off", "time": 370, "note": 68, "velocity": 90, "channel": 0}, {"type": "note_on", "time": 137, "note": 71, "velocity": 95, "channel": 0}, {"type": "note_off", "time": 226, "note": 71, "velocity": 95, "channel": 0}, {"type": "note_on", "time": 95, "note": 62, "velocity": 100, "channel": 0}, {"type": "note_off", "time": 331, "note": 62, "velocity": 100, "channel": 0}, {"type": "note_on", "time": 5, "note": 65, "velocity": 94, "channel": 0}, {"type": "note_off", "time": 205, "note": 65, "velocity": 94, "channel": 0}, {"type": "note_on", "time": 29, "note": 68, "velocity": 88, "channel": 0}, {"type": "note_off", "time": 197, "note": 68, "velocity": 88, "channel": 0}, {"type": "note_on", "time": 75, "note": 70, "velocity": 95, "channel": 0}, {"type": "note_off", "time": 403, "note": 70, "velocity": 95, "channel": 0}, {"type": "note_on", "time": 96, "note": 68, "velocity": 97, "channel": 0}, {"type": "note_off", "time": 390, "note": 68, "velocity": 97, "channel": 0}, {"type": "note_on", "time": 29, "note": 70, "velocity": 90, "channel": 0}, {"type": "note_off", "time": 357, "note": 70, "velocity": 90, "channel": 0}, {"type": "note_on", "time": 75, "note": 68, "velocity": 102, "channel": 0}, {"type": "note_off", "time": 382, "note": 68, "velocity": 102, "channel": 0}, {"type": "note_on", "time": 71, "note": 67, "velocity": 93, "channel": 0}, {"type": "note_off", "time": 424, "note": 67, "velocity": 93, "channel": 0}, {"type": "note_on", "time": 42, "note": 72, "velocity": 97, "channel": 0}, {"type": "note_off", "time": 310, "note": 72, "velocity": 97, "channel": 0}, {"type": "note_on", "time": 0, "note": 62, "velocity": 99, "channel": 0}, {"type": "note_off", "time": 533, "note": 62, "velocity": 99, "channel": 0}, {"type": "note_on", "time": 1327, "note": 62, "velocity": 102, "channel": 0}, {"type": "note_off", "time": 403, "note": 62, "velocity": 102, "channel": 0}, {"type": "note_on", "time": 586, "note": 69, "velocity": 88, "channel": 0}, {"type": "note_off", "time": 369, "note": 69, "velocity": 88, "channel": 0}, {"type": "note_on", "time": 77, "note": 71, "velocity": 98, "channel": 0}, {"type": "note_off", "time": 323, "note": 71, "velocity": 98, "channel": 0}, {"type": "note_on", "time": 5, "note": 65, "velocity": 102, "channel": 0}, {"type": "note_off", "time": 634, "note": 65, "velocity": 102, "channel": 0}, {"type": "note_on", "time": 1107, "note": 64, "velocity": 104, "channel": 0}, {"type": "note_off", "time": 415, "note": 64, "velocity": 104, "channel": 0}, {"type": "note_on", "time": 220, "note": 67, "velocity": 93, "channel": 0}, {"type": "note_off", "time": 307, "note": 67, "velocity": 93, "channel": 0}, {"type": "note_on", "time": 8, "note": 71, "velocity": 96, "channel": 0}, {"type": "note_off", "time": 304, "note": 71, "velocity": 96, "channel": 0}, {"type": "note_on", "time": 89, "note": 61, "velocity": 105, "channel": 0}, {"type": "note_off", "time": 692, "note": 61, "velocity": 105, "channel": 0}, {"type": "note_on", "time": 722, "note": 61, "velocity": 106, "channel": 0}, {"type": "note_off", "time": 364, "note": 61, "velocity": 106, "channel": 0}, {"type": "note_on", "time": 85, "note": 63, "velocity": 109, "channel": 0}, {"type": "note_off", "time": 247, "note": 63, "velocity": 109, "channel": 0}, {"type": "note_on", "time": 0, "note": 65, "velocity": 99, "channel": 0}, {"type": "note_off", "time": 155, "note": 65, "velocity": 99, "channel": 0}, {"type": "note_on", "time": 4, "note": 67, "velocity": 102, "channel": 0}, {"type": "note_off", "time": 323, "note": 67, "velocity": 102, "channel": 0}, {"type": "note_on", "time": 54, "note": 60, "velocity": 107, "channel": 0}, {"type": "note_off", "time": 609, "note": 60, "velocity": 107, "channel": 0}, {"type": "note_on", "time": 697, "note": 67, "velocity": 109, "channel": 0}, {"type": "note_off", "time": 462, "note": 67, "velocity": 109, "channel": 0}, {"type": "note_on", "time": 0, "note": 62, "velocity": 101, "channel": 0}, {"type": "note_off", "time": 260, "note": 62, "velocity": 101, "channel": 0}, {"type": "note_on", "time": 0, "note": 68, "velocity": 96, "channel": 0}, {"type": "note_off", "time": 461, "note": 68, "velocity": 96, "channel": 0}, {"type": "note_on", "time": 33, "note": 64, "velocity": 104, "channel": 0}, {"type": "note_off", "time": 537, "note": 64, "velocity": 104, "channel": 0}, {"type": "note_on", "time": 798, "note": 64, "velocity": 103, "channel": 0}, {"type": "note_off", "time": 487, "note": 64, "velocity": 103, "channel": 0}, {"type": "note_on", "time": 8, "note": 68, "velocity": 96, "channel": 0}, {"type": "note_off", "time": 331, "note": 68, "velocity": 96, "channel": 0}, {"type": "note_on", "time": 8, "note": 70, "velocity": 94, "channel": 0}, {"type": "note_off", "time": 386, "note": 70, "velocity": 94, "channel": 0}, {"type": "note_on", "time": 109, "note": 66, "velocity": 101, "channel": 0}, {"type": "note_off", "time": 231, "note": 66, "velocity": 101, "channel": 0}, {"type": "note_on", "time": 109, "note": 61, "velocity": 102, "channel": 0}, {"type": "note_off", "time": 466, "note": 61, "velocity": 102, "channel": 0}, {"type": "note_on", "time": 16, "note": 59, "velocity": 93, "channel": 0}, {"type": "note_off", "time": 315, "note": 59, "velocity": 93, "channel": 0}, {"type": "note_on", "time": 21, "note": 62, "velocity": 103, "channel": 0}, {"type": "note_off", "time": 457, "note": 62, "velocity": 103, "channel": 0}, {"type": "note_on", "time": 1457, "note": 62, "velocity": 108, "channel": 0}, {"type": "note_off", "time": 411, "note": 62, "velocity": 108, "channel": 0}, {"type": "note_on", "time": 75, "note": 65, "velocity": 96, "channel": 0}, {"type": "note_off", "time": 243, "note": 65, "velocity": 96, "channel": 0}, {"type": "note_on", "time": 47, "note": 69, "velocity": 103, "channel": 0}, {"type": "note_off", "time": 466, "note": 69, "velocity": 103, "channel": 0}, {"type": "note_on", "time": 90, "note": 71, "velocity": 106, "channel": 0}, {"type": "note_off", "time": 361, "note": 71, "velocity": 106, "channel": 0}, {"type": "note_on", "time": 8, "note": 63, "velocity": 112, "channel": 0}, {"type": "note_off", "time": 621, "note": 63, "velocity": 112, "channel": 0}, {"type": "note_on", "time": 8, "note": 61, "velocity": 109, "channel": 0}, {"type": "note_off", "time": 218, "note": 61, "velocity": 109, "channel": 0}, {"type": "note_on", "time": 0, "note": 58, "velocity": 104, "channel": 0}, {"type": "note_off", "time": 365, "note": 58, "velocity": 104, "channel": 0}, {"type": "note_on", "time": 458, "note": 56, "velocity": 103, "channel": 0}, {"type": "note_off", "time": 310, "note": 56, "velocity": 103, "channel": 0}, {"type": "note_on", "time": 33, "note": 54, "velocity": 107, "channel": 0}, {"type": "note_off", "time": 176, "note": 54, "velocity": 107, "channel": 0}, {"type": "note_on", "time": 470, "note": 63, "velocity": 115, "channel": 0}, {"type": "note_off", "time": 491, "note": 63, "velocity": 115, "channel": 0}, {"type": "note_on", "time": 8, "note": 66, "velocity": 106, "channel": 0}, {"type": "note_off", "time": 222, "note": 66, "velocity": 106, "channel": 0}, {"type": "note_on", "time": 71, "note": 70, "velocity": 108, "channel": 0}, {"type": "note_off", "time": 432, "note": 70, "velocity": 108, "channel": 0}, {"type": "note_on", "time": 71, "note": 62, "velocity": 108, "channel": 0}, {"type": "note_off", "time": 483, "note": 62, "velocity": 108, "channel": 0}, {"type": "note_on", "time": 894, "note": 65, "velocity": 100, "channel": 0}, {"type": "note_off", "time": 340, "note": 65, "velocity": 100, "channel": 0}, {"type": "note_on", "time": 67, "note": 66, "velocity": 104, "channel": 0}, {"type": "note_off", "time": 218, "note": 66, "velocity": 104, "channel": 0}, {"type": "note_on", "time": 0, "note": 70, "velocity": 99, "channel": 0}, {"type": "note_off", "time": 331, "note": 70, "velocity": 99, "channel": 0}, {"type": "note_on", "time": 12, "note": 72, "velocity": 107, "channel": 0}, {"type": "note_off", "time": 655, "note": 72, "velocity": 107, "channel": 0}, {"type": "note_on", "time": 911, "note": 61, "velocity": 109, "channel": 0}, {"type": "note_off", "time": 399, "note": 61, "velocity": 109, "channel": 0}, {"type": "note_on", "time": 37, "note": 64, "velocity": 112, "channel": 0}, {"type": "note_off", "time": 260, "note": 64, "velocity": 112, "channel": 0}, {"type": "note_on", "time": 0, "note": 68, "velocity": 112, "channel": 0}, {"type": "note_off", "time": 424, "note": 68, "velocity": 112, "channel": 0}, {"type": "note_on", "time": 1432, "note": 58, "velocity": 105, "channel": 0}, {"type": "note_off", "time": 420, "note": 58, "velocity": 105, "channel": 0}, {"type": "note_on", "time": 126, "note": 60, "velocity": 106, "channel": 0}, {"type": "note_off", "time": 247, "note": 60, "velocity": 106, "channel": 0}, {"type": "note_on", "time": 21, "note": 62, "velocity": 109, "channel": 0}, {"type": "note_off", "time": 394, "note": 62, "velocity": 109, "channel": 0}, {"type": "note_on", "time": 1394, "note": 60, "velocity": 114, "channel": 0}, {"type": "note_on", "time": 495, "note": 65, "velocity": 114, "channel": 0}, {"type": "note_off", "time": 0, "note": 60, "velocity": 114, "channel": 0}, {"type": "note_off", "time": 293, "note": 65, "velocity": 114, "channel": 0}, {"type": "note_on", "time": 37, "note": 69, "velocity": 107, "channel": 0}, {"type": "note_off", "time": 504, "note": 69, "velocity": 107, "channel": 0}, {"type": "note_on", "time": 1335, "note": 63, "velocity": 116, "channel": 0}, {"type": "note_off", "time": 520, "note": 63, "velocity": 116, "channel": 0}, {"type": "note_on", "time": 21, "note": 66, "velocity": 105, "channel": 0}, {"type": "note_off", "time": 361, "note": 66, "velocity": 105, "channel": 0}, {"type": "note_on", "time": 109, "note": 70, "velocity": 92, "channel": 0}, {"type": "note_off", "time": 268, "note": 70, "velocity": 92, "channel": 0}, {"type": "note_on", "time": 617, "note": 62, "velocity": 109, "channel": 0}, {"type": "note_off", "time": 525, "note": 62, "velocity": 109, "channel": 0}, {"type": "note_on", "time": 0, "note": 66, "velocity": 83, "channel": 0}, {"type": "note_off", "time": 117, "note": 66, "velocity": 83, "channel": 0}, {"type": "note_on", "time": 16, "note": 68, "velocity": 106, "channel": 0}, {"type": "note_off", "time": 554, "note": 68, "velocity": 106, "channel": 0}, {"type": "note_on", "time": 1377, "note": 61, "velocity": 112, "channel": 0}, {"type": "note_off", "time": 474, "note": 61, "velocity": 112, "channel": 0}, {"type": "note_on", "time": 0, "note": 64, "velocity": 103, "channel": 0}, {"type": "note_off", "time": 289, "note": 64, "velocity": 103, "channel": 0}, {"type": "note_on", "time": 12, "note": 68, "velocity": 109, "channel": 0}, {"type": "note_off", "time": 457, "note": 68, "velocity": 109, "channel": 0}, {"type": "note_on", "time": 1322, "note": 58, "velocity": 100, "channel": 0}, {"type": "note_off", "time": 327, "note": 58, "velocity": 100, "channel": 0}, {"type": "note_on", "time": 46, "note": 60, "velocity": 103, "channel": 0}, {"type": "note_off", "time": 378, "note": 60, "velocity": 103, "channel": 0}, {"type": "note_on", "time": 0, "note": 64, "velocity": 113, "channel": 0}, {"type": "note_off", "time": 533, "note": 64, "velocity": 113, "channel": 0}, {"type": "note_on", "time": 1323, "note": 60, "velocity": 105, "channel": 0}, {"type": "note_off", "time": 499, "note": 60, "velocity": 105, "channel": 0}, {"type": "note_on", "time": 46, "note": 65, "velocity": 107, "channel": 0}, {"type": "note_off", "time": 344, "note": 65, "velocity": 107, "channel": 0}, {"type": "note_on", "time": 0, "note": 69, "velocity": 103, "channel": 0}, {"type": "note_off", "time": 424, "note": 69, "velocity": 103, "channel": 0}, {"type": "note_on", "time": 1411, "note": 60, "velocity": 110, "channel": 0}, {"type": "note_off", "time": 369, "note": 60, "velocity": 110, "channel": 0}, {"type": "note_on", "time": 71, "note": 65, "velocity": 104, "channel": 0}, {"type": "note_off", "time": 369, "note": 65, "velocity": 104, "channel": 0}, {"type": "note_on", "time": 46, "note": 69, "velocity": 105, "channel": 0}, {"type": "note_off", "time": 390, "note": 69, "velocity": 105, "channel": 0}, {"type": "note_on", "time": 33, "note": 71, "velocity": 103, "channel": 0}, {"type": "note_off", "time": 394, "note": 71, "velocity": 103, "channel": 0}, {"type": "note_on", "time": 0, "note": 68, "velocity": 104, "channel": 0}, {"type": "note_off", "time": 331, "note": 68, "velocity": 104, "channel": 0}, {"type": "note_on", "time": 155, "note": 66, "velocity": 108, "channel": 0}, {"type": "note_off", "time": 247, "note": 66, "velocity": 108, "channel": 0}, {"type": "note_on", "time": 0, "note": 63, "velocity": 106, "channel": 0}, {"type": "note_off", "time": 441, "note": 63, "velocity": 106, "channel": 0}, {"type": "note_on", "time": 470, "note": 64, "velocity": 112, "channel": 0}, {"type": "note_off", "time": 537, "note": 64, "velocity": 112, "channel": 0}, {"type": "note_on", "time": 25, "note": 67, "velocity": 103, "channel": 0}, {"type": "note_off", "time": 323, "note": 67, "velocity": 103, "channel": 0}, {"type": "note_on", "time": 4, "note": 71, "velocity": 104, "channel": 0}, {"type": "note_off", "time": 252, "note": 71, "velocity": 104, "channel": 0}, {"type": "note_on", "time": 1411, "note": 63, "velocity": 115, "channel": 0}, {"type": "note_on", "time": 516, "note": 65, "velocity": 101, "channel": 0}, {"type": "note_off", "time": 0, "note": 63, "velocity": 115, "channel": 0}, {"type": "note_off", "time": 218, "note": 65, "velocity": 101, "channel": 0}, {"type": "note_on", "time": 0, "note": 69, "velocity": 107, "channel": 0}, {"type": "note_off", "time": 441, "note": 69, "velocity": 107, "channel": 0}, {"type": "note_on", "time": 1301, "note": 62, "velocity": 109, "channel": 0}, {"type": "note_off", "time": 592, "note": 62, "velocity": 109, "channel": 0}, {"type": "note_on", "time": 4, "note": 65, "velocity": 105, "channel": 0}, {"type": "note_off", "time": 310, "note": 65, "velocity": 105, "channel": 0}, {"type": "note_on", "time": 21, "note": 70, "velocity": 101, "channel": 0}, {"type": "note_off", "time": 344, "note": 70, "velocity": 101, "channel": 0}, {"type": "note_on", "time": 1558, "note": 63, "velocity": 113, "channel": 0}, {"type": "note_off", "time": 483, "note": 63, "velocity": 113, "channel": 0}, {"type": "note_on", "time": 33, "note": 68, "velocity": 94, "channel": 0}, {"type": "note_off", "time": 239, "note": 68, "velocity": 94, "channel": 0}, {"type": "note_on", "time": 29, "note": 71, "velocity": 98, "channel": 0}, {"type": "note_off", "time": 436, "note": 71, "velocity": 98, "channel": 0}, {"type": "note_on", "time": 1453, "note": 61, "velocity": 103, "channel": 0}, {"type": "note_off", "time": 357, "note": 61, "velocity": 103, "channel": 0}, {"type": "note_on", "time": 134, "note": 66, "velocity": 94, "channel": 0}, {"type": "note_off", "time": 239, "note": 66, "velocity": 94, "channel": 0}, {"type": "note_on", "time": 29, "note": 70, "velocity": 95, "channel": 0}, {"type": "note_off", "time": 340, "note": 70, "velocity": 95, "channel": 0}, {"type": "note_on", "time": 1436, "note": 64, "velocity": 105, "channel": 0}, {"type": "note_off", "time": 466, "note": 64, "velocity": 105, "channel": 0}, {"type": "note_on", "time": 16, "note": 67, "velocity": 98, "channel": 0}, {"type": "note_off", "time": 289, "note": 67, "velocity": 98, "channel": 0}, {"type": "note_on", "time": 84, "note": 71, "velocity": 96, "channel": 0}, {"type": "note_off", "time": 441, "note": 71, "velocity": 96, "channel": 0}, {"type": "note_on", "time": 1192, "note": 63, "velocity": 116, "channel": 0}, {"type": "note_off", "time": 525, "note": 63, "velocity": 116, "channel": 0}, {"type": "note_on", "time": 0, "note": 65, "velocity": 95, "channel": 0}, {"type": "note_off", "time": 117, "note": 65, "velocity": 95, "channel": 0}, {"type": "note_on", "time": 12, "note": 67, "velocity": 96, "channel": 0}, {"type": "note_off", "time": 155, "note": 67, "velocity": 96, "channel": 0}, {"type": "note_on", "time": 8, "note": 70, "velocity": 100, "channel": 0}, {"type": "note_off", "time": 495, "note": 70, "velocity": 100, "channel": 0}, {"type": "note_on", "time": 1440, "note": 61, "velocity": 99, "channel": 0}, {"type": "note_off", "time": 462, "note": 61, "velocity": 99, "channel": 0}, {"type": "note_on", "time": 54, "note": 66, "velocity": 92, "channel": 0}, {"type": "note_off", "time": 197, "note": 66, "velocity": 92, "channel": 0}, {"type": "note_on", "time": 84, "note": 70, "velocity": 93, "channel": 0}, {"type": "note_off", "time": 352, "note": 70, "velocity": 93, "channel": 0}, {"type": "note_on", "time": 1390, "note": 62, "velocity": 100, "channel": 0}, {"type": "note_off", "time": 445, "note": 62, "velocity": 100, "channel": 0}, {"type": "note_on", "time": 92, "note": 66, "velocity": 100, "channel": 0}, {"type": "note_off", "time": 214, "note": 66, "velocity": 100, "channel": 0}, {"type": "note_on", "time": 25, "note": 68, "velocity": 99, "channel": 0}, {"type": "note_off", "time": 319, "note": 68, "velocity": 99, "channel": 0}, {"type": "note_on", "time": 1512, "note": 64, "velocity": 103, "channel": 0}, {"type": "note_off", "time": 525, "note": 64, "velocity": 103, "channel": 0}, {"type": "note_on", "time": 0, "note": 68, "velocity": 96, "channel": 0}, {"type": "note_off", "time": 251, "note": 68, "velocity": 96, "channel": 0}, {"type": "note_on", "time": 84, "note": 71, "velocity": 99, "channel": 0}, {"type": "note_off", "time": 424, "note": 71, "velocity": 99, "channel": 0}, {"type": "note_on", "time": 92, "note": 69, "velocity": 96, "channel": 0}, {"type": "note_off", "time": 294, "note": 69, "velocity": 96, "channel": 0}, {"type": "note_on", "time": 21, "note": 65, "velocity": 102, "channel": 0}, {"type": "note_off", "time": 378, "note": 65, "velocity": 102, "channel": 0}, {"type": "note_on", "time": 71, "note": 62, "velocity": 100, "channel": 0}, {"type": "note_off", "time": 453, "note": 62, "velocity": 100, "channel": 0}, {"type": "note_on", "time": 33, "note": 65, "velocity": 101, "channel": 0}, {"type": "note_off", "time": 407, "note": 65, "velocity": 101, "channel": 0}, {"type": "note_on", "time": 1297, "note": 64, "velocity": 116, "channel": 0}, {"type": "note_off", "time": 483, "note": 64, "velocity": 116, "channel": 0}, {"type": "note_on", "time": 33, "note": 67, "velocity": 102, "channel": 0}, {"type": "note_off", "time": 218, "note": 67, "velocity": 102, "channel": 0}, {"type": "note_on", "time": 46, "note": 71, "velocity": 103, "channel": 0}, {"type": "note_off", "time": 247, "note": 71, "velocity": 103, "channel": 0}, {"type": "note_on", "time": 12, "note": 70, "velocity": 101, "channel": 0}, {"type": "note_off", "time": 109, "note": 70, "velocity": 101, "channel": 0}, {"type": "note_on", "time": 4, "note": 68, "velocity": 101, "channel": 0}, {"type": "note_off", "time": 63, "note": 68, "velocity": 101, "channel": 0}, {"type": "note_on", "time": 0, "note": 66, "velocity": 100, "channel": 0}, {"type": "note_off", "time": 33, "note": 66, "velocity": 100, "channel": 0}, {"type": "note_on", "time": 0, "note": 64, "velocity": 80, "channel": 0}, {"type": "note_off", "time": 21, "note": 64, "velocity": 80, "channel": 0}, {"type": "note_on", "time": 0, "note": 61, "velocity": 113, "channel": 0}, {"type": "note_off", "time": 352, "note": 61, "velocity": 113, "channel": 0}, {"type": "note_on", "time": 1108, "note": 61, "velocity": 105, "channel": 0}, {"type": "note_off", "time": 264, "note": 61, "velocity": 105, "channel": 0}, {"type": "note_on", "time": 88, "note": 63, "velocity": 108, "channel": 0}, {"type": "note_off", "time": 289, "note": 63, "velocity": 108, "channel": 0}, {"type": "note_on", "time": 37, "note": 67, "velocity": 93, "channel": 0}, {"type": "note_off", "time": 231, "note": 67, "velocity": 93, "channel": 0}, {"type": "note_on", "time": 1407, "note": 60, "velocity": 107, "channel": 0}, {"type": "note_off", "time": 432, "note": 60, "velocity": 107, "channel": 0}, {"type": "note_on", "time": 0, "note": 64, "velocity": 110, "channel": 0}, {"type": "note_off", "time": 403, "note": 64, "velocity": 110, "channel": 0}, {"type": "note_on", "time": 0, "note": 68, "velocity": 104, "channel": 0}, {"type": "note_off", "time": 340, "note": 68, "velocity": 104, "channel": 0}, {"type": "note_on", "time": 201, "note": 71, "velocity": 103, "channel": 0}, {"type": "note_off", "time": 344, "note": 71, "velocity": 103, "channel": 0}, {"type": "note_on", "time": 25, "note": 64, "velocity": 109, "channel": 0}, {"type": "note_off", "time": 445, "note": 64, "velocity": 109, "channel": 0}, {"type": "note_on", "time": 0, "note": 66, "velocity": 99, "channel": 0}, {"type": "note_off", "time": 319, "note": 66, "velocity": 99, "channel": 0}, {"type": "note_on", "time": 0, "note": 68, "velocity": 101, "channel": 0}, {"type": "note_off", "time": 331, "note": 68, "velocity": 101, "channel": 0}, {"type": "note_on", "time": 25, "note": 71, "velocity": 101, "channel": 0}, {"type": "note_off", "time": 365, "note": 71, "velocity": 101, "channel": 0}, {"type": "note_on", "time": 50, "note": 64, "velocity": 96, "channel": 0}, {"type": "note_off", "time": 336, "note": 64, "velocity": 96, "channel": 0}, {"type": "note_on", "time": 1730, "note": 64, "velocity": 110, "channel": 0}, {"type": "note_off", "time": 415, "note": 64, "velocity": 110, "channel": 0}, {"type": "note_on", "time": 0, "note": 68, "velocity": 100, "channel": 0}, {"type": "note_off", "time": 268, "note": 68, "velocity": 100, "channel": 0}, {"type": "note_on", "time": 33, "note": 70, "velocity": 104, "channel": 0}, {"type": "note_off", "time": 415, "note": 70, "velocity": 104, "channel": 0}, {"type": "note_on", "time": 168, "note": 73, "velocity": 108, "channel": 0}, {"type": "note_off", "time": 356, "note": 73, "velocity": 108, "channel": 0}, {"type": "note_on", "time": 12, "note": 71, "velocity": 106, "channel": 0}, {"type": "note_off", "time": 407, "note": 71, "velocity": 106, "channel": 0}, {"type": "note_on", "time": 1373, "note": 61, "velocity": 109, "channel": 0}, {"type": "note_off", "time": 470, "note": 61, "velocity": 109, "channel": 0}, {"type": "note_on", "time": 449, "note": 66, "velocity": 102, "channel": 0}, {"type": "note_off", "time": 428, "note": 66, "velocity": 102, "channel": 0}, {"type": "note_on", "time": 25, "note": 67, "velocity": 103, "channel": 0}, {"type": "note_off", "time": 256, "note": 67, "velocity": 103, "channel": 0}, {"type": "note_on", "time": 16, "note": 66, "velocity": 115, "channel": 0}, {"type": "note_off", "time": 71, "note": 66, "velocity": 115, "channel": 0}, {"type": "note_on", "time": 0, "note": 65, "velocity": 112, "channel": 0}, {"type": "note_off", "time": 58, "note": 65, "velocity": 112, "channel": 0}, {"type": "note_on", "time": 16, "note": 63, "velocity": 110, "channel": 0}, {"type": "note_off", "time": 420, "note": 63, "velocity": 110, "channel": 0}, {"type": "note_on", "time": 25, "note": 61, "velocity": 103, "channel": 0}, {"type": "note_off", "time": 373, "note": 61, "velocity": 103, "channel": 0}, {"type": "note_on", "time": 83, "note": 59, "velocity": 95, "channel": 0}, {"type": "note_off", "time": 361, "note": 59, "velocity": 95, "channel": 0}, {"type": "note_on", "time": 29, "note": 58, "velocity": 100, "channel": 0}, {"type": "note_off", "time": 424, "note": 58, "velocity": 100, "channel": 0}, {"type": "note_on", "time": 0, "note": 57, "velocity": 105, "channel": 0}, {"type": "note_off", "time": 323, "note": 57, "velocity": 105, "channel": 0}, {"type": "note_on", "time": 29, "note": 56, "velocity": 103, "channel": 0}, {"type": "note_off", "time": 407, "note": 56, "velocity": 103, "channel": 0}, {"type": "note_on", "time": 50, "note": 55, "velocity": 107, "channel": 0}, {"type": "note_off", "time": 495, "note": 55, "velocity": 107, "channel": 0}, {"type": "note_on", "time": 29, "note": 59, "velocity": 99, "channel": 0}, {"type": "note_off", "time": 235, "note": 59, "velocity": 99, "channel": 0}, {"type": "note_on", "time": 79, "note": 57, "velocity": 100, "channel": 0}, {"type": "note_off", "time": 298, "note": 57, "velocity": 100, "channel": 0}, {"type": "note_on", "time": 96, "note": 53, "velocity": 102, "channel": 0}, {"type": "note_off", "time": 436, "note": 53, "velocity": 102, "channel": 0}, {"type": "note_on", "time": 0, "note": 50, "velocity": 108, "channel": 0}, {"type": "note_off", "time": 373, "note": 50, "velocity": 108, "channel": 0}, {"type": "note_on", "time": 79, "note": 55, "velocity": 98, "channel": 0}, {"type": "note_off", "time": 352, "note": 55, "velocity": 98, "channel": 0}, {"type": "note_on", "time": 16, "note": 53, "velocity": 100, "channel": 0}, {"type": "note_off", "time": 142, "note": 53, "velocity": 100, "channel": 0}, {"type": "note_on", "time": 21, "note": 50, "velocity": 98, "channel": 0}, {"type": "note_off", "time": 428, "note": 50, "velocity": 98, "channel": 0}, {"type": "note_on", "time": 0, "note": 53, "velocity": 105, "channel": 0}, {"type": "note_off", "time": 289, "note": 53, "velocity": 105, "channel": 0}, {"type": "note_on", "time": 50, "note": 57, "velocity": 106, "channel": 0}, {"type": "note_off", "time": 310, "note": 57, "velocity": 106, "channel": 0}, {"type": "note_on", "time": 88, "note": 60, "velocity": 99, "channel": 0}, {"type": "note_off", "time": 470, "note": 60, "velocity": 99, "channel": 0}, {"type": "note_on", "time": 33, "note": 55, "velocity": 94, "channel": 0}, {"type": "note_off", "time": 407, "note": 55, "velocity": 94, "channel": 0}, {"type": "note_on", "time": 2679, "note": 65, "velocity": 104, "channel": 0}, {"type": "note_off", "time": 239, "note": 65, "velocity": 104, "channel": 0}, {"type": "note_on", "time": 25, "note": 66, "velocity": 105, "channel": 0}, {"type": "note_off", "time": 231, "note": 66, "velocity": 105, "channel": 0}, {"type": "note_on", "time": 20, "note": 67, "velocity": 105, "channel": 0}, {"type": "note_off", "time": 1197, "note": 67, "velocity": 105, "channel": 0}, {"type": "note_on", "time": 529, "note": 67, "velocity": 104, "channel": 0}, {"type": "note_off", "time": 546, "note": 67, "velocity": 104, "channel": 0}, {"type": "note_on", "time": 294, "note": 67, "velocity": 105, "channel": 0}, {"type": "note_off", "time": 483, "note": 67, "velocity": 105, "channel": 0}, {"type": "note_on", "time": 46, "note": 71, "velocity": 108, "channel": 0}, {"type": "note_off", "time": 184, "note": 71, "velocity": 108, "channel": 0}, {"type": "note_on", "time": 37, "note": 70, "velocity": 106, "channel": 0}, {"type": "note_off", "time": 512, "note": 70, "velocity": 106, "channel": 0}, {"type": "note_on", "time": 1499, "note": 63, "velocity": 108, "channel": 0}, {"type": "note_off", "time": 399, "note": 63, "velocity": 108, "channel": 0}, {"type": "note_on", "time": 46, "note": 66, "velocity": 101, "channel": 0}, {"type": "note_off", "time": 378, "note": 66, "velocity": 101, "channel": 0}, {"type": "note_on", "time": 20, "note": 70, "velocity": 94, "channel": 0}, {"type": "note_off", "time": 323, "note": 70, "velocity": 94, "channel": 0}, {"type": "note_on", "time": 33, "note": 71, "velocity": 102, "channel": 0}, {"type": "note_off", "time": 281, "note": 71, "velocity": 102, "channel": 0}, {"type": "note_on", "time": 16, "note": 68, "velocity": 107, "channel": 0}, {"type": "note_off", "time": 457, "note": 68, "velocity": 107, "channel": 0}, {"type": "note_on", "time": 1335, "note": 61, "velocity": 102, "channel": 0}, {"type": "note_off", "time": 403, "note": 61, "velocity": 102, "channel": 0}, {"type": "note_on", "time": 50, "note": 65, "velocity": 102, "channel": 0}, {"type": "note_off", "time": 474, "note": 65, "velocity": 102, "channel": 0}, {"type": "note_on", "time": 62, "note": 68, "velocity": 101, "channel": 0}, {"type": "note_off", "time": 294, "note": 68, "velocity": 101, "channel": 0}, {"type": "note_on", "time": 25, "note": 71, "velocity": 107, "channel": 0}, {"type": "note_off", "time": 306, "note": 71, "velocity": 107, "channel": 0}, {"type": "note_on", "time": 16, "note": 68, "velocity": 107, "channel": 0}, {"type": "note_off", "time": 273, "note": 68, "velocity": 107, "channel": 0}, {"type": "note_on", "time": 8, "note": 62, "velocity": 103, "channel": 0}, {"type": "note_off", "time": 289, "note": 62, "velocity": 103, "channel": 0}, {"type": "note_on", "time": 1478, "note": 62, "velocity": 101, "channel": 0}, {"type": "note_off", "time": 294, "note": 62, "velocity": 101, "channel": 0}, {"type": "note_on", "time": 117, "note": 65, "velocity": 89, "channel": 0}, {"type": "note_off", "time": 176, "note": 65, "velocity": 89, "channel": 0}, {"type": "note_on", "time": 42, "note": 68, "velocity": 98, "channel": 0}, {"type": "note_off", "time": 541, "note": 68, "velocity": 98, "channel": 0}, {"type": "note_on", "time": 92, "note": 71, "velocity": 105, "channel": 0}, {"type": "note_off", "time": 310, "note": 71, "velocity": 105, "channel": 0}, {"type": "note_on", "time": 0, "note": 67, "velocity": 114, "channel": 0}, {"type": "note_off", "time": 604, "note": 67, "velocity": 114, "channel": 0}, {"type": "note_on", "time": 37, "note": 71, "velocity": 97, "channel": 0}, {"type": "note_off", "time": 306, "note": 71, "velocity": 97, "channel": 0}, {"type": "note_on", "time": 42, "note": 68, "velocity": 102, "channel": 0}, {"type": "note_off", "time": 315, "note": 68, "velocity": 102, "channel": 0}, {"type": "note_on", "time": 159, "note": 71, "velocity": 106, "channel": 0}, {"type": "note_off", "time": 310, "note": 71, "velocity": 106, "channel": 0}, {"type": "note_on", "time": 0, "note": 70, "velocity": 103, "channel": 0}, {"type": "note_off", "time": 520, "note": 70, "velocity": 103, "channel": 0}, {"type": "note_on", "time": 12, "note": 69, "velocity": 102, "channel": 0}, {"type": "note_off", "time": 302, "note": 69, "velocity": 102, "channel": 0}, {"type": "note_on", "time": 29, "note": 70, "velocity": 101, "channel": 0}, {"type": "note_off", "time": 424, "note": 70, "velocity": 101, "channel": 0}, {"type": "note_on", "time": 58, "note": 71, "velocity": 101, "channel": 0}, {"type": "note_off", "time": 197, "note": 71, "velocity": 101, "channel": 0}, {"type": "note_on", "time": 155, "note": 64, "velocity": 108, "channel": 0}, {"type": "note_off", "time": 420, "note": 64, "velocity": 108, "channel": 0}, {"type": "note_on", "time": 1440, "note": 64, "velocity": 111, "channel": 0}, {"type": "note_off", "time": 461, "note": 64, "velocity": 111, "channel": 0}, {"type": "note_on", "time": 37, "note": 65, "velocity": 105, "channel": 0}, {"type": "note_off", "time": 289, "note": 65, "velocity": 105, "channel": 0}, {"type": "note_on", "time": 42, "note": 69, "velocity": 93, "channel": 0}, {"type": "note_off", "time": 403, "note": 69, "velocity": 93, "channel": 0}, {"type": "note_on", "time": 63, "note": 71, "velocity": 103, "channel": 0}, {"type": "note_off", "time": 310, "note": 71, "velocity": 103, "channel": 0}, {"type": "note_on", "time": 0, "note": 70, "velocity": 103, "channel": 0}, {"type": "note_off", "time": 113, "note": 70, "velocity": 103, "channel": 0}, {"type": "note_on", "time": 42, "note": 67, "velocity": 105, "channel": 0}, {"type": "note_off", "time": 369, "note": 67, "velocity": 105, "channel": 0}, {"type": "note_on", "time": 33, "note": 70, "velocity": 97, "channel": 0}, {"type": "note_off", "time": 323, "note": 70, "velocity": 97, "channel": 0}, {"type": "note_on", "time": 550, "note": 69, "velocity": 93, "channel": 0}, {"type": "note_off", "time": 226, "note": 69, "velocity": 93, "channel": 0}, {"type": "note_on", "time": 37, "note": 74, "velocity": 101, "channel": 0}, {"type": "note_off", "time": 378, "note": 74, "velocity": 101, "channel": 0}, {"type": "note_on", "time": 50, "note": 73, "velocity": 99, "channel": 0}, {"type": "note_off", "time": 390, "note": 73, "velocity": 99, "channel": 0}, {"type": "note_on", "time": 88, "note": 69, "velocity": 97, "channel": 0}, {"type": "note_off", "time": 424, "note": 69, "velocity": 97, "channel": 0}, {"type": "note_on", "time": 50, "note": 71, "velocity": 107, "channel": 0}, {"type": "note_off", "time": 352, "note": 71, "velocity": 107, "channel": 0}, {"type": "note_on", "time": 67, "note": 65, "velocity": 110, "channel": 0}, {"type": "note_off", "time": 1355, "note": 65, "velocity": 110, "channel": 0}, {"type": "note_on", "time": 59, "note": 67, "velocity": 105, "channel": 0}, {"type": "note_off", "time": 412, "note": 67, "velocity": 105, "channel": 0}, {"type": "note_on", "time": 0, "note": 64, "velocity": 114, "channel": 0}, {"type": "note_off", "time": 459, "note": 64, "velocity": 114, "channel": 0}, {"type": "note_on", "time": 59, "note": 60, "velocity": 107, "channel": 0}, {"type": "note_off", "time": 280, "note": 60, "velocity": 107, "channel": 0}, {"type": "note_on", "time": 89, "note": 57, "velocity": 105, "channel": 0}, {"type": "note_off", "time": 394, "note": 57, "velocity": 105, "channel": 0}, {"type": "note_on", "time": 0, "note": 53, "velocity": 106, "channel": 0}, {"type": "note_off", "time": 430, "note": 53, "velocity": 106, "channel": 0}, {"type": "note_on", "time": 11, "note": 52, "velocity": 108, "channel": 0}, {"type": "note_off", "time": 436, "note": 52, "velocity": 108, "channel": 0}, {"type": "note_on", "time": 2341, "note": 60, "velocity": 95, "channel": 0}, {"type": "note_off", "time": 424, "note": 60, "velocity": 95, "channel": 0}, {"type": "note_on", "time": 55, "note": 65, "velocity": 99, "channel": 0}, {"type": "note_off", "time": 336, "note": 65, "velocity": 99, "channel": 0}, {"type": "note_on", "time": 205, "note": 60, "velocity": 95, "channel": 0}, {"type": "note_off", "time": 752, "note": 60, "velocity": 95, "channel": 0}, {"type": "note_on", "time": 149, "note": 60, "velocity": 94, "channel": 0}, {"type": "note_off", "time": 167, "note": 60, "velocity": 94, "channel": 0}, {"type": "note_on", "time": 0, "note": 66, "velocity": 107, "channel": 0}, {"type": "note_off", "time": 376, "note": 66, "velocity": 107, "channel": 0}, {"type": "note_on", "time": 11, "note": 63, "velocity": 113, "channel": 0}, {"type": "note_off", "time": 633, "note": 63, "velocity": 113, "channel": 0}, {"type": "note_on", "time": 17, "note": 66, "velocity": 105, "channel": 0}, {"type": "note_on", "time": 226, "note": 69, "velocity": 108, "channel": 0}, {"type": "note_off", "time": 0, "note": 66, "velocity": 105, "channel": 0}, {"type": "note_off", "time": 400, "note": 69, "velocity": 108, "channel": 0}, {"type": "note_on", "time": 5, "note": 67, "velocity": 109, "channel": 0}, {"type": "note_off", "time": 645, "note": 67, "velocity": 109, "channel": 0}, {"type": "note_on", "time": 0, "note": 69, "velocity": 101, "channel": 0}, {"type": "note_off", "time": 310, "note": 69, "velocity": 101, "channel": 0}, {"type": "note_on", "time": 119, "note": 67, "velocity": 111, "channel": 0}, {"type": "note_off", "time": 489, "note": 67, "velocity": 111, "channel": 0}, {"type": "note_on", "time": 0, "note": 63, "velocity": 99, "channel": 0}, {"type": "note_off", "time": 286, "note": 63, "velocity": 99, "channel": 0}, {"type": "note_on", "time": 101, "note": 70, "velocity": 99, "channel": 0}, {"type": "note_off", "time": 370, "note": 70, "velocity": 99, "channel": 0}, {"type": "note_on", "time": 11, "note": 65, "velocity": 99, "channel": 0}, {"type": "note_off", "time": 430, "note": 65, "velocity": 99, "channel": 0}, {"type": "note_on", "time": 53, "note": 61, "velocity": 100, "channel": 0}, {"type": "note_off", "time": 459, "note": 61, "velocity": 100, "channel": 0}, {"type": "note_on", "time": 56, "note": 58, "velocity": 93, "channel": 0}, {"type": "note_off", "time": 302, "note": 58, "velocity": 93, "channel": 0}, {"type": "note_on", "time": 109, "note": 54, "velocity": 100, "channel": 0}, {"type": "note_off", "time": 319, "note": 54, "velocity": 100, "channel": 0}, {"type": "note_on", "time": 25, "note": 53, "velocity": 105, "channel": 0}, {"type": "note_off", "time": 881, "note": 53, "velocity": 105, "channel": 0}, {"type": "note_on", "time": 2633, "note": 68, "velocity": 100, "channel": 0}, {"type": "note_off", "time": 1289, "note": 68, "velocity": 100, "channel": 0}, {"type": "note_on", "time": 504, "note": 60, "velocity": 101, "channel": 0}, {"type": "note_off", "time": 168, "note": 60, "velocity": 101, "channel": 0}, {"type": "note_on", "time": 33, "note": 72, "velocity": 105, "channel": 0}, {"type": "note_off", "time": 831, "note": 72, "velocity": 105, "channel": 0}, {"type": "note_on", "time": 159, "note": 70, "velocity": 104, "channel": 0}, {"type": "note_off", "time": 2066, "note": 70, "velocity": 104, "channel": 0}, {"type": "note_on", "time": 50, "note": 68, "velocity": 105, "channel": 0}, {"type": "note_off", "time": 394, "note": 68, "velocity": 105, "channel": 0}, {"type": "note_on", "time": 33, "note": 70, "velocity": 103, "channel": 0}, {"type": "note_off", "time": 369, "note": 70, "velocity": 103, "channel": 0}, {"type": "note_on", "time": 16, "note": 68, "velocity": 99, "channel": 0}, {"type": "note_off", "time": 394, "note": 68, "velocity": 99, "channel": 0}, {"type": "note_on", "time": 117, "note": 65, "velocity": 101, "channel": 0}, {"type": "note_off", "time": 327, "note": 65, "velocity": 101, "channel": 0}, {"type": "note_on", "time": 42, "note": 63, "velocity": 101, "channel": 0}, {"type": "note_off", "time": 470, "note": 63, "velocity": 101, "channel": 0}, {"type": "note_on", "time": 25, "note": 61, "velocity": 95, "channel": 0}, {"type": "note_off", "time": 294, "note": 61, "velocity": 95, "channel": 0}, {"type": "note_on", "time": 100, "note": 58, "velocity": 97, "channel": 0}, {"type": "note_off", "time": 361, "note": 58, "velocity": 97, "channel": 0}, {"type": "note_on", "time": 126, "note": 54, "velocity": 100, "channel": 0}, {"type": "note_off", "time": 361, "note": 54, "velocity": 100, "channel": 0}, {"type": "note_on", "time": 117, "note": 53, "velocity": 99, "channel": 0}, {"type": "note_off", "time": 1461, "note": 53, "velocity": 99, "channel": 0}, {"type": "note_on", "time": 100, "note": 51, "velocity": 101, "channel": 0}, {"type": "note_off", "time": 319, "note": 51, "velocity": 101, "channel": 0}, {"type": "note_on", "time": 25, "note": 56, "velocity": 99, "channel": 0}, {"type": "note_off", "time": 352, "note": 56, "velocity": 99, "channel": 0}, {"type": "note_on", "time": 42, "note": 51, "velocity": 103, "channel": 0}, {"type": "note_off", "time": 462, "note": 51, "velocity": 103, "channel": 0}, {"type": "note_on", "time": 2562, "note": 63, "velocity": 106, "channel": 0}, {"type": "note_off", "time": 386, "note": 63, "velocity": 106, "channel": 0}, {"type": "note_on", "time": 84, "note": 66, "velocity": 91, "channel": 0}, {"type": "note_off", "time": 149, "note": 66, "velocity": 91, "channel": 0}, {"type": "note_on", "time": 95, "note": 68, "velocity": 93, "channel": 0}, {"type": "note_off", "time": 406, "note": 68, "velocity": 93, "channel": 0}, {"type": "note_on", "time": 173, "note": 72, "velocity": 101, "channel": 0}, {"type": "note_off", "time": 268, "note": 72, "velocity": 101, "channel": 0}, {"type": "note_on", "time": 0, "note": 71, "velocity": 104, "channel": 0}, {"type": "note_off", "time": 262, "note": 71, "velocity": 104, "channel": 0}, {"type": "note_on", "time": 29, "note": 69, "velocity": 99, "channel": 0}, {"type": "note_off", "time": 388, "note": 69, "velocity": 99, "channel": 0}, {"type": "note_on", "time": 77, "note": 65, "velocity": 104, "channel": 0}, {"type": "note_off", "time": 376, "note": 65, "velocity": 104, "channel": 0}, {"type": "note_on", "time": 23, "note": 64, "velocity": 108, "channel": 0}, {"type": "note_off", "time": 394, "note": 64, "velocity": 108, "channel": 0}, {"type": "note_on", "time": 71, "note": 60, "velocity": 106, "channel": 0}, {"type": "note_off", "time": 316, "note": 60, "velocity": 106, "channel": 0}, {"type": "note_on", "time": 6, "note": 57, "velocity": 101, "channel": 0}, {"type": "note_off", "time": 1313, "note": 57, "velocity": 101, "channel": 0}, {"type": "note_on", "time": 0, "note": 60, "velocity": 97, "channel": 0}, {"type": "note_off", "time": 226, "note": 60, "velocity": 97, "channel": 0}, {"type": "note_on", "time": 35, "note": 59, "velocity": 97, "channel": 0}, {"type": "note_off", "time": 191, "note": 59, "velocity": 97, "channel": 0}, {"type": "note_on", "time": 23, "note": 57, "velocity": 101, "channel": 0}, {"type": "note_off", "time": 424, "note": 57, "velocity": 101, "channel": 0}, {"type": "note_on", "time": 0, "note": 53, "velocity": 99, "channel": 0}, {"type": "note_off", "time": 280, "note": 53, "velocity": 99, "channel": 0}, {"type": "note_on", "time": 77, "note": 52, "velocity": 102, "channel": 0}, {"type": "note_off", "time": 686, "note": 52, "velocity": 102, "channel": 0}, {"type": "note_on", "time": 2472, "note": 73, "velocity": 106, "channel": 0}, {"type": "note_off", "time": 274, "note": 73, "velocity": 106, "channel": 0}, {"type": "note_on", "time": 81, "note": 71, "velocity": 104, "channel": 0}, {"type": "note_off", "time": 226, "note": 71, "velocity": 104, "channel": 0}, {"type": "note_on", "time": 104, "note": 71, "velocity": 102, "channel": 0}, {"type": "note_off", "time": 205, "note": 71, "velocity": 102, "channel": 0}, {"type": "note_on", "time": 25, "note": 67, "velocity": 105, "channel": 0}, {"type": "note_off", "time": 275, "note": 67, "velocity": 105, "channel": 0}, {"type": "note_on", "time": 0, "note": 64, "velocity": 109, "channel": 0}, {"type": "note_off", "time": 1164, "note": 64, "velocity": 109, "channel": 0}, {"type": "note_on", "time": 180, "note": 60, "velocity": 94, "channel": 0}, {"type": "note_off", "time": 277, "note": 60, "velocity": 94, "channel": 0}, {"type": "note_on", "time": 88, "note": 59, "velocity": 92, "channel": 0}, {"type": "note_off", "time": 327, "note": 59, "velocity": 92, "channel": 0}, {"type": "note_on", "time": 4, "note": 62, "velocity": 105, "channel": 0}, {"type": "note_off", "time": 285, "note": 62, "velocity": 105, "channel": 0}, {"type": "note_on", "time": 0, "note": 61, "velocity": 105, "channel": 0}, {"type": "note_off", "time": 109, "note": 61, "velocity": 105, "channel": 0}, {"type": "note_on", "time": 167, "note": 55, "velocity": 95, "channel": 0}, {"type": "note_off", "time": 848, "note": 55, "velocity": 95, "channel": 0}, {"type": "note_on", "time": 2650, "note": 74, "velocity": 98, "channel": 0}, {"type": "note_off", "time": 298, "note": 74, "velocity": 98, "channel": 0}, {"type": "note_on", "time": 192, "note": 68, "velocity": 97, "channel": 0}, {"type": "note_off", "time": 352, "note": 68, "velocity": 97, "channel": 0}, {"type": "note_on", "time": 17, "note": 69, "velocity": 102, "channel": 0}, {"type": "note_off", "time": 1128, "note": 69, "velocity": 102, "channel": 0}, {"type": "note_on", "time": 122, "note": 71, "velocity": 103, "channel": 0}, {"type": "note_off", "time": 298, "note": 71, "velocity": 103, "channel": 0}, {"type": "note_on", "time": 105, "note": 67, "velocity": 92, "channel": 0}, {"type": "note_off", "time": 415, "note": 67, "velocity": 92, "channel": 0}, {"type": "note_on", "time": 84, "note": 62, "velocity": 98, "channel": 0}, {"type": "note_off", "time": 310, "note": 62, "velocity": 98, "channel": 0}, {"type": "note_on", "time": 151, "note": 60, "velocity": 94, "channel": 0}, {"type": "note_off", "time": 294, "note": 60, "velocity": 94, "channel": 0}, {"type": "note_on", "time": 100, "note": 59, "velocity": 85, "channel": 0}, {"type": "note_off", "time": 760, "note": 59, "velocity": 85, "channel": 0}, {"type": "note_on", "time": 3181, "note": 74, "velocity": 91, "channel": 0}, {"type": "note_off", "time": 1541, "note": 74, "velocity": 91, "channel": 0}, {"type": "note_on", "time": 83, "note": 69, "velocity": 93, "channel": 0}, {"type": "note_off", "time": 418, "note": 69, "velocity": 93, "channel": 0}, {"type": "note_on", "time": 139, "note": 65, "velocity": 100, "channel": 0}, {"type": "note_off", "time": 231, "note": 65, "velocity": 100, "channel": 0}, {"type": "note_on", "time": 71, "note": 64, "velocity": 103, "channel": 0}, {"type": "note_off", "time": 453, "note": 64, "velocity": 103, "channel": 0}, {"type": "note_on", "time": 75, "note": 67, "velocity": 93, "channel": 0}, {"type": "note_off", "time": 348, "note": 67, "velocity": 93, "channel": 0}, {"type": "note_on", "time": 54, "note": 62, "velocity": 97, "channel": 0}, {"type": "note_off", "time": 407, "note": 62, "velocity": 97, "channel": 0}, {"type": "note_on", "time": 100, "note": 60, "velocity": 100, "channel": 0}, {"type": "note_off", "time": 302, "note": 60, "velocity": 100, "channel": 0}, {"type": "note_on", "time": 54, "note": 59, "velocity": 100, "channel": 0}, {"type": "note_off", "time": 478, "note": 59, "velocity": 100, "channel": 0}, {"type": "note_on", "time": 2385, "note": 67, "velocity": 98, "channel": 0}, {"type": "note_off", "time": 273, "note": 67, "velocity": 98, "channel": 0}, {"type": "note_on", "time": 0, "note": 73, "velocity": 104, "channel": 0}, {"type": "note_off", "time": 117, "note": 73, "velocity": 104, "channel": 0}, {"type": "note_on", "time": 0, "note": 74, "velocity": 95, "channel": 0}, {"type": "note_off", "time": 1180, "note": 74, "velocity": 95, "channel": 0}, {"type": "note_on", "time": 0, "note": 67, "velocity": 96, "channel": 0}, {"type": "note_off", "time": 117, "note": 67, "velocity": 96, "channel": 0}, {"type": "note_on", "time": 29, "note": 69, "velocity": 98, "channel": 0}, {"type": "note_off", "time": 352, "note": 69, "velocity": 98, "channel": 0}, {"type": "note_on", "time": 54, "note": 65, "velocity": 104, "channel": 0}, {"type": "note_off", "time": 352, "note": 65, "velocity": 104, "channel": 0}, {"type": "note_on", "time": 12, "note": 64, "velocity": 105, "channel": 0}, {"type": "note_off", "time": 415, "note": 64, "velocity": 105, "channel": 0}, {"type": "note_on", "time": 33, "note": 67, "velocity": 102, "channel": 0}, {"type": "note_off", "time": 344, "note": 67, "velocity": 102, "channel": 0}, {"type": "note_on", "time": 58, "note": 61, "velocity": 98, "channel": 0}, {"type": "note_off", "time": 487, "note": 61, "velocity": 98, "channel": 0}, {"type": "note_on", "time": 25, "note": 60, "velocity": 101, "channel": 0}, {"type": "note_off", "time": 357, "note": 60, "velocity": 101, "channel": 0}, {"type": "note_on", "time": 50, "note": 59, "velocity": 96, "channel": 0}, {"type": "note_off", "time": 483, "note": 59, "velocity": 96, "channel": 0}, {"type": "note_on", "time": 2007, "note": 71, "velocity": 102, "channel": 0}, {"type": "note_off", "time": 1105, "note": 71, "velocity": 102, "channel": 0}, {"type": "note_on", "time": 66, "note": 72, "velocity": 93, "channel": 0}, {"type": "note_off", "time": 504, "note": 72, "velocity": 93, "channel": 0}, {"type": "note_on", "time": 8, "note": 69, "velocity": 96, "channel": 0}, {"type": "note_off", "time": 424, "note": 69, "velocity": 96, "channel": 0}, {"type": "note_on", "time": 16, "note": 65, "velocity": 101, "channel": 0}, {"type": "note_off", "time": 302, "note": 65, "velocity": 101, "channel": 0}, {"type": "note_on", "time": 37, "note": 64, "velocity": 106, "channel": 0}, {"type": "note_off", "time": 525, "note": 64, "velocity": 106, "channel": 0}, {"type": "note_on", "time": 12, "note": 67, "velocity": 101, "channel": 0}, {"type": "note_off", "time": 189, "note": 67, "velocity": 101, "channel": 0}, {"type": "note_on", "time": 12, "note": 66, "velocity": 103, "channel": 0}, {"type": "note_off", "time": 184, "note": 66, "velocity": 103, "channel": 0}, {"type": "note_on", "time": 25, "note": 64, "velocity": 107, "channel": 0}, {"type": "note_off", "time": 499, "note": 64, "velocity": 107, "channel": 0}, {"type": "note_on", "time": 0, "note": 60, "velocity": 102, "channel": 0}, {"type": "note_off", "time": 331, "note": 60, "velocity": 102, "channel": 0}, {"type": "note_on", "time": 25, "note": 59, "velocity": 99, "channel": 0}, {"type": "note_off", "time": 428, "note": 59, "velocity": 99, "channel": 0}, {"type": "note_on", "time": 83, "note": 57, "velocity": 100, "channel": 0}, {"type": "note_off", "time": 537, "note": 57, "velocity": 100, "channel": 0}, {"type": "note_on", "time": 3234, "note": 69, "velocity": 96, "channel": 0}, {"type": "note_off", "time": 411, "note": 69, "velocity": 96, "channel": 0}, {"type": "note_on", "time": 126, "note": 67, "velocity": 100, "channel": 0}, {"type": "note_off", "time": 285, "note": 67, "velocity": 100, "channel": 0}, {"type": "note_on", "time": 42, "note": 65, "velocity": 98, "channel": 0}, {"type": "note_off", "time": 453, "note": 65, "velocity": 98, "channel": 0}, {"type": "note_on", "time": 42, "note": 62, "velocity": 96, "channel": 0}, {"type": "note_off", "time": 466, "note": 62, "velocity": 96, "channel": 0}, {"type": "note_on", "time": 33, "note": 60, "velocity": 95, "channel": 0}, {"type": "note_off", "time": 365, "note": 60, "velocity": 95, "channel": 0}, {"type": "note_on", "time": 79, "note": 59, "velocity": 99, "channel": 0}, {"type": "note_off", "time": 369, "note": 59, "velocity": 99, "channel": 0}, {"type": "note_on", "time": 71, "note": 62, "velocity": 108, "channel": 0}, {"type": "note_off", "time": 344, "note": 62, "velocity": 108, "channel": 0}, {"type": "note_on", "time": 25, "note": 59, "velocity": 101, "channel": 0}, {"type": "note_off", "time": 264, "note": 59, "velocity": 101, "channel": 0}, {"type": "note_on", "time": 8, "note": 57, "velocity": 101, "channel": 0}, {"type": "note_off", "time": 722, "note": 57, "velocity": 101, "channel": 0}, {"type": "note_on", "time": 2696, "note": 67, "velocity": 102, "channel": 0}, {"type": "note_off", "time": 411, "note": 67, "velocity": 102, "channel": 0}, {"type": "note_on", "time": 54, "note": 65, "velocity": 103, "channel": 0}, {"type": "note_off", "time": 390, "note": 65, "velocity": 103, "channel": 0}, {"type": "note_on", "time": 58, "note": 62, "velocity": 102, "channel": 0}, {"type": "note_off", "time": 441, "note": 62, "velocity": 102, "channel": 0}, {"type": "note_on", "time": 37, "note": 60, "velocity": 95, "channel": 0}, {"type": "note_off", "time": 411, "note": 60, "velocity": 95, "channel": 0}, {"type": "note_on", "time": 21, "note": 59, "velocity": 98, "channel": 0}, {"type": "note_off", "time": 357, "note": 59, "velocity": 98, "channel": 0}, {"type": "note_on", "time": 63, "note": 55, "velocity": 98, "channel": 0}, {"type": "note_off", "time": 310, "note": 55, "velocity": 98, "channel": 0}, {"type": "note_on", "time": 54, "note": 53, "velocity": 102, "channel": 0}, {"type": "note_off", "time": 495, "note": 53, "velocity": 102, "channel": 0}, {"type": "note_on", "time": 41, "note": 55, "velocity": 96, "channel": 0}, {"type": "note_off", "time": 394, "note": 55, "velocity": 96, "channel": 0}, {"type": "note_on", "time": 3467, "note": 66, "velocity": 102, "channel": 0}, {"type": "note_off", "time": 501, "note": 66, "velocity": 102, "channel": 0}, {"type": "note_on", "time": 23, "note": 65, "velocity": 104, "channel": 0}, {"type": "note_off", "time": 232, "note": 65, "velocity": 104, "channel": 0}, {"type": "note_on", "time": 35, "note": 64, "velocity": 108, "channel": 0}, {"type": "note_off", "time": 500, "note": 64, "velocity": 108, "channel": 0}, {"type": "note_on", "time": 0, "note": 67, "velocity": 102, "channel": 0}, {"type": "note_off", "time": 365, "note": 67, "velocity": 102, "channel": 0}, {"type": "note_on", "time": 0, "note": 64, "velocity": 112, "channel": 0}, {"type": "note_off", "time": 483, "note": 64, "velocity": 112, "channel": 0}, {"type": "note_on", "time": 109, "note": 60, "velocity": 107, "channel": 0}, {"type": "note_off", "time": 390, "note": 60, "velocity": 107, "channel": 0}, {"type": "note_on", "time": 0, "note": 57, "velocity": 100, "channel": 0}, {"type": "note_off", "time": 348, "note": 57, "velocity": 100, "channel": 0}, {"type": "note_on", "time": 62, "note": 53, "velocity": 104, "channel": 0}, {"type": "note_off", "time": 407, "note": 53, "velocity": 104, "channel": 0}, {"type": "note_on", "time": 46, "note": 52, "velocity": 104, "channel": 0}, {"type": "note_off", "time": 445, "note": 52, "velocity": 104, "channel": 0}, {"type": "note_on", "time": 3091, "note": 52, "velocity": 103, "channel": 0}, {"type": "note_off", "time": 386, "note": 52, "velocity": 103, "channel": 0}, {"type": "note_on", "time": 62, "note": 55, "velocity": 100, "channel": 0}, {"type": "note_off", "time": 315, "note": 55, "velocity": 100, "channel": 0}, {"type": "note_on", "time": 50, "note": 57, "velocity": 102, "channel": 0}, {"type": "note_off", "time": 382, "note": 57, "velocity": 102, "channel": 0}, {"type": "note_on", "time": 62, "note": 60, "velocity": 102, "channel": 0}, {"type": "note_off", "time": 483, "note": 60, "velocity": 102, "channel": 0}, {"type": "note_on", "time": 12, "note": 57, "velocity": 103, "channel": 0}, {"type": "note_off", "time": 398, "note": 57, "velocity": 103, "channel": 0}, {"type": "note_on", "time": 0, "note": 60, "velocity": 107, "channel": 0}, {"type": "note_off", "time": 331, "note": 60, "velocity": 107, "channel": 0}, {"type": "note_on", "time": 25, "note": 62, "velocity": 103, "channel": 0}, {"type": "note_off", "time": 415, "note": 62, "velocity": 103, "channel": 0}, {"type": "note_on", "time": 33, "note": 61, "velocity": 91, "channel": 0}, {"type": "note_off", "time": 151, "note": 61, "velocity": 91, "channel": 0}, {"type": "note_on", "time": 33, "note": 67, "velocity": 104, "channel": 0}, {"type": "note_off", "time": 432, "note": 67, "velocity": 104, "channel": 0}, {"type": "note_on", "time": 0, "note": 65, "velocity": 104, "channel": 0}, {"type": "note_off", "time": 130, "note": 65, "velocity": 104, "channel": 0}, {"type": "note_on", "time": 12, "note": 64, "velocity": 36, "channel": 0}, {"type": "note_off", "time": 478, "note": 64, "velocity": 36, "channel": 0}, {"type": "note_on", "time": 0, "note": 65, "velocity": 95, "channel": 0}, {"type": "note_off", "time": 239, "note": 65, "velocity": 95, "channel": 0}, {"type": "note_on", "time": 8, "note": 69, "velocity": 96, "channel": 0}, {"type": "note_off", "time": 474, "note": 69, "velocity": 96, "channel": 0}, {"type": "note_on", "time": 33, "note": 72, "velocity": 94, "channel": 0}, {"type": "note_off", "time": 378, "note": 72, "velocity": 94, "channel": 0}, {"type": "note_on", "time": 4, "note": 69, "velocity": 91, "channel": 0}, {"type": "note_off", "time": 462, "note": 69, "velocity": 91, "channel": 0}, {"type": "note_on", "time": 25, "note": 65, "velocity": 98, "channel": 0}, {"type": "note_off", "time": 340, "note": 65, "velocity": 98, "channel": 0}, {"type": "note_on", "time": 0, "note": 64, "velocity": 91, "channel": 0}, {"type": "note_off", "time": 478, "note": 64, "velocity": 91, "channel": 0}, {"type": "note_on", "time": 0, "note": 67, "velocity": 90, "channel": 0}, {"type": "note_off", "time": 331, "note": 67, "velocity": 90, "channel": 0}, {"type": "note_on", "time": 71, "note": 64, "velocity": 97, "channel": 0}, {"type": "note_off", "time": 415, "note": 64, "velocity": 97, "channel": 0}, {"type": "note_on", "time": 50, "note": 60, "velocity": 96, "channel": 0}, {"type": "note_off", "time": 403, "note": 60, "velocity": 96, "channel": 0}, {"type": "note_on", "time": 12, "note": 54, "velocity": 91, "channel": 0}, {"type": "note_on", "time": 428, "note": 53, "velocity": 95, "channel": 0}, {"type": "note_off", "time": 0, "note": 54, "velocity": 91, "channel": 0}, {"type": "note_off", "time": 415, "note": 53, "velocity": 95, "channel": 0}, {"type": "note_on", "time": 0, "note": 52, "velocity": 96, "channel": 0}, {"type": "note_off", "time": 428, "note": 52, "velocity": 96, "channel": 0}, {"type": "note_on", "time": 0, "note": 55, "velocity": 94, "channel": 0}, {"type": "note_off", "time": 323, "note": 55, "velocity": 94, "channel": 0}, {"type": "note_on", "time": 16, "note": 52, "velocity": 97, "channel": 0}, {"type": "note_off", "time": 420, "note": 52, "velocity": 97, "channel": 0}, {"type": "note_on", "time": 134, "note": 50, "velocity": 93, "channel": 0}, {"type": "note_off", "time": 399, "note": 50, "velocity": 93, "channel": 0}, {"type": "note_on", "time": 12, "note": 47, "velocity": 103, "channel": 0}, {"type": "note_off", "time": 657, "note": 47, "velocity": 103, "channel": 0}, {"type": "note_on", "time": 4462, "note": 45, "velocity": 105, "channel": 0}, {"type": "note_off", "time": 646, "note": 45, "velocity": 105, "channel": 0}, {"type": "note_on", "time": 25, "note": 47, "velocity": 102, "channel": 0}, {"type": "note_off", "time": 461, "note": 47, "velocity": 102, "channel": 0}, {"type": "note_on", "time": 205, "note": 67, "velocity": 93, "channel": 0}, {"type": "note_off", "time": 256, "note": 67, "velocity": 93, "channel": 0}, {"type": "note_on", "time": 168, "note": 63, "velocity": 107, "channel": 0}, {"type": "note_off", "time": 520, "note": 63, "velocity": 107, "channel": 0}, {"type": "note_on", "time": 0, "note": 65, "velocity": 96, "channel": 0}, {"type": "note_off", "time": 197, "note": 65, "velocity": 96, "channel": 0}, {"type": "note_on", "time": 16, "note": 68, "velocity": 93, "channel": 0}, {"type": "note_off", "time": 428, "note": 68, "velocity": 93, "channel": 0}, {"type": "note_on", "time": 42, "note": 72, "velocity": 93, "channel": 0}, {"type": "note_off", "time": 226, "note": 72, "velocity": 93, "channel": 0}, {"type": "note_on", "time": 0, "note": 71, "velocity": 101, "channel": 0}, {"type": "note_off", "time": 209, "note": 71, "velocity": 101, "channel": 0}, {"type": "note_on", "time": 23, "note": 70, "velocity": 103, "channel": 0}, {"type": "note_off", "time": 322, "note": 70, "velocity": 103, "channel": 0}, {"type": "note_on", "time": 161, "note": 66, "velocity": 96, "channel": 0}, {"type": "note_off", "time": 262, "note": 66, "velocity": 96, "channel": 0}, {"type": "note_on", "time": 17, "note": 65, "velocity": 102, "channel": 0}, {"type": "note_off", "time": 537, "note": 65, "velocity": 102, "channel": 0}, {"type": "note_on", "time": 89, "note": 68, "velocity": 101, "channel": 0}, {"type": "note_off", "time": 280, "note": 68, "velocity": 101, "channel": 0}, {"type": "note_on", "time": 11, "note": 63, "velocity": 108, "channel": 0}, {"type": "note_off", "time": 549, "note": 63, "velocity": 108, "channel": 0}, {"type": "note_on", "time": 0, "note": 61, "velocity": 97, "channel": 0}, {"type": "note_off", "time": 448, "note": 61, "velocity": 97, "channel": 0}, {"type": "note_on", "time": 0, "note": 58, "velocity": 95, "channel": 0}, {"type": "note_off", "time": 280, "note": 58, "velocity": 95, "channel": 0}, {"type": "note_on", "time": 119, "note": 54, "velocity": 92, "channel": 0}, {"type": "note_off", "time": 537, "note": 54, "velocity": 92, "channel": 0}, {"type": "note_on", "time": 0, "note": 53, "velocity": 94, "channel": 0}, {"type": "note_off", "time": 346, "note": 53, "velocity": 94, "channel": 0}, {"type": "note_on", "time": 3852, "note": 73, "velocity": 94, "channel": 0}, {"type": "note_off", "time": 436, "note": 73, "velocity": 94, "channel": 0}, {"type": "note_on", "time": 17, "note": 72, "velocity": 92, "channel": 0}, {"type": "note_off", "time": 346, "note": 72, "velocity": 92, "channel": 0}, {"type": "note_on", "time": 59, "note": 68, "velocity": 92, "channel": 0}, {"type": "note_off", "time": 1385, "note": 68, "velocity": 92, "channel": 0}, {"type": "note_on", "time": 66, "note": 65, "velocity": 99, "channel": 0}, {"type": "note_off", "time": 369, "note": 65, "velocity": 99, "channel": 0}, {"type": "note_on", "time": 0, "note": 63, "velocity": 111, "channel": 0}, {"type": "note_off", "time": 394, "note": 63, "velocity": 111, "channel": 0}, {"type": "note_on", "time": 41, "note": 67, "velocity": 100, "channel": 0}, {"type": "note_off", "time": 370, "note": 67, "velocity": 100, "channel": 0}, {"type": "note_on", "time": 0, "note": 65, "velocity": 99, "channel": 0}, {"type": "note_off", "time": 364, "note": 65, "velocity": 99, "channel": 0}, {"type": "note_on", "time": 53, "note": 61, "velocity": 106, "channel": 0}, {"type": "note_off", "time": 459, "note": 61, "velocity": 106, "channel": 0}, {"type": "note_on", "time": 0, "note": 60, "velocity": 104, "channel": 0}, {"type": "note_off", "time": 788, "note": 60, "velocity": 104, "channel": 0}, {"type": "note_on", "time": 2801, "note": 60, "velocity": 89, "channel": 0}, {"type": "note_off", "time": 388, "note": 60, "velocity": 89, "channel": 0}, {"type": "note_on", "time": 35, "note": 65, "velocity": 100, "channel": 0}, {"type": "note_off", "time": 394, "note": 65, "velocity": 100, "channel": 0}, {"type": "note_on", "time": 0, "note": 63, "velocity": 103, "channel": 0}, {"type": "note_off", "time": 370, "note": 63, "velocity": 103, "channel": 0}, {"type": "note_on", "time": 0, "note": 60, "velocity": 94, "channel": 0}, {"type": "note_off", "time": 436, "note": 60, "velocity": 94, "channel": 0}, {"type": "note_on", "time": 0, "note": 58, "velocity": 95, "channel": 0}, {"type": "note_off", "time": 364, "note": 58, "velocity": 95, "channel": 0}, {"type": "note_on", "time": 95, "note": 54, "velocity": 94, "channel": 0}, {"type": "note_off", "time": 197, "note": 54, "velocity": 94, "channel": 0}, {"type": "note_on", "time": 23, "note": 53, "velocity": 97, "channel": 0}, {"type": "note_off", "time": 298, "note": 53, "velocity": 97, "channel": 0}, {"type": "note_on", "time": 71, "note": 63, "velocity": 101, "channel": 0}, {"type": "note_off", "time": 358, "note": 63, "velocity": 101, "channel": 0}, {"type": "note_on", "time": 71, "note": 67, "velocity": 97, "channel": 0}, {"type": "note_off", "time": 621, "note": 67, "velocity": 97, "channel": 0}, {"type": "note_on", "time": 1576, "note": 51, "velocity": 95, "channel": 0}, {"type": "note_off", "time": 280, "note": 51, "velocity": 95, "channel": 0}, {"type": "note_on", "time": 85, "note": 53, "velocity": 97, "channel": 0}, {"type": "note_off", "time": 243, "note": 53, "velocity": 97, "channel": 0}, {"type": "note_on", "time": 29, "note": 56, "velocity": 98, "channel": 0}, {"type": "note_off", "time": 264, "note": 56, "velocity": 98, "channel": 0}, {"type": "note_on", "time": 176, "note": 61, "velocity": 94, "channel": 0}, {"type": "note_off", "time": 323, "note": 61, "velocity": 94, "channel": 0}, {"type": "note_on", "time": 121, "note": 55, "velocity": 91, "channel": 0}, {"type": "note_off", "time": 346, "note": 55, "velocity": 91, "channel": 0}, {"type": "note_on", "time": 56, "note": 67, "velocity": 98, "channel": 0}, {"type": "note_off", "time": 357, "note": 67, "velocity": 98, "channel": 0}, {"type": "note_on", "time": 159, "note": 63, "velocity": 90, "channel": 0}, {"type": "note_off", "time": 331, "note": 63, "velocity": 90, "channel": 0}, {"type": "note_on", "time": 29, "note": 66, "velocity": 95, "channel": 0}, {"type": "note_off", "time": 394, "note": 66, "velocity": 95, "channel": 0}, {"type": "note_on", "time": 6, "note": 63, "velocity": 100, "channel": 0}, {"type": "note_off", "time": 394, "note": 63, "velocity": 100, "channel": 0}, {"type": "note_on", "time": 0, "note": 66, "velocity": 98, "channel": 0}, {"type": "note_off", "time": 268, "note": 66, "velocity": 98, "channel": 0}, {"type": "note_on", "time": 77, "note": 70, "velocity": 102, "channel": 0}, {"type": "note_off", "time": 567, "note": 70, "velocity": 102, "channel": 0}, {"type": "note_on", "time": 2188, "note": 64, "velocity": 103, "channel": 0}, {"type": "note_off", "time": 394, "note": 64, "velocity": 103, "channel": 0}, {"type": "note_on", "time": 0, "note": 65, "velocity": 97, "channel": 0}, {"type": "note_off", "time": 352, "note": 65, "velocity": 97, "channel": 0}, {"type": "note_on", "time": 0, "note": 69, "velocity": 91, "channel": 0}, {"type": "note_off", "time": 331, "note": 69, "velocity": 91, "channel": 0}, {"type": "note_on", "time": 71, "note": 67, "velocity": 101, "channel": 0}, {"type": "note_off", "time": 478, "note": 67, "velocity": 101, "channel": 0}, {"type": "note_on", "time": 12, "note": 69, "velocity": 93, "channel": 0}, {"type": "note_off", "time": 222, "note": 69, "velocity": 93, "channel": 0}, {"type": "note_on", "time": 0, "note": 68, "velocity": 96, "channel": 0}, {"type": "note_off", "time": 92, "note": 68, "velocity": 96, "channel": 0}, {"type": "note_on", "time": 0, "note": 67, "velocity": 100, "channel": 0}, {"type": "note_off", "time": 470, "note": 67, "velocity": 100, "channel": 0}, {"type": "note_on", "time": 54, "note": 69, "velocity": 96, "channel": 0}, {"type": "note_off", "time": 289, "note": 69, "velocity": 96, "channel": 0}, {"type": "note_on", "time": 151, "note": 67, "velocity": 96, "channel": 0}, {"type": "note_off", "time": 453, "note": 67, "velocity": 96, "channel": 0}, {"type": "note_on", "time": 16, "note": 60, "velocity": 88, "channel": 0}, {"type": "note_off", "time": 436, "note": 60, "velocity": 88, "channel": 0}, {"type": "note_on", "time": 29, "note": 65, "velocity": 99, "channel": 0}, {"type": "note_off", "time": 315, "note": 65, "velocity": 99, "channel": 0}, {"type": "note_on", "time": 67, "note": 69, "velocity": 98, "channel": 0}, {"type": "note_off", "time": 403, "note": 69, "velocity": 98, "channel": 0}, {"type": "note_on", "time": 25, "note": 71, "velocity": 102, "channel": 0}, {"type": "note_off", "time": 609, "note": 71, "velocity": 102, "channel": 0}, {"type": "note_on", "time": 3238, "note": 71, "velocity": 103, "channel": 0}, {"type": "note_off", "time": 512, "note": 71, "velocity": 103, "channel": 0}, {"type": "note_on", "time": 4, "note": 69, "velocity": 97, "channel": 0}, {"type": "note_off", "time": 348, "note": 69, "velocity": 97, "channel": 0}, {"type": "note_on", "time": 4, "note": 71, "velocity": 95, "channel": 0}, {"type": "note_off", "time": 348, "note": 71, "velocity": 95, "channel": 0}, {"type": "note_on", "time": 113, "note": 74, "velocity": 100, "channel": 0}, {"type": "note_off", "time": 260, "note": 74, "velocity": 100, "channel": 0}, {"type": "note_on", "time": 33, "note": 73, "velocity": 104, "channel": 0}, {"type": "note_off", "time": 159, "note": 73, "velocity": 104, "channel": 0}, {"type": "note_on", "time": 4, "note": 72, "velocity": 106, "channel": 0}, {"type": "note_off", "time": 844, "note": 72, "velocity": 106, "channel": 0}, {"type": "note_on", "time": 0, "note": 69, "velocity": 97, "channel": 0}, {"type": "note_off", "time": 529, "note": 69, "velocity": 97, "channel": 0}, {"type": "note_on", "time": 4019, "note": 69, "velocity": 95, "channel": 0}, {"type": "note_off", "time": 533, "note": 69, "velocity": 95, "channel": 0}, {"type": "note_on", "time": 1264, "note": 74, "velocity": 105, "channel": 0}, {"type": "note_off", "time": 294, "note": 74, "velocity": 105, "channel": 0}, {"type": "note_on", "time": 147, "note": 73, "velocity": 102, "channel": 0}, {"type": "note_off", "time": 306, "note": 73, "velocity": 102, "channel": 0}, {"type": "note_on", "time": 71, "note": 69, "velocity": 94, "channel": 0}, {"type": "note_off", "time": 352, "note": 69, "velocity": 94, "channel": 0}, {"type": "note_on", "time": 92, "note": 74, "velocity": 102, "channel": 0}, {"type": "note_off", "time": 193, "note": 74, "velocity": 102, "channel": 0}, {"type": "note_on", "time": 8, "note": 73, "velocity": 106, "channel": 0}, {"type": "note_off", "time": 189, "note": 73, "velocity": 106, "channel": 0}, {"type": "note_on", "time": 33, "note": 69, "velocity": 100, "channel": 0}, {"type": "note_off", "time": 356, "note": 69, "velocity": 100, "channel": 0}, {"type": "note_on", "time": 75, "note": 65, "velocity": 106, "channel": 0}, {"type": "note_off", "time": 373, "note": 65, "velocity": 106, "channel": 0}, {"type": "note_on", "time": 8, "note": 62, "velocity": 107, "channel": 0}, {"type": "note_off", "time": 403, "note": 62, "velocity": 107, "channel": 0}, {"type": "note_on", "time": 109, "note": 67, "velocity": 104, "channel": 0}, {"type": "note_off", "time": 323, "note": 67, "velocity": 104, "channel": 0}, {"type": "note_on", "time": 75, "note": 65, "velocity": 104, "channel": 0}, {"type": "note_off", "time": 1528, "note": 65, "velocity": 104, "channel": 0}, {"type": "note_on", "time": 196, "note": 65, "velocity": 102, "channel": 0}, {"type": "note_off", "time": 250, "note": 65, "velocity": 102, "channel": 0}, {"type": "note_on", "time": 59, "note": 65, "velocity": 106, "channel": 0}, {"type": "note_off", "time": 501, "note": 65, "velocity": 106, "channel": 0}, {"type": "note_on", "time": 0, "note": 67, "velocity": 101, "channel": 0}, {"type": "note_off", "time": 364, "note": 67, "velocity": 101, "channel": 0}, {"type": "note_on", "time": 35, "note": 65, "velocity": 103, "channel": 0}, {"type": "note_off", "time": 113, "note": 65, "velocity": 103, "channel": 0}, {"type": "note_on", "time": 0, "note": 62, "velocity": 108, "channel": 0}, {"type": "note_off", "time": 716, "note": 62, "velocity": 108, "channel": 0}, {"type": "note_on", "time": 23, "note": 61, "velocity": 93, "channel": 0}, {"type": "note_off", "time": 161, "note": 61, "velocity": 93, "channel": 0}, {"type": "note_on", "time": 364, "note": 69, "velocity": 102, "channel": 0}, {"type": "note_off", "time": 716, "note": 69, "velocity": 102, "channel": 0}, {"type": "note_on", "time": 0, "note": 60, "velocity": 96, "channel": 0}, {"type": "note_off", "time": 185, "note": 60, "velocity": 96, "channel": 0}, {"type": "note_on", "time": 53, "note": 69, "velocity": 104, "channel": 0}, {"type": "note_off", "time": 1290, "note": 69, "velocity": 104, "channel": 0}, {"type": "note_on", "time": 3589, "note": 69, "velocity": 87, "channel": 0}, {"type": "note_off", "time": 1349, "note": 69, "velocity": 87, "channel": 0}, {"type": "note_on", "time": 752, "note": 69, "velocity": 97, "channel": 0}, {"type": "note_off", "time": 459, "note": 69, "velocity": 97, "channel": 0}, {"type": "note_on", "time": 525, "note": 69, "velocity": 104, "channel": 0}, {"type": "note_off", "time": 1326, "note": 69, "velocity": 104, "channel": 0}, {"type": "note_on", "time": 3554, "note": 69, "velocity": 89, "channel": 0}, {"type": "note_off", "time": 226, "note": 69, "velocity": 89, "channel": 0}, {"type": "note_on", "time": 663, "note": 68, "velocity": 97, "channel": 0}, {"type": "note_off", "time": 322, "note": 68, "velocity": 97, "channel": 0}, {"type": "note_on", "time": 23, "note": 69, "velocity": 103, "channel": 0}, {"type": "note_off", "time": 2819, "note": 69, "velocity": 103, "channel": 0}, {"type": "note_on", "time": 57, "note": 68, "velocity": 83, "channel": 0}, {"type": "note_off", "time": 352, "note": 68, "velocity": 83, "channel": 0}, {"type": "note_on", "time": 32, "note": 69, "velocity": 97, "channel": 0}, {"type": "note_off", "time": 1624, "note": 69, "velocity": 97, "channel": 0}, {"type": "note_on", "time": 31, "note": 67, "velocity": 89, "channel": 0}, {"type": "note_off", "time": 268, "note": 67, "velocity": 89, "channel": 0}, {"type": "note_on", "time": 8, "note": 69, "velocity": 97, "channel": 0}, {"type": "note_off", "time": 504, "note": 69, "velocity": 97, "channel": 0}, {"type": "note_on", "time": 50, "note": 67, "velocity": 93, "channel": 0}, {"type": "note_off", "time": 226, "note": 67, "velocity": 93, "channel": 0}, {"type": "note_on", "time": 58, "note": 69, "velocity": 97, "channel": 0}, {"type": "note_off", "time": 394, "note": 69, "velocity": 97, "channel": 0}, {"type": "note_on", "time": 25, "note": 67, "velocity": 97, "channel": 0}, {"type": "note_off", "time": 378, "note": 67, "velocity": 97, "channel": 0}, {"type": "note_on", "time": 58, "note": 65, "velocity": 104, "channel": 0}, {"type": "note_off", "time": 436, "note": 65, "velocity": 104, "channel": 0}, {"type": "note_on", "time": 0, "note": 62, "velocity": 104, "channel": 0}, {"type": "note_off", "time": 848, "note": 62, "velocity": 104, "channel": 0}, {"type": "note_on", "time": 3435, "note": 67, "velocity": 96, "channel": 0}, {"type": "note_off", "time": 1738, "note": 67, "velocity": 96, "channel": 0}, {"type": "note_on", "time": 537, "note": 67, "velocity": 101, "channel": 0}, {"type": "note_off", "time": 1629, "note": 67, "velocity": 101, "channel": 0}, {"type": "note_on", "time": 50, "note": 66, "velocity": 105, "channel": 0}, {"type": "note_off", "time": 420, "note": 66, "velocity": 105, "channel": 0}, {"type": "note_on", "time": 75, "note": 67, "velocity": 96, "channel": 0}, {"type": "note_off", "time": 403, "note": 67, "velocity": 96, "channel": 0}, {"type": "note_on", "time": 25, "note": 69, "velocity": 96, "channel": 0}, {"type": "note_off", "time": 453, "note": 69, "velocity": 96, "channel": 0}, {"type": "note_on", "time": 92, "note": 65, "velocity": 100, "channel": 0}, {"type": "note_off", "time": 714, "note": 65, "velocity": 100, "channel": 0}, {"type": "note_on", "time": 75, "note": 65, "velocity": 98, "channel": 0}, {"type": "note_off", "time": 1268, "note": 65, "velocity": 98, "channel": 0}, {"type": "note_on", "time": 8, "note": 62, "velocity": 105, "channel": 0}, {"type": "note_off", "time": 881, "note": 62, "velocity": 105, "channel": 0}, {"type": "note_on", "time": 58, "note": 62, "velocity": 107, "channel": 0}, {"type": "note_off", "time": 772, "note": 62, "velocity": 107, "channel": 0}, {"type": "note_on", "time": 16, "note": 59, "velocity": 97, "channel": 0}, {"type": "note_off", "time": 436, "note": 59, "velocity": 97, "channel": 0}, {"type": "note_on", "time": 109, "note": 53, "velocity": 105, "channel": 0}, {"type": "note_off", "time": 319, "note": 53, "velocity": 105, "channel": 0}, {"type": "note_on", "time": 3939, "note": 67, "velocity": 97, "channel": 0}, {"type": "note_off", "time": 1646, "note": 67, "velocity": 97, "channel": 0}, {"type": "note_on", "time": 747, "note": 69, "velocity": 94, "channel": 0}, {"type": "note_off", "time": 411, "note": 69, "velocity": 94, "channel": 0}, {"type": "note_on", "time": 478, "note": 70, "velocity": 89, "channel": 0}, {"type": "note_off", "time": 361, "note": 70, "velocity": 89, "channel": 0}, {"type": "note_on", "time": 25, "note": 71, "velocity": 103, "channel": 0}, {"type": "note_off", "time": 352, "note": 71, "velocity": 103, "channel": 0}, {"type": "note_on", "time": 50, "note": 70, "velocity": 103, "channel": 0}, {"type": "note_off", "time": 730, "note": 70, "velocity": 103, "channel": 0}, {"type": "note_on", "time": 58, "note": 71, "velocity": 103, "channel": 0}, {"type": "note_off", "time": 730, "note": 71, "velocity": 103, "channel": 0}, {"type": "note_on", "time": 16, "note": 70, "velocity": 96, "channel": 0}, {"type": "note_off", "time": 747, "note": 70, "velocity": 96, "channel": 0}, {"type": "note_on", "time": 25, "note": 71, "velocity": 103, "channel": 0}, {"type": "note_off", "time": 529, "note": 71, "velocity": 103, "channel": 0}, {"type": "note_on", "time": 0, "note": 67, "velocity": 100, "channel": 0}, {"type": "note_off", "time": 579, "note": 67, "velocity": 100, "channel": 0}, {"type": "note_on", "time": 33, "note": 62, "velocity": 107, "channel": 0}, {"type": "note_off", "time": 697, "note": 62, "velocity": 107, "channel": 0}, {"type": "note_on", "time": 100, "note": 59, "velocity": 96, "channel": 0}, {"type": "note_off", "time": 218, "note": 59, "velocity": 96, "channel": 0}, {"type": "note_on", "time": 1327, "note": 71, "velocity": 105, "channel": 0}, {"type": "note_off", "time": 546, "note": 71, "velocity": 105, "channel": 0}, {"type": "note_on", "time": 411, "note": 70, "velocity": 97, "channel": 0}, {"type": "note_off", "time": 714, "note": 70, "velocity": 97, "channel": 0}, {"type": "note_on", "time": 16, "note": 71, "velocity": 99, "channel": 0}, {"type": "note_off", "time": 420, "note": 71, "velocity": 99, "channel": 0}, {"type": "note_on", "time": 302, "note": 72, "velocity": 108, "channel": 0}, {"type": "note_off", "time": 881, "note": 72, "velocity": 108, "channel": 0}, {"type": "note_on", "time": 16, "note": 71, "velocity": 104, "channel": 0}, {"type": "note_off", "time": 394, "note": 71, "velocity": 104, "channel": 0}, {"type": "note_on", "time": 53, "note": 69, "velocity": 106, "channel": 0}, {"type": "note_off", "time": 967, "note": 69, "velocity": 106, "channel": 0}, {"type": "note_on", "time": 2985, "note": 72, "velocity": 96, "channel": 0}, {"type": "note_off", "time": 1562, "note": 72, "velocity": 96, "channel": 0}, {"type": "note_on", "time": 41, "note": 71, "velocity": 101, "channel": 0}, {"type": "note_off", "time": 294, "note": 71, "velocity": 101, "channel": 0}, {"type": "note_on", "time": 25, "note": 72, "velocity": 102, "channel": 0}, {"type": "note_off", "time": 1402, "note": 72, "velocity": 102, "channel": 0}, {"type": "note_on", "time": 33, "note": 68, "velocity": 99, "channel": 0}, {"type": "note_off", "time": 537, "note": 68, "velocity": 99, "channel": 0}, {"type": "note_on", "time": 84, "note": 63, "velocity": 104, "channel": 0}, {"type": "note_off", "time": 352, "note": 63, "velocity": 104, "channel": 0}, {"type": "note_on", "time": 2444, "note": 70, "velocity": 91, "channel": 0}, {"type": "note_off", "time": 319, "note": 70, "velocity": 91, "channel": 0}, {"type": "note_on", "time": 0, "note": 71, "velocity": 100, "channel": 0}, {"type": "note_off", "time": 218, "note": 71, "velocity": 100, "channel": 0}, {"type": "note_on", "time": 25, "note": 72, "velocity": 106, "channel": 0}, {"type": "note_off", "time": 1134, "note": 72, "velocity": 106, "channel": 0}, {"type": "note_on", "time": 8, "note": 71, "velocity": 100, "channel": 0}, {"type": "note_off", "time": 268, "note": 71, "velocity": 100, "channel": 0}, {"type": "note_on", "time": 16, "note": 72, "velocity": 106, "channel": 0}, {"type": "note_off", "time": 1150, "note": 72, "velocity": 106, "channel": 0}, {"type": "note_on", "time": 80, "note": 68, "velocity": 98, "channel": 0}, {"type": "note_off", "time": 1039, "note": 68, "velocity": 98, "channel": 0}, {"type": "note_on", "time": 2937, "note": 71, "velocity": 91, "channel": 0}, {"type": "note_off", "time": 235, "note": 71, "velocity": 91, "channel": 0}, {"type": "note_on", "time": 8, "note": 72, "velocity": 93, "channel": 0}, {"type": "note_off", "time": 1184, "note": 72, "velocity": 93, "channel": 0}, {"type": "note_on", "time": 109, "note": 71, "velocity": 92, "channel": 0}, {"type": "note_off", "time": 445, "note": 71, "velocity": 92, "channel": 0}, {"type": "note_on", "time": 25, "note": 72, "velocity": 96, "channel": 0}, {"type": "note_off", "time": 1310, "note": 72, "velocity": 96, "channel": 0}, {"type": "note_on", "time": 153, "note": 68, "velocity": 90, "channel": 0}, {"type": "note_off", "time": 507, "note": 68, "velocity": 90, "channel": 0}, {"type": "note_on", "time": 167, "note": 63, "velocity": 99, "channel": 0}, {"type": "note_off", "time": 609, "note": 63, "velocity": 99, "channel": 0}, {"type": "note_on", "time": 991, "note": 75, "velocity": 92, "channel": 0}, {"type": "note_off", "time": 221, "note": 75, "velocity": 92, "channel": 0}, {"type": "note_on", "time": 752, "note": 74, "velocity": 91, "channel": 0}, {"type": "note_off", "time": 525, "note": 74, "velocity": 91, "channel": 0}, {"type": "note_on", "time": 65, "note": 75, "velocity": 97, "channel": 0}, {"type": "note_off", "time": 531, "note": 75, "velocity": 97, "channel": 0}, {"type": "note_on", "time": 555, "note": 74, "velocity": 94, "channel": 0}, {"type": "note_off", "time": 513, "note": 74, "velocity": 94, "channel": 0}, {"type": "note_on", "time": 89, "note": 75, "velocity": 92, "channel": 0}, {"type": "note_off", "time": 430, "note": 75, "velocity": 92, "channel": 0}, {"type": "note_on", "time": 238, "note": 71, "velocity": 94, "channel": 0}, {"type": "note_off", "time": 340, "note": 71, "velocity": 94, "channel": 0}, {"type": "note_on", "time": 0, "note": 72, "velocity": 95, "channel": 0}, {"type": "note_off", "time": 432, "note": 72, "velocity": 95, "channel": 0}, {"type": "note_on", "time": 27, "note": 75, "velocity": 87, "channel": 0}, {"type": "note_off", "time": 453, "note": 75, "velocity": 87, "channel": 0}, {"type": "note_on", "time": 2740, "note": 70, "velocity": 87, "channel": 0}, {"type": "note_off", "time": 285, "note": 70, "velocity": 87, "channel": 0}, {"type": "note_on", "time": 42, "note": 71, "velocity": 95, "channel": 0}, {"type": "note_off", "time": 1142, "note": 71, "velocity": 95, "channel": 0}, {"type": "note_on", "time": 0, "note": 70, "velocity": 101, "channel": 0}, {"type": "note_off", "time": 352, "note": 70, "velocity": 101, "channel": 0}, {"type": "note_on", "time": 0, "note": 71, "velocity": 105, "channel": 0}, {"type": "note_off", "time": 1075, "note": 71, "velocity": 105, "channel": 0}, {"type": "note_on", "time": 168, "note": 67, "velocity": 101, "channel": 0}, {"type": "note_off", "time": 688, "note": 67, "velocity": 101, "channel": 0}, {"type": "note_on", "time": 327, "note": 74, "velocity": 96, "channel": 0}, {"type": "note_off", "time": 361, "note": 74, "velocity": 96, "channel": 0}, {"type": "note_on", "time": 562, "note": 73, "velocity": 105, "channel": 0}, {"type": "note_off", "time": 504, "note": 73, "velocity": 105, "channel": 0}, {"type": "note_on", "time": 0, "note": 74, "velocity": 102, "channel": 0}, {"type": "note_off", "time": 537, "note": 74, "velocity": 102, "channel": 0}, {"type": "note_on", "time": 319, "note": 73, "velocity": 101, "channel": 0}, {"type": "note_off", "time": 495, "note": 73, "velocity": 101, "channel": 0}, {"type": "note_on", "time": 0, "note": 74, "velocity": 98, "channel": 0}, {"type": "note_off", "time": 596, "note": 74, "velocity": 98, "channel": 0}, {"type": "note_on", "time": 335, "note": 73, "velocity": 100, "channel": 0}, {"type": "note_off", "time": 588, "note": 73, "velocity": 100, "channel": 0}, {"type": "note_on", "time": 33, "note": 74, "velocity": 97, "channel": 0}, {"type": "note_off", "time": 1343, "note": 74, "velocity": 97, "channel": 0}, {"type": "note_on", "time": 117, "note": 71, "velocity": 101, "channel": 0}, {"type": "note_off", "time": 554, "note": 71, "velocity": 101, "channel": 0}, {"type": "note_on", "time": 58, "note": 74, "velocity": 104, "channel": 0}, {"type": "note_off", "time": 453, "note": 74, "velocity": 104, "channel": 0}, {"type": "note_on", "time": 41, "note": 73, "velocity": 94, "channel": 0}, {"type": "note_off", "time": 168, "note": 73, "velocity": 94, "channel": 0}, {"type": "note_on", "time": 2007, "note": 70, "velocity": 95, "channel": 0}, {"type": "note_off", "time": 327, "note": 70, "velocity": 95, "channel": 0}, {"type": "note_on", "time": 25, "note": 71, "velocity": 98, "channel": 0}, {"type": "note_off", "time": 957, "note": 71, "velocity": 98, "channel": 0}, {"type": "note_on", "time": 67, "note": 70, "velocity": 99, "channel": 0}, {"type": "note_off", "time": 428, "note": 70, "velocity": 99, "channel": 0}, {"type": "note_on", "time": 0, "note": 71, "velocity": 101, "channel": 0}, {"type": "note_off", "time": 1192, "note": 71, "velocity": 101, "channel": 0}, {"type": "note_on", "time": 109, "note": 67, "velocity": 99, "channel": 0}, {"type": "note_off", "time": 571, "note": 67, "velocity": 99, "channel": 0}, {"type": "note_on", "time": 3082, "note": 73, "velocity": 100, "channel": 0}, {"type": "note_off", "time": 369, "note": 73, "velocity": 100, "channel": 0}, {"type": "note_on", "time": 0, "note": 74, "velocity": 93, "channel": 0}, {"type": "note_off", "time": 982, "note": 74, "velocity": 93, "channel": 0}, {"type": "note_on", "time": 67, "note": 73, "velocity": 102, "channel": 0}, {"type": "note_off", "time": 403, "note": 73, "velocity": 102, "channel": 0}, {"type": "note_on", "time": 50, "note": 74, "velocity": 100, "channel": 0}, {"type": "note_off", "time": 940, "note": 74, "velocity": 100, "channel": 0}, {"type": "note_on", "time": 116, "note": 71, "velocity": 103, "channel": 0}, {"type": "note_off", "time": 1075, "note": 71, "velocity": 103, "channel": 0}, {"type": "note_on", "time": 4133, "note": 74, "velocity": 93, "channel": 0}, {"type": "note_off", "time": 1251, "note": 74, "velocity": 93, "channel": 0}, {"type": "note_on", "time": 16, "note": 71, "velocity": 101, "channel": 0}, {"type": "note_off", "time": 478, "note": 71, "velocity": 101, "channel": 0}, {"type": "note_on", "time": 42, "note": 69, "velocity": 98, "channel": 0}, {"type": "note_off", "time": 310, "note": 69, "velocity": 98, "channel": 0}, {"type": "note_on", "time": 50, "note": 67, "velocity": 99, "channel": 0}, {"type": "note_off", "time": 310, "note": 67, "velocity": 99, "channel": 0}, {"type": "note_on", "time": 42, "note": 66, "velocity": 100, "channel": 0}, {"type": "note_off", "time": 478, "note": 66, "velocity": 100, "channel": 0}, {"type": "note_on", "time": 42, "note": 65, "velocity": 104, "channel": 0}, {"type": "note_off", "time": 554, "note": 65, "velocity": 104, "channel": 0}, {"type": "note_on", "time": 2024, "note": 64, "velocity": 110, "channel": 0}, {"type": "note_off", "time": 537, "note": 64, "velocity": 110, "channel": 0}, {"type": "note_on", "time": 0, "note": 65, "velocity": 106, "channel": 0}, {"type": "note_off", "time": 369, "note": 65, "velocity": 106, "channel": 0}, {"type": "note_on", "time": 8, "note": 67, "velocity": 99, "channel": 0}, {"type": "note_off", "time": 243, "note": 67, "velocity": 99, "channel": 0}, {"type": "note_on", "time": 0, "note": 69, "velocity": 99, "channel": 0}, {"type": "note_off", "time": 436, "note": 69, "velocity": 99, "channel": 0}, {"type": "note_on", "time": 50, "note": 65, "velocity": 97, "channel": 0}, {"type": "note_off", "time": 369, "note": 65, "velocity": 97, "channel": 0}, {"type": "note_on", "time": 50, "note": 62, "velocity": 96, "channel": 0}, {"type": "note_off", "time": 504, "note": 62, "velocity": 96, "channel": 0}, {"type": "note_on", "time": 42, "note": 61, "velocity": 96, "channel": 0}, {"type": "note_off", "time": 268, "note": 61, "velocity": 96, "channel": 0}, {"type": "note_on", "time": 25, "note": 64, "velocity": 103, "channel": 0}, {"type": "note_off", "time": 361, "note": 64, "velocity": 103, "channel": 0}, {"type": "note_on", "time": 0, "note": 62, "velocity": 100, "channel": 0}, {"type": "note_off", "time": 319, "note": 62, "velocity": 100, "channel": 0}, {"type": "note_on", "time": 117, "note": 65, "velocity": 97, "channel": 0}, {"type": "note_off", "time": 285, "note": 65, "velocity": 97, "channel": 0}, {"type": "note_on", "time": 16, "note": 69, "velocity": 98, "channel": 0}, {"type": "note_off", "time": 277, "note": 69, "velocity": 98, "channel": 0}, {"type": "note_on", "time": 2444, "note": 64, "velocity": 100, "channel": 0}, {"type": "note_off", "time": 394, "note": 64, "velocity": 100, "channel": 0}, {"type": "note_on", "time": 369, "note": 68, "velocity": 84, "channel": 0}, {"type": "note_off", "time": 260, "note": 68, "velocity": 84, "channel": 0}, {"type": "note_on", "time": 33, "note": 71, "velocity": 100, "channel": 0}, {"type": "note_off", "time": 369, "note": 71, "velocity": 100, "channel": 0}, {"type": "note_on", "time": 83, "note": 63, "velocity": 106, "channel": 0}, {"type": "note_off", "time": 604, "note": 63, "velocity": 106, "channel": 0}, {"type": "note_on", "time": 1209, "note": 61, "velocity": 98, "channel": 0}, {"type": "note_off", "time": 487, "note": 61, "velocity": 98, "channel": 0}, {"type": "note_on", "time": 0, "note": 60, "velocity": 95, "channel": 0}, {"type": "note_off", "time": 436, "note": 60, "velocity": 95, "channel": 0}, {"type": "note_on", "time": 33, "note": 59, "velocity": 90, "channel": 0}, {"type": "note_off", "time": 268, "note": 59, "velocity": 90, "channel": 0}, {"type": "note_on", "time": 92, "note": 58, "velocity": 92, "channel": 0}, {"type": "note_off", "time": 436, "note": 58, "velocity": 92, "channel": 0}, {"type": "note_on", "time": 67, "note": 57, "velocity": 91, "channel": 0}, {"type": "note_off", "time": 420, "note": 57, "velocity": 91, "channel": 0}, {"type": "note_on", "time": 16, "note": 56, "velocity": 91, "channel": 0}, {"type": "note_off", "time": 193, "note": 56, "velocity": 91, "channel": 0}, {"type": "note_on", "time": 58, "note": 55, "velocity": 91, "channel": 0}, {"type": "note_off", "time": 394, "note": 55, "velocity": 91, "channel": 0}, {"type": "note_on", "time": 235, "note": 59, "velocity": 87, "channel": 0}, {"type": "note_off", "time": 403, "note": 59, "velocity": 87, "channel": 0}, {"type": "note_on", "time": 8, "note": 57, "velocity": 90, "channel": 0}, {"type": "note_off", "time": 411, "note": 57, "velocity": 90, "channel": 0}, {"type": "note_on", "time": 58, "note": 62, "velocity": 98, "channel": 0}, {"type": "note_off", "time": 260, "note": 62, "velocity": 98, "channel": 0}, {"type": "note_on", "time": 67, "note": 65, "velocity": 94, "channel": 0}, {"type": "note_off", "time": 369, "note": 65, "velocity": 94, "channel": 0}, {"type": "note_on", "time": 50, "note": 69, "velocity": 89, "channel": 0}, {"type": "note_off", "time": 319, "note": 69, "velocity": 89, "channel": 0}, {"type": "note_on", "time": 100, "note": 62, "velocity": 93, "channel": 0}, {"type": "note_off", "time": 420, "note": 62, "velocity": 93, "channel": 0}, {"type": "note_on", "time": 134, "note": 65, "velocity": 91, "channel": 0}, {"type": "note_off", "time": 176, "note": 65, "velocity": 91, "channel": 0}, {"type": "note_on", "time": 109, "note": 69, "velocity": 87, "channel": 0}, {"type": "note_off", "time": 378, "note": 69, "velocity": 87, "channel": 0}, {"type": "note_on", "time": 92, "note": 71, "velocity": 90, "channel": 0}, {"type": "note_off", "time": 319, "note": 71, "velocity": 90, "channel": 0}, {"type": "note_on", "time": 33, "note": 69, "velocity": 87, "channel": 0}, {"type": "note_off", "time": 168, "note": 69, "velocity": 87, "channel": 0}, {"type": "note_on", "time": 50, "note": 67, "velocity": 88, "channel": 0}, {"type": "note_off", "time": 352, "note": 67, "velocity": 88, "channel": 0}, {"type": "note_on", "time": 67, "note": 65, "velocity": 92, "channel": 0}, {"type": "note_off", "time": 210, "note": 65, "velocity": 92, "channel": 0}, {"type": "note_on", "time": 8, "note": 64, "velocity": 84, "channel": 0}, {"type": "note_off", "time": 436, "note": 64, "velocity": 84, "channel": 0}, {"type": "note_on", "time": 159, "note": 67, "velocity": 90, "channel": 0}, {"type": "note_off", "time": 226, "note": 67, "velocity": 90, "channel": 0}, {"type": "note_on", "time": 25, "note": 62, "velocity": 87, "channel": 0}, {"type": "note_off", "time": 537, "note": 62, "velocity": 87, "channel": 0}, {"type": "note_on", "time": 1293, "note": 67, "velocity": 91, "channel": 0}, {"type": "note_off", "time": 386, "note": 67, "velocity": 91, "channel": 0}, {"type": "note_on", "time": 1091, "note": 69, "velocity": 86, "channel": 0}, {"type": "note_off", "time": 235, "note": 69, "velocity": 86, "channel": 0}, {"type": "note_on", "time": 42, "note": 67, "velocity": 96, "channel": 0}, {"type": "note_off", "time": 420, "note": 67, "velocity": 96, "channel": 0}, {"type": "note_on", "time": 1176, "note": 69, "velocity": 94, "channel": 0}, {"type": "note_off", "time": 420, "note": 69, "velocity": 94, "channel": 0}, {"type": "note_on", "time": 1251, "note": 62, "velocity": 95, "channel": 0}, {"type": "note_on", "time": 529, "note": 65, "velocity": 89, "channel": 0}, {"type": "note_off", "time": 0, "note": 62, "velocity": 95, "channel": 0}, {"type": "note_off", "time": 226, "note": 65, "velocity": 89, "channel": 0}, {"type": "note_on", "time": 50, "note": 69, "velocity": 88, "channel": 0}, {"type": "note_off", "time": 428, "note": 69, "velocity": 88, "channel": 0}, {"type": "note_on", "time": 1327, "note": 64, "velocity": 96, "channel": 0}, {"type": "note_off", "time": 453, "note": 64, "velocity": 96, "channel": 0}, {"type": "note_on", "time": 25, "note": 67, "velocity": 92, "channel": 0}, {"type": "note_off", "time": 394, "note": 67, "velocity": 92, "channel": 0}, {"type": "note_on", "time": 16, "note": 71, "velocity": 91, "channel": 0}, {"type": "note_off", "time": 386, "note": 71, "velocity": 91, "channel": 0}, {"type": "note_on", "time": 1436, "note": 65, "velocity": 98, "channel": 0}, {"type": "note_off", "time": 453, "note": 65, "velocity": 98, "channel": 0}, {"type": "note_on", "time": 0, "note": 69, "velocity": 91, "channel": 0}, {"type": "note_off", "time": 293, "note": 69, "velocity": 91, "channel": 0}, {"type": "note_on", "time": 109, "note": 72, "velocity": 94, "channel": 0}, {"type": "note_off", "time": 411, "note": 72, "velocity": 94, "channel": 0}, {"type": "note_on", "time": 67, "note": 67, "velocity": 85, "channel": 0}, {"type": "note_off", "time": 310, "note": 67, "velocity": 85, "channel": 0}, {"type": "note_on", "time": 33, "note": 69, "velocity": 85, "channel": 0}, {"type": "note_off", "time": 428, "note": 69, "velocity": 85, "channel": 0}, {"type": "note_on", "time": 1392, "note": 69, "velocity": 86, "channel": 0}, {"type": "note_off", "time": 394, "note": 69, "velocity": 86, "channel": 0}, {"type": "note_on", "time": 11, "note": 71, "velocity": 92, "channel": 0}, {"type": "note_off", "time": 358, "note": 71, "velocity": 92, "channel": 0}, {"type": "note_on", "time": 35, "note": 72, "velocity": 93, "channel": 0}, {"type": "note_off", "time": 250, "note": 72, "velocity": 93, "channel": 0}, {"type": "note_on", "time": 243, "note": 73, "velocity": 89, "channel": 0}, {"type": "note_off", "time": 134, "note": 73, "velocity": 89, "channel": 0}, {"type": "note_on", "time": 50, "note": 72, "velocity": 94, "channel": 0}, {"type": "note_off", "time": 176, "note": 72, "velocity": 94, "channel": 0}, {"type": "note_on", "time": 25, "note": 69, "velocity": 88, "channel": 0}, {"type": "note_off", "time": 361, "note": 69, "velocity": 88, "channel": 0}, {"type": "note_on", "time": 65, "note": 65, "velocity": 95, "channel": 0}, {"type": "note_off", "time": 280, "note": 65, "velocity": 95, "channel": 0}, {"type": "note_on", "time": 0, "note": 62, "velocity": 102, "channel": 0}, {"type": "note_off", "time": 573, "note": 62, "velocity": 102, "channel": 0}, {"type": "note_on", "time": 334, "note": 65, "velocity": 96, "channel": 0}, {"type": "note_off", "time": 1224, "note": 65, "velocity": 96, "channel": 0}, {"type": "note_on", "time": 35, "note": 67, "velocity": 96, "channel": 0}, {"type": "note_off", "time": 388, "note": 67, "velocity": 96, "channel": 0}, {"type": "note_on", "time": 23, "note": 65, "velocity": 96, "channel": 0}, {"type": "note_off", "time": 346, "note": 65, "velocity": 96, "channel": 0}, {"type": "note_on", "time": 65, "note": 62, "velocity": 102, "channel": 0}, {"type": "note_off", "time": 376, "note": 62, "velocity": 102, "channel": 0}, {"type": "note_on", "time": 59, "note": 57, "velocity": 96, "channel": 0}, {"type": "note_off", "time": 352, "note": 57, "velocity": 96, "channel": 0}, {"type": "note_on", "time": 53, "note": 53, "velocity": 98, "channel": 0}, {"type": "note_off", "time": 507, "note": 53, "velocity": 98, "channel": 0}, {"type": "note_on", "time": 3494, "note": 54, "velocity": 106, "channel": 0}, {"type": "note_on", "time": 155, "note": 56, "velocity": 109, "channel": 0}, {"type": "note_off", "time": 0, "note": 54, "velocity": 106, "channel": 0}, {"type": "note_off", "time": 173, "note": 56, "velocity": 109, "channel": 0}, {"type": "note_on", "time": 0, "note": 63, "velocity": 100, "channel": 0}, {"type": "note_off", "time": 268, "note": 63, "velocity": 100, "channel": 0}, {"type": "note_on", "time": 23, "note": 67, "velocity": 99, "channel": 0}, {"type": "note_off", "time": 501, "note": 67, "velocity": 99, "channel": 0}, {"type": "note_on", "time": 0, "note": 60, "velocity": 100, "channel": 0}, {"type": "note_off", "time": 459, "note": 60, "velocity": 100, "channel": 0}, {"type": "note_on", "time": 41, "note": 58, "velocity": 102, "channel": 0}, {"type": "note_off", "time": 346, "note": 58, "velocity": 102, "channel": 0}, {"type": "note_on", "time": 59, "note": 54, "velocity": 95, "channel": 0}, {"type": "note_off", "time": 418, "note": 54, "velocity": 95, "channel": 0}, {"type": "note_on", "time": 5, "note": 51, "velocity": 97, "channel": 0}, {"type": "note_off", "time": 442, "note": 51, "velocity": 97, "channel": 0}, {"type": "note_on", "time": 89, "note": 54, "velocity": 97, "channel": 0}, {"type": "note_off", "time": 346, "note": 54, "velocity": 97, "channel": 0}, {"type": "note_on", "time": 0, "note": 47, "velocity": 94, "channel": 0}, {"type": "note_off", "time": 471, "note": 47, "velocity": 94, "channel": 0}, {"type": "note_on", "time": 1350, "note": 58, "velocity": 100, "channel": 0}, {"type": "note_off", "time": 507, "note": 58, "velocity": 100, "channel": 0}, {"type": "note_on", "time": 298, "note": 60, "velocity": 105, "channel": 0}, {"type": "note_off", "time": 376, "note": 60, "velocity": 105, "channel": 0}, {"type": "note_on", "time": 101, "note": 56, "velocity": 103, "channel": 0}, {"type": "note_off", "time": 316, "note": 56, "velocity": 103, "channel": 0}, {"type": "note_on", "time": 23, "note": 54, "velocity": 100, "channel": 0}, {"type": "note_off", "time": 394, "note": 54, "velocity": 100, "channel": 0}, {"type": "note_on", "time": 83, "note": 56, "velocity": 105, "channel": 0}, {"type": "note_off", "time": 268, "note": 56, "velocity": 105, "channel": 0}, {"type": "note_on", "time": 5, "note": 67, "velocity": 109, "channel": 0}, {"type": "note_off", "time": 322, "note": 67, "velocity": 109, "channel": 0}, {"type": "note_on", "time": 125, "note": 60, "velocity": 114, "channel": 0}, {"type": "note_off", "time": 430, "note": 60, "velocity": 114, "channel": 0}, {"type": "note_on", "time": 0, "note": 58, "velocity": 104, "channel": 0}, {"type": "note_off", "time": 304, "note": 58, "velocity": 104, "channel": 0}, {"type": "note_on", "time": 1409, "note": 58, "velocity": 99, "channel": 0}, {"type": "note_off", "time": 304, "note": 58, "velocity": 99, "channel": 0}, {"type": "note_on", "time": 47, "note": 60, "velocity": 94, "channel": 0}, {"type": "note_off", "time": 382, "note": 60, "velocity": 94, "channel": 0}, {"type": "note_on", "time": 11, "note": 62, "velocity": 101, "channel": 0}, {"type": "note_off", "time": 394, "note": 62, "velocity": 101, "channel": 0}, {"type": "note_on", "time": 89, "note": 65, "velocity": 98, "channel": 0}, {"type": "note_off", "time": 364, "note": 65, "velocity": 98, "channel": 0}, {"type": "note_on", "time": 23, "note": 63, "velocity": 100, "channel": 0}, {"type": "note_off", "time": 471, "note": 63, "velocity": 100, "channel": 0}, {"type": "note_on", "time": 65, "note": 66, "velocity": 89, "channel": 0}, {"type": "note_off", "time": 262, "note": 66, "velocity": 89, "channel": 0}, {"type": "note_on", "time": 47, "note": 70, "velocity": 92, "channel": 0}, {"type": "note_off", "time": 334, "note": 70, "velocity": 92, "channel": 0}, {"type": "note_on", "time": 47, "note": 71, "velocity": 98, "channel": 0}, {"type": "note_off", "time": 322, "note": 71, "velocity": 98, "channel": 0}, {"type": "note_on", "time": 29, "note": 68, "velocity": 94, "channel": 0}, {"type": "note_off", "time": 209, "note": 68, "velocity": 94, "channel": 0}, {"type": "note_on", "time": 107, "note": 66, "velocity": 96, "channel": 0}, {"type": "note_off", "time": 376, "note": 66, "velocity": 96, "channel": 0}, {"type": "note_on", "time": 35, "note": 63, "velocity": 99, "channel": 0}, {"type": "note_off", "time": 459, "note": 63, "velocity": 99, "channel": 0}, {"type": "note_on", "time": 2090, "note": 63, "velocity": 105, "channel": 0}, {"type": "note_off", "time": 316, "note": 63, "velocity": 105, "channel": 0}, {"type": "note_on", "time": 113, "note": 66, "velocity": 100, "channel": 0}, {"type": "note_off", "time": 268, "note": 66, "velocity": 100, "channel": 0}, {"type": "note_on", "time": 143, "note": 67, "velocity": 87, "channel": 0}, {"type": "note_off", "time": 280, "note": 67, "velocity": 87, "channel": 0}, {"type": "note_on", "time": 11, "note": 70, "velocity": 93, "channel": 0}, {"type": "note_off", "time": 298, "note": 70, "velocity": 93, "channel": 0}, {"type": "note_on", "time": 268, "note": 65, "velocity": 94, "channel": 0}, {"type": "note_off", "time": 322, "note": 65, "velocity": 94, "channel": 0}, {"type": "note_on", "time": 83, "note": 60, "velocity": 97, "channel": 0}, {"type": "note_off", "time": 328, "note": 60, "velocity": 97, "channel": 0}, {"type": "note_on", "time": 47, "note": 58, "velocity": 102, "channel": 0}, {"type": "note_off", "time": 298, "note": 58, "velocity": 102, "channel": 0}, {"type": "note_on", "time": 3984, "note": 58, "velocity": 97, "channel": 0}, {"type": "note_off", "time": 298, "note": 58, "velocity": 97, "channel": 0}, {"type": "note_on", "time": 101, "note": 60, "velocity": 97, "channel": 0}, {"type": "note_off", "time": 370, "note": 60, "velocity": 97, "channel": 0}, {"type": "note_on", "time": 53, "note": 62, "velocity": 100, "channel": 0}, {"type": "note_off", "time": 340, "note": 62, "velocity": 100, "channel": 0}, {"type": "note_on", "time": 119, "note": 65, "velocity": 103, "channel": 0}, {"type": "note_off", "time": 394, "note": 65, "velocity": 103, "channel": 0}, {"type": "note_on", "time": 101, "note": 63, "velocity": 102, "channel": 0}, {"type": "note_off", "time": 442, "note": 63, "velocity": 102, "channel": 0}, {"type": "note_on", "time": 0, "note": 66, "velocity": 95, "channel": 0}, {"type": "note_off", "time": 215, "note": 66, "velocity": 95, "channel": 0}, {"type": "note_on", "time": 0, "note": 68, "velocity": 94, "channel": 0}, {"type": "note_off", "time": 370, "note": 68, "velocity": 94, "channel": 0}, {"type": "note_on", "time": 95, "note": 71, "velocity": 99, "channel": 0}, {"type": "note_off", "time": 459, "note": 71, "velocity": 99, "channel": 0}, {"type": "note_on", "time": 53, "note": 68, "velocity": 94, "channel": 0}, {"type": "note_off", "time": 226, "note": 68, "velocity": 94, "channel": 0}, {"type": "note_on", "time": 113, "note": 66, "velocity": 96, "channel": 0}, {"type": "note_off", "time": 364, "note": 66, "velocity": 96, "channel": 0}, {"type": "note_on", "time": 35, "note": 63, "velocity": 104, "channel": 0}, {"type": "note_off", "time": 400, "note": 63, "velocity": 104, "channel": 0}, {"type": "note_on", "time": 125, "note": 58, "velocity": 92, "channel": 0}, {"type": "note_off", "time": 268, "note": 58, "velocity": 92, "channel": 0}, {"type": "note_on", "time": 71, "note": 62, "velocity": 109, "channel": 0}, {"type": "note_off", "time": 459, "note": 62, "velocity": 109, "channel": 0}, {"type": "note_on", "time": 1349, "note": 69, "velocity": 98, "channel": 0}, {"type": "note_off", "time": 304, "note": 69, "velocity": 98, "channel": 0}, {"type": "note_on", "time": 65, "note": 71, "velocity": 84, "channel": 0}, {"type": "note_off", "time": 1128, "note": 71, "velocity": 84, "channel": 0}, {"type": "note_on", "time": 65, "note": 69, "velocity": 92, "channel": 0}, {"type": "note_off", "time": 316, "note": 69, "velocity": 92, "channel": 0}, {"type": "note_on", "time": 41, "note": 71, "velocity": 88, "channel": 0}, {"type": "note_off", "time": 1152, "note": 71, "velocity": 88, "channel": 0}, {"type": "note_on", "time": 83, "note": 69, "velocity": 84, "channel": 0}, {"type": "note_off", "time": 364, "note": 69, "velocity": 84, "channel": 0}, {"type": "note_on", "time": 143, "note": 65, "velocity": 90, "channel": 0}, {"type": "note_off", "time": 298, "note": 65, "velocity": 90, "channel": 0}, {"type": "note_on", "time": 29, "note": 62, "velocity": 98, "channel": 0}, {"type": "note_off", "time": 519, "note": 62, "velocity": 98, "channel": 0}, {"type": "note_on", "time": 2072, "note": 67, "velocity": 93, "channel": 0}, {"type": "note_off", "time": 310, "note": 67, "velocity": 93, "channel": 0}, {"type": "note_on", "time": 23, "note": 65, "velocity": 91, "channel": 0}, {"type": "note_off", "time": 400, "note": 65, "velocity": 91, "channel": 0}, {"type": "note_on", "time": 41, "note": 62, "velocity": 87, "channel": 0}, {"type": "note_off", "time": 519, "note": 62, "velocity": 87, "channel": 0}, {"type": "note_on", "time": 5, "note": 64, "velocity": 98, "channel": 0}, {"type": "note_off", "time": 394, "note": 64, "velocity": 98, "channel": 0}, {"type": "note_on", "time": 17, "note": 62, "velocity": 100, "channel": 0}, {"type": "note_off", "time": 400, "note": 62, "velocity": 100, "channel": 0}, {"type": "note_on", "time": 143, "note": 60, "velocity": 90, "channel": 0}, {"type": "note_off", "time": 197, "note": 60, "velocity": 90, "channel": 0}, {"type": "note_on", "time": 95, "note": 57, "velocity": 95, "channel": 0}, {"type": "note_off", "time": 388, "note": 57, "velocity": 95, "channel": 0}, {"type": "note_on", "time": 71, "note": 53, "velocity": 93, "channel": 0}, {"type": "note_off", "time": 310, "note": 53, "velocity": 93, "channel": 0}, {"type": "note_on", "time": 0, "note": 50, "velocity": 90, "channel": 0}, {"type": "note_off", "time": 453, "note": 50, "velocity": 90, "channel": 0}, {"type": "note_on", "time": 2066, "note": 50, "velocity": 92, "channel": 0}, {"type": "note_off", "time": 292, "note": 50, "velocity": 92, "channel": 0}, {"type": "note_on", "time": 131, "note": 53, "velocity": 96, "channel": 0}, {"type": "note_off", "time": 400, "note": 53, "velocity": 96, "channel": 0}, {"type": "note_on", "time": 0, "note": 57, "velocity": 94, "channel": 0}, {"type": "note_off", "time": 310, "note": 57, "velocity": 94, "channel": 0}, {"type": "note_on", "time": 101, "note": 66, "velocity": 102, "channel": 0}, {"type": "note_off", "time": 334, "note": 66, "velocity": 102, "channel": 0}, {"type": "note_on", "time": 29, "note": 68, "velocity": 93, "channel": 0}, {"type": "note_off", "time": 400, "note": 68, "velocity": 93, "channel": 0}, {"type": "note_on", "time": 83, "note": 67, "velocity": 95, "channel": 0}, {"type": "note_off", "time": 400, "note": 67, "velocity": 95, "channel": 0}, {"type": "note_on", "time": 47, "note": 62, "velocity": 84, "channel": 0}, {"type": "note_off", "time": 167, "note": 62, "velocity": 84, "channel": 0}, {"type": "note_on", "time": 1481, "note": 62, "velocity": 99, "channel": 0}, {"type": "note_off", "time": 424, "note": 62, "velocity": 99, "channel": 0}, {"type": "note_on", "time": 29, "note": 65, "velocity": 92, "channel": 0}, {"type": "note_off", "time": 334, "note": 65, "velocity": 92, "channel": 0}, {"type": "note_on", "time": 35, "note": 69, "velocity": 95, "channel": 0}, {"type": "note_off", "time": 244, "note": 69, "velocity": 95, "channel": 0}, {"type": "note_on", "time": 221, "note": 74, "velocity": 96, "channel": 0}, {"type": "note_off", "time": 292, "note": 74, "velocity": 96, "channel": 0}, {"type": "note_on", "time": 5, "note": 73, "velocity": 95, "channel": 0}, {"type": "note_off", "time": 137, "note": 73, "velocity": 95, "channel": 0}, {"type": "note_on", "time": 0, "note": 69, "velocity": 92, "channel": 0}, {"type": "note_off", "time": 561, "note": 69, "velocity": 92, "channel": 0}, {"type": "note_on", "time": 1176, "note": 71, "velocity": 103, "channel": 0}, {"type": "note_off", "time": 453, "note": 71, "velocity": 103, "channel": 0}, {"type": "note_on", "time": 53, "note": 67, "velocity": 99, "channel": 0}, {"type": "note_off", "time": 215, "note": 67, "velocity": 99, "channel": 0}, {"type": "note_on", "time": 23, "note": 65, "velocity": 101, "channel": 0}, {"type": "note_off", "time": 215, "note": 65, "velocity": 101, "channel": 0}, {"type": "note_on", "time": 0, "note": 62, "velocity": 107, "channel": 0}, {"type": "note_off", "time": 394, "note": 62, "velocity": 107, "channel": 0}, {"type": "note_on", "time": 95, "note": 58, "velocity": 94, "channel": 0}, {"type": "note_off", "time": 268, "note": 58, "velocity": 94, "channel": 0}, {"type": "note_on", "time": 137, "note": 65, "velocity": 105, "channel": 0}, {"type": "note_off", "time": 400, "note": 65, "velocity": 105, "channel": 0}, {"type": "note_on", "time": 1302, "note": 65, "velocity": 106, "channel": 0}, {"type": "note_off", "time": 465, "note": 65, "velocity": 106, "channel": 0}, {"type": "note_on", "time": 0, "note": 67, "velocity": 104, "channel": 0}, {"type": "note_off", "time": 400, "note": 67, "velocity": 104, "channel": 0}, {"type": "note_on", "time": 29, "note": 69, "velocity": 103, "channel": 0}, {"type": "note_off", "time": 322, "note": 69, "velocity": 103, "channel": 0}, {"type": "note_on", "time": 17, "note": 71, "velocity": 106, "channel": 0}, {"type": "note_off", "time": 334, "note": 71, "velocity": 106, "channel": 0}, {"type": "note_on", "time": 0, "note": 67, "velocity": 102, "channel": 0}, {"type": "note_off", "time": 615, "note": 67, "velocity": 102, "channel": 0}, {"type": "note_on", "time": 1027, "note": 71, "velocity": 108, "channel": 0}, {"type": "note_off", "time": 447, "note": 71, "velocity": 108, "channel": 0}, {"type": "note_on", "time": 35, "note": 67, "velocity": 105, "channel": 0}, {"type": "note_off", "time": 400, "note": 67, "velocity": 105, "channel": 0}, {"type": "note_on", "time": 453, "note": 69, "velocity": 117, "channel": 0}, {"type": "note_off", "time": 794, "note": 69, "velocity": 117, "channel": 0}, {"type": "note_on", "time": 1218, "note": 69, "velocity": 100, "channel": 0}, {"type": "note_off", "time": 561, "note": 69, "velocity": 100, "channel": 0}, {"type": "note_on", "time": 11, "note": 72, "velocity": 102, "channel": 0}, {"type": "note_off", "time": 292, "note": 72, "velocity": 102, "channel": 0}, {"type": "note_on", "time": 0, "note": 71, "velocity": 103, "channel": 0}, {"type": "note_off", "time": 298, "note": 71, "velocity": 103, "channel": 0}, {"type": "note_on", "time": 107, "note": 69, "velocity": 99, "channel": 0}, {"type": "note_off", "time": 376, "note": 69, "velocity": 99, "channel": 0}, {"type": "note_on", "time": 0, "note": 67, "velocity": 100, "channel": 0}, {"type": "note_off", "time": 448, "note": 67, "velocity": 100, "channel": 0}, {"type": "note_on", "time": 1391, "note": 70, "velocity": 114, "channel": 0}, {"type": "note_off", "time": 161, "note": 70, "velocity": 114, "channel": 0}, {"type": "note_on", "time": 0, "note": 71, "velocity": 113, "channel": 0}, {"type": "note_off", "time": 931, "note": 71, "velocity": 113, "channel": 0}, {"type": "note_on", "time": 119, "note": 67, "velocity": 104, "channel": 0}, {"type": "note_off", "time": 382, "note": 67, "velocity": 104, "channel": 0}, {"type": "note_on", "time": 5, "note": 65, "velocity": 102, "channel": 0}, {"type": "note_off", "time": 453, "note": 65, "velocity": 102, "channel": 0}, {"type": "note_on", "time": 53, "note": 67, "velocity": 95, "channel": 0}, {"type": "note_off", "time": 376, "note": 67, "velocity": 95, "channel": 0}, {"type": "note_on", "time": 23, "note": 69, "velocity": 95, "channel": 0}, {"type": "note_off", "time": 340, "note": 69, "velocity": 95, "channel": 0}, {"type": "note_on", "time": 0, "note": 65, "velocity": 99, "channel": 0}, {"type": "note_off", "time": 352, "note": 65, "velocity": 99, "channel": 0}, {"type": "note_on", "time": 0, "note": 62, "velocity": 107, "channel": 0}, {"type": "note_off", "time": 543, "note": 62, "velocity": 107, "channel": 0}, {"type": "note_on", "time": 1134, "note": 63, "velocity": 113, "channel": 0}, {"type": "note_off", "time": 448, "note": 63, "velocity": 113, "channel": 0}, {"type": "note_on", "time": 0, "note": 64, "velocity": 115, "channel": 0}, {"type": "note_off", "time": 591, "note": 64, "velocity": 115, "channel": 0}, {"type": "note_on", "time": 35, "note": 65, "velocity": 107, "channel": 0}, {"type": "note_off", "time": 209, "note": 65, "velocity": 107, "channel": 0}, {"type": "note_on", "time": 47, "note": 67, "velocity": 103, "channel": 0}, {"type": "note_off", "time": 376, "note": 67, "velocity": 103, "channel": 0}, {"type": "note_on", "time": 65, "note": 64, "velocity": 114, "channel": 0}, {"type": "note_off", "time": 501, "note": 64, "velocity": 114, "channel": 0}, {"type": "note_on", "time": 41, "note": 65, "velocity": 102, "channel": 0}, {"type": "note_off", "time": 286, "note": 65, "velocity": 102, "channel": 0}, {"type": "note_on", "time": 77, "note": 67, "velocity": 95, "channel": 0}, {"type": "note_off", "time": 340, "note": 67, "velocity": 95, "channel": 0}, {"type": "note_on", "time": 107, "note": 69, "velocity": 96, "channel": 0}, {"type": "note_off", "time": 250, "note": 69, "velocity": 96, "channel": 0}, {"type": "note_on", "time": 5, "note": 65, "velocity": 98, "channel": 0}, {"type": "note_off", "time": 430, "note": 65, "velocity": 98, "channel": 0}, {"type": "note_on", "time": 0, "note": 64, "velocity": 103, "channel": 0}, {"type": "note_off", "time": 376, "note": 64, "velocity": 103, "channel": 0}, {"type": "note_on", "time": 0, "note": 63, "velocity": 105, "channel": 0}, {"type": "note_off", "time": 459, "note": 63, "velocity": 105, "channel": 0}, {"type": "note_on", "time": 101, "note": 67, "velocity": 101, "channel": 0}, {"type": "note_off", "time": 304, "note": 67, "velocity": 101, "channel": 0}, {"type": "note_on", "time": 29, "note": 62, "velocity": 101, "channel": 0}, {"type": "note_off", "time": 471, "note": 62, "velocity": 101, "channel": 0}, {"type": "note_on", "time": 1720, "note": 62, "velocity": 112, "channel": 0}, {"type": "note_off", "time": 322, "note": 62, "velocity": 112, "channel": 0}, {"type": "note_on", "time": 41, "note": 63, "velocity": 114, "channel": 0}, {"type": "note_off", "time": 609, "note": 63, "velocity": 114, "channel": 0}, {"type": "note_on", "time": 29, "note": 61, "velocity": 101, "channel": 0}, {"type": "note_off", "time": 352, "note": 61, "velocity": 101, "channel": 0}, {"type": "note_on", "time": 5, "note": 63, "velocity": 105, "channel": 0}, {"type": "note_off", "time": 400, "note": 63, "velocity": 105, "channel": 0}, {"type": "note_on", "time": 17, "note": 61, "velocity": 100, "channel": 0}, {"type": "note_off", "time": 226, "note": 61, "velocity": 100, "channel": 0}, {"type": "note_on", "time": 11, "note": 59, "velocity": 97, "channel": 0}, {"type": "note_off", "time": 358, "note": 59, "velocity": 97, "channel": 0}, {"type": "note_on", "time": 5, "note": 58, "velocity": 95, "channel": 0}, {"type": "note_off", "time": 268, "note": 58, "velocity": 95, "channel": 0}, {"type": "note_on", "time": 65, "note": 57, "velocity": 97, "channel": 0}, {"type": "note_off", "time": 549, "note": 57, "velocity": 97, "channel": 0}, {"type": "note_on", "time": 1308, "note": 57, "velocity": 101, "channel": 0}, {"type": "note_off", "time": 430, "note": 57, "velocity": 101, "channel": 0}, {"type": "note_on", "time": 0, "note": 61, "velocity": 105, "channel": 0}, {"type": "note_off", "time": 418, "note": 61, "velocity": 105, "channel": 0}, {"type": "note_on", "time": 5, "note": 65, "velocity": 96, "channel": 0}, {"type": "note_off", "time": 382, "note": 65, "velocity": 96, "channel": 0}, {"type": "note_on", "time": 29, "note": 69, "velocity": 102, "channel": 0}, {"type": "note_off", "time": 161, "note": 69, "velocity": 102, "channel": 0}, {"type": "note_on", "time": 11, "note": 71, "velocity": 105, "channel": 0}, {"type": "note_off", "time": 215, "note": 71, "velocity": 105, "channel": 0}, {"type": "note_on", "time": 11, "note": 68, "velocity": 98, "channel": 0}, {"type": "note_off", "time": 346, "note": 68, "velocity": 98, "channel": 0}, {"type": "note_on", "time": 1745, "note": 64, "velocity": 101, "channel": 0}, {"type": "note_off", "time": 260, "note": 64, "velocity": 101, "channel": 0}, {"type": "note_on", "time": 8, "note": 65, "velocity": 105, "channel": 0}, {"type": "note_on", "time": 159, "note": 66, "velocity": 101, "channel": 0}, {"type": "note_off", "time": 0, "note": 65, "velocity": 105, "channel": 0}, {"type": "note_off", "time": 2158, "note": 66, "velocity": 101, "channel": 0}, {"type": "note_on", "time": 67, "note": 65, "velocity": 100, "channel": 0}, {"type": "note_off", "time": 369, "note": 65, "velocity": 100, "channel": 0}, {"type": "note_on", "time": 58, "note": 64, "velocity": 102, "channel": 0}, {"type": "note_off", "time": 411, "note": 64, "velocity": 102, "channel": 0}, {"type": "note_on", "time": 0, "note": 63, "velocity": 104, "channel": 0}, {"type": "note_off", "time": 319, "note": 63, "velocity": 104, "channel": 0}, {"type": "note_on", "time": 58, "note": 63, "velocity": 110, "channel": 0}, {"type": "note_off", "time": 462, "note": 63, "velocity": 110, "channel": 0}, {"type": "note_on", "time": 25, "note": 66, "velocity": 106, "channel": 0}, {"type": "note_off", "time": 369, "note": 66, "velocity": 106, "channel": 0}, {"type": "note_on", "time": 0, "note": 65, "velocity": 109, "channel": 0}, {"type": "note_off", "time": 436, "note": 65, "velocity": 109, "channel": 0}, {"type": "note_on", "time": 67, "note": 63, "velocity": 112, "channel": 0}, {"type": "note_off", "time": 453, "note": 63, "velocity": 112, "channel": 0}, {"type": "note_on", "time": 25, "note": 61, "velocity": 110, "channel": 0}, {"type": "note_off", "time": 277, "note": 61, "velocity": 110, "channel": 0}, {"type": "note_on", "time": 8, "note": 60, "velocity": 106, "channel": 0}, {"type": "note_off", "time": 478, "note": 60, "velocity": 106, "channel": 0}, {"type": "note_on", "time": 8, "note": 59, "velocity": 105, "channel": 0}, {"type": "note_off", "time": 352, "note": 59, "velocity": 105, "channel": 0}, {"type": "note_on", "time": 16, "note": 58, "velocity": 103, "channel": 0}, {"type": "note_off", "time": 310, "note": 58, "velocity": 103, "channel": 0}, {"type": "note_on", "time": 16, "note": 57, "velocity": 99, "channel": 0}, {"type": "note_off", "time": 504, "note": 57, "velocity": 99, "channel": 0}, {"type": "note_on", "time": 67, "note": 56, "velocity": 99, "channel": 0}, {"type": "note_off", "time": 260, "note": 56, "velocity": 99, "channel": 0}, {"type": "note_on", "time": 84, "note": 55, "velocity": 91, "channel": 0}, {"type": "note_off", "time": 495, "note": 55, "velocity": 91, "channel": 0}, {"type": "note_on", "time": 3301, "note": 72, "velocity": 93, "channel": 0}, {"type": "note_off", "time": 504, "note": 72, "velocity": 93, "channel": 0}, {"type": "note_on", "time": 92, "note": 73, "velocity": 96, "channel": 0}, {"type": "note_off", "time": 1957, "note": 73, "velocity": 96, "channel": 0}, {"type": "note_on", "time": 117, "note": 70, "velocity": 93, "channel": 0}, {"type": "note_off", "time": 369, "note": 70, "velocity": 93, "channel": 0}, {"type": "note_on", "time": 0, "note": 71, "velocity": 101, "channel": 0}, {"type": "note_off", "time": 293, "note": 71, "velocity": 101, "channel": 0}, {"type": "note_on", "time": 100, "note": 67, "velocity": 99, "channel": 0}, {"type": "note_off", "time": 335, "note": 67, "velocity": 99, "channel": 0}, {"type": "note_on", "time": 0, "note": 66, "velocity": 91, "channel": 0}, {"type": "note_off", "time": 487, "note": 66, "velocity": 91, "channel": 0}, {"type": "note_on", "time": 80, "note": 70, "velocity": 99, "channel": 0}, {"type": "note_off", "time": 328, "note": 70, "velocity": 99, "channel": 0}, {"type": "note_on", "time": 35, "note": 69, "velocity": 97, "channel": 0}, {"type": "note_off", "time": 388, "note": 69, "velocity": 97, "channel": 0}, {"type": "note_on", "time": 149, "note": 66, "velocity": 92, "channel": 0}, {"type": "note_off", "time": 191, "note": 66, "velocity": 92, "channel": 0}, {"type": "note_on", "time": 41, "note": 65, "velocity": 101, "channel": 0}, {"type": "note_off", "time": 209, "note": 65, "velocity": 101, "channel": 0}, {"type": "note_on", "time": 23, "note": 64, "velocity": 104, "channel": 0}, {"type": "note_off", "time": 340, "note": 64, "velocity": 104, "channel": 0}, {"type": "note_on", "time": 83, "note": 63, "velocity": 108, "channel": 0}, {"type": "note_off", "time": 507, "note": 63, "velocity": 108, "channel": 0}, {"type": "note_on", "time": 59, "note": 65, "velocity": 100, "channel": 0}, {"type": "note_off", "time": 561, "note": 65, "velocity": 100, "channel": 0}, {"type": "note_on", "time": 17, "note": 63, "velocity": 107, "channel": 0}, {"type": "note_off", "time": 430, "note": 63, "velocity": 107, "channel": 0}, {"type": "note_on", "time": 65, "note": 61, "velocity": 102, "channel": 0}, {"type": "note_off", "time": 340, "note": 61, "velocity": 102, "channel": 0}, {"type": "note_on", "time": 47, "note": 60, "velocity": 100, "channel": 0}, {"type": "note_off", "time": 549, "note": 60, "velocity": 100, "channel": 0}, {"type": "note_on", "time": 47, "note": 59, "velocity": 100, "channel": 0}, {"type": "note_off", "time": 268, "note": 59, "velocity": 100, "channel": 0}, {"type": "note_on", "time": 23, "note": 58, "velocity": 95, "channel": 0}, {"type": "note_off", "time": 483, "note": 58, "velocity": 95, "channel": 0}, {"type": "note_on", "time": 59, "note": 57, "velocity": 95, "channel": 0}, {"type": "note_off", "time": 268, "note": 57, "velocity": 95, "channel": 0}, {"type": "note_on", "time": 11, "note": 56, "velocity": 95, "channel": 0}, {"type": "note_off", "time": 573, "note": 56, "velocity": 95, "channel": 0}, {"type": "note_on", "time": 5, "note": 55, "velocity": 92, "channel": 0}, {"type": "note_off", "time": 328, "note": 55, "velocity": 92, "channel": 0}, {"type": "note_on", "time": 59, "note": 59, "velocity": 93, "channel": 0}, {"type": "note_off", "time": 328, "note": 59, "velocity": 93, "channel": 0}, {"type": "note_on", "time": 53, "note": 57, "velocity": 99, "channel": 0}, {"type": "note_off", "time": 292, "note": 57, "velocity": 99, "channel": 0}, {"type": "note_on", "time": 131, "note": 62, "velocity": 100, "channel": 0}, {"type": "note_off", "time": 483, "note": 62, "velocity": 100, "channel": 0}, {"type": "note_on", "time": 0, "note": 65, "velocity": 96, "channel": 0}, {"type": "note_off", "time": 346, "note": 65, "velocity": 96, "channel": 0}, {"type": "note_on", "time": 95, "note": 69, "velocity": 93, "channel": 0}, {"type": "note_off", "time": 262, "note": 69, "velocity": 93, "channel": 0}, {"type": "note_on", "time": 77, "note": 63, "velocity": 107, "channel": 0}, {"type": "note_off", "time": 519, "note": 63, "velocity": 107, "channel": 0}, {"type": "note_on", "time": 29, "note": 68, "velocity": 101, "channel": 0}, {"type": "note_off", "time": 424, "note": 68, "velocity": 101, "channel": 0}, {"type": "note_on", "time": 71, "note": 72, "velocity": 100, "channel": 0}, {"type": "note_off", "time": 459, "note": 72, "velocity": 100, "channel": 0}, {"type": "note_on", "time": 11, "note": 60, "velocity": 109, "channel": 0}, {"type": "note_off", "time": 758, "note": 60, "velocity": 109, "channel": 0}, {"type": "note_on", "time": 2407, "note": 70, "velocity": 103, "channel": 0}, {"type": "note_off", "time": 1780, "note": 70, "velocity": 103, "channel": 0}, {"type": "note_on", "time": 41, "note": 65, "velocity": 90, "channel": 0}, {"type": "note_off", "time": 226, "note": 65, "velocity": 90, "channel": 0}, {"type": "note_on", "time": 59, "note": 68, "velocity": 101, "channel": 0}, {"type": "note_off", "time": 406, "note": 68, "velocity": 101, "channel": 0}, {"type": "note_on", "time": 23, "note": 66, "velocity": 98, "channel": 0}, {"type": "note_off", "time": 298, "note": 66, "velocity": 98, "channel": 0}, {"type": "note_on", "time": 119, "note": 63, "velocity": 104, "channel": 0}, {"type": "note_off", "time": 591, "note": 63, "velocity": 104, "channel": 0}, {"type": "note_on", "time": 226, "note": 65, "velocity": 100, "channel": 0}, {"type": "note_off", "time": 418, "note": 65, "velocity": 100, "channel": 0}, {"type": "note_on", "time": 95, "note": 60, "velocity": 97, "channel": 0}, {"type": "note_off", "time": 316, "note": 60, "velocity": 97, "channel": 0}, {"type": "note_on", "time": 29, "note": 56, "velocity": 98, "channel": 0}, {"type": "note_off", "time": 406, "note": 56, "velocity": 98, "channel": 0}, {"type": "note_on", "time": 161, "note": 53, "velocity": 103, "channel": 0}, {"type": "note_off", "time": 262, "note": 53, "velocity": 103, "channel": 0}, {"type": "note_on", "time": 95, "note": 58, "velocity": 98, "channel": 0}, {"type": "note_off", "time": 406, "note": 58, "velocity": 98, "channel": 0}, {"type": "note_on", "time": 5, "note": 60, "velocity": 94, "channel": 0}, {"type": "note_off", "time": 262, "note": 60, "velocity": 94, "channel": 0}, {"type": "note_on", "time": 35, "note": 65, "velocity": 98, "channel": 0}, {"type": "note_off", "time": 519, "note": 65, "velocity": 98, "channel": 0}, {"type": "note_on", "time": 0, "note": 63, "velocity": 105, "channel": 0}, {"type": "note_off", "time": 782, "note": 63, "velocity": 105, "channel": 0}, {"type": "note_on", "time": 77, "note": 62, "velocity": 108, "channel": 0}, {"type": "note_off", "time": 203, "note": 62, "velocity": 108, "channel": 0}, {"type": "note_on", "time": 83, "note": 58, "velocity": 105, "channel": 0}, {"type": "note_off", "time": 686, "note": 58, "velocity": 105, "channel": 0}, {"type": "note_on", "time": 3763, "note": 73, "velocity": 92, "channel": 0}, {"type": "note_off", "time": 280, "note": 73, "velocity": 92, "channel": 0}, {"type": "note_on", "time": 17, "note": 70, "velocity": 101, "channel": 0}, {"type": "note_off", "time": 812, "note": 70, "velocity": 101, "channel": 0}, {"type": "note_on", "time": 23, "note": 71, "velocity": 106, "channel": 0}, {"type": "note_off", "time": 322, "note": 71, "velocity": 106, "channel": 0}, {"type": "note_on", "time": 113, "note": 68, "velocity": 106, "channel": 0}, {"type": "note_off", "time": 370, "note": 68, "velocity": 106, "channel": 0}, {"type": "note_on", "time": 59, "note": 65, "velocity": 98, "channel": 0}, {"type": "note_off", "time": 316, "note": 65, "velocity": 98, "channel": 0}, {"type": "note_on", "time": 23, "note": 67, "velocity": 103, "channel": 0}, {"type": "note_off", "time": 489, "note": 67, "velocity": 103, "channel": 0}, {"type": "note_on", "time": 0, "note": 69, "velocity": 89, "channel": 0}, {"type": "note_off", "time": 95, "note": 69, "velocity": 89, "channel": 0}, {"type": "note_on", "time": 11, "note": 70, "velocity": 103, "channel": 0}, {"type": "note_off", "time": 418, "note": 70, "velocity": 103, "channel": 0}, {"type": "note_on", "time": 0, "note": 63, "velocity": 100, "channel": 0}, {"type": "note_off", "time": 358, "note": 63, "velocity": 100, "channel": 0}, {"type": "note_on", "time": 23, "note": 65, "velocity": 98, "channel": 0}, {"type": "note_off", "time": 334, "note": 65, "velocity": 98, "channel": 0}, {"type": "note_on", "time": 17, "note": 67, "velocity": 96, "channel": 0}, {"type": "note_off", "time": 376, "note": 67, "velocity": 96, "channel": 0}, {"type": "note_on", "time": 35, "note": 69, "velocity": 102, "channel": 0}, {"type": "note_off", "time": 274, "note": 69, "velocity": 102, "channel": 0}, {"type": "note_on", "time": 0, "note": 64, "velocity": 98, "channel": 0}, {"type": "note_off", "time": 549, "note": 64, "velocity": 98, "channel": 0}, {"type": "note_on", "time": 59, "note": 66, "velocity": 96, "channel": 0}, {"type": "note_off", "time": 292, "note": 66, "velocity": 96, "channel": 0}, {"type": "note_on", "time": 29, "note": 68, "velocity": 98, "channel": 0}, {"type": "note_off", "time": 268, "note": 68, "velocity": 98, "channel": 0}, {"type": "note_on", "time": 101, "note": 70, "velocity": 95, "channel": 0}, {"type": "note_off", "time": 364, "note": 70, "velocity": 95, "channel": 0}, {"type": "note_on", "time": 35, "note": 66, "velocity": 93, "channel": 0}, {"type": "note_off", "time": 334, "note": 66, "velocity": 93, "channel": 0}, {"type": "note_on", "time": 77, "note": 64, "velocity": 98, "channel": 0}, {"type": "note_off", "time": 358, "note": 64, "velocity": 98, "channel": 0}, {"type": "note_on", "time": 11, "note": 63, "velocity": 101, "channel": 0}, {"type": "note_off", "time": 430, "note": 63, "velocity": 101, "channel": 0}, {"type": "note_on", "time": 71, "note": 66, "velocity": 97, "channel": 0}, {"type": "note_off", "time": 489, "note": 66, "velocity": 97, "channel": 0}, {"type": "note_on", "time": 0, "note": 64, "velocity": 103, "channel": 0}, {"type": "note_off", "time": 262, "note": 64, "velocity": 103, "channel": 0}, {"type": "note_on", "time": 0, "note": 62, "velocity": 106, "channel": 0}, {"type": "note_off", "time": 531, "note": 62, "velocity": 106, "channel": 0}, {"type": "note_on", "time": 11, "note": 61, "velocity": 98, "channel": 0}, {"type": "note_off", "time": 495, "note": 61, "velocity": 98, "channel": 0}, {"type": "note_on", "time": 23, "note": 63, "velocity": 101, "channel": 0}, {"type": "note_off", "time": 250, "note": 63, "velocity": 101, "channel": 0}, {"type": "note_on", "time": 0, "note": 62, "velocity": 104, "channel": 0}, {"type": "note_off", "time": 561, "note": 62, "velocity": 104, "channel": 0}, {"type": "note_on", "time": 47, "note": 64, "velocity": 101, "channel": 0}, {"type": "note_off", "time": 310, "note": 64, "velocity": 101, "channel": 0}, {"type": "note_on", "time": 59, "note": 66, "velocity": 100, "channel": 0}, {"type": "note_off", "time": 340, "note": 66, "velocity": 100, "channel": 0}, {"type": "note_on", "time": 95, "note": 68, "velocity": 99, "channel": 0}, {"type": "note_off", "time": 262, "note": 68, "velocity": 99, "channel": 0}, {"type": "note_on", "time": 173, "note": 63, "velocity": 111, "channel": 0}, {"type": "note_off", "time": 406, "note": 63, "velocity": 111, "channel": 0}, {"type": "note_on", "time": 0, "note": 66, "velocity": 95, "channel": 0}, {"type": "note_off", "time": 471, "note": 66, "velocity": 95, "channel": 0}, {"type": "note_on", "time": 59, "note": 65, "velocity": 94, "channel": 0}, {"type": "note_off", "time": 262, "note": 65, "velocity": 94, "channel": 0}, {"type": "note_on", "time": 23, "note": 67, "velocity": 98, "channel": 0}, {"type": "note_off", "time": 400, "note": 67, "velocity": 98, "channel": 0}, {"type": "note_on", "time": 29, "note": 64, "velocity": 101, "channel": 0}, {"type": "note_off", "time": 1224, "note": 64, "velocity": 101, "channel": 0}, {"type": "note_on", "time": 59, "note": 67, "velocity": 99, "channel": 0}, {"type": "note_off", "time": 304, "note": 67, "velocity": 99, "channel": 0}, {"type": "note_on", "time": 95, "note": 61, "velocity": 99, "channel": 0}, {"type": "note_off", "time": 382, "note": 61, "velocity": 99, "channel": 0}, {"type": "note_on", "time": 101, "note": 60, "velocity": 102, "channel": 0}, {"type": "note_off", "time": 406, "note": 60, "velocity": 102, "channel": 0}, {"type": "note_on", "time": 23, "note": 59, "velocity": 105, "channel": 0}, {"type": "note_off", "time": 358, "note": 59, "velocity": 105, "channel": 0}, {"type": "note_on", "time": 47, "note": 58, "velocity": 106, "channel": 0}, {"type": "note_off", "time": 310, "note": 58, "velocity": 106, "channel": 0}, {"type": "note_on", "time": 0, "note": 57, "velocity": 104, "channel": 0}, {"type": "note_off", "time": 519, "note": 57, "velocity": 104, "channel": 0}, {"type": "note_on", "time": 77, "note": 56, "velocity": 100, "channel": 0}, {"type": "note_off", "time": 262, "note": 56, "velocity": 100, "channel": 0}, {"type": "note_on", "time": 83, "note": 55, "velocity": 96, "channel": 0}, {"type": "note_off", "time": 358, "note": 55, "velocity": 96, "channel": 0}, {"type": "note_on", "time": 83, "note": 59, "velocity": 100, "channel": 0}, {"type": "note_off", "time": 298, "note": 59, "velocity": 100, "channel": 0}, {"type": "note_on", "time": 17, "note": 57, "velocity": 96, "channel": 0}, {"type": "note_off", "time": 412, "note": 57, "velocity": 96, "channel": 0}, {"type": "note_on", "time": 119, "note": 62, "velocity": 98, "channel": 0}, {"type": "note_off", "time": 316, "note": 62, "velocity": 98, "channel": 0}, {"type": "note_on", "time": 179, "note": 65, "velocity": 90, "channel": 0}, {"type": "note_off", "time": 244, "note": 65, "velocity": 90, "channel": 0}, {"type": "note_on", "time": 59, "note": 69, "velocity": 86, "channel": 0}, {"type": "note_off", "time": 274, "note": 69, "velocity": 86, "channel": 0}, {"type": "note_on", "time": 35, "note": 72, "velocity": 98, "channel": 0}, {"type": "note_off", "time": 298, "note": 72, "velocity": 98, "channel": 0}, {"type": "note_on", "time": 89, "note": 72, "velocity": 90, "channel": 0}, {"type": "note_off", "time": 364, "note": 72, "velocity": 90, "channel": 0}, {"type": "note_on", "time": 83, "note": 69, "velocity": 96, "channel": 0}, {"type": "note_off", "time": 328, "note": 69, "velocity": 96, "channel": 0}, {"type": "note_on", "time": 5, "note": 71, "velocity": 103, "channel": 0}, {"type": "note_off", "time": 268, "note": 71, "velocity": 103, "channel": 0}, {"type": "note_on", "time": 89, "note": 69, "velocity": 104, "channel": 0}, {"type": "note_off", "time": 400, "note": 69, "velocity": 104, "channel": 0}, {"type": "note_on", "time": 83, "note": 65, "velocity": 109, "channel": 0}, {"type": "note_off", "time": 244, "note": 65, "velocity": 109, "channel": 0}, {"type": "note_on", "time": 5, "note": 64, "velocity": 113, "channel": 0}, {"type": "note_off", "time": 513, "note": 64, "velocity": 113, "channel": 0}, {"type": "note_on", "time": 167, "note": 62, "velocity": 90, "channel": 0}, {"type": "note_off", "time": 215, "note": 62, "velocity": 90, "channel": 0}, {"type": "note_on", "time": 65, "note": 67, "velocity": 101, "channel": 0}, {"type": "note_off", "time": 268, "note": 67, "velocity": 101, "channel": 0}, {"type": "note_on", "time": 1025, "note": 71, "velocity": 94, "channel": 0}, {"type": "note_off", "time": 319, "note": 71, "velocity": 94, "channel": 0}, {"type": "note_on", "time": 0, "note": 70, "velocity": 100, "channel": 0}, {"type": "note_off", "time": 588, "note": 70, "velocity": 100, "channel": 0}, {"type": "note_on", "time": 26, "note": 65, "velocity": 99, "channel": 0}, {"type": "note_off", "time": 137, "note": 65, "velocity": 99, "channel": 0}, {"type": "note_on", "time": 95, "note": 66, "velocity": 96, "channel": 0}, {"type": "note_off", "time": 262, "note": 66, "velocity": 96, "channel": 0}, {"type": "note_on", "time": 59, "note": 65, "velocity": 94, "channel": 0}, {"type": "note_off", "time": 256, "note": 65, "velocity": 94, "channel": 0}, {"type": "note_on", "time": 143, "note": 68, "velocity": 97, "channel": 0}, {"type": "note_off", "time": 280, "note": 68, "velocity": 97, "channel": 0}, {"type": "note_on", "time": 185, "note": 64, "velocity": 105, "channel": 0}, {"type": "note_off", "time": 358, "note": 64, "velocity": 105, "channel": 0}, {"type": "note_on", "time": 35, "note": 61, "velocity": 100, "channel": 0}, {"type": "note_off", "time": 203, "note": 61, "velocity": 100, "channel": 0}, {"type": "note_on", "time": 185, "note": 59, "velocity": 99, "channel": 0}, {"type": "note_off", "time": 322, "note": 59, "velocity": 99, "channel": 0}, {"type": "note_on", "time": 0, "note": 58, "velocity": 107, "channel": 0}, {"type": "note_off", "time": 292, "note": 58, "velocity": 107, "channel": 0}, {"type": "note_on", "time": 41, "note": 57, "velocity": 104, "channel": 0}, {"type": "note_off", "time": 376, "note": 57, "velocity": 104, "channel": 0}, {"type": "note_on", "time": 77, "note": 56, "velocity": 106, "channel": 0}, {"type": "note_off", "time": 209, "note": 56, "velocity": 106, "channel": 0}, {"type": "note_on", "time": 29, "note": 55, "velocity": 107, "channel": 0}, {"type": "note_off", "time": 406, "note": 55, "velocity": 107, "channel": 0}, {"type": "note_on", "time": 89, "note": 59, "velocity": 102, "channel": 0}, {"type": "note_off", "time": 244, "note": 59, "velocity": 102, "channel": 0}, {"type": "note_on", "time": 125, "note": 57, "velocity": 101, "channel": 0}, {"type": "note_off", "time": 453, "note": 57, "velocity": 101, "channel": 0}, {"type": "note_on", "time": 4432, "note": 68, "velocity": 93, "channel": 0}, {"type": "note_off", "time": 191, "note": 68, "velocity": 93, "channel": 0}, {"type": "note_on", "time": 0, "note": 69, "velocity": 97, "channel": 0}, {"type": "note_off", "time": 376, "note": 69, "velocity": 97, "channel": 0}, {"type": "note_on", "time": 800, "note": 68, "velocity": 94, "channel": 0}, {"type": "note_off", "time": 143, "note": 68, "velocity": 94, "channel": 0}, {"type": "note_on", "time": 29, "note": 69, "velocity": 97, "channel": 0}, {"type": "note_off", "time": 489, "note": 69, "velocity": 97, "channel": 0}, {"type": "note_on", "time": 232, "note": 61, "velocity": 103, "channel": 0}, {"type": "note_off", "time": 448, "note": 61, "velocity": 103, "channel": 0}, {"type": "note_on", "time": 0, "note": 62, "velocity": 101, "channel": 0}, {"type": "note_off", "time": 244, "note": 62, "velocity": 101, "channel": 0}, {"type": "note_on", "time": 35, "note": 61, "velocity": 100, "channel": 0}, {"type": "note_off", "time": 149, "note": 61, "velocity": 100, "channel": 0}, {"type": "note_on", "time": 3130, "note": 67, "velocity": 94, "channel": 0}, {"type": "note_off", "time": 1529, "note": 67, "velocity": 94, "channel": 0}, {"type": "note_on", "time": 53, "note": 65, "velocity": 96, "channel": 0}, {"type": "note_off", "time": 340, "note": 65, "velocity": 96, "channel": 0}, {"type": "note_on", "time": 41, "note": 62, "velocity": 106, "channel": 0}, {"type": "note_off", "time": 561, "note": 62, "velocity": 106, "channel": 0}, {"type": "note_on", "time": 35, "note": 59, "velocity": 92, "channel": 0}, {"type": "note_off", "time": 394, "note": 59, "velocity": 92, "channel": 0}, {"type": "note_on", "time": 3464, "note": 67, "velocity": 95, "channel": 0}, {"type": "note_off", "time": 1744, "note": 67, "velocity": 95, "channel": 0}, {"type": "note_on", "time": 179, "note": 62, "velocity": 93, "channel": 0}, {"type": "note_off", "time": 286, "note": 62, "velocity": 93, "channel": 0}, {"type": "note_on", "time": 35, "note": 67, "velocity": 97, "channel": 0}, {"type": "note_off", "time": 394, "note": 67, "velocity": 97, "channel": 0}, {"type": "note_on", "time": 83, "note": 70, "velocity": 97, "channel": 0}, {"type": "note_off", "time": 268, "note": 70, "velocity": 97, "channel": 0}, {"type": "note_on", "time": 47, "note": 71, "velocity": 101, "channel": 0}, {"type": "note_off", "time": 280, "note": 71, "velocity": 101, "channel": 0}, {"type": "note_on", "time": 29, "note": 70, "velocity": 100, "channel": 0}, {"type": "note_off", "time": 101, "note": 70, "velocity": 100, "channel": 0}, {"type": "note_on", "time": 0, "note": 67, "velocity": 101, "channel": 0}, {"type": "note_off", "time": 453, "note": 67, "velocity": 101, "channel": 0}, {"type": "note_on", "time": 71, "note": 65, "velocity": 101, "channel": 0}, {"type": "note_off", "time": 400, "note": 65, "velocity": 101, "channel": 0}, {"type": "note_on", "time": 35, "note": 67, "velocity": 96, "channel": 0}, {"type": "note_off", "time": 203, "note": 67, "velocity": 96, "channel": 0}, {"type": "note_on", "time": 59, "note": 69, "velocity": 96, "channel": 0}, {"type": "note_off", "time": 352, "note": 69, "velocity": 96, "channel": 0}, {"type": "note_on", "time": 29, "note": 67, "velocity": 100, "channel": 0}, {"type": "note_off", "time": 430, "note": 67, "velocity": 100, "channel": 0}, {"type": "note_on", "time": 107, "note": 65, "velocity": 104, "channel": 0}, {"type": "note_off", "time": 465, "note": 65, "velocity": 104, "channel": 0}, {"type": "note_on", "time": 101, "note": 67, "velocity": 96, "channel": 0}, {"type": "note_off", "time": 304, "note": 67, "velocity": 96, "channel": 0}, {"type": "note_on", "time": 71, "note": 69, "velocity": 96, "channel": 0}, {"type": "note_off", "time": 304, "note": 69, "velocity": 96, "channel": 0}, {"type": "note_on", "time": 167, "note": 62, "velocity": 86, "channel": 0}, {"type": "note_off", "time": 232, "note": 62, "velocity": 86, "channel": 0}, {"type": "note_on", "time": 59, "note": 67, "velocity": 99, "channel": 0}, {"type": "note_off", "time": 394, "note": 67, "velocity": 99, "channel": 0}, {"type": "note_on", "time": 209, "note": 62, "velocity": 105, "channel": 0}, {"type": "note_off", "time": 298, "note": 62, "velocity": 105, "channel": 0}, {"type": "note_on", "time": 47, "note": 59, "velocity": 97, "channel": 0}, {"type": "note_off", "time": 316, "note": 59, "velocity": 97, "channel": 0}, {"type": "note_on", "time": 59, "note": 55, "velocity": 98, "channel": 0}, {"type": "note_off", "time": 292, "note": 55, "velocity": 98, "channel": 0}, {"type": "note_on", "time": 179, "note": 50, "velocity": 99, "channel": 0}, {"type": "note_off", "time": 394, "note": 50, "velocity": 99, "channel": 0}, {"type": "note_on", "time": 95, "note": 53, "velocity": 97, "channel": 0}, {"type": "note_on", "time": 226, "note": 57, "velocity": 97, "channel": 0}, {"type": "note_off", "time": 0, "note": 53, "velocity": 97, "channel": 0}, {"type": "note_off", "time": 310, "note": 57, "velocity": 97, "channel": 0}, {"type": "note_on", "time": 143, "note": 67, "velocity": 107, "channel": 0}, {"type": "note_off", "time": 334, "note": 67, "velocity": 107, "channel": 0}, {"type": "note_on", "time": 107, "note": 69, "velocity": 100, "channel": 0}, {"type": "note_off", "time": 274, "note": 69, "velocity": 100, "channel": 0}, {"type": "note_on", "time": 137, "note": 67, "velocity": 109, "channel": 0}, {"type": "note_off", "time": 406, "note": 67, "velocity": 109, "channel": 0}, {"type": "note_on", "time": 47, "note": 62, "velocity": 94, "channel": 0}, {"type": "note_off", "time": 340, "note": 62, "velocity": 94, "channel": 0}, {"type": "note_on", "time": 209, "note": 67, "velocity": 106, "channel": 0}, {"type": "note_off", "time": 376, "note": 67, "velocity": 106, "channel": 0}, {"type": "note_on", "time": 95, "note": 60, "velocity": 98, "channel": 0}, {"type": "note_off", "time": 394, "note": 60, "velocity": 98, "channel": 0}, {"type": "note_on", "time": 23, "note": 65, "velocity": 97, "channel": 0}, {"type": "note_off", "time": 298, "note": 65, "velocity": 97, "channel": 0}, {"type": "note_on", "time": 23, "note": 69, "velocity": 95, "channel": 0}, {"type": "note_off", "time": 185, "note": 69, "velocity": 95, "channel": 0}, {"type": "note_on", "time": 167, "note": 74, "velocity": 107, "channel": 0}, {"type": "note_off", "time": 209, "note": 74, "velocity": 107, "channel": 0}, {"type": "note_on", "time": 17, "note": 73, "velocity": 108, "channel": 0}, {"type": "note_off", "time": 113, "note": 73, "velocity": 108, "channel": 0}, {"type": "note_on", "time": 23, "note": 67, "velocity": 106, "channel": 0}, {"type": "note_off", "time": 388, "note": 67, "velocity": 106, "channel": 0}, {"type": "note_on", "time": 2168, "note": 62, "velocity": 108, "channel": 0}, {"type": "note_off", "time": 465, "note": 62, "velocity": 108, "channel": 0}, {"type": "note_on", "time": 35, "note": 67, "velocity": 103, "channel": 0}, {"type": "note_off", "time": 221, "note": 67, "velocity": 103, "channel": 0}, {"type": "note_on", "time": 131, "note": 71, "velocity": 107, "channel": 0}, {"type": "note_off", "time": 388, "note": 71, "velocity": 107, "channel": 0}, {"type": "note_on", "time": 1218, "note": 65, "velocity": 111, "channel": 0}, {"type": "note_off", "time": 465, "note": 65, "velocity": 111, "channel": 0}, {"type": "note_on", "time": 17, "note": 69, "velocity": 112, "channel": 0}, {"type": "note_off", "time": 334, "note": 69, "velocity": 112, "channel": 0}, {"type": "note_on", "time": 29, "note": 72, "velocity": 116, "channel": 0}, {"type": "note_off", "time": 364, "note": 72, "velocity": 116, "channel": 0}, {"type": "note_on", "time": 77, "note": 65, "velocity": 115, "channel": 0}, {"type": "note_off", "time": 513, "note": 65, "velocity": 115, "channel": 0}, {"type": "note_on", "time": 2401, "note": 67, "velocity": 105, "channel": 0}, {"type": "note_off", "time": 340, "note": 67, "velocity": 105, "channel": 0}, {"type": "note_on", "time": 179, "note": 71, "velocity": 95, "channel": 0}, {"type": "note_off", "time": 274, "note": 71, "velocity": 95, "channel": 0}, {"type": "note_on", "time": 209, "note": 74, "velocity": 107, "channel": 0}, {"type": "note_off", "time": 567, "note": 74, "velocity": 107, "channel": 0}, {"type": "note_on", "time": 59, "note": 73, "velocity": 112, "channel": 0}, {"type": "note_off", "time": 340, "note": 73, "velocity": 112, "channel": 0}, {"type": "note_on", "time": 334, "note": 74, "velocity": 109, "channel": 0}, {"type": "note_off", "time": 501, "note": 74, "velocity": 109, "channel": 0}, {"type": "note_on", "time": 71, "note": 71, "velocity": 110, "channel": 0}, {"type": "note_off", "time": 376, "note": 71, "velocity": 110, "channel": 0}, {"type": "note_on", "time": 310, "note": 72, "velocity": 111, "channel": 0}, {"type": "note_off", "time": 430, "note": 72, "velocity": 111, "channel": 0}, {"type": "note_on", "time": 11, "note": 71, "velocity": 105, "channel": 0}, {"type": "note_off", "time": 448, "note": 71, "velocity": 105, "channel": 0}, {"type": "note_on", "time": 232, "note": 72, "velocity": 105, "channel": 0}, {"type": "note_off", "time": 519, "note": 72, "velocity": 105, "channel": 0}, {"type": "note_on", "time": 29, "note": 70, "velocity": 97, "channel": 0}, {"type": "note_off", "time": 101, "note": 70, "velocity": 97, "channel": 0}, {"type": "note_on", "time": 47, "note": 69, "velocity": 99, "channel": 0}, {"type": "note_off", "time": 424, "note": 69, "velocity": 99, "channel": 0}, {"type": "note_on", "time": 243, "note": 67, "velocity": 107, "channel": 0}, {"type": "note_off", "time": 1646, "note": 67, "velocity": 107, "channel": 0}, {"type": "note_on", "time": 84, "note": 68, "velocity": 112, "channel": 0}, {"type": "note_off", "time": 1100, "note": 68, "velocity": 112, "channel": 0}, {"type": "note_on", "time": 109, "note": 67, "velocity": 109, "channel": 0}, {"type": "note_off", "time": 298, "note": 67, "velocity": 109, "channel": 0}, {"type": "note_on", "time": 89, "note": 67, "velocity": 115, "channel": 0}, {"type": "note_off", "time": 400, "note": 67, "velocity": 115, "channel": 0}, {"type": "note_on", "time": 83, "note": 65, "velocity": 107, "channel": 0}, {"type": "note_off", "time": 197, "note": 65, "velocity": 107, "channel": 0}, {"type": "note_on", "time": 221, "note": 69, "velocity": 101, "channel": 0}, {"type": "note_off", "time": 268, "note": 69, "velocity": 101, "channel": 0}, {"type": "note_on", "time": 53, "note": 72, "velocity": 105, "channel": 0}, {"type": "note_off", "time": 334, "note": 72, "velocity": 105, "channel": 0}, {"type": "note_on", "time": 0, "note": 69, "velocity": 104, "channel": 0}, {"type": "note_off", "time": 352, "note": 69, "velocity": 104, "channel": 0}, {"type": "note_on", "time": 2210, "note": 67, "velocity": 100, "channel": 0}, {"type": "note_off", "time": 334, "note": 67, "velocity": 100, "channel": 0}, {"type": "note_on", "time": 125, "note": 71, "velocity": 101, "channel": 0}, {"type": "note_off", "time": 352, "note": 71, "velocity": 101, "channel": 0}, {"type": "note_on", "time": 0, "note": 74, "velocity": 104, "channel": 0}, {"type": "note_off", "time": 334, "note": 74, "velocity": 104, "channel": 0}, {"type": "note_on", "time": 161, "note": 74, "velocity": 99, "channel": 0}, {"type": "note_off", "time": 322, "note": 74, "velocity": 99, "channel": 0}, {"type": "note_on", "time": 41, "note": 69, "velocity": 93, "channel": 0}, {"type": "note_off", "time": 322, "note": 69, "velocity": 93, "channel": 0}, {"type": "note_on", "time": 131, "note": 74, "velocity": 106, "channel": 0}, {"type": "note_off", "time": 274, "note": 74, "velocity": 106, "channel": 0}, {"type": "note_on", "time": 65, "note": 71, "velocity": 103, "channel": 0}, {"type": "note_off", "time": 555, "note": 71, "velocity": 103, "channel": 0}, {"type": "note_on", "time": 1284, "note": 71, "velocity": 110, "channel": 0}, {"type": "note_off", "time": 334, "note": 71, "velocity": 110, "channel": 0}, {"type": "note_on", "time": 5, "note": 72, "velocity": 111, "channel": 0}, {"type": "note_off", "time": 328, "note": 72, "velocity": 111, "channel": 0}, {"type": "note_on", "time": 53, "note": 71, "velocity": 109, "channel": 0}, {"type": "note_off", "time": 143, "note": 71, "velocity": 109, "channel": 0}, {"type": "note_on", "time": 0, "note": 69, "velocity": 106, "channel": 0}, {"type": "note_off", "time": 316, "note": 69, "velocity": 106, "channel": 0}, {"type": "note_on", "time": 131, "note": 65, "velocity": 106, "channel": 0}, {"type": "note_off", "time": 364, "note": 65, "velocity": 106, "channel": 0}, {"type": "note_on", "time": 5, "note": 63, "velocity": 110, "channel": 0}, {"type": "note_off", "time": 471, "note": 63, "velocity": 110, "channel": 0}, {"type": "note_on", "time": 41, "note": 68, "velocity": 101, "channel": 0}, {"type": "note_off", "time": 304, "note": 68, "velocity": 101, "channel": 0}, {"type": "note_on", "time": 143, "note": 72, "velocity": 105, "channel": 0}, {"type": "note_off", "time": 286, "note": 72, "velocity": 105, "channel": 0}, {"type": "note_on", "time": 95, "note": 73, "velocity": 100, "channel": 0}, {"type": "note_off", "time": 131, "note": 73, "velocity": 100, "channel": 0}, {"type": "note_on", "time": 59, "note": 61, "velocity": 108, "channel": 0}, {"type": "note_off", "time": 286, "note": 61, "velocity": 108, "channel": 0}, {"type": "note_on", "time": 1624, "note": 61, "velocity": 102, "channel": 0}, {"type": "note_off", "time": 322, "note": 61, "velocity": 102, "channel": 0}, {"type": "note_on", "time": 149, "note": 66, "velocity": 100, "channel": 0}, {"type": "note_off", "time": 256, "note": 66, "velocity": 100, "channel": 0}, {"type": "note_on", "time": 77, "note": 70, "velocity": 98, "channel": 0}, {"type": "note_off", "time": 298, "note": 70, "velocity": 98, "channel": 0}, {"type": "note_on", "time": 107, "note": 72, "velocity": 102, "channel": 0}, {"type": "note_off", "time": 256, "note": 72, "velocity": 102, "channel": 0}, {"type": "note_on", "time": 0, "note": 70, "velocity": 100, "channel": 0}, {"type": "note_off", "time": 453, "note": 70, "velocity": 100, "channel": 0}, {"type": "note_on", "time": 1349, "note": 70, "velocity": 104, "channel": 0}, {"type": "note_off", "time": 364, "note": 70, "velocity": 104, "channel": 0}, {"type": "note_on", "time": 35, "note": 66, "velocity": 101, "channel": 0}, {"type": "note_off", "time": 280, "note": 66, "velocity": 101, "channel": 0}, {"type": "note_on", "time": 59, "note": 61, "velocity": 96, "channel": 0}, {"type": "note_off", "time": 382, "note": 61, "velocity": 96, "channel": 0}, {"type": "note_on", "time": 101, "note": 58, "velocity": 99, "channel": 0}, {"type": "note_off", "time": 310, "note": 58, "velocity": 99, "channel": 0}, {"type": "note_on", "time": 65, "note": 63, "velocity": 113, "channel": 0}, {"type": "note_off", "time": 513, "note": 63, "velocity": 113, "channel": 0}, {"type": "note_on", "time": 1218, "note": 63, "velocity": 111, "channel": 0}, {"type": "note_off", "time": 394, "note": 63, "velocity": 111, "channel": 0}, {"type": "note_on", "time": 0, "note": 65, "velocity": 97, "channel": 0}, {"type": "note_off", "time": 95, "note": 65, "velocity": 97, "channel": 0}, {"type": "note_on", "time": 47, "note": 68, "velocity": 95, "channel": 0}, {"type": "note_off", "time": 406, "note": 68, "velocity": 95, "channel": 0}, {"type": "note_on", "time": 119, "note": 72, "velocity": 92, "channel": 0}, {"type": "note_off", "time": 232, "note": 72, "velocity": 92, "channel": 0}, {"type": "note_on", "time": 11, "note": 71, "velocity": 100, "channel": 0}, {"type": "note_off", "time": 83, "note": 71, "velocity": 100, "channel": 0}, {"type": "note_on", "time": 17, "note": 70, "velocity": 101, "channel": 0}, {"type": "note_off", "time": 256, "note": 70, "velocity": 101, "channel": 0}, {"type": "note_on", "time": 53, "note": 60, "velocity": 94, "channel": 0}, {"type": "note_off", "time": 471, "note": 60, "velocity": 94, "channel": 0}, {"type": "note_on", "time": 101, "note": 65, "velocity": 98, "channel": 0}, {"type": "note_off", "time": 244, "note": 65, "velocity": 98, "channel": 0}, {"type": "note_on", "time": 35, "note": 68, "velocity": 91, "channel": 0}, {"type": "note_off", "time": 304, "note": 68, "velocity": 91, "channel": 0}, {"type": "note_on", "time": 161, "note": 73, "velocity": 99, "channel": 0}, {"type": "note_off", "time": 191, "note": 73, "velocity": 99, "channel": 0}, {"type": "note_on", "time": 101, "note": 70, "velocity": 106, "channel": 0}, {"type": "note_off", "time": 412, "note": 70, "velocity": 106, "channel": 0}, {"type": "note_on", "time": 1051, "note": 69, "velocity": 102, "channel": 0}, {"type": "note_off", "time": 109, "note": 69, "velocity": 102, "channel": 0}, {"type": "note_on", "time": 99, "note": 66, "velocity": 102, "channel": 0}, {"type": "note_on", "time": 320, "note": 61, "velocity": 93, "channel": 0}, {"type": "note_off", "time": 0, "note": 66, "velocity": 102, "channel": 0}, {"type": "note_off", "time": 277, "note": 61, "velocity": 93, "channel": 0}, {"type": "note_on", "time": 764, "note": 67, "velocity": 99, "channel": 0}, {"type": "note_off", "time": 302, "note": 67, "velocity": 99, "channel": 0}, {"type": "note_on", "time": 75, "note": 63, "velocity": 100, "channel": 0}, {"type": "note_off", "time": 672, "note": 63, "velocity": 100, "channel": 0}, {"type": "note_on", "time": 688, "note": 67, "velocity": 103, "channel": 0}, {"type": "note_off", "time": 173, "note": 67, "velocity": 103, "channel": 0}, {"type": "note_on", "time": 53, "note": 63, "velocity": 100, "channel": 0}, {"type": "note_off", "time": 47, "note": 63, "velocity": 100, "channel": 0}, {"type": "note_on", "time": 0, "note": 60, "velocity": 103, "channel": 0}, {"type": "note_off", "time": 364, "note": 60, "velocity": 103, "channel": 0}, {"type": "note_on", "time": 1039, "note": 68, "velocity": 107, "channel": 0}, {"type": "note_off", "time": 268, "note": 68, "velocity": 107, "channel": 0}, {"type": "note_on", "time": 29, "note": 66, "velocity": 99, "channel": 0}, {"type": "note_off", "time": 471, "note": 66, "velocity": 99, "channel": 0}, {"type": "note_on", "time": 89, "note": 61, "velocity": 99, "channel": 0}, {"type": "note_off", "time": 316, "note": 61, "velocity": 99, "channel": 0}, {"type": "note_on", "time": 17, "note": 58, "velocity": 99, "channel": 0}, {"type": "note_off", "time": 310, "note": 58, "velocity": 99, "channel": 0}, {"type": "note_on", "time": 137, "note": 54, "velocity": 100, "channel": 0}, {"type": "note_off", "time": 310, "note": 54, "velocity": 100, "channel": 0}, {"type": "note_on", "time": 35, "note": 51, "velocity": 99, "channel": 0}, {"type": "note_off", "time": 447, "note": 51, "velocity": 99, "channel": 0}, {"type": "note_on", "time": 1308, "note": 51, "velocity": 101, "channel": 0}, {"type": "note_off", "time": 280, "note": 51, "velocity": 101, "channel": 0}, {"type": "note_on", "time": 66, "note": 54, "velocity": 103, "channel": 0}, {"type": "note_off", "time": 292, "note": 54, "velocity": 103, "channel": 0}, {"type": "note_on", "time": 142, "note": 58, "velocity": 104, "channel": 0}, {"type": "note_off", "time": 268, "note": 58, "velocity": 104, "channel": 0}, {"type": "note_on", "time": 191, "note": 60, "velocity": 102, "channel": 0}, {"type": "note_off", "time": 280, "note": 60, "velocity": 102, "channel": 0}, {"type": "note_on", "time": 5, "note": 67, "velocity": 103, "channel": 0}, {"type": "note_off", "time": 436, "note": 67, "velocity": 103, "channel": 0}, {"type": "note_on", "time": 77, "note": 67, "velocity": 109, "channel": 0}, {"type": "note_off", "time": 430, "note": 67, "velocity": 109, "channel": 0}, {"type": "note_on", "time": 101, "note": 63, "velocity": 93, "channel": 0}, {"type": "note_off", "time": 203, "note": 63, "velocity": 93, "channel": 0}, {"type": "note_on", "time": 161, "note": 68, "velocity": 96, "channel": 0}, {"type": "note_off", "time": 298, "note": 68, "velocity": 96, "channel": 0}, {"type": "note_on", "time": 23, "note": 62, "velocity": 101, "channel": 0}, {"type": "note_off", "time": 459, "note": 62, "velocity": 101, "channel": 0}, {"type": "note_on", "time": 913, "note": 71, "velocity": 103, "channel": 0}, {"type": "note_off", "time": 328, "note": 71, "velocity": 103, "channel": 0}, {"type": "note_on", "time": 5, "note": 66, "velocity": 89, "channel": 0}, {"type": "note_off", "time": 328, "note": 66, "velocity": 89, "channel": 0}, {"type": "note_on", "time": 1039, "note": 71, "velocity": 107, "channel": 0}, {"type": "note_off", "time": 316, "note": 71, "velocity": 107, "channel": 0}, {"type": "note_on", "time": 65, "note": 72, "velocity": 104, "channel": 0}, {"type": "note_off", "time": 358, "note": 72, "velocity": 104, "channel": 0}, {"type": "note_on", "time": 1338, "note": 71, "velocity": 105, "channel": 0}, {"type": "note_off", "time": 489, "note": 71, "velocity": 105, "channel": 0}, {"type": "note_on", "time": 1242, "note": 67, "velocity": 101, "channel": 0}, {"type": "note_off", "time": 364, "note": 67, "velocity": 101, "channel": 0}, {"type": "note_on", "time": 125, "note": 62, "velocity": 99, "channel": 0}, {"type": "note_off", "time": 364, "note": 62, "velocity": 99, "channel": 0}, {"type": "note_on", "time": 35, "note": 67, "velocity": 97, "channel": 0}, {"type": "note_off", "time": 316, "note": 67, "velocity": 97, "channel": 0}, {"type": "note_on", "time": 0, "note": 71, "velocity": 107, "channel": 0}, {"type": "note_off", "time": 226, "note": 71, "velocity": 107, "channel": 0}, {"type": "note_on", "time": 17, "note": 70, "velocity": 111, "channel": 0}, {"type": "note_off", "time": 119, "note": 70, "velocity": 111, "channel": 0}, {"type": "note_on", "time": 0, "note": 67, "velocity": 108, "channel": 0}, {"type": "note_off", "time": 591, "note": 67, "velocity": 108, "channel": 0}, {"type": "note_on", "time": 1290, "note": 60, "velocity": 97, "channel": 0}, {"type": "note_off", "time": 346, "note": 60, "velocity": 97, "channel": 0}, {"type": "note_on", "time": 29, "note": 65, "velocity": 99, "channel": 0}, {"type": "note_off", "time": 256, "note": 65, "velocity": 99, "channel": 0}, {"type": "note_on", "time": 11, "note": 69, "velocity": 95, "channel": 0}, {"type": "note_off", "time": 453, "note": 69, "velocity": 95, "channel": 0}, {"type": "note_on", "time": 41, "note": 71, "velocity": 105, "channel": 0}, {"type": "note_off", "time": 388, "note": 71, "velocity": 105, "channel": 0}, {"type": "note_on", "time": 77, "note": 62, "velocity": 104, "channel": 0}, {"type": "note_off", "time": 352, "note": 62, "velocity": 104, "channel": 0}, {"type": "note_on", "time": 77, "note": 67, "velocity": 100, "channel": 0}, {"type": "note_off", "time": 459, "note": 67, "velocity": 100, "channel": 0}, {"type": "note_on", "time": 519, "note": 71, "velocity": 101, "channel": 0}, {"type": "note_off", "time": 286, "note": 71, "velocity": 101, "channel": 0}, {"type": "note_on", "time": 17, "note": 67, "velocity": 100, "channel": 0}, {"type": "note_off", "time": 495, "note": 67, "velocity": 100, "channel": 0}, {"type": "note_on", "time": 1194, "note": 62, "velocity": 100, "channel": 0}, {"type": "note_off", "time": 256, "note": 62, "velocity": 100, "channel": 0}, {"type": "note_on", "time": 89, "note": 67, "velocity": 98, "channel": 0}, {"type": "note_off", "time": 418, "note": 67, "velocity": 98, "channel": 0}, {"type": "note_on", "time": 0, "note": 71, "velocity": 105, "channel": 0}, {"type": "note_off", "time": 430, "note": 71, "velocity": 105, "channel": 0}, {"type": "note_on", "time": 137, "note": 62, "velocity": 101, "channel": 0}, {"type": "note_off", "time": 513, "note": 62, "velocity": 101, "channel": 0}, {"type": "note_on", "time": 842, "note": 60, "velocity": 96, "channel": 0}, {"type": "note_off", "time": 316, "note": 60, "velocity": 96, "channel": 0}, {"type": "note_on", "time": 23, "note": 67, "velocity": 63, "channel": 0}, {"type": "note_off", "time": 238, "note": 67, "velocity": 63, "channel": 0}, {"type": "note_on", "time": 0, "note": 69, "velocity": 101, "channel": 0}, {"type": "note_off", "time": 316, "note": 69, "velocity": 101, "channel": 0}, {"type": "note_on", "time": 41, "note": 66, "velocity": 111, "channel": 0}, {"type": "note_off", "time": 633, "note": 66, "velocity": 111, "channel": 0}, {"type": "note_on", "time": 1756, "note": 62, "velocity": 102, "channel": 0}, {"type": "note_off", "time": 304, "note": 62, "velocity": 102, "channel": 0}, {"type": "note_on", "time": 107, "note": 67, "velocity": 95, "channel": 0}, {"type": "note_off", "time": 232, "note": 67, "velocity": 95, "channel": 0}, {"type": "note_on", "time": 0, "note": 71, "velocity": 101, "channel": 0}, {"type": "note_off", "time": 465, "note": 71, "velocity": 101, "channel": 0}, {"type": "note_on", "time": 17, "note": 67, "velocity": 100, "channel": 0}, {"type": "note_off", "time": 424, "note": 67, "velocity": 100, "channel": 0}, {"type": "note_on", "time": 149, "note": 65, "velocity": 96, "channel": 0}, {"type": "note_off", "time": 256, "note": 65, "velocity": 96, "channel": 0}, {"type": "note_on", "time": 89, "note": 69, "velocity": 93, "channel": 0}, {"type": "note_off", "time": 268, "note": 69, "velocity": 93, "channel": 0}, {"type": "note_on", "time": 23, "note": 68, "velocity": 101, "channel": 0}, {"type": "note_off", "time": 268, "note": 68, "velocity": 101, "channel": 0}, {"type": "note_on", "time": 23, "note": 62, "velocity": 94, "channel": 0}, {"type": "note_off", "time": 221, "note": 62, "velocity": 94, "channel": 0}, {"type": "note_on", "time": 2018, "note": 71, "velocity": 99, "channel": 0}, {"type": "note_off", "time": 465, "note": 71, "velocity": 99, "channel": 0}, {"type": "note_on", "time": 89, "note": 62, "velocity": 93, "channel": 0}, {"type": "note_off", "time": 256, "note": 62, "velocity": 93, "channel": 0}, {"type": "note_on", "time": 143, "note": 67, "velocity": 92, "channel": 0}, {"type": "note_off", "time": 907, "note": 67, "velocity": 92, "channel": 0}, {"type": "note_on", "time": 0, "note": 71, "velocity": 98, "channel": 0}, {"type": "note_off", "time": 400, "note": 71, "velocity": 98, "channel": 0}, {"type": "note_on", "time": 495, "note": 67, "velocity": 92, "channel": 0}, {"type": "note_off", "time": 669, "note": 67, "velocity": 92, "channel": 0}, {"type": "note_on", "time": 53, "note": 71, "velocity": 97, "channel": 0}, {"type": "note_off", "time": 191, "note": 71, "velocity": 97, "channel": 0}, {"type": "note_on", "time": 47, "note": 70, "velocity": 99, "channel": 0}, {"type": "note_off", "time": 101, "note": 70, "velocity": 99, "channel": 0}, {"type": "note_on", "time": 35, "note": 67, "velocity": 101, "channel": 0}, {"type": "note_off", "time": 448, "note": 67, "velocity": 101, "channel": 0}, {"type": "note_on", "time": 0, "note": 65, "velocity": 99, "channel": 0}, {"type": "note_off", "time": 895, "note": 65, "velocity": 99, "channel": 0}, {"type": "note_on", "time": 0, "note": 69, "velocity": 99, "channel": 0}, {"type": "note_off", "time": 226, "note": 69, "velocity": 99, "channel": 0}, {"type": "note_on", "time": 83, "note": 67, "velocity": 98, "channel": 0}, {"type": "note_off", "time": 424, "note": 67, "velocity": 98, "channel": 0}, {"type": "note_on", "time": 71, "note": 65, "velocity": 98, "channel": 0}, {"type": "note_off", "time": 573, "note": 65, "velocity": 98, "channel": 0}, {"type": "note_on", "time": 197, "note": 69, "velocity": 91, "channel": 0}, {"type": "note_off", "time": 328, "note": 69, "velocity": 91, "channel": 0}, {"type": "note_on", "time": 167, "note": 62, "velocity": 91, "channel": 0}, {"type": "note_off", "time": 352, "note": 62, "velocity": 91, "channel": 0}, {"type": "note_on", "time": 53, "note": 67, "velocity": 88, "channel": 0}, {"type": "note_off", "time": 746, "note": 67, "velocity": 88, "channel": 0}, {"type": "note_on", "time": 107, "note": 71, "velocity": 95, "channel": 0}, {"type": "note_off", "time": 382, "note": 71, "velocity": 95, "channel": 0}, {"type": "note_on", "time": 531, "note": 67, "velocity": 93, "channel": 0}, {"type": "note_off", "time": 770, "note": 67, "velocity": 93, "channel": 0}, {"type": "note_on", "time": 89, "note": 71, "velocity": 93, "channel": 0}, {"type": "note_off", "time": 459, "note": 71, "velocity": 93, "channel": 0}, {"type": "note_on", "time": 125, "note": 67, "velocity": 80, "channel": 0}, {"type": "note_off", "time": 215, "note": 67, "velocity": 80, "channel": 0}, {"type": "note_on", "time": 95, "note": 69, "velocity": 93, "channel": 0}, {"type": "note_off", "time": 818, "note": 69, "velocity": 93, "channel": 0}, {"type": "note_on", "time": 95, "note": 72, "velocity": 86, "channel": 0}, {"type": "note_off", "time": 663, "note": 72, "velocity": 86, "channel": 0}, {"type": "note_on", "time": 185, "note": 69, "velocity": 92, "channel": 0}, {"type": "note_off", "time": 651, "note": 69, "velocity": 92, "channel": 0}, {"type": "note_on", "time": 23, "note": 72, "velocity": 92, "channel": 0}, {"type": "note_off", "time": 316, "note": 72, "velocity": 92, "channel": 0}, {"type": "note_on", "time": 250, "note": 62, "velocity": 94, "channel": 0}, {"type": "note_off", "time": 256, "note": 62, "velocity": 94, "channel": 0}, {"type": "note_on", "time": 59, "note": 67, "velocity": 94, "channel": 0}, {"type": "note_off", "time": 794, "note": 67, "velocity": 94, "channel": 0}, {"type": "note_on", "time": 47, "note": 71, "velocity": 98, "channel": 0}, {"type": "note_off", "time": 334, "note": 71, "velocity": 98, "channel": 0}, {"type": "note_on", "time": 35, "note": 69, "velocity": 99, "channel": 0}, {"type": "note_off", "time": 280, "note": 69, "velocity": 99, "channel": 0}, {"type": "note_on", "time": 17, "note": 62, "velocity": 93, "channel": 0}, {"type": "note_on", "time": 226, "note": 67, "velocity": 93, "channel": 0}, {"type": "note_off", "time": 0, "note": 62, "velocity": 93, "channel": 0}, {"type": "note_off", "time": 692, "note": 67, "velocity": 93, "channel": 0}, {"type": "note_on", "time": 47, "note": 71, "velocity": 99, "channel": 0}, {"type": "note_off", "time": 328, "note": 71, "velocity": 99, "channel": 0}, {"type": "note_on", "time": 83, "note": 67, "velocity": 101, "channel": 0}, {"type": "note_on", "time": 418, "note": 65, "velocity": 98, "channel": 0}, {"type": "note_off", "time": 0, "note": 67, "velocity": 101, "channel": 0}, {"type": "note_off", "time": 812, "note": 65, "velocity": 98, "channel": 0}, {"type": "note_on", "time": 71, "note": 69, "velocity": 92, "channel": 0}, {"type": "note_off", "time": 185, "note": 69, "velocity": 92, "channel": 0}, {"type": "note_on", "time": 11, "note": 67, "velocity": 107, "channel": 0}, {"type": "note_off", "time": 507, "note": 67, "velocity": 107, "channel": 0}, {"type": "note_on", "time": 47, "note": 65, "velocity": 99, "channel": 0}, {"type": "note_off", "time": 376, "note": 65, "velocity": 99, "channel": 0}, {"type": "note_on", "time": 71, "note": 60, "velocity": 95, "channel": 0}, {"type": "note_off", "time": 412, "note": 60, "velocity": 95, "channel": 0}, {"type": "note_on", "time": 17, "note": 57, "velocity": 99, "channel": 0}, {"type": "note_off", "time": 226, "note": 57, "velocity": 99, "channel": 0}, {"type": "note_on", "time": 59, "note": 53, "velocity": 99, "channel": 0}, {"type": "note_off", "time": 525, "note": 53, "velocity": 99, "channel": 0}, {"type": "note_on", "time": 3799, "note": 62, "velocity": 103, "channel": 0}, {"type": "note_off", "time": 412, "note": 62, "velocity": 103, "channel": 0}, {"type": "note_on", "time": 11, "note": 59, "velocity": 96, "channel": 0}, {"type": "note_off", "time": 232, "note": 59, "velocity": 96, "channel": 0}, {"type": "note_on", "time": 53, "note": 55, "velocity": 100, "channel": 0}, {"type": "note_off", "time": 412, "note": 55, "velocity": 100, "channel": 0}, {"type": "note_on", "time": 59, "note": 53, "velocity": 102, "channel": 0}, {"type": "note_off", "time": 459, "note": 53, "velocity": 102, "channel": 0}, {"type": "note_on", "time": 5, "note": 52, "velocity": 99, "channel": 0}, {"type": "note_off", "time": 436, "note": 52, "velocity": 99, "channel": 0}, {"type": "note_on", "time": 2944, "note": 62, "velocity": 101, "channel": 0}, {"type": "note_off", "time": 328, "note": 62, "velocity": 101, "channel": 0}, {"type": "note_on", "time": 101, "note": 59, "velocity": 98, "channel": 0}, {"type": "note_off", "time": 226, "note": 59, "velocity": 98, "channel": 0}, {"type": "note_on", "time": 167, "note": 55, "velocity": 101, "channel": 0}, {"type": "note_off", "time": 358, "note": 55, "velocity": 101, "channel": 0}, {"type": "note_on", "time": 23, "note": 53, "velocity": 101, "channel": 0}, {"type": "note_off", "time": 459, "note": 53, "velocity": 101, "channel": 0}, {"type": "note_on", "time": 0, "note": 52, "velocity": 104, "channel": 0}, {"type": "note_off", "time": 531, "note": 52, "velocity": 104, "channel": 0}, {"type": "note_on", "time": 573, "note": 52, "velocity": 103, "channel": 0}, {"type": "note_off", "time": 448, "note": 52, "velocity": 103, "channel": 0}, {"type": "note_on", "time": 17, "note": 53, "velocity": 102, "channel": 0}, {"type": "note_off", "time": 310, "note": 53, "velocity": 102, "channel": 0}, {"type": "note_on", "time": 113, "note": 57, "velocity": 96, "channel": 0}, {"type": "note_off", "time": 215, "note": 57, "velocity": 96, "channel": 0}, {"type": "note_on", "time": 125, "note": 60, "velocity": 96, "channel": 0}, {"type": "note_off", "time": 352, "note": 60, "velocity": 96, "channel": 0}, {"type": "note_on", "time": 11, "note": 55, "velocity": 95, "channel": 0}, {"type": "note_off", "time": 561, "note": 55, "velocity": 95, "channel": 0}, {"type": "note_on", "time": 1164, "note": 55, "velocity": 102, "channel": 0}, {"type": "note_off", "time": 573, "note": 55, "velocity": 102, "channel": 0}, {"type": "note_on", "time": 77, "note": 57, "velocity": 97, "channel": 0}, {"type": "note_off", "time": 465, "note": 57, "velocity": 97, "channel": 0}, {"type": "note_on", "time": 131, "note": 62, "velocity": 101, "channel": 0}, {"type": "note_off", "time": 262, "note": 62, "velocity": 101, "channel": 0}, {"type": "note_on", "time": 41, "note": 68, "velocity": 95, "channel": 0}, {"type": "note_off", "time": 209, "note": 68, "velocity": 95, "channel": 0}, {"type": "note_on", "time": 137, "note": 67, "velocity": 105, "channel": 0}, {"type": "note_off", "time": 459, "note": 67, "velocity": 105, "channel": 0}, {"type": "note_on", "time": 29, "note": 68, "velocity": 111, "channel": 0}, {"type": "note_off", "time": 483, "note": 68, "velocity": 111, "channel": 0}, {"type": "note_on", "time": 89, "note": 65, "velocity": 102, "channel": 0}, {"type": "note_off", "time": 262, "note": 65, "velocity": 102, "channel": 0}, {"type": "note_on", "time": 11, "note": 64, "velocity": 108, "channel": 0}, {"type": "note_off", "time": 680, "note": 64, "velocity": 108, "channel": 0}, {"type": "note_on", "time": 1146, "note": 64, "velocity": 111, "channel": 0}, {"type": "note_off", "time": 477, "note": 64, "velocity": 111, "channel": 0}, {"type": "note_on", "time": 23, "note": 65, "velocity": 104, "channel": 0}, {"type": "note_off", "time": 185, "note": 65, "velocity": 104, "channel": 0}, {"type": "note_on", "time": 53, "note": 67, "velocity": 100, "channel": 0}, {"type": "note_off", "time": 483, "note": 67, "velocity": 100, "channel": 0}, {"type": "note_on", "time": 113, "note": 69, "velocity": 98, "channel": 0}, {"type": "note_off", "time": 232, "note": 69, "velocity": 98, "channel": 0}, {"type": "note_on", "time": 0, "note": 66, "velocity": 94, "channel": 0}, {"type": "note_off", "time": 119, "note": 66, "velocity": 94, "channel": 0}, {"type": "note_on", "time": 23, "note": 62, "velocity": 103, "channel": 0}, {"type": "note_off", "time": 453, "note": 62, "velocity": 103, "channel": 0}, {"type": "note_on", "time": 0, "note": 64, "velocity": 106, "channel": 0}, {"type": "note_off", "time": 376, "note": 64, "velocity": 106, "channel": 0}, {"type": "note_on", "time": 59, "note": 65, "velocity": 101, "channel": 0}, {"type": "note_off", "time": 268, "note": 65, "velocity": 101, "channel": 0}, {"type": "note_on", "time": 35, "note": 61, "velocity": 91, "channel": 0}, {"type": "note_off", "time": 346, "note": 61, "velocity": 91, "channel": 0}, {"type": "note_on", "time": 53, "note": 62, "velocity": 104, "channel": 0}, {"type": "note_off", "time": 603, "note": 62, "velocity": 104, "channel": 0}, {"type": "note_on", "time": 1164, "note": 60, "velocity": 99, "channel": 0}, {"type": "note_off", "time": 274, "note": 60, "velocity": 99, "channel": 0}, {"type": "note_on", "time": 29, "note": 62, "velocity": 102, "channel": 0}, {"type": "note_off", "time": 453, "note": 62, "velocity": 102, "channel": 0}, {"type": "note_on", "time": 53, "note": 64, "velocity": 110, "channel": 0}, {"type": "note_off", "time": 358, "note": 64, "velocity": 110, "channel": 0}, {"type": "note_on", "time": 77, "note": 60, "velocity": 91, "channel": 0}, {"type": "note_off", "time": 382, "note": 60, "velocity": 91, "channel": 0}, {"type": "note_on", "time": 5, "note": 62, "velocity": 104, "channel": 0}, {"type": "note_off", "time": 394, "note": 62, "velocity": 104, "channel": 0}, {"type": "note_on", "time": 17, "note": 64, "velocity": 103, "channel": 0}, {"type": "note_off", "time": 388, "note": 64, "velocity": 103, "channel": 0}, {"type": "note_on", "time": 29, "note": 65, "velocity": 100, "channel": 0}, {"type": "note_off", "time": 346, "note": 65, "velocity": 100, "channel": 0}, {"type": "note_on", "time": 77, "note": 67, "velocity": 101, "channel": 0}, {"type": "note_off", "time": 310, "note": 67, "velocity": 101, "channel": 0}, {"type": "note_on", "time": 35, "note": 64, "velocity": 104, "channel": 0}, {"type": "note_off", "time": 471, "note": 64, "velocity": 104, "channel": 0}, {"type": "note_on", "time": 23, "note": 65, "velocity": 103, "channel": 0}, {"type": "note_off", "time": 322, "note": 65, "velocity": 103, "channel": 0}, {"type": "note_on", "time": 5, "note": 69, "velocity": 101, "channel": 0}, {"type": "note_off", "time": 424, "note": 69, "velocity": 101, "channel": 0}, {"type": "note_on", "time": 155, "note": 72, "velocity": 102, "channel": 0}, {"type": "note_off", "time": 334, "note": 72, "velocity": 102, "channel": 0}, {"type": "note_on", "time": 71, "note": 64, "velocity": 101, "channel": 0}, {"type": "note_off", "time": 382, "note": 64, "velocity": 101, "channel": 0}, {"type": "note_on", "time": 1278, "note": 64, "velocity": 102, "channel": 0}, {"type": "note_off", "time": 471, "note": 64, "velocity": 102, "channel": 0}, {"type": "note_on", "time": 35, "note": 65, "velocity": 97, "channel": 0}, {"type": "note_off", "time": 298, "note": 65, "velocity": 97, "channel": 0}, {"type": "note_on", "time": 101, "note": 69, "velocity": 99, "channel": 0}, {"type": "note_on", "time": 352, "note": 71, "velocity": 105, "channel": 0}, {"type": "note_off", "time": 0, "note": 69, "velocity": 99, "channel": 0}, {"type": "note_off", "time": 286, "note": 71, "velocity": 105, "channel": 0}, {"type": "note_on", "time": 0, "note": 65, "velocity": 102, "channel": 0}, {"type": "note_off", "time": 495, "note": 65, "velocity": 102, "channel": 0}, {"type": "note_on", "time": 23, "note": 66, "velocity": 99, "channel": 0}, {"type": "note_off", "time": 346, "note": 66, "velocity": 99, "channel": 0}, {"type": "note_on", "time": 0, "note": 68, "velocity": 99, "channel": 0}, {"type": "note_off", "time": 215, "note": 68, "velocity": 99, "channel": 0}, {"type": "note_on", "time": 179, "note": 70, "velocity": 104, "channel": 0}, {"type": "note_off", "time": 250, "note": 70, "velocity": 104, "channel": 0}, {"type": "note_on", "time": 0, "note": 69, "velocity": 108, "channel": 0}, {"type": "note_off", "time": 149, "note": 69, "velocity": 108, "channel": 0}, {"type": "note_on", "time": 0, "note": 63, "velocity": 116, "channel": 0}, {"type": "note_off", "time": 477, "note": 63, "velocity": 116, "channel": 0}, {"type": "note_on", "time": 41, "note": 65, "velocity": 101, "channel": 0}, {"type": "note_off", "time": 418, "note": 65, "velocity": 101, "channel": 0}, {"type": "note_on", "time": 5, "note": 61, "velocity": 95, "channel": 0}, {"type": "note_off", "time": 322, "note": 61, "velocity": 95, "channel": 0}, {"type": "note_on", "time": 41, "note": 60, "velocity": 98, "channel": 0}, {"type": "note_off", "time": 328, "note": 60, "velocity": 98, "channel": 0}, {"type": "note_on", "time": 1732, "note": 60, "velocity": 103, "channel": 0}, {"type": "note_off", "time": 352, "note": 60, "velocity": 103, "channel": 0}, {"type": "note_on", "time": 29, "note": 61, "velocity": 101, "channel": 0}, {"type": "note_off", "time": 286, "note": 61, "velocity": 101, "channel": 0}, {"type": "note_on", "time": 65, "note": 63, "velocity": 104, "channel": 0}, {"type": "note_off", "time": 459, "note": 63, "velocity": 104, "channel": 0}, {"type": "note_on", "time": 71, "note": 65, "velocity": 103, "channel": 0}, {"type": "note_off", "time": 352, "note": 65, "velocity": 103, "channel": 0}, {"type": "note_on", "time": 0, "note": 63, "velocity": 110, "channel": 0}, {"type": "note_off", "time": 453, "note": 63, "velocity": 110, "channel": 0}, {"type": "note_on", "time": 23, "note": 62, "velocity": 103, "channel": 0}, {"type": "note_off", "time": 400, "note": 62, "velocity": 103, "channel": 0}, {"type": "note_on", "time": 11, "note": 61, "velocity": 100, "channel": 0}, {"type": "note_off", "time": 370, "note": 61, "velocity": 100, "channel": 0}, {"type": "note_on", "time": 149, "note": 60, "velocity": 100, "channel": 0}, {"type": "note_off", "time": 280, "note": 60, "velocity": 100, "channel": 0}, {"type": "note_on", "time": 5, "note": 58, "velocity": 98, "channel": 0}, {"type": "note_off", "time": 448, "note": 58, "velocity": 98, "channel": 0}, {"type": "note_on", "time": 1421, "note": 58, "velocity": 101, "channel": 0}, {"type": "note_off", "time": 310, "note": 58, "velocity": 101, "channel": 0}, {"type": "note_on", "time": 47, "note": 53, "velocity": 95, "channel": 0}, {"type": "note_off", "time": 669, "note": 53, "velocity": 95, "channel": 0}, {"type": "note_on", "time": 0, "note": 54, "velocity": 97, "channel": 0}, {"type": "note_off", "time": 221, "note": 54, "velocity": 97, "channel": 0}, {"type": "note_on", "time": 65, "note": 56, "velocity": 95, "channel": 0}, {"type": "note_off", "time": 310, "note": 56, "velocity": 95, "channel": 0}, {"type": "note_on", "time": 35, "note": 58, "velocity": 97, "channel": 0}, {"type": "note_off", "time": 340, "note": 58, "velocity": 97, "channel": 0}, {"type": "note_on", "time": 1200, "note": 58, "velocity": 98, "channel": 0}, {"type": "note_off", "time": 382, "note": 58, "velocity": 98, "channel": 0}, {"type": "note_on", "time": 29, "note": 57, "velocity": 100, "channel": 0}, {"type": "note_off", "time": 394, "note": 57, "velocity": 100, "channel": 0}, {"type": "note_on", "time": 17, "note": 58, "velocity": 97, "channel": 0}, {"type": "note_off", "time": 424, "note": 58, "velocity": 97, "channel": 0}, {"type": "note_on", "time": 53, "note": 60, "velocity": 99, "channel": 0}, {"type": "note_off", "time": 328, "note": 60, "velocity": 99, "channel": 0}, {"type": "note_on", "time": 35, "note": 61, "velocity": 103, "channel": 0}, {"type": "note_off", "time": 448, "note": 61, "velocity": 103, "channel": 0}, {"type": "note_on", "time": 53, "note": 63, "velocity": 112, "channel": 0}, {"type": "note_off", "time": 322, "note": 63, "velocity": 112, "channel": 0}, {"type": "note_on", "time": 53, "note": 65, "velocity": 100, "channel": 0}, {"type": "note_off", "time": 244, "note": 65, "velocity": 100, "channel": 0}, {"type": "note_on", "time": 137, "note": 60, "velocity": 93, "channel": 0}, {"type": "note_off", "time": 370, "note": 60, "velocity": 93, "channel": 0}, {"type": "note_on", "time": 0, "note": 63, "velocity": 108, "channel": 0}, {"type": "note_off", "time": 340, "note": 63, "velocity": 108, "channel": 0}, {"type": "note_on", "time": 1451, "note": 63, "velocity": 107, "channel": 0}, {"type": "note_off", "time": 543, "note": 63, "velocity": 107, "channel": 0}, {"type": "note_on", "time": 23, "note": 65, "velocity": 99, "channel": 0}, {"type": "note_off", "time": 501, "note": 65, "velocity": 99, "channel": 0}, {"type": "note_on", "time": 71, "note": 67, "velocity": 91, "channel": 0}, {"type": "note_off", "time": 155, "note": 67, "velocity": 91, "channel": 0}, {"type": "note_on", "time": 35, "note": 68, "velocity": 89, "channel": 0}, {"type": "note_off", "time": 209, "note": 68, "velocity": 89, "channel": 0}, {"type": "note_on", "time": 83, "note": 70, "velocity": 89, "channel": 0}, {"type": "note_off", "time": 310, "note": 70, "velocity": 89, "channel": 0}, {"type": "note_on", "time": 83, "note": 72, "velocity": 94, "channel": 0}, {"type": "note_off", "time": 244, "note": 72, "velocity": 94, "channel": 0}, {"type": "note_on", "time": 23, "note": 71, "velocity": 92, "channel": 0}, {"type": "note_off", "time": 83, "note": 71, "velocity": 92, "channel": 0}, {"type": "note_on", "time": 77, "note": 68, "velocity": 90, "channel": 0}, {"type": "note_off", "time": 316, "note": 68, "velocity": 90, "channel": 0}, {"type": "note_on", "time": 0, "note": 66, "velocity": 91, "channel": 0}, {"type": "note_off", "time": 400, "note": 66, "velocity": 91, "channel": 0}, {"type": "note_on", "time": 29, "note": 65, "velocity": 98, "channel": 0}, {"type": "note_off", "time": 525, "note": 65, "velocity": 98, "channel": 0}, {"type": "note_on", "time": 1326, "note": 65, "velocity": 99, "channel": 0}, {"type": "note_off", "time": 292, "note": 65, "velocity": 99, "channel": 0}, {"type": "note_on", "time": 17, "note": 66, "velocity": 99, "channel": 0}, {"type": "note_off", "time": 400, "note": 66, "velocity": 99, "channel": 0}, {"type": "note_on", "time": 83, "note": 68, "velocity": 90, "channel": 0}, {"type": "note_off", "time": 268, "note": 68, "velocity": 90, "channel": 0}, {"type": "note_on", "time": 167, "note": 70, "velocity": 91, "channel": 0}, {"type": "note_off", "time": 304, "note": 70, "velocity": 91, "channel": 0}, {"type": "note_on", "time": 29, "note": 66, "velocity": 95, "channel": 0}, {"type": "note_off", "time": 334, "note": 66, "velocity": 95, "channel": 0}, {"type": "note_on", "time": 1403, "note": 66, "velocity": 101, "channel": 0}, {"type": "note_off", "time": 406, "note": 66, "velocity": 101, "channel": 0}, {"type": "note_on", "time": 77, "note": 69, "velocity": 97, "channel": 0}, {"type": "note_off", "time": 268, "note": 69, "velocity": 97, "channel": 0}, {"type": "note_on", "time": 113, "note": 70, "velocity": 91, "channel": 0}, {"type": "note_off", "time": 292, "note": 70, "velocity": 91, "channel": 0}, {"type": "note_on", "time": 113, "note": 72, "velocity": 106, "channel": 0}, {"type": "note_off", "time": 382, "note": 72, "velocity": 106, "channel": 0}, {"type": "note_on", "time": 11, "note": 70, "velocity": 101, "channel": 0}, {"type": "note_off", "time": 155, "note": 70, "velocity": 101, "channel": 0}, {"type": "note_on", "time": 0, "note": 69, "velocity": 99, "channel": 0}, {"type": "note_off", "time": 197, "note": 69, "velocity": 99, "channel": 0}, {"type": "note_on", "time": 29, "note": 67, "velocity": 103, "channel": 0}, {"type": "note_on", "time": 424, "note": 65, "velocity": 102, "channel": 0}, {"type": "note_off", "time": 0, "note": 67, "velocity": 103, "channel": 0}, {"type": "note_off", "time": 382, "note": 65, "velocity": 102, "channel": 0}, {"type": "note_on", "time": 41, "note": 64, "velocity": 100, "channel": 0}, {"type": "note_off", "time": 418, "note": 64, "velocity": 100, "channel": 0}, {"type": "note_on", "time": 17, "note": 65, "velocity": 98, "channel": 0}, {"type": "note_off", "time": 447, "note": 65, "velocity": 98, "channel": 0}, {"type": "note_on", "time": 1284, "note": 65, "velocity": 101, "channel": 0}, {"type": "note_off", "time": 328, "note": 65, "velocity": 101, "channel": 0}, {"type": "note_on", "time": 23, "note": 64, "velocity": 107, "channel": 0}, {"type": "note_off", "time": 412, "note": 64, "velocity": 107, "channel": 0}, {"type": "note_on", "time": 47, "note": 65, "velocity": 106, "channel": 0}, {"type": "note_off", "time": 346, "note": 65, "velocity": 106, "channel": 0}, {"type": "note_on", "time": 0, "note": 61, "velocity": 106, "channel": 0}, {"type": "note_off", "time": 352, "note": 61, "velocity": 106, "channel": 0}, {"type": "note_on", "time": 71, "note": 62, "velocity": 109, "channel": 0}, {"type": "note_off", "time": 346, "note": 62, "velocity": 109, "channel": 0}, {"type": "note_on", "time": 1379, "note": 62, "velocity": 115, "channel": 0}, {"type": "note_off", "time": 406, "note": 62, "velocity": 115, "channel": 0}, {"type": "note_on", "time": 5, "note": 61, "velocity": 110, "channel": 0}, {"type": "note_off", "time": 280, "note": 61, "velocity": 110, "channel": 0}, {"type": "note_on", "time": 0, "note": 62, "velocity": 112, "channel": 0}, {"type": "note_off", "time": 448, "note": 62, "velocity": 112, "channel": 0}, {"type": "note_on", "time": 71, "note": 64, "velocity": 112, "channel": 0}, {"type": "note_off", "time": 465, "note": 64, "velocity": 112, "channel": 0}, {"type": "note_on", "time": 29, "note": 65, "velocity": 108, "channel": 0}, {"type": "note_off", "time": 388, "note": 65, "velocity": 108, "channel": 0}, {"type": "note_on", "time": 11, "note": 62, "velocity": 111, "channel": 0}, {"type": "note_off", "time": 555, "note": 62, "velocity": 111, "channel": 0}, {"type": "note_on", "time": 0, "note": 59, "velocity": 99, "channel": 0}, {"type": "note_off", "time": 346, "note": 59, "velocity": 99, "channel": 0}, {"type": "note_on", "time": 41, "note": 58, "velocity": 103, "channel": 0}, {"type": "note_off", "time": 203, "note": 58, "velocity": 103, "channel": 0}, {"type": "note_on", "time": 83, "note": 57, "velocity": 98, "channel": 0}, {"type": "note_off", "time": 430, "note": 57, "velocity": 98, "channel": 0}, {"type": "note_on", "time": 2036, "note": 57, "velocity": 103, "channel": 0}, {"type": "note_off", "time": 358, "note": 57, "velocity": 103, "channel": 0}, {"type": "note_on", "time": 35, "note": 59, "velocity": 100, "channel": 0}, {"type": "note_off", "time": 352, "note": 59, "velocity": 100, "channel": 0}, {"type": "note_on", "time": 0, "note": 61, "velocity": 109, "channel": 0}, {"type": "note_off", "time": 364, "note": 61, "velocity": 109, "channel": 0}, {"type": "note_on", "time": 0, "note": 62, "velocity": 109, "channel": 0}, {"type": "note_off", "time": 400, "note": 62, "velocity": 109, "channel": 0}, {"type": "note_on", "time": 41, "note": 64, "velocity": 110, "channel": 0}, {"type": "note_off", "time": 436, "note": 64, "velocity": 110, "channel": 0}, {"type": "note_on", "time": 41, "note": 66, "velocity": 108, "channel": 0}, {"type": "note_off", "time": 328, "note": 66, "velocity": 108, "channel": 0}, {"type": "note_on", "time": 5, "note": 62, "velocity": 111, "channel": 0}, {"type": "note_off", "time": 459, "note": 62, "velocity": 111, "channel": 0}, {"type": "note_on", "time": 35, "note": 60, "velocity": 101, "channel": 0}, {"type": "note_off", "time": 376, "note": 60, "velocity": 101, "channel": 0}, {"type": "note_on", "time": 29, "note": 59, "velocity": 103, "channel": 0}, {"type": "note_off", "time": 286, "note": 59, "velocity": 103, "channel": 0}, {"type": "note_on", "time": 0, "note": 55, "velocity": 95, "channel": 0}, {"type": "note_off", "time": 370, "note": 55, "velocity": 95, "channel": 0}, {"type": "note_on", "time": 17, "note": 57, "velocity": 102, "channel": 0}, {"type": "note_off", "time": 525, "note": 57, "velocity": 102, "channel": 0}, {"type": "note_on", "time": 2269, "note": 53, "velocity": 107, "channel": 0}, {"type": "note_off", "time": 376, "note": 53, "velocity": 107, "channel": 0}, {"type": "note_on", "time": 0, "note": 55, "velocity": 106, "channel": 0}, {"type": "note_off", "time": 191, "note": 55, "velocity": 106, "channel": 0}, {"type": "note_on", "time": 83, "note": 57, "velocity": 108, "channel": 0}, {"type": "note_off", "time": 1308, "note": 57, "velocity": 108, "channel": 0}, {"type": "note_on", "time": 101, "note": 59, "velocity": 109, "channel": 0}, {"type": "note_off", "time": 280, "note": 59, "velocity": 109, "channel": 0}, {"type": "note_on", "time": 65, "note": 60, "velocity": 108, "channel": 0}, {"type": "note_off", "time": 280, "note": 60, "velocity": 108, "channel": 0}, {"type": "note_on", "time": 23, "note": 62, "velocity": 112, "channel": 0}, {"type": "note_off", "time": 442, "note": 62, "velocity": 112, "channel": 0}, {"type": "note_on", "time": 5, "note": 64, "velocity": 121, "channel": 0}, {"type": "note_off", "time": 543, "note": 64, "velocity": 121, "channel": 0}, {"type": "note_on", "time": 29, "note": 60, "velocity": 109, "channel": 0}, {"type": "note_off", "time": 274, "note": 60, "velocity": 109, "channel": 0}, {"type": "note_on", "time": 35, "note": 62, "velocity": 119, "channel": 0}, {"type": "note_off", "time": 585, "note": 62, "velocity": 119, "channel": 0}, {"type": "note_on", "time": 2156, "note": 62, "velocity": 110, "channel": 0}, {"type": "note_off", "time": 483, "note": 62, "velocity": 110, "channel": 0}, {"type": "note_on", "time": 41, "note": 65, "velocity": 100, "channel": 0}, {"type": "note_off", "time": 203, "note": 65, "velocity": 100, "channel": 0}, {"type": "note_on", "time": 41, "note": 69, "velocity": 100, "channel": 0}, {"type": "note_off", "time": 364, "note": 69, "velocity": 100, "channel": 0}, {"type": "note_on", "time": 1439, "note": 68, "velocity": 115, "channel": 0}, {"type": "note_off", "time": 418, "note": 68, "velocity": 115, "channel": 0}, {"type": "note_on", "time": 0, "note": 72, "velocity": 117, "channel": 0}, {"type": "note_off", "time": 304, "note": 72, "velocity": 117, "channel": 0}, {"type": "note_on", "time": 5, "note": 71, "velocity": 118, "channel": 0}, {"type": "note_off", "time": 412, "note": 71, "velocity": 118, "channel": 0}, {"type": "note_on", "time": 17, "note": 69, "velocity": 112, "channel": 0}, {"type": "note_off", "time": 352, "note": 69, "velocity": 112, "channel": 0}, {"type": "note_on", "time": 0, "note": 67, "velocity": 108, "channel": 0}, {"type": "note_off", "time": 418, "note": 67, "velocity": 108, "channel": 0}, {"type": "note_on", "time": 47, "note": 65, "velocity": 101, "channel": 0}, {"type": "note_off", "time": 113, "note": 65, "velocity": 101, "channel": 0}, {"type": "note_on", "time": 29, "note": 67, "velocity": 105, "channel": 0}, {"type": "note_off", "time": 262, "note": 67, "velocity": 105, "channel": 0}, {"type": "note_on", "time": 17, "note": 69, "velocity": 101, "channel": 0}, {"type": "note_off", "time": 525, "note": 69, "velocity": 101, "channel": 0}, {"type": "note_on", "time": 2150, "note": 62, "velocity": 99, "channel": 0}, {"type": "note_off", "time": 316, "note": 62, "velocity": 99, "channel": 0}, {"type": "note_on", "time": 89, "note": 65, "velocity": 97, "channel": 0}, {"type": "note_off", "time": 221, "note": 65, "velocity": 97, "channel": 0}, {"type": "note_on", "time": 35, "note": 69, "velocity": 96, "channel": 0}, {"type": "note_off", "time": 477, "note": 69, "velocity": 96, "channel": 0}, {"type": "note_on", "time": 29, "note": 72, "velocity": 97, "channel": 0}, {"type": "note_off", "time": 310, "note": 72, "velocity": 97, "channel": 0}, {"type": "note_on", "time": 83, "note": 67, "velocity": 97, "channel": 0}, {"type": "note_off", "time": 418, "note": 67, "velocity": 97, "channel": 0}, {"type": "note_on", "time": 17, "note": 69, "velocity": 95, "channel": 0}, {"type": "note_off", "time": 346, "note": 69, "velocity": 95, "channel": 0}, {"type": "note_on", "time": 41, "note": 71, "velocity": 102, "channel": 0}, {"type": "note_off", "time": 501, "note": 71, "velocity": 102, "channel": 0}, {"type": "note_on", "time": 17, "note": 67, "velocity": 101, "channel": 0}, {"type": "note_off", "time": 358, "note": 67, "velocity": 101, "channel": 0}, {"type": "note_on", "time": 66, "note": 65, "velocity": 105, "channel": 0}, {"type": "note_off", "time": 1402, "note": 65, "velocity": 105, "channel": 0}, {"type": "note_on", "time": 100, "note": 65, "velocity": 108, "channel": 0}, {"type": "note_off", "time": 428, "note": 65, "velocity": 108, "channel": 0}, {"type": "note_on", "time": 61, "note": 67, "velocity": 100, "channel": 0}, {"type": "note_off", "time": 364, "note": 67, "velocity": 100, "channel": 0}, {"type": "note_on", "time": 0, "note": 69, "velocity": 103, "channel": 0}, {"type": "note_off", "time": 334, "note": 69, "velocity": 103, "channel": 0}, {"type": "note_on", "time": 89, "note": 71, "velocity": 106, "channel": 0}, {"type": "note_off", "time": 352, "note": 71, "velocity": 106, "channel": 0}, {"type": "note_on", "time": 101, "note": 64, "velocity": 109, "channel": 0}, {"type": "note_off", "time": 519, "note": 64, "velocity": 109, "channel": 0}, {"type": "note_on", "time": 0, "note": 65, "velocity": 99, "channel": 0}, {"type": "note_off", "time": 250, "note": 65, "velocity": 99, "channel": 0}, {"type": "note_on", "time": 17, "note": 67, "velocity": 96, "channel": 0}, {"type": "note_off", "time": 376, "note": 67, "velocity": 96, "channel": 0}, {"type": "note_on", "time": 149, "note": 69, "velocity": 95, "channel": 0}, {"type": "note_off", "time": 316, "note": 69, "velocity": 95, "channel": 0}, {"type": "note_on", "time": 5, "note": 62, "velocity": 101, "channel": 0}, {"type": "note_off", "time": 561, "note": 62, "velocity": 101, "channel": 0}, {"type": "note_on", "time": 1092, "note": 62, "velocity": 108, "channel": 0}, {"type": "note_off", "time": 537, "note": 62, "velocity": 108, "channel": 0}, {"type": "note_on", "time": 33, "note": 64, "velocity": 115, "channel": 0}, {"type": "note_off", "time": 285, "note": 64, "velocity": 115, "channel": 0}, {"type": "note_on", "time": 58, "note": 65, "velocity": 100, "channel": 0}, {"type": "note_off", "time": 386, "note": 65, "velocity": 100, "channel": 0}, {"type": "note_on", "time": 33, "note": 66, "velocity": 105, "channel": 0}, {"type": "note_off", "time": 646, "note": 66, "velocity": 105, "channel": 0}, {"type": "note_on", "time": 79, "note": 68, "velocity": 106, "channel": 0}, {"type": "note_off", "time": 346, "note": 68, "velocity": 106, "channel": 0}, {"type": "note_on", "time": 23, "note": 64, "velocity": 108, "channel": 0}, {"type": "note_off", "time": 525, "note": 64, "velocity": 108, "channel": 0}, {"type": "note_on", "time": 107, "note": 60, "velocity": 93, "channel": 0}, {"type": "note_off", "time": 358, "note": 60, "velocity": 93, "channel": 0}, {"type": "note_on", "time": 29, "note": 62, "velocity": 108, "channel": 0}, {"type": "note_off", "time": 352, "note": 62, "velocity": 108, "channel": 0}, {"type": "note_on", "time": 0, "note": 60, "velocity": 102, "channel": 0}, {"type": "note_off", "time": 304, "note": 60, "velocity": 102, "channel": 0}, {"type": "note_on", "time": 0, "note": 59, "velocity": 105, "channel": 0}, {"type": "note_off", "time": 507, "note": 59, "velocity": 105, "channel": 0}, {"type": "note_on", "time": 119, "note": 55, "velocity": 96, "channel": 0}, {"type": "note_off", "time": 274, "note": 55, "velocity": 96, "channel": 0}, {"type": "note_on", "time": 53, "note": 57, "velocity": 107, "channel": 0}, {"type": "note_off", "time": 364, "note": 57, "velocity": 107, "channel": 0}, {"type": "note_on", "time": 71, "note": 53, "velocity": 102, "channel": 0}, {"type": "note_off", "time": 388, "note": 53, "velocity": 102, "channel": 0}, {"type": "note_on", "time": 23, "note": 50, "velocity": 105, "channel": 0}, {"type": "note_off", "time": 477, "note": 50, "velocity": 105, "channel": 0}, {"type": "note_on", "time": 18, "note": 55, "velocity": 104, "channel": 0}, {"type": "note_off", "time": 360, "note": 55, "velocity": 104, "channel": 0}, {"type": "note_on", "time": 0, "note": 53, "velocity": 102, "channel": 0}, {"type": "note_off", "time": 319, "note": 53, "velocity": 102, "channel": 0}, {"type": "note_on", "time": 41, "note": 50, "velocity": 95, "channel": 0}, {"type": "note_off", "time": 268, "note": 50, "velocity": 95, "channel": 0}, {"type": "note_on", "time": 1602, "note": 72, "velocity": 110, "channel": 0}, {"type": "note_off", "time": 430, "note": 72, "velocity": 110, "channel": 0}, {"type": "note_on", "time": 5, "note": 71, "velocity": 107, "channel": 0}, {"type": "note_off", "time": 376, "note": 71, "velocity": 107, "channel": 0}, {"type": "note_on", "time": 95, "note": 69, "velocity": 102, "channel": 0}, {"type": "note_off", "time": 746, "note": 69, "velocity": 102, "channel": 0}, {"type": "note_on", "time": 47, "note": 67, "velocity": 95, "channel": 0}, {"type": "note_off", "time": 770, "note": 67, "velocity": 95, "channel": 0}, {"type": "note_on", "time": 2090, "note": 67, "velocity": 98, "channel": 0}, {"type": "note_off", "time": 412, "note": 67, "velocity": 98, "channel": 0}, {"type": "note_on", "time": 47, "note": 69, "velocity": 102, "channel": 0}, {"type": "note_off", "time": 292, "note": 69, "velocity": 102, "channel": 0}, {"type": "note_on", "time": 5, "note": 71, "velocity": 107, "channel": 0}, {"type": "note_off", "time": 465, "note": 71, "velocity": 107, "channel": 0}, {"type": "note_on", "time": 53, "note": 67, "velocity": 103, "channel": 0}, {"type": "note_off", "time": 501, "note": 67, "velocity": 103, "channel": 0}, {"type": "note_on", "time": 17, "note": 65, "velocity": 99, "channel": 0}, {"type": "note_off", "time": 513, "note": 65, "velocity": 99, "channel": 0}, {"type": "note_on", "time": 0, "note": 67, "velocity": 94, "channel": 0}, {"type": "note_off", "time": 316, "note": 67, "velocity": 94, "channel": 0}, {"type": "note_on", "time": 0, "note": 69, "velocity": 95, "channel": 0}, {"type": "note_off", "time": 310, "note": 69, "velocity": 95, "channel": 0}, {"type": "note_on", "time": 101, "note": 65, "velocity": 95, "channel": 0}, {"type": "note_off", "time": 280, "note": 65, "velocity": 95, "channel": 0}, {"type": "note_on", "time": 0, "note": 62, "velocity": 97, "channel": 0}, {"type": "note_off", "time": 477, "note": 62, "velocity": 97, "channel": 0}, {"type": "note_on", "time": 2273, "note": 66, "velocity": 99, "channel": 0}, {"type": "note_off", "time": 369, "note": 66, "velocity": 99, "channel": 0}, {"type": "note_on", "time": 8, "note": 67, "velocity": 93, "channel": 0}, {"type": "note_off", "time": 1436, "note": 67, "velocity": 93, "channel": 0}, {"type": "note_on", "time": 260, "note": 62, "velocity": 96, "channel": 0}, {"type": "note_off", "time": 280, "note": 62, "velocity": 96, "channel": 0}, {"type": "note_on", "time": 0, "note": 67, "velocity": 97, "channel": 0}, {"type": "note_off", "time": 221, "note": 67, "velocity": 97, "channel": 0}, {"type": "note_on", "time": 131, "note": 69, "velocity": 91, "channel": 0}, {"type": "note_off", "time": 232, "note": 69, "velocity": 91, "channel": 0}, {"type": "note_on", "time": 95, "note": 72, "velocity": 84, "channel": 0}, {"type": "note_off", "time": 412, "note": 72, "velocity": 84, "channel": 0}, {"type": "note_on", "time": 197, "note": 71, "velocity": 100, "channel": 0}, {"type": "note_off", "time": 394, "note": 71, "velocity": 100, "channel": 0}, {"type": "note_on", "time": 23, "note": 60, "velocity": 101, "channel": 0}, {"type": "note_off", "time": 316, "note": 60, "velocity": 101, "channel": 0}, {"type": "note_on", "time": 173, "note": 65, "velocity": 95, "channel": 0}, {"type": "note_off", "time": 268, "note": 65, "velocity": 95, "channel": 0}, {"type": "note_on", "time": 5, "note": 69, "velocity": 93, "channel": 0}, {"type": "note_off", "time": 424, "note": 69, "velocity": 93, "channel": 0}, {"type": "note_on", "time": 119, "note": 72, "velocity": 98, "channel": 0}, {"type": "note_off", "time": 250, "note": 72, "velocity": 98, "channel": 0}, {"type": "note_on", "time": 0, "note": 70, "velocity": 103, "channel": 0}, {"type": "note_off", "time": 143, "note": 70, "velocity": 103, "channel": 0}, {"type": "note_on", "time": 23, "note": 69, "velocity": 96, "channel": 0}, {"type": "note_off", "time": 125, "note": 69, "velocity": 96, "channel": 0}, {"type": "note_on", "time": 0, "note": 71, "velocity": 95, "channel": 0}, {"type": "note_off", "time": 256, "note": 71, "velocity": 95, "channel": 0}, {"type": "note_on", "time": 2926, "note": 70, "velocity": 102, "channel": 0}, {"type": "note_off", "time": 161, "note": 70, "velocity": 102, "channel": 0}, {"type": "note_on", "time": 0, "note": 71, "velocity": 103, "channel": 0}, {"type": "note_off", "time": 197, "note": 71, "velocity": 103, "channel": 0}, {"type": "note_on", "time": 11, "note": 72, "velocity": 98, "channel": 0}, {"type": "note_off", "time": 101, "note": 72, "velocity": 98, "channel": 0}, {"type": "note_on", "time": 47, "note": 74, "velocity": 96, "channel": 0}, {"type": "note_off", "time": 1099, "note": 74, "velocity": 96, "channel": 0}, {"type": "note_on", "time": 59, "note": 71, "velocity": 101, "channel": 0}, {"type": "note_off", "time": 334, "note": 71, "velocity": 101, "channel": 0}, {"type": "note_on", "time": 17, "note": 74, "velocity": 97, "channel": 0}, {"type": "note_off", "time": 1009, "note": 74, "velocity": 97, "channel": 0}, {"type": "note_on", "time": 17, "note": 71, "velocity": 97, "channel": 0}, {"type": "note_off", "time": 286, "note": 71, "velocity": 97, "channel": 0}, {"type": "note_on", "time": 71, "note": 74, "velocity": 99, "channel": 0}, {"type": "note_off", "time": 842, "note": 74, "velocity": 99, "channel": 0}, {"type": "note_on", "time": 11, "note": 71, "velocity": 105, "channel": 0}, {"type": "note_off", "time": 442, "note": 71, "velocity": 105, "channel": 0}, {"type": "note_on", "time": 47, "note": 62, "velocity": 101, "channel": 0}, {"type": "note_off", "time": 394, "note": 62, "velocity": 101, "channel": 0}, {"type": "note_on", "time": 41, "note": 65, "velocity": 103, "channel": 0}, {"type": "note_off", "time": 633, "note": 65, "velocity": 103, "channel": 0}, {"type": "note_on", "time": 2544, "note": 72, "velocity": 100, "channel": 0}, {"type": "note_off", "time": 268, "note": 72, "velocity": 100, "channel": 0}, {"type": "note_on", "time": 238, "note": 75, "velocity": 91, "channel": 0}, {"type": "note_off", "time": 167, "note": 75, "velocity": 91, "channel": 0}, {"type": "note_on", "time": 710, "note": 75, "velocity": 102, "channel": 0}, {"type": "note_off", "time": 1433, "note": 75, "velocity": 102, "channel": 0}, {"type": "note_on", "time": 627, "note": 70, "velocity": 101, "channel": 0}, {"type": "note_off", "time": 376, "note": 70, "velocity": 101, "channel": 0}, {"type": "note_on", "time": 495, "note": 81, "velocity": 95, "channel": 0}, {"type": "note_off", "time": 203, "note": 81, "velocity": 95, "channel": 0}, {"type": "note_on", "time": 0, "note": 82, "velocity": 95, "channel": 0}, {"type": "note_off", "time": 215, "note": 82, "velocity": 95, "channel": 0}, {"type": "note_on", "time": 2036, "note": 72, "velocity": 92, "channel": 0}, {"type": "note_off", "time": 262, "note": 72, "velocity": 92, "channel": 0}, {"type": "note_on", "time": 221, "note": 75, "velocity": 96, "channel": 0}, {"type": "note_off", "time": 334, "note": 75, "velocity": 96, "channel": 0}, {"type": "note_on", "time": 639, "note": 75, "velocity": 97, "channel": 0}, {"type": "note_off", "time": 1111, "note": 75, "velocity": 97, "channel": 0}, {"type": "note_on", "time": 143, "note": 72, "velocity": 94, "channel": 0}, {"type": "note_off", "time": 298, "note": 72, "velocity": 94, "channel": 0}, {"type": "note_on", "time": 23, "note": 73, "velocity": 98, "channel": 0}, {"type": "note_off", "time": 352, "note": 73, "velocity": 98, "channel": 0}, {"type": "note_on", "time": 53, "note": 68, "velocity": 94, "channel": 0}, {"type": "note_off", "time": 931, "note": 68, "velocity": 94, "channel": 0}, {"type": "note_on", "time": 2861, "note": 75, "velocity": 85, "channel": 0}, {"type": "note_off", "time": 250, "note": 75, "velocity": 85, "channel": 0}, {"type": "note_on", "time": 585, "note": 75, "velocity": 99, "channel": 0}, {"type": "note_off", "time": 1553, "note": 75, "velocity": 99, "channel": 0}, {"type": "note_on", "time": 0, "note": 74, "velocity": 98, "channel": 0}, {"type": "note_off", "time": 191, "note": 74, "velocity": 98, "channel": 0}, {"type": "note_on", "time": 11, "note": 73, "velocity": 97, "channel": 0}, {"type": "note_off", "time": 101, "note": 73, "velocity": 97, "channel": 0}, {"type": "note_on", "time": 41, "note": 72, "velocity": 99, "channel": 0}, {"type": "note_off", "time": 376, "note": 72, "velocity": 99, "channel": 0}, {"type": "note_on", "time": 728, "note": 75, "velocity": 102, "channel": 0}, {"type": "note_off", "time": 364, "note": 75, "velocity": 102, "channel": 0}, {"type": "note_on", "time": 1308, "note": 82, "velocity": 95, "channel": 0}, {"type": "note_off", "time": 203, "note": 82, "velocity": 95, "channel": 0}, {"type": "note_on", "time": 5, "note": 83, "velocity": 92, "channel": 0}, {"type": "note_off", "time": 161, "note": 83, "velocity": 92, "channel": 0}, {"type": "note_on", "time": 636, "note": 75, "velocity": 97, "channel": 0}, {"type": "note_off", "time": 856, "note": 75, "velocity": 97, "channel": 0}, {"type": "note_on", "time": 549, "note": 75, "velocity": 107, "channel": 0}, {"type": "note_off", "time": 896, "note": 75, "velocity": 107, "channel": 0}, {"type": "note_on", "time": 5, "note": 72, "velocity": 109, "channel": 0}, {"type": "note_off", "time": 400, "note": 72, "velocity": 109, "channel": 0}, {"type": "note_on", "time": 0, "note": 73, "velocity": 103, "channel": 0}, {"type": "note_off", "time": 382, "note": 73, "velocity": 103, "channel": 0}, {"type": "note_on", "time": 16, "note": 68, "velocity": 108, "channel": 0}, {"type": "note_off", "time": 1150, "note": 68, "velocity": 108, "channel": 0}, {"type": "note_on", "time": 2763, "note": 75, "velocity": 81, "channel": 0}, {"type": "note_off", "time": 302, "note": 75, "velocity": 81, "channel": 0}, {"type": "note_on", "time": 445, "note": 74, "velocity": 110, "channel": 0}, {"type": "note_off", "time": 1621, "note": 74, "velocity": 110, "channel": 0}, {"type": "note_on", "time": 75, "note": 72, "velocity": 102, "channel": 0}, {"type": "note_off", "time": 294, "note": 72, "velocity": 102, "channel": 0}, {"type": "note_on", "time": 8, "note": 71, "velocity": 104, "channel": 0}, {"type": "note_off", "time": 310, "note": 71, "velocity": 104, "channel": 0}, {"type": "note_on", "time": 567, "note": 74, "velocity": 88, "channel": 0}, {"type": "note_off", "time": 334, "note": 74, "velocity": 88, "channel": 0}, {"type": "note_on", "time": 2305, "note": 74, "velocity": 105, "channel": 0}, {"type": "note_off", "time": 633, "note": 74, "velocity": 105, "channel": 0}, {"type": "note_on", "time": 47, "note": 74, "velocity": 100, "channel": 0}, {"type": "note_off", "time": 197, "note": 74, "velocity": 100, "channel": 0}, {"type": "note_on", "time": 448, "note": 81, "velocity": 105, "channel": 0}, {"type": "note_off", "time": 185, "note": 81, "velocity": 105, "channel": 0}, {"type": "note_on", "time": 0, "note": 82, "velocity": 100, "channel": 0}, {"type": "note_off", "time": 830, "note": 82, "velocity": 100, "channel": 0}, {"type": "note_on", "time": 209, "note": 71, "velocity": 105, "channel": 0}, {"type": "note_off", "time": 424, "note": 71, "velocity": 105, "channel": 0}, {"type": "note_on", "time": 71, "note": 62, "velocity": 87, "channel": 0}, {"type": "note_off", "time": 232, "note": 62, "velocity": 87, "channel": 0}, {"type": "note_on", "time": 17, "note": 65, "velocity": 102, "channel": 0}, {"type": "note_off", "time": 722, "note": 65, "velocity": 102, "channel": 0}, {"type": "note_on", "time": 2508, "note": 66, "velocity": 105, "channel": 0}, {"type": "note_off", "time": 298, "note": 66, "velocity": 105, "channel": 0}, {"type": "note_on", "time": 1033, "note": 80, "velocity": 107, "channel": 0}, {"type": "note_off", "time": 244, "note": 80, "velocity": 107, "channel": 0}, {"type": "note_on", "time": 101, "note": 74, "velocity": 110, "channel": 0}, {"type": "note_off", "time": 1451, "note": 74, "velocity": 110, "channel": 0}, {"type": "note_on", "time": 47, "note": 73, "velocity": 100, "channel": 0}, {"type": "note_off", "time": 238, "note": 73, "velocity": 100, "channel": 0}, {"type": "note_on", "time": 0, "note": 71, "velocity": 104, "channel": 0}, {"type": "note_off", "time": 334, "note": 71, "velocity": 104, "channel": 0}, {"type": "note_on", "time": 573, "note": 74, "velocity": 103, "channel": 0}, {"type": "note_off", "time": 621, "note": 74, "velocity": 103, "channel": 0}, {"type": "note_on", "time": 1953, "note": 74, "velocity": 99, "channel": 0}, {"type": "note_off", "time": 418, "note": 74, "velocity": 99, "channel": 0}, {"type": "note_on", "time": 23, "note": 75, "velocity": 88, "channel": 0}, {"type": "note_off", "time": 143, "note": 75, "velocity": 88, "channel": 0}, {"type": "note_on", "time": 633, "note": 74, "velocity": 99, "channel": 0}, {"type": "note_off", "time": 1093, "note": 74, "velocity": 99, "channel": 0}, {"type": "note_on", "time": 137, "note": 71, "velocity": 100, "channel": 0}, {"type": "note_off", "time": 352, "note": 71, "velocity": 100, "channel": 0}, {"type": "note_on", "time": 418, "note": 67, "velocity": 97, "channel": 0}, {"type": "note_off", "time": 1039, "note": 67, "velocity": 97, "channel": 0}, {"type": "note_on", "time": 4611, "note": 68, "velocity": 89, "channel": 0}, {"type": "note_off", "time": 513, "note": 68, "velocity": 89, "channel": 0}, {"type": "note_on", "time": 11, "note": 69, "velocity": 99, "channel": 0}, {"type": "note_off", "time": 3834, "note": 69, "velocity": 99, "channel": 0}, {"type": "note_on", "time": 37, "note": 68, "velocity": 97, "channel": 0}, {"type": "note_off", "time": 378, "note": 68, "velocity": 97, "channel": 0}, {"type": "note_on", "time": 16, "note": 69, "velocity": 96, "channel": 0}, {"type": "note_off", "time": 562, "note": 69, "velocity": 96, "channel": 0}, {"type": "note_on", "time": 487, "note": 69, "velocity": 93, "channel": 0}, {"type": "note_off", "time": 1596, "note": 69, "velocity": 93, "channel": 0}, {"type": "note_on", "time": 67, "note": 70, "velocity": 98, "channel": 0}, {"type": "note_off", "time": 319, "note": 70, "velocity": 98, "channel": 0}, {"type": "note_on", "time": 8, "note": 69, "velocity": 94, "channel": 0}, {"type": "note_off", "time": 336, "note": 69, "velocity": 94, "channel": 0}, {"type": "note_on", "time": 92, "note": 65, "velocity": 95, "channel": 0}, {"type": "note_off", "time": 218, "note": 65, "velocity": 95, "channel": 0}, {"type": "note_on", "time": 16, "note": 62, "velocity": 97, "channel": 0}, {"type": "note_off", "time": 546, "note": 62, "velocity": 97, "channel": 0}, {"type": "note_on", "time": 92, "note": 59, "velocity": 91, "channel": 0}, {"type": "note_off", "time": 310, "note": 59, "velocity": 91, "channel": 0}, {"type": "note_on", "time": 75, "note": 68, "velocity": 94, "channel": 0}, {"type": "note_off", "time": 621, "note": 68, "velocity": 94, "channel": 0}, {"type": "note_on", "time": 58, "note": 67, "velocity": 94, "channel": 0}, {"type": "note_off", "time": 487, "note": 67, "velocity": 94, "channel": 0}, {"type": "note_on", "time": 100, "note": 71, "velocity": 103, "channel": 0}, {"type": "note_off", "time": 268, "note": 71, "velocity": 103, "channel": 0}, {"type": "note_on", "time": 58, "note": 69, "velocity": 102, "channel": 0}, {"type": "note_off", "time": 512, "note": 69, "velocity": 102, "channel": 0}, {"type": "note_on", "time": 16, "note": 66, "velocity": 100, "channel": 0}, {"type": "note_off", "time": 369, "note": 66, "velocity": 100, "channel": 0}, {"type": "note_on", "time": 50, "note": 65, "velocity": 103, "channel": 0}, {"type": "note_off", "time": 252, "note": 65, "velocity": 103, "channel": 0}, {"type": "note_on", "time": 67, "note": 64, "velocity": 108, "channel": 0}, {"type": "note_off", "time": 495, "note": 64, "velocity": 108, "channel": 0}, {"type": "note_on", "time": 25, "note": 63, "velocity": 106, "channel": 0}, {"type": "note_off", "time": 361, "note": 63, "velocity": 106, "channel": 0}, {"type": "note_on", "time": 40, "note": 65, "velocity": 100, "channel": 0}, {"type": "note_off", "time": 161, "note": 65, "velocity": 100, "channel": 0}, {"type": "note_on", "time": 5, "note": 66, "velocity": 98, "channel": 0}, {"type": "note_off", "time": 394, "note": 66, "velocity": 98, "channel": 0}, {"type": "note_on", "time": 47, "note": 67, "velocity": 101, "channel": 0}, {"type": "note_off", "time": 238, "note": 67, "velocity": 101, "channel": 0}, {"type": "note_on", "time": 18, "note": 70, "velocity": 101, "channel": 0}, {"type": "note_off", "time": 274, "note": 70, "velocity": 101, "channel": 0}, {"type": "note_on", "time": 111, "note": 71, "velocity": 100, "channel": 0}, {"type": "note_off", "time": 151, "note": 71, "velocity": 100, "channel": 0}, {"type": "note_on", "time": 0, "note": 64, "velocity": 102, "channel": 0}, {"type": "note_off", "time": 268, "note": 64, "velocity": 102, "channel": 0}, {"type": "note_on", "time": 28, "note": 66, "velocity": 96, "channel": 0}, {"type": "note_off", "time": 358, "note": 66, "velocity": 96, "channel": 0}, {"type": "note_on", "time": 179, "note": 68, "velocity": 95, "channel": 0}, {"type": "note_off", "time": 304, "note": 68, "velocity": 95, "channel": 0}, {"type": "note_on", "time": 0, "note": 70, "velocity": 99, "channel": 0}, {"type": "note_off", "time": 316, "note": 70, "velocity": 99, "channel": 0}, {"type": "note_on", "time": 125, "note": 66, "velocity": 99, "channel": 0}, {"type": "note_off", "time": 430, "note": 66, "velocity": 99, "channel": 0}, {"type": "note_on", "time": 29, "note": 63, "velocity": 105, "channel": 0}, {"type": "note_off", "time": 400, "note": 63, "velocity": 105, "channel": 0}, {"type": "note_on", "time": 47, "note": 59, "velocity": 100, "channel": 0}, {"type": "note_off", "time": 256, "note": 59, "velocity": 100, "channel": 0}, {"type": "note_on", "time": 5, "note": 58, "velocity": 99, "channel": 0}, {"type": "note_off", "time": 406, "note": 58, "velocity": 99, "channel": 0}, {"type": "note_on", "time": 0, "note": 57, "velocity": 101, "channel": 0}, {"type": "note_off", "time": 442, "note": 57, "velocity": 101, "channel": 0}, {"type": "note_on", "time": 71, "note": 56, "velocity": 99, "channel": 0}, {"type": "note_off", "time": 244, "note": 56, "velocity": 99, "channel": 0}, {"type": "note_on", "time": 0, "note": 55, "velocity": 98, "channel": 0}, {"type": "note_off", "time": 531, "note": 55, "velocity": 98, "channel": 0}, {"type": "note_on", "time": 65, "note": 59, "velocity": 34, "channel": 0}, {"type": "note_off", "time": 292, "note": 59, "velocity": 34, "channel": 0}, {"type": "note_on", "time": 47, "note": 57, "velocity": 103, "channel": 0}, {"type": "note_off", "time": 286, "note": 57, "velocity": 103, "channel": 0}, {"type": "note_on", "time": 11, "note": 62, "velocity": 105, "channel": 0}, {"type": "note_off", "time": 453, "note": 62, "velocity": 105, "channel": 0}, {"type": "note_on", "time": 71, "note": 65, "velocity": 103, "channel": 0}, {"type": "note_off", "time": 465, "note": 65, "velocity": 103, "channel": 0}, {"type": "note_on", "time": 29, "note": 69, "velocity": 98, "channel": 0}, {"type": "note_off", "time": 209, "note": 69, "velocity": 98, "channel": 0}, {"type": "note_on", "time": 23, "note": 74, "velocity": 105, "channel": 0}, {"type": "note_off", "time": 298, "note": 74, "velocity": 105, "channel": 0}, {"type": "note_on", "time": 47, "note": 72, "velocity": 96, "channel": 0}, {"type": "note_off", "time": 328, "note": 72, "velocity": 96, "channel": 0}, {"type": "note_on", "time": 5424, "note": 69, "velocity": 95, "channel": 0}, {"type": "note_off", "time": 1394, "note": 69, "velocity": 95, "channel": 0}, {"type": "note_on", "time": 109, "note": 67, "velocity": 100, "channel": 0}, {"type": "note_off", "time": 336, "note": 67, "velocity": 100, "channel": 0}, {"type": "note_on", "time": 33, "note": 65, "velocity": 101, "channel": 0}, {"type": "note_off", "time": 352, "note": 65, "velocity": 101, "channel": 0}, {"type": "note_on", "time": 49, "note": 62, "velocity": 108, "channel": 0}, {"type": "note_off", "time": 537, "note": 62, "velocity": 108, "channel": 0}, {"type": "note_on", "time": 59, "note": 59, "velocity": 102, "channel": 0}, {"type": "note_off", "time": 226, "note": 59, "velocity": 102, "channel": 0}, {"type": "note_on", "time": 3691, "note": 57, "velocity": 98, "channel": 0}, {"type": "note_off", "time": 1786, "note": 57, "velocity": 98, "channel": 0}, {"type": "note_on", "time": 0, "note": 55, "velocity": 92, "channel": 0}, {"type": "note_off", "time": 203, "note": 55, "velocity": 92, "channel": 0}, {"type": "note_on", "time": 0, "note": 53, "velocity": 95, "channel": 0}, {"type": "note_off", "time": 645, "note": 53, "velocity": 95, "channel": 0}, {"type": "note_on", "time": 1260, "note": 61, "velocity": 103, "channel": 0}, {"type": "note_off", "time": 424, "note": 61, "velocity": 103, "channel": 0}, {"type": "note_on", "time": 0, "note": 60, "velocity": 98, "channel": 0}, {"type": "note_off", "time": 280, "note": 60, "velocity": 98, "channel": 0}, {"type": "note_on", "time": 17, "note": 59, "velocity": 98, "channel": 0}, {"type": "note_off", "time": 388, "note": 59, "velocity": 98, "channel": 0}, {"type": "note_on", "time": 17, "note": 58, "velocity": 99, "channel": 0}, {"type": "note_off", "time": 358, "note": 58, "velocity": 99, "channel": 0}, {"type": "note_on", "time": 17, "note": 57, "velocity": 97, "channel": 0}, {"type": "note_off", "time": 436, "note": 57, "velocity": 97, "channel": 0}, {"type": "note_on", "time": 35, "note": 56, "velocity": 96, "channel": 0}, {"type": "note_off", "time": 340, "note": 56, "velocity": 96, "channel": 0}, {"type": "note_on", "time": 29, "note": 55, "velocity": 94, "channel": 0}, {"type": "note_off", "time": 424, "note": 55, "velocity": 94, "channel": 0}, {"type": "note_on", "time": 0, "note": 58, "velocity": 94, "channel": 0}, {"type": "note_off", "time": 197, "note": 58, "velocity": 94, "channel": 0}, {"type": "note_on", "time": 11, "note": 59, "velocity": 95, "channel": 0}, {"type": "note_off", "time": 173, "note": 59, "velocity": 95, "channel": 0}, {"type": "note_on", "time": 59, "note": 57, "velocity": 92, "channel": 0}, {"type": "note_off", "time": 358, "note": 57, "velocity": 92, "channel": 0}, {"type": "note_on", "time": 71, "note": 62, "velocity": 101, "channel": 0}, {"type": "note_off", "time": 471, "note": 62, "velocity": 101, "channel": 0}, {"type": "note_on", "time": 71, "note": 65, "velocity": 91, "channel": 0}, {"type": "note_off", "time": 238, "note": 65, "velocity": 91, "channel": 0}, {"type": "note_on", "time": 71, "note": 69, "velocity": 83, "channel": 0}, {"type": "note_off", "time": 334, "note": 69, "velocity": 83, "channel": 0}, {"type": "note_on", "time": 0, "note": 72, "velocity": 100, "channel": 0}, {"type": "note_off", "time": 346, "note": 72, "velocity": 100, "channel": 0}, {"type": "note_on", "time": 77, "note": 72, "velocity": 95, "channel": 0}, {"type": "note_off", "time": 376, "note": 72, "velocity": 95, "channel": 0}, {"type": "note_on", "time": 47, "note": 69, "velocity": 94, "channel": 0}, {"type": "note_off", "time": 346, "note": 69, "velocity": 94, "channel": 0}, {"type": "note_on", "time": 77, "note": 72, "velocity": 100, "channel": 0}, {"type": "note_off", "time": 334, "note": 72, "velocity": 100, "channel": 0}, {"type": "note_on", "time": 5, "note": 67, "velocity": 99, "channel": 0}, {"type": "note_off", "time": 567, "note": 67, "velocity": 99, "channel": 0}, {"type": "note_on", "time": 2974, "note": 67, "velocity": 97, "channel": 0}, {"type": "note_off", "time": 1140, "note": 67, "velocity": 97, "channel": 0}, {"type": "note_on", "time": 71, "note": 63, "velocity": 99, "channel": 0}, {"type": "note_off", "time": 418, "note": 63, "velocity": 99, "channel": 0}, {"type": "note_on", "time": 0, "note": 68, "velocity": 100, "channel": 0}, {"type": "note_off", "time": 328, "note": 68, "velocity": 100, "channel": 0}, {"type": "note_on", "time": 65, "note": 66, "velocity": 96, "channel": 0}, {"type": "note_off", "time": 340, "note": 66, "velocity": 96, "channel": 0}, {"type": "note_on", "time": 65, "note": 63, "velocity": 106, "channel": 0}, {"type": "note_off", "time": 471, "note": 63, "velocity": 106, "channel": 0}, {"type": "note_on", "time": 65, "note": 58, "velocity": 94, "channel": 0}, {"type": "note_off", "time": 340, "note": 58, "velocity": 94, "channel": 0}, {"type": "note_on", "time": 41, "note": 66, "velocity": 105, "channel": 0}, {"type": "note_off", "time": 310, "note": 66, "velocity": 105, "channel": 0}, {"type": "note_on", "time": 0, "note": 65, "velocity": 75, "channel": 0}, {"type": "note_off", "time": 430, "note": 65, "velocity": 75, "channel": 0}, {"type": "note_on", "time": 997, "note": 60, "velocity": 103, "channel": 0}, {"type": "note_off", "time": 382, "note": 60, "velocity": 103, "channel": 0}, {"type": "note_on", "time": 35, "note": 65, "velocity": 106, "channel": 0}, {"type": "note_off", "time": 322, "note": 65, "velocity": 106, "channel": 0}, {"type": "note_on", "time": 29, "note": 68, "velocity": 107, "channel": 0}, {"type": "note_off", "time": 388, "note": 68, "velocity": 107, "channel": 0}, {"type": "note_on", "time": 29, "note": 70, "velocity": 109, "channel": 0}, {"type": "note_off", "time": 418, "note": 70, "velocity": 109, "channel": 0}, {"type": "note_on", "time": 0, "note": 68, "velocity": 114, "channel": 0}, {"type": "note_off", "time": 203, "note": 68, "velocity": 114, "channel": 0}, {"type": "note_on", "time": 59, "note": 62, "velocity": 106, "channel": 0}, {"type": "note_off", "time": 340, "note": 62, "velocity": 106, "channel": 0}, {"type": "note_on", "time": 17, "note": 61, "velocity": 103, "channel": 0}, {"type": "note_off", "time": 232, "note": 61, "velocity": 103, "channel": 0}, {"type": "note_on", "time": 29, "note": 59, "velocity": 102, "channel": 0}, {"type": "note_off", "time": 430, "note": 59, "velocity": 102, "channel": 0}, {"type": "note_on", "time": 35, "note": 56, "velocity": 99, "channel": 0}, {"type": "note_on", "time": 346, "note": 57, "velocity": 103, "channel": 0}, {"type": "note_off", "time": 0, "note": 56, "velocity": 99, "channel": 0}, {"type": "note_off", "time": 388, "note": 57, "velocity": 103, "channel": 0}, {"type": "note_on", "time": 77, "note": 59, "velocity": 104, "channel": 0}, {"type": "note_off", "time": 232, "note": 59, "velocity": 104, "channel": 0}, {"type": "note_on", "time": 71, "note": 61, "velocity": 98, "channel": 0}, {"type": "note_off", "time": 483, "note": 61, "velocity": 98, "channel": 0}, {"type": "note_on", "time": 41, "note": 62, "velocity": 105, "channel": 0}, {"type": "note_off", "time": 477, "note": 62, "velocity": 105, "channel": 0}, {"type": "note_on", "time": 0, "note": 64, "velocity": 107, "channel": 0}, {"type": "note_off", "time": 346, "note": 64, "velocity": 107, "channel": 0}, {"type": "note_on", "time": 41, "note": 65, "velocity": 105, "channel": 0}, {"type": "note_off", "time": 358, "note": 65, "velocity": 105, "channel": 0}, {"type": "note_on", "time": 0, "note": 67, "velocity": 101, "channel": 0}, {"type": "note_off", "time": 412, "note": 67, "velocity": 101, "channel": 0}, {"type": "note_on", "time": 77, "note": 69, "velocity": 106, "channel": 0}, {"type": "note_off", "time": 370, "note": 69, "velocity": 106, "channel": 0}, {"type": "note_on", "time": 17, "note": 70, "velocity": 103, "channel": 0}, {"type": "note_off", "time": 465, "note": 70, "velocity": 103, "channel": 0}, {"type": "note_on", "time": 77, "note": 70, "velocity": 96, "channel": 0}, {"type": "note_off", "time": 424, "note": 70, "velocity": 96, "channel": 0}, {"type": "note_on", "time": 5, "note": 69, "velocity": 101, "channel": 0}, {"type": "note_off", "time": 513, "note": 69, "velocity": 101, "channel": 0}, {"type": "note_on", "time": 5, "note": 67, "velocity": 99, "channel": 0}, {"type": "note_off", "time": 238, "note": 67, "velocity": 99, "channel": 0}, {"type": "note_on", "time": 71, "note": 65, "velocity": 95, "channel": 0}, {"type": "note_off", "time": 370, "note": 65, "velocity": 95, "channel": 0}, {"type": "note_on", "time": 203, "note": 67, "velocity": 97, "channel": 0}, {"type": "note_off", "time": 226, "note": 67, "velocity": 97, "channel": 0}, {"type": "note_on", "time": 29, "note": 69, "velocity": 92, "channel": 0}, {"type": "note_off", "time": 226, "note": 69, "velocity": 92, "channel": 0}, {"type": "note_on", "time": 23, "note": 71, "velocity": 103, "channel": 0}, {"type": "note_off", "time": 268, "note": 71, "velocity": 103, "channel": 0}, {"type": "note_on", "time": 47, "note": 70, "velocity": 93, "channel": 0}, {"type": "note_off", "time": 268, "note": 70, "velocity": 93, "channel": 0}, {"type": "note_on", "time": 0, "note": 63, "velocity": 100, "channel": 0}, {"type": "note_off", "time": 322, "note": 63, "velocity": 100, "channel": 0}, {"type": "note_on", "time": 23, "note": 66, "velocity": 100, "channel": 0}, {"type": "note_off", "time": 292, "note": 66, "velocity": 100, "channel": 0}, {"type": "note_on", "time": 11, "note": 65, "velocity": 100, "channel": 0}, {"type": "note_off", "time": 448, "note": 65, "velocity": 100, "channel": 0}, {"type": "note_on", "time": 53, "note": 64, "velocity": 107, "channel": 0}, {"type": "note_off", "time": 352, "note": 64, "velocity": 107, "channel": 0}, {"type": "note_on", "time": 47, "note": 63, "velocity": 111, "channel": 0}, {"type": "note_off", "time": 453, "note": 63, "velocity": 111, "channel": 0}, {"type": "note_on", "time": 41, "note": 62, "velocity": 99, "channel": 0}, {"type": "note_off", "time": 376, "note": 62, "velocity": 99, "channel": 0}, {"type": "note_on", "time": 59, "note": 61, "velocity": 100, "channel": 0}, {"type": "note_off", "time": 215, "note": 61, "velocity": 100, "channel": 0}, {"type": "note_on", "time": 29, "note": 60, "velocity": 93, "channel": 0}, {"type": "note_off", "time": 424, "note": 60, "velocity": 93, "channel": 0}, {"type": "note_on", "time": 23, "note": 58, "velocity": 101, "channel": 0}, {"type": "note_off", "time": 322, "note": 58, "velocity": 101, "channel": 0}, {"type": "note_on", "time": 173, "note": 54, "velocity": 99, "channel": 0}, {"type": "note_off", "time": 388, "note": 54, "velocity": 99, "channel": 0}, {"type": "note_on", "time": 53, "note": 53, "velocity": 97, "channel": 0}, {"type": "note_off", "time": 274, "note": 53, "velocity": 97, "channel": 0}, {"type": "note_on", "time": 5, "note": 51, "velocity": 95, "channel": 0}, {"type": "note_off", "time": 436, "note": 51, "velocity": 95, "channel": 0}, {"type": "note_on", "time": 83, "note": 56, "velocity": 99, "channel": 0}, {"type": "note_off", "time": 448, "note": 56, "velocity": 99, "channel": 0}, {"type": "note_on", "time": 0, "note": 54, "velocity": 103, "channel": 0}, {"type": "note_off", "time": 280, "note": 54, "velocity": 103, "channel": 0}, {"type": "note_on", "time": 53, "note": 51, "velocity": 101, "channel": 0}, {"type": "note_off", "time": 364, "note": 51, "velocity": 101, "channel": 0}, {"type": "note_on", "time": 65, "note": 48, "velocity": 89, "channel": 0}, {"type": "note_off", "time": 274, "note": 48, "velocity": 89, "channel": 0}, {"type": "note_on", "time": 101, "note": 53, "velocity": 94, "channel": 0}, {"type": "note_off", "time": 1182, "note": 53, "velocity": 94, "channel": 0}, {"type": "note_on", "time": 101, "note": 51, "velocity": 101, "channel": 0}, {"type": "note_off", "time": 334, "note": 51, "velocity": 101, "channel": 0}, {"type": "note_on", "time": 47, "note": 56, "velocity": 108, "channel": 0}, {"type": "note_off", "time": 262, "note": 56, "velocity": 108, "channel": 0}, {"type": "note_on", "time": 59, "note": 47, "velocity": 103, "channel": 0}, {"type": "note_off", "time": 459, "note": 47, "velocity": 103, "channel": 0}, {"type": "note_on", "time": 2699, "note": 46, "velocity": 99, "channel": 0}, {"type": "note_off", "time": 543, "note": 46, "velocity": 99, "channel": 0}, {"type": "note_on", "time": 53, "note": 51, "velocity": 95, "channel": 0}, {"type": "note_off", "time": 477, "note": 51, "velocity": 95, "channel": 0}, {"type": "note_on", "time": 282, "note": 68, "velocity": 85, "channel": 0}, {"type": "note_off", "time": 113, "note": 68, "velocity": 85, "channel": 0}, {"type": "note_on", "time": 207, "note": 64, "velocity": 92, "channel": 0}, {"type": "note_off", "time": 412, "note": 64, "velocity": 92, "channel": 0}, {"type": "note_on", "time": 29, "note": 65, "velocity": 95, "channel": 0}, {"type": "note_off", "time": 304, "note": 65, "velocity": 95, "channel": 0}, {"type": "note_on", "time": 47, "note": 69, "velocity": 91, "channel": 0}, {"type": "note_off", "time": 221, "note": 69, "velocity": 91, "channel": 0}, {"type": "note_on", "time": 65, "note": 63, "velocity": 103, "channel": 0}, {"type": "note_off", "time": 442, "note": 63, "velocity": 103, "channel": 0}, {"type": "note_on", "time": 20, "note": 55, "velocity": 106, "channel": 0}, {"type": "note_off", "time": 222, "note": 55, "velocity": 106, "channel": 0}, {"type": "note_on", "time": 1461, "note": 50, "velocity": 103, "channel": 0}, {"type": "note_off", "time": 243, "note": 50, "velocity": 103, "channel": 0}, {"type": "note_on", "time": 29, "note": 51, "velocity": 104, "channel": 0}, {"type": "note_off", "time": 163, "note": 51, "velocity": 104, "channel": 0}, {"type": "note_on", "time": 16, "note": 50, "velocity": 102, "channel": 0}, {"type": "note_off", "time": 226, "note": 50, "velocity": 102, "channel": 0}, {"type": "note_on", "time": 4, "note": 49, "velocity": 96, "channel": 0}, {"type": "note_off", "time": 394, "note": 49, "velocity": 96, "channel": 0}, {"type": "note_on", "time": 155, "note": 53, "velocity": 100, "channel": 0}, {"type": "note_off", "time": 340, "note": 53, "velocity": 100, "channel": 0}, {"type": "note_on", "time": 84, "note": 49, "velocity": 97, "channel": 0}, {"type": "note_off", "time": 373, "note": 49, "velocity": 97, "channel": 0}, {"type": "note_on", "time": 0, "note": 50, "velocity": 101, "channel": 0}, {"type": "note_off", "time": 214, "note": 50, "velocity": 101, "channel": 0}, {"type": "note_on", "time": 46, "note": 51, "velocity": 99, "channel": 0}, {"type": "note_off", "time": 512, "note": 51, "velocity": 99, "channel": 0}, {"type": "note_on", "time": 79, "note": 53, "velocity": 101, "channel": 0}, {"type": "note_off", "time": 273, "note": 53, "velocity": 101, "channel": 0}, {"type": "note_on", "time": 71, "note": 55, "velocity": 98, "channel": 0}, {"type": "note_off", "time": 239, "note": 55, "velocity": 98, "channel": 0}, {"type": "note_on", "time": 0, "note": 56, "velocity": 99, "channel": 0}, {"type": "note_off", "time": 306, "note": 56, "velocity": 99, "channel": 0}, {"type": "note_on", "time": 50, "note": 57, "velocity": 95, "channel": 0}, {"type": "note_off", "time": 420, "note": 57, "velocity": 95, "channel": 0}, {"type": "note_on", "time": 83, "note": 60, "velocity": 92, "channel": 0}, {"type": "note_off", "time": 176, "note": 60, "velocity": 92, "channel": 0}, {"type": "note_on", "time": 48, "note": 59, "velocity": 93, "channel": 0}, {"type": "note_off", "time": 226, "note": 59, "velocity": 93, "channel": 0}, {"type": "note_on", "time": 220, "note": 51, "velocity": 97, "channel": 0}, {"type": "note_off", "time": 268, "note": 51, "velocity": 97, "channel": 0}, {"type": "note_on", "time": 1285, "note": 62, "velocity": 97, "channel": 0}, {"type": "note_off", "time": 176, "note": 62, "velocity": 97, "channel": 0}, {"type": "note_on", "time": 0, "note": 64, "velocity": 101, "channel": 0}, {"type": "note_off", "time": 126, "note": 64, "velocity": 101, "channel": 0}, {"type": "note_on", "time": 79, "note": 66, "velocity": 97, "channel": 0}, {"type": "note_off", "time": 478, "note": 66, "velocity": 97, "channel": 0}, {"type": "note_on", "time": 222, "note": 56, "velocity": 86, "channel": 0}, {"type": "note_off", "time": 243, "note": 56, "velocity": 86, "channel": 0}, {"type": "note_on", "time": 37, "note": 57, "velocity": 90, "channel": 0}, {"type": "note_off", "time": 243, "note": 57, "velocity": 90, "channel": 0}, {"type": "note_on", "time": 75, "note": 63, "velocity": 106, "channel": 0}, {"type": "note_off", "time": 546, "note": 63, "velocity": 106, "channel": 0}, {"type": "note_on", "time": 0, "note": 61, "velocity": 101, "channel": 0}, {"type": "note_off", "time": 415, "note": 61, "velocity": 101, "channel": 0}, {"type": "note_on", "time": 0, "note": 59, "velocity": 96, "channel": 0}, {"type": "note_off", "time": 294, "note": 59, "velocity": 96, "channel": 0}, {"type": "note_on", "time": 25, "note": 58, "velocity": 103, "channel": 0}, {"type": "note_off", "time": 478, "note": 58, "velocity": 103, "channel": 0}, {"type": "note_on", "time": 0, "note": 57, "velocity": 98, "channel": 0}, {"type": "note_off", "time": 550, "note": 57, "velocity": 98, "channel": 0}, {"type": "note_on", "time": 50, "note": 56, "velocity": 97, "channel": 0}, {"type": "note_off", "time": 172, "note": 56, "velocity": 97, "channel": 0}, {"type": "note_on", "time": 63, "note": 55, "velocity": 93, "channel": 0}, {"type": "note_off", "time": 277, "note": 55, "velocity": 93, "channel": 0}, {"type": "note_on", "time": 319, "note": 70, "velocity": 97, "channel": 0}, {"type": "note_on", "time": 319, "note": 69, "velocity": 91, "channel": 0}, {"type": "note_off", "time": 0, "note": 70, "velocity": 97, "channel": 0}, {"type": "note_off", "time": 314, "note": 69, "velocity": 91, "channel": 0}, {"type": "note_on", "time": 159, "note": 62, "velocity": 104, "channel": 0}, {"type": "note_off", "time": 319, "note": 62, "velocity": 104, "channel": 0}, {"type": "note_on", "time": 58, "note": 65, "velocity": 98, "channel": 0}, {"type": "note_off", "time": 306, "note": 65, "velocity": 98, "channel": 0}, {"type": "note_on", "time": 121, "note": 69, "velocity": 98, "channel": 0}, {"type": "note_off", "time": 344, "note": 69, "velocity": 98, "channel": 0}, {"type": "note_on", "time": 0, "note": 67, "velocity": 106, "channel": 0}, {"type": "note_off", "time": 436, "note": 67, "velocity": 106, "channel": 0}, {"type": "note_on", "time": 63, "note": 65, "velocity": 97, "channel": 0}, {"type": "note_off", "time": 327, "note": 65, "velocity": 97, "channel": 0}, {"type": "note_on", "time": 0, "note": 69, "velocity": 97, "channel": 0}, {"type": "note_off", "time": 256, "note": 69, "velocity": 97, "channel": 0}, {"type": "note_on", "time": 214, "note": 72, "velocity": 93, "channel": 0}, {"type": "note_off", "time": 235, "note": 72, "velocity": 93, "channel": 0}, {"type": "note_on", "time": 8, "note": 62, "velocity": 88, "channel": 0}, {"type": "note_off", "time": 361, "note": 62, "velocity": 88, "channel": 0}, {"type": "note_on", "time": 37, "note": 65, "velocity": 96, "channel": 0}, {"type": "note_off", "time": 365, "note": 65, "velocity": 96, "channel": 0}, {"type": "note_on", "time": 50, "note": 69, "velocity": 98, "channel": 0}, {"type": "note_off", "time": 256, "note": 69, "velocity": 98, "channel": 0}, {"type": "note_on", "time": 214, "note": 75, "velocity": 89, "channel": 0}, {"type": "note_off", "time": 155, "note": 75, "velocity": 89, "channel": 0}, {"type": "note_on", "time": 155, "note": 66, "velocity": 95, "channel": 0}, {"type": "note_off", "time": 357, "note": 66, "velocity": 95, "channel": 0}, {"type": "note_on", "time": 54, "note": 65, "velocity": 95, "channel": 0}, {"type": "note_off", "time": 441, "note": 65, "velocity": 95, "channel": 0}, {"type": "note_on", "time": 3376, "note": 66, "velocity": 108, "channel": 0}, {"type": "note_off", "time": 436, "note": 66, "velocity": 108, "channel": 0}, {"type": "note_on", "time": 50, "note": 67, "velocity": 109, "channel": 0}, {"type": "note_off", "time": 1999, "note": 67, "velocity": 109, "channel": 0}, {"type": "note_on", "time": 33, "note": 67, "velocity": 106, "channel": 0}, {"type": "note_off", "time": 210, "note": 67, "velocity": 106, "channel": 0}, {"type": "note_on", "time": 58, "note": 67, "velocity": 113, "channel": 0}, {"type": "note_off", "time": 2368, "note": 67, "velocity": 113, "channel": 0}, {"type": "note_on", "time": 75, "note": 67, "velocity": 112, "channel": 0}, {"type": "note_off", "time": 226, "note": 67, "velocity": 112, "channel": 0}, {"type": "note_on", "time": 25, "note": 67, "velocity": 108, "channel": 0}, {"type": "note_off", "time": 1923, "note": 67, "velocity": 108, "channel": 0}, {"type": "note_on", "time": 100, "note": 65, "velocity": 103, "channel": 0}, {"type": "note_off", "time": 344, "note": 65, "velocity": 103, "channel": 0}, {"type": "note_on", "time": 639, "note": 67, "velocity": 105, "channel": 0}, {"type": "note_off", "time": 800, "note": 67, "velocity": 105, "channel": 0}, {"type": "note_on", "time": 1636, "note": 67, "velocity": 99, "channel": 0}, {"type": "note_off", "time": 346, "note": 67, "velocity": 99, "channel": 0}, {"type": "note_on", "time": 35, "note": 67, "velocity": 100, "channel": 0}, {"type": "note_off", "time": 442, "note": 67, "velocity": 100, "channel": 0}, {"type": "note_on", "time": 610, "note": 67, "velocity": 103, "channel": 0}, {"type": "note_off", "time": 1747, "note": 67, "velocity": 103, "channel": 0}, {"type": "note_on", "time": 19, "note": 62, "velocity": 97, "channel": 0}, {"type": "note_off", "time": 812, "note": 62, "velocity": 97, "channel": 0}, {"type": "note_on", "time": 2801, "note": 67, "velocity": 102, "channel": 0}, {"type": "note_off", "time": 209, "note": 67, "velocity": 102, "channel": 0}, {"type": "note_on", "time": 95, "note": 67, "velocity": 106, "channel": 0}, {"type": "note_off", "time": 394, "note": 67, "velocity": 106, "channel": 0}, {"type": "note_on", "time": 535, "note": 67, "velocity": 106, "channel": 0}, {"type": "note_off", "time": 1591, "note": 67, "velocity": 106, "channel": 0}, {"type": "note_on", "time": 415, "note": 67, "velocity": 98, "channel": 0}, {"type": "note_off", "time": 260, "note": 67, "velocity": 98, "channel": 0}, {"type": "note_on", "time": 595, "note": 67, "velocity": 109, "channel": 0}, {"type": "note_off", "time": 794, "note": 67, "velocity": 109, "channel": 0}, {"type": "note_on", "time": 1885, "note": 67, "velocity": 104, "channel": 0}, {"type": "note_off", "time": 340, "note": 67, "velocity": 104, "channel": 0}, {"type": "note_on", "time": 58, "note": 67, "velocity": 103, "channel": 0}, {"type": "note_off", "time": 323, "note": 67, "velocity": 103, "channel": 0}, {"type": "note_on", "time": 487, "note": 67, "velocity": 104, "channel": 0}, {"type": "note_off", "time": 1264, "note": 67, "velocity": 104, "channel": 0}, {"type": "note_on", "time": 37, "note": 71, "velocity": 106, "channel": 0}, {"type": "note_off", "time": 361, "note": 71, "velocity": 106, "channel": 0}, {"type": "note_on", "time": 37, "note": 67, "velocity": 96, "channel": 0}, {"type": "note_on", "time": 340, "note": 74, "velocity": 99, "channel": 0}, {"type": "note_off", "time": 0, "note": 67, "velocity": 96, "channel": 0}, {"type": "note_off", "time": 848, "note": 74, "velocity": 99, "channel": 0}, {"type": "note_on", "time": 3691, "note": 67, "velocity": 95, "channel": 0}, {"type": "note_off", "time": 1545, "note": 67, "velocity": 95, "channel": 0}, {"type": "note_on", "time": 252, "note": 62, "velocity": 93, "channel": 0}, {"type": "note_off", "time": 268, "note": 62, "velocity": 93, "channel": 0}, {"type": "note_on", "time": 95, "note": 70, "velocity": 96, "channel": 0}, {"type": "note_off", "time": 304, "note": 70, "velocity": 96, "channel": 0}, {"type": "note_on", "time": 544, "note": 71, "velocity": 105, "channel": 0}, {"type": "note_off", "time": 756, "note": 71, "velocity": 105, "channel": 0}, {"type": "note_on", "time": 1843, "note": 69, "velocity": 100, "channel": 0}, {"type": "note_off", "time": 403, "note": 69, "velocity": 100, "channel": 0}, {"type": "note_on", "time": 0, "note": 71, "velocity": 101, "channel": 0}, {"type": "note_off", "time": 697, "note": 71, "velocity": 101, "channel": 0}, {"type": "note_on", "time": 201, "note": 69, "velocity": 97, "channel": 0}, {"type": "note_off", "time": 445, "note": 69, "velocity": 97, "channel": 0}, {"type": "note_on", "time": 50, "note": 67, "velocity": 100, "channel": 0}, {"type": "note_off", "time": 302, "note": 67, "velocity": 100, "channel": 0}, {"type": "note_on", "time": 29, "note": 65, "velocity": 102, "channel": 0}, {"type": "note_off", "time": 378, "note": 65, "velocity": 102, "channel": 0}, {"type": "note_on", "time": 16, "note": 62, "velocity": 106, "channel": 0}, {"type": "note_off", "time": 529, "note": 62, "velocity": 106, "channel": 0}, {"type": "note_on", "time": 37, "note": 58, "velocity": 93, "channel": 0}, {"type": "note_off", "time": 247, "note": 58, "velocity": 93, "channel": 0}, {"type": "note_on", "time": 33, "note": 65, "velocity": 103, "channel": 0}, {"type": "note_off", "time": 630, "note": 65, "velocity": 103, "channel": 0}, {"type": "note_on", "time": 1890, "note": 65, "velocity": 103, "channel": 0}, {"type": "note_off", "time": 238, "note": 65, "velocity": 103, "channel": 0}, {"type": "note_on", "time": 41, "note": 65, "velocity": 104, "channel": 0}, {"type": "note_off", "time": 161, "note": 65, "velocity": 104, "channel": 0}, {"type": "note_on", "time": 11, "note": 67, "velocity": 98, "channel": 0}, {"type": "note_off", "time": 203, "note": 67, "velocity": 98, "channel": 0}, {"type": "note_on", "time": 107, "note": 69, "velocity": 97, "channel": 0}, {"type": "note_off", "time": 1069, "note": 69, "velocity": 97, "channel": 0}, {"type": "note_on", "time": 161, "note": 71, "velocity": 105, "channel": 0}, {"type": "note_off", "time": 400, "note": 71, "velocity": 105, "channel": 0}, {"type": "note_on", "time": 0, "note": 69, "velocity": 99, "channel": 0}, {"type": "note_off", "time": 316, "note": 69, "velocity": 99, "channel": 0}, {"type": "note_on", "time": 4, "note": 66, "velocity": 99, "channel": 0}, {"type": "note_off", "time": 382, "note": 66, "velocity": 99, "channel": 0}, {"type": "note_on", "time": 37, "note": 65, "velocity": 101, "channel": 0}, {"type": "note_off", "time": 260, "note": 65, "velocity": 101, "channel": 0}, {"type": "note_on", "time": 63, "note": 65, "velocity": 103, "channel": 0}, {"type": "note_off", "time": 117, "note": 65, "velocity": 103, "channel": 0}, {"type": "note_on", "time": 12, "note": 64, "velocity": 105, "channel": 0}, {"type": "note_off", "time": 298, "note": 64, "velocity": 105, "channel": 0}, {"type": "note_on", "time": 16, "note": 63, "velocity": 106, "channel": 0}, {"type": "note_off", "time": 541, "note": 63, "velocity": 106, "channel": 0}, {"type": "note_on", "time": 42, "note": 66, "velocity": 96, "channel": 0}, {"type": "note_off", "time": 344, "note": 66, "velocity": 96, "channel": 0}, {"type": "note_on", "time": 369, "note": 71, "velocity": 100, "channel": 0}, {"type": "note_on", "time": 453, "note": 67, "velocity": 98, "channel": 0}, {"type": "note_off", "time": 0, "note": 71, "velocity": 100, "channel": 0}, {"type": "note_off", "time": 440, "note": 67, "velocity": 98, "channel": 0}, {"type": "note_on", "time": 21, "note": 66, "velocity": 95, "channel": 0}, {"type": "note_off", "time": 588, "note": 66, "velocity": 95, "channel": 0}, {"type": "note_on", "time": 4, "note": 65, "velocity": 99, "channel": 0}, {"type": "note_off", "time": 214, "note": 65, "velocity": 99, "channel": 0}, {"type": "note_on", "time": 33, "note": 68, "velocity": 99, "channel": 0}, {"type": "note_off", "time": 252, "note": 68, "velocity": 99, "channel": 0}, {"type": "note_on", "time": 193, "note": 63, "velocity": 116, "channel": 0}, {"type": "note_off", "time": 495, "note": 63, "velocity": 116, "channel": 0}, {"type": "note_on", "time": 29, "note": 62, "velocity": 110, "channel": 0}, {"type": "note_off", "time": 218, "note": 62, "velocity": 110, "channel": 0}, {"type": "note_on", "time": 42, "note": 61, "velocity": 104, "channel": 0}, {"type": "note_off", "time": 273, "note": 61, "velocity": 104, "channel": 0}, {"type": "note_on", "time": 302, "note": 65, "velocity": 106, "channel": 0}, {"type": "note_off", "time": 327, "note": 65, "velocity": 106, "channel": 0}, {"type": "note_on", "time": 46, "note": 62, "velocity": 111, "channel": 0}, {"type": "note_off", "time": 415, "note": 62, "velocity": 111, "channel": 0}, {"type": "note_on", "time": 0, "note": 66, "velocity": 100, "channel": 0}, {"type": "note_off", "time": 268, "note": 66, "velocity": 100, "channel": 0}, {"type": "note_on", "time": 100, "note": 68, "velocity": 96, "channel": 0}, {"type": "note_off", "time": 348, "note": 68, "velocity": 96, "channel": 0}, {"type": "note_on", "time": 4, "note": 71, "velocity": 107, "channel": 0}, {"type": "note_off", "time": 247, "note": 71, "velocity": 107, "channel": 0}, {"type": "note_on", "time": 12, "note": 70, "velocity": 106, "channel": 0}, {"type": "note_off", "time": 315, "note": 70, "velocity": 106, "channel": 0}, {"type": "note_on", "time": 25, "note": 64, "velocity": 101, "channel": 0}, {"type": "note_off", "time": 281, "note": 64, "velocity": 101, "channel": 0}, {"type": "note_on", "time": 1789, "note": 72, "velocity": 109, "channel": 0}, {"type": "note_off", "time": 537, "note": 72, "velocity": 109, "channel": 0}, {"type": "note_on", "time": 655, "note": 72, "velocity": 108, "channel": 0}, {"type": "note_off", "time": 600, "note": 72, "velocity": 108, "channel": 0}, {"type": "note_on", "time": 4, "note": 70, "velocity": 107, "channel": 0}, {"type": "note_off", "time": 382, "note": 70, "velocity": 107, "channel": 0}, {"type": "note_on", "time": 33, "note": 72, "velocity": 104, "channel": 0}, {"type": "note_off", "time": 2032, "note": 72, "velocity": 104, "channel": 0}, {"type": "note_on", "time": 8, "note": 70, "velocity": 111, "channel": 0}, {"type": "note_off", "time": 457, "note": 70, "velocity": 111, "channel": 0}, {"type": "note_on", "time": 0, "note": 72, "velocity": 115, "channel": 0}, {"type": "note_off", "time": 567, "note": 72, "velocity": 115, "channel": 0}, {"type": "note_on", "time": 1415, "note": 72, "velocity": 110, "channel": 0}, {"type": "note_off", "time": 533, "note": 72, "velocity": 110, "channel": 0}, {"type": "note_on", "time": 361, "note": 70, "velocity": 113, "channel": 0}, {"type": "note_off", "time": 387, "note": 70, "velocity": 113, "channel": 0}, {"type": "note_on", "time": 0, "note": 72, "velocity": 102, "channel": 0}, {"type": "note_off", "time": 2622, "note": 72, "velocity": 102, "channel": 0}, {"type": "note_on", "time": 39, "note": 70, "velocity": 98, "channel": 0}, {"type": "note_off", "time": 365, "note": 70, "velocity": 98, "channel": 0}, {"type": "note_on", "time": 16, "note": 67, "velocity": 105, "channel": 0}, {"type": "note_off", "time": 344, "note": 67, "velocity": 105, "channel": 0}, {"type": "note_on", "time": 0, "note": 63, "velocity": 114, "channel": 0}, {"type": "note_off", "time": 646, "note": 63, "velocity": 114, "channel": 0}, {"type": "note_on", "time": 1600, "note": 71, "velocity": 111, "channel": 0}, {"type": "note_off", "time": 373, "note": 71, "velocity": 111, "channel": 0}, {"type": "note_on", "time": 16, "note": 72, "velocity": 114, "channel": 0}, {"type": "note_off", "time": 1255, "note": 72, "velocity": 114, "channel": 0}, {"type": "note_on", "time": 37, "note": 73, "velocity": 100, "channel": 0}, {"type": "note_off", "time": 529, "note": 73, "velocity": 100, "channel": 0}, {"type": "note_on", "time": 33, "note": 72, "velocity": 110, "channel": 0}, {"type": "note_off", "time": 701, "note": 72, "velocity": 110, "channel": 0}, {"type": "note_on", "time": 37, "note": 73, "velocity": 107, "channel": 0}, {"type": "note_off", "time": 546, "note": 73, "velocity": 107, "channel": 0}, {"type": "note_on", "time": 46, "note": 75, "velocity": 119, "channel": 0}, {"type": "note_off", "time": 676, "note": 75, "velocity": 119, "channel": 0}, {"type": "note_on", "time": 218, "note": 62, "velocity": 111, "channel": 0}, {"type": "note_off", "time": 331, "note": 62, "velocity": 111, "channel": 0}, {"type": "note_on", "time": 2545, "note": 74, "velocity": 106, "channel": 0}, {"type": "note_off", "time": 940, "note": 74, "velocity": 106, "channel": 0}, {"type": "note_on", "time": 37, "note": 73, "velocity": 112, "channel": 0}, {"type": "note_off", "time": 315, "note": 73, "velocity": 112, "channel": 0}, {"type": "note_on", "time": 12, "note": 71, "velocity": 112, "channel": 0}, {"type": "note_off", "time": 415, "note": 71, "velocity": 112, "channel": 0}, {"type": "note_on", "time": 25, "note": 70, "velocity": 110, "channel": 0}, {"type": "note_off", "time": 294, "note": 70, "velocity": 110, "channel": 0}, {"type": "note_on", "time": 33, "note": 66, "velocity": 101, "channel": 0}, {"type": "note_off", "time": 310, "note": 66, "velocity": 101, "channel": 0}, {"type": "note_on", "time": 50, "note": 63, "velocity": 106, "channel": 0}, {"type": "note_off", "time": 457, "note": 63, "velocity": 106, "channel": 0}, {"type": "note_on", "time": 12, "note": 59, "velocity": 95, "channel": 0}, {"type": "note_off", "time": 264, "note": 59, "velocity": 95, "channel": 0}, {"type": "note_on", "time": 33, "note": 67, "velocity": 99, "channel": 0}, {"type": "note_off", "time": 470, "note": 67, "velocity": 99, "channel": 0}, {"type": "note_on", "time": 21, "note": 66, "velocity": 99, "channel": 0}, {"type": "note_off", "time": 336, "note": 66, "velocity": 99, "channel": 0}, {"type": "note_on", "time": 8, "note": 63, "velocity": 109, "channel": 0}, {"type": "note_off", "time": 621, "note": 63, "velocity": 109, "channel": 0}, {"type": "note_on", "time": 92, "note": 57, "velocity": 87, "channel": 0}, {"type": "note_off", "time": 214, "note": 57, "velocity": 87, "channel": 0}, {"type": "note_on", "time": 0, "note": 69, "velocity": 100, "channel": 0}, {"type": "note_off", "time": 470, "note": 69, "velocity": 100, "channel": 0}, {"type": "note_on", "time": 1383, "note": 74, "velocity": 101, "channel": 0}, {"type": "note_off", "time": 1194, "note": 74, "velocity": 101, "channel": 0}, {"type": "note_on", "time": 135, "note": 71, "velocity": 101, "channel": 0}, {"type": "note_off", "time": 197, "note": 71, "velocity": 101, "channel": 0}, {"type": "note_on", "time": 54, "note": 69, "velocity": 96, "channel": 0}, {"type": "note_off", "time": 264, "note": 69, "velocity": 96, "channel": 0}, {"type": "note_on", "time": 267, "note": 65, "velocity": 105, "channel": 0}, {"type": "note_off", "time": 322, "note": 65, "velocity": 105, "channel": 0}, {"type": "note_on", "time": 8, "note": 62, "velocity": 96, "channel": 0}, {"type": "note_off", "time": 442, "note": 62, "velocity": 96, "channel": 0}, {"type": "note_on", "time": 331, "note": 67, "velocity": 95, "channel": 0}, {"type": "note_off", "time": 244, "note": 67, "velocity": 95, "channel": 0}, {"type": "note_on", "time": 59, "note": 63, "velocity": 97, "channel": 0}, {"type": "note_off", "time": 221, "note": 63, "velocity": 97, "channel": 0}, {"type": "note_on", "time": 734, "note": 70, "velocity": 89, "channel": 0}, {"type": "note_on", "time": 176, "note": 68, "velocity": 97, "channel": 0}, {"type": "note_off", "time": 0, "note": 70, "velocity": 89, "channel": 0}, {"type": "note_off", "time": 388, "note": 68, "velocity": 97, "channel": 0}, {"type": "note_on", "time": 241, "note": 70, "velocity": 94, "channel": 0}, {"type": "note_off", "time": 179, "note": 70, "velocity": 94, "channel": 0}, {"type": "note_on", "time": 77, "note": 68, "velocity": 100, "channel": 0}, {"type": "note_off", "time": 322, "note": 68, "velocity": 100, "channel": 0}, {"type": "note_on", "time": 149, "note": 65, "velocity": 90, "channel": 0}, {"type": "note_off", "time": 226, "note": 65, "velocity": 90, "channel": 0}, {"type": "note_on", "time": 59, "note": 71, "velocity": 95, "channel": 0}, {"type": "note_off", "time": 215, "note": 71, "velocity": 95, "channel": 0}, {"type": "note_on", "time": 20, "note": 70, "velocity": 92, "channel": 0}, {"type": "note_off", "time": 179, "note": 70, "velocity": 92, "channel": 0}, {"type": "note_on", "time": 62, "note": 68, "velocity": 93, "channel": 0}, {"type": "note_off", "time": 361, "note": 68, "velocity": 93, "channel": 0}, {"type": "note_on", "time": 2, "note": 69, "velocity": 93, "channel": 0}, {"type": "note_off", "time": 185, "note": 69, "velocity": 93, "channel": 0}, {"type": "note_on", "time": 17, "note": 68, "velocity": 90, "channel": 0}, {"type": "note_off", "time": 218, "note": 68, "velocity": 90, "channel": 0}, {"type": "note_on", "time": 0, "note": 67, "velocity": 94, "channel": 0}, {"type": "note_off", "time": 450, "note": 67, "velocity": 94, "channel": 0}, {"type": "note_on", "time": 29, "note": 71, "velocity": 93, "channel": 0}, {"type": "note_off", "time": 203, "note": 71, "velocity": 93, "channel": 0}, {"type": "note_on", "time": 5, "note": 70, "velocity": 97, "channel": 0}, {"type": "note_off", "time": 215, "note": 70, "velocity": 97, "channel": 0}, {"type": "note_on", "time": 20, "note": 69, "velocity": 96, "channel": 0}, {"type": "note_off", "time": 388, "note": 69, "velocity": 96, "channel": 0}, {"type": "note_on", "time": 0, "note": 66, "velocity": 104, "channel": 0}, {"type": "note_off", "time": 334, "note": 66, "velocity": 104, "channel": 0}, {"type": "note_on", "time": 17, "note": 65, "velocity": 109, "channel": 0}, {"type": "note_off", "time": 409, "note": 65, "velocity": 109, "channel": 0}, {"type": "note_on", "time": 5, "note": 64, "velocity": 101, "channel": 0}, {"type": "note_off", "time": 310, "note": 64, "velocity": 101, "channel": 0}, {"type": "note_on", "time": 26, "note": 63, "velocity": 103, "channel": 0}, {"type": "note_off", "time": 459, "note": 63, "velocity": 103, "channel": 0}, {"type": "note_on", "time": 922, "note": 71, "velocity": 106, "channel": 0}, {"type": "note_off", "time": 274, "note": 71, "velocity": 106, "channel": 0}, {"type": "note_on", "time": 0, "note": 63, "velocity": 99, "channel": 0}, {"type": "note_off", "time": 197, "note": 63, "velocity": 99, "channel": 0}, {"type": "note_on", "time": 14, "note": 62, "velocity": 99, "channel": 0}, {"type": "note_off", "time": 292, "note": 62, "velocity": 99, "channel": 0}, {"type": "note_on", "time": 1042, "note": 68, "velocity": 95, "channel": 0}, {"type": "note_off", "time": 406, "note": 68, "velocity": 95, "channel": 0}, {"type": "note_on", "time": 507, "note": 71, "velocity": 104, "channel": 0}, {"type": "note_off", "time": 307, "note": 71, "velocity": 104, "channel": 0}, {"type": "note_on", "time": 65, "note": 64, "velocity": 105, "channel": 0}, {"type": "note_off", "time": 337, "note": 64, "velocity": 105, "channel": 0}, {"type": "note_on", "time": 0, "note": 70, "velocity": 101, "channel": 0}, {"type": "note_off", "time": 400, "note": 70, "velocity": 101, "channel": 0}, {"type": "note_on", "time": 0, "note": 60, "velocity": 101, "channel": 0}, {"type": "note_off", "time": 215, "note": 60, "velocity": 101, "channel": 0}, {"type": "note_on", "time": 29, "note": 62, "velocity": 106, "channel": 0}, {"type": "note_off", "time": 247, "note": 62, "velocity": 106, "channel": 0}, {"type": "note_on", "time": 20, "note": 63, "velocity": 113, "channel": 0}, {"type": "note_off", "time": 388, "note": 63, "velocity": 113, "channel": 0}, {"type": "note_on", "time": 83, "note": 67, "velocity": 103, "channel": 0}, {"type": "note_off", "time": 334, "note": 67, "velocity": 103, "channel": 0}, {"type": "note_on", "time": 29, "note": 67, "velocity": 101, "channel": 0}, {"type": "note_off", "time": 355, "note": 67, "velocity": 101, "channel": 0}, {"type": "note_on", "time": 0, "note": 69, "velocity": 101, "channel": 0}, {"type": "note_off", "time": 352, "note": 69, "velocity": 101, "channel": 0}, {"type": "note_on", "time": 170, "note": 69, "velocity": 92, "channel": 0}, {"type": "note_off", "time": 322, "note": 69, "velocity": 92, "channel": 0}, {"type": "note_on", "time": 41, "note": 71, "velocity": 111, "channel": 0}, {"type": "note_off", "time": 412, "note": 71, "velocity": 111, "channel": 0}, {"type": "note_on", "time": 0, "note": 69, "velocity": 108, "channel": 0}, {"type": "note_off", "time": 418, "note": 69, "velocity": 108, "channel": 0}, {"type": "note_on", "time": 1, "note": 65, "velocity": 111, "channel": 0}, {"type": "note_on", "time": 231, "note": 62, "velocity": 114, "channel": 0}, {"type": "note_off", "time": 0, "note": 65, "velocity": 111, "channel": 0}, {"type": "note_off", "time": 596, "note": 62, "velocity": 114, "channel": 0}, {"type": "note_on", "time": 42, "note": 58, "velocity": 99, "channel": 0}, {"type": "note_off", "time": 205, "note": 58, "velocity": 99, "channel": 0}, {"type": "note_on", "time": 8, "note": 65, "velocity": 118, "channel": 0}, {"type": "note_off", "time": 487, "note": 65, "velocity": 118, "channel": 0}, {"type": "note_on", "time": 2280, "note": 66, "velocity": 115, "channel": 0}, {"type": "note_off", "time": 205, "note": 66, "velocity": 115, "channel": 0}, {"type": "note_on", "time": 21, "note": 67, "velocity": 114, "channel": 0}, {"type": "note_off", "time": 1373, "note": 67, "velocity": 114, "channel": 0}, {"type": "note_on", "time": 37, "note": 62, "velocity": 107, "channel": 0}, {"type": "note_off", "time": 420, "note": 62, "velocity": 107, "channel": 0}, {"type": "note_on", "time": 8, "note": 67, "velocity": 118, "channel": 0}, {"type": "note_off", "time": 503, "note": 67, "velocity": 118, "channel": 0}, {"type": "note_on", "time": 0, "note": 62, "velocity": 116, "channel": 0}, {"type": "note_off", "time": 180, "note": 62, "velocity": 116, "channel": 0}, {"type": "note_on", "time": 29, "note": 61, "velocity": 118, "channel": 0}, {"type": "note_off", "time": 315, "note": 61, "velocity": 118, "channel": 0}, {"type": "note_on", "time": 3045, "note": 65, "velocity": 118, "channel": 0}, {"type": "note_off", "time": 2553, "note": 65, "velocity": 118, "channel": 0}, {"type": "note_on", "time": 67, "note": 62, "velocity": 125, "channel": 0}, {"type": "note_off", "time": 520, "note": 62, "velocity": 125, "channel": 0}, {"type": "note_on", "time": 0, "note": 57, "velocity": 112, "channel": 0}, {"type": "note_off", "time": 645, "note": 57, "velocity": 112, "channel": 0}, {"type": "note_on", "time": 3310, "note": 57, "velocity": 93, "channel": 0}, {"type": "note_off", "time": 1792, "note": 57, "velocity": 93, "channel": 0}, {"type": "note_on", "time": 58, "note": 59, "velocity": 99, "channel": 0}, {"type": "note_off", "time": 298, "note": 59, "velocity": 99, "channel": 0}, {"type": "note_on", "time": 26, "note": 55, "velocity": 105, "channel": 0}, {"type": "note_off", "time": 361, "note": 55, "velocity": 105, "channel": 0}, {"type": "note_on", "time": 1487, "note": 62, "velocity": 112, "channel": 0}, {"type": "note_off", "time": 394, "note": 62, "velocity": 112, "channel": 0}, {"type": "note_on", "time": 17, "note": 60, "velocity": 113, "channel": 0}, {"type": "note_off", "time": 226, "note": 60, "velocity": 113, "channel": 0}, {"type": "note_on", "time": 47, "note": 59, "velocity": 107, "channel": 0}, {"type": "note_off", "time": 376, "note": 59, "velocity": 107, "channel": 0}, {"type": "note_on", "time": 65, "note": 55, "velocity": 106, "channel": 0}, {"type": "note_off", "time": 310, "note": 55, "velocity": 106, "channel": 0}, {"type": "note_on", "time": 83, "note": 57, "velocity": 108, "channel": 0}, {"type": "note_off", "time": 406, "note": 57, "velocity": 108, "channel": 0}, {"type": "note_on", "time": 35, "note": 59, "velocity": 103, "channel": 0}, {"type": "note_off", "time": 250, "note": 59, "velocity": 103, "channel": 0}, {"type": "note_on", "time": 59, "note": 60, "velocity": 107, "channel": 0}, {"type": "note_off", "time": 453, "note": 60, "velocity": 107, "channel": 0}, {"type": "note_on", "time": 5, "note": 62, "velocity": 110, "channel": 0}, {"type": "note_off", "time": 477, "note": 62, "velocity": 110, "channel": 0}, {"type": "note_on", "time": 29, "note": 64, "velocity": 112, "channel": 0}, {"type": "note_off", "time": 292, "note": 64, "velocity": 112, "channel": 0}, {"type": "note_on", "time": 125, "note": 65, "velocity": 113, "channel": 0}, {"type": "note_off", "time": 388, "note": 65, "velocity": 113, "channel": 0}, {"type": "note_on", "time": 0, "note": 67, "velocity": 108, "channel": 0}, {"type": "note_off", "time": 244, "note": 67, "velocity": 108, "channel": 0}, {"type": "note_on", "time": 95, "note": 69, "velocity": 104, "channel": 0}, {"type": "note_off", "time": 400, "note": 69, "velocity": 104, "channel": 0}, {"type": "note_on", "time": 23, "note": 71, "velocity": 103, "channel": 0}, {"type": "note_off", "time": 352, "note": 71, "velocity": 103, "channel": 0}, {"type": "note_on", "time": 47, "note": 72, "velocity": 107, "channel": 0}, {"type": "note_off", "time": 591, "note": 72, "velocity": 107, "channel": 0}, {"type": "note_on", "time": 0, "note": 71, "velocity": 98, "channel": 0}, {"type": "note_off", "time": 107, "note": 71, "velocity": 98, "channel": 0}, {"type": "note_on", "time": 65, "note": 69, "velocity": 100, "channel": 0}, {"type": "note_off", "time": 537, "note": 69, "velocity": 100, "channel": 0}, {"type": "note_on", "time": 2944, "note": 69, "velocity": 93, "channel": 0}, {"type": "note_off", "time": 1529, "note": 69, "velocity": 93, "channel": 0}, {"type": "note_on", "time": 167, "note": 65, "velocity": 100, "channel": 0}, {"type": "note_off", "time": 244, "note": 65, "velocity": 100, "channel": 0}, {"type": "note_on", "time": 65, "note": 69, "velocity": 99, "channel": 0}, {"type": "note_off", "time": 268, "note": 69, "velocity": 99, "channel": 0}, {"type": "note_on", "time": 5, "note": 71, "velocity": 104, "channel": 0}, {"type": "note_off", "time": 298, "note": 71, "velocity": 104, "channel": 0}, {"type": "note_on", "time": 0, "note": 72, "velocity": 104, "channel": 0}, {"type": "note_off", "time": 471, "note": 72, "velocity": 104, "channel": 0}, {"type": "note_on", "time": 101, "note": 74, "velocity": 103, "channel": 0}, {"type": "note_off", "time": 418, "note": 74, "velocity": 103, "channel": 0}, {"type": "note_on", "time": 359, "note": 69, "velocity": 102, "channel": 0}, {"type": "note_off", "time": 420, "note": 69, "velocity": 102, "channel": 0}, {"type": "note_on", "time": 42, "note": 71, "velocity": 102, "channel": 0}, {"type": "note_off", "time": 516, "note": 71, "velocity": 102, "channel": 0}, {"type": "note_on", "time": 16, "note": 71, "velocity": 104, "channel": 0}, {"type": "note_off", "time": 268, "note": 71, "velocity": 104, "channel": 0}, {"type": "note_on", "time": 29, "note": 69, "velocity": 103, "channel": 0}, {"type": "note_off", "time": 168, "note": 69, "velocity": 103, "channel": 0}, {"type": "note_on", "time": 4, "note": 65, "velocity": 106, "channel": 0}, {"type": "note_off", "time": 302, "note": 65, "velocity": 106, "channel": 0}, {"type": "note_on", "time": 25, "note": 67, "velocity": 102, "channel": 0}, {"type": "note_on", "time": 243, "note": 69, "velocity": 113, "channel": 0}, {"type": "note_off", "time": 0, "note": 67, "velocity": 102, "channel": 0}, {"type": "note_off", "time": 562, "note": 69, "velocity": 113, "channel": 0}, {"type": "note_on", "time": 12, "note": 71, "velocity": 107, "channel": 0}, {"type": "note_off", "time": 281, "note": 71, "velocity": 107, "channel": 0}, {"type": "note_on", "time": 50, "note": 64, "velocity": 120, "channel": 0}, {"type": "note_off", "time": 655, "note": 64, "velocity": 120, "channel": 0}, {"type": "note_on", "time": 12, "note": 65, "velocity": 113, "channel": 0}, {"type": "note_off", "time": 168, "note": 65, "velocity": 113, "channel": 0}, {"type": "note_on", "time": 29, "note": 67, "velocity": 109, "channel": 0}, {"type": "note_off", "time": 302, "note": 67, "velocity": 109, "channel": 0}, {"type": "note_on", "time": 0, "note": 69, "velocity": 103, "channel": 0}, {"type": "note_off", "time": 142, "note": 69, "velocity": 103, "channel": 0}, {"type": "note_on", "time": 25, "note": 69, "velocity": 107, "channel": 0}, {"type": "note_off", "time": 302, "note": 69, "velocity": 107, "channel": 0}, {"type": "note_on", "time": 33, "note": 62, "velocity": 114, "channel": 0}, {"type": "note_off", "time": 550, "note": 62, "velocity": 114, "channel": 0}, {"type": "note_on", "time": 0, "note": 64, "velocity": 115, "channel": 0}, {"type": "note_off", "time": 273, "note": 64, "velocity": 115, "channel": 0}, {"type": "note_on", "time": 46, "note": 65, "velocity": 106, "channel": 0}, {"type": "note_off", "time": 512, "note": 65, "velocity": 106, "channel": 0}, {"type": "note_on", "time": 2016, "note": 60, "velocity": 107, "channel": 0}, {"type": "note_off", "time": 373, "note": 60, "velocity": 107, "channel": 0}, {"type": "note_on", "time": 12, "note": 62, "velocity": 118, "channel": 0}, {"type": "note_off", "time": 302, "note": 62, "velocity": 118, "channel": 0}, {"type": "note_on", "time": 25, "note": 64, "velocity": 118, "channel": 0}, {"type": "note_off", "time": 541, "note": 64, "velocity": 118, "channel": 0}, {"type": "note_on", "time": 92, "note": 60, "velocity": 108, "channel": 0}, {"type": "note_on", "time": 319, "note": 62, "velocity": 120, "channel": 0}, {"type": "note_off", "time": 0, "note": 60, "velocity": 108, "channel": 0}, {"type": "note_off", "time": 390, "note": 62, "velocity": 120, "channel": 0}, {"type": "note_on", "time": 0, "note": 64, "velocity": 117, "channel": 0}, {"type": "note_off", "time": 411, "note": 64, "velocity": 117, "channel": 0}, {"type": "note_on", "time": 16, "note": 65, "velocity": 112, "channel": 0}, {"type": "note_off", "time": 298, "note": 65, "velocity": 112, "channel": 0}, {"type": "note_on", "time": 29, "note": 65, "velocity": 104, "channel": 0}, {"type": "note_off", "time": 319, "note": 65, "velocity": 104, "channel": 0}, {"type": "note_on", "time": 138, "note": 69, "velocity": 105, "channel": 0}, {"type": "note_off", "time": 125, "note": 69, "velocity": 105, "channel": 0}, {"type": "note_on", "time": 0, "note": 59, "velocity": 99, "channel": 0}, {"type": "note_off", "time": 331, "note": 59, "velocity": 99, "channel": 0}, {"type": "note_on", "time": 1356, "note": 59, "velocity": 107, "channel": 0}, {"type": "note_off", "time": 100, "note": 59, "velocity": 107, "channel": 0}, {"type": "note_on", "time": 25, "note": 59, "velocity": 102, "channel": 0}, {"type": "note_off", "time": 172, "note": 59, "velocity": 102, "channel": 0}, {"type": "note_on", "time": 20, "note": 60, "velocity": 96, "channel": 0}, {"type": "note_off", "time": 247, "note": 60, "velocity": 96, "channel": 0}, {"type": "note_on", "time": 12, "note": 62, "velocity": 103, "channel": 0}, {"type": "note_off", "time": 453, "note": 62, "velocity": 103, "channel": 0}, {"type": "note_on", "time": 12, "note": 64, "velocity": 111, "channel": 0}, {"type": "note_off", "time": 453, "note": 64, "velocity": 111, "channel": 0}, {"type": "note_on", "time": 42, "note": 65, "velocity": 110, "channel": 0}, {"type": "note_off", "time": 382, "note": 65, "velocity": 110, "channel": 0}, {"type": "note_on", "time": 25, "note": 67, "velocity": 107, "channel": 0}, {"type": "note_off", "time": 352, "note": 67, "velocity": 107, "channel": 0}, {"type": "note_on", "time": 16, "note": 69, "velocity": 105, "channel": 0}, {"type": "note_off", "time": 394, "note": 69, "velocity": 105, "channel": 0}, {"type": "note_on", "time": 12, "note": 71, "velocity": 110, "channel": 0}, {"type": "note_off", "time": 323, "note": 71, "velocity": 110, "channel": 0}, {"type": "note_on", "time": 8, "note": 67, "velocity": 104, "channel": 0}, {"type": "note_off", "time": 399, "note": 67, "velocity": 104, "channel": 0}, {"type": "note_on", "time": 2864, "note": 67, "velocity": 97, "channel": 0}, {"type": "note_off", "time": 361, "note": 67, "velocity": 97, "channel": 0}, {"type": "note_on", "time": 58, "note": 69, "velocity": 95, "channel": 0}, {"type": "note_off", "time": 348, "note": 69, "velocity": 95, "channel": 0}, {"type": "note_on", "time": 16, "note": 71, "velocity": 100, "channel": 0}, {"type": "note_off", "time": 386, "note": 71, "velocity": 100, "channel": 0}, {"type": "note_on", "time": 201, "note": 66, "velocity": 100, "channel": 0}, {"type": "note_off", "time": 306, "note": 66, "velocity": 100, "channel": 0}, {"type": "note_on", "time": 8, "note": 69, "velocity": 106, "channel": 0}, {"type": "note_off", "time": 415, "note": 69, "velocity": 106, "channel": 0}, {"type": "note_on", "time": 16, "note": 65, "velocity": 107, "channel": 0}, {"type": "note_off", "time": 382, "note": 65, "velocity": 107, "channel": 0}, {"type": "note_on", "time": 16, "note": 62, "velocity": 109, "channel": 0}, {"type": "note_off", "time": 411, "note": 62, "velocity": 109, "channel": 0}, {"type": "note_on", "time": 29, "note": 67, "velocity": 106, "channel": 0}, {"type": "note_off", "time": 334, "note": 67, "velocity": 106, "channel": 0}, {"type": "note_on", "time": 5, "note": 65, "velocity": 111, "channel": 0}, {"type": "note_off", "time": 448, "note": 65, "velocity": 111, "channel": 0}, {"type": "note_on", "time": 0, "note": 67, "velocity": 102, "channel": 0}, {"type": "note_off", "time": 304, "note": 67, "velocity": 102, "channel": 0}, {"type": "note_on", "time": 0, "note": 69, "velocity": 102, "channel": 0}, {"type": "note_off", "time": 340, "note": 69, "velocity": 102, "channel": 0}, {"type": "note_on", "time": 250, "note": 70, "velocity": 97, "channel": 0}, {"type": "note_off", "time": 232, "note": 70, "velocity": 97, "channel": 0}, {"type": "note_on", "time": 101, "note": 60, "velocity": 95, "channel": 0}, {"type": "note_off", "time": 1421, "note": 60, "velocity": 95, "channel": 0}, {"type": "note_on", "time": 0, "note": 61, "velocity": 97, "channel": 0}, {"type": "note_off", "time": 286, "note": 61, "velocity": 97, "channel": 0}, {"type": "note_on", "time": 95, "note": 63, "velocity": 108, "channel": 0}, {"type": "note_off", "time": 1251, "note": 63, "velocity": 108, "channel": 0}, {"type": "note_on", "time": 8, "note": 65, "velocity": 106, "channel": 0}, {"type": "note_off", "time": 361, "note": 65, "velocity": 106, "channel": 0}, {"type": "note_on", "time": 0, "note": 63, "velocity": 29, "channel": 0}, {"type": "note_off", "time": 546, "note": 63, "velocity": 29, "channel": 0}, {"type": "note_on", "time": 25, "note": 62, "velocity": 101, "channel": 0}, {"type": "note_off", "time": 340, "note": 62, "velocity": 101, "channel": 0}, {"type": "note_on", "time": 0, "note": 63, "velocity": 103, "channel": 0}, {"type": "note_off", "time": 334, "note": 63, "velocity": 103, "channel": 0}, {"type": "note_on", "time": 0, "note": 65, "velocity": 103, "channel": 0}, {"type": "note_off", "time": 304, "note": 65, "velocity": 103, "channel": 0}, {"type": "note_on", "time": 47, "note": 66, "velocity": 95, "channel": 0}, {"type": "note_off", "time": 328, "note": 66, "velocity": 95, "channel": 0}, {"type": "note_on", "time": 11, "note": 65, "velocity": 94, "channel": 0}, {"type": "note_off", "time": 310, "note": 65, "velocity": 94, "channel": 0}, {"type": "note_on", "time": 77, "note": 63, "velocity": 89, "channel": 0}, {"type": "note_off", "time": 250, "note": 63, "velocity": 89, "channel": 0}, {"type": "note_on", "time": 2427, "note": 66, "velocity": 90, "channel": 0}, {"type": "note_off", "time": 357, "note": 66, "velocity": 90, "channel": 0}, {"type": "note_on", "time": 33, "note": 68, "velocity": 92, "channel": 0}, {"type": "note_off", "time": 239, "note": 68, "velocity": 92, "channel": 0}, {"type": "note_on", "time": 100, "note": 70, "velocity": 95, "channel": 0}, {"type": "note_off", "time": 319, "note": 70, "velocity": 95, "channel": 0}, {"type": "note_on", "time": 96, "note": 72, "velocity": 94, "channel": 0}, {"type": "note_off", "time": 285, "note": 72, "velocity": 94, "channel": 0}, {"type": "note_on", "time": 71, "note": 63, "velocity": 96, "channel": 0}, {"type": "note_off", "time": 369, "note": 63, "velocity": 96, "channel": 0}, {"type": "note_on", "time": 42, "note": 65, "velocity": 104, "channel": 0}, {"type": "note_off", "time": 974, "note": 65, "velocity": 104, "channel": 0}, {"type": "note_on", "time": 0, "note": 66, "velocity": 99, "channel": 0}, {"type": "note_off", "time": 470, "note": 66, "velocity": 99, "channel": 0}, {"type": "note_on", "time": 16, "note": 65, "velocity": 103, "channel": 0}, {"type": "note_off", "time": 1088, "note": 65, "velocity": 103, "channel": 0}, {"type": "note_on", "time": 0, "note": 64, "velocity": 100, "channel": 0}, {"type": "note_off", "time": 286, "note": 64, "velocity": 100, "channel": 0}, {"type": "note_on", "time": 11, "note": 63, "velocity": 100, "channel": 0}, {"type": "note_off", "time": 400, "note": 63, "velocity": 100, "channel": 0}, {"type": "note_on", "time": 0, "note": 62, "velocity": 101, "channel": 0}, {"type": "note_off", "time": 495, "note": 62, "velocity": 101, "channel": 0}, {"type": "note_on", "time": 47, "note": 61, "velocity": 91, "channel": 0}, {"type": "note_off", "time": 262, "note": 61, "velocity": 91, "channel": 0}, {"type": "note_on", "time": 41, "note": 60, "velocity": 91, "channel": 0}, {"type": "note_off", "time": 221, "note": 60, "velocity": 91, "channel": 0}, {"type": "note_on", "time": 65, "note": 58, "velocity": 93, "channel": 0}, {"type": "note_off", "time": 692, "note": 58, "velocity": 93, "channel": 0}, {"type": "note_on", "time": 1349, "note": 58, "velocity": 97, "channel": 0}, {"type": "note_off", "time": 394, "note": 58, "velocity": 97, "channel": 0}, {"type": "note_on", "time": 59, "note": 54, "velocity": 97, "channel": 0}, {"type": "note_off", "time": 328, "note": 54, "velocity": 97, "channel": 0}, {"type": "note_on", "time": 53, "note": 53, "velocity": 93, "channel": 0}, {"type": "note_off", "time": 400, "note": 53, "velocity": 93, "channel": 0}, {"type": "note_on", "time": 72, "note": 51, "velocity": 96, "channel": 0}, {"type": "note_off", "time": 348, "note": 51, "velocity": 96, "channel": 0}, {"type": "note_on", "time": 56, "note": 56, "velocity": 89, "channel": 0}, {"type": "note_off", "time": 997, "note": 56, "velocity": 89, "channel": 0}, {"type": "note_on", "time": 327, "note": 53, "velocity": 88, "channel": 0}, {"type": "note_off", "time": 293, "note": 53, "velocity": 88, "channel": 0}, {"type": "note_on", "time": 12, "note": 47, "velocity": 97, "channel": 0}, {"type": "note_off", "time": 403, "note": 47, "velocity": 97, "channel": 0}, {"type": "note_on", "time": 0, "note": 53, "velocity": 94, "channel": 0}, {"type": "note_off", "time": 331, "note": 53, "velocity": 94, "channel": 0}, {"type": "note_on", "time": 121, "note": 51, "velocity": 98, "channel": 0}, {"type": "note_off", "time": 340, "note": 51, "velocity": 98, "channel": 0}, {"type": "note_on", "time": 2027, "note": 46, "velocity": 101, "channel": 0}, {"type": "note_off", "time": 376, "note": 46, "velocity": 101, "channel": 0}, {"type": "note_on", "time": 71, "note": 55, "velocity": 95, "channel": 0}, {"type": "note_off", "time": 400, "note": 55, "velocity": 95, "channel": 0}, {"type": "note_on", "time": 0, "note": 62, "velocity": 85, "channel": 0}, {"type": "note_off", "time": 280, "note": 62, "velocity": 85, "channel": 0}, {"type": "note_on", "time": 95, "note": 62, "velocity": 87, "channel": 0}, {"type": "note_off", "time": 442, "note": 62, "velocity": 87, "channel": 0}, {"type": "note_on", "time": 90, "note": 57, "velocity": 89, "channel": 0}, {"type": "note_off", "time": 348, "note": 57, "velocity": 89, "channel": 0}, {"type": "note_on", "time": 88, "note": 53, "velocity": 92, "channel": 0}, {"type": "note_off", "time": 302, "note": 53, "velocity": 92, "channel": 0}, {"type": "note_on", "time": 33, "note": 51, "velocity": 95, "channel": 0}, {"type": "note_off", "time": 382, "note": 51, "velocity": 95, "channel": 0}, {"type": "note_on", "time": 63, "note": 54, "velocity": 97, "channel": 0}, {"type": "note_off", "time": 298, "note": 54, "velocity": 97, "channel": 0}, {"type": "note_on", "time": 96, "note": 47, "velocity": 92, "channel": 0}, {"type": "note_off", "time": 445, "note": 47, "velocity": 92, "channel": 0}, {"type": "note_on", "time": 0, "note": 51, "velocity": 91, "channel": 0}, {"type": "note_off", "time": 264, "note": 51, "velocity": 91, "channel": 0}, {"type": "note_on", "time": 12, "note": 57, "velocity": 89, "channel": 0}, {"type": "note_off", "time": 348, "note": 57, "velocity": 89, "channel": 0}, {"type": "note_on", "time": 2309, "note": 51, "velocity": 102, "channel": 0}, {"type": "note_off", "time": 388, "note": 51, "velocity": 102, "channel": 0}, {"type": "note_on", "time": 5, "note": 55, "velocity": 95, "channel": 0}, {"type": "note_off", "time": 298, "note": 55, "velocity": 95, "channel": 0}, {"type": "note_on", "time": 0, "note": 59, "velocity": 94, "channel": 0}, {"type": "note_off", "time": 376, "note": 59, "velocity": 94, "channel": 0}, {"type": "note_on", "time": 47, "note": 53, "velocity": 93, "channel": 0}, {"type": "note_off", "time": 352, "note": 53, "velocity": 93, "channel": 0}, {"type": "note_on", "time": 2670, "note": 45, "velocity": 99, "channel": 0}, {"type": "note_off", "time": 358, "note": 45, "velocity": 99, "channel": 0}, {"type": "note_on", "time": 0, "note": 53, "velocity": 98, "channel": 0}, {"type": "note_off", "time": 215, "note": 53, "velocity": 98, "channel": 0}, {"type": "note_on", "time": 35, "note": 52, "velocity": 102, "channel": 0}, {"type": "note_off", "time": 226, "note": 52, "velocity": 102, "channel": 0}, {"type": "note_on", "time": 23, "note": 47, "velocity": 101, "channel": 0}, {"type": "note_off", "time": 507, "note": 47, "velocity": 101, "channel": 0}, {"type": "note_on", "time": 113, "note": 47, "velocity": 108, "channel": 0}, {"type": "note_off", "time": 501, "note": 47, "velocity": 108, "channel": 0}, {"type": "note_on", "time": 11, "note": 55, "velocity": 107, "channel": 0}, {"type": "note_off", "time": 179, "note": 55, "velocity": 107, "channel": 0}, {"type": "note_on", "time": 0, "note": 50, "velocity": 103, "channel": 0}, {"type": "note_off", "time": 346, "note": 50, "velocity": 103, "channel": 0}, {"type": "note_on", "time": 11, "note": 53, "velocity": 103, "channel": 0}, {"type": "note_off", "time": 394, "note": 53, "velocity": 103, "channel": 0}, {"type": "note_on", "time": 11, "note": 50, "velocity": 105, "channel": 0}, {"type": "note_off", "time": 280, "note": 50, "velocity": 105, "channel": 0}, {"type": "note_on", "time": 53, "note": 45, "velocity": 102, "channel": 0}, {"type": "note_off", "time": 716, "note": 45, "velocity": 102, "channel": 0}, {"type": "note_on", "time": 2472, "note": 45, "velocity": 98, "channel": 0}, {"type": "note_off", "time": 328, "note": 45, "velocity": 98, "channel": 0}, {"type": "note_on", "time": 5, "note": 52, "velocity": 94, "channel": 0}, {"type": "note_off", "time": 406, "note": 52, "velocity": 94, "channel": 0}, {"type": "note_on", "time": 47, "note": 47, "velocity": 92, "channel": 0}, {"type": "note_off", "time": 453, "note": 47, "velocity": 92, "channel": 0}, {"type": "note_on", "time": 931, "note": 54, "velocity": 99, "channel": 0}, {"type": "note_off", "time": 310, "note": 54, "velocity": 99, "channel": 0}, {"type": "note_on", "time": 65, "note": 48, "velocity": 98, "channel": 0}, {"type": "note_off", "time": 328, "note": 48, "velocity": 98, "channel": 0}, {"type": "note_on", "time": 961, "note": 57, "velocity": 99, "channel": 0}, {"type": "note_off", "time": 268, "note": 57, "velocity": 99, "channel": 0}, {"type": "note_on", "time": 11, "note": 51, "velocity": 95, "channel": 0}, {"type": "note_off", "time": 382, "note": 51, "velocity": 95, "channel": 0}, {"type": "note_on", "time": 17, "note": 52, "velocity": 109, "channel": 0}, {"type": "note_off", "time": 310, "note": 52, "velocity": 109, "channel": 0}, {"type": "note_on", "time": 47, "note": 55, "velocity": 96, "channel": 0}, {"type": "note_off", "time": 143, "note": 55, "velocity": 96, "channel": 0}, {"type": "note_on", "time": 17, "note": 59, "velocity": 94, "channel": 0}, {"type": "note_off", "time": 238, "note": 59, "velocity": 94, "channel": 0}, {"type": "note_on", "time": 53, "note": 50, "velocity": 95, "channel": 0}, {"type": "note_off", "time": 567, "note": 50, "velocity": 95, "channel": 0}, {"type": "note_on", "time": 1565, "note": 50, "velocity": 103, "channel": 0}, {"type": "note_off", "time": 322, "note": 50, "velocity": 103, "channel": 0}, {"type": "note_on", "time": 501, "note": 53, "velocity": 99, "channel": 0}, {"type": "note_off", "time": 238, "note": 53, "velocity": 99, "channel": 0}, {"type": "note_on", "time": 35, "note": 57, "velocity": 103, "channel": 0}, {"type": "note_off", "time": 579, "note": 57, "velocity": 103, "channel": 0}, {"type": "note_on", "time": 0, "note": 52, "velocity": 107, "channel": 0}, {"type": "note_off", "time": 501, "note": 52, "velocity": 107, "channel": 0}, {"type": "note_on", "time": 17, "note": 55, "velocity": 109, "channel": 0}, {"type": "note_off", "time": 274, "note": 55, "velocity": 109, "channel": 0}, {"type": "note_on", "time": 0, "note": 59, "velocity": 103, "channel": 0}, {"type": "note_off", "time": 179, "note": 59, "velocity": 103, "channel": 0}, {"type": "note_on", "time": 131, "note": 62, "velocity": 108, "channel": 0}, {"type": "note_off", "time": 436, "note": 62, "velocity": 108, "channel": 0}, {"type": "note_on", "time": 0, "note": 57, "velocity": 98, "channel": 0}, {"type": "note_off", "time": 663, "note": 57, "velocity": 98, "channel": 0}, {"type": "note_on", "time": 1863, "note": 47, "velocity": 102, "channel": 0}, {"type": "note_on", "time": 465, "note": 51, "velocity": 100, "channel": 0}, {"type": "note_off", "time": 0, "note": 47, "velocity": 102, "channel": 0}, {"type": "note_off", "time": 286, "note": 51, "velocity": 100, "channel": 0}, {"type": "note_on", "time": 173, "note": 48, "velocity": 99, "channel": 0}, {"type": "note_off", "time": 824, "note": 48, "velocity": 99, "channel": 0}, {"type": "note_on", "time": 0, "note": 57, "velocity": 105, "channel": 0}, {"type": "note_on", "time": 304, "note": 50, "velocity": 105, "channel": 0}, {"type": "note_off", "time": 0, "note": 57, "velocity": 105, "channel": 0}, {"type": "note_off", "time": 483, "note": 50, "velocity": 105, "channel": 0}, {"type": "note_on", "time": 1732, "note": 48, "velocity": 109, "channel": 0}, {"type": "note_off", "time": 185, "note": 48, "velocity": 109, "channel": 0}, {"type": "note_on", "time": 35, "note": 49, "velocity": 106, "channel": 0}, {"type": "note_off", "time": 280, "note": 49, "velocity": 106, "channel": 0}, {"type": "note_on", "time": 412, "note": 57, "velocity": 100, "channel": 0}, {"type": "note_off", "time": 562, "note": 57, "velocity": 100, "channel": 0}, {"type": "note_on", "time": 10, "note": 59, "velocity": 99, "channel": 0}, {"type": "note_off", "time": 173, "note": 59, "velocity": 99, "channel": 0}, {"type": "note_on", "time": 0, "note": 52, "velocity": 98, "channel": 0}, {"type": "note_off", "time": 388, "note": 52, "velocity": 98, "channel": 0}, {"type": "note_on", "time": 155, "note": 55, "velocity": 97, "channel": 0}, {"type": "note_off", "time": 292, "note": 55, "velocity": 97, "channel": 0}, {"type": "note_on", "time": 190, "note": 59, "velocity": 96, "channel": 0}, {"type": "note_off", "time": 121, "note": 59, "velocity": 96, "channel": 0}, {"type": "note_on", "time": 21, "note": 59, "velocity": 101, "channel": 0}, {"type": "note_off", "time": 513, "note": 59, "velocity": 101, "channel": 0}, {"type": "note_on", "time": 81, "note": 57, "velocity": 101, "channel": 0}, {"type": "note_off", "time": 247, "note": 57, "velocity": 101, "channel": 0}, {"type": "note_on", "time": 1453, "note": 50, "velocity": 107, "channel": 0}, {"type": "note_off", "time": 285, "note": 50, "velocity": 107, "channel": 0}, {"type": "note_on", "time": 0, "note": 55, "velocity": 99, "channel": 0}, {"type": "note_off", "time": 231, "note": 55, "velocity": 99, "channel": 0}, {"type": "note_on", "time": 20, "note": 57, "velocity": 102, "channel": 0}, {"type": "note_off", "time": 336, "note": 57, "velocity": 102, "channel": 0}, {"type": "note_on", "time": 37, "note": 67, "velocity": 104, "channel": 0}, {"type": "note_off", "time": 525, "note": 67, "velocity": 104, "channel": 0}, {"type": "note_on", "time": 24, "note": 67, "velocity": 99, "channel": 0}, {"type": "note_off", "time": 315, "note": 67, "velocity": 99, "channel": 0}, {"type": "note_on", "time": 0, "note": 51, "velocity": 108, "channel": 0}, {"type": "note_off", "time": 411, "note": 51, "velocity": 108, "channel": 0}, {"type": "note_on", "time": 12, "note": 48, "velocity": 111, "channel": 0}, {"type": "note_off", "time": 310, "note": 48, "velocity": 111, "channel": 0}, {"type": "note_on", "time": 67, "note": 45, "velocity": 112, "channel": 0}, {"type": "note_off", "time": 504, "note": 45, "velocity": 112, "channel": 0}, {"type": "note_on", "time": 1743, "note": 45, "velocity": 112, "channel": 0}, {"type": "note_off", "time": 575, "note": 45, "velocity": 112, "channel": 0}, {"type": "note_on", "time": 109, "note": 50, "velocity": 102, "channel": 0}, {"type": "note_off", "time": 567, "note": 50, "velocity": 102, "channel": 0}, {"type": "note_on", "time": 101, "note": 57, "velocity": 100, "channel": 0}, {"type": "note_on", "time": 238, "note": 53, "velocity": 101, "channel": 0}, {"type": "note_off", "time": 0, "note": 57, "velocity": 100, "channel": 0}, {"type": "note_off", "time": 633, "note": 53, "velocity": 101, "channel": 0}, {"type": "note_on", "time": 11, "note": 50, "velocity": 100, "channel": 0}, {"type": "note_off", "time": 221, "note": 50, "velocity": 100, "channel": 0}, {"type": "note_on", "time": 0, "note": 57, "velocity": 98, "channel": 0}, {"type": "note_off", "time": 274, "note": 57, "velocity": 98, "channel": 0}, {"type": "note_on", "time": 0, "note": 55, "velocity": 101, "channel": 0}, {"type": "note_off", "time": 316, "note": 55, "velocity": 101, "channel": 0}, {"type": "note_on", "time": 113, "note": 57, "velocity": 100, "channel": 0}, {"type": "note_off", "time": 328, "note": 57, "velocity": 100, "channel": 0}, {"type": "note_on", "time": 2257, "note": 53, "velocity": 97, "channel": 0}, {"type": "note_off", "time": 370, "note": 53, "velocity": 97, "channel": 0}, {"type": "note_on", "time": 0, "note": 65, "velocity": 95, "channel": 0}, {"type": "note_off", "time": 179, "note": 65, "velocity": 95, "channel": 0}, {"type": "note_on", "time": 59, "note": 67, "velocity": 103, "channel": 0}, {"type": "note_off", "time": 221, "note": 67, "velocity": 103, "channel": 0}, {"type": "note_on", "time": 11, "note": 71, "velocity": 107, "channel": 0}, {"type": "note_off", "time": 1081, "note": 71, "velocity": 107, "channel": 0}, {"type": "note_on", "time": 179, "note": 67, "velocity": 108, "channel": 0}, {"type": "note_off", "time": 280, "note": 67, "velocity": 108, "channel": 0}, {"type": "note_on", "time": 0, "note": 64, "velocity": 115, "channel": 0}, {"type": "note_off", "time": 477, "note": 64, "velocity": 115, "channel": 0}, {"type": "note_on", "time": 35, "note": 59, "velocity": 106, "channel": 0}, {"type": "note_off", "time": 334, "note": 59, "velocity": 106, "channel": 0}, {"type": "note_on", "time": 29, "note": 54, "velocity": 99, "channel": 0}, {"type": "note_off", "time": 232, "note": 54, "velocity": 99, "channel": 0}, {"type": "note_on", "time": 29, "note": 51, "velocity": 107, "channel": 0}, {"type": "note_off", "time": 232, "note": 51, "velocity": 107, "channel": 0}, {"type": "note_on", "time": 53, "note": 48, "velocity": 103, "channel": 0}, {"type": "note_off", "time": 209, "note": 48, "velocity": 103, "channel": 0}, {"type": "note_on", "time": 59, "note": 47, "velocity": 102, "channel": 0}, {"type": "note_off", "time": 549, "note": 47, "velocity": 102, "channel": 0}, {"type": "note_on", "time": 1971, "note": 47, "velocity": 107, "channel": 0}, {"type": "note_off", "time": 382, "note": 47, "velocity": 107, "channel": 0}, {"type": "note_on", "time": 53, "note": 53, "velocity": 101, "channel": 0}, {"type": "note_off", "time": 316, "note": 53, "velocity": 101, "channel": 0}, {"type": "note_on", "time": 17, "note": 47, "velocity": 102, "channel": 0}, {"type": "note_off", "time": 1224, "note": 47, "velocity": 102, "channel": 0}, {"type": "note_on", "time": 238, "note": 55, "velocity": 105, "channel": 0}, {"type": "note_off", "time": 268, "note": 55, "velocity": 105, "channel": 0}, {"type": "note_on", "time": 41, "note": 47, "velocity": 103, "channel": 0}, {"type": "note_off", "time": 286, "note": 47, "velocity": 103, "channel": 0}, {"type": "note_on", "time": 5, "note": 48, "velocity": 98, "channel": 0}, {"type": "note_off", "time": 758, "note": 48, "velocity": 98, "channel": 0}, {"type": "note_on", "time": 209, "note": 55, "velocity": 104, "channel": 0}, {"type": "note_off", "time": 292, "note": 55, "velocity": 104, "channel": 0}, {"type": "note_on", "time": 47, "note": 48, "velocity": 102, "channel": 0}, {"type": "note_off", "time": 483, "note": 48, "velocity": 102, "channel": 0}, {"type": "note_on", "time": 83, "note": 55, "velocity": 101, "channel": 0}, {"type": "note_off", "time": 286, "note": 55, "velocity": 101, "channel": 0}, {"type": "note_on", "time": 35, "note": 57, "velocity": 106, "channel": 0}, {"type": "note_off", "time": 304, "note": 57, "velocity": 106, "channel": 0}, {"type": "note_on", "time": 1475, "note": 51, "velocity": 101, "channel": 0}, {"type": "note_off", "time": 406, "note": 51, "velocity": 101, "channel": 0}, {"type": "note_on", "time": 95, "note": 55, "velocity": 95, "channel": 0}, {"type": "note_off", "time": 197, "note": 55, "velocity": 95, "channel": 0}, {"type": "note_on", "time": 29, "note": 59, "velocity": 104, "channel": 0}, {"type": "note_on", "time": 322, "note": 49, "velocity": 103, "channel": 0}, {"type": "note_off", "time": 0, "note": 59, "velocity": 104, "channel": 0}, {"type": "note_off", "time": 483, "note": 49, "velocity": 103, "channel": 0}, {"type": "note_on", "time": 77, "note": 51, "velocity": 100, "channel": 0}, {"type": "note_off", "time": 286, "note": 51, "velocity": 100, "channel": 0}, {"type": "note_on", "time": 77, "note": 57, "velocity": 108, "channel": 0}, {"type": "note_off", "time": 262, "note": 57, "velocity": 108, "channel": 0}, {"type": "note_on", "time": 11, "note": 51, "velocity": 104, "channel": 0}, {"type": "note_off", "time": 519, "note": 51, "velocity": 104, "channel": 0}, {"type": "note_on", "time": 1373, "note": 50, "velocity": 103, "channel": 0}, {"type": "note_off", "time": 537, "note": 50, "velocity": 103, "channel": 0}, {"type": "note_on", "time": 0, "note": 51, "velocity": 103, "channel": 0}, {"type": "note_off", "time": 185, "note": 51, "velocity": 103, "channel": 0}, {"type": "note_on", "time": 59, "note": 53, "velocity": 100, "channel": 0}, {"type": "note_off", "time": 280, "note": 53, "velocity": 100, "channel": 0}, {"type": "note_on", "time": 53, "note": 55, "velocity": 99, "channel": 0}, {"type": "note_off", "time": 370, "note": 55, "velocity": 99, "channel": 0}, {"type": "note_on", "time": 113, "note": 50, "velocity": 104, "channel": 0}, {"type": "note_off", "time": 364, "note": 50, "velocity": 104, "channel": 0}, {"type": "note_on", "time": 23, "note": 53, "velocity": 102, "channel": 0}, {"type": "note_off", "time": 298, "note": 53, "velocity": 102, "channel": 0}, {"type": "note_on", "time": 65, "note": 57, "velocity": 101, "channel": 0}, {"type": "note_off", "time": 280, "note": 57, "velocity": 101, "channel": 0}, {"type": "note_on", "time": 167, "note": 60, "velocity": 97, "channel": 0}, {"type": "note_off", "time": 334, "note": 60, "velocity": 97, "channel": 0}, {"type": "note_on", "time": 95, "note": 57, "velocity": 101, "channel": 0}, {"type": "note_off", "time": 268, "note": 57, "velocity": 101, "channel": 0}, {"type": "note_on", "time": 95, "note": 60, "velocity": 95, "channel": 0}, {"type": "note_off", "time": 274, "note": 60, "velocity": 95, "channel": 0}, {"type": "note_on", "time": 65, "note": 62, "velocity": 107, "channel": 0}, {"type": "note_off", "time": 448, "note": 62, "velocity": 107, "channel": 0}, {"type": "note_on", "time": 141, "note": 67, "velocity": 101, "channel": 0}, {"type": "note_off", "time": 210, "note": 67, "velocity": 101, "channel": 0}, {"type": "note_on", "time": 50, "note": 62, "velocity": 101, "channel": 0}, {"type": "note_off", "time": 512, "note": 62, "velocity": 101, "channel": 0}, {"type": "note_on", "time": 1251, "note": 62, "velocity": 106, "channel": 0}, {"type": "note_off", "time": 281, "note": 62, "velocity": 106, "channel": 0}, {"type": "note_on", "time": 172, "note": 65, "velocity": 101, "channel": 0}, {"type": "note_off", "time": 247, "note": 65, "velocity": 101, "channel": 0}, {"type": "note_on", "time": 134, "note": 69, "velocity": 101, "channel": 0}, {"type": "note_off", "time": 327, "note": 69, "velocity": 101, "channel": 0}, {"type": "note_on", "time": 79, "note": 71, "velocity": 102, "channel": 0}, {"type": "note_off", "time": 264, "note": 71, "velocity": 102, "channel": 0}, {"type": "note_on", "time": 21, "note": 66, "velocity": 104, "channel": 0}, {"type": "note_off", "time": 449, "note": 66, "velocity": 104, "channel": 0}, {"type": "note_on", "time": 58, "note": 69, "velocity": 102, "channel": 0}, {"type": "note_off", "time": 390, "note": 69, "velocity": 102, "channel": 0}, {"type": "note_on", "time": 46, "note": 67, "velocity": 90, "channel": 0}, {"type": "note_off", "time": 239, "note": 67, "velocity": 90, "channel": 0}, {"type": "note_on", "time": 138, "note": 71, "velocity": 105, "channel": 0}, {"type": "note_off", "time": 369, "note": 71, "velocity": 105, "channel": 0}, {"type": "note_on", "time": 79, "note": 62, "velocity": 102, "channel": 0}, {"type": "note_off", "time": 432, "note": 62, "velocity": 102, "channel": 0}, {"type": "note_on", "time": 0, "note": 65, "velocity": 98, "channel": 0}, {"type": "note_off", "time": 189, "note": 65, "velocity": 98, "channel": 0}, {"type": "note_on", "time": 12, "note": 69, "velocity": 94, "channel": 0}, {"type": "note_off", "time": 193, "note": 69, "velocity": 94, "channel": 0}, {"type": "note_on", "time": 33, "note": 71, "velocity": 93, "channel": 0}, {"type": "note_off", "time": 214, "note": 71, "velocity": 93, "channel": 0}, {"type": "note_on", "time": 407, "note": 79, "velocity": 108, "channel": 0}, {"type": "note_off", "time": 743, "note": 79, "velocity": 108, "channel": 0}, {"type": "note_on", "time": 3524, "note": 56, "velocity": 110, "channel": 0}, {"type": "note_off", "time": 465, "note": 56, "velocity": 110, "channel": 0}, {"type": "note_on", "time": 15, "note": 68, "velocity": 99, "channel": 0}, {"type": "note_off", "time": 252, "note": 68, "velocity": 99, "channel": 0}, {"type": "note_on", "time": 79, "note": 59, "velocity": 103, "channel": 0}, {"type": "note_off", "time": 294, "note": 59, "velocity": 103, "channel": 0}, {"type": "note_on", "time": 16, "note": 58, "velocity": 94, "channel": 0}, {"type": "note_off", "time": 315, "note": 58, "velocity": 94, "channel": 0}, {"type": "note_on", "time": 4, "note": 59, "velocity": 95, "channel": 0}, {"type": "note_off", "time": 281, "note": 59, "velocity": 95, "channel": 0}, {"type": "note_on", "time": 8, "note": 58, "velocity": 95, "channel": 0}, {"type": "note_off", "time": 268, "note": 58, "velocity": 95, "channel": 0}, {"type": "note_on", "time": 100, "note": 68, "velocity": 92, "channel": 0}, {"type": "note_off", "time": 260, "note": 68, "velocity": 92, "channel": 0}, {"type": "note_on", "time": 234, "note": 58, "velocity": 95, "channel": 0}, {"type": "note_off", "time": 1063, "note": 58, "velocity": 95, "channel": 0}, {"type": "note_on", "time": 113, "note": 68, "velocity": 88, "channel": 0}, {"type": "note_off", "time": 340, "note": 68, "velocity": 88, "channel": 0}, {"type": "note_on", "time": 47, "note": 63, "velocity": 94, "channel": 0}, {"type": "note_off", "time": 352, "note": 63, "velocity": 94, "channel": 0}, {"type": "note_on", "time": 77, "note": 66, "velocity": 88, "channel": 0}, {"type": "note_off", "time": 250, "note": 66, "velocity": 88, "channel": 0}, {"type": "note_on", "time": 95, "note": 70, "velocity": 83, "channel": 0}, {"type": "note_off", "time": 328, "note": 70, "velocity": 83, "channel": 0}, {"type": "note_on", "time": 1373, "note": 47, "velocity": 101, "channel": 0}, {"type": "note_off", "time": 483, "note": 47, "velocity": 101, "channel": 0}, {"type": "note_on", "time": 35, "note": 54, "velocity": 98, "channel": 0}, {"type": "note_off", "time": 215, "note": 54, "velocity": 98, "channel": 0}, {"type": "note_on", "time": 203, "note": 68, "velocity": 88, "channel": 0}, {"type": "note_off", "time": 209, "note": 68, "velocity": 88, "channel": 0}, {"type": "note_on", "time": 53, "note": 67, "velocity": 98, "channel": 0}, {"type": "note_off", "time": 465, "note": 67, "velocity": 98, "channel": 0}, {"type": "note_on", "time": 0, "note": 70, "velocity": 91, "channel": 0}, {"type": "note_off", "time": 358, "note": 70, "velocity": 91, "channel": 0}, {"type": "note_on", "time": 53, "note": 66, "velocity": 96, "channel": 0}, {"type": "note_on", "time": 310, "note": 63, "velocity": 100, "channel": 0}, {"type": "note_off", "time": 0, "note": 66, "velocity": 96, "channel": 0}, {"type": "note_off", "time": 382, "note": 63, "velocity": 100, "channel": 0}, {"type": "note_on", "time": 5, "note": 65, "velocity": 97, "channel": 0}, {"type": "note_on", "time": 201, "note": 66, "velocity": 95, "channel": 0}, {"type": "note_off", "time": 0, "note": 65, "velocity": 97, "channel": 0}, {"type": "note_off", "time": 163, "note": 66, "velocity": 95, "channel": 0}, {"type": "note_on", "time": 0, "note": 68, "velocity": 97, "channel": 0}, {"type": "note_off", "time": 369, "note": 68, "velocity": 97, "channel": 0}, {"type": "note_on", "time": 8, "note": 67, "velocity": 104, "channel": 0}, {"type": "note_off", "time": 432, "note": 67, "velocity": 104, "channel": 0}, {"type": "note_on", "time": 50, "note": 69, "velocity": 93, "channel": 0}, {"type": "note_off", "time": 424, "note": 69, "velocity": 93, "channel": 0}, {"type": "note_on", "time": 2158, "note": 61, "velocity": 100, "channel": 0}, {"type": "note_off", "time": 205, "note": 61, "velocity": 100, "channel": 0}, {"type": "note_on", "time": 29, "note": 62, "velocity": 98, "channel": 0}, {"type": "note_off", "time": 176, "note": 62, "velocity": 98, "channel": 0}, {"type": "note_on", "time": 0, "note": 63, "velocity": 93, "channel": 0}, {"type": "note_off", "time": 357, "note": 63, "velocity": 93, "channel": 0}, {"type": "note_on", "time": 21, "note": 68, "velocity": 90, "channel": 0}, {"type": "note_off", "time": 348, "note": 68, "velocity": 90, "channel": 0}, {"type": "note_on", "time": 109, "note": 67, "velocity": 100, "channel": 0}, {"type": "note_off", "time": 407, "note": 67, "velocity": 100, "channel": 0}, {"type": "note_on", "time": 16, "note": 69, "velocity": 103, "channel": 0}, {"type": "note_off", "time": 331, "note": 69, "velocity": 103, "channel": 0}, {"type": "note_on", "time": 0, "note": 68, "velocity": 94, "channel": 0}, {"type": "note_off", "time": 176, "note": 68, "velocity": 94, "channel": 0}, {"type": "note_on", "time": 0, "note": 63, "velocity": 103, "channel": 0}, {"type": "note_off", "time": 310, "note": 63, "velocity": 103, "channel": 0}, {"type": "note_on", "time": 0, "note": 66, "velocity": 100, "channel": 0}, {"type": "note_off", "time": 189, "note": 66, "velocity": 100, "channel": 0}, {"type": "note_on", "time": 0, "note": 64, "velocity": 101, "channel": 0}, {"type": "note_off", "time": 424, "note": 64, "velocity": 101, "channel": 0}, {"type": "note_on", "time": 1003, "note": 64, "velocity": 99, "channel": 0}, {"type": "note_off", "time": 470, "note": 64, "velocity": 99, "channel": 0}, {"type": "note_on", "time": 37, "note": 67, "velocity": 90, "channel": 0}, {"type": "note_off", "time": 231, "note": 67, "velocity": 90, "channel": 0}, {"type": "note_on", "time": 12, "note": 69, "velocity": 97, "channel": 0}, {"type": "note_off", "time": 470, "note": 69, "velocity": 97, "channel": 0}, {"type": "note_on", "time": 63, "note": 62, "velocity": 103, "channel": 0}, {"type": "note_off", "time": 289, "note": 62, "velocity": 103, "channel": 0}, {"type": "note_on", "time": 0, "note": 68, "velocity": 102, "channel": 0}, {"type": "note_off", "time": 398, "note": 68, "velocity": 102, "channel": 0}, {"type": "note_on", "time": 37, "note": 67, "velocity": 108, "channel": 0}, {"type": "note_off", "time": 420, "note": 67, "velocity": 108, "channel": 0}, {"type": "note_on", "time": 46, "note": 65, "velocity": 101, "channel": 0}, {"type": "note_off", "time": 386, "note": 65, "velocity": 101, "channel": 0}, {"type": "note_on", "time": 88, "note": 69, "velocity": 99, "channel": 0}, {"type": "note_off", "time": 453, "note": 69, "velocity": 99, "channel": 0}, {"type": "note_on", "time": 67, "note": 60, "velocity": 98, "channel": 0}, {"type": "note_off", "time": 323, "note": 60, "velocity": 98, "channel": 0}, {"type": "note_on", "time": 92, "note": 65, "velocity": 103, "channel": 0}, {"type": "note_off", "time": 264, "note": 65, "velocity": 103, "channel": 0}, {"type": "note_on", "time": 92, "note": 69, "velocity": 100, "channel": 0}, {"type": "note_off", "time": 411, "note": 69, "velocity": 100, "channel": 0}, {"type": "note_on", "time": 21, "note": 71, "velocity": 99, "channel": 0}, {"type": "note_off", "time": 357, "note": 71, "velocity": 99, "channel": 0}, {"type": "note_on", "time": 4, "note": 63, "velocity": 108, "channel": 0}, {"type": "note_off", "time": 495, "note": 63, "velocity": 108, "channel": 0}, {"type": "note_on", "time": 16, "note": 66, "velocity": 96, "channel": 0}, {"type": "note_off", "time": 369, "note": 66, "velocity": 96, "channel": 0}, {"type": "note_on", "time": 92, "note": 70, "velocity": 95, "channel": 0}, {"type": "note_off", "time": 390, "note": 70, "velocity": 95, "channel": 0}, {"type": "note_on", "time": 46, "note": 71, "velocity": 103, "channel": 0}, {"type": "note_off", "time": 424, "note": 71, "velocity": 103, "channel": 0}, {"type": "note_on", "time": 16, "note": 68, "velocity": 101, "channel": 0}, {"type": "note_off", "time": 352, "note": 68, "velocity": 101, "channel": 0}, {"type": "note_on", "time": 105, "note": 63, "velocity": 105, "channel": 0}, {"type": "note_off", "time": 537, "note": 63, "velocity": 105, "channel": 0}, {"type": "note_on", "time": 2360, "note": 70, "velocity": 80, "channel": 0}, {"type": "note_off", "time": 323, "note": 70, "velocity": 80, "channel": 0}, {"type": "note_on", "time": 390, "note": 62, "velocity": 107, "channel": 0}, {"type": "note_off", "time": 453, "note": 62, "velocity": 107, "channel": 0}, {"type": "note_on", "time": 75, "note": 65, "velocity": 109, "channel": 0}, {"type": "note_off", "time": 382, "note": 65, "velocity": 109, "channel": 0}, {"type": "note_on", "time": 16, "note": 63, "velocity": 116, "channel": 0}, {"type": "note_on", "time": 461, "note": 65, "velocity": 104, "channel": 0}, {"type": "note_off", "time": 0, "note": 63, "velocity": 116, "channel": 0}, {"type": "note_off", "time": 176, "note": 65, "velocity": 104, "channel": 0}, {"type": "note_on", "time": 54, "note": 70, "velocity": 105, "channel": 0}, {"type": "note_off", "time": 352, "note": 70, "velocity": 105, "channel": 0}, {"type": "note_on", "time": 42, "note": 61, "velocity": 97, "channel": 0}, {"type": "note_off", "time": 155, "note": 61, "velocity": 97, "channel": 0}, {"type": "note_on", "time": 33, "note": 61, "velocity": 107, "channel": 0}, {"type": "note_off", "time": 256, "note": 61, "velocity": 107, "channel": 0}, {"type": "note_on", "time": 12, "note": 58, "velocity": 100, "channel": 0}, {"type": "note_off", "time": 352, "note": 58, "velocity": 100, "channel": 0}, {"type": "note_on", "time": 125, "note": 54, "velocity": 102, "channel": 0}, {"type": "note_off", "time": 214, "note": 54, "velocity": 102, "channel": 0}, {"type": "note_on", "time": 4, "note": 53, "velocity": 102, "channel": 0}, {"type": "note_off", "time": 126, "note": 53, "velocity": 102, "channel": 0}, {"type": "note_on", "time": 134, "note": 49, "velocity": 99, "channel": 0}, {"type": "note_off", "time": 298, "note": 49, "velocity": 99, "channel": 0}, {"type": "note_on", "time": 0, "note": 54, "velocity": 99, "channel": 0}, {"type": "note_off", "time": 436, "note": 54, "velocity": 99, "channel": 0}, {"type": "note_on", "time": 83, "note": 49, "velocity": 102, "channel": 0}, {"type": "note_off", "time": 281, "note": 49, "velocity": 102, "channel": 0}, {"type": "note_on", "time": 84, "note": 54, "velocity": 99, "channel": 0}, {"type": "note_off", "time": 436, "note": 54, "velocity": 99, "channel": 0}, {"type": "note_on", "time": 0, "note": 67, "velocity": 105, "channel": 0}, {"type": "note_off", "time": 310, "note": 67, "velocity": 105, "channel": 0}, {"type": "note_on", "time": 29, "note": 62, "velocity": 101, "channel": 0}, {"type": "note_off", "time": 428, "note": 62, "velocity": 101, "channel": 0}, {"type": "note_on", "time": 4, "note": 67, "velocity": 107, "channel": 0}, {"type": "note_off", "time": 247, "note": 67, "velocity": 107, "channel": 0}, {"type": "note_on", "time": 0, "note": 68, "velocity": 106, "channel": 0}, {"type": "note_off", "time": 273, "note": 68, "velocity": 106, "channel": 0}, {"type": "note_on", "time": 33, "note": 67, "velocity": 107, "channel": 0}, {"type": "note_off", "time": 567, "note": 67, "velocity": 107, "channel": 0}, {"type": "note_on", "time": 260, "note": 67, "velocity": 105, "channel": 0}, {"type": "note_off", "time": 172, "note": 67, "velocity": 105, "channel": 0}, {"type": "note_on", "time": 0, "note": 68, "velocity": 107, "channel": 0}, {"type": "note_off", "time": 415, "note": 68, "velocity": 107, "channel": 0}, {"type": "note_on", "time": 21, "note": 67, "velocity": 98, "channel": 0}, {"type": "note_off", "time": 726, "note": 67, "velocity": 98, "channel": 0}, {"type": "note_on", "time": 260, "note": 67, "velocity": 102, "channel": 0}, {"type": "note_off", "time": 277, "note": 67, "velocity": 102, "channel": 0}, {"type": "note_on", "time": 21, "note": 64, "velocity": 106, "channel": 0}, {"type": "note_off", "time": 361, "note": 64, "velocity": 106, "channel": 0}, {"type": "note_on", "time": 42, "note": 66, "velocity": 110, "channel": 0}, {"type": "note_off", "time": 197, "note": 66, "velocity": 110, "channel": 0}, {"type": "note_on", "time": 29, "note": 67, "velocity": 92, "channel": 0}, {"type": "note_off", "time": 495, "note": 67, "velocity": 92, "channel": 0}, {"type": "note_on", "time": 130, "note": 71, "velocity": 101, "channel": 0}, {"type": "note_off", "time": 331, "note": 71, "velocity": 101, "channel": 0}, {"type": "note_on", "time": 134, "note": 63, "velocity": 108, "channel": 0}, {"type": "note_off", "time": 394, "note": 63, "velocity": 108, "channel": 0}, {"type": "note_on", "time": 96, "note": 68, "velocity": 94, "channel": 0}, {"type": "note_off", "time": 243, "note": 68, "velocity": 94, "channel": 0}, {"type": "note_on", "time": 25, "note": 71, "velocity": 108, "channel": 0}, {"type": "note_off", "time": 302, "note": 71, "velocity": 108, "channel": 0}, {"type": "note_on", "time": 0, "note": 70, "velocity": 104, "channel": 0}, {"type": "note_off", "time": 151, "note": 70, "velocity": 104, "channel": 0}, {"type": "note_on", "time": 96, "note": 68, "velocity": 102, "channel": 0}, {"type": "note_off", "time": 293, "note": 68, "velocity": 102, "channel": 0}, {"type": "note_on", "time": 0, "note": 70, "velocity": 101, "channel": 0}, {"type": "note_off", "time": 420, "note": 70, "velocity": 101, "channel": 0}, {"type": "note_on", "time": 67, "note": 68, "velocity": 107, "channel": 0}, {"type": "note_off", "time": 247, "note": 68, "velocity": 107, "channel": 0}, {"type": "note_on", "time": 16, "note": 67, "velocity": 103, "channel": 0}, {"type": "note_off", "time": 558, "note": 67, "velocity": 103, "channel": 0}, {"type": "note_on", "time": 75, "note": 67, "velocity": 99, "channel": 0}, {"type": "note_off", "time": 487, "note": 67, "velocity": 99, "channel": 0}, {"type": "note_on", "time": 71, "note": 60, "velocity": 102, "channel": 0}, {"type": "note_off", "time": 277, "note": 60, "velocity": 102, "channel": 0}, {"type": "note_on", "time": 113, "note": 65, "velocity": 98, "channel": 0}, {"type": "note_off", "time": 239, "note": 65, "velocity": 98, "channel": 0}, {"type": "note_on", "time": 58, "note": 69, "velocity": 90, "channel": 0}, {"type": "note_off", "time": 319, "note": 69, "velocity": 90, "channel": 0}, {"type": "note_on", "time": 0, "note": 74, "velocity": 87, "channel": 0}, {"type": "note_off", "time": 142, "note": 74, "velocity": 87, "channel": 0}, {"type": "note_on", "time": 8, "note": 73, "velocity": 97, "channel": 0}, {"type": "note_off", "time": 180, "note": 73, "velocity": 97, "channel": 0}, {"type": "note_on", "time": 16, "note": 71, "velocity": 95, "channel": 0}, {"type": "note_off", "time": 302, "note": 71, "velocity": 95, "channel": 0}, {"type": "note_on", "time": 4, "note": 69, "velocity": 94, "channel": 0}, {"type": "note_off", "time": 167, "note": 69, "velocity": 94, "channel": 0}, {"type": "note_on", "time": 142, "note": 65, "velocity": 100, "channel": 0}, {"type": "note_off", "time": 298, "note": 65, "velocity": 100, "channel": 0}, {"type": "note_on", "time": 58, "note": 62, "velocity": 97, "channel": 0}, {"type": "note_off", "time": 508, "note": 62, "velocity": 97, "channel": 0}, {"type": "note_on", "time": 33, "note": 57, "velocity": 99, "channel": 0}, {"type": "note_off", "time": 222, "note": 57, "velocity": 99, "channel": 0}, {"type": "note_on", "time": 100, "note": 65, "velocity": 106, "channel": 0}, {"type": "note_off", "time": 764, "note": 65, "velocity": 106, "channel": 0}, {"type": "note_on", "time": 16, "note": 67, "velocity": 100, "channel": 0}, {"type": "note_off", "time": 848, "note": 67, "velocity": 100, "channel": 0}, {"type": "note_on", "time": 15, "note": 69, "velocity": 108, "channel": 0}, {"type": "note_off", "time": 418, "note": 69, "velocity": 108, "channel": 0}, {"type": "note_on", "time": 41, "note": 68, "velocity": 109, "channel": 0}, {"type": "note_off", "time": 185, "note": 68, "velocity": 109, "channel": 0}, {"type": "note_on", "time": 0, "note": 65, "velocity": 91, "channel": 0}, {"type": "note_off", "time": 388, "note": 65, "velocity": 91, "channel": 0}, {"type": "note_on", "time": 0, "note": 64, "velocity": 82, "channel": 0}, {"type": "note_off", "time": 280, "note": 64, "velocity": 82, "channel": 0}, {"type": "note_on", "time": 4118, "note": 62, "velocity": 99, "channel": 0}, {"type": "note_off", "time": 470, "note": 62, "velocity": 99, "channel": 0}, {"type": "note_on", "time": 25, "note": 65, "velocity": 94, "channel": 0}, {"type": "note_off", "time": 256, "note": 65, "velocity": 94, "channel": 0}, {"type": "note_on", "time": 0, "note": 67, "velocity": 94, "channel": 0}, {"type": "note_on", "time": 373, "note": 69, "velocity": 94, "channel": 0}, {"type": "note_off", "time": 0, "note": 67, "velocity": 94, "channel": 0}, {"type": "note_off", "time": 365, "note": 69, "velocity": 94, "channel": 0}, {"type": "note_on", "time": 50, "note": 62, "velocity": 91, "channel": 0}, {"type": "note_off", "time": 319, "note": 62, "velocity": 91, "channel": 0}, {"type": "note_on", "time": 29, "note": 65, "velocity": 98, "channel": 0}, {"type": "note_off", "time": 546, "note": 65, "velocity": 98, "channel": 0}, {"type": "note_on", "time": 33, "note": 67, "velocity": 101, "channel": 0}, {"type": "note_off", "time": 348, "note": 67, "velocity": 101, "channel": 0}, {"type": "note_on", "time": 12, "note": 69, "velocity": 105, "channel": 0}, {"type": "note_off", "time": 352, "note": 69, "velocity": 105, "channel": 0}, {"type": "note_on", "time": 184, "note": 62, "velocity": 100, "channel": 0}, {"type": "note_off", "time": 394, "note": 62, "velocity": 100, "channel": 0}, {"type": "note_on", "time": 29, "note": 65, "velocity": 97, "channel": 0}, {"type": "note_off", "time": 306, "note": 65, "velocity": 97, "channel": 0}, {"type": "note_on", "time": 54, "note": 67, "velocity": 93, "channel": 0}, {"type": "note_off", "time": 243, "note": 67, "velocity": 93, "channel": 0}, {"type": "note_on", "time": 46, "note": 69, "velocity": 97, "channel": 0}, {"type": "note_off", "time": 357, "note": 69, "velocity": 97, "channel": 0}, {"type": "note_on", "time": 0, "note": 68, "velocity": 90, "channel": 0}, {"type": "note_off", "time": 310, "note": 68, "velocity": 90, "channel": 0}, {"type": "note_on", "time": 2805, "note": 69, "velocity": 94, "channel": 0}, {"type": "note_off", "time": 466, "note": 69, "velocity": 94, "channel": 0}, {"type": "note_on", "time": 117, "note": 62, "velocity": 94, "channel": 0}, {"type": "note_off", "time": 445, "note": 62, "velocity": 94, "channel": 0}, {"type": "note_on", "time": 54, "note": 66, "velocity": 89, "channel": 0}, {"type": "note_off", "time": 289, "note": 66, "velocity": 89, "channel": 0}, {"type": "note_on", "time": 0, "note": 67, "velocity": 91, "channel": 0}, {"type": "note_off", "time": 235, "note": 67, "velocity": 91, "channel": 0}, {"type": "note_on", "time": 33, "note": 69, "velocity": 101, "channel": 0}, {"type": "note_off", "time": 504, "note": 69, "velocity": 101, "channel": 0}, {"type": "note_on", "time": 226, "note": 62, "velocity": 91, "channel": 0}, {"type": "note_off", "time": 382, "note": 62, "velocity": 91, "channel": 0}, {"type": "note_on", "time": 50, "note": 65, "velocity": 95, "channel": 0}, {"type": "note_off", "time": 210, "note": 65, "velocity": 95, "channel": 0}, {"type": "note_on", "time": 0, "note": 67, "velocity": 94, "channel": 0}, {"type": "note_off", "time": 214, "note": 67, "velocity": 94, "channel": 0}, {"type": "note_on", "time": 0, "note": 69, "velocity": 104, "channel": 0}, {"type": "note_off", "time": 487, "note": 69, "velocity": 104, "channel": 0}, {"type": "note_on", "time": 12, "note": 62, "velocity": 110, "channel": 0}, {"type": "note_off", "time": 596, "note": 62, "velocity": 110, "channel": 0}, {"type": "note_on", "time": 4027, "note": 68, "velocity": 95, "channel": 0}, {"type": "note_off", "time": 382, "note": 68, "velocity": 95, "channel": 0}, {"type": "note_on", "time": 33, "note": 67, "velocity": 97, "channel": 0}, {"type": "note_off", "time": 315, "note": 67, "velocity": 97, "channel": 0}, {"type": "note_on", "time": 67, "note": 69, "velocity": 100, "channel": 0}, {"type": "note_off", "time": 890, "note": 69, "velocity": 100, "channel": 0}, {"type": "note_on", "time": 0, "note": 67, "velocity": 102, "channel": 0}, {"type": "note_off", "time": 327, "note": 67, "velocity": 102, "channel": 0}, {"type": "note_on", "time": 16, "note": 69, "velocity": 105, "channel": 0}, {"type": "note_off", "time": 277, "note": 69, "velocity": 105, "channel": 0}, {"type": "note_on", "time": 20, "note": 67, "velocity": 104, "channel": 0}, {"type": "note_off", "time": 533, "note": 67, "velocity": 104, "channel": 0}, {"type": "note_on", "time": 42, "note": 65, "velocity": 103, "channel": 0}, {"type": "note_off", "time": 1654, "note": 65, "velocity": 103, "channel": 0}, {"type": "note_on", "time": 42, "note": 62, "velocity": 105, "channel": 0}, {"type": "note_off", "time": 336, "note": 62, "velocity": 105, "channel": 0}, {"type": "note_on", "time": 33, "note": 65, "velocity": 105, "channel": 0}, {"type": "note_off", "time": 713, "note": 65, "velocity": 105, "channel": 0}, {"type": "note_on", "time": 58, "note": 67, "velocity": 106, "channel": 0}, {"type": "note_off", "time": 294, "note": 67, "velocity": 106, "channel": 0}, {"type": "note_on", "time": 92, "note": 62, "velocity": 107, "channel": 0}, {"type": "note_off", "time": 663, "note": 62, "velocity": 107, "channel": 0}, {"type": "note_on", "time": 3769, "note": 64, "velocity": 108, "channel": 0}, {"type": "note_off", "time": 292, "note": 64, "velocity": 108, "channel": 0}, {"type": "note_on", "time": 17, "note": 65, "velocity": 105, "channel": 0}, {"type": "note_off", "time": 238, "note": 65, "velocity": 105, "channel": 0}, {"type": "note_on", "time": 35, "note": 67, "velocity": 104, "channel": 0}, {"type": "note_off", "time": 358, "note": 67, "velocity": 104, "channel": 0}, {"type": "note_on", "time": 35, "note": 69, "velocity": 109, "channel": 0}, {"type": "note_off", "time": 436, "note": 69, "velocity": 109, "channel": 0}, {"type": "note_on", "time": 59, "note": 64, "velocity": 110, "channel": 0}, {"type": "note_off", "time": 489, "note": 64, "velocity": 110, "channel": 0}, {"type": "note_on", "time": 35, "note": 65, "velocity": 111, "channel": 0}, {"type": "note_off", "time": 346, "note": 65, "velocity": 111, "channel": 0}, {"type": "note_on", "time": 0, "note": 67, "velocity": 104, "channel": 0}, {"type": "note_off", "time": 256, "note": 67, "velocity": 104, "channel": 0}, {"type": "note_on", "time": 17, "note": 69, "velocity": 109, "channel": 0}, {"type": "note_off", "time": 370, "note": 69, "velocity": 109, "channel": 0}, {"type": "note_on", "time": 101, "note": 64, "velocity": 116, "channel": 0}, {"type": "note_off", "time": 477, "note": 64, "velocity": 116, "channel": 0}, {"type": "note_on", "time": 0, "note": 65, "velocity": 108, "channel": 0}, {"type": "note_off", "time": 221, "note": 65, "velocity": 108, "channel": 0}, {"type": "note_on", "time": 35, "note": 67, "velocity": 101, "channel": 0}, {"type": "note_off", "time": 304, "note": 67, "velocity": 101, "channel": 0}, {"type": "note_on", "time": 11, "note": 69, "velocity": 108, "channel": 0}, {"type": "note_off", "time": 250, "note": 69, "velocity": 108, "channel": 0}, {"type": "note_on", "time": 35, "note": 68, "velocity": 101, "channel": 0}, {"type": "note_off", "time": 161, "note": 68, "velocity": 101, "channel": 0}, {"type": "note_on", "time": 179, "note": 64, "velocity": 105, "channel": 0}, {"type": "note_off", "time": 448, "note": 64, "velocity": 105, "channel": 0}, {"type": "note_on", "time": 23, "note": 65, "velocity": 99, "channel": 0}, {"type": "note_off", "time": 238, "note": 65, "velocity": 99, "channel": 0}, {"type": "note_on", "time": 59, "note": 67, "velocity": 96, "channel": 0}, {"type": "note_off", "time": 310, "note": 67, "velocity": 96, "channel": 0}, {"type": "note_on", "time": 17, "note": 69, "velocity": 95, "channel": 0}, {"type": "note_off", "time": 382, "note": 69, "velocity": 95, "channel": 0}, {"type": "note_on", "time": 471, "note": 83, "velocity": 103, "channel": 0}, {"type": "note_off", "time": 298, "note": 83, "velocity": 103, "channel": 0}, {"type": "note_on", "time": 782, "note": 69, "velocity": 101, "channel": 0}, {"type": "note_off", "time": 609, "note": 69, "velocity": 101, "channel": 0}, {"type": "note_on", "time": 71, "note": 74, "velocity": 100, "channel": 0}, {"type": "note_off", "time": 286, "note": 74, "velocity": 100, "channel": 0}, {"type": "note_on", "time": 776, "note": 69, "velocity": 99, "channel": 0}, {"type": "note_off", "time": 561, "note": 69, "velocity": 99, "channel": 0}, {"type": "note_on", "time": 280, "note": 74, "velocity": 98, "channel": 0}, {"type": "note_off", "time": 537, "note": 74, "velocity": 98, "channel": 0}, {"type": "note_on", "time": 137, "note": 69, "velocity": 99, "channel": 0}, {"type": "note_off", "time": 459, "note": 69, "velocity": 99, "channel": 0}, {"type": "note_on", "time": 17, "note": 68, "velocity": 94, "channel": 0}, {"type": "note_off", "time": 489, "note": 68, "velocity": 94, "channel": 0}, {"type": "note_on", "time": 2192, "note": 69, "velocity": 96, "channel": 0}, {"type": "note_off", "time": 185, "note": 69, "velocity": 96, "channel": 0}, {"type": "note_on", "time": 0, "note": 71, "velocity": 100, "channel": 0}, {"type": "note_off", "time": 215, "note": 71, "velocity": 100, "channel": 0}, {"type": "note_on", "time": 0, "note": 69, "velocity": 100, "channel": 0}, {"type": "note_off", "time": 131, "note": 69, "velocity": 100, "channel": 0}, {"type": "note_on", "time": 29, "note": 68, "velocity": 99, "channel": 0}, {"type": "note_off", "time": 268, "note": 68, "velocity": 99, "channel": 0}, {"type": "note_on", "time": 35, "note": 69, "velocity": 101, "channel": 0}, {"type": "note_off", "time": 328, "note": 69, "velocity": 101, "channel": 0}, {"type": "note_on", "time": 113, "note": 74, "velocity": 98, "channel": 0}, {"type": "note_off", "time": 232, "note": 74, "velocity": 98, "channel": 0}, {"type": "note_on", "time": 143, "note": 68, "velocity": 108, "channel": 0}, {"type": "note_off", "time": 651, "note": 68, "velocity": 108, "channel": 0}, {"type": "note_on", "time": 71, "note": 74, "velocity": 96, "channel": 0}, {"type": "note_off", "time": 609, "note": 74, "velocity": 96, "channel": 0}, {"type": "note_on", "time": 47, "note": 71, "velocity": 104, "channel": 0}, {"type": "note_off", "time": 394, "note": 71, "velocity": 104, "channel": 0}, {"type": "note_on", "time": 5, "note": 67, "velocity": 104, "channel": 0}, {"type": "note_off", "time": 376, "note": 67, "velocity": 104, "channel": 0}, {"type": "note_on", "time": 41, "note": 66, "velocity": 95, "channel": 0}, {"type": "note_off", "time": 764, "note": 66, "velocity": 95, "channel": 0}, {"type": "note_on", "time": 1, "note": 68, "velocity": 98, "channel": 0}, {"type": "note_off", "time": 306, "note": 68, "velocity": 98, "channel": 0}, {"type": "note_on", "time": 0, "note": 66, "velocity": 98, "channel": 0}, {"type": "note_off", "time": 592, "note": 66, "velocity": 98, "channel": 0}, {"type": "note_on", "time": 1184, "note": 66, "velocity": 102, "channel": 0}, {"type": "note_off", "time": 448, "note": 66, "velocity": 102, "channel": 0}, {"type": "note_on", "time": 0, "note": 65, "velocity": 102, "channel": 0}, {"type": "note_off", "time": 256, "note": 65, "velocity": 102, "channel": 0}, {"type": "note_on", "time": 0, "note": 66, "velocity": 96, "channel": 0}, {"type": "note_off", "time": 513, "note": 66, "velocity": 96, "channel": 0}, {"type": "note_on", "time": 47, "note": 70, "velocity": 103, "channel": 0}, {"type": "note_off", "time": 346, "note": 70, "velocity": 103, "channel": 0}, {"type": "note_on", "time": 47, "note": 65, "velocity": 98, "channel": 0}, {"type": "note_off", "time": 495, "note": 65, "velocity": 98, "channel": 0}, {"type": "note_on", "time": 0, "note": 64, "velocity": 103, "channel": 0}, {"type": "note_off", "time": 316, "note": 64, "velocity": 103, "channel": 0}, {"type": "note_on", "time": 83, "note": 65, "velocity": 98, "channel": 0}, {"type": "note_off", "time": 352, "note": 65, "velocity": 98, "channel": 0}, {"type": "note_on", "time": 113, "note": 67, "velocity": 101, "channel": 0}, {"type": "note_off", "time": 203, "note": 67, "velocity": 101, "channel": 0}, {"type": "note_on", "time": 17, "note": 62, "velocity": 97, "channel": 0}, {"type": "note_off", "time": 543, "note": 62, "velocity": 97, "channel": 0}, {"type": "note_on", "time": 2986, "note": 66, "velocity": 98, "channel": 0}, {"type": "note_off", "time": 352, "note": 66, "velocity": 98, "channel": 0}, {"type": "note_on", "time": 0, "note": 65, "velocity": 97, "channel": 0}, {"type": "note_off", "time": 280, "note": 65, "velocity": 97, "channel": 0}, {"type": "note_on", "time": 0, "note": 66, "velocity": 99, "channel": 0}, {"type": "note_off", "time": 537, "note": 66, "velocity": 99, "channel": 0}, {"type": "note_on", "time": 125, "note": 70, "velocity": 103, "channel": 0}, {"type": "note_off", "time": 292, "note": 70, "velocity": 103, "channel": 0}, {"type": "note_on", "time": 29, "note": 69, "velocity": 102, "channel": 0}, {"type": "note_off", "time": 465, "note": 69, "velocity": 102, "channel": 0}, {"type": "note_on", "time": 59, "note": 68, "velocity": 98, "channel": 0}, {"type": "note_off", "time": 352, "note": 68, "velocity": 98, "channel": 0}, {"type": "note_on", "time": 41, "note": 63, "velocity": 106, "channel": 0}, {"type": "note_off", "time": 340, "note": 63, "velocity": 106, "channel": 0}, {"type": "note_on", "time": 137, "note": 70, "velocity": 100, "channel": 0}, {"type": "note_off", "time": 238, "note": 70, "velocity": 100, "channel": 0}, {"type": "note_on", "time": 23, "note": 67, "velocity": 107, "channel": 0}, {"type": "note_off", "time": 698, "note": 67, "velocity": 107, "channel": 0}, {"type": "note_on", "time": 0, "note": 68, "velocity": 104, "channel": 0}, {"type": "note_off", "time": 710, "note": 68, "velocity": 104, "channel": 0}, {"type": "note_on", "time": 352, "note": 67, "velocity": 107, "channel": 0}, {"type": "note_off", "time": 453, "note": 67, "velocity": 107, "channel": 0}, {"type": "note_on", "time": 35, "note": 68, "velocity": 100, "channel": 0}, {"type": "note_off", "time": 209, "note": 68, "velocity": 100, "channel": 0}, {"type": "note_on", "time": 35, "note": 70, "velocity": 102, "channel": 0}, {"type": "note_off", "time": 525, "note": 70, "velocity": 102, "channel": 0}, {"type": "note_on", "time": 215, "note": 68, "velocity": 99, "channel": 0}, {"type": "note_off", "time": 197, "note": 68, "velocity": 99, "channel": 0}, {"type": "note_on", "time": 29, "note": 64, "velocity": 106, "channel": 0}, {"type": "note_off", "time": 555, "note": 64, "velocity": 106, "channel": 0}, {"type": "note_on", "time": 5, "note": 66, "velocity": 97, "channel": 0}, {"type": "note_off", "time": 215, "note": 66, "velocity": 97, "channel": 0}, {"type": "note_on", "time": 17, "note": 68, "velocity": 97, "channel": 0}, {"type": "note_off", "time": 316, "note": 68, "velocity": 97, "channel": 0}, {"type": "note_on", "time": 71, "note": 69, "velocity": 102, "channel": 0}, {"type": "note_off", "time": 376, "note": 69, "velocity": 102, "channel": 0}, {"type": "note_on", "time": 59, "note": 65, "velocity": 99, "channel": 0}, {"type": "note_off", "time": 430, "note": 65, "velocity": 99, "channel": 0}, {"type": "note_on", "time": 35, "note": 61, "velocity": 103, "channel": 0}, {"type": "note_on", "time": 304, "note": 59, "velocity": 101, "channel": 0}, {"type": "note_off", "time": 0, "note": 61, "velocity": 103, "channel": 0}, {"type": "note_off", "time": 394, "note": 59, "velocity": 101, "channel": 0}, {"type": "note_on", "time": 35, "note": 58, "velocity": 98, "channel": 0}, {"type": "note_off", "time": 364, "note": 58, "velocity": 98, "channel": 0}, {"type": "note_on", "time": 17, "note": 57, "velocity": 97, "channel": 0}, {"type": "note_off", "time": 519, "note": 57, "velocity": 97, "channel": 0}, {"type": "note_on", "time": 23, "note": 56, "velocity": 96, "channel": 0}, {"type": "note_on", "time": 376, "note": 55, "velocity": 93, "channel": 0}, {"type": "note_off", "time": 0, "note": 56, "velocity": 96, "channel": 0}, {"type": "note_off", "time": 298, "note": 55, "velocity": 93, "channel": 0}, {"type": "note_on", "time": 113, "note": 59, "velocity": 96, "channel": 0}, {"type": "note_off", "time": 346, "note": 59, "velocity": 96, "channel": 0}, {"type": "note_on", "time": 77, "note": 57, "velocity": 95, "channel": 0}, {"type": "note_off", "time": 800, "note": 57, "velocity": 95, "channel": 0}, {"type": "note_on", "time": 3793, "note": 59, "velocity": 92, "channel": 0}, {"type": "note_off", "time": 286, "note": 59, "velocity": 92, "channel": 0}, {"type": "note_on", "time": 35, "note": 58, "velocity": 91, "channel": 0}, {"type": "note_off", "time": 382, "note": 58, "velocity": 91, "channel": 0}, {"type": "note_on", "time": 71, "note": 54, "velocity": 93, "channel": 0}, {"type": "note_off", "time": 328, "note": 54, "velocity": 93, "channel": 0}, {"type": "note_on", "time": 59, "note": 53, "velocity": 100, "channel": 0}, {"type": "note_off", "time": 388, "note": 53, "velocity": 100, "channel": 0}, {"type": "note_on", "time": 11, "note": 51, "velocity": 100, "channel": 0}, {"type": "note_off", "time": 412, "note": 51, "velocity": 100, "channel": 0}, {"type": "note_on", "time": 173, "note": 56, "velocity": 91, "channel": 0}, {"type": "note_off", "time": 1152, "note": 56, "velocity": 91, "channel": 0}, {"type": "note_on", "time": 29, "note": 53, "velocity": 98, "channel": 0}, {"type": "note_off", "time": 346, "note": 53, "velocity": 98, "channel": 0}, {"type": "note_on", "time": 0, "note": 48, "velocity": 101, "channel": 0}, {"type": "note_off", "time": 394, "note": 48, "velocity": 101, "channel": 0}, {"type": "note_on", "time": 53, "note": 53, "velocity": 101, "channel": 0}, {"type": "note_off", "time": 310, "note": 53, "velocity": 101, "channel": 0}, {"type": "note_on", "time": 47, "note": 51, "velocity": 107, "channel": 0}, {"type": "note_off", "time": 364, "note": 51, "velocity": 107, "channel": 0}, {"type": "note_on", "time": 27, "note": 45, "velocity": 107, "channel": 0}, {"type": "note_off", "time": 507, "note": 45, "velocity": 107, "channel": 0}, {"type": "note_on", "time": 4943, "note": 67, "velocity": 97, "channel": 0}, {"type": "note_off", "time": 1058, "note": 67, "velocity": 97, "channel": 0}, {"type": "note_on", "time": 16, "note": 71, "velocity": 103, "channel": 0}, {"type": "note_on", "time": 428, "note": 69, "velocity": 105, "channel": 0}, {"type": "note_off", "time": 0, "note": 71, "velocity": 103, "channel": 0}, {"type": "note_off", "time": 386, "note": 69, "velocity": 105, "channel": 0}, {"type": "note_on", "time": 50, "note": 66, "velocity": 101, "channel": 0}, {"type": "note_off", "time": 319, "note": 66, "velocity": 101, "channel": 0}, {"type": "note_on", "time": 25, "note": 65, "velocity": 102, "channel": 0}, {"type": "note_off", "time": 277, "note": 65, "velocity": 102, "channel": 0}, {"type": "note_on", "time": 58, "note": 64, "velocity": 108, "channel": 0}, {"type": "note_off", "time": 386, "note": 64, "velocity": 108, "channel": 0}, {"type": "note_on", "time": 16, "note": 63, "velocity": 111, "channel": 0}, {"type": "note_off", "time": 646, "note": 63, "velocity": 111, "channel": 0}, {"type": "note_on", "time": 3024, "note": 63, "velocity": 105, "channel": 0}, {"type": "note_on", "time": 335, "note": 62, "velocity": 104, "channel": 0}, {"type": "note_off", "time": 0, "note": 63, "velocity": 105, "channel": 0}, {"type": "note_off", "time": 470, "note": 62, "velocity": 104, "channel": 0}, {"type": "note_on", "time": 0, "note": 63, "velocity": 112, "channel": 0}, {"type": "note_off", "time": 386, "note": 63, "velocity": 112, "channel": 0}, {"type": "note_on", "time": 92, "note": 65, "velocity": 104, "channel": 0}, {"type": "note_off", "time": 411, "note": 65, "velocity": 104, "channel": 0}, {"type": "note_on", "time": 42, "note": 66, "velocity": 100, "channel": 0}, {"type": "note_off", "time": 436, "note": 66, "velocity": 100, "channel": 0}, {"type": "note_on", "time": 25, "note": 68, "velocity": 98, "channel": 0}, {"type": "note_off", "time": 529, "note": 68, "velocity": 98, "channel": 0}, {"type": "note_on", "time": 117, "note": 70, "velocity": 59, "channel": 0}, {"type": "note_off", "time": 310, "note": 70, "velocity": 59, "channel": 0}, {"type": "note_on", "time": 33, "note": 62, "velocity": 112, "channel": 0}, {"type": "note_off", "time": 554, "note": 62, "velocity": 112, "channel": 0}, {"type": "note_on", "time": 0, "note": 61, "velocity": 112, "channel": 0}, {"type": "note_off", "time": 235, "note": 61, "velocity": 112, "channel": 0}, {"type": "note_on", "time": 0, "note": 59, "velocity": 106, "channel": 0}, {"type": "note_off", "time": 613, "note": 59, "velocity": 106, "channel": 0}, {"type": "note_on", "time": 1982, "note": 61, "velocity": 110, "channel": 0}, {"type": "note_off", "time": 403, "note": 61, "velocity": 110, "channel": 0}, {"type": "note_on", "time": 50, "note": 63, "velocity": 110, "channel": 0}, {"type": "note_off", "time": 688, "note": 63, "velocity": 110, "channel": 0}, {"type": "note_on", "time": 209, "note": 65, "velocity": 110, "channel": 0}, {"type": "note_off", "time": 302, "note": 65, "velocity": 110, "channel": 0}, {"type": "note_on", "time": 42, "note": 60, "velocity": 108, "channel": 0}, {"type": "note_on", "time": 512, "note": 66, "velocity": 109, "channel": 0}, {"type": "note_off", "time": 0, "note": 60, "velocity": 108, "channel": 0}, {"type": "note_off", "time": 344, "note": 66, "velocity": 109, "channel": 0}, {"type": "note_on", "time": 8, "note": 69, "velocity": 113, "channel": 0}, {"type": "note_off", "time": 520, "note": 69, "velocity": 113, "channel": 0}, {"type": "note_on", "time": 0, "note": 71, "velocity": 112, "channel": 0}, {"type": "note_off", "time": 394, "note": 71, "velocity": 112, "channel": 0}, {"type": "note_on", "time": 0, "note": 67, "velocity": 108, "channel": 0}, {"type": "note_off", "time": 302, "note": 67, "velocity": 108, "channel": 0}, {"type": "note_on", "time": 58, "note": 62, "velocity": 107, "channel": 0}, {"type": "note_off", "time": 537, "note": 62, "velocity": 107, "channel": 0}, {"type": "note_on", "time": 8, "note": 58, "velocity": 102, "channel": 0}, {"type": "note_off", "time": 478, "note": 58, "velocity": 102, "channel": 0}, {"type": "note_on", "time": 326, "note": 63, "velocity": 121, "channel": 0}, {"type": "note_off", "time": 489, "note": 63, "velocity": 121, "channel": 0}, {"type": "note_on", "time": 41, "note": 62, "velocity": 108, "channel": 0}, {"type": "note_off", "time": 328, "note": 62, "velocity": 108, "channel": 0}, {"type": "note_on", "time": 0, "note": 63, "velocity": 112, "channel": 0}, {"type": "note_off", "time": 400, "note": 63, "velocity": 112, "channel": 0}, {"type": "note_on", "time": 17, "note": 67, "velocity": 110, "channel": 0}, {"type": "note_off", "time": 304, "note": 67, "velocity": 110, "channel": 0}, {"type": "note_on", "time": 47, "note": 64, "velocity": 117, "channel": 0}, {"type": "note_off", "time": 453, "note": 64, "velocity": 117, "channel": 0}, {"type": "note_on", "time": 0, "note": 66, "velocity": 107, "channel": 0}, {"type": "note_off", "time": 346, "note": 66, "velocity": 107, "channel": 0}, {"type": "note_on", "time": 11, "note": 68, "velocity": 106, "channel": 0}, {"type": "note_off", "time": 322, "note": 68, "velocity": 106, "channel": 0}, {"type": "note_on", "time": 250, "note": 70, "velocity": 105, "channel": 0}, {"type": "note_off", "time": 310, "note": 70, "velocity": 105, "channel": 0}, {"type": "note_on", "time": 59, "note": 66, "velocity": 103, "channel": 0}, {"type": "note_off", "time": 382, "note": 66, "velocity": 103, "channel": 0}, {"type": "note_on", "time": 59, "note": 63, "velocity": 114, "channel": 0}, {"type": "note_off", "time": 364, "note": 63, "velocity": 114, "channel": 0}, {"type": "note_on", "time": 41, "note": 59, "velocity": 109, "channel": 0}, {"type": "note_off", "time": 334, "note": 59, "velocity": 109, "channel": 0}, {"type": "note_on", "time": 59, "note": 58, "velocity": 108, "channel": 0}, {"type": "note_off", "time": 358, "note": 58, "velocity": 108, "channel": 0}, {"type": "note_on", "time": 11, "note": 57, "velocity": 110, "channel": 0}, {"type": "note_off", "time": 424, "note": 57, "velocity": 110, "channel": 0}, {"type": "note_on", "time": 119, "note": 56, "velocity": 107, "channel": 0}, {"type": "note_off", "time": 328, "note": 56, "velocity": 107, "channel": 0}, {"type": "note_on", "time": 0, "note": 55, "velocity": 100, "channel": 0}, {"type": "note_off", "time": 400, "note": 55, "velocity": 100, "channel": 0}, {"type": "note_on", "time": 65, "note": 59, "velocity": 109, "channel": 0}, {"type": "note_off", "time": 394, "note": 59, "velocity": 109, "channel": 0}, {"type": "note_on", "time": 41, "note": 57, "velocity": 111, "channel": 0}, {"type": "note_off", "time": 250, "note": 57, "velocity": 111, "channel": 0}, {"type": "note_on", "time": 11, "note": 62, "velocity": 109, "channel": 0}, {"type": "note_off", "time": 412, "note": 62, "velocity": 109, "channel": 0}, {"type": "note_on", "time": 95, "note": 65, "velocity": 108, "channel": 0}, {"type": "note_off", "time": 495, "note": 65, "velocity": 108, "channel": 0}, {"type": "note_on", "time": 11, "note": 62, "velocity": 113, "channel": 0}, {"type": "note_off", "time": 448, "note": 62, "velocity": 113, "channel": 0}, {"type": "note_on", "time": 334, "note": 62, "velocity": 112, "channel": 0}, {"type": "note_off", "time": 406, "note": 62, "velocity": 112, "channel": 0}, {"type": "note_on", "time": 47, "note": 57, "velocity": 103, "channel": 0}, {"type": "note_off", "time": 728, "note": 57, "velocity": 103, "channel": 0}, {"type": "note_on", "time": 1792, "note": 57, "velocity": 103, "channel": 0}, {"type": "note_off", "time": 1206, "note": 57, "velocity": 103, "channel": 0}, {"type": "note_on", "time": 119, "note": 52, "velocity": 99, "channel": 0}, {"type": "note_off", "time": 352, "note": 52, "velocity": 99, "channel": 0}, {"type": "note_on", "time": 0, "note": 57, "velocity": 106, "channel": 0}, {"type": "note_off", "time": 597, "note": 57, "velocity": 106, "channel": 0}, {"type": "note_on", "time": 262, "note": 53, "velocity": 108, "channel": 0}, {"type": "note_off", "time": 292, "note": 53, "velocity": 108, "channel": 0}, {"type": "note_on", "time": 47, "note": 50, "velocity": 108, "channel": 0}, {"type": "note_off", "time": 567, "note": 50, "velocity": 108, "channel": 0}, {"type": "note_on", "time": 2753, "note": 69, "velocity": 97, "channel": 0}, {"type": "note_off", "time": 776, "note": 69, "velocity": 97, "channel": 0}, {"type": "note_on", "time": 17, "note": 70, "velocity": 105, "channel": 0}, {"type": "note_off", "time": 197, "note": 70, "velocity": 105, "channel": 0}, {"type": "note_on", "time": 41, "note": 69, "velocity": 94, "channel": 0}, {"type": "note_off", "time": 519, "note": 69, "velocity": 94, "channel": 0}, {"type": "note_on", "time": 537, "note": 49, "velocity": 107, "channel": 0}, {"type": "note_off", "time": 489, "note": 49, "velocity": 107, "channel": 0}, {"type": "note_on", "time": 549, "note": 66, "velocity": 102, "channel": 0}, {"type": "note_off", "time": 274, "note": 66, "velocity": 102, "channel": 0}, {"type": "note_on", "time": 65, "note": 68, "velocity": 97, "channel": 0}, {"type": "note_off", "time": 250, "note": 68, "velocity": 97, "channel": 0}, {"type": "note_on", "time": 59, "note": 66, "velocity": 118, "channel": 0}, {"type": "note_off", "time": 513, "note": 66, "velocity": 118, "channel": 0}, {"type": "note_on", "time": 77, "note": 64, "velocity": 108, "channel": 0}, {"type": "note_off", "time": 316, "note": 64, "velocity": 108, "channel": 0}, {"type": "note_on", "time": 41, "note": 69, "velocity": 108, "channel": 0}, {"type": "note_off", "time": 358, "note": 69, "velocity": 108, "channel": 0}, {"type": "note_on", "time": 53, "note": 70, "velocity": 101, "channel": 0}, {"type": "note_off", "time": 221, "note": 70, "velocity": 101, "channel": 0}, {"type": "note_on", "time": 0, "note": 58, "velocity": 100, "channel": 0}, {"type": "note_off", "time": 561, "note": 58, "velocity": 100, "channel": 0}, {"type": "note_on", "time": 4692, "note": 61, "velocity": 96, "channel": 0}, {"type": "note_off", "time": 176, "note": 61, "velocity": 96, "channel": 0}, {"type": "note_on", "time": 8, "note": 63, "velocity": 94, "channel": 0}, {"type": "note_off", "time": 235, "note": 63, "velocity": 94, "channel": 0}, {"type": "note_on", "time": 33, "note": 65, "velocity": 98, "channel": 0}, {"type": "note_off", "time": 672, "note": 65, "velocity": 98, "channel": 0}, {"type": "note_on", "time": 25, "note": 70, "velocity": 99, "channel": 0}, {"type": "note_off", "time": 327, "note": 70, "velocity": 99, "channel": 0}, {"type": "note_on", "time": 184, "note": 63, "velocity": 109, "channel": 0}, {"type": "note_off", "time": 327, "note": 63, "velocity": 109, "channel": 0}, {"type": "note_on", "time": 100, "note": 66, "velocity": 101, "channel": 0}, {"type": "note_off", "time": 235, "note": 66, "velocity": 101, "channel": 0}, {"type": "note_on", "time": 67, "note": 68, "velocity": 97, "channel": 0}, {"type": "note_off", "time": 226, "note": 68, "velocity": 97, "channel": 0}, {"type": "note_on", "time": 167, "note": 63, "velocity": 106, "channel": 0}, {"type": "note_off", "time": 352, "note": 63, "velocity": 106, "channel": 0}, {"type": "note_on", "time": 25, "note": 61, "velocity": 110, "channel": 0}, {"type": "note_off", "time": 310, "note": 61, "velocity": 110, "channel": 0}, {"type": "note_on", "time": 50, "note": 59, "velocity": 103, "channel": 0}, {"type": "note_off", "time": 344, "note": 59, "velocity": 103, "channel": 0}, {"type": "note_on", "time": 8, "note": 58, "velocity": 103, "channel": 0}, {"type": "note_off", "time": 453, "note": 58, "velocity": 103, "channel": 0}, {"type": "note_on", "time": 75, "note": 57, "velocity": 104, "channel": 0}, {"type": "note_off", "time": 512, "note": 57, "velocity": 104, "channel": 0}, {"type": "note_on", "time": 1856, "note": 57, "velocity": 100, "channel": 0}, {"type": "note_on", "time": 1175, "note": 59, "velocity": 102, "channel": 0}, {"type": "note_off", "time": 0, "note": 57, "velocity": 100, "channel": 0}, {"type": "note_off", "time": 352, "note": 59, "velocity": 102, "channel": 0}, {"type": "note_on", "time": 8, "note": 61, "velocity": 105, "channel": 0}, {"type": "note_off", "time": 285, "note": 61, "velocity": 105, "channel": 0}, {"type": "note_on", "time": 67, "note": 62, "velocity": 108, "channel": 0}, {"type": "note_off", "time": 495, "note": 62, "velocity": 108, "channel": 0}, {"type": "note_on", "time": 25, "note": 64, "velocity": 116, "channel": 0}, {"type": "note_off", "time": 428, "note": 64, "velocity": 116, "channel": 0}, {"type": "note_on", "time": 16, "note": 61, "velocity": 100, "channel": 0}, {"type": "note_off", "time": 394, "note": 61, "velocity": 100, "channel": 0}, {"type": "note_on", "time": 0, "note": 62, "velocity": 111, "channel": 0}, {"type": "note_off", "time": 184, "note": 62, "velocity": 111, "channel": 0}, {"type": "note_on", "time": 117, "note": 64, "velocity": 115, "channel": 0}, {"type": "note_off", "time": 520, "note": 64, "velocity": 115, "channel": 0}, {"type": "note_on", "time": 33, "note": 65, "velocity": 107, "channel": 0}, {"type": "note_off", "time": 277, "note": 65, "velocity": 107, "channel": 0}, {"type": "note_on", "time": 84, "note": 67, "velocity": 108, "channel": 0}, {"type": "note_off", "time": 327, "note": 67, "velocity": 108, "channel": 0}, {"type": "note_on", "time": 122, "note": 61, "velocity": 106, "channel": 0}, {"type": "note_off", "time": 376, "note": 61, "velocity": 106, "channel": 0}, {"type": "note_on", "time": 137, "note": 66, "velocity": 98, "channel": 0}, {"type": "note_off", "time": 250, "note": 66, "velocity": 98, "channel": 0}, {"type": "note_on", "time": 47, "note": 68, "velocity": 100, "channel": 0}, {"type": "note_off", "time": 364, "note": 68, "velocity": 100, "channel": 0}, {"type": "note_on", "time": 59, "note": 71, "velocity": 107, "channel": 0}, {"type": "note_off", "time": 197, "note": 71, "velocity": 107, "channel": 0}, {"type": "note_on", "time": 0, "note": 70, "velocity": 110, "channel": 0}, {"type": "note_off", "time": 173, "note": 70, "velocity": 110, "channel": 0}, {"type": "note_on", "time": 11, "note": 67, "velocity": 110, "channel": 0}, {"type": "note_off", "time": 442, "note": 67, "velocity": 110, "channel": 0}, {"type": "note_on", "time": 71, "note": 66, "velocity": 102, "channel": 0}, {"type": "note_off", "time": 352, "note": 66, "velocity": 102, "channel": 0}, {"type": "note_on", "time": 29, "note": 69, "velocity": 99, "channel": 0}, {"type": "note_off", "time": 304, "note": 69, "velocity": 99, "channel": 0}, {"type": "note_on", "time": 77, "note": 71, "velocity": 111, "channel": 0}, {"type": "note_off", "time": 376, "note": 71, "velocity": 111, "channel": 0}, {"type": "note_on", "time": 113, "note": 62, "velocity": 109, "channel": 0}, {"type": "note_off", "time": 364, "note": 62, "velocity": 109, "channel": 0}, {"type": "note_on", "time": 71, "note": 60, "velocity": 104, "channel": 0}, {"type": "note_off", "time": 250, "note": 60, "velocity": 104, "channel": 0}, {"type": "note_on", "time": 89, "note": 59, "velocity": 108, "channel": 0}, {"type": "note_off", "time": 418, "note": 59, "velocity": 108, "channel": 0}, {"type": "note_on", "time": 0, "note": 55, "velocity": 93, "channel": 0}, {"type": "note_off", "time": 274, "note": 55, "velocity": 93, "channel": 0}, {"type": "note_on", "time": 191, "note": 63, "velocity": 119, "channel": 0}, {"type": "note_off", "time": 483, "note": 63, "velocity": 119, "channel": 0}, {"type": "note_on", "time": 35, "note": 62, "velocity": 108, "channel": 0}, {"type": "note_off", "time": 268, "note": 62, "velocity": 108, "channel": 0}, {"type": "note_on", "time": 5, "note": 63, "velocity": 114, "channel": 0}, {"type": "note_off", "time": 436, "note": 63, "velocity": 114, "channel": 0}, {"type": "note_on", "time": 47, "note": 65, "velocity": 112, "channel": 0}, {"type": "note_off", "time": 531, "note": 65, "velocity": 112, "channel": 0}, {"type": "note_on", "time": 11, "note": 66, "velocity": 105, "channel": 0}, {"type": "note_off", "time": 298, "note": 66, "velocity": 105, "channel": 0}, {"type": "note_on", "time": 59, "note": 67, "velocity": 106, "channel": 0}, {"type": "note_off", "time": 1708, "note": 67, "velocity": 106, "channel": 0}, {"type": "note_on", "time": 47, "note": 70, "velocity": 107, "channel": 0}, {"type": "note_off", "time": 418, "note": 70, "velocity": 107, "channel": 0}, {"type": "note_on", "time": 0, "note": 63, "velocity": 121, "channel": 0}, {"type": "note_off", "time": 465, "note": 63, "velocity": 121, "channel": 0}, {"type": "note_on", "time": 0, "note": 62, "velocity": 109, "channel": 0}, {"type": "note_off", "time": 221, "note": 62, "velocity": 109, "channel": 0}, {"type": "note_on", "time": 35, "note": 61, "velocity": 103, "channel": 0}, {"type": "note_off", "time": 531, "note": 61, "velocity": 103, "channel": 0}, {"type": "note_on", "time": 29, "note": 62, "velocity": 104, "channel": 0}, {"type": "note_off", "time": 298, "note": 62, "velocity": 104, "channel": 0}, {"type": "note_on", "time": 41, "note": 63, "velocity": 105, "channel": 0}, {"type": "note_off", "time": 226, "note": 63, "velocity": 105, "channel": 0}, {"type": "note_on", "time": 77, "note": 67, "velocity": 110, "channel": 0}, {"type": "note_off", "time": 346, "note": 67, "velocity": 110, "channel": 0}, {"type": "note_on", "time": 0, "note": 64, "velocity": 116, "channel": 0}, {"type": "note_off", "time": 436, "note": 64, "velocity": 116, "channel": 0}, {"type": "note_on", "time": 0, "note": 66, "velocity": 113, "channel": 0}, {"type": "note_off", "time": 262, "note": 66, "velocity": 113, "channel": 0}, {"type": "note_on", "time": 71, "note": 68, "velocity": 106, "channel": 0}, {"type": "note_off", "time": 352, "note": 68, "velocity": 106, "channel": 0}, {"type": "note_on", "time": 119, "note": 70, "velocity": 111, "channel": 0}, {"type": "note_off", "time": 400, "note": 70, "velocity": 111, "channel": 0}, {"type": "note_on", "time": 17, "note": 66, "velocity": 103, "channel": 0}, {"type": "note_off", "time": 280, "note": 66, "velocity": 103, "channel": 0}, {"type": "note_on", "time": 131, "note": 55, "velocity": 107, "channel": 0}, {"type": "note_off", "time": 256, "note": 55, "velocity": 107, "channel": 0}, {"type": "note_on", "time": 59, "note": 59, "velocity": 106, "channel": 0}, {"type": "note_off", "time": 424, "note": 59, "velocity": 106, "channel": 0}, {"type": "note_on", "time": 35, "note": 58, "velocity": 108, "channel": 0}, {"type": "note_off", "time": 352, "note": 58, "velocity": 108, "channel": 0}, {"type": "note_on", "time": 23, "note": 57, "velocity": 108, "channel": 0}, {"type": "note_off", "time": 334, "note": 57, "velocity": 108, "channel": 0}, {"type": "note_on", "time": 226, "note": 62, "velocity": 108, "channel": 0}, {"type": "note_off", "time": 280, "note": 62, "velocity": 108, "channel": 0}, {"type": "note_on", "time": 23, "note": 65, "velocity": 103, "channel": 0}, {"type": "note_off", "time": 316, "note": 65, "velocity": 103, "channel": 0}, {"type": "note_on", "time": 89, "note": 69, "velocity": 96, "channel": 0}, {"type": "note_off", "time": 268, "note": 69, "velocity": 96, "channel": 0}, {"type": "note_on", "time": 77, "note": 74, "velocity": 110, "channel": 0}, {"type": "note_off", "time": 334, "note": 74, "velocity": 110, "channel": 0}, {"type": "note_on", "time": 35, "note": 73, "velocity": 114, "channel": 0}, {"type": "note_off", "time": 579, "note": 73, "velocity": 114, "channel": 0}, {"type": "note_on", "time": 41, "note": 69, "velocity": 114, "channel": 0}, {"type": "note_off", "time": 268, "note": 69, "velocity": 114, "channel": 0}, {"type": "note_on", "time": 71, "note": 69, "velocity": 114, "channel": 0}, {"type": "note_off", "time": 579, "note": 69, "velocity": 114, "channel": 0}, {"type": "note_on", "time": 0, "note": 68, "velocity": 98, "channel": 0}, {"type": "note_off", "time": 322, "note": 68, "velocity": 98, "channel": 0}, {"type": "note_on", "time": 4151, "note": 71, "velocity": 110, "channel": 0}, {"type": "note_off", "time": 262, "note": 71, "velocity": 110, "channel": 0}, {"type": "note_on", "time": 17, "note": 72, "velocity": 107, "channel": 0}, {"type": "note_off", "time": 1684, "note": 72, "velocity": 107, "channel": 0}, {"type": "note_on", "time": 71, "note": 70, "velocity": 112, "channel": 0}, {"type": "note_off", "time": 346, "note": 70, "velocity": 112, "channel": 0}, {"type": "note_on", "time": 29, "note": 72, "velocity": 112, "channel": 0}, {"type": "note_off", "time": 477, "note": 72, "velocity": 112, "channel": 0}, {"type": "note_on", "time": 424, "note": 71, "velocity": 115, "channel": 0}, {"type": "note_off", "time": 232, "note": 71, "velocity": 115, "channel": 0}, {"type": "note_on", "time": 0, "note": 72, "velocity": 113, "channel": 0}, {"type": "note_off", "time": 1809, "note": 72, "velocity": 113, "channel": 0}, {"type": "note_on", "time": 83, "note": 68, "velocity": 112, "channel": 0}, {"type": "note_off", "time": 328, "note": 68, "velocity": 112, "channel": 0}, {"type": "note_on", "time": 47, "note": 63, "velocity": 116, "channel": 0}, {"type": "note_off", "time": 716, "note": 63, "velocity": 116, "channel": 0}, {"type": "note_on", "time": 1122, "note": 70, "velocity": 105, "channel": 0}, {"type": "note_off", "time": 167, "note": 70, "velocity": 105, "channel": 0}, {"type": "note_on", "time": 148, "note": 72, "velocity": 114, "channel": 0}, {"type": "note_off", "time": 1831, "note": 72, "velocity": 114, "channel": 0}, {"type": "note_on", "time": 229, "note": 63, "velocity": 100, "channel": 0}, {"type": "note_off", "time": 262, "note": 63, "velocity": 100, "channel": 0}, {"type": "note_on", "time": 5, "note": 60, "velocity": 110, "channel": 0}, {"type": "note_off", "time": 585, "note": 60, "velocity": 110, "channel": 0}, {"type": "note_on", "time": 0, "note": 63, "velocity": 102, "channel": 0}, {"type": "note_off", "time": 304, "note": 63, "velocity": 102, "channel": 0}, {"type": "note_on", "time": 406, "note": 72, "velocity": 112, "channel": 0}, {"type": "note_off", "time": 609, "note": 72, "velocity": 112, "channel": 0}, {"type": "note_on", "time": 71, "note": 63, "velocity": 106, "channel": 0}, {"type": "note_off", "time": 370, "note": 63, "velocity": 106, "channel": 0}, {"type": "note_on", "time": 221, "note": 72, "velocity": 111, "channel": 0}, {"type": "note_off", "time": 501, "note": 72, "velocity": 111, "channel": 0}, {"type": "note_on", "time": 41, "note": 63, "velocity": 110, "channel": 0}, {"type": "note_off", "time": 418, "note": 63, "velocity": 110, "channel": 0}, {"type": "note_on", "time": 364, "note": 72, "velocity": 110, "channel": 0}, {"type": "note_off", "time": 424, "note": 72, "velocity": 110, "channel": 0}, {"type": "note_on", "time": 23, "note": 63, "velocity": 103, "channel": 0}, {"type": "note_off", "time": 453, "note": 63, "velocity": 103, "channel": 0}, {"type": "note_on", "time": 197, "note": 72, "velocity": 108, "channel": 0}, {"type": "note_off", "time": 686, "note": 72, "velocity": 108, "channel": 0}, {"type": "note_on", "time": 71, "note": 63, "velocity": 101, "channel": 0}, {"type": "note_off", "time": 292, "note": 63, "velocity": 101, "channel": 0}, {"type": "note_on", "time": 280, "note": 72, "velocity": 108, "channel": 0}, {"type": "note_off", "time": 525, "note": 72, "velocity": 108, "channel": 0}, {"type": "note_on", "time": 29, "note": 73, "velocity": 103, "channel": 0}, {"type": "note_off", "time": 430, "note": 73, "velocity": 103, "channel": 0}, {"type": "note_on", "time": 388, "note": 75, "velocity": 106, "channel": 0}, {"type": "note_off", "time": 882, "note": 75, "velocity": 106, "channel": 0}, {"type": "note_on", "time": 79, "note": 74, "velocity": 94, "channel": 0}, {"type": "note_off", "time": 657, "note": 74, "velocity": 94, "channel": 0}, {"type": "note_on", "time": 2036, "note": 70, "velocity": 101, "channel": 0}, {"type": "note_off", "time": 346, "note": 70, "velocity": 101, "channel": 0}, {"type": "note_on", "time": 0, "note": 71, "velocity": 102, "channel": 0}, {"type": "note_off", "time": 1140, "note": 71, "velocity": 102, "channel": 0}, {"type": "note_on", "time": 98, "note": 62, "velocity": 99, "channel": 0}, {"type": "note_off", "time": 247, "note": 62, "velocity": 99, "channel": 0}, {"type": "note_on", "time": 75, "note": 71, "velocity": 106, "channel": 0}, {"type": "note_off", "time": 453, "note": 71, "velocity": 106, "channel": 0}, {"type": "note_on", "time": 92, "note": 63, "velocity": 95, "channel": 0}, {"type": "note_off", "time": 210, "note": 63, "velocity": 95, "channel": 0}, {"type": "note_on", "time": 121, "note": 67, "velocity": 98, "channel": 0}, {"type": "note_off", "time": 382, "note": 67, "velocity": 98, "channel": 0}, {"type": "note_on", "time": 37, "note": 71, "velocity": 101, "channel": 0}, {"type": "note_off", "time": 193, "note": 71, "velocity": 101, "channel": 0}, {"type": "note_on", "time": 67, "note": 66, "velocity": 112, "channel": 0}, {"type": "note_off", "time": 323, "note": 66, "velocity": 112, "channel": 0}, {"type": "note_on", "time": 142, "note": 61, "velocity": 95, "channel": 0}, {"type": "note_off", "time": 201, "note": 61, "velocity": 95, "channel": 0}, {"type": "note_on", "time": 1255, "note": 61, "velocity": 103, "channel": 0}, {"type": "note_off", "time": 377, "note": 61, "velocity": 103, "channel": 0}, {"type": "note_on", "time": 50, "note": 66, "velocity": 99, "channel": 0}, {"type": "note_off", "time": 415, "note": 66, "velocity": 99, "channel": 0}, {"type": "note_on", "time": 344, "note": 70, "velocity": 104, "channel": 0}, {"type": "note_off", "time": 596, "note": 70, "velocity": 104, "channel": 0}, {"type": "note_on", "time": 92, "note": 62, "velocity": 102, "channel": 0}, {"type": "note_off", "time": 365, "note": 62, "velocity": 102, "channel": 0}, {"type": "note_on", "time": 71, "note": 61, "velocity": 103, "channel": 0}, {"type": "note_off", "time": 361, "note": 61, "velocity": 103, "channel": 0}, {"type": "note_on", "time": 46, "note": 60, "velocity": 104, "channel": 0}, {"type": "note_off", "time": 289, "note": 60, "velocity": 104, "channel": 0}, {"type": "note_on", "time": 25, "note": 59, "velocity": 95, "channel": 0}, {"type": "note_off", "time": 478, "note": 59, "velocity": 95, "channel": 0}, {"type": "note_on", "time": 1267, "note": 63, "velocity": 114, "channel": 0}, {"type": "note_off", "time": 445, "note": 63, "velocity": 114, "channel": 0}, {"type": "note_on", "time": 21, "note": 61, "velocity": 104, "channel": 0}, {"type": "note_off", "time": 415, "note": 61, "velocity": 104, "channel": 0}, {"type": "note_on", "time": 5, "note": 58, "velocity": 96, "channel": 0}, {"type": "note_off", "time": 262, "note": 58, "velocity": 96, "channel": 0}, {"type": "note_on", "time": 113, "note": 54, "velocity": 96, "channel": 0}, {"type": "note_off", "time": 310, "note": 54, "velocity": 96, "channel": 0}, {"type": "note_on", "time": 59, "note": 56, "velocity": 96, "channel": 0}, {"type": "note_off", "time": 364, "note": 56, "velocity": 96, "channel": 0}, {"type": "note_on", "time": 83, "note": 58, "velocity": 106, "channel": 0}, {"type": "note_off", "time": 334, "note": 58, "velocity": 106, "channel": 0}, {"type": "note_on", "time": 23, "note": 61, "velocity": 107, "channel": 0}, {"type": "note_off", "time": 346, "note": 61, "velocity": 107, "channel": 0}, {"type": "note_on", "time": 17, "note": 63, "velocity": 108, "channel": 0}, {"type": "note_off", "time": 268, "note": 63, "velocity": 108, "channel": 0}, {"type": "note_on", "time": 0, "note": 66, "velocity": 104, "channel": 0}, {"type": "note_off", "time": 447, "note": 66, "velocity": 104, "channel": 0}, {"type": "note_on", "time": 71, "note": 68, "velocity": 101, "channel": 0}, {"type": "note_off", "time": 244, "note": 68, "velocity": 101, "channel": 0}, {"type": "note_on", "time": 5, "note": 70, "velocity": 104, "channel": 0}, {"type": "note_off", "time": 519, "note": 70, "velocity": 104, "channel": 0}, {"type": "note_on", "time": 203, "note": 73, "velocity": 109, "channel": 0}, {"type": "note_off", "time": 161, "note": 73, "velocity": 109, "channel": 0}, {"type": "note_on", "time": 0, "note": 68, "velocity": 109, "channel": 0}, {"type": "note_off", "time": 585, "note": 68, "velocity": 109, "channel": 0}, {"type": "note_on", "time": 1200, "note": 68, "velocity": 112, "channel": 0}, {"type": "note_off", "time": 424, "note": 68, "velocity": 112, "channel": 0}, {"type": "note_on", "time": 5, "note": 67, "velocity": 105, "channel": 0}, {"type": "note_off", "time": 453, "note": 67, "velocity": 105, "channel": 0}, {"type": "note_on", "time": 41, "note": 66, "velocity": 100, "channel": 0}, {"type": "note_on", "time": 376, "note": 69, "velocity": 101, "channel": 0}, {"type": "note_off", "time": 0, "note": 66, "velocity": 100, "channel": 0}, {"type": "note_off", "time": 322, "note": 69, "velocity": 101, "channel": 0}, {"type": "note_on", "time": 155, "note": 64, "velocity": 110, "channel": 0}, {"type": "note_off", "time": 442, "note": 64, "velocity": 110, "channel": 0}, {"type": "note_on", "time": 17, "note": 62, "velocity": 104, "channel": 0}, {"type": "note_off", "time": 519, "note": 62, "velocity": 104, "channel": 0}, {"type": "note_on", "time": 10841, "note": 68, "velocity": 108, "channel": 0}, {"type": "note_off", "time": 304, "note": 68, "velocity": 108, "channel": 0}, {"type": "note_on", "time": 29, "note": 69, "velocity": 113, "channel": 0}, {"type": "note_off", "time": 770, "note": 69, "velocity": 113, "channel": 0}, {"type": "note_on", "time": 161, "note": 69, "velocity": 113, "channel": 0}, {"type": "note_off", "time": 418, "note": 69, "velocity": 113, "channel": 0}, {"type": "note_on", "time": 29, "note": 68, "velocity": 109, "channel": 0}, {"type": "note_off", "time": 322, "note": 68, "velocity": 109, "channel": 0}, {"type": "note_on", "time": 0, "note": 69, "velocity": 105, "channel": 0}, {"type": "note_off", "time": 1338, "note": 69, "velocity": 105, "channel": 0}, {"type": "note_on", "time": 41, "note": 67, "velocity": 108, "channel": 0}, {"type": "note_off", "time": 507, "note": 67, "velocity": 108, "channel": 0}, {"type": "note_on", "time": 328, "note": 69, "velocity": 106, "channel": 0}, {"type": "note_off", "time": 955, "note": 69, "velocity": 106, "channel": 0}, {"type": "note_on", "time": 1612, "note": 69, "velocity": 104, "channel": 0}, {"type": "note_off", "time": 573, "note": 69, "velocity": 104, "channel": 0}, {"type": "note_on", "time": 0, "note": 67, "velocity": 97, "channel": 0}, {"type": "note_off", "time": 316, "note": 67, "velocity": 97, "channel": 0}, {"type": "note_on", "time": 340, "note": 69, "velocity": 105, "channel": 0}, {"type": "note_off", "time": 2090, "note": 69, "velocity": 105, "channel": 0}, {"type": "note_on", "time": 5, "note": 65, "velocity": 108, "channel": 0}, {"type": "note_off", "time": 352, "note": 65, "velocity": 108, "channel": 0}, {"type": "note_on", "time": 11, "note": 62, "velocity": 111, "channel": 0}, {"type": "note_off", "time": 430, "note": 62, "velocity": 111, "channel": 0}, {"type": "note_on", "time": 2634, "note": 69, "velocity": 102, "channel": 0}, {"type": "note_off", "time": 639, "note": 69, "velocity": 102, "channel": 0}, {"type": "note_on", "time": 19, "note": 65, "velocity": 97, "channel": 0}, {"type": "note_off", "time": 370, "note": 65, "velocity": 97, "channel": 0}, {"type": "note_on", "time": 536, "note": 69, "velocity": 105, "channel": 0}, {"type": "note_off", "time": 1596, "note": 69, "velocity": 105, "channel": 0}, {"type": "note_on", "time": 58, "note": 67, "velocity": 101, "channel": 0}, {"type": "note_off", "time": 403, "note": 67, "velocity": 101, "channel": 0}, {"type": "note_on", "time": 25, "note": 69, "velocity": 104, "channel": 0}, {"type": "note_off", "time": 327, "note": 69, "velocity": 104, "channel": 0}, {"type": "note_on", "time": 630, "note": 69, "velocity": 101, "channel": 0}, {"type": "note_off", "time": 1948, "note": 69, "velocity": 101, "channel": 0}, {"type": "note_on", "time": 50, "note": 65, "velocity": 101, "channel": 0}, {"type": "note_off", "time": 411, "note": 65, "velocity": 101, "channel": 0}, {"type": "note_on", "time": 41, "note": 62, "velocity": 105, "channel": 0}, {"type": "note_off", "time": 571, "note": 62, "velocity": 105, "channel": 0}, {"type": "note_on", "time": 1908, "note": 69, "velocity": 103, "channel": 0}, {"type": "note_off", "time": 1266, "note": 69, "velocity": 103, "channel": 0}, {"type": "note_on", "time": 101, "note": 67, "velocity": 103, "channel": 0}, {"type": "note_off", "time": 322, "note": 67, "velocity": 103, "channel": 0}, {"type": "note_on", "time": 0, "note": 65, "velocity": 101, "channel": 0}, {"type": "note_off", "time": 197, "note": 65, "velocity": 101, "channel": 0}, {"type": "note_on", "time": 167, "note": 62, "velocity": 107, "channel": 0}, {"type": "note_off", "time": 477, "note": 62, "velocity": 107, "channel": 0}, {"type": "note_on", "time": 77, "note": 62, "velocity": 109, "channel": 0}, {"type": "note_off", "time": 310, "note": 62, "velocity": 109, "channel": 0}, {"type": "note_on", "time": 117, "note": 57, "velocity": 103, "channel": 0}, {"type": "note_off", "time": 316, "note": 57, "velocity": 103, "channel": 0}, {"type": "note_on", "time": 107, "note": 53, "velocity": 105, "channel": 0}, {"type": "note_off", "time": 239, "note": 53, "velocity": 105, "channel": 0}, {"type": "note_on", "time": 46, "note": 55, "velocity": 105, "channel": 0}, {"type": "note_off", "time": 399, "note": 55, "velocity": 105, "channel": 0}, {"type": "note_on", "time": 1312, "note": 55, "velocity": 103, "channel": 0}, {"type": "note_off", "time": 328, "note": 55, "velocity": 103, "channel": 0}, {"type": "note_on", "time": 29, "note": 57, "velocity": 108, "channel": 0}, {"type": "note_off", "time": 268, "note": 57, "velocity": 108, "channel": 0}, {"type": "note_on", "time": 0, "note": 59, "velocity": 106, "channel": 0}, {"type": "note_off", "time": 280, "note": 59, "velocity": 106, "channel": 0}, {"type": "note_on", "time": 53, "note": 60, "velocity": 104, "channel": 0}, {"type": "note_off", "time": 394, "note": 60, "velocity": 104, "channel": 0}, {"type": "note_on", "time": 59, "note": 62, "velocity": 113, "channel": 0}, {"type": "note_off", "time": 519, "note": 62, "velocity": 113, "channel": 0}, {"type": "note_on", "time": 1367, "note": 62, "velocity": 108, "channel": 0}, {"type": "note_off", "time": 453, "note": 62, "velocity": 108, "channel": 0}, {"type": "note_on", "time": 35, "note": 61, "velocity": 105, "channel": 0}, {"type": "note_off", "time": 262, "note": 61, "velocity": 105, "channel": 0}, {"type": "note_on", "time": 0, "note": 62, "velocity": 106, "channel": 0}, {"type": "note_off", "time": 400, "note": 62, "velocity": 106, "channel": 0}, {"type": "note_on", "time": 5, "note": 65, "velocity": 110, "channel": 0}, {"type": "note_off", "time": 280, "note": 65, "velocity": 110, "channel": 0}, {"type": "note_on", "time": 107, "note": 67, "velocity": 105, "channel": 0}, {"type": "note_off", "time": 310, "note": 67, "velocity": 105, "channel": 0}, {"type": "note_on", "time": 1457, "note": 67, "velocity": 114, "channel": 0}, {"type": "note_off", "time": 352, "note": 67, "velocity": 114, "channel": 0}, {"type": "note_on", "time": 95, "note": 66, "velocity": 112, "channel": 0}, {"type": "note_off", "time": 310, "note": 66, "velocity": 112, "channel": 0}, {"type": "note_on", "time": 71, "note": 67, "velocity": 107, "channel": 0}, {"type": "note_off", "time": 394, "note": 67, "velocity": 107, "channel": 0}, {"type": "note_on", "time": 203, "note": 74, "velocity": 108, "channel": 0}, {"type": "note_off", "time": 215, "note": 74, "velocity": 108, "channel": 0}, {"type": "note_on", "time": 17, "note": 69, "velocity": 107, "channel": 0}, {"type": "note_off", "time": 645, "note": 69, "velocity": 107, "channel": 0}, {"type": "note_on", "time": 1134, "note": 69, "velocity": 109, "channel": 0}, {"type": "note_off", "time": 376, "note": 69, "velocity": 109, "channel": 0}, {"type": "note_on", "time": 47, "note": 68, "velocity": 104, "channel": 0}, {"type": "note_off", "time": 268, "note": 68, "velocity": 104, "channel": 0}, {"type": "note_on", "time": 71, "note": 67, "velocity": 101, "channel": 0}, {"type": "note_off", "time": 209, "note": 67, "velocity": 101, "channel": 0}, {"type": "note_on", "time": 262, "note": 72, "velocity": 107, "channel": 0}, {"type": "note_off", "time": 209, "note": 72, "velocity": 107, "channel": 0}, {"type": "note_on", "time": 65, "note": 67, "velocity": 108, "channel": 0}, {"type": "note_off", "time": 495, "note": 67, "velocity": 108, "channel": 0}, {"type": "note_on", "time": 1296, "note": 67, "velocity": 110, "channel": 0}, {"type": "note_off", "time": 340, "note": 67, "velocity": 110, "channel": 0}, {"type": "note_on", "time": 47, "note": 66, "velocity": 108, "channel": 0}, {"type": "note_off", "time": 322, "note": 66, "velocity": 108, "channel": 0}, {"type": "note_on", "time": 113, "note": 67, "velocity": 99, "channel": 0}, {"type": "note_off", "time": 370, "note": 67, "velocity": 99, "channel": 0}, {"type": "note_on", "time": 0, "note": 71, "velocity": 108, "channel": 0}, {"type": "note_off", "time": 226, "note": 71, "velocity": 108, "channel": 0}, {"type": "note_on", "time": 83, "note": 65, "velocity": 95, "channel": 0}, {"type": "note_off", "time": 328, "note": 65, "velocity": 95, "channel": 0}, {"type": "note_on", "time": 1314, "note": 65, "velocity": 107, "channel": 0}, {"type": "note_off", "time": 364, "note": 65, "velocity": 107, "channel": 0}, {"type": "note_on", "time": 11, "note": 64, "velocity": 113, "channel": 0}, {"type": "note_off", "time": 364, "note": 64, "velocity": 113, "channel": 0}, {"type": "note_on", "time": 53, "note": 65, "velocity": 109, "channel": 0}, {"type": "note_off", "time": 376, "note": 65, "velocity": 109, "channel": 0}, {"type": "note_on", "time": 5, "note": 69, "velocity": 111, "channel": 0}, {"type": "note_off", "time": 256, "note": 69, "velocity": 111, "channel": 0}, {"type": "note_on", "time": 5, "note": 64, "velocity": 115, "channel": 0}, {"type": "note_off", "time": 376, "note": 64, "velocity": 115, "channel": 0}, {"type": "note_on", "time": 1248, "note": 64, "velocity": 115, "channel": 0}, {"type": "note_off", "time": 483, "note": 64, "velocity": 115, "channel": 0}, {"type": "note_on", "time": 59, "note": 63, "velocity": 112, "channel": 0}, {"type": "note_off", "time": 382, "note": 63, "velocity": 112, "channel": 0}, {"type": "note_on", "time": 59, "note": 64, "velocity": 104, "channel": 0}, {"type": "note_off", "time": 382, "note": 64, "velocity": 104, "channel": 0}, {"type": "note_on", "time": 23, "note": 67, "velocity": 106, "channel": 0}, {"type": "note_off", "time": 280, "note": 67, "velocity": 106, "channel": 0}, {"type": "note_on", "time": 83, "note": 62, "velocity": 105, "channel": 0}, {"type": "note_off", "time": 406, "note": 62, "velocity": 105, "channel": 0}, {"type": "note_on", "time": 1314, "note": 70, "velocity": 114, "channel": 0}, {"type": "note_off", "time": 370, "note": 70, "velocity": 114, "channel": 0}, {"type": "note_on", "time": 11, "note": 69, "velocity": 108, "channel": 0}, {"type": "note_off", "time": 328, "note": 69, "velocity": 108, "channel": 0}, {"type": "note_on", "time": 41, "note": 70, "velocity": 101, "channel": 0}, {"type": "note_off", "time": 436, "note": 70, "velocity": 101, "channel": 0}, {"type": "note_on", "time": 53, "note": 75, "velocity": 101, "channel": 0}, {"type": "note_off", "time": 244, "note": 75, "velocity": 101, "channel": 0}, {"type": "note_on", "time": 53, "note": 68, "velocity": 106, "channel": 0}, {"type": "note_off", "time": 525, "note": 68, "velocity": 106, "channel": 0}, {"type": "note_on", "time": 1140, "note": 68, "velocity": 109, "channel": 0}, {"type": "note_off", "time": 382, "note": 68, "velocity": 109, "channel": 0}, {"type": "note_on", "time": 41, "note": 67, "velocity": 106, "channel": 0}, {"type": "note_off", "time": 352, "note": 67, "velocity": 106, "channel": 0}, {"type": "note_on", "time": 0, "note": 68, "velocity": 105, "channel": 0}, {"type": "note_off", "time": 358, "note": 68, "velocity": 105, "channel": 0}, {"type": "note_on", "time": 95, "note": 72, "velocity": 105, "channel": 0}, {"type": "note_off", "time": 274, "note": 72, "velocity": 105, "channel": 0}, {"type": "note_on", "time": 41, "note": 66, "velocity": 101, "channel": 0}, {"type": "note_off", "time": 495, "note": 66, "velocity": 101, "channel": 0}, {"type": "note_on", "time": 1332, "note": 66, "velocity": 105, "channel": 0}, {"type": "note_off", "time": 519, "note": 66, "velocity": 105, "channel": 0}, {"type": "note_on", "time": 107, "note": 67, "velocity": 101, "channel": 0}, {"type": "note_off", "time": 280, "note": 67, "velocity": 101, "channel": 0}, {"type": "note_on", "time": 292, "note": 71, "velocity": 102, "channel": 0}, {"type": "note_off", "time": 215, "note": 71, "velocity": 102, "channel": 0}, {"type": "note_on", "time": 41, "note": 65, "velocity": 96, "channel": 0}, {"type": "note_off", "time": 525, "note": 65, "velocity": 96, "channel": 0}, {"type": "note_on", "time": 836, "note": 65, "velocity": 110, "channel": 0}, {"type": "note_off", "time": 412, "note": 65, "velocity": 110, "channel": 0}, {"type": "note_on", "time": 0, "note": 64, "velocity": 110, "channel": 0}, {"type": "note_off", "time": 507, "note": 64, "velocity": 110, "channel": 0}, {"type": "note_on", "time": 71, "note": 69, "velocity": 111, "channel": 0}, {"type": "note_off", "time": 256, "note": 69, "velocity": 111, "channel": 0}, {"type": "note_on", "time": 83, "note": 63, "velocity": 94, "channel": 0}, {"type": "note_off", "time": 507, "note": 63, "velocity": 94, "channel": 0}, {"type": "note_on", "time": 818, "note": 63, "velocity": 118, "channel": 0}, {"type": "note_off", "time": 633, "note": 63, "velocity": 118, "channel": 0}, {"type": "note_on", "time": 0, "note": 68, "velocity": 107, "channel": 0}, {"type": "note_off", "time": 119, "note": 68, "velocity": 107, "channel": 0}, {"type": "note_on", "time": 47, "note": 68, "velocity": 100, "channel": 0}, {"type": "note_off", "time": 262, "note": 68, "velocity": 100, "channel": 0}, {"type": "note_on", "time": 65, "note": 61, "velocity": 104, "channel": 0}, {"type": "note_off", "time": 483, "note": 61, "velocity": 104, "channel": 0}, {"type": "note_on", "time": 1099, "note": 61, "velocity": 109, "channel": 0}, {"type": "note_off", "time": 346, "note": 61, "velocity": 109, "channel": 0}, {"type": "note_on", "time": 77, "note": 69, "velocity": 99, "channel": 0}, {"type": "note_off", "time": 125, "note": 69, "velocity": 99, "channel": 0}, {"type": "note_on", "time": 47, "note": 69, "velocity": 100, "channel": 0}, {"type": "note_off", "time": 107, "note": 69, "velocity": 100, "channel": 0}, {"type": "note_on", "time": 77, "note": 66, "velocity": 106, "channel": 0}, {"type": "note_off", "time": 477, "note": 66, "velocity": 106, "channel": 0}, {"type": "note_on", "time": 1290, "note": 60, "velocity": 101, "channel": 0}, {"type": "note_off", "time": 376, "note": 60, "velocity": 101, "channel": 0}, {"type": "note_on", "time": 17, "note": 65, "velocity": 109, "channel": 0}, {"type": "note_off", "time": 286, "note": 65, "velocity": 109, "channel": 0}, {"type": "note_on", "time": 35, "note": 69, "velocity": 106, "channel": 0}, {"type": "note_off", "time": 412, "note": 69, "velocity": 106, "channel": 0}, {"type": "note_on", "time": 1302, "note": 58, "velocity": 106, "channel": 0}, {"type": "note_off", "time": 346, "note": 58, "velocity": 106, "channel": 0}, {"type": "note_on", "time": 83, "note": 63, "velocity": 110, "channel": 0}, {"type": "note_off", "time": 519, "note": 63, "velocity": 110, "channel": 0}, {"type": "note_on", "time": 1493, "note": 56, "velocity": 106, "channel": 0}, {"type": "note_off", "time": 364, "note": 56, "velocity": 106, "channel": 0}, {"type": "note_on", "time": 107, "note": 60, "velocity": 106, "channel": 0}, {"type": "note_off", "time": 250, "note": 60, "velocity": 106, "channel": 0}, {"type": "note_on", "time": 59, "note": 54, "velocity": 106, "channel": 0}, {"type": "note_off", "time": 310, "note": 54, "velocity": 106, "channel": 0}, {"type": "note_on", "time": 1415, "note": 54, "velocity": 110, "channel": 0}, {"type": "note_off", "time": 328, "note": 54, "velocity": 110, "channel": 0}, {"type": "note_on", "time": 89, "note": 58, "velocity": 103, "channel": 0}, {"type": "note_off", "time": 250, "note": 58, "velocity": 103, "channel": 0}, {"type": "note_on", "time": 0, "note": 63, "velocity": 110, "channel": 0}, {"type": "note_off", "time": 215, "note": 63, "velocity": 110, "channel": 0}, {"type": "note_on", "time": 5, "note": 62, "velocity": 106, "channel": 0}, {"type": "note_off", "time": 161, "note": 62, "velocity": 106, "channel": 0}, {"type": "note_on", "time": 824, "note": 69, "velocity": 106, "channel": 0}, {"type": "note_off", "time": 448, "note": 69, "velocity": 106, "channel": 0}, {"type": "note_on", "time": 0, "note": 68, "velocity": 101, "channel": 0}, {"type": "note_off", "time": 382, "note": 68, "velocity": 101, "channel": 0}, {"type": "note_on", "time": 95, "note": 74, "velocity": 97, "channel": 0}, {"type": "note_off", "time": 179, "note": 74, "velocity": 97, "channel": 0}, {"type": "note_on", "time": 89, "note": 74, "velocity": 94, "channel": 0}, {"type": "note_off", "time": 250, "note": 74, "velocity": 94, "channel": 0}, {"type": "note_on", "time": 17, "note": 67, "velocity": 110, "channel": 0}, {"type": "note_off", "time": 459, "note": 67, "velocity": 110, "channel": 0}, {"type": "note_on", "time": 1248, "note": 67, "velocity": 109, "channel": 0}, {"type": "note_off", "time": 412, "note": 67, "velocity": 109, "channel": 0}, {"type": "note_on", "time": 53, "note": 66, "velocity": 101, "channel": 0}, {"type": "note_off", "time": 382, "note": 66, "velocity": 101, "channel": 0}, {"type": "note_on", "time": 0, "note": 67, "velocity": 101, "channel": 0}, {"type": "note_off", "time": 268, "note": 67, "velocity": 101, "channel": 0}, {"type": "note_on", "time": 161, "note": 71, "velocity": 110, "channel": 0}, {"type": "note_off", "time": 286, "note": 71, "velocity": 110, "channel": 0}, {"type": "note_on", "time": 23, "note": 65, "velocity": 107, "channel": 0}, {"type": "note_off", "time": 376, "note": 65, "velocity": 107, "channel": 0}, {"type": "note_on", "time": 1075, "note": 69, "velocity": 112, "channel": 0}, {"type": "note_off", "time": 298, "note": 69, "velocity": 112, "channel": 0}, {"type": "note_on", "time": 0, "note": 64, "velocity": 108, "channel": 0}, {"type": "note_off", "time": 424, "note": 64, "velocity": 108, "channel": 0}, {"type": "note_on", "time": 907, "note": 67, "velocity": 107, "channel": 0}, {"type": "note_off", "time": 286, "note": 67, "velocity": 107, "channel": 0}, {"type": "note_on", "time": 17, "note": 62, "velocity": 98, "channel": 0}, {"type": "note_off", "time": 477, "note": 62, "velocity": 98, "channel": 0}, {"type": "note_on", "time": 1093, "note": 65, "velocity": 101, "channel": 0}, {"type": "note_off", "time": 232, "note": 65, "velocity": 101, "channel": 0}, {"type": "note_on", "time": 29, "note": 60, "velocity": 102, "channel": 0}, {"type": "note_off", "time": 442, "note": 60, "velocity": 102, "channel": 0}, {"type": "note_on", "time": 0, "note": 64, "velocity": 106, "channel": 0}, {"type": "note_off", "time": 310, "note": 64, "velocity": 106, "channel": 0}, {"type": "note_on", "time": 5, "note": 69, "velocity": 98, "channel": 0}, {"type": "note_off", "time": 197, "note": 69, "velocity": 98, "channel": 0}, {"type": "note_on", "time": 1188, "note": 59, "velocity": 100, "channel": 0}, {"type": "note_off", "time": 256, "note": 59, "velocity": 100, "channel": 0}, {"type": "note_on", "time": 95, "note": 59, "velocity": 96, "channel": 0}, {"type": "note_off", "time": 424, "note": 59, "velocity": 96, "channel": 0}, {"type": "note_on", "time": 107, "note": 64, "velocity": 107, "channel": 0}, {"type": "note_off", "time": 310, "note": 64, "velocity": 107, "channel": 0}, {"type": "note_on", "time": 149, "note": 68, "velocity": 96, "channel": 0}, {"type": "note_off", "time": 209, "note": 68, "velocity": 96, "channel": 0}, {"type": "note_on", "time": 955, "note": 60, "velocity": 104, "channel": 0}, {"type": "note_off", "time": 268, "note": 60, "velocity": 104, "channel": 0}, {"type": "note_on", "time": 53, "note": 55, "velocity": 105, "channel": 0}, {"type": "note_off", "time": 209, "note": 55, "velocity": 105, "channel": 0}, {"type": "note_on", "time": 268, "note": 53, "velocity": 99, "channel": 0}, {"type": "note_off", "time": 203, "note": 53, "velocity": 99, "channel": 0}, {"type": "note_on", "time": 537, "note": 59, "velocity": 98, "channel": 0}, {"type": "note_off", "time": 250, "note": 59, "velocity": 98, "channel": 0}, {"type": "note_on", "time": 65, "note": 53, "velocity": 105, "channel": 0}, {"type": "note_off", "time": 244, "note": 53, "velocity": 105, "channel": 0}, {"type": "note_on", "time": 119, "note": 57, "velocity": 98, "channel": 0}, {"type": "note_off", "time": 316, "note": 57, "velocity": 98, "channel": 0}, {"type": "note_on", "time": 0, "note": 52, "velocity": 99, "channel": 0}, {"type": "note_off", "time": 388, "note": 52, "velocity": 99, "channel": 0}, {"type": "note_on", "time": 6447, "note": 66, "velocity": 103, "channel": 0}, {"type": "note_off", "time": 504, "note": 66, "velocity": 103, "channel": 0}, {"type": "note_on", "time": 50, "note": 67, "velocity": 104, "channel": 0}, {"type": "note_off", "time": 1537, "note": 67, "velocity": 104, "channel": 0}, {"type": "note_on", "time": 83, "note": 66, "velocity": 106, "channel": 0}, {"type": "note_off", "time": 252, "note": 66, "velocity": 106, "channel": 0}, {"type": "note_on", "time": 25, "note": 67, "velocity": 107, "channel": 0}, {"type": "note_off", "time": 579, "note": 67, "velocity": 107, "channel": 0}, {"type": "note_on", "time": 42, "note": 61, "velocity": 107, "channel": 0}, {"type": "note_off", "time": 512, "note": 61, "velocity": 107, "channel": 0}, {"type": "note_on", "time": 50, "note": 60, "velocity": 106, "channel": 0}, {"type": "note_off", "time": 193, "note": 60, "velocity": 106, "channel": 0}, {"type": "note_on", "time": 0, "note": 59, "velocity": 94, "channel": 0}, {"type": "note_off", "time": 67, "note": 59, "velocity": 94, "channel": 0}, {"type": "note_on", "time": 41, "note": 58, "velocity": 118, "channel": 0}, {"type": "note_off", "time": 50, "note": 58, "velocity": 118, "channel": 0}, {"type": "note_on", "time": 25, "note": 57, "velocity": 100, "channel": 0}, {"type": "note_off", "time": 260, "note": 57, "velocity": 100, "channel": 0}, {"type": "note_on", "time": 2839, "note": 65, "velocity": 101, "channel": 0}, {"type": "note_off", "time": 1738, "note": 65, "velocity": 101, "channel": 0}, {"type": "note_on", "time": 25, "note": 62, "velocity": 107, "channel": 0}, {"type": "note_off", "time": 445, "note": 62, "velocity": 107, "channel": 0}, {"type": "note_on", "time": 67, "note": 57, "velocity": 96, "channel": 0}, {"type": "note_off", "time": 344, "note": 57, "velocity": 96, "channel": 0}, {"type": "note_on", "time": 7131, "note": 67, "velocity": 97, "channel": 0}, {"type": "note_off", "time": 714, "note": 67, "velocity": 97, "channel": 0}, {"type": "note_on", "time": 58, "note": 65, "velocity": 99, "channel": 0}, {"type": "note_off", "time": 377, "note": 65, "velocity": 99, "channel": 0}, {"type": "note_on", "time": 139, "note": 67, "velocity": 95, "channel": 0}, {"type": "note_off", "time": 1481, "note": 67, "velocity": 95, "channel": 0}, {"type": "note_on", "time": 83, "note": 65, "velocity": 97, "channel": 0}, {"type": "note_off", "time": 394, "note": 65, "velocity": 97, "channel": 0}, {"type": "note_on", "time": 11, "note": 67, "velocity": 99, "channel": 0}, {"type": "note_off", "time": 322, "note": 67, "velocity": 99, "channel": 0}, {"type": "note_on", "time": 59, "note": 69, "velocity": 9, "channel": 0}, {"type": "note_off", "time": 1302, "note": 69, "velocity": 9, "channel": 0}, {"type": "note_on", "time": 71, "note": 65, "velocity": 102, "channel": 0}, {"type": "note_off", "time": 1672, "note": 65, "velocity": 102, "channel": 0}, {"type": "note_on", "time": 71, "note": 62, "velocity": 99, "channel": 0}, {"type": "note_off", "time": 334, "note": 62, "velocity": 99, "channel": 0}, {"type": "note_on", "time": 513, "note": 62, "velocity": 100, "channel": 0}, {"type": "note_off", "time": 489, "note": 62, "velocity": 100, "channel": 0}, {"type": "note_on", "time": 4360, "note": 62, "velocity": 103, "channel": 0}, {"type": "note_off", "time": 366, "note": 62, "velocity": 103, "channel": 0}, {"type": "note_on", "time": 0, "note": 65, "velocity": 103, "channel": 0}, {"type": "note_off", "time": 268, "note": 65, "velocity": 103, "channel": 0}, {"type": "note_on", "time": 25, "note": 67, "velocity": 102, "channel": 0}, {"type": "note_off", "time": 1150, "note": 67, "velocity": 102, "channel": 0}, {"type": "note_on", "time": 42, "note": 69, "velocity": 98, "channel": 0}, {"type": "note_off", "time": 201, "note": 69, "velocity": 98, "channel": 0}, {"type": "note_on", "time": 16, "note": 63, "velocity": 113, "channel": 0}, {"type": "note_off", "time": 495, "note": 63, "velocity": 113, "channel": 0}, {"type": "note_on", "time": 0, "note": 62, "velocity": 110, "channel": 0}, {"type": "note_off", "time": 352, "note": 62, "velocity": 110, "channel": 0}, {"type": "note_on", "time": 16, "note": 61, "velocity": 105, "channel": 0}, {"type": "note_off", "time": 361, "note": 61, "velocity": 105, "channel": 0}, {"type": "note_on", "time": 210, "note": 65, "velocity": 103, "channel": 0}, {"type": "note_off", "time": 294, "note": 65, "velocity": 103, "channel": 0}, {"type": "note_on", "time": 0, "note": 60, "velocity": 99, "channel": 0}, {"type": "note_off", "time": 369, "note": 60, "velocity": 99, "channel": 0}, {"type": "note_on", "time": 58, "note": 63, "velocity": 109, "channel": 0}, {"type": "note_off", "time": 462, "note": 63, "velocity": 109, "channel": 0}, {"type": "note_on", "time": 50, "note": 68, "velocity": 104, "channel": 0}, {"type": "note_off", "time": 310, "note": 68, "velocity": 104, "channel": 0}, {"type": "note_on", "time": 92, "note": 72, "velocity": 105, "channel": 0}, {"type": "note_off", "time": 176, "note": 72, "velocity": 105, "channel": 0}, {"type": "note_on", "time": 33, "note": 75, "velocity": 102, "channel": 0}, {"type": "note_off", "time": 562, "note": 75, "velocity": 102, "channel": 0}, {"type": "note_on", "time": 1234, "note": 64, "velocity": 117, "channel": 0}, {"type": "note_off", "time": 487, "note": 64, "velocity": 117, "channel": 0}, {"type": "note_on", "time": 50, "note": 66, "velocity": 106, "channel": 0}, {"type": "note_off", "time": 369, "note": 66, "velocity": 106, "channel": 0}, {"type": "note_on", "time": 0, "note": 68, "velocity": 98, "channel": 0}, {"type": "note_off", "time": 327, "note": 68, "velocity": 98, "channel": 0}, {"type": "note_on", "time": 42, "note": 70, "velocity": 101, "channel": 0}, {"type": "note_off", "time": 403, "note": 70, "velocity": 101, "channel": 0}, {"type": "note_on", "time": 16, "note": 66, "velocity": 99, "channel": 0}, {"type": "note_off", "time": 411, "note": 66, "velocity": 99, "channel": 0}, {"type": "note_on", "time": 58, "note": 61, "velocity": 98, "channel": 0}, {"type": "note_off", "time": 285, "note": 61, "velocity": 98, "channel": 0}, {"type": "note_on", "time": 0, "note": 59, "velocity": 102, "channel": 0}, {"type": "note_off", "time": 411, "note": 59, "velocity": 102, "channel": 0}, {"type": "note_on", "time": 58, "note": 58, "velocity": 103, "channel": 0}, {"type": "note_off", "time": 327, "note": 58, "velocity": 103, "channel": 0}, {"type": "note_on", "time": 50, "note": 57, "velocity": 101, "channel": 0}, {"type": "note_off", "time": 361, "note": 57, "velocity": 101, "channel": 0}, {"type": "note_on", "time": 126, "note": 56, "velocity": 102, "channel": 0}, {"type": "note_off", "time": 453, "note": 56, "velocity": 102, "channel": 0}, {"type": "note_on", "time": 42, "note": 55, "velocity": 97, "channel": 0}, {"type": "note_off", "time": 277, "note": 55, "velocity": 97, "channel": 0}, {"type": "note_on", "time": 109, "note": 59, "velocity": 105, "channel": 0}, {"type": "note_off", "time": 277, "note": 59, "velocity": 105, "channel": 0}, {"type": "note_on", "time": 58, "note": 57, "velocity": 104, "channel": 0}, {"type": "note_off", "time": 420, "note": 57, "velocity": 104, "channel": 0}, {"type": "note_on", "time": 84, "note": 53, "velocity": 105, "channel": 0}, {"type": "note_off", "time": 293, "note": 53, "velocity": 105, "channel": 0}, {"type": "note_on", "time": 0, "note": 50, "velocity": 102, "channel": 0}, {"type": "note_off", "time": 302, "note": 50, "velocity": 102, "channel": 0}, {"type": "note_on", "time": 8, "note": 53, "velocity": 96, "channel": 0}, {"type": "note_off", "time": 369, "note": 53, "velocity": 96, "channel": 0}, {"type": "note_on", "time": 40, "note": 44, "velocity": 107, "channel": 0}, {"type": "note_off", "time": 596, "note": 44, "velocity": 107, "channel": 0}, {"type": "note_on", "time": 2892, "note": 45, "velocity": 109, "channel": 0}, {"type": "note_off", "time": 512, "note": 45, "velocity": 109, "channel": 0}, {"type": "note_on", "time": 407, "note": 48, "velocity": 103, "channel": 0}, {"type": "note_off", "time": 327, "note": 48, "velocity": 103, "channel": 0}, {"type": "note_on", "time": 70, "note": 66, "velocity": 101, "channel": 0}, {"type": "note_off", "time": 285, "note": 66, "velocity": 101, "channel": 0}, {"type": "note_on", "time": 25, "note": 66, "velocity": 107, "channel": 0}, {"type": "note_off", "time": 546, "note": 66, "velocity": 107, "channel": 0}, {"type": "note_on", "time": 33, "note": 60, "velocity": 102, "channel": 0}, {"type": "note_off", "time": 226, "note": 60, "velocity": 102, "channel": 0}, {"type": "note_on", "time": 84, "note": 66, "velocity": 90, "channel": 0}, {"type": "note_off", "time": 243, "note": 66, "velocity": 90, "channel": 0}, {"type": "note_on", "time": 100, "note": 65, "velocity": 102, "channel": 0}, {"type": "note_off", "time": 411, "note": 65, "velocity": 102, "channel": 0}, {"type": "note_on", "time": 42, "note": 65, "velocity": 96, "channel": 0}, {"type": "note_off", "time": 403, "note": 65, "velocity": 96, "channel": 0}, {"type": "note_on", "time": 2085, "note": 45, "velocity": 103, "channel": 0}, {"type": "note_off", "time": 503, "note": 45, "velocity": 103, "channel": 0}, {"type": "note_on", "time": 117, "note": 53, "velocity": 99, "channel": 0}, {"type": "note_off", "time": 179, "note": 53, "velocity": 99, "channel": 0}, {"type": "note_on", "time": 59, "note": 50, "velocity": 104, "channel": 0}, {"type": "note_off", "time": 436, "note": 50, "velocity": 104, "channel": 0}, {"type": "note_on", "time": 89, "note": 53, "velocity": 110, "channel": 0}, {"type": "note_off", "time": 250, "note": 53, "velocity": 110, "channel": 0}, {"type": "note_on", "time": 173, "note": 57, "velocity": 108, "channel": 0}, {"type": "note_off", "time": 376, "note": 57, "velocity": 108, "channel": 0}, {"type": "note_on", "time": 238, "note": 45, "velocity": 118, "channel": 0}, {"type": "note_off", "time": 346, "note": 45, "velocity": 118, "channel": 0}, {"type": "note_on", "time": 23, "note": 45, "velocity": 107, "channel": 0}, {"type": "note_off", "time": 250, "note": 45, "velocity": 107, "channel": 0}, {"type": "note_on", "time": 1570, "note": 55, "velocity": 99, "channel": 0}, {"type": "note_off", "time": 334, "note": 55, "velocity": 99, "channel": 0}, {"type": "note_on", "time": 173, "note": 44, "velocity": 107, "channel": 0}, {"type": "note_off", "time": 836, "note": 44, "velocity": 107, "channel": 0}, {"type": "note_on", "time": 1284, "note": 53, "velocity": 100, "channel": 0}, {"type": "note_off", "time": 125, "note": 53, "velocity": 100, "channel": 0}, {"type": "note_on", "time": 29, "note": 46, "velocity": 106, "channel": 0}, {"type": "note_off", "time": 579, "note": 46, "velocity": 106, "channel": 0}, {"type": "note_on", "time": 734, "note": 55, "velocity": 97, "channel": 0}, {"type": "note_off", "time": 274, "note": 55, "velocity": 97, "channel": 0}, {"type": "note_on", "time": 83, "note": 48, "velocity": 101, "channel": 0}, {"type": "note_off", "time": 376, "note": 48, "velocity": 101, "channel": 0}, {"type": "note_on", "time": 728, "note": 55, "velocity": 102, "channel": 0}, {"type": "note_off", "time": 286, "note": 55, "velocity": 102, "channel": 0}, {"type": "note_on", "time": 59, "note": 51, "velocity": 103, "channel": 0}, {"type": "note_off", "time": 286, "note": 51, "velocity": 103, "channel": 0}, {"type": "note_on", "time": 1099, "note": 57, "velocity": 103, "channel": 0}, {"type": "note_off", "time": 191, "note": 57, "velocity": 103, "channel": 0}, {"type": "note_on", "time": 107, "note": 54, "velocity": 100, "channel": 0}, {"type": "note_off", "time": 316, "note": 54, "velocity": 100, "channel": 0}, {"type": "note_on", "time": 1051, "note": 56, "velocity": 95, "channel": 0}, {"type": "note_off", "time": 244, "note": 56, "velocity": 95, "channel": 0}, {"type": "note_on", "time": 17, "note": 54, "velocity": 95, "channel": 0}, {"type": "note_off", "time": 394, "note": 54, "velocity": 95, "channel": 0}, {"type": "note_on", "time": 1063, "note": 58, "velocity": 96, "channel": 0}, {"type": "note_off", "time": 221, "note": 58, "velocity": 96, "channel": 0}, {"type": "note_on", "time": 65, "note": 51, "velocity": 104, "channel": 0}, {"type": "note_off", "time": 418, "note": 51, "velocity": 104, "channel": 0}, {"type": "note_on", "time": 955, "note": 57, "velocity": 97, "channel": 0}, {"type": "note_off", "time": 203, "note": 57, "velocity": 97, "channel": 0}, {"type": "note_on", "time": 89, "note": 50, "velocity": 107, "channel": 0}, {"type": "note_off", "time": 328, "note": 50, "velocity": 107, "channel": 0}, {"type": "note_on", "time": 1003, "note": 55, "velocity": 112, "channel": 0}, {"type": "note_off", "time": 185, "note": 55, "velocity": 112, "channel": 0}, {"type": "note_on", "time": 107, "note": 48, "velocity": 103, "channel": 0}, {"type": "note_off", "time": 495, "note": 48, "velocity": 103, "channel": 0}, {"type": "note_on", "time": 95, "note": 53, "velocity": 100, "channel": 0}, {"type": "note_off", "time": 244, "note": 53, "velocity": 100, "channel": 0}, {"type": "note_on", "time": 95, "note": 56, "velocity": 103, "channel": 0}, {"type": "note_off", "time": 280, "note": 56, "velocity": 103, "channel": 0}, {"type": "note_on", "time": 17, "note": 54, "velocity": 102, "channel": 0}, {"type": "note_off", "time": 448, "note": 54, "velocity": 102, "channel": 0}, {"type": "note_on", "time": 71, "note": 58, "velocity": 106, "channel": 0}, {"type": "note_off", "time": 382, "note": 58, "velocity": 106, "channel": 0}, {"type": "note_on", "time": 1200, "note": 46, "velocity": 105, "channel": 0}, {"type": "note_off", "time": 382, "note": 46, "velocity": 105, "channel": 0}, {"type": "note_on", "time": 77, "note": 56, "velocity": 105, "channel": 0}, {"type": "note_off", "time": 185, "note": 56, "velocity": 105, "channel": 0}, {"type": "note_on", "time": 221, "note": 50, "velocity": 101, "channel": 0}, {"type": "note_off", "time": 430, "note": 50, "velocity": 101, "channel": 0}, {"type": "note_on", "time": 101, "note": 55, "velocity": 102, "channel": 0}, {"type": "note_off", "time": 322, "note": 55, "velocity": 102, "channel": 0}, {"type": "note_on", "time": 17, "note": 51, "velocity": 105, "channel": 0}, {"type": "note_off", "time": 424, "note": 51, "velocity": 105, "channel": 0}, {"type": "note_on", "time": 29, "note": 54, "velocity": 99, "channel": 0}, {"type": "note_off", "time": 256, "note": 54, "velocity": 99, "channel": 0}, {"type": "note_on", "time": 35, "note": 56, "velocity": 106, "channel": 0}, {"type": "note_off", "time": 191, "note": 56, "velocity": 106, "channel": 0}, {"type": "note_on", "time": 89, "note": 66, "velocity": 108, "channel": 0}, {"type": "note_off", "time": 495, "note": 66, "velocity": 108, "channel": 0}, {"type": "note_on", "time": 83, "note": 70, "velocity": 102, "channel": 0}, {"type": "note_off", "time": 316, "note": 70, "velocity": 102, "channel": 0}, {"type": "note_on", "time": 1308, "note": 61, "velocity": 109, "channel": 0}, {"type": "note_off", "time": 382, "note": 61, "velocity": 109, "channel": 0}, {"type": "note_on", "time": 47, "note": 66, "velocity": 101, "channel": 0}, {"type": "note_off", "time": 364, "note": 66, "velocity": 101, "channel": 0}, {"type": "note_on", "time": 0, "note": 70, "velocity": 98, "channel": 0}, {"type": "note_off", "time": 603, "note": 70, "velocity": 98, "channel": 0}, {"type": "note_on", "time": 119, "note": 65, "velocity": 106, "channel": 0}, {"type": "note_off", "time": 627, "note": 65, "velocity": 106, "channel": 0}, {"type": "note_on", "time": 782, "note": 54, "velocity": 106, "channel": 0}, {"type": "note_off", "time": 250, "note": 54, "velocity": 106, "channel": 0}, {"type": "note_on", "time": 95, "note": 48, "velocity": 102, "channel": 0}, {"type": "note_off", "time": 448, "note": 48, "velocity": 102, "channel": 0}, {"type": "note_on", "time": 716, "note": 54, "velocity": 102, "channel": 0}, {"type": "note_off", "time": 334, "note": 54, "velocity": 102, "channel": 0}, {"type": "note_on", "time": 53, "note": 49, "velocity": 113, "channel": 0}, {"type": "note_off", "time": 286, "note": 49, "velocity": 113, "channel": 0}, {"type": "note_on", "time": 0, "note": 50, "velocity": 109, "channel": 0}, {"type": "note_off", "time": 185, "note": 50, "velocity": 109, "channel": 0}, {"type": "note_on", "time": 107, "note": 53, "velocity": 110, "channel": 0}, {"type": "note_off", "time": 221, "note": 53, "velocity": 110, "channel": 0}, {"type": "note_on", "time": 47, "note": 57, "velocity": 105, "channel": 0}, {"type": "note_off", "time": 322, "note": 57, "velocity": 105, "channel": 0}, {"type": "note_on", "time": 17, "note": 58, "velocity": 106, "channel": 0}, {"type": "note_off", "time": 209, "note": 58, "velocity": 106, "channel": 0}, {"type": "note_on", "time": 17, "note": 57, "velocity": 105, "channel": 0}, {"type": "note_off", "time": 101, "note": 57, "velocity": 105, "channel": 0}, {"type": "note_on", "time": 83, "note": 53, "velocity": 103, "channel": 0}, {"type": "note_off", "time": 322, "note": 53, "velocity": 103, "channel": 0}, {"type": "note_on", "time": 1421, "note": 52, "velocity": 105, "channel": 0}, {"type": "note_off", "time": 406, "note": 52, "velocity": 105, "channel": 0}, {"type": "note_on", "time": 513, "note": 54, "velocity": 105, "channel": 0}, {"type": "note_off", "time": 412, "note": 54, "velocity": 105, "channel": 0}, {"type": "note_on", "time": 35, "note": 58, "velocity": 99, "channel": 0}, {"type": "note_off", "time": 191, "note": 58, "velocity": 99, "channel": 0}, {"type": "note_on", "time": 143, "note": 52, "velocity": 106, "channel": 0}, {"type": "note_off", "time": 501, "note": 52, "velocity": 106, "channel": 0}, {"type": "note_on", "time": 89, "note": 55, "velocity": 101, "channel": 0}, {"type": "note_off", "time": 256, "note": 55, "velocity": 101, "channel": 0}, {"type": "note_on", "time": 11, "note": 57, "velocity": 97, "channel": 0}, {"type": "note_off", "time": 328, "note": 57, "velocity": 97, "channel": 0}, {"type": "note_on", "time": 137, "note": 60, "velocity": 103, "channel": 0}, {"type": "note_off", "time": 418, "note": 60, "velocity": 103, "channel": 0}, {"type": "note_on", "time": 0, "note": 57, "velocity": 104, "channel": 0}, {"type": "note_off", "time": 382, "note": 57, "velocity": 104, "channel": 0}, {"type": "note_on", "time": 0, "note": 60, "velocity": 107, "channel": 0}, {"type": "note_off", "time": 471, "note": 60, "velocity": 107, "channel": 0}, {"type": "note_on", "time": 65, "note": 62, "velocity": 110, "channel": 0}, {"type": "note_off", "time": 364, "note": 62, "velocity": 110, "channel": 0}, {"type": "note_on", "time": 71, "note": 67, "velocity": 113, "channel": 0}, {"type": "note_off", "time": 346, "note": 67, "velocity": 113, "channel": 0}, {"type": "note_on", "time": 77, "note": 60, "velocity": 111, "channel": 0}, {"type": "note_off", "time": 376, "note": 60, "velocity": 111, "channel": 0}, {"type": "note_on", "time": 5, "note": 65, "velocity": 110, "channel": 0}, {"type": "note_off", "time": 238, "note": 65, "velocity": 110, "channel": 0}, {"type": "note_on", "time": 11, "note": 69, "velocity": 112, "channel": 0}, {"type": "note_off", "time": 418, "note": 69, "velocity": 112, "channel": 0}, {"type": "note_on", "time": 23, "note": 71, "velocity": 112, "channel": 0}, {"type": "note_off", "time": 286, "note": 71, "velocity": 112, "channel": 0}, {"type": "note_on", "time": 17, "note": 62, "velocity": 106, "channel": 0}, {"type": "note_off", "time": 358, "note": 62, "velocity": 106, "channel": 0}, {"type": "note_on", "time": 4264, "note": 68, "velocity": 103, "channel": 0}, {"type": "note_off", "time": 322, "note": 68, "velocity": 103, "channel": 0}, {"type": "note_on", "time": 0, "note": 69, "velocity": 104, "channel": 0}, {"type": "note_off", "time": 1541, "note": 69, "velocity": 104, "channel": 0}, {"type": "note_on", "time": 95, "note": 69, "velocity": 115, "channel": 0}, {"type": "note_off", "time": 453, "note": 69, "velocity": 115, "channel": 0}, {"type": "note_on", "time": 83, "note": 67, "velocity": 113, "channel": 0}, {"type": "note_off", "time": 394, "note": 67, "velocity": 113, "channel": 0}, {"type": "note_on", "time": 23, "note": 65, "velocity": 115, "channel": 0}, {"type": "note_off", "time": 167, "note": 65, "velocity": 115, "channel": 0}, {"type": "note_on", "time": 71, "note": 62, "velocity": 114, "channel": 0}, {"type": "note_off", "time": 800, "note": 62, "velocity": 114, "channel": 0}, {"type": "note_on", "time": 4802, "note": 68, "velocity": 99, "channel": 0}, {"type": "note_off", "time": 268, "note": 68, "velocity": 99, "channel": 0}, {"type": "note_on", "time": 5, "note": 69, "velocity": 101, "channel": 0}, {"type": "note_off", "time": 740, "note": 69, "velocity": 101, "channel": 0}, {"type": "note_on", "time": 370, "note": 69, "velocity": 105, "channel": 0}, {"type": "note_off", "time": 3560, "note": 69, "velocity": 105, "channel": 0}, {"type": "note_on", "time": 322, "note": 62, "velocity": 106, "channel": 0}, {"type": "note_off", "time": 525, "note": 62, "velocity": 106, "channel": 0}, {"type": "note_on", "time": 23, "note": 65, "velocity": 105, "channel": 0}, {"type": "note_off", "time": 442, "note": 65, "velocity": 105, "channel": 0}, {"type": "note_on", "time": 418, "note": 69, "velocity": 113, "channel": 0}, {"type": "note_off", "time": 286, "note": 69, "velocity": 113, "channel": 0}, {"type": "note_on", "time": 0, "note": 68, "velocity": 113, "channel": 0}, {"type": "note_off", "time": 203, "note": 68, "velocity": 113, "channel": 0}, {"type": "note_on", "time": 0, "note": 69, "velocity": 114, "channel": 0}, {"type": "note_off", "time": 322, "note": 69, "velocity": 114, "channel": 0}, {"type": "note_on", "time": 35, "note": 67, "velocity": 109, "channel": 0}, {"type": "note_off", "time": 322, "note": 67, "velocity": 109, "channel": 0}, {"type": "note_on", "time": 35, "note": 69, "velocity": 107, "channel": 0}, {"type": "note_off", "time": 1134, "note": 69, "velocity": 107, "channel": 0}, {"type": "note_on", "time": 35, "note": 67, "velocity": 107, "channel": 0}, {"type": "note_off", "time": 126, "note": 67, "velocity": 107, "channel": 0}, {"type": "note_on", "time": 33, "note": 66, "velocity": 108, "channel": 0}, {"type": "note_off", "time": 100, "note": 66, "velocity": 108, "channel": 0}, {"type": "note_on", "time": 42, "note": 65, "velocity": 82, "channel": 0}, {"type": "note_off", "time": 268, "note": 65, "velocity": 82, "channel": 0}, {"type": "note_on", "time": 2066, "note": 62, "velocity": 110, "channel": 0}, {"type": "note_off", "time": 764, "note": 62, "velocity": 110, "channel": 0}, {"type": "note_on", "time": 33, "note": 65, "velocity": 99, "channel": 0}, {"type": "note_off", "time": 361, "note": 65, "velocity": 99, "channel": 0}, {"type": "note_on", "time": 142, "note": 68, "velocity": 107, "channel": 0}, {"type": "note_off", "time": 277, "note": 68, "velocity": 107, "channel": 0}, {"type": "note_on", "time": 8, "note": 69, "velocity": 104, "channel": 0}, {"type": "note_off", "time": 453, "note": 69, "velocity": 104, "channel": 0}, {"type": "note_on", "time": 235, "note": 69, "velocity": 108, "channel": 0}, {"type": "note_off", "time": 2133, "note": 69, "velocity": 108, "channel": 0}, {"type": "note_on", "time": 109, "note": 67, "velocity": 97, "channel": 0}, {"type": "note_off", "time": 243, "note": 67, "velocity": 97, "channel": 0}, {"type": "note_on", "time": 58, "note": 69, "velocity": 100, "channel": 0}, {"type": "note_off", "time": 697, "note": 69, "velocity": 100, "channel": 0}, {"type": "note_on", "time": 16, "note": 67, "velocity": 102, "channel": 0}, {"type": "note_off", "time": 327, "note": 67, "velocity": 102, "channel": 0}, {"type": "note_on", "time": 193, "note": 69, "velocity": 101, "channel": 0}, {"type": "note_off", "time": 1360, "note": 69, "velocity": 101, "channel": 0}, {"type": "note_on", "time": 41, "note": 67, "velocity": 106, "channel": 0}, {"type": "note_off", "time": 260, "note": 67, "velocity": 106, "channel": 0}, {"type": "note_on", "time": 8, "note": 69, "velocity": 100, "channel": 0}, {"type": "note_off", "time": 478, "note": 69, "velocity": 100, "channel": 0}, {"type": "note_on", "time": 58, "note": 65, "velocity": 104, "channel": 0}, {"type": "note_off", "time": 294, "note": 65, "velocity": 104, "channel": 0}, {"type": "note_on", "time": 126, "note": 62, "velocity": 111, "channel": 0}, {"type": "note_off", "time": 378, "note": 62, "velocity": 111, "channel": 0}, {"type": "note_on", "time": 3091, "note": 68, "velocity": 102, "channel": 0}, {"type": "note_off", "time": 294, "note": 68, "velocity": 102, "channel": 0}, {"type": "note_on", "time": 16, "note": 69, "velocity": 104, "channel": 0}, {"type": "note_off", "time": 1486, "note": 69, "velocity": 104, "channel": 0}, {"type": "note_on", "time": 33, "note": 67, "velocity": 100, "channel": 0}, {"type": "note_off", "time": 226, "note": 67, "velocity": 100, "channel": 0}, {"type": "note_on", "time": 50, "note": 65, "velocity": 101, "channel": 0}, {"type": "note_off", "time": 302, "note": 65, "velocity": 101, "channel": 0}, {"type": "note_on", "time": 117, "note": 62, "velocity": 109, "channel": 0}, {"type": "note_off", "time": 453, "note": 62, "velocity": 109, "channel": 0}, {"type": "note_on", "time": 75, "note": 62, "velocity": 108, "channel": 0}, {"type": "note_off", "time": 386, "note": 62, "velocity": 108, "channel": 0}, {"type": "note_on", "time": 92, "note": 62, "velocity": 108, "channel": 0}, {"type": "note_off", "time": 386, "note": 62, "velocity": 108, "channel": 0}, {"type": "note_on", "time": 142, "note": 62, "velocity": 102, "channel": 0}, {"type": "note_off", "time": 1562, "note": 62, "velocity": 102, "channel": 0}, {"type": "note_on", "time": 33, "note": 60, "velocity": 98, "channel": 0}, {"type": "note_off", "time": 319, "note": 60, "velocity": 98, "channel": 0}, {"type": "note_on", "time": 67, "note": 62, "velocity": 104, "channel": 0}, {"type": "note_off", "time": 630, "note": 62, "velocity": 104, "channel": 0}, {"type": "note_on", "time": 50, "note": 65, "velocity": 101, "channel": 0}, {"type": "note_off", "time": 344, "note": 65, "velocity": 101, "channel": 0}, {"type": "note_on", "time": 41, "note": 62, "velocity": 104, "channel": 0}, {"type": "note_off", "time": 814, "note": 62, "velocity": 104, "channel": 0}, {"type": "note_on", "time": 156, "note": 65, "velocity": 104, "channel": 0}, {"type": "note_off", "time": 513, "note": 65, "velocity": 104, "channel": 0}, {"type": "note_on", "time": 102, "note": 62, "velocity": 87, "channel": 0}, {"type": "note_off", "time": 193, "note": 62, "velocity": 87, "channel": 0}, {"type": "note_on", "time": 2142, "note": 67, "velocity": 98, "channel": 0}, {"type": "note_off", "time": 487, "note": 67, "velocity": 98, "channel": 0}, {"type": "note_on", "time": 100, "note": 65, "velocity": 96, "channel": 0}, {"type": "note_off", "time": 319, "note": 65, "velocity": 96, "channel": 0}, {"type": "note_on", "time": 168, "note": 66, "velocity": 104, "channel": 0}, {"type": "note_off", "time": 277, "note": 66, "velocity": 104, "channel": 0}, {"type": "note_on", "time": 0, "note": 67, "velocity": 98, "channel": 0}, {"type": "note_off", "time": 1167, "note": 67, "velocity": 98, "channel": 0}, {"type": "note_on", "time": 125, "note": 65, "velocity": 93, "channel": 0}, {"type": "note_off", "time": 294, "note": 65, "velocity": 93, "channel": 0}, {"type": "note_on", "time": 42, "note": 67, "velocity": 97, "channel": 0}, {"type": "note_off", "time": 168, "note": 67, "velocity": 97, "channel": 0}, {"type": "note_on", "time": 126, "note": 69, "velocity": 103, "channel": 0}, {"type": "note_off", "time": 428, "note": 69, "velocity": 103, "channel": 0}, {"type": "note_on", "time": 22, "note": 72, "velocity": 105, "channel": 0}, {"type": "note_off", "time": 4480, "note": 72, "velocity": 105, "channel": 0}, {"type": "note_on", "time": 35, "note": 69, "velocity": 99, "channel": 0}, {"type": "note_off", "time": 322, "note": 69, "velocity": 99, "channel": 0}, {"type": "note_on", "time": 0, "note": 72, "velocity": 105, "channel": 0}, {"type": "note_off", "time": 430, "note": 72, "velocity": 105, "channel": 0}, {"type": "note_on", "time": 43, "note": 69, "velocity": 98, "channel": 0}, {"type": "note_off", "time": 277, "note": 69, "velocity": 98, "channel": 0}, {"type": "note_on", "time": 151, "note": 67, "velocity": 102, "channel": 0}, {"type": "note_off", "time": 252, "note": 67, "velocity": 102, "channel": 0}, {"type": "note_on", "time": 58, "note": 65, "velocity": 102, "channel": 0}, {"type": "note_off", "time": 546, "note": 65, "velocity": 102, "channel": 0}, {"type": "note_on", "time": 50, "note": 69, "velocity": 104, "channel": 0}, {"type": "note_off", "time": 201, "note": 69, "velocity": 104, "channel": 0}, {"type": "note_on", "time": 67, "note": 65, "velocity": 105, "channel": 0}, {"type": "note_off", "time": 411, "note": 65, "velocity": 105, "channel": 0}, {"type": "note_on", "time": 33, "note": 64, "velocity": 117, "channel": 0}, {"type": "note_off", "time": 420, "note": 64, "velocity": 117, "channel": 0}, {"type": "note_on", "time": 0, "note": 62, "velocity": 106, "channel": 0}, {"type": "note_off", "time": 378, "note": 62, "velocity": 106, "channel": 0}, {"type": "note_on", "time": 47, "note": 65, "velocity": 110, "channel": 0}, {"type": "note_off", "time": 388, "note": 65, "velocity": 110, "channel": 0}, {"type": "note_on", "time": 0, "note": 62, "velocity": 105, "channel": 0}, {"type": "note_off", "time": 465, "note": 62, "velocity": 105, "channel": 0}, {"type": "note_on", "time": 155, "note": 60, "velocity": 103, "channel": 0}, {"type": "note_off", "time": 215, "note": 60, "velocity": 103, "channel": 0}, {"type": "note_on", "time": 23, "note": 59, "velocity": 101, "channel": 0}, {"type": "note_off", "time": 412, "note": 59, "velocity": 101, "channel": 0}, {"type": "note_on", "time": 155, "note": 61, "velocity": 104, "channel": 0}, {"type": "note_off", "time": 274, "note": 61, "velocity": 104, "channel": 0}, {"type": "note_on", "time": 47, "note": 57, "velocity": 97, "channel": 0}, {"type": "note_off", "time": 400, "note": 57, "velocity": 97, "channel": 0}, {"type": "note_on", "time": 244, "note": 53, "velocity": 101, "channel": 0}, {"type": "note_off", "time": 226, "note": 53, "velocity": 101, "channel": 0}, {"type": "note_on", "time": 35, "note": 55, "velocity": 98, "channel": 0}, {"type": "note_off", "time": 1051, "note": 55, "velocity": 98, "channel": 0}, {"type": "note_on", "time": 179, "note": 53, "velocity": 103, "channel": 0}, {"type": "note_off", "time": 358, "note": 53, "velocity": 103, "channel": 0}, {"type": "note_on", "time": 89, "note": 50, "velocity": 103, "channel": 0}, {"type": "note_off", "time": 710, "note": 50, "velocity": 103, "channel": 0}, {"type": "note_on", "time": 3703, "note": 72, "velocity": 107, "channel": 0}, {"type": "note_off", "time": 430, "note": 72, "velocity": 107, "channel": 0}, {"type": "note_on", "time": 11, "note": 73, "velocity": 107, "channel": 0}, {"type": "note_off", "time": 4922, "note": 73, "velocity": 107, "channel": 0}, {"type": "note_on", "time": 29, "note": 72, "velocity": 105, "channel": 0}, {"type": "note_off", "time": 400, "note": 72, "velocity": 105, "channel": 0}, {"type": "note_on", "time": 137, "note": 68, "velocity": 102, "channel": 0}, {"type": "note_off", "time": 316, "note": 68, "velocity": 102, "channel": 0}, {"type": "note_on", "time": 304, "note": 73, "velocity": 100, "channel": 0}, {"type": "note_off", "time": 465, "note": 73, "velocity": 100, "channel": 0}, {"type": "note_on", "time": 59, "note": 72, "velocity": 103, "channel": 0}, {"type": "note_off", "time": 507, "note": 72, "velocity": 103, "channel": 0}, {"type": "note_on", "time": 107, "note": 68, "velocity": 102, "channel": 0}, {"type": "note_off", "time": 436, "note": 68, "velocity": 102, "channel": 0}, {"type": "note_on", "time": 209, "note": 73, "velocity": 98, "channel": 0}, {"type": "note_off", "time": 579, "note": 73, "velocity": 98, "channel": 0}, {"type": "note_on", "time": 23, "note": 72, "velocity": 97, "channel": 0}, {"type": "note_off", "time": 1786, "note": 72, "velocity": 97, "channel": 0}, {"type": "note_on", "time": 107, "note": 68, "velocity": 95, "channel": 0}, {"type": "note_off", "time": 406, "note": 68, "velocity": 95, "channel": 0}, {"type": "note_on", "time": 23, "note": 73, "velocity": 94, "channel": 0}, {"type": "note_off", "time": 477, "note": 73, "velocity": 94, "channel": 0}, {"type": "note_on", "time": 0, "note": 72, "velocity": 98, "channel": 0}, {"type": "note_off", "time": 919, "note": 72, "velocity": 98, "channel": 0}, {"type": "note_on", "time": 29, "note": 68, "velocity": 96, "channel": 0}, {"type": "note_off", "time": 334, "note": 68, "velocity": 96, "channel": 0}, {"type": "note_on", "time": 286, "note": 73, "velocity": 98, "channel": 0}, {"type": "note_off", "time": 442, "note": 73, "velocity": 98, "channel": 0}, {"type": "note_on", "time": 35, "note": 72, "velocity": 100, "channel": 0}, {"type": "note_off", "time": 597, "note": 72, "velocity": 100, "channel": 0}, {"type": "note_on", "time": 71, "note": 68, "velocity": 99, "channel": 0}, {"type": "note_off", "time": 412, "note": 68, "velocity": 99, "channel": 0}, {"type": "note_on", "time": 322, "note": 72, "velocity": 101, "channel": 0}, {"type": "note_off", "time": 591, "note": 72, "velocity": 101, "channel": 0}, {"type": "note_on", "time": 250, "note": 72, "velocity": 101, "channel": 0}, {"type": "note_off", "time": 672, "note": 72, "velocity": 101, "channel": 0}, {"type": "note_on", "time": 25, "note": 71, "velocity": 95, "channel": 0}, {"type": "note_off", "time": 361, "note": 71, "velocity": 95, "channel": 0}, {"type": "note_on", "time": 345, "note": 73, "velocity": 102, "channel": 0}, {"type": "note_off", "time": 495, "note": 73, "velocity": 102, "channel": 0}, {"type": "note_on", "time": 274, "note": 73, "velocity": 106, "channel": 0}, {"type": "note_off", "time": 430, "note": 73, "velocity": 106, "channel": 0}, {"type": "note_on", "time": 11, "note": 70, "velocity": 97, "channel": 0}, {"type": "note_off", "time": 316, "note": 70, "velocity": 97, "channel": 0}, {"type": "note_on", "time": 29, "note": 72, "velocity": 103, "channel": 0}, {"type": "note_off", "time": 585, "note": 72, "velocity": 103, "channel": 0}, {"type": "note_on", "time": 89, "note": 72, "velocity": 99, "channel": 0}, {"type": "note_off", "time": 370, "note": 72, "velocity": 99, "channel": 0}, {"type": "note_on", "time": 0, "note": 68, "velocity": 99, "channel": 0}, {"type": "note_off", "time": 322, "note": 68, "velocity": 99, "channel": 0}, {"type": "note_on", "time": 29, "note": 73, "velocity": 106, "channel": 0}, {"type": "note_off", "time": 221, "note": 73, "velocity": 106, "channel": 0}, {"type": "note_on", "time": 107, "note": 73, "velocity": 108, "channel": 0}, {"type": "note_off", "time": 627, "note": 73, "velocity": 108, "channel": 0}, {"type": "note_on", "time": 17, "note": 68, "velocity": 109, "channel": 0}, {"type": "note_off", "time": 334, "note": 68, "velocity": 109, "channel": 0}, {"type": "note_on", "time": 0, "note": 72, "velocity": 109, "channel": 0}, {"type": "note_off", "time": 740, "note": 72, "velocity": 109, "channel": 0}, {"type": "note_on", "time": 47, "note": 72, "velocity": 108, "channel": 0}, {"type": "note_off", "time": 412, "note": 72, "velocity": 108, "channel": 0}, {"type": "note_on", "time": 107, "note": 69, "velocity": 97, "channel": 0}, {"type": "note_off", "time": 382, "note": 69, "velocity": 97, "channel": 0}, {"type": "note_on", "time": 191, "note": 72, "velocity": 109, "channel": 0}, {"type": "note_off", "time": 304, "note": 72, "velocity": 109, "channel": 0}, {"type": "note_on", "time": 59, "note": 72, "velocity": 107, "channel": 0}, {"type": "note_off", "time": 424, "note": 72, "velocity": 107, "channel": 0}, {"type": "note_on", "time": 101, "note": 72, "velocity": 106, "channel": 0}, {"type": "note_off", "time": 430, "note": 72, "velocity": 106, "channel": 0}, {"type": "note_on", "time": 23, "note": 67, "velocity": 102, "channel": 0}, {"type": "note_off", "time": 430, "note": 67, "velocity": 102, "channel": 0}, {"type": "note_on", "time": 0, "note": 71, "velocity": 113, "channel": 0}, {"type": "note_off", "time": 370, "note": 71, "velocity": 113, "channel": 0}, {"type": "note_on", "time": 71, "note": 71, "velocity": 111, "channel": 0}, {"type": "note_off", "time": 573, "note": 71, "velocity": 111, "channel": 0}, {"type": "note_on", "time": 41, "note": 67, "velocity": 100, "channel": 0}, {"type": "note_off", "time": 388, "note": 67, "velocity": 100, "channel": 0}, {"type": "note_on", "time": 11, "note": 72, "velocity": 112, "channel": 0}, {"type": "note_off", "time": 424, "note": 72, "velocity": 112, "channel": 0}, {"type": "note_on", "time": 77, "note": 72, "velocity": 109, "channel": 0}, {"type": "note_off", "time": 376, "note": 72, "velocity": 109, "channel": 0}, {"type": "note_on", "time": 65, "note": 69, "velocity": 101, "channel": 0}, {"type": "note_off", "time": 459, "note": 69, "velocity": 101, "channel": 0}, {"type": "note_on", "time": 0, "note": 71, "velocity": 106, "channel": 0}, {"type": "note_off", "time": 388, "note": 71, "velocity": 106, "channel": 0}, {"type": "note_on", "time": 65, "note": 71, "velocity": 108, "channel": 0}, {"type": "note_on", "time": 579, "note": 67, "velocity": 106, "channel": 0}, {"type": "note_off", "time": 0, "note": 71, "velocity": 108, "channel": 0}, {"type": "note_off", "time": 346, "note": 67, "velocity": 106, "channel": 0}, {"type": "note_on", "time": 17, "note": 65, "velocity": 111, "channel": 0}, {"type": "note_off", "time": 489, "note": 65, "velocity": 111, "channel": 0}, {"type": "note_on", "time": 0, "note": 62, "velocity": 109, "channel": 0}, {"type": "note_off", "time": 669, "note": 62, "velocity": 109, "channel": 0}, {"type": "note_on", "time": 2682, "note": 70, "velocity": 103, "channel": 0}, {"type": "note_off", "time": 155, "note": 70, "velocity": 103, "channel": 0}, {"type": "note_on", "time": 149, "note": 72, "velocity": 104, "channel": 0}, {"type": "note_off", "time": 2293, "note": 72, "velocity": 104, "channel": 0}, {"type": "note_on", "time": 83, "note": 65, "velocity": 96, "channel": 0}, {"type": "note_off", "time": 543, "note": 65, "velocity": 96, "channel": 0}, {"type": "note_on", "time": 65, "note": 72, "velocity": 108, "channel": 0}, {"type": "note_off", "time": 221, "note": 72, "velocity": 108, "channel": 0}, {"type": "note_on", "time": 41, "note": 72, "velocity": 104, "channel": 0}, {"type": "note_off", "time": 495, "note": 72, "velocity": 104, "channel": 0}, {"type": "note_on", "time": 23, "note": 69, "velocity": 105, "channel": 0}, {"type": "note_off", "time": 388, "note": 69, "velocity": 105, "channel": 0}, {"type": "note_on", "time": 0, "note": 71, "velocity": 107, "channel": 0}, {"type": "note_off", "time": 250, "note": 71, "velocity": 107, "channel": 0}, {"type": "note_on", "time": 59, "note": 71, "velocity": 107, "channel": 0}, {"type": "note_off", "time": 519, "note": 71, "velocity": 107, "channel": 0}, {"type": "note_on", "time": 35, "note": 67, "velocity": 100, "channel": 0}, {"type": "note_off", "time": 304, "note": 67, "velocity": 100, "channel": 0}, {"type": "note_on", "time": 83, "note": 72, "velocity": 108, "channel": 0}, {"type": "note_off", "time": 310, "note": 72, "velocity": 108, "channel": 0}, {"type": "note_on", "time": 131, "note": 72, "velocity": 108, "channel": 0}, {"type": "note_off", "time": 424, "note": 72, "velocity": 108, "channel": 0}, {"type": "note_on", "time": 11, "note": 69, "velocity": 105, "channel": 0}, {"type": "note_off", "time": 346, "note": 69, "velocity": 105, "channel": 0}, {"type": "note_on", "time": 0, "note": 72, "velocity": 107, "channel": 0}, {"type": "note_off", "time": 477, "note": 72, "velocity": 107, "channel": 0}, {"type": "note_on", "time": 53, "note": 71, "velocity": 106, "channel": 0}, {"type": "note_off", "time": 549, "note": 71, "velocity": 106, "channel": 0}, {"type": "note_on", "time": 23, "note": 67, "velocity": 94, "channel": 0}, {"type": "note_off", "time": 346, "note": 67, "velocity": 94, "channel": 0}, {"type": "note_on", "time": 89, "note": 72, "velocity": 106, "channel": 0}, {"type": "note_off", "time": 406, "note": 72, "velocity": 106, "channel": 0}, {"type": "note_on", "time": 77, "note": 72, "velocity": 105, "channel": 0}, {"type": "note_off", "time": 412, "note": 72, "velocity": 105, "channel": 0}, {"type": "note_on", "time": 23, "note": 69, "velocity": 101, "channel": 0}, {"type": "note_off", "time": 453, "note": 69, "velocity": 101, "channel": 0}, {"type": "note_on", "time": 0, "note": 71, "velocity": 107, "channel": 0}, {"type": "note_off", "time": 268, "note": 71, "velocity": 107, "channel": 0}, {"type": "note_on", "time": 77, "note": 71, "velocity": 107, "channel": 0}, {"type": "note_off", "time": 310, "note": 71, "velocity": 107, "channel": 0}, {"type": "note_on", "time": 47, "note": 67, "velocity": 104, "channel": 0}, {"type": "note_off", "time": 334, "note": 67, "velocity": 104, "channel": 0}, {"type": "note_on", "time": 65, "note": 65, "velocity": 106, "channel": 0}, {"type": "note_off", "time": 394, "note": 65, "velocity": 106, "channel": 0}, {"type": "note_on", "time": 17, "note": 62, "velocity": 105, "channel": 0}, {"type": "note_off", "time": 519, "note": 62, "velocity": 105, "channel": 0}, {"type": "note_on", "time": 2108, "note": 70, "velocity": 94, "channel": 0}, {"type": "note_off", "time": 203, "note": 70, "velocity": 94, "channel": 0}, {"type": "note_on", "time": 29, "note": 71, "velocity": 95, "channel": 0}, {"type": "note_off", "time": 1606, "note": 71, "velocity": 95, "channel": 0}, {"type": "note_on", "time": 483, "note": 67, "velocity": 97, "channel": 0}, {"type": "note_off", "time": 304, "note": 67, "velocity": 97, "channel": 0}, {"type": "note_on", "time": 119, "note": 69, "velocity": 97, "channel": 0}, {"type": "note_off", "time": 358, "note": 69, "velocity": 97, "channel": 0}, {"type": "note_on", "time": 11, "note": 71, "velocity": 103, "channel": 0}, {"type": "note_off", "time": 322, "note": 71, "velocity": 103, "channel": 0}, {"type": "note_on", "time": 149, "note": 62, "velocity": 94, "channel": 0}, {"type": "note_off", "time": 292, "note": 62, "velocity": 94, "channel": 0}, {"type": "note_on", "time": 17, "note": 67, "velocity": 102, "channel": 0}, {"type": "note_off", "time": 256, "note": 67, "velocity": 102, "channel": 0}, {"type": "note_on", "time": 53, "note": 69, "velocity": 107, "channel": 0}, {"type": "note_off", "time": 465, "note": 69, "velocity": 107, "channel": 0}, {"type": "note_on", "time": 47, "note": 71, "velocity": 103, "channel": 0}, {"type": "note_off", "time": 465, "note": 71, "velocity": 103, "channel": 0}, {"type": "note_on", "time": 95, "note": 62, "velocity": 86, "channel": 0}, {"type": "note_off", "time": 322, "note": 62, "velocity": 86, "channel": 0}, {"type": "note_on", "time": 47, "note": 69, "velocity": 103, "channel": 0}, {"type": "note_off", "time": 818, "note": 69, "velocity": 103, "channel": 0}, {"type": "note_on", "time": 23, "note": 72, "velocity": 100, "channel": 0}, {"type": "note_off", "time": 477, "note": 72, "velocity": 100, "channel": 0}, {"type": "note_on", "time": 5, "note": 75, "velocity": 95, "channel": 0}, {"type": "note_off", "time": 465, "note": 75, "velocity": 95, "channel": 0}, {"type": "note_on", "time": 155, "note": 77, "velocity": 99, "channel": 0}, {"type": "note_off", "time": 943, "note": 77, "velocity": 99, "channel": 0}, {"type": "note_on", "time": 3183, "note": 74, "velocity": 90, "channel": 0}, {"type": "note_off", "time": 131, "note": 74, "velocity": 90, "channel": 0}, {"type": "note_on", "time": 0, "note": 75, "velocity": 111, "channel": 0}, {"type": "note_off", "time": 179, "note": 75, "velocity": 111, "channel": 0}, {"type": "note_on", "time": 0, "note": 76, "velocity": 109, "channel": 0}, {"type": "note_off", "time": 83, "note": 76, "velocity": 109, "channel": 0}, {"type": "note_on", "time": 71, "note": 77, "velocity": 100, "channel": 0}, {"type": "note_off", "time": 6092, "note": 77, "velocity": 100, "channel": 0}, {"type": "note_on", "time": 473, "note": 75, "velocity": 105, "channel": 0}, {"type": "note_off", "time": 302, "note": 75, "velocity": 105, "channel": 0}, {"type": "note_on", "time": 0, "note": 73, "velocity": 100, "channel": 0}, {"type": "note_off", "time": 151, "note": 73, "velocity": 100, "channel": 0}, {"type": "note_on", "time": 25, "note": 75, "velocity": 104, "channel": 0}, {"type": "note_off", "time": 604, "note": 75, "velocity": 104, "channel": 0}, {"type": "note_on", "time": 258, "note": 71, "velocity": 106, "channel": 0}, {"type": "note_off", "time": 316, "note": 71, "velocity": 106, "channel": 0}, {"type": "note_on", "time": 0, "note": 69, "velocity": 100, "channel": 0}, {"type": "note_off", "time": 256, "note": 69, "velocity": 100, "channel": 0}, {"type": "note_on", "time": 0, "note": 65, "velocity": 102, "channel": 0}, {"type": "note_off", "time": 340, "note": 65, "velocity": 102, "channel": 0}, {"type": "note_on", "time": 11, "note": 66, "velocity": 100, "channel": 0}, {"type": "note_off", "time": 167, "note": 66, "velocity": 100, "channel": 0}, {"type": "note_on", "time": 23, "note": 65, "velocity": 102, "channel": 0}, {"type": "note_off", "time": 328, "note": 65, "velocity": 102, "channel": 0}, {"type": "note_on", "time": 0, "note": 64, "velocity": 102, "channel": 0}, {"type": "note_off", "time": 346, "note": 64, "velocity": 102, "channel": 0}, {"type": "note_on", "time": 83, "note": 63, "velocity": 101, "channel": 0}, {"type": "note_off", "time": 430, "note": 63, "velocity": 101, "channel": 0}, {"type": "note_on", "time": 35, "note": 66, "velocity": 96, "channel": 0}, {"type": "note_off", "time": 627, "note": 66, "velocity": 96, "channel": 0}, {"type": "note_on", "time": 238, "note": 71, "velocity": 90, "channel": 0}, {"type": "note_off", "time": 209, "note": 71, "velocity": 90, "channel": 0}, {"type": "note_on", "time": 77, "note": 64, "velocity": 94, "channel": 0}, {"type": "note_off", "time": 382, "note": 64, "velocity": 94, "channel": 0}, {"type": "note_on", "time": 0, "note": 67, "velocity": 91, "channel": 0}, {"type": "note_off", "time": 137, "note": 67, "velocity": 91, "channel": 0}, {"type": "note_on", "time": 0, "note": 68, "velocity": 90, "channel": 0}, {"type": "note_off", "time": 262, "note": 68, "velocity": 90, "channel": 0}, {"type": "note_on", "time": 47, "note": 71, "velocity": 95, "channel": 0}, {"type": "note_off", "time": 113, "note": 71, "velocity": 95, "channel": 0}, {"type": "note_on", "time": 23, "note": 70, "velocity": 95, "channel": 0}, {"type": "note_off", "time": 215, "note": 70, "velocity": 95, "channel": 0}, {"type": "note_on", "time": 83, "note": 68, "velocity": 98, "channel": 0}, {"type": "note_off", "time": 238, "note": 68, "velocity": 98, "channel": 0}, {"type": "note_on", "time": 0, "note": 67, "velocity": 97, "channel": 0}, {"type": "note_off", "time": 125, "note": 67, "velocity": 97, "channel": 0}, {"type": "note_on", "time": 23, "note": 70, "velocity": 89, "channel": 0}, {"type": "note_off", "time": 262, "note": 70, "velocity": 89, "channel": 0}, {"type": "note_on", "time": 226, "note": 68, "velocity": 96, "channel": 0}, {"type": "note_off", "time": 274, "note": 68, "velocity": 96, "channel": 0}, {"type": "note_on", "time": 29, "note": 67, "velocity": 96, "channel": 0}, {"type": "note_off", "time": 633, "note": 67, "velocity": 96, "channel": 0}, {"type": "note_on", "time": 89, "note": 67, "velocity": 93, "channel": 0}, {"type": "note_off", "time": 244, "note": 67, "velocity": 93, "channel": 0}, {"type": "note_on", "time": 155, "note": 60, "velocity": 98, "channel": 0}, {"type": "note_off", "time": 418, "note": 60, "velocity": 98, "channel": 0}, {"type": "note_on", "time": 29, "note": 65, "velocity": 101, "channel": 0}, {"type": "note_off", "time": 418, "note": 65, "velocity": 101, "channel": 0}, {"type": "note_on", "time": 82, "note": 74, "velocity": 78, "channel": 0}, {"type": "note_off", "time": 201, "note": 74, "velocity": 78, "channel": 0}, {"type": "note_on", "time": 117, "note": 73, "velocity": 93, "channel": 0}, {"type": "note_off", "time": 260, "note": 73, "velocity": 93, "channel": 0}, {"type": "note_on", "time": 84, "note": 69, "velocity": 93, "channel": 0}, {"type": "note_off", "time": 394, "note": 69, "velocity": 93, "channel": 0}, {"type": "note_on", "time": 11, "note": 65, "velocity": 98, "channel": 0}, {"type": "note_off", "time": 221, "note": 65, "velocity": 98, "channel": 0}, {"type": "note_on", "time": 0, "note": 62, "velocity": 105, "channel": 0}, {"type": "note_off", "time": 645, "note": 62, "velocity": 105, "channel": 0}, {"type": "note_on", "time": 113, "note": 65, "velocity": 98, "channel": 0}, {"type": "note_off", "time": 985, "note": 65, "velocity": 98, "channel": 0}, {"type": "note_on", "time": 0, "note": 67, "velocity": 95, "channel": 0}, {"type": "note_off", "time": 268, "note": 67, "velocity": 95, "channel": 0}, {"type": "note_on", "time": 29, "note": 65, "velocity": 103, "channel": 0}, {"type": "note_on", "time": 83, "note": 62, "velocity": 103, "channel": 0}, {"type": "note_off", "time": 0, "note": 65, "velocity": 103, "channel": 0}, {"type": "note_off", "time": 657, "note": 62, "velocity": 103, "channel": 0}, {"type": "note_on", "time": 2634, "note": 67, "velocity": 104, "channel": 0}, {"type": "note_off", "time": 1039, "note": 67, "velocity": 104, "channel": 0}, {"type": "note_on", "time": 11, "note": 65, "velocity": 107, "channel": 0}, {"type": "note_off", "time": 310, "note": 65, "velocity": 107, "channel": 0}, {"type": "note_on", "time": 47, "note": 62, "velocity": 103, "channel": 0}, {"type": "note_off", "time": 591, "note": 62, "velocity": 103, "channel": 0}, {"type": "note_on", "time": 23, "note": 61, "velocity": 105, "channel": 0}, {"type": "note_off", "time": 298, "note": 61, "velocity": 105, "channel": 0}, {"type": "note_on", "time": 35, "note": 60, "velocity": 97, "channel": 0}, {"type": "note_off", "time": 358, "note": 60, "velocity": 97, "channel": 0}, {"type": "note_on", "time": 53, "note": 59, "velocity": 103, "channel": 0}, {"type": "note_off", "time": 358, "note": 59, "velocity": 103, "channel": 0}, {"type": "note_on", "time": 0, "note": 63, "velocity": 113, "channel": 0}, {"type": "note_off", "time": 615, "note": 63, "velocity": 113, "channel": 0}, {"type": "note_on", "time": 0, "note": 58, "velocity": 102, "channel": 0}, {"type": "note_off", "time": 256, "note": 58, "velocity": 102, "channel": 0}, {"type": "note_on", "time": 47, "note": 55, "velocity": 106, "channel": 0}, {"type": "note_off", "time": 292, "note": 55, "velocity": 106, "channel": 0}, {"type": "note_on", "time": 95, "note": 53, "velocity": 105, "channel": 0}, {"type": "note_off", "time": 436, "note": 53, "velocity": 105, "channel": 0}, {"type": "note_on", "time": 17, "note": 52, "velocity": 107, "channel": 0}, {"type": "note_on", "time": 328, "note": 51, "velocity": 104, "channel": 0}, {"type": "note_off", "time": 0, "note": 52, "velocity": 107, "channel": 0}, {"type": "note_off", "time": 818, "note": 51, "velocity": 104, "channel": 0}, {"type": "note_on", "time": 1582, "note": 50, "velocity": 114, "channel": 0}, {"type": "note_off", "time": 226, "note": 50, "velocity": 114, "channel": 0}, {"type": "note_on", "time": 0, "note": 52, "velocity": 109, "channel": 0}, {"type": "note_off", "time": 238, "note": 52, "velocity": 109, "channel": 0}, {"type": "note_on", "time": 5, "note": 55, "velocity": 104, "channel": 0}, {"type": "note_off", "time": 400, "note": 55, "velocity": 104, "channel": 0}, {"type": "note_on", "time": 11, "note": 57, "velocity": 113, "channel": 0}, {"type": "note_off", "time": 226, "note": 57, "velocity": 113, "channel": 0}, {"type": "note_on", "time": 89, "note": 67, "velocity": 115, "channel": 0}, {"type": "note_off", "time": 639, "note": 67, "velocity": 115, "channel": 0}, {"type": "note_on", "time": 35, "note": 69, "velocity": 109, "channel": 0}, {"type": "note_off", "time": 334, "note": 69, "velocity": 109, "channel": 0}, {"type": "note_on", "time": 5, "note": 67, "velocity": 105, "channel": 0}, {"type": "note_off", "time": 603, "note": 67, "velocity": 105, "channel": 0}, {"type": "note_on", "time": 1588, "note": 63, "velocity": 106, "channel": 0}, {"type": "note_off", "time": 412, "note": 63, "velocity": 106, "channel": 0}, {"type": "note_on", "time": 35, "note": 61, "velocity": 98, "channel": 0}, {"type": "note_off", "time": 340, "note": 61, "velocity": 98, "channel": 0}, {"type": "note_on", "time": 41, "note": 59, "velocity": 92, "channel": 0}, {"type": "note_off", "time": 328, "note": 59, "velocity": 92, "channel": 0}, {"type": "note_on", "time": 232, "note": 57, "velocity": 97, "channel": 0}, {"type": "note_off", "time": 280, "note": 57, "velocity": 97, "channel": 0}, {"type": "note_on", "time": 47, "note": 56, "velocity": 95, "channel": 0}, {"type": "note_off", "time": 232, "note": 56, "velocity": 95, "channel": 0}, {"type": "note_on", "time": 137, "note": 69, "velocity": 87, "channel": 0}, {"type": "note_off", "time": 340, "note": 69, "velocity": 87, "channel": 0}, {"type": "note_on", "time": 0, "note": 71, "velocity": 89, "channel": 0}, {"type": "note_off", "time": 209, "note": 71, "velocity": 89, "channel": 0}, {"type": "note_on", "time": 197, "note": 68, "velocity": 101, "channel": 0}, {"type": "note_off", "time": 436, "note": 68, "velocity": 101, "channel": 0}, {"type": "note_on", "time": 29, "note": 70, "velocity": 97, "channel": 0}, {"type": "note_off", "time": 400, "note": 70, "velocity": 97, "channel": 0}, {"type": "note_on", "time": 119, "note": 65, "velocity": 91, "channel": 0}, {"type": "note_off", "time": 173, "note": 65, "velocity": 91, "channel": 0}, {"type": "note_on", "time": 0, "note": 66, "velocity": 94, "channel": 0}, {"type": "note_off", "time": 394, "note": 66, "velocity": 94, "channel": 0}, {"type": "note_on", "time": 149, "note": 70, "velocity": 92, "channel": 0}, {"type": "note_off", "time": 197, "note": 70, "velocity": 92, "channel": 0}, {"type": "note_on", "time": 41, "note": 69, "velocity": 90, "channel": 0}, {"type": "note_off", "time": 549, "note": 69, "velocity": 90, "channel": 0}, {"type": "note_on", "time": 5, "note": 63, "velocity": 102, "channel": 0}, {"type": "note_off", "time": 382, "note": 63, "velocity": 102, "channel": 0}, {"type": "note_on", "time": 17, "note": 59, "velocity": 90, "channel": 0}, {"type": "note_off", "time": 609, "note": 59, "velocity": 90, "channel": 0}, {"type": "note_on", "time": 221, "note": 61, "velocity": 103, "channel": 0}, {"type": "note_off", "time": 346, "note": 61, "velocity": 103, "channel": 0}, {"type": "note_on", "time": 65, "note": 65, "velocity": 100, "channel": 0}, {"type": "note_off", "time": 310, "note": 65, "velocity": 100, "channel": 0}, {"type": "note_on", "time": 203, "note": 69, "velocity": 95, "channel": 0}, {"type": "note_off", "time": 298, "note": 69, "velocity": 95, "channel": 0}, {"type": "note_on", "time": 29, "note": 71, "velocity": 95, "channel": 0}, {"type": "note_off", "time": 292, "note": 71, "velocity": 95, "channel": 0}, {"type": "note_on", "time": 113, "note": 66, "velocity": 98, "channel": 0}, {"type": "note_off", "time": 406, "note": 66, "velocity": 98, "channel": 0}, {"type": "note_on", "time": 23, "note": 68, "velocity": 84, "channel": 0}, {"type": "note_off", "time": 286, "note": 68, "velocity": 84, "channel": 0}, {"type": "note_on", "time": 77, "note": 69, "velocity": 90, "channel": 0}, {"type": "note_off", "time": 203, "note": 69, "velocity": 90, "channel": 0}, {"type": "note_on", "time": 167, "note": 71, "velocity": 9, "channel": 0}, {"type": "note_off", "time": 322, "note": 71, "velocity": 9, "channel": 0}, {"type": "note_on", "time": 95, "note": 66, "velocity": 98, "channel": 0}, {"type": "note_off", "time": 209, "note": 66, "velocity": 98, "channel": 0}, {"type": "note_on", "time": 0, "note": 68, "velocity": 96, "channel": 0}, {"type": "note_on", "time": 280, "note": 67, "velocity": 98, "channel": 0}, {"type": "note_off", "time": 0, "note": 68, "velocity": 96, "channel": 0}, {"type": "note_off", "time": 394, "note": 67, "velocity": 98, "channel": 0}, {"type": "note_on", "time": 95, "note": 70, "velocity": 91, "channel": 0}, {"type": "note_off", "time": 292, "note": 70, "velocity": 91, "channel": 0}, {"type": "note_on", "time": 107, "note": 67, "velocity": 87, "channel": 0}, {"type": "note_off", "time": 412, "note": 67, "velocity": 87, "channel": 0}, {"type": "note_on", "time": 0, "note": 68, "velocity": 76, "channel": 0}, {"type": "note_off", "time": 376, "note": 68, "velocity": 76, "channel": 0}, {"type": "note_on", "time": 639, "note": 66, "velocity": 85, "channel": 0}, {"type": "note_off", "time": 280, "note": 66, "velocity": 85, "channel": 0}, {"type": "note_on", "time": 41, "note": 70, "velocity": 89, "channel": 0}, {"type": "note_off", "time": 185, "note": 70, "velocity": 89, "channel": 0}, {"type": "note_on", "time": 0, "note": 67, "velocity": 94, "channel": 0}, {"type": "note_off", "time": 525, "note": 67, "velocity": 94, "channel": 0}, {"type": "note_on", "time": 83, "note": 63, "velocity": 87, "channel": 0}, {"type": "note_off", "time": 328, "note": 63, "velocity": 87, "channel": 0}, {"type": "note_on", "time": 0, "note": 67, "velocity": 82, "channel": 0}, {"type": "note_off", "time": 238, "note": 67, "velocity": 82, "channel": 0}, {"type": "note_on", "time": 149, "note": 70, "velocity": 83, "channel": 0}, {"type": "note_off", "time": 436, "note": 70, "velocity": 83, "channel": 0}, {"type": "note_on", "time": 113, "note": 65, "velocity": 97, "channel": 0}, {"type": "note_off", "time": 197, "note": 65, "velocity": 97, "channel": 0}, {"type": "note_on", "time": 5, "note": 66, "velocity": 96, "channel": 0}, {"type": "note_off", "time": 274, "note": 66, "velocity": 96, "channel": 0}, {"type": "note_on", "time": 0, "note": 69, "velocity": 97, "channel": 0}, {"type": "note_off", "time": 489, "note": 69, "velocity": 97, "channel": 0}, {"type": "note_on", "time": 5, "note": 71, "velocity": 95, "channel": 0}, {"type": "note_off", "time": 244, "note": 71, "velocity": 95, "channel": 0}, {"type": "note_on", "time": 17, "note": 66, "velocity": 102, "channel": 0}, {"type": "note_off", "time": 477, "note": 66, "velocity": 102, "channel": 0}, {"type": "note_on", "time": 41, "note": 61, "velocity": 102, "channel": 0}, {"type": "note_off", "time": 442, "note": 61, "velocity": 102, "channel": 0}, {"type": "note_on", "time": 0, "note": 59, "velocity": 99, "channel": 0}, {"type": "note_off", "time": 370, "note": 59, "velocity": 99, "channel": 0}, {"type": "note_on", "time": 59, "note": 58, "velocity": 98, "channel": 0}, {"type": "note_off", "time": 352, "note": 58, "velocity": 98, "channel": 0}, {"type": "note_on", "time": 59, "note": 57, "velocity": 100, "channel": 0}, {"type": "note_off", "time": 370, "note": 57, "velocity": 100, "channel": 0}, {"type": "note_on", "time": 3793, "note": 65, "velocity": 94, "channel": 0}, {"type": "note_off", "time": 364, "note": 65, "velocity": 94, "channel": 0}, {"type": "note_on", "time": 0, "note": 66, "velocity": 104, "channel": 0}, {"type": "note_off", "time": 280, "note": 66, "velocity": 104, "channel": 0}, {"type": "note_on", "time": 23, "note": 46, "velocity": 109, "channel": 0}, {"type": "note_off", "time": 1242, "note": 46, "velocity": 109, "channel": 0}, {"type": "note_on", "time": 35, "note": 55, "velocity": 105, "channel": 0}, {"type": "note_off", "time": 406, "note": 55, "velocity": 105, "channel": 0}, {"type": "note_on", "time": 0, "note": 51, "velocity": 103, "channel": 0}, {"type": "note_off", "time": 549, "note": 51, "velocity": 103, "channel": 0}, {"type": "note_on", "time": 394, "note": 69, "velocity": 101, "channel": 0}, {"type": "note_off", "time": 674, "note": 69, "velocity": 101, "channel": 0}, {"type": "note_on", "time": 0, "note": 64, "velocity": 100, "channel": 0}, {"type": "note_off", "time": 465, "note": 64, "velocity": 100, "channel": 0}, {"type": "note_on", "time": 11, "note": 67, "velocity": 98, "channel": 0}, {"type": "note_off", "time": 340, "note": 67, "velocity": 98, "channel": 0}, {"type": "note_on", "time": 59, "note": 69, "velocity": 97, "channel": 0}, {"type": "note_off", "time": 256, "note": 69, "velocity": 97, "channel": 0}, {"type": "note_on", "time": 0, "note": 70, "velocity": 98, "channel": 0}, {"type": "note_off", "time": 531, "note": 70, "velocity": 98, "channel": 0}, {"type": "note_on", "time": 0, "note": 65, "velocity": 95, "channel": 0}, {"type": "note_off", "time": 221, "note": 65, "velocity": 95, "channel": 0}, {"type": "note_on", "time": 0, "note": 70, "velocity": 102, "channel": 0}, {"type": "note_off", "time": 376, "note": 70, "velocity": 102, "channel": 0}, {"type": "note_on", "time": 0, "note": 68, "velocity": 101, "channel": 0}, {"type": "note_off", "time": 280, "note": 68, "velocity": 101, "channel": 0}, {"type": "note_on", "time": 17, "note": 67, "velocity": 105, "channel": 0}, {"type": "note_off", "time": 400, "note": 67, "velocity": 105, "channel": 0}, {"type": "note_on", "time": 29, "note": 66, "velocity": 99, "channel": 0}, {"type": "note_off", "time": 346, "note": 66, "velocity": 99, "channel": 0}, {"type": "note_on", "time": 113, "note": 60, "velocity": 92, "channel": 0}, {"type": "note_off", "time": 364, "note": 60, "velocity": 92, "channel": 0}, {"type": "note_on", "time": 23, "note": 65, "velocity": 101, "channel": 0}, {"type": "note_off", "time": 358, "note": 65, "velocity": 101, "channel": 0}, {"type": "note_on", "time": 0, "note": 69, "velocity": 98, "channel": 0}, {"type": "note_off", "time": 304, "note": 69, "velocity": 98, "channel": 0}, {"type": "note_on", "time": 119, "note": 71, "velocity": 104, "channel": 0}, {"type": "note_off", "time": 316, "note": 71, "velocity": 104, "channel": 0}, {"type": "note_on", "time": 0, "note": 63, "velocity": 108, "channel": 0}, {"type": "note_off", "time": 489, "note": 63, "velocity": 108, "channel": 0}, {"type": "note_on", "time": 0, "note": 66, "velocity": 100, "channel": 0}, {"type": "note_off", "time": 358, "note": 66, "velocity": 100, "channel": 0}, {"type": "note_on", "time": 131, "note": 73, "velocity": 93, "channel": 0}, {"type": "note_off", "time": 244, "note": 73, "velocity": 93, "channel": 0}, {"type": "note_on", "time": 83, "note": 74, "velocity": 98, "channel": 0}, {"type": "note_off", "time": 364, "note": 74, "velocity": 98, "channel": 0}, {"type": "note_on", "time": 0, "note": 68, "velocity": 98, "channel": 0}, {"type": "note_off", "time": 645, "note": 68, "velocity": 98, "channel": 0}, {"type": "note_on", "time": 1696, "note": 45, "velocity": 106, "channel": 0}, {"type": "note_off", "time": 561, "note": 45, "velocity": 106, "channel": 0}, {"type": "note_on", "time": 0, "note": 54, "velocity": 106, "channel": 0}, {"type": "note_off", "time": 256, "note": 54, "velocity": 106, "channel": 0}, {"type": "note_on", "time": 17, "note": 46, "velocity": 106, "channel": 0}, {"type": "note_off", "time": 1093, "note": 46, "velocity": 106, "channel": 0}, {"type": "note_on", "time": 95, "note": 56, "velocity": 105, "channel": 0}, {"type": "note_on", "time": 286, "note": 51, "velocity": 101, "channel": 0}, {"type": "note_off", "time": 0, "note": 56, "velocity": 105, "channel": 0}, {"type": "note_off", "time": 459, "note": 51, "velocity": 101, "channel": 0}, {"type": "note_on", "time": 0, "note": 54, "velocity": 101, "channel": 0}, {"type": "note_off", "time": 244, "note": 54, "velocity": 101, "channel": 0}, {"type": "note_on", "time": 137, "note": 57, "velocity": 104, "channel": 0}, {"type": "note_off", "time": 334, "note": 57, "velocity": 104, "channel": 0}, {"type": "note_on", "time": 125, "note": 52, "velocity": 99, "channel": 0}, {"type": "note_off", "time": 507, "note": 52, "velocity": 99, "channel": 0}, {"type": "note_on", "time": 818, "note": 63, "velocity": 102, "channel": 0}, {"type": "note_off", "time": 197, "note": 63, "velocity": 102, "channel": 0}, {"type": "note_on", "time": 11, "note": 64, "velocity": 103, "channel": 0}, {"type": "note_off", "time": 232, "note": 64, "velocity": 103, "channel": 0}, {"type": "note_on", "time": 41, "note": 67, "velocity": 94, "channel": 0}, {"type": "note_off", "time": 280, "note": 67, "velocity": 94, "channel": 0}, {"type": "note_on", "time": 0, "note": 71, "velocity": 98, "channel": 0}, {"type": "note_off", "time": 352, "note": 71, "velocity": 98, "channel": 0}, {"type": "note_on", "time": 35, "note": 69, "velocity": 98, "channel": 0}, {"type": "note_off", "time": 406, "note": 69, "velocity": 98, "channel": 0}, {"type": "note_on", "time": 23, "note": 66, "velocity": 91, "channel": 0}, {"type": "note_off", "time": 119, "note": 66, "velocity": 91, "channel": 0}, {"type": "note_on", "time": 11, "note": 69, "velocity": 95, "channel": 0}, {"type": "note_off", "time": 226, "note": 69, "velocity": 95, "channel": 0}, {"type": "note_on", "time": 23, "note": 68, "velocity": 108, "channel": 0}, {"type": "note_off", "time": 412, "note": 68, "velocity": 108, "channel": 0}, {"type": "note_on", "time": 0, "note": 67, "velocity": 107, "channel": 0}, {"type": "note_off", "time": 430, "note": 67, "velocity": 107, "channel": 0}, {"type": "note_on", "time": 1260, "note": 61, "velocity": 100, "channel": 0}, {"type": "note_off", "time": 430, "note": 61, "velocity": 100, "channel": 0}, {"type": "note_on", "time": 23, "note": 65, "velocity": 92, "channel": 0}, {"type": "note_off", "time": 155, "note": 65, "velocity": 92, "channel": 0}, {"type": "note_on", "time": 65, "note": 69, "velocity": 95, "channel": 0}, {"type": "note_off", "time": 483, "note": 69, "velocity": 95, "channel": 0}, {"type": "note_on", "time": 23, "note": 71, "velocity": 99, "channel": 0}, {"type": "note_off", "time": 370, "note": 71, "velocity": 99, "channel": 0}, {"type": "note_on", "time": 0, "note": 63, "velocity": 101, "channel": 0}, {"type": "note_off", "time": 495, "note": 63, "velocity": 101, "channel": 0}, {"type": "note_on", "time": 29, "note": 67, "velocity": 91, "channel": 0}, {"type": "note_off", "time": 143, "note": 67, "velocity": 91, "channel": 0}, {"type": "note_on", "time": 95, "note": 70, "velocity": 100, "channel": 0}, {"type": "note_off", "time": 453, "note": 70, "velocity": 100, "channel": 0}, {"type": "note_on", "time": 59, "note": 70, "velocity": 92, "channel": 0}, {"type": "note_off", "time": 567, "note": 70, "velocity": 92, "channel": 0}, {"type": "note_on", "time": 77, "note": 68, "velocity": 99, "channel": 0}, {"type": "note_off", "time": 185, "note": 68, "velocity": 99, "channel": 0}, {"type": "note_on", "time": 0, "note": 67, "velocity": 101, "channel": 0}, {"type": "note_off", "time": 692, "note": 67, "velocity": 101, "channel": 0}, {"type": "note_on", "time": 155, "note": 67, "velocity": 100, "channel": 0}, {"type": "note_off", "time": 328, "note": 67, "velocity": 100, "channel": 0}, {"type": "note_on", "time": 101, "note": 60, "velocity": 98, "channel": 0}, {"type": "note_off", "time": 274, "note": 60, "velocity": 98, "channel": 0}, {"type": "note_on", "time": 11, "note": 62, "velocity": 96, "channel": 0}, {"type": "note_off", "time": 119, "note": 62, "velocity": 96, "channel": 0}, {"type": "note_on", "time": 29, "note": 65, "velocity": 100, "channel": 0}, {"type": "note_off", "time": 125, "note": 65, "velocity": 100, "channel": 0}, {"type": "note_on", "time": 11, "note": 67, "velocity": 86, "channel": 0}, {"type": "note_off", "time": 137, "note": 67, "velocity": 86, "channel": 0}, {"type": "note_on", "time": 471, "note": 78, "velocity": 102, "channel": 0}, {"type": "note_off", "time": 179, "note": 78, "velocity": 102, "channel": 0}, {"type": "note_on", "time": 0, "note": 79, "velocity": 105, "channel": 0}, {"type": "note_off", "time": 101, "note": 79, "velocity": 105, "channel": 0}, {"type": "note_on", "time": 77, "note": 81, "velocity": 106, "channel": 0}, {"type": "note_off", "time": 394, "note": 81, "velocity": 106, "channel": 0}, {"type": "note_on", "time": 47, "note": 79, "velocity": 93, "channel": 0}, {"type": "note_on", "time": 262, "note": 75, "velocity": 93, "channel": 0}, {"type": "note_off", "time": 0, "note": 79, "velocity": 93, "channel": 0}, {"type": "note_off", "time": 101, "note": 75, "velocity": 93, "channel": 0}, {"type": "note_on", "time": 53, "note": 68, "velocity": 101, "channel": 0}, {"type": "note_off", "time": 173, "note": 68, "velocity": 101, "channel": 0}, {"type": "note_on", "time": 59, "note": 69, "velocity": 99, "channel": 0}, {"type": "note_off", "time": 250, "note": 69, "velocity": 99, "channel": 0}, {"type": "note_on", "time": 23, "note": 68, "velocity": 99, "channel": 0}, {"type": "note_off", "time": 179, "note": 68, "velocity": 99, "channel": 0}, {"type": "note_on", "time": 29, "note": 67, "velocity": 99, "channel": 0}, {"type": "note_off", "time": 328, "note": 67, "velocity": 99, "channel": 0}, {"type": "note_on", "time": 4695, "note": 77, "velocity": 77, "channel": 0}, {"type": "note_off", "time": 155, "note": 77, "velocity": 77, "channel": 0}, {"type": "note_on", "time": 167, "note": 79, "velocity": 102, "channel": 0}, {"type": "note_off", "time": 2688, "note": 79, "velocity": 102, "channel": 0}, {"type": "note_on", "time": 58, "note": 77, "velocity": 98, "channel": 0}, {"type": "note_off", "time": 201, "note": 77, "velocity": 98, "channel": 0}, {"type": "note_on", "time": 25, "note": 79, "velocity": 97, "channel": 0}, {"type": "note_off", "time": 1050, "note": 79, "velocity": 97, "channel": 0}, {"type": "note_on", "time": 42, "note": 68, "velocity": 102, "channel": 0}, {"type": "note_off", "time": 487, "note": 68, "velocity": 102, "channel": 0}, {"type": "note_on", "time": 75, "note": 66, "velocity": 102, "channel": 0}, {"type": "note_off", "time": 319, "note": 66, "velocity": 102, "channel": 0}, {"type": "note_on", "time": 2046, "note": 75, "velocity": 101, "channel": 0}, {"type": "note_off", "time": 209, "note": 75, "velocity": 101, "channel": 0}, {"type": "note_on", "time": 173, "note": 77, "velocity": 94, "channel": 0}, {"type": "note_off", "time": 2198, "note": 77, "velocity": 94, "channel": 0}, {"type": "note_on", "time": 17, "note": 72, "velocity": 101, "channel": 0}, {"type": "note_off", "time": 400, "note": 72, "velocity": 101, "channel": 0}, {"type": "note_on", "time": 53, "note": 46, "velocity": 101, "channel": 0}, {"type": "note_off", "time": 268, "note": 46, "velocity": 101, "channel": 0}, {"type": "note_on", "time": 17, "note": 45, "velocity": 102, "channel": 0}, {"type": "note_off", "time": 1170, "note": 45, "velocity": 102, "channel": 0}, {"type": "note_on", "time": 2144, "note": 78, "velocity": 87, "channel": 0}, {"type": "note_off", "time": 131, "note": 78, "velocity": 87, "channel": 0}, {"type": "note_on", "time": 17, "note": 79, "velocity": 104, "channel": 0}, {"type": "note_off", "time": 1296, "note": 79, "velocity": 104, "channel": 0}, {"type": "note_on", "time": 0, "note": 80, "velocity": 108, "channel": 0}, {"type": "note_off", "time": 161, "note": 80, "velocity": 108, "channel": 0}, {"type": "note_on", "time": 59, "note": 81, "velocity": 105, "channel": 0}, {"type": "note_off", "time": 1069, "note": 81, "velocity": 105, "channel": 0}, {"type": "note_on", "time": 5, "note": 80, "velocity": 103, "channel": 0}, {"type": "note_off", "time": 77, "note": 80, "velocity": 103, "channel": 0}, {"type": "note_on", "time": 23, "note": 77, "velocity": 98, "channel": 0}, {"type": "note_off", "time": 65, "note": 77, "velocity": 98, "channel": 0}, {"type": "note_on", "time": 23, "note": 75, "velocity": 92, "channel": 0}, {"type": "note_off", "time": 47, "note": 75, "velocity": 92, "channel": 0}, {"type": "note_on", "time": 107, "note": 72, "velocity": 100, "channel": 0}, {"type": "note_off", "time": 131, "note": 72, "velocity": 100, "channel": 0}, {"type": "note_on", "time": 71, "note": 70, "velocity": 101, "channel": 0}, {"type": "note_off", "time": 209, "note": 70, "velocity": 101, "channel": 0}, {"type": "note_on", "time": 11, "note": 69, "velocity": 90, "channel": 0}, {"type": "note_off", "time": 221, "note": 69, "velocity": 90, "channel": 0}, {"type": "note_on", "time": 2550, "note": 79, "velocity": 92, "channel": 0}, {"type": "note_off", "time": 201, "note": 79, "velocity": 92, "channel": 0}, {"type": "note_on", "time": 75, "note": 80, "velocity": 100, "channel": 0}, {"type": "note_off", "time": 310, "note": 80, "velocity": 100, "channel": 0}, {"type": "note_on", "time": 0, "note": 81, "velocity": 107, "channel": 0}, {"type": "note_off", "time": 5409, "note": 81, "velocity": 107, "channel": 0}, {"type": "note_on", "time": 134, "note": 80, "velocity": 91, "channel": 0}, {"type": "note_off", "time": 218, "note": 80, "velocity": 91, "channel": 0}, {"type": "note_on", "time": 16, "note": 81, "velocity": 105, "channel": 0}, {"type": "note_off", "time": 1041, "note": 81, "velocity": 105, "channel": 0}, {"type": "note_on", "time": 147, "note": 76, "velocity": 91, "channel": 0}, {"type": "note_off", "time": 370, "note": 76, "velocity": 91, "channel": 0}, {"type": "note_on", "time": 59, "note": 77, "velocity": 87, "channel": 0}, {"type": "note_off", "time": 2795, "note": 77, "velocity": 87, "channel": 0}, {"type": "note_on", "time": 215, "note": 74, "velocity": 97, "channel": 0}, {"type": "note_off", "time": 262, "note": 74, "velocity": 97, "channel": 0}, {"type": "note_on", "time": 80, "note": 73, "velocity": 93, "channel": 0}, {"type": "note_off", "time": 346, "note": 73, "velocity": 93, "channel": 0}, {"type": "note_on", "time": 122, "note": 69, "velocity": 85, "channel": 0}, {"type": "note_off", "time": 191, "note": 69, "velocity": 85, "channel": 0}, {"type": "note_on", "time": 107, "note": 74, "velocity": 92, "channel": 0}, {"type": "note_off", "time": 238, "note": 74, "velocity": 92, "channel": 0}, {"type": "note_on", "time": 107, "note": 72, "velocity": 94, "channel": 0}, {"type": "note_off", "time": 125, "note": 72, "velocity": 94, "channel": 0}, {"type": "note_on", "time": 0, "note": 69, "velocity": 89, "channel": 0}, {"type": "note_off", "time": 465, "note": 69, "velocity": 89, "channel": 0}, {"type": "note_on", "time": 0, "note": 65, "velocity": 94, "channel": 0}, {"type": "note_off", "time": 286, "note": 65, "velocity": 94, "channel": 0}, {"type": "note_on", "time": 17, "note": 62, "velocity": 102, "channel": 0}, {"type": "note_off", "time": 585, "note": 62, "velocity": 102, "channel": 0}, {"type": "note_on", "time": 59, "note": 58, "velocity": 83, "channel": 0}, {"type": "note_off", "time": 155, "note": 58, "velocity": 83, "channel": 0}, {"type": "note_on", "time": 71, "note": 65, "velocity": 94, "channel": 0}, {"type": "note_off", "time": 752, "note": 65, "velocity": 94, "channel": 0}, {"type": "note_on", "time": 89, "note": 67, "velocity": 93, "channel": 0}, {"type": "note_off", "time": 513, "note": 67, "velocity": 93, "channel": 0}, {"type": "note_on", "time": 1953, "note": 67, "velocity": 89, "channel": 0}, {"type": "note_off", "time": 238, "note": 67, "velocity": 89, "channel": 0}, {"type": "note_on", "time": 59, "note": 69, "velocity": 90, "channel": 0}, {"type": "note_off", "time": 418, "note": 69, "velocity": 90, "channel": 0}, {"type": "note_on", "time": 59, "note": 71, "velocity": 87, "channel": 0}, {"type": "note_off", "time": 352, "note": 71, "velocity": 87, "channel": 0}, {"type": "note_on", "time": 117, "note": 67, "velocity": 91, "channel": 0}, {"type": "note_off", "time": 1650, "note": 67, "velocity": 91, "channel": 0}, {"type": "note_on", "time": 134, "note": 65, "velocity": 99, "channel": 0}, {"type": "note_off", "time": 495, "note": 65, "velocity": 99, "channel": 0}, {"type": "note_on", "time": 331, "note": 65, "velocity": 98, "channel": 0}, {"type": "note_off", "time": 1989, "note": 65, "velocity": 98, "channel": 0}, {"type": "note_on", "time": 27, "note": 64, "velocity": 89, "channel": 0}, {"type": "note_off", "time": 138, "note": 64, "velocity": 89, "channel": 0}, {"type": "note_on", "time": 54, "note": 65, "velocity": 92, "channel": 0}, {"type": "note_off", "time": 243, "note": 65, "velocity": 92, "channel": 0}, {"type": "note_on", "time": 117, "note": 62, "velocity": 98, "channel": 0}, {"type": "note_off", "time": 293, "note": 62, "velocity": 98, "channel": 0}, {"type": "note_on", "time": 12, "note": 65, "velocity": 94, "channel": 0}, {"type": "note_off", "time": 289, "note": 65, "velocity": 94, "channel": 0}, {"type": "note_on", "time": 33, "note": 62, "velocity": 101, "channel": 0}, {"type": "note_off", "time": 970, "note": 62, "velocity": 101, "channel": 0}, {"type": "note_on", "time": 12, "note": 59, "velocity": 92, "channel": 0}, {"type": "note_off", "time": 314, "note": 59, "velocity": 92, "channel": 0}, {"type": "note_on", "time": 0, "note": 62, "velocity": 98, "channel": 0}, {"type": "note_off", "time": 403, "note": 62, "velocity": 98, "channel": 0}, {"type": "note_on", "time": 29, "note": 59, "velocity": 90, "channel": 0}, {"type": "note_off", "time": 306, "note": 59, "velocity": 90, "channel": 0}, {"type": "note_on", "time": 71, "note": 57, "velocity": 95, "channel": 0}, {"type": "note_off", "time": 1986, "note": 57, "velocity": 95, "channel": 0}, {"type": "note_on", "time": 29, "note": 53, "velocity": 99, "channel": 0}, {"type": "note_off", "time": 504, "note": 53, "velocity": 99, "channel": 0}, {"type": "note_on", "time": 37, "note": 50, "velocity": 102, "channel": 0}, {"type": "note_off", "time": 323, "note": 50, "velocity": 102, "channel": 0}, {"type": "note_on", "time": 3594, "note": 70, "velocity": 90, "channel": 0}, {"type": "note_off", "time": 215, "note": 70, "velocity": 90, "channel": 0}, {"type": "note_on", "time": 133, "note": 72, "velocity": 93, "channel": 0}, {"type": "note_off", "time": 1722, "note": 72, "velocity": 93, "channel": 0}, {"type": "note_on", "time": 42, "note": 71, "velocity": 98, "channel": 0}, {"type": "note_off", "time": 226, "note": 71, "velocity": 98, "channel": 0}, {"type": "note_on", "time": 8, "note": 72, "velocity": 99, "channel": 0}, {"type": "note_off", "time": 3032, "note": 72, "velocity": 99, "channel": 0}, {"type": "note_on", "time": 142, "note": 72, "velocity": 99, "channel": 0}, {"type": "note_off", "time": 411, "note": 72, "velocity": 99, "channel": 0}, {"type": "note_on", "time": 2, "note": 70, "velocity": 92, "channel": 0}, {"type": "note_off", "time": 286, "note": 70, "velocity": 92, "channel": 0}, {"type": "note_on", "time": 59, "note": 68, "velocity": 91, "channel": 0}, {"type": "note_off", "time": 406, "note": 68, "velocity": 91, "channel": 0}, {"type": "note_on", "time": 47, "note": 65, "velocity": 95, "channel": 0}, {"type": "note_off", "time": 334, "note": 65, "velocity": 95, "channel": 0}, {"type": "note_on", "time": 0, "note": 63, "velocity": 100, "channel": 0}, {"type": "note_off", "time": 507, "note": 63, "velocity": 100, "channel": 0}, {"type": "note_on", "time": 0, "note": 68, "velocity": 94, "channel": 0}, {"type": "note_off", "time": 555, "note": 68, "velocity": 94, "channel": 0}, {"type": "note_on", "time": 2102, "note": 70, "velocity": 104, "channel": 0}, {"type": "note_off", "time": 890, "note": 70, "velocity": 104, "channel": 0}, {"type": "note_on", "time": 29, "note": 69, "velocity": 96, "channel": 0}, {"type": "note_off", "time": 131, "note": 69, "velocity": 96, "channel": 0}, {"type": "note_on", "time": 164, "note": 70, "velocity": 103, "channel": 0}, {"type": "note_off", "time": 1503, "note": 70, "velocity": 103, "channel": 0}, {"type": "note_on", "time": 70, "note": 68, "velocity": 87, "channel": 0}, {"type": "note_off", "time": 334, "note": 68, "velocity": 87, "channel": 0}, {"type": "note_on", "time": 0, "note": 70, "velocity": 98, "channel": 0}, {"type": "note_off", "time": 328, "note": 70, "velocity": 98, "channel": 0}, {"type": "note_on", "time": 5, "note": 72, "velocity": 101, "channel": 0}, {"type": "note_off", "time": 334, "note": 72, "velocity": 101, "channel": 0}, {"type": "note_on", "time": 0, "note": 70, "velocity": 101, "channel": 0}, {"type": "note_off", "time": 979, "note": 70, "velocity": 101, "channel": 0}, {"type": "note_on", "time": 1633, "note": 70, "velocity": 99, "channel": 0}, {"type": "note_off", "time": 449, "note": 70, "velocity": 99, "channel": 0}, {"type": "note_on", "time": 71, "note": 64, "velocity": 97, "channel": 0}, {"type": "note_off", "time": 398, "note": 64, "velocity": 97, "channel": 0}, {"type": "note_on", "time": 0, "note": 65, "velocity": 94, "channel": 0}, {"type": "note_off", "time": 348, "note": 65, "velocity": 94, "channel": 0}, {"type": "note_on", "time": 0, "note": 67, "velocity": 93, "channel": 0}, {"type": "note_off", "time": 369, "note": 67, "velocity": 93, "channel": 0}, {"type": "note_on", "time": 50, "note": 66, "velocity": 89, "channel": 0}, {"type": "note_off", "time": 390, "note": 66, "velocity": 89, "channel": 0}, {"type": "note_on", "time": 0, "note": 63, "velocity": 100, "channel": 0}, {"type": "note_off", "time": 357, "note": 63, "velocity": 100, "channel": 0}, {"type": "note_on", "time": 33, "note": 62, "velocity": 103, "channel": 0}, {"type": "note_off", "time": 428, "note": 62, "velocity": 103, "channel": 0}, {"type": "note_on", "time": 54, "note": 65, "velocity": 93, "channel": 0}, {"type": "note_off", "time": 327, "note": 65, "velocity": 93, "channel": 0}, {"type": "note_on", "time": 0, "note": 63, "velocity": 100, "channel": 0}, {"type": "note_off", "time": 495, "note": 63, "velocity": 100, "channel": 0}, {"type": "note_on", "time": 2730, "note": 63, "velocity": 107, "channel": 0}, {"type": "note_off", "time": 420, "note": 63, "velocity": 107, "channel": 0}, {"type": "note_on", "time": 16, "note": 62, "velocity": 97, "channel": 0}, {"type": "note_off", "time": 424, "note": 62, "velocity": 97, "channel": 0}, {"type": "note_on", "time": 0, "note": 63, "velocity": 100, "channel": 0}, {"type": "note_off", "time": 487, "note": 63, "velocity": 100, "channel": 0}, {"type": "note_on", "time": 50, "note": 66, "velocity": 91, "channel": 0}, {"type": "note_off", "time": 210, "note": 66, "velocity": 91, "channel": 0}, {"type": "note_on", "time": 0, "note": 65, "velocity": 94, "channel": 0}, {"type": "note_off", "time": 268, "note": 65, "velocity": 94, "channel": 0}, {"type": "note_on", "time": 289, "note": 61, "velocity": 94, "channel": 0}, {"type": "note_off", "time": 306, "note": 61, "velocity": 94, "channel": 0}, {"type": "note_on", "time": 113, "note": 58, "velocity": 97, "channel": 0}, {"type": "note_off", "time": 294, "note": 58, "velocity": 97, "channel": 0}, {"type": "note_on", "time": 62, "note": 54, "velocity": 90, "channel": 0}, {"type": "note_off", "time": 403, "note": 54, "velocity": 90, "channel": 0}, {"type": "note_on", "time": 0, "note": 60, "velocity": 100, "channel": 0}, {"type": "note_off", "time": 798, "note": 60, "velocity": 100, "channel": 0}, {"type": "note_on", "time": 2377, "note": 60, "velocity": 101, "channel": 0}, {"type": "note_off", "time": 315, "note": 60, "velocity": 101, "channel": 0}, {"type": "note_on", "time": 42, "note": 61, "velocity": 93, "channel": 0}, {"type": "note_off", "time": 386, "note": 61, "velocity": 93, "channel": 0}, {"type": "note_on", "time": 42, "note": 63, "velocity": 101, "channel": 0}, {"type": "note_off", "time": 537, "note": 63, "velocity": 101, "channel": 0}, {"type": "note_on", "time": 46, "note": 65, "velocity": 96, "channel": 0}, {"type": "note_off", "time": 344, "note": 65, "velocity": 96, "channel": 0}, {"type": "note_on", "time": 4, "note": 62, "velocity": 98, "channel": 0}, {"type": "note_off", "time": 428, "note": 62, "velocity": 98, "channel": 0}, {"type": "note_on", "time": 96, "note": 65, "velocity": 96, "channel": 0}, {"type": "note_off", "time": 298, "note": 65, "velocity": 96, "channel": 0}, {"type": "note_on", "time": 8, "note": 69, "velocity": 91, "channel": 0}, {"type": "note_off", "time": 462, "note": 69, "velocity": 91, "channel": 0}, {"type": "note_on", "time": 21, "note": 72, "velocity": 97, "channel": 0}, {"type": "note_off", "time": 197, "note": 72, "velocity": 97, "channel": 0}, {"type": "note_on", "time": 92, "note": 66, "velocity": 94, "channel": 0}, {"type": "note_off", "time": 256, "note": 66, "velocity": 94, "channel": 0}, {"type": "note_on", "time": 8, "note": 67, "velocity": 98, "channel": 0}, {"type": "note_off", "time": 596, "note": 67, "velocity": 98, "channel": 0}, {"type": "note_on", "time": 92, "note": 71, "velocity": 98, "channel": 0}, {"type": "note_off", "time": 474, "note": 71, "velocity": 98, "channel": 0}, {"type": "note_on", "time": 117, "note": 62, "velocity": 93, "channel": 0}, {"type": "note_off", "time": 302, "note": 62, "velocity": 93, "channel": 0}, {"type": "note_on", "time": 0, "note": 67, "velocity": 94, "channel": 0}, {"type": "note_off", "time": 705, "note": 67, "velocity": 94, "channel": 0}, {"type": "note_on", "time": 50, "note": 71, "velocity": 97, "channel": 0}, {"type": "note_off", "time": 470, "note": 71, "velocity": 97, "channel": 0}, {"type": "note_on", "time": 130, "note": 62, "velocity": 94, "channel": 0}, {"type": "note_off", "time": 285, "note": 62, "velocity": 94, "channel": 0}, {"type": "note_on", "time": 29, "note": 67, "velocity": 94, "channel": 0}, {"type": "note_off", "time": 713, "note": 67, "velocity": 94, "channel": 0}, {"type": "note_on", "time": 96, "note": 69, "velocity": 95, "channel": 0}, {"type": "note_off", "time": 499, "note": 69, "velocity": 95, "channel": 0}, {"type": "note_on", "time": 0, "note": 65, "velocity": 90, "channel": 0}, {"type": "note_off", "time": 382, "note": 65, "velocity": 90, "channel": 0}, {"type": "note_on", "time": 1537, "note": 66, "velocity": 99, "channel": 0}, {"type": "note_off", "time": 386, "note": 66, "velocity": 99, "channel": 0}, {"type": "note_on", "time": 0, "note": 67, "velocity": 96, "channel": 0}, {"type": "note_off", "time": 831, "note": 67, "velocity": 96, "channel": 0}, {"type": "note_on", "time": 2, "note": 62, "velocity": 93, "channel": 0}, {"type": "note_off", "time": 507, "note": 62, "velocity": 93, "channel": 0}, {"type": "note_on", "time": 0, "note": 67, "velocity": 93, "channel": 0}, {"type": "note_off", "time": 531, "note": 67, "velocity": 93, "channel": 0}, {"type": "note_on", "time": 5, "note": 69, "velocity": 94, "channel": 0}, {"type": "note_off", "time": 286, "note": 69, "velocity": 94, "channel": 0}, {"type": "note_on", "time": 0, "note": 71, "velocity": 96, "channel": 0}, {"type": "note_off", "time": 364, "note": 71, "velocity": 96, "channel": 0}, {"type": "note_on", "time": 29, "note": 62, "velocity": 89, "channel": 0}, {"type": "note_off", "time": 316, "note": 62, "velocity": 89, "channel": 0}, {"type": "note_on", "time": 155, "note": 67, "velocity": 91, "channel": 0}, {"type": "note_off", "time": 412, "note": 67, "velocity": 91, "channel": 0}, {"type": "note_on", "time": 35, "note": 69, "velocity": 94, "channel": 0}, {"type": "note_off", "time": 310, "note": 69, "velocity": 94, "channel": 0}, {"type": "note_on", "time": 0, "note": 71, "velocity": 97, "channel": 0}, {"type": "note_off", "time": 364, "note": 71, "velocity": 97, "channel": 0}, {"type": "note_on", "time": 0, "note": 62, "velocity": 89, "channel": 0}, {"type": "note_on", "time": 453, "note": 66, "velocity": 93, "channel": 0}, {"type": "note_off", "time": 0, "note": 62, "velocity": 89, "channel": 0}, {"type": "note_off", "time": 203, "note": 66, "velocity": 93, "channel": 0}, {"type": "note_on", "time": 101, "note": 67, "velocity": 94, "channel": 0}, {"type": "note_off", "time": 358, "note": 67, "velocity": 94, "channel": 0}, {"type": "note_on", "time": 0, "note": 69, "velocity": 92, "channel": 0}, {"type": "note_off", "time": 256, "note": 69, "velocity": 92, "channel": 0}, {"type": "note_on", "time": 0, "note": 71, "velocity": 99, "channel": 0}, {"type": "note_off", "time": 352, "note": 71, "velocity": 99, "channel": 0}, {"type": "note_on", "time": 23, "note": 67, "velocity": 99, "channel": 0}, {"type": "note_off", "time": 645, "note": 67, "velocity": 99, "channel": 0}, {"type": "note_on", "time": 7753, "note": 70, "velocity": 96, "channel": 0}, {"type": "note_off", "time": 197, "note": 70, "velocity": 96, "channel": 0}, {"type": "note_on", "time": 5, "note": 71, "velocity": 97, "channel": 0}, {"type": "note_off", "time": 621, "note": 71, "velocity": 97, "channel": 0}, {"type": "note_on", "time": 29, "note": 74, "velocity": 97, "channel": 0}, {"type": "note_off", "time": 567, "note": 74, "velocity": 97, "channel": 0}, {"type": "note_on", "time": 3578, "note": 70, "velocity": 99, "channel": 0}, {"type": "note_off", "time": 215, "note": 70, "velocity": 99, "channel": 0}, {"type": "note_on", "time": 47, "note": 74, "velocity": 94, "channel": 0}, {"type": "note_off", "time": 1391, "note": 74, "velocity": 94, "channel": 0}, {"type": "note_on", "time": 0, "note": 71, "velocity": 97, "channel": 0}, {"type": "note_off", "time": 448, "note": 71, "velocity": 97, "channel": 0}, {"type": "note_on", "time": 41, "note": 65, "velocity": 90, "channel": 0}, {"type": "note_off", "time": 848, "note": 65, "velocity": 90, "channel": 0}, {"type": "note_on", "time": 2586, "note": 69, "velocity": 93, "channel": 0}, {"type": "note_off", "time": 274, "note": 69, "velocity": 93, "channel": 0}, {"type": "note_on", "time": 131, "note": 71, "velocity": 92, "channel": 0}, {"type": "note_off", "time": 1726, "note": 71, "velocity": 92, "channel": 0}, {"type": "note_on", "time": 226, "note": 65, "velocity": 94, "channel": 0}, {"type": "note_off", "time": 209, "note": 65, "velocity": 94, "channel": 0}, {"type": "note_on", "time": 0, "note": 70, "velocity": 102, "channel": 0}, {"type": "note_on", "time": 274, "note": 71, "velocity": 99, "channel": 0}, {"type": "note_off", "time": 0, "note": 70, "velocity": 102, "channel": 0}, {"type": "note_off", "time": 226, "note": 71, "velocity": 99, "channel": 0}, {"type": "note_on", "time": 41, "note": 74, "velocity": 99, "channel": 0}, {"type": "note_off", "time": 752, "note": 74, "velocity": 99, "channel": 0}, {"type": "note_on", "time": 2634, "note": 71, "velocity": 96, "channel": 0}, {"type": "note_off", "time": 507, "note": 71, "velocity": 96, "channel": 0}, {"type": "note_on", "time": 41, "note": 67, "velocity": 85, "channel": 0}, {"type": "note_off", "time": 322, "note": 67, "velocity": 85, "channel": 0}, {"type": "note_on", "time": 5, "note": 74, "velocity": 94, "channel": 0}, {"type": "note_off", "time": 1660, "note": 74, "velocity": 94, "channel": 0}, {"type": "note_on", "time": 66, "note": 71, "velocity": 96, "channel": 0}, {"type": "note_off", "time": 285, "note": 71, "velocity": 96, "channel": 0}, {"type": "note_on", "time": 67, "note": 74, "velocity": 100, "channel": 0}, {"type": "note_off", "time": 1293, "note": 74, "velocity": 100, "channel": 0}, {"type": "note_on", "time": 50, "note": 71, "velocity": 97, "channel": 0}, {"type": "note_off", "time": 327, "note": 71, "velocity": 97, "channel": 0}, {"type": "note_on", "time": 42, "note": 65, "velocity": 94, "channel": 0}, {"type": "note_off", "time": 504, "note": 65, "velocity": 94, "channel": 0}, {"type": "note_on", "time": 1873, "note": 70, "velocity": 97, "channel": 0}, {"type": "note_off", "time": 364, "note": 70, "velocity": 97, "channel": 0}, {"type": "note_on", "time": 35, "note": 71, "velocity": 97, "channel": 0}, {"type": "note_off", "time": 1146, "note": 71, "velocity": 97, "channel": 0}, {"type": "note_on", "time": 23, "note": 65, "velocity": 87, "channel": 0}, {"type": "note_off", "time": 412, "note": 65, "velocity": 87, "channel": 0}, {"type": "note_on", "time": 17, "note": 71, "velocity": 96, "channel": 0}, {"type": "note_off", "time": 776, "note": 71, "velocity": 96, "channel": 0}, {"type": "note_on", "time": 149, "note": 74, "velocity": 101, "channel": 0}, {"type": "note_on", "time": 352, "note": 73, "velocity": 97, "channel": 0}, {"type": "note_off", "time": 0, "note": 74, "velocity": 101, "channel": 0}, {"type": "note_off", "time": 221, "note": 73, "velocity": 97, "channel": 0}, {"type": "note_on", "time": 267, "note": 70, "velocity": 94, "channel": 0}, {"type": "note_off", "time": 537, "note": 70, "velocity": 94, "channel": 0}, {"type": "note_on", "time": 25, "note": 71, "velocity": 99, "channel": 0}, {"type": "note_off", "time": 663, "note": 71, "velocity": 99, "channel": 0}, {"type": "note_on", "time": 29, "note": 73, "velocity": 102, "channel": 0}, {"type": "note_off", "time": 561, "note": 73, "velocity": 102, "channel": 0}, {"type": "note_on", "time": 63, "note": 74, "velocity": 90, "channel": 0}, {"type": "note_off", "time": 352, "note": 74, "velocity": 90, "channel": 0}, {"type": "note_on", "time": 54, "note": 67, "velocity": 95, "channel": 0}, {"type": "note_off", "time": 189, "note": 67, "velocity": 95, "channel": 0}, {"type": "note_on", "time": 128, "note": 70, "velocity": 92, "channel": 0}, {"type": "note_off", "time": 352, "note": 70, "velocity": 92, "channel": 0}, {"type": "note_on", "time": 35, "note": 74, "velocity": 102, "channel": 0}, {"type": "note_off", "time": 1111, "note": 74, "velocity": 102, "channel": 0}, {"type": "note_on", "time": 619, "note": 74, "velocity": 98, "channel": 0}, {"type": "note_off", "time": 428, "note": 74, "velocity": 98, "channel": 0}, {"type": "note_on", "time": 409, "note": 77, "velocity": 86, "channel": 0}, {"type": "note_off", "time": 1344, "note": 77, "velocity": 86, "channel": 0}, {"type": "note_on", "time": 41, "note": 79, "velocity": 93, "channel": 0}, {"type": "note_off", "time": 137, "note": 79, "velocity": 93, "channel": 0}, {"type": "note_on", "time": 0, "note": 72, "velocity": 99, "channel": 0}, {"type": "note_off", "time": 477, "note": 72, "velocity": 99, "channel": 0}, {"type": "note_on", "time": 41, "note": 74, "velocity": 103, "channel": 0}, {"type": "note_off", "time": 430, "note": 74, "velocity": 103, "channel": 0}, {"type": "note_on", "time": 313, "note": 77, "velocity": 81, "channel": 0}, {"type": "note_off", "time": 756, "note": 77, "velocity": 81, "channel": 0}, {"type": "note_on", "time": 373, "note": 72, "velocity": 100, "channel": 0}, {"type": "note_off", "time": 497, "note": 72, "velocity": 100, "channel": 0}, {"type": "note_on", "time": 0, "note": 74, "velocity": 100, "channel": 0}, {"type": "note_off", "time": 692, "note": 74, "velocity": 100, "channel": 0}, {"type": "note_on", "time": 31, "note": 70, "velocity": 95, "channel": 0}, {"type": "note_off", "time": 415, "note": 70, "velocity": 95, "channel": 0}, {"type": "note_on", "time": 0, "note": 65, "velocity": 93, "channel": 0}, {"type": "note_off", "time": 323, "note": 65, "velocity": 93, "channel": 0}, {"type": "note_on", "time": 47, "note": 67, "velocity": 95, "channel": 0}, {"type": "note_off", "time": 1332, "note": 67, "velocity": 95, "channel": 0}, {"type": "note_on", "time": 17, "note": 66, "velocity": 102, "channel": 0}, {"type": "note_off", "time": 197, "note": 66, "velocity": 102, "channel": 0}, {"type": "note_on", "time": 0, "note": 67, "velocity": 102, "channel": 0}, {"type": "note_off", "time": 268, "note": 67, "velocity": 102, "channel": 0}, {"type": "note_on", "time": 5, "note": 68, "velocity": 95, "channel": 0}, {"type": "note_off", "time": 418, "note": 68, "velocity": 95, "channel": 0}, {"type": "note_on", "time": 13, "note": 65, "velocity": 98, "channel": 0}, {"type": "note_off", "time": 386, "note": 65, "velocity": 98, "channel": 0}, {"type": "note_on", "time": 50, "note": 61, "velocity": 98, "channel": 0}, {"type": "note_off", "time": 298, "note": 61, "velocity": 98, "channel": 0}, {"type": "note_on", "time": 33, "note": 62, "velocity": 98, "channel": 0}, {"type": "note_off", "time": 1451, "note": 62, "velocity": 98, "channel": 0}, {"type": "note_on", "time": 47, "note": 58, "velocity": 95, "channel": 0}, {"type": "note_off", "time": 179, "note": 58, "velocity": 95, "channel": 0}, {"type": "note_on", "time": 23, "note": 55, "velocity": 88, "channel": 0}, {"type": "note_off", "time": 180, "note": 55, "velocity": 88, "channel": 0}, {"type": "note_on", "time": 10, "note": 53, "velocity": 91, "channel": 0}, {"type": "note_off", "time": 243, "note": 53, "velocity": 91, "channel": 0}, {"type": "note_on", "time": 67, "note": 50, "velocity": 101, "channel": 0}, {"type": "note_off", "time": 131, "note": 50, "velocity": 101, "channel": 0}, {"type": "note_on", "time": 11, "note": 48, "velocity": 105, "channel": 0}, {"type": "note_off", "time": 218, "note": 48, "velocity": 105, "channel": 0}, {"type": "note_on", "time": 32, "note": 50, "velocity": 98, "channel": 0}, {"type": "note_off", "time": 222, "note": 50, "velocity": 98, "channel": 0}, {"type": "note_on", "time": 4793, "note": 73, "velocity": 85, "channel": 0}, {"type": "note_off", "time": 151, "note": 73, "velocity": 85, "channel": 0}, {"type": "note_on", "time": 92, "note": 74, "velocity": 90, "channel": 0}, {"type": "note_off", "time": 239, "note": 74, "velocity": 90, "channel": 0}, {"type": "note_on", "time": 8, "note": 75, "velocity": 90, "channel": 0}, {"type": "note_off", "time": 852, "note": 75, "velocity": 90, "channel": 0}, {"type": "note_on", "time": 359, "note": 76, "velocity": 77, "channel": 0}, {"type": "note_off", "time": 95, "note": 76, "velocity": 77, "channel": 0}, {"type": "note_on", "time": 11, "note": 77, "velocity": 79, "channel": 0}, {"type": "note_off", "time": 113, "note": 77, "velocity": 79, "channel": 0}, {"type": "note_on", "time": 36, "note": 78, "velocity": 77, "channel": 0}, {"type": "note_off", "time": 377, "note": 78, "velocity": 77, "channel": 0}, {"type": "note_on", "time": 67, "note": 76, "velocity": 84, "channel": 0}, {"type": "note_off", "time": 285, "note": 76, "velocity": 84, "channel": 0}, {"type": "note_on", "time": 33, "note": 77, "velocity": 86, "channel": 0}, {"type": "note_off", "time": 285, "note": 77, "velocity": 86, "channel": 0}, {"type": "note_on", "time": 60, "note": 78, "velocity": 84, "channel": 0}, {"type": "note_off", "time": 2723, "note": 78, "velocity": 84, "channel": 0}, {"type": "note_on", "time": 11, "note": 76, "velocity": 103, "channel": 0}, {"type": "note_off", "time": 316, "note": 76, "velocity": 103, "channel": 0}, {"type": "note_on", "time": 0, "note": 75, "velocity": 102, "channel": 0}, {"type": "note_off", "time": 400, "note": 75, "velocity": 102, "channel": 0}, {"type": "note_on", "time": 292, "note": 72, "velocity": 93, "channel": 0}, {"type": "note_off", "time": 531, "note": 72, "velocity": 93, "channel": 0}, {"type": "note_on", "time": 47, "note": 73, "velocity": 95, "channel": 0}, {"type": "note_off", "time": 2043, "note": 73, "velocity": 95, "channel": 0}, {"type": "note_on", "time": 65, "note": 71, "velocity": 89, "channel": 0}, {"type": "note_off", "time": 197, "note": 71, "velocity": 89, "channel": 0}, {"type": "note_on", "time": 0, "note": 72, "velocity": 92, "channel": 0}, {"type": "note_off", "time": 167, "note": 72, "velocity": 92, "channel": 0}, {"type": "note_on", "time": 29, "note": 73, "velocity": 93, "channel": 0}, {"type": "note_off", "time": 209, "note": 73, "velocity": 93, "channel": 0}, {"type": "note_on", "time": 11, "note": 75, "velocity": 90, "channel": 0}, {"type": "note_off", "time": 585, "note": 75, "velocity": 90, "channel": 0}, {"type": "note_on", "time": 35, "note": 68, "velocity": 89, "channel": 0}, {"type": "note_off", "time": 310, "note": 68, "velocity": 89, "channel": 0}, {"type": "note_on", "time": 0, "note": 67, "velocity": 89, "channel": 0}, {"type": "note_off", "time": 453, "note": 67, "velocity": 89, "channel": 0}, {"type": "note_on", "time": 11, "note": 68, "velocity": 87, "channel": 0}, {"type": "note_off", "time": 1576, "note": 68, "velocity": 87, "channel": 0}, {"type": "note_on", "time": 0, "note": 67, "velocity": 88, "channel": 0}, {"type": "note_off", "time": 137, "note": 67, "velocity": 88, "channel": 0}, {"type": "note_on", "time": 11, "note": 66, "velocity": 89, "channel": 0}, {"type": "note_off", "time": 430, "note": 66, "velocity": 89, "channel": 0}, {"type": "note_on", "time": 35, "note": 68, "velocity": 89, "channel": 0}, {"type": "note_off", "time": 221, "note": 68, "velocity": 89, "channel": 0}, {"type": "note_on", "time": 77, "note": 70, "velocity": 82, "channel": 0}, {"type": "note_off", "time": 304, "note": 70, "velocity": 82, "channel": 0}, {"type": "note_on", "time": 35, "note": 61, "velocity": 83, "channel": 0}, {"type": "note_off", "time": 209, "note": 61, "velocity": 83, "channel": 0}, {"type": "note_on", "time": 0, "note": 62, "velocity": 88, "channel": 0}, {"type": "note_off", "time": 131, "note": 62, "velocity": 88, "channel": 0}, {"type": "note_on", "time": 41, "note": 63, "velocity": 98, "channel": 0}, {"type": "note_off", "time": 1750, "note": 63, "velocity": 98, "channel": 0}, {"type": "note_on", "time": 23, "note": 66, "velocity": 94, "channel": 0}, {"type": "note_off", "time": 274, "note": 66, "velocity": 94, "channel": 0}, {"type": "note_on", "time": 5, "note": 63, "velocity": 94, "channel": 0}, {"type": "note_off", "time": 250, "note": 63, "velocity": 94, "channel": 0}, {"type": "note_on", "time": 0, "note": 61, "velocity": 89, "channel": 0}, {"type": "note_off", "time": 238, "note": 61, "velocity": 89, "channel": 0}, {"type": "note_on", "time": 0, "note": 58, "velocity": 90, "channel": 0}, {"type": "note_off", "time": 430, "note": 58, "velocity": 90, "channel": 0}, {"type": "note_on", "time": 5, "note": 55, "velocity": 83, "channel": 0}, {"type": "note_off", "time": 250, "note": 55, "velocity": 83, "channel": 0}, {"type": "note_on", "time": 179, "note": 58, "velocity": 87, "channel": 0}, {"type": "note_off", "time": 268, "note": 58, "velocity": 87, "channel": 0}, {"type": "note_on", "time": 35, "note": 57, "velocity": 94, "channel": 0}, {"type": "note_off", "time": 316, "note": 57, "velocity": 94, "channel": 0}, {"type": "note_on", "time": 0, "note": 53, "velocity": 91, "channel": 0}, {"type": "note_off", "time": 232, "note": 53, "velocity": 91, "channel": 0}, {"type": "note_on", "time": 17, "note": 54, "velocity": 89, "channel": 0}, {"type": "note_off", "time": 234, "note": 54, "velocity": 89, "channel": 0}, {"type": "note_on", "time": 0, "note": 53, "velocity": 93, "channel": 0}, {"type": "note_off", "time": 159, "note": 53, "velocity": 93, "channel": 0}, {"type": "note_on", "time": 0, "note": 50, "velocity": 106, "channel": 0}, {"type": "note_off", "time": 151, "note": 50, "velocity": 106, "channel": 0}, {"type": "note_on", "time": 50, "note": 47, "velocity": 92, "channel": 0}, {"type": "note_off", "time": 243, "note": 47, "velocity": 92, "channel": 0}, {"type": "note_on", "time": 27, "note": 46, "velocity": 87, "channel": 0}, {"type": "note_off", "time": 2222, "note": 46, "velocity": 87, "channel": 0}, {"type": "note_on", "time": 95, "note": 43, "velocity": 98, "channel": 0}, {"type": "note_off", "time": 597, "note": 43, "velocity": 98, "channel": 0}, {"type": "note_on", "time": 0, "note": 51, "velocity": 91, "channel": 0}, {"type": "note_off", "time": 465, "note": 51, "velocity": 91, "channel": 0}, {"type": "note_on", "time": 3070, "note": 71, "velocity": 96, "channel": 0}, {"type": "note_off", "time": 155, "note": 71, "velocity": 96, "channel": 0}, {"type": "note_on", "time": 107, "note": 73, "velocity": 97, "channel": 0}, {"type": "note_off", "time": 2313, "note": 73, "velocity": 97, "channel": 0}, {"type": "note_on", "time": 0, "note": 74, "velocity": 102, "channel": 0}, {"type": "note_off", "time": 520, "note": 74, "velocity": 102, "channel": 0}, {"type": "note_on", "time": 378, "note": 77, "velocity": 100, "channel": 0}, {"type": "note_off", "time": 965, "note": 77, "velocity": 100, "channel": 0}, {"type": "note_on", "time": 0, "note": 72, "velocity": 104, "channel": 0}, {"type": "note_off", "time": 327, "note": 72, "velocity": 104, "channel": 0}, {"type": "note_on", "time": 8, "note": 74, "velocity": 102, "channel": 0}, {"type": "note_off", "time": 369, "note": 74, "velocity": 102, "channel": 0}, {"type": "note_on", "time": 0, "note": 73, "velocity": 104, "channel": 0}, {"type": "note_off", "time": 117, "note": 73, "velocity": 104, "channel": 0}, {"type": "note_on", "time": 8, "note": 71, "velocity": 89, "channel": 0}, {"type": "note_off", "time": 92, "note": 71, "velocity": 89, "channel": 0}, {"type": "note_on", "time": 8, "note": 70, "velocity": 95, "channel": 0}, {"type": "note_off", "time": 293, "note": 70, "velocity": 95, "channel": 0}, {"type": "note_on", "time": 117, "note": 67, "velocity": 90, "channel": 0}, {"type": "note_off", "time": 210, "note": 67, "velocity": 90, "channel": 0}, {"type": "note_on", "time": 50, "note": 69, "velocity": 97, "channel": 0}, {"type": "note_off", "time": 235, "note": 69, "velocity": 97, "channel": 0}, {"type": "note_on", "time": 50, "note": 67, "velocity": 94, "channel": 0}, {"type": "note_off", "time": 226, "note": 67, "velocity": 94, "channel": 0}, {"type": "note_on", "time": 5, "note": 68, "velocity": 99, "channel": 0}, {"type": "note_off", "time": 430, "note": 68, "velocity": 99, "channel": 0}, {"type": "note_on", "time": 17, "note": 67, "velocity": 91, "channel": 0}, {"type": "note_off", "time": 203, "note": 67, "velocity": 91, "channel": 0}, {"type": "note_on", "time": 207, "note": 62, "velocity": 93, "channel": 0}, {"type": "note_off", "time": 352, "note": 62, "velocity": 93, "channel": 0}, {"type": "note_on", "time": 66, "note": 61, "velocity": 92, "channel": 0}, {"type": "note_off", "time": 663, "note": 61, "velocity": 92, "channel": 0}, {"type": "note_on", "time": 29, "note": 62, "velocity": 99, "channel": 0}, {"type": "note_on", "time": 346, "note": 58, "velocity": 95, "channel": 0}, {"type": "note_off", "time": 0, "note": 62, "velocity": 99, "channel": 0}, {"type": "note_off", "time": 209, "note": 58, "velocity": 95, "channel": 0}, {"type": "note_on", "time": 47, "note": 55, "velocity": 89, "channel": 0}, {"type": "note_off", "time": 149, "note": 55, "velocity": 89, "channel": 0}, {"type": "note_on", "time": 11, "note": 54, "velocity": 90, "channel": 0}, {"type": "note_off", "time": 179, "note": 54, "velocity": 90, "channel": 0}, {"type": "note_on", "time": 195, "note": 49, "velocity": 89, "channel": 0}, {"type": "note_off", "time": 256, "note": 49, "velocity": 89, "channel": 0}, {"type": "note_on", "time": 2, "note": 50, "velocity": 94, "channel": 0}, {"type": "note_off", "time": 669, "note": 50, "velocity": 94, "channel": 0}, {"type": "note_on", "time": 0, "note": 46, "velocity": 92, "channel": 0}, {"type": "note_off", "time": 621, "note": 46, "velocity": 92, "channel": 0}, {"type": "note_on", "time": 2084, "note": 77, "velocity": 94, "channel": 0}, {"type": "note_off", "time": 137, "note": 77, "velocity": 94, "channel": 0}, {"type": "note_on", "time": 46, "note": 79, "velocity": 103, "channel": 0}, {"type": "note_off", "time": 982, "note": 79, "velocity": 103, "channel": 0}, {"type": "note_on", "time": 16, "note": 84, "velocity": 97, "channel": 0}, {"type": "note_off", "time": 541, "note": 84, "velocity": 97, "channel": 0}, {"type": "note_on", "time": 188, "note": 78, "velocity": 57, "channel": 0}, {"type": "note_off", "time": 289, "note": 78, "velocity": 57, "channel": 0}, {"type": "note_on", "time": 84, "note": 73, "velocity": 105, "channel": 0}, {"type": "note_off", "time": 315, "note": 73, "velocity": 105, "channel": 0}, {"type": "note_on", "time": 16, "note": 74, "velocity": 105, "channel": 0}, {"type": "note_off", "time": 369, "note": 74, "velocity": 105, "channel": 0}, {"type": "note_on", "time": 327, "note": 76, "velocity": 84, "channel": 0}, {"type": "note_off", "time": 117, "note": 76, "velocity": 84, "channel": 0}, {"type": "note_on", "time": 12, "note": 77, "velocity": 100, "channel": 0}, {"type": "note_off", "time": 898, "note": 77, "velocity": 100, "channel": 0}, {"type": "note_on", "time": 117, "note": 73, "velocity": 111, "channel": 0}, {"type": "note_off", "time": 260, "note": 73, "velocity": 111, "channel": 0}, {"type": "note_on", "time": 0, "note": 72, "velocity": 104, "channel": 0}, {"type": "note_off", "time": 155, "note": 72, "velocity": 104, "channel": 0}, {"type": "note_on", "time": 0, "note": 74, "velocity": 107, "channel": 0}, {"type": "note_off", "time": 747, "note": 74, "velocity": 107, "channel": 0}, {"type": "note_on", "time": 71, "note": 72, "velocity": 108, "channel": 0}, {"type": "note_off", "time": 529, "note": 72, "velocity": 108, "channel": 0}, {"type": "note_on", "time": 20, "note": 73, "velocity": 107, "channel": 0}, {"type": "note_off", "time": 1066, "note": 73, "velocity": 107, "channel": 0}, {"type": "note_on", "time": 50, "note": 72, "velocity": 98, "channel": 0}, {"type": "note_off", "time": 138, "note": 72, "velocity": 98, "channel": 0}, {"type": "note_on", "time": 71, "note": 71, "velocity": 105, "channel": 0}, {"type": "note_off", "time": 298, "note": 71, "velocity": 105, "channel": 0}, {"type": "note_on", "time": 12, "note": 70, "velocity": 100, "channel": 0}, {"type": "note_off", "time": 92, "note": 70, "velocity": 100, "channel": 0}, {"type": "note_on", "time": 167, "note": 66, "velocity": 99, "channel": 0}, {"type": "note_off", "time": 432, "note": 66, "velocity": 99, "channel": 0}, {"type": "note_on", "time": 58, "note": 67, "velocity": 98, "channel": 0}, {"type": "note_off", "time": 529, "note": 67, "velocity": 98, "channel": 0}, {"type": "note_on", "time": 21, "note": 68, "velocity": 105, "channel": 0}, {"type": "note_on", "time": 928, "note": 61, "velocity": 100, "channel": 0}, {"type": "note_off", "time": 0, "note": 68, "velocity": 105, "channel": 0}, {"type": "note_off", "time": 134, "note": 61, "velocity": 100, "channel": 0}, {"type": "note_on", "time": 8, "note": 62, "velocity": 107, "channel": 0}, {"type": "note_off", "time": 621, "note": 62, "velocity": 107, "channel": 0}, {"type": "note_on", "time": 8, "note": 65, "velocity": 109, "channel": 0}, {"type": "note_off", "time": 705, "note": 65, "velocity": 109, "channel": 0}, {"type": "note_on", "time": 2646, "note": 67, "velocity": 100, "channel": 0}, {"type": "note_off", "time": 441, "note": 67, "velocity": 100, "channel": 0}, {"type": "note_on", "time": 79, "note": 62, "velocity": 101, "channel": 0}, {"type": "note_off", "time": 462, "note": 62, "velocity": 101, "channel": 0}, {"type": "note_on", "time": 8, "note": 65, "velocity": 105, "channel": 0}, {"type": "note_off", "time": 676, "note": 65, "velocity": 105, "channel": 0}, {"type": "note_on", "time": 63, "note": 67, "velocity": 102, "channel": 0}, {"type": "note_off", "time": 2257, "note": 67, "velocity": 102, "channel": 0}, {"type": "note_on", "time": 35, "note": 67, "velocity": 103, "channel": 0}, {"type": "note_off", "time": 1887, "note": 67, "velocity": 103, "channel": 0}, {"type": "note_on", "time": 23, "note": 65, "velocity": 105, "channel": 0}, {"type": "note_off", "time": 394, "note": 65, "velocity": 105, "channel": 0}, {"type": "note_on", "time": 23, "note": 69, "velocity": 103, "channel": 0}, {"type": "note_off", "time": 525, "note": 69, "velocity": 103, "channel": 0}, {"type": "note_on", "time": 32, "note": 68, "velocity": 95, "channel": 0}, {"type": "note_off", "time": 50, "note": 68, "velocity": 95, "channel": 0}, {"type": "note_on", "time": 33, "note": 67, "velocity": 93, "channel": 0}, {"type": "note_off", "time": 210, "note": 67, "velocity": 93, "channel": 0}, {"type": "note_on", "time": 2041, "note": 69, "velocity": 102, "channel": 0}, {"type": "note_off", "time": 621, "note": 69, "velocity": 102, "channel": 0}, {"type": "note_on", "time": 0, "note": 67, "velocity": 97, "channel": 0}, {"type": "note_off", "time": 260, "note": 67, "velocity": 97, "channel": 0}, {"type": "note_on", "time": 319, "note": 69, "velocity": 100, "channel": 0}, {"type": "note_off", "time": 1604, "note": 69, "velocity": 100, "channel": 0}, {"type": "note_on", "time": 0, "note": 67, "velocity": 105, "channel": 0}, {"type": "note_off", "time": 327, "note": 67, "velocity": 105, "channel": 0}, {"type": "note_on", "time": 41, "note": 65, "velocity": 103, "channel": 0}, {"type": "note_off", "time": 529, "note": 65, "velocity": 103, "channel": 0}, {"type": "note_on", "time": 2750, "note": 46, "velocity": 106, "channel": 0}, {"type": "note_off", "time": 424, "note": 46, "velocity": 106, "channel": 0}, {"type": "note_on", "time": 500, "note": 53, "velocity": 107, "channel": 0}, {"type": "note_off", "time": 346, "note": 53, "velocity": 107, "channel": 0}, {"type": "note_on", "time": 60, "note": 56, "velocity": 102, "channel": 0}, {"type": "note_off", "time": 247, "note": 56, "velocity": 102, "channel": 0}, {"type": "note_on", "time": 75, "note": 52, "velocity": 102, "channel": 0}, {"type": "note_off", "time": 327, "note": 52, "velocity": 102, "channel": 0}, {"type": "note_on", "time": 25, "note": 53, "velocity": 99, "channel": 0}, {"type": "note_off", "time": 252, "note": 53, "velocity": 99, "channel": 0}, {"type": "note_on", "time": 25, "note": 54, "velocity": 95, "channel": 0}, {"type": "note_off", "time": 159, "note": 54, "velocity": 95, "channel": 0}, {"type": "note_on", "time": 51, "note": 57, "velocity": 99, "channel": 0}, {"type": "note_off", "time": 316, "note": 57, "velocity": 99, "channel": 0}, {"type": "note_on", "time": 0, "note": 59, "velocity": 99, "channel": 0}, {"type": "note_off", "time": 194, "note": 59, "velocity": 99, "channel": 0}, {"type": "note_on", "time": 0, "note": 51, "velocity": 103, "channel": 0}, {"type": "note_off", "time": 369, "note": 51, "velocity": 103, "channel": 0}, {"type": "note_on", "time": 0, "note": 52, "velocity": 96, "channel": 0}, {"type": "note_off", "time": 323, "note": 52, "velocity": 96, "channel": 0}, {"type": "note_on", "time": 2337, "note": 69, "velocity": 101, "channel": 0}, {"type": "note_off", "time": 430, "note": 69, "velocity": 101, "channel": 0}, {"type": "note_on", "time": 33, "note": 66, "velocity": 92, "channel": 0}, {"type": "note_off", "time": 226, "note": 66, "velocity": 92, "channel": 0}, {"type": "note_on", "time": 56, "note": 69, "velocity": 95, "channel": 0}, {"type": "note_off", "time": 1009, "note": 69, "velocity": 95, "channel": 0}, {"type": "note_on", "time": 47, "note": 69, "velocity": 102, "channel": 0}, {"type": "note_off", "time": 346, "note": 69, "velocity": 102, "channel": 0}, {"type": "note_on", "time": 39, "note": 62, "velocity": 107, "channel": 0}, {"type": "note_off", "time": 394, "note": 62, "velocity": 107, "channel": 0}, {"type": "note_on", "time": 139, "note": 66, "velocity": 104, "channel": 0}, {"type": "note_off", "time": 299, "note": 66, "velocity": 104, "channel": 0}, {"type": "note_on", "time": 0, "note": 69, "velocity": 106, "channel": 0}, {"type": "note_off", "time": 812, "note": 69, "velocity": 106, "channel": 0}, {"type": "note_on", "time": 2579, "note": 63, "velocity": 104, "channel": 0}, {"type": "note_off", "time": 394, "note": 63, "velocity": 104, "channel": 0}, {"type": "note_on", "time": 0, "note": 68, "velocity": 96, "channel": 0}, {"type": "note_off", "time": 155, "note": 68, "velocity": 96, "channel": 0}, {"type": "note_on", "time": 0, "note": 69, "velocity": 93, "channel": 0}, {"type": "note_off", "time": 520, "note": 69, "velocity": 93, "channel": 0}, {"type": "note_on", "time": 63, "note": 69, "velocity": 95, "channel": 0}, {"type": "note_off", "time": 428, "note": 69, "velocity": 95, "channel": 0}, {"type": "note_on", "time": 516, "note": 68, "velocity": 88, "channel": 0}, {"type": "note_off", "time": 260, "note": 68, "velocity": 88, "channel": 0}, {"type": "note_on", "time": 50, "note": 59, "velocity": 94, "channel": 0}, {"type": "note_off", "time": 457, "note": 59, "velocity": 94, "channel": 0}, {"type": "note_on", "time": 79, "note": 71, "velocity": 87, "channel": 0}, {"type": "note_off", "time": 243, "note": 71, "velocity": 87, "channel": 0}, {"type": "note_on", "time": 461, "note": 71, "velocity": 97, "channel": 0}, {"type": "note_off", "time": 645, "note": 71, "velocity": 97, "channel": 0}, {"type": "note_on", "time": 83, "note": 59, "velocity": 92, "channel": 0}, {"type": "note_off", "time": 441, "note": 59, "velocity": 92, "channel": 0}, {"type": "note_on", "time": 78, "note": 71, "velocity": 84, "channel": 0}, {"type": "note_off", "time": 264, "note": 71, "velocity": 84, "channel": 0}, {"type": "note_on", "time": 180, "note": 71, "velocity": 95, "channel": 0}, {"type": "note_off", "time": 407, "note": 71, "velocity": 95, "channel": 0}, {"type": "note_on", "time": 134, "note": 57, "velocity": 99, "channel": 0}, {"type": "note_off", "time": 487, "note": 57, "velocity": 99, "channel": 0}, {"type": "note_on", "time": 369, "note": 60, "velocity": 89, "channel": 0}, {"type": "note_off", "time": 348, "note": 60, "velocity": 89, "channel": 0}, {"type": "note_on", "time": 168, "note": 60, "velocity": 88, "channel": 0}, {"type": "note_off", "time": 302, "note": 60, "velocity": 88, "channel": 0}, {"type": "note_on", "time": 33, "note": 69, "velocity": 93, "channel": 0}, {"type": "note_off", "time": 474, "note": 69, "velocity": 93, "channel": 0}, {"type": "note_on", "time": 180, "note": 69, "velocity": 96, "channel": 0}, {"type": "note_off", "time": 382, "note": 69, "velocity": 96, "channel": 0}, {"type": "note_on", "time": 151, "note": 69, "velocity": 93, "channel": 0}, {"type": "note_off", "time": 478, "note": 69, "velocity": 93, "channel": 0}, {"type": "note_on", "time": 264, "note": 58, "velocity": 90, "channel": 0}, {"type": "note_off", "time": 336, "note": 58, "velocity": 90, "channel": 0}, {"type": "note_on", "time": 151, "note": 69, "velocity": 81, "channel": 0}, {"type": "note_off", "time": 348, "note": 69, "velocity": 81, "channel": 0}, {"type": "note_on", "time": 260, "note": 72, "velocity": 101, "channel": 0}, {"type": "note_off", "time": 478, "note": 72, "velocity": 101, "channel": 0}, {"type": "note_on", "time": 12, "note": 71, "velocity": 100, "channel": 0}, {"type": "note_off", "time": 327, "note": 71, "velocity": 100, "channel": 0}, {"type": "note_on", "time": 1188, "note": 57, "velocity": 100, "channel": 0}, {"type": "note_off", "time": 487, "note": 57, "velocity": 100, "channel": 0}, {"type": "note_on", "time": 84, "note": 69, "velocity": 102, "channel": 0}, {"type": "note_off", "time": 331, "note": 69, "velocity": 102, "channel": 0}, {"type": "note_on", "time": 180, "note": 69, "velocity": 104, "channel": 0}, {"type": "note_off", "time": 373, "note": 69, "velocity": 104, "channel": 0}, {"type": "note_on", "time": 180, "note": 63, "velocity": 97, "channel": 0}, {"type": "note_off", "time": 415, "note": 63, "velocity": 97, "channel": 0}, {"type": "note_on", "time": 42, "note": 71, "velocity": 107, "channel": 0}, {"type": "note_off", "time": 415, "note": 71, "velocity": 107, "channel": 0}, {"type": "note_on", "time": 281, "note": 71, "velocity": 107, "channel": 0}, {"type": "note_off", "time": 399, "note": 71, "velocity": 107, "channel": 0}, {"type": "note_on", "time": 46, "note": 63, "velocity": 107, "channel": 0}, {"type": "note_off", "time": 524, "note": 63, "velocity": 107, "channel": 0}, {"type": "note_on", "time": 0, "note": 69, "velocity": 102, "channel": 0}, {"type": "note_off", "time": 319, "note": 69, "velocity": 102, "channel": 0}, {"type": "note_on", "time": 113, "note": 69, "velocity": 104, "channel": 0}, {"type": "note_off", "time": 432, "note": 69, "velocity": 104, "channel": 0}, {"type": "note_on", "time": 195, "note": 65, "velocity": 112, "channel": 0}, {"type": "note_off", "time": 301, "note": 65, "velocity": 112, "channel": 0}, {"type": "note_on", "time": 62, "note": 66, "velocity": 106, "channel": 0}, {"type": "note_off", "time": 208, "note": 66, "velocity": 106, "channel": 0}, {"type": "note_on", "time": 0, "note": 71, "velocity": 104, "channel": 0}, {"type": "note_off", "time": 373, "note": 71, "velocity": 104, "channel": 0}, {"type": "note_on", "time": 335, "note": 71, "velocity": 88, "channel": 0}, {"type": "note_off", "time": 336, "note": 71, "velocity": 88, "channel": 0}, {"type": "note_on", "time": 1562, "note": 63, "velocity": 117, "channel": 0}, {"type": "note_off", "time": 453, "note": 63, "velocity": 117, "channel": 0}, {"type": "note_on", "time": 50, "note": 69, "velocity": 102, "channel": 0}, {"type": "note_off", "time": 466, "note": 69, "velocity": 102, "channel": 0}, {"type": "note_on", "time": 251, "note": 69, "velocity": 109, "channel": 0}, {"type": "note_off", "time": 344, "note": 69, "velocity": 109, "channel": 0}, {"type": "note_on", "time": 25, "note": 62, "velocity": 109, "channel": 0}, {"type": "note_on", "time": 344, "note": 63, "velocity": 107, "channel": 0}, {"type": "note_off", "time": 0, "note": 62, "velocity": 109, "channel": 0}, {"type": "note_off", "time": 293, "note": 63, "velocity": 107, "channel": 0}, {"type": "note_on", "time": 4, "note": 71, "velocity": 97, "channel": 0}, {"type": "note_off", "time": 449, "note": 71, "velocity": 97, "channel": 0}, {"type": "note_on", "time": 210, "note": 71, "velocity": 107, "channel": 0}, {"type": "note_off", "time": 399, "note": 71, "velocity": 107, "channel": 0}, {"type": "note_on", "time": 105, "note": 61, "velocity": 102, "channel": 0}, {"type": "note_off", "time": 310, "note": 61, "velocity": 102, "channel": 0}, {"type": "note_on", "time": 0, "note": 62, "velocity": 102, "channel": 0}, {"type": "note_on", "time": 268, "note": 69, "velocity": 103, "channel": 0}, {"type": "note_off", "time": 0, "note": 62, "velocity": 102, "channel": 0}, {"type": "note_off", "time": 373, "note": 69, "velocity": 103, "channel": 0}, {"type": "note_on", "time": 130, "note": 69, "velocity": 102, "channel": 0}, {"type": "note_off", "time": 424, "note": 69, "velocity": 102, "channel": 0}, {"type": "note_on", "time": 138, "note": 58, "velocity": 100, "channel": 0}, {"type": "note_off", "time": 327, "note": 58, "velocity": 100, "channel": 0}, {"type": "note_on", "time": 16, "note": 59, "velocity": 98, "channel": 0}, {"type": "note_off", "time": 231, "note": 59, "velocity": 98, "channel": 0}, {"type": "note_on", "time": 0, "note": 70, "velocity": 99, "channel": 0}, {"type": "note_off", "time": 365, "note": 70, "velocity": 99, "channel": 0}, {"type": "note_on", "time": 205, "note": 70, "velocity": 101, "channel": 0}, {"type": "note_off", "time": 403, "note": 70, "velocity": 101, "channel": 0}, {"type": "note_on", "time": 67, "note": 65, "velocity": 109, "channel": 0}, {"type": "note_off", "time": 251, "note": 65, "velocity": 109, "channel": 0}, {"type": "note_on", "time": 0, "note": 67, "velocity": 114, "channel": 0}, {"type": "note_off", "time": 344, "note": 67, "velocity": 114, "channel": 0}, {"type": "note_on", "time": 37, "note": 68, "velocity": 103, "channel": 0}, {"type": "note_off", "time": 306, "note": 68, "velocity": 103, "channel": 0}, {"type": "note_on", "time": 54, "note": 72, "velocity": 99, "channel": 0}, {"type": "note_off", "time": 403, "note": 72, "velocity": 99, "channel": 0}, {"type": "note_on", "time": 180, "note": 72, "velocity": 95, "channel": 0}, {"type": "note_off", "time": 243, "note": 72, "velocity": 95, "channel": 0}, {"type": "note_on", "time": 1407, "note": 58, "velocity": 103, "channel": 0}, {"type": "note_off", "time": 491, "note": 58, "velocity": 103, "channel": 0}, {"type": "note_on", "time": 29, "note": 69, "velocity": 96, "channel": 0}, {"type": "note_off", "time": 121, "note": 69, "velocity": 96, "channel": 0}, {"type": "note_on", "time": 8, "note": 70, "velocity": 99, "channel": 0}, {"type": "note_off", "time": 310, "note": 70, "velocity": 99, "channel": 0}, {"type": "note_on", "time": 197, "note": 70, "velocity": 102, "channel": 0}, {"type": "note_off", "time": 411, "note": 70, "velocity": 102, "channel": 0}, {"type": "note_on", "time": 109, "note": 58, "velocity": 106, "channel": 0}, {"type": "note_off", "time": 461, "note": 58, "velocity": 106, "channel": 0}, {"type": "note_on", "time": 0, "note": 71, "velocity": 106, "channel": 0}, {"type": "note_off", "time": 239, "note": 71, "velocity": 106, "channel": 0}, {"type": "note_on", "time": 0, "note": 70, "velocity": 101, "channel": 0}, {"type": "note_off", "time": 336, "note": 70, "velocity": 101, "channel": 0}, {"type": "note_on", "time": 147, "note": 70, "velocity": 105, "channel": 0}, {"type": "note_off", "time": 340, "note": 70, "velocity": 105, "channel": 0}, {"type": "note_on", "time": 83, "note": 62, "velocity": 110, "channel": 0}, {"type": "note_off", "time": 445, "note": 62, "velocity": 110, "channel": 0}, {"type": "note_on", "time": 0, "note": 63, "velocity": 104, "channel": 0}, {"type": "note_off", "time": 235, "note": 63, "velocity": 104, "channel": 0}, {"type": "note_on", "time": 0, "note": 72, "velocity": 100, "channel": 0}, {"type": "note_off", "time": 361, "note": 72, "velocity": 100, "channel": 0}, {"type": "note_on", "time": 214, "note": 72, "velocity": 96, "channel": 0}, {"type": "note_off", "time": 373, "note": 72, "velocity": 96, "channel": 0}, {"type": "note_on", "time": 96, "note": 58, "velocity": 103, "channel": 0}, {"type": "note_off", "time": 474, "note": 58, "velocity": 103, "channel": 0}, {"type": "note_on", "time": 0, "note": 70, "velocity": 97, "channel": 0}, {"type": "note_off", "time": 361, "note": 70, "velocity": 97, "channel": 0}, {"type": "note_on", "time": 243, "note": 70, "velocity": 101, "channel": 0}, {"type": "note_off", "time": 390, "note": 70, "velocity": 101, "channel": 0}, {"type": "note_on", "time": 41, "note": 59, "velocity": 108, "channel": 0}, {"type": "note_off", "time": 420, "note": 59, "velocity": 108, "channel": 0}, {"type": "note_on", "time": 16, "note": 60, "velocity": 106, "channel": 0}, {"type": "note_off", "time": 289, "note": 60, "velocity": 106, "channel": 0}, {"type": "note_on", "time": 63, "note": 72, "velocity": 105, "channel": 0}, {"type": "note_off", "time": 441, "note": 72, "velocity": 105, "channel": 0}, {"type": "note_on", "time": 138, "note": 72, "velocity": 97, "channel": 0}, {"type": "note_off", "time": 508, "note": 72, "velocity": 97, "channel": 0}, {"type": "note_on", "time": 1369, "note": 58, "velocity": 113, "channel": 0}, {"type": "note_off", "time": 361, "note": 58, "velocity": 113, "channel": 0}, {"type": "note_on", "time": 0, "note": 59, "velocity": 107, "channel": 0}, {"type": "note_off", "time": 222, "note": 59, "velocity": 107, "channel": 0}, {"type": "note_on", "time": 46, "note": 70, "velocity": 105, "channel": 0}, {"type": "note_off", "time": 319, "note": 70, "velocity": 105, "channel": 0}, {"type": "note_on", "time": 205, "note": 70, "velocity": 102, "channel": 0}, {"type": "note_off", "time": 331, "note": 70, "velocity": 102, "channel": 0}, {"type": "note_on", "time": 75, "note": 59, "velocity": 106, "channel": 0}, {"type": "note_off", "time": 382, "note": 59, "velocity": 106, "channel": 0}, {"type": "note_on", "time": 16, "note": 60, "velocity": 98, "channel": 0}, {"type": "note_off", "time": 247, "note": 60, "velocity": 98, "channel": 0}, {"type": "note_on", "time": 54, "note": 72, "velocity": 102, "channel": 0}, {"type": "note_off", "time": 361, "note": 72, "velocity": 102, "channel": 0}, {"type": "note_on", "time": 189, "note": 72, "velocity": 100, "channel": 0}, {"type": "note_off", "time": 365, "note": 72, "velocity": 100, "channel": 0}, {"type": "note_on", "time": 126, "note": 58, "velocity": 95, "channel": 0}, {"type": "note_off", "time": 445, "note": 58, "velocity": 95, "channel": 0}, {"type": "note_on", "time": 33, "note": 71, "velocity": 95, "channel": 0}, {"type": "note_off", "time": 147, "note": 71, "velocity": 95, "channel": 0}, {"type": "note_on", "time": 20, "note": 70, "velocity": 95, "channel": 0}, {"type": "note_off", "time": 302, "note": 70, "velocity": 95, "channel": 0}, {"type": "note_on", "time": 231, "note": 70, "velocity": 98, "channel": 0}, {"type": "note_off", "time": 365, "note": 70, "velocity": 98, "channel": 0}, {"type": "note_on", "time": 41, "note": 59, "velocity": 97, "channel": 0}, {"type": "note_off", "time": 373, "note": 59, "velocity": 97, "channel": 0}, {"type": "note_on", "time": 0, "note": 60, "velocity": 95, "channel": 0}, {"type": "note_off", "time": 243, "note": 60, "velocity": 95, "channel": 0}, {"type": "note_on", "time": 84, "note": 72, "velocity": 96, "channel": 0}, {"type": "note_off", "time": 319, "note": 72, "velocity": 96, "channel": 0}, {"type": "note_on", "time": 268, "note": 72, "velocity": 91, "channel": 0}, {"type": "note_off", "time": 386, "note": 72, "velocity": 91, "channel": 0}, {"type": "note_on", "time": 172, "note": 58, "velocity": 100, "channel": 0}, {"type": "note_off", "time": 273, "note": 58, "velocity": 100, "channel": 0}, {"type": "note_on", "time": 0, "note": 59, "velocity": 96, "channel": 0}, {"type": "note_off", "time": 281, "note": 59, "velocity": 96, "channel": 0}, {"type": "note_on", "time": 16, "note": 70, "velocity": 90, "channel": 0}, {"type": "note_off", "time": 231, "note": 70, "velocity": 90, "channel": 0}, {"type": "note_on", "time": 159, "note": 70, "velocity": 87, "channel": 0}, {"type": "note_off", "time": 302, "note": 70, "velocity": 87, "channel": 0}, {"type": "note_on", "time": 306, "note": 59, "velocity": 100, "channel": 0}, {"type": "note_off", "time": 272, "note": 59, "velocity": 100, "channel": 0}, {"type": "note_on", "time": 8, "note": 60, "velocity": 92, "channel": 0}, {"type": "note_off", "time": 243, "note": 60, "velocity": 92, "channel": 0}, {"type": "note_on", "time": 134, "note": 72, "velocity": 92, "channel": 0}, {"type": "note_off", "time": 319, "note": 72, "velocity": 92, "channel": 0}, {"type": "note_on", "time": 331, "note": 72, "velocity": 95, "channel": 0}, {"type": "note_off", "time": 336, "note": 72, "velocity": 95, "channel": 0}, {"type": "note_on", "time": 50, "note": 59, "velocity": 99, "channel": 0}, {"type": "note_off", "time": 336, "note": 59, "velocity": 99, "channel": 0}, {"type": "note_on", "time": 0, "note": 60, "velocity": 93, "channel": 0}, {"type": "note_off", "time": 268, "note": 60, "velocity": 93, "channel": 0}, {"type": "note_on", "time": 113, "note": 72, "velocity": 85, "channel": 0}, {"type": "note_off", "time": 541, "note": 72, "velocity": 85, "channel": 0}, {"type": "note_on", "time": 1999, "note": 59, "velocity": 111, "channel": 0}, {"type": "note_off", "time": 247, "note": 59, "velocity": 111, "channel": 0}, {"type": "note_on", "time": 0, "note": 60, "velocity": 99, "channel": 0}, {"type": "note_off", "time": 327, "note": 60, "velocity": 99, "channel": 0}, {"type": "note_on", "time": 0, "note": 71, "velocity": 100, "channel": 0}, {"type": "note_off", "time": 399, "note": 71, "velocity": 100, "channel": 0}, {"type": "note_on", "time": 294, "note": 71, "velocity": 101, "channel": 0}, {"type": "note_off", "time": 348, "note": 71, "velocity": 101, "channel": 0}, {"type": "note_on", "time": 75, "note": 56, "velocity": 100, "channel": 0}, {"type": "note_off", "time": 268, "note": 56, "velocity": 100, "channel": 0}, {"type": "note_on", "time": 12, "note": 57, "velocity": 95, "channel": 0}, {"type": "note_off", "time": 302, "note": 57, "velocity": 95, "channel": 0}, {"type": "note_on", "time": 71, "note": 72, "velocity": 98, "channel": 0}, {"type": "note_off", "time": 260, "note": 72, "velocity": 98, "channel": 0}, {"type": "note_on", "time": 0, "note": 71, "velocity": 87, "channel": 0}, {"type": "note_off", "time": 218, "note": 71, "velocity": 87, "channel": 0}, {"type": "note_on", "time": 79, "note": 73, "velocity": 92, "channel": 0}, {"type": "note_off", "time": 222, "note": 73, "velocity": 92, "channel": 0}, {"type": "note_on", "time": 0, "note": 72, "velocity": 92, "channel": 0}, {"type": "note_off", "time": 180, "note": 72, "velocity": 92, "channel": 0}, {"type": "note_on", "time": 1629, "note": 59, "velocity": 96, "channel": 0}, {"type": "note_off", "time": 428, "note": 59, "velocity": 96, "channel": 0}, {"type": "note_on", "time": 126, "note": 69, "velocity": 101, "channel": 0}, {"type": "note_off", "time": 369, "note": 69, "velocity": 101, "channel": 0}, {"type": "note_on", "time": 348, "note": 69, "velocity": 106, "channel": 0}, {"type": "note_off", "time": 373, "note": 69, "velocity": 106, "channel": 0}, {"type": "note_on", "time": 75, "note": 57, "velocity": 105, "channel": 0}, {"type": "note_off", "time": 331, "note": 57, "velocity": 105, "channel": 0}, {"type": "note_on", "time": 0, "note": 58, "velocity": 102, "channel": 0}, {"type": "note_off", "time": 226, "note": 58, "velocity": 102, "channel": 0}, {"type": "note_on", "time": 0, "note": 71, "velocity": 104, "channel": 0}, {"type": "note_off", "time": 483, "note": 71, "velocity": 104, "channel": 0}, {"type": "note_on", "time": 218, "note": 71, "velocity": 104, "channel": 0}, {"type": "note_off", "time": 453, "note": 71, "velocity": 104, "channel": 0}, {"type": "note_on", "time": 58, "note": 58, "velocity": 100, "channel": 0}, {"type": "note_off", "time": 420, "note": 58, "velocity": 100, "channel": 0}, {"type": "note_on", "time": 210, "note": 69, "velocity": 99, "channel": 0}, {"type": "note_off", "time": 495, "note": 69, "velocity": 99, "channel": 0}, {"type": "note_on", "time": 176, "note": 69, "velocity": 100, "channel": 0}, {"type": "note_off", "time": 382, "note": 69, "velocity": 100, "channel": 0}, {"type": "note_on", "time": 0, "note": 57, "velocity": 116, "channel": 0}, {"type": "note_off", "time": 483, "note": 57, "velocity": 116, "channel": 0}, {"type": "note_on", "time": 0, "note": 58, "velocity": 111, "channel": 0}, {"type": "note_off", "time": 277, "note": 58, "velocity": 111, "channel": 0}, {"type": "note_on", "time": 235, "note": 71, "velocity": 101, "channel": 0}, {"type": "note_off", "time": 369, "note": 71, "velocity": 101, "channel": 0}, {"type": "note_on", "time": 4830, "note": 69, "velocity": 108, "channel": 0}, {"type": "note_off", "time": 184, "note": 69, "velocity": 108, "channel": 0}, {"type": "note_on", "time": 50, "note": 70, "velocity": 107, "channel": 0}, {"type": "note_off", "time": 268, "note": 70, "velocity": 107, "channel": 0}, {"type": "note_on", "time": 0, "note": 71, "velocity": 109, "channel": 0}, {"type": "note_off", "time": 764, "note": 71, "velocity": 109, "channel": 0}, {"type": "note_on", "time": 23, "note": 70, "velocity": 106, "channel": 0}, {"type": "note_off", "time": 298, "note": 70, "velocity": 106, "channel": 0}, {"type": "note_on", "time": 0, "note": 71, "velocity": 105, "channel": 0}, {"type": "note_off", "time": 2867, "note": 71, "velocity": 105, "channel": 0}, {"type": "note_on", "time": 95, "note": 70, "velocity": 104, "channel": 0}, {"type": "note_off", "time": 346, "note": 70, "velocity": 104, "channel": 0}, {"type": "note_on", "time": 71, "note": 71, "velocity": 104, "channel": 0}, {"type": "note_off", "time": 1600, "note": 71, "velocity": 104, "channel": 0}, {"type": "note_on", "time": 161, "note": 69, "velocity": 104, "channel": 0}, {"type": "note_off", "time": 274, "note": 69, "velocity": 104, "channel": 0}, {"type": "note_on", "time": 29, "note": 71, "velocity": 105, "channel": 0}, {"type": "note_off", "time": 400, "note": 71, "velocity": 105, "channel": 0}, {"type": "note_on", "time": 716, "note": 69, "velocity": 103, "channel": 0}, {"type": "note_off", "time": 173, "note": 69, "velocity": 103, "channel": 0}, {"type": "note_on", "time": 101, "note": 71, "velocity": 108, "channel": 0}, {"type": "note_off", "time": 573, "note": 71, "velocity": 108, "channel": 0}, {"type": "note_on", "time": 131, "note": 62, "velocity": 102, "channel": 0}, {"type": "note_off", "time": 561, "note": 62, "velocity": 102, "channel": 0}, {"type": "note_on", "time": 2938, "note": 70, "velocity": 102, "channel": 0}, {"type": "note_off", "time": 316, "note": 70, "velocity": 102, "channel": 0}, {"type": "note_on", "time": 17, "note": 71, "velocity": 104, "channel": 0}, {"type": "note_off", "time": 1296, "note": 71, "velocity": 104, "channel": 0}, {"type": "note_on", "time": 155, "note": 67, "velocity": 84, "channel": 0}, {"type": "note_off", "time": 238, "note": 67, "velocity": 84, "channel": 0}, {"type": "note_on", "time": 179, "note": 71, "velocity": 105, "channel": 0}, {"type": "note_off", "time": 1624, "note": 71, "velocity": 105, "channel": 0}, {"type": "note_on", "time": 77, "note": 67, "velocity": 105, "channel": 0}, {"type": "note_off", "time": 358, "note": 67, "velocity": 105, "channel": 0}, {"type": "note_on", "time": 71, "note": 65, "velocity": 104, "channel": 0}, {"type": "note_off", "time": 448, "note": 65, "velocity": 104, "channel": 0}, {"type": "note_on", "time": 1965, "note": 69, "velocity": 103, "channel": 0}, {"type": "note_off", "time": 262, "note": 69, "velocity": 103, "channel": 0}, {"type": "note_on", "time": 0, "note": 70, "velocity": 104, "channel": 0}, {"type": "note_off", "time": 221, "note": 70, "velocity": 104, "channel": 0}, {"type": "note_on", "time": 17, "note": 71, "velocity": 104, "channel": 0}, {"type": "note_off", "time": 985, "note": 71, "velocity": 104, "channel": 0}, {"type": "note_on", "time": 173, "note": 65, "velocity": 95, "channel": 0}, {"type": "note_off", "time": 232, "note": 65, "velocity": 95, "channel": 0}, {"type": "note_on", "time": 41, "note": 71, "velocity": 104, "channel": 0}, {"type": "note_off", "time": 1266, "note": 71, "velocity": 104, "channel": 0}, {"type": "note_on", "time": 125, "note": 65, "velocity": 95, "channel": 0}, {"type": "note_off", "time": 298, "note": 65, "velocity": 95, "channel": 0}, {"type": "note_on", "time": 11, "note": 72, "velocity": 100, "channel": 0}, {"type": "note_off", "time": 430, "note": 72, "velocity": 100, "channel": 0}, {"type": "note_on", "time": 75, "note": 65, "velocity": 92, "channel": 0}, {"type": "note_off", "time": 386, "note": 65, "velocity": 92, "channel": 0}, {"type": "note_on", "time": 50, "note": 72, "velocity": 104, "channel": 0}, {"type": "note_off", "time": 806, "note": 72, "velocity": 104, "channel": 0}, {"type": "note_on", "time": 50, "note": 73, "velocity": 104, "channel": 0}, {"type": "note_off", "time": 1058, "note": 73, "velocity": 104, "channel": 0}, {"type": "note_on", "time": 3474, "note": 73, "velocity": 108, "channel": 0}, {"type": "note_off", "time": 328, "note": 73, "velocity": 108, "channel": 0}, {"type": "note_on", "time": 47, "note": 74, "velocity": 103, "channel": 0}, {"type": "note_off", "time": 680, "note": 74, "velocity": 103, "channel": 0}, {"type": "note_on", "time": 59, "note": 74, "velocity": 105, "channel": 0}, {"type": "note_off", "time": 226, "note": 74, "velocity": 105, "channel": 0}, {"type": "note_on", "time": 65, "note": 73, "velocity": 108, "channel": 0}, {"type": "note_off", "time": 209, "note": 73, "velocity": 108, "channel": 0}, {"type": "note_on", "time": 35, "note": 74, "velocity": 101, "channel": 0}, {"type": "note_off", "time": 221, "note": 74, "velocity": 101, "channel": 0}, {"type": "note_on", "time": 209, "note": 71, "velocity": 105, "channel": 0}, {"type": "note_off", "time": 424, "note": 71, "velocity": 105, "channel": 0}, {"type": "note_on", "time": 23, "note": 73, "velocity": 105, "channel": 0}, {"type": "note_off", "time": 304, "note": 73, "velocity": 105, "channel": 0}, {"type": "note_on", "time": 59, "note": 71, "velocity": 102, "channel": 0}, {"type": "note_off", "time": 537, "note": 71, "velocity": 102, "channel": 0}, {"type": "note_on", "time": 29, "note": 67, "velocity": 103, "channel": 0}, {"type": "note_off", "time": 519, "note": 67, "velocity": 103, "channel": 0}, {"type": "note_on", "time": 262, "note": 67, "velocity": 103, "channel": 0}, {"type": "note_off", "time": 328, "note": 67, "velocity": 103, "channel": 0}, {"type": "note_on", "time": 101, "note": 65, "velocity": 101, "channel": 0}, {"type": "note_off", "time": 406, "note": 65, "velocity": 101, "channel": 0}, {"type": "note_on", "time": 143, "note": 62, "velocity": 102, "channel": 0}, {"type": "note_off", "time": 155, "note": 62, "velocity": 102, "channel": 0}, {"type": "note_on", "time": 29, "note": 65, "velocity": 99, "channel": 0}, {"type": "note_off", "time": 388, "note": 65, "velocity": 99, "channel": 0}, {"type": "note_on", "time": 65, "note": 67, "velocity": 96, "channel": 0}, {"type": "note_off", "time": 364, "note": 67, "velocity": 96, "channel": 0}, {"type": "note_on", "time": 29, "note": 69, "velocity": 99, "channel": 0}, {"type": "note_off", "time": 304, "note": 69, "velocity": 99, "channel": 0}, {"type": "note_on", "time": 71, "note": 71, "velocity": 100, "channel": 0}, {"type": "note_off", "time": 310, "note": 71, "velocity": 100, "channel": 0}, {"type": "note_on", "time": 35, "note": 66, "velocity": 108, "channel": 0}, {"type": "note_off", "time": 322, "note": 66, "velocity": 108, "channel": 0}, {"type": "note_on", "time": 1542, "note": 65, "velocity": 102, "channel": 0}, {"type": "note_off", "time": 453, "note": 65, "velocity": 102, "channel": 0}, {"type": "note_on", "time": 25, "note": 67, "velocity": 99, "channel": 0}, {"type": "note_off", "time": 403, "note": 67, "velocity": 99, "channel": 0}, {"type": "note_on", "time": 8, "note": 69, "velocity": 101, "channel": 0}, {"type": "note_off", "time": 159, "note": 69, "velocity": 101, "channel": 0}, {"type": "note_on", "time": 71, "note": 71, "velocity": 101, "channel": 0}, {"type": "note_off", "time": 369, "note": 71, "velocity": 101, "channel": 0}, {"type": "note_on", "time": 29, "note": 64, "velocity": 111, "channel": 0}, {"type": "note_off", "time": 428, "note": 64, "velocity": 111, "channel": 0}, {"type": "note_on", "time": 75, "note": 66, "velocity": 100, "channel": 0}, {"type": "note_off", "time": 319, "note": 66, "velocity": 100, "channel": 0}, {"type": "note_on", "time": 73, "note": 68, "velocity": 97, "channel": 0}, {"type": "note_off", "time": 322, "note": 68, "velocity": 97, "channel": 0}, {"type": "note_on", "time": 0, "note": 70, "velocity": 101, "channel": 0}, {"type": "note_off", "time": 209, "note": 70, "velocity": 101, "channel": 0}, {"type": "note_on", "time": 47, "note": 69, "velocity": 106, "channel": 0}, {"type": "note_off", "time": 418, "note": 69, "velocity": 106, "channel": 0}, {"type": "note_on", "time": 1440, "note": 63, "velocity": 112, "channel": 0}, {"type": "note_off", "time": 495, "note": 63, "velocity": 112, "channel": 0}, {"type": "note_on", "time": 42, "note": 62, "velocity": 104, "channel": 0}, {"type": "note_off", "time": 352, "note": 62, "velocity": 104, "channel": 0}, {"type": "note_on", "time": 8, "note": 63, "velocity": 110, "channel": 0}, {"type": "note_off", "time": 428, "note": 63, "velocity": 110, "channel": 0}, {"type": "note_on", "time": 67, "note": 65, "velocity": 104, "channel": 0}, {"type": "note_off", "time": 495, "note": 65, "velocity": 104, "channel": 0}, {"type": "note_on", "time": 8, "note": 66, "velocity": 98, "channel": 0}, {"type": "note_off", "time": 151, "note": 66, "velocity": 98, "channel": 0}, {"type": "note_on", "time": 84, "note": 68, "velocity": 100, "channel": 0}, {"type": "note_off", "time": 378, "note": 68, "velocity": 100, "channel": 0}, {"type": "note_on", "time": 25, "note": 70, "velocity": 102, "channel": 0}, {"type": "note_off", "time": 302, "note": 70, "velocity": 102, "channel": 0}, {"type": "note_on", "time": 58, "note": 71, "velocity": 107, "channel": 0}, {"type": "note_off", "time": 386, "note": 71, "velocity": 107, "channel": 0}, {"type": "note_on", "time": 33, "note": 68, "velocity": 101, "channel": 0}, {"type": "note_off", "time": 327, "note": 68, "velocity": 101, "channel": 0}, {"type": "note_on", "time": 128, "note": 66, "velocity": 97, "channel": 0}, {"type": "note_off", "time": 346, "note": 66, "velocity": 97, "channel": 0}, {"type": "note_on", "time": 35, "note": 65, "velocity": 100, "channel": 0}, {"type": "note_off", "time": 346, "note": 65, "velocity": 100, "channel": 0}, {"type": "note_on", "time": 47, "note": 65, "velocity": 99, "channel": 0}, {"type": "note_off", "time": 209, "note": 65, "velocity": 99, "channel": 0}, {"type": "note_on", "time": 95, "note": 63, "velocity": 112, "channel": 0}, {"type": "note_off", "time": 388, "note": 63, "velocity": 112, "channel": 0}, {"type": "note_on", "time": 17, "note": 62, "velocity": 103, "channel": 0}, {"type": "note_off", "time": 406, "note": 62, "velocity": 103, "channel": 0}, {"type": "note_on", "time": 17, "note": 61, "velocity": 98, "channel": 0}, {"type": "note_off", "time": 304, "note": 61, "velocity": 98, "channel": 0}, {"type": "note_on", "time": 119, "note": 65, "velocity": 100, "channel": 0}, {"type": "note_off", "time": 346, "note": 65, "velocity": 100, "channel": 0}, {"type": "note_on", "time": 95, "note": 61, "velocity": 98, "channel": 0}, {"type": "note_off", "time": 382, "note": 61, "velocity": 98, "channel": 0}, {"type": "note_on", "time": 35, "note": 61, "velocity": 102, "channel": 0}, {"type": "note_off", "time": 232, "note": 61, "velocity": 102, "channel": 0}, {"type": "note_on", "time": 11, "note": 63, "velocity": 109, "channel": 0}, {"type": "note_off", "time": 280, "note": 63, "velocity": 109, "channel": 0}, {"type": "note_on", "time": 89, "note": 65, "velocity": 99, "channel": 0}, {"type": "note_off", "time": 155, "note": 65, "velocity": 99, "channel": 0}, {"type": "note_on", "time": 201, "note": 67, "velocity": 103, "channel": 0}, {"type": "note_off", "time": 340, "note": 67, "velocity": 103, "channel": 0}, {"type": "note_on", "time": 0, "note": 63, "velocity": 108, "channel": 0}, {"type": "note_off", "time": 512, "note": 63, "velocity": 108, "channel": 0}, {"type": "note_on", "time": 33, "note": 61, "velocity": 100, "channel": 0}, {"type": "note_off", "time": 302, "note": 61, "velocity": 100, "channel": 0}, {"type": "note_on", "time": 71, "note": 59, "velocity": 103, "channel": 0}, {"type": "note_off", "time": 357, "note": 59, "velocity": 103, "channel": 0}, {"type": "note_on", "time": 12, "note": 58, "velocity": 100, "channel": 0}, {"type": "note_off", "time": 382, "note": 58, "velocity": 100, "channel": 0}, {"type": "note_on", "time": 8, "note": 57, "velocity": 103, "channel": 0}, {"type": "note_off", "time": 252, "note": 57, "velocity": 103, "channel": 0}, {"type": "note_on", "time": 172, "note": 56, "velocity": 99, "channel": 0}, {"type": "note_off", "time": 373, "note": 56, "velocity": 99, "channel": 0}, {"type": "note_on", "time": 42, "note": 55, "velocity": 96, "channel": 0}, {"type": "note_off", "time": 310, "note": 55, "velocity": 96, "channel": 0}, {"type": "note_on", "time": 113, "note": 59, "velocity": 102, "channel": 0}, {"type": "note_off", "time": 285, "note": 59, "velocity": 102, "channel": 0}, {"type": "note_on", "time": 58, "note": 57, "velocity": 100, "channel": 0}, {"type": "note_off", "time": 403, "note": 57, "velocity": 100, "channel": 0}, {"type": "note_on", "time": 3549, "note": 57, "velocity": 99, "channel": 0}, {"type": "note_off", "time": 1940, "note": 57, "velocity": 99, "channel": 0}, {"type": "note_on", "time": 216, "note": 54, "velocity": 101, "channel": 0}, {"type": "note_off", "time": 256, "note": 54, "velocity": 101, "channel": 0}, {"type": "note_on", "time": 53, "note": 57, "velocity": 102, "channel": 0}, {"type": "note_off", "time": 394, "note": 57, "velocity": 102, "channel": 0}, {"type": "note_on", "time": 107, "note": 54, "velocity": 100, "channel": 0}, {"type": "note_off", "time": 448, "note": 54, "velocity": 100, "channel": 0}, {"type": "note_on", "time": 203, "note": 55, "velocity": 104, "channel": 0}, {"type": "note_off", "time": 292, "note": 55, "velocity": 104, "channel": 0}, {"type": "note_on", "time": 17, "note": 51, "velocity": 111, "channel": 0}, {"type": "note_on", "time": 340, "note": 50, "velocity": 103, "channel": 0}, {"type": "note_off", "time": 0, "note": 51, "velocity": 111, "channel": 0}, {"type": "note_off", "time": 627, "note": 50, "velocity": 103, "channel": 0}, {"type": "note_on", "time": 59, "note": 49, "velocity": 105, "channel": 0}, {"type": "note_off", "time": 436, "note": 49, "velocity": 105, "channel": 0}, {"type": "note_on", "time": 73, "note": 53, "velocity": 108, "channel": 0}, {"type": "note_off", "time": 348, "note": 53, "velocity": 108, "channel": 0}, {"type": "note_on", "time": 0, "note": 48, "velocity": 106, "channel": 0}, {"type": "note_off", "time": 289, "note": 48, "velocity": 106, "channel": 0}, {"type": "note_on", "time": 37, "note": 51, "velocity": 100, "channel": 0}, {"type": "note_off", "time": 331, "note": 51, "velocity": 100, "channel": 0}, {"type": "note_on", "time": 100, "note": 56, "velocity": 103, "channel": 0}, {"type": "note_off", "time": 390, "note": 56, "velocity": 103, "channel": 0}, {"type": "note_on", "time": 16, "note": 58, "velocity": 99, "channel": 0}, {"type": "note_off", "time": 327, "note": 58, "velocity": 99, "channel": 0}, {"type": "note_on", "time": 23, "note": 60, "velocity": 98, "channel": 0}, {"type": "note_off", "time": 346, "note": 60, "velocity": 98, "channel": 0}, {"type": "note_on", "time": 101, "note": 63, "velocity": 109, "channel": 0}, {"type": "note_off", "time": 442, "note": 63, "velocity": 109, "channel": 0}, {"type": "note_on", "time": 0, "note": 59, "velocity": 101, "channel": 0}, {"type": "note_off", "time": 322, "note": 59, "velocity": 101, "channel": 0}, {"type": "note_on", "time": 17, "note": 58, "velocity": 103, "channel": 0}, {"type": "note_off", "time": 418, "note": 58, "velocity": 103, "channel": 0}, {"type": "note_on", "time": 89, "note": 57, "velocity": 102, "channel": 0}, {"type": "note_off", "time": 328, "note": 57, "velocity": 102, "channel": 0}, {"type": "note_on", "time": 59, "note": 55, "velocity": 96, "channel": 0}, {"type": "note_off", "time": 191, "note": 55, "velocity": 96, "channel": 0}, {"type": "note_on", "time": 101, "note": 54, "velocity": 97, "channel": 0}, {"type": "note_off", "time": 370, "note": 54, "velocity": 97, "channel": 0}, {"type": "note_on", "time": 95, "note": 59, "velocity": 100, "channel": 0}, {"type": "note_off", "time": 430, "note": 59, "velocity": 100, "channel": 0}, {"type": "note_on", "time": 53, "note": 58, "velocity": 104, "channel": 0}, {"type": "note_off", "time": 436, "note": 58, "velocity": 104, "channel": 0}, {"type": "note_on", "time": 0, "note": 54, "velocity": 97, "channel": 0}, {"type": "note_off", "time": 310, "note": 54, "velocity": 97, "channel": 0}, {"type": "note_on", "time": 0, "note": 53, "velocity": 99, "channel": 0}, {"type": "note_off", "time": 394, "note": 53, "velocity": 99, "channel": 0}, {"type": "note_on", "time": 149, "note": 51, "velocity": 100, "channel": 0}, {"type": "note_off", "time": 352, "note": 51, "velocity": 100, "channel": 0}, {"type": "note_on", "time": 0, "note": 56, "velocity": 102, "channel": 0}, {"type": "note_off", "time": 465, "note": 56, "velocity": 102, "channel": 0}, {"type": "note_on", "time": 453, "note": 56, "velocity": 95, "channel": 0}, {"type": "note_off", "time": 316, "note": 56, "velocity": 95, "channel": 0}, {"type": "note_on", "time": 17, "note": 58, "velocity": 92, "channel": 0}, {"type": "note_off", "time": 238, "note": 58, "velocity": 92, "channel": 0}, {"type": "note_on", "time": 5, "note": 60, "velocity": 105, "channel": 0}, {"type": "note_off", "time": 364, "note": 60, "velocity": 105, "channel": 0}, {"type": "note_on", "time": 95, "note": 61, "velocity": 103, "channel": 0}, {"type": "note_off", "time": 316, "note": 61, "velocity": 103, "channel": 0}, {"type": "note_on", "time": 11, "note": 62, "velocity": 103, "channel": 0}, {"type": "note_off", "time": 412, "note": 62, "velocity": 103, "channel": 0}, {"type": "note_on", "time": 59, "note": 65, "velocity": 102, "channel": 0}, {"type": "note_off", "time": 388, "note": 65, "velocity": 102, "channel": 0}, {"type": "note_on", "time": 77, "note": 63, "velocity": 106, "channel": 0}, {"type": "note_off", "time": 388, "note": 63, "velocity": 106, "channel": 0}, {"type": "note_on", "time": 15, "note": 62, "velocity": 104, "channel": 0}, {"type": "note_off", "time": 243, "note": 62, "velocity": 104, "channel": 0}, {"type": "note_on", "time": 92, "note": 66, "velocity": 96, "channel": 0}, {"type": "note_off", "time": 201, "note": 66, "velocity": 96, "channel": 0}, {"type": "note_on", "time": 62, "note": 66, "velocity": 97, "channel": 0}, {"type": "note_off", "time": 163, "note": 66, "velocity": 97, "channel": 0}, {"type": "note_on", "time": 134, "note": 68, "velocity": 101, "channel": 0}, {"type": "note_off", "time": 346, "note": 68, "velocity": 101, "channel": 0}, {"type": "note_on", "time": 71, "note": 64, "velocity": 104, "channel": 0}, {"type": "note_off", "time": 364, "note": 64, "velocity": 104, "channel": 0}, {"type": "note_on", "time": 17, "note": 63, "velocity": 100, "channel": 0}, {"type": "note_off", "time": 430, "note": 63, "velocity": 100, "channel": 0}, {"type": "note_on", "time": 218, "note": 64, "velocity": 105, "channel": 0}, {"type": "note_off", "time": 336, "note": 64, "velocity": 105, "channel": 0}, {"type": "note_on", "time": 100, "note": 69, "velocity": 103, "channel": 0}, {"type": "note_off", "time": 281, "note": 69, "velocity": 103, "channel": 0}, {"type": "note_on", "time": 58, "note": 67, "velocity": 100, "channel": 0}, {"type": "note_off", "time": 365, "note": 67, "velocity": 100, "channel": 0}, {"type": "note_on", "time": 46, "note": 69, "velocity": 90, "channel": 0}, {"type": "note_off", "time": 327, "note": 69, "velocity": 90, "channel": 0}, {"type": "note_on", "time": 163, "note": 67, "velocity": 109, "channel": 0}, {"type": "note_off", "time": 336, "note": 67, "velocity": 109, "channel": 0}, {"type": "note_on", "time": 58, "note": 67, "velocity": 109, "channel": 0}, {"type": "note_off", "time": 331, "note": 67, "velocity": 109, "channel": 0}, {"type": "note_on", "time": 100, "note": 72, "velocity": 103, "channel": 0}, {"type": "note_off", "time": 466, "note": 72, "velocity": 103, "channel": 0}, {"type": "note_on", "time": 15, "note": 69, "velocity": 97, "channel": 0}, {"type": "note_off", "time": 256, "note": 69, "velocity": 97, "channel": 0}, {"type": "note_on", "time": 23, "note": 71, "velocity": 98, "channel": 0}, {"type": "note_off", "time": 400, "note": 71, "velocity": 98, "channel": 0}, {"type": "note_on", "time": 65, "note": 68, "velocity": 90, "channel": 0}, {"type": "note_off", "time": 340, "note": 68, "velocity": 90, "channel": 0}, {"type": "note_on", "time": 23, "note": 66, "velocity": 103, "channel": 0}, {"type": "note_off", "time": 203, "note": 66, "velocity": 103, "channel": 0}, {"type": "note_on", "time": 47, "note": 63, "velocity": 107, "channel": 0}, {"type": "note_off", "time": 549, "note": 63, "velocity": 107, "channel": 0}, {"type": "note_on", "time": 429, "note": 65, "velocity": 99, "channel": 0}, {"type": "note_off", "time": 344, "note": 65, "velocity": 99, "channel": 0}, {"type": "note_on", "time": 2742, "note": 66, "velocity": 95, "channel": 0}, {"type": "note_off", "time": 348, "note": 66, "velocity": 95, "channel": 0}, {"type": "note_on", "time": 96, "note": 66, "velocity": 95, "channel": 0}, {"type": "note_off", "time": 285, "note": 66, "velocity": 95, "channel": 0}, {"type": "note_on", "time": 58, "note": 68, "velocity": 90, "channel": 0}, {"type": "note_off", "time": 310, "note": 68, "velocity": 90, "channel": 0}, {"type": "note_on", "time": 67, "note": 71, "velocity": 98, "channel": 0}, {"type": "note_off", "time": 369, "note": 71, "velocity": 98, "channel": 0}, {"type": "note_on", "time": 92, "note": 64, "velocity": 102, "channel": 0}, {"type": "note_off", "time": 352, "note": 64, "velocity": 102, "channel": 0}, {"type": "note_on", "time": 105, "note": 66, "velocity": 98, "channel": 0}, {"type": "note_off", "time": 159, "note": 66, "velocity": 98, "channel": 0}, {"type": "note_on", "time": 0, "note": 67, "velocity": 98, "channel": 0}, {"type": "note_off", "time": 420, "note": 67, "velocity": 98, "channel": 0}, {"type": "note_on", "time": 243, "note": 69, "velocity": 96, "channel": 0}, {"type": "note_off", "time": 274, "note": 69, "velocity": 96, "channel": 0}, {"type": "note_on", "time": 41, "note": 66, "velocity": 115, "channel": 0}, {"type": "note_off", "time": 280, "note": 66, "velocity": 115, "channel": 0}, {"type": "note_on", "time": 47, "note": 64, "velocity": 106, "channel": 0}, {"type": "note_off", "time": 406, "note": 64, "velocity": 106, "channel": 0}, {"type": "note_on", "time": 47, "note": 63, "velocity": 104, "channel": 0}, {"type": "note_off", "time": 238, "note": 63, "velocity": 104, "channel": 0}, {"type": "note_on", "time": 101, "note": 62, "velocity": 105, "channel": 0}, {"type": "note_off", "time": 465, "note": 62, "velocity": 105, "channel": 0}, {"type": "note_on", "time": 179, "note": 68, "velocity": 103, "channel": 0}, {"type": "note_off", "time": 352, "note": 68, "velocity": 103, "channel": 0}, {"type": "note_on", "time": 41, "note": 67, "velocity": 99, "channel": 0}, {"type": "note_off", "time": 358, "note": 67, "velocity": 99, "channel": 0}, {"type": "note_on", "time": 465, "note": 65, "velocity": 101, "channel": 0}, {"type": "note_off", "time": 358, "note": 65, "velocity": 101, "channel": 0}, {"type": "note_on", "time": 11, "note": 63, "velocity": 106, "channel": 0}, {"type": "note_off", "time": 436, "note": 63, "velocity": 106, "channel": 0}, {"type": "note_on", "time": 257, "note": 59, "velocity": 91, "channel": 0}, {"type": "note_off", "time": 163, "note": 59, "velocity": 91, "channel": 0}, {"type": "note_on", "time": 8, "note": 58, "velocity": 91, "channel": 0}, {"type": "note_off", "time": 226, "note": 58, "velocity": 91, "channel": 0}, {"type": "note_on", "time": 121, "note": 68, "velocity": 96, "channel": 0}, {"type": "note_off", "time": 138, "note": 68, "velocity": 96, "channel": 0}, {"type": "note_on", "time": 29, "note": 69, "velocity": 93, "channel": 0}, {"type": "note_off", "time": 352, "note": 69, "velocity": 93, "channel": 0}, {"type": "note_on", "time": 109, "note": 68, "velocity": 97, "channel": 0}, {"type": "note_off", "time": 394, "note": 68, "velocity": 97, "channel": 0}, {"type": "note_on", "time": 67, "note": 67, "velocity": 90, "channel": 0}, {"type": "note_off", "time": 373, "note": 67, "velocity": 90, "channel": 0}, {"type": "note_on", "time": 138, "note": 70, "velocity": 96, "channel": 0}, {"type": "note_off", "time": 215, "note": 70, "velocity": 96, "channel": 0}, {"type": "note_on", "time": 11, "note": 67, "velocity": 100, "channel": 0}, {"type": "note_off", "time": 424, "note": 67, "velocity": 100, "channel": 0}, {"type": "note_on", "time": 0, "note": 68, "velocity": 99, "channel": 0}, {"type": "note_off", "time": 471, "note": 68, "velocity": 99, "channel": 0}, {"type": "note_on", "time": 565, "note": 68, "velocity": 104, "channel": 0}, {"type": "note_off", "time": 252, "note": 68, "velocity": 104, "channel": 0}, {"type": "note_on", "time": 12, "note": 67, "velocity": 104, "channel": 0}, {"type": "note_off", "time": 398, "note": 67, "velocity": 104, "channel": 0}, {"type": "note_on", "time": 37, "note": 66, "velocity": 95, "channel": 0}, {"type": "note_off", "time": 310, "note": 66, "velocity": 95, "channel": 0}, {"type": "note_on", "time": 92, "note": 69, "velocity": 95, "channel": 0}, {"type": "note_off", "time": 176, "note": 69, "velocity": 95, "channel": 0}, {"type": "note_on", "time": 138, "note": 71, "velocity": 100, "channel": 0}, {"type": "note_off", "time": 382, "note": 71, "velocity": 100, "channel": 0}, {"type": "note_on", "time": 4, "note": 63, "velocity": 110, "channel": 0}, {"type": "note_off", "time": 567, "note": 63, "velocity": 110, "channel": 0}, {"type": "note_on", "time": 29, "note": 62, "velocity": 96, "channel": 0}, {"type": "note_off", "time": 221, "note": 62, "velocity": 96, "channel": 0}, {"type": "note_on", "time": 17, "note": 63, "velocity": 102, "channel": 0}, {"type": "note_off", "time": 406, "note": 63, "velocity": 102, "channel": 0}, {"type": "note_on", "time": 5, "note": 67, "velocity": 98, "channel": 0}, {"type": "note_off", "time": 298, "note": 67, "velocity": 98, "channel": 0}, {"type": "note_on", "time": 157, "note": 64, "velocity": 101, "channel": 0}, {"type": "note_off", "time": 344, "note": 64, "velocity": 101, "channel": 0}, {"type": "note_on", "time": 42, "note": 66, "velocity": 94, "channel": 0}, {"type": "note_off", "time": 340, "note": 66, "velocity": 94, "channel": 0}, {"type": "note_on", "time": 54, "note": 68, "velocity": 91, "channel": 0}, {"type": "note_off", "time": 327, "note": 68, "velocity": 91, "channel": 0}, {"type": "note_on", "time": 96, "note": 70, "velocity": 92, "channel": 0}, {"type": "note_off", "time": 268, "note": 70, "velocity": 92, "channel": 0}, {"type": "note_on", "time": 180, "note": 66, "velocity": 104, "channel": 0}, {"type": "note_off", "time": 319, "note": 66, "velocity": 104, "channel": 0}, {"type": "note_on", "time": 71, "note": 61, "velocity": 101, "channel": 0}, {"type": "note_off", "time": 382, "note": 61, "velocity": 101, "channel": 0}, {"type": "note_on", "time": 63, "note": 59, "velocity": 86, "channel": 0}, {"type": "note_off", "time": 373, "note": 59, "velocity": 86, "channel": 0}, {"type": "note_on", "time": 46, "note": 58, "velocity": 98, "channel": 0}, {"type": "note_off", "time": 180, "note": 58, "velocity": 98, "channel": 0}, {"type": "note_on", "time": 142, "note": 57, "velocity": 93, "channel": 0}, {"type": "note_off", "time": 777, "note": 57, "velocity": 93, "channel": 0}, {"type": "note_on", "time": 3086, "note": 57, "velocity": 95, "channel": 0}, {"type": "note_off", "time": 386, "note": 57, "velocity": 95, "channel": 0}, {"type": "note_on", "time": 21, "note": 59, "velocity": 97, "channel": 0}, {"type": "note_off", "time": 319, "note": 59, "velocity": 97, "channel": 0}, {"type": "note_on", "time": 75, "note": 62, "velocity": 99, "channel": 0}, {"type": "note_off", "time": 441, "note": 62, "velocity": 99, "channel": 0}, {"type": "note_on", "time": 67, "note": 65, "velocity": 97, "channel": 0}, {"type": "note_off", "time": 357, "note": 65, "velocity": 97, "channel": 0}, {"type": "note_on", "time": 58, "note": 69, "velocity": 94, "channel": 0}, {"type": "note_off", "time": 184, "note": 69, "velocity": 94, "channel": 0}, {"type": "note_on", "time": 71, "note": 71, "velocity": 90, "channel": 0}, {"type": "note_off", "time": 180, "note": 71, "velocity": 90, "channel": 0}, {"type": "note_on", "time": 54, "note": 74, "velocity": 101, "channel": 0}, {"type": "note_off", "time": 322, "note": 74, "velocity": 101, "channel": 0}, {"type": "note_on", "time": 130, "note": 69, "velocity": 90, "channel": 0}, {"type": "note_off", "time": 344, "note": 69, "velocity": 90, "channel": 0}, {"type": "note_on", "time": 2116, "note": 62, "velocity": 109, "channel": 0}, {"type": "note_off", "time": 281, "note": 62, "velocity": 109, "channel": 0}, {"type": "note_on", "time": 37, "note": 65, "velocity": 104, "channel": 0}, {"type": "note_off", "time": 277, "note": 65, "velocity": 104, "channel": 0}, {"type": "note_on", "time": 37, "note": 69, "velocity": 97, "channel": 0}, {"type": "note_off", "time": 390, "note": 69, "velocity": 97, "channel": 0}, {"type": "note_on", "time": 80, "note": 65, "velocity": 99, "channel": 0}, {"type": "note_off", "time": 327, "note": 65, "velocity": 99, "channel": 0}, {"type": "note_on", "time": 84, "note": 62, "velocity": 114, "channel": 0}, {"type": "note_off", "time": 562, "note": 62, "velocity": 114, "channel": 0}, {"type": "note_on", "time": 4372, "note": 74, "velocity": 104, "channel": 0}, {"type": "note_off", "time": 432, "note": 74, "velocity": 104, "channel": 0}, {"type": "note_on", "time": 12, "note": 73, "velocity": 93, "channel": 0}, {"type": "note_off", "time": 214, "note": 73, "velocity": 93, "channel": 0}, {"type": "note_on", "time": 184, "note": 69, "velocity": 102, "channel": 0}, {"type": "note_off", "time": 298, "note": 69, "velocity": 102, "channel": 0}, {"type": "note_on", "time": 151, "note": 65, "velocity": 101, "channel": 0}, {"type": "note_off", "time": 226, "note": 65, "velocity": 101, "channel": 0}, {"type": "note_on", "time": 12, "note": 62, "velocity": 107, "channel": 0}, {"type": "note_off", "time": 399, "note": 62, "velocity": 107, "channel": 0}, {"type": "note_on", "time": 63, "note": 57, "velocity": 97, "channel": 0}, {"type": "note_off", "time": 356, "note": 57, "velocity": 97, "channel": 0}, {"type": "note_on", "time": 0, "note": 65, "velocity": 102, "channel": 0}, {"type": "note_off", "time": 617, "note": 65, "velocity": 102, "channel": 0}, {"type": "note_on", "time": 2700, "note": 65, "velocity": 100, "channel": 0}, {"type": "note_off", "time": 340, "note": 65, "velocity": 100, "channel": 0}, {"type": "note_on", "time": 512, "note": 74, "velocity": 97, "channel": 0}, {"type": "note_off", "time": 365, "note": 74, "velocity": 97, "channel": 0}, {"type": "note_on", "time": 42, "note": 74, "velocity": 94, "channel": 0}, {"type": "note_off", "time": 172, "note": 74, "velocity": 94, "channel": 0}, {"type": "note_on", "time": 46, "note": 73, "velocity": 98, "channel": 0}, {"type": "note_off", "time": 298, "note": 73, "velocity": 98, "channel": 0}, {"type": "note_on", "time": 58, "note": 69, "velocity": 100, "channel": 0}, {"type": "note_off", "time": 487, "note": 69, "velocity": 100, "channel": 0}, {"type": "note_on", "time": 3675, "note": 70, "velocity": 103, "channel": 0}, {"type": "note_off", "time": 386, "note": 70, "velocity": 103, "channel": 0}, {"type": "note_on", "time": 50, "note": 71, "velocity": 103, "channel": 0}, {"type": "note_off", "time": 1478, "note": 71, "velocity": 103, "channel": 0}, {"type": "note_on", "time": 0, "note": 69, "velocity": 98, "channel": 0}, {"type": "note_off", "time": 346, "note": 69, "velocity": 98, "channel": 0}, {"type": "note_on", "time": 11, "note": 65, "velocity": 100, "channel": 0}, {"type": "note_off", "time": 376, "note": 65, "velocity": 100, "channel": 0}, {"type": "note_on", "time": 41, "note": 62, "velocity": 106, "channel": 0}, {"type": "note_off", "time": 310, "note": 62, "velocity": 106, "channel": 0}, {"type": "note_on", "time": 47, "note": 57, "velocity": 100, "channel": 0}, {"type": "note_off", "time": 483, "note": 57, "velocity": 100, "channel": 0}, {"type": "note_on", "time": 53, "note": 53, "velocity": 97, "channel": 0}, {"type": "note_off", "time": 436, "note": 53, "velocity": 97, "channel": 0}, {"type": "note_on", "time": 5463, "note": 71, "velocity": 102, "channel": 0}, {"type": "note_off", "time": 445, "note": 71, "velocity": 102, "channel": 0}, {"type": "note_on", "time": 100, "note": 65, "velocity": 94, "channel": 0}, {"type": "note_off", "time": 239, "note": 65, "velocity": 94, "channel": 0}, {"type": "note_on", "time": 71, "note": 69, "velocity": 100, "channel": 0}, {"type": "note_off", "time": 377, "note": 69, "velocity": 100, "channel": 0}, {"type": "note_on", "time": 51, "note": 65, "velocity": 99, "channel": 0}, {"type": "note_off", "time": 292, "note": 65, "velocity": 99, "channel": 0}, {"type": "note_on", "time": 41, "note": 62, "velocity": 102, "channel": 0}, {"type": "note_off", "time": 388, "note": 62, "velocity": 102, "channel": 0}, {"type": "note_on", "time": 95, "note": 59, "velocity": 96, "channel": 0}, {"type": "note_off", "time": 304, "note": 59, "velocity": 96, "channel": 0}, {"type": "note_on", "time": 65, "note": 57, "velocity": 100, "channel": 0}, {"type": "note_off", "time": 394, "note": 57, "velocity": 100, "channel": 0}, {"type": "note_on", "time": 17, "note": 59, "velocity": 103, "channel": 0}, {"type": "note_on", "time": 268, "note": 57, "velocity": 98, "channel": 0}, {"type": "note_off", "time": 0, "note": 59, "velocity": 103, "channel": 0}, {"type": "note_off", "time": 226, "note": 57, "velocity": 98, "channel": 0}, {"type": "note_on", "time": 17, "note": 53, "velocity": 104, "channel": 0}, {"type": "note_off", "time": 483, "note": 53, "velocity": 104, "channel": 0}, {"type": "note_on", "time": 0, "note": 52, "velocity": 107, "channel": 0}, {"type": "note_off", "time": 430, "note": 52, "velocity": 107, "channel": 0}, {"type": "note_on", "time": 3223, "note": 51, "velocity": 106, "channel": 0}, {"type": "note_off", "time": 340, "note": 51, "velocity": 106, "channel": 0}, {"type": "note_on", "time": 0, "note": 52, "velocity": 102, "channel": 0}, {"type": "note_off", "time": 315, "note": 52, "velocity": 102, "channel": 0}, {"type": "note_on", "time": 54, "note": 57, "velocity": 96, "channel": 0}, {"type": "note_off", "time": 373, "note": 57, "velocity": 96, "channel": 0}, {"type": "note_on", "time": 33, "note": 60, "velocity": 96, "channel": 0}, {"type": "note_off", "time": 247, "note": 60, "velocity": 96, "channel": 0}, {"type": "note_on", "time": 117, "note": 51, "velocity": 103, "channel": 0}, {"type": "note_off", "time": 210, "note": 51, "velocity": 103, "channel": 0}, {"type": "note_on", "time": 4, "note": 52, "velocity": 101, "channel": 0}, {"type": "note_off", "time": 336, "note": 52, "velocity": 101, "channel": 0}, {"type": "note_on", "time": 1170, "note": 50, "velocity": 103, "channel": 0}, {"type": "note_off", "time": 286, "note": 50, "velocity": 103, "channel": 0}, {"type": "note_on", "time": 83, "note": 53, "velocity": 104, "channel": 0}, {"type": "note_off", "time": 286, "note": 53, "velocity": 104, "channel": 0}, {"type": "note_on", "time": 41, "note": 57, "velocity": 102, "channel": 0}, {"type": "note_off", "time": 286, "note": 57, "velocity": 102, "channel": 0}, {"type": "note_on", "time": 0, "note": 60, "velocity": 99, "channel": 0}, {"type": "note_off", "time": 328, "note": 60, "velocity": 99, "channel": 0}, {"type": "note_on", "time": 5, "note": 59, "velocity": 100, "channel": 0}, {"type": "note_off", "time": 394, "note": 59, "velocity": 100, "channel": 0}, {"type": "note_on", "time": 2992, "note": 59, "velocity": 99, "channel": 0}, {"type": "note_off", "time": 394, "note": 59, "velocity": 99, "channel": 0}, {"type": "note_on", "time": 53, "note": 58, "velocity": 96, "channel": 0}, {"type": "note_off", "time": 280, "note": 58, "velocity": 96, "channel": 0}, {"type": "note_on", "time": 35, "note": 59, "velocity": 96, "channel": 0}, {"type": "note_off", "time": 352, "note": 59, "velocity": 96, "channel": 0}, {"type": "note_on", "time": 119, "note": 60, "velocity": 97, "channel": 0}, {"type": "note_off", "time": 400, "note": 60, "velocity": 97, "channel": 0}, {"type": "note_on", "time": 59, "note": 62, "velocity": 103, "channel": 0}, {"type": "note_off", "time": 376, "note": 62, "velocity": 103, "channel": 0}, {"type": "note_on", "time": 35, "note": 64, "velocity": 107, "channel": 0}, {"type": "note_off", "time": 448, "note": 64, "velocity": 107, "channel": 0}, {"type": "note_on", "time": 29, "note": 65, "velocity": 103, "channel": 0}, {"type": "note_off", "time": 322, "note": 65, "velocity": 103, "channel": 0}, {"type": "note_on", "time": 11, "note": 67, "velocity": 107, "channel": 0}, {"type": "note_off", "time": 256, "note": 67, "velocity": 107, "channel": 0}, {"type": "note_on", "time": 161, "note": 67, "velocity": 109, "channel": 0}, {"type": "note_off", "time": 633, "note": 67, "velocity": 109, "channel": 0}, {"type": "note_on", "time": 77, "note": 69, "velocity": 98, "channel": 0}, {"type": "note_off", "time": 448, "note": 69, "velocity": 98, "channel": 0}, {"type": "note_on", "time": 95, "note": 72, "velocity": 99, "channel": 0}, {"type": "note_off", "time": 221, "note": 72, "velocity": 99, "channel": 0}, {"type": "note_on", "time": 101, "note": 69, "velocity": 93, "channel": 0}, {"type": "note_off", "time": 573, "note": 69, "velocity": 93, "channel": 0}, {"type": "note_on", "time": 2156, "note": 67, "velocity": 96, "channel": 0}, {"type": "note_off", "time": 274, "note": 67, "velocity": 96, "channel": 0}, {"type": "note_on", "time": 35, "note": 69, "velocity": 92, "channel": 0}, {"type": "note_off", "time": 1230, "note": 69, "velocity": 92, "channel": 0}, {"type": "note_on", "time": 382, "note": 65, "velocity": 96, "channel": 0}, {"type": "note_off", "time": 161, "note": 65, "velocity": 96, "channel": 0}, {"type": "note_on", "time": 71, "note": 70, "velocity": 96, "channel": 0}, {"type": "note_off", "time": 268, "note": 70, "velocity": 96, "channel": 0}, {"type": "note_on", "time": 47, "note": 73, "velocity": 104, "channel": 0}, {"type": "note_off", "time": 310, "note": 73, "velocity": 104, "channel": 0}, {"type": "note_on", "time": 41, "note": 70, "velocity": 99, "channel": 0}, {"type": "note_off", "time": 418, "note": 70, "velocity": 99, "channel": 0}, {"type": "note_on", "time": 2287, "note": 69, "velocity": 99, "channel": 0}, {"type": "note_off", "time": 167, "note": 69, "velocity": 99, "channel": 0}, {"type": "note_on", "time": 17, "note": 71, "velocity": 101, "channel": 0}, {"type": "note_on", "time": 149, "note": 72, "velocity": 105, "channel": 0}, {"type": "note_off", "time": 0, "note": 71, "velocity": 101, "channel": 0}, {"type": "note_off", "time": 179, "note": 72, "velocity": 105, "channel": 0}, {"type": "note_on", "time": 71, "note": 68, "velocity": 103, "channel": 0}, {"type": "note_off", "time": 824, "note": 68, "velocity": 103, "channel": 0}, {"type": "note_on", "time": 47, "note": 65, "velocity": 96, "channel": 0}, {"type": "note_off", "time": 226, "note": 65, "velocity": 96, "channel": 0}, {"type": "note_on", "time": 3040, "note": 70, "velocity": 92, "channel": 0}, {"type": "note_off", "time": 256, "note": 70, "velocity": 92, "channel": 0}, {"type": "note_on", "time": 25, "note": 73, "velocity": 94, "channel": 0}, {"type": "note_off", "time": 142, "note": 73, "velocity": 94, "channel": 0}, {"type": "note_on", "time": 16, "note": 70, "velocity": 93, "channel": 0}, {"type": "note_off", "time": 365, "note": 70, "velocity": 93, "channel": 0}, {"type": "note_on", "time": 159, "note": 68, "velocity": 98, "channel": 0}, {"type": "note_off", "time": 302, "note": 68, "velocity": 98, "channel": 0}, {"type": "note_on", "time": 25, "note": 72, "velocity": 90, "channel": 0}, {"type": "note_off", "time": 113, "note": 72, "velocity": 90, "channel": 0}, {"type": "note_on", "time": 41, "note": 70, "velocity": 93, "channel": 0}, {"type": "note_off", "time": 361, "note": 70, "velocity": 93, "channel": 0}, {"type": "note_on", "time": 82, "note": 73, "velocity": 88, "channel": 0}, {"type": "note_off", "time": 159, "note": 73, "velocity": 88, "channel": 0}, {"type": "note_on", "time": 60, "note": 71, "velocity": 89, "channel": 0}, {"type": "note_off", "time": 155, "note": 71, "velocity": 89, "channel": 0}, {"type": "note_on", "time": 37, "note": 68, "velocity": 93, "channel": 0}, {"type": "note_off", "time": 323, "note": 68, "velocity": 93, "channel": 0}, {"type": "note_on", "time": 21, "note": 70, "velocity": 93, "channel": 0}, {"type": "note_off", "time": 214, "note": 70, "velocity": 93, "channel": 0}, {"type": "note_on", "time": 46, "note": 73, "velocity": 96, "channel": 0}, {"type": "note_off", "time": 176, "note": 73, "velocity": 96, "channel": 0}, {"type": "note_on", "time": 42, "note": 70, "velocity": 94, "channel": 0}, {"type": "note_off", "time": 281, "note": 70, "velocity": 94, "channel": 0}, {"type": "note_on", "time": 62, "note": 73, "velocity": 87, "channel": 0}, {"type": "note_off", "time": 151, "note": 73, "velocity": 87, "channel": 0}, {"type": "note_on", "time": 117, "note": 68, "velocity": 94, "channel": 0}, {"type": "note_off", "time": 277, "note": 68, "velocity": 94, "channel": 0}, {"type": "note_on", "time": 33, "note": 69, "velocity": 97, "channel": 0}, {"type": "note_off", "time": 319, "note": 69, "velocity": 97, "channel": 0}, {"type": "note_on", "time": 0, "note": 73, "velocity": 94, "channel": 0}, {"type": "note_off", "time": 252, "note": 73, "velocity": 94, "channel": 0}, {"type": "note_on", "time": 42, "note": 73, "velocity": 98, "channel": 0}, {"type": "note_off", "time": 340, "note": 73, "velocity": 98, "channel": 0}, {"type": "note_on", "time": 37, "note": 70, "velocity": 92, "channel": 0}, {"type": "note_off", "time": 294, "note": 70, "velocity": 92, "channel": 0}, {"type": "note_on", "time": 180, "note": 73, "velocity": 95, "channel": 0}, {"type": "note_off", "time": 155, "note": 73, "velocity": 95, "channel": 0}, {"type": "note_on", "time": 16, "note": 72, "velocity": 99, "channel": 0}, {"type": "note_off", "time": 394, "note": 72, "velocity": 99, "channel": 0}, {"type": "note_on", "time": 138, "note": 70, "velocity": 88, "channel": 0}, {"type": "note_off", "time": 252, "note": 70, "velocity": 88, "channel": 0}, {"type": "note_on", "time": 71, "note": 72, "velocity": 100, "channel": 0}, {"type": "note_off", "time": 394, "note": 72, "velocity": 100, "channel": 0}, {"type": "note_on", "time": 0, "note": 73, "velocity": 95, "channel": 0}, {"type": "note_off", "time": 285, "note": 73, "velocity": 95, "channel": 0}, {"type": "note_on", "time": 0, "note": 71, "velocity": 95, "channel": 0}, {"type": "note_off", "time": 121, "note": 71, "velocity": 95, "channel": 0}, {"type": "note_on", "time": 21, "note": 70, "velocity": 92, "channel": 0}, {"type": "note_off", "time": 377, "note": 70, "velocity": 92, "channel": 0}, {"type": "note_on", "time": 21, "note": 71, "velocity": 101, "channel": 0}, {"type": "note_off", "time": 147, "note": 71, "velocity": 101, "channel": 0}, {"type": "note_on", "time": 42, "note": 70, "velocity": 91, "channel": 0}, {"type": "note_off", "time": 142, "note": 70, "velocity": 91, "channel": 0}, {"type": "note_on", "time": 16, "note": 71, "velocity": 84, "channel": 0}, {"type": "note_off", "time": 147, "note": 71, "velocity": 84, "channel": 0}, {"type": "note_on", "time": 0, "note": 72, "velocity": 98, "channel": 0}, {"type": "note_off", "time": 445, "note": 72, "velocity": 98, "channel": 0}, {"type": "note_on", "time": 8, "note": 73, "velocity": 92, "channel": 0}, {"type": "note_off", "time": 369, "note": 73, "velocity": 92, "channel": 0}, {"type": "note_on", "time": 75, "note": 68, "velocity": 98, "channel": 0}, {"type": "note_off", "time": 390, "note": 68, "velocity": 98, "channel": 0}, {"type": "note_on", "time": 0, "note": 71, "velocity": 98, "channel": 0}, {"type": "note_off", "time": 121, "note": 71, "velocity": 98, "channel": 0}, {"type": "note_on", "time": 29, "note": 72, "velocity": 90, "channel": 0}, {"type": "note_off", "time": 274, "note": 72, "velocity": 90, "channel": 0}, {"type": "note_on", "time": 27, "note": 71, "velocity": 96, "channel": 0}, {"type": "note_off", "time": 197, "note": 71, "velocity": 96, "channel": 0}, {"type": "note_on", "time": 20, "note": 72, "velocity": 90, "channel": 0}, {"type": "note_off", "time": 273, "note": 72, "velocity": 90, "channel": 0}, {"type": "note_on", "time": 21, "note": 70, "velocity": 89, "channel": 0}, {"type": "note_off", "time": 210, "note": 70, "velocity": 89, "channel": 0}, {"type": "note_on", "time": 46, "note": 68, "velocity": 95, "channel": 0}, {"type": "note_off", "time": 390, "note": 68, "velocity": 95, "channel": 0}, {"type": "note_on", "time": 21, "note": 70, "velocity": 90, "channel": 0}, {"type": "note_off", "time": 176, "note": 70, "velocity": 90, "channel": 0}, {"type": "note_on", "time": 12, "note": 71, "velocity": 91, "channel": 0}, {"type": "note_off", "time": 163, "note": 71, "velocity": 91, "channel": 0}, {"type": "note_on", "time": 54, "note": 69, "velocity": 87, "channel": 0}, {"type": "note_off", "time": 155, "note": 69, "velocity": 87, "channel": 0}, {"type": "note_on", "time": 67, "note": 70, "velocity": 87, "channel": 0}, {"type": "note_off", "time": 247, "note": 70, "velocity": 87, "channel": 0}, {"type": "note_on", "time": 50, "note": 68, "velocity": 94, "channel": 0}, {"type": "note_off", "time": 277, "note": 68, "velocity": 94, "channel": 0}, {"type": "note_on", "time": 29, "note": 70, "velocity": 90, "channel": 0}, {"type": "note_off", "time": 138, "note": 70, "velocity": 90, "channel": 0}, {"type": "note_on", "time": 16, "note": 73, "velocity": 92, "channel": 0}, {"type": "note_off", "time": 134, "note": 73, "velocity": 92, "channel": 0}, {"type": "note_on", "time": 16, "note": 72, "velocity": 100, "channel": 0}, {"type": "note_off", "time": 478, "note": 72, "velocity": 100, "channel": 0}, {"type": "note_on", "time": 4, "note": 73, "velocity": 95, "channel": 0}, {"type": "note_off", "time": 126, "note": 73, "velocity": 95, "channel": 0}, {"type": "note_on", "time": 54, "note": 70, "velocity": 91, "channel": 0}, {"type": "note_off", "time": 319, "note": 70, "velocity": 91, "channel": 0}, {"type": "note_on", "time": 0, "note": 68, "velocity": 93, "channel": 0}, {"type": "note_off", "time": 336, "note": 68, "velocity": 93, "channel": 0}, {"type": "note_on", "time": 197, "note": 70, "velocity": 93, "channel": 0}, {"type": "note_off", "time": 470, "note": 70, "velocity": 93, "channel": 0}, {"type": "note_on", "time": 84, "note": 74, "velocity": 93, "channel": 0}, {"type": "note_off", "time": 357, "note": 74, "velocity": 93, "channel": 0}, {"type": "note_on", "time": 289, "note": 68, "velocity": 84, "channel": 0}, {"type": "note_off", "time": 340, "note": 68, "velocity": 84, "channel": 0}, {"type": "note_on", "time": 37, "note": 70, "velocity": 95, "channel": 0}, {"type": "note_off", "time": 336, "note": 70, "velocity": 95, "channel": 0}, {"type": "note_on", "time": 8, "note": 72, "velocity": 100, "channel": 0}, {"type": "note_off", "time": 222, "note": 72, "velocity": 100, "channel": 0}, {"type": "note_on", "time": 141, "note": 71, "velocity": 91, "channel": 0}, {"type": "note_off", "time": 167, "note": 71, "velocity": 91, "channel": 0}, {"type": "note_on", "time": 17, "note": 70, "velocity": 101, "channel": 0}, {"type": "note_off", "time": 1409, "note": 70, "velocity": 101, "channel": 0}, {"type": "note_on", "time": 1666, "note": 72, "velocity": 99, "channel": 0}, {"type": "note_off", "time": 256, "note": 72, "velocity": 99, "channel": 0}, {"type": "note_on", "time": 5, "note": 69, "velocity": 100, "channel": 0}, {"type": "note_off", "time": 382, "note": 69, "velocity": 100, "channel": 0}, {"type": "note_on", "time": 97, "note": 65, "velocity": 94, "channel": 0}, {"type": "note_off", "time": 218, "note": 65, "velocity": 94, "channel": 0}, {"type": "note_on", "time": 149, "note": 73, "velocity": 100, "channel": 0}, {"type": "note_off", "time": 262, "note": 73, "velocity": 100, "channel": 0}, {"type": "note_on", "time": 11, "note": 72, "velocity": 105, "channel": 0}, {"type": "note_off", "time": 394, "note": 72, "velocity": 105, "channel": 0}, {"type": "note_on", "time": 17, "note": 71, "velocity": 100, "channel": 0}, {"type": "note_off", "time": 161, "note": 71, "velocity": 100, "channel": 0}, {"type": "note_on", "time": 102, "note": 69, "velocity": 91, "channel": 0}, {"type": "note_off", "time": 260, "note": 69, "velocity": 91, "channel": 0}, {"type": "note_on", "time": 42, "note": 71, "velocity": 99, "channel": 0}, {"type": "note_off", "time": 130, "note": 71, "velocity": 99, "channel": 0}, {"type": "note_on", "time": 8, "note": 73, "velocity": 102, "channel": 0}, {"type": "note_off", "time": 243, "note": 73, "velocity": 102, "channel": 0}, {"type": "note_on", "time": 71, "note": 71, "velocity": 98, "channel": 0}, {"type": "note_off", "time": 705, "note": 71, "velocity": 98, "channel": 0}, {"type": "note_on", "time": 33, "note": 69, "velocity": 97, "channel": 0}, {"type": "note_off", "time": 176, "note": 69, "velocity": 97, "channel": 0}, {"type": "note_on", "time": 25, "note": 71, "velocity": 103, "channel": 0}, {"type": "note_off", "time": 306, "note": 71, "velocity": 103, "channel": 0}, {"type": "note_on", "time": 0, "note": 73, "velocity": 109, "channel": 0}, {"type": "note_off", "time": 147, "note": 73, "velocity": 109, "channel": 0}, {"type": "note_on", "time": 33, "note": 72, "velocity": 105, "channel": 0}, {"type": "note_off", "time": 260, "note": 72, "velocity": 105, "channel": 0}, {"type": "note_on", "time": 8, "note": 69, "velocity": 95, "channel": 0}, {"type": "note_off", "time": 100, "note": 69, "velocity": 95, "channel": 0}, {"type": "note_on", "time": 71, "note": 65, "velocity": 97, "channel": 0}, {"type": "note_off", "time": 336, "note": 65, "velocity": 97, "channel": 0}, {"type": "note_on", "time": 0, "note": 69, "velocity": 98, "channel": 0}, {"type": "note_off", "time": 256, "note": 69, "velocity": 98, "channel": 0}, {"type": "note_on", "time": 12, "note": 72, "velocity": 101, "channel": 0}, {"type": "note_off", "time": 121, "note": 72, "velocity": 101, "channel": 0}, {"type": "note_on", "time": 54, "note": 69, "velocity": 100, "channel": 0}, {"type": "note_off", "time": 327, "note": 69, "velocity": 100, "channel": 0}, {"type": "note_on", "time": 37, "note": 72, "velocity": 94, "channel": 0}, {"type": "note_off", "time": 214, "note": 72, "velocity": 94, "channel": 0}, {"type": "note_on", "time": 4, "note": 69, "velocity": 96, "channel": 0}, {"type": "note_off", "time": 294, "note": 69, "velocity": 96, "channel": 0}, {"type": "note_on", "time": 163, "note": 68, "velocity": 84, "channel": 0}, {"type": "note_off", "time": 205, "note": 68, "velocity": 84, "channel": 0}, {"type": "note_on", "time": 96, "note": 71, "velocity": 95, "channel": 0}, {"type": "note_off", "time": 226, "note": 71, "velocity": 95, "channel": 0}, {"type": "note_on", "time": 42, "note": 69, "velocity": 93, "channel": 0}, {"type": "note_off", "time": 247, "note": 69, "velocity": 93, "channel": 0}, {"type": "note_on", "time": 8, "note": 74, "velocity": 100, "channel": 0}, {"type": "note_off", "time": 281, "note": 74, "velocity": 100, "channel": 0}, {"type": "note_on", "time": 37, "note": 69, "velocity": 101, "channel": 0}, {"type": "note_off", "time": 495, "note": 69, "velocity": 101, "channel": 0}, {"type": "note_on", "time": 0, "note": 71, "velocity": 100, "channel": 0}, {"type": "note_off", "time": 130, "note": 71, "velocity": 100, "channel": 0}, {"type": "note_on", "time": 12, "note": 73, "velocity": 106, "channel": 0}, {"type": "note_off", "time": 180, "note": 73, "velocity": 106, "channel": 0}, {"type": "note_on", "time": 37, "note": 72, "velocity": 108, "channel": 0}, {"type": "note_off", "time": 126, "note": 72, "velocity": 108, "channel": 0}, {"type": "note_on", "time": 33, "note": 71, "velocity": 104, "channel": 0}, {"type": "note_on", "time": 193, "note": 72, "velocity": 93, "channel": 0}, {"type": "note_off", "time": 0, "note": 71, "velocity": 104, "channel": 0}, {"type": "note_off", "time": 264, "note": 72, "velocity": 93, "channel": 0}, {"type": "note_on", "time": 67, "note": 71, "velocity": 101, "channel": 0}, {"type": "note_off", "time": 243, "note": 71, "velocity": 101, "channel": 0}, {"type": "note_on", "time": 50, "note": 72, "velocity": 101, "channel": 0}, {"type": "note_off", "time": 327, "note": 72, "velocity": 101, "channel": 0}, {"type": "note_on", "time": 78, "note": 71, "velocity": 98, "channel": 0}, {"type": "note_off", "time": 121, "note": 71, "velocity": 98, "channel": 0}, {"type": "note_on", "time": 9, "note": 72, "velocity": 102, "channel": 0}, {"type": "note_off", "time": 310, "note": 72, "velocity": 102, "channel": 0}, {"type": "note_on", "time": 109, "note": 71, "velocity": 94, "channel": 0}, {"type": "note_off", "time": 75, "note": 71, "velocity": 94, "channel": 0}, {"type": "note_on", "time": 37, "note": 72, "velocity": 100, "channel": 0}, {"type": "note_off", "time": 285, "note": 72, "velocity": 100, "channel": 0}, {"type": "note_on", "time": 33, "note": 73, "velocity": 102, "channel": 0}, {"type": "note_off", "time": 205, "note": 73, "velocity": 102, "channel": 0}, {"type": "note_on", "time": 54, "note": 72, "velocity": 92, "channel": 0}, {"type": "note_off", "time": 352, "note": 72, "velocity": 92, "channel": 0}, {"type": "note_on", "time": 20, "note": 74, "velocity": 103, "channel": 0}, {"type": "note_off", "time": 189, "note": 74, "velocity": 103, "channel": 0}, {"type": "note_on", "time": 12, "note": 73, "velocity": 105, "channel": 0}, {"type": "note_off", "time": 117, "note": 73, "velocity": 105, "channel": 0}, {"type": "note_on", "time": 147, "note": 71, "velocity": 98, "channel": 0}, {"type": "note_off", "time": 277, "note": 71, "velocity": 98, "channel": 0}, {"type": "note_on", "time": 62, "note": 72, "velocity": 90, "channel": 0}, {"type": "note_off", "time": 264, "note": 72, "velocity": 90, "channel": 0}, {"type": "note_on", "time": 37, "note": 69, "velocity": 99, "channel": 0}, {"type": "note_off", "time": 130, "note": 69, "velocity": 99, "channel": 0}, {"type": "note_on", "time": 4, "note": 71, "velocity": 102, "channel": 0}, {"type": "note_off", "time": 193, "note": 71, "velocity": 102, "channel": 0}, {"type": "note_on", "time": 21, "note": 69, "velocity": 102, "channel": 0}, {"type": "note_off", "time": 176, "note": 69, "velocity": 102, "channel": 0}, {"type": "note_on", "time": 42, "note": 65, "velocity": 99, "channel": 0}, {"type": "note_off", "time": 256, "note": 65, "velocity": 99, "channel": 0}, {"type": "note_on", "time": 0, "note": 69, "velocity": 97, "channel": 0}, {"type": "note_off", "time": 117, "note": 69, "velocity": 97, "channel": 0}, {"type": "note_on", "time": 25, "note": 71, "velocity": 102, "channel": 0}, {"type": "note_off", "time": 210, "note": 71, "velocity": 102, "channel": 0}, {"type": "note_on", "time": 12, "note": 69, "velocity": 101, "channel": 0}, {"type": "note_off", "time": 394, "note": 69, "velocity": 101, "channel": 0}, {"type": "note_on", "time": 67, "note": 71, "velocity": 102, "channel": 0}, {"type": "note_off", "time": 218, "note": 71, "velocity": 102, "channel": 0}, {"type": "note_on", "time": 50, "note": 69, "velocity": 99, "channel": 0}, {"type": "note_off", "time": 126, "note": 69, "velocity": 99, "channel": 0}, {"type": "note_on", "time": 4, "note": 65, "velocity": 99, "channel": 0}, {"type": "note_off", "time": 411, "note": 65, "velocity": 99, "channel": 0}, {"type": "note_on", "time": 50, "note": 72, "velocity": 107, "channel": 0}, {"type": "note_off", "time": 407, "note": 72, "velocity": 107, "channel": 0}, {"type": "note_on", "time": 0, "note": 71, "velocity": 106, "channel": 0}, {"type": "note_off", "time": 323, "note": 71, "velocity": 106, "channel": 0}, {"type": "note_on", "time": 16, "note": 72, "velocity": 104, "channel": 0}, {"type": "note_off", "time": 319, "note": 72, "velocity": 104, "channel": 0}, {"type": "note_on", "time": 67, "note": 71, "velocity": 99, "channel": 0}, {"type": "note_off", "time": 142, "note": 71, "velocity": 99, "channel": 0}, {"type": "note_on", "time": 25, "note": 73, "velocity": 101, "channel": 0}, {"type": "note_off", "time": 193, "note": 73, "velocity": 101, "channel": 0}, {"type": "note_on", "time": 33, "note": 71, "velocity": 102, "channel": 0}, {"type": "note_off", "time": 231, "note": 71, "velocity": 102, "channel": 0}, {"type": "note_on", "time": 0, "note": 72, "velocity": 100, "channel": 0}, {"type": "note_off", "time": 226, "note": 72, "velocity": 100, "channel": 0}, {"type": "note_on", "time": 16, "note": 73, "velocity": 99, "channel": 0}, {"type": "note_off", "time": 155, "note": 73, "velocity": 99, "channel": 0}, {"type": "note_on", "time": 41, "note": 72, "velocity": 100, "channel": 0}, {"type": "note_off", "time": 499, "note": 72, "velocity": 100, "channel": 0}, {"type": "note_on", "time": 4336, "note": 67, "velocity": 100, "channel": 0}, {"type": "note_off", "time": 328, "note": 67, "velocity": 100, "channel": 0}, {"type": "note_on", "time": 29, "note": 68, "velocity": 98, "channel": 0}, {"type": "note_on", "time": 209, "note": 69, "velocity": 98, "channel": 0}, {"type": "note_off", "time": 0, "note": 68, "velocity": 98, "channel": 0}, {"type": "note_off", "time": 1248, "note": 69, "velocity": 98, "channel": 0}, {"type": "note_on", "time": 143, "note": 65, "velocity": 93, "channel": 0}, {"type": "note_off", "time": 232, "note": 65, "velocity": 93, "channel": 0}, {"type": "note_on", "time": 89, "note": 68, "velocity": 101, "channel": 0}, {"type": "note_off", "time": 567, "note": 68, "velocity": 101, "channel": 0}, {"type": "note_on", "time": 59, "note": 65, "velocity": 101, "channel": 0}, {"type": "note_off", "time": 465, "note": 65, "velocity": 101, "channel": 0}, {"type": "note_on", "time": 197, "note": 69, "velocity": 112, "channel": 0}, {"type": "note_off", "time": 1439, "note": 69, "velocity": 112, "channel": 0}, {"type": "note_on", "time": 173, "note": 65, "velocity": 97, "channel": 0}, {"type": "note_off", "time": 376, "note": 65, "velocity": 97, "channel": 0}, {"type": "note_on", "time": 35, "note": 71, "velocity": 104, "channel": 0}, {"type": "note_off", "time": 549, "note": 71, "velocity": 104, "channel": 0}, {"type": "note_on", "time": 77, "note": 72, "velocity": 95, "channel": 0}, {"type": "note_off", "time": 215, "note": 72, "velocity": 95, "channel": 0}, {"type": "note_on", "time": 337, "note": 71, "velocity": 102, "channel": 0}, {"type": "note_off", "time": 1579, "note": 71, "velocity": 102, "channel": 0}, {"type": "note_on", "time": 179, "note": 65, "velocity": 99, "channel": 0}, {"type": "note_off", "time": 173, "note": 65, "velocity": 99, "channel": 0}, {"type": "note_on", "time": 65, "note": 69, "velocity": 108, "channel": 0}, {"type": "note_off", "time": 543, "note": 69, "velocity": 108, "channel": 0}, {"type": "note_on", "time": 107, "note": 65, "velocity": 102, "channel": 0}, {"type": "note_off", "time": 250, "note": 65, "velocity": 102, "channel": 0}, {"type": "note_on", "time": 0, "note": 69, "velocity": 106, "channel": 0}, {"type": "note_off", "time": 442, "note": 69, "velocity": 106, "channel": 0}, {"type": "note_on", "time": 0, "note": 65, "velocity": 100, "channel": 0}, {"type": "note_off", "time": 334, "note": 65, "velocity": 100, "channel": 0}, {"type": "note_on", "time": 36, "note": 69, "velocity": 101, "channel": 0}, {"type": "note_off", "time": 991, "note": 69, "velocity": 101, "channel": 0}, {"type": "note_on", "time": 302, "note": 65, "velocity": 99, "channel": 0}, {"type": "note_off", "time": 260, "note": 65, "velocity": 99, "channel": 0}, {"type": "note_on", "time": 42, "note": 71, "velocity": 101, "channel": 0}, {"type": "note_off", "time": 445, "note": 71, "velocity": 101, "channel": 0}, {"type": "note_on", "time": 134, "note": 65, "velocity": 94, "channel": 0}, {"type": "note_off", "time": 277, "note": 65, "velocity": 94, "channel": 0}, {"type": "note_on", "time": 0, "note": 71, "velocity": 103, "channel": 0}, {"type": "note_off", "time": 428, "note": 71, "velocity": 103, "channel": 0}, {"type": "note_on", "time": 151, "note": 65, "velocity": 98, "channel": 0}, {"type": "note_off", "time": 327, "note": 65, "velocity": 98, "channel": 0}, {"type": "note_on", "time": 16, "note": 71, "velocity": 104, "channel": 0}, {"type": "note_off", "time": 562, "note": 71, "velocity": 104, "channel": 0}, {"type": "note_on", "time": 50, "note": 66, "velocity": 99, "channel": 0}, {"type": "note_off", "time": 394, "note": 66, "velocity": 99, "channel": 0}, {"type": "note_on", "time": 2259, "note": 69, "velocity": 96, "channel": 0}, {"type": "note_off", "time": 520, "note": 69, "velocity": 96, "channel": 0}, {"type": "note_on", "time": 25, "note": 65, "velocity": 96, "channel": 0}, {"type": "note_off", "time": 191, "note": 65, "velocity": 96, "channel": 0}, {"type": "note_on", "time": 41, "note": 69, "velocity": 88, "channel": 0}, {"type": "note_off", "time": 519, "note": 69, "velocity": 88, "channel": 0}, {"type": "note_on", "time": 83, "note": 65, "velocity": 94, "channel": 0}, {"type": "note_off", "time": 244, "note": 65, "velocity": 94, "channel": 0}, {"type": "note_on", "time": 0, "note": 71, "velocity": 98, "channel": 0}, {"type": "note_off", "time": 501, "note": 71, "velocity": 98, "channel": 0}, {"type": "note_on", "time": 125, "note": 65, "velocity": 97, "channel": 0}, {"type": "note_off", "time": 244, "note": 65, "velocity": 97, "channel": 0}, {"type": "note_on", "time": 250, "note": 71, "velocity": 95, "channel": 0}, {"type": "note_off", "time": 346, "note": 71, "velocity": 95, "channel": 0}, {"type": "note_on", "time": 0, "note": 66, "velocity": 85, "channel": 0}, {"type": "note_off", "time": 334, "note": 66, "velocity": 85, "channel": 0}, {"type": "note_on", "time": 0, "note": 71, "velocity": 82, "channel": 0}, {"type": "note_off", "time": 418, "note": 71, "velocity": 82, "channel": 0}, {"type": "note_on", "time": 35, "note": 66, "velocity": 99, "channel": 0}, {"type": "note_off", "time": 346, "note": 66, "velocity": 99, "channel": 0}, {"type": "note_on", "time": 76, "note": 71, "velocity": 83, "channel": 0}, {"type": "note_off", "time": 336, "note": 71, "velocity": 83, "channel": 0}, {"type": "note_on", "time": 178, "note": 65, "velocity": 96, "channel": 0}, {"type": "note_off", "time": 185, "note": 65, "velocity": 96, "channel": 0}, {"type": "note_on", "time": 0, "note": 68, "velocity": 92, "channel": 0}, {"type": "note_off", "time": 95, "note": 68, "velocity": 92, "channel": 0}, {"type": "note_on", "time": 0, "note": 69, "velocity": 88, "channel": 0}, {"type": "note_off", "time": 286, "note": 69, "velocity": 88, "channel": 0}, {"type": "note_on", "time": 77, "note": 65, "velocity": 92, "channel": 0}, {"type": "note_off", "time": 336, "note": 65, "velocity": 92, "channel": 0}, {"type": "note_on", "time": 84, "note": 69, "velocity": 86, "channel": 0}, {"type": "note_off", "time": 319, "note": 69, "velocity": 86, "channel": 0}, {"type": "note_on", "time": 117, "note": 65, "velocity": 80, "channel": 0}, {"type": "note_off", "time": 352, "note": 65, "velocity": 80, "channel": 0}, {"type": "note_on", "time": 117, "note": 69, "velocity": 79, "channel": 0}, {"type": "note_off", "time": 294, "note": 69, "velocity": 79, "channel": 0}, {"type": "note_on", "time": 129, "note": 65, "velocity": 105, "channel": 0}, {"type": "note_off", "time": 256, "note": 65, "velocity": 105, "channel": 0}, {"type": "note_on", "time": 41, "note": 69, "velocity": 94, "channel": 0}, {"type": "note_off", "time": 232, "note": 69, "velocity": 94, "channel": 0}, {"type": "note_on", "time": 155, "note": 65, "velocity": 90, "channel": 0}, {"type": "note_off", "time": 221, "note": 65, "velocity": 90, "channel": 0}, {"type": "note_on", "time": 35, "note": 70, "velocity": 91, "channel": 0}, {"type": "note_off", "time": 322, "note": 70, "velocity": 91, "channel": 0}, {"type": "note_on", "time": 83, "note": 72, "velocity": 81, "channel": 0}, {"type": "note_off", "time": 328, "note": 72, "velocity": 81, "channel": 0}, {"type": "note_on", "time": 65, "note": 65, "velocity": 86, "channel": 0}, {"type": "note_off", "time": 262, "note": 65, "velocity": 86, "channel": 0}, {"type": "note_on", "time": 11, "note": 72, "velocity": 83, "channel": 0}, {"type": "note_off", "time": 244, "note": 72, "velocity": 83, "channel": 0}, {"type": "note_on", "time": 89, "note": 65, "velocity": 89, "channel": 0}, {"type": "note_off", "time": 256, "note": 65, "velocity": 89, "channel": 0}, {"type": "note_on", "time": 71, "note": 72, "velocity": 84, "channel": 0}, {"type": "note_off", "time": 364, "note": 72, "velocity": 84, "channel": 0}, {"type": "note_on", "time": 65, "note": 65, "velocity": 78, "channel": 0}, {"type": "note_off", "time": 262, "note": 65, "velocity": 78, "channel": 0}, {"type": "note_on", "time": 71, "note": 72, "velocity": 81, "channel": 0}, {"type": "note_off", "time": 352, "note": 72, "velocity": 81, "channel": 0}, {"type": "note_on", "time": 268, "note": 65, "velocity": 96, "channel": 0}, {"type": "note_off", "time": 209, "note": 65, "velocity": 96, "channel": 0}, {"type": "note_on", "time": 0, "note": 68, "velocity": 96, "channel": 0}, {"type": "note_off", "time": 101, "note": 68, "velocity": 96, "channel": 0}, {"type": "note_on", "time": 0, "note": 69, "velocity": 90, "channel": 0}, {"type": "note_off", "time": 250, "note": 69, "velocity": 90, "channel": 0}, {"type": "note_on", "time": 197, "note": 65, "velocity": 91, "channel": 0}, {"type": "note_off", "time": 358, "note": 65, "velocity": 91, "channel": 0}, {"type": "note_on", "time": 95, "note": 69, "velocity": 93, "channel": 0}, {"type": "note_off", "time": 286, "note": 69, "velocity": 93, "channel": 0}, {"type": "note_on", "time": 125, "note": 65, "velocity": 90, "channel": 0}, {"type": "note_off", "time": 280, "note": 65, "velocity": 90, "channel": 0}, {"type": "note_on", "time": 95, "note": 71, "velocity": 96, "channel": 0}, {"type": "note_off", "time": 376, "note": 71, "velocity": 96, "channel": 0}, {"type": "note_on", "time": 29, "note": 65, "velocity": 87, "channel": 0}, {"type": "note_off", "time": 328, "note": 65, "velocity": 87, "channel": 0}, {"type": "note_on", "time": 0, "note": 72, "velocity": 81, "channel": 0}, {"type": "note_off", "time": 298, "note": 72, "velocity": 81, "channel": 0}, {"type": "note_on", "time": 215, "note": 65, "velocity": 88, "channel": 0}, {"type": "note_off", "time": 292, "note": 65, "velocity": 88, "channel": 0}, {"type": "note_on", "time": 41, "note": 72, "velocity": 77, "channel": 0}, {"type": "note_off", "time": 262, "note": 72, "velocity": 77, "channel": 0}, {"type": "note_on", "time": 298, "note": 65, "velocity": 95, "channel": 0}, {"type": "note_off", "time": 221, "note": 65, "velocity": 95, "channel": 0}, {"type": "note_on", "time": 5, "note": 69, "velocity": 94, "channel": 0}, {"type": "note_off", "time": 310, "note": 69, "velocity": 94, "channel": 0}, {"type": "note_on", "time": 132, "note": 65, "velocity": 94, "channel": 0}, {"type": "note_off", "time": 243, "note": 65, "velocity": 94, "channel": 0}, {"type": "note_on", "time": 168, "note": 69, "velocity": 77, "channel": 0}, {"type": "note_off", "time": 268, "note": 69, "velocity": 77, "channel": 0}, {"type": "note_on", "time": 83, "note": 65, "velocity": 76, "channel": 0}, {"type": "note_off", "time": 294, "note": 65, "velocity": 76, "channel": 0}, {"type": "note_on", "time": 126, "note": 69, "velocity": 90, "channel": 0}, {"type": "note_off", "time": 277, "note": 69, "velocity": 90, "channel": 0}, {"type": "note_on", "time": 0, "note": 65, "velocity": 90, "channel": 0}, {"type": "note_off", "time": 285, "note": 65, "velocity": 90, "channel": 0}, {"type": "note_on", "time": 156, "note": 69, "velocity": 93, "channel": 0}, {"type": "note_off", "time": 346, "note": 69, "velocity": 93, "channel": 0}, {"type": "note_on", "time": 67, "note": 65, "velocity": 82, "channel": 0}, {"type": "note_off", "time": 361, "note": 65, "velocity": 82, "channel": 0}, {"type": "note_on", "time": 109, "note": 69, "velocity": 77, "channel": 0}, {"type": "note_off", "time": 310, "note": 69, "velocity": 77, "channel": 0}, {"type": "note_on", "time": 42, "note": 65, "velocity": 80, "channel": 0}, {"type": "note_off", "time": 327, "note": 65, "velocity": 80, "channel": 0}, {"type": "note_on", "time": 75, "note": 70, "velocity": 90, "channel": 0}, {"type": "note_off", "time": 336, "note": 70, "velocity": 90, "channel": 0}, {"type": "note_on", "time": 134, "note": 65, "velocity": 85, "channel": 0}, {"type": "note_off", "time": 352, "note": 65, "velocity": 85, "channel": 0}, {"type": "note_on", "time": 0, "note": 70, "velocity": 84, "channel": 0}, {"type": "note_off", "time": 386, "note": 70, "velocity": 84, "channel": 0}, {"type": "note_on", "time": 25, "note": 65, "velocity": 85, "channel": 0}, {"type": "note_off", "time": 294, "note": 65, "velocity": 85, "channel": 0}, {"type": "note_on", "time": 121, "note": 69, "velocity": 91, "channel": 0}, {"type": "note_off", "time": 161, "note": 69, "velocity": 91, "channel": 0}, {"type": "note_on", "time": 11, "note": 65, "velocity": 97, "channel": 0}, {"type": "note_off", "time": 352, "note": 65, "velocity": 97, "channel": 0}, {"type": "note_on", "time": 301, "note": 71, "velocity": 87, "channel": 0}, {"type": "note_off", "time": 369, "note": 71, "velocity": 87, "channel": 0}, {"type": "note_on", "time": 75, "note": 65, "velocity": 83, "channel": 0}, {"type": "note_off", "time": 302, "note": 65, "velocity": 83, "channel": 0}, {"type": "note_on", "time": 41, "note": 71, "velocity": 83, "channel": 0}, {"type": "note_off", "time": 285, "note": 71, "velocity": 83, "channel": 0}, {"type": "note_on", "time": 0, "note": 65, "velocity": 86, "channel": 0}, {"type": "note_off", "time": 243, "note": 65, "velocity": 86, "channel": 0}, {"type": "note_on", "time": 63, "note": 69, "velocity": 93, "channel": 0}, {"type": "note_off", "time": 179, "note": 69, "velocity": 93, "channel": 0}, {"type": "note_on", "time": 5, "note": 65, "velocity": 101, "channel": 0}, {"type": "note_off", "time": 328, "note": 65, "velocity": 101, "channel": 0}, {"type": "note_on", "time": 125, "note": 71, "velocity": 87, "channel": 0}, {"type": "note_off", "time": 310, "note": 71, "velocity": 87, "channel": 0}, {"type": "note_on", "time": 61, "note": 65, "velocity": 83, "channel": 0}, {"type": "note_off", "time": 310, "note": 65, "velocity": 83, "channel": 0}, {"type": "note_on", "time": 512, "note": 69, "velocity": 86, "channel": 0}, {"type": "note_off", "time": 285, "note": 69, "velocity": 86, "channel": 0}, {"type": "note_on", "time": 92, "note": 65, "velocity": 84, "channel": 0}, {"type": "note_off", "time": 336, "note": 65, "velocity": 84, "channel": 0}, {"type": "note_on", "time": 50, "note": 69, "velocity": 85, "channel": 0}, {"type": "note_off", "time": 302, "note": 69, "velocity": 85, "channel": 0}, {"type": "note_on", "time": 204, "note": 65, "velocity": 92, "channel": 0}, {"type": "note_off", "time": 161, "note": 65, "velocity": 92, "channel": 0}, {"type": "note_on", "time": 47, "note": 68, "velocity": 101, "channel": 0}, {"type": "note_off", "time": 262, "note": 68, "velocity": 101, "channel": 0}, {"type": "note_on", "time": 0, "note": 69, "velocity": 103, "channel": 0}, {"type": "note_off", "time": 316, "note": 69, "velocity": 103, "channel": 0}, {"type": "note_on", "time": 65, "note": 65, "velocity": 84, "channel": 0}, {"type": "note_off", "time": 243, "note": 65, "velocity": 84, "channel": 0}, {"type": "note_on", "time": 58, "note": 69, "velocity": 79, "channel": 0}, {"type": "note_off", "time": 252, "note": 69, "velocity": 79, "channel": 0}, {"type": "note_on", "time": 58, "note": 65, "velocity": 87, "channel": 0}, {"type": "note_off", "time": 310, "note": 65, "velocity": 87, "channel": 0}, {"type": "note_on", "time": 117, "note": 69, "velocity": 85, "channel": 0}, {"type": "note_off", "time": 319, "note": 69, "velocity": 85, "channel": 0}, {"type": "note_on", "time": 300, "note": 65, "velocity": 99, "channel": 0}, {"type": "note_off", "time": 221, "note": 65, "velocity": 99, "channel": 0}, {"type": "note_on", "time": 65, "note": 71, "velocity": 100, "channel": 0}, {"type": "note_off", "time": 394, "note": 71, "velocity": 100, "channel": 0}, {"type": "note_on", "time": 119, "note": 65, "velocity": 98, "channel": 0}, {"type": "note_off", "time": 268, "note": 65, "velocity": 98, "channel": 0}, {"type": "note_on", "time": 41, "note": 71, "velocity": 99, "channel": 0}, {"type": "note_off", "time": 334, "note": 71, "velocity": 99, "channel": 0}, {"type": "note_on", "time": 102, "note": 65, "velocity": 91, "channel": 0}, {"type": "note_off", "time": 252, "note": 65, "velocity": 91, "channel": 0}, {"type": "note_on", "time": 117, "note": 69, "velocity": 89, "channel": 0}, {"type": "note_off", "time": 302, "note": 69, "velocity": 89, "channel": 0}, {"type": "note_on", "time": 151, "note": 65, "velocity": 88, "channel": 0}, {"type": "note_off", "time": 252, "note": 65, "velocity": 88, "channel": 0}, {"type": "note_on", "time": 184, "note": 69, "velocity": 90, "channel": 0}, {"type": "note_off", "time": 327, "note": 69, "velocity": 90, "channel": 0}, {"type": "note_on", "time": 92, "note": 65, "velocity": 93, "channel": 0}, {"type": "note_off", "time": 277, "note": 65, "velocity": 93, "channel": 0}, {"type": "note_on", "time": 92, "note": 69, "velocity": 92, "channel": 0}, {"type": "note_off", "time": 310, "note": 69, "velocity": 92, "channel": 0}, {"type": "note_on", "time": 50, "note": 65, "velocity": 86, "channel": 0}, {"type": "note_off", "time": 243, "note": 65, "velocity": 86, "channel": 0}, {"type": "note_on", "time": 193, "note": 69, "velocity": 87, "channel": 0}, {"type": "note_off", "time": 277, "note": 69, "velocity": 87, "channel": 0}, {"type": "note_on", "time": 177, "note": 65, "velocity": 91, "channel": 0}, {"type": "note_off", "time": 191, "note": 65, "velocity": 91, "channel": 0}, {"type": "note_on", "time": 0, "note": 69, "velocity": 102, "channel": 0}, {"type": "note_off", "time": 262, "note": 69, "velocity": 102, "channel": 0}, {"type": "note_on", "time": 23, "note": 71, "velocity": 106, "channel": 0}, {"type": "note_off", "time": 327, "note": 71, "velocity": 106, "channel": 0}, {"type": "note_on", "time": 192, "note": 65, "velocity": 103, "channel": 0}, {"type": "note_off", "time": 262, "note": 65, "velocity": 103, "channel": 0}, {"type": "note_on", "time": 23, "note": 71, "velocity": 86, "channel": 0}, {"type": "note_off", "time": 277, "note": 71, "velocity": 86, "channel": 0}, {"type": "note_on", "time": 218, "note": 65, "velocity": 95, "channel": 0}, {"type": "note_off", "time": 268, "note": 65, "velocity": 95, "channel": 0}, {"type": "note_on", "time": 144, "note": 71, "velocity": 99, "channel": 0}, {"type": "note_off", "time": 340, "note": 71, "velocity": 99, "channel": 0}, {"type": "note_on", "time": 41, "note": 73, "velocity": 109, "channel": 0}, {"type": "note_off", "time": 430, "note": 73, "velocity": 109, "channel": 0}, {"type": "note_on", "time": 101, "note": 71, "velocity": 88, "channel": 0}, {"type": "note_off", "time": 235, "note": 71, "velocity": 88, "channel": 0}, {"type": "note_on", "time": 0, "note": 65, "velocity": 86, "channel": 0}, {"type": "note_off", "time": 260, "note": 65, "velocity": 86, "channel": 0}, {"type": "note_on", "time": 50, "note": 70, "velocity": 81, "channel": 0}, {"type": "note_off", "time": 293, "note": 70, "velocity": 81, "channel": 0}, {"type": "note_on", "time": 193, "note": 65, "velocity": 87, "channel": 0}, {"type": "note_off", "time": 302, "note": 65, "velocity": 87, "channel": 0}, {"type": "note_on", "time": 167, "note": 70, "velocity": 77, "channel": 0}, {"type": "note_off", "time": 260, "note": 70, "velocity": 77, "channel": 0}, {"type": "note_on", "time": 332, "note": 65, "velocity": 102, "channel": 0}, {"type": "note_off", "time": 316, "note": 65, "velocity": 102, "channel": 0}, {"type": "note_on", "time": 41, "note": 72, "velocity": 91, "channel": 0}, {"type": "note_off", "time": 274, "note": 72, "velocity": 91, "channel": 0}, {"type": "note_on", "time": 215, "note": 73, "velocity": 99, "channel": 0}, {"type": "note_off", "time": 531, "note": 73, "velocity": 99, "channel": 0}, {"type": "note_on", "time": 209, "note": 72, "velocity": 107, "channel": 0}, {"type": "note_off", "time": 262, "note": 72, "velocity": 107, "channel": 0}, {"type": "note_on", "time": 17, "note": 73, "velocity": 102, "channel": 0}, {"type": "note_off", "time": 573, "note": 73, "velocity": 102, "channel": 0}, {"type": "note_on", "time": 59, "note": 72, "velocity": 96, "channel": 0}, {"type": "note_off", "time": 268, "note": 72, "velocity": 96, "channel": 0}, {"type": "note_on", "time": 29, "note": 73, "velocity": 99, "channel": 0}, {"type": "note_off", "time": 604, "note": 73, "velocity": 99, "channel": 0}, {"type": "note_on", "time": 67, "note": 73, "velocity": 88, "channel": 0}, {"type": "note_off", "time": 403, "note": 73, "velocity": 88, "channel": 0}, {"type": "note_on", "time": 50, "note": 72, "velocity": 103, "channel": 0}, {"type": "note_off", "time": 579, "note": 72, "velocity": 103, "channel": 0}, {"type": "note_on", "time": 125, "note": 73, "velocity": 94, "channel": 0}, {"type": "note_off", "time": 453, "note": 73, "velocity": 94, "channel": 0}, {"type": "note_on", "time": 75, "note": 70, "velocity": 82, "channel": 0}, {"type": "note_off", "time": 277, "note": 70, "velocity": 82, "channel": 0}, {"type": "note_on", "time": 92, "note": 65, "velocity": 80, "channel": 0}, {"type": "note_off", "time": 277, "note": 65, "velocity": 80, "channel": 0}, {"type": "note_on", "time": 75, "note": 70, "velocity": 76, "channel": 0}, {"type": "note_off", "time": 310, "note": 70, "velocity": 76, "channel": 0}, {"type": "note_on", "time": 285, "note": 65, "velocity": 100, "channel": 0}, {"type": "note_off", "time": 252, "note": 65, "velocity": 100, "channel": 0}, {"type": "note_on", "time": 42, "note": 70, "velocity": 100, "channel": 0}, {"type": "note_off", "time": 352, "note": 70, "velocity": 100, "channel": 0}, {"type": "note_on", "time": 64, "note": 65, "velocity": 92, "channel": 0}, {"type": "note_off", "time": 203, "note": 65, "velocity": 92, "channel": 0}, {"type": "note_on", "time": 161, "note": 70, "velocity": 99, "channel": 0}, {"type": "note_off", "time": 322, "note": 70, "velocity": 99, "channel": 0}, {"type": "note_on", "time": 197, "note": 65, "velocity": 97, "channel": 0}, {"type": "note_off", "time": 250, "note": 65, "velocity": 97, "channel": 0}, {"type": "note_on", "time": 47, "note": 69, "velocity": 84, "channel": 0}, {"type": "note_off", "time": 286, "note": 69, "velocity": 84, "channel": 0}, {"type": "note_on", "time": 424, "note": 65, "velocity": 101, "channel": 0}, {"type": "note_off", "time": 286, "note": 65, "velocity": 101, "channel": 0}, {"type": "note_on", "time": 95, "note": 72, "velocity": 106, "channel": 0}, {"type": "note_off", "time": 221, "note": 72, "velocity": 106, "channel": 0}, {"type": "note_on", "time": 35, "note": 73, "velocity": 98, "channel": 0}, {"type": "note_off", "time": 459, "note": 73, "velocity": 98, "channel": 0}, {"type": "note_on", "time": 35, "note": 72, "velocity": 100, "channel": 0}, {"type": "note_off", "time": 286, "note": 72, "velocity": 100, "channel": 0}, {"type": "note_on", "time": 0, "note": 73, "velocity": 98, "channel": 0}, {"type": "note_off", "time": 274, "note": 73, "velocity": 98, "channel": 0}, {"type": "note_on", "time": 17, "note": 72, "velocity": 91, "channel": 0}, {"type": "note_off", "time": 274, "note": 72, "velocity": 91, "channel": 0}, {"type": "note_on", "time": 2940, "note": 68, "velocity": 106, "channel": 0}, {"type": "note_off", "time": 428, "note": 68, "velocity": 106, "channel": 0}, {"type": "note_on", "time": 25, "note": 70, "velocity": 109, "channel": 0}, {"type": "note_off", "time": 1570, "note": 70, "velocity": 109, "channel": 0}, {"type": "note_on", "time": 134, "note": 66, "velocity": 98, "channel": 0}, {"type": "note_off", "time": 268, "note": 66, "velocity": 98, "channel": 0}, {"type": "note_on", "time": 25, "note": 72, "velocity": 111, "channel": 0}, {"type": "note_off", "time": 327, "note": 72, "velocity": 111, "channel": 0}, {"type": "note_on", "time": 8, "note": 71, "velocity": 109, "channel": 0}, {"type": "note_off", "time": 151, "note": 71, "velocity": 109, "channel": 0}, {"type": "note_on", "time": 50, "note": 70, "velocity": 102, "channel": 0}, {"type": "note_off", "time": 2142, "note": 70, "velocity": 102, "channel": 0}, {"type": "note_on", "time": 67, "note": 71, "velocity": 103, "channel": 0}, {"type": "note_off", "time": 369, "note": 71, "velocity": 103, "channel": 0}, {"type": "note_on", "time": 75, "note": 70, "velocity": 102, "channel": 0}, {"type": "note_off", "time": 361, "note": 70, "velocity": 102, "channel": 0}, {"type": "note_on", "time": 168, "note": 66, "velocity": 100, "channel": 0}, {"type": "note_off", "time": 310, "note": 66, "velocity": 100, "channel": 0}, {"type": "note_on", "time": 50, "note": 65, "velocity": 102, "channel": 0}, {"type": "note_off", "time": 361, "note": 65, "velocity": 102, "channel": 0}, {"type": "note_on", "time": 31, "note": 64, "velocity": 103, "channel": 0}, {"type": "note_off", "time": 388, "note": 64, "velocity": 103, "channel": 0}, {"type": "note_on", "time": 11, "note": 63, "velocity": 104, "channel": 0}, {"type": "note_off", "time": 292, "note": 63, "velocity": 104, "channel": 0}, {"type": "note_on", "time": 89, "note": 62, "velocity": 101, "channel": 0}, {"type": "note_off", "time": 412, "note": 62, "velocity": 101, "channel": 0}, {"type": "note_on", "time": 17, "note": 61, "velocity": 102, "channel": 0}, {"type": "note_off", "time": 334, "note": 61, "velocity": 102, "channel": 0}, {"type": "note_on", "time": 35, "note": 60, "velocity": 100, "channel": 0}, {"type": "note_off", "time": 436, "note": 60, "velocity": 100, "channel": 0}, {"type": "note_on", "time": 0, "note": 58, "velocity": 103, "channel": 0}, {"type": "note_off", "time": 256, "note": 58, "velocity": 103, "channel": 0}, {"type": "note_on", "time": 17, "note": 58, "velocity": 101, "channel": 0}, {"type": "note_off", "time": 191, "note": 58, "velocity": 101, "channel": 0}, {"type": "note_on", "time": 47, "note": 57, "velocity": 105, "channel": 0}, {"type": "note_off", "time": 113, "note": 57, "velocity": 105, "channel": 0}, {"type": "note_on", "time": 29, "note": 53, "velocity": 107, "channel": 0}, {"type": "note_off", "time": 286, "note": 53, "velocity": 107, "channel": 0}, {"type": "note_on", "time": 531, "note": 69, "velocity": 98, "channel": 0}, {"type": "note_off", "time": 495, "note": 69, "velocity": 98, "channel": 0}, {"type": "note_on", "time": 47, "note": 62, "velocity": 88, "channel": 0}, {"type": "note_off", "time": 256, "note": 62, "velocity": 88, "channel": 0}, {"type": "note_on", "time": 71, "note": 69, "velocity": 80, "channel": 0}, {"type": "note_off", "time": 334, "note": 69, "velocity": 80, "channel": 0}, {"type": "note_on", "time": 89, "note": 62, "velocity": 83, "channel": 0}, {"type": "note_off", "time": 250, "note": 62, "velocity": 83, "channel": 0}, {"type": "note_on", "time": 83, "note": 69, "velocity": 89, "channel": 0}, {"type": "note_off", "time": 382, "note": 69, "velocity": 89, "channel": 0}, {"type": "note_on", "time": 29, "note": 62, "velocity": 83, "channel": 0}, {"type": "note_off", "time": 268, "note": 62, "velocity": 83, "channel": 0}, {"type": "note_on", "time": 93, "note": 67, "velocity": 98, "channel": 0}, {"type": "note_off", "time": 243, "note": 67, "velocity": 98, "channel": 0}, {"type": "note_on", "time": 16, "note": 71, "velocity": 107, "channel": 0}, {"type": "note_off", "time": 352, "note": 71, "velocity": 107, "channel": 0}, {"type": "note_on", "time": 147, "note": 62, "velocity": 91, "channel": 0}, {"type": "note_off", "time": 268, "note": 62, "velocity": 91, "channel": 0}, {"type": "note_on", "time": 77, "note": 71, "velocity": 87, "channel": 0}, {"type": "note_off", "time": 298, "note": 71, "velocity": 87, "channel": 0}, {"type": "note_on", "time": 17, "note": 62, "velocity": 91, "channel": 0}, {"type": "note_off", "time": 221, "note": 62, "velocity": 91, "channel": 0}, {"type": "note_on", "time": 167, "note": 71, "velocity": 82, "channel": 0}, {"type": "note_off", "time": 250, "note": 71, "velocity": 82, "channel": 0}, {"type": "note_on", "time": 83, "note": 62, "velocity": 94, "channel": 0}, {"type": "note_off", "time": 226, "note": 62, "velocity": 94, "channel": 0}, {"type": "note_on", "time": 53, "note": 70, "velocity": 95, "channel": 0}, {"type": "note_off", "time": 119, "note": 70, "velocity": 95, "channel": 0}, {"type": "note_on", "time": 0, "note": 71, "velocity": 93, "channel": 0}, {"type": "note_off", "time": 477, "note": 71, "velocity": 93, "channel": 0}, {"type": "note_on", "time": 197, "note": 63, "velocity": 89, "channel": 0}, {"type": "note_off", "time": 244, "note": 63, "velocity": 89, "channel": 0}, {"type": "note_on", "time": 53, "note": 71, "velocity": 87, "channel": 0}, {"type": "note_off", "time": 262, "note": 71, "velocity": 87, "channel": 0}, {"type": "note_on", "time": 0, "note": 63, "velocity": 88, "channel": 0}, {"type": "note_off", "time": 226, "note": 63, "velocity": 88, "channel": 0}, {"type": "note_on", "time": 59, "note": 70, "velocity": 99, "channel": 0}, {"type": "note_off", "time": 209, "note": 70, "velocity": 99, "channel": 0}, {"type": "note_on", "time": 11, "note": 66, "velocity": 103, "channel": 0}, {"type": "note_off", "time": 203, "note": 66, "velocity": 103, "channel": 0}, {"type": "note_on", "time": 155, "note": 70, "velocity": 91, "channel": 0}, {"type": "note_off", "time": 328, "note": 70, "velocity": 91, "channel": 0}, {"type": "note_on", "time": 161, "note": 64, "velocity": 81, "channel": 0}, {"type": "note_off", "time": 232, "note": 64, "velocity": 81, "channel": 0}, {"type": "note_on", "time": 59, "note": 70, "velocity": 81, "channel": 0}, {"type": "note_off", "time": 292, "note": 70, "velocity": 81, "channel": 0}, {"type": "note_on", "time": 131, "note": 64, "velocity": 82, "channel": 0}, {"type": "note_off", "time": 185, "note": 64, "velocity": 82, "channel": 0}, {"type": "note_on", "time": 59, "note": 70, "velocity": 85, "channel": 0}, {"type": "note_off", "time": 262, "note": 70, "velocity": 85, "channel": 0}, {"type": "note_on", "time": 41, "note": 64, "velocity": 90, "channel": 0}, {"type": "note_off", "time": 191, "note": 64, "velocity": 90, "channel": 0}, {"type": "note_on", "time": 0, "note": 70, "velocity": 104, "channel": 0}, {"type": "note_off", "time": 173, "note": 70, "velocity": 104, "channel": 0}, {"type": "note_on", "time": 0, "note": 71, "velocity": 107, "channel": 0}, {"type": "note_off", "time": 250, "note": 71, "velocity": 107, "channel": 0}, {"type": "note_on", "time": 143, "note": 65, "velocity": 98, "channel": 0}, {"type": "note_off", "time": 238, "note": 65, "velocity": 98, "channel": 0}, {"type": "note_on", "time": 41, "note": 71, "velocity": 82, "channel": 0}, {"type": "note_off", "time": 226, "note": 71, "velocity": 82, "channel": 0}, {"type": "note_on", "time": 143, "note": 66, "velocity": 83, "channel": 0}, {"type": "note_off", "time": 250, "note": 66, "velocity": 83, "channel": 0}, {"type": "note_on", "time": 113, "note": 71, "velocity": 80, "channel": 0}, {"type": "note_off", "time": 238, "note": 71, "velocity": 80, "channel": 0}, {"type": "note_on", "time": 113, "note": 66, "velocity": 86, "channel": 0}, {"type": "note_on", "time": 209, "note": 70, "velocity": 101, "channel": 0}, {"type": "note_off", "time": 0, "note": 66, "velocity": 86, "channel": 0}, {"type": "note_off", "time": 316, "note": 70, "velocity": 101, "channel": 0}, {"type": "note_on", "time": 0, "note": 71, "velocity": 111, "channel": 0}, {"type": "note_off", "time": 364, "note": 71, "velocity": 111, "channel": 0}, {"type": "note_on", "time": 47, "note": 65, "velocity": 96, "channel": 0}, {"type": "note_off", "time": 280, "note": 65, "velocity": 96, "channel": 0}, {"type": "note_on", "time": 89, "note": 71, "velocity": 85, "channel": 0}, {"type": "note_off", "time": 280, "note": 71, "velocity": 85, "channel": 0}, {"type": "note_on", "time": 89, "note": 65, "velocity": 97, "channel": 0}, {"type": "note_off", "time": 232, "note": 65, "velocity": 97, "channel": 0}, {"type": "note_on", "time": 11, "note": 67, "velocity": 103, "channel": 0}, {"type": "note_off", "time": 173, "note": 67, "velocity": 103, "channel": 0}, {"type": "note_on", "time": 0, "note": 69, "velocity": 107, "channel": 0}, {"type": "note_off", "time": 448, "note": 69, "velocity": 107, "channel": 0}, {"type": "note_on", "time": 77, "note": 65, "velocity": 93, "channel": 0}, {"type": "note_off", "time": 256, "note": 65, "velocity": 93, "channel": 0}, {"type": "note_on", "time": 155, "note": 70, "velocity": 81, "channel": 0}, {"type": "note_off", "time": 238, "note": 70, "velocity": 81, "channel": 0}, {"type": "note_on", "time": 77, "note": 66, "velocity": 90, "channel": 0}, {"type": "note_off", "time": 215, "note": 66, "velocity": 90, "channel": 0}, {"type": "note_on", "time": 125, "note": 71, "velocity": 107, "channel": 0}, {"type": "note_off", "time": 412, "note": 71, "velocity": 107, "channel": 0}, {"type": "note_on", "time": 23, "note": 65, "velocity": 96, "channel": 0}, {"type": "note_off", "time": 238, "note": 65, "velocity": 96, "channel": 0}, {"type": "note_on", "time": 17, "note": 69, "velocity": 98, "channel": 0}, {"type": "note_off", "time": 89, "note": 69, "velocity": 98, "channel": 0}, {"type": "note_on", "time": 59, "note": 71, "velocity": 104, "channel": 0}, {"type": "note_off", "time": 340, "note": 71, "velocity": 104, "channel": 0}, {"type": "note_on", "time": 71, "note": 65, "velocity": 97, "channel": 0}, {"type": "note_off", "time": 262, "note": 65, "velocity": 97, "channel": 0}, {"type": "note_on", "time": 137, "note": 69, "velocity": 91, "channel": 0}, {"type": "note_off", "time": 221, "note": 69, "velocity": 91, "channel": 0}, {"type": "note_on", "time": 149, "note": 65, "velocity": 87, "channel": 0}, {"type": "note_off", "time": 232, "note": 65, "velocity": 87, "channel": 0}, {"type": "note_on", "time": 221, "note": 69, "velocity": 94, "channel": 0}, {"type": "note_off", "time": 316, "note": 69, "velocity": 94, "channel": 0}, {"type": "note_on", "time": 83, "note": 65, "velocity": 94, "channel": 0}, {"type": "note_off", "time": 203, "note": 65, "velocity": 94, "channel": 0}, {"type": "note_on", "time": 11, "note": 69, "velocity": 98, "channel": 0}, {"type": "note_off", "time": 59, "note": 69, "velocity": 98, "channel": 0}, {"type": "note_on", "time": 0, "note": 71, "velocity": 104, "channel": 0}, {"type": "note_off", "time": 430, "note": 71, "velocity": 104, "channel": 0}, {"type": "note_on", "time": 41, "note": 65, "velocity": 91, "channel": 0}, {"type": "note_off", "time": 280, "note": 65, "velocity": 91, "channel": 0}, {"type": "note_on", "time": 101, "note": 70, "velocity": 95, "channel": 0}, {"type": "note_off", "time": 412, "note": 70, "velocity": 95, "channel": 0}, {"type": "note_on", "time": 59, "note": 65, "velocity": 94, "channel": 0}, {"type": "note_off", "time": 215, "note": 65, "velocity": 94, "channel": 0}, {"type": "note_on", "time": 173, "note": 69, "velocity": 92, "channel": 0}, {"type": "note_off", "time": 161, "note": 69, "velocity": 92, "channel": 0}, {"type": "note_on", "time": 29, "note": 74, "velocity": 93, "channel": 0}, {"type": "note_off", "time": 633, "note": 74, "velocity": 93, "channel": 0}, {"type": "note_on", "time": 168, "note": 71, "velocity": 99, "channel": 0}, {"type": "note_off", "time": 331, "note": 71, "velocity": 99, "channel": 0}, {"type": "note_on", "time": 72, "note": 69, "velocity": 100, "channel": 0}, {"type": "note_off", "time": 1027, "note": 69, "velocity": 100, "channel": 0}, {"type": "note_on", "time": 2238, "note": 74, "velocity": 88, "channel": 0}, {"type": "note_off", "time": 1428, "note": 74, "velocity": 88, "channel": 0}, {"type": "note_on", "time": 218, "note": 71, "velocity": 86, "channel": 0}, {"type": "note_off", "time": 201, "note": 71, "velocity": 86, "channel": 0}, {"type": "note_on", "time": 100, "note": 69, "velocity": 102, "channel": 0}, {"type": "note_off", "time": 226, "note": 69, "velocity": 102, "channel": 0}, {"type": "note_on", "time": 134, "note": 74, "velocity": 89, "channel": 0}, {"type": "note_off", "time": 1478, "note": 74, "velocity": 89, "channel": 0}, {"type": "note_on", "time": 134, "note": 74, "velocity": 90, "channel": 0}, {"type": "note_off", "time": 949, "note": 74, "velocity": 90, "channel": 0}, {"type": "note_on", "time": 260, "note": 74, "velocity": 98, "channel": 0}, {"type": "note_off", "time": 1982, "note": 74, "velocity": 98, "channel": 0}, {"type": "note_on", "time": 0, "note": 69, "velocity": 104, "channel": 0}, {"type": "note_off", "time": 268, "note": 69, "velocity": 104, "channel": 0}, {"type": "note_on", "time": 50, "note": 62, "velocity": 105, "channel": 0}, {"type": "note_off", "time": 268, "note": 62, "velocity": 105, "channel": 0}, {"type": "note_on", "time": 2402, "note": 82, "velocity": 96, "channel": 0}, {"type": "note_off", "time": 369, "note": 82, "velocity": 96, "channel": 0}, {"type": "note_on", "time": 75, "note": 74, "velocity": 95, "channel": 0}, {"type": "note_off", "time": 1201, "note": 74, "velocity": 95, "channel": 0}, {"type": "note_on", "time": 151, "note": 69, "velocity": 97, "channel": 0}, {"type": "note_off", "time": 420, "note": 69, "velocity": 97, "channel": 0}, {"type": "note_on", "time": 8, "note": 74, "velocity": 92, "channel": 0}, {"type": "note_off", "time": 268, "note": 74, "velocity": 92, "channel": 0}, {"type": "note_on", "time": 11, "note": 73, "velocity": 95, "channel": 0}, {"type": "note_off", "time": 179, "note": 73, "velocity": 95, "channel": 0}, {"type": "note_on", "time": 2, "note": 71, "velocity": 94, "channel": 0}, {"type": "note_off", "time": 201, "note": 71, "velocity": 94, "channel": 0}, {"type": "note_on", "time": 0, "note": 69, "velocity": 93, "channel": 0}, {"type": "note_off", "time": 336, "note": 69, "velocity": 93, "channel": 0}, {"type": "note_on", "time": 0, "note": 67, "velocity": 100, "channel": 0}, {"type": "note_off", "time": 260, "note": 67, "velocity": 100, "channel": 0}, {"type": "note_on", "time": 16, "note": 65, "velocity": 107, "channel": 0}, {"type": "note_off", "time": 1394, "note": 65, "velocity": 107, "channel": 0}, {"type": "note_on", "time": 92, "note": 62, "velocity": 106, "channel": 0}, {"type": "note_off", "time": 310, "note": 62, "velocity": 106, "channel": 0}, {"type": "note_on", "time": 16, "note": 65, "velocity": 106, "channel": 0}, {"type": "note_off", "time": 403, "note": 65, "velocity": 106, "channel": 0}, {"type": "note_on", "time": 92, "note": 62, "velocity": 109, "channel": 0}, {"type": "note_off", "time": 865, "note": 62, "velocity": 109, "channel": 0}, {"type": "note_on", "time": 218, "note": 59, "velocity": 99, "channel": 0}, {"type": "note_off", "time": 262, "note": 59, "velocity": 99, "channel": 0}, {"type": "note_on", "time": 101, "note": 62, "velocity": 95, "channel": 0}, {"type": "note_off", "time": 370, "note": 62, "velocity": 95, "channel": 0}, {"type": "note_on", "time": 113, "note": 59, "velocity": 100, "channel": 0}, {"type": "note_off", "time": 346, "note": 59, "velocity": 100, "channel": 0}, {"type": "note_on", "time": 5, "note": 57, "velocity": 99, "channel": 0}, {"type": "note_off", "time": 1576, "note": 57, "velocity": 99, "channel": 0}, {"type": "note_on", "time": 17, "note": 55, "velocity": 96, "channel": 0}, {"type": "note_off", "time": 256, "note": 55, "velocity": 96, "channel": 0}, {"type": "note_on", "time": 65, "note": 53, "velocity": 102, "channel": 0}, {"type": "note_off", "time": 1523, "note": 53, "velocity": 102, "channel": 0}, {"type": "note_on", "time": 29, "note": 50, "velocity": 108, "channel": 0}, {"type": "note_off", "time": 370, "note": 50, "velocity": 108, "channel": 0}, {"type": "note_on", "time": 5, "note": 45, "velocity": 105, "channel": 0}, {"type": "note_off", "time": 663, "note": 45, "velocity": 105, "channel": 0}, {"type": "note_on", "time": 6493, "note": 44, "velocity": 116, "channel": 0}, {"type": "note_on", "time": 465, "note": 48, "velocity": 103, "channel": 0}, {"type": "note_off", "time": 0, "note": 44, "velocity": 116, "channel": 0}, {"type": "note_off", "time": 197, "note": 48, "velocity": 103, "channel": 0}, {"type": "note_on", "time": 29, "note": 46, "velocity": 111, "channel": 0}, {"type": "note_off", "time": 215, "note": 46, "velocity": 111, "channel": 0}, {"type": "note_on", "time": 0, "note": 48, "velocity": 109, "channel": 0}, {"type": "note_off", "time": 161, "note": 48, "velocity": 109, "channel": 0}, {"type": "note_on", "time": 11, "note": 46, "velocity": 104, "channel": 0}, {"type": "note_off", "time": 907, "note": 46, "velocity": 104, "channel": 0}, {"type": "note_on", "time": 29, "note": 53, "velocity": 102, "channel": 0}, {"type": "note_off", "time": 310, "note": 53, "velocity": 102, "channel": 0}, {"type": "note_on", "time": 173, "note": 46, "velocity": 105, "channel": 0}, {"type": "note_off", "time": 931, "note": 46, "velocity": 105, "channel": 0}, {"type": "note_on", "time": 232, "note": 53, "velocity": 111, "channel": 0}, {"type": "note_off", "time": 268, "note": 53, "velocity": 111, "channel": 0}, {"type": "note_on", "time": 23, "note": 51, "velocity": 110, "channel": 0}, {"type": "note_off", "time": 268, "note": 51, "velocity": 110, "channel": 0}, {"type": "note_on", "time": 11, "note": 50, "velocity": 113, "channel": 0}, {"type": "note_off", "time": 507, "note": 50, "velocity": 113, "channel": 0}, {"type": "note_on", "time": 0, "note": 51, "velocity": 110, "channel": 0}, {"type": "note_off", "time": 400, "note": 51, "velocity": 110, "channel": 0}, {"type": "note_on", "time": 0, "note": 53, "velocity": 109, "channel": 0}, {"type": "note_off", "time": 322, "note": 53, "velocity": 109, "channel": 0}, {"type": "note_on", "time": 53, "note": 51, "velocity": 106, "channel": 0}, {"type": "note_off", "time": 1505, "note": 51, "velocity": 106, "channel": 0}, {"type": "note_on", "time": 119, "note": 52, "velocity": 103, "channel": 0}, {"type": "note_off", "time": 382, "note": 52, "velocity": 103, "channel": 0}, {"type": "note_on", "time": 29, "note": 54, "velocity": 94, "channel": 0}, {"type": "note_off", "time": 591, "note": 54, "velocity": 94, "channel": 0}, {"type": "note_on", "time": 173, "note": 57, "velocity": 95, "channel": 0}, {"type": "note_off", "time": 370, "note": 57, "velocity": 95, "channel": 0}, {"type": "note_on", "time": 238, "note": 62, "velocity": 112, "channel": 0}, {"type": "note_off", "time": 453, "note": 62, "velocity": 112, "channel": 0}, {"type": "note_on", "time": 5, "note": 61, "velocity": 107, "channel": 0}, {"type": "note_off", "time": 286, "note": 61, "velocity": 107, "channel": 0}, {"type": "note_on", "time": 65, "note": 59, "velocity": 105, "channel": 0}, {"type": "note_off", "time": 346, "note": 59, "velocity": 105, "channel": 0}, {"type": "note_on", "time": 41, "note": 58, "velocity": 107, "channel": 0}, {"type": "note_off", "time": 328, "note": 58, "velocity": 107, "channel": 0}, {"type": "note_on", "time": 0, "note": 57, "velocity": 109, "channel": 0}, {"type": "note_off", "time": 794, "note": 57, "velocity": 109, "channel": 0}, {"type": "note_on", "time": 2618, "note": 56, "velocity": 98, "channel": 0}, {"type": "note_off", "time": 1125, "note": 56, "velocity": 98, "channel": 0}, {"type": "note_on", "time": 96, "note": 59, "velocity": 97, "channel": 0}, {"type": "note_off", "time": 238, "note": 59, "velocity": 97, "channel": 0}, {"type": "note_on", "time": 0, "note": 64, "velocity": 104, "channel": 0}, {"type": "note_off", "time": 412, "note": 64, "velocity": 104, "channel": 0}, {"type": "note_on", "time": 77, "note": 63, "velocity": 104, "channel": 0}, {"type": "note_off", "time": 465, "note": 63, "velocity": 104, "channel": 0}, {"type": "note_on", "time": 41, "note": 61, "velocity": 106, "channel": 0}, {"type": "note_off", "time": 340, "note": 61, "velocity": 106, "channel": 0}, {"type": "note_on", "time": 71, "note": 57, "velocity": 96, "channel": 0}, {"type": "note_off", "time": 232, "note": 57, "velocity": 96, "channel": 0}, {"type": "note_on", "time": 0, "note": 62, "velocity": 111, "channel": 0}, {"type": "note_off", "time": 489, "note": 62, "velocity": 111, "channel": 0}, {"type": "note_on", "time": 47, "note": 64, "velocity": 113, "channel": 0}, {"type": "note_off", "time": 310, "note": 64, "velocity": 113, "channel": 0}, {"type": "note_on", "time": 0, "note": 66, "velocity": 102, "channel": 0}, {"type": "note_off", "time": 412, "note": 66, "velocity": 102, "channel": 0}, {"type": "note_on", "time": 95, "note": 69, "velocity": 107, "channel": 0}, {"type": "note_off", "time": 382, "note": 69, "velocity": 107, "channel": 0}, {"type": "note_on", "time": 5, "note": 65, "velocity": 101, "channel": 0}, {"type": "note_off", "time": 507, "note": 65, "velocity": 101, "channel": 0}, {"type": "note_on", "time": 41, "note": 66, "velocity": 104, "channel": 0}, {"type": "note_off", "time": 185, "note": 66, "velocity": 104, "channel": 0}, {"type": "note_on", "time": 11, "note": 65, "velocity": 106, "channel": 0}, {"type": "note_on", "time": 328, "note": 63, "velocity": 107, "channel": 0}, {"type": "note_off", "time": 0, "note": 65, "velocity": 106, "channel": 0}, {"type": "note_off", "time": 501, "note": 63, "velocity": 107, "channel": 0}, {"type": "note_on", "time": 65, "note": 61, "velocity": 106, "channel": 0}, {"type": "note_off", "time": 370, "note": 61, "velocity": 106, "channel": 0}, {"type": "note_on", "time": 0, "note": 60, "velocity": 100, "channel": 0}, {"type": "note_off", "time": 358, "note": 60, "velocity": 100, "channel": 0}, {"type": "note_on", "time": 0, "note": 59, "velocity": 98, "channel": 0}, {"type": "note_off", "time": 424, "note": 59, "velocity": 98, "channel": 0}, {"type": "note_on", "time": 0, "note": 63, "velocity": 102, "channel": 0}, {"type": "note_off", "time": 406, "note": 63, "velocity": 102, "channel": 0}, {"type": "note_on", "time": 35, "note": 59, "velocity": 95, "channel": 0}, {"type": "note_off", "time": 364, "note": 59, "velocity": 95, "channel": 0}, {"type": "note_on", "time": 23, "note": 58, "velocity": 90, "channel": 0}, {"type": "note_off", "time": 346, "note": 58, "velocity": 90, "channel": 0}, {"type": "note_on", "time": 5, "note": 57, "velocity": 102, "channel": 0}, {"type": "note_off", "time": 370, "note": 57, "velocity": 102, "channel": 0}, {"type": "note_on", "time": 5, "note": 56, "velocity": 106, "channel": 0}, {"type": "note_off", "time": 412, "note": 56, "velocity": 106, "channel": 0}, {"type": "note_on", "time": 41, "note": 55, "velocity": 105, "channel": 0}, {"type": "note_off", "time": 370, "note": 55, "velocity": 105, "channel": 0}, {"type": "note_on", "time": 77, "note": 59, "velocity": 91, "channel": 0}, {"type": "note_off", "time": 334, "note": 59, "velocity": 91, "channel": 0}, {"type": "note_on", "time": 23, "note": 57, "velocity": 94, "channel": 0}, {"type": "note_off", "time": 304, "note": 57, "velocity": 94, "channel": 0}, {"type": "note_on", "time": 119, "note": 53, "velocity": 99, "channel": 0}, {"type": "note_off", "time": 525, "note": 53, "velocity": 99, "channel": 0}, {"type": "note_on", "time": 3136, "note": 54, "velocity": 98, "channel": 0}, {"type": "note_off", "time": 252, "note": 54, "velocity": 98, "channel": 0}, {"type": "note_on", "time": 42, "note": 55, "velocity": 93, "channel": 0}, {"type": "note_off", "time": 285, "note": 55, "velocity": 93, "channel": 0}, {"type": "note_on", "time": 268, "note": 68, "velocity": 92, "channel": 0}, {"type": "note_off", "time": 210, "note": 68, "velocity": 92, "channel": 0}, {"type": "note_on", "time": 92, "note": 68, "velocity": 95, "channel": 0}, {"type": "note_off", "time": 226, "note": 68, "velocity": 95, "channel": 0}, {"type": "note_on", "time": 8, "note": 67, "velocity": 108, "channel": 0}, {"type": "note_off", "time": 504, "note": 67, "velocity": 108, "channel": 0}, {"type": "note_on", "time": 0, "note": 69, "velocity": 103, "channel": 0}, {"type": "note_off", "time": 369, "note": 69, "velocity": 103, "channel": 0}, {"type": "note_on", "time": 893, "note": 58, "velocity": 105, "channel": 0}, {"type": "note_off", "time": 448, "note": 58, "velocity": 105, "channel": 0}, {"type": "note_on", "time": 459, "note": 58, "velocity": 91, "channel": 0}, {"type": "note_off", "time": 131, "note": 58, "velocity": 91, "channel": 0}, {"type": "note_on", "time": 59, "note": 58, "velocity": 98, "channel": 0}, {"type": "note_off", "time": 185, "note": 58, "velocity": 98, "channel": 0}, {"type": "note_on", "time": 17, "note": 59, "velocity": 104, "channel": 0}, {"type": "note_off", "time": 262, "note": 59, "velocity": 104, "channel": 0}, {"type": "note_on", "time": 0, "note": 61, "velocity": 103, "channel": 0}, {"type": "note_off", "time": 418, "note": 61, "velocity": 103, "channel": 0}, {"type": "note_on", "time": 17, "note": 60, "velocity": 9, "channel": 0}, {"type": "note_off", "time": 764, "note": 60, "velocity": 9, "channel": 0}, {"type": "note_on", "time": 89, "note": 67, "velocity": 89, "channel": 0}, {"type": "note_off", "time": 316, "note": 67, "velocity": 89, "channel": 0}, {"type": "note_on", "time": 11, "note": 63, "velocity": 116, "channel": 0}, {"type": "note_off", "time": 495, "note": 63, "velocity": 116, "channel": 0}, {"type": "note_on", "time": 11, "note": 67, "velocity": 102, "channel": 0}, {"type": "note_off", "time": 358, "note": 67, "velocity": 102, "channel": 0}, {"type": "note_on", "time": 29, "note": 71, "velocity": 105, "channel": 0}, {"type": "note_off", "time": 364, "note": 71, "velocity": 105, "channel": 0}, {"type": "note_on", "time": 29, "note": 68, "velocity": 106, "channel": 0}, {"type": "note_off", "time": 232, "note": 68, "velocity": 106, "channel": 0}, {"type": "note_on", "time": 167, "note": 61, "velocity": 106, "channel": 0}, {"type": "note_off", "time": 513, "note": 61, "velocity": 106, "channel": 0}, {"type": "note_on", "time": 0, "note": 60, "velocity": 98, "channel": 0}, {"type": "note_off", "time": 412, "note": 60, "velocity": 98, "channel": 0}, {"type": "note_on", "time": 167, "note": 70, "velocity": 110, "channel": 0}, {"type": "note_off", "time": 400, "note": 70, "velocity": 110, "channel": 0}, {"type": "note_on", "time": 0, "note": 69, "velocity": 103, "channel": 0}, {"type": "note_off", "time": 418, "note": 69, "velocity": 103, "channel": 0}, {"type": "note_on", "time": 0, "note": 66, "velocity": 102, "channel": 0}, {"type": "note_off", "time": 376, "note": 66, "velocity": 102, "channel": 0}, {"type": "note_on", "time": 5, "note": 65, "velocity": 106, "channel": 0}, {"type": "note_off", "time": 406, "note": 65, "velocity": 106, "channel": 0}, {"type": "note_on", "time": 5, "note": 63, "velocity": 101, "channel": 0}, {"type": "note_off", "time": 412, "note": 63, "velocity": 101, "channel": 0}, {"type": "note_on", "time": 0, "note": 67, "velocity": 102, "channel": 0}, {"type": "note_on", "time": 340, "note": 66, "velocity": 104, "channel": 0}, {"type": "note_off", "time": 0, "note": 67, "velocity": 102, "channel": 0}, {"type": "note_off", "time": 477, "note": 66, "velocity": 104, "channel": 0}, {"type": "note_on", "time": 5, "note": 63, "velocity": 110, "channel": 0}, {"type": "note_off", "time": 537, "note": 63, "velocity": 110, "channel": 0}, {"type": "note_on", "time": 29, "note": 58, "velocity": 98, "channel": 0}, {"type": "note_off", "time": 262, "note": 58, "velocity": 98, "channel": 0}, {"type": "note_on", "time": 23, "note": 65, "velocity": 105, "channel": 0}, {"type": "note_off", "time": 459, "note": 65, "velocity": 105, "channel": 0}, {"type": "note_on", "time": 0, "note": 60, "velocity": 95, "channel": 0}, {"type": "note_off", "time": 436, "note": 60, "velocity": 95, "channel": 0}, {"type": "note_on", "time": 95, "note": 56, "velocity": 104, "channel": 0}, {"type": "note_off", "time": 232, "note": 56, "velocity": 104, "channel": 0}, {"type": "note_on", "time": 41, "note": 56, "velocity": 99, "channel": 0}, {"type": "note_off", "time": 125, "note": 56, "velocity": 99, "channel": 0}, {"type": "note_on", "time": 0, "note": 54, "velocity": 100, "channel": 0}, {"type": "note_off", "time": 358, "note": 54, "velocity": 100, "channel": 0}, {"type": "note_on", "time": 53, "note": 51, "velocity": 104, "channel": 0}, {"type": "note_off", "time": 382, "note": 51, "velocity": 104, "channel": 0}, {"type": "note_on", "time": 0, "note": 56, "velocity": 100, "channel": 0}, {"type": "note_off", "time": 203, "note": 56, "velocity": 100, "channel": 0}, {"type": "note_on", "time": 101, "note": 53, "velocity": 100, "channel": 0}, {"type": "note_off", "time": 394, "note": 53, "velocity": 100, "channel": 0}, {"type": "note_on", "time": 5, "note": 48, "velocity": 100, "channel": 0}, {"type": "note_off", "time": 322, "note": 48, "velocity": 100, "channel": 0}, {"type": "note_on", "time": 11, "note": 46, "velocity": 99, "channel": 0}, {"type": "note_off", "time": 734, "note": 46, "velocity": 99, "channel": 0}, {"type": "note_on", "time": 95, "note": 51, "velocity": 102, "channel": 0}, {"type": "note_off", "time": 430, "note": 51, "velocity": 102, "channel": 0}, {"type": "note_on", "time": 35, "note": 46, "velocity": 98, "channel": 0}, {"type": "note_off", "time": 215, "note": 46, "velocity": 98, "channel": 0}, {"type": "note_on", "time": 41, "note": 44, "velocity": 103, "channel": 0}, {"type": "note_off", "time": 579, "note": 44, "velocity": 103, "channel": 0}, {"type": "note_on", "time": 5102, "note": 45, "velocity": 106, "channel": 0}, {"type": "note_off", "time": 657, "note": 45, "velocity": 106, "channel": 0}, {"type": "note_on", "time": 40, "note": 50, "velocity": 105, "channel": 0}, {"type": "note_off", "time": 302, "note": 50, "velocity": 105, "channel": 0}, {"type": "note_on", "time": 152, "note": 53, "velocity": 101, "channel": 0}, {"type": "note_off", "time": 1092, "note": 53, "velocity": 101, "channel": 0}, {"type": "note_on", "time": 49, "note": 56, "velocity": 105, "channel": 0}, {"type": "note_off", "time": 319, "note": 56, "velocity": 105, "channel": 0}, {"type": "note_on", "time": 25, "note": 50, "velocity": 104, "channel": 0}, {"type": "note_off", "time": 420, "note": 50, "velocity": 104, "channel": 0}, {"type": "note_on", "time": 33, "note": 53, "velocity": 103, "channel": 0}, {"type": "note_off", "time": 411, "note": 53, "velocity": 103, "channel": 0}, {"type": "note_on", "time": 0, "note": 57, "velocity": 103, "channel": 0}, {"type": "note_off", "time": 243, "note": 57, "velocity": 103, "channel": 0}, {"type": "note_on", "time": 58, "note": 63, "velocity": 101, "channel": 0}, {"type": "note_off", "time": 478, "note": 63, "velocity": 101, "channel": 0}, {"type": "note_on", "time": 3091, "note": 63, "velocity": 104, "channel": 0}, {"type": "note_off", "time": 424, "note": 63, "velocity": 104, "channel": 0}, {"type": "note_on", "time": 47, "note": 62, "velocity": 107, "channel": 0}, {"type": "note_off", "time": 316, "note": 62, "velocity": 107, "channel": 0}, {"type": "note_on", "time": 0, "note": 63, "velocity": 106, "channel": 0}, {"type": "note_off", "time": 424, "note": 63, "velocity": 106, "channel": 0}, {"type": "note_on", "time": 83, "note": 65, "velocity": 99, "channel": 0}, {"type": "note_off", "time": 304, "note": 65, "velocity": 99, "channel": 0}, {"type": "note_on", "time": 53, "note": 61, "velocity": 100, "channel": 0}, {"type": "note_off", "time": 394, "note": 61, "velocity": 100, "channel": 0}, {"type": "note_on", "time": 41, "note": 63, "velocity": 112, "channel": 0}, {"type": "note_off", "time": 382, "note": 63, "velocity": 112, "channel": 0}, {"type": "note_on", "time": 0, "note": 64, "velocity": 107, "channel": 0}, {"type": "note_off", "time": 418, "note": 64, "velocity": 107, "channel": 0}, {"type": "note_on", "time": 0, "note": 66, "velocity": 99, "channel": 0}, {"type": "note_off", "time": 328, "note": 66, "velocity": 99, "channel": 0}, {"type": "note_on", "time": 41, "note": 63, "velocity": 114, "channel": 0}, {"type": "note_off", "time": 430, "note": 63, "velocity": 114, "channel": 0}, {"type": "note_on", "time": 95, "note": 61, "velocity": 104, "channel": 0}, {"type": "note_off", "time": 280, "note": 61, "velocity": 104, "channel": 0}, {"type": "note_on", "time": 5, "note": 59, "velocity": 101, "channel": 0}, {"type": "note_off", "time": 316, "note": 59, "velocity": 101, "channel": 0}, {"type": "note_on", "time": 113, "note": 58, "velocity": 101, "channel": 0}, {"type": "note_on", "time": 388, "note": 59, "velocity": 103, "channel": 0}, {"type": "note_off", "time": 0, "note": 58, "velocity": 101, "channel": 0}, {"type": "note_off", "time": 340, "note": 59, "velocity": 103, "channel": 0}, {"type": "note_on", "time": 29, "note": 61, "velocity": 105, "channel": 0}, {"type": "note_off", "time": 358, "note": 61, "velocity": 105, "channel": 0}, {"type": "note_on", "time": 0, "note": 63, "velocity": 111, "channel": 0}, {"type": "note_off", "time": 513, "note": 63, "velocity": 111, "channel": 0}, {"type": "note_on", "time": 131, "note": 64, "velocity": 107, "channel": 0}, {"type": "note_off", "time": 334, "note": 64, "velocity": 107, "channel": 0}, {"type": "note_on", "time": 0, "note": 66, "velocity": 100, "channel": 0}, {"type": "note_off", "time": 292, "note": 66, "velocity": 100, "channel": 0}, {"type": "note_on", "time": 41, "note": 66, "velocity": 101, "channel": 0}, {"type": "note_off", "time": 238, "note": 66, "velocity": 101, "channel": 0}, {"type": "note_on", "time": 0, "note": 68, "velocity": 99, "channel": 0}, {"type": "note_off", "time": 274, "note": 68, "velocity": 99, "channel": 0}, {"type": "note_on", "time": 59, "note": 70, "velocity": 106, "channel": 0}, {"type": "note_off", "time": 394, "note": 70, "velocity": 106, "channel": 0}, {"type": "note_on", "time": 17, "note": 66, "velocity": 103, "channel": 0}, {"type": "note_off", "time": 507, "note": 66, "velocity": 103, "channel": 0}, {"type": "note_on", "time": 0, "note": 61, "velocity": 107, "channel": 0}, {"type": "note_off", "time": 418, "note": 61, "velocity": 107, "channel": 0}, {"type": "note_on", "time": 35, "note": 59, "velocity": 107, "channel": 0}, {"type": "note_off", "time": 394, "note": 59, "velocity": 107, "channel": 0}, {"type": "note_on", "time": 5, "note": 58, "velocity": 112, "channel": 0}, {"type": "note_off", "time": 334, "note": 58, "velocity": 112, "channel": 0}, {"type": "note_on", "time": 53, "note": 57, "velocity": 103, "channel": 0}, {"type": "note_off", "time": 358, "note": 57, "velocity": 103, "channel": 0}, {"type": "note_on", "time": 59, "note": 56, "velocity": 105, "channel": 0}, {"type": "note_off", "time": 388, "note": 56, "velocity": 105, "channel": 0}, {"type": "note_on", "time": 11, "note": 55, "velocity": 98, "channel": 0}, {"type": "note_off", "time": 322, "note": 55, "velocity": 98, "channel": 0}, {"type": "note_on", "time": 0, "note": 58, "velocity": 105, "channel": 0}, {"type": "note_off", "time": 167, "note": 58, "velocity": 105, "channel": 0}, {"type": "note_on", "time": 0, "note": 59, "velocity": 102, "channel": 0}, {"type": "note_off", "time": 215, "note": 59, "velocity": 102, "channel": 0}, {"type": "note_on", "time": 47, "note": 57, "velocity": 106, "channel": 0}, {"type": "note_off", "time": 370, "note": 57, "velocity": 106, "channel": 0}, {"type": "note_on", "time": 0, "note": 62, "velocity": 107, "channel": 0}, {"type": "note_off", "time": 382, "note": 62, "velocity": 107, "channel": 0}, {"type": "note_on", "time": 71, "note": 65, "velocity": 100, "channel": 0}, {"type": "note_off", "time": 448, "note": 65, "velocity": 100, "channel": 0}, {"type": "note_on", "time": 71, "note": 70, "velocity": 94, "channel": 0}, {"type": "note_off", "time": 155, "note": 70, "velocity": 94, "channel": 0}, {"type": "note_on", "time": 17, "note": 74, "velocity": 111, "channel": 0}, {"type": "note_off", "time": 597, "note": 74, "velocity": 111, "channel": 0}, {"type": "note_on", "time": 0, "note": 61, "velocity": 108, "channel": 0}, {"type": "note_off", "time": 513, "note": 61, "velocity": 108, "channel": 0}, {"type": "note_on", "time": 1917, "note": 69, "velocity": 93, "channel": 0}, {"type": "note_off", "time": 191, "note": 69, "velocity": 93, "channel": 0}, {"type": "note_on", "time": 35, "note": 72, "velocity": 96, "channel": 0}, {"type": "note_off", "time": 1266, "note": 72, "velocity": 96, "channel": 0}, {"type": "note_on", "time": 602, "note": 69, "velocity": 93, "channel": 0}, {"type": "note_off", "time": 184, "note": 69, "velocity": 93, "channel": 0}, {"type": "note_on", "time": 218, "note": 83, "velocity": 100, "channel": 0}, {"type": "note_off", "time": 386, "note": 83, "velocity": 100, "channel": 0}, {"type": "note_on", "time": 50, "note": 72, "velocity": 90, "channel": 0}, {"type": "note_off", "time": 142, "note": 72, "velocity": 90, "channel": 0}, {"type": "note_on", "time": 3133, "note": 74, "velocity": 109, "channel": 0}, {"type": "note_off", "time": 2200, "note": 74, "velocity": 109, "channel": 0}, {"type": "note_on", "time": 0, "note": 69, "velocity": 117, "channel": 0}, {"type": "note_off", "time": 403, "note": 69, "velocity": 117, "channel": 0}, {"type": "note_on", "time": 8, "note": 68, "velocity": 116, "channel": 0}, {"type": "note_off", "time": 420, "note": 68, "velocity": 116, "channel": 0}, {"type": "note_on", "time": 8, "note": 65, "velocity": 112, "channel": 0}, {"type": "note_off", "time": 919, "note": 65, "velocity": 112, "channel": 0}, {"type": "note_on", "time": 2413, "note": 68, "velocity": 104, "channel": 0}, {"type": "note_off", "time": 346, "note": 68, "velocity": 104, "channel": 0}, {"type": "note_on", "time": 0, "note": 69, "velocity": 97, "channel": 0}, {"type": "note_off", "time": 1654, "note": 69, "velocity": 97, "channel": 0}, {"type": "note_on", "time": 209, "note": 67, "velocity": 103, "channel": 0}, {"type": "note_off", "time": 185, "note": 67, "velocity": 103, "channel": 0}, {"type": "note_on", "time": 0, "note": 65, "velocity": 104, "channel": 0}, {"type": "note_off", "time": 495, "note": 65, "velocity": 104, "channel": 0}, {"type": "note_on", "time": 406, "note": 67, "velocity": 103, "channel": 0}, {"type": "note_off", "time": 436, "note": 67, "velocity": 103, "channel": 0}, {"type": "note_on", "time": 41, "note": 71, "velocity": 111, "channel": 0}, {"type": "note_off", "time": 370, "note": 71, "velocity": 111, "channel": 0}, {"type": "note_on", "time": 29, "note": 69, "velocity": 109, "channel": 0}, {"type": "note_off", "time": 346, "note": 69, "velocity": 109, "channel": 0}, {"type": "note_on", "time": 35, "note": 66, "velocity": 104, "channel": 0}, {"type": "note_off", "time": 346, "note": 66, "velocity": 104, "channel": 0}, {"type": "note_on", "time": 17, "note": 65, "velocity": 106, "channel": 0}, {"type": "note_off", "time": 364, "note": 65, "velocity": 106, "channel": 0}, {"type": "note_on", "time": 11, "note": 64, "velocity": 116, "channel": 0}, {"type": "note_off", "time": 406, "note": 64, "velocity": 116, "channel": 0}, {"type": "note_on", "time": 37, "note": 63, "velocity": 113, "channel": 0}, {"type": "note_off", "time": 428, "note": 63, "velocity": 113, "channel": 0}, {"type": "note_on", "time": 29, "note": 66, "velocity": 97, "channel": 0}, {"type": "note_off", "time": 525, "note": 66, "velocity": 97, "channel": 0}, {"type": "note_on", "time": 32, "note": 70, "velocity": 107, "channel": 0}, {"type": "note_off", "time": 79, "note": 70, "velocity": 107, "channel": 0}, {"type": "note_on", "time": 63, "note": 70, "velocity": 99, "channel": 0}, {"type": "note_off", "time": 117, "note": 70, "velocity": 99, "channel": 0}, {"type": "note_on", "time": 37, "note": 71, "velocity": 112, "channel": 0}, {"type": "note_off", "time": 344, "note": 71, "velocity": 112, "channel": 0}, {"type": "note_on", "time": 4, "note": 68, "velocity": 104, "channel": 0}, {"type": "note_off", "time": 327, "note": 68, "velocity": 104, "channel": 0}, {"type": "note_on", "time": 25, "note": 66, "velocity": 106, "channel": 0}, {"type": "note_off", "time": 336, "note": 66, "velocity": 106, "channel": 0}, {"type": "note_on", "time": 113, "note": 65, "velocity": 100, "channel": 0}, {"type": "note_off", "time": 411, "note": 65, "velocity": 100, "channel": 0}, {"type": "note_on", "time": 33, "note": 67, "velocity": 102, "channel": 0}, {"type": "note_off", "time": 277, "note": 67, "velocity": 102, "channel": 0}, {"type": "note_on", "time": 37, "note": 63, "velocity": 115, "channel": 0}, {"type": "note_off", "time": 424, "note": 63, "velocity": 115, "channel": 0}, {"type": "note_on", "time": 71, "note": 62, "velocity": 108, "channel": 0}, {"type": "note_off", "time": 222, "note": 62, "velocity": 108, "channel": 0}, {"type": "note_on", "time": 58, "note": 61, "velocity": 105, "channel": 0}, {"type": "note_off", "time": 357, "note": 61, "velocity": 105, "channel": 0}, {"type": "note_on", "time": 46, "note": 60, "velocity": 106, "channel": 0}, {"type": "note_off", "time": 230, "note": 60, "velocity": 106, "channel": 0}, {"type": "note_on", "time": 0, "note": 61, "velocity": 111, "channel": 0}, {"type": "note_off", "time": 739, "note": 61, "velocity": 111, "channel": 0}, {"type": "note_on", "time": 2604, "note": 64, "velocity": 114, "channel": 0}, {"type": "note_off", "time": 491, "note": 64, "velocity": 114, "channel": 0}, {"type": "note_on", "time": 403, "note": 66, "velocity": 100, "channel": 0}, {"type": "note_off", "time": 176, "note": 66, "velocity": 100, "channel": 0}, {"type": "note_on", "time": 25, "note": 67, "velocity": 106, "channel": 0}, {"type": "note_on", "time": 629, "note": 63, "velocity": 116, "channel": 0}, {"type": "note_off", "time": 0, "note": 67, "velocity": 106, "channel": 0}, {"type": "note_off", "time": 2668, "note": 63, "velocity": 116, "channel": 0}, {"type": "note_on", "time": 0, "note": 61, "velocity": 108, "channel": 0}, {"type": "note_off", "time": 340, "note": 61, "velocity": 108, "channel": 0}, {"type": "note_on", "time": 23, "note": 64, "velocity": 111, "channel": 0}, {"type": "note_off", "time": 328, "note": 64, "velocity": 111, "channel": 0}, {"type": "note_on", "time": 23, "note": 60, "velocity": 106, "channel": 0}, {"type": "note_off", "time": 274, "note": 60, "velocity": 106, "channel": 0}, {"type": "note_on", "time": 0, "note": 63, "velocity": 119, "channel": 0}, {"type": "note_off", "time": 346, "note": 63, "velocity": 119, "channel": 0}, {"type": "note_on", "time": 17, "note": 68, "velocity": 107, "channel": 0}, {"type": "note_off", "time": 346, "note": 68, "velocity": 107, "channel": 0}, {"type": "note_on", "time": 125, "note": 72, "velocity": 108, "channel": 0}, {"type": "note_off", "time": 185, "note": 72, "velocity": 108, "channel": 0}, {"type": "note_on", "time": 0, "note": 71, "velocity": 106, "channel": 0}, {"type": "note_off", "time": 215, "note": 71, "velocity": 106, "channel": 0}, {"type": "note_on", "time": 0, "note": 64, "velocity": 115, "channel": 0}, {"type": "note_off", "time": 430, "note": 64, "velocity": 115, "channel": 0}, {"type": "note_on", "time": 17, "note": 66, "velocity": 106, "channel": 0}, {"type": "note_off", "time": 585, "note": 66, "velocity": 106, "channel": 0}, {"type": "note_on", "time": 2024, "note": 68, "velocity": 108, "channel": 0}, {"type": "note_off", "time": 376, "note": 68, "velocity": 108, "channel": 0}, {"type": "note_on", "time": 5, "note": 69, "velocity": 106, "channel": 0}, {"type": "note_off", "time": 1069, "note": 69, "velocity": 106, "channel": 0}, {"type": "note_on", "time": 191, "note": 65, "velocity": 96, "channel": 0}, {"type": "note_off", "time": 262, "note": 65, "velocity": 96, "channel": 0}, {"type": "note_on", "time": 83, "note": 69, "velocity": 108, "channel": 0}, {"type": "note_off", "time": 591, "note": 69, "velocity": 108, "channel": 0}, {"type": "note_on", "time": 5, "note": 74, "velocity": 105, "channel": 0}, {"type": "note_off", "time": 436, "note": 74, "velocity": 105, "channel": 0}, {"type": "note_on", "time": 83, "note": 71, "velocity": 109, "channel": 0}, {"type": "note_off", "time": 501, "note": 71, "velocity": 109, "channel": 0}, {"type": "note_on", "time": 274, "note": 71, "velocity": 108, "channel": 0}, {"type": "note_off", "time": 430, "note": 71, "velocity": 108, "channel": 0}, {"type": "note_on", "time": 0, "note": 67, "velocity": 102, "channel": 0}, {"type": "note_off", "time": 2234, "note": 67, "velocity": 102, "channel": 0}, {"type": "note_on", "time": 173, "note": 65, "velocity": 107, "channel": 0}, {"type": "note_off", "time": 418, "note": 65, "velocity": 107, "channel": 0}, {"type": "note_on", "time": 41, "note": 67, "velocity": 102, "channel": 0}, {"type": "note_off", "time": 400, "note": 67, "velocity": 102, "channel": 0}, {"type": "note_on", "time": 0, "note": 69, "velocity": 101, "channel": 0}, {"type": "note_off", "time": 352, "note": 69, "velocity": 101, "channel": 0}, {"type": "note_on", "time": 71, "note": 65, "velocity": 107, "channel": 0}, {"type": "note_off", "time": 310, "note": 65, "velocity": 107, "channel": 0}, {"type": "note_on", "time": 11, "note": 62, "velocity": 107, "channel": 0}, {"type": "note_off", "time": 412, "note": 62, "velocity": 107, "channel": 0}, {"type": "note_on", "time": 11, "note": 65, "velocity": 105, "channel": 0}, {"type": "note_off", "time": 376, "note": 65, "velocity": 105, "channel": 0}, {"type": "note_on", "time": 0, "note": 62, "velocity": 112, "channel": 0}, {"type": "note_off", "time": 812, "note": 62, "velocity": 112, "channel": 0}, {"type": "note_on", "time": 0, "note": 59, "velocity": 102, "channel": 0}, {"type": "note_off", "time": 1218, "note": 59, "velocity": 102, "channel": 0}, {"type": "note_on", "time": 65, "note": 55, "velocity": 95, "channel": 0}, {"type": "note_off", "time": 292, "note": 55, "velocity": 95, "channel": 0}, {"type": "note_on", "time": 47, "note": 57, "velocity": 100, "channel": 0}, {"type": "note_off", "time": 328, "note": 57, "velocity": 100, "channel": 0}, {"type": "note_on", "time": 41, "note": 53, "velocity": 107, "channel": 0}, {"type": "note_off", "time": 346, "note": 53, "velocity": 107, "channel": 0}, {"type": "note_on", "time": 0, "note": 50, "velocity": 105, "channel": 0}, {"type": "note_off", "time": 215, "note": 50, "velocity": 105, "channel": 0}, {"type": "note_on", "time": 0, "note": 53, "velocity": 103, "channel": 0}, {"type": "note_off", "time": 645, "note": 53, "velocity": 103, "channel": 0}, {"type": "note_on", "time": 2785, "note": 54, "velocity": 101, "channel": 0}, {"type": "note_off", "time": 1772, "note": 54, "velocity": 101, "channel": 0}, {"type": "note_on", "time": 59, "note": 51, "velocity": 102, "channel": 0}, {"type": "note_on", "time": 304, "note": 56, "velocity": 99, "channel": 0}, {"type": "note_off", "time": 0, "note": 51, "velocity": 102, "channel": 0}, {"type": "note_off", "time": 358, "note": 56, "velocity": 99, "channel": 0}, {"type": "note_on", "time": 47, "note": 58, "velocity": 100, "channel": 0}, {"type": "note_off", "time": 292, "note": 58, "velocity": 100, "channel": 0}, {"type": "note_on", "time": 11, "note": 60, "velocity": 100, "channel": 0}, {"type": "note_off", "time": 346, "note": 60, "velocity": 100, "channel": 0}, {"type": "note_on", "time": 0, "note": 63, "velocity": 110, "channel": 0}, {"type": "note_off", "time": 232, "note": 63, "velocity": 110, "channel": 0}, {"type": "note_on", "time": 0, "note": 65, "velocity": 105, "channel": 0}, {"type": "note_off", "time": 585, "note": 65, "velocity": 105, "channel": 0}, {"type": "note_on", "time": 2867, "note": 47, "velocity": 108, "channel": 0}, {"type": "note_off", "time": 672, "note": 47, "velocity": 108, "channel": 0}, {"type": "note_on", "time": 44, "note": 56, "velocity": 96, "channel": 0}, {"type": "note_off", "time": 386, "note": 56, "velocity": 96, "channel": 0}, {"type": "note_on", "time": 97, "note": 65, "velocity": 97, "channel": 0}, {"type": "note_off", "time": 292, "note": 65, "velocity": 97, "channel": 0}, {"type": "note_on", "time": 185, "note": 62, "velocity": 101, "channel": 0}, {"type": "note_off", "time": 280, "note": 62, "velocity": 101, "channel": 0}, {"type": "note_on", "time": 35, "note": 63, "velocity": 102, "channel": 0}, {"type": "note_off", "time": 262, "note": 63, "velocity": 102, "channel": 0}, {"type": "note_on", "time": 35, "note": 66, "velocity": 103, "channel": 0}, {"type": "note_off", "time": 173, "note": 66, "velocity": 103, "channel": 0}, {"type": "note_on", "time": 17, "note": 67, "velocity": 104, "channel": 0}, {"type": "note_off", "time": 286, "note": 67, "velocity": 104, "channel": 0}, {"type": "note_on", "time": 41, "note": 70, "velocity": 101, "channel": 0}, {"type": "note_off", "time": 191, "note": 70, "velocity": 101, "channel": 0}, {"type": "note_on", "time": 5, "note": 69, "velocity": 105, "channel": 0}, {"type": "note_off", "time": 143, "note": 69, "velocity": 105, "channel": 0}, {"type": "note_on", "time": 11, "note": 67, "velocity": 110, "channel": 0}, {"type": "note_on", "time": 436, "note": 62, "velocity": 106, "channel": 0}, {"type": "note_off", "time": 0, "note": 67, "velocity": 110, "channel": 0}, {"type": "note_off", "time": 387, "note": 62, "velocity": 106, "channel": 0}, {"type": "note_on", "time": 0, "note": 65, "velocity": 102, "channel": 0}, {"type": "note_off", "time": 226, "note": 65, "velocity": 102, "channel": 0}, {"type": "note_on", "time": 16, "note": 68, "velocity": 100, "channel": 0}, {"type": "note_off", "time": 352, "note": 68, "velocity": 100, "channel": 0}, {"type": "note_on", "time": 0, "note": 70, "velocity": 100, "channel": 0}, {"type": "note_off", "time": 235, "note": 70, "velocity": 100, "channel": 0}, {"type": "note_on", "time": 0, "note": 72, "velocity": 106, "channel": 0}, {"type": "note_off", "time": 403, "note": 72, "velocity": 106, "channel": 0}, {"type": "note_on", "time": 8, "note": 73, "velocity": 103, "channel": 0}, {"type": "note_off", "time": 411, "note": 73, "velocity": 103, "channel": 0}, {"type": "note_on", "time": 0, "note": 68, "velocity": 94, "channel": 0}, {"type": "note_off", "time": 235, "note": 68, "velocity": 94, "channel": 0}, {"type": "note_on", "time": 117, "note": 71, "velocity": 95, "channel": 0}, {"type": "note_off", "time": 319, "note": 71, "velocity": 95, "channel": 0}, {"type": "note_on", "time": 92, "note": 68, "velocity": 104, "channel": 0}, {"type": "note_off", "time": 364, "note": 68, "velocity": 104, "channel": 0}, {"type": "note_on", "time": 46, "note": 66, "velocity": 115, "channel": 0}, {"type": "note_off", "time": 184, "note": 66, "velocity": 115, "channel": 0}, {"type": "note_on", "time": 8, "note": 63, "velocity": 112, "channel": 0}, {"type": "note_off", "time": 142, "note": 63, "velocity": 112, "channel": 0}, {"type": "note_on", "time": 47, "note": 60, "velocity": 102, "channel": 0}, {"type": "note_off", "time": 663, "note": 60, "velocity": 102, "channel": 0}, {"type": "note_on", "time": 1750, "note": 63, "velocity": 107, "channel": 0}, {"type": "note_off", "time": 423, "note": 63, "velocity": 107, "channel": 0}, {"type": "note_on", "time": 0, "note": 66, "velocity": 99, "channel": 0}, {"type": "note_off", "time": 630, "note": 66, "velocity": 99, "channel": 0}, {"type": "note_on", "time": 74, "note": 75, "velocity": 86, "channel": 0}, {"type": "note_off", "time": 143, "note": 75, "velocity": 86, "channel": 0}, {"type": "note_on", "time": 29, "note": 75, "velocity": 104, "channel": 0}, {"type": "note_off", "time": 310, "note": 75, "velocity": 104, "channel": 0}, {"type": "note_on", "time": 35, "note": 68, "velocity": 101, "channel": 0}, {"type": "note_off", "time": 1224, "note": 68, "velocity": 101, "channel": 0}, {"type": "note_on", "time": 77, "note": 72, "velocity": 98, "channel": 0}, {"type": "note_off", "time": 179, "note": 72, "velocity": 98, "channel": 0}, {"type": "note_on", "time": 0, "note": 70, "velocity": 95, "channel": 0}, {"type": "note_off", "time": 3416, "note": 70, "velocity": 95, "channel": 0}, {"type": "note_on", "time": 47, "note": 65, "velocity": 102, "channel": 0}, {"type": "note_off", "time": 346, "note": 65, "velocity": 102, "channel": 0}, {"type": "note_on", "time": 23, "note": 70, "velocity": 97, "channel": 0}, {"type": "note_off", "time": 406, "note": 70, "velocity": 97, "channel": 0}, {"type": "note_on", "time": 0, "note": 68, "velocity": 101, "channel": 0}, {"type": "note_off", "time": 366, "note": 68, "velocity": 101, "channel": 0}, {"type": "note_on", "time": 0, "note": 65, "velocity": 104, "channel": 0}, {"type": "note_off", "time": 420, "note": 65, "velocity": 104, "channel": 0}, {"type": "note_on", "time": 134, "note": 61, "velocity": 99, "channel": 0}, {"type": "note_off", "time": 277, "note": 61, "velocity": 99, "channel": 0}, {"type": "note_on", "time": 58, "note": 68, "velocity": 103, "channel": 0}, {"type": "note_off", "time": 310, "note": 68, "velocity": 103, "channel": 0}, {"type": "note_on", "time": 16, "note": 65, "velocity": 104, "channel": 0}, {"type": "note_off", "time": 369, "note": 65, "velocity": 104, "channel": 0}, {"type": "note_on", "time": 50, "note": 63, "velocity": 106, "channel": 0}, {"type": "note_off", "time": 504, "note": 63, "velocity": 106, "channel": 0}, {"type": "note_on", "time": 67, "note": 58, "velocity": 97, "channel": 0}, {"type": "note_off", "time": 369, "note": 58, "velocity": 97, "channel": 0}, {"type": "note_on", "time": 2060, "note": 65, "velocity": 105, "channel": 0}, {"type": "note_off", "time": 346, "note": 65, "velocity": 105, "channel": 0}, {"type": "note_on", "time": 0, "note": 69, "velocity": 97, "channel": 0}, {"type": "note_off", "time": 322, "note": 69, "velocity": 97, "channel": 0}, {"type": "note_on", "time": 59, "note": 72, "velocity": 109, "channel": 0}, {"type": "note_off", "time": 250, "note": 72, "velocity": 109, "channel": 0}, {"type": "note_on", "time": 0, "note": 74, "velocity": 104, "channel": 0}, {"type": "note_off", "time": 2484, "note": 74, "velocity": 104, "channel": 0}, {"type": "note_on", "time": 107, "note": 72, "velocity": 95, "channel": 0}, {"type": "note_off", "time": 382, "note": 72, "velocity": 95, "channel": 0}, {"type": "note_on", "time": 23, "note": 69, "velocity": 107, "channel": 0}, {"type": "note_off", "time": 358, "note": 69, "velocity": 107, "channel": 0}, {"type": "note_on", "time": 0, "note": 73, "velocity": 106, "channel": 0}, {"type": "note_off", "time": 358, "note": 73, "velocity": 106, "channel": 0}, {"type": "note_on", "time": 0, "note": 71, "velocity": 113, "channel": 0}, {"type": "note_off", "time": 1756, "note": 71, "velocity": 113, "channel": 0}, {"type": "note_on", "time": 23, "note": 69, "velocity": 110, "channel": 0}, {"type": "note_off", "time": 370, "note": 69, "velocity": 110, "channel": 0}, {"type": "note_on", "time": 47, "note": 71, "velocity": 114, "channel": 0}, {"type": "note_off", "time": 358, "note": 71, "velocity": 114, "channel": 0}, {"type": "note_on", "time": 0, "note": 69, "velocity": 111, "channel": 0}, {"type": "note_off", "time": 1541, "note": 69, "velocity": 111, "channel": 0}, {"type": "note_on", "time": 184, "note": 64, "velocity": 116, "channel": 0}, {"type": "note_off", "time": 386, "note": 64, "velocity": 116, "channel": 0}, {"type": "note_on", "time": 33, "note": 66, "velocity": 107, "channel": 0}, {"type": "note_off", "time": 235, "note": 66, "velocity": 107, "channel": 0}, {"type": "note_on", "time": 0, "note": 69, "velocity": 105, "channel": 0}, {"type": "note_off", "time": 436, "note": 69, "velocity": 105, "channel": 0}, {"type": "note_on", "time": 0, "note": 71, "velocity": 105, "channel": 0}, {"type": "note_off", "time": 369, "note": 71, "velocity": 105, "channel": 0}, {"type": "note_on", "time": 8, "note": 64, "velocity": 117, "channel": 0}, {"type": "note_off", "time": 442, "note": 64, "velocity": 117, "channel": 0}, {"type": "note_on", "time": 0, "note": 61, "velocity": 109, "channel": 0}, {"type": "note_off", "time": 370, "note": 61, "velocity": 109, "channel": 0}, {"type": "note_on", "time": 5, "note": 59, "velocity": 102, "channel": 0}, {"type": "note_off", "time": 453, "note": 59, "velocity": 102, "channel": 0}, {"type": "note_on", "time": 1923, "note": 66, "velocity": 101, "channel": 0}, {"type": "note_off", "time": 179, "note": 66, "velocity": 101, "channel": 0}, {"type": "note_on", "time": 35, "note": 68, "velocity": 102, "channel": 0}, {"type": "note_off", "time": 866, "note": 68, "velocity": 102, "channel": 0}, {"type": "note_on", "time": 41, "note": 71, "velocity": 104, "channel": 0}, {"type": "note_off", "time": 161, "note": 71, "velocity": 104, "channel": 0}, {"type": "note_on", "time": 89, "note": 71, "velocity": 113, "channel": 0}, {"type": "note_off", "time": 304, "note": 71, "velocity": 113, "channel": 0}, {"type": "note_on", "time": 29, "note": 70, "velocity": 107, "channel": 0}, {"type": "note_off", "time": 316, "note": 70, "velocity": 107, "channel": 0}, {"type": "note_on", "time": 0, "note": 66, "velocity": 112, "channel": 0}, {"type": "note_off", "time": 125, "note": 66, "velocity": 112, "channel": 0}, {"type": "note_on", "time": 0, "note": 65, "velocity": 110, "channel": 0}, {"type": "note_off", "time": 173, "note": 65, "velocity": 110, "channel": 0}, {"type": "note_on", "time": 5, "note": 63, "velocity": 113, "channel": 0}, {"type": "note_off", "time": 561, "note": 63, "velocity": 113, "channel": 0}, {"type": "note_on", "time": 0, "note": 67, "velocity": 108, "channel": 0}, {"type": "note_off", "time": 352, "note": 67, "velocity": 108, "channel": 0}, {"type": "note_on", "time": 17, "note": 65, "velocity": 105, "channel": 0}, {"type": "note_off", "time": 376, "note": 65, "velocity": 105, "channel": 0}, {"type": "note_on", "time": 17, "note": 62, "velocity": 109, "channel": 0}, {"type": "note_off", "time": 388, "note": 62, "velocity": 109, "channel": 0}, {"type": "note_on", "time": 125, "note": 68, "velocity": 100, "channel": 0}, {"type": "note_off", "time": 256, "note": 68, "velocity": 100, "channel": 0}, {"type": "note_on", "time": 65, "note": 65, "velocity": 98, "channel": 0}, {"type": "note_off", "time": 250, "note": 65, "velocity": 98, "channel": 0}, {"type": "note_on", "time": 53, "note": 61, "velocity": 114, "channel": 0}, {"type": "note_on", "time": 262, "note": 62, "velocity": 111, "channel": 0}, {"type": "note_off", "time": 0, "note": 61, "velocity": 114, "channel": 0}, {"type": "note_off", "time": 674, "note": 62, "velocity": 111, "channel": 0}, {"type": "note_on", "time": 0, "note": 64, "velocity": 107, "channel": 0}, {"type": "note_off", "time": 477, "note": 64, "velocity": 107, "channel": 0}, {"type": "note_on", "time": 0, "note": 62, "velocity": 104, "channel": 0}, {"type": "note_off", "time": 340, "note": 62, "velocity": 104, "channel": 0}, {"type": "note_on", "time": 41, "note": 65, "velocity": 104, "channel": 0}, {"type": "note_off", "time": 860, "note": 65, "velocity": 104, "channel": 0}, {"type": "note_on", "time": 1797, "note": 66, "velocity": 111, "channel": 0}, {"type": "note_off", "time": 268, "note": 66, "velocity": 111, "channel": 0}, {"type": "note_on", "time": 0, "note": 67, "velocity": 106, "channel": 0}, {"type": "note_off", "time": 1355, "note": 67, "velocity": 106, "channel": 0}, {"type": "note_on", "time": 29, "note": 65, "velocity": 109, "channel": 0}, {"type": "note_off", "time": 280, "note": 65, "velocity": 109, "channel": 0}, {"type": "note_on", "time": 88, "note": 62, "velocity": 109, "channel": 0}, {"type": "note_off", "time": 1831, "note": 62, "velocity": 109, "channel": 0}, {"type": "note_on", "time": 117, "note": 62, "velocity": 95, "channel": 0}, {"type": "note_off", "time": 3192, "note": 62, "velocity": 95, "channel": 0}, {"type": "note_on", "time": 16, "note": 64, "velocity": 93, "channel": 0}, {"type": "note_off", "time": 420, "note": 64, "velocity": 93, "channel": 0}, {"type": "note_on", "time": 0, "note": 67, "velocity": 85, "channel": 0}, {"type": "note_off", "time": 411, "note": 67, "velocity": 85, "channel": 0}, {"type": "note_on", "time": 8, "note": 65, "velocity": 83, "channel": 0}, {"type": "note_off", "time": 310, "note": 65, "velocity": 83, "channel": 0}, {"type": "note_on", "time": 0, "note": 62, "velocity": 81, "channel": 0}, {"type": "note_off", "time": 1024, "note": 62, "velocity": 81, "channel": 0}, {"type": "end_of_track", "time": 0}]]}