{"ticks_per_beat": 192, "tracks": [[{"type": "track_name", "name": "Melody", "time": 0}, {"type": "set_tempo", "tempo": 215827, "time": 0}, {"type": "key_signature", "key": "F", "time": 0}, {"type": "time_signature", "numerator": 4, "denominator": 4, "clocks_per_click": 24, "notated_32nd_notes_per_beat": 8, "time": 0}, {"type": "note_on", "time": 7573, "note": 69, "velocity": 110, "channel": 0}, {"type": "note_off", "time": 630, "note": 69, "velocity": 110, "channel": 0}, {"type": "note_on", "time": 107, "note": 69, "velocity": 116, "channel": 0}, {"type": "note_off", "time": 355, "note": 69, "velocity": 116, "channel": 0}, {"type": "note_on", "time": 21, "note": 69, "velocity": 115, "channel": 0}, {"type": "note_off", "time": 286, "note": 69, "velocity": 115, "channel": 0}, {"type": "note_on", "time": 9, "note": 69, "velocity": 109, "channel": 0}, {"type": "note_off", "time": 373, "note": 69, "velocity": 109, "channel": 0}, {"type": "note_on", "time": 68, "note": 69, "velocity": 110, "channel": 0}, {"type": "note_off", "time": 188, "note": 69, "velocity": 110, "channel": 0}, {"type": "note_on", "time": 36, "note": 67, "velocity": 106, "channel": 0}, {"type": "note_off", "time": 87, "note": 67, "velocity": 106, "channel": 0}, {"type": "note_on", "time": 98, "note": 69, "velocity": 109, "channel": 0}, {"type": "note_off", "time": 297, "note": 69, "velocity": 109, "channel": 0}, {"type": "note_on", "time": 72, "note": 69, "velocity": 108, "channel": 0}, {"type": "note_off", "time": 183, "note": 69, "velocity": 108, "channel": 0}, {"type": "note_on", "time": 5, "note": 67, "velocity": 88, "channel": 0}, {"type": "note_off", "time": 88, "note": 67, "velocity": 88, "channel": 0}, {"type": "note_on", "time": 30, "note": 69, "velocity": 108, "channel": 0}, {"type": "note_off", "time": 197, "note": 69, "velocity": 108, "channel": 0}, {"type": "note_on", "time": 21, "note": 67, "velocity": 107, "channel": 0}, {"type": "note_off", "time": 54, "note": 67, "velocity": 107, "channel": 0}, {"type": "note_on", "time": 21, "note": 69, "velocity": 106, "channel": 0}, {"type": "note_off", "time": 87, "note": 69, "velocity": 106, "channel": 0}, {"type": "note_on", "time": 18, "note": 67, "velocity": 106, "channel": 0}, {"type": "note_off", "time": 74, "note": 67, "velocity": 106, "channel": 0}, {"type": "note_on", "time": 5, "note": 65, "velocity": 106, "channel": 0}, {"type": "note_off", "time": 181, "note": 65, "velocity": 106, "channel": 0}, {"type": "note_on", "time": 14, "note": 62, "velocity": 98, "channel": 0}, {"type": "note_off", "time": 161, "note": 62, "velocity": 98, "channel": 0}, {"type": "note_on", "time": 337, "note": 69, "velocity": 105, "channel": 0}, {"type": "note_off", "time": 283, "note": 69, "velocity": 105, "channel": 0}, {"type": "note_on", "time": 29, "note": 67, "velocity": 104, "channel": 0}, {"type": "note_off", "time": 98, "note": 67, "velocity": 104, "channel": 0}, {"type": "note_on", "time": 32, "note": 65, "velocity": 111, "channel": 0}, {"type": "note_off", "time": 70, "note": 65, "velocity": 111, "channel": 0}, {"type": "note_on", "time": 16, "note": 62, "velocity": 107, "channel": 0}, {"type": "note_off", "time": 59, "note": 62, "velocity": 107, "channel": 0}, {"type": "note_on", "time": 16, "note": 65, "velocity": 106, "channel": 0}, {"type": "note_off", "time": 81, "note": 65, "velocity": 106, "channel": 0}, {"type": "note_on", "time": 43, "note": 62, "velocity": 106, "channel": 0}, {"type": "note_off", "time": 72, "note": 62, "velocity": 106, "channel": 0}, {"type": "note_on", "time": 18, "note": 60, "velocity": 106, "channel": 0}, {"type": "note_off", "time": 67, "note": 60, "velocity": 106, "channel": 0}, {"type": "note_on", "time": 18, "note": 59, "velocity": 108, "channel": 0}, {"type": "note_off", "time": 76, "note": 59, "velocity": 108, "channel": 0}, {"type": "note_on", "time": 21, "note": 62, "velocity": 109, "channel": 0}, {"type": "note_off", "time": 68, "note": 62, "velocity": 109, "channel": 0}, {"type": "note_on", "time": 50, "note": 59, "velocity": 109, "channel": 0}, {"type": "note_off", "time": 167, "note": 59, "velocity": 109, "channel": 0}, {"type": "note_on", "time": 19, "note": 57, "velocity": 107, "channel": 0}, {"type": "note_off", "time": 108, "note": 57, "velocity": 107, "channel": 0}, {"type": "note_on", "time": 19, "note": 59, "velocity": 107, "channel": 0}, {"type": "note_off", "time": 45, "note": 59, "velocity": 107, "channel": 0}, {"type": "note_on", "time": 19, "note": 57, "velocity": 107, "channel": 0}, {"type": "note_off", "time": 165, "note": 57, "velocity": 107, "channel": 0}, {"type": "note_on", "time": 32, "note": 55, "velocity": 101, "channel": 0}, {"type": "note_off", "time": 137, "note": 55, "velocity": 101, "channel": 0}, {"type": "note_on", "time": 27, "note": 57, "velocity": 104, "channel": 0}, {"type": "note_off", "time": 87, "note": 57, "velocity": 104, "channel": 0}, {"type": "note_on", "time": 47, "note": 53, "velocity": 101, "channel": 0}, {"type": "note_off", "time": 377, "note": 53, "velocity": 101, "channel": 0}, {"type": "note_on", "time": 87, "note": 55, "velocity": 100, "channel": 0}, {"type": "note_off", "time": 76, "note": 55, "velocity": 100, "channel": 0}, {"type": "note_on", "time": 108, "note": 57, "velocity": 107, "channel": 0}, {"type": "note_off", "time": 72, "note": 57, "velocity": 107, "channel": 0}, {"type": "note_on", "time": 566, "note": 57, "velocity": 118, "channel": 0}, {"type": "note_off", "time": 68, "note": 57, "velocity": 118, "channel": 0}, {"type": "note_on", "time": 10, "note": 59, "velocity": 109, "channel": 0}, {"type": "note_off", "time": 83, "note": 59, "velocity": 109, "channel": 0}, {"type": "note_on", "time": 5, "note": 62, "velocity": 109, "channel": 0}, {"type": "note_off", "time": 68, "note": 62, "velocity": 109, "channel": 0}, {"type": "note_on", "time": 16, "note": 65, "velocity": 109, "channel": 0}, {"type": "note_off", "time": 76, "note": 65, "velocity": 109, "channel": 0}, {"type": "note_on", "time": 43, "note": 69, "velocity": 114, "channel": 0}, {"type": "note_off", "time": 68, "note": 69, "velocity": 114, "channel": 0}, {"type": "note_on", "time": 25, "note": 71, "velocity": 121, "channel": 0}, {"type": "note_off", "time": 54, "note": 71, "velocity": 121, "channel": 0}, {"type": "note_on", "time": 9, "note": 74, "velocity": 116, "channel": 0}, {"type": "note_off", "time": 92, "note": 74, "velocity": 116, "channel": 0}, {"type": "note_on", "time": 7, "note": 71, "velocity": 118, "channel": 0}, {"type": "note_off", "time": 299, "note": 71, "velocity": 118, "channel": 0}, {"type": "note_on", "time": 399, "note": 68, "velocity": 97, "channel": 0}, {"type": "note_off", "time": 83, "note": 68, "velocity": 97, "channel": 0}, {"type": "note_on", "time": 14, "note": 70, "velocity": 114, "channel": 0}, {"type": "note_off", "time": 69, "note": 70, "velocity": 114, "channel": 0}, {"type": "note_on", "time": 28, "note": 69, "velocity": 108, "channel": 0}, {"type": "note_off", "time": 73, "note": 69, "velocity": 108, "channel": 0}, {"type": "note_on", "time": 23, "note": 67, "velocity": 101, "channel": 0}, {"type": "note_off", "time": 61, "note": 67, "velocity": 101, "channel": 0}, {"type": "note_on", "time": 10, "note": 69, "velocity": 114, "channel": 0}, {"type": "note_off", "time": 53, "note": 69, "velocity": 114, "channel": 0}, {"type": "note_on", "time": 37, "note": 74, "velocity": 111, "channel": 0}, {"type": "note_off", "time": 87, "note": 74, "velocity": 111, "channel": 0}, {"type": "note_on", "time": 19, "note": 71, "velocity": 114, "channel": 0}, {"type": "note_off", "time": 287, "note": 71, "velocity": 114, "channel": 0}, {"type": "note_on", "time": 22, "note": 69, "velocity": 116, "channel": 0}, {"type": "note_off", "time": 76, "note": 69, "velocity": 116, "channel": 0}, {"type": "note_on", "time": 8, "note": 65, "velocity": 116, "channel": 0}, {"type": "note_off", "time": 67, "note": 65, "velocity": 116, "channel": 0}, {"type": "note_on", "time": 3, "note": 62, "velocity": 110, "channel": 0}, {"type": "note_off", "time": 88, "note": 62, "velocity": 110, "channel": 0}, {"type": "note_on", "time": 417, "note": 57, "velocity": 112, "channel": 0}, {"type": "note_off", "time": 60, "note": 57, "velocity": 112, "channel": 0}, {"type": "note_on", "time": 10, "note": 59, "velocity": 108, "channel": 0}, {"type": "note_off", "time": 59, "note": 59, "velocity": 108, "channel": 0}, {"type": "note_on", "time": 16, "note": 62, "velocity": 106, "channel": 0}, {"type": "note_off", "time": 77, "note": 62, "velocity": 106, "channel": 0}, {"type": "note_on", "time": 20, "note": 65, "velocity": 99, "channel": 0}, {"type": "note_off", "time": 75, "note": 65, "velocity": 99, "channel": 0}, {"type": "note_on", "time": 0, "note": 57, "velocity": 109, "channel": 0}, {"type": "note_off", "time": 103, "note": 57, "velocity": 109, "channel": 0}, {"type": "note_on", "time": 14, "note": 59, "velocity": 112, "channel": 0}, {"type": "note_off", "time": 88, "note": 59, "velocity": 112, "channel": 0}, {"type": "note_on", "time": 0, "note": 62, "velocity": 115, "channel": 0}, {"type": "note_off", "time": 99, "note": 62, "velocity": 115, "channel": 0}, {"type": "note_on", "time": 1, "note": 65, "velocity": 116, "channel": 0}, {"type": "note_off", "time": 74, "note": 65, "velocity": 116, "channel": 0}, {"type": "note_on", "time": 3, "note": 69, "velocity": 113, "channel": 0}, {"type": "note_off", "time": 90, "note": 69, "velocity": 113, "channel": 0}, {"type": "note_on", "time": 5, "note": 71, "velocity": 118, "channel": 0}, {"type": "note_off", "time": 79, "note": 71, "velocity": 118, "channel": 0}, {"type": "note_on", "time": 9, "note": 74, "velocity": 116, "channel": 0}, {"type": "note_off", "time": 121, "note": 74, "velocity": 116, "channel": 0}, {"type": "note_on", "time": 5, "note": 69, "velocity": 108, "channel": 0}, {"type": "note_off", "time": 127, "note": 69, "velocity": 108, "channel": 0}, {"type": "note_on", "time": 408, "note": 69, "velocity": 114, "channel": 0}, {"type": "note_off", "time": 95, "note": 69, "velocity": 114, "channel": 0}, {"type": "note_on", "time": 20, "note": 71, "velocity": 118, "channel": 0}, {"type": "note_off", "time": 73, "note": 71, "velocity": 118, "channel": 0}, {"type": "note_on", "time": 11, "note": 69, "velocity": 113, "channel": 0}, {"type": "note_off", "time": 88, "note": 69, "velocity": 113, "channel": 0}, {"type": "note_on", "time": 3, "note": 65, "velocity": 107, "channel": 0}, {"type": "note_off", "time": 61, "note": 65, "velocity": 107, "channel": 0}, {"type": "note_on", "time": 12, "note": 62, "velocity": 111, "channel": 0}, {"type": "note_off", "time": 81, "note": 62, "velocity": 111, "channel": 0}, {"type": "note_on", "time": 31, "note": 59, "velocity": 105, "channel": 0}, {"type": "note_off", "time": 68, "note": 59, "velocity": 105, "channel": 0}, {"type": "note_on", "time": 17, "note": 64, "velocity": 117, "channel": 0}, {"type": "note_off", "time": 80, "note": 64, "velocity": 117, "channel": 0}, {"type": "note_on", "time": 13, "note": 62, "velocity": 113, "channel": 0}, {"type": "note_off", "time": 59, "note": 62, "velocity": 113, "channel": 0}, {"type": "note_on", "time": 19, "note": 59, "velocity": 111, "channel": 0}, {"type": "note_off", "time": 88, "note": 59, "velocity": 111, "channel": 0}, {"type": "note_on", "time": 3, "note": 57, "velocity": 113, "channel": 0}, {"type": "note_off", "time": 59, "note": 57, "velocity": 113, "channel": 0}, {"type": "note_on", "time": 18, "note": 53, "velocity": 114, "channel": 0}, {"type": "note_off", "time": 153, "note": 53, "velocity": 114, "channel": 0}, {"type": "note_on", "time": 39, "note": 57, "velocity": 107, "channel": 0}, {"type": "note_off", "time": 131, "note": 57, "velocity": 107, "channel": 0}, {"type": "note_on", "time": 505, "note": 46, "velocity": 118, "channel": 0}, {"type": "note_off", "time": 104, "note": 46, "velocity": 118, "channel": 0}, {"type": "note_on", "time": 11, "note": 53, "velocity": 111, "channel": 0}, {"type": "note_off", "time": 56, "note": 53, "velocity": 111, "channel": 0}, {"type": "note_on", "time": 25, "note": 58, "velocity": 108, "channel": 0}, {"type": "note_off", "time": 72, "note": 58, "velocity": 108, "channel": 0}, {"type": "note_on", "time": 11, "note": 63, "velocity": 114, "channel": 0}, {"type": "note_off", "time": 55, "note": 63, "velocity": 114, "channel": 0}, {"type": "note_on", "time": 24, "note": 44, "velocity": 117, "channel": 0}, {"type": "note_off", "time": 241, "note": 44, "velocity": 117, "channel": 0}, {"type": "note_on", "time": 15, "note": 63, "velocity": 106, "channel": 0}, {"type": "note_off", "time": 67, "note": 63, "velocity": 106, "channel": 0}, {"type": "note_on", "time": 23, "note": 46, "velocity": 115, "channel": 0}, {"type": "note_off", "time": 273, "note": 46, "velocity": 115, "channel": 0}, {"type": "note_on", "time": 295, "note": 46, "velocity": 118, "channel": 0}, {"type": "note_off", "time": 118, "note": 46, "velocity": 118, "channel": 0}, {"type": "note_on", "time": 6, "note": 53, "velocity": 112, "channel": 0}, {"type": "note_off", "time": 61, "note": 53, "velocity": 112, "channel": 0}, {"type": "note_on", "time": 7, "note": 58, "velocity": 109, "channel": 0}, {"type": "note_off", "time": 67, "note": 58, "velocity": 109, "channel": 0}, {"type": "note_on", "time": 27, "note": 60, "velocity": 110, "channel": 0}, {"type": "note_off", "time": 100, "note": 60, "velocity": 110, "channel": 0}, {"type": "note_on", "time": 32, "note": 53, "velocity": 105, "channel": 0}, {"type": "note_off", "time": 55, "note": 53, "velocity": 105, "channel": 0}, {"type": "note_on", "time": 15, "note": 58, "velocity": 112, "channel": 0}, {"type": "note_off", "time": 47, "note": 58, "velocity": 112, "channel": 0}, {"type": "note_on", "time": 10, "note": 63, "velocity": 119, "channel": 0}, {"type": "note_off", "time": 108, "note": 63, "velocity": 119, "channel": 0}, {"type": "note_on", "time": 9, "note": 58, "velocity": 95, "channel": 0}, {"type": "note_off", "time": 152, "note": 58, "velocity": 95, "channel": 0}, {"type": "note_on", "time": 245, "note": 58, "velocity": 112, "channel": 0}, {"type": "note_off", "time": 104, "note": 58, "velocity": 112, "channel": 0}, {"type": "note_on", "time": 34, "note": 60, "velocity": 112, "channel": 0}, {"type": "note_off", "time": 58, "note": 60, "velocity": 112, "channel": 0}, {"type": "note_on", "time": 0, "note": 63, "velocity": 117, "channel": 0}, {"type": "note_off", "time": 83, "note": 63, "velocity": 117, "channel": 0}, {"type": "note_on", "time": 25, "note": 65, "velocity": 109, "channel": 0}, {"type": "note_off", "time": 74, "note": 65, "velocity": 109, "channel": 0}, {"type": "note_on", "time": 23, "note": 63, "velocity": 121, "channel": 0}, {"type": "note_off", "time": 78, "note": 63, "velocity": 121, "channel": 0}, {"type": "note_on", "time": 13, "note": 65, "velocity": 108, "channel": 0}, {"type": "note_off", "time": 62, "note": 65, "velocity": 108, "channel": 0}, {"type": "note_on", "time": 7, "note": 70, "velocity": 116, "channel": 0}, {"type": "note_off", "time": 114, "note": 70, "velocity": 116, "channel": 0}, {"type": "note_on", "time": 25, "note": 71, "velocity": 117, "channel": 0}, {"type": "note_off", "time": 68, "note": 71, "velocity": 117, "channel": 0}, {"type": "note_on", "time": 13, "note": 68, "velocity": 117, "channel": 0}, {"type": "note_off", "time": 91, "note": 68, "velocity": 117, "channel": 0}, {"type": "note_on", "time": 12, "note": 66, "velocity": 112, "channel": 0}, {"type": "note_off", "time": 78, "note": 66, "velocity": 112, "channel": 0}, {"type": "note_on", "time": 10, "note": 63, "velocity": 120, "channel": 0}, {"type": "note_off", "time": 116, "note": 63, "velocity": 120, "channel": 0}, {"type": "note_on", "time": 11, "note": 68, "velocity": 95, "channel": 0}, {"type": "note_off", "time": 53, "note": 68, "velocity": 95, "channel": 0}, {"type": "note_on", "time": 15, "note": 65, "velocity": 111, "channel": 0}, {"type": "note_off", "time": 89, "note": 65, "velocity": 111, "channel": 0}, {"type": "note_on", "time": 24, "note": 60, "velocity": 109, "channel": 0}, {"type": "note_off", "time": 69, "note": 60, "velocity": 109, "channel": 0}, {"type": "note_on", "time": 15, "note": 58, "velocity": 109, "channel": 0}, {"type": "note_off", "time": 65, "note": 58, "velocity": 109, "channel": 0}, {"type": "note_on", "time": 17, "note": 53, "velocity": 110, "channel": 0}, {"type": "note_off", "time": 78, "note": 53, "velocity": 110, "channel": 0}, {"type": "note_on", "time": 23, "note": 51, "velocity": 107, "channel": 0}, {"type": "note_off", "time": 92, "note": 51, "velocity": 107, "channel": 0}, {"type": "note_on", "time": 7, "note": 58, "velocity": 109, "channel": 0}, {"type": "note_off", "time": 65, "note": 58, "velocity": 109, "channel": 0}, {"type": "note_on", "time": 19, "note": 56, "velocity": 103, "channel": 0}, {"type": "note_off", "time": 84, "note": 56, "velocity": 103, "channel": 0}, {"type": "note_on", "time": 34, "note": 53, "velocity": 111, "channel": 0}, {"type": "note_off", "time": 80, "note": 53, "velocity": 111, "channel": 0}, {"type": "note_on", "time": 26, "note": 51, "velocity": 108, "channel": 0}, {"type": "note_off", "time": 126, "note": 51, "velocity": 108, "channel": 0}, {"type": "note_on", "time": 46, "note": 53, "velocity": 109, "channel": 0}, {"type": "note_off", "time": 94, "note": 53, "velocity": 109, "channel": 0}, {"type": "note_on", "time": 22, "note": 46, "velocity": 108, "channel": 0}, {"type": "note_off", "time": 195, "note": 46, "velocity": 108, "channel": 0}, {"type": "note_on", "time": 470, "note": 70, "velocity": 115, "channel": 0}, {"type": "note_off", "time": 129, "note": 70, "velocity": 115, "channel": 0}, {"type": "note_on", "time": 9, "note": 66, "velocity": 100, "channel": 0}, {"type": "note_off", "time": 61, "note": 66, "velocity": 100, "channel": 0}, {"type": "note_on", "time": 23, "note": 68, "velocity": 111, "channel": 0}, {"type": "note_off", "time": 64, "note": 68, "velocity": 111, "channel": 0}, {"type": "note_on", "time": 34, "note": 63, "velocity": 116, "channel": 0}, {"type": "note_off", "time": 80, "note": 63, "velocity": 116, "channel": 0}, {"type": "note_on", "time": 9, "note": 60, "velocity": 108, "channel": 0}, {"type": "note_off", "time": 91, "note": 60, "velocity": 108, "channel": 0}, {"type": "note_on", "time": 44, "note": 58, "velocity": 100, "channel": 0}, {"type": "note_off", "time": 38, "note": 58, "velocity": 100, "channel": 0}, {"type": "note_on", "time": 20, "note": 62, "velocity": 108, "channel": 0}, {"type": "note_off", "time": 81, "note": 62, "velocity": 108, "channel": 0}, {"type": "note_on", "time": 37, "note": 65, "velocity": 105, "channel": 0}, {"type": "note_off", "time": 84, "note": 65, "velocity": 105, "channel": 0}, {"type": "note_on", "time": 196, "note": 64, "velocity": 111, "channel": 0}, {"type": "note_off", "time": 77, "note": 64, "velocity": 111, "channel": 0}, {"type": "note_on", "time": 20, "note": 67, "velocity": 103, "channel": 0}, {"type": "note_off", "time": 89, "note": 67, "velocity": 103, "channel": 0}, {"type": "note_on", "time": 88, "note": 65, "velocity": 112, "channel": 0}, {"type": "note_off", "time": 418, "note": 65, "velocity": 112, "channel": 0}, {"type": "note_on", "time": 21, "note": 62, "velocity": 97, "channel": 0}, {"type": "note_off", "time": 56, "note": 62, "velocity": 97, "channel": 0}, {"type": "note_on", "time": 14, "note": 67, "velocity": 113, "channel": 0}, {"type": "note_off", "time": 86, "note": 67, "velocity": 113, "channel": 0}, {"type": "note_on", "time": 12, "note": 65, "velocity": 111, "channel": 0}, {"type": "note_off", "time": 62, "note": 65, "velocity": 111, "channel": 0}, {"type": "note_on", "time": 18, "note": 62, "velocity": 110, "channel": 0}, {"type": "note_off", "time": 97, "note": 62, "velocity": 110, "channel": 0}, {"type": "note_on", "time": 19, "note": 60, "velocity": 97, "channel": 0}, {"type": "note_off", "time": 59, "note": 60, "velocity": 97, "channel": 0}, {"type": "note_on", "time": 14, "note": 64, "velocity": 118, "channel": 0}, {"type": "note_off", "time": 77, "note": 64, "velocity": 118, "channel": 0}, {"type": "note_on", "time": 19, "note": 61, "velocity": 106, "channel": 0}, {"type": "note_off", "time": 72, "note": 61, "velocity": 106, "channel": 0}, {"type": "note_on", "time": 16, "note": 59, "velocity": 109, "channel": 0}, {"type": "note_off", "time": 68, "note": 59, "velocity": 109, "channel": 0}, {"type": "note_on", "time": 11, "note": 58, "velocity": 109, "channel": 0}, {"type": "note_off", "time": 83, "note": 58, "velocity": 109, "channel": 0}, {"type": "note_on", "time": 17, "note": 57, "velocity": 110, "channel": 0}, {"type": "note_off", "time": 67, "note": 57, "velocity": 110, "channel": 0}, {"type": "note_on", "time": 19, "note": 56, "velocity": 107, "channel": 0}, {"type": "note_off", "time": 90, "note": 56, "velocity": 107, "channel": 0}, {"type": "note_on", "time": 15, "note": 55, "velocity": 103, "channel": 0}, {"type": "note_off", "time": 82, "note": 55, "velocity": 103, "channel": 0}, {"type": "note_on", "time": 27, "note": 59, "velocity": 107, "channel": 0}, {"type": "note_off", "time": 82, "note": 59, "velocity": 107, "channel": 0}, {"type": "note_on", "time": 22, "note": 57, "velocity": 106, "channel": 0}, {"type": "note_off", "time": 78, "note": 57, "velocity": 106, "channel": 0}, {"type": "note_on", "time": 18, "note": 53, "velocity": 108, "channel": 0}, {"type": "note_off", "time": 81, "note": 53, "velocity": 108, "channel": 0}, {"type": "note_on", "time": 12, "note": 52, "velocity": 98, "channel": 0}, {"type": "note_off", "time": 132, "note": 52, "velocity": 98, "channel": 0}, {"type": "note_on", "time": 32, "note": 53, "velocity": 104, "channel": 0}, {"type": "note_off", "time": 93, "note": 53, "velocity": 104, "channel": 0}, {"type": "note_on", "time": 93, "note": 57, "velocity": 108, "channel": 0}, {"type": "note_off", "time": 120, "note": 57, "velocity": 108, "channel": 0}, {"type": "note_on", "time": 336, "note": 57, "velocity": 111, "channel": 0}, {"type": "note_off", "time": 59, "note": 57, "velocity": 111, "channel": 0}, {"type": "note_on", "time": 15, "note": 59, "velocity": 105, "channel": 0}, {"type": "note_off", "time": 50, "note": 59, "velocity": 105, "channel": 0}, {"type": "note_on", "time": 13, "note": 61, "velocity": 109, "channel": 0}, {"type": "note_off", "time": 55, "note": 61, "velocity": 109, "channel": 0}, {"type": "note_on", "time": 28, "note": 65, "velocity": 108, "channel": 0}, {"type": "note_off", "time": 74, "note": 65, "velocity": 108, "channel": 0}, {"type": "note_on", "time": 34, "note": 69, "velocity": 108, "channel": 0}, {"type": "note_off", "time": 75, "note": 69, "velocity": 108, "channel": 0}, {"type": "note_on", "time": 20, "note": 71, "velocity": 117, "channel": 0}, {"type": "note_off", "time": 75, "note": 71, "velocity": 117, "channel": 0}, {"type": "note_on", "time": 7, "note": 73, "velocity": 119, "channel": 0}, {"type": "note_off", "time": 129, "note": 73, "velocity": 119, "channel": 0}, {"type": "note_on", "time": 416, "note": 73, "velocity": 110, "channel": 0}, {"type": "note_off", "time": 81, "note": 73, "velocity": 110, "channel": 0}, {"type": "note_on", "time": 17, "note": 71, "velocity": 115, "channel": 0}, {"type": "note_off", "time": 71, "note": 71, "velocity": 115, "channel": 0}, {"type": "note_on", "time": 29, "note": 69, "velocity": 105, "channel": 0}, {"type": "note_off", "time": 55, "note": 69, "velocity": 105, "channel": 0}, {"type": "note_on", "time": 5, "note": 65, "velocity": 104, "channel": 0}, {"type": "note_off", "time": 82, "note": 65, "velocity": 104, "channel": 0}, {"type": "note_on", "time": 24, "note": 61, "velocity": 96, "channel": 0}, {"type": "note_off", "time": 66, "note": 61, "velocity": 96, "channel": 0}, {"type": "note_on", "time": 21, "note": 69, "velocity": 102, "channel": 0}, {"type": "note_off", "time": 80, "note": 69, "velocity": 102, "channel": 0}, {"type": "note_on", "time": 10, "note": 65, "velocity": 107, "channel": 0}, {"type": "note_off", "time": 77, "note": 65, "velocity": 107, "channel": 0}, {"type": "note_on", "time": 22, "note": 62, "velocity": 110, "channel": 0}, {"type": "note_off", "time": 76, "note": 62, "velocity": 110, "channel": 0}, {"type": "note_on", "time": 35, "note": 65, "velocity": 109, "channel": 0}, {"type": "note_off", "time": 73, "note": 65, "velocity": 109, "channel": 0}, {"type": "note_on", "time": 20, "note": 62, "velocity": 110, "channel": 0}, {"type": "note_off", "time": 187, "note": 62, "velocity": 110, "channel": 0}, {"type": "note_on", "time": 12, "note": 70, "velocity": 103, "channel": 0}, {"type": "note_off", "time": 80, "note": 70, "velocity": 103, "channel": 0}, {"type": "note_on", "time": 15, "note": 64, "velocity": 120, "channel": 0}, {"type": "note_off", "time": 73, "note": 64, "velocity": 120, "channel": 0}, {"type": "note_on", "time": 16, "note": 59, "velocity": 111, "channel": 0}, {"type": "note_off", "time": 76, "note": 59, "velocity": 111, "channel": 0}, {"type": "note_on", "time": 10, "note": 57, "velocity": 113, "channel": 0}, {"type": "note_off", "time": 121, "note": 57, "velocity": 113, "channel": 0}, {"type": "note_on", "time": 78, "note": 57, "velocity": 111, "channel": 0}, {"type": "note_off", "time": 78, "note": 57, "velocity": 111, "channel": 0}, {"type": "note_on", "time": 14, "note": 53, "velocity": 106, "channel": 0}, {"type": "note_off", "time": 100, "note": 53, "velocity": 106, "channel": 0}, {"type": "note_on", "time": 73, "note": 57, "velocity": 107, "channel": 0}, {"type": "note_off", "time": 77, "note": 57, "velocity": 107, "channel": 0}, {"type": "note_on", "time": 23, "note": 45, "velocity": 114, "channel": 0}, {"type": "note_off", "time": 258, "note": 45, "velocity": 114, "channel": 0}, {"type": "note_on", "time": 174, "note": 45, "velocity": 117, "channel": 0}, {"type": "note_off", "time": 82, "note": 45, "velocity": 117, "channel": 0}, {"type": "note_on", "time": 0, "note": 54, "velocity": 115, "channel": 0}, {"type": "note_off", "time": 68, "note": 54, "velocity": 115, "channel": 0}, {"type": "note_on", "time": 20, "note": 57, "velocity": 110, "channel": 0}, {"type": "note_off", "time": 95, "note": 57, "velocity": 110, "channel": 0}, {"type": "note_on", "time": 9, "note": 47, "velocity": 109, "channel": 0}, {"type": "note_off", "time": 134, "note": 47, "velocity": 109, "channel": 0}, {"type": "note_on", "time": 9, "note": 54, "velocity": 108, "channel": 0}, {"type": "note_off", "time": 84, "note": 54, "velocity": 108, "channel": 0}, {"type": "note_on", "time": 278, "note": 45, "velocity": 114, "channel": 0}, {"type": "note_off", "time": 88, "note": 45, "velocity": 114, "channel": 0}, {"type": "note_on", "time": 19, "note": 54, "velocity": 110, "channel": 0}, {"type": "note_off", "time": 68, "note": 54, "velocity": 110, "channel": 0}, {"type": "note_on", "time": 19, "note": 57, "velocity": 111, "channel": 0}, {"type": "note_off", "time": 68, "note": 57, "velocity": 111, "channel": 0}, {"type": "note_on", "time": 3, "note": 47, "velocity": 103, "channel": 0}, {"type": "note_off", "time": 111, "note": 47, "velocity": 103, "channel": 0}, {"type": "note_on", "time": 11, "note": 53, "velocity": 112, "channel": 0}, {"type": "note_off", "time": 76, "note": 53, "velocity": 112, "channel": 0}, {"type": "note_on", "time": 294, "note": 47, "velocity": 117, "channel": 0}, {"type": "note_off", "time": 78, "note": 47, "velocity": 117, "channel": 0}, {"type": "note_on", "time": 19, "note": 53, "velocity": 111, "channel": 0}, {"type": "note_off", "time": 90, "note": 53, "velocity": 111, "channel": 0}, {"type": "note_on", "time": 9, "note": 57, "velocity": 110, "channel": 0}, {"type": "note_off", "time": 88, "note": 57, "velocity": 110, "channel": 0}, {"type": "note_on", "time": 0, "note": 50, "velocity": 113, "channel": 0}, {"type": "note_off", "time": 98, "note": 50, "velocity": 113, "channel": 0}, {"type": "note_on", "time": 11, "note": 55, "velocity": 109, "channel": 0}, {"type": "note_off", "time": 70, "note": 55, "velocity": 109, "channel": 0}, {"type": "note_on", "time": 332, "note": 52, "velocity": 114, "channel": 0}, {"type": "note_off", "time": 78, "note": 52, "velocity": 114, "channel": 0}, {"type": "note_on", "time": 22, "note": 55, "velocity": 108, "channel": 0}, {"type": "note_off", "time": 96, "note": 55, "velocity": 108, "channel": 0}, {"type": "note_on", "time": 19, "note": 59, "velocity": 114, "channel": 0}, {"type": "note_off", "time": 82, "note": 59, "velocity": 114, "channel": 0}, {"type": "note_on", "time": 10, "note": 53, "velocity": 112, "channel": 0}, {"type": "note_off", "time": 69, "note": 53, "velocity": 112, "channel": 0}, {"type": "note_on", "time": 12, "note": 57, "velocity": 107, "channel": 0}, {"type": "note_off", "time": 65, "note": 57, "velocity": 107, "channel": 0}, {"type": "note_on", "time": 325, "note": 57, "velocity": 115, "channel": 0}, {"type": "note_off", "time": 101, "note": 57, "velocity": 115, "channel": 0}, {"type": "note_on", "time": 19, "note": 60, "velocity": 118, "channel": 0}, {"type": "note_off", "time": 80, "note": 60, "velocity": 118, "channel": 0}, {"type": "note_on", "time": 14, "note": 65, "velocity": 121, "channel": 0}, {"type": "note_off", "time": 56, "note": 65, "velocity": 121, "channel": 0}, {"type": "note_on", "time": 8, "note": 70, "velocity": 114, "channel": 0}, {"type": "note_off", "time": 88, "note": 70, "velocity": 114, "channel": 0}, {"type": "note_on", "time": 13, "note": 62, "velocity": 121, "channel": 0}, {"type": "note_off", "time": 93, "note": 62, "velocity": 121, "channel": 0}, {"type": "note_on", "time": 294, "note": 62, "velocity": 123, "channel": 0}, {"type": "note_off", "time": 91, "note": 62, "velocity": 123, "channel": 0}, {"type": "note_on", "time": 8, "note": 67, "velocity": 118, "channel": 0}, {"type": "note_off", "time": 89, "note": 67, "velocity": 118, "channel": 0}, {"type": "note_on", "time": 0, "note": 71, "velocity": 118, "channel": 0}, {"type": "note_off", "time": 81, "note": 71, "velocity": 118, "channel": 0}, {"type": "note_on", "time": 30, "note": 60, "velocity": 119, "channel": 0}, {"type": "note_off", "time": 100, "note": 60, "velocity": 119, "channel": 0}, {"type": "note_on", "time": 64, "note": 65, "velocity": 119, "channel": 0}, {"type": "note_off", "time": 105, "note": 65, "velocity": 119, "channel": 0}, {"type": "note_on", "time": 11, "note": 69, "velocity": 119, "channel": 0}, {"type": "note_off", "time": 67, "note": 69, "velocity": 119, "channel": 0}, {"type": "note_on", "time": 31, "note": 62, "velocity": 116, "channel": 0}, {"type": "note_off", "time": 172, "note": 62, "velocity": 116, "channel": 0}, {"type": "note_on", "time": 13, "note": 69, "velocity": 116, "channel": 0}, {"type": "note_off", "time": 64, "note": 69, "velocity": 116, "channel": 0}, {"type": "note_on", "time": 29, "note": 71, "velocity": 113, "channel": 0}, {"type": "note_off", "time": 90, "note": 71, "velocity": 113, "channel": 0}, {"type": "note_on", "time": 18, "note": 64, "velocity": 118, "channel": 0}, {"type": "note_off", "time": 102, "note": 64, "velocity": 118, "channel": 0}, {"type": "note_on", "time": 14, "note": 67, "velocity": 116, "channel": 0}, {"type": "note_off", "time": 52, "note": 67, "velocity": 116, "channel": 0}, {"type": "note_on", "time": 14, "note": 71, "velocity": 118, "channel": 0}, {"type": "note_off", "time": 84, "note": 71, "velocity": 118, "channel": 0}, {"type": "note_on", "time": 6, "note": 65, "velocity": 104, "channel": 0}, {"type": "note_off", "time": 128, "note": 65, "velocity": 104, "channel": 0}, {"type": "note_on", "time": 780, "note": 71, "velocity": 121, "channel": 0}, {"type": "note_off", "time": 1470, "note": 71, "velocity": 121, "channel": 0}, {"type": "note_on", "time": 18, "note": 69, "velocity": 108, "channel": 0}, {"type": "note_off", "time": 76, "note": 69, "velocity": 108, "channel": 0}, {"type": "note_on", "time": 12, "note": 71, "velocity": 117, "channel": 0}, {"type": "note_off", "time": 168, "note": 71, "velocity": 117, "channel": 0}, {"type": "note_on", "time": 21, "note": 69, "velocity": 116, "channel": 0}, {"type": "note_off", "time": 70, "note": 69, "velocity": 116, "channel": 0}, {"type": "note_on", "time": 12, "note": 71, "velocity": 119, "channel": 0}, {"type": "note_off", "time": 397, "note": 71, "velocity": 119, "channel": 0}, {"type": "note_on", "time": 10, "note": 69, "velocity": 114, "channel": 0}, {"type": "note_off", "time": 70, "note": 69, "velocity": 114, "channel": 0}, {"type": "note_on", "time": 9, "note": 65, "velocity": 113, "channel": 0}, {"type": "note_off", "time": 68, "note": 65, "velocity": 113, "channel": 0}, {"type": "note_on", "time": 25, "note": 62, "velocity": 111, "channel": 0}, {"type": "note_off", "time": 99, "note": 62, "velocity": 111, "channel": 0}, {"type": "note_on", "time": 619, "note": 71, "velocity": 119, "channel": 0}, {"type": "note_off", "time": 148, "note": 71, "velocity": 119, "channel": 0}, {"type": "note_on", "time": 1, "note": 69, "velocity": 98, "channel": 0}, {"type": "note_off", "time": 110, "note": 69, "velocity": 98, "channel": 0}, {"type": "note_on", "time": 39, "note": 71, "velocity": 118, "channel": 0}, {"type": "note_off", "time": 495, "note": 71, "velocity": 118, "channel": 0}, {"type": "note_on", "time": 36, "note": 69, "velocity": 91, "channel": 0}, {"type": "note_off", "time": 88, "note": 69, "velocity": 91, "channel": 0}, {"type": "note_on", "time": 81, "note": 71, "velocity": 117, "channel": 0}, {"type": "note_off", "time": 92, "note": 71, "velocity": 117, "channel": 0}, {"type": "note_on", "time": 130, "note": 71, "velocity": 116, "channel": 0}, {"type": "note_off", "time": 268, "note": 71, "velocity": 116, "channel": 0}, {"type": "note_on", "time": 30, "note": 69, "velocity": 105, "channel": 0}, {"type": "note_off", "time": 65, "note": 69, "velocity": 105, "channel": 0}, {"type": "note_on", "time": 23, "note": 71, "velocity": 117, "channel": 0}, {"type": "note_off", "time": 87, "note": 71, "velocity": 117, "channel": 0}, {"type": "note_on", "time": 25, "note": 69, "velocity": 113, "channel": 0}, {"type": "note_off", "time": 67, "note": 69, "velocity": 113, "channel": 0}, {"type": "note_on", "time": 12, "note": 71, "velocity": 116, "channel": 0}, {"type": "note_off", "time": 105, "note": 71, "velocity": 116, "channel": 0}, {"type": "note_on", "time": 12, "note": 69, "velocity": 115, "channel": 0}, {"type": "note_off", "time": 61, "note": 69, "velocity": 115, "channel": 0}, {"type": "note_on", "time": 19, "note": 65, "velocity": 110, "channel": 0}, {"type": "note_off", "time": 95, "note": 65, "velocity": 110, "channel": 0}, {"type": "note_on", "time": 22, "note": 65, "velocity": 110, "channel": 0}, {"type": "note_off", "time": 70, "note": 65, "velocity": 110, "channel": 0}, {"type": "note_on", "time": 19, "note": 62, "velocity": 114, "channel": 0}, {"type": "note_off", "time": 86, "note": 62, "velocity": 114, "channel": 0}, {"type": "note_on", "time": 26, "note": 58, "velocity": 110, "channel": 0}, {"type": "note_off", "time": 58, "note": 58, "velocity": 110, "channel": 0}, {"type": "note_on", "time": 18, "note": 65, "velocity": 116, "channel": 0}, {"type": "note_off", "time": 295, "note": 65, "velocity": 116, "channel": 0}, {"type": "note_on", "time": 117, "note": 68, "velocity": 112, "channel": 0}, {"type": "note_off", "time": 76, "note": 68, "velocity": 112, "channel": 0}, {"type": "note_on", "time": 19, "note": 72, "velocity": 117, "channel": 0}, {"type": "note_off", "time": 125, "note": 72, "velocity": 117, "channel": 0}, {"type": "note_on", "time": 55, "note": 72, "velocity": 120, "channel": 0}, {"type": "note_off", "time": 832, "note": 72, "velocity": 120, "channel": 0}, {"type": "note_on", "time": 17, "note": 68, "velocity": 122, "channel": 0}, {"type": "note_off", "time": 85, "note": 68, "velocity": 122, "channel": 0}, {"type": "note_on", "time": 7, "note": 63, "velocity": 117, "channel": 0}, {"type": "note_off", "time": 96, "note": 63, "velocity": 117, "channel": 0}, {"type": "note_on", "time": 610, "note": 72, "velocity": 115, "channel": 0}, {"type": "note_off", "time": 99, "note": 72, "velocity": 115, "channel": 0}, {"type": "note_on", "time": 24, "note": 70, "velocity": 98, "channel": 0}, {"type": "note_off", "time": 72, "note": 70, "velocity": 98, "channel": 0}, {"type": "note_on", "time": 82, "note": 72, "velocity": 120, "channel": 0}, {"type": "note_off", "time": 471, "note": 72, "velocity": 120, "channel": 0}, {"type": "note_on", "time": 32, "note": 68, "velocity": 112, "channel": 0}, {"type": "note_off", "time": 64, "note": 68, "velocity": 112, "channel": 0}, {"type": "note_on", "time": 15, "note": 63, "velocity": 115, "channel": 0}, {"type": "note_off", "time": 68, "note": 63, "velocity": 115, "channel": 0}, {"type": "note_on", "time": 571, "note": 72, "velocity": 119, "channel": 0}, {"type": "note_off", "time": 103, "note": 72, "velocity": 119, "channel": 0}, {"type": "note_on", "time": 15, "note": 70, "velocity": 115, "channel": 0}, {"type": "note_off", "time": 90, "note": 70, "velocity": 115, "channel": 0}, {"type": "note_on", "time": 85, "note": 72, "velocity": 113, "channel": 0}, {"type": "note_off", "time": 463, "note": 72, "velocity": 113, "channel": 0}, {"type": "note_on", "time": 32, "note": 70, "velocity": 108, "channel": 0}, {"type": "note_off", "time": 77, "note": 70, "velocity": 108, "channel": 0}, {"type": "note_on", "time": 74, "note": 72, "velocity": 114, "channel": 0}, {"type": "note_off", "time": 211, "note": 72, "velocity": 114, "channel": 0}, {"type": "note_on", "time": 419, "note": 72, "velocity": 117, "channel": 0}, {"type": "note_off", "time": 86, "note": 72, "velocity": 117, "channel": 0}, {"type": "note_on", "time": 16, "note": 70, "velocity": 116, "channel": 0}, {"type": "note_off", "time": 86, "note": 70, "velocity": 116, "channel": 0}, {"type": "note_on", "time": 63, "note": 72, "velocity": 112, "channel": 0}, {"type": "note_off", "time": 500, "note": 72, "velocity": 112, "channel": 0}, {"type": "note_on", "time": 7, "note": 68, "velocity": 112, "channel": 0}, {"type": "note_off", "time": 71, "note": 68, "velocity": 112, "channel": 0}, {"type": "note_on", "time": 19, "note": 63, "velocity": 113, "channel": 0}, {"type": "note_off", "time": 149, "note": 63, "velocity": 113, "channel": 0}, {"type": "note_on", "time": 539, "note": 71, "velocity": 116, "channel": 0}, {"type": "note_off", "time": 123, "note": 71, "velocity": 116, "channel": 0}, {"type": "note_on", "time": 9, "note": 69, "velocity": 91, "channel": 0}, {"type": "note_off", "time": 117, "note": 69, "velocity": 91, "channel": 0}, {"type": "note_on", "time": 33, "note": 71, "velocity": 9, "channel": 0}, {"type": "note_off", "time": 786, "note": 71, "velocity": 9, "channel": 0}, {"type": "note_on", "time": 14, "note": 69, "velocity": 110, "channel": 0}, {"type": "note_off", "time": 50, "note": 69, "velocity": 110, "channel": 0}, {"type": "note_on", "time": 135, "note": 71, "velocity": 113, "channel": 0}, {"type": "note_off", "time": 175, "note": 71, "velocity": 113, "channel": 0}, {"type": "note_on", "time": 402, "note": 71, "velocity": 114, "channel": 0}, {"type": "note_off", "time": 104, "note": 71, "velocity": 114, "channel": 0}, {"type": "note_on", "time": 11, "note": 69, "velocity": 109, "channel": 0}, {"type": "note_off", "time": 60, "note": 69, "velocity": 109, "channel": 0}, {"type": "note_on", "time": 73, "note": 71, "velocity": 114, "channel": 0}, {"type": "note_off", "time": 477, "note": 71, "velocity": 114, "channel": 0}, {"type": "note_on", "time": 37, "note": 67, "velocity": 110, "channel": 0}, {"type": "note_off", "time": 90, "note": 67, "velocity": 110, "channel": 0}, {"type": "note_on", "time": 24, "note": 65, "velocity": 109, "channel": 0}, {"type": "note_off", "time": 58, "note": 65, "velocity": 109, "channel": 0}, {"type": "note_on", "time": 592, "note": 71, "velocity": 124, "channel": 0}, {"type": "note_off", "time": 105, "note": 71, "velocity": 124, "channel": 0}, {"type": "note_on", "time": 14, "note": 69, "velocity": 116, "channel": 0}, {"type": "note_off", "time": 67, "note": 69, "velocity": 116, "channel": 0}, {"type": "note_on", "time": 83, "note": 71, "velocity": 122, "channel": 0}, {"type": "note_off", "time": 458, "note": 71, "velocity": 122, "channel": 0}, {"type": "note_on", "time": 18, "note": 69, "velocity": 118, "channel": 0}, {"type": "note_off", "time": 52, "note": 69, "velocity": 118, "channel": 0}, {"type": "note_on", "time": 116, "note": 71, "velocity": 117, "channel": 0}, {"type": "note_off", "time": 98, "note": 71, "velocity": 117, "channel": 0}, {"type": "note_on", "time": 125, "note": 71, "velocity": 121, "channel": 0}, {"type": "note_off", "time": 236, "note": 71, "velocity": 121, "channel": 0}, {"type": "note_on", "time": 11, "note": 69, "velocity": 107, "channel": 0}, {"type": "note_off", "time": 98, "note": 69, "velocity": 107, "channel": 0}, {"type": "note_on", "time": 11, "note": 71, "velocity": 118, "channel": 0}, {"type": "note_off", "time": 126, "note": 71, "velocity": 118, "channel": 0}, {"type": "note_on", "time": 23, "note": 69, "velocity": 111, "channel": 0}, {"type": "note_off", "time": 56, "note": 69, "velocity": 111, "channel": 0}, {"type": "note_on", "time": 91, "note": 71, "velocity": 115, "channel": 0}, {"type": "note_off", "time": 225, "note": 71, "velocity": 115, "channel": 0}, {"type": "note_on", "time": 14, "note": 65, "velocity": 115, "channel": 0}, {"type": "note_off", "time": 44, "note": 65, "velocity": 115, "channel": 0}, {"type": "note_on", "time": 11, "note": 62, "velocity": 110, "channel": 0}, {"type": "note_off", "time": 94, "note": 62, "velocity": 110, "channel": 0}, {"type": "note_on", "time": 19, "note": 58, "velocity": 111, "channel": 0}, {"type": "note_off", "time": 61, "note": 58, "velocity": 111, "channel": 0}, {"type": "note_on", "time": 18, "note": 65, "velocity": 112, "channel": 0}, {"type": "note_off", "time": 276, "note": 65, "velocity": 112, "channel": 0}, {"type": "note_on", "time": 19, "note": 62, "velocity": 99, "channel": 0}, {"type": "note_off", "time": 52, "note": 62, "velocity": 99, "channel": 0}, {"type": "note_on", "time": 55, "note": 69, "velocity": 117, "channel": 0}, {"type": "note_off", "time": 60, "note": 69, "velocity": 117, "channel": 0}, {"type": "note_on", "time": 144, "note": 71, "velocity": 120, "channel": 0}, {"type": "note_off", "time": 118, "note": 71, "velocity": 120, "channel": 0}, {"type": "note_on", "time": 14, "note": 69, "velocity": 117, "channel": 0}, {"type": "note_off", "time": 89, "note": 69, "velocity": 117, "channel": 0}, {"type": "note_on", "time": 9, "note": 69, "velocity": 122, "channel": 0}, {"type": "note_off", "time": 162, "note": 69, "velocity": 122, "channel": 0}, {"type": "note_on", "time": 10, "note": 71, "velocity": 120, "channel": 0}, {"type": "note_off", "time": 122, "note": 71, "velocity": 120, "channel": 0}, {"type": "note_on", "time": 5, "note": 69, "velocity": 117, "channel": 0}, {"type": "note_off", "time": 240, "note": 69, "velocity": 117, "channel": 0}, {"type": "note_on", "time": 27, "note": 71, "velocity": 117, "channel": 0}, {"type": "note_off", "time": 86, "note": 71, "velocity": 117, "channel": 0}, {"type": "note_on", "time": 3, "note": 69, "velocity": 114, "channel": 0}, {"type": "note_off", "time": 277, "note": 69, "velocity": 114, "channel": 0}, {"type": "note_on", "time": 409, "note": 71, "velocity": 113, "channel": 0}, {"type": "note_off", "time": 139, "note": 71, "velocity": 113, "channel": 0}, {"type": "note_on", "time": 10, "note": 69, "velocity": 112, "channel": 0}, {"type": "note_off", "time": 241, "note": 69, "velocity": 112, "channel": 0}, {"type": "note_on", "time": 10, "note": 71, "velocity": 112, "channel": 0}, {"type": "note_off", "time": 105, "note": 71, "velocity": 112, "channel": 0}, {"type": "note_on", "time": 63, "note": 69, "velocity": 112, "channel": 0}, {"type": "note_off", "time": 274, "note": 69, "velocity": 112, "channel": 0}, {"type": "note_on", "time": 145, "note": 71, "velocity": 103, "channel": 0}, {"type": "note_off", "time": 85, "note": 71, "velocity": 103, "channel": 0}, {"type": "note_on", "time": 36, "note": 65, "velocity": 110, "channel": 0}, {"type": "note_off", "time": 49, "note": 65, "velocity": 110, "channel": 0}, {"type": "note_on", "time": 5, "note": 62, "velocity": 112, "channel": 0}, {"type": "note_off", "time": 93, "note": 62, "velocity": 112, "channel": 0}, {"type": "note_on", "time": 23, "note": 59, "velocity": 96, "channel": 0}, {"type": "note_off", "time": 54, "note": 59, "velocity": 96, "channel": 0}, {"type": "note_on", "time": 29, "note": 65, "velocity": 112, "channel": 0}, {"type": "note_off", "time": 63, "note": 65, "velocity": 112, "channel": 0}, {"type": "note_on", "time": 42, "note": 67, "velocity": 113, "channel": 0}, {"type": "note_off", "time": 50, "note": 67, "velocity": 113, "channel": 0}, {"type": "note_on", "time": 9, "note": 69, "velocity": 108, "channel": 0}, {"type": "note_off", "time": 91, "note": 69, "velocity": 108, "channel": 0}, {"type": "note_on", "time": 43, "note": 71, "velocity": 117, "channel": 0}, {"type": "note_off", "time": 71, "note": 71, "velocity": 117, "channel": 0}, {"type": "note_on", "time": 10, "note": 67, "velocity": 113, "channel": 0}, {"type": "note_off", "time": 83, "note": 67, "velocity": 113, "channel": 0}, {"type": "note_on", "time": 11, "note": 71, "velocity": 116, "channel": 0}, {"type": "note_off", "time": 79, "note": 71, "velocity": 116, "channel": 0}, {"type": "note_on", "time": 12, "note": 69, "velocity": 112, "channel": 0}, {"type": "note_off", "time": 93, "note": 69, "velocity": 112, "channel": 0}, {"type": "note_on", "time": 15, "note": 67, "velocity": 112, "channel": 0}, {"type": "note_off", "time": 55, "note": 67, "velocity": 112, "channel": 0}, {"type": "note_on", "time": 17, "note": 65, "velocity": 116, "channel": 0}, {"type": "note_off", "time": 125, "note": 65, "velocity": 116, "channel": 0}, {"type": "note_on", "time": 19, "note": 65, "velocity": 115, "channel": 0}, {"type": "note_off", "time": 68, "note": 65, "velocity": 115, "channel": 0}, {"type": "note_on", "time": 0, "note": 62, "velocity": 116, "channel": 0}, {"type": "note_off", "time": 79, "note": 62, "velocity": 116, "channel": 0}, {"type": "note_on", "time": 31, "note": 58, "velocity": 111, "channel": 0}, {"type": "note_off", "time": 66, "note": 58, "velocity": 111, "channel": 0}, {"type": "note_on", "time": 5, "note": 65, "velocity": 111, "channel": 0}, {"type": "note_off", "time": 308, "note": 65, "velocity": 111, "channel": 0}, {"type": "note_on", "time": 109, "note": 67, "velocity": 116, "channel": 0}, {"type": "note_off", "time": 71, "note": 67, "velocity": 116, "channel": 0}, {"type": "note_on", "time": 16, "note": 65, "velocity": 111, "channel": 0}, {"type": "note_off", "time": 50, "note": 65, "velocity": 111, "channel": 0}, {"type": "note_on", "time": 18, "note": 67, "velocity": 112, "channel": 0}, {"type": "note_off", "time": 122, "note": 67, "velocity": 112, "channel": 0}, {"type": "note_on", "time": 7, "note": 65, "velocity": 116, "channel": 0}, {"type": "note_off", "time": 92, "note": 65, "velocity": 116, "channel": 0}, {"type": "note_on", "time": 17, "note": 62, "velocity": 115, "channel": 0}, {"type": "note_off", "time": 71, "note": 62, "velocity": 115, "channel": 0}, {"type": "note_on", "time": 19, "note": 65, "velocity": 111, "channel": 0}, {"type": "note_off", "time": 67, "note": 65, "velocity": 111, "channel": 0}, {"type": "note_on", "time": 2, "note": 62, "velocity": 116, "channel": 0}, {"type": "note_off", "time": 226, "note": 62, "velocity": 116, "channel": 0}, {"type": "note_on", "time": 12, "note": 59, "velocity": 109, "channel": 0}, {"type": "note_off", "time": 74, "note": 59, "velocity": 109, "channel": 0}, {"type": "note_on", "time": 1, "note": 62, "velocity": 111, "channel": 0}, {"type": "note_off", "time": 94, "note": 62, "velocity": 111, "channel": 0}, {"type": "note_on", "time": 0, "note": 59, "velocity": 103, "channel": 0}, {"type": "note_off", "time": 98, "note": 59, "velocity": 103, "channel": 0}, {"type": "note_on", "time": 17, "note": 57, "velocity": 111, "channel": 0}, {"type": "note_off", "time": 97, "note": 57, "velocity": 111, "channel": 0}, {"type": "note_on", "time": 85, "note": 57, "velocity": 110, "channel": 0}, {"type": "note_off", "time": 60, "note": 57, "velocity": 110, "channel": 0}, {"type": "note_on", "time": 16, "note": 53, "velocity": 103, "channel": 0}, {"type": "note_off", "time": 113, "note": 53, "velocity": 103, "channel": 0}, {"type": "note_on", "time": 462, "note": 50, "velocity": 109, "channel": 0}, {"type": "note_off", "time": 98, "note": 50, "velocity": 109, "channel": 0}, {"type": "note_on", "time": 15, "note": 53, "velocity": 110, "channel": 0}, {"type": "note_off", "time": 113, "note": 53, "velocity": 110, "channel": 0}, {"type": "note_on", "time": 15, "note": 50, "velocity": 101, "channel": 0}, {"type": "note_off", "time": 92, "note": 50, "velocity": 101, "channel": 0}, {"type": "note_on", "time": 100, "note": 52, "velocity": 118, "channel": 0}, {"type": "note_off", "time": 109, "note": 52, "velocity": 118, "channel": 0}, {"type": "note_on", "time": 74, "note": 55, "velocity": 107, "channel": 0}, {"type": "note_off", "time": 101, "note": 55, "velocity": 107, "channel": 0}, {"type": "note_on", "time": 14, "note": 59, "velocity": 110, "channel": 0}, {"type": "note_off", "time": 69, "note": 59, "velocity": 110, "channel": 0}, {"type": "note_on", "time": 27, "note": 53, "velocity": 113, "channel": 0}, {"type": "note_off", "time": 87, "note": 53, "velocity": 113, "channel": 0}, {"type": "note_on", "time": 11, "note": 55, "velocity": 107, "channel": 0}, {"type": "note_off", "time": 61, "note": 55, "velocity": 107, "channel": 0}, {"type": "note_on", "time": 16, "note": 57, "velocity": 108, "channel": 0}, {"type": "note_off", "time": 86, "note": 57, "velocity": 108, "channel": 0}, {"type": "note_on", "time": 50, "note": 59, "velocity": 109, "channel": 0}, {"type": "note_off", "time": 59, "note": 59, "velocity": 109, "channel": 0}, {"type": "note_on", "time": 6, "note": 61, "velocity": 111, "channel": 0}, {"type": "note_off", "time": 99, "note": 61, "velocity": 111, "channel": 0}, {"type": "note_on", "time": 8, "note": 62, "velocity": 112, "channel": 0}, {"type": "note_off", "time": 75, "note": 62, "velocity": 112, "channel": 0}, {"type": "note_on", "time": 12, "note": 64, "velocity": 116, "channel": 0}, {"type": "note_off", "time": 78, "note": 64, "velocity": 116, "channel": 0}, {"type": "note_on", "time": 15, "note": 65, "velocity": 111, "channel": 0}, {"type": "note_off", "time": 92, "note": 65, "velocity": 111, "channel": 0}, {"type": "note_on", "time": 6, "note": 62, "velocity": 114, "channel": 0}, {"type": "note_off", "time": 74, "note": 62, "velocity": 114, "channel": 0}, {"type": "note_on", "time": 15, "note": 64, "velocity": 116, "channel": 0}, {"type": "note_off", "time": 78, "note": 64, "velocity": 116, "channel": 0}, {"type": "note_on", "time": 15, "note": 65, "velocity": 113, "channel": 0}, {"type": "note_off", "time": 60, "note": 65, "velocity": 113, "channel": 0}, {"type": "note_on", "time": 49, "note": 67, "velocity": 114, "channel": 0}, {"type": "note_off", "time": 74, "note": 67, "velocity": 114, "channel": 0}, {"type": "note_on", "time": 17, "note": 67, "velocity": 119, "channel": 0}, {"type": "note_off", "time": 94, "note": 67, "velocity": 119, "channel": 0}, {"type": "note_on", "time": 5, "note": 65, "velocity": 114, "channel": 0}, {"type": "note_off", "time": 62, "note": 65, "velocity": 114, "channel": 0}, {"type": "note_on", "time": 14, "note": 69, "velocity": 123, "channel": 0}, {"type": "note_off", "time": 94, "note": 69, "velocity": 123, "channel": 0}, {"type": "note_on", "time": 31, "note": 72, "velocity": 115, "channel": 0}, {"type": "note_off", "time": 127, "note": 72, "velocity": 115, "channel": 0}, {"type": "note_on", "time": 47, "note": 72, "velocity": 120, "channel": 0}, {"type": "note_off", "time": 94, "note": 72, "velocity": 120, "channel": 0}, {"type": "note_on", "time": 19, "note": 71, "velocity": 118, "channel": 0}, {"type": "note_off", "time": 82, "note": 71, "velocity": 118, "channel": 0}, {"type": "note_on", "time": 517, "note": 74, "velocity": 106, "channel": 0}, {"type": "note_off", "time": 735, "note": 74, "velocity": 106, "channel": 0}, {"type": "note_on", "time": 8, "note": 67, "velocity": 100, "channel": 0}, {"type": "note_off", "time": 49, "note": 67, "velocity": 100, "channel": 0}, {"type": "note_on", "time": 12, "note": 71, "velocity": 118, "channel": 0}, {"type": "note_off", "time": 87, "note": 71, "velocity": 118, "channel": 0}, {"type": "note_on", "time": 18, "note": 72, "velocity": 113, "channel": 0}, {"type": "note_off", "time": 69, "note": 72, "velocity": 113, "channel": 0}, {"type": "note_on", "time": 7, "note": 71, "velocity": 110, "channel": 0}, {"type": "note_off", "time": 110, "note": 71, "velocity": 110, "channel": 0}, {"type": "note_on", "time": 12, "note": 70, "velocity": 112, "channel": 0}, {"type": "note_off", "time": 72, "note": 70, "velocity": 112, "channel": 0}, {"type": "note_on", "time": 11, "note": 69, "velocity": 111, "channel": 0}, {"type": "note_off", "time": 69, "note": 69, "velocity": 111, "channel": 0}, {"type": "note_on", "time": 18, "note": 68, "velocity": 111, "channel": 0}, {"type": "note_off", "time": 69, "note": 68, "velocity": 111, "channel": 0}, {"type": "note_on", "time": 1, "note": 67, "velocity": 109, "channel": 0}, {"type": "note_off", "time": 55, "note": 67, "velocity": 109, "channel": 0}, {"type": "note_on", "time": 67, "note": 71, "velocity": 115, "channel": 0}, {"type": "note_off", "time": 79, "note": 71, "velocity": 115, "channel": 0}, {"type": "note_on", "time": 10, "note": 69, "velocity": 112, "channel": 0}, {"type": "note_off", "time": 91, "note": 69, "velocity": 112, "channel": 0}, {"type": "note_on", "time": 3, "note": 65, "velocity": 104, "channel": 0}, {"type": "note_off", "time": 47, "note": 65, "velocity": 104, "channel": 0}, {"type": "note_on", "time": 16, "note": 64, "velocity": 120, "channel": 0}, {"type": "note_off", "time": 134, "note": 64, "velocity": 120, "channel": 0}, {"type": "note_on", "time": 49, "note": 69, "velocity": 111, "channel": 0}, {"type": "note_off", "time": 40, "note": 69, "velocity": 111, "channel": 0}, {"type": "note_on", "time": 18, "note": 65, "velocity": 105, "channel": 0}, {"type": "note_off", "time": 270, "note": 65, "velocity": 105, "channel": 0}, {"type": "note_on", "time": 108, "note": 67, "velocity": 110, "channel": 0}, {"type": "note_off", "time": 93, "note": 67, "velocity": 110, "channel": 0}, {"type": "note_on", "time": 42, "note": 68, "velocity": 105, "channel": 0}, {"type": "note_off", "time": 82, "note": 68, "velocity": 105, "channel": 0}, {"type": "note_on", "time": 389, "note": 51, "velocity": 112, "channel": 0}, {"type": "note_off", "time": 98, "note": 51, "velocity": 112, "channel": 0}, {"type": "note_on", "time": 20, "note": 56, "velocity": 114, "channel": 0}, {"type": "note_off", "time": 86, "note": 56, "velocity": 114, "channel": 0}, {"type": "note_on", "time": 15, "note": 60, "velocity": 112, "channel": 0}, {"type": "note_off", "time": 77, "note": 60, "velocity": 112, "channel": 0}, {"type": "note_on", "time": 14, "note": 44, "velocity": 119, "channel": 0}, {"type": "note_off", "time": 224, "note": 44, "velocity": 119, "channel": 0}, {"type": "note_on", "time": 185, "note": 45, "velocity": 120, "channel": 0}, {"type": "note_off", "time": 100, "note": 45, "velocity": 120, "channel": 0}, {"type": "note_on", "time": 13, "note": 54, "velocity": 110, "channel": 0}, {"type": "note_off", "time": 55, "note": 54, "velocity": 110, "channel": 0}, {"type": "note_on", "time": 26, "note": 58, "velocity": 111, "channel": 0}, {"type": "note_off", "time": 155, "note": 58, "velocity": 111, "channel": 0}, {"type": "note_on", "time": 12, "note": 53, "velocity": 112, "channel": 0}, {"type": "note_off", "time": 135, "note": 53, "velocity": 112, "channel": 0}, {"type": "note_on", "time": 380, "note": 60, "velocity": 104, "channel": 0}, {"type": "note_off", "time": 104, "note": 60, "velocity": 104, "channel": 0}, {"type": "note_on", "time": 15, "note": 53, "velocity": 117, "channel": 0}, {"type": "note_off", "time": 30, "note": 53, "velocity": 117, "channel": 0}, {"type": "note_on", "time": 19, "note": 58, "velocity": 112, "channel": 0}, {"type": "note_off", "time": 110, "note": 58, "velocity": 112, "channel": 0}, {"type": "note_on", "time": 17, "note": 63, "velocity": 118, "channel": 0}, {"type": "note_off", "time": 84, "note": 63, "velocity": 118, "channel": 0}, {"type": "note_on", "time": 11, "note": 58, "velocity": 107, "channel": 0}, {"type": "note_off", "time": 82, "note": 58, "velocity": 107, "channel": 0}, {"type": "note_on", "time": 1, "note": 53, "velocity": 114, "channel": 0}, {"type": "note_off", "time": 39, "note": 53, "velocity": 114, "channel": 0}, {"type": "note_on", "time": 17, "note": 56, "velocity": 112, "channel": 0}, {"type": "note_off", "time": 101, "note": 56, "velocity": 112, "channel": 0}, {"type": "note_on", "time": 337, "note": 56, "velocity": 110, "channel": 0}, {"type": "note_off", "time": 95, "note": 56, "velocity": 110, "channel": 0}, {"type": "note_on", "time": 4, "note": 67, "velocity": 113, "channel": 0}, {"type": "note_off", "time": 68, "note": 67, "velocity": 113, "channel": 0}, {"type": "note_on", "time": 0, "note": 63, "velocity": 116, "channel": 0}, {"type": "note_off", "time": 71, "note": 63, "velocity": 116, "channel": 0}, {"type": "note_on", "time": 49, "note": 68, "velocity": 104, "channel": 0}, {"type": "note_off", "time": 58, "note": 68, "velocity": 104, "channel": 0}, {"type": "note_on", "time": 25, "note": 72, "velocity": 105, "channel": 0}, {"type": "note_off", "time": 77, "note": 72, "velocity": 105, "channel": 0}, {"type": "note_on", "time": 22, "note": 73, "velocity": 111, "channel": 0}, {"type": "note_off", "time": 90, "note": 73, "velocity": 111, "channel": 0}, {"type": "note_on", "time": 7, "note": 70, "velocity": 110, "channel": 0}, {"type": "note_off", "time": 64, "note": 70, "velocity": 110, "channel": 0}, {"type": "note_on", "time": 42, "note": 66, "velocity": 100, "channel": 0}, {"type": "note_off", "time": 68, "note": 66, "velocity": 100, "channel": 0}, {"type": "note_on", "time": 415, "note": 70, "velocity": 113, "channel": 0}, {"type": "note_off", "time": 126, "note": 70, "velocity": 113, "channel": 0}, {"type": "note_on", "time": 14, "note": 66, "velocity": 107, "channel": 0}, {"type": "note_off", "time": 54, "note": 66, "velocity": 107, "channel": 0}, {"type": "note_on", "time": 6, "note": 63, "velocity": 113, "channel": 0}, {"type": "note_off", "time": 91, "note": 63, "velocity": 113, "channel": 0}, {"type": "note_on", "time": 84, "note": 68, "velocity": 115, "channel": 0}, {"type": "note_off", "time": 105, "note": 68, "velocity": 115, "channel": 0}, {"type": "note_on", "time": 16, "note": 65, "velocity": 108, "channel": 0}, {"type": "note_off", "time": 80, "note": 65, "velocity": 108, "channel": 0}, {"type": "note_on", "time": 27, "note": 61, "velocity": 105, "channel": 0}, {"type": "note_off", "time": 88, "note": 61, "velocity": 105, "channel": 0}, {"type": "note_on", "time": 57, "note": 65, "velocity": 106, "channel": 0}, {"type": "note_off", "time": 82, "note": 65, "velocity": 106, "channel": 0}, {"type": "note_on", "time": 24, "note": 63, "velocity": 112, "channel": 0}, {"type": "note_off", "time": 105, "note": 63, "velocity": 112, "channel": 0}, {"type": "note_on", "time": 22, "note": 70, "velocity": 103, "channel": 0}, {"type": "note_off", "time": 59, "note": 70, "velocity": 103, "channel": 0}, {"type": "note_on", "time": 22, "note": 53, "velocity": 111, "channel": 0}, {"type": "note_off", "time": 49, "note": 53, "velocity": 111, "channel": 0}, {"type": "note_on", "time": 18, "note": 51, "velocity": 108, "channel": 0}, {"type": "note_off", "time": 85, "note": 51, "velocity": 108, "channel": 0}, {"type": "note_on", "time": 23, "note": 58, "velocity": 105, "channel": 0}, {"type": "note_off", "time": 74, "note": 58, "velocity": 105, "channel": 0}, {"type": "note_on", "time": 1, "note": 56, "velocity": 107, "channel": 0}, {"type": "note_off", "time": 67, "note": 56, "velocity": 107, "channel": 0}, {"type": "note_on", "time": 9, "note": 53, "velocity": 107, "channel": 0}, {"type": "note_off", "time": 46, "note": 53, "velocity": 107, "channel": 0}, {"type": "note_on", "time": 29, "note": 51, "velocity": 110, "channel": 0}, {"type": "note_off", "time": 129, "note": 51, "velocity": 110, "channel": 0}, {"type": "note_on", "time": 32, "note": 56, "velocity": 113, "channel": 0}, {"type": "note_off", "time": 63, "note": 56, "velocity": 113, "channel": 0}, {"type": "note_on", "time": 21, "note": 53, "velocity": 106, "channel": 0}, {"type": "note_off", "time": 74, "note": 53, "velocity": 106, "channel": 0}, {"type": "note_on", "time": 38, "note": 46, "velocity": 110, "channel": 0}, {"type": "note_off", "time": 206, "note": 46, "velocity": 110, "channel": 0}, {"type": "note_on", "time": 402, "note": 45, "velocity": 115, "channel": 0}, {"type": "note_off", "time": 105, "note": 45, "velocity": 115, "channel": 0}, {"type": "note_on", "time": 0, "note": 54, "velocity": 107, "channel": 0}, {"type": "note_off", "time": 55, "note": 54, "velocity": 107, "channel": 0}, {"type": "note_on", "time": 16, "note": 57, "velocity": 104, "channel": 0}, {"type": "note_off", "time": 67, "note": 57, "velocity": 104, "channel": 0}, {"type": "note_on", "time": 11, "note": 46, "velocity": 113, "channel": 0}, {"type": "note_off", "time": 149, "note": 46, "velocity": 113, "channel": 0}, {"type": "note_on", "time": 416, "note": 46, "velocity": 110, "channel": 0}, {"type": "note_off", "time": 129, "note": 46, "velocity": 110, "channel": 0}, {"type": "note_on", "time": 49, "note": 57, "velocity": 109, "channel": 0}, {"type": "note_off", "time": 100, "note": 57, "velocity": 109, "channel": 0}, {"type": "note_on", "time": 15, "note": 56, "velocity": 111, "channel": 0}, {"type": "note_off", "time": 77, "note": 56, "velocity": 111, "channel": 0}, {"type": "note_on", "time": 6, "note": 53, "velocity": 112, "channel": 0}, {"type": "note_off", "time": 76, "note": 53, "velocity": 112, "channel": 0}, {"type": "note_on", "time": 11, "note": 56, "velocity": 106, "channel": 0}, {"type": "note_off", "time": 133, "note": 56, "velocity": 106, "channel": 0}, {"type": "note_on", "time": 19, "note": 51, "velocity": 106, "channel": 0}, {"type": "note_off", "time": 58, "note": 51, "velocity": 106, "channel": 0}, {"type": "note_on", "time": 24, "note": 53, "velocity": 115, "channel": 0}, {"type": "note_off", "time": 56, "note": 53, "velocity": 115, "channel": 0}, {"type": "note_on", "time": 27, "note": 55, "velocity": 105, "channel": 0}, {"type": "note_off", "time": 69, "note": 55, "velocity": 105, "channel": 0}, {"type": "note_on", "time": 14, "note": 58, "velocity": 110, "channel": 0}, {"type": "note_off", "time": 64, "note": 58, "velocity": 110, "channel": 0}, {"type": "note_on", "time": 28, "note": 52, "velocity": 112, "channel": 0}, {"type": "note_off", "time": 138, "note": 52, "velocity": 112, "channel": 0}, {"type": "note_on", "time": 465, "note": 52, "velocity": 114, "channel": 0}, {"type": "note_off", "time": 73, "note": 52, "velocity": 114, "channel": 0}, {"type": "note_on", "time": 11, "note": 53, "velocity": 108, "channel": 0}, {"type": "note_off", "time": 128, "note": 53, "velocity": 108, "channel": 0}, {"type": "note_on", "time": 39, "note": 57, "velocity": 108, "channel": 0}, {"type": "note_off", "time": 43, "note": 57, "velocity": 108, "channel": 0}, {"type": "note_on", "time": 4, "note": 55, "velocity": 108, "channel": 0}, {"type": "note_off", "time": 72, "note": 55, "velocity": 108, "channel": 0}, {"type": "note_on", "time": 9, "note": 51, "velocity": 103, "channel": 0}, {"type": "note_off", "time": 93, "note": 51, "velocity": 103, "channel": 0}, {"type": "note_on", "time": 74, "note": 53, "velocity": 116, "channel": 0}, {"type": "note_off", "time": 83, "note": 53, "velocity": 116, "channel": 0}, {"type": "note_on", "time": 17, "note": 50, "velocity": 107, "channel": 0}, {"type": "note_off", "time": 96, "note": 50, "velocity": 107, "channel": 0}, {"type": "note_on", "time": 19, "note": 58, "velocity": 109, "channel": 0}, {"type": "note_off", "time": 96, "note": 58, "velocity": 109, "channel": 0}, {"type": "note_on", "time": 46, "note": 62, "velocity": 109, "channel": 0}, {"type": "note_off", "time": 43, "note": 62, "velocity": 109, "channel": 0}, {"type": "note_on", "time": 22, "note": 67, "velocity": 107, "channel": 0}, {"type": "note_off", "time": 68, "note": 67, "velocity": 107, "channel": 0}, {"type": "note_on", "time": 39, "note": 68, "velocity": 112, "channel": 0}, {"type": "note_off", "time": 67, "note": 68, "velocity": 112, "channel": 0}, {"type": "note_on", "time": 11, "note": 67, "velocity": 117, "channel": 0}, {"type": "note_off", "time": 123, "note": 67, "velocity": 117, "channel": 0}, {"type": "note_on", "time": 4, "note": 68, "velocity": 111, "channel": 0}, {"type": "note_off", "time": 67, "note": 68, "velocity": 111, "channel": 0}, {"type": "note_on", "time": 7, "note": 63, "velocity": 119, "channel": 0}, {"type": "note_off", "time": 98, "note": 63, "velocity": 119, "channel": 0}, {"type": "note_on", "time": 15, "note": 61, "velocity": 106, "channel": 0}, {"type": "note_off", "time": 61, "note": 61, "velocity": 106, "channel": 0}, {"type": "note_on", "time": 47, "note": 58, "velocity": 105, "channel": 0}, {"type": "note_off", "time": 49, "note": 58, "velocity": 105, "channel": 0}, {"type": "note_on", "time": 17, "note": 56, "velocity": 103, "channel": 0}, {"type": "note_off", "time": 63, "note": 56, "velocity": 103, "channel": 0}, {"type": "note_on", "time": 11, "note": 54, "velocity": 106, "channel": 0}, {"type": "note_off", "time": 94, "note": 54, "velocity": 106, "channel": 0}, {"type": "note_on", "time": 209, "note": 61, "velocity": 107, "channel": 0}, {"type": "note_off", "time": 66, "note": 61, "velocity": 107, "channel": 0}, {"type": "note_on", "time": 8, "note": 66, "velocity": 105, "channel": 0}, {"type": "note_off", "time": 89, "note": 66, "velocity": 105, "channel": 0}, {"type": "note_on", "time": 3, "note": 61, "velocity": 107, "channel": 0}, {"type": "note_off", "time": 71, "note": 61, "velocity": 107, "channel": 0}, {"type": "note_on", "time": 19, "note": 59, "velocity": 105, "channel": 0}, {"type": "note_off", "time": 60, "note": 59, "velocity": 105, "channel": 0}, {"type": "note_on", "time": 20, "note": 58, "velocity": 109, "channel": 0}, {"type": "note_off", "time": 82, "note": 58, "velocity": 109, "channel": 0}, {"type": "note_on", "time": 11, "note": 57, "velocity": 106, "channel": 0}, {"type": "note_off", "time": 93, "note": 57, "velocity": 106, "channel": 0}, {"type": "note_on", "time": 702, "note": 68, "velocity": 111, "channel": 0}, {"type": "note_off", "time": 96, "note": 68, "velocity": 111, "channel": 0}, {"type": "note_on", "time": 24, "note": 65, "velocity": 111, "channel": 0}, {"type": "note_off", "time": 65, "note": 65, "velocity": 111, "channel": 0}, {"type": "note_on", "time": 19, "note": 62, "velocity": 106, "channel": 0}, {"type": "note_off", "time": 94, "note": 62, "velocity": 106, "channel": 0}, {"type": "note_on", "time": 106, "note": 71, "velocity": 112, "channel": 0}, {"type": "note_off", "time": 1052, "note": 71, "velocity": 112, "channel": 0}, {"type": "note_on", "time": 21, "note": 69, "velocity": 98, "channel": 0}, {"type": "note_off", "time": 70, "note": 69, "velocity": 98, "channel": 0}, {"type": "note_on", "time": 16, "note": 71, "velocity": 112, "channel": 0}, {"type": "note_off", "time": 190, "note": 71, "velocity": 112, "channel": 0}, {"type": "note_on", "time": 3, "note": 69, "velocity": 104, "channel": 0}, {"type": "note_off", "time": 67, "note": 69, "velocity": 104, "channel": 0}, {"type": "note_on", "time": 30, "note": 71, "velocity": 111, "channel": 0}, {"type": "note_off", "time": 366, "note": 71, "velocity": 111, "channel": 0}, {"type": "note_on", "time": 31, "note": 69, "velocity": 107, "channel": 0}, {"type": "note_off", "time": 65, "note": 69, "velocity": 107, "channel": 0}, {"type": "note_on", "time": 35, "note": 65, "velocity": 108, "channel": 0}, {"type": "note_off", "time": 78, "note": 65, "velocity": 108, "channel": 0}, {"type": "note_on", "time": 27, "note": 62, "velocity": 110, "channel": 0}, {"type": "note_off", "time": 79, "note": 62, "velocity": 110, "channel": 0}, {"type": "note_on", "time": 449, "note": 71, "velocity": 108, "channel": 0}, {"type": "note_off", "time": 282, "note": 71, "velocity": 108, "channel": 0}, {"type": "note_on", "time": 12, "note": 69, "velocity": 102, "channel": 0}, {"type": "note_off", "time": 68, "note": 69, "velocity": 102, "channel": 0}, {"type": "note_on", "time": 16, "note": 65, "velocity": 106, "channel": 0}, {"type": "note_off", "time": 75, "note": 65, "velocity": 106, "channel": 0}, {"type": "note_on", "time": 15, "note": 62, "velocity": 109, "channel": 0}, {"type": "note_off", "time": 81, "note": 62, "velocity": 109, "channel": 0}, {"type": "note_on", "time": 10, "note": 65, "velocity": 104, "channel": 0}, {"type": "note_off", "time": 60, "note": 65, "velocity": 104, "channel": 0}, {"type": "note_on", "time": 14, "note": 69, "velocity": 104, "channel": 0}, {"type": "note_off", "time": 87, "note": 69, "velocity": 104, "channel": 0}, {"type": "note_on", "time": 23, "note": 71, "velocity": 113, "channel": 0}, {"type": "note_off", "time": 92, "note": 71, "velocity": 113, "channel": 0}, {"type": "note_on", "time": 3, "note": 69, "velocity": 110, "channel": 0}, {"type": "note_off", "time": 82, "note": 69, "velocity": 110, "channel": 0}, {"type": "note_on", "time": 37, "note": 65, "velocity": 110, "channel": 0}, {"type": "note_off", "time": 44, "note": 65, "velocity": 110, "channel": 0}, {"type": "note_on", "time": 12, "note": 69, "velocity": 113, "channel": 0}, {"type": "note_off", "time": 100, "note": 69, "velocity": 113, "channel": 0}, {"type": "note_on", "time": 10, "note": 71, "velocity": 116, "channel": 0}, {"type": "note_off", "time": 78, "note": 71, "velocity": 116, "channel": 0}, {"type": "note_on", "time": 12, "note": 69, "velocity": 114, "channel": 0}, {"type": "note_off", "time": 60, "note": 69, "velocity": 114, "channel": 0}, {"type": "note_on", "time": 33, "note": 65, "velocity": 98, "channel": 0}, {"type": "note_off", "time": 59, "note": 65, "velocity": 98, "channel": 0}, {"type": "note_on", "time": 24, "note": 69, "velocity": 114, "channel": 0}, {"type": "note_off", "time": 95, "note": 69, "velocity": 114, "channel": 0}, {"type": "note_on", "time": 22, "note": 71, "velocity": 115, "channel": 0}, {"type": "note_off", "time": 71, "note": 71, "velocity": 115, "channel": 0}, {"type": "note_on", "time": 19, "note": 69, "velocity": 115, "channel": 0}, {"type": "note_off", "time": 90, "note": 69, "velocity": 115, "channel": 0}, {"type": "note_on", "time": 5, "note": 65, "velocity": 111, "channel": 0}, {"type": "note_off", "time": 88, "note": 65, "velocity": 111, "channel": 0}, {"type": "note_on", "time": 0, "note": 62, "velocity": 112, "channel": 0}, {"type": "note_off", "time": 109, "note": 62, "velocity": 112, "channel": 0}, {"type": "note_on", "time": 14, "note": 59, "velocity": 101, "channel": 0}, {"type": "note_off", "time": 65, "note": 59, "velocity": 101, "channel": 0}, {"type": "note_on", "time": 8, "note": 65, "velocity": 107, "channel": 0}, {"type": "note_off", "time": 282, "note": 65, "velocity": 107, "channel": 0}, {"type": "note_on", "time": 101, "note": 65, "velocity": 107, "channel": 0}, {"type": "note_off", "time": 38, "note": 65, "velocity": 107, "channel": 0}, {"type": "note_on", "time": 10, "note": 67, "velocity": 109, "channel": 0}, {"type": "note_off", "time": 101, "note": 67, "velocity": 109, "channel": 0}, {"type": "note_on", "time": 16, "note": 69, "velocity": 107, "channel": 0}, {"type": "note_off", "time": 73, "note": 69, "velocity": 107, "channel": 0}, {"type": "note_on", "time": 39, "note": 71, "velocity": 116, "channel": 0}, {"type": "note_off", "time": 82, "note": 71, "velocity": 116, "channel": 0}, {"type": "note_on", "time": 22, "note": 67, "velocity": 114, "channel": 0}, {"type": "note_off", "time": 77, "note": 67, "velocity": 114, "channel": 0}, {"type": "note_on", "time": 20, "note": 69, "velocity": 110, "channel": 0}, {"type": "note_off", "time": 59, "note": 69, "velocity": 110, "channel": 0}, {"type": "note_on", "time": 9, "note": 67, "velocity": 112, "channel": 0}, {"type": "note_off", "time": 108, "note": 67, "velocity": 112, "channel": 0}, {"type": "note_on", "time": 7, "note": 65, "velocity": 108, "channel": 0}, {"type": "note_off", "time": 147, "note": 65, "velocity": 108, "channel": 0}, {"type": "note_on", "time": 70, "note": 65, "velocity": 110, "channel": 0}, {"type": "note_off", "time": 90, "note": 65, "velocity": 110, "channel": 0}, {"type": "note_on", "time": 0, "note": 62, "velocity": 106, "channel": 0}, {"type": "note_off", "time": 86, "note": 62, "velocity": 106, "channel": 0}, {"type": "note_on", "time": 95, "note": 65, "velocity": 107, "channel": 0}, {"type": "note_off", "time": 112, "note": 65, "velocity": 107, "channel": 0}, {"type": "note_on", "time": 9, "note": 62, "velocity": 111, "channel": 0}, {"type": "note_off", "time": 107, "note": 62, "velocity": 111, "channel": 0}, {"type": "note_on", "time": 566, "note": 67, "velocity": 112, "channel": 0}, {"type": "note_off", "time": 1003, "note": 67, "velocity": 112, "channel": 0}, {"type": "note_on", "time": 41, "note": 65, "velocity": 103, "channel": 0}, {"type": "note_off", "time": 81, "note": 65, "velocity": 103, "channel": 0}, {"type": "note_on", "time": 18, "note": 67, "velocity": 111, "channel": 0}, {"type": "note_off", "time": 116, "note": 67, "velocity": 111, "channel": 0}, {"type": "note_on", "time": 7, "note": 65, "velocity": 106, "channel": 0}, {"type": "note_off", "time": 83, "note": 65, "velocity": 106, "channel": 0}, {"type": "note_on", "time": 83, "note": 67, "velocity": 113, "channel": 0}, {"type": "note_off", "time": 341, "note": 67, "velocity": 113, "channel": 0}, {"type": "note_on", "time": 36, "note": 65, "velocity": 110, "channel": 0}, {"type": "note_off", "time": 94, "note": 65, "velocity": 110, "channel": 0}, {"type": "note_on", "time": 18, "note": 62, "velocity": 95, "channel": 0}, {"type": "note_off", "time": 112, "note": 62, "velocity": 95, "channel": 0}, {"type": "note_on", "time": 43, "note": 57, "velocity": 105, "channel": 0}, {"type": "note_off", "time": 154, "note": 57, "velocity": 105, "channel": 0}, {"type": "note_on", "time": 245, "note": 57, "velocity": 112, "channel": 0}, {"type": "note_off", "time": 100, "note": 57, "velocity": 112, "channel": 0}, {"type": "note_on", "time": 6, "note": 59, "velocity": 112, "channel": 0}, {"type": "note_off", "time": 58, "note": 59, "velocity": 112, "channel": 0}, {"type": "note_on", "time": 12, "note": 62, "velocity": 112, "channel": 0}, {"type": "note_off", "time": 76, "note": 62, "velocity": 112, "channel": 0}, {"type": "note_on", "time": 25, "note": 65, "velocity": 108, "channel": 0}, {"type": "note_off", "time": 76, "note": 65, "velocity": 108, "channel": 0}, {"type": "note_on", "time": 30, "note": 69, "velocity": 108, "channel": 0}, {"type": "note_off", "time": 73, "note": 69, "velocity": 108, "channel": 0}, {"type": "note_on", "time": 28, "note": 71, "velocity": 118, "channel": 0}, {"type": "note_off", "time": 78, "note": 71, "velocity": 118, "channel": 0}, {"type": "note_on", "time": 9, "note": 72, "velocity": 120, "channel": 0}, {"type": "note_off", "time": 378, "note": 72, "velocity": 120, "channel": 0}, {"type": "note_on", "time": 6, "note": 71, "velocity": 117, "channel": 0}, {"type": "note_off", "time": 73, "note": 71, "velocity": 117, "channel": 0}, {"type": "note_on", "time": 10, "note": 72, "velocity": 119, "channel": 0}, {"type": "note_off", "time": 90, "note": 72, "velocity": 119, "channel": 0}, {"type": "note_on", "time": 15, "note": 71, "velocity": 119, "channel": 0}, {"type": "note_off", "time": 83, "note": 71, "velocity": 119, "channel": 0}, {"type": "note_on", "time": 18, "note": 69, "velocity": 115, "channel": 0}, {"type": "note_off", "time": 74, "note": 69, "velocity": 115, "channel": 0}, {"type": "note_on", "time": 14, "note": 65, "velocity": 105, "channel": 0}, {"type": "note_off", "time": 71, "note": 65, "velocity": 105, "channel": 0}, {"type": "note_on", "time": 37, "note": 71, "velocity": 112, "channel": 0}, {"type": "note_off", "time": 54, "note": 71, "velocity": 112, "channel": 0}, {"type": "note_on", "time": 29, "note": 69, "velocity": 112, "channel": 0}, {"type": "note_off", "time": 183, "note": 69, "velocity": 112, "channel": 0}, {"type": "note_on", "time": 12, "note": 65, "velocity": 105, "channel": 0}, {"type": "note_off", "time": 74, "note": 65, "velocity": 105, "channel": 0}, {"type": "note_on", "time": 18, "note": 68, "velocity": 112, "channel": 0}, {"type": "note_off", "time": 81, "note": 68, "velocity": 112, "channel": 0}, {"type": "note_on", "time": 21, "note": 65, "velocity": 109, "channel": 0}, {"type": "note_off", "time": 86, "note": 65, "velocity": 109, "channel": 0}, {"type": "note_on", "time": 9, "note": 62, "velocity": 115, "channel": 0}, {"type": "note_off", "time": 182, "note": 62, "velocity": 115, "channel": 0}, {"type": "note_on", "time": 16, "note": 65, "velocity": 113, "channel": 0}, {"type": "note_off", "time": 56, "note": 65, "velocity": 113, "channel": 0}, {"type": "note_on", "time": 18, "note": 62, "velocity": 114, "channel": 0}, {"type": "note_off", "time": 95, "note": 62, "velocity": 114, "channel": 0}, {"type": "note_on", "time": 16, "note": 59, "velocity": 114, "channel": 0}, {"type": "note_off", "time": 104, "note": 59, "velocity": 114, "channel": 0}, {"type": "note_on", "time": 82, "note": 59, "velocity": 117, "channel": 0}, {"type": "note_off", "time": 58, "note": 59, "velocity": 117, "channel": 0}, {"type": "note_on", "time": 14, "note": 57, "velocity": 113, "channel": 0}, {"type": "note_off", "time": 98, "note": 57, "velocity": 113, "channel": 0}, {"type": "note_on", "time": 274, "note": 51, "velocity": 114, "channel": 0}, {"type": "note_off", "time": 68, "note": 51, "velocity": 114, "channel": 0}, {"type": "note_on", "time": 10, "note": 56, "velocity": 108, "channel": 0}, {"type": "note_off", "time": 50, "note": 56, "velocity": 108, "channel": 0}, {"type": "note_on", "time": 38, "note": 60, "velocity": 116, "channel": 0}, {"type": "note_off", "time": 63, "note": 60, "velocity": 116, "channel": 0}, {"type": "note_on", "time": 22, "note": 44, "velocity": 122, "channel": 0}, {"type": "note_off", "time": 230, "note": 44, "velocity": 122, "channel": 0}, {"type": "note_on", "time": 73, "note": 44, "velocity": 126, "channel": 0}, {"type": "note_off", "time": 64, "note": 44, "velocity": 126, "channel": 0}, {"type": "note_on", "time": 13, "note": 54, "velocity": 118, "channel": 0}, {"type": "note_off", "time": 49, "note": 54, "velocity": 118, "channel": 0}, {"type": "note_on", "time": 16, "note": 58, "velocity": 116, "channel": 0}, {"type": "note_off", "time": 69, "note": 58, "velocity": 116, "channel": 0}, {"type": "note_on", "time": 24, "note": 48, "velocity": 115, "channel": 0}, {"type": "note_off", "time": 107, "note": 48, "velocity": 115, "channel": 0}, {"type": "note_on", "time": 497, "note": 60, "velocity": 115, "channel": 0}, {"type": "note_off", "time": 77, "note": 60, "velocity": 115, "channel": 0}, {"type": "note_on", "time": 14, "note": 65, "velocity": 116, "channel": 0}, {"type": "note_off", "time": 60, "note": 65, "velocity": 116, "channel": 0}, {"type": "note_on", "time": 7, "note": 70, "velocity": 112, "channel": 0}, {"type": "note_off", "time": 76, "note": 70, "velocity": 112, "channel": 0}, {"type": "note_on", "time": 44, "note": 62, "velocity": 111, "channel": 0}, {"type": "note_off", "time": 58, "note": 62, "velocity": 111, "channel": 0}, {"type": "note_on", "time": 13, "note": 68, "velocity": 122, "channel": 0}, {"type": "note_off", "time": 129, "note": 68, "velocity": 122, "channel": 0}, {"type": "note_on", "time": 369, "note": 73, "velocity": 108, "channel": 0}, {"type": "note_off", "time": 645, "note": 73, "velocity": 108, "channel": 0}, {"type": "note_on", "time": 24, "note": 70, "velocity": 109, "channel": 0}, {"type": "note_off", "time": 56, "note": 70, "velocity": 109, "channel": 0}, {"type": "note_on", "time": 10, "note": 73, "velocity": 108, "channel": 0}, {"type": "note_off", "time": 49, "note": 73, "velocity": 108, "channel": 0}, {"type": "note_on", "time": 16, "note": 74, "velocity": 111, "channel": 0}, {"type": "note_off", "time": 59, "note": 74, "velocity": 111, "channel": 0}, {"type": "note_on", "time": 14, "note": 73, "velocity": 112, "channel": 0}, {"type": "note_off", "time": 75, "note": 73, "velocity": 112, "channel": 0}, {"type": "note_on", "time": 19, "note": 72, "velocity": 112, "channel": 0}, {"type": "note_off", "time": 51, "note": 72, "velocity": 112, "channel": 0}, {"type": "note_on", "time": 5, "note": 71, "velocity": 116, "channel": 0}, {"type": "note_off", "time": 52, "note": 71, "velocity": 116, "channel": 0}, {"type": "note_on", "time": 10, "note": 70, "velocity": 117, "channel": 0}, {"type": "note_off", "time": 76, "note": 70, "velocity": 117, "channel": 0}, {"type": "note_on", "time": 10, "note": 69, "velocity": 113, "channel": 0}, {"type": "note_off", "time": 41, "note": 69, "velocity": 113, "channel": 0}, {"type": "note_on", "time": 11, "note": 66, "velocity": 113, "channel": 0}, {"type": "note_off", "time": 54, "note": 66, "velocity": 113, "channel": 0}, {"type": "note_on", "time": 9, "note": 65, "velocity": 113, "channel": 0}, {"type": "note_off", "time": 87, "note": 65, "velocity": 113, "channel": 0}, {"type": "note_on", "time": 12, "note": 63, "velocity": 114, "channel": 0}, {"type": "note_off", "time": 73, "note": 63, "velocity": 114, "channel": 0}, {"type": "note_on", "time": 21, "note": 68, "velocity": 118, "channel": 0}, {"type": "note_off", "time": 49, "note": 68, "velocity": 118, "channel": 0}, {"type": "note_on", "time": 5, "note": 66, "velocity": 115, "channel": 0}, {"type": "note_off", "time": 74, "note": 66, "velocity": 115, "channel": 0}, {"type": "note_on", "time": 14, "note": 63, "velocity": 122, "channel": 0}, {"type": "note_off", "time": 115, "note": 63, "velocity": 122, "channel": 0}, {"type": "note_on", "time": 7, "note": 70, "velocity": 100, "channel": 0}, {"type": "note_off", "time": 65, "note": 70, "velocity": 100, "channel": 0}, {"type": "note_on", "time": 10, "note": 65, "velocity": 116, "channel": 0}, {"type": "note_off", "time": 96, "note": 65, "velocity": 116, "channel": 0}, {"type": "note_on", "time": 11, "note": 60, "velocity": 113, "channel": 0}, {"type": "note_off", "time": 87, "note": 60, "velocity": 113, "channel": 0}, {"type": "note_on", "time": 6, "note": 58, "velocity": 111, "channel": 0}, {"type": "note_off", "time": 81, "note": 58, "velocity": 111, "channel": 0}, {"type": "note_on", "time": 6, "note": 53, "velocity": 115, "channel": 0}, {"type": "note_off", "time": 90, "note": 53, "velocity": 115, "channel": 0}, {"type": "note_on", "time": 12, "note": 51, "velocity": 110, "channel": 0}, {"type": "note_off", "time": 80, "note": 51, "velocity": 110, "channel": 0}, {"type": "note_on", "time": 5, "note": 58, "velocity": 113, "channel": 0}, {"type": "note_off", "time": 75, "note": 58, "velocity": 113, "channel": 0}, {"type": "note_on", "time": 12, "note": 56, "velocity": 105, "channel": 0}, {"type": "note_off", "time": 71, "note": 56, "velocity": 105, "channel": 0}, {"type": "note_on", "time": 22, "note": 53, "velocity": 115, "channel": 0}, {"type": "note_off", "time": 102, "note": 53, "velocity": 115, "channel": 0}, {"type": "note_on", "time": 5, "note": 51, "velocity": 110, "channel": 0}, {"type": "note_off", "time": 81, "note": 51, "velocity": 110, "channel": 0}, {"type": "note_on", "time": 12, "note": 53, "velocity": 111, "channel": 0}, {"type": "note_off", "time": 69, "note": 53, "velocity": 111, "channel": 0}, {"type": "note_on", "time": 12, "note": 51, "velocity": 112, "channel": 0}, {"type": "note_off", "time": 91, "note": 51, "velocity": 112, "channel": 0}, {"type": "note_on", "time": 3, "note": 48, "velocity": 110, "channel": 0}, {"type": "note_off", "time": 117, "note": 48, "velocity": 110, "channel": 0}, {"type": "note_on", "time": 5, "note": 46, "velocity": 110, "channel": 0}, {"type": "note_off", "time": 175, "note": 46, "velocity": 110, "channel": 0}, {"type": "note_on", "time": 5, "note": 48, "velocity": 115, "channel": 0}, {"type": "note_off", "time": 82, "note": 48, "velocity": 115, "channel": 0}, {"type": "note_on", "time": 23, "note": 46, "velocity": 114, "channel": 0}, {"type": "note_off", "time": 141, "note": 46, "velocity": 114, "channel": 0}, {"type": "note_on", "time": 694, "note": 64, "velocity": 119, "channel": 0}, {"type": "note_off", "time": 85, "note": 64, "velocity": 119, "channel": 0}, {"type": "note_on", "time": 9, "note": 65, "velocity": 114, "channel": 0}, {"type": "note_off", "time": 55, "note": 65, "velocity": 114, "channel": 0}, {"type": "note_on", "time": 27, "note": 69, "velocity": 118, "channel": 0}, {"type": "note_off", "time": 80, "note": 69, "velocity": 118, "channel": 0}, {"type": "note_on", "time": 32, "note": 72, "velocity": 121, "channel": 0}, {"type": "note_off", "time": 93, "note": 72, "velocity": 121, "channel": 0}, {"type": "note_on", "time": 18, "note": 71, "velocity": 121, "channel": 0}, {"type": "note_off", "time": 263, "note": 71, "velocity": 121, "channel": 0}, {"type": "note_on", "time": 24, "note": 69, "velocity": 110, "channel": 0}, {"type": "note_off", "time": 78, "note": 69, "velocity": 110, "channel": 0}, {"type": "note_on", "time": 11, "note": 65, "velocity": 112, "channel": 0}, {"type": "note_off", "time": 74, "note": 65, "velocity": 112, "channel": 0}, {"type": "note_on", "time": 10, "note": 62, "velocity": 111, "channel": 0}, {"type": "note_off", "time": 99, "note": 62, "velocity": 111, "channel": 0}, {"type": "note_on", "time": 593, "note": 69, "velocity": 113, "channel": 0}, {"type": "note_off", "time": 78, "note": 69, "velocity": 113, "channel": 0}, {"type": "note_on", "time": 10, "note": 65, "velocity": 110, "channel": 0}, {"type": "note_off", "time": 65, "note": 65, "velocity": 110, "channel": 0}, {"type": "note_on", "time": 15, "note": 62, "velocity": 112, "channel": 0}, {"type": "note_off", "time": 109, "note": 62, "velocity": 112, "channel": 0}, {"type": "note_on", "time": 7, "note": 58, "velocity": 109, "channel": 0}, {"type": "note_off", "time": 64, "note": 58, "velocity": 109, "channel": 0}, {"type": "note_on", "time": 12, "note": 65, "velocity": 110, "channel": 0}, {"type": "note_off", "time": 253, "note": 65, "velocity": 110, "channel": 0}, {"type": "note_on", "time": 55, "note": 61, "velocity": 99, "channel": 0}, {"type": "note_off", "time": 47, "note": 61, "velocity": 99, "channel": 0}, {"type": "note_on", "time": 34, "note": 67, "velocity": 111, "channel": 0}, {"type": "note_off", "time": 85, "note": 67, "velocity": 111, "channel": 0}, {"type": "note_on", "time": 11, "note": 65, "velocity": 111, "channel": 0}, {"type": "note_off", "time": 76, "note": 65, "velocity": 111, "channel": 0}, {"type": "note_on", "time": 14, "note": 67, "velocity": 102, "channel": 0}, {"type": "note_off", "time": 100, "note": 67, "velocity": 102, "channel": 0}, {"type": "note_on", "time": 9, "note": 65, "velocity": 111, "channel": 0}, {"type": "note_off", "time": 61, "note": 65, "velocity": 111, "channel": 0}, {"type": "note_on", "time": 17, "note": 62, "velocity": 112, "channel": 0}, {"type": "note_off", "time": 100, "note": 62, "velocity": 112, "channel": 0}, {"type": "note_on", "time": 5, "note": 65, "velocity": 111, "channel": 0}, {"type": "note_off", "time": 68, "note": 65, "velocity": 111, "channel": 0}, {"type": "note_on", "time": 12, "note": 62, "velocity": 113, "channel": 0}, {"type": "note_off", "time": 105, "note": 62, "velocity": 113, "channel": 0}, {"type": "note_on", "time": 14, "note": 60, "velocity": 111, "channel": 0}, {"type": "note_off", "time": 64, "note": 60, "velocity": 111, "channel": 0}, {"type": "note_on", "time": 9, "note": 59, "velocity": 107, "channel": 0}, {"type": "note_off", "time": 72, "note": 59, "velocity": 107, "channel": 0}, {"type": "note_on", "time": 23, "note": 62, "velocity": 115, "channel": 0}, {"type": "note_off", "time": 76, "note": 62, "velocity": 115, "channel": 0}, {"type": "note_on", "time": 14, "note": 59, "velocity": 107, "channel": 0}, {"type": "note_off", "time": 92, "note": 59, "velocity": 107, "channel": 0}, {"type": "note_on", "time": 20, "note": 57, "velocity": 108, "channel": 0}, {"type": "note_off", "time": 84, "note": 57, "velocity": 108, "channel": 0}, {"type": "note_on", "time": 22, "note": 55, "velocity": 98, "channel": 0}, {"type": "note_off", "time": 81, "note": 55, "velocity": 98, "channel": 0}, {"type": "note_on", "time": 11, "note": 57, "velocity": 101, "channel": 0}, {"type": "note_off", "time": 60, "note": 57, "velocity": 101, "channel": 0}, {"type": "note_on", "time": 21, "note": 59, "velocity": 107, "channel": 0}, {"type": "note_off", "time": 85, "note": 59, "velocity": 107, "channel": 0}, {"type": "note_on", "time": 14, "note": 55, "velocity": 100, "channel": 0}, {"type": "note_off", "time": 49, "note": 55, "velocity": 100, "channel": 0}, {"type": "note_on", "time": 24, "note": 57, "velocity": 110, "channel": 0}, {"type": "note_off", "time": 79, "note": 57, "velocity": 110, "channel": 0}, {"type": "note_on", "time": 18, "note": 53, "velocity": 107, "channel": 0}, {"type": "note_off", "time": 81, "note": 53, "velocity": 107, "channel": 0}, {"type": "note_on", "time": 17, "note": 50, "velocity": 100, "channel": 0}, {"type": "note_off", "time": 123, "note": 50, "velocity": 100, "channel": 0}, {"type": "note_on", "time": 5, "note": 53, "velocity": 106, "channel": 0}, {"type": "note_off", "time": 69, "note": 53, "velocity": 106, "channel": 0}, {"type": "note_on", "time": 5, "note": 50, "velocity": 110, "channel": 0}, {"type": "note_off", "time": 71, "note": 50, "velocity": 110, "channel": 0}, {"type": "note_on", "time": 14, "note": 53, "velocity": 109, "channel": 0}, {"type": "note_off", "time": 52, "note": 53, "velocity": 109, "channel": 0}, {"type": "note_on", "time": 6, "note": 57, "velocity": 116, "channel": 0}, {"type": "note_off", "time": 92, "note": 57, "velocity": 116, "channel": 0}, {"type": "note_on", "time": 13, "note": 47, "velocity": 9, "channel": 0}, {"type": "note_off", "time": 132, "note": 47, "velocity": 9, "channel": 0}, {"type": "note_on", "time": 715, "note": 69, "velocity": 102, "channel": 0}, {"type": "note_off", "time": 309, "note": 69, "velocity": 102, "channel": 0}, {"type": "note_on", "time": 148, "note": 69, "velocity": 111, "channel": 0}, {"type": "note_off", "time": 95, "note": 69, "velocity": 111, "channel": 0}, {"type": "note_on", "time": 69, "note": 71, "velocity": 115, "channel": 0}, {"type": "note_off", "time": 109, "note": 71, "velocity": 115, "channel": 0}, {"type": "note_on", "time": 5, "note": 68, "velocity": 111, "channel": 0}, {"type": "note_off", "time": 89, "note": 68, "velocity": 111, "channel": 0}, {"type": "note_on", "time": 14, "note": 69, "velocity": 107, "channel": 0}, {"type": "note_off", "time": 147, "note": 69, "velocity": 107, "channel": 0}, {"type": "note_on", "time": 22, "note": 71, "velocity": 110, "channel": 0}, {"type": "note_off", "time": 66, "note": 71, "velocity": 110, "channel": 0}, {"type": "note_on", "time": 16, "note": 68, "velocity": 110, "channel": 0}, {"type": "note_off", "time": 89, "note": 68, "velocity": 110, "channel": 0}, {"type": "note_on", "time": 41, "note": 63, "velocity": 113, "channel": 0}, {"type": "note_off", "time": 105, "note": 63, "velocity": 113, "channel": 0}, {"type": "note_on", "time": 281, "note": 63, "velocity": 122, "channel": 0}, {"type": "note_off", "time": 88, "note": 63, "velocity": 122, "channel": 0}, {"type": "note_on", "time": 9, "note": 65, "velocity": 111, "channel": 0}, {"type": "note_off", "time": 59, "note": 65, "velocity": 111, "channel": 0}, {"type": "note_on", "time": 16, "note": 67, "velocity": 108, "channel": 0}, {"type": "note_off", "time": 83, "note": 67, "velocity": 108, "channel": 0}, {"type": "note_on", "time": 20, "note": 69, "velocity": 112, "channel": 0}, {"type": "note_off", "time": 62, "note": 69, "velocity": 112, "channel": 0}, {"type": "note_on", "time": 15, "note": 68, "velocity": 110, "channel": 0}, {"type": "note_off", "time": 106, "note": 68, "velocity": 110, "channel": 0}, {"type": "note_on", "time": 36, "note": 65, "velocity": 102, "channel": 0}, {"type": "note_off", "time": 51, "note": 65, "velocity": 102, "channel": 0}, {"type": "note_on", "time": 18, "note": 69, "velocity": 107, "channel": 0}, {"type": "note_off", "time": 38, "note": 69, "velocity": 107, "channel": 0}, {"type": "note_on", "time": 14, "note": 73, "velocity": 112, "channel": 0}, {"type": "note_off", "time": 177, "note": 73, "velocity": 112, "channel": 0}, {"type": "note_on", "time": 29, "note": 71, "velocity": 110, "channel": 0}, {"type": "note_off", "time": 92, "note": 71, "velocity": 110, "channel": 0}, {"type": "note_on", "time": 18, "note": 69, "velocity": 102, "channel": 0}, {"type": "note_off", "time": 76, "note": 69, "velocity": 102, "channel": 0}, {"type": "note_on", "time": 24, "note": 65, "velocity": 103, "channel": 0}, {"type": "note_off", "time": 59, "note": 65, "velocity": 103, "channel": 0}, {"type": "note_on", "time": 13, "note": 63, "velocity": 111, "channel": 0}, {"type": "note_off", "time": 96, "note": 63, "velocity": 111, "channel": 0}, {"type": "note_on", "time": 7, "note": 61, "velocity": 108, "channel": 0}, {"type": "note_off", "time": 67, "note": 61, "velocity": 108, "channel": 0}, {"type": "note_on", "time": 16, "note": 59, "velocity": 103, "channel": 0}, {"type": "note_off", "time": 108, "note": 59, "velocity": 103, "channel": 0}, {"type": "note_on", "time": 95, "note": 61, "velocity": 111, "channel": 0}, {"type": "note_off", "time": 245, "note": 61, "velocity": 111, "channel": 0}, {"type": "note_on", "time": 160, "note": 63, "velocity": 112, "channel": 0}, {"type": "note_off", "time": 118, "note": 63, "velocity": 112, "channel": 0}, {"type": "note_on", "time": 82, "note": 67, "velocity": 112, "channel": 0}, {"type": "note_off", "time": 80, "note": 67, "velocity": 112, "channel": 0}, {"type": "note_on", "time": 13, "note": 65, "velocity": 111, "channel": 0}, {"type": "note_off", "time": 68, "note": 65, "velocity": 111, "channel": 0}, {"type": "note_on", "time": 13, "note": 63, "velocity": 118, "channel": 0}, {"type": "note_off", "time": 98, "note": 63, "velocity": 118, "channel": 0}, {"type": "note_on", "time": 16, "note": 65, "velocity": 109, "channel": 0}, {"type": "note_off", "time": 62, "note": 65, "velocity": 109, "channel": 0}, {"type": "note_on", "time": 16, "note": 63, "velocity": 118, "channel": 0}, {"type": "note_off", "time": 85, "note": 63, "velocity": 118, "channel": 0}, {"type": "note_on", "time": 20, "note": 61, "velocity": 103, "channel": 0}, {"type": "note_off", "time": 81, "note": 61, "velocity": 103, "channel": 0}, {"type": "note_on", "time": 19, "note": 57, "velocity": 106, "channel": 0}, {"type": "note_off", "time": 85, "note": 57, "velocity": 106, "channel": 0}, {"type": "note_on", "time": 14, "note": 63, "velocity": 115, "channel": 0}, {"type": "note_off", "time": 70, "note": 63, "velocity": 115, "channel": 0}, {"type": "note_on", "time": 9, "note": 59, "velocity": 104, "channel": 0}, {"type": "note_off", "time": 70, "note": 59, "velocity": 104, "channel": 0}, {"type": "note_on", "time": 12, "note": 57, "velocity": 109, "channel": 0}, {"type": "note_off", "time": 87, "note": 57, "velocity": 109, "channel": 0}, {"type": "note_on", "time": 23, "note": 53, "velocity": 111, "channel": 0}, {"type": "note_off", "time": 78, "note": 53, "velocity": 111, "channel": 0}, {"type": "note_on", "time": 9, "note": 57, "velocity": 110, "channel": 0}, {"type": "note_off", "time": 75, "note": 57, "velocity": 110, "channel": 0}, {"type": "note_on", "time": 12, "note": 53, "velocity": 110, "channel": 0}, {"type": "note_off", "time": 90, "note": 53, "velocity": 110, "channel": 0}, {"type": "note_on", "time": 29, "note": 50, "velocity": 105, "channel": 0}, {"type": "note_off", "time": 104, "note": 50, "velocity": 105, "channel": 0}, {"type": "note_on", "time": 935, "note": 67, "velocity": 111, "channel": 0}, {"type": "note_off", "time": 519, "note": 67, "velocity": 111, "channel": 0}, {"type": "note_on", "time": 132, "note": 67, "velocity": 111, "channel": 0}, {"type": "note_off", "time": 99, "note": 67, "velocity": 111, "channel": 0}, {"type": "note_on", "time": 21, "note": 65, "velocity": 106, "channel": 0}, {"type": "note_off", "time": 76, "note": 65, "velocity": 106, "channel": 0}, {"type": "note_on", "time": 49, "note": 67, "velocity": 110, "channel": 0}, {"type": "note_off", "time": 277, "note": 67, "velocity": 110, "channel": 0}, {"type": "note_on", "time": 18, "note": 67, "velocity": 109, "channel": 0}, {"type": "note_off", "time": 486, "note": 67, "velocity": 109, "channel": 0}, {"type": "note_on", "time": 38, "note": 65, "velocity": 112, "channel": 0}, {"type": "note_off", "time": 81, "note": 65, "velocity": 112, "channel": 0}, {"type": "note_on", "time": 23, "note": 62, "velocity": 108, "channel": 0}, {"type": "note_off", "time": 76, "note": 62, "velocity": 108, "channel": 0}, {"type": "note_on", "time": 30, "note": 57, "velocity": 104, "channel": 0}, {"type": "note_off", "time": 134, "note": 57, "velocity": 104, "channel": 0}, {"type": "note_on", "time": 473, "note": 57, "velocity": 116, "channel": 0}, {"type": "note_off", "time": 78, "note": 57, "velocity": 116, "channel": 0}, {"type": "note_on", "time": 21, "note": 59, "velocity": 109, "channel": 0}, {"type": "note_off", "time": 80, "note": 59, "velocity": 109, "channel": 0}, {"type": "note_on", "time": 22, "note": 62, "velocity": 107, "channel": 0}, {"type": "note_off", "time": 61, "note": 62, "velocity": 107, "channel": 0}, {"type": "note_on", "time": 15, "note": 65, "velocity": 106, "channel": 0}, {"type": "note_off", "time": 67, "note": 65, "velocity": 106, "channel": 0}, {"type": "note_on", "time": 49, "note": 69, "velocity": 112, "channel": 0}, {"type": "note_off", "time": 41, "note": 69, "velocity": 112, "channel": 0}, {"type": "note_on", "time": 9, "note": 71, "velocity": 107, "channel": 0}, {"type": "note_off", "time": 69, "note": 71, "velocity": 107, "channel": 0}, {"type": "note_on", "time": 16, "note": 74, "velocity": 114, "channel": 0}, {"type": "note_off", "time": 65, "note": 74, "velocity": 114, "channel": 0}, {"type": "note_on", "time": 26, "note": 79, "velocity": 119, "channel": 0}, {"type": "note_off", "time": 111, "note": 79, "velocity": 119, "channel": 0}, {"type": "note_on", "time": 18, "note": 69, "velocity": 112, "channel": 0}, {"type": "note_off", "time": 1071, "note": 69, "velocity": 112, "channel": 0}, {"type": "note_on", "time": 107, "note": 69, "velocity": 106, "channel": 0}, {"type": "note_off", "time": 125, "note": 69, "velocity": 106, "channel": 0}, {"type": "note_on", "time": 54, "note": 74, "velocity": 106, "channel": 0}, {"type": "note_off", "time": 136, "note": 74, "velocity": 106, "channel": 0}, {"type": "note_on", "time": 7, "note": 72, "velocity": 112, "channel": 0}, {"type": "note_off", "time": 50, "note": 72, "velocity": 112, "channel": 0}, {"type": "note_on", "time": 18, "note": 69, "velocity": 109, "channel": 0}, {"type": "note_off", "time": 108, "note": 69, "velocity": 109, "channel": 0}, {"type": "note_on", "time": 31, "note": 81, "velocity": 103, "channel": 0}, {"type": "note_off", "time": 154, "note": 81, "velocity": 103, "channel": 0}, {"type": "note_on", "time": 38, "note": 81, "velocity": 89, "channel": 0}, {"type": "note_off", "time": 98, "note": 81, "velocity": 89, "channel": 0}, {"type": "note_on", "time": 30, "note": 69, "velocity": 103, "channel": 0}, {"type": "note_off", "time": 134, "note": 69, "velocity": 103, "channel": 0}, {"type": "note_on", "time": 41, "note": 69, "velocity": 103, "channel": 0}, {"type": "note_off", "time": 87, "note": 69, "velocity": 103, "channel": 0}, {"type": "note_on", "time": 7, "note": 74, "velocity": 108, "channel": 0}, {"type": "note_off", "time": 131, "note": 74, "velocity": 108, "channel": 0}, {"type": "note_on", "time": 73, "note": 74, "velocity": 103, "channel": 0}, {"type": "note_off", "time": 55, "note": 74, "velocity": 103, "channel": 0}, {"type": "note_on", "time": 20, "note": 71, "velocity": 109, "channel": 0}, {"type": "note_off", "time": 86, "note": 71, "velocity": 109, "channel": 0}, {"type": "note_on", "time": 25, "note": 74, "velocity": 106, "channel": 0}, {"type": "note_off", "time": 143, "note": 74, "velocity": 106, "channel": 0}, {"type": "note_on", "time": 49, "note": 74, "velocity": 102, "channel": 0}, {"type": "note_off", "time": 86, "note": 74, "velocity": 102, "channel": 0}, {"type": "note_on", "time": 71, "note": 79, "velocity": 118, "channel": 0}, {"type": "note_off", "time": 302, "note": 79, "velocity": 118, "channel": 0}, {"type": "note_on", "time": 61, "note": 69, "velocity": 112, "channel": 0}, {"type": "note_off", "time": 90, "note": 69, "velocity": 112, "channel": 0}, {"type": "note_on", "time": 725, "note": 80, "velocity": 115, "channel": 0}, {"type": "note_off", "time": 216, "note": 80, "velocity": 115, "channel": 0}, {"type": "note_on", "time": 23, "note": 68, "velocity": 105, "channel": 0}, {"type": "note_off", "time": 121, "note": 68, "velocity": 105, "channel": 0}, {"type": "note_on", "time": 129, "note": 70, "velocity": 102, "channel": 0}, {"type": "note_off", "time": 632, "note": 70, "velocity": 102, "channel": 0}, {"type": "note_on", "time": 31, "note": 65, "velocity": 95, "channel": 0}, {"type": "note_off", "time": 30, "note": 65, "velocity": 95, "channel": 0}, {"type": "note_on", "time": 58, "note": 70, "velocity": 100, "channel": 0}, {"type": "note_off", "time": 47, "note": 70, "velocity": 100, "channel": 0}, {"type": "note_on", "time": 32, "note": 83, "velocity": 98, "channel": 0}, {"type": "note_off", "time": 67, "note": 83, "velocity": 98, "channel": 0}, {"type": "note_on", "time": 107, "note": 75, "velocity": 113, "channel": 0}, {"type": "note_off", "time": 90, "note": 75, "velocity": 113, "channel": 0}, {"type": "note_on", "time": 88, "note": 75, "velocity": 89, "channel": 0}, {"type": "note_off", "time": 63, "note": 75, "velocity": 89, "channel": 0}, {"type": "note_on", "time": 34, "note": 72, "velocity": 101, "channel": 0}, {"type": "note_off", "time": 67, "note": 72, "velocity": 101, "channel": 0}, {"type": "note_on", "time": 43, "note": 68, "velocity": 104, "channel": 0}, {"type": "note_off", "time": 123, "note": 68, "velocity": 104, "channel": 0}, {"type": "note_on", "time": 82, "note": 68, "velocity": 100, "channel": 0}, {"type": "note_off", "time": 59, "note": 68, "velocity": 100, "channel": 0}, {"type": "note_on", "time": 22, "note": 66, "velocity": 101, "channel": 0}, {"type": "note_off", "time": 70, "note": 66, "velocity": 101, "channel": 0}, {"type": "note_on", "time": 148, "note": 70, "velocity": 107, "channel": 0}, {"type": "note_off", "time": 40, "note": 70, "velocity": 107, "channel": 0}, {"type": "note_on", "time": 28, "note": 73, "velocity": 103, "channel": 0}, {"type": "note_off", "time": 72, "note": 73, "velocity": 103, "channel": 0}, {"type": "note_on", "time": 43, "note": 73, "velocity": 98, "channel": 0}, {"type": "note_off", "time": 137, "note": 73, "velocity": 98, "channel": 0}, {"type": "note_on", "time": 22, "note": 70, "velocity": 101, "channel": 0}, {"type": "note_off", "time": 98, "note": 70, "velocity": 101, "channel": 0}, {"type": "note_on", "time": 29, "note": 65, "velocity": 107, "channel": 0}, {"type": "note_off", "time": 49, "note": 65, "velocity": 107, "channel": 0}, {"type": "note_on", "time": 22, "note": 63, "velocity": 112, "channel": 0}, {"type": "note_off", "time": 73, "note": 63, "velocity": 112, "channel": 0}, {"type": "note_on", "time": 108, "note": 65, "velocity": 104, "channel": 0}, {"type": "note_off", "time": 81, "note": 65, "velocity": 104, "channel": 0}, {"type": "note_on", "time": 20, "note": 60, "velocity": 104, "channel": 0}, {"type": "note_off", "time": 80, "note": 60, "velocity": 104, "channel": 0}, {"type": "note_on", "time": 17, "note": 56, "velocity": 108, "channel": 0}, {"type": "note_off", "time": 57, "note": 56, "velocity": 108, "channel": 0}, {"type": "note_on", "time": 39, "note": 63, "velocity": 111, "channel": 0}, {"type": "note_off", "time": 88, "note": 63, "velocity": 111, "channel": 0}, {"type": "note_on", "time": 9, "note": 58, "velocity": 108, "channel": 0}, {"type": "note_off", "time": 74, "note": 58, "velocity": 108, "channel": 0}, {"type": "note_on", "time": 17, "note": 53, "velocity": 107, "channel": 0}, {"type": "note_off", "time": 60, "note": 53, "velocity": 107, "channel": 0}, {"type": "note_on", "time": 6, "note": 51, "velocity": 108, "channel": 0}, {"type": "note_off", "time": 84, "note": 51, "velocity": 108, "channel": 0}, {"type": "note_on", "time": 14, "note": 56, "velocity": 107, "channel": 0}, {"type": "note_off", "time": 93, "note": 56, "velocity": 107, "channel": 0}, {"type": "note_on", "time": 15, "note": 53, "velocity": 103, "channel": 0}, {"type": "note_off", "time": 349, "note": 53, "velocity": 103, "channel": 0}, {"type": "note_on", "time": 39, "note": 56, "velocity": 108, "channel": 0}, {"type": "note_off", "time": 56, "note": 56, "velocity": 108, "channel": 0}, {"type": "note_on", "time": 22, "note": 58, "velocity": 101, "channel": 0}, {"type": "note_off", "time": 85, "note": 58, "velocity": 101, "channel": 0}, {"type": "note_on", "time": 612, "note": 70, "velocity": 110, "channel": 0}, {"type": "note_off", "time": 98, "note": 70, "velocity": 110, "channel": 0}, {"type": "note_on", "time": 33, "note": 72, "velocity": 101, "channel": 0}, {"type": "note_off", "time": 78, "note": 72, "velocity": 101, "channel": 0}, {"type": "note_on", "time": 12, "note": 63, "velocity": 93, "channel": 0}, {"type": "note_off", "time": 131, "note": 63, "velocity": 93, "channel": 0}, {"type": "note_on", "time": 47, "note": 65, "velocity": 109, "channel": 0}, {"type": "note_off", "time": 90, "note": 65, "velocity": 109, "channel": 0}, {"type": "note_on", "time": 112, "note": 69, "velocity": 104, "channel": 0}, {"type": "note_off", "time": 82, "note": 69, "velocity": 104, "channel": 0}, {"type": "note_on", "time": 12, "note": 74, "velocity": 107, "channel": 0}, {"type": "note_off", "time": 42, "note": 74, "velocity": 107, "channel": 0}, {"type": "note_on", "time": 11, "note": 71, "velocity": 106, "channel": 0}, {"type": "note_off", "time": 86, "note": 71, "velocity": 106, "channel": 0}, {"type": "note_on", "time": 564, "note": 71, "velocity": 108, "channel": 0}, {"type": "note_off", "time": 319, "note": 71, "velocity": 108, "channel": 0}, {"type": "note_on", "time": 140, "note": 69, "velocity": 97, "channel": 0}, {"type": "note_off", "time": 44, "note": 69, "velocity": 97, "channel": 0}, {"type": "note_on", "time": 9, "note": 71, "velocity": 109, "channel": 0}, {"type": "note_off", "time": 65, "note": 71, "velocity": 109, "channel": 0}, {"type": "note_on", "time": 33, "note": 69, "velocity": 111, "channel": 0}, {"type": "note_off", "time": 46, "note": 69, "velocity": 111, "channel": 0}, {"type": "note_on", "time": 13, "note": 65, "velocity": 110, "channel": 0}, {"type": "note_off", "time": 88, "note": 65, "velocity": 110, "channel": 0}, {"type": "note_on", "time": 22, "note": 69, "velocity": 107, "channel": 0}, {"type": "note_off", "time": 57, "note": 69, "velocity": 107, "channel": 0}, {"type": "note_on", "time": 18, "note": 65, "velocity": 113, "channel": 0}, {"type": "note_off", "time": 273, "note": 65, "velocity": 113, "channel": 0}, {"type": "note_on", "time": 54, "note": 62, "velocity": 109, "channel": 0}, {"type": "note_off", "time": 45, "note": 62, "velocity": 109, "channel": 0}, {"type": "note_on", "time": 23, "note": 67, "velocity": 108, "channel": 0}, {"type": "note_off", "time": 80, "note": 67, "velocity": 108, "channel": 0}, {"type": "note_on", "time": 22, "note": 65, "velocity": 109, "channel": 0}, {"type": "note_off", "time": 63, "note": 65, "velocity": 109, "channel": 0}, {"type": "note_on", "time": 22, "note": 67, "velocity": 106, "channel": 0}, {"type": "note_off", "time": 83, "note": 67, "velocity": 106, "channel": 0}, {"type": "note_on", "time": 36, "note": 65, "velocity": 113, "channel": 0}, {"type": "note_off", "time": 49, "note": 65, "velocity": 113, "channel": 0}, {"type": "note_on", "time": 22, "note": 62, "velocity": 110, "channel": 0}, {"type": "note_off", "time": 97, "note": 62, "velocity": 110, "channel": 0}, {"type": "note_on", "time": 20, "note": 62, "velocity": 113, "channel": 0}, {"type": "note_off", "time": 49, "note": 62, "velocity": 113, "channel": 0}, {"type": "note_on", "time": 18, "note": 59, "velocity": 110, "channel": 0}, {"type": "note_off", "time": 109, "note": 59, "velocity": 110, "channel": 0}, {"type": "note_on", "time": 34, "note": 55, "velocity": 97, "channel": 0}, {"type": "note_off", "time": 42, "note": 55, "velocity": 97, "channel": 0}, {"type": "note_on", "time": 15, "note": 62, "velocity": 114, "channel": 0}, {"type": "note_off", "time": 109, "note": 62, "velocity": 114, "channel": 0}, {"type": "note_on", "time": 190, "note": 71, "velocity": 115, "channel": 0}, {"type": "note_off", "time": 75, "note": 71, "velocity": 115, "channel": 0}, {"type": "note_on", "time": 24, "note": 61, "velocity": 113, "channel": 0}, {"type": "note_off", "time": 138, "note": 61, "velocity": 113, "channel": 0}, {"type": "note_on", "time": 108, "note": 67, "velocity": 111, "channel": 0}, {"type": "note_off", "time": 86, "note": 67, "velocity": 111, "channel": 0}, {"type": "note_on", "time": 18, "note": 63, "velocity": 117, "channel": 0}, {"type": "note_off", "time": 100, "note": 63, "velocity": 117, "channel": 0}, {"type": "note_on", "time": 328, "note": 69, "velocity": 115, "channel": 0}, {"type": "note_off", "time": 76, "note": 69, "velocity": 115, "channel": 0}, {"type": "note_on", "time": 29, "note": 63, "velocity": 109, "channel": 0}, {"type": "note_off", "time": 48, "note": 63, "velocity": 109, "channel": 0}, {"type": "note_on", "time": 17, "note": 59, "velocity": 107, "channel": 0}, {"type": "note_off", "time": 90, "note": 59, "velocity": 107, "channel": 0}, {"type": "note_on", "time": 19, "note": 57, "velocity": 110, "channel": 0}, {"type": "note_off", "time": 75, "note": 57, "velocity": 110, "channel": 0}, {"type": "note_on", "time": 4, "note": 53, "velocity": 114, "channel": 0}, {"type": "note_off", "time": 53, "note": 53, "velocity": 114, "channel": 0}, {"type": "note_on", "time": 138, "note": 57, "velocity": 108, "channel": 0}, {"type": "note_off", "time": 94, "note": 57, "velocity": 108, "channel": 0}, {"type": "note_on", "time": 11, "note": 59, "velocity": 109, "channel": 0}, {"type": "note_off", "time": 78, "note": 59, "velocity": 109, "channel": 0}, {"type": "note_on", "time": 4, "note": 52, "velocity": 112, "channel": 0}, {"type": "note_off", "time": 148, "note": 52, "velocity": 112, "channel": 0}, {"type": "note_on", "time": 59, "note": 55, "velocity": 111, "channel": 0}, {"type": "note_off", "time": 79, "note": 55, "velocity": 111, "channel": 0}, {"type": "note_on", "time": 19, "note": 59, "velocity": 111, "channel": 0}, {"type": "note_off", "time": 83, "note": 59, "velocity": 111, "channel": 0}, {"type": "note_on", "time": 39, "note": 50, "velocity": 113, "channel": 0}, {"type": "note_off", "time": 59, "note": 50, "velocity": 113, "channel": 0}, {"type": "note_on", "time": 17, "note": 53, "velocity": 112, "channel": 0}, {"type": "note_off", "time": 66, "note": 53, "velocity": 112, "channel": 0}, {"type": "note_on", "time": 8, "note": 57, "velocity": 118, "channel": 0}, {"type": "note_off", "time": 47, "note": 57, "velocity": 118, "channel": 0}, {"type": "note_on", "time": 8, "note": 53, "velocity": 110, "channel": 0}, {"type": "note_off", "time": 37, "note": 53, "velocity": 110, "channel": 0}, {"type": "note_on", "time": 0, "note": 47, "velocity": 105, "channel": 0}, {"type": "note_off", "time": 87, "note": 47, "velocity": 105, "channel": 0}, {"type": "note_on", "time": 542, "note": 59, "velocity": 111, "channel": 0}, {"type": "note_off", "time": 51, "note": 59, "velocity": 111, "channel": 0}, {"type": "note_on", "time": 30, "note": 50, "velocity": 112, "channel": 0}, {"type": "note_off", "time": 76, "note": 50, "velocity": 112, "channel": 0}, {"type": "note_on", "time": 4, "note": 57, "velocity": 105, "channel": 0}, {"type": "note_off", "time": 59, "note": 57, "velocity": 105, "channel": 0}, {"type": "note_on", "time": 11, "note": 47, "velocity": 110, "channel": 0}, {"type": "note_off", "time": 157, "note": 47, "velocity": 110, "channel": 0}, {"type": "note_on", "time": 127, "note": 59, "velocity": 113, "channel": 0}, {"type": "note_off", "time": 78, "note": 59, "velocity": 113, "channel": 0}, {"type": "note_on", "time": 28, "note": 54, "velocity": 115, "channel": 0}, {"type": "note_off", "time": 72, "note": 54, "velocity": 115, "channel": 0}, {"type": "note_on", "time": 24, "note": 57, "velocity": 123, "channel": 0}, {"type": "note_off", "time": 71, "note": 57, "velocity": 123, "channel": 0}, {"type": "note_on", "time": 23, "note": 48, "velocity": 116, "channel": 0}, {"type": "note_off", "time": 101, "note": 48, "velocity": 116, "channel": 0}, {"type": "note_on", "time": 214, "note": 48, "velocity": 117, "channel": 0}, {"type": "note_off", "time": 79, "note": 48, "velocity": 117, "channel": 0}, {"type": "note_on", "time": 9, "note": 53, "velocity": 112, "channel": 0}, {"type": "note_off", "time": 56, "note": 53, "velocity": 112, "channel": 0}, {"type": "note_on", "time": 14, "note": 57, "velocity": 114, "channel": 0}, {"type": "note_off", "time": 94, "note": 57, "velocity": 114, "channel": 0}, {"type": "note_on", "time": 17, "note": 50, "velocity": 108, "channel": 0}, {"type": "note_off", "time": 127, "note": 50, "velocity": 108, "channel": 0}, {"type": "note_on", "time": 271, "note": 50, "velocity": 119, "channel": 0}, {"type": "note_off", "time": 49, "note": 50, "velocity": 119, "channel": 0}, {"type": "note_on", "time": 26, "note": 53, "velocity": 113, "channel": 0}, {"type": "note_off", "time": 54, "note": 53, "velocity": 113, "channel": 0}, {"type": "note_on", "time": 9, "note": 57, "velocity": 116, "channel": 0}, {"type": "note_off", "time": 90, "note": 57, "velocity": 116, "channel": 0}, {"type": "note_on", "time": 23, "note": 59, "velocity": 114, "channel": 0}, {"type": "note_off", "time": 84, "note": 59, "velocity": 114, "channel": 0}, {"type": "note_on", "time": 11, "note": 52, "velocity": 113, "channel": 0}, {"type": "note_off", "time": 120, "note": 52, "velocity": 113, "channel": 0}, {"type": "note_on", "time": 266, "note": 52, "velocity": 120, "channel": 0}, {"type": "note_off", "time": 89, "note": 52, "velocity": 120, "channel": 0}, {"type": "note_on", "time": 3, "note": 53, "velocity": 112, "channel": 0}, {"type": "note_off", "time": 59, "note": 53, "velocity": 112, "channel": 0}, {"type": "note_on", "time": 13, "note": 55, "velocity": 108, "channel": 0}, {"type": "note_off", "time": 103, "note": 55, "velocity": 108, "channel": 0}, {"type": "note_on", "time": 12, "note": 57, "velocity": 115, "channel": 0}, {"type": "note_off", "time": 88, "note": 57, "velocity": 115, "channel": 0}, {"type": "note_on", "time": 14, "note": 53, "velocity": 114, "channel": 0}, {"type": "note_off", "time": 89, "note": 53, "velocity": 114, "channel": 0}, {"type": "note_on", "time": 1, "note": 55, "velocity": 110, "channel": 0}, {"type": "note_off", "time": 68, "note": 55, "velocity": 110, "channel": 0}, {"type": "note_on", "time": 13, "note": 57, "velocity": 108, "channel": 0}, {"type": "note_off", "time": 98, "note": 57, "velocity": 108, "channel": 0}, {"type": "note_on", "time": 18, "note": 59, "velocity": 109, "channel": 0}, {"type": "note_off", "time": 79, "note": 59, "velocity": 109, "channel": 0}, {"type": "note_on", "time": 20, "note": 61, "velocity": 114, "channel": 0}, {"type": "note_off", "time": 106, "note": 61, "velocity": 114, "channel": 0}, {"type": "note_on", "time": 5, "note": 62, "velocity": 116, "channel": 0}, {"type": "note_off", "time": 49, "note": 62, "velocity": 116, "channel": 0}, {"type": "note_on", "time": 3, "note": 64, "velocity": 121, "channel": 0}, {"type": "note_off", "time": 83, "note": 64, "velocity": 121, "channel": 0}, {"type": "note_on", "time": 15, "note": 65, "velocity": 115, "channel": 0}, {"type": "note_off", "time": 77, "note": 65, "velocity": 115, "channel": 0}, {"type": "note_on", "time": 5, "note": 62, "velocity": 117, "channel": 0}, {"type": "note_off", "time": 83, "note": 62, "velocity": 117, "channel": 0}, {"type": "note_on", "time": 24, "note": 64, "velocity": 121, "channel": 0}, {"type": "note_off", "time": 68, "note": 64, "velocity": 121, "channel": 0}, {"type": "note_on", "time": 6, "note": 65, "velocity": 93, "channel": 0}, {"type": "note_off", "time": 117, "note": 65, "velocity": 93, "channel": 0}, {"type": "note_on", "time": 19, "note": 67, "velocity": 118, "channel": 0}, {"type": "note_off", "time": 78, "note": 67, "velocity": 118, "channel": 0}, {"type": "note_on", "time": 15, "note": 69, "velocity": 120, "channel": 0}, {"type": "note_off", "time": 78, "note": 69, "velocity": 120, "channel": 0}, {"type": "note_on", "time": 9, "note": 65, "velocity": 113, "channel": 0}, {"type": "note_off", "time": 73, "note": 65, "velocity": 113, "channel": 0}, {"type": "note_on", "time": 10, "note": 62, "velocity": 113, "channel": 0}, {"type": "note_off", "time": 103, "note": 62, "velocity": 113, "channel": 0}, {"type": "note_on", "time": 14, "note": 58, "velocity": 106, "channel": 0}, {"type": "note_off", "time": 74, "note": 58, "velocity": 106, "channel": 0}, {"type": "note_on", "time": 14, "note": 65, "velocity": 110, "channel": 0}, {"type": "note_off", "time": 182, "note": 65, "velocity": 110, "channel": 0}, {"type": "note_on", "time": 43, "note": 67, "velocity": 108, "channel": 0}, {"type": "note_off", "time": 79, "note": 67, "velocity": 108, "channel": 0}, {"type": "note_on", "time": 13, "note": 65, "velocity": 107, "channel": 0}, {"type": "note_off", "time": 63, "note": 65, "velocity": 107, "channel": 0}, {"type": "note_on", "time": 22, "note": 62, "velocity": 112, "channel": 0}, {"type": "note_off", "time": 84, "note": 62, "velocity": 112, "channel": 0}, {"type": "note_on", "time": 19, "note": 65, "velocity": 112, "channel": 0}, {"type": "note_off", "time": 56, "note": 65, "velocity": 112, "channel": 0}, {"type": "note_on", "time": 16, "note": 62, "velocity": 112, "channel": 0}, {"type": "note_off", "time": 94, "note": 62, "velocity": 112, "channel": 0}, {"type": "note_on", "time": 10, "note": 60, "velocity": 112, "channel": 0}, {"type": "note_off", "time": 87, "note": 60, "velocity": 112, "channel": 0}, {"type": "note_on", "time": 9, "note": 59, "velocity": 110, "channel": 0}, {"type": "note_off", "time": 93, "note": 59, "velocity": 110, "channel": 0}, {"type": "note_on", "time": 19, "note": 62, "velocity": 111, "channel": 0}, {"type": "note_off", "time": 55, "note": 62, "velocity": 111, "channel": 0}, {"type": "note_on", "time": 2, "note": 59, "velocity": 109, "channel": 0}, {"type": "note_off", "time": 101, "note": 59, "velocity": 109, "channel": 0}, {"type": "note_on", "time": 5, "note": 57, "velocity": 110, "channel": 0}, {"type": "note_off", "time": 53, "note": 57, "velocity": 110, "channel": 0}, {"type": "note_on", "time": 129, "note": 57, "velocity": 107, "channel": 0}, {"type": "note_off", "time": 56, "note": 57, "velocity": 107, "channel": 0}, {"type": "note_on", "time": 6, "note": 53, "velocity": 103, "channel": 0}, {"type": "note_off", "time": 85, "note": 53, "velocity": 103, "channel": 0}, {"type": "note_on", "time": 68, "note": 53, "velocity": 115, "channel": 0}, {"type": "note_off", "time": 69, "note": 53, "velocity": 115, "channel": 0}, {"type": "note_on", "time": 11, "note": 57, "velocity": 109, "channel": 0}, {"type": "note_off", "time": 57, "note": 57, "velocity": 109, "channel": 0}, {"type": "note_on", "time": 7, "note": 59, "velocity": 105, "channel": 0}, {"type": "note_off", "time": 56, "note": 59, "velocity": 105, "channel": 0}, {"type": "note_on", "time": 618, "note": 59, "velocity": 111, "channel": 0}, {"type": "note_off", "time": 68, "note": 59, "velocity": 111, "channel": 0}, {"type": "note_on", "time": 10, "note": 62, "velocity": 112, "channel": 0}, {"type": "note_off", "time": 74, "note": 62, "velocity": 112, "channel": 0}, {"type": "note_on", "time": 18, "note": 65, "velocity": 103, "channel": 0}, {"type": "note_off", "time": 73, "note": 65, "velocity": 103, "channel": 0}, {"type": "note_on", "time": 82, "note": 72, "velocity": 112, "channel": 0}, {"type": "note_off", "time": 185, "note": 72, "velocity": 112, "channel": 0}, {"type": "note_on", "time": 7, "note": 69, "velocity": 111, "channel": 0}, {"type": "note_off", "time": 69, "note": 69, "velocity": 111, "channel": 0}, {"type": "note_on", "time": 40, "note": 72, "velocity": 111, "channel": 0}, {"type": "note_off", "time": 86, "note": 72, "velocity": 111, "channel": 0}, {"type": "note_on", "time": 15, "note": 69, "velocity": 109, "channel": 0}, {"type": "note_off", "time": 174, "note": 69, "velocity": 109, "channel": 0}, {"type": "note_on", "time": 11, "note": 72, "velocity": 105, "channel": 0}, {"type": "note_off", "time": 143, "note": 72, "velocity": 105, "channel": 0}, {"type": "note_on", "time": 38, "note": 69, "velocity": 110, "channel": 0}, {"type": "note_off", "time": 175, "note": 69, "velocity": 110, "channel": 0}, {"type": "note_on", "time": 10, "note": 72, "velocity": 109, "channel": 0}, {"type": "note_off", "time": 178, "note": 72, "velocity": 109, "channel": 0}, {"type": "note_on", "time": 20, "note": 69, "velocity": 116, "channel": 0}, {"type": "note_off", "time": 183, "note": 69, "velocity": 116, "channel": 0}, {"type": "note_on", "time": 3, "note": 72, "velocity": 113, "channel": 0}, {"type": "note_off", "time": 182, "note": 72, "velocity": 113, "channel": 0}, {"type": "note_on", "time": 11, "note": 69, "velocity": 109, "channel": 0}, {"type": "note_off", "time": 96, "note": 69, "velocity": 109, "channel": 0}, {"type": "note_on", "time": 134, "note": 81, "velocity": 95, "channel": 0}, {"type": "note_off", "time": 228, "note": 81, "velocity": 95, "channel": 0}, {"type": "note_on", "time": 309, "note": 72, "velocity": 101, "channel": 0}, {"type": "note_off", "time": 122, "note": 72, "velocity": 101, "channel": 0}, {"type": "note_on", "time": 25, "note": 69, "velocity": 99, "channel": 0}, {"type": "note_off", "time": 114, "note": 69, "velocity": 99, "channel": 0}, {"type": "note_on", "time": 12, "note": 72, "velocity": 114, "channel": 0}, {"type": "note_off", "time": 98, "note": 72, "velocity": 114, "channel": 0}, {"type": "note_on", "time": 9, "note": 69, "velocity": 110, "channel": 0}, {"type": "note_off", "time": 169, "note": 69, "velocity": 110, "channel": 0}, {"type": "note_on", "time": 20, "note": 72, "velocity": 120, "channel": 0}, {"type": "note_off", "time": 68, "note": 72, "velocity": 120, "channel": 0}, {"type": "note_on", "time": 18, "note": 72, "velocity": 115, "channel": 0}, {"type": "note_off", "time": 91, "note": 72, "velocity": 115, "channel": 0}, {"type": "note_on", "time": 27, "note": 69, "velocity": 120, "channel": 0}, {"type": "note_off", "time": 157, "note": 69, "velocity": 120, "channel": 0}, {"type": "note_on", "time": 12, "note": 72, "velocity": 122, "channel": 0}, {"type": "note_off", "time": 67, "note": 72, "velocity": 122, "channel": 0}, {"type": "note_on", "time": 16, "note": 72, "velocity": 116, "channel": 0}, {"type": "note_off", "time": 95, "note": 72, "velocity": 116, "channel": 0}, {"type": "note_on", "time": 21, "note": 69, "velocity": 116, "channel": 0}, {"type": "note_off", "time": 144, "note": 69, "velocity": 116, "channel": 0}, {"type": "note_on", "time": 27, "note": 72, "velocity": 118, "channel": 0}, {"type": "note_off", "time": 91, "note": 72, "velocity": 118, "channel": 0}, {"type": "note_on", "time": 12, "note": 65, "velocity": 111, "channel": 0}, {"type": "note_off", "time": 51, "note": 65, "velocity": 111, "channel": 0}, {"type": "note_on", "time": 30, "note": 69, "velocity": 112, "channel": 0}, {"type": "note_off", "time": 197, "note": 69, "velocity": 112, "channel": 0}, {"type": "note_on", "time": 5, "note": 72, "velocity": 112, "channel": 0}, {"type": "note_off", "time": 51, "note": 72, "velocity": 112, "channel": 0}, {"type": "note_on", "time": 21, "note": 72, "velocity": 107, "channel": 0}, {"type": "note_off", "time": 127, "note": 72, "velocity": 107, "channel": 0}, {"type": "note_on", "time": 351, "note": 72, "velocity": 118, "channel": 0}, {"type": "note_off", "time": 59, "note": 72, "velocity": 118, "channel": 0}, {"type": "note_on", "time": 9, "note": 72, "velocity": 108, "channel": 0}, {"type": "note_off", "time": 73, "note": 72, "velocity": 108, "channel": 0}, {"type": "note_on", "time": 12, "note": 69, "velocity": 109, "channel": 0}, {"type": "note_off", "time": 96, "note": 69, "velocity": 109, "channel": 0}, {"type": "note_on", "time": 19, "note": 72, "velocity": 109, "channel": 0}, {"type": "note_off", "time": 55, "note": 72, "velocity": 109, "channel": 0}, {"type": "note_on", "time": 12, "note": 63, "velocity": 108, "channel": 0}, {"type": "note_off", "time": 90, "note": 63, "velocity": 108, "channel": 0}, {"type": "note_on", "time": 44, "note": 68, "velocity": 106, "channel": 0}, {"type": "note_off", "time": 58, "note": 68, "velocity": 106, "channel": 0}, {"type": "note_on", "time": 20, "note": 72, "velocity": 104, "channel": 0}, {"type": "note_off", "time": 89, "note": 72, "velocity": 104, "channel": 0}, {"type": "note_on", "time": 42, "note": 60, "velocity": 115, "channel": 0}, {"type": "note_off", "time": 194, "note": 60, "velocity": 115, "channel": 0}, {"type": "note_on", "time": 312, "note": 61, "velocity": 113, "channel": 0}, {"type": "note_off", "time": 85, "note": 61, "velocity": 113, "channel": 0}, {"type": "note_on", "time": 19, "note": 66, "velocity": 110, "channel": 0}, {"type": "note_off", "time": 48, "note": 66, "velocity": 110, "channel": 0}, {"type": "note_on", "time": 29, "note": 70, "velocity": 107, "channel": 0}, {"type": "note_off", "time": 53, "note": 70, "velocity": 107, "channel": 0}, {"type": "note_on", "time": 26, "note": 73, "velocity": 110, "channel": 0}, {"type": "note_off", "time": 98, "note": 73, "velocity": 110, "channel": 0}, {"type": "note_on", "time": 475, "note": 73, "velocity": 106, "channel": 0}, {"type": "note_off", "time": 96, "note": 73, "velocity": 106, "channel": 0}, {"type": "note_on", "time": 14, "note": 72, "velocity": 110, "channel": 0}, {"type": "note_off", "time": 22, "note": 72, "velocity": 110, "channel": 0}, {"type": "note_on", "time": 9, "note": 71, "velocity": 113, "channel": 0}, {"type": "note_off", "time": 41, "note": 71, "velocity": 113, "channel": 0}, {"type": "note_on", "time": 14, "note": 70, "velocity": 117, "channel": 0}, {"type": "note_off", "time": 203, "note": 70, "velocity": 117, "channel": 0}, {"type": "note_on", "time": 405, "note": 73, "velocity": 111, "channel": 0}, {"type": "note_off", "time": 104, "note": 73, "velocity": 111, "channel": 0}, {"type": "note_on", "time": 7, "note": 71, "velocity": 110, "channel": 0}, {"type": "note_off", "time": 66, "note": 71, "velocity": 110, "channel": 0}, {"type": "note_on", "time": 8, "note": 69, "velocity": 104, "channel": 0}, {"type": "note_off", "time": 68, "note": 69, "velocity": 104, "channel": 0}, {"type": "note_on", "time": 4, "note": 68, "velocity": 107, "channel": 0}, {"type": "note_off", "time": 92, "note": 68, "velocity": 107, "channel": 0}, {"type": "note_on", "time": 14, "note": 67, "velocity": 107, "channel": 0}, {"type": "note_off", "time": 75, "note": 67, "velocity": 107, "channel": 0}, {"type": "note_on", "time": 36, "note": 71, "velocity": 109, "channel": 0}, {"type": "note_off", "time": 78, "note": 71, "velocity": 109, "channel": 0}, {"type": "note_on", "time": 19, "note": 64, "velocity": 111, "channel": 0}, {"type": "note_off", "time": 92, "note": 64, "velocity": 111, "channel": 0}, {"type": "note_on", "time": 10, "note": 67, "velocity": 107, "channel": 0}, {"type": "note_off", "time": 57, "note": 67, "velocity": 107, "channel": 0}, {"type": "note_on", "time": 12, "note": 71, "velocity": 113, "channel": 0}, {"type": "note_off", "time": 98, "note": 71, "velocity": 113, "channel": 0}, {"type": "note_on", "time": 9, "note": 69, "velocity": 109, "channel": 0}, {"type": "note_off", "time": 60, "note": 69, "velocity": 109, "channel": 0}, {"type": "note_on", "time": 9, "note": 66, "velocity": 108, "channel": 0}, {"type": "note_off", "time": 88, "note": 66, "velocity": 108, "channel": 0}, {"type": "note_on", "time": 16, "note": 71, "velocity": 109, "channel": 0}, {"type": "note_off", "time": 87, "note": 71, "velocity": 109, "channel": 0}, {"type": "note_on", "time": 8, "note": 70, "velocity": 108, "channel": 0}, {"type": "note_off", "time": 319, "note": 70, "velocity": 108, "channel": 0}, {"type": "note_on", "time": 27, "note": 66, "velocity": 105, "channel": 0}, {"type": "note_off", "time": 61, "note": 66, "velocity": 105, "channel": 0}, {"type": "note_on", "time": 10, "note": 65, "velocity": 105, "channel": 0}, {"type": "note_off", "time": 93, "note": 65, "velocity": 105, "channel": 0}, {"type": "note_on", "time": 13, "note": 63, "velocity": 109, "channel": 0}, {"type": "note_off", "time": 71, "note": 63, "velocity": 109, "channel": 0}, {"type": "note_on", "time": 23, "note": 68, "velocity": 113, "channel": 0}, {"type": "note_off", "time": 74, "note": 68, "velocity": 113, "channel": 0}, {"type": "note_on", "time": 10, "note": 66, "velocity": 107, "channel": 0}, {"type": "note_off", "time": 71, "note": 66, "velocity": 107, "channel": 0}, {"type": "note_on", "time": 12, "note": 63, "velocity": 111, "channel": 0}, {"type": "note_off", "time": 112, "note": 63, "velocity": 111, "channel": 0}, {"type": "note_on", "time": 10, "note": 70, "velocity": 95, "channel": 0}, {"type": "note_off", "time": 51, "note": 70, "velocity": 95, "channel": 0}, {"type": "note_on", "time": 26, "note": 65, "velocity": 109, "channel": 0}, {"type": "note_off", "time": 71, "note": 65, "velocity": 109, "channel": 0}, {"type": "note_on", "time": 25, "note": 60, "velocity": 107, "channel": 0}, {"type": "note_off", "time": 77, "note": 60, "velocity": 107, "channel": 0}, {"type": "note_on", "time": 3, "note": 58, "velocity": 107, "channel": 0}, {"type": "note_off", "time": 66, "note": 58, "velocity": 107, "channel": 0}, {"type": "note_on", "time": 20, "note": 53, "velocity": 107, "channel": 0}, {"type": "note_off", "time": 72, "note": 53, "velocity": 107, "channel": 0}, {"type": "note_on", "time": 4, "note": 51, "velocity": 108, "channel": 0}, {"type": "note_off", "time": 90, "note": 51, "velocity": 108, "channel": 0}, {"type": "note_on", "time": 8, "note": 58, "velocity": 105, "channel": 0}, {"type": "note_off", "time": 71, "note": 58, "velocity": 105, "channel": 0}, {"type": "note_on", "time": 16, "note": 56, "velocity": 101, "channel": 0}, {"type": "note_off", "time": 96, "note": 56, "velocity": 101, "channel": 0}, {"type": "note_on", "time": 22, "note": 53, "velocity": 108, "channel": 0}, {"type": "note_off", "time": 80, "note": 53, "velocity": 108, "channel": 0}, {"type": "note_on", "time": 9, "note": 51, "velocity": 105, "channel": 0}, {"type": "note_off", "time": 67, "note": 51, "velocity": 105, "channel": 0}, {"type": "note_on", "time": 10, "note": 53, "velocity": 105, "channel": 0}, {"type": "note_off", "time": 90, "note": 53, "velocity": 105, "channel": 0}, {"type": "note_on", "time": 5, "note": 51, "velocity": 106, "channel": 0}, {"type": "note_off", "time": 93, "note": 51, "velocity": 106, "channel": 0}, {"type": "note_on", "time": 18, "note": 46, "velocity": 109, "channel": 0}, {"type": "note_off", "time": 137, "note": 46, "velocity": 109, "channel": 0}, {"type": "note_on", "time": 39, "note": 46, "velocity": 115, "channel": 0}, {"type": "note_off", "time": 127, "note": 46, "velocity": 115, "channel": 0}, {"type": "note_on", "time": 7, "note": 44, "velocity": 114, "channel": 0}, {"type": "note_off", "time": 172, "note": 44, "velocity": 114, "channel": 0}, {"type": "note_on", "time": 398, "note": 45, "velocity": 124, "channel": 0}, {"type": "note_off", "time": 118, "note": 45, "velocity": 124, "channel": 0}, {"type": "note_on", "time": 21, "note": 46, "velocity": 110, "channel": 0}, {"type": "note_off", "time": 404, "note": 46, "velocity": 110, "channel": 0}, {"type": "note_on", "time": 13, "note": 47, "velocity": 103, "channel": 0}, {"type": "note_off", "time": 90, "note": 47, "velocity": 103, "channel": 0}, {"type": "note_on", "time": 46, "note": 54, "velocity": 109, "channel": 0}, {"type": "note_off", "time": 56, "note": 54, "velocity": 109, "channel": 0}, {"type": "note_on", "time": 5, "note": 50, "velocity": 108, "channel": 0}, {"type": "note_off", "time": 130, "note": 50, "velocity": 108, "channel": 0}, {"type": "note_on", "time": 462, "note": 50, "velocity": 113, "channel": 0}, {"type": "note_off", "time": 80, "note": 50, "velocity": 113, "channel": 0}, {"type": "note_on", "time": 12, "note": 54, "velocity": 110, "channel": 0}, {"type": "note_off", "time": 99, "note": 54, "velocity": 110, "channel": 0}, {"type": "note_on", "time": 18, "note": 57, "velocity": 111, "channel": 0}, {"type": "note_off", "time": 82, "note": 57, "velocity": 111, "channel": 0}, {"type": "note_on", "time": 16, "note": 53, "velocity": 110, "channel": 0}, {"type": "note_off", "time": 56, "note": 53, "velocity": 110, "channel": 0}, {"type": "note_on", "time": 14, "note": 51, "velocity": 104, "channel": 0}, {"type": "note_off", "time": 63, "note": 51, "velocity": 104, "channel": 0}, {"type": "note_on", "time": 47, "note": 55, "velocity": 107, "channel": 0}, {"type": "note_off", "time": 58, "note": 55, "velocity": 107, "channel": 0}, {"type": "note_on", "time": 10, "note": 53, "velocity": 108, "channel": 0}, {"type": "note_off", "time": 60, "note": 53, "velocity": 108, "channel": 0}, {"type": "note_on", "time": 321, "note": 53, "velocity": 117, "channel": 0}, {"type": "note_off", "time": 65, "note": 53, "velocity": 117, "channel": 0}, {"type": "note_on", "time": 9, "note": 52, "velocity": 111, "channel": 0}, {"type": "note_off", "time": 71, "note": 52, "velocity": 111, "channel": 0}, {"type": "note_on", "time": 14, "note": 51, "velocity": 103, "channel": 0}, {"type": "note_off", "time": 83, "note": 51, "velocity": 103, "channel": 0}, {"type": "note_on", "time": 20, "note": 55, "velocity": 105, "channel": 0}, {"type": "note_off", "time": 78, "note": 55, "velocity": 105, "channel": 0}, {"type": "note_on", "time": 16, "note": 50, "velocity": 108, "channel": 0}, {"type": "note_off", "time": 75, "note": 50, "velocity": 108, "channel": 0}, {"type": "note_on", "time": 9, "note": 53, "velocity": 105, "channel": 0}, {"type": "note_off", "time": 46, "note": 53, "velocity": 105, "channel": 0}, {"type": "note_on", "time": 71, "note": 58, "velocity": 108, "channel": 0}, {"type": "note_off", "time": 91, "note": 58, "velocity": 108, "channel": 0}, {"type": "note_on", "time": 18, "note": 53, "velocity": 109, "channel": 0}, {"type": "note_off", "time": 51, "note": 53, "velocity": 109, "channel": 0}, {"type": "note_on", "time": 8, "note": 62, "velocity": 106, "channel": 0}, {"type": "note_off", "time": 117, "note": 62, "velocity": 106, "channel": 0}, {"type": "note_on", "time": 338, "note": 68, "velocity": 113, "channel": 0}, {"type": "note_off", "time": 91, "note": 68, "velocity": 113, "channel": 0}, {"type": "note_on", "time": 11, "note": 63, "velocity": 112, "channel": 0}, {"type": "note_off", "time": 72, "note": 63, "velocity": 112, "channel": 0}, {"type": "note_on", "time": 10, "note": 61, "velocity": 108, "channel": 0}, {"type": "note_off", "time": 71, "note": 61, "velocity": 108, "channel": 0}, {"type": "note_on", "time": 50, "note": 58, "velocity": 108, "channel": 0}, {"type": "note_off", "time": 54, "note": 58, "velocity": 108, "channel": 0}, {"type": "note_on", "time": 23, "note": 65, "velocity": 108, "channel": 0}, {"type": "note_off", "time": 60, "note": 65, "velocity": 108, "channel": 0}, {"type": "note_on", "time": 16, "note": 61, "velocity": 111, "channel": 0}, {"type": "note_off", "time": 70, "note": 61, "velocity": 111, "channel": 0}, {"type": "note_on", "time": 15, "note": 59, "velocity": 107, "channel": 0}, {"type": "note_off", "time": 65, "note": 59, "velocity": 107, "channel": 0}, {"type": "note_on", "time": 11, "note": 58, "velocity": 113, "channel": 0}, {"type": "note_off", "time": 79, "note": 58, "velocity": 113, "channel": 0}, {"type": "note_on", "time": 21, "note": 57, "velocity": 109, "channel": 0}, {"type": "note_off", "time": 47, "note": 57, "velocity": 109, "channel": 0}, {"type": "note_on", "time": 18, "note": 56, "velocity": 109, "channel": 0}, {"type": "note_off", "time": 85, "note": 56, "velocity": 109, "channel": 0}, {"type": "note_on", "time": 9, "note": 55, "velocity": 105, "channel": 0}, {"type": "note_off", "time": 58, "note": 55, "velocity": 105, "channel": 0}, {"type": "note_on", "time": 43, "note": 59, "velocity": 107, "channel": 0}, {"type": "note_off", "time": 94, "note": 59, "velocity": 107, "channel": 0}, {"type": "note_on", "time": 10, "note": 53, "velocity": 105, "channel": 0}, {"type": "note_off", "time": 96, "note": 53, "velocity": 105, "channel": 0}, {"type": "note_on", "time": 255, "note": 67, "velocity": 110, "channel": 0}, {"type": "note_off", "time": 110, "note": 67, "velocity": 110, "channel": 0}, {"type": "note_on", "time": 25, "note": 63, "velocity": 111, "channel": 0}, {"type": "note_off", "time": 62, "note": 63, "velocity": 111, "channel": 0}, {"type": "note_on", "time": 213, "note": 61, "velocity": 113, "channel": 0}, {"type": "note_off", "time": 147, "note": 61, "velocity": 113, "channel": 0}, {"type": "note_on", "time": 60, "note": 61, "velocity": 114, "channel": 0}, {"type": "note_off", "time": 59, "note": 61, "velocity": 114, "channel": 0}, {"type": "note_on", "time": 11, "note": 51, "velocity": 103, "channel": 0}, {"type": "note_on", "time": 118, "note": 62, "velocity": 113, "channel": 0}, {"type": "note_off", "time": 0, "note": 51, "velocity": 103, "channel": 0}, {"type": "note_off", "time": 29, "note": 62, "velocity": 113, "channel": 0}, {"type": "note_on", "time": 22, "note": 62, "velocity": 115, "channel": 0}, {"type": "note_off", "time": 51, "note": 62, "velocity": 115, "channel": 0}, {"type": "note_on", "time": 16, "note": 65, "velocity": 113, "channel": 0}, {"type": "note_off", "time": 120, "note": 65, "velocity": 113, "channel": 0}, {"type": "note_on", "time": 566, "note": 67, "velocity": 106, "channel": 0}, {"type": "note_off", "time": 862, "note": 67, "velocity": 106, "channel": 0}, {"type": "note_on", "time": 38, "note": 63, "velocity": 112, "channel": 0}, {"type": "note_off", "time": 85, "note": 63, "velocity": 112, "channel": 0}, {"type": "note_on", "time": 18, "note": 67, "velocity": 106, "channel": 0}, {"type": "note_off", "time": 67, "note": 67, "velocity": 106, "channel": 0}, {"type": "note_on", "time": 19, "note": 69, "velocity": 104, "channel": 0}, {"type": "note_off", "time": 67, "note": 69, "velocity": 104, "channel": 0}, {"type": "note_on", "time": 21, "note": 71, "velocity": 112, "channel": 0}, {"type": "note_off", "time": 76, "note": 71, "velocity": 112, "channel": 0}, {"type": "note_on", "time": 23, "note": 68, "velocity": 110, "channel": 0}, {"type": "note_off", "time": 89, "note": 68, "velocity": 110, "channel": 0}, {"type": "note_on", "time": 4, "note": 67, "velocity": 111, "channel": 0}, {"type": "note_off", "time": 70, "note": 67, "velocity": 111, "channel": 0}, {"type": "note_on", "time": 19, "note": 69, "velocity": 111, "channel": 0}, {"type": "note_off", "time": 81, "note": 69, "velocity": 111, "channel": 0}, {"type": "note_on", "time": 12, "note": 71, "velocity": 114, "channel": 0}, {"type": "note_off", "time": 94, "note": 71, "velocity": 114, "channel": 0}, {"type": "note_on", "time": 31, "note": 69, "velocity": 108, "channel": 0}, {"type": "note_off", "time": 61, "note": 69, "velocity": 108, "channel": 0}, {"type": "note_on", "time": 35, "note": 67, "velocity": 107, "channel": 0}, {"type": "note_off", "time": 72, "note": 67, "velocity": 107, "channel": 0}, {"type": "note_on", "time": 16, "note": 69, "velocity": 111, "channel": 0}, {"type": "note_off", "time": 55, "note": 69, "velocity": 111, "channel": 0}, {"type": "note_on", "time": 20, "note": 71, "velocity": 106, "channel": 0}, {"type": "note_off", "time": 268, "note": 71, "velocity": 106, "channel": 0}, {"type": "note_on", "time": 23, "note": 62, "velocity": 46, "channel": 0}, {"type": "note_off", "time": 59, "note": 62, "velocity": 46, "channel": 0}, {"type": "note_on", "time": 29, "note": 67, "velocity": 108, "channel": 0}, {"type": "note_off", "time": 68, "note": 67, "velocity": 108, "channel": 0}, {"type": "note_on", "time": 19, "note": 69, "velocity": 111, "channel": 0}, {"type": "note_off", "time": 60, "note": 69, "velocity": 111, "channel": 0}, {"type": "note_on", "time": 13, "note": 71, "velocity": 111, "channel": 0}, {"type": "note_off", "time": 103, "note": 71, "velocity": 111, "channel": 0}, {"type": "note_on", "time": 18, "note": 68, "velocity": 110, "channel": 0}, {"type": "note_off", "time": 88, "note": 68, "velocity": 110, "channel": 0}, {"type": "note_on", "time": 14, "note": 67, "velocity": 109, "channel": 0}, {"type": "note_off", "time": 61, "note": 67, "velocity": 109, "channel": 0}, {"type": "note_on", "time": 22, "note": 69, "velocity": 111, "channel": 0}, {"type": "note_off", "time": 66, "note": 69, "velocity": 111, "channel": 0}, {"type": "note_on", "time": 23, "note": 71, "velocity": 111, "channel": 0}, {"type": "note_off", "time": 88, "note": 71, "velocity": 111, "channel": 0}, {"type": "note_on", "time": 19, "note": 68, "velocity": 110, "channel": 0}, {"type": "note_off", "time": 98, "note": 68, "velocity": 110, "channel": 0}, {"type": "note_on", "time": 5, "note": 67, "velocity": 111, "channel": 0}, {"type": "note_off", "time": 70, "note": 67, "velocity": 111, "channel": 0}, {"type": "note_on", "time": 3, "note": 69, "velocity": 111, "channel": 0}, {"type": "note_off", "time": 75, "note": 69, "velocity": 111, "channel": 0}, {"type": "note_on", "time": 16, "note": 71, "velocity": 111, "channel": 0}, {"type": "note_off", "time": 81, "note": 71, "velocity": 111, "channel": 0}, {"type": "note_on", "time": 24, "note": 68, "velocity": 111, "channel": 0}, {"type": "note_off", "time": 78, "note": 68, "velocity": 111, "channel": 0}, {"type": "note_on", "time": 20, "note": 67, "velocity": 114, "channel": 0}, {"type": "note_off", "time": 78, "note": 67, "velocity": 114, "channel": 0}, {"type": "note_on", "time": 4, "note": 69, "velocity": 115, "channel": 0}, {"type": "note_off", "time": 68, "note": 69, "velocity": 115, "channel": 0}, {"type": "note_on", "time": 19, "note": 71, "velocity": 115, "channel": 0}, {"type": "note_off", "time": 59, "note": 71, "velocity": 115, "channel": 0}, {"type": "note_on", "time": 19, "note": 68, "velocity": 109, "channel": 0}, {"type": "note_off", "time": 56, "note": 68, "velocity": 109, "channel": 0}, {"type": "note_on", "time": 47, "note": 67, "velocity": 107, "channel": 0}, {"type": "note_off", "time": 280, "note": 67, "velocity": 107, "channel": 0}, {"type": "note_on", "time": 126, "note": 65, "velocity": 110, "channel": 0}, {"type": "note_off", "time": 75, "note": 65, "velocity": 110, "channel": 0}, {"type": "note_on", "time": 16, "note": 63, "velocity": 108, "channel": 0}, {"type": "note_off", "time": 53, "note": 63, "velocity": 108, "channel": 0}, {"type": "note_on", "time": 1128, "note": 71, "velocity": 114, "channel": 0}, {"type": "note_off", "time": 929, "note": 71, "velocity": 114, "channel": 0}, {"type": "note_on", "time": 14, "note": 74, "velocity": 103, "channel": 0}, {"type": "note_off", "time": 81, "note": 74, "velocity": 103, "channel": 0}, {"type": "note_on", "time": 15, "note": 74, "velocity": 104, "channel": 0}, {"type": "note_off", "time": 69, "note": 74, "velocity": 104, "channel": 0}, {"type": "note_on", "time": 6, "note": 71, "velocity": 111, "channel": 0}, {"type": "note_off", "time": 171, "note": 71, "velocity": 111, "channel": 0}, {"type": "note_on", "time": 17, "note": 74, "velocity": 110, "channel": 0}, {"type": "note_off", "time": 65, "note": 74, "velocity": 110, "channel": 0}, {"type": "note_on", "time": 17, "note": 74, "velocity": 106, "channel": 0}, {"type": "note_off", "time": 62, "note": 74, "velocity": 106, "channel": 0}, {"type": "note_on", "time": 21, "note": 69, "velocity": 117, "channel": 0}, {"type": "note_off", "time": 254, "note": 69, "velocity": 117, "channel": 0}, {"type": "note_on", "time": 552, "note": 71, "velocity": 100, "channel": 0}, {"type": "note_off", "time": 71, "note": 71, "velocity": 100, "channel": 0}, {"type": "note_on", "time": 1, "note": 74, "velocity": 114, "channel": 0}, {"type": "note_off", "time": 475, "note": 74, "velocity": 114, "channel": 0}, {"type": "note_on", "time": 37, "note": 70, "velocity": 103, "channel": 0}, {"type": "note_off", "time": 30, "note": 70, "velocity": 103, "channel": 0}, {"type": "note_on", "time": 3, "note": 71, "velocity": 107, "channel": 0}, {"type": "note_off", "time": 56, "note": 71, "velocity": 107, "channel": 0}, {"type": "note_on", "time": 16, "note": 74, "velocity": 108, "channel": 0}, {"type": "note_off", "time": 162, "note": 74, "velocity": 108, "channel": 0}, {"type": "note_on", "time": 29, "note": 71, "velocity": 106, "channel": 0}, {"type": "note_off", "time": 75, "note": 71, "velocity": 106, "channel": 0}, {"type": "note_on", "time": 22, "note": 74, "velocity": 113, "channel": 0}, {"type": "note_off", "time": 89, "note": 74, "velocity": 113, "channel": 0}, {"type": "note_on", "time": 11, "note": 73, "velocity": 113, "channel": 0}, {"type": "note_off", "time": 202, "note": 73, "velocity": 113, "channel": 0}, {"type": "note_on", "time": 19, "note": 71, "velocity": 111, "channel": 0}, {"type": "note_off", "time": 69, "note": 71, "velocity": 111, "channel": 0}, {"type": "note_on", "time": 13, "note": 73, "velocity": 110, "channel": 0}, {"type": "note_off", "time": 82, "note": 73, "velocity": 110, "channel": 0}, {"type": "note_on", "time": 11, "note": 71, "velocity": 112, "channel": 0}, {"type": "note_off", "time": 99, "note": 71, "velocity": 112, "channel": 0}, {"type": "note_on", "time": 12, "note": 68, "velocity": 113, "channel": 0}, {"type": "note_off", "time": 43, "note": 68, "velocity": 113, "channel": 0}, {"type": "note_on", "time": 20, "note": 66, "velocity": 109, "channel": 0}, {"type": "note_off", "time": 112, "note": 66, "velocity": 109, "channel": 0}, {"type": "note_on", "time": 11, "note": 71, "velocity": 111, "channel": 0}, {"type": "note_off", "time": 66, "note": 71, "velocity": 111, "channel": 0}, {"type": "note_on", "time": 4, "note": 68, "velocity": 110, "channel": 0}, {"type": "note_off", "time": 186, "note": 68, "velocity": 110, "channel": 0}, {"type": "note_on", "time": 29, "note": 65, "velocity": 106, "channel": 0}, {"type": "note_off", "time": 67, "note": 65, "velocity": 106, "channel": 0}, {"type": "note_on", "time": 19, "note": 68, "velocity": 108, "channel": 0}, {"type": "note_off", "time": 80, "note": 68, "velocity": 108, "channel": 0}, {"type": "note_on", "time": 21, "note": 65, "velocity": 107, "channel": 0}, {"type": "note_off", "time": 54, "note": 65, "velocity": 107, "channel": 0}, {"type": "note_on", "time": 29, "note": 63, "velocity": 110, "channel": 0}, {"type": "note_off", "time": 67, "note": 63, "velocity": 110, "channel": 0}, {"type": "note_on", "time": 14, "note": 61, "velocity": 110, "channel": 0}, {"type": "note_off", "time": 54, "note": 61, "velocity": 110, "channel": 0}, {"type": "note_on", "time": 158, "note": 65, "velocity": 111, "channel": 0}, {"type": "note_off", "time": 71, "note": 65, "velocity": 111, "channel": 0}, {"type": "note_on", "time": 6, "note": 61, "velocity": 110, "channel": 0}, {"type": "note_off", "time": 84, "note": 61, "velocity": 110, "channel": 0}, {"type": "note_on", "time": 19, "note": 59, "velocity": 104, "channel": 0}, {"type": "note_off", "time": 76, "note": 59, "velocity": 104, "channel": 0}, {"type": "note_on", "time": 41, "note": 55, "velocity": 116, "channel": 0}, {"type": "note_off", "time": 65, "note": 55, "velocity": 116, "channel": 0}, {"type": "note_on", "time": 19, "note": 53, "velocity": 112, "channel": 0}, {"type": "note_off", "time": 69, "note": 53, "velocity": 112, "channel": 0}, {"type": "note_on", "time": 12, "note": 59, "velocity": 113, "channel": 0}, {"type": "note_off", "time": 64, "note": 59, "velocity": 113, "channel": 0}, {"type": "note_on", "time": 9, "note": 57, "velocity": 113, "channel": 0}, {"type": "note_off", "time": 69, "note": 57, "velocity": 113, "channel": 0}, {"type": "note_on", "time": 5, "note": 53, "velocity": 111, "channel": 0}, {"type": "note_off", "time": 128, "note": 53, "velocity": 111, "channel": 0}, {"type": "note_on", "time": 106, "note": 53, "velocity": 111, "channel": 0}, {"type": "note_off", "time": 71, "note": 53, "velocity": 111, "channel": 0}, {"type": "note_on", "time": 19, "note": 50, "velocity": 99, "channel": 0}, {"type": "note_off", "time": 79, "note": 50, "velocity": 99, "channel": 0}, {"type": "note_on", "time": 547, "note": 80, "velocity": 97, "channel": 0}, {"type": "note_off", "time": 149, "note": 80, "velocity": 97, "channel": 0}, {"type": "note_on", "time": 26, "note": 80, "velocity": 88, "channel": 0}, {"type": "note_off", "time": 111, "note": 80, "velocity": 88, "channel": 0}, {"type": "note_on", "time": 18, "note": 72, "velocity": 105, "channel": 0}, {"type": "note_off", "time": 282, "note": 72, "velocity": 105, "channel": 0}, {"type": "note_on", "time": 15, "note": 68, "velocity": 99, "channel": 0}, {"type": "note_off", "time": 85, "note": 68, "velocity": 99, "channel": 0}, {"type": "note_on", "time": 41, "note": 72, "velocity": 101, "channel": 0}, {"type": "note_off", "time": 87, "note": 72, "velocity": 101, "channel": 0}, {"type": "note_on", "time": 6, "note": 70, "velocity": 99, "channel": 0}, {"type": "note_off", "time": 48, "note": 70, "velocity": 99, "channel": 0}, {"type": "note_on", "time": 49, "note": 65, "velocity": 106, "channel": 0}, {"type": "note_off", "time": 42, "note": 65, "velocity": 106, "channel": 0}, {"type": "note_on", "time": 15, "note": 62, "velocity": 102, "channel": 0}, {"type": "note_off", "time": 103, "note": 62, "velocity": 102, "channel": 0}, {"type": "note_on", "time": 16, "note": 58, "velocity": 99, "channel": 0}, {"type": "note_off", "time": 51, "note": 58, "velocity": 99, "channel": 0}, {"type": "note_on", "time": 19, "note": 64, "velocity": 110, "channel": 0}, {"type": "note_off", "time": 103, "note": 64, "velocity": 110, "channel": 0}, {"type": "note_on", "time": 265, "note": 67, "velocity": 112, "channel": 0}, {"type": "note_off", "time": 102, "note": 67, "velocity": 112, "channel": 0}, {"type": "note_on", "time": 12, "note": 64, "velocity": 108, "channel": 0}, {"type": "note_off", "time": 68, "note": 64, "velocity": 108, "channel": 0}, {"type": "note_on", "time": 12, "note": 60, "velocity": 109, "channel": 0}, {"type": "note_off", "time": 154, "note": 60, "velocity": 109, "channel": 0}, {"type": "note_on", "time": 11, "note": 56, "velocity": 105, "channel": 0}, {"type": "note_off", "time": 24, "note": 56, "velocity": 105, "channel": 0}, {"type": "note_on", "time": 5, "note": 58, "velocity": 113, "channel": 0}, {"type": "note_off", "time": 66, "note": 58, "velocity": 113, "channel": 0}, {"type": "note_on", "time": 11, "note": 60, "velocity": 107, "channel": 0}, {"type": "note_off", "time": 60, "note": 60, "velocity": 107, "channel": 0}, {"type": "note_on", "time": 24, "note": 58, "velocity": 110, "channel": 0}, {"type": "note_off", "time": 120, "note": 58, "velocity": 110, "channel": 0}, {"type": "note_on", "time": 17, "note": 52, "velocity": 115, "channel": 0}, {"type": "note_off", "time": 63, "note": 52, "velocity": 115, "channel": 0}, {"type": "note_on", "time": 16, "note": 50, "velocity": 111, "channel": 0}, {"type": "note_off", "time": 75, "note": 50, "velocity": 111, "channel": 0}, {"type": "note_on", "time": 22, "note": 55, "velocity": 112, "channel": 0}, {"type": "note_off", "time": 43, "note": 55, "velocity": 112, "channel": 0}, {"type": "note_on", "time": 9, "note": 52, "velocity": 110, "channel": 0}, {"type": "note_off", "time": 103, "note": 52, "velocity": 110, "channel": 0}, {"type": "note_on", "time": 27, "note": 46, "velocity": 111, "channel": 0}, {"type": "note_off", "time": 175, "note": 46, "velocity": 111, "channel": 0}, {"type": "note_on", "time": 345, "note": 46, "velocity": 116, "channel": 0}, {"type": "note_off", "time": 98, "note": 46, "velocity": 116, "channel": 0}, {"type": "note_on", "time": 10, "note": 53, "velocity": 111, "channel": 0}, {"type": "note_off", "time": 81, "note": 53, "velocity": 111, "channel": 0}, {"type": "note_on", "time": 9, "note": 58, "velocity": 111, "channel": 0}, {"type": "note_off", "time": 63, "note": 58, "velocity": 111, "channel": 0}, {"type": "note_on", "time": 41, "note": 58, "velocity": 113, "channel": 0}, {"type": "note_off", "time": 55, "note": 58, "velocity": 113, "channel": 0}, {"type": "note_on", "time": 14, "note": 60, "velocity": 108, "channel": 0}, {"type": "note_off", "time": 80, "note": 60, "velocity": 108, "channel": 0}, {"type": "note_on", "time": 302, "note": 48, "velocity": 112, "channel": 0}, {"type": "note_off", "time": 97, "note": 48, "velocity": 112, "channel": 0}, {"type": "note_on", "time": 12, "note": 53, "velocity": 105, "channel": 0}, {"type": "note_off", "time": 136, "note": 53, "velocity": 105, "channel": 0}, {"type": "note_on", "time": 26, "note": 58, "velocity": 111, "channel": 0}, {"type": "note_off", "time": 98, "note": 58, "velocity": 111, "channel": 0}, {"type": "note_on", "time": 5, "note": 52, "velocity": 113, "channel": 0}, {"type": "note_off", "time": 86, "note": 52, "velocity": 113, "channel": 0}, {"type": "note_on", "time": 2, "note": 53, "velocity": 113, "channel": 0}, {"type": "note_off", "time": 69, "note": 53, "velocity": 113, "channel": 0}, {"type": "note_on", "time": 12, "note": 57, "velocity": 113, "channel": 0}, {"type": "note_off", "time": 108, "note": 57, "velocity": 113, "channel": 0}, {"type": "note_on", "time": 14, "note": 60, "velocity": 113, "channel": 0}, {"type": "note_off", "time": 85, "note": 60, "velocity": 113, "channel": 0}, {"type": "note_on", "time": 26, "note": 58, "velocity": 94, "channel": 0}, {"type": "note_off", "time": 118, "note": 58, "velocity": 94, "channel": 0}, {"type": "note_on", "time": 273, "note": 70, "velocity": 112, "channel": 0}, {"type": "note_off", "time": 72, "note": 70, "velocity": 112, "channel": 0}, {"type": "note_on", "time": 39, "note": 66, "velocity": 110, "channel": 0}, {"type": "note_off", "time": 47, "note": 66, "velocity": 110, "channel": 0}, {"type": "note_on", "time": 13, "note": 63, "velocity": 109, "channel": 0}, {"type": "note_off", "time": 102, "note": 63, "velocity": 109, "channel": 0}, {"type": "note_on", "time": 61, "note": 65, "velocity": 113, "channel": 0}, {"type": "note_off", "time": 78, "note": 65, "velocity": 113, "channel": 0}, {"type": "note_on", "time": 12, "note": 63, "velocity": 113, "channel": 0}, {"type": "note_off", "time": 77, "note": 63, "velocity": 113, "channel": 0}, {"type": "note_on", "time": 19, "note": 58, "velocity": 109, "channel": 0}, {"type": "note_off", "time": 85, "note": 58, "velocity": 109, "channel": 0}, {"type": "note_on", "time": 24, "note": 65, "velocity": 108, "channel": 0}, {"type": "note_off", "time": 76, "note": 65, "velocity": 108, "channel": 0}, {"type": "note_on", "time": 14, "note": 62, "velocity": 104, "channel": 0}, {"type": "note_off", "time": 80, "note": 62, "velocity": 104, "channel": 0}, {"type": "note_on", "time": 10, "note": 65, "velocity": 102, "channel": 0}, {"type": "note_off", "time": 49, "note": 65, "velocity": 102, "channel": 0}, {"type": "note_on", "time": 455, "note": 50, "velocity": 107, "channel": 0}, {"type": "note_off", "time": 102, "note": 50, "velocity": 107, "channel": 0}, {"type": "note_on", "time": 13, "note": 53, "velocity": 102, "channel": 0}, {"type": "note_off", "time": 58, "note": 53, "velocity": 102, "channel": 0}, {"type": "note_on", "time": 19, "note": 57, "velocity": 105, "channel": 0}, {"type": "note_off", "time": 98, "note": 57, "velocity": 105, "channel": 0}, {"type": "note_on", "time": 9, "note": 62, "velocity": 114, "channel": 0}, {"type": "note_off", "time": 79, "note": 62, "velocity": 114, "channel": 0}, {"type": "note_on", "time": 20, "note": 59, "velocity": 108, "channel": 0}, {"type": "note_off", "time": 114, "note": 59, "velocity": 108, "channel": 0}, {"type": "note_on", "time": 88, "note": 57, "velocity": 108, "channel": 0}, {"type": "note_off", "time": 147, "note": 57, "velocity": 108, "channel": 0}, {"type": "note_on", "time": 243, "note": 68, "velocity": 97, "channel": 0}, {"type": "note_off", "time": 79, "note": 68, "velocity": 97, "channel": 0}, {"type": "note_on", "time": 9, "note": 70, "velocity": 100, "channel": 0}, {"type": "note_off", "time": 82, "note": 70, "velocity": 100, "channel": 0}, {"type": "note_on", "time": 5, "note": 68, "velocity": 99, "channel": 0}, {"type": "note_off", "time": 78, "note": 68, "velocity": 99, "channel": 0}, {"type": "note_on", "time": 49, "note": 65, "velocity": 96, "channel": 0}, {"type": "note_off", "time": 56, "note": 65, "velocity": 96, "channel": 0}, {"type": "note_on", "time": 26, "note": 68, "velocity": 110, "channel": 0}, {"type": "note_off", "time": 94, "note": 68, "velocity": 110, "channel": 0}, {"type": "note_on", "time": 10, "note": 65, "velocity": 104, "channel": 0}, {"type": "note_off", "time": 78, "note": 65, "velocity": 104, "channel": 0}, {"type": "note_on", "time": 14, "note": 62, "velocity": 110, "channel": 0}, {"type": "note_off", "time": 96, "note": 62, "velocity": 110, "channel": 0}, {"type": "note_on", "time": 73, "note": 65, "velocity": 110, "channel": 0}, {"type": "note_off", "time": 282, "note": 65, "velocity": 110, "channel": 0}, {"type": "note_on", "time": 35, "note": 62, "velocity": 106, "channel": 0}, {"type": "note_off", "time": 72, "note": 62, "velocity": 106, "channel": 0}, {"type": "note_on", "time": 31, "note": 67, "velocity": 109, "channel": 0}, {"type": "note_off", "time": 89, "note": 67, "velocity": 109, "channel": 0}, {"type": "note_on", "time": 10, "note": 65, "velocity": 111, "channel": 0}, {"type": "note_off", "time": 83, "note": 65, "velocity": 111, "channel": 0}, {"type": "note_on", "time": 17, "note": 67, "velocity": 111, "channel": 0}, {"type": "note_off", "time": 40, "note": 67, "velocity": 111, "channel": 0}, {"type": "note_on", "time": 11, "note": 67, "velocity": 106, "channel": 0}, {"type": "note_off", "time": 38, "note": 67, "velocity": 106, "channel": 0}, {"type": "note_on", "time": 7, "note": 65, "velocity": 112, "channel": 0}, {"type": "note_off", "time": 63, "note": 65, "velocity": 112, "channel": 0}, {"type": "note_on", "time": 29, "note": 62, "velocity": 111, "channel": 0}, {"type": "note_off", "time": 73, "note": 62, "velocity": 111, "channel": 0}, {"type": "note_on", "time": 13, "note": 65, "velocity": 110, "channel": 0}, {"type": "note_off", "time": 70, "note": 65, "velocity": 110, "channel": 0}, {"type": "note_on", "time": 11, "note": 64, "velocity": 115, "channel": 0}, {"type": "note_off", "time": 76, "note": 64, "velocity": 115, "channel": 0}, {"type": "note_on", "time": 20, "note": 67, "velocity": 112, "channel": 0}, {"type": "note_off", "time": 69, "note": 67, "velocity": 112, "channel": 0}, {"type": "note_on", "time": 12, "note": 65, "velocity": 111, "channel": 0}, {"type": "note_off", "time": 78, "note": 65, "velocity": 111, "channel": 0}, {"type": "note_on", "time": 30, "note": 67, "velocity": 108, "channel": 0}, {"type": "note_off", "time": 74, "note": 67, "velocity": 108, "channel": 0}, {"type": "note_on", "time": 23, "note": 69, "velocity": 104, "channel": 0}, {"type": "note_off", "time": 75, "note": 69, "velocity": 104, "channel": 0}, {"type": "note_on", "time": 15, "note": 71, "velocity": 108, "channel": 0}, {"type": "note_off", "time": 89, "note": 71, "velocity": 108, "channel": 0}, {"type": "note_on", "time": 5, "note": 73, "velocity": 108, "channel": 0}, {"type": "note_off", "time": 52, "note": 73, "velocity": 108, "channel": 0}, {"type": "note_on", "time": 12, "note": 74, "velocity": 110, "channel": 0}, {"type": "note_off", "time": 69, "note": 74, "velocity": 110, "channel": 0}, {"type": "note_on", "time": 33, "note": 73, "velocity": 103, "channel": 0}, {"type": "note_off", "time": 91, "note": 73, "velocity": 103, "channel": 0}, {"type": "note_on", "time": 12, "note": 71, "velocity": 110, "channel": 0}, {"type": "note_off", "time": 75, "note": 71, "velocity": 110, "channel": 0}, {"type": "note_on", "time": 11, "note": 69, "velocity": 107, "channel": 0}, {"type": "note_off", "time": 77, "note": 69, "velocity": 107, "channel": 0}, {"type": "note_on", "time": 8, "note": 68, "velocity": 105, "channel": 0}, {"type": "note_off", "time": 82, "note": 68, "velocity": 105, "channel": 0}, {"type": "note_on", "time": 14, "note": 67, "velocity": 107, "channel": 0}, {"type": "note_off", "time": 101, "note": 67, "velocity": 107, "channel": 0}, {"type": "note_on", "time": 25, "note": 71, "velocity": 110, "channel": 0}, {"type": "note_off", "time": 80, "note": 71, "velocity": 110, "channel": 0}, {"type": "note_on", "time": 6, "note": 69, "velocity": 106, "channel": 0}, {"type": "note_off", "time": 62, "note": 69, "velocity": 106, "channel": 0}, {"type": "note_on", "time": 16, "note": 65, "velocity": 108, "channel": 0}, {"type": "note_off", "time": 80, "note": 65, "velocity": 108, "channel": 0}, {"type": "note_on", "time": 15, "note": 62, "velocity": 111, "channel": 0}, {"type": "note_off", "time": 89, "note": 62, "velocity": 111, "channel": 0}, {"type": "note_on", "time": 116, "note": 65, "velocity": 108, "channel": 0}, {"type": "note_off", "time": 167, "note": 65, "velocity": 108, "channel": 0}, {"type": "note_on", "time": 12, "note": 67, "velocity": 107, "channel": 0}, {"type": "note_off", "time": 60, "note": 67, "velocity": 107, "channel": 0}, {"type": "note_on", "time": 46, "note": 65, "velocity": 109, "channel": 0}, {"type": "note_off", "time": 56, "note": 65, "velocity": 109, "channel": 0}, {"type": "note_on", "time": 19, "note": 62, "velocity": 112, "channel": 0}, {"type": "note_off", "time": 57, "note": 62, "velocity": 112, "channel": 0}, {"type": "note_on", "time": 51, "note": 65, "velocity": 113, "channel": 0}, {"type": "note_off", "time": 62, "note": 65, "velocity": 113, "channel": 0}, {"type": "note_on", "time": 26, "note": 62, "velocity": 113, "channel": 0}, {"type": "note_off", "time": 58, "note": 62, "velocity": 113, "channel": 0}, {"type": "note_on", "time": 22, "note": 59, "velocity": 108, "channel": 0}, {"type": "note_off", "time": 72, "note": 59, "velocity": 108, "channel": 0}, {"type": "note_on", "time": 109, "note": 59, "velocity": 113, "channel": 0}, {"type": "note_off", "time": 72, "note": 59, "velocity": 113, "channel": 0}, {"type": "note_on", "time": 9, "note": 57, "velocity": 112, "channel": 0}, {"type": "note_off", "time": 88, "note": 57, "velocity": 112, "channel": 0}, {"type": "note_on", "time": 9, "note": 53, "velocity": 102, "channel": 0}, {"type": "note_off", "time": 83, "note": 53, "velocity": 102, "channel": 0}, {"type": "note_on", "time": 38, "note": 57, "velocity": 115, "channel": 0}, {"type": "note_off", "time": 68, "note": 57, "velocity": 115, "channel": 0}, {"type": "note_on", "time": 25, "note": 62, "velocity": 113, "channel": 0}, {"type": "note_off", "time": 104, "note": 62, "velocity": 113, "channel": 0}, {"type": "note_on", "time": 665, "note": 69, "velocity": 112, "channel": 0}, {"type": "note_off", "time": 552, "note": 69, "velocity": 112, "channel": 0}, {"type": "note_on", "time": 19, "note": 65, "velocity": 97, "channel": 0}, {"type": "note_off", "time": 45, "note": 65, "velocity": 97, "channel": 0}, {"type": "note_on", "time": 19, "note": 69, "velocity": 113, "channel": 0}, {"type": "note_off", "time": 81, "note": 69, "velocity": 113, "channel": 0}, {"type": "note_on", "time": 36, "note": 65, "velocity": 112, "channel": 0}, {"type": "note_off", "time": 47, "note": 65, "velocity": 112, "channel": 0}, {"type": "note_on", "time": 18, "note": 62, "velocity": 110, "channel": 0}, {"type": "note_off", "time": 92, "note": 62, "velocity": 110, "channel": 0}, {"type": "note_on", "time": 96, "note": 65, "velocity": 110, "channel": 0}, {"type": "note_off", "time": 185, "note": 65, "velocity": 110, "channel": 0}, {"type": "note_on", "time": 10, "note": 62, "velocity": 110, "channel": 0}, {"type": "note_off", "time": 69, "note": 62, "velocity": 110, "channel": 0}, {"type": "note_on", "time": 42, "note": 69, "velocity": 107, "channel": 0}, {"type": "note_off", "time": 169, "note": 69, "velocity": 107, "channel": 0}, {"type": "note_on", "time": 324, "note": 69, "velocity": 111, "channel": 0}, {"type": "note_off", "time": 223, "note": 69, "velocity": 111, "channel": 0}, {"type": "note_on", "time": 42, "note": 62, "velocity": 105, "channel": 0}, {"type": "note_off", "time": 54, "note": 62, "velocity": 105, "channel": 0}, {"type": "note_on", "time": 3, "note": 69, "velocity": 104, "channel": 0}, {"type": "note_off", "time": 114, "note": 69, "velocity": 104, "channel": 0}, {"type": "note_on", "time": 108, "note": 71, "velocity": 117, "channel": 0}, {"type": "note_off", "time": 96, "note": 71, "velocity": 117, "channel": 0}, {"type": "note_on", "time": 30, "note": 62, "velocity": 99, "channel": 0}, {"type": "note_off", "time": 58, "note": 62, "velocity": 99, "channel": 0}, {"type": "note_on", "time": 28, "note": 69, "velocity": 113, "channel": 0}, {"type": "note_off", "time": 176, "note": 69, "velocity": 113, "channel": 0}, {"type": "note_on", "time": 15, "note": 71, "velocity": 117, "channel": 0}, {"type": "note_off", "time": 81, "note": 71, "velocity": 117, "channel": 0}, {"type": "note_on", "time": 56, "note": 62, "velocity": 107, "channel": 0}, {"type": "note_off", "time": 39, "note": 62, "velocity": 107, "channel": 0}, {"type": "note_on", "time": 20, "note": 69, "velocity": 110, "channel": 0}, {"type": "note_off", "time": 185, "note": 69, "velocity": 110, "channel": 0}, {"type": "note_on", "time": 11, "note": 71, "velocity": 117, "channel": 0}, {"type": "note_off", "time": 67, "note": 71, "velocity": 117, "channel": 0}, {"type": "note_on", "time": 40, "note": 62, "velocity": 102, "channel": 0}, {"type": "note_off", "time": 54, "note": 62, "velocity": 102, "channel": 0}, {"type": "note_on", "time": 38, "note": 62, "velocity": 107, "channel": 0}, {"type": "note_off", "time": 117, "note": 62, "velocity": 107, "channel": 0}, {"type": "note_on", "time": 446, "note": 69, "velocity": 110, "channel": 0}, {"type": "note_off", "time": 74, "note": 69, "velocity": 110, "channel": 0}, {"type": "note_on", "time": 9, "note": 71, "velocity": 112, "channel": 0}, {"type": "note_off", "time": 62, "note": 71, "velocity": 112, "channel": 0}, {"type": "note_on", "time": 11, "note": 74, "velocity": 111, "channel": 0}, {"type": "note_off", "time": 86, "note": 74, "velocity": 111, "channel": 0}, {"type": "note_on", "time": 318, "note": 69, "velocity": 112, "channel": 0}, {"type": "note_off", "time": 57, "note": 69, "velocity": 112, "channel": 0}, {"type": "note_on", "time": 11, "note": 71, "velocity": 111, "channel": 0}, {"type": "note_off", "time": 74, "note": 71, "velocity": 111, "channel": 0}, {"type": "note_on", "time": 18, "note": 75, "velocity": 109, "channel": 0}, {"type": "note_off", "time": 98, "note": 75, "velocity": 109, "channel": 0}, {"type": "note_on", "time": 558, "note": 69, "velocity": 108, "channel": 0}, {"type": "note_off", "time": 88, "note": 69, "velocity": 108, "channel": 0}, {"type": "note_on", "time": 18, "note": 71, "velocity": 115, "channel": 0}, {"type": "note_off", "time": 69, "note": 71, "velocity": 115, "channel": 0}, {"type": "note_on", "time": 58, "note": 74, "velocity": 112, "channel": 0}, {"type": "note_off", "time": 109, "note": 74, "velocity": 112, "channel": 0}, {"type": "note_on", "time": 46, "note": 74, "velocity": 105, "channel": 0}, {"type": "note_off", "time": 52, "note": 74, "velocity": 105, "channel": 0}, {"type": "note_on", "time": 40, "note": 79, "velocity": 106, "channel": 0}, {"type": "note_off", "time": 139, "note": 79, "velocity": 106, "channel": 0}, {"type": "note_on", "time": 36, "note": 77, "velocity": 112, "channel": 0}, {"type": "note_off", "time": 242, "note": 77, "velocity": 112, "channel": 0}, {"type": "note_on", "time": 58, "note": 74, "velocity": 109, "channel": 0}, {"type": "note_off", "time": 70, "note": 74, "velocity": 109, "channel": 0}, {"type": "note_on", "time": 24, "note": 69, "velocity": 106, "channel": 0}, {"type": "note_off", "time": 102, "note": 69, "velocity": 106, "channel": 0}, {"type": "note_on", "time": 24, "note": 65, "velocity": 101, "channel": 0}, {"type": "note_off", "time": 122, "note": 65, "velocity": 101, "channel": 0}, {"type": "note_on", "time": 320, "note": 65, "velocity": 114, "channel": 0}, {"type": "note_off", "time": 58, "note": 65, "velocity": 114, "channel": 0}, {"type": "note_on", "time": 44, "note": 69, "velocity": 110, "channel": 0}, {"type": "note_off", "time": 67, "note": 69, "velocity": 110, "channel": 0}, {"type": "note_on", "time": 11, "note": 74, "velocity": 103, "channel": 0}, {"type": "note_off", "time": 259, "note": 74, "velocity": 103, "channel": 0}, {"type": "note_on", "time": 21, "note": 71, "velocity": 114, "channel": 0}, {"type": "note_off", "time": 92, "note": 71, "velocity": 114, "channel": 0}, {"type": "note_on", "time": 8, "note": 69, "velocity": 113, "channel": 0}, {"type": "note_off", "time": 67, "note": 69, "velocity": 113, "channel": 0}, {"type": "note_on", "time": 21, "note": 65, "velocity": 110, "channel": 0}, {"type": "note_off", "time": 63, "note": 65, "velocity": 110, "channel": 0}, {"type": "note_on", "time": 10, "note": 62, "velocity": 110, "channel": 0}, {"type": "note_off", "time": 64, "note": 62, "velocity": 110, "channel": 0}, {"type": "note_on", "time": 12, "note": 59, "velocity": 112, "channel": 0}, {"type": "note_off", "time": 75, "note": 59, "velocity": 112, "channel": 0}, {"type": "note_on", "time": 12, "note": 65, "velocity": 109, "channel": 0}, {"type": "note_off", "time": 80, "note": 65, "velocity": 109, "channel": 0}, {"type": "note_on", "time": 17, "note": 62, "velocity": 110, "channel": 0}, {"type": "note_off", "time": 59, "note": 62, "velocity": 110, "channel": 0}, {"type": "note_on", "time": 27, "note": 59, "velocity": 109, "channel": 0}, {"type": "note_off", "time": 89, "note": 59, "velocity": 109, "channel": 0}, {"type": "note_on", "time": 17, "note": 57, "velocity": 109, "channel": 0}, {"type": "note_off", "time": 47, "note": 57, "velocity": 109, "channel": 0}, {"type": "note_on", "time": 24, "note": 53, "velocity": 112, "channel": 0}, {"type": "note_off", "time": 177, "note": 53, "velocity": 112, "channel": 0}, {"type": "note_on", "time": 21, "note": 57, "velocity": 105, "channel": 0}, {"type": "note_off", "time": 78, "note": 57, "velocity": 105, "channel": 0}, {"type": "note_on", "time": 16, "note": 45, "velocity": 115, "channel": 0}, {"type": "note_off", "time": 221, "note": 45, "velocity": 115, "channel": 0}, {"type": "note_on", "time": 437, "note": 45, "velocity": 116, "channel": 0}, {"type": "note_off", "time": 99, "note": 45, "velocity": 116, "channel": 0}, {"type": "note_on", "time": 39, "note": 50, "velocity": 114, "channel": 0}, {"type": "note_off", "time": 75, "note": 50, "velocity": 114, "channel": 0}, {"type": "note_on", "time": 13, "note": 45, "velocity": 114, "channel": 0}, {"type": "note_off", "time": 137, "note": 45, "velocity": 114, "channel": 0}, {"type": "note_on", "time": 453, "note": 47, "velocity": 118, "channel": 0}, {"type": "note_off", "time": 70, "note": 47, "velocity": 118, "channel": 0}, {"type": "note_on", "time": 23, "note": 54, "velocity": 107, "channel": 0}, {"type": "note_off", "time": 66, "note": 54, "velocity": 107, "channel": 0}, {"type": "note_on", "time": 44, "note": 49, "velocity": 109, "channel": 0}, {"type": "note_off", "time": 248, "note": 49, "velocity": 109, "channel": 0}, {"type": "note_on", "time": 25, "note": 57, "velocity": 113, "channel": 0}, {"type": "note_off", "time": 65, "note": 57, "velocity": 113, "channel": 0}, {"type": "note_on", "time": 36, "note": 48, "velocity": 106, "channel": 0}, {"type": "note_off", "time": 78, "note": 48, "velocity": 106, "channel": 0}, {"type": "note_on", "time": 7, "note": 53, "velocity": 112, "channel": 0}, {"type": "note_off", "time": 63, "note": 53, "velocity": 112, "channel": 0}, {"type": "note_on", "time": 10, "note": 57, "velocity": 103, "channel": 0}, {"type": "note_off", "time": 94, "note": 57, "velocity": 103, "channel": 0}, {"type": "note_on", "time": 11, "note": 62, "velocity": 112, "channel": 0}, {"type": "note_off", "time": 62, "note": 62, "velocity": 112, "channel": 0}, {"type": "note_on", "time": 24, "note": 59, "velocity": 111, "channel": 0}, {"type": "note_off", "time": 81, "note": 59, "velocity": 111, "channel": 0}, {"type": "note_on", "time": 519, "note": 51, "velocity": 117, "channel": 0}, {"type": "note_off", "time": 176, "note": 51, "velocity": 117, "channel": 0}, {"type": "note_on", "time": 4, "note": 58, "velocity": 108, "channel": 0}, {"type": "note_off", "time": 113, "note": 58, "velocity": 108, "channel": 0}, {"type": "note_on", "time": 310, "note": 53, "velocity": 117, "channel": 0}, {"type": "note_off", "time": 76, "note": 53, "velocity": 117, "channel": 0}, {"type": "note_on", "time": 19, "note": 54, "velocity": 109, "channel": 0}, {"type": "note_off", "time": 88, "note": 54, "velocity": 109, "channel": 0}, {"type": "note_on", "time": 214, "note": 61, "velocity": 117, "channel": 0}, {"type": "note_off", "time": 86, "note": 61, "velocity": 117, "channel": 0}, {"type": "note_on", "time": 116, "note": 52, "velocity": 109, "channel": 0}, {"type": "note_off", "time": 70, "note": 52, "velocity": 109, "channel": 0}, {"type": "note_on", "time": 294, "note": 51, "velocity": 110, "channel": 0}, {"type": "note_off", "time": 70, "note": 51, "velocity": 110, "channel": 0}, {"type": "note_on", "time": 13, "note": 58, "velocity": 104, "channel": 0}, {"type": "note_off", "time": 68, "note": 58, "velocity": 104, "channel": 0}, {"type": "note_on", "time": 33, "note": 60, "velocity": 101, "channel": 0}, {"type": "note_off", "time": 73, "note": 60, "velocity": 101, "channel": 0}, {"type": "note_on", "time": 689, "note": 58, "velocity": 107, "channel": 0}, {"type": "note_off", "time": 68, "note": 58, "velocity": 107, "channel": 0}, {"type": "note_on", "time": 6, "note": 55, "velocity": 107, "channel": 0}, {"type": "note_off", "time": 83, "note": 55, "velocity": 107, "channel": 0}, {"type": "note_on", "time": 15, "note": 52, "velocity": 105, "channel": 0}, {"type": "note_off", "time": 90, "note": 52, "velocity": 105, "channel": 0}, {"type": "note_on", "time": 15, "note": 55, "velocity": 103, "channel": 0}, {"type": "note_off", "time": 71, "note": 55, "velocity": 103, "channel": 0}, {"type": "note_on", "time": 126, "note": 52, "velocity": 109, "channel": 0}, {"type": "note_off", "time": 85, "note": 52, "velocity": 109, "channel": 0}, {"type": "note_on", "time": 34, "note": 55, "velocity": 100, "channel": 0}, {"type": "note_off", "time": 76, "note": 55, "velocity": 100, "channel": 0}, {"type": "note_on", "time": 304, "note": 51, "velocity": 111, "channel": 0}, {"type": "note_off", "time": 89, "note": 51, "velocity": 111, "channel": 0}, {"type": "note_on", "time": 16, "note": 53, "velocity": 123, "channel": 0}, {"type": "note_off", "time": 58, "note": 53, "velocity": 123, "channel": 0}, {"type": "note_on", "time": 39, "note": 57, "velocity": 115, "channel": 0}, {"type": "note_off", "time": 56, "note": 57, "velocity": 115, "channel": 0}, {"type": "note_on", "time": 28, "note": 63, "velocity": 121, "channel": 0}, {"type": "note_off", "time": 92, "note": 63, "velocity": 121, "channel": 0}, {"type": "note_on", "time": 11, "note": 58, "velocity": 106, "channel": 0}, {"type": "note_off", "time": 61, "note": 58, "velocity": 106, "channel": 0}, {"type": "note_on", "time": 82, "note": 66, "velocity": 105, "channel": 0}, {"type": "note_off", "time": 33, "note": 66, "velocity": 105, "channel": 0}, {"type": "note_on", "time": 4, "note": 70, "velocity": 107, "channel": 0}, {"type": "note_off", "time": 92, "note": 70, "velocity": 107, "channel": 0}, {"type": "note_on", "time": 29, "note": 66, "velocity": 104, "channel": 0}, {"type": "note_off", "time": 55, "note": 66, "velocity": 104, "channel": 0}, {"type": "note_on", "time": 21, "note": 63, "velocity": 102, "channel": 0}, {"type": "note_off", "time": 64, "note": 63, "velocity": 102, "channel": 0}, {"type": "note_on", "time": 55, "note": 58, "velocity": 119, "channel": 0}, {"type": "note_off", "time": 63, "note": 58, "velocity": 119, "channel": 0}, {"type": "note_on", "time": 16, "note": 44, "velocity": 116, "channel": 0}, {"type": "note_off", "time": 161, "note": 44, "velocity": 116, "channel": 0}, {"type": "note_on", "time": 19, "note": 46, "velocity": 112, "channel": 0}, {"type": "note_off", "time": 67, "note": 46, "velocity": 112, "channel": 0}, {"type": "note_on", "time": 23, "note": 44, "velocity": 115, "channel": 0}, {"type": "note_off", "time": 168, "note": 44, "velocity": 115, "channel": 0}, {"type": "note_on", "time": 686, "note": 70, "velocity": 115, "channel": 0}, {"type": "note_off", "time": 77, "note": 70, "velocity": 115, "channel": 0}, {"type": "note_on", "time": 43, "note": 66, "velocity": 110, "channel": 0}, {"type": "note_off", "time": 55, "note": 66, "velocity": 110, "channel": 0}, {"type": "note_on", "time": 18, "note": 63, "velocity": 113, "channel": 0}, {"type": "note_off", "time": 92, "note": 63, "velocity": 113, "channel": 0}, {"type": "note_on", "time": 21, "note": 58, "velocity": 110, "channel": 0}, {"type": "note_off", "time": 77, "note": 58, "velocity": 110, "channel": 0}, {"type": "note_on", "time": 26, "note": 45, "velocity": 111, "channel": 0}, {"type": "note_off", "time": 139, "note": 45, "velocity": 111, "channel": 0}, {"type": "note_on", "time": 5, "note": 46, "velocity": 102, "channel": 0}, {"type": "note_off", "time": 89, "note": 46, "velocity": 102, "channel": 0}, {"type": "note_on", "time": 628, "note": 47, "velocity": 111, "channel": 0}, {"type": "note_off", "time": 82, "note": 47, "velocity": 111, "channel": 0}, {"type": "note_on", "time": 11, "note": 54, "velocity": 107, "channel": 0}, {"type": "note_off", "time": 160, "note": 54, "velocity": 107, "channel": 0}, {"type": "note_on", "time": 27, "note": 52, "velocity": 110, "channel": 0}, {"type": "note_off", "time": 59, "note": 52, "velocity": 110, "channel": 0}, {"type": "note_on", "time": 46, "note": 54, "velocity": 111, "channel": 0}, {"type": "note_off", "time": 59, "note": 54, "velocity": 111, "channel": 0}, {"type": "note_on", "time": 19, "note": 55, "velocity": 110, "channel": 0}, {"type": "note_off", "time": 68, "note": 55, "velocity": 110, "channel": 0}, {"type": "note_on", "time": 21, "note": 57, "velocity": 110, "channel": 0}, {"type": "note_off", "time": 76, "note": 57, "velocity": 110, "channel": 0}, {"type": "note_on", "time": 12, "note": 53, "velocity": 113, "channel": 0}, {"type": "note_off", "time": 77, "note": 53, "velocity": 113, "channel": 0}, {"type": "note_on", "time": 722, "note": 53, "velocity": 113, "channel": 0}, {"type": "note_off", "time": 76, "note": 53, "velocity": 113, "channel": 0}, {"type": "note_on", "time": 12, "note": 55, "velocity": 113, "channel": 0}, {"type": "note_off", "time": 68, "note": 55, "velocity": 113, "channel": 0}, {"type": "note_on", "time": 18, "note": 56, "velocity": 109, "channel": 0}, {"type": "note_off", "time": 43, "note": 56, "velocity": 109, "channel": 0}, {"type": "note_on", "time": 36, "note": 59, "velocity": 109, "channel": 0}, {"type": "note_off", "time": 63, "note": 59, "velocity": 109, "channel": 0}, {"type": "note_on", "time": 15, "note": 63, "velocity": 115, "channel": 0}, {"type": "note_off", "time": 96, "note": 63, "velocity": 115, "channel": 0}, {"type": "note_on", "time": 5, "note": 61, "velocity": 111, "channel": 0}, {"type": "note_off", "time": 67, "note": 61, "velocity": 111, "channel": 0}, {"type": "note_on", "time": 25, "note": 56, "velocity": 110, "channel": 0}, {"type": "note_off", "time": 81, "note": 56, "velocity": 110, "channel": 0}, {"type": "note_on", "time": 116, "note": 61, "velocity": 115, "channel": 0}, {"type": "note_off", "time": 103, "note": 61, "velocity": 115, "channel": 0}, {"type": "note_on", "time": 18, "note": 64, "velocity": 113, "channel": 0}, {"type": "note_off", "time": 60, "note": 64, "velocity": 113, "channel": 0}, {"type": "note_on", "time": 27, "note": 59, "velocity": 112, "channel": 0}, {"type": "note_off", "time": 71, "note": 59, "velocity": 112, "channel": 0}, {"type": "note_on", "time": 15, "note": 56, "velocity": 108, "channel": 0}, {"type": "note_off", "time": 74, "note": 56, "velocity": 108, "channel": 0}, {"type": "note_on", "time": 24, "note": 53, "velocity": 105, "channel": 0}, {"type": "note_off", "time": 86, "note": 53, "velocity": 105, "channel": 0}, {"type": "note_on", "time": 60, "note": 55, "velocity": 101, "channel": 0}, {"type": "note_off", "time": 34, "note": 55, "velocity": 101, "channel": 0}, {"type": "note_on", "time": 21, "note": 59, "velocity": 108, "channel": 0}, {"type": "note_off", "time": 58, "note": 59, "velocity": 108, "channel": 0}, {"type": "note_on", "time": 49, "note": 64, "velocity": 114, "channel": 0}, {"type": "note_off", "time": 68, "note": 64, "velocity": 114, "channel": 0}, {"type": "note_on", "time": 19, "note": 59, "velocity": 111, "channel": 0}, {"type": "note_off", "time": 76, "note": 59, "velocity": 111, "channel": 0}, {"type": "note_on", "time": 47, "note": 55, "velocity": 105, "channel": 0}, {"type": "note_off", "time": 47, "note": 55, "velocity": 105, "channel": 0}, {"type": "note_on", "time": 25, "note": 59, "velocity": 110, "channel": 0}, {"type": "note_off", "time": 78, "note": 59, "velocity": 110, "channel": 0}, {"type": "note_on", "time": 20, "note": 62, "velocity": 116, "channel": 0}, {"type": "note_off", "time": 68, "note": 62, "velocity": 116, "channel": 0}, {"type": "note_on", "time": 18, "note": 67, "velocity": 114, "channel": 0}, {"type": "note_off", "time": 63, "note": 67, "velocity": 114, "channel": 0}, {"type": "note_on", "time": 23, "note": 67, "velocity": 119, "channel": 0}, {"type": "note_off", "time": 81, "note": 67, "velocity": 119, "channel": 0}, {"type": "note_on", "time": 14, "note": 69, "velocity": 111, "channel": 0}, {"type": "note_off", "time": 81, "note": 69, "velocity": 111, "channel": 0}, {"type": "note_on", "time": 28, "note": 67, "velocity": 107, "channel": 0}, {"type": "note_off", "time": 82, "note": 67, "velocity": 107, "channel": 0}, {"type": "note_on", "time": 28, "note": 67, "velocity": 111, "channel": 0}, {"type": "note_off", "time": 65, "note": 67, "velocity": 111, "channel": 0}, {"type": "note_on", "time": 23, "note": 69, "velocity": 106, "channel": 0}, {"type": "note_off", "time": 69, "note": 69, "velocity": 106, "channel": 0}, {"type": "note_on", "time": 41, "note": 64, "velocity": 107, "channel": 0}, {"type": "note_off", "time": 86, "note": 64, "velocity": 107, "channel": 0}, {"type": "note_on", "time": 77, "note": 67, "velocity": 105, "channel": 0}, {"type": "note_off", "time": 82, "note": 67, "velocity": 105, "channel": 0}, {"type": "note_on", "time": 42, "note": 65, "velocity": 107, "channel": 0}, {"type": "note_off", "time": 34, "note": 65, "velocity": 107, "channel": 0}, {"type": "note_on", "time": 12, "note": 62, "velocity": 111, "channel": 0}, {"type": "note_off", "time": 90, "note": 62, "velocity": 111, "channel": 0}, {"type": "note_on", "time": 16, "note": 60, "velocity": 107, "channel": 0}, {"type": "note_off", "time": 85, "note": 60, "velocity": 107, "channel": 0}, {"type": "note_on", "time": 25, "note": 59, "velocity": 108, "channel": 0}, {"type": "note_off", "time": 65, "note": 59, "velocity": 108, "channel": 0}, {"type": "note_on", "time": 18, "note": 62, "velocity": 110, "channel": 0}, {"type": "note_off", "time": 81, "note": 62, "velocity": 110, "channel": 0}, {"type": "note_on", "time": 29, "note": 65, "velocity": 101, "channel": 0}, {"type": "note_off", "time": 72, "note": 65, "velocity": 101, "channel": 0}, {"type": "note_on", "time": 41, "note": 68, "velocity": 99, "channel": 0}, {"type": "note_off", "time": 46, "note": 68, "velocity": 99, "channel": 0}, {"type": "note_on", "time": 21, "note": 72, "velocity": 114, "channel": 0}, {"type": "note_off", "time": 72, "note": 72, "velocity": 114, "channel": 0}, {"type": "note_on", "time": 33, "note": 65, "velocity": 107, "channel": 0}, {"type": "note_off", "time": 55, "note": 65, "velocity": 107, "channel": 0}, {"type": "note_on", "time": 28, "note": 69, "velocity": 98, "channel": 0}, {"type": "note_off", "time": 58, "note": 69, "velocity": 98, "channel": 0}, {"type": "note_on", "time": 55, "note": 72, "velocity": 107, "channel": 0}, {"type": "note_off", "time": 59, "note": 72, "velocity": 107, "channel": 0}, {"type": "note_on", "time": 19, "note": 71, "velocity": 103, "channel": 0}, {"type": "note_off", "time": 169, "note": 71, "velocity": 103, "channel": 0}, {"type": "note_on", "time": 636, "note": 71, "velocity": 112, "channel": 0}, {"type": "note_off", "time": 1001, "note": 71, "velocity": 112, "channel": 0}, {"type": "note_on", "time": 45, "note": 69, "velocity": 105, "channel": 0}, {"type": "note_off", "time": 85, "note": 69, "velocity": 105, "channel": 0}, {"type": "note_on", "time": 47, "note": 71, "velocity": 110, "channel": 0}, {"type": "note_off", "time": 85, "note": 71, "velocity": 110, "channel": 0}, {"type": "note_on", "time": 142, "note": 69, "velocity": 98, "channel": 0}, {"type": "note_off", "time": 38, "note": 69, "velocity": 98, "channel": 0}, {"type": "note_on", "time": 18, "note": 71, "velocity": 110, "channel": 0}, {"type": "note_off", "time": 91, "note": 71, "velocity": 110, "channel": 0}, {"type": "note_on", "time": 96, "note": 69, "velocity": 107, "channel": 0}, {"type": "note_off", "time": 56, "note": 69, "velocity": 107, "channel": 0}, {"type": "note_on", "time": 45, "note": 71, "velocity": 113, "channel": 0}, {"type": "note_off", "time": 55, "note": 71, "velocity": 113, "channel": 0}, {"type": "note_on", "time": 29, "note": 69, "velocity": 108, "channel": 0}, {"type": "note_off", "time": 277, "note": 69, "velocity": 108, "channel": 0}, {"type": "note_on", "time": 5, "note": 65, "velocity": 100, "channel": 0}, {"type": "note_off", "time": 67, "note": 65, "velocity": 100, "channel": 0}, {"type": "note_on", "time": 24, "note": 69, "velocity": 106, "channel": 0}, {"type": "note_off", "time": 60, "note": 69, "velocity": 106, "channel": 0}, {"type": "note_on", "time": 49, "note": 71, "velocity": 107, "channel": 0}, {"type": "note_off", "time": 78, "note": 71, "velocity": 107, "channel": 0}, {"type": "note_on", "time": 130, "note": 69, "velocity": 94, "channel": 0}, {"type": "note_off", "time": 49, "note": 69, "velocity": 94, "channel": 0}, {"type": "note_on", "time": 24, "note": 71, "velocity": 112, "channel": 0}, {"type": "note_off", "time": 96, "note": 71, "velocity": 112, "channel": 0}, {"type": "note_on", "time": 19, "note": 66, "velocity": 103, "channel": 0}, {"type": "note_off", "time": 42, "note": 66, "velocity": 103, "channel": 0}, {"type": "note_on", "time": 14, "note": 69, "velocity": 103, "channel": 0}, {"type": "note_off", "time": 80, "note": 69, "velocity": 103, "channel": 0}, {"type": "note_on", "time": 55, "note": 71, "velocity": 117, "channel": 0}, {"type": "note_off", "time": 76, "note": 71, "velocity": 117, "channel": 0}, {"type": "note_on", "time": 14, "note": 69, "velocity": 114, "channel": 0}, {"type": "note_off", "time": 56, "note": 69, "velocity": 114, "channel": 0}, {"type": "note_on", "time": 11, "note": 71, "velocity": 115, "channel": 0}, {"type": "note_off", "time": 54, "note": 71, "velocity": 115, "channel": 0}, {"type": "note_on", "time": 18, "note": 74, "velocity": 114, "channel": 0}, {"type": "note_off", "time": 80, "note": 74, "velocity": 114, "channel": 0}, {"type": "note_on", "time": 21, "note": 71, "velocity": 113, "channel": 0}, {"type": "note_off", "time": 72, "note": 71, "velocity": 113, "channel": 0}, {"type": "note_on", "time": 16, "note": 69, "velocity": 115, "channel": 0}, {"type": "note_off", "time": 76, "note": 69, "velocity": 115, "channel": 0}, {"type": "note_on", "time": 19, "note": 65, "velocity": 121, "channel": 0}, {"type": "note_off", "time": 47, "note": 65, "velocity": 121, "channel": 0}, {"type": "note_on", "time": 14, "note": 62, "velocity": 113, "channel": 0}, {"type": "note_off", "time": 115, "note": 62, "velocity": 113, "channel": 0}, {"type": "note_on", "time": 13, "note": 58, "velocity": 99, "channel": 0}, {"type": "note_off", "time": 56, "note": 58, "velocity": 99, "channel": 0}, {"type": "note_on", "time": 15, "note": 65, "velocity": 110, "channel": 0}, {"type": "note_off", "time": 274, "note": 65, "velocity": 110, "channel": 0}, {"type": "note_on", "time": 130, "note": 69, "velocity": 113, "channel": 0}, {"type": "note_off", "time": 60, "note": 69, "velocity": 113, "channel": 0}, {"type": "note_on", "time": 34, "note": 62, "velocity": 113, "channel": 0}, {"type": "note_off", "time": 37, "note": 62, "velocity": 113, "channel": 0}, {"type": "note_on", "time": 512, "note": 71, "velocity": 110, "channel": 0}, {"type": "note_off", "time": 343, "note": 71, "velocity": 110, "channel": 0}, {"type": "note_on", "time": 24, "note": 67, "velocity": 101, "channel": 0}, {"type": "note_off", "time": 67, "note": 67, "velocity": 101, "channel": 0}, {"type": "note_on", "time": 27, "note": 71, "velocity": 114, "channel": 0}, {"type": "note_off", "time": 59, "note": 71, "velocity": 114, "channel": 0}, {"type": "note_on", "time": 23, "note": 74, "velocity": 112, "channel": 0}, {"type": "note_off", "time": 143, "note": 74, "velocity": 112, "channel": 0}, {"type": "note_on", "time": 33, "note": 79, "velocity": 120, "channel": 0}, {"type": "note_off", "time": 846, "note": 79, "velocity": 120, "channel": 0}, {"type": "note_on", "time": 54, "note": 67, "velocity": 9, "channel": 0}, {"type": "note_off", "time": 103, "note": 67, "velocity": 9, "channel": 0}, {"type": "note_on", "time": 38, "note": 65, "velocity": 112, "channel": 0}, {"type": "note_off", "time": 227, "note": 65, "velocity": 112, "channel": 0}, {"type": "note_on", "time": 738, "note": 81, "velocity": 119, "channel": 0}, {"type": "note_off", "time": 1061, "note": 81, "velocity": 119, "channel": 0}, {"type": "note_on", "time": 134, "note": 79, "velocity": 101, "channel": 0}, {"type": "note_off", "time": 552, "note": 79, "velocity": 101, "channel": 0}, {"type": "note_on", "time": 36, "note": 76, "velocity": 101, "channel": 0}, {"type": "note_off", "time": 62, "note": 76, "velocity": 101, "channel": 0}, {"type": "note_on", "time": 25, "note": 73, "velocity": 102, "channel": 0}, {"type": "note_off", "time": 519, "note": 73, "velocity": 102, "channel": 0}, {"type": "note_on", "time": 21, "note": 71, "velocity": 100, "channel": 0}, {"type": "note_off", "time": 63, "note": 71, "velocity": 100, "channel": 0}, {"type": "note_on", "time": 18, "note": 73, "velocity": 106, "channel": 0}, {"type": "note_off", "time": 68, "note": 73, "velocity": 106, "channel": 0}, {"type": "note_on", "time": 55, "note": 71, "velocity": 101, "channel": 0}, {"type": "note_off", "time": 60, "note": 71, "velocity": 101, "channel": 0}, {"type": "note_on", "time": 31, "note": 69, "velocity": 100, "channel": 0}, {"type": "note_off", "time": 49, "note": 69, "velocity": 100, "channel": 0}, {"type": "note_on", "time": 29, "note": 65, "velocity": 100, "channel": 0}, {"type": "note_off", "time": 44, "note": 65, "velocity": 100, "channel": 0}, {"type": "note_on", "time": 78, "note": 69, "velocity": 95, "channel": 0}, {"type": "note_off", "time": 312, "note": 69, "velocity": 95, "channel": 0}, {"type": "note_on", "time": 38, "note": 65, "velocity": 106, "channel": 0}, {"type": "note_off", "time": 66, "note": 65, "velocity": 106, "channel": 0}, {"type": "note_on", "time": 35, "note": 62, "velocity": 105, "channel": 0}, {"type": "note_off", "time": 165, "note": 62, "velocity": 105, "channel": 0}, {"type": "note_on", "time": 26, "note": 59, "velocity": 99, "channel": 0}, {"type": "note_off", "time": 52, "note": 59, "velocity": 99, "channel": 0}, {"type": "note_on", "time": 25, "note": 57, "velocity": 107, "channel": 0}, {"type": "note_off", "time": 68, "note": 57, "velocity": 107, "channel": 0}, {"type": "note_on", "time": 33, "note": 44, "velocity": 111, "channel": 0}, {"type": "note_off", "time": 177, "note": 44, "velocity": 111, "channel": 0}, {"type": "note_on", "time": 10, "note": 63, "velocity": 112, "channel": 0}, {"type": "note_off", "time": 100, "note": 63, "velocity": 112, "channel": 0}, {"type": "note_on", "time": 772, "note": 65, "velocity": 107, "channel": 0}, {"type": "note_off", "time": 161, "note": 65, "velocity": 107, "channel": 0}, {"type": "note_on", "time": 41, "note": 70, "velocity": 103, "channel": 0}, {"type": "note_off", "time": 45, "note": 70, "velocity": 103, "channel": 0}, {"type": "note_on", "time": 41, "note": 75, "velocity": 96, "channel": 0}, {"type": "note_off", "time": 107, "note": 75, "velocity": 96, "channel": 0}, {"type": "note_on", "time": 18, "note": 74, "velocity": 98, "channel": 0}, {"type": "note_off", "time": 176, "note": 74, "velocity": 98, "channel": 0}, {"type": "note_on", "time": 23, "note": 75, "velocity": 106, "channel": 0}, {"type": "note_off", "time": 52, "note": 75, "velocity": 106, "channel": 0}, {"type": "note_on", "time": 10, "note": 72, "velocity": 100, "channel": 0}, {"type": "note_off", "time": 61, "note": 72, "velocity": 100, "channel": 0}, {"type": "note_on", "time": 44, "note": 70, "velocity": 101, "channel": 0}, {"type": "note_off", "time": 73, "note": 70, "velocity": 101, "channel": 0}, {"type": "note_on", "time": 30, "note": 66, "velocity": 104, "channel": 0}, {"type": "note_off", "time": 61, "note": 66, "velocity": 104, "channel": 0}, {"type": "note_on", "time": 23, "note": 65, "velocity": 106, "channel": 0}, {"type": "note_off", "time": 62, "note": 65, "velocity": 106, "channel": 0}, {"type": "note_on", "time": 13, "note": 63, "velocity": 107, "channel": 0}, {"type": "note_off", "time": 75, "note": 63, "velocity": 107, "channel": 0}, {"type": "note_on", "time": 34, "note": 68, "velocity": 99, "channel": 0}, {"type": "note_off", "time": 63, "note": 68, "velocity": 99, "channel": 0}, {"type": "note_on", "time": 9, "note": 66, "velocity": 100, "channel": 0}, {"type": "note_off", "time": 67, "note": 66, "velocity": 100, "channel": 0}, {"type": "note_on", "time": 18, "note": 63, "velocity": 105, "channel": 0}, {"type": "note_off", "time": 110, "note": 63, "velocity": 105, "channel": 0}, {"type": "note_on", "time": 67, "note": 65, "velocity": 110, "channel": 0}, {"type": "note_off", "time": 109, "note": 65, "velocity": 110, "channel": 0}, {"type": "note_on", "time": 17, "note": 60, "velocity": 103, "channel": 0}, {"type": "note_off", "time": 46, "note": 60, "velocity": 103, "channel": 0}, {"type": "note_on", "time": 56, "note": 68, "velocity": 101, "channel": 0}, {"type": "note_off", "time": 58, "note": 68, "velocity": 101, "channel": 0}, {"type": "note_on", "time": 16, "note": 63, "velocity": 115, "channel": 0}, {"type": "note_off", "time": 89, "note": 63, "velocity": 115, "channel": 0}, {"type": "note_on", "time": 18, "note": 70, "velocity": 100, "channel": 0}, {"type": "note_off", "time": 53, "note": 70, "velocity": 100, "channel": 0}, {"type": "note_on", "time": 38, "note": 66, "velocity": 102, "channel": 0}, {"type": "note_off", "time": 61, "note": 66, "velocity": 102, "channel": 0}, {"type": "note_on", "time": 8, "note": 46, "velocity": 108, "channel": 0}, {"type": "note_off", "time": 104, "note": 46, "velocity": 108, "channel": 0}, {"type": "note_on", "time": 48, "note": 65, "velocity": 99, "channel": 0}, {"type": "note_off", "time": 27, "note": 65, "velocity": 99, "channel": 0}, {"type": "note_on", "time": 20, "note": 62, "velocity": 102, "channel": 0}, {"type": "note_off", "time": 84, "note": 62, "velocity": 102, "channel": 0}, {"type": "note_on", "time": 17, "note": 61, "velocity": 99, "channel": 0}, {"type": "note_off", "time": 72, "note": 61, "velocity": 99, "channel": 0}, {"type": "note_on", "time": 15, "note": 65, "velocity": 89, "channel": 0}, {"type": "note_off", "time": 57, "note": 65, "velocity": 89, "channel": 0}, {"type": "note_on", "time": 11, "note": 64, "velocity": 95, "channel": 0}, {"type": "note_off", "time": 88, "note": 64, "velocity": 95, "channel": 0}, {"type": "note_on", "time": 16, "note": 69, "velocity": 101, "channel": 0}, {"type": "note_off", "time": 81, "note": 69, "velocity": 101, "channel": 0}, {"type": "note_on", "time": 7, "note": 68, "velocity": 97, "channel": 0}, {"type": "note_off", "time": 82, "note": 68, "velocity": 97, "channel": 0}, {"type": "note_on", "time": 22, "note": 64, "velocity": 104, "channel": 0}, {"type": "note_off", "time": 74, "note": 64, "velocity": 104, "channel": 0}, {"type": "note_on", "time": 23, "note": 59, "velocity": 104, "channel": 0}, {"type": "note_off", "time": 76, "note": 59, "velocity": 104, "channel": 0}, {"type": "note_on", "time": 14, "note": 58, "velocity": 104, "channel": 0}, {"type": "note_off", "time": 69, "note": 58, "velocity": 104, "channel": 0}, {"type": "note_on", "time": 18, "note": 60, "velocity": 102, "channel": 0}, {"type": "note_off", "time": 78, "note": 60, "velocity": 102, "channel": 0}, {"type": "note_on", "time": 7, "note": 62, "velocity": 111, "channel": 0}, {"type": "note_off", "time": 90, "note": 62, "velocity": 111, "channel": 0}, {"type": "note_on", "time": 34, "note": 67, "velocity": 101, "channel": 0}, {"type": "note_off", "time": 65, "note": 67, "velocity": 101, "channel": 0}, {"type": "note_on", "time": 10, "note": 67, "velocity": 111, "channel": 0}, {"type": "note_off", "time": 94, "note": 67, "velocity": 111, "channel": 0}, {"type": "note_on", "time": 8, "note": 65, "velocity": 104, "channel": 0}, {"type": "note_off", "time": 71, "note": 65, "velocity": 104, "channel": 0}, {"type": "note_on", "time": 12, "note": 69, "velocity": 102, "channel": 0}, {"type": "note_off", "time": 83, "note": 69, "velocity": 102, "channel": 0}, {"type": "note_on", "time": 19, "note": 71, "velocity": 107, "channel": 0}, {"type": "note_off", "time": 97, "note": 71, "velocity": 107, "channel": 0}, {"type": "note_on", "time": 15, "note": 70, "velocity": 106, "channel": 0}, {"type": "note_off", "time": 82, "note": 70, "velocity": 106, "channel": 0}, {"type": "note_on", "time": 36, "note": 66, "velocity": 106, "channel": 0}, {"type": "note_off", "time": 81, "note": 66, "velocity": 106, "channel": 0}, {"type": "note_on", "time": 7, "note": 65, "velocity": 109, "channel": 0}, {"type": "note_off", "time": 30, "note": 65, "velocity": 109, "channel": 0}, {"type": "note_on", "time": 16, "note": 63, "velocity": 105, "channel": 0}, {"type": "note_off", "time": 97, "note": 63, "velocity": 105, "channel": 0}, {"type": "note_on", "time": 14, "note": 68, "velocity": 108, "channel": 0}, {"type": "note_off", "time": 78, "note": 68, "velocity": 108, "channel": 0}, {"type": "note_on", "time": 14, "note": 65, "velocity": 105, "channel": 0}, {"type": "note_off", "time": 76, "note": 65, "velocity": 105, "channel": 0}, {"type": "note_on", "time": 7, "note": 63, "velocity": 113, "channel": 0}, {"type": "note_off", "time": 79, "note": 63, "velocity": 113, "channel": 0}, {"type": "note_on", "time": 17, "note": 58, "velocity": 107, "channel": 0}, {"type": "note_off", "time": 55, "note": 58, "velocity": 107, "channel": 0}, {"type": "note_on", "time": 22, "note": 65, "velocity": 110, "channel": 0}, {"type": "note_off", "time": 104, "note": 65, "velocity": 110, "channel": 0}, {"type": "note_on", "time": 21, "note": 60, "velocity": 103, "channel": 0}, {"type": "note_off", "time": 54, "note": 60, "velocity": 103, "channel": 0}, {"type": "note_on", "time": 27, "note": 58, "velocity": 105, "channel": 0}, {"type": "note_off", "time": 67, "note": 58, "velocity": 105, "channel": 0}, {"type": "note_on", "time": 61, "note": 51, "velocity": 108, "channel": 0}, {"type": "note_off", "time": 76, "note": 51, "velocity": 108, "channel": 0}, {"type": "note_on", "time": 25, "note": 54, "velocity": 111, "channel": 0}, {"type": "note_off", "time": 50, "note": 54, "velocity": 111, "channel": 0}, {"type": "note_on", "time": 10, "note": 57, "velocity": 102, "channel": 0}, {"type": "note_off", "time": 72, "note": 57, "velocity": 102, "channel": 0}, {"type": "note_on", "time": 666, "note": 49, "velocity": 113, "channel": 0}, {"type": "note_off", "time": 87, "note": 49, "velocity": 113, "channel": 0}, {"type": "note_on", "time": 20, "note": 53, "velocity": 106, "channel": 0}, {"type": "note_off", "time": 54, "note": 53, "velocity": 106, "channel": 0}, {"type": "note_on", "time": 16, "note": 58, "velocity": 107, "channel": 0}, {"type": "note_off", "time": 83, "note": 58, "velocity": 107, "channel": 0}, {"type": "note_on", "time": 1, "note": 44, "velocity": 114, "channel": 0}, {"type": "note_off", "time": 274, "note": 44, "velocity": 114, "channel": 0}, {"type": "note_on", "time": 66, "note": 58, "velocity": 103, "channel": 0}, {"type": "note_off", "time": 39, "note": 58, "velocity": 103, "channel": 0}, {"type": "note_on", "time": 26, "note": 48, "velocity": 110, "channel": 0}, {"type": "note_off", "time": 84, "note": 48, "velocity": 110, "channel": 0}, {"type": "note_on", "time": 20, "note": 54, "velocity": 105, "channel": 0}, {"type": "note_off", "time": 56, "note": 54, "velocity": 105, "channel": 0}, {"type": "note_on", "time": 16, "note": 58, "velocity": 106, "channel": 0}, {"type": "note_off", "time": 83, "note": 58, "velocity": 106, "channel": 0}, {"type": "note_on", "time": 20, "note": 59, "velocity": 104, "channel": 0}, {"type": "note_off", "time": 30, "note": 59, "velocity": 104, "channel": 0}, {"type": "note_on", "time": 9, "note": 58, "velocity": 100, "channel": 0}, {"type": "note_off", "time": 25, "note": 58, "velocity": 100, "channel": 0}, {"type": "note_on", "time": 16, "note": 50, "velocity": 103, "channel": 0}, {"type": "note_off", "time": 82, "note": 50, "velocity": 103, "channel": 0}, {"type": "note_on", "time": 22, "note": 54, "velocity": 103, "channel": 0}, {"type": "note_off", "time": 63, "note": 54, "velocity": 103, "channel": 0}, {"type": "note_on", "time": 8, "note": 59, "velocity": 102, "channel": 0}, {"type": "note_off", "time": 65, "note": 59, "velocity": 102, "channel": 0}, {"type": "note_on", "time": 17, "note": 62, "velocity": 109, "channel": 0}, {"type": "note_off", "time": 91, "note": 62, "velocity": 109, "channel": 0}, {"type": "note_on", "time": 5, "note": 59, "velocity": 102, "channel": 0}, {"type": "note_off", "time": 65, "note": 59, "velocity": 102, "channel": 0}, {"type": "note_on", "time": 19, "note": 54, "velocity": 100, "channel": 0}, {"type": "note_off", "time": 76, "note": 54, "velocity": 100, "channel": 0}, {"type": "note_on", "time": 6, "note": 68, "velocity": 96, "channel": 0}, {"type": "note_off", "time": 87, "note": 68, "velocity": 96, "channel": 0}, {"type": "note_on", "time": 16, "note": 62, "velocity": 105, "channel": 0}, {"type": "note_off", "time": 85, "note": 62, "velocity": 105, "channel": 0}, {"type": "note_on", "time": 1, "note": 59, "velocity": 101, "channel": 0}, {"type": "note_off", "time": 76, "note": 59, "velocity": 101, "channel": 0}, {"type": "note_on", "time": 31, "note": 55, "velocity": 102, "channel": 0}, {"type": "note_off", "time": 78, "note": 55, "velocity": 102, "channel": 0}, {"type": "note_on", "time": 27, "note": 57, "velocity": 103, "channel": 0}, {"type": "note_off", "time": 56, "note": 57, "velocity": 103, "channel": 0}, {"type": "note_on", "time": 25, "note": 59, "velocity": 102, "channel": 0}, {"type": "note_off", "time": 63, "note": 59, "velocity": 102, "channel": 0}, {"type": "note_on", "time": 20, "note": 49, "velocity": 111, "channel": 0}, {"type": "note_off", "time": 85, "note": 49, "velocity": 111, "channel": 0}, {"type": "note_on", "time": 1, "note": 62, "velocity": 109, "channel": 0}, {"type": "note_off", "time": 39, "note": 62, "velocity": 109, "channel": 0}, {"type": "note_on", "time": 18, "note": 64, "velocity": 107, "channel": 0}, {"type": "note_off", "time": 106, "note": 64, "velocity": 107, "channel": 0}, {"type": "note_on", "time": 11, "note": 67, "velocity": 108, "channel": 0}, {"type": "note_off", "time": 168, "note": 67, "velocity": 108, "channel": 0}, {"type": "note_on", "time": 22, "note": 65, "velocity": 106, "channel": 0}, {"type": "note_off", "time": 88, "note": 65, "velocity": 106, "channel": 0}, {"type": "note_on", "time": 7, "note": 69, "velocity": 110, "channel": 0}, {"type": "note_off", "time": 62, "note": 69, "velocity": 110, "channel": 0}, {"type": "note_on", "time": 14, "note": 71, "velocity": 115, "channel": 0}, {"type": "note_off", "time": 87, "note": 71, "velocity": 115, "channel": 0}, {"type": "note_on", "time": 33, "note": 62, "velocity": 108, "channel": 0}, {"type": "note_off", "time": 65, "note": 62, "velocity": 108, "channel": 0}, {"type": "note_on", "time": 15, "note": 67, "velocity": 116, "channel": 0}, {"type": "note_off", "time": 62, "note": 67, "velocity": 116, "channel": 0}, {"type": "note_on", "time": 11, "note": 71, "velocity": 112, "channel": 0}, {"type": "note_off", "time": 77, "note": 71, "velocity": 112, "channel": 0}, {"type": "note_on", "time": 12, "note": 75, "velocity": 115, "channel": 0}, {"type": "note_off", "time": 68, "note": 75, "velocity": 115, "channel": 0}, {"type": "note_on", "time": 7, "note": 79, "velocity": 120, "channel": 0}, {"type": "note_off", "time": 193, "note": 79, "velocity": 120, "channel": 0}, {"type": "note_on", "time": 10, "note": 49, "velocity": 122, "channel": 0}, {"type": "note_off", "time": 189, "note": 49, "velocity": 122, "channel": 0}, {"type": "note_on", "time": 1116, "note": 79, "velocity": 125, "channel": 0}, {"type": "note_off", "time": 1267, "note": 79, "velocity": 125, "channel": 0}, {"type": "note_on", "time": 28, "note": 83, "velocity": 108, "channel": 0}, {"type": "note_off", "time": 161, "note": 83, "velocity": 108, "channel": 0}, {"type": "note_on", "time": 4, "note": 77, "velocity": 109, "channel": 0}, {"type": "note_off", "time": 520, "note": 77, "velocity": 109, "channel": 0}, {"type": "note_on", "time": 501, "note": 81, "velocity": 106, "channel": 0}, {"type": "note_off", "time": 279, "note": 81, "velocity": 106, "channel": 0}, {"type": "note_on", "time": 32, "note": 77, "velocity": 105, "channel": 0}, {"type": "note_off", "time": 479, "note": 77, "velocity": 105, "channel": 0}, {"type": "note_on", "time": 604, "note": 81, "velocity": 95, "channel": 0}, {"type": "note_off", "time": 929, "note": 81, "velocity": 95, "channel": 0}, {"type": "note_on", "time": 63, "note": 77, "velocity": 97, "channel": 0}, {"type": "note_off", "time": 228, "note": 77, "velocity": 97, "channel": 0}, {"type": "note_on", "time": 41, "note": 79, "velocity": 92, "channel": 0}, {"type": "note_off", "time": 96, "note": 79, "velocity": 92, "channel": 0}, {"type": "note_on", "time": 67, "note": 77, "velocity": 98, "channel": 0}, {"type": "note_off", "time": 145, "note": 77, "velocity": 98, "channel": 0}, {"type": "note_on", "time": 98, "note": 81, "velocity": 82, "channel": 0}, {"type": "note_off", "time": 215, "note": 81, "velocity": 82, "channel": 0}, {"type": "note_on", "time": 116, "note": 74, "velocity": 96, "channel": 0}, {"type": "note_off", "time": 76, "note": 74, "velocity": 96, "channel": 0}, {"type": "note_on", "time": 16, "note": 71, "velocity": 105, "channel": 0}, {"type": "note_off", "time": 95, "note": 71, "velocity": 105, "channel": 0}, {"type": "note_on", "time": 15, "note": 69, "velocity": 103, "channel": 0}, {"type": "note_off", "time": 85, "note": 69, "velocity": 103, "channel": 0}, {"type": "note_on", "time": 37, "note": 65, "velocity": 110, "channel": 0}, {"type": "note_off", "time": 91, "note": 65, "velocity": 110, "channel": 0}, {"type": "note_on", "time": 625, "note": 81, "velocity": 110, "channel": 0}, {"type": "note_off", "time": 726, "note": 81, "velocity": 110, "channel": 0}, {"type": "note_on", "time": 32, "note": 77, "velocity": 98, "channel": 0}, {"type": "note_off", "time": 49, "note": 77, "velocity": 98, "channel": 0}, {"type": "note_on", "time": 119, "note": 74, "velocity": 94, "channel": 0}, {"type": "note_off", "time": 259, "note": 74, "velocity": 94, "channel": 0}, {"type": "note_on", "time": 337, "note": 81, "velocity": 99, "channel": 0}, {"type": "note_off", "time": 715, "note": 81, "velocity": 99, "channel": 0}, {"type": "note_on", "time": 43, "note": 77, "velocity": 96, "channel": 0}, {"type": "note_off", "time": 105, "note": 77, "velocity": 96, "channel": 0}, {"type": "note_on", "time": 16, "note": 79, "velocity": 106, "channel": 0}, {"type": "note_off", "time": 56, "note": 79, "velocity": 106, "channel": 0}, {"type": "note_on", "time": 10, "note": 81, "velocity": 98, "channel": 0}, {"type": "note_off", "time": 56, "note": 81, "velocity": 98, "channel": 0}, {"type": "note_on", "time": 347, "note": 74, "velocity": 95, "channel": 0}, {"type": "note_off", "time": 90, "note": 74, "velocity": 95, "channel": 0}, {"type": "note_on", "time": 27, "note": 71, "velocity": 95, "channel": 0}, {"type": "note_off", "time": 247, "note": 71, "velocity": 95, "channel": 0}, {"type": "note_on", "time": 114, "note": 69, "velocity": 110, "channel": 0}, {"type": "note_off", "time": 48, "note": 69, "velocity": 110, "channel": 0}, {"type": "note_on", "time": 12, "note": 74, "velocity": 111, "channel": 0}, {"type": "note_off", "time": 70, "note": 74, "velocity": 111, "channel": 0}, {"type": "note_on", "time": 5, "note": 73, "velocity": 114, "channel": 0}, {"type": "note_off", "time": 127, "note": 73, "velocity": 114, "channel": 0}, {"type": "note_on", "time": 9, "note": 71, "velocity": 115, "channel": 0}, {"type": "note_off", "time": 73, "note": 71, "velocity": 115, "channel": 0}, {"type": "note_on", "time": 10, "note": 69, "velocity": 117, "channel": 0}, {"type": "note_off", "time": 120, "note": 69, "velocity": 117, "channel": 0}, {"type": "note_on", "time": 16, "note": 67, "velocity": 112, "channel": 0}, {"type": "note_off", "time": 115, "note": 67, "velocity": 112, "channel": 0}, {"type": "note_on", "time": 14, "note": 71, "velocity": 111, "channel": 0}, {"type": "note_off", "time": 80, "note": 71, "velocity": 111, "channel": 0}, {"type": "note_on", "time": 7, "note": 69, "velocity": 120, "channel": 0}, {"type": "note_off", "time": 85, "note": 69, "velocity": 120, "channel": 0}, {"type": "note_on", "time": 13, "note": 65, "velocity": 117, "channel": 0}, {"type": "note_off", "time": 58, "note": 65, "velocity": 117, "channel": 0}, {"type": "note_on", "time": 12, "note": 62, "velocity": 115, "channel": 0}, {"type": "note_off", "time": 98, "note": 62, "velocity": 115, "channel": 0}, {"type": "note_on", "time": 11, "note": 58, "velocity": 109, "channel": 0}, {"type": "note_off", "time": 78, "note": 58, "velocity": 109, "channel": 0}, {"type": "note_on", "time": 29, "note": 65, "velocity": 112, "channel": 0}, {"type": "note_off", "time": 69, "note": 65, "velocity": 112, "channel": 0}, {"type": "note_on", "time": 14, "note": 62, "velocity": 108, "channel": 0}, {"type": "note_off", "time": 85, "note": 62, "velocity": 108, "channel": 0}, {"type": "note_on", "time": 549, "note": 80, "velocity": 107, "channel": 0}, {"type": "note_off", "time": 748, "note": 80, "velocity": 107, "channel": 0}, {"type": "note_on", "time": 127, "note": 78, "velocity": 98, "channel": 0}, {"type": "note_off", "time": 194, "note": 78, "velocity": 98, "channel": 0}, {"type": "note_on", "time": 108, "note": 77, "velocity": 100, "channel": 0}, {"type": "note_off", "time": 157, "note": 77, "velocity": 100, "channel": 0}, {"type": "note_on", "time": 9, "note": 76, "velocity": 99, "channel": 0}, {"type": "note_off", "time": 93, "note": 76, "velocity": 99, "channel": 0}, {"type": "note_on", "time": 9, "note": 75, "velocity": 101, "channel": 0}, {"type": "note_off", "time": 88, "note": 75, "velocity": 101, "channel": 0}, {"type": "note_on", "time": 6, "note": 72, "velocity": 95, "channel": 0}, {"type": "note_off", "time": 79, "note": 72, "velocity": 95, "channel": 0}, {"type": "note_on", "time": 13, "note": 74, "velocity": 103, "channel": 0}, {"type": "note_off", "time": 89, "note": 74, "velocity": 103, "channel": 0}, {"type": "note_on", "time": 44, "note": 68, "velocity": 98, "channel": 0}, {"type": "note_off", "time": 51, "note": 68, "velocity": 98, "channel": 0}, {"type": "note_on", "time": 20, "note": 73, "velocity": 99, "channel": 0}, {"type": "note_off", "time": 49, "note": 73, "velocity": 99, "channel": 0}, {"type": "note_on", "time": 40, "note": 70, "velocity": 101, "channel": 0}, {"type": "note_off", "time": 70, "note": 70, "velocity": 101, "channel": 0}, {"type": "note_on", "time": 59, "note": 66, "velocity": 105, "channel": 0}, {"type": "note_off", "time": 67, "note": 66, "velocity": 105, "channel": 0}, {"type": "note_on", "time": 27, "note": 63, "velocity": 102, "channel": 0}, {"type": "note_off", "time": 94, "note": 63, "velocity": 102, "channel": 0}, {"type": "note_on", "time": 640, "note": 70, "velocity": 104, "channel": 0}, {"type": "note_off", "time": 370, "note": 70, "velocity": 104, "channel": 0}, {"type": "note_on", "time": 33, "note": 63, "velocity": 103, "channel": 0}, {"type": "note_off", "time": 95, "note": 63, "velocity": 103, "channel": 0}, {"type": "note_on", "time": 11, "note": 68, "velocity": 97, "channel": 0}, {"type": "note_off", "time": 70, "note": 68, "velocity": 97, "channel": 0}, {"type": "note_on", "time": 34, "note": 66, "velocity": 105, "channel": 0}, {"type": "note_off", "time": 69, "note": 66, "velocity": 105, "channel": 0}, {"type": "note_on", "time": 10, "note": 63, "velocity": 111, "channel": 0}, {"type": "note_off", "time": 93, "note": 63, "velocity": 111, "channel": 0}, {"type": "note_on", "time": 14, "note": 58, "velocity": 97, "channel": 0}, {"type": "note_off", "time": 61, "note": 58, "velocity": 97, "channel": 0}, {"type": "note_on", "time": 0, "note": 72, "velocity": 107, "channel": 0}, {"type": "note_off", "time": 108, "note": 72, "velocity": 107, "channel": 0}, {"type": "note_on", "time": 35, "note": 60, "velocity": 108, "channel": 0}, {"type": "note_off", "time": 41, "note": 60, "velocity": 108, "channel": 0}, {"type": "note_on", "time": 17, "note": 58, "velocity": 104, "channel": 0}, {"type": "note_off", "time": 59, "note": 58, "velocity": 104, "channel": 0}, {"type": "note_on", "time": 25, "note": 53, "velocity": 102, "channel": 0}, {"type": "note_off", "time": 61, "note": 53, "velocity": 102, "channel": 0}, {"type": "note_on", "time": 9, "note": 51, "velocity": 106, "channel": 0}, {"type": "note_off", "time": 99, "note": 51, "velocity": 106, "channel": 0}, {"type": "note_on", "time": 7, "note": 57, "velocity": 103, "channel": 0}, {"type": "note_off", "time": 65, "note": 57, "velocity": 103, "channel": 0}, {"type": "note_on", "time": 7, "note": 53, "velocity": 109, "channel": 0}, {"type": "note_off", "time": 92, "note": 53, "velocity": 109, "channel": 0}, {"type": "note_on", "time": 32, "note": 46, "velocity": 111, "channel": 0}, {"type": "note_off", "time": 100, "note": 46, "velocity": 111, "channel": 0}, {"type": "note_on", "time": 22, "note": 53, "velocity": 106, "channel": 0}, {"type": "note_off", "time": 98, "note": 53, "velocity": 106, "channel": 0}, {"type": "note_on", "time": 36, "note": 46, "velocity": 106, "channel": 0}, {"type": "note_off", "time": 56, "note": 46, "velocity": 106, "channel": 0}, {"type": "note_on", "time": 19, "note": 44, "velocity": 109, "channel": 0}, {"type": "note_off", "time": 452, "note": 44, "velocity": 109, "channel": 0}, {"type": "note_on", "time": 9, "note": 46, "velocity": 110, "channel": 0}, {"type": "note_off", "time": 68, "note": 46, "velocity": 110, "channel": 0}, {"type": "note_on", "time": 149, "note": 51, "velocity": 109, "channel": 0}, {"type": "note_off", "time": 107, "note": 51, "velocity": 109, "channel": 0}, {"type": "note_on", "time": 440, "note": 46, "velocity": 113, "channel": 0}, {"type": "note_off", "time": 103, "note": 46, "velocity": 113, "channel": 0}, {"type": "note_on", "time": 25, "note": 65, "velocity": 107, "channel": 0}, {"type": "note_off", "time": 82, "note": 65, "velocity": 107, "channel": 0}, {"type": "note_on", "time": 11, "note": 58, "velocity": 109, "channel": 0}, {"type": "note_off", "time": 46, "note": 58, "velocity": 109, "channel": 0}, {"type": "note_on", "time": 21, "note": 63, "velocity": 113, "channel": 0}, {"type": "note_off", "time": 61, "note": 63, "velocity": 113, "channel": 0}, {"type": "note_on", "time": 12, "note": 45, "velocity": 110, "channel": 0}, {"type": "note_off", "time": 276, "note": 45, "velocity": 110, "channel": 0}, {"type": "note_on", "time": 583, "note": 50, "velocity": 107, "channel": 0}, {"type": "note_off", "time": 103, "note": 50, "velocity": 107, "channel": 0}, {"type": "note_on", "time": 15, "note": 53, "velocity": 105, "channel": 0}, {"type": "note_off", "time": 55, "note": 53, "velocity": 105, "channel": 0}, {"type": "note_on", "time": 9, "note": 57, "velocity": 107, "channel": 0}, {"type": "note_off", "time": 87, "note": 57, "velocity": 107, "channel": 0}, {"type": "note_on", "time": 25, "note": 49, "velocity": 111, "channel": 0}, {"type": "note_off", "time": 65, "note": 49, "velocity": 111, "channel": 0}, {"type": "note_on", "time": 25, "note": 51, "velocity": 103, "channel": 0}, {"type": "note_off", "time": 60, "note": 51, "velocity": 103, "channel": 0}, {"type": "note_on", "time": 68, "note": 53, "velocity": 102, "channel": 0}, {"type": "note_off", "time": 65, "note": 53, "velocity": 102, "channel": 0}, {"type": "note_on", "time": 21, "note": 58, "velocity": 99, "channel": 0}, {"type": "note_off", "time": 56, "note": 58, "velocity": 99, "channel": 0}, {"type": "note_on", "time": 27, "note": 49, "velocity": 101, "channel": 0}, {"type": "note_off", "time": 148, "note": 49, "velocity": 101, "channel": 0}, {"type": "note_on", "time": 1, "note": 59, "velocity": 99, "channel": 0}, {"type": "note_off", "time": 86, "note": 59, "velocity": 99, "channel": 0}, {"type": "note_on", "time": 5, "note": 63, "velocity": 109, "channel": 0}, {"type": "note_off", "time": 113, "note": 63, "velocity": 109, "channel": 0}, {"type": "note_on", "time": 0, "note": 58, "velocity": 90, "channel": 0}, {"type": "note_off", "time": 76, "note": 58, "velocity": 90, "channel": 0}, {"type": "note_on", "time": 7, "note": 54, "velocity": 96, "channel": 0}, {"type": "note_off", "time": 60, "note": 54, "velocity": 96, "channel": 0}, {"type": "note_on", "time": 60, "note": 63, "velocity": 94, "channel": 0}, {"type": "note_off", "time": 65, "note": 63, "velocity": 94, "channel": 0}, {"type": "note_on", "time": 6, "note": 69, "velocity": 99, "channel": 0}, {"type": "note_off", "time": 151, "note": 69, "velocity": 99, "channel": 0}, {"type": "note_on", "time": 23, "note": 61, "velocity": 103, "channel": 0}, {"type": "note_off", "time": 63, "note": 61, "velocity": 103, "channel": 0}, {"type": "note_on", "time": 15, "note": 69, "velocity": 90, "channel": 0}, {"type": "note_off", "time": 90, "note": 69, "velocity": 90, "channel": 0}, {"type": "note_on", "time": 24, "note": 66, "velocity": 97, "channel": 0}, {"type": "note_off", "time": 59, "note": 66, "velocity": 97, "channel": 0}, {"type": "note_on", "time": 1, "note": 62, "velocity": 109, "channel": 0}, {"type": "note_off", "time": 111, "note": 62, "velocity": 109, "channel": 0}, {"type": "note_on", "time": 16, "note": 61, "velocity": 104, "channel": 0}, {"type": "note_off", "time": 83, "note": 61, "velocity": 104, "channel": 0}, {"type": "note_on", "time": 3, "note": 56, "velocity": 103, "channel": 0}, {"type": "note_off", "time": 87, "note": 56, "velocity": 103, "channel": 0}, {"type": "note_on", "time": 18, "note": 54, "velocity": 95, "channel": 0}, {"type": "note_off", "time": 50, "note": 54, "velocity": 95, "channel": 0}, {"type": "note_on", "time": 12, "note": 56, "velocity": 107, "channel": 0}, {"type": "note_off", "time": 100, "note": 56, "velocity": 107, "channel": 0}, {"type": "note_on", "time": 43, "note": 57, "velocity": 99, "channel": 0}, {"type": "note_off", "time": 44, "note": 57, "velocity": 99, "channel": 0}, {"type": "note_on", "time": 4, "note": 59, "velocity": 106, "channel": 0}, {"type": "note_off", "time": 81, "note": 59, "velocity": 106, "channel": 0}, {"type": "note_on", "time": 16, "note": 61, "velocity": 113, "channel": 0}, {"type": "note_off", "time": 71, "note": 61, "velocity": 113, "channel": 0}, {"type": "note_on", "time": 12, "note": 63, "velocity": 113, "channel": 0}, {"type": "note_off", "time": 58, "note": 63, "velocity": 113, "channel": 0}, {"type": "note_on", "time": 10, "note": 64, "velocity": 114, "channel": 0}, {"type": "note_off", "time": 96, "note": 64, "velocity": 114, "channel": 0}, {"type": "note_on", "time": 9, "note": 66, "velocity": 106, "channel": 0}, {"type": "note_off", "time": 79, "note": 66, "velocity": 106, "channel": 0}, {"type": "note_on", "time": 43, "note": 67, "velocity": 107, "channel": 0}, {"type": "note_off", "time": 60, "note": 67, "velocity": 107, "channel": 0}, {"type": "note_on", "time": 12, "note": 69, "velocity": 106, "channel": 0}, {"type": "note_off", "time": 70, "note": 69, "velocity": 106, "channel": 0}, {"type": "note_on", "time": 24, "note": 73, "velocity": 100, "channel": 0}, {"type": "note_off", "time": 85, "note": 73, "velocity": 100, "channel": 0}, {"type": "note_on", "time": 19, "note": 74, "velocity": 97, "channel": 0}, {"type": "note_off", "time": 82, "note": 74, "velocity": 97, "channel": 0}, {"type": "note_on", "time": 19, "note": 71, "velocity": 100, "channel": 0}, {"type": "note_off", "time": 72, "note": 71, "velocity": 100, "channel": 0}, {"type": "note_on", "time": 21, "note": 69, "velocity": 104, "channel": 0}, {"type": "note_off", "time": 88, "note": 69, "velocity": 104, "channel": 0}, {"type": "note_on", "time": 27, "note": 66, "velocity": 104, "channel": 0}, {"type": "note_off", "time": 65, "note": 66, "velocity": 104, "channel": 0}, {"type": "note_on", "time": 5, "note": 62, "velocity": 109, "channel": 0}, {"type": "note_off", "time": 100, "note": 62, "velocity": 109, "channel": 0}, {"type": "note_on", "time": 19, "note": 57, "velocity": 95, "channel": 0}, {"type": "note_off", "time": 61, "note": 57, "velocity": 95, "channel": 0}, {"type": "note_on", "time": 18, "note": 65, "velocity": 108, "channel": 0}, {"type": "note_off", "time": 81, "note": 65, "velocity": 108, "channel": 0}, {"type": "note_on", "time": 5, "note": 62, "velocity": 107, "channel": 0}, {"type": "note_off", "time": 106, "note": 62, "velocity": 107, "channel": 0}, {"type": "note_on", "time": 7, "note": 59, "velocity": 102, "channel": 0}, {"type": "note_off", "time": 64, "note": 59, "velocity": 102, "channel": 0}, {"type": "note_on", "time": 12, "note": 53, "velocity": 97, "channel": 0}, {"type": "note_off", "time": 136, "note": 53, "velocity": 97, "channel": 0}, {"type": "note_on", "time": 632, "note": 71, "velocity": 111, "channel": 0}, {"type": "note_off", "time": 366, "note": 71, "velocity": 111, "channel": 0}, {"type": "note_on", "time": 23, "note": 65, "velocity": 105, "channel": 0}, {"type": "note_off", "time": 45, "note": 65, "velocity": 105, "channel": 0}, {"type": "note_on", "time": 47, "note": 71, "velocity": 115, "channel": 0}, {"type": "note_off", "time": 75, "note": 71, "velocity": 115, "channel": 0}, {"type": "note_on", "time": 26, "note": 71, "velocity": 117, "channel": 0}, {"type": "note_off", "time": 73, "note": 71, "velocity": 117, "channel": 0}, {"type": "note_on", "time": 11, "note": 72, "velocity": 113, "channel": 0}, {"type": "note_off", "time": 68, "note": 72, "velocity": 113, "channel": 0}, {"type": "note_on", "time": 22, "note": 73, "velocity": 114, "channel": 0}, {"type": "note_off", "time": 92, "note": 73, "velocity": 114, "channel": 0}, {"type": "note_on", "time": 28, "note": 71, "velocity": 118, "channel": 0}, {"type": "note_off", "time": 76, "note": 71, "velocity": 118, "channel": 0}, {"type": "note_on", "time": 18, "note": 71, "velocity": 117, "channel": 0}, {"type": "note_off", "time": 80, "note": 71, "velocity": 117, "channel": 0}, {"type": "note_on", "time": 21, "note": 72, "velocity": 112, "channel": 0}, {"type": "note_off", "time": 70, "note": 72, "velocity": 112, "channel": 0}, {"type": "note_on", "time": 21, "note": 73, "velocity": 112, "channel": 0}, {"type": "note_off", "time": 99, "note": 73, "velocity": 112, "channel": 0}, {"type": "note_on", "time": 19, "note": 71, "velocity": 115, "channel": 0}, {"type": "note_off", "time": 76, "note": 71, "velocity": 115, "channel": 0}, {"type": "note_on", "time": 15, "note": 71, "velocity": 116, "channel": 0}, {"type": "note_off", "time": 83, "note": 71, "velocity": 116, "channel": 0}, {"type": "note_on", "time": 14, "note": 72, "velocity": 113, "channel": 0}, {"type": "note_off", "time": 57, "note": 72, "velocity": 113, "channel": 0}, {"type": "note_on", "time": 21, "note": 73, "velocity": 110, "channel": 0}, {"type": "note_off", "time": 71, "note": 73, "velocity": 110, "channel": 0}, {"type": "note_on", "time": 16, "note": 71, "velocity": 115, "channel": 0}, {"type": "note_off", "time": 83, "note": 71, "velocity": 115, "channel": 0}, {"type": "note_on", "time": 28, "note": 71, "velocity": 114, "channel": 0}, {"type": "note_off", "time": 87, "note": 71, "velocity": 114, "channel": 0}, {"type": "note_on", "time": 9, "note": 72, "velocity": 111, "channel": 0}, {"type": "note_off", "time": 85, "note": 72, "velocity": 111, "channel": 0}, {"type": "note_on", "time": 20, "note": 53, "velocity": 114, "channel": 0}, {"type": "note_off", "time": 66, "note": 53, "velocity": 114, "channel": 0}, {"type": "note_on", "time": 13, "note": 59, "velocity": 112, "channel": 0}, {"type": "note_off", "time": 149, "note": 59, "velocity": 112, "channel": 0}, {"type": "note_on", "time": 31, "note": 60, "velocity": 106, "channel": 0}, {"type": "note_off", "time": 65, "note": 60, "velocity": 106, "channel": 0}, {"type": "note_on", "time": 31, "note": 53, "velocity": 114, "channel": 0}, {"type": "note_off", "time": 66, "note": 53, "velocity": 114, "channel": 0}, {"type": "note_on", "time": 6, "note": 59, "velocity": 112, "channel": 0}, {"type": "note_off", "time": 164, "note": 59, "velocity": 112, "channel": 0}, {"type": "note_on", "time": 19, "note": 60, "velocity": 114, "channel": 0}, {"type": "note_off", "time": 80, "note": 60, "velocity": 114, "channel": 0}, {"type": "note_on", "time": 45, "note": 53, "velocity": 108, "channel": 0}, {"type": "note_off", "time": 65, "note": 53, "velocity": 108, "channel": 0}, {"type": "note_on", "time": 11, "note": 59, "velocity": 111, "channel": 0}, {"type": "note_off", "time": 147, "note": 59, "velocity": 111, "channel": 0}, {"type": "note_on", "time": 10, "note": 60, "velocity": 112, "channel": 0}, {"type": "note_off", "time": 89, "note": 60, "velocity": 112, "channel": 0}, {"type": "note_on", "time": 8, "note": 72, "velocity": 106, "channel": 0}, {"type": "note_off", "time": 101, "note": 72, "velocity": 106, "channel": 0}, {"type": "note_on", "time": 12, "note": 57, "velocity": 111, "channel": 0}, {"type": "note_off", "time": 84, "note": 57, "velocity": 111, "channel": 0}, {"type": "note_on", "time": 13, "note": 50, "velocity": 104, "channel": 0}, {"type": "note_off", "time": 137, "note": 50, "velocity": 104, "channel": 0}, {"type": "note_on", "time": 504, "note": 72, "velocity": 116, "channel": 0}, {"type": "note_off", "time": 91, "note": 72, "velocity": 116, "channel": 0}, {"type": "note_on", "time": 12, "note": 73, "velocity": 113, "channel": 0}, {"type": "note_off", "time": 83, "note": 73, "velocity": 113, "channel": 0}, {"type": "note_on", "time": 13, "note": 71, "velocity": 112, "channel": 0}, {"type": "note_off", "time": 77, "note": 71, "velocity": 112, "channel": 0}, {"type": "note_on", "time": 6, "note": 72, "velocity": 117, "channel": 0}, {"type": "note_off", "time": 85, "note": 72, "velocity": 117, "channel": 0}, {"type": "note_on", "time": 15, "note": 71, "velocity": 112, "channel": 0}, {"type": "note_off", "time": 183, "note": 71, "velocity": 112, "channel": 0}, {"type": "note_on", "time": 5, "note": 72, "velocity": 119, "channel": 0}, {"type": "note_off", "time": 65, "note": 72, "velocity": 119, "channel": 0}, {"type": "note_on", "time": 18, "note": 73, "velocity": 113, "channel": 0}, {"type": "note_off", "time": 78, "note": 73, "velocity": 113, "channel": 0}, {"type": "note_on", "time": 15, "note": 72, "velocity": 99, "channel": 0}, {"type": "note_off", "time": 282, "note": 72, "velocity": 99, "channel": 0}, {"type": "note_on", "time": 18, "note": 54, "velocity": 114, "channel": 0}, {"type": "note_off", "time": 72, "note": 54, "velocity": 114, "channel": 0}, {"type": "note_on", "time": 7, "note": 53, "velocity": 111, "channel": 0}, {"type": "note_off", "time": 143, "note": 53, "velocity": 111, "channel": 0}, {"type": "note_on", "time": 53, "note": 59, "velocity": 109, "channel": 0}, {"type": "note_off", "time": 95, "note": 59, "velocity": 109, "channel": 0}, {"type": "note_on", "time": 6, "note": 47, "velocity": 116, "channel": 0}, {"type": "note_off", "time": 64, "note": 47, "velocity": 116, "channel": 0}, {"type": "note_on", "time": 16, "note": 54, "velocity": 112, "channel": 0}, {"type": "note_off", "time": 70, "note": 54, "velocity": 112, "channel": 0}, {"type": "note_on", "time": 2, "note": 53, "velocity": 111, "channel": 0}, {"type": "note_off", "time": 109, "note": 53, "velocity": 111, "channel": 0}, {"type": "note_on", "time": 15, "note": 58, "velocity": 108, "channel": 0}, {"type": "note_off", "time": 74, "note": 58, "velocity": 108, "channel": 0}, {"type": "note_on", "time": 15, "note": 48, "velocity": 113, "channel": 0}, {"type": "note_off", "time": 74, "note": 48, "velocity": 113, "channel": 0}, {"type": "note_on", "time": 8, "note": 54, "velocity": 110, "channel": 0}, {"type": "note_off", "time": 172, "note": 54, "velocity": 110, "channel": 0}, {"type": "note_on", "time": 39, "note": 57, "velocity": 112, "channel": 0}, {"type": "note_off", "time": 61, "note": 57, "velocity": 112, "channel": 0}, {"type": "note_on", "time": 12, "note": 46, "velocity": 114, "channel": 0}, {"type": "note_off", "time": 80, "note": 46, "velocity": 114, "channel": 0}, {"type": "note_on", "time": 27, "note": 53, "velocity": 112, "channel": 0}, {"type": "note_off", "time": 109, "note": 53, "velocity": 112, "channel": 0}, {"type": "note_on", "time": 436, "note": 72, "velocity": 118, "channel": 0}, {"type": "note_off", "time": 97, "note": 72, "velocity": 118, "channel": 0}, {"type": "note_on", "time": 12, "note": 73, "velocity": 113, "channel": 0}, {"type": "note_off", "time": 76, "note": 73, "velocity": 113, "channel": 0}, {"type": "note_on", "time": 8, "note": 71, "velocity": 113, "channel": 0}, {"type": "note_off", "time": 112, "note": 71, "velocity": 113, "channel": 0}, {"type": "note_on", "time": 30, "note": 72, "velocity": 110, "channel": 0}, {"type": "note_off", "time": 110, "note": 72, "velocity": 110, "channel": 0}, {"type": "note_on", "time": 29, "note": 54, "velocity": 113, "channel": 0}, {"type": "note_off", "time": 101, "note": 54, "velocity": 113, "channel": 0}, {"type": "note_on", "time": 9, "note": 53, "velocity": 112, "channel": 0}, {"type": "note_off", "time": 133, "note": 53, "velocity": 112, "channel": 0}, {"type": "note_on", "time": 35, "note": 57, "velocity": 110, "channel": 0}, {"type": "note_off", "time": 90, "note": 57, "velocity": 110, "channel": 0}, {"type": "note_on", "time": 22, "note": 47, "velocity": 111, "channel": 0}, {"type": "note_off", "time": 72, "note": 47, "velocity": 111, "channel": 0}, {"type": "note_on", "time": 18, "note": 53, "velocity": 108, "channel": 0}, {"type": "note_off", "time": 110, "note": 53, "velocity": 108, "channel": 0}, {"type": "note_on", "time": 94, "note": 60, "velocity": 111, "channel": 0}, {"type": "note_off", "time": 49, "note": 60, "velocity": 111, "channel": 0}, {"type": "note_on", "time": 9, "note": 61, "velocity": 110, "channel": 0}, {"type": "note_off", "time": 88, "note": 61, "velocity": 110, "channel": 0}, {"type": "note_on", "time": 13, "note": 59, "velocity": 110, "channel": 0}, {"type": "note_off", "time": 174, "note": 59, "velocity": 110, "channel": 0}, {"type": "note_on", "time": 11, "note": 72, "velocity": 116, "channel": 0}, {"type": "note_off", "time": 88, "note": 72, "velocity": 116, "channel": 0}, {"type": "note_on", "time": 11, "note": 73, "velocity": 112, "channel": 0}, {"type": "note_off", "time": 60, "note": 73, "velocity": 112, "channel": 0}, {"type": "note_on", "time": 25, "note": 71, "velocity": 104, "channel": 0}, {"type": "note_off", "time": 170, "note": 71, "velocity": 104, "channel": 0}, {"type": "note_on", "time": 32, "note": 72, "velocity": 106, "channel": 0}, {"type": "note_off", "time": 46, "note": 72, "velocity": 106, "channel": 0}, {"type": "note_on", "time": 37, "note": 47, "velocity": 107, "channel": 0}, {"type": "note_off", "time": 104, "note": 47, "velocity": 107, "channel": 0}, {"type": "note_on", "time": 20, "note": 53, "velocity": 110, "channel": 0}, {"type": "note_off", "time": 153, "note": 53, "velocity": 110, "channel": 0}, {"type": "note_on", "time": 9, "note": 57, "velocity": 110, "channel": 0}, {"type": "note_off", "time": 93, "note": 57, "velocity": 110, "channel": 0}, {"type": "note_on", "time": 45, "note": 46, "velocity": 110, "channel": 0}, {"type": "note_off", "time": 65, "note": 46, "velocity": 110, "channel": 0}, {"type": "note_on", "time": 12, "note": 53, "velocity": 108, "channel": 0}, {"type": "note_off", "time": 71, "note": 53, "velocity": 108, "channel": 0}, {"type": "note_on", "time": 460, "note": 72, "velocity": 114, "channel": 0}, {"type": "note_off", "time": 86, "note": 72, "velocity": 114, "channel": 0}, {"type": "note_on", "time": 13, "note": 73, "velocity": 110, "channel": 0}, {"type": "note_off", "time": 76, "note": 73, "velocity": 110, "channel": 0}, {"type": "note_on", "time": 38, "note": 71, "velocity": 113, "channel": 0}, {"type": "note_off", "time": 54, "note": 71, "velocity": 113, "channel": 0}, {"type": "note_on", "time": 14, "note": 71, "velocity": 110, "channel": 0}, {"type": "note_off", "time": 54, "note": 71, "velocity": 110, "channel": 0}, {"type": "note_on", "time": 20, "note": 72, "velocity": 112, "channel": 0}, {"type": "note_off", "time": 90, "note": 72, "velocity": 112, "channel": 0}, {"type": "note_on", "time": 21, "note": 47, "velocity": 111, "channel": 0}, {"type": "note_off", "time": 98, "note": 47, "velocity": 111, "channel": 0}, {"type": "note_on", "time": 9, "note": 53, "velocity": 111, "channel": 0}, {"type": "note_off", "time": 192, "note": 53, "velocity": 111, "channel": 0}, {"type": "note_on", "time": 11, "note": 57, "velocity": 109, "channel": 0}, {"type": "note_off", "time": 106, "note": 57, "velocity": 109, "channel": 0}, {"type": "note_on", "time": 0, "note": 47, "velocity": 115, "channel": 0}, {"type": "note_off", "time": 45, "note": 47, "velocity": 115, "channel": 0}, {"type": "note_on", "time": 0, "note": 53, "velocity": 107, "channel": 0}, {"type": "note_off", "time": 147, "note": 53, "velocity": 107, "channel": 0}, {"type": "note_on", "time": 76, "note": 60, "velocity": 112, "channel": 0}, {"type": "note_off", "time": 81, "note": 60, "velocity": 112, "channel": 0}, {"type": "note_on", "time": 5, "note": 52, "velocity": 105, "channel": 0}, {"type": "note_off", "time": 65, "note": 52, "velocity": 105, "channel": 0}, {"type": "note_on", "time": 2, "note": 59, "velocity": 106, "channel": 0}, {"type": "note_off", "time": 172, "note": 59, "velocity": 106, "channel": 0}, {"type": "note_on", "time": 15, "note": 72, "velocity": 109, "channel": 0}, {"type": "note_off", "time": 85, "note": 72, "velocity": 109, "channel": 0}, {"type": "note_on", "time": 20, "note": 73, "velocity": 103, "channel": 0}, {"type": "note_off", "time": 63, "note": 73, "velocity": 103, "channel": 0}, {"type": "note_on", "time": 13, "note": 71, "velocity": 109, "channel": 0}, {"type": "note_off", "time": 181, "note": 71, "velocity": 109, "channel": 0}, {"type": "note_on", "time": 12, "note": 72, "velocity": 109, "channel": 0}, {"type": "note_off", "time": 87, "note": 72, "velocity": 109, "channel": 0}, {"type": "note_on", "time": 19, "note": 54, "velocity": 120, "channel": 0}, {"type": "note_off", "time": 56, "note": 54, "velocity": 120, "channel": 0}, {"type": "note_on", "time": 16, "note": 53, "velocity": 112, "channel": 0}, {"type": "note_off", "time": 205, "note": 53, "velocity": 112, "channel": 0}, {"type": "note_on", "time": 31, "note": 57, "velocity": 112, "channel": 0}, {"type": "note_off", "time": 76, "note": 57, "velocity": 112, "channel": 0}, {"type": "note_on", "time": 12, "note": 46, "velocity": 111, "channel": 0}, {"type": "note_off", "time": 61, "note": 46, "velocity": 111, "channel": 0}, {"type": "note_on", "time": 9, "note": 53, "velocity": 101, "channel": 0}, {"type": "note_off", "time": 138, "note": 53, "velocity": 101, "channel": 0}, {"type": "note_on", "time": 496, "note": 73, "velocity": 99, "channel": 0}, {"type": "note_off", "time": 86, "note": 73, "velocity": 99, "channel": 0}, {"type": "note_on", "time": 14, "note": 74, "velocity": 9, "channel": 0}, {"type": "note_off", "time": 59, "note": 74, "velocity": 9, "channel": 0}, {"type": "note_on", "time": 53, "note": 70, "velocity": 109, "channel": 0}, {"type": "note_off", "time": 98, "note": 70, "velocity": 109, "channel": 0}, {"type": "note_on", "time": 31, "note": 72, "velocity": 109, "channel": 0}, {"type": "note_off", "time": 98, "note": 72, "velocity": 109, "channel": 0}, {"type": "note_on", "time": 47, "note": 46, "velocity": 117, "channel": 0}, {"type": "note_off", "time": 57, "note": 46, "velocity": 117, "channel": 0}, {"type": "note_on", "time": 29, "note": 51, "velocity": 112, "channel": 0}, {"type": "note_off", "time": 92, "note": 51, "velocity": 112, "channel": 0}, {"type": "note_on", "time": 27, "note": 54, "velocity": 111, "channel": 0}, {"type": "note_off", "time": 123, "note": 54, "velocity": 111, "channel": 0}, {"type": "note_on", "time": 34, "note": 45, "velocity": 115, "channel": 0}, {"type": "note_off", "time": 67, "note": 45, "velocity": 115, "channel": 0}, {"type": "note_on", "time": 15, "note": 51, "velocity": 112, "channel": 0}, {"type": "note_off", "time": 122, "note": 51, "velocity": 112, "channel": 0}, {"type": "note_on", "time": 65, "note": 73, "velocity": 99, "channel": 0}, {"type": "note_off", "time": 83, "note": 73, "velocity": 99, "channel": 0}, {"type": "note_on", "time": 17, "note": 73, "velocity": 100, "channel": 0}, {"type": "note_off", "time": 84, "note": 73, "velocity": 100, "channel": 0}, {"type": "note_on", "time": 21, "note": 70, "velocity": 106, "channel": 0}, {"type": "note_off", "time": 62, "note": 70, "velocity": 106, "channel": 0}, {"type": "note_on", "time": 25, "note": 70, "velocity": 107, "channel": 0}, {"type": "note_off", "time": 51, "note": 70, "velocity": 107, "channel": 0}, {"type": "note_on", "time": 9, "note": 73, "velocity": 108, "channel": 0}, {"type": "note_off", "time": 129, "note": 73, "velocity": 108, "channel": 0}, {"type": "note_on", "time": 57, "note": 70, "velocity": 107, "channel": 0}, {"type": "note_off", "time": 141, "note": 70, "velocity": 107, "channel": 0}, {"type": "note_on", "time": 22, "note": 73, "velocity": 108, "channel": 0}, {"type": "note_off", "time": 71, "note": 73, "velocity": 108, "channel": 0}, {"type": "note_on", "time": 36, "note": 46, "velocity": 114, "channel": 0}, {"type": "note_off", "time": 77, "note": 46, "velocity": 114, "channel": 0}, {"type": "note_on", "time": 11, "note": 51, "velocity": 113, "channel": 0}, {"type": "note_off", "time": 131, "note": 51, "velocity": 113, "channel": 0}, {"type": "note_on", "time": 40, "note": 54, "velocity": 113, "channel": 0}, {"type": "note_off", "time": 125, "note": 54, "velocity": 113, "channel": 0}, {"type": "note_on", "time": 15, "note": 46, "velocity": 117, "channel": 0}, {"type": "note_off", "time": 54, "note": 46, "velocity": 117, "channel": 0}, {"type": "note_on", "time": 5, "note": 51, "velocity": 113, "channel": 0}, {"type": "note_off", "time": 99, "note": 51, "velocity": 113, "channel": 0}, {"type": "note_on", "time": 435, "note": 73, "velocity": 107, "channel": 0}, {"type": "note_off", "time": 131, "note": 73, "velocity": 107, "channel": 0}, {"type": "note_on", "time": 27, "note": 70, "velocity": 109, "channel": 0}, {"type": "note_off", "time": 85, "note": 70, "velocity": 109, "channel": 0}, {"type": "note_on", "time": 14, "note": 70, "velocity": 108, "channel": 0}, {"type": "note_off", "time": 64, "note": 70, "velocity": 108, "channel": 0}, {"type": "note_on", "time": 10, "note": 73, "velocity": 108, "channel": 0}, {"type": "note_off", "time": 121, "note": 73, "velocity": 108, "channel": 0}, {"type": "note_on", "time": 7, "note": 47, "velocity": 114, "channel": 0}, {"type": "note_off", "time": 84, "note": 47, "velocity": 114, "channel": 0}, {"type": "note_on", "time": 13, "note": 51, "velocity": 114, "channel": 0}, {"type": "note_off", "time": 145, "note": 51, "velocity": 114, "channel": 0}, {"type": "note_on", "time": 18, "note": 54, "velocity": 110, "channel": 0}, {"type": "note_off", "time": 104, "note": 54, "velocity": 110, "channel": 0}, {"type": "note_on", "time": 36, "note": 46, "velocity": 117, "channel": 0}, {"type": "note_off", "time": 56, "note": 46, "velocity": 117, "channel": 0}, {"type": "note_on", "time": 6, "note": 51, "velocity": 112, "channel": 0}, {"type": "note_off", "time": 142, "note": 51, "velocity": 112, "channel": 0}, {"type": "note_on", "time": 41, "note": 73, "velocity": 101, "channel": 0}, {"type": "note_off", "time": 147, "note": 73, "velocity": 101, "channel": 0}, {"type": "note_on", "time": 60, "note": 70, "velocity": 105, "channel": 0}, {"type": "note_off", "time": 57, "note": 70, "velocity": 105, "channel": 0}, {"type": "note_on", "time": 32, "note": 70, "velocity": 109, "channel": 0}, {"type": "note_off", "time": 63, "note": 70, "velocity": 109, "channel": 0}, {"type": "note_on", "time": 23, "note": 73, "velocity": 111, "channel": 0}, {"type": "note_off", "time": 58, "note": 73, "velocity": 111, "channel": 0}, {"type": "note_on", "time": 18, "note": 73, "velocity": 105, "channel": 0}, {"type": "note_off", "time": 61, "note": 73, "velocity": 105, "channel": 0}, {"type": "note_on", "time": 25, "note": 70, "velocity": 107, "channel": 0}, {"type": "note_off", "time": 157, "note": 70, "velocity": 107, "channel": 0}, {"type": "note_on", "time": 41, "note": 73, "velocity": 107, "channel": 0}, {"type": "note_off", "time": 54, "note": 73, "velocity": 107, "channel": 0}, {"type": "note_on", "time": 14, "note": 46, "velocity": 107, "channel": 0}, {"type": "note_off", "time": 68, "note": 46, "velocity": 107, "channel": 0}, {"type": "note_on", "time": 16, "note": 51, "velocity": 112, "channel": 0}, {"type": "note_off", "time": 172, "note": 51, "velocity": 112, "channel": 0}, {"type": "note_on", "time": 18, "note": 54, "velocity": 112, "channel": 0}, {"type": "note_off", "time": 65, "note": 54, "velocity": 112, "channel": 0}, {"type": "note_on", "time": 42, "note": 46, "velocity": 116, "channel": 0}, {"type": "note_off", "time": 49, "note": 46, "velocity": 116, "channel": 0}, {"type": "note_on", "time": 21, "note": 51, "velocity": 110, "channel": 0}, {"type": "note_off", "time": 125, "note": 51, "velocity": 110, "channel": 0}, {"type": "note_on", "time": 479, "note": 72, "velocity": 116, "channel": 0}, {"type": "note_off", "time": 87, "note": 72, "velocity": 116, "channel": 0}, {"type": "note_on", "time": 10, "note": 73, "velocity": 107, "channel": 0}, {"type": "note_off", "time": 73, "note": 73, "velocity": 107, "channel": 0}, {"type": "note_on", "time": 42, "note": 71, "velocity": 114, "channel": 0}, {"type": "note_off", "time": 75, "note": 71, "velocity": 114, "channel": 0}, {"type": "note_on", "time": 30, "note": 71, "velocity": 112, "channel": 0}, {"type": "note_off", "time": 146, "note": 71, "velocity": 112, "channel": 0}, {"type": "note_on", "time": 21, "note": 47, "velocity": 115, "channel": 0}, {"type": "note_off", "time": 67, "note": 47, "velocity": 115, "channel": 0}, {"type": "note_on", "time": 20, "note": 50, "velocity": 112, "channel": 0}, {"type": "note_off", "time": 185, "note": 50, "velocity": 112, "channel": 0}, {"type": "note_on", "time": 1, "note": 54, "velocity": 106, "channel": 0}, {"type": "note_off", "time": 89, "note": 54, "velocity": 106, "channel": 0}, {"type": "note_on", "time": 22, "note": 46, "velocity": 113, "channel": 0}, {"type": "note_off", "time": 55, "note": 46, "velocity": 113, "channel": 0}, {"type": "note_on", "time": 3, "note": 50, "velocity": 110, "channel": 0}, {"type": "note_off", "time": 131, "note": 50, "velocity": 110, "channel": 0}, {"type": "note_on", "time": 104, "note": 61, "velocity": 106, "channel": 0}, {"type": "note_off", "time": 67, "note": 61, "velocity": 106, "channel": 0}, {"type": "note_on", "time": 29, "note": 72, "velocity": 110, "channel": 0}, {"type": "note_off", "time": 58, "note": 72, "velocity": 110, "channel": 0}, {"type": "note_on", "time": 16, "note": 59, "velocity": 108, "channel": 0}, {"type": "note_off", "time": 71, "note": 59, "velocity": 108, "channel": 0}, {"type": "note_on", "time": 25, "note": 71, "velocity": 110, "channel": 0}, {"type": "note_off", "time": 95, "note": 71, "velocity": 110, "channel": 0}, {"type": "note_on", "time": 9, "note": 72, "velocity": 109, "channel": 0}, {"type": "note_off", "time": 50, "note": 72, "velocity": 109, "channel": 0}, {"type": "note_on", "time": 26, "note": 51, "velocity": 110, "channel": 0}, {"type": "note_off", "time": 75, "note": 51, "velocity": 110, "channel": 0}, {"type": "note_on", "time": 38, "note": 59, "velocity": 111, "channel": 0}, {"type": "note_off", "time": 175, "note": 59, "velocity": 111, "channel": 0}, {"type": "note_on", "time": 81, "note": 50, "velocity": 106, "channel": 0}, {"type": "note_off", "time": 167, "note": 50, "velocity": 106, "channel": 0}, {"type": "note_on", "time": 98, "note": 53, "velocity": 105, "channel": 0}, {"type": "note_off", "time": 112, "note": 53, "velocity": 105, "channel": 0}, {"type": "note_on", "time": 10, "note": 47, "velocity": 104, "channel": 0}, {"type": "note_off", "time": 41, "note": 47, "velocity": 104, "channel": 0}, {"type": "note_on", "time": 11, "note": 50, "velocity": 107, "channel": 0}, {"type": "note_off", "time": 164, "note": 50, "velocity": 107, "channel": 0}, {"type": "note_on", "time": 347, "note": 71, "velocity": 113, "channel": 0}, {"type": "note_off", "time": 36, "note": 71, "velocity": 113, "channel": 0}, {"type": "note_on", "time": 6, "note": 72, "velocity": 111, "channel": 0}, {"type": "note_off", "time": 42, "note": 72, "velocity": 111, "channel": 0}, {"type": "note_on", "time": 9, "note": 73, "velocity": 117, "channel": 0}, {"type": "note_off", "time": 94, "note": 73, "velocity": 117, "channel": 0}, {"type": "note_on", "time": 21, "note": 71, "velocity": 115, "channel": 0}, {"type": "note_off", "time": 176, "note": 71, "velocity": 115, "channel": 0}, {"type": "note_on", "time": 10, "note": 72, "velocity": 118, "channel": 0}, {"type": "note_off", "time": 76, "note": 72, "velocity": 118, "channel": 0}, {"type": "note_on", "time": 0, "note": 47, "velocity": 109, "channel": 0}, {"type": "note_off", "time": 70, "note": 47, "velocity": 109, "channel": 0}, {"type": "note_on", "time": 5, "note": 50, "velocity": 112, "channel": 0}, {"type": "note_off", "time": 158, "note": 50, "velocity": 112, "channel": 0}, {"type": "note_on", "time": 34, "note": 53, "velocity": 108, "channel": 0}, {"type": "note_off", "time": 75, "note": 53, "velocity": 108, "channel": 0}, {"type": "note_on", "time": 32, "note": 47, "velocity": 108, "channel": 0}, {"type": "note_off", "time": 56, "note": 47, "velocity": 108, "channel": 0}, {"type": "note_on", "time": 18, "note": 50, "velocity": 111, "channel": 0}, {"type": "note_off", "time": 121, "note": 50, "velocity": 111, "channel": 0}, {"type": "note_on", "time": 63, "note": 71, "velocity": 111, "channel": 0}, {"type": "note_off", "time": 94, "note": 71, "velocity": 111, "channel": 0}, {"type": "note_on", "time": 12, "note": 50, "velocity": 110, "channel": 0}, {"type": "note_off", "time": 49, "note": 50, "velocity": 110, "channel": 0}, {"type": "note_on", "time": 18, "note": 59, "velocity": 105, "channel": 0}, {"type": "note_off", "time": 123, "note": 59, "velocity": 105, "channel": 0}, {"type": "note_on", "time": 31, "note": 71, "velocity": 113, "channel": 0}, {"type": "note_off", "time": 46, "note": 71, "velocity": 113, "channel": 0}, {"type": "note_on", "time": 18, "note": 71, "velocity": 115, "channel": 0}, {"type": "note_off", "time": 39, "note": 71, "velocity": 115, "channel": 0}, {"type": "note_on", "time": 21, "note": 72, "velocity": 107, "channel": 0}, {"type": "note_off", "time": 73, "note": 72, "velocity": 107, "channel": 0}, {"type": "note_on", "time": 9, "note": 71, "velocity": 105, "channel": 0}, {"type": "note_off", "time": 262, "note": 71, "velocity": 105, "channel": 0}, {"type": "note_on", "time": 14, "note": 47, "velocity": 112, "channel": 0}, {"type": "note_off", "time": 64, "note": 47, "velocity": 112, "channel": 0}, {"type": "note_on", "time": 12, "note": 50, "velocity": 107, "channel": 0}, {"type": "note_off", "time": 187, "note": 50, "velocity": 107, "channel": 0}, {"type": "note_on", "time": 22, "note": 54, "velocity": 114, "channel": 0}, {"type": "note_off", "time": 69, "note": 54, "velocity": 114, "channel": 0}, {"type": "note_on", "time": 23, "note": 47, "velocity": 112, "channel": 0}, {"type": "note_off", "time": 45, "note": 47, "velocity": 112, "channel": 0}, {"type": "note_on", "time": 10, "note": 50, "velocity": 107, "channel": 0}, {"type": "note_off", "time": 140, "note": 50, "velocity": 107, "channel": 0}, {"type": "note_on", "time": 618, "note": 72, "velocity": 114, "channel": 0}, {"type": "note_off", "time": 105, "note": 72, "velocity": 114, "channel": 0}, {"type": "note_on", "time": 1, "note": 69, "velocity": 110, "channel": 0}, {"type": "note_off", "time": 101, "note": 69, "velocity": 110, "channel": 0}, {"type": "note_on", "time": 61, "note": 79, "velocity": 114, "channel": 0}, {"type": "note_off", "time": 457, "note": 79, "velocity": 114, "channel": 0}, {"type": "note_on", "time": 28, "note": 77, "velocity": 97, "channel": 0}, {"type": "note_off", "time": 74, "note": 77, "velocity": 97, "channel": 0}, {"type": "note_on", "time": 19, "note": 79, "velocity": 102, "channel": 0}, {"type": "note_off", "time": 600, "note": 79, "velocity": 102, "channel": 0}, {"type": "note_on", "time": 128, "note": 79, "velocity": 105, "channel": 0}, {"type": "note_off", "time": 196, "note": 79, "velocity": 105, "channel": 0}, {"type": "note_on", "time": 81, "note": 79, "velocity": 101, "channel": 0}, {"type": "note_off", "time": 237, "note": 79, "velocity": 101, "channel": 0}, {"type": "note_on", "time": 116, "note": 79, "velocity": 90, "channel": 0}, {"type": "note_off", "time": 100, "note": 79, "velocity": 90, "channel": 0}, {"type": "note_on", "time": 34, "note": 69, "velocity": 95, "channel": 0}, {"type": "note_off", "time": 155, "note": 69, "velocity": 95, "channel": 0}, {"type": "note_on", "time": 25, "note": 67, "velocity": 98, "channel": 0}, {"type": "note_off", "time": 101, "note": 67, "velocity": 98, "channel": 0}, {"type": "note_on", "time": 716, "note": 74, "velocity": 104, "channel": 0}, {"type": "note_off", "time": 287, "note": 74, "velocity": 104, "channel": 0}, {"type": "note_on", "time": 12, "note": 71, "velocity": 105, "channel": 0}, {"type": "note_off", "time": 46, "note": 71, "velocity": 105, "channel": 0}, {"type": "note_on", "time": 9, "note": 70, "velocity": 113, "channel": 0}, {"type": "note_off", "time": 92, "note": 70, "velocity": 113, "channel": 0}, {"type": "note_on", "time": 11, "note": 69, "velocity": 114, "channel": 0}, {"type": "note_off", "time": 84, "note": 69, "velocity": 114, "channel": 0}, {"type": "note_on", "time": 7, "note": 68, "velocity": 111, "channel": 0}, {"type": "note_off", "time": 47, "note": 68, "velocity": 111, "channel": 0}, {"type": "note_on", "time": 10, "note": 67, "velocity": 112, "channel": 0}, {"type": "note_off", "time": 106, "note": 67, "velocity": 112, "channel": 0}, {"type": "note_on", "time": 16, "note": 71, "velocity": 113, "channel": 0}, {"type": "note_off", "time": 77, "note": 71, "velocity": 113, "channel": 0}, {"type": "note_on", "time": 16, "note": 67, "velocity": 111, "channel": 0}, {"type": "note_off", "time": 166, "note": 67, "velocity": 111, "channel": 0}, {"type": "note_on", "time": 18, "note": 63, "velocity": 115, "channel": 0}, {"type": "note_off", "time": 80, "note": 63, "velocity": 115, "channel": 0}, {"type": "note_on", "time": 24, "note": 67, "velocity": 111, "channel": 0}, {"type": "note_off", "time": 79, "note": 67, "velocity": 111, "channel": 0}, {"type": "note_on", "time": 9, "note": 65, "velocity": 110, "channel": 0}, {"type": "note_off", "time": 69, "note": 65, "velocity": 110, "channel": 0}, {"type": "note_on", "time": 25, "note": 63, "velocity": 110, "channel": 0}, {"type": "note_off", "time": 48, "note": 63, "velocity": 110, "channel": 0}, {"type": "note_on", "time": 10, "note": 61, "velocity": 111, "channel": 0}, {"type": "note_off", "time": 120, "note": 61, "velocity": 111, "channel": 0}, {"type": "note_on", "time": 12, "note": 56, "velocity": 101, "channel": 0}, {"type": "note_off", "time": 47, "note": 56, "velocity": 101, "channel": 0}, {"type": "note_on", "time": 12, "note": 63, "velocity": 109, "channel": 0}, {"type": "note_off", "time": 89, "note": 63, "velocity": 109, "channel": 0}, {"type": "note_on", "time": 20, "note": 61, "velocity": 108, "channel": 0}, {"type": "note_off", "time": 85, "note": 61, "velocity": 108, "channel": 0}, {"type": "note_on", "time": 10, "note": 59, "velocity": 109, "channel": 0}, {"type": "note_off", "time": 126, "note": 59, "velocity": 109, "channel": 0}, {"type": "note_on", "time": 11, "note": 56, "velocity": 103, "channel": 0}, {"type": "note_off", "time": 40, "note": 56, "velocity": 103, "channel": 0}, {"type": "note_on", "time": 8, "note": 61, "velocity": 113, "channel": 0}, {"type": "note_off", "time": 325, "note": 61, "velocity": 113, "channel": 0}, {"type": "note_on", "time": 91, "note": 65, "velocity": 115, "channel": 0}, {"type": "note_off", "time": 89, "note": 65, "velocity": 115, "channel": 0}, {"type": "note_on", "time": 10, "note": 62, "velocity": 98, "channel": 0}, {"type": "note_off", "time": 176, "note": 62, "velocity": 98, "channel": 0}, {"type": "note_on", "time": 0, "note": 69, "velocity": 109, "channel": 0}, {"type": "note_off", "time": 370, "note": 69, "velocity": 109, "channel": 0}, {"type": "note_on", "time": 344, "note": 69, "velocity": 114, "channel": 0}, {"type": "note_off", "time": 386, "note": 69, "velocity": 114, "channel": 0}, {"type": "note_on", "time": 12, "note": 67, "velocity": 111, "channel": 0}, {"type": "note_off", "time": 92, "note": 67, "velocity": 111, "channel": 0}, {"type": "note_on", "time": 11, "note": 65, "velocity": 109, "channel": 0}, {"type": "note_off", "time": 108, "note": 65, "velocity": 109, "channel": 0}, {"type": "note_on", "time": 13, "note": 65, "velocity": 107, "channel": 0}, {"type": "note_off", "time": 43, "note": 65, "velocity": 107, "channel": 0}, {"type": "note_on", "time": 5, "note": 62, "velocity": 107, "channel": 0}, {"type": "note_off", "time": 92, "note": 62, "velocity": 107, "channel": 0}, {"type": "note_on", "time": 7, "note": 59, "velocity": 108, "channel": 0}, {"type": "note_off", "time": 77, "note": 59, "velocity": 108, "channel": 0}, {"type": "note_on", "time": 3, "note": 65, "velocity": 112, "channel": 0}, {"type": "note_off", "time": 107, "note": 65, "velocity": 112, "channel": 0}, {"type": "note_on", "time": 9, "note": 62, "velocity": 113, "channel": 0}, {"type": "note_off", "time": 111, "note": 62, "velocity": 113, "channel": 0}, {"type": "note_on", "time": 453, "note": 71, "velocity": 112, "channel": 0}, {"type": "note_off", "time": 373, "note": 71, "velocity": 112, "channel": 0}, {"type": "note_on", "time": 11, "note": 65, "velocity": 107, "channel": 0}, {"type": "note_off", "time": 72, "note": 65, "velocity": 107, "channel": 0}, {"type": "note_on", "time": 16, "note": 71, "velocity": 114, "channel": 0}, {"type": "note_off", "time": 162, "note": 71, "velocity": 114, "channel": 0}, {"type": "note_on", "time": 14, "note": 72, "velocity": 115, "channel": 0}, {"type": "note_off", "time": 80, "note": 72, "velocity": 115, "channel": 0}, {"type": "note_on", "time": 11, "note": 73, "velocity": 116, "channel": 0}, {"type": "note_off", "time": 85, "note": 73, "velocity": 116, "channel": 0}, {"type": "note_on", "time": 5, "note": 71, "velocity": 112, "channel": 0}, {"type": "note_off", "time": 174, "note": 71, "velocity": 112, "channel": 0}, {"type": "note_on", "time": 14, "note": 72, "velocity": 112, "channel": 0}, {"type": "note_off", "time": 75, "note": 72, "velocity": 112, "channel": 0}, {"type": "note_on", "time": 19, "note": 73, "velocity": 109, "channel": 0}, {"type": "note_off", "time": 84, "note": 73, "velocity": 109, "channel": 0}, {"type": "note_on", "time": 19, "note": 69, "velocity": 114, "channel": 0}, {"type": "note_off", "time": 84, "note": 69, "velocity": 114, "channel": 0}, {"type": "note_on", "time": 21, "note": 65, "velocity": 114, "channel": 0}, {"type": "note_off", "time": 74, "note": 65, "velocity": 114, "channel": 0}, {"type": "note_on", "time": 14, "note": 62, "velocity": 110, "channel": 0}, {"type": "note_off", "time": 106, "note": 62, "velocity": 110, "channel": 0}, {"type": "note_on", "time": 8, "note": 58, "velocity": 106, "channel": 0}, {"type": "note_off", "time": 74, "note": 58, "velocity": 106, "channel": 0}, {"type": "note_on", "time": 3, "note": 53, "velocity": 110, "channel": 0}, {"type": "note_off", "time": 87, "note": 53, "velocity": 110, "channel": 0}, {"type": "note_on", "time": 5, "note": 62, "velocity": 111, "channel": 0}, {"type": "note_off", "time": 74, "note": 62, "velocity": 111, "channel": 0}, {"type": "note_on", "time": 10, "note": 59, "velocity": 110, "channel": 0}, {"type": "note_off", "time": 83, "note": 59, "velocity": 110, "channel": 0}, {"type": "note_on", "time": 17, "note": 57, "velocity": 110, "channel": 0}, {"type": "note_off", "time": 73, "note": 57, "velocity": 110, "channel": 0}, {"type": "note_on", "time": 4, "note": 53, "velocity": 111, "channel": 0}, {"type": "note_off", "time": 105, "note": 53, "velocity": 111, "channel": 0}, {"type": "note_on", "time": 11, "note": 59, "velocity": 112, "channel": 0}, {"type": "note_off", "time": 72, "note": 59, "velocity": 112, "channel": 0}, {"type": "note_on", "time": 1, "note": 57, "velocity": 112, "channel": 0}, {"type": "note_off", "time": 91, "note": 57, "velocity": 112, "channel": 0}, {"type": "note_on", "time": 0, "note": 53, "velocity": 114, "channel": 0}, {"type": "note_off", "time": 73, "note": 53, "velocity": 114, "channel": 0}, {"type": "note_on", "time": 16, "note": 50, "velocity": 112, "channel": 0}, {"type": "note_off", "time": 87, "note": 50, "velocity": 112, "channel": 0}, {"type": "note_on", "time": 6, "note": 53, "velocity": 112, "channel": 0}, {"type": "note_off", "time": 80, "note": 53, "velocity": 112, "channel": 0}, {"type": "note_on", "time": 10, "note": 50, "velocity": 110, "channel": 0}, {"type": "note_off", "time": 76, "note": 50, "velocity": 110, "channel": 0}, {"type": "note_on", "time": 11, "note": 45, "velocity": 118, "channel": 0}, {"type": "note_off", "time": 92, "note": 45, "velocity": 118, "channel": 0}, {"type": "note_on", "time": 406, "note": 41, "velocity": 118, "channel": 0}, {"type": "note_off", "time": 85, "note": 41, "velocity": 118, "channel": 0}, {"type": "note_on", "time": 32, "note": 65, "velocity": 110, "channel": 0}, {"type": "note_off", "time": 56, "note": 65, "velocity": 110, "channel": 0}, {"type": "note_on", "time": 14, "note": 68, "velocity": 113, "channel": 0}, {"type": "note_off", "time": 75, "note": 68, "velocity": 113, "channel": 0}, {"type": "note_on", "time": 9, "note": 70, "velocity": 119, "channel": 0}, {"type": "note_off", "time": 79, "note": 70, "velocity": 119, "channel": 0}, {"type": "note_on", "time": 6, "note": 44, "velocity": 121, "channel": 0}, {"type": "note_off", "time": 140, "note": 44, "velocity": 121, "channel": 0}, {"type": "note_on", "time": 234, "note": 44, "velocity": 126, "channel": 0}, {"type": "note_off", "time": 140, "note": 44, "velocity": 126, "channel": 0}, {"type": "note_on", "time": 16, "note": 54, "velocity": 113, "channel": 0}, {"type": "note_off", "time": 61, "note": 54, "velocity": 113, "channel": 0}, {"type": "note_on", "time": 16, "note": 58, "velocity": 111, "channel": 0}, {"type": "note_off", "time": 61, "note": 58, "velocity": 111, "channel": 0}, {"type": "note_on", "time": 29, "note": 59, "velocity": 111, "channel": 0}, {"type": "note_off", "time": 76, "note": 59, "velocity": 111, "channel": 0}, {"type": "note_on", "time": 2, "note": 46, "velocity": 113, "channel": 0}, {"type": "note_off", "time": 142, "note": 46, "velocity": 113, "channel": 0}, {"type": "note_on", "time": 185, "note": 46, "velocity": 110, "channel": 0}, {"type": "note_off", "time": 130, "note": 46, "velocity": 110, "channel": 0}, {"type": "note_on", "time": 23, "note": 53, "velocity": 109, "channel": 0}, {"type": "note_off", "time": 80, "note": 53, "velocity": 109, "channel": 0}, {"type": "note_on", "time": 30, "note": 58, "velocity": 105, "channel": 0}, {"type": "note_off", "time": 56, "note": 58, "velocity": 105, "channel": 0}, {"type": "note_on", "time": 9, "note": 59, "velocity": 112, "channel": 0}, {"type": "note_off", "time": 63, "note": 59, "velocity": 112, "channel": 0}, {"type": "note_on", "time": 25, "note": 48, "velocity": 113, "channel": 0}, {"type": "note_off", "time": 85, "note": 48, "velocity": 113, "channel": 0}, {"type": "note_on", "time": 259, "note": 48, "velocity": 120, "channel": 0}, {"type": "note_off", "time": 89, "note": 48, "velocity": 120, "channel": 0}, {"type": "note_on", "time": 11, "note": 53, "velocity": 119, "channel": 0}, {"type": "note_off", "time": 59, "note": 53, "velocity": 119, "channel": 0}, {"type": "note_on", "time": 22, "note": 58, "velocity": 114, "channel": 0}, {"type": "note_off", "time": 77, "note": 58, "velocity": 114, "channel": 0}, {"type": "note_on", "time": 14, "note": 59, "velocity": 114, "channel": 0}, {"type": "note_off", "time": 91, "note": 59, "velocity": 114, "channel": 0}, {"type": "note_on", "time": 14, "note": 51, "velocity": 107, "channel": 0}, {"type": "note_off", "time": 103, "note": 51, "velocity": 107, "channel": 0}, {"type": "note_on", "time": 262, "note": 51, "velocity": 117, "channel": 0}, {"type": "note_off", "time": 79, "note": 51, "velocity": 117, "channel": 0}, {"type": "note_on", "time": 5, "note": 54, "velocity": 113, "channel": 0}, {"type": "note_off", "time": 46, "note": 54, "velocity": 113, "channel": 0}, {"type": "note_on", "time": 29, "note": 58, "velocity": 110, "channel": 0}, {"type": "note_off", "time": 100, "note": 58, "velocity": 110, "channel": 0}, {"type": "note_on", "time": 19, "note": 58, "velocity": 113, "channel": 0}, {"type": "note_off", "time": 85, "note": 58, "velocity": 113, "channel": 0}, {"type": "note_on", "time": 3, "note": 51, "velocity": 114, "channel": 0}, {"type": "note_off", "time": 87, "note": 51, "velocity": 114, "channel": 0}, {"type": "note_on", "time": 9, "note": 54, "velocity": 110, "channel": 0}, {"type": "note_off", "time": 61, "note": 54, "velocity": 110, "channel": 0}, {"type": "note_on", "time": 9, "note": 57, "velocity": 117, "channel": 0}, {"type": "note_off", "time": 83, "note": 57, "velocity": 117, "channel": 0}, {"type": "note_on", "time": 13, "note": 52, "velocity": 113, "channel": 0}, {"type": "note_off", "time": 104, "note": 52, "velocity": 113, "channel": 0}, {"type": "note_on", "time": 391, "note": 52, "velocity": 112, "channel": 0}, {"type": "note_off", "time": 135, "note": 52, "velocity": 112, "channel": 0}, {"type": "note_on", "time": 10, "note": 57, "velocity": 112, "channel": 0}, {"type": "note_off", "time": 52, "note": 57, "velocity": 112, "channel": 0}, {"type": "note_on", "time": 29, "note": 56, "velocity": 115, "channel": 0}, {"type": "note_off", "time": 52, "note": 56, "velocity": 115, "channel": 0}, {"type": "note_on", "time": 11, "note": 52, "velocity": 113, "channel": 0}, {"type": "note_off", "time": 92, "note": 52, "velocity": 113, "channel": 0}, {"type": "note_on", "time": 18, "note": 69, "velocity": 112, "channel": 0}, {"type": "note_off", "time": 110, "note": 69, "velocity": 112, "channel": 0}, {"type": "note_on", "time": 37, "note": 62, "velocity": 109, "channel": 0}, {"type": "note_off", "time": 76, "note": 62, "velocity": 109, "channel": 0}, {"type": "note_on", "time": 31, "note": 67, "velocity": 112, "channel": 0}, {"type": "note_off", "time": 180, "note": 67, "velocity": 112, "channel": 0}, {"type": "note_on", "time": 11, "note": 65, "velocity": 114, "channel": 0}, {"type": "note_off", "time": 84, "note": 65, "velocity": 114, "channel": 0}, {"type": "note_on", "time": 30, "note": 68, "velocity": 117, "channel": 0}, {"type": "note_off", "time": 54, "note": 68, "velocity": 117, "channel": 0}, {"type": "note_on", "time": 13, "note": 70, "velocity": 115, "channel": 0}, {"type": "note_off", "time": 97, "note": 70, "velocity": 115, "channel": 0}, {"type": "note_on", "time": 11, "note": 63, "velocity": 114, "channel": 0}, {"type": "note_off", "time": 46, "note": 63, "velocity": 114, "channel": 0}, {"type": "note_on", "time": 7, "note": 66, "velocity": 111, "channel": 0}, {"type": "note_off", "time": 75, "note": 66, "velocity": 111, "channel": 0}, {"type": "note_on", "time": 17, "note": 58, "velocity": 117, "channel": 0}, {"type": "note_off", "time": 92, "note": 58, "velocity": 117, "channel": 0}, {"type": "note_on", "time": 14, "note": 58, "velocity": 117, "channel": 0}, {"type": "note_off", "time": 40, "note": 58, "velocity": 117, "channel": 0}, {"type": "note_on", "time": 14, "note": 54, "velocity": 110, "channel": 0}, {"type": "note_off", "time": 51, "note": 54, "velocity": 110, "channel": 0}, {"type": "note_on", "time": 0, "note": 50, "velocity": 120, "channel": 0}, {"type": "note_off", "time": 69, "note": 50, "velocity": 120, "channel": 0}, {"type": "note_on", "time": 24, "note": 52, "velocity": 113, "channel": 0}, {"type": "note_off", "time": 84, "note": 52, "velocity": 113, "channel": 0}, {"type": "note_on", "time": 6, "note": 50, "velocity": 112, "channel": 0}, {"type": "note_off", "time": 95, "note": 50, "velocity": 112, "channel": 0}, {"type": "note_on", "time": 6, "note": 46, "velocity": 119, "channel": 0}, {"type": "note_off", "time": 146, "note": 46, "velocity": 119, "channel": 0}, {"type": "note_on", "time": 38, "note": 46, "velocity": 121, "channel": 0}, {"type": "note_off", "time": 61, "note": 46, "velocity": 121, "channel": 0}, {"type": "note_on", "time": 18, "note": 44, "velocity": 111, "channel": 0}, {"type": "note_off", "time": 154, "note": 44, "velocity": 111, "channel": 0}, {"type": "note_on", "time": 132, "note": 46, "velocity": 115, "channel": 0}, {"type": "note_off", "time": 88, "note": 46, "velocity": 115, "channel": 0}, {"type": "note_on", "time": 12, "note": 56, "velocity": 106, "channel": 0}, {"type": "note_off", "time": 59, "note": 56, "velocity": 106, "channel": 0}, {"type": "note_on", "time": 41, "note": 57, "velocity": 116, "channel": 0}, {"type": "note_off", "time": 74, "note": 57, "velocity": 116, "channel": 0}, {"type": "note_on", "time": 22, "note": 50, "velocity": 113, "channel": 0}, {"type": "note_off", "time": 140, "note": 50, "velocity": 113, "channel": 0}, {"type": "note_on", "time": 360, "note": 62, "velocity": 115, "channel": 0}, {"type": "note_off", "time": 87, "note": 62, "velocity": 115, "channel": 0}, {"type": "note_on", "time": 8, "note": 65, "velocity": 120, "channel": 0}, {"type": "note_off", "time": 75, "note": 65, "velocity": 120, "channel": 0}, {"type": "note_on", "time": 10, "note": 68, "velocity": 116, "channel": 0}, {"type": "note_off", "time": 83, "note": 68, "velocity": 116, "channel": 0}, {"type": "note_on", "time": 5, "note": 63, "velocity": 118, "channel": 0}, {"type": "note_off", "time": 89, "note": 63, "velocity": 118, "channel": 0}, {"type": "note_on", "time": 13, "note": 65, "velocity": 114, "channel": 0}, {"type": "note_off", "time": 61, "note": 65, "velocity": 114, "channel": 0}, {"type": "note_on", "time": 18, "note": 67, "velocity": 112, "channel": 0}, {"type": "note_off", "time": 96, "note": 67, "velocity": 112, "channel": 0}, {"type": "note_on", "time": 10, "note": 68, "velocity": 112, "channel": 0}, {"type": "note_off", "time": 70, "note": 68, "velocity": 112, "channel": 0}, {"type": "note_on", "time": 11, "note": 65, "velocity": 113, "channel": 0}, {"type": "note_off", "time": 68, "note": 65, "velocity": 113, "channel": 0}, {"type": "note_on", "time": 8, "note": 64, "velocity": 115, "channel": 0}, {"type": "note_off", "time": 60, "note": 64, "velocity": 115, "channel": 0}, {"type": "note_on", "time": 14, "note": 63, "velocity": 110, "channel": 0}, {"type": "note_off", "time": 92, "note": 63, "velocity": 110, "channel": 0}, {"type": "note_on", "time": 19, "note": 67, "velocity": 110, "channel": 0}, {"type": "note_off", "time": 187, "note": 67, "velocity": 110, "channel": 0}, {"type": "note_on", "time": 8, "note": 67, "velocity": 111, "channel": 0}, {"type": "note_off", "time": 65, "note": 67, "velocity": 111, "channel": 0}, {"type": "note_on", "time": 17, "note": 63, "velocity": 111, "channel": 0}, {"type": "note_off", "time": 80, "note": 63, "velocity": 111, "channel": 0}, {"type": "note_on", "time": 10, "note": 61, "velocity": 112, "channel": 0}, {"type": "note_off", "time": 81, "note": 61, "velocity": 112, "channel": 0}, {"type": "note_on", "time": 6, "note": 68, "velocity": 116, "channel": 0}, {"type": "note_off", "time": 77, "note": 68, "velocity": 116, "channel": 0}, {"type": "note_on", "time": 13, "note": 63, "velocity": 110, "channel": 0}, {"type": "note_off", "time": 76, "note": 63, "velocity": 110, "channel": 0}, {"type": "note_on", "time": 23, "note": 58, "velocity": 110, "channel": 0}, {"type": "note_off", "time": 92, "note": 58, "velocity": 110, "channel": 0}, {"type": "note_on", "time": 13, "note": 53, "velocity": 111, "channel": 0}, {"type": "note_off", "time": 62, "note": 53, "velocity": 111, "channel": 0}, {"type": "note_on", "time": 1, "note": 51, "velocity": 105, "channel": 0}, {"type": "note_off", "time": 97, "note": 51, "velocity": 105, "channel": 0}, {"type": "note_on", "time": 18, "note": 53, "velocity": 105, "channel": 0}, {"type": "note_off", "time": 71, "note": 53, "velocity": 105, "channel": 0}, {"type": "note_on", "time": 8, "note": 59, "velocity": 110, "channel": 0}, {"type": "note_off", "time": 85, "note": 59, "velocity": 110, "channel": 0}, {"type": "note_on", "time": 5, "note": 63, "velocity": 117, "channel": 0}, {"type": "note_off", "time": 105, "note": 63, "velocity": 117, "channel": 0}, {"type": "note_on", "time": 8, "note": 59, "velocity": 110, "channel": 0}, {"type": "note_off", "time": 95, "note": 59, "velocity": 110, "channel": 0}, {"type": "note_on", "time": 16, "note": 55, "velocity": 105, "channel": 0}, {"type": "note_off", "time": 69, "note": 55, "velocity": 105, "channel": 0}, {"type": "note_on", "time": 18, "note": 59, "velocity": 107, "channel": 0}, {"type": "note_off", "time": 89, "note": 59, "velocity": 107, "channel": 0}, {"type": "note_on", "time": 11, "note": 63, "velocity": 123, "channel": 0}, {"type": "note_off", "time": 82, "note": 63, "velocity": 123, "channel": 0}, {"type": "note_on", "time": 10, "note": 67, "velocity": 110, "channel": 0}, {"type": "note_off", "time": 88, "note": 67, "velocity": 110, "channel": 0}, {"type": "note_on", "time": 15, "note": 68, "velocity": 117, "channel": 0}, {"type": "note_off", "time": 72, "note": 68, "velocity": 117, "channel": 0}, {"type": "note_on", "time": 9, "note": 67, "velocity": 120, "channel": 0}, {"type": "note_off", "time": 83, "note": 67, "velocity": 120, "channel": 0}, {"type": "note_on", "time": 10, "note": 67, "velocity": 116, "channel": 0}, {"type": "note_off", "time": 90, "note": 67, "velocity": 116, "channel": 0}, {"type": "note_on", "time": 14, "note": 68, "velocity": 119, "channel": 0}, {"type": "note_off", "time": 86, "note": 68, "velocity": 119, "channel": 0}, {"type": "note_on", "time": 12, "note": 65, "velocity": 116, "channel": 0}, {"type": "note_off", "time": 76, "note": 65, "velocity": 116, "channel": 0}, {"type": "note_on", "time": 17, "note": 69, "velocity": 116, "channel": 0}, {"type": "note_off", "time": 89, "note": 69, "velocity": 116, "channel": 0}, {"type": "note_on", "time": 9, "note": 71, "velocity": 109, "channel": 0}, {"type": "note_off", "time": 62, "note": 71, "velocity": 109, "channel": 0}, {"type": "note_on", "time": 12, "note": 69, "velocity": 118, "channel": 0}, {"type": "note_off", "time": 81, "note": 69, "velocity": 118, "channel": 0}, {"type": "note_on", "time": 18, "note": 65, "velocity": 117, "channel": 0}, {"type": "note_off", "time": 91, "note": 65, "velocity": 117, "channel": 0}, {"type": "note_on", "time": 12, "note": 62, "velocity": 116, "channel": 0}, {"type": "note_off", "time": 97, "note": 62, "velocity": 116, "channel": 0}, {"type": "note_on", "time": 7, "note": 58, "velocity": 108, "channel": 0}, {"type": "note_off", "time": 67, "note": 58, "velocity": 108, "channel": 0}, {"type": "note_on", "time": 0, "note": 65, "velocity": 111, "channel": 0}, {"type": "note_off", "time": 198, "note": 65, "velocity": 111, "channel": 0}, {"type": "note_on", "time": 11, "note": 67, "velocity": 106, "channel": 0}, {"type": "note_off", "time": 156, "note": 67, "velocity": 106, "channel": 0}, {"type": "note_on", "time": 18, "note": 69, "velocity": 106, "channel": 0}, {"type": "note_off", "time": 125, "note": 69, "velocity": 106, "channel": 0}, {"type": "note_on", "time": 435, "note": 65, "velocity": 118, "channel": 0}, {"type": "note_off", "time": 108, "note": 65, "velocity": 118, "channel": 0}, {"type": "note_on", "time": 19, "note": 62, "velocity": 105, "channel": 0}, {"type": "note_off", "time": 82, "note": 62, "velocity": 105, "channel": 0}, {"type": "note_on", "time": 13, "note": 67, "velocity": 116, "channel": 0}, {"type": "note_off", "time": 165, "note": 67, "velocity": 116, "channel": 0}, {"type": "note_on", "time": 29, "note": 65, "velocity": 107, "channel": 0}, {"type": "note_off", "time": 118, "note": 65, "velocity": 107, "channel": 0}, {"type": "note_on", "time": 138, "note": 62, "velocity": 107, "channel": 0}, {"type": "note_off", "time": 298, "note": 62, "velocity": 107, "channel": 0}, {"type": "note_on", "time": 59, "note": 65, "velocity": 107, "channel": 0}, {"type": "note_off", "time": 116, "note": 65, "velocity": 107, "channel": 0}, {"type": "note_on", "time": 10, "note": 62, "velocity": 104, "channel": 0}, {"type": "note_off", "time": 65, "note": 62, "velocity": 104, "channel": 0}, {"type": "note_on", "time": 39, "note": 69, "velocity": 120, "channel": 0}, {"type": "note_off", "time": 836, "note": 69, "velocity": 120, "channel": 0}, {"type": "note_on", "time": 409, "note": 69, "velocity": 110, "channel": 0}, {"type": "note_off", "time": 101, "note": 69, "velocity": 110, "channel": 0}, {"type": "note_on", "time": 12, "note": 62, "velocity": 106, "channel": 0}, {"type": "note_off", "time": 88, "note": 62, "velocity": 106, "channel": 0}, {"type": "note_on", "time": 78, "note": 69, "velocity": 118, "channel": 0}, {"type": "note_off", "time": 368, "note": 69, "velocity": 118, "channel": 0}, {"type": "note_on", "time": 18, "note": 67, "velocity": 116, "channel": 0}, {"type": "note_off", "time": 70, "note": 67, "velocity": 116, "channel": 0}, {"type": "note_on", "time": 27, "note": 65, "velocity": 114, "channel": 0}, {"type": "note_off", "time": 143, "note": 65, "velocity": 114, "channel": 0}, {"type": "note_on", "time": 11, "note": 62, "velocity": 106, "channel": 0}, {"type": "note_off", "time": 104, "note": 62, "velocity": 106, "channel": 0}, {"type": "note_on", "time": 89, "note": 69, "velocity": 113, "channel": 0}, {"type": "note_off", "time": 189, "note": 69, "velocity": 113, "channel": 0}, {"type": "note_on", "time": 6, "note": 72, "velocity": 111, "channel": 0}, {"type": "note_off", "time": 94, "note": 72, "velocity": 111, "channel": 0}, {"type": "note_on", "time": 74, "note": 64, "velocity": 119, "channel": 0}, {"type": "note_off", "time": 356, "note": 64, "velocity": 119, "channel": 0}, {"type": "note_on", "time": 18, "note": 62, "velocity": 110, "channel": 0}, {"type": "note_off", "time": 65, "note": 62, "velocity": 110, "channel": 0}, {"type": "note_on", "time": 20, "note": 65, "velocity": 112, "channel": 0}, {"type": "note_off", "time": 77, "note": 65, "velocity": 112, "channel": 0}, {"type": "note_on", "time": 15, "note": 62, "velocity": 108, "channel": 0}, {"type": "note_off", "time": 85, "note": 62, "velocity": 108, "channel": 0}, {"type": "note_on", "time": 57, "note": 60, "velocity": 111, "channel": 0}, {"type": "note_off", "time": 47, "note": 60, "velocity": 111, "channel": 0}, {"type": "note_on", "time": 1, "note": 59, "velocity": 110, "channel": 0}, {"type": "note_off", "time": 96, "note": 59, "velocity": 110, "channel": 0}, {"type": "note_on", "time": 3, "note": 62, "velocity": 112, "channel": 0}, {"type": "note_off", "time": 66, "note": 62, "velocity": 112, "channel": 0}, {"type": "note_on", "time": 6, "note": 59, "velocity": 108, "channel": 0}, {"type": "note_off", "time": 98, "note": 59, "velocity": 108, "channel": 0}, {"type": "note_on", "time": 40, "note": 57, "velocity": 109, "channel": 0}, {"type": "note_off", "time": 51, "note": 57, "velocity": 109, "channel": 0}, {"type": "note_on", "time": 11, "note": 53, "velocity": 113, "channel": 0}, {"type": "note_off", "time": 177, "note": 53, "velocity": 113, "channel": 0}, {"type": "note_on", "time": 14, "note": 57, "velocity": 114, "channel": 0}, {"type": "note_off", "time": 58, "note": 57, "velocity": 114, "channel": 0}, {"type": "note_on", "time": 15, "note": 50, "velocity": 106, "channel": 0}, {"type": "note_off", "time": 142, "note": 50, "velocity": 106, "channel": 0}, {"type": "note_on", "time": 481, "note": 69, "velocity": 115, "channel": 0}, {"type": "note_off", "time": 521, "note": 69, "velocity": 115, "channel": 0}, {"type": "note_on", "time": 33, "note": 62, "velocity": 109, "channel": 0}, {"type": "note_off", "time": 72, "note": 62, "velocity": 109, "channel": 0}, {"type": "note_on", "time": 18, "note": 69, "velocity": 119, "channel": 0}, {"type": "note_off", "time": 200, "note": 69, "velocity": 119, "channel": 0}, {"type": "note_on", "time": 9, "note": 71, "velocity": 115, "channel": 0}, {"type": "note_off", "time": 80, "note": 71, "velocity": 115, "channel": 0}, {"type": "note_on", "time": 51, "note": 62, "velocity": 110, "channel": 0}, {"type": "note_off", "time": 43, "note": 62, "velocity": 110, "channel": 0}, {"type": "note_on", "time": 9, "note": 69, "velocity": 105, "channel": 0}, {"type": "note_off", "time": 563, "note": 69, "velocity": 105, "channel": 0}, {"type": "note_on", "time": 19, "note": 71, "velocity": 113, "channel": 0}, {"type": "note_off", "time": 69, "note": 71, "velocity": 113, "channel": 0}, {"type": "note_on", "time": 22, "note": 62, "velocity": 107, "channel": 0}, {"type": "note_off", "time": 63, "note": 62, "velocity": 107, "channel": 0}, {"type": "note_on", "time": 12, "note": 69, "velocity": 106, "channel": 0}, {"type": "note_off", "time": 206, "note": 69, "velocity": 106, "channel": 0}, {"type": "note_on", "time": 6, "note": 71, "velocity": 115, "channel": 0}, {"type": "note_off", "time": 82, "note": 71, "velocity": 115, "channel": 0}, {"type": "note_on", "time": 16, "note": 69, "velocity": 107, "channel": 0}, {"type": "note_off", "time": 84, "note": 69, "velocity": 107, "channel": 0}, {"type": "note_on", "time": 15, "note": 69, "velocity": 117, "channel": 0}, {"type": "note_off", "time": 160, "note": 69, "velocity": 117, "channel": 0}, {"type": "note_on", "time": 10, "note": 71, "velocity": 115, "channel": 0}, {"type": "note_off", "time": 57, "note": 71, "velocity": 115, "channel": 0}, {"type": "note_on", "time": 0, "note": 81, "velocity": 115, "channel": 0}, {"type": "note_off", "time": 106, "note": 81, "velocity": 115, "channel": 0}, {"type": "note_on", "time": 11, "note": 83, "velocity": 103, "channel": 0}, {"type": "note_off", "time": 195, "note": 83, "velocity": 103, "channel": 0}, {"type": "note_on", "time": 29, "note": 71, "velocity": 113, "channel": 0}, {"type": "note_off", "time": 73, "note": 71, "velocity": 113, "channel": 0}, {"type": "note_on", "time": 19, "note": 62, "velocity": 110, "channel": 0}, {"type": "note_off", "time": 69, "note": 62, "velocity": 110, "channel": 0}, {"type": "note_on", "time": 13, "note": 69, "velocity": 118, "channel": 0}, {"type": "note_off", "time": 177, "note": 69, "velocity": 118, "channel": 0}, {"type": "note_on", "time": 16, "note": 71, "velocity": 111, "channel": 0}, {"type": "note_off", "time": 63, "note": 71, "velocity": 111, "channel": 0}, {"type": "note_on", "time": 63, "note": 62, "velocity": 110, "channel": 0}, {"type": "note_off", "time": 44, "note": 62, "velocity": 110, "channel": 0}, {"type": "note_on", "time": 2, "note": 69, "velocity": 116, "channel": 0}, {"type": "note_off", "time": 245, "note": 69, "velocity": 116, "channel": 0}, {"type": "note_on", "time": 353, "note": 71, "velocity": 116, "channel": 0}, {"type": "note_off", "time": 58, "note": 71, "velocity": 116, "channel": 0}, {"type": "note_on", "time": 29, "note": 62, "velocity": 109, "channel": 0}, {"type": "note_off", "time": 41, "note": 62, "velocity": 109, "channel": 0}, {"type": "note_on", "time": 12, "note": 69, "velocity": 115, "channel": 0}, {"type": "note_off", "time": 207, "note": 69, "velocity": 115, "channel": 0}, {"type": "note_on", "time": 9, "note": 71, "velocity": 110, "channel": 0}, {"type": "note_off", "time": 68, "note": 71, "velocity": 110, "channel": 0}, {"type": "note_on", "time": 16, "note": 62, "velocity": 108, "channel": 0}, {"type": "note_off", "time": 36, "note": 62, "velocity": 108, "channel": 0}, {"type": "note_on", "time": 25, "note": 69, "velocity": 113, "channel": 0}, {"type": "note_off", "time": 200, "note": 69, "velocity": 113, "channel": 0}, {"type": "note_on", "time": 10, "note": 71, "velocity": 111, "channel": 0}, {"type": "note_off", "time": 78, "note": 71, "velocity": 111, "channel": 0}, {"type": "note_on", "time": 17, "note": 62, "velocity": 110, "channel": 0}, {"type": "note_off", "time": 49, "note": 62, "velocity": 110, "channel": 0}, {"type": "note_on", "time": 15, "note": 69, "velocity": 115, "channel": 0}, {"type": "note_off", "time": 212, "note": 69, "velocity": 115, "channel": 0}, {"type": "note_on", "time": 12, "note": 71, "velocity": 116, "channel": 0}, {"type": "note_off", "time": 88, "note": 71, "velocity": 116, "channel": 0}, {"type": "note_on", "time": 4, "note": 62, "velocity": 108, "channel": 0}, {"type": "note_off", "time": 36, "note": 62, "velocity": 108, "channel": 0}, {"type": "note_on", "time": 11, "note": 69, "velocity": 115, "channel": 0}, {"type": "note_off", "time": 235, "note": 69, "velocity": 115, "channel": 0}, {"type": "note_on", "time": 12, "note": 71, "velocity": 114, "channel": 0}, {"type": "note_off", "time": 66, "note": 71, "velocity": 114, "channel": 0}, {"type": "note_on", "time": 38, "note": 62, "velocity": 109, "channel": 0}, {"type": "note_off", "time": 38, "note": 62, "velocity": 109, "channel": 0}, {"type": "note_on", "time": 19, "note": 83, "velocity": 99, "channel": 0}, {"type": "note_off", "time": 147, "note": 83, "velocity": 99, "channel": 0}, {"type": "note_on", "time": 42, "note": 71, "velocity": 110, "channel": 0}, {"type": "note_off", "time": 89, "note": 71, "velocity": 110, "channel": 0}, {"type": "note_on", "time": 17, "note": 62, "velocity": 112, "channel": 0}, {"type": "note_off", "time": 31, "note": 62, "velocity": 112, "channel": 0}, {"type": "note_on", "time": 5, "note": 69, "velocity": 112, "channel": 0}, {"type": "note_off", "time": 234, "note": 69, "velocity": 112, "channel": 0}, {"type": "note_on", "time": 13, "note": 71, "velocity": 114, "channel": 0}, {"type": "note_off", "time": 76, "note": 71, "velocity": 114, "channel": 0}, {"type": "note_on", "time": 11, "note": 62, "velocity": 108, "channel": 0}, {"type": "note_off", "time": 36, "note": 62, "velocity": 108, "channel": 0}, {"type": "note_on", "time": 36, "note": 69, "velocity": 102, "channel": 0}, {"type": "note_off", "time": 214, "note": 69, "velocity": 102, "channel": 0}, {"type": "note_on", "time": 380, "note": 72, "velocity": 110, "channel": 0}, {"type": "note_off", "time": 85, "note": 72, "velocity": 110, "channel": 0}, {"type": "note_on", "time": 9, "note": 73, "velocity": 105, "channel": 0}, {"type": "note_off", "time": 50, "note": 73, "velocity": 105, "channel": 0}, {"type": "note_on", "time": 19, "note": 70, "velocity": 120, "channel": 0}, {"type": "note_off", "time": 202, "note": 70, "velocity": 120, "channel": 0}, {"type": "note_on", "time": 9, "note": 72, "velocity": 119, "channel": 0}, {"type": "note_off", "time": 90, "note": 72, "velocity": 119, "channel": 0}, {"type": "note_on", "time": 12, "note": 73, "velocity": 116, "channel": 0}, {"type": "note_off", "time": 58, "note": 73, "velocity": 116, "channel": 0}, {"type": "note_on", "time": 19, "note": 70, "velocity": 120, "channel": 0}, {"type": "note_off", "time": 214, "note": 70, "velocity": 120, "channel": 0}, {"type": "note_on", "time": 5, "note": 72, "velocity": 115, "channel": 0}, {"type": "note_off", "time": 77, "note": 72, "velocity": 115, "channel": 0}, {"type": "note_on", "time": 12, "note": 73, "velocity": 115, "channel": 0}, {"type": "note_off", "time": 78, "note": 73, "velocity": 115, "channel": 0}, {"type": "note_on", "time": 9, "note": 70, "velocity": 119, "channel": 0}, {"type": "note_off", "time": 198, "note": 70, "velocity": 119, "channel": 0}, {"type": "note_on", "time": 19, "note": 72, "velocity": 116, "channel": 0}, {"type": "note_off", "time": 63, "note": 72, "velocity": 116, "channel": 0}, {"type": "note_on", "time": 16, "note": 73, "velocity": 115, "channel": 0}, {"type": "note_off", "time": 75, "note": 73, "velocity": 115, "channel": 0}, {"type": "note_on", "time": 13, "note": 70, "velocity": 114, "channel": 0}, {"type": "note_off", "time": 217, "note": 70, "velocity": 114, "channel": 0}, {"type": "note_on", "time": 11, "note": 72, "velocity": 110, "channel": 0}, {"type": "note_off", "time": 65, "note": 72, "velocity": 110, "channel": 0}, {"type": "note_on", "time": 21, "note": 65, "velocity": 101, "channel": 0}, {"type": "note_off", "time": 52, "note": 65, "velocity": 101, "channel": 0}, {"type": "note_on", "time": 53, "note": 75, "velocity": 109, "channel": 0}, {"type": "note_off", "time": 151, "note": 75, "velocity": 109, "channel": 0}, {"type": "note_on", "time": 13, "note": 72, "velocity": 108, "channel": 0}, {"type": "note_off", "time": 39, "note": 72, "velocity": 108, "channel": 0}, {"type": "note_on", "time": 12, "note": 73, "velocity": 108, "channel": 0}, {"type": "note_off", "time": 99, "note": 73, "velocity": 108, "channel": 0}, {"type": "note_on", "time": 8, "note": 70, "velocity": 117, "channel": 0}, {"type": "note_off", "time": 206, "note": 70, "velocity": 117, "channel": 0}, {"type": "note_on", "time": 7, "note": 72, "velocity": 113, "channel": 0}, {"type": "note_off", "time": 76, "note": 72, "velocity": 113, "channel": 0}, {"type": "note_on", "time": 7, "note": 73, "velocity": 108, "channel": 0}, {"type": "note_off", "time": 72, "note": 73, "velocity": 108, "channel": 0}, {"type": "note_on", "time": 27, "note": 70, "velocity": 110, "channel": 0}, {"type": "note_off", "time": 251, "note": 70, "velocity": 110, "channel": 0}, {"type": "note_on", "time": 376, "note": 48, "velocity": 107, "channel": 0}, {"type": "note_off", "time": 108, "note": 48, "velocity": 107, "channel": 0}, {"type": "note_on", "time": 15, "note": 54, "velocity": 103, "channel": 0}, {"type": "note_off", "time": 46, "note": 54, "velocity": 103, "channel": 0}, {"type": "note_on", "time": 31, "note": 49, "velocity": 111, "channel": 0}, {"type": "note_off", "time": 249, "note": 49, "velocity": 111, "channel": 0}, {"type": "note_on", "time": 31, "note": 54, "velocity": 109, "channel": 0}, {"type": "note_off", "time": 75, "note": 54, "velocity": 109, "channel": 0}, {"type": "note_on", "time": 16, "note": 49, "velocity": 109, "channel": 0}, {"type": "note_off", "time": 63, "note": 49, "velocity": 109, "channel": 0}, {"type": "note_on", "time": 15, "note": 54, "velocity": 110, "channel": 0}, {"type": "note_off", "time": 74, "note": 54, "velocity": 110, "channel": 0}, {"type": "note_on", "time": 13, "note": 58, "velocity": 112, "channel": 0}, {"type": "note_off", "time": 72, "note": 58, "velocity": 112, "channel": 0}, {"type": "note_on", "time": 25, "note": 59, "velocity": 114, "channel": 0}, {"type": "note_off", "time": 99, "note": 59, "velocity": 114, "channel": 0}, {"type": "note_on", "time": 11, "note": 52, "velocity": 119, "channel": 0}, {"type": "note_off", "time": 70, "note": 52, "velocity": 119, "channel": 0}, {"type": "note_on", "time": 11, "note": 55, "velocity": 114, "channel": 0}, {"type": "note_off", "time": 66, "note": 55, "velocity": 114, "channel": 0}, {"type": "note_on", "time": 4, "note": 59, "velocity": 112, "channel": 0}, {"type": "note_off", "time": 65, "note": 59, "velocity": 112, "channel": 0}, {"type": "note_on", "time": 28, "note": 62, "velocity": 109, "channel": 0}, {"type": "note_off", "time": 81, "note": 62, "velocity": 109, "channel": 0}, {"type": "note_on", "time": 11, "note": 57, "velocity": 103, "channel": 0}, {"type": "note_off", "time": 70, "note": 57, "velocity": 103, "channel": 0}, {"type": "note_on", "time": 369, "note": 57, "velocity": 101, "channel": 0}, {"type": "note_off", "time": 29, "note": 57, "velocity": 101, "channel": 0}, {"type": "note_on", "time": 14, "note": 58, "velocity": 102, "channel": 0}, {"type": "note_off", "time": 34, "note": 58, "velocity": 102, "channel": 0}, {"type": "note_on", "time": 15, "note": 57, "velocity": 105, "channel": 0}, {"type": "note_off", "time": 31, "note": 57, "velocity": 105, "channel": 0}, {"type": "note_on", "time": 2, "note": 69, "velocity": 106, "channel": 0}, {"type": "note_off", "time": 27, "note": 69, "velocity": 106, "channel": 0}, {"type": "note_on", "time": 0, "note": 71, "velocity": 106, "channel": 0}, {"type": "note_off", "time": 71, "note": 71, "velocity": 106, "channel": 0}, {"type": "note_on", "time": 5, "note": 68, "velocity": 103, "channel": 0}, {"type": "note_off", "time": 88, "note": 68, "velocity": 103, "channel": 0}, {"type": "note_on", "time": 20, "note": 70, "velocity": 109, "channel": 0}, {"type": "note_off", "time": 137, "note": 70, "velocity": 109, "channel": 0}, {"type": "note_on", "time": 13, "note": 66, "velocity": 114, "channel": 0}, {"type": "note_off", "time": 59, "note": 66, "velocity": 114, "channel": 0}, {"type": "note_on", "time": 7, "note": 63, "velocity": 83, "channel": 0}, {"type": "note_off", "time": 112, "note": 63, "velocity": 83, "channel": 0}, {"type": "note_on", "time": 3, "note": 58, "velocity": 113, "channel": 0}, {"type": "note_off", "time": 113, "note": 58, "velocity": 113, "channel": 0}, {"type": "note_on", "time": 13, "note": 68, "velocity": 109, "channel": 0}, {"type": "note_off", "time": 43, "note": 68, "velocity": 109, "channel": 0}, {"type": "note_on", "time": 26, "note": 66, "velocity": 115, "channel": 0}, {"type": "note_off", "time": 56, "note": 66, "velocity": 115, "channel": 0}, {"type": "note_on", "time": 22, "note": 63, "velocity": 114, "channel": 0}, {"type": "note_off", "time": 127, "note": 63, "velocity": 114, "channel": 0}, {"type": "note_on", "time": 459, "note": 62, "velocity": 119, "channel": 0}, {"type": "note_off", "time": 324, "note": 62, "velocity": 119, "channel": 0}, {"type": "note_on", "time": 7, "note": 62, "velocity": 119, "channel": 0}, {"type": "note_off", "time": 323, "note": 62, "velocity": 119, "channel": 0}, {"type": "note_on", "time": 28, "note": 58, "velocity": 115, "channel": 0}, {"type": "note_off", "time": 59, "note": 58, "velocity": 115, "channel": 0}, {"type": "note_on", "time": 8, "note": 64, "velocity": 127, "channel": 0}, {"type": "note_off", "time": 181, "note": 64, "velocity": 127, "channel": 0}, {"type": "note_on", "time": 7, "note": 65, "velocity": 121, "channel": 0}, {"type": "note_off", "time": 193, "note": 65, "velocity": 121, "channel": 0}, {"type": "note_on", "time": 6, "note": 62, "velocity": 116, "channel": 0}, {"type": "note_off", "time": 342, "note": 62, "velocity": 116, "channel": 0}, {"type": "note_on", "time": 28, "note": 65, "velocity": 115, "channel": 0}, {"type": "note_off", "time": 73, "note": 65, "velocity": 115, "channel": 0}, {"type": "note_on", "time": 38, "note": 62, "velocity": 115, "channel": 0}, {"type": "note_off", "time": 102, "note": 62, "velocity": 115, "channel": 0}, {"type": "note_on", "time": 436, "note": 64, "velocity": 121, "channel": 0}, {"type": "note_off", "time": 90, "note": 64, "velocity": 121, "channel": 0}, {"type": "note_on", "time": 8, "note": 65, "velocity": 114, "channel": 0}, {"type": "note_off", "time": 172, "note": 65, "velocity": 114, "channel": 0}, {"type": "note_on", "time": 7, "note": 67, "velocity": 114, "channel": 0}, {"type": "note_off", "time": 180, "note": 67, "velocity": 114, "channel": 0}, {"type": "note_on", "time": 14, "note": 69, "velocity": 117, "channel": 0}, {"type": "note_off", "time": 174, "note": 69, "velocity": 117, "channel": 0}, {"type": "note_on", "time": 17, "note": 72, "velocity": 118, "channel": 0}, {"type": "note_off", "time": 130, "note": 72, "velocity": 118, "channel": 0}, {"type": "note_on", "time": 37, "note": 64, "velocity": 117, "channel": 0}, {"type": "note_off", "time": 393, "note": 64, "velocity": 117, "channel": 0}, {"type": "note_on", "time": 3, "note": 62, "velocity": 113, "channel": 0}, {"type": "note_off", "time": 185, "note": 62, "velocity": 113, "channel": 0}, {"type": "note_on", "time": 9, "note": 65, "velocity": 110, "channel": 0}, {"type": "note_off", "time": 91, "note": 65, "velocity": 110, "channel": 0}, {"type": "note_on", "time": 90, "note": 59, "velocity": 109, "channel": 0}, {"type": "note_off", "time": 171, "note": 59, "velocity": 109, "channel": 0}, {"type": "note_on", "time": 17, "note": 60, "velocity": 110, "channel": 0}, {"type": "note_off", "time": 100, "note": 60, "velocity": 110, "channel": 0}, {"type": "note_on", "time": 9, "note": 57, "velocity": 100, "channel": 0}, {"type": "note_off", "time": 476, "note": 57, "velocity": 100, "channel": 0}, {"type": "note_on", "time": 21, "note": 53, "velocity": 102, "channel": 0}, {"type": "note_off", "time": 156, "note": 53, "velocity": 102, "channel": 0}, {"type": "note_on", "time": 18, "note": 50, "velocity": 96, "channel": 0}, {"type": "note_off", "time": 101, "note": 50, "velocity": 96, "channel": 0}, {"type": "note_on", "time": 488, "note": 55, "velocity": 113, "channel": 0}, {"type": "note_off", "time": 105, "note": 55, "velocity": 113, "channel": 0}, {"type": "note_on", "time": 13, "note": 57, "velocity": 107, "channel": 0}, {"type": "note_off", "time": 277, "note": 57, "velocity": 107, "channel": 0}, {"type": "note_on", "time": 28, "note": 53, "velocity": 114, "channel": 0}, {"type": "note_off", "time": 556, "note": 53, "velocity": 114, "channel": 0}, {"type": "note_on", "time": 555, "note": 52, "velocity": 114, "channel": 0}, {"type": "note_off", "time": 134, "note": 52, "velocity": 114, "channel": 0}, {"type": "note_on", "time": 12, "note": 53, "velocity": 111, "channel": 0}, {"type": "note_off", "time": 263, "note": 53, "velocity": 111, "channel": 0}, {"type": "note_on", "time": 10, "note": 50, "velocity": 111, "channel": 0}, {"type": "note_off", "time": 516, "note": 50, "velocity": 111, "channel": 0}, {"type": "note_on", "time": 646, "note": 48, "velocity": 111, "channel": 0}, {"type": "note_off", "time": 91, "note": 48, "velocity": 111, "channel": 0}, {"type": "note_on", "time": 21, "note": 53, "velocity": 114, "channel": 0}, {"type": "note_off", "time": 52, "note": 53, "velocity": 114, "channel": 0}, {"type": "note_on", "time": 14, "note": 52, "velocity": 108, "channel": 0}, {"type": "note_off", "time": 76, "note": 52, "velocity": 108, "channel": 0}, {"type": "note_on", "time": 12, "note": 48, "velocity": 107, "channel": 0}, {"type": "note_off", "time": 85, "note": 48, "velocity": 107, "channel": 0}, {"type": "note_on", "time": 12, "note": 47, "velocity": 107, "channel": 0}, {"type": "note_off", "time": 535, "note": 47, "velocity": 107, "channel": 0}, {"type": "note_on", "time": 333, "note": 47, "velocity": 118, "channel": 0}, {"type": "note_off", "time": 61, "note": 47, "velocity": 118, "channel": 0}, {"type": "note_on", "time": 10, "note": 50, "velocity": 113, "channel": 0}, {"type": "note_off", "time": 92, "note": 50, "velocity": 113, "channel": 0}, {"type": "note_on", "time": 5, "note": 46, "velocity": 115, "channel": 0}, {"type": "note_off", "time": 102, "note": 46, "velocity": 115, "channel": 0}, {"type": "note_on", "time": 3, "note": 64, "velocity": 115, "channel": 0}, {"type": "note_off", "time": 116, "note": 64, "velocity": 115, "channel": 0}, {"type": "note_on", "time": 7, "note": 62, "velocity": 115, "channel": 0}, {"type": "note_off", "time": 69, "note": 62, "velocity": 115, "channel": 0}, {"type": "note_on", "time": 10, "note": 59, "velocity": 113, "channel": 0}, {"type": "note_off", "time": 94, "note": 59, "velocity": 113, "channel": 0}, {"type": "note_on", "time": 35, "note": 57, "velocity": 100, "channel": 0}, {"type": "note_off", "time": 5406, "note": 57, "velocity": 100, "channel": 0}, {"type": "end_of_track", "time": 0}]]}