{"ticks_per_beat": 192, "tracks": [[{"type": "track_name", "name": "Melody", "time": 0}, {"type": "set_tempo", "tempo": 361445, "time": 0}, {"type": "key_signature", "key": "Ab", "time": 0}, {"type": "time_signature", "numerator": 4, "denominator": 4, "clocks_per_click": 24, "notated_32nd_notes_per_beat": 8, "time": 0}, {"type": "note_on", "time": 1905, "note": 75, "velocity": 116, "channel": 0}, {"type": "note_off", "time": 113, "note": 75, "velocity": 116, "channel": 0}, {"type": "note_on", "time": 203, "note": 77, "velocity": 110, "channel": 0}, {"type": "note_off", "time": 62, "note": 77, "velocity": 110, "channel": 0}, {"type": "note_on", "time": 9, "note": 79, "velocity": 124, "channel": 0}, {"type": "note_off", "time": 88, "note": 79, "velocity": 124, "channel": 0}, {"type": "note_on", "time": 38, "note": 82, "velocity": 105, "channel": 0}, {"type": "note_off", "time": 183, "note": 82, "velocity": 105, "channel": 0}, {"type": "note_on", "time": 32, "note": 79, "velocity": 106, "channel": 0}, {"type": "note_off", "time": 49, "note": 79, "velocity": 106, "channel": 0}, {"type": "note_on", "time": 35, "note": 82, "velocity": 106, "channel": 0}, {"type": "note_off", "time": 151, "note": 82, "velocity": 106, "channel": 0}, {"type": "note_on", "time": 32, "note": 79, "velocity": 117, "channel": 0}, {"type": "note_off", "time": 86, "note": 79, "velocity": 117, "channel": 0}, {"type": "note_on", "time": 33, "note": 78, "velocity": 116, "channel": 0}, {"type": "note_off", "time": 46, "note": 78, "velocity": 116, "channel": 0}, {"type": "note_on", "time": 10, "note": 79, "velocity": 124, "channel": 0}, {"type": "note_off", "time": 74, "note": 79, "velocity": 124, "channel": 0}, {"type": "note_on", "time": 12, "note": 77, "velocity": 112, "channel": 0}, {"type": "note_off", "time": 37, "note": 77, "velocity": 112, "channel": 0}, {"type": "note_on", "time": 18, "note": 75, "velocity": 119, "channel": 0}, {"type": "note_off", "time": 53, "note": 75, "velocity": 119, "channel": 0}, {"type": "note_on", "time": 23, "note": 73, "velocity": 123, "channel": 0}, {"type": "note_off", "time": 80, "note": 73, "velocity": 123, "channel": 0}, {"type": "note_on", "time": 3, "note": 72, "velocity": 107, "channel": 0}, {"type": "note_off", "time": 43, "note": 72, "velocity": 107, "channel": 0}, {"type": "note_on", "time": 10, "note": 70, "velocity": 106, "channel": 0}, {"type": "note_off", "time": 44, "note": 70, "velocity": 106, "channel": 0}, {"type": "note_on", "time": 12, "note": 72, "velocity": 106, "channel": 0}, {"type": "note_off", "time": 263, "note": 72, "velocity": 106, "channel": 0}, {"type": "note_on", "time": 114, "note": 72, "velocity": 116, "channel": 0}, {"type": "note_off", "time": 95, "note": 72, "velocity": 116, "channel": 0}, {"type": "note_on", "time": 15, "note": 75, "velocity": 123, "channel": 0}, {"type": "note_off", "time": 81, "note": 75, "velocity": 123, "channel": 0}, {"type": "note_on", "time": 35, "note": 77, "velocity": 122, "channel": 0}, {"type": "note_off", "time": 52, "note": 77, "velocity": 122, "channel": 0}, {"type": "note_on", "time": 40, "note": 71, "velocity": 113, "channel": 0}, {"type": "note_off", "time": 53, "note": 71, "velocity": 113, "channel": 0}, {"type": "note_on", "time": 7, "note": 72, "velocity": 117, "channel": 0}, {"type": "note_off", "time": 86, "note": 72, "velocity": 117, "channel": 0}, {"type": "note_on", "time": 45, "note": 80, "velocity": 100, "channel": 0}, {"type": "note_off", "time": 165, "note": 80, "velocity": 100, "channel": 0}, {"type": "note_on", "time": 29, "note": 77, "velocity": 108, "channel": 0}, {"type": "note_off", "time": 66, "note": 77, "velocity": 108, "channel": 0}, {"type": "note_on", "time": 34, "note": 80, "velocity": 124, "channel": 0}, {"type": "note_off", "time": 70, "note": 80, "velocity": 124, "channel": 0}, {"type": "note_on", "time": 44, "note": 77, "velocity": 83, "channel": 0}, {"type": "note_off", "time": 215, "note": 77, "velocity": 83, "channel": 0}, {"type": "note_on", "time": 49, "note": 79, "velocity": 120, "channel": 0}, {"type": "note_off", "time": 70, "note": 79, "velocity": 120, "channel": 0}, {"type": "note_on", "time": 29, "note": 81, "velocity": 116, "channel": 0}, {"type": "note_off", "time": 83, "note": 81, "velocity": 116, "channel": 0}, {"type": "note_on", "time": 22, "note": 82, "velocity": 119, "channel": 0}, {"type": "note_off", "time": 84, "note": 82, "velocity": 119, "channel": 0}, {"type": "note_on", "time": 15, "note": 75, "velocity": 111, "channel": 0}, {"type": "note_off", "time": 67, "note": 75, "velocity": 111, "channel": 0}, {"type": "note_on", "time": 9, "note": 79, "velocity": 121, "channel": 0}, {"type": "note_off", "time": 84, "note": 79, "velocity": 121, "channel": 0}, {"type": "note_on", "time": 32, "note": 77, "velocity": 112, "channel": 0}, {"type": "note_off", "time": 55, "note": 77, "velocity": 112, "channel": 0}, {"type": "note_on", "time": 27, "note": 75, "velocity": 124, "channel": 0}, {"type": "note_off", "time": 77, "note": 75, "velocity": 124, "channel": 0}, {"type": "note_on", "time": 30, "note": 72, "velocity": 120, "channel": 0}, {"type": "note_off", "time": 47, "note": 72, "velocity": 120, "channel": 0}, {"type": "note_on", "time": 32, "note": 73, "velocity": 123, "channel": 0}, {"type": "note_off", "time": 70, "note": 73, "velocity": 123, "channel": 0}, {"type": "note_on", "time": 57, "note": 73, "velocity": 118, "channel": 0}, {"type": "note_off", "time": 80, "note": 73, "velocity": 118, "channel": 0}, {"type": "note_on", "time": 78, "note": 73, "velocity": 98, "channel": 0}, {"type": "note_off", "time": 346, "note": 73, "velocity": 98, "channel": 0}, {"type": "note_on", "time": 95, "note": 71, "velocity": 118, "channel": 0}, {"type": "note_off", "time": 72, "note": 71, "velocity": 118, "channel": 0}, {"type": "note_on", "time": 30, "note": 72, "velocity": 114, "channel": 0}, {"type": "note_off", "time": 61, "note": 72, "velocity": 114, "channel": 0}, {"type": "note_on", "time": 21, "note": 75, "velocity": 122, "channel": 0}, {"type": "note_off", "time": 81, "note": 75, "velocity": 122, "channel": 0}, {"type": "note_on", "time": 33, "note": 71, "velocity": 115, "channel": 0}, {"type": "note_off", "time": 67, "note": 71, "velocity": 115, "channel": 0}, {"type": "note_on", "time": 15, "note": 72, "velocity": 116, "channel": 0}, {"type": "note_off", "time": 77, "note": 72, "velocity": 116, "channel": 0}, {"type": "note_on", "time": 41, "note": 80, "velocity": 92, "channel": 0}, {"type": "note_off", "time": 178, "note": 80, "velocity": 92, "channel": 0}, {"type": "note_on", "time": 32, "note": 77, "velocity": 84, "channel": 0}, {"type": "note_off", "time": 49, "note": 77, "velocity": 84, "channel": 0}, {"type": "note_on", "time": 9, "note": 80, "velocity": 115, "channel": 0}, {"type": "note_off", "time": 94, "note": 80, "velocity": 115, "channel": 0}, {"type": "note_on", "time": 15, "note": 77, "velocity": 102, "channel": 0}, {"type": "note_off", "time": 38, "note": 77, "velocity": 102, "channel": 0}, {"type": "note_on", "time": 34, "note": 71, "velocity": 113, "channel": 0}, {"type": "note_off", "time": 103, "note": 71, "velocity": 113, "channel": 0}, {"type": "note_on", "time": 15, "note": 72, "velocity": 117, "channel": 0}, {"type": "note_off", "time": 64, "note": 72, "velocity": 117, "channel": 0}, {"type": "note_on", "time": 12, "note": 75, "velocity": 94, "channel": 0}, {"type": "note_off", "time": 177, "note": 75, "velocity": 94, "channel": 0}, {"type": "note_on", "time": 21, "note": 77, "velocity": 117, "channel": 0}, {"type": "note_off", "time": 60, "note": 77, "velocity": 117, "channel": 0}, {"type": "note_on", "time": 226, "note": 85, "velocity": 127, "channel": 0}, {"type": "note_off", "time": 283, "note": 85, "velocity": 127, "channel": 0}, {"type": "note_on", "time": 10, "note": 82, "velocity": 108, "channel": 0}, {"type": "note_off", "time": 74, "note": 82, "velocity": 108, "channel": 0}, {"type": "note_on", "time": 24, "note": 78, "velocity": 111, "channel": 0}, {"type": "note_off", "time": 166, "note": 78, "velocity": 111, "channel": 0}, {"type": "note_on", "time": 20, "note": 79, "velocity": 108, "channel": 0}, {"type": "note_off", "time": 60, "note": 79, "velocity": 108, "channel": 0}, {"type": "note_on", "time": 0, "note": 75, "velocity": 110, "channel": 0}, {"type": "note_off", "time": 98, "note": 75, "velocity": 110, "channel": 0}, {"type": "note_on", "time": 27, "note": 77, "velocity": 112, "channel": 0}, {"type": "note_off", "time": 50, "note": 77, "velocity": 112, "channel": 0}, {"type": "note_on", "time": 12, "note": 70, "velocity": 121, "channel": 0}, {"type": "note_off", "time": 94, "note": 70, "velocity": 121, "channel": 0}, {"type": "note_on", "time": 26, "note": 72, "velocity": 120, "channel": 0}, {"type": "note_off", "time": 53, "note": 72, "velocity": 120, "channel": 0}, {"type": "note_on", "time": 13, "note": 73, "velocity": 118, "channel": 0}, {"type": "note_off", "time": 63, "note": 73, "velocity": 118, "channel": 0}, {"type": "note_on", "time": 66, "note": 73, "velocity": 101, "channel": 0}, {"type": "note_off", "time": 214, "note": 73, "velocity": 101, "channel": 0}, {"type": "note_on", "time": 55, "note": 71, "velocity": 112, "channel": 0}, {"type": "note_off", "time": 77, "note": 71, "velocity": 112, "channel": 0}, {"type": "note_on", "time": 26, "note": 72, "velocity": 112, "channel": 0}, {"type": "note_off", "time": 58, "note": 72, "velocity": 112, "channel": 0}, {"type": "note_on", "time": 23, "note": 75, "velocity": 121, "channel": 0}, {"type": "note_off", "time": 92, "note": 75, "velocity": 121, "channel": 0}, {"type": "note_on", "time": 9, "note": 71, "velocity": 115, "channel": 0}, {"type": "note_off", "time": 80, "note": 71, "velocity": 115, "channel": 0}, {"type": "note_on", "time": 8, "note": 72, "velocity": 118, "channel": 0}, {"type": "note_off", "time": 61, "note": 72, "velocity": 118, "channel": 0}, {"type": "note_on", "time": 46, "note": 80, "velocity": 92, "channel": 0}, {"type": "note_off", "time": 168, "note": 80, "velocity": 92, "channel": 0}, {"type": "note_on", "time": 16, "note": 75, "velocity": 107, "channel": 0}, {"type": "note_off", "time": 37, "note": 75, "velocity": 107, "channel": 0}, {"type": "note_on", "time": 34, "note": 80, "velocity": 94, "channel": 0}, {"type": "note_off", "time": 151, "note": 80, "velocity": 94, "channel": 0}, {"type": "note_on", "time": 43, "note": 72, "velocity": 116, "channel": 0}, {"type": "note_off", "time": 60, "note": 72, "velocity": 116, "channel": 0}, {"type": "note_on", "time": 66, "note": 75, "velocity": 102, "channel": 0}, {"type": "note_off", "time": 201, "note": 75, "velocity": 102, "channel": 0}, {"type": "note_on", "time": 231, "note": 76, "velocity": 114, "channel": 0}, {"type": "note_off", "time": 123, "note": 76, "velocity": 114, "channel": 0}, {"type": "note_on", "time": 12, "note": 77, "velocity": 119, "channel": 0}, {"type": "note_off", "time": 61, "note": 77, "velocity": 119, "channel": 0}, {"type": "note_on", "time": 23, "note": 80, "velocity": 107, "channel": 0}, {"type": "note_off", "time": 104, "note": 80, "velocity": 107, "channel": 0}, {"type": "note_on", "time": 26, "note": 77, "velocity": 105, "channel": 0}, {"type": "note_off", "time": 53, "note": 77, "velocity": 105, "channel": 0}, {"type": "note_on", "time": 13, "note": 80, "velocity": 112, "channel": 0}, {"type": "note_off", "time": 111, "note": 80, "velocity": 112, "channel": 0}, {"type": "note_on", "time": 20, "note": 77, "velocity": 105, "channel": 0}, {"type": "note_off", "time": 155, "note": 77, "velocity": 105, "channel": 0}, {"type": "note_on", "time": 10, "note": 72, "velocity": 116, "channel": 0}, {"type": "note_off", "time": 66, "note": 72, "velocity": 116, "channel": 0}, {"type": "note_on", "time": 4, "note": 75, "velocity": 102, "channel": 0}, {"type": "note_off", "time": 171, "note": 75, "velocity": 102, "channel": 0}, {"type": "note_on", "time": 18, "note": 72, "velocity": 110, "channel": 0}, {"type": "note_off", "time": 62, "note": 72, "velocity": 110, "channel": 0}, {"type": "note_on", "time": 11, "note": 71, "velocity": 109, "channel": 0}, {"type": "note_off", "time": 56, "note": 71, "velocity": 109, "channel": 0}, {"type": "note_on", "time": 5, "note": 70, "velocity": 111, "channel": 0}, {"type": "note_off", "time": 54, "note": 70, "velocity": 111, "channel": 0}, {"type": "note_on", "time": 10, "note": 69, "velocity": 116, "channel": 0}, {"type": "note_off", "time": 77, "note": 69, "velocity": 116, "channel": 0}, {"type": "note_on", "time": 43, "note": 77, "velocity": 113, "channel": 0}, {"type": "note_off", "time": 61, "note": 77, "velocity": 113, "channel": 0}, {"type": "note_on", "time": 198, "note": 74, "velocity": 108, "channel": 0}, {"type": "note_off", "time": 104, "note": 74, "velocity": 108, "channel": 0}, {"type": "note_on", "time": 15, "note": 80, "velocity": 123, "channel": 0}, {"type": "note_off", "time": 61, "note": 80, "velocity": 123, "channel": 0}, {"type": "note_on", "time": 21, "note": 77, "velocity": 117, "channel": 0}, {"type": "note_off", "time": 50, "note": 77, "velocity": 117, "channel": 0}, {"type": "note_on", "time": 43, "note": 74, "velocity": 107, "channel": 0}, {"type": "note_off", "time": 80, "note": 74, "velocity": 107, "channel": 0}, {"type": "note_on", "time": 13, "note": 73, "velocity": 123, "channel": 0}, {"type": "note_off", "time": 72, "note": 73, "velocity": 123, "channel": 0}, {"type": "note_on", "time": 43, "note": 79, "velocity": 116, "channel": 0}, {"type": "note_off", "time": 66, "note": 79, "velocity": 116, "channel": 0}, {"type": "note_on", "time": 13, "note": 77, "velocity": 105, "channel": 0}, {"type": "note_off", "time": 75, "note": 77, "velocity": 105, "channel": 0}, {"type": "note_on", "time": 20, "note": 73, "velocity": 113, "channel": 0}, {"type": "note_off", "time": 69, "note": 73, "velocity": 113, "channel": 0}, {"type": "note_on", "time": 26, "note": 72, "velocity": 112, "channel": 0}, {"type": "note_off", "time": 183, "note": 72, "velocity": 112, "channel": 0}, {"type": "note_on", "time": 12, "note": 71, "velocity": 119, "channel": 0}, {"type": "note_off", "time": 31, "note": 71, "velocity": 119, "channel": 0}, {"type": "note_on", "time": 6, "note": 70, "velocity": 115, "channel": 0}, {"type": "note_off", "time": 41, "note": 70, "velocity": 115, "channel": 0}, {"type": "note_on", "time": 16, "note": 69, "velocity": 113, "channel": 0}, {"type": "note_off", "time": 60, "note": 69, "velocity": 113, "channel": 0}, {"type": "note_on", "time": 30, "note": 77, "velocity": 99, "channel": 0}, {"type": "note_off", "time": 234, "note": 77, "velocity": 99, "channel": 0}, {"type": "note_on", "time": 124, "note": 74, "velocity": 111, "channel": 0}, {"type": "note_off", "time": 94, "note": 74, "velocity": 111, "channel": 0}, {"type": "note_on", "time": 43, "note": 80, "velocity": 123, "channel": 0}, {"type": "note_off", "time": 67, "note": 80, "velocity": 123, "channel": 0}, {"type": "note_on", "time": 15, "note": 77, "velocity": 117, "channel": 0}, {"type": "note_off", "time": 84, "note": 77, "velocity": 117, "channel": 0}, {"type": "note_on", "time": 16, "note": 74, "velocity": 102, "channel": 0}, {"type": "note_off", "time": 87, "note": 74, "velocity": 102, "channel": 0}, {"type": "note_on", "time": 7, "note": 73, "velocity": 122, "channel": 0}, {"type": "note_off", "time": 87, "note": 73, "velocity": 122, "channel": 0}, {"type": "note_on", "time": 22, "note": 79, "velocity": 100, "channel": 0}, {"type": "note_off", "time": 169, "note": 79, "velocity": 100, "channel": 0}, {"type": "note_on", "time": 30, "note": 73, "velocity": 116, "channel": 0}, {"type": "note_off", "time": 58, "note": 73, "velocity": 116, "channel": 0}, {"type": "note_on", "time": 13, "note": 72, "velocity": 113, "channel": 0}, {"type": "note_off", "time": 94, "note": 72, "velocity": 113, "channel": 0}, {"type": "note_on", "time": 16, "note": 71, "velocity": 117, "channel": 0}, {"type": "note_off", "time": 72, "note": 71, "velocity": 117, "channel": 0}, {"type": "note_on", "time": 4, "note": 72, "velocity": 116, "channel": 0}, {"type": "note_off", "time": 86, "note": 72, "velocity": 116, "channel": 0}, {"type": "note_on", "time": 37, "note": 73, "velocity": 117, "channel": 0}, {"type": "note_off", "time": 78, "note": 73, "velocity": 117, "channel": 0}, {"type": "note_on", "time": 15, "note": 72, "velocity": 96, "channel": 0}, {"type": "note_off", "time": 77, "note": 72, "velocity": 96, "channel": 0}, {"type": "end_of_track", "time": 0}]]}