{"ticks_per_beat": 192, "tracks": [[{"type": "track_name", "name": "Melody", "time": 0}, {"type": "set_tempo", "tempo": 363636, "time": 0}, {"type": "key_signature", "key": "Bb", "time": 0}, {"type": "time_signature", "numerator": 4, "denominator": 4, "clocks_per_click": 24, "notated_32nd_notes_per_beat": 8, "time": 0}, {"type": "note_on", "time": 2341, "note": 62, "velocity": 122, "channel": 0}, {"type": "note_off", "time": 75, "note": 62, "velocity": 122, "channel": 0}, {"type": "note_on", "time": 1, "note": 60, "velocity": 111, "channel": 0}, {"type": "note_off", "time": 73, "note": 60, "velocity": 111, "channel": 0}, {"type": "note_on", "time": 3, "note": 58, "velocity": 95, "channel": 0}, {"type": "note_off", "time": 45, "note": 58, "velocity": 95, "channel": 0}, {"type": "note_on", "time": 2, "note": 63, "velocity": 120, "channel": 0}, {"type": "note_off", "time": 82, "note": 63, "velocity": 120, "channel": 0}, {"type": "note_on", "time": 4, "note": 65, "velocity": 112, "channel": 0}, {"type": "note_off", "time": 39, "note": 65, "velocity": 112, "channel": 0}, {"type": "note_on", "time": 1, "note": 67, "velocity": 127, "channel": 0}, {"type": "note_off", "time": 66, "note": 67, "velocity": 127, "channel": 0}, {"type": "note_on", "time": 5, "note": 65, "velocity": 114, "channel": 0}, {"type": "note_off", "time": 258, "note": 65, "velocity": 114, "channel": 0}, {"type": "note_on", "time": 90, "note": 70, "velocity": 119, "channel": 0}, {"type": "note_off", "time": 133, "note": 70, "velocity": 119, "channel": 0}, {"type": "note_on", "time": 187, "note": 59, "velocity": 79, "channel": 0}, {"type": "note_off", "time": 51, "note": 59, "velocity": 79, "channel": 0}, {"type": "note_on", "time": 5, "note": 63, "velocity": 119, "channel": 0}, {"type": "note_off", "time": 373, "note": 63, "velocity": 119, "channel": 0}, {"type": "note_on", "time": 70, "note": 67, "velocity": 104, "channel": 0}, {"type": "note_off", "time": 108, "note": 67, "velocity": 104, "channel": 0}, {"type": "note_on", "time": 41, "note": 70, "velocity": 108, "channel": 0}, {"type": "note_off", "time": 350, "note": 70, "velocity": 108, "channel": 0}, {"type": "note_on", "time": 1023, "note": 70, "velocity": 117, "channel": 0}, {"type": "note_off", "time": 93, "note": 70, "velocity": 117, "channel": 0}, {"type": "note_on", "time": 4, "note": 69, "velocity": 110, "channel": 0}, {"type": "note_off", "time": 108, "note": 69, "velocity": 110, "channel": 0}, {"type": "note_on", "time": 85, "note": 73, "velocity": 112, "channel": 0}, {"type": "note_off", "time": 111, "note": 73, "velocity": 112, "channel": 0}, {"type": "note_on", "time": 3, "note": 71, "velocity": 108, "channel": 0}, {"type": "note_off", "time": 119, "note": 71, "velocity": 108, "channel": 0}, {"type": "note_on", "time": 102, "note": 66, "velocity": 108, "channel": 0}, {"type": "note_off", "time": 147, "note": 66, "velocity": 108, "channel": 0}, {"type": "note_on", "time": 7, "note": 64, "velocity": 104, "channel": 0}, {"type": "note_off", "time": 59, "note": 64, "velocity": 104, "channel": 0}, {"type": "note_on", "time": 807, "note": 68, "velocity": 110, "channel": 0}, {"type": "note_off", "time": 61, "note": 68, "velocity": 110, "channel": 0}, {"type": "note_on", "time": 6, "note": 67, "velocity": 112, "channel": 0}, {"type": "note_off", "time": 95, "note": 67, "velocity": 112, "channel": 0}, {"type": "note_on", "time": 9, "note": 66, "velocity": 110, "channel": 0}, {"type": "note_off", "time": 95, "note": 66, "velocity": 110, "channel": 0}, {"type": "note_on", "time": 6, "note": 65, "velocity": 115, "channel": 0}, {"type": "note_off", "time": 88, "note": 65, "velocity": 115, "channel": 0}, {"type": "note_on", "time": 7, "note": 63, "velocity": 118, "channel": 0}, {"type": "note_off", "time": 70, "note": 63, "velocity": 118, "channel": 0}, {"type": "note_on", "time": 12, "note": 62, "velocity": 121, "channel": 0}, {"type": "note_off", "time": 87, "note": 62, "velocity": 121, "channel": 0}, {"type": "note_on", "time": 12, "note": 60, "velocity": 108, "channel": 0}, {"type": "note_off", "time": 82, "note": 60, "velocity": 108, "channel": 0}, {"type": "note_on", "time": 10, "note": 58, "velocity": 103, "channel": 0}, {"type": "note_off", "time": 87, "note": 58, "velocity": 103, "channel": 0}, {"type": "note_on", "time": 209, "note": 68, "velocity": 111, "channel": 0}, {"type": "note_off", "time": 73, "note": 68, "velocity": 111, "channel": 0}, {"type": "note_on", "time": 32, "note": 66, "velocity": 109, "channel": 0}, {"type": "note_off", "time": 73, "note": 66, "velocity": 109, "channel": 0}, {"type": "note_on", "time": 7, "note": 67, "velocity": 110, "channel": 0}, {"type": "note_off", "time": 55, "note": 67, "velocity": 110, "channel": 0}, {"type": "note_on", "time": 42, "note": 64, "velocity": 114, "channel": 0}, {"type": "note_off", "time": 82, "note": 64, "velocity": 114, "channel": 0}, {"type": "note_on", "time": 26, "note": 60, "velocity": 113, "channel": 0}, {"type": "note_off", "time": 65, "note": 60, "velocity": 113, "channel": 0}, {"type": "note_on", "time": 35, "note": 59, "velocity": 101, "channel": 0}, {"type": "note_off", "time": 73, "note": 59, "velocity": 101, "channel": 0}, {"type": "note_on", "time": 21, "note": 61, "velocity": 103, "channel": 0}, {"type": "note_off", "time": 95, "note": 61, "velocity": 103, "channel": 0}, {"type": "note_on", "time": 12, "note": 63, "velocity": 89, "channel": 0}, {"type": "note_off", "time": 85, "note": 63, "velocity": 89, "channel": 0}, {"type": "note_on", "time": 6, "note": 66, "velocity": 113, "channel": 0}, {"type": "note_off", "time": 72, "note": 66, "velocity": 113, "channel": 0}, {"type": "note_on", "time": 45, "note": 65, "velocity": 110, "channel": 0}, {"type": "note_off", "time": 324, "note": 65, "velocity": 110, "channel": 0}, {"type": "note_on", "time": 13, "note": 65, "velocity": 112, "channel": 0}, {"type": "note_off", "time": 165, "note": 65, "velocity": 112, "channel": 0}, {"type": "note_on", "time": 10, "note": 60, "velocity": 107, "channel": 0}, {"type": "note_off", "time": 105, "note": 60, "velocity": 107, "channel": 0}, {"type": "note_on", "time": 84, "note": 58, "velocity": 94, "channel": 0}, {"type": "note_off", "time": 300, "note": 58, "velocity": 94, "channel": 0}, {"type": "note_on", "time": 105, "note": 66, "velocity": 112, "channel": 0}, {"type": "note_off", "time": 44, "note": 66, "velocity": 112, "channel": 0}, {"type": "note_on", "time": 9, "note": 67, "velocity": 116, "channel": 0}, {"type": "note_off", "time": 102, "note": 67, "velocity": 116, "channel": 0}, {"type": "note_on", "time": 125, "note": 58, "velocity": 101, "channel": 0}, {"type": "note_off", "time": 121, "note": 58, "velocity": 101, "channel": 0}, {"type": "note_on", "time": 36, "note": 60, "velocity": 91, "channel": 0}, {"type": "note_off", "time": 78, "note": 60, "velocity": 91, "channel": 0}, {"type": "note_on", "time": 3, "note": 61, "velocity": 87, "channel": 0}, {"type": "note_off", "time": 114, "note": 61, "velocity": 87, "channel": 0}, {"type": "note_on", "time": 796, "note": 63, "velocity": 116, "channel": 0}, {"type": "note_off", "time": 81, "note": 63, "velocity": 116, "channel": 0}, {"type": "note_on", "time": 30, "note": 67, "velocity": 114, "channel": 0}, {"type": "note_off", "time": 87, "note": 67, "velocity": 114, "channel": 0}, {"type": "note_on", "time": 4, "note": 65, "velocity": 112, "channel": 0}, {"type": "note_off", "time": 79, "note": 65, "velocity": 112, "channel": 0}, {"type": "note_on", "time": 7, "note": 63, "velocity": 115, "channel": 0}, {"type": "note_off", "time": 78, "note": 63, "velocity": 115, "channel": 0}, {"type": "note_on", "time": 6, "note": 60, "velocity": 111, "channel": 0}, {"type": "note_off", "time": 68, "note": 60, "velocity": 111, "channel": 0}, {"type": "note_on", "time": 10, "note": 56, "velocity": 101, "channel": 0}, {"type": "note_off", "time": 116, "note": 56, "velocity": 101, "channel": 0}, {"type": "note_on", "time": 81, "note": 62, "velocity": 119, "channel": 0}, {"type": "note_off", "time": 98, "note": 62, "velocity": 119, "channel": 0}, {"type": "note_on", "time": 12, "note": 60, "velocity": 102, "channel": 0}, {"type": "note_off", "time": 78, "note": 60, "velocity": 102, "channel": 0}, {"type": "note_on", "time": 13, "note": 58, "velocity": 94, "channel": 0}, {"type": "note_off", "time": 111, "note": 58, "velocity": 94, "channel": 0}, {"type": "note_on", "time": 15, "note": 68, "velocity": 112, "channel": 0}, {"type": "note_off", "time": 85, "note": 68, "velocity": 112, "channel": 0}, {"type": "note_on", "time": 15, "note": 67, "velocity": 107, "channel": 0}, {"type": "note_off", "time": 96, "note": 67, "velocity": 107, "channel": 0}, {"type": "note_on", "time": 7, "note": 65, "velocity": 109, "channel": 0}, {"type": "note_off", "time": 58, "note": 65, "velocity": 109, "channel": 0}, {"type": "note_on", "time": 12, "note": 63, "velocity": 112, "channel": 0}, {"type": "note_off", "time": 98, "note": 63, "velocity": 112, "channel": 0}, {"type": "note_on", "time": 16, "note": 58, "velocity": 85, "channel": 0}, {"type": "note_off", "time": 62, "note": 58, "velocity": 85, "channel": 0}, {"type": "note_on", "time": 4, "note": 60, "velocity": 100, "channel": 0}, {"type": "note_off", "time": 107, "note": 60, "velocity": 100, "channel": 0}, {"type": "note_on", "time": 6, "note": 63, "velocity": 114, "channel": 0}, {"type": "note_off", "time": 75, "note": 63, "velocity": 114, "channel": 0}, {"type": "note_on", "time": 312, "note": 69, "velocity": 114, "channel": 0}, {"type": "note_off", "time": 35, "note": 69, "velocity": 114, "channel": 0}, {"type": "note_on", "time": 9, "note": 70, "velocity": 115, "channel": 0}, {"type": "note_off", "time": 85, "note": 70, "velocity": 115, "channel": 0}, {"type": "note_on", "time": 90, "note": 69, "velocity": 114, "channel": 0}, {"type": "note_off", "time": 102, "note": 69, "velocity": 114, "channel": 0}, {"type": "note_on", "time": 76, "note": 67, "velocity": 109, "channel": 0}, {"type": "note_off", "time": 87, "note": 67, "velocity": 109, "channel": 0}, {"type": "note_on", "time": 6, "note": 65, "velocity": 114, "channel": 0}, {"type": "note_off", "time": 95, "note": 65, "velocity": 114, "channel": 0}, {"type": "note_on", "time": 7, "note": 60, "velocity": 95, "channel": 0}, {"type": "note_off", "time": 61, "note": 60, "velocity": 95, "channel": 0}, {"type": "note_on", "time": 10, "note": 63, "velocity": 111, "channel": 0}, {"type": "note_off", "time": 116, "note": 63, "velocity": 111, "channel": 0}, {"type": "note_on", "time": 10, "note": 65, "velocity": 106, "channel": 0}, {"type": "note_off", "time": 35, "note": 65, "velocity": 106, "channel": 0}, {"type": "note_on", "time": 1, "note": 63, "velocity": 106, "channel": 0}, {"type": "note_off", "time": 47, "note": 63, "velocity": 106, "channel": 0}, {"type": "note_on", "time": 4, "note": 62, "velocity": 113, "channel": 0}, {"type": "note_off", "time": 151, "note": 62, "velocity": 113, "channel": 0}, {"type": "note_on", "time": 326, "note": 62, "velocity": 112, "channel": 0}, {"type": "note_off", "time": 163, "note": 62, "velocity": 112, "channel": 0}, {"type": "note_on", "time": 7, "note": 62, "velocity": 116, "channel": 0}, {"type": "note_off", "time": 39, "note": 62, "velocity": 116, "channel": 0}, {"type": "note_on", "time": 9, "note": 61, "velocity": 111, "channel": 0}, {"type": "note_off", "time": 42, "note": 61, "velocity": 111, "channel": 0}, {"type": "note_on", "time": 9, "note": 60, "velocity": 102, "channel": 0}, {"type": "note_off", "time": 33, "note": 60, "velocity": 102, "channel": 0}, {"type": "note_on", "time": 16, "note": 59, "velocity": 99, "channel": 0}, {"type": "note_off", "time": 55, "note": 59, "velocity": 99, "channel": 0}, {"type": "note_on", "time": 70, "note": 56, "velocity": 89, "channel": 0}, {"type": "note_off", "time": 53, "note": 56, "velocity": 89, "channel": 0}, {"type": "note_on", "time": 4, "note": 58, "velocity": 86, "channel": 0}, {"type": "note_off", "time": 42, "note": 58, "velocity": 86, "channel": 0}, {"type": "note_on", "time": 21, "note": 63, "velocity": 112, "channel": 0}, {"type": "note_off", "time": 41, "note": 63, "velocity": 112, "channel": 0}, {"type": "note_on", "time": 15, "note": 67, "velocity": 112, "channel": 0}, {"type": "note_off", "time": 44, "note": 67, "velocity": 112, "channel": 0}, {"type": "note_on", "time": 3, "note": 66, "velocity": 107, "channel": 0}, {"type": "note_off", "time": 93, "note": 66, "velocity": 107, "channel": 0}, {"type": "note_on", "time": 6, "note": 62, "velocity": 109, "channel": 0}, {"type": "note_off", "time": 93, "note": 62, "velocity": 109, "channel": 0}, {"type": "note_on", "time": 18, "note": 65, "velocity": 103, "channel": 0}, {"type": "note_off", "time": 45, "note": 65, "velocity": 103, "channel": 0}, {"type": "note_on", "time": 10, "note": 65, "velocity": 107, "channel": 0}, {"type": "note_off", "time": 42, "note": 65, "velocity": 107, "channel": 0}, {"type": "note_on", "time": 6, "note": 63, "velocity": 113, "channel": 0}, {"type": "note_off", "time": 42, "note": 63, "velocity": 113, "channel": 0}, {"type": "note_on", "time": 29, "note": 60, "velocity": 104, "channel": 0}, {"type": "note_off", "time": 117, "note": 60, "velocity": 104, "channel": 0}, {"type": "note_on", "time": 653, "note": 65, "velocity": 117, "channel": 0}, {"type": "note_off", "time": 95, "note": 65, "velocity": 117, "channel": 0}, {"type": "note_on", "time": 7, "note": 63, "velocity": 109, "channel": 0}, {"type": "note_off", "time": 40, "note": 63, "velocity": 109, "channel": 0}, {"type": "note_on", "time": 14, "note": 61, "velocity": 97, "channel": 0}, {"type": "note_off", "time": 34, "note": 61, "velocity": 97, "channel": 0}, {"type": "note_on", "time": 6, "note": 57, "velocity": 96, "channel": 0}, {"type": "note_off", "time": 89, "note": 57, "velocity": 96, "channel": 0}, {"type": "note_on", "time": 5, "note": 54, "velocity": 95, "channel": 0}, {"type": "note_off", "time": 197, "note": 54, "velocity": 95, "channel": 0}, {"type": "note_on", "time": 4, "note": 63, "velocity": 113, "channel": 0}, {"type": "note_off", "time": 99, "note": 63, "velocity": 113, "channel": 0}, {"type": "note_on", "time": 3, "note": 62, "velocity": 114, "channel": 0}, {"type": "note_off", "time": 75, "note": 62, "velocity": 114, "channel": 0}, {"type": "note_on", "time": 6, "note": 60, "velocity": 105, "channel": 0}, {"type": "note_off", "time": 65, "note": 60, "velocity": 105, "channel": 0}, {"type": "note_on", "time": 35, "note": 58, "velocity": 98, "channel": 0}, {"type": "note_off", "time": 82, "note": 58, "velocity": 98, "channel": 0}, {"type": "note_on", "time": 110, "note": 58, "velocity": 100, "channel": 0}, {"type": "note_off", "time": 82, "note": 58, "velocity": 100, "channel": 0}, {"type": "note_on", "time": 8, "note": 59, "velocity": 102, "channel": 0}, {"type": "note_off", "time": 191, "note": 59, "velocity": 102, "channel": 0}, {"type": "note_on", "time": 10, "note": 54, "velocity": 103, "channel": 0}, {"type": "note_off", "time": 52, "note": 54, "velocity": 103, "channel": 0}, {"type": "note_on", "time": 8, "note": 63, "velocity": 96, "channel": 0}, {"type": "note_off", "time": 37, "note": 63, "velocity": 96, "channel": 0}, {"type": "note_on", "time": 5, "note": 64, "velocity": 103, "channel": 0}, {"type": "note_off", "time": 24, "note": 64, "velocity": 103, "channel": 0}, {"type": "note_on", "time": 3, "note": 63, "velocity": 112, "channel": 0}, {"type": "note_off", "time": 46, "note": 63, "velocity": 112, "channel": 0}, {"type": "note_on", "time": 4, "note": 61, "velocity": 109, "channel": 0}, {"type": "note_off", "time": 53, "note": 61, "velocity": 109, "channel": 0}, {"type": "note_on", "time": 2, "note": 59, "velocity": 99, "channel": 0}, {"type": "note_off", "time": 113, "note": 59, "velocity": 99, "channel": 0}, {"type": "note_on", "time": 314, "note": 58, "velocity": 97, "channel": 0}, {"type": "note_off", "time": 90, "note": 58, "velocity": 97, "channel": 0}, {"type": "note_on", "time": 84, "note": 61, "velocity": 109, "channel": 0}, {"type": "note_off", "time": 52, "note": 61, "velocity": 109, "channel": 0}, {"type": "note_on", "time": 6, "note": 62, "velocity": 121, "channel": 0}, {"type": "note_off", "time": 428, "note": 62, "velocity": 121, "channel": 0}, {"type": "note_on", "time": 105, "note": 63, "velocity": 115, "channel": 0}, {"type": "note_off", "time": 128, "note": 63, "velocity": 115, "channel": 0}, {"type": "note_on", "time": 765, "note": 62, "velocity": 109, "channel": 0}, {"type": "note_off", "time": 127, "note": 62, "velocity": 109, "channel": 0}, {"type": "note_on", "time": 30, "note": 62, "velocity": 120, "channel": 0}, {"type": "note_off", "time": 108, "note": 62, "velocity": 120, "channel": 0}, {"type": "note_on", "time": 6, "note": 63, "velocity": 117, "channel": 0}, {"type": "note_off", "time": 99, "note": 63, "velocity": 117, "channel": 0}, {"type": "note_on", "time": 1, "note": 64, "velocity": 95, "channel": 0}, {"type": "note_off", "time": 18, "note": 64, "velocity": 95, "channel": 0}, {"type": "note_on", "time": 3, "note": 63, "velocity": 111, "channel": 0}, {"type": "note_off", "time": 57, "note": 63, "velocity": 111, "channel": 0}, {"type": "note_on", "time": 11, "note": 62, "velocity": 87, "channel": 0}, {"type": "note_off", "time": 37, "note": 62, "velocity": 87, "channel": 0}, {"type": "note_on", "time": 145, "note": 64, "velocity": 108, "channel": 0}, {"type": "note_off", "time": 190, "note": 64, "velocity": 108, "channel": 0}, {"type": "note_on", "time": 4, "note": 61, "velocity": 109, "channel": 0}, {"type": "note_off", "time": 79, "note": 61, "velocity": 109, "channel": 0}, {"type": "note_on", "time": 18, "note": 59, "velocity": 91, "channel": 0}, {"type": "note_off", "time": 56, "note": 59, "velocity": 91, "channel": 0}, {"type": "note_on", "time": 14, "note": 65, "velocity": 111, "channel": 0}, {"type": "note_off", "time": 110, "note": 65, "velocity": 111, "channel": 0}, {"type": "note_on", "time": 6, "note": 58, "velocity": 104, "channel": 0}, {"type": "note_off", "time": 89, "note": 58, "velocity": 104, "channel": 0}, {"type": "note_on", "time": 490, "note": 58, "velocity": 100, "channel": 0}, {"type": "note_off", "time": 58, "note": 58, "velocity": 100, "channel": 0}, {"type": "note_on", "time": 33, "note": 67, "velocity": 113, "channel": 0}, {"type": "note_off", "time": 78, "note": 67, "velocity": 113, "channel": 0}, {"type": "note_on", "time": 9, "note": 67, "velocity": 110, "channel": 0}, {"type": "note_off", "time": 93, "note": 67, "velocity": 110, "channel": 0}, {"type": "note_on", "time": 9, "note": 63, "velocity": 118, "channel": 0}, {"type": "note_off", "time": 75, "note": 63, "velocity": 118, "channel": 0}, {"type": "note_on", "time": 54, "note": 67, "velocity": 114, "channel": 0}, {"type": "note_off", "time": 59, "note": 67, "velocity": 114, "channel": 0}, {"type": "note_on", "time": 7, "note": 68, "velocity": 110, "channel": 0}, {"type": "note_off", "time": 99, "note": 68, "velocity": 110, "channel": 0}, {"type": "note_on", "time": 6, "note": 65, "velocity": 107, "channel": 0}, {"type": "note_off", "time": 91, "note": 65, "velocity": 107, "channel": 0}, {"type": "note_on", "time": 6, "note": 68, "velocity": 108, "channel": 0}, {"type": "note_off", "time": 42, "note": 68, "velocity": 108, "channel": 0}, {"type": "note_on", "time": 0, "note": 69, "velocity": 104, "channel": 0}, {"type": "note_off", "time": 33, "note": 69, "velocity": 104, "channel": 0}, {"type": "note_on", "time": 6, "note": 68, "velocity": 108, "channel": 0}, {"type": "note_off", "time": 56, "note": 68, "velocity": 108, "channel": 0}, {"type": "note_on", "time": 7, "note": 66, "velocity": 103, "channel": 0}, {"type": "note_off", "time": 84, "note": 66, "velocity": 103, "channel": 0}, {"type": "note_on", "time": 5, "note": 70, "velocity": 110, "channel": 0}, {"type": "note_off", "time": 236, "note": 70, "velocity": 110, "channel": 0}, {"type": "note_on", "time": 84, "note": 70, "velocity": 112, "channel": 0}, {"type": "note_off", "time": 79, "note": 70, "velocity": 112, "channel": 0}, {"type": "note_on", "time": 93, "note": 70, "velocity": 114, "channel": 0}, {"type": "note_off", "time": 104, "note": 70, "velocity": 114, "channel": 0}, {"type": "note_on", "time": 8, "note": 71, "velocity": 104, "channel": 0}, {"type": "note_off", "time": 38, "note": 71, "velocity": 104, "channel": 0}, {"type": "note_on", "time": 2, "note": 70, "velocity": 113, "channel": 0}, {"type": "note_off", "time": 36, "note": 70, "velocity": 113, "channel": 0}, {"type": "note_on", "time": 0, "note": 69, "velocity": 107, "channel": 0}, {"type": "note_off", "time": 162, "note": 69, "velocity": 107, "channel": 0}, {"type": "note_on", "time": 4, "note": 67, "velocity": 103, "channel": 0}, {"type": "note_off", "time": 110, "note": 67, "velocity": 103, "channel": 0}, {"type": "note_on", "time": 7, "note": 65, "velocity": 103, "channel": 0}, {"type": "note_off", "time": 275, "note": 65, "velocity": 103, "channel": 0}, {"type": "note_on", "time": 125, "note": 65, "velocity": 108, "channel": 0}, {"type": "note_off", "time": 45, "note": 65, "velocity": 108, "channel": 0}, {"type": "note_on", "time": 3, "note": 69, "velocity": 109, "channel": 0}, {"type": "note_off", "time": 125, "note": 69, "velocity": 109, "channel": 0}, {"type": "note_on", "time": 7, "note": 67, "velocity": 106, "channel": 0}, {"type": "note_off", "time": 76, "note": 67, "velocity": 106, "channel": 0}, {"type": "note_on", "time": 136, "note": 67, "velocity": 96, "channel": 0}, {"type": "note_off", "time": 29, "note": 67, "velocity": 96, "channel": 0}, {"type": "note_on", "time": 1, "note": 70, "velocity": 116, "channel": 0}, {"type": "note_off", "time": 100, "note": 70, "velocity": 116, "channel": 0}, {"type": "note_on", "time": 677, "note": 71, "velocity": 117, "channel": 0}, {"type": "note_off", "time": 30, "note": 71, "velocity": 117, "channel": 0}, {"type": "note_on", "time": 6, "note": 70, "velocity": 118, "channel": 0}, {"type": "note_off", "time": 79, "note": 70, "velocity": 118, "channel": 0}, {"type": "note_on", "time": 65, "note": 70, "velocity": 116, "channel": 0}, {"type": "note_off", "time": 89, "note": 70, "velocity": 116, "channel": 0}, {"type": "note_on", "time": 12, "note": 66, "velocity": 109, "channel": 0}, {"type": "note_off", "time": 84, "note": 66, "velocity": 109, "channel": 0}, {"type": "note_on", "time": 7, "note": 65, "velocity": 113, "channel": 0}, {"type": "note_off", "time": 98, "note": 65, "velocity": 113, "channel": 0}, {"type": "note_on", "time": 14, "note": 63, "velocity": 117, "channel": 0}, {"type": "note_off", "time": 81, "note": 63, "velocity": 117, "channel": 0}, {"type": "note_on", "time": 3, "note": 62, "velocity": 123, "channel": 0}, {"type": "note_off", "time": 88, "note": 62, "velocity": 123, "channel": 0}, {"type": "note_on", "time": 6, "note": 60, "velocity": 111, "channel": 0}, {"type": "note_off", "time": 71, "note": 60, "velocity": 111, "channel": 0}, {"type": "note_on", "time": 12, "note": 58, "velocity": 101, "channel": 0}, {"type": "note_off", "time": 110, "note": 58, "velocity": 101, "channel": 0}, {"type": "note_on", "time": 7, "note": 70, "velocity": 113, "channel": 0}, {"type": "note_off", "time": 132, "note": 70, "velocity": 113, "channel": 0}, {"type": "note_on", "time": 870, "note": 65, "velocity": 111, "channel": 0}, {"type": "note_off", "time": 133, "note": 65, "velocity": 111, "channel": 0}, {"type": "note_on", "time": 5, "note": 67, "velocity": 100, "channel": 0}, {"type": "note_off", "time": 45, "note": 67, "velocity": 100, "channel": 0}, {"type": "note_on", "time": 24, "note": 70, "velocity": 118, "channel": 0}, {"type": "note_off", "time": 106, "note": 70, "velocity": 118, "channel": 0}, {"type": "note_on", "time": 74, "note": 71, "velocity": 112, "channel": 0}, {"type": "note_off", "time": 60, "note": 71, "velocity": 112, "channel": 0}, {"type": "note_on", "time": 46, "note": 74, "velocity": 106, "channel": 0}, {"type": "note_off", "time": 228, "note": 74, "velocity": 106, "channel": 0}, {"type": "note_on", "time": 13, "note": 72, "velocity": 100, "channel": 0}, {"type": "note_off", "time": 52, "note": 72, "velocity": 100, "channel": 0}, {"type": "note_on", "time": 7, "note": 74, "velocity": 107, "channel": 0}, {"type": "note_off", "time": 144, "note": 74, "velocity": 107, "channel": 0}, {"type": "note_on", "time": 28, "note": 75, "velocity": 105, "channel": 0}, {"type": "note_off", "time": 90, "note": 75, "velocity": 105, "channel": 0}, {"type": "note_on", "time": 107, "note": 72, "velocity": 116, "channel": 0}, {"type": "note_off", "time": 96, "note": 72, "velocity": 116, "channel": 0}, {"type": "note_on", "time": 79, "note": 72, "velocity": 113, "channel": 0}, {"type": "note_off", "time": 400, "note": 72, "velocity": 113, "channel": 0}, {"type": "note_on", "time": 23, "note": 72, "velocity": 101, "channel": 0}, {"type": "note_off", "time": 90, "note": 72, "velocity": 101, "channel": 0}, {"type": "note_on", "time": 1, "note": 75, "velocity": 107, "channel": 0}, {"type": "note_off", "time": 79, "note": 75, "velocity": 107, "channel": 0}, {"type": "note_on", "time": 3, "note": 74, "velocity": 108, "channel": 0}, {"type": "note_off", "time": 82, "note": 74, "velocity": 108, "channel": 0}, {"type": "note_on", "time": 7, "note": 72, "velocity": 104, "channel": 0}, {"type": "note_off", "time": 72, "note": 72, "velocity": 104, "channel": 0}, {"type": "note_on", "time": 29, "note": 70, "velocity": 109, "channel": 0}, {"type": "note_off", "time": 90, "note": 70, "velocity": 109, "channel": 0}, {"type": "note_on", "time": 7, "note": 69, "velocity": 109, "channel": 0}, {"type": "note_off", "time": 72, "note": 69, "velocity": 109, "channel": 0}, {"type": "note_on", "time": 16, "note": 68, "velocity": 109, "channel": 0}, {"type": "note_off", "time": 93, "note": 68, "velocity": 109, "channel": 0}, {"type": "note_on", "time": 14, "note": 73, "velocity": 110, "channel": 0}, {"type": "note_off", "time": 36, "note": 73, "velocity": 110, "channel": 0}, {"type": "note_on", "time": 11, "note": 72, "velocity": 107, "channel": 0}, {"type": "note_off", "time": 34, "note": 72, "velocity": 107, "channel": 0}, {"type": "note_on", "time": 18, "note": 68, "velocity": 113, "channel": 0}, {"type": "note_off", "time": 84, "note": 68, "velocity": 113, "channel": 0}, {"type": "note_on", "time": 4, "note": 67, "velocity": 109, "channel": 0}, {"type": "note_off", "time": 81, "note": 67, "velocity": 109, "channel": 0}, {"type": "note_on", "time": 7, "note": 66, "velocity": 110, "channel": 0}, {"type": "note_off", "time": 86, "note": 66, "velocity": 110, "channel": 0}, {"type": "note_on", "time": 223, "note": 66, "velocity": 97, "channel": 0}, {"type": "note_off", "time": 67, "note": 66, "velocity": 97, "channel": 0}, {"type": "note_on", "time": 12, "note": 71, "velocity": 112, "channel": 0}, {"type": "note_off", "time": 91, "note": 71, "velocity": 112, "channel": 0}, {"type": "note_on", "time": 7, "note": 66, "velocity": 108, "channel": 0}, {"type": "note_off", "time": 70, "note": 66, "velocity": 108, "channel": 0}, {"type": "note_on", "time": 12, "note": 64, "velocity": 113, "channel": 0}, {"type": "note_off", "time": 102, "note": 64, "velocity": 113, "channel": 0}, {"type": "note_on", "time": 103, "note": 67, "velocity": 102, "channel": 0}, {"type": "note_off", "time": 35, "note": 67, "velocity": 102, "channel": 0}, {"type": "note_on", "time": 2, "note": 68, "velocity": 101, "channel": 0}, {"type": "note_off", "time": 33, "note": 68, "velocity": 101, "channel": 0}, {"type": "note_on", "time": 4, "note": 67, "velocity": 99, "channel": 0}, {"type": "note_off", "time": 40, "note": 67, "velocity": 99, "channel": 0}, {"type": "note_on", "time": 1, "note": 65, "velocity": 99, "channel": 0}, {"type": "note_off", "time": 30, "note": 65, "velocity": 99, "channel": 0}, {"type": "note_on", "time": 7, "note": 61, "velocity": 97, "channel": 0}, {"type": "note_off", "time": 96, "note": 61, "velocity": 97, "channel": 0}, {"type": "note_on", "time": 616, "note": 60, "velocity": 9, "channel": 0}, {"type": "note_off", "time": 72, "note": 60, "velocity": 9, "channel": 0}, {"type": "note_on", "time": 5, "note": 58, "velocity": 92, "channel": 0}, {"type": "note_off", "time": 82, "note": 58, "velocity": 92, "channel": 0}, {"type": "note_on", "time": 42, "note": 54, "velocity": 101, "channel": 0}, {"type": "note_off", "time": 96, "note": 54, "velocity": 101, "channel": 0}, {"type": "note_on", "time": 5, "note": 53, "velocity": 95, "channel": 0}, {"type": "note_off", "time": 73, "note": 53, "velocity": 95, "channel": 0}, {"type": "note_on", "time": 3, "note": 63, "velocity": 112, "channel": 0}, {"type": "note_off", "time": 85, "note": 63, "velocity": 112, "channel": 0}, {"type": "note_on", "time": 22, "note": 62, "velocity": 114, "channel": 0}, {"type": "note_off", "time": 67, "note": 62, "velocity": 114, "channel": 0}, {"type": "note_on", "time": 12, "note": 60, "velocity": 106, "channel": 0}, {"type": "note_off", "time": 61, "note": 60, "velocity": 106, "channel": 0}, {"type": "note_on", "time": 19, "note": 58, "velocity": 98, "channel": 0}, {"type": "note_off", "time": 96, "note": 58, "velocity": 98, "channel": 0}, {"type": "note_on", "time": 103, "note": 62, "velocity": 119, "channel": 0}, {"type": "note_off", "time": 110, "note": 62, "velocity": 119, "channel": 0}, {"type": "note_on", "time": 19, "note": 63, "velocity": 110, "channel": 0}, {"type": "note_off", "time": 101, "note": 63, "velocity": 110, "channel": 0}, {"type": "note_on", "time": 54, "note": 62, "velocity": 116, "channel": 0}, {"type": "note_off", "time": 85, "note": 62, "velocity": 116, "channel": 0}, {"type": "note_on", "time": 31, "note": 58, "velocity": 89, "channel": 0}, {"type": "note_off", "time": 86, "note": 58, "velocity": 89, "channel": 0}, {"type": "note_on", "time": 104, "note": 61, "velocity": 103, "channel": 0}, {"type": "note_off", "time": 51, "note": 61, "velocity": 103, "channel": 0}, {"type": "note_on", "time": 3, "note": 62, "velocity": 114, "channel": 0}, {"type": "note_off", "time": 33, "note": 62, "velocity": 114, "channel": 0}, {"type": "note_on", "time": 1, "note": 63, "velocity": 107, "channel": 0}, {"type": "note_off", "time": 42, "note": 63, "velocity": 107, "channel": 0}, {"type": "note_on", "time": 6, "note": 62, "velocity": 105, "channel": 0}, {"type": "note_off", "time": 32, "note": 62, "velocity": 105, "channel": 0}, {"type": "note_on", "time": 7, "note": 64, "velocity": 106, "channel": 0}, {"type": "note_off", "time": 26, "note": 64, "velocity": 106, "channel": 0}, {"type": "note_on", "time": 5, "note": 66, "velocity": 97, "channel": 0}, {"type": "note_off", "time": 21, "note": 66, "velocity": 97, "channel": 0}, {"type": "note_on", "time": 8, "note": 67, "velocity": 103, "channel": 0}, {"type": "note_off", "time": 202, "note": 67, "velocity": 103, "channel": 0}, {"type": "note_on", "time": 7, "note": 67, "velocity": 96, "channel": 0}, {"type": "note_off", "time": 26, "note": 67, "velocity": 96, "channel": 0}, {"type": "note_on", "time": 9, "note": 65, "velocity": 100, "channel": 0}, {"type": "note_off", "time": 65, "note": 65, "velocity": 100, "channel": 0}, {"type": "note_on", "time": 15, "note": 59, "velocity": 90, "channel": 0}, {"type": "note_off", "time": 50, "note": 59, "velocity": 90, "channel": 0}, {"type": "note_on", "time": 131, "note": 60, "velocity": 88, "channel": 0}, {"type": "note_off", "time": 220, "note": 60, "velocity": 88, "channel": 0}, {"type": "note_on", "time": 301, "note": 67, "velocity": 115, "channel": 0}, {"type": "note_off", "time": 71, "note": 67, "velocity": 115, "channel": 0}, {"type": "note_on", "time": 3, "note": 63, "velocity": 115, "channel": 0}, {"type": "note_off", "time": 63, "note": 63, "velocity": 115, "channel": 0}, {"type": "note_on", "time": 1, "note": 60, "velocity": 95, "channel": 0}, {"type": "note_off", "time": 57, "note": 60, "velocity": 95, "channel": 0}, {"type": "note_on", "time": 16, "note": 55, "velocity": 79, "channel": 0}, {"type": "note_off", "time": 48, "note": 55, "velocity": 79, "channel": 0}, {"type": "note_on", "time": 9, "note": 59, "velocity": 101, "channel": 0}, {"type": "note_off", "time": 113, "note": 59, "velocity": 101, "channel": 0}, {"type": "note_on", "time": 1, "note": 54, "velocity": 99, "channel": 0}, {"type": "note_off", "time": 30, "note": 54, "velocity": 99, "channel": 0}, {"type": "note_on", "time": 6, "note": 58, "velocity": 102, "channel": 0}, {"type": "note_off", "time": 120, "note": 58, "velocity": 102, "channel": 0}, {"type": "note_on", "time": 33, "note": 67, "velocity": 111, "channel": 0}, {"type": "note_off", "time": 124, "note": 67, "velocity": 111, "channel": 0}, {"type": "note_on", "time": 1079, "note": 69, "velocity": 116, "channel": 0}, {"type": "note_off", "time": 87, "note": 69, "velocity": 116, "channel": 0}, {"type": "note_on", "time": 3, "note": 67, "velocity": 116, "channel": 0}, {"type": "note_off", "time": 65, "note": 67, "velocity": 116, "channel": 0}, {"type": "note_on", "time": 3, "note": 65, "velocity": 113, "channel": 0}, {"type": "note_off", "time": 125, "note": 65, "velocity": 113, "channel": 0}, {"type": "note_on", "time": 2, "note": 64, "velocity": 113, "channel": 0}, {"type": "note_off", "time": 89, "note": 64, "velocity": 113, "channel": 0}, {"type": "note_on", "time": 6, "note": 63, "velocity": 111, "channel": 0}, {"type": "note_off", "time": 92, "note": 63, "velocity": 111, "channel": 0}, {"type": "note_on", "time": 5, "note": 58, "velocity": 103, "channel": 0}, {"type": "note_off", "time": 87, "note": 58, "velocity": 103, "channel": 0}, {"type": "note_on", "time": 9, "note": 65, "velocity": 107, "channel": 0}, {"type": "note_off", "time": 70, "note": 65, "velocity": 107, "channel": 0}, {"type": "note_on", "time": 5, "note": 63, "velocity": 120, "channel": 0}, {"type": "note_off", "time": 94, "note": 63, "velocity": 120, "channel": 0}, {"type": "note_on", "time": 11, "note": 62, "velocity": 125, "channel": 0}, {"type": "note_off", "time": 102, "note": 62, "velocity": 125, "channel": 0}, {"type": "note_on", "time": 12, "note": 65, "velocity": 117, "channel": 0}, {"type": "note_off", "time": 77, "note": 65, "velocity": 117, "channel": 0}, {"type": "note_on", "time": 5, "note": 62, "velocity": 124, "channel": 0}, {"type": "note_off", "time": 98, "note": 62, "velocity": 124, "channel": 0}, {"type": "note_on", "time": 6, "note": 60, "velocity": 115, "channel": 0}, {"type": "note_off", "time": 85, "note": 60, "velocity": 115, "channel": 0}, {"type": "note_on", "time": 20, "note": 58, "velocity": 95, "channel": 0}, {"type": "note_off", "time": 212, "note": 58, "velocity": 95, "channel": 0}, {"type": "note_on", "time": 8, "note": 60, "velocity": 107, "channel": 0}, {"type": "note_off", "time": 56, "note": 60, "velocity": 107, "channel": 0}, {"type": "note_on", "time": 0, "note": 63, "velocity": 112, "channel": 0}, {"type": "note_off", "time": 36, "note": 63, "velocity": 112, "channel": 0}, {"type": "note_on", "time": 0, "note": 65, "velocity": 115, "channel": 0}, {"type": "note_off", "time": 50, "note": 65, "velocity": 115, "channel": 0}, {"type": "note_on", "time": 8, "note": 63, "velocity": 116, "channel": 0}, {"type": "note_off", "time": 221, "note": 63, "velocity": 116, "channel": 0}, {"type": "note_on", "time": 2, "note": 65, "velocity": 110, "channel": 0}, {"type": "note_off", "time": 23, "note": 65, "velocity": 110, "channel": 0}, {"type": "note_on", "time": 23, "note": 67, "velocity": 114, "channel": 0}, {"type": "note_off", "time": 86, "note": 67, "velocity": 114, "channel": 0}, {"type": "note_on", "time": 4, "note": 65, "velocity": 117, "channel": 0}, {"type": "note_off", "time": 109, "note": 65, "velocity": 117, "channel": 0}, {"type": "note_on", "time": 577, "note": 65, "velocity": 110, "channel": 0}, {"type": "note_off", "time": 87, "note": 65, "velocity": 110, "channel": 0}, {"type": "note_on", "time": 6, "note": 64, "velocity": 110, "channel": 0}, {"type": "note_off", "time": 81, "note": 64, "velocity": 110, "channel": 0}, {"type": "note_on", "time": 2, "note": 68, "velocity": 107, "channel": 0}, {"type": "note_off", "time": 76, "note": 68, "velocity": 107, "channel": 0}, {"type": "note_on", "time": 9, "note": 67, "velocity": 101, "channel": 0}, {"type": "note_off", "time": 102, "note": 67, "velocity": 101, "channel": 0}, {"type": "note_on", "time": 12, "note": 65, "velocity": 106, "channel": 0}, {"type": "note_off", "time": 85, "note": 65, "velocity": 106, "channel": 0}, {"type": "note_on", "time": 10, "note": 63, "velocity": 106, "channel": 0}, {"type": "note_off", "time": 71, "note": 63, "velocity": 106, "channel": 0}, {"type": "note_on", "time": 8, "note": 60, "velocity": 104, "channel": 0}, {"type": "note_off", "time": 76, "note": 60, "velocity": 104, "channel": 0}, {"type": "note_on", "time": 22, "note": 67, "velocity": 107, "channel": 0}, {"type": "note_off", "time": 87, "note": 67, "velocity": 107, "channel": 0}, {"type": "note_on", "time": 78, "note": 61, "velocity": 106, "channel": 0}, {"type": "note_off", "time": 17, "note": 61, "velocity": 106, "channel": 0}, {"type": "note_on", "time": 4, "note": 62, "velocity": 118, "channel": 0}, {"type": "note_off", "time": 150, "note": 62, "velocity": 118, "channel": 0}, {"type": "note_on", "time": 16, "note": 58, "velocity": 86, "channel": 0}, {"type": "note_off", "time": 141, "note": 58, "velocity": 86, "channel": 0}, {"type": "note_on", "time": 40, "note": 62, "velocity": 114, "channel": 0}, {"type": "note_off", "time": 43, "note": 62, "velocity": 114, "channel": 0}, {"type": "note_on", "time": 5, "note": 63, "velocity": 114, "channel": 0}, {"type": "note_off", "time": 459, "note": 63, "velocity": 114, "channel": 0}, {"type": "note_on", "time": 19, "note": 63, "velocity": 107, "channel": 0}, {"type": "note_off", "time": 72, "note": 63, "velocity": 107, "channel": 0}, {"type": "note_on", "time": 1, "note": 65, "velocity": 102, "channel": 0}, {"type": "note_off", "time": 90, "note": 65, "velocity": 102, "channel": 0}, {"type": "note_on", "time": 1, "note": 61, "velocity": 104, "channel": 0}, {"type": "note_off", "time": 80, "note": 61, "velocity": 104, "channel": 0}, {"type": "note_on", "time": 40, "note": 60, "velocity": 96, "channel": 0}, {"type": "note_off", "time": 128, "note": 60, "velocity": 96, "channel": 0}, {"type": "note_on", "time": 210, "note": 60, "velocity": 93, "channel": 0}, {"type": "note_off", "time": 129, "note": 60, "velocity": 93, "channel": 0}, {"type": "note_on", "time": 188, "note": 60, "velocity": 85, "channel": 0}, {"type": "note_off", "time": 145, "note": 60, "velocity": 85, "channel": 0}, {"type": "note_on", "time": 58, "note": 60, "velocity": 94, "channel": 0}, {"type": "note_off", "time": 78, "note": 60, "velocity": 94, "channel": 0}, {"type": "note_on", "time": 973, "note": 56, "velocity": 96, "channel": 0}, {"type": "note_off", "time": 100, "note": 56, "velocity": 96, "channel": 0}, {"type": "note_on", "time": 8, "note": 55, "velocity": 95, "channel": 0}, {"type": "note_off", "time": 88, "note": 55, "velocity": 95, "channel": 0}, {"type": "note_on", "time": 189, "note": 63, "velocity": 122, "channel": 0}, {"type": "note_off", "time": 109, "note": 63, "velocity": 122, "channel": 0}, {"type": "note_on", "time": 90, "note": 59, "velocity": 104, "channel": 0}, {"type": "note_off", "time": 90, "note": 59, "velocity": 104, "channel": 0}, {"type": "note_on", "time": 1, "note": 62, "velocity": 123, "channel": 0}, {"type": "note_off", "time": 99, "note": 62, "velocity": 123, "channel": 0}, {"type": "note_on", "time": 12, "note": 60, "velocity": 107, "channel": 0}, {"type": "note_off", "time": 78, "note": 60, "velocity": 107, "channel": 0}, {"type": "note_on", "time": 7, "note": 62, "velocity": 124, "channel": 0}, {"type": "note_off", "time": 90, "note": 62, "velocity": 124, "channel": 0}, {"type": "note_on", "time": 4, "note": 63, "velocity": 119, "channel": 0}, {"type": "note_off", "time": 87, "note": 63, "velocity": 119, "channel": 0}, {"type": "note_on", "time": 4, "note": 65, "velocity": 115, "channel": 0}, {"type": "note_off", "time": 105, "note": 65, "velocity": 115, "channel": 0}, {"type": "note_on", "time": 16, "note": 60, "velocity": 102, "channel": 0}, {"type": "note_off", "time": 85, "note": 60, "velocity": 102, "channel": 0}, {"type": "note_on", "time": 3, "note": 63, "velocity": 117, "channel": 0}, {"type": "note_off", "time": 91, "note": 63, "velocity": 117, "channel": 0}, {"type": "note_on", "time": 3, "note": 62, "velocity": 119, "channel": 0}, {"type": "note_off", "time": 99, "note": 62, "velocity": 119, "channel": 0}, {"type": "note_on", "time": 5, "note": 60, "velocity": 95, "channel": 0}, {"type": "note_off", "time": 81, "note": 60, "velocity": 95, "channel": 0}, {"type": "note_on", "time": 3, "note": 65, "velocity": 102, "channel": 0}, {"type": "note_off", "time": 84, "note": 65, "velocity": 102, "channel": 0}, {"type": "note_on", "time": 9, "note": 61, "velocity": 107, "channel": 0}, {"type": "note_off", "time": 103, "note": 61, "velocity": 107, "channel": 0}, {"type": "note_on", "time": 8, "note": 57, "velocity": 94, "channel": 0}, {"type": "note_off", "time": 73, "note": 57, "velocity": 94, "channel": 0}, {"type": "note_on", "time": 84, "note": 58, "velocity": 88, "channel": 0}, {"type": "note_off", "time": 339, "note": 58, "velocity": 88, "channel": 0}, {"type": "note_on", "time": 29, "note": 58, "velocity": 97, "channel": 0}, {"type": "note_off", "time": 125, "note": 58, "velocity": 97, "channel": 0}, {"type": "note_on", "time": 2, "note": 55, "velocity": 88, "channel": 0}, {"type": "note_off", "time": 39, "note": 55, "velocity": 88, "channel": 0}, {"type": "note_on", "time": 957, "note": 64, "velocity": 113, "channel": 0}, {"type": "note_off", "time": 61, "note": 64, "velocity": 113, "channel": 0}, {"type": "note_on", "time": 6, "note": 65, "velocity": 117, "channel": 0}, {"type": "note_off", "time": 42, "note": 65, "velocity": 117, "channel": 0}, {"type": "note_on", "time": 9, "note": 66, "velocity": 115, "channel": 0}, {"type": "note_off", "time": 45, "note": 66, "velocity": 115, "channel": 0}, {"type": "note_on", "time": 11, "note": 68, "velocity": 103, "channel": 0}, {"type": "note_off", "time": 42, "note": 68, "velocity": 103, "channel": 0}, {"type": "note_on", "time": 11, "note": 70, "velocity": 106, "channel": 0}, {"type": "note_off", "time": 550, "note": 70, "velocity": 106, "channel": 0}, {"type": "note_on", "time": 43, "note": 63, "velocity": 113, "channel": 0}, {"type": "note_off", "time": 99, "note": 63, "velocity": 113, "channel": 0}, {"type": "note_on", "time": 18, "note": 65, "velocity": 102, "channel": 0}, {"type": "note_off", "time": 35, "note": 65, "velocity": 102, "channel": 0}, {"type": "note_on", "time": 7, "note": 67, "velocity": 106, "channel": 0}, {"type": "note_off", "time": 123, "note": 67, "velocity": 106, "channel": 0}, {"type": "note_on", "time": 25, "note": 69, "velocity": 109, "channel": 0}, {"type": "note_off", "time": 130, "note": 69, "velocity": 109, "channel": 0}, {"type": "note_on", "time": 1094, "note": 70, "velocity": 119, "channel": 0}, {"type": "note_off", "time": 94, "note": 70, "velocity": 119, "channel": 0}, {"type": "note_on", "time": 4, "note": 69, "velocity": 110, "channel": 0}, {"type": "note_off", "time": 72, "note": 69, "velocity": 110, "channel": 0}, {"type": "note_on", "time": 9, "note": 68, "velocity": 109, "channel": 0}, {"type": "note_off", "time": 91, "note": 68, "velocity": 109, "channel": 0}, {"type": "note_on", "time": 4, "note": 75, "velocity": 101, "channel": 0}, {"type": "note_off", "time": 91, "note": 75, "velocity": 101, "channel": 0}, {"type": "note_on", "time": 12, "note": 67, "velocity": 108, "channel": 0}, {"type": "note_off", "time": 104, "note": 67, "velocity": 108, "channel": 0}, {"type": "note_on", "time": 19, "note": 65, "velocity": 112, "channel": 0}, {"type": "note_off", "time": 209, "note": 65, "velocity": 112, "channel": 0}, {"type": "note_on", "time": 4, "note": 68, "velocity": 111, "channel": 0}, {"type": "note_off", "time": 34, "note": 68, "velocity": 111, "channel": 0}, {"type": "note_on", "time": 3, "note": 70, "velocity": 111, "channel": 0}, {"type": "note_off", "time": 179, "note": 70, "velocity": 111, "channel": 0}, {"type": "note_on", "time": 5, "note": 67, "velocity": 107, "channel": 0}, {"type": "note_off", "time": 82, "note": 67, "velocity": 107, "channel": 0}, {"type": "note_on", "time": 7, "note": 63, "velocity": 112, "channel": 0}, {"type": "note_off", "time": 91, "note": 63, "velocity": 112, "channel": 0}, {"type": "note_on", "time": 4, "note": 61, "velocity": 113, "channel": 0}, {"type": "note_off", "time": 90, "note": 61, "velocity": 113, "channel": 0}, {"type": "note_on", "time": 9, "note": 63, "velocity": 91, "channel": 0}, {"type": "note_off", "time": 75, "note": 63, "velocity": 91, "channel": 0}, {"type": "note_on", "time": 92, "note": 67, "velocity": 104, "channel": 0}, {"type": "note_off", "time": 22, "note": 67, "velocity": 104, "channel": 0}, {"type": "note_on", "time": 1, "note": 70, "velocity": 103, "channel": 0}, {"type": "note_off", "time": 39, "note": 70, "velocity": 103, "channel": 0}, {"type": "note_on", "time": 12, "note": 72, "velocity": 96, "channel": 0}, {"type": "note_off", "time": 39, "note": 72, "velocity": 96, "channel": 0}, {"type": "note_on", "time": 5, "note": 74, "velocity": 107, "channel": 0}, {"type": "note_off", "time": 42, "note": 74, "velocity": 107, "channel": 0}, {"type": "note_on", "time": 3, "note": 73, "velocity": 112, "channel": 0}, {"type": "note_off", "time": 34, "note": 73, "velocity": 112, "channel": 0}, {"type": "note_on", "time": 3, "note": 72, "velocity": 108, "channel": 0}, {"type": "note_off", "time": 26, "note": 72, "velocity": 108, "channel": 0}, {"type": "note_on", "time": 8, "note": 70, "velocity": 110, "channel": 0}, {"type": "note_off", "time": 79, "note": 70, "velocity": 110, "channel": 0}, {"type": "note_on", "time": 7, "note": 68, "velocity": 97, "channel": 0}, {"type": "note_off", "time": 37, "note": 68, "velocity": 97, "channel": 0}, {"type": "note_on", "time": 6, "note": 68, "velocity": 110, "channel": 0}, {"type": "note_off", "time": 28, "note": 68, "velocity": 110, "channel": 0}, {"type": "note_on", "time": 6, "note": 67, "velocity": 105, "channel": 0}, {"type": "note_off", "time": 51, "note": 67, "velocity": 105, "channel": 0}, {"type": "note_on", "time": 10, "note": 65, "velocity": 110, "channel": 0}, {"type": "note_off", "time": 52, "note": 65, "velocity": 110, "channel": 0}, {"type": "note_on", "time": 6, "note": 65, "velocity": 101, "channel": 0}, {"type": "note_off", "time": 25, "note": 65, "velocity": 101, "channel": 0}, {"type": "note_on", "time": 5, "note": 61, "velocity": 110, "channel": 0}, {"type": "note_off", "time": 78, "note": 61, "velocity": 110, "channel": 0}, {"type": "note_on", "time": 9, "note": 58, "velocity": 89, "channel": 0}, {"type": "note_off", "time": 117, "note": 58, "velocity": 89, "channel": 0}, {"type": "note_on", "time": 91, "note": 61, "velocity": 107, "channel": 0}, {"type": "note_off", "time": 40, "note": 61, "velocity": 107, "channel": 0}, {"type": "note_on", "time": 3, "note": 62, "velocity": 113, "channel": 0}, {"type": "note_off", "time": 74, "note": 62, "velocity": 113, "channel": 0}, {"type": "note_on", "time": 3, "note": 63, "velocity": 109, "channel": 0}, {"type": "note_off", "time": 43, "note": 63, "velocity": 109, "channel": 0}, {"type": "note_on", "time": 26, "note": 65, "velocity": 96, "channel": 0}, {"type": "note_off", "time": 39, "note": 65, "velocity": 96, "channel": 0}, {"type": "note_on", "time": 6, "note": 66, "velocity": 92, "channel": 0}, {"type": "note_off", "time": 40, "note": 66, "velocity": 92, "channel": 0}, {"type": "note_on", "time": 7, "note": 67, "velocity": 104, "channel": 0}, {"type": "note_off", "time": 44, "note": 67, "velocity": 104, "channel": 0}, {"type": "note_on", "time": 2, "note": 68, "velocity": 107, "channel": 0}, {"type": "note_off", "time": 30, "note": 68, "velocity": 107, "channel": 0}, {"type": "note_on", "time": 8, "note": 67, "velocity": 103, "channel": 0}, {"type": "note_off", "time": 85, "note": 67, "velocity": 103, "channel": 0}, {"type": "note_on", "time": 24, "note": 66, "velocity": 100, "channel": 0}, {"type": "note_off", "time": 77, "note": 66, "velocity": 100, "channel": 0}, {"type": "note_on", "time": 9, "note": 65, "velocity": 107, "channel": 0}, {"type": "note_off", "time": 104, "note": 65, "velocity": 107, "channel": 0}, {"type": "note_on", "time": 6, "note": 63, "velocity": 111, "channel": 0}, {"type": "note_off", "time": 86, "note": 63, "velocity": 111, "channel": 0}, {"type": "note_on", "time": 4, "note": 62, "velocity": 109, "channel": 0}, {"type": "note_off", "time": 93, "note": 62, "velocity": 109, "channel": 0}, {"type": "note_on", "time": 6, "note": 65, "velocity": 103, "channel": 0}, {"type": "note_off", "time": 72, "note": 65, "velocity": 103, "channel": 0}, {"type": "note_on", "time": 18, "note": 70, "velocity": 98, "channel": 0}, {"type": "note_off", "time": 462, "note": 70, "velocity": 98, "channel": 0}, {"type": "note_on", "time": 54, "note": 68, "velocity": 108, "channel": 0}, {"type": "note_off", "time": 70, "note": 68, "velocity": 108, "channel": 0}, {"type": "note_on", "time": 4, "note": 67, "velocity": 100, "channel": 0}, {"type": "note_off", "time": 104, "note": 67, "velocity": 100, "channel": 0}, {"type": "note_on", "time": 6, "note": 63, "velocity": 111, "channel": 0}, {"type": "note_off", "time": 79, "note": 63, "velocity": 111, "channel": 0}, {"type": "note_on", "time": 571, "note": 73, "velocity": 112, "channel": 0}, {"type": "note_off", "time": 32, "note": 73, "velocity": 112, "channel": 0}, {"type": "note_on", "time": 1, "note": 74, "velocity": 114, "channel": 0}, {"type": "note_off", "time": 57, "note": 74, "velocity": 114, "channel": 0}, {"type": "note_on", "time": 8, "note": 75, "velocity": 107, "channel": 0}, {"type": "note_off", "time": 49, "note": 75, "velocity": 107, "channel": 0}, {"type": "note_on", "time": 18, "note": 73, "velocity": 106, "channel": 0}, {"type": "note_off", "time": 22, "note": 73, "velocity": 106, "channel": 0}, {"type": "note_on", "time": 4, "note": 72, "velocity": 109, "channel": 0}, {"type": "note_off", "time": 85, "note": 72, "velocity": 109, "channel": 0}, {"type": "note_on", "time": 5, "note": 70, "velocity": 111, "channel": 0}, {"type": "note_off", "time": 81, "note": 70, "velocity": 111, "channel": 0}, {"type": "note_on", "time": 1, "note": 69, "velocity": 113, "channel": 0}, {"type": "note_off", "time": 97, "note": 69, "velocity": 113, "channel": 0}, {"type": "note_on", "time": 24, "note": 67, "velocity": 113, "channel": 0}, {"type": "note_off", "time": 81, "note": 67, "velocity": 113, "channel": 0}, {"type": "note_on", "time": 9, "note": 65, "velocity": 114, "channel": 0}, {"type": "note_off", "time": 95, "note": 65, "velocity": 114, "channel": 0}, {"type": "note_on", "time": 2, "note": 63, "velocity": 119, "channel": 0}, {"type": "note_off", "time": 70, "note": 63, "velocity": 119, "channel": 0}, {"type": "note_on", "time": 5, "note": 62, "velocity": 119, "channel": 0}, {"type": "note_off", "time": 120, "note": 62, "velocity": 119, "channel": 0}, {"type": "note_on", "time": 195, "note": 74, "velocity": 115, "channel": 0}, {"type": "note_off", "time": 77, "note": 74, "velocity": 115, "channel": 0}, {"type": "note_on", "time": 29, "note": 75, "velocity": 103, "channel": 0}, {"type": "note_off", "time": 72, "note": 75, "velocity": 103, "channel": 0}, {"type": "note_on", "time": 3, "note": 71, "velocity": 97, "channel": 0}, {"type": "note_off", "time": 71, "note": 71, "velocity": 97, "channel": 0}, {"type": "note_on", "time": 38, "note": 68, "velocity": 114, "channel": 0}, {"type": "note_off", "time": 78, "note": 68, "velocity": 114, "channel": 0}, {"type": "note_on", "time": 9, "note": 65, "velocity": 112, "channel": 0}, {"type": "note_off", "time": 78, "note": 65, "velocity": 112, "channel": 0}, {"type": "note_on", "time": 18, "note": 64, "velocity": 113, "channel": 0}, {"type": "note_off", "time": 95, "note": 64, "velocity": 113, "channel": 0}, {"type": "note_on", "time": 15, "note": 74, "velocity": 110, "channel": 0}, {"type": "note_off", "time": 62, "note": 74, "velocity": 110, "channel": 0}, {"type": "note_on", "time": 2, "note": 72, "velocity": 91, "channel": 0}, {"type": "note_off", "time": 19, "note": 72, "velocity": 91, "channel": 0}, {"type": "note_on", "time": 1, "note": 70, "velocity": 110, "channel": 0}, {"type": "note_off", "time": 52, "note": 70, "velocity": 110, "channel": 0}, {"type": "note_on", "time": 4, "note": 67, "velocity": 105, "channel": 0}, {"type": "note_off", "time": 31, "note": 67, "velocity": 105, "channel": 0}, {"type": "note_on", "time": 14, "note": 65, "velocity": 109, "channel": 0}, {"type": "note_off", "time": 26, "note": 65, "velocity": 109, "channel": 0}, {"type": "note_on", "time": 10, "note": 63, "velocity": 110, "channel": 0}, {"type": "note_off", "time": 102, "note": 63, "velocity": 110, "channel": 0}, {"type": "note_on", "time": 118, "note": 63, "velocity": 99, "channel": 0}, {"type": "note_off", "time": 78, "note": 63, "velocity": 99, "channel": 0}, {"type": "note_on", "time": 20, "note": 69, "velocity": 91, "channel": 0}, {"type": "note_off", "time": 26, "note": 69, "velocity": 91, "channel": 0}, {"type": "note_on", "time": 11, "note": 72, "velocity": 123, "channel": 0}, {"type": "note_off", "time": 67, "note": 72, "velocity": 123, "channel": 0}, {"type": "note_on", "time": 3, "note": 70, "velocity": 115, "channel": 0}, {"type": "note_off", "time": 300, "note": 70, "velocity": 115, "channel": 0}, {"type": "note_on", "time": 8, "note": 65, "velocity": 100, "channel": 0}, {"type": "note_off", "time": 49, "note": 65, "velocity": 100, "channel": 0}, {"type": "note_on", "time": 9, "note": 68, "velocity": 110, "channel": 0}, {"type": "note_off", "time": 75, "note": 68, "velocity": 110, "channel": 0}, {"type": "note_on", "time": 3, "note": 67, "velocity": 107, "channel": 0}, {"type": "note_off", "time": 74, "note": 67, "velocity": 107, "channel": 0}, {"type": "note_on", "time": 5, "note": 65, "velocity": 110, "channel": 0}, {"type": "note_off", "time": 106, "note": 65, "velocity": 110, "channel": 0}, {"type": "note_on", "time": 265, "note": 63, "velocity": 114, "channel": 0}, {"type": "note_off", "time": 78, "note": 63, "velocity": 114, "channel": 0}, {"type": "note_on", "time": 35, "note": 67, "velocity": 97, "channel": 0}, {"type": "note_off", "time": 60, "note": 67, "velocity": 97, "channel": 0}, {"type": "note_on", "time": 3, "note": 69, "velocity": 110, "channel": 0}, {"type": "note_off", "time": 32, "note": 69, "velocity": 110, "channel": 0}, {"type": "note_on", "time": 2, "note": 70, "velocity": 112, "channel": 0}, {"type": "note_off", "time": 39, "note": 70, "velocity": 112, "channel": 0}, {"type": "note_on", "time": 47, "note": 73, "velocity": 111, "channel": 0}, {"type": "note_off", "time": 84, "note": 73, "velocity": 111, "channel": 0}, {"type": "note_on", "time": 59, "note": 63, "velocity": 113, "channel": 0}, {"type": "note_off", "time": 82, "note": 63, "velocity": 113, "channel": 0}, {"type": "note_on", "time": 267, "note": 64, "velocity": 112, "channel": 0}, {"type": "note_off", "time": 72, "note": 64, "velocity": 112, "channel": 0}, {"type": "note_on", "time": 7, "note": 65, "velocity": 102, "channel": 0}, {"type": "note_off", "time": 42, "note": 65, "velocity": 102, "channel": 0}, {"type": "note_on", "time": 9, "note": 68, "velocity": 106, "channel": 0}, {"type": "note_off", "time": 34, "note": 68, "velocity": 106, "channel": 0}, {"type": "note_on", "time": 17, "note": 72, "velocity": 108, "channel": 0}, {"type": "note_off", "time": 64, "note": 72, "velocity": 108, "channel": 0}, {"type": "note_on", "time": 6, "note": 70, "velocity": 112, "channel": 0}, {"type": "note_off", "time": 71, "note": 70, "velocity": 112, "channel": 0}, {"type": "note_on", "time": 9, "note": 69, "velocity": 109, "channel": 0}, {"type": "note_off", "time": 78, "note": 69, "velocity": 109, "channel": 0}, {"type": "note_on", "time": 19, "note": 68, "velocity": 111, "channel": 0}, {"type": "note_off", "time": 99, "note": 68, "velocity": 111, "channel": 0}, {"type": "note_on", "time": 9, "note": 67, "velocity": 107, "channel": 0}, {"type": "note_off", "time": 72, "note": 67, "velocity": 107, "channel": 0}, {"type": "note_on", "time": 32, "note": 65, "velocity": 110, "channel": 0}, {"type": "note_off", "time": 72, "note": 65, "velocity": 110, "channel": 0}, {"type": "note_on", "time": 20, "note": 65, "velocity": 106, "channel": 0}, {"type": "note_off", "time": 38, "note": 65, "velocity": 106, "channel": 0}, {"type": "note_on", "time": 9, "note": 66, "velocity": 97, "channel": 0}, {"type": "note_off", "time": 98, "note": 66, "velocity": 97, "channel": 0}, {"type": "note_on", "time": 174, "note": 66, "velocity": 106, "channel": 0}, {"type": "note_off", "time": 81, "note": 66, "velocity": 106, "channel": 0}, {"type": "note_on", "time": 18, "note": 62, "velocity": 102, "channel": 0}, {"type": "note_off", "time": 58, "note": 62, "velocity": 102, "channel": 0}, {"type": "note_on", "time": 22, "note": 58, "velocity": 95, "channel": 0}, {"type": "note_off", "time": 60, "note": 58, "velocity": 95, "channel": 0}, {"type": "note_on", "time": 104, "note": 63, "velocity": 109, "channel": 0}, {"type": "note_off", "time": 209, "note": 63, "velocity": 109, "channel": 0}, {"type": "note_on", "time": 191, "note": 65, "velocity": 110, "channel": 0}, {"type": "note_off", "time": 57, "note": 65, "velocity": 110, "channel": 0}, {"type": "note_on", "time": 1179, "note": 60, "velocity": 107, "channel": 0}, {"type": "note_off", "time": 65, "note": 60, "velocity": 107, "channel": 0}, {"type": "note_on", "time": 14, "note": 62, "velocity": 116, "channel": 0}, {"type": "note_off", "time": 83, "note": 62, "velocity": 116, "channel": 0}, {"type": "note_on", "time": 6, "note": 63, "velocity": 112, "channel": 0}, {"type": "note_off", "time": 79, "note": 63, "velocity": 112, "channel": 0}, {"type": "note_on", "time": 18, "note": 65, "velocity": 114, "channel": 0}, {"type": "note_off", "time": 91, "note": 65, "velocity": 114, "channel": 0}, {"type": "note_on", "time": 3, "note": 67, "velocity": 114, "channel": 0}, {"type": "note_off", "time": 68, "note": 67, "velocity": 114, "channel": 0}, {"type": "note_on", "time": 28, "note": 69, "velocity": 109, "channel": 0}, {"type": "note_off", "time": 90, "note": 69, "velocity": 109, "channel": 0}, {"type": "note_on", "time": 14, "note": 70, "velocity": 114, "channel": 0}, {"type": "note_off", "time": 74, "note": 70, "velocity": 114, "channel": 0}, {"type": "note_on", "time": 21, "note": 70, "velocity": 110, "channel": 0}, {"type": "note_off", "time": 66, "note": 70, "velocity": 110, "channel": 0}, {"type": "note_on", "time": 8, "note": 71, "velocity": 107, "channel": 0}, {"type": "note_off", "time": 131, "note": 71, "velocity": 107, "channel": 0}, {"type": "note_on", "time": 6, "note": 68, "velocity": 108, "channel": 0}, {"type": "note_off", "time": 75, "note": 68, "velocity": 108, "channel": 0}, {"type": "note_on", "time": 22, "note": 66, "velocity": 106, "channel": 0}, {"type": "note_off", "time": 65, "note": 66, "velocity": 106, "channel": 0}, {"type": "note_on", "time": 25, "note": 64, "velocity": 103, "channel": 0}, {"type": "note_off", "time": 92, "note": 64, "velocity": 103, "channel": 0}, {"type": "note_on", "time": 12, "note": 63, "velocity": 109, "channel": 0}, {"type": "note_off", "time": 84, "note": 63, "velocity": 109, "channel": 0}, {"type": "note_on", "time": 9, "note": 61, "velocity": 102, "channel": 0}, {"type": "note_off", "time": 73, "note": 61, "velocity": 102, "channel": 0}, {"type": "note_on", "time": 198, "note": 70, "velocity": 110, "channel": 0}, {"type": "note_off", "time": 85, "note": 70, "velocity": 110, "channel": 0}, {"type": "note_on", "time": 19, "note": 67, "velocity": 103, "channel": 0}, {"type": "note_off", "time": 78, "note": 67, "velocity": 103, "channel": 0}, {"type": "note_on", "time": 9, "note": 65, "velocity": 109, "channel": 0}, {"type": "note_off", "time": 70, "note": 65, "velocity": 109, "channel": 0}, {"type": "note_on", "time": 29, "note": 63, "velocity": 113, "channel": 0}, {"type": "note_off", "time": 79, "note": 63, "velocity": 113, "channel": 0}, {"type": "note_on", "time": 11, "note": 62, "velocity": 116, "channel": 0}, {"type": "note_off", "time": 82, "note": 62, "velocity": 116, "channel": 0}, {"type": "note_on", "time": 9, "note": 61, "velocity": 101, "channel": 0}, {"type": "note_off", "time": 92, "note": 61, "velocity": 101, "channel": 0}, {"type": "note_on", "time": 215, "note": 63, "velocity": 99, "channel": 0}, {"type": "note_off", "time": 50, "note": 63, "velocity": 99, "channel": 0}, {"type": "note_on", "time": 130, "note": 68, "velocity": 108, "channel": 0}, {"type": "note_off", "time": 92, "note": 68, "velocity": 108, "channel": 0}, {"type": "note_on", "time": 20, "note": 65, "velocity": 107, "channel": 0}, {"type": "note_off", "time": 81, "note": 65, "velocity": 107, "channel": 0}, {"type": "note_on", "time": 10, "note": 66, "velocity": 104, "channel": 0}, {"type": "note_off", "time": 77, "note": 66, "velocity": 104, "channel": 0}, {"type": "note_on", "time": 8, "note": 65, "velocity": 105, "channel": 0}, {"type": "note_off", "time": 76, "note": 65, "velocity": 105, "channel": 0}, {"type": "note_on", "time": 8, "note": 63, "velocity": 109, "channel": 0}, {"type": "note_off", "time": 79, "note": 63, "velocity": 109, "channel": 0}, {"type": "note_on", "time": 22, "note": 61, "velocity": 103, "channel": 0}, {"type": "note_off", "time": 67, "note": 61, "velocity": 103, "channel": 0}, {"type": "note_on", "time": 4, "note": 62, "velocity": 110, "channel": 0}, {"type": "note_off", "time": 89, "note": 62, "velocity": 110, "channel": 0}, {"type": "note_on", "time": 6, "note": 58, "velocity": 97, "channel": 0}, {"type": "note_off", "time": 100, "note": 58, "velocity": 97, "channel": 0}, {"type": "note_on", "time": 10, "note": 55, "velocity": 9, "channel": 0}, {"type": "note_off", "time": 57, "note": 55, "velocity": 9, "channel": 0}, {"type": "note_on", "time": 19, "note": 58, "velocity": 107, "channel": 0}, {"type": "note_off", "time": 172, "note": 58, "velocity": 107, "channel": 0}, {"type": "note_on", "time": 621, "note": 63, "velocity": 121, "channel": 0}, {"type": "note_off", "time": 76, "note": 63, "velocity": 121, "channel": 0}, {"type": "note_on", "time": 11, "note": 61, "velocity": 116, "channel": 0}, {"type": "note_off", "time": 48, "note": 61, "velocity": 116, "channel": 0}, {"type": "note_on", "time": 14, "note": 58, "velocity": 104, "channel": 0}, {"type": "note_off", "time": 108, "note": 58, "velocity": 104, "channel": 0}, {"type": "note_on", "time": 483, "note": 62, "velocity": 107, "channel": 0}, {"type": "note_off", "time": 120, "note": 62, "velocity": 107, "channel": 0}, {"type": "end_of_track", "time": 0}]]}