{"ticks_per_beat": 192, "tracks": [[{"type": "track_name", "name": "Melody", "time": 0}, {"type": "set_tempo", "tempo": 176991, "time": 0}, {"type": "key_signature", "key": "Bb", "time": 0}, {"type": "time_signature", "numerator": 4, "denominator": 4, "clocks_per_click": 24, "notated_32nd_notes_per_beat": 8, "time": 0}, {"type": "note_on", "time": 1830, "note": 64, "velocity": 105, "channel": 0}, {"type": "note_off", "time": 94, "note": 64, "velocity": 105, "channel": 0}, {"type": "note_on", "time": 3, "note": 66, "velocity": 99, "channel": 0}, {"type": "note_off", "time": 63, "note": 66, "velocity": 99, "channel": 0}, {"type": "note_on", "time": 7, "note": 67, "velocity": 97, "channel": 0}, {"type": "note_off", "time": 96, "note": 67, "velocity": 97, "channel": 0}, {"type": "note_on", "time": 7, "note": 69, "velocity": 106, "channel": 0}, {"type": "note_off", "time": 103, "note": 69, "velocity": 106, "channel": 0}, {"type": "note_on", "time": 0, "note": 65, "velocity": 98, "channel": 0}, {"type": "note_off", "time": 77, "note": 65, "velocity": 98, "channel": 0}, {"type": "note_on", "time": 9, "note": 64, "velocity": 108, "channel": 0}, {"type": "note_off", "time": 87, "note": 64, "velocity": 108, "channel": 0}, {"type": "note_on", "time": 11, "note": 63, "velocity": 101, "channel": 0}, {"type": "note_off", "time": 74, "note": 63, "velocity": 101, "channel": 0}, {"type": "note_on", "time": 3, "note": 65, "velocity": 98, "channel": 0}, {"type": "note_off", "time": 86, "note": 65, "velocity": 98, "channel": 0}, {"type": "note_on", "time": 6, "note": 62, "velocity": 100, "channel": 0}, {"type": "note_off", "time": 114, "note": 62, "velocity": 100, "channel": 0}, {"type": "note_on", "time": 3, "note": 60, "velocity": 92, "channel": 0}, {"type": "note_off", "time": 48, "note": 60, "velocity": 92, "channel": 0}, {"type": "note_on", "time": 9, "note": 58, "velocity": 94, "channel": 0}, {"type": "note_off", "time": 69, "note": 58, "velocity": 94, "channel": 0}, {"type": "note_on", "time": 3, "note": 55, "velocity": 85, "channel": 0}, {"type": "note_off", "time": 85, "note": 55, "velocity": 85, "channel": 0}, {"type": "note_on", "time": 7, "note": 63, "velocity": 100, "channel": 0}, {"type": "note_off", "time": 118, "note": 63, "velocity": 100, "channel": 0}, {"type": "note_on", "time": 3, "note": 59, "velocity": 90, "channel": 0}, {"type": "note_off", "time": 68, "note": 59, "velocity": 90, "channel": 0}, {"type": "note_on", "time": 3, "note": 56, "velocity": 89, "channel": 0}, {"type": "note_off", "time": 126, "note": 56, "velocity": 89, "channel": 0}, {"type": "note_on", "time": 2, "note": 61, "velocity": 97, "channel": 0}, {"type": "note_off", "time": 109, "note": 61, "velocity": 97, "channel": 0}, {"type": "note_on", "time": 0, "note": 58, "velocity": 91, "channel": 0}, {"type": "note_off", "time": 110, "note": 58, "velocity": 91, "channel": 0}, {"type": "note_on", "time": 4, "note": 54, "velocity": 87, "channel": 0}, {"type": "note_off", "time": 73, "note": 54, "velocity": 87, "channel": 0}, {"type": "note_on", "time": 9, "note": 55, "velocity": 91, "channel": 0}, {"type": "note_off", "time": 74, "note": 55, "velocity": 91, "channel": 0}, {"type": "note_on", "time": 6, "note": 58, "velocity": 96, "channel": 0}, {"type": "note_off", "time": 86, "note": 58, "velocity": 96, "channel": 0}, {"type": "note_on", "time": 11, "note": 57, "velocity": 96, "channel": 0}, {"type": "note_off", "time": 47, "note": 57, "velocity": 96, "channel": 0}, {"type": "note_on", "time": 17, "note": 56, "velocity": 95, "channel": 0}, {"type": "note_off", "time": 87, "note": 56, "velocity": 95, "channel": 0}, {"type": "note_on", "time": 22, "note": 55, "velocity": 93, "channel": 0}, {"type": "note_off", "time": 121, "note": 55, "velocity": 93, "channel": 0}, {"type": "note_on", "time": 7, "note": 59, "velocity": 95, "channel": 0}, {"type": "note_off", "time": 69, "note": 59, "velocity": 95, "channel": 0}, {"type": "note_on", "time": 11, "note": 57, "velocity": 94, "channel": 0}, {"type": "note_off", "time": 58, "note": 57, "velocity": 94, "channel": 0}, {"type": "note_on", "time": 14, "note": 54, "velocity": 93, "channel": 0}, {"type": "note_off", "time": 86, "note": 54, "velocity": 93, "channel": 0}, {"type": "note_on", "time": 9, "note": 52, "velocity": 84, "channel": 0}, {"type": "note_off", "time": 58, "note": 52, "velocity": 84, "channel": 0}, {"type": "note_on", "time": 19, "note": 50, "velocity": 82, "channel": 0}, {"type": "note_off", "time": 77, "note": 50, "velocity": 82, "channel": 0}, {"type": "note_on", "time": 9, "note": 54, "velocity": 95, "channel": 0}, {"type": "note_off", "time": 95, "note": 54, "velocity": 95, "channel": 0}, {"type": "note_on", "time": 11, "note": 55, "velocity": 92, "channel": 0}, {"type": "note_off", "time": 94, "note": 55, "velocity": 92, "channel": 0}, {"type": "note_on", "time": 11, "note": 57, "velocity": 89, "channel": 0}, {"type": "note_off", "time": 103, "note": 57, "velocity": 89, "channel": 0}, {"type": "note_on", "time": 10, "note": 59, "velocity": 92, "channel": 0}, {"type": "note_off", "time": 90, "note": 59, "velocity": 92, "channel": 0}, {"type": "note_on", "time": 31, "note": 50, "velocity": 81, "channel": 0}, {"type": "note_off", "time": 66, "note": 50, "velocity": 81, "channel": 0}, {"type": "note_on", "time": 8, "note": 52, "velocity": 89, "channel": 0}, {"type": "note_off", "time": 108, "note": 52, "velocity": 89, "channel": 0}, {"type": "note_on", "time": 8, "note": 53, "velocity": 95, "channel": 0}, {"type": "note_off", "time": 50, "note": 53, "velocity": 95, "channel": 0}, {"type": "note_on", "time": 9, "note": 55, "velocity": 91, "channel": 0}, {"type": "note_off", "time": 111, "note": 55, "velocity": 91, "channel": 0}, {"type": "note_on", "time": 4, "note": 51, "velocity": 93, "channel": 0}, {"type": "note_off", "time": 47, "note": 51, "velocity": 93, "channel": 0}, {"type": "note_on", "time": 11, "note": 50, "velocity": 88, "channel": 0}, {"type": "note_off", "time": 94, "note": 50, "velocity": 88, "channel": 0}, {"type": "note_on", "time": 8, "note": 49, "velocity": 88, "channel": 0}, {"type": "note_off", "time": 82, "note": 49, "velocity": 88, "channel": 0}, {"type": "note_on", "time": 4, "note": 51, "velocity": 90, "channel": 0}, {"type": "note_off", "time": 108, "note": 51, "velocity": 90, "channel": 0}, {"type": "note_on", "time": 1, "note": 48, "velocity": 84, "channel": 0}, {"type": "note_off", "time": 81, "note": 48, "velocity": 84, "channel": 0}, {"type": "note_on", "time": 5, "note": 51, "velocity": 89, "channel": 0}, {"type": "note_off", "time": 71, "note": 51, "velocity": 89, "channel": 0}, {"type": "note_on", "time": 3, "note": 56, "velocity": 89, "channel": 0}, {"type": "note_off", "time": 88, "note": 56, "velocity": 89, "channel": 0}, {"type": "note_on", "time": 4, "note": 60, "velocity": 95, "channel": 0}, {"type": "note_off", "time": 108, "note": 60, "velocity": 95, "channel": 0}, {"type": "note_on", "time": 4, "note": 59, "velocity": 97, "channel": 0}, {"type": "note_off", "time": 80, "note": 59, "velocity": 97, "channel": 0}, {"type": "note_on", "time": 3, "note": 61, "velocity": 95, "channel": 0}, {"type": "note_off", "time": 125, "note": 61, "velocity": 95, "channel": 0}, {"type": "note_on", "time": 6, "note": 63, "velocity": 99, "channel": 0}, {"type": "note_off", "time": 91, "note": 63, "velocity": 99, "channel": 0}, {"type": "note_on", "time": 1, "note": 66, "velocity": 95, "channel": 0}, {"type": "note_off", "time": 65, "note": 66, "velocity": 95, "channel": 0}, {"type": "note_on", "time": 6, "note": 64, "velocity": 103, "channel": 0}, {"type": "note_off", "time": 102, "note": 64, "velocity": 103, "channel": 0}, {"type": "note_on", "time": 4, "note": 66, "velocity": 96, "channel": 0}, {"type": "note_off", "time": 104, "note": 66, "velocity": 96, "channel": 0}, {"type": "note_on", "time": 5, "note": 68, "velocity": 97, "channel": 0}, {"type": "note_off", "time": 54, "note": 68, "velocity": 97, "channel": 0}, {"type": "note_on", "time": 7, "note": 71, "velocity": 108, "channel": 0}, {"type": "note_off", "time": 103, "note": 71, "velocity": 108, "channel": 0}, {"type": "note_on", "time": 5, "note": 67, "velocity": 98, "channel": 0}, {"type": "note_off", "time": 96, "note": 67, "velocity": 98, "channel": 0}, {"type": "note_on", "time": 2, "note": 66, "velocity": 92, "channel": 0}, {"type": "note_off", "time": 11, "note": 66, "velocity": 92, "channel": 0}, {"type": "note_on", "time": 6, "note": 64, "velocity": 103, "channel": 0}, {"type": "note_off", "time": 118, "note": 64, "velocity": 103, "channel": 0}, {"type": "note_on", "time": 7, "note": 62, "velocity": 100, "channel": 0}, {"type": "note_off", "time": 52, "note": 62, "velocity": 100, "channel": 0}, {"type": "note_on", "time": 40, "note": 60, "velocity": 96, "channel": 0}, {"type": "note_off", "time": 108, "note": 60, "velocity": 96, "channel": 0}, {"type": "note_on", "time": 3, "note": 62, "velocity": 98, "channel": 0}, {"type": "note_off", "time": 77, "note": 62, "velocity": 98, "channel": 0}, {"type": "note_on", "time": 4, "note": 64, "velocity": 100, "channel": 0}, {"type": "note_off", "time": 107, "note": 64, "velocity": 100, "channel": 0}, {"type": "note_on", "time": 3, "note": 67, "velocity": 93, "channel": 0}, {"type": "note_off", "time": 80, "note": 67, "velocity": 93, "channel": 0}, {"type": "note_on", "time": 2, "note": 72, "velocity": 104, "channel": 0}, {"type": "note_off", "time": 102, "note": 72, "velocity": 104, "channel": 0}, {"type": "note_on", "time": 5, "note": 60, "velocity": 100, "channel": 0}, {"type": "note_off", "time": 144, "note": 60, "velocity": 100, "channel": 0}, {"type": "note_on", "time": 343, "note": 67, "velocity": 94, "channel": 0}, {"type": "note_off", "time": 86, "note": 67, "velocity": 94, "channel": 0}, {"type": "note_on", "time": 5, "note": 65, "velocity": 98, "channel": 0}, {"type": "note_off", "time": 89, "note": 65, "velocity": 98, "channel": 0}, {"type": "note_on", "time": 4, "note": 63, "velocity": 101, "channel": 0}, {"type": "note_off", "time": 82, "note": 63, "velocity": 101, "channel": 0}, {"type": "note_on", "time": 2, "note": 59, "velocity": 89, "channel": 0}, {"type": "note_off", "time": 86, "note": 59, "velocity": 89, "channel": 0}, {"type": "note_on", "time": 3, "note": 56, "velocity": 92, "channel": 0}, {"type": "note_off", "time": 120, "note": 56, "velocity": 92, "channel": 0}, {"type": "note_on", "time": 11, "note": 61, "velocity": 94, "channel": 0}, {"type": "note_off", "time": 95, "note": 61, "velocity": 94, "channel": 0}, {"type": "note_on", "time": 4, "note": 58, "velocity": 93, "channel": 0}, {"type": "note_off", "time": 81, "note": 58, "velocity": 93, "channel": 0}, {"type": "note_on", "time": 2, "note": 61, "velocity": 97, "channel": 0}, {"type": "note_off", "time": 101, "note": 61, "velocity": 97, "channel": 0}, {"type": "note_on", "time": 7, "note": 65, "velocity": 92, "channel": 0}, {"type": "note_off", "time": 40, "note": 65, "velocity": 92, "channel": 0}, {"type": "note_on", "time": 1, "note": 66, "velocity": 93, "channel": 0}, {"type": "note_off", "time": 41, "note": 66, "velocity": 93, "channel": 0}, {"type": "note_on", "time": 8, "note": 70, "velocity": 105, "channel": 0}, {"type": "note_off", "time": 79, "note": 70, "velocity": 105, "channel": 0}, {"type": "note_on", "time": 29, "note": 69, "velocity": 102, "channel": 0}, {"type": "note_off", "time": 69, "note": 69, "velocity": 102, "channel": 0}, {"type": "note_on", "time": 5, "note": 68, "velocity": 99, "channel": 0}, {"type": "note_off", "time": 53, "note": 68, "velocity": 99, "channel": 0}, {"type": "note_on", "time": 11, "note": 67, "velocity": 97, "channel": 0}, {"type": "note_off", "time": 122, "note": 67, "velocity": 97, "channel": 0}, {"type": "note_on", "time": 3, "note": 71, "velocity": 105, "channel": 0}, {"type": "note_off", "time": 86, "note": 71, "velocity": 105, "channel": 0}, {"type": "note_on", "time": 1, "note": 69, "velocity": 98, "channel": 0}, {"type": "note_off", "time": 56, "note": 69, "velocity": 98, "channel": 0}, {"type": "note_on", "time": 3, "note": 66, "velocity": 98, "channel": 0}, {"type": "note_off", "time": 89, "note": 66, "velocity": 98, "channel": 0}, {"type": "note_on", "time": 1, "note": 64, "velocity": 99, "channel": 0}, {"type": "note_off", "time": 83, "note": 64, "velocity": 99, "channel": 0}, {"type": "note_on", "time": 1, "note": 62, "velocity": 94, "channel": 0}, {"type": "note_off", "time": 86, "note": 62, "velocity": 94, "channel": 0}, {"type": "note_on", "time": 6, "note": 65, "velocity": 87, "channel": 0}, {"type": "note_off", "time": 114, "note": 65, "velocity": 87, "channel": 0}, {"type": "note_on", "time": 92, "note": 69, "velocity": 102, "channel": 0}, {"type": "note_off", "time": 140, "note": 69, "velocity": 102, "channel": 0}, {"type": "note_on", "time": 4, "note": 67, "velocity": 98, "channel": 0}, {"type": "note_off", "time": 83, "note": 67, "velocity": 98, "channel": 0}, {"type": "note_on", "time": 3, "note": 65, "velocity": 98, "channel": 0}, {"type": "note_off", "time": 84, "note": 65, "velocity": 98, "channel": 0}, {"type": "note_on", "time": 4, "note": 63, "velocity": 105, "channel": 0}, {"type": "note_off", "time": 76, "note": 63, "velocity": 105, "channel": 0}, {"type": "note_on", "time": 4, "note": 62, "velocity": 101, "channel": 0}, {"type": "note_off", "time": 83, "note": 62, "velocity": 101, "channel": 0}, {"type": "note_on", "time": 7, "note": 60, "velocity": 97, "channel": 0}, {"type": "note_off", "time": 112, "note": 60, "velocity": 97, "channel": 0}, {"type": "note_on", "time": 9, "note": 58, "velocity": 89, "channel": 0}, {"type": "note_off", "time": 75, "note": 58, "velocity": 89, "channel": 0}, {"type": "note_on", "time": 5, "note": 60, "velocity": 98, "channel": 0}, {"type": "note_off", "time": 117, "note": 60, "velocity": 98, "channel": 0}, {"type": "note_on", "time": 12, "note": 62, "velocity": 89, "channel": 0}, {"type": "note_off", "time": 53, "note": 62, "velocity": 89, "channel": 0}, {"type": "note_on", "time": 2, "note": 65, "velocity": 89, "channel": 0}, {"type": "note_off", "time": 98, "note": 65, "velocity": 89, "channel": 0}, {"type": "note_on", "time": 7, "note": 69, "velocity": 109, "channel": 0}, {"type": "note_off", "time": 220, "note": 69, "velocity": 109, "channel": 0}, {"type": "note_on", "time": 15, "note": 72, "velocity": 110, "channel": 0}, {"type": "note_off", "time": 170, "note": 72, "velocity": 110, "channel": 0}, {"type": "note_on", "time": 27, "note": 69, "velocity": 105, "channel": 0}, {"type": "note_off", "time": 256, "note": 69, "velocity": 105, "channel": 0}, {"type": "note_on", "time": 5, "note": 72, "velocity": 106, "channel": 0}, {"type": "note_off", "time": 74, "note": 72, "velocity": 106, "channel": 0}, {"type": "note_on", "time": 1, "note": 69, "velocity": 106, "channel": 0}, {"type": "note_off", "time": 275, "note": 69, "velocity": 106, "channel": 0}, {"type": "note_on", "time": 6, "note": 72, "velocity": 109, "channel": 0}, {"type": "note_off", "time": 100, "note": 72, "velocity": 109, "channel": 0}, {"type": "note_on", "time": 2, "note": 69, "velocity": 105, "channel": 0}, {"type": "note_off", "time": 293, "note": 69, "velocity": 105, "channel": 0}, {"type": "note_on", "time": 4, "note": 67, "velocity": 100, "channel": 0}, {"type": "note_off", "time": 84, "note": 67, "velocity": 100, "channel": 0}, {"type": "note_on", "time": 4, "note": 65, "velocity": 100, "channel": 0}, {"type": "note_off", "time": 93, "note": 65, "velocity": 100, "channel": 0}, {"type": "note_on", "time": 6, "note": 62, "velocity": 100, "channel": 0}, {"type": "note_off", "time": 161, "note": 62, "velocity": 100, "channel": 0}, {"type": "note_on", "time": 480, "note": 68, "velocity": 103, "channel": 0}, {"type": "note_off", "time": 65, "note": 68, "velocity": 103, "channel": 0}, {"type": "note_on", "time": 5, "note": 70, "velocity": 111, "channel": 0}, {"type": "note_off", "time": 178, "note": 70, "velocity": 111, "channel": 0}, {"type": "note_on", "time": 4, "note": 69, "velocity": 100, "channel": 0}, {"type": "note_off", "time": 28, "note": 69, "velocity": 100, "channel": 0}, {"type": "note_on", "time": 11, "note": 67, "velocity": 96, "channel": 0}, {"type": "note_off", "time": 70, "note": 67, "velocity": 96, "channel": 0}, {"type": "note_on", "time": 7, "note": 65, "velocity": 100, "channel": 0}, {"type": "note_off", "time": 99, "note": 65, "velocity": 100, "channel": 0}, {"type": "note_on", "time": 8, "note": 61, "velocity": 96, "channel": 0}, {"type": "note_off", "time": 105, "note": 61, "velocity": 96, "channel": 0}, {"type": "note_on", "time": 3, "note": 58, "velocity": 91, "channel": 0}, {"type": "note_off", "time": 66, "note": 58, "velocity": 91, "channel": 0}, {"type": "note_on", "time": 11, "note": 55, "velocity": 96, "channel": 0}, {"type": "note_off", "time": 59, "note": 55, "velocity": 96, "channel": 0}, {"type": "note_on", "time": 12, "note": 53, "velocity": 85, "channel": 0}, {"type": "note_off", "time": 40, "note": 53, "velocity": 85, "channel": 0}, {"type": "note_on", "time": 23, "note": 64, "velocity": 105, "channel": 0}, {"type": "note_off", "time": 66, "note": 64, "velocity": 105, "channel": 0}, {"type": "note_on", "time": 11, "note": 67, "velocity": 98, "channel": 0}, {"type": "note_off", "time": 161, "note": 67, "velocity": 98, "channel": 0}, {"type": "note_on", "time": 14, "note": 69, "velocity": 98, "channel": 0}, {"type": "note_off", "time": 106, "note": 69, "velocity": 98, "channel": 0}, {"type": "note_on", "time": 0, "note": 65, "velocity": 102, "channel": 0}, {"type": "note_off", "time": 86, "note": 65, "velocity": 102, "channel": 0}, {"type": "note_on", "time": 4, "note": 64, "velocity": 108, "channel": 0}, {"type": "note_off", "time": 85, "note": 64, "velocity": 108, "channel": 0}, {"type": "note_on", "time": 3, "note": 63, "velocity": 103, "channel": 0}, {"type": "note_off", "time": 91, "note": 63, "velocity": 103, "channel": 0}, {"type": "note_on", "time": 2, "note": 65, "velocity": 100, "channel": 0}, {"type": "note_off", "time": 94, "note": 65, "velocity": 100, "channel": 0}, {"type": "note_on", "time": 1, "note": 62, "velocity": 94, "channel": 0}, {"type": "note_off", "time": 126, "note": 62, "velocity": 94, "channel": 0}, {"type": "note_on", "time": 275, "note": 62, "velocity": 91, "channel": 0}, {"type": "note_off", "time": 104, "note": 62, "velocity": 91, "channel": 0}, {"type": "note_on", "time": 7, "note": 59, "velocity": 92, "channel": 0}, {"type": "note_off", "time": 84, "note": 59, "velocity": 92, "channel": 0}, {"type": "note_on", "time": 3, "note": 56, "velocity": 87, "channel": 0}, {"type": "note_off", "time": 80, "note": 56, "velocity": 87, "channel": 0}, {"type": "note_on", "time": 25, "note": 61, "velocity": 94, "channel": 0}, {"type": "note_off", "time": 87, "note": 61, "velocity": 94, "channel": 0}, {"type": "note_on", "time": 3, "note": 58, "velocity": 91, "channel": 0}, {"type": "note_off", "time": 105, "note": 58, "velocity": 91, "channel": 0}, {"type": "note_on", "time": 5, "note": 54, "velocity": 80, "channel": 0}, {"type": "note_off", "time": 93, "note": 54, "velocity": 80, "channel": 0}, {"type": "note_on", "time": 5, "note": 55, "velocity": 85, "channel": 0}, {"type": "note_off", "time": 62, "note": 55, "velocity": 85, "channel": 0}, {"type": "note_on", "time": 11, "note": 58, "velocity": 92, "channel": 0}, {"type": "note_off", "time": 93, "note": 58, "velocity": 92, "channel": 0}, {"type": "note_on", "time": 6, "note": 57, "velocity": 92, "channel": 0}, {"type": "note_off", "time": 75, "note": 57, "velocity": 92, "channel": 0}, {"type": "note_on", "time": 6, "note": 56, "velocity": 93, "channel": 0}, {"type": "note_off", "time": 63, "note": 56, "velocity": 93, "channel": 0}, {"type": "note_on", "time": 8, "note": 55, "velocity": 92, "channel": 0}, {"type": "note_off", "time": 114, "note": 55, "velocity": 92, "channel": 0}, {"type": "note_on", "time": 11, "note": 59, "velocity": 92, "channel": 0}, {"type": "note_off", "time": 63, "note": 59, "velocity": 92, "channel": 0}, {"type": "note_on", "time": 14, "note": 57, "velocity": 96, "channel": 0}, {"type": "note_off", "time": 67, "note": 57, "velocity": 96, "channel": 0}, {"type": "note_on", "time": 11, "note": 56, "velocity": 92, "channel": 0}, {"type": "note_off", "time": 31, "note": 56, "velocity": 92, "channel": 0}, {"type": "note_on", "time": 11, "note": 54, "velocity": 93, "channel": 0}, {"type": "note_off", "time": 48, "note": 54, "velocity": 93, "channel": 0}, {"type": "note_on", "time": 9, "note": 52, "velocity": 84, "channel": 0}, {"type": "note_off", "time": 66, "note": 52, "velocity": 84, "channel": 0}, {"type": "note_on", "time": 9, "note": 50, "velocity": 82, "channel": 0}, {"type": "note_off", "time": 69, "note": 50, "velocity": 82, "channel": 0}, {"type": "note_on", "time": 17, "note": 54, "velocity": 98, "channel": 0}, {"type": "note_off", "time": 90, "note": 54, "velocity": 98, "channel": 0}, {"type": "note_on", "time": 11, "note": 55, "velocity": 95, "channel": 0}, {"type": "note_off", "time": 80, "note": 55, "velocity": 95, "channel": 0}, {"type": "note_on", "time": 16, "note": 57, "velocity": 88, "channel": 0}, {"type": "note_off", "time": 137, "note": 57, "velocity": 88, "channel": 0}, {"type": "note_on", "time": 291, "note": 49, "velocity": 98, "channel": 0}, {"type": "note_off", "time": 96, "note": 49, "velocity": 98, "channel": 0}, {"type": "note_on", "time": 10, "note": 54, "velocity": 100, "channel": 0}, {"type": "note_off", "time": 105, "note": 54, "velocity": 100, "channel": 0}, {"type": "note_on", "time": 0, "note": 51, "velocity": 101, "channel": 0}, {"type": "note_off", "time": 88, "note": 51, "velocity": 101, "channel": 0}, {"type": "note_on", "time": 8, "note": 50, "velocity": 93, "channel": 0}, {"type": "note_off", "time": 92, "note": 50, "velocity": 93, "channel": 0}, {"type": "note_on", "time": 7, "note": 49, "velocity": 92, "channel": 0}, {"type": "note_off", "time": 82, "note": 49, "velocity": 92, "channel": 0}, {"type": "note_on", "time": 4, "note": 51, "velocity": 96, "channel": 0}, {"type": "note_off", "time": 80, "note": 51, "velocity": 96, "channel": 0}, {"type": "note_on", "time": 15, "note": 48, "velocity": 90, "channel": 0}, {"type": "note_off", "time": 74, "note": 48, "velocity": 90, "channel": 0}, {"type": "note_on", "time": 8, "note": 51, "velocity": 90, "channel": 0}, {"type": "note_off", "time": 64, "note": 51, "velocity": 90, "channel": 0}, {"type": "note_on", "time": 15, "note": 56, "velocity": 94, "channel": 0}, {"type": "note_off", "time": 89, "note": 56, "velocity": 94, "channel": 0}, {"type": "note_on", "time": 12, "note": 60, "velocity": 94, "channel": 0}, {"type": "note_off", "time": 96, "note": 60, "velocity": 94, "channel": 0}, {"type": "note_on", "time": 3, "note": 58, "velocity": 96, "channel": 0}, {"type": "note_off", "time": 78, "note": 58, "velocity": 96, "channel": 0}, {"type": "note_on", "time": 8, "note": 61, "velocity": 98, "channel": 0}, {"type": "note_off", "time": 104, "note": 61, "velocity": 98, "channel": 0}, {"type": "note_on", "time": 9, "note": 63, "velocity": 100, "channel": 0}, {"type": "note_off", "time": 97, "note": 63, "velocity": 100, "channel": 0}, {"type": "note_on", "time": 6, "note": 66, "velocity": 98, "channel": 0}, {"type": "note_off", "time": 41, "note": 66, "velocity": 98, "channel": 0}, {"type": "note_on", "time": 8, "note": 64, "velocity": 102, "channel": 0}, {"type": "note_off", "time": 95, "note": 64, "velocity": 102, "channel": 0}, {"type": "note_on", "time": 3, "note": 66, "velocity": 97, "channel": 0}, {"type": "note_off", "time": 104, "note": 66, "velocity": 97, "channel": 0}, {"type": "note_on", "time": 5, "note": 68, "velocity": 105, "channel": 0}, {"type": "note_off", "time": 72, "note": 68, "velocity": 105, "channel": 0}, {"type": "note_on", "time": 11, "note": 71, "velocity": 105, "channel": 0}, {"type": "note_off", "time": 74, "note": 71, "velocity": 105, "channel": 0}, {"type": "note_on", "time": 7, "note": 67, "velocity": 100, "channel": 0}, {"type": "note_off", "time": 90, "note": 67, "velocity": 100, "channel": 0}, {"type": "note_on", "time": 3, "note": 65, "velocity": 99, "channel": 0}, {"type": "note_off", "time": 54, "note": 65, "velocity": 99, "channel": 0}, {"type": "note_on", "time": 7, "note": 64, "velocity": 105, "channel": 0}, {"type": "note_off", "time": 73, "note": 64, "velocity": 105, "channel": 0}, {"type": "note_on", "time": 6, "note": 62, "velocity": 100, "channel": 0}, {"type": "note_off", "time": 87, "note": 62, "velocity": 100, "channel": 0}, {"type": "note_on", "time": 11, "note": 60, "velocity": 97, "channel": 0}, {"type": "note_off", "time": 95, "note": 60, "velocity": 97, "channel": 0}, {"type": "note_on", "time": 9, "note": 62, "velocity": 94, "channel": 0}, {"type": "note_off", "time": 89, "note": 62, "velocity": 94, "channel": 0}, {"type": "note_on", "time": 5, "note": 64, "velocity": 95, "channel": 0}, {"type": "note_off", "time": 86, "note": 64, "velocity": 95, "channel": 0}, {"type": "note_on", "time": 6, "note": 67, "velocity": 95, "channel": 0}, {"type": "note_off", "time": 81, "note": 67, "velocity": 95, "channel": 0}, {"type": "note_on", "time": 7, "note": 72, "velocity": 113, "channel": 0}, {"type": "note_off", "time": 129, "note": 72, "velocity": 113, "channel": 0}, {"type": "note_on", "time": 5, "note": 72, "velocity": 110, "channel": 0}, {"type": "note_off", "time": 104, "note": 72, "velocity": 110, "channel": 0}, {"type": "note_on", "time": 273, "note": 60, "velocity": 95, "channel": 0}, {"type": "note_off", "time": 89, "note": 60, "velocity": 95, "channel": 0}, {"type": "note_on", "time": 0, "note": 63, "velocity": 98, "channel": 0}, {"type": "note_off", "time": 67, "note": 63, "velocity": 98, "channel": 0}, {"type": "note_on", "time": 1, "note": 67, "velocity": 92, "channel": 0}, {"type": "note_off", "time": 27, "note": 67, "velocity": 92, "channel": 0}, {"type": "note_on", "time": 33, "note": 66, "velocity": 98, "channel": 0}, {"type": "note_off", "time": 21, "note": 66, "velocity": 98, "channel": 0}, {"type": "note_on", "time": 0, "note": 63, "velocity": 107, "channel": 0}, {"type": "note_off", "time": 102, "note": 63, "velocity": 107, "channel": 0}, {"type": "note_on", "time": 11, "note": 59, "velocity": 91, "channel": 0}, {"type": "note_off", "time": 73, "note": 59, "velocity": 91, "channel": 0}, {"type": "note_on", "time": 3, "note": 56, "velocity": 89, "channel": 0}, {"type": "note_off", "time": 131, "note": 56, "velocity": 89, "channel": 0}, {"type": "note_on", "time": 9, "note": 61, "velocity": 92, "channel": 0}, {"type": "note_off", "time": 91, "note": 61, "velocity": 92, "channel": 0}, {"type": "note_on", "time": 4, "note": 58, "velocity": 96, "channel": 0}, {"type": "note_off", "time": 77, "note": 58, "velocity": 96, "channel": 0}, {"type": "note_on", "time": 4, "note": 61, "velocity": 94, "channel": 0}, {"type": "note_off", "time": 130, "note": 61, "velocity": 94, "channel": 0}, {"type": "note_on", "time": 8, "note": 66, "velocity": 93, "channel": 0}, {"type": "note_off", "time": 77, "note": 66, "velocity": 93, "channel": 0}, {"type": "note_on", "time": 3, "note": 69, "velocity": 103, "channel": 0}, {"type": "note_off", "time": 83, "note": 69, "velocity": 103, "channel": 0}, {"type": "note_on", "time": 4, "note": 70, "velocity": 103, "channel": 0}, {"type": "note_off", "time": 25, "note": 70, "velocity": 103, "channel": 0}, {"type": "note_on", "time": 5, "note": 69, "velocity": 95, "channel": 0}, {"type": "note_off", "time": 68, "note": 69, "velocity": 95, "channel": 0}, {"type": "note_on", "time": 7, "note": 68, "velocity": 100, "channel": 0}, {"type": "note_off", "time": 89, "note": 68, "velocity": 100, "channel": 0}, {"type": "note_on", "time": 2, "note": 67, "velocity": 94, "channel": 0}, {"type": "note_off", "time": 98, "note": 67, "velocity": 94, "channel": 0}, {"type": "note_on", "time": 8, "note": 71, "velocity": 106, "channel": 0}, {"type": "note_off", "time": 80, "note": 71, "velocity": 106, "channel": 0}, {"type": "note_on", "time": 1, "note": 69, "velocity": 102, "channel": 0}, {"type": "note_off", "time": 65, "note": 69, "velocity": 102, "channel": 0}, {"type": "note_on", "time": 5, "note": 66, "velocity": 97, "channel": 0}, {"type": "note_off", "time": 69, "note": 66, "velocity": 97, "channel": 0}, {"type": "note_on", "time": 6, "note": 64, "velocity": 94, "channel": 0}, {"type": "note_off", "time": 108, "note": 64, "velocity": 94, "channel": 0}, {"type": "note_on", "time": 7, "note": 62, "velocity": 90, "channel": 0}, {"type": "note_off", "time": 76, "note": 62, "velocity": 90, "channel": 0}, {"type": "note_on", "time": 3, "note": 65, "velocity": 90, "channel": 0}, {"type": "note_off", "time": 146, "note": 65, "velocity": 90, "channel": 0}, {"type": "note_on", "time": 51, "note": 69, "velocity": 96, "channel": 0}, {"type": "note_off", "time": 132, "note": 69, "velocity": 96, "channel": 0}, {"type": "note_on", "time": 4, "note": 67, "velocity": 98, "channel": 0}, {"type": "note_off", "time": 90, "note": 67, "velocity": 98, "channel": 0}, {"type": "note_on", "time": 2, "note": 65, "velocity": 96, "channel": 0}, {"type": "note_off", "time": 77, "note": 65, "velocity": 96, "channel": 0}, {"type": "note_on", "time": 4, "note": 63, "velocity": 106, "channel": 0}, {"type": "note_off", "time": 79, "note": 63, "velocity": 106, "channel": 0}, {"type": "note_on", "time": 9, "note": 62, "velocity": 97, "channel": 0}, {"type": "note_off", "time": 87, "note": 62, "velocity": 97, "channel": 0}, {"type": "note_on", "time": 11, "note": 60, "velocity": 94, "channel": 0}, {"type": "note_off", "time": 114, "note": 60, "velocity": 94, "channel": 0}, {"type": "note_on", "time": 0, "note": 58, "velocity": 93, "channel": 0}, {"type": "note_off", "time": 64, "note": 58, "velocity": 93, "channel": 0}, {"type": "note_on", "time": 11, "note": 60, "velocity": 94, "channel": 0}, {"type": "note_off", "time": 107, "note": 60, "velocity": 94, "channel": 0}, {"type": "note_on", "time": 2, "note": 62, "velocity": 89, "channel": 0}, {"type": "note_off", "time": 59, "note": 62, "velocity": 89, "channel": 0}, {"type": "note_on", "time": 7, "note": 65, "velocity": 90, "channel": 0}, {"type": "note_off", "time": 80, "note": 65, "velocity": 90, "channel": 0}, {"type": "note_on", "time": 6, "note": 72, "velocity": 110, "channel": 0}, {"type": "note_off", "time": 371, "note": 72, "velocity": 110, "channel": 0}, {"type": "note_on", "time": 8, "note": 69, "velocity": 104, "channel": 0}, {"type": "note_off", "time": 201, "note": 69, "velocity": 104, "channel": 0}, {"type": "note_on", "time": 10, "note": 67, "velocity": 98, "channel": 0}, {"type": "note_off", "time": 48, "note": 67, "velocity": 98, "channel": 0}, {"type": "note_on", "time": 0, "note": 69, "velocity": 98, "channel": 0}, {"type": "note_off", "time": 70, "note": 69, "velocity": 98, "channel": 0}, {"type": "note_on", "time": 6, "note": 67, "velocity": 100, "channel": 0}, {"type": "note_off", "time": 96, "note": 67, "velocity": 100, "channel": 0}, {"type": "note_on", "time": 4, "note": 65, "velocity": 99, "channel": 0}, {"type": "note_off", "time": 54, "note": 65, "velocity": 99, "channel": 0}, {"type": "note_on", "time": 2, "note": 64, "velocity": 104, "channel": 0}, {"type": "note_off", "time": 85, "note": 64, "velocity": 104, "channel": 0}, {"type": "note_on", "time": 5, "note": 63, "velocity": 105, "channel": 0}, {"type": "note_off", "time": 102, "note": 63, "velocity": 105, "channel": 0}, {"type": "note_on", "time": 7, "note": 62, "velocity": 99, "channel": 0}, {"type": "note_off", "time": 88, "note": 62, "velocity": 99, "channel": 0}, {"type": "note_on", "time": 7, "note": 60, "velocity": 98, "channel": 0}, {"type": "note_off", "time": 87, "note": 60, "velocity": 98, "channel": 0}, {"type": "note_on", "time": 3, "note": 63, "velocity": 104, "channel": 0}, {"type": "note_off", "time": 105, "note": 63, "velocity": 104, "channel": 0}, {"type": "note_on", "time": 3, "note": 62, "velocity": 97, "channel": 0}, {"type": "note_off", "time": 77, "note": 62, "velocity": 97, "channel": 0}, {"type": "note_on", "time": 4, "note": 60, "velocity": 98, "channel": 0}, {"type": "note_off", "time": 95, "note": 60, "velocity": 98, "channel": 0}, {"type": "note_on", "time": 7, "note": 58, "velocity": 93, "channel": 0}, {"type": "note_off", "time": 76, "note": 58, "velocity": 93, "channel": 0}, {"type": "note_on", "time": 7, "note": 60, "velocity": 94, "channel": 0}, {"type": "note_off", "time": 96, "note": 60, "velocity": 94, "channel": 0}, {"type": "note_on", "time": 5, "note": 62, "velocity": 94, "channel": 0}, {"type": "note_off", "time": 43, "note": 62, "velocity": 94, "channel": 0}, {"type": "note_on", "time": 5, "note": 65, "velocity": 99, "channel": 0}, {"type": "note_off", "time": 101, "note": 65, "velocity": 99, "channel": 0}, {"type": "note_on", "time": 3, "note": 61, "velocity": 97, "channel": 0}, {"type": "note_off", "time": 107, "note": 61, "velocity": 97, "channel": 0}, {"type": "note_on", "time": 6, "note": 63, "velocity": 93, "channel": 0}, {"type": "note_off", "time": 77, "note": 63, "velocity": 93, "channel": 0}, {"type": "note_on", "time": 3, "note": 65, "velocity": 90, "channel": 0}, {"type": "note_off", "time": 92, "note": 65, "velocity": 90, "channel": 0}, {"type": "note_on", "time": 2, "note": 67, "velocity": 84, "channel": 0}, {"type": "note_off", "time": 34, "note": 67, "velocity": 84, "channel": 0}, {"type": "note_on", "time": 0, "note": 75, "velocity": 103, "channel": 0}, {"type": "note_off", "time": 346, "note": 75, "velocity": 103, "channel": 0}, {"type": "note_on", "time": 11, "note": 72, "velocity": 98, "channel": 0}, {"type": "note_off", "time": 50, "note": 72, "velocity": 98, "channel": 0}, {"type": "note_on", "time": 8, "note": 71, "velocity": 98, "channel": 0}, {"type": "note_off", "time": 25, "note": 71, "velocity": 98, "channel": 0}, {"type": "note_on", "time": 1, "note": 67, "velocity": 94, "channel": 0}, {"type": "note_off", "time": 73, "note": 67, "velocity": 94, "channel": 0}, {"type": "note_on", "time": 8, "note": 65, "velocity": 96, "channel": 0}, {"type": "note_off", "time": 52, "note": 65, "velocity": 96, "channel": 0}, {"type": "note_on", "time": 8, "note": 61, "velocity": 91, "channel": 0}, {"type": "note_off", "time": 107, "note": 61, "velocity": 91, "channel": 0}, {"type": "note_on", "time": 259, "note": 64, "velocity": 98, "channel": 0}, {"type": "note_off", "time": 90, "note": 64, "velocity": 98, "channel": 0}, {"type": "note_on", "time": 4, "note": 67, "velocity": 100, "channel": 0}, {"type": "note_off", "time": 74, "note": 67, "velocity": 100, "channel": 0}, {"type": "note_on", "time": 4, "note": 71, "velocity": 111, "channel": 0}, {"type": "note_off", "time": 83, "note": 71, "velocity": 111, "channel": 0}, {"type": "note_on", "time": 17, "note": 63, "velocity": 106, "channel": 0}, {"type": "note_off", "time": 81, "note": 63, "velocity": 106, "channel": 0}, {"type": "note_on", "time": 9, "note": 65, "velocity": 101, "channel": 0}, {"type": "note_off", "time": 52, "note": 65, "velocity": 101, "channel": 0}, {"type": "note_on", "time": 12, "note": 69, "velocity": 109, "channel": 0}, {"type": "note_off", "time": 109, "note": 69, "velocity": 109, "channel": 0}, {"type": "note_on", "time": 9, "note": 71, "velocity": 102, "channel": 0}, {"type": "note_off", "time": 60, "note": 71, "velocity": 102, "channel": 0}, {"type": "note_on", "time": 15, "note": 70, "velocity": 104, "channel": 0}, {"type": "note_off", "time": 127, "note": 70, "velocity": 104, "channel": 0}, {"type": "note_on", "time": 258, "note": 63, "velocity": 97, "channel": 0}, {"type": "note_off", "time": 114, "note": 63, "velocity": 97, "channel": 0}, {"type": "note_on", "time": 8, "note": 59, "velocity": 91, "channel": 0}, {"type": "note_off", "time": 63, "note": 59, "velocity": 91, "channel": 0}, {"type": "note_on", "time": 7, "note": 56, "velocity": 88, "channel": 0}, {"type": "note_off", "time": 110, "note": 56, "velocity": 88, "channel": 0}, {"type": "note_on", "time": 12, "note": 61, "velocity": 99, "channel": 0}, {"type": "note_off", "time": 71, "note": 61, "velocity": 99, "channel": 0}, {"type": "note_on", "time": 20, "note": 58, "velocity": 97, "channel": 0}, {"type": "note_off", "time": 76, "note": 58, "velocity": 97, "channel": 0}, {"type": "note_on", "time": 9, "note": 61, "velocity": 96, "channel": 0}, {"type": "note_off", "time": 77, "note": 61, "velocity": 96, "channel": 0}, {"type": "note_on", "time": 0, "note": 63, "velocity": 94, "channel": 0}, {"type": "note_off", "time": 29, "note": 63, "velocity": 94, "channel": 0}, {"type": "note_on", "time": 6, "note": 65, "velocity": 98, "channel": 0}, {"type": "note_off", "time": 41, "note": 65, "velocity": 98, "channel": 0}, {"type": "note_on", "time": 5, "note": 66, "velocity": 96, "channel": 0}, {"type": "note_off", "time": 31, "note": 66, "velocity": 96, "channel": 0}, {"type": "note_on", "time": 5, "note": 70, "velocity": 105, "channel": 0}, {"type": "note_off", "time": 89, "note": 70, "velocity": 105, "channel": 0}, {"type": "note_on", "time": 24, "note": 69, "velocity": 103, "channel": 0}, {"type": "note_off", "time": 59, "note": 69, "velocity": 103, "channel": 0}, {"type": "note_on", "time": 7, "note": 68, "velocity": 103, "channel": 0}, {"type": "note_off", "time": 90, "note": 68, "velocity": 103, "channel": 0}, {"type": "note_on", "time": 4, "note": 67, "velocity": 99, "channel": 0}, {"type": "note_off", "time": 109, "note": 67, "velocity": 99, "channel": 0}, {"type": "note_on", "time": 2, "note": 71, "velocity": 101, "channel": 0}, {"type": "note_off", "time": 91, "note": 71, "velocity": 101, "channel": 0}, {"type": "note_on", "time": 2, "note": 69, "velocity": 103, "channel": 0}, {"type": "note_off", "time": 87, "note": 69, "velocity": 103, "channel": 0}, {"type": "note_on", "time": 0, "note": 66, "velocity": 97, "channel": 0}, {"type": "note_off", "time": 69, "note": 66, "velocity": 97, "channel": 0}, {"type": "note_on", "time": 2, "note": 64, "velocity": 91, "channel": 0}, {"type": "note_off", "time": 83, "note": 64, "velocity": 91, "channel": 0}, {"type": "note_on", "time": 6, "note": 62, "velocity": 90, "channel": 0}, {"type": "note_off", "time": 63, "note": 62, "velocity": 90, "channel": 0}, {"type": "note_on", "time": 3, "note": 66, "velocity": 94, "channel": 0}, {"type": "note_off", "time": 126, "note": 66, "velocity": 94, "channel": 0}, {"type": "note_on", "time": 7, "note": 67, "velocity": 99, "channel": 0}, {"type": "note_off", "time": 86, "note": 67, "velocity": 99, "channel": 0}, {"type": "note_on", "time": 5, "note": 69, "velocity": 83, "channel": 0}, {"type": "note_off", "time": 62, "note": 69, "velocity": 83, "channel": 0}, {"type": "note_on", "time": 323, "note": 68, "velocity": 96, "channel": 0}, {"type": "note_off", "time": 64, "note": 68, "velocity": 96, "channel": 0}, {"type": "note_on", "time": 6, "note": 67, "velocity": 102, "channel": 0}, {"type": "note_off", "time": 59, "note": 67, "velocity": 102, "channel": 0}, {"type": "note_on", "time": 5, "note": 63, "velocity": 105, "channel": 0}, {"type": "note_off", "time": 64, "note": 63, "velocity": 105, "channel": 0}, {"type": "note_on", "time": 7, "note": 62, "velocity": 99, "channel": 0}, {"type": "note_off", "time": 67, "note": 62, "velocity": 99, "channel": 0}, {"type": "note_on", "time": 9, "note": 61, "velocity": 96, "channel": 0}, {"type": "note_off", "time": 122, "note": 61, "velocity": 96, "channel": 0}, {"type": "note_on", "time": 8, "note": 63, "velocity": 106, "channel": 0}, {"type": "note_off", "time": 107, "note": 63, "velocity": 106, "channel": 0}, {"type": "note_on", "time": 6, "note": 61, "velocity": 80, "channel": 0}, {"type": "note_off", "time": 121, "note": 61, "velocity": 80, "channel": 0}, {"type": "note_on", "time": 322, "note": 68, "velocity": 109, "channel": 0}, {"type": "note_off", "time": 110, "note": 68, "velocity": 109, "channel": 0}, {"type": "note_on", "time": 0, "note": 67, "velocity": 105, "channel": 0}, {"type": "note_off", "time": 64, "note": 67, "velocity": 105, "channel": 0}, {"type": "note_on", "time": 16, "note": 66, "velocity": 101, "channel": 0}, {"type": "note_off", "time": 83, "note": 66, "velocity": 101, "channel": 0}, {"type": "note_on", "time": 444, "note": 74, "velocity": 98, "channel": 0}, {"type": "note_off", "time": 252, "note": 74, "velocity": 98, "channel": 0}, {"type": "note_on", "time": 0, "note": 73, "velocity": 109, "channel": 0}, {"type": "note_off", "time": 59, "note": 73, "velocity": 109, "channel": 0}, {"type": "note_on", "time": 2, "note": 72, "velocity": 111, "channel": 0}, {"type": "note_off", "time": 48, "note": 72, "velocity": 111, "channel": 0}, {"type": "note_on", "time": 2, "note": 71, "velocity": 111, "channel": 0}, {"type": "note_off", "time": 93, "note": 71, "velocity": 111, "channel": 0}, {"type": "note_on", "time": 2, "note": 67, "velocity": 93, "channel": 0}, {"type": "note_off", "time": 51, "note": 67, "velocity": 93, "channel": 0}, {"type": "note_on", "time": 5, "note": 69, "velocity": 109, "channel": 0}, {"type": "note_off", "time": 103, "note": 69, "velocity": 109, "channel": 0}, {"type": "note_on", "time": 8, "note": 71, "velocity": 110, "channel": 0}, {"type": "note_off", "time": 92, "note": 71, "velocity": 110, "channel": 0}, {"type": "note_on", "time": 5, "note": 67, "velocity": 102, "channel": 0}, {"type": "note_off", "time": 94, "note": 67, "velocity": 102, "channel": 0}, {"type": "note_on", "time": 5, "note": 64, "velocity": 105, "channel": 0}, {"type": "note_off", "time": 105, "note": 64, "velocity": 105, "channel": 0}, {"type": "note_on", "time": 1, "note": 62, "velocity": 98, "channel": 0}, {"type": "note_off", "time": 54, "note": 62, "velocity": 98, "channel": 0}, {"type": "note_on", "time": 9, "note": 60, "velocity": 93, "channel": 0}, {"type": "note_off", "time": 64, "note": 60, "velocity": 93, "channel": 0}, {"type": "note_on", "time": 63, "note": 67, "velocity": 99, "channel": 0}, {"type": "note_off", "time": 61, "note": 67, "velocity": 99, "channel": 0}, {"type": "note_on", "time": 31, "note": 60, "velocity": 89, "channel": 0}, {"type": "note_off", "time": 50, "note": 60, "velocity": 89, "channel": 0}, {"type": "note_on", "time": 35, "note": 63, "velocity": 96, "channel": 0}, {"type": "note_off", "time": 69, "note": 63, "velocity": 96, "channel": 0}, {"type": "note_on", "time": 9, "note": 67, "velocity": 100, "channel": 0}, {"type": "note_off", "time": 56, "note": 67, "velocity": 100, "channel": 0}, {"type": "note_on", "time": 22, "note": 63, "velocity": 105, "channel": 0}, {"type": "note_off", "time": 108, "note": 63, "velocity": 105, "channel": 0}, {"type": "note_on", "time": 4, "note": 59, "velocity": 92, "channel": 0}, {"type": "note_off", "time": 68, "note": 59, "velocity": 92, "channel": 0}, {"type": "note_on", "time": 4, "note": 56, "velocity": 98, "channel": 0}, {"type": "note_off", "time": 95, "note": 56, "velocity": 98, "channel": 0}, {"type": "note_on", "time": 40, "note": 61, "velocity": 98, "channel": 0}, {"type": "note_off", "time": 86, "note": 61, "velocity": 98, "channel": 0}, {"type": "note_on", "time": 6, "note": 58, "velocity": 89, "channel": 0}, {"type": "note_off", "time": 76, "note": 58, "velocity": 89, "channel": 0}, {"type": "note_on", "time": 275, "note": 69, "velocity": 100, "channel": 0}, {"type": "note_off", "time": 71, "note": 69, "velocity": 100, "channel": 0}, {"type": "note_on", "time": 5, "note": 68, "velocity": 105, "channel": 0}, {"type": "note_off", "time": 92, "note": 68, "velocity": 105, "channel": 0}, {"type": "note_on", "time": 7, "note": 67, "velocity": 100, "channel": 0}, {"type": "note_off", "time": 115, "note": 67, "velocity": 100, "channel": 0}, {"type": "note_on", "time": 0, "note": 71, "velocity": 108, "channel": 0}, {"type": "note_off", "time": 107, "note": 71, "velocity": 108, "channel": 0}, {"type": "note_on", "time": 5, "note": 69, "velocity": 96, "channel": 0}, {"type": "note_off", "time": 43, "note": 69, "velocity": 96, "channel": 0}, {"type": "note_on", "time": 8, "note": 67, "velocity": 98, "channel": 0}, {"type": "note_off", "time": 51, "note": 67, "velocity": 98, "channel": 0}, {"type": "note_on", "time": 4, "note": 66, "velocity": 100, "channel": 0}, {"type": "note_off", "time": 47, "note": 66, "velocity": 100, "channel": 0}, {"type": "note_on", "time": 4, "note": 64, "velocity": 99, "channel": 0}, {"type": "note_off", "time": 97, "note": 64, "velocity": 99, "channel": 0}, {"type": "note_on", "time": 2, "note": 62, "velocity": 94, "channel": 0}, {"type": "note_off", "time": 90, "note": 62, "velocity": 94, "channel": 0}, {"type": "note_on", "time": 5, "note": 65, "velocity": 97, "channel": 0}, {"type": "note_off", "time": 135, "note": 65, "velocity": 97, "channel": 0}, {"type": "note_on", "time": 58, "note": 69, "velocity": 103, "channel": 0}, {"type": "note_off", "time": 102, "note": 69, "velocity": 103, "channel": 0}, {"type": "note_on", "time": 5, "note": 67, "velocity": 101, "channel": 0}, {"type": "note_off", "time": 100, "note": 67, "velocity": 101, "channel": 0}, {"type": "note_on", "time": 1, "note": 65, "velocity": 99, "channel": 0}, {"type": "note_off", "time": 48, "note": 65, "velocity": 99, "channel": 0}, {"type": "note_on", "time": 3, "note": 63, "velocity": 104, "channel": 0}, {"type": "note_off", "time": 101, "note": 63, "velocity": 104, "channel": 0}, {"type": "note_on", "time": 2, "note": 62, "velocity": 98, "channel": 0}, {"type": "note_off", "time": 79, "note": 62, "velocity": 98, "channel": 0}, {"type": "note_on", "time": 2, "note": 60, "velocity": 97, "channel": 0}, {"type": "note_off", "time": 113, "note": 60, "velocity": 97, "channel": 0}, {"type": "note_on", "time": 8, "note": 58, "velocity": 99, "channel": 0}, {"type": "note_off", "time": 77, "note": 58, "velocity": 99, "channel": 0}, {"type": "note_on", "time": 7, "note": 60, "velocity": 98, "channel": 0}, {"type": "note_off", "time": 109, "note": 60, "velocity": 98, "channel": 0}, {"type": "note_on", "time": 4, "note": 65, "velocity": 84, "channel": 0}, {"type": "note_off", "time": 115, "note": 65, "velocity": 84, "channel": 0}, {"type": "note_on", "time": 6, "note": 68, "velocity": 101, "channel": 0}, {"type": "note_off", "time": 90, "note": 68, "velocity": 101, "channel": 0}, {"type": "note_on", "time": 20, "note": 65, "velocity": 96, "channel": 0}, {"type": "note_off", "time": 70, "note": 65, "velocity": 96, "channel": 0}, {"type": "note_on", "time": 5, "note": 62, "velocity": 99, "channel": 0}, {"type": "note_off", "time": 78, "note": 62, "velocity": 99, "channel": 0}, {"type": "note_on", "time": 22, "note": 57, "velocity": 97, "channel": 0}, {"type": "note_off", "time": 101, "note": 57, "velocity": 97, "channel": 0}, {"type": "note_on", "time": 242, "note": 52, "velocity": 82, "channel": 0}, {"type": "note_off", "time": 92, "note": 52, "velocity": 82, "channel": 0}, {"type": "note_on", "time": 32, "note": 55, "velocity": 98, "channel": 0}, {"type": "note_off", "time": 104, "note": 55, "velocity": 98, "channel": 0}, {"type": "note_on", "time": 8, "note": 54, "velocity": 97, "channel": 0}, {"type": "note_off", "time": 106, "note": 54, "velocity": 97, "channel": 0}, {"type": "note_on", "time": 11, "note": 53, "velocity": 97, "channel": 0}, {"type": "note_off", "time": 61, "note": 53, "velocity": 97, "channel": 0}, {"type": "note_on", "time": 6, "note": 52, "velocity": 96, "channel": 0}, {"type": "note_off", "time": 77, "note": 52, "velocity": 96, "channel": 0}, {"type": "note_on", "time": 7, "note": 51, "velocity": 101, "channel": 0}, {"type": "note_off", "time": 91, "note": 51, "velocity": 101, "channel": 0}, {"type": "note_on", "time": 8, "note": 50, "velocity": 97, "channel": 0}, {"type": "note_off", "time": 90, "note": 50, "velocity": 97, "channel": 0}, {"type": "note_on", "time": 7, "note": 48, "velocity": 95, "channel": 0}, {"type": "note_off", "time": 88, "note": 48, "velocity": 95, "channel": 0}, {"type": "note_on", "time": 523, "note": 48, "velocity": 100, "channel": 0}, {"type": "note_off", "time": 64, "note": 48, "velocity": 100, "channel": 0}, {"type": "note_on", "time": 15, "note": 51, "velocity": 109, "channel": 0}, {"type": "note_off", "time": 92, "note": 51, "velocity": 109, "channel": 0}, {"type": "note_on", "time": 14, "note": 49, "velocity": 103, "channel": 0}, {"type": "note_off", "time": 62, "note": 49, "velocity": 103, "channel": 0}, {"type": "note_on", "time": 11, "note": 48, "velocity": 108, "channel": 0}, {"type": "note_off", "time": 58, "note": 48, "velocity": 108, "channel": 0}, {"type": "note_on", "time": 22, "note": 46, "velocity": 105, "channel": 0}, {"type": "note_off", "time": 103, "note": 46, "velocity": 105, "channel": 0}, {"type": "note_on", "time": 3, "note": 48, "velocity": 105, "channel": 0}, {"type": "note_off", "time": 92, "note": 48, "velocity": 105, "channel": 0}, {"type": "note_on", "time": 7, "note": 50, "velocity": 105, "channel": 0}, {"type": "note_off", "time": 81, "note": 50, "velocity": 105, "channel": 0}, {"type": "note_on", "time": 9, "note": 53, "velocity": 104, "channel": 0}, {"type": "note_off", "time": 77, "note": 53, "velocity": 104, "channel": 0}, {"type": "note_on", "time": 0, "note": 49, "velocity": 104, "channel": 0}, {"type": "note_off", "time": 85, "note": 49, "velocity": 104, "channel": 0}, {"type": "note_on", "time": 9, "note": 51, "velocity": 108, "channel": 0}, {"type": "note_off", "time": 105, "note": 51, "velocity": 108, "channel": 0}, {"type": "note_on", "time": 8, "note": 53, "velocity": 102, "channel": 0}, {"type": "note_off", "time": 55, "note": 53, "velocity": 102, "channel": 0}, {"type": "note_on", "time": 6, "note": 55, "velocity": 103, "channel": 0}, {"type": "note_off", "time": 91, "note": 55, "velocity": 103, "channel": 0}, {"type": "note_on", "time": 6, "note": 52, "velocity": 105, "channel": 0}, {"type": "note_off", "time": 101, "note": 52, "velocity": 105, "channel": 0}, {"type": "note_on", "time": 5, "note": 54, "velocity": 101, "channel": 0}, {"type": "note_off", "time": 86, "note": 54, "velocity": 101, "channel": 0}, {"type": "note_on", "time": 11, "note": 55, "velocity": 104, "channel": 0}, {"type": "note_off", "time": 89, "note": 55, "velocity": 104, "channel": 0}, {"type": "note_on", "time": 4, "note": 57, "velocity": 99, "channel": 0}, {"type": "note_off", "time": 85, "note": 57, "velocity": 99, "channel": 0}, {"type": "note_on", "time": 13, "note": 51, "velocity": 106, "channel": 0}, {"type": "note_off", "time": 71, "note": 51, "velocity": 106, "channel": 0}, {"type": "note_on", "time": 9, "note": 53, "velocity": 103, "channel": 0}, {"type": "note_off", "time": 120, "note": 53, "velocity": 103, "channel": 0}, {"type": "note_on", "time": 9, "note": 55, "velocity": 96, "channel": 0}, {"type": "note_off", "time": 64, "note": 55, "velocity": 96, "channel": 0}, {"type": "note_on", "time": 7, "note": 57, "velocity": 102, "channel": 0}, {"type": "note_off", "time": 90, "note": 57, "velocity": 102, "channel": 0}, {"type": "note_on", "time": 6, "note": 58, "velocity": 96, "channel": 0}, {"type": "note_off", "time": 79, "note": 58, "velocity": 96, "channel": 0}, {"type": "note_on", "time": 9, "note": 60, "velocity": 101, "channel": 0}, {"type": "note_off", "time": 63, "note": 60, "velocity": 101, "channel": 0}, {"type": "note_on", "time": 4, "note": 62, "velocity": 100, "channel": 0}, {"type": "note_off", "time": 88, "note": 62, "velocity": 100, "channel": 0}, {"type": "note_on", "time": 10, "note": 65, "velocity": 96, "channel": 0}, {"type": "note_off", "time": 64, "note": 65, "velocity": 96, "channel": 0}, {"type": "note_on", "time": 2, "note": 59, "velocity": 99, "channel": 0}, {"type": "note_off", "time": 92, "note": 59, "velocity": 99, "channel": 0}, {"type": "note_on", "time": 11, "note": 61, "velocity": 102, "channel": 0}, {"type": "note_off", "time": 103, "note": 61, "velocity": 102, "channel": 0}, {"type": "note_on", "time": 4, "note": 63, "velocity": 103, "channel": 0}, {"type": "note_off", "time": 63, "note": 63, "velocity": 103, "channel": 0}, {"type": "note_on", "time": 4, "note": 65, "velocity": 101, "channel": 0}, {"type": "note_off", "time": 77, "note": 65, "velocity": 101, "channel": 0}, {"type": "note_on", "time": 7, "note": 66, "velocity": 106, "channel": 0}, {"type": "note_off", "time": 94, "note": 66, "velocity": 106, "channel": 0}, {"type": "note_on", "time": 2, "note": 68, "velocity": 109, "channel": 0}, {"type": "note_off", "time": 86, "note": 68, "velocity": 109, "channel": 0}, {"type": "note_on", "time": 7, "note": 70, "velocity": 107, "channel": 0}, {"type": "note_off", "time": 112, "note": 70, "velocity": 107, "channel": 0}, {"type": "note_on", "time": 1, "note": 73, "velocity": 108, "channel": 0}, {"type": "note_off", "time": 77, "note": 73, "velocity": 108, "channel": 0}, {"type": "note_on", "time": 4, "note": 69, "velocity": 110, "channel": 0}, {"type": "note_off", "time": 96, "note": 69, "velocity": 110, "channel": 0}, {"type": "note_on", "time": 3, "note": 67, "velocity": 103, "channel": 0}, {"type": "note_off", "time": 116, "note": 67, "velocity": 103, "channel": 0}, {"type": "note_on", "time": 4, "note": 66, "velocity": 105, "channel": 0}, {"type": "note_off", "time": 96, "note": 66, "velocity": 105, "channel": 0}, {"type": "note_on", "time": 6, "note": 64, "velocity": 108, "channel": 0}, {"type": "note_off", "time": 81, "note": 64, "velocity": 108, "channel": 0}, {"type": "note_on", "time": 6, "note": 62, "velocity": 103, "channel": 0}, {"type": "note_off", "time": 64, "note": 62, "velocity": 103, "channel": 0}, {"type": "note_on", "time": 4, "note": 64, "velocity": 106, "channel": 0}, {"type": "note_off", "time": 113, "note": 64, "velocity": 106, "channel": 0}, {"type": "note_on", "time": 6, "note": 66, "velocity": 102, "channel": 0}, {"type": "note_off", "time": 98, "note": 66, "velocity": 102, "channel": 0}, {"type": "note_on", "time": 5, "note": 69, "velocity": 101, "channel": 0}, {"type": "note_off", "time": 49, "note": 69, "velocity": 101, "channel": 0}, {"type": "note_on", "time": 8, "note": 74, "velocity": 103, "channel": 0}, {"type": "note_off", "time": 99, "note": 74, "velocity": 103, "channel": 0}, {"type": "note_on", "time": 12, "note": 69, "velocity": 98, "channel": 0}, {"type": "note_off", "time": 97, "note": 69, "velocity": 98, "channel": 0}, {"type": "note_on", "time": 365, "note": 67, "velocity": 107, "channel": 0}, {"type": "note_off", "time": 99, "note": 67, "velocity": 107, "channel": 0}, {"type": "note_on", "time": 5, "note": 65, "velocity": 104, "channel": 0}, {"type": "note_off", "time": 86, "note": 65, "velocity": 104, "channel": 0}, {"type": "note_on", "time": 9, "note": 61, "velocity": 102, "channel": 0}, {"type": "note_off", "time": 97, "note": 61, "velocity": 102, "channel": 0}, {"type": "note_on", "time": 5, "note": 63, "velocity": 105, "channel": 0}, {"type": "note_off", "time": 94, "note": 63, "velocity": 105, "channel": 0}, {"type": "note_on", "time": 10, "note": 65, "velocity": 92, "channel": 0}, {"type": "note_off", "time": 45, "note": 65, "velocity": 92, "channel": 0}, {"type": "note_on", "time": 14, "note": 67, "velocity": 95, "channel": 0}, {"type": "note_off", "time": 75, "note": 67, "velocity": 95, "channel": 0}, {"type": "note_on", "time": 10, "note": 69, "velocity": 112, "channel": 0}, {"type": "note_off", "time": 74, "note": 69, "velocity": 112, "channel": 0}, {"type": "note_on", "time": 6, "note": 68, "velocity": 106, "channel": 0}, {"type": "note_off", "time": 88, "note": 68, "velocity": 106, "channel": 0}, {"type": "note_on", "time": 3, "note": 63, "velocity": 108, "channel": 0}, {"type": "note_off", "time": 90, "note": 63, "velocity": 108, "channel": 0}, {"type": "note_on", "time": 7, "note": 60, "velocity": 100, "channel": 0}, {"type": "note_off", "time": 131, "note": 60, "velocity": 100, "channel": 0}, {"type": "note_on", "time": 1, "note": 59, "velocity": 101, "channel": 0}, {"type": "note_off", "time": 59, "note": 59, "velocity": 101, "channel": 0}, {"type": "note_on", "time": 9, "note": 61, "velocity": 100, "channel": 0}, {"type": "note_off", "time": 99, "note": 61, "velocity": 100, "channel": 0}, {"type": "note_on", "time": 3, "note": 63, "velocity": 106, "channel": 0}, {"type": "note_off", "time": 95, "note": 63, "velocity": 106, "channel": 0}, {"type": "note_on", "time": 11, "note": 66, "velocity": 103, "channel": 0}, {"type": "note_off", "time": 76, "note": 66, "velocity": 103, "channel": 0}, {"type": "note_on", "time": 3, "note": 64, "velocity": 109, "channel": 0}, {"type": "note_off", "time": 113, "note": 64, "velocity": 109, "channel": 0}, {"type": "note_on", "time": 2, "note": 66, "velocity": 102, "channel": 0}, {"type": "note_off", "time": 117, "note": 66, "velocity": 102, "channel": 0}, {"type": "note_on", "time": 9, "note": 68, "velocity": 102, "channel": 0}, {"type": "note_off", "time": 66, "note": 68, "velocity": 102, "channel": 0}, {"type": "note_on", "time": 4, "note": 71, "velocity": 106, "channel": 0}, {"type": "note_off", "time": 86, "note": 71, "velocity": 106, "channel": 0}, {"type": "note_on", "time": 3, "note": 67, "velocity": 99, "channel": 0}, {"type": "note_off", "time": 96, "note": 67, "velocity": 99, "channel": 0}, {"type": "note_on", "time": 8, "note": 64, "velocity": 107, "channel": 0}, {"type": "note_off", "time": 147, "note": 64, "velocity": 107, "channel": 0}, {"type": "note_on", "time": 5, "note": 62, "velocity": 102, "channel": 0}, {"type": "note_off", "time": 125, "note": 62, "velocity": 102, "channel": 0}, {"type": "note_on", "time": 5, "note": 60, "velocity": 98, "channel": 0}, {"type": "note_off", "time": 57, "note": 60, "velocity": 98, "channel": 0}, {"type": "note_on", "time": 14, "note": 62, "velocity": 96, "channel": 0}, {"type": "note_off", "time": 132, "note": 62, "velocity": 96, "channel": 0}, {"type": "note_on", "time": 2, "note": 64, "velocity": 97, "channel": 0}, {"type": "note_off", "time": 40, "note": 64, "velocity": 97, "channel": 0}, {"type": "note_on", "time": 12, "note": 67, "velocity": 100, "channel": 0}, {"type": "note_on", "time": 80, "note": 72, "velocity": 111, "channel": 0}, {"type": "note_off", "time": 0, "note": 67, "velocity": 100, "channel": 0}, {"type": "note_off", "time": 52, "note": 72, "velocity": 111, "channel": 0}, {"type": "note_on", "time": 7, "note": 71, "velocity": 100, "channel": 0}, {"type": "note_off", "time": 34, "note": 71, "velocity": 100, "channel": 0}, {"type": "note_on", "time": 0, "note": 60, "velocity": 105, "channel": 0}, {"type": "note_off", "time": 133, "note": 60, "velocity": 105, "channel": 0}, {"type": "note_on", "time": 323, "note": 67, "velocity": 104, "channel": 0}, {"type": "note_off", "time": 98, "note": 67, "velocity": 104, "channel": 0}, {"type": "note_on", "time": 8, "note": 65, "velocity": 104, "channel": 0}, {"type": "note_off", "time": 52, "note": 65, "velocity": 104, "channel": 0}, {"type": "note_on", "time": 4, "note": 63, "velocity": 106, "channel": 0}, {"type": "note_off", "time": 94, "note": 63, "velocity": 106, "channel": 0}, {"type": "note_on", "time": 2, "note": 59, "velocity": 96, "channel": 0}, {"type": "note_off", "time": 82, "note": 59, "velocity": 96, "channel": 0}, {"type": "note_on", "time": 4, "note": 56, "velocity": 95, "channel": 0}, {"type": "note_off", "time": 107, "note": 56, "velocity": 95, "channel": 0}, {"type": "note_on", "time": 19, "note": 61, "velocity": 96, "channel": 0}, {"type": "note_off", "time": 98, "note": 61, "velocity": 96, "channel": 0}, {"type": "note_on", "time": 5, "note": 58, "velocity": 96, "channel": 0}, {"type": "note_off", "time": 62, "note": 58, "velocity": 96, "channel": 0}, {"type": "note_on", "time": 9, "note": 61, "velocity": 100, "channel": 0}, {"type": "note_off", "time": 102, "note": 61, "velocity": 100, "channel": 0}, {"type": "note_on", "time": 17, "note": 65, "velocity": 99, "channel": 0}, {"type": "note_off", "time": 59, "note": 65, "velocity": 99, "channel": 0}, {"type": "note_on", "time": 2, "note": 67, "velocity": 101, "channel": 0}, {"type": "note_off", "time": 37, "note": 67, "velocity": 101, "channel": 0}, {"type": "note_on", "time": 4, "note": 70, "velocity": 106, "channel": 0}, {"type": "note_off", "time": 104, "note": 70, "velocity": 106, "channel": 0}, {"type": "note_on", "time": 2, "note": 69, "velocity": 108, "channel": 0}, {"type": "note_off", "time": 55, "note": 69, "velocity": 108, "channel": 0}, {"type": "note_on", "time": 6, "note": 68, "velocity": 104, "channel": 0}, {"type": "note_off", "time": 99, "note": 68, "velocity": 104, "channel": 0}, {"type": "note_on", "time": 2, "note": 67, "velocity": 98, "channel": 0}, {"type": "note_off", "time": 116, "note": 67, "velocity": 98, "channel": 0}, {"type": "note_on", "time": 3, "note": 71, "velocity": 106, "channel": 0}, {"type": "note_off", "time": 79, "note": 71, "velocity": 106, "channel": 0}, {"type": "note_on", "time": 2, "note": 69, "velocity": 106, "channel": 0}, {"type": "note_off", "time": 76, "note": 69, "velocity": 106, "channel": 0}, {"type": "note_on", "time": 3, "note": 66, "velocity": 98, "channel": 0}, {"type": "note_off", "time": 78, "note": 66, "velocity": 98, "channel": 0}, {"type": "note_on", "time": 1, "note": 64, "velocity": 96, "channel": 0}, {"type": "note_off", "time": 110, "note": 64, "velocity": 96, "channel": 0}, {"type": "note_on", "time": 4, "note": 62, "velocity": 94, "channel": 0}, {"type": "note_off", "time": 67, "note": 62, "velocity": 94, "channel": 0}, {"type": "note_on", "time": 2, "note": 65, "velocity": 94, "channel": 0}, {"type": "note_off", "time": 115, "note": 65, "velocity": 94, "channel": 0}, {"type": "note_on", "time": 60, "note": 69, "velocity": 103, "channel": 0}, {"type": "note_off", "time": 119, "note": 69, "velocity": 103, "channel": 0}, {"type": "note_on", "time": 7, "note": 67, "velocity": 101, "channel": 0}, {"type": "note_off", "time": 88, "note": 67, "velocity": 101, "channel": 0}, {"type": "note_on", "time": 2, "note": 65, "velocity": 99, "channel": 0}, {"type": "note_off", "time": 65, "note": 65, "velocity": 99, "channel": 0}, {"type": "note_on", "time": 3, "note": 63, "velocity": 108, "channel": 0}, {"type": "note_off", "time": 99, "note": 63, "velocity": 108, "channel": 0}, {"type": "note_on", "time": 3, "note": 62, "velocity": 101, "channel": 0}, {"type": "note_off", "time": 71, "note": 62, "velocity": 101, "channel": 0}, {"type": "note_on", "time": 6, "note": 60, "velocity": 99, "channel": 0}, {"type": "note_off", "time": 70, "note": 60, "velocity": 99, "channel": 0}, {"type": "note_on", "time": 23, "note": 55, "velocity": 108, "channel": 0}, {"type": "note_off", "time": 67, "note": 55, "velocity": 108, "channel": 0}, {"type": "note_on", "time": 4, "note": 58, "velocity": 96, "channel": 0}, {"type": "note_off", "time": 49, "note": 58, "velocity": 96, "channel": 0}, {"type": "note_on", "time": 7, "note": 60, "velocity": 99, "channel": 0}, {"type": "note_off", "time": 73, "note": 60, "velocity": 99, "channel": 0}, {"type": "note_on", "time": 12, "note": 63, "velocity": 94, "channel": 0}, {"type": "note_off", "time": 51, "note": 63, "velocity": 94, "channel": 0}, {"type": "note_on", "time": 15, "note": 65, "velocity": 95, "channel": 0}, {"type": "note_off", "time": 51, "note": 65, "velocity": 95, "channel": 0}, {"type": "note_on", "time": 18, "note": 68, "velocity": 106, "channel": 0}, {"type": "note_off", "time": 41, "note": 68, "velocity": 106, "channel": 0}, {"type": "note_on", "time": 13, "note": 70, "velocity": 103, "channel": 0}, {"type": "note_off", "time": 25, "note": 70, "velocity": 103, "channel": 0}, {"type": "note_on", "time": 6, "note": 72, "velocity": 113, "channel": 0}, {"type": "note_off", "time": 307, "note": 72, "velocity": 113, "channel": 0}, {"type": "note_on", "time": 4, "note": 69, "velocity": 111, "channel": 0}, {"type": "note_off", "time": 84, "note": 69, "velocity": 111, "channel": 0}, {"type": "note_on", "time": 6, "note": 72, "velocity": 112, "channel": 0}, {"type": "note_off", "time": 288, "note": 72, "velocity": 112, "channel": 0}, {"type": "note_on", "time": 6, "note": 69, "velocity": 109, "channel": 0}, {"type": "note_off", "time": 218, "note": 69, "velocity": 109, "channel": 0}, {"type": "note_on", "time": 6, "note": 67, "velocity": 100, "channel": 0}, {"type": "note_off", "time": 50, "note": 67, "velocity": 100, "channel": 0}, {"type": "note_on", "time": 6, "note": 69, "velocity": 104, "channel": 0}, {"type": "note_off", "time": 53, "note": 69, "velocity": 104, "channel": 0}, {"type": "note_on", "time": 4, "note": 67, "velocity": 103, "channel": 0}, {"type": "note_off", "time": 74, "note": 67, "velocity": 103, "channel": 0}, {"type": "note_on", "time": 6, "note": 65, "velocity": 101, "channel": 0}, {"type": "note_off", "time": 60, "note": 65, "velocity": 101, "channel": 0}, {"type": "note_on", "time": 5, "note": 64, "velocity": 105, "channel": 0}, {"type": "note_off", "time": 89, "note": 64, "velocity": 105, "channel": 0}, {"type": "note_on", "time": 5, "note": 63, "velocity": 108, "channel": 0}, {"type": "note_off", "time": 102, "note": 63, "velocity": 108, "channel": 0}, {"type": "note_on", "time": 6, "note": 65, "velocity": 101, "channel": 0}, {"type": "note_off", "time": 106, "note": 65, "velocity": 101, "channel": 0}, {"type": "note_on", "time": 4, "note": 62, "velocity": 103, "channel": 0}, {"type": "note_off", "time": 77, "note": 62, "velocity": 103, "channel": 0}, {"type": "note_on", "time": 2, "note": 65, "velocity": 98, "channel": 0}, {"type": "note_off", "time": 90, "note": 65, "velocity": 98, "channel": 0}, {"type": "note_on", "time": 38, "note": 67, "velocity": 99, "channel": 0}, {"type": "note_off", "time": 67, "note": 67, "velocity": 99, "channel": 0}, {"type": "note_on", "time": 9, "note": 69, "velocity": 109, "channel": 0}, {"type": "note_off", "time": 50, "note": 69, "velocity": 109, "channel": 0}, {"type": "note_on", "time": 12, "note": 72, "velocity": 115, "channel": 0}, {"type": "note_off", "time": 102, "note": 72, "velocity": 115, "channel": 0}, {"type": "note_on", "time": 8, "note": 70, "velocity": 110, "channel": 0}, {"type": "note_off", "time": 113, "note": 70, "velocity": 110, "channel": 0}, {"type": "note_on", "time": 487, "note": 69, "velocity": 103, "channel": 0}, {"type": "note_off", "time": 343, "note": 69, "velocity": 103, "channel": 0}, {"type": "note_on", "time": 38, "note": 63, "velocity": 100, "channel": 0}, {"type": "note_off", "time": 68, "note": 63, "velocity": 100, "channel": 0}, {"type": "note_on", "time": 7, "note": 64, "velocity": 98, "channel": 0}, {"type": "note_off", "time": 82, "note": 64, "velocity": 98, "channel": 0}, {"type": "note_on", "time": 15, "note": 66, "velocity": 100, "channel": 0}, {"type": "note_off", "time": 52, "note": 66, "velocity": 100, "channel": 0}, {"type": "note_on", "time": 8, "note": 67, "velocity": 103, "channel": 0}, {"type": "note_off", "time": 109, "note": 67, "velocity": 103, "channel": 0}, {"type": "note_on", "time": 11, "note": 69, "velocity": 103, "channel": 0}, {"type": "note_off", "time": 104, "note": 69, "velocity": 103, "channel": 0}, {"type": "note_on", "time": 3, "note": 63, "velocity": 108, "channel": 0}, {"type": "note_off", "time": 79, "note": 63, "velocity": 108, "channel": 0}, {"type": "note_on", "time": 3, "note": 65, "velocity": 99, "channel": 0}, {"type": "note_off", "time": 90, "note": 65, "velocity": 99, "channel": 0}, {"type": "note_on", "time": 5, "note": 67, "velocity": 101, "channel": 0}, {"type": "note_off", "time": 92, "note": 67, "velocity": 101, "channel": 0}, {"type": "note_on", "time": 12, "note": 69, "velocity": 99, "channel": 0}, {"type": "note_off", "time": 74, "note": 69, "velocity": 99, "channel": 0}, {"type": "note_on", "time": 7, "note": 70, "velocity": 105, "channel": 0}, {"type": "note_off", "time": 110, "note": 70, "velocity": 105, "channel": 0}, {"type": "note_on", "time": 7, "note": 65, "velocity": 99, "channel": 0}, {"type": "note_off", "time": 88, "note": 65, "velocity": 99, "channel": 0}, {"type": "note_on", "time": 6, "note": 62, "velocity": 92, "channel": 0}, {"type": "note_off", "time": 100, "note": 62, "velocity": 92, "channel": 0}, {"type": "note_on", "time": 34, "note": 54, "velocity": 103, "channel": 0}, {"type": "note_off", "time": 44, "note": 54, "velocity": 103, "channel": 0}, {"type": "note_on", "time": 7, "note": 56, "velocity": 101, "channel": 0}, {"type": "note_off", "time": 49, "note": 56, "velocity": 101, "channel": 0}, {"type": "note_on", "time": 14, "note": 63, "velocity": 100, "channel": 0}, {"type": "note_off", "time": 134, "note": 63, "velocity": 100, "channel": 0}, {"type": "note_on", "time": 1, "note": 59, "velocity": 88, "channel": 0}, {"type": "note_off", "time": 75, "note": 59, "velocity": 88, "channel": 0}, {"type": "note_on", "time": 3, "note": 66, "velocity": 83, "channel": 0}, {"type": "note_off", "time": 59, "note": 66, "velocity": 83, "channel": 0}, {"type": "note_on", "time": 12, "note": 61, "velocity": 96, "channel": 0}, {"type": "note_off", "time": 54, "note": 61, "velocity": 96, "channel": 0}, {"type": "note_on", "time": 4, "note": 58, "velocity": 90, "channel": 0}, {"type": "note_off", "time": 144, "note": 58, "velocity": 90, "channel": 0}, {"type": "note_on", "time": 240, "note": 69, "velocity": 104, "channel": 0}, {"type": "note_off", "time": 100, "note": 69, "velocity": 104, "channel": 0}, {"type": "note_on", "time": 5, "note": 68, "velocity": 103, "channel": 0}, {"type": "note_off", "time": 75, "note": 68, "velocity": 103, "channel": 0}, {"type": "note_on", "time": 13, "note": 67, "velocity": 100, "channel": 0}, {"type": "note_off", "time": 51, "note": 67, "velocity": 100, "channel": 0}, {"type": "note_on", "time": 12, "note": 67, "velocity": 100, "channel": 0}, {"type": "note_off", "time": 51, "note": 67, "velocity": 100, "channel": 0}, {"type": "note_on", "time": 10, "note": 71, "velocity": 107, "channel": 0}, {"type": "note_off", "time": 72, "note": 71, "velocity": 107, "channel": 0}, {"type": "note_on", "time": 2, "note": 69, "velocity": 105, "channel": 0}, {"type": "note_off", "time": 68, "note": 69, "velocity": 105, "channel": 0}, {"type": "note_on", "time": 5, "note": 66, "velocity": 101, "channel": 0}, {"type": "note_off", "time": 115, "note": 66, "velocity": 101, "channel": 0}, {"type": "note_on", "time": 4, "note": 64, "velocity": 97, "channel": 0}, {"type": "note_off", "time": 39, "note": 64, "velocity": 97, "channel": 0}, {"type": "note_on", "time": 10, "note": 62, "velocity": 94, "channel": 0}, {"type": "note_off", "time": 79, "note": 62, "velocity": 94, "channel": 0}, {"type": "note_on", "time": 6, "note": 66, "velocity": 94, "channel": 0}, {"type": "note_off", "time": 83, "note": 66, "velocity": 94, "channel": 0}, {"type": "note_on", "time": 5, "note": 67, "velocity": 95, "channel": 0}, {"type": "note_off", "time": 84, "note": 67, "velocity": 95, "channel": 0}, {"type": "note_on", "time": 10, "note": 69, "velocity": 95, "channel": 0}, {"type": "note_off", "time": 60, "note": 69, "velocity": 95, "channel": 0}, {"type": "note_on", "time": 1, "note": 71, "velocity": 105, "channel": 0}, {"type": "note_off", "time": 67, "note": 71, "velocity": 105, "channel": 0}, {"type": "note_on", "time": 26, "note": 57, "velocity": 99, "channel": 0}, {"type": "note_off", "time": 69, "note": 57, "velocity": 99, "channel": 0}, {"type": "note_on", "time": 0, "note": 64, "velocity": 102, "channel": 0}, {"type": "note_off", "time": 129, "note": 64, "velocity": 102, "channel": 0}, {"type": "note_on", "time": 43, "note": 67, "velocity": 91, "channel": 0}, {"type": "note_off", "time": 52, "note": 67, "velocity": 91, "channel": 0}, {"type": "note_on", "time": 16, "note": 67, "velocity": 102, "channel": 0}, {"type": "note_off", "time": 60, "note": 67, "velocity": 102, "channel": 0}, {"type": "note_on", "time": 6, "note": 61, "velocity": 96, "channel": 0}, {"type": "note_off", "time": 91, "note": 61, "velocity": 96, "channel": 0}, {"type": "note_on", "time": 9, "note": 63, "velocity": 102, "channel": 0}, {"type": "note_off", "time": 115, "note": 63, "velocity": 102, "channel": 0}, {"type": "note_on", "time": 10, "note": 65, "velocity": 93, "channel": 0}, {"type": "note_off", "time": 37, "note": 65, "velocity": 93, "channel": 0}, {"type": "note_on", "time": 5, "note": 67, "velocity": 95, "channel": 0}, {"type": "note_off", "time": 52, "note": 67, "velocity": 95, "channel": 0}, {"type": "note_on", "time": 3, "note": 69, "velocity": 107, "channel": 0}, {"type": "note_off", "time": 79, "note": 69, "velocity": 107, "channel": 0}, {"type": "note_on", "time": 0, "note": 67, "velocity": 101, "channel": 0}, {"type": "note_off", "time": 101, "note": 67, "velocity": 101, "channel": 0}, {"type": "note_on", "time": 2, "note": 63, "velocity": 103, "channel": 0}, {"type": "note_off", "time": 81, "note": 63, "velocity": 103, "channel": 0}, {"type": "note_on", "time": 11, "note": 60, "velocity": 98, "channel": 0}, {"type": "note_off", "time": 103, "note": 60, "velocity": 98, "channel": 0}, {"type": "note_on", "time": 24, "note": 61, "velocity": 96, "channel": 0}, {"type": "note_off", "time": 113, "note": 61, "velocity": 96, "channel": 0}, {"type": "note_on", "time": 8, "note": 62, "velocity": 102, "channel": 0}, {"type": "note_off", "time": 79, "note": 62, "velocity": 102, "channel": 0}, {"type": "note_on", "time": 7, "note": 63, "velocity": 102, "channel": 0}, {"type": "note_off", "time": 60, "note": 63, "velocity": 102, "channel": 0}, {"type": "note_on", "time": 9, "note": 66, "velocity": 104, "channel": 0}, {"type": "note_off", "time": 108, "note": 66, "velocity": 104, "channel": 0}, {"type": "note_on", "time": 7, "note": 63, "velocity": 107, "channel": 0}, {"type": "note_off", "time": 82, "note": 63, "velocity": 107, "channel": 0}, {"type": "note_on", "time": 5, "note": 66, "velocity": 101, "channel": 0}, {"type": "note_off", "time": 140, "note": 66, "velocity": 101, "channel": 0}, {"type": "note_on", "time": 3, "note": 68, "velocity": 96, "channel": 0}, {"type": "note_off", "time": 43, "note": 68, "velocity": 96, "channel": 0}, {"type": "note_on", "time": 8, "note": 71, "velocity": 109, "channel": 0}, {"type": "note_off", "time": 96, "note": 71, "velocity": 109, "channel": 0}, {"type": "note_on", "time": 5, "note": 67, "velocity": 100, "channel": 0}, {"type": "note_off", "time": 93, "note": 67, "velocity": 100, "channel": 0}, {"type": "note_on", "time": 26, "note": 65, "velocity": 98, "channel": 0}, {"type": "note_off", "time": 48, "note": 65, "velocity": 98, "channel": 0}, {"type": "note_on", "time": 23, "note": 64, "velocity": 102, "channel": 0}, {"type": "note_off", "time": 43, "note": 64, "velocity": 102, "channel": 0}, {"type": "note_on", "time": 15, "note": 62, "velocity": 104, "channel": 0}, {"type": "note_off", "time": 119, "note": 62, "velocity": 104, "channel": 0}, {"type": "note_on", "time": 7, "note": 60, "velocity": 99, "channel": 0}, {"type": "note_off", "time": 118, "note": 60, "velocity": 99, "channel": 0}, {"type": "note_on", "time": 810, "note": 67, "velocity": 108, "channel": 0}, {"type": "note_off", "time": 90, "note": 67, "velocity": 108, "channel": 0}, {"type": "note_on", "time": 9, "note": 65, "velocity": 104, "channel": 0}, {"type": "note_off", "time": 60, "note": 65, "velocity": 104, "channel": 0}, {"type": "note_on", "time": 3, "note": 63, "velocity": 109, "channel": 0}, {"type": "note_off", "time": 82, "note": 63, "velocity": 109, "channel": 0}, {"type": "note_on", "time": 14, "note": 59, "velocity": 97, "channel": 0}, {"type": "note_off", "time": 65, "note": 59, "velocity": 97, "channel": 0}, {"type": "note_on", "time": 21, "note": 56, "velocity": 106, "channel": 0}, {"type": "note_off", "time": 125, "note": 56, "velocity": 106, "channel": 0}, {"type": "note_on", "time": 5, "note": 61, "velocity": 99, "channel": 0}, {"type": "note_off", "time": 74, "note": 61, "velocity": 99, "channel": 0}, {"type": "note_on", "time": 8, "note": 58, "velocity": 100, "channel": 0}, {"type": "note_off", "time": 91, "note": 58, "velocity": 100, "channel": 0}, {"type": "note_on", "time": 17, "note": 54, "velocity": 93, "channel": 0}, {"type": "note_off", "time": 115, "note": 54, "velocity": 93, "channel": 0}, {"type": "note_on", "time": 17, "note": 58, "velocity": 101, "channel": 0}, {"type": "note_off", "time": 102, "note": 58, "velocity": 101, "channel": 0}, {"type": "note_on", "time": 10, "note": 57, "velocity": 103, "channel": 0}, {"type": "note_off", "time": 79, "note": 57, "velocity": 103, "channel": 0}, {"type": "note_on", "time": 10, "note": 56, "velocity": 105, "channel": 0}, {"type": "note_off", "time": 70, "note": 56, "velocity": 105, "channel": 0}, {"type": "note_on", "time": 7, "note": 55, "velocity": 101, "channel": 0}, {"type": "note_off", "time": 70, "note": 55, "velocity": 101, "channel": 0}, {"type": "note_on", "time": 44, "note": 59, "velocity": 98, "channel": 0}, {"type": "note_off", "time": 75, "note": 59, "velocity": 98, "channel": 0}, {"type": "note_on", "time": 0, "note": 58, "velocity": 98, "channel": 0}, {"type": "note_off", "time": 59, "note": 58, "velocity": 98, "channel": 0}, {"type": "note_on", "time": 12, "note": 54, "velocity": 103, "channel": 0}, {"type": "note_off", "time": 140, "note": 54, "velocity": 103, "channel": 0}, {"type": "note_on", "time": 26, "note": 52, "velocity": 96, "channel": 0}, {"type": "note_off", "time": 53, "note": 52, "velocity": 96, "channel": 0}, {"type": "note_on", "time": 7, "note": 50, "velocity": 92, "channel": 0}, {"type": "note_off", "time": 57, "note": 50, "velocity": 92, "channel": 0}, {"type": "note_on", "time": 41, "note": 53, "velocity": 103, "channel": 0}, {"type": "note_off", "time": 80, "note": 53, "velocity": 103, "channel": 0}, {"type": "note_on", "time": 18, "note": 55, "velocity": 105, "channel": 0}, {"type": "note_off", "time": 56, "note": 55, "velocity": 105, "channel": 0}, {"type": "note_on", "time": 12, "note": 57, "velocity": 100, "channel": 0}, {"type": "note_off", "time": 38, "note": 57, "velocity": 100, "channel": 0}, {"type": "note_on", "time": 105, "note": 60, "velocity": 100, "channel": 0}, {"type": "note_off", "time": 109, "note": 60, "velocity": 100, "channel": 0}, {"type": "note_on", "time": 6, "note": 58, "velocity": 100, "channel": 0}, {"type": "note_off", "time": 79, "note": 58, "velocity": 100, "channel": 0}, {"type": "note_on", "time": 20, "note": 60, "velocity": 100, "channel": 0}, {"type": "note_off", "time": 66, "note": 60, "velocity": 100, "channel": 0}, {"type": "note_on", "time": 11, "note": 62, "velocity": 98, "channel": 0}, {"type": "note_off", "time": 85, "note": 62, "velocity": 98, "channel": 0}, {"type": "note_on", "time": 4, "note": 66, "velocity": 91, "channel": 0}, {"type": "note_off", "time": 27, "note": 66, "velocity": 91, "channel": 0}, {"type": "note_on", "time": 2, "note": 70, "velocity": 99, "channel": 0}, {"type": "note_off", "time": 117, "note": 70, "velocity": 99, "channel": 0}, {"type": "note_on", "time": 1, "note": 65, "velocity": 97, "channel": 0}, {"type": "note_off", "time": 78, "note": 65, "velocity": 97, "channel": 0}, {"type": "note_on", "time": 3, "note": 62, "velocity": 97, "channel": 0}, {"type": "note_off", "time": 71, "note": 62, "velocity": 97, "channel": 0}, {"type": "note_on", "time": 71, "note": 58, "velocity": 93, "channel": 0}, {"type": "note_off", "time": 43, "note": 58, "velocity": 93, "channel": 0}, {"type": "note_on", "time": 9, "note": 64, "velocity": 109, "channel": 0}, {"type": "note_off", "time": 226, "note": 64, "velocity": 109, "channel": 0}, {"type": "note_on", "time": 0, "note": 66, "velocity": 103, "channel": 0}, {"type": "note_off", "time": 77, "note": 66, "velocity": 103, "channel": 0}, {"type": "note_on", "time": 9, "note": 67, "velocity": 106, "channel": 0}, {"type": "note_off", "time": 208, "note": 67, "velocity": 106, "channel": 0}, {"type": "note_on", "time": 272, "note": 67, "velocity": 110, "channel": 0}, {"type": "note_off", "time": 91, "note": 67, "velocity": 110, "channel": 0}, {"type": "note_on", "time": 13, "note": 72, "velocity": 109, "channel": 0}, {"type": "note_off", "time": 70, "note": 72, "velocity": 109, "channel": 0}, {"type": "note_on", "time": 13, "note": 69, "velocity": 105, "channel": 0}, {"type": "note_off", "time": 81, "note": 69, "velocity": 105, "channel": 0}, {"type": "note_on", "time": 6, "note": 67, "velocity": 103, "channel": 0}, {"type": "note_off", "time": 98, "note": 67, "velocity": 103, "channel": 0}, {"type": "note_on", "time": 4, "note": 65, "velocity": 100, "channel": 0}, {"type": "note_off", "time": 62, "note": 65, "velocity": 100, "channel": 0}, {"type": "note_on", "time": 6, "note": 64, "velocity": 107, "channel": 0}, {"type": "note_off", "time": 89, "note": 64, "velocity": 107, "channel": 0}, {"type": "note_on", "time": 4, "note": 63, "velocity": 106, "channel": 0}, {"type": "note_off", "time": 70, "note": 63, "velocity": 106, "channel": 0}, {"type": "note_on", "time": 14, "note": 65, "velocity": 101, "channel": 0}, {"type": "note_off", "time": 64, "note": 65, "velocity": 101, "channel": 0}, {"type": "note_on", "time": 2, "note": 62, "velocity": 105, "channel": 0}, {"type": "note_off", "time": 127, "note": 62, "velocity": 105, "channel": 0}, {"type": "note_on", "time": 15, "note": 65, "velocity": 95, "channel": 0}, {"type": "note_off", "time": 36, "note": 65, "velocity": 95, "channel": 0}, {"type": "note_on", "time": 15, "note": 67, "velocity": 96, "channel": 0}, {"type": "note_off", "time": 113, "note": 67, "velocity": 96, "channel": 0}, {"type": "note_on", "time": 7, "note": 69, "velocity": 99, "channel": 0}, {"type": "note_off", "time": 18, "note": 69, "velocity": 99, "channel": 0}, {"type": "note_on", "time": 12, "note": 72, "velocity": 102, "channel": 0}, {"type": "note_off", "time": 85, "note": 72, "velocity": 102, "channel": 0}, {"type": "note_on", "time": 11, "note": 70, "velocity": 104, "channel": 0}, {"type": "note_off", "time": 85, "note": 70, "velocity": 104, "channel": 0}, {"type": "note_on", "time": 11, "note": 69, "velocity": 98, "channel": 0}, {"type": "note_off", "time": 96, "note": 69, "velocity": 98, "channel": 0}, {"type": "note_on", "time": 7, "note": 72, "velocity": 102, "channel": 0}, {"type": "note_off", "time": 112, "note": 72, "velocity": 102, "channel": 0}, {"type": "note_on", "time": 15, "note": 67, "velocity": 94, "channel": 0}, {"type": "note_off", "time": 41, "note": 67, "velocity": 94, "channel": 0}, {"type": "note_on", "time": 6, "note": 65, "velocity": 99, "channel": 0}, {"type": "note_off", "time": 87, "note": 65, "velocity": 99, "channel": 0}, {"type": "note_on", "time": 3, "note": 61, "velocity": 103, "channel": 0}, {"type": "note_off", "time": 138, "note": 61, "velocity": 103, "channel": 0}, {"type": "note_on", "time": 9, "note": 58, "velocity": 101, "channel": 0}, {"type": "note_off", "time": 52, "note": 58, "velocity": 101, "channel": 0}, {"type": "note_on", "time": 9, "note": 63, "velocity": 107, "channel": 0}, {"type": "note_off", "time": 126, "note": 63, "velocity": 107, "channel": 0}, {"type": "note_on", "time": 361, "note": 51, "velocity": 105, "channel": 0}, {"type": "note_off", "time": 70, "note": 51, "velocity": 105, "channel": 0}, {"type": "note_on", "time": 5, "note": 55, "velocity": 101, "channel": 0}, {"type": "note_off", "time": 63, "note": 55, "velocity": 101, "channel": 0}, {"type": "note_on", "time": 14, "note": 58, "velocity": 97, "channel": 0}, {"type": "note_off", "time": 74, "note": 58, "velocity": 97, "channel": 0}, {"type": "note_on", "time": 22, "note": 51, "velocity": 106, "channel": 0}, {"type": "note_off", "time": 155, "note": 51, "velocity": 106, "channel": 0}, {"type": "note_on", "time": 25, "note": 57, "velocity": 99, "channel": 0}, {"type": "note_off", "time": 70, "note": 57, "velocity": 99, "channel": 0}, {"type": "note_on", "time": 63, "note": 60, "velocity": 103, "channel": 0}, {"type": "note_off", "time": 118, "note": 60, "velocity": 103, "channel": 0}, {"type": "note_on", "time": 3, "note": 58, "velocity": 100, "channel": 0}, {"type": "note_off", "time": 75, "note": 58, "velocity": 100, "channel": 0}, {"type": "note_on", "time": 0, "note": 60, "velocity": 98, "channel": 0}, {"type": "note_off", "time": 46, "note": 60, "velocity": 98, "channel": 0}, {"type": "note_on", "time": 10, "note": 62, "velocity": 104, "channel": 0}, {"type": "note_off", "time": 80, "note": 62, "velocity": 104, "channel": 0}, {"type": "note_on", "time": 14, "note": 65, "velocity": 102, "channel": 0}, {"type": "note_off", "time": 97, "note": 65, "velocity": 102, "channel": 0}, {"type": "note_on", "time": 32, "note": 63, "velocity": 103, "channel": 0}, {"type": "note_off", "time": 62, "note": 63, "velocity": 103, "channel": 0}, {"type": "note_on", "time": 10, "note": 61, "velocity": 102, "channel": 0}, {"type": "note_off", "time": 40, "note": 61, "velocity": 102, "channel": 0}, {"type": "note_on", "time": 11, "note": 56, "velocity": 102, "channel": 0}, {"type": "note_off", "time": 104, "note": 56, "velocity": 102, "channel": 0}, {"type": "note_on", "time": 25, "note": 60, "velocity": 102, "channel": 0}, {"type": "note_off", "time": 61, "note": 60, "velocity": 102, "channel": 0}, {"type": "note_on", "time": 11, "note": 58, "velocity": 97, "channel": 0}, {"type": "note_off", "time": 112, "note": 58, "velocity": 97, "channel": 0}, {"type": "note_on", "time": 127, "note": 55, "velocity": 98, "channel": 0}, {"type": "note_off", "time": 48, "note": 55, "velocity": 98, "channel": 0}, {"type": "note_on", "time": 21, "note": 58, "velocity": 95, "channel": 0}, {"type": "note_off", "time": 69, "note": 58, "velocity": 95, "channel": 0}, {"type": "note_on", "time": 31, "note": 57, "velocity": 102, "channel": 0}, {"type": "note_off", "time": 62, "note": 57, "velocity": 102, "channel": 0}, {"type": "note_on", "time": 4, "note": 56, "velocity": 99, "channel": 0}, {"type": "note_off", "time": 125, "note": 56, "velocity": 99, "channel": 0}, {"type": "note_on", "time": 30, "note": 56, "velocity": 98, "channel": 0}, {"type": "note_off", "time": 68, "note": 56, "velocity": 98, "channel": 0}, {"type": "note_on", "time": 2, "note": 57, "velocity": 93, "channel": 0}, {"type": "note_off", "time": 88, "note": 57, "velocity": 93, "channel": 0}, {"type": "note_on", "time": 58, "note": 61, "velocity": 102, "channel": 0}, {"type": "note_off", "time": 79, "note": 61, "velocity": 102, "channel": 0}, {"type": "note_on", "time": 4, "note": 62, "velocity": 107, "channel": 0}, {"type": "note_off", "time": 31, "note": 62, "velocity": 107, "channel": 0}, {"type": "note_on", "time": 9, "note": 64, "velocity": 111, "channel": 0}, {"type": "note_off", "time": 67, "note": 64, "velocity": 111, "channel": 0}, {"type": "note_on", "time": 6, "note": 63, "velocity": 110, "channel": 0}, {"type": "note_off", "time": 48, "note": 63, "velocity": 110, "channel": 0}, {"type": "note_on", "time": 3, "note": 61, "velocity": 101, "channel": 0}, {"type": "note_off", "time": 50, "note": 61, "velocity": 101, "channel": 0}, {"type": "note_on", "time": 3, "note": 62, "velocity": 106, "channel": 0}, {"type": "note_off", "time": 74, "note": 62, "velocity": 106, "channel": 0}, {"type": "note_on", "time": 6, "note": 64, "velocity": 81, "channel": 0}, {"type": "note_off", "time": 102, "note": 64, "velocity": 81, "channel": 0}, {"type": "note_on", "time": 10, "note": 66, "velocity": 97, "channel": 0}, {"type": "note_off", "time": 55, "note": 66, "velocity": 97, "channel": 0}, {"type": "note_on", "time": 7, "note": 69, "velocity": 103, "channel": 0}, {"type": "note_off", "time": 41, "note": 69, "velocity": 103, "channel": 0}, {"type": "note_on", "time": 13, "note": 68, "velocity": 100, "channel": 0}, {"type": "note_off", "time": 105, "note": 68, "velocity": 100, "channel": 0}, {"type": "note_on", "time": 9, "note": 64, "velocity": 104, "channel": 0}, {"type": "note_off", "time": 85, "note": 64, "velocity": 104, "channel": 0}, {"type": "note_on", "time": 7, "note": 65, "velocity": 99, "channel": 0}, {"type": "note_off", "time": 75, "note": 65, "velocity": 99, "channel": 0}, {"type": "note_on", "time": 10, "note": 67, "velocity": 100, "channel": 0}, {"type": "note_off", "time": 85, "note": 67, "velocity": 100, "channel": 0}, {"type": "note_on", "time": 5, "note": 61, "velocity": 101, "channel": 0}, {"type": "note_off", "time": 85, "note": 61, "velocity": 101, "channel": 0}, {"type": "note_on", "time": 21, "note": 63, "velocity": 99, "channel": 0}, {"type": "note_off", "time": 92, "note": 63, "velocity": 99, "channel": 0}, {"type": "note_on", "time": 36, "note": 65, "velocity": 92, "channel": 0}, {"type": "note_off", "time": 105, "note": 65, "velocity": 92, "channel": 0}, {"type": "note_on", "time": 14, "note": 67, "velocity": 90, "channel": 0}, {"type": "note_off", "time": 38, "note": 67, "velocity": 90, "channel": 0}, {"type": "note_on", "time": 0, "note": 70, "velocity": 106, "channel": 0}, {"type": "note_off", "time": 60, "note": 70, "velocity": 106, "channel": 0}, {"type": "note_on", "time": 7, "note": 67, "velocity": 97, "channel": 0}, {"type": "note_off", "time": 69, "note": 67, "velocity": 97, "channel": 0}, {"type": "note_on", "time": 32, "note": 63, "velocity": 103, "channel": 0}, {"type": "note_off", "time": 72, "note": 63, "velocity": 103, "channel": 0}, {"type": "note_on", "time": 40, "note": 60, "velocity": 101, "channel": 0}, {"type": "note_off", "time": 101, "note": 60, "velocity": 101, "channel": 0}, {"type": "note_on", "time": 18, "note": 59, "velocity": 99, "channel": 0}, {"type": "note_off", "time": 42, "note": 59, "velocity": 99, "channel": 0}, {"type": "note_on", "time": 35, "note": 61, "velocity": 98, "channel": 0}, {"type": "note_off", "time": 101, "note": 61, "velocity": 98, "channel": 0}, {"type": "note_on", "time": 8, "note": 63, "velocity": 98, "channel": 0}, {"type": "note_off", "time": 91, "note": 63, "velocity": 98, "channel": 0}, {"type": "note_on", "time": 5, "note": 66, "velocity": 102, "channel": 0}, {"type": "note_off", "time": 88, "note": 66, "velocity": 102, "channel": 0}, {"type": "note_on", "time": 10, "note": 64, "velocity": 107, "channel": 0}, {"type": "note_off", "time": 78, "note": 64, "velocity": 107, "channel": 0}, {"type": "note_on", "time": 25, "note": 66, "velocity": 97, "channel": 0}, {"type": "note_off", "time": 93, "note": 66, "velocity": 97, "channel": 0}, {"type": "note_on", "time": 16, "note": 68, "velocity": 101, "channel": 0}, {"type": "note_off", "time": 55, "note": 68, "velocity": 101, "channel": 0}, {"type": "note_on", "time": 8, "note": 71, "velocity": 111, "channel": 0}, {"type": "note_off", "time": 98, "note": 71, "velocity": 111, "channel": 0}, {"type": "note_on", "time": 6, "note": 67, "velocity": 103, "channel": 0}, {"type": "note_off", "time": 95, "note": 67, "velocity": 103, "channel": 0}, {"type": "note_on", "time": 7, "note": 65, "velocity": 99, "channel": 0}, {"type": "note_off", "time": 67, "note": 65, "velocity": 99, "channel": 0}, {"type": "note_on", "time": 12, "note": 64, "velocity": 104, "channel": 0}, {"type": "note_off", "time": 79, "note": 64, "velocity": 104, "channel": 0}, {"type": "note_on", "time": 22, "note": 62, "velocity": 102, "channel": 0}, {"type": "note_off", "time": 97, "note": 62, "velocity": 102, "channel": 0}, {"type": "note_on", "time": 10, "note": 60, "velocity": 94, "channel": 0}, {"type": "note_off", "time": 103, "note": 60, "velocity": 94, "channel": 0}, {"type": "note_on", "time": 55, "note": 64, "velocity": 92, "channel": 0}, {"type": "note_off", "time": 77, "note": 64, "velocity": 92, "channel": 0}, {"type": "note_on", "time": 8, "note": 67, "velocity": 91, "channel": 0}, {"type": "note_off", "time": 68, "note": 67, "velocity": 91, "channel": 0}, {"type": "note_on", "time": 7, "note": 72, "velocity": 105, "channel": 0}, {"type": "note_off", "time": 88, "note": 72, "velocity": 105, "channel": 0}, {"type": "note_on", "time": 547, "note": 67, "velocity": 96, "channel": 0}, {"type": "note_off", "time": 95, "note": 67, "velocity": 96, "channel": 0}, {"type": "note_on", "time": 11, "note": 65, "velocity": 98, "channel": 0}, {"type": "note_off", "time": 64, "note": 65, "velocity": 98, "channel": 0}, {"type": "note_on", "time": 8, "note": 63, "velocity": 106, "channel": 0}, {"type": "note_off", "time": 65, "note": 63, "velocity": 106, "channel": 0}, {"type": "note_on", "time": 22, "note": 59, "velocity": 97, "channel": 0}, {"type": "note_off", "time": 81, "note": 59, "velocity": 97, "channel": 0}, {"type": "note_on", "time": 25, "note": 56, "velocity": 97, "channel": 0}, {"type": "note_off", "time": 96, "note": 56, "velocity": 97, "channel": 0}, {"type": "note_on", "time": 0, "note": 61, "velocity": 100, "channel": 0}, {"type": "note_off", "time": 77, "note": 61, "velocity": 100, "channel": 0}, {"type": "note_on", "time": 9, "note": 58, "velocity": 98, "channel": 0}, {"type": "note_off", "time": 99, "note": 58, "velocity": 98, "channel": 0}, {"type": "note_on", "time": 16, "note": 61, "velocity": 96, "channel": 0}, {"type": "note_off", "time": 77, "note": 61, "velocity": 96, "channel": 0}, {"type": "note_on", "time": 18, "note": 70, "velocity": 84, "channel": 0}, {"type": "note_off", "time": 154, "note": 70, "velocity": 84, "channel": 0}, {"type": "note_on", "time": 16, "note": 69, "velocity": 107, "channel": 0}, {"type": "note_off", "time": 82, "note": 69, "velocity": 107, "channel": 0}, {"type": "note_on", "time": 2, "note": 68, "velocity": 104, "channel": 0}, {"type": "note_off", "time": 75, "note": 68, "velocity": 104, "channel": 0}, {"type": "note_on", "time": 9, "note": 67, "velocity": 100, "channel": 0}, {"type": "note_off", "time": 102, "note": 67, "velocity": 100, "channel": 0}, {"type": "note_on", "time": 9, "note": 70, "velocity": 104, "channel": 0}, {"type": "note_off", "time": 66, "note": 70, "velocity": 104, "channel": 0}, {"type": "note_on", "time": 5, "note": 69, "velocity": 105, "channel": 0}, {"type": "note_off", "time": 87, "note": 69, "velocity": 105, "channel": 0}, {"type": "note_on", "time": 5, "note": 66, "velocity": 98, "channel": 0}, {"type": "note_off", "time": 121, "note": 66, "velocity": 98, "channel": 0}, {"type": "note_on", "time": 7, "note": 64, "velocity": 97, "channel": 0}, {"type": "note_off", "time": 41, "note": 64, "velocity": 97, "channel": 0}, {"type": "note_on", "time": 14, "note": 62, "velocity": 95, "channel": 0}, {"type": "note_off", "time": 71, "note": 62, "velocity": 95, "channel": 0}, {"type": "note_on", "time": 6, "note": 65, "velocity": 94, "channel": 0}, {"type": "note_off", "time": 123, "note": 65, "velocity": 94, "channel": 0}, {"type": "note_on", "time": 9, "note": 67, "velocity": 92, "channel": 0}, {"type": "note_off", "time": 79, "note": 67, "velocity": 92, "channel": 0}, {"type": "note_on", "time": 20, "note": 68, "velocity": 97, "channel": 0}, {"type": "note_off", "time": 74, "note": 68, "velocity": 97, "channel": 0}, {"type": "note_on", "time": 8, "note": 67, "velocity": 100, "channel": 0}, {"type": "note_off", "time": 74, "note": 67, "velocity": 100, "channel": 0}, {"type": "note_on", "time": 10, "note": 65, "velocity": 95, "channel": 0}, {"type": "note_off", "time": 84, "note": 65, "velocity": 95, "channel": 0}, {"type": "note_on", "time": 9, "note": 63, "velocity": 104, "channel": 0}, {"type": "note_off", "time": 82, "note": 63, "velocity": 104, "channel": 0}, {"type": "note_on", "time": 9, "note": 62, "velocity": 101, "channel": 0}, {"type": "note_off", "time": 83, "note": 62, "velocity": 101, "channel": 0}, {"type": "note_on", "time": 8, "note": 60, "velocity": 99, "channel": 0}, {"type": "note_off", "time": 75, "note": 60, "velocity": 99, "channel": 0}, {"type": "note_on", "time": 8, "note": 58, "velocity": 91, "channel": 0}, {"type": "note_off", "time": 57, "note": 58, "velocity": 91, "channel": 0}, {"type": "note_on", "time": 17, "note": 60, "velocity": 100, "channel": 0}, {"type": "note_off", "time": 115, "note": 60, "velocity": 100, "channel": 0}, {"type": "note_on", "time": 17, "note": 62, "velocity": 93, "channel": 0}, {"type": "note_off", "time": 48, "note": 62, "velocity": 93, "channel": 0}, {"type": "note_on", "time": 9, "note": 65, "velocity": 91, "channel": 0}, {"type": "note_off", "time": 78, "note": 65, "velocity": 91, "channel": 0}, {"type": "note_on", "time": 22, "note": 69, "velocity": 103, "channel": 0}, {"type": "note_off", "time": 65, "note": 69, "velocity": 103, "channel": 0}, {"type": "note_on", "time": 13, "note": 72, "velocity": 107, "channel": 0}, {"type": "note_off", "time": 71, "note": 72, "velocity": 107, "channel": 0}, {"type": "note_on", "time": 7, "note": 69, "velocity": 105, "channel": 0}, {"type": "note_off", "time": 118, "note": 69, "velocity": 105, "channel": 0}, {"type": "note_on", "time": 467, "note": 68, "velocity": 106, "channel": 0}, {"type": "note_on", "time": 57, "note": 69, "velocity": 110, "channel": 0}, {"type": "note_off", "time": 0, "note": 68, "velocity": 106, "channel": 0}, {"type": "note_off", "time": 54, "note": 69, "velocity": 110, "channel": 0}, {"type": "note_on", "time": 11, "note": 70, "velocity": 108, "channel": 0}, {"type": "note_off", "time": 63, "note": 70, "velocity": 108, "channel": 0}, {"type": "note_on", "time": 8, "note": 69, "velocity": 109, "channel": 0}, {"type": "note_off", "time": 100, "note": 69, "velocity": 109, "channel": 0}, {"type": "note_on", "time": 16, "note": 67, "velocity": 106, "channel": 0}, {"type": "note_off", "time": 121, "note": 67, "velocity": 106, "channel": 0}, {"type": "note_on", "time": 8, "note": 65, "velocity": 105, "channel": 0}, {"type": "note_off", "time": 46, "note": 65, "velocity": 105, "channel": 0}, {"type": "note_on", "time": 1, "note": 63, "velocity": 109, "channel": 0}, {"type": "note_off", "time": 73, "note": 63, "velocity": 109, "channel": 0}, {"type": "note_on", "time": 15, "note": 62, "velocity": 106, "channel": 0}, {"type": "note_off", "time": 87, "note": 62, "velocity": 106, "channel": 0}, {"type": "note_on", "time": 8, "note": 60, "velocity": 103, "channel": 0}, {"type": "note_off", "time": 117, "note": 60, "velocity": 103, "channel": 0}, {"type": "note_on", "time": 4, "note": 57, "velocity": 101, "channel": 0}, {"type": "note_off", "time": 62, "note": 57, "velocity": 101, "channel": 0}, {"type": "note_on", "time": 12, "note": 60, "velocity": 100, "channel": 0}, {"type": "note_off", "time": 110, "note": 60, "velocity": 100, "channel": 0}, {"type": "note_on", "time": 12, "note": 62, "velocity": 101, "channel": 0}, {"type": "note_off", "time": 37, "note": 62, "velocity": 101, "channel": 0}, {"type": "note_on", "time": 3, "note": 65, "velocity": 100, "channel": 0}, {"type": "note_off", "time": 122, "note": 65, "velocity": 100, "channel": 0}, {"type": "note_on", "time": 9, "note": 61, "velocity": 100, "channel": 0}, {"type": "note_off", "time": 63, "note": 61, "velocity": 100, "channel": 0}, {"type": "note_on", "time": 14, "note": 63, "velocity": 101, "channel": 0}, {"type": "note_off", "time": 109, "note": 63, "velocity": 101, "channel": 0}, {"type": "note_on", "time": 7, "note": 65, "velocity": 94, "channel": 0}, {"type": "note_off", "time": 89, "note": 65, "velocity": 94, "channel": 0}, {"type": "note_on", "time": 8, "note": 75, "velocity": 88, "channel": 0}, {"type": "note_off", "time": 234, "note": 75, "velocity": 88, "channel": 0}, {"type": "note_on", "time": 11, "note": 72, "velocity": 103, "channel": 0}, {"type": "note_off", "time": 96, "note": 72, "velocity": 103, "channel": 0}, {"type": "note_on", "time": 44, "note": 67, "velocity": 105, "channel": 0}, {"type": "note_off", "time": 88, "note": 67, "velocity": 105, "channel": 0}, {"type": "note_on", "time": 60, "note": 65, "velocity": 94, "channel": 0}, {"type": "note_off", "time": 76, "note": 65, "velocity": 94, "channel": 0}, {"type": "note_on", "time": 6, "note": 61, "velocity": 97, "channel": 0}, {"type": "note_off", "time": 63, "note": 61, "velocity": 97, "channel": 0}, {"type": "note_on", "time": 5, "note": 58, "velocity": 89, "channel": 0}, {"type": "note_off", "time": 73, "note": 58, "velocity": 89, "channel": 0}, {"type": "note_on", "time": 94, "note": 64, "velocity": 107, "channel": 0}, {"type": "note_off", "time": 54, "note": 64, "velocity": 107, "channel": 0}, {"type": "note_on", "time": 52, "note": 66, "velocity": 99, "channel": 0}, {"type": "note_off", "time": 69, "note": 66, "velocity": 99, "channel": 0}, {"type": "note_on", "time": 10, "note": 67, "velocity": 96, "channel": 0}, {"type": "note_off", "time": 76, "note": 67, "velocity": 96, "channel": 0}, {"type": "note_on", "time": 7, "note": 69, "velocity": 105, "channel": 0}, {"type": "note_off", "time": 80, "note": 69, "velocity": 105, "channel": 0}, {"type": "note_on", "time": 4, "note": 63, "velocity": 105, "channel": 0}, {"type": "note_off", "time": 110, "note": 63, "velocity": 105, "channel": 0}, {"type": "note_on", "time": 9, "note": 65, "velocity": 100, "channel": 0}, {"type": "note_off", "time": 66, "note": 65, "velocity": 100, "channel": 0}, {"type": "note_on", "time": 9, "note": 67, "velocity": 93, "channel": 0}, {"type": "note_off", "time": 99, "note": 67, "velocity": 93, "channel": 0}, {"type": "note_on", "time": 9, "note": 69, "velocity": 93, "channel": 0}, {"type": "note_off", "time": 59, "note": 69, "velocity": 93, "channel": 0}, {"type": "note_on", "time": 8, "note": 70, "velocity": 104, "channel": 0}, {"type": "note_off", "time": 81, "note": 70, "velocity": 104, "channel": 0}, {"type": "note_on", "time": 295, "note": 63, "velocity": 104, "channel": 0}, {"type": "note_off", "time": 95, "note": 63, "velocity": 104, "channel": 0}, {"type": "note_on", "time": 22, "note": 59, "velocity": 94, "channel": 0}, {"type": "note_off", "time": 67, "note": 59, "velocity": 94, "channel": 0}, {"type": "note_on", "time": 4, "note": 56, "velocity": 99, "channel": 0}, {"type": "note_off", "time": 119, "note": 56, "velocity": 99, "channel": 0}, {"type": "note_on", "time": 13, "note": 61, "velocity": 95, "channel": 0}, {"type": "note_off", "time": 59, "note": 61, "velocity": 95, "channel": 0}, {"type": "note_on", "time": 17, "note": 58, "velocity": 96, "channel": 0}, {"type": "note_off", "time": 100, "note": 58, "velocity": 96, "channel": 0}, {"type": "note_on", "time": 3, "note": 61, "velocity": 99, "channel": 0}, {"type": "note_off", "time": 90, "note": 61, "velocity": 99, "channel": 0}, {"type": "note_on", "time": 7, "note": 66, "velocity": 94, "channel": 0}, {"type": "note_off", "time": 94, "note": 66, "velocity": 94, "channel": 0}, {"type": "note_on", "time": 12, "note": 70, "velocity": 103, "channel": 0}, {"type": "note_off", "time": 80, "note": 70, "velocity": 103, "channel": 0}, {"type": "note_on", "time": 12, "note": 69, "velocity": 103, "channel": 0}, {"type": "note_off", "time": 73, "note": 69, "velocity": 103, "channel": 0}, {"type": "note_on", "time": 11, "note": 68, "velocity": 102, "channel": 0}, {"type": "note_off", "time": 56, "note": 68, "velocity": 102, "channel": 0}, {"type": "note_on", "time": 14, "note": 67, "velocity": 100, "channel": 0}, {"type": "note_off", "time": 96, "note": 67, "velocity": 100, "channel": 0}, {"type": "note_on", "time": 7, "note": 71, "velocity": 105, "channel": 0}, {"type": "note_off", "time": 68, "note": 71, "velocity": 105, "channel": 0}, {"type": "note_on", "time": 7, "note": 69, "velocity": 104, "channel": 0}, {"type": "note_off", "time": 64, "note": 69, "velocity": 104, "channel": 0}, {"type": "note_on", "time": 17, "note": 66, "velocity": 95, "channel": 0}, {"type": "note_off", "time": 100, "note": 66, "velocity": 95, "channel": 0}, {"type": "note_on", "time": 12, "note": 64, "velocity": 96, "channel": 0}, {"type": "note_off", "time": 55, "note": 64, "velocity": 96, "channel": 0}, {"type": "note_on", "time": 15, "note": 62, "velocity": 96, "channel": 0}, {"type": "note_off", "time": 75, "note": 62, "velocity": 96, "channel": 0}, {"type": "note_on", "time": 11, "note": 66, "velocity": 95, "channel": 0}, {"type": "note_off", "time": 102, "note": 66, "velocity": 95, "channel": 0}, {"type": "note_on", "time": 11, "note": 67, "velocity": 96, "channel": 0}, {"type": "note_off", "time": 70, "note": 67, "velocity": 96, "channel": 0}, {"type": "note_on", "time": 14, "note": 69, "velocity": 97, "channel": 0}, {"type": "note_off", "time": 58, "note": 69, "velocity": 97, "channel": 0}, {"type": "note_on", "time": 27, "note": 71, "velocity": 97, "channel": 0}, {"type": "note_off", "time": 84, "note": 71, "velocity": 97, "channel": 0}, {"type": "note_on", "time": 3, "note": 62, "velocity": 98, "channel": 0}, {"type": "note_off", "time": 124, "note": 62, "velocity": 98, "channel": 0}, {"type": "note_on", "time": 19, "note": 63, "velocity": 96, "channel": 0}, {"type": "note_off", "time": 85, "note": 63, "velocity": 96, "channel": 0}, {"type": "note_on", "time": 9, "note": 65, "velocity": 89, "channel": 0}, {"type": "note_off", "time": 70, "note": 65, "velocity": 89, "channel": 0}, {"type": "note_on", "time": 10, "note": 66, "velocity": 100, "channel": 0}, {"type": "note_off", "time": 60, "note": 66, "velocity": 100, "channel": 0}, {"type": "note_on", "time": 49, "note": 63, "velocity": 102, "channel": 0}, {"type": "note_off", "time": 53, "note": 63, "velocity": 102, "channel": 0}, {"type": "note_on", "time": 14, "note": 62, "velocity": 97, "channel": 0}, {"type": "note_off", "time": 68, "note": 62, "velocity": 97, "channel": 0}, {"type": "note_on", "time": 31, "note": 61, "velocity": 93, "channel": 0}, {"type": "note_off", "time": 86, "note": 61, "velocity": 93, "channel": 0}, {"type": "note_on", "time": 3, "note": 63, "velocity": 102, "channel": 0}, {"type": "note_off", "time": 84, "note": 63, "velocity": 102, "channel": 0}, {"type": "note_on", "time": 11, "note": 60, "velocity": 94, "channel": 0}, {"type": "note_off", "time": 81, "note": 60, "velocity": 94, "channel": 0}, {"type": "note_on", "time": 6, "note": 63, "velocity": 100, "channel": 0}, {"type": "note_off", "time": 70, "note": 63, "velocity": 100, "channel": 0}, {"type": "note_on", "time": 8, "note": 68, "velocity": 97, "channel": 0}, {"type": "note_off", "time": 45, "note": 68, "velocity": 97, "channel": 0}, {"type": "note_on", "time": 17, "note": 72, "velocity": 100, "channel": 0}, {"type": "note_off", "time": 57, "note": 72, "velocity": 100, "channel": 0}, {"type": "note_on", "time": 21, "note": 71, "velocity": 102, "channel": 0}, {"type": "note_off", "time": 73, "note": 71, "velocity": 102, "channel": 0}, {"type": "note_on", "time": 10, "note": 69, "velocity": 100, "channel": 0}, {"type": "note_off", "time": 88, "note": 69, "velocity": 100, "channel": 0}, {"type": "note_on", "time": 20, "note": 68, "velocity": 96, "channel": 0}, {"type": "note_off", "time": 129, "note": 68, "velocity": 96, "channel": 0}, {"type": "note_on", "time": 10, "note": 66, "velocity": 95, "channel": 0}, {"type": "note_off", "time": 111, "note": 66, "velocity": 95, "channel": 0}, {"type": "note_on", "time": 7, "note": 64, "velocity": 97, "channel": 0}, {"type": "note_off", "time": 57, "note": 64, "velocity": 97, "channel": 0}, {"type": "note_on", "time": 1, "note": 66, "velocity": 96, "channel": 0}, {"type": "note_off", "time": 122, "note": 66, "velocity": 96, "channel": 0}, {"type": "note_on", "time": 9, "note": 68, "velocity": 95, "channel": 0}, {"type": "note_off", "time": 39, "note": 68, "velocity": 95, "channel": 0}, {"type": "note_on", "time": 11, "note": 71, "velocity": 108, "channel": 0}, {"type": "note_off", "time": 87, "note": 71, "velocity": 108, "channel": 0}, {"type": "note_on", "time": 12, "note": 67, "velocity": 96, "channel": 0}, {"type": "note_off", "time": 109, "note": 67, "velocity": 96, "channel": 0}, {"type": "note_on", "time": 18, "note": 65, "velocity": 98, "channel": 0}, {"type": "note_off", "time": 57, "note": 65, "velocity": 98, "channel": 0}, {"type": "note_on", "time": 8, "note": 64, "velocity": 107, "channel": 0}, {"type": "note_off", "time": 70, "note": 64, "velocity": 107, "channel": 0}, {"type": "note_on", "time": 9, "note": 62, "velocity": 101, "channel": 0}, {"type": "note_off", "time": 88, "note": 62, "velocity": 101, "channel": 0}, {"type": "note_on", "time": 9, "note": 60, "velocity": 95, "channel": 0}, {"type": "note_off", "time": 77, "note": 60, "velocity": 95, "channel": 0}, {"type": "note_on", "time": 11, "note": 62, "velocity": 96, "channel": 0}, {"type": "note_off", "time": 77, "note": 62, "velocity": 96, "channel": 0}, {"type": "note_on", "time": 7, "note": 64, "velocity": 99, "channel": 0}, {"type": "note_off", "time": 99, "note": 64, "velocity": 99, "channel": 0}, {"type": "note_on", "time": 10, "note": 67, "velocity": 93, "channel": 0}, {"type": "note_off", "time": 70, "note": 67, "velocity": 93, "channel": 0}, {"type": "note_on", "time": 10, "note": 72, "velocity": 108, "channel": 0}, {"type": "note_off", "time": 74, "note": 72, "velocity": 108, "channel": 0}, {"type": "note_on", "time": 5, "note": 71, "velocity": 103, "channel": 0}, {"type": "note_off", "time": 68, "note": 71, "velocity": 103, "channel": 0}, {"type": "note_on", "time": 9, "note": 69, "velocity": 105, "channel": 0}, {"type": "note_off", "time": 101, "note": 69, "velocity": 105, "channel": 0}, {"type": "note_on", "time": 10, "note": 68, "velocity": 102, "channel": 0}, {"type": "note_off", "time": 113, "note": 68, "velocity": 102, "channel": 0}, {"type": "note_on", "time": 11, "note": 67, "velocity": 98, "channel": 0}, {"type": "note_off", "time": 104, "note": 67, "velocity": 98, "channel": 0}, {"type": "note_on", "time": 4, "note": 63, "velocity": 100, "channel": 0}, {"type": "note_off", "time": 49, "note": 63, "velocity": 100, "channel": 0}, {"type": "note_on", "time": 14, "note": 62, "velocity": 103, "channel": 0}, {"type": "note_off", "time": 81, "note": 62, "velocity": 103, "channel": 0}, {"type": "note_on", "time": 12, "note": 60, "velocity": 91, "channel": 0}, {"type": "note_off", "time": 76, "note": 60, "velocity": 91, "channel": 0}, {"type": "note_on", "time": 25, "note": 63, "velocity": 108, "channel": 0}, {"type": "note_off", "time": 96, "note": 63, "velocity": 108, "channel": 0}, {"type": "note_on", "time": 13, "note": 59, "velocity": 100, "channel": 0}, {"type": "note_off", "time": 72, "note": 59, "velocity": 100, "channel": 0}, {"type": "note_on", "time": 13, "note": 56, "velocity": 97, "channel": 0}, {"type": "note_off", "time": 95, "note": 56, "velocity": 97, "channel": 0}, {"type": "note_on", "time": 11, "note": 61, "velocity": 97, "channel": 0}, {"type": "note_off", "time": 73, "note": 61, "velocity": 97, "channel": 0}, {"type": "note_on", "time": 0, "note": 58, "velocity": 93, "channel": 0}, {"type": "note_off", "time": 88, "note": 58, "velocity": 93, "channel": 0}, {"type": "note_on", "time": 297, "note": 69, "velocity": 91, "channel": 0}, {"type": "note_off", "time": 32, "note": 69, "velocity": 91, "channel": 0}, {"type": "note_on", "time": 11, "note": 68, "velocity": 108, "channel": 0}, {"type": "note_off", "time": 114, "note": 68, "velocity": 108, "channel": 0}, {"type": "note_on", "time": 9, "note": 67, "velocity": 101, "channel": 0}, {"type": "note_off", "time": 120, "note": 67, "velocity": 101, "channel": 0}, {"type": "note_on", "time": 11, "note": 71, "velocity": 102, "channel": 0}, {"type": "note_off", "time": 57, "note": 71, "velocity": 102, "channel": 0}, {"type": "note_on", "time": 5, "note": 69, "velocity": 104, "channel": 0}, {"type": "note_off", "time": 59, "note": 69, "velocity": 104, "channel": 0}, {"type": "note_on", "time": 8, "note": 67, "velocity": 101, "channel": 0}, {"type": "note_off", "time": 35, "note": 67, "velocity": 101, "channel": 0}, {"type": "note_on", "time": 10, "note": 66, "velocity": 100, "channel": 0}, {"type": "note_off", "time": 66, "note": 66, "velocity": 100, "channel": 0}, {"type": "note_on", "time": 14, "note": 64, "velocity": 103, "channel": 0}, {"type": "note_off", "time": 91, "note": 64, "velocity": 103, "channel": 0}, {"type": "note_on", "time": 11, "note": 62, "velocity": 94, "channel": 0}, {"type": "note_off", "time": 84, "note": 62, "velocity": 94, "channel": 0}, {"type": "note_on", "time": 20, "note": 65, "velocity": 99, "channel": 0}, {"type": "note_off", "time": 103, "note": 65, "velocity": 99, "channel": 0}, {"type": "note_on", "time": 99, "note": 69, "velocity": 107, "channel": 0}, {"type": "note_off", "time": 74, "note": 69, "velocity": 107, "channel": 0}, {"type": "note_on", "time": 14, "note": 67, "velocity": 101, "channel": 0}, {"type": "note_off", "time": 89, "note": 67, "velocity": 101, "channel": 0}, {"type": "note_on", "time": 7, "note": 65, "velocity": 99, "channel": 0}, {"type": "note_off", "time": 77, "note": 65, "velocity": 99, "channel": 0}, {"type": "note_on", "time": 3, "note": 63, "velocity": 104, "channel": 0}, {"type": "note_off", "time": 68, "note": 63, "velocity": 104, "channel": 0}, {"type": "note_on", "time": 4, "note": 62, "velocity": 103, "channel": 0}, {"type": "note_off", "time": 70, "note": 62, "velocity": 103, "channel": 0}, {"type": "note_on", "time": 19, "note": 60, "velocity": 97, "channel": 0}, {"type": "note_off", "time": 99, "note": 60, "velocity": 97, "channel": 0}, {"type": "note_on", "time": 14, "note": 58, "velocity": 86, "channel": 0}, {"type": "note_off", "time": 33, "note": 58, "velocity": 86, "channel": 0}, {"type": "note_on", "time": 13, "note": 60, "velocity": 94, "channel": 0}, {"type": "note_off", "time": 73, "note": 60, "velocity": 94, "channel": 0}, {"type": "note_on", "time": 21, "note": 62, "velocity": 99, "channel": 0}, {"type": "note_off", "time": 79, "note": 62, "velocity": 99, "channel": 0}, {"type": "note_on", "time": 16, "note": 65, "velocity": 88, "channel": 0}, {"type": "note_off", "time": 33, "note": 65, "velocity": 88, "channel": 0}, {"type": "note_on", "time": 20, "note": 69, "velocity": 99, "channel": 0}, {"type": "note_off", "time": 97, "note": 69, "velocity": 99, "channel": 0}, {"type": "note_on", "time": 12, "note": 58, "velocity": 101, "channel": 0}, {"type": "note_off", "time": 45, "note": 58, "velocity": 101, "channel": 0}, {"type": "note_on", "time": 4, "note": 59, "velocity": 95, "channel": 0}, {"type": "note_off", "time": 55, "note": 59, "velocity": 95, "channel": 0}, {"type": "note_on", "time": 485, "note": 57, "velocity": 104, "channel": 0}, {"type": "note_off", "time": 268, "note": 57, "velocity": 104, "channel": 0}, {"type": "note_on", "time": 11, "note": 56, "velocity": 96, "channel": 0}, {"type": "note_off", "time": 53, "note": 56, "velocity": 96, "channel": 0}, {"type": "note_on", "time": 5, "note": 57, "velocity": 102, "channel": 0}, {"type": "note_off", "time": 94, "note": 57, "velocity": 102, "channel": 0}, {"type": "note_on", "time": 10, "note": 55, "velocity": 105, "channel": 0}, {"type": "note_off", "time": 70, "note": 55, "velocity": 105, "channel": 0}, {"type": "note_on", "time": 14, "note": 53, "velocity": 110, "channel": 0}, {"type": "note_off", "time": 63, "note": 53, "velocity": 110, "channel": 0}, {"type": "note_on", "time": 14, "note": 51, "velocity": 105, "channel": 0}, {"type": "note_off", "time": 131, "note": 51, "velocity": 105, "channel": 0}, {"type": "note_on", "time": 7, "note": 49, "velocity": 101, "channel": 0}, {"type": "note_off", "time": 58, "note": 49, "velocity": 101, "channel": 0}, {"type": "note_on", "time": 10, "note": 48, "velocity": 104, "channel": 0}, {"type": "note_off", "time": 85, "note": 48, "velocity": 104, "channel": 0}, {"type": "note_on", "time": 12, "note": 46, "velocity": 106, "channel": 0}, {"type": "note_off", "time": 119, "note": 46, "velocity": 106, "channel": 0}, {"type": "note_on", "time": 68, "note": 53, "velocity": 95, "channel": 0}, {"type": "note_off", "time": 116, "note": 53, "velocity": 95, "channel": 0}, {"type": "note_on", "time": 32, "note": 55, "velocity": 91, "channel": 0}, {"type": "note_off", "time": 47, "note": 55, "velocity": 91, "channel": 0}, {"type": "note_on", "time": 12, "note": 58, "velocity": 97, "channel": 0}, {"type": "note_off", "time": 78, "note": 58, "velocity": 97, "channel": 0}, {"type": "note_on", "time": 13, "note": 60, "velocity": 102, "channel": 0}, {"type": "note_off", "time": 96, "note": 60, "velocity": 102, "channel": 0}, {"type": "note_on", "time": 17, "note": 63, "velocity": 103, "channel": 0}, {"type": "note_off", "time": 72, "note": 63, "velocity": 103, "channel": 0}, {"type": "note_on", "time": 14, "note": 65, "velocity": 102, "channel": 0}, {"type": "note_off", "time": 77, "note": 65, "velocity": 102, "channel": 0}, {"type": "note_on", "time": 22, "note": 61, "velocity": 96, "channel": 0}, {"type": "note_off", "time": 62, "note": 61, "velocity": 96, "channel": 0}, {"type": "note_on", "time": 30, "note": 63, "velocity": 102, "channel": 0}, {"type": "note_off", "time": 65, "note": 63, "velocity": 102, "channel": 0}, {"type": "note_on", "time": 18, "note": 65, "velocity": 99, "channel": 0}, {"type": "note_off", "time": 76, "note": 65, "velocity": 99, "channel": 0}, {"type": "note_on", "time": 9, "note": 67, "velocity": 105, "channel": 0}, {"type": "note_off", "time": 87, "note": 67, "velocity": 105, "channel": 0}, {"type": "note_on", "time": 20, "note": 69, "velocity": 103, "channel": 0}, {"type": "note_off", "time": 107, "note": 69, "velocity": 103, "channel": 0}, {"type": "note_on", "time": 377, "note": 51, "velocity": 105, "channel": 0}, {"type": "note_off", "time": 78, "note": 51, "velocity": 105, "channel": 0}, {"type": "note_on", "time": 16, "note": 55, "velocity": 100, "channel": 0}, {"type": "note_off", "time": 51, "note": 55, "velocity": 100, "channel": 0}, {"type": "note_on", "time": 12, "note": 58, "velocity": 101, "channel": 0}, {"type": "note_off", "time": 53, "note": 58, "velocity": 101, "channel": 0}, {"type": "note_on", "time": 35, "note": 51, "velocity": 101, "channel": 0}, {"type": "note_off", "time": 160, "note": 51, "velocity": 101, "channel": 0}, {"type": "note_on", "time": 38, "note": 57, "velocity": 104, "channel": 0}, {"type": "note_off", "time": 83, "note": 57, "velocity": 104, "channel": 0}, {"type": "note_on", "time": 109, "note": 62, "velocity": 102, "channel": 0}, {"type": "note_off", "time": 76, "note": 62, "velocity": 102, "channel": 0}, {"type": "note_on", "time": 13, "note": 60, "velocity": 102, "channel": 0}, {"type": "note_off", "time": 82, "note": 60, "velocity": 102, "channel": 0}, {"type": "note_on", "time": 17, "note": 57, "velocity": 99, "channel": 0}, {"type": "note_off", "time": 83, "note": 57, "velocity": 99, "channel": 0}, {"type": "note_on", "time": 82, "note": 63, "velocity": 104, "channel": 0}, {"type": "note_off", "time": 91, "note": 63, "velocity": 104, "channel": 0}, {"type": "note_on", "time": 11, "note": 59, "velocity": 95, "channel": 0}, {"type": "note_off", "time": 48, "note": 59, "velocity": 95, "channel": 0}, {"type": "note_on", "time": 8, "note": 56, "velocity": 101, "channel": 0}, {"type": "note_off", "time": 130, "note": 56, "velocity": 101, "channel": 0}, {"type": "note_on", "time": 18, "note": 61, "velocity": 100, "channel": 0}, {"type": "note_off", "time": 86, "note": 61, "velocity": 100, "channel": 0}, {"type": "note_on", "time": 4, "note": 58, "velocity": 100, "channel": 0}, {"type": "note_off", "time": 72, "note": 58, "velocity": 100, "channel": 0}, {"type": "note_on", "time": 28, "note": 54, "velocity": 95, "channel": 0}, {"type": "note_off", "time": 86, "note": 54, "velocity": 95, "channel": 0}, {"type": "note_on", "time": 55, "note": 55, "velocity": 93, "channel": 0}, {"type": "note_off", "time": 34, "note": 55, "velocity": 93, "channel": 0}, {"type": "note_on", "time": 6, "note": 58, "velocity": 99, "channel": 0}, {"type": "note_off", "time": 91, "note": 58, "velocity": 99, "channel": 0}, {"type": "note_on", "time": 11, "note": 57, "velocity": 100, "channel": 0}, {"type": "note_off", "time": 91, "note": 57, "velocity": 100, "channel": 0}, {"type": "note_on", "time": 9, "note": 56, "velocity": 103, "channel": 0}, {"type": "note_off", "time": 81, "note": 56, "velocity": 103, "channel": 0}, {"type": "note_on", "time": 12, "note": 55, "velocity": 102, "channel": 0}, {"type": "note_off", "time": 86, "note": 55, "velocity": 102, "channel": 0}, {"type": "note_on", "time": 6, "note": 59, "velocity": 97, "channel": 0}, {"type": "note_off", "time": 70, "note": 59, "velocity": 97, "channel": 0}, {"type": "note_on", "time": 6, "note": 57, "velocity": 100, "channel": 0}, {"type": "note_off", "time": 58, "note": 57, "velocity": 100, "channel": 0}, {"type": "note_on", "time": 1, "note": 54, "velocity": 98, "channel": 0}, {"type": "note_off", "time": 66, "note": 54, "velocity": 98, "channel": 0}, {"type": "note_on", "time": 29, "note": 52, "velocity": 92, "channel": 0}, {"type": "note_off", "time": 71, "note": 52, "velocity": 92, "channel": 0}, {"type": "note_on", "time": 12, "note": 50, "velocity": 88, "channel": 0}, {"type": "note_off", "time": 67, "note": 50, "velocity": 88, "channel": 0}, {"type": "note_on", "time": 24, "note": 54, "velocity": 95, "channel": 0}, {"type": "note_off", "time": 87, "note": 54, "velocity": 95, "channel": 0}, {"type": "note_on", "time": 11, "note": 55, "velocity": 97, "channel": 0}, {"type": "note_off", "time": 65, "note": 55, "velocity": 97, "channel": 0}, {"type": "note_on", "time": 18, "note": 57, "velocity": 94, "channel": 0}, {"type": "note_off", "time": 89, "note": 57, "velocity": 94, "channel": 0}, {"type": "note_on", "time": 40, "note": 59, "velocity": 101, "channel": 0}, {"type": "note_off", "time": 61, "note": 59, "velocity": 101, "channel": 0}, {"type": "note_on", "time": 40, "note": 50, "velocity": 94, "channel": 0}, {"type": "note_off", "time": 164, "note": 50, "velocity": 94, "channel": 0}, {"type": "note_on", "time": 16, "note": 52, "velocity": 96, "channel": 0}, {"type": "note_off", "time": 65, "note": 52, "velocity": 96, "channel": 0}, {"type": "note_on", "time": 12, "note": 55, "velocity": 96, "channel": 0}, {"type": "note_off", "time": 71, "note": 55, "velocity": 96, "channel": 0}, {"type": "note_on", "time": 24, "note": 50, "velocity": 95, "channel": 0}, {"type": "note_off", "time": 188, "note": 50, "velocity": 95, "channel": 0}, {"type": "note_on", "time": 122, "note": 55, "velocity": 95, "channel": 0}, {"type": "note_off", "time": 62, "note": 55, "velocity": 95, "channel": 0}, {"type": "note_on", "time": 5, "note": 51, "velocity": 95, "channel": 0}, {"type": "note_off", "time": 84, "note": 51, "velocity": 95, "channel": 0}, {"type": "note_on", "time": 19, "note": 53, "velocity": 97, "channel": 0}, {"type": "note_off", "time": 65, "note": 53, "velocity": 97, "channel": 0}, {"type": "note_on", "time": 15, "note": 56, "velocity": 97, "channel": 0}, {"type": "note_off", "time": 75, "note": 56, "velocity": 97, "channel": 0}, {"type": "note_on", "time": 11, "note": 60, "velocity": 99, "channel": 0}, {"type": "note_off", "time": 103, "note": 60, "velocity": 99, "channel": 0}, {"type": "note_on", "time": 4, "note": 59, "velocity": 96, "channel": 0}, {"type": "note_off", "time": 62, "note": 59, "velocity": 96, "channel": 0}, {"type": "note_on", "time": 6, "note": 61, "velocity": 101, "channel": 0}, {"type": "note_off", "time": 116, "note": 61, "velocity": 101, "channel": 0}, {"type": "note_on", "time": 10, "note": 63, "velocity": 104, "channel": 0}, {"type": "note_off", "time": 85, "note": 63, "velocity": 104, "channel": 0}, {"type": "note_on", "time": 10, "note": 66, "velocity": 97, "channel": 0}, {"type": "note_off", "time": 63, "note": 66, "velocity": 97, "channel": 0}, {"type": "note_on", "time": 11, "note": 64, "velocity": 103, "channel": 0}, {"type": "note_off", "time": 96, "note": 64, "velocity": 103, "channel": 0}, {"type": "note_on", "time": 10, "note": 66, "velocity": 96, "channel": 0}, {"type": "note_off", "time": 81, "note": 66, "velocity": 96, "channel": 0}, {"type": "note_on", "time": 8, "note": 68, "velocity": 105, "channel": 0}, {"type": "note_off", "time": 69, "note": 68, "velocity": 105, "channel": 0}, {"type": "note_on", "time": 0, "note": 30, "velocity": 80, "channel": 0}, {"type": "note_off", "time": 0, "note": 30, "velocity": 80, "channel": 0}, {"type": "note_on", "time": 17, "note": 71, "velocity": 107, "channel": 0}, {"type": "note_off", "time": 81, "note": 71, "velocity": 107, "channel": 0}, {"type": "note_on", "time": 7, "note": 67, "velocity": 104, "channel": 0}, {"type": "note_off", "time": 99, "note": 67, "velocity": 104, "channel": 0}, {"type": "note_on", "time": 26, "note": 60, "velocity": 98, "channel": 0}, {"type": "note_off", "time": 129, "note": 60, "velocity": 98, "channel": 0}, {"type": "note_on", "time": 1043, "note": 60, "velocity": 93, "channel": 0}, {"type": "note_off", "time": 48, "note": 60, "velocity": 93, "channel": 0}, {"type": "note_on", "time": 7, "note": 63, "velocity": 100, "channel": 0}, {"type": "note_off", "time": 48, "note": 63, "velocity": 100, "channel": 0}, {"type": "note_on", "time": 4, "note": 67, "velocity": 100, "channel": 0}, {"type": "note_off", "time": 76, "note": 67, "velocity": 100, "channel": 0}, {"type": "note_on", "time": 26, "note": 63, "velocity": 102, "channel": 0}, {"type": "note_off", "time": 65, "note": 63, "velocity": 102, "channel": 0}, {"type": "note_on", "time": 11, "note": 59, "velocity": 92, "channel": 0}, {"type": "note_off", "time": 100, "note": 59, "velocity": 92, "channel": 0}, {"type": "note_on", "time": 0, "note": 56, "velocity": 100, "channel": 0}, {"type": "note_off", "time": 111, "note": 56, "velocity": 100, "channel": 0}, {"type": "note_on", "time": 13, "note": 61, "velocity": 94, "channel": 0}, {"type": "note_off", "time": 77, "note": 61, "velocity": 94, "channel": 0}, {"type": "note_on", "time": 7, "note": 58, "velocity": 92, "channel": 0}, {"type": "note_off", "time": 82, "note": 58, "velocity": 92, "channel": 0}, {"type": "note_on", "time": 11, "note": 61, "velocity": 96, "channel": 0}, {"type": "note_off", "time": 79, "note": 61, "velocity": 96, "channel": 0}, {"type": "note_on", "time": 20, "note": 66, "velocity": 92, "channel": 0}, {"type": "note_off", "time": 106, "note": 66, "velocity": 92, "channel": 0}, {"type": "note_on", "time": 3, "note": 70, "velocity": 103, "channel": 0}, {"type": "note_off", "time": 78, "note": 70, "velocity": 103, "channel": 0}, {"type": "note_on", "time": 11, "note": 69, "velocity": 102, "channel": 0}, {"type": "note_off", "time": 75, "note": 69, "velocity": 102, "channel": 0}, {"type": "note_on", "time": 11, "note": 68, "velocity": 102, "channel": 0}, {"type": "note_off", "time": 92, "note": 68, "velocity": 102, "channel": 0}, {"type": "note_on", "time": 8, "note": 67, "velocity": 96, "channel": 0}, {"type": "note_off", "time": 95, "note": 67, "velocity": 96, "channel": 0}, {"type": "note_on", "time": 7, "note": 71, "velocity": 106, "channel": 0}, {"type": "note_off", "time": 63, "note": 71, "velocity": 106, "channel": 0}, {"type": "note_on", "time": 8, "note": 69, "velocity": 103, "channel": 0}, {"type": "note_off", "time": 69, "note": 69, "velocity": 103, "channel": 0}, {"type": "note_on", "time": 4, "note": 66, "velocity": 97, "channel": 0}, {"type": "note_off", "time": 89, "note": 66, "velocity": 97, "channel": 0}, {"type": "note_on", "time": 17, "note": 64, "velocity": 100, "channel": 0}, {"type": "note_off", "time": 90, "note": 64, "velocity": 100, "channel": 0}, {"type": "note_on", "time": 11, "note": 62, "velocity": 92, "channel": 0}, {"type": "note_off", "time": 66, "note": 62, "velocity": 92, "channel": 0}, {"type": "note_on", "time": 5, "note": 65, "velocity": 94, "channel": 0}, {"type": "note_off", "time": 112, "note": 65, "velocity": 94, "channel": 0}, {"type": "note_on", "time": 98, "note": 69, "velocity": 107, "channel": 0}, {"type": "note_off", "time": 79, "note": 69, "velocity": 107, "channel": 0}, {"type": "note_on", "time": 5, "note": 67, "velocity": 100, "channel": 0}, {"type": "note_off", "time": 91, "note": 67, "velocity": 100, "channel": 0}, {"type": "note_on", "time": 4, "note": 65, "velocity": 99, "channel": 0}, {"type": "note_off", "time": 66, "note": 65, "velocity": 99, "channel": 0}, {"type": "note_on", "time": 12, "note": 63, "velocity": 106, "channel": 0}, {"type": "note_off", "time": 79, "note": 63, "velocity": 106, "channel": 0}, {"type": "note_on", "time": 9, "note": 62, "velocity": 101, "channel": 0}, {"type": "note_off", "time": 80, "note": 62, "velocity": 101, "channel": 0}, {"type": "note_on", "time": 9, "note": 60, "velocity": 97, "channel": 0}, {"type": "note_off", "time": 114, "note": 60, "velocity": 97, "channel": 0}, {"type": "note_on", "time": 13, "note": 58, "velocity": 94, "channel": 0}, {"type": "note_off", "time": 58, "note": 58, "velocity": 94, "channel": 0}, {"type": "note_on", "time": 7, "note": 60, "velocity": 102, "channel": 0}, {"type": "note_off", "time": 103, "note": 60, "velocity": 102, "channel": 0}, {"type": "note_on", "time": 16, "note": 62, "velocity": 93, "channel": 0}, {"type": "note_off", "time": 51, "note": 62, "velocity": 93, "channel": 0}, {"type": "note_on", "time": 11, "note": 65, "velocity": 92, "channel": 0}, {"type": "note_off", "time": 78, "note": 65, "velocity": 92, "channel": 0}, {"type": "note_on", "time": 3, "note": 72, "velocity": 110, "channel": 0}, {"type": "note_off", "time": 610, "note": 72, "velocity": 110, "channel": 0}, {"type": "note_on", "time": 22, "note": 71, "velocity": 101, "channel": 0}, {"type": "note_off", "time": 71, "note": 71, "velocity": 101, "channel": 0}, {"type": "note_on", "time": 7, "note": 72, "velocity": 88, "channel": 0}, {"type": "note_off", "time": 77, "note": 72, "velocity": 88, "channel": 0}, {"type": "note_on", "time": 3, "note": 69, "velocity": 105, "channel": 0}, {"type": "note_off", "time": 99, "note": 69, "velocity": 105, "channel": 0}, {"type": "note_on", "time": 3, "note": 72, "velocity": 106, "channel": 0}, {"type": "note_off", "time": 255, "note": 72, "velocity": 106, "channel": 0}, {"type": "note_on", "time": 11, "note": 69, "velocity": 104, "channel": 0}, {"type": "note_off", "time": 276, "note": 69, "velocity": 104, "channel": 0}, {"type": "note_on", "time": 24, "note": 67, "velocity": 100, "channel": 0}, {"type": "note_off", "time": 97, "note": 67, "velocity": 100, "channel": 0}, {"type": "note_on", "time": 12, "note": 65, "velocity": 101, "channel": 0}, {"type": "note_off", "time": 73, "note": 65, "velocity": 101, "channel": 0}, {"type": "note_on", "time": 5, "note": 63, "velocity": 106, "channel": 0}, {"type": "note_off", "time": 79, "note": 63, "velocity": 106, "channel": 0}, {"type": "note_on", "time": 16, "note": 62, "velocity": 100, "channel": 0}, {"type": "note_off", "time": 77, "note": 62, "velocity": 100, "channel": 0}, {"type": "note_on", "time": 7, "note": 60, "velocity": 101, "channel": 0}, {"type": "note_off", "time": 101, "note": 60, "velocity": 101, "channel": 0}, {"type": "note_on", "time": 24, "note": 58, "velocity": 95, "channel": 0}, {"type": "note_off", "time": 79, "note": 58, "velocity": 95, "channel": 0}, {"type": "note_on", "time": 11, "note": 60, "velocity": 91, "channel": 0}, {"type": "note_off", "time": 87, "note": 60, "velocity": 91, "channel": 0}, {"type": "note_on", "time": 39, "note": 62, "velocity": 96, "channel": 0}, {"type": "note_off", "time": 42, "note": 62, "velocity": 96, "channel": 0}, {"type": "note_on", "time": 60, "note": 75, "velocity": 104, "channel": 0}, {"type": "note_off", "time": 305, "note": 75, "velocity": 104, "channel": 0}, {"type": "note_on", "time": 15, "note": 72, "velocity": 98, "channel": 0}, {"type": "note_off", "time": 58, "note": 72, "velocity": 98, "channel": 0}, {"type": "note_on", "time": 22, "note": 75, "velocity": 107, "channel": 0}, {"type": "note_off", "time": 153, "note": 75, "velocity": 107, "channel": 0}, {"type": "note_on", "time": 13, "note": 72, "velocity": 106, "channel": 0}, {"type": "note_off", "time": 99, "note": 72, "velocity": 106, "channel": 0}, {"type": "end_of_track", "time": 0}]]}