{"ticks_per_beat": 192, "tracks": [[{"type": "track_name", "name": "Melody", "time": 0}, {"type": "set_tempo", "tempo": 222222, "time": 0}, {"type": "key_signature", "key": "Bb", "time": 0}, {"type": "time_signature", "numerator": 4, "denominator": 4, "clocks_per_click": 24, "notated_32nd_notes_per_beat": 8, "time": 0}, {"type": "note_on", "time": 2282, "note": 50, "velocity": 90, "channel": 0}, {"type": "note_off", "time": 150, "note": 50, "velocity": 90, "channel": 0}, {"type": "note_on", "time": 50, "note": 53, "velocity": 105, "channel": 0}, {"type": "note_off", "time": 200, "note": 53, "velocity": 105, "channel": 0}, {"type": "note_on", "time": 0, "note": 57, "velocity": 109, "channel": 0}, {"type": "note_off", "time": 160, "note": 57, "velocity": 109, "channel": 0}, {"type": "note_on", "time": 15, "note": 53, "velocity": 84, "channel": 0}, {"type": "note_off", "time": 90, "note": 53, "velocity": 84, "channel": 0}, {"type": "note_on", "time": 40, "note": 58, "velocity": 108, "channel": 0}, {"type": "note_off", "time": 225, "note": 58, "velocity": 108, "channel": 0}, {"type": "note_on", "time": 165, "note": 55, "velocity": 103, "channel": 0}, {"type": "note_off", "time": 95, "note": 55, "velocity": 103, "channel": 0}, {"type": "note_on", "time": 0, "note": 62, "velocity": 113, "channel": 0}, {"type": "note_off", "time": 105, "note": 62, "velocity": 113, "channel": 0}, {"type": "note_on", "time": 0, "note": 60, "velocity": 108, "channel": 0}, {"type": "note_off", "time": 120, "note": 60, "velocity": 108, "channel": 0}, {"type": "note_on", "time": 0, "note": 58, "velocity": 95, "channel": 0}, {"type": "note_off", "time": 60, "note": 58, "velocity": 95, "channel": 0}, {"type": "note_on", "time": 20, "note": 55, "velocity": 94, "channel": 0}, {"type": "note_off", "time": 85, "note": 55, "velocity": 94, "channel": 0}, {"type": "note_on", "time": 5, "note": 60, "velocity": 113, "channel": 0}, {"type": "note_off", "time": 85, "note": 60, "velocity": 113, "channel": 0}, {"type": "note_on", "time": 10, "note": 62, "velocity": 115, "channel": 0}, {"type": "note_off", "time": 80, "note": 62, "velocity": 115, "channel": 0}, {"type": "note_on", "time": 10, "note": 63, "velocity": 122, "channel": 0}, {"type": "note_off", "time": 70, "note": 63, "velocity": 122, "channel": 0}, {"type": "note_on", "time": 15, "note": 64, "velocity": 127, "channel": 0}, {"type": "note_off", "time": 80, "note": 64, "velocity": 127, "channel": 0}, {"type": "note_on", "time": 5, "note": 65, "velocity": 118, "channel": 0}, {"type": "note_off", "time": 80, "note": 65, "velocity": 118, "channel": 0}, {"type": "note_on", "time": 10, "note": 63, "velocity": 121, "channel": 0}, {"type": "note_off", "time": 105, "note": 63, "velocity": 121, "channel": 0}, {"type": "note_on", "time": 25, "note": 62, "velocity": 110, "channel": 0}, {"type": "note_off", "time": 80, "note": 62, "velocity": 110, "channel": 0}, {"type": "note_on", "time": 0, "note": 60, "velocity": 111, "channel": 0}, {"type": "note_off", "time": 95, "note": 60, "velocity": 111, "channel": 0}, {"type": "note_on", "time": 0, "note": 58, "velocity": 106, "channel": 0}, {"type": "note_off", "time": 85, "note": 58, "velocity": 106, "channel": 0}, {"type": "note_on", "time": 20, "note": 56, "velocity": 108, "channel": 0}, {"type": "note_off", "time": 75, "note": 56, "velocity": 108, "channel": 0}, {"type": "note_on", "time": 5, "note": 55, "velocity": 107, "channel": 0}, {"type": "note_off", "time": 95, "note": 55, "velocity": 107, "channel": 0}, {"type": "note_on", "time": 20, "note": 53, "velocity": 105, "channel": 0}, {"type": "note_off", "time": 85, "note": 53, "velocity": 105, "channel": 0}, {"type": "note_on", "time": 5, "note": 51, "velocity": 94, "channel": 0}, {"type": "note_off", "time": 115, "note": 51, "velocity": 94, "channel": 0}, {"type": "note_on", "time": 70, "note": 58, "velocity": 107, "channel": 0}, {"type": "note_off", "time": 105, "note": 58, "velocity": 107, "channel": 0}, {"type": "note_on", "time": 90, "note": 61, "velocity": 109, "channel": 0}, {"type": "note_off", "time": 120, "note": 61, "velocity": 109, "channel": 0}, {"type": "note_on", "time": 10, "note": 65, "velocity": 99, "channel": 0}, {"type": "note_off", "time": 75, "note": 65, "velocity": 99, "channel": 0}, {"type": "note_on", "time": 0, "note": 69, "velocity": 114, "channel": 0}, {"type": "note_off", "time": 100, "note": 69, "velocity": 114, "channel": 0}, {"type": "note_on", "time": 0, "note": 67, "velocity": 115, "channel": 0}, {"type": "note_off", "time": 90, "note": 67, "velocity": 115, "channel": 0}, {"type": "note_on", "time": 5, "note": 65, "velocity": 109, "channel": 0}, {"type": "note_off", "time": 85, "note": 65, "velocity": 109, "channel": 0}, {"type": "note_on", "time": 15, "note": 63, "velocity": 119, "channel": 0}, {"type": "note_off", "time": 85, "note": 63, "velocity": 119, "channel": 0}, {"type": "note_on", "time": 10, "note": 62, "velocity": 113, "channel": 0}, {"type": "note_off", "time": 75, "note": 62, "velocity": 113, "channel": 0}, {"type": "note_on", "time": 20, "note": 60, "velocity": 109, "channel": 0}, {"type": "note_off", "time": 80, "note": 60, "velocity": 109, "channel": 0}, {"type": "note_on", "time": 30, "note": 58, "velocity": 108, "channel": 0}, {"type": "note_off", "time": 120, "note": 58, "velocity": 108, "channel": 0}, {"type": "note_on", "time": 817, "note": 62, "velocity": 121, "channel": 0}, {"type": "note_off", "time": 75, "note": 62, "velocity": 121, "channel": 0}, {"type": "note_on", "time": 20, "note": 63, "velocity": 124, "channel": 0}, {"type": "note_off", "time": 85, "note": 63, "velocity": 124, "channel": 0}, {"type": "note_on", "time": 0, "note": 59, "velocity": 106, "channel": 0}, {"type": "note_off", "time": 105, "note": 59, "velocity": 106, "channel": 0}, {"type": "note_on", "time": 0, "note": 56, "velocity": 91, "channel": 0}, {"type": "note_off", "time": 95, "note": 56, "velocity": 91, "channel": 0}, {"type": "note_on", "time": 15, "note": 59, "velocity": 106, "channel": 0}, {"type": "note_off", "time": 75, "note": 59, "velocity": 106, "channel": 0}, {"type": "note_on", "time": 0, "note": 62, "velocity": 114, "channel": 0}, {"type": "note_off", "time": 100, "note": 62, "velocity": 114, "channel": 0}, {"type": "note_on", "time": 0, "note": 60, "velocity": 104, "channel": 0}, {"type": "note_off", "time": 100, "note": 60, "velocity": 104, "channel": 0}, {"type": "note_on", "time": 15, "note": 62, "velocity": 115, "channel": 0}, {"type": "note_off", "time": 85, "note": 62, "velocity": 115, "channel": 0}, {"type": "note_on", "time": 10, "note": 63, "velocity": 121, "channel": 0}, {"type": "note_off", "time": 40, "note": 63, "velocity": 121, "channel": 0}, {"type": "note_on", "time": 15, "note": 64, "velocity": 121, "channel": 0}, {"type": "note_off", "time": 110, "note": 64, "velocity": 121, "channel": 0}, {"type": "note_on", "time": 15, "note": 65, "velocity": 111, "channel": 0}, {"type": "note_off", "time": 115, "note": 65, "velocity": 111, "channel": 0}, {"type": "note_on", "time": 0, "note": 67, "velocity": 110, "channel": 0}, {"type": "note_off", "time": 85, "note": 67, "velocity": 110, "channel": 0}, {"type": "note_on", "time": 15, "note": 69, "velocity": 96, "channel": 0}, {"type": "note_off", "time": 85, "note": 69, "velocity": 96, "channel": 0}, {"type": "note_on", "time": 15, "note": 70, "velocity": 115, "channel": 0}, {"type": "note_on", "time": 55, "note": 71, "velocity": 117, "channel": 0}, {"type": "note_off", "time": 0, "note": 70, "velocity": 115, "channel": 0}, {"type": "note_off", "time": 90, "note": 71, "velocity": 117, "channel": 0}, {"type": "note_on", "time": 0, "note": 72, "velocity": 109, "channel": 0}, {"type": "note_off", "time": 50, "note": 72, "velocity": 109, "channel": 0}, {"type": "note_on", "time": 5, "note": 71, "velocity": 107, "channel": 0}, {"type": "note_off", "time": 50, "note": 71, "velocity": 107, "channel": 0}, {"type": "note_on", "time": 0, "note": 69, "velocity": 109, "channel": 0}, {"type": "note_off", "time": 115, "note": 69, "velocity": 109, "channel": 0}, {"type": "note_on", "time": 0, "note": 65, "velocity": 95, "channel": 0}, {"type": "note_off", "time": 55, "note": 65, "velocity": 95, "channel": 0}, {"type": "note_on", "time": 20, "note": 70, "velocity": 116, "channel": 0}, {"type": "note_off", "time": 100, "note": 70, "velocity": 116, "channel": 0}, {"type": "note_on", "time": 25, "note": 71, "velocity": 116, "channel": 0}, {"type": "note_off", "time": 45, "note": 71, "velocity": 116, "channel": 0}, {"type": "note_on", "time": 15, "note": 68, "velocity": 108, "channel": 0}, {"type": "note_off", "time": 110, "note": 68, "velocity": 108, "channel": 0}, {"type": "note_on", "time": 0, "note": 64, "velocity": 113, "channel": 0}, {"type": "note_off", "time": 110, "note": 64, "velocity": 113, "channel": 0}, {"type": "note_on", "time": 30, "note": 61, "velocity": 89, "channel": 0}, {"type": "note_off", "time": 175, "note": 61, "velocity": 89, "channel": 0}, {"type": "note_on", "time": 65, "note": 70, "velocity": 110, "channel": 0}, {"type": "note_off", "time": 80, "note": 70, "velocity": 110, "channel": 0}, {"type": "note_on", "time": 10, "note": 69, "velocity": 114, "channel": 0}, {"type": "note_off", "time": 75, "note": 69, "velocity": 114, "channel": 0}, {"type": "note_on", "time": 20, "note": 67, "velocity": 112, "channel": 0}, {"type": "note_off", "time": 85, "note": 67, "velocity": 112, "channel": 0}, {"type": "note_on", "time": 0, "note": 65, "velocity": 106, "channel": 0}, {"type": "note_off", "time": 110, "note": 65, "velocity": 106, "channel": 0}, {"type": "note_on", "time": 0, "note": 63, "velocity": 119, "channel": 0}, {"type": "note_off", "time": 65, "note": 63, "velocity": 119, "channel": 0}, {"type": "note_on", "time": 15, "note": 62, "velocity": 113, "channel": 0}, {"type": "note_off", "time": 80, "note": 62, "velocity": 113, "channel": 0}, {"type": "note_on", "time": 30, "note": 60, "velocity": 108, "channel": 0}, {"type": "note_off", "time": 95, "note": 60, "velocity": 108, "channel": 0}, {"type": "note_on", "time": 15, "note": 58, "velocity": 101, "channel": 0}, {"type": "note_off", "time": 85, "note": 58, "velocity": 101, "channel": 0}, {"type": "note_on", "time": 20, "note": 55, "velocity": 96, "channel": 0}, {"type": "note_off", "time": 50, "note": 55, "velocity": 96, "channel": 0}, {"type": "note_on", "time": 0, "note": 63, "velocity": 116, "channel": 0}, {"type": "note_off", "time": 120, "note": 63, "velocity": 116, "channel": 0}, {"type": "note_on", "time": 15, "note": 60, "velocity": 107, "channel": 0}, {"type": "note_off", "time": 75, "note": 60, "velocity": 107, "channel": 0}, {"type": "note_on", "time": 0, "note": 56, "velocity": 106, "channel": 0}, {"type": "note_off", "time": 105, "note": 56, "velocity": 106, "channel": 0}, {"type": "note_on", "time": 30, "note": 53, "velocity": 96, "channel": 0}, {"type": "note_off", "time": 45, "note": 53, "velocity": 96, "channel": 0}, {"type": "note_on", "time": 5, "note": 55, "velocity": 106, "channel": 0}, {"type": "note_off", "time": 130, "note": 55, "velocity": 106, "channel": 0}, {"type": "note_on", "time": 25, "note": 58, "velocity": 82, "channel": 0}, {"type": "note_off", "time": 170, "note": 58, "velocity": 82, "channel": 0}, {"type": "note_on", "time": 837, "note": 53, "velocity": 99, "channel": 0}, {"type": "note_off", "time": 75, "note": 53, "velocity": 99, "channel": 0}, {"type": "note_on", "time": 0, "note": 55, "velocity": 100, "channel": 0}, {"type": "note_off", "time": 85, "note": 55, "velocity": 100, "channel": 0}, {"type": "note_on", "time": 0, "note": 57, "velocity": 96, "channel": 0}, {"type": "note_off", "time": 120, "note": 57, "velocity": 96, "channel": 0}, {"type": "note_on", "time": 0, "note": 60, "velocity": 107, "channel": 0}, {"type": "note_off", "time": 130, "note": 60, "velocity": 107, "channel": 0}, {"type": "note_on", "time": 35, "note": 58, "velocity": 111, "channel": 0}, {"type": "note_off", "time": 95, "note": 58, "velocity": 111, "channel": 0}, {"type": "note_on", "time": 5, "note": 62, "velocity": 102, "channel": 0}, {"type": "note_off", "time": 105, "note": 62, "velocity": 102, "channel": 0}, {"type": "note_on", "time": 0, "note": 65, "velocity": 105, "channel": 0}, {"type": "note_on", "time": 55, "note": 69, "velocity": 119, "channel": 0}, {"type": "note_off", "time": 0, "note": 65, "velocity": 105, "channel": 0}, {"type": "note_off", "time": 95, "note": 69, "velocity": 119, "channel": 0}, {"type": "note_on", "time": 0, "note": 67, "velocity": 115, "channel": 0}, {"type": "note_off", "time": 105, "note": 67, "velocity": 115, "channel": 0}, {"type": "note_on", "time": 10, "note": 65, "velocity": 115, "channel": 0}, {"type": "note_off", "time": 105, "note": 65, "velocity": 115, "channel": 0}, {"type": "note_on", "time": 15, "note": 62, "velocity": 104, "channel": 0}, {"type": "note_off", "time": 45, "note": 62, "velocity": 104, "channel": 0}, {"type": "note_on", "time": 0, "note": 64, "velocity": 121, "channel": 0}, {"type": "note_off", "time": 275, "note": 64, "velocity": 121, "channel": 0}, {"type": "note_on", "time": 0, "note": 67, "velocity": 109, "channel": 0}, {"type": "note_on", "time": 55, "note": 70, "velocity": 114, "channel": 0}, {"type": "note_off", "time": 0, "note": 67, "velocity": 109, "channel": 0}, {"type": "note_off", "time": 70, "note": 70, "velocity": 114, "channel": 0}, {"type": "note_on", "time": 0, "note": 68, "velocity": 110, "channel": 0}, {"type": "note_off", "time": 235, "note": 68, "velocity": 110, "channel": 0}, {"type": "note_on", "time": 35, "note": 71, "velocity": 108, "channel": 0}, {"type": "note_off", "time": 95, "note": 71, "velocity": 108, "channel": 0}, {"type": "note_on", "time": 15, "note": 67, "velocity": 104, "channel": 0}, {"type": "note_off", "time": 65, "note": 67, "velocity": 104, "channel": 0}, {"type": "note_on", "time": 120, "note": 71, "velocity": 114, "channel": 0}, {"type": "note_off", "time": 105, "note": 71, "velocity": 114, "channel": 0}, {"type": "note_on", "time": 10, "note": 66, "velocity": 104, "channel": 0}, {"type": "note_off", "time": 90, "note": 66, "velocity": 104, "channel": 0}, {"type": "note_on", "time": 817, "note": 62, "velocity": 113, "channel": 0}, {"type": "note_off", "time": 115, "note": 62, "velocity": 113, "channel": 0}, {"type": "note_on", "time": 25, "note": 61, "velocity": 104, "channel": 0}, {"type": "note_off", "time": 40, "note": 61, "velocity": 104, "channel": 0}, {"type": "note_on", "time": 20, "note": 62, "velocity": 109, "channel": 0}, {"type": "note_off", "time": 50, "note": 62, "velocity": 109, "channel": 0}, {"type": "note_on", "time": 25, "note": 64, "velocity": 115, "channel": 0}, {"type": "note_off", "time": 105, "note": 64, "velocity": 115, "channel": 0}, {"type": "note_on", "time": 15, "note": 65, "velocity": 113, "channel": 0}, {"type": "note_off", "time": 55, "note": 65, "velocity": 113, "channel": 0}, {"type": "note_on", "time": 35, "note": 67, "velocity": 113, "channel": 0}, {"type": "note_off", "time": 85, "note": 67, "velocity": 113, "channel": 0}, {"type": "note_on", "time": 0, "note": 69, "velocity": 115, "channel": 0}, {"type": "note_off", "time": 90, "note": 69, "velocity": 115, "channel": 0}, {"type": "note_on", "time": 10, "note": 72, "velocity": 114, "channel": 0}, {"type": "note_on", "time": 70, "note": 71, "velocity": 109, "channel": 0}, {"type": "note_off", "time": 0, "note": 72, "velocity": 114, "channel": 0}, {"type": "note_off", "time": 90, "note": 71, "velocity": 109, "channel": 0}, {"type": "note_on", "time": 25, "note": 69, "velocity": 113, "channel": 0}, {"type": "note_off", "time": 85, "note": 69, "velocity": 113, "channel": 0}, {"type": "note_on", "time": 10, "note": 67, "velocity": 106, "channel": 0}, {"type": "note_off", "time": 80, "note": 67, "velocity": 106, "channel": 0}, {"type": "note_on", "time": 10, "note": 65, "velocity": 110, "channel": 0}, {"type": "note_off", "time": 100, "note": 65, "velocity": 110, "channel": 0}, {"type": "note_on", "time": 20, "note": 64, "velocity": 101, "channel": 0}, {"type": "note_off", "time": 105, "note": 64, "velocity": 101, "channel": 0}, {"type": "note_on", "time": 264, "note": 65, "velocity": 105, "channel": 0}, {"type": "note_off", "time": 112, "note": 65, "velocity": 105, "channel": 0}, {"type": "note_on", "time": 3, "note": 62, "velocity": 98, "channel": 0}, {"type": "note_off", "time": 91, "note": 62, "velocity": 98, "channel": 0}, {"type": "note_on", "time": 14, "note": 66, "velocity": 101, "channel": 0}, {"type": "note_off", "time": 91, "note": 66, "velocity": 101, "channel": 0}, {"type": "note_on", "time": 10, "note": 69, "velocity": 112, "channel": 0}, {"type": "note_off", "time": 95, "note": 69, "velocity": 112, "channel": 0}, {"type": "note_on", "time": 3, "note": 67, "velocity": 103, "channel": 0}, {"type": "note_off", "time": 84, "note": 67, "velocity": 103, "channel": 0}, {"type": "note_on", "time": 3, "note": 62, "velocity": 96, "channel": 0}, {"type": "note_off", "time": 88, "note": 62, "velocity": 96, "channel": 0}, {"type": "note_on", "time": 21, "note": 65, "velocity": 108, "channel": 0}, {"type": "note_off", "time": 102, "note": 65, "velocity": 108, "channel": 0}, {"type": "note_on", "time": 17, "note": 62, "velocity": 99, "channel": 0}, {"type": "note_off", "time": 49, "note": 62, "velocity": 99, "channel": 0}, {"type": "note_on", "time": 0, "note": 64, "velocity": 115, "channel": 0}, {"type": "note_off", "time": 123, "note": 64, "velocity": 115, "channel": 0}, {"type": "note_on", "time": 10, "note": 60, "velocity": 101, "channel": 0}, {"type": "note_off", "time": 112, "note": 60, "velocity": 101, "channel": 0}, {"type": "note_on", "time": 673, "note": 55, "velocity": 94, "channel": 0}, {"type": "note_off", "time": 77, "note": 55, "velocity": 94, "channel": 0}, {"type": "note_on", "time": 7, "note": 59, "velocity": 90, "channel": 0}, {"type": "note_off", "time": 81, "note": 59, "velocity": 90, "channel": 0}, {"type": "note_on", "time": 0, "note": 62, "velocity": 106, "channel": 0}, {"type": "note_off", "time": 95, "note": 62, "velocity": 106, "channel": 0}, {"type": "note_on", "time": 0, "note": 60, "velocity": 96, "channel": 0}, {"type": "note_off", "time": 109, "note": 60, "velocity": 96, "channel": 0}, {"type": "note_on", "time": 0, "note": 63, "velocity": 121, "channel": 0}, {"type": "note_off", "time": 98, "note": 63, "velocity": 121, "channel": 0}, {"type": "note_on", "time": 14, "note": 62, "velocity": 108, "channel": 0}, {"type": "note_off", "time": 91, "note": 62, "velocity": 108, "channel": 0}, {"type": "note_on", "time": 7, "note": 60, "velocity": 88, "channel": 0}, {"type": "note_off", "time": 45, "note": 60, "velocity": 88, "channel": 0}, {"type": "note_on", "time": 0, "note": 65, "velocity": 113, "channel": 0}, {"type": "note_off", "time": 119, "note": 65, "velocity": 113, "channel": 0}, {"type": "note_on", "time": 21, "note": 63, "velocity": 117, "channel": 0}, {"type": "note_on", "time": 67, "note": 62, "velocity": 115, "channel": 0}, {"type": "note_off", "time": 0, "note": 63, "velocity": 117, "channel": 0}, {"type": "note_off", "time": 70, "note": 62, "velocity": 115, "channel": 0}, {"type": "note_on", "time": 31, "note": 60, "velocity": 103, "channel": 0}, {"type": "note_off", "time": 102, "note": 60, "velocity": 103, "channel": 0}, {"type": "note_on", "time": 0, "note": 58, "velocity": 94, "channel": 0}, {"type": "note_off", "time": 74, "note": 58, "velocity": 94, "channel": 0}, {"type": "note_on", "time": 35, "note": 60, "velocity": 103, "channel": 0}, {"type": "note_off", "time": 88, "note": 60, "velocity": 103, "channel": 0}, {"type": "note_on", "time": 201, "note": 69, "velocity": 114, "channel": 0}, {"type": "note_off", "time": 91, "note": 69, "velocity": 114, "channel": 0}, {"type": "note_on", "time": 3, "note": 70, "velocity": 115, "channel": 0}, {"type": "note_off", "time": 95, "note": 70, "velocity": 115, "channel": 0}, {"type": "note_on", "time": 17, "note": 65, "velocity": 108, "channel": 0}, {"type": "note_off", "time": 91, "note": 65, "velocity": 108, "channel": 0}, {"type": "note_on", "time": 24, "note": 62, "velocity": 97, "channel": 0}, {"type": "note_off", "time": 91, "note": 62, "velocity": 97, "channel": 0}, {"type": "note_on", "time": 0, "note": 66, "velocity": 107, "channel": 0}, {"type": "note_off", "time": 74, "note": 66, "velocity": 107, "channel": 0}, {"type": "note_on", "time": 10, "note": 67, "velocity": 107, "channel": 0}, {"type": "note_off", "time": 67, "note": 67, "velocity": 107, "channel": 0}, {"type": "note_on", "time": 0, "note": 63, "velocity": 115, "channel": 0}, {"type": "note_off", "time": 88, "note": 63, "velocity": 115, "channel": 0}, {"type": "note_on", "time": 35, "note": 60, "velocity": 85, "channel": 0}, {"type": "note_off", "time": 88, "note": 60, "velocity": 85, "channel": 0}, {"type": "note_on", "time": 0, "note": 65, "velocity": 114, "channel": 0}, {"type": "note_off", "time": 81, "note": 65, "velocity": 114, "channel": 0}, {"type": "note_on", "time": 21, "note": 60, "velocity": 99, "channel": 0}, {"type": "note_off", "time": 91, "note": 60, "velocity": 99, "channel": 0}, {"type": "note_on", "time": 560, "note": 63, "velocity": 121, "channel": 0}, {"type": "note_off", "time": 81, "note": 63, "velocity": 121, "channel": 0}, {"type": "note_on", "time": 14, "note": 62, "velocity": 111, "channel": 0}, {"type": "note_off", "time": 56, "note": 62, "velocity": 111, "channel": 0}, {"type": "note_on", "time": 7, "note": 60, "velocity": 97, "channel": 0}, {"type": "note_off", "time": 56, "note": 60, "velocity": 97, "channel": 0}, {"type": "note_on", "time": 14, "note": 59, "velocity": 106, "channel": 0}, {"type": "note_off", "time": 95, "note": 59, "velocity": 106, "channel": 0}, {"type": "note_on", "time": 0, "note": 62, "velocity": 110, "channel": 0}, {"type": "note_off", "time": 84, "note": 62, "velocity": 110, "channel": 0}, {"type": "note_on", "time": 0, "note": 60, "velocity": 100, "channel": 0}, {"type": "note_off", "time": 109, "note": 60, "velocity": 100, "channel": 0}, {"type": "note_on", "time": 3, "note": 62, "velocity": 111, "channel": 0}, {"type": "note_off", "time": 91, "note": 62, "velocity": 111, "channel": 0}, {"type": "note_on", "time": 21, "note": 63, "velocity": 107, "channel": 0}, {"type": "note_off", "time": 77, "note": 63, "velocity": 107, "channel": 0}, {"type": "note_on", "time": 21, "note": 64, "velocity": 102, "channel": 0}, {"type": "note_off", "time": 77, "note": 64, "velocity": 102, "channel": 0}, {"type": "note_on", "time": 0, "note": 65, "velocity": 112, "channel": 0}, {"type": "note_off", "time": 88, "note": 65, "velocity": 112, "channel": 0}, {"type": "note_on", "time": 35, "note": 63, "velocity": 117, "channel": 0}, {"type": "note_off", "time": 56, "note": 63, "velocity": 117, "channel": 0}, {"type": "note_on", "time": 21, "note": 62, "velocity": 110, "channel": 0}, {"type": "note_off", "time": 91, "note": 62, "velocity": 110, "channel": 0}, {"type": "note_on", "time": 21, "note": 60, "velocity": 99, "channel": 0}, {"type": "note_off", "time": 84, "note": 60, "velocity": 99, "channel": 0}, {"type": "note_on", "time": 7, "note": 58, "velocity": 96, "channel": 0}, {"type": "note_off", "time": 84, "note": 58, "velocity": 96, "channel": 0}, {"type": "note_on", "time": 35, "note": 57, "velocity": 92, "channel": 0}, {"type": "note_off", "time": 74, "note": 57, "velocity": 92, "channel": 0}, {"type": "note_on", "time": 24, "note": 56, "velocity": 88, "channel": 0}, {"type": "note_off", "time": 77, "note": 56, "velocity": 88, "channel": 0}, {"type": "note_on", "time": 3, "note": 58, "velocity": 96, "channel": 0}, {"type": "note_off", "time": 84, "note": 58, "velocity": 96, "channel": 0}, {"type": "note_on", "time": 0, "note": 60, "velocity": 92, "channel": 0}, {"type": "note_off", "time": 84, "note": 60, "velocity": 92, "channel": 0}, {"type": "note_on", "time": 14, "note": 62, "velocity": 107, "channel": 0}, {"type": "note_off", "time": 91, "note": 62, "velocity": 107, "channel": 0}, {"type": "note_on", "time": 31, "note": 63, "velocity": 94, "channel": 0}, {"type": "note_off", "time": 81, "note": 63, "velocity": 94, "channel": 0}, {"type": "note_on", "time": 0, "note": 65, "velocity": 101, "channel": 0}, {"type": "note_off", "time": 91, "note": 65, "velocity": 101, "channel": 0}, {"type": "note_on", "time": 3, "note": 67, "velocity": 112, "channel": 0}, {"type": "note_off", "time": 88, "note": 67, "velocity": 112, "channel": 0}, {"type": "note_on", "time": 31, "note": 63, "velocity": 100, "channel": 0}, {"type": "note_off", "time": 67, "note": 63, "velocity": 100, "channel": 0}, {"type": "note_on", "time": 0, "note": 70, "velocity": 113, "channel": 0}, {"type": "note_off", "time": 98, "note": 70, "velocity": 113, "channel": 0}, {"type": "note_on", "time": 10, "note": 66, "velocity": 106, "channel": 0}, {"type": "note_off", "time": 88, "note": 66, "velocity": 106, "channel": 0}, {"type": "note_on", "time": 10, "note": 65, "velocity": 107, "channel": 0}, {"type": "note_off", "time": 77, "note": 65, "velocity": 107, "channel": 0}, {"type": "note_on", "time": 21, "note": 63, "velocity": 116, "channel": 0}, {"type": "note_off", "time": 81, "note": 63, "velocity": 116, "channel": 0}, {"type": "note_on", "time": 14, "note": 62, "velocity": 109, "channel": 0}, {"type": "note_off", "time": 74, "note": 62, "velocity": 109, "channel": 0}, {"type": "note_on", "time": 3, "note": 60, "velocity": 100, "channel": 0}, {"type": "note_on", "time": 95, "note": 58, "velocity": 99, "channel": 0}, {"type": "note_off", "time": 0, "note": 60, "velocity": 100, "channel": 0}, {"type": "note_off", "time": 91, "note": 58, "velocity": 99, "channel": 0}, {"type": "note_on", "time": 24, "note": 57, "velocity": 84, "channel": 0}, {"type": "note_off", "time": 52, "note": 57, "velocity": 84, "channel": 0}, {"type": "note_on", "time": 172, "note": 62, "velocity": 107, "channel": 0}, {"type": "note_off", "time": 119, "note": 62, "velocity": 107, "channel": 0}, {"type": "note_on", "time": 21, "note": 63, "velocity": 117, "channel": 0}, {"type": "note_off", "time": 91, "note": 63, "velocity": 117, "channel": 0}, {"type": "note_on", "time": 0, "note": 59, "velocity": 81, "channel": 0}, {"type": "note_off", "time": 74, "note": 59, "velocity": 81, "channel": 0}, {"type": "note_on", "time": 10, "note": 62, "velocity": 110, "channel": 0}, {"type": "note_off", "time": 109, "note": 62, "velocity": 110, "channel": 0}, {"type": "note_on", "time": 14, "note": 60, "velocity": 93, "channel": 0}, {"type": "note_off", "time": 88, "note": 60, "velocity": 93, "channel": 0}, {"type": "note_on", "time": 0, "note": 62, "velocity": 109, "channel": 0}, {"type": "note_off", "time": 91, "note": 62, "velocity": 109, "channel": 0}, {"type": "note_on", "time": 14, "note": 63, "velocity": 105, "channel": 0}, {"type": "note_off", "time": 74, "note": 63, "velocity": 105, "channel": 0}, {"type": "note_on", "time": 7, "note": 64, "velocity": 105, "channel": 0}, {"type": "note_off", "time": 98, "note": 64, "velocity": 105, "channel": 0}, {"type": "note_on", "time": 3, "note": 65, "velocity": 110, "channel": 0}, {"type": "note_off", "time": 98, "note": 65, "velocity": 110, "channel": 0}, {"type": "note_on", "time": 7, "note": 67, "velocity": 101, "channel": 0}, {"type": "note_off", "time": 81, "note": 67, "velocity": 101, "channel": 0}, {"type": "note_on", "time": 0, "note": 69, "velocity": 116, "channel": 0}, {"type": "note_off", "time": 88, "note": 69, "velocity": 116, "channel": 0}, {"type": "note_on", "time": 19, "note": 65, "velocity": 96, "channel": 0}, {"type": "note_off", "time": 58, "note": 65, "velocity": 96, "channel": 0}, {"type": "note_on", "time": 7, "note": 70, "velocity": 113, "channel": 0}, {"type": "note_off", "time": 260, "note": 70, "velocity": 113, "channel": 0}, {"type": "note_on", "time": 24, "note": 65, "velocity": 108, "channel": 0}, {"type": "note_off", "time": 338, "note": 65, "velocity": 108, "channel": 0}, {"type": "note_on", "time": 28, "note": 62, "velocity": 110, "channel": 0}, {"type": "note_off", "time": 130, "note": 62, "velocity": 110, "channel": 0}, {"type": "note_on", "time": 0, "note": 60, "velocity": 92, "channel": 0}, {"type": "note_off", "time": 310, "note": 60, "velocity": 92, "channel": 0}, {"type": "note_on", "time": 28, "note": 67, "velocity": 100, "channel": 0}, {"type": "note_off", "time": 257, "note": 67, "velocity": 100, "channel": 0}, {"type": "note_on", "time": 952, "note": 69, "velocity": 114, "channel": 0}, {"type": "note_off", "time": 126, "note": 69, "velocity": 114, "channel": 0}, {"type": "note_on", "time": 3, "note": 67, "velocity": 110, "channel": 0}, {"type": "note_on", "time": 95, "note": 65, "velocity": 114, "channel": 0}, {"type": "note_off", "time": 0, "note": 67, "velocity": 110, "channel": 0}, {"type": "note_off", "time": 95, "note": 65, "velocity": 114, "channel": 0}, {"type": "note_on", "time": 10, "note": 62, "velocity": 110, "channel": 0}, {"type": "note_off", "time": 84, "note": 62, "velocity": 110, "channel": 0}, {"type": "note_on", "time": 3, "note": 63, "velocity": 122, "channel": 0}, {"type": "note_off", "time": 56, "note": 63, "velocity": 122, "channel": 0}, {"type": "note_on", "time": 17, "note": 64, "velocity": 107, "channel": 0}, {"type": "note_off", "time": 45, "note": 64, "velocity": 107, "channel": 0}, {"type": "note_on", "time": 3, "note": 63, "velocity": 118, "channel": 0}, {"type": "note_on", "time": 84, "note": 62, "velocity": 111, "channel": 0}, {"type": "note_off", "time": 0, "note": 63, "velocity": 118, "channel": 0}, {"type": "note_off", "time": 74, "note": 62, "velocity": 111, "channel": 0}, {"type": "note_on", "time": 7, "note": 60, "velocity": 109, "channel": 0}, {"type": "note_off", "time": 63, "note": 60, "velocity": 109, "channel": 0}, {"type": "note_on", "time": 31, "note": 58, "velocity": 97, "channel": 0}, {"type": "note_off", "time": 119, "note": 58, "velocity": 97, "channel": 0}, {"type": "note_on", "time": 190, "note": 58, "velocity": 94, "channel": 0}, {"type": "note_off", "time": 28, "note": 58, "velocity": 94, "channel": 0}, {"type": "note_on", "time": 0, "note": 60, "velocity": 102, "channel": 0}, {"type": "note_off", "time": 77, "note": 60, "velocity": 102, "channel": 0}, {"type": "note_on", "time": 10, "note": 62, "velocity": 105, "channel": 0}, {"type": "note_off", "time": 67, "note": 62, "velocity": 105, "channel": 0}, {"type": "note_on", "time": 28, "note": 63, "velocity": 120, "channel": 0}, {"type": "note_off", "time": 91, "note": 63, "velocity": 120, "channel": 0}, {"type": "note_on", "time": 7, "note": 65, "velocity": 102, "channel": 0}, {"type": "note_off", "time": 105, "note": 65, "velocity": 102, "channel": 0}, {"type": "note_on", "time": 14, "note": 67, "velocity": 106, "channel": 0}, {"type": "note_off", "time": 77, "note": 67, "velocity": 106, "channel": 0}, {"type": "note_on", "time": 0, "note": 70, "velocity": 104, "channel": 0}, {"type": "note_off", "time": 31, "note": 70, "velocity": 104, "channel": 0}, {"type": "note_on", "time": 98, "note": 70, "velocity": 109, "channel": 0}, {"type": "note_off", "time": 486, "note": 70, "velocity": 109, "channel": 0}, {"type": "note_on", "time": 3, "note": 67, "velocity": 110, "channel": 0}, {"type": "note_off", "time": 109, "note": 67, "velocity": 110, "channel": 0}, {"type": "note_on", "time": 10, "note": 65, "velocity": 114, "channel": 0}, {"type": "note_off", "time": 81, "note": 65, "velocity": 114, "channel": 0}, {"type": "note_on", "time": 21, "note": 60, "velocity": 108, "channel": 0}, {"type": "note_off", "time": 105, "note": 60, "velocity": 108, "channel": 0}, {"type": "note_on", "time": 1336, "note": 69, "velocity": 118, "channel": 0}, {"type": "note_off", "time": 56, "note": 69, "velocity": 118, "channel": 0}, {"type": "note_on", "time": 0, "note": 71, "velocity": 113, "channel": 0}, {"type": "note_off", "time": 38, "note": 71, "velocity": 113, "channel": 0}, {"type": "note_on", "time": 7, "note": 73, "velocity": 117, "channel": 0}, {"type": "note_off", "time": 63, "note": 73, "velocity": 117, "channel": 0}, {"type": "note_on", "time": 0, "note": 74, "velocity": 116, "channel": 0}, {"type": "note_off", "time": 81, "note": 74, "velocity": 116, "channel": 0}, {"type": "note_on", "time": 7, "note": 73, "velocity": 114, "channel": 0}, {"type": "note_off", "time": 52, "note": 73, "velocity": 114, "channel": 0}, {"type": "note_on", "time": 7, "note": 72, "velocity": 115, "channel": 0}, {"type": "note_off", "time": 105, "note": 72, "velocity": 115, "channel": 0}, {"type": "note_on", "time": 0, "note": 71, "velocity": 107, "channel": 0}, {"type": "note_off", "time": 59, "note": 71, "velocity": 107, "channel": 0}, {"type": "note_on", "time": 7, "note": 70, "velocity": 106, "channel": 0}, {"type": "note_on", "time": 14, "note": 67, "velocity": 109, "channel": 0}, {"type": "note_off", "time": 0, "note": 70, "velocity": 106, "channel": 0}, {"type": "note_off", "time": 119, "note": 67, "velocity": 109, "channel": 0}, {"type": "note_on", "time": 70, "note": 67, "velocity": 98, "channel": 0}, {"type": "note_off", "time": 67, "note": 67, "velocity": 98, "channel": 0}, {"type": "note_on", "time": 0, "note": 74, "velocity": 109, "channel": 0}, {"type": "note_off", "time": 126, "note": 74, "velocity": 109, "channel": 0}, {"type": "note_on", "time": 0, "note": 72, "velocity": 119, "channel": 0}, {"type": "note_off", "time": 74, "note": 72, "velocity": 119, "channel": 0}, {"type": "note_on", "time": 0, "note": 70, "velocity": 117, "channel": 0}, {"type": "note_off", "time": 144, "note": 70, "velocity": 117, "channel": 0}, {"type": "note_on", "time": 0, "note": 67, "velocity": 99, "channel": 0}, {"type": "note_off", "time": 35, "note": 67, "velocity": 99, "channel": 0}, {"type": "note_on", "time": 0, "note": 69, "velocity": 114, "channel": 0}, {"type": "note_off", "time": 116, "note": 69, "velocity": 114, "channel": 0}, {"type": "note_on", "time": 10, "note": 65, "velocity": 100, "channel": 0}, {"type": "note_off", "time": 88, "note": 65, "velocity": 100, "channel": 0}, {"type": "note_on", "time": 98, "note": 69, "velocity": 103, "channel": 0}, {"type": "note_off", "time": 63, "note": 69, "velocity": 103, "channel": 0}, {"type": "note_on", "time": 0, "note": 70, "velocity": 111, "channel": 0}, {"type": "note_off", "time": 148, "note": 70, "velocity": 111, "channel": 0}, {"type": "note_on", "time": 0, "note": 69, "velocity": 95, "channel": 0}, {"type": "note_off", "time": 52, "note": 69, "velocity": 95, "channel": 0}, {"type": "note_on", "time": 0, "note": 70, "velocity": 114, "channel": 0}, {"type": "note_off", "time": 123, "note": 70, "velocity": 114, "channel": 0}, {"type": "note_on", "time": 7, "note": 67, "velocity": 97, "channel": 0}, {"type": "note_off", "time": 70, "note": 67, "velocity": 97, "channel": 0}, {"type": "note_on", "time": 0, "note": 68, "velocity": 111, "channel": 0}, {"type": "note_off", "time": 116, "note": 68, "velocity": 111, "channel": 0}, {"type": "note_on", "time": 7, "note": 65, "velocity": 113, "channel": 0}, {"type": "note_off", "time": 88, "note": 65, "velocity": 113, "channel": 0}, {"type": "note_on", "time": 3, "note": 61, "velocity": 96, "channel": 0}, {"type": "note_off", "time": 56, "note": 61, "velocity": 96, "channel": 0}, {"type": "note_on", "time": 0, "note": 65, "velocity": 98, "channel": 0}, {"type": "note_off", "time": 45, "note": 65, "velocity": 98, "channel": 0}, {"type": "note_on", "time": 0, "note": 68, "velocity": 109, "channel": 0}, {"type": "note_off", "time": 70, "note": 68, "velocity": 109, "channel": 0}, {"type": "note_on", "time": 17, "note": 67, "velocity": 111, "channel": 0}, {"type": "note_off", "time": 81, "note": 67, "velocity": 111, "channel": 0}, {"type": "note_on", "time": 0, "note": 64, "velocity": 118, "channel": 0}, {"type": "note_off", "time": 84, "note": 64, "velocity": 118, "channel": 0}, {"type": "note_on", "time": 38, "note": 62, "velocity": 113, "channel": 0}, {"type": "note_off", "time": 91, "note": 62, "velocity": 113, "channel": 0}, {"type": "note_on", "time": 7, "note": 60, "velocity": 98, "channel": 0}, {"type": "note_off", "time": 81, "note": 60, "velocity": 98, "channel": 0}, {"type": "note_on", "time": 3, "note": 59, "velocity": 93, "channel": 0}, {"type": "note_off", "time": 88, "note": 59, "velocity": 93, "channel": 0}, {"type": "note_on", "time": 17, "note": 61, "velocity": 105, "channel": 0}, {"type": "note_off", "time": 70, "note": 61, "velocity": 105, "channel": 0}, {"type": "note_on", "time": 0, "note": 63, "velocity": 106, "channel": 0}, {"type": "note_off", "time": 88, "note": 63, "velocity": 106, "channel": 0}, {"type": "note_on", "time": 35, "note": 65, "velocity": 104, "channel": 0}, {"type": "note_off", "time": 81, "note": 65, "velocity": 104, "channel": 0}, {"type": "note_on", "time": 7, "note": 67, "velocity": 109, "channel": 0}, {"type": "note_off", "time": 109, "note": 67, "velocity": 109, "channel": 0}, {"type": "note_on", "time": 0, "note": 62, "velocity": 104, "channel": 0}, {"type": "note_off", "time": 74, "note": 62, "velocity": 104, "channel": 0}, {"type": "note_on", "time": 7, "note": 65, "velocity": 112, "channel": 0}, {"type": "note_off", "time": 186, "note": 65, "velocity": 112, "channel": 0}, {"type": "note_on", "time": 3, "note": 62, "velocity": 112, "channel": 0}, {"type": "note_off", "time": 81, "note": 62, "velocity": 112, "channel": 0}, {"type": "note_on", "time": 31, "note": 60, "velocity": 103, "channel": 0}, {"type": "note_off", "time": 74, "note": 60, "velocity": 103, "channel": 0}, {"type": "note_on", "time": 28, "note": 58, "velocity": 99, "channel": 0}, {"type": "note_off", "time": 112, "note": 58, "velocity": 99, "channel": 0}, {"type": "note_on", "time": 3, "note": 55, "velocity": 94, "channel": 0}, {"type": "note_off", "time": 45, "note": 55, "velocity": 94, "channel": 0}, {"type": "note_on", "time": 0, "note": 63, "velocity": 119, "channel": 0}, {"type": "note_off", "time": 126, "note": 63, "velocity": 119, "channel": 0}, {"type": "note_on", "time": 3, "note": 65, "velocity": 112, "channel": 0}, {"type": "note_off", "time": 102, "note": 65, "velocity": 112, "channel": 0}, {"type": "note_on", "time": 7, "note": 67, "velocity": 109, "channel": 0}, {"type": "note_off", "time": 105, "note": 67, "velocity": 109, "channel": 0}, {"type": "note_on", "time": 0, "note": 63, "velocity": 103, "channel": 0}, {"type": "note_off", "time": 56, "note": 63, "velocity": 103, "channel": 0}, {"type": "note_on", "time": 0, "note": 70, "velocity": 96, "channel": 0}, {"type": "note_off", "time": 102, "note": 70, "velocity": 96, "channel": 0}, {"type": "note_on", "time": 10, "note": 66, "velocity": 109, "channel": 0}, {"type": "note_off", "time": 67, "note": 66, "velocity": 109, "channel": 0}, {"type": "note_on", "time": 0, "note": 63, "velocity": 122, "channel": 0}, {"type": "note_off", "time": 105, "note": 63, "velocity": 122, "channel": 0}, {"type": "note_on", "time": 28, "note": 60, "velocity": 89, "channel": 0}, {"type": "note_off", "time": 45, "note": 60, "velocity": 89, "channel": 0}, {"type": "note_on", "time": 3, "note": 65, "velocity": 115, "channel": 0}, {"type": "note_off", "time": 109, "note": 65, "velocity": 115, "channel": 0}, {"type": "note_on", "time": 21, "note": 62, "velocity": 113, "channel": 0}, {"type": "note_off", "time": 84, "note": 62, "velocity": 113, "channel": 0}, {"type": "note_on", "time": 21, "note": 58, "velocity": 102, "channel": 0}, {"type": "note_off", "time": 91, "note": 58, "velocity": 102, "channel": 0}, {"type": "note_on", "time": 3, "note": 55, "velocity": 96, "channel": 0}, {"type": "note_off", "time": 70, "note": 55, "velocity": 96, "channel": 0}, {"type": "note_on", "time": 3, "note": 63, "velocity": 122, "channel": 0}, {"type": "note_off", "time": 109, "note": 63, "velocity": 122, "channel": 0}, {"type": "note_on", "time": 24, "note": 60, "velocity": 102, "channel": 0}, {"type": "note_off", "time": 74, "note": 60, "velocity": 102, "channel": 0}, {"type": "note_on", "time": 10, "note": 57, "velocity": 96, "channel": 0}, {"type": "note_off", "time": 63, "note": 57, "velocity": 96, "channel": 0}, {"type": "note_on", "time": 31, "note": 53, "velocity": 101, "channel": 0}, {"type": "note_off", "time": 81, "note": 53, "velocity": 101, "channel": 0}, {"type": "note_on", "time": 3, "note": 62, "velocity": 113, "channel": 0}, {"type": "note_off", "time": 105, "note": 62, "velocity": 113, "channel": 0}, {"type": "note_on", "time": 0, "note": 60, "velocity": 104, "channel": 0}, {"type": "note_off", "time": 88, "note": 60, "velocity": 104, "channel": 0}, {"type": "note_on", "time": 17, "note": 58, "velocity": 104, "channel": 0}, {"type": "note_off", "time": 105, "note": 58, "velocity": 104, "channel": 0}, {"type": "note_on", "time": 0, "note": 53, "velocity": 90, "channel": 0}, {"type": "note_off", "time": 70, "note": 53, "velocity": 90, "channel": 0}, {"type": "note_on", "time": 701, "note": 60, "velocity": 102, "channel": 0}, {"type": "note_off", "time": 105, "note": 60, "velocity": 102, "channel": 0}, {"type": "note_on", "time": 98, "note": 60, "velocity": 105, "channel": 0}, {"type": "note_off", "time": 63, "note": 60, "velocity": 105, "channel": 0}, {"type": "note_on", "time": 0, "note": 64, "velocity": 110, "channel": 0}, {"type": "note_off", "time": 112, "note": 64, "velocity": 110, "channel": 0}, {"type": "note_on", "time": 24, "note": 67, "velocity": 102, "channel": 0}, {"type": "note_off", "time": 84, "note": 67, "velocity": 102, "channel": 0}, {"type": "note_on", "time": 3, "note": 69, "velocity": 112, "channel": 0}, {"type": "note_off", "time": 28, "note": 69, "velocity": 112, "channel": 0}, {"type": "note_on", "time": 3, "note": 71, "velocity": 112, "channel": 0}, {"type": "note_off", "time": 24, "note": 71, "velocity": 112, "channel": 0}, {"type": "note_on", "time": 14, "note": 72, "velocity": 113, "channel": 0}, {"type": "note_off", "time": 28, "note": 72, "velocity": 113, "channel": 0}, {"type": "note_on", "time": 0, "note": 73, "velocity": 116, "channel": 0}, {"type": "note_off", "time": 67, "note": 73, "velocity": 116, "channel": 0}, {"type": "note_on", "time": 0, "note": 74, "velocity": 113, "channel": 0}, {"type": "note_off", "time": 130, "note": 74, "velocity": 113, "channel": 0}, {"type": "note_on", "time": 0, "note": 71, "velocity": 110, "channel": 0}, {"type": "note_off", "time": 81, "note": 71, "velocity": 110, "channel": 0}, {"type": "note_on", "time": 7, "note": 72, "velocity": 115, "channel": 0}, {"type": "note_off", "time": 77, "note": 72, "velocity": 115, "channel": 0}, {"type": "note_on", "time": 0, "note": 69, "velocity": 114, "channel": 0}, {"type": "note_off", "time": 123, "note": 69, "velocity": 114, "channel": 0}, {"type": "note_on", "time": 955, "note": 61, "velocity": 109, "channel": 0}, {"type": "note_off", "time": 109, "note": 61, "velocity": 109, "channel": 0}, {"type": "note_on", "time": 0, "note": 62, "velocity": 116, "channel": 0}, {"type": "note_off", "time": 74, "note": 62, "velocity": 116, "channel": 0}, {"type": "note_on", "time": 0, "note": 64, "velocity": 116, "channel": 0}, {"type": "note_off", "time": 84, "note": 64, "velocity": 116, "channel": 0}, {"type": "note_on", "time": 17, "note": 61, "velocity": 103, "channel": 0}, {"type": "note_off", "time": 95, "note": 61, "velocity": 103, "channel": 0}, {"type": "note_on", "time": 3, "note": 62, "velocity": 111, "channel": 0}, {"type": "note_off", "time": 77, "note": 62, "velocity": 111, "channel": 0}, {"type": "note_on", "time": 0, "note": 64, "velocity": 109, "channel": 0}, {"type": "note_off", "time": 81, "note": 64, "velocity": 109, "channel": 0}, {"type": "note_on", "time": 3, "note": 65, "velocity": 114, "channel": 0}, {"type": "note_on", "time": 112, "note": 62, "velocity": 108, "channel": 0}, {"type": "note_off", "time": 0, "note": 65, "velocity": 114, "channel": 0}, {"type": "note_off", "time": 105, "note": 62, "velocity": 108, "channel": 0}, {"type": "note_on", "time": 10, "note": 67, "velocity": 110, "channel": 0}, {"type": "note_off", "time": 95, "note": 67, "velocity": 110, "channel": 0}, {"type": "note_on", "time": 24, "note": 64, "velocity": 120, "channel": 0}, {"type": "note_off", "time": 63, "note": 64, "velocity": 120, "channel": 0}, {"type": "note_on", "time": 7, "note": 60, "velocity": 105, "channel": 0}, {"type": "note_off", "time": 105, "note": 60, "velocity": 105, "channel": 0}, {"type": "note_on", "time": 21, "note": 55, "velocity": 90, "channel": 0}, {"type": "note_off", "time": 52, "note": 55, "velocity": 90, "channel": 0}, {"type": "note_on", "time": 0, "note": 58, "velocity": 96, "channel": 0}, {"type": "note_off", "time": 116, "note": 58, "velocity": 96, "channel": 0}, {"type": "note_on", "time": 31, "note": 60, "velocity": 103, "channel": 0}, {"type": "note_off", "time": 56, "note": 60, "velocity": 103, "channel": 0}, {"type": "note_on", "time": 38, "note": 65, "velocity": 101, "channel": 0}, {"type": "note_off", "time": 70, "note": 65, "velocity": 101, "channel": 0}, {"type": "note_on", "time": 0, "note": 69, "velocity": 108, "channel": 0}, {"type": "note_off", "time": 35, "note": 69, "velocity": 108, "channel": 0}, {"type": "note_on", "time": 0, "note": 72, "velocity": 114, "channel": 0}, {"type": "note_off", "time": 59, "note": 72, "velocity": 114, "channel": 0}, {"type": "note_on", "time": 3, "note": 69, "velocity": 113, "channel": 0}, {"type": "note_off", "time": 186, "note": 69, "velocity": 113, "channel": 0}, {"type": "note_on", "time": 10, "note": 64, "velocity": 112, "channel": 0}, {"type": "note_off", "time": 116, "note": 64, "velocity": 112, "channel": 0}, {"type": "note_on", "time": 0, "note": 60, "velocity": 96, "channel": 0}, {"type": "note_off", "time": 67, "note": 60, "velocity": 96, "channel": 0}, {"type": "note_on", "time": 7, "note": 58, "velocity": 97, "channel": 0}, {"type": "note_off", "time": 102, "note": 58, "velocity": 97, "channel": 0}, {"type": "note_on", "time": 1206, "note": 57, "velocity": 99, "channel": 0}, {"type": "note_off", "time": 67, "note": 57, "velocity": 99, "channel": 0}, {"type": "note_on", "time": 70, "note": 60, "velocity": 103, "channel": 0}, {"type": "note_off", "time": 28, "note": 60, "velocity": 103, "channel": 0}, {"type": "note_on", "time": 3, "note": 64, "velocity": 102, "channel": 0}, {"type": "note_off", "time": 63, "note": 64, "velocity": 102, "channel": 0}, {"type": "note_on", "time": 17, "note": 68, "velocity": 113, "channel": 0}, {"type": "note_off", "time": 102, "note": 68, "velocity": 113, "channel": 0}, {"type": "note_on", "time": 0, "note": 66, "velocity": 110, "channel": 0}, {"type": "note_off", "time": 67, "note": 66, "velocity": 110, "channel": 0}, {"type": "note_on", "time": 24, "note": 65, "velocity": 112, "channel": 0}, {"type": "note_off", "time": 84, "note": 65, "velocity": 112, "channel": 0}, {"type": "note_on", "time": 10, "note": 63, "velocity": 118, "channel": 0}, {"type": "note_off", "time": 81, "note": 63, "velocity": 118, "channel": 0}, {"type": "note_on", "time": 3, "note": 62, "velocity": 114, "channel": 0}, {"type": "note_off", "time": 102, "note": 62, "velocity": 114, "channel": 0}, {"type": "note_on", "time": 7, "note": 60, "velocity": 104, "channel": 0}, {"type": "note_off", "time": 70, "note": 60, "velocity": 104, "channel": 0}, {"type": "note_on", "time": 10, "note": 58, "velocity": 101, "channel": 0}, {"type": "note_off", "time": 98, "note": 58, "velocity": 101, "channel": 0}, {"type": "note_on", "time": 123, "note": 58, "velocity": 105, "channel": 0}, {"type": "note_off", "time": 387, "note": 58, "velocity": 105, "channel": 0}, {"type": "note_on", "time": 35, "note": 58, "velocity": 106, "channel": 0}, {"type": "note_off", "time": 77, "note": 58, "velocity": 106, "channel": 0}, {"type": "note_on", "time": 10, "note": 60, "velocity": 109, "channel": 0}, {"type": "note_off", "time": 126, "note": 60, "velocity": 109, "channel": 0}, {"type": "note_on", "time": 1124, "note": 58, "velocity": 100, "channel": 0}, {"type": "note_off", "time": 151, "note": 58, "velocity": 100, "channel": 0}, {"type": "note_on", "time": 38, "note": 60, "velocity": 110, "channel": 0}, {"type": "note_off", "time": 282, "note": 60, "velocity": 110, "channel": 0}, {"type": "note_on", "time": 49, "note": 58, "velocity": 91, "channel": 0}, {"type": "note_off", "time": 59, "note": 58, "velocity": 91, "channel": 0}, {"type": "note_on", "time": 7, "note": 60, "velocity": 109, "channel": 0}, {"type": "note_off", "time": 81, "note": 60, "velocity": 109, "channel": 0}, {"type": "note_on", "time": 10, "note": 63, "velocity": 117, "channel": 0}, {"type": "note_off", "time": 102, "note": 63, "velocity": 117, "channel": 0}, {"type": "note_on", "time": 3, "note": 62, "velocity": 113, "channel": 0}, {"type": "note_off", "time": 88, "note": 62, "velocity": 113, "channel": 0}, {"type": "note_on", "time": 0, "note": 60, "velocity": 104, "channel": 0}, {"type": "note_off", "time": 91, "note": 60, "velocity": 104, "channel": 0}, {"type": "note_on", "time": 10, "note": 58, "velocity": 99, "channel": 0}, {"type": "note_off", "time": 109, "note": 58, "velocity": 99, "channel": 0}, {"type": "note_on", "time": 179, "note": 58, "velocity": 102, "channel": 0}, {"type": "note_off", "time": 98, "note": 58, "velocity": 102, "channel": 0}, {"type": "note_on", "time": 3, "note": 60, "velocity": 93, "channel": 0}, {"type": "note_off", "time": 74, "note": 60, "velocity": 93, "channel": 0}, {"type": "note_on", "time": 10, "note": 62, "velocity": 111, "channel": 0}, {"type": "note_off", "time": 102, "note": 62, "velocity": 111, "channel": 0}, {"type": "note_on", "time": 10, "note": 63, "velocity": 99, "channel": 0}, {"type": "note_off", "time": 84, "note": 63, "velocity": 99, "channel": 0}, {"type": "note_on", "time": 31, "note": 65, "velocity": 91, "channel": 0}, {"type": "note_off", "time": 88, "note": 65, "velocity": 91, "channel": 0}, {"type": "note_on", "time": 0, "note": 67, "velocity": 109, "channel": 0}, {"type": "note_on", "time": 296, "note": 63, "velocity": 117, "channel": 0}, {"type": "note_off", "time": 0, "note": 67, "velocity": 109, "channel": 0}, {"type": "note_off", "time": 137, "note": 63, "velocity": 117, "channel": 0}, {"type": "note_on", "time": 14, "note": 62, "velocity": 110, "channel": 0}, {"type": "note_off", "time": 95, "note": 62, "velocity": 110, "channel": 0}, {"type": "note_on", "time": 12, "note": 60, "velocity": 106, "channel": 0}, {"type": "note_off", "time": 102, "note": 60, "velocity": 106, "channel": 0}, {"type": "note_on", "time": 20, "note": 58, "velocity": 97, "channel": 0}, {"type": "note_off", "time": 239, "note": 58, "velocity": 97, "channel": 0}, {"type": "note_on", "time": 1151, "note": 58, "velocity": 105, "channel": 0}, {"type": "note_off", "time": 81, "note": 58, "velocity": 105, "channel": 0}, {"type": "note_on", "time": 197, "note": 58, "velocity": 96, "channel": 0}, {"type": "note_off", "time": 137, "note": 58, "velocity": 96, "channel": 0}, {"type": "note_on", "time": 56, "note": 58, "velocity": 103, "channel": 0}, {"type": "note_off", "time": 88, "note": 58, "velocity": 103, "channel": 0}, {"type": "note_on", "time": 28, "note": 60, "velocity": 107, "channel": 0}, {"type": "note_off", "time": 91, "note": 60, "velocity": 107, "channel": 0}, {"type": "note_on", "time": 7, "note": 62, "velocity": 114, "channel": 0}, {"type": "note_off", "time": 91, "note": 62, "velocity": 114, "channel": 0}, {"type": "note_on", "time": 0, "note": 60, "velocity": 107, "channel": 0}, {"type": "note_off", "time": 84, "note": 60, "velocity": 107, "channel": 0}, {"type": "note_on", "time": 3, "note": 59, "velocity": 101, "channel": 0}, {"type": "note_off", "time": 81, "note": 59, "velocity": 101, "channel": 0}, {"type": "note_on", "time": 17, "note": 62, "velocity": 117, "channel": 0}, {"type": "note_off", "time": 91, "note": 62, "velocity": 117, "channel": 0}, {"type": "note_on", "time": 0, "note": 60, "velocity": 108, "channel": 0}, {"type": "note_off", "time": 84, "note": 60, "velocity": 108, "channel": 0}, {"type": "note_on", "time": 0, "note": 62, "velocity": 113, "channel": 0}, {"type": "note_off", "time": 105, "note": 62, "velocity": 113, "channel": 0}, {"type": "note_on", "time": 0, "note": 63, "velocity": 102, "channel": 0}, {"type": "note_off", "time": 84, "note": 63, "velocity": 102, "channel": 0}, {"type": "note_on", "time": 17, "note": 64, "velocity": 100, "channel": 0}, {"type": "note_off", "time": 84, "note": 64, "velocity": 100, "channel": 0}, {"type": "note_on", "time": 21, "note": 65, "velocity": 116, "channel": 0}, {"type": "note_off", "time": 74, "note": 65, "velocity": 116, "channel": 0}, {"type": "note_on", "time": 24, "note": 63, "velocity": 116, "channel": 0}, {"type": "note_off", "time": 49, "note": 63, "velocity": 116, "channel": 0}, {"type": "note_on", "time": 17, "note": 62, "velocity": 35, "channel": 0}, {"type": "note_off", "time": 123, "note": 62, "velocity": 35, "channel": 0}, {"type": "note_on", "time": 3, "note": 60, "velocity": 105, "channel": 0}, {"type": "note_off", "time": 102, "note": 60, "velocity": 105, "channel": 0}, {"type": "note_on", "time": 98, "note": 60, "velocity": 107, "channel": 0}, {"type": "note_off", "time": 98, "note": 60, "velocity": 107, "channel": 0}, {"type": "note_on", "time": 0, "note": 62, "velocity": 92, "channel": 0}, {"type": "note_off", "time": 81, "note": 62, "velocity": 92, "channel": 0}, {"type": "note_on", "time": 31, "note": 63, "velocity": 107, "channel": 0}, {"type": "note_off", "time": 88, "note": 63, "velocity": 107, "channel": 0}, {"type": "note_on", "time": 3, "note": 70, "velocity": 118, "channel": 0}, {"type": "note_off", "time": 95, "note": 70, "velocity": 118, "channel": 0}, {"type": "note_on", "time": 17, "note": 69, "velocity": 114, "channel": 0}, {"type": "note_off", "time": 63, "note": 69, "velocity": 114, "channel": 0}, {"type": "note_on", "time": 10, "note": 68, "velocity": 111, "channel": 0}, {"type": "note_off", "time": 102, "note": 68, "velocity": 111, "channel": 0}, {"type": "note_on", "time": 28, "note": 65, "velocity": 111, "channel": 0}, {"type": "note_off", "time": 77, "note": 65, "velocity": 111, "channel": 0}, {"type": "note_on", "time": 17, "note": 62, "velocity": 91, "channel": 0}, {"type": "note_off", "time": 52, "note": 62, "velocity": 91, "channel": 0}, {"type": "note_on", "time": 3, "note": 65, "velocity": 92, "channel": 0}, {"type": "note_off", "time": 28, "note": 65, "velocity": 92, "channel": 0}, {"type": "note_on", "time": 0, "note": 68, "velocity": 114, "channel": 0}, {"type": "note_off", "time": 70, "note": 68, "velocity": 114, "channel": 0}, {"type": "note_on", "time": 0, "note": 67, "velocity": 107, "channel": 0}, {"type": "note_off", "time": 77, "note": 67, "velocity": 107, "channel": 0}, {"type": "note_on", "time": 52, "note": 65, "velocity": 97, "channel": 0}, {"type": "note_off", "time": 70, "note": 65, "velocity": 97, "channel": 0}, {"type": "note_on", "time": 24, "note": 66, "velocity": 109, "channel": 0}, {"type": "note_off", "time": 88, "note": 66, "velocity": 109, "channel": 0}, {"type": "note_on", "time": 14, "note": 63, "velocity": 117, "channel": 0}, {"type": "note_off", "time": 98, "note": 63, "velocity": 117, "channel": 0}, {"type": "note_on", "time": 10, "note": 59, "velocity": 97, "channel": 0}, {"type": "note_off", "time": 81, "note": 59, "velocity": 97, "channel": 0}, {"type": "note_on", "time": 0, "note": 56, "velocity": 105, "channel": 0}, {"type": "note_off", "time": 67, "note": 56, "velocity": 105, "channel": 0}, {"type": "note_on", "time": 24, "note": 65, "velocity": 115, "channel": 0}, {"type": "note_off", "time": 98, "note": 65, "velocity": 115, "channel": 0}, {"type": "note_on", "time": 14, "note": 64, "velocity": 92, "channel": 0}, {"type": "note_off", "time": 74, "note": 64, "velocity": 92, "channel": 0}, {"type": "note_on", "time": 17, "note": 65, "velocity": 89, "channel": 0}, {"type": "note_off", "time": 98, "note": 65, "velocity": 89, "channel": 0}, {"type": "note_on", "time": 24, "note": 67, "velocity": 89, "channel": 0}, {"type": "note_off", "time": 74, "note": 67, "velocity": 89, "channel": 0}, {"type": "note_on", "time": 10, "note": 68, "velocity": 111, "channel": 0}, {"type": "note_off", "time": 95, "note": 68, "velocity": 111, "channel": 0}, {"type": "note_on", "time": 7, "note": 67, "velocity": 112, "channel": 0}, {"type": "note_off", "time": 70, "note": 67, "velocity": 112, "channel": 0}, {"type": "note_on", "time": 7, "note": 65, "velocity": 110, "channel": 0}, {"type": "note_off", "time": 70, "note": 65, "velocity": 110, "channel": 0}, {"type": "note_on", "time": 24, "note": 62, "velocity": 116, "channel": 0}, {"type": "note_off", "time": 91, "note": 62, "velocity": 116, "channel": 0}, {"type": "note_on", "time": 0, "note": 63, "velocity": 109, "channel": 0}, {"type": "note_off", "time": 105, "note": 63, "velocity": 109, "channel": 0}, {"type": "note_on", "time": 3, "note": 65, "velocity": 114, "channel": 0}, {"type": "note_off", "time": 70, "note": 65, "velocity": 114, "channel": 0}, {"type": "note_on", "time": 10, "note": 67, "velocity": 109, "channel": 0}, {"type": "note_off", "time": 98, "note": 67, "velocity": 109, "channel": 0}, {"type": "note_on", "time": 56, "note": 63, "velocity": 100, "channel": 0}, {"type": "note_off", "time": 77, "note": 63, "velocity": 100, "channel": 0}, {"type": "note_on", "time": 3, "note": 70, "velocity": 99, "channel": 0}, {"type": "note_off", "time": 74, "note": 70, "velocity": 99, "channel": 0}, {"type": "note_on", "time": 14, "note": 66, "velocity": 111, "channel": 0}, {"type": "note_off", "time": 77, "note": 66, "velocity": 111, "channel": 0}, {"type": "note_on", "time": 17, "note": 63, "velocity": 117, "channel": 0}, {"type": "note_off", "time": 109, "note": 63, "velocity": 117, "channel": 0}, {"type": "note_on", "time": 24, "note": 60, "velocity": 101, "channel": 0}, {"type": "note_off", "time": 74, "note": 60, "velocity": 101, "channel": 0}, {"type": "note_on", "time": 0, "note": 62, "velocity": 116, "channel": 0}, {"type": "note_off", "time": 95, "note": 62, "velocity": 116, "channel": 0}, {"type": "note_on", "time": 10, "note": 65, "velocity": 104, "channel": 0}, {"type": "note_off", "time": 74, "note": 65, "velocity": 104, "channel": 0}, {"type": "note_on", "time": 0, "note": 67, "velocity": 111, "channel": 0}, {"type": "note_off", "time": 81, "note": 67, "velocity": 111, "channel": 0}, {"type": "note_on", "time": 0, "note": 70, "velocity": 117, "channel": 0}, {"type": "note_off", "time": 105, "note": 70, "velocity": 117, "channel": 0}, {"type": "note_on", "time": 1618, "note": 67, "velocity": 107, "channel": 0}, {"type": "note_off", "time": 28, "note": 67, "velocity": 107, "channel": 0}, {"type": "note_on", "time": 7, "note": 69, "velocity": 117, "channel": 0}, {"type": "note_off", "time": 490, "note": 69, "velocity": 117, "channel": 0}, {"type": "note_on", "time": 24, "note": 67, "velocity": 106, "channel": 0}, {"type": "note_off", "time": 95, "note": 67, "velocity": 106, "channel": 0}, {"type": "note_on", "time": 17, "note": 63, "velocity": 118, "channel": 0}, {"type": "note_off", "time": 310, "note": 63, "velocity": 118, "channel": 0}, {"type": "note_on", "time": 155, "note": 63, "velocity": 117, "channel": 0}, {"type": "note_off", "time": 105, "note": 63, "velocity": 117, "channel": 0}, {"type": "note_on", "time": 172, "note": 63, "velocity": 98, "channel": 0}, {"type": "note_off", "time": 88, "note": 63, "velocity": 98, "channel": 0}, {"type": "note_on", "time": 28, "note": 67, "velocity": 94, "channel": 0}, {"type": "note_off", "time": 186, "note": 67, "velocity": 94, "channel": 0}, {"type": "note_on", "time": 599, "note": 67, "velocity": 116, "channel": 0}, {"type": "note_on", "time": 112, "note": 66, "velocity": 113, "channel": 0}, {"type": "note_off", "time": 0, "note": 67, "velocity": 116, "channel": 0}, {"type": "note_off", "time": 52, "note": 66, "velocity": 113, "channel": 0}, {"type": "note_on", "time": 17, "note": 65, "velocity": 115, "channel": 0}, {"type": "note_off", "time": 88, "note": 65, "velocity": 115, "channel": 0}, {"type": "note_on", "time": 24, "note": 63, "velocity": 117, "channel": 0}, {"type": "note_off", "time": 74, "note": 63, "velocity": 117, "channel": 0}, {"type": "note_on", "time": 14, "note": 62, "velocity": 117, "channel": 0}, {"type": "note_on", "time": 95, "note": 60, "velocity": 110, "channel": 0}, {"type": "note_off", "time": 0, "note": 62, "velocity": 117, "channel": 0}, {"type": "note_off", "time": 112, "note": 60, "velocity": 110, "channel": 0}, {"type": "note_on", "time": 14, "note": 58, "velocity": 108, "channel": 0}, {"type": "note_off", "time": 45, "note": 58, "velocity": 108, "channel": 0}, {"type": "note_on", "time": 112, "note": 63, "velocity": 116, "channel": 0}, {"type": "note_off", "time": 119, "note": 63, "velocity": 116, "channel": 0}, {"type": "note_on", "time": 7, "note": 60, "velocity": 108, "channel": 0}, {"type": "note_off", "time": 84, "note": 60, "velocity": 108, "channel": 0}, {"type": "note_on", "time": 3, "note": 56, "velocity": 106, "channel": 0}, {"type": "note_off", "time": 77, "note": 56, "velocity": 106, "channel": 0}, {"type": "note_on", "time": 24, "note": 58, "velocity": 112, "channel": 0}, {"type": "note_off", "time": 88, "note": 58, "velocity": 112, "channel": 0}, {"type": "note_on", "time": 176, "note": 58, "velocity": 108, "channel": 0}, {"type": "note_off", "time": 119, "note": 58, "velocity": 108, "channel": 0}, {"type": "note_on", "time": 81, "note": 65, "velocity": 115, "channel": 0}, {"type": "note_off", "time": 95, "note": 65, "velocity": 115, "channel": 0}, {"type": "note_on", "time": 24, "note": 63, "velocity": 120, "channel": 0}, {"type": "note_off", "time": 95, "note": 63, "velocity": 120, "channel": 0}, {"type": "note_on", "time": 0, "note": 58, "velocity": 103, "channel": 0}, {"type": "note_off", "time": 81, "note": 58, "velocity": 103, "channel": 0}, {"type": "note_on", "time": 31, "note": 54, "velocity": 101, "channel": 0}, {"type": "note_off", "time": 77, "note": 54, "velocity": 101, "channel": 0}, {"type": "note_on", "time": 3, "note": 53, "velocity": 93, "channel": 0}, {"type": "note_off", "time": 81, "note": 53, "velocity": 93, "channel": 0}, {"type": "note_on", "time": 3, "note": 63, "velocity": 111, "channel": 0}, {"type": "note_off", "time": 193, "note": 63, "velocity": 111, "channel": 0}, {"type": "note_on", "time": 14, "note": 61, "velocity": 97, "channel": 0}, {"type": "note_off", "time": 84, "note": 61, "velocity": 97, "channel": 0}, {"type": "note_on", "time": 0, "note": 62, "velocity": 112, "channel": 0}, {"type": "note_off", "time": 109, "note": 62, "velocity": 112, "channel": 0}, {"type": "note_on", "time": 52, "note": 53, "velocity": 96, "channel": 0}, {"type": "note_off", "time": 49, "note": 53, "velocity": 96, "channel": 0}, {"type": "note_on", "time": 28, "note": 57, "velocity": 93, "channel": 0}, {"type": "note_off", "time": 45, "note": 57, "velocity": 93, "channel": 0}, {"type": "note_on", "time": 0, "note": 60, "velocity": 105, "channel": 0}, {"type": "note_off", "time": 88, "note": 60, "velocity": 105, "channel": 0}, {"type": "note_on", "time": 116, "note": 58, "velocity": 110, "channel": 0}, {"type": "note_off", "time": 70, "note": 58, "velocity": 110, "channel": 0}, {"type": "note_on", "time": 151, "note": 65, "velocity": 114, "channel": 0}, {"type": "note_off", "time": 35, "note": 65, "velocity": 114, "channel": 0}, {"type": "note_on", "time": 38, "note": 69, "velocity": 117, "channel": 0}, {"type": "note_off", "time": 112, "note": 69, "velocity": 117, "channel": 0}, {"type": "note_on", "time": 0, "note": 67, "velocity": 109, "channel": 0}, {"type": "note_off", "time": 88, "note": 67, "velocity": 109, "channel": 0}, {"type": "note_on", "time": 3, "note": 65, "velocity": 114, "channel": 0}, {"type": "note_off", "time": 88, "note": 65, "velocity": 114, "channel": 0}, {"type": "note_on", "time": 10, "note": 62, "velocity": 106, "channel": 0}, {"type": "note_off", "time": 91, "note": 62, "velocity": 106, "channel": 0}, {"type": "note_on", "time": 0, "note": 64, "velocity": 115, "channel": 0}, {"type": "note_off", "time": 141, "note": 64, "velocity": 115, "channel": 0}, {"type": "note_on", "time": 3, "note": 61, "velocity": 105, "channel": 0}, {"type": "note_off", "time": 91, "note": 61, "velocity": 105, "channel": 0}, {"type": "note_on", "time": 155, "note": 65, "velocity": 112, "channel": 0}, {"type": "note_off", "time": 91, "note": 65, "velocity": 112, "channel": 0}, {"type": "note_on", "time": 0, "note": 62, "velocity": 108, "channel": 0}, {"type": "note_off", "time": 56, "note": 62, "velocity": 108, "channel": 0}, {"type": "note_on", "time": 14, "note": 60, "velocity": 102, "channel": 0}, {"type": "note_off", "time": 74, "note": 60, "velocity": 102, "channel": 0}, {"type": "note_on", "time": 7, "note": 57, "velocity": 94, "channel": 0}, {"type": "note_off", "time": 52, "note": 57, "velocity": 94, "channel": 0}, {"type": "note_on", "time": 24, "note": 56, "velocity": 107, "channel": 0}, {"type": "note_off", "time": 56, "note": 56, "velocity": 107, "channel": 0}, {"type": "note_on", "time": 3, "note": 64, "velocity": 110, "channel": 0}, {"type": "note_off", "time": 109, "note": 64, "velocity": 110, "channel": 0}, {"type": "note_on", "time": 0, "note": 60, "velocity": 104, "channel": 0}, {"type": "note_off", "time": 84, "note": 60, "velocity": 104, "channel": 0}, {"type": "note_on", "time": 21, "note": 56, "velocity": 101, "channel": 0}, {"type": "note_off", "time": 91, "note": 56, "velocity": 101, "channel": 0}, {"type": "note_on", "time": 0, "note": 52, "velocity": 92, "channel": 0}, {"type": "note_off", "time": 67, "note": 52, "velocity": 92, "channel": 0}, {"type": "note_on", "time": 17, "note": 55, "velocity": 99, "channel": 0}, {"type": "note_off", "time": 116, "note": 55, "velocity": 99, "channel": 0}, {"type": "note_on", "time": 28, "note": 54, "velocity": 98, "channel": 0}, {"type": "note_off", "time": 67, "note": 54, "velocity": 98, "channel": 0}, {"type": "note_on", "time": 571, "note": 70, "velocity": 119, "channel": 0}, {"type": "note_off", "time": 81, "note": 70, "velocity": 119, "channel": 0}, {"type": "note_on", "time": 0, "note": 66, "velocity": 117, "channel": 0}, {"type": "note_off", "time": 74, "note": 66, "velocity": 117, "channel": 0}, {"type": "note_on", "time": 14, "note": 65, "velocity": 114, "channel": 0}, {"type": "note_off", "time": 116, "note": 65, "velocity": 114, "channel": 0}, {"type": "note_on", "time": 0, "note": 63, "velocity": 120, "channel": 0}, {"type": "note_off", "time": 77, "note": 63, "velocity": 120, "channel": 0}, {"type": "note_on", "time": 14, "note": 62, "velocity": 117, "channel": 0}, {"type": "note_off", "time": 59, "note": 62, "velocity": 117, "channel": 0}, {"type": "note_on", "time": 24, "note": 64, "velocity": 113, "channel": 0}, {"type": "note_off", "time": 91, "note": 64, "velocity": 113, "channel": 0}, {"type": "note_on", "time": 7, "note": 65, "velocity": 113, "channel": 0}, {"type": "note_off", "time": 105, "note": 65, "velocity": 113, "channel": 0}, {"type": "note_on", "time": 0, "note": 62, "velocity": 109, "channel": 0}, {"type": "note_off", "time": 98, "note": 62, "velocity": 109, "channel": 0}, {"type": "note_on", "time": 0, "note": 67, "velocity": 113, "channel": 0}, {"type": "note_off", "time": 105, "note": 67, "velocity": 113, "channel": 0}, {"type": "note_on", "time": 0, "note": 63, "velocity": 123, "channel": 0}, {"type": "note_off", "time": 67, "note": 63, "velocity": 123, "channel": 0}, {"type": "note_on", "time": 0, "note": 59, "velocity": 100, "channel": 0}, {"type": "note_off", "time": 95, "note": 59, "velocity": 100, "channel": 0}, {"type": "note_on", "time": 7, "note": 58, "velocity": 91, "channel": 0}, {"type": "note_off", "time": 45, "note": 58, "velocity": 91, "channel": 0}, {"type": "note_on", "time": 100, "note": 67, "velocity": 109, "channel": 0}, {"type": "note_off", "time": 49, "note": 67, "velocity": 109, "channel": 0}, {"type": "note_on", "time": 5, "note": 69, "velocity": 120, "channel": 0}, {"type": "note_off", "time": 514, "note": 69, "velocity": 120, "channel": 0}, {"type": "note_on", "time": 49, "note": 69, "velocity": 115, "channel": 0}, {"type": "note_off", "time": 324, "note": 69, "velocity": 115, "channel": 0}, {"type": "note_on", "time": 3, "note": 64, "velocity": 115, "channel": 0}, {"type": "note_off", "time": 105, "note": 64, "velocity": 115, "channel": 0}, {"type": "note_on", "time": 7, "note": 60, "velocity": 100, "channel": 0}, {"type": "note_off", "time": 63, "note": 60, "velocity": 100, "channel": 0}, {"type": "note_on", "time": 21, "note": 58, "velocity": 98, "channel": 0}, {"type": "note_off", "time": 91, "note": 58, "velocity": 98, "channel": 0}, {"type": "note_on", "time": 0, "note": 60, "velocity": 102, "channel": 0}, {"type": "note_off", "time": 84, "note": 60, "velocity": 102, "channel": 0}, {"type": "note_on", "time": 42, "note": 64, "velocity": 95, "channel": 0}, {"type": "note_off", "time": 59, "note": 64, "velocity": 95, "channel": 0}, {"type": "note_on", "time": 21, "note": 69, "velocity": 119, "channel": 0}, {"type": "note_off", "time": 91, "note": 69, "velocity": 119, "channel": 0}, {"type": "note_on", "time": 3, "note": 67, "velocity": 109, "channel": 0}, {"type": "note_off", "time": 112, "note": 67, "velocity": 109, "channel": 0}, {"type": "note_on", "time": 14, "note": 60, "velocity": 92, "channel": 0}, {"type": "note_off", "time": 42, "note": 60, "velocity": 92, "channel": 0}, {"type": "note_on", "time": 21, "note": 62, "velocity": 107, "channel": 0}, {"type": "note_off", "time": 88, "note": 62, "velocity": 107, "channel": 0}, {"type": "note_on", "time": 7, "note": 63, "velocity": 119, "channel": 0}, {"type": "note_off", "time": 169, "note": 63, "velocity": 119, "channel": 0}, {"type": "note_on", "time": 1149, "note": 65, "velocity": 111, "channel": 0}, {"type": "note_off", "time": 98, "note": 65, "velocity": 111, "channel": 0}, {"type": "note_on", "time": 81, "note": 62, "velocity": 112, "channel": 0}, {"type": "note_off", "time": 95, "note": 62, "velocity": 112, "channel": 0}, {"type": "note_on", "time": 3, "note": 63, "velocity": 117, "channel": 0}, {"type": "note_off", "time": 98, "note": 63, "velocity": 117, "channel": 0}, {"type": "note_on", "time": 14, "note": 65, "velocity": 112, "channel": 0}, {"type": "note_off", "time": 88, "note": 65, "velocity": 112, "channel": 0}, {"type": "note_on", "time": 0, "note": 67, "velocity": 108, "channel": 0}, {"type": "note_off", "time": 95, "note": 67, "velocity": 108, "channel": 0}, {"type": "note_on", "time": 14, "note": 69, "velocity": 117, "channel": 0}, {"type": "note_off", "time": 102, "note": 69, "velocity": 117, "channel": 0}, {"type": "note_on", "time": 7, "note": 70, "velocity": 118, "channel": 0}, {"type": "note_off", "time": 84, "note": 70, "velocity": 118, "channel": 0}, {"type": "note_on", "time": 21, "note": 69, "velocity": 103, "channel": 0}, {"type": "note_off", "time": 100, "note": 69, "velocity": 103, "channel": 0}, {"type": "note_on", "time": 8, "note": 72, "velocity": 115, "channel": 0}, {"type": "note_off", "time": 246, "note": 72, "velocity": 115, "channel": 0}, {"type": "note_on", "time": 7, "note": 70, "velocity": 115, "channel": 0}, {"type": "note_off", "time": 317, "note": 70, "velocity": 115, "channel": 0}, {"type": "note_on", "time": 77, "note": 70, "velocity": 118, "channel": 0}, {"type": "note_off", "time": 95, "note": 70, "velocity": 118, "channel": 0}, {"type": "note_on", "time": 17, "note": 69, "velocity": 104, "channel": 0}, {"type": "note_off", "time": 59, "note": 69, "velocity": 104, "channel": 0}, {"type": "note_on", "time": 14, "note": 70, "velocity": 105, "channel": 0}, {"type": "note_off", "time": 81, "note": 70, "velocity": 105, "channel": 0}, {"type": "note_on", "time": 24, "note": 73, "velocity": 112, "channel": 0}, {"type": "note_on", "time": 81, "note": 74, "velocity": 107, "channel": 0}, {"type": "note_off", "time": 0, "note": 73, "velocity": 112, "channel": 0}, {"type": "note_off", "time": 112, "note": 74, "velocity": 107, "channel": 0}, {"type": "note_on", "time": 0, "note": 73, "velocity": 96, "channel": 0}, {"type": "note_off", "time": 35, "note": 73, "velocity": 96, "channel": 0}, {"type": "note_on", "time": 3, "note": 71, "velocity": 113, "channel": 0}, {"type": "note_off", "time": 116, "note": 71, "velocity": 113, "channel": 0}, {"type": "note_on", "time": 17, "note": 74, "velocity": 107, "channel": 0}, {"type": "note_off", "time": 67, "note": 74, "velocity": 107, "channel": 0}, {"type": "note_on", "time": 3, "note": 72, "velocity": 111, "channel": 0}, {"type": "note_off", "time": 112, "note": 72, "velocity": 111, "channel": 0}, {"type": "note_on", "time": 7, "note": 67, "velocity": 98, "channel": 0}, {"type": "note_off", "time": 84, "note": 67, "velocity": 98, "channel": 0}, {"type": "note_on", "time": 7, "note": 70, "velocity": 119, "channel": 0}, {"type": "note_on", "time": 112, "note": 67, "velocity": 98, "channel": 0}, {"type": "note_off", "time": 0, "note": 70, "velocity": 119, "channel": 0}, {"type": "note_off", "time": 98, "note": 67, "velocity": 98, "channel": 0}, {"type": "note_on", "time": 7, "note": 69, "velocity": 111, "channel": 0}, {"type": "note_off", "time": 86, "note": 69, "velocity": 111, "channel": 0}, {"type": "note_on", "time": 19, "note": 67, "velocity": 115, "channel": 0}, {"type": "note_off", "time": 95, "note": 67, "velocity": 115, "channel": 0}, {"type": "note_on", "time": 3, "note": 65, "velocity": 113, "channel": 0}, {"type": "note_off", "time": 74, "note": 65, "velocity": 113, "channel": 0}, {"type": "note_on", "time": 38, "note": 63, "velocity": 122, "channel": 0}, {"type": "note_off", "time": 84, "note": 63, "velocity": 122, "channel": 0}, {"type": "note_on", "time": 3, "note": 62, "velocity": 117, "channel": 0}, {"type": "note_off", "time": 225, "note": 62, "velocity": 117, "channel": 0}, {"type": "note_on", "time": 95, "note": 72, "velocity": 114, "channel": 0}, {"type": "note_off", "time": 63, "note": 72, "velocity": 114, "channel": 0}, {"type": "note_on", "time": 0, "note": 70, "velocity": 114, "channel": 0}, {"type": "note_off", "time": 289, "note": 70, "velocity": 114, "channel": 0}, {"type": "note_on", "time": 28, "note": 68, "velocity": 112, "channel": 0}, {"type": "note_off", "time": 81, "note": 68, "velocity": 112, "channel": 0}, {"type": "note_on", "time": 0, "note": 67, "velocity": 108, "channel": 0}, {"type": "note_off", "time": 88, "note": 67, "velocity": 108, "channel": 0}, {"type": "note_on", "time": 0, "note": 63, "velocity": 119, "channel": 0}, {"type": "note_off", "time": 116, "note": 63, "velocity": 119, "channel": 0}, {"type": "note_on", "time": 1493, "note": 63, "velocity": 120, "channel": 0}, {"type": "note_off", "time": 45, "note": 63, "velocity": 120, "channel": 0}, {"type": "note_on", "time": 1, "note": 65, "velocity": 112, "channel": 0}, {"type": "note_off", "time": 507, "note": 65, "velocity": 112, "channel": 0}, {"type": "note_on", "time": 52, "note": 65, "velocity": 115, "channel": 0}, {"type": "note_off", "time": 70, "note": 65, "velocity": 115, "channel": 0}, {"type": "note_on", "time": 109, "note": 65, "velocity": 114, "channel": 0}, {"type": "note_off", "time": 134, "note": 65, "velocity": 114, "channel": 0}, {"type": "note_on", "time": 7, "note": 62, "velocity": 113, "channel": 0}, {"type": "note_off", "time": 63, "note": 62, "velocity": 113, "channel": 0}, {"type": "note_on", "time": 3, "note": 63, "velocity": 119, "channel": 0}, {"type": "note_off", "time": 327, "note": 63, "velocity": 119, "channel": 0}, {"type": "note_on", "time": 10, "note": 61, "velocity": 102, "channel": 0}, {"type": "note_off", "time": 52, "note": 61, "velocity": 102, "channel": 0}, {"type": "note_on", "time": 14, "note": 62, "velocity": 113, "channel": 0}, {"type": "note_off", "time": 176, "note": 62, "velocity": 113, "channel": 0}, {"type": "note_on", "time": 14, "note": 58, "velocity": 97, "channel": 0}, {"type": "note_off", "time": 95, "note": 58, "velocity": 97, "channel": 0}, {"type": "note_on", "time": 0, "note": 60, "velocity": 104, "channel": 0}, {"type": "note_off", "time": 67, "note": 60, "velocity": 104, "channel": 0}, {"type": "note_on", "time": 109, "note": 62, "velocity": 111, "channel": 0}, {"type": "note_off", "time": 88, "note": 62, "velocity": 111, "channel": 0}, {"type": "note_on", "time": 14, "note": 63, "velocity": 118, "channel": 0}, {"type": "note_off", "time": 84, "note": 63, "velocity": 118, "channel": 0}, {"type": "note_on", "time": 28, "note": 67, "velocity": 106, "channel": 0}, {"type": "note_off", "time": 91, "note": 67, "velocity": 106, "channel": 0}, {"type": "note_on", "time": 0, "note": 65, "velocity": 106, "channel": 0}, {"type": "note_off", "time": 112, "note": 65, "velocity": 106, "channel": 0}, {"type": "note_on", "time": 0, "note": 62, "velocity": 114, "channel": 0}, {"type": "note_off", "time": 88, "note": 62, "velocity": 114, "channel": 0}, {"type": "note_on", "time": 3, "note": 63, "velocity": 116, "channel": 0}, {"type": "note_off", "time": 119, "note": 63, "velocity": 116, "channel": 0}, {"type": "note_on", "time": 0, "note": 60, "velocity": 96, "channel": 0}, {"type": "note_off", "time": 59, "note": 60, "velocity": 96, "channel": 0}, {"type": "note_on", "time": 28, "note": 62, "velocity": 114, "channel": 0}, {"type": "note_off", "time": 95, "note": 62, "velocity": 114, "channel": 0}, {"type": "note_on", "time": 7, "note": 60, "velocity": 102, "channel": 0}, {"type": "note_off", "time": 45, "note": 60, "velocity": 102, "channel": 0}, {"type": "note_on", "time": 21, "note": 59, "velocity": 98, "channel": 0}, {"type": "note_off", "time": 102, "note": 59, "velocity": 98, "channel": 0}, {"type": "note_on", "time": 123, "note": 60, "velocity": 95, "channel": 0}, {"type": "note_off", "time": 151, "note": 60, "velocity": 95, "channel": 0}, {"type": "note_on", "time": 176, "note": 64, "velocity": 98, "channel": 0}, {"type": "note_off", "time": 88, "note": 64, "velocity": 98, "channel": 0}, {"type": "note_on", "time": 0, "note": 65, "velocity": 112, "channel": 0}, {"type": "note_off", "time": 81, "note": 65, "velocity": 112, "channel": 0}, {"type": "note_on", "time": 10, "note": 63, "velocity": 118, "channel": 0}, {"type": "note_off", "time": 74, "note": 63, "velocity": 118, "channel": 0}, {"type": "note_on", "time": 21, "note": 62, "velocity": 111, "channel": 0}, {"type": "note_off", "time": 74, "note": 62, "velocity": 111, "channel": 0}, {"type": "note_on", "time": 0, "note": 60, "velocity": 106, "channel": 0}, {"type": "note_off", "time": 67, "note": 60, "velocity": 106, "channel": 0}, {"type": "note_on", "time": 49, "note": 58, "velocity": 101, "channel": 0}, {"type": "note_off", "time": 77, "note": 58, "velocity": 101, "channel": 0}, {"type": "note_on", "time": 10, "note": 60, "velocity": 99, "channel": 0}, {"type": "note_off", "time": 67, "note": 60, "velocity": 99, "channel": 0}, {"type": "note_on", "time": 38, "note": 62, "velocity": 98, "channel": 0}, {"type": "note_off", "time": 81, "note": 62, "velocity": 98, "channel": 0}, {"type": "note_on", "time": 28, "note": 65, "velocity": 103, "channel": 0}, {"type": "note_off", "time": 77, "note": 65, "velocity": 103, "channel": 0}, {"type": "note_on", "time": 0, "note": 70, "velocity": 112, "channel": 0}, {"type": "note_off", "time": 91, "note": 70, "velocity": 112, "channel": 0}, {"type": "note_on", "time": 0, "note": 67, "velocity": 110, "channel": 0}, {"type": "note_off", "time": 81, "note": 67, "velocity": 110, "channel": 0}, {"type": "note_on", "time": 35, "note": 68, "velocity": 117, "channel": 0}, {"type": "note_off", "time": 105, "note": 68, "velocity": 117, "channel": 0}, {"type": "note_on", "time": 0, "note": 65, "velocity": 104, "channel": 0}, {"type": "note_off", "time": 74, "note": 65, "velocity": 104, "channel": 0}, {"type": "note_on", "time": 0, "note": 67, "velocity": 113, "channel": 0}, {"type": "note_off", "time": 91, "note": 67, "velocity": 113, "channel": 0}, {"type": "note_on", "time": 0, "note": 63, "velocity": 105, "channel": 0}, {"type": "note_off", "time": 84, "note": 63, "velocity": 105, "channel": 0}, {"type": "note_on", "time": 7, "note": 65, "velocity": 118, "channel": 0}, {"type": "note_off", "time": 81, "note": 65, "velocity": 118, "channel": 0}, {"type": "note_on", "time": 7, "note": 62, "velocity": 109, "channel": 0}, {"type": "note_off", "time": 81, "note": 62, "velocity": 109, "channel": 0}, {"type": "note_on", "time": 7, "note": 63, "velocity": 115, "channel": 0}, {"type": "note_off", "time": 123, "note": 63, "velocity": 115, "channel": 0}, {"type": "note_on", "time": 0, "note": 61, "velocity": 112, "channel": 0}, {"type": "note_off", "time": 81, "note": 61, "velocity": 112, "channel": 0}, {"type": "note_on", "time": 14, "note": 58, "velocity": 102, "channel": 0}, {"type": "note_off", "time": 74, "note": 58, "velocity": 102, "channel": 0}, {"type": "note_on", "time": 28, "note": 54, "velocity": 104, "channel": 0}, {"type": "note_off", "time": 81, "note": 54, "velocity": 104, "channel": 0}, {"type": "note_on", "time": 14, "note": 53, "velocity": 96, "channel": 0}, {"type": "note_off", "time": 52, "note": 53, "velocity": 96, "channel": 0}, {"type": "note_on", "time": 35, "note": 63, "velocity": 120, "channel": 0}, {"type": "note_off", "time": 88, "note": 63, "velocity": 120, "channel": 0}, {"type": "note_on", "time": 14, "note": 62, "velocity": 115, "channel": 0}, {"type": "note_off", "time": 84, "note": 62, "velocity": 115, "channel": 0}, {"type": "note_on", "time": 17, "note": 60, "velocity": 112, "channel": 0}, {"type": "note_off", "time": 91, "note": 60, "velocity": 112, "channel": 0}, {"type": "note_on", "time": 14, "note": 58, "velocity": 105, "channel": 0}, {"type": "note_off", "time": 98, "note": 58, "velocity": 105, "channel": 0}, {"type": "note_on", "time": 70, "note": 55, "velocity": 104, "channel": 0}, {"type": "note_off", "time": 88, "note": 55, "velocity": 104, "channel": 0}, {"type": "note_on", "time": 24, "note": 58, "velocity": 108, "channel": 0}, {"type": "note_off", "time": 165, "note": 58, "velocity": 108, "channel": 0}, {"type": "note_on", "time": 454, "note": 58, "velocity": 99, "channel": 0}, {"type": "note_off", "time": 42, "note": 58, "velocity": 99, "channel": 0}, {"type": "note_on", "time": 215, "note": 58, "velocity": 100, "channel": 0}, {"type": "note_off", "time": 130, "note": 58, "velocity": 100, "channel": 0}, {"type": "note_on", "time": 197, "note": 63, "velocity": 112, "channel": 0}, {"type": "note_off", "time": 141, "note": 63, "velocity": 112, "channel": 0}, {"type": "note_on", "time": 70, "note": 59, "velocity": 110, "channel": 0}, {"type": "note_off", "time": 67, "note": 59, "velocity": 110, "channel": 0}, {"type": "note_on", "time": 201, "note": 60, "velocity": 114, "channel": 0}, {"type": "note_off", "time": 102, "note": 60, "velocity": 114, "channel": 0}, {"type": "note_on", "time": 183, "note": 64, "velocity": 123, "channel": 0}, {"type": "note_off", "time": 144, "note": 64, "velocity": 123, "channel": 0}, {"type": "note_on", "time": 1170, "note": 65, "velocity": 121, "channel": 0}, {"type": "note_off", "time": 84, "note": 65, "velocity": 121, "channel": 0}, {"type": "note_on", "time": 0, "note": 64, "velocity": 114, "channel": 0}, {"type": "note_off", "time": 70, "note": 64, "velocity": 114, "channel": 0}, {"type": "note_on", "time": 28, "note": 65, "velocity": 111, "channel": 0}, {"type": "note_off", "time": 91, "note": 65, "velocity": 111, "channel": 0}, {"type": "note_on", "time": 0, "note": 67, "velocity": 108, "channel": 0}, {"type": "note_off", "time": 70, "note": 67, "velocity": 108, "channel": 0}, {"type": "note_on", "time": 0, "note": 69, "velocity": 120, "channel": 0}, {"type": "note_off", "time": 77, "note": 69, "velocity": 120, "channel": 0}, {"type": "note_on", "time": 28, "note": 67, "velocity": 117, "channel": 0}, {"type": "note_off", "time": 81, "note": 67, "velocity": 117, "channel": 0}, {"type": "note_on", "time": 0, "note": 65, "velocity": 115, "channel": 0}, {"type": "note_off", "time": 91, "note": 65, "velocity": 115, "channel": 0}, {"type": "note_on", "time": 24, "note": 63, "velocity": 121, "channel": 0}, {"type": "note_off", "time": 95, "note": 63, "velocity": 121, "channel": 0}, {"type": "note_on", "time": 14, "note": 62, "velocity": 109, "channel": 0}, {"type": "note_off", "time": 77, "note": 62, "velocity": 109, "channel": 0}, {"type": "note_on", "time": 7, "note": 60, "velocity": 113, "channel": 0}, {"type": "note_off", "time": 77, "note": 60, "velocity": 113, "channel": 0}, {"type": "note_on", "time": 21, "note": 58, "velocity": 96, "channel": 0}, {"type": "note_off", "time": 42, "note": 58, "velocity": 96, "channel": 0}, {"type": "note_on", "time": 31, "note": 55, "velocity": 98, "channel": 0}, {"type": "note_off", "time": 88, "note": 55, "velocity": 98, "channel": 0}, {"type": "note_on", "time": 0, "note": 63, "velocity": 125, "channel": 0}, {"type": "note_off", "time": 232, "note": 63, "velocity": 125, "channel": 0}, {"type": "note_on", "time": 0, "note": 62, "velocity": 119, "channel": 0}, {"type": "note_off", "time": 84, "note": 62, "velocity": 119, "channel": 0}, {"type": "note_on", "time": 3, "note": 60, "velocity": 111, "channel": 0}, {"type": "note_off", "time": 95, "note": 60, "velocity": 111, "channel": 0}, {"type": "note_on", "time": 14, "note": 58, "velocity": 110, "channel": 0}, {"type": "note_off", "time": 95, "note": 58, "velocity": 110, "channel": 0}, {"type": "note_on", "time": 0, "note": 55, "velocity": 106, "channel": 0}, {"type": "note_off", "time": 77, "note": 55, "velocity": 106, "channel": 0}, {"type": "note_on", "time": 21, "note": 53, "velocity": 104, "channel": 0}, {"type": "note_off", "time": 59, "note": 53, "velocity": 104, "channel": 0}, {"type": "note_on", "time": 144, "note": 58, "velocity": 108, "channel": 0}, {"type": "note_off", "time": 102, "note": 58, "velocity": 108, "channel": 0}, {"type": "note_on", "time": 666, "note": 57, "velocity": 102, "channel": 0}, {"type": "note_off", "time": 105, "note": 57, "velocity": 102, "channel": 0}, {"type": "note_on", "time": 151, "note": 55, "velocity": 105, "channel": 0}, {"type": "note_off", "time": 56, "note": 55, "velocity": 105, "channel": 0}, {"type": "note_on", "time": 3, "note": 57, "velocity": 105, "channel": 0}, {"type": "note_off", "time": 52, "note": 57, "velocity": 105, "channel": 0}, {"type": "note_on", "time": 28, "note": 58, "velocity": 105, "channel": 0}, {"type": "note_off", "time": 63, "note": 58, "velocity": 105, "channel": 0}, {"type": "note_on", "time": 7, "note": 60, "velocity": 114, "channel": 0}, {"type": "note_off", "time": 95, "note": 60, "velocity": 114, "channel": 0}, {"type": "note_on", "time": 3, "note": 62, "velocity": 109, "channel": 0}, {"type": "note_off", "time": 77, "note": 62, "velocity": 109, "channel": 0}, {"type": "note_on", "time": 3, "note": 63, "velocity": 114, "channel": 0}, {"type": "note_off", "time": 77, "note": 63, "velocity": 114, "channel": 0}, {"type": "note_on", "time": 3, "note": 65, "velocity": 119, "channel": 0}, {"type": "note_off", "time": 88, "note": 65, "velocity": 119, "channel": 0}, {"type": "note_on", "time": 56, "note": 60, "velocity": 117, "channel": 0}, {"type": "note_off", "time": 74, "note": 60, "velocity": 117, "channel": 0}, {"type": "note_on", "time": 959, "note": 64, "velocity": 122, "channel": 0}, {"type": "note_off", "time": 67, "note": 64, "velocity": 122, "channel": 0}, {"type": "note_on", "time": 0, "note": 60, "velocity": 105, "channel": 0}, {"type": "note_off", "time": 70, "note": 60, "velocity": 105, "channel": 0}, {"type": "note_on", "time": 0, "note": 64, "velocity": 116, "channel": 0}, {"type": "note_off", "time": 81, "note": 64, "velocity": 116, "channel": 0}, {"type": "note_on", "time": 0, "note": 67, "velocity": 114, "channel": 0}, {"type": "note_off", "time": 81, "note": 67, "velocity": 114, "channel": 0}, {"type": "note_on", "time": 0, "note": 64, "velocity": 110, "channel": 0}, {"type": "note_on", "time": 77, "note": 67, "velocity": 115, "channel": 0}, {"type": "note_off", "time": 0, "note": 64, "velocity": 110, "channel": 0}, {"type": "note_off", "time": 49, "note": 67, "velocity": 115, "channel": 0}, {"type": "note_on", "time": 0, "note": 71, "velocity": 118, "channel": 0}, {"type": "note_off", "time": 109, "note": 71, "velocity": 118, "channel": 0}, {"type": "note_on", "time": 21, "note": 74, "velocity": 86, "channel": 0}, {"type": "note_off", "time": 197, "note": 74, "velocity": 86, "channel": 0}, {"type": "note_on", "time": 835, "note": 57, "velocity": 103, "channel": 0}, {"type": "note_off", "time": 130, "note": 57, "velocity": 103, "channel": 0}, {"type": "note_on", "time": 38, "note": 57, "velocity": 94, "channel": 0}, {"type": "note_off", "time": 88, "note": 57, "velocity": 94, "channel": 0}, {"type": "note_on", "time": 38, "note": 60, "velocity": 104, "channel": 0}, {"type": "note_off", "time": 67, "note": 60, "velocity": 104, "channel": 0}, {"type": "note_on", "time": 0, "note": 59, "velocity": 104, "channel": 0}, {"type": "note_off", "time": 112, "note": 59, "velocity": 104, "channel": 0}, {"type": "note_on", "time": 645, "note": 66, "velocity": 108, "channel": 0}, {"type": "note_on", "time": 134, "note": 67, "velocity": 111, "channel": 0}, {"type": "note_off", "time": 0, "note": 66, "velocity": 108, "channel": 0}, {"type": "note_off", "time": 74, "note": 67, "velocity": 111, "channel": 0}, {"type": "note_on", "time": 7, "note": 64, "velocity": 106, "channel": 0}, {"type": "note_off", "time": 95, "note": 64, "velocity": 106, "channel": 0}, {"type": "note_on", "time": 3, "note": 60, "velocity": 101, "channel": 0}, {"type": "note_off", "time": 74, "note": 60, "velocity": 101, "channel": 0}, {"type": "note_on", "time": 14, "note": 58, "velocity": 99, "channel": 0}, {"type": "note_off", "time": 52, "note": 58, "velocity": 99, "channel": 0}, {"type": "note_on", "time": 35, "note": 60, "velocity": 106, "channel": 0}, {"type": "note_off", "time": 56, "note": 60, "velocity": 106, "channel": 0}, {"type": "note_on", "time": 0, "note": 62, "velocity": 103, "channel": 0}, {"type": "note_off", "time": 56, "note": 62, "velocity": 103, "channel": 0}, {"type": "note_on", "time": 17, "note": 65, "velocity": 91, "channel": 0}, {"type": "note_off", "time": 45, "note": 65, "velocity": 91, "channel": 0}, {"type": "note_on", "time": 0, "note": 69, "velocity": 99, "channel": 0}, {"type": "note_off", "time": 35, "note": 69, "velocity": 99, "channel": 0}, {"type": "note_on", "time": 0, "note": 71, "velocity": 110, "channel": 0}, {"type": "note_off", "time": 63, "note": 71, "velocity": 110, "channel": 0}, {"type": "note_on", "time": 17, "note": 69, "velocity": 105, "channel": 0}, {"type": "note_off", "time": 102, "note": 69, "velocity": 105, "channel": 0}, {"type": "note_on", "time": 0, "note": 64, "velocity": 115, "channel": 0}, {"type": "note_off", "time": 84, "note": 64, "velocity": 115, "channel": 0}, {"type": "note_on", "time": 7, "note": 62, "velocity": 113, "channel": 0}, {"type": "note_off", "time": 112, "note": 62, "velocity": 113, "channel": 0}, {"type": "note_on", "time": 0, "note": 63, "velocity": 108, "channel": 0}, {"type": "note_off", "time": 95, "note": 63, "velocity": 108, "channel": 0}, {"type": "note_on", "time": 0, "note": 65, "velocity": 112, "channel": 0}, {"type": "note_off", "time": 95, "note": 65, "velocity": 112, "channel": 0}, {"type": "note_on", "time": 24, "note": 62, "velocity": 107, "channel": 0}, {"type": "note_off", "time": 102, "note": 62, "velocity": 107, "channel": 0}, {"type": "note_on", "time": 3, "note": 63, "velocity": 108, "channel": 0}, {"type": "note_off", "time": 91, "note": 63, "velocity": 108, "channel": 0}, {"type": "note_on", "time": 0, "note": 65, "velocity": 104, "channel": 0}, {"type": "note_off", "time": 63, "note": 65, "velocity": 104, "channel": 0}, {"type": "note_on", "time": 14, "note": 67, "velocity": 108, "channel": 0}, {"type": "note_off", "time": 105, "note": 67, "velocity": 108, "channel": 0}, {"type": "note_on", "time": 21, "note": 64, "velocity": 109, "channel": 0}, {"type": "note_off", "time": 21, "note": 64, "velocity": 109, "channel": 0}, {"type": "note_on", "time": 10, "note": 62, "velocity": 111, "channel": 0}, {"type": "note_off", "time": 112, "note": 62, "velocity": 111, "channel": 0}, {"type": "note_on", "time": 98, "note": 64, "velocity": 117, "channel": 0}, {"type": "note_off", "time": 130, "note": 64, "velocity": 117, "channel": 0}, {"type": "note_on", "time": 0, "note": 61, "velocity": 109, "channel": 0}, {"type": "note_off", "time": 42, "note": 61, "velocity": 109, "channel": 0}, {"type": "note_on", "time": 28, "note": 56, "velocity": 104, "channel": 0}, {"type": "note_off", "time": 42, "note": 56, "velocity": 104, "channel": 0}, {"type": "note_on", "time": 3, "note": 53, "velocity": 104, "channel": 0}, {"type": "note_off", "time": 67, "note": 53, "velocity": 104, "channel": 0}, {"type": "note_on", "time": 88, "note": 61, "velocity": 104, "channel": 0}, {"type": "note_off", "time": 123, "note": 61, "velocity": 104, "channel": 0}, {"type": "note_on", "time": 627, "note": 61, "velocity": 106, "channel": 0}, {"type": "note_off", "time": 63, "note": 61, "velocity": 106, "channel": 0}, {"type": "note_on", "time": 3, "note": 62, "velocity": 115, "channel": 0}, {"type": "note_off", "time": 141, "note": 62, "velocity": 115, "channel": 0}, {"type": "note_on", "time": 17, "note": 65, "velocity": 106, "channel": 0}, {"type": "note_off", "time": 88, "note": 65, "velocity": 106, "channel": 0}, {"type": "note_on", "time": 88, "note": 63, "velocity": 119, "channel": 0}, {"type": "note_off", "time": 197, "note": 63, "velocity": 119, "channel": 0}, {"type": "note_on", "time": 24, "note": 65, "velocity": 113, "channel": 0}, {"type": "note_off", "time": 91, "note": 65, "velocity": 113, "channel": 0}, {"type": "note_on", "time": 84, "note": 68, "velocity": 108, "channel": 0}, {"type": "note_off", "time": 52, "note": 68, "velocity": 108, "channel": 0}, {"type": "note_on", "time": 3, "note": 69, "velocity": 117, "channel": 0}, {"type": "note_off", "time": 137, "note": 69, "velocity": 117, "channel": 0}, {"type": "note_on", "time": 10, "note": 65, "velocity": 99, "channel": 0}, {"type": "note_off", "time": 88, "note": 65, "velocity": 99, "channel": 0}, {"type": "note_on", "time": 0, "note": 70, "velocity": 117, "channel": 0}, {"type": "note_off", "time": 476, "note": 70, "velocity": 117, "channel": 0}, {"type": "note_on", "time": 825, "note": 69, "velocity": 114, "channel": 0}, {"type": "note_off", "time": 38, "note": 69, "velocity": 114, "channel": 0}, {"type": "note_on", "time": 0, "note": 70, "velocity": 118, "channel": 0}, {"type": "note_off", "time": 246, "note": 70, "velocity": 118, "channel": 0}, {"type": "note_on", "time": 24, "note": 69, "velocity": 116, "channel": 0}, {"type": "note_off", "time": 84, "note": 69, "velocity": 116, "channel": 0}, {"type": "note_on", "time": 0, "note": 68, "velocity": 115, "channel": 0}, {"type": "note_off", "time": 98, "note": 68, "velocity": 115, "channel": 0}, {"type": "note_on", "time": 10, "note": 67, "velocity": 116, "channel": 0}, {"type": "note_off", "time": 95, "note": 67, "velocity": 116, "channel": 0}, {"type": "note_on", "time": 88, "note": 62, "velocity": 100, "channel": 0}, {"type": "note_off", "time": 88, "note": 62, "velocity": 100, "channel": 0}, {"type": "note_on", "time": 14, "note": 67, "velocity": 94, "channel": 0}, {"type": "note_off", "time": 165, "note": 67, "velocity": 94, "channel": 0}, {"type": "note_on", "time": 158, "note": 62, "velocity": 100, "channel": 0}, {"type": "note_off", "time": 70, "note": 62, "velocity": 100, "channel": 0}, {"type": "note_on", "time": 0, "note": 65, "velocity": 112, "channel": 0}, {"type": "note_off", "time": 98, "note": 65, "velocity": 112, "channel": 0}, {"type": "note_on", "time": 17, "note": 63, "velocity": 104, "channel": 0}, {"type": "note_off", "time": 95, "note": 63, "velocity": 104, "channel": 0}, {"type": "note_on", "time": 0, "note": 70, "velocity": 117, "channel": 0}, {"type": "note_off", "time": 91, "note": 70, "velocity": 117, "channel": 0}, {"type": "note_on", "time": 0, "note": 66, "velocity": 111, "channel": 0}, {"type": "note_off", "time": 88, "note": 66, "velocity": 111, "channel": 0}, {"type": "note_on", "time": 0, "note": 65, "velocity": 110, "channel": 0}, {"type": "note_off", "time": 98, "note": 65, "velocity": 110, "channel": 0}, {"type": "note_on", "time": 0, "note": 63, "velocity": 118, "channel": 0}, {"type": "note_off", "time": 81, "note": 63, "velocity": 118, "channel": 0}, {"type": "note_on", "time": 14, "note": 62, "velocity": 115, "channel": 0}, {"type": "note_off", "time": 102, "note": 62, "velocity": 115, "channel": 0}, {"type": "note_on", "time": 0, "note": 60, "velocity": 101, "channel": 0}, {"type": "note_off", "time": 77, "note": 60, "velocity": 101, "channel": 0}, {"type": "note_on", "time": 10, "note": 58, "velocity": 86, "channel": 0}, {"type": "note_off", "time": 59, "note": 58, "velocity": 86, "channel": 0}, {"type": "note_on", "time": 63, "note": 60, "velocity": 93, "channel": 0}, {"type": "note_off", "time": 102, "note": 60, "velocity": 93, "channel": 0}, {"type": "note_on", "time": 14, "note": 63, "velocity": 96, "channel": 0}, {"type": "note_off", "time": 56, "note": 63, "velocity": 96, "channel": 0}, {"type": "note_on", "time": 14, "note": 65, "velocity": 101, "channel": 0}, {"type": "note_off", "time": 74, "note": 65, "velocity": 101, "channel": 0}, {"type": "note_on", "time": 0, "note": 69, "velocity": 117, "channel": 0}, {"type": "note_off", "time": 81, "note": 69, "velocity": 117, "channel": 0}, {"type": "note_on", "time": 0, "note": 70, "velocity": 116, "channel": 0}, {"type": "note_off", "time": 91, "note": 70, "velocity": 116, "channel": 0}, {"type": "note_on", "time": 0, "note": 65, "velocity": 109, "channel": 0}, {"type": "note_off", "time": 116, "note": 65, "velocity": 109, "channel": 0}, {"type": "note_on", "time": 7, "note": 62, "velocity": 105, "channel": 0}, {"type": "note_off", "time": 88, "note": 62, "velocity": 105, "channel": 0}, {"type": "note_on", "time": 0, "note": 66, "velocity": 106, "channel": 0}, {"type": "note_off", "time": 74, "note": 66, "velocity": 106, "channel": 0}, {"type": "note_on", "time": 7, "note": 67, "velocity": 112, "channel": 0}, {"type": "note_off", "time": 95, "note": 67, "velocity": 112, "channel": 0}, {"type": "note_on", "time": 0, "note": 63, "velocity": 117, "channel": 0}, {"type": "note_off", "time": 148, "note": 63, "velocity": 117, "channel": 0}, {"type": "note_on", "time": 0, "note": 60, "velocity": 95, "channel": 0}, {"type": "note_off", "time": 56, "note": 60, "velocity": 95, "channel": 0}, {"type": "note_on", "time": 0, "note": 65, "velocity": 105, "channel": 0}, {"type": "note_off", "time": 148, "note": 65, "velocity": 105, "channel": 0}, {"type": "note_on", "time": 0, "note": 61, "velocity": 105, "channel": 0}, {"type": "note_off", "time": 56, "note": 61, "velocity": 105, "channel": 0}, {"type": "note_on", "time": 10, "note": 57, "velocity": 93, "channel": 0}, {"type": "note_off", "time": 70, "note": 57, "velocity": 93, "channel": 0}, {"type": "note_on", "time": 3, "note": 54, "velocity": 94, "channel": 0}, {"type": "note_off", "time": 88, "note": 54, "velocity": 94, "channel": 0}, {"type": "note_on", "time": 14, "note": 53, "velocity": 99, "channel": 0}, {"type": "note_off", "time": 74, "note": 53, "velocity": 99, "channel": 0}, {"type": "note_on", "time": 17, "note": 63, "velocity": 113, "channel": 0}, {"type": "note_off", "time": 95, "note": 63, "velocity": 113, "channel": 0}, {"type": "note_on", "time": 14, "note": 62, "velocity": 106, "channel": 0}, {"type": "note_off", "time": 102, "note": 62, "velocity": 106, "channel": 0}, {"type": "note_on", "time": 0, "note": 60, "velocity": 102, "channel": 0}, {"type": "note_off", "time": 91, "note": 60, "velocity": 102, "channel": 0}, {"type": "note_on", "time": 14, "note": 58, "velocity": 91, "channel": 0}, {"type": "note_off", "time": 165, "note": 58, "velocity": 91, "channel": 0}, {"type": "end_of_track", "time": 0}]]}