{"ticks_per_beat": 192, "tracks": [[{"type": "track_name", "name": "Melody", "time": 0}, {"type": "set_tempo", "tempo": 422535, "time": 0}, {"type": "key_signature", "key": "Db", "time": 0}, {"type": "time_signature", "numerator": 4, "denominator": 4, "clocks_per_click": 24, "notated_32nd_notes_per_beat": 8, "time": 0}, {"type": "note_on", "time": 2454, "note": 58, "velocity": 109, "channel": 0}, {"type": "note_off", "time": 40, "note": 58, "velocity": 109, "channel": 0}, {"type": "note_on", "time": 55, "note": 63, "velocity": 121, "channel": 0}, {"type": "note_off", "time": 248, "note": 63, "velocity": 121, "channel": 0}, {"type": "note_on", "time": 9, "note": 63, "velocity": 119, "channel": 0}, {"type": "note_off", "time": 89, "note": 63, "velocity": 119, "channel": 0}, {"type": "note_on", "time": 9, "note": 65, "velocity": 110, "channel": 0}, {"type": "note_off", "time": 129, "note": 65, "velocity": 110, "channel": 0}, {"type": "note_on", "time": 3, "note": 63, "velocity": 120, "channel": 0}, {"type": "note_off", "time": 51, "note": 63, "velocity": 120, "channel": 0}, {"type": "note_on", "time": 84, "note": 63, "velocity": 112, "channel": 0}, {"type": "note_off", "time": 31, "note": 63, "velocity": 112, "channel": 0}, {"type": "note_on", "time": 2, "note": 65, "velocity": 108, "channel": 0}, {"type": "note_off", "time": 367, "note": 65, "velocity": 108, "channel": 0}, {"type": "note_on", "time": 7, "note": 63, "velocity": 117, "channel": 0}, {"type": "note_off", "time": 81, "note": 63, "velocity": 117, "channel": 0}, {"type": "note_on", "time": 29, "note": 65, "velocity": 106, "channel": 0}, {"type": "note_off", "time": 150, "note": 65, "velocity": 106, "channel": 0}, {"type": "note_on", "time": 11, "note": 63, "velocity": 122, "channel": 0}, {"type": "note_off", "time": 70, "note": 63, "velocity": 122, "channel": 0}, {"type": "note_on", "time": 46, "note": 69, "velocity": 119, "channel": 0}, {"type": "note_off", "time": 46, "note": 69, "velocity": 119, "channel": 0}, {"type": "note_on", "time": 18, "note": 70, "velocity": 122, "channel": 0}, {"type": "note_off", "time": 100, "note": 70, "velocity": 122, "channel": 0}, {"type": "note_on", "time": 22, "note": 70, "velocity": 109, "channel": 0}, {"type": "note_off", "time": 708, "note": 70, "velocity": 109, "channel": 0}, {"type": "note_on", "time": 263, "note": 69, "velocity": 121, "channel": 0}, {"type": "note_off", "time": 27, "note": 69, "velocity": 121, "channel": 0}, {"type": "note_on", "time": 35, "note": 72, "velocity": 127, "channel": 0}, {"type": "note_off", "time": 280, "note": 72, "velocity": 127, "channel": 0}, {"type": "note_on", "time": 2, "note": 70, "velocity": 116, "channel": 0}, {"type": "note_off", "time": 52, "note": 70, "velocity": 116, "channel": 0}, {"type": "note_on", "time": 3, "note": 72, "velocity": 122, "channel": 0}, {"type": "note_off", "time": 72, "note": 72, "velocity": 122, "channel": 0}, {"type": "note_on", "time": 5, "note": 68, "velocity": 115, "channel": 0}, {"type": "note_off", "time": 55, "note": 68, "velocity": 115, "channel": 0}, {"type": "note_on", "time": 220, "note": 68, "velocity": 110, "channel": 0}, {"type": "note_off", "time": 68, "note": 68, "velocity": 110, "channel": 0}, {"type": "note_on", "time": 58, "note": 69, "velocity": 119, "channel": 0}, {"type": "note_off", "time": 30, "note": 69, "velocity": 119, "channel": 0}, {"type": "note_on", "time": 3, "note": 70, "velocity": 120, "channel": 0}, {"type": "note_off", "time": 113, "note": 70, "velocity": 120, "channel": 0}, {"type": "note_on", "time": 9, "note": 68, "velocity": 110, "channel": 0}, {"type": "note_off", "time": 60, "note": 68, "velocity": 110, "channel": 0}, {"type": "note_on", "time": 85, "note": 67, "velocity": 107, "channel": 0}, {"type": "note_off", "time": 23, "note": 67, "velocity": 107, "channel": 0}, {"type": "note_on", "time": 4, "note": 69, "velocity": 116, "channel": 0}, {"type": "note_off", "time": 167, "note": 69, "velocity": 116, "channel": 0}, {"type": "note_on", "time": 5, "note": 68, "velocity": 110, "channel": 0}, {"type": "note_off", "time": 143, "note": 68, "velocity": 110, "channel": 0}, {"type": "note_on", "time": 1, "note": 67, "velocity": 105, "channel": 0}, {"type": "note_off", "time": 195, "note": 67, "velocity": 105, "channel": 0}, {"type": "note_on", "time": 5, "note": 68, "velocity": 113, "channel": 0}, {"type": "note_off", "time": 149, "note": 68, "velocity": 113, "channel": 0}, {"type": "note_on", "time": 17, "note": 70, "velocity": 100, "channel": 0}, {"type": "note_off", "time": 54, "note": 70, "velocity": 100, "channel": 0}, {"type": "note_on", "time": 4, "note": 75, "velocity": 109, "channel": 0}, {"type": "note_off", "time": 399, "note": 75, "velocity": 109, "channel": 0}, {"type": "note_on", "time": 298, "note": 73, "velocity": 117, "channel": 0}, {"type": "note_off", "time": 92, "note": 73, "velocity": 117, "channel": 0}, {"type": "note_on", "time": 5, "note": 71, "velocity": 117, "channel": 0}, {"type": "note_off", "time": 498, "note": 71, "velocity": 117, "channel": 0}, {"type": "note_on", "time": 3, "note": 69, "velocity": 110, "channel": 0}, {"type": "note_off", "time": 58, "note": 69, "velocity": 110, "channel": 0}, {"type": "note_on", "time": 6, "note": 66, "velocity": 114, "channel": 0}, {"type": "note_off", "time": 47, "note": 66, "velocity": 114, "channel": 0}, {"type": "note_on", "time": 7, "note": 71, "velocity": 105, "channel": 0}, {"type": "note_off", "time": 44, "note": 71, "velocity": 105, "channel": 0}, {"type": "note_on", "time": 1, "note": 67, "velocity": 102, "channel": 0}, {"type": "note_off", "time": 51, "note": 67, "velocity": 102, "channel": 0}, {"type": "note_on", "time": 2, "note": 64, "velocity": 100, "channel": 0}, {"type": "note_off", "time": 36, "note": 64, "velocity": 100, "channel": 0}, {"type": "note_on", "time": 315, "note": 63, "velocity": 122, "channel": 0}, {"type": "note_off", "time": 64, "note": 63, "velocity": 122, "channel": 0}, {"type": "note_on", "time": 35, "note": 73, "velocity": 117, "channel": 0}, {"type": "note_off", "time": 89, "note": 73, "velocity": 117, "channel": 0}, {"type": "note_on", "time": 3, "note": 72, "velocity": 121, "channel": 0}, {"type": "note_off", "time": 30, "note": 72, "velocity": 121, "channel": 0}, {"type": "note_on", "time": 0, "note": 71, "velocity": 122, "channel": 0}, {"type": "note_off", "time": 23, "note": 71, "velocity": 122, "channel": 0}, {"type": "note_on", "time": 1, "note": 70, "velocity": 120, "channel": 0}, {"type": "note_off", "time": 65, "note": 70, "velocity": 120, "channel": 0}, {"type": "note_on", "time": 64, "note": 69, "velocity": 111, "channel": 0}, {"type": "note_off", "time": 26, "note": 69, "velocity": 111, "channel": 0}, {"type": "note_on", "time": 5, "note": 70, "velocity": 116, "channel": 0}, {"type": "note_off", "time": 312, "note": 70, "velocity": 116, "channel": 0}, {"type": "note_on", "time": 5, "note": 68, "velocity": 103, "channel": 0}, {"type": "note_off", "time": 42, "note": 68, "velocity": 103, "channel": 0}, {"type": "note_on", "time": 3, "note": 70, "velocity": 113, "channel": 0}, {"type": "note_off", "time": 55, "note": 70, "velocity": 113, "channel": 0}, {"type": "note_on", "time": 6, "note": 66, "velocity": 110, "channel": 0}, {"type": "note_off", "time": 105, "note": 66, "velocity": 110, "channel": 0}, {"type": "note_on", "time": 18, "note": 73, "velocity": 111, "channel": 0}, {"type": "note_off", "time": 79, "note": 73, "velocity": 111, "channel": 0}, {"type": "note_on", "time": 69, "note": 73, "velocity": 110, "channel": 0}, {"type": "note_off", "time": 100, "note": 73, "velocity": 110, "channel": 0}, {"type": "note_on", "time": 43, "note": 63, "velocity": 115, "channel": 0}, {"type": "note_off", "time": 32, "note": 63, "velocity": 115, "channel": 0}, {"type": "note_on", "time": 10, "note": 65, "velocity": 102, "channel": 0}, {"type": "note_off", "time": 234, "note": 65, "velocity": 102, "channel": 0}, {"type": "note_on", "time": 21, "note": 65, "velocity": 96, "channel": 0}, {"type": "note_off", "time": 352, "note": 65, "velocity": 96, "channel": 0}, {"type": "note_on", "time": 7, "note": 63, "velocity": 100, "channel": 0}, {"type": "note_off", "time": 38, "note": 63, "velocity": 100, "channel": 0}, {"type": "note_on", "time": 1, "note": 65, "velocity": 104, "channel": 0}, {"type": "note_off", "time": 44, "note": 65, "velocity": 104, "channel": 0}, {"type": "note_on", "time": 5, "note": 68, "velocity": 104, "channel": 0}, {"type": "note_off", "time": 35, "note": 68, "velocity": 104, "channel": 0}, {"type": "note_on", "time": 9, "note": 66, "velocity": 107, "channel": 0}, {"type": "note_off", "time": 35, "note": 66, "velocity": 107, "channel": 0}, {"type": "note_on", "time": 14, "note": 63, "velocity": 112, "channel": 0}, {"type": "note_off", "time": 38, "note": 63, "velocity": 112, "channel": 0}, {"type": "note_on", "time": 0, "note": 61, "velocity": 102, "channel": 0}, {"type": "note_off", "time": 39, "note": 61, "velocity": 102, "channel": 0}, {"type": "note_on", "time": 3, "note": 59, "velocity": 111, "channel": 0}, {"type": "note_off", "time": 48, "note": 59, "velocity": 111, "channel": 0}, {"type": "note_on", "time": 2, "note": 58, "velocity": 106, "channel": 0}, {"type": "note_off", "time": 36, "note": 58, "velocity": 106, "channel": 0}, {"type": "note_on", "time": 7, "note": 57, "velocity": 106, "channel": 0}, {"type": "note_off", "time": 50, "note": 57, "velocity": 106, "channel": 0}, {"type": "note_on", "time": 2, "note": 60, "velocity": 106, "channel": 0}, {"type": "note_off", "time": 36, "note": 60, "velocity": 106, "channel": 0}, {"type": "note_on", "time": 6, "note": 56, "velocity": 106, "channel": 0}, {"type": "note_off", "time": 47, "note": 56, "velocity": 106, "channel": 0}, {"type": "note_on", "time": 7, "note": 59, "velocity": 108, "channel": 0}, {"type": "note_off", "time": 43, "note": 59, "velocity": 108, "channel": 0}, {"type": "note_on", "time": 5, "note": 57, "velocity": 112, "channel": 0}, {"type": "note_off", "time": 32, "note": 57, "velocity": 112, "channel": 0}, {"type": "note_on", "time": 7, "note": 55, "velocity": 119, "channel": 0}, {"type": "note_off", "time": 27, "note": 55, "velocity": 119, "channel": 0}, {"type": "note_on", "time": 12, "note": 54, "velocity": 111, "channel": 0}, {"type": "note_off", "time": 35, "note": 54, "velocity": 111, "channel": 0}, {"type": "note_on", "time": 9, "note": 57, "velocity": 109, "channel": 0}, {"type": "note_off", "time": 46, "note": 57, "velocity": 109, "channel": 0}, {"type": "note_on", "time": 5, "note": 53, "velocity": 102, "channel": 0}, {"type": "note_off", "time": 38, "note": 53, "velocity": 102, "channel": 0}, {"type": "note_on", "time": 1, "note": 52, "velocity": 102, "channel": 0}, {"type": "note_off", "time": 48, "note": 52, "velocity": 102, "channel": 0}, {"type": "note_on", "time": 0, "note": 51, "velocity": 101, "channel": 0}, {"type": "note_off", "time": 38, "note": 51, "velocity": 101, "channel": 0}, {"type": "note_on", "time": 278, "note": 61, "velocity": 106, "channel": 0}, {"type": "note_off", "time": 64, "note": 61, "velocity": 106, "channel": 0}, {"type": "note_on", "time": 10, "note": 63, "velocity": 117, "channel": 0}, {"type": "note_off", "time": 131, "note": 63, "velocity": 117, "channel": 0}, {"type": "note_on", "time": 17, "note": 65, "velocity": 108, "channel": 0}, {"type": "note_off", "time": 67, "note": 65, "velocity": 108, "channel": 0}, {"type": "note_on", "time": 69, "note": 66, "velocity": 115, "channel": 0}, {"type": "note_off", "time": 38, "note": 66, "velocity": 115, "channel": 0}, {"type": "note_on", "time": 9, "note": 68, "velocity": 110, "channel": 0}, {"type": "note_off", "time": 346, "note": 68, "velocity": 110, "channel": 0}, {"type": "note_on", "time": 21, "note": 68, "velocity": 111, "channel": 0}, {"type": "note_off", "time": 61, "note": 68, "velocity": 111, "channel": 0}, {"type": "note_on", "time": 71, "note": 68, "velocity": 114, "channel": 0}, {"type": "note_off", "time": 87, "note": 68, "velocity": 114, "channel": 0}, {"type": "note_on", "time": 6, "note": 73, "velocity": 115, "channel": 0}, {"type": "note_off", "time": 88, "note": 73, "velocity": 115, "channel": 0}, {"type": "note_on", "time": 52, "note": 67, "velocity": 106, "channel": 0}, {"type": "note_off", "time": 21, "note": 67, "velocity": 106, "channel": 0}, {"type": "note_on", "time": 5, "note": 68, "velocity": 112, "channel": 0}, {"type": "note_off", "time": 179, "note": 68, "velocity": 112, "channel": 0}, {"type": "note_on", "time": 9, "note": 63, "velocity": 118, "channel": 0}, {"type": "note_off", "time": 79, "note": 63, "velocity": 118, "channel": 0}, {"type": "note_on", "time": 43, "note": 63, "velocity": 116, "channel": 0}, {"type": "note_off", "time": 46, "note": 63, "velocity": 116, "channel": 0}, {"type": "note_on", "time": 7, "note": 68, "velocity": 114, "channel": 0}, {"type": "note_off", "time": 60, "note": 68, "velocity": 114, "channel": 0}, {"type": "note_on", "time": 5, "note": 65, "velocity": 103, "channel": 0}, {"type": "note_off", "time": 127, "note": 65, "velocity": 103, "channel": 0}, {"type": "note_on", "time": 19, "note": 64, "velocity": 110, "channel": 0}, {"type": "note_off", "time": 46, "note": 64, "velocity": 110, "channel": 0}, {"type": "note_on", "time": 9, "note": 65, "velocity": 99, "channel": 0}, {"type": "note_off", "time": 105, "note": 65, "velocity": 99, "channel": 0}, {"type": "note_on", "time": 3, "note": 61, "velocity": 97, "channel": 0}, {"type": "note_off", "time": 270, "note": 61, "velocity": 97, "channel": 0}, {"type": "note_on", "time": 218, "note": 65, "velocity": 107, "channel": 0}, {"type": "note_off", "time": 27, "note": 65, "velocity": 107, "channel": 0}, {"type": "note_on", "time": 6, "note": 66, "velocity": 111, "channel": 0}, {"type": "note_off", "time": 97, "note": 66, "velocity": 111, "channel": 0}, {"type": "note_on", "time": 5, "note": 63, "velocity": 101, "channel": 0}, {"type": "note_off", "time": 29, "note": 63, "velocity": 101, "channel": 0}, {"type": "note_on", "time": 6, "note": 65, "velocity": 108, "channel": 0}, {"type": "note_off", "time": 25, "note": 65, "velocity": 108, "channel": 0}, {"type": "note_on", "time": 7, "note": 66, "velocity": 110, "channel": 0}, {"type": "note_off", "time": 145, "note": 66, "velocity": 110, "channel": 0}, {"type": "note_on", "time": 1, "note": 63, "velocity": 112, "channel": 0}, {"type": "note_off", "time": 379, "note": 63, "velocity": 112, "channel": 0}, {"type": "note_on", "time": 174, "note": 66, "velocity": 116, "channel": 0}, {"type": "note_off", "time": 52, "note": 66, "velocity": 116, "channel": 0}, {"type": "note_on", "time": 5, "note": 65, "velocity": 113, "channel": 0}, {"type": "note_off", "time": 36, "note": 65, "velocity": 113, "channel": 0}, {"type": "note_on", "time": 23, "note": 63, "velocity": 97, "channel": 0}, {"type": "note_off", "time": 34, "note": 63, "velocity": 97, "channel": 0}, {"type": "note_on", "time": 15, "note": 66, "velocity": 111, "channel": 0}, {"type": "note_off", "time": 64, "note": 66, "velocity": 111, "channel": 0}, {"type": "note_on", "time": 31, "note": 62, "velocity": 113, "channel": 0}, {"type": "note_off", "time": 280, "note": 62, "velocity": 113, "channel": 0}, {"type": "note_on", "time": 9, "note": 66, "velocity": 112, "channel": 0}, {"type": "note_off", "time": 59, "note": 66, "velocity": 112, "channel": 0}, {"type": "note_on", "time": 10, "note": 63, "velocity": 117, "channel": 0}, {"type": "note_off", "time": 125, "note": 63, "velocity": 117, "channel": 0}, {"type": "note_on", "time": 11, "note": 59, "velocity": 105, "channel": 0}, {"type": "note_off", "time": 54, "note": 59, "velocity": 105, "channel": 0}, {"type": "note_on", "time": 300, "note": 61, "velocity": 112, "channel": 0}, {"type": "note_off", "time": 71, "note": 61, "velocity": 112, "channel": 0}, {"type": "note_on", "time": 10, "note": 58, "velocity": 107, "channel": 0}, {"type": "note_off", "time": 46, "note": 58, "velocity": 107, "channel": 0}, {"type": "note_on", "time": 15, "note": 54, "velocity": 106, "channel": 0}, {"type": "note_off", "time": 46, "note": 54, "velocity": 106, "channel": 0}, {"type": "note_on", "time": 5, "note": 61, "velocity": 108, "channel": 0}, {"type": "note_off", "time": 42, "note": 61, "velocity": 108, "channel": 0}, {"type": "note_on", "time": 5, "note": 66, "velocity": 109, "channel": 0}, {"type": "note_off", "time": 61, "note": 66, "velocity": 109, "channel": 0}, {"type": "note_on", "time": 17, "note": 64, "velocity": 117, "channel": 0}, {"type": "note_off", "time": 179, "note": 64, "velocity": 117, "channel": 0}, {"type": "note_on", "time": 9, "note": 62, "velocity": 113, "channel": 0}, {"type": "note_off", "time": 52, "note": 62, "velocity": 113, "channel": 0}, {"type": "note_on", "time": 10, "note": 61, "velocity": 103, "channel": 0}, {"type": "note_off", "time": 52, "note": 61, "velocity": 103, "channel": 0}, {"type": "note_on", "time": 3, "note": 64, "velocity": 108, "channel": 0}, {"type": "note_off", "time": 44, "note": 64, "velocity": 108, "channel": 0}, {"type": "note_on", "time": 13, "note": 62, "velocity": 110, "channel": 0}, {"type": "note_off", "time": 152, "note": 62, "velocity": 110, "channel": 0}, {"type": "note_on", "time": 3, "note": 64, "velocity": 113, "channel": 0}, {"type": "note_off", "time": 131, "note": 64, "velocity": 113, "channel": 0}, {"type": "note_on", "time": 6, "note": 60, "velocity": 103, "channel": 0}, {"type": "note_off", "time": 370, "note": 60, "velocity": 103, "channel": 0}, {"type": "note_on", "time": 44, "note": 58, "velocity": 114, "channel": 0}, {"type": "note_off", "time": 32, "note": 58, "velocity": 114, "channel": 0}, {"type": "note_on", "time": 10, "note": 63, "velocity": 119, "channel": 0}, {"type": "note_off", "time": 81, "note": 63, "velocity": 119, "channel": 0}, {"type": "note_on", "time": 357, "note": 68, "velocity": 108, "channel": 0}, {"type": "note_off", "time": 61, "note": 68, "velocity": 108, "channel": 0}, {"type": "note_on", "time": 63, "note": 70, "velocity": 121, "channel": 0}, {"type": "note_off", "time": 85, "note": 70, "velocity": 121, "channel": 0}, {"type": "note_on", "time": 5, "note": 68, "velocity": 113, "channel": 0}, {"type": "note_off", "time": 56, "note": 68, "velocity": 113, "channel": 0}, {"type": "note_on", "time": 60, "note": 68, "velocity": 115, "channel": 0}, {"type": "note_off", "time": 27, "note": 68, "velocity": 115, "channel": 0}, {"type": "note_on", "time": 0, "note": 69, "velocity": 118, "channel": 0}, {"type": "note_off", "time": 137, "note": 69, "velocity": 118, "channel": 0}, {"type": "note_on", "time": 7, "note": 68, "velocity": 115, "channel": 0}, {"type": "note_off", "time": 110, "note": 68, "velocity": 115, "channel": 0}, {"type": "note_on", "time": 27, "note": 67, "velocity": 110, "channel": 0}, {"type": "note_off", "time": 159, "note": 67, "velocity": 110, "channel": 0}, {"type": "note_on", "time": 5, "note": 68, "velocity": 114, "channel": 0}, {"type": "note_off", "time": 108, "note": 68, "velocity": 114, "channel": 0}, {"type": "note_on", "time": 46, "note": 75, "velocity": 111, "channel": 0}, {"type": "note_off", "time": 47, "note": 75, "velocity": 111, "channel": 0}, {"type": "note_on", "time": 6, "note": 72, "velocity": 117, "channel": 0}, {"type": "note_off", "time": 31, "note": 72, "velocity": 117, "channel": 0}, {"type": "note_on", "time": 5, "note": 75, "velocity": 120, "channel": 0}, {"type": "note_off", "time": 44, "note": 75, "velocity": 120, "channel": 0}, {"type": "note_on", "time": 13, "note": 72, "velocity": 119, "channel": 0}, {"type": "note_off", "time": 246, "note": 72, "velocity": 119, "channel": 0}, {"type": "note_on", "time": 6, "note": 68, "velocity": 106, "channel": 0}, {"type": "note_off", "time": 35, "note": 68, "velocity": 106, "channel": 0}, {"type": "note_on", "time": 9, "note": 72, "velocity": 119, "channel": 0}, {"type": "note_off", "time": 50, "note": 72, "velocity": 119, "channel": 0}, {"type": "note_on", "time": 3, "note": 68, "velocity": 110, "channel": 0}, {"type": "note_off", "time": 64, "note": 68, "velocity": 110, "channel": 0}, {"type": "note_on", "time": 6, "note": 65, "velocity": 95, "channel": 0}, {"type": "note_off", "time": 48, "note": 65, "velocity": 95, "channel": 0}, {"type": "note_on", "time": 5, "note": 68, "velocity": 110, "channel": 0}, {"type": "note_off", "time": 48, "note": 68, "velocity": 110, "channel": 0}, {"type": "note_on", "time": 6, "note": 65, "velocity": 107, "channel": 0}, {"type": "note_off", "time": 50, "note": 65, "velocity": 107, "channel": 0}, {"type": "note_on", "time": 13, "note": 60, "velocity": 100, "channel": 0}, {"type": "note_off", "time": 54, "note": 60, "velocity": 100, "channel": 0}, {"type": "note_on", "time": 18, "note": 65, "velocity": 101, "channel": 0}, {"type": "note_off", "time": 48, "note": 65, "velocity": 101, "channel": 0}, {"type": "note_on", "time": 7, "note": 66, "velocity": 111, "channel": 0}, {"type": "note_off", "time": 61, "note": 66, "velocity": 111, "channel": 0}, {"type": "note_on", "time": 6, "note": 64, "velocity": 98, "channel": 0}, {"type": "note_off", "time": 47, "note": 64, "velocity": 98, "channel": 0}, {"type": "note_on", "time": 2, "note": 66, "velocity": 104, "channel": 0}, {"type": "note_off", "time": 80, "note": 66, "velocity": 104, "channel": 0}, {"type": "note_on", "time": 6, "note": 64, "velocity": 110, "channel": 0}, {"type": "note_off", "time": 69, "note": 64, "velocity": 110, "channel": 0}, {"type": "note_on", "time": 2, "note": 61, "velocity": 99, "channel": 0}, {"type": "note_off", "time": 44, "note": 61, "velocity": 99, "channel": 0}, {"type": "note_on", "time": 9, "note": 64, "velocity": 114, "channel": 0}, {"type": "note_off", "time": 50, "note": 64, "velocity": 114, "channel": 0}, {"type": "note_on", "time": 6, "note": 61, "velocity": 102, "channel": 0}, {"type": "note_off", "time": 135, "note": 61, "velocity": 102, "channel": 0}, {"type": "note_on", "time": 1, "note": 59, "velocity": 112, "channel": 0}, {"type": "note_off", "time": 43, "note": 59, "velocity": 112, "channel": 0}, {"type": "note_on", "time": 7, "note": 55, "velocity": 106, "channel": 0}, {"type": "note_off", "time": 47, "note": 55, "velocity": 106, "channel": 0}, {"type": "note_on", "time": 9, "note": 52, "velocity": 103, "channel": 0}, {"type": "note_off", "time": 51, "note": 52, "velocity": 103, "channel": 0}, {"type": "note_on", "time": 374, "note": 63, "velocity": 123, "channel": 0}, {"type": "note_on", "time": 50, "note": 61, "velocity": 103, "channel": 0}, {"type": "note_off", "time": 0, "note": 63, "velocity": 123, "channel": 0}, {"type": "note_off", "time": 19, "note": 61, "velocity": 103, "channel": 0}, {"type": "note_on", "time": 11, "note": 73, "velocity": 100, "channel": 0}, {"type": "note_off", "time": 60, "note": 73, "velocity": 100, "channel": 0}, {"type": "note_on", "time": 19, "note": 73, "velocity": 120, "channel": 0}, {"type": "note_off", "time": 126, "note": 73, "velocity": 120, "channel": 0}, {"type": "note_on", "time": 14, "note": 73, "velocity": 118, "channel": 0}, {"type": "note_off", "time": 79, "note": 73, "velocity": 118, "channel": 0}, {"type": "note_on", "time": 35, "note": 72, "velocity": 115, "channel": 0}, {"type": "note_off", "time": 22, "note": 72, "velocity": 115, "channel": 0}, {"type": "note_on", "time": 6, "note": 73, "velocity": 118, "channel": 0}, {"type": "note_off", "time": 88, "note": 73, "velocity": 118, "channel": 0}, {"type": "note_on", "time": 2, "note": 72, "velocity": 117, "channel": 0}, {"type": "note_off", "time": 26, "note": 72, "velocity": 117, "channel": 0}, {"type": "note_on", "time": 9, "note": 71, "velocity": 120, "channel": 0}, {"type": "note_off", "time": 25, "note": 71, "velocity": 120, "channel": 0}, {"type": "note_on", "time": 5, "note": 70, "velocity": 116, "channel": 0}, {"type": "note_off", "time": 93, "note": 70, "velocity": 116, "channel": 0}, {"type": "note_on", "time": 43, "note": 70, "velocity": 116, "channel": 0}, {"type": "note_off", "time": 89, "note": 70, "velocity": 116, "channel": 0}, {"type": "note_on", "time": 54, "note": 70, "velocity": 117, "channel": 0}, {"type": "note_off", "time": 98, "note": 70, "velocity": 117, "channel": 0}, {"type": "note_on", "time": 10, "note": 66, "velocity": 109, "channel": 0}, {"type": "note_off", "time": 81, "note": 66, "velocity": 109, "channel": 0}, {"type": "note_on", "time": 40, "note": 73, "velocity": 107, "channel": 0}, {"type": "note_off", "time": 94, "note": 73, "velocity": 107, "channel": 0}, {"type": "note_on", "time": 25, "note": 63, "velocity": 119, "channel": 0}, {"type": "note_off", "time": 39, "note": 63, "velocity": 119, "channel": 0}, {"type": "note_on", "time": 5, "note": 65, "velocity": 103, "channel": 0}, {"type": "note_off", "time": 334, "note": 65, "velocity": 103, "channel": 0}, {"type": "note_on", "time": 6, "note": 66, "velocity": 104, "channel": 0}, {"type": "note_off", "time": 37, "note": 66, "velocity": 104, "channel": 0}, {"type": "note_on", "time": 10, "note": 68, "velocity": 97, "channel": 0}, {"type": "note_off", "time": 26, "note": 68, "velocity": 97, "channel": 0}, {"type": "note_on", "time": 10, "note": 70, "velocity": 103, "channel": 0}, {"type": "note_off", "time": 26, "note": 70, "velocity": 103, "channel": 0}, {"type": "note_on", "time": 10, "note": 73, "velocity": 108, "channel": 0}, {"type": "note_off", "time": 45, "note": 73, "velocity": 108, "channel": 0}, {"type": "note_on", "time": 12, "note": 67, "velocity": 110, "channel": 0}, {"type": "note_off", "time": 19, "note": 67, "velocity": 110, "channel": 0}, {"type": "note_on", "time": 6, "note": 69, "velocity": 103, "channel": 0}, {"type": "note_off", "time": 18, "note": 69, "velocity": 103, "channel": 0}, {"type": "note_on", "time": 5, "note": 71, "velocity": 111, "channel": 0}, {"type": "note_off", "time": 33, "note": 71, "velocity": 111, "channel": 0}, {"type": "note_on", "time": 3, "note": 69, "velocity": 108, "channel": 0}, {"type": "note_off", "time": 25, "note": 69, "velocity": 108, "channel": 0}, {"type": "note_on", "time": 0, "note": 67, "velocity": 105, "channel": 0}, {"type": "note_off", "time": 26, "note": 67, "velocity": 105, "channel": 0}, {"type": "note_on", "time": 2, "note": 66, "velocity": 105, "channel": 0}, {"type": "note_off", "time": 31, "note": 66, "velocity": 105, "channel": 0}, {"type": "note_on", "time": 6, "note": 69, "velocity": 108, "channel": 0}, {"type": "note_off", "time": 30, "note": 69, "velocity": 108, "channel": 0}, {"type": "note_on", "time": 7, "note": 65, "velocity": 105, "channel": 0}, {"type": "note_off", "time": 28, "note": 65, "velocity": 105, "channel": 0}, {"type": "note_on", "time": 1, "note": 64, "velocity": 106, "channel": 0}, {"type": "note_off", "time": 30, "note": 64, "velocity": 106, "channel": 0}, {"type": "note_on", "time": 3, "note": 63, "velocity": 113, "channel": 0}, {"type": "note_off", "time": 25, "note": 63, "velocity": 113, "channel": 0}, {"type": "note_on", "time": 0, "note": 67, "velocity": 108, "channel": 0}, {"type": "note_off", "time": 27, "note": 67, "velocity": 108, "channel": 0}, {"type": "note_on", "time": 14, "note": 66, "velocity": 97, "channel": 0}, {"type": "note_off", "time": 63, "note": 66, "velocity": 97, "channel": 0}, {"type": "note_on", "time": 302, "note": 64, "velocity": 119, "channel": 0}, {"type": "note_off", "time": 25, "note": 64, "velocity": 119, "channel": 0}, {"type": "note_on", "time": 8, "note": 65, "velocity": 102, "channel": 0}, {"type": "note_off", "time": 148, "note": 65, "velocity": 102, "channel": 0}, {"type": "note_on", "time": 6, "note": 63, "velocity": 117, "channel": 0}, {"type": "note_off", "time": 64, "note": 63, "velocity": 117, "channel": 0}, {"type": "note_on", "time": 42, "note": 61, "velocity": 109, "channel": 0}, {"type": "note_off", "time": 268, "note": 61, "velocity": 109, "channel": 0}, {"type": "note_on", "time": 4, "note": 63, "velocity": 120, "channel": 0}, {"type": "note_off", "time": 90, "note": 63, "velocity": 120, "channel": 0}, {"type": "note_on", "time": 39, "note": 63, "velocity": 114, "channel": 0}, {"type": "note_off", "time": 131, "note": 63, "velocity": 114, "channel": 0}, {"type": "note_on", "time": 1, "note": 65, "velocity": 108, "channel": 0}, {"type": "note_off", "time": 111, "note": 65, "velocity": 108, "channel": 0}, {"type": "note_on", "time": 22, "note": 66, "velocity": 119, "channel": 0}, {"type": "note_off", "time": 17, "note": 66, "velocity": 119, "channel": 0}, {"type": "note_on", "time": 13, "note": 68, "velocity": 115, "channel": 0}, {"type": "note_off", "time": 320, "note": 68, "velocity": 115, "channel": 0}, {"type": "note_on", "time": 22, "note": 68, "velocity": 113, "channel": 0}, {"type": "note_off", "time": 74, "note": 68, "velocity": 113, "channel": 0}, {"type": "note_on", "time": 70, "note": 68, "velocity": 112, "channel": 0}, {"type": "note_off", "time": 114, "note": 68, "velocity": 112, "channel": 0}, {"type": "note_on", "time": 12, "note": 73, "velocity": 116, "channel": 0}, {"type": "note_off", "time": 100, "note": 73, "velocity": 116, "channel": 0}, {"type": "note_on", "time": 50, "note": 68, "velocity": 112, "channel": 0}, {"type": "note_off", "time": 238, "note": 68, "velocity": 112, "channel": 0}, {"type": "note_on", "time": 5, "note": 63, "velocity": 113, "channel": 0}, {"type": "note_off", "time": 94, "note": 63, "velocity": 113, "channel": 0}, {"type": "note_on", "time": 1, "note": 68, "velocity": 110, "channel": 0}, {"type": "note_off", "time": 39, "note": 68, "velocity": 110, "channel": 0}, {"type": "note_on", "time": 8, "note": 65, "velocity": 98, "channel": 0}, {"type": "note_off", "time": 216, "note": 65, "velocity": 98, "channel": 0}, {"type": "note_on", "time": 4, "note": 63, "velocity": 108, "channel": 0}, {"type": "note_off", "time": 25, "note": 63, "velocity": 108, "channel": 0}, {"type": "note_on", "time": 3, "note": 65, "velocity": 99, "channel": 0}, {"type": "note_off", "time": 87, "note": 65, "velocity": 99, "channel": 0}, {"type": "note_on", "time": 18, "note": 61, "velocity": 101, "channel": 0}, {"type": "note_off", "time": 164, "note": 61, "velocity": 101, "channel": 0}, {"type": "note_on", "time": 248, "note": 61, "velocity": 104, "channel": 0}, {"type": "note_off", "time": 22, "note": 61, "velocity": 104, "channel": 0}, {"type": "note_on", "time": 2, "note": 62, "velocity": 111, "channel": 0}, {"type": "note_off", "time": 31, "note": 62, "velocity": 111, "channel": 0}, {"type": "note_on", "time": 3, "note": 64, "velocity": 115, "channel": 0}, {"type": "note_off", "time": 43, "note": 64, "velocity": 115, "channel": 0}, {"type": "note_on", "time": 0, "note": 62, "velocity": 114, "channel": 0}, {"type": "note_off", "time": 42, "note": 62, "velocity": 114, "channel": 0}, {"type": "note_on", "time": 10, "note": 61, "velocity": 105, "channel": 0}, {"type": "note_off", "time": 52, "note": 61, "velocity": 105, "channel": 0}, {"type": "note_on", "time": 14, "note": 59, "velocity": 111, "channel": 0}, {"type": "note_off", "time": 29, "note": 59, "velocity": 111, "channel": 0}, {"type": "note_on", "time": 9, "note": 58, "velocity": 108, "channel": 0}, {"type": "note_off", "time": 47, "note": 58, "velocity": 108, "channel": 0}, {"type": "note_on", "time": 0, "note": 57, "velocity": 111, "channel": 0}, {"type": "note_off", "time": 35, "note": 57, "velocity": 111, "channel": 0}, {"type": "note_on", "time": 7, "note": 56, "velocity": 105, "channel": 0}, {"type": "note_off", "time": 27, "note": 56, "velocity": 105, "channel": 0}, {"type": "note_on", "time": 3, "note": 54, "velocity": 111, "channel": 0}, {"type": "note_off", "time": 29, "note": 54, "velocity": 111, "channel": 0}, {"type": "note_on", "time": 0, "note": 59, "velocity": 110, "channel": 0}, {"type": "note_off", "time": 34, "note": 59, "velocity": 110, "channel": 0}, {"type": "note_on", "time": 14, "note": 57, "velocity": 113, "channel": 0}, {"type": "note_off", "time": 17, "note": 57, "velocity": 113, "channel": 0}, {"type": "note_on", "time": 15, "note": 54, "velocity": 113, "channel": 0}, {"type": "note_off", "time": 80, "note": 54, "velocity": 113, "channel": 0}, {"type": "note_on", "time": 345, "note": 62, "velocity": 117, "channel": 0}, {"type": "note_off", "time": 28, "note": 62, "velocity": 117, "channel": 0}, {"type": "note_on", "time": 1, "note": 64, "velocity": 121, "channel": 0}, {"type": "note_off", "time": 51, "note": 64, "velocity": 121, "channel": 0}, {"type": "note_on", "time": 5, "note": 66, "velocity": 116, "channel": 0}, {"type": "note_off", "time": 53, "note": 66, "velocity": 116, "channel": 0}, {"type": "note_on", "time": 72, "note": 69, "velocity": 115, "channel": 0}, {"type": "note_off", "time": 62, "note": 69, "velocity": 115, "channel": 0}, {"type": "note_on", "time": 73, "note": 68, "velocity": 109, "channel": 0}, {"type": "note_off", "time": 17, "note": 68, "velocity": 109, "channel": 0}, {"type": "note_on", "time": 4, "note": 69, "velocity": 9, "channel": 0}, {"type": "note_off", "time": 113, "note": 69, "velocity": 9, "channel": 0}, {"type": "note_on", "time": 15, "note": 69, "velocity": 118, "channel": 0}, {"type": "note_off", "time": 67, "note": 69, "velocity": 118, "channel": 0}, {"type": "note_on", "time": 29, "note": 70, "velocity": 111, "channel": 0}, {"type": "note_off", "time": 26, "note": 70, "velocity": 111, "channel": 0}, {"type": "note_on", "time": 12, "note": 71, "velocity": 123, "channel": 0}, {"type": "note_off", "time": 216, "note": 71, "velocity": 123, "channel": 0}, {"type": "note_on", "time": 9, "note": 69, "velocity": 118, "channel": 0}, {"type": "note_off", "time": 70, "note": 69, "velocity": 118, "channel": 0}, {"type": "note_on", "time": 25, "note": 71, "velocity": 113, "channel": 0}, {"type": "note_off", "time": 35, "note": 71, "velocity": 113, "channel": 0}, {"type": "note_on", "time": 36, "note": 74, "velocity": 112, "channel": 0}, {"type": "note_off", "time": 326, "note": 74, "velocity": 112, "channel": 0}, {"type": "note_on", "time": 23, "note": 74, "velocity": 108, "channel": 0}, {"type": "note_off", "time": 80, "note": 74, "velocity": 108, "channel": 0}, {"type": "note_on", "time": 45, "note": 74, "velocity": 109, "channel": 0}, {"type": "note_off", "time": 120, "note": 74, "velocity": 109, "channel": 0}, {"type": "note_on", "time": 28, "note": 69, "velocity": 108, "channel": 0}, {"type": "note_off", "time": 56, "note": 69, "velocity": 108, "channel": 0}, {"type": "note_on", "time": 45, "note": 69, "velocity": 107, "channel": 0}, {"type": "note_off", "time": 360, "note": 69, "velocity": 107, "channel": 0}, {"type": "note_on", "time": 3, "note": 67, "velocity": 99, "channel": 0}, {"type": "note_off", "time": 33, "note": 67, "velocity": 99, "channel": 0}, {"type": "note_on", "time": 4, "note": 65, "velocity": 97, "channel": 0}, {"type": "note_off", "time": 44, "note": 65, "velocity": 97, "channel": 0}, {"type": "note_on", "time": 7, "note": 67, "velocity": 108, "channel": 0}, {"type": "note_off", "time": 21, "note": 67, "velocity": 108, "channel": 0}, {"type": "note_on", "time": 11, "note": 69, "velocity": 107, "channel": 0}, {"type": "note_off", "time": 117, "note": 69, "velocity": 107, "channel": 0}, {"type": "note_on", "time": 14, "note": 69, "velocity": 111, "channel": 0}, {"type": "note_off", "time": 51, "note": 69, "velocity": 111, "channel": 0}, {"type": "note_on", "time": 74, "note": 69, "velocity": 114, "channel": 0}, {"type": "note_off", "time": 351, "note": 69, "velocity": 114, "channel": 0}, {"type": "note_on", "time": 232, "note": 68, "velocity": 116, "channel": 0}, {"type": "note_off", "time": 14, "note": 68, "velocity": 116, "channel": 0}, {"type": "note_on", "time": 9, "note": 69, "velocity": 115, "channel": 0}, {"type": "note_off", "time": 89, "note": 69, "velocity": 115, "channel": 0}, {"type": "note_on", "time": 27, "note": 69, "velocity": 115, "channel": 0}, {"type": "note_off", "time": 126, "note": 69, "velocity": 115, "channel": 0}, {"type": "note_on", "time": 25, "note": 68, "velocity": 115, "channel": 0}, {"type": "note_off", "time": 17, "note": 68, "velocity": 115, "channel": 0}, {"type": "note_on", "time": 3, "note": 69, "velocity": 116, "channel": 0}, {"type": "note_off", "time": 103, "note": 69, "velocity": 116, "channel": 0}, {"type": "note_on", "time": 3, "note": 70, "velocity": 115, "channel": 0}, {"type": "note_off", "time": 146, "note": 70, "velocity": 115, "channel": 0}, {"type": "note_on", "time": 13, "note": 70, "velocity": 117, "channel": 0}, {"type": "note_off", "time": 198, "note": 70, "velocity": 117, "channel": 0}, {"type": "note_on", "time": 33, "note": 73, "velocity": 109, "channel": 0}, {"type": "note_off", "time": 144, "note": 73, "velocity": 109, "channel": 0}, {"type": "note_on", "time": 4, "note": 72, "velocity": 109, "channel": 0}, {"type": "note_off", "time": 18, "note": 72, "velocity": 109, "channel": 0}, {"type": "note_on", "time": 8, "note": 73, "velocity": 108, "channel": 0}, {"type": "note_off", "time": 367, "note": 73, "velocity": 108, "channel": 0}, {"type": "note_on", "time": 7, "note": 71, "velocity": 113, "channel": 0}, {"type": "note_off", "time": 51, "note": 71, "velocity": 113, "channel": 0}, {"type": "note_on", "time": 44, "note": 73, "velocity": 108, "channel": 0}, {"type": "note_off", "time": 30, "note": 73, "velocity": 108, "channel": 0}, {"type": "note_on", "time": 4, "note": 74, "velocity": 107, "channel": 0}, {"type": "note_off", "time": 39, "note": 74, "velocity": 107, "channel": 0}, {"type": "note_on", "time": 6, "note": 73, "velocity": 104, "channel": 0}, {"type": "note_off", "time": 25, "note": 73, "velocity": 104, "channel": 0}, {"type": "note_on", "time": 3, "note": 71, "velocity": 112, "channel": 0}, {"type": "note_off", "time": 49, "note": 71, "velocity": 112, "channel": 0}, {"type": "note_on", "time": 2, "note": 73, "velocity": 106, "channel": 0}, {"type": "note_off", "time": 19, "note": 73, "velocity": 106, "channel": 0}, {"type": "note_on", "time": 7, "note": 74, "velocity": 105, "channel": 0}, {"type": "note_off", "time": 40, "note": 74, "velocity": 105, "channel": 0}, {"type": "note_on", "time": 3, "note": 71, "velocity": 113, "channel": 0}, {"type": "note_off", "time": 38, "note": 71, "velocity": 113, "channel": 0}, {"type": "note_on", "time": 5, "note": 69, "velocity": 107, "channel": 0}, {"type": "note_off", "time": 298, "note": 69, "velocity": 107, "channel": 0}, {"type": "note_on", "time": 4, "note": 66, "velocity": 105, "channel": 0}, {"type": "note_off", "time": 38, "note": 66, "velocity": 105, "channel": 0}, {"type": "note_on", "time": 20, "note": 61, "velocity": 99, "channel": 0}, {"type": "note_off", "time": 65, "note": 61, "velocity": 99, "channel": 0}, {"type": "note_on", "time": 6, "note": 64, "velocity": 113, "channel": 0}, {"type": "note_off", "time": 63, "note": 64, "velocity": 113, "channel": 0}, {"type": "note_on", "time": 1, "note": 61, "velocity": 101, "channel": 0}, {"type": "note_off", "time": 42, "note": 61, "velocity": 101, "channel": 0}, {"type": "note_on", "time": 8, "note": 64, "velocity": 112, "channel": 0}, {"type": "note_off", "time": 56, "note": 64, "velocity": 112, "channel": 0}, {"type": "note_on", "time": 10, "note": 61, "velocity": 101, "channel": 0}, {"type": "note_off", "time": 46, "note": 61, "velocity": 101, "channel": 0}, {"type": "note_on", "time": 4, "note": 57, "velocity": 101, "channel": 0}, {"type": "note_off", "time": 34, "note": 57, "velocity": 101, "channel": 0}, {"type": "note_on", "time": 392, "note": 62, "velocity": 117, "channel": 0}, {"type": "note_off", "time": 41, "note": 62, "velocity": 117, "channel": 0}, {"type": "note_on", "time": 4, "note": 64, "velocity": 126, "channel": 0}, {"type": "note_off", "time": 40, "note": 64, "velocity": 126, "channel": 0}, {"type": "note_on", "time": 4, "note": 65, "velocity": 115, "channel": 0}, {"type": "note_off", "time": 123, "note": 65, "velocity": 115, "channel": 0}, {"type": "note_on", "time": 14, "note": 67, "velocity": 115, "channel": 0}, {"type": "note_off", "time": 87, "note": 67, "velocity": 115, "channel": 0}, {"type": "note_on", "time": 59, "note": 68, "velocity": 118, "channel": 0}, {"type": "note_off", "time": 113, "note": 68, "velocity": 118, "channel": 0}, {"type": "note_on", "time": 1, "note": 67, "velocity": 115, "channel": 0}, {"type": "note_off", "time": 51, "note": 67, "velocity": 115, "channel": 0}, {"type": "note_on", "time": 8, "note": 68, "velocity": 116, "channel": 0}, {"type": "note_off", "time": 33, "note": 68, "velocity": 116, "channel": 0}, {"type": "note_on", "time": 10, "note": 70, "velocity": 113, "channel": 0}, {"type": "note_off", "time": 494, "note": 70, "velocity": 113, "channel": 0}, {"type": "note_on", "time": 37, "note": 68, "velocity": 109, "channel": 0}, {"type": "note_off", "time": 50, "note": 68, "velocity": 109, "channel": 0}, {"type": "note_on", "time": 0, "note": 67, "velocity": 108, "channel": 0}, {"type": "note_off", "time": 53, "note": 67, "velocity": 108, "channel": 0}, {"type": "note_on", "time": 55, "note": 74, "velocity": 102, "channel": 0}, {"type": "note_off", "time": 38, "note": 74, "velocity": 102, "channel": 0}, {"type": "note_on", "time": 25, "note": 76, "velocity": 112, "channel": 0}, {"type": "note_off", "time": 157, "note": 76, "velocity": 112, "channel": 0}, {"type": "note_on", "time": 20, "note": 67, "velocity": 106, "channel": 0}, {"type": "note_off", "time": 72, "note": 67, "velocity": 106, "channel": 0}, {"type": "note_on", "time": 89, "note": 67, "velocity": 107, "channel": 0}, {"type": "note_off", "time": 79, "note": 67, "velocity": 107, "channel": 0}, {"type": "note_on", "time": 79, "note": 76, "velocity": 102, "channel": 0}, {"type": "note_off", "time": 81, "note": 76, "velocity": 102, "channel": 0}, {"type": "note_on", "time": 1, "note": 75, "velocity": 105, "channel": 0}, {"type": "note_off", "time": 287, "note": 75, "velocity": 105, "channel": 0}, {"type": "note_on", "time": 11, "note": 72, "velocity": 105, "channel": 0}, {"type": "note_off", "time": 79, "note": 72, "velocity": 105, "channel": 0}, {"type": "note_on", "time": 24, "note": 68, "velocity": 104, "channel": 0}, {"type": "note_off", "time": 57, "note": 68, "velocity": 104, "channel": 0}, {"type": "note_on", "time": 5, "note": 67, "velocity": 100, "channel": 0}, {"type": "note_off", "time": 137, "note": 67, "velocity": 100, "channel": 0}, {"type": "note_on", "time": 33, "note": 75, "velocity": 113, "channel": 0}, {"type": "note_off", "time": 87, "note": 75, "velocity": 113, "channel": 0}, {"type": "note_on", "time": 1, "note": 73, "velocity": 109, "channel": 0}, {"type": "note_off", "time": 66, "note": 73, "velocity": 109, "channel": 0}, {"type": "note_on", "time": 12, "note": 72, "velocity": 106, "channel": 0}, {"type": "note_off", "time": 280, "note": 72, "velocity": 106, "channel": 0}, {"type": "note_on", "time": 5, "note": 68, "velocity": 99, "channel": 0}, {"type": "note_off", "time": 44, "note": 68, "velocity": 99, "channel": 0}, {"type": "note_on", "time": 0, "note": 72, "velocity": 113, "channel": 0}, {"type": "note_off", "time": 61, "note": 72, "velocity": 113, "channel": 0}, {"type": "note_on", "time": 11, "note": 71, "velocity": 115, "channel": 0}, {"type": "note_off", "time": 152, "note": 71, "velocity": 115, "channel": 0}, {"type": "note_on", "time": 11, "note": 70, "velocity": 110, "channel": 0}, {"type": "note_off", "time": 22, "note": 70, "velocity": 110, "channel": 0}, {"type": "note_on", "time": 5, "note": 71, "velocity": 122, "channel": 0}, {"type": "note_off", "time": 133, "note": 71, "velocity": 122, "channel": 0}, {"type": "note_on", "time": 5, "note": 68, "velocity": 111, "channel": 0}, {"type": "note_off", "time": 113, "note": 68, "velocity": 111, "channel": 0}, {"type": "note_on", "time": 218, "note": 59, "velocity": 106, "channel": 0}, {"type": "note_off", "time": 47, "note": 59, "velocity": 106, "channel": 0}, {"type": "note_on", "time": 0, "note": 64, "velocity": 112, "channel": 0}, {"type": "note_off", "time": 32, "note": 64, "velocity": 112, "channel": 0}, {"type": "note_on", "time": 0, "note": 68, "velocity": 104, "channel": 0}, {"type": "note_off", "time": 40, "note": 68, "velocity": 104, "channel": 0}, {"type": "note_on", "time": 13, "note": 71, "velocity": 110, "channel": 0}, {"type": "note_off", "time": 36, "note": 71, "velocity": 110, "channel": 0}, {"type": "note_on", "time": 6, "note": 65, "velocity": 106, "channel": 0}, {"type": "note_off", "time": 38, "note": 65, "velocity": 106, "channel": 0}, {"type": "note_on", "time": 2, "note": 67, "velocity": 109, "channel": 0}, {"type": "note_off", "time": 30, "note": 67, "velocity": 109, "channel": 0}, {"type": "note_on", "time": 6, "note": 69, "velocity": 111, "channel": 0}, {"type": "note_off", "time": 30, "note": 69, "velocity": 111, "channel": 0}, {"type": "note_on", "time": 5, "note": 71, "velocity": 116, "channel": 0}, {"type": "note_off", "time": 35, "note": 71, "velocity": 116, "channel": 0}, {"type": "note_on", "time": 3, "note": 67, "velocity": 110, "channel": 0}, {"type": "note_off", "time": 116, "note": 67, "velocity": 110, "channel": 0}, {"type": "note_on", "time": 2, "note": 65, "velocity": 104, "channel": 0}, {"type": "note_off", "time": 77, "note": 65, "velocity": 104, "channel": 0}, {"type": "note_on", "time": 17, "note": 64, "velocity": 107, "channel": 0}, {"type": "note_off", "time": 313, "note": 64, "velocity": 107, "channel": 0}, {"type": "note_on", "time": 283, "note": 62, "velocity": 114, "channel": 0}, {"type": "note_off", "time": 17, "note": 62, "velocity": 114, "channel": 0}, {"type": "note_on", "time": 5, "note": 63, "velocity": 121, "channel": 0}, {"type": "note_off", "time": 114, "note": 63, "velocity": 121, "channel": 0}, {"type": "note_on", "time": 16, "note": 63, "velocity": 126, "channel": 0}, {"type": "note_off", "time": 100, "note": 63, "velocity": 126, "channel": 0}, {"type": "note_on", "time": 8, "note": 62, "velocity": 114, "channel": 0}, {"type": "note_off", "time": 76, "note": 62, "velocity": 114, "channel": 0}, {"type": "note_on", "time": 22, "note": 68, "velocity": 104, "channel": 0}, {"type": "note_off", "time": 29, "note": 68, "velocity": 104, "channel": 0}, {"type": "note_on", "time": 12, "note": 70, "velocity": 120, "channel": 0}, {"type": "note_off", "time": 361, "note": 70, "velocity": 120, "channel": 0}, {"type": "note_on", "time": 81, "note": 65, "velocity": 98, "channel": 0}, {"type": "note_off", "time": 19, "note": 65, "velocity": 98, "channel": 0}, {"type": "note_on", "time": 9, "note": 66, "velocity": 113, "channel": 0}, {"type": "note_off", "time": 66, "note": 66, "velocity": 113, "channel": 0}, {"type": "note_on", "time": 7, "note": 65, "velocity": 108, "channel": 0}, {"type": "note_off", "time": 20, "note": 65, "velocity": 108, "channel": 0}, {"type": "note_on", "time": 13, "note": 64, "velocity": 99, "channel": 0}, {"type": "note_off", "time": 50, "note": 64, "velocity": 99, "channel": 0}, {"type": "note_on", "time": 36, "note": 68, "velocity": 113, "channel": 0}, {"type": "note_off", "time": 43, "note": 68, "velocity": 113, "channel": 0}, {"type": "note_on", "time": 3, "note": 66, "velocity": 112, "channel": 0}, {"type": "note_off", "time": 53, "note": 66, "velocity": 112, "channel": 0}, {"type": "note_on", "time": 0, "note": 63, "velocity": 109, "channel": 0}, {"type": "note_off", "time": 51, "note": 63, "velocity": 109, "channel": 0}, {"type": "note_on", "time": 1, "note": 61, "velocity": 108, "channel": 0}, {"type": "note_off", "time": 47, "note": 61, "velocity": 108, "channel": 0}, {"type": "note_on", "time": 0, "note": 58, "velocity": 107, "channel": 0}, {"type": "note_off", "time": 47, "note": 58, "velocity": 107, "channel": 0}, {"type": "note_on", "time": 12, "note": 54, "velocity": 105, "channel": 0}, {"type": "note_off", "time": 46, "note": 54, "velocity": 105, "channel": 0}, {"type": "note_on", "time": 6, "note": 53, "velocity": 101, "channel": 0}, {"type": "note_off", "time": 31, "note": 53, "velocity": 101, "channel": 0}, {"type": "note_on", "time": 9, "note": 51, "velocity": 108, "channel": 0}, {"type": "note_off", "time": 52, "note": 51, "velocity": 108, "channel": 0}, {"type": "note_on", "time": 54, "note": 54, "velocity": 99, "channel": 0}, {"type": "note_off", "time": 42, "note": 54, "velocity": 99, "channel": 0}, {"type": "note_on", "time": 15, "note": 56, "velocity": 104, "channel": 0}, {"type": "note_off", "time": 80, "note": 56, "velocity": 104, "channel": 0}, {"type": "note_on", "time": 30, "note": 54, "velocity": 104, "channel": 0}, {"type": "note_off", "time": 126, "note": 54, "velocity": 104, "channel": 0}, {"type": "note_on", "time": 18, "note": 51, "velocity": 105, "channel": 0}, {"type": "note_off", "time": 36, "note": 51, "velocity": 105, "channel": 0}, {"type": "note_on", "time": 7, "note": 53, "velocity": 95, "channel": 0}, {"type": "note_off", "time": 51, "note": 53, "velocity": 95, "channel": 0}, {"type": "note_on", "time": 420, "note": 65, "velocity": 116, "channel": 0}, {"type": "note_off", "time": 48, "note": 65, "velocity": 116, "channel": 0}, {"type": "note_on", "time": 6, "note": 63, "velocity": 120, "channel": 0}, {"type": "note_off", "time": 44, "note": 63, "velocity": 120, "channel": 0}, {"type": "note_on", "time": 40, "note": 69, "velocity": 119, "channel": 0}, {"type": "note_off", "time": 22, "note": 69, "velocity": 119, "channel": 0}, {"type": "note_on", "time": 5, "note": 70, "velocity": 126, "channel": 0}, {"type": "note_off", "time": 87, "note": 70, "velocity": 126, "channel": 0}, {"type": "note_on", "time": 42, "note": 70, "velocity": 126, "channel": 0}, {"type": "note_off", "time": 92, "note": 70, "velocity": 126, "channel": 0}, {"type": "note_on", "time": 25, "note": 70, "velocity": 117, "channel": 0}, {"type": "note_off", "time": 724, "note": 70, "velocity": 117, "channel": 0}, {"type": "note_on", "time": 77, "note": 70, "velocity": 112, "channel": 0}, {"type": "note_off", "time": 42, "note": 70, "velocity": 112, "channel": 0}, {"type": "note_on", "time": 36, "note": 71, "velocity": 114, "channel": 0}, {"type": "note_off", "time": 19, "note": 71, "velocity": 114, "channel": 0}, {"type": "note_on", "time": 7, "note": 72, "velocity": 121, "channel": 0}, {"type": "note_off", "time": 122, "note": 72, "velocity": 121, "channel": 0}, {"type": "note_on", "time": 7, "note": 71, "velocity": 113, "channel": 0}, {"type": "note_off", "time": 32, "note": 71, "velocity": 113, "channel": 0}, {"type": "note_on", "time": 6, "note": 72, "velocity": 114, "channel": 0}, {"type": "note_off", "time": 80, "note": 72, "velocity": 114, "channel": 0}, {"type": "note_on", "time": 3, "note": 68, "velocity": 94, "channel": 0}, {"type": "note_off", "time": 415, "note": 68, "velocity": 94, "channel": 0}, {"type": "note_on", "time": 152, "note": 70, "velocity": 116, "channel": 0}, {"type": "note_off", "time": 75, "note": 70, "velocity": 116, "channel": 0}, {"type": "note_on", "time": 14, "note": 68, "velocity": 107, "channel": 0}, {"type": "note_off", "time": 73, "note": 68, "velocity": 107, "channel": 0}, {"type": "note_on", "time": 58, "note": 67, "velocity": 112, "channel": 0}, {"type": "note_off", "time": 30, "note": 67, "velocity": 112, "channel": 0}, {"type": "note_on", "time": 13, "note": 69, "velocity": 112, "channel": 0}, {"type": "note_off", "time": 158, "note": 69, "velocity": 112, "channel": 0}, {"type": "note_on", "time": 3, "note": 68, "velocity": 111, "channel": 0}, {"type": "note_off", "time": 168, "note": 68, "velocity": 111, "channel": 0}, {"type": "note_on", "time": 6, "note": 67, "velocity": 106, "channel": 0}, {"type": "note_off", "time": 179, "note": 67, "velocity": 106, "channel": 0}, {"type": "note_on", "time": 3, "note": 68, "velocity": 113, "channel": 0}, {"type": "note_off", "time": 233, "note": 68, "velocity": 113, "channel": 0}, {"type": "note_on", "time": 25, "note": 70, "velocity": 93, "channel": 0}, {"type": "note_off", "time": 39, "note": 70, "velocity": 93, "channel": 0}, {"type": "note_on", "time": 23, "note": 75, "velocity": 106, "channel": 0}, {"type": "note_off", "time": 44, "note": 75, "velocity": 106, "channel": 0}, {"type": "note_on", "time": 89, "note": 75, "velocity": 103, "channel": 0}, {"type": "note_off", "time": 431, "note": 75, "velocity": 103, "channel": 0}, {"type": "note_on", "time": 1, "note": 73, "velocity": 103, "channel": 0}, {"type": "note_off", "time": 61, "note": 73, "velocity": 103, "channel": 0}, {"type": "note_on", "time": 30, "note": 66, "velocity": 103, "channel": 0}, {"type": "note_off", "time": 506, "note": 66, "velocity": 103, "channel": 0}, {"type": "note_on", "time": 18, "note": 64, "velocity": 113, "channel": 0}, {"type": "note_off", "time": 44, "note": 64, "velocity": 113, "channel": 0}, {"type": "note_on", "time": 14, "note": 59, "velocity": 105, "channel": 0}, {"type": "note_off", "time": 48, "note": 59, "velocity": 105, "channel": 0}, {"type": "note_on", "time": 19, "note": 55, "velocity": 99, "channel": 0}, {"type": "note_off", "time": 64, "note": 55, "velocity": 99, "channel": 0}, {"type": "note_on", "time": 2, "note": 54, "velocity": 100, "channel": 0}, {"type": "note_on", "time": 40, "note": 55, "velocity": 99, "channel": 0}, {"type": "note_off", "time": 0, "note": 54, "velocity": 100, "channel": 0}, {"type": "note_off", "time": 61, "note": 55, "velocity": 99, "channel": 0}, {"type": "note_on", "time": 300, "note": 63, "velocity": 116, "channel": 0}, {"type": "note_off", "time": 38, "note": 63, "velocity": 116, "channel": 0}, {"type": "note_on", "time": 2, "note": 61, "velocity": 100, "channel": 0}, {"type": "note_off", "time": 39, "note": 61, "velocity": 100, "channel": 0}, {"type": "note_on", "time": 55, "note": 73, "velocity": 116, "channel": 0}, {"type": "note_off", "time": 149, "note": 73, "velocity": 116, "channel": 0}, {"type": "note_on", "time": 14, "note": 73, "velocity": 117, "channel": 0}, {"type": "note_off", "time": 55, "note": 73, "velocity": 117, "channel": 0}, {"type": "note_on", "time": 56, "note": 73, "velocity": 115, "channel": 0}, {"type": "note_off", "time": 121, "note": 73, "velocity": 115, "channel": 0}, {"type": "note_on", "time": 11, "note": 72, "velocity": 119, "channel": 0}, {"type": "note_on", "time": 43, "note": 71, "velocity": 114, "channel": 0}, {"type": "note_off", "time": 0, "note": 72, "velocity": 119, "channel": 0}, {"type": "note_off", "time": 18, "note": 71, "velocity": 114, "channel": 0}, {"type": "note_on", "time": 3, "note": 70, "velocity": 116, "channel": 0}, {"type": "note_off", "time": 109, "note": 70, "velocity": 116, "channel": 0}, {"type": "note_on", "time": 40, "note": 70, "velocity": 112, "channel": 0}, {"type": "note_off", "time": 308, "note": 70, "velocity": 112, "channel": 0}, {"type": "note_on", "time": 14, "note": 66, "velocity": 110, "channel": 0}, {"type": "note_off", "time": 50, "note": 66, "velocity": 110, "channel": 0}, {"type": "note_on", "time": 13, "note": 73, "velocity": 103, "channel": 0}, {"type": "note_off", "time": 48, "note": 73, "velocity": 103, "channel": 0}, {"type": "note_on", "time": 31, "note": 63, "velocity": 114, "channel": 0}, {"type": "note_off", "time": 38, "note": 63, "velocity": 114, "channel": 0}, {"type": "note_on", "time": 27, "note": 65, "velocity": 105, "channel": 0}, {"type": "note_off", "time": 230, "note": 65, "velocity": 105, "channel": 0}, {"type": "note_on", "time": 21, "note": 65, "velocity": 101, "channel": 0}, {"type": "note_off", "time": 292, "note": 65, "velocity": 101, "channel": 0}, {"type": "note_on", "time": 323, "note": 63, "velocity": 122, "channel": 0}, {"type": "note_off", "time": 21, "note": 63, "velocity": 122, "channel": 0}, {"type": "note_on", "time": 10, "note": 65, "velocity": 109, "channel": 0}, {"type": "note_off", "time": 127, "note": 65, "velocity": 109, "channel": 0}, {"type": "note_on", "time": 3, "note": 63, "velocity": 117, "channel": 0}, {"type": "note_off", "time": 40, "note": 63, "velocity": 117, "channel": 0}, {"type": "note_on", "time": 92, "note": 68, "velocity": 111, "channel": 0}, {"type": "note_off", "time": 247, "note": 68, "velocity": 111, "channel": 0}, {"type": "note_on", "time": 23, "note": 65, "velocity": 102, "channel": 0}, {"type": "note_off", "time": 46, "note": 65, "velocity": 102, "channel": 0}, {"type": "note_on", "time": 52, "note": 61, "velocity": 107, "channel": 0}, {"type": "note_off", "time": 473, "note": 61, "velocity": 107, "channel": 0}, {"type": "note_on", "time": 25, "note": 58, "velocity": 100, "channel": 0}, {"type": "note_off", "time": 46, "note": 58, "velocity": 100, "channel": 0}, {"type": "note_on", "time": 14, "note": 60, "velocity": 102, "channel": 0}, {"type": "note_off", "time": 60, "note": 60, "velocity": 102, "channel": 0}, {"type": "note_on", "time": 9, "note": 63, "velocity": 108, "channel": 0}, {"type": "note_off", "time": 60, "note": 63, "velocity": 108, "channel": 0}, {"type": "note_on", "time": 19, "note": 57, "velocity": 101, "channel": 0}, {"type": "note_off", "time": 329, "note": 57, "velocity": 101, "channel": 0}, {"type": "note_on", "time": 208, "note": 54, "velocity": 102, "channel": 0}, {"type": "note_off", "time": 52, "note": 54, "velocity": 102, "channel": 0}, {"type": "note_on", "time": 11, "note": 56, "velocity": 101, "channel": 0}, {"type": "note_off", "time": 32, "note": 56, "velocity": 101, "channel": 0}, {"type": "note_on", "time": 19, "note": 59, "velocity": 105, "channel": 0}, {"type": "note_off", "time": 46, "note": 59, "velocity": 105, "channel": 0}, {"type": "note_on", "time": 3, "note": 55, "velocity": 96, "channel": 0}, {"type": "note_off", "time": 195, "note": 55, "velocity": 96, "channel": 0}, {"type": "note_on", "time": 25, "note": 50, "velocity": 113, "channel": 0}, {"type": "note_off", "time": 31, "note": 50, "velocity": 113, "channel": 0}, {"type": "note_on", "time": 9, "note": 55, "velocity": 106, "channel": 0}, {"type": "note_off", "time": 75, "note": 55, "velocity": 106, "channel": 0}, {"type": "note_on", "time": 7, "note": 49, "velocity": 99, "channel": 0}, {"type": "note_off", "time": 58, "note": 49, "velocity": 99, "channel": 0}, {"type": "note_on", "time": 12, "note": 48, "velocity": 109, "channel": 0}, {"type": "note_off", "time": 87, "note": 48, "velocity": 109, "channel": 0}, {"type": "note_on", "time": 38, "note": 56, "velocity": 105, "channel": 0}, {"type": "note_off", "time": 139, "note": 56, "velocity": 105, "channel": 0}, {"type": "note_on", "time": 21, "note": 56, "velocity": 103, "channel": 0}, {"type": "note_off", "time": 104, "note": 56, "velocity": 103, "channel": 0}, {"type": "note_on", "time": 17, "note": 53, "velocity": 99, "channel": 0}, {"type": "note_off", "time": 245, "note": 53, "velocity": 99, "channel": 0}, {"type": "note_on", "time": 218, "note": 66, "velocity": 106, "channel": 0}, {"type": "note_off", "time": 185, "note": 66, "velocity": 106, "channel": 0}, {"type": "note_on", "time": 10, "note": 65, "velocity": 103, "channel": 0}, {"type": "note_off", "time": 15, "note": 65, "velocity": 103, "channel": 0}, {"type": "note_on", "time": 7, "note": 66, "velocity": 104, "channel": 0}, {"type": "note_off", "time": 155, "note": 66, "velocity": 104, "channel": 0}, {"type": "note_on", "time": 29, "note": 63, "velocity": 103, "channel": 0}, {"type": "note_off", "time": 225, "note": 63, "velocity": 103, "channel": 0}, {"type": "note_on", "time": 7, "note": 62, "velocity": 104, "channel": 0}, {"type": "note_off", "time": 31, "note": 62, "velocity": 104, "channel": 0}, {"type": "note_on", "time": 6, "note": 63, "velocity": 100, "channel": 0}, {"type": "note_off", "time": 34, "note": 63, "velocity": 100, "channel": 0}, {"type": "note_on", "time": 7, "note": 65, "velocity": 95, "channel": 0}, {"type": "note_off", "time": 39, "note": 65, "velocity": 95, "channel": 0}, {"type": "note_on", "time": 0, "note": 63, "velocity": 96, "channel": 0}, {"type": "note_off", "time": 40, "note": 63, "velocity": 96, "channel": 0}, {"type": "note_on", "time": 2, "note": 62, "velocity": 99, "channel": 0}, {"type": "note_off", "time": 39, "note": 62, "velocity": 99, "channel": 0}, {"type": "note_on", "time": 11, "note": 63, "velocity": 82, "channel": 0}, {"type": "note_off", "time": 245, "note": 63, "velocity": 82, "channel": 0}, {"type": "end_of_track", "time": 0}]]}