{"ticks_per_beat": 840, "tracks": [[{"type": "track_name", "name": "Melody", "time": 0}, {"type": "set_tempo", "tempo": 422535, "time": 0}, {"type": "key_signature", "key": "D", "time": 0}, {"type": "time_signature", "numerator": 4, "denominator": 4, "clocks_per_click": 24, "notated_32nd_notes_per_beat": 8, "time": 0}, {"type": "note_on", "time": 4787, "note": 62, "velocity": 106, "channel": 0}, {"type": "note_off", "time": 389, "note": 62, "velocity": 106, "channel": 0}, {"type": "note_on", "time": 0, "note": 65, "velocity": 103, "channel": 0}, {"type": "note_off", "time": 486, "note": 65, "velocity": 103, "channel": 0}, {"type": "note_on", "time": 0, "note": 67, "velocity": 105, "channel": 0}, {"type": "note_off", "time": 2547, "note": 67, "velocity": 105, "channel": 0}, {"type": "note_on", "time": 0, "note": 69, "velocity": 111, "channel": 0}, {"type": "note_off", "time": 515, "note": 69, "velocity": 111, "channel": 0}, {"type": "note_on", "time": 1967, "note": 62, "velocity": 110, "channel": 0}, {"type": "note_off", "time": 346, "note": 62, "velocity": 110, "channel": 0}, {"type": "note_on", "time": 91, "note": 65, "velocity": 106, "channel": 0}, {"type": "note_off", "time": 421, "note": 65, "velocity": 106, "channel": 0}, {"type": "note_on", "time": 0, "note": 67, "velocity": 111, "channel": 0}, {"type": "note_off", "time": 658, "note": 67, "velocity": 111, "channel": 0}, {"type": "note_on", "time": 22, "note": 64, "velocity": 122, "channel": 0}, {"type": "note_off", "time": 1375, "note": 64, "velocity": 122, "channel": 0}, {"type": "note_on", "time": 1403, "note": 69, "velocity": 106, "channel": 0}, {"type": "note_on", "time": 759, "note": 67, "velocity": 107, "channel": 0}, {"type": "note_off", "time": 0, "note": 69, "velocity": 106, "channel": 0}, {"type": "note_off", "time": 363, "note": 67, "velocity": 107, "channel": 0}, {"type": "note_on", "time": 9, "note": 65, "velocity": 104, "channel": 0}, {"type": "note_on", "time": 486, "note": 57, "velocity": 95, "channel": 0}, {"type": "note_off", "time": 0, "note": 65, "velocity": 104, "channel": 0}, {"type": "note_off", "time": 349, "note": 57, "velocity": 95, "channel": 0}, {"type": "note_on", "time": 72, "note": 62, "velocity": 101, "channel": 0}, {"type": "note_off", "time": 430, "note": 62, "velocity": 101, "channel": 0}, {"type": "note_on", "time": 7, "note": 65, "velocity": 106, "channel": 0}, {"type": "note_off", "time": 772, "note": 65, "velocity": 106, "channel": 0}, {"type": "note_on", "time": 55, "note": 65, "velocity": 107, "channel": 0}, {"type": "note_off", "time": 501, "note": 65, "velocity": 107, "channel": 0}, {"type": "note_on", "time": 115, "note": 65, "velocity": 108, "channel": 0}, {"type": "note_off", "time": 259, "note": 65, "velocity": 108, "channel": 0}, {"type": "note_on", "time": 210, "note": 65, "velocity": 108, "channel": 0}, {"type": "note_on", "time": 275, "note": 67, "velocity": 109, "channel": 0}, {"type": "note_off", "time": 0, "note": 65, "velocity": 108, "channel": 0}, {"type": "note_off", "time": 555, "note": 67, "velocity": 109, "channel": 0}, {"type": "note_on", "time": 61, "note": 67, "velocity": 108, "channel": 0}, {"type": "note_off", "time": 482, "note": 67, "velocity": 108, "channel": 0}, {"type": "note_on", "time": 182, "note": 67, "velocity": 103, "channel": 0}, {"type": "note_off", "time": 1545, "note": 67, "velocity": 103, "channel": 0}, {"type": "note_on", "time": 255, "note": 69, "velocity": 95, "channel": 0}, {"type": "note_off", "time": 578, "note": 69, "velocity": 95, "channel": 0}, {"type": "note_on", "time": 1888, "note": 62, "velocity": 106, "channel": 0}, {"type": "note_off", "time": 323, "note": 62, "velocity": 106, "channel": 0}, {"type": "note_on", "time": 33, "note": 65, "velocity": 107, "channel": 0}, {"type": "note_off", "time": 405, "note": 65, "velocity": 107, "channel": 0}, {"type": "note_on", "time": 0, "note": 67, "velocity": 110, "channel": 0}, {"type": "note_off", "time": 1710, "note": 67, "velocity": 110, "channel": 0}, {"type": "note_on", "time": 176, "note": 64, "velocity": 121, "channel": 0}, {"type": "note_off", "time": 526, "note": 64, "velocity": 121, "channel": 0}, {"type": "note_on", "time": 2579, "note": 62, "velocity": 102, "channel": 0}, {"type": "note_off", "time": 220, "note": 62, "velocity": 102, "channel": 0}, {"type": "note_on", "time": 4, "note": 65, "velocity": 105, "channel": 0}, {"type": "note_off", "time": 264, "note": 65, "velocity": 105, "channel": 0}, {"type": "note_on", "time": 30, "note": 67, "velocity": 111, "channel": 0}, {"type": "note_off", "time": 246, "note": 67, "velocity": 111, "channel": 0}, {"type": "note_on", "time": 1, "note": 69, "velocity": 101, "channel": 0}, {"type": "note_off", "time": 914, "note": 69, "velocity": 101, "channel": 0}, {"type": "note_on", "time": 83, "note": 72, "velocity": 112, "channel": 0}, {"type": "note_off", "time": 178, "note": 72, "velocity": 112, "channel": 0}, {"type": "note_on", "time": 0, "note": 69, "velocity": 106, "channel": 0}, {"type": "note_on", "time": 167, "note": 67, "velocity": 107, "channel": 0}, {"type": "note_off", "time": 0, "note": 69, "velocity": 106, "channel": 0}, {"type": "note_off", "time": 144, "note": 67, "velocity": 107, "channel": 0}, {"type": "note_on", "time": 0, "note": 65, "velocity": 107, "channel": 0}, {"type": "note_off", "time": 161, "note": 65, "velocity": 107, "channel": 0}, {"type": "note_on", "time": 0, "note": 62, "velocity": 101, "channel": 0}, {"type": "note_off", "time": 190, "note": 62, "velocity": 101, "channel": 0}, {"type": "note_on", "time": 0, "note": 65, "velocity": 101, "channel": 0}, {"type": "note_off", "time": 132, "note": 65, "velocity": 101, "channel": 0}, {"type": "note_on", "time": 0, "note": 67, "velocity": 110, "channel": 0}, {"type": "note_off", "time": 121, "note": 67, "velocity": 110, "channel": 0}, {"type": "note_on", "time": 0, "note": 69, "velocity": 109, "channel": 0}, {"type": "note_off", "time": 80, "note": 69, "velocity": 109, "channel": 0}, {"type": "note_on", "time": 0, "note": 72, "velocity": 116, "channel": 0}, {"type": "note_off", "time": 903, "note": 72, "velocity": 116, "channel": 0}, {"type": "note_on", "time": 359, "note": 69, "velocity": 103, "channel": 0}, {"type": "note_off", "time": 86, "note": 69, "velocity": 103, "channel": 0}, {"type": "note_on", "time": 0, "note": 72, "velocity": 116, "channel": 0}, {"type": "note_off", "time": 355, "note": 72, "velocity": 116, "channel": 0}, {"type": "note_on", "time": 77, "note": 69, "velocity": 104, "channel": 0}, {"type": "note_off", "time": 150, "note": 69, "velocity": 104, "channel": 0}, {"type": "note_on", "time": 5, "note": 67, "velocity": 102, "channel": 0}, {"type": "note_off", "time": 113, "note": 67, "velocity": 102, "channel": 0}, {"type": "note_on", "time": 12, "note": 65, "velocity": 100, "channel": 0}, {"type": "note_on", "time": 138, "note": 62, "velocity": 88, "channel": 0}, {"type": "note_off", "time": 0, "note": 65, "velocity": 100, "channel": 0}, {"type": "note_off", "time": 334, "note": 62, "velocity": 88, "channel": 0}, {"type": "note_on", "time": 2313, "note": 62, "velocity": 104, "channel": 0}, {"type": "note_off", "time": 126, "note": 62, "velocity": 104, "channel": 0}, {"type": "note_on", "time": 0, "note": 65, "velocity": 95, "channel": 0}, {"type": "note_on", "time": 161, "note": 67, "velocity": 100, "channel": 0}, {"type": "note_off", "time": 0, "note": 65, "velocity": 95, "channel": 0}, {"type": "note_off", "time": 121, "note": 67, "velocity": 100, "channel": 0}, {"type": "note_on", "time": 0, "note": 69, "velocity": 107, "channel": 0}, {"type": "note_off", "time": 141, "note": 69, "velocity": 107, "channel": 0}, {"type": "note_on", "time": 2, "note": 72, "velocity": 113, "channel": 0}, {"type": "note_off", "time": 917, "note": 72, "velocity": 113, "channel": 0}, {"type": "note_on", "time": 120, "note": 74, "velocity": 106, "channel": 0}, {"type": "note_off", "time": 201, "note": 74, "velocity": 106, "channel": 0}, {"type": "note_on", "time": 0, "note": 72, "velocity": 107, "channel": 0}, {"type": "note_off", "time": 165, "note": 72, "velocity": 107, "channel": 0}, {"type": "note_on", "time": 87, "note": 74, "velocity": 106, "channel": 0}, {"type": "note_off", "time": 307, "note": 74, "velocity": 106, "channel": 0}, {"type": "note_on", "time": 126, "note": 69, "velocity": 98, "channel": 0}, {"type": "note_off", "time": 853, "note": 69, "velocity": 98, "channel": 0}, {"type": "note_on", "time": 0, "note": 72, "velocity": 106, "channel": 0}, {"type": "note_off", "time": 138, "note": 72, "velocity": 106, "channel": 0}, {"type": "note_on", "time": 0, "note": 69, "velocity": 97, "channel": 0}, {"type": "note_off", "time": 126, "note": 69, "velocity": 97, "channel": 0}, {"type": "note_on", "time": 0, "note": 67, "velocity": 103, "channel": 0}, {"type": "note_off", "time": 117, "note": 67, "velocity": 103, "channel": 0}, {"type": "note_on", "time": 38, "note": 65, "velocity": 99, "channel": 0}, {"type": "note_off", "time": 138, "note": 65, "velocity": 99, "channel": 0}, {"type": "note_on", "time": 0, "note": 62, "velocity": 87, "channel": 0}, {"type": "note_off", "time": 193, "note": 62, "velocity": 87, "channel": 0}, {"type": "note_on", "time": 2495, "note": 62, "velocity": 89, "channel": 0}, {"type": "note_off", "time": 167, "note": 62, "velocity": 89, "channel": 0}, {"type": "note_on", "time": 46, "note": 65, "velocity": 97, "channel": 0}, {"type": "note_off", "time": 167, "note": 65, "velocity": 97, "channel": 0}, {"type": "note_on", "time": 0, "note": 67, "velocity": 98, "channel": 0}, {"type": "note_off", "time": 121, "note": 67, "velocity": 98, "channel": 0}, {"type": "note_on", "time": 0, "note": 69, "velocity": 98, "channel": 0}, {"type": "note_off", "time": 254, "note": 69, "velocity": 98, "channel": 0}, {"type": "note_on", "time": 45, "note": 72, "velocity": 110, "channel": 0}, {"type": "note_off", "time": 1569, "note": 72, "velocity": 110, "channel": 0}, {"type": "note_on", "time": 0, "note": 69, "velocity": 95, "channel": 0}, {"type": "note_off", "time": 161, "note": 69, "velocity": 95, "channel": 0}, {"type": "note_on", "time": 0, "note": 72, "velocity": 108, "channel": 0}, {"type": "note_off", "time": 206, "note": 72, "velocity": 108, "channel": 0}, {"type": "note_on", "time": 70, "note": 69, "velocity": 104, "channel": 0}, {"type": "note_off", "time": 727, "note": 69, "velocity": 104, "channel": 0}, {"type": "note_on", "time": 0, "note": 72, "velocity": 106, "channel": 0}, {"type": "note_off", "time": 178, "note": 72, "velocity": 106, "channel": 0}, {"type": "note_on", "time": 5, "note": 69, "velocity": 100, "channel": 0}, {"type": "note_off", "time": 334, "note": 69, "velocity": 100, "channel": 0}, {"type": "note_on", "time": 0, "note": 67, "velocity": 102, "channel": 0}, {"type": "note_off", "time": 150, "note": 67, "velocity": 102, "channel": 0}, {"type": "note_on", "time": 0, "note": 65, "velocity": 102, "channel": 0}, {"type": "note_off", "time": 163, "note": 65, "velocity": 102, "channel": 0}, {"type": "note_on", "time": 49, "note": 62, "velocity": 98, "channel": 0}, {"type": "note_off", "time": 386, "note": 62, "velocity": 98, "channel": 0}, {"type": "note_on", "time": 1407, "note": 70, "velocity": 105, "channel": 0}, {"type": "note_off", "time": 251, "note": 70, "velocity": 105, "channel": 0}, {"type": "note_on", "time": 13, "note": 69, "velocity": 104, "channel": 0}, {"type": "note_off", "time": 1131, "note": 69, "velocity": 104, "channel": 0}, {"type": "note_on", "time": 144, "note": 64, "velocity": 105, "channel": 0}, {"type": "note_off", "time": 230, "note": 64, "velocity": 105, "channel": 0}, {"type": "note_on", "time": 0, "note": 67, "velocity": 99, "channel": 0}, {"type": "note_off", "time": 242, "note": 67, "velocity": 99, "channel": 0}, {"type": "note_on", "time": 0, "note": 64, "velocity": 97, "channel": 0}, {"type": "note_off", "time": 190, "note": 64, "velocity": 97, "channel": 0}, {"type": "note_on", "time": 0, "note": 65, "velocity": 98, "channel": 0}, {"type": "note_on", "time": 409, "note": 57, "velocity": 89, "channel": 0}, {"type": "note_off", "time": 0, "note": 65, "velocity": 98, "channel": 0}, {"type": "note_off", "time": 201, "note": 57, "velocity": 89, "channel": 0}, {"type": "note_on", "time": 0, "note": 59, "velocity": 89, "channel": 0}, {"type": "note_off", "time": 184, "note": 59, "velocity": 89, "channel": 0}, {"type": "note_on", "time": 0, "note": 61, "velocity": 106, "channel": 0}, {"type": "note_off", "time": 161, "note": 61, "velocity": 106, "channel": 0}, {"type": "note_on", "time": 0, "note": 62, "velocity": 88, "channel": 0}, {"type": "note_off", "time": 176, "note": 62, "velocity": 88, "channel": 0}, {"type": "note_on", "time": 31, "note": 64, "velocity": 105, "channel": 0}, {"type": "note_off", "time": 109, "note": 64, "velocity": 105, "channel": 0}, {"type": "note_on", "time": 69, "note": 65, "velocity": 99, "channel": 0}, {"type": "note_off", "time": 196, "note": 65, "velocity": 99, "channel": 0}, {"type": "note_on", "time": 0, "note": 62, "velocity": 92, "channel": 0}, {"type": "note_on", "time": 611, "note": 57, "velocity": 95, "channel": 0}, {"type": "note_off", "time": 0, "note": 62, "velocity": 92, "channel": 0}, {"type": "note_off", "time": 197, "note": 57, "velocity": 95, "channel": 0}, {"type": "note_on", "time": 44, "note": 55, "velocity": 89, "channel": 0}, {"type": "note_off", "time": 188, "note": 55, "velocity": 89, "channel": 0}, {"type": "note_on", "time": 30, "note": 53, "velocity": 90, "channel": 0}, {"type": "note_off", "time": 178, "note": 53, "velocity": 90, "channel": 0}, {"type": "note_on", "time": 1824, "note": 56, "velocity": 87, "channel": 0}, {"type": "note_off", "time": 142, "note": 56, "velocity": 87, "channel": 0}, {"type": "note_on", "time": 0, "note": 58, "velocity": 92, "channel": 0}, {"type": "note_off", "time": 147, "note": 58, "velocity": 92, "channel": 0}, {"type": "note_on", "time": 26, "note": 59, "velocity": 88, "channel": 0}, {"type": "note_off", "time": 206, "note": 59, "velocity": 88, "channel": 0}, {"type": "note_on", "time": 0, "note": 60, "velocity": 97, "channel": 0}, {"type": "note_off", "time": 199, "note": 60, "velocity": 97, "channel": 0}, {"type": "note_on", "time": 27, "note": 63, "velocity": 103, "channel": 0}, {"type": "note_off", "time": 198, "note": 63, "velocity": 103, "channel": 0}, {"type": "note_on", "time": 0, "note": 66, "velocity": 94, "channel": 0}, {"type": "note_off", "time": 144, "note": 66, "velocity": 94, "channel": 0}, {"type": "note_on", "time": 29, "note": 68, "velocity": 103, "channel": 0}, {"type": "note_off", "time": 91, "note": 68, "velocity": 103, "channel": 0}, {"type": "note_on", "time": 66, "note": 70, "velocity": 109, "channel": 0}, {"type": "note_off", "time": 87, "note": 70, "velocity": 109, "channel": 0}, {"type": "note_on", "time": 21, "note": 72, "velocity": 109, "channel": 0}, {"type": "note_off", "time": 1629, "note": 72, "velocity": 109, "channel": 0}, {"type": "note_on", "time": 45, "note": 68, "velocity": 103, "channel": 0}, {"type": "note_off", "time": 102, "note": 68, "velocity": 103, "channel": 0}, {"type": "note_on", "time": 92, "note": 72, "velocity": 101, "channel": 0}, {"type": "note_off", "time": 198, "note": 72, "velocity": 101, "channel": 0}, {"type": "note_on", "time": 0, "note": 70, "velocity": 112, "channel": 0}, {"type": "note_off", "time": 1789, "note": 70, "velocity": 112, "channel": 0}, {"type": "note_on", "time": 40, "note": 66, "velocity": 94, "channel": 0}, {"type": "note_off", "time": 111, "note": 66, "velocity": 94, "channel": 0}, {"type": "note_on", "time": 62, "note": 70, "velocity": 100, "channel": 0}, {"type": "note_off", "time": 171, "note": 70, "velocity": 100, "channel": 0}, {"type": "note_on", "time": 11, "note": 68, "velocity": 98, "channel": 0}, {"type": "note_off", "time": 742, "note": 68, "velocity": 98, "channel": 0}, {"type": "note_on", "time": 27, "note": 69, "velocity": 96, "channel": 0}, {"type": "note_off", "time": 137, "note": 69, "velocity": 96, "channel": 0}, {"type": "note_on", "time": 0, "note": 72, "velocity": 109, "channel": 0}, {"type": "note_off", "time": 130, "note": 72, "velocity": 109, "channel": 0}, {"type": "note_on", "time": 32, "note": 70, "velocity": 101, "channel": 0}, {"type": "note_off", "time": 127, "note": 70, "velocity": 101, "channel": 0}, {"type": "note_on", "time": 27, "note": 64, "velocity": 98, "channel": 0}, {"type": "note_off", "time": 129, "note": 64, "velocity": 98, "channel": 0}, {"type": "note_on", "time": 0, "note": 65, "velocity": 98, "channel": 0}, {"type": "note_off", "time": 140, "note": 65, "velocity": 98, "channel": 0}, {"type": "note_on", "time": 5, "note": 68, "velocity": 101, "channel": 0}, {"type": "note_off", "time": 142, "note": 68, "velocity": 101, "channel": 0}, {"type": "note_on", "time": 0, "note": 66, "velocity": 97, "channel": 0}, {"type": "note_off", "time": 135, "note": 66, "velocity": 97, "channel": 0}, {"type": "note_on", "time": 6, "note": 61, "velocity": 98, "channel": 0}, {"type": "note_off", "time": 97, "note": 61, "velocity": 98, "channel": 0}, {"type": "note_on", "time": 0, "note": 62, "velocity": 96, "channel": 0}, {"type": "note_off", "time": 128, "note": 62, "velocity": 96, "channel": 0}, {"type": "note_on", "time": 22, "note": 65, "velocity": 99, "channel": 0}, {"type": "note_off", "time": 133, "note": 65, "velocity": 99, "channel": 0}, {"type": "note_on", "time": 0, "note": 63, "velocity": 96, "channel": 0}, {"type": "note_off", "time": 154, "note": 63, "velocity": 96, "channel": 0}, {"type": "note_on", "time": 23, "note": 56, "velocity": 91, "channel": 0}, {"type": "note_off", "time": 137, "note": 56, "velocity": 91, "channel": 0}, {"type": "note_on", "time": 16, "note": 57, "velocity": 89, "channel": 0}, {"type": "note_off", "time": 97, "note": 57, "velocity": 89, "channel": 0}, {"type": "note_on", "time": 80, "note": 60, "velocity": 105, "channel": 0}, {"type": "note_off", "time": 179, "note": 60, "velocity": 105, "channel": 0}, {"type": "note_on", "time": 81, "note": 56, "velocity": 89, "channel": 0}, {"type": "note_off", "time": 164, "note": 56, "velocity": 89, "channel": 0}, {"type": "note_on", "time": 12, "note": 57, "velocity": 91, "channel": 0}, {"type": "note_off", "time": 180, "note": 57, "velocity": 91, "channel": 0}, {"type": "note_on", "time": 0, "note": 60, "velocity": 100, "channel": 0}, {"type": "note_off", "time": 149, "note": 60, "velocity": 100, "channel": 0}, {"type": "note_on", "time": 0, "note": 58, "velocity": 91, "channel": 0}, {"type": "note_off", "time": 1000, "note": 58, "velocity": 91, "channel": 0}, {"type": "note_on", "time": 196, "note": 54, "velocity": 93, "channel": 0}, {"type": "note_on", "time": 186, "note": 53, "velocity": 90, "channel": 0}, {"type": "note_off", "time": 0, "note": 54, "velocity": 93, "channel": 0}, {"type": "note_off", "time": 223, "note": 53, "velocity": 90, "channel": 0}, {"type": "note_on", "time": 12, "note": 51, "velocity": 93, "channel": 0}, {"type": "note_on", "time": 219, "note": 56, "velocity": 98, "channel": 0}, {"type": "note_off", "time": 0, "note": 51, "velocity": 93, "channel": 0}, {"type": "note_off", "time": 240, "note": 56, "velocity": 98, "channel": 0}, {"type": "note_on", "time": 1678, "note": 56, "velocity": 97, "channel": 0}, {"type": "note_off", "time": 188, "note": 56, "velocity": 97, "channel": 0}, {"type": "note_on", "time": 75, "note": 58, "velocity": 96, "channel": 0}, {"type": "note_off", "time": 171, "note": 58, "velocity": 96, "channel": 0}, {"type": "note_on", "time": 6, "note": 60, "velocity": 101, "channel": 0}, {"type": "note_off", "time": 427, "note": 60, "velocity": 101, "channel": 0}, {"type": "note_on", "time": 27, "note": 56, "velocity": 81, "channel": 0}, {"type": "note_off", "time": 275, "note": 56, "velocity": 81, "channel": 0}, {"type": "note_on", "time": 48, "note": 61, "velocity": 102, "channel": 0}, {"type": "note_off", "time": 434, "note": 61, "velocity": 102, "channel": 0}, {"type": "note_on", "time": 0, "note": 58, "velocity": 88, "channel": 0}, {"type": "note_off", "time": 231, "note": 58, "velocity": 88, "channel": 0}, {"type": "note_on", "time": 0, "note": 62, "velocity": 106, "channel": 0}, {"type": "note_off", "time": 489, "note": 62, "velocity": 106, "channel": 0}, {"type": "note_on", "time": 9, "note": 58, "velocity": 84, "channel": 0}, {"type": "note_off", "time": 210, "note": 58, "velocity": 84, "channel": 0}, {"type": "note_on", "time": 0, "note": 63, "velocity": 108, "channel": 0}, {"type": "note_off", "time": 658, "note": 63, "velocity": 108, "channel": 0}, {"type": "note_on", "time": 140, "note": 65, "velocity": 98, "channel": 0}, {"type": "note_off", "time": 225, "note": 65, "velocity": 98, "channel": 0}, {"type": "note_on", "time": 90, "note": 66, "velocity": 101, "channel": 0}, {"type": "note_off", "time": 300, "note": 66, "velocity": 101, "channel": 0}, {"type": "note_on", "time": 23, "note": 65, "velocity": 93, "channel": 0}, {"type": "note_off", "time": 401, "note": 65, "velocity": 93, "channel": 0}, {"type": "note_on", "time": 0, "note": 66, "velocity": 100, "channel": 0}, {"type": "note_off", "time": 294, "note": 66, "velocity": 100, "channel": 0}, {"type": "note_on", "time": 102, "note": 70, "velocity": 100, "channel": 0}, {"type": "note_off", "time": 385, "note": 70, "velocity": 100, "channel": 0}, {"type": "note_on", "time": 93, "note": 73, "velocity": 97, "channel": 0}, {"type": "note_off", "time": 438, "note": 73, "velocity": 97, "channel": 0}, {"type": "note_on", "time": 0, "note": 77, "velocity": 106, "channel": 0}, {"type": "note_off", "time": 240, "note": 77, "velocity": 106, "channel": 0}, {"type": "note_on", "time": 237, "note": 77, "velocity": 85, "channel": 0}, {"type": "note_off", "time": 482, "note": 77, "velocity": 85, "channel": 0}, {"type": "note_on", "time": 8, "note": 75, "velocity": 106, "channel": 0}, {"type": "note_off", "time": 208, "note": 75, "velocity": 106, "channel": 0}, {"type": "note_on", "time": 373, "note": 75, "velocity": 105, "channel": 0}, {"type": "note_off", "time": 1032, "note": 75, "velocity": 105, "channel": 0}, {"type": "note_on", "time": 242, "note": 73, "velocity": 106, "channel": 0}, {"type": "note_off", "time": 288, "note": 73, "velocity": 106, "channel": 0}, {"type": "note_on", "time": 0, "note": 72, "velocity": 105, "channel": 0}, {"type": "note_off", "time": 335, "note": 72, "velocity": 105, "channel": 0}, {"type": "note_on", "time": 120, "note": 68, "velocity": 90, "channel": 0}, {"type": "note_off", "time": 272, "note": 68, "velocity": 90, "channel": 0}, {"type": "note_on", "time": 56, "note": 69, "velocity": 100, "channel": 0}, {"type": "note_off", "time": 103, "note": 69, "velocity": 100, "channel": 0}, {"type": "note_on", "time": 17, "note": 71, "velocity": 109, "channel": 0}, {"type": "note_off", "time": 115, "note": 71, "velocity": 109, "channel": 0}, {"type": "note_on", "time": 28, "note": 70, "velocity": 105, "channel": 0}, {"type": "note_off", "time": 196, "note": 70, "velocity": 105, "channel": 0}, {"type": "note_on", "time": 0, "note": 66, "velocity": 98, "channel": 0}, {"type": "note_off", "time": 206, "note": 66, "velocity": 98, "channel": 0}, {"type": "note_on", "time": 133, "note": 63, "velocity": 105, "channel": 0}, {"type": "note_off", "time": 162, "note": 63, "velocity": 105, "channel": 0}, {"type": "note_on", "time": 2935, "note": 57, "velocity": 102, "channel": 0}, {"type": "note_off", "time": 178, "note": 57, "velocity": 102, "channel": 0}, {"type": "note_on", "time": 0, "note": 59, "velocity": 98, "channel": 0}, {"type": "note_on", "time": 190, "note": 61, "velocity": 106, "channel": 0}, {"type": "note_off", "time": 0, "note": 59, "velocity": 98, "channel": 0}, {"type": "note_off", "time": 146, "note": 61, "velocity": 106, "channel": 0}, {"type": "note_on", "time": 21, "note": 62, "velocity": 114, "channel": 0}, {"type": "note_off", "time": 1898, "note": 62, "velocity": 114, "channel": 0}, {"type": "note_on", "time": 0, "note": 61, "velocity": 106, "channel": 0}, {"type": "note_off", "time": 225, "note": 61, "velocity": 106, "channel": 0}, {"type": "note_on", "time": 0, "note": 59, "velocity": 92, "channel": 0}, {"type": "note_off", "time": 216, "note": 59, "velocity": 92, "channel": 0}, {"type": "note_on", "time": 8, "note": 58, "velocity": 103, "channel": 0}, {"type": "note_off", "time": 216, "note": 58, "velocity": 103, "channel": 0}, {"type": "note_on", "time": 31, "note": 57, "velocity": 103, "channel": 0}, {"type": "note_off", "time": 241, "note": 57, "velocity": 103, "channel": 0}, {"type": "note_on", "time": 17, "note": 53, "velocity": 98, "channel": 0}, {"type": "note_off", "time": 242, "note": 53, "velocity": 98, "channel": 0}, {"type": "note_on", "time": 0, "note": 52, "velocity": 92, "channel": 0}, {"type": "note_on", "time": 184, "note": 50, "velocity": 84, "channel": 0}, {"type": "note_off", "time": 0, "note": 52, "velocity": 92, "channel": 0}, {"type": "note_off", "time": 201, "note": 50, "velocity": 84, "channel": 0}, {"type": "note_on", "time": 0, "note": 53, "velocity": 104, "channel": 0}, {"type": "note_off", "time": 356, "note": 53, "velocity": 104, "channel": 0}, {"type": "note_on", "time": 1357, "note": 57, "velocity": 108, "channel": 0}, {"type": "note_off", "time": 230, "note": 57, "velocity": 108, "channel": 0}, {"type": "note_on", "time": 0, "note": 59, "velocity": 96, "channel": 0}, {"type": "note_off", "time": 198, "note": 59, "velocity": 96, "channel": 0}, {"type": "note_on", "time": 3, "note": 61, "velocity": 110, "channel": 0}, {"type": "note_off", "time": 188, "note": 61, "velocity": 110, "channel": 0}, {"type": "note_on", "time": 13, "note": 62, "velocity": 114, "channel": 0}, {"type": "note_off", "time": 1136, "note": 62, "velocity": 114, "channel": 0}, {"type": "note_on", "time": 0, "note": 61, "velocity": 112, "channel": 0}, {"type": "note_off", "time": 247, "note": 61, "velocity": 112, "channel": 0}, {"type": "note_on", "time": 10, "note": 59, "velocity": 99, "channel": 0}, {"type": "note_off", "time": 201, "note": 59, "velocity": 99, "channel": 0}, {"type": "note_on", "time": 0, "note": 58, "velocity": 105, "channel": 0}, {"type": "note_off", "time": 208, "note": 58, "velocity": 105, "channel": 0}, {"type": "note_on", "time": 12, "note": 57, "velocity": 103, "channel": 0}, {"type": "note_off", "time": 207, "note": 57, "velocity": 103, "channel": 0}, {"type": "note_on", "time": 5, "note": 53, "velocity": 96, "channel": 0}, {"type": "note_off", "time": 184, "note": 53, "velocity": 96, "channel": 0}, {"type": "note_on", "time": 0, "note": 52, "velocity": 95, "channel": 0}, {"type": "note_off", "time": 201, "note": 52, "velocity": 95, "channel": 0}, {"type": "note_on", "time": 0, "note": 50, "velocity": 99, "channel": 0}, {"type": "note_on", "time": 184, "note": 53, "velocity": 103, "channel": 0}, {"type": "note_off", "time": 0, "note": 50, "velocity": 99, "channel": 0}, {"type": "note_off", "time": 199, "note": 53, "velocity": 103, "channel": 0}, {"type": "note_on", "time": 25, "note": 55, "velocity": 89, "channel": 0}, {"type": "note_off", "time": 208, "note": 55, "velocity": 89, "channel": 0}, {"type": "note_on", "time": 32, "note": 57, "velocity": 88, "channel": 0}, {"type": "note_off", "time": 123, "note": 57, "velocity": 88, "channel": 0}, {"type": "note_on", "time": 57, "note": 59, "velocity": 102, "channel": 0}, {"type": "note_off", "time": 173, "note": 59, "velocity": 102, "channel": 0}, {"type": "note_on", "time": 49, "note": 61, "velocity": 113, "channel": 0}, {"type": "note_off", "time": 181, "note": 61, "velocity": 113, "channel": 0}, {"type": "note_on", "time": 21, "note": 62, "velocity": 120, "channel": 0}, {"type": "note_off", "time": 101, "note": 62, "velocity": 120, "channel": 0}, {"type": "note_on", "time": 55, "note": 64, "velocity": 125, "channel": 0}, {"type": "note_off", "time": 202, "note": 64, "velocity": 125, "channel": 0}, {"type": "note_on", "time": 30, "note": 61, "velocity": 106, "channel": 0}, {"type": "note_off", "time": 174, "note": 61, "velocity": 106, "channel": 0}, {"type": "note_on", "time": 0, "note": 62, "velocity": 104, "channel": 0}, {"type": "note_off", "time": 619, "note": 62, "velocity": 104, "channel": 0}, {"type": "note_on", "time": 1402, "note": 57, "velocity": 94, "channel": 0}, {"type": "note_off", "time": 184, "note": 57, "velocity": 94, "channel": 0}, {"type": "note_on", "time": 0, "note": 59, "velocity": 95, "channel": 0}, {"type": "note_off", "time": 165, "note": 59, "velocity": 95, "channel": 0}, {"type": "note_on", "time": 42, "note": 61, "velocity": 113, "channel": 0}, {"type": "note_off", "time": 138, "note": 61, "velocity": 113, "channel": 0}, {"type": "note_on", "time": 0, "note": 62, "velocity": 114, "channel": 0}, {"type": "note_off", "time": 1143, "note": 62, "velocity": 114, "channel": 0}, {"type": "note_on", "time": 16, "note": 61, "velocity": 113, "channel": 0}, {"type": "note_off", "time": 266, "note": 61, "velocity": 113, "channel": 0}, {"type": "note_on", "time": 0, "note": 59, "velocity": 102, "channel": 0}, {"type": "note_off", "time": 171, "note": 59, "velocity": 102, "channel": 0}, {"type": "note_on", "time": 0, "note": 58, "velocity": 105, "channel": 0}, {"type": "note_off", "time": 153, "note": 58, "velocity": 105, "channel": 0}, {"type": "note_on", "time": 13, "note": 57, "velocity": 102, "channel": 0}, {"type": "note_off", "time": 246, "note": 57, "velocity": 102, "channel": 0}, {"type": "note_on", "time": 12, "note": 53, "velocity": 94, "channel": 0}, {"type": "note_on", "time": 190, "note": 52, "velocity": 90, "channel": 0}, {"type": "note_off", "time": 0, "note": 53, "velocity": 94, "channel": 0}, {"type": "note_off", "time": 178, "note": 52, "velocity": 90, "channel": 0}, {"type": "note_on", "time": 0, "note": 50, "velocity": 88, "channel": 0}, {"type": "note_off", "time": 155, "note": 50, "velocity": 88, "channel": 0}, {"type": "note_on", "time": 0, "note": 53, "velocity": 100, "channel": 0}, {"type": "note_off", "time": 182, "note": 53, "velocity": 100, "channel": 0}, {"type": "note_on", "time": 14, "note": 55, "velocity": 94, "channel": 0}, {"type": "note_off", "time": 170, "note": 55, "velocity": 94, "channel": 0}, {"type": "note_on", "time": 8, "note": 57, "velocity": 91, "channel": 0}, {"type": "note_off", "time": 169, "note": 57, "velocity": 91, "channel": 0}, {"type": "note_on", "time": 43, "note": 59, "velocity": 91, "channel": 0}, {"type": "note_off", "time": 179, "note": 59, "velocity": 91, "channel": 0}, {"type": "note_on", "time": 10, "note": 61, "velocity": 111, "channel": 0}, {"type": "note_off", "time": 175, "note": 61, "velocity": 111, "channel": 0}, {"type": "note_on", "time": 14, "note": 62, "velocity": 111, "channel": 0}, {"type": "note_off", "time": 172, "note": 62, "velocity": 111, "channel": 0}, {"type": "note_on", "time": 23, "note": 64, "velocity": 125, "channel": 0}, {"type": "note_off", "time": 225, "note": 64, "velocity": 125, "channel": 0}, {"type": "note_on", "time": 0, "note": 61, "velocity": 102, "channel": 0}, {"type": "note_off", "time": 176, "note": 61, "velocity": 102, "channel": 0}, {"type": "note_on", "time": 20, "note": 62, "velocity": 109, "channel": 0}, {"type": "note_off", "time": 228, "note": 62, "velocity": 109, "channel": 0}, {"type": "note_on", "time": 43, "note": 65, "velocity": 93, "channel": 0}, {"type": "note_off", "time": 220, "note": 65, "velocity": 93, "channel": 0}, {"type": "note_on", "time": 73, "note": 69, "velocity": 77, "channel": 0}, {"type": "note_off", "time": 265, "note": 69, "velocity": 77, "channel": 0}, {"type": "note_on", "time": 0, "note": 71, "velocity": 99, "channel": 0}, {"type": "note_off", "time": 161, "note": 71, "velocity": 99, "channel": 0}, {"type": "note_on", "time": 0, "note": 76, "velocity": 120, "channel": 0}, {"type": "note_off", "time": 311, "note": 76, "velocity": 120, "channel": 0}, {"type": "note_on", "time": 888, "note": 57, "velocity": 93, "channel": 0}, {"type": "note_off", "time": 223, "note": 57, "velocity": 93, "channel": 0}, {"type": "note_on", "time": 0, "note": 59, "velocity": 92, "channel": 0}, {"type": "note_off", "time": 206, "note": 59, "velocity": 92, "channel": 0}, {"type": "note_on", "time": 16, "note": 61, "velocity": 104, "channel": 0}, {"type": "note_off", "time": 181, "note": 61, "velocity": 104, "channel": 0}, {"type": "note_on", "time": 33, "note": 62, "velocity": 104, "channel": 0}, {"type": "note_off", "time": 194, "note": 62, "velocity": 104, "channel": 0}, {"type": "note_on", "time": 0, "note": 64, "velocity": 118, "channel": 0}, {"type": "note_off", "time": 237, "note": 64, "velocity": 118, "channel": 0}, {"type": "note_on", "time": 18, "note": 61, "velocity": 99, "channel": 0}, {"type": "note_off", "time": 190, "note": 61, "velocity": 99, "channel": 0}, {"type": "note_on", "time": 0, "note": 62, "velocity": 105, "channel": 0}, {"type": "note_off", "time": 248, "note": 62, "velocity": 105, "channel": 0}, {"type": "note_on", "time": 31, "note": 64, "velocity": 108, "channel": 0}, {"type": "note_off", "time": 208, "note": 64, "velocity": 108, "channel": 0}, {"type": "note_on", "time": 0, "note": 65, "velocity": 94, "channel": 0}, {"type": "note_off", "time": 193, "note": 65, "velocity": 94, "channel": 0}, {"type": "note_on", "time": 0, "note": 67, "velocity": 101, "channel": 0}, {"type": "note_off", "time": 113, "note": 67, "velocity": 101, "channel": 0}, {"type": "note_on", "time": 8, "note": 69, "velocity": 114, "channel": 0}, {"type": "note_off", "time": 2361, "note": 69, "velocity": 114, "channel": 0}, {"type": "note_on", "time": 308, "note": 73, "velocity": 110, "channel": 0}, {"type": "note_off", "time": 91, "note": 73, "velocity": 110, "channel": 0}, {"type": "note_on", "time": 30, "note": 74, "velocity": 104, "channel": 0}, {"type": "note_off", "time": 116, "note": 74, "velocity": 104, "channel": 0}, {"type": "note_on", "time": 8, "note": 73, "velocity": 107, "channel": 0}, {"type": "note_off", "time": 113, "note": 73, "velocity": 107, "channel": 0}, {"type": "note_on", "time": 0, "note": 71, "velocity": 104, "channel": 0}, {"type": "note_off", "time": 92, "note": 71, "velocity": 104, "channel": 0}, {"type": "note_on", "time": 45, "note": 64, "velocity": 127, "channel": 0}, {"type": "note_off", "time": 87, "note": 64, "velocity": 127, "channel": 0}, {"type": "note_on", "time": 5, "note": 65, "velocity": 104, "channel": 0}, {"type": "note_off", "time": 248, "note": 65, "velocity": 104, "channel": 0}, {"type": "note_on", "time": 76, "note": 61, "velocity": 107, "channel": 0}, {"type": "note_off", "time": 77, "note": 61, "velocity": 107, "channel": 0}, {"type": "note_on", "time": 0, "note": 62, "velocity": 103, "channel": 0}, {"type": "note_off", "time": 205, "note": 62, "velocity": 103, "channel": 0}, {"type": "note_on", "time": 1303, "note": 62, "velocity": 102, "channel": 0}, {"type": "note_off", "time": 293, "note": 62, "velocity": 102, "channel": 0}, {"type": "note_on", "time": 0, "note": 65, "velocity": 90, "channel": 0}, {"type": "note_off", "time": 246, "note": 65, "velocity": 90, "channel": 0}, {"type": "note_on", "time": 0, "note": 69, "velocity": 109, "channel": 0}, {"type": "note_off", "time": 154, "note": 69, "velocity": 109, "channel": 0}, {"type": "note_on", "time": 109, "note": 73, "velocity": 113, "channel": 0}, {"type": "note_off", "time": 117, "note": 73, "velocity": 113, "channel": 0}, {"type": "note_on", "time": 0, "note": 74, "velocity": 112, "channel": 0}, {"type": "note_off", "time": 1135, "note": 74, "velocity": 112, "channel": 0}, {"type": "note_on", "time": 348, "note": 74, "velocity": 102, "channel": 0}, {"type": "note_off", "time": 200, "note": 74, "velocity": 102, "channel": 0}, {"type": "note_on", "time": 27, "note": 73, "velocity": 111, "channel": 0}, {"type": "note_off", "time": 200, "note": 73, "velocity": 111, "channel": 0}, {"type": "note_on", "time": 75, "note": 64, "velocity": 123, "channel": 0}, {"type": "note_off", "time": 261, "note": 64, "velocity": 123, "channel": 0}, {"type": "note_on", "time": 14, "note": 65, "velocity": 105, "channel": 0}, {"type": "note_off", "time": 287, "note": 65, "velocity": 105, "channel": 0}, {"type": "note_on", "time": 0, "note": 61, "velocity": 107, "channel": 0}, {"type": "note_off", "time": 186, "note": 61, "velocity": 107, "channel": 0}, {"type": "note_on", "time": 0, "note": 62, "velocity": 110, "channel": 0}, {"type": "note_off", "time": 845, "note": 62, "velocity": 110, "channel": 0}, {"type": "note_on", "time": 1377, "note": 57, "velocity": 100, "channel": 0}, {"type": "note_off", "time": 158, "note": 57, "velocity": 100, "channel": 0}, {"type": "note_on", "time": 0, "note": 59, "velocity": 99, "channel": 0}, {"type": "note_off", "time": 186, "note": 59, "velocity": 99, "channel": 0}, {"type": "note_on", "time": 0, "note": 61, "velocity": 103, "channel": 0}, {"type": "note_off", "time": 153, "note": 61, "velocity": 103, "channel": 0}, {"type": "note_on", "time": 13, "note": 62, "velocity": 107, "channel": 0}, {"type": "note_off", "time": 198, "note": 62, "velocity": 107, "channel": 0}, {"type": "note_on", "time": 0, "note": 64, "velocity": 109, "channel": 0}, {"type": "note_off", "time": 174, "note": 64, "velocity": 109, "channel": 0}, {"type": "note_on", "time": 0, "note": 65, "velocity": 94, "channel": 0}, {"type": "note_off", "time": 150, "note": 65, "velocity": 94, "channel": 0}, {"type": "note_on", "time": 0, "note": 67, "velocity": 89, "channel": 0}, {"type": "note_off", "time": 189, "note": 67, "velocity": 89, "channel": 0}, {"type": "note_on", "time": 139, "note": 71, "velocity": 97, "channel": 0}, {"type": "note_off", "time": 81, "note": 71, "velocity": 97, "channel": 0}, {"type": "note_on", "time": 202, "note": 73, "velocity": 9, "channel": 0}, {"type": "note_off", "time": 106, "note": 73, "velocity": 9, "channel": 0}, {"type": "note_on", "time": 15, "note": 74, "velocity": 9, "channel": 0}, {"type": "note_off", "time": 381, "note": 74, "velocity": 9, "channel": 0}, {"type": "note_on", "time": 32, "note": 74, "velocity": 102, "channel": 0}, {"type": "note_off", "time": 1226, "note": 74, "velocity": 102, "channel": 0}, {"type": "note_on", "time": 0, "note": 68, "velocity": 94, "channel": 0}, {"type": "note_off", "time": 319, "note": 68, "velocity": 94, "channel": 0}, {"type": "note_on", "time": 0, "note": 73, "velocity": 105, "channel": 0}, {"type": "note_off", "time": 121, "note": 73, "velocity": 105, "channel": 0}, {"type": "note_on", "time": 16, "note": 74, "velocity": 98, "channel": 0}, {"type": "note_off", "time": 150, "note": 74, "velocity": 98, "channel": 0}, {"type": "note_on", "time": 40, "note": 73, "velocity": 109, "channel": 0}, {"type": "note_off", "time": 129, "note": 73, "velocity": 109, "channel": 0}, {"type": "note_on", "time": 0, "note": 69, "velocity": 101, "channel": 0}, {"type": "note_on", "time": 85, "note": 64, "velocity": 122, "channel": 0}, {"type": "note_off", "time": 0, "note": 69, "velocity": 101, "channel": 0}, {"type": "note_off", "time": 144, "note": 64, "velocity": 122, "channel": 0}, {"type": "note_on", "time": 13, "note": 65, "velocity": 100, "channel": 0}, {"type": "note_off", "time": 494, "note": 65, "velocity": 100, "channel": 0}, {"type": "note_on", "time": 40, "note": 61, "velocity": 105, "channel": 0}, {"type": "note_off", "time": 77, "note": 61, "velocity": 105, "channel": 0}, {"type": "note_on", "time": 0, "note": 62, "velocity": 104, "channel": 0}, {"type": "note_off", "time": 300, "note": 62, "velocity": 104, "channel": 0}, {"type": "note_on", "time": 32, "note": 62, "velocity": 108, "channel": 0}, {"type": "note_off", "time": 127, "note": 62, "velocity": 108, "channel": 0}, {"type": "note_on", "time": 1572, "note": 69, "velocity": 103, "channel": 0}, {"type": "note_off", "time": 187, "note": 69, "velocity": 103, "channel": 0}, {"type": "note_on", "time": 311, "note": 69, "velocity": 94, "channel": 0}, {"type": "note_off", "time": 403, "note": 69, "velocity": 94, "channel": 0}, {"type": "note_on", "time": 71, "note": 74, "velocity": 105, "channel": 0}, {"type": "note_off", "time": 365, "note": 74, "velocity": 105, "channel": 0}, {"type": "note_on", "time": 0, "note": 69, "velocity": 97, "channel": 0}, {"type": "note_off", "time": 368, "note": 69, "velocity": 97, "channel": 0}, {"type": "note_on", "time": 77, "note": 74, "velocity": 109, "channel": 0}, {"type": "note_off", "time": 340, "note": 74, "velocity": 109, "channel": 0}, {"type": "note_on", "time": 0, "note": 69, "velocity": 96, "channel": 0}, {"type": "note_off", "time": 312, "note": 69, "velocity": 96, "channel": 0}, {"type": "note_on", "time": 304, "note": 67, "velocity": 102, "channel": 0}, {"type": "note_off", "time": 1107, "note": 67, "velocity": 102, "channel": 0}, {"type": "note_on", "time": 16, "note": 65, "velocity": 91, "channel": 0}, {"type": "note_off", "time": 239, "note": 65, "velocity": 91, "channel": 0}, {"type": "note_on", "time": 0, "note": 67, "velocity": 104, "channel": 0}, {"type": "note_off", "time": 340, "note": 67, "velocity": 104, "channel": 0}, {"type": "note_on", "time": 0, "note": 65, "velocity": 100, "channel": 0}, {"type": "note_off", "time": 157, "note": 65, "velocity": 100, "channel": 0}, {"type": "note_on", "time": 268, "note": 67, "velocity": 106, "channel": 0}, {"type": "note_off", "time": 267, "note": 67, "velocity": 106, "channel": 0}, {"type": "note_on", "time": 0, "note": 69, "velocity": 107, "channel": 0}, {"type": "note_off", "time": 190, "note": 69, "velocity": 107, "channel": 0}, {"type": "note_on", "time": 2130, "note": 69, "velocity": 104, "channel": 0}, {"type": "note_off", "time": 1833, "note": 69, "velocity": 104, "channel": 0}, {"type": "note_on", "time": 60, "note": 68, "velocity": 103, "channel": 0}, {"type": "note_off", "time": 206, "note": 68, "velocity": 103, "channel": 0}, {"type": "note_on", "time": 0, "note": 67, "velocity": 97, "channel": 0}, {"type": "note_off", "time": 249, "note": 67, "velocity": 97, "channel": 0}, {"type": "note_on", "time": 14, "note": 65, "velocity": 100, "channel": 0}, {"type": "note_off", "time": 247, "note": 65, "velocity": 100, "channel": 0}, {"type": "note_on", "time": 0, "note": 64, "velocity": 108, "channel": 0}, {"type": "note_off", "time": 174, "note": 64, "velocity": 108, "channel": 0}, {"type": "note_on", "time": 0, "note": 62, "velocity": 98, "channel": 0}, {"type": "note_off", "time": 194, "note": 62, "velocity": 98, "channel": 0}, {"type": "note_on", "time": 8, "note": 61, "velocity": 95, "channel": 0}, {"type": "note_on", "time": 210, "note": 59, "velocity": 89, "channel": 0}, {"type": "note_off", "time": 0, "note": 61, "velocity": 95, "channel": 0}, {"type": "note_off", "time": 227, "note": 59, "velocity": 89, "channel": 0}, {"type": "note_on", "time": 0, "note": 57, "velocity": 87, "channel": 0}, {"type": "note_off", "time": 142, "note": 57, "velocity": 87, "channel": 0}, {"type": "note_on", "time": 0, "note": 56, "velocity": 91, "channel": 0}, {"type": "note_off", "time": 167, "note": 56, "velocity": 91, "channel": 0}, {"type": "note_on", "time": 3, "note": 55, "velocity": 87, "channel": 0}, {"type": "note_off", "time": 188, "note": 55, "velocity": 87, "channel": 0}, {"type": "note_on", "time": 103, "note": 57, "velocity": 88, "channel": 0}, {"type": "note_off", "time": 240, "note": 57, "velocity": 88, "channel": 0}, {"type": "note_on", "time": 15, "note": 59, "velocity": 83, "channel": 0}, {"type": "note_off", "time": 226, "note": 59, "velocity": 83, "channel": 0}, {"type": "note_on", "time": 0, "note": 61, "velocity": 97, "channel": 0}, {"type": "note_off", "time": 202, "note": 61, "velocity": 97, "channel": 0}, {"type": "note_on", "time": 0, "note": 62, "velocity": 98, "channel": 0}, {"type": "note_off", "time": 182, "note": 62, "velocity": 98, "channel": 0}, {"type": "note_on", "time": 0, "note": 64, "velocity": 110, "channel": 0}, {"type": "note_off", "time": 200, "note": 64, "velocity": 110, "channel": 0}, {"type": "note_on", "time": 42, "note": 61, "velocity": 96, "channel": 0}, {"type": "note_off", "time": 204, "note": 61, "velocity": 96, "channel": 0}, {"type": "note_on", "time": 14, "note": 62, "velocity": 96, "channel": 0}, {"type": "note_off", "time": 221, "note": 62, "velocity": 96, "channel": 0}, {"type": "note_on", "time": 42, "note": 64, "velocity": 96, "channel": 0}, {"type": "note_off", "time": 275, "note": 64, "velocity": 96, "channel": 0}, {"type": "note_on", "time": 28, "note": 65, "velocity": 92, "channel": 0}, {"type": "note_off", "time": 170, "note": 65, "velocity": 92, "channel": 0}, {"type": "note_on", "time": 8, "note": 67, "velocity": 89, "channel": 0}, {"type": "note_off", "time": 154, "note": 67, "velocity": 89, "channel": 0}, {"type": "note_on", "time": 0, "note": 69, "velocity": 94, "channel": 0}, {"type": "note_off", "time": 742, "note": 69, "velocity": 94, "channel": 0}, {"type": "note_on", "time": 0, "note": 67, "velocity": 97, "channel": 0}, {"type": "note_off", "time": 182, "note": 67, "velocity": 97, "channel": 0}, {"type": "note_on", "time": 65, "note": 65, "velocity": 90, "channel": 0}, {"type": "note_off", "time": 193, "note": 65, "velocity": 90, "channel": 0}, {"type": "note_on", "time": 11, "note": 69, "velocity": 97, "channel": 0}, {"type": "note_off", "time": 260, "note": 69, "velocity": 97, "channel": 0}, {"type": "note_on", "time": 2008, "note": 60, "velocity": 98, "channel": 0}, {"type": "note_off", "time": 170, "note": 60, "velocity": 98, "channel": 0}, {"type": "note_on", "time": 0, "note": 65, "velocity": 104, "channel": 0}, {"type": "note_off", "time": 158, "note": 65, "velocity": 104, "channel": 0}, {"type": "note_on", "time": 0, "note": 67, "velocity": 111, "channel": 0}, {"type": "note_off", "time": 170, "note": 67, "velocity": 111, "channel": 0}, {"type": "note_on", "time": 0, "note": 69, "velocity": 108, "channel": 0}, {"type": "note_off", "time": 361, "note": 69, "velocity": 108, "channel": 0}, {"type": "note_on", "time": 52, "note": 62, "velocity": 110, "channel": 0}, {"type": "note_off", "time": 653, "note": 62, "velocity": 110, "channel": 0}, {"type": "note_on", "time": 4, "note": 64, "velocity": 119, "channel": 0}, {"type": "note_off", "time": 519, "note": 64, "velocity": 119, "channel": 0}, {"type": "note_on", "time": 1448, "note": 62, "velocity": 106, "channel": 0}, {"type": "note_off", "time": 182, "note": 62, "velocity": 106, "channel": 0}, {"type": "note_on", "time": 0, "note": 67, "velocity": 98, "channel": 0}, {"type": "note_off", "time": 198, "note": 67, "velocity": 98, "channel": 0}, {"type": "note_on", "time": 0, "note": 69, "velocity": 98, "channel": 0}, {"type": "note_off", "time": 154, "note": 69, "velocity": 98, "channel": 0}, {"type": "note_on", "time": 0, "note": 71, "velocity": 108, "channel": 0}, {"type": "note_off", "time": 912, "note": 71, "velocity": 108, "channel": 0}, {"type": "note_on", "time": 0, "note": 62, "velocity": 88, "channel": 0}, {"type": "note_off", "time": 150, "note": 62, "velocity": 88, "channel": 0}, {"type": "note_on", "time": 0, "note": 67, "velocity": 95, "channel": 0}, {"type": "note_off", "time": 178, "note": 67, "velocity": 95, "channel": 0}, {"type": "note_on", "time": 0, "note": 69, "velocity": 106, "channel": 0}, {"type": "note_off", "time": 166, "note": 69, "velocity": 106, "channel": 0}, {"type": "note_on", "time": 0, "note": 71, "velocity": 106, "channel": 0}, {"type": "note_off", "time": 243, "note": 71, "velocity": 106, "channel": 0}, {"type": "note_on", "time": 0, "note": 67, "velocity": 107, "channel": 0}, {"type": "note_off", "time": 188, "note": 67, "velocity": 107, "channel": 0}, {"type": "note_on", "time": 22, "note": 65, "velocity": 96, "channel": 0}, {"type": "note_off", "time": 194, "note": 65, "velocity": 96, "channel": 0}, {"type": "note_on", "time": 0, "note": 67, "velocity": 106, "channel": 0}, {"type": "note_on", "time": 182, "note": 69, "velocity": 107, "channel": 0}, {"type": "note_off", "time": 0, "note": 67, "velocity": 106, "channel": 0}, {"type": "note_off", "time": 950, "note": 69, "velocity": 107, "channel": 0}, {"type": "note_on", "time": 47, "note": 65, "velocity": 95, "channel": 0}, {"type": "note_off", "time": 142, "note": 65, "velocity": 95, "channel": 0}, {"type": "note_on", "time": 8, "note": 67, "velocity": 100, "channel": 0}, {"type": "note_off", "time": 117, "note": 67, "velocity": 100, "channel": 0}, {"type": "note_on", "time": 0, "note": 69, "velocity": 102, "channel": 0}, {"type": "note_off", "time": 206, "note": 69, "velocity": 102, "channel": 0}, {"type": "note_on", "time": 0, "note": 67, "velocity": 104, "channel": 0}, {"type": "note_off", "time": 716, "note": 67, "velocity": 104, "channel": 0}, {"type": "note_on", "time": 21, "note": 64, "velocity": 112, "channel": 0}, {"type": "note_off", "time": 232, "note": 64, "velocity": 112, "channel": 0}, {"type": "note_on", "time": 1220, "note": 62, "velocity": 105, "channel": 0}, {"type": "note_off", "time": 169, "note": 62, "velocity": 105, "channel": 0}, {"type": "note_on", "time": 135, "note": 67, "velocity": 84, "channel": 0}, {"type": "note_off", "time": 235, "note": 67, "velocity": 84, "channel": 0}, {"type": "note_on", "time": 0, "note": 69, "velocity": 91, "channel": 0}, {"type": "note_off", "time": 229, "note": 69, "velocity": 91, "channel": 0}, {"type": "note_on", "time": 12, "note": 71, "velocity": 108, "channel": 0}, {"type": "note_off", "time": 255, "note": 71, "velocity": 108, "channel": 0}, {"type": "note_on", "time": 0, "note": 72, "velocity": 112, "channel": 0}, {"type": "note_on", "time": 286, "note": 71, "velocity": 91, "channel": 0}, {"type": "note_off", "time": 0, "note": 72, "velocity": 112, "channel": 0}, {"type": "note_off", "time": 393, "note": 71, "velocity": 91, "channel": 0}, {"type": "note_on", "time": 0, "note": 72, "velocity": 113, "channel": 0}, {"type": "note_off", "time": 649, "note": 72, "velocity": 113, "channel": 0}, {"type": "note_on", "time": 20, "note": 71, "velocity": 109, "channel": 0}, {"type": "note_off", "time": 277, "note": 71, "velocity": 109, "channel": 0}, {"type": "note_on", "time": 26, "note": 67, "velocity": 79, "channel": 0}, {"type": "note_on", "time": 243, "note": 65, "velocity": 84, "channel": 0}, {"type": "note_off", "time": 0, "note": 67, "velocity": 79, "channel": 0}, {"type": "note_off", "time": 202, "note": 65, "velocity": 84, "channel": 0}, {"type": "note_on", "time": 0, "note": 67, "velocity": 100, "channel": 0}, {"type": "note_off", "time": 121, "note": 67, "velocity": 100, "channel": 0}, {"type": "note_on", "time": 0, "note": 69, "velocity": 110, "channel": 0}, {"type": "note_off", "time": 194, "note": 69, "velocity": 110, "channel": 0}, {"type": "note_on", "time": 0, "note": 70, "velocity": 114, "channel": 0}, {"type": "note_off", "time": 544, "note": 70, "velocity": 114, "channel": 0}, {"type": "note_on", "time": 242, "note": 69, "velocity": 102, "channel": 0}, {"type": "note_off", "time": 340, "note": 69, "velocity": 102, "channel": 0}, {"type": "note_on", "time": 0, "note": 70, "velocity": 110, "channel": 0}, {"type": "note_off", "time": 328, "note": 70, "velocity": 110, "channel": 0}, {"type": "note_on", "time": 0, "note": 69, "velocity": 106, "channel": 0}, {"type": "note_off", "time": 590, "note": 69, "velocity": 106, "channel": 0}, {"type": "note_on", "time": 1191, "note": 62, "velocity": 105, "channel": 0}, {"type": "note_off", "time": 219, "note": 62, "velocity": 105, "channel": 0}, {"type": "note_on", "time": 52, "note": 67, "velocity": 78, "channel": 0}, {"type": "note_off", "time": 261, "note": 67, "velocity": 78, "channel": 0}, {"type": "note_on", "time": 38, "note": 69, "velocity": 98, "channel": 0}, {"type": "note_off", "time": 227, "note": 69, "velocity": 98, "channel": 0}, {"type": "note_on", "time": 0, "note": 71, "velocity": 110, "channel": 0}, {"type": "note_off", "time": 172, "note": 71, "velocity": 110, "channel": 0}, {"type": "note_on", "time": 46, "note": 72, "velocity": 110, "channel": 0}, {"type": "note_off", "time": 1479, "note": 72, "velocity": 110, "channel": 0}, {"type": "note_on", "time": 0, "note": 71, "velocity": 106, "channel": 0}, {"type": "note_off", "time": 216, "note": 71, "velocity": 106, "channel": 0}, {"type": "note_on", "time": 0, "note": 72, "velocity": 109, "channel": 0}, {"type": "note_off", "time": 251, "note": 72, "velocity": 109, "channel": 0}, {"type": "note_on", "time": 0, "note": 71, "velocity": 99, "channel": 0}, {"type": "note_off", "time": 243, "note": 71, "velocity": 99, "channel": 0}, {"type": "note_on", "time": 0, "note": 69, "velocity": 102, "channel": 0}, {"type": "note_off", "time": 213, "note": 69, "velocity": 102, "channel": 0}, {"type": "note_on", "time": 25, "note": 67, "velocity": 100, "channel": 0}, {"type": "note_off", "time": 162, "note": 67, "velocity": 100, "channel": 0}, {"type": "note_on", "time": 0, "note": 66, "velocity": 97, "channel": 0}, {"type": "note_off", "time": 178, "note": 66, "velocity": 97, "channel": 0}, {"type": "note_on", "time": 0, "note": 65, "velocity": 96, "channel": 0}, {"type": "note_off", "time": 178, "note": 65, "velocity": 96, "channel": 0}, {"type": "note_on", "time": 74, "note": 69, "velocity": 102, "channel": 0}, {"type": "note_on", "time": 218, "note": 64, "velocity": 114, "channel": 0}, {"type": "note_off", "time": 0, "note": 69, "velocity": 102, "channel": 0}, {"type": "note_off", "time": 173, "note": 64, "velocity": 114, "channel": 0}, {"type": "note_on", "time": 0, "note": 67, "velocity": 90, "channel": 0}, {"type": "note_off", "time": 198, "note": 67, "velocity": 90, "channel": 0}, {"type": "note_on", "time": 0, "note": 65, "velocity": 94, "channel": 0}, {"type": "note_off", "time": 179, "note": 65, "velocity": 94, "channel": 0}, {"type": "note_on", "time": 31, "note": 64, "velocity": 115, "channel": 0}, {"type": "note_off", "time": 173, "note": 64, "velocity": 115, "channel": 0}, {"type": "note_on", "time": 1, "note": 62, "velocity": 88, "channel": 0}, {"type": "note_off", "time": 516, "note": 62, "velocity": 88, "channel": 0}, {"type": "note_on", "time": 2267, "note": 60, "velocity": 104, "channel": 0}, {"type": "note_off", "time": 188, "note": 60, "velocity": 104, "channel": 0}, {"type": "note_on", "time": 14, "note": 61, "velocity": 100, "channel": 0}, {"type": "note_off", "time": 203, "note": 61, "velocity": 100, "channel": 0}, {"type": "note_on", "time": 7, "note": 63, "velocity": 111, "channel": 0}, {"type": "note_off", "time": 1834, "note": 63, "velocity": 111, "channel": 0}, {"type": "note_on", "time": 15, "note": 63, "velocity": 106, "channel": 0}, {"type": "note_off", "time": 335, "note": 63, "velocity": 106, "channel": 0}, {"type": "note_on", "time": 119, "note": 63, "velocity": 107, "channel": 0}, {"type": "note_off", "time": 229, "note": 63, "velocity": 107, "channel": 0}, {"type": "note_on", "time": 285, "note": 63, "velocity": 103, "channel": 0}, {"type": "note_off", "time": 580, "note": 63, "velocity": 103, "channel": 0}, {"type": "note_on", "time": 34, "note": 58, "velocity": 85, "channel": 0}, {"type": "note_off", "time": 780, "note": 58, "velocity": 85, "channel": 0}, {"type": "note_on", "time": 949, "note": 53, "velocity": 102, "channel": 0}, {"type": "note_off", "time": 228, "note": 53, "velocity": 102, "channel": 0}, {"type": "note_on", "time": 10, "note": 56, "velocity": 98, "channel": 0}, {"type": "note_on", "time": 210, "note": 54, "velocity": 95, "channel": 0}, {"type": "note_off", "time": 0, "note": 56, "velocity": 98, "channel": 0}, {"type": "note_off", "time": 222, "note": 54, "velocity": 95, "channel": 0}, {"type": "note_on", "time": 16, "note": 56, "velocity": 94, "channel": 0}, {"type": "note_off", "time": 218, "note": 56, "velocity": 94, "channel": 0}, {"type": "note_on", "time": 8, "note": 58, "velocity": 91, "channel": 0}, {"type": "note_off", "time": 192, "note": 58, "velocity": 91, "channel": 0}, {"type": "note_on", "time": 6, "note": 60, "velocity": 95, "channel": 0}, {"type": "note_off", "time": 178, "note": 60, "velocity": 95, "channel": 0}, {"type": "note_on", "time": 0, "note": 61, "velocity": 103, "channel": 0}, {"type": "note_off", "time": 180, "note": 61, "velocity": 103, "channel": 0}, {"type": "note_on", "time": 5, "note": 63, "velocity": 108, "channel": 0}, {"type": "note_off", "time": 405, "note": 63, "velocity": 108, "channel": 0}, {"type": "note_on", "time": 158, "note": 63, "velocity": 109, "channel": 0}, {"type": "note_off", "time": 357, "note": 63, "velocity": 109, "channel": 0}, {"type": "note_on", "time": 186, "note": 63, "velocity": 110, "channel": 0}, {"type": "note_off", "time": 1038, "note": 63, "velocity": 110, "channel": 0}, {"type": "note_on", "time": 0, "note": 65, "velocity": 93, "channel": 0}, {"type": "note_off", "time": 182, "note": 65, "velocity": 93, "channel": 0}, {"type": "note_on", "time": 0, "note": 66, "velocity": 96, "channel": 0}, {"type": "note_off", "time": 137, "note": 66, "velocity": 96, "channel": 0}, {"type": "note_on", "time": 0, "note": 68, "velocity": 113, "channel": 0}, {"type": "note_off", "time": 747, "note": 68, "velocity": 113, "channel": 0}, {"type": "note_on", "time": 311, "note": 58, "velocity": 86, "channel": 0}, {"type": "note_off", "time": 1042, "note": 58, "velocity": 86, "channel": 0}, {"type": "note_on", "time": 1116, "note": 60, "velocity": 102, "channel": 0}, {"type": "note_off", "time": 170, "note": 60, "velocity": 102, "channel": 0}, {"type": "note_on", "time": 0, "note": 61, "velocity": 107, "channel": 0}, {"type": "note_off", "time": 170, "note": 61, "velocity": 107, "channel": 0}, {"type": "note_on", "time": 0, "note": 63, "velocity": 108, "channel": 0}, {"type": "note_off", "time": 544, "note": 63, "velocity": 108, "channel": 0}, {"type": "note_on", "time": 43, "note": 63, "velocity": 109, "channel": 0}, {"type": "note_off", "time": 411, "note": 63, "velocity": 109, "channel": 0}, {"type": "note_on", "time": 217, "note": 63, "velocity": 107, "channel": 0}, {"type": "note_off", "time": 290, "note": 63, "velocity": 107, "channel": 0}, {"type": "note_on", "time": 289, "note": 64, "velocity": 97, "channel": 0}, {"type": "note_off", "time": 93, "note": 64, "velocity": 97, "channel": 0}, {"type": "note_on", "time": 4, "note": 65, "velocity": 102, "channel": 0}, {"type": "note_off", "time": 1431, "note": 65, "velocity": 102, "channel": 0}, {"type": "note_on", "time": 126, "note": 61, "velocity": 97, "channel": 0}, {"type": "note_off", "time": 137, "note": 61, "velocity": 97, "channel": 0}, {"type": "note_on", "time": 0, "note": 63, "velocity": 112, "channel": 0}, {"type": "note_off", "time": 187, "note": 63, "velocity": 112, "channel": 0}, {"type": "note_on", "time": 27, "note": 68, "velocity": 109, "channel": 0}, {"type": "note_off", "time": 827, "note": 68, "velocity": 109, "channel": 0}, {"type": "note_on", "time": 12, "note": 67, "velocity": 102, "channel": 0}, {"type": "note_off", "time": 101, "note": 67, "velocity": 102, "channel": 0}, {"type": "note_on", "time": 0, "note": 65, "velocity": 102, "channel": 0}, {"type": "note_off", "time": 117, "note": 65, "velocity": 102, "channel": 0}, {"type": "note_on", "time": 0, "note": 63, "velocity": 102, "channel": 0}, {"type": "note_off", "time": 137, "note": 63, "velocity": 102, "channel": 0}, {"type": "note_on", "time": 0, "note": 61, "velocity": 105, "channel": 0}, {"type": "note_off", "time": 133, "note": 61, "velocity": 105, "channel": 0}, {"type": "note_on", "time": 73, "note": 63, "velocity": 107, "channel": 0}, {"type": "note_off", "time": 1282, "note": 63, "velocity": 107, "channel": 0}, {"type": "note_on", "time": 1188, "note": 63, "velocity": 104, "channel": 0}, {"type": "note_off", "time": 235, "note": 63, "velocity": 104, "channel": 0}, {"type": "note_on", "time": 32, "note": 66, "velocity": 82, "channel": 0}, {"type": "note_off", "time": 220, "note": 66, "velocity": 82, "channel": 0}, {"type": "note_on", "time": 191, "note": 73, "velocity": 89, "channel": 0}, {"type": "note_off", "time": 223, "note": 73, "velocity": 89, "channel": 0}, {"type": "note_on", "time": 158, "note": 77, "velocity": 96, "channel": 0}, {"type": "note_off", "time": 985, "note": 77, "velocity": 96, "channel": 0}, {"type": "note_on", "time": 4, "note": 75, "velocity": 112, "channel": 0}, {"type": "note_off", "time": 231, "note": 75, "velocity": 112, "channel": 0}, {"type": "note_on", "time": 48, "note": 73, "velocity": 106, "channel": 0}, {"type": "note_off", "time": 203, "note": 73, "velocity": 106, "channel": 0}, {"type": "note_on", "time": 11, "note": 72, "velocity": 88, "channel": 0}, {"type": "note_off", "time": 311, "note": 72, "velocity": 88, "channel": 0}, {"type": "note_on", "time": 8, "note": 70, "velocity": 110, "channel": 0}, {"type": "note_off", "time": 200, "note": 70, "velocity": 110, "channel": 0}, {"type": "note_on", "time": 2, "note": 68, "velocity": 108, "channel": 0}, {"type": "note_off", "time": 219, "note": 68, "velocity": 108, "channel": 0}, {"type": "note_on", "time": 0, "note": 67, "velocity": 105, "channel": 0}, {"type": "note_off", "time": 202, "note": 67, "velocity": 105, "channel": 0}, {"type": "note_on", "time": 0, "note": 66, "velocity": 102, "channel": 0}, {"type": "note_off", "time": 307, "note": 66, "velocity": 102, "channel": 0}, {"type": "note_on", "time": 382, "note": 64, "velocity": 119, "channel": 0}, {"type": "note_on", "time": 243, "note": 65, "velocity": 86, "channel": 0}, {"type": "note_off", "time": 0, "note": 64, "velocity": 119, "channel": 0}, {"type": "note_off", "time": 185, "note": 65, "velocity": 86, "channel": 0}, {"type": "note_on", "time": 17, "note": 69, "velocity": 75, "channel": 0}, {"type": "note_off", "time": 147, "note": 69, "velocity": 75, "channel": 0}, {"type": "note_on", "time": 159, "note": 76, "velocity": 87, "channel": 0}, {"type": "note_off", "time": 138, "note": 76, "velocity": 87, "channel": 0}, {"type": "note_on", "time": 81, "note": 79, "velocity": 108, "channel": 0}, {"type": "note_off", "time": 1523, "note": 79, "velocity": 108, "channel": 0}, {"type": "note_on", "time": 52, "note": 77, "velocity": 93, "channel": 0}, {"type": "note_off", "time": 286, "note": 77, "velocity": 93, "channel": 0}, {"type": "note_on", "time": 0, "note": 76, "velocity": 95, "channel": 0}, {"type": "note_off", "time": 433, "note": 76, "velocity": 95, "channel": 0}, {"type": "note_on", "time": 65, "note": 74, "velocity": 88, "channel": 0}, {"type": "note_off", "time": 92, "note": 74, "velocity": 88, "channel": 0}, {"type": "note_on", "time": 134, "note": 76, "velocity": 108, "channel": 0}, {"type": "note_off", "time": 328, "note": 76, "velocity": 108, "channel": 0}, {"type": "note_on", "time": 125, "note": 72, "velocity": 104, "channel": 0}, {"type": "note_off", "time": 340, "note": 72, "velocity": 104, "channel": 0}, {"type": "note_on", "time": 178, "note": 72, "velocity": 112, "channel": 0}, {"type": "note_off", "time": 312, "note": 72, "velocity": 112, "channel": 0}, {"type": "note_on", "time": 7, "note": 69, "velocity": 110, "channel": 0}, {"type": "note_off", "time": 221, "note": 69, "velocity": 110, "channel": 0}, {"type": "note_on", "time": 245, "note": 65, "velocity": 105, "channel": 0}, {"type": "note_off", "time": 163, "note": 65, "velocity": 105, "channel": 0}, {"type": "note_on", "time": 75, "note": 62, "velocity": 92, "channel": 0}, {"type": "note_off", "time": 352, "note": 62, "velocity": 92, "channel": 0}, {"type": "note_on", "time": 16, "note": 67, "velocity": 100, "channel": 0}, {"type": "note_off", "time": 486, "note": 67, "velocity": 100, "channel": 0}, {"type": "note_on", "time": 1310, "note": 72, "velocity": 110, "channel": 0}, {"type": "note_off", "time": 60, "note": 72, "velocity": 110, "channel": 0}, {"type": "note_on", "time": 0, "note": 73, "velocity": 109, "channel": 0}, {"type": "note_off", "time": 68, "note": 73, "velocity": 109, "channel": 0}, {"type": "note_on", "time": 0, "note": 74, "velocity": 105, "channel": 0}, {"type": "note_off", "time": 391, "note": 74, "velocity": 105, "channel": 0}, {"type": "note_on", "time": 136, "note": 73, "velocity": 105, "channel": 0}, {"type": "note_off", "time": 137, "note": 73, "velocity": 105, "channel": 0}, {"type": "note_on", "time": 0, "note": 72, "velocity": 109, "channel": 0}, {"type": "note_off", "time": 185, "note": 72, "velocity": 109, "channel": 0}, {"type": "note_on", "time": 1, "note": 71, "velocity": 106, "channel": 0}, {"type": "note_off", "time": 167, "note": 71, "velocity": 106, "channel": 0}, {"type": "note_on", "time": 43, "note": 69, "velocity": 102, "channel": 0}, {"type": "note_off", "time": 230, "note": 69, "velocity": 102, "channel": 0}, {"type": "note_on", "time": 38, "note": 67, "velocity": 99, "channel": 0}, {"type": "note_off", "time": 84, "note": 67, "velocity": 99, "channel": 0}, {"type": "note_on", "time": 92, "note": 66, "velocity": 99, "channel": 0}, {"type": "note_off", "time": 117, "note": 66, "velocity": 99, "channel": 0}, {"type": "note_on", "time": 4, "note": 65, "velocity": 99, "channel": 0}, {"type": "note_off", "time": 162, "note": 65, "velocity": 99, "channel": 0}, {"type": "note_on", "time": 80, "note": 69, "velocity": 98, "channel": 0}, {"type": "note_off", "time": 254, "note": 69, "velocity": 98, "channel": 0}, {"type": "note_on", "time": 0, "note": 64, "velocity": 110, "channel": 0}, {"type": "note_off", "time": 203, "note": 64, "velocity": 110, "channel": 0}, {"type": "note_on", "time": 84, "note": 67, "velocity": 94, "channel": 0}, {"type": "note_off", "time": 154, "note": 67, "velocity": 94, "channel": 0}, {"type": "note_on", "time": 0, "note": 65, "velocity": 100, "channel": 0}, {"type": "note_off", "time": 164, "note": 65, "velocity": 100, "channel": 0}, {"type": "note_on", "time": 346, "note": 57, "velocity": 90, "channel": 0}, {"type": "note_on", "time": 150, "note": 59, "velocity": 97, "channel": 0}, {"type": "note_off", "time": 0, "note": 57, "velocity": 90, "channel": 0}, {"type": "note_off", "time": 166, "note": 59, "velocity": 97, "channel": 0}, {"type": "note_on", "time": 0, "note": 61, "velocity": 103, "channel": 0}, {"type": "note_off", "time": 174, "note": 61, "velocity": 103, "channel": 0}, {"type": "note_on", "time": 0, "note": 62, "velocity": 107, "channel": 0}, {"type": "note_off", "time": 182, "note": 62, "velocity": 107, "channel": 0}, {"type": "note_on", "time": 40, "note": 64, "velocity": 117, "channel": 0}, {"type": "note_off", "time": 218, "note": 64, "velocity": 117, "channel": 0}, {"type": "note_on", "time": 7, "note": 61, "velocity": 95, "channel": 0}, {"type": "note_off", "time": 212, "note": 61, "velocity": 95, "channel": 0}, {"type": "note_on", "time": 0, "note": 62, "velocity": 104, "channel": 0}, {"type": "note_off", "time": 194, "note": 62, "velocity": 104, "channel": 0}, {"type": "note_on", "time": 0, "note": 64, "velocity": 100, "channel": 0}, {"type": "note_off", "time": 198, "note": 64, "velocity": 100, "channel": 0}, {"type": "note_on", "time": 0, "note": 65, "velocity": 92, "channel": 0}, {"type": "note_off", "time": 178, "note": 65, "velocity": 92, "channel": 0}, {"type": "note_on", "time": 0, "note": 67, "velocity": 99, "channel": 0}, {"type": "note_off", "time": 186, "note": 67, "velocity": 99, "channel": 0}, {"type": "note_on", "time": 0, "note": 69, "velocity": 109, "channel": 0}, {"type": "note_off", "time": 309, "note": 69, "velocity": 109, "channel": 0}, {"type": "note_on", "time": 1804, "note": 69, "velocity": 107, "channel": 0}, {"type": "note_off", "time": 1505, "note": 69, "velocity": 107, "channel": 0}, {"type": "note_on", "time": 240, "note": 69, "velocity": 110, "channel": 0}, {"type": "note_off", "time": 192, "note": 69, "velocity": 110, "channel": 0}, {"type": "note_on", "time": 176, "note": 69, "velocity": 109, "channel": 0}, {"type": "note_off", "time": 297, "note": 69, "velocity": 109, "channel": 0}, {"type": "note_on", "time": 0, "note": 72, "velocity": 109, "channel": 0}, {"type": "note_off", "time": 154, "note": 72, "velocity": 109, "channel": 0}, {"type": "note_on", "time": 4, "note": 67, "velocity": 106, "channel": 0}, {"type": "note_off", "time": 1679, "note": 67, "velocity": 106, "channel": 0}, {"type": "note_on", "time": 0, "note": 66, "velocity": 98, "channel": 0}, {"type": "note_on", "time": 219, "note": 65, "velocity": 98, "channel": 0}, {"type": "note_off", "time": 0, "note": 66, "velocity": 98, "channel": 0}, {"type": "note_off", "time": 224, "note": 65, "velocity": 98, "channel": 0}, {"type": "note_on", "time": 38, "note": 69, "velocity": 99, "channel": 0}, {"type": "note_off", "time": 194, "note": 69, "velocity": 99, "channel": 0}, {"type": "note_on", "time": 0, "note": 64, "velocity": 119, "channel": 0}, {"type": "note_on", "time": 210, "note": 67, "velocity": 97, "channel": 0}, {"type": "note_off", "time": 0, "note": 64, "velocity": 119, "channel": 0}, {"type": "note_off", "time": 292, "note": 67, "velocity": 97, "channel": 0}, {"type": "note_on", "time": 3, "note": 65, "velocity": 98, "channel": 0}, {"type": "note_off", "time": 293, "note": 65, "velocity": 98, "channel": 0}, {"type": "note_on", "time": 380, "note": 57, "velocity": 92, "channel": 0}, {"type": "note_off", "time": 240, "note": 57, "velocity": 92, "channel": 0}, {"type": "note_on", "time": 6, "note": 61, "velocity": 88, "channel": 0}, {"type": "note_off", "time": 220, "note": 61, "velocity": 88, "channel": 0}, {"type": "note_on", "time": 99, "note": 64, "velocity": 109, "channel": 0}, {"type": "note_off", "time": 225, "note": 64, "velocity": 109, "channel": 0}, {"type": "note_on", "time": 17, "note": 61, "velocity": 96, "channel": 0}, {"type": "note_off", "time": 216, "note": 61, "velocity": 96, "channel": 0}, {"type": "note_on", "time": 6, "note": 62, "velocity": 98, "channel": 0}, {"type": "note_off", "time": 162, "note": 62, "velocity": 98, "channel": 0}, {"type": "note_on", "time": 0, "note": 64, "velocity": 101, "channel": 0}, {"type": "note_off", "time": 174, "note": 64, "velocity": 101, "channel": 0}, {"type": "note_on", "time": 0, "note": 65, "velocity": 91, "channel": 0}, {"type": "note_off", "time": 119, "note": 65, "velocity": 91, "channel": 0}, {"type": "note_on", "time": 14, "note": 67, "velocity": 83, "channel": 0}, {"type": "note_off", "time": 144, "note": 67, "velocity": 83, "channel": 0}, {"type": "note_on", "time": 54, "note": 69, "velocity": 102, "channel": 0}, {"type": "note_off", "time": 244, "note": 69, "velocity": 102, "channel": 0}, {"type": "note_on", "time": 0, "note": 72, "velocity": 104, "channel": 0}, {"type": "note_off", "time": 214, "note": 72, "velocity": 104, "channel": 0}, {"type": "note_on", "time": 0, "note": 71, "velocity": 102, "channel": 0}, {"type": "note_off", "time": 235, "note": 71, "velocity": 102, "channel": 0}, {"type": "note_on", "time": 0, "note": 69, "velocity": 99, "channel": 0}, {"type": "note_off", "time": 218, "note": 69, "velocity": 99, "channel": 0}, {"type": "note_on", "time": 37, "note": 68, "velocity": 104, "channel": 0}, {"type": "note_off", "time": 192, "note": 68, "velocity": 104, "channel": 0}, {"type": "note_on", "time": 30, "note": 71, "velocity": 102, "channel": 0}, {"type": "note_off", "time": 197, "note": 71, "velocity": 102, "channel": 0}, {"type": "note_on", "time": 1, "note": 69, "velocity": 100, "channel": 0}, {"type": "note_off", "time": 202, "note": 69, "velocity": 100, "channel": 0}, {"type": "note_on", "time": 3, "note": 65, "velocity": 101, "channel": 0}, {"type": "note_off", "time": 191, "note": 65, "velocity": 101, "channel": 0}, {"type": "note_on", "time": 0, "note": 64, "velocity": 114, "channel": 0}, {"type": "note_off", "time": 189, "note": 64, "velocity": 114, "channel": 0}, {"type": "note_on", "time": 13, "note": 67, "velocity": 97, "channel": 0}, {"type": "note_off", "time": 192, "note": 67, "velocity": 97, "channel": 0}, {"type": "note_on", "time": 42, "note": 65, "velocity": 97, "channel": 0}, {"type": "note_off", "time": 117, "note": 65, "velocity": 97, "channel": 0}, {"type": "note_on", "time": 24, "note": 62, "velocity": 102, "channel": 0}, {"type": "note_off", "time": 129, "note": 62, "velocity": 102, "channel": 0}, {"type": "note_on", "time": 0, "note": 61, "velocity": 99, "channel": 0}, {"type": "note_off", "time": 183, "note": 61, "velocity": 99, "channel": 0}, {"type": "note_on", "time": 76, "note": 64, "velocity": 111, "channel": 0}, {"type": "note_off", "time": 219, "note": 64, "velocity": 111, "channel": 0}, {"type": "note_on", "time": 0, "note": 62, "velocity": 90, "channel": 0}, {"type": "note_off", "time": 219, "note": 62, "velocity": 90, "channel": 0}, {"type": "note_on", "time": 0, "note": 60, "velocity": 93, "channel": 0}, {"type": "note_off", "time": 191, "note": 60, "velocity": 93, "channel": 0}, {"type": "note_on", "time": 19, "note": 59, "velocity": 95, "channel": 0}, {"type": "note_off", "time": 212, "note": 59, "velocity": 95, "channel": 0}, {"type": "note_on", "time": 0, "note": 57, "velocity": 91, "channel": 0}, {"type": "note_off", "time": 210, "note": 57, "velocity": 91, "channel": 0}, {"type": "note_on", "time": 0, "note": 55, "velocity": 103, "channel": 0}, {"type": "note_on", "time": 191, "note": 54, "velocity": 93, "channel": 0}, {"type": "note_off", "time": 0, "note": 55, "velocity": 103, "channel": 0}, {"type": "note_off", "time": 241, "note": 54, "velocity": 93, "channel": 0}, {"type": "note_on", "time": 0, "note": 53, "velocity": 91, "channel": 0}, {"type": "note_off", "time": 267, "note": 53, "velocity": 91, "channel": 0}, {"type": "end_of_track", "time": 0}]]}