{"ticks_per_beat": 840, "tracks": [[{"type": "track_name", "name": "Melody", "time": 0}, {"type": "set_tempo", "tempo": 431654, "time": 0}, {"type": "key_signature", "key": "Db", "time": 0}, {"type": "time_signature", "numerator": 4, "denominator": 4, "clocks_per_click": 24, "notated_32nd_notes_per_beat": 8, "time": 0}, {"type": "note_on", "time": 20265, "note": 63, "velocity": 107, "channel": 0}, {"type": "note_off", "time": 361, "note": 63, "velocity": 107, "channel": 0}, {"type": "note_on", "time": 90, "note": 65, "velocity": 105, "channel": 0}, {"type": "note_off", "time": 530, "note": 65, "velocity": 105, "channel": 0}, {"type": "note_on", "time": 5, "note": 63, "velocity": 105, "channel": 0}, {"type": "note_off", "time": 485, "note": 63, "velocity": 105, "channel": 0}, {"type": "note_on", "time": 84, "note": 64, "velocity": 105, "channel": 0}, {"type": "note_off", "time": 158, "note": 64, "velocity": 105, "channel": 0}, {"type": "note_on", "time": 39, "note": 65, "velocity": 105, "channel": 0}, {"type": "note_off", "time": 1570, "note": 65, "velocity": 105, "channel": 0}, {"type": "note_on", "time": 56, "note": 63, "velocity": 113, "channel": 0}, {"type": "note_off", "time": 350, "note": 63, "velocity": 113, "channel": 0}, {"type": "note_on", "time": 79, "note": 65, "velocity": 104, "channel": 0}, {"type": "note_off", "time": 457, "note": 65, "velocity": 104, "channel": 0}, {"type": "note_on", "time": 79, "note": 63, "velocity": 116, "channel": 0}, {"type": "note_off", "time": 429, "note": 63, "velocity": 116, "channel": 0}, {"type": "note_on", "time": 66, "note": 66, "velocity": 106, "channel": 0}, {"type": "note_off", "time": 236, "note": 66, "velocity": 106, "channel": 0}, {"type": "note_on", "time": 37, "note": 70, "velocity": 112, "channel": 0}, {"type": "note_off", "time": 647, "note": 70, "velocity": 112, "channel": 0}, {"type": "note_on", "time": 73, "note": 70, "velocity": 98, "channel": 0}, {"type": "note_off", "time": 2745, "note": 70, "velocity": 98, "channel": 0}, {"type": "note_on", "time": 1385, "note": 69, "velocity": 108, "channel": 0}, {"type": "note_off", "time": 295, "note": 69, "velocity": 108, "channel": 0}, {"type": "note_on", "time": 19, "note": 72, "velocity": 121, "channel": 0}, {"type": "note_off", "time": 1152, "note": 72, "velocity": 121, "channel": 0}, {"type": "note_on", "time": 39, "note": 68, "velocity": 108, "channel": 0}, {"type": "note_off", "time": 259, "note": 68, "velocity": 108, "channel": 0}, {"type": "note_on", "time": 26, "note": 65, "velocity": 105, "channel": 0}, {"type": "note_off", "time": 196, "note": 65, "velocity": 105, "channel": 0}, {"type": "note_on", "time": 47, "note": 63, "velocity": 104, "channel": 0}, {"type": "note_off", "time": 1468, "note": 63, "velocity": 104, "channel": 0}, {"type": "note_on", "time": 1220, "note": 68, "velocity": 107, "channel": 0}, {"type": "note_off", "time": 220, "note": 68, "velocity": 107, "channel": 0}, {"type": "note_on", "time": 67, "note": 70, "velocity": 114, "channel": 0}, {"type": "note_off", "time": 254, "note": 70, "velocity": 114, "channel": 0}, {"type": "note_on", "time": 73, "note": 68, "velocity": 107, "channel": 0}, {"type": "note_off", "time": 259, "note": 68, "velocity": 107, "channel": 0}, {"type": "note_on", "time": 214, "note": 68, "velocity": 113, "channel": 0}, {"type": "note_off", "time": 142, "note": 68, "velocity": 113, "channel": 0}, {"type": "note_on", "time": 39, "note": 69, "velocity": 116, "channel": 0}, {"type": "note_off", "time": 385, "note": 69, "velocity": 116, "channel": 0}, {"type": "note_on", "time": 45, "note": 68, "velocity": 103, "channel": 0}, {"type": "note_off", "time": 387, "note": 68, "velocity": 103, "channel": 0}, {"type": "note_on", "time": 179, "note": 67, "velocity": 108, "channel": 0}, {"type": "note_off", "time": 530, "note": 67, "velocity": 108, "channel": 0}, {"type": "note_on", "time": 112, "note": 68, "velocity": 107, "channel": 0}, {"type": "note_off", "time": 547, "note": 68, "velocity": 107, "channel": 0}, {"type": "note_on", "time": 123, "note": 71, "velocity": 99, "channel": 0}, {"type": "note_off", "time": 289, "note": 71, "velocity": 99, "channel": 0}, {"type": "note_on", "time": 15, "note": 75, "velocity": 96, "channel": 0}, {"type": "note_off", "time": 1688, "note": 75, "velocity": 96, "channel": 0}, {"type": "note_on", "time": 1109, "note": 73, "velocity": 111, "channel": 0}, {"type": "note_off", "time": 261, "note": 73, "velocity": 111, "channel": 0}, {"type": "note_on", "time": 14, "note": 72, "velocity": 116, "channel": 0}, {"type": "note_off", "time": 197, "note": 72, "velocity": 116, "channel": 0}, {"type": "note_on", "time": 26, "note": 70, "velocity": 108, "channel": 0}, {"type": "note_off", "time": 264, "note": 70, "velocity": 108, "channel": 0}, {"type": "note_on", "time": 81, "note": 69, "velocity": 100, "channel": 0}, {"type": "note_off", "time": 1882, "note": 69, "velocity": 100, "channel": 0}, {"type": "note_on", "time": 65, "note": 67, "velocity": 101, "channel": 0}, {"type": "note_off", "time": 87, "note": 67, "velocity": 101, "channel": 0}, {"type": "note_on", "time": 22, "note": 66, "velocity": 100, "channel": 0}, {"type": "note_off", "time": 148, "note": 66, "velocity": 100, "channel": 0}, {"type": "note_on", "time": 28, "note": 64, "velocity": 106, "channel": 0}, {"type": "note_off", "time": 145, "note": 64, "velocity": 106, "channel": 0}, {"type": "note_on", "time": 18, "note": 63, "velocity": 99, "channel": 0}, {"type": "note_off", "time": 663, "note": 63, "velocity": 99, "channel": 0}, {"type": "note_on", "time": 21, "note": 61, "velocity": 97, "channel": 0}, {"type": "note_off", "time": 201, "note": 61, "velocity": 97, "channel": 0}, {"type": "note_on", "time": 14, "note": 63, "velocity": 105, "channel": 0}, {"type": "note_off", "time": 552, "note": 63, "velocity": 105, "channel": 0}, {"type": "note_on", "time": 127, "note": 58, "velocity": 93, "channel": 0}, {"type": "note_off", "time": 1169, "note": 58, "velocity": 93, "channel": 0}, {"type": "note_on", "time": 1605, "note": 72, "velocity": 115, "channel": 0}, {"type": "note_off", "time": 137, "note": 72, "velocity": 115, "channel": 0}, {"type": "note_on", "time": 27, "note": 73, "velocity": 116, "channel": 0}, {"type": "note_off", "time": 746, "note": 73, "velocity": 116, "channel": 0}, {"type": "note_on", "time": 35, "note": 71, "velocity": 119, "channel": 0}, {"type": "note_off", "time": 190, "note": 71, "velocity": 119, "channel": 0}, {"type": "note_on", "time": 31, "note": 70, "velocity": 112, "channel": 0}, {"type": "note_off", "time": 285, "note": 70, "velocity": 112, "channel": 0}, {"type": "note_on", "time": 222, "note": 70, "velocity": 110, "channel": 0}, {"type": "note_off", "time": 361, "note": 70, "velocity": 110, "channel": 0}, {"type": "note_on", "time": 131, "note": 66, "velocity": 103, "channel": 0}, {"type": "note_off", "time": 182, "note": 66, "velocity": 103, "channel": 0}, {"type": "note_on", "time": 226, "note": 66, "velocity": 107, "channel": 0}, {"type": "note_off", "time": 170, "note": 66, "velocity": 107, "channel": 0}, {"type": "note_on", "time": 139, "note": 73, "velocity": 104, "channel": 0}, {"type": "note_off", "time": 297, "note": 73, "velocity": 104, "channel": 0}, {"type": "note_on", "time": 146, "note": 63, "velocity": 107, "channel": 0}, {"type": "note_off", "time": 146, "note": 63, "velocity": 107, "channel": 0}, {"type": "note_on", "time": 50, "note": 65, "velocity": 98, "channel": 0}, {"type": "note_off", "time": 999, "note": 65, "velocity": 98, "channel": 0}, {"type": "note_on", "time": 96, "note": 65, "velocity": 92, "channel": 0}, {"type": "note_off", "time": 1310, "note": 65, "velocity": 92, "channel": 0}, {"type": "note_on", "time": 221, "note": 63, "velocity": 94, "channel": 0}, {"type": "note_off", "time": 138, "note": 63, "velocity": 94, "channel": 0}, {"type": "note_on", "time": 23, "note": 65, "velocity": 103, "channel": 0}, {"type": "note_off", "time": 125, "note": 65, "velocity": 103, "channel": 0}, {"type": "note_on", "time": 36, "note": 68, "velocity": 107, "channel": 0}, {"type": "note_off", "time": 142, "note": 68, "velocity": 107, "channel": 0}, {"type": "note_on", "time": 36, "note": 66, "velocity": 103, "channel": 0}, {"type": "note_off", "time": 155, "note": 66, "velocity": 103, "channel": 0}, {"type": "note_on", "time": 8, "note": 63, "velocity": 104, "channel": 0}, {"type": "note_off", "time": 166, "note": 63, "velocity": 104, "channel": 0}, {"type": "note_on", "time": 19, "note": 61, "velocity": 103, "channel": 0}, {"type": "note_off", "time": 165, "note": 61, "velocity": 103, "channel": 0}, {"type": "note_on", "time": 25, "note": 59, "velocity": 110, "channel": 0}, {"type": "note_off", "time": 200, "note": 59, "velocity": 110, "channel": 0}, {"type": "note_on", "time": 35, "note": 58, "velocity": 100, "channel": 0}, {"type": "note_off", "time": 122, "note": 58, "velocity": 100, "channel": 0}, {"type": "note_on", "time": 21, "note": 57, "velocity": 106, "channel": 0}, {"type": "note_off", "time": 256, "note": 57, "velocity": 106, "channel": 0}, {"type": "note_on", "time": 49, "note": 60, "velocity": 97, "channel": 0}, {"type": "note_off", "time": 56, "note": 60, "velocity": 97, "channel": 0}, {"type": "note_on", "time": 12, "note": 59, "velocity": 99, "channel": 0}, {"type": "note_off", "time": 98, "note": 59, "velocity": 99, "channel": 0}, {"type": "note_on", "time": 9, "note": 56, "velocity": 98, "channel": 0}, {"type": "note_off", "time": 226, "note": 56, "velocity": 98, "channel": 0}, {"type": "note_on", "time": 59, "note": 59, "velocity": 97, "channel": 0}, {"type": "note_off", "time": 131, "note": 59, "velocity": 97, "channel": 0}, {"type": "note_on", "time": 35, "note": 57, "velocity": 97, "channel": 0}, {"type": "note_off", "time": 111, "note": 57, "velocity": 97, "channel": 0}, {"type": "note_on", "time": 59, "note": 55, "velocity": 116, "channel": 0}, {"type": "note_off", "time": 119, "note": 55, "velocity": 116, "channel": 0}, {"type": "note_on", "time": 39, "note": 54, "velocity": 106, "channel": 0}, {"type": "note_off", "time": 142, "note": 54, "velocity": 106, "channel": 0}, {"type": "note_on", "time": 26, "note": 52, "velocity": 108, "channel": 0}, {"type": "note_off", "time": 124, "note": 52, "velocity": 108, "channel": 0}, {"type": "note_on", "time": 16, "note": 51, "velocity": 99, "channel": 0}, {"type": "note_off", "time": 331, "note": 51, "velocity": 99, "channel": 0}, {"type": "note_on", "time": 1615, "note": 61, "velocity": 104, "channel": 0}, {"type": "note_off", "time": 355, "note": 61, "velocity": 104, "channel": 0}, {"type": "note_on", "time": 31, "note": 63, "velocity": 112, "channel": 0}, {"type": "note_off", "time": 587, "note": 63, "velocity": 112, "channel": 0}, {"type": "note_on", "time": 23, "note": 65, "velocity": 103, "channel": 0}, {"type": "note_off", "time": 477, "note": 65, "velocity": 103, "channel": 0}, {"type": "note_on", "time": 176, "note": 66, "velocity": 103, "channel": 0}, {"type": "note_off", "time": 290, "note": 66, "velocity": 103, "channel": 0}, {"type": "note_on", "time": 31, "note": 68, "velocity": 104, "channel": 0}, {"type": "note_off", "time": 2222, "note": 68, "velocity": 104, "channel": 0}, {"type": "note_on", "time": 93, "note": 68, "velocity": 105, "channel": 0}, {"type": "note_off", "time": 321, "note": 68, "velocity": 105, "channel": 0}, {"type": "note_on", "time": 237, "note": 68, "velocity": 108, "channel": 0}, {"type": "note_off", "time": 242, "note": 68, "velocity": 108, "channel": 0}, {"type": "note_on", "time": 242, "note": 68, "velocity": 105, "channel": 0}, {"type": "note_off", "time": 254, "note": 68, "velocity": 105, "channel": 0}, {"type": "note_on", "time": 79, "note": 73, "velocity": 96, "channel": 0}, {"type": "note_off", "time": 1157, "note": 73, "velocity": 96, "channel": 0}, {"type": "note_on", "time": 214, "note": 68, "velocity": 95, "channel": 0}, {"type": "note_off", "time": 208, "note": 68, "velocity": 95, "channel": 0}, {"type": "note_on", "time": 118, "note": 63, "velocity": 98, "channel": 0}, {"type": "note_off", "time": 508, "note": 63, "velocity": 98, "channel": 0}, {"type": "note_on", "time": 141, "note": 63, "velocity": 98, "channel": 0}, {"type": "note_off", "time": 186, "note": 63, "velocity": 98, "channel": 0}, {"type": "note_on", "time": 22, "note": 65, "velocity": 91, "channel": 0}, {"type": "note_off", "time": 141, "note": 65, "velocity": 91, "channel": 0}, {"type": "note_on", "time": 84, "note": 61, "velocity": 97, "channel": 0}, {"type": "note_off", "time": 818, "note": 61, "velocity": 97, "channel": 0}, {"type": "note_on", "time": 1287, "note": 63, "velocity": 87, "channel": 0}, {"type": "note_off", "time": 96, "note": 63, "velocity": 87, "channel": 0}, {"type": "note_on", "time": 11, "note": 66, "velocity": 105, "channel": 0}, {"type": "note_off", "time": 587, "note": 66, "velocity": 105, "channel": 0}, {"type": "note_on", "time": 101, "note": 65, "velocity": 102, "channel": 0}, {"type": "note_off", "time": 96, "note": 65, "velocity": 102, "channel": 0}, {"type": "note_on", "time": 39, "note": 66, "velocity": 106, "channel": 0}, {"type": "note_off", "time": 610, "note": 66, "velocity": 106, "channel": 0}, {"type": "note_on", "time": 118, "note": 63, "velocity": 100, "channel": 0}, {"type": "note_off", "time": 1525, "note": 63, "velocity": 100, "channel": 0}, {"type": "note_on", "time": 141, "note": 65, "velocity": 96, "channel": 0}, {"type": "note_off", "time": 700, "note": 65, "velocity": 96, "channel": 0}, {"type": "note_on", "time": 67, "note": 63, "velocity": 105, "channel": 0}, {"type": "note_off", "time": 497, "note": 63, "velocity": 105, "channel": 0}, {"type": "note_on", "time": 124, "note": 65, "velocity": 89, "channel": 0}, {"type": "note_off", "time": 1378, "note": 65, "velocity": 89, "channel": 0}, {"type": "note_on", "time": 1135, "note": 63, "velocity": 114, "channel": 0}, {"type": "note_off", "time": 187, "note": 63, "velocity": 114, "channel": 0}, {"type": "note_on", "time": 11, "note": 65, "velocity": 113, "channel": 0}, {"type": "note_off", "time": 190, "note": 65, "velocity": 113, "channel": 0}, {"type": "note_on", "time": 10, "note": 63, "velocity": 117, "channel": 0}, {"type": "note_off", "time": 233, "note": 63, "velocity": 117, "channel": 0}, {"type": "note_on", "time": 24, "note": 62, "velocity": 114, "channel": 0}, {"type": "note_off", "time": 197, "note": 62, "velocity": 114, "channel": 0}, {"type": "note_on", "time": 4, "note": 63, "velocity": 117, "channel": 0}, {"type": "note_off", "time": 192, "note": 63, "velocity": 117, "channel": 0}, {"type": "note_on", "time": 5, "note": 66, "velocity": 101, "channel": 0}, {"type": "note_off", "time": 212, "note": 66, "velocity": 101, "channel": 0}, {"type": "note_on", "time": 15, "note": 70, "velocity": 116, "channel": 0}, {"type": "note_off", "time": 925, "note": 70, "velocity": 116, "channel": 0}, {"type": "note_on", "time": 19, "note": 70, "velocity": 114, "channel": 0}, {"type": "note_off", "time": 782, "note": 70, "velocity": 114, "channel": 0}, {"type": "note_on", "time": 196, "note": 66, "velocity": 96, "channel": 0}, {"type": "note_off", "time": 133, "note": 66, "velocity": 96, "channel": 0}, {"type": "note_on", "time": 5, "note": 70, "velocity": 104, "channel": 0}, {"type": "note_off", "time": 150, "note": 70, "velocity": 104, "channel": 0}, {"type": "note_on", "time": 65, "note": 70, "velocity": 112, "channel": 0}, {"type": "note_off", "time": 109, "note": 70, "velocity": 112, "channel": 0}, {"type": "note_on", "time": 5, "note": 73, "velocity": 116, "channel": 0}, {"type": "note_off", "time": 1020, "note": 73, "velocity": 116, "channel": 0}, {"type": "note_on", "time": 21, "note": 70, "velocity": 109, "channel": 0}, {"type": "note_off", "time": 158, "note": 70, "velocity": 109, "channel": 0}, {"type": "note_on", "time": 60, "note": 68, "velocity": 104, "channel": 0}, {"type": "note_off", "time": 162, "note": 68, "velocity": 104, "channel": 0}, {"type": "note_on", "time": 33, "note": 66, "velocity": 101, "channel": 0}, {"type": "note_off", "time": 152, "note": 66, "velocity": 101, "channel": 0}, {"type": "note_on", "time": 49, "note": 69, "velocity": 116, "channel": 0}, {"type": "note_off", "time": 178, "note": 69, "velocity": 116, "channel": 0}, {"type": "note_on", "time": 55, "note": 66, "velocity": 104, "channel": 0}, {"type": "note_off", "time": 237, "note": 66, "velocity": 104, "channel": 0}, {"type": "note_on", "time": 29, "note": 65, "velocity": 100, "channel": 0}, {"type": "note_off", "time": 73, "note": 65, "velocity": 100, "channel": 0}, {"type": "note_on", "time": 12, "note": 63, "velocity": 98, "channel": 0}, {"type": "note_off", "time": 201, "note": 63, "velocity": 98, "channel": 0}, {"type": "note_on", "time": 37, "note": 68, "velocity": 109, "channel": 0}, {"type": "note_off", "time": 201, "note": 68, "velocity": 109, "channel": 0}, {"type": "note_on", "time": 27, "note": 66, "velocity": 104, "channel": 0}, {"type": "note_off", "time": 164, "note": 66, "velocity": 104, "channel": 0}, {"type": "note_on", "time": 27, "note": 63, "velocity": 109, "channel": 0}, {"type": "note_off", "time": 201, "note": 63, "velocity": 109, "channel": 0}, {"type": "note_on", "time": 43, "note": 61, "velocity": 98, "channel": 0}, {"type": "note_off", "time": 184, "note": 61, "velocity": 98, "channel": 0}, {"type": "note_on", "time": 26, "note": 65, "velocity": 104, "channel": 0}, {"type": "note_off", "time": 226, "note": 65, "velocity": 104, "channel": 0}, {"type": "note_on", "time": 36, "note": 60, "velocity": 108, "channel": 0}, {"type": "note_off", "time": 208, "note": 60, "velocity": 108, "channel": 0}, {"type": "note_on", "time": 1622, "note": 68, "velocity": 111, "channel": 0}, {"type": "note_off", "time": 313, "note": 68, "velocity": 111, "channel": 0}, {"type": "note_on", "time": 244, "note": 69, "velocity": 114, "channel": 0}, {"type": "note_off", "time": 99, "note": 69, "velocity": 114, "channel": 0}, {"type": "note_on", "time": 23, "note": 70, "velocity": 114, "channel": 0}, {"type": "note_off", "time": 442, "note": 70, "velocity": 114, "channel": 0}, {"type": "note_on", "time": 34, "note": 68, "velocity": 106, "channel": 0}, {"type": "note_off", "time": 330, "note": 68, "velocity": 106, "channel": 0}, {"type": "note_on", "time": 253, "note": 68, "velocity": 113, "channel": 0}, {"type": "note_off", "time": 90, "note": 68, "velocity": 113, "channel": 0}, {"type": "note_on", "time": 6, "note": 69, "velocity": 111, "channel": 0}, {"type": "note_off", "time": 570, "note": 69, "velocity": 111, "channel": 0}, {"type": "note_on", "time": 59, "note": 68, "velocity": 107, "channel": 0}, {"type": "note_off", "time": 824, "note": 68, "velocity": 107, "channel": 0}, {"type": "note_on", "time": 67, "note": 67, "velocity": 102, "channel": 0}, {"type": "note_off", "time": 660, "note": 67, "velocity": 102, "channel": 0}, {"type": "note_on", "time": 27, "note": 68, "velocity": 106, "channel": 0}, {"type": "note_off", "time": 510, "note": 68, "velocity": 106, "channel": 0}, {"type": "note_on", "time": 325, "note": 75, "velocity": 111, "channel": 0}, {"type": "note_off", "time": 127, "note": 75, "velocity": 111, "channel": 0}, {"type": "note_on", "time": 0, "note": 77, "velocity": 103, "channel": 0}, {"type": "note_off", "time": 645, "note": 77, "velocity": 103, "channel": 0}, {"type": "note_on", "time": 92, "note": 72, "velocity": 109, "channel": 0}, {"type": "note_off", "time": 208, "note": 72, "velocity": 109, "channel": 0}, {"type": "note_on", "time": 311, "note": 75, "velocity": 114, "channel": 0}, {"type": "note_off", "time": 310, "note": 75, "velocity": 114, "channel": 0}, {"type": "note_on", "time": 15, "note": 72, "velocity": 110, "channel": 0}, {"type": "note_off", "time": 824, "note": 72, "velocity": 110, "channel": 0}, {"type": "note_on", "time": 135, "note": 68, "velocity": 106, "channel": 0}, {"type": "note_off", "time": 231, "note": 68, "velocity": 106, "channel": 0}, {"type": "note_on", "time": 28, "note": 72, "velocity": 111, "channel": 0}, {"type": "note_off", "time": 197, "note": 72, "velocity": 111, "channel": 0}, {"type": "note_on", "time": 16, "note": 68, "velocity": 106, "channel": 0}, {"type": "note_off", "time": 208, "note": 68, "velocity": 106, "channel": 0}, {"type": "note_on", "time": 22, "note": 65, "velocity": 99, "channel": 0}, {"type": "note_off", "time": 203, "note": 65, "velocity": 99, "channel": 0}, {"type": "note_on", "time": 956, "note": 57, "velocity": 104, "channel": 0}, {"type": "note_off", "time": 115, "note": 57, "velocity": 104, "channel": 0}, {"type": "note_on", "time": 64, "note": 59, "velocity": 100, "channel": 0}, {"type": "note_off", "time": 119, "note": 59, "velocity": 100, "channel": 0}, {"type": "note_on", "time": 39, "note": 61, "velocity": 102, "channel": 0}, {"type": "note_off", "time": 179, "note": 61, "velocity": 102, "channel": 0}, {"type": "note_on", "time": 15, "note": 62, "velocity": 105, "channel": 0}, {"type": "note_off", "time": 109, "note": 62, "velocity": 105, "channel": 0}, {"type": "note_on", "time": 0, "note": 64, "velocity": 108, "channel": 0}, {"type": "note_off", "time": 93, "note": 64, "velocity": 108, "channel": 0}, {"type": "note_on", "time": 14, "note": 66, "velocity": 105, "channel": 0}, {"type": "note_off", "time": 114, "note": 66, "velocity": 105, "channel": 0}, {"type": "note_on", "time": 18, "note": 67, "velocity": 102, "channel": 0}, {"type": "note_off", "time": 107, "note": 67, "velocity": 102, "channel": 0}, {"type": "note_on", "time": 15, "note": 69, "velocity": 105, "channel": 0}, {"type": "note_off", "time": 113, "note": 69, "velocity": 105, "channel": 0}, {"type": "note_on", "time": 11, "note": 71, "velocity": 112, "channel": 0}, {"type": "note_off", "time": 131, "note": 71, "velocity": 112, "channel": 0}, {"type": "note_on", "time": 10, "note": 69, "velocity": 109, "channel": 0}, {"type": "note_off", "time": 59, "note": 69, "velocity": 109, "channel": 0}, {"type": "note_on", "time": 11, "note": 67, "velocity": 100, "channel": 0}, {"type": "note_off", "time": 159, "note": 67, "velocity": 100, "channel": 0}, {"type": "note_on", "time": 41, "note": 64, "velocity": 101, "channel": 0}, {"type": "note_off", "time": 103, "note": 64, "velocity": 101, "channel": 0}, {"type": "note_on", "time": 12, "note": 62, "velocity": 109, "channel": 0}, {"type": "note_off", "time": 132, "note": 62, "velocity": 109, "channel": 0}, {"type": "note_on", "time": 9, "note": 61, "velocity": 103, "channel": 0}, {"type": "note_off", "time": 113, "note": 61, "velocity": 103, "channel": 0}, {"type": "note_on", "time": 4, "note": 59, "velocity": 103, "channel": 0}, {"type": "note_off", "time": 178, "note": 59, "velocity": 103, "channel": 0}, {"type": "note_on", "time": 12, "note": 57, "velocity": 102, "channel": 0}, {"type": "note_off", "time": 84, "note": 57, "velocity": 102, "channel": 0}, {"type": "note_on", "time": 8, "note": 56, "velocity": 101, "channel": 0}, {"type": "note_off", "time": 143, "note": 56, "velocity": 101, "channel": 0}, {"type": "note_on", "time": 33, "note": 55, "velocity": 98, "channel": 0}, {"type": "note_off", "time": 218, "note": 55, "velocity": 98, "channel": 0}, {"type": "note_on", "time": 1304, "note": 63, "velocity": 115, "channel": 0}, {"type": "note_off", "time": 332, "note": 63, "velocity": 115, "channel": 0}, {"type": "note_on", "time": 5, "note": 73, "velocity": 115, "channel": 0}, {"type": "note_off", "time": 325, "note": 73, "velocity": 115, "channel": 0}, {"type": "note_on", "time": 180, "note": 73, "velocity": 111, "channel": 0}, {"type": "note_off", "time": 334, "note": 73, "velocity": 111, "channel": 0}, {"type": "note_on", "time": 16, "note": 72, "velocity": 115, "channel": 0}, {"type": "note_off", "time": 88, "note": 72, "velocity": 115, "channel": 0}, {"type": "note_on", "time": 9, "note": 71, "velocity": 119, "channel": 0}, {"type": "note_off", "time": 117, "note": 71, "velocity": 119, "channel": 0}, {"type": "note_on", "time": 6, "note": 70, "velocity": 116, "channel": 0}, {"type": "note_off", "time": 266, "note": 70, "velocity": 116, "channel": 0}, {"type": "note_on", "time": 169, "note": 70, "velocity": 110, "channel": 0}, {"type": "note_off", "time": 1624, "note": 70, "velocity": 110, "channel": 0}, {"type": "note_on", "time": 21, "note": 66, "velocity": 102, "channel": 0}, {"type": "note_off", "time": 226, "note": 66, "velocity": 102, "channel": 0}, {"type": "note_on", "time": 226, "note": 73, "velocity": 111, "channel": 0}, {"type": "note_off", "time": 683, "note": 73, "velocity": 111, "channel": 0}, {"type": "note_on", "time": 15, "note": 72, "velocity": 110, "channel": 0}, {"type": "note_off", "time": 87, "note": 72, "velocity": 110, "channel": 0}, {"type": "note_on", "time": 47, "note": 73, "velocity": 109, "channel": 0}, {"type": "note_off", "time": 305, "note": 73, "velocity": 109, "channel": 0}, {"type": "note_on", "time": 91, "note": 64, "velocity": 112, "channel": 0}, {"type": "note_off", "time": 186, "note": 64, "velocity": 112, "channel": 0}, {"type": "note_on", "time": 43, "note": 65, "velocity": 95, "channel": 0}, {"type": "note_off", "time": 1552, "note": 65, "velocity": 95, "channel": 0}, {"type": "note_on", "time": 860, "note": 66, "velocity": 109, "channel": 0}, {"type": "note_off", "time": 121, "note": 66, "velocity": 109, "channel": 0}, {"type": "note_on", "time": 47, "note": 68, "velocity": 105, "channel": 0}, {"type": "note_off", "time": 138, "note": 68, "velocity": 105, "channel": 0}, {"type": "note_on", "time": 42, "note": 70, "velocity": 105, "channel": 0}, {"type": "note_off", "time": 135, "note": 70, "velocity": 105, "channel": 0}, {"type": "note_on", "time": 31, "note": 73, "velocity": 112, "channel": 0}, {"type": "note_off", "time": 172, "note": 73, "velocity": 112, "channel": 0}, {"type": "note_on", "time": 33, "note": 74, "velocity": 101, "channel": 0}, {"type": "note_off", "time": 211, "note": 74, "velocity": 101, "channel": 0}, {"type": "note_on", "time": 4, "note": 71, "velocity": 98, "channel": 0}, {"type": "note_off", "time": 200, "note": 71, "velocity": 98, "channel": 0}, {"type": "note_on", "time": 6, "note": 69, "velocity": 110, "channel": 0}, {"type": "note_off", "time": 550, "note": 69, "velocity": 110, "channel": 0}, {"type": "note_on", "time": 79, "note": 68, "velocity": 105, "channel": 0}, {"type": "note_off", "time": 200, "note": 68, "velocity": 105, "channel": 0}, {"type": "note_on", "time": 55, "note": 67, "velocity": 105, "channel": 0}, {"type": "note_off", "time": 180, "note": 67, "velocity": 105, "channel": 0}, {"type": "note_on", "time": 17, "note": 71, "velocity": 115, "channel": 0}, {"type": "note_off", "time": 169, "note": 71, "velocity": 115, "channel": 0}, {"type": "note_on", "time": 33, "note": 69, "velocity": 109, "channel": 0}, {"type": "note_off", "time": 158, "note": 69, "velocity": 109, "channel": 0}, {"type": "note_on", "time": 45, "note": 67, "velocity": 105, "channel": 0}, {"type": "note_off", "time": 198, "note": 67, "velocity": 105, "channel": 0}, {"type": "note_on", "time": 13, "note": 66, "velocity": 106, "channel": 0}, {"type": "note_off", "time": 234, "note": 66, "velocity": 106, "channel": 0}, {"type": "note_on", "time": 0, "note": 69, "velocity": 109, "channel": 0}, {"type": "note_off", "time": 223, "note": 69, "velocity": 109, "channel": 0}, {"type": "note_on", "time": 6, "note": 65, "velocity": 103, "channel": 0}, {"type": "note_off", "time": 164, "note": 65, "velocity": 103, "channel": 0}, {"type": "note_on", "time": 16, "note": 64, "velocity": 110, "channel": 0}, {"type": "note_off", "time": 166, "note": 64, "velocity": 110, "channel": 0}, {"type": "note_on", "time": 14, "note": 63, "velocity": 113, "channel": 0}, {"type": "note_off", "time": 261, "note": 63, "velocity": 113, "channel": 0}, {"type": "note_on", "time": 7, "note": 65, "velocity": 101, "channel": 0}, {"type": "note_off", "time": 187, "note": 65, "velocity": 101, "channel": 0}, {"type": "note_on", "time": 12, "note": 60, "velocity": 100, "channel": 0}, {"type": "note_off", "time": 180, "note": 60, "velocity": 100, "channel": 0}, {"type": "note_on", "time": 23, "note": 63, "velocity": 106, "channel": 0}, {"type": "note_off", "time": 217, "note": 63, "velocity": 106, "channel": 0}, {"type": "note_on", "time": 13, "note": 62, "velocity": 102, "channel": 0}, {"type": "note_off", "time": 264, "note": 62, "velocity": 102, "channel": 0}, {"type": "note_on", "time": 1783, "note": 61, "velocity": 113, "channel": 0}, {"type": "note_off", "time": 186, "note": 61, "velocity": 113, "channel": 0}, {"type": "note_on", "time": 22, "note": 63, "velocity": 116, "channel": 0}, {"type": "note_off", "time": 234, "note": 63, "velocity": 116, "channel": 0}, {"type": "note_on", "time": 47, "note": 65, "velocity": 107, "channel": 0}, {"type": "note_off", "time": 119, "note": 65, "velocity": 107, "channel": 0}, {"type": "note_on", "time": 217, "note": 68, "velocity": 9, "channel": 0}, {"type": "note_off", "time": 1596, "note": 68, "velocity": 9, "channel": 0}, {"type": "note_on", "time": 65, "note": 68, "velocity": 112, "channel": 0}, {"type": "note_off", "time": 441, "note": 68, "velocity": 112, "channel": 0}, {"type": "note_on", "time": 128, "note": 68, "velocity": 113, "channel": 0}, {"type": "note_off", "time": 942, "note": 68, "velocity": 113, "channel": 0}, {"type": "note_on", "time": 10, "note": 73, "velocity": 110, "channel": 0}, {"type": "note_off", "time": 385, "note": 73, "velocity": 110, "channel": 0}, {"type": "note_on", "time": 26, "note": 68, "velocity": 108, "channel": 0}, {"type": "note_off", "time": 872, "note": 68, "velocity": 108, "channel": 0}, {"type": "note_on", "time": 18, "note": 63, "velocity": 112, "channel": 0}, {"type": "note_off", "time": 381, "note": 63, "velocity": 112, "channel": 0}, {"type": "note_on", "time": 186, "note": 63, "velocity": 103, "channel": 0}, {"type": "note_off", "time": 385, "note": 63, "velocity": 103, "channel": 0}, {"type": "note_on", "time": 170, "note": 63, "velocity": 105, "channel": 0}, {"type": "note_off", "time": 357, "note": 63, "velocity": 105, "channel": 0}, {"type": "note_on", "time": 71, "note": 65, "velocity": 88, "channel": 0}, {"type": "note_off", "time": 563, "note": 65, "velocity": 88, "channel": 0}, {"type": "note_on", "time": 83, "note": 61, "velocity": 95, "channel": 0}, {"type": "note_off", "time": 830, "note": 61, "velocity": 95, "channel": 0}, {"type": "note_on", "time": 4385, "note": 62, "velocity": 112, "channel": 0}, {"type": "note_off", "time": 237, "note": 62, "velocity": 112, "channel": 0}, {"type": "note_on", "time": 67, "note": 64, "velocity": 118, "channel": 0}, {"type": "note_off", "time": 488, "note": 64, "velocity": 118, "channel": 0}, {"type": "note_on", "time": 51, "note": 66, "velocity": 113, "channel": 0}, {"type": "note_off", "time": 742, "note": 66, "velocity": 113, "channel": 0}, {"type": "note_on", "time": 76, "note": 67, "velocity": 108, "channel": 0}, {"type": "note_off", "time": 194, "note": 67, "velocity": 108, "channel": 0}, {"type": "note_on", "time": 11, "note": 69, "velocity": 110, "channel": 0}, {"type": "note_off", "time": 595, "note": 69, "velocity": 110, "channel": 0}, {"type": "note_on", "time": 63, "note": 69, "velocity": 107, "channel": 0}, {"type": "note_off", "time": 2458, "note": 69, "velocity": 107, "channel": 0}, {"type": "note_on", "time": 123, "note": 69, "velocity": 110, "channel": 0}, {"type": "note_off", "time": 337, "note": 69, "velocity": 110, "channel": 0}, {"type": "note_on", "time": 130, "note": 71, "velocity": 102, "channel": 0}, {"type": "note_off", "time": 214, "note": 71, "velocity": 102, "channel": 0}, {"type": "note_on", "time": 5, "note": 74, "velocity": 109, "channel": 0}, {"type": "note_off", "time": 1078, "note": 74, "velocity": 109, "channel": 0}, {"type": "note_on", "time": 28, "note": 74, "velocity": 109, "channel": 0}, {"type": "note_off", "time": 444, "note": 74, "velocity": 109, "channel": 0}, {"type": "note_on", "time": 148, "note": 74, "velocity": 105, "channel": 0}, {"type": "note_off", "time": 1025, "note": 74, "velocity": 105, "channel": 0}, {"type": "note_on", "time": 73, "note": 69, "velocity": 98, "channel": 0}, {"type": "note_off", "time": 1612, "note": 69, "velocity": 98, "channel": 0}, {"type": "note_on", "time": 1556, "note": 69, "velocity": 106, "channel": 0}, {"type": "note_off", "time": 245, "note": 69, "velocity": 106, "channel": 0}, {"type": "note_on", "time": 40, "note": 67, "velocity": 109, "channel": 0}, {"type": "note_off", "time": 176, "note": 67, "velocity": 109, "channel": 0}, {"type": "note_on", "time": 67, "note": 66, "velocity": 107, "channel": 0}, {"type": "note_off", "time": 199, "note": 66, "velocity": 107, "channel": 0}, {"type": "note_on", "time": 3, "note": 69, "velocity": 108, "channel": 0}, {"type": "note_off", "time": 1407, "note": 69, "velocity": 108, "channel": 0}, {"type": "note_on", "time": 47, "note": 65, "velocity": 100, "channel": 0}, {"type": "note_off", "time": 208, "note": 65, "velocity": 100, "channel": 0}, {"type": "note_on", "time": 73, "note": 69, "velocity": 104, "channel": 0}, {"type": "note_off", "time": 1174, "note": 69, "velocity": 104, "channel": 0}, {"type": "note_on", "time": 246, "note": 65, "velocity": 97, "channel": 0}, {"type": "note_off", "time": 393, "note": 65, "velocity": 97, "channel": 0}, {"type": "note_on", "time": 17, "note": 62, "velocity": 104, "channel": 0}, {"type": "note_off", "time": 669, "note": 62, "velocity": 104, "channel": 0}, {"type": "note_on", "time": 3, "note": 65, "velocity": 94, "channel": 0}, {"type": "note_off", "time": 252, "note": 65, "velocity": 94, "channel": 0}, {"type": "note_on", "time": 45, "note": 63, "velocity": 104, "channel": 0}, {"type": "note_off", "time": 389, "note": 63, "velocity": 104, "channel": 0}, {"type": "note_on", "time": 270, "note": 63, "velocity": 103, "channel": 0}, {"type": "note_off", "time": 849, "note": 63, "velocity": 103, "channel": 0}, {"type": "note_on", "time": 13, "note": 61, "velocity": 103, "channel": 0}, {"type": "note_off", "time": 329, "note": 61, "velocity": 103, "channel": 0}, {"type": "note_on", "time": 73, "note": 58, "velocity": 95, "channel": 0}, {"type": "note_off", "time": 1100, "note": 58, "velocity": 95, "channel": 0}, {"type": "note_on", "time": 40, "note": 54, "velocity": 97, "channel": 0}, {"type": "note_off", "time": 166, "note": 54, "velocity": 97, "channel": 0}, {"type": "note_on", "time": 194, "note": 57, "velocity": 105, "channel": 0}, {"type": "note_off", "time": 66, "note": 57, "velocity": 105, "channel": 0}, {"type": "note_on", "time": 12, "note": 58, "velocity": 108, "channel": 0}, {"type": "note_off", "time": 96, "note": 58, "velocity": 108, "channel": 0}, {"type": "note_on", "time": 26, "note": 57, "velocity": 99, "channel": 0}, {"type": "note_off", "time": 101, "note": 57, "velocity": 99, "channel": 0}, {"type": "note_on", "time": 13, "note": 56, "velocity": 105, "channel": 0}, {"type": "note_off", "time": 251, "note": 56, "velocity": 105, "channel": 0}, {"type": "note_on", "time": 45, "note": 55, "velocity": 95, "channel": 0}, {"type": "note_off", "time": 179, "note": 55, "velocity": 95, "channel": 0}, {"type": "note_on", "time": 41, "note": 59, "velocity": 103, "channel": 0}, {"type": "note_off", "time": 160, "note": 59, "velocity": 103, "channel": 0}, {"type": "note_on", "time": 11, "note": 57, "velocity": 101, "channel": 0}, {"type": "note_off", "time": 229, "note": 57, "velocity": 101, "channel": 0}, {"type": "note_on", "time": 13, "note": 54, "velocity": 97, "channel": 0}, {"type": "note_off", "time": 177, "note": 54, "velocity": 97, "channel": 0}, {"type": "note_on", "time": 0, "note": 52, "velocity": 99, "channel": 0}, {"type": "note_off", "time": 242, "note": 52, "velocity": 99, "channel": 0}, {"type": "note_on", "time": 221, "note": 54, "velocity": 100, "channel": 0}, {"type": "note_off", "time": 486, "note": 54, "velocity": 100, "channel": 0}, {"type": "note_on", "time": 286, "note": 55, "velocity": 98, "channel": 0}, {"type": "note_off", "time": 228, "note": 55, "velocity": 98, "channel": 0}, {"type": "note_on", "time": 33, "note": 52, "velocity": 87, "channel": 0}, {"type": "note_off", "time": 121, "note": 52, "velocity": 87, "channel": 0}, {"type": "note_on", "time": 48, "note": 56, "velocity": 107, "channel": 0}, {"type": "note_off", "time": 223, "note": 56, "velocity": 107, "channel": 0}, {"type": "note_on", "time": 42, "note": 52, "velocity": 100, "channel": 0}, {"type": "note_off", "time": 144, "note": 52, "velocity": 100, "channel": 0}, {"type": "note_on", "time": 14, "note": 57, "velocity": 106, "channel": 0}, {"type": "note_off", "time": 240, "note": 57, "velocity": 106, "channel": 0}, {"type": "note_on", "time": 25, "note": 54, "velocity": 105, "channel": 0}, {"type": "note_off", "time": 121, "note": 54, "velocity": 105, "channel": 0}, {"type": "note_on", "time": 24, "note": 50, "velocity": 110, "channel": 0}, {"type": "note_off", "time": 214, "note": 50, "velocity": 110, "channel": 0}, {"type": "note_on", "time": 49, "note": 48, "velocity": 109, "channel": 0}, {"type": "note_off", "time": 135, "note": 48, "velocity": 109, "channel": 0}, {"type": "note_on", "time": 0, "note": 54, "velocity": 104, "channel": 0}, {"type": "note_off", "time": 201, "note": 54, "velocity": 104, "channel": 0}, {"type": "note_on", "time": 9, "note": 57, "velocity": 102, "channel": 0}, {"type": "note_off", "time": 245, "note": 57, "velocity": 102, "channel": 0}, {"type": "note_on", "time": 1677, "note": 62, "velocity": 110, "channel": 0}, {"type": "note_off", "time": 251, "note": 62, "velocity": 110, "channel": 0}, {"type": "note_on", "time": 28, "note": 64, "velocity": 110, "channel": 0}, {"type": "note_off", "time": 115, "note": 64, "velocity": 110, "channel": 0}, {"type": "note_on", "time": 11, "note": 65, "velocity": 110, "channel": 0}, {"type": "note_off", "time": 672, "note": 65, "velocity": 110, "channel": 0}, {"type": "note_on", "time": 28, "note": 67, "velocity": 111, "channel": 0}, {"type": "note_off", "time": 549, "note": 67, "velocity": 111, "channel": 0}, {"type": "note_on", "time": 108, "note": 68, "velocity": 116, "channel": 0}, {"type": "note_off", "time": 488, "note": 68, "velocity": 116, "channel": 0}, {"type": "note_on", "time": 15, "note": 67, "velocity": 110, "channel": 0}, {"type": "note_off", "time": 327, "note": 67, "velocity": 110, "channel": 0}, {"type": "note_on", "time": 18, "note": 68, "velocity": 111, "channel": 0}, {"type": "note_off", "time": 101, "note": 68, "velocity": 111, "channel": 0}, {"type": "note_on", "time": 22, "note": 70, "velocity": 107, "channel": 0}, {"type": "note_off", "time": 1621, "note": 70, "velocity": 107, "channel": 0}, {"type": "note_on", "time": 117, "note": 69, "velocity": 110, "channel": 0}, {"type": "note_off", "time": 186, "note": 69, "velocity": 110, "channel": 0}, {"type": "note_on", "time": 21, "note": 68, "velocity": 108, "channel": 0}, {"type": "note_off", "time": 172, "note": 68, "velocity": 108, "channel": 0}, {"type": "note_on", "time": 30, "note": 65, "velocity": 102, "channel": 0}, {"type": "note_off", "time": 206, "note": 65, "velocity": 102, "channel": 0}, {"type": "note_on", "time": 25, "note": 63, "velocity": 110, "channel": 0}, {"type": "note_off", "time": 358, "note": 63, "velocity": 110, "channel": 0}, {"type": "note_on", "time": 55, "note": 62, "velocity": 108, "channel": 0}, {"type": "note_off", "time": 188, "note": 62, "velocity": 108, "channel": 0}, {"type": "note_on", "time": 7, "note": 61, "velocity": 101, "channel": 0}, {"type": "note_off", "time": 141, "note": 61, "velocity": 101, "channel": 0}, {"type": "note_on", "time": 36, "note": 60, "velocity": 99, "channel": 0}, {"type": "note_off", "time": 186, "note": 60, "velocity": 99, "channel": 0}, {"type": "note_on", "time": 10, "note": 59, "velocity": 101, "channel": 0}, {"type": "note_off", "time": 208, "note": 59, "velocity": 101, "channel": 0}, {"type": "note_on", "time": 9, "note": 56, "velocity": 101, "channel": 0}, {"type": "note_off", "time": 208, "note": 56, "velocity": 101, "channel": 0}, {"type": "note_on", "time": 10, "note": 55, "velocity": 98, "channel": 0}, {"type": "note_off", "time": 175, "note": 55, "velocity": 98, "channel": 0}, {"type": "note_on", "time": 10, "note": 57, "velocity": 99, "channel": 0}, {"type": "note_off", "time": 172, "note": 57, "velocity": 99, "channel": 0}, {"type": "note_on", "time": 6, "note": 59, "velocity": 99, "channel": 0}, {"type": "note_off", "time": 156, "note": 59, "velocity": 99, "channel": 0}, {"type": "note_on", "time": 8, "note": 62, "velocity": 109, "channel": 0}, {"type": "note_off", "time": 194, "note": 62, "velocity": 109, "channel": 0}, {"type": "note_on", "time": 33, "note": 68, "velocity": 105, "channel": 0}, {"type": "note_off", "time": 200, "note": 68, "velocity": 105, "channel": 0}, {"type": "note_on", "time": 32, "note": 67, "velocity": 102, "channel": 0}, {"type": "note_off", "time": 232, "note": 67, "velocity": 102, "channel": 0}, {"type": "note_on", "time": 233, "note": 67, "velocity": 102, "channel": 0}, {"type": "note_off", "time": 135, "note": 67, "velocity": 102, "channel": 0}, {"type": "note_on", "time": 11, "note": 71, "velocity": 115, "channel": 0}, {"type": "note_off", "time": 225, "note": 71, "velocity": 115, "channel": 0}, {"type": "note_on", "time": 223, "note": 67, "velocity": 108, "channel": 0}, {"type": "note_off", "time": 131, "note": 67, "velocity": 108, "channel": 0}, {"type": "note_on", "time": 28, "note": 64, "velocity": 111, "channel": 0}, {"type": "note_off", "time": 208, "note": 64, "velocity": 111, "channel": 0}, {"type": "note_on", "time": 8, "note": 62, "velocity": 107, "channel": 0}, {"type": "note_off", "time": 103, "note": 62, "velocity": 107, "channel": 0}, {"type": "note_on", "time": 20, "note": 60, "velocity": 95, "channel": 0}, {"type": "note_off", "time": 567, "note": 60, "velocity": 95, "channel": 0}, {"type": "note_on", "time": 85, "note": 58, "velocity": 100, "channel": 0}, {"type": "note_off", "time": 100, "note": 58, "velocity": 100, "channel": 0}, {"type": "note_on", "time": 8, "note": 63, "velocity": 108, "channel": 0}, {"type": "note_off", "time": 244, "note": 63, "velocity": 108, "channel": 0}, {"type": "note_on", "time": 5, "note": 61, "velocity": 105, "channel": 0}, {"type": "note_off", "time": 165, "note": 61, "velocity": 105, "channel": 0}, {"type": "note_on", "time": 11, "note": 58, "velocity": 105, "channel": 0}, {"type": "note_off", "time": 219, "note": 58, "velocity": 105, "channel": 0}, {"type": "note_on", "time": 35, "note": 53, "velocity": 91, "channel": 0}, {"type": "note_off", "time": 151, "note": 53, "velocity": 91, "channel": 0}, {"type": "note_on", "time": 41, "note": 56, "velocity": 98, "channel": 0}, {"type": "note_off", "time": 183, "note": 56, "velocity": 98, "channel": 0}, {"type": "note_on", "time": 42, "note": 53, "velocity": 90, "channel": 0}, {"type": "note_off", "time": 139, "note": 53, "velocity": 90, "channel": 0}, {"type": "note_on", "time": 12, "note": 55, "velocity": 102, "channel": 0}, {"type": "note_off", "time": 129, "note": 55, "velocity": 102, "channel": 0}, {"type": "note_on", "time": 12, "note": 60, "velocity": 103, "channel": 0}, {"type": "note_off", "time": 186, "note": 60, "velocity": 103, "channel": 0}, {"type": "note_on", "time": 21, "note": 57, "velocity": 94, "channel": 0}, {"type": "note_off", "time": 93, "note": 57, "velocity": 94, "channel": 0}, {"type": "note_on", "time": 4, "note": 58, "velocity": 98, "channel": 0}, {"type": "note_off", "time": 113, "note": 58, "velocity": 98, "channel": 0}, {"type": "note_on", "time": 18, "note": 61, "velocity": 103, "channel": 0}, {"type": "note_off", "time": 175, "note": 61, "velocity": 103, "channel": 0}, {"type": "note_on", "time": 25, "note": 65, "velocity": 102, "channel": 0}, {"type": "note_off", "time": 138, "note": 65, "velocity": 102, "channel": 0}, {"type": "note_on", "time": 87, "note": 68, "velocity": 109, "channel": 0}, {"type": "note_off", "time": 152, "note": 68, "velocity": 109, "channel": 0}, {"type": "note_on", "time": 70, "note": 63, "velocity": 110, "channel": 0}, {"type": "note_off", "time": 192, "note": 63, "velocity": 110, "channel": 0}, {"type": "note_on", "time": 14, "note": 65, "velocity": 102, "channel": 0}, {"type": "note_off", "time": 149, "note": 65, "velocity": 102, "channel": 0}, {"type": "note_on", "time": 56, "note": 67, "velocity": 103, "channel": 0}, {"type": "note_off", "time": 127, "note": 67, "velocity": 103, "channel": 0}, {"type": "note_on", "time": 35, "note": 68, "velocity": 107, "channel": 0}, {"type": "note_off", "time": 172, "note": 68, "velocity": 107, "channel": 0}, {"type": "note_on", "time": 1, "note": 63, "velocity": 107, "channel": 0}, {"type": "note_off", "time": 197, "note": 63, "velocity": 107, "channel": 0}, {"type": "note_on", "time": 22, "note": 61, "velocity": 103, "channel": 0}, {"type": "note_off", "time": 155, "note": 61, "velocity": 103, "channel": 0}, {"type": "note_on", "time": 28, "note": 60, "velocity": 94, "channel": 0}, {"type": "note_off", "time": 175, "note": 60, "velocity": 94, "channel": 0}, {"type": "note_on", "time": 64, "note": 63, "velocity": 115, "channel": 0}, {"type": "note_off", "time": 166, "note": 63, "velocity": 115, "channel": 0}, {"type": "note_on", "time": 36, "note": 59, "velocity": 102, "channel": 0}, {"type": "note_off", "time": 217, "note": 59, "velocity": 102, "channel": 0}, {"type": "note_on", "time": 48, "note": 57, "velocity": 97, "channel": 0}, {"type": "note_off", "time": 149, "note": 57, "velocity": 97, "channel": 0}, {"type": "note_on", "time": 1606, "note": 59, "velocity": 106, "channel": 0}, {"type": "note_off", "time": 155, "note": 59, "velocity": 106, "channel": 0}, {"type": "note_on", "time": 79, "note": 64, "velocity": 103, "channel": 0}, {"type": "note_off", "time": 107, "note": 64, "velocity": 103, "channel": 0}, {"type": "note_on", "time": 73, "note": 68, "velocity": 104, "channel": 0}, {"type": "note_off", "time": 217, "note": 68, "velocity": 104, "channel": 0}, {"type": "note_on", "time": 21, "note": 71, "velocity": 115, "channel": 0}, {"type": "note_off", "time": 1157, "note": 71, "velocity": 115, "channel": 0}, {"type": "note_on", "time": 17, "note": 69, "velocity": 112, "channel": 0}, {"type": "note_off", "time": 242, "note": 69, "velocity": 112, "channel": 0}, {"type": "note_on", "time": 16, "note": 67, "velocity": 107, "channel": 0}, {"type": "note_off", "time": 213, "note": 67, "velocity": 107, "channel": 0}, {"type": "note_on", "time": 16, "note": 66, "velocity": 108, "channel": 0}, {"type": "note_off", "time": 104, "note": 66, "velocity": 108, "channel": 0}, {"type": "note_on", "time": 16, "note": 65, "velocity": 106, "channel": 0}, {"type": "note_off", "time": 265, "note": 65, "velocity": 106, "channel": 0}, {"type": "note_on", "time": 28, "note": 67, "velocity": 95, "channel": 0}, {"type": "note_off", "time": 203, "note": 67, "velocity": 95, "channel": 0}, {"type": "note_on", "time": 43, "note": 69, "velocity": 102, "channel": 0}, {"type": "note_off", "time": 133, "note": 69, "velocity": 102, "channel": 0}, {"type": "note_on", "time": 7, "note": 71, "velocity": 104, "channel": 0}, {"type": "note_off", "time": 133, "note": 71, "velocity": 104, "channel": 0}, {"type": "note_on", "time": 4, "note": 74, "velocity": 110, "channel": 0}, {"type": "note_off", "time": 155, "note": 74, "velocity": 110, "channel": 0}, {"type": "note_on", "time": 39, "note": 73, "velocity": 113, "channel": 0}, {"type": "note_off", "time": 158, "note": 73, "velocity": 113, "channel": 0}, {"type": "note_on", "time": 4, "note": 71, "velocity": 114, "channel": 0}, {"type": "note_off", "time": 604, "note": 71, "velocity": 114, "channel": 0}, {"type": "note_on", "time": 72, "note": 67, "velocity": 106, "channel": 0}, {"type": "note_off", "time": 201, "note": 67, "velocity": 106, "channel": 0}, {"type": "note_on", "time": 13, "note": 64, "velocity": 112, "channel": 0}, {"type": "note_off", "time": 195, "note": 64, "velocity": 112, "channel": 0}, {"type": "note_on", "time": 33, "note": 60, "velocity": 109, "channel": 0}, {"type": "note_off", "time": 175, "note": 60, "velocity": 109, "channel": 0}, {"type": "note_on", "time": 467, "note": 73, "velocity": 109, "channel": 0}, {"type": "note_off", "time": 164, "note": 73, "velocity": 109, "channel": 0}, {"type": "note_on", "time": 6, "note": 71, "velocity": 114, "channel": 0}, {"type": "note_off", "time": 173, "note": 71, "velocity": 114, "channel": 0}, {"type": "note_on", "time": 46, "note": 68, "velocity": 107, "channel": 0}, {"type": "note_off", "time": 513, "note": 68, "velocity": 107, "channel": 0}, {"type": "note_on", "time": 42, "note": 66, "velocity": 108, "channel": 0}, {"type": "note_off", "time": 166, "note": 66, "velocity": 108, "channel": 0}, {"type": "note_on", "time": 39, "note": 65, "velocity": 106, "channel": 0}, {"type": "note_off", "time": 194, "note": 65, "velocity": 106, "channel": 0}, {"type": "note_on", "time": 42, "note": 64, "velocity": 107, "channel": 0}, {"type": "note_off", "time": 180, "note": 64, "velocity": 107, "channel": 0}, {"type": "note_on", "time": 31, "note": 63, "velocity": 108, "channel": 0}, {"type": "note_off", "time": 160, "note": 63, "velocity": 108, "channel": 0}, {"type": "note_on", "time": 56, "note": 65, "velocity": 105, "channel": 0}, {"type": "note_off", "time": 242, "note": 65, "velocity": 105, "channel": 0}, {"type": "note_on", "time": 33, "note": 60, "velocity": 100, "channel": 0}, {"type": "note_off", "time": 110, "note": 60, "velocity": 100, "channel": 0}, {"type": "note_on", "time": 19, "note": 63, "velocity": 113, "channel": 0}, {"type": "note_off", "time": 259, "note": 63, "velocity": 113, "channel": 0}, {"type": "note_on", "time": 11, "note": 62, "velocity": 105, "channel": 0}, {"type": "note_off", "time": 108, "note": 62, "velocity": 105, "channel": 0}, {"type": "note_on", "time": 24, "note": 60, "velocity": 103, "channel": 0}, {"type": "note_off", "time": 197, "note": 60, "velocity": 103, "channel": 0}, {"type": "note_on", "time": 26, "note": 58, "velocity": 101, "channel": 0}, {"type": "note_off", "time": 233, "note": 58, "velocity": 101, "channel": 0}, {"type": "note_on", "time": 6, "note": 57, "velocity": 100, "channel": 0}, {"type": "note_off", "time": 247, "note": 57, "velocity": 100, "channel": 0}, {"type": "note_on", "time": 19, "note": 56, "velocity": 106, "channel": 0}, {"type": "note_off", "time": 135, "note": 56, "velocity": 106, "channel": 0}, {"type": "note_on", "time": 52, "note": 59, "velocity": 105, "channel": 0}, {"type": "note_off", "time": 177, "note": 59, "velocity": 105, "channel": 0}, {"type": "note_on", "time": 26, "note": 58, "velocity": 101, "channel": 0}, {"type": "note_off", "time": 121, "note": 58, "velocity": 101, "channel": 0}, {"type": "note_on", "time": 25, "note": 54, "velocity": 103, "channel": 0}, {"type": "note_off", "time": 199, "note": 54, "velocity": 103, "channel": 0}, {"type": "note_on", "time": 12, "note": 53, "velocity": 102, "channel": 0}, {"type": "note_off", "time": 196, "note": 53, "velocity": 102, "channel": 0}, {"type": "note_on", "time": 32, "note": 51, "velocity": 94, "channel": 0}, {"type": "note_off", "time": 186, "note": 51, "velocity": 94, "channel": 0}, {"type": "note_on", "time": 26, "note": 56, "velocity": 110, "channel": 0}, {"type": "note_off", "time": 193, "note": 56, "velocity": 110, "channel": 0}, {"type": "note_on", "time": 12, "note": 54, "velocity": 103, "channel": 0}, {"type": "note_off", "time": 160, "note": 54, "velocity": 103, "channel": 0}, {"type": "note_on", "time": 35, "note": 51, "velocity": 97, "channel": 0}, {"type": "note_off", "time": 182, "note": 51, "velocity": 97, "channel": 0}, {"type": "note_on", "time": 35, "note": 49, "velocity": 94, "channel": 0}, {"type": "note_off", "time": 175, "note": 49, "velocity": 94, "channel": 0}, {"type": "note_on", "time": 31, "note": 53, "velocity": 103, "channel": 0}, {"type": "note_off", "time": 214, "note": 53, "velocity": 103, "channel": 0}, {"type": "note_on", "time": 70, "note": 49, "velocity": 91, "channel": 0}, {"type": "note_off", "time": 169, "note": 49, "velocity": 91, "channel": 0}, {"type": "note_on", "time": 16, "note": 51, "velocity": 98, "channel": 0}, {"type": "note_off", "time": 271, "note": 51, "velocity": 98, "channel": 0}, {"type": "note_on", "time": 633, "note": 65, "velocity": 109, "channel": 0}, {"type": "note_off", "time": 95, "note": 65, "velocity": 109, "channel": 0}, {"type": "note_on", "time": 7, "note": 63, "velocity": 107, "channel": 0}, {"type": "note_off", "time": 261, "note": 63, "velocity": 107, "channel": 0}, {"type": "note_on", "time": 7, "note": 65, "velocity": 99, "channel": 0}, {"type": "note_off", "time": 1628, "note": 65, "velocity": 99, "channel": 0}, {"type": "note_on", "time": 29, "note": 63, "velocity": 104, "channel": 0}, {"type": "note_off", "time": 231, "note": 63, "velocity": 104, "channel": 0}, {"type": "note_on", "time": 1, "note": 65, "velocity": 101, "channel": 0}, {"type": "note_off", "time": 663, "note": 65, "velocity": 101, "channel": 0}, {"type": "note_on", "time": 24, "note": 63, "velocity": 113, "channel": 0}, {"type": "note_off", "time": 385, "note": 63, "velocity": 113, "channel": 0}, {"type": "note_on", "time": 248, "note": 68, "velocity": 108, "channel": 0}, {"type": "note_off", "time": 291, "note": 68, "velocity": 108, "channel": 0}, {"type": "note_on", "time": 0, "note": 70, "velocity": 112, "channel": 0}, {"type": "note_off", "time": 428, "note": 70, "velocity": 112, "channel": 0}, {"type": "note_on", "time": 43, "note": 70, "velocity": 107, "channel": 0}, {"type": "note_off", "time": 1370, "note": 70, "velocity": 107, "channel": 0}, {"type": "note_on", "time": 1436, "note": 70, "velocity": 110, "channel": 0}, {"type": "note_off", "time": 293, "note": 70, "velocity": 110, "channel": 0}, {"type": "note_on", "time": 9, "note": 72, "velocity": 109, "channel": 0}, {"type": "note_off", "time": 3089, "note": 72, "velocity": 109, "channel": 0}, {"type": "note_on", "time": 91, "note": 68, "velocity": 83, "channel": 0}, {"type": "note_off", "time": 178, "note": 68, "velocity": 83, "channel": 0}, {"type": "note_on", "time": 55, "note": 72, "velocity": 115, "channel": 0}, {"type": "note_off", "time": 214, "note": 72, "velocity": 115, "channel": 0}, {"type": "note_on", "time": 23, "note": 68, "velocity": 100, "channel": 0}, {"type": "note_off", "time": 174, "note": 68, "velocity": 100, "channel": 0}, {"type": "note_on", "time": 43, "note": 72, "velocity": 117, "channel": 0}, {"type": "note_off", "time": 170, "note": 72, "velocity": 117, "channel": 0}, {"type": "note_on", "time": 19, "note": 68, "velocity": 96, "channel": 0}, {"type": "note_off", "time": 1326, "note": 68, "velocity": 96, "channel": 0}, {"type": "note_on", "time": 47, "note": 65, "velocity": 95, "channel": 0}, {"type": "note_off", "time": 174, "note": 65, "velocity": 95, "channel": 0}, {"type": "note_on", "time": 99, "note": 63, "velocity": 95, "channel": 0}, {"type": "note_off", "time": 178, "note": 63, "velocity": 95, "channel": 0}, {"type": "note_on", "time": 23, "note": 65, "velocity": 102, "channel": 0}, {"type": "note_off", "time": 170, "note": 65, "velocity": 102, "channel": 0}, {"type": "note_on", "time": 59, "note": 63, "velocity": 99, "channel": 0}, {"type": "note_off", "time": 2160, "note": 63, "velocity": 99, "channel": 0}, {"type": "note_on", "time": 242, "note": 63, "velocity": 101, "channel": 0}, {"type": "note_off", "time": 176, "note": 63, "velocity": 101, "channel": 0}, {"type": "note_on", "time": 9, "note": 61, "velocity": 95, "channel": 0}, {"type": "note_off", "time": 623, "note": 61, "velocity": 95, "channel": 0}, {"type": "note_on", "time": 33, "note": 56, "velocity": 93, "channel": 0}, {"type": "note_off", "time": 156, "note": 56, "velocity": 93, "channel": 0}, {"type": "note_on", "time": 7, "note": 63, "velocity": 108, "channel": 0}, {"type": "note_off", "time": 218, "note": 63, "velocity": 108, "channel": 0}, {"type": "note_on", "time": 27, "note": 61, "velocity": 104, "channel": 0}, {"type": "note_off", "time": 150, "note": 61, "velocity": 104, "channel": 0}, {"type": "note_on", "time": 36, "note": 59, "velocity": 101, "channel": 0}, {"type": "note_off", "time": 198, "note": 59, "velocity": 101, "channel": 0}, {"type": "note_on", "time": 13, "note": 58, "velocity": 98, "channel": 0}, {"type": "note_off", "time": 127, "note": 58, "velocity": 98, "channel": 0}, {"type": "note_on", "time": 68, "note": 57, "velocity": 99, "channel": 0}, {"type": "note_off", "time": 185, "note": 57, "velocity": 99, "channel": 0}, {"type": "note_on", "time": 57, "note": 61, "velocity": 96, "channel": 0}, {"type": "note_off", "time": 107, "note": 61, "velocity": 96, "channel": 0}, {"type": "note_on", "time": 35, "note": 59, "velocity": 98, "channel": 0}, {"type": "note_off", "time": 230, "note": 59, "velocity": 98, "channel": 0}, {"type": "note_on", "time": 15, "note": 57, "velocity": 101, "channel": 0}, {"type": "note_off", "time": 170, "note": 57, "velocity": 101, "channel": 0}, {"type": "note_on", "time": 62, "note": 56, "velocity": 98, "channel": 0}, {"type": "note_off", "time": 158, "note": 56, "velocity": 98, "channel": 0}, {"type": "note_on", "time": 42, "note": 53, "velocity": 95, "channel": 0}, {"type": "note_off", "time": 152, "note": 53, "velocity": 95, "channel": 0}, {"type": "note_on", "time": 39, "note": 50, "velocity": 96, "channel": 0}, {"type": "note_off", "time": 158, "note": 50, "velocity": 96, "channel": 0}, {"type": "note_on", "time": 183, "note": 53, "velocity": 101, "channel": 0}, {"type": "note_off", "time": 193, "note": 53, "velocity": 101, "channel": 0}, {"type": "note_on", "time": 1867, "note": 55, "velocity": 97, "channel": 0}, {"type": "note_off", "time": 187, "note": 55, "velocity": 97, "channel": 0}, {"type": "note_on", "time": 13, "note": 57, "velocity": 114, "channel": 0}, {"type": "note_off", "time": 154, "note": 57, "velocity": 114, "channel": 0}, {"type": "note_on", "time": 23, "note": 59, "velocity": 113, "channel": 0}, {"type": "note_off", "time": 158, "note": 59, "velocity": 113, "channel": 0}, {"type": "note_on", "time": 59, "note": 62, "velocity": 105, "channel": 0}, {"type": "note_off", "time": 166, "note": 62, "velocity": 105, "channel": 0}, {"type": "note_on", "time": 35, "note": 59, "velocity": 99, "channel": 0}, {"type": "note_off", "time": 182, "note": 59, "velocity": 99, "channel": 0}, {"type": "note_on", "time": 12, "note": 55, "velocity": 96, "channel": 0}, {"type": "note_off", "time": 248, "note": 55, "velocity": 96, "channel": 0}, {"type": "note_on", "time": 1, "note": 61, "velocity": 105, "channel": 0}, {"type": "note_off", "time": 608, "note": 61, "velocity": 105, "channel": 0}, {"type": "note_on", "time": 23, "note": 67, "velocity": 112, "channel": 0}, {"type": "note_off", "time": 154, "note": 67, "velocity": 112, "channel": 0}, {"type": "note_on", "time": 9, "note": 69, "velocity": 112, "channel": 0}, {"type": "note_off", "time": 103, "note": 69, "velocity": 112, "channel": 0}, {"type": "note_on", "time": 8, "note": 71, "velocity": 117, "channel": 0}, {"type": "note_off", "time": 247, "note": 71, "velocity": 117, "channel": 0}, {"type": "note_on", "time": 38, "note": 61, "velocity": 107, "channel": 0}, {"type": "note_off", "time": 437, "note": 61, "velocity": 107, "channel": 0}, {"type": "note_on", "time": 843, "note": 63, "velocity": 115, "channel": 0}, {"type": "note_off", "time": 305, "note": 63, "velocity": 115, "channel": 0}, {"type": "note_on", "time": 59, "note": 61, "velocity": 94, "channel": 0}, {"type": "note_off", "time": 333, "note": 61, "velocity": 94, "channel": 0}, {"type": "note_on", "time": 154, "note": 73, "velocity": 110, "channel": 0}, {"type": "note_off", "time": 1060, "note": 73, "velocity": 110, "channel": 0}, {"type": "note_on", "time": 31, "note": 71, "velocity": 114, "channel": 0}, {"type": "note_off", "time": 158, "note": 71, "velocity": 114, "channel": 0}, {"type": "note_on", "time": 19, "note": 70, "velocity": 117, "channel": 0}, {"type": "note_off", "time": 321, "note": 70, "velocity": 117, "channel": 0}, {"type": "note_on", "time": 240, "note": 70, "velocity": 114, "channel": 0}, {"type": "note_off", "time": 1462, "note": 70, "velocity": 114, "channel": 0}, {"type": "note_on", "time": 256, "note": 73, "velocity": 107, "channel": 0}, {"type": "note_off", "time": 762, "note": 73, "velocity": 107, "channel": 0}, {"type": "note_on", "time": 13, "note": 72, "velocity": 105, "channel": 0}, {"type": "note_off", "time": 111, "note": 72, "velocity": 105, "channel": 0}, {"type": "note_on", "time": 31, "note": 73, "velocity": 105, "channel": 0}, {"type": "note_off", "time": 420, "note": 73, "velocity": 105, "channel": 0}, {"type": "note_on", "time": 38, "note": 63, "velocity": 102, "channel": 0}, {"type": "note_off", "time": 259, "note": 63, "velocity": 102, "channel": 0}, {"type": "note_on", "time": 31, "note": 65, "velocity": 93, "channel": 0}, {"type": "note_off", "time": 1346, "note": 65, "velocity": 93, "channel": 0}, {"type": "note_on", "time": 121, "note": 65, "velocity": 91, "channel": 0}, {"type": "note_off", "time": 1307, "note": 65, "velocity": 91, "channel": 0}, {"type": "note_on", "time": 1950, "note": 65, "velocity": 109, "channel": 0}, {"type": "note_off", "time": 150, "note": 65, "velocity": 109, "channel": 0}, {"type": "note_on", "time": 71, "note": 63, "velocity": 113, "channel": 0}, {"type": "note_off", "time": 278, "note": 63, "velocity": 113, "channel": 0}, {"type": "note_on", "time": 103, "note": 65, "velocity": 107, "channel": 0}, {"type": "note_off", "time": 202, "note": 65, "velocity": 107, "channel": 0}, {"type": "note_on", "time": 7, "note": 66, "velocity": 109, "channel": 0}, {"type": "note_off", "time": 464, "note": 66, "velocity": 109, "channel": 0}, {"type": "note_on", "time": 19, "note": 65, "velocity": 105, "channel": 0}, {"type": "note_off", "time": 496, "note": 65, "velocity": 105, "channel": 0}, {"type": "note_on", "time": 16, "note": 61, "velocity": 102, "channel": 0}, {"type": "note_off", "time": 3046, "note": 61, "velocity": 102, "channel": 0}, {"type": "note_on", "time": 150, "note": 58, "velocity": 99, "channel": 0}, {"type": "note_off", "time": 182, "note": 58, "velocity": 99, "channel": 0}, {"type": "note_on", "time": 160, "note": 63, "velocity": 96, "channel": 0}, {"type": "note_off", "time": 168, "note": 63, "velocity": 96, "channel": 0}, {"type": "note_on", "time": 1, "note": 67, "velocity": 85, "channel": 0}, {"type": "note_off", "time": 139, "note": 67, "velocity": 85, "channel": 0}, {"type": "note_on", "time": 49, "note": 57, "velocity": 98, "channel": 0}, {"type": "note_off", "time": 1807, "note": 57, "velocity": 98, "channel": 0}, {"type": "note_on", "time": 7, "note": 54, "velocity": 94, "channel": 0}, {"type": "note_off", "time": 163, "note": 54, "velocity": 94, "channel": 0}, {"type": "note_on", "time": 46, "note": 56, "velocity": 96, "channel": 0}, {"type": "note_off", "time": 175, "note": 56, "velocity": 96, "channel": 0}, {"type": "note_on", "time": 16, "note": 59, "velocity": 93, "channel": 0}, {"type": "note_off", "time": 197, "note": 59, "velocity": 93, "channel": 0}, {"type": "note_on", "time": 29, "note": 55, "velocity": 90, "channel": 0}, {"type": "note_off", "time": 861, "note": 55, "velocity": 90, "channel": 0}, {"type": "note_on", "time": 121, "note": 49, "velocity": 98, "channel": 0}, {"type": "note_off", "time": 163, "note": 49, "velocity": 98, "channel": 0}, {"type": "note_on", "time": 43, "note": 51, "velocity": 94, "channel": 0}, {"type": "note_off", "time": 182, "note": 51, "velocity": 94, "channel": 0}, {"type": "note_on", "time": 55, "note": 55, "velocity": 101, "channel": 0}, {"type": "note_off", "time": 119, "note": 55, "velocity": 101, "channel": 0}, {"type": "note_on", "time": 434, "note": 49, "velocity": 85, "channel": 0}, {"type": "note_off", "time": 197, "note": 49, "velocity": 85, "channel": 0}, {"type": "note_on", "time": 223, "note": 56, "velocity": 90, "channel": 0}, {"type": "note_off", "time": 1358, "note": 56, "velocity": 90, "channel": 0}, {"type": "note_on", "time": 53, "note": 53, "velocity": 94, "channel": 0}, {"type": "note_off", "time": 892, "note": 53, "velocity": 94, "channel": 0}, {"type": "note_on", "time": 1153, "note": 66, "velocity": 9, "channel": 0}, {"type": "note_off", "time": 808, "note": 66, "velocity": 9, "channel": 0}, {"type": "note_on", "time": 17, "note": 65, "velocity": 127, "channel": 0}, {"type": "note_off", "time": 101, "note": 65, "velocity": 127, "channel": 0}, {"type": "note_on", "time": 12, "note": 66, "velocity": 108, "channel": 0}, {"type": "note_off", "time": 593, "note": 66, "velocity": 108, "channel": 0}, {"type": "note_on", "time": 67, "note": 63, "velocity": 95, "channel": 0}, {"type": "note_off", "time": 2784, "note": 63, "velocity": 95, "channel": 0}, {"type": "end_of_track", "time": 0}]]}