{"ticks_per_beat": 192, "tracks": [[{"type": "track_name", "name": "Melody", "time": 0}, {"type": "set_tempo", "tempo": 322580, "time": 0}, {"type": "key_signature", "key": "Ab", "time": 0}, {"type": "time_signature", "numerator": 4, "denominator": 4, "clocks_per_click": 24, "notated_32nd_notes_per_beat": 8, "time": 0}, {"type": "note_on", "time": 1238, "note": 75, "velocity": 125, "channel": 0}, {"type": "note_off", "time": 101, "note": 75, "velocity": 125, "channel": 0}, {"type": "note_on", "time": 21, "note": 79, "velocity": 127, "channel": 0}, {"type": "note_off", "time": 70, "note": 79, "velocity": 127, "channel": 0}, {"type": "note_on", "time": 110, "note": 77, "velocity": 117, "channel": 0}, {"type": "note_off", "time": 38, "note": 77, "velocity": 117, "channel": 0}, {"type": "note_on", "time": 43, "note": 75, "velocity": 124, "channel": 0}, {"type": "note_off", "time": 89, "note": 75, "velocity": 124, "channel": 0}, {"type": "note_on", "time": 33, "note": 75, "velocity": 119, "channel": 0}, {"type": "note_off", "time": 71, "note": 75, "velocity": 119, "channel": 0}, {"type": "note_on", "time": 21, "note": 79, "velocity": 125, "channel": 0}, {"type": "note_off", "time": 69, "note": 79, "velocity": 125, "channel": 0}, {"type": "note_on", "time": 58, "note": 79, "velocity": 112, "channel": 0}, {"type": "note_off", "time": 138, "note": 79, "velocity": 112, "channel": 0}, {"type": "note_on", "time": 24, "note": 75, "velocity": 122, "channel": 0}, {"type": "note_off", "time": 76, "note": 75, "velocity": 122, "channel": 0}, {"type": "note_on", "time": 24, "note": 77, "velocity": 120, "channel": 0}, {"type": "note_off", "time": 72, "note": 77, "velocity": 120, "channel": 0}, {"type": "note_on", "time": 14, "note": 75, "velocity": 120, "channel": 0}, {"type": "note_off", "time": 46, "note": 75, "velocity": 120, "channel": 0}, {"type": "note_on", "time": 37, "note": 79, "velocity": 122, "channel": 0}, {"type": "note_off", "time": 55, "note": 79, "velocity": 122, "channel": 0}, {"type": "note_on", "time": 51, "note": 75, "velocity": 110, "channel": 0}, {"type": "note_off", "time": 53, "note": 75, "velocity": 110, "channel": 0}, {"type": "note_on", "time": 27, "note": 80, "velocity": 116, "channel": 0}, {"type": "note_off", "time": 83, "note": 80, "velocity": 116, "channel": 0}, {"type": "note_on", "time": 36, "note": 84, "velocity": 100, "channel": 0}, {"type": "note_off", "time": 505, "note": 84, "velocity": 100, "channel": 0}, {"type": "note_on", "time": 140, "note": 83, "velocity": 101, "channel": 0}, {"type": "note_off", "time": 123, "note": 83, "velocity": 101, "channel": 0}, {"type": "note_on", "time": 6, "note": 84, "velocity": 116, "channel": 0}, {"type": "note_off", "time": 56, "note": 84, "velocity": 116, "channel": 0}, {"type": "note_on", "time": 33, "note": 75, "velocity": 108, "channel": 0}, {"type": "note_off", "time": 89, "note": 75, "velocity": 108, "channel": 0}, {"type": "note_on", "time": 2, "note": 76, "velocity": 116, "channel": 0}, {"type": "note_off", "time": 72, "note": 76, "velocity": 116, "channel": 0}, {"type": "note_on", "time": 1, "note": 77, "velocity": 115, "channel": 0}, {"type": "note_off", "time": 92, "note": 77, "velocity": 115, "channel": 0}, {"type": "note_on", "time": 28, "note": 80, "velocity": 100, "channel": 0}, {"type": "note_off", "time": 189, "note": 80, "velocity": 100, "channel": 0}, {"type": "note_on", "time": 18, "note": 77, "velocity": 103, "channel": 0}, {"type": "note_off", "time": 71, "note": 77, "velocity": 103, "channel": 0}, {"type": "note_on", "time": 6, "note": 79, "velocity": 108, "channel": 0}, {"type": "note_off", "time": 104, "note": 79, "velocity": 108, "channel": 0}, {"type": "note_on", "time": 8, "note": 80, "velocity": 114, "channel": 0}, {"type": "note_off", "time": 60, "note": 80, "velocity": 114, "channel": 0}, {"type": "note_on", "time": 8, "note": 82, "velocity": 121, "channel": 0}, {"type": "note_off", "time": 91, "note": 82, "velocity": 121, "channel": 0}, {"type": "note_on", "time": 32, "note": 80, "velocity": 112, "channel": 0}, {"type": "note_off", "time": 48, "note": 80, "velocity": 112, "channel": 0}, {"type": "note_on", "time": 18, "note": 79, "velocity": 113, "channel": 0}, {"type": "note_off", "time": 130, "note": 79, "velocity": 113, "channel": 0}, {"type": "note_on", "time": 9, "note": 77, "velocity": 109, "channel": 0}, {"type": "note_off", "time": 63, "note": 77, "velocity": 109, "channel": 0}, {"type": "note_on", "time": 12, "note": 75, "velocity": 113, "channel": 0}, {"type": "note_off", "time": 61, "note": 75, "velocity": 113, "channel": 0}, {"type": "note_on", "time": 46, "note": 74, "velocity": 106, "channel": 0}, {"type": "note_off", "time": 54, "note": 74, "velocity": 106, "channel": 0}, {"type": "note_on", "time": 18, "note": 73, "velocity": 100, "channel": 0}, {"type": "note_off", "time": 324, "note": 73, "velocity": 100, "channel": 0}, {"type": "note_on", "time": 191, "note": 75, "velocity": 105, "channel": 0}, {"type": "note_off", "time": 234, "note": 75, "velocity": 105, "channel": 0}, {"type": "note_on", "time": 46, "note": 68, "velocity": 108, "channel": 0}, {"type": "note_off", "time": 83, "note": 68, "velocity": 108, "channel": 0}, {"type": "note_on", "time": 9, "note": 71, "velocity": 116, "channel": 0}, {"type": "note_off", "time": 69, "note": 71, "velocity": 116, "channel": 0}, {"type": "note_on", "time": 9, "note": 72, "velocity": 117, "channel": 0}, {"type": "note_off", "time": 61, "note": 72, "velocity": 117, "channel": 0}, {"type": "note_on", "time": 51, "note": 68, "velocity": 94, "channel": 0}, {"type": "note_off", "time": 72, "note": 68, "velocity": 94, "channel": 0}, {"type": "note_on", "time": 10, "note": 71, "velocity": 123, "channel": 0}, {"type": "note_off", "time": 76, "note": 71, "velocity": 123, "channel": 0}, {"type": "note_on", "time": 10, "note": 72, "velocity": 117, "channel": 0}, {"type": "note_off", "time": 76, "note": 72, "velocity": 117, "channel": 0}, {"type": "note_on", "time": 25, "note": 75, "velocity": 117, "channel": 0}, {"type": "note_off", "time": 86, "note": 75, "velocity": 117, "channel": 0}, {"type": "note_on", "time": 39, "note": 72, "velocity": 106, "channel": 0}, {"type": "note_off", "time": 35, "note": 72, "velocity": 106, "channel": 0}, {"type": "note_on", "time": 21, "note": 80, "velocity": 111, "channel": 0}, {"type": "note_off", "time": 105, "note": 80, "velocity": 111, "channel": 0}, {"type": "note_on", "time": 30, "note": 77, "velocity": 109, "channel": 0}, {"type": "note_off", "time": 58, "note": 77, "velocity": 109, "channel": 0}, {"type": "note_on", "time": 3, "note": 78, "velocity": 118, "channel": 0}, {"type": "note_off", "time": 49, "note": 78, "velocity": 118, "channel": 0}, {"type": "note_on", "time": 68, "note": 77, "velocity": 117, "channel": 0}, {"type": "note_off", "time": 61, "note": 77, "velocity": 117, "channel": 0}, {"type": "note_on", "time": 14, "note": 75, "velocity": 116, "channel": 0}, {"type": "note_off", "time": 86, "note": 75, "velocity": 116, "channel": 0}, {"type": "note_on", "time": 35, "note": 72, "velocity": 119, "channel": 0}, {"type": "note_off", "time": 70, "note": 72, "velocity": 119, "channel": 0}, {"type": "note_on", "time": 24, "note": 71, "velocity": 122, "channel": 0}, {"type": "note_off", "time": 27, "note": 71, "velocity": 122, "channel": 0}, {"type": "note_on", "time": 7, "note": 72, "velocity": 110, "channel": 0}, {"type": "note_off", "time": 30, "note": 72, "velocity": 110, "channel": 0}, {"type": "note_on", "time": 23, "note": 72, "velocity": 109, "channel": 0}, {"type": "note_off", "time": 33, "note": 72, "velocity": 109, "channel": 0}, {"type": "note_on", "time": 225, "note": 77, "velocity": 109, "channel": 0}, {"type": "note_off", "time": 32, "note": 77, "velocity": 109, "channel": 0}, {"type": "note_on", "time": 4, "note": 79, "velocity": 121, "channel": 0}, {"type": "note_off", "time": 82, "note": 79, "velocity": 121, "channel": 0}, {"type": "note_on", "time": 82, "note": 78, "velocity": 116, "channel": 0}, {"type": "note_off", "time": 85, "note": 78, "velocity": 116, "channel": 0}, {"type": "note_on", "time": 131, "note": 79, "velocity": 119, "channel": 0}, {"type": "note_off", "time": 89, "note": 79, "velocity": 119, "channel": 0}, {"type": "note_on", "time": 43, "note": 78, "velocity": 111, "channel": 0}, {"type": "note_off", "time": 19, "note": 78, "velocity": 111, "channel": 0}, {"type": "note_on", "time": 3, "note": 79, "velocity": 115, "channel": 0}, {"type": "note_off", "time": 56, "note": 79, "velocity": 115, "channel": 0}, {"type": "note_on", "time": 86, "note": 77, "velocity": 114, "channel": 0}, {"type": "note_off", "time": 52, "note": 77, "velocity": 114, "channel": 0}, {"type": "note_on", "time": 14, "note": 79, "velocity": 112, "channel": 0}, {"type": "note_off", "time": 92, "note": 79, "velocity": 112, "channel": 0}, {"type": "note_on", "time": 23, "note": 77, "velocity": 114, "channel": 0}, {"type": "note_off", "time": 49, "note": 77, "velocity": 114, "channel": 0}, {"type": "note_on", "time": 19, "note": 75, "velocity": 109, "channel": 0}, {"type": "note_off", "time": 51, "note": 75, "velocity": 109, "channel": 0}, {"type": "note_on", "time": 55, "note": 73, "velocity": 102, "channel": 0}, {"type": "note_off", "time": 16, "note": 73, "velocity": 102, "channel": 0}, {"type": "note_on", "time": 4, "note": 72, "velocity": 107, "channel": 0}, {"type": "note_off", "time": 57, "note": 72, "velocity": 107, "channel": 0}, {"type": "note_on", "time": 11, "note": 70, "velocity": 120, "channel": 0}, {"type": "note_off", "time": 81, "note": 70, "velocity": 120, "channel": 0}, {"type": "note_on", "time": 35, "note": 73, "velocity": 115, "channel": 0}, {"type": "note_off", "time": 71, "note": 73, "velocity": 115, "channel": 0}, {"type": "note_on", "time": 23, "note": 72, "velocity": 106, "channel": 0}, {"type": "note_off", "time": 215, "note": 72, "velocity": 106, "channel": 0}, {"type": "note_on", "time": 147, "note": 73, "velocity": 111, "channel": 0}, {"type": "note_off", "time": 22, "note": 73, "velocity": 111, "channel": 0}, {"type": "note_on", "time": 5, "note": 71, "velocity": 121, "channel": 0}, {"type": "note_off", "time": 60, "note": 71, "velocity": 121, "channel": 0}, {"type": "note_on", "time": 17, "note": 72, "velocity": 119, "channel": 0}, {"type": "note_off", "time": 78, "note": 72, "velocity": 119, "channel": 0}, {"type": "note_on", "time": 12, "note": 75, "velocity": 117, "channel": 0}, {"type": "note_off", "time": 80, "note": 75, "velocity": 117, "channel": 0}, {"type": "note_on", "time": 31, "note": 72, "velocity": 107, "channel": 0}, {"type": "note_off", "time": 72, "note": 72, "velocity": 107, "channel": 0}, {"type": "note_on", "time": 3, "note": 80, "velocity": 118, "channel": 0}, {"type": "note_off", "time": 100, "note": 80, "velocity": 118, "channel": 0}, {"type": "note_on", "time": 40, "note": 79, "velocity": 107, "channel": 0}, {"type": "note_off", "time": 113, "note": 79, "velocity": 107, "channel": 0}, {"type": "note_on", "time": 57, "note": 78, "velocity": 96, "channel": 0}, {"type": "note_off", "time": 289, "note": 78, "velocity": 96, "channel": 0}, {"type": "note_on", "time": 172, "note": 80, "velocity": 115, "channel": 0}, {"type": "note_off", "time": 90, "note": 80, "velocity": 115, "channel": 0}, {"type": "note_on", "time": 44, "note": 80, "velocity": 105, "channel": 0}, {"type": "note_off", "time": 156, "note": 80, "velocity": 105, "channel": 0}, {"type": "note_on", "time": 21, "note": 76, "velocity": 104, "channel": 0}, {"type": "note_off", "time": 25, "note": 76, "velocity": 104, "channel": 0}, {"type": "note_on", "time": 63, "note": 77, "velocity": 111, "channel": 0}, {"type": "note_off", "time": 58, "note": 77, "velocity": 111, "channel": 0}, {"type": "note_on", "time": 40, "note": 80, "velocity": 109, "channel": 0}, {"type": "note_off", "time": 63, "note": 80, "velocity": 109, "channel": 0}, {"type": "note_on", "time": 35, "note": 77, "velocity": 113, "channel": 0}, {"type": "note_off", "time": 54, "note": 77, "velocity": 113, "channel": 0}, {"type": "note_on", "time": 44, "note": 76, "velocity": 108, "channel": 0}, {"type": "note_off", "time": 54, "note": 76, "velocity": 108, "channel": 0}, {"type": "note_on", "time": 11, "note": 80, "velocity": 117, "channel": 0}, {"type": "note_off", "time": 95, "note": 80, "velocity": 117, "channel": 0}, {"type": "note_on", "time": 17, "note": 77, "velocity": 90, "channel": 0}, {"type": "note_off", "time": 46, "note": 77, "velocity": 90, "channel": 0}, {"type": "note_on", "time": 31, "note": 75, "velocity": 119, "channel": 0}, {"type": "note_off", "time": 83, "note": 75, "velocity": 119, "channel": 0}, {"type": "note_on", "time": 38, "note": 72, "velocity": 122, "channel": 0}, {"type": "note_off", "time": 49, "note": 72, "velocity": 122, "channel": 0}, {"type": "note_on", "time": 35, "note": 77, "velocity": 115, "channel": 0}, {"type": "note_off", "time": 61, "note": 77, "velocity": 115, "channel": 0}, {"type": "note_on", "time": 37, "note": 75, "velocity": 114, "channel": 0}, {"type": "note_off", "time": 84, "note": 75, "velocity": 114, "channel": 0}, {"type": "note_on", "time": 194, "note": 80, "velocity": 121, "channel": 0}, {"type": "note_off", "time": 93, "note": 80, "velocity": 121, "channel": 0}, {"type": "note_on", "time": 3, "note": 77, "velocity": 122, "channel": 0}, {"type": "note_off", "time": 85, "note": 77, "velocity": 122, "channel": 0}, {"type": "note_on", "time": 6, "note": 75, "velocity": 119, "channel": 0}, {"type": "note_off", "time": 91, "note": 75, "velocity": 119, "channel": 0}, {"type": "note_on", "time": 22, "note": 74, "velocity": 119, "channel": 0}, {"type": "note_off", "time": 60, "note": 74, "velocity": 119, "channel": 0}, {"type": "note_on", "time": 23, "note": 73, "velocity": 124, "channel": 0}, {"type": "note_off", "time": 50, "note": 73, "velocity": 124, "channel": 0}, {"type": "note_on", "time": 74, "note": 79, "velocity": 107, "channel": 0}, {"type": "note_off", "time": 127, "note": 79, "velocity": 107, "channel": 0}, {"type": "note_on", "time": 9, "note": 75, "velocity": 94, "channel": 0}, {"type": "note_off", "time": 42, "note": 75, "velocity": 94, "channel": 0}, {"type": "note_on", "time": 12, "note": 73, "velocity": 124, "channel": 0}, {"type": "note_off", "time": 68, "note": 73, "velocity": 124, "channel": 0}, {"type": "note_on", "time": 4, "note": 72, "velocity": 102, "channel": 0}, {"type": "note_off", "time": 533, "note": 72, "velocity": 102, "channel": 0}, {"type": "end_of_track", "time": 0}]]}