{"ticks_per_beat": 192, "tracks": [[{"type": "track_name", "name": "Melody", "time": 0}, {"type": "set_tempo", "tempo": 267857, "time": 0}, {"type": "key_signature", "key": "F", "time": 0}, {"type": "time_signature", "numerator": 4, "denominator": 4, "clocks_per_click": 24, "notated_32nd_notes_per_beat": 8, "time": 0}, {"type": "note_on", "time": 2849, "note": 67, "velocity": 113, "channel": 0}, {"type": "note_off", "time": 100, "note": 67, "velocity": 113, "channel": 0}, {"type": "note_on", "time": 27, "note": 65, "velocity": 116, "channel": 0}, {"type": "note_off", "time": 144, "note": 65, "velocity": 116, "channel": 0}, {"type": "note_on", "time": 38, "note": 64, "velocity": 110, "channel": 0}, {"type": "note_off", "time": 65, "note": 64, "velocity": 110, "channel": 0}, {"type": "note_on", "time": 27, "note": 62, "velocity": 109, "channel": 0}, {"type": "note_off", "time": 87, "note": 62, "velocity": 109, "channel": 0}, {"type": "note_on", "time": 23, "note": 60, "velocity": 117, "channel": 0}, {"type": "note_off", "time": 83, "note": 60, "velocity": 117, "channel": 0}, {"type": "note_on", "time": 24, "note": 57, "velocity": 91, "channel": 0}, {"type": "note_off", "time": 95, "note": 57, "velocity": 91, "channel": 0}, {"type": "note_on", "time": 87, "note": 57, "velocity": 107, "channel": 0}, {"type": "note_off", "time": 102, "note": 57, "velocity": 107, "channel": 0}, {"type": "note_on", "time": 7, "note": 58, "velocity": 113, "channel": 0}, {"type": "note_off", "time": 118, "note": 58, "velocity": 113, "channel": 0}, {"type": "note_on", "time": 249, "note": 57, "velocity": 106, "channel": 0}, {"type": "note_off", "time": 181, "note": 57, "velocity": 106, "channel": 0}, {"type": "note_on", "time": 15, "note": 60, "velocity": 112, "channel": 0}, {"type": "note_off", "time": 60, "note": 60, "velocity": 112, "channel": 0}, {"type": "note_on", "time": 27, "note": 55, "velocity": 95, "channel": 0}, {"type": "note_off", "time": 175, "note": 55, "velocity": 95, "channel": 0}, {"type": "note_on", "time": 317, "note": 53, "velocity": 97, "channel": 0}, {"type": "note_off", "time": 61, "note": 53, "velocity": 97, "channel": 0}, {"type": "note_on", "time": 20, "note": 48, "velocity": 102, "channel": 0}, {"type": "note_off", "time": 70, "note": 48, "velocity": 102, "channel": 0}, {"type": "note_on", "time": 170, "note": 57, "velocity": 87, "channel": 0}, {"type": "note_off", "time": 77, "note": 57, "velocity": 87, "channel": 0}, {"type": "note_on", "time": 3, "note": 58, "velocity": 98, "channel": 0}, {"type": "note_off", "time": 71, "note": 58, "velocity": 98, "channel": 0}, {"type": "note_on", "time": 38, "note": 60, "velocity": 109, "channel": 0}, {"type": "note_off", "time": 101, "note": 60, "velocity": 109, "channel": 0}, {"type": "note_on", "time": 93, "note": 58, "velocity": 118, "channel": 0}, {"type": "note_off", "time": 92, "note": 58, "velocity": 118, "channel": 0}, {"type": "note_on", "time": 19, "note": 56, "velocity": 112, "channel": 0}, {"type": "note_off", "time": 130, "note": 56, "velocity": 112, "channel": 0}, {"type": "note_on", "time": 75, "note": 53, "velocity": 104, "channel": 0}, {"type": "note_off", "time": 69, "note": 53, "velocity": 104, "channel": 0}, {"type": "note_on", "time": 13, "note": 55, "velocity": 98, "channel": 0}, {"type": "note_off", "time": 156, "note": 55, "velocity": 98, "channel": 0}, {"type": "note_on", "time": 99, "note": 53, "velocity": 100, "channel": 0}, {"type": "note_off", "time": 104, "note": 53, "velocity": 100, "channel": 0}, {"type": "note_on", "time": 112, "note": 61, "velocity": 109, "channel": 0}, {"type": "note_off", "time": 61, "note": 61, "velocity": 109, "channel": 0}, {"type": "note_on", "time": 21, "note": 64, "velocity": 117, "channel": 0}, {"type": "note_off", "time": 99, "note": 64, "velocity": 117, "channel": 0}, {"type": "note_on", "time": 13, "note": 64, "velocity": 109, "channel": 0}, {"type": "note_off", "time": 58, "note": 64, "velocity": 109, "channel": 0}, {"type": "note_on", "time": 11, "note": 62, "velocity": 104, "channel": 0}, {"type": "note_off", "time": 96, "note": 62, "velocity": 104, "channel": 0}, {"type": "note_on", "time": 22, "note": 61, "velocity": 114, "channel": 0}, {"type": "note_off", "time": 91, "note": 61, "velocity": 114, "channel": 0}, {"type": "note_on", "time": 12, "note": 60, "velocity": 103, "channel": 0}, {"type": "note_off", "time": 123, "note": 60, "velocity": 103, "channel": 0}, {"type": "note_on", "time": 1209, "note": 58, "velocity": 111, "channel": 0}, {"type": "note_off", "time": 87, "note": 58, "velocity": 111, "channel": 0}, {"type": "note_on", "time": 21, "note": 57, "velocity": 113, "channel": 0}, {"type": "note_off", "time": 87, "note": 57, "velocity": 113, "channel": 0}, {"type": "note_on", "time": 122, "note": 54, "velocity": 108, "channel": 0}, {"type": "note_off", "time": 133, "note": 54, "velocity": 108, "channel": 0}, {"type": "note_on", "time": 106, "note": 53, "velocity": 108, "channel": 0}, {"type": "note_off", "time": 144, "note": 53, "velocity": 108, "channel": 0}, {"type": "note_on", "time": 79, "note": 52, "velocity": 99, "channel": 0}, {"type": "note_off", "time": 67, "note": 52, "velocity": 99, "channel": 0}, {"type": "note_on", "time": 13, "note": 60, "velocity": 105, "channel": 0}, {"type": "note_off", "time": 245, "note": 60, "velocity": 105, "channel": 0}, {"type": "note_on", "time": 14, "note": 58, "velocity": 114, "channel": 0}, {"type": "note_off", "time": 92, "note": 58, "velocity": 114, "channel": 0}, {"type": "note_on", "time": 17, "note": 56, "velocity": 113, "channel": 0}, {"type": "note_off", "time": 77, "note": 56, "velocity": 113, "channel": 0}, {"type": "note_on", "time": 5, "note": 57, "velocity": 99, "channel": 0}, {"type": "note_off", "time": 178, "note": 57, "velocity": 99, "channel": 0}, {"type": "note_on", "time": 10, "note": 58, "velocity": 114, "channel": 0}, {"type": "note_off", "time": 84, "note": 58, "velocity": 114, "channel": 0}, {"type": "note_on", "time": 5, "note": 60, "velocity": 106, "channel": 0}, {"type": "note_off", "time": 166, "note": 60, "velocity": 106, "channel": 0}, {"type": "note_on", "time": 13, "note": 58, "velocity": 100, "channel": 0}, {"type": "note_off", "time": 109, "note": 58, "velocity": 100, "channel": 0}, {"type": "note_on", "time": 20, "note": 60, "velocity": 106, "channel": 0}, {"type": "note_off", "time": 143, "note": 60, "velocity": 106, "channel": 0}, {"type": "note_on", "time": 19, "note": 58, "velocity": 101, "channel": 0}, {"type": "note_off", "time": 125, "note": 58, "velocity": 101, "channel": 0}, {"type": "note_on", "time": 646, "note": 65, "velocity": 116, "channel": 0}, {"type": "note_off", "time": 155, "note": 65, "velocity": 116, "channel": 0}, {"type": "note_on", "time": 30, "note": 64, "velocity": 119, "channel": 0}, {"type": "note_off", "time": 117, "note": 64, "velocity": 119, "channel": 0}, {"type": "note_on", "time": 13, "note": 65, "velocity": 117, "channel": 0}, {"type": "note_off", "time": 144, "note": 65, "velocity": 117, "channel": 0}, {"type": "note_on", "time": 275, "note": 65, "velocity": 121, "channel": 0}, {"type": "note_off", "time": 130, "note": 65, "velocity": 121, "channel": 0}, {"type": "note_on", "time": 48, "note": 65, "velocity": 115, "channel": 0}, {"type": "note_off", "time": 127, "note": 65, "velocity": 115, "channel": 0}, {"type": "note_on", "time": 35, "note": 64, "velocity": 123, "channel": 0}, {"type": "note_off", "time": 59, "note": 64, "velocity": 123, "channel": 0}, {"type": "note_on", "time": 20, "note": 65, "velocity": 116, "channel": 0}, {"type": "note_off", "time": 111, "note": 65, "velocity": 116, "channel": 0}, {"type": "note_on", "time": 10, "note": 64, "velocity": 117, "channel": 0}, {"type": "note_off", "time": 74, "note": 64, "velocity": 117, "channel": 0}, {"type": "note_on", "time": 19, "note": 62, "velocity": 102, "channel": 0}, {"type": "note_off", "time": 65, "note": 62, "velocity": 102, "channel": 0}, {"type": "note_on", "time": 36, "note": 61, "velocity": 115, "channel": 0}, {"type": "note_off", "time": 65, "note": 61, "velocity": 115, "channel": 0}, {"type": "note_on", "time": 14, "note": 62, "velocity": 118, "channel": 0}, {"type": "note_off", "time": 111, "note": 62, "velocity": 118, "channel": 0}, {"type": "note_on", "time": 16, "note": 62, "velocity": 117, "channel": 0}, {"type": "note_off", "time": 76, "note": 62, "velocity": 117, "channel": 0}, {"type": "note_on", "time": 17, "note": 61, "velocity": 118, "channel": 0}, {"type": "note_off", "time": 111, "note": 61, "velocity": 118, "channel": 0}, {"type": "note_on", "time": 76, "note": 62, "velocity": 117, "channel": 0}, {"type": "note_off", "time": 138, "note": 62, "velocity": 117, "channel": 0}, {"type": "note_on", "time": 981, "note": 67, "velocity": 118, "channel": 0}, {"type": "note_off", "time": 95, "note": 67, "velocity": 118, "channel": 0}, {"type": "note_on", "time": 14, "note": 65, "velocity": 123, "channel": 0}, {"type": "note_off", "time": 83, "note": 65, "velocity": 123, "channel": 0}, {"type": "note_on", "time": 11, "note": 64, "velocity": 113, "channel": 0}, {"type": "note_off", "time": 98, "note": 64, "velocity": 113, "channel": 0}, {"type": "note_on", "time": 21, "note": 62, "velocity": 121, "channel": 0}, {"type": "note_off", "time": 80, "note": 62, "velocity": 121, "channel": 0}, {"type": "note_on", "time": 20, "note": 60, "velocity": 110, "channel": 0}, {"type": "note_off", "time": 112, "note": 60, "velocity": 110, "channel": 0}, {"type": "note_on", "time": 59, "note": 58, "velocity": 117, "channel": 0}, {"type": "note_off", "time": 87, "note": 58, "velocity": 117, "channel": 0}, {"type": "note_on", "time": 27, "note": 56, "velocity": 112, "channel": 0}, {"type": "note_off", "time": 152, "note": 56, "velocity": 112, "channel": 0}, {"type": "note_on", "time": 30, "note": 53, "velocity": 99, "channel": 0}, {"type": "note_off", "time": 73, "note": 53, "velocity": 99, "channel": 0}, {"type": "note_on", "time": 7, "note": 55, "velocity": 111, "channel": 0}, {"type": "note_off", "time": 131, "note": 55, "velocity": 111, "channel": 0}, {"type": "note_on", "time": 217, "note": 53, "velocity": 105, "channel": 0}, {"type": "note_off", "time": 108, "note": 53, "velocity": 105, "channel": 0}, {"type": "note_on", "time": 71, "note": 55, "velocity": 111, "channel": 0}, {"type": "note_off", "time": 78, "note": 55, "velocity": 111, "channel": 0}, {"type": "note_on", "time": 7, "note": 56, "velocity": 118, "channel": 0}, {"type": "note_off", "time": 67, "note": 56, "velocity": 118, "channel": 0}, {"type": "note_on", "time": 11, "note": 57, "velocity": 104, "channel": 0}, {"type": "note_off", "time": 61, "note": 57, "velocity": 104, "channel": 0}, {"type": "note_on", "time": 12, "note": 60, "velocity": 115, "channel": 0}, {"type": "note_off", "time": 78, "note": 60, "velocity": 115, "channel": 0}, {"type": "note_on", "time": 29, "note": 60, "velocity": 116, "channel": 0}, {"type": "note_off", "time": 92, "note": 60, "velocity": 116, "channel": 0}, {"type": "note_on", "time": 12, "note": 60, "velocity": 112, "channel": 0}, {"type": "note_off", "time": 238, "note": 60, "velocity": 112, "channel": 0}, {"type": "note_on", "time": 1506, "note": 46, "velocity": 110, "channel": 0}, {"type": "note_off", "time": 38, "note": 46, "velocity": 110, "channel": 0}, {"type": "note_on", "time": 266, "note": 56, "velocity": 120, "channel": 0}, {"type": "note_off", "time": 74, "note": 56, "velocity": 120, "channel": 0}, {"type": "note_on", "time": 9, "note": 55, "velocity": 91, "channel": 0}, {"type": "note_off", "time": 91, "note": 55, "velocity": 91, "channel": 0}, {"type": "note_on", "time": 19, "note": 53, "velocity": 106, "channel": 0}, {"type": "note_off", "time": 94, "note": 53, "velocity": 106, "channel": 0}, {"type": "note_on", "time": 165, "note": 58, "velocity": 111, "channel": 0}, {"type": "note_off", "time": 100, "note": 58, "velocity": 111, "channel": 0}, {"type": "note_on", "time": 16, "note": 60, "velocity": 108, "channel": 0}, {"type": "note_off", "time": 76, "note": 60, "velocity": 108, "channel": 0}, {"type": "note_on", "time": 94, "note": 57, "velocity": 98, "channel": 0}, {"type": "note_off", "time": 240, "note": 57, "velocity": 98, "channel": 0}, {"type": "note_on", "time": 929, "note": 60, "velocity": 111, "channel": 0}, {"type": "note_off", "time": 100, "note": 60, "velocity": 111, "channel": 0}, {"type": "note_on", "time": 108, "note": 65, "velocity": 121, "channel": 0}, {"type": "note_off", "time": 205, "note": 65, "velocity": 121, "channel": 0}, {"type": "note_on", "time": 142, "note": 65, "velocity": 121, "channel": 0}, {"type": "note_off", "time": 291, "note": 65, "velocity": 121, "channel": 0}, {"type": "note_on", "time": 59, "note": 65, "velocity": 113, "channel": 0}, {"type": "note_off", "time": 286, "note": 65, "velocity": 113, "channel": 0}, {"type": "note_on", "time": 0, "note": 56, "velocity": 102, "channel": 0}, {"type": "note_off", "time": 190, "note": 56, "velocity": 102, "channel": 0}, {"type": "note_on", "time": 192, "note": 53, "velocity": 112, "channel": 0}, {"type": "note_off", "time": 79, "note": 53, "velocity": 112, "channel": 0}, {"type": "note_on", "time": 25, "note": 55, "velocity": 111, "channel": 0}, {"type": "note_off", "time": 69, "note": 55, "velocity": 111, "channel": 0}, {"type": "note_on", "time": 327, "note": 64, "velocity": 100, "channel": 0}, {"type": "note_off", "time": 66, "note": 64, "velocity": 100, "channel": 0}, {"type": "note_on", "time": 20, "note": 67, "velocity": 115, "channel": 0}, {"type": "note_off", "time": 94, "note": 67, "velocity": 115, "channel": 0}, {"type": "note_on", "time": 19, "note": 66, "velocity": 117, "channel": 0}, {"type": "note_off", "time": 56, "note": 66, "velocity": 117, "channel": 0}, {"type": "note_on", "time": 19, "note": 65, "velocity": 120, "channel": 0}, {"type": "note_off", "time": 109, "note": 65, "velocity": 120, "channel": 0}, {"type": "note_on", "time": 23, "note": 64, "velocity": 122, "channel": 0}, {"type": "note_off", "time": 61, "note": 64, "velocity": 122, "channel": 0}, {"type": "note_on", "time": 15, "note": 63, "velocity": 114, "channel": 0}, {"type": "note_off", "time": 118, "note": 63, "velocity": 114, "channel": 0}, {"type": "note_on", "time": 191, "note": 62, "velocity": 112, "channel": 0}, {"type": "note_off", "time": 159, "note": 62, "velocity": 112, "channel": 0}, {"type": "note_on", "time": 16, "note": 65, "velocity": 121, "channel": 0}, {"type": "note_off", "time": 59, "note": 65, "velocity": 121, "channel": 0}, {"type": "note_on", "time": 21, "note": 61, "velocity": 112, "channel": 0}, {"type": "note_off", "time": 93, "note": 61, "velocity": 112, "channel": 0}, {"type": "note_on", "time": 33, "note": 57, "velocity": 92, "channel": 0}, {"type": "note_off", "time": 63, "note": 57, "velocity": 92, "channel": 0}, {"type": "note_on", "time": 13, "note": 60, "velocity": 111, "channel": 0}, {"type": "note_off", "time": 169, "note": 60, "velocity": 111, "channel": 0}, {"type": "note_on", "time": 896, "note": 68, "velocity": 117, "channel": 0}, {"type": "note_off", "time": 346, "note": 68, "velocity": 117, "channel": 0}, {"type": "note_on", "time": 31, "note": 65, "velocity": 114, "channel": 0}, {"type": "note_off", "time": 378, "note": 65, "velocity": 114, "channel": 0}, {"type": "note_on", "time": 46, "note": 62, "velocity": 109, "channel": 0}, {"type": "note_off", "time": 264, "note": 62, "velocity": 109, "channel": 0}, {"type": "note_on", "time": 893, "note": 61, "velocity": 121, "channel": 0}, {"type": "note_off", "time": 68, "note": 61, "velocity": 121, "channel": 0}, {"type": "note_on", "time": 13, "note": 62, "velocity": 111, "channel": 0}, {"type": "note_off", "time": 112, "note": 62, "velocity": 111, "channel": 0}, {"type": "note_on", "time": 19, "note": 58, "velocity": 119, "channel": 0}, {"type": "note_off", "time": 69, "note": 58, "velocity": 119, "channel": 0}, {"type": "note_on", "time": 10, "note": 57, "velocity": 91, "channel": 0}, {"type": "note_off", "time": 122, "note": 57, "velocity": 91, "channel": 0}, {"type": "note_on", "time": 11, "note": 56, "velocity": 115, "channel": 0}, {"type": "note_off", "time": 68, "note": 56, "velocity": 115, "channel": 0}, {"type": "note_on", "time": 348, "note": 53, "velocity": 103, "channel": 0}, {"type": "note_off", "time": 140, "note": 53, "velocity": 103, "channel": 0}, {"type": "note_on", "time": 67, "note": 52, "velocity": 114, "channel": 0}, {"type": "note_off", "time": 83, "note": 52, "velocity": 114, "channel": 0}, {"type": "note_on", "time": 51, "note": 60, "velocity": 107, "channel": 0}, {"type": "note_off", "time": 200, "note": 60, "velocity": 107, "channel": 0}, {"type": "note_on", "time": 74, "note": 58, "velocity": 107, "channel": 0}, {"type": "note_off", "time": 87, "note": 58, "velocity": 107, "channel": 0}, {"type": "note_on", "time": 27, "note": 56, "velocity": 117, "channel": 0}, {"type": "note_off", "time": 64, "note": 56, "velocity": 117, "channel": 0}, {"type": "note_on", "time": 8, "note": 57, "velocity": 110, "channel": 0}, {"type": "note_off", "time": 177, "note": 57, "velocity": 110, "channel": 0}, {"type": "note_on", "time": 207, "note": 57, "velocity": 113, "channel": 0}, {"type": "note_off", "time": 166, "note": 57, "velocity": 113, "channel": 0}, {"type": "note_on", "time": 996, "note": 72, "velocity": 119, "channel": 0}, {"type": "note_off", "time": 115, "note": 72, "velocity": 119, "channel": 0}, {"type": "note_on", "time": 76, "note": 70, "velocity": 127, "channel": 0}, {"type": "note_off", "time": 133, "note": 70, "velocity": 127, "channel": 0}, {"type": "note_on", "time": 11, "note": 69, "velocity": 120, "channel": 0}, {"type": "note_off", "time": 186, "note": 69, "velocity": 120, "channel": 0}, {"type": "note_on", "time": 182, "note": 72, "velocity": 117, "channel": 0}, {"type": "note_off", "time": 111, "note": 72, "velocity": 117, "channel": 0}, {"type": "note_on", "time": 63, "note": 70, "velocity": 123, "channel": 0}, {"type": "note_off", "time": 89, "note": 70, "velocity": 123, "channel": 0}, {"type": "note_on", "time": 12, "note": 68, "velocity": 122, "channel": 0}, {"type": "note_off", "time": 153, "note": 68, "velocity": 122, "channel": 0}, {"type": "note_on", "time": 717, "note": 63, "velocity": 106, "channel": 0}, {"type": "note_off", "time": 18, "note": 63, "velocity": 106, "channel": 0}, {"type": "note_on", "time": 61, "note": 72, "velocity": 118, "channel": 0}, {"type": "note_off", "time": 85, "note": 72, "velocity": 118, "channel": 0}, {"type": "note_on", "time": 13, "note": 71, "velocity": 120, "channel": 0}, {"type": "note_off", "time": 80, "note": 71, "velocity": 120, "channel": 0}, {"type": "note_on", "time": 16, "note": 70, "velocity": 121, "channel": 0}, {"type": "note_off", "time": 104, "note": 70, "velocity": 121, "channel": 0}, {"type": "note_on", "time": 14, "note": 69, "velocity": 119, "channel": 0}, {"type": "note_off", "time": 245, "note": 69, "velocity": 119, "channel": 0}, {"type": "note_on", "time": 19, "note": 67, "velocity": 110, "channel": 0}, {"type": "note_off", "time": 127, "note": 67, "velocity": 110, "channel": 0}, {"type": "note_on", "time": 7, "note": 65, "velocity": 118, "channel": 0}, {"type": "note_off", "time": 135, "note": 65, "velocity": 118, "channel": 0}, {"type": "note_on", "time": 29, "note": 63, "velocity": 110, "channel": 0}, {"type": "note_off", "time": 95, "note": 63, "velocity": 110, "channel": 0}, {"type": "note_on", "time": 11, "note": 62, "velocity": 107, "channel": 0}, {"type": "note_off", "time": 84, "note": 62, "velocity": 107, "channel": 0}, {"type": "note_on", "time": 17, "note": 60, "velocity": 112, "channel": 0}, {"type": "note_off", "time": 72, "note": 60, "velocity": 112, "channel": 0}, {"type": "note_on", "time": 10, "note": 58, "velocity": 110, "channel": 0}, {"type": "note_off", "time": 149, "note": 58, "velocity": 110, "channel": 0}, {"type": "note_on", "time": 66, "note": 53, "velocity": 90, "channel": 0}, {"type": "note_off", "time": 76, "note": 53, "velocity": 90, "channel": 0}, {"type": "note_on", "time": 8, "note": 56, "velocity": 107, "channel": 0}, {"type": "note_off", "time": 246, "note": 56, "velocity": 107, "channel": 0}, {"type": "note_on", "time": 56, "note": 55, "velocity": 108, "channel": 0}, {"type": "note_off", "time": 82, "note": 55, "velocity": 108, "channel": 0}, {"type": "note_on", "time": 11, "note": 53, "velocity": 110, "channel": 0}, {"type": "note_off", "time": 64, "note": 53, "velocity": 110, "channel": 0}, {"type": "note_on", "time": 162, "note": 64, "velocity": 115, "channel": 0}, {"type": "note_off", "time": 479, "note": 64, "velocity": 115, "channel": 0}, {"type": "note_on", "time": 16, "note": 67, "velocity": 109, "channel": 0}, {"type": "note_off", "time": 84, "note": 67, "velocity": 109, "channel": 0}, {"type": "note_on", "time": 9, "note": 64, "velocity": 113, "channel": 0}, {"type": "note_off", "time": 45, "note": 64, "velocity": 113, "channel": 0}, {"type": "note_on", "time": 6, "note": 65, "velocity": 111, "channel": 0}, {"type": "note_off", "time": 70, "note": 65, "velocity": 111, "channel": 0}, {"type": "note_on", "time": 3, "note": 69, "velocity": 112, "channel": 0}, {"type": "note_off", "time": 42, "note": 69, "velocity": 112, "channel": 0}, {"type": "note_on", "time": 14, "note": 65, "velocity": 116, "channel": 0}, {"type": "note_off", "time": 46, "note": 65, "velocity": 116, "channel": 0}, {"type": "note_on", "time": 22, "note": 60, "velocity": 115, "channel": 0}, {"type": "note_off", "time": 143, "note": 60, "velocity": 115, "channel": 0}, {"type": "note_on", "time": 15, "note": 58, "velocity": 103, "channel": 0}, {"type": "note_off", "time": 268, "note": 58, "velocity": 103, "channel": 0}, {"type": "note_on", "time": 1153, "note": 72, "velocity": 120, "channel": 0}, {"type": "note_off", "time": 84, "note": 72, "velocity": 120, "channel": 0}, {"type": "note_on", "time": 16, "note": 71, "velocity": 112, "channel": 0}, {"type": "note_off", "time": 71, "note": 71, "velocity": 112, "channel": 0}, {"type": "note_on", "time": 13, "note": 70, "velocity": 114, "channel": 0}, {"type": "note_off", "time": 71, "note": 70, "velocity": 114, "channel": 0}, {"type": "note_on", "time": 106, "note": 60, "velocity": 106, "channel": 0}, {"type": "note_off", "time": 62, "note": 60, "velocity": 106, "channel": 0}, {"type": "note_on", "time": 16, "note": 65, "velocity": 119, "channel": 0}, {"type": "note_off", "time": 118, "note": 65, "velocity": 119, "channel": 0}, {"type": "note_on", "time": 13, "note": 69, "velocity": 108, "channel": 0}, {"type": "note_off", "time": 169, "note": 69, "velocity": 108, "channel": 0}, {"type": "note_on", "time": 16, "note": 65, "velocity": 117, "channel": 0}, {"type": "note_off", "time": 99, "note": 65, "velocity": 117, "channel": 0}, {"type": "note_on", "time": 1, "note": 64, "velocity": 113, "channel": 0}, {"type": "note_off", "time": 79, "note": 64, "velocity": 113, "channel": 0}, {"type": "note_on", "time": 34, "note": 62, "velocity": 115, "channel": 0}, {"type": "note_off", "time": 49, "note": 62, "velocity": 115, "channel": 0}, {"type": "note_on", "time": 11, "note": 61, "velocity": 101, "channel": 0}, {"type": "note_off", "time": 78, "note": 61, "velocity": 101, "channel": 0}, {"type": "note_on", "time": 38, "note": 58, "velocity": 111, "channel": 0}, {"type": "note_off", "time": 70, "note": 58, "velocity": 111, "channel": 0}, {"type": "note_on", "time": 7, "note": 57, "velocity": 103, "channel": 0}, {"type": "note_off", "time": 129, "note": 57, "velocity": 103, "channel": 0}, {"type": "note_on", "time": 72, "note": 58, "velocity": 112, "channel": 0}, {"type": "note_off", "time": 79, "note": 58, "velocity": 112, "channel": 0}, {"type": "note_on", "time": 16, "note": 60, "velocity": 112, "channel": 0}, {"type": "note_off", "time": 104, "note": 60, "velocity": 112, "channel": 0}, {"type": "note_on", "time": 78, "note": 58, "velocity": 106, "channel": 0}, {"type": "note_off", "time": 74, "note": 58, "velocity": 106, "channel": 0}, {"type": "note_on", "time": 21, "note": 60, "velocity": 110, "channel": 0}, {"type": "note_off", "time": 163, "note": 60, "velocity": 110, "channel": 0}, {"type": "note_on", "time": 16, "note": 58, "velocity": 107, "channel": 0}, {"type": "note_off", "time": 92, "note": 58, "velocity": 107, "channel": 0}, {"type": "note_on", "time": 656, "note": 65, "velocity": 122, "channel": 0}, {"type": "note_off", "time": 318, "note": 65, "velocity": 122, "channel": 0}, {"type": "note_on", "time": 17, "note": 65, "velocity": 123, "channel": 0}, {"type": "note_off", "time": 70, "note": 65, "velocity": 123, "channel": 0}, {"type": "note_on", "time": 21, "note": 68, "velocity": 119, "channel": 0}, {"type": "note_off", "time": 45, "note": 68, "velocity": 119, "channel": 0}, {"type": "note_on", "time": 7, "note": 67, "velocity": 114, "channel": 0}, {"type": "note_off", "time": 89, "note": 67, "velocity": 114, "channel": 0}, {"type": "note_on", "time": 26, "note": 65, "velocity": 114, "channel": 0}, {"type": "note_off", "time": 103, "note": 65, "velocity": 114, "channel": 0}, {"type": "note_on", "time": 51, "note": 62, "velocity": 112, "channel": 0}, {"type": "note_off", "time": 56, "note": 62, "velocity": 112, "channel": 0}, {"type": "note_on", "time": 8, "note": 65, "velocity": 99, "channel": 0}, {"type": "note_off", "time": 92, "note": 65, "velocity": 99, "channel": 0}, {"type": "note_on", "time": 5, "note": 58, "velocity": 118, "channel": 0}, {"type": "note_off", "time": 72, "note": 58, "velocity": 118, "channel": 0}, {"type": "note_on", "time": 196, "note": 57, "velocity": 115, "channel": 0}, {"type": "note_off", "time": 93, "note": 57, "velocity": 115, "channel": 0}, {"type": "note_on", "time": 43, "note": 60, "velocity": 115, "channel": 0}, {"type": "note_off", "time": 49, "note": 60, "velocity": 115, "channel": 0}, {"type": "note_on", "time": 9, "note": 56, "velocity": 101, "channel": 0}, {"type": "note_off", "time": 98, "note": 56, "velocity": 101, "channel": 0}, {"type": "note_on", "time": 98, "note": 55, "velocity": 111, "channel": 0}, {"type": "note_off", "time": 114, "note": 55, "velocity": 111, "channel": 0}, {"type": "note_on", "time": 106, "note": 53, "velocity": 105, "channel": 0}, {"type": "note_off", "time": 56, "note": 53, "velocity": 105, "channel": 0}, {"type": "note_on", "time": 8, "note": 55, "velocity": 101, "channel": 0}, {"type": "note_off", "time": 39, "note": 55, "velocity": 101, "channel": 0}, {"type": "note_on", "time": 7, "note": 53, "velocity": 110, "channel": 0}, {"type": "note_off", "time": 52, "note": 53, "velocity": 110, "channel": 0}, {"type": "note_on", "time": 232, "note": 58, "velocity": 111, "channel": 0}, {"type": "note_off", "time": 49, "note": 58, "velocity": 111, "channel": 0}, {"type": "note_on", "time": 36, "note": 62, "velocity": 115, "channel": 0}, {"type": "note_off", "time": 162, "note": 62, "velocity": 115, "channel": 0}, {"type": "note_on", "time": 18, "note": 65, "velocity": 119, "channel": 0}, {"type": "note_off", "time": 60, "note": 65, "velocity": 119, "channel": 0}, {"type": "note_on", "time": 12, "note": 61, "velocity": 111, "channel": 0}, {"type": "note_off", "time": 155, "note": 61, "velocity": 111, "channel": 0}, {"type": "note_on", "time": 719, "note": 68, "velocity": 87, "channel": 0}, {"type": "note_off", "time": 28, "note": 68, "velocity": 87, "channel": 0}, {"type": "note_on", "time": 29, "note": 70, "velocity": 117, "channel": 0}, {"type": "note_off", "time": 126, "note": 70, "velocity": 117, "channel": 0}, {"type": "note_on", "time": 105, "note": 67, "velocity": 118, "channel": 0}, {"type": "note_off", "time": 105, "note": 67, "velocity": 118, "channel": 0}, {"type": "note_on", "time": 12, "note": 68, "velocity": 119, "channel": 0}, {"type": "note_off", "time": 182, "note": 68, "velocity": 119, "channel": 0}, {"type": "note_on", "time": 45, "note": 62, "velocity": 9, "channel": 0}, {"type": "note_off", "time": 193, "note": 62, "velocity": 9, "channel": 0}, {"type": "note_on", "time": 787, "note": 72, "velocity": 122, "channel": 0}, {"type": "note_off", "time": 126, "note": 72, "velocity": 122, "channel": 0}, {"type": "note_on", "time": 71, "note": 70, "velocity": 124, "channel": 0}, {"type": "note_off", "time": 126, "note": 70, "velocity": 124, "channel": 0}, {"type": "note_on", "time": 13, "note": 69, "velocity": 123, "channel": 0}, {"type": "note_off", "time": 136, "note": 69, "velocity": 123, "channel": 0}, {"type": "note_on", "time": 18, "note": 67, "velocity": 115, "channel": 0}, {"type": "note_off", "time": 90, "note": 67, "velocity": 115, "channel": 0}, {"type": "note_on", "time": 15, "note": 66, "velocity": 120, "channel": 0}, {"type": "note_off", "time": 127, "note": 66, "velocity": 120, "channel": 0}, {"type": "note_on", "time": 85, "note": 63, "velocity": 103, "channel": 0}, {"type": "note_off", "time": 74, "note": 63, "velocity": 103, "channel": 0}, {"type": "note_on", "time": 39, "note": 65, "velocity": 119, "channel": 0}, {"type": "note_off", "time": 95, "note": 65, "velocity": 119, "channel": 0}, {"type": "note_on", "time": 12, "note": 62, "velocity": 114, "channel": 0}, {"type": "note_off", "time": 107, "note": 62, "velocity": 114, "channel": 0}, {"type": "note_on", "time": 9, "note": 60, "velocity": 102, "channel": 0}, {"type": "note_off", "time": 68, "note": 60, "velocity": 102, "channel": 0}, {"type": "note_on", "time": 25, "note": 58, "velocity": 108, "channel": 0}, {"type": "note_off", "time": 101, "note": 58, "velocity": 108, "channel": 0}, {"type": "note_on", "time": 196, "note": 57, "velocity": 116, "channel": 0}, {"type": "note_off", "time": 60, "note": 57, "velocity": 116, "channel": 0}, {"type": "note_on", "time": 9, "note": 58, "velocity": 111, "channel": 0}, {"type": "note_off", "time": 146, "note": 58, "velocity": 111, "channel": 0}, {"type": "note_on", "time": 11, "note": 60, "velocity": 113, "channel": 0}, {"type": "note_off", "time": 89, "note": 60, "velocity": 113, "channel": 0}, {"type": "note_on", "time": 12, "note": 55, "velocity": 111, "channel": 0}, {"type": "note_off", "time": 96, "note": 55, "velocity": 111, "channel": 0}, {"type": "note_on", "time": 169, "note": 55, "velocity": 105, "channel": 0}, {"type": "note_off", "time": 162, "note": 55, "velocity": 105, "channel": 0}, {"type": "note_on", "time": 231, "note": 60, "velocity": 112, "channel": 0}, {"type": "note_off", "time": 96, "note": 60, "velocity": 112, "channel": 0}, {"type": "note_on", "time": 84, "note": 64, "velocity": 120, "channel": 0}, {"type": "note_off", "time": 145, "note": 64, "velocity": 120, "channel": 0}, {"type": "note_on", "time": 5, "note": 65, "velocity": 115, "channel": 0}, {"type": "note_off", "time": 104, "note": 65, "velocity": 115, "channel": 0}, {"type": "note_on", "time": 69, "note": 64, "velocity": 121, "channel": 0}, {"type": "note_off", "time": 87, "note": 64, "velocity": 121, "channel": 0}, {"type": "note_on", "time": 7, "note": 65, "velocity": 119, "channel": 0}, {"type": "note_off", "time": 116, "note": 65, "velocity": 119, "channel": 0}, {"type": "note_on", "time": 115, "note": 59, "velocity": 107, "channel": 0}, {"type": "note_off", "time": 81, "note": 59, "velocity": 107, "channel": 0}, {"type": "note_on", "time": 0, "note": 60, "velocity": 109, "channel": 0}, {"type": "note_off", "time": 90, "note": 60, "velocity": 109, "channel": 0}, {"type": "note_on", "time": 94, "note": 56, "velocity": 109, "channel": 0}, {"type": "note_off", "time": 79, "note": 56, "velocity": 109, "channel": 0}, {"type": "note_on", "time": 12, "note": 57, "velocity": 112, "channel": 0}, {"type": "note_off", "time": 84, "note": 57, "velocity": 112, "channel": 0}, {"type": "note_on", "time": 283, "note": 56, "velocity": 113, "channel": 0}, {"type": "note_off", "time": 80, "note": 56, "velocity": 113, "channel": 0}, {"type": "note_on", "time": 7, "note": 57, "velocity": 105, "channel": 0}, {"type": "note_off", "time": 96, "note": 57, "velocity": 105, "channel": 0}, {"type": "note_on", "time": 14, "note": 53, "velocity": 103, "channel": 0}, {"type": "note_off", "time": 76, "note": 53, "velocity": 103, "channel": 0}, {"type": "end_of_track", "time": 0}]]}