{"ticks_per_beat": 420, "tracks": [[{"type": "track_name", "name": "Melody", "time": 0}, {"type": "set_tempo", "tempo": 387096, "time": 0}, {"type": "key_signature", "key": "Eb", "time": 0}, {"type": "time_signature", "numerator": 4, "denominator": 4, "clocks_per_click": 24, "notated_32nd_notes_per_beat": 8, "time": 0}, {"type": "note_on", "time": 7963, "note": 64, "velocity": 93, "channel": 0}, {"type": "note_off", "time": 223, "note": 64, "velocity": 93, "channel": 0}, {"type": "note_on", "time": 28, "note": 68, "velocity": 82, "channel": 0}, {"type": "note_off", "time": 62, "note": 68, "velocity": 82, "channel": 0}, {"type": "note_on", "time": 11, "note": 73, "velocity": 102, "channel": 0}, {"type": "note_off", "time": 217, "note": 73, "velocity": 102, "channel": 0}, {"type": "note_on", "time": 45, "note": 66, "velocity": 100, "channel": 0}, {"type": "note_off", "time": 251, "note": 66, "velocity": 100, "channel": 0}, {"type": "note_on", "time": 25, "note": 67, "velocity": 94, "channel": 0}, {"type": "note_off", "time": 220, "note": 67, "velocity": 94, "channel": 0}, {"type": "note_on", "time": 18, "note": 68, "velocity": 91, "channel": 0}, {"type": "note_off", "time": 532, "note": 68, "velocity": 91, "channel": 0}, {"type": "note_on", "time": 1514, "note": 69, "velocity": 94, "channel": 0}, {"type": "note_off", "time": 176, "note": 69, "velocity": 94, "channel": 0}, {"type": "note_on", "time": 6, "note": 70, "velocity": 87, "channel": 0}, {"type": "note_off", "time": 81, "note": 70, "velocity": 87, "channel": 0}, {"type": "note_on", "time": 15, "note": 73, "velocity": 109, "channel": 0}, {"type": "note_off", "time": 154, "note": 73, "velocity": 109, "channel": 0}, {"type": "note_on", "time": 31, "note": 72, "velocity": 109, "channel": 0}, {"type": "note_off", "time": 122, "note": 72, "velocity": 109, "channel": 0}, {"type": "note_on", "time": 15, "note": 70, "velocity": 104, "channel": 0}, {"type": "note_off", "time": 151, "note": 70, "velocity": 104, "channel": 0}, {"type": "note_on", "time": 25, "note": 67, "velocity": 92, "channel": 0}, {"type": "note_off", "time": 100, "note": 67, "velocity": 92, "channel": 0}, {"type": "note_on", "time": 12, "note": 72, "velocity": 106, "channel": 0}, {"type": "note_off", "time": 81, "note": 72, "velocity": 106, "channel": 0}, {"type": "note_on", "time": 75, "note": 70, "velocity": 83, "channel": 0}, {"type": "note_off", "time": 53, "note": 70, "velocity": 83, "channel": 0}, {"type": "note_on", "time": 96, "note": 77, "velocity": 104, "channel": 0}, {"type": "note_off", "time": 99, "note": 77, "velocity": 104, "channel": 0}, {"type": "note_on", "time": 90, "note": 69, "velocity": 107, "channel": 0}, {"type": "note_off", "time": 137, "note": 69, "velocity": 107, "channel": 0}, {"type": "note_on", "time": 36, "note": 70, "velocity": 107, "channel": 0}, {"type": "note_off", "time": 119, "note": 70, "velocity": 107, "channel": 0}, {"type": "note_on", "time": 25, "note": 69, "velocity": 107, "channel": 0}, {"type": "note_off", "time": 97, "note": 69, "velocity": 107, "channel": 0}, {"type": "note_on", "time": 37, "note": 67, "velocity": 94, "channel": 0}, {"type": "note_off", "time": 88, "note": 67, "velocity": 94, "channel": 0}, {"type": "note_on", "time": 37, "note": 65, "velocity": 105, "channel": 0}, {"type": "note_off", "time": 113, "note": 65, "velocity": 105, "channel": 0}, {"type": "note_on", "time": 42, "note": 64, "velocity": 100, "channel": 0}, {"type": "note_off", "time": 123, "note": 64, "velocity": 100, "channel": 0}, {"type": "note_on", "time": 6, "note": 62, "velocity": 87, "channel": 0}, {"type": "note_off", "time": 141, "note": 62, "velocity": 87, "channel": 0}, {"type": "note_on", "time": 3, "note": 63, "velocity": 101, "channel": 0}, {"type": "note_off", "time": 116, "note": 63, "velocity": 101, "channel": 0}, {"type": "note_on", "time": 47, "note": 65, "velocity": 106, "channel": 0}, {"type": "note_off", "time": 103, "note": 65, "velocity": 106, "channel": 0}, {"type": "note_on", "time": 22, "note": 66, "velocity": 103, "channel": 0}, {"type": "note_off", "time": 116, "note": 66, "velocity": 103, "channel": 0}, {"type": "note_on", "time": 13, "note": 63, "velocity": 75, "channel": 0}, {"type": "note_off", "time": 88, "note": 63, "velocity": 75, "channel": 0}, {"type": "note_on", "time": 55, "note": 65, "velocity": 99, "channel": 0}, {"type": "note_off", "time": 529, "note": 65, "velocity": 99, "channel": 0}, {"type": "note_on", "time": 18, "note": 63, "velocity": 88, "channel": 0}, {"type": "note_off", "time": 119, "note": 63, "velocity": 88, "channel": 0}, {"type": "note_on", "time": 2409, "note": 75, "velocity": 114, "channel": 0}, {"type": "note_off", "time": 141, "note": 75, "velocity": 114, "channel": 0}, {"type": "note_on", "time": 33, "note": 73, "velocity": 109, "channel": 0}, {"type": "note_off", "time": 101, "note": 73, "velocity": 109, "channel": 0}, {"type": "note_on", "time": 37, "note": 72, "velocity": 102, "channel": 0}, {"type": "note_off", "time": 115, "note": 72, "velocity": 102, "channel": 0}, {"type": "note_on", "time": 42, "note": 70, "velocity": 105, "channel": 0}, {"type": "note_off", "time": 115, "note": 70, "velocity": 105, "channel": 0}, {"type": "note_on", "time": 26, "note": 67, "velocity": 94, "channel": 0}, {"type": "note_off", "time": 81, "note": 67, "velocity": 94, "channel": 0}, {"type": "note_on", "time": 15, "note": 69, "velocity": 108, "channel": 0}, {"type": "note_off", "time": 112, "note": 69, "velocity": 108, "channel": 0}, {"type": "note_on", "time": 15, "note": 70, "velocity": 103, "channel": 0}, {"type": "note_off", "time": 150, "note": 70, "velocity": 103, "channel": 0}, {"type": "note_on", "time": 15, "note": 72, "velocity": 97, "channel": 0}, {"type": "note_off", "time": 135, "note": 72, "velocity": 97, "channel": 0}, {"type": "note_on", "time": 13, "note": 71, "velocity": 94, "channel": 0}, {"type": "note_off", "time": 81, "note": 71, "velocity": 94, "channel": 0}, {"type": "note_on", "time": 37, "note": 70, "velocity": 101, "channel": 0}, {"type": "note_off", "time": 119, "note": 70, "velocity": 101, "channel": 0}, {"type": "note_on", "time": 11, "note": 69, "velocity": 103, "channel": 0}, {"type": "note_off", "time": 141, "note": 69, "velocity": 103, "channel": 0}, {"type": "note_on", "time": 22, "note": 67, "velocity": 104, "channel": 0}, {"type": "note_off", "time": 101, "note": 67, "velocity": 104, "channel": 0}, {"type": "note_on", "time": 24, "note": 65, "velocity": 100, "channel": 0}, {"type": "note_off", "time": 148, "note": 65, "velocity": 100, "channel": 0}, {"type": "note_on", "time": 15, "note": 62, "velocity": 88, "channel": 0}, {"type": "note_on", "time": 100, "note": 63, "velocity": 100, "channel": 0}, {"type": "note_off", "time": 0, "note": 62, "velocity": 88, "channel": 0}, {"type": "note_off", "time": 128, "note": 63, "velocity": 100, "channel": 0}, {"type": "note_on", "time": 14, "note": 61, "velocity": 94, "channel": 0}, {"type": "note_off", "time": 107, "note": 61, "velocity": 94, "channel": 0}, {"type": "note_on", "time": 14, "note": 60, "velocity": 94, "channel": 0}, {"type": "note_off", "time": 107, "note": 60, "velocity": 94, "channel": 0}, {"type": "note_on", "time": 28, "note": 58, "velocity": 103, "channel": 0}, {"type": "note_off", "time": 133, "note": 58, "velocity": 103, "channel": 0}, {"type": "note_on", "time": 6, "note": 57, "velocity": 97, "channel": 0}, {"type": "note_off", "time": 162, "note": 57, "velocity": 97, "channel": 0}, {"type": "note_on", "time": 6, "note": 55, "velocity": 88, "channel": 0}, {"type": "note_off", "time": 97, "note": 55, "velocity": 88, "channel": 0}, {"type": "note_on", "time": 4, "note": 57, "velocity": 101, "channel": 0}, {"type": "note_off", "time": 632, "note": 57, "velocity": 101, "channel": 0}, {"type": "note_on", "time": 4, "note": 58, "velocity": 101, "channel": 0}, {"type": "note_off", "time": 163, "note": 58, "velocity": 101, "channel": 0}, {"type": "note_on", "time": 14, "note": 54, "velocity": 84, "channel": 0}, {"type": "note_off", "time": 2161, "note": 54, "velocity": 84, "channel": 0}, {"type": "note_on", "time": 872, "note": 67, "velocity": 101, "channel": 0}, {"type": "note_off", "time": 67, "note": 67, "velocity": 101, "channel": 0}, {"type": "note_on", "time": 179, "note": 78, "velocity": 109, "channel": 0}, {"type": "note_off", "time": 414, "note": 78, "velocity": 109, "channel": 0}, {"type": "note_on", "time": 168, "note": 75, "velocity": 103, "channel": 0}, {"type": "note_off", "time": 285, "note": 75, "velocity": 103, "channel": 0}, {"type": "note_on", "time": 31, "note": 64, "velocity": 101, "channel": 0}, {"type": "note_off", "time": 301, "note": 64, "velocity": 101, "channel": 0}, {"type": "note_on", "time": 254, "note": 61, "velocity": 97, "channel": 0}, {"type": "note_off", "time": 101, "note": 61, "velocity": 97, "channel": 0}, {"type": "note_on", "time": 159, "note": 72, "velocity": 98, "channel": 0}, {"type": "note_off", "time": 469, "note": 72, "velocity": 98, "channel": 0}, {"type": "note_on", "time": 124, "note": 69, "velocity": 102, "channel": 0}, {"type": "note_off", "time": 285, "note": 69, "velocity": 102, "channel": 0}, {"type": "note_on", "time": 31, "note": 58, "velocity": 105, "channel": 0}, {"type": "note_off", "time": 378, "note": 58, "velocity": 105, "channel": 0}, {"type": "note_on", "time": 2681, "note": 82, "velocity": 114, "channel": 0}, {"type": "note_off", "time": 199, "note": 82, "velocity": 114, "channel": 0}, {"type": "note_on", "time": 4, "note": 79, "velocity": 85, "channel": 0}, {"type": "note_off", "time": 57, "note": 79, "velocity": 85, "channel": 0}, {"type": "note_on", "time": 4, "note": 82, "velocity": 114, "channel": 0}, {"type": "note_off", "time": 152, "note": 82, "velocity": 114, "channel": 0}, {"type": "note_on", "time": 14, "note": 85, "velocity": 115, "channel": 0}, {"type": "note_off", "time": 135, "note": 85, "velocity": 115, "channel": 0}, {"type": "note_on", "time": 7, "note": 84, "velocity": 114, "channel": 0}, {"type": "note_off", "time": 132, "note": 84, "velocity": 114, "channel": 0}, {"type": "note_on", "time": 15, "note": 82, "velocity": 108, "channel": 0}, {"type": "note_off", "time": 144, "note": 82, "velocity": 108, "channel": 0}, {"type": "note_on", "time": 7, "note": 81, "velocity": 108, "channel": 0}, {"type": "note_off", "time": 151, "note": 81, "velocity": 108, "channel": 0}, {"type": "note_on", "time": 6, "note": 77, "velocity": 93, "channel": 0}, {"type": "note_off", "time": 72, "note": 77, "velocity": 93, "channel": 0}, {"type": "note_on", "time": 23, "note": 81, "velocity": 105, "channel": 0}, {"type": "note_off", "time": 140, "note": 81, "velocity": 105, "channel": 0}, {"type": "note_on", "time": 15, "note": 79, "velocity": 108, "channel": 0}, {"type": "note_off", "time": 125, "note": 79, "velocity": 108, "channel": 0}, {"type": "note_on", "time": 3, "note": 77, "velocity": 110, "channel": 0}, {"type": "note_off", "time": 136, "note": 77, "velocity": 110, "channel": 0}, {"type": "note_on", "time": 15, "note": 76, "velocity": 110, "channel": 0}, {"type": "note_off", "time": 121, "note": 76, "velocity": 110, "channel": 0}, {"type": "note_on", "time": 14, "note": 75, "velocity": 109, "channel": 0}, {"type": "note_off", "time": 111, "note": 75, "velocity": 109, "channel": 0}, {"type": "note_on", "time": 56, "note": 73, "velocity": 103, "channel": 0}, {"type": "note_off", "time": 96, "note": 73, "velocity": 103, "channel": 0}, {"type": "note_on", "time": 55, "note": 72, "velocity": 102, "channel": 0}, {"type": "note_off", "time": 83, "note": 72, "velocity": 102, "channel": 0}, {"type": "note_on", "time": 67, "note": 70, "velocity": 103, "channel": 0}, {"type": "note_off", "time": 86, "note": 70, "velocity": 103, "channel": 0}, {"type": "note_on", "time": 45, "note": 69, "velocity": 99, "channel": 0}, {"type": "note_off", "time": 127, "note": 69, "velocity": 99, "channel": 0}, {"type": "note_on", "time": 37, "note": 67, "velocity": 91, "channel": 0}, {"type": "note_off", "time": 45, "note": 67, "velocity": 91, "channel": 0}, {"type": "note_on", "time": 3, "note": 69, "velocity": 92, "channel": 0}, {"type": "note_off", "time": 34, "note": 69, "velocity": 92, "channel": 0}, {"type": "note_on", "time": 1, "note": 72, "velocity": 111, "channel": 0}, {"type": "note_off", "time": 143, "note": 72, "velocity": 111, "channel": 0}, {"type": "note_on", "time": 29, "note": 69, "velocity": 92, "channel": 0}, {"type": "note_off", "time": 67, "note": 69, "velocity": 92, "channel": 0}, {"type": "note_on", "time": 12, "note": 70, "velocity": 106, "channel": 0}, {"type": "note_off", "time": 157, "note": 70, "velocity": 106, "channel": 0}, {"type": "note_on", "time": 9, "note": 68, "velocity": 91, "channel": 0}, {"type": "note_off", "time": 105, "note": 68, "velocity": 91, "channel": 0}, {"type": "note_on", "time": 9, "note": 69, "velocity": 103, "channel": 0}, {"type": "note_off", "time": 135, "note": 69, "velocity": 103, "channel": 0}, {"type": "note_on", "time": 23, "note": 66, "velocity": 92, "channel": 0}, {"type": "note_off", "time": 88, "note": 66, "velocity": 92, "channel": 0}, {"type": "note_on", "time": 11, "note": 67, "velocity": 101, "channel": 0}, {"type": "note_off", "time": 439, "note": 67, "velocity": 101, "channel": 0}, {"type": "note_on", "time": 231, "note": 63, "velocity": 101, "channel": 0}, {"type": "note_off", "time": 214, "note": 63, "velocity": 101, "channel": 0}, {"type": "note_on", "time": 13, "note": 64, "velocity": 104, "channel": 0}, {"type": "note_off", "time": 305, "note": 64, "velocity": 104, "channel": 0}, {"type": "note_on", "time": 28, "note": 66, "velocity": 104, "channel": 0}, {"type": "note_off", "time": 876, "note": 66, "velocity": 104, "channel": 0}, {"type": "note_on", "time": 33, "note": 63, "velocity": 108, "channel": 0}, {"type": "note_off", "time": 135, "note": 63, "velocity": 108, "channel": 0}, {"type": "note_on", "time": 11, "note": 64, "velocity": 104, "channel": 0}, {"type": "note_off", "time": 130, "note": 64, "velocity": 104, "channel": 0}, {"type": "note_on", "time": 70, "note": 60, "velocity": 92, "channel": 0}, {"type": "note_off", "time": 90, "note": 60, "velocity": 92, "channel": 0}, {"type": "note_on", "time": 6, "note": 61, "velocity": 101, "channel": 0}, {"type": "note_off", "time": 496, "note": 61, "velocity": 101, "channel": 0}, {"type": "note_on", "time": 44, "note": 57, "velocity": 102, "channel": 0}, {"type": "note_off", "time": 241, "note": 57, "velocity": 102, "channel": 0}, {"type": "note_on", "time": 8, "note": 58, "velocity": 101, "channel": 0}, {"type": "note_off", "time": 108, "note": 58, "velocity": 101, "channel": 0}, {"type": "note_on", "time": 2, "note": 54, "velocity": 91, "channel": 0}, {"type": "note_off", "time": 137, "note": 54, "velocity": 91, "channel": 0}, {"type": "note_on", "time": 11, "note": 55, "velocity": 96, "channel": 0}, {"type": "note_off", "time": 90, "note": 55, "velocity": 96, "channel": 0}, {"type": "note_on", "time": 37, "note": 51, "velocity": 90, "channel": 0}, {"type": "note_off", "time": 139, "note": 51, "velocity": 90, "channel": 0}, {"type": "note_on", "time": 15, "note": 54, "velocity": 91, "channel": 0}, {"type": "note_off", "time": 119, "note": 54, "velocity": 91, "channel": 0}, {"type": "note_on", "time": 1055, "note": 77, "velocity": 112, "channel": 0}, {"type": "note_off", "time": 51, "note": 77, "velocity": 112, "channel": 0}, {"type": "note_on", "time": 0, "note": 76, "velocity": 113, "channel": 0}, {"type": "note_off", "time": 62, "note": 76, "velocity": 113, "channel": 0}, {"type": "note_on", "time": 22, "note": 75, "velocity": 103, "channel": 0}, {"type": "note_off", "time": 85, "note": 75, "velocity": 103, "channel": 0}, {"type": "note_on", "time": 32, "note": 79, "velocity": 96, "channel": 0}, {"type": "note_off", "time": 84, "note": 79, "velocity": 96, "channel": 0}, {"type": "note_on", "time": 170, "note": 67, "velocity": 89, "channel": 0}, {"type": "note_off", "time": 69, "note": 67, "velocity": 89, "channel": 0}, {"type": "note_on", "time": 183, "note": 70, "velocity": 107, "channel": 0}, {"type": "note_off", "time": 255, "note": 70, "velocity": 107, "channel": 0}, {"type": "note_on", "time": 0, "note": 67, "velocity": 85, "channel": 0}, {"type": "note_off", "time": 62, "note": 67, "velocity": 85, "channel": 0}, {"type": "note_on", "time": 2, "note": 69, "velocity": 110, "channel": 0}, {"type": "note_off", "time": 244, "note": 69, "velocity": 110, "channel": 0}, {"type": "note_on", "time": 22, "note": 77, "velocity": 93, "channel": 0}, {"type": "note_off", "time": 69, "note": 77, "velocity": 93, "channel": 0}, {"type": "note_on", "time": 1204, "note": 76, "velocity": 102, "channel": 0}, {"type": "note_off", "time": 45, "note": 76, "velocity": 102, "channel": 0}, {"type": "note_on", "time": 3, "note": 77, "velocity": 105, "channel": 0}, {"type": "note_off", "time": 29, "note": 77, "velocity": 105, "channel": 0}, {"type": "note_on", "time": 72, "note": 69, "velocity": 106, "channel": 0}, {"type": "note_off", "time": 130, "note": 69, "velocity": 106, "channel": 0}, {"type": "note_on", "time": 25, "note": 70, "velocity": 104, "channel": 0}, {"type": "note_off", "time": 1121, "note": 70, "velocity": 104, "channel": 0}, {"type": "note_on", "time": 11, "note": 72, "velocity": 97, "channel": 0}, {"type": "note_off", "time": 72, "note": 72, "velocity": 97, "channel": 0}, {"type": "note_on", "time": 4, "note": 73, "velocity": 106, "channel": 0}, {"type": "note_off", "time": 198, "note": 73, "velocity": 106, "channel": 0}, {"type": "note_on", "time": 4, "note": 67, "velocity": 90, "channel": 0}, {"type": "note_off", "time": 95, "note": 67, "velocity": 90, "channel": 0}, {"type": "note_on", "time": 5, "note": 69, "velocity": 105, "channel": 0}, {"type": "note_off", "time": 156, "note": 69, "velocity": 105, "channel": 0}, {"type": "note_on", "time": 21, "note": 70, "velocity": 104, "channel": 0}, {"type": "note_off", "time": 96, "note": 70, "velocity": 104, "channel": 0}, {"type": "note_on", "time": 1, "note": 72, "velocity": 98, "channel": 0}, {"type": "note_off", "time": 304, "note": 72, "velocity": 98, "channel": 0}, {"type": "note_on", "time": 1966, "note": 72, "velocity": 104, "channel": 0}, {"type": "note_off", "time": 132, "note": 72, "velocity": 104, "channel": 0}, {"type": "note_on", "time": 90, "note": 67, "velocity": 86, "channel": 0}, {"type": "note_off", "time": 67, "note": 67, "velocity": 86, "channel": 0}, {"type": "note_on", "time": 3, "note": 70, "velocity": 108, "channel": 0}, {"type": "note_off", "time": 96, "note": 70, "velocity": 108, "channel": 0}, {"type": "note_on", "time": 14, "note": 69, "velocity": 104, "channel": 0}, {"type": "note_off", "time": 150, "note": 69, "velocity": 104, "channel": 0}, {"type": "note_on", "time": 11, "note": 67, "velocity": 96, "channel": 0}, {"type": "note_off", "time": 119, "note": 67, "velocity": 96, "channel": 0}, {"type": "note_on", "time": 14, "note": 65, "velocity": 101, "channel": 0}, {"type": "note_off", "time": 122, "note": 65, "velocity": 101, "channel": 0}, {"type": "note_on", "time": 26, "note": 62, "velocity": 93, "channel": 0}, {"type": "note_off", "time": 100, "note": 62, "velocity": 93, "channel": 0}, {"type": "note_on", "time": 6, "note": 63, "velocity": 95, "channel": 0}, {"type": "note_off", "time": 129, "note": 63, "velocity": 95, "channel": 0}, {"type": "note_on", "time": 15, "note": 65, "velocity": 98, "channel": 0}, {"type": "note_off", "time": 129, "note": 65, "velocity": 98, "channel": 0}, {"type": "note_on", "time": 6, "note": 67, "velocity": 85, "channel": 0}, {"type": "note_off", "time": 94, "note": 67, "velocity": 85, "channel": 0}, {"type": "note_on", "time": 7, "note": 69, "velocity": 106, "channel": 0}, {"type": "note_off", "time": 125, "note": 69, "velocity": 106, "channel": 0}, {"type": "note_on", "time": 15, "note": 70, "velocity": 107, "channel": 0}, {"type": "note_off", "time": 126, "note": 70, "velocity": 107, "channel": 0}, {"type": "note_on", "time": 19, "note": 72, "velocity": 109, "channel": 0}, {"type": "note_off", "time": 118, "note": 72, "velocity": 109, "channel": 0}, {"type": "note_on", "time": 11, "note": 73, "velocity": 108, "channel": 0}, {"type": "note_off", "time": 112, "note": 73, "velocity": 108, "channel": 0}, {"type": "note_on", "time": 26, "note": 75, "velocity": 112, "channel": 0}, {"type": "note_off", "time": 133, "note": 75, "velocity": 112, "channel": 0}, {"type": "note_on", "time": 10, "note": 77, "velocity": 114, "channel": 0}, {"type": "note_off", "time": 125, "note": 77, "velocity": 114, "channel": 0}, {"type": "note_on", "time": 136, "note": 79, "velocity": 116, "channel": 0}, {"type": "note_off", "time": 140, "note": 79, "velocity": 116, "channel": 0}, {"type": "note_on", "time": 7, "note": 82, "velocity": 115, "channel": 0}, {"type": "note_off", "time": 141, "note": 82, "velocity": 115, "channel": 0}, {"type": "note_on", "time": 11, "note": 84, "velocity": 127, "channel": 0}, {"type": "note_off", "time": 133, "note": 84, "velocity": 127, "channel": 0}, {"type": "note_on", "time": 11, "note": 85, "velocity": 119, "channel": 0}, {"type": "note_off", "time": 122, "note": 85, "velocity": 119, "channel": 0}, {"type": "note_on", "time": 8, "note": 86, "velocity": 125, "channel": 0}, {"type": "note_off", "time": 140, "note": 86, "velocity": 125, "channel": 0}, {"type": "note_on", "time": 9, "note": 89, "velocity": 115, "channel": 0}, {"type": "note_off", "time": 139, "note": 89, "velocity": 115, "channel": 0}, {"type": "note_on", "time": 1696, "note": 82, "velocity": 114, "channel": 0}, {"type": "note_off", "time": 206, "note": 82, "velocity": 114, "channel": 0}, {"type": "note_on", "time": 10, "note": 83, "velocity": 108, "channel": 0}, {"type": "note_off", "time": 48, "note": 83, "velocity": 108, "channel": 0}, {"type": "note_on", "time": 6, "note": 82, "velocity": 111, "channel": 0}, {"type": "note_off", "time": 167, "note": 82, "velocity": 111, "channel": 0}, {"type": "note_on", "time": 63, "note": 89, "velocity": 106, "channel": 0}, {"type": "note_off", "time": 239, "note": 89, "velocity": 106, "channel": 0}, {"type": "note_on", "time": 24, "note": 82, "velocity": 114, "channel": 0}, {"type": "note_off", "time": 184, "note": 82, "velocity": 114, "channel": 0}, {"type": "note_on", "time": 13, "note": 81, "velocity": 112, "channel": 0}, {"type": "note_off", "time": 322, "note": 81, "velocity": 112, "channel": 0}, {"type": "note_on", "time": 12, "note": 80, "velocity": 99, "channel": 0}, {"type": "note_off", "time": 5347, "note": 80, "velocity": 99, "channel": 0}, {"type": "note_on", "time": 15, "note": 79, "velocity": 98, "channel": 0}, {"type": "note_off", "time": 63, "note": 79, "velocity": 98, "channel": 0}, {"type": "note_on", "time": 7, "note": 77, "velocity": 94, "channel": 0}, {"type": "note_off", "time": 63, "note": 77, "velocity": 94, "channel": 0}, {"type": "note_on", "time": 9, "note": 78, "velocity": 95, "channel": 0}, {"type": "note_off", "time": 85, "note": 78, "velocity": 95, "channel": 0}, {"type": "note_on", "time": 4, "note": 76, "velocity": 97, "channel": 0}, {"type": "note_off", "time": 29, "note": 76, "velocity": 97, "channel": 0}, {"type": "note_on", "time": 7, "note": 75, "velocity": 95, "channel": 0}, {"type": "note_off", "time": 164, "note": 75, "velocity": 95, "channel": 0}, {"type": "note_on", "time": 2183, "note": 75, "velocity": 113, "channel": 0}, {"type": "note_off", "time": 179, "note": 75, "velocity": 113, "channel": 0}, {"type": "note_on", "time": 3, "note": 77, "velocity": 96, "channel": 0}, {"type": "note_off", "time": 66, "note": 77, "velocity": 96, "channel": 0}, {"type": "note_on", "time": 6, "note": 78, "velocity": 113, "channel": 0}, {"type": "note_off", "time": 184, "note": 78, "velocity": 113, "channel": 0}, {"type": "note_on", "time": 6, "note": 80, "velocity": 107, "channel": 0}, {"type": "note_off", "time": 125, "note": 80, "velocity": 107, "channel": 0}, {"type": "note_on", "time": 7, "note": 82, "velocity": 109, "channel": 0}, {"type": "note_off", "time": 121, "note": 82, "velocity": 109, "channel": 0}, {"type": "note_on", "time": 28, "note": 82, "velocity": 101, "channel": 0}, {"type": "note_off", "time": 44, "note": 82, "velocity": 101, "channel": 0}, {"type": "note_on", "time": 7, "note": 80, "velocity": 104, "channel": 0}, {"type": "note_off", "time": 64, "note": 80, "velocity": 104, "channel": 0}, {"type": "note_on", "time": 3, "note": 78, "velocity": 106, "channel": 0}, {"type": "note_off", "time": 119, "note": 78, "velocity": 106, "channel": 0}, {"type": "note_on", "time": 39, "note": 76, "velocity": 109, "channel": 0}, {"type": "note_off", "time": 85, "note": 76, "velocity": 109, "channel": 0}, {"type": "note_on", "time": 53, "note": 75, "velocity": 109, "channel": 0}, {"type": "note_off", "time": 107, "note": 75, "velocity": 109, "channel": 0}, {"type": "note_on", "time": 44, "note": 73, "velocity": 108, "channel": 0}, {"type": "note_off", "time": 111, "note": 73, "velocity": 108, "channel": 0}, {"type": "note_on", "time": 34, "note": 69, "velocity": 103, "channel": 0}, {"type": "note_off", "time": 116, "note": 69, "velocity": 103, "channel": 0}, {"type": "note_on", "time": 144, "note": 72, "velocity": 105, "channel": 0}, {"type": "note_off", "time": 239, "note": 72, "velocity": 105, "channel": 0}, {"type": "note_on", "time": 22, "note": 73, "velocity": 105, "channel": 0}, {"type": "note_off", "time": 192, "note": 73, "velocity": 105, "channel": 0}, {"type": "note_on", "time": 14, "note": 75, "velocity": 106, "channel": 0}, {"type": "note_off", "time": 455, "note": 75, "velocity": 106, "channel": 0}, {"type": "note_on", "time": 39, "note": 67, "velocity": 98, "channel": 0}, {"type": "note_off", "time": 163, "note": 67, "velocity": 98, "channel": 0}, {"type": "note_on", "time": 6, "note": 68, "velocity": 83, "channel": 0}, {"type": "note_off", "time": 72, "note": 68, "velocity": 83, "channel": 0}, {"type": "note_on", "time": 6, "note": 70, "velocity": 107, "channel": 0}, {"type": "note_off", "time": 177, "note": 70, "velocity": 107, "channel": 0}, {"type": "note_on", "time": 7, "note": 68, "velocity": 86, "channel": 0}, {"type": "note_off", "time": 75, "note": 68, "velocity": 86, "channel": 0}, {"type": "note_on", "time": 7, "note": 73, "velocity": 107, "channel": 0}, {"type": "note_off", "time": 156, "note": 73, "velocity": 107, "channel": 0}, {"type": "note_on", "time": 14, "note": 72, "velocity": 106, "channel": 0}, {"type": "note_off", "time": 126, "note": 72, "velocity": 106, "channel": 0}, {"type": "note_on", "time": 11, "note": 70, "velocity": 104, "channel": 0}, {"type": "note_off", "time": 141, "note": 70, "velocity": 104, "channel": 0}, {"type": "note_on", "time": 24, "note": 66, "velocity": 83, "channel": 0}, {"type": "note_off", "time": 78, "note": 66, "velocity": 83, "channel": 0}, {"type": "note_on", "time": 2, "note": 69, "velocity": 103, "channel": 0}, {"type": "note_off", "time": 122, "note": 69, "velocity": 103, "channel": 0}, {"type": "note_on", "time": 36, "note": 70, "velocity": 102, "channel": 0}, {"type": "note_off", "time": 107, "note": 70, "velocity": 102, "channel": 0}, {"type": "note_on", "time": 9, "note": 72, "velocity": 103, "channel": 0}, {"type": "note_off", "time": 113, "note": 72, "velocity": 103, "channel": 0}, {"type": "note_on", "time": 18, "note": 75, "velocity": 105, "channel": 0}, {"type": "note_off", "time": 99, "note": 75, "velocity": 105, "channel": 0}, {"type": "note_on", "time": 48, "note": 64, "velocity": 105, "channel": 0}, {"type": "note_off", "time": 137, "note": 64, "velocity": 105, "channel": 0}, {"type": "note_on", "time": 14, "note": 62, "velocity": 93, "channel": 0}, {"type": "note_off", "time": 104, "note": 62, "velocity": 93, "channel": 0}, {"type": "note_on", "time": 7, "note": 67, "velocity": 97, "channel": 0}, {"type": "note_off", "time": 141, "note": 67, "velocity": 97, "channel": 0}, {"type": "note_on", "time": 22, "note": 69, "velocity": 106, "channel": 0}, {"type": "note_off", "time": 125, "note": 69, "velocity": 106, "channel": 0}, {"type": "note_on", "time": 18, "note": 71, "velocity": 99, "channel": 0}, {"type": "note_off", "time": 140, "note": 71, "velocity": 99, "channel": 0}, {"type": "note_on", "time": 21, "note": 62, "velocity": 88, "channel": 0}, {"type": "note_off", "time": 122, "note": 62, "velocity": 88, "channel": 0}, {"type": "note_on", "time": 5, "note": 65, "velocity": 97, "channel": 0}, {"type": "note_off", "time": 141, "note": 65, "velocity": 97, "channel": 0}, {"type": "note_on", "time": 10, "note": 62, "velocity": 91, "channel": 0}, {"type": "note_off", "time": 97, "note": 62, "velocity": 91, "channel": 0}, {"type": "note_on", "time": 23, "note": 63, "velocity": 102, "channel": 0}, {"type": "note_off", "time": 120, "note": 63, "velocity": 102, "channel": 0}, {"type": "note_on", "time": 18, "note": 65, "velocity": 95, "channel": 0}, {"type": "note_off", "time": 112, "note": 65, "velocity": 95, "channel": 0}, {"type": "note_on", "time": 7, "note": 67, "velocity": 88, "channel": 0}, {"type": "note_off", "time": 102, "note": 67, "velocity": 88, "channel": 0}, {"type": "note_on", "time": 15, "note": 69, "velocity": 100, "channel": 0}, {"type": "note_off", "time": 108, "note": 69, "velocity": 100, "channel": 0}, {"type": "note_on", "time": 34, "note": 70, "velocity": 99, "channel": 0}, {"type": "note_off", "time": 89, "note": 70, "velocity": 99, "channel": 0}, {"type": "note_on", "time": 63, "note": 72, "velocity": 90, "channel": 0}, {"type": "note_off", "time": 88, "note": 72, "velocity": 90, "channel": 0}, {"type": "note_on", "time": 65, "note": 73, "velocity": 104, "channel": 0}, {"type": "note_off", "time": 123, "note": 73, "velocity": 104, "channel": 0}, {"type": "note_on", "time": 19, "note": 67, "velocity": 95, "channel": 0}, {"type": "note_off", "time": 97, "note": 67, "velocity": 95, "channel": 0}, {"type": "note_on", "time": 29, "note": 72, "velocity": 104, "channel": 0}, {"type": "note_off", "time": 122, "note": 72, "velocity": 104, "channel": 0}, {"type": "note_on", "time": 9, "note": 71, "velocity": 102, "channel": 0}, {"type": "note_off", "time": 106, "note": 71, "velocity": 102, "channel": 0}, {"type": "note_on", "time": 31, "note": 70, "velocity": 24, "channel": 0}, {"type": "note_off", "time": 137, "note": 70, "velocity": 24, "channel": 0}, {"type": "note_on", "time": 14, "note": 67, "velocity": 87, "channel": 0}, {"type": "note_off", "time": 99, "note": 67, "velocity": 87, "channel": 0}, {"type": "note_on", "time": 8, "note": 69, "velocity": 104, "channel": 0}, {"type": "note_off", "time": 140, "note": 69, "velocity": 104, "channel": 0}, {"type": "note_on", "time": 22, "note": 67, "velocity": 102, "channel": 0}, {"type": "note_off", "time": 132, "note": 67, "velocity": 102, "channel": 0}, {"type": "note_on", "time": 7, "note": 65, "velocity": 104, "channel": 0}, {"type": "note_off", "time": 137, "note": 65, "velocity": 104, "channel": 0}, {"type": "note_on", "time": 17, "note": 64, "velocity": 102, "channel": 0}, {"type": "note_off", "time": 110, "note": 64, "velocity": 102, "channel": 0}, {"type": "note_on", "time": 35, "note": 63, "velocity": 98, "channel": 0}, {"type": "note_off", "time": 118, "note": 63, "velocity": 98, "channel": 0}, {"type": "note_on", "time": 32, "note": 61, "velocity": 94, "channel": 0}, {"type": "note_off", "time": 108, "note": 61, "velocity": 94, "channel": 0}, {"type": "note_on", "time": 27, "note": 60, "velocity": 92, "channel": 0}, {"type": "note_off", "time": 116, "note": 60, "velocity": 92, "channel": 0}, {"type": "note_on", "time": 32, "note": 58, "velocity": 93, "channel": 0}, {"type": "note_off", "time": 130, "note": 58, "velocity": 93, "channel": 0}, {"type": "note_on", "time": 32, "note": 57, "velocity": 99, "channel": 0}, {"type": "note_off", "time": 132, "note": 57, "velocity": 99, "channel": 0}, {"type": "note_on", "time": 36, "note": 69, "velocity": 95, "channel": 0}, {"type": "note_off", "time": 213, "note": 69, "velocity": 95, "channel": 0}, {"type": "note_on", "time": 786, "note": 70, "velocity": 107, "channel": 0}, {"type": "note_off", "time": 181, "note": 70, "velocity": 107, "channel": 0}, {"type": "note_on", "time": 15, "note": 69, "velocity": 96, "channel": 0}, {"type": "note_off", "time": 61, "note": 69, "velocity": 96, "channel": 0}, {"type": "note_on", "time": 15, "note": 70, "velocity": 104, "channel": 0}, {"type": "note_off", "time": 508, "note": 70, "velocity": 104, "channel": 0}, {"type": "note_on", "time": 9, "note": 72, "velocity": 94, "channel": 0}, {"type": "note_off", "time": 155, "note": 72, "velocity": 94, "channel": 0}, {"type": "note_on", "time": 3186, "note": 70, "velocity": 113, "channel": 0}, {"type": "note_off", "time": 208, "note": 70, "velocity": 113, "channel": 0}, {"type": "note_on", "time": 8, "note": 81, "velocity": 111, "channel": 0}, {"type": "note_off", "time": 86, "note": 81, "velocity": 111, "channel": 0}, {"type": "note_on", "time": 212, "note": 81, "velocity": 98, "channel": 0}, {"type": "note_off", "time": 110, "note": 81, "velocity": 98, "channel": 0}, {"type": "note_on", "time": 276, "note": 81, "velocity": 115, "channel": 0}, {"type": "note_off", "time": 325, "note": 81, "velocity": 115, "channel": 0}, {"type": "note_on", "time": 13, "note": 81, "velocity": 116, "channel": 0}, {"type": "note_off", "time": 201, "note": 81, "velocity": 116, "channel": 0}, {"type": "note_on", "time": 25, "note": 81, "velocity": 115, "channel": 0}, {"type": "note_off", "time": 314, "note": 81, "velocity": 115, "channel": 0}, {"type": "note_on", "time": 14, "note": 81, "velocity": 117, "channel": 0}, {"type": "note_off", "time": 220, "note": 81, "velocity": 117, "channel": 0}, {"type": "note_on", "time": 29, "note": 88, "velocity": 110, "channel": 0}, {"type": "note_off", "time": 193, "note": 88, "velocity": 110, "channel": 0}, {"type": "note_on", "time": 42, "note": 81, "velocity": 113, "channel": 0}, {"type": "note_off", "time": 261, "note": 81, "velocity": 113, "channel": 0}, {"type": "note_on", "time": 6, "note": 81, "velocity": 106, "channel": 0}, {"type": "note_off", "time": 193, "note": 81, "velocity": 106, "channel": 0}, {"type": "note_on", "time": 4, "note": 79, "velocity": 103, "channel": 0}, {"type": "note_off", "time": 40, "note": 79, "velocity": 103, "channel": 0}, {"type": "note_on", "time": 5, "note": 77, "velocity": 109, "channel": 0}, {"type": "note_off", "time": 410, "note": 77, "velocity": 109, "channel": 0}, {"type": "note_on", "time": 3, "note": 75, "velocity": 92, "channel": 0}, {"type": "note_off", "time": 318, "note": 75, "velocity": 92, "channel": 0}, {"type": "note_on", "time": 741, "note": 85, "velocity": 98, "channel": 0}, {"type": "note_off", "time": 33, "note": 85, "velocity": 98, "channel": 0}, {"type": "note_on", "time": 7, "note": 89, "velocity": 117, "channel": 0}, {"type": "note_off", "time": 120, "note": 89, "velocity": 117, "channel": 0}, {"type": "note_on", "time": 14, "note": 88, "velocity": 113, "channel": 0}, {"type": "note_off", "time": 530, "note": 88, "velocity": 113, "channel": 0}, {"type": "note_on", "time": 6, "note": 89, "velocity": 110, "channel": 0}, {"type": "note_off", "time": 379, "note": 89, "velocity": 110, "channel": 0}, {"type": "note_on", "time": 4, "note": 90, "velocity": 109, "channel": 0}, {"type": "note_off", "time": 133, "note": 90, "velocity": 109, "channel": 0}, {"type": "note_on", "time": 1519, "note": 86, "velocity": 102, "channel": 0}, {"type": "note_off", "time": 39, "note": 86, "velocity": 102, "channel": 0}, {"type": "note_on", "time": 10, "note": 90, "velocity": 117, "channel": 0}, {"type": "note_off", "time": 95, "note": 90, "velocity": 117, "channel": 0}, {"type": "note_on", "time": 6, "note": 91, "velocity": 116, "channel": 0}, {"type": "note_off", "time": 81, "note": 91, "velocity": 116, "channel": 0}, {"type": "note_on", "time": 6, "note": 90, "velocity": 119, "channel": 0}, {"type": "note_off", "time": 145, "note": 90, "velocity": 119, "channel": 0}, {"type": "note_on", "time": 581, "note": 67, "velocity": 107, "channel": 0}, {"type": "note_off", "time": 119, "note": 67, "velocity": 107, "channel": 0}, {"type": "note_on", "time": 28, "note": 70, "velocity": 107, "channel": 0}, {"type": "note_off", "time": 118, "note": 70, "velocity": 107, "channel": 0}, {"type": "note_on", "time": 4, "note": 69, "velocity": 103, "channel": 0}, {"type": "note_off", "time": 148, "note": 69, "velocity": 103, "channel": 0}, {"type": "note_on", "time": 20, "note": 67, "velocity": 88, "channel": 0}, {"type": "note_off", "time": 70, "note": 67, "velocity": 88, "channel": 0}, {"type": "note_on", "time": 7, "note": 70, "velocity": 107, "channel": 0}, {"type": "note_off", "time": 159, "note": 70, "velocity": 107, "channel": 0}, {"type": "note_on", "time": 14, "note": 67, "velocity": 88, "channel": 0}, {"type": "note_off", "time": 85, "note": 67, "velocity": 88, "channel": 0}, {"type": "note_on", "time": 9, "note": 69, "velocity": 99, "channel": 0}, {"type": "note_off", "time": 173, "note": 69, "velocity": 99, "channel": 0}, {"type": "note_on", "time": 4, "note": 70, "velocity": 102, "channel": 0}, {"type": "note_off", "time": 114, "note": 70, "velocity": 102, "channel": 0}, {"type": "note_on", "time": 4, "note": 72, "velocity": 101, "channel": 0}, {"type": "note_off", "time": 174, "note": 72, "velocity": 101, "channel": 0}, {"type": "note_on", "time": 3, "note": 73, "velocity": 100, "channel": 0}, {"type": "note_off", "time": 434, "note": 73, "velocity": 100, "channel": 0}, {"type": "note_on", "time": 48, "note": 63, "velocity": 97, "channel": 0}, {"type": "note_off", "time": 231, "note": 63, "velocity": 97, "channel": 0}, {"type": "note_on", "time": 3308, "note": 81, "velocity": 116, "channel": 0}, {"type": "note_off", "time": 166, "note": 81, "velocity": 116, "channel": 0}, {"type": "note_on", "time": 7, "note": 77, "velocity": 89, "channel": 0}, {"type": "note_off", "time": 75, "note": 77, "velocity": 89, "channel": 0}, {"type": "note_on", "time": 7, "note": 81, "velocity": 116, "channel": 0}, {"type": "note_off", "time": 141, "note": 81, "velocity": 116, "channel": 0}, {"type": "note_on", "time": 26, "note": 84, "velocity": 118, "channel": 0}, {"type": "note_off", "time": 114, "note": 84, "velocity": 118, "channel": 0}, {"type": "note_on", "time": 9, "note": 86, "velocity": 117, "channel": 0}, {"type": "note_off", "time": 144, "note": 86, "velocity": 117, "channel": 0}, {"type": "note_on", "time": 20, "note": 84, "velocity": 117, "channel": 0}, {"type": "note_off", "time": 125, "note": 84, "velocity": 117, "channel": 0}, {"type": "note_on", "time": 15, "note": 82, "velocity": 112, "channel": 0}, {"type": "note_off", "time": 113, "note": 82, "velocity": 112, "channel": 0}, {"type": "note_on", "time": 14, "note": 80, "velocity": 113, "channel": 0}, {"type": "note_off", "time": 129, "note": 80, "velocity": 113, "channel": 0}, {"type": "note_on", "time": 11, "note": 81, "velocity": 110, "channel": 0}, {"type": "note_off", "time": 132, "note": 81, "velocity": 110, "channel": 0}, {"type": "note_on", "time": 11, "note": 79, "velocity": 107, "channel": 0}, {"type": "note_off", "time": 88, "note": 79, "velocity": 107, "channel": 0}, {"type": "note_on", "time": 36, "note": 77, "velocity": 108, "channel": 0}, {"type": "note_off", "time": 103, "note": 77, "velocity": 108, "channel": 0}, {"type": "note_on", "time": 42, "note": 76, "velocity": 105, "channel": 0}, {"type": "note_off", "time": 91, "note": 76, "velocity": 105, "channel": 0}, {"type": "note_on", "time": 72, "note": 75, "velocity": 99, "channel": 0}, {"type": "note_off", "time": 66, "note": 75, "velocity": 99, "channel": 0}, {"type": "note_on", "time": 88, "note": 74, "velocity": 98, "channel": 0}, {"type": "note_off", "time": 70, "note": 74, "velocity": 98, "channel": 0}, {"type": "note_on", "time": 88, "note": 73, "velocity": 98, "channel": 0}, {"type": "note_off", "time": 77, "note": 73, "velocity": 98, "channel": 0}, {"type": "note_on", "time": 194, "note": 76, "velocity": 109, "channel": 0}, {"type": "note_off", "time": 1023, "note": 76, "velocity": 109, "channel": 0}, {"type": "note_on", "time": 13, "note": 75, "velocity": 110, "channel": 0}, {"type": "note_off", "time": 152, "note": 75, "velocity": 110, "channel": 0}, {"type": "note_on", "time": 14, "note": 74, "velocity": 100, "channel": 0}, {"type": "note_off", "time": 787, "note": 74, "velocity": 100, "channel": 0}, {"type": "note_on", "time": 11, "note": 75, "velocity": 98, "channel": 0}, {"type": "note_off", "time": 68, "note": 75, "velocity": 98, "channel": 0}, {"type": "note_on", "time": 8, "note": 76, "velocity": 93, "channel": 0}, {"type": "note_off", "time": 97, "note": 76, "velocity": 93, "channel": 0}, {"type": "note_on", "time": 6, "note": 73, "velocity": 97, "channel": 0}, {"type": "note_off", "time": 126, "note": 73, "velocity": 97, "channel": 0}, {"type": "note_on", "time": 73, "note": 76, "velocity": 103, "channel": 0}, {"type": "note_off", "time": 262, "note": 76, "velocity": 103, "channel": 0}, {"type": "note_on", "time": 21, "note": 74, "velocity": 94, "channel": 0}, {"type": "note_off", "time": 102, "note": 74, "velocity": 94, "channel": 0}, {"type": "note_on", "time": 81, "note": 77, "velocity": 108, "channel": 0}, {"type": "note_off", "time": 160, "note": 77, "velocity": 108, "channel": 0}, {"type": "note_on", "time": 12, "note": 76, "velocity": 101, "channel": 0}, {"type": "note_off", "time": 37, "note": 76, "velocity": 101, "channel": 0}, {"type": "note_on", "time": 3, "note": 75, "velocity": 105, "channel": 0}, {"type": "note_off", "time": 107, "note": 75, "velocity": 105, "channel": 0}, {"type": "note_on", "time": 13, "note": 78, "velocity": 109, "channel": 0}, {"type": "note_off", "time": 123, "note": 78, "velocity": 109, "channel": 0}, {"type": "note_on", "time": 3, "note": 77, "velocity": 103, "channel": 0}, {"type": "note_off", "time": 39, "note": 77, "velocity": 103, "channel": 0}, {"type": "note_on", "time": 14, "note": 76, "velocity": 98, "channel": 0}, {"type": "note_off", "time": 100, "note": 76, "velocity": 98, "channel": 0}, {"type": "note_on", "time": 780, "note": 77, "velocity": 109, "channel": 0}, {"type": "note_off", "time": 88, "note": 77, "velocity": 109, "channel": 0}, {"type": "note_on", "time": 3, "note": 78, "velocity": 102, "channel": 0}, {"type": "note_off", "time": 77, "note": 78, "velocity": 102, "channel": 0}, {"type": "note_on", "time": 3, "note": 77, "velocity": 101, "channel": 0}, {"type": "note_off", "time": 77, "note": 77, "velocity": 101, "channel": 0}, {"type": "note_on", "time": 3, "note": 76, "velocity": 92, "channel": 0}, {"type": "note_off", "time": 53, "note": 76, "velocity": 92, "channel": 0}, {"type": "note_on", "time": 8, "note": 73, "velocity": 98, "channel": 0}, {"type": "note_off", "time": 76, "note": 73, "velocity": 98, "channel": 0}, {"type": "note_on", "time": 5, "note": 71, "velocity": 96, "channel": 0}, {"type": "note_off", "time": 64, "note": 71, "velocity": 96, "channel": 0}, {"type": "note_on", "time": 18, "note": 68, "velocity": 99, "channel": 0}, {"type": "note_off", "time": 86, "note": 68, "velocity": 99, "channel": 0}, {"type": "note_on", "time": 4, "note": 72, "velocity": 101, "channel": 0}, {"type": "note_off", "time": 61, "note": 72, "velocity": 101, "channel": 0}, {"type": "note_on", "time": 6, "note": 76, "velocity": 101, "channel": 0}, {"type": "note_off", "time": 68, "note": 76, "velocity": 101, "channel": 0}, {"type": "note_on", "time": 7, "note": 76, "velocity": 107, "channel": 0}, {"type": "note_off", "time": 55, "note": 76, "velocity": 107, "channel": 0}, {"type": "note_on", "time": 0, "note": 80, "velocity": 113, "channel": 0}, {"type": "note_off", "time": 62, "note": 80, "velocity": 113, "channel": 0}, {"type": "note_on", "time": 1, "note": 83, "velocity": 107, "channel": 0}, {"type": "note_off", "time": 66, "note": 83, "velocity": 107, "channel": 0}, {"type": "note_on", "time": 8, "note": 77, "velocity": 93, "channel": 0}, {"type": "note_off", "time": 81, "note": 77, "velocity": 93, "channel": 0}, {"type": "note_on", "time": 78, "note": 92, "velocity": 94, "channel": 0}, {"type": "note_off", "time": 42, "note": 92, "velocity": 94, "channel": 0}, {"type": "note_on", "time": 2, "note": 90, "velocity": 109, "channel": 0}, {"type": "note_off", "time": 382, "note": 90, "velocity": 109, "channel": 0}, {"type": "note_on", "time": 598, "note": 67, "velocity": 105, "channel": 0}, {"type": "note_off", "time": 70, "note": 67, "velocity": 105, "channel": 0}, {"type": "note_on", "time": 12, "note": 70, "velocity": 98, "channel": 0}, {"type": "note_off", "time": 179, "note": 70, "velocity": 98, "channel": 0}, {"type": "note_on", "time": 16, "note": 67, "velocity": 88, "channel": 0}, {"type": "note_off", "time": 62, "note": 67, "velocity": 88, "channel": 0}, {"type": "note_on", "time": 17, "note": 69, "velocity": 109, "channel": 0}, {"type": "note_off", "time": 160, "note": 69, "velocity": 109, "channel": 0}, {"type": "note_on", "time": 19, "note": 67, "velocity": 104, "channel": 0}, {"type": "note_off", "time": 115, "note": 67, "velocity": 104, "channel": 0}, {"type": "note_on", "time": 13, "note": 65, "velocity": 103, "channel": 0}, {"type": "note_off", "time": 127, "note": 65, "velocity": 103, "channel": 0}, {"type": "note_on", "time": 27, "note": 62, "velocity": 88, "channel": 0}, {"type": "note_off", "time": 113, "note": 62, "velocity": 88, "channel": 0}, {"type": "note_on", "time": 12, "note": 63, "velocity": 98, "channel": 0}, {"type": "note_off", "time": 119, "note": 63, "velocity": 98, "channel": 0}, {"type": "note_on", "time": 5, "note": 65, "velocity": 100, "channel": 0}, {"type": "note_off", "time": 140, "note": 65, "velocity": 100, "channel": 0}, {"type": "note_on", "time": 7, "note": 67, "velocity": 87, "channel": 0}, {"type": "note_off", "time": 99, "note": 67, "velocity": 87, "channel": 0}, {"type": "note_on", "time": 12, "note": 69, "velocity": 104, "channel": 0}, {"type": "note_off", "time": 130, "note": 69, "velocity": 104, "channel": 0}, {"type": "note_on", "time": 24, "note": 70, "velocity": 100, "channel": 0}, {"type": "note_off", "time": 96, "note": 70, "velocity": 100, "channel": 0}, {"type": "note_on", "time": 44, "note": 73, "velocity": 98, "channel": 0}, {"type": "note_off", "time": 104, "note": 73, "velocity": 98, "channel": 0}, {"type": "note_on", "time": 13, "note": 72, "velocity": 93, "channel": 0}, {"type": "note_off", "time": 99, "note": 72, "velocity": 93, "channel": 0}, {"type": "note_on", "time": 52, "note": 70, "velocity": 105, "channel": 0}, {"type": "note_off", "time": 126, "note": 70, "velocity": 105, "channel": 0}, {"type": "note_on", "time": 22, "note": 69, "velocity": 106, "channel": 0}, {"type": "note_off", "time": 129, "note": 69, "velocity": 106, "channel": 0}, {"type": "note_on", "time": 12, "note": 67, "velocity": 104, "channel": 0}, {"type": "note_off", "time": 132, "note": 67, "velocity": 104, "channel": 0}, {"type": "note_on", "time": 19, "note": 66, "velocity": 98, "channel": 0}, {"type": "note_off", "time": 101, "note": 66, "velocity": 98, "channel": 0}, {"type": "note_on", "time": 51, "note": 61, "velocity": 95, "channel": 0}, {"type": "note_off", "time": 122, "note": 61, "velocity": 95, "channel": 0}, {"type": "note_on", "time": 3, "note": 58, "velocity": 98, "channel": 0}, {"type": "note_off", "time": 113, "note": 58, "velocity": 98, "channel": 0}, {"type": "note_on", "time": 6, "note": 56, "velocity": 99, "channel": 0}, {"type": "note_off", "time": 127, "note": 56, "velocity": 99, "channel": 0}, {"type": "note_on", "time": 4, "note": 57, "velocity": 98, "channel": 0}, {"type": "note_off", "time": 393, "note": 57, "velocity": 98, "channel": 0}, {"type": "note_on", "time": 746, "note": 67, "velocity": 105, "channel": 0}, {"type": "note_off", "time": 199, "note": 67, "velocity": 105, "channel": 0}, {"type": "note_on", "time": 30, "note": 69, "velocity": 89, "channel": 0}, {"type": "note_off", "time": 44, "note": 69, "velocity": 89, "channel": 0}, {"type": "note_on", "time": 0, "note": 73, "velocity": 103, "channel": 0}, {"type": "note_off", "time": 1813, "note": 73, "velocity": 103, "channel": 0}, {"type": "note_on", "time": 39, "note": 72, "velocity": 100, "channel": 0}, {"type": "note_off", "time": 146, "note": 72, "velocity": 100, "channel": 0}, {"type": "note_on", "time": 18, "note": 69, "velocity": 84, "channel": 0}, {"type": "note_off", "time": 72, "note": 69, "velocity": 84, "channel": 0}, {"type": "note_on", "time": 15, "note": 70, "velocity": 105, "channel": 0}, {"type": "note_off", "time": 168, "note": 70, "velocity": 105, "channel": 0}, {"type": "note_on", "time": 42, "note": 67, "velocity": 86, "channel": 0}, {"type": "note_off", "time": 69, "note": 67, "velocity": 86, "channel": 0}, {"type": "note_on", "time": 11, "note": 69, "velocity": 96, "channel": 0}, {"type": "note_off", "time": 121, "note": 69, "velocity": 96, "channel": 0}, {"type": "note_on", "time": 28, "note": 70, "velocity": 102, "channel": 0}, {"type": "note_off", "time": 105, "note": 70, "velocity": 102, "channel": 0}, {"type": "note_on", "time": 5, "note": 72, "velocity": 97, "channel": 0}, {"type": "note_off", "time": 117, "note": 72, "velocity": 97, "channel": 0}, {"type": "note_on", "time": 32, "note": 73, "velocity": 102, "channel": 0}, {"type": "note_off", "time": 117, "note": 73, "velocity": 102, "channel": 0}, {"type": "note_on", "time": 17, "note": 75, "velocity": 87, "channel": 0}, {"type": "note_off", "time": 3023, "note": 75, "velocity": 87, "channel": 0}, {"type": "end_of_track", "time": 0}]]}