{"ticks_per_beat": 192, "tracks": [[{"type": "track_name", "name": "Melody", "time": 0}, {"type": "set_tempo", "tempo": 458015, "time": 0}, {"type": "key_signature", "key": "F", "time": 0}, {"type": "time_signature", "numerator": 4, "denominator": 4, "clocks_per_click": 24, "notated_32nd_notes_per_beat": 8, "time": 0}, {"type": "note_on", "time": 1385, "note": 77, "velocity": 120, "channel": 0}, {"type": "note_off", "time": 82, "note": 77, "velocity": 120, "channel": 0}, {"type": "note_on", "time": 6, "note": 76, "velocity": 119, "channel": 0}, {"type": "note_off", "time": 20, "note": 76, "velocity": 119, "channel": 0}, {"type": "note_on", "time": 13, "note": 77, "velocity": 121, "channel": 0}, {"type": "note_off", "time": 58, "note": 77, "velocity": 121, "channel": 0}, {"type": "note_on", "time": 10, "note": 79, "velocity": 112, "channel": 0}, {"type": "note_off", "time": 793, "note": 79, "velocity": 112, "channel": 0}, {"type": "note_on", "time": 133, "note": 77, "velocity": 110, "channel": 0}, {"type": "note_off", "time": 54, "note": 77, "velocity": 110, "channel": 0}, {"type": "note_on", "time": 44, "note": 77, "velocity": 119, "channel": 0}, {"type": "note_off", "time": 95, "note": 77, "velocity": 119, "channel": 0}, {"type": "note_on", "time": 6, "note": 75, "velocity": 114, "channel": 0}, {"type": "note_off", "time": 68, "note": 75, "velocity": 114, "channel": 0}, {"type": "note_on", "time": 3, "note": 74, "velocity": 117, "channel": 0}, {"type": "note_off", "time": 54, "note": 74, "velocity": 117, "channel": 0}, {"type": "note_on", "time": 6, "note": 72, "velocity": 101, "channel": 0}, {"type": "note_off", "time": 41, "note": 72, "velocity": 101, "channel": 0}, {"type": "note_on", "time": 20, "note": 73, "velocity": 110, "channel": 0}, {"type": "note_off", "time": 184, "note": 73, "velocity": 110, "channel": 0}, {"type": "note_on", "time": 44, "note": 69, "velocity": 112, "channel": 0}, {"type": "note_off", "time": 61, "note": 69, "velocity": 112, "channel": 0}, {"type": "note_on", "time": 3, "note": 66, "velocity": 104, "channel": 0}, {"type": "note_off", "time": 61, "note": 66, "velocity": 104, "channel": 0}, {"type": "note_on", "time": 13, "note": 63, "velocity": 92, "channel": 0}, {"type": "note_off", "time": 27, "note": 63, "velocity": 92, "channel": 0}, {"type": "note_on", "time": 13, "note": 65, "velocity": 109, "channel": 0}, {"type": "note_off", "time": 65, "note": 65, "velocity": 109, "channel": 0}, {"type": "note_on", "time": 6, "note": 62, "velocity": 92, "channel": 0}, {"type": "note_off", "time": 34, "note": 62, "velocity": 92, "channel": 0}, {"type": "note_on", "time": 27, "note": 62, "velocity": 101, "channel": 0}, {"type": "note_off", "time": 53, "note": 62, "velocity": 101, "channel": 0}, {"type": "note_on", "time": 9, "note": 65, "velocity": 108, "channel": 0}, {"type": "note_off", "time": 60, "note": 65, "velocity": 108, "channel": 0}, {"type": "note_on", "time": 9, "note": 68, "velocity": 98, "channel": 0}, {"type": "note_off", "time": 27, "note": 68, "velocity": 98, "channel": 0}, {"type": "note_on", "time": 13, "note": 70, "velocity": 112, "channel": 0}, {"type": "note_off", "time": 65, "note": 70, "velocity": 112, "channel": 0}, {"type": "note_on", "time": 1, "note": 76, "velocity": 102, "channel": 0}, {"type": "note_off", "time": 58, "note": 76, "velocity": 102, "channel": 0}, {"type": "note_on", "time": 9, "note": 70, "velocity": 106, "channel": 0}, {"type": "note_off", "time": 60, "note": 70, "velocity": 106, "channel": 0}, {"type": "note_on", "time": 9, "note": 73, "velocity": 111, "channel": 0}, {"type": "note_off", "time": 48, "note": 73, "velocity": 111, "channel": 0}, {"type": "note_on", "time": 4, "note": 70, "velocity": 105, "channel": 0}, {"type": "note_off", "time": 63, "note": 70, "velocity": 105, "channel": 0}, {"type": "note_on", "time": 2, "note": 73, "velocity": 105, "channel": 0}, {"type": "note_off", "time": 68, "note": 73, "velocity": 105, "channel": 0}, {"type": "note_on", "time": 0, "note": 70, "velocity": 106, "channel": 0}, {"type": "note_off", "time": 60, "note": 70, "velocity": 106, "channel": 0}, {"type": "note_on", "time": 2, "note": 73, "velocity": 105, "channel": 0}, {"type": "note_off", "time": 55, "note": 73, "velocity": 105, "channel": 0}, {"type": "note_on", "time": 9, "note": 70, "velocity": 103, "channel": 0}, {"type": "note_off", "time": 65, "note": 70, "velocity": 103, "channel": 0}, {"type": "note_on", "time": 2, "note": 73, "velocity": 102, "channel": 0}, {"type": "note_off", "time": 126, "note": 73, "velocity": 102, "channel": 0}, {"type": "note_on", "time": 36, "note": 70, "velocity": 90, "channel": 0}, {"type": "note_off", "time": 172, "note": 70, "velocity": 90, "channel": 0}, {"type": "note_on", "time": 292, "note": 72, "velocity": 115, "channel": 0}, {"type": "note_off", "time": 63, "note": 72, "velocity": 115, "channel": 0}, {"type": "note_on", "time": 2, "note": 69, "velocity": 97, "channel": 0}, {"type": "note_off", "time": 38, "note": 69, "velocity": 97, "channel": 0}, {"type": "note_on", "time": 9, "note": 72, "velocity": 111, "channel": 0}, {"type": "note_off", "time": 501, "note": 72, "velocity": 111, "channel": 0}, {"type": "note_on", "time": 382, "note": 69, "velocity": 119, "channel": 0}, {"type": "note_off", "time": 70, "note": 69, "velocity": 119, "channel": 0}, {"type": "note_on", "time": 9, "note": 71, "velocity": 112, "channel": 0}, {"type": "note_off", "time": 126, "note": 71, "velocity": 112, "channel": 0}, {"type": "note_on", "time": 14, "note": 68, "velocity": 110, "channel": 0}, {"type": "note_off", "time": 216, "note": 68, "velocity": 110, "channel": 0}, {"type": "note_on", "time": 17, "note": 70, "velocity": 112, "channel": 0}, {"type": "note_off", "time": 39, "note": 70, "velocity": 112, "channel": 0}, {"type": "note_on", "time": 15, "note": 67, "velocity": 103, "channel": 0}, {"type": "note_off", "time": 22, "note": 67, "velocity": 103, "channel": 0}, {"type": "note_on", "time": 4, "note": 70, "velocity": 95, "channel": 0}, {"type": "note_off", "time": 25, "note": 70, "velocity": 95, "channel": 0}, {"type": "note_on", "time": 2, "note": 72, "velocity": 107, "channel": 0}, {"type": "note_off", "time": 27, "note": 72, "velocity": 107, "channel": 0}, {"type": "note_on", "time": 8, "note": 74, "velocity": 109, "channel": 0}, {"type": "note_off", "time": 18, "note": 74, "velocity": 109, "channel": 0}, {"type": "note_on", "time": 10, "note": 75, "velocity": 115, "channel": 0}, {"type": "note_off", "time": 27, "note": 75, "velocity": 115, "channel": 0}, {"type": "note_on", "time": 0, "note": 77, "velocity": 121, "channel": 0}, {"type": "note_off", "time": 47, "note": 77, "velocity": 121, "channel": 0}, {"type": "note_on", "time": 0, "note": 79, "velocity": 116, "channel": 0}, {"type": "note_off", "time": 111, "note": 79, "velocity": 116, "channel": 0}, {"type": "note_on", "time": 253, "note": 82, "velocity": 118, "channel": 0}, {"type": "note_off", "time": 59, "note": 82, "velocity": 118, "channel": 0}, {"type": "note_on", "time": 1, "note": 79, "velocity": 115, "channel": 0}, {"type": "note_off", "time": 46, "note": 79, "velocity": 115, "channel": 0}, {"type": "note_on", "time": 8, "note": 79, "velocity": 115, "channel": 0}, {"type": "note_off", "time": 34, "note": 79, "velocity": 115, "channel": 0}, {"type": "note_on", "time": 13, "note": 77, "velocity": 116, "channel": 0}, {"type": "note_off", "time": 49, "note": 77, "velocity": 116, "channel": 0}, {"type": "note_on", "time": 6, "note": 76, "velocity": 119, "channel": 0}, {"type": "note_off", "time": 42, "note": 76, "velocity": 119, "channel": 0}, {"type": "note_on", "time": 5, "note": 75, "velocity": 110, "channel": 0}, {"type": "note_off", "time": 42, "note": 75, "velocity": 110, "channel": 0}, {"type": "note_on", "time": 6, "note": 74, "velocity": 116, "channel": 0}, {"type": "note_off", "time": 51, "note": 74, "velocity": 116, "channel": 0}, {"type": "note_on", "time": 13, "note": 73, "velocity": 111, "channel": 0}, {"type": "note_off", "time": 47, "note": 73, "velocity": 111, "channel": 0}, {"type": "note_on", "time": 3, "note": 72, "velocity": 100, "channel": 0}, {"type": "note_off", "time": 35, "note": 72, "velocity": 100, "channel": 0}, {"type": "note_on", "time": 6, "note": 70, "velocity": 110, "channel": 0}, {"type": "note_off", "time": 49, "note": 70, "velocity": 110, "channel": 0}, {"type": "note_on", "time": 10, "note": 69, "velocity": 114, "channel": 0}, {"type": "note_off", "time": 46, "note": 69, "velocity": 114, "channel": 0}, {"type": "note_on", "time": 13, "note": 67, "velocity": 106, "channel": 0}, {"type": "note_off", "time": 42, "note": 67, "velocity": 106, "channel": 0}, {"type": "note_on", "time": 8, "note": 65, "velocity": 106, "channel": 0}, {"type": "note_off", "time": 49, "note": 65, "velocity": 106, "channel": 0}, {"type": "note_on", "time": 22, "note": 62, "velocity": 96, "channel": 0}, {"type": "note_off", "time": 34, "note": 62, "velocity": 96, "channel": 0}, {"type": "note_on", "time": 1, "note": 63, "velocity": 101, "channel": 0}, {"type": "note_off", "time": 41, "note": 63, "velocity": 101, "channel": 0}, {"type": "note_on", "time": 15, "note": 65, "velocity": 105, "channel": 0}, {"type": "note_off", "time": 56, "note": 65, "velocity": 105, "channel": 0}, {"type": "note_on", "time": 3, "note": 67, "velocity": 94, "channel": 0}, {"type": "note_off", "time": 42, "note": 67, "velocity": 94, "channel": 0}, {"type": "note_on", "time": 1, "note": 69, "velocity": 113, "channel": 0}, {"type": "note_off", "time": 46, "note": 69, "velocity": 113, "channel": 0}, {"type": "note_on", "time": 5, "note": 70, "velocity": 94, "channel": 0}, {"type": "note_off", "time": 42, "note": 70, "velocity": 94, "channel": 0}, {"type": "note_on", "time": 18, "note": 73, "velocity": 116, "channel": 0}, {"type": "note_off", "time": 41, "note": 73, "velocity": 116, "channel": 0}, {"type": "note_on", "time": 6, "note": 72, "velocity": 99, "channel": 0}, {"type": "note_off", "time": 44, "note": 72, "velocity": 99, "channel": 0}, {"type": "note_on", "time": 8, "note": 70, "velocity": 111, "channel": 0}, {"type": "note_off", "time": 47, "note": 70, "velocity": 111, "channel": 0}, {"type": "note_on", "time": 11, "note": 69, "velocity": 110, "channel": 0}, {"type": "note_off", "time": 53, "note": 69, "velocity": 110, "channel": 0}, {"type": "note_on", "time": 8, "note": 72, "velocity": 108, "channel": 0}, {"type": "note_off", "time": 44, "note": 72, "velocity": 108, "channel": 0}, {"type": "note_on", "time": 8, "note": 70, "velocity": 105, "channel": 0}, {"type": "note_off", "time": 49, "note": 70, "velocity": 105, "channel": 0}, {"type": "note_on", "time": 1, "note": 68, "velocity": 98, "channel": 0}, {"type": "note_off", "time": 59, "note": 68, "velocity": 98, "channel": 0}, {"type": "note_on", "time": 6, "note": 69, "velocity": 109, "channel": 0}, {"type": "note_off", "time": 53, "note": 69, "velocity": 109, "channel": 0}, {"type": "note_on", "time": 6, "note": 67, "velocity": 108, "channel": 0}, {"type": "note_off", "time": 47, "note": 67, "velocity": 108, "channel": 0}, {"type": "note_on", "time": 10, "note": 66, "velocity": 100, "channel": 0}, {"type": "note_off", "time": 56, "note": 66, "velocity": 100, "channel": 0}, {"type": "note_on", "time": 1, "note": 64, "velocity": 84, "channel": 0}, {"type": "note_off", "time": 25, "note": 64, "velocity": 84, "channel": 0}, {"type": "note_on", "time": 13, "note": 65, "velocity": 107, "channel": 0}, {"type": "note_off", "time": 53, "note": 65, "velocity": 107, "channel": 0}, {"type": "note_on", "time": 25, "note": 62, "velocity": 99, "channel": 0}, {"type": "note_off", "time": 44, "note": 62, "velocity": 99, "channel": 0}, {"type": "note_on", "time": 10, "note": 64, "velocity": 106, "channel": 0}, {"type": "note_off", "time": 27, "note": 64, "velocity": 106, "channel": 0}, {"type": "note_on", "time": 20, "note": 65, "velocity": 104, "channel": 0}, {"type": "note_off", "time": 37, "note": 65, "velocity": 104, "channel": 0}, {"type": "note_on", "time": 5, "note": 67, "velocity": 86, "channel": 0}, {"type": "note_off", "time": 20, "note": 67, "velocity": 86, "channel": 0}, {"type": "note_on", "time": 8, "note": 69, "velocity": 105, "channel": 0}, {"type": "note_off", "time": 35, "note": 69, "velocity": 105, "channel": 0}, {"type": "note_on", "time": 8, "note": 70, "velocity": 108, "channel": 0}, {"type": "note_off", "time": 41, "note": 70, "velocity": 108, "channel": 0}, {"type": "note_on", "time": 11, "note": 71, "velocity": 96, "channel": 0}, {"type": "note_off", "time": 95, "note": 71, "velocity": 96, "channel": 0}, {"type": "note_on", "time": 222, "note": 70, "velocity": 115, "channel": 0}, {"type": "note_on", "time": 106, "note": 68, "velocity": 86, "channel": 0}, {"type": "note_off", "time": 0, "note": 70, "velocity": 115, "channel": 0}, {"type": "note_off", "time": 41, "note": 68, "velocity": 86, "channel": 0}, {"type": "note_on", "time": 3, "note": 69, "velocity": 112, "channel": 0}, {"type": "note_off", "time": 124, "note": 69, "velocity": 112, "channel": 0}, {"type": "note_on", "time": 20, "note": 64, "velocity": 107, "channel": 0}, {"type": "note_off", "time": 92, "note": 64, "velocity": 107, "channel": 0}, {"type": "note_on", "time": 24, "note": 63, "velocity": 101, "channel": 0}, {"type": "note_off", "time": 133, "note": 63, "velocity": 101, "channel": 0}, {"type": "note_on", "time": 32, "note": 63, "velocity": 85, "channel": 0}, {"type": "note_off", "time": 97, "note": 63, "velocity": 85, "channel": 0}, {"type": "note_on", "time": 287, "note": 77, "velocity": 121, "channel": 0}, {"type": "note_off", "time": 51, "note": 77, "velocity": 121, "channel": 0}, {"type": "note_on", "time": 5, "note": 76, "velocity": 125, "channel": 0}, {"type": "note_off", "time": 49, "note": 76, "velocity": 125, "channel": 0}, {"type": "note_on", "time": 6, "note": 75, "velocity": 118, "channel": 0}, {"type": "note_off", "time": 51, "note": 75, "velocity": 118, "channel": 0}, {"type": "note_on", "time": 8, "note": 77, "velocity": 124, "channel": 0}, {"type": "note_off", "time": 61, "note": 77, "velocity": 124, "channel": 0}, {"type": "note_on", "time": 1, "note": 74, "velocity": 118, "channel": 0}, {"type": "note_off", "time": 268, "note": 74, "velocity": 118, "channel": 0}, {"type": "note_on", "time": 27, "note": 72, "velocity": 90, "channel": 0}, {"type": "note_off", "time": 25, "note": 72, "velocity": 90, "channel": 0}, {"type": "note_on", "time": 15, "note": 73, "velocity": 114, "channel": 0}, {"type": "note_off", "time": 106, "note": 73, "velocity": 114, "channel": 0}, {"type": "note_on", "time": 11, "note": 68, "velocity": 114, "channel": 0}, {"type": "note_off", "time": 80, "note": 68, "velocity": 114, "channel": 0}, {"type": "note_on", "time": 13, "note": 65, "velocity": 109, "channel": 0}, {"type": "note_off", "time": 104, "note": 65, "velocity": 109, "channel": 0}, {"type": "note_on", "time": 8, "note": 60, "velocity": 102, "channel": 0}, {"type": "note_off", "time": 63, "note": 60, "velocity": 102, "channel": 0}, {"type": "note_on", "time": 0, "note": 61, "velocity": 93, "channel": 0}, {"type": "note_off", "time": 119, "note": 61, "velocity": 93, "channel": 0}, {"type": "note_on", "time": 0, "note": 60, "velocity": 97, "channel": 0}, {"type": "note_off", "time": 557, "note": 60, "velocity": 97, "channel": 0}, {"type": "note_on", "time": 11, "note": 58, "velocity": 100, "channel": 0}, {"type": "note_off", "time": 321, "note": 58, "velocity": 100, "channel": 0}, {"type": "note_on", "time": 3, "note": 57, "velocity": 98, "channel": 0}, {"type": "note_off", "time": 186, "note": 57, "velocity": 98, "channel": 0}, {"type": "note_on", "time": 265, "note": 67, "velocity": 102, "channel": 0}, {"type": "note_off", "time": 20, "note": 67, "velocity": 102, "channel": 0}, {"type": "note_on", "time": 3, "note": 68, "velocity": 118, "channel": 0}, {"type": "note_off", "time": 75, "note": 68, "velocity": 118, "channel": 0}, {"type": "note_on", "time": 6, "note": 73, "velocity": 117, "channel": 0}, {"type": "note_off", "time": 100, "note": 73, "velocity": 117, "channel": 0}, {"type": "note_on", "time": 6, "note": 69, "velocity": 94, "channel": 0}, {"type": "note_off", "time": 76, "note": 69, "velocity": 94, "channel": 0}, {"type": "note_on", "time": 1, "note": 73, "velocity": 114, "channel": 0}, {"type": "note_off", "time": 124, "note": 73, "velocity": 114, "channel": 0}, {"type": "note_on", "time": 15, "note": 68, "velocity": 113, "channel": 0}, {"type": "note_off", "time": 104, "note": 68, "velocity": 113, "channel": 0}, {"type": "note_on", "time": 6, "note": 65, "velocity": 112, "channel": 0}, {"type": "note_off", "time": 109, "note": 65, "velocity": 112, "channel": 0}, {"type": "note_on", "time": 17, "note": 63, "velocity": 106, "channel": 0}, {"type": "note_off", "time": 131, "note": 63, "velocity": 106, "channel": 0}, {"type": "note_on", "time": 7, "note": 62, "velocity": 95, "channel": 0}, {"type": "note_off", "time": 42, "note": 62, "velocity": 95, "channel": 0}, {"type": "note_on", "time": 611, "note": 77, "velocity": 126, "channel": 0}, {"type": "note_off", "time": 68, "note": 77, "velocity": 126, "channel": 0}, {"type": "note_on", "time": 29, "note": 81, "velocity": 127, "channel": 0}, {"type": "note_off", "time": 59, "note": 81, "velocity": 127, "channel": 0}, {"type": "note_on", "time": 6, "note": 82, "velocity": 125, "channel": 0}, {"type": "note_off", "time": 59, "note": 82, "velocity": 125, "channel": 0}, {"type": "note_on", "time": 1, "note": 84, "velocity": 123, "channel": 0}, {"type": "note_off", "time": 56, "note": 84, "velocity": 123, "channel": 0}, {"type": "note_on", "time": 0, "note": 82, "velocity": 125, "channel": 0}, {"type": "note_off", "time": 58, "note": 82, "velocity": 125, "channel": 0}, {"type": "note_on", "time": 1, "note": 81, "velocity": 126, "channel": 0}, {"type": "note_off", "time": 58, "note": 81, "velocity": 126, "channel": 0}, {"type": "note_on", "time": 6, "note": 79, "velocity": 125, "channel": 0}, {"type": "note_off", "time": 51, "note": 79, "velocity": 125, "channel": 0}, {"type": "note_on", "time": 8, "note": 82, "velocity": 123, "channel": 0}, {"type": "note_off", "time": 65, "note": 82, "velocity": 123, "channel": 0}, {"type": "note_on", "time": 5, "note": 81, "velocity": 125, "channel": 0}, {"type": "note_off", "time": 53, "note": 81, "velocity": 125, "channel": 0}, {"type": "note_on", "time": 10, "note": 79, "velocity": 121, "channel": 0}, {"type": "note_off", "time": 51, "note": 79, "velocity": 121, "channel": 0}, {"type": "note_on", "time": 8, "note": 77, "velocity": 121, "channel": 0}, {"type": "note_off", "time": 65, "note": 77, "velocity": 121, "channel": 0}, {"type": "note_on", "time": 5, "note": 76, "velocity": 115, "channel": 0}, {"type": "note_off", "time": 574, "note": 76, "velocity": 115, "channel": 0}, {"type": "note_on", "time": 5, "note": 74, "velocity": 101, "channel": 0}, {"type": "note_off", "time": 32, "note": 74, "velocity": 101, "channel": 0}, {"type": "note_on", "time": 8, "note": 75, "velocity": 115, "channel": 0}, {"type": "note_off", "time": 136, "note": 75, "velocity": 115, "channel": 0}, {"type": "note_on", "time": 3, "note": 73, "velocity": 108, "channel": 0}, {"type": "note_off", "time": 145, "note": 73, "velocity": 108, "channel": 0}, {"type": "note_on", "time": 241, "note": 77, "velocity": 97, "channel": 0}, {"type": "note_off", "time": 27, "note": 77, "velocity": 97, "channel": 0}, {"type": "note_on", "time": 0, "note": 76, "velocity": 121, "channel": 0}, {"type": "note_off", "time": 34, "note": 76, "velocity": 121, "channel": 0}, {"type": "note_on", "time": 10, "note": 75, "velocity": 113, "channel": 0}, {"type": "note_off", "time": 121, "note": 75, "velocity": 113, "channel": 0}, {"type": "note_on", "time": 1, "note": 74, "velocity": 112, "channel": 0}, {"type": "note_off", "time": 39, "note": 74, "velocity": 112, "channel": 0}, {"type": "note_on", "time": 20, "note": 73, "velocity": 112, "channel": 0}, {"type": "note_off", "time": 46, "note": 73, "velocity": 112, "channel": 0}, {"type": "note_on", "time": 1, "note": 72, "velocity": 107, "channel": 0}, {"type": "note_off", "time": 35, "note": 72, "velocity": 107, "channel": 0}, {"type": "note_on", "time": 22, "note": 70, "velocity": 114, "channel": 0}, {"type": "note_off", "time": 42, "note": 70, "velocity": 114, "channel": 0}, {"type": "note_on", "time": 17, "note": 69, "velocity": 115, "channel": 0}, {"type": "note_off", "time": 46, "note": 69, "velocity": 115, "channel": 0}, {"type": "note_on", "time": 0, "note": 67, "velocity": 102, "channel": 0}, {"type": "note_off", "time": 47, "note": 67, "velocity": 102, "channel": 0}, {"type": "note_on", "time": 10, "note": 65, "velocity": 110, "channel": 0}, {"type": "note_off", "time": 39, "note": 65, "velocity": 110, "channel": 0}, {"type": "note_on", "time": 1, "note": 64, "velocity": 103, "channel": 0}, {"type": "note_off", "time": 53, "note": 64, "velocity": 103, "channel": 0}, {"type": "note_on", "time": 10, "note": 62, "velocity": 96, "channel": 0}, {"type": "note_off", "time": 30, "note": 62, "velocity": 96, "channel": 0}, {"type": "note_on", "time": 6, "note": 63, "velocity": 102, "channel": 0}, {"type": "note_off", "time": 44, "note": 63, "velocity": 102, "channel": 0}, {"type": "note_on", "time": 10, "note": 65, "velocity": 103, "channel": 0}, {"type": "note_off", "time": 65, "note": 65, "velocity": 103, "channel": 0}, {"type": "note_on", "time": 3, "note": 67, "velocity": 89, "channel": 0}, {"type": "note_off", "time": 18, "note": 67, "velocity": 89, "channel": 0}, {"type": "note_on", "time": 8, "note": 69, "velocity": 116, "channel": 0}, {"type": "note_off", "time": 34, "note": 69, "velocity": 116, "channel": 0}, {"type": "note_on", "time": 10, "note": 70, "velocity": 105, "channel": 0}, {"type": "note_off", "time": 39, "note": 70, "velocity": 105, "channel": 0}, {"type": "note_on", "time": 32, "note": 73, "velocity": 103, "channel": 0}, {"type": "note_off", "time": 35, "note": 73, "velocity": 103, "channel": 0}, {"type": "note_on", "time": 3, "note": 72, "velocity": 108, "channel": 0}, {"type": "note_off", "time": 29, "note": 72, "velocity": 108, "channel": 0}, {"type": "note_on", "time": 3, "note": 70, "velocity": 112, "channel": 0}, {"type": "note_off", "time": 41, "note": 70, "velocity": 112, "channel": 0}, {"type": "note_on", "time": 10, "note": 69, "velocity": 115, "channel": 0}, {"type": "note_off", "time": 29, "note": 69, "velocity": 115, "channel": 0}, {"type": "note_on", "time": 136, "note": 77, "velocity": 109, "channel": 0}, {"type": "note_off", "time": 34, "note": 77, "velocity": 109, "channel": 0}, {"type": "note_on", "time": 0, "note": 75, "velocity": 107, "channel": 0}, {"type": "note_off", "time": 23, "note": 75, "velocity": 107, "channel": 0}, {"type": "note_on", "time": 0, "note": 71, "velocity": 101, "channel": 0}, {"type": "note_off", "time": 25, "note": 71, "velocity": 101, "channel": 0}, {"type": "note_on", "time": 1, "note": 69, "velocity": 108, "channel": 0}, {"type": "note_off", "time": 42, "note": 69, "velocity": 108, "channel": 0}, {"type": "note_on", "time": 13, "note": 70, "velocity": 112, "channel": 0}, {"type": "note_off", "time": 58, "note": 70, "velocity": 112, "channel": 0}, {"type": "note_on", "time": 13, "note": 67, "velocity": 89, "channel": 0}, {"type": "note_off", "time": 29, "note": 67, "velocity": 89, "channel": 0}, {"type": "note_on", "time": 8, "note": 69, "velocity": 108, "channel": 0}, {"type": "note_off", "time": 176, "note": 69, "velocity": 108, "channel": 0}, {"type": "note_on", "time": 10, "note": 67, "velocity": 102, "channel": 0}, {"type": "note_off", "time": 44, "note": 67, "velocity": 102, "channel": 0}, {"type": "note_on", "time": 6, "note": 65, "velocity": 111, "channel": 0}, {"type": "note_off", "time": 58, "note": 65, "velocity": 111, "channel": 0}, {"type": "note_on", "time": 3, "note": 64, "velocity": 108, "channel": 0}, {"type": "note_off", "time": 44, "note": 64, "velocity": 108, "channel": 0}, {"type": "note_on", "time": 8, "note": 63, "velocity": 99, "channel": 0}, {"type": "note_off", "time": 37, "note": 63, "velocity": 99, "channel": 0}, {"type": "note_on", "time": 287, "note": 74, "velocity": 120, "channel": 0}, {"type": "note_off", "time": 152, "note": 74, "velocity": 120, "channel": 0}, {"type": "note_on", "time": 5, "note": 73, "velocity": 104, "channel": 0}, {"type": "note_off", "time": 20, "note": 73, "velocity": 104, "channel": 0}, {"type": "note_on", "time": 5, "note": 74, "velocity": 121, "channel": 0}, {"type": "note_off", "time": 111, "note": 74, "velocity": 121, "channel": 0}, {"type": "note_on", "time": 13, "note": 75, "velocity": 107, "channel": 0}, {"type": "note_off", "time": 160, "note": 75, "velocity": 107, "channel": 0}, {"type": "note_on", "time": 32, "note": 73, "velocity": 97, "channel": 0}, {"type": "note_off", "time": 71, "note": 73, "velocity": 97, "channel": 0}, {"type": "note_on", "time": 0, "note": 76, "velocity": 125, "channel": 0}, {"type": "note_off", "time": 70, "note": 76, "velocity": 125, "channel": 0}, {"type": "note_on", "time": 1, "note": 75, "velocity": 117, "channel": 0}, {"type": "note_off", "time": 51, "note": 75, "velocity": 117, "channel": 0}, {"type": "note_on", "time": 6, "note": 76, "velocity": 123, "channel": 0}, {"type": "note_off", "time": 56, "note": 76, "velocity": 123, "channel": 0}, {"type": "note_on", "time": 6, "note": 77, "velocity": 119, "channel": 0}, {"type": "note_off", "time": 128, "note": 77, "velocity": 119, "channel": 0}, {"type": "note_on", "time": 270, "note": 89, "velocity": 120, "channel": 0}, {"type": "note_off", "time": 155, "note": 89, "velocity": 120, "channel": 0}, {"type": "note_on", "time": 208, "note": 83, "velocity": 101, "channel": 0}, {"type": "note_off", "time": 25, "note": 83, "velocity": 101, "channel": 0}, {"type": "note_on", "time": 3, "note": 87, "velocity": 116, "channel": 0}, {"type": "note_off", "time": 35, "note": 87, "velocity": 116, "channel": 0}, {"type": "note_on", "time": 3, "note": 88, "velocity": 119, "channel": 0}, {"type": "note_off", "time": 92, "note": 88, "velocity": 119, "channel": 0}, {"type": "note_on", "time": 47, "note": 86, "velocity": 119, "channel": 0}, {"type": "note_off", "time": 112, "note": 86, "velocity": 119, "channel": 0}, {"type": "note_on", "time": 5, "note": 84, "velocity": 120, "channel": 0}, {"type": "note_off", "time": 87, "note": 84, "velocity": 120, "channel": 0}, {"type": "note_on", "time": 3, "note": 82, "velocity": 116, "channel": 0}, {"type": "note_off", "time": 102, "note": 82, "velocity": 116, "channel": 0}, {"type": "note_on", "time": 5, "note": 80, "velocity": 112, "channel": 0}, {"type": "note_off", "time": 29, "note": 80, "velocity": 112, "channel": 0}, {"type": "note_on", "time": 42, "note": 79, "velocity": 97, "channel": 0}, {"type": "note_off", "time": 11, "note": 79, "velocity": 97, "channel": 0}, {"type": "note_on", "time": 8, "note": 77, "velocity": 116, "channel": 0}, {"type": "note_off", "time": 85, "note": 77, "velocity": 116, "channel": 0}, {"type": "note_on", "time": 20, "note": 80, "velocity": 107, "channel": 0}, {"type": "note_off", "time": 11, "note": 80, "velocity": 107, "channel": 0}, {"type": "note_on", "time": 5, "note": 77, "velocity": 113, "channel": 0}, {"type": "note_off", "time": 47, "note": 77, "velocity": 113, "channel": 0}, {"type": "note_on", "time": 1, "note": 75, "velocity": 112, "channel": 0}, {"type": "note_off", "time": 107, "note": 75, "velocity": 112, "channel": 0}, {"type": "note_on", "time": 13, "note": 72, "velocity": 110, "channel": 0}, {"type": "note_off", "time": 42, "note": 72, "velocity": 110, "channel": 0}, {"type": "note_on", "time": 25, "note": 70, "velocity": 105, "channel": 0}, {"type": "note_off", "time": 130, "note": 70, "velocity": 105, "channel": 0}, {"type": "note_on", "time": 15, "note": 65, "velocity": 82, "channel": 0}, {"type": "note_off", "time": 35, "note": 65, "velocity": 82, "channel": 0}, {"type": "note_on", "time": 6, "note": 69, "velocity": 104, "channel": 0}, {"type": "note_off", "time": 174, "note": 69, "velocity": 104, "channel": 0}, {"type": "note_on", "time": 1, "note": 66, "velocity": 96, "channel": 0}, {"type": "note_off", "time": 123, "note": 66, "velocity": 96, "channel": 0}, {"type": "note_on", "time": 22, "note": 65, "velocity": 96, "channel": 0}, {"type": "note_off", "time": 160, "note": 65, "velocity": 96, "channel": 0}, {"type": "note_on", "time": 13, "note": 63, "velocity": 95, "channel": 0}, {"type": "note_off", "time": 188, "note": 63, "velocity": 95, "channel": 0}, {"type": "note_on", "time": 10, "note": 61, "velocity": 97, "channel": 0}, {"type": "note_off", "time": 167, "note": 61, "velocity": 97, "channel": 0}, {"type": "note_on", "time": 15, "note": 59, "velocity": 92, "channel": 0}, {"type": "note_off", "time": 242, "note": 59, "velocity": 92, "channel": 0}, {"type": "note_on", "time": 18, "note": 58, "velocity": 92, "channel": 0}, {"type": "note_off", "time": 118, "note": 58, "velocity": 92, "channel": 0}, {"type": "note_on", "time": 18, "note": 58, "velocity": 93, "channel": 0}, {"type": "note_off", "time": 37, "note": 58, "velocity": 93, "channel": 0}, {"type": "note_on", "time": 406, "note": 74, "velocity": 107, "channel": 0}, {"type": "note_off", "time": 34, "note": 74, "velocity": 107, "channel": 0}, {"type": "note_on", "time": 0, "note": 72, "velocity": 105, "channel": 0}, {"type": "note_off", "time": 29, "note": 72, "velocity": 105, "channel": 0}, {"type": "note_on", "time": 1, "note": 69, "velocity": 112, "channel": 0}, {"type": "note_off", "time": 46, "note": 69, "velocity": 112, "channel": 0}, {"type": "note_on", "time": 11, "note": 70, "velocity": 108, "channel": 0}, {"type": "note_off", "time": 65, "note": 70, "velocity": 108, "channel": 0}, {"type": "note_on", "time": 3, "note": 67, "velocity": 95, "channel": 0}, {"type": "note_off", "time": 23, "note": 67, "velocity": 95, "channel": 0}, {"type": "note_on", "time": 5, "note": 68, "velocity": 105, "channel": 0}, {"type": "note_off", "time": 59, "note": 68, "velocity": 105, "channel": 0}, {"type": "note_on", "time": 11, "note": 70, "velocity": 95, "channel": 0}, {"type": "note_off", "time": 71, "note": 70, "velocity": 95, "channel": 0}, {"type": "note_on", "time": 15, "note": 72, "velocity": 111, "channel": 0}, {"type": "note_off", "time": 49, "note": 72, "velocity": 111, "channel": 0}, {"type": "note_on", "time": 6, "note": 74, "velocity": 115, "channel": 0}, {"type": "note_off", "time": 46, "note": 74, "velocity": 115, "channel": 0}, {"type": "note_on", "time": 10, "note": 76, "velocity": 114, "channel": 0}, {"type": "note_off", "time": 47, "note": 76, "velocity": 114, "channel": 0}, {"type": "note_on", "time": 10, "note": 74, "velocity": 105, "channel": 0}, {"type": "note_off", "time": 59, "note": 74, "velocity": 105, "channel": 0}, {"type": "note_on", "time": 6, "note": 72, "velocity": 113, "channel": 0}, {"type": "note_off", "time": 47, "note": 72, "velocity": 113, "channel": 0}, {"type": "note_on", "time": 4, "note": 71, "velocity": 103, "channel": 0}, {"type": "note_off", "time": 24, "note": 71, "velocity": 103, "channel": 0}, {"type": "note_on", "time": 26, "note": 70, "velocity": 114, "channel": 0}, {"type": "note_off", "time": 51, "note": 70, "velocity": 114, "channel": 0}, {"type": "note_on", "time": 58, "note": 68, "velocity": 101, "channel": 0}, {"type": "note_off", "time": 287, "note": 68, "velocity": 101, "channel": 0}, {"type": "note_on", "time": 5, "note": 69, "velocity": 97, "channel": 0}, {"type": "note_off", "time": 160, "note": 69, "velocity": 97, "channel": 0}, {"type": "note_on", "time": 75, "note": 77, "velocity": 116, "channel": 0}, {"type": "note_off", "time": 30, "note": 77, "velocity": 116, "channel": 0}, {"type": "note_on", "time": 1, "note": 75, "velocity": 106, "channel": 0}, {"type": "note_off", "time": 20, "note": 75, "velocity": 106, "channel": 0}, {"type": "note_on", "time": 8, "note": 72, "velocity": 95, "channel": 0}, {"type": "note_off", "time": 18, "note": 72, "velocity": 95, "channel": 0}, {"type": "note_on", "time": 0, "note": 68, "velocity": 94, "channel": 0}, {"type": "note_off", "time": 20, "note": 68, "velocity": 94, "channel": 0}, {"type": "note_on", "time": 3, "note": 69, "velocity": 103, "channel": 0}, {"type": "note_off", "time": 51, "note": 69, "velocity": 103, "channel": 0}, {"type": "note_on", "time": 23, "note": 70, "velocity": 108, "channel": 0}, {"type": "note_off", "time": 145, "note": 70, "velocity": 108, "channel": 0}, {"type": "note_on", "time": 42, "note": 69, "velocity": 106, "channel": 0}, {"type": "note_off", "time": 121, "note": 69, "velocity": 106, "channel": 0}, {"type": "note_on", "time": 13, "note": 67, "velocity": 103, "channel": 0}, {"type": "note_off", "time": 27, "note": 67, "velocity": 103, "channel": 0}, {"type": "note_on", "time": 47, "note": 66, "velocity": 96, "channel": 0}, {"type": "note_off", "time": 30, "note": 66, "velocity": 96, "channel": 0}, {"type": "note_on", "time": 41, "note": 64, "velocity": 99, "channel": 0}, {"type": "note_off", "time": 34, "note": 64, "velocity": 99, "channel": 0}, {"type": "note_on", "time": 254, "note": 77, "velocity": 123, "channel": 0}, {"type": "note_off", "time": 53, "note": 77, "velocity": 123, "channel": 0}, {"type": "note_on", "time": 1, "note": 76, "velocity": 123, "channel": 0}, {"type": "note_off", "time": 47, "note": 76, "velocity": 123, "channel": 0}, {"type": "note_on", "time": 8, "note": 77, "velocity": 125, "channel": 0}, {"type": "note_off", "time": 53, "note": 77, "velocity": 125, "channel": 0}, {"type": "note_on", "time": 5, "note": 79, "velocity": 121, "channel": 0}, {"type": "note_off", "time": 56, "note": 79, "velocity": 121, "channel": 0}, {"type": "note_on", "time": 0, "note": 76, "velocity": 121, "channel": 0}, {"type": "note_off", "time": 54, "note": 76, "velocity": 121, "channel": 0}, {"type": "note_on", "time": 5, "note": 74, "velocity": 10, "channel": 0}, {"type": "note_off", "time": 61, "note": 74, "velocity": 10, "channel": 0}, {"type": "note_on", "time": 6, "note": 72, "velocity": 107, "channel": 0}, {"type": "note_off", "time": 152, "note": 72, "velocity": 107, "channel": 0}, {"type": "note_on", "time": 70, "note": 74, "velocity": 122, "channel": 0}, {"type": "note_off", "time": 56, "note": 74, "velocity": 122, "channel": 0}, {"type": "note_on", "time": 3, "note": 72, "velocity": 105, "channel": 0}, {"type": "note_off", "time": 27, "note": 72, "velocity": 105, "channel": 0}, {"type": "note_on", "time": 39, "note": 74, "velocity": 117, "channel": 0}, {"type": "note_off", "time": 229, "note": 74, "velocity": 117, "channel": 0}, {"type": "note_on", "time": 5, "note": 72, "velocity": 103, "channel": 0}, {"type": "note_off", "time": 27, "note": 72, "velocity": 103, "channel": 0}, {"type": "note_on", "time": 1, "note": 74, "velocity": 114, "channel": 0}, {"type": "note_off", "time": 71, "note": 74, "velocity": 114, "channel": 0}, {"type": "note_on", "time": 0, "note": 72, "velocity": 110, "channel": 0}, {"type": "note_off", "time": 35, "note": 72, "velocity": 110, "channel": 0}, {"type": "note_on", "time": 0, "note": 70, "velocity": 98, "channel": 0}, {"type": "note_off", "time": 177, "note": 70, "velocity": 98, "channel": 0}, {"type": "note_on", "time": 290, "note": 77, "velocity": 122, "channel": 0}, {"type": "note_off", "time": 42, "note": 77, "velocity": 122, "channel": 0}, {"type": "note_on", "time": 6, "note": 76, "velocity": 112, "channel": 0}, {"type": "note_off", "time": 39, "note": 76, "velocity": 112, "channel": 0}, {"type": "note_on", "time": 8, "note": 76, "velocity": 119, "channel": 0}, {"type": "note_off", "time": 44, "note": 76, "velocity": 119, "channel": 0}, {"type": "note_on", "time": 15, "note": 78, "velocity": 123, "channel": 0}, {"type": "note_off", "time": 47, "note": 78, "velocity": 123, "channel": 0}, {"type": "note_on", "time": 32, "note": 81, "velocity": 125, "channel": 0}, {"type": "note_off", "time": 42, "note": 81, "velocity": 125, "channel": 0}, {"type": "note_on", "time": 10, "note": 83, "velocity": 125, "channel": 0}, {"type": "note_off", "time": 47, "note": 83, "velocity": 125, "channel": 0}, {"type": "note_on", "time": 6, "note": 86, "velocity": 123, "channel": 0}, {"type": "note_off", "time": 49, "note": 86, "velocity": 123, "channel": 0}, {"type": "note_on", "time": 11, "note": 82, "velocity": 119, "channel": 0}, {"type": "note_off", "time": 54, "note": 82, "velocity": 119, "channel": 0}, {"type": "note_on", "time": 11, "note": 81, "velocity": 124, "channel": 0}, {"type": "note_off", "time": 42, "note": 81, "velocity": 124, "channel": 0}, {"type": "note_on", "time": 10, "note": 79, "velocity": 120, "channel": 0}, {"type": "note_off", "time": 44, "note": 79, "velocity": 120, "channel": 0}, {"type": "note_on", "time": 5, "note": 77, "velocity": 124, "channel": 0}, {"type": "note_off", "time": 53, "note": 77, "velocity": 124, "channel": 0}, {"type": "note_on", "time": 6, "note": 75, "velocity": 118, "channel": 0}, {"type": "note_off", "time": 44, "note": 75, "velocity": 118, "channel": 0}, {"type": "note_on", "time": 15, "note": 72, "velocity": 119, "channel": 0}, {"type": "note_off", "time": 39, "note": 72, "velocity": 119, "channel": 0}, {"type": "note_on", "time": 10, "note": 71, "velocity": 103, "channel": 0}, {"type": "note_off", "time": 39, "note": 71, "velocity": 103, "channel": 0}, {"type": "note_on", "time": 18, "note": 70, "velocity": 113, "channel": 0}, {"type": "note_off", "time": 51, "note": 70, "velocity": 113, "channel": 0}, {"type": "note_on", "time": 6, "note": 69, "velocity": 117, "channel": 0}, {"type": "note_off", "time": 51, "note": 69, "velocity": 117, "channel": 0}, {"type": "note_on", "time": 46, "note": 70, "velocity": 117, "channel": 0}, {"type": "note_off", "time": 56, "note": 70, "velocity": 117, "channel": 0}, {"type": "note_on", "time": 63, "note": 69, "velocity": 121, "channel": 0}, {"type": "note_off", "time": 39, "note": 69, "velocity": 121, "channel": 0}, {"type": "note_on", "time": 20, "note": 67, "velocity": 111, "channel": 0}, {"type": "note_off", "time": 44, "note": 67, "velocity": 111, "channel": 0}, {"type": "note_on", "time": 6, "note": 65, "velocity": 114, "channel": 0}, {"type": "note_off", "time": 53, "note": 65, "velocity": 114, "channel": 0}, {"type": "note_on", "time": 5, "note": 64, "velocity": 109, "channel": 0}, {"type": "note_off", "time": 46, "note": 64, "velocity": 109, "channel": 0}, {"type": "note_on", "time": 23, "note": 63, "velocity": 109, "channel": 0}, {"type": "note_off", "time": 47, "note": 63, "velocity": 109, "channel": 0}, {"type": "note_on", "time": 5, "note": 60, "velocity": 103, "channel": 0}, {"type": "note_off", "time": 41, "note": 60, "velocity": 103, "channel": 0}, {"type": "note_on", "time": 8, "note": 59, "velocity": 102, "channel": 0}, {"type": "note_off", "time": 92, "note": 59, "velocity": 102, "channel": 0}, {"type": "note_on", "time": 11, "note": 58, "velocity": 106, "channel": 0}, {"type": "note_off", "time": 162, "note": 58, "velocity": 106, "channel": 0}, {"type": "note_on", "time": 16, "note": 57, "velocity": 100, "channel": 0}, {"type": "note_off", "time": 148, "note": 57, "velocity": 100, "channel": 0}, {"type": "end_of_track", "time": 0}]]}