{"ticks_per_beat": 840, "tracks": [[{"type": "track_name", "name": "Melody", "time": 0}, {"type": "set_tempo", "tempo": 500000, "time": 0}, {"type": "key_signature", "key": "Db", "time": 0}, {"type": "time_signature", "numerator": 4, "denominator": 4, "clocks_per_click": 24, "notated_32nd_notes_per_beat": 8, "time": 0}, {"type": "note_on", "time": 10786, "note": 68, "velocity": 115, "channel": 0}, {"type": "note_off", "time": 240, "note": 68, "velocity": 115, "channel": 0}, {"type": "note_on", "time": 51, "note": 70, "velocity": 116, "channel": 0}, {"type": "note_off", "time": 191, "note": 70, "velocity": 116, "channel": 0}, {"type": "note_on", "time": 51, "note": 73, "velocity": 122, "channel": 0}, {"type": "note_off", "time": 288, "note": 73, "velocity": 122, "channel": 0}, {"type": "note_on", "time": 58, "note": 75, "velocity": 125, "channel": 0}, {"type": "note_off", "time": 253, "note": 75, "velocity": 125, "channel": 0}, {"type": "note_on", "time": 30, "note": 73, "velocity": 118, "channel": 0}, {"type": "note_off", "time": 178, "note": 73, "velocity": 118, "channel": 0}, {"type": "note_on", "time": 51, "note": 70, "velocity": 107, "channel": 0}, {"type": "note_off", "time": 257, "note": 70, "velocity": 107, "channel": 0}, {"type": "note_on", "time": 92, "note": 73, "velocity": 117, "channel": 0}, {"type": "note_off", "time": 630, "note": 73, "velocity": 117, "channel": 0}, {"type": "note_on", "time": 942, "note": 66, "velocity": 117, "channel": 0}, {"type": "note_off", "time": 250, "note": 66, "velocity": 117, "channel": 0}, {"type": "note_on", "time": 71, "note": 70, "velocity": 124, "channel": 0}, {"type": "note_off", "time": 250, "note": 70, "velocity": 124, "channel": 0}, {"type": "note_on", "time": 13, "note": 73, "velocity": 125, "channel": 0}, {"type": "note_off", "time": 274, "note": 73, "velocity": 125, "channel": 0}, {"type": "note_on", "time": 109, "note": 76, "velocity": 125, "channel": 0}, {"type": "note_off", "time": 270, "note": 76, "velocity": 125, "channel": 0}, {"type": "note_on", "time": 75, "note": 73, "velocity": 125, "channel": 0}, {"type": "note_off", "time": 174, "note": 73, "velocity": 125, "channel": 0}, {"type": "note_on", "time": 126, "note": 70, "velocity": 119, "channel": 0}, {"type": "note_off", "time": 192, "note": 70, "velocity": 119, "channel": 0}, {"type": "note_on", "time": 72, "note": 73, "velocity": 121, "channel": 0}, {"type": "note_off", "time": 593, "note": 73, "velocity": 121, "channel": 0}, {"type": "note_on", "time": 532, "note": 68, "velocity": 113, "channel": 0}, {"type": "note_off", "time": 329, "note": 68, "velocity": 113, "channel": 0}, {"type": "note_on", "time": 46, "note": 70, "velocity": 120, "channel": 0}, {"type": "note_off", "time": 292, "note": 70, "velocity": 120, "channel": 0}, {"type": "note_on", "time": 58, "note": 73, "velocity": 123, "channel": 0}, {"type": "note_off", "time": 280, "note": 73, "velocity": 123, "channel": 0}, {"type": "note_on", "time": 163, "note": 76, "velocity": 122, "channel": 0}, {"type": "note_off", "time": 207, "note": 76, "velocity": 122, "channel": 0}, {"type": "note_on", "time": 39, "note": 77, "velocity": 120, "channel": 0}, {"type": "note_off", "time": 177, "note": 77, "velocity": 120, "channel": 0}, {"type": "note_on", "time": 170, "note": 73, "velocity": 121, "channel": 0}, {"type": "note_off", "time": 290, "note": 73, "velocity": 121, "channel": 0}, {"type": "note_on", "time": 124, "note": 70, "velocity": 116, "channel": 0}, {"type": "note_off", "time": 229, "note": 70, "velocity": 116, "channel": 0}, {"type": "note_on", "time": 168, "note": 73, "velocity": 116, "channel": 0}, {"type": "note_off", "time": 570, "note": 73, "velocity": 116, "channel": 0}, {"type": "note_on", "time": 126, "note": 70, "velocity": 109, "channel": 0}, {"type": "note_off", "time": 546, "note": 70, "velocity": 109, "channel": 0}, {"type": "note_on", "time": 121, "note": 68, "velocity": 118, "channel": 0}, {"type": "note_off", "time": 336, "note": 68, "velocity": 118, "channel": 0}, {"type": "note_on", "time": 78, "note": 63, "velocity": 98, "channel": 0}, {"type": "note_off", "time": 1033, "note": 63, "velocity": 98, "channel": 0}, {"type": "note_on", "time": 2086, "note": 73, "velocity": 118, "channel": 0}, {"type": "note_off", "time": 315, "note": 73, "velocity": 118, "channel": 0}, {"type": "note_on", "time": 92, "note": 76, "velocity": 122, "channel": 0}, {"type": "note_off", "time": 311, "note": 76, "velocity": 122, "channel": 0}, {"type": "note_on", "time": 140, "note": 78, "velocity": 123, "channel": 0}, {"type": "note_off", "time": 329, "note": 78, "velocity": 123, "channel": 0}, {"type": "note_on", "time": 126, "note": 79, "velocity": 122, "channel": 0}, {"type": "note_off", "time": 311, "note": 79, "velocity": 122, "channel": 0}, {"type": "note_on", "time": 126, "note": 78, "velocity": 123, "channel": 0}, {"type": "note_off", "time": 342, "note": 78, "velocity": 123, "channel": 0}, {"type": "note_on", "time": 99, "note": 76, "velocity": 121, "channel": 0}, {"type": "note_off", "time": 277, "note": 76, "velocity": 121, "channel": 0}, {"type": "note_on", "time": 58, "note": 73, "velocity": 123, "channel": 0}, {"type": "note_off", "time": 216, "note": 73, "velocity": 123, "channel": 0}, {"type": "note_on", "time": 137, "note": 76, "velocity": 119, "channel": 0}, {"type": "note_off", "time": 336, "note": 76, "velocity": 119, "channel": 0}, {"type": "note_on", "time": 102, "note": 73, "velocity": 117, "channel": 0}, {"type": "note_off", "time": 723, "note": 73, "velocity": 117, "channel": 0}, {"type": "note_on", "time": 78, "note": 71, "velocity": 120, "channel": 0}, {"type": "note_off", "time": 198, "note": 71, "velocity": 120, "channel": 0}, {"type": "note_on", "time": 180, "note": 68, "velocity": 115, "channel": 0}, {"type": "note_off", "time": 169, "note": 68, "velocity": 115, "channel": 0}, {"type": "note_on", "time": 30, "note": 67, "velocity": 114, "channel": 0}, {"type": "note_off", "time": 156, "note": 67, "velocity": 114, "channel": 0}, {"type": "note_on", "time": 42, "note": 66, "velocity": 113, "channel": 0}, {"type": "note_off", "time": 168, "note": 66, "velocity": 113, "channel": 0}, {"type": "note_on", "time": 32, "note": 64, "velocity": 108, "channel": 0}, {"type": "note_off", "time": 119, "note": 64, "velocity": 108, "channel": 0}, {"type": "note_on", "time": 243, "note": 64, "velocity": 114, "channel": 0}, {"type": "note_off", "time": 177, "note": 64, "velocity": 114, "channel": 0}, {"type": "note_on", "time": 71, "note": 65, "velocity": 104, "channel": 0}, {"type": "note_off", "time": 292, "note": 65, "velocity": 104, "channel": 0}, {"type": "note_on", "time": 60, "note": 61, "velocity": 107, "channel": 0}, {"type": "note_off", "time": 102, "note": 61, "velocity": 107, "channel": 0}, {"type": "note_on", "time": 36, "note": 60, "velocity": 95, "channel": 0}, {"type": "note_off", "time": 141, "note": 60, "velocity": 95, "channel": 0}, {"type": "note_on", "time": 73, "note": 61, "velocity": 103, "channel": 0}, {"type": "note_off", "time": 809, "note": 61, "velocity": 103, "channel": 0}, {"type": "note_on", "time": 138, "note": 64, "velocity": 117, "channel": 0}, {"type": "note_off", "time": 195, "note": 64, "velocity": 117, "channel": 0}, {"type": "note_on", "time": 38, "note": 65, "velocity": 111, "channel": 0}, {"type": "note_off", "time": 255, "note": 65, "velocity": 111, "channel": 0}, {"type": "note_on", "time": 827, "note": 66, "velocity": 100, "channel": 0}, {"type": "note_off", "time": 157, "note": 66, "velocity": 100, "channel": 0}, {"type": "note_on", "time": 72, "note": 68, "velocity": 117, "channel": 0}, {"type": "note_off", "time": 164, "note": 68, "velocity": 117, "channel": 0}, {"type": "note_on", "time": 65, "note": 70, "velocity": 121, "channel": 0}, {"type": "note_off", "time": 222, "note": 70, "velocity": 121, "channel": 0}, {"type": "note_on", "time": 140, "note": 71, "velocity": 118, "channel": 0}, {"type": "note_off", "time": 805, "note": 71, "velocity": 118, "channel": 0}, {"type": "note_on", "time": 154, "note": 65, "velocity": 106, "channel": 0}, {"type": "note_off", "time": 411, "note": 65, "velocity": 106, "channel": 0}, {"type": "note_on", "time": 102, "note": 70, "velocity": 114, "channel": 0}, {"type": "note_off", "time": 747, "note": 70, "velocity": 114, "channel": 0}, {"type": "note_on", "time": 68, "note": 65, "velocity": 117, "channel": 0}, {"type": "note_off", "time": 1724, "note": 65, "velocity": 117, "channel": 0}, {"type": "note_on", "time": 51, "note": 61, "velocity": 105, "channel": 0}, {"type": "note_off", "time": 726, "note": 61, "velocity": 105, "channel": 0}, {"type": "note_on", "time": 37, "note": 58, "velocity": 89, "channel": 0}, {"type": "note_off", "time": 174, "note": 58, "velocity": 89, "channel": 0}, {"type": "note_on", "time": 34, "note": 61, "velocity": 103, "channel": 0}, {"type": "note_off", "time": 562, "note": 61, "velocity": 103, "channel": 0}, {"type": "note_on", "time": 2372, "note": 73, "velocity": 120, "channel": 0}, {"type": "note_off", "time": 268, "note": 73, "velocity": 120, "channel": 0}, {"type": "note_on", "time": 175, "note": 78, "velocity": 125, "channel": 0}, {"type": "note_off", "time": 324, "note": 78, "velocity": 125, "channel": 0}, {"type": "note_on", "time": 117, "note": 77, "velocity": 119, "channel": 0}, {"type": "note_off", "time": 287, "note": 77, "velocity": 119, "channel": 0}, {"type": "note_on", "time": 117, "note": 73, "velocity": 124, "channel": 0}, {"type": "note_off", "time": 341, "note": 73, "velocity": 124, "channel": 0}, {"type": "note_on", "time": 280, "note": 68, "velocity": 121, "channel": 0}, {"type": "note_off", "time": 292, "note": 68, "velocity": 121, "channel": 0}, {"type": "note_on", "time": 51, "note": 66, "velocity": 113, "channel": 0}, {"type": "note_off", "time": 204, "note": 66, "velocity": 113, "channel": 0}, {"type": "note_on", "time": 65, "note": 64, "velocity": 115, "channel": 0}, {"type": "note_off", "time": 156, "note": 64, "velocity": 115, "channel": 0}, {"type": "note_on", "time": 287, "note": 64, "velocity": 113, "channel": 0}, {"type": "note_off", "time": 209, "note": 64, "velocity": 113, "channel": 0}, {"type": "note_on", "time": 51, "note": 65, "velocity": 105, "channel": 0}, {"type": "note_off", "time": 209, "note": 65, "velocity": 105, "channel": 0}, {"type": "note_on", "time": 90, "note": 61, "velocity": 106, "channel": 0}, {"type": "note_off", "time": 203, "note": 61, "velocity": 106, "channel": 0}, {"type": "note_on", "time": 36, "note": 58, "velocity": 90, "channel": 0}, {"type": "note_off", "time": 84, "note": 58, "velocity": 90, "channel": 0}, {"type": "note_on", "time": 37, "note": 61, "velocity": 99, "channel": 0}, {"type": "note_off", "time": 960, "note": 61, "velocity": 99, "channel": 0}, {"type": "note_on", "time": 268, "note": 61, "velocity": 94, "channel": 0}, {"type": "note_off", "time": 151, "note": 61, "velocity": 94, "channel": 0}, {"type": "note_on", "time": 2496, "note": 68, "velocity": 105, "channel": 0}, {"type": "note_off", "time": 92, "note": 68, "velocity": 105, "channel": 0}, {"type": "note_on", "time": 95, "note": 70, "velocity": 117, "channel": 0}, {"type": "note_off", "time": 117, "note": 70, "velocity": 117, "channel": 0}, {"type": "note_on", "time": 112, "note": 73, "velocity": 120, "channel": 0}, {"type": "note_off", "time": 158, "note": 73, "velocity": 120, "channel": 0}, {"type": "note_on", "time": 185, "note": 76, "velocity": 122, "channel": 0}, {"type": "note_off", "time": 299, "note": 76, "velocity": 122, "channel": 0}, {"type": "note_on", "time": 190, "note": 77, "velocity": 127, "channel": 0}, {"type": "note_off", "time": 290, "note": 77, "velocity": 127, "channel": 0}, {"type": "note_on", "time": 148, "note": 78, "velocity": 126, "channel": 0}, {"type": "note_off", "time": 307, "note": 78, "velocity": 126, "channel": 0}, {"type": "note_on", "time": 114, "note": 79, "velocity": 122, "channel": 0}, {"type": "note_off", "time": 295, "note": 79, "velocity": 122, "channel": 0}, {"type": "note_on", "time": 168, "note": 80, "velocity": 118, "channel": 0}, {"type": "note_off", "time": 312, "note": 80, "velocity": 118, "channel": 0}, {"type": "note_on", "time": 129, "note": 77, "velocity": 102, "channel": 0}, {"type": "note_off", "time": 775, "note": 77, "velocity": 102, "channel": 0}, {"type": "note_on", "time": 438, "note": 73, "velocity": 123, "channel": 0}, {"type": "note_off", "time": 351, "note": 73, "velocity": 123, "channel": 0}, {"type": "note_on", "time": 68, "note": 71, "velocity": 118, "channel": 0}, {"type": "note_off", "time": 343, "note": 71, "velocity": 118, "channel": 0}, {"type": "note_on", "time": 75, "note": 68, "velocity": 116, "channel": 0}, {"type": "note_off", "time": 451, "note": 68, "velocity": 116, "channel": 0}, {"type": "note_on", "time": 58, "note": 66, "velocity": 107, "channel": 0}, {"type": "note_off", "time": 1219, "note": 66, "velocity": 107, "channel": 0}, {"type": "note_on", "time": 482, "note": 61, "velocity": 95, "channel": 0}, {"type": "note_off", "time": 195, "note": 61, "velocity": 95, "channel": 0}, {"type": "note_on", "time": 104, "note": 64, "velocity": 108, "channel": 0}, {"type": "note_off", "time": 212, "note": 64, "velocity": 108, "channel": 0}, {"type": "note_on", "time": 36, "note": 65, "velocity": 102, "channel": 0}, {"type": "note_off", "time": 173, "note": 65, "velocity": 102, "channel": 0}, {"type": "note_on", "time": 216, "note": 68, "velocity": 115, "channel": 0}, {"type": "note_off", "time": 331, "note": 68, "velocity": 115, "channel": 0}, {"type": "note_on", "time": 1896, "note": 68, "velocity": 109, "channel": 0}, {"type": "note_off", "time": 153, "note": 68, "velocity": 109, "channel": 0}, {"type": "note_on", "time": 64, "note": 70, "velocity": 118, "channel": 0}, {"type": "note_off", "time": 173, "note": 70, "velocity": 118, "channel": 0}, {"type": "note_on", "time": 25, "note": 71, "velocity": 114, "channel": 0}, {"type": "note_off", "time": 167, "note": 71, "velocity": 114, "channel": 0}, {"type": "note_on", "time": 30, "note": 73, "velocity": 114, "channel": 0}, {"type": "note_off", "time": 184, "note": 73, "velocity": 114, "channel": 0}, {"type": "note_on", "time": 18, "note": 70, "velocity": 112, "channel": 0}, {"type": "note_off", "time": 108, "note": 70, "velocity": 112, "channel": 0}, {"type": "note_on", "time": 31, "note": 71, "velocity": 100, "channel": 0}, {"type": "note_off", "time": 173, "note": 71, "velocity": 100, "channel": 0}, {"type": "note_on", "time": 91, "note": 68, "velocity": 98, "channel": 0}, {"type": "note_off", "time": 151, "note": 68, "velocity": 98, "channel": 0}, {"type": "note_on", "time": 241, "note": 66, "velocity": 107, "channel": 0}, {"type": "note_off", "time": 302, "note": 66, "velocity": 107, "channel": 0}, {"type": "note_on", "time": 28, "note": 65, "velocity": 98, "channel": 0}, {"type": "note_off", "time": 298, "note": 65, "velocity": 98, "channel": 0}, {"type": "note_on", "time": 80, "note": 69, "velocity": 93, "channel": 0}, {"type": "note_off", "time": 79, "note": 69, "velocity": 93, "channel": 0}, {"type": "note_on", "time": 21, "note": 71, "velocity": 114, "channel": 0}, {"type": "note_off", "time": 159, "note": 71, "velocity": 114, "channel": 0}, {"type": "note_on", "time": 54, "note": 76, "velocity": 123, "channel": 0}, {"type": "note_off", "time": 604, "note": 76, "velocity": 123, "channel": 0}, {"type": "note_on", "time": 30, "note": 74, "velocity": 119, "channel": 0}, {"type": "note_off", "time": 171, "note": 74, "velocity": 119, "channel": 0}, {"type": "note_on", "time": 24, "note": 72, "velocity": 119, "channel": 0}, {"type": "note_off", "time": 154, "note": 72, "velocity": 119, "channel": 0}, {"type": "note_on", "time": 21, "note": 73, "velocity": 112, "channel": 0}, {"type": "note_off", "time": 187, "note": 73, "velocity": 112, "channel": 0}, {"type": "note_on", "time": 29, "note": 70, "velocity": 122, "channel": 0}, {"type": "note_off", "time": 230, "note": 70, "velocity": 122, "channel": 0}, {"type": "note_on", "time": 24, "note": 71, "velocity": 120, "channel": 0}, {"type": "note_off", "time": 148, "note": 71, "velocity": 120, "channel": 0}, {"type": "note_on", "time": 31, "note": 69, "velocity": 112, "channel": 0}, {"type": "note_off", "time": 106, "note": 69, "velocity": 112, "channel": 0}, {"type": "note_on", "time": 57, "note": 70, "velocity": 116, "channel": 0}, {"type": "note_off", "time": 196, "note": 70, "velocity": 116, "channel": 0}, {"type": "note_on", "time": 41, "note": 64, "velocity": 113, "channel": 0}, {"type": "note_off", "time": 396, "note": 64, "velocity": 113, "channel": 0}, {"type": "note_on", "time": 4913, "note": 73, "velocity": 103, "channel": 0}, {"type": "note_off", "time": 233, "note": 73, "velocity": 103, "channel": 0}, {"type": "note_on", "time": 200, "note": 76, "velocity": 111, "channel": 0}, {"type": "note_off", "time": 262, "note": 76, "velocity": 111, "channel": 0}, {"type": "note_on", "time": 162, "note": 77, "velocity": 118, "channel": 0}, {"type": "note_off", "time": 286, "note": 77, "velocity": 118, "channel": 0}, {"type": "note_on", "time": 185, "note": 78, "velocity": 121, "channel": 0}, {"type": "note_off", "time": 277, "note": 78, "velocity": 121, "channel": 0}, {"type": "note_on", "time": 152, "note": 79, "velocity": 120, "channel": 0}, {"type": "note_off", "time": 300, "note": 79, "velocity": 120, "channel": 0}, {"type": "note_on", "time": 142, "note": 80, "velocity": 119, "channel": 0}, {"type": "note_off", "time": 303, "note": 80, "velocity": 119, "channel": 0}, {"type": "note_on", "time": 94, "note": 77, "velocity": 122, "channel": 0}, {"type": "note_off", "time": 308, "note": 77, "velocity": 122, "channel": 0}, {"type": "note_on", "time": 116, "note": 78, "velocity": 119, "channel": 0}, {"type": "note_off", "time": 298, "note": 78, "velocity": 119, "channel": 0}, {"type": "note_on", "time": 121, "note": 76, "velocity": 119, "channel": 0}, {"type": "note_off", "time": 282, "note": 76, "velocity": 119, "channel": 0}, {"type": "note_on", "time": 200, "note": 77, "velocity": 115, "channel": 0}, {"type": "note_off", "time": 327, "note": 77, "velocity": 115, "channel": 0}, {"type": "note_on", "time": 75, "note": 72, "velocity": 108, "channel": 0}, {"type": "note_off", "time": 276, "note": 72, "velocity": 108, "channel": 0}, {"type": "note_on", "time": 132, "note": 75, "velocity": 112, "channel": 0}, {"type": "note_off", "time": 108, "note": 75, "velocity": 112, "channel": 0}, {"type": "note_on", "time": 38, "note": 77, "velocity": 113, "channel": 0}, {"type": "note_off", "time": 119, "note": 77, "velocity": 113, "channel": 0}, {"type": "note_on", "time": 32, "note": 75, "velocity": 106, "channel": 0}, {"type": "note_off", "time": 145, "note": 75, "velocity": 106, "channel": 0}, {"type": "note_on", "time": 20, "note": 73, "velocity": 112, "channel": 0}, {"type": "note_off", "time": 130, "note": 73, "velocity": 112, "channel": 0}, {"type": "note_on", "time": 308, "note": 74, "velocity": 116, "channel": 0}, {"type": "note_off", "time": 300, "note": 74, "velocity": 116, "channel": 0}, {"type": "note_on", "time": 66, "note": 71, "velocity": 115, "channel": 0}, {"type": "note_off", "time": 214, "note": 71, "velocity": 115, "channel": 0}, {"type": "note_on", "time": 200, "note": 70, "velocity": 105, "channel": 0}, {"type": "note_off", "time": 186, "note": 70, "velocity": 105, "channel": 0}, {"type": "note_on", "time": 270, "note": 68, "velocity": 106, "channel": 0}, {"type": "note_off", "time": 188, "note": 68, "velocity": 106, "channel": 0}, {"type": "note_on", "time": 162, "note": 65, "velocity": 108, "channel": 0}, {"type": "note_off", "time": 270, "note": 65, "velocity": 108, "channel": 0}, {"type": "note_on", "time": 48, "note": 66, "velocity": 102, "channel": 0}, {"type": "note_off", "time": 941, "note": 66, "velocity": 102, "channel": 0}, {"type": "note_on", "time": 387, "note": 77, "velocity": 119, "channel": 0}, {"type": "note_off", "time": 482, "note": 77, "velocity": 119, "channel": 0}, {"type": "note_on", "time": 79, "note": 77, "velocity": 103, "channel": 0}, {"type": "note_off", "time": 70, "note": 77, "velocity": 103, "channel": 0}, {"type": "note_on", "time": 20, "note": 75, "velocity": 112, "channel": 0}, {"type": "note_off", "time": 106, "note": 75, "velocity": 112, "channel": 0}, {"type": "note_on", "time": 23, "note": 73, "velocity": 113, "channel": 0}, {"type": "note_off", "time": 115, "note": 73, "velocity": 113, "channel": 0}, {"type": "note_on", "time": 14, "note": 70, "velocity": 107, "channel": 0}, {"type": "note_off", "time": 335, "note": 70, "velocity": 107, "channel": 0}, {"type": "note_on", "time": 177, "note": 66, "velocity": 106, "channel": 0}, {"type": "note_off", "time": 307, "note": 66, "velocity": 106, "channel": 0}, {"type": "note_on", "time": 118, "note": 63, "velocity": 91, "channel": 0}, {"type": "note_off", "time": 212, "note": 63, "velocity": 91, "channel": 0}, {"type": "note_on", "time": 180, "note": 63, "velocity": 94, "channel": 0}, {"type": "note_off", "time": 168, "note": 63, "velocity": 94, "channel": 0}, {"type": "note_on", "time": 179, "note": 61, "velocity": 90, "channel": 0}, {"type": "note_off", "time": 95, "note": 61, "velocity": 90, "channel": 0}, {"type": "note_on", "time": 57, "note": 64, "velocity": 82, "channel": 0}, {"type": "note_off", "time": 80, "note": 64, "velocity": 82, "channel": 0}, {"type": "note_on", "time": 46, "note": 61, "velocity": 87, "channel": 0}, {"type": "note_off", "time": 101, "note": 61, "velocity": 87, "channel": 0}, {"type": "note_on", "time": 73, "note": 59, "velocity": 89, "channel": 0}, {"type": "note_off", "time": 103, "note": 59, "velocity": 89, "channel": 0}, {"type": "note_on", "time": 53, "note": 60, "velocity": 94, "channel": 0}, {"type": "note_off", "time": 516, "note": 60, "velocity": 94, "channel": 0}, {"type": "note_on", "time": 71, "note": 71, "velocity": 109, "channel": 0}, {"type": "note_off", "time": 206, "note": 71, "velocity": 109, "channel": 0}, {"type": "note_on", "time": 142, "note": 69, "velocity": 109, "channel": 0}, {"type": "note_off", "time": 171, "note": 69, "velocity": 109, "channel": 0}, {"type": "note_on", "time": 18, "note": 70, "velocity": 104, "channel": 0}, {"type": "note_off", "time": 99, "note": 70, "velocity": 104, "channel": 0}, {"type": "note_on", "time": 9, "note": 69, "velocity": 103, "channel": 0}, {"type": "note_off", "time": 97, "note": 69, "velocity": 103, "channel": 0}, {"type": "note_on", "time": 23, "note": 67, "velocity": 103, "channel": 0}, {"type": "note_off", "time": 275, "note": 67, "velocity": 103, "channel": 0}, {"type": "note_on", "time": 158, "note": 68, "velocity": 113, "channel": 0}, {"type": "note_off", "time": 331, "note": 68, "velocity": 113, "channel": 0}, {"type": "note_on", "time": 106, "note": 60, "velocity": 87, "channel": 0}, {"type": "note_off", "time": 104, "note": 60, "velocity": 87, "channel": 0}, {"type": "note_on", "time": 53, "note": 61, "velocity": 93, "channel": 0}, {"type": "note_off", "time": 302, "note": 61, "velocity": 93, "channel": 0}, {"type": "note_on", "time": 305, "note": 66, "velocity": 111, "channel": 0}, {"type": "note_off", "time": 259, "note": 66, "velocity": 111, "channel": 0}, {"type": "note_on", "time": 142, "note": 65, "velocity": 101, "channel": 0}, {"type": "note_off", "time": 391, "note": 65, "velocity": 101, "channel": 0}, {"type": "note_on", "time": 145, "note": 61, "velocity": 87, "channel": 0}, {"type": "note_off", "time": 870, "note": 61, "velocity": 87, "channel": 0}, {"type": "note_on", "time": 117, "note": 61, "velocity": 98, "channel": 0}, {"type": "note_off", "time": 149, "note": 61, "velocity": 98, "channel": 0}, {"type": "note_on", "time": 4595, "note": 76, "velocity": 114, "channel": 0}, {"type": "note_off", "time": 303, "note": 76, "velocity": 114, "channel": 0}, {"type": "note_on", "time": 129, "note": 79, "velocity": 110, "channel": 0}, {"type": "note_off", "time": 342, "note": 79, "velocity": 110, "channel": 0}, {"type": "note_on", "time": 77, "note": 80, "velocity": 117, "channel": 0}, {"type": "note_off", "time": 277, "note": 80, "velocity": 117, "channel": 0}, {"type": "note_on", "time": 135, "note": 82, "velocity": 122, "channel": 0}, {"type": "note_off", "time": 351, "note": 82, "velocity": 122, "channel": 0}, {"type": "note_on", "time": 464, "note": 85, "velocity": 125, "channel": 0}, {"type": "note_off", "time": 305, "note": 85, "velocity": 125, "channel": 0}, {"type": "note_on", "time": 185, "note": 83, "velocity": 119, "channel": 0}, {"type": "note_off", "time": 284, "note": 83, "velocity": 119, "channel": 0}, {"type": "note_on", "time": 68, "note": 80, "velocity": 113, "channel": 0}, {"type": "note_off", "time": 265, "note": 80, "velocity": 113, "channel": 0}, {"type": "note_on", "time": 65, "note": 79, "velocity": 113, "channel": 0}, {"type": "note_off", "time": 275, "note": 79, "velocity": 113, "channel": 0}, {"type": "note_on", "time": 4, "note": 78, "velocity": 111, "channel": 0}, {"type": "note_off", "time": 282, "note": 78, "velocity": 111, "channel": 0}, {"type": "note_on", "time": 23, "note": 76, "velocity": 110, "channel": 0}, {"type": "note_off", "time": 197, "note": 76, "velocity": 110, "channel": 0}, {"type": "note_on", "time": 23, "note": 73, "velocity": 107, "channel": 0}, {"type": "note_off", "time": 196, "note": 73, "velocity": 107, "channel": 0}, {"type": "note_on", "time": 71, "note": 76, "velocity": 112, "channel": 0}, {"type": "note_off", "time": 209, "note": 76, "velocity": 112, "channel": 0}, {"type": "note_on", "time": 65, "note": 77, "velocity": 105, "channel": 0}, {"type": "note_off", "time": 182, "note": 77, "velocity": 105, "channel": 0}, {"type": "note_on", "time": 199, "note": 73, "velocity": 116, "channel": 0}, {"type": "note_off", "time": 219, "note": 73, "velocity": 116, "channel": 0}, {"type": "note_on", "time": 156, "note": 71, "velocity": 113, "channel": 0}, {"type": "note_off", "time": 148, "note": 71, "velocity": 113, "channel": 0}, {"type": "note_on", "time": 43, "note": 68, "velocity": 109, "channel": 0}, {"type": "note_off", "time": 128, "note": 68, "velocity": 109, "channel": 0}, {"type": "note_on", "time": 63, "note": 66, "velocity": 101, "channel": 0}, {"type": "note_off", "time": 113, "note": 66, "velocity": 101, "channel": 0}, {"type": "note_on", "time": 35, "note": 64, "velocity": 103, "channel": 0}, {"type": "note_off", "time": 104, "note": 64, "velocity": 103, "channel": 0}, {"type": "note_on", "time": 268, "note": 64, "velocity": 110, "channel": 0}, {"type": "note_off", "time": 192, "note": 64, "velocity": 110, "channel": 0}, {"type": "note_on", "time": 12, "note": 65, "velocity": 100, "channel": 0}, {"type": "note_off", "time": 187, "note": 65, "velocity": 100, "channel": 0}, {"type": "note_on", "time": 42, "note": 61, "velocity": 101, "channel": 0}, {"type": "note_off", "time": 174, "note": 61, "velocity": 101, "channel": 0}, {"type": "note_on", "time": 30, "note": 60, "velocity": 112, "channel": 0}, {"type": "note_off", "time": 169, "note": 60, "velocity": 112, "channel": 0}, {"type": "note_on", "time": 32, "note": 61, "velocity": 101, "channel": 0}, {"type": "note_off", "time": 565, "note": 61, "velocity": 101, "channel": 0}, {"type": "note_on", "time": 3162, "note": 73, "velocity": 118, "channel": 0}, {"type": "note_off", "time": 218, "note": 73, "velocity": 118, "channel": 0}, {"type": "note_on", "time": 147, "note": 76, "velocity": 123, "channel": 0}, {"type": "note_off", "time": 332, "note": 76, "velocity": 123, "channel": 0}, {"type": "note_on", "time": 163, "note": 78, "velocity": 124, "channel": 0}, {"type": "note_off", "time": 284, "note": 78, "velocity": 124, "channel": 0}, {"type": "note_on", "time": 146, "note": 79, "velocity": 121, "channel": 0}, {"type": "note_off", "time": 398, "note": 79, "velocity": 121, "channel": 0}, {"type": "note_on", "time": 87, "note": 80, "velocity": 122, "channel": 0}, {"type": "note_off", "time": 1049, "note": 80, "velocity": 122, "channel": 0}, {"type": "note_on", "time": 233, "note": 79, "velocity": 121, "channel": 0}, {"type": "note_off", "time": 308, "note": 79, "velocity": 121, "channel": 0}, {"type": "note_on", "time": 94, "note": 80, "velocity": 103, "channel": 0}, {"type": "note_off", "time": 78, "note": 80, "velocity": 103, "channel": 0}, {"type": "note_on", "time": 24, "note": 78, "velocity": 118, "channel": 0}, {"type": "note_off", "time": 132, "note": 78, "velocity": 118, "channel": 0}, {"type": "note_on", "time": 18, "note": 76, "velocity": 109, "channel": 0}, {"type": "note_off", "time": 365, "note": 76, "velocity": 109, "channel": 0}, {"type": "note_on", "time": 20, "note": 73, "velocity": 115, "channel": 0}, {"type": "note_off", "time": 324, "note": 73, "velocity": 115, "channel": 0}, {"type": "note_on", "time": 786, "note": 79, "velocity": 121, "channel": 0}, {"type": "note_off", "time": 198, "note": 79, "velocity": 121, "channel": 0}, {"type": "note_on", "time": 36, "note": 78, "velocity": 120, "channel": 0}, {"type": "note_off", "time": 157, "note": 78, "velocity": 120, "channel": 0}, {"type": "note_on", "time": 42, "note": 76, "velocity": 115, "channel": 0}, {"type": "note_off", "time": 298, "note": 76, "velocity": 115, "channel": 0}, {"type": "note_on", "time": 70, "note": 73, "velocity": 113, "channel": 0}, {"type": "note_off", "time": 180, "note": 73, "velocity": 113, "channel": 0}, {"type": "note_on", "time": 190, "note": 71, "velocity": 115, "channel": 0}, {"type": "note_off", "time": 325, "note": 71, "velocity": 115, "channel": 0}, {"type": "note_on", "time": 73, "note": 68, "velocity": 112, "channel": 0}, {"type": "note_off", "time": 186, "note": 68, "velocity": 112, "channel": 0}, {"type": "note_on", "time": 480, "note": 67, "velocity": 113, "channel": 0}, {"type": "note_off", "time": 186, "note": 67, "velocity": 113, "channel": 0}, {"type": "note_on", "time": 71, "note": 66, "velocity": 113, "channel": 0}, {"type": "note_off", "time": 70, "note": 66, "velocity": 113, "channel": 0}, {"type": "note_on", "time": 47, "note": 64, "velocity": 116, "channel": 0}, {"type": "note_off", "time": 182, "note": 64, "velocity": 116, "channel": 0}, {"type": "note_on", "time": 58, "note": 61, "velocity": 95, "channel": 0}, {"type": "note_off", "time": 190, "note": 61, "velocity": 95, "channel": 0}, {"type": "note_on", "time": 173, "note": 63, "velocity": 110, "channel": 0}, {"type": "note_off", "time": 134, "note": 63, "velocity": 110, "channel": 0}, {"type": "note_on", "time": 65, "note": 65, "velocity": 114, "channel": 0}, {"type": "note_off", "time": 307, "note": 65, "velocity": 114, "channel": 0}, {"type": "note_on", "time": 1203, "note": 64, "velocity": 104, "channel": 0}, {"type": "note_off", "time": 104, "note": 64, "velocity": 104, "channel": 0}, {"type": "note_on", "time": 119, "note": 65, "velocity": 95, "channel": 0}, {"type": "note_off", "time": 104, "note": 65, "velocity": 95, "channel": 0}, {"type": "note_on", "time": 37, "note": 70, "velocity": 91, "channel": 0}, {"type": "note_off", "time": 56, "note": 70, "velocity": 91, "channel": 0}, {"type": "note_on", "time": 17, "note": 68, "velocity": 113, "channel": 0}, {"type": "note_off", "time": 238, "note": 68, "velocity": 113, "channel": 0}, {"type": "note_on", "time": 25, "note": 70, "velocity": 113, "channel": 0}, {"type": "note_off", "time": 151, "note": 70, "velocity": 113, "channel": 0}, {"type": "note_on", "time": 185, "note": 71, "velocity": 119, "channel": 0}, {"type": "note_off", "time": 174, "note": 71, "velocity": 119, "channel": 0}, {"type": "note_on", "time": 30, "note": 73, "velocity": 117, "channel": 0}, {"type": "note_off", "time": 159, "note": 73, "velocity": 117, "channel": 0}, {"type": "note_on", "time": 10, "note": 70, "velocity": 114, "channel": 0}, {"type": "note_off", "time": 518, "note": 70, "velocity": 114, "channel": 0}, {"type": "note_on", "time": 1203, "note": 65, "velocity": 118, "channel": 0}, {"type": "note_off", "time": 1628, "note": 65, "velocity": 118, "channel": 0}, {"type": "note_on", "time": 378, "note": 61, "velocity": 106, "channel": 0}, {"type": "note_off", "time": 541, "note": 61, "velocity": 106, "channel": 0}, {"type": "note_on", "time": 307, "note": 61, "velocity": 101, "channel": 0}, {"type": "note_off", "time": 668, "note": 61, "velocity": 101, "channel": 0}, {"type": "note_on", "time": 1947, "note": 68, "velocity": 96, "channel": 0}, {"type": "note_off", "time": 118, "note": 68, "velocity": 96, "channel": 0}, {"type": "note_on", "time": 135, "note": 70, "velocity": 73, "channel": 0}, {"type": "note_off", "time": 102, "note": 70, "velocity": 73, "channel": 0}, {"type": "note_on", "time": 68, "note": 73, "velocity": 102, "channel": 0}, {"type": "note_off", "time": 123, "note": 73, "velocity": 102, "channel": 0}, {"type": "note_on", "time": 190, "note": 78, "velocity": 116, "channel": 0}, {"type": "note_off", "time": 252, "note": 78, "velocity": 116, "channel": 0}, {"type": "note_on", "time": 251, "note": 77, "velocity": 117, "channel": 0}, {"type": "note_off", "time": 253, "note": 77, "velocity": 117, "channel": 0}, {"type": "note_on", "time": 101, "note": 73, "velocity": 111, "channel": 0}, {"type": "note_off", "time": 428, "note": 73, "velocity": 111, "channel": 0}, {"type": "note_on", "time": 366, "note": 73, "velocity": 107, "channel": 0}, {"type": "note_off", "time": 800, "note": 73, "velocity": 107, "channel": 0}, {"type": "note_on", "time": 49, "note": 71, "velocity": 110, "channel": 0}, {"type": "note_off", "time": 238, "note": 71, "velocity": 110, "channel": 0}, {"type": "note_on", "time": 29, "note": 68, "velocity": 105, "channel": 0}, {"type": "note_off", "time": 192, "note": 68, "velocity": 105, "channel": 0}, {"type": "note_on", "time": 70, "note": 66, "velocity": 96, "channel": 0}, {"type": "note_off", "time": 113, "note": 66, "velocity": 96, "channel": 0}, {"type": "note_on", "time": 130, "note": 64, "velocity": 102, "channel": 0}, {"type": "note_off", "time": 188, "note": 64, "velocity": 102, "channel": 0}, {"type": "note_on", "time": 262, "note": 64, "velocity": 104, "channel": 0}, {"type": "note_off", "time": 126, "note": 64, "velocity": 104, "channel": 0}, {"type": "note_on", "time": 49, "note": 66, "velocity": 108, "channel": 0}, {"type": "note_off", "time": 150, "note": 66, "velocity": 108, "channel": 0}, {"type": "note_on", "time": 89, "note": 61, "velocity": 88, "channel": 0}, {"type": "note_off", "time": 149, "note": 61, "velocity": 88, "channel": 0}, {"type": "note_on", "time": 65, "note": 59, "velocity": 83, "channel": 0}, {"type": "note_off", "time": 176, "note": 59, "velocity": 83, "channel": 0}, {"type": "note_on", "time": 1415, "note": 58, "velocity": 89, "channel": 0}, {"type": "note_off", "time": 185, "note": 58, "velocity": 89, "channel": 0}, {"type": "note_on", "time": 26, "note": 60, "velocity": 100, "channel": 0}, {"type": "note_off", "time": 216, "note": 60, "velocity": 100, "channel": 0}, {"type": "note_on", "time": 168, "note": 63, "velocity": 103, "channel": 0}, {"type": "note_off", "time": 182, "note": 63, "velocity": 103, "channel": 0}, {"type": "note_on", "time": 97, "note": 61, "velocity": 92, "channel": 0}, {"type": "note_off", "time": 134, "note": 61, "velocity": 92, "channel": 0}, {"type": "note_on", "time": 97, "note": 58, "velocity": 78, "channel": 0}, {"type": "note_off", "time": 146, "note": 58, "velocity": 78, "channel": 0}, {"type": "note_on", "time": 175, "note": 61, "velocity": 95, "channel": 0}, {"type": "note_off", "time": 414, "note": 61, "velocity": 95, "channel": 0}, {"type": "note_on", "time": 102, "note": 61, "velocity": 95, "channel": 0}, {"type": "note_off", "time": 119, "note": 61, "velocity": 95, "channel": 0}, {"type": "end_of_track", "time": 0}]]}