{"ticks_per_beat": 840, "tracks": [[{"type": "track_name", "name": "Melody", "time": 0}, {"type": "set_tempo", "tempo": 566037, "time": 0}, {"type": "key_signature", "key": "Eb", "time": 0}, {"type": "time_signature", "numerator": 4, "denominator": 4, "clocks_per_click": 24, "notated_32nd_notes_per_beat": 8, "time": 0}, {"type": "note_on", "time": 7890, "note": 70, "velocity": 114, "channel": 0}, {"type": "note_off", "time": 223, "note": 70, "velocity": 114, "channel": 0}, {"type": "note_on", "time": 0, "note": 72, "velocity": 115, "channel": 0}, {"type": "note_off", "time": 275, "note": 72, "velocity": 115, "channel": 0}, {"type": "note_on", "time": 0, "note": 70, "velocity": 94, "channel": 0}, {"type": "note_off", "time": 223, "note": 70, "velocity": 94, "channel": 0}, {"type": "note_on", "time": 0, "note": 74, "velocity": 118, "channel": 0}, {"type": "note_off", "time": 379, "note": 74, "velocity": 118, "channel": 0}, {"type": "note_on", "time": 103, "note": 75, "velocity": 117, "channel": 0}, {"type": "note_off", "time": 1740, "note": 75, "velocity": 117, "channel": 0}, {"type": "note_on", "time": 86, "note": 74, "velocity": 82, "channel": 0}, {"type": "note_off", "time": 206, "note": 74, "velocity": 82, "channel": 0}, {"type": "note_on", "time": 68, "note": 72, "velocity": 115, "channel": 0}, {"type": "note_off", "time": 310, "note": 72, "velocity": 115, "channel": 0}, {"type": "note_on", "time": 120, "note": 70, "velocity": 111, "channel": 0}, {"type": "note_off", "time": 396, "note": 70, "velocity": 111, "channel": 0}, {"type": "note_on", "time": 0, "note": 67, "velocity": 104, "channel": 0}, {"type": "note_off", "time": 1361, "note": 67, "velocity": 104, "channel": 0}, {"type": "note_on", "time": 258, "note": 65, "velocity": 110, "channel": 0}, {"type": "note_off", "time": 137, "note": 65, "velocity": 110, "channel": 0}, {"type": "note_on", "time": 68, "note": 67, "velocity": 101, "channel": 0}, {"type": "note_off", "time": 258, "note": 67, "velocity": 101, "channel": 0}, {"type": "note_on", "time": 0, "note": 65, "velocity": 104, "channel": 0}, {"type": "note_off", "time": 223, "note": 65, "velocity": 104, "channel": 0}, {"type": "note_on", "time": 20, "note": 63, "velocity": 102, "channel": 0}, {"type": "note_off", "time": 230, "note": 63, "velocity": 102, "channel": 0}, {"type": "note_on", "time": 109, "note": 62, "velocity": 101, "channel": 0}, {"type": "note_off", "time": 205, "note": 62, "velocity": 101, "channel": 0}, {"type": "note_on", "time": 0, "note": 59, "velocity": 94, "channel": 0}, {"type": "note_off", "time": 181, "note": 59, "velocity": 94, "channel": 0}, {"type": "note_on", "time": 24, "note": 60, "velocity": 90, "channel": 0}, {"type": "note_off", "time": 1381, "note": 60, "velocity": 90, "channel": 0}, {"type": "note_on", "time": 1308, "note": 77, "velocity": 125, "channel": 0}, {"type": "note_off", "time": 387, "note": 77, "velocity": 125, "channel": 0}, {"type": "note_on", "time": 113, "note": 77, "velocity": 127, "channel": 0}, {"type": "note_off", "time": 206, "note": 77, "velocity": 127, "channel": 0}, {"type": "note_on", "time": 42, "note": 78, "velocity": 122, "channel": 0}, {"type": "note_off", "time": 181, "note": 78, "velocity": 122, "channel": 0}, {"type": "note_on", "time": 24, "note": 77, "velocity": 124, "channel": 0}, {"type": "note_off", "time": 205, "note": 77, "velocity": 124, "channel": 0}, {"type": "note_on", "time": 24, "note": 76, "velocity": 122, "channel": 0}, {"type": "note_off", "time": 169, "note": 76, "velocity": 122, "channel": 0}, {"type": "note_on", "time": 36, "note": 75, "velocity": 119, "channel": 0}, {"type": "note_off", "time": 193, "note": 75, "velocity": 119, "channel": 0}, {"type": "note_on", "time": 60, "note": 74, "velocity": 120, "channel": 0}, {"type": "note_off", "time": 193, "note": 74, "velocity": 120, "channel": 0}, {"type": "note_on", "time": 12, "note": 73, "velocity": 114, "channel": 0}, {"type": "note_off", "time": 145, "note": 73, "velocity": 114, "channel": 0}, {"type": "note_on", "time": 36, "note": 72, "velocity": 117, "channel": 0}, {"type": "note_off", "time": 133, "note": 72, "velocity": 117, "channel": 0}, {"type": "note_on", "time": 60, "note": 70, "velocity": 116, "channel": 0}, {"type": "note_off", "time": 193, "note": 70, "velocity": 116, "channel": 0}, {"type": "note_on", "time": 109, "note": 69, "velocity": 115, "channel": 0}, {"type": "note_off", "time": 230, "note": 69, "velocity": 115, "channel": 0}, {"type": "note_on", "time": 60, "note": 70, "velocity": 106, "channel": 0}, {"type": "note_off", "time": 121, "note": 70, "velocity": 106, "channel": 0}, {"type": "note_on", "time": 96, "note": 74, "velocity": 109, "channel": 0}, {"type": "note_off", "time": 145, "note": 74, "velocity": 109, "channel": 0}, {"type": "note_on", "time": 60, "note": 69, "velocity": 106, "channel": 0}, {"type": "note_off", "time": 169, "note": 69, "velocity": 106, "channel": 0}, {"type": "note_on", "time": 48, "note": 70, "velocity": 113, "channel": 0}, {"type": "note_off", "time": 145, "note": 70, "velocity": 113, "channel": 0}, {"type": "note_on", "time": 72, "note": 69, "velocity": 111, "channel": 0}, {"type": "note_off", "time": 193, "note": 69, "velocity": 111, "channel": 0}, {"type": "note_on", "time": 19, "note": 67, "velocity": 105, "channel": 0}, {"type": "note_off", "time": 155, "note": 67, "velocity": 105, "channel": 0}, {"type": "note_on", "time": 0, "note": 65, "velocity": 108, "channel": 0}, {"type": "note_off", "time": 129, "note": 65, "velocity": 108, "channel": 0}, {"type": "note_on", "time": 34, "note": 64, "velocity": 114, "channel": 0}, {"type": "note_off", "time": 198, "note": 64, "velocity": 114, "channel": 0}, {"type": "note_on", "time": 8, "note": 62, "velocity": 98, "channel": 0}, {"type": "note_off", "time": 189, "note": 62, "velocity": 98, "channel": 0}, {"type": "note_on", "time": 8, "note": 63, "velocity": 106, "channel": 0}, {"type": "note_off", "time": 258, "note": 63, "velocity": 106, "channel": 0}, {"type": "note_on", "time": 0, "note": 65, "velocity": 101, "channel": 0}, {"type": "note_off", "time": 206, "note": 65, "velocity": 101, "channel": 0}, {"type": "note_on", "time": 137, "note": 69, "velocity": 97, "channel": 0}, {"type": "note_off", "time": 215, "note": 69, "velocity": 97, "channel": 0}, {"type": "note_on", "time": 17, "note": 70, "velocity": 96, "channel": 0}, {"type": "note_off", "time": 137, "note": 70, "velocity": 96, "channel": 0}, {"type": "note_on", "time": 77, "note": 74, "velocity": 91, "channel": 0}, {"type": "note_off", "time": 180, "note": 74, "velocity": 91, "channel": 0}, {"type": "note_on", "time": 43, "note": 72, "velocity": 110, "channel": 0}, {"type": "note_off", "time": 172, "note": 72, "velocity": 110, "channel": 0}, {"type": "note_on", "time": 77, "note": 70, "velocity": 112, "channel": 0}, {"type": "note_off", "time": 180, "note": 70, "velocity": 112, "channel": 0}, {"type": "note_on", "time": 0, "note": 67, "velocity": 110, "channel": 0}, {"type": "note_off", "time": 189, "note": 67, "velocity": 110, "channel": 0}, {"type": "note_on", "time": 0, "note": 65, "velocity": 97, "channel": 0}, {"type": "note_off", "time": 223, "note": 65, "velocity": 97, "channel": 0}, {"type": "note_on", "time": 43, "note": 70, "velocity": 112, "channel": 0}, {"type": "note_off", "time": 379, "note": 70, "velocity": 112, "channel": 0}, {"type": "note_on", "time": 77, "note": 67, "velocity": 107, "channel": 0}, {"type": "note_off", "time": 379, "note": 67, "velocity": 107, "channel": 0}, {"type": "note_on", "time": 1626, "note": 74, "velocity": 122, "channel": 0}, {"type": "note_off", "time": 266, "note": 74, "velocity": 122, "channel": 0}, {"type": "note_on", "time": 24, "note": 72, "velocity": 119, "channel": 0}, {"type": "note_off", "time": 157, "note": 72, "velocity": 119, "channel": 0}, {"type": "note_on", "time": 24, "note": 69, "velocity": 116, "channel": 0}, {"type": "note_off", "time": 230, "note": 69, "velocity": 116, "channel": 0}, {"type": "note_on", "time": 12, "note": 67, "velocity": 98, "channel": 0}, {"type": "note_off", "time": 181, "note": 67, "velocity": 98, "channel": 0}, {"type": "note_on", "time": 0, "note": 69, "velocity": 114, "channel": 0}, {"type": "note_off", "time": 605, "note": 69, "velocity": 114, "channel": 0}, {"type": "note_on", "time": 24, "note": 70, "velocity": 113, "channel": 0}, {"type": "note_off", "time": 557, "note": 70, "velocity": 113, "channel": 0}, {"type": "note_on", "time": 72, "note": 72, "velocity": 113, "channel": 0}, {"type": "note_off", "time": 799, "note": 72, "velocity": 113, "channel": 0}, {"type": "note_on", "time": 0, "note": 67, "velocity": 108, "channel": 0}, {"type": "note_off", "time": 508, "note": 67, "velocity": 108, "channel": 0}, {"type": "note_on", "time": 0, "note": 68, "velocity": 98, "channel": 0}, {"type": "note_off", "time": 799, "note": 68, "velocity": 98, "channel": 0}, {"type": "note_on", "time": 1308, "note": 79, "velocity": 110, "channel": 0}, {"type": "note_off", "time": 181, "note": 79, "velocity": 110, "channel": 0}, {"type": "note_on", "time": 0, "note": 77, "velocity": 122, "channel": 0}, {"type": "note_off", "time": 193, "note": 77, "velocity": 122, "channel": 0}, {"type": "note_on", "time": 0, "note": 79, "velocity": 115, "channel": 0}, {"type": "note_off", "time": 1199, "note": 79, "velocity": 115, "channel": 0}, {"type": "note_on", "time": 0, "note": 80, "velocity": 119, "channel": 0}, {"type": "note_off", "time": 193, "note": 80, "velocity": 119, "channel": 0}, {"type": "note_on", "time": 36, "note": 79, "velocity": 115, "channel": 0}, {"type": "note_off", "time": 181, "note": 79, "velocity": 115, "channel": 0}, {"type": "note_on", "time": 24, "note": 78, "velocity": 119, "channel": 0}, {"type": "note_off", "time": 181, "note": 78, "velocity": 119, "channel": 0}, {"type": "note_on", "time": 0, "note": 77, "velocity": 118, "channel": 0}, {"type": "note_off", "time": 218, "note": 77, "velocity": 118, "channel": 0}, {"type": "note_on", "time": 0, "note": 76, "velocity": 117, "channel": 0}, {"type": "note_off", "time": 218, "note": 76, "velocity": 117, "channel": 0}, {"type": "note_on", "time": 0, "note": 75, "velocity": 119, "channel": 0}, {"type": "note_off", "time": 193, "note": 75, "velocity": 119, "channel": 0}, {"type": "note_on", "time": 0, "note": 74, "velocity": 117, "channel": 0}, {"type": "note_on", "time": 205, "note": 73, "velocity": 116, "channel": 0}, {"type": "note_off", "time": 0, "note": 74, "velocity": 117, "channel": 0}, {"type": "note_off", "time": 193, "note": 73, "velocity": 116, "channel": 0}, {"type": "note_on", "time": 72, "note": 72, "velocity": 116, "channel": 0}, {"type": "note_off", "time": 133, "note": 72, "velocity": 116, "channel": 0}, {"type": "note_on", "time": 60, "note": 70, "velocity": 116, "channel": 0}, {"type": "note_off", "time": 121, "note": 70, "velocity": 116, "channel": 0}, {"type": "note_on", "time": 60, "note": 68, "velocity": 110, "channel": 0}, {"type": "note_off", "time": 242, "note": 68, "velocity": 110, "channel": 0}, {"type": "note_on", "time": 36, "note": 66, "velocity": 108, "channel": 0}, {"type": "note_off", "time": 254, "note": 66, "velocity": 108, "channel": 0}, {"type": "note_on", "time": 48, "note": 64, "velocity": 101, "channel": 0}, {"type": "note_off", "time": 254, "note": 64, "velocity": 101, "channel": 0}, {"type": "note_on", "time": 12, "note": 65, "velocity": 110, "channel": 0}, {"type": "note_off", "time": 484, "note": 65, "velocity": 110, "channel": 0}, {"type": "note_on", "time": 157, "note": 56, "velocity": 99, "channel": 0}, {"type": "note_off", "time": 860, "note": 56, "velocity": 99, "channel": 0}, {"type": "note_on", "time": 1102, "note": 97, "velocity": 79, "channel": 0}, {"type": "note_off", "time": 266, "note": 97, "velocity": 79, "channel": 0}, {"type": "note_on", "time": 96, "note": 96, "velocity": 97, "channel": 0}, {"type": "note_off", "time": 72, "note": 96, "velocity": 97, "channel": 0}, {"type": "note_on", "time": 36, "note": 94, "velocity": 72, "channel": 0}, {"type": "note_off", "time": 1041, "note": 94, "velocity": 72, "channel": 0}, {"type": "note_on", "time": 314, "note": 58, "velocity": 99, "channel": 0}, {"type": "note_off", "time": 242, "note": 58, "velocity": 99, "channel": 0}, {"type": "note_on", "time": 1041, "note": 77, "velocity": 99, "channel": 0}, {"type": "note_off", "time": 169, "note": 77, "velocity": 99, "channel": 0}, {"type": "note_on", "time": 36, "note": 76, "velocity": 116, "channel": 0}, {"type": "note_off", "time": 145, "note": 76, "velocity": 116, "channel": 0}, {"type": "note_on", "time": 12, "note": 75, "velocity": 118, "channel": 0}, {"type": "note_off", "time": 1889, "note": 75, "velocity": 118, "channel": 0}, {"type": "note_on", "time": 0, "note": 74, "velocity": 118, "channel": 0}, {"type": "note_off", "time": 399, "note": 74, "velocity": 118, "channel": 0}, {"type": "note_on", "time": 12, "note": 72, "velocity": 98, "channel": 0}, {"type": "note_off", "time": 181, "note": 72, "velocity": 98, "channel": 0}, {"type": "note_on", "time": 1066, "note": 74, "velocity": 123, "channel": 0}, {"type": "note_off", "time": 314, "note": 74, "velocity": 123, "channel": 0}, {"type": "note_on", "time": 121, "note": 74, "velocity": 126, "channel": 0}, {"type": "note_off", "time": 218, "note": 74, "velocity": 126, "channel": 0}, {"type": "note_on", "time": 193, "note": 77, "velocity": 119, "channel": 0}, {"type": "note_off", "time": 278, "note": 77, "velocity": 119, "channel": 0}, {"type": "note_on", "time": 24, "note": 79, "velocity": 126, "channel": 0}, {"type": "note_off", "time": 157, "note": 79, "velocity": 126, "channel": 0}, {"type": "note_on", "time": 0, "note": 81, "velocity": 112, "channel": 0}, {"type": "note_off", "time": 242, "note": 81, "velocity": 112, "channel": 0}, {"type": "note_on", "time": 24, "note": 82, "velocity": 118, "channel": 0}, {"type": "note_off", "time": 157, "note": 82, "velocity": 118, "channel": 0}, {"type": "note_on", "time": 24, "note": 81, "velocity": 112, "channel": 0}, {"type": "note_off", "time": 205, "note": 81, "velocity": 112, "channel": 0}, {"type": "note_on", "time": 0, "note": 79, "velocity": 99, "channel": 0}, {"type": "note_off", "time": 218, "note": 79, "velocity": 99, "channel": 0}, {"type": "note_on", "time": 0, "note": 77, "velocity": 98, "channel": 0}, {"type": "note_off", "time": 218, "note": 77, "velocity": 98, "channel": 0}, {"type": "note_on", "time": 0, "note": 76, "velocity": 115, "channel": 0}, {"type": "note_off", "time": 218, "note": 76, "velocity": 115, "channel": 0}, {"type": "note_on", "time": 36, "note": 77, "velocity": 111, "channel": 0}, {"type": "note_off", "time": 109, "note": 77, "velocity": 111, "channel": 0}, {"type": "note_on", "time": 72, "note": 74, "velocity": 105, "channel": 0}, {"type": "note_off", "time": 169, "note": 74, "velocity": 105, "channel": 0}, {"type": "note_on", "time": 36, "note": 73, "velocity": 107, "channel": 0}, {"type": "note_off", "time": 157, "note": 73, "velocity": 107, "channel": 0}, {"type": "note_on", "time": 60, "note": 72, "velocity": 107, "channel": 0}, {"type": "note_off", "time": 121, "note": 72, "velocity": 107, "channel": 0}, {"type": "note_on", "time": 84, "note": 70, "velocity": 112, "channel": 0}, {"type": "note_off", "time": 266, "note": 70, "velocity": 112, "channel": 0}, {"type": "note_on", "time": 178, "note": 69, "velocity": 116, "channel": 0}, {"type": "note_off", "time": 146, "note": 69, "velocity": 116, "channel": 0}, {"type": "note_on", "time": 77, "note": 70, "velocity": 101, "channel": 0}, {"type": "note_off", "time": 172, "note": 70, "velocity": 101, "channel": 0}, {"type": "note_on", "time": 8, "note": 77, "velocity": 100, "channel": 0}, {"type": "note_off", "time": 180, "note": 77, "velocity": 100, "channel": 0}, {"type": "note_on", "time": 8, "note": 69, "velocity": 96, "channel": 0}, {"type": "note_off", "time": 146, "note": 69, "velocity": 96, "channel": 0}, {"type": "note_on", "time": 146, "note": 70, "velocity": 116, "channel": 0}, {"type": "note_off", "time": 363, "note": 70, "velocity": 116, "channel": 0}, {"type": "note_on", "time": 24, "note": 72, "velocity": 103, "channel": 0}, {"type": "note_off", "time": 254, "note": 72, "velocity": 103, "channel": 0}, {"type": "note_on", "time": 0, "note": 70, "velocity": 108, "channel": 0}, {"type": "note_on", "time": 423, "note": 72, "velocity": 108, "channel": 0}, {"type": "note_off", "time": 0, "note": 70, "velocity": 108, "channel": 0}, {"type": "note_off", "time": 290, "note": 72, "velocity": 108, "channel": 0}, {"type": "note_on", "time": 48, "note": 70, "velocity": 106, "channel": 0}, {"type": "note_off", "time": 629, "note": 70, "velocity": 106, "channel": 0}, {"type": "note_on", "time": 993, "note": 70, "velocity": 100, "channel": 0}, {"type": "note_off", "time": 169, "note": 70, "velocity": 100, "channel": 0}, {"type": "note_on", "time": 48, "note": 72, "velocity": 116, "channel": 0}, {"type": "note_off", "time": 157, "note": 72, "velocity": 116, "channel": 0}, {"type": "note_on", "time": 24, "note": 70, "velocity": 105, "channel": 0}, {"type": "note_off", "time": 205, "note": 70, "velocity": 105, "channel": 0}, {"type": "note_on", "time": 60, "note": 72, "velocity": 120, "channel": 0}, {"type": "note_off", "time": 157, "note": 72, "velocity": 120, "channel": 0}, {"type": "note_on", "time": 205, "note": 72, "velocity": 113, "channel": 0}, {"type": "note_off", "time": 375, "note": 72, "velocity": 113, "channel": 0}, {"type": "note_on", "time": 60, "note": 70, "velocity": 97, "channel": 0}, {"type": "note_off", "time": 181, "note": 70, "velocity": 97, "channel": 0}, {"type": "note_on", "time": 84, "note": 72, "velocity": 120, "channel": 0}, {"type": "note_off", "time": 351, "note": 72, "velocity": 120, "channel": 0}, {"type": "note_on", "time": 72, "note": 70, "velocity": 101, "channel": 0}, {"type": "note_off", "time": 157, "note": 70, "velocity": 101, "channel": 0}, {"type": "note_on", "time": 12, "note": 72, "velocity": 108, "channel": 0}, {"type": "note_off", "time": 218, "note": 72, "velocity": 108, "channel": 0}, {"type": "note_on", "time": 24, "note": 70, "velocity": 112, "channel": 0}, {"type": "note_off", "time": 145, "note": 70, "velocity": 112, "channel": 0}, {"type": "note_on", "time": 133, "note": 72, "velocity": 114, "channel": 0}, {"type": "note_off", "time": 339, "note": 72, "velocity": 114, "channel": 0}, {"type": "note_on", "time": 24, "note": 70, "velocity": 96, "channel": 0}, {"type": "note_off", "time": 205, "note": 70, "velocity": 96, "channel": 0}, {"type": "note_on", "time": 84, "note": 72, "velocity": 113, "channel": 0}, {"type": "note_off", "time": 290, "note": 72, "velocity": 113, "channel": 0}, {"type": "note_on", "time": 72, "note": 70, "velocity": 110, "channel": 0}, {"type": "note_off", "time": 145, "note": 70, "velocity": 110, "channel": 0}, {"type": "note_on", "time": 51, "note": 67, "velocity": 92, "channel": 0}, {"type": "note_off", "time": 137, "note": 67, "velocity": 92, "channel": 0}, {"type": "note_on", "time": 77, "note": 65, "velocity": 96, "channel": 0}, {"type": "note_off", "time": 172, "note": 65, "velocity": 96, "channel": 0}, {"type": "note_on", "time": 77, "note": 63, "velocity": 100, "channel": 0}, {"type": "note_off", "time": 146, "note": 63, "velocity": 100, "channel": 0}, {"type": "note_on", "time": 43, "note": 65, "velocity": 101, "channel": 0}, {"type": "note_off", "time": 146, "note": 65, "velocity": 101, "channel": 0}, {"type": "note_on", "time": 103, "note": 63, "velocity": 99, "channel": 0}, {"type": "note_off", "time": 103, "note": 63, "velocity": 99, "channel": 0}, {"type": "note_on", "time": 86, "note": 65, "velocity": 99, "channel": 0}, {"type": "note_off", "time": 137, "note": 65, "velocity": 99, "channel": 0}, {"type": "note_on", "time": 103, "note": 63, "velocity": 106, "channel": 0}, {"type": "note_off", "time": 344, "note": 63, "velocity": 106, "channel": 0}, {"type": "note_on", "time": 34, "note": 60, "velocity": 94, "channel": 0}, {"type": "note_off", "time": 310, "note": 60, "velocity": 94, "channel": 0}, {"type": "note_on", "time": 1788, "note": 77, "velocity": 123, "channel": 0}, {"type": "note_off", "time": 242, "note": 77, "velocity": 123, "channel": 0}, {"type": "note_on", "time": 133, "note": 81, "velocity": 125, "channel": 0}, {"type": "note_off", "time": 218, "note": 81, "velocity": 125, "channel": 0}, {"type": "note_on", "time": 36, "note": 82, "velocity": 123, "channel": 0}, {"type": "note_off", "time": 218, "note": 82, "velocity": 123, "channel": 0}, {"type": "note_on", "time": 36, "note": 84, "velocity": 124, "channel": 0}, {"type": "note_off", "time": 193, "note": 84, "velocity": 124, "channel": 0}, {"type": "note_on", "time": 60, "note": 83, "velocity": 121, "channel": 0}, {"type": "note_off", "time": 169, "note": 83, "velocity": 121, "channel": 0}, {"type": "note_on", "time": 48, "note": 82, "velocity": 122, "channel": 0}, {"type": "note_off", "time": 169, "note": 82, "velocity": 122, "channel": 0}, {"type": "note_on", "time": 24, "note": 81, "velocity": 116, "channel": 0}, {"type": "note_off", "time": 169, "note": 81, "velocity": 116, "channel": 0}, {"type": "note_on", "time": 12, "note": 79, "velocity": 118, "channel": 0}, {"type": "note_off", "time": 169, "note": 79, "velocity": 118, "channel": 0}, {"type": "note_on", "time": 48, "note": 77, "velocity": 123, "channel": 0}, {"type": "note_off", "time": 181, "note": 77, "velocity": 123, "channel": 0}, {"type": "note_on", "time": 48, "note": 76, "velocity": 124, "channel": 0}, {"type": "note_off", "time": 230, "note": 76, "velocity": 124, "channel": 0}, {"type": "note_on", "time": 60, "note": 74, "velocity": 93, "channel": 0}, {"type": "note_off", "time": 169, "note": 74, "velocity": 93, "channel": 0}, {"type": "note_on", "time": 0, "note": 75, "velocity": 118, "channel": 0}, {"type": "note_off", "time": 654, "note": 75, "velocity": 118, "channel": 0}, {"type": "note_on", "time": 629, "note": 86, "velocity": 91, "channel": 0}, {"type": "note_off", "time": 181, "note": 86, "velocity": 91, "channel": 0}, {"type": "note_on", "time": 0, "note": 88, "velocity": 123, "channel": 0}, {"type": "note_off", "time": 314, "note": 88, "velocity": 123, "channel": 0}, {"type": "note_on", "time": 60, "note": 87, "velocity": 108, "channel": 0}, {"type": "note_off", "time": 2531, "note": 87, "velocity": 108, "channel": 0}, {"type": "note_on", "time": 24, "note": 82, "velocity": 95, "channel": 0}, {"type": "note_off", "time": 266, "note": 82, "velocity": 95, "channel": 0}, {"type": "note_on", "time": 1011, "note": 89, "velocity": 113, "channel": 0}, {"type": "note_off", "time": 198, "note": 89, "velocity": 113, "channel": 0}, {"type": "note_on", "time": 111, "note": 90, "velocity": 124, "channel": 0}, {"type": "note_off", "time": 163, "note": 90, "velocity": 124, "channel": 0}, {"type": "note_on", "time": 43, "note": 89, "velocity": 116, "channel": 0}, {"type": "note_off", "time": 1076, "note": 89, "velocity": 116, "channel": 0}, {"type": "note_on", "time": 72, "note": 90, "velocity": 117, "channel": 0}, {"type": "note_off", "time": 181, "note": 90, "velocity": 117, "channel": 0}, {"type": "note_on", "time": 0, "note": 91, "velocity": 121, "channel": 0}, {"type": "note_off", "time": 109, "note": 91, "velocity": 121, "channel": 0}, {"type": "note_on", "time": 12, "note": 92, "velocity": 113, "channel": 0}, {"type": "note_off", "time": 230, "note": 92, "velocity": 113, "channel": 0}, {"type": "note_on", "time": 1514, "note": 93, "velocity": 99, "channel": 0}, {"type": "note_off", "time": 157, "note": 93, "velocity": 99, "channel": 0}, {"type": "note_on", "time": 0, "note": 91, "velocity": 117, "channel": 0}, {"type": "note_off", "time": 375, "note": 91, "velocity": 117, "channel": 0}, {"type": "note_on", "time": 12, "note": 89, "velocity": 113, "channel": 0}, {"type": "note_off", "time": 133, "note": 89, "velocity": 113, "channel": 0}, {"type": "note_on", "time": 12, "note": 88, "velocity": 114, "channel": 0}, {"type": "note_off", "time": 96, "note": 88, "velocity": 114, "channel": 0}, {"type": "note_on", "time": 72, "note": 89, "velocity": 113, "channel": 0}, {"type": "note_off", "time": 109, "note": 89, "velocity": 113, "channel": 0}, {"type": "note_on", "time": 36, "note": 87, "velocity": 113, "channel": 0}, {"type": "note_off", "time": 72, "note": 87, "velocity": 113, "channel": 0}, {"type": "note_on", "time": 121, "note": 86, "velocity": 114, "channel": 0}, {"type": "note_off", "time": 121, "note": 86, "velocity": 114, "channel": 0}, {"type": "note_on", "time": 84, "note": 84, "velocity": 114, "channel": 0}, {"type": "note_off", "time": 230, "note": 84, "velocity": 114, "channel": 0}, {"type": "note_on", "time": 24, "note": 83, "velocity": 101, "channel": 0}, {"type": "note_off", "time": 145, "note": 83, "velocity": 101, "channel": 0}, {"type": "note_on", "time": 72, "note": 81, "velocity": 117, "channel": 0}, {"type": "note_off", "time": 145, "note": 81, "velocity": 117, "channel": 0}, {"type": "note_on", "time": 36, "note": 79, "velocity": 119, "channel": 0}, {"type": "note_off", "time": 169, "note": 79, "velocity": 119, "channel": 0}, {"type": "note_on", "time": 0, "note": 77, "velocity": 96, "channel": 0}, {"type": "note_off", "time": 96, "note": 77, "velocity": 96, "channel": 0}, {"type": "note_on", "time": 0, "note": 76, "velocity": 106, "channel": 0}, {"type": "note_off", "time": 145, "note": 76, "velocity": 106, "channel": 0}, {"type": "note_on", "time": 36, "note": 75, "velocity": 114, "channel": 0}, {"type": "note_off", "time": 133, "note": 75, "velocity": 114, "channel": 0}, {"type": "note_on", "time": 60, "note": 74, "velocity": 119, "channel": 0}, {"type": "note_off", "time": 205, "note": 74, "velocity": 119, "channel": 0}, {"type": "note_on", "time": 48, "note": 73, "velocity": 119, "channel": 0}, {"type": "note_on", "time": 170, "note": 72, "velocity": 104, "channel": 0}, {"type": "note_off", "time": 0, "note": 73, "velocity": 119, "channel": 0}, {"type": "note_off", "time": 172, "note": 72, "velocity": 104, "channel": 0}, {"type": "note_on", "time": 34, "note": 70, "velocity": 119, "channel": 0}, {"type": "note_off", "time": 180, "note": 70, "velocity": 119, "channel": 0}, {"type": "note_on", "time": 17, "note": 69, "velocity": 117, "channel": 0}, {"type": "note_off", "time": 198, "note": 69, "velocity": 117, "channel": 0}, {"type": "note_on", "time": 34, "note": 67, "velocity": 102, "channel": 0}, {"type": "note_off", "time": 215, "note": 67, "velocity": 102, "channel": 0}, {"type": "note_on", "time": 0, "note": 70, "velocity": 116, "channel": 0}, {"type": "note_off", "time": 120, "note": 70, "velocity": 116, "channel": 0}, {"type": "note_on", "time": 94, "note": 69, "velocity": 113, "channel": 0}, {"type": "note_off", "time": 189, "note": 69, "velocity": 113, "channel": 0}, {"type": "note_on", "time": 43, "note": 67, "velocity": 108, "channel": 0}, {"type": "note_off", "time": 94, "note": 67, "velocity": 108, "channel": 0}, {"type": "note_on", "time": 103, "note": 65, "velocity": 104, "channel": 0}, {"type": "note_off", "time": 198, "note": 65, "velocity": 104, "channel": 0}, {"type": "note_on", "time": 51, "note": 64, "velocity": 109, "channel": 0}, {"type": "note_off", "time": 206, "note": 64, "velocity": 109, "channel": 0}, {"type": "note_on", "time": 8, "note": 62, "velocity": 95, "channel": 0}, {"type": "note_off", "time": 172, "note": 62, "velocity": 95, "channel": 0}, {"type": "note_on", "time": 25, "note": 63, "velocity": 108, "channel": 0}, {"type": "note_off", "time": 120, "note": 63, "velocity": 108, "channel": 0}, {"type": "note_on", "time": 43, "note": 65, "velocity": 105, "channel": 0}, {"type": "note_off", "time": 241, "note": 65, "velocity": 105, "channel": 0}, {"type": "note_on", "time": 155, "note": 69, "velocity": 117, "channel": 0}, {"type": "note_off", "time": 129, "note": 69, "velocity": 117, "channel": 0}, {"type": "note_on", "time": 0, "note": 70, "velocity": 105, "channel": 0}, {"type": "note_off", "time": 163, "note": 70, "velocity": 105, "channel": 0}, {"type": "note_on", "time": 103, "note": 74, "velocity": 120, "channel": 0}, {"type": "note_off", "time": 215, "note": 74, "velocity": 120, "channel": 0}, {"type": "note_on", "time": 0, "note": 72, "velocity": 115, "channel": 0}, {"type": "note_off", "time": 146, "note": 72, "velocity": 115, "channel": 0}, {"type": "note_on", "time": 137, "note": 70, "velocity": 117, "channel": 0}, {"type": "note_off", "time": 94, "note": 70, "velocity": 117, "channel": 0}, {"type": "note_on", "time": 43, "note": 67, "velocity": 104, "channel": 0}, {"type": "note_off", "time": 223, "note": 67, "velocity": 104, "channel": 0}, {"type": "note_on", "time": 77, "note": 65, "velocity": 102, "channel": 0}, {"type": "note_off", "time": 137, "note": 65, "velocity": 102, "channel": 0}, {"type": "note_on", "time": 0, "note": 72, "velocity": 109, "channel": 0}, {"type": "note_off", "time": 370, "note": 72, "velocity": 109, "channel": 0}, {"type": "note_on", "time": 0, "note": 74, "velocity": 103, "channel": 0}, {"type": "note_off", "time": 723, "note": 74, "velocity": 103, "channel": 0}, {"type": "note_on", "time": 1347, "note": 77, "velocity": 120, "channel": 0}, {"type": "note_off", "time": 242, "note": 77, "velocity": 120, "channel": 0}, {"type": "note_on", "time": 24, "note": 79, "velocity": 102, "channel": 0}, {"type": "note_off", "time": 157, "note": 79, "velocity": 102, "channel": 0}, {"type": "note_on", "time": 36, "note": 77, "velocity": 118, "channel": 0}, {"type": "note_off", "time": 254, "note": 77, "velocity": 118, "channel": 0}, {"type": "note_on", "time": 36, "note": 79, "velocity": 120, "channel": 0}, {"type": "note_off", "time": 581, "note": 79, "velocity": 120, "channel": 0}, {"type": "note_on", "time": 133, "note": 77, "velocity": 124, "channel": 0}, {"type": "note_off", "time": 327, "note": 77, "velocity": 124, "channel": 0}, {"type": "note_on", "time": 60, "note": 75, "velocity": 120, "channel": 0}, {"type": "note_off", "time": 593, "note": 75, "velocity": 120, "channel": 0}, {"type": "note_on", "time": 12, "note": 72, "velocity": 112, "channel": 0}, {"type": "note_off", "time": 642, "note": 72, "velocity": 112, "channel": 0}, {"type": "note_on", "time": 1053, "note": 75, "velocity": 80, "channel": 0}, {"type": "note_off", "time": 205, "note": 75, "velocity": 80, "channel": 0}, {"type": "note_on", "time": 96, "note": 77, "velocity": 113, "channel": 0}, {"type": "note_on", "time": 205, "note": 75, "velocity": 36, "channel": 0}, {"type": "note_off", "time": 0, "note": 77, "velocity": 113, "channel": 0}, {"type": "note_off", "time": 169, "note": 75, "velocity": 36, "channel": 0}, {"type": "note_on", "time": 36, "note": 77, "velocity": 118, "channel": 0}, {"type": "note_off", "time": 205, "note": 77, "velocity": 118, "channel": 0}, {"type": "note_on", "time": 12, "note": 75, "velocity": 118, "channel": 0}, {"type": "note_off", "time": 193, "note": 75, "velocity": 118, "channel": 0}, {"type": "note_on", "time": 12, "note": 77, "velocity": 123, "channel": 0}, {"type": "note_off", "time": 218, "note": 77, "velocity": 123, "channel": 0}, {"type": "note_on", "time": 12, "note": 75, "velocity": 121, "channel": 0}, {"type": "note_off", "time": 145, "note": 75, "velocity": 121, "channel": 0}, {"type": "note_on", "time": 36, "note": 73, "velocity": 122, "channel": 0}, {"type": "note_off", "time": 193, "note": 73, "velocity": 122, "channel": 0}, {"type": "note_on", "time": 84, "note": 69, "velocity": 120, "channel": 0}, {"type": "note_off", "time": 254, "note": 69, "velocity": 120, "channel": 0}, {"type": "note_on", "time": 0, "note": 70, "velocity": 107, "channel": 0}, {"type": "note_off", "time": 1320, "note": 70, "velocity": 107, "channel": 0}, {"type": "note_on", "time": 96, "note": 72, "velocity": 115, "channel": 0}, {"type": "note_off", "time": 218, "note": 72, "velocity": 115, "channel": 0}, {"type": "note_on", "time": 72, "note": 70, "velocity": 115, "channel": 0}, {"type": "note_off", "time": 129, "note": 70, "velocity": 115, "channel": 0}, {"type": "note_on", "time": 17, "note": 67, "velocity": 111, "channel": 0}, {"type": "note_off", "time": 241, "note": 67, "velocity": 111, "channel": 0}, {"type": "note_on", "time": 0, "note": 65, "velocity": 115, "channel": 0}, {"type": "note_off", "time": 129, "note": 65, "velocity": 115, "channel": 0}, {"type": "note_on", "time": 17, "note": 64, "velocity": 112, "channel": 0}, {"type": "note_off", "time": 180, "note": 64, "velocity": 112, "channel": 0}, {"type": "note_on", "time": 17, "note": 62, "velocity": 105, "channel": 0}, {"type": "note_off", "time": 163, "note": 62, "velocity": 105, "channel": 0}, {"type": "note_on", "time": 17, "note": 63, "velocity": 110, "channel": 0}, {"type": "note_off", "time": 335, "note": 63, "velocity": 110, "channel": 0}, {"type": "note_on", "time": 0, "note": 65, "velocity": 112, "channel": 0}, {"type": "note_off", "time": 129, "note": 65, "velocity": 112, "channel": 0}, {"type": "note_on", "time": 43, "note": 66, "velocity": 96, "channel": 0}, {"type": "note_off", "time": 111, "note": 66, "velocity": 96, "channel": 0}, {"type": "note_on", "time": 43, "note": 68, "velocity": 112, "channel": 0}, {"type": "note_off", "time": 137, "note": 68, "velocity": 112, "channel": 0}, {"type": "note_on", "time": 66, "note": 70, "velocity": 102, "channel": 0}, {"type": "note_off", "time": 169, "note": 70, "velocity": 102, "channel": 0}, {"type": "note_on", "time": 72, "note": 74, "velocity": 120, "channel": 0}, {"type": "note_off", "time": 218, "note": 74, "velocity": 120, "channel": 0}, {"type": "note_on", "time": 60, "note": 73, "velocity": 118, "channel": 0}, {"type": "note_off", "time": 508, "note": 73, "velocity": 118, "channel": 0}, {"type": "note_on", "time": 1031, "note": 71, "velocity": 115, "channel": 0}, {"type": "note_off", "time": 267, "note": 71, "velocity": 115, "channel": 0}, {"type": "note_on", "time": 8, "note": 68, "velocity": 100, "channel": 0}, {"type": "note_off", "time": 146, "note": 68, "velocity": 100, "channel": 0}, {"type": "note_on", "time": 0, "note": 71, "velocity": 119, "channel": 0}, {"type": "note_off", "time": 267, "note": 71, "velocity": 119, "channel": 0}, {"type": "note_on", "time": 17, "note": 68, "velocity": 88, "channel": 0}, {"type": "note_off", "time": 120, "note": 68, "velocity": 88, "channel": 0}, {"type": "note_on", "time": 68, "note": 71, "velocity": 117, "channel": 0}, {"type": "note_off", "time": 344, "note": 71, "velocity": 117, "channel": 0}, {"type": "note_on", "time": 43, "note": 68, "velocity": 109, "channel": 0}, {"type": "note_off", "time": 163, "note": 68, "velocity": 109, "channel": 0}, {"type": "note_on", "time": 1034, "note": 72, "velocity": 96, "channel": 0}, {"type": "note_off", "time": 254, "note": 72, "velocity": 96, "channel": 0}, {"type": "note_on", "time": 181, "note": 69, "velocity": 118, "channel": 0}, {"type": "note_off", "time": 193, "note": 69, "velocity": 118, "channel": 0}, {"type": "note_on", "time": 0, "note": 72, "velocity": 116, "channel": 0}, {"type": "note_off", "time": 1138, "note": 72, "velocity": 116, "channel": 0}, {"type": "note_on", "time": 96, "note": 72, "velocity": 117, "channel": 0}, {"type": "note_off", "time": 375, "note": 72, "velocity": 117, "channel": 0}, {"type": "note_on", "time": 6, "note": 69, "velocity": 111, "channel": 0}, {"type": "note_off", "time": 189, "note": 69, "velocity": 111, "channel": 0}, {"type": "note_on", "time": 990, "note": 77, "velocity": 120, "channel": 0}, {"type": "note_off", "time": 351, "note": 77, "velocity": 120, "channel": 0}, {"type": "note_on", "time": 0, "note": 74, "velocity": 100, "channel": 0}, {"type": "note_off", "time": 145, "note": 74, "velocity": 100, "channel": 0}, {"type": "note_on", "time": 133, "note": 72, "velocity": 117, "channel": 0}, {"type": "note_off", "time": 181, "note": 72, "velocity": 117, "channel": 0}, {"type": "note_on", "time": 48, "note": 70, "velocity": 116, "channel": 0}, {"type": "note_off", "time": 193, "note": 70, "velocity": 116, "channel": 0}, {"type": "note_on", "time": 48, "note": 69, "velocity": 115, "channel": 0}, {"type": "note_off", "time": 230, "note": 69, "velocity": 115, "channel": 0}, {"type": "note_on", "time": 133, "note": 69, "velocity": 114, "channel": 0}, {"type": "note_off", "time": 205, "note": 69, "velocity": 114, "channel": 0}, {"type": "note_on", "time": 0, "note": 70, "velocity": 118, "channel": 0}, {"type": "note_off", "time": 193, "note": 70, "velocity": 118, "channel": 0}, {"type": "note_on", "time": 38, "note": 68, "velocity": 99, "channel": 0}, {"type": "note_off", "time": 129, "note": 68, "velocity": 99, "channel": 0}, {"type": "note_on", "time": 77, "note": 71, "velocity": 110, "channel": 0}, {"type": "note_off", "time": 86, "note": 71, "velocity": 110, "channel": 0}, {"type": "note_on", "time": 34, "note": 74, "velocity": 90, "channel": 0}, {"type": "note_off", "time": 129, "note": 74, "velocity": 90, "channel": 0}, {"type": "note_on", "time": 155, "note": 77, "velocity": 124, "channel": 0}, {"type": "note_off", "time": 215, "note": 77, "velocity": 124, "channel": 0}, {"type": "note_on", "time": 17, "note": 79, "velocity": 121, "channel": 0}, {"type": "note_off", "time": 206, "note": 79, "velocity": 121, "channel": 0}, {"type": "note_on", "time": 34, "note": 81, "velocity": 117, "channel": 0}, {"type": "note_off", "time": 172, "note": 81, "velocity": 117, "channel": 0}, {"type": "note_on", "time": 0, "note": 83, "velocity": 103, "channel": 0}, {"type": "note_off", "time": 129, "note": 83, "velocity": 103, "channel": 0}, {"type": "note_on", "time": 86, "note": 88, "velocity": 102, "channel": 0}, {"type": "note_off", "time": 77, "note": 88, "velocity": 102, "channel": 0}, {"type": "note_on", "time": 111, "note": 79, "velocity": 110, "channel": 0}, {"type": "note_off", "time": 146, "note": 79, "velocity": 110, "channel": 0}, {"type": "note_on", "time": 0, "note": 77, "velocity": 100, "channel": 0}, {"type": "note_off", "time": 206, "note": 77, "velocity": 100, "channel": 0}, {"type": "note_on", "time": 68, "note": 75, "velocity": 115, "channel": 0}, {"type": "note_off", "time": 172, "note": 75, "velocity": 115, "channel": 0}, {"type": "note_on", "time": 34, "note": 73, "velocity": 112, "channel": 0}, {"type": "note_off", "time": 206, "note": 73, "velocity": 112, "channel": 0}, {"type": "note_on", "time": 34, "note": 72, "velocity": 113, "channel": 0}, {"type": "note_off", "time": 189, "note": 72, "velocity": 113, "channel": 0}, {"type": "note_on", "time": 43, "note": 70, "velocity": 116, "channel": 0}, {"type": "note_off", "time": 146, "note": 70, "velocity": 116, "channel": 0}, {"type": "note_on", "time": 34, "note": 69, "velocity": 113, "channel": 0}, {"type": "note_off", "time": 180, "note": 69, "velocity": 113, "channel": 0}, {"type": "note_on", "time": 34, "note": 68, "velocity": 88, "channel": 0}, {"type": "note_off", "time": 146, "note": 68, "velocity": 88, "channel": 0}, {"type": "note_on", "time": 17, "note": 70, "velocity": 119, "channel": 0}, {"type": "note_off", "time": 172, "note": 70, "velocity": 119, "channel": 0}, {"type": "note_on", "time": 0, "note": 67, "velocity": 107, "channel": 0}, {"type": "note_off", "time": 189, "note": 67, "velocity": 107, "channel": 0}, {"type": "note_on", "time": 0, "note": 63, "velocity": 110, "channel": 0}, {"type": "note_off", "time": 275, "note": 63, "velocity": 110, "channel": 0}, {"type": "note_on", "time": 51, "note": 61, "velocity": 103, "channel": 0}, {"type": "note_off", "time": 129, "note": 61, "velocity": 103, "channel": 0}, {"type": "note_on", "time": 34, "note": 62, "velocity": 112, "channel": 0}, {"type": "note_off", "time": 301, "note": 62, "velocity": 112, "channel": 0}, {"type": "note_on", "time": 34, "note": 63, "velocity": 111, "channel": 0}, {"type": "note_off", "time": 258, "note": 63, "velocity": 111, "channel": 0}, {"type": "note_on", "time": 60, "note": 64, "velocity": 114, "channel": 0}, {"type": "note_off", "time": 180, "note": 64, "velocity": 114, "channel": 0}, {"type": "note_on", "time": 1025, "note": 58, "velocity": 112, "channel": 0}, {"type": "note_off", "time": 404, "note": 58, "velocity": 112, "channel": 0}, {"type": "note_on", "time": 77, "note": 60, "velocity": 108, "channel": 0}, {"type": "note_off", "time": 120, "note": 60, "velocity": 108, "channel": 0}, {"type": "note_on", "time": 60, "note": 58, "velocity": 111, "channel": 0}, {"type": "note_off", "time": 267, "note": 58, "velocity": 111, "channel": 0}, {"type": "note_on", "time": 8, "note": 57, "velocity": 109, "channel": 0}, {"type": "note_off", "time": 422, "note": 57, "velocity": 109, "channel": 0}, {"type": "note_on", "time": 25, "note": 55, "velocity": 105, "channel": 0}, {"type": "note_off", "time": 413, "note": 55, "velocity": 105, "channel": 0}, {"type": "end_of_track", "time": 0}]]}