{"ticks_per_beat": 192, "tracks": [[{"type": "track_name", "name": "Melody", "time": 0}, {"type": "set_tempo", "tempo": 322580, "time": 0}, {"type": "key_signature", "key": "Eb", "time": 0}, {"type": "time_signature", "numerator": 4, "denominator": 4, "clocks_per_click": 24, "notated_32nd_notes_per_beat": 8, "time": 0}, {"type": "note_on", "time": 1856, "note": 67, "velocity": 105, "channel": 0}, {"type": "note_off", "time": 117, "note": 67, "velocity": 105, "channel": 0}, {"type": "note_on", "time": 7, "note": 68, "velocity": 98, "channel": 0}, {"type": "note_off", "time": 75, "note": 68, "velocity": 98, "channel": 0}, {"type": "note_on", "time": 6, "note": 70, "velocity": 115, "channel": 0}, {"type": "note_off", "time": 140, "note": 70, "velocity": 115, "channel": 0}, {"type": "note_on", "time": 13, "note": 70, "velocity": 101, "channel": 0}, {"type": "note_off", "time": 363, "note": 70, "velocity": 101, "channel": 0}, {"type": "note_on", "time": 60, "note": 72, "velocity": 116, "channel": 0}, {"type": "note_off", "time": 92, "note": 72, "velocity": 116, "channel": 0}, {"type": "note_on", "time": 10, "note": 74, "velocity": 117, "channel": 0}, {"type": "note_off", "time": 58, "note": 74, "velocity": 117, "channel": 0}, {"type": "note_on", "time": 21, "note": 75, "velocity": 115, "channel": 0}, {"type": "note_off", "time": 87, "note": 75, "velocity": 115, "channel": 0}, {"type": "note_on", "time": 24, "note": 75, "velocity": 97, "channel": 0}, {"type": "note_off", "time": 191, "note": 75, "velocity": 97, "channel": 0}, {"type": "note_on", "time": 71, "note": 67, "velocity": 105, "channel": 0}, {"type": "note_off", "time": 60, "note": 67, "velocity": 105, "channel": 0}, {"type": "note_on", "time": 7, "note": 69, "velocity": 90, "channel": 0}, {"type": "note_off", "time": 27, "note": 69, "velocity": 90, "channel": 0}, {"type": "note_on", "time": 8, "note": 68, "velocity": 94, "channel": 0}, {"type": "note_off", "time": 41, "note": 68, "velocity": 94, "channel": 0}, {"type": "note_on", "time": 34, "note": 73, "velocity": 121, "channel": 0}, {"type": "note_off", "time": 54, "note": 73, "velocity": 121, "channel": 0}, {"type": "note_on", "time": 12, "note": 71, "velocity": 97, "channel": 0}, {"type": "note_off", "time": 26, "note": 71, "velocity": 97, "channel": 0}, {"type": "note_on", "time": 51, "note": 73, "velocity": 116, "channel": 0}, {"type": "note_off", "time": 53, "note": 73, "velocity": 116, "channel": 0}, {"type": "note_on", "time": 20, "note": 72, "velocity": 114, "channel": 0}, {"type": "note_off", "time": 38, "note": 72, "velocity": 114, "channel": 0}, {"type": "note_on", "time": 33, "note": 70, "velocity": 88, "channel": 0}, {"type": "note_off", "time": 23, "note": 70, "velocity": 88, "channel": 0}, {"type": "note_on", "time": 1, "note": 68, "velocity": 97, "channel": 0}, {"type": "note_off", "time": 41, "note": 68, "velocity": 97, "channel": 0}, {"type": "note_on", "time": 9, "note": 69, "velocity": 115, "channel": 0}, {"type": "note_off", "time": 42, "note": 69, "velocity": 115, "channel": 0}, {"type": "note_on", "time": 8, "note": 65, "velocity": 113, "channel": 0}, {"type": "note_off", "time": 32, "note": 65, "velocity": 113, "channel": 0}, {"type": "note_on", "time": 28, "note": 61, "velocity": 86, "channel": 0}, {"type": "note_off", "time": 29, "note": 61, "velocity": 86, "channel": 0}, {"type": "note_on", "time": 7, "note": 58, "velocity": 107, "channel": 0}, {"type": "note_off", "time": 28, "note": 58, "velocity": 107, "channel": 0}, {"type": "note_on", "time": 5, "note": 57, "velocity": 85, "channel": 0}, {"type": "note_off", "time": 89, "note": 57, "velocity": 85, "channel": 0}, {"type": "note_on", "time": 41, "note": 65, "velocity": 76, "channel": 0}, {"type": "note_off", "time": 33, "note": 65, "velocity": 76, "channel": 0}, {"type": "note_on", "time": 2, "note": 69, "velocity": 112, "channel": 0}, {"type": "note_off", "time": 57, "note": 69, "velocity": 112, "channel": 0}, {"type": "note_on", "time": 5, "note": 68, "velocity": 118, "channel": 0}, {"type": "note_off", "time": 42, "note": 68, "velocity": 118, "channel": 0}, {"type": "note_on", "time": 5, "note": 65, "velocity": 108, "channel": 0}, {"type": "note_off", "time": 41, "note": 65, "velocity": 108, "channel": 0}, {"type": "note_on", "time": 68, "note": 67, "velocity": 107, "channel": 0}, {"type": "note_off", "time": 51, "note": 67, "velocity": 107, "channel": 0}, {"type": "note_on", "time": 3, "note": 65, "velocity": 117, "channel": 0}, {"type": "note_off", "time": 32, "note": 65, "velocity": 117, "channel": 0}, {"type": "note_on", "time": 2, "note": 63, "velocity": 111, "channel": 0}, {"type": "note_off", "time": 34, "note": 63, "velocity": 111, "channel": 0}, {"type": "note_on", "time": 36, "note": 61, "velocity": 98, "channel": 0}, {"type": "note_off", "time": 51, "note": 61, "velocity": 98, "channel": 0}, {"type": "note_on", "time": 11, "note": 62, "velocity": 90, "channel": 0}, {"type": "note_off", "time": 40, "note": 62, "velocity": 90, "channel": 0}, {"type": "note_on", "time": 11, "note": 65, "velocity": 103, "channel": 0}, {"type": "note_off", "time": 44, "note": 65, "velocity": 103, "channel": 0}, {"type": "note_on", "time": 11, "note": 68, "velocity": 90, "channel": 0}, {"type": "note_off", "time": 41, "note": 68, "velocity": 90, "channel": 0}, {"type": "note_on", "time": 1, "note": 71, "velocity": 103, "channel": 0}, {"type": "note_off", "time": 44, "note": 71, "velocity": 103, "channel": 0}, {"type": "note_on", "time": 94, "note": 67, "velocity": 98, "channel": 0}, {"type": "note_off", "time": 37, "note": 67, "velocity": 98, "channel": 0}, {"type": "note_on", "time": 4, "note": 70, "velocity": 111, "channel": 0}, {"type": "note_off", "time": 40, "note": 70, "velocity": 111, "channel": 0}, {"type": "note_on", "time": 4, "note": 68, "velocity": 107, "channel": 0}, {"type": "note_off", "time": 43, "note": 68, "velocity": 107, "channel": 0}, {"type": "note_on", "time": 6, "note": 67, "velocity": 89, "channel": 0}, {"type": "note_off", "time": 66, "note": 67, "velocity": 89, "channel": 0}, {"type": "note_on", "time": 6, "note": 68, "velocity": 82, "channel": 0}, {"type": "note_off", "time": 32, "note": 68, "velocity": 82, "channel": 0}, {"type": "note_on", "time": 6, "note": 72, "velocity": 116, "channel": 0}, {"type": "note_off", "time": 134, "note": 72, "velocity": 116, "channel": 0}, {"type": "note_on", "time": 1138, "note": 67, "velocity": 92, "channel": 0}, {"type": "note_off", "time": 95, "note": 67, "velocity": 92, "channel": 0}, {"type": "note_on", "time": 7, "note": 68, "velocity": 81, "channel": 0}, {"type": "note_off", "time": 66, "note": 68, "velocity": 81, "channel": 0}, {"type": "note_on", "time": 32, "note": 72, "velocity": 115, "channel": 0}, {"type": "note_off", "time": 95, "note": 72, "velocity": 115, "channel": 0}, {"type": "note_on", "time": 54, "note": 75, "velocity": 120, "channel": 0}, {"type": "note_off", "time": 82, "note": 75, "velocity": 120, "channel": 0}, {"type": "note_on", "time": 36, "note": 80, "velocity": 112, "channel": 0}, {"type": "note_off", "time": 84, "note": 80, "velocity": 112, "channel": 0}, {"type": "note_on", "time": 14, "note": 78, "velocity": 121, "channel": 0}, {"type": "note_off", "time": 63, "note": 78, "velocity": 121, "channel": 0}, {"type": "note_on", "time": 11, "note": 77, "velocity": 123, "channel": 0}, {"type": "note_off", "time": 99, "note": 77, "velocity": 123, "channel": 0}, {"type": "note_on", "time": 4, "note": 76, "velocity": 123, "channel": 0}, {"type": "note_off", "time": 72, "note": 76, "velocity": 123, "channel": 0}, {"type": "note_on", "time": 4, "note": 75, "velocity": 127, "channel": 0}, {"type": "note_off", "time": 110, "note": 75, "velocity": 127, "channel": 0}, {"type": "note_on", "time": 3, "note": 67, "velocity": 95, "channel": 0}, {"type": "note_off", "time": 30, "note": 67, "velocity": 95, "channel": 0}, {"type": "note_on", "time": 45, "note": 70, "velocity": 118, "channel": 0}, {"type": "note_off", "time": 96, "note": 70, "velocity": 118, "channel": 0}, {"type": "note_on", "time": 6, "note": 74, "velocity": 126, "channel": 0}, {"type": "note_off", "time": 82, "note": 74, "velocity": 126, "channel": 0}, {"type": "note_on", "time": 2, "note": 73, "velocity": 118, "channel": 0}, {"type": "note_off", "time": 31, "note": 73, "velocity": 118, "channel": 0}, {"type": "note_on", "time": 3, "note": 74, "velocity": 120, "channel": 0}, {"type": "note_off", "time": 34, "note": 74, "velocity": 120, "channel": 0}, {"type": "note_on", "time": 4, "note": 73, "velocity": 109, "channel": 0}, {"type": "note_off", "time": 31, "note": 73, "velocity": 109, "channel": 0}, {"type": "note_on", "time": 5, "note": 69, "velocity": 118, "channel": 0}, {"type": "note_off", "time": 78, "note": 69, "velocity": 118, "channel": 0}, {"type": "note_on", "time": 7, "note": 68, "velocity": 110, "channel": 0}, {"type": "note_off", "time": 97, "note": 68, "velocity": 110, "channel": 0}, {"type": "note_on", "time": 12, "note": 66, "velocity": 104, "channel": 0}, {"type": "note_off", "time": 57, "note": 66, "velocity": 104, "channel": 0}, {"type": "note_on", "time": 9, "note": 65, "velocity": 87, "channel": 0}, {"type": "note_off", "time": 85, "note": 65, "velocity": 87, "channel": 0}, {"type": "note_on", "time": 51, "note": 75, "velocity": 119, "channel": 0}, {"type": "note_off", "time": 71, "note": 75, "velocity": 119, "channel": 0}, {"type": "note_on", "time": 15, "note": 79, "velocity": 124, "channel": 0}, {"type": "note_off", "time": 124, "note": 79, "velocity": 124, "channel": 0}, {"type": "note_on", "time": 8, "note": 77, "velocity": 121, "channel": 0}, {"type": "note_off", "time": 270, "note": 77, "velocity": 121, "channel": 0}, {"type": "note_on", "time": 9, "note": 78, "velocity": 115, "channel": 0}, {"type": "note_off", "time": 25, "note": 78, "velocity": 115, "channel": 0}, {"type": "note_on", "time": 4, "note": 77, "velocity": 113, "channel": 0}, {"type": "note_off", "time": 70, "note": 77, "velocity": 113, "channel": 0}, {"type": "note_on", "time": 6, "note": 74, "velocity": 115, "channel": 0}, {"type": "note_off", "time": 96, "note": 74, "velocity": 115, "channel": 0}, {"type": "note_on", "time": 4, "note": 72, "velocity": 116, "channel": 0}, {"type": "note_off", "time": 106, "note": 72, "velocity": 116, "channel": 0}, {"type": "note_on", "time": 90, "note": 70, "velocity": 97, "channel": 0}, {"type": "note_off", "time": 63, "note": 70, "velocity": 97, "channel": 0}, {"type": "note_on", "time": 2, "note": 73, "velocity": 120, "channel": 0}, {"type": "note_off", "time": 128, "note": 73, "velocity": 120, "channel": 0}, {"type": "note_on", "time": 8, "note": 74, "velocity": 113, "channel": 0}, {"type": "note_off", "time": 48, "note": 74, "velocity": 113, "channel": 0}, {"type": "note_on", "time": 3, "note": 73, "velocity": 116, "channel": 0}, {"type": "note_off", "time": 58, "note": 73, "velocity": 116, "channel": 0}, {"type": "note_on", "time": 3, "note": 71, "velocity": 119, "channel": 0}, {"type": "note_off", "time": 109, "note": 71, "velocity": 119, "channel": 0}, {"type": "note_on", "time": 13, "note": 69, "velocity": 96, "channel": 0}, {"type": "note_off", "time": 44, "note": 69, "velocity": 96, "channel": 0}, {"type": "note_on", "time": 14, "note": 70, "velocity": 116, "channel": 0}, {"type": "note_off", "time": 103, "note": 70, "velocity": 116, "channel": 0}, {"type": "note_on", "time": 8, "note": 67, "velocity": 109, "channel": 0}, {"type": "note_off", "time": 42, "note": 67, "velocity": 109, "channel": 0}, {"type": "note_on", "time": 34, "note": 63, "velocity": 90, "channel": 0}, {"type": "note_off", "time": 96, "note": 63, "velocity": 90, "channel": 0}, {"type": "note_on", "time": 71, "note": 68, "velocity": 105, "channel": 0}, {"type": "note_off", "time": 41, "note": 68, "velocity": 105, "channel": 0}, {"type": "note_on", "time": 5, "note": 70, "velocity": 106, "channel": 0}, {"type": "note_off", "time": 76, "note": 70, "velocity": 106, "channel": 0}, {"type": "note_on", "time": 6, "note": 68, "velocity": 104, "channel": 0}, {"type": "note_off", "time": 28, "note": 68, "velocity": 104, "channel": 0}, {"type": "note_on", "time": 11, "note": 67, "velocity": 93, "channel": 0}, {"type": "note_off", "time": 175, "note": 67, "velocity": 93, "channel": 0}, {"type": "note_on", "time": 563, "note": 70, "velocity": 114, "channel": 0}, {"type": "note_off", "time": 90, "note": 70, "velocity": 114, "channel": 0}, {"type": "note_on", "time": 37, "note": 72, "velocity": 113, "channel": 0}, {"type": "note_off", "time": 65, "note": 72, "velocity": 113, "channel": 0}, {"type": "note_on", "time": 3, "note": 73, "velocity": 116, "channel": 0}, {"type": "note_off", "time": 82, "note": 73, "velocity": 116, "channel": 0}, {"type": "note_on", "time": 5, "note": 75, "velocity": 112, "channel": 0}, {"type": "note_off", "time": 64, "note": 75, "velocity": 112, "channel": 0}, {"type": "note_on", "time": 1, "note": 73, "velocity": 115, "channel": 0}, {"type": "note_off", "time": 53, "note": 73, "velocity": 115, "channel": 0}, {"type": "note_on", "time": 5, "note": 72, "velocity": 111, "channel": 0}, {"type": "note_off", "time": 95, "note": 72, "velocity": 111, "channel": 0}, {"type": "note_on", "time": 2, "note": 70, "velocity": 98, "channel": 0}, {"type": "note_off", "time": 69, "note": 70, "velocity": 98, "channel": 0}, {"type": "note_on", "time": 7, "note": 73, "velocity": 119, "channel": 0}, {"type": "note_off", "time": 124, "note": 73, "velocity": 119, "channel": 0}, {"type": "note_on", "time": 5, "note": 70, "velocity": 101, "channel": 0}, {"type": "note_off", "time": 101, "note": 70, "velocity": 101, "channel": 0}, {"type": "note_on", "time": 62, "note": 73, "velocity": 111, "channel": 0}, {"type": "note_off", "time": 136, "note": 73, "velocity": 111, "channel": 0}, {"type": "note_on", "time": 64, "note": 70, "velocity": 116, "channel": 0}, {"type": "note_off", "time": 129, "note": 70, "velocity": 116, "channel": 0}, {"type": "note_on", "time": 310, "note": 70, "velocity": 113, "channel": 0}, {"type": "note_off", "time": 98, "note": 70, "velocity": 113, "channel": 0}, {"type": "note_on", "time": 62, "note": 72, "velocity": 112, "channel": 0}, {"type": "note_off", "time": 64, "note": 72, "velocity": 112, "channel": 0}, {"type": "note_on", "time": 9, "note": 73, "velocity": 120, "channel": 0}, {"type": "note_off", "time": 97, "note": 73, "velocity": 120, "channel": 0}, {"type": "note_on", "time": 20, "note": 67, "velocity": 85, "channel": 0}, {"type": "note_off", "time": 52, "note": 67, "velocity": 85, "channel": 0}, {"type": "note_on", "time": 11, "note": 70, "velocity": 118, "channel": 0}, {"type": "note_off", "time": 101, "note": 70, "velocity": 118, "channel": 0}, {"type": "note_on", "time": 12, "note": 73, "velocity": 120, "channel": 0}, {"type": "note_off", "time": 65, "note": 73, "velocity": 120, "channel": 0}, {"type": "note_on", "time": 2, "note": 72, "velocity": 106, "channel": 0}, {"type": "note_off", "time": 32, "note": 72, "velocity": 106, "channel": 0}, {"type": "note_on", "time": 5, "note": 73, "velocity": 111, "channel": 0}, {"type": "note_off", "time": 51, "note": 73, "velocity": 111, "channel": 0}, {"type": "note_on", "time": 1, "note": 72, "velocity": 120, "channel": 0}, {"type": "note_off", "time": 36, "note": 72, "velocity": 120, "channel": 0}, {"type": "note_on", "time": 6, "note": 71, "velocity": 119, "channel": 0}, {"type": "note_off", "time": 47, "note": 71, "velocity": 119, "channel": 0}, {"type": "note_on", "time": 43, "note": 70, "velocity": 119, "channel": 0}, {"type": "note_off", "time": 103, "note": 70, "velocity": 119, "channel": 0}, {"type": "note_on", "time": 12, "note": 68, "velocity": 94, "channel": 0}, {"type": "note_off", "time": 54, "note": 68, "velocity": 94, "channel": 0}, {"type": "note_on", "time": 7, "note": 69, "velocity": 122, "channel": 0}, {"type": "note_off", "time": 119, "note": 69, "velocity": 122, "channel": 0}, {"type": "note_on", "time": 2, "note": 73, "velocity": 122, "channel": 0}, {"type": "note_off", "time": 60, "note": 73, "velocity": 122, "channel": 0}, {"type": "note_on", "time": 18, "note": 78, "velocity": 112, "channel": 0}, {"type": "note_off", "time": 26, "note": 78, "velocity": 112, "channel": 0}, {"type": "note_on", "time": 2, "note": 79, "velocity": 122, "channel": 0}, {"type": "note_off", "time": 60, "note": 79, "velocity": 122, "channel": 0}, {"type": "note_on", "time": 18, "note": 81, "velocity": 126, "channel": 0}, {"type": "note_off", "time": 74, "note": 81, "velocity": 126, "channel": 0}, {"type": "note_on", "time": 20, "note": 80, "velocity": 117, "channel": 0}, {"type": "note_off", "time": 109, "note": 80, "velocity": 117, "channel": 0}, {"type": "note_on", "time": 10, "note": 77, "velocity": 126, "channel": 0}, {"type": "note_off", "time": 58, "note": 77, "velocity": 126, "channel": 0}, {"type": "note_on", "time": 9, "note": 75, "velocity": 113, "channel": 0}, {"type": "note_off", "time": 35, "note": 75, "velocity": 113, "channel": 0}, {"type": "note_on", "time": 7, "note": 73, "velocity": 113, "channel": 0}, {"type": "note_off", "time": 62, "note": 73, "velocity": 113, "channel": 0}, {"type": "note_on", "time": 18, "note": 70, "velocity": 111, "channel": 0}, {"type": "note_off", "time": 63, "note": 70, "velocity": 111, "channel": 0}, {"type": "note_on", "time": 41, "note": 80, "velocity": 111, "channel": 0}, {"type": "note_off", "time": 34, "note": 80, "velocity": 111, "channel": 0}, {"type": "note_on", "time": 3, "note": 81, "velocity": 110, "channel": 0}, {"type": "note_off", "time": 38, "note": 81, "velocity": 110, "channel": 0}, {"type": "note_on", "time": 5, "note": 79, "velocity": 100, "channel": 0}, {"type": "note_off", "time": 20, "note": 79, "velocity": 100, "channel": 0}, {"type": "note_on", "time": 2, "note": 77, "velocity": 121, "channel": 0}, {"type": "note_off", "time": 88, "note": 77, "velocity": 121, "channel": 0}, {"type": "note_on", "time": 20, "note": 74, "velocity": 110, "channel": 0}, {"type": "note_off", "time": 48, "note": 74, "velocity": 110, "channel": 0}, {"type": "note_on", "time": 11, "note": 75, "velocity": 120, "channel": 0}, {"type": "note_off", "time": 40, "note": 75, "velocity": 120, "channel": 0}, {"type": "note_on", "time": 3, "note": 74, "velocity": 124, "channel": 0}, {"type": "note_off", "time": 86, "note": 74, "velocity": 124, "channel": 0}, {"type": "note_on", "time": 0, "note": 73, "velocity": 118, "channel": 0}, {"type": "note_off", "time": 85, "note": 73, "velocity": 118, "channel": 0}, {"type": "note_on", "time": 26, "note": 70, "velocity": 108, "channel": 0}, {"type": "note_off", "time": 91, "note": 70, "velocity": 108, "channel": 0}, {"type": "note_on", "time": 20, "note": 70, "velocity": 86, "channel": 0}, {"type": "note_off", "time": 73, "note": 70, "velocity": 86, "channel": 0}, {"type": "note_on", "time": 104, "note": 70, "velocity": 115, "channel": 0}, {"type": "note_off", "time": 95, "note": 70, "velocity": 115, "channel": 0}, {"type": "note_on", "time": 72, "note": 69, "velocity": 80, "channel": 0}, {"type": "note_off", "time": 17, "note": 69, "velocity": 80, "channel": 0}, {"type": "note_on", "time": 0, "note": 70, "velocity": 116, "channel": 0}, {"type": "note_off", "time": 90, "note": 70, "velocity": 116, "channel": 0}, {"type": "note_on", "time": 11, "note": 70, "velocity": 115, "channel": 0}, {"type": "note_off", "time": 69, "note": 70, "velocity": 115, "channel": 0}, {"type": "note_on", "time": 12, "note": 68, "velocity": 108, "channel": 0}, {"type": "note_off", "time": 82, "note": 68, "velocity": 108, "channel": 0}, {"type": "note_on", "time": 16, "note": 66, "velocity": 101, "channel": 0}, {"type": "note_off", "time": 66, "note": 66, "velocity": 101, "channel": 0}, {"type": "note_on", "time": 35, "note": 63, "velocity": 90, "channel": 0}, {"type": "note_off", "time": 53, "note": 63, "velocity": 90, "channel": 0}, {"type": "note_on", "time": 101, "note": 67, "velocity": 102, "channel": 0}, {"type": "note_off", "time": 117, "note": 67, "velocity": 102, "channel": 0}, {"type": "note_on", "time": 14, "note": 70, "velocity": 91, "channel": 0}, {"type": "note_off", "time": 234, "note": 70, "velocity": 91, "channel": 0}, {"type": "note_on", "time": 534, "note": 79, "velocity": 102, "channel": 0}, {"type": "note_off", "time": 63, "note": 79, "velocity": 102, "channel": 0}, {"type": "note_on", "time": 4, "note": 74, "velocity": 113, "channel": 0}, {"type": "note_off", "time": 123, "note": 74, "velocity": 113, "channel": 0}, {"type": "note_on", "time": 19, "note": 72, "velocity": 99, "channel": 0}, {"type": "note_off", "time": 25, "note": 72, "velocity": 99, "channel": 0}, {"type": "note_on", "time": 15, "note": 73, "velocity": 114, "channel": 0}, {"type": "note_off", "time": 148, "note": 73, "velocity": 114, "channel": 0}, {"type": "note_on", "time": 3, "note": 71, "velocity": 103, "channel": 0}, {"type": "note_off", "time": 149, "note": 71, "velocity": 103, "channel": 0}, {"type": "note_on", "time": 11, "note": 72, "velocity": 114, "channel": 0}, {"type": "note_off", "time": 128, "note": 72, "velocity": 114, "channel": 0}, {"type": "note_on", "time": 89, "note": 65, "velocity": 89, "channel": 0}, {"type": "note_off", "time": 47, "note": 65, "velocity": 89, "channel": 0}, {"type": "note_on", "time": 8, "note": 67, "velocity": 94, "channel": 0}, {"type": "note_off", "time": 118, "note": 67, "velocity": 94, "channel": 0}, {"type": "note_on", "time": 19, "note": 68, "velocity": 93, "channel": 0}, {"type": "note_off", "time": 310, "note": 68, "velocity": 93, "channel": 0}, {"type": "note_on", "time": 92, "note": 71, "velocity": 113, "channel": 0}, {"type": "note_off", "time": 50, "note": 71, "velocity": 113, "channel": 0}, {"type": "note_on", "time": 6, "note": 73, "velocity": 99, "channel": 0}, {"type": "note_off", "time": 22, "note": 73, "velocity": 99, "channel": 0}, {"type": "note_on", "time": 12, "note": 71, "velocity": 86, "channel": 0}, {"type": "note_off", "time": 28, "note": 71, "velocity": 86, "channel": 0}, {"type": "note_on", "time": 7, "note": 69, "velocity": 112, "channel": 0}, {"type": "note_off", "time": 86, "note": 69, "velocity": 112, "channel": 0}, {"type": "note_on", "time": 55, "note": 64, "velocity": 94, "channel": 0}, {"type": "note_off", "time": 64, "note": 64, "velocity": 94, "channel": 0}, {"type": "note_on", "time": 81, "note": 69, "velocity": 95, "channel": 0}, {"type": "note_off", "time": 32, "note": 69, "velocity": 95, "channel": 0}, {"type": "note_on", "time": 4, "note": 68, "velocity": 100, "channel": 0}, {"type": "note_off", "time": 80, "note": 68, "velocity": 100, "channel": 0}, {"type": "note_on", "time": 15, "note": 66, "velocity": 104, "channel": 0}, {"type": "note_off", "time": 116, "note": 66, "velocity": 104, "channel": 0}, {"type": "note_on", "time": 11, "note": 64, "velocity": 96, "channel": 0}, {"type": "note_off", "time": 102, "note": 64, "velocity": 96, "channel": 0}, {"type": "note_on", "time": 2, "note": 63, "velocity": 79, "channel": 0}, {"type": "note_off", "time": 298, "note": 63, "velocity": 79, "channel": 0}, {"type": "note_on", "time": 15, "note": 67, "velocity": 91, "channel": 0}, {"type": "note_off", "time": 89, "note": 67, "velocity": 91, "channel": 0}, {"type": "note_on", "time": 18, "note": 69, "velocity": 85, "channel": 0}, {"type": "note_off", "time": 45, "note": 69, "velocity": 85, "channel": 0}, {"type": "note_on", "time": 1, "note": 70, "velocity": 102, "channel": 0}, {"type": "note_off", "time": 79, "note": 70, "velocity": 102, "channel": 0}, {"type": "note_on", "time": 10, "note": 68, "velocity": 93, "channel": 0}, {"type": "note_off", "time": 105, "note": 68, "velocity": 93, "channel": 0}, {"type": "note_on", "time": 99, "note": 70, "velocity": 109, "channel": 0}, {"type": "note_off", "time": 107, "note": 70, "velocity": 109, "channel": 0}, {"type": "note_on", "time": 5, "note": 67, "velocity": 105, "channel": 0}, {"type": "note_off", "time": 50, "note": 67, "velocity": 105, "channel": 0}, {"type": "note_on", "time": 52, "note": 63, "velocity": 86, "channel": 0}, {"type": "note_off", "time": 57, "note": 63, "velocity": 86, "channel": 0}, {"type": "note_on", "time": 124, "note": 65, "velocity": 94, "channel": 0}, {"type": "note_off", "time": 111, "note": 65, "velocity": 94, "channel": 0}, {"type": "end_of_track", "time": 0}]]}