{"ticks_per_beat": 192, "tracks": [[{"type": "track_name", "name": "Melody", "time": 0}, {"type": "set_tempo", "tempo": 204081, "time": 0}, {"type": "key_signature", "key": "Eb", "time": 0}, {"type": "time_signature", "numerator": 4, "denominator": 4, "clocks_per_click": 24, "notated_32nd_notes_per_beat": 8, "time": 0}, {"type": "note_on", "time": 2778, "note": 72, "velocity": 112, "channel": 0}, {"type": "note_off", "time": 714, "note": 72, "velocity": 112, "channel": 0}, {"type": "note_on", "time": 55, "note": 74, "velocity": 117, "channel": 0}, {"type": "note_off", "time": 81, "note": 74, "velocity": 117, "channel": 0}, {"type": "note_on", "time": 121, "note": 67, "velocity": 99, "channel": 0}, {"type": "note_off", "time": 290, "note": 67, "velocity": 99, "channel": 0}, {"type": "note_on", "time": 12, "note": 72, "velocity": 114, "channel": 0}, {"type": "note_off", "time": 978, "note": 72, "velocity": 114, "channel": 0}, {"type": "note_on", "time": 252, "note": 77, "velocity": 125, "channel": 0}, {"type": "note_off", "time": 289, "note": 77, "velocity": 125, "channel": 0}, {"type": "note_on", "time": 5, "note": 70, "velocity": 98, "channel": 0}, {"type": "note_off", "time": 442, "note": 70, "velocity": 98, "channel": 0}, {"type": "note_on", "time": 42, "note": 72, "velocity": 103, "channel": 0}, {"type": "note_off", "time": 314, "note": 72, "velocity": 103, "channel": 0}, {"type": "note_on", "time": 45, "note": 76, "velocity": 117, "channel": 0}, {"type": "note_off", "time": 77, "note": 76, "velocity": 117, "channel": 0}, {"type": "note_on", "time": 6, "note": 74, "velocity": 94, "channel": 0}, {"type": "note_off", "time": 38, "note": 74, "velocity": 94, "channel": 0}, {"type": "note_on", "time": 263, "note": 67, "velocity": 101, "channel": 0}, {"type": "note_off", "time": 257, "note": 67, "velocity": 101, "channel": 0}, {"type": "note_on", "time": 20, "note": 72, "velocity": 110, "channel": 0}, {"type": "note_off", "time": 1074, "note": 72, "velocity": 110, "channel": 0}, {"type": "note_on", "time": 173, "note": 66, "velocity": 111, "channel": 0}, {"type": "note_off", "time": 76, "note": 66, "velocity": 111, "channel": 0}, {"type": "note_on", "time": 12, "note": 68, "velocity": 105, "channel": 0}, {"type": "note_off", "time": 79, "note": 68, "velocity": 105, "channel": 0}, {"type": "note_on", "time": 8, "note": 70, "velocity": 118, "channel": 0}, {"type": "note_off", "time": 88, "note": 70, "velocity": 118, "channel": 0}, {"type": "note_on", "time": 13, "note": 66, "velocity": 107, "channel": 0}, {"type": "note_off", "time": 66, "note": 66, "velocity": 107, "channel": 0}, {"type": "note_on", "time": 27, "note": 68, "velocity": 115, "channel": 0}, {"type": "note_off", "time": 109, "note": 68, "velocity": 115, "channel": 0}, {"type": "note_on", "time": 299, "note": 65, "velocity": 119, "channel": 0}, {"type": "note_off", "time": 73, "note": 65, "velocity": 119, "channel": 0}, {"type": "note_on", "time": 23, "note": 67, "velocity": 113, "channel": 0}, {"type": "note_off", "time": 66, "note": 67, "velocity": 113, "channel": 0}, {"type": "note_on", "time": 13, "note": 69, "velocity": 116, "channel": 0}, {"type": "note_off", "time": 79, "note": 69, "velocity": 116, "channel": 0}, {"type": "note_on", "time": 2, "note": 65, "velocity": 110, "channel": 0}, {"type": "note_off", "time": 75, "note": 65, "velocity": 110, "channel": 0}, {"type": "note_on", "time": 27, "note": 67, "velocity": 112, "channel": 0}, {"type": "note_off", "time": 92, "note": 67, "velocity": 112, "channel": 0}, {"type": "note_on", "time": 118, "note": 64, "velocity": 117, "channel": 0}, {"type": "note_off", "time": 278, "note": 64, "velocity": 117, "channel": 0}, {"type": "note_on", "time": 6, "note": 66, "velocity": 112, "channel": 0}, {"type": "note_off", "time": 72, "note": 66, "velocity": 112, "channel": 0}, {"type": "note_on", "time": 25, "note": 67, "velocity": 112, "channel": 0}, {"type": "note_off", "time": 76, "note": 67, "velocity": 112, "channel": 0}, {"type": "note_on", "time": 30, "note": 64, "velocity": 108, "channel": 0}, {"type": "note_off", "time": 73, "note": 64, "velocity": 108, "channel": 0}, {"type": "note_on", "time": 9, "note": 66, "velocity": 114, "channel": 0}, {"type": "note_off", "time": 75, "note": 66, "velocity": 114, "channel": 0}, {"type": "note_on", "time": 274, "note": 63, "velocity": 111, "channel": 0}, {"type": "note_off", "time": 79, "note": 63, "velocity": 111, "channel": 0}, {"type": "note_on", "time": 9, "note": 65, "velocity": 118, "channel": 0}, {"type": "note_off", "time": 73, "note": 65, "velocity": 118, "channel": 0}, {"type": "note_on", "time": 39, "note": 67, "velocity": 97, "channel": 0}, {"type": "note_off", "time": 53, "note": 67, "velocity": 97, "channel": 0}, {"type": "note_on", "time": 24, "note": 63, "velocity": 111, "channel": 0}, {"type": "note_off", "time": 58, "note": 63, "velocity": 111, "channel": 0}, {"type": "note_on", "time": 65, "note": 65, "velocity": 121, "channel": 0}, {"type": "note_off", "time": 125, "note": 65, "velocity": 121, "channel": 0}, {"type": "note_on", "time": 598, "note": 77, "velocity": 127, "channel": 0}, {"type": "note_off", "time": 308, "note": 77, "velocity": 127, "channel": 0}, {"type": "note_on", "time": 2, "note": 79, "velocity": 121, "channel": 0}, {"type": "note_off", "time": 871, "note": 79, "velocity": 121, "channel": 0}, {"type": "note_on", "time": 16, "note": 80, "velocity": 121, "channel": 0}, {"type": "note_off", "time": 319, "note": 80, "velocity": 121, "channel": 0}, {"type": "note_on", "time": 9, "note": 77, "velocity": 124, "channel": 0}, {"type": "note_off", "time": 316, "note": 77, "velocity": 124, "channel": 0}, {"type": "note_on", "time": 6, "note": 79, "velocity": 123, "channel": 0}, {"type": "note_off", "time": 293, "note": 79, "velocity": 123, "channel": 0}, {"type": "note_on", "time": 15, "note": 75, "velocity": 119, "channel": 0}, {"type": "note_off", "time": 281, "note": 75, "velocity": 119, "channel": 0}, {"type": "note_on", "time": 9, "note": 72, "velocity": 108, "channel": 0}, {"type": "note_off", "time": 69, "note": 72, "velocity": 108, "channel": 0}, {"type": "note_on", "time": 137, "note": 74, "velocity": 96, "channel": 0}, {"type": "note_off", "time": 185, "note": 74, "velocity": 96, "channel": 0}, {"type": "note_on", "time": 32, "note": 74, "velocity": 117, "channel": 0}, {"type": "note_off", "time": 166, "note": 74, "velocity": 117, "channel": 0}, {"type": "note_on", "time": 12, "note": 70, "velocity": 115, "channel": 0}, {"type": "note_off", "time": 290, "note": 70, "velocity": 115, "channel": 0}, {"type": "note_on", "time": 14, "note": 72, "velocity": 119, "channel": 0}, {"type": "note_off", "time": 421, "note": 72, "velocity": 119, "channel": 0}, {"type": "note_on", "time": 8, "note": 67, "velocity": 94, "channel": 0}, {"type": "note_off", "time": 124, "note": 67, "velocity": 94, "channel": 0}, {"type": "note_on", "time": 101, "note": 70, "velocity": 121, "channel": 0}, {"type": "note_off", "time": 185, "note": 70, "velocity": 121, "channel": 0}, {"type": "note_on", "time": 17, "note": 65, "velocity": 114, "channel": 0}, {"type": "note_off", "time": 281, "note": 65, "velocity": 114, "channel": 0}, {"type": "note_on", "time": 16, "note": 67, "velocity": 117, "channel": 0}, {"type": "note_off", "time": 286, "note": 67, "velocity": 117, "channel": 0}, {"type": "note_on", "time": 36, "note": 63, "velocity": 89, "channel": 0}, {"type": "note_off", "time": 117, "note": 63, "velocity": 89, "channel": 0}, {"type": "note_on", "time": 74, "note": 65, "velocity": 118, "channel": 0}, {"type": "note_off", "time": 524, "note": 65, "velocity": 118, "channel": 0}, {"type": "note_on", "time": 133, "note": 70, "velocity": 115, "channel": 0}, {"type": "note_off", "time": 40, "note": 70, "velocity": 115, "channel": 0}, {"type": "note_on", "time": 15, "note": 68, "velocity": 115, "channel": 0}, {"type": "note_off", "time": 77, "note": 68, "velocity": 115, "channel": 0}, {"type": "note_on", "time": 12, "note": 66, "velocity": 111, "channel": 0}, {"type": "note_off", "time": 68, "note": 66, "velocity": 111, "channel": 0}, {"type": "note_on", "time": 15, "note": 67, "velocity": 105, "channel": 0}, {"type": "note_off", "time": 35, "note": 67, "velocity": 105, "channel": 0}, {"type": "note_on", "time": 8, "note": 68, "velocity": 108, "channel": 0}, {"type": "note_off", "time": 53, "note": 68, "velocity": 108, "channel": 0}, {"type": "note_on", "time": 1, "note": 70, "velocity": 120, "channel": 0}, {"type": "note_off", "time": 176, "note": 70, "velocity": 120, "channel": 0}, {"type": "note_on", "time": 20, "note": 66, "velocity": 113, "channel": 0}, {"type": "note_off", "time": 48, "note": 66, "velocity": 113, "channel": 0}, {"type": "note_on", "time": 19, "note": 68, "velocity": 107, "channel": 0}, {"type": "note_off", "time": 74, "note": 68, "velocity": 107, "channel": 0}, {"type": "note_on", "time": 37, "note": 70, "velocity": 117, "channel": 0}, {"type": "note_off", "time": 162, "note": 70, "velocity": 117, "channel": 0}, {"type": "note_on", "time": 27, "note": 65, "velocity": 112, "channel": 0}, {"type": "note_off", "time": 86, "note": 65, "velocity": 112, "channel": 0}, {"type": "note_on", "time": 58, "note": 67, "velocity": 112, "channel": 0}, {"type": "note_off", "time": 81, "note": 67, "velocity": 112, "channel": 0}, {"type": "note_on", "time": 32, "note": 69, "velocity": 111, "channel": 0}, {"type": "note_off", "time": 517, "note": 69, "velocity": 111, "channel": 0}, {"type": "note_on", "time": 17, "note": 68, "velocity": 108, "channel": 0}, {"type": "note_off", "time": 69, "note": 68, "velocity": 108, "channel": 0}, {"type": "note_on", "time": 33, "note": 67, "velocity": 109, "channel": 0}, {"type": "note_off", "time": 53, "note": 67, "velocity": 109, "channel": 0}, {"type": "note_on", "time": 32, "note": 64, "velocity": 112, "channel": 0}, {"type": "note_off", "time": 467, "note": 64, "velocity": 112, "channel": 0}, {"type": "note_on", "time": 16, "note": 62, "velocity": 102, "channel": 0}, {"type": "note_off", "time": 35, "note": 62, "velocity": 102, "channel": 0}, {"type": "note_on", "time": 26, "note": 63, "velocity": 111, "channel": 0}, {"type": "note_off", "time": 333, "note": 63, "velocity": 111, "channel": 0}, {"type": "note_on", "time": 15, "note": 65, "velocity": 113, "channel": 0}, {"type": "note_off", "time": 137, "note": 65, "velocity": 113, "channel": 0}, {"type": "note_on", "time": 1372, "note": 73, "velocity": 118, "channel": 0}, {"type": "note_off", "time": 75, "note": 73, "velocity": 118, "channel": 0}, {"type": "note_on", "time": 26, "note": 74, "velocity": 108, "channel": 0}, {"type": "note_off", "time": 65, "note": 74, "velocity": 108, "channel": 0}, {"type": "note_on", "time": 15, "note": 77, "velocity": 120, "channel": 0}, {"type": "note_off", "time": 82, "note": 77, "velocity": 120, "channel": 0}, {"type": "note_on", "time": 9, "note": 76, "velocity": 118, "channel": 0}, {"type": "note_off", "time": 88, "note": 76, "velocity": 118, "channel": 0}, {"type": "note_on", "time": 20, "note": 75, "velocity": 111, "channel": 0}, {"type": "note_off", "time": 48, "note": 75, "velocity": 111, "channel": 0}, {"type": "note_on", "time": 8, "note": 73, "velocity": 97, "channel": 0}, {"type": "note_off", "time": 33, "note": 73, "velocity": 97, "channel": 0}, {"type": "note_on", "time": 5, "note": 71, "velocity": 109, "channel": 0}, {"type": "note_off", "time": 86, "note": 71, "velocity": 109, "channel": 0}, {"type": "note_on", "time": 11, "note": 74, "velocity": 115, "channel": 0}, {"type": "note_off", "time": 128, "note": 74, "velocity": 115, "channel": 0}, {"type": "note_on", "time": 13, "note": 71, "velocity": 112, "channel": 0}, {"type": "note_off", "time": 71, "note": 71, "velocity": 112, "channel": 0}, {"type": "note_on", "time": 7, "note": 72, "velocity": 111, "channel": 0}, {"type": "note_off", "time": 84, "note": 72, "velocity": 111, "channel": 0}, {"type": "note_on", "time": 5, "note": 73, "velocity": 112, "channel": 0}, {"type": "note_off", "time": 39, "note": 73, "velocity": 112, "channel": 0}, {"type": "note_on", "time": 3, "note": 70, "velocity": 110, "channel": 0}, {"type": "note_off", "time": 31, "note": 70, "velocity": 110, "channel": 0}, {"type": "note_on", "time": 22, "note": 69, "velocity": 108, "channel": 0}, {"type": "note_off", "time": 53, "note": 69, "velocity": 108, "channel": 0}, {"type": "note_on", "time": 28, "note": 73, "velocity": 109, "channel": 0}, {"type": "note_off", "time": 27, "note": 73, "velocity": 109, "channel": 0}, {"type": "note_on", "time": 15, "note": 72, "velocity": 117, "channel": 0}, {"type": "note_off", "time": 86, "note": 72, "velocity": 117, "channel": 0}, {"type": "note_on", "time": 10, "note": 71, "velocity": 113, "channel": 0}, {"type": "note_off", "time": 86, "note": 71, "velocity": 113, "channel": 0}, {"type": "note_on", "time": 20, "note": 69, "velocity": 110, "channel": 0}, {"type": "note_off", "time": 69, "note": 69, "velocity": 110, "channel": 0}, {"type": "note_on", "time": 7, "note": 66, "velocity": 108, "channel": 0}, {"type": "note_off", "time": 80, "note": 66, "velocity": 108, "channel": 0}, {"type": "note_on", "time": 38, "note": 64, "velocity": 105, "channel": 0}, {"type": "note_off", "time": 64, "note": 64, "velocity": 105, "channel": 0}, {"type": "note_on", "time": 13, "note": 65, "velocity": 110, "channel": 0}, {"type": "note_off", "time": 68, "note": 65, "velocity": 110, "channel": 0}, {"type": "note_on", "time": 19, "note": 64, "velocity": 100, "channel": 0}, {"type": "note_off", "time": 42, "note": 64, "velocity": 100, "channel": 0}, {"type": "note_on", "time": 15, "note": 62, "velocity": 102, "channel": 0}, {"type": "note_off", "time": 106, "note": 62, "velocity": 102, "channel": 0}, {"type": "note_on", "time": 34, "note": 65, "velocity": 119, "channel": 0}, {"type": "note_off", "time": 48, "note": 65, "velocity": 119, "channel": 0}, {"type": "note_on", "time": 43, "note": 67, "velocity": 105, "channel": 0}, {"type": "note_off", "time": 43, "note": 67, "velocity": 105, "channel": 0}, {"type": "note_on", "time": 25, "note": 65, "velocity": 111, "channel": 0}, {"type": "note_off", "time": 88, "note": 65, "velocity": 111, "channel": 0}, {"type": "note_on", "time": 56, "note": 68, "velocity": 100, "channel": 0}, {"type": "note_off", "time": 44, "note": 68, "velocity": 100, "channel": 0}, {"type": "note_on", "time": 0, "note": 74, "velocity": 103, "channel": 0}, {"type": "note_off", "time": 32, "note": 74, "velocity": 103, "channel": 0}, {"type": "note_on", "time": 5, "note": 72, "velocity": 111, "channel": 0}, {"type": "note_off", "time": 39, "note": 72, "velocity": 111, "channel": 0}, {"type": "note_on", "time": 15, "note": 68, "velocity": 97, "channel": 0}, {"type": "note_off", "time": 51, "note": 68, "velocity": 97, "channel": 0}, {"type": "note_on", "time": 10, "note": 66, "velocity": 92, "channel": 0}, {"type": "note_off", "time": 73, "note": 66, "velocity": 92, "channel": 0}, {"type": "note_on", "time": 61, "note": 70, "velocity": 119, "channel": 0}, {"type": "note_off", "time": 74, "note": 70, "velocity": 119, "channel": 0}, {"type": "note_on", "time": 10, "note": 69, "velocity": 114, "channel": 0}, {"type": "note_off", "time": 90, "note": 69, "velocity": 114, "channel": 0}, {"type": "note_on", "time": 18, "note": 68, "velocity": 111, "channel": 0}, {"type": "note_off", "time": 79, "note": 68, "velocity": 111, "channel": 0}, {"type": "note_on", "time": 10, "note": 67, "velocity": 112, "channel": 0}, {"type": "note_off", "time": 104, "note": 67, "velocity": 112, "channel": 0}, {"type": "note_on", "time": 17, "note": 64, "velocity": 104, "channel": 0}, {"type": "note_off", "time": 55, "note": 64, "velocity": 104, "channel": 0}, {"type": "note_on", "time": 70, "note": 67, "velocity": 113, "channel": 0}, {"type": "note_off", "time": 124, "note": 67, "velocity": 113, "channel": 0}, {"type": "note_on", "time": 12, "note": 64, "velocity": 111, "channel": 0}, {"type": "note_off", "time": 61, "note": 64, "velocity": 111, "channel": 0}, {"type": "note_on", "time": 10, "note": 61, "velocity": 106, "channel": 0}, {"type": "note_off", "time": 98, "note": 61, "velocity": 106, "channel": 0}, {"type": "note_on", "time": 8, "note": 59, "velocity": 100, "channel": 0}, {"type": "note_off", "time": 31, "note": 59, "velocity": 100, "channel": 0}, {"type": "note_on", "time": 23, "note": 61, "velocity": 98, "channel": 0}, {"type": "note_off", "time": 77, "note": 61, "velocity": 98, "channel": 0}, {"type": "note_on", "time": 51, "note": 62, "velocity": 93, "channel": 0}, {"type": "note_off", "time": 32, "note": 62, "velocity": 93, "channel": 0}, {"type": "note_on", "time": 14, "note": 63, "velocity": 91, "channel": 0}, {"type": "note_off", "time": 57, "note": 63, "velocity": 91, "channel": 0}, {"type": "note_on", "time": 57, "note": 67, "velocity": 114, "channel": 0}, {"type": "note_off", "time": 85, "note": 67, "velocity": 114, "channel": 0}, {"type": "note_on", "time": 20, "note": 65, "velocity": 102, "channel": 0}, {"type": "note_off", "time": 73, "note": 65, "velocity": 102, "channel": 0}, {"type": "note_on", "time": 12, "note": 67, "velocity": 112, "channel": 0}, {"type": "note_off", "time": 89, "note": 67, "velocity": 112, "channel": 0}, {"type": "note_on", "time": 22, "note": 68, "velocity": 92, "channel": 0}, {"type": "note_off", "time": 58, "note": 68, "velocity": 92, "channel": 0}, {"type": "note_on", "time": 34, "note": 69, "velocity": 99, "channel": 0}, {"type": "note_off", "time": 51, "note": 69, "velocity": 99, "channel": 0}, {"type": "note_on", "time": 21, "note": 70, "velocity": 118, "channel": 0}, {"type": "note_off", "time": 96, "note": 70, "velocity": 118, "channel": 0}, {"type": "note_on", "time": 14, "note": 68, "velocity": 109, "channel": 0}, {"type": "note_off", "time": 85, "note": 68, "velocity": 109, "channel": 0}, {"type": "note_on", "time": 14, "note": 69, "velocity": 114, "channel": 0}, {"type": "note_off", "time": 70, "note": 69, "velocity": 114, "channel": 0}, {"type": "note_on", "time": 19, "note": 67, "velocity": 108, "channel": 0}, {"type": "note_off", "time": 77, "note": 67, "velocity": 108, "channel": 0}, {"type": "note_on", "time": 31, "note": 66, "velocity": 111, "channel": 0}, {"type": "note_off", "time": 92, "note": 66, "velocity": 111, "channel": 0}, {"type": "note_on", "time": 5, "note": 69, "velocity": 110, "channel": 0}, {"type": "note_off", "time": 72, "note": 69, "velocity": 110, "channel": 0}, {"type": "note_on", "time": 39, "note": 66, "velocity": 101, "channel": 0}, {"type": "note_off", "time": 27, "note": 66, "velocity": 101, "channel": 0}, {"type": "note_on", "time": 0, "note": 67, "velocity": 99, "channel": 0}, {"type": "note_off", "time": 30, "note": 67, "velocity": 99, "channel": 0}, {"type": "note_on", "time": 15, "note": 69, "velocity": 112, "channel": 0}, {"type": "note_off", "time": 83, "note": 69, "velocity": 112, "channel": 0}, {"type": "note_on", "time": 16, "note": 67, "velocity": 113, "channel": 0}, {"type": "note_off", "time": 79, "note": 67, "velocity": 113, "channel": 0}, {"type": "note_on", "time": 24, "note": 69, "velocity": 113, "channel": 0}, {"type": "note_off", "time": 98, "note": 69, "velocity": 113, "channel": 0}, {"type": "note_on", "time": 8, "note": 70, "velocity": 107, "channel": 0}, {"type": "note_off", "time": 58, "note": 70, "velocity": 107, "channel": 0}, {"type": "note_on", "time": 6, "note": 72, "velocity": 102, "channel": 0}, {"type": "note_off", "time": 86, "note": 72, "velocity": 102, "channel": 0}, {"type": "note_on", "time": 4, "note": 74, "velocity": 114, "channel": 0}, {"type": "note_off", "time": 106, "note": 74, "velocity": 114, "channel": 0}, {"type": "note_on", "time": 13, "note": 73, "velocity": 112, "channel": 0}, {"type": "note_off", "time": 69, "note": 73, "velocity": 112, "channel": 0}, {"type": "note_on", "time": 8, "note": 72, "velocity": 110, "channel": 0}, {"type": "note_off", "time": 95, "note": 72, "velocity": 110, "channel": 0}, {"type": "note_on", "time": 7, "note": 71, "velocity": 111, "channel": 0}, {"type": "note_off", "time": 79, "note": 71, "velocity": 111, "channel": 0}, {"type": "note_on", "time": 19, "note": 70, "velocity": 108, "channel": 0}, {"type": "note_off", "time": 103, "note": 70, "velocity": 108, "channel": 0}, {"type": "note_on", "time": 7, "note": 68, "velocity": 102, "channel": 0}, {"type": "note_off", "time": 60, "note": 68, "velocity": 102, "channel": 0}, {"type": "note_on", "time": 10, "note": 67, "velocity": 105, "channel": 0}, {"type": "note_off", "time": 68, "note": 67, "velocity": 105, "channel": 0}, {"type": "note_on", "time": 12, "note": 65, "velocity": 102, "channel": 0}, {"type": "note_off", "time": 69, "note": 65, "velocity": 102, "channel": 0}, {"type": "note_on", "time": 37, "note": 64, "velocity": 104, "channel": 0}, {"type": "note_off", "time": 90, "note": 64, "velocity": 104, "channel": 0}, {"type": "note_on", "time": 35, "note": 62, "velocity": 99, "channel": 0}, {"type": "note_off", "time": 91, "note": 62, "velocity": 99, "channel": 0}, {"type": "note_on", "time": 21, "note": 61, "velocity": 90, "channel": 0}, {"type": "note_off", "time": 70, "note": 61, "velocity": 90, "channel": 0}, {"type": "note_on", "time": 163, "note": 67, "velocity": 110, "channel": 0}, {"type": "note_off", "time": 73, "note": 67, "velocity": 110, "channel": 0}, {"type": "note_on", "time": 47, "note": 65, "velocity": 97, "channel": 0}, {"type": "note_off", "time": 62, "note": 65, "velocity": 97, "channel": 0}, {"type": "note_on", "time": 25, "note": 67, "velocity": 102, "channel": 0}, {"type": "note_off", "time": 81, "note": 67, "velocity": 102, "channel": 0}, {"type": "note_on", "time": 20, "note": 65, "velocity": 119, "channel": 0}, {"type": "note_off", "time": 60, "note": 65, "velocity": 119, "channel": 0}, {"type": "note_on", "time": 33, "note": 60, "velocity": 95, "channel": 0}, {"type": "note_off", "time": 32, "note": 60, "velocity": 95, "channel": 0}, {"type": "note_on", "time": 929, "note": 77, "velocity": 123, "channel": 0}, {"type": "note_off", "time": 86, "note": 77, "velocity": 123, "channel": 0}, {"type": "note_on", "time": 12, "note": 78, "velocity": 121, "channel": 0}, {"type": "note_off", "time": 79, "note": 78, "velocity": 121, "channel": 0}, {"type": "note_on", "time": 20, "note": 76, "velocity": 122, "channel": 0}, {"type": "note_off", "time": 64, "note": 76, "velocity": 122, "channel": 0}, {"type": "note_on", "time": 8, "note": 77, "velocity": 125, "channel": 0}, {"type": "note_off", "time": 93, "note": 77, "velocity": 125, "channel": 0}, {"type": "note_on", "time": 4, "note": 78, "velocity": 124, "channel": 0}, {"type": "note_off", "time": 70, "note": 78, "velocity": 124, "channel": 0}, {"type": "note_on", "time": 4, "note": 77, "velocity": 111, "channel": 0}, {"type": "note_off", "time": 33, "note": 77, "velocity": 111, "channel": 0}, {"type": "note_on", "time": 9, "note": 76, "velocity": 122, "channel": 0}, {"type": "note_off", "time": 64, "note": 76, "velocity": 122, "channel": 0}, {"type": "note_on", "time": 29, "note": 74, "velocity": 117, "channel": 0}, {"type": "note_off", "time": 59, "note": 74, "velocity": 117, "channel": 0}, {"type": "note_on", "time": 10, "note": 75, "velocity": 113, "channel": 0}, {"type": "note_off", "time": 73, "note": 75, "velocity": 113, "channel": 0}, {"type": "note_on", "time": 6, "note": 76, "velocity": 115, "channel": 0}, {"type": "note_off", "time": 59, "note": 76, "velocity": 115, "channel": 0}, {"type": "note_on", "time": 35, "note": 74, "velocity": 110, "channel": 0}, {"type": "note_off", "time": 49, "note": 74, "velocity": 110, "channel": 0}, {"type": "note_on", "time": 10, "note": 75, "velocity": 113, "channel": 0}, {"type": "note_off", "time": 75, "note": 75, "velocity": 113, "channel": 0}, {"type": "note_on", "time": 10, "note": 74, "velocity": 113, "channel": 0}, {"type": "note_off", "time": 109, "note": 74, "velocity": 113, "channel": 0}, {"type": "note_on", "time": 460, "note": 77, "velocity": 121, "channel": 0}, {"type": "note_off", "time": 90, "note": 77, "velocity": 121, "channel": 0}, {"type": "note_on", "time": 10, "note": 78, "velocity": 115, "channel": 0}, {"type": "note_off", "time": 67, "note": 78, "velocity": 115, "channel": 0}, {"type": "note_on", "time": 5, "note": 76, "velocity": 114, "channel": 0}, {"type": "note_off", "time": 90, "note": 76, "velocity": 114, "channel": 0}, {"type": "note_on", "time": 7, "note": 77, "velocity": 116, "channel": 0}, {"type": "note_off", "time": 107, "note": 77, "velocity": 116, "channel": 0}, {"type": "note_on", "time": 0, "note": 75, "velocity": 108, "channel": 0}, {"type": "note_off", "time": 71, "note": 75, "velocity": 108, "channel": 0}, {"type": "note_on", "time": 11, "note": 76, "velocity": 116, "channel": 0}, {"type": "note_off", "time": 93, "note": 76, "velocity": 116, "channel": 0}, {"type": "note_on", "time": 2, "note": 74, "velocity": 112, "channel": 0}, {"type": "note_off", "time": 102, "note": 74, "velocity": 112, "channel": 0}, {"type": "note_on", "time": 16, "note": 75, "velocity": 101, "channel": 0}, {"type": "note_off", "time": 81, "note": 75, "velocity": 101, "channel": 0}, {"type": "note_on", "time": 778, "note": 77, "velocity": 116, "channel": 0}, {"type": "note_off", "time": 75, "note": 77, "velocity": 116, "channel": 0}, {"type": "note_on", "time": 13, "note": 78, "velocity": 120, "channel": 0}, {"type": "note_off", "time": 78, "note": 78, "velocity": 120, "channel": 0}, {"type": "note_on", "time": 12, "note": 76, "velocity": 113, "channel": 0}, {"type": "note_off", "time": 81, "note": 76, "velocity": 113, "channel": 0}, {"type": "note_on", "time": 13, "note": 77, "velocity": 119, "channel": 0}, {"type": "note_off", "time": 77, "note": 77, "velocity": 119, "channel": 0}, {"type": "note_on", "time": 10, "note": 78, "velocity": 119, "channel": 0}, {"type": "note_off", "time": 89, "note": 78, "velocity": 119, "channel": 0}, {"type": "note_on", "time": 4, "note": 76, "velocity": 111, "channel": 0}, {"type": "note_off", "time": 91, "note": 76, "velocity": 111, "channel": 0}, {"type": "note_on", "time": 1, "note": 74, "velocity": 110, "channel": 0}, {"type": "note_off", "time": 74, "note": 74, "velocity": 110, "channel": 0}, {"type": "note_on", "time": 6, "note": 75, "velocity": 111, "channel": 0}, {"type": "note_off", "time": 105, "note": 75, "velocity": 111, "channel": 0}, {"type": "note_on", "time": 4, "note": 73, "velocity": 111, "channel": 0}, {"type": "note_off", "time": 81, "note": 73, "velocity": 111, "channel": 0}, {"type": "note_on", "time": 14, "note": 74, "velocity": 114, "channel": 0}, {"type": "note_off", "time": 101, "note": 74, "velocity": 114, "channel": 0}, {"type": "note_on", "time": 32, "note": 73, "velocity": 114, "channel": 0}, {"type": "note_off", "time": 112, "note": 73, "velocity": 114, "channel": 0}, {"type": "note_on", "time": 3, "note": 71, "velocity": 105, "channel": 0}, {"type": "note_off", "time": 131, "note": 71, "velocity": 105, "channel": 0}, {"type": "note_on", "time": 10, "note": 72, "velocity": 110, "channel": 0}, {"type": "note_off", "time": 75, "note": 72, "velocity": 110, "channel": 0}, {"type": "note_on", "time": 12, "note": 70, "velocity": 115, "channel": 0}, {"type": "note_off", "time": 81, "note": 70, "velocity": 115, "channel": 0}, {"type": "note_on", "time": 42, "note": 71, "velocity": 108, "channel": 0}, {"type": "note_off", "time": 74, "note": 71, "velocity": 108, "channel": 0}, {"type": "note_on", "time": 24, "note": 68, "velocity": 108, "channel": 0}, {"type": "note_off", "time": 57, "note": 68, "velocity": 108, "channel": 0}, {"type": "note_on", "time": 24, "note": 70, "velocity": 116, "channel": 0}, {"type": "note_off", "time": 75, "note": 70, "velocity": 116, "channel": 0}, {"type": "note_on", "time": 23, "note": 72, "velocity": 114, "channel": 0}, {"type": "note_off", "time": 92, "note": 72, "velocity": 114, "channel": 0}, {"type": "note_on", "time": 10, "note": 74, "velocity": 112, "channel": 0}, {"type": "note_off", "time": 77, "note": 74, "velocity": 112, "channel": 0}, {"type": "note_on", "time": 11, "note": 77, "velocity": 123, "channel": 0}, {"type": "note_off", "time": 114, "note": 77, "velocity": 123, "channel": 0}, {"type": "note_on", "time": 394, "note": 76, "velocity": 116, "channel": 0}, {"type": "note_off", "time": 197, "note": 76, "velocity": 116, "channel": 0}, {"type": "note_on", "time": 26, "note": 72, "velocity": 102, "channel": 0}, {"type": "note_off", "time": 53, "note": 72, "velocity": 102, "channel": 0}, {"type": "note_on", "time": 145, "note": 74, "velocity": 122, "channel": 0}, {"type": "note_off", "time": 249, "note": 74, "velocity": 122, "channel": 0}, {"type": "note_on", "time": 33, "note": 70, "velocity": 121, "channel": 0}, {"type": "note_off", "time": 297, "note": 70, "velocity": 121, "channel": 0}, {"type": "note_on", "time": 23, "note": 66, "velocity": 112, "channel": 0}, {"type": "note_off", "time": 74, "note": 66, "velocity": 112, "channel": 0}, {"type": "note_on", "time": 113, "note": 70, "velocity": 114, "channel": 0}, {"type": "note_off", "time": 288, "note": 70, "velocity": 114, "channel": 0}, {"type": "note_on", "time": 7, "note": 69, "velocity": 111, "channel": 0}, {"type": "note_off", "time": 72, "note": 69, "velocity": 111, "channel": 0}, {"type": "note_on", "time": 9, "note": 70, "velocity": 118, "channel": 0}, {"type": "note_off", "time": 71, "note": 70, "velocity": 118, "channel": 0}, {"type": "note_on", "time": 10, "note": 69, "velocity": 117, "channel": 0}, {"type": "note_off", "time": 77, "note": 69, "velocity": 117, "channel": 0}, {"type": "note_on", "time": 30, "note": 65, "velocity": 103, "channel": 0}, {"type": "note_off", "time": 92, "note": 65, "velocity": 103, "channel": 0}, {"type": "note_on", "time": 132, "note": 69, "velocity": 117, "channel": 0}, {"type": "note_off", "time": 242, "note": 69, "velocity": 117, "channel": 0}, {"type": "note_on", "time": 7, "note": 68, "velocity": 116, "channel": 0}, {"type": "note_off", "time": 294, "note": 68, "velocity": 116, "channel": 0}, {"type": "note_on", "time": 27, "note": 64, "velocity": 101, "channel": 0}, {"type": "note_off", "time": 70, "note": 64, "velocity": 101, "channel": 0}, {"type": "note_on", "time": 113, "note": 68, "velocity": 115, "channel": 0}, {"type": "note_off", "time": 940, "note": 68, "velocity": 115, "channel": 0}, {"type": "note_on", "time": 54, "note": 72, "velocity": 124, "channel": 0}, {"type": "note_off", "time": 93, "note": 72, "velocity": 124, "channel": 0}, {"type": "note_on", "time": 8, "note": 74, "velocity": 121, "channel": 0}, {"type": "note_off", "time": 178, "note": 74, "velocity": 121, "channel": 0}, {"type": "note_on", "time": 16, "note": 69, "velocity": 104, "channel": 0}, {"type": "note_off", "time": 65, "note": 69, "velocity": 104, "channel": 0}, {"type": "note_on", "time": 137, "note": 72, "velocity": 116, "channel": 0}, {"type": "note_off", "time": 799, "note": 72, "velocity": 116, "channel": 0}, {"type": "note_on", "time": 8, "note": 74, "velocity": 116, "channel": 0}, {"type": "note_off", "time": 178, "note": 74, "velocity": 116, "channel": 0}, {"type": "note_on", "time": 10, "note": 77, "velocity": 118, "channel": 0}, {"type": "note_off", "time": 90, "note": 77, "velocity": 118, "channel": 0}, {"type": "note_on", "time": 10, "note": 76, "velocity": 116, "channel": 0}, {"type": "note_off", "time": 94, "note": 76, "velocity": 116, "channel": 0}, {"type": "note_on", "time": 6, "note": 75, "velocity": 111, "channel": 0}, {"type": "note_off", "time": 67, "note": 75, "velocity": 111, "channel": 0}, {"type": "note_on", "time": 45, "note": 71, "velocity": 108, "channel": 0}, {"type": "note_off", "time": 65, "note": 71, "velocity": 108, "channel": 0}, {"type": "note_on", "time": 19, "note": 74, "velocity": 119, "channel": 0}, {"type": "note_off", "time": 78, "note": 74, "velocity": 119, "channel": 0}, {"type": "note_on", "time": 5, "note": 73, "velocity": 110, "channel": 0}, {"type": "note_off", "time": 35, "note": 73, "velocity": 110, "channel": 0}, {"type": "note_on", "time": 24, "note": 71, "velocity": 109, "channel": 0}, {"type": "note_off", "time": 35, "note": 71, "velocity": 109, "channel": 0}, {"type": "note_on", "time": 11, "note": 72, "velocity": 115, "channel": 0}, {"type": "note_off", "time": 73, "note": 72, "velocity": 115, "channel": 0}, {"type": "note_on", "time": 19, "note": 70, "velocity": 115, "channel": 0}, {"type": "note_off", "time": 70, "note": 70, "velocity": 115, "channel": 0}, {"type": "note_on", "time": 18, "note": 69, "velocity": 110, "channel": 0}, {"type": "note_off", "time": 71, "note": 69, "velocity": 110, "channel": 0}, {"type": "note_on", "time": 51, "note": 72, "velocity": 120, "channel": 0}, {"type": "note_off", "time": 93, "note": 72, "velocity": 120, "channel": 0}, {"type": "note_on", "time": 4, "note": 71, "velocity": 111, "channel": 0}, {"type": "note_off", "time": 76, "note": 71, "velocity": 111, "channel": 0}, {"type": "note_on", "time": 283, "note": 71, "velocity": 116, "channel": 0}, {"type": "note_off", "time": 96, "note": 71, "velocity": 116, "channel": 0}, {"type": "note_on", "time": 19, "note": 70, "velocity": 111, "channel": 0}, {"type": "note_off", "time": 28, "note": 70, "velocity": 111, "channel": 0}, {"type": "note_on", "time": 8, "note": 69, "velocity": 107, "channel": 0}, {"type": "note_off", "time": 23, "note": 69, "velocity": 107, "channel": 0}, {"type": "note_on", "time": 10, "note": 66, "velocity": 112, "channel": 0}, {"type": "note_off", "time": 75, "note": 66, "velocity": 112, "channel": 0}, {"type": "note_on", "time": 30, "note": 64, "velocity": 113, "channel": 0}, {"type": "note_off", "time": 70, "note": 64, "velocity": 113, "channel": 0}, {"type": "note_on", "time": 8, "note": 65, "velocity": 106, "channel": 0}, {"type": "note_off", "time": 76, "note": 65, "velocity": 106, "channel": 0}, {"type": "note_on", "time": 80, "note": 67, "velocity": 97, "channel": 0}, {"type": "note_off", "time": 42, "note": 67, "velocity": 97, "channel": 0}, {"type": "note_on", "time": 10, "note": 68, "velocity": 101, "channel": 0}, {"type": "note_off", "time": 30, "note": 68, "velocity": 101, "channel": 0}, {"type": "note_on", "time": 66, "note": 72, "velocity": 108, "channel": 0}, {"type": "note_off", "time": 98, "note": 72, "velocity": 108, "channel": 0}, {"type": "note_on", "time": 72, "note": 66, "velocity": 89, "channel": 0}, {"type": "note_off", "time": 32, "note": 66, "velocity": 89, "channel": 0}, {"type": "note_on", "time": 42, "note": 65, "velocity": 100, "channel": 0}, {"type": "note_off", "time": 37, "note": 65, "velocity": 100, "channel": 0}, {"type": "note_on", "time": 12, "note": 70, "velocity": 113, "channel": 0}, {"type": "note_off", "time": 102, "note": 70, "velocity": 113, "channel": 0}, {"type": "note_on", "time": 10, "note": 69, "velocity": 109, "channel": 0}, {"type": "note_off", "time": 74, "note": 69, "velocity": 109, "channel": 0}, {"type": "note_on", "time": 18, "note": 68, "velocity": 94, "channel": 0}, {"type": "note_off", "time": 72, "note": 68, "velocity": 94, "channel": 0}, {"type": "note_on", "time": 942, "note": 73, "velocity": 119, "channel": 0}, {"type": "note_off", "time": 160, "note": 73, "velocity": 119, "channel": 0}, {"type": "note_on", "time": 0, "note": 75, "velocity": 121, "channel": 0}, {"type": "note_off", "time": 82, "note": 75, "velocity": 121, "channel": 0}, {"type": "note_on", "time": 30, "note": 70, "velocity": 116, "channel": 0}, {"type": "note_off", "time": 677, "note": 70, "velocity": 116, "channel": 0}, {"type": "note_on", "time": 5, "note": 73, "velocity": 118, "channel": 0}, {"type": "note_off", "time": 82, "note": 73, "velocity": 118, "channel": 0}, {"type": "note_on", "time": 149, "note": 68, "velocity": 112, "channel": 0}, {"type": "note_off", "time": 395, "note": 68, "velocity": 112, "channel": 0}, {"type": "note_on", "time": 8, "note": 70, "velocity": 114, "channel": 0}, {"type": "note_off", "time": 209, "note": 70, "velocity": 114, "channel": 0}, {"type": "note_on", "time": 23, "note": 63, "velocity": 110, "channel": 0}, {"type": "note_off", "time": 394, "note": 63, "velocity": 110, "channel": 0}, {"type": "note_on", "time": 17, "note": 65, "velocity": 116, "channel": 0}, {"type": "note_off", "time": 213, "note": 65, "velocity": 116, "channel": 0}, {"type": "note_on", "time": 13, "note": 63, "velocity": 101, "channel": 0}, {"type": "note_off", "time": 43, "note": 63, "velocity": 101, "channel": 0}, {"type": "note_on", "time": 165, "note": 60, "velocity": 107, "channel": 0}, {"type": "note_off", "time": 72, "note": 60, "velocity": 107, "channel": 0}, {"type": "note_on", "time": 120, "note": 60, "velocity": 107, "channel": 0}, {"type": "note_off", "time": 777, "note": 60, "velocity": 107, "channel": 0}, {"type": "note_on", "time": 560, "note": 75, "velocity": 116, "channel": 0}, {"type": "note_off", "time": 308, "note": 75, "velocity": 116, "channel": 0}, {"type": "note_on", "time": 24, "note": 77, "velocity": 120, "channel": 0}, {"type": "note_off", "time": 294, "note": 77, "velocity": 120, "channel": 0}, {"type": "note_on", "time": 30, "note": 79, "velocity": 121, "channel": 0}, {"type": "note_off", "time": 459, "note": 79, "velocity": 121, "channel": 0}, {"type": "note_on", "time": 26, "note": 79, "velocity": 118, "channel": 0}, {"type": "note_off", "time": 92, "note": 79, "velocity": 118, "channel": 0}, {"type": "note_on", "time": 122, "note": 75, "velocity": 113, "channel": 0}, {"type": "note_off", "time": 61, "note": 75, "velocity": 113, "channel": 0}, {"type": "note_on", "time": 137, "note": 77, "velocity": 119, "channel": 0}, {"type": "note_off", "time": 85, "note": 77, "velocity": 119, "channel": 0}, {"type": "note_on", "time": 102, "note": 77, "velocity": 114, "channel": 0}, {"type": "note_off", "time": 1196, "note": 77, "velocity": 114, "channel": 0}, {"type": "note_on", "time": 535, "note": 77, "velocity": 121, "channel": 0}, {"type": "note_off", "time": 136, "note": 77, "velocity": 121, "channel": 0}, {"type": "note_on", "time": 2, "note": 79, "velocity": 97, "channel": 0}, {"type": "note_off", "time": 99, "note": 79, "velocity": 97, "channel": 0}, {"type": "note_on", "time": 6, "note": 82, "velocity": 111, "channel": 0}, {"type": "note_off", "time": 1071, "note": 82, "velocity": 111, "channel": 0}, {"type": "note_on", "time": 1, "note": 79, "velocity": 116, "channel": 0}, {"type": "note_off", "time": 154, "note": 79, "velocity": 116, "channel": 0}, {"type": "note_on", "time": 28, "note": 77, "velocity": 118, "channel": 0}, {"type": "note_off", "time": 110, "note": 77, "velocity": 118, "channel": 0}, {"type": "note_on", "time": 8, "note": 77, "velocity": 107, "channel": 0}, {"type": "note_off", "time": 1404, "note": 77, "velocity": 107, "channel": 0}, {"type": "note_on", "time": 20, "note": 80, "velocity": 98, "channel": 0}, {"type": "note_off", "time": 105, "note": 80, "velocity": 98, "channel": 0}, {"type": "note_on", "time": 6, "note": 78, "velocity": 107, "channel": 0}, {"type": "note_off", "time": 166, "note": 78, "velocity": 107, "channel": 0}, {"type": "note_on", "time": 35, "note": 77, "velocity": 105, "channel": 0}, {"type": "note_off", "time": 143, "note": 77, "velocity": 105, "channel": 0}, {"type": "note_on", "time": 12, "note": 75, "velocity": 110, "channel": 0}, {"type": "note_off", "time": 206, "note": 75, "velocity": 110, "channel": 0}, {"type": "note_on", "time": 34, "note": 73, "velocity": 108, "channel": 0}, {"type": "note_off", "time": 464, "note": 73, "velocity": 108, "channel": 0}, {"type": "note_on", "time": 8, "note": 75, "velocity": 111, "channel": 0}, {"type": "note_off", "time": 268, "note": 75, "velocity": 111, "channel": 0}, {"type": "note_on", "time": 4, "note": 72, "velocity": 9, "channel": 0}, {"type": "note_off", "time": 307, "note": 72, "velocity": 9, "channel": 0}, {"type": "note_on", "time": 12, "note": 70, "velocity": 96, "channel": 0}, {"type": "note_off", "time": 66, "note": 70, "velocity": 96, "channel": 0}, {"type": "note_on", "time": 131, "note": 70, "velocity": 113, "channel": 0}, {"type": "note_off", "time": 371, "note": 70, "velocity": 113, "channel": 0}, {"type": "note_on", "time": 62, "note": 70, "velocity": 105, "channel": 0}, {"type": "note_off", "time": 38, "note": 70, "velocity": 105, "channel": 0}, {"type": "note_on", "time": 750, "note": 75, "velocity": 110, "channel": 0}, {"type": "note_off", "time": 63, "note": 75, "velocity": 110, "channel": 0}, {"type": "note_on", "time": 13, "note": 74, "velocity": 119, "channel": 0}, {"type": "note_off", "time": 73, "note": 74, "velocity": 119, "channel": 0}, {"type": "note_on", "time": 14, "note": 76, "velocity": 118, "channel": 0}, {"type": "note_off", "time": 70, "note": 76, "velocity": 118, "channel": 0}, {"type": "note_on", "time": 9, "note": 78, "velocity": 91, "channel": 0}, {"type": "note_off", "time": 36, "note": 78, "velocity": 91, "channel": 0}, {"type": "note_on", "time": 11, "note": 79, "velocity": 115, "channel": 0}, {"type": "note_off", "time": 60, "note": 79, "velocity": 115, "channel": 0}, {"type": "note_on", "time": 17, "note": 80, "velocity": 118, "channel": 0}, {"type": "note_off", "time": 106, "note": 80, "velocity": 118, "channel": 0}, {"type": "note_on", "time": 18, "note": 76, "velocity": 114, "channel": 0}, {"type": "note_off", "time": 100, "note": 76, "velocity": 114, "channel": 0}, {"type": "note_on", "time": 582, "note": 75, "velocity": 101, "channel": 0}, {"type": "note_off", "time": 46, "note": 75, "velocity": 101, "channel": 0}, {"type": "note_on", "time": 8, "note": 74, "velocity": 109, "channel": 0}, {"type": "note_off", "time": 109, "note": 74, "velocity": 109, "channel": 0}, {"type": "note_on", "time": 7, "note": 75, "velocity": 104, "channel": 0}, {"type": "note_off", "time": 69, "note": 75, "velocity": 104, "channel": 0}, {"type": "note_on", "time": 35, "note": 79, "velocity": 114, "channel": 0}, {"type": "note_off", "time": 100, "note": 79, "velocity": 114, "channel": 0}, {"type": "note_on", "time": 6, "note": 77, "velocity": 116, "channel": 0}, {"type": "note_off", "time": 83, "note": 77, "velocity": 116, "channel": 0}, {"type": "note_on", "time": 6, "note": 76, "velocity": 117, "channel": 0}, {"type": "note_off", "time": 92, "note": 76, "velocity": 117, "channel": 0}, {"type": "note_on", "time": 4, "note": 75, "velocity": 115, "channel": 0}, {"type": "note_off", "time": 88, "note": 75, "velocity": 115, "channel": 0}, {"type": "note_on", "time": 4, "note": 74, "velocity": 98, "channel": 0}, {"type": "note_off", "time": 58, "note": 74, "velocity": 98, "channel": 0}, {"type": "note_on", "time": 353, "note": 71, "velocity": 101, "channel": 0}, {"type": "note_off", "time": 69, "note": 71, "velocity": 101, "channel": 0}, {"type": "note_on", "time": 0, "note": 74, "velocity": 116, "channel": 0}, {"type": "note_off", "time": 107, "note": 74, "velocity": 116, "channel": 0}, {"type": "note_on", "time": 24, "note": 71, "velocity": 104, "channel": 0}, {"type": "note_off", "time": 58, "note": 71, "velocity": 104, "channel": 0}, {"type": "note_on", "time": 5, "note": 72, "velocity": 108, "channel": 0}, {"type": "note_off", "time": 76, "note": 72, "velocity": 108, "channel": 0}, {"type": "note_on", "time": 14, "note": 74, "velocity": 116, "channel": 0}, {"type": "note_off", "time": 102, "note": 74, "velocity": 116, "channel": 0}, {"type": "note_on", "time": 3, "note": 75, "velocity": 112, "channel": 0}, {"type": "note_off", "time": 103, "note": 75, "velocity": 112, "channel": 0}, {"type": "note_on", "time": 6, "note": 77, "velocity": 112, "channel": 0}, {"type": "note_off", "time": 65, "note": 77, "velocity": 112, "channel": 0}, {"type": "note_on", "time": 6, "note": 78, "velocity": 116, "channel": 0}, {"type": "note_off", "time": 77, "note": 78, "velocity": 116, "channel": 0}, {"type": "note_on", "time": 31, "note": 76, "velocity": 111, "channel": 0}, {"type": "note_off", "time": 96, "note": 76, "velocity": 111, "channel": 0}, {"type": "note_on", "time": 5, "note": 77, "velocity": 115, "channel": 0}, {"type": "note_off", "time": 86, "note": 77, "velocity": 115, "channel": 0}, {"type": "note_on", "time": 10, "note": 74, "velocity": 117, "channel": 0}, {"type": "note_off", "time": 112, "note": 74, "velocity": 117, "channel": 0}, {"type": "note_on", "time": 1, "note": 75, "velocity": 111, "channel": 0}, {"type": "note_off", "time": 60, "note": 75, "velocity": 111, "channel": 0}, {"type": "note_on", "time": 36, "note": 76, "velocity": 113, "channel": 0}, {"type": "note_off", "time": 73, "note": 76, "velocity": 113, "channel": 0}, {"type": "note_on", "time": 26, "note": 74, "velocity": 115, "channel": 0}, {"type": "note_off", "time": 104, "note": 74, "velocity": 115, "channel": 0}, {"type": "note_on", "time": 3, "note": 72, "velocity": 111, "channel": 0}, {"type": "note_off", "time": 80, "note": 72, "velocity": 111, "channel": 0}, {"type": "note_on", "time": 7, "note": 70, "velocity": 110, "channel": 0}, {"type": "note_off", "time": 58, "note": 70, "velocity": 110, "channel": 0}, {"type": "note_on", "time": 10, "note": 69, "velocity": 102, "channel": 0}, {"type": "note_off", "time": 94, "note": 69, "velocity": 102, "channel": 0}, {"type": "note_on", "time": 10, "note": 68, "velocity": 114, "channel": 0}, {"type": "note_off", "time": 98, "note": 68, "velocity": 114, "channel": 0}, {"type": "note_on", "time": 7, "note": 67, "velocity": 107, "channel": 0}, {"type": "note_off", "time": 97, "note": 67, "velocity": 107, "channel": 0}, {"type": "note_on", "time": 10, "note": 65, "velocity": 108, "channel": 0}, {"type": "note_off", "time": 82, "note": 65, "velocity": 108, "channel": 0}, {"type": "note_on", "time": 14, "note": 63, "velocity": 105, "channel": 0}, {"type": "note_off", "time": 166, "note": 63, "velocity": 105, "channel": 0}, {"type": "note_on", "time": 6, "note": 60, "velocity": 99, "channel": 0}, {"type": "note_off", "time": 110, "note": 60, "velocity": 99, "channel": 0}, {"type": "note_on", "time": 8, "note": 58, "velocity": 100, "channel": 0}, {"type": "note_off", "time": 110, "note": 58, "velocity": 100, "channel": 0}, {"type": "note_on", "time": 10, "note": 55, "velocity": 113, "channel": 0}, {"type": "note_off", "time": 86, "note": 55, "velocity": 113, "channel": 0}, {"type": "note_on", "time": 13, "note": 53, "velocity": 109, "channel": 0}, {"type": "note_off", "time": 82, "note": 53, "velocity": 109, "channel": 0}, {"type": "note_on", "time": 20, "note": 55, "velocity": 104, "channel": 0}, {"type": "note_off", "time": 80, "note": 55, "velocity": 104, "channel": 0}, {"type": "note_on", "time": 9, "note": 58, "velocity": 97, "channel": 0}, {"type": "note_off", "time": 123, "note": 58, "velocity": 97, "channel": 0}, {"type": "note_on", "time": 9, "note": 60, "velocity": 95, "channel": 0}, {"type": "note_off", "time": 39, "note": 60, "velocity": 95, "channel": 0}, {"type": "note_on", "time": 8, "note": 65, "velocity": 107, "channel": 0}, {"type": "note_off", "time": 115, "note": 65, "velocity": 107, "channel": 0}, {"type": "note_on", "time": 4, "note": 62, "velocity": 92, "channel": 0}, {"type": "note_off", "time": 91, "note": 62, "velocity": 92, "channel": 0}, {"type": "note_on", "time": 7, "note": 63, "velocity": 100, "channel": 0}, {"type": "note_off", "time": 78, "note": 63, "velocity": 100, "channel": 0}, {"type": "note_on", "time": 3, "note": 65, "velocity": 107, "channel": 0}, {"type": "note_off", "time": 70, "note": 65, "velocity": 107, "channel": 0}, {"type": "note_on", "time": 19, "note": 67, "velocity": 99, "channel": 0}, {"type": "note_off", "time": 105, "note": 67, "velocity": 99, "channel": 0}, {"type": "note_on", "time": 10, "note": 69, "velocity": 102, "channel": 0}, {"type": "note_off", "time": 87, "note": 69, "velocity": 102, "channel": 0}, {"type": "note_on", "time": 1, "note": 74, "velocity": 106, "channel": 0}, {"type": "note_off", "time": 48, "note": 74, "velocity": 106, "channel": 0}, {"type": "note_on", "time": 2, "note": 71, "velocity": 110, "channel": 0}, {"type": "note_off", "time": 61, "note": 71, "velocity": 110, "channel": 0}, {"type": "note_on", "time": 485, "note": 66, "velocity": 111, "channel": 0}, {"type": "note_off", "time": 481, "note": 66, "velocity": 111, "channel": 0}, {"type": "note_on", "time": 7, "note": 68, "velocity": 112, "channel": 0}, {"type": "note_off", "time": 74, "note": 68, "velocity": 112, "channel": 0}, {"type": "note_on", "time": 4, "note": 70, "velocity": 113, "channel": 0}, {"type": "note_off", "time": 62, "note": 70, "velocity": 113, "channel": 0}, {"type": "note_on", "time": 124, "note": 65, "velocity": 106, "channel": 0}, {"type": "note_off", "time": 71, "note": 65, "velocity": 106, "channel": 0}, {"type": "note_on", "time": 108, "note": 65, "velocity": 114, "channel": 0}, {"type": "note_off", "time": 183, "note": 65, "velocity": 114, "channel": 0}, {"type": "note_on", "time": 21, "note": 65, "velocity": 114, "channel": 0}, {"type": "note_off", "time": 115, "note": 65, "velocity": 114, "channel": 0}, {"type": "note_on", "time": 2, "note": 67, "velocity": 98, "channel": 0}, {"type": "note_off", "time": 54, "note": 67, "velocity": 98, "channel": 0}, {"type": "note_on", "time": 5, "note": 69, "velocity": 114, "channel": 0}, {"type": "note_off", "time": 101, "note": 69, "velocity": 114, "channel": 0}, {"type": "note_on", "time": 7, "note": 64, "velocity": 107, "channel": 0}, {"type": "note_off", "time": 131, "note": 64, "velocity": 107, "channel": 0}, {"type": "note_on", "time": 86, "note": 64, "velocity": 115, "channel": 0}, {"type": "note_off", "time": 1182, "note": 64, "velocity": 115, "channel": 0}, {"type": "note_on", "time": 150, "note": 74, "velocity": 119, "channel": 0}, {"type": "note_off", "time": 107, "note": 74, "velocity": 119, "channel": 0}, {"type": "note_on", "time": 3, "note": 75, "velocity": 115, "channel": 0}, {"type": "note_off", "time": 41, "note": 75, "velocity": 115, "channel": 0}, {"type": "note_on", "time": 25, "note": 78, "velocity": 112, "channel": 0}, {"type": "note_off", "time": 75, "note": 78, "velocity": 112, "channel": 0}, {"type": "note_on", "time": 6, "note": 77, "velocity": 119, "channel": 0}, {"type": "note_off", "time": 101, "note": 77, "velocity": 119, "channel": 0}, {"type": "note_on", "time": 2, "note": 78, "velocity": 118, "channel": 0}, {"type": "note_off", "time": 96, "note": 78, "velocity": 118, "channel": 0}, {"type": "note_on", "time": 3, "note": 76, "velocity": 116, "channel": 0}, {"type": "note_off", "time": 109, "note": 76, "velocity": 116, "channel": 0}, {"type": "note_on", "time": 204, "note": 76, "velocity": 114, "channel": 0}, {"type": "note_off", "time": 95, "note": 76, "velocity": 114, "channel": 0}, {"type": "note_on", "time": 7, "note": 78, "velocity": 112, "channel": 0}, {"type": "note_off", "time": 66, "note": 78, "velocity": 112, "channel": 0}, {"type": "note_on", "time": 11, "note": 76, "velocity": 112, "channel": 0}, {"type": "note_off", "time": 95, "note": 76, "velocity": 112, "channel": 0}, {"type": "note_on", "time": 8, "note": 77, "velocity": 120, "channel": 0}, {"type": "note_off", "time": 81, "note": 77, "velocity": 120, "channel": 0}, {"type": "note_on", "time": 8, "note": 78, "velocity": 107, "channel": 0}, {"type": "note_off", "time": 73, "note": 78, "velocity": 107, "channel": 0}, {"type": "note_on", "time": 8, "note": 76, "velocity": 113, "channel": 0}, {"type": "note_off", "time": 47, "note": 76, "velocity": 113, "channel": 0}, {"type": "note_on", "time": 247, "note": 77, "velocity": 112, "channel": 0}, {"type": "note_off", "time": 96, "note": 77, "velocity": 112, "channel": 0}, {"type": "note_on", "time": 7, "note": 78, "velocity": 110, "channel": 0}, {"type": "note_off", "time": 61, "note": 78, "velocity": 110, "channel": 0}, {"type": "note_on", "time": 3, "note": 76, "velocity": 110, "channel": 0}, {"type": "note_off", "time": 81, "note": 76, "velocity": 110, "channel": 0}, {"type": "note_on", "time": 6, "note": 77, "velocity": 116, "channel": 0}, {"type": "note_off", "time": 92, "note": 77, "velocity": 116, "channel": 0}, {"type": "note_on", "time": 6, "note": 78, "velocity": 106, "channel": 0}, {"type": "note_off", "time": 68, "note": 78, "velocity": 106, "channel": 0}, {"type": "note_on", "time": 2, "note": 76, "velocity": 111, "channel": 0}, {"type": "note_off", "time": 82, "note": 76, "velocity": 111, "channel": 0}, {"type": "note_on", "time": 6, "note": 77, "velocity": 106, "channel": 0}, {"type": "note_off", "time": 89, "note": 77, "velocity": 106, "channel": 0}, {"type": "note_on", "time": 8, "note": 75, "velocity": 110, "channel": 0}, {"type": "note_off", "time": 89, "note": 75, "velocity": 110, "channel": 0}, {"type": "note_on", "time": 6, "note": 73, "velocity": 108, "channel": 0}, {"type": "note_off", "time": 87, "note": 73, "velocity": 108, "channel": 0}, {"type": "note_on", "time": 2, "note": 74, "velocity": 107, "channel": 0}, {"type": "note_off", "time": 86, "note": 74, "velocity": 107, "channel": 0}, {"type": "note_on", "time": 10, "note": 72, "velocity": 103, "channel": 0}, {"type": "note_off", "time": 53, "note": 72, "velocity": 103, "channel": 0}, {"type": "note_on", "time": 7, "note": 73, "velocity": 110, "channel": 0}, {"type": "note_off", "time": 123, "note": 73, "velocity": 110, "channel": 0}, {"type": "note_on", "time": 5, "note": 71, "velocity": 105, "channel": 0}, {"type": "note_off", "time": 81, "note": 71, "velocity": 105, "channel": 0}, {"type": "note_on", "time": 8, "note": 72, "velocity": 110, "channel": 0}, {"type": "note_off", "time": 93, "note": 72, "velocity": 110, "channel": 0}, {"type": "note_on", "time": 5, "note": 70, "velocity": 114, "channel": 0}, {"type": "note_off", "time": 84, "note": 70, "velocity": 114, "channel": 0}, {"type": "note_on", "time": 8, "note": 71, "velocity": 110, "channel": 0}, {"type": "note_off", "time": 86, "note": 71, "velocity": 110, "channel": 0}, {"type": "note_on", "time": 17, "note": 69, "velocity": 105, "channel": 0}, {"type": "note_off", "time": 73, "note": 69, "velocity": 105, "channel": 0}, {"type": "note_on", "time": 10, "note": 70, "velocity": 115, "channel": 0}, {"type": "note_off", "time": 96, "note": 70, "velocity": 115, "channel": 0}, {"type": "note_on", "time": 2, "note": 75, "velocity": 115, "channel": 0}, {"type": "note_off", "time": 92, "note": 75, "velocity": 115, "channel": 0}, {"type": "note_on", "time": 8, "note": 74, "velocity": 120, "channel": 0}, {"type": "note_off", "time": 90, "note": 74, "velocity": 120, "channel": 0}, {"type": "note_on", "time": 4, "note": 72, "velocity": 116, "channel": 0}, {"type": "note_off", "time": 88, "note": 72, "velocity": 116, "channel": 0}, {"type": "note_on", "time": 8, "note": 70, "velocity": 115, "channel": 0}, {"type": "note_off", "time": 75, "note": 70, "velocity": 115, "channel": 0}, {"type": "note_on", "time": 10, "note": 69, "velocity": 114, "channel": 0}, {"type": "note_off", "time": 73, "note": 69, "velocity": 114, "channel": 0}, {"type": "note_on", "time": 9, "note": 68, "velocity": 114, "channel": 0}, {"type": "note_off", "time": 97, "note": 68, "velocity": 114, "channel": 0}, {"type": "note_on", "time": 8, "note": 64, "velocity": 110, "channel": 0}, {"type": "note_off", "time": 73, "note": 64, "velocity": 110, "channel": 0}, {"type": "note_on", "time": 25, "note": 67, "velocity": 111, "channel": 0}, {"type": "note_off", "time": 83, "note": 67, "velocity": 111, "channel": 0}, {"type": "note_on", "time": 15, "note": 64, "velocity": 105, "channel": 0}, {"type": "note_off", "time": 83, "note": 64, "velocity": 105, "channel": 0}, {"type": "note_on", "time": 8, "note": 66, "velocity": 109, "channel": 0}, {"type": "note_off", "time": 75, "note": 66, "velocity": 109, "channel": 0}, {"type": "note_on", "time": 17, "note": 67, "velocity": 109, "channel": 0}, {"type": "note_off", "time": 72, "note": 67, "velocity": 109, "channel": 0}, {"type": "note_on", "time": 41, "note": 68, "velocity": 102, "channel": 0}, {"type": "note_off", "time": 54, "note": 68, "velocity": 102, "channel": 0}, {"type": "note_on", "time": 13, "note": 70, "velocity": 116, "channel": 0}, {"type": "note_off", "time": 94, "note": 70, "velocity": 116, "channel": 0}, {"type": "note_on", "time": 47, "note": 71, "velocity": 107, "channel": 0}, {"type": "note_off", "time": 47, "note": 71, "velocity": 107, "channel": 0}, {"type": "note_on", "time": 1, "note": 73, "velocity": 105, "channel": 0}, {"type": "note_off", "time": 92, "note": 73, "velocity": 105, "channel": 0}, {"type": "note_on", "time": 1118, "note": 73, "velocity": 119, "channel": 0}, {"type": "note_off", "time": 48, "note": 73, "velocity": 119, "channel": 0}, {"type": "note_on", "time": 6, "note": 74, "velocity": 123, "channel": 0}, {"type": "note_off", "time": 294, "note": 74, "velocity": 123, "channel": 0}, {"type": "note_on", "time": 6, "note": 73, "velocity": 114, "channel": 0}, {"type": "note_off", "time": 71, "note": 73, "velocity": 114, "channel": 0}, {"type": "note_on", "time": 7, "note": 72, "velocity": 116, "channel": 0}, {"type": "note_off", "time": 59, "note": 72, "velocity": 116, "channel": 0}, {"type": "note_on", "time": 7, "note": 73, "velocity": 117, "channel": 0}, {"type": "note_off", "time": 103, "note": 73, "velocity": 117, "channel": 0}, {"type": "note_on", "time": 0, "note": 72, "velocity": 115, "channel": 0}, {"type": "note_off", "time": 92, "note": 72, "velocity": 115, "channel": 0}, {"type": "note_on", "time": 2, "note": 73, "velocity": 119, "channel": 0}, {"type": "note_off", "time": 90, "note": 73, "velocity": 119, "channel": 0}, {"type": "note_on", "time": 5, "note": 72, "velocity": 116, "channel": 0}, {"type": "note_off", "time": 59, "note": 72, "velocity": 116, "channel": 0}, {"type": "note_on", "time": 0, "note": 73, "velocity": 114, "channel": 0}, {"type": "note_off", "time": 60, "note": 73, "velocity": 114, "channel": 0}, {"type": "note_on", "time": 4, "note": 72, "velocity": 118, "channel": 0}, {"type": "note_off", "time": 77, "note": 72, "velocity": 118, "channel": 0}, {"type": "note_on", "time": 4, "note": 73, "velocity": 115, "channel": 0}, {"type": "note_off", "time": 76, "note": 73, "velocity": 115, "channel": 0}, {"type": "note_on", "time": 3, "note": 72, "velocity": 118, "channel": 0}, {"type": "note_off", "time": 51, "note": 72, "velocity": 118, "channel": 0}, {"type": "note_on", "time": 3, "note": 73, "velocity": 115, "channel": 0}, {"type": "note_off", "time": 94, "note": 73, "velocity": 115, "channel": 0}, {"type": "note_on", "time": 2, "note": 72, "velocity": 117, "channel": 0}, {"type": "note_off", "time": 35, "note": 72, "velocity": 117, "channel": 0}, {"type": "note_on", "time": 3, "note": 73, "velocity": 116, "channel": 0}, {"type": "note_off", "time": 92, "note": 73, "velocity": 116, "channel": 0}, {"type": "note_on", "time": 2, "note": 72, "velocity": 117, "channel": 0}, {"type": "note_off", "time": 32, "note": 72, "velocity": 117, "channel": 0}, {"type": "note_on", "time": 3, "note": 73, "velocity": 116, "channel": 0}, {"type": "note_off", "time": 89, "note": 73, "velocity": 116, "channel": 0}, {"type": "note_on", "time": 5, "note": 72, "velocity": 117, "channel": 0}, {"type": "note_off", "time": 58, "note": 72, "velocity": 117, "channel": 0}, {"type": "note_on", "time": 6, "note": 73, "velocity": 114, "channel": 0}, {"type": "note_off", "time": 66, "note": 73, "velocity": 114, "channel": 0}, {"type": "note_on", "time": 4, "note": 72, "velocity": 117, "channel": 0}, {"type": "note_off", "time": 48, "note": 72, "velocity": 117, "channel": 0}, {"type": "note_on", "time": 8, "note": 73, "velocity": 114, "channel": 0}, {"type": "note_off", "time": 137, "note": 73, "velocity": 114, "channel": 0}, {"type": "note_on", "time": 8, "note": 71, "velocity": 105, "channel": 0}, {"type": "note_off", "time": 42, "note": 71, "velocity": 105, "channel": 0}, {"type": "note_on", "time": 10, "note": 72, "velocity": 115, "channel": 0}, {"type": "note_off", "time": 1428, "note": 72, "velocity": 115, "channel": 0}, {"type": "note_on", "time": 27, "note": 72, "velocity": 118, "channel": 0}, {"type": "note_off", "time": 269, "note": 72, "velocity": 118, "channel": 0}, {"type": "note_on", "time": 31, "note": 67, "velocity": 109, "channel": 0}, {"type": "note_off", "time": 62, "note": 67, "velocity": 109, "channel": 0}, {"type": "note_on", "time": 148, "note": 70, "velocity": 117, "channel": 0}, {"type": "note_off", "time": 798, "note": 70, "velocity": 117, "channel": 0}, {"type": "note_on", "time": 17, "note": 74, "velocity": 120, "channel": 0}, {"type": "note_off", "time": 292, "note": 74, "velocity": 120, "channel": 0}, {"type": "note_on", "time": 8, "note": 75, "velocity": 110, "channel": 0}, {"type": "note_off", "time": 52, "note": 75, "velocity": 110, "channel": 0}, {"type": "note_on", "time": 3, "note": 72, "velocity": 115, "channel": 0}, {"type": "note_off", "time": 153, "note": 72, "velocity": 115, "channel": 0}, {"type": "note_on", "time": 25, "note": 67, "velocity": 97, "channel": 0}, {"type": "note_off", "time": 88, "note": 67, "velocity": 97, "channel": 0}, {"type": "note_on", "time": 12, "note": 70, "velocity": 117, "channel": 0}, {"type": "note_off", "time": 146, "note": 70, "velocity": 117, "channel": 0}, {"type": "note_on", "time": 84, "note": 70, "velocity": 118, "channel": 0}, {"type": "note_off", "time": 489, "note": 70, "velocity": 118, "channel": 0}, {"type": "note_on", "time": 65, "note": 70, "velocity": 103, "channel": 0}, {"type": "note_off", "time": 92, "note": 70, "velocity": 103, "channel": 0}, {"type": "note_on", "time": 717, "note": 73, "velocity": 118, "channel": 0}, {"type": "note_off", "time": 189, "note": 73, "velocity": 118, "channel": 0}, {"type": "note_on", "time": 4, "note": 75, "velocity": 115, "channel": 0}, {"type": "note_off", "time": 107, "note": 75, "velocity": 115, "channel": 0}, {"type": "note_on", "time": 7, "note": 70, "velocity": 114, "channel": 0}, {"type": "note_off", "time": 224, "note": 70, "velocity": 114, "channel": 0}, {"type": "note_on", "time": 7, "note": 71, "velocity": 112, "channel": 0}, {"type": "note_off", "time": 47, "note": 71, "velocity": 112, "channel": 0}, {"type": "note_on", "time": 21, "note": 73, "velocity": 116, "channel": 0}, {"type": "note_off", "time": 158, "note": 73, "velocity": 116, "channel": 0}, {"type": "note_on", "time": 5, "note": 68, "velocity": 113, "channel": 0}, {"type": "note_off", "time": 206, "note": 68, "velocity": 113, "channel": 0}, {"type": "note_on", "time": 2, "note": 70, "velocity": 114, "channel": 0}, {"type": "note_off", "time": 102, "note": 70, "velocity": 114, "channel": 0}, {"type": "note_on", "time": 8, "note": 65, "velocity": 111, "channel": 0}, {"type": "note_off", "time": 94, "note": 65, "velocity": 111, "channel": 0}, {"type": "note_on", "time": 101, "note": 65, "velocity": 113, "channel": 0}, {"type": "note_off", "time": 256, "note": 65, "velocity": 113, "channel": 0}, {"type": "note_on", "time": 14, "note": 67, "velocity": 114, "channel": 0}, {"type": "note_off", "time": 1094, "note": 67, "velocity": 114, "channel": 0}, {"type": "note_on", "time": 37, "note": 65, "velocity": 102, "channel": 0}, {"type": "note_off", "time": 54, "note": 65, "velocity": 102, "channel": 0}, {"type": "note_on", "time": 47, "note": 66, "velocity": 107, "channel": 0}, {"type": "note_off", "time": 126, "note": 66, "velocity": 107, "channel": 0}, {"type": "note_on", "time": 8, "note": 67, "velocity": 102, "channel": 0}, {"type": "note_off", "time": 73, "note": 67, "velocity": 102, "channel": 0}, {"type": "note_on", "time": 25, "note": 69, "velocity": 102, "channel": 0}, {"type": "note_off", "time": 69, "note": 69, "velocity": 102, "channel": 0}, {"type": "note_on", "time": 33, "note": 66, "velocity": 105, "channel": 0}, {"type": "note_off", "time": 74, "note": 66, "velocity": 105, "channel": 0}, {"type": "note_on", "time": 25, "note": 68, "velocity": 104, "channel": 0}, {"type": "note_off", "time": 59, "note": 68, "velocity": 104, "channel": 0}, {"type": "note_on", "time": 698, "note": 65, "velocity": 122, "channel": 0}, {"type": "note_off", "time": 65, "note": 65, "velocity": 122, "channel": 0}, {"type": "note_on", "time": 12, "note": 67, "velocity": 106, "channel": 0}, {"type": "note_off", "time": 64, "note": 67, "velocity": 106, "channel": 0}, {"type": "note_on", "time": 4, "note": 69, "velocity": 113, "channel": 0}, {"type": "note_off", "time": 126, "note": 69, "velocity": 113, "channel": 0}, {"type": "note_on", "time": 2, "note": 65, "velocity": 110, "channel": 0}, {"type": "note_off", "time": 86, "note": 65, "velocity": 110, "channel": 0}, {"type": "note_on", "time": 8, "note": 67, "velocity": 110, "channel": 0}, {"type": "note_off", "time": 80, "note": 67, "velocity": 110, "channel": 0}, {"type": "note_on", "time": 6, "note": 65, "velocity": 111, "channel": 0}, {"type": "note_off", "time": 83, "note": 65, "velocity": 111, "channel": 0}, {"type": "note_on", "time": 8, "note": 62, "velocity": 103, "channel": 0}, {"type": "note_off", "time": 85, "note": 62, "velocity": 103, "channel": 0}, {"type": "note_on", "time": 60, "note": 61, "velocity": 99, "channel": 0}, {"type": "note_off", "time": 70, "note": 61, "velocity": 99, "channel": 0}, {"type": "note_on", "time": 157, "note": 65, "velocity": 122, "channel": 0}, {"type": "note_off", "time": 51, "note": 65, "velocity": 122, "channel": 0}, {"type": "note_on", "time": 185, "note": 65, "velocity": 114, "channel": 0}, {"type": "note_off", "time": 103, "note": 65, "velocity": 114, "channel": 0}, {"type": "note_on", "time": 626, "note": 74, "velocity": 105, "channel": 0}, {"type": "note_off", "time": 90, "note": 74, "velocity": 105, "channel": 0}, {"type": "note_on", "time": 107, "note": 77, "velocity": 116, "channel": 0}, {"type": "note_off", "time": 120, "note": 77, "velocity": 116, "channel": 0}, {"type": "note_on", "time": 281, "note": 70, "velocity": 101, "channel": 0}, {"type": "note_off", "time": 82, "note": 70, "velocity": 101, "channel": 0}, {"type": "note_on", "time": 136, "note": 75, "velocity": 115, "channel": 0}, {"type": "note_off", "time": 66, "note": 75, "velocity": 115, "channel": 0}, {"type": "note_on", "time": 3, "note": 74, "velocity": 116, "channel": 0}, {"type": "note_off", "time": 44, "note": 74, "velocity": 116, "channel": 0}, {"type": "note_on", "time": 10, "note": 75, "velocity": 109, "channel": 0}, {"type": "note_off", "time": 124, "note": 75, "velocity": 109, "channel": 0}, {"type": "note_on", "time": 38, "note": 68, "velocity": 103, "channel": 0}, {"type": "note_off", "time": 85, "note": 68, "velocity": 103, "channel": 0}, {"type": "note_on", "time": 114, "note": 74, "velocity": 116, "channel": 0}, {"type": "note_off", "time": 121, "note": 74, "velocity": 116, "channel": 0}, {"type": "note_on", "time": 143, "note": 67, "velocity": 102, "channel": 0}, {"type": "note_off", "time": 91, "note": 67, "velocity": 102, "channel": 0}, {"type": "note_on", "time": 116, "note": 72, "velocity": 114, "channel": 0}, {"type": "note_off", "time": 99, "note": 72, "velocity": 114, "channel": 0}, {"type": "note_on", "time": 102, "note": 67, "velocity": 112, "channel": 0}, {"type": "note_off", "time": 56, "note": 67, "velocity": 112, "channel": 0}, {"type": "note_on", "time": 135, "note": 70, "velocity": 115, "channel": 0}, {"type": "note_off", "time": 88, "note": 70, "velocity": 115, "channel": 0}, {"type": "note_on", "time": 1, "note": 67, "velocity": 107, "channel": 0}, {"type": "note_off", "time": 99, "note": 67, "velocity": 107, "channel": 0}, {"type": "note_on", "time": 2, "note": 69, "velocity": 112, "channel": 0}, {"type": "note_off", "time": 102, "note": 69, "velocity": 112, "channel": 0}, {"type": "note_on", "time": 265, "note": 73, "velocity": 112, "channel": 0}, {"type": "note_off", "time": 102, "note": 73, "velocity": 112, "channel": 0}, {"type": "note_on", "time": 6, "note": 71, "velocity": 111, "channel": 0}, {"type": "note_off", "time": 92, "note": 71, "velocity": 111, "channel": 0}, {"type": "note_on", "time": 4, "note": 68, "velocity": 95, "channel": 0}, {"type": "note_off", "time": 101, "note": 68, "velocity": 95, "channel": 0}, {"type": "note_on", "time": 24, "note": 64, "velocity": 102, "channel": 0}, {"type": "note_off", "time": 88, "note": 64, "velocity": 102, "channel": 0}, {"type": "note_on", "time": 6, "note": 65, "velocity": 101, "channel": 0}, {"type": "note_off", "time": 79, "note": 65, "velocity": 101, "channel": 0}, {"type": "note_on", "time": 249, "note": 72, "velocity": 113, "channel": 0}, {"type": "note_off", "time": 97, "note": 72, "velocity": 113, "channel": 0}, {"type": "note_on", "time": 7, "note": 69, "velocity": 107, "channel": 0}, {"type": "note_off", "time": 104, "note": 69, "velocity": 107, "channel": 0}, {"type": "note_on", "time": 3, "note": 70, "velocity": 112, "channel": 0}, {"type": "note_off", "time": 84, "note": 70, "velocity": 112, "channel": 0}, {"type": "note_on", "time": 4, "note": 72, "velocity": 115, "channel": 0}, {"type": "note_off", "time": 105, "note": 72, "velocity": 115, "channel": 0}, {"type": "note_on", "time": 11, "note": 73, "velocity": 116, "channel": 0}, {"type": "note_off", "time": 76, "note": 73, "velocity": 116, "channel": 0}, {"type": "note_on", "time": 2, "note": 74, "velocity": 113, "channel": 0}, {"type": "note_off", "time": 49, "note": 74, "velocity": 113, "channel": 0}, {"type": "note_on", "time": 1, "note": 75, "velocity": 113, "channel": 0}, {"type": "note_off", "time": 95, "note": 75, "velocity": 113, "channel": 0}, {"type": "note_on", "time": 13, "note": 76, "velocity": 116, "channel": 0}, {"type": "note_off", "time": 129, "note": 76, "velocity": 116, "channel": 0}, {"type": "note_on", "time": 3, "note": 77, "velocity": 102, "channel": 0}, {"type": "note_off", "time": 58, "note": 77, "velocity": 102, "channel": 0}, {"type": "note_on", "time": 2, "note": 74, "velocity": 111, "channel": 0}, {"type": "note_off", "time": 97, "note": 74, "velocity": 111, "channel": 0}, {"type": "note_on", "time": 7, "note": 75, "velocity": 108, "channel": 0}, {"type": "note_off", "time": 109, "note": 75, "velocity": 108, "channel": 0}, {"type": "note_on", "time": 4, "note": 73, "velocity": 104, "channel": 0}, {"type": "note_off", "time": 121, "note": 73, "velocity": 104, "channel": 0}, {"type": "note_on", "time": 71, "note": 77, "velocity": 107, "channel": 0}, {"type": "note_off", "time": 57, "note": 77, "velocity": 107, "channel": 0}, {"type": "note_on", "time": 27, "note": 73, "velocity": 107, "channel": 0}, {"type": "note_off", "time": 119, "note": 73, "velocity": 107, "channel": 0}, {"type": "note_on", "time": 3, "note": 71, "velocity": 98, "channel": 0}, {"type": "note_off", "time": 99, "note": 71, "velocity": 98, "channel": 0}, {"type": "note_on", "time": 6, "note": 72, "velocity": 98, "channel": 0}, {"type": "note_off", "time": 59, "note": 72, "velocity": 98, "channel": 0}, {"type": "note_on", "time": 685, "note": 74, "velocity": 117, "channel": 0}, {"type": "note_off", "time": 1693, "note": 74, "velocity": 117, "channel": 0}, {"type": "note_on", "time": 5, "note": 73, "velocity": 120, "channel": 0}, {"type": "note_off", "time": 47, "note": 73, "velocity": 120, "channel": 0}, {"type": "note_on", "time": 6, "note": 74, "velocity": 107, "channel": 0}, {"type": "note_off", "time": 26, "note": 74, "velocity": 107, "channel": 0}, {"type": "note_on", "time": 12, "note": 73, "velocity": 120, "channel": 0}, {"type": "note_off", "time": 72, "note": 73, "velocity": 120, "channel": 0}, {"type": "note_on", "time": 17, "note": 74, "velocity": 105, "channel": 0}, {"type": "note_off", "time": 49, "note": 74, "velocity": 105, "channel": 0}, {"type": "note_on", "time": 9, "note": 73, "velocity": 116, "channel": 0}, {"type": "note_off", "time": 159, "note": 73, "velocity": 116, "channel": 0}, {"type": "note_on", "time": 8, "note": 74, "velocity": 115, "channel": 0}, {"type": "note_off", "time": 30, "note": 74, "velocity": 115, "channel": 0}, {"type": "note_on", "time": 13, "note": 73, "velocity": 117, "channel": 0}, {"type": "note_off", "time": 73, "note": 73, "velocity": 117, "channel": 0}, {"type": "note_on", "time": 8, "note": 74, "velocity": 117, "channel": 0}, {"type": "note_off", "time": 47, "note": 74, "velocity": 117, "channel": 0}, {"type": "note_on", "time": 11, "note": 73, "velocity": 117, "channel": 0}, {"type": "note_off", "time": 65, "note": 73, "velocity": 117, "channel": 0}, {"type": "note_on", "time": 9, "note": 74, "velocity": 118, "channel": 0}, {"type": "note_off", "time": 39, "note": 74, "velocity": 118, "channel": 0}, {"type": "note_on", "time": 16, "note": 73, "velocity": 113, "channel": 0}, {"type": "note_off", "time": 60, "note": 73, "velocity": 113, "channel": 0}, {"type": "note_on", "time": 12, "note": 72, "velocity": 118, "channel": 0}, {"type": "note_off", "time": 78, "note": 72, "velocity": 118, "channel": 0}, {"type": "note_on", "time": 10, "note": 73, "velocity": 108, "channel": 0}, {"type": "note_off", "time": 27, "note": 73, "velocity": 108, "channel": 0}, {"type": "note_on", "time": 6, "note": 72, "velocity": 118, "channel": 0}, {"type": "note_off", "time": 70, "note": 72, "velocity": 118, "channel": 0}, {"type": "note_on", "time": 2, "note": 73, "velocity": 107, "channel": 0}, {"type": "note_off", "time": 23, "note": 73, "velocity": 107, "channel": 0}, {"type": "note_on", "time": 4, "note": 72, "velocity": 121, "channel": 0}, {"type": "note_off", "time": 83, "note": 72, "velocity": 121, "channel": 0}, {"type": "note_on", "time": 4, "note": 73, "velocity": 114, "channel": 0}, {"type": "note_off", "time": 47, "note": 73, "velocity": 114, "channel": 0}, {"type": "note_on", "time": 6, "note": 72, "velocity": 115, "channel": 0}, {"type": "note_off", "time": 73, "note": 72, "velocity": 115, "channel": 0}, {"type": "note_on", "time": 4, "note": 73, "velocity": 111, "channel": 0}, {"type": "note_off", "time": 30, "note": 73, "velocity": 111, "channel": 0}, {"type": "note_on", "time": 4, "note": 72, "velocity": 119, "channel": 0}, {"type": "note_off", "time": 153, "note": 72, "velocity": 119, "channel": 0}, {"type": "note_on", "time": 10, "note": 74, "velocity": 122, "channel": 0}, {"type": "note_off", "time": 243, "note": 74, "velocity": 122, "channel": 0}, {"type": "note_on", "time": 4, "note": 67, "velocity": 112, "channel": 0}, {"type": "note_off", "time": 85, "note": 67, "velocity": 112, "channel": 0}, {"type": "note_on", "time": 111, "note": 72, "velocity": 123, "channel": 0}, {"type": "note_off", "time": 792, "note": 72, "velocity": 123, "channel": 0}, {"type": "note_on", "time": 3, "note": 74, "velocity": 122, "channel": 0}, {"type": "note_on", "time": 243, "note": 67, "velocity": 119, "channel": 0}, {"type": "note_off", "time": 0, "note": 74, "velocity": 122, "channel": 0}, {"type": "note_off", "time": 303, "note": 67, "velocity": 119, "channel": 0}, {"type": "note_on", "time": 14, "note": 72, "velocity": 109, "channel": 0}, {"type": "note_off", "time": 84, "note": 72, "velocity": 109, "channel": 0}, {"type": "note_on", "time": 123, "note": 70, "velocity": 118, "channel": 0}, {"type": "note_off", "time": 129, "note": 70, "velocity": 118, "channel": 0}, {"type": "note_on", "time": 66, "note": 70, "velocity": 120, "channel": 0}, {"type": "note_off", "time": 549, "note": 70, "velocity": 120, "channel": 0}, {"type": "note_on", "time": 7, "note": 68, "velocity": 116, "channel": 0}, {"type": "note_off", "time": 66, "note": 68, "velocity": 116, "channel": 0}, {"type": "note_on", "time": 12, "note": 69, "velocity": 117, "channel": 0}, {"type": "note_off", "time": 86, "note": 69, "velocity": 117, "channel": 0}, {"type": "note_on", "time": 4, "note": 67, "velocity": 116, "channel": 0}, {"type": "note_off", "time": 51, "note": 67, "velocity": 116, "channel": 0}, {"type": "note_on", "time": 30, "note": 65, "velocity": 115, "channel": 0}, {"type": "note_off", "time": 84, "note": 65, "velocity": 115, "channel": 0}, {"type": "note_on", "time": 19, "note": 63, "velocity": 110, "channel": 0}, {"type": "note_off", "time": 98, "note": 63, "velocity": 110, "channel": 0}, {"type": "note_on", "time": 76, "note": 65, "velocity": 111, "channel": 0}, {"type": "note_off", "time": 91, "note": 65, "velocity": 111, "channel": 0}, {"type": "note_on", "time": 29, "note": 68, "velocity": 104, "channel": 0}, {"type": "note_off", "time": 42, "note": 68, "velocity": 104, "channel": 0}, {"type": "note_on", "time": 15, "note": 69, "velocity": 106, "channel": 0}, {"type": "note_off", "time": 25, "note": 69, "velocity": 106, "channel": 0}, {"type": "note_on", "time": 16, "note": 68, "velocity": 108, "channel": 0}, {"type": "note_off", "time": 50, "note": 68, "velocity": 108, "channel": 0}, {"type": "note_on", "time": 15, "note": 67, "velocity": 105, "channel": 0}, {"type": "note_off", "time": 107, "note": 67, "velocity": 105, "channel": 0}, {"type": "note_on", "time": 73, "note": 70, "velocity": 117, "channel": 0}, {"type": "note_off", "time": 88, "note": 70, "velocity": 117, "channel": 0}, {"type": "note_on", "time": 7, "note": 69, "velocity": 112, "channel": 0}, {"type": "note_off", "time": 83, "note": 69, "velocity": 112, "channel": 0}, {"type": "note_on", "time": 7, "note": 68, "velocity": 110, "channel": 0}, {"type": "note_off", "time": 79, "note": 68, "velocity": 110, "channel": 0}, {"type": "note_on", "time": 6, "note": 67, "velocity": 110, "channel": 0}, {"type": "note_off", "time": 109, "note": 67, "velocity": 110, "channel": 0}, {"type": "note_on", "time": 4, "note": 65, "velocity": 113, "channel": 0}, {"type": "note_off", "time": 93, "note": 65, "velocity": 113, "channel": 0}, {"type": "note_on", "time": 10, "note": 63, "velocity": 110, "channel": 0}, {"type": "note_off", "time": 105, "note": 63, "velocity": 110, "channel": 0}, {"type": "note_on", "time": 4, "note": 62, "velocity": 101, "channel": 0}, {"type": "note_off", "time": 49, "note": 62, "velocity": 101, "channel": 0}, {"type": "note_on", "time": 15, "note": 65, "velocity": 112, "channel": 0}, {"type": "note_off", "time": 114, "note": 65, "velocity": 112, "channel": 0}, {"type": "note_on", "time": 12, "note": 61, "velocity": 100, "channel": 0}, {"type": "note_off", "time": 78, "note": 61, "velocity": 100, "channel": 0}, {"type": "note_on", "time": 12, "note": 60, "velocity": 87, "channel": 0}, {"type": "note_off", "time": 53, "note": 60, "velocity": 87, "channel": 0}, {"type": "note_on", "time": 2050, "note": 74, "velocity": 118, "channel": 0}, {"type": "note_off", "time": 422, "note": 74, "velocity": 118, "channel": 0}, {"type": "note_on", "time": 6, "note": 75, "velocity": 120, "channel": 0}, {"type": "note_off", "time": 376, "note": 75, "velocity": 120, "channel": 0}, {"type": "note_on", "time": 2, "note": 76, "velocity": 117, "channel": 0}, {"type": "note_off", "time": 362, "note": 76, "velocity": 117, "channel": 0}, {"type": "note_on", "time": 3, "note": 77, "velocity": 115, "channel": 0}, {"type": "note_off", "time": 1290, "note": 77, "velocity": 115, "channel": 0}, {"type": "note_on", "time": 4, "note": 76, "velocity": 109, "channel": 0}, {"type": "note_off", "time": 77, "note": 76, "velocity": 109, "channel": 0}, {"type": "note_on", "time": 8, "note": 77, "velocity": 108, "channel": 0}, {"type": "note_off", "time": 98, "note": 77, "velocity": 108, "channel": 0}, {"type": "note_on", "time": 21, "note": 75, "velocity": 111, "channel": 0}, {"type": "note_off", "time": 53, "note": 75, "velocity": 111, "channel": 0}, {"type": "note_on", "time": 5, "note": 74, "velocity": 110, "channel": 0}, {"type": "note_off", "time": 30, "note": 74, "velocity": 110, "channel": 0}, {"type": "note_on", "time": 15, "note": 75, "velocity": 102, "channel": 0}, {"type": "note_off", "time": 1460, "note": 75, "velocity": 102, "channel": 0}, {"type": "note_on", "time": 70, "note": 71, "velocity": 101, "channel": 0}, {"type": "note_off", "time": 59, "note": 71, "velocity": 101, "channel": 0}, {"type": "note_on", "time": 23, "note": 74, "velocity": 110, "channel": 0}, {"type": "note_off", "time": 90, "note": 74, "velocity": 110, "channel": 0}, {"type": "note_on", "time": 5, "note": 73, "velocity": 98, "channel": 0}, {"type": "note_off", "time": 34, "note": 73, "velocity": 98, "channel": 0}, {"type": "note_on", "time": 1, "note": 71, "velocity": 111, "channel": 0}, {"type": "note_off", "time": 81, "note": 71, "velocity": 111, "channel": 0}, {"type": "note_on", "time": 6, "note": 72, "velocity": 112, "channel": 0}, {"type": "note_off", "time": 90, "note": 72, "velocity": 112, "channel": 0}, {"type": "note_on", "time": 4, "note": 70, "velocity": 111, "channel": 0}, {"type": "note_off", "time": 114, "note": 70, "velocity": 111, "channel": 0}, {"type": "note_on", "time": 4, "note": 69, "velocity": 100, "channel": 0}, {"type": "note_off", "time": 36, "note": 69, "velocity": 100, "channel": 0}, {"type": "note_on", "time": 3, "note": 67, "velocity": 108, "channel": 0}, {"type": "note_off", "time": 111, "note": 67, "velocity": 108, "channel": 0}, {"type": "note_on", "time": 6, "note": 65, "velocity": 104, "channel": 0}, {"type": "note_off", "time": 95, "note": 65, "velocity": 104, "channel": 0}, {"type": "note_on", "time": 13, "note": 64, "velocity": 109, "channel": 0}, {"type": "note_off", "time": 54, "note": 64, "velocity": 109, "channel": 0}, {"type": "note_on", "time": 8, "note": 63, "velocity": 104, "channel": 0}, {"type": "note_off", "time": 101, "note": 63, "velocity": 104, "channel": 0}, {"type": "note_on", "time": 14, "note": 65, "velocity": 109, "channel": 0}, {"type": "note_off", "time": 68, "note": 65, "velocity": 109, "channel": 0}, {"type": "note_on", "time": 17, "note": 67, "velocity": 102, "channel": 0}, {"type": "note_off", "time": 68, "note": 67, "velocity": 102, "channel": 0}, {"type": "note_on", "time": 8, "note": 69, "velocity": 97, "channel": 0}, {"type": "note_off", "time": 75, "note": 69, "velocity": 97, "channel": 0}, {"type": "note_on", "time": 21, "note": 70, "velocity": 113, "channel": 0}, {"type": "note_off", "time": 96, "note": 70, "velocity": 113, "channel": 0}, {"type": "note_on", "time": 6, "note": 68, "velocity": 104, "channel": 0}, {"type": "note_off", "time": 57, "note": 68, "velocity": 104, "channel": 0}, {"type": "note_on", "time": 36, "note": 70, "velocity": 112, "channel": 0}, {"type": "note_off", "time": 90, "note": 70, "velocity": 112, "channel": 0}, {"type": "note_on", "time": 8, "note": 69, "velocity": 108, "channel": 0}, {"type": "note_off", "time": 73, "note": 69, "velocity": 108, "channel": 0}, {"type": "note_on", "time": 15, "note": 68, "velocity": 106, "channel": 0}, {"type": "note_off", "time": 79, "note": 68, "velocity": 106, "channel": 0}, {"type": "note_on", "time": 15, "note": 67, "velocity": 110, "channel": 0}, {"type": "note_off", "time": 92, "note": 67, "velocity": 110, "channel": 0}, {"type": "note_on", "time": 11, "note": 65, "velocity": 111, "channel": 0}, {"type": "note_off", "time": 86, "note": 65, "velocity": 111, "channel": 0}, {"type": "note_on", "time": 20, "note": 63, "velocity": 106, "channel": 0}, {"type": "note_off", "time": 81, "note": 63, "velocity": 106, "channel": 0}, {"type": "note_on", "time": 16, "note": 61, "velocity": 99, "channel": 0}, {"type": "note_off", "time": 158, "note": 61, "velocity": 99, "channel": 0}, {"type": "note_on", "time": 60, "note": 60, "velocity": 103, "channel": 0}, {"type": "note_off", "time": 43, "note": 60, "velocity": 103, "channel": 0}, {"type": "note_on", "time": 2, "note": 58, "velocity": 102, "channel": 0}, {"type": "note_off", "time": 84, "note": 58, "velocity": 102, "channel": 0}, {"type": "note_on", "time": 21, "note": 56, "velocity": 105, "channel": 0}, {"type": "note_off", "time": 57, "note": 56, "velocity": 105, "channel": 0}, {"type": "note_on", "time": 13, "note": 58, "velocity": 98, "channel": 0}, {"type": "note_off", "time": 51, "note": 58, "velocity": 98, "channel": 0}, {"type": "note_on", "time": 30, "note": 60, "velocity": 103, "channel": 0}, {"type": "note_off", "time": 158, "note": 60, "velocity": 103, "channel": 0}, {"type": "note_on", "time": 29, "note": 67, "velocity": 119, "channel": 0}, {"type": "note_off", "time": 120, "note": 67, "velocity": 119, "channel": 0}, {"type": "note_on", "time": 9, "note": 64, "velocity": 105, "channel": 0}, {"type": "note_off", "time": 99, "note": 64, "velocity": 105, "channel": 0}, {"type": "note_on", "time": 7, "note": 65, "velocity": 110, "channel": 0}, {"type": "note_off", "time": 72, "note": 65, "velocity": 110, "channel": 0}, {"type": "note_on", "time": 3, "note": 67, "velocity": 111, "channel": 0}, {"type": "note_off", "time": 89, "note": 67, "velocity": 111, "channel": 0}, {"type": "note_on", "time": 4, "note": 68, "velocity": 110, "channel": 0}, {"type": "note_off", "time": 90, "note": 68, "velocity": 110, "channel": 0}, {"type": "note_on", "time": 2, "note": 69, "velocity": 106, "channel": 0}, {"type": "note_off", "time": 43, "note": 69, "velocity": 106, "channel": 0}, {"type": "note_on", "time": 5, "note": 74, "velocity": 117, "channel": 0}, {"type": "note_off", "time": 141, "note": 74, "velocity": 117, "channel": 0}, {"type": "note_on", "time": 3, "note": 71, "velocity": 114, "channel": 0}, {"type": "note_off", "time": 74, "note": 71, "velocity": 114, "channel": 0}, {"type": "note_on", "time": 6, "note": 72, "velocity": 116, "channel": 0}, {"type": "note_off", "time": 83, "note": 72, "velocity": 116, "channel": 0}, {"type": "note_on", "time": 12, "note": 70, "velocity": 113, "channel": 0}, {"type": "note_off", "time": 100, "note": 70, "velocity": 113, "channel": 0}, {"type": "note_on", "time": 14, "note": 67, "velocity": 101, "channel": 0}, {"type": "note_off", "time": 45, "note": 67, "velocity": 101, "channel": 0}, {"type": "note_on", "time": 14, "note": 68, "velocity": 100, "channel": 0}, {"type": "note_off", "time": 46, "note": 68, "velocity": 100, "channel": 0}, {"type": "note_on", "time": 18, "note": 69, "velocity": 107, "channel": 0}, {"type": "note_off", "time": 128, "note": 69, "velocity": 107, "channel": 0}, {"type": "note_on", "time": 5, "note": 70, "velocity": 109, "channel": 0}, {"type": "note_off", "time": 87, "note": 70, "velocity": 109, "channel": 0}, {"type": "note_on", "time": 5, "note": 69, "velocity": 107, "channel": 0}, {"type": "note_off", "time": 81, "note": 69, "velocity": 107, "channel": 0}, {"type": "note_on", "time": 8, "note": 67, "velocity": 110, "channel": 0}, {"type": "note_off", "time": 80, "note": 67, "velocity": 110, "channel": 0}, {"type": "note_on", "time": 12, "note": 66, "velocity": 101, "channel": 0}, {"type": "note_off", "time": 93, "note": 66, "velocity": 101, "channel": 0}, {"type": "note_on", "time": 17, "note": 63, "velocity": 95, "channel": 0}, {"type": "note_off", "time": 105, "note": 63, "velocity": 95, "channel": 0}, {"type": "note_on", "time": 45, "note": 64, "velocity": 91, "channel": 0}, {"type": "note_off", "time": 56, "note": 64, "velocity": 91, "channel": 0}, {"type": "note_on", "time": 4, "note": 66, "velocity": 96, "channel": 0}, {"type": "note_off", "time": 36, "note": 66, "velocity": 96, "channel": 0}, {"type": "note_on", "time": 7, "note": 69, "velocity": 112, "channel": 0}, {"type": "note_off", "time": 107, "note": 69, "velocity": 112, "channel": 0}, {"type": "note_on", "time": 8, "note": 66, "velocity": 109, "channel": 0}, {"type": "note_off", "time": 64, "note": 66, "velocity": 109, "channel": 0}, {"type": "note_on", "time": 27, "note": 67, "velocity": 96, "channel": 0}, {"type": "note_off", "time": 66, "note": 67, "velocity": 96, "channel": 0}, {"type": "note_on", "time": 19, "note": 69, "velocity": 100, "channel": 0}, {"type": "note_off", "time": 116, "note": 69, "velocity": 100, "channel": 0}, {"type": "note_on", "time": 6, "note": 70, "velocity": 114, "channel": 0}, {"type": "note_off", "time": 73, "note": 70, "velocity": 114, "channel": 0}, {"type": "note_on", "time": 5, "note": 72, "velocity": 109, "channel": 0}, {"type": "note_off", "time": 81, "note": 72, "velocity": 109, "channel": 0}, {"type": "note_on", "time": 6, "note": 74, "velocity": 115, "channel": 0}, {"type": "note_off", "time": 48, "note": 74, "velocity": 115, "channel": 0}, {"type": "note_on", "time": 4, "note": 72, "velocity": 114, "channel": 0}, {"type": "note_off", "time": 37, "note": 72, "velocity": 114, "channel": 0}, {"type": "note_on", "time": 3, "note": 74, "velocity": 114, "channel": 0}, {"type": "note_off", "time": 60, "note": 74, "velocity": 114, "channel": 0}, {"type": "note_on", "time": 721, "note": 73, "velocity": 120, "channel": 0}, {"type": "note_off", "time": 126, "note": 73, "velocity": 120, "channel": 0}, {"type": "note_on", "time": 3, "note": 72, "velocity": 117, "channel": 0}, {"type": "note_off", "time": 79, "note": 72, "velocity": 117, "channel": 0}, {"type": "note_on", "time": 3, "note": 70, "velocity": 121, "channel": 0}, {"type": "note_off", "time": 97, "note": 70, "velocity": 121, "channel": 0}, {"type": "note_on", "time": 5, "note": 69, "velocity": 115, "channel": 0}, {"type": "note_off", "time": 87, "note": 69, "velocity": 115, "channel": 0}, {"type": "note_on", "time": 3, "note": 67, "velocity": 112, "channel": 0}, {"type": "note_off", "time": 78, "note": 67, "velocity": 112, "channel": 0}, {"type": "note_on", "time": 6, "note": 65, "velocity": 123, "channel": 0}, {"type": "note_off", "time": 93, "note": 65, "velocity": 123, "channel": 0}, {"type": "note_on", "time": 22, "note": 61, "velocity": 105, "channel": 0}, {"type": "note_off", "time": 62, "note": 61, "velocity": 105, "channel": 0}, {"type": "note_on", "time": 22, "note": 60, "velocity": 103, "channel": 0}, {"type": "note_off", "time": 83, "note": 60, "velocity": 103, "channel": 0}, {"type": "note_on", "time": 28, "note": 58, "velocity": 100, "channel": 0}, {"type": "note_off", "time": 78, "note": 58, "velocity": 100, "channel": 0}, {"type": "note_on", "time": 51, "note": 61, "velocity": 94, "channel": 0}, {"type": "note_off", "time": 163, "note": 61, "velocity": 94, "channel": 0}, {"type": "note_on", "time": 66, "note": 65, "velocity": 119, "channel": 0}, {"type": "note_off", "time": 93, "note": 65, "velocity": 119, "channel": 0}, {"type": "note_on", "time": 6, "note": 67, "velocity": 122, "channel": 0}, {"type": "note_off", "time": 105, "note": 67, "velocity": 122, "channel": 0}, {"type": "end_of_track", "time": 0}]]}