{"ticks_per_beat": 192, "tracks": [[{"type": "track_name", "name": "Melody", "time": 0}, {"type": "set_tempo", "tempo": 324324, "time": 0}, {"type": "key_signature", "key": "Ab", "time": 0}, {"type": "time_signature", "numerator": 4, "denominator": 4, "clocks_per_click": 24, "notated_32nd_notes_per_beat": 8, "time": 0}, {"type": "note_on", "time": 1763, "note": 63, "velocity": 98, "channel": 0}, {"type": "note_off", "time": 640, "note": 63, "velocity": 98, "channel": 0}, {"type": "note_on", "time": 8, "note": 68, "velocity": 122, "channel": 0}, {"type": "note_off", "time": 73, "note": 68, "velocity": 122, "channel": 0}, {"type": "note_on", "time": 169, "note": 63, "velocity": 112, "channel": 0}, {"type": "note_off", "time": 96, "note": 63, "velocity": 112, "channel": 0}, {"type": "note_on", "time": 85, "note": 60, "velocity": 110, "channel": 0}, {"type": "note_off", "time": 103, "note": 60, "velocity": 110, "channel": 0}, {"type": "note_on", "time": 92, "note": 65, "velocity": 117, "channel": 0}, {"type": "note_off", "time": 82, "note": 65, "velocity": 117, "channel": 0}, {"type": "note_on", "time": 42, "note": 63, "velocity": 116, "channel": 0}, {"type": "note_off", "time": 79, "note": 63, "velocity": 116, "channel": 0}, {"type": "note_on", "time": 104, "note": 60, "velocity": 113, "channel": 0}, {"type": "note_off", "time": 66, "note": 60, "velocity": 113, "channel": 0}, {"type": "note_on", "time": 20, "note": 56, "velocity": 113, "channel": 0}, {"type": "note_off", "time": 85, "note": 56, "velocity": 113, "channel": 0}, {"type": "note_on", "time": 112, "note": 51, "velocity": 105, "channel": 0}, {"type": "note_off", "time": 89, "note": 51, "velocity": 105, "channel": 0}, {"type": "note_on", "time": 89, "note": 61, "velocity": 111, "channel": 0}, {"type": "note_off", "time": 89, "note": 61, "velocity": 111, "channel": 0}, {"type": "note_on", "time": 17, "note": 58, "velocity": 105, "channel": 0}, {"type": "note_off", "time": 92, "note": 58, "velocity": 105, "channel": 0}, {"type": "note_on", "time": 360, "note": 51, "velocity": 106, "channel": 0}, {"type": "note_off", "time": 99, "note": 51, "velocity": 106, "channel": 0}, {"type": "note_on", "time": 37, "note": 53, "velocity": 115, "channel": 0}, {"type": "note_off", "time": 68, "note": 53, "velocity": 115, "channel": 0}, {"type": "note_on", "time": 100, "note": 54, "velocity": 105, "channel": 0}, {"type": "note_off", "time": 72, "note": 54, "velocity": 105, "channel": 0}, {"type": "note_on", "time": 11, "note": 55, "velocity": 108, "channel": 0}, {"type": "note_off", "time": 83, "note": 55, "velocity": 108, "channel": 0}, {"type": "note_on", "time": 107, "note": 61, "velocity": 116, "channel": 0}, {"type": "note_off", "time": 88, "note": 61, "velocity": 116, "channel": 0}, {"type": "note_on", "time": 32, "note": 60, "velocity": 114, "channel": 0}, {"type": "note_off", "time": 89, "note": 60, "velocity": 114, "channel": 0}, {"type": "note_on", "time": 100, "note": 58, "velocity": 107, "channel": 0}, {"type": "note_off", "time": 79, "note": 58, "velocity": 107, "channel": 0}, {"type": "note_on", "time": 311, "note": 63, "velocity": 103, "channel": 0}, {"type": "note_off", "time": 58, "note": 63, "velocity": 103, "channel": 0}, {"type": "note_on", "time": 0, "note": 60, "velocity": 107, "channel": 0}, {"type": "note_off", "time": 61, "note": 60, "velocity": 107, "channel": 0}, {"type": "note_on", "time": 79, "note": 56, "velocity": 96, "channel": 0}, {"type": "note_off", "time": 51, "note": 56, "velocity": 96, "channel": 0}, {"type": "note_on", "time": 8, "note": 63, "velocity": 114, "channel": 0}, {"type": "note_off", "time": 63, "note": 63, "velocity": 114, "channel": 0}, {"type": "note_on", "time": 63, "note": 60, "velocity": 85, "channel": 0}, {"type": "note_off", "time": 51, "note": 60, "velocity": 85, "channel": 0}, {"type": "note_on", "time": 145, "note": 63, "velocity": 111, "channel": 0}, {"type": "note_off", "time": 43, "note": 63, "velocity": 111, "channel": 0}, {"type": "note_on", "time": 12, "note": 60, "velocity": 109, "channel": 0}, {"type": "note_off", "time": 54, "note": 60, "velocity": 109, "channel": 0}, {"type": "note_on", "time": 82, "note": 56, "velocity": 92, "channel": 0}, {"type": "note_off", "time": 33, "note": 56, "velocity": 92, "channel": 0}, {"type": "note_on", "time": 27, "note": 63, "velocity": 111, "channel": 0}, {"type": "note_off", "time": 54, "note": 63, "velocity": 111, "channel": 0}, {"type": "note_on", "time": 63, "note": 60, "velocity": 99, "channel": 0}, {"type": "note_off", "time": 54, "note": 60, "velocity": 99, "channel": 0}, {"type": "note_on", "time": 9, "note": 56, "velocity": 110, "channel": 0}, {"type": "note_off", "time": 36, "note": 56, "velocity": 110, "channel": 0}, {"type": "note_on", "time": 335, "note": 65, "velocity": 121, "channel": 0}, {"type": "note_off", "time": 82, "note": 65, "velocity": 121, "channel": 0}, {"type": "note_on", "time": 215, "note": 66, "velocity": 119, "channel": 0}, {"type": "note_off", "time": 65, "note": 66, "velocity": 119, "channel": 0}, {"type": "note_on", "time": 390, "note": 67, "velocity": 115, "channel": 0}, {"type": "note_off", "time": 65, "note": 67, "velocity": 115, "channel": 0}, {"type": "note_on", "time": 257, "note": 63, "velocity": 101, "channel": 0}, {"type": "note_off", "time": 448, "note": 63, "velocity": 101, "channel": 0}, {"type": "note_on", "time": 14, "note": 68, "velocity": 127, "channel": 0}, {"type": "note_off", "time": 74, "note": 68, "velocity": 127, "channel": 0}, {"type": "note_on", "time": 112, "note": 63, "velocity": 118, "channel": 0}, {"type": "note_off", "time": 88, "note": 63, "velocity": 118, "channel": 0}, {"type": "note_on", "time": 97, "note": 60, "velocity": 116, "channel": 0}, {"type": "note_off", "time": 96, "note": 60, "velocity": 116, "channel": 0}, {"type": "note_on", "time": 97, "note": 65, "velocity": 119, "channel": 0}, {"type": "note_off", "time": 82, "note": 65, "velocity": 119, "channel": 0}, {"type": "note_on", "time": 26, "note": 63, "velocity": 115, "channel": 0}, {"type": "note_off", "time": 68, "note": 63, "velocity": 115, "channel": 0}, {"type": "note_on", "time": 112, "note": 60, "velocity": 110, "channel": 0}, {"type": "note_off", "time": 58, "note": 60, "velocity": 110, "channel": 0}, {"type": "note_on", "time": 15, "note": 56, "velocity": 112, "channel": 0}, {"type": "note_off", "time": 109, "note": 56, "velocity": 112, "channel": 0}, {"type": "note_on", "time": 87, "note": 51, "velocity": 109, "channel": 0}, {"type": "note_off", "time": 200, "note": 51, "velocity": 109, "channel": 0}, {"type": "note_on", "time": 25, "note": 52, "velocity": 105, "channel": 0}, {"type": "note_off", "time": 87, "note": 52, "velocity": 105, "channel": 0}, {"type": "note_on", "time": 14, "note": 53, "velocity": 109, "channel": 0}, {"type": "note_off", "time": 123, "note": 53, "velocity": 109, "channel": 0}, {"type": "note_on", "time": 317, "note": 61, "velocity": 111, "channel": 0}, {"type": "note_off", "time": 199, "note": 61, "velocity": 111, "channel": 0}, {"type": "note_on", "time": 274, "note": 51, "velocity": 81, "channel": 0}, {"type": "note_off", "time": 65, "note": 51, "velocity": 81, "channel": 0}, {"type": "note_on", "time": 34, "note": 56, "velocity": 105, "channel": 0}, {"type": "note_off", "time": 92, "note": 56, "velocity": 105, "channel": 0}, {"type": "note_on", "time": 16, "note": 60, "velocity": 103, "channel": 0}, {"type": "note_off", "time": 92, "note": 60, "velocity": 103, "channel": 0}, {"type": "note_on", "time": 165, "note": 63, "velocity": 106, "channel": 0}, {"type": "note_off", "time": 123, "note": 63, "velocity": 106, "channel": 0}, {"type": "note_on", "time": 44, "note": 62, "velocity": 103, "channel": 0}, {"type": "note_off", "time": 127, "note": 62, "velocity": 103, "channel": 0}, {"type": "note_on", "time": 274, "note": 61, "velocity": 95, "channel": 0}, {"type": "note_off", "time": 256, "note": 61, "velocity": 95, "channel": 0}, {"type": "note_on", "time": 13, "note": 60, "velocity": 92, "channel": 0}, {"type": "note_off", "time": 95, "note": 60, "velocity": 92, "channel": 0}, {"type": "note_on", "time": 14, "note": 60, "velocity": 94, "channel": 0}, {"type": "note_off", "time": 117, "note": 60, "velocity": 94, "channel": 0}, {"type": "end_of_track", "time": 0}]]}