{"ticks_per_beat": 192, "tracks": [[{"type": "track_name", "name": "Melody", "time": 0}, {"type": "set_tempo", "tempo": 431654, "time": 0}, {"type": "key_signature", "key": "Eb", "time": 0}, {"type": "time_signature", "numerator": 4, "denominator": 4, "clocks_per_click": 24, "notated_32nd_notes_per_beat": 8, "time": 0}, {"type": "note_on", "time": 5079, "note": 72, "velocity": 115, "channel": 0}, {"type": "note_off", "time": 98, "note": 72, "velocity": 115, "channel": 0}, {"type": "note_on", "time": 87, "note": 72, "velocity": 115, "channel": 0}, {"type": "note_off", "time": 88, "note": 72, "velocity": 115, "channel": 0}, {"type": "note_on", "time": 92, "note": 70, "velocity": 119, "channel": 0}, {"type": "note_off", "time": 134, "note": 70, "velocity": 119, "channel": 0}, {"type": "note_on", "time": 5, "note": 68, "velocity": 93, "channel": 0}, {"type": "note_off", "time": 297, "note": 68, "velocity": 93, "channel": 0}, {"type": "note_on", "time": 499, "note": 72, "velocity": 117, "channel": 0}, {"type": "note_off", "time": 119, "note": 72, "velocity": 117, "channel": 0}, {"type": "note_on", "time": 9, "note": 71, "velocity": 107, "channel": 0}, {"type": "note_off", "time": 38, "note": 71, "velocity": 107, "channel": 0}, {"type": "note_on", "time": 27, "note": 72, "velocity": 112, "channel": 0}, {"type": "note_off", "time": 110, "note": 72, "velocity": 112, "channel": 0}, {"type": "note_on", "time": 9, "note": 67, "velocity": 100, "channel": 0}, {"type": "note_off", "time": 49, "note": 67, "velocity": 100, "channel": 0}, {"type": "note_on", "time": 9, "note": 70, "velocity": 120, "channel": 0}, {"type": "note_off", "time": 122, "note": 70, "velocity": 120, "channel": 0}, {"type": "note_on", "time": 11, "note": 70, "velocity": 121, "channel": 0}, {"type": "note_off", "time": 87, "note": 70, "velocity": 121, "channel": 0}, {"type": "note_on", "time": 83, "note": 68, "velocity": 121, "channel": 0}, {"type": "note_off", "time": 285, "note": 68, "velocity": 121, "channel": 0}, {"type": "note_on", "time": 142, "note": 72, "velocity": 106, "channel": 0}, {"type": "note_off", "time": 128, "note": 72, "velocity": 106, "channel": 0}, {"type": "note_on", "time": 4, "note": 70, "velocity": 113, "channel": 0}, {"type": "note_off", "time": 222, "note": 70, "velocity": 113, "channel": 0}, {"type": "note_on", "time": 29, "note": 73, "velocity": 106, "channel": 0}, {"type": "note_off", "time": 121, "note": 73, "velocity": 106, "channel": 0}, {"type": "note_on", "time": 5, "note": 72, "velocity": 96, "channel": 0}, {"type": "note_off", "time": 255, "note": 72, "velocity": 96, "channel": 0}, {"type": "note_on", "time": 8, "note": 76, "velocity": 109, "channel": 0}, {"type": "note_off", "time": 90, "note": 76, "velocity": 109, "channel": 0}, {"type": "note_on", "time": 11, "note": 79, "velocity": 122, "channel": 0}, {"type": "note_off", "time": 81, "note": 79, "velocity": 122, "channel": 0}, {"type": "note_on", "time": 4, "note": 77, "velocity": 111, "channel": 0}, {"type": "note_off", "time": 96, "note": 77, "velocity": 111, "channel": 0}, {"type": "note_on", "time": 11, "note": 72, "velocity": 92, "channel": 0}, {"type": "note_off", "time": 219, "note": 72, "velocity": 92, "channel": 0}, {"type": "note_on", "time": 34, "note": 68, "velocity": 114, "channel": 0}, {"type": "note_off", "time": 96, "note": 68, "velocity": 114, "channel": 0}, {"type": "note_on", "time": 9, "note": 67, "velocity": 123, "channel": 0}, {"type": "note_off", "time": 76, "note": 67, "velocity": 123, "channel": 0}, {"type": "note_on", "time": 5, "note": 65, "velocity": 109, "channel": 0}, {"type": "note_off", "time": 94, "note": 65, "velocity": 109, "channel": 0}, {"type": "note_on", "time": 3, "note": 63, "velocity": 100, "channel": 0}, {"type": "note_off", "time": 74, "note": 63, "velocity": 100, "channel": 0}, {"type": "note_on", "time": 2, "note": 62, "velocity": 101, "channel": 0}, {"type": "note_off", "time": 91, "note": 62, "velocity": 101, "channel": 0}, {"type": "note_on", "time": 18, "note": 60, "velocity": 100, "channel": 0}, {"type": "note_off", "time": 71, "note": 60, "velocity": 100, "channel": 0}, {"type": "note_on", "time": 32, "note": 61, "velocity": 90, "channel": 0}, {"type": "note_off", "time": 36, "note": 61, "velocity": 90, "channel": 0}, {"type": "note_on", "time": 5, "note": 64, "velocity": 87, "channel": 0}, {"type": "note_off", "time": 33, "note": 64, "velocity": 87, "channel": 0}, {"type": "note_on", "time": 4, "note": 67, "velocity": 125, "channel": 0}, {"type": "note_off", "time": 61, "note": 67, "velocity": 125, "channel": 0}, {"type": "note_on", "time": 3, "note": 69, "velocity": 126, "channel": 0}, {"type": "note_off", "time": 85, "note": 69, "velocity": 126, "channel": 0}, {"type": "note_on", "time": 12, "note": 70, "velocity": 125, "channel": 0}, {"type": "note_off", "time": 68, "note": 70, "velocity": 125, "channel": 0}, {"type": "note_on", "time": 10, "note": 72, "velocity": 113, "channel": 0}, {"type": "note_off", "time": 82, "note": 72, "velocity": 113, "channel": 0}, {"type": "note_on", "time": 25, "note": 74, "velocity": 113, "channel": 0}, {"type": "note_off", "time": 223, "note": 74, "velocity": 113, "channel": 0}, {"type": "note_on", "time": 25, "note": 72, "velocity": 102, "channel": 0}, {"type": "note_off", "time": 101, "note": 72, "velocity": 102, "channel": 0}, {"type": "note_on", "time": 4, "note": 65, "velocity": 92, "channel": 0}, {"type": "note_off", "time": 234, "note": 65, "velocity": 92, "channel": 0}, {"type": "note_on", "time": 316, "note": 70, "velocity": 120, "channel": 0}, {"type": "note_off", "time": 67, "note": 70, "velocity": 120, "channel": 0}, {"type": "note_on", "time": 12, "note": 69, "velocity": 107, "channel": 0}, {"type": "note_off", "time": 78, "note": 69, "velocity": 107, "channel": 0}, {"type": "note_on", "time": 16, "note": 68, "velocity": 120, "channel": 0}, {"type": "note_off", "time": 80, "note": 68, "velocity": 120, "channel": 0}, {"type": "note_on", "time": 1, "note": 66, "velocity": 90, "channel": 0}, {"type": "note_off", "time": 108, "note": 66, "velocity": 90, "channel": 0}, {"type": "note_on", "time": 5, "note": 67, "velocity": 121, "channel": 0}, {"type": "note_off", "time": 65, "note": 67, "velocity": 121, "channel": 0}, {"type": "note_on", "time": 3, "note": 72, "velocity": 111, "channel": 0}, {"type": "note_off", "time": 103, "note": 72, "velocity": 111, "channel": 0}, {"type": "note_on", "time": 0, "note": 70, "velocity": 118, "channel": 0}, {"type": "note_off", "time": 81, "note": 70, "velocity": 118, "channel": 0}, {"type": "note_on", "time": 4, "note": 67, "velocity": 124, "channel": 0}, {"type": "note_off", "time": 118, "note": 67, "velocity": 124, "channel": 0}, {"type": "note_on", "time": 3, "note": 63, "velocity": 89, "channel": 0}, {"type": "note_off", "time": 42, "note": 63, "velocity": 89, "channel": 0}, {"type": "note_on", "time": 22, "note": 65, "velocity": 113, "channel": 0}, {"type": "note_off", "time": 98, "note": 65, "velocity": 113, "channel": 0}, {"type": "note_on", "time": 5, "note": 66, "velocity": 115, "channel": 0}, {"type": "note_off", "time": 72, "note": 66, "velocity": 115, "channel": 0}, {"type": "note_on", "time": 4, "note": 67, "velocity": 123, "channel": 0}, {"type": "note_off", "time": 102, "note": 67, "velocity": 123, "channel": 0}, {"type": "note_on", "time": 14, "note": 63, "velocity": 85, "channel": 0}, {"type": "note_off", "time": 45, "note": 63, "velocity": 85, "channel": 0}, {"type": "note_on", "time": 23, "note": 65, "velocity": 93, "channel": 0}, {"type": "note_off", "time": 88, "note": 65, "velocity": 93, "channel": 0}, {"type": "note_on", "time": 7, "note": 67, "velocity": 127, "channel": 0}, {"type": "note_off", "time": 80, "note": 67, "velocity": 127, "channel": 0}, {"type": "note_on", "time": 8, "note": 68, "velocity": 121, "channel": 0}, {"type": "note_off", "time": 85, "note": 68, "velocity": 121, "channel": 0}, {"type": "note_on", "time": 12, "note": 68, "velocity": 125, "channel": 0}, {"type": "note_off", "time": 78, "note": 68, "velocity": 125, "channel": 0}, {"type": "note_on", "time": 9, "note": 67, "velocity": 121, "channel": 0}, {"type": "note_off", "time": 94, "note": 67, "velocity": 121, "channel": 0}, {"type": "note_on", "time": 20, "note": 65, "velocity": 103, "channel": 0}, {"type": "note_off", "time": 121, "note": 65, "velocity": 103, "channel": 0}, {"type": "note_on", "time": 98, "note": 65, "velocity": 88, "channel": 0}, {"type": "note_off", "time": 21, "note": 65, "velocity": 88, "channel": 0}, {"type": "note_on", "time": 9, "note": 70, "velocity": 116, "channel": 0}, {"type": "note_off", "time": 154, "note": 70, "velocity": 116, "channel": 0}, {"type": "note_on", "time": 952, "note": 75, "velocity": 114, "channel": 0}, {"type": "note_off", "time": 98, "note": 75, "velocity": 114, "channel": 0}, {"type": "note_on", "time": 7, "note": 73, "velocity": 110, "channel": 0}, {"type": "note_off", "time": 78, "note": 73, "velocity": 110, "channel": 0}, {"type": "note_on", "time": 9, "note": 75, "velocity": 126, "channel": 0}, {"type": "note_off", "time": 98, "note": 75, "velocity": 126, "channel": 0}, {"type": "note_on", "time": 7, "note": 73, "velocity": 108, "channel": 0}, {"type": "note_off", "time": 59, "note": 73, "velocity": 108, "channel": 0}, {"type": "note_on", "time": 20, "note": 71, "velocity": 106, "channel": 0}, {"type": "note_off", "time": 81, "note": 71, "velocity": 106, "channel": 0}, {"type": "note_on", "time": 17, "note": 70, "velocity": 116, "channel": 0}, {"type": "note_off", "time": 68, "note": 70, "velocity": 116, "channel": 0}, {"type": "note_on", "time": 23, "note": 71, "velocity": 108, "channel": 0}, {"type": "note_off", "time": 90, "note": 71, "velocity": 108, "channel": 0}, {"type": "note_on", "time": 7, "note": 70, "velocity": 117, "channel": 0}, {"type": "note_off", "time": 83, "note": 70, "velocity": 117, "channel": 0}, {"type": "note_on", "time": 9, "note": 69, "velocity": 102, "channel": 0}, {"type": "note_off", "time": 71, "note": 69, "velocity": 102, "channel": 0}, {"type": "note_on", "time": 11, "note": 70, "velocity": 120, "channel": 0}, {"type": "note_off", "time": 74, "note": 70, "velocity": 120, "channel": 0}, {"type": "note_on", "time": 15, "note": 74, "velocity": 121, "channel": 0}, {"type": "note_off", "time": 91, "note": 74, "velocity": 121, "channel": 0}, {"type": "note_on", "time": 4, "note": 72, "velocity": 112, "channel": 0}, {"type": "note_off", "time": 90, "note": 72, "velocity": 112, "channel": 0}, {"type": "note_on", "time": 7, "note": 70, "velocity": 117, "channel": 0}, {"type": "note_off", "time": 92, "note": 70, "velocity": 117, "channel": 0}, {"type": "note_on", "time": 7, "note": 67, "velocity": 121, "channel": 0}, {"type": "note_off", "time": 72, "note": 67, "velocity": 121, "channel": 0}, {"type": "note_on", "time": 9, "note": 65, "velocity": 109, "channel": 0}, {"type": "note_off", "time": 109, "note": 65, "velocity": 109, "channel": 0}, {"type": "note_on", "time": 3, "note": 63, "velocity": 91, "channel": 0}, {"type": "note_off", "time": 48, "note": 63, "velocity": 91, "channel": 0}, {"type": "note_on", "time": 13, "note": 65, "velocity": 109, "channel": 0}, {"type": "note_off", "time": 116, "note": 65, "velocity": 109, "channel": 0}, {"type": "note_on", "time": 10, "note": 63, "velocity": 90, "channel": 0}, {"type": "note_off", "time": 36, "note": 63, "velocity": 90, "channel": 0}, {"type": "note_on", "time": 9, "note": 68, "velocity": 121, "channel": 0}, {"type": "note_off", "time": 108, "note": 68, "velocity": 121, "channel": 0}, {"type": "note_on", "time": 11, "note": 67, "velocity": 113, "channel": 0}, {"type": "note_off", "time": 59, "note": 67, "velocity": 113, "channel": 0}, {"type": "note_on", "time": 17, "note": 65, "velocity": 104, "channel": 0}, {"type": "note_off", "time": 101, "note": 65, "velocity": 104, "channel": 0}, {"type": "note_on", "time": 75, "note": 70, "velocity": 106, "channel": 0}, {"type": "note_off", "time": 275, "note": 70, "velocity": 106, "channel": 0}, {"type": "note_on", "time": 299, "note": 72, "velocity": 117, "channel": 0}, {"type": "note_off", "time": 111, "note": 72, "velocity": 117, "channel": 0}, {"type": "note_on", "time": 11, "note": 67, "velocity": 112, "channel": 0}, {"type": "note_off", "time": 228, "note": 67, "velocity": 112, "channel": 0}, {"type": "note_on", "time": 5, "note": 65, "velocity": 107, "channel": 0}, {"type": "note_off", "time": 127, "note": 65, "velocity": 107, "channel": 0}, {"type": "note_on", "time": 6, "note": 63, "velocity": 90, "channel": 0}, {"type": "note_off", "time": 217, "note": 63, "velocity": 90, "channel": 0}, {"type": "note_on", "time": 24, "note": 60, "velocity": 103, "channel": 0}, {"type": "note_off", "time": 106, "note": 60, "velocity": 103, "channel": 0}, {"type": "note_on", "time": 17, "note": 58, "velocity": 101, "channel": 0}, {"type": "note_off", "time": 245, "note": 58, "velocity": 101, "channel": 0}, {"type": "note_on", "time": 13, "note": 60, "velocity": 86, "channel": 0}, {"type": "note_off", "time": 103, "note": 60, "velocity": 86, "channel": 0}, {"type": "note_on", "time": 19, "note": 63, "velocity": 96, "channel": 0}, {"type": "note_off", "time": 54, "note": 63, "velocity": 96, "channel": 0}, {"type": "note_on", "time": 22, "note": 67, "velocity": 120, "channel": 0}, {"type": "note_off", "time": 127, "note": 67, "velocity": 120, "channel": 0}, {"type": "note_on", "time": 8, "note": 63, "velocity": 82, "channel": 0}, {"type": "note_off", "time": 39, "note": 63, "velocity": 82, "channel": 0}, {"type": "note_on", "time": 9, "note": 67, "velocity": 119, "channel": 0}, {"type": "note_off", "time": 177, "note": 67, "velocity": 119, "channel": 0}, {"type": "note_on", "time": 16, "note": 70, "velocity": 111, "channel": 0}, {"type": "note_off", "time": 120, "note": 70, "velocity": 111, "channel": 0}, {"type": "note_on", "time": 6, "note": 67, "velocity": 96, "channel": 0}, {"type": "note_off", "time": 38, "note": 67, "velocity": 96, "channel": 0}, {"type": "note_on", "time": 11, "note": 70, "velocity": 114, "channel": 0}, {"type": "note_off", "time": 119, "note": 70, "velocity": 114, "channel": 0}, {"type": "note_on", "time": 12, "note": 70, "velocity": 113, "channel": 0}, {"type": "note_off", "time": 63, "note": 70, "velocity": 113, "channel": 0}, {"type": "note_on", "time": 6, "note": 72, "velocity": 112, "channel": 0}, {"type": "note_off", "time": 96, "note": 72, "velocity": 112, "channel": 0}, {"type": "note_on", "time": 26, "note": 70, "velocity": 113, "channel": 0}, {"type": "note_off", "time": 56, "note": 70, "velocity": 113, "channel": 0}, {"type": "note_on", "time": 3, "note": 67, "velocity": 120, "channel": 0}, {"type": "note_off", "time": 118, "note": 67, "velocity": 120, "channel": 0}, {"type": "note_on", "time": 14, "note": 63, "velocity": 85, "channel": 0}, {"type": "note_off", "time": 47, "note": 63, "velocity": 85, "channel": 0}, {"type": "note_on", "time": 9, "note": 65, "velocity": 107, "channel": 0}, {"type": "note_off", "time": 128, "note": 65, "velocity": 107, "channel": 0}, {"type": "note_on", "time": 7, "note": 63, "velocity": 89, "channel": 0}, {"type": "note_off", "time": 38, "note": 63, "velocity": 89, "channel": 0}, {"type": "note_on", "time": 9, "note": 65, "velocity": 107, "channel": 0}, {"type": "note_off", "time": 99, "note": 65, "velocity": 107, "channel": 0}, {"type": "note_on", "time": 25, "note": 67, "velocity": 115, "channel": 0}, {"type": "note_off", "time": 78, "note": 67, "velocity": 115, "channel": 0}, {"type": "note_on", "time": 5, "note": 65, "velocity": 107, "channel": 0}, {"type": "note_off", "time": 106, "note": 65, "velocity": 107, "channel": 0}, {"type": "note_on", "time": 22, "note": 63, "velocity": 84, "channel": 0}, {"type": "note_off", "time": 59, "note": 63, "velocity": 84, "channel": 0}, {"type": "note_on", "time": 129, "note": 63, "velocity": 93, "channel": 0}, {"type": "note_off", "time": 42, "note": 63, "velocity": 93, "channel": 0}, {"type": "note_on", "time": 25, "note": 70, "velocity": 114, "channel": 0}, {"type": "note_off", "time": 110, "note": 70, "velocity": 114, "channel": 0}, {"type": "note_on", "time": 7, "note": 68, "velocity": 96, "channel": 0}, {"type": "note_off", "time": 45, "note": 68, "velocity": 96, "channel": 0}, {"type": "note_on", "time": 7, "note": 70, "velocity": 116, "channel": 0}, {"type": "note_off", "time": 108, "note": 70, "velocity": 116, "channel": 0}, {"type": "note_on", "time": 15, "note": 71, "velocity": 105, "channel": 0}, {"type": "note_off", "time": 77, "note": 71, "velocity": 105, "channel": 0}, {"type": "note_on", "time": 4, "note": 70, "velocity": 112, "channel": 0}, {"type": "note_off", "time": 96, "note": 70, "velocity": 112, "channel": 0}, {"type": "note_on", "time": 3, "note": 68, "velocity": 112, "channel": 0}, {"type": "note_off", "time": 76, "note": 68, "velocity": 112, "channel": 0}, {"type": "note_on", "time": 5, "note": 67, "velocity": 104, "channel": 0}, {"type": "note_off", "time": 65, "note": 67, "velocity": 104, "channel": 0}, {"type": "note_on", "time": 0, "note": 70, "velocity": 97, "channel": 0}, {"type": "note_off", "time": 54, "note": 70, "velocity": 97, "channel": 0}, {"type": "note_on", "time": 0, "note": 72, "velocity": 98, "channel": 0}, {"type": "note_off", "time": 63, "note": 72, "velocity": 98, "channel": 0}, {"type": "note_on", "time": 5, "note": 75, "velocity": 104, "channel": 0}, {"type": "note_off", "time": 344, "note": 75, "velocity": 104, "channel": 0}, {"type": "note_on", "time": 955, "note": 74, "velocity": 110, "channel": 0}, {"type": "note_off", "time": 94, "note": 74, "velocity": 110, "channel": 0}, {"type": "note_on", "time": 9, "note": 72, "velocity": 126, "channel": 0}, {"type": "note_off", "time": 68, "note": 72, "velocity": 126, "channel": 0}, {"type": "note_on", "time": 12, "note": 70, "velocity": 117, "channel": 0}, {"type": "note_off", "time": 176, "note": 70, "velocity": 117, "channel": 0}, {"type": "note_on", "time": 6, "note": 67, "velocity": 118, "channel": 0}, {"type": "note_off", "time": 94, "note": 67, "velocity": 118, "channel": 0}, {"type": "note_on", "time": 21, "note": 65, "velocity": 108, "channel": 0}, {"type": "note_off", "time": 68, "note": 65, "velocity": 108, "channel": 0}, {"type": "note_on", "time": 18, "note": 64, "velocity": 90, "channel": 0}, {"type": "note_off", "time": 95, "note": 64, "velocity": 90, "channel": 0}, {"type": "note_on", "time": 9, "note": 67, "velocity": 119, "channel": 0}, {"type": "note_off", "time": 61, "note": 67, "velocity": 119, "channel": 0}, {"type": "note_on", "time": 9, "note": 72, "velocity": 121, "channel": 0}, {"type": "note_off", "time": 98, "note": 72, "velocity": 121, "channel": 0}, {"type": "note_on", "time": 2, "note": 70, "velocity": 117, "channel": 0}, {"type": "note_off", "time": 78, "note": 70, "velocity": 117, "channel": 0}, {"type": "note_on", "time": 7, "note": 68, "velocity": 118, "channel": 0}, {"type": "note_off", "time": 86, "note": 68, "velocity": 118, "channel": 0}, {"type": "note_on", "time": 9, "note": 67, "velocity": 123, "channel": 0}, {"type": "note_off", "time": 88, "note": 67, "velocity": 123, "channel": 0}, {"type": "note_on", "time": 11, "note": 65, "velocity": 110, "channel": 0}, {"type": "note_off", "time": 94, "note": 65, "velocity": 110, "channel": 0}, {"type": "note_on", "time": 14, "note": 63, "velocity": 93, "channel": 0}, {"type": "note_off", "time": 63, "note": 63, "velocity": 93, "channel": 0}, {"type": "note_on", "time": 28, "note": 62, "velocity": 92, "channel": 0}, {"type": "note_off", "time": 80, "note": 62, "velocity": 92, "channel": 0}, {"type": "note_on", "time": 10, "note": 66, "velocity": 112, "channel": 0}, {"type": "note_off", "time": 68, "note": 66, "velocity": 112, "channel": 0}, {"type": "note_on", "time": 14, "note": 70, "velocity": 118, "channel": 0}, {"type": "note_off", "time": 92, "note": 70, "velocity": 118, "channel": 0}, {"type": "note_on", "time": 8, "note": 73, "velocity": 113, "channel": 0}, {"type": "note_off", "time": 78, "note": 73, "velocity": 113, "channel": 0}, {"type": "note_on", "time": 12, "note": 74, "velocity": 124, "channel": 0}, {"type": "note_off", "time": 86, "note": 74, "velocity": 124, "channel": 0}, {"type": "note_on", "time": 12, "note": 77, "velocity": 115, "channel": 0}, {"type": "note_off", "time": 81, "note": 77, "velocity": 115, "channel": 0}, {"type": "note_on", "time": 4, "note": 74, "velocity": 122, "channel": 0}, {"type": "note_off", "time": 100, "note": 74, "velocity": 122, "channel": 0}, {"type": "note_on", "time": 11, "note": 72, "velocity": 112, "channel": 0}, {"type": "note_off", "time": 75, "note": 72, "velocity": 112, "channel": 0}, {"type": "note_on", "time": 8, "note": 70, "velocity": 113, "channel": 0}, {"type": "note_off", "time": 93, "note": 70, "velocity": 113, "channel": 0}, {"type": "note_on", "time": 4, "note": 67, "velocity": 117, "channel": 0}, {"type": "note_off", "time": 101, "note": 67, "velocity": 117, "channel": 0}, {"type": "note_on", "time": 9, "note": 65, "velocity": 97, "channel": 0}, {"type": "note_off", "time": 89, "note": 65, "velocity": 97, "channel": 0}, {"type": "note_on", "time": 10, "note": 63, "velocity": 89, "channel": 0}, {"type": "note_off", "time": 39, "note": 63, "velocity": 89, "channel": 0}, {"type": "note_on", "time": 30, "note": 65, "velocity": 108, "channel": 0}, {"type": "note_off", "time": 91, "note": 65, "velocity": 108, "channel": 0}, {"type": "note_on", "time": 17, "note": 67, "velocity": 120, "channel": 0}, {"type": "note_off", "time": 46, "note": 67, "velocity": 120, "channel": 0}, {"type": "note_on", "time": 12, "note": 68, "velocity": 116, "channel": 0}, {"type": "note_off", "time": 172, "note": 68, "velocity": 116, "channel": 0}, {"type": "note_on", "time": 29, "note": 65, "velocity": 102, "channel": 0}, {"type": "note_off", "time": 87, "note": 65, "velocity": 102, "channel": 0}, {"type": "note_on", "time": 11, "note": 67, "velocity": 121, "channel": 0}, {"type": "note_off", "time": 62, "note": 67, "velocity": 121, "channel": 0}, {"type": "note_on", "time": 18, "note": 68, "velocity": 119, "channel": 0}, {"type": "note_off", "time": 97, "note": 68, "velocity": 119, "channel": 0}, {"type": "note_on", "time": 9, "note": 69, "velocity": 119, "channel": 0}, {"type": "note_off", "time": 77, "note": 69, "velocity": 119, "channel": 0}, {"type": "note_on", "time": 7, "note": 70, "velocity": 112, "channel": 0}, {"type": "note_off", "time": 118, "note": 70, "velocity": 112, "channel": 0}, {"type": "note_on", "time": 6, "note": 67, "velocity": 102, "channel": 0}, {"type": "note_off", "time": 45, "note": 67, "velocity": 102, "channel": 0}, {"type": "note_on", "time": 10, "note": 70, "velocity": 115, "channel": 0}, {"type": "note_off", "time": 103, "note": 70, "velocity": 115, "channel": 0}, {"type": "note_on", "time": 9, "note": 72, "velocity": 123, "channel": 0}, {"type": "note_off", "time": 73, "note": 72, "velocity": 123, "channel": 0}, {"type": "note_on", "time": 5, "note": 75, "velocity": 116, "channel": 0}, {"type": "note_off", "time": 94, "note": 75, "velocity": 116, "channel": 0}, {"type": "note_on", "time": 13, "note": 72, "velocity": 115, "channel": 0}, {"type": "note_off", "time": 56, "note": 72, "velocity": 115, "channel": 0}, {"type": "note_on", "time": 12, "note": 70, "velocity": 115, "channel": 0}, {"type": "note_off", "time": 53, "note": 70, "velocity": 115, "channel": 0}, {"type": "note_on", "time": 13, "note": 67, "velocity": 110, "channel": 0}, {"type": "note_off", "time": 54, "note": 67, "velocity": 110, "channel": 0}, {"type": "note_on", "time": 12, "note": 63, "velocity": 93, "channel": 0}, {"type": "note_off", "time": 40, "note": 63, "velocity": 93, "channel": 0}, {"type": "note_on", "time": 20, "note": 65, "velocity": 108, "channel": 0}, {"type": "note_off", "time": 58, "note": 65, "velocity": 108, "channel": 0}, {"type": "note_on", "time": 7, "note": 67, "velocity": 99, "channel": 0}, {"type": "note_off", "time": 41, "note": 67, "velocity": 99, "channel": 0}, {"type": "note_on", "time": 9, "note": 65, "velocity": 105, "channel": 0}, {"type": "note_off", "time": 60, "note": 65, "velocity": 105, "channel": 0}, {"type": "note_on", "time": 15, "note": 63, "velocity": 95, "channel": 0}, {"type": "note_off", "time": 44, "note": 63, "velocity": 95, "channel": 0}, {"type": "note_on", "time": 9, "note": 65, "velocity": 106, "channel": 0}, {"type": "note_off", "time": 64, "note": 65, "velocity": 106, "channel": 0}, {"type": "note_on", "time": 0, "note": 63, "velocity": 98, "channel": 0}, {"type": "note_off", "time": 48, "note": 63, "velocity": 98, "channel": 0}, {"type": "note_on", "time": 12, "note": 61, "velocity": 103, "channel": 0}, {"type": "note_off", "time": 55, "note": 61, "velocity": 103, "channel": 0}, {"type": "note_on", "time": 11, "note": 63, "velocity": 96, "channel": 0}, {"type": "note_off", "time": 53, "note": 63, "velocity": 96, "channel": 0}, {"type": "note_on", "time": 2, "note": 61, "velocity": 101, "channel": 0}, {"type": "note_off", "time": 56, "note": 61, "velocity": 101, "channel": 0}, {"type": "note_on", "time": 15, "note": 59, "velocity": 108, "channel": 0}, {"type": "note_off", "time": 60, "note": 59, "velocity": 108, "channel": 0}, {"type": "note_on", "time": 3, "note": 61, "velocity": 80, "channel": 0}, {"type": "note_off", "time": 47, "note": 61, "velocity": 80, "channel": 0}, {"type": "note_on", "time": 4, "note": 59, "velocity": 110, "channel": 0}, {"type": "note_off", "time": 58, "note": 59, "velocity": 110, "channel": 0}, {"type": "note_on", "time": 8, "note": 58, "velocity": 109, "channel": 0}, {"type": "note_off", "time": 83, "note": 58, "velocity": 109, "channel": 0}, {"type": "note_on", "time": 0, "note": 60, "velocity": 107, "channel": 0}, {"type": "note_off", "time": 40, "note": 60, "velocity": 107, "channel": 0}, {"type": "note_on", "time": 9, "note": 58, "velocity": 112, "channel": 0}, {"type": "note_off", "time": 46, "note": 58, "velocity": 112, "channel": 0}, {"type": "note_on", "time": 21, "note": 55, "velocity": 103, "channel": 0}, {"type": "note_off", "time": 39, "note": 55, "velocity": 103, "channel": 0}, {"type": "note_on", "time": 3, "note": 56, "velocity": 102, "channel": 0}, {"type": "note_off", "time": 22, "note": 56, "velocity": 102, "channel": 0}, {"type": "note_on", "time": 3, "note": 58, "velocity": 108, "channel": 0}, {"type": "note_off", "time": 37, "note": 58, "velocity": 108, "channel": 0}, {"type": "note_on", "time": 2, "note": 60, "velocity": 103, "channel": 0}, {"type": "note_off", "time": 61, "note": 60, "velocity": 103, "channel": 0}, {"type": "note_on", "time": 17, "note": 63, "velocity": 100, "channel": 0}, {"type": "note_off", "time": 90, "note": 63, "velocity": 100, "channel": 0}, {"type": "note_on", "time": 19, "note": 60, "velocity": 9, "channel": 0}, {"type": "note_off", "time": 220, "note": 60, "velocity": 9, "channel": 0}, {"type": "note_on", "time": 520, "note": 67, "velocity": 118, "channel": 0}, {"type": "note_off", "time": 57, "note": 67, "velocity": 118, "channel": 0}, {"type": "note_on", "time": 8, "note": 70, "velocity": 106, "channel": 0}, {"type": "note_off", "time": 56, "note": 70, "velocity": 106, "channel": 0}, {"type": "note_on", "time": 5, "note": 72, "velocity": 88, "channel": 0}, {"type": "note_off", "time": 65, "note": 72, "velocity": 88, "channel": 0}, {"type": "note_on", "time": 3, "note": 74, "velocity": 120, "channel": 0}, {"type": "note_off", "time": 65, "note": 74, "velocity": 120, "channel": 0}, {"type": "note_on", "time": 6, "note": 75, "velocity": 125, "channel": 0}, {"type": "note_off", "time": 98, "note": 75, "velocity": 125, "channel": 0}, {"type": "note_on", "time": 1, "note": 74, "velocity": 121, "channel": 0}, {"type": "note_off", "time": 87, "note": 74, "velocity": 121, "channel": 0}, {"type": "note_on", "time": 1, "note": 72, "velocity": 122, "channel": 0}, {"type": "note_off", "time": 100, "note": 72, "velocity": 122, "channel": 0}, {"type": "note_on", "time": 3, "note": 71, "velocity": 118, "channel": 0}, {"type": "note_off", "time": 71, "note": 71, "velocity": 118, "channel": 0}, {"type": "note_on", "time": 6, "note": 70, "velocity": 115, "channel": 0}, {"type": "note_off", "time": 64, "note": 70, "velocity": 115, "channel": 0}, {"type": "note_on", "time": 3, "note": 67, "velocity": 107, "channel": 0}, {"type": "note_off", "time": 58, "note": 67, "velocity": 107, "channel": 0}, {"type": "note_on", "time": 5, "note": 63, "velocity": 86, "channel": 0}, {"type": "note_off", "time": 36, "note": 63, "velocity": 86, "channel": 0}, {"type": "note_on", "time": 38, "note": 68, "velocity": 124, "channel": 0}, {"type": "note_off", "time": 61, "note": 68, "velocity": 124, "channel": 0}, {"type": "note_on", "time": 6, "note": 70, "velocity": 117, "channel": 0}, {"type": "note_off", "time": 45, "note": 70, "velocity": 117, "channel": 0}, {"type": "note_on", "time": 2, "note": 68, "velocity": 125, "channel": 0}, {"type": "note_off", "time": 59, "note": 68, "velocity": 125, "channel": 0}, {"type": "note_on", "time": 7, "note": 67, "velocity": 125, "channel": 0}, {"type": "note_off", "time": 111, "note": 67, "velocity": 125, "channel": 0}, {"type": "note_on", "time": 2, "note": 65, "velocity": 111, "channel": 0}, {"type": "note_off", "time": 78, "note": 65, "velocity": 111, "channel": 0}, {"type": "note_on", "time": 7, "note": 64, "velocity": 97, "channel": 0}, {"type": "note_off", "time": 108, "note": 64, "velocity": 97, "channel": 0}, {"type": "note_on", "time": 7, "note": 62, "velocity": 95, "channel": 0}, {"type": "note_off", "time": 67, "note": 62, "velocity": 95, "channel": 0}, {"type": "note_on", "time": 2, "note": 63, "velocity": 96, "channel": 0}, {"type": "note_off", "time": 113, "note": 63, "velocity": 96, "channel": 0}, {"type": "note_on", "time": 9, "note": 62, "velocity": 103, "channel": 0}, {"type": "note_off", "time": 60, "note": 62, "velocity": 103, "channel": 0}, {"type": "note_on", "time": 7, "note": 61, "velocity": 95, "channel": 0}, {"type": "note_off", "time": 98, "note": 61, "velocity": 95, "channel": 0}, {"type": "note_on", "time": 1, "note": 64, "velocity": 100, "channel": 0}, {"type": "note_off", "time": 74, "note": 64, "velocity": 100, "channel": 0}, {"type": "note_on", "time": 9, "note": 63, "velocity": 90, "channel": 0}, {"type": "note_off", "time": 88, "note": 63, "velocity": 90, "channel": 0}, {"type": "note_on", "time": 22, "note": 72, "velocity": 101, "channel": 0}, {"type": "note_off", "time": 293, "note": 72, "velocity": 101, "channel": 0}, {"type": "note_on", "time": 276, "note": 63, "velocity": 98, "channel": 0}, {"type": "note_off", "time": 45, "note": 63, "velocity": 98, "channel": 0}, {"type": "note_on", "time": 3, "note": 65, "velocity": 113, "channel": 0}, {"type": "note_off", "time": 144, "note": 65, "velocity": 113, "channel": 0}, {"type": "note_on", "time": 0, "note": 63, "velocity": 93, "channel": 0}, {"type": "note_off", "time": 45, "note": 63, "velocity": 93, "channel": 0}, {"type": "note_on", "time": 7, "note": 67, "velocity": 121, "channel": 0}, {"type": "note_off", "time": 124, "note": 67, "velocity": 121, "channel": 0}, {"type": "note_on", "time": 4, "note": 68, "velocity": 124, "channel": 0}, {"type": "note_off", "time": 66, "note": 68, "velocity": 124, "channel": 0}, {"type": "note_on", "time": 11, "note": 70, "velocity": 117, "channel": 0}, {"type": "note_off", "time": 103, "note": 70, "velocity": 117, "channel": 0}, {"type": "note_on", "time": 6, "note": 68, "velocity": 126, "channel": 0}, {"type": "note_off", "time": 87, "note": 68, "velocity": 126, "channel": 0}, {"type": "note_on", "time": 7, "note": 67, "velocity": 117, "channel": 0}, {"type": "note_off", "time": 99, "note": 67, "velocity": 117, "channel": 0}, {"type": "note_on", "time": 5, "note": 65, "velocity": 103, "channel": 0}, {"type": "note_off", "time": 54, "note": 65, "velocity": 103, "channel": 0}, {"type": "note_on", "time": 13, "note": 75, "velocity": 123, "channel": 0}, {"type": "note_off", "time": 95, "note": 75, "velocity": 123, "channel": 0}, {"type": "note_on", "time": 16, "note": 72, "velocity": 112, "channel": 0}, {"type": "note_off", "time": 78, "note": 72, "velocity": 112, "channel": 0}, {"type": "note_on", "time": 7, "note": 73, "velocity": 107, "channel": 0}, {"type": "note_off", "time": 78, "note": 73, "velocity": 107, "channel": 0}, {"type": "note_on", "time": 12, "note": 75, "velocity": 121, "channel": 0}, {"type": "note_off", "time": 94, "note": 75, "velocity": 121, "channel": 0}, {"type": "note_on", "time": 4, "note": 72, "velocity": 113, "channel": 0}, {"type": "note_off", "time": 88, "note": 72, "velocity": 113, "channel": 0}, {"type": "note_on", "time": 12, "note": 68, "velocity": 103, "channel": 0}, {"type": "note_off", "time": 72, "note": 68, "velocity": 103, "channel": 0}, {"type": "note_on", "time": 4, "note": 70, "velocity": 122, "channel": 0}, {"type": "note_off", "time": 107, "note": 70, "velocity": 122, "channel": 0}, {"type": "note_on", "time": 5, "note": 72, "velocity": 119, "channel": 0}, {"type": "note_off", "time": 88, "note": 72, "velocity": 119, "channel": 0}, {"type": "note_on", "time": 7, "note": 73, "velocity": 108, "channel": 0}, {"type": "note_off", "time": 93, "note": 73, "velocity": 108, "channel": 0}, {"type": "note_on", "time": 53, "note": 70, "velocity": 117, "channel": 0}, {"type": "note_off", "time": 100, "note": 70, "velocity": 117, "channel": 0}, {"type": "note_on", "time": 21, "note": 72, "velocity": 113, "channel": 0}, {"type": "note_off", "time": 67, "note": 72, "velocity": 113, "channel": 0}, {"type": "note_on", "time": 5, "note": 73, "velocity": 106, "channel": 0}, {"type": "note_off", "time": 89, "note": 73, "velocity": 106, "channel": 0}, {"type": "note_on", "time": 16, "note": 70, "velocity": 121, "channel": 0}, {"type": "note_off", "time": 96, "note": 70, "velocity": 121, "channel": 0}, {"type": "note_on", "time": 24, "note": 67, "velocity": 123, "channel": 0}, {"type": "note_off", "time": 74, "note": 67, "velocity": 123, "channel": 0}, {"type": "note_on", "time": 8, "note": 68, "velocity": 101, "channel": 0}, {"type": "note_off", "time": 23, "note": 68, "velocity": 101, "channel": 0}, {"type": "note_on", "time": 11, "note": 70, "velocity": 109, "channel": 0}, {"type": "note_off", "time": 54, "note": 70, "velocity": 109, "channel": 0}, {"type": "note_on", "time": 17, "note": 72, "velocity": 88, "channel": 0}, {"type": "note_off", "time": 255, "note": 72, "velocity": 88, "channel": 0}, {"type": "note_on", "time": 614, "note": 68, "velocity": 112, "channel": 0}, {"type": "note_off", "time": 54, "note": 68, "velocity": 112, "channel": 0}, {"type": "note_on", "time": 9, "note": 70, "velocity": 109, "channel": 0}, {"type": "note_off", "time": 109, "note": 70, "velocity": 109, "channel": 0}, {"type": "note_on", "time": 2, "note": 72, "velocity": 122, "channel": 0}, {"type": "note_off", "time": 66, "note": 72, "velocity": 122, "channel": 0}, {"type": "note_on", "time": 10, "note": 73, "velocity": 120, "channel": 0}, {"type": "note_off", "time": 117, "note": 73, "velocity": 120, "channel": 0}, {"type": "note_on", "time": 9, "note": 71, "velocity": 113, "channel": 0}, {"type": "note_off", "time": 55, "note": 71, "velocity": 113, "channel": 0}, {"type": "note_on", "time": 4, "note": 72, "velocity": 120, "channel": 0}, {"type": "note_off", "time": 109, "note": 72, "velocity": 120, "channel": 0}, {"type": "note_on", "time": 9, "note": 70, "velocity": 120, "channel": 0}, {"type": "note_off", "time": 77, "note": 70, "velocity": 120, "channel": 0}, {"type": "note_on", "time": 7, "note": 67, "velocity": 123, "channel": 0}, {"type": "note_off", "time": 103, "note": 67, "velocity": 123, "channel": 0}, {"type": "note_on", "time": 10, "note": 68, "velocity": 123, "channel": 0}, {"type": "note_off", "time": 67, "note": 68, "velocity": 123, "channel": 0}, {"type": "note_on", "time": 5, "note": 69, "velocity": 105, "channel": 0}, {"type": "note_off", "time": 89, "note": 69, "velocity": 105, "channel": 0}, {"type": "note_on", "time": 19, "note": 72, "velocity": 124, "channel": 0}, {"type": "note_off", "time": 67, "note": 72, "velocity": 124, "channel": 0}, {"type": "note_on", "time": 10, "note": 67, "velocity": 123, "channel": 0}, {"type": "note_off", "time": 105, "note": 67, "velocity": 123, "channel": 0}, {"type": "note_on", "time": 7, "note": 66, "velocity": 114, "channel": 0}, {"type": "note_off", "time": 72, "note": 66, "velocity": 114, "channel": 0}, {"type": "note_on", "time": 6, "note": 65, "velocity": 110, "channel": 0}, {"type": "note_off", "time": 98, "note": 65, "velocity": 110, "channel": 0}, {"type": "note_on", "time": 18, "note": 63, "velocity": 101, "channel": 0}, {"type": "note_off", "time": 54, "note": 63, "velocity": 101, "channel": 0}, {"type": "note_on", "time": 21, "note": 62, "velocity": 96, "channel": 0}, {"type": "note_off", "time": 81, "note": 62, "velocity": 96, "channel": 0}, {"type": "note_on", "time": 22, "note": 65, "velocity": 114, "channel": 0}, {"type": "note_off", "time": 70, "note": 65, "velocity": 114, "channel": 0}, {"type": "note_on", "time": 31, "note": 60, "velocity": 111, "channel": 0}, {"type": "note_off", "time": 78, "note": 60, "velocity": 111, "channel": 0}, {"type": "note_on", "time": 23, "note": 59, "velocity": 118, "channel": 0}, {"type": "note_off", "time": 70, "note": 59, "velocity": 118, "channel": 0}, {"type": "note_on", "time": 7, "note": 58, "velocity": 102, "channel": 0}, {"type": "note_off", "time": 103, "note": 58, "velocity": 102, "channel": 0}, {"type": "note_on", "time": 6, "note": 62, "velocity": 105, "channel": 0}, {"type": "note_off", "time": 61, "note": 62, "velocity": 105, "channel": 0}, {"type": "note_on", "time": 14, "note": 66, "velocity": 117, "channel": 0}, {"type": "note_off", "time": 87, "note": 66, "velocity": 117, "channel": 0}, {"type": "note_on", "time": 6, "note": 69, "velocity": 125, "channel": 0}, {"type": "note_off", "time": 68, "note": 69, "velocity": 125, "channel": 0}, {"type": "note_on", "time": 23, "note": 72, "velocity": 104, "channel": 0}, {"type": "note_off", "time": 121, "note": 72, "velocity": 104, "channel": 0}, {"type": "note_on", "time": 5, "note": 70, "velocity": 107, "channel": 0}, {"type": "note_off", "time": 228, "note": 70, "velocity": 107, "channel": 0}, {"type": "note_on", "time": 15, "note": 67, "velocity": 121, "channel": 0}, {"type": "note_off", "time": 97, "note": 67, "velocity": 121, "channel": 0}, {"type": "note_on", "time": 39, "note": 63, "velocity": 88, "channel": 0}, {"type": "note_off", "time": 48, "note": 63, "velocity": 88, "channel": 0}, {"type": "note_on", "time": 18, "note": 65, "velocity": 107, "channel": 0}, {"type": "note_off", "time": 108, "note": 65, "velocity": 107, "channel": 0}, {"type": "note_on", "time": 3, "note": 67, "velocity": 115, "channel": 0}, {"type": "note_off", "time": 72, "note": 67, "velocity": 115, "channel": 0}, {"type": "note_on", "time": 7, "note": 68, "velocity": 112, "channel": 0}, {"type": "note_off", "time": 118, "note": 68, "velocity": 112, "channel": 0}, {"type": "note_on", "time": 2, "note": 70, "velocity": 116, "channel": 0}, {"type": "note_off", "time": 78, "note": 70, "velocity": 116, "channel": 0}, {"type": "note_on", "time": 0, "note": 68, "velocity": 109, "channel": 0}, {"type": "note_off", "time": 107, "note": 68, "velocity": 109, "channel": 0}, {"type": "note_on", "time": 3, "note": 67, "velocity": 111, "channel": 0}, {"type": "note_off", "time": 69, "note": 67, "velocity": 111, "channel": 0}, {"type": "note_on", "time": 16, "note": 65, "velocity": 97, "channel": 0}, {"type": "note_off", "time": 96, "note": 65, "velocity": 97, "channel": 0}, {"type": "note_on", "time": 94, "note": 67, "velocity": 113, "channel": 0}, {"type": "note_off", "time": 159, "note": 67, "velocity": 113, "channel": 0}, {"type": "note_on", "time": 17, "note": 70, "velocity": 81, "channel": 0}, {"type": "note_off", "time": 383, "note": 70, "velocity": 81, "channel": 0}, {"type": "note_on", "time": 571, "note": 75, "velocity": 114, "channel": 0}, {"type": "note_off", "time": 131, "note": 75, "velocity": 114, "channel": 0}, {"type": "note_on", "time": 9, "note": 71, "velocity": 108, "channel": 0}, {"type": "note_off", "time": 21, "note": 71, "velocity": 108, "channel": 0}, {"type": "note_on", "time": 2, "note": 68, "velocity": 99, "channel": 0}, {"type": "note_off", "time": 21, "note": 68, "velocity": 99, "channel": 0}, {"type": "note_on", "time": 2, "note": 66, "velocity": 106, "channel": 0}, {"type": "note_off", "time": 132, "note": 66, "velocity": 106, "channel": 0}, {"type": "note_on", "time": 3, "note": 68, "velocity": 107, "channel": 0}, {"type": "note_off", "time": 132, "note": 68, "velocity": 107, "channel": 0}, {"type": "note_on", "time": 6, "note": 70, "velocity": 96, "channel": 0}, {"type": "note_off", "time": 36, "note": 70, "velocity": 96, "channel": 0}, {"type": "note_on", "time": 3, "note": 68, "velocity": 109, "channel": 0}, {"type": "note_off", "time": 25, "note": 68, "velocity": 109, "channel": 0}, {"type": "note_on", "time": 3, "note": 66, "velocity": 113, "channel": 0}, {"type": "note_off", "time": 49, "note": 66, "velocity": 113, "channel": 0}, {"type": "note_on", "time": 13, "note": 65, "velocity": 104, "channel": 0}, {"type": "note_off", "time": 143, "note": 65, "velocity": 104, "channel": 0}, {"type": "note_on", "time": 5, "note": 63, "velocity": 91, "channel": 0}, {"type": "note_off", "time": 33, "note": 63, "velocity": 91, "channel": 0}, {"type": "note_on", "time": 0, "note": 60, "velocity": 69, "channel": 0}, {"type": "note_off", "time": 118, "note": 60, "velocity": 69, "channel": 0}, {"type": "note_on", "time": 16, "note": 63, "velocity": 96, "channel": 0}, {"type": "note_off", "time": 47, "note": 63, "velocity": 96, "channel": 0}, {"type": "note_on", "time": 18, "note": 67, "velocity": 88, "channel": 0}, {"type": "note_off", "time": 100, "note": 67, "velocity": 88, "channel": 0}, {"type": "note_on", "time": 16, "note": 70, "velocity": 114, "channel": 0}, {"type": "note_off", "time": 68, "note": 70, "velocity": 114, "channel": 0}, {"type": "note_on", "time": 3, "note": 72, "velocity": 117, "channel": 0}, {"type": "note_off", "time": 117, "note": 72, "velocity": 117, "channel": 0}, {"type": "note_on", "time": 7, "note": 70, "velocity": 108, "channel": 0}, {"type": "note_off", "time": 58, "note": 70, "velocity": 108, "channel": 0}, {"type": "note_on", "time": 1, "note": 75, "velocity": 118, "channel": 0}, {"type": "note_off", "time": 115, "note": 75, "velocity": 118, "channel": 0}, {"type": "note_on", "time": 1, "note": 77, "velocity": 120, "channel": 0}, {"type": "note_off", "time": 89, "note": 77, "velocity": 120, "channel": 0}, {"type": "note_on", "time": 9, "note": 75, "velocity": 107, "channel": 0}, {"type": "note_off", "time": 96, "note": 75, "velocity": 107, "channel": 0}, {"type": "note_on", "time": 18, "note": 72, "velocity": 107, "channel": 0}, {"type": "note_off", "time": 69, "note": 72, "velocity": 107, "channel": 0}, {"type": "note_on", "time": 3, "note": 70, "velocity": 111, "channel": 0}, {"type": "note_off", "time": 95, "note": 70, "velocity": 111, "channel": 0}, {"type": "note_on", "time": 2, "note": 67, "velocity": 117, "channel": 0}, {"type": "note_off", "time": 85, "note": 67, "velocity": 117, "channel": 0}, {"type": "note_on", "time": 11, "note": 65, "velocity": 102, "channel": 0}, {"type": "note_off", "time": 99, "note": 65, "velocity": 102, "channel": 0}, {"type": "note_on", "time": 3, "note": 63, "velocity": 89, "channel": 0}, {"type": "note_off", "time": 60, "note": 63, "velocity": 89, "channel": 0}, {"type": "note_on", "time": 9, "note": 65, "velocity": 107, "channel": 0}, {"type": "note_off", "time": 109, "note": 65, "velocity": 107, "channel": 0}, {"type": "note_on", "time": 5, "note": 63, "velocity": 92, "channel": 0}, {"type": "note_off", "time": 80, "note": 63, "velocity": 92, "channel": 0}, {"type": "note_on", "time": 11, "note": 62, "velocity": 82, "channel": 0}, {"type": "note_off", "time": 91, "note": 62, "velocity": 82, "channel": 0}, {"type": "note_on", "time": 9, "note": 63, "velocity": 98, "channel": 0}, {"type": "note_off", "time": 84, "note": 63, "velocity": 98, "channel": 0}, {"type": "note_on", "time": 6, "note": 62, "velocity": 101, "channel": 0}, {"type": "note_off", "time": 101, "note": 62, "velocity": 101, "channel": 0}, {"type": "note_on", "time": 12, "note": 61, "velocity": 95, "channel": 0}, {"type": "note_off", "time": 69, "note": 61, "velocity": 95, "channel": 0}, {"type": "note_on", "time": 11, "note": 60, "velocity": 87, "channel": 0}, {"type": "note_off", "time": 51, "note": 60, "velocity": 87, "channel": 0}, {"type": "note_on", "time": 10, "note": 63, "velocity": 81, "channel": 0}, {"type": "note_off", "time": 50, "note": 63, "velocity": 81, "channel": 0}, {"type": "note_on", "time": 2, "note": 67, "velocity": 118, "channel": 0}, {"type": "note_off", "time": 67, "note": 67, "velocity": 118, "channel": 0}, {"type": "note_on", "time": 3, "note": 70, "velocity": 110, "channel": 0}, {"type": "note_off", "time": 116, "note": 70, "velocity": 110, "channel": 0}, {"type": "note_on", "time": 6, "note": 69, "velocity": 101, "channel": 0}, {"type": "note_off", "time": 68, "note": 69, "velocity": 101, "channel": 0}, {"type": "note_on", "time": 4, "note": 68, "velocity": 111, "channel": 0}, {"type": "note_off", "time": 71, "note": 68, "velocity": 111, "channel": 0}, {"type": "note_on", "time": 9, "note": 69, "velocity": 98, "channel": 0}, {"type": "note_off", "time": 38, "note": 69, "velocity": 98, "channel": 0}, {"type": "note_on", "time": 5, "note": 70, "velocity": 114, "channel": 0}, {"type": "note_off", "time": 68, "note": 70, "velocity": 114, "channel": 0}, {"type": "note_on", "time": 2, "note": 67, "velocity": 113, "channel": 0}, {"type": "note_off", "time": 67, "note": 67, "velocity": 113, "channel": 0}, {"type": "note_on", "time": 5, "note": 66, "velocity": 105, "channel": 0}, {"type": "note_off", "time": 54, "note": 66, "velocity": 105, "channel": 0}, {"type": "note_on", "time": 0, "note": 65, "velocity": 93, "channel": 0}, {"type": "note_off", "time": 195, "note": 65, "velocity": 93, "channel": 0}, {"type": "note_on", "time": 244, "note": 70, "velocity": 116, "channel": 0}, {"type": "note_off", "time": 76, "note": 70, "velocity": 116, "channel": 0}, {"type": "note_on", "time": 7, "note": 72, "velocity": 91, "channel": 0}, {"type": "note_off", "time": 36, "note": 72, "velocity": 91, "channel": 0}, {"type": "note_on", "time": 1, "note": 75, "velocity": 119, "channel": 0}, {"type": "note_off", "time": 85, "note": 75, "velocity": 119, "channel": 0}, {"type": "note_on", "time": 7, "note": 73, "velocity": 108, "channel": 0}, {"type": "note_off", "time": 81, "note": 73, "velocity": 108, "channel": 0}, {"type": "note_on", "time": 4, "note": 74, "velocity": 106, "channel": 0}, {"type": "note_off", "time": 39, "note": 74, "velocity": 106, "channel": 0}, {"type": "note_on", "time": 8, "note": 73, "velocity": 110, "channel": 0}, {"type": "note_off", "time": 68, "note": 73, "velocity": 110, "channel": 0}, {"type": "note_on", "time": 4, "note": 72, "velocity": 112, "channel": 0}, {"type": "note_off", "time": 103, "note": 72, "velocity": 112, "channel": 0}, {"type": "note_on", "time": 5, "note": 71, "velocity": 111, "channel": 0}, {"type": "note_off", "time": 70, "note": 71, "velocity": 111, "channel": 0}, {"type": "note_on", "time": 2, "note": 70, "velocity": 112, "channel": 0}, {"type": "note_off", "time": 103, "note": 70, "velocity": 112, "channel": 0}, {"type": "note_on", "time": 7, "note": 68, "velocity": 114, "channel": 0}, {"type": "note_off", "time": 81, "note": 68, "velocity": 114, "channel": 0}, {"type": "note_on", "time": 8, "note": 65, "velocity": 103, "channel": 0}, {"type": "note_off", "time": 93, "note": 65, "velocity": 103, "channel": 0}, {"type": "note_on", "time": 7, "note": 66, "velocity": 113, "channel": 0}, {"type": "note_off", "time": 81, "note": 66, "velocity": 113, "channel": 0}, {"type": "note_on", "time": 9, "note": 67, "velocity": 117, "channel": 0}, {"type": "note_off", "time": 114, "note": 67, "velocity": 117, "channel": 0}, {"type": "note_on", "time": 7, "note": 70, "velocity": 101, "channel": 0}, {"type": "note_off", "time": 58, "note": 70, "velocity": 101, "channel": 0}, {"type": "note_on", "time": 1, "note": 72, "velocity": 110, "channel": 0}, {"type": "note_off", "time": 118, "note": 72, "velocity": 110, "channel": 0}, {"type": "note_on", "time": 2, "note": 75, "velocity": 119, "channel": 0}, {"type": "note_off", "time": 68, "note": 75, "velocity": 119, "channel": 0}, {"type": "note_on", "time": 9, "note": 79, "velocity": 119, "channel": 0}, {"type": "note_off", "time": 108, "note": 79, "velocity": 119, "channel": 0}, {"type": "note_on", "time": 11, "note": 80, "velocity": 117, "channel": 0}, {"type": "note_off", "time": 88, "note": 80, "velocity": 117, "channel": 0}, {"type": "note_on", "time": 8, "note": 79, "velocity": 106, "channel": 0}, {"type": "note_off", "time": 96, "note": 79, "velocity": 106, "channel": 0}, {"type": "note_on", "time": 6, "note": 77, "velocity": 113, "channel": 0}, {"type": "note_off", "time": 83, "note": 77, "velocity": 113, "channel": 0}, {"type": "note_on", "time": 5, "note": 75, "velocity": 103, "channel": 0}, {"type": "note_off", "time": 87, "note": 75, "velocity": 103, "channel": 0}, {"type": "note_on", "time": 25, "note": 70, "velocity": 108, "channel": 0}, {"type": "note_off", "time": 59, "note": 70, "velocity": 108, "channel": 0}, {"type": "note_on", "time": 1, "note": 67, "velocity": 119, "channel": 0}, {"type": "note_off", "time": 141, "note": 67, "velocity": 119, "channel": 0}, {"type": "note_on", "time": 81, "note": 68, "velocity": 118, "channel": 0}, {"type": "note_off", "time": 121, "note": 68, "velocity": 118, "channel": 0}, {"type": "note_on", "time": 2, "note": 67, "velocity": 95, "channel": 0}, {"type": "note_off", "time": 41, "note": 67, "velocity": 95, "channel": 0}, {"type": "note_on", "time": 13, "note": 68, "velocity": 115, "channel": 0}, {"type": "note_off", "time": 117, "note": 68, "velocity": 115, "channel": 0}, {"type": "note_on", "time": 5, "note": 70, "velocity": 112, "channel": 0}, {"type": "note_off", "time": 71, "note": 70, "velocity": 112, "channel": 0}, {"type": "note_on", "time": 5, "note": 71, "velocity": 106, "channel": 0}, {"type": "note_off", "time": 98, "note": 71, "velocity": 106, "channel": 0}, {"type": "note_on", "time": 6, "note": 70, "velocity": 98, "channel": 0}, {"type": "note_off", "time": 46, "note": 70, "velocity": 98, "channel": 0}, {"type": "note_on", "time": 8, "note": 68, "velocity": 116, "channel": 0}, {"type": "note_off", "time": 46, "note": 68, "velocity": 116, "channel": 0}, {"type": "note_on", "time": 6, "note": 67, "velocity": 115, "channel": 0}, {"type": "note_off", "time": 132, "note": 67, "velocity": 115, "channel": 0}, {"type": "note_on", "time": 12, "note": 70, "velocity": 90, "channel": 0}, {"type": "note_off", "time": 39, "note": 70, "velocity": 90, "channel": 0}, {"type": "note_on", "time": 11, "note": 72, "velocity": 102, "channel": 0}, {"type": "note_off", "time": 108, "note": 72, "velocity": 102, "channel": 0}, {"type": "note_on", "time": 21, "note": 75, "velocity": 87, "channel": 0}, {"type": "note_off", "time": 303, "note": 75, "velocity": 87, "channel": 0}, {"type": "note_on", "time": 836, "note": 67, "velocity": 110, "channel": 0}, {"type": "note_off", "time": 68, "note": 67, "velocity": 110, "channel": 0}, {"type": "note_on", "time": 8, "note": 70, "velocity": 117, "channel": 0}, {"type": "note_off", "time": 124, "note": 70, "velocity": 117, "channel": 0}, {"type": "note_on", "time": 9, "note": 67, "velocity": 106, "channel": 0}, {"type": "note_off", "time": 47, "note": 67, "velocity": 106, "channel": 0}, {"type": "note_on", "time": 5, "note": 70, "velocity": 116, "channel": 0}, {"type": "note_off", "time": 121, "note": 70, "velocity": 116, "channel": 0}, {"type": "note_on", "time": 10, "note": 67, "velocity": 111, "channel": 0}, {"type": "note_off", "time": 68, "note": 67, "velocity": 111, "channel": 0}, {"type": "note_on", "time": 1, "note": 64, "velocity": 95, "channel": 0}, {"type": "note_off", "time": 146, "note": 64, "velocity": 95, "channel": 0}, {"type": "note_on", "time": 0, "note": 60, "velocity": 96, "channel": 0}, {"type": "note_off", "time": 48, "note": 60, "velocity": 96, "channel": 0}, {"type": "note_on", "time": 7, "note": 63, "velocity": 102, "channel": 0}, {"type": "note_off", "time": 114, "note": 63, "velocity": 102, "channel": 0}, {"type": "note_on", "time": 10, "note": 62, "velocity": 102, "channel": 0}, {"type": "note_off", "time": 76, "note": 62, "velocity": 102, "channel": 0}, {"type": "note_on", "time": 12, "note": 61, "velocity": 102, "channel": 0}, {"type": "note_off", "time": 110, "note": 61, "velocity": 102, "channel": 0}, {"type": "note_on", "time": 7, "note": 59, "velocity": 103, "channel": 0}, {"type": "note_off", "time": 70, "note": 59, "velocity": 103, "channel": 0}, {"type": "note_on", "time": 1, "note": 60, "velocity": 112, "channel": 0}, {"type": "note_off", "time": 128, "note": 60, "velocity": 112, "channel": 0}, {"type": "note_on", "time": 3, "note": 68, "velocity": 117, "channel": 0}, {"type": "note_off", "time": 187, "note": 68, "velocity": 117, "channel": 0}, {"type": "note_on", "time": 0, "note": 60, "velocity": 100, "channel": 0}, {"type": "note_off", "time": 83, "note": 60, "velocity": 100, "channel": 0}, {"type": "note_on", "time": 12, "note": 62, "velocity": 98, "channel": 0}, {"type": "note_off", "time": 150, "note": 62, "velocity": 98, "channel": 0}, {"type": "note_on", "time": 23, "note": 70, "velocity": 115, "channel": 0}, {"type": "note_off", "time": 117, "note": 70, "velocity": 115, "channel": 0}, {"type": "note_on", "time": 1, "note": 67, "velocity": 118, "channel": 0}, {"type": "note_off", "time": 83, "note": 67, "velocity": 118, "channel": 0}, {"type": "note_on", "time": 123, "note": 63, "velocity": 100, "channel": 0}, {"type": "note_off", "time": 61, "note": 63, "velocity": 100, "channel": 0}, {"type": "note_on", "time": 14, "note": 65, "velocity": 113, "channel": 0}, {"type": "note_off", "time": 118, "note": 65, "velocity": 113, "channel": 0}, {"type": "note_on", "time": 0, "note": 63, "velocity": 96, "channel": 0}, {"type": "note_off", "time": 56, "note": 63, "velocity": 96, "channel": 0}, {"type": "note_on", "time": 21, "note": 59, "velocity": 76, "channel": 0}, {"type": "note_off", "time": 59, "note": 59, "velocity": 76, "channel": 0}, {"type": "note_on", "time": 6, "note": 63, "velocity": 77, "channel": 0}, {"type": "note_off", "time": 34, "note": 63, "velocity": 77, "channel": 0}, {"type": "note_on", "time": 3, "note": 67, "velocity": 96, "channel": 0}, {"type": "note_off", "time": 41, "note": 67, "velocity": 96, "channel": 0}, {"type": "note_on", "time": 4, "note": 70, "velocity": 104, "channel": 0}, {"type": "note_off", "time": 44, "note": 70, "velocity": 104, "channel": 0}, {"type": "note_on", "time": 3, "note": 74, "velocity": 118, "channel": 0}, {"type": "note_off", "time": 79, "note": 74, "velocity": 118, "channel": 0}, {"type": "note_on", "time": 3, "note": 72, "velocity": 107, "channel": 0}, {"type": "note_off", "time": 75, "note": 72, "velocity": 107, "channel": 0}, {"type": "note_on", "time": 4, "note": 75, "velocity": 121, "channel": 0}, {"type": "note_off", "time": 77, "note": 75, "velocity": 121, "channel": 0}, {"type": "note_on", "time": 16, "note": 72, "velocity": 108, "channel": 0}, {"type": "note_off", "time": 54, "note": 72, "velocity": 108, "channel": 0}, {"type": "note_on", "time": 5, "note": 68, "velocity": 117, "channel": 0}, {"type": "note_off", "time": 55, "note": 68, "velocity": 117, "channel": 0}, {"type": "note_on", "time": 6, "note": 65, "velocity": 103, "channel": 0}, {"type": "note_off", "time": 40, "note": 65, "velocity": 103, "channel": 0}, {"type": "note_on", "time": 0, "note": 66, "velocity": 102, "channel": 0}, {"type": "note_off", "time": 49, "note": 66, "velocity": 102, "channel": 0}, {"type": "note_on", "time": 4, "note": 67, "velocity": 106, "channel": 0}, {"type": "note_off", "time": 29, "note": 67, "velocity": 106, "channel": 0}, {"type": "note_on", "time": 2, "note": 68, "velocity": 96, "channel": 0}, {"type": "note_off", "time": 38, "note": 68, "velocity": 96, "channel": 0}, {"type": "note_on", "time": 3, "note": 69, "velocity": 98, "channel": 0}, {"type": "note_off", "time": 41, "note": 69, "velocity": 98, "channel": 0}, {"type": "note_on", "time": 7, "note": 70, "velocity": 114, "channel": 0}, {"type": "note_off", "time": 55, "note": 70, "velocity": 114, "channel": 0}, {"type": "note_on", "time": 0, "note": 67, "velocity": 114, "channel": 0}, {"type": "note_off", "time": 49, "note": 67, "velocity": 114, "channel": 0}, {"type": "note_on", "time": 6, "note": 63, "velocity": 87, "channel": 0}, {"type": "note_off", "time": 34, "note": 63, "velocity": 87, "channel": 0}, {"type": "note_on", "time": 18, "note": 60, "velocity": 96, "channel": 0}, {"type": "note_off", "time": 79, "note": 60, "velocity": 96, "channel": 0}, {"type": "note_on", "time": 12, "note": 65, "velocity": 103, "channel": 0}, {"type": "note_off", "time": 46, "note": 65, "velocity": 103, "channel": 0}, {"type": "note_on", "time": 6, "note": 64, "velocity": 91, "channel": 0}, {"type": "note_off", "time": 40, "note": 64, "velocity": 91, "channel": 0}, {"type": "note_on", "time": 17, "note": 63, "velocity": 88, "channel": 0}, {"type": "note_off", "time": 70, "note": 63, "velocity": 88, "channel": 0}, {"type": "note_on", "time": 8, "note": 65, "velocity": 104, "channel": 0}, {"type": "note_off", "time": 48, "note": 65, "velocity": 104, "channel": 0}, {"type": "note_on", "time": 3, "note": 67, "velocity": 92, "channel": 0}, {"type": "note_off", "time": 41, "note": 67, "velocity": 92, "channel": 0}, {"type": "note_on", "time": 5, "note": 68, "velocity": 91, "channel": 0}, {"type": "note_off", "time": 48, "note": 68, "velocity": 91, "channel": 0}, {"type": "note_on", "time": 6, "note": 69, "velocity": 106, "channel": 0}, {"type": "note_off", "time": 42, "note": 69, "velocity": 106, "channel": 0}, {"type": "note_on", "time": 5, "note": 70, "velocity": 95, "channel": 0}, {"type": "note_off", "time": 39, "note": 70, "velocity": 95, "channel": 0}, {"type": "note_on", "time": 2, "note": 72, "velocity": 104, "channel": 0}, {"type": "note_off", "time": 45, "note": 72, "velocity": 104, "channel": 0}, {"type": "note_on", "time": 3, "note": 70, "velocity": 111, "channel": 0}, {"type": "note_off", "time": 44, "note": 70, "velocity": 111, "channel": 0}, {"type": "note_on", "time": 6, "note": 69, "velocity": 102, "channel": 0}, {"type": "note_off", "time": 34, "note": 69, "velocity": 102, "channel": 0}, {"type": "note_on", "time": 5, "note": 70, "velocity": 91, "channel": 0}, {"type": "note_off", "time": 36, "note": 70, "velocity": 91, "channel": 0}, {"type": "note_on", "time": 6, "note": 75, "velocity": 116, "channel": 0}, {"type": "note_off", "time": 55, "note": 75, "velocity": 116, "channel": 0}, {"type": "note_on", "time": 2, "note": 73, "velocity": 100, "channel": 0}, {"type": "note_off", "time": 53, "note": 73, "velocity": 100, "channel": 0}, {"type": "note_on", "time": 3, "note": 75, "velocity": 104, "channel": 0}, {"type": "note_off", "time": 36, "note": 75, "velocity": 104, "channel": 0}, {"type": "note_on", "time": 5, "note": 73, "velocity": 104, "channel": 0}, {"type": "note_off", "time": 51, "note": 73, "velocity": 104, "channel": 0}, {"type": "note_on", "time": 1, "note": 72, "velocity": 105, "channel": 0}, {"type": "note_off", "time": 43, "note": 72, "velocity": 105, "channel": 0}, {"type": "note_on", "time": 10, "note": 71, "velocity": 104, "channel": 0}, {"type": "note_off", "time": 46, "note": 71, "velocity": 104, "channel": 0}, {"type": "note_on", "time": 5, "note": 70, "velocity": 110, "channel": 0}, {"type": "note_off", "time": 44, "note": 70, "velocity": 110, "channel": 0}, {"type": "note_on", "time": 1, "note": 69, "velocity": 112, "channel": 0}, {"type": "note_off", "time": 32, "note": 69, "velocity": 112, "channel": 0}, {"type": "note_on", "time": 1, "note": 68, "velocity": 119, "channel": 0}, {"type": "note_off", "time": 47, "note": 68, "velocity": 119, "channel": 0}, {"type": "note_on", "time": 1, "note": 67, "velocity": 115, "channel": 0}, {"type": "note_off", "time": 46, "note": 67, "velocity": 115, "channel": 0}, {"type": "note_on", "time": 4, "note": 65, "velocity": 101, "channel": 0}, {"type": "note_off", "time": 47, "note": 65, "velocity": 101, "channel": 0}, {"type": "note_on", "time": 2, "note": 64, "velocity": 92, "channel": 0}, {"type": "note_off", "time": 45, "note": 64, "velocity": 92, "channel": 0}, {"type": "note_on", "time": 0, "note": 63, "velocity": 90, "channel": 0}, {"type": "note_off", "time": 44, "note": 63, "velocity": 90, "channel": 0}, {"type": "note_on", "time": 2, "note": 65, "velocity": 111, "channel": 0}, {"type": "note_off", "time": 52, "note": 65, "velocity": 111, "channel": 0}, {"type": "note_on", "time": 9, "note": 66, "velocity": 111, "channel": 0}, {"type": "note_off", "time": 39, "note": 66, "velocity": 111, "channel": 0}, {"type": "note_on", "time": 5, "note": 65, "velocity": 107, "channel": 0}, {"type": "note_off", "time": 42, "note": 65, "velocity": 107, "channel": 0}, {"type": "note_on", "time": 9, "note": 63, "velocity": 90, "channel": 0}, {"type": "note_off", "time": 29, "note": 63, "velocity": 90, "channel": 0}, {"type": "note_on", "time": 7, "note": 61, "velocity": 91, "channel": 0}, {"type": "note_off", "time": 44, "note": 61, "velocity": 91, "channel": 0}, {"type": "note_on", "time": 4, "note": 62, "velocity": 91, "channel": 0}, {"type": "note_off", "time": 33, "note": 62, "velocity": 91, "channel": 0}, {"type": "note_on", "time": 4, "note": 65, "velocity": 112, "channel": 0}, {"type": "note_off", "time": 62, "note": 65, "velocity": 112, "channel": 0}, {"type": "note_on", "time": 2, "note": 64, "velocity": 94, "channel": 0}, {"type": "note_off", "time": 39, "note": 64, "velocity": 94, "channel": 0}, {"type": "note_on", "time": 2, "note": 62, "velocity": 90, "channel": 0}, {"type": "note_off", "time": 47, "note": 62, "velocity": 90, "channel": 0}, {"type": "note_on", "time": 3, "note": 63, "velocity": 83, "channel": 0}, {"type": "note_off", "time": 42, "note": 63, "velocity": 83, "channel": 0}, {"type": "note_on", "time": 5, "note": 65, "velocity": 105, "channel": 0}, {"type": "note_off", "time": 49, "note": 65, "velocity": 105, "channel": 0}, {"type": "note_on", "time": 4, "note": 67, "velocity": 89, "channel": 0}, {"type": "note_off", "time": 34, "note": 67, "velocity": 89, "channel": 0}, {"type": "note_on", "time": 2, "note": 70, "velocity": 80, "channel": 0}, {"type": "note_off", "time": 38, "note": 70, "velocity": 80, "channel": 0}, {"type": "note_on", "time": 3, "note": 72, "velocity": 90, "channel": 0}, {"type": "note_off", "time": 39, "note": 72, "velocity": 90, "channel": 0}, {"type": "note_on", "time": 1, "note": 75, "velocity": 116, "channel": 0}, {"type": "note_off", "time": 63, "note": 75, "velocity": 116, "channel": 0}, {"type": "note_on", "time": 6, "note": 72, "velocity": 107, "channel": 0}, {"type": "note_off", "time": 65, "note": 72, "velocity": 107, "channel": 0}, {"type": "note_on", "time": 579, "note": 75, "velocity": 108, "channel": 0}, {"type": "note_off", "time": 88, "note": 75, "velocity": 108, "channel": 0}, {"type": "note_on", "time": 4, "note": 76, "velocity": 118, "channel": 0}, {"type": "note_off", "time": 37, "note": 76, "velocity": 118, "channel": 0}, {"type": "note_on", "time": 1, "note": 75, "velocity": 115, "channel": 0}, {"type": "note_off", "time": 62, "note": 75, "velocity": 115, "channel": 0}, {"type": "note_on", "time": 2, "note": 74, "velocity": 116, "channel": 0}, {"type": "note_off", "time": 113, "note": 74, "velocity": 116, "channel": 0}, {"type": "note_on", "time": 3, "note": 72, "velocity": 119, "channel": 0}, {"type": "note_off", "time": 85, "note": 72, "velocity": 119, "channel": 0}, {"type": "note_on", "time": 3, "note": 70, "velocity": 110, "channel": 0}, {"type": "note_off", "time": 110, "note": 70, "velocity": 110, "channel": 0}, {"type": "note_on", "time": 3, "note": 68, "velocity": 119, "channel": 0}, {"type": "note_off", "time": 82, "note": 68, "velocity": 119, "channel": 0}, {"type": "note_on", "time": 5, "note": 67, "velocity": 118, "channel": 0}, {"type": "note_off", "time": 162, "note": 67, "velocity": 118, "channel": 0}, {"type": "note_on", "time": 40, "note": 68, "velocity": 119, "channel": 0}, {"type": "note_off", "time": 99, "note": 68, "velocity": 119, "channel": 0}, {"type": "note_on", "time": 6, "note": 69, "velocity": 109, "channel": 0}, {"type": "note_off", "time": 75, "note": 69, "velocity": 109, "channel": 0}, {"type": "note_on", "time": 5, "note": 70, "velocity": 110, "channel": 0}, {"type": "note_off", "time": 111, "note": 70, "velocity": 110, "channel": 0}, {"type": "note_on", "time": 1, "note": 68, "velocity": 122, "channel": 0}, {"type": "note_off", "time": 80, "note": 68, "velocity": 122, "channel": 0}, {"type": "note_on", "time": 3, "note": 67, "velocity": 116, "channel": 0}, {"type": "note_off", "time": 104, "note": 67, "velocity": 116, "channel": 0}, {"type": "note_on", "time": 3, "note": 65, "velocity": 110, "channel": 0}, {"type": "note_off", "time": 85, "note": 65, "velocity": 110, "channel": 0}, {"type": "note_on", "time": 9, "note": 63, "velocity": 97, "channel": 0}, {"type": "note_off", "time": 102, "note": 63, "velocity": 97, "channel": 0}, {"type": "note_on", "time": 8, "note": 62, "velocity": 102, "channel": 0}, {"type": "note_off", "time": 80, "note": 62, "velocity": 102, "channel": 0}, {"type": "note_on", "time": 14, "note": 61, "velocity": 96, "channel": 0}, {"type": "note_off", "time": 97, "note": 61, "velocity": 96, "channel": 0}, {"type": "note_on", "time": 14, "note": 63, "velocity": 9, "channel": 0}, {"type": "note_off", "time": 104, "note": 63, "velocity": 9, "channel": 0}, {"type": "note_on", "time": 8, "note": 64, "velocity": 101, "channel": 0}, {"type": "note_off", "time": 72, "note": 64, "velocity": 101, "channel": 0}, {"type": "note_on", "time": 14, "note": 67, "velocity": 120, "channel": 0}, {"type": "note_off", "time": 72, "note": 67, "velocity": 120, "channel": 0}, {"type": "note_on", "time": 9, "note": 71, "velocity": 114, "channel": 0}, {"type": "note_off", "time": 122, "note": 71, "velocity": 114, "channel": 0}, {"type": "note_on", "time": 9, "note": 67, "velocity": 105, "channel": 0}, {"type": "note_off", "time": 45, "note": 67, "velocity": 105, "channel": 0}, {"type": "note_on", "time": 7, "note": 70, "velocity": 117, "channel": 0}, {"type": "note_off", "time": 146, "note": 70, "velocity": 117, "channel": 0}, {"type": "note_on", "time": 4, "note": 68, "velocity": 104, "channel": 0}, {"type": "note_off", "time": 39, "note": 68, "velocity": 104, "channel": 0}, {"type": "note_on", "time": 16, "note": 70, "velocity": 114, "channel": 0}, {"type": "note_off", "time": 191, "note": 70, "velocity": 114, "channel": 0}, {"type": "note_on", "time": 5, "note": 68, "velocity": 115, "channel": 0}, {"type": "note_off", "time": 107, "note": 68, "velocity": 115, "channel": 0}, {"type": "note_on", "time": 10, "note": 67, "velocity": 119, "channel": 0}, {"type": "note_off", "time": 79, "note": 67, "velocity": 119, "channel": 0}, {"type": "note_on", "time": 15, "note": 65, "velocity": 106, "channel": 0}, {"type": "note_off", "time": 114, "note": 65, "velocity": 106, "channel": 0}, {"type": "note_on", "time": 6, "note": 63, "velocity": 81, "channel": 0}, {"type": "note_off", "time": 32, "note": 63, "velocity": 81, "channel": 0}, {"type": "note_on", "time": 15, "note": 72, "velocity": 121, "channel": 0}, {"type": "note_off", "time": 147, "note": 72, "velocity": 121, "channel": 0}, {"type": "note_on", "time": 6, "note": 70, "velocity": 104, "channel": 0}, {"type": "note_off", "time": 51, "note": 70, "velocity": 104, "channel": 0}, {"type": "note_on", "time": 4, "note": 73, "velocity": 105, "channel": 0}, {"type": "note_off", "time": 182, "note": 73, "velocity": 105, "channel": 0}, {"type": "note_on", "time": 67, "note": 65, "velocity": 102, "channel": 0}, {"type": "note_off", "time": 76, "note": 65, "velocity": 102, "channel": 0}, {"type": "note_on", "time": 9, "note": 67, "velocity": 119, "channel": 0}, {"type": "note_off", "time": 86, "note": 67, "velocity": 119, "channel": 0}, {"type": "note_on", "time": 2, "note": 68, "velocity": 122, "channel": 0}, {"type": "note_off", "time": 107, "note": 68, "velocity": 122, "channel": 0}, {"type": "note_on", "time": 2, "note": 69, "velocity": 113, "channel": 0}, {"type": "note_off", "time": 77, "note": 69, "velocity": 113, "channel": 0}, {"type": "note_on", "time": 9, "note": 70, "velocity": 109, "channel": 0}, {"type": "note_off", "time": 104, "note": 70, "velocity": 109, "channel": 0}, {"type": "note_on", "time": 0, "note": 67, "velocity": 112, "channel": 0}, {"type": "note_off", "time": 78, "note": 67, "velocity": 112, "channel": 0}, {"type": "note_on", "time": 5, "note": 63, "velocity": 87, "channel": 0}, {"type": "note_off", "time": 122, "note": 63, "velocity": 87, "channel": 0}, {"type": "note_on", "time": 4, "note": 65, "velocity": 110, "channel": 0}, {"type": "note_off", "time": 48, "note": 65, "velocity": 110, "channel": 0}, {"type": "note_on", "time": 9, "note": 68, "velocity": 114, "channel": 0}, {"type": "note_off", "time": 145, "note": 68, "velocity": 114, "channel": 0}, {"type": "note_on", "time": 5, "note": 65, "velocity": 94, "channel": 0}, {"type": "note_off", "time": 224, "note": 65, "velocity": 94, "channel": 0}, {"type": "note_on", "time": 616, "note": 72, "velocity": 122, "channel": 0}, {"type": "note_off", "time": 77, "note": 72, "velocity": 122, "channel": 0}, {"type": "note_on", "time": 5, "note": 74, "velocity": 104, "channel": 0}, {"type": "note_off", "time": 43, "note": 74, "velocity": 104, "channel": 0}, {"type": "note_on", "time": 3, "note": 77, "velocity": 120, "channel": 0}, {"type": "note_off", "time": 75, "note": 77, "velocity": 120, "channel": 0}, {"type": "note_on", "time": 0, "note": 79, "velocity": 125, "channel": 0}, {"type": "note_off", "time": 146, "note": 79, "velocity": 125, "channel": 0}, {"type": "note_on", "time": 8, "note": 72, "velocity": 115, "channel": 0}, {"type": "note_off", "time": 114, "note": 72, "velocity": 115, "channel": 0}, {"type": "note_on", "time": 265, "note": 77, "velocity": 125, "channel": 0}, {"type": "note_off", "time": 57, "note": 77, "velocity": 125, "channel": 0}, {"type": "note_on", "time": 9, "note": 72, "velocity": 103, "channel": 0}, {"type": "note_off", "time": 60, "note": 72, "velocity": 103, "channel": 0}, {"type": "note_on", "time": 14, "note": 68, "velocity": 114, "channel": 0}, {"type": "note_off", "time": 58, "note": 68, "velocity": 114, "channel": 0}, {"type": "note_on", "time": 12, "note": 65, "velocity": 99, "channel": 0}, {"type": "note_off", "time": 40, "note": 65, "velocity": 99, "channel": 0}, {"type": "note_on", "time": 38, "note": 70, "velocity": 116, "channel": 0}, {"type": "note_off", "time": 46, "note": 70, "velocity": 116, "channel": 0}, {"type": "note_on", "time": 1, "note": 72, "velocity": 108, "channel": 0}, {"type": "note_off", "time": 73, "note": 72, "velocity": 108, "channel": 0}, {"type": "note_on", "time": 2, "note": 70, "velocity": 114, "channel": 0}, {"type": "note_off", "time": 55, "note": 70, "velocity": 114, "channel": 0}, {"type": "note_on", "time": 9, "note": 69, "velocity": 101, "channel": 0}, {"type": "note_off", "time": 63, "note": 69, "velocity": 101, "channel": 0}, {"type": "note_on", "time": 9, "note": 70, "velocity": 103, "channel": 0}, {"type": "note_off", "time": 49, "note": 70, "velocity": 103, "channel": 0}, {"type": "note_on", "time": 2, "note": 72, "velocity": 86, "channel": 0}, {"type": "note_off", "time": 55, "note": 72, "velocity": 86, "channel": 0}, {"type": "note_on", "time": 22, "note": 73, "velocity": 109, "channel": 0}, {"type": "note_off", "time": 149, "note": 73, "velocity": 109, "channel": 0}, {"type": "note_on", "time": 58, "note": 67, "velocity": 120, "channel": 0}, {"type": "note_off", "time": 94, "note": 67, "velocity": 120, "channel": 0}, {"type": "note_on", "time": 11, "note": 70, "velocity": 116, "channel": 0}, {"type": "note_off", "time": 78, "note": 70, "velocity": 116, "channel": 0}, {"type": "note_on", "time": 10, "note": 69, "velocity": 108, "channel": 0}, {"type": "note_off", "time": 109, "note": 69, "velocity": 108, "channel": 0}, {"type": "note_on", "time": 2, "note": 72, "velocity": 115, "channel": 0}, {"type": "note_off", "time": 68, "note": 72, "velocity": 115, "channel": 0}, {"type": "note_on", "time": 24, "note": 67, "velocity": 117, "channel": 0}, {"type": "note_off", "time": 88, "note": 67, "velocity": 117, "channel": 0}, {"type": "note_on", "time": 6, "note": 66, "velocity": 111, "channel": 0}, {"type": "note_off", "time": 70, "note": 66, "velocity": 111, "channel": 0}, {"type": "note_on", "time": 7, "note": 65, "velocity": 110, "channel": 0}, {"type": "note_off", "time": 77, "note": 65, "velocity": 110, "channel": 0}, {"type": "note_on", "time": 118, "note": 74, "velocity": 117, "channel": 0}, {"type": "note_off", "time": 105, "note": 74, "velocity": 117, "channel": 0}, {"type": "note_on", "time": 5, "note": 75, "velocity": 117, "channel": 0}, {"type": "note_off", "time": 86, "note": 75, "velocity": 117, "channel": 0}, {"type": "note_on", "time": 8, "note": 74, "velocity": 124, "channel": 0}, {"type": "note_off", "time": 108, "note": 74, "velocity": 124, "channel": 0}, {"type": "note_on", "time": 9, "note": 72, "velocity": 116, "channel": 0}, {"type": "note_off", "time": 78, "note": 72, "velocity": 116, "channel": 0}, {"type": "note_on", "time": 10, "note": 70, "velocity": 112, "channel": 0}, {"type": "note_off", "time": 108, "note": 70, "velocity": 112, "channel": 0}, {"type": "note_on", "time": 2, "note": 69, "velocity": 117, "channel": 0}, {"type": "note_off", "time": 73, "note": 69, "velocity": 117, "channel": 0}, {"type": "note_on", "time": 36, "note": 68, "velocity": 118, "channel": 0}, {"type": "note_off", "time": 91, "note": 68, "velocity": 118, "channel": 0}, {"type": "note_on", "time": 6, "note": 67, "velocity": 118, "channel": 0}, {"type": "note_off", "time": 87, "note": 67, "velocity": 118, "channel": 0}, {"type": "note_on", "time": 4, "note": 65, "velocity": 100, "channel": 0}, {"type": "note_off", "time": 99, "note": 65, "velocity": 100, "channel": 0}, {"type": "note_on", "time": 30, "note": 64, "velocity": 101, "channel": 0}, {"type": "note_off", "time": 39, "note": 64, "velocity": 101, "channel": 0}, {"type": "note_on", "time": 4, "note": 63, "velocity": 84, "channel": 0}, {"type": "note_off", "time": 150, "note": 63, "velocity": 84, "channel": 0}, {"type": "note_on", "time": 19, "note": 67, "velocity": 104, "channel": 0}, {"type": "note_off", "time": 44, "note": 67, "velocity": 104, "channel": 0}, {"type": "note_on", "time": 24, "note": 70, "velocity": 116, "channel": 0}, {"type": "note_off", "time": 113, "note": 70, "velocity": 116, "channel": 0}, {"type": "note_on", "time": 78, "note": 63, "velocity": 87, "channel": 0}, {"type": "note_off", "time": 153, "note": 63, "velocity": 87, "channel": 0}, {"type": "note_on", "time": 45, "note": 67, "velocity": 124, "channel": 0}, {"type": "note_off", "time": 103, "note": 67, "velocity": 124, "channel": 0}, {"type": "note_on", "time": 0, "note": 70, "velocity": 115, "channel": 0}, {"type": "note_off", "time": 73, "note": 70, "velocity": 115, "channel": 0}, {"type": "note_on", "time": 5, "note": 65, "velocity": 94, "channel": 0}, {"type": "note_off", "time": 86, "note": 65, "velocity": 94, "channel": 0}, {"type": "note_on", "time": 29, "note": 68, "velocity": 119, "channel": 0}, {"type": "note_off", "time": 81, "note": 68, "velocity": 119, "channel": 0}, {"type": "note_on", "time": 0, "note": 72, "velocity": 111, "channel": 0}, {"type": "note_off", "time": 185, "note": 72, "velocity": 111, "channel": 0}, {"type": "note_on", "time": 25, "note": 66, "velocity": 110, "channel": 0}, {"type": "note_off", "time": 109, "note": 66, "velocity": 110, "channel": 0}, {"type": "note_on", "time": 5, "note": 69, "velocity": 110, "channel": 0}, {"type": "note_off", "time": 51, "note": 69, "velocity": 110, "channel": 0}, {"type": "note_on", "time": 23, "note": 74, "velocity": 117, "channel": 0}, {"type": "note_off", "time": 109, "note": 74, "velocity": 117, "channel": 0}, {"type": "note_on", "time": 2, "note": 72, "velocity": 107, "channel": 0}, {"type": "note_off", "time": 76, "note": 72, "velocity": 107, "channel": 0}, {"type": "note_on", "time": 1, "note": 70, "velocity": 111, "channel": 0}, {"type": "note_off", "time": 121, "note": 70, "velocity": 111, "channel": 0}, {"type": "note_on", "time": 14, "note": 72, "velocity": 92, "channel": 0}, {"type": "note_off", "time": 38, "note": 72, "velocity": 92, "channel": 0}, {"type": "note_on", "time": 30, "note": 75, "velocity": 117, "channel": 0}, {"type": "note_off", "time": 108, "note": 75, "velocity": 117, "channel": 0}, {"type": "note_on", "time": 0, "note": 72, "velocity": 117, "channel": 0}, {"type": "note_off", "time": 84, "note": 72, "velocity": 117, "channel": 0}, {"type": "note_on", "time": 1, "note": 70, "velocity": 113, "channel": 0}, {"type": "note_off", "time": 112, "note": 70, "velocity": 113, "channel": 0}, {"type": "note_on", "time": 96, "note": 67, "velocity": 118, "channel": 0}, {"type": "note_off", "time": 101, "note": 67, "velocity": 118, "channel": 0}, {"type": "note_on", "time": 11, "note": 70, "velocity": 115, "channel": 0}, {"type": "note_off", "time": 67, "note": 70, "velocity": 115, "channel": 0}, {"type": "note_on", "time": 13, "note": 68, "velocity": 114, "channel": 0}, {"type": "note_off", "time": 134, "note": 68, "velocity": 114, "channel": 0}, {"type": "note_on", "time": 196, "note": 58, "velocity": 115, "channel": 0}, {"type": "note_off", "time": 76, "note": 58, "velocity": 115, "channel": 0}, {"type": "note_on", "time": 39, "note": 71, "velocity": 105, "channel": 0}, {"type": "note_off", "time": 76, "note": 71, "velocity": 105, "channel": 0}, {"type": "note_on", "time": 17, "note": 67, "velocity": 120, "channel": 0}, {"type": "note_off", "time": 75, "note": 67, "velocity": 120, "channel": 0}, {"type": "note_on", "time": 9, "note": 65, "velocity": 108, "channel": 0}, {"type": "note_off", "time": 79, "note": 65, "velocity": 108, "channel": 0}, {"type": "note_on", "time": 20, "note": 62, "velocity": 101, "channel": 0}, {"type": "note_off", "time": 68, "note": 62, "velocity": 101, "channel": 0}, {"type": "note_on", "time": 19, "note": 58, "velocity": 110, "channel": 0}, {"type": "note_off", "time": 91, "note": 58, "velocity": 110, "channel": 0}, {"type": "note_on", "time": 37, "note": 58, "velocity": 102, "channel": 0}, {"type": "note_off", "time": 255, "note": 58, "velocity": 102, "channel": 0}, {"type": "note_on", "time": 591, "note": 60, "velocity": 107, "channel": 0}, {"type": "note_off", "time": 40, "note": 60, "velocity": 107, "channel": 0}, {"type": "note_on", "time": 6, "note": 62, "velocity": 93, "channel": 0}, {"type": "note_off", "time": 47, "note": 62, "velocity": 93, "channel": 0}, {"type": "note_on", "time": 10, "note": 63, "velocity": 85, "channel": 0}, {"type": "note_off", "time": 49, "note": 63, "velocity": 85, "channel": 0}, {"type": "note_on", "time": 10, "note": 65, "velocity": 112, "channel": 0}, {"type": "note_off", "time": 69, "note": 65, "velocity": 112, "channel": 0}, {"type": "note_on", "time": 161, "note": 61, "velocity": 99, "channel": 0}, {"type": "note_off", "time": 44, "note": 61, "velocity": 99, "channel": 0}, {"type": "note_on", "time": 4, "note": 62, "velocity": 91, "channel": 0}, {"type": "note_off", "time": 49, "note": 62, "velocity": 91, "channel": 0}, {"type": "note_on", "time": 7, "note": 65, "velocity": 113, "channel": 0}, {"type": "note_off", "time": 49, "note": 65, "velocity": 113, "channel": 0}, {"type": "note_on", "time": 10, "note": 64, "velocity": 97, "channel": 0}, {"type": "note_off", "time": 32, "note": 64, "velocity": 97, "channel": 0}, {"type": "note_on", "time": 1, "note": 63, "velocity": 94, "channel": 0}, {"type": "note_off", "time": 47, "note": 63, "velocity": 94, "channel": 0}, {"type": "note_on", "time": 3, "note": 65, "velocity": 109, "channel": 0}, {"type": "note_off", "time": 47, "note": 65, "velocity": 109, "channel": 0}, {"type": "note_on", "time": 4, "note": 67, "velocity": 99, "channel": 0}, {"type": "note_off", "time": 38, "note": 67, "velocity": 99, "channel": 0}, {"type": "note_on", "time": 3, "note": 68, "velocity": 102, "channel": 0}, {"type": "note_off", "time": 49, "note": 68, "velocity": 102, "channel": 0}, {"type": "note_on", "time": 17, "note": 70, "velocity": 114, "channel": 0}, {"type": "note_off", "time": 94, "note": 70, "velocity": 114, "channel": 0}, {"type": "note_on", "time": 90, "note": 66, "velocity": 106, "channel": 0}, {"type": "note_off", "time": 48, "note": 66, "velocity": 106, "channel": 0}, {"type": "note_on", "time": 6, "note": 67, "velocity": 93, "channel": 0}, {"type": "note_off", "time": 39, "note": 67, "velocity": 93, "channel": 0}, {"type": "note_on", "time": 9, "note": 70, "velocity": 117, "channel": 0}, {"type": "note_off", "time": 50, "note": 70, "velocity": 117, "channel": 0}, {"type": "note_on", "time": 5, "note": 69, "velocity": 106, "channel": 0}, {"type": "note_off", "time": 32, "note": 69, "velocity": 106, "channel": 0}, {"type": "note_on", "time": 9, "note": 67, "velocity": 99, "channel": 0}, {"type": "note_off", "time": 49, "note": 67, "velocity": 99, "channel": 0}, {"type": "note_on", "time": 7, "note": 68, "velocity": 96, "channel": 0}, {"type": "note_off", "time": 45, "note": 68, "velocity": 96, "channel": 0}, {"type": "note_on", "time": 3, "note": 70, "velocity": 94, "channel": 0}, {"type": "note_off", "time": 40, "note": 70, "velocity": 94, "channel": 0}, {"type": "note_on", "time": 5, "note": 72, "velocity": 92, "channel": 0}, {"type": "note_off", "time": 36, "note": 72, "velocity": 92, "channel": 0}, {"type": "note_on", "time": 9, "note": 75, "velocity": 117, "channel": 0}, {"type": "note_off", "time": 59, "note": 75, "velocity": 117, "channel": 0}, {"type": "note_on", "time": 4, "note": 72, "velocity": 114, "channel": 0}, {"type": "note_off", "time": 38, "note": 72, "velocity": 114, "channel": 0}, {"type": "note_on", "time": 4, "note": 73, "velocity": 105, "channel": 0}, {"type": "note_off", "time": 47, "note": 73, "velocity": 105, "channel": 0}, {"type": "note_on", "time": 2, "note": 74, "velocity": 108, "channel": 0}, {"type": "note_off", "time": 47, "note": 74, "velocity": 108, "channel": 0}, {"type": "note_on", "time": 5, "note": 70, "velocity": 111, "channel": 0}, {"type": "note_off", "time": 50, "note": 70, "velocity": 111, "channel": 0}, {"type": "note_on", "time": 4, "note": 71, "velocity": 99, "channel": 0}, {"type": "note_off", "time": 34, "note": 71, "velocity": 99, "channel": 0}, {"type": "note_on", "time": 7, "note": 72, "velocity": 115, "channel": 0}, {"type": "note_off", "time": 52, "note": 72, "velocity": 115, "channel": 0}, {"type": "note_on", "time": 1, "note": 66, "velocity": 104, "channel": 0}, {"type": "note_off", "time": 36, "note": 66, "velocity": 104, "channel": 0}, {"type": "note_on", "time": 71, "note": 70, "velocity": 114, "channel": 0}, {"type": "note_off", "time": 49, "note": 70, "velocity": 114, "channel": 0}, {"type": "note_on", "time": 6, "note": 69, "velocity": 106, "channel": 0}, {"type": "note_off", "time": 45, "note": 69, "velocity": 106, "channel": 0}, {"type": "note_on", "time": 2, "note": 67, "velocity": 100, "channel": 0}, {"type": "note_off", "time": 29, "note": 67, "velocity": 100, "channel": 0}, {"type": "note_on", "time": 3, "note": 68, "velocity": 120, "channel": 0}, {"type": "note_off", "time": 56, "note": 68, "velocity": 120, "channel": 0}, {"type": "note_on", "time": 2, "note": 67, "velocity": 118, "channel": 0}, {"type": "note_off", "time": 49, "note": 67, "velocity": 118, "channel": 0}, {"type": "note_on", "time": 1, "note": 65, "velocity": 100, "channel": 0}, {"type": "note_off", "time": 39, "note": 65, "velocity": 100, "channel": 0}, {"type": "note_on", "time": 9, "note": 64, "velocity": 95, "channel": 0}, {"type": "note_off", "time": 38, "note": 64, "velocity": 95, "channel": 0}, {"type": "note_on", "time": 6, "note": 63, "velocity": 91, "channel": 0}, {"type": "note_off", "time": 59, "note": 63, "velocity": 91, "channel": 0}, {"type": "note_on", "time": 6, "note": 70, "velocity": 107, "channel": 0}, {"type": "note_off", "time": 82, "note": 70, "velocity": 107, "channel": 0}, {"type": "end_of_track", "time": 0}]]}