{"ticks_per_beat": 192, "tracks": [[{"type": "track_name", "name": "Melody", "time": 0}, {"type": "set_tempo", "tempo": 188679, "time": 0}, {"type": "key_signature", "key": "F", "time": 0}, {"type": "time_signature", "numerator": 4, "denominator": 4, "clocks_per_click": 24, "notated_32nd_notes_per_beat": 8, "time": 0}, {"type": "note_on", "time": 4702, "note": 70, "velocity": 113, "channel": 0}, {"type": "note_off", "time": 115, "note": 70, "velocity": 113, "channel": 0}, {"type": "note_on", "time": 0, "note": 69, "velocity": 111, "channel": 0}, {"type": "note_off", "time": 99, "note": 69, "velocity": 111, "channel": 0}, {"type": "note_on", "time": 4, "note": 66, "velocity": 108, "channel": 0}, {"type": "note_off", "time": 195, "note": 66, "velocity": 108, "channel": 0}, {"type": "note_on", "time": 8, "note": 61, "velocity": 102, "channel": 0}, {"type": "note_off", "time": 207, "note": 61, "velocity": 102, "channel": 0}, {"type": "note_on", "time": 0, "note": 57, "velocity": 99, "channel": 0}, {"type": "note_off", "time": 160, "note": 57, "velocity": 99, "channel": 0}, {"type": "note_on", "time": 10, "note": 64, "velocity": 120, "channel": 0}, {"type": "note_off", "time": 137, "note": 64, "velocity": 120, "channel": 0}, {"type": "note_on", "time": 81, "note": 61, "velocity": 104, "channel": 0}, {"type": "note_off", "time": 120, "note": 61, "velocity": 104, "channel": 0}, {"type": "note_on", "time": 8, "note": 62, "velocity": 106, "channel": 0}, {"type": "note_off", "time": 274, "note": 62, "velocity": 106, "channel": 0}, {"type": "note_on", "time": 45, "note": 64, "velocity": 120, "channel": 0}, {"type": "note_off", "time": 95, "note": 64, "velocity": 120, "channel": 0}, {"type": "note_on", "time": 12, "note": 65, "velocity": 118, "channel": 0}, {"type": "note_off", "time": 141, "note": 65, "velocity": 118, "channel": 0}, {"type": "note_on", "time": 37, "note": 67, "velocity": 118, "channel": 0}, {"type": "note_off", "time": 99, "note": 67, "velocity": 118, "channel": 0}, {"type": "note_on", "time": 93, "note": 69, "velocity": 119, "channel": 0}, {"type": "note_off", "time": 248, "note": 69, "velocity": 119, "channel": 0}, {"type": "note_on", "time": 26, "note": 65, "velocity": 108, "channel": 0}, {"type": "note_off", "time": 88, "note": 65, "velocity": 108, "channel": 0}, {"type": "note_on", "time": 5, "note": 67, "velocity": 110, "channel": 0}, {"type": "note_off", "time": 425, "note": 67, "velocity": 110, "channel": 0}, {"type": "note_on", "time": 150, "note": 65, "velocity": 117, "channel": 0}, {"type": "note_off", "time": 107, "note": 65, "velocity": 117, "channel": 0}, {"type": "note_on", "time": 4, "note": 64, "velocity": 116, "channel": 0}, {"type": "note_off", "time": 87, "note": 64, "velocity": 116, "channel": 0}, {"type": "note_on", "time": 16, "note": 63, "velocity": 106, "channel": 0}, {"type": "note_off", "time": 91, "note": 63, "velocity": 106, "channel": 0}, {"type": "note_on", "time": 16, "note": 67, "velocity": 113, "channel": 0}, {"type": "note_off", "time": 87, "note": 67, "velocity": 113, "channel": 0}, {"type": "note_on", "time": 2, "note": 63, "velocity": 91, "channel": 0}, {"type": "note_off", "time": 70, "note": 63, "velocity": 91, "channel": 0}, {"type": "note_on", "time": 0, "note": 62, "velocity": 85, "channel": 0}, {"type": "note_off", "time": 76, "note": 62, "velocity": 85, "channel": 0}, {"type": "note_on", "time": 49, "note": 65, "velocity": 116, "channel": 0}, {"type": "note_off", "time": 91, "note": 65, "velocity": 116, "channel": 0}, {"type": "note_on", "time": 178, "note": 57, "velocity": 99, "channel": 0}, {"type": "note_off", "time": 88, "note": 57, "velocity": 99, "channel": 0}, {"type": "note_on", "time": 5, "note": 58, "velocity": 98, "channel": 0}, {"type": "note_off", "time": 76, "note": 58, "velocity": 98, "channel": 0}, {"type": "note_on", "time": 26, "note": 63, "velocity": 112, "channel": 0}, {"type": "note_off", "time": 73, "note": 63, "velocity": 112, "channel": 0}, {"type": "note_on", "time": 0, "note": 60, "velocity": 86, "channel": 0}, {"type": "note_off", "time": 100, "note": 60, "velocity": 86, "channel": 0}, {"type": "note_on", "time": 20, "note": 61, "velocity": 108, "channel": 0}, {"type": "note_off", "time": 62, "note": 61, "velocity": 108, "channel": 0}, {"type": "note_on", "time": 5, "note": 62, "velocity": 118, "channel": 0}, {"type": "note_off", "time": 62, "note": 62, "velocity": 118, "channel": 0}, {"type": "note_on", "time": 354, "note": 60, "velocity": 109, "channel": 0}, {"type": "note_off", "time": 97, "note": 60, "velocity": 109, "channel": 0}, {"type": "note_on", "time": 14, "note": 57, "velocity": 102, "channel": 0}, {"type": "note_off", "time": 64, "note": 57, "velocity": 102, "channel": 0}, {"type": "note_on", "time": 5, "note": 58, "velocity": 109, "channel": 0}, {"type": "note_off", "time": 82, "note": 58, "velocity": 109, "channel": 0}, {"type": "note_on", "time": 8, "note": 60, "velocity": 106, "channel": 0}, {"type": "note_off", "time": 88, "note": 60, "velocity": 106, "channel": 0}, {"type": "note_on", "time": 20, "note": 62, "velocity": 99, "channel": 0}, {"type": "note_off", "time": 141, "note": 62, "velocity": 99, "channel": 0}, {"type": "note_on", "time": 44, "note": 67, "velocity": 118, "channel": 0}, {"type": "note_off", "time": 106, "note": 67, "velocity": 118, "channel": 0}, {"type": "note_on", "time": 17, "note": 64, "velocity": 109, "channel": 0}, {"type": "note_off", "time": 56, "note": 64, "velocity": 109, "channel": 0}, {"type": "note_on", "time": 8, "note": 65, "velocity": 119, "channel": 0}, {"type": "note_off", "time": 73, "note": 65, "velocity": 119, "channel": 0}, {"type": "note_on", "time": 32, "note": 61, "velocity": 111, "channel": 0}, {"type": "note_off", "time": 70, "note": 61, "velocity": 111, "channel": 0}, {"type": "note_on", "time": 0, "note": 59, "velocity": 93, "channel": 0}, {"type": "note_off", "time": 73, "note": 59, "velocity": 93, "channel": 0}, {"type": "note_on", "time": 17, "note": 57, "velocity": 107, "channel": 0}, {"type": "note_off", "time": 70, "note": 57, "velocity": 107, "channel": 0}, {"type": "note_on", "time": 8, "note": 56, "velocity": 88, "channel": 0}, {"type": "note_off", "time": 87, "note": 56, "velocity": 88, "channel": 0}, {"type": "note_on", "time": 716, "note": 67, "velocity": 119, "channel": 0}, {"type": "note_off", "time": 109, "note": 67, "velocity": 119, "channel": 0}, {"type": "note_on", "time": 2, "note": 64, "velocity": 111, "channel": 0}, {"type": "note_off", "time": 70, "note": 64, "velocity": 111, "channel": 0}, {"type": "note_on", "time": 8, "note": 65, "velocity": 110, "channel": 0}, {"type": "note_off", "time": 82, "note": 65, "velocity": 110, "channel": 0}, {"type": "note_on", "time": 19, "note": 67, "velocity": 116, "channel": 0}, {"type": "note_off", "time": 64, "note": 67, "velocity": 116, "channel": 0}, {"type": "note_on", "time": 12, "note": 69, "velocity": 107, "channel": 0}, {"type": "note_off", "time": 87, "note": 69, "velocity": 107, "channel": 0}, {"type": "note_on", "time": 0, "note": 67, "velocity": 114, "channel": 0}, {"type": "note_off", "time": 85, "note": 67, "velocity": 114, "channel": 0}, {"type": "note_on", "time": 22, "note": 66, "velocity": 118, "channel": 0}, {"type": "note_off", "time": 95, "note": 66, "velocity": 118, "channel": 0}, {"type": "note_on", "time": 12, "note": 69, "velocity": 118, "channel": 0}, {"type": "note_off", "time": 91, "note": 69, "velocity": 118, "channel": 0}, {"type": "note_on", "time": 14, "note": 67, "velocity": 110, "channel": 0}, {"type": "note_off", "time": 83, "note": 67, "velocity": 110, "channel": 0}, {"type": "note_on", "time": 6, "note": 69, "velocity": 123, "channel": 0}, {"type": "note_off", "time": 83, "note": 69, "velocity": 123, "channel": 0}, {"type": "note_on", "time": 10, "note": 70, "velocity": 125, "channel": 0}, {"type": "note_off", "time": 85, "note": 70, "velocity": 125, "channel": 0}, {"type": "note_on", "time": 3, "note": 72, "velocity": 122, "channel": 0}, {"type": "note_off", "time": 94, "note": 72, "velocity": 122, "channel": 0}, {"type": "note_on", "time": 2, "note": 73, "velocity": 125, "channel": 0}, {"type": "note_off", "time": 88, "note": 73, "velocity": 125, "channel": 0}, {"type": "note_on", "time": 8, "note": 74, "velocity": 111, "channel": 0}, {"type": "note_off", "time": 85, "note": 74, "velocity": 111, "channel": 0}, {"type": "note_on", "time": 0, "note": 72, "velocity": 116, "channel": 0}, {"type": "note_off", "time": 115, "note": 72, "velocity": 116, "channel": 0}, {"type": "note_on", "time": 2, "note": 71, "velocity": 118, "channel": 0}, {"type": "note_off", "time": 88, "note": 71, "velocity": 118, "channel": 0}, {"type": "note_on", "time": 11, "note": 70, "velocity": 119, "channel": 0}, {"type": "note_off", "time": 94, "note": 70, "velocity": 119, "channel": 0}, {"type": "note_on", "time": 20, "note": 69, "velocity": 116, "channel": 0}, {"type": "note_off", "time": 79, "note": 69, "velocity": 116, "channel": 0}, {"type": "note_on", "time": 0, "note": 67, "velocity": 110, "channel": 0}, {"type": "note_off", "time": 100, "note": 67, "velocity": 110, "channel": 0}, {"type": "note_on", "time": 11, "note": 65, "velocity": 115, "channel": 0}, {"type": "note_off", "time": 91, "note": 65, "velocity": 115, "channel": 0}, {"type": "note_on", "time": 11, "note": 64, "velocity": 115, "channel": 0}, {"type": "note_off", "time": 82, "note": 64, "velocity": 115, "channel": 0}, {"type": "note_on", "time": 0, "note": 61, "velocity": 109, "channel": 0}, {"type": "note_off", "time": 88, "note": 61, "velocity": 109, "channel": 0}, {"type": "note_on", "time": 11, "note": 58, "velocity": 99, "channel": 0}, {"type": "note_off", "time": 64, "note": 58, "velocity": 99, "channel": 0}, {"type": "note_on", "time": 14, "note": 59, "velocity": 94, "channel": 0}, {"type": "note_off", "time": 73, "note": 59, "velocity": 94, "channel": 0}, {"type": "note_on", "time": 8, "note": 60, "velocity": 99, "channel": 0}, {"type": "note_off", "time": 79, "note": 60, "velocity": 99, "channel": 0}, {"type": "note_on", "time": 2, "note": 62, "velocity": 99, "channel": 0}, {"type": "note_off", "time": 85, "note": 62, "velocity": 99, "channel": 0}, {"type": "note_on", "time": 5, "note": 64, "velocity": 110, "channel": 0}, {"type": "note_off", "time": 85, "note": 64, "velocity": 110, "channel": 0}, {"type": "note_on", "time": 0, "note": 65, "velocity": 107, "channel": 0}, {"type": "note_off", "time": 88, "note": 65, "velocity": 107, "channel": 0}, {"type": "note_on", "time": 14, "note": 67, "velocity": 107, "channel": 0}, {"type": "note_off", "time": 121, "note": 67, "velocity": 107, "channel": 0}, {"type": "note_on", "time": 14, "note": 64, "velocity": 99, "channel": 0}, {"type": "note_on", "time": 94, "note": 67, "velocity": 96, "channel": 0}, {"type": "note_off", "time": 0, "note": 64, "velocity": 99, "channel": 0}, {"type": "note_off", "time": 109, "note": 67, "velocity": 96, "channel": 0}, {"type": "note_on", "time": 2, "note": 68, "velocity": 110, "channel": 0}, {"type": "note_off", "time": 70, "note": 68, "velocity": 110, "channel": 0}, {"type": "note_on", "time": 26, "note": 68, "velocity": 114, "channel": 0}, {"type": "note_off", "time": 88, "note": 68, "velocity": 114, "channel": 0}, {"type": "note_on", "time": 19, "note": 69, "velocity": 108, "channel": 0}, {"type": "note_off", "time": 121, "note": 69, "velocity": 108, "channel": 0}, {"type": "note_on", "time": 3, "note": 70, "velocity": 107, "channel": 0}, {"type": "note_off", "time": 88, "note": 70, "velocity": 107, "channel": 0}, {"type": "note_on", "time": 20, "note": 70, "velocity": 120, "channel": 0}, {"type": "note_off", "time": 97, "note": 70, "velocity": 120, "channel": 0}, {"type": "note_on", "time": 8, "note": 68, "velocity": 105, "channel": 0}, {"type": "note_off", "time": 79, "note": 68, "velocity": 105, "channel": 0}, {"type": "note_on", "time": 17, "note": 69, "velocity": 108, "channel": 0}, {"type": "note_off", "time": 91, "note": 69, "velocity": 108, "channel": 0}, {"type": "note_on", "time": 7, "note": 70, "velocity": 110, "channel": 0}, {"type": "note_off", "time": 78, "note": 70, "velocity": 110, "channel": 0}, {"type": "note_on", "time": 8, "note": 70, "velocity": 120, "channel": 0}, {"type": "note_off", "time": 66, "note": 70, "velocity": 120, "channel": 0}, {"type": "note_on", "time": 12, "note": 69, "velocity": 113, "channel": 0}, {"type": "note_off", "time": 91, "note": 69, "velocity": 113, "channel": 0}, {"type": "note_on", "time": 18, "note": 68, "velocity": 106, "channel": 0}, {"type": "note_off", "time": 110, "note": 68, "velocity": 106, "channel": 0}, {"type": "note_on", "time": 16, "note": 69, "velocity": 102, "channel": 0}, {"type": "note_off", "time": 74, "note": 69, "velocity": 102, "channel": 0}, {"type": "note_on", "time": 16, "note": 70, "velocity": 113, "channel": 0}, {"type": "note_off", "time": 87, "note": 70, "velocity": 113, "channel": 0}, {"type": "note_on", "time": 12, "note": 69, "velocity": 103, "channel": 0}, {"type": "note_off", "time": 53, "note": 69, "velocity": 103, "channel": 0}, {"type": "note_on", "time": 12, "note": 68, "velocity": 99, "channel": 0}, {"type": "note_off", "time": 118, "note": 68, "velocity": 99, "channel": 0}, {"type": "note_on", "time": 24, "note": 69, "velocity": 99, "channel": 0}, {"type": "note_off", "time": 66, "note": 69, "velocity": 99, "channel": 0}, {"type": "note_on", "time": 10, "note": 70, "velocity": 117, "channel": 0}, {"type": "note_off", "time": 83, "note": 70, "velocity": 117, "channel": 0}, {"type": "note_on", "time": 2, "note": 69, "velocity": 114, "channel": 0}, {"type": "note_off", "time": 83, "note": 69, "velocity": 114, "channel": 0}, {"type": "note_on", "time": 4, "note": 68, "velocity": 102, "channel": 0}, {"type": "note_off", "time": 95, "note": 68, "velocity": 102, "channel": 0}, {"type": "note_on", "time": 18, "note": 69, "velocity": 106, "channel": 0}, {"type": "note_off", "time": 83, "note": 69, "velocity": 106, "channel": 0}, {"type": "note_on", "time": 18, "note": 70, "velocity": 117, "channel": 0}, {"type": "note_off", "time": 87, "note": 70, "velocity": 117, "channel": 0}, {"type": "note_on", "time": 4, "note": 69, "velocity": 113, "channel": 0}, {"type": "note_off", "time": 76, "note": 69, "velocity": 113, "channel": 0}, {"type": "note_on", "time": 14, "note": 68, "velocity": 105, "channel": 0}, {"type": "note_off", "time": 93, "note": 68, "velocity": 105, "channel": 0}, {"type": "note_on", "time": 16, "note": 69, "velocity": 110, "channel": 0}, {"type": "note_off", "time": 78, "note": 69, "velocity": 110, "channel": 0}, {"type": "note_on", "time": 14, "note": 70, "velocity": 119, "channel": 0}, {"type": "note_off", "time": 93, "note": 70, "velocity": 119, "channel": 0}, {"type": "note_on", "time": 6, "note": 69, "velocity": 115, "channel": 0}, {"type": "note_off", "time": 66, "note": 69, "velocity": 115, "channel": 0}, {"type": "note_on", "time": 10, "note": 68, "velocity": 106, "channel": 0}, {"type": "note_off", "time": 91, "note": 68, "velocity": 106, "channel": 0}, {"type": "note_on", "time": 20, "note": 69, "velocity": 104, "channel": 0}, {"type": "note_off", "time": 80, "note": 69, "velocity": 104, "channel": 0}, {"type": "note_on", "time": 14, "note": 70, "velocity": 118, "channel": 0}, {"type": "note_off", "time": 87, "note": 70, "velocity": 118, "channel": 0}, {"type": "note_on", "time": 12, "note": 69, "velocity": 113, "channel": 0}, {"type": "note_off", "time": 56, "note": 69, "velocity": 113, "channel": 0}, {"type": "note_on", "time": 2, "note": 68, "velocity": 104, "channel": 0}, {"type": "note_off", "time": 139, "note": 68, "velocity": 104, "channel": 0}, {"type": "note_on", "time": 4, "note": 69, "velocity": 104, "channel": 0}, {"type": "note_off", "time": 89, "note": 69, "velocity": 104, "channel": 0}, {"type": "note_on", "time": 8, "note": 70, "velocity": 120, "channel": 0}, {"type": "note_off", "time": 70, "note": 70, "velocity": 120, "channel": 0}, {"type": "note_on", "time": 14, "note": 69, "velocity": 111, "channel": 0}, {"type": "note_off", "time": 74, "note": 69, "velocity": 111, "channel": 0}, {"type": "note_on", "time": 12, "note": 68, "velocity": 103, "channel": 0}, {"type": "note_off", "time": 105, "note": 68, "velocity": 103, "channel": 0}, {"type": "note_on", "time": 18, "note": 69, "velocity": 93, "channel": 0}, {"type": "note_off", "time": 45, "note": 69, "velocity": 93, "channel": 0}, {"type": "note_on", "time": 6, "note": 70, "velocity": 119, "channel": 0}, {"type": "note_off", "time": 101, "note": 70, "velocity": 119, "channel": 0}, {"type": "note_on", "time": 14, "note": 69, "velocity": 106, "channel": 0}, {"type": "note_off", "time": 66, "note": 69, "velocity": 106, "channel": 0}, {"type": "note_on", "time": 10, "note": 68, "velocity": 108, "channel": 0}, {"type": "note_off", "time": 101, "note": 68, "velocity": 108, "channel": 0}, {"type": "note_on", "time": 18, "note": 69, "velocity": 111, "channel": 0}, {"type": "note_off", "time": 53, "note": 69, "velocity": 111, "channel": 0}, {"type": "note_on", "time": 6, "note": 74, "velocity": 123, "channel": 0}, {"type": "note_off", "time": 106, "note": 74, "velocity": 123, "channel": 0}, {"type": "note_on", "time": 109, "note": 71, "velocity": 108, "channel": 0}, {"type": "note_off", "time": 103, "note": 71, "velocity": 108, "channel": 0}, {"type": "note_on", "time": 2, "note": 72, "velocity": 117, "channel": 0}, {"type": "note_off", "time": 82, "note": 72, "velocity": 117, "channel": 0}, {"type": "note_on", "time": 0, "note": 73, "velocity": 113, "channel": 0}, {"type": "note_off", "time": 129, "note": 73, "velocity": 113, "channel": 0}, {"type": "note_on", "time": 663, "note": 77, "velocity": 115, "channel": 0}, {"type": "note_off", "time": 83, "note": 77, "velocity": 115, "channel": 0}, {"type": "note_on", "time": 29, "note": 76, "velocity": 121, "channel": 0}, {"type": "note_off", "time": 64, "note": 76, "velocity": 121, "channel": 0}, {"type": "note_on", "time": 10, "note": 75, "velocity": 107, "channel": 0}, {"type": "note_off", "time": 74, "note": 75, "velocity": 107, "channel": 0}, {"type": "note_on", "time": 29, "note": 79, "velocity": 116, "channel": 0}, {"type": "note_off", "time": 97, "note": 79, "velocity": 116, "channel": 0}, {"type": "note_on", "time": 8, "note": 73, "velocity": 108, "channel": 0}, {"type": "note_off", "time": 101, "note": 73, "velocity": 108, "channel": 0}, {"type": "note_on", "time": 4, "note": 70, "velocity": 106, "channel": 0}, {"type": "note_off", "time": 64, "note": 70, "velocity": 106, "channel": 0}, {"type": "note_on", "time": 8, "note": 72, "velocity": 101, "channel": 0}, {"type": "note_off", "time": 105, "note": 72, "velocity": 101, "channel": 0}, {"type": "note_on", "time": 14, "note": 70, "velocity": 119, "channel": 0}, {"type": "note_off", "time": 103, "note": 70, "velocity": 119, "channel": 0}, {"type": "note_on", "time": 6, "note": 67, "velocity": 105, "channel": 0}, {"type": "note_off", "time": 74, "note": 67, "velocity": 105, "channel": 0}, {"type": "note_on", "time": 4, "note": 68, "velocity": 109, "channel": 0}, {"type": "note_off", "time": 66, "note": 68, "velocity": 109, "channel": 0}, {"type": "note_on", "time": 6, "note": 69, "velocity": 117, "channel": 0}, {"type": "note_off", "time": 139, "note": 69, "velocity": 117, "channel": 0}, {"type": "note_on", "time": 24, "note": 61, "velocity": 97, "channel": 0}, {"type": "note_off", "time": 62, "note": 61, "velocity": 97, "channel": 0}, {"type": "note_on", "time": 22, "note": 62, "velocity": 89, "channel": 0}, {"type": "note_off", "time": 64, "note": 62, "velocity": 89, "channel": 0}, {"type": "note_on", "time": 10, "note": 63, "velocity": 92, "channel": 0}, {"type": "note_off", "time": 51, "note": 63, "velocity": 92, "channel": 0}, {"type": "note_on", "time": 6, "note": 65, "velocity": 102, "channel": 0}, {"type": "note_off", "time": 76, "note": 65, "velocity": 102, "channel": 0}, {"type": "note_on", "time": 20, "note": 63, "velocity": 95, "channel": 0}, {"type": "note_off", "time": 83, "note": 63, "velocity": 95, "channel": 0}, {"type": "note_on", "time": 41, "note": 66, "velocity": 118, "channel": 0}, {"type": "note_off", "time": 122, "note": 66, "velocity": 118, "channel": 0}, {"type": "note_on", "time": 37, "note": 57, "velocity": 104, "channel": 0}, {"type": "note_off", "time": 66, "note": 57, "velocity": 104, "channel": 0}, {"type": "note_on", "time": 10, "note": 58, "velocity": 99, "channel": 0}, {"type": "note_off", "time": 72, "note": 58, "velocity": 99, "channel": 0}, {"type": "note_on", "time": 16, "note": 63, "velocity": 118, "channel": 0}, {"type": "note_off", "time": 89, "note": 63, "velocity": 118, "channel": 0}, {"type": "note_on", "time": 14, "note": 62, "velocity": 96, "channel": 0}, {"type": "note_off", "time": 93, "note": 62, "velocity": 96, "channel": 0}, {"type": "note_on", "time": 4, "note": 58, "velocity": 98, "channel": 0}, {"type": "note_off", "time": 78, "note": 58, "velocity": 98, "channel": 0}, {"type": "note_on", "time": 16, "note": 60, "velocity": 99, "channel": 0}, {"type": "note_off", "time": 141, "note": 60, "velocity": 99, "channel": 0}, {"type": "note_on", "time": 137, "note": 60, "velocity": 103, "channel": 0}, {"type": "note_off", "time": 70, "note": 60, "velocity": 103, "channel": 0}, {"type": "note_on", "time": 16, "note": 62, "velocity": 110, "channel": 0}, {"type": "note_off", "time": 95, "note": 62, "velocity": 110, "channel": 0}, {"type": "note_on", "time": 70, "note": 65, "velocity": 118, "channel": 0}, {"type": "note_off", "time": 89, "note": 65, "velocity": 118, "channel": 0}, {"type": "note_on", "time": 132, "note": 67, "velocity": 117, "channel": 0}, {"type": "note_off", "time": 68, "note": 67, "velocity": 117, "channel": 0}, {"type": "note_on", "time": 16, "note": 68, "velocity": 117, "channel": 0}, {"type": "note_off", "time": 105, "note": 68, "velocity": 117, "channel": 0}, {"type": "note_on", "time": 14, "note": 67, "velocity": 119, "channel": 0}, {"type": "note_on", "time": 89, "note": 65, "velocity": 118, "channel": 0}, {"type": "note_off", "time": 0, "note": 67, "velocity": 119, "channel": 0}, {"type": "note_off", "time": 93, "note": 65, "velocity": 118, "channel": 0}, {"type": "note_on", "time": 6, "note": 61, "velocity": 109, "channel": 0}, {"type": "note_off", "time": 72, "note": 61, "velocity": 109, "channel": 0}, {"type": "note_on", "time": 20, "note": 59, "velocity": 103, "channel": 0}, {"type": "note_off", "time": 66, "note": 59, "velocity": 103, "channel": 0}, {"type": "note_on", "time": 16, "note": 60, "velocity": 108, "channel": 0}, {"type": "note_off", "time": 91, "note": 60, "velocity": 108, "channel": 0}, {"type": "note_on", "time": 116, "note": 70, "velocity": 123, "channel": 0}, {"type": "note_off", "time": 101, "note": 70, "velocity": 123, "channel": 0}, {"type": "note_on", "time": 0, "note": 68, "velocity": 113, "channel": 0}, {"type": "note_off", "time": 87, "note": 68, "velocity": 113, "channel": 0}, {"type": "note_on", "time": 8, "note": 69, "velocity": 117, "channel": 0}, {"type": "note_off", "time": 89, "note": 69, "velocity": 117, "channel": 0}, {"type": "note_on", "time": 114, "note": 67, "velocity": 117, "channel": 0}, {"type": "note_off", "time": 101, "note": 67, "velocity": 117, "channel": 0}, {"type": "note_on", "time": 16, "note": 64, "velocity": 114, "channel": 0}, {"type": "note_off", "time": 70, "note": 64, "velocity": 114, "channel": 0}, {"type": "note_on", "time": 17, "note": 66, "velocity": 108, "channel": 0}, {"type": "note_off", "time": 72, "note": 66, "velocity": 108, "channel": 0}, {"type": "note_on", "time": 12, "note": 69, "velocity": 111, "channel": 0}, {"type": "note_off", "time": 66, "note": 69, "velocity": 111, "channel": 0}, {"type": "note_on", "time": 20, "note": 63, "velocity": 108, "channel": 0}, {"type": "note_off", "time": 80, "note": 63, "velocity": 108, "channel": 0}, {"type": "note_on", "time": 12, "note": 61, "velocity": 98, "channel": 0}, {"type": "note_off", "time": 74, "note": 61, "velocity": 98, "channel": 0}, {"type": "note_on", "time": 20, "note": 61, "velocity": 95, "channel": 0}, {"type": "note_off", "time": 91, "note": 61, "velocity": 95, "channel": 0}, {"type": "note_on", "time": 116, "note": 69, "velocity": 114, "channel": 0}, {"type": "note_off", "time": 78, "note": 69, "velocity": 114, "channel": 0}, {"type": "note_on", "time": 16, "note": 66, "velocity": 113, "channel": 0}, {"type": "note_off", "time": 62, "note": 66, "velocity": 113, "channel": 0}, {"type": "note_on", "time": 14, "note": 67, "velocity": 112, "channel": 0}, {"type": "note_off", "time": 76, "note": 67, "velocity": 112, "channel": 0}, {"type": "note_on", "time": 20, "note": 69, "velocity": 121, "channel": 0}, {"type": "note_off", "time": 69, "note": 69, "velocity": 121, "channel": 0}, {"type": "note_on", "time": 11, "note": 70, "velocity": 124, "channel": 0}, {"type": "note_off", "time": 70, "note": 70, "velocity": 124, "channel": 0}, {"type": "note_on", "time": 29, "note": 72, "velocity": 127, "channel": 0}, {"type": "note_off", "time": 85, "note": 72, "velocity": 127, "channel": 0}, {"type": "note_on", "time": 20, "note": 73, "velocity": 124, "channel": 0}, {"type": "note_off", "time": 88, "note": 73, "velocity": 124, "channel": 0}, {"type": "note_on", "time": 0, "note": 74, "velocity": 113, "channel": 0}, {"type": "note_off", "time": 75, "note": 74, "velocity": 113, "channel": 0}, {"type": "note_on", "time": 16, "note": 75, "velocity": 107, "channel": 0}, {"type": "note_off", "time": 98, "note": 75, "velocity": 107, "channel": 0}, {"type": "note_on", "time": 14, "note": 71, "velocity": 111, "channel": 0}, {"type": "note_off", "time": 80, "note": 71, "velocity": 111, "channel": 0}, {"type": "note_on", "time": 14, "note": 70, "velocity": 121, "channel": 0}, {"type": "note_off", "time": 89, "note": 70, "velocity": 121, "channel": 0}, {"type": "note_on", "time": 2, "note": 69, "velocity": 119, "channel": 0}, {"type": "note_off", "time": 99, "note": 69, "velocity": 119, "channel": 0}, {"type": "note_on", "time": 14, "note": 67, "velocity": 114, "channel": 0}, {"type": "note_off", "time": 89, "note": 67, "velocity": 114, "channel": 0}, {"type": "note_on", "time": 6, "note": 65, "velocity": 121, "channel": 0}, {"type": "note_off", "time": 89, "note": 65, "velocity": 121, "channel": 0}, {"type": "note_on", "time": 18, "note": 64, "velocity": 110, "channel": 0}, {"type": "note_off", "time": 80, "note": 64, "velocity": 110, "channel": 0}, {"type": "note_on", "time": 9, "note": 61, "velocity": 114, "channel": 0}, {"type": "note_off", "time": 85, "note": 61, "velocity": 114, "channel": 0}, {"type": "note_on", "time": 2, "note": 58, "velocity": 104, "channel": 0}, {"type": "note_off", "time": 94, "note": 58, "velocity": 104, "channel": 0}, {"type": "note_on", "time": 2, "note": 59, "velocity": 102, "channel": 0}, {"type": "note_off", "time": 70, "note": 59, "velocity": 102, "channel": 0}, {"type": "note_on", "time": 5, "note": 60, "velocity": 99, "channel": 0}, {"type": "note_off", "time": 73, "note": 60, "velocity": 99, "channel": 0}, {"type": "note_on", "time": 17, "note": 62, "velocity": 106, "channel": 0}, {"type": "note_off", "time": 76, "note": 62, "velocity": 106, "channel": 0}, {"type": "note_on", "time": 8, "note": 64, "velocity": 112, "channel": 0}, {"type": "note_off", "time": 82, "note": 64, "velocity": 112, "channel": 0}, {"type": "note_on", "time": 17, "note": 65, "velocity": 112, "channel": 0}, {"type": "note_off", "time": 97, "note": 65, "velocity": 112, "channel": 0}, {"type": "note_on", "time": 2, "note": 67, "velocity": 116, "channel": 0}, {"type": "note_off", "time": 88, "note": 67, "velocity": 116, "channel": 0}, {"type": "note_on", "time": 23, "note": 68, "velocity": 109, "channel": 0}, {"type": "note_off", "time": 97, "note": 68, "velocity": 109, "channel": 0}, {"type": "note_on", "time": 23, "note": 66, "velocity": 111, "channel": 0}, {"type": "note_off", "time": 73, "note": 66, "velocity": 111, "channel": 0}, {"type": "note_on", "time": 0, "note": 67, "velocity": 118, "channel": 0}, {"type": "note_off", "time": 73, "note": 67, "velocity": 118, "channel": 0}, {"type": "note_on", "time": 14, "note": 69, "velocity": 109, "channel": 0}, {"type": "note_off", "time": 94, "note": 69, "velocity": 109, "channel": 0}, {"type": "note_on", "time": 19, "note": 65, "velocity": 105, "channel": 0}, {"type": "note_off", "time": 79, "note": 65, "velocity": 105, "channel": 0}, {"type": "note_on", "time": 385, "note": 58, "velocity": 100, "channel": 0}, {"type": "note_off", "time": 79, "note": 58, "velocity": 100, "channel": 0}, {"type": "note_on", "time": 14, "note": 57, "velocity": 109, "channel": 0}, {"type": "note_off", "time": 112, "note": 57, "velocity": 109, "channel": 0}, {"type": "note_on", "time": 8, "note": 58, "velocity": 102, "channel": 0}, {"type": "note_off", "time": 82, "note": 58, "velocity": 102, "channel": 0}, {"type": "note_on", "time": 26, "note": 60, "velocity": 99, "channel": 0}, {"type": "note_off", "time": 79, "note": 60, "velocity": 99, "channel": 0}, {"type": "note_on", "time": 5, "note": 62, "velocity": 103, "channel": 0}, {"type": "note_off", "time": 100, "note": 62, "velocity": 103, "channel": 0}, {"type": "note_on", "time": 0, "note": 64, "velocity": 104, "channel": 0}, {"type": "note_off", "time": 67, "note": 64, "velocity": 104, "channel": 0}, {"type": "note_on", "time": 0, "note": 65, "velocity": 119, "channel": 0}, {"type": "note_off", "time": 115, "note": 65, "velocity": 119, "channel": 0}, {"type": "note_on", "time": 29, "note": 62, "velocity": 111, "channel": 0}, {"type": "note_off", "time": 88, "note": 62, "velocity": 111, "channel": 0}, {"type": "note_on", "time": 0, "note": 63, "velocity": 101, "channel": 0}, {"type": "note_off", "time": 88, "note": 63, "velocity": 101, "channel": 0}, {"type": "note_on", "time": 11, "note": 65, "velocity": 115, "channel": 0}, {"type": "note_off", "time": 109, "note": 65, "velocity": 115, "channel": 0}, {"type": "note_on", "time": 20, "note": 66, "velocity": 108, "channel": 0}, {"type": "note_off", "time": 64, "note": 66, "velocity": 108, "channel": 0}, {"type": "note_on", "time": 26, "note": 68, "velocity": 97, "channel": 0}, {"type": "note_off", "time": 29, "note": 68, "velocity": 97, "channel": 0}, {"type": "note_on", "time": 26, "note": 72, "velocity": 125, "channel": 0}, {"type": "note_off", "time": 91, "note": 72, "velocity": 125, "channel": 0}, {"type": "note_on", "time": 11, "note": 71, "velocity": 115, "channel": 0}, {"type": "note_off", "time": 79, "note": 71, "velocity": 115, "channel": 0}, {"type": "note_on", "time": 0, "note": 70, "velocity": 117, "channel": 0}, {"type": "note_off", "time": 85, "note": 70, "velocity": 117, "channel": 0}, {"type": "note_on", "time": 23, "note": 68, "velocity": 114, "channel": 0}, {"type": "note_on", "time": 70, "note": 65, "velocity": 103, "channel": 0}, {"type": "note_off", "time": 0, "note": 68, "velocity": 114, "channel": 0}, {"type": "note_off", "time": 94, "note": 65, "velocity": 103, "channel": 0}, {"type": "note_on", "time": 0, "note": 66, "velocity": 110, "channel": 0}, {"type": "note_off", "time": 91, "note": 66, "velocity": 110, "channel": 0}, {"type": "note_on", "time": 0, "note": 67, "velocity": 102, "channel": 0}, {"type": "note_off", "time": 73, "note": 67, "velocity": 102, "channel": 0}, {"type": "note_on", "time": 2, "note": 70, "velocity": 114, "channel": 0}, {"type": "note_off", "time": 91, "note": 70, "velocity": 114, "channel": 0}, {"type": "note_on", "time": 2, "note": 63, "velocity": 110, "channel": 0}, {"type": "note_off", "time": 76, "note": 63, "velocity": 110, "channel": 0}, {"type": "note_on", "time": 124, "note": 63, "velocity": 113, "channel": 0}, {"type": "note_off", "time": 82, "note": 63, "velocity": 113, "channel": 0}, {"type": "note_on", "time": 5, "note": 65, "velocity": 115, "channel": 0}, {"type": "note_off", "time": 73, "note": 65, "velocity": 115, "channel": 0}, {"type": "note_on", "time": 14, "note": 67, "velocity": 112, "channel": 0}, {"type": "note_off", "time": 79, "note": 67, "velocity": 112, "channel": 0}, {"type": "note_on", "time": 8, "note": 68, "velocity": 105, "channel": 0}, {"type": "note_off", "time": 94, "note": 68, "velocity": 105, "channel": 0}, {"type": "note_on", "time": 41, "note": 70, "velocity": 124, "channel": 0}, {"type": "note_off", "time": 79, "note": 70, "velocity": 124, "channel": 0}, {"type": "note_on", "time": 17, "note": 68, "velocity": 117, "channel": 0}, {"type": "note_off", "time": 79, "note": 68, "velocity": 117, "channel": 0}, {"type": "note_on", "time": 11, "note": 67, "velocity": 107, "channel": 0}, {"type": "note_off", "time": 94, "note": 67, "velocity": 107, "channel": 0}, {"type": "note_on", "time": 17, "note": 65, "velocity": 119, "channel": 0}, {"type": "note_off", "time": 73, "note": 65, "velocity": 119, "channel": 0}, {"type": "note_on", "time": 11, "note": 64, "velocity": 114, "channel": 0}, {"type": "note_off", "time": 79, "note": 64, "velocity": 114, "channel": 0}, {"type": "note_on", "time": 0, "note": 67, "velocity": 112, "channel": 0}, {"type": "note_off", "time": 91, "note": 67, "velocity": 112, "channel": 0}, {"type": "note_on", "time": 0, "note": 70, "velocity": 117, "channel": 0}, {"type": "note_off", "time": 94, "note": 70, "velocity": 117, "channel": 0}, {"type": "note_on", "time": 41, "note": 73, "velocity": 121, "channel": 0}, {"type": "note_off", "time": 82, "note": 73, "velocity": 121, "channel": 0}, {"type": "note_on", "time": 5, "note": 72, "velocity": 109, "channel": 0}, {"type": "note_off", "time": 109, "note": 72, "velocity": 109, "channel": 0}, {"type": "note_on", "time": 271, "note": 79, "velocity": 123, "channel": 0}, {"type": "note_off", "time": 574, "note": 79, "velocity": 123, "channel": 0}, {"type": "note_on", "time": 0, "note": 77, "velocity": 94, "channel": 0}, {"type": "note_off", "time": 112, "note": 77, "velocity": 94, "channel": 0}, {"type": "note_on", "time": 8, "note": 75, "velocity": 113, "channel": 0}, {"type": "note_off", "time": 103, "note": 75, "velocity": 113, "channel": 0}, {"type": "note_on", "time": 4, "note": 74, "velocity": 113, "channel": 0}, {"type": "note_off", "time": 94, "note": 74, "velocity": 113, "channel": 0}, {"type": "note_on", "time": 4, "note": 72, "velocity": 121, "channel": 0}, {"type": "note_off", "time": 83, "note": 72, "velocity": 121, "channel": 0}, {"type": "note_on", "time": 0, "note": 70, "velocity": 98, "channel": 0}, {"type": "note_off", "time": 64, "note": 70, "velocity": 98, "channel": 0}, {"type": "note_on", "time": 8, "note": 70, "velocity": 105, "channel": 0}, {"type": "note_off", "time": 103, "note": 70, "velocity": 105, "channel": 0}, {"type": "note_on", "time": 5, "note": 67, "velocity": 109, "channel": 0}, {"type": "note_off", "time": 76, "note": 67, "velocity": 109, "channel": 0}, {"type": "note_on", "time": 23, "note": 68, "velocity": 105, "channel": 0}, {"type": "note_off", "time": 103, "note": 68, "velocity": 105, "channel": 0}, {"type": "note_on", "time": 2, "note": 75, "velocity": 118, "channel": 0}, {"type": "note_off", "time": 94, "note": 75, "velocity": 118, "channel": 0}, {"type": "note_on", "time": 5, "note": 73, "velocity": 115, "channel": 0}, {"type": "note_off", "time": 32, "note": 73, "velocity": 115, "channel": 0}, {"type": "note_on", "time": 0, "note": 71, "velocity": 114, "channel": 0}, {"type": "note_off", "time": 32, "note": 71, "velocity": 114, "channel": 0}, {"type": "note_on", "time": 2, "note": 70, "velocity": 120, "channel": 0}, {"type": "note_off", "time": 109, "note": 70, "velocity": 120, "channel": 0}, {"type": "note_on", "time": 8, "note": 68, "velocity": 118, "channel": 0}, {"type": "note_off", "time": 91, "note": 68, "velocity": 118, "channel": 0}, {"type": "note_on", "time": 8, "note": 65, "velocity": 109, "channel": 0}, {"type": "note_off", "time": 70, "note": 65, "velocity": 109, "channel": 0}, {"type": "note_on", "time": 17, "note": 66, "velocity": 109, "channel": 0}, {"type": "note_off", "time": 82, "note": 66, "velocity": 109, "channel": 0}, {"type": "note_on", "time": 5, "note": 67, "velocity": 110, "channel": 0}, {"type": "note_off", "time": 88, "note": 67, "velocity": 110, "channel": 0}, {"type": "note_on", "time": 499, "note": 67, "velocity": 116, "channel": 0}, {"type": "note_off", "time": 85, "note": 67, "velocity": 116, "channel": 0}, {"type": "note_on", "time": 17, "note": 66, "velocity": 120, "channel": 0}, {"type": "note_off", "time": 73, "note": 66, "velocity": 120, "channel": 0}, {"type": "note_on", "time": 20, "note": 67, "velocity": 103, "channel": 0}, {"type": "note_off", "time": 70, "note": 67, "velocity": 103, "channel": 0}, {"type": "note_on", "time": 20, "note": 69, "velocity": 121, "channel": 0}, {"type": "note_off", "time": 88, "note": 69, "velocity": 121, "channel": 0}, {"type": "note_on", "time": 8, "note": 71, "velocity": 115, "channel": 0}, {"type": "note_off", "time": 88, "note": 71, "velocity": 115, "channel": 0}, {"type": "note_on", "time": 79, "note": 74, "velocity": 122, "channel": 0}, {"type": "note_off", "time": 94, "note": 74, "velocity": 122, "channel": 0}, {"type": "note_on", "time": 11, "note": 71, "velocity": 115, "channel": 0}, {"type": "note_off", "time": 91, "note": 71, "velocity": 115, "channel": 0}, {"type": "note_on", "time": 11, "note": 72, "velocity": 112, "channel": 0}, {"type": "note_off", "time": 59, "note": 72, "velocity": 112, "channel": 0}, {"type": "note_on", "time": 11, "note": 74, "velocity": 107, "channel": 0}, {"type": "note_off", "time": 47, "note": 74, "velocity": 107, "channel": 0}, {"type": "note_on", "time": 16, "note": 72, "velocity": 118, "channel": 0}, {"type": "note_off", "time": 74, "note": 72, "velocity": 118, "channel": 0}, {"type": "note_on", "time": 4, "note": 71, "velocity": 111, "channel": 0}, {"type": "note_off", "time": 64, "note": 71, "velocity": 111, "channel": 0}, {"type": "note_on", "time": 8, "note": 69, "velocity": 117, "channel": 0}, {"type": "note_off", "time": 101, "note": 69, "velocity": 117, "channel": 0}, {"type": "note_on", "time": 2, "note": 67, "velocity": 110, "channel": 0}, {"type": "note_off", "time": 76, "note": 67, "velocity": 110, "channel": 0}, {"type": "note_on", "time": 10, "note": 68, "velocity": 115, "channel": 0}, {"type": "note_off", "time": 76, "note": 68, "velocity": 115, "channel": 0}, {"type": "note_on", "time": 8, "note": 69, "velocity": 105, "channel": 0}, {"type": "note_off", "time": 89, "note": 69, "velocity": 105, "channel": 0}, {"type": "note_on", "time": 6, "note": 65, "velocity": 99, "channel": 0}, {"type": "note_off", "time": 85, "note": 65, "velocity": 99, "channel": 0}, {"type": "note_on", "time": 0, "note": 64, "velocity": 96, "channel": 0}, {"type": "note_off", "time": 97, "note": 64, "velocity": 96, "channel": 0}, {"type": "note_on", "time": 6, "note": 63, "velocity": 95, "channel": 0}, {"type": "note_off", "time": 83, "note": 63, "velocity": 95, "channel": 0}, {"type": "note_on", "time": 8, "note": 67, "velocity": 120, "channel": 0}, {"type": "note_off", "time": 195, "note": 67, "velocity": 120, "channel": 0}, {"type": "note_on", "time": 10, "note": 64, "velocity": 116, "channel": 0}, {"type": "note_off", "time": 103, "note": 64, "velocity": 116, "channel": 0}, {"type": "note_on", "time": 14, "note": 61, "velocity": 96, "channel": 0}, {"type": "note_off", "time": 56, "note": 61, "velocity": 96, "channel": 0}, {"type": "note_on", "time": 18, "note": 64, "velocity": 115, "channel": 0}, {"type": "note_off", "time": 203, "note": 64, "velocity": 115, "channel": 0}, {"type": "note_on", "time": 436, "note": 66, "velocity": 123, "channel": 0}, {"type": "note_off", "time": 132, "note": 66, "velocity": 123, "channel": 0}, {"type": "note_on", "time": 31, "note": 73, "velocity": 111, "channel": 0}, {"type": "note_off", "time": 203, "note": 73, "velocity": 111, "channel": 0}, {"type": "note_on", "time": 12, "note": 74, "velocity": 118, "channel": 0}, {"type": "note_off", "time": 164, "note": 74, "velocity": 118, "channel": 0}, {"type": "note_on", "time": 0, "note": 75, "velocity": 117, "channel": 0}, {"type": "note_off", "time": 209, "note": 75, "velocity": 117, "channel": 0}, {"type": "note_on", "time": 357, "note": 72, "velocity": 116, "channel": 0}, {"type": "note_off", "time": 64, "note": 72, "velocity": 116, "channel": 0}, {"type": "note_on", "time": 29, "note": 73, "velocity": 120, "channel": 0}, {"type": "note_off", "time": 78, "note": 73, "velocity": 120, "channel": 0}, {"type": "note_on", "time": 22, "note": 74, "velocity": 110, "channel": 0}, {"type": "note_off", "time": 83, "note": 74, "velocity": 110, "channel": 0}, {"type": "note_on", "time": 0, "note": 70, "velocity": 112, "channel": 0}, {"type": "note_off", "time": 74, "note": 70, "velocity": 112, "channel": 0}, {"type": "note_on", "time": 10, "note": 67, "velocity": 92, "channel": 0}, {"type": "note_off", "time": 149, "note": 67, "velocity": 92, "channel": 0}, {"type": "note_on", "time": 60, "note": 72, "velocity": 116, "channel": 0}, {"type": "note_off", "time": 87, "note": 72, "velocity": 116, "channel": 0}, {"type": "note_on", "time": 207, "note": 71, "velocity": 121, "channel": 0}, {"type": "note_off", "time": 74, "note": 71, "velocity": 121, "channel": 0}, {"type": "note_on", "time": 12, "note": 72, "velocity": 125, "channel": 0}, {"type": "note_off", "time": 184, "note": 72, "velocity": 125, "channel": 0}, {"type": "note_on", "time": 8, "note": 67, "velocity": 117, "channel": 0}, {"type": "note_off", "time": 97, "note": 67, "velocity": 117, "channel": 0}, {"type": "note_on", "time": 14, "note": 68, "velocity": 105, "channel": 0}, {"type": "note_off", "time": 56, "note": 68, "velocity": 105, "channel": 0}, {"type": "note_on", "time": 12, "note": 69, "velocity": 118, "channel": 0}, {"type": "note_off", "time": 66, "note": 69, "velocity": 118, "channel": 0}, {"type": "note_on", "time": 39, "note": 65, "velocity": 103, "channel": 0}, {"type": "note_off", "time": 64, "note": 65, "velocity": 103, "channel": 0}, {"type": "note_on", "time": 8, "note": 64, "velocity": 98, "channel": 0}, {"type": "note_off", "time": 66, "note": 64, "velocity": 98, "channel": 0}, {"type": "note_on", "time": 22, "note": 62, "velocity": 86, "channel": 0}, {"type": "note_off", "time": 66, "note": 62, "velocity": 86, "channel": 0}, {"type": "note_on", "time": 43, "note": 67, "velocity": 115, "channel": 0}, {"type": "note_off", "time": 80, "note": 67, "velocity": 115, "channel": 0}, {"type": "note_on", "time": 16, "note": 65, "velocity": 117, "channel": 0}, {"type": "note_off", "time": 60, "note": 65, "velocity": 117, "channel": 0}, {"type": "note_on", "time": 12, "note": 62, "velocity": 102, "channel": 0}, {"type": "note_off", "time": 78, "note": 62, "velocity": 102, "channel": 0}, {"type": "note_on", "time": 11, "note": 63, "velocity": 107, "channel": 0}, {"type": "note_off", "time": 85, "note": 63, "velocity": 107, "channel": 0}, {"type": "note_on", "time": 14, "note": 64, "velocity": 105, "channel": 0}, {"type": "note_off", "time": 70, "note": 64, "velocity": 105, "channel": 0}, {"type": "note_on", "time": 127, "note": 71, "velocity": 104, "channel": 0}, {"type": "note_off", "time": 76, "note": 71, "velocity": 104, "channel": 0}, {"type": "note_on", "time": 11, "note": 69, "velocity": 98, "channel": 0}, {"type": "note_off", "time": 66, "note": 69, "velocity": 98, "channel": 0}, {"type": "note_on", "time": 7, "note": 71, "velocity": 125, "channel": 0}, {"type": "note_off", "time": 152, "note": 71, "velocity": 125, "channel": 0}, {"type": "note_on", "time": 95, "note": 66, "velocity": 114, "channel": 0}, {"type": "note_off", "time": 79, "note": 66, "velocity": 114, "channel": 0}, {"type": "note_on", "time": 121, "note": 63, "velocity": 118, "channel": 0}, {"type": "note_off", "time": 132, "note": 63, "velocity": 118, "channel": 0}, {"type": "note_on", "time": 14, "note": 60, "velocity": 96, "channel": 0}, {"type": "note_off", "time": 64, "note": 60, "velocity": 96, "channel": 0}, {"type": "note_on", "time": 194, "note": 57, "velocity": 108, "channel": 0}, {"type": "note_off", "time": 162, "note": 57, "velocity": 108, "channel": 0}, {"type": "note_on", "time": 14, "note": 61, "velocity": 108, "channel": 0}, {"type": "note_off", "time": 64, "note": 61, "velocity": 108, "channel": 0}, {"type": "note_on", "time": 14, "note": 64, "velocity": 117, "channel": 0}, {"type": "note_off", "time": 64, "note": 64, "velocity": 117, "channel": 0}, {"type": "note_on", "time": 32, "note": 69, "velocity": 118, "channel": 0}, {"type": "note_off", "time": 85, "note": 69, "velocity": 118, "channel": 0}, {"type": "note_on", "time": 8, "note": 64, "velocity": 93, "channel": 0}, {"type": "note_off", "time": 79, "note": 64, "velocity": 93, "channel": 0}, {"type": "note_on", "time": 8, "note": 60, "velocity": 91, "channel": 0}, {"type": "note_off", "time": 62, "note": 60, "velocity": 91, "channel": 0}, {"type": "note_on", "time": 38, "note": 59, "velocity": 100, "channel": 0}, {"type": "note_off", "time": 88, "note": 59, "velocity": 100, "channel": 0}, {"type": "note_on", "time": 35, "note": 66, "velocity": 108, "channel": 0}, {"type": "note_off", "time": 67, "note": 66, "velocity": 108, "channel": 0}, {"type": "note_on", "time": 23, "note": 69, "velocity": 121, "channel": 0}, {"type": "note_off", "time": 413, "note": 69, "velocity": 121, "channel": 0}, {"type": "note_on", "time": 14, "note": 67, "velocity": 110, "channel": 0}, {"type": "note_off", "time": 64, "note": 67, "velocity": 110, "channel": 0}, {"type": "note_on", "time": 44, "note": 69, "velocity": 122, "channel": 0}, {"type": "note_off", "time": 289, "note": 69, "velocity": 122, "channel": 0}, {"type": "note_on", "time": 17, "note": 65, "velocity": 122, "channel": 0}, {"type": "note_off", "time": 194, "note": 65, "velocity": 122, "channel": 0}, {"type": "note_on", "time": 11, "note": 61, "velocity": 112, "channel": 0}, {"type": "note_off", "time": 200, "note": 61, "velocity": 112, "channel": 0}, {"type": "note_on", "time": 26, "note": 57, "velocity": 106, "channel": 0}, {"type": "note_off", "time": 118, "note": 57, "velocity": 106, "channel": 0}, {"type": "note_on", "time": 8, "note": 64, "velocity": 111, "channel": 0}, {"type": "note_off", "time": 127, "note": 64, "velocity": 111, "channel": 0}, {"type": "note_on", "time": 50, "note": 57, "velocity": 106, "channel": 0}, {"type": "note_off", "time": 221, "note": 57, "velocity": 106, "channel": 0}, {"type": "note_on", "time": 44, "note": 57, "velocity": 103, "channel": 0}, {"type": "note_off", "time": 324, "note": 57, "velocity": 103, "channel": 0}, {"type": "note_on", "time": 407, "note": 73, "velocity": 117, "channel": 0}, {"type": "note_off", "time": 70, "note": 73, "velocity": 117, "channel": 0}, {"type": "note_on", "time": 8, "note": 74, "velocity": 122, "channel": 0}, {"type": "note_off", "time": 97, "note": 74, "velocity": 122, "channel": 0}, {"type": "note_on", "time": 20, "note": 77, "velocity": 118, "channel": 0}, {"type": "note_off", "time": 100, "note": 77, "velocity": 118, "channel": 0}, {"type": "note_on", "time": 2, "note": 76, "velocity": 115, "channel": 0}, {"type": "note_off", "time": 82, "note": 76, "velocity": 115, "channel": 0}, {"type": "note_on", "time": 8, "note": 75, "velocity": 114, "channel": 0}, {"type": "note_off", "time": 103, "note": 75, "velocity": 114, "channel": 0}, {"type": "note_on", "time": 0, "note": 74, "velocity": 120, "channel": 0}, {"type": "note_off", "time": 88, "note": 74, "velocity": 120, "channel": 0}, {"type": "note_on", "time": 19, "note": 72, "velocity": 118, "channel": 0}, {"type": "note_off", "time": 85, "note": 72, "velocity": 118, "channel": 0}, {"type": "note_on", "time": 14, "note": 70, "velocity": 122, "channel": 0}, {"type": "note_off", "time": 89, "note": 70, "velocity": 122, "channel": 0}, {"type": "note_on", "time": 12, "note": 69, "velocity": 119, "channel": 0}, {"type": "note_off", "time": 80, "note": 69, "velocity": 119, "channel": 0}, {"type": "note_on", "time": 4, "note": 67, "velocity": 110, "channel": 0}, {"type": "note_off", "time": 70, "note": 67, "velocity": 110, "channel": 0}, {"type": "note_on", "time": 12, "note": 65, "velocity": 117, "channel": 0}, {"type": "note_off", "time": 85, "note": 65, "velocity": 117, "channel": 0}, {"type": "note_on", "time": 18, "note": 64, "velocity": 111, "channel": 0}, {"type": "note_off", "time": 80, "note": 64, "velocity": 111, "channel": 0}, {"type": "note_on", "time": 6, "note": 63, "velocity": 110, "channel": 0}, {"type": "note_off", "time": 87, "note": 63, "velocity": 110, "channel": 0}, {"type": "note_on", "time": 16, "note": 67, "velocity": 115, "channel": 0}, {"type": "note_off", "time": 68, "note": 67, "velocity": 115, "channel": 0}, {"type": "note_on", "time": 6, "note": 62, "velocity": 100, "channel": 0}, {"type": "note_off", "time": 83, "note": 62, "velocity": 100, "channel": 0}, {"type": "note_on", "time": 20, "note": 60, "velocity": 86, "channel": 0}, {"type": "note_off", "time": 88, "note": 60, "velocity": 86, "channel": 0}, {"type": "note_on", "time": 7, "note": 65, "velocity": 114, "channel": 0}, {"type": "note_off", "time": 141, "note": 65, "velocity": 114, "channel": 0}, {"type": "note_on", "time": 6, "note": 58, "velocity": 98, "channel": 0}, {"type": "note_off", "time": 80, "note": 58, "velocity": 98, "channel": 0}, {"type": "note_on", "time": 18, "note": 62, "velocity": 93, "channel": 0}, {"type": "note_off", "time": 60, "note": 62, "velocity": 93, "channel": 0}, {"type": "note_on", "time": 2, "note": 63, "velocity": 118, "channel": 0}, {"type": "note_off", "time": 76, "note": 63, "velocity": 118, "channel": 0}, {"type": "note_on", "time": 4, "note": 61, "velocity": 110, "channel": 0}, {"type": "note_off", "time": 132, "note": 61, "velocity": 110, "channel": 0}, {"type": "note_on", "time": 6, "note": 62, "velocity": 112, "channel": 0}, {"type": "note_off", "time": 95, "note": 62, "velocity": 112, "channel": 0}, {"type": "note_on", "time": 6, "note": 63, "velocity": 121, "channel": 0}, {"type": "note_off", "time": 64, "note": 63, "velocity": 121, "channel": 0}, {"type": "note_on", "time": 12, "note": 64, "velocity": 118, "channel": 0}, {"type": "note_off", "time": 85, "note": 64, "velocity": 118, "channel": 0}, {"type": "note_on", "time": 16, "note": 65, "velocity": 123, "channel": 0}, {"type": "note_off", "time": 74, "note": 65, "velocity": 123, "channel": 0}, {"type": "note_on", "time": 0, "note": 67, "velocity": 117, "channel": 0}, {"type": "note_off", "time": 97, "note": 67, "velocity": 117, "channel": 0}, {"type": "note_on", "time": 0, "note": 69, "velocity": 118, "channel": 0}, {"type": "note_off", "time": 93, "note": 69, "velocity": 118, "channel": 0}, {"type": "note_on", "time": 20, "note": 70, "velocity": 122, "channel": 0}, {"type": "note_off", "time": 83, "note": 70, "velocity": 122, "channel": 0}, {"type": "note_on", "time": 10, "note": 72, "velocity": 122, "channel": 0}, {"type": "note_off", "time": 122, "note": 72, "velocity": 122, "channel": 0}, {"type": "note_on", "time": 6, "note": 69, "velocity": 113, "channel": 0}, {"type": "note_off", "time": 66, "note": 69, "velocity": 113, "channel": 0}, {"type": "note_on", "time": 6, "note": 70, "velocity": 116, "channel": 0}, {"type": "note_off", "time": 60, "note": 70, "velocity": 116, "channel": 0}, {"type": "note_on", "time": 12, "note": 72, "velocity": 124, "channel": 0}, {"type": "note_off", "time": 74, "note": 72, "velocity": 124, "channel": 0}, {"type": "note_on", "time": 20, "note": 73, "velocity": 110, "channel": 0}, {"type": "note_off", "time": 58, "note": 73, "velocity": 110, "channel": 0}, {"type": "note_on", "time": 4, "note": 74, "velocity": 108, "channel": 0}, {"type": "note_off", "time": 99, "note": 74, "velocity": 108, "channel": 0}, {"type": "note_on", "time": 14, "note": 76, "velocity": 122, "channel": 0}, {"type": "note_off", "time": 103, "note": 76, "velocity": 122, "channel": 0}, {"type": "note_on", "time": 12, "note": 77, "velocity": 124, "channel": 0}, {"type": "note_off", "time": 89, "note": 77, "velocity": 124, "channel": 0}, {"type": "note_on", "time": 0, "note": 76, "velocity": 116, "channel": 0}, {"type": "note_off", "time": 80, "note": 76, "velocity": 116, "channel": 0}, {"type": "note_on", "time": 4, "note": 74, "velocity": 122, "channel": 0}, {"type": "note_off", "time": 80, "note": 74, "velocity": 122, "channel": 0}, {"type": "note_on", "time": 0, "note": 72, "velocity": 117, "channel": 0}, {"type": "note_off", "time": 97, "note": 72, "velocity": 117, "channel": 0}, {"type": "note_on", "time": 14, "note": 73, "velocity": 115, "channel": 0}, {"type": "note_off", "time": 68, "note": 73, "velocity": 115, "channel": 0}, {"type": "note_on", "time": 18, "note": 74, "velocity": 118, "channel": 0}, {"type": "note_off", "time": 87, "note": 74, "velocity": 118, "channel": 0}, {"type": "note_on", "time": 0, "note": 70, "velocity": 115, "channel": 0}, {"type": "note_off", "time": 78, "note": 70, "velocity": 115, "channel": 0}, {"type": "note_on", "time": 18, "note": 69, "velocity": 114, "channel": 0}, {"type": "note_off", "time": 89, "note": 69, "velocity": 114, "channel": 0}, {"type": "note_on", "time": 8, "note": 68, "velocity": 107, "channel": 0}, {"type": "note_off", "time": 85, "note": 68, "velocity": 107, "channel": 0}, {"type": "note_on", "time": 6, "note": 72, "velocity": 116, "channel": 0}, {"type": "note_off", "time": 93, "note": 72, "velocity": 116, "channel": 0}, {"type": "note_on", "time": 16, "note": 70, "velocity": 119, "channel": 0}, {"type": "note_off", "time": 89, "note": 70, "velocity": 119, "channel": 0}, {"type": "note_on", "time": 8, "note": 67, "velocity": 111, "channel": 0}, {"type": "note_off", "time": 78, "note": 67, "velocity": 111, "channel": 0}, {"type": "note_on", "time": 10, "note": 68, "velocity": 106, "channel": 0}, {"type": "note_off", "time": 76, "note": 68, "velocity": 106, "channel": 0}, {"type": "note_on", "time": 12, "note": 69, "velocity": 119, "channel": 0}, {"type": "note_off", "time": 101, "note": 69, "velocity": 119, "channel": 0}, {"type": "note_on", "time": 6, "note": 67, "velocity": 115, "channel": 0}, {"type": "note_off", "time": 74, "note": 67, "velocity": 115, "channel": 0}, {"type": "note_on", "time": 6, "note": 66, "velocity": 111, "channel": 0}, {"type": "note_off", "time": 105, "note": 66, "velocity": 111, "channel": 0}, {"type": "note_on", "time": 12, "note": 69, "velocity": 119, "channel": 0}, {"type": "note_off", "time": 83, "note": 69, "velocity": 119, "channel": 0}, {"type": "note_on", "time": 12, "note": 67, "velocity": 117, "channel": 0}, {"type": "note_off", "time": 62, "note": 67, "velocity": 117, "channel": 0}, {"type": "note_on", "time": 26, "note": 69, "velocity": 123, "channel": 0}, {"type": "note_off", "time": 62, "note": 69, "velocity": 123, "channel": 0}, {"type": "note_on", "time": 22, "note": 70, "velocity": 125, "channel": 0}, {"type": "note_off", "time": 64, "note": 70, "velocity": 125, "channel": 0}, {"type": "note_on", "time": 89, "note": 72, "velocity": 107, "channel": 0}, {"type": "note_off", "time": 56, "note": 72, "velocity": 107, "channel": 0}, {"type": "note_on", "time": 10, "note": 73, "velocity": 123, "channel": 0}, {"type": "note_off", "time": 89, "note": 73, "velocity": 123, "channel": 0}, {"type": "note_on", "time": 14, "note": 74, "velocity": 95, "channel": 0}, {"type": "note_off", "time": 64, "note": 74, "velocity": 95, "channel": 0}, {"type": "note_on", "time": 6, "note": 72, "velocity": 123, "channel": 0}, {"type": "note_off", "time": 95, "note": 72, "velocity": 123, "channel": 0}, {"type": "note_on", "time": 14, "note": 71, "velocity": 121, "channel": 0}, {"type": "note_off", "time": 70, "note": 71, "velocity": 121, "channel": 0}, {"type": "note_on", "time": 18, "note": 70, "velocity": 122, "channel": 0}, {"type": "note_off", "time": 78, "note": 70, "velocity": 122, "channel": 0}, {"type": "note_on", "time": 14, "note": 69, "velocity": 123, "channel": 0}, {"type": "note_off", "time": 93, "note": 69, "velocity": 123, "channel": 0}, {"type": "note_on", "time": 18, "note": 67, "velocity": 115, "channel": 0}, {"type": "note_off", "time": 83, "note": 67, "velocity": 115, "channel": 0}, {"type": "note_on", "time": 4, "note": 65, "velocity": 117, "channel": 0}, {"type": "note_off", "time": 89, "note": 65, "velocity": 117, "channel": 0}, {"type": "note_on", "time": 6, "note": 64, "velocity": 119, "channel": 0}, {"type": "note_off", "time": 78, "note": 64, "velocity": 119, "channel": 0}, {"type": "note_on", "time": 29, "note": 61, "velocity": 108, "channel": 0}, {"type": "note_off", "time": 76, "note": 61, "velocity": 108, "channel": 0}, {"type": "note_on", "time": 142, "note": 59, "velocity": 99, "channel": 0}, {"type": "note_off", "time": 70, "note": 59, "velocity": 99, "channel": 0}, {"type": "note_on", "time": 58, "note": 63, "velocity": 112, "channel": 0}, {"type": "note_off", "time": 72, "note": 63, "velocity": 112, "channel": 0}, {"type": "note_on", "time": 6, "note": 64, "velocity": 113, "channel": 0}, {"type": "note_off", "time": 62, "note": 64, "velocity": 113, "channel": 0}, {"type": "note_on", "time": 10, "note": 65, "velocity": 114, "channel": 0}, {"type": "note_off", "time": 112, "note": 65, "velocity": 114, "channel": 0}, {"type": "note_on", "time": 10, "note": 67, "velocity": 111, "channel": 0}, {"type": "note_off", "time": 103, "note": 67, "velocity": 111, "channel": 0}, {"type": "note_on", "time": 12, "note": 64, "velocity": 109, "channel": 0}, {"type": "note_off", "time": 85, "note": 64, "velocity": 109, "channel": 0}, {"type": "note_on", "time": 2, "note": 65, "velocity": 113, "channel": 0}, {"type": "note_off", "time": 101, "note": 65, "velocity": 113, "channel": 0}, {"type": "note_on", "time": 8, "note": 67, "velocity": 109, "channel": 0}, {"type": "note_off", "time": 85, "note": 67, "velocity": 109, "channel": 0}, {"type": "note_on", "time": 8, "note": 68, "velocity": 108, "channel": 0}, {"type": "note_off", "time": 80, "note": 68, "velocity": 108, "channel": 0}, {"type": "note_on", "time": 4, "note": 69, "velocity": 104, "channel": 0}, {"type": "note_off", "time": 87, "note": 69, "velocity": 104, "channel": 0}, {"type": "note_on", "time": 18, "note": 74, "velocity": 124, "channel": 0}, {"type": "note_off", "time": 103, "note": 74, "velocity": 124, "channel": 0}, {"type": "note_on", "time": 12, "note": 73, "velocity": 122, "channel": 0}, {"type": "note_off", "time": 85, "note": 73, "velocity": 122, "channel": 0}, {"type": "note_on", "time": 12, "note": 72, "velocity": 114, "channel": 0}, {"type": "note_off", "time": 87, "note": 72, "velocity": 114, "channel": 0}, {"type": "note_on", "time": 31, "note": 62, "velocity": 91, "channel": 0}, {"type": "note_off", "time": 58, "note": 62, "velocity": 91, "channel": 0}, {"type": "note_on", "time": 0, "note": 65, "velocity": 98, "channel": 0}, {"type": "note_off", "time": 58, "note": 65, "velocity": 98, "channel": 0}, {"type": "note_on", "time": 18, "note": 70, "velocity": 109, "channel": 0}, {"type": "note_off", "time": 89, "note": 70, "velocity": 109, "channel": 0}, {"type": "note_on", "time": 6, "note": 69, "velocity": 113, "channel": 0}, {"type": "note_off", "time": 105, "note": 69, "velocity": 113, "channel": 0}, {"type": "note_on", "time": 16, "note": 66, "velocity": 95, "channel": 0}, {"type": "note_off", "time": 53, "note": 66, "velocity": 95, "channel": 0}, {"type": "note_on", "time": 8, "note": 64, "velocity": 87, "channel": 0}, {"type": "note_off", "time": 60, "note": 64, "velocity": 87, "channel": 0}, {"type": "note_on", "time": 29, "note": 68, "velocity": 89, "channel": 0}, {"type": "note_off", "time": 66, "note": 68, "velocity": 89, "channel": 0}, {"type": "note_on", "time": 14, "note": 69, "velocity": 107, "channel": 0}, {"type": "note_off", "time": 74, "note": 69, "velocity": 107, "channel": 0}, {"type": "note_on", "time": 14, "note": 70, "velocity": 107, "channel": 0}, {"type": "note_off", "time": 78, "note": 70, "velocity": 107, "channel": 0}, {"type": "note_on", "time": 12, "note": 69, "velocity": 103, "channel": 0}, {"type": "note_off", "time": 60, "note": 69, "velocity": 103, "channel": 0}, {"type": "note_on", "time": 4, "note": 68, "velocity": 95, "channel": 0}, {"type": "note_off", "time": 97, "note": 68, "velocity": 95, "channel": 0}, {"type": "note_on", "time": 26, "note": 70, "velocity": 117, "channel": 0}, {"type": "note_off", "time": 159, "note": 70, "velocity": 117, "channel": 0}, {"type": "note_on", "time": 10, "note": 69, "velocity": 109, "channel": 0}, {"type": "note_off", "time": 43, "note": 69, "velocity": 109, "channel": 0}, {"type": "note_on", "time": 2, "note": 68, "velocity": 102, "channel": 0}, {"type": "note_off", "time": 70, "note": 68, "velocity": 102, "channel": 0}, {"type": "note_on", "time": 8, "note": 69, "velocity": 103, "channel": 0}, {"type": "note_off", "time": 68, "note": 69, "velocity": 103, "channel": 0}, {"type": "note_on", "time": 10, "note": 70, "velocity": 121, "channel": 0}, {"type": "note_off", "time": 112, "note": 70, "velocity": 121, "channel": 0}, {"type": "note_on", "time": 0, "note": 69, "velocity": 117, "channel": 0}, {"type": "note_off", "time": 74, "note": 69, "velocity": 117, "channel": 0}, {"type": "note_on", "time": 12, "note": 68, "velocity": 105, "channel": 0}, {"type": "note_off", "time": 85, "note": 68, "velocity": 105, "channel": 0}, {"type": "note_on", "time": 24, "note": 69, "velocity": 108, "channel": 0}, {"type": "note_off", "time": 68, "note": 69, "velocity": 108, "channel": 0}, {"type": "note_on", "time": 53, "note": 73, "velocity": 118, "channel": 0}, {"type": "note_off", "time": 56, "note": 73, "velocity": 118, "channel": 0}, {"type": "note_on", "time": 16, "note": 74, "velocity": 115, "channel": 0}, {"type": "note_off", "time": 504, "note": 74, "velocity": 115, "channel": 0}, {"type": "note_on", "time": 560, "note": 73, "velocity": 116, "channel": 0}, {"type": "note_off", "time": 62, "note": 73, "velocity": 116, "channel": 0}, {"type": "note_on", "time": 14, "note": 74, "velocity": 115, "channel": 0}, {"type": "note_off", "time": 245, "note": 74, "velocity": 115, "channel": 0}, {"type": "note_on", "time": 149, "note": 76, "velocity": 113, "channel": 0}, {"type": "note_off", "time": 66, "note": 76, "velocity": 113, "channel": 0}, {"type": "note_on", "time": 12, "note": 77, "velocity": 122, "channel": 0}, {"type": "note_off", "time": 242, "note": 77, "velocity": 122, "channel": 0}, {"type": "note_on", "time": 37, "note": 69, "velocity": 109, "channel": 0}, {"type": "note_off", "time": 388, "note": 69, "velocity": 109, "channel": 0}, {"type": "note_on", "time": 845, "note": 80, "velocity": 101, "channel": 0}, {"type": "note_off", "time": 47, "note": 80, "velocity": 101, "channel": 0}, {"type": "note_on", "time": 0, "note": 82, "velocity": 109, "channel": 0}, {"type": "note_off", "time": 267, "note": 82, "velocity": 109, "channel": 0}, {"type": "note_on", "time": 16, "note": 81, "velocity": 109, "channel": 0}, {"type": "note_off", "time": 91, "note": 81, "velocity": 109, "channel": 0}, {"type": "note_on", "time": 64, "note": 79, "velocity": 108, "channel": 0}, {"type": "note_off", "time": 60, "note": 79, "velocity": 108, "channel": 0}, {"type": "note_on", "time": 93, "note": 77, "velocity": 112, "channel": 0}, {"type": "note_off", "time": 91, "note": 77, "velocity": 112, "channel": 0}, {"type": "note_on", "time": 37, "note": 76, "velocity": 115, "channel": 0}, {"type": "note_off", "time": 60, "note": 76, "velocity": 115, "channel": 0}, {"type": "note_on", "time": 16, "note": 75, "velocity": 119, "channel": 0}, {"type": "note_off", "time": 74, "note": 75, "velocity": 119, "channel": 0}, {"type": "note_on", "time": 70, "note": 74, "velocity": 119, "channel": 0}, {"type": "note_off", "time": 64, "note": 74, "velocity": 119, "channel": 0}, {"type": "note_on", "time": 0, "note": 72, "velocity": 122, "channel": 0}, {"type": "note_off", "time": 105, "note": 72, "velocity": 122, "channel": 0}, {"type": "note_on", "time": 8, "note": 70, "velocity": 114, "channel": 0}, {"type": "note_off", "time": 74, "note": 70, "velocity": 114, "channel": 0}, {"type": "note_on", "time": 14, "note": 69, "velocity": 118, "channel": 0}, {"type": "note_off", "time": 99, "note": 69, "velocity": 118, "channel": 0}, {"type": "note_on", "time": 24, "note": 67, "velocity": 100, "channel": 0}, {"type": "note_off", "time": 56, "note": 67, "velocity": 100, "channel": 0}, {"type": "note_on", "time": 2, "note": 64, "velocity": 99, "channel": 0}, {"type": "note_off", "time": 53, "note": 64, "velocity": 99, "channel": 0}, {"type": "note_on", "time": 38, "note": 61, "velocity": 100, "channel": 0}, {"type": "note_off", "time": 118, "note": 61, "velocity": 100, "channel": 0}, {"type": "note_on", "time": 11, "note": 62, "velocity": 106, "channel": 0}, {"type": "note_off", "time": 59, "note": 62, "velocity": 106, "channel": 0}, {"type": "note_on", "time": 20, "note": 63, "velocity": 109, "channel": 0}, {"type": "note_off", "time": 70, "note": 63, "velocity": 109, "channel": 0}, {"type": "note_on", "time": 11, "note": 64, "velocity": 108, "channel": 0}, {"type": "note_off", "time": 56, "note": 64, "velocity": 108, "channel": 0}, {"type": "note_on", "time": 8, "note": 65, "velocity": 118, "channel": 0}, {"type": "note_off", "time": 70, "note": 65, "velocity": 118, "channel": 0}, {"type": "note_on", "time": 11, "note": 67, "velocity": 109, "channel": 0}, {"type": "note_off", "time": 85, "note": 67, "velocity": 109, "channel": 0}, {"type": "note_on", "time": 8, "note": 69, "velocity": 109, "channel": 0}, {"type": "note_off", "time": 112, "note": 69, "velocity": 109, "channel": 0}, {"type": "note_on", "time": 5, "note": 70, "velocity": 112, "channel": 0}, {"type": "note_off", "time": 64, "note": 70, "velocity": 112, "channel": 0}, {"type": "note_on", "time": 11, "note": 72, "velocity": 116, "channel": 0}, {"type": "note_off", "time": 115, "note": 72, "velocity": 116, "channel": 0}, {"type": "note_on", "time": 14, "note": 69, "velocity": 118, "channel": 0}, {"type": "note_off", "time": 73, "note": 69, "velocity": 118, "channel": 0}, {"type": "note_on", "time": 505, "note": 78, "velocity": 101, "channel": 0}, {"type": "note_off", "time": 56, "note": 78, "velocity": 101, "channel": 0}, {"type": "note_on", "time": 0, "note": 81, "velocity": 10, "channel": 0}, {"type": "note_off", "time": 1140, "note": 81, "velocity": 10, "channel": 0}, {"type": "note_on", "time": 8, "note": 79, "velocity": 111, "channel": 0}, {"type": "note_off", "time": 44, "note": 79, "velocity": 111, "channel": 0}, {"type": "note_on", "time": 17, "note": 83, "velocity": 118, "channel": 0}, {"type": "note_off", "time": 44, "note": 83, "velocity": 118, "channel": 0}, {"type": "note_on", "time": 11, "note": 81, "velocity": 102, "channel": 0}, {"type": "note_off", "time": 53, "note": 81, "velocity": 102, "channel": 0}, {"type": "note_on", "time": 20, "note": 77, "velocity": 120, "channel": 0}, {"type": "note_off", "time": 112, "note": 77, "velocity": 120, "channel": 0}, {"type": "note_on", "time": 8, "note": 76, "velocity": 115, "channel": 0}, {"type": "note_off", "time": 103, "note": 76, "velocity": 115, "channel": 0}, {"type": "note_on", "time": 35, "note": 74, "velocity": 117, "channel": 0}, {"type": "note_off", "time": 47, "note": 74, "velocity": 117, "channel": 0}, {"type": "note_on", "time": 8, "note": 72, "velocity": 107, "channel": 0}, {"type": "note_off", "time": 43, "note": 72, "velocity": 107, "channel": 0}, {"type": "note_on", "time": 2, "note": 74, "velocity": 118, "channel": 0}, {"type": "note_off", "time": 51, "note": 74, "velocity": 118, "channel": 0}, {"type": "note_on", "time": 8, "note": 72, "velocity": 114, "channel": 0}, {"type": "note_off", "time": 56, "note": 72, "velocity": 114, "channel": 0}, {"type": "note_on", "time": 10, "note": 71, "velocity": 115, "channel": 0}, {"type": "note_off", "time": 70, "note": 71, "velocity": 115, "channel": 0}, {"type": "note_on", "time": 6, "note": 70, "velocity": 119, "channel": 0}, {"type": "note_off", "time": 105, "note": 70, "velocity": 119, "channel": 0}, {"type": "note_on", "time": 6, "note": 69, "velocity": 116, "channel": 0}, {"type": "note_off", "time": 76, "note": 69, "velocity": 116, "channel": 0}, {"type": "note_on", "time": 12, "note": 67, "velocity": 109, "channel": 0}, {"type": "note_off", "time": 80, "note": 67, "velocity": 109, "channel": 0}, {"type": "note_on", "time": 29, "note": 65, "velocity": 119, "channel": 0}, {"type": "note_off", "time": 64, "note": 65, "velocity": 119, "channel": 0}, {"type": "note_on", "time": 8, "note": 64, "velocity": 119, "channel": 0}, {"type": "note_off", "time": 91, "note": 64, "velocity": 119, "channel": 0}, {"type": "note_on", "time": 22, "note": 61, "velocity": 110, "channel": 0}, {"type": "note_off", "time": 76, "note": 61, "velocity": 110, "channel": 0}, {"type": "note_on", "time": 14, "note": 58, "velocity": 104, "channel": 0}, {"type": "note_off", "time": 91, "note": 58, "velocity": 104, "channel": 0}, {"type": "note_on", "time": 10, "note": 59, "velocity": 104, "channel": 0}, {"type": "note_off", "time": 70, "note": 59, "velocity": 104, "channel": 0}, {"type": "note_on", "time": 2, "note": 61, "velocity": 108, "channel": 0}, {"type": "note_off", "time": 41, "note": 61, "velocity": 108, "channel": 0}, {"type": "note_on", "time": 18, "note": 62, "velocity": 111, "channel": 0}, {"type": "note_off", "time": 60, "note": 62, "velocity": 111, "channel": 0}, {"type": "note_on", "time": 18, "note": 64, "velocity": 112, "channel": 0}, {"type": "note_off", "time": 99, "note": 64, "velocity": 112, "channel": 0}, {"type": "note_on", "time": 10, "note": 65, "velocity": 113, "channel": 0}, {"type": "note_off", "time": 70, "note": 65, "velocity": 113, "channel": 0}, {"type": "note_on", "time": 12, "note": 67, "velocity": 117, "channel": 0}, {"type": "note_off", "time": 85, "note": 67, "velocity": 117, "channel": 0}, {"type": "note_on", "time": 12, "note": 64, "velocity": 118, "channel": 0}, {"type": "note_off", "time": 95, "note": 64, "velocity": 118, "channel": 0}, {"type": "note_on", "time": 18, "note": 65, "velocity": 117, "channel": 0}, {"type": "note_off", "time": 70, "note": 65, "velocity": 117, "channel": 0}, {"type": "note_on", "time": 26, "note": 67, "velocity": 112, "channel": 0}, {"type": "note_off", "time": 66, "note": 67, "velocity": 112, "channel": 0}, {"type": "note_on", "time": 14, "note": 68, "velocity": 114, "channel": 0}, {"type": "note_off", "time": 80, "note": 68, "velocity": 114, "channel": 0}, {"type": "note_on", "time": 29, "note": 69, "velocity": 112, "channel": 0}, {"type": "note_off", "time": 72, "note": 69, "velocity": 112, "channel": 0}, {"type": "note_on", "time": 10, "note": 74, "velocity": 117, "channel": 0}, {"type": "note_off", "time": 132, "note": 74, "velocity": 117, "channel": 0}, {"type": "note_on", "time": 0, "note": 73, "velocity": 120, "channel": 0}, {"type": "note_off", "time": 72, "note": 73, "velocity": 120, "channel": 0}, {"type": "note_on", "time": 2, "note": 72, "velocity": 120, "channel": 0}, {"type": "note_off", "time": 89, "note": 72, "velocity": 120, "channel": 0}, {"type": "note_on", "time": 24, "note": 65, "velocity": 103, "channel": 0}, {"type": "note_off", "time": 49, "note": 65, "velocity": 103, "channel": 0}, {"type": "note_on", "time": 0, "note": 61, "velocity": 98, "channel": 0}, {"type": "note_on", "time": 53, "note": 65, "velocity": 103, "channel": 0}, {"type": "note_off", "time": 0, "note": 61, "velocity": 98, "channel": 0}, {"type": "note_off", "time": 53, "note": 65, "velocity": 103, "channel": 0}, {"type": "note_on", "time": 35, "note": 70, "velocity": 119, "channel": 0}, {"type": "note_off", "time": 76, "note": 70, "velocity": 119, "channel": 0}, {"type": "note_on", "time": 10, "note": 67, "velocity": 113, "channel": 0}, {"type": "note_off", "time": 78, "note": 67, "velocity": 113, "channel": 0}, {"type": "note_on", "time": 6, "note": 68, "velocity": 119, "channel": 0}, {"type": "note_off", "time": 72, "note": 68, "velocity": 119, "channel": 0}, {"type": "note_on", "time": 8, "note": 69, "velocity": 116, "channel": 0}, {"type": "note_off", "time": 78, "note": 69, "velocity": 116, "channel": 0}, {"type": "note_on", "time": 20, "note": 65, "velocity": 116, "channel": 0}, {"type": "note_off", "time": 70, "note": 65, "velocity": 116, "channel": 0}, {"type": "note_on", "time": 4, "note": 64, "velocity": 114, "channel": 0}, {"type": "note_off", "time": 68, "note": 64, "velocity": 114, "channel": 0}, {"type": "note_on", "time": 24, "note": 62, "velocity": 113, "channel": 0}, {"type": "note_off", "time": 64, "note": 62, "velocity": 113, "channel": 0}, {"type": "note_on", "time": 18, "note": 61, "velocity": 111, "channel": 0}, {"type": "note_off", "time": 87, "note": 61, "velocity": 111, "channel": 0}, {"type": "note_on", "time": 31, "note": 64, "velocity": 109, "channel": 0}, {"type": "note_off", "time": 78, "note": 64, "velocity": 109, "channel": 0}, {"type": "note_on", "time": 4, "note": 67, "velocity": 119, "channel": 0}, {"type": "note_off", "time": 72, "note": 67, "velocity": 119, "channel": 0}, {"type": "note_on", "time": 4, "note": 70, "velocity": 122, "channel": 0}, {"type": "note_off", "time": 107, "note": 70, "velocity": 122, "channel": 0}, {"type": "note_on", "time": 22, "note": 67, "velocity": 104, "channel": 0}, {"type": "note_off", "time": 95, "note": 67, "velocity": 104, "channel": 0}, {"type": "note_on", "time": 0, "note": 68, "velocity": 113, "channel": 0}, {"type": "note_off", "time": 68, "note": 68, "velocity": 113, "channel": 0}, {"type": "note_on", "time": 10, "note": 69, "velocity": 115, "channel": 0}, {"type": "note_off", "time": 80, "note": 69, "velocity": 115, "channel": 0}, {"type": "note_on", "time": 26, "note": 65, "velocity": 120, "channel": 0}, {"type": "note_off", "time": 85, "note": 65, "velocity": 120, "channel": 0}, {"type": "note_on", "time": 0, "note": 61, "velocity": 105, "channel": 0}, {"type": "note_off", "time": 89, "note": 61, "velocity": 105, "channel": 0}, {"type": "note_on", "time": 33, "note": 57, "velocity": 107, "channel": 0}, {"type": "note_off", "time": 62, "note": 57, "velocity": 107, "channel": 0}, {"type": "note_on", "time": 22, "note": 58, "velocity": 103, "channel": 0}, {"type": "note_off", "time": 91, "note": 58, "velocity": 103, "channel": 0}, {"type": "note_on", "time": 31, "note": 63, "velocity": 108, "channel": 0}, {"type": "note_off", "time": 58, "note": 63, "velocity": 108, "channel": 0}, {"type": "note_on", "time": 6, "note": 64, "velocity": 119, "channel": 0}, {"type": "note_off", "time": 76, "note": 64, "velocity": 119, "channel": 0}, {"type": "note_on", "time": 14, "note": 61, "velocity": 110, "channel": 0}, {"type": "note_off", "time": 72, "note": 61, "velocity": 110, "channel": 0}, {"type": "note_on", "time": 37, "note": 62, "velocity": 110, "channel": 0}, {"type": "note_off", "time": 78, "note": 62, "velocity": 110, "channel": 0}, {"type": "note_on", "time": 20, "note": 64, "velocity": 112, "channel": 0}, {"type": "note_off", "time": 56, "note": 64, "velocity": 112, "channel": 0}, {"type": "note_on", "time": 4, "note": 65, "velocity": 111, "channel": 0}, {"type": "note_off", "time": 72, "note": 65, "velocity": 111, "channel": 0}, {"type": "note_on", "time": 2, "note": 67, "velocity": 108, "channel": 0}, {"type": "note_off", "time": 68, "note": 67, "velocity": 108, "channel": 0}, {"type": "note_on", "time": 14, "note": 69, "velocity": 121, "channel": 0}, {"type": "note_off", "time": 89, "note": 69, "velocity": 121, "channel": 0}, {"type": "note_on", "time": 31, "note": 65, "velocity": 110, "channel": 0}, {"type": "note_off", "time": 58, "note": 65, "velocity": 110, "channel": 0}, {"type": "note_on", "time": 26, "note": 69, "velocity": 120, "channel": 0}, {"type": "note_off", "time": 172, "note": 69, "velocity": 120, "channel": 0}, {"type": "note_on", "time": 4, "note": 68, "velocity": 121, "channel": 0}, {"type": "note_off", "time": 130, "note": 68, "velocity": 121, "channel": 0}, {"type": "note_on", "time": 12, "note": 65, "velocity": 111, "channel": 0}, {"type": "note_off", "time": 47, "note": 65, "velocity": 111, "channel": 0}, {"type": "note_on", "time": 6, "note": 68, "velocity": 119, "channel": 0}, {"type": "note_off", "time": 166, "note": 68, "velocity": 119, "channel": 0}, {"type": "note_on", "time": 8, "note": 67, "velocity": 118, "channel": 0}, {"type": "note_off", "time": 112, "note": 67, "velocity": 118, "channel": 0}, {"type": "note_on", "time": 29, "note": 65, "velocity": 110, "channel": 0}, {"type": "note_off", "time": 45, "note": 65, "velocity": 110, "channel": 0}, {"type": "note_on", "time": 12, "note": 67, "velocity": 121, "channel": 0}, {"type": "note_off", "time": 164, "note": 67, "velocity": 121, "channel": 0}, {"type": "note_on", "time": 43, "note": 62, "velocity": 110, "channel": 0}, {"type": "note_off", "time": 78, "note": 62, "velocity": 110, "channel": 0}, {"type": "note_on", "time": 29, "note": 65, "velocity": 99, "channel": 0}, {"type": "note_off", "time": 95, "note": 65, "velocity": 99, "channel": 0}, {"type": "note_on", "time": 0, "note": 67, "velocity": 116, "channel": 0}, {"type": "note_off", "time": 74, "note": 67, "velocity": 116, "channel": 0}, {"type": "note_on", "time": 37, "note": 69, "velocity": 126, "channel": 0}, {"type": "note_off", "time": 120, "note": 69, "velocity": 126, "channel": 0}, {"type": "note_on", "time": 16, "note": 65, "velocity": 110, "channel": 0}, {"type": "note_off", "time": 53, "note": 65, "velocity": 110, "channel": 0}, {"type": "note_on", "time": 16, "note": 69, "velocity": 122, "channel": 0}, {"type": "note_off", "time": 199, "note": 69, "velocity": 122, "channel": 0}, {"type": "note_on", "time": 12, "note": 68, "velocity": 123, "channel": 0}, {"type": "note_off", "time": 95, "note": 68, "velocity": 123, "channel": 0}, {"type": "note_on", "time": 18, "note": 65, "velocity": 107, "channel": 0}, {"type": "note_off", "time": 47, "note": 65, "velocity": 107, "channel": 0}, {"type": "note_on", "time": 26, "note": 68, "velocity": 121, "channel": 0}, {"type": "note_off", "time": 150, "note": 68, "velocity": 121, "channel": 0}, {"type": "note_on", "time": 0, "note": 65, "velocity": 113, "channel": 0}, {"type": "note_off", "time": 67, "note": 65, "velocity": 113, "channel": 0}, {"type": "note_on", "time": 14, "note": 67, "velocity": 123, "channel": 0}, {"type": "note_off", "time": 82, "note": 67, "velocity": 123, "channel": 0}, {"type": "note_on", "time": 14, "note": 65, "velocity": 112, "channel": 0}, {"type": "note_off", "time": 41, "note": 65, "velocity": 112, "channel": 0}, {"type": "note_on", "time": 17, "note": 67, "velocity": 119, "channel": 0}, {"type": "note_off", "time": 156, "note": 67, "velocity": 119, "channel": 0}, {"type": "note_on", "time": 29, "note": 60, "velocity": 107, "channel": 0}, {"type": "note_off", "time": 129, "note": 60, "velocity": 107, "channel": 0}, {"type": "note_on", "time": 17, "note": 63, "velocity": 111, "channel": 0}, {"type": "note_off", "time": 64, "note": 63, "velocity": 111, "channel": 0}, {"type": "note_on", "time": 23, "note": 64, "velocity": 108, "channel": 0}, {"type": "note_off", "time": 56, "note": 64, "velocity": 108, "channel": 0}, {"type": "note_on", "time": 8, "note": 65, "velocity": 118, "channel": 0}, {"type": "note_off", "time": 73, "note": 65, "velocity": 118, "channel": 0}, {"type": "note_on", "time": 11, "note": 67, "velocity": 123, "channel": 0}, {"type": "note_off", "time": 59, "note": 67, "velocity": 123, "channel": 0}, {"type": "note_on", "time": 14, "note": 70, "velocity": 120, "channel": 0}, {"type": "note_off", "time": 118, "note": 70, "velocity": 120, "channel": 0}, {"type": "note_on", "time": 5, "note": 67, "velocity": 112, "channel": 0}, {"type": "note_off", "time": 73, "note": 67, "velocity": 112, "channel": 0}, {"type": "note_on", "time": 8, "note": 68, "velocity": 113, "channel": 0}, {"type": "note_off", "time": 47, "note": 68, "velocity": 113, "channel": 0}, {"type": "note_on", "time": 59, "note": 69, "velocity": 112, "channel": 0}, {"type": "note_off", "time": 76, "note": 69, "velocity": 112, "channel": 0}, {"type": "note_on", "time": 11, "note": 70, "velocity": 122, "channel": 0}, {"type": "note_off", "time": 82, "note": 70, "velocity": 122, "channel": 0}, {"type": "note_on", "time": 0, "note": 69, "velocity": 122, "channel": 0}, {"type": "note_off", "time": 103, "note": 69, "velocity": 122, "channel": 0}, {"type": "note_on", "time": 11, "note": 67, "velocity": 121, "channel": 0}, {"type": "note_off", "time": 73, "note": 67, "velocity": 121, "channel": 0}, {"type": "note_on", "time": 26, "note": 65, "velocity": 119, "channel": 0}, {"type": "note_off", "time": 88, "note": 65, "velocity": 119, "channel": 0}, {"type": "note_on", "time": 62, "note": 56, "velocity": 107, "channel": 0}, {"type": "note_off", "time": 67, "note": 56, "velocity": 107, "channel": 0}, {"type": "note_on", "time": 2, "note": 58, "velocity": 113, "channel": 0}, {"type": "note_off", "time": 70, "note": 58, "velocity": 113, "channel": 0}, {"type": "note_on", "time": 8, "note": 63, "velocity": 121, "channel": 0}, {"type": "note_off", "time": 79, "note": 63, "velocity": 121, "channel": 0}, {"type": "note_on", "time": 8, "note": 62, "velocity": 114, "channel": 0}, {"type": "note_off", "time": 79, "note": 62, "velocity": 114, "channel": 0}, {"type": "note_on", "time": 2, "note": 58, "velocity": 107, "channel": 0}, {"type": "note_off", "time": 67, "note": 58, "velocity": 107, "channel": 0}, {"type": "note_on", "time": 11, "note": 60, "velocity": 110, "channel": 0}, {"type": "note_off", "time": 91, "note": 60, "velocity": 110, "channel": 0}, {"type": "note_on", "time": 5, "note": 56, "velocity": 93, "channel": 0}, {"type": "note_off", "time": 41, "note": 56, "velocity": 93, "channel": 0}, {"type": "note_on", "time": 11, "note": 57, "velocity": 96, "channel": 0}, {"type": "note_off", "time": 56, "note": 57, "velocity": 96, "channel": 0}, {"type": "note_on", "time": 14, "note": 58, "velocity": 101, "channel": 0}, {"type": "note_off", "time": 67, "note": 58, "velocity": 101, "channel": 0}, {"type": "note_on", "time": 0, "note": 60, "velocity": 100, "channel": 0}, {"type": "note_off", "time": 85, "note": 60, "velocity": 100, "channel": 0}, {"type": "note_on", "time": 5, "note": 62, "velocity": 110, "channel": 0}, {"type": "note_off", "time": 112, "note": 62, "velocity": 110, "channel": 0}, {"type": "note_on", "time": 20, "note": 65, "velocity": 123, "channel": 0}, {"type": "note_off", "time": 115, "note": 65, "velocity": 123, "channel": 0}, {"type": "note_on", "time": 11, "note": 67, "velocity": 123, "channel": 0}, {"type": "note_off", "time": 94, "note": 67, "velocity": 123, "channel": 0}, {"type": "note_on", "time": 23, "note": 68, "velocity": 117, "channel": 0}, {"type": "note_off", "time": 88, "note": 68, "velocity": 117, "channel": 0}, {"type": "note_on", "time": 32, "note": 65, "velocity": 108, "channel": 0}, {"type": "note_off", "time": 64, "note": 65, "velocity": 108, "channel": 0}, {"type": "note_on", "time": 14, "note": 67, "velocity": 119, "channel": 0}, {"type": "note_off", "time": 91, "note": 67, "velocity": 119, "channel": 0}, {"type": "note_on", "time": 11, "note": 65, "velocity": 116, "channel": 0}, {"type": "note_off", "time": 73, "note": 65, "velocity": 116, "channel": 0}, {"type": "note_on", "time": 11, "note": 61, "velocity": 110, "channel": 0}, {"type": "note_off", "time": 106, "note": 61, "velocity": 110, "channel": 0}, {"type": "note_on", "time": 23, "note": 60, "velocity": 109, "channel": 0}, {"type": "note_off", "time": 100, "note": 60, "velocity": 109, "channel": 0}, {"type": "note_on", "time": 466, "note": 70, "velocity": 117, "channel": 0}, {"type": "note_off", "time": 118, "note": 70, "velocity": 117, "channel": 0}, {"type": "note_on", "time": 13, "note": 69, "velocity": 115, "channel": 0}, {"type": "note_off", "time": 37, "note": 69, "velocity": 115, "channel": 0}, {"type": "note_on", "time": 4, "note": 67, "velocity": 114, "channel": 0}, {"type": "note_off", "time": 137, "note": 67, "velocity": 114, "channel": 0}, {"type": "note_on", "time": 123, "note": 66, "velocity": 119, "channel": 0}, {"type": "note_off", "time": 135, "note": 66, "velocity": 119, "channel": 0}, {"type": "note_on", "time": 35, "note": 66, "velocity": 105, "channel": 0}, {"type": "note_off", "time": 159, "note": 66, "velocity": 105, "channel": 0}, {"type": "note_on", "time": 35, "note": 69, "velocity": 115, "channel": 0}, {"type": "note_off", "time": 82, "note": 69, "velocity": 115, "channel": 0}, {"type": "note_on", "time": 17, "note": 66, "velocity": 114, "channel": 0}, {"type": "note_off", "time": 88, "note": 66, "velocity": 114, "channel": 0}, {"type": "note_on", "time": 16, "note": 67, "velocity": 115, "channel": 0}, {"type": "note_off", "time": 87, "note": 67, "velocity": 115, "channel": 0}, {"type": "note_on", "time": 4, "note": 69, "velocity": 121, "channel": 0}, {"type": "note_off", "time": 74, "note": 69, "velocity": 121, "channel": 0}, {"type": "note_on", "time": 24, "note": 70, "velocity": 125, "channel": 0}, {"type": "note_off", "time": 58, "note": 70, "velocity": 125, "channel": 0}, {"type": "note_on", "time": 20, "note": 72, "velocity": 125, "channel": 0}, {"type": "note_off", "time": 99, "note": 72, "velocity": 125, "channel": 0}, {"type": "note_on", "time": 8, "note": 73, "velocity": 120, "channel": 0}, {"type": "note_off", "time": 58, "note": 73, "velocity": 120, "channel": 0}, {"type": "note_on", "time": 12, "note": 74, "velocity": 108, "channel": 0}, {"type": "note_off", "time": 87, "note": 74, "velocity": 108, "channel": 0}, {"type": "note_on", "time": 0, "note": 72, "velocity": 120, "channel": 0}, {"type": "note_off", "time": 95, "note": 72, "velocity": 120, "channel": 0}, {"type": "note_on", "time": 0, "note": 71, "velocity": 119, "channel": 0}, {"type": "note_off", "time": 87, "note": 71, "velocity": 119, "channel": 0}, {"type": "note_on", "time": 8, "note": 70, "velocity": 122, "channel": 0}, {"type": "note_off", "time": 99, "note": 70, "velocity": 122, "channel": 0}, {"type": "note_on", "time": 0, "note": 69, "velocity": 120, "channel": 0}, {"type": "note_off", "time": 95, "note": 69, "velocity": 120, "channel": 0}, {"type": "note_on", "time": 0, "note": 67, "velocity": 118, "channel": 0}, {"type": "note_off", "time": 87, "note": 67, "velocity": 118, "channel": 0}, {"type": "note_on", "time": 6, "note": 65, "velocity": 120, "channel": 0}, {"type": "note_off", "time": 66, "note": 65, "velocity": 120, "channel": 0}, {"type": "note_on", "time": 8, "note": 64, "velocity": 119, "channel": 0}, {"type": "note_off", "time": 83, "note": 64, "velocity": 119, "channel": 0}, {"type": "note_on", "time": 51, "note": 61, "velocity": 108, "channel": 0}, {"type": "note_off", "time": 99, "note": 61, "velocity": 108, "channel": 0}, {"type": "note_on", "time": 10, "note": 59, "velocity": 95, "channel": 0}, {"type": "note_off", "time": 80, "note": 59, "velocity": 95, "channel": 0}, {"type": "note_on", "time": 5, "note": 60, "velocity": 104, "channel": 0}, {"type": "note_off", "time": 64, "note": 60, "velocity": 104, "channel": 0}, {"type": "note_on", "time": 4, "note": 61, "velocity": 112, "channel": 0}, {"type": "note_off", "time": 51, "note": 61, "velocity": 112, "channel": 0}, {"type": "note_on", "time": 11, "note": 63, "velocity": 102, "channel": 0}, {"type": "note_off", "time": 47, "note": 63, "velocity": 102, "channel": 0}, {"type": "note_on", "time": 10, "note": 64, "velocity": 112, "channel": 0}, {"type": "note_off", "time": 98, "note": 64, "velocity": 112, "channel": 0}, {"type": "note_on", "time": 5, "note": 65, "velocity": 122, "channel": 0}, {"type": "note_off", "time": 62, "note": 65, "velocity": 122, "channel": 0}, {"type": "note_on", "time": 32, "note": 67, "velocity": 117, "channel": 0}, {"type": "note_off", "time": 109, "note": 67, "velocity": 117, "channel": 0}, {"type": "note_on", "time": 14, "note": 64, "velocity": 114, "channel": 0}, {"type": "note_off", "time": 59, "note": 64, "velocity": 114, "channel": 0}, {"type": "note_on", "time": 5, "note": 65, "velocity": 113, "channel": 0}, {"type": "note_off", "time": 64, "note": 65, "velocity": 113, "channel": 0}, {"type": "note_on", "time": 23, "note": 67, "velocity": 116, "channel": 0}, {"type": "note_off", "time": 59, "note": 67, "velocity": 116, "channel": 0}, {"type": "note_on", "time": 17, "note": 69, "velocity": 112, "channel": 0}, {"type": "note_off", "time": 70, "note": 69, "velocity": 112, "channel": 0}, {"type": "note_on", "time": 38, "note": 65, "velocity": 98, "channel": 0}, {"type": "note_off", "time": 62, "note": 65, "velocity": 98, "channel": 0}, {"type": "note_on", "time": 1004, "note": 75, "velocity": 108, "channel": 0}, {"type": "note_off", "time": 76, "note": 75, "velocity": 108, "channel": 0}, {"type": "note_on", "time": 79, "note": 72, "velocity": 117, "channel": 0}, {"type": "note_off", "time": 127, "note": 72, "velocity": 117, "channel": 0}, {"type": "note_on", "time": 11, "note": 73, "velocity": 121, "channel": 0}, {"type": "note_off", "time": 85, "note": 73, "velocity": 121, "channel": 0}, {"type": "note_on", "time": 17, "note": 74, "velocity": 102, "channel": 0}, {"type": "note_off", "time": 73, "note": 74, "velocity": 102, "channel": 0}, {"type": "note_on", "time": 2, "note": 75, "velocity": 115, "channel": 0}, {"type": "note_off", "time": 97, "note": 75, "velocity": 115, "channel": 0}, {"type": "note_on", "time": 56, "note": 71, "velocity": 120, "channel": 0}, {"type": "note_off", "time": 88, "note": 71, "velocity": 120, "channel": 0}, {"type": "note_on", "time": 17, "note": 70, "velocity": 120, "channel": 0}, {"type": "note_off", "time": 103, "note": 70, "velocity": 120, "channel": 0}, {"type": "note_on", "time": 14, "note": 68, "velocity": 116, "channel": 0}, {"type": "note_off", "time": 64, "note": 68, "velocity": 116, "channel": 0}, {"type": "note_on", "time": 0, "note": 65, "velocity": 105, "channel": 0}, {"type": "note_off", "time": 103, "note": 65, "velocity": 105, "channel": 0}, {"type": "note_on", "time": 11, "note": 66, "velocity": 106, "channel": 0}, {"type": "note_off", "time": 73, "note": 66, "velocity": 106, "channel": 0}, {"type": "note_on", "time": 11, "note": 67, "velocity": 119, "channel": 0}, {"type": "note_off", "time": 91, "note": 67, "velocity": 119, "channel": 0}, {"type": "note_on", "time": 5, "note": 68, "velocity": 115, "channel": 0}, {"type": "note_off", "time": 59, "note": 68, "velocity": 115, "channel": 0}, {"type": "note_on", "time": 11, "note": 67, "velocity": 115, "channel": 0}, {"type": "note_off", "time": 94, "note": 67, "velocity": 115, "channel": 0}, {"type": "note_on", "time": 2, "note": 65, "velocity": 117, "channel": 0}, {"type": "note_off", "time": 106, "note": 65, "velocity": 117, "channel": 0}, {"type": "note_on", "time": 2, "note": 63, "velocity": 104, "channel": 0}, {"type": "note_off", "time": 88, "note": 63, "velocity": 104, "channel": 0}, {"type": "note_on", "time": 14, "note": 64, "velocity": 115, "channel": 0}, {"type": "note_off", "time": 62, "note": 64, "velocity": 115, "channel": 0}, {"type": "note_on", "time": 41, "note": 65, "velocity": 116, "channel": 0}, {"type": "note_off", "time": 97, "note": 65, "velocity": 116, "channel": 0}, {"type": "note_on", "time": 5, "note": 67, "velocity": 118, "channel": 0}, {"type": "note_off", "time": 88, "note": 67, "velocity": 118, "channel": 0}, {"type": "note_on", "time": 20, "note": 70, "velocity": 124, "channel": 0}, {"type": "note_off", "time": 76, "note": 70, "velocity": 124, "channel": 0}, {"type": "note_on", "time": 2, "note": 73, "velocity": 121, "channel": 0}, {"type": "note_off", "time": 106, "note": 73, "velocity": 121, "channel": 0}, {"type": "note_on", "time": 14, "note": 70, "velocity": 104, "channel": 0}, {"type": "note_off", "time": 82, "note": 70, "velocity": 104, "channel": 0}, {"type": "note_on", "time": 0, "note": 71, "velocity": 121, "channel": 0}, {"type": "note_off", "time": 70, "note": 71, "velocity": 121, "channel": 0}, {"type": "note_on", "time": 2, "note": 72, "velocity": 120, "channel": 0}, {"type": "note_off", "time": 53, "note": 72, "velocity": 120, "channel": 0}, {"type": "note_on", "time": 23, "note": 68, "velocity": 117, "channel": 0}, {"type": "note_off", "time": 76, "note": 68, "velocity": 117, "channel": 0}, {"type": "note_on", "time": 11, "note": 67, "velocity": 107, "channel": 0}, {"type": "note_off", "time": 97, "note": 67, "velocity": 107, "channel": 0}, {"type": "note_on", "time": 11, "note": 65, "velocity": 113, "channel": 0}, {"type": "note_off", "time": 79, "note": 65, "velocity": 113, "channel": 0}, {"type": "note_on", "time": 0, "note": 64, "velocity": 117, "channel": 0}, {"type": "note_off", "time": 76, "note": 64, "velocity": 117, "channel": 0}, {"type": "note_on", "time": 29, "note": 60, "velocity": 90, "channel": 0}, {"type": "note_off", "time": 70, "note": 60, "velocity": 90, "channel": 0}, {"type": "note_on", "time": 26, "note": 67, "velocity": 112, "channel": 0}, {"type": "note_off", "time": 115, "note": 67, "velocity": 112, "channel": 0}, {"type": "note_on", "time": 8, "note": 64, "velocity": 114, "channel": 0}, {"type": "note_off", "time": 62, "note": 64, "velocity": 114, "channel": 0}, {"type": "note_on", "time": 8, "note": 65, "velocity": 114, "channel": 0}, {"type": "note_off", "time": 88, "note": 65, "velocity": 114, "channel": 0}, {"type": "note_on", "time": 2, "note": 67, "velocity": 117, "channel": 0}, {"type": "note_off", "time": 79, "note": 67, "velocity": 117, "channel": 0}, {"type": "note_on", "time": 11, "note": 68, "velocity": 107, "channel": 0}, {"type": "note_off", "time": 62, "note": 68, "velocity": 107, "channel": 0}, {"type": "note_on", "time": 8, "note": 70, "velocity": 100, "channel": 0}, {"type": "note_off", "time": 79, "note": 70, "velocity": 100, "channel": 0}, {"type": "note_on", "time": 0, "note": 72, "velocity": 116, "channel": 0}, {"type": "note_off", "time": 103, "note": 72, "velocity": 116, "channel": 0}, {"type": "note_on", "time": 26, "note": 68, "velocity": 119, "channel": 0}, {"type": "note_off", "time": 88, "note": 68, "velocity": 119, "channel": 0}, {"type": "note_on", "time": 11, "note": 67, "velocity": 99, "channel": 0}, {"type": "note_off", "time": 76, "note": 67, "velocity": 99, "channel": 0}, {"type": "note_on", "time": 8, "note": 66, "velocity": 99, "channel": 0}, {"type": "note_off", "time": 79, "note": 66, "velocity": 99, "channel": 0}, {"type": "note_on", "time": 20, "note": 73, "velocity": 120, "channel": 0}, {"type": "note_off", "time": 97, "note": 73, "velocity": 120, "channel": 0}, {"type": "note_on", "time": 5, "note": 71, "velocity": 121, "channel": 0}, {"type": "note_off", "time": 79, "note": 71, "velocity": 121, "channel": 0}, {"type": "note_on", "time": 11, "note": 70, "velocity": 109, "channel": 0}, {"type": "note_off", "time": 94, "note": 70, "velocity": 109, "channel": 0}, {"type": "note_on", "time": 20, "note": 68, "velocity": 119, "channel": 0}, {"type": "note_off", "time": 97, "note": 68, "velocity": 119, "channel": 0}, {"type": "note_on", "time": 8, "note": 66, "velocity": 111, "channel": 0}, {"type": "note_off", "time": 106, "note": 66, "velocity": 111, "channel": 0}, {"type": "note_on", "time": 5, "note": 68, "velocity": 100, "channel": 0}, {"type": "note_off", "time": 59, "note": 68, "velocity": 100, "channel": 0}, {"type": "note_on", "time": 5, "note": 72, "velocity": 122, "channel": 0}, {"type": "note_off", "time": 121, "note": 72, "velocity": 122, "channel": 0}, {"type": "note_on", "time": 5, "note": 71, "velocity": 121, "channel": 0}, {"type": "note_off", "time": 82, "note": 71, "velocity": 121, "channel": 0}, {"type": "note_on", "time": 5, "note": 70, "velocity": 117, "channel": 0}, {"type": "note_off", "time": 82, "note": 70, "velocity": 117, "channel": 0}, {"type": "note_on", "time": 2, "note": 68, "velocity": 118, "channel": 0}, {"type": "note_off", "time": 62, "note": 68, "velocity": 118, "channel": 0}, {"type": "note_on", "time": 0, "note": 65, "velocity": 110, "channel": 0}, {"type": "note_off", "time": 97, "note": 65, "velocity": 110, "channel": 0}, {"type": "note_on", "time": 5, "note": 66, "velocity": 116, "channel": 0}, {"type": "note_off", "time": 76, "note": 66, "velocity": 116, "channel": 0}, {"type": "note_on", "time": 17, "note": 67, "velocity": 105, "channel": 0}, {"type": "note_off", "time": 79, "note": 67, "velocity": 105, "channel": 0}, {"type": "note_on", "time": 35, "note": 63, "velocity": 116, "channel": 0}, {"type": "note_off", "time": 85, "note": 63, "velocity": 116, "channel": 0}, {"type": "note_on", "time": 8, "note": 60, "velocity": 105, "channel": 0}, {"type": "note_off", "time": 79, "note": 60, "velocity": 105, "channel": 0}, {"type": "note_on", "time": 8, "note": 60, "velocity": 93, "channel": 0}, {"type": "note_off", "time": 44, "note": 60, "velocity": 93, "channel": 0}, {"type": "note_on", "time": 14, "note": 65, "velocity": 114, "channel": 0}, {"type": "note_off", "time": 85, "note": 65, "velocity": 114, "channel": 0}, {"type": "note_on", "time": 127, "note": 69, "velocity": 111, "channel": 0}, {"type": "note_off", "time": 97, "note": 69, "velocity": 111, "channel": 0}, {"type": "note_on", "time": 29, "note": 67, "velocity": 121, "channel": 0}, {"type": "note_off", "time": 85, "note": 67, "velocity": 121, "channel": 0}, {"type": "note_on", "time": 14, "note": 66, "velocity": 103, "channel": 0}, {"type": "note_off", "time": 70, "note": 66, "velocity": 103, "channel": 0}, {"type": "note_on", "time": 97, "note": 66, "velocity": 100, "channel": 0}, {"type": "note_off", "time": 76, "note": 66, "velocity": 100, "channel": 0}, {"type": "note_on", "time": 11, "note": 66, "velocity": 109, "channel": 0}, {"type": "note_off", "time": 100, "note": 66, "velocity": 109, "channel": 0}, {"type": "note_on", "time": 8, "note": 67, "velocity": 120, "channel": 0}, {"type": "note_off", "time": 67, "note": 67, "velocity": 120, "channel": 0}, {"type": "note_on", "time": 8, "note": 69, "velocity": 123, "channel": 0}, {"type": "note_off", "time": 76, "note": 69, "velocity": 123, "channel": 0}, {"type": "note_on", "time": 8, "note": 71, "velocity": 121, "channel": 0}, {"type": "note_off", "time": 85, "note": 71, "velocity": 121, "channel": 0}, {"type": "note_on", "time": 17, "note": 74, "velocity": 118, "channel": 0}, {"type": "note_off", "time": 82, "note": 74, "velocity": 118, "channel": 0}, {"type": "note_on", "time": 29, "note": 74, "velocity": 119, "channel": 0}, {"type": "note_off", "time": 62, "note": 74, "velocity": 119, "channel": 0}, {"type": "note_on", "time": 23, "note": 71, "velocity": 120, "channel": 0}, {"type": "note_off", "time": 73, "note": 71, "velocity": 120, "channel": 0}, {"type": "note_on", "time": 11, "note": 72, "velocity": 109, "channel": 0}, {"type": "note_off", "time": 59, "note": 72, "velocity": 109, "channel": 0}, {"type": "note_on", "time": 14, "note": 74, "velocity": 116, "channel": 0}, {"type": "note_off", "time": 59, "note": 74, "velocity": 116, "channel": 0}, {"type": "note_on", "time": 8, "note": 72, "velocity": 121, "channel": 0}, {"type": "note_off", "time": 56, "note": 72, "velocity": 121, "channel": 0}, {"type": "note_on", "time": 2, "note": 71, "velocity": 117, "channel": 0}, {"type": "note_off", "time": 73, "note": 71, "velocity": 117, "channel": 0}, {"type": "note_on", "time": 11, "note": 69, "velocity": 119, "channel": 0}, {"type": "note_off", "time": 73, "note": 69, "velocity": 119, "channel": 0}, {"type": "note_on", "time": 2, "note": 67, "velocity": 110, "channel": 0}, {"type": "note_off", "time": 67, "note": 67, "velocity": 110, "channel": 0}, {"type": "note_on", "time": 26, "note": 68, "velocity": 113, "channel": 0}, {"type": "note_off", "time": 76, "note": 68, "velocity": 113, "channel": 0}, {"type": "note_on", "time": 2, "note": 69, "velocity": 120, "channel": 0}, {"type": "note_off", "time": 132, "note": 69, "velocity": 120, "channel": 0}, {"type": "note_on", "time": 26, "note": 65, "velocity": 107, "channel": 0}, {"type": "note_off", "time": 47, "note": 65, "velocity": 107, "channel": 0}, {"type": "note_on", "time": 0, "note": 64, "velocity": 95, "channel": 0}, {"type": "note_off", "time": 82, "note": 64, "velocity": 95, "channel": 0}, {"type": "note_on", "time": 17, "note": 63, "velocity": 96, "channel": 0}, {"type": "note_off", "time": 70, "note": 63, "velocity": 96, "channel": 0}, {"type": "note_on", "time": 26, "note": 67, "velocity": 114, "channel": 0}, {"type": "note_off", "time": 94, "note": 67, "velocity": 114, "channel": 0}, {"type": "note_on", "time": 8, "note": 65, "velocity": 109, "channel": 0}, {"type": "note_off", "time": 56, "note": 65, "velocity": 109, "channel": 0}, {"type": "note_on", "time": 8, "note": 62, "velocity": 103, "channel": 0}, {"type": "note_off", "time": 76, "note": 62, "velocity": 103, "channel": 0}, {"type": "note_on", "time": 23, "note": 63, "velocity": 111, "channel": 0}, {"type": "note_off", "time": 73, "note": 63, "velocity": 111, "channel": 0}, {"type": "note_on", "time": 17, "note": 64, "velocity": 115, "channel": 0}, {"type": "note_off", "time": 153, "note": 64, "velocity": 115, "channel": 0}, {"type": "note_on", "time": 50, "note": 64, "velocity": 117, "channel": 0}, {"type": "note_off", "time": 171, "note": 64, "velocity": 117, "channel": 0}, {"type": "note_on", "time": 55, "note": 64, "velocity": 108, "channel": 0}, {"type": "note_off", "time": 83, "note": 64, "velocity": 108, "channel": 0}, {"type": "note_on", "time": 95, "note": 66, "velocity": 120, "channel": 0}, {"type": "note_off", "time": 83, "note": 66, "velocity": 120, "channel": 0}, {"type": "note_on", "time": 20, "note": 69, "velocity": 119, "channel": 0}, {"type": "note_off", "time": 70, "note": 69, "velocity": 119, "channel": 0}, {"type": "note_on", "time": 78, "note": 76, "velocity": 126, "channel": 0}, {"type": "note_off", "time": 116, "note": 76, "velocity": 126, "channel": 0}, {"type": "note_on", "time": 8, "note": 74, "velocity": 119, "channel": 0}, {"type": "note_off", "time": 112, "note": 74, "velocity": 119, "channel": 0}, {"type": "note_on", "time": 12, "note": 75, "velocity": 123, "channel": 0}, {"type": "note_off", "time": 419, "note": 75, "velocity": 123, "channel": 0}, {"type": "note_on", "time": 16, "note": 68, "velocity": 109, "channel": 0}, {"type": "note_off", "time": 120, "note": 68, "velocity": 109, "channel": 0}, {"type": "note_on", "time": 4, "note": 63, "velocity": 100, "channel": 0}, {"type": "note_off", "time": 116, "note": 63, "velocity": 100, "channel": 0}, {"type": "note_on", "time": 62, "note": 65, "velocity": 87, "channel": 0}, {"type": "note_off", "time": 91, "note": 65, "velocity": 87, "channel": 0}, {"type": "note_on", "time": 62, "note": 71, "velocity": 122, "channel": 0}, {"type": "note_off", "time": 53, "note": 71, "velocity": 122, "channel": 0}, {"type": "note_on", "time": 12, "note": 72, "velocity": 122, "channel": 0}, {"type": "note_off", "time": 220, "note": 72, "velocity": 122, "channel": 0}, {"type": "note_on", "time": 41, "note": 67, "velocity": 116, "channel": 0}, {"type": "note_off", "time": 290, "note": 67, "velocity": 116, "channel": 0}, {"type": "note_on", "time": 43, "note": 68, "velocity": 116, "channel": 0}, {"type": "note_off", "time": 70, "note": 68, "velocity": 116, "channel": 0}, {"type": "note_on", "time": 20, "note": 69, "velocity": 119, "channel": 0}, {"type": "note_off", "time": 88, "note": 69, "velocity": 119, "channel": 0}, {"type": "note_on", "time": 0, "note": 65, "velocity": 113, "channel": 0}, {"type": "note_off", "time": 67, "note": 65, "velocity": 113, "channel": 0}, {"type": "note_on", "time": 23, "note": 62, "velocity": 105, "channel": 0}, {"type": "note_off", "time": 79, "note": 62, "velocity": 105, "channel": 0}, {"type": "note_on", "time": 0, "note": 59, "velocity": 106, "channel": 0}, {"type": "note_off", "time": 53, "note": 59, "velocity": 106, "channel": 0}, {"type": "note_on", "time": 14, "note": 67, "velocity": 108, "channel": 0}, {"type": "note_off", "time": 100, "note": 67, "velocity": 108, "channel": 0}, {"type": "note_on", "time": 5, "note": 65, "velocity": 114, "channel": 0}, {"type": "note_off", "time": 88, "note": 65, "velocity": 114, "channel": 0}, {"type": "note_on", "time": 5, "note": 62, "velocity": 105, "channel": 0}, {"type": "note_off", "time": 70, "note": 62, "velocity": 105, "channel": 0}, {"type": "note_on", "time": 14, "note": 63, "velocity": 111, "channel": 0}, {"type": "note_off", "time": 59, "note": 63, "velocity": 111, "channel": 0}, {"type": "note_on", "time": 17, "note": 64, "velocity": 121, "channel": 0}, {"type": "note_off", "time": 121, "note": 64, "velocity": 121, "channel": 0}, {"type": "note_on", "time": 686, "note": 57, "velocity": 118, "channel": 0}, {"type": "note_off", "time": 91, "note": 57, "velocity": 118, "channel": 0}, {"type": "note_on", "time": 8, "note": 56, "velocity": 100, "channel": 0}, {"type": "note_off", "time": 53, "note": 56, "velocity": 100, "channel": 0}, {"type": "note_on", "time": 16, "note": 57, "velocity": 100, "channel": 0}, {"type": "note_off", "time": 83, "note": 57, "velocity": 100, "channel": 0}, {"type": "note_on", "time": 6, "note": 56, "velocity": 96, "channel": 0}, {"type": "note_off", "time": 53, "note": 56, "velocity": 96, "channel": 0}, {"type": "note_on", "time": 12, "note": 58, "velocity": 122, "channel": 0}, {"type": "note_off", "time": 97, "note": 58, "velocity": 122, "channel": 0}, {"type": "note_on", "time": 22, "note": 57, "velocity": 111, "channel": 0}, {"type": "note_off", "time": 70, "note": 57, "velocity": 111, "channel": 0}, {"type": "note_on", "time": 26, "note": 56, "velocity": 110, "channel": 0}, {"type": "note_off", "time": 74, "note": 56, "velocity": 110, "channel": 0}, {"type": "note_on", "time": 14, "note": 57, "velocity": 106, "channel": 0}, {"type": "note_off", "time": 80, "note": 57, "velocity": 106, "channel": 0}, {"type": "note_on", "time": 1, "note": 58, "velocity": 119, "channel": 0}, {"type": "note_off", "time": 88, "note": 58, "velocity": 119, "channel": 0}, {"type": "note_on", "time": 14, "note": 57, "velocity": 117, "channel": 0}, {"type": "note_off", "time": 70, "note": 57, "velocity": 117, "channel": 0}, {"type": "note_on", "time": 26, "note": 56, "velocity": 103, "channel": 0}, {"type": "note_off", "time": 94, "note": 56, "velocity": 103, "channel": 0}, {"type": "note_on", "time": 11, "note": 57, "velocity": 111, "channel": 0}, {"type": "note_off", "time": 59, "note": 57, "velocity": 111, "channel": 0}, {"type": "note_on", "time": 20, "note": 58, "velocity": 122, "channel": 0}, {"type": "note_off", "time": 109, "note": 58, "velocity": 122, "channel": 0}, {"type": "note_on", "time": 14, "note": 57, "velocity": 114, "channel": 0}, {"type": "note_off", "time": 67, "note": 57, "velocity": 114, "channel": 0}, {"type": "note_on", "time": 17, "note": 56, "velocity": 96, "channel": 0}, {"type": "note_off", "time": 103, "note": 56, "velocity": 96, "channel": 0}, {"type": "note_on", "time": 14, "note": 57, "velocity": 106, "channel": 0}, {"type": "note_off", "time": 79, "note": 57, "velocity": 106, "channel": 0}, {"type": "note_on", "time": 0, "note": 58, "velocity": 117, "channel": 0}, {"type": "note_off", "time": 91, "note": 58, "velocity": 117, "channel": 0}, {"type": "note_on", "time": 0, "note": 57, "velocity": 114, "channel": 0}, {"type": "note_off", "time": 59, "note": 57, "velocity": 114, "channel": 0}, {"type": "note_on", "time": 17, "note": 56, "velocity": 99, "channel": 0}, {"type": "note_off", "time": 97, "note": 56, "velocity": 99, "channel": 0}, {"type": "note_on", "time": 41, "note": 57, "velocity": 102, "channel": 0}, {"type": "note_off", "time": 44, "note": 57, "velocity": 102, "channel": 0}, {"type": "note_on", "time": 2, "note": 58, "velocity": 107, "channel": 0}, {"type": "note_off", "time": 91, "note": 58, "velocity": 107, "channel": 0}, {"type": "note_on", "time": 17, "note": 57, "velocity": 111, "channel": 0}, {"type": "note_off", "time": 64, "note": 57, "velocity": 111, "channel": 0}, {"type": "note_on", "time": 17, "note": 56, "velocity": 107, "channel": 0}, {"type": "note_off", "time": 100, "note": 56, "velocity": 107, "channel": 0}, {"type": "note_on", "time": 59, "note": 57, "velocity": 110, "channel": 0}, {"type": "note_off", "time": 47, "note": 57, "velocity": 110, "channel": 0}, {"type": "note_on", "time": 5, "note": 58, "velocity": 118, "channel": 0}, {"type": "note_off", "time": 112, "note": 58, "velocity": 118, "channel": 0}, {"type": "note_on", "time": 8, "note": 57, "velocity": 107, "channel": 0}, {"type": "note_off", "time": 62, "note": 57, "velocity": 107, "channel": 0}, {"type": "note_on", "time": 11, "note": 56, "velocity": 96, "channel": 0}, {"type": "note_off", "time": 73, "note": 56, "velocity": 96, "channel": 0}, {"type": "note_on", "time": 11, "note": 57, "velocity": 95, "channel": 0}, {"type": "note_off", "time": 73, "note": 57, "velocity": 95, "channel": 0}, {"type": "note_on", "time": 44, "note": 65, "velocity": 119, "channel": 0}, {"type": "note_off", "time": 100, "note": 65, "velocity": 119, "channel": 0}, {"type": "note_on", "time": 8, "note": 64, "velocity": 110, "channel": 0}, {"type": "note_off", "time": 67, "note": 64, "velocity": 110, "channel": 0}, {"type": "note_on", "time": 17, "note": 63, "velocity": 103, "channel": 0}, {"type": "note_off", "time": 67, "note": 63, "velocity": 103, "channel": 0}, {"type": "note_on", "time": 17, "note": 64, "velocity": 110, "channel": 0}, {"type": "note_off", "time": 59, "note": 64, "velocity": 110, "channel": 0}, {"type": "note_on", "time": 2, "note": 65, "velocity": 111, "channel": 0}, {"type": "note_off", "time": 94, "note": 65, "velocity": 111, "channel": 0}, {"type": "note_on", "time": 2, "note": 64, "velocity": 111, "channel": 0}, {"type": "note_off", "time": 67, "note": 64, "velocity": 111, "channel": 0}, {"type": "note_on", "time": 11, "note": 63, "velocity": 106, "channel": 0}, {"type": "note_off", "time": 112, "note": 63, "velocity": 106, "channel": 0}, {"type": "note_on", "time": 32, "note": 64, "velocity": 113, "channel": 0}, {"type": "note_off", "time": 47, "note": 64, "velocity": 113, "channel": 0}, {"type": "note_on", "time": 11, "note": 65, "velocity": 106, "channel": 0}, {"type": "note_off", "time": 56, "note": 65, "velocity": 106, "channel": 0}, {"type": "note_on", "time": 2, "note": 64, "velocity": 113, "channel": 0}, {"type": "note_off", "time": 88, "note": 64, "velocity": 113, "channel": 0}, {"type": "note_on", "time": 11, "note": 63, "velocity": 109, "channel": 0}, {"type": "note_off", "time": 100, "note": 63, "velocity": 109, "channel": 0}, {"type": "note_on", "time": 2, "note": 64, "velocity": 113, "channel": 0}, {"type": "note_off", "time": 67, "note": 64, "velocity": 113, "channel": 0}, {"type": "note_on", "time": 26, "note": 65, "velocity": 120, "channel": 0}, {"type": "note_off", "time": 91, "note": 65, "velocity": 120, "channel": 0}, {"type": "note_on", "time": 14, "note": 64, "velocity": 103, "channel": 0}, {"type": "note_off", "time": 47, "note": 64, "velocity": 103, "channel": 0}, {"type": "note_on", "time": 11, "note": 63, "velocity": 101, "channel": 0}, {"type": "note_off", "time": 85, "note": 63, "velocity": 101, "channel": 0}, {"type": "note_on", "time": 35, "note": 64, "velocity": 108, "channel": 0}, {"type": "note_off", "time": 59, "note": 64, "velocity": 108, "channel": 0}, {"type": "note_on", "time": 23, "note": 69, "velocity": 114, "channel": 0}, {"type": "note_off", "time": 91, "note": 69, "velocity": 114, "channel": 0}, {"type": "note_on", "time": 16, "note": 70, "velocity": 117, "channel": 0}, {"type": "note_off", "time": 99, "note": 70, "velocity": 117, "channel": 0}, {"type": "note_on", "time": 20, "note": 67, "velocity": 112, "channel": 0}, {"type": "note_off", "time": 78, "note": 67, "velocity": 112, "channel": 0}, {"type": "note_on", "time": 9, "note": 68, "velocity": 113, "channel": 0}, {"type": "note_on", "time": 90, "note": 69, "velocity": 118, "channel": 0}, {"type": "note_off", "time": 0, "note": 68, "velocity": 113, "channel": 0}, {"type": "note_off", "time": 103, "note": 69, "velocity": 118, "channel": 0}, {"type": "note_on", "time": 83, "note": 65, "velocity": 101, "channel": 0}, {"type": "note_off", "time": 103, "note": 65, "velocity": 101, "channel": 0}, {"type": "note_on", "time": 8, "note": 66, "velocity": 119, "channel": 0}, {"type": "note_off", "time": 79, "note": 66, "velocity": 119, "channel": 0}, {"type": "note_on", "time": 23, "note": 67, "velocity": 113, "channel": 0}, {"type": "note_off", "time": 59, "note": 67, "velocity": 113, "channel": 0}, {"type": "note_on", "time": 35, "note": 63, "velocity": 119, "channel": 0}, {"type": "note_off", "time": 73, "note": 63, "velocity": 119, "channel": 0}, {"type": "note_on", "time": 2, "note": 60, "velocity": 109, "channel": 0}, {"type": "note_off", "time": 76, "note": 60, "velocity": 109, "channel": 0}, {"type": "note_on", "time": 8, "note": 59, "velocity": 107, "channel": 0}, {"type": "note_off", "time": 70, "note": 59, "velocity": 107, "channel": 0}, {"type": "note_on", "time": 26, "note": 65, "velocity": 111, "channel": 0}, {"type": "note_off", "time": 100, "note": 65, "velocity": 111, "channel": 0}, {"type": "note_on", "time": 62, "note": 57, "velocity": 101, "channel": 0}, {"type": "note_on", "time": 62, "note": 58, "velocity": 99, "channel": 0}, {"type": "note_off", "time": 0, "note": 57, "velocity": 101, "channel": 0}, {"type": "note_off", "time": 76, "note": 58, "velocity": 99, "channel": 0}, {"type": "note_on", "time": 20, "note": 63, "velocity": 114, "channel": 0}, {"type": "note_off", "time": 82, "note": 63, "velocity": 114, "channel": 0}, {"type": "note_on", "time": 2, "note": 61, "velocity": 110, "channel": 0}, {"type": "note_off", "time": 79, "note": 61, "velocity": 110, "channel": 0}, {"type": "note_on", "time": 17, "note": 62, "velocity": 102, "channel": 0}, {"type": "note_off", "time": 70, "note": 62, "velocity": 102, "channel": 0}, {"type": "note_on", "time": 20, "note": 63, "velocity": 114, "channel": 0}, {"type": "note_off", "time": 91, "note": 63, "velocity": 114, "channel": 0}, {"type": "note_on", "time": 11, "note": 64, "velocity": 117, "channel": 0}, {"type": "note_off", "time": 82, "note": 64, "velocity": 117, "channel": 0}, {"type": "note_on", "time": 14, "note": 65, "velocity": 118, "channel": 0}, {"type": "note_off", "time": 70, "note": 65, "velocity": 118, "channel": 0}, {"type": "note_on", "time": 5, "note": 67, "velocity": 114, "channel": 0}, {"type": "note_off", "time": 73, "note": 67, "velocity": 114, "channel": 0}, {"type": "note_on", "time": 8, "note": 69, "velocity": 119, "channel": 0}, {"type": "note_off", "time": 85, "note": 69, "velocity": 119, "channel": 0}, {"type": "note_on", "time": 11, "note": 70, "velocity": 118, "channel": 0}, {"type": "note_off", "time": 88, "note": 70, "velocity": 118, "channel": 0}, {"type": "note_on", "time": 11, "note": 72, "velocity": 120, "channel": 0}, {"type": "note_off", "time": 100, "note": 72, "velocity": 120, "channel": 0}, {"type": "note_on", "time": 5, "note": 69, "velocity": 116, "channel": 0}, {"type": "note_off", "time": 73, "note": 69, "velocity": 116, "channel": 0}, {"type": "note_on", "time": 14, "note": 70, "velocity": 112, "channel": 0}, {"type": "note_off", "time": 56, "note": 70, "velocity": 112, "channel": 0}, {"type": "note_on", "time": 8, "note": 72, "velocity": 121, "channel": 0}, {"type": "note_off", "time": 73, "note": 72, "velocity": 121, "channel": 0}, {"type": "note_on", "time": 0, "note": 73, "velocity": 123, "channel": 0}, {"type": "note_off", "time": 94, "note": 73, "velocity": 123, "channel": 0}, {"type": "note_on", "time": 11, "note": 74, "velocity": 119, "channel": 0}, {"type": "note_off", "time": 112, "note": 74, "velocity": 119, "channel": 0}, {"type": "note_on", "time": 0, "note": 72, "velocity": 121, "channel": 0}, {"type": "note_off", "time": 70, "note": 72, "velocity": 121, "channel": 0}, {"type": "note_on", "time": 17, "note": 70, "velocity": 122, "channel": 0}, {"type": "note_off", "time": 79, "note": 70, "velocity": 122, "channel": 0}, {"type": "note_on", "time": 0, "note": 69, "velocity": 119, "channel": 0}, {"type": "note_off", "time": 109, "note": 69, "velocity": 119, "channel": 0}, {"type": "note_on", "time": 690, "note": 75, "velocity": 101, "channel": 0}, {"type": "note_off", "time": 53, "note": 75, "velocity": 101, "channel": 0}, {"type": "note_on", "time": 5, "note": 77, "velocity": 123, "channel": 0}, {"type": "note_off", "time": 132, "note": 77, "velocity": 123, "channel": 0}, {"type": "note_on", "time": 2, "note": 76, "velocity": 121, "channel": 0}, {"type": "note_off", "time": 67, "note": 76, "velocity": 121, "channel": 0}, {"type": "note_on", "time": 20, "note": 74, "velocity": 117, "channel": 0}, {"type": "note_off", "time": 59, "note": 74, "velocity": 117, "channel": 0}, {"type": "note_on", "time": 20, "note": 72, "velocity": 118, "channel": 0}, {"type": "note_off", "time": 73, "note": 72, "velocity": 118, "channel": 0}, {"type": "note_on", "time": 14, "note": 71, "velocity": 116, "channel": 0}, {"type": "note_off", "time": 82, "note": 71, "velocity": 116, "channel": 0}, {"type": "note_on", "time": 5, "note": 70, "velocity": 118, "channel": 0}, {"type": "note_off", "time": 82, "note": 70, "velocity": 118, "channel": 0}, {"type": "note_on", "time": 8, "note": 69, "velocity": 120, "channel": 0}, {"type": "note_off", "time": 76, "note": 69, "velocity": 120, "channel": 0}, {"type": "note_on", "time": 29, "note": 67, "velocity": 115, "channel": 0}, {"type": "note_off", "time": 79, "note": 67, "velocity": 115, "channel": 0}, {"type": "note_on", "time": 14, "note": 65, "velocity": 122, "channel": 0}, {"type": "note_off", "time": 79, "note": 65, "velocity": 122, "channel": 0}, {"type": "note_on", "time": 8, "note": 64, "velocity": 119, "channel": 0}, {"type": "note_off", "time": 94, "note": 64, "velocity": 119, "channel": 0}, {"type": "note_on", "time": 29, "note": 61, "velocity": 102, "channel": 0}, {"type": "note_off", "time": 82, "note": 61, "velocity": 102, "channel": 0}, {"type": "note_on", "time": 8, "note": 58, "velocity": 92, "channel": 0}, {"type": "note_off", "time": 59, "note": 58, "velocity": 92, "channel": 0}, {"type": "note_on", "time": 0, "note": 60, "velocity": 97, "channel": 0}, {"type": "note_off", "time": 73, "note": 60, "velocity": 97, "channel": 0}, {"type": "note_on", "time": 14, "note": 61, "velocity": 108, "channel": 0}, {"type": "note_off", "time": 127, "note": 61, "velocity": 108, "channel": 0}, {"type": "note_on", "time": 53, "note": 64, "velocity": 113, "channel": 0}, {"type": "note_off", "time": 79, "note": 64, "velocity": 113, "channel": 0}, {"type": "note_on", "time": 26, "note": 65, "velocity": 112, "channel": 0}, {"type": "note_off", "time": 97, "note": 65, "velocity": 112, "channel": 0}, {"type": "note_on", "time": 29, "note": 67, "velocity": 104, "channel": 0}, {"type": "note_off", "time": 91, "note": 67, "velocity": 104, "channel": 0}, {"type": "note_on", "time": 5, "note": 64, "velocity": 117, "channel": 0}, {"type": "note_off", "time": 82, "note": 64, "velocity": 117, "channel": 0}, {"type": "note_on", "time": 14, "note": 65, "velocity": 118, "channel": 0}, {"type": "note_off", "time": 106, "note": 65, "velocity": 118, "channel": 0}, {"type": "note_on", "time": 5, "note": 67, "velocity": 109, "channel": 0}, {"type": "note_off", "time": 64, "note": 67, "velocity": 109, "channel": 0}, {"type": "note_on", "time": 20, "note": 68, "velocity": 114, "channel": 0}, {"type": "note_off", "time": 67, "note": 68, "velocity": 114, "channel": 0}, {"type": "note_on", "time": 29, "note": 69, "velocity": 110, "channel": 0}, {"type": "note_off", "time": 76, "note": 69, "velocity": 110, "channel": 0}, {"type": "note_on", "time": 0, "note": 74, "velocity": 117, "channel": 0}, {"type": "note_off", "time": 129, "note": 74, "velocity": 117, "channel": 0}, {"type": "note_on", "time": 14, "note": 73, "velocity": 120, "channel": 0}, {"type": "note_off", "time": 56, "note": 73, "velocity": 120, "channel": 0}, {"type": "note_on", "time": 14, "note": 72, "velocity": 109, "channel": 0}, {"type": "note_off", "time": 118, "note": 72, "velocity": 109, "channel": 0}, {"type": "note_on", "time": 0, "note": 65, "velocity": 99, "channel": 0}, {"type": "note_off", "time": 53, "note": 65, "velocity": 99, "channel": 0}, {"type": "note_on", "time": 8, "note": 61, "velocity": 94, "channel": 0}, {"type": "note_off", "time": 50, "note": 61, "velocity": 94, "channel": 0}, {"type": "note_on", "time": 14, "note": 65, "velocity": 101, "channel": 0}, {"type": "note_off", "time": 41, "note": 65, "velocity": 101, "channel": 0}, {"type": "note_on", "time": 26, "note": 70, "velocity": 118, "channel": 0}, {"type": "note_off", "time": 94, "note": 70, "velocity": 118, "channel": 0}, {"type": "note_on", "time": 11, "note": 67, "velocity": 107, "channel": 0}, {"type": "note_off", "time": 62, "note": 67, "velocity": 107, "channel": 0}, {"type": "note_on", "time": 11, "note": 68, "velocity": 107, "channel": 0}, {"type": "note_off", "time": 59, "note": 68, "velocity": 107, "channel": 0}, {"type": "note_on", "time": 20, "note": 69, "velocity": 115, "channel": 0}, {"type": "note_off", "time": 67, "note": 69, "velocity": 115, "channel": 0}, {"type": "note_on", "time": 23, "note": 65, "velocity": 104, "channel": 0}, {"type": "note_off", "time": 64, "note": 65, "velocity": 104, "channel": 0}, {"type": "note_on", "time": 0, "note": 64, "velocity": 99, "channel": 0}, {"type": "note_off", "time": 58, "note": 64, "velocity": 99, "channel": 0}, {"type": "note_on", "time": 15, "note": 60, "velocity": 96, "channel": 0}, {"type": "note_off", "time": 59, "note": 60, "velocity": 96, "channel": 0}, {"type": "note_on", "time": 2, "note": 65, "velocity": 91, "channel": 0}, {"type": "note_off", "time": 67, "note": 65, "velocity": 91, "channel": 0}, {"type": "note_on", "time": 11, "note": 67, "velocity": 108, "channel": 0}, {"type": "note_off", "time": 112, "note": 67, "velocity": 108, "channel": 0}, {"type": "note_on", "time": 0, "note": 65, "velocity": 118, "channel": 0}, {"type": "note_off", "time": 67, "note": 65, "velocity": 118, "channel": 0}, {"type": "note_on", "time": 8, "note": 61, "velocity": 107, "channel": 0}, {"type": "note_off", "time": 64, "note": 61, "velocity": 107, "channel": 0}, {"type": "note_on", "time": 0, "note": 62, "velocity": 107, "channel": 0}, {"type": "note_off", "time": 67, "note": 62, "velocity": 107, "channel": 0}, {"type": "note_on", "time": 11, "note": 64, "velocity": 114, "channel": 0}, {"type": "note_off", "time": 70, "note": 64, "velocity": 114, "channel": 0}, {"type": "note_on", "time": 62, "note": 61, "velocity": 96, "channel": 0}, {"type": "note_off", "time": 47, "note": 61, "velocity": 96, "channel": 0}, {"type": "note_on", "time": 8, "note": 62, "velocity": 114, "channel": 0}, {"type": "note_off", "time": 135, "note": 62, "velocity": 114, "channel": 0}, {"type": "note_on", "time": 56, "note": 61, "velocity": 113, "channel": 0}, {"type": "note_off", "time": 97, "note": 61, "velocity": 113, "channel": 0}, {"type": "note_on", "time": 35, "note": 63, "velocity": 106, "channel": 0}, {"type": "note_off", "time": 64, "note": 63, "velocity": 106, "channel": 0}, {"type": "note_on", "time": 17, "note": 65, "velocity": 110, "channel": 0}, {"type": "note_off", "time": 85, "note": 65, "velocity": 110, "channel": 0}, {"type": "note_on", "time": 32, "note": 70, "velocity": 117, "channel": 0}, {"type": "note_off", "time": 100, "note": 70, "velocity": 117, "channel": 0}, {"type": "note_on", "time": 11, "note": 69, "velocity": 119, "channel": 0}, {"type": "note_off", "time": 91, "note": 69, "velocity": 119, "channel": 0}, {"type": "note_on", "time": 5, "note": 68, "velocity": 114, "channel": 0}, {"type": "note_off", "time": 79, "note": 68, "velocity": 114, "channel": 0}, {"type": "note_on", "time": 14, "note": 69, "velocity": 116, "channel": 0}, {"type": "note_off", "time": 106, "note": 69, "velocity": 116, "channel": 0}, {"type": "note_on", "time": 76, "note": 63, "velocity": 110, "channel": 0}, {"type": "note_off", "time": 100, "note": 63, "velocity": 110, "channel": 0}, {"type": "note_on", "time": 17, "note": 65, "velocity": 109, "channel": 0}, {"type": "note_off", "time": 91, "note": 65, "velocity": 109, "channel": 0}, {"type": "note_on", "time": 8, "note": 63, "velocity": 98, "channel": 0}, {"type": "note_off", "time": 56, "note": 63, "velocity": 98, "channel": 0}, {"type": "note_on", "time": 2, "note": 64, "velocity": 114, "channel": 0}, {"type": "note_off", "time": 56, "note": 64, "velocity": 114, "channel": 0}, {"type": "note_on", "time": 12, "note": 65, "velocity": 124, "channel": 0}, {"type": "note_off", "time": 85, "note": 65, "velocity": 124, "channel": 0}, {"type": "note_on", "time": 33, "note": 61, "velocity": 109, "channel": 0}, {"type": "note_off", "time": 211, "note": 61, "velocity": 109, "channel": 0}, {"type": "note_on", "time": 91, "note": 61, "velocity": 106, "channel": 0}, {"type": "note_off", "time": 267, "note": 61, "velocity": 106, "channel": 0}, {"type": "note_on", "time": 64, "note": 61, "velocity": 101, "channel": 0}, {"type": "note_off", "time": 126, "note": 61, "velocity": 101, "channel": 0}, {"type": "note_on", "time": 8, "note": 61, "velocity": 94, "channel": 0}, {"type": "note_off", "time": 128, "note": 61, "velocity": 94, "channel": 0}, {"type": "end_of_track", "time": 0}]]}