{"ticks_per_beat": 840, "tracks": [[{"type": "track_name", "name": "Melody", "time": 0}, {"type": "set_tempo", "tempo": 447761, "time": 0}, {"type": "key_signature", "key": "Eb", "time": 0}, {"type": "time_signature", "numerator": 4, "denominator": 4, "clocks_per_click": 24, "notated_32nd_notes_per_beat": 8, "time": 0}, {"type": "note_on", "time": 4290, "note": 68, "velocity": 127, "channel": 0}, {"type": "note_off", "time": 239, "note": 68, "velocity": 127, "channel": 0}, {"type": "note_on", "time": 65, "note": 67, "velocity": 113, "channel": 0}, {"type": "note_off", "time": 185, "note": 67, "velocity": 113, "channel": 0}, {"type": "note_on", "time": 49, "note": 68, "velocity": 119, "channel": 0}, {"type": "note_off", "time": 212, "note": 68, "velocity": 119, "channel": 0}, {"type": "note_on", "time": 43, "note": 67, "velocity": 108, "channel": 0}, {"type": "note_off", "time": 228, "note": 67, "velocity": 108, "channel": 0}, {"type": "note_on", "time": 59, "note": 68, "velocity": 117, "channel": 0}, {"type": "note_off", "time": 228, "note": 68, "velocity": 117, "channel": 0}, {"type": "note_on", "time": 0, "note": 67, "velocity": 102, "channel": 0}, {"type": "note_off", "time": 190, "note": 67, "velocity": 102, "channel": 0}, {"type": "note_on", "time": 32, "note": 68, "velocity": 117, "channel": 0}, {"type": "note_off", "time": 250, "note": 68, "velocity": 117, "channel": 0}, {"type": "note_on", "time": 5, "note": 67, "velocity": 110, "channel": 0}, {"type": "note_off", "time": 245, "note": 67, "velocity": 110, "channel": 0}, {"type": "note_on", "time": 59, "note": 68, "velocity": 118, "channel": 0}, {"type": "note_off", "time": 206, "note": 68, "velocity": 118, "channel": 0}, {"type": "note_on", "time": 54, "note": 67, "velocity": 102, "channel": 0}, {"type": "note_off", "time": 217, "note": 67, "velocity": 102, "channel": 0}, {"type": "note_on", "time": 32, "note": 68, "velocity": 115, "channel": 0}, {"type": "note_off", "time": 283, "note": 68, "velocity": 115, "channel": 0}, {"type": "note_on", "time": 27, "note": 67, "velocity": 104, "channel": 0}, {"type": "note_off", "time": 201, "note": 67, "velocity": 104, "channel": 0}, {"type": "note_on", "time": 0, "note": 68, "velocity": 113, "channel": 0}, {"type": "note_off", "time": 223, "note": 68, "velocity": 113, "channel": 0}, {"type": "note_on", "time": 38, "note": 67, "velocity": 102, "channel": 0}, {"type": "note_off", "time": 217, "note": 67, "velocity": 102, "channel": 0}, {"type": "note_on", "time": 217, "note": 67, "velocity": 121, "channel": 0}, {"type": "note_off", "time": 174, "note": 67, "velocity": 121, "channel": 0}, {"type": "note_on", "time": 27, "note": 68, "velocity": 111, "channel": 0}, {"type": "note_off", "time": 392, "note": 68, "velocity": 111, "channel": 0}, {"type": "note_on", "time": 38, "note": 67, "velocity": 113, "channel": 0}, {"type": "note_off", "time": 212, "note": 67, "velocity": 113, "channel": 0}, {"type": "note_on", "time": 223, "note": 63, "velocity": 116, "channel": 0}, {"type": "note_off", "time": 294, "note": 63, "velocity": 116, "channel": 0}, {"type": "note_on", "time": 38, "note": 58, "velocity": 105, "channel": 0}, {"type": "note_off", "time": 343, "note": 58, "velocity": 105, "channel": 0}, {"type": "note_on", "time": 65, "note": 63, "velocity": 114, "channel": 0}, {"type": "note_off", "time": 1170, "note": 63, "velocity": 114, "channel": 0}, {"type": "note_on", "time": 5385, "note": 68, "velocity": 119, "channel": 0}, {"type": "note_off", "time": 255, "note": 68, "velocity": 119, "channel": 0}, {"type": "note_on", "time": 27, "note": 66, "velocity": 100, "channel": 0}, {"type": "note_off", "time": 217, "note": 66, "velocity": 100, "channel": 0}, {"type": "note_on", "time": 103, "note": 68, "velocity": 120, "channel": 0}, {"type": "note_off", "time": 201, "note": 68, "velocity": 120, "channel": 0}, {"type": "note_on", "time": 21, "note": 66, "velocity": 101, "channel": 0}, {"type": "note_off", "time": 217, "note": 66, "velocity": 101, "channel": 0}, {"type": "note_on", "time": 163, "note": 68, "velocity": 102, "channel": 0}, {"type": "note_off", "time": 250, "note": 68, "velocity": 102, "channel": 0}, {"type": "note_on", "time": 10, "note": 66, "velocity": 98, "channel": 0}, {"type": "note_off", "time": 250, "note": 66, "velocity": 98, "channel": 0}, {"type": "note_on", "time": 65, "note": 68, "velocity": 119, "channel": 0}, {"type": "note_off", "time": 228, "note": 68, "velocity": 119, "channel": 0}, {"type": "note_on", "time": 43, "note": 66, "velocity": 98, "channel": 0}, {"type": "note_off", "time": 283, "note": 66, "velocity": 98, "channel": 0}, {"type": "note_on", "time": 70, "note": 68, "velocity": 119, "channel": 0}, {"type": "note_off", "time": 250, "note": 68, "velocity": 119, "channel": 0}, {"type": "note_on", "time": 21, "note": 66, "velocity": 99, "channel": 0}, {"type": "note_off", "time": 185, "note": 66, "velocity": 99, "channel": 0}, {"type": "note_on", "time": 76, "note": 68, "velocity": 120, "channel": 0}, {"type": "note_off", "time": 255, "note": 68, "velocity": 120, "channel": 0}, {"type": "note_on", "time": 76, "note": 66, "velocity": 97, "channel": 0}, {"type": "note_off", "time": 250, "note": 66, "velocity": 97, "channel": 0}, {"type": "note_on", "time": 54, "note": 68, "velocity": 118, "channel": 0}, {"type": "note_off", "time": 266, "note": 68, "velocity": 118, "channel": 0}, {"type": "note_on", "time": 0, "note": 66, "velocity": 104, "channel": 0}, {"type": "note_off", "time": 206, "note": 66, "velocity": 104, "channel": 0}, {"type": "note_on", "time": 114, "note": 68, "velocity": 121, "channel": 0}, {"type": "note_off", "time": 239, "note": 68, "velocity": 121, "channel": 0}, {"type": "note_on", "time": 70, "note": 66, "velocity": 111, "channel": 0}, {"type": "note_off", "time": 228, "note": 66, "velocity": 111, "channel": 0}, {"type": "note_on", "time": 381, "note": 68, "velocity": 110, "channel": 0}, {"type": "note_off", "time": 304, "note": 68, "velocity": 110, "channel": 0}, {"type": "note_on", "time": 642, "note": 66, "velocity": 114, "channel": 0}, {"type": "note_off", "time": 114, "note": 66, "velocity": 114, "channel": 0}, {"type": "note_on", "time": 43, "note": 67, "velocity": 107, "channel": 0}, {"type": "note_off", "time": 288, "note": 67, "velocity": 107, "channel": 0}, {"type": "note_on", "time": 98, "note": 63, "velocity": 118, "channel": 0}, {"type": "note_off", "time": 179, "note": 63, "velocity": 118, "channel": 0}, {"type": "note_on", "time": 119, "note": 58, "velocity": 106, "channel": 0}, {"type": "note_off", "time": 136, "note": 58, "velocity": 106, "channel": 0}, {"type": "note_on", "time": 27, "note": 62, "velocity": 113, "channel": 0}, {"type": "note_off", "time": 228, "note": 62, "velocity": 113, "channel": 0}, {"type": "note_on", "time": 103, "note": 63, "velocity": 116, "channel": 0}, {"type": "note_off", "time": 909, "note": 63, "velocity": 116, "channel": 0}, {"type": "note_on", "time": 1807, "note": 73, "velocity": 122, "channel": 0}, {"type": "note_off", "time": 196, "note": 73, "velocity": 122, "channel": 0}, {"type": "note_on", "time": 16, "note": 77, "velocity": 113, "channel": 0}, {"type": "note_off", "time": 234, "note": 77, "velocity": 113, "channel": 0}, {"type": "note_on", "time": 179, "note": 72, "velocity": 119, "channel": 0}, {"type": "note_off", "time": 332, "note": 72, "velocity": 119, "channel": 0}, {"type": "note_on", "time": 54, "note": 70, "velocity": 118, "channel": 0}, {"type": "note_off", "time": 326, "note": 70, "velocity": 118, "channel": 0}, {"type": "note_on", "time": 43, "note": 69, "velocity": 114, "channel": 0}, {"type": "note_off", "time": 272, "note": 69, "velocity": 114, "channel": 0}, {"type": "note_on", "time": 147, "note": 68, "velocity": 107, "channel": 0}, {"type": "note_off", "time": 315, "note": 68, "velocity": 107, "channel": 0}, {"type": "note_on", "time": 130, "note": 72, "velocity": 121, "channel": 0}, {"type": "note_off", "time": 321, "note": 72, "velocity": 121, "channel": 0}, {"type": "note_on", "time": 65, "note": 68, "velocity": 109, "channel": 0}, {"type": "note_off", "time": 185, "note": 68, "velocity": 109, "channel": 0}, {"type": "note_on", "time": 21, "note": 67, "velocity": 111, "channel": 0}, {"type": "note_off", "time": 92, "note": 67, "velocity": 111, "channel": 0}, {"type": "note_on", "time": 87, "note": 64, "velocity": 101, "channel": 0}, {"type": "note_off", "time": 332, "note": 64, "velocity": 101, "channel": 0}, {"type": "note_on", "time": 152, "note": 65, "velocity": 120, "channel": 0}, {"type": "note_off", "time": 381, "note": 65, "velocity": 120, "channel": 0}, {"type": "note_on", "time": 16, "note": 67, "velocity": 119, "channel": 0}, {"type": "note_off", "time": 337, "note": 67, "velocity": 119, "channel": 0}, {"type": "note_on", "time": 70, "note": 68, "velocity": 110, "channel": 0}, {"type": "note_off", "time": 321, "note": 68, "velocity": 110, "channel": 0}, {"type": "note_on", "time": 38, "note": 70, "velocity": 118, "channel": 0}, {"type": "note_off", "time": 364, "note": 70, "velocity": 118, "channel": 0}, {"type": "note_on", "time": 294, "note": 73, "velocity": 120, "channel": 0}, {"type": "note_off", "time": 70, "note": 73, "velocity": 120, "channel": 0}, {"type": "note_on", "time": 0, "note": 74, "velocity": 123, "channel": 0}, {"type": "note_off", "time": 168, "note": 74, "velocity": 123, "channel": 0}, {"type": "note_on", "time": 10, "note": 73, "velocity": 118, "channel": 0}, {"type": "note_off", "time": 157, "note": 73, "velocity": 118, "channel": 0}, {"type": "note_on", "time": 0, "note": 71, "velocity": 110, "channel": 0}, {"type": "note_off", "time": 490, "note": 71, "velocity": 110, "channel": 0}, {"type": "note_on", "time": 5, "note": 65, "velocity": 99, "channel": 0}, {"type": "note_off", "time": 65, "note": 65, "velocity": 99, "channel": 0}, {"type": "note_on", "time": 9, "note": 70, "velocity": 106, "channel": 0}, {"type": "note_off", "time": 156, "note": 70, "velocity": 106, "channel": 0}, {"type": "note_on", "time": 53, "note": 65, "velocity": 105, "channel": 0}, {"type": "note_off", "time": 103, "note": 65, "velocity": 105, "channel": 0}, {"type": "note_on", "time": 19, "note": 62, "velocity": 119, "channel": 0}, {"type": "note_on", "time": 428, "note": 61, "velocity": 103, "channel": 0}, {"type": "note_off", "time": 0, "note": 62, "velocity": 119, "channel": 0}, {"type": "note_off", "time": 65, "note": 61, "velocity": 103, "channel": 0}, {"type": "note_on", "time": 7, "note": 64, "velocity": 111, "channel": 0}, {"type": "note_off", "time": 145, "note": 64, "velocity": 111, "channel": 0}, {"type": "note_on", "time": 0, "note": 61, "velocity": 114, "channel": 0}, {"type": "note_off", "time": 111, "note": 61, "velocity": 114, "channel": 0}, {"type": "note_on", "time": 0, "note": 59, "velocity": 115, "channel": 0}, {"type": "note_off", "time": 298, "note": 59, "velocity": 115, "channel": 0}, {"type": "note_on", "time": 49, "note": 58, "velocity": 116, "channel": 0}, {"type": "note_off", "time": 344, "note": 58, "velocity": 116, "channel": 0}, {"type": "note_on", "time": 45, "note": 56, "velocity": 119, "channel": 0}, {"type": "note_off", "time": 191, "note": 56, "velocity": 119, "channel": 0}, {"type": "note_on", "time": 49, "note": 54, "velocity": 122, "channel": 0}, {"type": "note_off", "time": 156, "note": 54, "velocity": 122, "channel": 0}, {"type": "note_on", "time": 19, "note": 55, "velocity": 92, "channel": 0}, {"type": "note_off", "time": 547, "note": 55, "velocity": 92, "channel": 0}, {"type": "note_on", "time": 134, "note": 60, "velocity": 111, "channel": 0}, {"type": "note_off", "time": 520, "note": 60, "velocity": 111, "channel": 0}, {"type": "note_on", "time": 176, "note": 56, "velocity": 112, "channel": 0}, {"type": "note_off", "time": 68, "note": 56, "velocity": 112, "channel": 0}, {"type": "note_on", "time": 26, "note": 61, "velocity": 123, "channel": 0}, {"type": "note_off", "time": 61, "note": 61, "velocity": 123, "channel": 0}, {"type": "note_on", "time": 30, "note": 63, "velocity": 117, "channel": 0}, {"type": "note_off", "time": 455, "note": 63, "velocity": 117, "channel": 0}, {"type": "note_on", "time": 30, "note": 63, "velocity": 119, "channel": 0}, {"type": "note_off", "time": 256, "note": 63, "velocity": 119, "channel": 0}, {"type": "note_on", "time": 1764, "note": 63, "velocity": 115, "channel": 0}, {"type": "note_off", "time": 141, "note": 63, "velocity": 115, "channel": 0}, {"type": "note_on", "time": 88, "note": 63, "velocity": 101, "channel": 0}, {"type": "note_off", "time": 134, "note": 63, "velocity": 101, "channel": 0}, {"type": "note_on", "time": 65, "note": 63, "velocity": 120, "channel": 0}, {"type": "note_off", "time": 202, "note": 63, "velocity": 120, "channel": 0}, {"type": "note_on", "time": 202, "note": 69, "velocity": 113, "channel": 0}, {"type": "note_off", "time": 199, "note": 69, "velocity": 113, "channel": 0}, {"type": "note_on", "time": 7, "note": 70, "velocity": 121, "channel": 0}, {"type": "note_off", "time": 4012, "note": 70, "velocity": 121, "channel": 0}, {"type": "note_on", "time": 65, "note": 69, "velocity": 104, "channel": 0}, {"type": "note_off", "time": 183, "note": 69, "velocity": 104, "channel": 0}, {"type": "note_on", "time": 26, "note": 73, "velocity": 122, "channel": 0}, {"type": "note_off", "time": 616, "note": 73, "velocity": 122, "channel": 0}, {"type": "note_on", "time": 26, "note": 69, "velocity": 108, "channel": 0}, {"type": "note_off", "time": 164, "note": 69, "velocity": 108, "channel": 0}, {"type": "note_on", "time": 95, "note": 73, "velocity": 124, "channel": 0}, {"type": "note_off", "time": 501, "note": 73, "velocity": 124, "channel": 0}, {"type": "note_on", "time": 38, "note": 69, "velocity": 109, "channel": 0}, {"type": "note_off", "time": 156, "note": 69, "velocity": 109, "channel": 0}, {"type": "note_on", "time": 42, "note": 73, "velocity": 125, "channel": 0}, {"type": "note_off", "time": 589, "note": 73, "velocity": 125, "channel": 0}, {"type": "note_on", "time": 72, "note": 61, "velocity": 98, "channel": 0}, {"type": "note_off", "time": 145, "note": 61, "velocity": 98, "channel": 0}, {"type": "note_on", "time": 61, "note": 66, "velocity": 117, "channel": 0}, {"type": "note_off", "time": 654, "note": 66, "velocity": 117, "channel": 0}, {"type": "note_on", "time": 22, "note": 61, "velocity": 111, "channel": 0}, {"type": "note_off", "time": 145, "note": 61, "velocity": 111, "channel": 0}, {"type": "note_on", "time": 68, "note": 66, "velocity": 117, "channel": 0}, {"type": "note_off", "time": 536, "note": 66, "velocity": 117, "channel": 0}, {"type": "note_on", "time": 45, "note": 61, "velocity": 111, "channel": 0}, {"type": "note_off", "time": 800, "note": 61, "velocity": 111, "channel": 0}, {"type": "note_on", "time": 19, "note": 61, "velocity": 112, "channel": 0}, {"type": "note_off", "time": 524, "note": 61, "velocity": 112, "channel": 0}, {"type": "note_on", "time": 80, "note": 61, "velocity": 110, "channel": 0}, {"type": "note_off", "time": 222, "note": 61, "velocity": 110, "channel": 0}, {"type": "note_on", "time": 4513, "note": 67, "velocity": 119, "channel": 0}, {"type": "note_off", "time": 172, "note": 67, "velocity": 119, "channel": 0}, {"type": "note_on", "time": 22, "note": 64, "velocity": 111, "channel": 0}, {"type": "note_off", "time": 164, "note": 64, "velocity": 111, "channel": 0}, {"type": "note_on", "time": 22, "note": 65, "velocity": 113, "channel": 0}, {"type": "note_off", "time": 122, "note": 65, "velocity": 113, "channel": 0}, {"type": "note_on", "time": 34, "note": 67, "velocity": 118, "channel": 0}, {"type": "note_off", "time": 156, "note": 67, "velocity": 118, "channel": 0}, {"type": "note_on", "time": 45, "note": 68, "velocity": 104, "channel": 0}, {"type": "note_off", "time": 313, "note": 68, "velocity": 104, "channel": 0}, {"type": "note_on", "time": 3170, "note": 71, "velocity": 119, "channel": 0}, {"type": "note_on", "time": 149, "note": 72, "velocity": 112, "channel": 0}, {"type": "note_off", "time": 0, "note": 71, "velocity": 119, "channel": 0}, {"type": "note_off", "time": 229, "note": 72, "velocity": 112, "channel": 0}, {"type": "note_on", "time": 612, "note": 77, "velocity": 114, "channel": 0}, {"type": "note_off", "time": 398, "note": 77, "velocity": 114, "channel": 0}, {"type": "note_on", "time": 11, "note": 76, "velocity": 120, "channel": 0}, {"type": "note_off", "time": 352, "note": 76, "velocity": 120, "channel": 0}, {"type": "note_on", "time": 61, "note": 75, "velocity": 114, "channel": 0}, {"type": "note_off", "time": 421, "note": 75, "velocity": 114, "channel": 0}, {"type": "note_on", "time": 19, "note": 72, "velocity": 116, "channel": 0}, {"type": "note_off", "time": 210, "note": 72, "velocity": 116, "channel": 0}, {"type": "note_on", "time": 107, "note": 68, "velocity": 112, "channel": 0}, {"type": "note_off", "time": 195, "note": 68, "velocity": 112, "channel": 0}, {"type": "note_on", "time": 15, "note": 70, "velocity": 105, "channel": 0}, {"type": "note_off", "time": 126, "note": 70, "velocity": 105, "channel": 0}, {"type": "note_on", "time": 26, "note": 68, "velocity": 110, "channel": 0}, {"type": "note_off", "time": 91, "note": 68, "velocity": 110, "channel": 0}, {"type": "note_on", "time": 26, "note": 65, "velocity": 115, "channel": 0}, {"type": "note_off", "time": 279, "note": 65, "velocity": 115, "channel": 0}, {"type": "note_on", "time": 19, "note": 66, "velocity": 106, "channel": 0}, {"type": "note_off", "time": 490, "note": 66, "velocity": 106, "channel": 0}, {"type": "note_on", "time": 107, "note": 73, "velocity": 119, "channel": 0}, {"type": "note_off", "time": 210, "note": 73, "velocity": 119, "channel": 0}, {"type": "note_on", "time": 49, "note": 74, "velocity": 112, "channel": 0}, {"type": "note_on", "time": 248, "note": 73, "velocity": 95, "channel": 0}, {"type": "note_off", "time": 0, "note": 74, "velocity": 112, "channel": 0}, {"type": "note_off", "time": 210, "note": 73, "velocity": 95, "channel": 0}, {"type": "note_on", "time": 61, "note": 72, "velocity": 116, "channel": 0}, {"type": "note_off", "time": 279, "note": 72, "velocity": 116, "channel": 0}, {"type": "note_on", "time": 88, "note": 70, "velocity": 110, "channel": 0}, {"type": "note_off", "time": 202, "note": 70, "velocity": 110, "channel": 0}, {"type": "note_on", "time": 53, "note": 65, "velocity": 109, "channel": 0}, {"type": "note_off", "time": 164, "note": 65, "velocity": 109, "channel": 0}, {"type": "note_on", "time": 30, "note": 68, "velocity": 116, "channel": 0}, {"type": "note_off", "time": 310, "note": 68, "velocity": 116, "channel": 0}, {"type": "note_on", "time": 126, "note": 67, "velocity": 120, "channel": 0}, {"type": "note_off", "time": 279, "note": 67, "velocity": 120, "channel": 0}, {"type": "note_on", "time": 245, "note": 65, "velocity": 118, "channel": 0}, {"type": "note_off", "time": 248, "note": 65, "velocity": 118, "channel": 0}, {"type": "note_on", "time": 49, "note": 62, "velocity": 106, "channel": 0}, {"type": "note_off", "time": 287, "note": 62, "velocity": 106, "channel": 0}, {"type": "note_on", "time": 248, "note": 63, "velocity": 117, "channel": 0}, {"type": "note_off", "time": 176, "note": 63, "velocity": 117, "channel": 0}, {"type": "note_on", "time": 38, "note": 64, "velocity": 115, "channel": 0}, {"type": "note_off", "time": 256, "note": 64, "velocity": 115, "channel": 0}, {"type": "note_on", "time": 7, "note": 67, "velocity": 113, "channel": 0}, {"type": "note_off", "time": 183, "note": 67, "velocity": 113, "channel": 0}, {"type": "note_on", "time": 80, "note": 70, "velocity": 113, "channel": 0}, {"type": "note_off", "time": 386, "note": 70, "velocity": 113, "channel": 0}, {"type": "note_on", "time": 176, "note": 73, "velocity": 117, "channel": 0}, {"type": "note_off", "time": 340, "note": 73, "velocity": 117, "channel": 0}, {"type": "note_on", "time": 22, "note": 72, "velocity": 115, "channel": 0}, {"type": "note_off", "time": 290, "note": 72, "velocity": 115, "channel": 0}, {"type": "note_on", "time": 15, "note": 66, "velocity": 109, "channel": 0}, {"type": "note_off", "time": 528, "note": 66, "velocity": 109, "channel": 0}, {"type": "note_on", "time": 103, "note": 63, "velocity": 98, "channel": 0}, {"type": "note_off", "time": 130, "note": 63, "velocity": 98, "channel": 0}, {"type": "note_on", "time": 7, "note": 64, "velocity": 101, "channel": 0}, {"type": "note_off", "time": 114, "note": 64, "velocity": 101, "channel": 0}, {"type": "note_on", "time": 34, "note": 65, "velocity": 113, "channel": 0}, {"type": "note_off", "time": 164, "note": 65, "velocity": 113, "channel": 0}, {"type": "note_on", "time": 30, "note": 67, "velocity": 120, "channel": 0}, {"type": "note_off", "time": 225, "note": 67, "velocity": 120, "channel": 0}, {"type": "note_on", "time": 53, "note": 71, "velocity": 117, "channel": 0}, {"type": "note_off", "time": 172, "note": 71, "velocity": 117, "channel": 0}, {"type": "note_on", "time": 260, "note": 72, "velocity": 121, "channel": 0}, {"type": "note_off", "time": 306, "note": 72, "velocity": 121, "channel": 0}, {"type": "note_on", "time": 156, "note": 68, "velocity": 115, "channel": 0}, {"type": "note_off", "time": 298, "note": 68, "velocity": 115, "channel": 0}, {"type": "note_on", "time": 153, "note": 68, "velocity": 112, "channel": 0}, {"type": "note_off", "time": 134, "note": 68, "velocity": 112, "channel": 0}, {"type": "note_on", "time": 26, "note": 67, "velocity": 113, "channel": 0}, {"type": "note_off", "time": 91, "note": 67, "velocity": 113, "channel": 0}, {"type": "note_on", "time": 3, "note": 66, "velocity": 115, "channel": 0}, {"type": "note_off", "time": 145, "note": 66, "velocity": 115, "channel": 0}, {"type": "note_on", "time": 22, "note": 65, "velocity": 123, "channel": 0}, {"type": "note_off", "time": 168, "note": 65, "velocity": 123, "channel": 0}, {"type": "note_on", "time": 306, "note": 73, "velocity": 124, "channel": 0}, {"type": "note_on", "time": 80, "note": 74, "velocity": 124, "channel": 0}, {"type": "note_off", "time": 0, "note": 73, "velocity": 124, "channel": 0}, {"type": "note_off", "time": 179, "note": 74, "velocity": 124, "channel": 0}, {"type": "note_on", "time": 0, "note": 73, "velocity": 119, "channel": 0}, {"type": "note_off", "time": 130, "note": 73, "velocity": 119, "channel": 0}, {"type": "note_on", "time": 42, "note": 71, "velocity": 123, "channel": 0}, {"type": "note_off", "time": 268, "note": 71, "velocity": 123, "channel": 0}, {"type": "note_on", "time": 153, "note": 70, "velocity": 121, "channel": 0}, {"type": "note_off", "time": 275, "note": 70, "velocity": 121, "channel": 0}, {"type": "note_on", "time": 91, "note": 69, "velocity": 120, "channel": 0}, {"type": "note_off", "time": 294, "note": 69, "velocity": 120, "channel": 0}, {"type": "note_on", "time": 30, "note": 68, "velocity": 111, "channel": 0}, {"type": "note_off", "time": 344, "note": 68, "velocity": 111, "channel": 0}, {"type": "note_on", "time": 114, "note": 72, "velocity": 121, "channel": 0}, {"type": "note_off", "time": 310, "note": 72, "velocity": 121, "channel": 0}, {"type": "note_on", "time": 15, "note": 67, "velocity": 111, "channel": 0}, {"type": "note_off", "time": 509, "note": 67, "velocity": 111, "channel": 0}, {"type": "note_on", "time": 26, "note": 65, "velocity": 103, "channel": 0}, {"type": "note_off", "time": 172, "note": 65, "velocity": 103, "channel": 0}, {"type": "note_on", "time": 111, "note": 69, "velocity": 117, "channel": 0}, {"type": "note_off", "time": 153, "note": 69, "velocity": 117, "channel": 0}, {"type": "note_on", "time": 8, "note": 70, "velocity": 120, "channel": 0}, {"type": "note_off", "time": 2412, "note": 70, "velocity": 120, "channel": 0}, {"type": "note_on", "time": 14, "note": 75, "velocity": 117, "channel": 0}, {"type": "note_off", "time": 225, "note": 75, "velocity": 117, "channel": 0}, {"type": "note_on", "time": 30, "note": 70, "velocity": 110, "channel": 0}, {"type": "note_off", "time": 206, "note": 70, "velocity": 110, "channel": 0}, {"type": "note_on", "time": 68, "note": 65, "velocity": 79, "channel": 0}, {"type": "note_off", "time": 245, "note": 65, "velocity": 79, "channel": 0}, {"type": "note_on", "time": 72, "note": 70, "velocity": 107, "channel": 0}, {"type": "note_off", "time": 620, "note": 70, "velocity": 107, "channel": 0}, {"type": "note_on", "time": 3644, "note": 70, "velocity": 121, "channel": 0}, {"type": "note_off", "time": 137, "note": 70, "velocity": 121, "channel": 0}, {"type": "note_on", "time": 45, "note": 72, "velocity": 116, "channel": 0}, {"type": "note_off", "time": 114, "note": 72, "velocity": 116, "channel": 0}, {"type": "note_on", "time": 42, "note": 70, "velocity": 116, "channel": 0}, {"type": "note_off", "time": 111, "note": 70, "velocity": 116, "channel": 0}, {"type": "note_on", "time": 7, "note": 69, "velocity": 119, "channel": 0}, {"type": "note_off", "time": 156, "note": 69, "velocity": 119, "channel": 0}, {"type": "note_on", "time": 11, "note": 70, "velocity": 120, "channel": 0}, {"type": "note_off", "time": 164, "note": 70, "velocity": 120, "channel": 0}, {"type": "note_on", "time": 122, "note": 71, "velocity": 117, "channel": 0}, {"type": "note_off", "time": 141, "note": 71, "velocity": 117, "channel": 0}, {"type": "note_on", "time": 11, "note": 72, "velocity": 119, "channel": 0}, {"type": "note_off", "time": 195, "note": 72, "velocity": 119, "channel": 0}, {"type": "note_on", "time": 11, "note": 73, "velocity": 113, "channel": 0}, {"type": "note_off", "time": 137, "note": 73, "velocity": 113, "channel": 0}, {"type": "note_on", "time": 34, "note": 77, "velocity": 115, "channel": 0}, {"type": "note_off", "time": 99, "note": 77, "velocity": 115, "channel": 0}, {"type": "note_on", "time": 11, "note": 74, "velocity": 120, "channel": 0}, {"type": "note_off", "time": 88, "note": 74, "velocity": 120, "channel": 0}, {"type": "note_on", "time": 15, "note": 75, "velocity": 123, "channel": 0}, {"type": "note_off", "time": 191, "note": 75, "velocity": 123, "channel": 0}, {"type": "note_on", "time": 34, "note": 70, "velocity": 120, "channel": 0}, {"type": "note_off", "time": 214, "note": 70, "velocity": 120, "channel": 0}, {"type": "note_on", "time": 7, "note": 69, "velocity": 107, "channel": 0}, {"type": "note_off", "time": 187, "note": 69, "velocity": 107, "channel": 0}, {"type": "note_on", "time": 26, "note": 68, "velocity": 114, "channel": 0}, {"type": "note_off", "time": 164, "note": 68, "velocity": 114, "channel": 0}, {"type": "note_on", "time": 53, "note": 67, "velocity": 113, "channel": 0}, {"type": "note_off", "time": 168, "note": 67, "velocity": 113, "channel": 0}, {"type": "note_on", "time": 30, "note": 66, "velocity": 114, "channel": 0}, {"type": "note_off", "time": 179, "note": 66, "velocity": 114, "channel": 0}, {"type": "note_on", "time": 34, "note": 65, "velocity": 117, "channel": 0}, {"type": "note_off", "time": 172, "note": 65, "velocity": 117, "channel": 0}, {"type": "note_on", "time": 7, "note": 64, "velocity": 119, "channel": 0}, {"type": "note_off", "time": 202, "note": 64, "velocity": 119, "channel": 0}, {"type": "note_on", "time": 38, "note": 63, "velocity": 113, "channel": 0}, {"type": "note_off", "time": 183, "note": 63, "velocity": 113, "channel": 0}, {"type": "note_on", "time": 61, "note": 59, "velocity": 100, "channel": 0}, {"type": "note_off", "time": 95, "note": 59, "velocity": 100, "channel": 0}, {"type": "note_on", "time": 68, "note": 63, "velocity": 109, "channel": 0}, {"type": "note_off", "time": 164, "note": 63, "velocity": 109, "channel": 0}, {"type": "note_on", "time": 0, "note": 67, "velocity": 122, "channel": 0}, {"type": "note_off", "time": 241, "note": 67, "velocity": 122, "channel": 0}, {"type": "note_on", "time": 88, "note": 64, "velocity": 115, "channel": 0}, {"type": "note_off", "time": 145, "note": 64, "velocity": 115, "channel": 0}, {"type": "note_on", "time": 22, "note": 62, "velocity": 97, "channel": 0}, {"type": "note_off", "time": 26, "note": 62, "velocity": 97, "channel": 0}, {"type": "note_on", "time": 38, "note": 63, "velocity": 103, "channel": 0}, {"type": "note_off", "time": 57, "note": 63, "velocity": 103, "channel": 0}, {"type": "note_on", "time": 19, "note": 64, "velocity": 113, "channel": 0}, {"type": "note_off", "time": 210, "note": 64, "velocity": 113, "channel": 0}, {"type": "note_on", "time": 7, "note": 67, "velocity": 116, "channel": 0}, {"type": "note_off", "time": 199, "note": 67, "velocity": 116, "channel": 0}, {"type": "note_on", "time": 30, "note": 65, "velocity": 117, "channel": 0}, {"type": "note_off", "time": 214, "note": 65, "velocity": 117, "channel": 0}, {"type": "note_on", "time": 15, "note": 67, "velocity": 122, "channel": 0}, {"type": "note_off", "time": 145, "note": 67, "velocity": 122, "channel": 0}, {"type": "note_on", "time": 11, "note": 68, "velocity": 123, "channel": 0}, {"type": "note_off", "time": 248, "note": 68, "velocity": 123, "channel": 0}, {"type": "note_on", "time": 3, "note": 65, "velocity": 118, "channel": 0}, {"type": "note_off", "time": 195, "note": 65, "velocity": 118, "channel": 0}, {"type": "note_on", "time": 11, "note": 66, "velocity": 101, "channel": 0}, {"type": "note_off", "time": 237, "note": 66, "velocity": 101, "channel": 0}, {"type": "note_on", "time": 19, "note": 68, "velocity": 95, "channel": 0}, {"type": "note_off", "time": 95, "note": 68, "velocity": 95, "channel": 0}, {"type": "note_on", "time": 22, "note": 74, "velocity": 119, "channel": 0}, {"type": "note_off", "time": 164, "note": 74, "velocity": 119, "channel": 0}, {"type": "note_on", "time": 30, "note": 72, "velocity": 117, "channel": 0}, {"type": "note_off", "time": 99, "note": 72, "velocity": 117, "channel": 0}, {"type": "note_on", "time": 0, "note": 71, "velocity": 116, "channel": 0}, {"type": "note_off", "time": 172, "note": 71, "velocity": 116, "channel": 0}, {"type": "note_on", "time": 0, "note": 70, "velocity": 110, "channel": 0}, {"type": "note_off", "time": 179, "note": 70, "velocity": 110, "channel": 0}, {"type": "note_on", "time": 42, "note": 68, "velocity": 117, "channel": 0}, {"type": "note_off", "time": 191, "note": 68, "velocity": 117, "channel": 0}, {"type": "note_on", "time": 22, "note": 67, "velocity": 107, "channel": 0}, {"type": "note_on", "time": 191, "note": 65, "velocity": 116, "channel": 0}, {"type": "note_off", "time": 0, "note": 67, "velocity": 107, "channel": 0}, {"type": "note_off", "time": 168, "note": 65, "velocity": 116, "channel": 0}, {"type": "note_on", "time": 61, "note": 63, "velocity": 99, "channel": 0}, {"type": "note_off", "time": 233, "note": 63, "velocity": 99, "channel": 0}, {"type": "note_on", "time": 3, "note": 64, "velocity": 116, "channel": 0}, {"type": "note_off", "time": 137, "note": 64, "velocity": 116, "channel": 0}, {"type": "note_on", "time": 3, "note": 65, "velocity": 113, "channel": 0}, {"type": "note_off", "time": 164, "note": 65, "velocity": 113, "channel": 0}, {"type": "note_on", "time": 53, "note": 61, "velocity": 112, "channel": 0}, {"type": "note_off", "time": 172, "note": 61, "velocity": 112, "channel": 0}, {"type": "note_on", "time": 256, "note": 58, "velocity": 108, "channel": 0}, {"type": "note_off", "time": 179, "note": 58, "velocity": 108, "channel": 0}, {"type": "note_on", "time": 19, "note": 57, "velocity": 104, "channel": 0}, {"type": "note_off", "time": 195, "note": 57, "velocity": 104, "channel": 0}, {"type": "note_on", "time": 229, "note": 60, "velocity": 116, "channel": 0}, {"type": "note_off", "time": 191, "note": 60, "velocity": 116, "channel": 0}, {"type": "note_on", "time": 65, "note": 57, "velocity": 106, "channel": 0}, {"type": "note_off", "time": 118, "note": 57, "velocity": 106, "channel": 0}, {"type": "note_on", "time": 15, "note": 58, "velocity": 106, "channel": 0}, {"type": "note_off", "time": 118, "note": 58, "velocity": 106, "channel": 0}, {"type": "note_on", "time": 76, "note": 61, "velocity": 109, "channel": 0}, {"type": "note_off", "time": 153, "note": 61, "velocity": 109, "channel": 0}, {"type": "note_on", "time": 30, "note": 62, "velocity": 107, "channel": 0}, {"type": "note_off", "time": 130, "note": 62, "velocity": 107, "channel": 0}, {"type": "note_on", "time": 30, "note": 63, "velocity": 108, "channel": 0}, {"type": "note_off", "time": 88, "note": 63, "velocity": 108, "channel": 0}, {"type": "note_on", "time": 30, "note": 64, "velocity": 118, "channel": 0}, {"type": "note_off", "time": 134, "note": 64, "velocity": 118, "channel": 0}, {"type": "note_on", "time": 7, "note": 65, "velocity": 116, "channel": 0}, {"type": "note_off", "time": 149, "note": 65, "velocity": 116, "channel": 0}, {"type": "note_on", "time": 22, "note": 68, "velocity": 109, "channel": 0}, {"type": "note_off", "time": 172, "note": 68, "velocity": 109, "channel": 0}, {"type": "note_on", "time": 38, "note": 72, "velocity": 116, "channel": 0}, {"type": "note_off", "time": 256, "note": 72, "velocity": 116, "channel": 0}, {"type": "note_on", "time": 0, "note": 69, "velocity": 108, "channel": 0}, {"type": "note_off", "time": 206, "note": 69, "velocity": 108, "channel": 0}, {"type": "note_on", "time": 0, "note": 70, "velocity": 111, "channel": 0}, {"type": "note_off", "time": 206, "note": 70, "velocity": 111, "channel": 0}, {"type": "note_on", "time": 0, "note": 68, "velocity": 117, "channel": 0}, {"type": "note_off", "time": 225, "note": 68, "velocity": 117, "channel": 0}, {"type": "note_on", "time": 3, "note": 67, "velocity": 107, "channel": 0}, {"type": "note_off", "time": 160, "note": 67, "velocity": 107, "channel": 0}, {"type": "note_on", "time": 45, "note": 65, "velocity": 119, "channel": 0}, {"type": "note_off", "time": 210, "note": 65, "velocity": 119, "channel": 0}, {"type": "note_on", "time": 0, "note": 64, "velocity": 102, "channel": 0}, {"type": "note_off", "time": 38, "note": 64, "velocity": 102, "channel": 0}, {"type": "note_on", "time": 0, "note": 65, "velocity": 105, "channel": 0}, {"type": "note_off", "time": 103, "note": 65, "velocity": 105, "channel": 0}, {"type": "note_on", "time": 15, "note": 64, "velocity": 104, "channel": 0}, {"type": "note_off", "time": 118, "note": 64, "velocity": 104, "channel": 0}, {"type": "note_on", "time": 0, "note": 62, "velocity": 112, "channel": 0}, {"type": "note_off", "time": 145, "note": 62, "velocity": 112, "channel": 0}, {"type": "note_on", "time": 65, "note": 64, "velocity": 117, "channel": 0}, {"type": "note_off", "time": 130, "note": 64, "velocity": 117, "channel": 0}, {"type": "note_on", "time": 42, "note": 65, "velocity": 114, "channel": 0}, {"type": "note_off", "time": 183, "note": 65, "velocity": 114, "channel": 0}, {"type": "note_on", "time": 19, "note": 67, "velocity": 101, "channel": 0}, {"type": "note_off", "time": 168, "note": 67, "velocity": 101, "channel": 0}, {"type": "note_on", "time": 42, "note": 68, "velocity": 102, "channel": 0}, {"type": "note_off", "time": 134, "note": 68, "velocity": 102, "channel": 0}, {"type": "note_on", "time": 45, "note": 70, "velocity": 116, "channel": 0}, {"type": "note_off", "time": 264, "note": 70, "velocity": 116, "channel": 0}, {"type": "note_on", "time": 3, "note": 67, "velocity": 106, "channel": 0}, {"type": "note_off", "time": 145, "note": 67, "velocity": 106, "channel": 0}, {"type": "note_on", "time": 19, "note": 68, "velocity": 104, "channel": 0}, {"type": "note_off", "time": 141, "note": 68, "velocity": 104, "channel": 0}, {"type": "note_on", "time": 0, "note": 70, "velocity": 117, "channel": 0}, {"type": "note_off", "time": 168, "note": 70, "velocity": 117, "channel": 0}, {"type": "note_on", "time": 91, "note": 71, "velocity": 113, "channel": 0}, {"type": "note_off", "time": 195, "note": 71, "velocity": 113, "channel": 0}, {"type": "note_on", "time": 57, "note": 72, "velocity": 104, "channel": 0}, {"type": "note_off", "time": 80, "note": 72, "velocity": 104, "channel": 0}, {"type": "note_on", "time": 49, "note": 77, "velocity": 115, "channel": 0}, {"type": "note_off", "time": 149, "note": 77, "velocity": 115, "channel": 0}, {"type": "note_on", "time": 61, "note": 76, "velocity": 120, "channel": 0}, {"type": "note_on", "time": 214, "note": 75, "velocity": 119, "channel": 0}, {"type": "note_off", "time": 0, "note": 76, "velocity": 120, "channel": 0}, {"type": "note_off", "time": 233, "note": 75, "velocity": 119, "channel": 0}, {"type": "note_on", "time": 42, "note": 73, "velocity": 98, "channel": 0}, {"type": "note_off", "time": 310, "note": 73, "velocity": 98, "channel": 0}, {"type": "note_on", "time": 76, "note": 71, "velocity": 107, "channel": 0}, {"type": "note_off", "time": 199, "note": 71, "velocity": 107, "channel": 0}, {"type": "note_on", "time": 0, "note": 72, "velocity": 108, "channel": 0}, {"type": "note_off", "time": 107, "note": 72, "velocity": 108, "channel": 0}, {"type": "note_on", "time": 34, "note": 71, "velocity": 96, "channel": 0}, {"type": "note_off", "time": 65, "note": 71, "velocity": 96, "channel": 0}, {"type": "note_on", "time": 22, "note": 68, "velocity": 102, "channel": 0}, {"type": "note_off", "time": 172, "note": 68, "velocity": 102, "channel": 0}, {"type": "note_on", "time": 45, "note": 67, "velocity": 107, "channel": 0}, {"type": "note_off", "time": 153, "note": 67, "velocity": 107, "channel": 0}, {"type": "note_on", "time": 0, "note": 65, "velocity": 107, "channel": 0}, {"type": "note_off", "time": 199, "note": 65, "velocity": 107, "channel": 0}, {"type": "note_on", "time": 0, "note": 70, "velocity": 115, "channel": 0}, {"type": "note_off", "time": 225, "note": 70, "velocity": 115, "channel": 0}, {"type": "note_on", "time": 38, "note": 67, "velocity": 109, "channel": 0}, {"type": "note_off", "time": 141, "note": 67, "velocity": 109, "channel": 0}, {"type": "note_on", "time": 19, "note": 68, "velocity": 101, "channel": 0}, {"type": "note_off", "time": 153, "note": 68, "velocity": 101, "channel": 0}, {"type": "note_on", "time": 7, "note": 70, "velocity": 114, "channel": 0}, {"type": "note_off", "time": 218, "note": 70, "velocity": 114, "channel": 0}, {"type": "note_on", "time": 11, "note": 72, "velocity": 115, "channel": 0}, {"type": "note_off", "time": 225, "note": 72, "velocity": 115, "channel": 0}, {"type": "note_on", "time": 30, "note": 68, "velocity": 115, "channel": 0}, {"type": "note_off", "time": 172, "note": 68, "velocity": 115, "channel": 0}, {"type": "note_on", "time": 2266, "note": 79, "velocity": 120, "channel": 0}, {"type": "note_off", "time": 130, "note": 79, "velocity": 120, "channel": 0}, {"type": "note_on", "time": 7, "note": 80, "velocity": 116, "channel": 0}, {"type": "note_off", "time": 199, "note": 80, "velocity": 116, "channel": 0}, {"type": "note_on", "time": 49, "note": 78, "velocity": 114, "channel": 0}, {"type": "note_off", "time": 206, "note": 78, "velocity": 114, "channel": 0}, {"type": "note_on", "time": 42, "note": 79, "velocity": 111, "channel": 0}, {"type": "note_off", "time": 179, "note": 79, "velocity": 111, "channel": 0}, {"type": "note_on", "time": 49, "note": 76, "velocity": 119, "channel": 0}, {"type": "note_off", "time": 183, "note": 76, "velocity": 119, "channel": 0}, {"type": "note_on", "time": 11, "note": 77, "velocity": 111, "channel": 0}, {"type": "note_off", "time": 156, "note": 77, "velocity": 111, "channel": 0}, {"type": "note_on", "time": 22, "note": 75, "velocity": 122, "channel": 0}, {"type": "note_off", "time": 202, "note": 75, "velocity": 122, "channel": 0}, {"type": "note_on", "time": 11, "note": 74, "velocity": 120, "channel": 0}, {"type": "note_off", "time": 183, "note": 74, "velocity": 120, "channel": 0}, {"type": "note_on", "time": 0, "note": 73, "velocity": 111, "channel": 0}, {"type": "note_off", "time": 118, "note": 73, "velocity": 111, "channel": 0}, {"type": "note_on", "time": 15, "note": 72, "velocity": 117, "channel": 0}, {"type": "note_off", "time": 111, "note": 72, "velocity": 117, "channel": 0}, {"type": "note_on", "time": 0, "note": 74, "velocity": 122, "channel": 0}, {"type": "note_off", "time": 111, "note": 74, "velocity": 122, "channel": 0}, {"type": "note_on", "time": 3, "note": 72, "velocity": 115, "channel": 0}, {"type": "note_off", "time": 99, "note": 72, "velocity": 115, "channel": 0}, {"type": "note_on", "time": 7, "note": 71, "velocity": 118, "channel": 0}, {"type": "note_off", "time": 156, "note": 71, "velocity": 118, "channel": 0}, {"type": "note_on", "time": 15, "note": 70, "velocity": 120, "channel": 0}, {"type": "note_off", "time": 202, "note": 70, "velocity": 120, "channel": 0}, {"type": "note_on", "time": 11, "note": 68, "velocity": 116, "channel": 0}, {"type": "note_off", "time": 191, "note": 68, "velocity": 116, "channel": 0}, {"type": "note_on", "time": 30, "note": 65, "velocity": 105, "channel": 0}, {"type": "note_off", "time": 149, "note": 65, "velocity": 105, "channel": 0}, {"type": "note_on", "time": 11, "note": 66, "velocity": 105, "channel": 0}, {"type": "note_off", "time": 172, "note": 66, "velocity": 105, "channel": 0}, {"type": "note_on", "time": 26, "note": 67, "velocity": 103, "channel": 0}, {"type": "note_off", "time": 122, "note": 67, "velocity": 103, "channel": 0}, {"type": "note_on", "time": 95, "note": 63, "velocity": 115, "channel": 0}, {"type": "note_off", "time": 137, "note": 63, "velocity": 115, "channel": 0}, {"type": "note_on", "time": 19, "note": 60, "velocity": 101, "channel": 0}, {"type": "note_off", "time": 153, "note": 60, "velocity": 101, "channel": 0}, {"type": "note_on", "time": 68, "note": 58, "velocity": 97, "channel": 0}, {"type": "note_off", "time": 176, "note": 58, "velocity": 97, "channel": 0}, {"type": "note_on", "time": 3, "note": 65, "velocity": 117, "channel": 0}, {"type": "note_off", "time": 214, "note": 65, "velocity": 117, "channel": 0}, {"type": "note_on", "time": 38, "note": 62, "velocity": 103, "channel": 0}, {"type": "note_off", "time": 149, "note": 62, "velocity": 103, "channel": 0}, {"type": "note_on", "time": 7, "note": 63, "velocity": 108, "channel": 0}, {"type": "note_off", "time": 179, "note": 63, "velocity": 108, "channel": 0}, {"type": "note_on", "time": 22, "note": 65, "velocity": 117, "channel": 0}, {"type": "note_off", "time": 202, "note": 65, "velocity": 117, "channel": 0}, {"type": "note_on", "time": 61, "note": 67, "velocity": 116, "channel": 0}, {"type": "note_off", "time": 156, "note": 67, "velocity": 116, "channel": 0}, {"type": "note_on", "time": 15, "note": 68, "velocity": 106, "channel": 0}, {"type": "note_off", "time": 172, "note": 68, "velocity": 106, "channel": 0}, {"type": "note_on", "time": 19, "note": 67, "velocity": 108, "channel": 0}, {"type": "note_off", "time": 210, "note": 67, "velocity": 108, "channel": 0}, {"type": "note_on", "time": 19, "note": 65, "velocity": 117, "channel": 0}, {"type": "note_off", "time": 191, "note": 65, "velocity": 117, "channel": 0}, {"type": "note_on", "time": 11, "note": 64, "velocity": 113, "channel": 0}, {"type": "note_off", "time": 160, "note": 64, "velocity": 113, "channel": 0}, {"type": "note_on", "time": 256, "note": 68, "velocity": 112, "channel": 0}, {"type": "note_off", "time": 103, "note": 68, "velocity": 112, "channel": 0}, {"type": "note_on", "time": 11, "note": 67, "velocity": 114, "channel": 0}, {"type": "note_off", "time": 118, "note": 67, "velocity": 114, "channel": 0}, {"type": "note_on", "time": 22, "note": 64, "velocity": 116, "channel": 0}, {"type": "note_off", "time": 153, "note": 64, "velocity": 116, "channel": 0}, {"type": "note_on", "time": 15, "note": 65, "velocity": 120, "channel": 0}, {"type": "note_off", "time": 164, "note": 65, "velocity": 120, "channel": 0}, {"type": "note_on", "time": 0, "note": 67, "velocity": 116, "channel": 0}, {"type": "note_off", "time": 179, "note": 67, "velocity": 116, "channel": 0}, {"type": "note_on", "time": 15, "note": 68, "velocity": 114, "channel": 0}, {"type": "note_off", "time": 183, "note": 68, "velocity": 114, "channel": 0}, {"type": "note_on", "time": 19, "note": 70, "velocity": 115, "channel": 0}, {"type": "note_off", "time": 222, "note": 70, "velocity": 115, "channel": 0}, {"type": "note_on", "time": 30, "note": 72, "velocity": 116, "channel": 0}, {"type": "note_off", "time": 206, "note": 72, "velocity": 116, "channel": 0}, {"type": "note_on", "time": 72, "note": 75, "velocity": 109, "channel": 0}, {"type": "note_off", "time": 210, "note": 75, "velocity": 109, "channel": 0}, {"type": "note_on", "time": 122, "note": 79, "velocity": 113, "channel": 0}, {"type": "note_off", "time": 229, "note": 79, "velocity": 113, "channel": 0}, {"type": "note_on", "time": 168, "note": 76, "velocity": 117, "channel": 0}, {"type": "note_off", "time": 187, "note": 76, "velocity": 117, "channel": 0}, {"type": "note_on", "time": 0, "note": 77, "velocity": 108, "channel": 0}, {"type": "note_off", "time": 229, "note": 77, "velocity": 108, "channel": 0}, {"type": "note_on", "time": 0, "note": 75, "velocity": 120, "channel": 0}, {"type": "note_off", "time": 214, "note": 75, "velocity": 120, "channel": 0}, {"type": "note_on", "time": 0, "note": 74, "velocity": 117, "channel": 0}, {"type": "note_off", "time": 149, "note": 74, "velocity": 117, "channel": 0}, {"type": "note_on", "time": 0, "note": 73, "velocity": 122, "channel": 0}, {"type": "note_off", "time": 202, "note": 73, "velocity": 122, "channel": 0}, {"type": "note_on", "time": 0, "note": 72, "velocity": 112, "channel": 0}, {"type": "note_off", "time": 68, "note": 72, "velocity": 112, "channel": 0}, {"type": "note_on", "time": 0, "note": 73, "velocity": 121, "channel": 0}, {"type": "note_off", "time": 111, "note": 73, "velocity": 121, "channel": 0}, {"type": "note_on", "time": 11, "note": 72, "velocity": 111, "channel": 0}, {"type": "note_off", "time": 68, "note": 72, "velocity": 111, "channel": 0}, {"type": "note_on", "time": 7, "note": 71, "velocity": 10, "channel": 0}, {"type": "note_off", "time": 202, "note": 71, "velocity": 10, "channel": 0}, {"type": "note_on", "time": 0, "note": 70, "velocity": 25, "channel": 0}, {"type": "note_off", "time": 164, "note": 70, "velocity": 25, "channel": 0}, {"type": "note_on", "time": 49, "note": 69, "velocity": 114, "channel": 0}, {"type": "note_off", "time": 164, "note": 69, "velocity": 114, "channel": 0}, {"type": "note_on", "time": 15, "note": 68, "velocity": 111, "channel": 0}, {"type": "note_off", "time": 195, "note": 68, "velocity": 111, "channel": 0}, {"type": "note_on", "time": 15, "note": 67, "velocity": 111, "channel": 0}, {"type": "note_off", "time": 183, "note": 67, "velocity": 111, "channel": 0}, {"type": "note_on", "time": 53, "note": 65, "velocity": 115, "channel": 0}, {"type": "note_off", "time": 145, "note": 65, "velocity": 115, "channel": 0}, {"type": "note_on", "time": 42, "note": 63, "velocity": 114, "channel": 0}, {"type": "note_off", "time": 111, "note": 63, "velocity": 114, "channel": 0}, {"type": "note_on", "time": 26, "note": 62, "velocity": 109, "channel": 0}, {"type": "note_off", "time": 107, "note": 62, "velocity": 109, "channel": 0}, {"type": "note_on", "time": 30, "note": 65, "velocity": 118, "channel": 0}, {"type": "note_off", "time": 118, "note": 65, "velocity": 118, "channel": 0}, {"type": "note_on", "time": 19, "note": 67, "velocity": 104, "channel": 0}, {"type": "note_off", "time": 149, "note": 67, "velocity": 104, "channel": 0}, {"type": "note_on", "time": 11, "note": 73, "velocity": 121, "channel": 0}, {"type": "note_off", "time": 210, "note": 73, "velocity": 121, "channel": 0}, {"type": "note_on", "time": 3, "note": 74, "velocity": 119, "channel": 0}, {"type": "note_off", "time": 187, "note": 74, "velocity": 119, "channel": 0}, {"type": "note_on", "time": 0, "note": 73, "velocity": 115, "channel": 0}, {"type": "note_off", "time": 91, "note": 73, "velocity": 115, "channel": 0}, {"type": "note_on", "time": 15, "note": 71, "velocity": 117, "channel": 0}, {"type": "note_off", "time": 264, "note": 71, "velocity": 117, "channel": 0}, {"type": "note_on", "time": 22, "note": 66, "velocity": 113, "channel": 0}, {"type": "note_off", "time": 149, "note": 66, "velocity": 113, "channel": 0}, {"type": "note_on", "time": 141, "note": 62, "velocity": 116, "channel": 0}, {"type": "note_off", "time": 153, "note": 62, "velocity": 116, "channel": 0}, {"type": "note_on", "time": 3, "note": 59, "velocity": 102, "channel": 0}, {"type": "note_off", "time": 149, "note": 59, "velocity": 102, "channel": 0}, {"type": "note_on", "time": 99, "note": 57, "velocity": 109, "channel": 0}, {"type": "note_off", "time": 156, "note": 57, "velocity": 109, "channel": 0}, {"type": "note_on", "time": 34, "note": 58, "velocity": 112, "channel": 0}, {"type": "note_off", "time": 172, "note": 58, "velocity": 112, "channel": 0}, {"type": "note_on", "time": 19, "note": 62, "velocity": 105, "channel": 0}, {"type": "note_off", "time": 80, "note": 62, "velocity": 105, "channel": 0}, {"type": "note_on", "time": 0, "note": 61, "velocity": 92, "channel": 0}, {"type": "note_off", "time": 80, "note": 61, "velocity": 92, "channel": 0}, {"type": "note_on", "time": 53, "note": 59, "velocity": 96, "channel": 0}, {"type": "note_off", "time": 88, "note": 59, "velocity": 96, "channel": 0}, {"type": "note_on", "time": 42, "note": 53, "velocity": 113, "channel": 0}, {"type": "note_off", "time": 145, "note": 53, "velocity": 113, "channel": 0}, {"type": "note_on", "time": 11, "note": 54, "velocity": 96, "channel": 0}, {"type": "note_off", "time": 76, "note": 54, "velocity": 96, "channel": 0}, {"type": "note_on", "time": 42, "note": 58, "velocity": 96, "channel": 0}, {"type": "note_off", "time": 72, "note": 58, "velocity": 96, "channel": 0}, {"type": "note_on", "time": 22, "note": 60, "velocity": 99, "channel": 0}, {"type": "note_off", "time": 68, "note": 60, "velocity": 99, "channel": 0}, {"type": "note_on", "time": 11, "note": 62, "velocity": 107, "channel": 0}, {"type": "note_off", "time": 134, "note": 62, "velocity": 107, "channel": 0}, {"type": "note_on", "time": 11, "note": 65, "velocity": 115, "channel": 0}, {"type": "note_off", "time": 256, "note": 65, "velocity": 115, "channel": 0}, {"type": "note_on", "time": 22, "note": 62, "velocity": 105, "channel": 0}, {"type": "note_off", "time": 225, "note": 62, "velocity": 105, "channel": 0}, {"type": "note_on", "time": 38, "note": 63, "velocity": 107, "channel": 0}, {"type": "note_off", "time": 141, "note": 63, "velocity": 107, "channel": 0}, {"type": "note_on", "time": 0, "note": 65, "velocity": 115, "channel": 0}, {"type": "note_off", "time": 241, "note": 65, "velocity": 115, "channel": 0}, {"type": "note_on", "time": 30, "note": 67, "velocity": 110, "channel": 0}, {"type": "note_off", "time": 245, "note": 67, "velocity": 110, "channel": 0}, {"type": "note_on", "time": 3, "note": 68, "velocity": 113, "channel": 0}, {"type": "note_off", "time": 61, "note": 68, "velocity": 113, "channel": 0}, {"type": "note_on", "time": 49, "note": 74, "velocity": 119, "channel": 0}, {"type": "note_off", "time": 122, "note": 74, "velocity": 119, "channel": 0}, {"type": "note_on", "time": 0, "note": 72, "velocity": 119, "channel": 0}, {"type": "note_off", "time": 84, "note": 72, "velocity": 119, "channel": 0}, {"type": "note_on", "time": 19, "note": 71, "velocity": 118, "channel": 0}, {"type": "note_off", "time": 153, "note": 71, "velocity": 118, "channel": 0}, {"type": "note_on", "time": 15, "note": 70, "velocity": 117, "channel": 0}, {"type": "note_off", "time": 183, "note": 70, "velocity": 117, "channel": 0}, {"type": "note_on", "time": 7, "note": 69, "velocity": 118, "channel": 0}, {"type": "note_off", "time": 172, "note": 69, "velocity": 118, "channel": 0}, {"type": "note_on", "time": 34, "note": 68, "velocity": 112, "channel": 0}, {"type": "note_off", "time": 179, "note": 68, "velocity": 112, "channel": 0}, {"type": "note_on", "time": 38, "note": 67, "velocity": 114, "channel": 0}, {"type": "note_off", "time": 206, "note": 67, "velocity": 114, "channel": 0}, {"type": "note_on", "time": 34, "note": 65, "velocity": 111, "channel": 0}, {"type": "note_off", "time": 172, "note": 65, "velocity": 111, "channel": 0}, {"type": "note_on", "time": 3, "note": 63, "velocity": 119, "channel": 0}, {"type": "note_off", "time": 134, "note": 63, "velocity": 119, "channel": 0}, {"type": "note_on", "time": 306, "note": 65, "velocity": 116, "channel": 0}, {"type": "note_off", "time": 107, "note": 65, "velocity": 116, "channel": 0}, {"type": "note_on", "time": 7, "note": 68, "velocity": 113, "channel": 0}, {"type": "note_off", "time": 183, "note": 68, "velocity": 113, "channel": 0}, {"type": "note_on", "time": 30, "note": 71, "velocity": 115, "channel": 0}, {"type": "note_off", "time": 229, "note": 71, "velocity": 115, "channel": 0}, {"type": "note_on", "time": 145, "note": 68, "velocity": 114, "channel": 0}, {"type": "note_off", "time": 91, "note": 68, "velocity": 114, "channel": 0}, {"type": "note_on", "time": 22, "note": 69, "velocity": 117, "channel": 0}, {"type": "note_off", "time": 130, "note": 69, "velocity": 117, "channel": 0}, {"type": "note_on", "time": 0, "note": 70, "velocity": 99, "channel": 0}, {"type": "note_off", "time": 134, "note": 70, "velocity": 99, "channel": 0}, {"type": "note_on", "time": 551, "note": 70, "velocity": 99, "channel": 0}, {"type": "note_off", "time": 130, "note": 70, "velocity": 99, "channel": 0}, {"type": "note_on", "time": 218, "note": 70, "velocity": 104, "channel": 0}, {"type": "note_off", "time": 191, "note": 70, "velocity": 104, "channel": 0}, {"type": "note_on", "time": 137, "note": 70, "velocity": 97, "channel": 0}, {"type": "note_off", "time": 57, "note": 70, "velocity": 97, "channel": 0}, {"type": "note_on", "time": 19, "note": 71, "velocity": 106, "channel": 0}, {"type": "note_off", "time": 176, "note": 71, "velocity": 106, "channel": 0}, {"type": "note_on", "time": 99, "note": 72, "velocity": 110, "channel": 0}, {"type": "note_off", "time": 141, "note": 72, "velocity": 110, "channel": 0}, {"type": "note_on", "time": 45, "note": 72, "velocity": 110, "channel": 0}, {"type": "note_off", "time": 210, "note": 72, "velocity": 110, "channel": 0}, {"type": "note_on", "time": 53, "note": 71, "velocity": 111, "channel": 0}, {"type": "note_off", "time": 179, "note": 71, "velocity": 111, "channel": 0}, {"type": "note_on", "time": 26, "note": 72, "velocity": 105, "channel": 0}, {"type": "note_off", "time": 76, "note": 72, "velocity": 105, "channel": 0}, {"type": "note_on", "time": 22, "note": 72, "velocity": 117, "channel": 0}, {"type": "note_off", "time": 126, "note": 72, "velocity": 117, "channel": 0}, {"type": "note_on", "time": 26, "note": 72, "velocity": 120, "channel": 0}, {"type": "note_off", "time": 153, "note": 72, "velocity": 120, "channel": 0}, {"type": "note_on", "time": 49, "note": 72, "velocity": 119, "channel": 0}, {"type": "note_off", "time": 156, "note": 72, "velocity": 119, "channel": 0}, {"type": "note_on", "time": 264, "note": 72, "velocity": 114, "channel": 0}, {"type": "note_off", "time": 275, "note": 72, "velocity": 114, "channel": 0}, {"type": "note_on", "time": 156, "note": 79, "velocity": 114, "channel": 0}, {"type": "note_off", "time": 382, "note": 79, "velocity": 114, "channel": 0}, {"type": "note_on", "time": 731, "note": 71, "velocity": 114, "channel": 0}, {"type": "note_off", "time": 88, "note": 71, "velocity": 114, "channel": 0}, {"type": "note_on", "time": 7, "note": 72, "velocity": 104, "channel": 0}, {"type": "note_off", "time": 91, "note": 72, "velocity": 104, "channel": 0}, {"type": "note_on", "time": 160, "note": 71, "velocity": 93, "channel": 0}, {"type": "note_off", "time": 30, "note": 71, "velocity": 93, "channel": 0}, {"type": "note_on", "time": 19, "note": 72, "velocity": 111, "channel": 0}, {"type": "note_off", "time": 91, "note": 72, "velocity": 111, "channel": 0}, {"type": "note_on", "time": 57, "note": 72, "velocity": 117, "channel": 0}, {"type": "note_off", "time": 176, "note": 72, "velocity": 117, "channel": 0}, {"type": "note_on", "time": 65, "note": 72, "velocity": 101, "channel": 0}, {"type": "note_off", "time": 225, "note": 72, "velocity": 101, "channel": 0}, {"type": "note_on", "time": 80, "note": 72, "velocity": 107, "channel": 0}, {"type": "note_off", "time": 153, "note": 72, "velocity": 107, "channel": 0}, {"type": "note_on", "time": 45, "note": 72, "velocity": 102, "channel": 0}, {"type": "note_off", "time": 214, "note": 72, "velocity": 102, "channel": 0}, {"type": "note_on", "time": 179, "note": 75, "velocity": 111, "channel": 0}, {"type": "note_off", "time": 179, "note": 75, "velocity": 111, "channel": 0}, {"type": "note_on", "time": 195, "note": 78, "velocity": 112, "channel": 0}, {"type": "note_off", "time": 294, "note": 78, "velocity": 112, "channel": 0}, {"type": "note_on", "time": 1657, "note": 79, "velocity": 119, "channel": 0}, {"type": "note_off", "time": 141, "note": 79, "velocity": 119, "channel": 0}, {"type": "note_on", "time": 15, "note": 80, "velocity": 116, "channel": 0}, {"type": "note_off", "time": 237, "note": 80, "velocity": 116, "channel": 0}, {"type": "note_on", "time": 11, "note": 76, "velocity": 109, "channel": 0}, {"type": "note_off", "time": 176, "note": 76, "velocity": 109, "channel": 0}, {"type": "note_on", "time": 42, "note": 79, "velocity": 112, "channel": 0}, {"type": "note_off", "time": 233, "note": 79, "velocity": 112, "channel": 0}, {"type": "note_on", "time": 0, "note": 76, "velocity": 116, "channel": 0}, {"type": "note_off", "time": 176, "note": 76, "velocity": 116, "channel": 0}, {"type": "note_on", "time": 0, "note": 77, "velocity": 111, "channel": 0}, {"type": "note_off", "time": 187, "note": 77, "velocity": 111, "channel": 0}, {"type": "note_on", "time": 0, "note": 75, "velocity": 121, "channel": 0}, {"type": "note_off", "time": 168, "note": 75, "velocity": 121, "channel": 0}, {"type": "note_on", "time": 22, "note": 74, "velocity": 116, "channel": 0}, {"type": "note_off", "time": 191, "note": 74, "velocity": 116, "channel": 0}, {"type": "note_on", "time": 49, "note": 72, "velocity": 120, "channel": 0}, {"type": "note_off", "time": 130, "note": 72, "velocity": 120, "channel": 0}, {"type": "note_on", "time": 30, "note": 71, "velocity": 115, "channel": 0}, {"type": "note_off", "time": 68, "note": 71, "velocity": 115, "channel": 0}, {"type": "note_on", "time": 26, "note": 69, "velocity": 106, "channel": 0}, {"type": "note_off", "time": 122, "note": 69, "velocity": 106, "channel": 0}, {"type": "note_on", "time": 0, "note": 70, "velocity": 123, "channel": 0}, {"type": "note_off", "time": 176, "note": 70, "velocity": 123, "channel": 0}, {"type": "note_on", "time": 0, "note": 72, "velocity": 123, "channel": 0}, {"type": "note_off", "time": 168, "note": 72, "velocity": 123, "channel": 0}, {"type": "note_on", "time": 19, "note": 73, "velocity": 124, "channel": 0}, {"type": "note_off", "time": 172, "note": 73, "velocity": 124, "channel": 0}, {"type": "note_on", "time": 3, "note": 75, "velocity": 108, "channel": 0}, {"type": "note_off", "time": 187, "note": 75, "velocity": 108, "channel": 0}, {"type": "note_on", "time": 11, "note": 77, "velocity": 122, "channel": 0}, {"type": "note_off", "time": 164, "note": 77, "velocity": 122, "channel": 0}, {"type": "note_on", "time": 0, "note": 79, "velocity": 122, "channel": 0}, {"type": "note_off", "time": 42, "note": 79, "velocity": 122, "channel": 0}, {"type": "note_on", "time": 3, "note": 80, "velocity": 125, "channel": 0}, {"type": "note_off", "time": 134, "note": 80, "velocity": 125, "channel": 0}, {"type": "note_on", "time": 11, "note": 79, "velocity": 122, "channel": 0}, {"type": "note_off", "time": 183, "note": 79, "velocity": 122, "channel": 0}, {"type": "note_on", "time": 22, "note": 77, "velocity": 121, "channel": 0}, {"type": "note_off", "time": 179, "note": 77, "velocity": 121, "channel": 0}, {"type": "note_on", "time": 15, "note": 76, "velocity": 124, "channel": 0}, {"type": "note_off", "time": 183, "note": 76, "velocity": 124, "channel": 0}, {"type": "note_on", "time": 11, "note": 74, "velocity": 122, "channel": 0}, {"type": "note_off", "time": 187, "note": 74, "velocity": 122, "channel": 0}, {"type": "note_on", "time": 0, "note": 75, "velocity": 120, "channel": 0}, {"type": "note_off", "time": 179, "note": 75, "velocity": 120, "channel": 0}, {"type": "note_on", "time": 45, "note": 73, "velocity": 114, "channel": 0}, {"type": "note_off", "time": 248, "note": 73, "velocity": 114, "channel": 0}, {"type": "note_on", "time": 38, "note": 72, "velocity": 96, "channel": 0}, {"type": "note_off", "time": 99, "note": 72, "velocity": 96, "channel": 0}, {"type": "note_on", "time": 26, "note": 73, "velocity": 106, "channel": 0}, {"type": "note_off", "time": 107, "note": 73, "velocity": 106, "channel": 0}, {"type": "note_on", "time": 26, "note": 72, "velocity": 121, "channel": 0}, {"type": "note_off", "time": 195, "note": 72, "velocity": 121, "channel": 0}, {"type": "note_on", "time": 80, "note": 68, "velocity": 116, "channel": 0}, {"type": "note_off", "time": 206, "note": 68, "velocity": 116, "channel": 0}, {"type": "note_on", "time": 3, "note": 67, "velocity": 89, "channel": 0}, {"type": "note_off", "time": 99, "note": 67, "velocity": 89, "channel": 0}, {"type": "note_on", "time": 76, "note": 65, "velocity": 96, "channel": 0}, {"type": "note_off", "time": 149, "note": 65, "velocity": 96, "channel": 0}, {"type": "note_on", "time": 49, "note": 70, "velocity": 120, "channel": 0}, {"type": "note_off", "time": 172, "note": 70, "velocity": 120, "channel": 0}, {"type": "note_on", "time": 49, "note": 67, "velocity": 111, "channel": 0}, {"type": "note_off", "time": 199, "note": 67, "velocity": 111, "channel": 0}, {"type": "note_on", "time": 3, "note": 68, "velocity": 107, "channel": 0}, {"type": "note_off", "time": 99, "note": 68, "velocity": 107, "channel": 0}, {"type": "note_on", "time": 11, "note": 70, "velocity": 114, "channel": 0}, {"type": "note_off", "time": 222, "note": 70, "velocity": 114, "channel": 0}, {"type": "note_on", "time": 49, "note": 71, "velocity": 115, "channel": 0}, {"type": "note_off", "time": 153, "note": 71, "velocity": 115, "channel": 0}, {"type": "note_on", "time": 34, "note": 72, "velocity": 108, "channel": 0}, {"type": "note_off", "time": 187, "note": 72, "velocity": 108, "channel": 0}, {"type": "note_on", "time": 15, "note": 77, "velocity": 117, "channel": 0}, {"type": "note_off", "time": 172, "note": 77, "velocity": 117, "channel": 0}, {"type": "note_on", "time": 49, "note": 76, "velocity": 122, "channel": 0}, {"type": "note_off", "time": 195, "note": 76, "velocity": 122, "channel": 0}, {"type": "note_on", "time": 7, "note": 75, "velocity": 122, "channel": 0}, {"type": "note_off", "time": 218, "note": 75, "velocity": 122, "channel": 0}, {"type": "note_on", "time": 0, "note": 73, "velocity": 119, "channel": 0}, {"type": "note_off", "time": 210, "note": 73, "velocity": 119, "channel": 0}, {"type": "note_on", "time": 7, "note": 72, "velocity": 113, "channel": 0}, {"type": "note_off", "time": 38, "note": 72, "velocity": 113, "channel": 0}, {"type": "note_on", "time": 7, "note": 73, "velocity": 103, "channel": 0}, {"type": "note_off", "time": 88, "note": 73, "velocity": 103, "channel": 0}, {"type": "note_on", "time": 11, "note": 72, "velocity": 98, "channel": 0}, {"type": "note_off", "time": 49, "note": 72, "velocity": 98, "channel": 0}, {"type": "note_on", "time": 15, "note": 71, "velocity": 114, "channel": 0}, {"type": "note_off", "time": 160, "note": 71, "velocity": 114, "channel": 0}, {"type": "note_on", "time": 19, "note": 72, "velocity": 119, "channel": 0}, {"type": "note_off", "time": 168, "note": 72, "velocity": 119, "channel": 0}, {"type": "note_on", "time": 65, "note": 68, "velocity": 112, "channel": 0}, {"type": "note_off", "time": 80, "note": 68, "velocity": 112, "channel": 0}, {"type": "note_on", "time": 0, "note": 67, "velocity": 108, "channel": 0}, {"type": "note_off", "time": 30, "note": 67, "velocity": 108, "channel": 0}, {"type": "note_on", "time": 19, "note": 68, "velocity": 115, "channel": 0}, {"type": "note_off", "time": 107, "note": 68, "velocity": 115, "channel": 0}, {"type": "note_on", "time": 0, "note": 67, "velocity": 106, "channel": 0}, {"type": "note_off", "time": 111, "note": 67, "velocity": 106, "channel": 0}, {"type": "note_on", "time": 76, "note": 65, "velocity": 108, "channel": 0}, {"type": "note_off", "time": 126, "note": 65, "velocity": 108, "channel": 0}, {"type": "note_on", "time": 42, "note": 70, "velocity": 118, "channel": 0}, {"type": "note_off", "time": 225, "note": 70, "velocity": 118, "channel": 0}, {"type": "note_on", "time": 0, "note": 67, "velocity": 111, "channel": 0}, {"type": "note_off", "time": 176, "note": 67, "velocity": 111, "channel": 0}, {"type": "note_on", "time": 19, "note": 68, "velocity": 112, "channel": 0}, {"type": "note_off", "time": 168, "note": 68, "velocity": 112, "channel": 0}, {"type": "note_on", "time": 0, "note": 70, "velocity": 106, "channel": 0}, {"type": "note_on", "time": 229, "note": 71, "velocity": 115, "channel": 0}, {"type": "note_off", "time": 0, "note": 70, "velocity": 106, "channel": 0}, {"type": "note_off", "time": 202, "note": 71, "velocity": 115, "channel": 0}, {"type": "note_on", "time": 3, "note": 72, "velocity": 119, "channel": 0}, {"type": "note_off", "time": 156, "note": 72, "velocity": 119, "channel": 0}, {"type": "note_on", "time": 1803, "note": 81, "velocity": 119, "channel": 0}, {"type": "note_off", "time": 107, "note": 81, "velocity": 119, "channel": 0}, {"type": "note_on", "time": 3, "note": 83, "velocity": 123, "channel": 0}, {"type": "note_off", "time": 107, "note": 83, "velocity": 123, "channel": 0}, {"type": "note_on", "time": 19, "note": 84, "velocity": 122, "channel": 0}, {"type": "note_off", "time": 738, "note": 84, "velocity": 122, "channel": 0}, {"type": "note_on", "time": 3, "note": 79, "velocity": 96, "channel": 0}, {"type": "note_off", "time": 141, "note": 79, "velocity": 96, "channel": 0}, {"type": "note_on", "time": 0, "note": 82, "velocity": 116, "channel": 0}, {"type": "note_off", "time": 298, "note": 82, "velocity": 116, "channel": 0}, {"type": "note_on", "time": 348, "note": 71, "velocity": 117, "channel": 0}, {"type": "note_off", "time": 199, "note": 71, "velocity": 117, "channel": 0}, {"type": "note_on", "time": 19, "note": 75, "velocity": 108, "channel": 0}, {"type": "note_off", "time": 134, "note": 75, "velocity": 108, "channel": 0}, {"type": "note_on", "time": 84, "note": 80, "velocity": 122, "channel": 0}, {"type": "note_off", "time": 593, "note": 80, "velocity": 122, "channel": 0}, {"type": "note_on", "time": 11, "note": 79, "velocity": 117, "channel": 0}, {"type": "note_off", "time": 202, "note": 79, "velocity": 117, "channel": 0}, {"type": "note_on", "time": 19, "note": 77, "velocity": 112, "channel": 0}, {"type": "note_off", "time": 68, "note": 77, "velocity": 112, "channel": 0}, {"type": "note_on", "time": 42, "note": 75, "velocity": 108, "channel": 0}, {"type": "note_off", "time": 65, "note": 75, "velocity": 108, "channel": 0}, {"type": "note_on", "time": 38, "note": 71, "velocity": 91, "channel": 0}, {"type": "note_off", "time": 118, "note": 71, "velocity": 91, "channel": 0}, {"type": "note_on", "time": 65, "note": 70, "velocity": 106, "channel": 0}, {"type": "note_off", "time": 95, "note": 70, "velocity": 106, "channel": 0}, {"type": "note_on", "time": 91, "note": 77, "velocity": 119, "channel": 0}, {"type": "note_off", "time": 222, "note": 77, "velocity": 119, "channel": 0}, {"type": "note_on", "time": 45, "note": 74, "velocity": 112, "channel": 0}, {"type": "note_off", "time": 160, "note": 74, "velocity": 112, "channel": 0}, {"type": "note_on", "time": 15, "note": 75, "velocity": 112, "channel": 0}, {"type": "note_off", "time": 183, "note": 75, "velocity": 112, "channel": 0}, {"type": "note_on", "time": 0, "note": 77, "velocity": 117, "channel": 0}, {"type": "note_off", "time": 229, "note": 77, "velocity": 117, "channel": 0}, {"type": "note_on", "time": 61, "note": 79, "velocity": 120, "channel": 0}, {"type": "note_off", "time": 134, "note": 79, "velocity": 120, "channel": 0}, {"type": "note_on", "time": 30, "note": 80, "velocity": 124, "channel": 0}, {"type": "note_off", "time": 160, "note": 80, "velocity": 124, "channel": 0}, {"type": "note_on", "time": 11, "note": 79, "velocity": 113, "channel": 0}, {"type": "note_off", "time": 195, "note": 79, "velocity": 113, "channel": 0}, {"type": "note_on", "time": 11, "note": 77, "velocity": 121, "channel": 0}, {"type": "note_off", "time": 141, "note": 77, "velocity": 121, "channel": 0}, {"type": "note_on", "time": 99, "note": 74, "velocity": 110, "channel": 0}, {"type": "note_off", "time": 145, "note": 74, "velocity": 110, "channel": 0}, {"type": "note_on", "time": 7, "note": 75, "velocity": 117, "channel": 0}, {"type": "note_off", "time": 179, "note": 75, "velocity": 117, "channel": 0}, {"type": "note_on", "time": 38, "note": 76, "velocity": 124, "channel": 0}, {"type": "note_off", "time": 202, "note": 76, "velocity": 124, "channel": 0}, {"type": "note_on", "time": 84, "note": 67, "velocity": 107, "channel": 0}, {"type": "note_off", "time": 149, "note": 67, "velocity": 107, "channel": 0}, {"type": "note_on", "time": 42, "note": 70, "velocity": 101, "channel": 0}, {"type": "note_off", "time": 156, "note": 70, "velocity": 101, "channel": 0}, {"type": "note_on", "time": 3, "note": 73, "velocity": 114, "channel": 0}, {"type": "note_off", "time": 176, "note": 73, "velocity": 114, "channel": 0}, {"type": "note_on", "time": 0, "note": 70, "velocity": 113, "channel": 0}, {"type": "note_off", "time": 195, "note": 70, "velocity": 113, "channel": 0}, {"type": "note_on", "time": 22, "note": 68, "velocity": 101, "channel": 0}, {"type": "note_off", "time": 160, "note": 68, "velocity": 101, "channel": 0}, {"type": "note_on", "time": 11, "note": 69, "velocity": 102, "channel": 0}, {"type": "note_off", "time": 176, "note": 69, "velocity": 102, "channel": 0}, {"type": "note_on", "time": 38, "note": 68, "velocity": 114, "channel": 0}, {"type": "note_off", "time": 111, "note": 68, "velocity": 114, "channel": 0}, {"type": "note_on", "time": 30, "note": 67, "velocity": 105, "channel": 0}, {"type": "note_off", "time": 214, "note": 67, "velocity": 105, "channel": 0}, {"type": "note_on", "time": 30, "note": 64, "velocity": 105, "channel": 0}, {"type": "note_off", "time": 268, "note": 64, "velocity": 105, "channel": 0}, {"type": "note_on", "time": 11, "note": 63, "velocity": 107, "channel": 0}, {"type": "note_off", "time": 114, "note": 63, "velocity": 107, "channel": 0}, {"type": "note_on", "time": 53, "note": 60, "velocity": 103, "channel": 0}, {"type": "note_off", "time": 103, "note": 60, "velocity": 103, "channel": 0}, {"type": "note_on", "time": 76, "note": 67, "velocity": 119, "channel": 0}, {"type": "note_off", "time": 195, "note": 67, "velocity": 119, "channel": 0}, {"type": "note_on", "time": 38, "note": 64, "velocity": 106, "channel": 0}, {"type": "note_off", "time": 195, "note": 64, "velocity": 106, "channel": 0}, {"type": "note_on", "time": 19, "note": 65, "velocity": 112, "channel": 0}, {"type": "note_off", "time": 214, "note": 65, "velocity": 112, "channel": 0}, {"type": "note_on", "time": 38, "note": 67, "velocity": 117, "channel": 0}, {"type": "note_off", "time": 145, "note": 67, "velocity": 117, "channel": 0}, {"type": "note_on", "time": 3, "note": 68, "velocity": 115, "channel": 0}, {"type": "note_off", "time": 202, "note": 68, "velocity": 115, "channel": 0}, {"type": "note_on", "time": 7, "note": 70, "velocity": 111, "channel": 0}, {"type": "note_off", "time": 195, "note": 70, "velocity": 111, "channel": 0}, {"type": "note_on", "time": 42, "note": 75, "velocity": 122, "channel": 0}, {"type": "note_off", "time": 195, "note": 75, "velocity": 122, "channel": 0}, {"type": "note_on", "time": 68, "note": 75, "velocity": 107, "channel": 0}, {"type": "note_off", "time": 290, "note": 75, "velocity": 107, "channel": 0}, {"type": "note_on", "time": 95, "note": 79, "velocity": 118, "channel": 0}, {"type": "note_off", "time": 245, "note": 79, "velocity": 118, "channel": 0}, {"type": "note_on", "time": 126, "note": 76, "velocity": 107, "channel": 0}, {"type": "note_off", "time": 164, "note": 76, "velocity": 107, "channel": 0}, {"type": "note_on", "time": 30, "note": 77, "velocity": 115, "channel": 0}, {"type": "note_off", "time": 195, "note": 77, "velocity": 115, "channel": 0}, {"type": "note_on", "time": 0, "note": 75, "velocity": 88, "channel": 0}, {"type": "note_off", "time": 164, "note": 75, "velocity": 88, "channel": 0}, {"type": "note_on", "time": 22, "note": 74, "velocity": 120, "channel": 0}, {"type": "note_off", "time": 187, "note": 74, "velocity": 120, "channel": 0}, {"type": "note_on", "time": 7, "note": 73, "velocity": 120, "channel": 0}, {"type": "note_off", "time": 202, "note": 73, "velocity": 120, "channel": 0}, {"type": "note_on", "time": 0, "note": 72, "velocity": 109, "channel": 0}, {"type": "note_off", "time": 88, "note": 72, "velocity": 109, "channel": 0}, {"type": "note_on", "time": 11, "note": 74, "velocity": 115, "channel": 0}, {"type": "note_off", "time": 114, "note": 74, "velocity": 115, "channel": 0}, {"type": "note_on", "time": 0, "note": 72, "velocity": 119, "channel": 0}, {"type": "note_off", "time": 88, "note": 72, "velocity": 119, "channel": 0}, {"type": "note_on", "time": 0, "note": 71, "velocity": 121, "channel": 0}, {"type": "note_off", "time": 168, "note": 71, "velocity": 121, "channel": 0}, {"type": "note_on", "time": 65, "note": 70, "velocity": 120, "channel": 0}, {"type": "note_off", "time": 225, "note": 70, "velocity": 120, "channel": 0}, {"type": "note_on", "time": 0, "note": 69, "velocity": 108, "channel": 0}, {"type": "note_off", "time": 122, "note": 69, "velocity": 108, "channel": 0}, {"type": "note_on", "time": 3, "note": 68, "velocity": 109, "channel": 0}, {"type": "note_off", "time": 214, "note": 68, "velocity": 109, "channel": 0}, {"type": "note_on", "time": 0, "note": 72, "velocity": 116, "channel": 0}, {"type": "note_off", "time": 153, "note": 72, "velocity": 116, "channel": 0}, {"type": "note_on", "time": 260, "note": 65, "velocity": 118, "channel": 0}, {"type": "note_on", "time": 163, "note": 66, "velocity": 107, "channel": 0}, {"type": "note_off", "time": 0, "note": 65, "velocity": 118, "channel": 0}, {"type": "note_off", "time": 62, "note": 66, "velocity": 107, "channel": 0}, {"type": "note_on", "time": 10, "note": 65, "velocity": 117, "channel": 0}, {"type": "note_off", "time": 84, "note": 65, "velocity": 117, "channel": 0}, {"type": "note_on", "time": 27, "note": 64, "velocity": 110, "channel": 0}, {"type": "note_off", "time": 122, "note": 64, "velocity": 110, "channel": 0}, {"type": "note_on", "time": 21, "note": 62, "velocity": 112, "channel": 0}, {"type": "note_off", "time": 133, "note": 62, "velocity": 112, "channel": 0}, {"type": "note_on", "time": 2, "note": 63, "velocity": 114, "channel": 0}, {"type": "note_off", "time": 125, "note": 63, "velocity": 114, "channel": 0}, {"type": "note_on", "time": 166, "note": 58, "velocity": 107, "channel": 0}, {"type": "note_off", "time": 117, "note": 58, "velocity": 107, "channel": 0}, {"type": "note_on", "time": 35, "note": 63, "velocity": 116, "channel": 0}, {"type": "note_off", "time": 136, "note": 63, "velocity": 116, "channel": 0}, {"type": "note_on", "time": 51, "note": 67, "velocity": 121, "channel": 0}, {"type": "note_off", "time": 157, "note": 67, "velocity": 121, "channel": 0}, {"type": "note_on", "time": 54, "note": 64, "velocity": 116, "channel": 0}, {"type": "note_off", "time": 187, "note": 64, "velocity": 116, "channel": 0}, {"type": "note_on", "time": 76, "note": 62, "velocity": 93, "channel": 0}, {"type": "note_off", "time": 106, "note": 62, "velocity": 93, "channel": 0}, {"type": "note_on", "time": 29, "note": 64, "velocity": 120, "channel": 0}, {"type": "note_off", "time": 187, "note": 64, "velocity": 120, "channel": 0}, {"type": "note_on", "time": 0, "note": 67, "velocity": 121, "channel": 0}, {"type": "note_off", "time": 225, "note": 67, "velocity": 121, "channel": 0}, {"type": "note_on", "time": 0, "note": 65, "velocity": 117, "channel": 0}, {"type": "note_off", "time": 196, "note": 65, "velocity": 117, "channel": 0}, {"type": "note_on", "time": 73, "note": 62, "velocity": 99, "channel": 0}, {"type": "note_off", "time": 95, "note": 62, "velocity": 99, "channel": 0}, {"type": "note_on", "time": 10, "note": 65, "velocity": 117, "channel": 0}, {"type": "note_off", "time": 196, "note": 65, "velocity": 117, "channel": 0}, {"type": "note_on", "time": 32, "note": 67, "velocity": 118, "channel": 0}, {"type": "note_off", "time": 223, "note": 67, "velocity": 118, "channel": 0}, {"type": "note_on", "time": 0, "note": 68, "velocity": 109, "channel": 0}, {"type": "note_off", "time": 65, "note": 68, "velocity": 109, "channel": 0}, {"type": "note_on", "time": 993, "note": 71, "velocity": 120, "channel": 0}, {"type": "note_off", "time": 149, "note": 71, "velocity": 120, "channel": 0}, {"type": "note_on", "time": 5, "note": 72, "velocity": 119, "channel": 0}, {"type": "note_off", "time": 193, "note": 72, "velocity": 119, "channel": 0}, {"type": "note_on", "time": 0, "note": 71, "velocity": 97, "channel": 0}, {"type": "note_off", "time": 201, "note": 71, "velocity": 97, "channel": 0}, {"type": "note_on", "time": 84, "note": 73, "velocity": 112, "channel": 0}, {"type": "note_off", "time": 76, "note": 73, "velocity": 112, "channel": 0}, {"type": "note_on", "time": 0, "note": 70, "velocity": 106, "channel": 0}, {"type": "note_off", "time": 122, "note": 70, "velocity": 106, "channel": 0}, {"type": "note_on", "time": 24, "note": 69, "velocity": 116, "channel": 0}, {"type": "note_off", "time": 125, "note": 69, "velocity": 116, "channel": 0}, {"type": "note_on", "time": 2, "note": 68, "velocity": 112, "channel": 0}, {"type": "note_off", "time": 179, "note": 68, "velocity": 112, "channel": 0}, {"type": "note_on", "time": 84, "note": 72, "velocity": 118, "channel": 0}, {"type": "note_off", "time": 160, "note": 72, "velocity": 118, "channel": 0}, {"type": "note_on", "time": 38, "note": 67, "velocity": 111, "channel": 0}, {"type": "note_off", "time": 119, "note": 67, "velocity": 111, "channel": 0}, {"type": "note_on", "time": 103, "note": 65, "velocity": 105, "channel": 0}, {"type": "note_off", "time": 111, "note": 65, "velocity": 105, "channel": 0}, {"type": "note_on", "time": 70, "note": 70, "velocity": 116, "channel": 0}, {"type": "note_off", "time": 176, "note": 70, "velocity": 116, "channel": 0}, {"type": "note_on", "time": 302, "note": 63, "velocity": 106, "channel": 0}, {"type": "note_off", "time": 122, "note": 63, "velocity": 106, "channel": 0}, {"type": "note_on", "time": 27, "note": 68, "velocity": 120, "channel": 0}, {"type": "note_off", "time": 239, "note": 68, "velocity": 120, "channel": 0}, {"type": "note_on", "time": 76, "note": 65, "velocity": 106, "channel": 0}, {"type": "note_off", "time": 122, "note": 65, "velocity": 106, "channel": 0}, {"type": "note_on", "time": 35, "note": 66, "velocity": 115, "channel": 0}, {"type": "note_off", "time": 119, "note": 66, "velocity": 115, "channel": 0}, {"type": "note_on", "time": 87, "note": 67, "velocity": 115, "channel": 0}, {"type": "note_off", "time": 206, "note": 67, "velocity": 115, "channel": 0}, {"type": "note_on", "time": 299, "note": 74, "velocity": 113, "channel": 0}, {"type": "note_off", "time": 114, "note": 74, "velocity": 113, "channel": 0}, {"type": "note_on", "time": 2, "note": 75, "velocity": 120, "channel": 0}, {"type": "note_off", "time": 901, "note": 75, "velocity": 120, "channel": 0}, {"type": "note_on", "time": 40, "note": 75, "velocity": 121, "channel": 0}, {"type": "note_off", "time": 122, "note": 75, "velocity": 121, "channel": 0}, {"type": "note_on", "time": 84, "note": 75, "velocity": 118, "channel": 0}, {"type": "note_off", "time": 174, "note": 75, "velocity": 118, "channel": 0}, {"type": "note_on", "time": 465, "note": 75, "velocity": 119, "channel": 0}, {"type": "note_off", "time": 765, "note": 75, "velocity": 119, "channel": 0}, {"type": "note_on", "time": 141, "note": 78, "velocity": 116, "channel": 0}, {"type": "note_off", "time": 225, "note": 78, "velocity": 116, "channel": 0}, {"type": "note_on", "time": 8, "note": 75, "velocity": 120, "channel": 0}, {"type": "note_off", "time": 228, "note": 75, "velocity": 120, "channel": 0}, {"type": "note_on", "time": 438, "note": 75, "velocity": 118, "channel": 0}, {"type": "note_off", "time": 691, "note": 75, "velocity": 118, "channel": 0}, {"type": "note_on", "time": 10, "note": 73, "velocity": 119, "channel": 0}, {"type": "note_off", "time": 168, "note": 73, "velocity": 119, "channel": 0}, {"type": "note_on", "time": 81, "note": 75, "velocity": 120, "channel": 0}, {"type": "note_off", "time": 225, "note": 75, "velocity": 120, "channel": 0}, {"type": "note_on", "time": 503, "note": 75, "velocity": 114, "channel": 0}, {"type": "note_off", "time": 405, "note": 75, "velocity": 114, "channel": 0}, {"type": "note_on", "time": 1020, "note": 75, "velocity": 114, "channel": 0}, {"type": "note_off", "time": 236, "note": 75, "velocity": 114, "channel": 0}, {"type": "note_on", "time": 133, "note": 78, "velocity": 117, "channel": 0}, {"type": "note_off", "time": 182, "note": 78, "velocity": 117, "channel": 0}, {"type": "note_on", "time": 40, "note": 80, "velocity": 107, "channel": 0}, {"type": "note_off", "time": 258, "note": 80, "velocity": 107, "channel": 0}, {"type": "note_on", "time": 46, "note": 81, "velocity": 113, "channel": 0}, {"type": "note_off", "time": 285, "note": 81, "velocity": 113, "channel": 0}, {"type": "note_on", "time": 98, "note": 80, "velocity": 116, "channel": 0}, {"type": "note_off", "time": 383, "note": 80, "velocity": 116, "channel": 0}, {"type": "note_on", "time": 92, "note": 78, "velocity": 117, "channel": 0}, {"type": "note_off", "time": 321, "note": 78, "velocity": 117, "channel": 0}, {"type": "note_on", "time": 84, "note": 75, "velocity": 117, "channel": 0}, {"type": "note_off", "time": 353, "note": 75, "velocity": 117, "channel": 0}, {"type": "note_on", "time": 57, "note": 73, "velocity": 118, "channel": 0}, {"type": "note_off", "time": 122, "note": 73, "velocity": 118, "channel": 0}, {"type": "note_on", "time": 2, "note": 72, "velocity": 119, "channel": 0}, {"type": "note_off", "time": 149, "note": 72, "velocity": 119, "channel": 0}, {"type": "note_on", "time": 70, "note": 73, "velocity": 100, "channel": 0}, {"type": "note_off", "time": 65, "note": 73, "velocity": 100, "channel": 0}, {"type": "note_on", "time": 40, "note": 77, "velocity": 111, "channel": 0}, {"type": "note_off", "time": 114, "note": 77, "velocity": 111, "channel": 0}, {"type": "note_on", "time": 29, "note": 76, "velocity": 109, "channel": 0}, {"type": "note_off", "time": 111, "note": 76, "velocity": 109, "channel": 0}, {"type": "note_on", "time": 38, "note": 69, "velocity": 111, "channel": 0}, {"type": "note_off", "time": 68, "note": 69, "velocity": 111, "channel": 0}, {"type": "note_on", "time": 13, "note": 70, "velocity": 120, "channel": 0}, {"type": "note_off", "time": 299, "note": 70, "velocity": 120, "channel": 0}, {"type": "note_on", "time": 176, "note": 70, "velocity": 102, "channel": 0}, {"type": "note_off", "time": 160, "note": 70, "velocity": 102, "channel": 0}, {"type": "note_on", "time": 49, "note": 69, "velocity": 115, "channel": 0}, {"type": "note_off", "time": 163, "note": 69, "velocity": 115, "channel": 0}, {"type": "note_on", "time": 51, "note": 68, "velocity": 118, "channel": 0}, {"type": "note_off", "time": 231, "note": 68, "velocity": 118, "channel": 0}, {"type": "note_on", "time": 359, "note": 66, "velocity": 109, "channel": 0}, {"type": "note_off", "time": 138, "note": 66, "velocity": 109, "channel": 0}, {"type": "note_on", "time": 166, "note": 63, "velocity": 115, "channel": 0}, {"type": "note_off", "time": 166, "note": 63, "velocity": 115, "channel": 0}, {"type": "note_on", "time": 130, "note": 66, "velocity": 115, "channel": 0}, {"type": "note_off", "time": 152, "note": 66, "velocity": 115, "channel": 0}, {"type": "note_on", "time": 313, "note": 68, "velocity": 114, "channel": 0}, {"type": "note_off", "time": 217, "note": 68, "velocity": 114, "channel": 0}, {"type": "note_on", "time": 187, "note": 68, "velocity": 114, "channel": 0}, {"type": "note_off", "time": 623, "note": 68, "velocity": 114, "channel": 0}, {"type": "note_on", "time": 19, "note": 74, "velocity": 102, "channel": 0}, {"type": "note_off", "time": 98, "note": 74, "velocity": 102, "channel": 0}, {"type": "note_on", "time": 21, "note": 67, "velocity": 99, "channel": 0}, {"type": "note_off", "time": 68, "note": 67, "velocity": 99, "channel": 0}, {"type": "note_on", "time": 5, "note": 66, "velocity": 111, "channel": 0}, {"type": "note_off", "time": 481, "note": 66, "velocity": 111, "channel": 0}, {"type": "note_on", "time": 103, "note": 64, "velocity": 98, "channel": 0}, {"type": "note_off", "time": 68, "note": 64, "velocity": 98, "channel": 0}, {"type": "note_on", "time": 62, "note": 66, "velocity": 109, "channel": 0}, {"type": "note_off", "time": 356, "note": 66, "velocity": 109, "channel": 0}, {"type": "note_on", "time": 10, "note": 68, "velocity": 114, "channel": 0}, {"type": "note_off", "time": 163, "note": 68, "velocity": 114, "channel": 0}, {"type": "note_on", "time": 359, "note": 68, "velocity": 111, "channel": 0}, {"type": "note_off", "time": 789, "note": 68, "velocity": 111, "channel": 0}, {"type": "note_on", "time": 242, "note": 67, "velocity": 100, "channel": 0}, {"type": "note_off", "time": 100, "note": 67, "velocity": 100, "channel": 0}, {"type": "note_on", "time": 16, "note": 68, "velocity": 94, "channel": 0}, {"type": "note_off", "time": 43, "note": 68, "velocity": 94, "channel": 0}, {"type": "note_on", "time": 29, "note": 69, "velocity": 105, "channel": 0}, {"type": "note_off", "time": 57, "note": 69, "velocity": 105, "channel": 0}, {"type": "note_on", "time": 0, "note": 70, "velocity": 122, "channel": 0}, {"type": "note_off", "time": 819, "note": 70, "velocity": 122, "channel": 0}, {"type": "note_on", "time": 220, "note": 75, "velocity": 118, "channel": 0}, {"type": "note_off", "time": 182, "note": 75, "velocity": 118, "channel": 0}, {"type": "note_on", "time": 242, "note": 68, "velocity": 105, "channel": 0}, {"type": "note_off", "time": 111, "note": 68, "velocity": 105, "channel": 0}, {"type": "note_on", "time": 5, "note": 69, "velocity": 102, "channel": 0}, {"type": "note_off", "time": 225, "note": 69, "velocity": 102, "channel": 0}, {"type": "note_on", "time": 19, "note": 68, "velocity": 105, "channel": 0}, {"type": "note_off", "time": 225, "note": 68, "velocity": 105, "channel": 0}, {"type": "note_on", "time": 397, "note": 63, "velocity": 106, "channel": 0}, {"type": "note_off", "time": 111, "note": 63, "velocity": 106, "channel": 0}, {"type": "note_on", "time": 187, "note": 66, "velocity": 119, "channel": 0}, {"type": "note_off", "time": 144, "note": 66, "velocity": 119, "channel": 0}, {"type": "note_on", "time": 40, "note": 67, "velocity": 109, "channel": 0}, {"type": "note_off", "time": 402, "note": 67, "velocity": 109, "channel": 0}, {"type": "note_on", "time": 68, "note": 63, "velocity": 118, "channel": 0}, {"type": "note_off", "time": 250, "note": 63, "velocity": 118, "channel": 0}, {"type": "note_on", "time": 37, "note": 58, "velocity": 110, "channel": 0}, {"type": "note_off", "time": 922, "note": 58, "velocity": 110, "channel": 0}, {"type": "note_on", "time": 2342, "note": 68, "velocity": 120, "channel": 0}, {"type": "note_off", "time": 217, "note": 68, "velocity": 120, "channel": 0}, {"type": "note_on", "time": 117, "note": 67, "velocity": 114, "channel": 0}, {"type": "note_off", "time": 220, "note": 67, "velocity": 114, "channel": 0}, {"type": "note_on", "time": 245, "note": 63, "velocity": 103, "channel": 0}, {"type": "note_off", "time": 114, "note": 63, "velocity": 103, "channel": 0}, {"type": "note_on", "time": 5, "note": 65, "velocity": 116, "channel": 0}, {"type": "note_off", "time": 294, "note": 65, "velocity": 116, "channel": 0}, {"type": "note_on", "time": 106, "note": 64, "velocity": 116, "channel": 0}, {"type": "note_off", "time": 239, "note": 64, "velocity": 116, "channel": 0}, {"type": "note_on", "time": 0, "note": 67, "velocity": 113, "channel": 0}, {"type": "note_on", "time": 190, "note": 70, "velocity": 122, "channel": 0}, {"type": "note_off", "time": 0, "note": 67, "velocity": 113, "channel": 0}, {"type": "note_off", "time": 285, "note": 70, "velocity": 122, "channel": 0}, {"type": "note_on", "time": 106, "note": 73, "velocity": 117, "channel": 0}, {"type": "note_off", "time": 416, "note": 73, "velocity": 117, "channel": 0}, {"type": "note_on", "time": 57, "note": 71, "velocity": 115, "channel": 0}, {"type": "note_off", "time": 372, "note": 71, "velocity": 115, "channel": 0}, {"type": "note_on", "time": 217, "note": 72, "velocity": 102, "channel": 0}, {"type": "note_off", "time": 411, "note": 72, "velocity": 102, "channel": 0}, {"type": "note_on", "time": 10, "note": 78, "velocity": 119, "channel": 0}, {"type": "note_off", "time": 152, "note": 78, "velocity": 119, "channel": 0}, {"type": "note_on", "time": 5, "note": 74, "velocity": 106, "channel": 0}, {"type": "note_on", "time": 87, "note": 70, "velocity": 106, "channel": 0}, {"type": "note_off", "time": 0, "note": 74, "velocity": 106, "channel": 0}, {"type": "note_off", "time": 43, "note": 70, "velocity": 106, "channel": 0}, {"type": "note_on", "time": 0, "note": 65, "velocity": 115, "channel": 0}, {"type": "note_off", "time": 386, "note": 65, "velocity": 115, "channel": 0}, {"type": "note_on", "time": 144, "note": 67, "velocity": 118, "channel": 0}, {"type": "note_off", "time": 277, "note": 67, "velocity": 118, "channel": 0}, {"type": "note_on", "time": 100, "note": 68, "velocity": 117, "channel": 0}, {"type": "note_off", "time": 353, "note": 68, "velocity": 117, "channel": 0}, {"type": "note_on", "time": 70, "note": 70, "velocity": 116, "channel": 0}, {"type": "note_off", "time": 269, "note": 70, "velocity": 116, "channel": 0}, {"type": "note_on", "time": 149, "note": 72, "velocity": 114, "channel": 0}, {"type": "note_off", "time": 315, "note": 72, "velocity": 114, "channel": 0}, {"type": "note_on", "time": 136, "note": 75, "velocity": 117, "channel": 0}, {"type": "note_off", "time": 285, "note": 75, "velocity": 117, "channel": 0}, {"type": "note_on", "time": 302, "note": 73, "velocity": 111, "channel": 0}, {"type": "note_off", "time": 272, "note": 73, "velocity": 111, "channel": 0}, {"type": "note_on", "time": 8, "note": 74, "velocity": 118, "channel": 0}, {"type": "note_off", "time": 206, "note": 74, "velocity": 118, "channel": 0}, {"type": "note_on", "time": 209, "note": 70, "velocity": 114, "channel": 0}, {"type": "note_off", "time": 255, "note": 70, "velocity": 114, "channel": 0}, {"type": "note_on", "time": 217, "note": 74, "velocity": 119, "channel": 0}, {"type": "note_off", "time": 261, "note": 74, "velocity": 119, "channel": 0}, {"type": "note_on", "time": 204, "note": 70, "velocity": 112, "channel": 0}, {"type": "note_off", "time": 247, "note": 70, "velocity": 112, "channel": 0}, {"type": "note_on", "time": 10, "note": 72, "velocity": 118, "channel": 0}, {"type": "note_off", "time": 255, "note": 72, "velocity": 118, "channel": 0}, {"type": "note_on", "time": 250, "note": 68, "velocity": 116, "channel": 0}, {"type": "note_off", "time": 255, "note": 68, "velocity": 116, "channel": 0}, {"type": "note_on", "time": 212, "note": 72, "velocity": 124, "channel": 0}, {"type": "note_off", "time": 332, "note": 72, "velocity": 124, "channel": 0}, {"type": "note_on", "time": 239, "note": 68, "velocity": 111, "channel": 0}, {"type": "note_off", "time": 236, "note": 68, "velocity": 111, "channel": 0}, {"type": "note_on", "time": 19, "note": 70, "velocity": 120, "channel": 0}, {"type": "note_off", "time": 250, "note": 70, "velocity": 120, "channel": 0}, {"type": "note_on", "time": 620, "note": 68, "velocity": 119, "channel": 0}, {"type": "note_off", "time": 383, "note": 68, "velocity": 119, "channel": 0}, {"type": "note_on", "time": 95, "note": 68, "velocity": 107, "channel": 0}, {"type": "note_off", "time": 174, "note": 68, "velocity": 107, "channel": 0}, {"type": "note_on", "time": 62, "note": 67, "velocity": 112, "channel": 0}, {"type": "note_off", "time": 157, "note": 67, "velocity": 112, "channel": 0}, {"type": "note_on", "time": 40, "note": 65, "velocity": 119, "channel": 0}, {"type": "note_off", "time": 187, "note": 65, "velocity": 119, "channel": 0}, {"type": "note_on", "time": 133, "note": 64, "velocity": 115, "channel": 0}, {"type": "note_off", "time": 288, "note": 64, "velocity": 115, "channel": 0}, {"type": "note_on", "time": 242, "note": 67, "velocity": 122, "channel": 0}, {"type": "note_off", "time": 198, "note": 67, "velocity": 122, "channel": 0}, {"type": "note_on", "time": 138, "note": 65, "velocity": 110, "channel": 0}, {"type": "note_off", "time": 136, "note": 65, "velocity": 110, "channel": 0}, {"type": "note_on", "time": 68, "note": 58, "velocity": 103, "channel": 0}, {"type": "note_off", "time": 155, "note": 58, "velocity": 103, "channel": 0}, {"type": "note_on", "time": 24, "note": 57, "velocity": 96, "channel": 0}, {"type": "note_off", "time": 68, "note": 57, "velocity": 96, "channel": 0}, {"type": "note_on", "time": 5, "note": 63, "velocity": 111, "channel": 0}, {"type": "note_off", "time": 225, "note": 63, "velocity": 111, "channel": 0}, {"type": "note_on", "time": 136, "note": 62, "velocity": 110, "channel": 0}, {"type": "note_off", "time": 133, "note": 62, "velocity": 110, "channel": 0}, {"type": "note_on", "time": 111, "note": 65, "velocity": 108, "channel": 0}, {"type": "note_off", "time": 122, "note": 65, "velocity": 108, "channel": 0}, {"type": "note_on", "time": 13, "note": 68, "velocity": 118, "channel": 0}, {"type": "note_off", "time": 304, "note": 68, "velocity": 118, "channel": 0}, {"type": "note_on", "time": 212, "note": 71, "velocity": 120, "channel": 0}, {"type": "note_off", "time": 476, "note": 71, "velocity": 120, "channel": 0}, {"type": "note_on", "time": 21, "note": 70, "velocity": 122, "channel": 0}, {"type": "note_off", "time": 223, "note": 70, "velocity": 122, "channel": 0}, {"type": "note_on", "time": 76, "note": 64, "velocity": 107, "channel": 0}, {"type": "note_off", "time": 506, "note": 64, "velocity": 107, "channel": 0}, {"type": "note_on", "time": 106, "note": 61, "velocity": 107, "channel": 0}, {"type": "note_off", "time": 122, "note": 61, "velocity": 107, "channel": 0}, {"type": "note_on", "time": 5, "note": 60, "velocity": 116, "channel": 0}, {"type": "note_off", "time": 76, "note": 60, "velocity": 116, "channel": 0}, {"type": "note_on", "time": 0, "note": 63, "velocity": 108, "channel": 0}, {"type": "note_off", "time": 544, "note": 63, "velocity": 108, "channel": 0}, {"type": "note_on", "time": 84, "note": 63, "velocity": 104, "channel": 0}, {"type": "note_off", "time": 974, "note": 63, "velocity": 104, "channel": 0}, {"type": "note_on", "time": 117, "note": 63, "velocity": 119, "channel": 0}, {"type": "note_off", "time": 520, "note": 63, "velocity": 119, "channel": 0}, {"type": "end_of_track", "time": 0}]]}