{"ticks_per_beat": 192, "tracks": [[{"type": "track_name", "name": "Melody", "time": 0}, {"type": "set_tempo", "tempo": 243902, "time": 0}, {"type": "key_signature", "key": "C", "time": 0}, {"type": "time_signature", "numerator": 4, "denominator": 4, "clocks_per_click": 24, "notated_32nd_notes_per_beat": 8, "time": 0}, {"type": "note_on", "time": 2940, "note": 55, "velocity": 109, "channel": 0}, {"type": "note_off", "time": 144, "note": 55, "velocity": 109, "channel": 0}, {"type": "note_on", "time": 54, "note": 60, "velocity": 94, "channel": 0}, {"type": "note_off", "time": 363, "note": 60, "velocity": 94, "channel": 0}, {"type": "note_on", "time": 417, "note": 55, "velocity": 102, "channel": 0}, {"type": "note_off", "time": 146, "note": 55, "velocity": 102, "channel": 0}, {"type": "note_on", "time": 35, "note": 60, "velocity": 108, "channel": 0}, {"type": "note_off", "time": 117, "note": 60, "velocity": 108, "channel": 0}, {"type": "note_on", "time": 11, "note": 62, "velocity": 112, "channel": 0}, {"type": "note_off", "time": 53, "note": 62, "velocity": 112, "channel": 0}, {"type": "note_on", "time": 19, "note": 63, "velocity": 113, "channel": 0}, {"type": "note_off", "time": 61, "note": 63, "velocity": 113, "channel": 0}, {"type": "note_on", "time": 20, "note": 65, "velocity": 112, "channel": 0}, {"type": "note_off", "time": 43, "note": 65, "velocity": 112, "channel": 0}, {"type": "note_on", "time": 9, "note": 63, "velocity": 117, "channel": 0}, {"type": "note_off", "time": 51, "note": 63, "velocity": 117, "channel": 0}, {"type": "note_on", "time": 19, "note": 62, "velocity": 110, "channel": 0}, {"type": "note_off", "time": 109, "note": 62, "velocity": 110, "channel": 0}, {"type": "note_on", "time": 120, "note": 55, "velocity": 88, "channel": 0}, {"type": "note_off", "time": 356, "note": 55, "velocity": 88, "channel": 0}, {"type": "note_on", "time": 846, "note": 63, "velocity": 119, "channel": 0}, {"type": "note_off", "time": 116, "note": 63, "velocity": 119, "channel": 0}, {"type": "note_on", "time": 36, "note": 63, "velocity": 120, "channel": 0}, {"type": "note_off", "time": 149, "note": 63, "velocity": 120, "channel": 0}, {"type": "note_on", "time": 43, "note": 64, "velocity": 121, "channel": 0}, {"type": "note_off", "time": 125, "note": 64, "velocity": 121, "channel": 0}, {"type": "note_on", "time": 13, "note": 65, "velocity": 122, "channel": 0}, {"type": "note_off", "time": 127, "note": 65, "velocity": 122, "channel": 0}, {"type": "note_on", "time": 18, "note": 66, "velocity": 122, "channel": 0}, {"type": "note_off", "time": 237, "note": 66, "velocity": 122, "channel": 0}, {"type": "note_on", "time": 50, "note": 66, "velocity": 110, "channel": 0}, {"type": "note_off", "time": 22, "note": 66, "velocity": 110, "channel": 0}, {"type": "note_on", "time": 6, "note": 67, "velocity": 120, "channel": 0}, {"type": "note_off", "time": 322, "note": 67, "velocity": 120, "channel": 0}, {"type": "note_on", "time": 43, "note": 65, "velocity": 111, "channel": 0}, {"type": "note_off", "time": 102, "note": 65, "velocity": 111, "channel": 0}, {"type": "note_on", "time": 50, "note": 63, "velocity": 114, "channel": 0}, {"type": "note_off", "time": 77, "note": 63, "velocity": 114, "channel": 0}, {"type": "note_on", "time": 9, "note": 64, "velocity": 107, "channel": 0}, {"type": "note_off", "time": 265, "note": 64, "velocity": 107, "channel": 0}, {"type": "note_on", "time": 43, "note": 60, "velocity": 107, "channel": 0}, {"type": "note_off", "time": 88, "note": 60, "velocity": 107, "channel": 0}, {"type": "note_on", "time": 23, "note": 55, "velocity": 99, "channel": 0}, {"type": "note_off", "time": 62, "note": 55, "velocity": 99, "channel": 0}, {"type": "note_on", "time": 17, "note": 57, "velocity": 96, "channel": 0}, {"type": "note_off", "time": 41, "note": 57, "velocity": 96, "channel": 0}, {"type": "note_on", "time": 18, "note": 55, "velocity": 97, "channel": 0}, {"type": "note_off", "time": 50, "note": 55, "velocity": 97, "channel": 0}, {"type": "note_on", "time": 15, "note": 53, "velocity": 99, "channel": 0}, {"type": "note_off", "time": 41, "note": 53, "velocity": 99, "channel": 0}, {"type": "note_on", "time": 9, "note": 52, "velocity": 98, "channel": 0}, {"type": "note_off", "time": 139, "note": 52, "velocity": 98, "channel": 0}, {"type": "note_on", "time": 73, "note": 55, "velocity": 94, "channel": 0}, {"type": "note_off", "time": 105, "note": 55, "velocity": 94, "channel": 0}, {"type": "note_on", "time": 5, "note": 54, "velocity": 96, "channel": 0}, {"type": "note_off", "time": 69, "note": 54, "velocity": 96, "channel": 0}, {"type": "note_on", "time": 4, "note": 55, "velocity": 100, "channel": 0}, {"type": "note_off", "time": 107, "note": 55, "velocity": 100, "channel": 0}, {"type": "note_on", "time": 30, "note": 60, "velocity": 91, "channel": 0}, {"type": "note_off", "time": 273, "note": 60, "velocity": 91, "channel": 0}, {"type": "note_on", "time": 458, "note": 55, "velocity": 111, "channel": 0}, {"type": "note_off", "time": 75, "note": 55, "velocity": 111, "channel": 0}, {"type": "note_on", "time": 30, "note": 57, "velocity": 111, "channel": 0}, {"type": "note_off", "time": 74, "note": 57, "velocity": 111, "channel": 0}, {"type": "note_on", "time": 20, "note": 62, "velocity": 114, "channel": 0}, {"type": "note_off", "time": 74, "note": 62, "velocity": 114, "channel": 0}, {"type": "note_on", "time": 17, "note": 60, "velocity": 105, "channel": 0}, {"type": "note_off", "time": 247, "note": 60, "velocity": 105, "channel": 0}, {"type": "note_on", "time": 67, "note": 56, "velocity": 100, "channel": 0}, {"type": "note_off", "time": 47, "note": 56, "velocity": 100, "channel": 0}, {"type": "note_on", "time": 20, "note": 57, "velocity": 106, "channel": 0}, {"type": "note_off", "time": 89, "note": 57, "velocity": 106, "channel": 0}, {"type": "note_on", "time": 20, "note": 62, "velocity": 112, "channel": 0}, {"type": "note_off", "time": 76, "note": 62, "velocity": 112, "channel": 0}, {"type": "note_on", "time": 22, "note": 60, "velocity": 103, "channel": 0}, {"type": "note_off", "time": 93, "note": 60, "velocity": 103, "channel": 0}, {"type": "note_on", "time": 153, "note": 55, "velocity": 105, "channel": 0}, {"type": "note_off", "time": 98, "note": 55, "velocity": 105, "channel": 0}, {"type": "note_on", "time": 0, "note": 57, "velocity": 100, "channel": 0}, {"type": "note_off", "time": 115, "note": 57, "velocity": 100, "channel": 0}, {"type": "note_on", "time": 69, "note": 63, "velocity": 103, "channel": 0}, {"type": "note_off", "time": 197, "note": 63, "velocity": 103, "channel": 0}, {"type": "note_on", "time": 293, "note": 55, "velocity": 104, "channel": 0}, {"type": "note_off", "time": 75, "note": 55, "velocity": 104, "channel": 0}, {"type": "note_on", "time": 14, "note": 57, "velocity": 104, "channel": 0}, {"type": "note_off", "time": 117, "note": 57, "velocity": 104, "channel": 0}, {"type": "note_on", "time": 67, "note": 60, "velocity": 109, "channel": 0}, {"type": "note_off", "time": 113, "note": 60, "velocity": 109, "channel": 0}, {"type": "note_on", "time": 82, "note": 62, "velocity": 109, "channel": 0}, {"type": "note_off", "time": 147, "note": 62, "velocity": 109, "channel": 0}, {"type": "note_on", "time": 31, "note": 63, "velocity": 111, "channel": 0}, {"type": "note_off", "time": 309, "note": 63, "velocity": 111, "channel": 0}, {"type": "note_on", "time": 19, "note": 62, "velocity": 111, "channel": 0}, {"type": "note_off", "time": 74, "note": 62, "velocity": 111, "channel": 0}, {"type": "note_on", "time": 21, "note": 60, "velocity": 110, "channel": 0}, {"type": "note_off", "time": 90, "note": 60, "velocity": 110, "channel": 0}, {"type": "note_on", "time": 22, "note": 55, "velocity": 103, "channel": 0}, {"type": "note_off", "time": 61, "note": 55, "velocity": 103, "channel": 0}, {"type": "note_on", "time": 22, "note": 51, "velocity": 105, "channel": 0}, {"type": "note_off", "time": 86, "note": 51, "velocity": 105, "channel": 0}, {"type": "note_on", "time": 17, "note": 52, "velocity": 104, "channel": 0}, {"type": "note_off", "time": 81, "note": 52, "velocity": 104, "channel": 0}, {"type": "note_on", "time": 9, "note": 53, "velocity": 105, "channel": 0}, {"type": "note_off", "time": 99, "note": 53, "velocity": 105, "channel": 0}, {"type": "note_on", "time": 17, "note": 55, "velocity": 105, "channel": 0}, {"type": "note_off", "time": 127, "note": 55, "velocity": 105, "channel": 0}, {"type": "note_on", "time": 73, "note": 55, "velocity": 91, "channel": 0}, {"type": "note_off", "time": 374, "note": 55, "velocity": 91, "channel": 0}, {"type": "note_on", "time": 9, "note": 52, "velocity": 109, "channel": 0}, {"type": "note_off", "time": 74, "note": 52, "velocity": 109, "channel": 0}, {"type": "note_on", "time": 5, "note": 53, "velocity": 106, "channel": 0}, {"type": "note_off", "time": 65, "note": 53, "velocity": 106, "channel": 0}, {"type": "note_on", "time": 7, "note": 55, "velocity": 101, "channel": 0}, {"type": "note_off", "time": 43, "note": 55, "velocity": 101, "channel": 0}, {"type": "note_on", "time": 9, "note": 53, "velocity": 103, "channel": 0}, {"type": "note_off", "time": 59, "note": 53, "velocity": 103, "channel": 0}, {"type": "note_on", "time": 15, "note": 51, "velocity": 100, "channel": 0}, {"type": "note_off", "time": 68, "note": 51, "velocity": 100, "channel": 0}, {"type": "note_on", "time": 0, "note": 52, "velocity": 102, "channel": 0}, {"type": "note_off", "time": 93, "note": 52, "velocity": 102, "channel": 0}, {"type": "note_on", "time": 27, "note": 55, "velocity": 107, "channel": 0}, {"type": "note_off", "time": 121, "note": 55, "velocity": 107, "channel": 0}, {"type": "note_on", "time": 13, "note": 60, "velocity": 97, "channel": 0}, {"type": "note_off", "time": 219, "note": 60, "velocity": 97, "channel": 0}, {"type": "note_on", "time": 28, "note": 57, "velocity": 106, "channel": 0}, {"type": "note_off", "time": 115, "note": 57, "velocity": 106, "channel": 0}, {"type": "note_on", "time": 930, "note": 52, "velocity": 112, "channel": 0}, {"type": "note_off", "time": 73, "note": 52, "velocity": 112, "channel": 0}, {"type": "note_on", "time": 30, "note": 55, "velocity": 118, "channel": 0}, {"type": "note_off", "time": 89, "note": 55, "velocity": 118, "channel": 0}, {"type": "note_on", "time": 14, "note": 58, "velocity": 113, "channel": 0}, {"type": "note_off", "time": 67, "note": 58, "velocity": 113, "channel": 0}, {"type": "note_on", "time": 11, "note": 62, "velocity": 121, "channel": 0}, {"type": "note_off", "time": 70, "note": 62, "velocity": 121, "channel": 0}, {"type": "note_on", "time": 22, "note": 63, "velocity": 118, "channel": 0}, {"type": "note_off", "time": 85, "note": 63, "velocity": 118, "channel": 0}, {"type": "note_on", "time": 4, "note": 64, "velocity": 125, "channel": 0}, {"type": "note_off", "time": 61, "note": 64, "velocity": 125, "channel": 0}, {"type": "note_on", "time": 18, "note": 66, "velocity": 121, "channel": 0}, {"type": "note_off", "time": 45, "note": 66, "velocity": 121, "channel": 0}, {"type": "note_on", "time": 7, "note": 65, "velocity": 123, "channel": 0}, {"type": "note_off", "time": 63, "note": 65, "velocity": 123, "channel": 0}, {"type": "note_on", "time": 14, "note": 64, "velocity": 115, "channel": 0}, {"type": "note_off", "time": 81, "note": 64, "velocity": 115, "channel": 0}, {"type": "note_on", "time": 15, "note": 62, "velocity": 115, "channel": 0}, {"type": "note_off", "time": 78, "note": 62, "velocity": 115, "channel": 0}, {"type": "note_on", "time": 12, "note": 58, "velocity": 105, "channel": 0}, {"type": "note_off", "time": 71, "note": 58, "velocity": 105, "channel": 0}, {"type": "note_on", "time": 18, "note": 55, "velocity": 105, "channel": 0}, {"type": "note_off", "time": 68, "note": 55, "velocity": 105, "channel": 0}, {"type": "note_on", "time": 38, "note": 50, "velocity": 89, "channel": 0}, {"type": "note_off", "time": 420, "note": 50, "velocity": 89, "channel": 0}, {"type": "note_on", "time": 30, "note": 52, "velocity": 105, "channel": 0}, {"type": "note_off", "time": 108, "note": 52, "velocity": 105, "channel": 0}, {"type": "note_on", "time": 19, "note": 55, "velocity": 105, "channel": 0}, {"type": "note_off", "time": 114, "note": 55, "velocity": 105, "channel": 0}, {"type": "note_on", "time": 1, "note": 52, "velocity": 102, "channel": 0}, {"type": "note_off", "time": 91, "note": 52, "velocity": 102, "channel": 0}, {"type": "note_on", "time": 31, "note": 53, "velocity": 96, "channel": 0}, {"type": "note_off", "time": 132, "note": 53, "velocity": 96, "channel": 0}, {"type": "note_on", "time": 20, "note": 50, "velocity": 104, "channel": 0}, {"type": "note_off", "time": 99, "note": 50, "velocity": 104, "channel": 0}, {"type": "note_on", "time": 26, "note": 52, "velocity": 101, "channel": 0}, {"type": "note_off", "time": 75, "note": 52, "velocity": 101, "channel": 0}, {"type": "note_on", "time": 12, "note": 53, "velocity": 99, "channel": 0}, {"type": "note_off", "time": 130, "note": 53, "velocity": 99, "channel": 0}, {"type": "note_on", "time": 46, "note": 57, "velocity": 102, "channel": 0}, {"type": "note_off", "time": 115, "note": 57, "velocity": 102, "channel": 0}, {"type": "note_on", "time": 18, "note": 60, "velocity": 101, "channel": 0}, {"type": "note_off", "time": 249, "note": 60, "velocity": 101, "channel": 0}, {"type": "note_on", "time": 11, "note": 65, "velocity": 100, "channel": 0}, {"type": "note_off", "time": 167, "note": 65, "velocity": 100, "channel": 0}, {"type": "note_on", "time": 547, "note": 63, "velocity": 116, "channel": 0}, {"type": "note_off", "time": 65, "note": 63, "velocity": 116, "channel": 0}, {"type": "note_on", "time": 11, "note": 65, "velocity": 112, "channel": 0}, {"type": "note_off", "time": 376, "note": 65, "velocity": 112, "channel": 0}, {"type": "note_on", "time": 42, "note": 70, "velocity": 114, "channel": 0}, {"type": "note_off", "time": 271, "note": 70, "velocity": 114, "channel": 0}, {"type": "note_on", "time": 19, "note": 65, "velocity": 113, "channel": 0}, {"type": "note_off", "time": 74, "note": 65, "velocity": 113, "channel": 0}, {"type": "note_on", "time": 14, "note": 62, "velocity": 112, "channel": 0}, {"type": "note_off", "time": 82, "note": 62, "velocity": 112, "channel": 0}, {"type": "note_on", "time": 11, "note": 58, "velocity": 98, "channel": 0}, {"type": "note_off", "time": 74, "note": 58, "velocity": 98, "channel": 0}, {"type": "note_on", "time": 21, "note": 53, "velocity": 96, "channel": 0}, {"type": "note_off", "time": 113, "note": 53, "velocity": 96, "channel": 0}, {"type": "note_on", "time": 45, "note": 51, "velocity": 101, "channel": 0}, {"type": "note_off", "time": 151, "note": 51, "velocity": 101, "channel": 0}, {"type": "note_on", "time": 23, "note": 56, "velocity": 104, "channel": 0}, {"type": "note_off", "time": 156, "note": 56, "velocity": 104, "channel": 0}, {"type": "note_on", "time": 9, "note": 55, "velocity": 102, "channel": 0}, {"type": "note_off", "time": 43, "note": 55, "velocity": 102, "channel": 0}, {"type": "note_on", "time": 13, "note": 56, "velocity": 94, "channel": 0}, {"type": "note_off", "time": 192, "note": 56, "velocity": 94, "channel": 0}, {"type": "note_on", "time": 0, "note": 51, "velocity": 101, "channel": 0}, {"type": "note_off", "time": 101, "note": 51, "velocity": 101, "channel": 0}, {"type": "note_on", "time": 24, "note": 52, "velocity": 101, "channel": 0}, {"type": "note_off", "time": 94, "note": 52, "velocity": 101, "channel": 0}, {"type": "note_on", "time": 28, "note": 55, "velocity": 99, "channel": 0}, {"type": "note_off", "time": 1069, "note": 55, "velocity": 99, "channel": 0}, {"type": "note_on", "time": 25, "note": 60, "velocity": 110, "channel": 0}, {"type": "note_off", "time": 111, "note": 60, "velocity": 110, "channel": 0}, {"type": "note_on", "time": 567, "note": 60, "velocity": 111, "channel": 0}, {"type": "note_off", "time": 303, "note": 60, "velocity": 111, "channel": 0}, {"type": "note_on", "time": 70, "note": 60, "velocity": 106, "channel": 0}, {"type": "note_off", "time": 322, "note": 60, "velocity": 106, "channel": 0}, {"type": "note_on", "time": 8, "note": 57, "velocity": 95, "channel": 0}, {"type": "note_off", "time": 89, "note": 57, "velocity": 95, "channel": 0}, {"type": "note_on", "time": 73, "note": 62, "velocity": 106, "channel": 0}, {"type": "note_off", "time": 130, "note": 62, "velocity": 106, "channel": 0}, {"type": "note_on", "time": 40, "note": 59, "velocity": 94, "channel": 0}, {"type": "note_off", "time": 117, "note": 59, "velocity": 94, "channel": 0}, {"type": "note_on", "time": 102, "note": 60, "velocity": 99, "channel": 0}, {"type": "note_off", "time": 292, "note": 60, "velocity": 99, "channel": 0}, {"type": "note_on", "time": 32, "note": 59, "velocity": 89, "channel": 0}, {"type": "note_off", "time": 220, "note": 59, "velocity": 89, "channel": 0}, {"type": "note_on", "time": 35, "note": 60, "velocity": 100, "channel": 0}, {"type": "note_off", "time": 393, "note": 60, "velocity": 100, "channel": 0}, {"type": "note_on", "time": 64, "note": 57, "velocity": 101, "channel": 0}, {"type": "note_off", "time": 85, "note": 57, "velocity": 101, "channel": 0}, {"type": "note_on", "time": 17, "note": 59, "velocity": 102, "channel": 0}, {"type": "note_off", "time": 160, "note": 59, "velocity": 102, "channel": 0}, {"type": "note_on", "time": 26, "note": 55, "velocity": 90, "channel": 0}, {"type": "note_off", "time": 112, "note": 55, "velocity": 90, "channel": 0}, {"type": "note_on", "time": 23, "note": 57, "velocity": 96, "channel": 0}, {"type": "note_off", "time": 330, "note": 57, "velocity": 96, "channel": 0}, {"type": "note_on", "time": 17, "note": 55, "velocity": 83, "channel": 0}, {"type": "note_off", "time": 91, "note": 55, "velocity": 83, "channel": 0}, {"type": "note_on", "time": 6, "note": 58, "velocity": 106, "channel": 0}, {"type": "note_off", "time": 151, "note": 58, "velocity": 106, "channel": 0}, {"type": "note_on", "time": 35, "note": 55, "velocity": 100, "channel": 0}, {"type": "note_off", "time": 86, "note": 55, "velocity": 100, "channel": 0}, {"type": "note_on", "time": 24, "note": 56, "velocity": 103, "channel": 0}, {"type": "note_off", "time": 245, "note": 56, "velocity": 103, "channel": 0}, {"type": "note_on", "time": 41, "note": 52, "velocity": 99, "channel": 0}, {"type": "note_off", "time": 136, "note": 52, "velocity": 99, "channel": 0}, {"type": "note_on", "time": 27, "note": 55, "velocity": 95, "channel": 0}, {"type": "note_off", "time": 377, "note": 55, "velocity": 95, "channel": 0}, {"type": "note_on", "time": 557, "note": 63, "velocity": 118, "channel": 0}, {"type": "note_off", "time": 96, "note": 63, "velocity": 118, "channel": 0}, {"type": "note_on", "time": 8, "note": 64, "velocity": 117, "channel": 0}, {"type": "note_off", "time": 54, "note": 64, "velocity": 117, "channel": 0}, {"type": "note_on", "time": 17, "note": 65, "velocity": 123, "channel": 0}, {"type": "note_off", "time": 96, "note": 65, "velocity": 123, "channel": 0}, {"type": "note_on", "time": 16, "note": 66, "velocity": 124, "channel": 0}, {"type": "note_off", "time": 64, "note": 66, "velocity": 124, "channel": 0}, {"type": "note_on", "time": 12, "note": 67, "velocity": 126, "channel": 0}, {"type": "note_off", "time": 247, "note": 67, "velocity": 126, "channel": 0}, {"type": "note_on", "time": 599, "note": 62, "velocity": 113, "channel": 0}, {"type": "note_off", "time": 51, "note": 62, "velocity": 113, "channel": 0}, {"type": "note_on", "time": 14, "note": 63, "velocity": 120, "channel": 0}, {"type": "note_off", "time": 65, "note": 63, "velocity": 120, "channel": 0}, {"type": "note_on", "time": 9, "note": 64, "velocity": 121, "channel": 0}, {"type": "note_off", "time": 144, "note": 64, "velocity": 121, "channel": 0}, {"type": "note_on", "time": 1, "note": 65, "velocity": 121, "channel": 0}, {"type": "note_off", "time": 57, "note": 65, "velocity": 121, "channel": 0}, {"type": "note_on", "time": 12, "note": 66, "velocity": 118, "channel": 0}, {"type": "note_off", "time": 56, "note": 66, "velocity": 118, "channel": 0}, {"type": "note_on", "time": 24, "note": 67, "velocity": 120, "channel": 0}, {"type": "note_off", "time": 295, "note": 67, "velocity": 120, "channel": 0}, {"type": "note_on", "time": 25, "note": 68, "velocity": 109, "channel": 0}, {"type": "note_off", "time": 62, "note": 68, "velocity": 109, "channel": 0}, {"type": "note_on", "time": 30, "note": 67, "velocity": 112, "channel": 0}, {"type": "note_off", "time": 302, "note": 67, "velocity": 112, "channel": 0}, {"type": "note_on", "time": 19, "note": 66, "velocity": 107, "channel": 0}, {"type": "note_off", "time": 59, "note": 66, "velocity": 107, "channel": 0}, {"type": "note_on", "time": 16, "note": 67, "velocity": 110, "channel": 0}, {"type": "note_off", "time": 297, "note": 67, "velocity": 110, "channel": 0}, {"type": "note_on", "time": 16, "note": 65, "velocity": 112, "channel": 0}, {"type": "note_off", "time": 53, "note": 65, "velocity": 112, "channel": 0}, {"type": "note_on", "time": 19, "note": 63, "velocity": 110, "channel": 0}, {"type": "note_off", "time": 69, "note": 63, "velocity": 110, "channel": 0}, {"type": "note_on", "time": 11, "note": 64, "velocity": 106, "channel": 0}, {"type": "note_off", "time": 274, "note": 64, "velocity": 106, "channel": 0}, {"type": "note_on", "time": 54, "note": 60, "velocity": 106, "channel": 0}, {"type": "note_off", "time": 73, "note": 60, "velocity": 106, "channel": 0}, {"type": "note_on", "time": 16, "note": 55, "velocity": 100, "channel": 0}, {"type": "note_off", "time": 67, "note": 55, "velocity": 100, "channel": 0}, {"type": "note_on", "time": 22, "note": 51, "velocity": 95, "channel": 0}, {"type": "note_off", "time": 96, "note": 51, "velocity": 95, "channel": 0}, {"type": "note_on", "time": 12, "note": 52, "velocity": 99, "channel": 0}, {"type": "note_off", "time": 85, "note": 52, "velocity": 99, "channel": 0}, {"type": "note_on", "time": 12, "note": 53, "velocity": 99, "channel": 0}, {"type": "note_off", "time": 120, "note": 53, "velocity": 99, "channel": 0}, {"type": "note_on", "time": 24, "note": 55, "velocity": 96, "channel": 0}, {"type": "note_off", "time": 467, "note": 55, "velocity": 96, "channel": 0}, {"type": "note_on", "time": 19, "note": 52, "velocity": 99, "channel": 0}, {"type": "note_off", "time": 81, "note": 52, "velocity": 99, "channel": 0}, {"type": "note_on", "time": 11, "note": 53, "velocity": 101, "channel": 0}, {"type": "note_off", "time": 77, "note": 53, "velocity": 101, "channel": 0}, {"type": "note_on", "time": 11, "note": 52, "velocity": 104, "channel": 0}, {"type": "note_off", "time": 67, "note": 52, "velocity": 104, "channel": 0}, {"type": "note_on", "time": 17, "note": 51, "velocity": 101, "channel": 0}, {"type": "note_off", "time": 66, "note": 51, "velocity": 101, "channel": 0}, {"type": "note_on", "time": 11, "note": 50, "velocity": 106, "channel": 0}, {"type": "note_off", "time": 78, "note": 50, "velocity": 106, "channel": 0}, {"type": "note_on", "time": 14, "note": 55, "velocity": 106, "channel": 0}, {"type": "note_off", "time": 125, "note": 55, "velocity": 106, "channel": 0}, {"type": "note_on", "time": 0, "note": 60, "velocity": 102, "channel": 0}, {"type": "note_off", "time": 134, "note": 60, "velocity": 102, "channel": 0}, {"type": "note_on", "time": 20, "note": 60, "velocity": 101, "channel": 0}, {"type": "note_off", "time": 351, "note": 60, "velocity": 101, "channel": 0}, {"type": "note_on", "time": 893, "note": 74, "velocity": 109, "channel": 0}, {"type": "note_off", "time": 73, "note": 74, "velocity": 109, "channel": 0}, {"type": "note_on", "time": 6, "note": 75, "velocity": 124, "channel": 0}, {"type": "note_off", "time": 896, "note": 75, "velocity": 124, "channel": 0}, {"type": "note_on", "time": 32, "note": 72, "velocity": 115, "channel": 0}, {"type": "note_off", "time": 706, "note": 72, "velocity": 115, "channel": 0}, {"type": "note_on", "time": 89, "note": 70, "velocity": 127, "channel": 0}, {"type": "note_off", "time": 404, "note": 70, "velocity": 127, "channel": 0}, {"type": "note_on", "time": 35, "note": 67, "velocity": 106, "channel": 0}, {"type": "note_off", "time": 144, "note": 67, "velocity": 106, "channel": 0}, {"type": "note_on", "time": 138, "note": 65, "velocity": 117, "channel": 0}, {"type": "note_off", "time": 109, "note": 65, "velocity": 117, "channel": 0}, {"type": "note_on", "time": 17, "note": 63, "velocity": 112, "channel": 0}, {"type": "note_off", "time": 261, "note": 63, "velocity": 112, "channel": 0}, {"type": "note_on", "time": 17, "note": 60, "velocity": 106, "channel": 0}, {"type": "note_off", "time": 351, "note": 60, "velocity": 106, "channel": 0}, {"type": "note_on", "time": 41, "note": 58, "velocity": 99, "channel": 0}, {"type": "note_off", "time": 64, "note": 58, "velocity": 99, "channel": 0}, {"type": "note_on", "time": 12, "note": 55, "velocity": 99, "channel": 0}, {"type": "note_off", "time": 65, "note": 55, "velocity": 99, "channel": 0}, {"type": "note_on", "time": 11, "note": 53, "velocity": 99, "channel": 0}, {"type": "note_off", "time": 51, "note": 53, "velocity": 99, "channel": 0}, {"type": "note_on", "time": 9, "note": 52, "velocity": 100, "channel": 0}, {"type": "note_off", "time": 85, "note": 52, "velocity": 100, "channel": 0}, {"type": "note_on", "time": 8, "note": 53, "velocity": 99, "channel": 0}, {"type": "note_off", "time": 97, "note": 53, "velocity": 99, "channel": 0}, {"type": "note_on", "time": 3, "note": 53, "velocity": 99, "channel": 0}, {"type": "note_off", "time": 91, "note": 53, "velocity": 99, "channel": 0}, {"type": "note_on", "time": 11, "note": 54, "velocity": 97, "channel": 0}, {"type": "note_off", "time": 109, "note": 54, "velocity": 97, "channel": 0}, {"type": "note_on", "time": 6, "note": 55, "velocity": 96, "channel": 0}, {"type": "note_off", "time": 261, "note": 55, "velocity": 96, "channel": 0}, {"type": "note_on", "time": 28, "note": 52, "velocity": 102, "channel": 0}, {"type": "note_off", "time": 97, "note": 52, "velocity": 102, "channel": 0}, {"type": "note_on", "time": 11, "note": 53, "velocity": 98, "channel": 0}, {"type": "note_off", "time": 86, "note": 53, "velocity": 98, "channel": 0}, {"type": "note_on", "time": 19, "note": 52, "velocity": 99, "channel": 0}, {"type": "note_off", "time": 142, "note": 52, "velocity": 99, "channel": 0}, {"type": "note_on", "time": 0, "note": 53, "velocity": 100, "channel": 0}, {"type": "note_off", "time": 99, "note": 53, "velocity": 100, "channel": 0}, {"type": "note_on", "time": 28, "note": 55, "velocity": 99, "channel": 0}, {"type": "note_off", "time": 67, "note": 55, "velocity": 99, "channel": 0}, {"type": "note_on", "time": 0, "note": 60, "velocity": 108, "channel": 0}, {"type": "note_off", "time": 85, "note": 60, "velocity": 108, "channel": 0}, {"type": "note_on", "time": 751, "note": 60, "velocity": 116, "channel": 0}, {"type": "note_off", "time": 88, "note": 60, "velocity": 116, "channel": 0}, {"type": "note_on", "time": 16, "note": 63, "velocity": 116, "channel": 0}, {"type": "note_off", "time": 65, "note": 63, "velocity": 116, "channel": 0}, {"type": "note_on", "time": 6, "note": 64, "velocity": 121, "channel": 0}, {"type": "note_off", "time": 48, "note": 64, "velocity": 121, "channel": 0}, {"type": "note_on", "time": 17, "note": 67, "velocity": 118, "channel": 0}, {"type": "note_off", "time": 36, "note": 67, "velocity": 118, "channel": 0}, {"type": "note_on", "time": 9, "note": 68, "velocity": 116, "channel": 0}, {"type": "note_off", "time": 46, "note": 68, "velocity": 116, "channel": 0}, {"type": "note_on", "time": 9, "note": 70, "velocity": 118, "channel": 0}, {"type": "note_off", "time": 72, "note": 70, "velocity": 118, "channel": 0}, {"type": "note_on", "time": 4, "note": 71, "velocity": 117, "channel": 0}, {"type": "note_off", "time": 40, "note": 71, "velocity": 117, "channel": 0}, {"type": "note_on", "time": 9, "note": 72, "velocity": 126, "channel": 0}, {"type": "note_off", "time": 216, "note": 72, "velocity": 126, "channel": 0}, {"type": "note_on", "time": 20, "note": 70, "velocity": 109, "channel": 0}, {"type": "note_off", "time": 321, "note": 70, "velocity": 109, "channel": 0}, {"type": "note_on", "time": 56, "note": 62, "velocity": 107, "channel": 0}, {"type": "note_off", "time": 55, "note": 62, "velocity": 107, "channel": 0}, {"type": "note_on", "time": 13, "note": 63, "velocity": 112, "channel": 0}, {"type": "note_off", "time": 59, "note": 63, "velocity": 112, "channel": 0}, {"type": "note_on", "time": 7, "note": 64, "velocity": 113, "channel": 0}, {"type": "note_off", "time": 65, "note": 64, "velocity": 113, "channel": 0}, {"type": "note_on", "time": 13, "note": 69, "velocity": 98, "channel": 0}, {"type": "note_off", "time": 19, "note": 69, "velocity": 98, "channel": 0}, {"type": "note_on", "time": 10, "note": 71, "velocity": 107, "channel": 0}, {"type": "note_off", "time": 18, "note": 71, "velocity": 107, "channel": 0}, {"type": "note_on", "time": 6, "note": 72, "velocity": 118, "channel": 0}, {"type": "note_off", "time": 115, "note": 72, "velocity": 118, "channel": 0}, {"type": "note_on", "time": 20, "note": 69, "velocity": 113, "channel": 0}, {"type": "note_off", "time": 211, "note": 69, "velocity": 113, "channel": 0}, {"type": "note_on", "time": 153, "note": 64, "velocity": 108, "channel": 0}, {"type": "note_off", "time": 95, "note": 64, "velocity": 108, "channel": 0}, {"type": "note_on", "time": 18, "note": 67, "velocity": 109, "channel": 0}, {"type": "note_off", "time": 85, "note": 67, "velocity": 109, "channel": 0}, {"type": "note_on", "time": 5, "note": 64, "velocity": 105, "channel": 0}, {"type": "note_off", "time": 77, "note": 64, "velocity": 105, "channel": 0}, {"type": "note_on", "time": 14, "note": 65, "velocity": 110, "channel": 0}, {"type": "note_off", "time": 76, "note": 65, "velocity": 110, "channel": 0}, {"type": "note_on", "time": 27, "note": 65, "velocity": 108, "channel": 0}, {"type": "note_off", "time": 66, "note": 65, "velocity": 108, "channel": 0}, {"type": "note_on", "time": 11, "note": 62, "velocity": 108, "channel": 0}, {"type": "note_off", "time": 91, "note": 62, "velocity": 108, "channel": 0}, {"type": "note_on", "time": 6, "note": 64, "velocity": 104, "channel": 0}, {"type": "note_off", "time": 57, "note": 64, "velocity": 104, "channel": 0}, {"type": "note_on", "time": 15, "note": 65, "velocity": 106, "channel": 0}, {"type": "note_off", "time": 77, "note": 65, "velocity": 106, "channel": 0}, {"type": "note_on", "time": 4, "note": 67, "velocity": 107, "channel": 0}, {"type": "note_off", "time": 110, "note": 67, "velocity": 107, "channel": 0}, {"type": "note_on", "time": 22, "note": 64, "velocity": 101, "channel": 0}, {"type": "note_off", "time": 371, "note": 64, "velocity": 101, "channel": 0}, {"type": "note_on", "time": 9, "note": 65, "velocity": 100, "channel": 0}, {"type": "note_off", "time": 164, "note": 65, "velocity": 100, "channel": 0}, {"type": "note_on", "time": 415, "note": 46, "velocity": 103, "channel": 0}, {"type": "note_off", "time": 109, "note": 46, "velocity": 103, "channel": 0}, {"type": "note_on", "time": 14, "note": 53, "velocity": 101, "channel": 0}, {"type": "note_off", "time": 98, "note": 53, "velocity": 101, "channel": 0}, {"type": "note_on", "time": 6, "note": 58, "velocity": 99, "channel": 0}, {"type": "note_off", "time": 85, "note": 58, "velocity": 99, "channel": 0}, {"type": "note_on", "time": 9, "note": 59, "velocity": 103, "channel": 0}, {"type": "note_off", "time": 77, "note": 59, "velocity": 103, "channel": 0}, {"type": "note_on", "time": 118, "note": 58, "velocity": 101, "channel": 0}, {"type": "note_off", "time": 265, "note": 58, "velocity": 101, "channel": 0}, {"type": "note_on", "time": 106, "note": 49, "velocity": 99, "channel": 0}, {"type": "note_off", "time": 69, "note": 49, "velocity": 99, "channel": 0}, {"type": "note_on", "time": 29, "note": 53, "velocity": 99, "channel": 0}, {"type": "note_off", "time": 117, "note": 53, "velocity": 99, "channel": 0}, {"type": "note_on", "time": 43, "note": 56, "velocity": 99, "channel": 0}, {"type": "note_off", "time": 94, "note": 56, "velocity": 99, "channel": 0}, {"type": "note_on", "time": 335, "note": 44, "velocity": 108, "channel": 0}, {"type": "note_off", "time": 84, "note": 44, "velocity": 108, "channel": 0}, {"type": "note_on", "time": 17, "note": 48, "velocity": 109, "channel": 0}, {"type": "note_off", "time": 23, "note": 48, "velocity": 109, "channel": 0}, {"type": "note_on", "time": 12, "note": 50, "velocity": 90, "channel": 0}, {"type": "note_off", "time": 39, "note": 50, "velocity": 90, "channel": 0}, {"type": "note_on", "time": 10, "note": 51, "velocity": 99, "channel": 0}, {"type": "note_off", "time": 81, "note": 51, "velocity": 99, "channel": 0}, {"type": "note_on", "time": 26, "note": 53, "velocity": 103, "channel": 0}, {"type": "note_off", "time": 33, "note": 53, "velocity": 103, "channel": 0}, {"type": "note_on", "time": 11, "note": 54, "velocity": 106, "channel": 0}, {"type": "note_off", "time": 44, "note": 54, "velocity": 106, "channel": 0}, {"type": "note_on", "time": 4, "note": 55, "velocity": 108, "channel": 0}, {"type": "note_off", "time": 15, "note": 55, "velocity": 108, "channel": 0}, {"type": "note_on", "time": 9, "note": 56, "velocity": 114, "channel": 0}, {"type": "note_off", "time": 260, "note": 56, "velocity": 114, "channel": 0}, {"type": "note_on", "time": 22, "note": 50, "velocity": 103, "channel": 0}, {"type": "note_off", "time": 75, "note": 50, "velocity": 103, "channel": 0}, {"type": "note_on", "time": 35, "note": 55, "velocity": 106, "channel": 0}, {"type": "note_off", "time": 483, "note": 55, "velocity": 106, "channel": 0}, {"type": "note_on", "time": 12, "note": 57, "velocity": 100, "channel": 0}, {"type": "note_off", "time": 314, "note": 57, "velocity": 100, "channel": 0}, {"type": "note_on", "time": 25, "note": 55, "velocity": 97, "channel": 0}, {"type": "note_off", "time": 48, "note": 55, "velocity": 97, "channel": 0}, {"type": "note_on", "time": 32, "note": 62, "velocity": 103, "channel": 0}, {"type": "note_off", "time": 167, "note": 62, "velocity": 103, "channel": 0}, {"type": "note_on", "time": 224, "note": 62, "velocity": 103, "channel": 0}, {"type": "note_off", "time": 263, "note": 62, "velocity": 103, "channel": 0}, {"type": "note_on", "time": 14, "note": 60, "velocity": 101, "channel": 0}, {"type": "note_off", "time": 91, "note": 60, "velocity": 101, "channel": 0}, {"type": "note_on", "time": 14, "note": 62, "velocity": 108, "channel": 0}, {"type": "note_off", "time": 236, "note": 62, "velocity": 108, "channel": 0}, {"type": "note_on", "time": 22, "note": 60, "velocity": 103, "channel": 0}, {"type": "note_off", "time": 99, "note": 60, "velocity": 103, "channel": 0}, {"type": "note_on", "time": 30, "note": 64, "velocity": 10, "channel": 0}, {"type": "note_off", "time": 117, "note": 64, "velocity": 10, "channel": 0}, {"type": "note_on", "time": 20, "note": 63, "velocity": 118, "channel": 0}, {"type": "note_off", "time": 59, "note": 63, "velocity": 118, "channel": 0}, {"type": "note_on", "time": 22, "note": 64, "velocity": 124, "channel": 0}, {"type": "note_off", "time": 93, "note": 64, "velocity": 124, "channel": 0}, {"type": "note_on", "time": 9, "note": 63, "velocity": 120, "channel": 0}, {"type": "note_off", "time": 51, "note": 63, "velocity": 120, "channel": 0}, {"type": "note_on", "time": 14, "note": 60, "velocity": 119, "channel": 0}, {"type": "note_off", "time": 93, "note": 60, "velocity": 119, "channel": 0}, {"type": "note_on", "time": 41, "note": 57, "velocity": 110, "channel": 0}, {"type": "note_off", "time": 25, "note": 57, "velocity": 110, "channel": 0}, {"type": "note_on", "time": 22, "note": 53, "velocity": 112, "channel": 0}, {"type": "note_off", "time": 99, "note": 53, "velocity": 112, "channel": 0}, {"type": "note_on", "time": 19, "note": 52, "velocity": 107, "channel": 0}, {"type": "note_off", "time": 86, "note": 52, "velocity": 107, "channel": 0}, {"type": "note_on", "time": 6, "note": 55, "velocity": 108, "channel": 0}, {"type": "note_off", "time": 265, "note": 55, "velocity": 108, "channel": 0}, {"type": "note_on", "time": 12, "note": 52, "velocity": 109, "channel": 0}, {"type": "note_off", "time": 72, "note": 52, "velocity": 109, "channel": 0}, {"type": "note_on", "time": 14, "note": 53, "velocity": 109, "channel": 0}, {"type": "note_off", "time": 93, "note": 53, "velocity": 109, "channel": 0}, {"type": "note_on", "time": 213, "note": 53, "velocity": 106, "channel": 0}, {"type": "note_off", "time": 78, "note": 53, "velocity": 106, "channel": 0}, {"type": "note_on", "time": 24, "note": 55, "velocity": 114, "channel": 0}, {"type": "note_off", "time": 104, "note": 55, "velocity": 114, "channel": 0}, {"type": "note_on", "time": 0, "note": 60, "velocity": 113, "channel": 0}, {"type": "note_off", "time": 110, "note": 60, "velocity": 113, "channel": 0}, {"type": "note_on", "time": 426, "note": 60, "velocity": 110, "channel": 0}, {"type": "note_off", "time": 404, "note": 60, "velocity": 110, "channel": 0}, {"type": "note_on", "time": 22, "note": 57, "velocity": 110, "channel": 0}, {"type": "note_off", "time": 82, "note": 57, "velocity": 110, "channel": 0}, {"type": "note_on", "time": 28, "note": 60, "velocity": 124, "channel": 0}, {"type": "note_off", "time": 67, "note": 60, "velocity": 124, "channel": 0}, {"type": "note_on", "time": 19, "note": 62, "velocity": 125, "channel": 0}, {"type": "note_off", "time": 61, "note": 62, "velocity": 125, "channel": 0}, {"type": "note_on", "time": 20, "note": 63, "velocity": 123, "channel": 0}, {"type": "note_off", "time": 75, "note": 63, "velocity": 123, "channel": 0}, {"type": "note_on", "time": 9, "note": 66, "velocity": 117, "channel": 0}, {"type": "note_off", "time": 27, "note": 66, "velocity": 117, "channel": 0}, {"type": "note_on", "time": 11, "note": 63, "velocity": 126, "channel": 0}, {"type": "note_off", "time": 67, "note": 63, "velocity": 126, "channel": 0}, {"type": "note_on", "time": 17, "note": 62, "velocity": 121, "channel": 0}, {"type": "note_off", "time": 46, "note": 62, "velocity": 121, "channel": 0}, {"type": "note_on", "time": 33, "note": 60, "velocity": 118, "channel": 0}, {"type": "note_off", "time": 110, "note": 60, "velocity": 118, "channel": 0}, {"type": "note_on", "time": 16, "note": 55, "velocity": 112, "channel": 0}, {"type": "note_off", "time": 56, "note": 55, "velocity": 112, "channel": 0}, {"type": "note_on", "time": 16, "note": 53, "velocity": 113, "channel": 0}, {"type": "note_off", "time": 59, "note": 53, "velocity": 113, "channel": 0}, {"type": "note_on", "time": 16, "note": 52, "velocity": 115, "channel": 0}, {"type": "note_off", "time": 78, "note": 52, "velocity": 115, "channel": 0}, {"type": "note_on", "time": 28, "note": 53, "velocity": 111, "channel": 0}, {"type": "note_off", "time": 114, "note": 53, "velocity": 111, "channel": 0}, {"type": "note_on", "time": 4, "note": 54, "velocity": 110, "channel": 0}, {"type": "note_off", "time": 147, "note": 54, "velocity": 110, "channel": 0}, {"type": "note_on", "time": 27, "note": 55, "velocity": 112, "channel": 0}, {"type": "note_off", "time": 114, "note": 55, "velocity": 112, "channel": 0}, {"type": "note_on", "time": 67, "note": 60, "velocity": 109, "channel": 0}, {"type": "note_off", "time": 91, "note": 60, "velocity": 109, "channel": 0}, {"type": "note_on", "time": 62, "note": 60, "velocity": 117, "channel": 0}, {"type": "note_off", "time": 184, "note": 60, "velocity": 117, "channel": 0}, {"type": "note_on", "time": 20, "note": 55, "velocity": 111, "channel": 0}, {"type": "note_off", "time": 64, "note": 55, "velocity": 111, "channel": 0}, {"type": "end_of_track", "time": 0}]]}