{"ticks_per_beat": 192, "tracks": [[{"type": "track_name", "name": "Melody", "time": 0}, {"type": "set_tempo", "tempo": 272727, "time": 0}, {"type": "key_signature", "key": "Bb", "time": 0}, {"type": "time_signature", "numerator": 4, "denominator": 4, "clocks_per_click": 24, "notated_32nd_notes_per_beat": 8, "time": 0}, {"type": "note_on", "time": 2059, "note": 55, "velocity": 100, "channel": 0}, {"type": "note_off", "time": 181, "note": 55, "velocity": 100, "channel": 0}, {"type": "note_on", "time": 28, "note": 53, "velocity": 92, "channel": 0}, {"type": "note_off", "time": 143, "note": 53, "velocity": 92, "channel": 0}, {"type": "note_on", "time": 40, "note": 55, "velocity": 108, "channel": 0}, {"type": "note_off", "time": 126, "note": 55, "velocity": 108, "channel": 0}, {"type": "note_on", "time": 28, "note": 53, "velocity": 95, "channel": 0}, {"type": "note_off", "time": 93, "note": 53, "velocity": 95, "channel": 0}, {"type": "note_on", "time": 18, "note": 55, "velocity": 98, "channel": 0}, {"type": "note_off", "time": 306, "note": 55, "velocity": 98, "channel": 0}, {"type": "note_on", "time": 40, "note": 53, "velocity": 85, "channel": 0}, {"type": "note_off", "time": 116, "note": 53, "velocity": 85, "channel": 0}, {"type": "note_on", "time": 10, "note": 55, "velocity": 104, "channel": 0}, {"type": "note_off", "time": 210, "note": 55, "velocity": 104, "channel": 0}, {"type": "note_on", "time": 40, "note": 53, "velocity": 90, "channel": 0}, {"type": "note_off", "time": 108, "note": 53, "velocity": 90, "channel": 0}, {"type": "note_on", "time": 49, "note": 56, "velocity": 105, "channel": 0}, {"type": "note_off", "time": 226, "note": 56, "velocity": 105, "channel": 0}, {"type": "note_on", "time": 28, "note": 53, "velocity": 95, "channel": 0}, {"type": "note_off", "time": 89, "note": 53, "velocity": 95, "channel": 0}, {"type": "note_on", "time": 18, "note": 56, "velocity": 110, "channel": 0}, {"type": "note_off", "time": 118, "note": 56, "velocity": 110, "channel": 0}, {"type": "note_on", "time": 16, "note": 53, "velocity": 93, "channel": 0}, {"type": "note_off", "time": 100, "note": 53, "velocity": 93, "channel": 0}, {"type": "note_on", "time": 44, "note": 56, "velocity": 101, "channel": 0}, {"type": "note_off", "time": 237, "note": 56, "velocity": 101, "channel": 0}, {"type": "note_on", "time": 55, "note": 53, "velocity": 88, "channel": 0}, {"type": "note_off", "time": 140, "note": 53, "velocity": 88, "channel": 0}, {"type": "note_on", "time": 65, "note": 56, "velocity": 103, "channel": 0}, {"type": "note_off", "time": 185, "note": 56, "velocity": 103, "channel": 0}, {"type": "note_on", "time": 26, "note": 53, "velocity": 80, "channel": 0}, {"type": "note_off", "time": 108, "note": 53, "velocity": 80, "channel": 0}, {"type": "note_on", "time": 40, "note": 55, "velocity": 97, "channel": 0}, {"type": "note_off", "time": 187, "note": 55, "velocity": 97, "channel": 0}, {"type": "note_on", "time": 523, "note": 55, "velocity": 104, "channel": 0}, {"type": "note_off", "time": 69, "note": 55, "velocity": 104, "channel": 0}, {"type": "note_on", "time": 12, "note": 54, "velocity": 100, "channel": 0}, {"type": "note_off", "time": 85, "note": 54, "velocity": 100, "channel": 0}, {"type": "note_on", "time": 17, "note": 58, "velocity": 100, "channel": 0}, {"type": "note_off", "time": 51, "note": 58, "velocity": 100, "channel": 0}, {"type": "note_on", "time": 24, "note": 61, "velocity": 104, "channel": 0}, {"type": "note_off", "time": 109, "note": 61, "velocity": 104, "channel": 0}, {"type": "note_on", "time": 18, "note": 62, "velocity": 102, "channel": 0}, {"type": "note_off", "time": 63, "note": 62, "velocity": 102, "channel": 0}, {"type": "note_on", "time": 11, "note": 63, "velocity": 105, "channel": 0}, {"type": "note_off", "time": 87, "note": 63, "velocity": 105, "channel": 0}, {"type": "note_on", "time": 8, "note": 64, "velocity": 104, "channel": 0}, {"type": "note_off", "time": 96, "note": 64, "velocity": 104, "channel": 0}, {"type": "note_on", "time": 17, "note": 65, "velocity": 99, "channel": 0}, {"type": "note_off", "time": 61, "note": 65, "velocity": 99, "channel": 0}, {"type": "note_on", "time": 7, "note": 67, "velocity": 95, "channel": 0}, {"type": "note_off", "time": 33, "note": 67, "velocity": 95, "channel": 0}, {"type": "note_on", "time": 10, "note": 65, "velocity": 104, "channel": 0}, {"type": "note_off", "time": 40, "note": 65, "velocity": 104, "channel": 0}, {"type": "note_on", "time": 14, "note": 61, "velocity": 98, "channel": 0}, {"type": "note_off", "time": 113, "note": 61, "velocity": 98, "channel": 0}, {"type": "note_on", "time": 31, "note": 62, "velocity": 90, "channel": 0}, {"type": "note_off", "time": 224, "note": 62, "velocity": 90, "channel": 0}, {"type": "note_on", "time": 24, "note": 58, "velocity": 98, "channel": 0}, {"type": "note_off", "time": 87, "note": 58, "velocity": 98, "channel": 0}, {"type": "note_on", "time": 18, "note": 55, "velocity": 92, "channel": 0}, {"type": "note_off", "time": 93, "note": 55, "velocity": 92, "channel": 0}, {"type": "note_on", "time": 231, "note": 53, "velocity": 96, "channel": 0}, {"type": "note_off", "time": 62, "note": 53, "velocity": 96, "channel": 0}, {"type": "note_on", "time": 25, "note": 58, "velocity": 98, "channel": 0}, {"type": "note_off", "time": 65, "note": 58, "velocity": 98, "channel": 0}, {"type": "note_on", "time": 68, "note": 58, "velocity": 91, "channel": 0}, {"type": "note_off", "time": 175, "note": 58, "velocity": 91, "channel": 0}, {"type": "note_on", "time": 36, "note": 57, "velocity": 99, "channel": 0}, {"type": "note_off", "time": 87, "note": 57, "velocity": 99, "channel": 0}, {"type": "note_on", "time": 20, "note": 55, "velocity": 93, "channel": 0}, {"type": "note_off", "time": 102, "note": 55, "velocity": 93, "channel": 0}, {"type": "note_on", "time": 36, "note": 60, "velocity": 102, "channel": 0}, {"type": "note_off", "time": 129, "note": 60, "velocity": 102, "channel": 0}, {"type": "note_on", "time": 63, "note": 58, "velocity": 99, "channel": 0}, {"type": "note_off", "time": 107, "note": 58, "velocity": 99, "channel": 0}, {"type": "note_on", "time": 19, "note": 55, "velocity": 100, "channel": 0}, {"type": "note_off", "time": 81, "note": 55, "velocity": 100, "channel": 0}, {"type": "note_on", "time": 7, "note": 54, "velocity": 101, "channel": 0}, {"type": "note_off", "time": 79, "note": 54, "velocity": 101, "channel": 0}, {"type": "note_on", "time": 13, "note": 53, "velocity": 96, "channel": 0}, {"type": "note_off", "time": 91, "note": 53, "velocity": 96, "channel": 0}, {"type": "note_on", "time": 30, "note": 55, "velocity": 98, "channel": 0}, {"type": "note_off", "time": 99, "note": 55, "velocity": 98, "channel": 0}, {"type": "note_on", "time": 46, "note": 60, "velocity": 101, "channel": 0}, {"type": "note_off", "time": 258, "note": 60, "velocity": 101, "channel": 0}, {"type": "note_on", "time": 18, "note": 58, "velocity": 93, "channel": 0}, {"type": "note_off", "time": 89, "note": 58, "velocity": 93, "channel": 0}, {"type": "note_on", "time": 12, "note": 55, "velocity": 103, "channel": 0}, {"type": "note_off", "time": 79, "note": 55, "velocity": 103, "channel": 0}, {"type": "note_on", "time": 21, "note": 54, "velocity": 100, "channel": 0}, {"type": "note_off", "time": 128, "note": 54, "velocity": 100, "channel": 0}, {"type": "note_on", "time": 16, "note": 55, "velocity": 88, "channel": 0}, {"type": "note_off", "time": 109, "note": 55, "velocity": 88, "channel": 0}, {"type": "note_on", "time": 23, "note": 56, "velocity": 106, "channel": 0}, {"type": "note_off", "time": 194, "note": 56, "velocity": 106, "channel": 0}, {"type": "note_on", "time": 487, "note": 58, "velocity": 111, "channel": 0}, {"type": "note_off", "time": 129, "note": 58, "velocity": 111, "channel": 0}, {"type": "note_on", "time": 2, "note": 59, "velocity": 116, "channel": 0}, {"type": "note_off", "time": 258, "note": 59, "velocity": 116, "channel": 0}, {"type": "note_on", "time": 28, "note": 62, "velocity": 109, "channel": 0}, {"type": "note_off", "time": 247, "note": 62, "velocity": 109, "channel": 0}, {"type": "note_on", "time": 8, "note": 59, "velocity": 103, "channel": 0}, {"type": "note_off", "time": 96, "note": 59, "velocity": 103, "channel": 0}, {"type": "note_on", "time": 109, "note": 60, "velocity": 108, "channel": 0}, {"type": "note_off", "time": 156, "note": 60, "velocity": 108, "channel": 0}, {"type": "note_on", "time": 15, "note": 59, "velocity": 93, "channel": 0}, {"type": "note_off", "time": 149, "note": 59, "velocity": 93, "channel": 0}, {"type": "note_on", "time": 12, "note": 55, "velocity": 95, "channel": 0}, {"type": "note_off", "time": 241, "note": 55, "velocity": 95, "channel": 0}, {"type": "note_on", "time": 206, "note": 51, "velocity": 99, "channel": 0}, {"type": "note_off", "time": 99, "note": 51, "velocity": 99, "channel": 0}, {"type": "note_on", "time": 61, "note": 54, "velocity": 101, "channel": 0}, {"type": "note_off", "time": 221, "note": 54, "velocity": 101, "channel": 0}, {"type": "note_on", "time": 344, "note": 53, "velocity": 99, "channel": 0}, {"type": "note_off", "time": 103, "note": 53, "velocity": 99, "channel": 0}, {"type": "note_on", "time": 35, "note": 58, "velocity": 93, "channel": 0}, {"type": "note_off", "time": 255, "note": 58, "velocity": 93, "channel": 0}, {"type": "note_on", "time": 27, "note": 53, "velocity": 94, "channel": 0}, {"type": "note_off", "time": 209, "note": 53, "velocity": 94, "channel": 0}, {"type": "note_on", "time": 149, "note": 53, "velocity": 106, "channel": 0}, {"type": "note_off", "time": 91, "note": 53, "velocity": 106, "channel": 0}, {"type": "note_on", "time": 20, "note": 58, "velocity": 102, "channel": 0}, {"type": "note_off", "time": 87, "note": 58, "velocity": 102, "channel": 0}, {"type": "note_on", "time": 462, "note": 55, "velocity": 107, "channel": 0}, {"type": "note_on", "time": 79, "note": 56, "velocity": 111, "channel": 0}, {"type": "note_off", "time": 0, "note": 55, "velocity": 107, "channel": 0}, {"type": "note_off", "time": 116, "note": 56, "velocity": 111, "channel": 0}, {"type": "note_on", "time": 10, "note": 60, "velocity": 111, "channel": 0}, {"type": "note_off", "time": 59, "note": 60, "velocity": 111, "channel": 0}, {"type": "note_on", "time": 6, "note": 62, "velocity": 115, "channel": 0}, {"type": "note_off", "time": 107, "note": 62, "velocity": 115, "channel": 0}, {"type": "note_on", "time": 1, "note": 67, "velocity": 112, "channel": 0}, {"type": "note_off", "time": 104, "note": 67, "velocity": 112, "channel": 0}, {"type": "note_on", "time": 9, "note": 65, "velocity": 113, "channel": 0}, {"type": "note_off", "time": 97, "note": 65, "velocity": 113, "channel": 0}, {"type": "note_on", "time": 13, "note": 60, "velocity": 106, "channel": 0}, {"type": "note_off", "time": 81, "note": 60, "velocity": 106, "channel": 0}, {"type": "note_on", "time": 26, "note": 56, "velocity": 106, "channel": 0}, {"type": "note_off", "time": 77, "note": 56, "velocity": 106, "channel": 0}, {"type": "note_on", "time": 25, "note": 54, "velocity": 94, "channel": 0}, {"type": "note_off", "time": 37, "note": 54, "velocity": 94, "channel": 0}, {"type": "note_on", "time": 22, "note": 55, "velocity": 98, "channel": 0}, {"type": "note_off", "time": 222, "note": 55, "velocity": 98, "channel": 0}, {"type": "note_on", "time": 57, "note": 56, "velocity": 104, "channel": 0}, {"type": "note_off", "time": 60, "note": 56, "velocity": 104, "channel": 0}, {"type": "note_on", "time": 25, "note": 60, "velocity": 115, "channel": 0}, {"type": "note_off", "time": 93, "note": 60, "velocity": 115, "channel": 0}, {"type": "note_on", "time": 21, "note": 63, "velocity": 109, "channel": 0}, {"type": "note_off", "time": 63, "note": 63, "velocity": 109, "channel": 0}, {"type": "note_on", "time": 19, "note": 65, "velocity": 111, "channel": 0}, {"type": "note_off", "time": 132, "note": 65, "velocity": 111, "channel": 0}, {"type": "note_on", "time": 429, "note": 54, "velocity": 108, "channel": 0}, {"type": "note_off", "time": 101, "note": 54, "velocity": 108, "channel": 0}, {"type": "note_on", "time": 17, "note": 55, "velocity": 104, "channel": 0}, {"type": "note_off", "time": 74, "note": 55, "velocity": 104, "channel": 0}, {"type": "note_on", "time": 17, "note": 58, "velocity": 105, "channel": 0}, {"type": "note_off", "time": 70, "note": 58, "velocity": 105, "channel": 0}, {"type": "note_on", "time": 11, "note": 62, "velocity": 112, "channel": 0}, {"type": "note_off", "time": 69, "note": 62, "velocity": 112, "channel": 0}, {"type": "note_on", "time": 16, "note": 63, "velocity": 115, "channel": 0}, {"type": "note_off", "time": 116, "note": 63, "velocity": 115, "channel": 0}, {"type": "note_on", "time": 15, "note": 65, "velocity": 100, "channel": 0}, {"type": "note_off", "time": 135, "note": 65, "velocity": 100, "channel": 0}, {"type": "note_on", "time": 29, "note": 67, "velocity": 99, "channel": 0}, {"type": "note_off", "time": 40, "note": 67, "velocity": 99, "channel": 0}, {"type": "note_on", "time": 10, "note": 65, "velocity": 108, "channel": 0}, {"type": "note_off", "time": 35, "note": 65, "velocity": 108, "channel": 0}, {"type": "note_on", "time": 13, "note": 62, "velocity": 106, "channel": 0}, {"type": "note_off", "time": 115, "note": 62, "velocity": 106, "channel": 0}, {"type": "note_on", "time": 12, "note": 63, "velocity": 113, "channel": 0}, {"type": "note_off", "time": 87, "note": 63, "velocity": 113, "channel": 0}, {"type": "note_on", "time": 84, "note": 62, "velocity": 108, "channel": 0}, {"type": "note_off", "time": 62, "note": 62, "velocity": 108, "channel": 0}, {"type": "note_on", "time": 15, "note": 58, "velocity": 101, "channel": 0}, {"type": "note_off", "time": 133, "note": 58, "velocity": 101, "channel": 0}, {"type": "note_on", "time": 11, "note": 53, "velocity": 100, "channel": 0}, {"type": "note_off", "time": 48, "note": 53, "velocity": 100, "channel": 0}, {"type": "note_on", "time": 95, "note": 53, "velocity": 100, "channel": 0}, {"type": "note_off", "time": 83, "note": 53, "velocity": 100, "channel": 0}, {"type": "note_on", "time": 11, "note": 55, "velocity": 102, "channel": 0}, {"type": "note_off", "time": 120, "note": 55, "velocity": 102, "channel": 0}, {"type": "note_on", "time": 6, "note": 62, "velocity": 108, "channel": 0}, {"type": "note_off", "time": 79, "note": 62, "velocity": 108, "channel": 0}, {"type": "note_on", "time": 107, "note": 57, "velocity": 99, "channel": 0}, {"type": "note_off", "time": 59, "note": 57, "velocity": 99, "channel": 0}, {"type": "note_on", "time": 6, "note": 50, "velocity": 95, "channel": 0}, {"type": "note_off", "time": 104, "note": 50, "velocity": 95, "channel": 0}, {"type": "note_on", "time": 25, "note": 52, "velocity": 102, "channel": 0}, {"type": "note_off", "time": 64, "note": 52, "velocity": 102, "channel": 0}, {"type": "note_on", "time": 21, "note": 53, "velocity": 95, "channel": 0}, {"type": "note_off", "time": 71, "note": 53, "velocity": 95, "channel": 0}, {"type": "note_on", "time": 23, "note": 57, "velocity": 104, "channel": 0}, {"type": "note_off", "time": 114, "note": 57, "velocity": 104, "channel": 0}, {"type": "note_on", "time": 41, "note": 60, "velocity": 104, "channel": 0}, {"type": "note_off", "time": 226, "note": 60, "velocity": 104, "channel": 0}, {"type": "note_on", "time": 7, "note": 55, "velocity": 92, "channel": 0}, {"type": "note_off", "time": 397, "note": 55, "velocity": 92, "channel": 0}, {"type": "note_on", "time": 16, "note": 50, "velocity": 101, "channel": 0}, {"type": "note_off", "time": 34, "note": 50, "velocity": 101, "channel": 0}, {"type": "note_on", "time": 8, "note": 51, "velocity": 102, "channel": 0}, {"type": "note_off", "time": 91, "note": 51, "velocity": 102, "channel": 0}, {"type": "note_on", "time": 8, "note": 53, "velocity": 96, "channel": 0}, {"type": "note_off", "time": 58, "note": 53, "velocity": 96, "channel": 0}, {"type": "note_on", "time": 7, "note": 54, "velocity": 102, "channel": 0}, {"type": "note_off", "time": 93, "note": 54, "velocity": 102, "channel": 0}, {"type": "note_on", "time": 31, "note": 51, "velocity": 94, "channel": 0}, {"type": "note_off", "time": 67, "note": 51, "velocity": 94, "channel": 0}, {"type": "note_on", "time": 16, "note": 53, "velocity": 93, "channel": 0}, {"type": "note_off", "time": 235, "note": 53, "velocity": 93, "channel": 0}, {"type": "note_on", "time": 325, "note": 60, "velocity": 127, "channel": 0}, {"type": "note_off", "time": 173, "note": 60, "velocity": 127, "channel": 0}, {"type": "note_on", "time": 4, "note": 61, "velocity": 122, "channel": 0}, {"type": "note_off", "time": 132, "note": 61, "velocity": 122, "channel": 0}, {"type": "note_on", "time": 20, "note": 60, "velocity": 108, "channel": 0}, {"type": "note_off", "time": 431, "note": 60, "velocity": 108, "channel": 0}, {"type": "note_on", "time": 31, "note": 58, "velocity": 85, "channel": 0}, {"type": "note_off", "time": 129, "note": 58, "velocity": 85, "channel": 0}, {"type": "note_on", "time": 15, "note": 60, "velocity": 95, "channel": 0}, {"type": "note_off", "time": 77, "note": 60, "velocity": 95, "channel": 0}, {"type": "note_on", "time": 15, "note": 62, "velocity": 112, "channel": 0}, {"type": "note_off", "time": 106, "note": 62, "velocity": 112, "channel": 0}, {"type": "note_on", "time": 528, "note": 64, "velocity": 118, "channel": 0}, {"type": "note_off", "time": 179, "note": 64, "velocity": 118, "channel": 0}, {"type": "note_on", "time": 10, "note": 65, "velocity": 109, "channel": 0}, {"type": "note_off", "time": 238, "note": 65, "velocity": 109, "channel": 0}, {"type": "note_on", "time": 10, "note": 62, "velocity": 113, "channel": 0}, {"type": "note_off", "time": 117, "note": 62, "velocity": 113, "channel": 0}, {"type": "note_on", "time": 10, "note": 63, "velocity": 116, "channel": 0}, {"type": "note_off", "time": 73, "note": 63, "velocity": 116, "channel": 0}, {"type": "note_on", "time": 10, "note": 64, "velocity": 110, "channel": 0}, {"type": "note_off", "time": 90, "note": 64, "velocity": 110, "channel": 0}, {"type": "note_on", "time": 14, "note": 65, "velocity": 113, "channel": 0}, {"type": "note_off", "time": 61, "note": 65, "velocity": 113, "channel": 0}, {"type": "note_on", "time": 27, "note": 62, "velocity": 113, "channel": 0}, {"type": "note_off", "time": 89, "note": 62, "velocity": 113, "channel": 0}, {"type": "note_on", "time": 11, "note": 59, "velocity": 103, "channel": 0}, {"type": "note_off", "time": 54, "note": 59, "velocity": 103, "channel": 0}, {"type": "note_on", "time": 15, "note": 56, "velocity": 107, "channel": 0}, {"type": "note_off", "time": 113, "note": 56, "velocity": 107, "channel": 0}, {"type": "note_on", "time": 14, "note": 53, "velocity": 99, "channel": 0}, {"type": "note_off", "time": 74, "note": 53, "velocity": 99, "channel": 0}, {"type": "note_on", "time": 12, "note": 50, "velocity": 105, "channel": 0}, {"type": "note_off", "time": 99, "note": 50, "velocity": 105, "channel": 0}, {"type": "note_on", "time": 51, "note": 48, "velocity": 101, "channel": 0}, {"type": "note_off", "time": 130, "note": 48, "velocity": 101, "channel": 0}, {"type": "note_on", "time": 67, "note": 51, "velocity": 98, "channel": 0}, {"type": "note_off", "time": 360, "note": 51, "velocity": 98, "channel": 0}, {"type": "note_on", "time": 51, "note": 54, "velocity": 102, "channel": 0}, {"type": "note_off", "time": 70, "note": 54, "velocity": 102, "channel": 0}, {"type": "note_on", "time": 1, "note": 55, "velocity": 97, "channel": 0}, {"type": "note_off", "time": 182, "note": 55, "velocity": 97, "channel": 0}, {"type": "note_on", "time": 38, "note": 53, "velocity": 92, "channel": 0}, {"type": "note_off", "time": 284, "note": 53, "velocity": 92, "channel": 0}, {"type": "note_on", "time": 452, "note": 58, "velocity": 93, "channel": 0}, {"type": "note_off", "time": 347, "note": 58, "velocity": 93, "channel": 0}, {"type": "note_on", "time": 107, "note": 58, "velocity": 113, "channel": 0}, {"type": "note_off", "time": 103, "note": 58, "velocity": 113, "channel": 0}, {"type": "note_on", "time": 216, "note": 58, "velocity": 98, "channel": 0}, {"type": "note_off", "time": 239, "note": 58, "velocity": 98, "channel": 0}, {"type": "note_on", "time": 27, "note": 55, "velocity": 107, "channel": 0}, {"type": "note_off", "time": 110, "note": 55, "velocity": 107, "channel": 0}, {"type": "note_on", "time": 21, "note": 58, "velocity": 107, "channel": 0}, {"type": "note_off", "time": 56, "note": 58, "velocity": 107, "channel": 0}, {"type": "note_on", "time": 17, "note": 61, "velocity": 113, "channel": 0}, {"type": "note_off", "time": 116, "note": 61, "velocity": 113, "channel": 0}, {"type": "note_on", "time": 17, "note": 62, "velocity": 118, "channel": 0}, {"type": "note_off", "time": 51, "note": 62, "velocity": 118, "channel": 0}, {"type": "note_on", "time": 15, "note": 63, "velocity": 115, "channel": 0}, {"type": "note_off", "time": 74, "note": 63, "velocity": 115, "channel": 0}, {"type": "note_on", "time": 12, "note": 64, "velocity": 115, "channel": 0}, {"type": "note_off", "time": 91, "note": 64, "velocity": 115, "channel": 0}, {"type": "note_on", "time": 16, "note": 65, "velocity": 105, "channel": 0}, {"type": "note_off", "time": 49, "note": 65, "velocity": 105, "channel": 0}, {"type": "note_on", "time": 10, "note": 67, "velocity": 109, "channel": 0}, {"type": "note_off", "time": 41, "note": 67, "velocity": 109, "channel": 0}, {"type": "note_on", "time": 10, "note": 65, "velocity": 108, "channel": 0}, {"type": "note_off", "time": 48, "note": 65, "velocity": 108, "channel": 0}, {"type": "note_on", "time": 6, "note": 61, "velocity": 110, "channel": 0}, {"type": "note_off", "time": 55, "note": 61, "velocity": 110, "channel": 0}, {"type": "note_on", "time": 3, "note": 62, "velocity": 109, "channel": 0}, {"type": "note_off", "time": 79, "note": 62, "velocity": 109, "channel": 0}, {"type": "note_on", "time": 10, "note": 63, "velocity": 112, "channel": 0}, {"type": "note_off", "time": 70, "note": 63, "velocity": 112, "channel": 0}, {"type": "note_on", "time": 5, "note": 64, "velocity": 107, "channel": 0}, {"type": "note_off", "time": 110, "note": 64, "velocity": 107, "channel": 0}, {"type": "note_on", "time": 24, "note": 65, "velocity": 104, "channel": 0}, {"type": "note_off", "time": 104, "note": 65, "velocity": 104, "channel": 0}, {"type": "note_on", "time": 7, "note": 68, "velocity": 92, "channel": 0}, {"type": "note_off", "time": 36, "note": 68, "velocity": 92, "channel": 0}, {"type": "note_on", "time": 6, "note": 66, "velocity": 98, "channel": 0}, {"type": "note_off", "time": 36, "note": 66, "velocity": 98, "channel": 0}, {"type": "note_on", "time": 7, "note": 65, "velocity": 107, "channel": 0}, {"type": "note_off", "time": 31, "note": 65, "velocity": 107, "channel": 0}, {"type": "note_on", "time": 11, "note": 61, "velocity": 104, "channel": 0}, {"type": "note_off", "time": 128, "note": 61, "velocity": 104, "channel": 0}, {"type": "note_on", "time": 12, "note": 62, "velocity": 107, "channel": 0}, {"type": "note_off", "time": 37, "note": 62, "velocity": 107, "channel": 0}, {"type": "note_on", "time": 10, "note": 63, "velocity": 109, "channel": 0}, {"type": "note_off", "time": 100, "note": 63, "velocity": 109, "channel": 0}, {"type": "note_on", "time": 15, "note": 64, "velocity": 109, "channel": 0}, {"type": "note_off", "time": 81, "note": 64, "velocity": 109, "channel": 0}, {"type": "note_on", "time": 21, "note": 65, "velocity": 106, "channel": 0}, {"type": "note_off", "time": 66, "note": 65, "velocity": 106, "channel": 0}, {"type": "note_on", "time": 14, "note": 66, "velocity": 91, "channel": 0}, {"type": "note_off", "time": 33, "note": 66, "velocity": 91, "channel": 0}, {"type": "note_on", "time": 8, "note": 65, "velocity": 108, "channel": 0}, {"type": "note_off", "time": 52, "note": 65, "velocity": 108, "channel": 0}, {"type": "note_on", "time": 17, "note": 62, "velocity": 109, "channel": 0}, {"type": "note_off", "time": 106, "note": 62, "velocity": 109, "channel": 0}, {"type": "note_on", "time": 8, "note": 63, "velocity": 109, "channel": 0}, {"type": "note_off", "time": 63, "note": 63, "velocity": 109, "channel": 0}, {"type": "note_on", "time": 12, "note": 64, "velocity": 106, "channel": 0}, {"type": "note_off", "time": 107, "note": 64, "velocity": 106, "channel": 0}, {"type": "note_on", "time": 6, "note": 65, "velocity": 109, "channel": 0}, {"type": "note_off", "time": 101, "note": 65, "velocity": 109, "channel": 0}, {"type": "note_on", "time": 265, "note": 62, "velocity": 109, "channel": 0}, {"type": "note_off", "time": 43, "note": 62, "velocity": 109, "channel": 0}, {"type": "note_on", "time": 16, "note": 63, "velocity": 114, "channel": 0}, {"type": "note_off", "time": 79, "note": 63, "velocity": 114, "channel": 0}, {"type": "note_on", "time": 9, "note": 64, "velocity": 112, "channel": 0}, {"type": "note_off", "time": 56, "note": 64, "velocity": 112, "channel": 0}, {"type": "note_on", "time": 9, "note": 65, "velocity": 120, "channel": 0}, {"type": "note_off", "time": 70, "note": 65, "velocity": 120, "channel": 0}, {"type": "note_on", "time": 7, "note": 66, "velocity": 118, "channel": 0}, {"type": "note_off", "time": 72, "note": 66, "velocity": 118, "channel": 0}, {"type": "note_on", "time": 3, "note": 67, "velocity": 123, "channel": 0}, {"type": "note_off", "time": 31, "note": 67, "velocity": 123, "channel": 0}, {"type": "note_on", "time": 12, "note": 68, "velocity": 118, "channel": 0}, {"type": "note_off", "time": 169, "note": 68, "velocity": 118, "channel": 0}, {"type": "note_on", "time": 4, "note": 67, "velocity": 117, "channel": 0}, {"type": "note_off", "time": 20, "note": 67, "velocity": 117, "channel": 0}, {"type": "note_on", "time": 4, "note": 66, "velocity": 113, "channel": 0}, {"type": "note_off", "time": 23, "note": 66, "velocity": 113, "channel": 0}, {"type": "note_on", "time": 16, "note": 67, "velocity": 117, "channel": 0}, {"type": "note_off", "time": 40, "note": 67, "velocity": 117, "channel": 0}, {"type": "note_on", "time": 11, "note": 66, "velocity": 109, "channel": 0}, {"type": "note_off", "time": 26, "note": 66, "velocity": 109, "channel": 0}, {"type": "note_on", "time": 4, "note": 65, "velocity": 113, "channel": 0}, {"type": "note_off", "time": 74, "note": 65, "velocity": 113, "channel": 0}, {"type": "note_on", "time": 12, "note": 62, "velocity": 108, "channel": 0}, {"type": "note_off", "time": 226, "note": 62, "velocity": 108, "channel": 0}, {"type": "note_on", "time": 7, "note": 63, "velocity": 104, "channel": 0}, {"type": "note_off", "time": 326, "note": 63, "velocity": 104, "channel": 0}, {"type": "note_on", "time": 191, "note": 55, "velocity": 104, "channel": 0}, {"type": "note_off", "time": 84, "note": 55, "velocity": 104, "channel": 0}, {"type": "note_on", "time": 20, "note": 54, "velocity": 99, "channel": 0}, {"type": "note_off", "time": 386, "note": 54, "velocity": 99, "channel": 0}, {"type": "note_on", "time": 97, "note": 53, "velocity": 93, "channel": 0}, {"type": "note_off", "time": 300, "note": 53, "velocity": 93, "channel": 0}, {"type": "note_on", "time": 102, "note": 58, "velocity": 95, "channel": 0}, {"type": "note_off", "time": 222, "note": 58, "velocity": 95, "channel": 0}, {"type": "note_on", "time": 455, "note": 46, "velocity": 106, "channel": 0}, {"type": "note_off", "time": 169, "note": 46, "velocity": 106, "channel": 0}, {"type": "note_on", "time": 33, "note": 47, "velocity": 109, "channel": 0}, {"type": "note_off", "time": 586, "note": 47, "velocity": 109, "channel": 0}, {"type": "note_on", "time": 25, "note": 46, "velocity": 103, "channel": 0}, {"type": "note_off", "time": 129, "note": 46, "velocity": 103, "channel": 0}, {"type": "note_on", "time": 40, "note": 58, "velocity": 101, "channel": 0}, {"type": "note_off", "time": 290, "note": 58, "velocity": 101, "channel": 0}, {"type": "note_on", "time": 11, "note": 55, "velocity": 105, "channel": 0}, {"type": "note_off", "time": 132, "note": 55, "velocity": 105, "channel": 0}, {"type": "note_on", "time": 372, "note": 53, "velocity": 102, "channel": 0}, {"type": "note_off", "time": 60, "note": 53, "velocity": 102, "channel": 0}, {"type": "note_on", "time": 10, "note": 55, "velocity": 104, "channel": 0}, {"type": "note_off", "time": 89, "note": 55, "velocity": 104, "channel": 0}, {"type": "note_on", "time": 27, "note": 58, "velocity": 108, "channel": 0}, {"type": "note_off", "time": 75, "note": 58, "velocity": 108, "channel": 0}, {"type": "note_on", "time": 6, "note": 61, "velocity": 113, "channel": 0}, {"type": "note_off", "time": 83, "note": 61, "velocity": 113, "channel": 0}, {"type": "note_on", "time": 1, "note": 62, "velocity": 118, "channel": 0}, {"type": "note_off", "time": 66, "note": 62, "velocity": 118, "channel": 0}, {"type": "note_on", "time": 5, "note": 63, "velocity": 119, "channel": 0}, {"type": "note_off", "time": 84, "note": 63, "velocity": 119, "channel": 0}, {"type": "note_on", "time": 14, "note": 64, "velocity": 115, "channel": 0}, {"type": "note_off", "time": 86, "note": 64, "velocity": 115, "channel": 0}, {"type": "note_on", "time": 13, "note": 66, "velocity": 101, "channel": 0}, {"type": "note_off", "time": 54, "note": 66, "velocity": 101, "channel": 0}, {"type": "note_on", "time": 14, "note": 67, "velocity": 106, "channel": 0}, {"type": "note_off", "time": 40, "note": 67, "velocity": 106, "channel": 0}, {"type": "note_on", "time": 7, "note": 65, "velocity": 115, "channel": 0}, {"type": "note_off", "time": 52, "note": 65, "velocity": 115, "channel": 0}, {"type": "note_on", "time": 17, "note": 62, "velocity": 113, "channel": 0}, {"type": "note_off", "time": 111, "note": 62, "velocity": 113, "channel": 0}, {"type": "note_on", "time": 27, "note": 59, "velocity": 95, "channel": 0}, {"type": "note_off", "time": 345, "note": 59, "velocity": 95, "channel": 0}, {"type": "note_on", "time": 20, "note": 56, "velocity": 110, "channel": 0}, {"type": "note_off", "time": 85, "note": 56, "velocity": 110, "channel": 0}, {"type": "note_on", "time": 38, "note": 52, "velocity": 106, "channel": 0}, {"type": "note_off", "time": 44, "note": 52, "velocity": 106, "channel": 0}, {"type": "note_on", "time": 50, "note": 47, "velocity": 98, "channel": 0}, {"type": "note_off", "time": 574, "note": 47, "velocity": 98, "channel": 0}, {"type": "note_on", "time": 342, "note": 48, "velocity": 107, "channel": 0}, {"type": "note_off", "time": 61, "note": 48, "velocity": 107, "channel": 0}, {"type": "note_on", "time": 22, "note": 51, "velocity": 105, "channel": 0}, {"type": "note_off", "time": 109, "note": 51, "velocity": 105, "channel": 0}, {"type": "note_on", "time": 27, "note": 58, "velocity": 111, "channel": 0}, {"type": "note_off", "time": 78, "note": 58, "velocity": 111, "channel": 0}, {"type": "note_on", "time": 13, "note": 60, "velocity": 118, "channel": 0}, {"type": "note_off", "time": 46, "note": 60, "velocity": 118, "channel": 0}, {"type": "note_on", "time": 17, "note": 62, "velocity": 117, "channel": 0}, {"type": "note_off", "time": 51, "note": 62, "velocity": 117, "channel": 0}, {"type": "note_on", "time": 10, "note": 64, "velocity": 124, "channel": 0}, {"type": "note_off", "time": 61, "note": 64, "velocity": 124, "channel": 0}, {"type": "note_on", "time": 14, "note": 67, "velocity": 119, "channel": 0}, {"type": "note_off", "time": 43, "note": 67, "velocity": 119, "channel": 0}, {"type": "note_on", "time": 17, "note": 70, "velocity": 115, "channel": 0}, {"type": "note_off", "time": 69, "note": 70, "velocity": 115, "channel": 0}, {"type": "note_on", "time": 9, "note": 71, "velocity": 120, "channel": 0}, {"type": "note_off", "time": 33, "note": 71, "velocity": 120, "channel": 0}, {"type": "note_on", "time": 20, "note": 72, "velocity": 121, "channel": 0}, {"type": "note_off", "time": 447, "note": 72, "velocity": 121, "channel": 0}, {"type": "note_on", "time": 4, "note": 67, "velocity": 117, "channel": 0}, {"type": "note_off", "time": 96, "note": 67, "velocity": 117, "channel": 0}, {"type": "note_on", "time": 110, "note": 70, "velocity": 113, "channel": 0}, {"type": "note_off", "time": 274, "note": 70, "velocity": 113, "channel": 0}, {"type": "note_on", "time": 5, "note": 67, "velocity": 107, "channel": 0}, {"type": "note_off", "time": 304, "note": 67, "velocity": 107, "channel": 0}, {"type": "note_on", "time": 722, "note": 62, "velocity": 115, "channel": 0}, {"type": "note_off", "time": 66, "note": 62, "velocity": 115, "channel": 0}, {"type": "note_on", "time": 8, "note": 63, "velocity": 117, "channel": 0}, {"type": "note_off", "time": 76, "note": 63, "velocity": 117, "channel": 0}, {"type": "note_on", "time": 13, "note": 64, "velocity": 117, "channel": 0}, {"type": "note_off", "time": 59, "note": 64, "velocity": 117, "channel": 0}, {"type": "note_on", "time": 11, "note": 65, "velocity": 121, "channel": 0}, {"type": "note_off", "time": 80, "note": 65, "velocity": 121, "channel": 0}, {"type": "note_on", "time": 15, "note": 66, "velocity": 110, "channel": 0}, {"type": "note_off", "time": 22, "note": 66, "velocity": 110, "channel": 0}, {"type": "note_on", "time": 3, "note": 67, "velocity": 117, "channel": 0}, {"type": "note_off", "time": 31, "note": 67, "velocity": 117, "channel": 0}, {"type": "note_on", "time": 3, "note": 68, "velocity": 114, "channel": 0}, {"type": "note_off", "time": 33, "note": 68, "velocity": 114, "channel": 0}, {"type": "note_on", "time": 2, "note": 69, "velocity": 110, "channel": 0}, {"type": "note_off", "time": 11, "note": 69, "velocity": 110, "channel": 0}, {"type": "note_on", "time": 2, "note": 70, "velocity": 116, "channel": 0}, {"type": "note_off", "time": 34, "note": 70, "velocity": 116, "channel": 0}, {"type": "note_on", "time": 9, "note": 72, "velocity": 94, "channel": 0}, {"type": "note_off", "time": 213, "note": 72, "velocity": 94, "channel": 0}, {"type": "note_on", "time": 57, "note": 60, "velocity": 79, "channel": 0}, {"type": "note_off", "time": 41, "note": 60, "velocity": 79, "channel": 0}, {"type": "note_on", "time": 10, "note": 67, "velocity": 113, "channel": 0}, {"type": "note_off", "time": 62, "note": 67, "velocity": 113, "channel": 0}, {"type": "note_on", "time": 7, "note": 68, "velocity": 122, "channel": 0}, {"type": "note_off", "time": 115, "note": 68, "velocity": 122, "channel": 0}, {"type": "note_on", "time": 14, "note": 70, "velocity": 111, "channel": 0}, {"type": "note_off", "time": 240, "note": 70, "velocity": 111, "channel": 0}, {"type": "note_on", "time": 11, "note": 67, "velocity": 110, "channel": 0}, {"type": "note_off", "time": 134, "note": 67, "velocity": 110, "channel": 0}, {"type": "note_on", "time": 7, "note": 68, "velocity": 110, "channel": 0}, {"type": "note_off", "time": 250, "note": 68, "velocity": 110, "channel": 0}, {"type": "note_on", "time": 26, "note": 62, "velocity": 106, "channel": 0}, {"type": "note_off", "time": 39, "note": 62, "velocity": 106, "channel": 0}, {"type": "note_on", "time": 14, "note": 63, "velocity": 112, "channel": 0}, {"type": "note_off", "time": 60, "note": 63, "velocity": 112, "channel": 0}, {"type": "note_on", "time": 7, "note": 64, "velocity": 107, "channel": 0}, {"type": "note_off", "time": 40, "note": 64, "velocity": 107, "channel": 0}, {"type": "note_on", "time": 10, "note": 65, "velocity": 113, "channel": 0}, {"type": "note_off", "time": 68, "note": 65, "velocity": 113, "channel": 0}, {"type": "note_on", "time": 10, "note": 66, "velocity": 115, "channel": 0}, {"type": "note_off", "time": 53, "note": 66, "velocity": 115, "channel": 0}, {"type": "note_on", "time": 7, "note": 67, "velocity": 107, "channel": 0}, {"type": "note_off", "time": 444, "note": 67, "velocity": 107, "channel": 0}, {"type": "note_on", "time": 14, "note": 62, "velocity": 109, "channel": 0}, {"type": "note_off", "time": 33, "note": 62, "velocity": 109, "channel": 0}, {"type": "note_on", "time": 6, "note": 63, "velocity": 113, "channel": 0}, {"type": "note_off", "time": 49, "note": 63, "velocity": 113, "channel": 0}, {"type": "note_on", "time": 14, "note": 64, "velocity": 98, "channel": 0}, {"type": "note_off", "time": 61, "note": 64, "velocity": 98, "channel": 0}, {"type": "note_on", "time": 15, "note": 65, "velocity": 96, "channel": 0}, {"type": "note_off", "time": 215, "note": 65, "velocity": 96, "channel": 0}, {"type": "note_on", "time": 18, "note": 60, "velocity": 104, "channel": 0}, {"type": "note_off", "time": 46, "note": 60, "velocity": 104, "channel": 0}, {"type": "note_on", "time": 13, "note": 61, "velocity": 103, "channel": 0}, {"type": "note_off", "time": 48, "note": 61, "velocity": 103, "channel": 0}, {"type": "note_on", "time": 21, "note": 63, "velocity": 104, "channel": 0}, {"type": "note_off", "time": 240, "note": 63, "velocity": 104, "channel": 0}, {"type": "note_on", "time": 14, "note": 62, "velocity": 111, "channel": 0}, {"type": "note_off", "time": 64, "note": 62, "velocity": 111, "channel": 0}, {"type": "note_on", "time": 299, "note": 49, "velocity": 112, "channel": 0}, {"type": "note_off", "time": 39, "note": 49, "velocity": 112, "channel": 0}, {"type": "note_on", "time": 6, "note": 51, "velocity": 116, "channel": 0}, {"type": "note_off", "time": 58, "note": 51, "velocity": 116, "channel": 0}, {"type": "note_on", "time": 7, "note": 52, "velocity": 117, "channel": 0}, {"type": "note_off", "time": 32, "note": 52, "velocity": 117, "channel": 0}, {"type": "note_on", "time": 18, "note": 53, "velocity": 115, "channel": 0}, {"type": "note_off", "time": 91, "note": 53, "velocity": 115, "channel": 0}, {"type": "note_on", "time": 6, "note": 54, "velocity": 111, "channel": 0}, {"type": "note_off", "time": 48, "note": 54, "velocity": 111, "channel": 0}, {"type": "note_on", "time": 4, "note": 55, "velocity": 115, "channel": 0}, {"type": "note_off", "time": 28, "note": 55, "velocity": 115, "channel": 0}, {"type": "note_on", "time": 4, "note": 56, "velocity": 118, "channel": 0}, {"type": "note_off", "time": 54, "note": 56, "velocity": 118, "channel": 0}, {"type": "note_on", "time": 5, "note": 57, "velocity": 115, "channel": 0}, {"type": "note_off", "time": 104, "note": 57, "velocity": 115, "channel": 0}, {"type": "note_on", "time": 5, "note": 62, "velocity": 111, "channel": 0}, {"type": "note_off", "time": 245, "note": 62, "velocity": 111, "channel": 0}, {"type": "note_on", "time": 17, "note": 57, "velocity": 117, "channel": 0}, {"type": "note_off", "time": 68, "note": 57, "velocity": 117, "channel": 0}, {"type": "note_on", "time": 25, "note": 61, "velocity": 104, "channel": 0}, {"type": "note_off", "time": 279, "note": 61, "velocity": 104, "channel": 0}, {"type": "note_on", "time": 5, "note": 55, "velocity": 109, "channel": 0}, {"type": "note_off", "time": 41, "note": 55, "velocity": 109, "channel": 0}, {"type": "note_on", "time": 7, "note": 60, "velocity": 103, "channel": 0}, {"type": "note_off", "time": 313, "note": 60, "velocity": 103, "channel": 0}, {"type": "note_on", "time": 45, "note": 54, "velocity": 106, "channel": 0}, {"type": "note_off", "time": 90, "note": 54, "velocity": 106, "channel": 0}, {"type": "note_on", "time": 18, "note": 60, "velocity": 97, "channel": 0}, {"type": "note_off", "time": 275, "note": 60, "velocity": 97, "channel": 0}, {"type": "note_on", "time": 10, "note": 54, "velocity": 109, "channel": 0}, {"type": "note_off", "time": 49, "note": 54, "velocity": 109, "channel": 0}, {"type": "note_on", "time": 16, "note": 60, "velocity": 103, "channel": 0}, {"type": "note_off", "time": 252, "note": 60, "velocity": 103, "channel": 0}, {"type": "note_on", "time": 24, "note": 53, "velocity": 102, "channel": 0}, {"type": "note_off", "time": 249, "note": 53, "velocity": 102, "channel": 0}, {"type": "note_on", "time": 449, "note": 53, "velocity": 109, "channel": 0}, {"type": "note_off", "time": 55, "note": 53, "velocity": 109, "channel": 0}, {"type": "note_on", "time": 12, "note": 55, "velocity": 113, "channel": 0}, {"type": "note_off", "time": 86, "note": 55, "velocity": 113, "channel": 0}, {"type": "note_on", "time": 8, "note": 60, "velocity": 114, "channel": 0}, {"type": "note_off", "time": 85, "note": 60, "velocity": 114, "channel": 0}, {"type": "note_on", "time": 39, "note": 55, "velocity": 105, "channel": 0}, {"type": "note_off", "time": 65, "note": 55, "velocity": 105, "channel": 0}, {"type": "note_on", "time": 10, "note": 53, "velocity": 104, "channel": 0}, {"type": "note_off", "time": 105, "note": 53, "velocity": 104, "channel": 0}, {"type": "note_on", "time": 3, "note": 55, "velocity": 105, "channel": 0}, {"type": "note_off", "time": 91, "note": 55, "velocity": 105, "channel": 0}, {"type": "note_on", "time": 18, "note": 60, "velocity": 114, "channel": 0}, {"type": "note_off", "time": 103, "note": 60, "velocity": 114, "channel": 0}, {"type": "note_on", "time": 11, "note": 55, "velocity": 102, "channel": 0}, {"type": "note_off", "time": 74, "note": 55, "velocity": 102, "channel": 0}, {"type": "note_on", "time": 14, "note": 53, "velocity": 99, "channel": 0}, {"type": "note_off", "time": 56, "note": 53, "velocity": 99, "channel": 0}, {"type": "note_on", "time": 4, "note": 55, "velocity": 112, "channel": 0}, {"type": "note_off", "time": 78, "note": 55, "velocity": 112, "channel": 0}, {"type": "note_on", "time": 17, "note": 53, "velocity": 109, "channel": 0}, {"type": "note_off", "time": 75, "note": 53, "velocity": 109, "channel": 0}, {"type": "note_on", "time": 19, "note": 55, "velocity": 107, "channel": 0}, {"type": "note_off", "time": 114, "note": 55, "velocity": 107, "channel": 0}, {"type": "note_on", "time": 16, "note": 53, "velocity": 98, "channel": 0}, {"type": "note_off", "time": 46, "note": 53, "velocity": 98, "channel": 0}, {"type": "note_on", "time": 8, "note": 56, "velocity": 113, "channel": 0}, {"type": "note_off", "time": 88, "note": 56, "velocity": 113, "channel": 0}, {"type": "note_on", "time": 11, "note": 53, "velocity": 106, "channel": 0}, {"type": "note_off", "time": 66, "note": 53, "velocity": 106, "channel": 0}, {"type": "note_on", "time": 16, "note": 56, "velocity": 110, "channel": 0}, {"type": "note_off", "time": 91, "note": 56, "velocity": 110, "channel": 0}, {"type": "note_on", "time": 24, "note": 53, "velocity": 102, "channel": 0}, {"type": "note_off", "time": 78, "note": 53, "velocity": 102, "channel": 0}, {"type": "note_on", "time": 34, "note": 56, "velocity": 115, "channel": 0}, {"type": "note_off", "time": 95, "note": 56, "velocity": 115, "channel": 0}, {"type": "note_on", "time": 15, "note": 62, "velocity": 115, "channel": 0}, {"type": "note_off", "time": 60, "note": 62, "velocity": 115, "channel": 0}, {"type": "note_on", "time": 27, "note": 56, "velocity": 106, "channel": 0}, {"type": "note_off", "time": 87, "note": 56, "velocity": 106, "channel": 0}, {"type": "note_on", "time": 22, "note": 53, "velocity": 101, "channel": 0}, {"type": "note_off", "time": 66, "note": 53, "velocity": 101, "channel": 0}, {"type": "note_on", "time": 7, "note": 56, "velocity": 114, "channel": 0}, {"type": "note_off", "time": 87, "note": 56, "velocity": 114, "channel": 0}, {"type": "note_on", "time": 33, "note": 53, "velocity": 99, "channel": 0}, {"type": "note_off", "time": 49, "note": 53, "velocity": 99, "channel": 0}, {"type": "note_on", "time": 28, "note": 56, "velocity": 121, "channel": 0}, {"type": "note_off", "time": 86, "note": 56, "velocity": 121, "channel": 0}, {"type": "note_on", "time": 21, "note": 62, "velocity": 112, "channel": 0}, {"type": "note_off", "time": 66, "note": 62, "velocity": 112, "channel": 0}, {"type": "note_on", "time": 16, "note": 56, "velocity": 109, "channel": 0}, {"type": "note_off", "time": 87, "note": 56, "velocity": 109, "channel": 0}, {"type": "note_on", "time": 20, "note": 53, "velocity": 110, "channel": 0}, {"type": "note_off", "time": 65, "note": 53, "velocity": 110, "channel": 0}, {"type": "note_on", "time": 9, "note": 56, "velocity": 117, "channel": 0}, {"type": "note_off", "time": 104, "note": 56, "velocity": 117, "channel": 0}, {"type": "note_on", "time": 27, "note": 53, "velocity": 96, "channel": 0}, {"type": "note_off", "time": 78, "note": 53, "velocity": 96, "channel": 0}, {"type": "note_on", "time": 7, "note": 55, "velocity": 101, "channel": 0}, {"type": "note_off", "time": 245, "note": 55, "velocity": 101, "channel": 0}, {"type": "note_on", "time": 250, "note": 55, "velocity": 116, "channel": 0}, {"type": "note_off", "time": 75, "note": 55, "velocity": 116, "channel": 0}, {"type": "note_on", "time": 19, "note": 48, "velocity": 112, "channel": 0}, {"type": "note_off", "time": 90, "note": 48, "velocity": 112, "channel": 0}, {"type": "note_on", "time": 7, "note": 50, "velocity": 107, "channel": 0}, {"type": "note_off", "time": 46, "note": 50, "velocity": 107, "channel": 0}, {"type": "note_on", "time": 6, "note": 51, "velocity": 111, "channel": 0}, {"type": "note_off", "time": 90, "note": 51, "velocity": 111, "channel": 0}, {"type": "note_on", "time": 14, "note": 52, "velocity": 118, "channel": 0}, {"type": "note_off", "time": 46, "note": 52, "velocity": 118, "channel": 0}, {"type": "note_on", "time": 12, "note": 53, "velocity": 119, "channel": 0}, {"type": "note_off", "time": 50, "note": 53, "velocity": 119, "channel": 0}, {"type": "note_on", "time": 6, "note": 54, "velocity": 105, "channel": 0}, {"type": "note_off", "time": 376, "note": 54, "velocity": 105, "channel": 0}, {"type": "note_on", "time": 2, "note": 53, "velocity": 107, "channel": 0}, {"type": "note_off", "time": 112, "note": 53, "velocity": 107, "channel": 0}, {"type": "note_on", "time": 8, "note": 58, "velocity": 110, "channel": 0}, {"type": "note_off", "time": 204, "note": 58, "velocity": 110, "channel": 0}, {"type": "note_on", "time": 78, "note": 55, "velocity": 110, "channel": 0}, {"type": "note_off", "time": 101, "note": 55, "velocity": 110, "channel": 0}, {"type": "note_on", "time": 12, "note": 57, "velocity": 107, "channel": 0}, {"type": "note_off", "time": 77, "note": 57, "velocity": 107, "channel": 0}, {"type": "note_on", "time": 11, "note": 61, "velocity": 117, "channel": 0}, {"type": "note_off", "time": 88, "note": 61, "velocity": 117, "channel": 0}, {"type": "note_on", "time": 14, "note": 62, "velocity": 114, "channel": 0}, {"type": "note_off", "time": 50, "note": 62, "velocity": 114, "channel": 0}, {"type": "note_on", "time": 9, "note": 63, "velocity": 117, "channel": 0}, {"type": "note_off", "time": 81, "note": 63, "velocity": 117, "channel": 0}, {"type": "note_on", "time": 17, "note": 64, "velocity": 107, "channel": 0}, {"type": "note_off", "time": 73, "note": 64, "velocity": 107, "channel": 0}, {"type": "note_on", "time": 24, "note": 65, "velocity": 107, "channel": 0}, {"type": "note_off", "time": 74, "note": 65, "velocity": 107, "channel": 0}, {"type": "note_on", "time": 5, "note": 67, "velocity": 104, "channel": 0}, {"type": "note_off", "time": 40, "note": 67, "velocity": 104, "channel": 0}, {"type": "note_on", "time": 5, "note": 65, "velocity": 102, "channel": 0}, {"type": "note_off", "time": 66, "note": 65, "velocity": 102, "channel": 0}, {"type": "note_on", "time": 28, "note": 63, "velocity": 109, "channel": 0}, {"type": "note_off", "time": 68, "note": 63, "velocity": 109, "channel": 0}, {"type": "note_on", "time": 0, "note": 65, "velocity": 100, "channel": 0}, {"type": "note_off", "time": 37, "note": 65, "velocity": 100, "channel": 0}, {"type": "note_on", "time": 14, "note": 63, "velocity": 115, "channel": 0}, {"type": "note_off", "time": 77, "note": 63, "velocity": 115, "channel": 0}, {"type": "note_on", "time": 20, "note": 61, "velocity": 107, "channel": 0}, {"type": "note_off", "time": 66, "note": 61, "velocity": 107, "channel": 0}, {"type": "note_on", "time": 11, "note": 62, "velocity": 97, "channel": 0}, {"type": "note_off", "time": 219, "note": 62, "velocity": 97, "channel": 0}, {"type": "end_of_track", "time": 0}]]}