{"ticks_per_beat": 192, "tracks": [[{"type": "track_name", "name": "Melody", "time": 0}, {"type": "set_tempo", "tempo": 260869, "time": 0}, {"type": "key_signature", "key": "Eb", "time": 0}, {"type": "time_signature", "numerator": 4, "denominator": 4, "clocks_per_click": 24, "notated_32nd_notes_per_beat": 8, "time": 0}, {"type": "note_on", "time": 4181, "note": 60, "velocity": 115, "channel": 0}, {"type": "note_off", "time": 267, "note": 60, "velocity": 115, "channel": 0}, {"type": "note_on", "time": 75, "note": 62, "velocity": 101, "channel": 0}, {"type": "note_off", "time": 264, "note": 62, "velocity": 101, "channel": 0}, {"type": "note_on", "time": 485, "note": 55, "velocity": 96, "channel": 0}, {"type": "note_off", "time": 55, "note": 55, "velocity": 96, "channel": 0}, {"type": "note_on", "time": 34, "note": 60, "velocity": 127, "channel": 0}, {"type": "note_off", "time": 89, "note": 60, "velocity": 127, "channel": 0}, {"type": "note_on", "time": 34, "note": 62, "velocity": 113, "channel": 0}, {"type": "note_off", "time": 53, "note": 62, "velocity": 113, "channel": 0}, {"type": "note_on", "time": 14, "note": 63, "velocity": 106, "channel": 0}, {"type": "note_off", "time": 117, "note": 63, "velocity": 106, "channel": 0}, {"type": "note_on", "time": 14, "note": 65, "velocity": 96, "channel": 0}, {"type": "note_off", "time": 53, "note": 65, "velocity": 96, "channel": 0}, {"type": "note_on", "time": 14, "note": 67, "velocity": 109, "channel": 0}, {"type": "note_off", "time": 102, "note": 67, "velocity": 109, "channel": 0}, {"type": "note_on", "time": 23, "note": 63, "velocity": 107, "channel": 0}, {"type": "note_off", "time": 59, "note": 63, "velocity": 107, "channel": 0}, {"type": "note_on", "time": 10, "note": 65, "velocity": 106, "channel": 0}, {"type": "note_off", "time": 87, "note": 65, "velocity": 106, "channel": 0}, {"type": "note_on", "time": 14, "note": 67, "velocity": 99, "channel": 0}, {"type": "note_off", "time": 21, "note": 67, "velocity": 99, "channel": 0}, {"type": "note_on", "time": 12, "note": 65, "velocity": 101, "channel": 0}, {"type": "note_off", "time": 42, "note": 65, "velocity": 101, "channel": 0}, {"type": "note_on", "time": 10, "note": 63, "velocity": 113, "channel": 0}, {"type": "note_off", "time": 81, "note": 63, "velocity": 113, "channel": 0}, {"type": "note_on", "time": 23, "note": 60, "velocity": 117, "channel": 0}, {"type": "note_off", "time": 63, "note": 60, "velocity": 117, "channel": 0}, {"type": "note_on", "time": 19, "note": 55, "velocity": 101, "channel": 0}, {"type": "note_off", "time": 103, "note": 55, "velocity": 101, "channel": 0}, {"type": "note_on", "time": 31, "note": 51, "velocity": 102, "channel": 0}, {"type": "note_off", "time": 76, "note": 51, "velocity": 102, "channel": 0}, {"type": "note_on", "time": 18, "note": 48, "velocity": 100, "channel": 0}, {"type": "note_off", "time": 66, "note": 48, "velocity": 100, "channel": 0}, {"type": "note_on", "time": 9, "note": 50, "velocity": 100, "channel": 0}, {"type": "note_off", "time": 87, "note": 50, "velocity": 100, "channel": 0}, {"type": "note_on", "time": 6, "note": 51, "velocity": 106, "channel": 0}, {"type": "note_off", "time": 67, "note": 51, "velocity": 106, "channel": 0}, {"type": "note_on", "time": 25, "note": 53, "velocity": 106, "channel": 0}, {"type": "note_off", "time": 81, "note": 53, "velocity": 106, "channel": 0}, {"type": "note_on", "time": 27, "note": 56, "velocity": 101, "channel": 0}, {"type": "note_off", "time": 88, "note": 56, "velocity": 101, "channel": 0}, {"type": "note_on", "time": 24, "note": 53, "velocity": 96, "channel": 0}, {"type": "note_off", "time": 40, "note": 53, "velocity": 96, "channel": 0}, {"type": "note_on", "time": 15, "note": 56, "velocity": 103, "channel": 0}, {"type": "note_off", "time": 81, "note": 56, "velocity": 103, "channel": 0}, {"type": "note_on", "time": 31, "note": 53, "velocity": 105, "channel": 0}, {"type": "note_off", "time": 57, "note": 53, "velocity": 105, "channel": 0}, {"type": "note_on", "time": 36, "note": 55, "velocity": 95, "channel": 0}, {"type": "note_off", "time": 303, "note": 55, "velocity": 95, "channel": 0}, {"type": "note_on", "time": 15, "note": 56, "velocity": 108, "channel": 0}, {"type": "note_off", "time": 16, "note": 56, "velocity": 108, "channel": 0}, {"type": "note_on", "time": 18, "note": 58, "velocity": 107, "channel": 0}, {"type": "note_off", "time": 73, "note": 58, "velocity": 107, "channel": 0}, {"type": "note_on", "time": 6, "note": 59, "velocity": 102, "channel": 0}, {"type": "note_off", "time": 37, "note": 59, "velocity": 102, "channel": 0}, {"type": "note_on", "time": 4, "note": 60, "velocity": 96, "channel": 0}, {"type": "note_off", "time": 210, "note": 60, "velocity": 96, "channel": 0}, {"type": "note_on", "time": 31, "note": 55, "velocity": 96, "channel": 0}, {"type": "note_off", "time": 259, "note": 55, "velocity": 96, "channel": 0}, {"type": "note_on", "time": 117, "note": 53, "velocity": 108, "channel": 0}, {"type": "note_off", "time": 61, "note": 53, "velocity": 108, "channel": 0}, {"type": "note_on", "time": 30, "note": 56, "velocity": 100, "channel": 0}, {"type": "note_off", "time": 69, "note": 56, "velocity": 100, "channel": 0}, {"type": "note_on", "time": 37, "note": 53, "velocity": 108, "channel": 0}, {"type": "note_off", "time": 69, "note": 53, "velocity": 108, "channel": 0}, {"type": "note_on", "time": 25, "note": 55, "velocity": 103, "channel": 0}, {"type": "note_off", "time": 76, "note": 55, "velocity": 103, "channel": 0}, {"type": "note_on", "time": 18, "note": 51, "velocity": 105, "channel": 0}, {"type": "note_off", "time": 64, "note": 51, "velocity": 105, "channel": 0}, {"type": "note_on", "time": 27, "note": 53, "velocity": 112, "channel": 0}, {"type": "note_off", "time": 84, "note": 53, "velocity": 112, "channel": 0}, {"type": "note_on", "time": 31, "note": 50, "velocity": 103, "channel": 0}, {"type": "note_off", "time": 85, "note": 50, "velocity": 103, "channel": 0}, {"type": "note_on", "time": 13, "note": 51, "velocity": 99, "channel": 0}, {"type": "note_off", "time": 64, "note": 51, "velocity": 99, "channel": 0}, {"type": "note_on", "time": 31, "note": 53, "velocity": 108, "channel": 0}, {"type": "note_off", "time": 49, "note": 53, "velocity": 108, "channel": 0}, {"type": "note_on", "time": 19, "note": 55, "velocity": 102, "channel": 0}, {"type": "note_off", "time": 63, "note": 55, "velocity": 102, "channel": 0}, {"type": "note_on", "time": 25, "note": 60, "velocity": 101, "channel": 0}, {"type": "note_off", "time": 554, "note": 60, "velocity": 101, "channel": 0}, {"type": "note_on", "time": 498, "note": 69, "velocity": 122, "channel": 0}, {"type": "note_off", "time": 90, "note": 69, "velocity": 122, "channel": 0}, {"type": "note_on", "time": 25, "note": 67, "velocity": 114, "channel": 0}, {"type": "note_off", "time": 55, "note": 67, "velocity": 114, "channel": 0}, {"type": "note_on", "time": 31, "note": 63, "velocity": 112, "channel": 0}, {"type": "note_off", "time": 73, "note": 63, "velocity": 112, "channel": 0}, {"type": "note_on", "time": 16, "note": 62, "velocity": 111, "channel": 0}, {"type": "note_off", "time": 64, "note": 62, "velocity": 111, "channel": 0}, {"type": "note_on", "time": 25, "note": 60, "velocity": 121, "channel": 0}, {"type": "note_off", "time": 91, "note": 60, "velocity": 121, "channel": 0}, {"type": "note_on", "time": 31, "note": 56, "velocity": 97, "channel": 0}, {"type": "note_off", "time": 49, "note": 56, "velocity": 97, "channel": 0}, {"type": "note_on", "time": 13, "note": 55, "velocity": 94, "channel": 0}, {"type": "note_off", "time": 97, "note": 55, "velocity": 94, "channel": 0}, {"type": "note_on", "time": 39, "note": 51, "velocity": 91, "channel": 0}, {"type": "note_off", "time": 60, "note": 51, "velocity": 91, "channel": 0}, {"type": "note_on", "time": 10, "note": 57, "velocity": 93, "channel": 0}, {"type": "note_off", "time": 87, "note": 57, "velocity": 93, "channel": 0}, {"type": "note_on", "time": 31, "note": 53, "velocity": 97, "channel": 0}, {"type": "note_off", "time": 49, "note": 53, "velocity": 97, "channel": 0}, {"type": "note_on", "time": 9, "note": 55, "velocity": 98, "channel": 0}, {"type": "note_off", "time": 97, "note": 55, "velocity": 98, "channel": 0}, {"type": "note_on", "time": 37, "note": 51, "velocity": 100, "channel": 0}, {"type": "note_off", "time": 49, "note": 51, "velocity": 100, "channel": 0}, {"type": "note_on", "time": 22, "note": 53, "velocity": 106, "channel": 0}, {"type": "note_off", "time": 231, "note": 53, "velocity": 106, "channel": 0}, {"type": "note_on", "time": 21, "note": 50, "velocity": 102, "channel": 0}, {"type": "note_off", "time": 54, "note": 50, "velocity": 102, "channel": 0}, {"type": "note_on", "time": 15, "note": 51, "velocity": 110, "channel": 0}, {"type": "note_off", "time": 102, "note": 51, "velocity": 110, "channel": 0}, {"type": "note_on", "time": 30, "note": 48, "velocity": 97, "channel": 0}, {"type": "note_off", "time": 69, "note": 48, "velocity": 97, "channel": 0}, {"type": "note_on", "time": 9, "note": 50, "velocity": 106, "channel": 0}, {"type": "note_off", "time": 52, "note": 50, "velocity": 106, "channel": 0}, {"type": "note_on", "time": 18, "note": 51, "velocity": 105, "channel": 0}, {"type": "note_off", "time": 76, "note": 51, "velocity": 105, "channel": 0}, {"type": "note_on", "time": 10, "note": 53, "velocity": 110, "channel": 0}, {"type": "note_off", "time": 64, "note": 53, "velocity": 110, "channel": 0}, {"type": "note_on", "time": 21, "note": 55, "velocity": 105, "channel": 0}, {"type": "note_off", "time": 66, "note": 55, "velocity": 105, "channel": 0}, {"type": "note_on", "time": 12, "note": 60, "velocity": 108, "channel": 0}, {"type": "note_off", "time": 527, "note": 60, "velocity": 108, "channel": 0}, {"type": "note_on", "time": 39, "note": 55, "velocity": 103, "channel": 0}, {"type": "note_off", "time": 88, "note": 55, "velocity": 103, "channel": 0}, {"type": "note_on", "time": 12, "note": 56, "velocity": 91, "channel": 0}, {"type": "note_off", "time": 190, "note": 56, "velocity": 91, "channel": 0}, {"type": "note_on", "time": 10, "note": 55, "velocity": 94, "channel": 0}, {"type": "note_off", "time": 42, "note": 55, "velocity": 94, "channel": 0}, {"type": "note_on", "time": 24, "note": 53, "velocity": 108, "channel": 0}, {"type": "note_off", "time": 90, "note": 53, "velocity": 108, "channel": 0}, {"type": "note_on", "time": 10, "note": 55, "velocity": 104, "channel": 0}, {"type": "note_off", "time": 84, "note": 55, "velocity": 104, "channel": 0}, {"type": "note_on", "time": 16, "note": 60, "velocity": 110, "channel": 0}, {"type": "note_off", "time": 402, "note": 60, "velocity": 110, "channel": 0}, {"type": "note_on", "time": 551, "note": 67, "velocity": 119, "channel": 0}, {"type": "note_off", "time": 81, "note": 67, "velocity": 119, "channel": 0}, {"type": "note_on", "time": 13, "note": 68, "velocity": 120, "channel": 0}, {"type": "note_off", "time": 90, "note": 68, "velocity": 120, "channel": 0}, {"type": "note_on", "time": 24, "note": 65, "velocity": 93, "channel": 0}, {"type": "note_off", "time": 55, "note": 65, "velocity": 93, "channel": 0}, {"type": "note_on", "time": 7, "note": 67, "velocity": 119, "channel": 0}, {"type": "note_off", "time": 109, "note": 67, "velocity": 119, "channel": 0}, {"type": "note_on", "time": 27, "note": 63, "velocity": 108, "channel": 0}, {"type": "note_off", "time": 64, "note": 63, "velocity": 108, "channel": 0}, {"type": "note_on", "time": 18, "note": 65, "velocity": 105, "channel": 0}, {"type": "note_off", "time": 84, "note": 65, "velocity": 105, "channel": 0}, {"type": "note_on", "time": 16, "note": 62, "velocity": 107, "channel": 0}, {"type": "note_off", "time": 82, "note": 62, "velocity": 107, "channel": 0}, {"type": "note_on", "time": 6, "note": 63, "velocity": 103, "channel": 0}, {"type": "note_off", "time": 181, "note": 63, "velocity": 103, "channel": 0}, {"type": "note_on", "time": 21, "note": 60, "velocity": 118, "channel": 0}, {"type": "note_off", "time": 106, "note": 60, "velocity": 118, "channel": 0}, {"type": "note_on", "time": 28, "note": 55, "velocity": 100, "channel": 0}, {"type": "note_off", "time": 163, "note": 55, "velocity": 100, "channel": 0}, {"type": "note_on", "time": 34, "note": 51, "velocity": 96, "channel": 0}, {"type": "note_off", "time": 45, "note": 51, "velocity": 96, "channel": 0}, {"type": "note_on", "time": 21, "note": 55, "velocity": 96, "channel": 0}, {"type": "note_off", "time": 261, "note": 55, "velocity": 96, "channel": 0}, {"type": "note_on", "time": 34, "note": 60, "velocity": 91, "channel": 0}, {"type": "note_off", "time": 331, "note": 60, "velocity": 91, "channel": 0}, {"type": "note_on", "time": 31, "note": 57, "velocity": 98, "channel": 0}, {"type": "note_off", "time": 232, "note": 57, "velocity": 98, "channel": 0}, {"type": "note_on", "time": 422, "note": 69, "velocity": 116, "channel": 0}, {"type": "note_off", "time": 115, "note": 69, "velocity": 116, "channel": 0}, {"type": "note_on", "time": 9, "note": 67, "velocity": 109, "channel": 0}, {"type": "note_off", "time": 67, "note": 67, "velocity": 109, "channel": 0}, {"type": "note_on", "time": 21, "note": 64, "velocity": 104, "channel": 0}, {"type": "note_off", "time": 76, "note": 64, "velocity": 104, "channel": 0}, {"type": "note_on", "time": 21, "note": 62, "velocity": 107, "channel": 0}, {"type": "note_off", "time": 91, "note": 62, "velocity": 107, "channel": 0}, {"type": "note_on", "time": 19, "note": 58, "velocity": 92, "channel": 0}, {"type": "note_off", "time": 75, "note": 58, "velocity": 92, "channel": 0}, {"type": "note_on", "time": 33, "note": 57, "velocity": 96, "channel": 0}, {"type": "note_off", "time": 60, "note": 57, "velocity": 96, "channel": 0}, {"type": "note_on", "time": 18, "note": 55, "velocity": 97, "channel": 0}, {"type": "note_off", "time": 78, "note": 55, "velocity": 97, "channel": 0}, {"type": "note_on", "time": 28, "note": 53, "velocity": 103, "channel": 0}, {"type": "note_off", "time": 61, "note": 53, "velocity": 103, "channel": 0}, {"type": "note_on", "time": 33, "note": 52, "velocity": 98, "channel": 0}, {"type": "note_off", "time": 96, "note": 52, "velocity": 98, "channel": 0}, {"type": "note_on", "time": 6, "note": 51, "velocity": 97, "channel": 0}, {"type": "note_off", "time": 60, "note": 51, "velocity": 97, "channel": 0}, {"type": "note_on", "time": 21, "note": 55, "velocity": 105, "channel": 0}, {"type": "note_off", "time": 99, "note": 55, "velocity": 105, "channel": 0}, {"type": "note_on", "time": 49, "note": 53, "velocity": 106, "channel": 0}, {"type": "note_off", "time": 274, "note": 53, "velocity": 106, "channel": 0}, {"type": "note_on", "time": 425, "note": 53, "velocity": 109, "channel": 0}, {"type": "note_off", "time": 79, "note": 53, "velocity": 109, "channel": 0}, {"type": "note_on", "time": 13, "note": 57, "velocity": 102, "channel": 0}, {"type": "note_off", "time": 52, "note": 57, "velocity": 102, "channel": 0}, {"type": "note_on", "time": 21, "note": 60, "velocity": 120, "channel": 0}, {"type": "note_off", "time": 91, "note": 60, "velocity": 120, "channel": 0}, {"type": "note_on", "time": 21, "note": 63, "velocity": 111, "channel": 0}, {"type": "note_off", "time": 82, "note": 63, "velocity": 111, "channel": 0}, {"type": "note_on", "time": 1, "note": 67, "velocity": 107, "channel": 0}, {"type": "note_off", "time": 63, "note": 67, "velocity": 107, "channel": 0}, {"type": "note_on", "time": 19, "note": 65, "velocity": 104, "channel": 0}, {"type": "note_off", "time": 81, "note": 65, "velocity": 104, "channel": 0}, {"type": "note_on", "time": 7, "note": 67, "velocity": 102, "channel": 0}, {"type": "note_off", "time": 46, "note": 67, "velocity": 102, "channel": 0}, {"type": "note_on", "time": 7, "note": 65, "velocity": 101, "channel": 0}, {"type": "note_off", "time": 54, "note": 65, "velocity": 101, "channel": 0}, {"type": "note_on", "time": 10, "note": 62, "velocity": 110, "channel": 0}, {"type": "note_off", "time": 91, "note": 62, "velocity": 110, "channel": 0}, {"type": "note_on", "time": 7, "note": 60, "velocity": 119, "channel": 0}, {"type": "note_off", "time": 82, "note": 60, "velocity": 119, "channel": 0}, {"type": "note_on", "time": 19, "note": 56, "velocity": 105, "channel": 0}, {"type": "note_off", "time": 84, "note": 56, "velocity": 105, "channel": 0}, {"type": "note_on", "time": 15, "note": 53, "velocity": 107, "channel": 0}, {"type": "note_off", "time": 79, "note": 53, "velocity": 107, "channel": 0}, {"type": "note_on", "time": 18, "note": 50, "velocity": 99, "channel": 0}, {"type": "note_off", "time": 78, "note": 50, "velocity": 99, "channel": 0}, {"type": "note_on", "time": 15, "note": 48, "velocity": 90, "channel": 0}, {"type": "note_off", "time": 61, "note": 48, "velocity": 90, "channel": 0}, {"type": "note_on", "time": 18, "note": 55, "velocity": 107, "channel": 0}, {"type": "note_off", "time": 87, "note": 55, "velocity": 107, "channel": 0}, {"type": "note_on", "time": 16, "note": 53, "velocity": 109, "channel": 0}, {"type": "note_off", "time": 63, "note": 53, "velocity": 109, "channel": 0}, {"type": "note_on", "time": 24, "note": 56, "velocity": 102, "channel": 0}, {"type": "note_off", "time": 276, "note": 56, "velocity": 102, "channel": 0}, {"type": "note_on", "time": 16, "note": 53, "velocity": 110, "channel": 0}, {"type": "note_off", "time": 43, "note": 53, "velocity": 110, "channel": 0}, {"type": "note_on", "time": 19, "note": 55, "velocity": 105, "channel": 0}, {"type": "note_off", "time": 94, "note": 55, "velocity": 105, "channel": 0}, {"type": "note_on", "time": 58, "note": 55, "velocity": 103, "channel": 0}, {"type": "note_off", "time": 150, "note": 55, "velocity": 103, "channel": 0}, {"type": "note_on", "time": 22, "note": 51, "velocity": 102, "channel": 0}, {"type": "note_off", "time": 57, "note": 51, "velocity": 102, "channel": 0}, {"type": "note_on", "time": 16, "note": 53, "velocity": 111, "channel": 0}, {"type": "note_off", "time": 108, "note": 53, "velocity": 111, "channel": 0}, {"type": "note_on", "time": 19, "note": 50, "velocity": 101, "channel": 0}, {"type": "note_off", "time": 66, "note": 50, "velocity": 101, "channel": 0}, {"type": "note_on", "time": 6, "note": 51, "velocity": 112, "channel": 0}, {"type": "note_off", "time": 93, "note": 51, "velocity": 112, "channel": 0}, {"type": "note_on", "time": 13, "note": 55, "velocity": 103, "channel": 0}, {"type": "note_off", "time": 66, "note": 55, "velocity": 103, "channel": 0}, {"type": "note_on", "time": 19, "note": 58, "velocity": 94, "channel": 0}, {"type": "note_off", "time": 69, "note": 58, "velocity": 94, "channel": 0}, {"type": "note_on", "time": 22, "note": 63, "velocity": 103, "channel": 0}, {"type": "note_off", "time": 283, "note": 63, "velocity": 103, "channel": 0}, {"type": "note_on", "time": 21, "note": 62, "velocity": 103, "channel": 0}, {"type": "note_off", "time": 106, "note": 62, "velocity": 103, "channel": 0}, {"type": "note_on", "time": 74, "note": 55, "velocity": 104, "channel": 0}, {"type": "note_off", "time": 154, "note": 55, "velocity": 104, "channel": 0}, {"type": "note_on", "time": 16, "note": 62, "velocity": 111, "channel": 0}, {"type": "note_off", "time": 114, "note": 62, "velocity": 111, "channel": 0}, {"type": "note_on", "time": 10, "note": 65, "velocity": 108, "channel": 0}, {"type": "note_off", "time": 94, "note": 65, "velocity": 108, "channel": 0}, {"type": "note_on", "time": 10, "note": 67, "velocity": 110, "channel": 0}, {"type": "note_off", "time": 174, "note": 67, "velocity": 110, "channel": 0}, {"type": "note_on", "time": 12, "note": 63, "velocity": 102, "channel": 0}, {"type": "note_off", "time": 355, "note": 63, "velocity": 102, "channel": 0}, {"type": "note_on", "time": 337, "note": 55, "velocity": 80, "channel": 0}, {"type": "note_off", "time": 43, "note": 55, "velocity": 80, "channel": 0}, {"type": "note_on", "time": 25, "note": 63, "velocity": 107, "channel": 0}, {"type": "note_off", "time": 136, "note": 63, "velocity": 107, "channel": 0}, {"type": "note_on", "time": 12, "note": 55, "velocity": 97, "channel": 0}, {"type": "note_off", "time": 58, "note": 55, "velocity": 97, "channel": 0}, {"type": "note_on", "time": 16, "note": 57, "velocity": 89, "channel": 0}, {"type": "note_off", "time": 153, "note": 57, "velocity": 89, "channel": 0}, {"type": "note_on", "time": 25, "note": 62, "velocity": 112, "channel": 0}, {"type": "note_off", "time": 118, "note": 62, "velocity": 112, "channel": 0}, {"type": "note_on", "time": 24, "note": 55, "velocity": 93, "channel": 0}, {"type": "note_off", "time": 39, "note": 55, "velocity": 93, "channel": 0}, {"type": "note_on", "time": 21, "note": 57, "velocity": 91, "channel": 0}, {"type": "note_off", "time": 52, "note": 57, "velocity": 91, "channel": 0}, {"type": "note_on", "time": 40, "note": 60, "velocity": 112, "channel": 0}, {"type": "note_off", "time": 417, "note": 60, "velocity": 112, "channel": 0}, {"type": "note_on", "time": 172, "note": 54, "velocity": 105, "channel": 0}, {"type": "note_off", "time": 60, "note": 54, "velocity": 105, "channel": 0}, {"type": "note_on", "time": 18, "note": 57, "velocity": 94, "channel": 0}, {"type": "note_off", "time": 163, "note": 57, "velocity": 94, "channel": 0}, {"type": "note_on", "time": 31, "note": 63, "velocity": 107, "channel": 0}, {"type": "note_off", "time": 124, "note": 63, "velocity": 107, "channel": 0}, {"type": "note_on", "time": 16, "note": 55, "velocity": 100, "channel": 0}, {"type": "note_off", "time": 61, "note": 55, "velocity": 100, "channel": 0}, {"type": "note_on", "time": 15, "note": 57, "velocity": 96, "channel": 0}, {"type": "note_off", "time": 73, "note": 57, "velocity": 96, "channel": 0}, {"type": "note_on", "time": 24, "note": 62, "velocity": 109, "channel": 0}, {"type": "note_off", "time": 84, "note": 62, "velocity": 109, "channel": 0}, {"type": "note_on", "time": 15, "note": 60, "velocity": 114, "channel": 0}, {"type": "note_off", "time": 84, "note": 60, "velocity": 114, "channel": 0}, {"type": "note_on", "time": 13, "note": 55, "velocity": 99, "channel": 0}, {"type": "note_off", "time": 76, "note": 55, "velocity": 99, "channel": 0}, {"type": "note_on", "time": 18, "note": 51, "velocity": 96, "channel": 0}, {"type": "note_off", "time": 121, "note": 51, "velocity": 96, "channel": 0}, {"type": "note_on", "time": 45, "note": 55, "velocity": 105, "channel": 0}, {"type": "note_off", "time": 112, "note": 55, "velocity": 105, "channel": 0}, {"type": "note_on", "time": 18, "note": 48, "velocity": 101, "channel": 0}, {"type": "note_off", "time": 63, "note": 48, "velocity": 101, "channel": 0}, {"type": "note_on", "time": 15, "note": 51, "velocity": 108, "channel": 0}, {"type": "note_off", "time": 70, "note": 51, "velocity": 108, "channel": 0}, {"type": "note_on", "time": 4, "note": 52, "velocity": 102, "channel": 0}, {"type": "note_off", "time": 12, "note": 52, "velocity": 102, "channel": 0}, {"type": "note_on", "time": 7, "note": 54, "velocity": 104, "channel": 0}, {"type": "note_off", "time": 19, "note": 54, "velocity": 104, "channel": 0}, {"type": "note_on", "time": 13, "note": 56, "velocity": 106, "channel": 0}, {"type": "note_off", "time": 54, "note": 56, "velocity": 106, "channel": 0}, {"type": "note_on", "time": 15, "note": 57, "velocity": 102, "channel": 0}, {"type": "note_off", "time": 40, "note": 57, "velocity": 102, "channel": 0}, {"type": "note_on", "time": 9, "note": 58, "velocity": 104, "channel": 0}, {"type": "note_off", "time": 43, "note": 58, "velocity": 104, "channel": 0}, {"type": "note_on", "time": 7, "note": 60, "velocity": 102, "channel": 0}, {"type": "note_off", "time": 184, "note": 60, "velocity": 102, "channel": 0}, {"type": "note_on", "time": 9, "note": 55, "velocity": 106, "channel": 0}, {"type": "note_off", "time": 268, "note": 55, "velocity": 106, "channel": 0}, {"type": "note_on", "time": 79, "note": 53, "velocity": 107, "channel": 0}, {"type": "note_off", "time": 96, "note": 53, "velocity": 107, "channel": 0}, {"type": "note_on", "time": 12, "note": 56, "velocity": 104, "channel": 0}, {"type": "note_off", "time": 126, "note": 56, "velocity": 104, "channel": 0}, {"type": "note_on", "time": 15, "note": 53, "velocity": 107, "channel": 0}, {"type": "note_off", "time": 84, "note": 53, "velocity": 107, "channel": 0}, {"type": "end_of_track", "time": 0}]]}