{"ticks_per_beat": 420, "tracks": [[{"type": "track_name", "name": "Melody", "time": 0}, {"type": "set_tempo", "tempo": 397350, "time": 0}, {"type": "key_signature", "key": "Bb", "time": 0}, {"type": "time_signature", "numerator": 4, "denominator": 4, "clocks_per_click": 24, "notated_32nd_notes_per_beat": 8, "time": 0}, {"type": "note_on", "time": 1298, "note": 53, "velocity": 79, "channel": 0}, {"type": "note_off", "time": 232, "note": 53, "velocity": 79, "channel": 0}, {"type": "note_on", "time": 51, "note": 55, "velocity": 87, "channel": 0}, {"type": "note_off", "time": 131, "note": 55, "velocity": 87, "channel": 0}, {"type": "note_on", "time": 45, "note": 58, "velocity": 88, "channel": 0}, {"type": "note_off", "time": 314, "note": 58, "velocity": 88, "channel": 0}, {"type": "note_on", "time": 1848, "note": 52, "velocity": 89, "channel": 0}, {"type": "note_off", "time": 69, "note": 52, "velocity": 89, "channel": 0}, {"type": "note_on", "time": 19, "note": 55, "velocity": 103, "channel": 0}, {"type": "note_off", "time": 114, "note": 55, "velocity": 103, "channel": 0}, {"type": "note_on", "time": 19, "note": 58, "velocity": 110, "channel": 0}, {"type": "note_off", "time": 107, "note": 58, "velocity": 110, "channel": 0}, {"type": "note_on", "time": 8, "note": 61, "velocity": 112, "channel": 0}, {"type": "note_off", "time": 254, "note": 61, "velocity": 112, "channel": 0}, {"type": "note_on", "time": 28, "note": 62, "velocity": 82, "channel": 0}, {"type": "note_off", "time": 280, "note": 62, "velocity": 82, "channel": 0}, {"type": "note_on", "time": 25, "note": 61, "velocity": 82, "channel": 0}, {"type": "note_off", "time": 56, "note": 61, "velocity": 82, "channel": 0}, {"type": "note_on", "time": 25, "note": 62, "velocity": 84, "channel": 0}, {"type": "note_off", "time": 99, "note": 62, "velocity": 84, "channel": 0}, {"type": "note_on", "time": 12, "note": 58, "velocity": 100, "channel": 0}, {"type": "note_off", "time": 261, "note": 58, "velocity": 100, "channel": 0}, {"type": "note_on", "time": 6, "note": 53, "velocity": 100, "channel": 0}, {"type": "note_off", "time": 183, "note": 53, "velocity": 100, "channel": 0}, {"type": "note_on", "time": 86, "note": 49, "velocity": 80, "channel": 0}, {"type": "note_off", "time": 168, "note": 49, "velocity": 80, "channel": 0}, {"type": "note_on", "time": 41, "note": 50, "velocity": 83, "channel": 0}, {"type": "note_off", "time": 73, "note": 50, "velocity": 83, "channel": 0}, {"type": "note_on", "time": 50, "note": 53, "velocity": 95, "channel": 0}, {"type": "note_off", "time": 224, "note": 53, "velocity": 95, "channel": 0}, {"type": "note_on", "time": 49, "note": 58, "velocity": 90, "channel": 0}, {"type": "note_off", "time": 364, "note": 58, "velocity": 90, "channel": 0}, {"type": "note_on", "time": 1318, "note": 54, "velocity": 87, "channel": 0}, {"type": "note_off", "time": 88, "note": 54, "velocity": 87, "channel": 0}, {"type": "note_on", "time": 38, "note": 55, "velocity": 110, "channel": 0}, {"type": "note_off", "time": 248, "note": 55, "velocity": 110, "channel": 0}, {"type": "note_on", "time": 64, "note": 58, "velocity": 101, "channel": 0}, {"type": "note_off", "time": 114, "note": 58, "velocity": 101, "channel": 0}, {"type": "note_on", "time": 12, "note": 61, "velocity": 117, "channel": 0}, {"type": "note_off", "time": 250, "note": 61, "velocity": 117, "channel": 0}, {"type": "note_on", "time": 23, "note": 63, "velocity": 118, "channel": 0}, {"type": "note_off", "time": 176, "note": 63, "velocity": 118, "channel": 0}, {"type": "note_on", "time": 24, "note": 65, "velocity": 99, "channel": 0}, {"type": "note_off", "time": 187, "note": 65, "velocity": 99, "channel": 0}, {"type": "note_on", "time": 10, "note": 66, "velocity": 85, "channel": 0}, {"type": "note_off", "time": 46, "note": 66, "velocity": 85, "channel": 0}, {"type": "note_on", "time": 12, "note": 65, "velocity": 106, "channel": 0}, {"type": "note_off", "time": 90, "note": 65, "velocity": 106, "channel": 0}, {"type": "note_on", "time": 7, "note": 63, "velocity": 115, "channel": 0}, {"type": "note_off", "time": 283, "note": 63, "velocity": 115, "channel": 0}, {"type": "note_on", "time": 23, "note": 58, "velocity": 90, "channel": 0}, {"type": "note_off", "time": 122, "note": 58, "velocity": 90, "channel": 0}, {"type": "note_on", "time": 6, "note": 61, "velocity": 103, "channel": 0}, {"type": "note_off", "time": 277, "note": 61, "velocity": 103, "channel": 0}, {"type": "note_on", "time": 207, "note": 63, "velocity": 95, "channel": 0}, {"type": "note_off", "time": 398, "note": 63, "velocity": 95, "channel": 0}, {"type": "note_on", "time": 285, "note": 63, "velocity": 121, "channel": 0}, {"type": "note_off", "time": 93, "note": 63, "velocity": 121, "channel": 0}, {"type": "note_on", "time": 8, "note": 64, "velocity": 102, "channel": 0}, {"type": "note_off", "time": 177, "note": 64, "velocity": 102, "channel": 0}, {"type": "note_on", "time": 29, "note": 65, "velocity": 85, "channel": 0}, {"type": "note_off", "time": 485, "note": 65, "velocity": 85, "channel": 0}, {"type": "note_on", "time": 17, "note": 63, "velocity": 106, "channel": 0}, {"type": "note_off", "time": 179, "note": 63, "velocity": 106, "channel": 0}, {"type": "note_on", "time": 35, "note": 61, "velocity": 97, "channel": 0}, {"type": "note_off", "time": 286, "note": 61, "velocity": 97, "channel": 0}, {"type": "note_on", "time": 29, "note": 62, "velocity": 84, "channel": 0}, {"type": "note_off", "time": 337, "note": 62, "velocity": 84, "channel": 0}, {"type": "note_on", "time": 30, "note": 58, "velocity": 94, "channel": 0}, {"type": "note_off", "time": 99, "note": 58, "velocity": 94, "channel": 0}, {"type": "note_on", "time": 51, "note": 53, "velocity": 86, "channel": 0}, {"type": "note_off", "time": 363, "note": 53, "velocity": 86, "channel": 0}, {"type": "note_on", "time": 924, "note": 69, "velocity": 124, "channel": 0}, {"type": "note_off", "time": 233, "note": 69, "velocity": 124, "channel": 0}, {"type": "note_on", "time": 13, "note": 65, "velocity": 125, "channel": 0}, {"type": "note_off", "time": 138, "note": 65, "velocity": 125, "channel": 0}, {"type": "note_on", "time": 21, "note": 62, "velocity": 118, "channel": 0}, {"type": "note_off", "time": 217, "note": 62, "velocity": 118, "channel": 0}, {"type": "note_on", "time": 27, "note": 68, "velocity": 95, "channel": 0}, {"type": "note_off", "time": 122, "note": 68, "velocity": 95, "channel": 0}, {"type": "note_on", "time": 30, "note": 56, "velocity": 95, "channel": 0}, {"type": "note_off", "time": 294, "note": 56, "velocity": 95, "channel": 0}, {"type": "note_on", "time": 30, "note": 55, "velocity": 87, "channel": 0}, {"type": "note_off", "time": 406, "note": 55, "velocity": 87, "channel": 0}, {"type": "note_on", "time": 21, "note": 63, "velocity": 85, "channel": 0}, {"type": "note_off", "time": 607, "note": 63, "velocity": 85, "channel": 0}, {"type": "note_on", "time": 198, "note": 55, "velocity": 93, "channel": 0}, {"type": "note_off", "time": 163, "note": 55, "velocity": 93, "channel": 0}, {"type": "note_on", "time": 33, "note": 54, "velocity": 100, "channel": 0}, {"type": "note_off", "time": 224, "note": 54, "velocity": 100, "channel": 0}, {"type": "note_on", "time": 60, "note": 52, "velocity": 90, "channel": 0}, {"type": "note_off", "time": 249, "note": 52, "velocity": 90, "channel": 0}, {"type": "note_on", "time": 16, "note": 53, "velocity": 84, "channel": 0}, {"type": "note_off", "time": 86, "note": 53, "velocity": 84, "channel": 0}, {"type": "note_on", "time": 40, "note": 50, "velocity": 75, "channel": 0}, {"type": "note_off", "time": 115, "note": 50, "velocity": 75, "channel": 0}, {"type": "note_on", "time": 26, "note": 51, "velocity": 88, "channel": 0}, {"type": "note_off", "time": 303, "note": 51, "velocity": 88, "channel": 0}, {"type": "note_on", "time": 14, "note": 50, "velocity": 83, "channel": 0}, {"type": "note_off", "time": 115, "note": 50, "velocity": 83, "channel": 0}, {"type": "note_on", "time": 28, "note": 51, "velocity": 96, "channel": 0}, {"type": "note_off", "time": 191, "note": 51, "velocity": 96, "channel": 0}, {"type": "note_on", "time": 66, "note": 53, "velocity": 101, "channel": 0}, {"type": "note_off", "time": 72, "note": 53, "velocity": 101, "channel": 0}, {"type": "note_on", "time": 1, "note": 54, "velocity": 94, "channel": 0}, {"type": "note_off", "time": 306, "note": 54, "velocity": 94, "channel": 0}, {"type": "note_on", "time": 208, "note": 53, "velocity": 97, "channel": 0}, {"type": "note_off", "time": 245, "note": 53, "velocity": 97, "channel": 0}, {"type": "note_on", "time": 26, "note": 56, "velocity": 104, "channel": 0}, {"type": "note_off", "time": 69, "note": 56, "velocity": 104, "channel": 0}, {"type": "note_on", "time": 32, "note": 58, "velocity": 87, "channel": 0}, {"type": "note_off", "time": 1121, "note": 58, "velocity": 87, "channel": 0}, {"type": "note_on", "time": 27, "note": 55, "velocity": 81, "channel": 0}, {"type": "note_off", "time": 90, "note": 55, "velocity": 81, "channel": 0}, {"type": "note_on", "time": 33, "note": 53, "velocity": 96, "channel": 0}, {"type": "note_off", "time": 283, "note": 53, "velocity": 96, "channel": 0}, {"type": "note_on", "time": 29, "note": 58, "velocity": 107, "channel": 0}, {"type": "note_off", "time": 131, "note": 58, "velocity": 107, "channel": 0}, {"type": "note_on", "time": 26, "note": 55, "velocity": 80, "channel": 0}, {"type": "note_off", "time": 374, "note": 55, "velocity": 80, "channel": 0}, {"type": "note_on", "time": 716, "note": 53, "velocity": 108, "channel": 0}, {"type": "note_off", "time": 81, "note": 53, "velocity": 108, "channel": 0}, {"type": "note_on", "time": 5, "note": 55, "velocity": 114, "channel": 0}, {"type": "note_off", "time": 124, "note": 55, "velocity": 114, "channel": 0}, {"type": "note_on", "time": 8, "note": 58, "velocity": 115, "channel": 0}, {"type": "note_off", "time": 114, "note": 58, "velocity": 115, "channel": 0}, {"type": "note_on", "time": 8, "note": 61, "velocity": 115, "channel": 0}, {"type": "note_off", "time": 210, "note": 61, "velocity": 115, "channel": 0}, {"type": "note_on", "time": 14, "note": 62, "velocity": 111, "channel": 0}, {"type": "note_off", "time": 90, "note": 62, "velocity": 111, "channel": 0}, {"type": "note_on", "time": 1698, "note": 53, "velocity": 94, "channel": 0}, {"type": "note_off", "time": 107, "note": 53, "velocity": 94, "channel": 0}, {"type": "note_on", "time": 11, "note": 55, "velocity": 97, "channel": 0}, {"type": "note_off", "time": 123, "note": 55, "velocity": 97, "channel": 0}, {"type": "note_on", "time": 13, "note": 58, "velocity": 111, "channel": 0}, {"type": "note_off", "time": 82, "note": 58, "velocity": 111, "channel": 0}, {"type": "note_on", "time": 10, "note": 61, "velocity": 118, "channel": 0}, {"type": "note_off", "time": 381, "note": 61, "velocity": 118, "channel": 0}, {"type": "note_on", "time": 3, "note": 61, "velocity": 116, "channel": 0}, {"type": "note_off", "time": 324, "note": 61, "velocity": 116, "channel": 0}, {"type": "note_on", "time": 2, "note": 61, "velocity": 119, "channel": 0}, {"type": "note_off", "time": 246, "note": 61, "velocity": 119, "channel": 0}, {"type": "note_on", "time": 14, "note": 60, "velocity": 114, "channel": 0}, {"type": "note_off", "time": 331, "note": 60, "velocity": 114, "channel": 0}, {"type": "note_on", "time": 11, "note": 60, "velocity": 97, "channel": 0}, {"type": "note_off", "time": 685, "note": 60, "velocity": 97, "channel": 0}, {"type": "note_on", "time": 5, "note": 58, "velocity": 100, "channel": 0}, {"type": "note_off", "time": 108, "note": 58, "velocity": 100, "channel": 0}, {"type": "note_on", "time": 37, "note": 56, "velocity": 99, "channel": 0}, {"type": "note_off", "time": 223, "note": 56, "velocity": 99, "channel": 0}, {"type": "note_on", "time": 34, "note": 58, "velocity": 99, "channel": 0}, {"type": "note_off", "time": 63, "note": 58, "velocity": 99, "channel": 0}, {"type": "note_on", "time": 19, "note": 60, "velocity": 91, "channel": 0}, {"type": "note_off", "time": 412, "note": 60, "velocity": 91, "channel": 0}, {"type": "note_on", "time": 23, "note": 55, "velocity": 90, "channel": 0}, {"type": "note_off", "time": 240, "note": 55, "velocity": 90, "channel": 0}, {"type": "note_on", "time": 184, "note": 58, "velocity": 87, "channel": 0}, {"type": "note_off", "time": 406, "note": 58, "velocity": 87, "channel": 0}, {"type": "note_on", "time": 540, "note": 53, "velocity": 88, "channel": 0}, {"type": "note_off", "time": 59, "note": 53, "velocity": 88, "channel": 0}, {"type": "note_on", "time": 26, "note": 54, "velocity": 89, "channel": 0}, {"type": "note_off", "time": 68, "note": 54, "velocity": 89, "channel": 0}, {"type": "note_on", "time": 11, "note": 53, "velocity": 93, "channel": 0}, {"type": "note_off", "time": 72, "note": 53, "velocity": 93, "channel": 0}, {"type": "note_on", "time": 48, "note": 51, "velocity": 95, "channel": 0}, {"type": "note_off", "time": 60, "note": 51, "velocity": 95, "channel": 0}, {"type": "note_on", "time": 17, "note": 53, "velocity": 91, "channel": 0}, {"type": "note_off", "time": 377, "note": 53, "velocity": 91, "channel": 0}, {"type": "note_on", "time": 304, "note": 51, "velocity": 88, "channel": 0}, {"type": "note_off", "time": 155, "note": 51, "velocity": 88, "channel": 0}, {"type": "note_on", "time": 16, "note": 53, "velocity": 90, "channel": 0}, {"type": "note_off", "time": 72, "note": 53, "velocity": 90, "channel": 0}, {"type": "note_on", "time": 6, "note": 55, "velocity": 86, "channel": 0}, {"type": "note_off", "time": 82, "note": 55, "velocity": 86, "channel": 0}, {"type": "note_on", "time": 14, "note": 53, "velocity": 93, "channel": 0}, {"type": "note_off", "time": 110, "note": 53, "velocity": 93, "channel": 0}, {"type": "note_on", "time": 5, "note": 51, "velocity": 94, "channel": 0}, {"type": "note_off", "time": 128, "note": 51, "velocity": 94, "channel": 0}, {"type": "note_on", "time": 7, "note": 53, "velocity": 91, "channel": 0}, {"type": "note_off", "time": 71, "note": 53, "velocity": 91, "channel": 0}, {"type": "note_on", "time": 13, "note": 55, "velocity": 88, "channel": 0}, {"type": "note_off", "time": 60, "note": 55, "velocity": 88, "channel": 0}, {"type": "note_on", "time": 8, "note": 53, "velocity": 91, "channel": 0}, {"type": "note_off", "time": 104, "note": 53, "velocity": 91, "channel": 0}, {"type": "note_on", "time": 17, "note": 51, "velocity": 97, "channel": 0}, {"type": "note_off", "time": 123, "note": 51, "velocity": 97, "channel": 0}, {"type": "note_on", "time": 18, "note": 56, "velocity": 112, "channel": 0}, {"type": "note_off", "time": 80, "note": 56, "velocity": 112, "channel": 0}, {"type": "note_on", "time": 11, "note": 58, "velocity": 93, "channel": 0}, {"type": "note_off", "time": 959, "note": 58, "velocity": 93, "channel": 0}, {"type": "note_on", "time": 54, "note": 53, "velocity": 92, "channel": 0}, {"type": "note_off", "time": 118, "note": 53, "velocity": 92, "channel": 0}, {"type": "note_on", "time": 138, "note": 49, "velocity": 84, "channel": 0}, {"type": "note_off", "time": 216, "note": 49, "velocity": 84, "channel": 0}, {"type": "note_on", "time": 165, "note": 51, "velocity": 90, "channel": 0}, {"type": "note_off", "time": 217, "note": 51, "velocity": 90, "channel": 0}, {"type": "note_on", "time": 21, "note": 52, "velocity": 76, "channel": 0}, {"type": "note_off", "time": 74, "note": 52, "velocity": 76, "channel": 0}, {"type": "note_on", "time": 19, "note": 53, "velocity": 95, "channel": 0}, {"type": "note_off", "time": 298, "note": 53, "velocity": 95, "channel": 0}, {"type": "note_on", "time": 18, "note": 58, "velocity": 101, "channel": 0}, {"type": "note_off", "time": 171, "note": 58, "velocity": 101, "channel": 0}, {"type": "note_on", "time": 1499, "note": 58, "velocity": 106, "channel": 0}, {"type": "note_off", "time": 211, "note": 58, "velocity": 106, "channel": 0}, {"type": "note_on", "time": 97, "note": 61, "velocity": 112, "channel": 0}, {"type": "note_off", "time": 250, "note": 61, "velocity": 112, "channel": 0}, {"type": "note_on", "time": 7, "note": 62, "velocity": 118, "channel": 0}, {"type": "note_off", "time": 279, "note": 62, "velocity": 118, "channel": 0}, {"type": "note_on", "time": 9, "note": 63, "velocity": 119, "channel": 0}, {"type": "note_off", "time": 241, "note": 63, "velocity": 119, "channel": 0}, {"type": "note_on", "time": 130, "note": 63, "velocity": 112, "channel": 0}, {"type": "note_off", "time": 368, "note": 63, "velocity": 112, "channel": 0}, {"type": "note_on", "time": 16, "note": 65, "velocity": 91, "channel": 0}, {"type": "note_off", "time": 640, "note": 65, "velocity": 91, "channel": 0}, {"type": "note_on", "time": 16, "note": 62, "velocity": 105, "channel": 0}, {"type": "note_off", "time": 256, "note": 62, "velocity": 105, "channel": 0}, {"type": "note_on", "time": 9, "note": 63, "velocity": 116, "channel": 0}, {"type": "note_off", "time": 164, "note": 63, "velocity": 116, "channel": 0}, {"type": "note_on", "time": 13, "note": 65, "velocity": 108, "channel": 0}, {"type": "note_off", "time": 200, "note": 65, "velocity": 108, "channel": 0}, {"type": "note_on", "time": 6, "note": 66, "velocity": 109, "channel": 0}, {"type": "note_off", "time": 230, "note": 66, "velocity": 109, "channel": 0}, {"type": "note_on", "time": 9, "note": 65, "velocity": 109, "channel": 0}, {"type": "note_off", "time": 153, "note": 65, "velocity": 109, "channel": 0}, {"type": "note_on", "time": 6, "note": 63, "velocity": 109, "channel": 0}, {"type": "note_off", "time": 166, "note": 63, "velocity": 109, "channel": 0}, {"type": "note_on", "time": 9, "note": 61, "velocity": 102, "channel": 0}, {"type": "note_off", "time": 240, "note": 61, "velocity": 102, "channel": 0}, {"type": "note_on", "time": 17, "note": 62, "velocity": 95, "channel": 0}, {"type": "note_off", "time": 106, "note": 62, "velocity": 95, "channel": 0}, {"type": "note_on", "time": 61, "note": 58, "velocity": 100, "channel": 0}, {"type": "note_off", "time": 212, "note": 58, "velocity": 100, "channel": 0}, {"type": "note_on", "time": 11, "note": 53, "velocity": 89, "channel": 0}, {"type": "note_off", "time": 170, "note": 53, "velocity": 89, "channel": 0}, {"type": "note_on", "time": 80, "note": 50, "velocity": 83, "channel": 0}, {"type": "note_off", "time": 201, "note": 50, "velocity": 83, "channel": 0}, {"type": "note_on", "time": 13, "note": 51, "velocity": 92, "channel": 0}, {"type": "note_off", "time": 179, "note": 51, "velocity": 92, "channel": 0}, {"type": "note_on", "time": 17, "note": 49, "velocity": 79, "channel": 0}, {"type": "note_off", "time": 87, "note": 49, "velocity": 79, "channel": 0}, {"type": "note_on", "time": 14, "note": 50, "velocity": 79, "channel": 0}, {"type": "note_off", "time": 265, "note": 50, "velocity": 79, "channel": 0}, {"type": "note_on", "time": 16, "note": 51, "velocity": 90, "channel": 0}, {"type": "note_off", "time": 295, "note": 51, "velocity": 90, "channel": 0}, {"type": "note_on", "time": 17, "note": 52, "velocity": 86, "channel": 0}, {"type": "note_off", "time": 122, "note": 52, "velocity": 86, "channel": 0}, {"type": "note_on", "time": 3, "note": 53, "velocity": 89, "channel": 0}, {"type": "note_off", "time": 215, "note": 53, "velocity": 89, "channel": 0}, {"type": "note_on", "time": 27, "note": 58, "velocity": 84, "channel": 0}, {"type": "note_off", "time": 415, "note": 58, "velocity": 84, "channel": 0}, {"type": "note_on", "time": 573, "note": 62, "velocity": 114, "channel": 0}, {"type": "note_off", "time": 261, "note": 62, "velocity": 114, "channel": 0}, {"type": "note_on", "time": 1, "note": 62, "velocity": 104, "channel": 0}, {"type": "note_off", "time": 219, "note": 62, "velocity": 104, "channel": 0}, {"type": "note_on", "time": 4, "note": 62, "velocity": 106, "channel": 0}, {"type": "note_off", "time": 246, "note": 62, "velocity": 106, "channel": 0}, {"type": "note_on", "time": 1194, "note": 62, "velocity": 122, "channel": 0}, {"type": "note_off", "time": 186, "note": 62, "velocity": 122, "channel": 0}, {"type": "note_on", "time": 2, "note": 64, "velocity": 121, "channel": 0}, {"type": "note_off", "time": 95, "note": 64, "velocity": 121, "channel": 0}, {"type": "note_on", "time": 9, "note": 65, "velocity": 101, "channel": 0}, {"type": "note_off", "time": 61, "note": 65, "velocity": 101, "channel": 0}, {"type": "note_on", "time": 16, "note": 68, "velocity": 108, "channel": 0}, {"type": "note_off", "time": 57, "note": 68, "velocity": 108, "channel": 0}, {"type": "note_on", "time": 8, "note": 71, "velocity": 116, "channel": 0}, {"type": "note_off", "time": 64, "note": 71, "velocity": 116, "channel": 0}, {"type": "note_on", "time": 26, "note": 73, "velocity": 119, "channel": 0}, {"type": "note_off", "time": 60, "note": 73, "velocity": 119, "channel": 0}, {"type": "note_on", "time": 7, "note": 74, "velocity": 114, "channel": 0}, {"type": "note_off", "time": 240, "note": 74, "velocity": 114, "channel": 0}, {"type": "note_on", "time": 12, "note": 71, "velocity": 107, "channel": 0}, {"type": "note_off", "time": 800, "note": 71, "velocity": 107, "channel": 0}, {"type": "note_on", "time": 190, "note": 62, "velocity": 112, "channel": 0}, {"type": "note_off", "time": 256, "note": 62, "velocity": 112, "channel": 0}, {"type": "note_on", "time": 1199, "note": 62, "velocity": 118, "channel": 0}, {"type": "note_off", "time": 196, "note": 62, "velocity": 118, "channel": 0}, {"type": "note_on", "time": 7, "note": 65, "velocity": 122, "channel": 0}, {"type": "note_off", "time": 123, "note": 65, "velocity": 122, "channel": 0}, {"type": "note_on", "time": 43, "note": 68, "velocity": 116, "channel": 0}, {"type": "note_off", "time": 55, "note": 68, "velocity": 116, "channel": 0}, {"type": "note_on", "time": 5, "note": 71, "velocity": 119, "channel": 0}, {"type": "note_off", "time": 92, "note": 71, "velocity": 119, "channel": 0}, {"type": "note_on", "time": 11, "note": 73, "velocity": 127, "channel": 0}, {"type": "note_off", "time": 48, "note": 73, "velocity": 127, "channel": 0}, {"type": "note_on", "time": 13, "note": 74, "velocity": 118, "channel": 0}, {"type": "note_off", "time": 138, "note": 74, "velocity": 118, "channel": 0}, {"type": "note_on", "time": 246, "note": 67, "velocity": 96, "channel": 0}, {"type": "note_off", "time": 671, "note": 67, "velocity": 96, "channel": 0}, {"type": "note_on", "time": 16, "note": 69, "velocity": 114, "channel": 0}, {"type": "note_off", "time": 207, "note": 69, "velocity": 114, "channel": 0}, {"type": "note_on", "time": 189, "note": 62, "velocity": 87, "channel": 0}, {"type": "note_off", "time": 579, "note": 62, "velocity": 87, "channel": 0}, {"type": "note_on", "time": 16, "note": 60, "velocity": 101, "channel": 0}, {"type": "note_off", "time": 250, "note": 60, "velocity": 101, "channel": 0}, {"type": "note_on", "time": 156, "note": 55, "velocity": 92, "channel": 0}, {"type": "note_off", "time": 1046, "note": 55, "velocity": 92, "channel": 0}, {"type": "note_on", "time": 26, "note": 53, "velocity": 100, "channel": 0}, {"type": "note_off", "time": 181, "note": 53, "velocity": 100, "channel": 0}, {"type": "note_on", "time": 9, "note": 52, "velocity": 86, "channel": 0}, {"type": "note_off", "time": 274, "note": 52, "velocity": 86, "channel": 0}, {"type": "note_on", "time": 25, "note": 55, "velocity": 97, "channel": 0}, {"type": "note_off", "time": 86, "note": 55, "velocity": 97, "channel": 0}, {"type": "note_on", "time": 22, "note": 62, "velocity": 96, "channel": 0}, {"type": "note_off", "time": 301, "note": 62, "velocity": 96, "channel": 0}, {"type": "note_on", "time": 11, "note": 60, "velocity": 110, "channel": 0}, {"type": "note_off", "time": 181, "note": 60, "velocity": 110, "channel": 0}, {"type": "note_on", "time": 756, "note": 50, "velocity": 109, "channel": 0}, {"type": "note_off", "time": 93, "note": 50, "velocity": 109, "channel": 0}, {"type": "note_on", "time": 13, "note": 51, "velocity": 104, "channel": 0}, {"type": "note_off", "time": 197, "note": 51, "velocity": 104, "channel": 0}, {"type": "note_on", "time": 22, "note": 53, "velocity": 95, "channel": 0}, {"type": "note_off", "time": 335, "note": 53, "velocity": 95, "channel": 0}, {"type": "note_on", "time": 6, "note": 54, "velocity": 91, "channel": 0}, {"type": "note_off", "time": 482, "note": 54, "velocity": 91, "channel": 0}, {"type": "note_on", "time": 35, "note": 51, "velocity": 84, "channel": 0}, {"type": "note_off", "time": 59, "note": 51, "velocity": 84, "channel": 0}, {"type": "note_on", "time": 17, "note": 53, "velocity": 94, "channel": 0}, {"type": "note_off", "time": 377, "note": 53, "velocity": 94, "channel": 0}, {"type": "note_on", "time": 899, "note": 60, "velocity": 111, "channel": 0}, {"type": "note_off", "time": 30, "note": 60, "velocity": 111, "channel": 0}, {"type": "note_on", "time": 3, "note": 61, "velocity": 119, "channel": 0}, {"type": "note_off", "time": 178, "note": 61, "velocity": 119, "channel": 0}, {"type": "note_on", "time": 15, "note": 61, "velocity": 112, "channel": 0}, {"type": "note_off", "time": 194, "note": 61, "velocity": 112, "channel": 0}, {"type": "note_on", "time": 21, "note": 61, "velocity": 116, "channel": 0}, {"type": "note_off", "time": 222, "note": 61, "velocity": 116, "channel": 0}, {"type": "note_on", "time": 176, "note": 61, "velocity": 98, "channel": 0}, {"type": "note_off", "time": 521, "note": 61, "velocity": 98, "channel": 0}, {"type": "note_on", "time": 155, "note": 61, "velocity": 116, "channel": 0}, {"type": "note_off", "time": 188, "note": 61, "velocity": 116, "channel": 0}, {"type": "note_on", "time": 2, "note": 61, "velocity": 113, "channel": 0}, {"type": "note_off", "time": 205, "note": 61, "velocity": 113, "channel": 0}, {"type": "note_on", "time": 206, "note": 61, "velocity": 110, "channel": 0}, {"type": "note_off", "time": 227, "note": 61, "velocity": 110, "channel": 0}, {"type": "note_on", "time": 178, "note": 61, "velocity": 115, "channel": 0}, {"type": "note_off", "time": 273, "note": 61, "velocity": 115, "channel": 0}, {"type": "note_on", "time": 4, "note": 61, "velocity": 113, "channel": 0}, {"type": "note_off", "time": 190, "note": 61, "velocity": 113, "channel": 0}, {"type": "note_on", "time": 2, "note": 61, "velocity": 109, "channel": 0}, {"type": "note_off", "time": 187, "note": 61, "velocity": 109, "channel": 0}, {"type": "note_on", "time": 178, "note": 61, "velocity": 111, "channel": 0}, {"type": "note_off", "time": 224, "note": 61, "velocity": 111, "channel": 0}, {"type": "note_on", "time": 57, "note": 61, "velocity": 107, "channel": 0}, {"type": "note_off", "time": 174, "note": 61, "velocity": 107, "channel": 0}, {"type": "note_on", "time": 5, "note": 61, "velocity": 106, "channel": 0}, {"type": "note_off", "time": 234, "note": 61, "velocity": 106, "channel": 0}, {"type": "note_on", "time": 162, "note": 61, "velocity": 111, "channel": 0}, {"type": "note_off", "time": 278, "note": 61, "velocity": 111, "channel": 0}, {"type": "note_on", "time": 1, "note": 61, "velocity": 113, "channel": 0}, {"type": "note_off", "time": 146, "note": 61, "velocity": 113, "channel": 0}, {"type": "note_on", "time": 205, "note": 61, "velocity": 113, "channel": 0}, {"type": "note_off", "time": 191, "note": 61, "velocity": 113, "channel": 0}, {"type": "note_on", "time": 6, "note": 61, "velocity": 104, "channel": 0}, {"type": "note_off", "time": 361, "note": 61, "velocity": 104, "channel": 0}, {"type": "note_on", "time": 7, "note": 60, "velocity": 109, "channel": 0}, {"type": "note_off", "time": 287, "note": 60, "velocity": 109, "channel": 0}, {"type": "note_on", "time": 53, "note": 60, "velocity": 95, "channel": 0}, {"type": "note_off", "time": 455, "note": 60, "velocity": 95, "channel": 0}, {"type": "note_on", "time": 136, "note": 55, "velocity": 96, "channel": 0}, {"type": "note_off", "time": 143, "note": 55, "velocity": 96, "channel": 0}, {"type": "note_on", "time": 19, "note": 58, "velocity": 105, "channel": 0}, {"type": "note_off", "time": 76, "note": 58, "velocity": 105, "channel": 0}, {"type": "note_on", "time": 13, "note": 62, "velocity": 109, "channel": 0}, {"type": "note_off", "time": 69, "note": 62, "velocity": 109, "channel": 0}, {"type": "note_on", "time": 52, "note": 63, "velocity": 110, "channel": 0}, {"type": "note_off", "time": 253, "note": 63, "velocity": 110, "channel": 0}, {"type": "note_on", "time": 20, "note": 65, "velocity": 98, "channel": 0}, {"type": "note_off", "time": 513, "note": 65, "velocity": 98, "channel": 0}, {"type": "note_on", "time": 16, "note": 63, "velocity": 114, "channel": 0}, {"type": "note_off", "time": 266, "note": 63, "velocity": 114, "channel": 0}, {"type": "note_on", "time": 32, "note": 65, "velocity": 91, "channel": 0}, {"type": "note_off", "time": 496, "note": 65, "velocity": 91, "channel": 0}, {"type": "note_on", "time": 55, "note": 63, "velocity": 113, "channel": 0}, {"type": "note_off", "time": 175, "note": 63, "velocity": 113, "channel": 0}, {"type": "note_on", "time": 1263, "note": 61, "velocity": 106, "channel": 0}, {"type": "note_off", "time": 183, "note": 61, "velocity": 106, "channel": 0}, {"type": "note_on", "time": 17, "note": 62, "velocity": 118, "channel": 0}, {"type": "note_off", "time": 209, "note": 62, "velocity": 118, "channel": 0}, {"type": "note_on", "time": 9, "note": 65, "velocity": 120, "channel": 0}, {"type": "note_off", "time": 243, "note": 65, "velocity": 120, "channel": 0}, {"type": "note_on", "time": 203, "note": 70, "velocity": 108, "channel": 0}, {"type": "note_off", "time": 963, "note": 70, "velocity": 108, "channel": 0}, {"type": "note_on", "time": 3, "note": 67, "velocity": 106, "channel": 0}, {"type": "note_off", "time": 248, "note": 67, "velocity": 106, "channel": 0}, {"type": "note_on", "time": 9, "note": 65, "velocity": 106, "channel": 0}, {"type": "note_off", "time": 171, "note": 65, "velocity": 106, "channel": 0}, {"type": "note_on", "time": 14, "note": 62, "velocity": 103, "channel": 0}, {"type": "note_off", "time": 220, "note": 62, "velocity": 103, "channel": 0}, {"type": "note_on", "time": 17, "note": 58, "velocity": 100, "channel": 0}, {"type": "note_off", "time": 169, "note": 58, "velocity": 100, "channel": 0}, {"type": "note_on", "time": 37, "note": 57, "velocity": 102, "channel": 0}, {"type": "note_off", "time": 185, "note": 57, "velocity": 102, "channel": 0}, {"type": "note_on", "time": 53, "note": 62, "velocity": 104, "channel": 0}, {"type": "note_off", "time": 187, "note": 62, "velocity": 104, "channel": 0}, {"type": "note_on", "time": 8, "note": 57, "velocity": 97, "channel": 0}, {"type": "note_off", "time": 191, "note": 57, "velocity": 97, "channel": 0}, {"type": "note_on", "time": 19, "note": 55, "velocity": 90, "channel": 0}, {"type": "note_off", "time": 545, "note": 55, "velocity": 90, "channel": 0}, {"type": "note_on", "time": 140, "note": 50, "velocity": 77, "channel": 0}, {"type": "note_off", "time": 121, "note": 50, "velocity": 77, "channel": 0}, {"type": "note_on", "time": 14, "note": 51, "velocity": 94, "channel": 0}, {"type": "note_off", "time": 168, "note": 51, "velocity": 94, "channel": 0}, {"type": "note_on", "time": 36, "note": 53, "velocity": 104, "channel": 0}, {"type": "note_off", "time": 254, "note": 53, "velocity": 104, "channel": 0}, {"type": "note_on", "time": 11, "note": 54, "velocity": 106, "channel": 0}, {"type": "note_off", "time": 213, "note": 54, "velocity": 106, "channel": 0}, {"type": "note_on", "time": 17, "note": 53, "velocity": 95, "channel": 0}, {"type": "note_off", "time": 65, "note": 53, "velocity": 95, "channel": 0}, {"type": "note_on", "time": 42, "note": 51, "velocity": 91, "channel": 0}, {"type": "note_off", "time": 160, "note": 51, "velocity": 91, "channel": 0}, {"type": "note_on", "time": 25, "note": 53, "velocity": 89, "channel": 0}, {"type": "note_off", "time": 650, "note": 53, "velocity": 89, "channel": 0}, {"type": "note_on", "time": 129, "note": 51, "velocity": 93, "channel": 0}, {"type": "note_off", "time": 278, "note": 51, "velocity": 93, "channel": 0}, {"type": "note_on", "time": 26, "note": 54, "velocity": 91, "channel": 0}, {"type": "note_off", "time": 122, "note": 54, "velocity": 91, "channel": 0}, {"type": "note_on", "time": 20, "note": 48, "velocity": 98, "channel": 0}, {"type": "note_off", "time": 273, "note": 48, "velocity": 98, "channel": 0}, {"type": "note_on", "time": 46, "note": 54, "velocity": 89, "channel": 0}, {"type": "note_off", "time": 55, "note": 54, "velocity": 89, "channel": 0}, {"type": "note_on", "time": 39, "note": 58, "velocity": 88, "channel": 0}, {"type": "note_off", "time": 653, "note": 58, "velocity": 88, "channel": 0}, {"type": "note_on", "time": 36, "note": 55, "velocity": 87, "channel": 0}, {"type": "note_off", "time": 117, "note": 55, "velocity": 87, "channel": 0}, {"type": "note_on", "time": 37, "note": 58, "velocity": 102, "channel": 0}, {"type": "note_off", "time": 175, "note": 58, "velocity": 102, "channel": 0}, {"type": "note_on", "time": 496, "note": 58, "velocity": 85, "channel": 0}, {"type": "note_off", "time": 538, "note": 58, "velocity": 85, "channel": 0}, {"type": "note_on", "time": 28, "note": 55, "velocity": 111, "channel": 0}, {"type": "note_off", "time": 117, "note": 55, "velocity": 111, "channel": 0}, {"type": "note_on", "time": 30, "note": 58, "velocity": 97, "channel": 0}, {"type": "note_off", "time": 65, "note": 58, "velocity": 97, "channel": 0}, {"type": "note_on", "time": 9, "note": 61, "velocity": 111, "channel": 0}, {"type": "note_off", "time": 169, "note": 61, "velocity": 111, "channel": 0}, {"type": "note_on", "time": 22, "note": 62, "velocity": 106, "channel": 0}, {"type": "note_off", "time": 226, "note": 62, "velocity": 106, "channel": 0}, {"type": "note_on", "time": 20, "note": 63, "velocity": 112, "channel": 0}, {"type": "note_off", "time": 157, "note": 63, "velocity": 112, "channel": 0}, {"type": "note_on", "time": 21, "note": 61, "velocity": 94, "channel": 0}, {"type": "note_off", "time": 220, "note": 61, "velocity": 94, "channel": 0}, {"type": "note_on", "time": 22, "note": 62, "velocity": 102, "channel": 0}, {"type": "note_off", "time": 139, "note": 62, "velocity": 102, "channel": 0}, {"type": "end_of_track", "time": 0}]]}