{"ticks_per_beat": 840, "tracks": [[{"type": "track_name", "name": "Melody", "time": 0}, {"type": "set_tempo", "tempo": 750000, "time": 0}, {"type": "key_signature", "key": "Db", "time": 0}, {"type": "time_signature", "numerator": 4, "denominator": 4, "clocks_per_click": 24, "notated_32nd_notes_per_beat": 8, "time": 0}, {"type": "note_on", "time": 5831, "note": 51, "velocity": 119, "channel": 0}, {"type": "note_off", "time": 318, "note": 51, "velocity": 119, "channel": 0}, {"type": "note_on", "time": 0, "note": 53, "velocity": 112, "channel": 0}, {"type": "note_off", "time": 175, "note": 53, "velocity": 112, "channel": 0}, {"type": "note_on", "time": 6, "note": 51, "velocity": 115, "channel": 0}, {"type": "note_off", "time": 253, "note": 51, "velocity": 115, "channel": 0}, {"type": "note_on", "time": 0, "note": 53, "velocity": 109, "channel": 0}, {"type": "note_off", "time": 578, "note": 53, "velocity": 109, "channel": 0}, {"type": "note_on", "time": 0, "note": 53, "velocity": 100, "channel": 0}, {"type": "note_off", "time": 201, "note": 53, "velocity": 100, "channel": 0}, {"type": "note_on", "time": 130, "note": 50, "velocity": 110, "channel": 0}, {"type": "note_off", "time": 149, "note": 50, "velocity": 110, "channel": 0}, {"type": "note_on", "time": 0, "note": 51, "velocity": 112, "channel": 0}, {"type": "note_off", "time": 260, "note": 51, "velocity": 112, "channel": 0}, {"type": "note_on", "time": 6, "note": 54, "velocity": 113, "channel": 0}, {"type": "note_off", "time": 260, "note": 54, "velocity": 113, "channel": 0}, {"type": "note_on", "time": 123, "note": 58, "velocity": 111, "channel": 0}, {"type": "note_off", "time": 357, "note": 58, "velocity": 111, "channel": 0}, {"type": "note_on", "time": 0, "note": 58, "velocity": 108, "channel": 0}, {"type": "note_off", "time": 351, "note": 58, "velocity": 108, "channel": 0}, {"type": "note_on", "time": 0, "note": 58, "velocity": 95, "channel": 0}, {"type": "note_off", "time": 682, "note": 58, "velocity": 95, "channel": 0}, {"type": "note_on", "time": 897, "note": 57, "velocity": 106, "channel": 0}, {"type": "note_off", "time": 546, "note": 57, "velocity": 106, "channel": 0}, {"type": "note_on", "time": 97, "note": 53, "velocity": 112, "channel": 0}, {"type": "note_off", "time": 305, "note": 53, "velocity": 112, "channel": 0}, {"type": "note_on", "time": 0, "note": 56, "velocity": 107, "channel": 0}, {"type": "note_off", "time": 461, "note": 56, "velocity": 107, "channel": 0}, {"type": "note_on", "time": 0, "note": 56, "velocity": 109, "channel": 0}, {"type": "note_off", "time": 266, "note": 56, "velocity": 109, "channel": 0}, {"type": "note_on", "time": 0, "note": 53, "velocity": 114, "channel": 0}, {"type": "note_off", "time": 305, "note": 53, "velocity": 114, "channel": 0}, {"type": "note_on", "time": 0, "note": 56, "velocity": 116, "channel": 0}, {"type": "note_off", "time": 175, "note": 56, "velocity": 116, "channel": 0}, {"type": "note_on", "time": 0, "note": 60, "velocity": 121, "channel": 0}, {"type": "note_off", "time": 318, "note": 60, "velocity": 121, "channel": 0}, {"type": "note_on", "time": 19, "note": 63, "velocity": 95, "channel": 0}, {"type": "note_off", "time": 1287, "note": 63, "velocity": 95, "channel": 0}, {"type": "note_on", "time": 1059, "note": 60, "velocity": 120, "channel": 0}, {"type": "note_off", "time": 338, "note": 60, "velocity": 120, "channel": 0}, {"type": "note_on", "time": 0, "note": 61, "velocity": 119, "channel": 0}, {"type": "note_off", "time": 312, "note": 61, "velocity": 119, "channel": 0}, {"type": "note_on", "time": 6, "note": 63, "velocity": 103, "channel": 0}, {"type": "note_off", "time": 702, "note": 63, "velocity": 103, "channel": 0}, {"type": "note_on", "time": 0, "note": 60, "velocity": 117, "channel": 0}, {"type": "note_off", "time": 305, "note": 60, "velocity": 117, "channel": 0}, {"type": "note_on", "time": 31, "note": 58, "velocity": 93, "channel": 0}, {"type": "note_off", "time": 292, "note": 58, "velocity": 93, "channel": 0}, {"type": "note_on", "time": 124, "note": 60, "velocity": 118, "channel": 0}, {"type": "note_off", "time": 383, "note": 60, "velocity": 118, "channel": 0}, {"type": "note_on", "time": 25, "note": 61, "velocity": 108, "channel": 0}, {"type": "note_off", "time": 487, "note": 61, "velocity": 108, "channel": 0}, {"type": "note_on", "time": 0, "note": 61, "velocity": 101, "channel": 0}, {"type": "note_off", "time": 313, "note": 61, "velocity": 101, "channel": 0}, {"type": "note_on", "time": 0, "note": 58, "velocity": 86, "channel": 0}, {"type": "note_off", "time": 265, "note": 58, "velocity": 86, "channel": 0}, {"type": "note_on", "time": 0, "note": 54, "velocity": 96, "channel": 0}, {"type": "note_off", "time": 253, "note": 54, "velocity": 96, "channel": 0}, {"type": "note_on", "time": 39, "note": 51, "velocity": 101, "channel": 0}, {"type": "note_off", "time": 310, "note": 51, "velocity": 101, "channel": 0}, {"type": "note_on", "time": 0, "note": 46, "velocity": 96, "channel": 0}, {"type": "note_off", "time": 1389, "note": 46, "velocity": 96, "channel": 0}, {"type": "note_on", "time": 210, "note": 53, "velocity": 90, "channel": 0}, {"type": "note_on", "time": 383, "note": 53, "velocity": 86, "channel": 0}, {"type": "note_off", "time": 0, "note": 53, "velocity": 90, "channel": 0}, {"type": "note_off", "time": 559, "note": 53, "velocity": 86, "channel": 0}, {"type": "note_on", "time": 910, "note": 53, "velocity": 104, "channel": 0}, {"type": "note_off", "time": 227, "note": 53, "velocity": 104, "channel": 0}, {"type": "note_on", "time": 0, "note": 54, "velocity": 116, "channel": 0}, {"type": "note_off", "time": 241, "note": 54, "velocity": 116, "channel": 0}, {"type": "note_on", "time": 0, "note": 57, "velocity": 96, "channel": 0}, {"type": "note_off", "time": 137, "note": 57, "velocity": 96, "channel": 0}, {"type": "note_on", "time": 31, "note": 60, "velocity": 120, "channel": 0}, {"type": "note_off", "time": 325, "note": 60, "velocity": 120, "channel": 0}, {"type": "note_on", "time": 0, "note": 63, "velocity": 103, "channel": 0}, {"type": "note_off", "time": 325, "note": 63, "velocity": 103, "channel": 0}, {"type": "note_on", "time": 40, "note": 65, "velocity": 79, "channel": 0}, {"type": "note_off", "time": 877, "note": 65, "velocity": 79, "channel": 0}, {"type": "note_on", "time": 108, "note": 61, "velocity": 105, "channel": 0}, {"type": "note_off", "time": 201, "note": 61, "velocity": 105, "channel": 0}, {"type": "note_on", "time": 32, "note": 58, "velocity": 93, "channel": 0}, {"type": "note_off", "time": 169, "note": 58, "velocity": 93, "channel": 0}, {"type": "note_on", "time": 39, "note": 53, "velocity": 88, "channel": 0}, {"type": "note_off", "time": 188, "note": 53, "velocity": 88, "channel": 0}, {"type": "note_on", "time": 71, "note": 49, "velocity": 79, "channel": 0}, {"type": "note_off", "time": 117, "note": 49, "velocity": 79, "channel": 0}, {"type": "note_on", "time": 58, "note": 51, "velocity": 97, "channel": 0}, {"type": "note_off", "time": 279, "note": 51, "velocity": 97, "channel": 0}, {"type": "note_on", "time": 65, "note": 53, "velocity": 95, "channel": 0}, {"type": "note_off", "time": 513, "note": 53, "velocity": 95, "channel": 0}, {"type": "note_on", "time": 0, "note": 54, "velocity": 97, "channel": 0}, {"type": "note_off", "time": 169, "note": 54, "velocity": 97, "channel": 0}, {"type": "note_on", "time": 19, "note": 56, "velocity": 89, "channel": 0}, {"type": "note_off", "time": 533, "note": 56, "velocity": 89, "channel": 0}, {"type": "note_on", "time": 13, "note": 51, "velocity": 100, "channel": 0}, {"type": "note_off", "time": 273, "note": 51, "velocity": 100, "channel": 0}, {"type": "note_on", "time": 58, "note": 49, "velocity": 82, "channel": 0}, {"type": "note_off", "time": 604, "note": 49, "velocity": 82, "channel": 0}, {"type": "note_on", "time": 643, "note": 55, "velocity": 112, "channel": 0}, {"type": "note_off", "time": 104, "note": 55, "velocity": 112, "channel": 0}, {"type": "note_on", "time": 0, "note": 56, "velocity": 111, "channel": 0}, {"type": "note_off", "time": 234, "note": 56, "velocity": 111, "channel": 0}, {"type": "note_on", "time": 10, "note": 53, "velocity": 96, "channel": 0}, {"type": "note_off", "time": 82, "note": 53, "velocity": 96, "channel": 0}, {"type": "note_on", "time": 0, "note": 50, "velocity": 91, "channel": 0}, {"type": "note_off", "time": 70, "note": 50, "velocity": 91, "channel": 0}, {"type": "note_on", "time": 0, "note": 48, "velocity": 92, "channel": 0}, {"type": "note_off", "time": 110, "note": 48, "velocity": 92, "channel": 0}, {"type": "note_on", "time": 39, "note": 47, "velocity": 101, "channel": 0}, {"type": "note_off", "time": 461, "note": 47, "velocity": 101, "channel": 0}, {"type": "note_on", "time": 58, "note": 46, "velocity": 97, "channel": 0}, {"type": "note_off", "time": 1330, "note": 46, "velocity": 97, "channel": 0}, {"type": "note_on", "time": 0, "note": 46, "velocity": 97, "channel": 0}, {"type": "note_off", "time": 32, "note": 46, "velocity": 97, "channel": 0}, {"type": "note_on", "time": 54, "note": 53, "velocity": 83, "channel": 0}, {"type": "note_off", "time": 1453, "note": 53, "velocity": 83, "channel": 0}, {"type": "note_on", "time": 994, "note": 50, "velocity": 101, "channel": 0}, {"type": "note_on", "time": 182, "note": 51, "velocity": 110, "channel": 0}, {"type": "note_off", "time": 0, "note": 50, "velocity": 101, "channel": 0}, {"type": "note_off", "time": 217, "note": 51, "velocity": 110, "channel": 0}, {"type": "note_on", "time": 0, "note": 54, "velocity": 115, "channel": 0}, {"type": "note_off", "time": 201, "note": 54, "velocity": 115, "channel": 0}, {"type": "note_on", "time": 22, "note": 58, "velocity": 98, "channel": 0}, {"type": "note_off", "time": 196, "note": 58, "velocity": 98, "channel": 0}, {"type": "note_on", "time": 24, "note": 61, "velocity": 119, "channel": 0}, {"type": "note_off", "time": 266, "note": 61, "velocity": 119, "channel": 0}, {"type": "note_on", "time": 0, "note": 61, "velocity": 112, "channel": 0}, {"type": "note_off", "time": 312, "note": 61, "velocity": 112, "channel": 0}, {"type": "note_on", "time": 0, "note": 61, "velocity": 112, "channel": 0}, {"type": "note_off", "time": 45, "note": 61, "velocity": 112, "channel": 0}, {"type": "note_on", "time": 6, "note": 61, "velocity": 106, "channel": 0}, {"type": "note_off", "time": 647, "note": 61, "velocity": 106, "channel": 0}, {"type": "note_on", "time": 0, "note": 58, "velocity": 90, "channel": 0}, {"type": "note_off", "time": 374, "note": 58, "velocity": 90, "channel": 0}, {"type": "note_on", "time": 27, "note": 57, "velocity": 80, "channel": 0}, {"type": "note_off", "time": 86, "note": 57, "velocity": 80, "channel": 0}, {"type": "note_on", "time": 20, "note": 60, "velocity": 117, "channel": 0}, {"type": "note_off", "time": 331, "note": 60, "velocity": 117, "channel": 0}, {"type": "note_on", "time": 0, "note": 56, "velocity": 94, "channel": 0}, {"type": "note_off", "time": 416, "note": 56, "velocity": 94, "channel": 0}, {"type": "note_on", "time": 6, "note": 60, "velocity": 98, "channel": 0}, {"type": "note_off", "time": 630, "note": 60, "velocity": 98, "channel": 0}, {"type": "note_on", "time": 0, "note": 60, "velocity": 101, "channel": 0}, {"type": "note_off", "time": 240, "note": 60, "velocity": 101, "channel": 0}, {"type": "note_on", "time": 0, "note": 56, "velocity": 101, "channel": 0}, {"type": "note_off", "time": 429, "note": 56, "velocity": 101, "channel": 0}, {"type": "note_on", "time": 71, "note": 53, "velocity": 95, "channel": 0}, {"type": "note_off", "time": 255, "note": 53, "velocity": 95, "channel": 0}, {"type": "note_on", "time": 0, "note": 58, "velocity": 85, "channel": 0}, {"type": "note_off", "time": 855, "note": 58, "velocity": 85, "channel": 0}, {"type": "note_on", "time": 0, "note": 58, "velocity": 79, "channel": 0}, {"type": "note_off", "time": 26, "note": 58, "velocity": 79, "channel": 0}, {"type": "note_on", "time": 1771, "note": 64, "velocity": 118, "channel": 0}, {"type": "note_off", "time": 117, "note": 64, "velocity": 118, "channel": 0}, {"type": "note_on", "time": 24, "note": 65, "velocity": 116, "channel": 0}, {"type": "note_off", "time": 237, "note": 65, "velocity": 116, "channel": 0}, {"type": "note_on", "time": 9, "note": 67, "velocity": 105, "channel": 0}, {"type": "note_off", "time": 50, "note": 67, "velocity": 105, "channel": 0}, {"type": "note_on", "time": 13, "note": 65, "velocity": 107, "channel": 0}, {"type": "note_off", "time": 59, "note": 65, "velocity": 107, "channel": 0}, {"type": "note_on", "time": 4, "note": 60, "velocity": 117, "channel": 0}, {"type": "note_off", "time": 318, "note": 60, "velocity": 117, "channel": 0}, {"type": "note_on", "time": 106, "note": 63, "velocity": 108, "channel": 0}, {"type": "note_off", "time": 526, "note": 63, "velocity": 108, "channel": 0}, {"type": "note_on", "time": 17, "note": 58, "velocity": 83, "channel": 0}, {"type": "note_off", "time": 256, "note": 58, "velocity": 83, "channel": 0}, {"type": "note_on", "time": 114, "note": 60, "velocity": 115, "channel": 0}, {"type": "note_off", "time": 370, "note": 60, "velocity": 115, "channel": 0}, {"type": "note_on", "time": 17, "note": 61, "velocity": 110, "channel": 0}, {"type": "note_off", "time": 361, "note": 61, "velocity": 110, "channel": 0}, {"type": "note_on", "time": 0, "note": 58, "velocity": 77, "channel": 0}, {"type": "note_off", "time": 758, "note": 58, "velocity": 77, "channel": 0}, {"type": "note_on", "time": 173, "note": 50, "velocity": 91, "channel": 0}, {"type": "note_off", "time": 283, "note": 50, "velocity": 91, "channel": 0}, {"type": "note_on", "time": 31, "note": 51, "velocity": 101, "channel": 0}, {"type": "note_off", "time": 146, "note": 51, "velocity": 101, "channel": 0}, {"type": "note_on", "time": 114, "note": 52, "velocity": 95, "channel": 0}, {"type": "note_off", "time": 237, "note": 52, "velocity": 95, "channel": 0}, {"type": "note_on", "time": 50, "note": 53, "velocity": 98, "channel": 0}, {"type": "note_off", "time": 169, "note": 53, "velocity": 98, "channel": 0}, {"type": "note_on", "time": 41, "note": 54, "velocity": 99, "channel": 0}, {"type": "note_off", "time": 292, "note": 54, "velocity": 99, "channel": 0}, {"type": "note_on", "time": 91, "note": 58, "velocity": 83, "channel": 0}, {"type": "note_off", "time": 461, "note": 58, "velocity": 83, "channel": 0}, {"type": "note_on", "time": 64, "note": 54, "velocity": 100, "channel": 0}, {"type": "note_off", "time": 205, "note": 54, "velocity": 100, "channel": 0}, {"type": "note_on", "time": 114, "note": 51, "velocity": 91, "channel": 0}, {"type": "note_off", "time": 178, "note": 51, "velocity": 91, "channel": 0}, {"type": "note_on", "time": 0, "note": 53, "velocity": 82, "channel": 0}, {"type": "note_off", "time": 1060, "note": 53, "velocity": 82, "channel": 0}, {"type": "note_on", "time": 891, "note": 53, "velocity": 107, "channel": 0}, {"type": "note_off", "time": 178, "note": 53, "velocity": 107, "channel": 0}, {"type": "note_on", "time": 0, "note": 54, "velocity": 111, "channel": 0}, {"type": "note_off", "time": 234, "note": 54, "velocity": 111, "channel": 0}, {"type": "note_on", "time": 8, "note": 56, "velocity": 102, "channel": 0}, {"type": "note_off", "time": 91, "note": 56, "velocity": 102, "channel": 0}, {"type": "note_on", "time": 4, "note": 60, "velocity": 120, "channel": 0}, {"type": "note_off", "time": 318, "note": 60, "velocity": 120, "channel": 0}, {"type": "note_on", "time": 37, "note": 64, "velocity": 112, "channel": 0}, {"type": "note_off", "time": 82, "note": 64, "velocity": 112, "channel": 0}, {"type": "note_on", "time": 0, "note": 65, "velocity": 100, "channel": 0}, {"type": "note_off", "time": 498, "note": 65, "velocity": 100, "channel": 0}, {"type": "note_on", "time": 0, "note": 61, "velocity": 104, "channel": 0}, {"type": "note_off", "time": 649, "note": 61, "velocity": 104, "channel": 0}, {"type": "note_on", "time": 41, "note": 58, "velocity": 86, "channel": 0}, {"type": "note_off", "time": 187, "note": 58, "velocity": 86, "channel": 0}, {"type": "note_on", "time": 22, "note": 53, "velocity": 94, "channel": 0}, {"type": "note_off", "time": 234, "note": 53, "velocity": 94, "channel": 0}, {"type": "note_on", "time": 99, "note": 49, "velocity": 78, "channel": 0}, {"type": "note_off", "time": 448, "note": 49, "velocity": 78, "channel": 0}, {"type": "note_on", "time": 41, "note": 51, "velocity": 93, "channel": 0}, {"type": "note_off", "time": 228, "note": 51, "velocity": 93, "channel": 0}, {"type": "note_on", "time": 36, "note": 53, "velocity": 92, "channel": 0}, {"type": "note_off", "time": 256, "note": 53, "velocity": 92, "channel": 0}, {"type": "note_on", "time": 27, "note": 54, "velocity": 92, "channel": 0}, {"type": "note_off", "time": 246, "note": 54, "velocity": 92, "channel": 0}, {"type": "note_on", "time": 0, "note": 57, "velocity": 77, "channel": 0}, {"type": "note_off", "time": 740, "note": 57, "velocity": 77, "channel": 0}, {"type": "note_on", "time": 169, "note": 56, "velocity": 99, "channel": 0}, {"type": "note_off", "time": 286, "note": 56, "velocity": 99, "channel": 0}, {"type": "note_on", "time": 65, "note": 53, "velocity": 91, "channel": 0}, {"type": "note_on", "time": 278, "note": 56, "velocity": 98, "channel": 0}, {"type": "note_off", "time": 0, "note": 53, "velocity": 91, "channel": 0}, {"type": "note_off", "time": 214, "note": 56, "velocity": 98, "channel": 0}, {"type": "note_on", "time": 4, "note": 61, "velocity": 111, "channel": 0}, {"type": "note_off", "time": 301, "note": 61, "velocity": 111, "channel": 0}, {"type": "note_on", "time": 45, "note": 61, "velocity": 110, "channel": 0}, {"type": "note_off", "time": 228, "note": 61, "velocity": 110, "channel": 0}, {"type": "note_on", "time": 45, "note": 61, "velocity": 108, "channel": 0}, {"type": "note_off", "time": 210, "note": 61, "velocity": 108, "channel": 0}, {"type": "note_on", "time": 146, "note": 57, "velocity": 94, "channel": 0}, {"type": "note_off", "time": 227, "note": 57, "velocity": 94, "channel": 0}, {"type": "note_on", "time": 58, "note": 59, "velocity": 87, "channel": 0}, {"type": "note_off", "time": 448, "note": 59, "velocity": 87, "channel": 0}, {"type": "note_on", "time": 123, "note": 57, "velocity": 87, "channel": 0}, {"type": "note_off", "time": 208, "note": 57, "velocity": 87, "channel": 0}, {"type": "note_on", "time": 32, "note": 59, "velocity": 86, "channel": 0}, {"type": "note_off", "time": 312, "note": 59, "velocity": 86, "channel": 0}, {"type": "note_on", "time": 289, "note": 50, "velocity": 85, "channel": 0}, {"type": "note_off", "time": 507, "note": 50, "velocity": 85, "channel": 0}, {"type": "note_on", "time": 65, "note": 52, "velocity": 93, "channel": 0}, {"type": "note_off", "time": 221, "note": 52, "velocity": 93, "channel": 0}, {"type": "note_on", "time": 0, "note": 54, "velocity": 99, "channel": 0}, {"type": "note_off", "time": 266, "note": 54, "velocity": 99, "channel": 0}, {"type": "note_on", "time": 4, "note": 57, "velocity": 77, "channel": 0}, {"type": "note_off", "time": 1105, "note": 57, "velocity": 77, "channel": 0}, {"type": "note_on", "time": 1172, "note": 57, "velocity": 116, "channel": 0}, {"type": "note_off", "time": 65, "note": 57, "velocity": 116, "channel": 0}, {"type": "note_on", "time": 0, "note": 59, "velocity": 108, "channel": 0}, {"type": "note_off", "time": 461, "note": 59, "velocity": 108, "channel": 0}, {"type": "note_on", "time": 0, "note": 57, "velocity": 103, "channel": 0}, {"type": "note_off", "time": 292, "note": 57, "velocity": 103, "channel": 0}, {"type": "note_on", "time": 91, "note": 62, "velocity": 123, "channel": 0}, {"type": "note_off", "time": 299, "note": 62, "velocity": 123, "channel": 0}, {"type": "note_on", "time": 26, "note": 64, "velocity": 115, "channel": 0}, {"type": "note_off", "time": 318, "note": 64, "velocity": 115, "channel": 0}, {"type": "note_on", "time": 0, "note": 64, "velocity": 114, "channel": 0}, {"type": "note_off", "time": 201, "note": 64, "velocity": 114, "channel": 0}, {"type": "note_on", "time": 0, "note": 62, "velocity": 119, "channel": 0}, {"type": "note_off", "time": 312, "note": 62, "velocity": 119, "channel": 0}, {"type": "note_on", "time": 6, "note": 58, "velocity": 92, "channel": 0}, {"type": "note_off", "time": 481, "note": 58, "velocity": 92, "channel": 0}, {"type": "note_on", "time": 99, "note": 50, "velocity": 103, "channel": 0}, {"type": "note_off", "time": 251, "note": 50, "velocity": 103, "channel": 0}, {"type": "note_on", "time": 54, "note": 52, "velocity": 86, "channel": 0}, {"type": "note_off", "time": 1092, "note": 52, "velocity": 86, "channel": 0}, {"type": "note_on", "time": 191, "note": 50, "velocity": 97, "channel": 0}, {"type": "note_off", "time": 310, "note": 50, "velocity": 97, "channel": 0}, {"type": "note_on", "time": 40, "note": 53, "velocity": 102, "channel": 0}, {"type": "note_off", "time": 162, "note": 53, "velocity": 102, "channel": 0}, {"type": "note_on", "time": 0, "note": 54, "velocity": 111, "channel": 0}, {"type": "note_off", "time": 234, "note": 54, "velocity": 111, "channel": 0}, {"type": "note_on", "time": 142, "note": 55, "velocity": 9, "channel": 0}, {"type": "note_off", "time": 284, "note": 55, "velocity": 9, "channel": 0}, {"type": "note_on", "time": 0, "note": 58, "velocity": 90, "channel": 0}, {"type": "note_off", "time": 741, "note": 58, "velocity": 90, "channel": 0}, {"type": "note_on", "time": 648, "note": 60, "velocity": 115, "channel": 0}, {"type": "note_off", "time": 331, "note": 60, "velocity": 115, "channel": 0}, {"type": "note_on", "time": 34, "note": 52, "velocity": 99, "channel": 0}, {"type": "note_off", "time": 468, "note": 52, "velocity": 99, "channel": 0}, {"type": "note_on", "time": 53, "note": 49, "velocity": 93, "channel": 0}, {"type": "note_off", "time": 565, "note": 49, "velocity": 93, "channel": 0}, {"type": "note_on", "time": 37, "note": 50, "velocity": 95, "channel": 0}, {"type": "note_off", "time": 283, "note": 50, "velocity": 95, "channel": 0}, {"type": "note_on", "time": 2559, "note": 50, "velocity": 111, "channel": 0}, {"type": "note_off", "time": 208, "note": 50, "velocity": 111, "channel": 0}, {"type": "note_on", "time": 19, "note": 53, "velocity": 117, "channel": 0}, {"type": "note_off", "time": 247, "note": 53, "velocity": 117, "channel": 0}, {"type": "note_on", "time": 0, "note": 57, "velocity": 110, "channel": 0}, {"type": "note_off", "time": 175, "note": 57, "velocity": 110, "channel": 0}, {"type": "note_on", "time": 0, "note": 60, "velocity": 123, "channel": 0}, {"type": "note_off", "time": 169, "note": 60, "velocity": 123, "channel": 0}, {"type": "note_on", "time": 0, "note": 59, "velocity": 115, "channel": 0}, {"type": "note_off", "time": 299, "note": 59, "velocity": 115, "channel": 0}, {"type": "note_on", "time": 6, "note": 55, "velocity": 89, "channel": 0}, {"type": "note_off", "time": 1170, "note": 55, "velocity": 89, "channel": 0}, {"type": "note_on", "time": 1046, "note": 52, "velocity": 110, "channel": 0}, {"type": "note_off", "time": 247, "note": 52, "velocity": 110, "channel": 0}, {"type": "note_on", "time": 32, "note": 55, "velocity": 109, "channel": 0}, {"type": "note_off", "time": 110, "note": 55, "velocity": 109, "channel": 0}, {"type": "note_on", "time": 19, "note": 59, "velocity": 113, "channel": 0}, {"type": "note_off", "time": 247, "note": 59, "velocity": 113, "channel": 0}, {"type": "note_on", "time": 13, "note": 62, "velocity": 110, "channel": 0}, {"type": "note_off", "time": 871, "note": 62, "velocity": 110, "channel": 0}, {"type": "note_on", "time": 175, "note": 61, "velocity": 116, "channel": 0}, {"type": "note_off", "time": 331, "note": 61, "velocity": 116, "channel": 0}, {"type": "note_on", "time": 169, "note": 60, "velocity": 118, "channel": 0}, {"type": "note_off", "time": 253, "note": 60, "velocity": 118, "channel": 0}, {"type": "note_on", "time": 136, "note": 57, "velocity": 92, "channel": 0}, {"type": "note_off", "time": 474, "note": 57, "velocity": 92, "channel": 0}, {"type": "note_on", "time": 104, "note": 50, "velocity": 98, "channel": 0}, {"type": "note_off", "time": 224, "note": 50, "velocity": 98, "channel": 0}, {"type": "note_on", "time": 41, "note": 53, "velocity": 97, "channel": 0}, {"type": "note_off", "time": 255, "note": 53, "velocity": 97, "channel": 0}, {"type": "note_on", "time": 0, "note": 57, "velocity": 95, "channel": 0}, {"type": "note_off", "time": 77, "note": 57, "velocity": 95, "channel": 0}, {"type": "note_on", "time": 44, "note": 60, "velocity": 104, "channel": 0}, {"type": "note_off", "time": 253, "note": 60, "velocity": 104, "channel": 0}, {"type": "note_on", "time": 3, "note": 57, "velocity": 93, "channel": 0}, {"type": "note_off", "time": 105, "note": 57, "velocity": 93, "channel": 0}, {"type": "note_on", "time": 53, "note": 59, "velocity": 101, "channel": 0}, {"type": "note_off", "time": 299, "note": 59, "velocity": 101, "channel": 0}, {"type": "note_on", "time": 6, "note": 55, "velocity": 93, "channel": 0}, {"type": "note_off", "time": 448, "note": 55, "velocity": 93, "channel": 0}, {"type": "note_on", "time": 1039, "note": 52, "velocity": 110, "channel": 0}, {"type": "note_off", "time": 246, "note": 52, "velocity": 110, "channel": 0}, {"type": "note_on", "time": 0, "note": 48, "velocity": 101, "channel": 0}, {"type": "note_off", "time": 205, "note": 48, "velocity": 101, "channel": 0}, {"type": "note_on", "time": 41, "note": 52, "velocity": 107, "channel": 0}, {"type": "note_off", "time": 221, "note": 52, "velocity": 107, "channel": 0}, {"type": "note_on", "time": 20, "note": 55, "velocity": 105, "channel": 0}, {"type": "note_off", "time": 187, "note": 55, "velocity": 105, "channel": 0}, {"type": "note_on", "time": 0, "note": 51, "velocity": 111, "channel": 0}, {"type": "note_off", "time": 247, "note": 51, "velocity": 111, "channel": 0}, {"type": "note_on", "time": 27, "note": 48, "velocity": 98, "channel": 0}, {"type": "note_off", "time": 150, "note": 48, "velocity": 98, "channel": 0}, {"type": "note_on", "time": 27, "note": 51, "velocity": 106, "channel": 0}, {"type": "note_off", "time": 240, "note": 51, "velocity": 106, "channel": 0}, {"type": "note_on", "time": 9, "note": 55, "velocity": 102, "channel": 0}, {"type": "note_off", "time": 188, "note": 55, "velocity": 102, "channel": 0}, {"type": "note_on", "time": 9, "note": 50, "velocity": 93, "channel": 0}, {"type": "note_off", "time": 576, "note": 50, "velocity": 93, "channel": 0}, {"type": "note_on", "time": 58, "note": 55, "velocity": 99, "channel": 0}, {"type": "note_off", "time": 247, "note": 55, "velocity": 99, "channel": 0}, {"type": "note_on", "time": 55, "note": 49, "velocity": 93, "channel": 0}, {"type": "note_off", "time": 109, "note": 49, "velocity": 93, "channel": 0}, {"type": "note_on", "time": 31, "note": 53, "velocity": 95, "channel": 0}, {"type": "note_off", "time": 502, "note": 53, "velocity": 95, "channel": 0}, {"type": "note_on", "time": 164, "note": 51, "velocity": 97, "channel": 0}, {"type": "note_off", "time": 695, "note": 51, "velocity": 97, "channel": 0}, {"type": "note_on", "time": 966, "note": 46, "velocity": 106, "channel": 0}, {"type": "note_off", "time": 253, "note": 46, "velocity": 106, "channel": 0}, {"type": "note_on", "time": 0, "note": 51, "velocity": 108, "channel": 0}, {"type": "note_off", "time": 214, "note": 51, "velocity": 108, "channel": 0}, {"type": "note_on", "time": 0, "note": 53, "velocity": 114, "channel": 0}, {"type": "note_off", "time": 208, "note": 53, "velocity": 114, "channel": 0}, {"type": "note_on", "time": 0, "note": 54, "velocity": 115, "channel": 0}, {"type": "note_off", "time": 239, "note": 54, "velocity": 115, "channel": 0}, {"type": "note_on", "time": 0, "note": 58, "velocity": 102, "channel": 0}, {"type": "note_off", "time": 208, "note": 58, "velocity": 102, "channel": 0}, {"type": "note_on", "time": 0, "note": 54, "velocity": 114, "channel": 0}, {"type": "note_off", "time": 208, "note": 54, "velocity": 114, "channel": 0}, {"type": "note_on", "time": 0, "note": 53, "velocity": 109, "channel": 0}, {"type": "note_off", "time": 247, "note": 53, "velocity": 109, "channel": 0}, {"type": "note_on", "time": 0, "note": 51, "velocity": 107, "channel": 0}, {"type": "note_off", "time": 247, "note": 51, "velocity": 107, "channel": 0}, {"type": "note_on", "time": 30, "note": 46, "velocity": 104, "channel": 0}, {"type": "note_off", "time": 851, "note": 46, "velocity": 104, "channel": 0}, {"type": "note_on", "time": 16, "note": 51, "velocity": 98, "channel": 0}, {"type": "note_off", "time": 68, "note": 51, "velocity": 98, "channel": 0}, {"type": "note_on", "time": 27, "note": 53, "velocity": 95, "channel": 0}, {"type": "note_off", "time": 800, "note": 53, "velocity": 95, "channel": 0}, {"type": "note_on", "time": 137, "note": 52, "velocity": 93, "channel": 0}, {"type": "note_off", "time": 713, "note": 52, "velocity": 93, "channel": 0}, {"type": "note_on", "time": 95, "note": 48, "velocity": 86, "channel": 0}, {"type": "note_off", "time": 969, "note": 48, "velocity": 86, "channel": 0}, {"type": "note_on", "time": 790, "note": 48, "velocity": 107, "channel": 0}, {"type": "note_off", "time": 188, "note": 48, "velocity": 107, "channel": 0}, {"type": "note_on", "time": 23, "note": 49, "velocity": 104, "channel": 0}, {"type": "note_off", "time": 188, "note": 49, "velocity": 104, "channel": 0}, {"type": "note_on", "time": 0, "note": 53, "velocity": 106, "channel": 0}, {"type": "note_off", "time": 273, "note": 53, "velocity": 106, "channel": 0}, {"type": "note_on", "time": 0, "note": 56, "velocity": 111, "channel": 0}, {"type": "note_off", "time": 240, "note": 56, "velocity": 111, "channel": 0}, {"type": "note_on", "time": 0, "note": 58, "velocity": 106, "channel": 0}, {"type": "note_off", "time": 59, "note": 58, "velocity": 106, "channel": 0}, {"type": "note_on", "time": 5, "note": 60, "velocity": 104, "channel": 0}, {"type": "note_off", "time": 799, "note": 60, "velocity": 104, "channel": 0}, {"type": "note_on", "time": 22, "note": 58, "velocity": 95, "channel": 0}, {"type": "note_off", "time": 377, "note": 58, "velocity": 95, "channel": 0}, {"type": "note_on", "time": 6, "note": 56, "velocity": 102, "channel": 0}, {"type": "note_off", "time": 292, "note": 56, "velocity": 102, "channel": 0}, {"type": "note_on", "time": 150, "note": 62, "velocity": 112, "channel": 0}, {"type": "note_off", "time": 97, "note": 62, "velocity": 112, "channel": 0}, {"type": "note_on", "time": 34, "note": 63, "velocity": 97, "channel": 0}, {"type": "note_off", "time": 1150, "note": 63, "velocity": 97, "channel": 0}, {"type": "note_on", "time": 38, "note": 60, "velocity": 117, "channel": 0}, {"type": "note_off", "time": 396, "note": 60, "velocity": 117, "channel": 0}, {"type": "note_on", "time": 51, "note": 61, "velocity": 103, "channel": 0}, {"type": "note_off", "time": 760, "note": 61, "velocity": 103, "channel": 0}, {"type": "note_on", "time": 15, "note": 58, "velocity": 85, "channel": 0}, {"type": "note_off", "time": 667, "note": 58, "velocity": 85, "channel": 0}, {"type": "note_on", "time": 1028, "note": 50, "velocity": 104, "channel": 0}, {"type": "note_off", "time": 227, "note": 50, "velocity": 104, "channel": 0}, {"type": "note_on", "time": 37, "note": 51, "velocity": 113, "channel": 0}, {"type": "note_off", "time": 175, "note": 51, "velocity": 113, "channel": 0}, {"type": "note_on", "time": 0, "note": 54, "velocity": 116, "channel": 0}, {"type": "note_off", "time": 226, "note": 54, "velocity": 116, "channel": 0}, {"type": "note_on", "time": 0, "note": 58, "velocity": 99, "channel": 0}, {"type": "note_off", "time": 136, "note": 58, "velocity": 99, "channel": 0}, {"type": "note_on", "time": 28, "note": 61, "velocity": 127, "channel": 0}, {"type": "note_off", "time": 315, "note": 61, "velocity": 127, "channel": 0}, {"type": "note_on", "time": 0, "note": 63, "velocity": 118, "channel": 0}, {"type": "note_off", "time": 299, "note": 63, "velocity": 118, "channel": 0}, {"type": "note_on", "time": 43, "note": 61, "velocity": 122, "channel": 0}, {"type": "note_off", "time": 155, "note": 61, "velocity": 122, "channel": 0}, {"type": "note_on", "time": 0, "note": 58, "velocity": 100, "channel": 0}, {"type": "note_off", "time": 195, "note": 58, "velocity": 100, "channel": 0}, {"type": "note_on", "time": 79, "note": 54, "velocity": 101, "channel": 0}, {"type": "note_off", "time": 146, "note": 54, "velocity": 101, "channel": 0}, {"type": "note_on", "time": 45, "note": 51, "velocity": 94, "channel": 0}, {"type": "note_off", "time": 205, "note": 51, "velocity": 94, "channel": 0}, {"type": "note_on", "time": 27, "note": 48, "velocity": 89, "channel": 0}, {"type": "note_off", "time": 118, "note": 48, "velocity": 89, "channel": 0}, {"type": "note_on", "time": 45, "note": 53, "velocity": 80, "channel": 0}, {"type": "note_off", "time": 1078, "note": 53, "velocity": 80, "channel": 0}, {"type": "note_on", "time": 580, "note": 56, "velocity": 103, "channel": 0}, {"type": "note_off", "time": 123, "note": 56, "velocity": 103, "channel": 0}, {"type": "note_on", "time": 100, "note": 57, "velocity": 99, "channel": 0}, {"type": "note_off", "time": 155, "note": 57, "velocity": 99, "channel": 0}, {"type": "note_on", "time": 0, "note": 56, "velocity": 103, "channel": 0}, {"type": "note_off", "time": 137, "note": 56, "velocity": 103, "channel": 0}, {"type": "note_on", "time": 0, "note": 63, "velocity": 109, "channel": 0}, {"type": "note_off", "time": 1174, "note": 63, "velocity": 109, "channel": 0}, {"type": "note_on", "time": 100, "note": 61, "velocity": 112, "channel": 0}, {"type": "note_off", "time": 396, "note": 61, "velocity": 112, "channel": 0}, {"type": "note_on", "time": 1, "note": 58, "velocity": 97, "channel": 0}, {"type": "note_off", "time": 178, "note": 58, "velocity": 97, "channel": 0}, {"type": "note_on", "time": 64, "note": 53, "velocity": 97, "channel": 0}, {"type": "note_off", "time": 265, "note": 53, "velocity": 97, "channel": 0}, {"type": "note_on", "time": 9, "note": 51, "velocity": 107, "channel": 0}, {"type": "note_off", "time": 237, "note": 51, "velocity": 107, "channel": 0}, {"type": "note_on", "time": 22, "note": 49, "velocity": 89, "channel": 0}, {"type": "note_off", "time": 411, "note": 49, "velocity": 89, "channel": 0}, {"type": "note_on", "time": 188, "note": 52, "velocity": 104, "channel": 0}, {"type": "note_off", "time": 331, "note": 52, "velocity": 104, "channel": 0}, {"type": "note_on", "time": 42, "note": 56, "velocity": 112, "channel": 0}, {"type": "note_off", "time": 278, "note": 56, "velocity": 112, "channel": 0}, {"type": "note_on", "time": 0, "note": 52, "velocity": 102, "channel": 0}, {"type": "note_off", "time": 150, "note": 52, "velocity": 102, "channel": 0}, {"type": "note_on", "time": 93, "note": 51, "velocity": 108, "channel": 0}, {"type": "note_off", "time": 240, "note": 51, "velocity": 108, "channel": 0}, {"type": "note_on", "time": 0, "note": 49, "velocity": 88, "channel": 0}, {"type": "note_off", "time": 406, "note": 49, "velocity": 88, "channel": 0}, {"type": "note_on", "time": 145, "note": 53, "velocity": 91, "channel": 0}, {"type": "note_off", "time": 481, "note": 53, "velocity": 91, "channel": 0}, {"type": "note_on", "time": 387, "note": 56, "velocity": 116, "channel": 0}, {"type": "note_off", "time": 227, "note": 56, "velocity": 116, "channel": 0}, {"type": "note_on", "time": 8, "note": 55, "velocity": 109, "channel": 0}, {"type": "note_off", "time": 214, "note": 55, "velocity": 109, "channel": 0}, {"type": "note_on", "time": 0, "note": 54, "velocity": 108, "channel": 0}, {"type": "note_on", "time": 201, "note": 53, "velocity": 104, "channel": 0}, {"type": "note_off", "time": 0, "note": 54, "velocity": 108, "channel": 0}, {"type": "note_off", "time": 252, "note": 53, "velocity": 104, "channel": 0}, {"type": "note_on", "time": 0, "note": 51, "velocity": 106, "channel": 0}, {"type": "note_off", "time": 208, "note": 51, "velocity": 106, "channel": 0}, {"type": "note_on", "time": 15, "note": 50, "velocity": 102, "channel": 0}, {"type": "note_off", "time": 141, "note": 50, "velocity": 102, "channel": 0}, {"type": "note_on", "time": 50, "note": 48, "velocity": 88, "channel": 0}, {"type": "note_off", "time": 233, "note": 48, "velocity": 88, "channel": 0}, {"type": "note_on", "time": 155, "note": 50, "velocity": 92, "channel": 0}, {"type": "note_off", "time": 612, "note": 50, "velocity": 92, "channel": 0}, {"type": "note_on", "time": 46, "note": 48, "velocity": 105, "channel": 0}, {"type": "note_off", "time": 149, "note": 48, "velocity": 105, "channel": 0}, {"type": "note_on", "time": 23, "note": 46, "velocity": 101, "channel": 0}, {"type": "note_off", "time": 1065, "note": 46, "velocity": 101, "channel": 0}, {"type": "end_of_track", "time": 0}]]}