{"ticks_per_beat": 27720, "tracks": [[{"type": "track_name", "name": "Melody", "time": 0}, {"type": "set_tempo", "tempo": 731707, "time": 0}, {"type": "key_signature", "key": "Eb", "time": 0}, {"type": "time_signature", "numerator": 4, "denominator": 4, "clocks_per_click": 24, "notated_32nd_notes_per_beat": 8, "time": 0}, {"type": "note_on", "time": 330189, "note": 70, "velocity": 89, "channel": 0}, {"type": "note_off", "time": 7202, "note": 70, "velocity": 89, "channel": 0}, {"type": "note_on", "time": 2357, "note": 82, "velocity": 90, "channel": 0}, {"type": "note_off", "time": 7576, "note": 82, "velocity": 90, "channel": 0}, {"type": "note_on", "time": 773, "note": 79, "velocity": 91, "channel": 0}, {"type": "note_off", "time": 8349, "note": 79, "velocity": 91, "channel": 0}, {"type": "note_on", "time": 1175, "note": 77, "velocity": 89, "channel": 0}, {"type": "note_off", "time": 9896, "note": 77, "velocity": 89, "channel": 0}, {"type": "note_on", "time": 0, "note": 75, "velocity": 77, "channel": 0}, {"type": "note_off", "time": 8136, "note": 75, "velocity": 77, "channel": 0}, {"type": "note_on", "time": 439, "note": 74, "velocity": 94, "channel": 0}, {"type": "note_off", "time": 10116, "note": 74, "velocity": 94, "channel": 0}, {"type": "note_on", "time": 219, "note": 72, "velocity": 73, "channel": 0}, {"type": "note_off", "time": 27709, "note": 72, "velocity": 73, "channel": 0}, {"type": "note_on", "time": 27197, "note": 68, "velocity": 99, "channel": 0}, {"type": "note_off", "time": 9676, "note": 68, "velocity": 99, "channel": 0}, {"type": "note_on", "time": 1147, "note": 80, "velocity": 91, "channel": 0}, {"type": "note_off", "time": 7267, "note": 80, "velocity": 91, "channel": 0}, {"type": "note_on", "time": 773, "note": 79, "velocity": 99, "channel": 0}, {"type": "note_off", "time": 8659, "note": 79, "velocity": 99, "channel": 0}, {"type": "note_on", "time": 927, "note": 77, "velocity": 91, "channel": 0}, {"type": "note_off", "time": 9741, "note": 77, "velocity": 91, "channel": 0}, {"type": "note_on", "time": 773, "note": 75, "velocity": 83, "channel": 0}, {"type": "note_off", "time": 6494, "note": 75, "velocity": 83, "channel": 0}, {"type": "note_on", "time": 154, "note": 74, "velocity": 92, "channel": 0}, {"type": "note_off", "time": 8659, "note": 74, "velocity": 92, "channel": 0}, {"type": "note_on", "time": 1391, "note": 72, "velocity": 71, "channel": 0}, {"type": "note_off", "time": 29468, "note": 72, "velocity": 71, "channel": 0}, {"type": "note_on", "time": 26661, "note": 67, "velocity": 85, "channel": 0}, {"type": "note_off", "time": 20672, "note": 67, "velocity": 85, "channel": 0}, {"type": "note_on", "time": 7161, "note": 79, "velocity": 113, "channel": 0}, {"type": "note_off", "time": 9016, "note": 79, "velocity": 113, "channel": 0}, {"type": "note_on", "time": 309, "note": 77, "velocity": 100, "channel": 0}, {"type": "note_off", "time": 6597, "note": 77, "velocity": 100, "channel": 0}, {"type": "note_on", "time": 0, "note": 75, "velocity": 84, "channel": 0}, {"type": "note_off", "time": 6157, "note": 75, "velocity": 84, "channel": 0}, {"type": "note_on", "time": 0, "note": 74, "velocity": 101, "channel": 0}, {"type": "note_off", "time": 6597, "note": 74, "velocity": 101, "channel": 0}, {"type": "note_on", "time": 659, "note": 72, "velocity": 99, "channel": 0}, {"type": "note_off", "time": 7916, "note": 72, "velocity": 99, "channel": 0}, {"type": "note_on", "time": 0, "note": 70, "velocity": 80, "channel": 0}, {"type": "note_off", "time": 5937, "note": 70, "velocity": 80, "channel": 0}, {"type": "note_on", "time": 219, "note": 72, "velocity": 95, "channel": 0}, {"type": "note_off", "time": 6817, "note": 72, "velocity": 95, "channel": 0}, {"type": "note_on", "time": 0, "note": 74, "velocity": 101, "channel": 0}, {"type": "note_off", "time": 5937, "note": 74, "velocity": 101, "channel": 0}, {"type": "note_on", "time": 439, "note": 75, "velocity": 91, "channel": 0}, {"type": "note_off", "time": 7037, "note": 75, "velocity": 91, "channel": 0}, {"type": "note_on", "time": 0, "note": 79, "velocity": 97, "channel": 0}, {"type": "note_off", "time": 7037, "note": 79, "velocity": 97, "channel": 0}, {"type": "note_on", "time": 0, "note": 82, "velocity": 95, "channel": 0}, {"type": "note_off", "time": 8576, "note": 82, "velocity": 95, "channel": 0}, {"type": "note_on", "time": 3467, "note": 86, "velocity": 116, "channel": 0}, {"type": "note_off", "time": 8576, "note": 86, "velocity": 116, "channel": 0}, {"type": "note_on", "time": 1010, "note": 84, "velocity": 84, "channel": 0}, {"type": "note_off", "time": 4638, "note": 84, "velocity": 84, "channel": 0}, {"type": "note_on", "time": 1219, "note": 79, "velocity": 88, "channel": 0}, {"type": "note_off", "time": 8356, "note": 79, "velocity": 88, "channel": 0}, {"type": "note_on", "time": 0, "note": 75, "velocity": 82, "channel": 0}, {"type": "note_off", "time": 5058, "note": 75, "velocity": 82, "channel": 0}, {"type": "note_on", "time": 0, "note": 72, "velocity": 86, "channel": 0}, {"type": "note_off", "time": 11875, "note": 72, "velocity": 86, "channel": 0}, {"type": "note_on", "time": 2858, "note": 72, "velocity": 88, "channel": 0}, {"type": "note_off", "time": 11435, "note": 72, "velocity": 88, "channel": 0}, {"type": "note_on", "time": 659, "note": 71, "velocity": 108, "channel": 0}, {"type": "note_off", "time": 9676, "note": 71, "velocity": 108, "channel": 0}, {"type": "note_on", "time": 1099, "note": 71, "velocity": 106, "channel": 0}, {"type": "note_off", "time": 4398, "note": 71, "velocity": 106, "channel": 0}, {"type": "note_on", "time": 879, "note": 71, "velocity": 109, "channel": 0}, {"type": "note_off", "time": 9236, "note": 71, "velocity": 109, "channel": 0}, {"type": "note_on", "time": 659, "note": 71, "velocity": 104, "channel": 0}, {"type": "note_off", "time": 2322, "note": 71, "velocity": 104, "channel": 0}, {"type": "note_on", "time": 0, "note": 79, "velocity": 105, "channel": 0}, {"type": "note_off", "time": 8796, "note": 79, "velocity": 105, "channel": 0}, {"type": "note_on", "time": 1855, "note": 79, "velocity": 101, "channel": 0}, {"type": "note_off", "time": 4178, "note": 79, "velocity": 101, "channel": 0}, {"type": "note_on", "time": 1099, "note": 79, "velocity": 93, "channel": 0}, {"type": "note_off", "time": 7697, "note": 79, "velocity": 93, "channel": 0}, {"type": "note_on", "time": 879, "note": 75, "velocity": 64, "channel": 0}, {"type": "note_off", "time": 3958, "note": 75, "velocity": 64, "channel": 0}, {"type": "note_on", "time": 0, "note": 77, "velocity": 103, "channel": 0}, {"type": "note_off", "time": 9676, "note": 77, "velocity": 103, "channel": 0}, {"type": "note_on", "time": 0, "note": 75, "velocity": 89, "channel": 0}, {"type": "note_off", "time": 4618, "note": 75, "velocity": 89, "channel": 0}, {"type": "note_on", "time": 219, "note": 77, "velocity": 99, "channel": 0}, {"type": "note_off", "time": 8796, "note": 77, "velocity": 99, "channel": 0}, {"type": "note_on", "time": 0, "note": 75, "velocity": 73, "channel": 0}, {"type": "note_off", "time": 4398, "note": 75, "velocity": 73, "channel": 0}, {"type": "note_on", "time": 219, "note": 72, "velocity": 89, "channel": 0}, {"type": "note_off", "time": 9676, "note": 72, "velocity": 89, "channel": 0}, {"type": "note_on", "time": 219, "note": 70, "velocity": 80, "channel": 0}, {"type": "note_off", "time": 4398, "note": 70, "velocity": 80, "channel": 0}, {"type": "note_on", "time": 130, "note": 65, "velocity": 91, "channel": 0}, {"type": "note_off", "time": 7886, "note": 65, "velocity": 91, "channel": 0}, {"type": "note_on", "time": 0, "note": 63, "velocity": 81, "channel": 0}, {"type": "note_off", "time": 7267, "note": 63, "velocity": 81, "channel": 0}, {"type": "note_on", "time": 40134, "note": 61, "velocity": 74, "channel": 0}, {"type": "note_off", "time": 4398, "note": 61, "velocity": 74, "channel": 0}, {"type": "note_on", "time": 0, "note": 63, "velocity": 92, "channel": 0}, {"type": "note_off", "time": 4178, "note": 63, "velocity": 92, "channel": 0}, {"type": "note_on", "time": 0, "note": 65, "velocity": 95, "channel": 0}, {"type": "note_on", "time": 2858, "note": 70, "velocity": 105, "channel": 0}, {"type": "note_off", "time": 0, "note": 65, "velocity": 95, "channel": 0}, {"type": "note_off", "time": 10555, "note": 70, "velocity": 105, "channel": 0}, {"type": "note_on", "time": 4398, "note": 61, "velocity": 91, "channel": 0}, {"type": "note_off", "time": 3958, "note": 61, "velocity": 91, "channel": 0}, {"type": "note_on", "time": 0, "note": 63, "velocity": 87, "channel": 0}, {"type": "note_off", "time": 4838, "note": 63, "velocity": 87, "channel": 0}, {"type": "note_on", "time": 219, "note": 65, "velocity": 98, "channel": 0}, {"type": "note_off", "time": 4178, "note": 65, "velocity": 98, "channel": 0}, {"type": "note_on", "time": 0, "note": 70, "velocity": 97, "channel": 0}, {"type": "note_off", "time": 11875, "note": 70, "velocity": 97, "channel": 0}, {"type": "note_on", "time": 2638, "note": 67, "velocity": 99, "channel": 0}, {"type": "note_off", "time": 9236, "note": 67, "velocity": 99, "channel": 0}, {"type": "note_on", "time": 0, "note": 66, "velocity": 96, "channel": 0}, {"type": "note_off", "time": 5277, "note": 66, "velocity": 96, "channel": 0}, {"type": "note_on", "time": 0, "note": 60, "velocity": 94, "channel": 0}, {"type": "note_off", "time": 8356, "note": 60, "velocity": 94, "channel": 0}, {"type": "note_on", "time": 0, "note": 59, "velocity": 92, "channel": 0}, {"type": "note_off", "time": 5717, "note": 59, "velocity": 92, "channel": 0}, {"type": "note_on", "time": 439, "note": 58, "velocity": 85, "channel": 0}, {"type": "note_off", "time": 7477, "note": 58, "velocity": 85, "channel": 0}, {"type": "note_on", "time": 1099, "note": 58, "velocity": 83, "channel": 0}, {"type": "note_off", "time": 4838, "note": 58, "velocity": 83, "channel": 0}, {"type": "note_on", "time": 659, "note": 67, "velocity": 108, "channel": 0}, {"type": "note_off", "time": 11435, "note": 67, "velocity": 108, "channel": 0}, {"type": "note_on", "time": 2638, "note": 67, "velocity": 100, "channel": 0}, {"type": "note_off", "time": 8356, "note": 67, "velocity": 100, "channel": 0}, {"type": "note_on", "time": 219, "note": 68, "velocity": 98, "channel": 0}, {"type": "note_off", "time": 4398, "note": 68, "velocity": 98, "channel": 0}, {"type": "note_on", "time": 659, "note": 64, "velocity": 100, "channel": 0}, {"type": "note_on", "time": 9016, "note": 65, "velocity": 92, "channel": 0}, {"type": "note_off", "time": 0, "note": 64, "velocity": 100, "channel": 0}, {"type": "note_off", "time": 5497, "note": 65, "velocity": 92, "channel": 0}, {"type": "note_on", "time": 0, "note": 68, "velocity": 102, "channel": 0}, {"type": "note_off", "time": 7037, "note": 68, "velocity": 102, "channel": 0}, {"type": "note_on", "time": 0, "note": 72, "velocity": 97, "channel": 0}, {"type": "note_off", "time": 6157, "note": 72, "velocity": 97, "channel": 0}, {"type": "note_on", "time": 0, "note": 75, "velocity": 98, "channel": 0}, {"type": "note_on", "time": 9016, "note": 79, "velocity": 102, "channel": 0}, {"type": "note_off", "time": 0, "note": 75, "velocity": 98, "channel": 0}, {"type": "note_off", "time": 8796, "note": 79, "velocity": 102, "channel": 0}, {"type": "note_on", "time": 0, "note": 82, "velocity": 96, "channel": 0}, {"type": "note_off", "time": 8796, "note": 82, "velocity": 96, "channel": 0}, {"type": "note_on", "time": 0, "note": 79, "velocity": 105, "channel": 0}, {"type": "note_off", "time": 9456, "note": 79, "velocity": 105, "channel": 0}, {"type": "note_on", "time": 219, "note": 70, "velocity": 90, "channel": 0}, {"type": "note_off", "time": 5497, "note": 70, "velocity": 90, "channel": 0}, {"type": "note_on", "time": 0, "note": 69, "velocity": 82, "channel": 0}, {"type": "note_off", "time": 8136, "note": 69, "velocity": 82, "channel": 0}, {"type": "note_on", "time": 0, "note": 68, "velocity": 93, "channel": 0}, {"type": "note_off", "time": 4178, "note": 68, "velocity": 93, "channel": 0}, {"type": "note_on", "time": 0, "note": 79, "velocity": 99, "channel": 0}, {"type": "note_off", "time": 12315, "note": 79, "velocity": 99, "channel": 0}, {"type": "note_on", "time": 1759, "note": 79, "velocity": 100, "channel": 0}, {"type": "note_off", "time": 13380, "note": 79, "velocity": 100, "channel": 0}, {"type": "note_on", "time": 0, "note": 75, "velocity": 78, "channel": 0}, {"type": "note_off", "time": 13194, "note": 75, "velocity": 78, "channel": 0}, {"type": "note_on", "time": 2013, "note": 79, "velocity": 109, "channel": 0}, {"type": "note_off", "time": 3958, "note": 79, "velocity": 109, "channel": 0}, {"type": "note_on", "time": 0, "note": 80, "velocity": 94, "channel": 0}, {"type": "note_off", "time": 4838, "note": 80, "velocity": 94, "channel": 0}, {"type": "note_on", "time": 0, "note": 81, "velocity": 71, "channel": 0}, {"type": "note_off", "time": 4398, "note": 81, "velocity": 71, "channel": 0}, {"type": "note_on", "time": 975, "note": 82, "velocity": 96, "channel": 0}, {"type": "note_off", "time": 4174, "note": 82, "velocity": 96, "channel": 0}, {"type": "note_on", "time": 566, "note": 81, "velocity": 96, "channel": 0}, {"type": "note_off", "time": 4398, "note": 81, "velocity": 96, "channel": 0}, {"type": "note_on", "time": 0, "note": 80, "velocity": 89, "channel": 0}, {"type": "note_off", "time": 4398, "note": 80, "velocity": 89, "channel": 0}, {"type": "note_on", "time": 0, "note": 79, "velocity": 94, "channel": 0}, {"type": "note_off", "time": 4838, "note": 79, "velocity": 94, "channel": 0}, {"type": "note_on", "time": 0, "note": 80, "velocity": 83, "channel": 0}, {"type": "note_off", "time": 4199, "note": 80, "velocity": 83, "channel": 0}, {"type": "note_on", "time": 0, "note": 81, "velocity": 83, "channel": 0}, {"type": "note_off", "time": 2783, "note": 81, "velocity": 83, "channel": 0}, {"type": "note_on", "time": 927, "note": 82, "velocity": 97, "channel": 0}, {"type": "note_off", "time": 11751, "note": 82, "velocity": 97, "channel": 0}, {"type": "note_on", "time": 3209, "note": 78, "velocity": 91, "channel": 0}, {"type": "note_off", "time": 10555, "note": 78, "velocity": 91, "channel": 0}, {"type": "note_on", "time": 4618, "note": 78, "velocity": 87, "channel": 0}, {"type": "note_off", "time": 9236, "note": 78, "velocity": 87, "channel": 0}, {"type": "note_on", "time": 18253, "note": 82, "velocity": 110, "channel": 0}, {"type": "note_off", "time": 8576, "note": 82, "velocity": 110, "channel": 0}, {"type": "note_on", "time": 2199, "note": 87, "velocity": 100, "channel": 0}, {"type": "note_off", "time": 11875, "note": 87, "velocity": 100, "channel": 0}, {"type": "note_on", "time": 219, "note": 82, "velocity": 93, "channel": 0}, {"type": "note_off", "time": 5497, "note": 82, "velocity": 93, "channel": 0}, {"type": "note_on", "time": 439, "note": 87, "velocity": 98, "channel": 0}, {"type": "note_off", "time": 8576, "note": 87, "velocity": 98, "channel": 0}, {"type": "note_on", "time": 1759, "note": 82, "velocity": 89, "channel": 0}, {"type": "note_off", "time": 4398, "note": 82, "velocity": 89, "channel": 0}, {"type": "note_on", "time": 0, "note": 79, "velocity": 87, "channel": 0}, {"type": "note_off", "time": 8356, "note": 79, "velocity": 87, "channel": 0}, {"type": "note_on", "time": 0, "note": 75, "velocity": 81, "channel": 0}, {"type": "note_off", "time": 3972, "note": 75, "velocity": 81, "channel": 0}, {"type": "note_on", "time": 0, "note": 82, "velocity": 99, "channel": 0}, {"type": "note_off", "time": 14074, "note": 82, "velocity": 99, "channel": 0}, {"type": "note_on", "time": 29455, "note": 79, "velocity": 100, "channel": 0}, {"type": "note_off", "time": 5717, "note": 79, "velocity": 100, "channel": 0}, {"type": "note_on", "time": 0, "note": 80, "velocity": 93, "channel": 0}, {"type": "note_on", "time": 4618, "note": 81, "velocity": 78, "channel": 0}, {"type": "note_off", "time": 0, "note": 80, "velocity": 93, "channel": 0}, {"type": "note_off", "time": 3738, "note": 81, "velocity": 78, "channel": 0}, {"type": "note_on", "time": 0, "note": 82, "velocity": 102, "channel": 0}, {"type": "note_off", "time": 8576, "note": 82, "velocity": 102, "channel": 0}, {"type": "note_on", "time": 219, "note": 84, "velocity": 96, "channel": 0}, {"type": "note_off", "time": 5277, "note": 84, "velocity": 96, "channel": 0}, {"type": "note_on", "time": 659, "note": 80, "velocity": 91, "channel": 0}, {"type": "note_off", "time": 7697, "note": 80, "velocity": 91, "channel": 0}, {"type": "note_on", "time": 219, "note": 79, "velocity": 95, "channel": 0}, {"type": "note_on", "time": 5937, "note": 72, "velocity": 95, "channel": 0}, {"type": "note_off", "time": 0, "note": 79, "velocity": 95, "channel": 0}, {"type": "note_off", "time": 7037, "note": 72, "velocity": 95, "channel": 0}, {"type": "note_on", "time": 1374, "note": 70, "velocity": 99, "channel": 0}, {"type": "note_off", "time": 5882, "note": 70, "velocity": 99, "channel": 0}, {"type": "note_on", "time": 1731, "note": 69, "velocity": 85, "channel": 0}, {"type": "note_off", "time": 4673, "note": 69, "velocity": 85, "channel": 0}, {"type": "note_on", "time": 852, "note": 68, "velocity": 93, "channel": 0}, {"type": "note_off", "time": 4838, "note": 68, "velocity": 93, "channel": 0}, {"type": "note_on", "time": 0, "note": 79, "velocity": 96, "channel": 0}, {"type": "note_off", "time": 14954, "note": 79, "velocity": 96, "channel": 0}, {"type": "note_on", "time": 27269, "note": 77, "velocity": 110, "channel": 0}, {"type": "note_off", "time": 9016, "note": 77, "velocity": 110, "channel": 0}, {"type": "note_on", "time": 659, "note": 75, "velocity": 94, "channel": 0}, {"type": "note_off", "time": 3958, "note": 75, "velocity": 94, "channel": 0}, {"type": "note_on", "time": 439, "note": 77, "velocity": 114, "channel": 0}, {"type": "note_off", "time": 9456, "note": 77, "velocity": 114, "channel": 0}, {"type": "note_on", "time": 659, "note": 75, "velocity": 94, "channel": 0}, {"type": "note_off", "time": 4838, "note": 75, "velocity": 94, "channel": 0}, {"type": "note_on", "time": 219, "note": 77, "velocity": 112, "channel": 0}, {"type": "note_off", "time": 9236, "note": 77, "velocity": 112, "channel": 0}, {"type": "note_on", "time": 219, "note": 75, "velocity": 74, "channel": 0}, {"type": "note_off", "time": 4838, "note": 75, "velocity": 74, "channel": 0}, {"type": "note_on", "time": 0, "note": 72, "velocity": 100, "channel": 0}, {"type": "note_off", "time": 10555, "note": 72, "velocity": 100, "channel": 0}, {"type": "note_on", "time": 3078, "note": 67, "velocity": 95, "channel": 0}, {"type": "note_off", "time": 3958, "note": 67, "velocity": 95, "channel": 0}, {"type": "note_on", "time": 0, "note": 71, "velocity": 95, "channel": 0}, {"type": "note_off", "time": 4398, "note": 71, "velocity": 95, "channel": 0}, {"type": "note_on", "time": 0, "note": 74, "velocity": 104, "channel": 0}, {"type": "note_off", "time": 4178, "note": 74, "velocity": 104, "channel": 0}, {"type": "note_on", "time": 0, "note": 79, "velocity": 102, "channel": 0}, {"type": "note_off", "time": 9676, "note": 79, "velocity": 102, "channel": 0}, {"type": "note_on", "time": 5497, "note": 66, "velocity": 107, "channel": 0}, {"type": "note_off", "time": 3518, "note": 66, "velocity": 107, "channel": 0}, {"type": "note_on", "time": 0, "note": 70, "velocity": 105, "channel": 0}, {"type": "note_off", "time": 4838, "note": 70, "velocity": 105, "channel": 0}, {"type": "note_on", "time": 0, "note": 73, "velocity": 102, "channel": 0}, {"type": "note_off", "time": 3518, "note": 73, "velocity": 102, "channel": 0}, {"type": "note_on", "time": 219, "note": 78, "velocity": 106, "channel": 0}, {"type": "note_off", "time": 12535, "note": 78, "velocity": 106, "channel": 0}, {"type": "note_on", "time": 2199, "note": 77, "velocity": 109, "channel": 0}, {"type": "note_on", "time": 8576, "note": 79, "velocity": 110, "channel": 0}, {"type": "note_off", "time": 0, "note": 77, "velocity": 109, "channel": 0}, {"type": "note_off", "time": 5937, "note": 79, "velocity": 110, "channel": 0}, {"type": "note_on", "time": 659, "note": 75, "velocity": 88, "channel": 0}, {"type": "note_off", "time": 8796, "note": 75, "velocity": 88, "channel": 0}, {"type": "note_on", "time": 0, "note": 72, "velocity": 96, "channel": 0}, {"type": "note_off", "time": 5497, "note": 72, "velocity": 96, "channel": 0}, {"type": "note_on", "time": 0, "note": 69, "velocity": 90, "channel": 0}, {"type": "note_off", "time": 6597, "note": 69, "velocity": 90, "channel": 0}, {"type": "note_on", "time": 0, "note": 67, "velocity": 87, "channel": 0}, {"type": "note_off", "time": 5497, "note": 67, "velocity": 87, "channel": 0}, {"type": "note_on", "time": 659, "note": 63, "velocity": 96, "channel": 0}, {"type": "note_off", "time": 6597, "note": 63, "velocity": 96, "channel": 0}, {"type": "note_on", "time": 659, "note": 63, "velocity": 96, "channel": 0}, {"type": "note_off", "time": 4838, "note": 63, "velocity": 96, "channel": 0}, {"type": "note_on", "time": 659, "note": 63, "velocity": 90, "channel": 0}, {"type": "note_off", "time": 8576, "note": 63, "velocity": 90, "channel": 0}, {"type": "note_on", "time": 439, "note": 63, "velocity": 97, "channel": 0}, {"type": "note_on", "time": 4618, "note": 65, "velocity": 114, "channel": 0}, {"type": "note_off", "time": 0, "note": 63, "velocity": 97, "channel": 0}, {"type": "note_off", "time": 8136, "note": 65, "velocity": 114, "channel": 0}, {"type": "note_on", "time": 879, "note": 65, "velocity": 108, "channel": 0}, {"type": "note_off", "time": 3298, "note": 65, "velocity": 108, "channel": 0}, {"type": "note_on", "time": 659, "note": 65, "velocity": 109, "channel": 0}, {"type": "note_off", "time": 8796, "note": 65, "velocity": 109, "channel": 0}, {"type": "note_on", "time": 879, "note": 65, "velocity": 101, "channel": 0}, {"type": "note_off", "time": 3518, "note": 65, "velocity": 101, "channel": 0}, {"type": "note_on", "time": 879, "note": 65, "velocity": 118, "channel": 0}, {"type": "note_off", "time": 9896, "note": 65, "velocity": 118, "channel": 0}, {"type": "note_on", "time": 879, "note": 65, "velocity": 100, "channel": 0}, {"type": "note_off", "time": 3078, "note": 65, "velocity": 100, "channel": 0}, {"type": "note_on", "time": 439, "note": 65, "velocity": 103, "channel": 0}, {"type": "note_off", "time": 9016, "note": 65, "velocity": 103, "channel": 0}, {"type": "note_on", "time": 439, "note": 65, "velocity": 86, "channel": 0}, {"type": "note_off", "time": 3738, "note": 65, "velocity": 86, "channel": 0}, {"type": "note_on", "time": 879, "note": 65, "velocity": 112, "channel": 0}, {"type": "note_off", "time": 9236, "note": 65, "velocity": 112, "channel": 0}, {"type": "note_on", "time": 879, "note": 63, "velocity": 102, "channel": 0}, {"type": "note_off", "time": 4398, "note": 63, "velocity": 102, "channel": 0}, {"type": "note_on", "time": 0, "note": 65, "velocity": 115, "channel": 0}, {"type": "note_off", "time": 10995, "note": 65, "velocity": 115, "channel": 0}, {"type": "note_on", "time": 0, "note": 63, "velocity": 100, "channel": 0}, {"type": "note_off", "time": 4398, "note": 63, "velocity": 100, "channel": 0}, {"type": "note_on", "time": 201, "note": 60, "velocity": 102, "channel": 0}, {"type": "note_off", "time": 7151, "note": 60, "velocity": 102, "channel": 0}, {"type": "note_on", "time": 1082, "note": 60, "velocity": 98, "channel": 0}, {"type": "note_off", "time": 5566, "note": 60, "velocity": 98, "channel": 0}, {"type": "note_on", "time": 54172, "note": 65, "velocity": 95, "channel": 0}, {"type": "note_off", "time": 4838, "note": 65, "velocity": 95, "channel": 0}, {"type": "note_on", "time": 0, "note": 66, "velocity": 114, "channel": 0}, {"type": "note_off", "time": 3958, "note": 66, "velocity": 114, "channel": 0}, {"type": "note_on", "time": 0, "note": 67, "velocity": 99, "channel": 0}, {"type": "note_off", "time": 4398, "note": 67, "velocity": 99, "channel": 0}, {"type": "note_on", "time": 439, "note": 68, "velocity": 117, "channel": 0}, {"type": "note_off", "time": 9676, "note": 68, "velocity": 117, "channel": 0}, {"type": "note_on", "time": 3958, "note": 61, "velocity": 93, "channel": 0}, {"type": "note_on", "time": 4398, "note": 63, "velocity": 96, "channel": 0}, {"type": "note_off", "time": 0, "note": 61, "velocity": 93, "channel": 0}, {"type": "note_off", "time": 5277, "note": 63, "velocity": 96, "channel": 0}, {"type": "note_on", "time": 0, "note": 64, "velocity": 106, "channel": 0}, {"type": "note_off", "time": 4398, "note": 64, "velocity": 106, "channel": 0}, {"type": "note_on", "time": 439, "note": 65, "velocity": 109, "channel": 0}, {"type": "note_off", "time": 9676, "note": 65, "velocity": 109, "channel": 0}, {"type": "note_on", "time": 3518, "note": 64, "velocity": 108, "channel": 0}, {"type": "note_off", "time": 4398, "note": 64, "velocity": 108, "channel": 0}, {"type": "note_on", "time": 0, "note": 65, "velocity": 100, "channel": 0}, {"type": "note_on", "time": 4398, "note": 66, "velocity": 102, "channel": 0}, {"type": "note_off", "time": 0, "note": 65, "velocity": 100, "channel": 0}, {"type": "note_off", "time": 5497, "note": 66, "velocity": 102, "channel": 0}, {"type": "note_on", "time": 0, "note": 67, "velocity": 116, "channel": 0}, {"type": "note_off", "time": 7257, "note": 67, "velocity": 116, "channel": 0}, {"type": "note_on", "time": 659, "note": 72, "velocity": 109, "channel": 0}, {"type": "note_off", "time": 6597, "note": 72, "velocity": 109, "channel": 0}, {"type": "note_on", "time": 219, "note": 67, "velocity": 107, "channel": 0}, {"type": "note_off", "time": 8356, "note": 67, "velocity": 107, "channel": 0}, {"type": "note_on", "time": 0, "note": 60, "velocity": 100, "channel": 0}, {"type": "note_off", "time": 5277, "note": 60, "velocity": 100, "channel": 0}, {"type": "note_on", "time": 879, "note": 59, "velocity": 108, "channel": 0}, {"type": "note_off", "time": 7916, "note": 59, "velocity": 108, "channel": 0}, {"type": "note_on", "time": 0, "note": 58, "velocity": 106, "channel": 0}, {"type": "note_off", "time": 3958, "note": 58, "velocity": 106, "channel": 0}, {"type": "note_on", "time": 0, "note": 67, "velocity": 106, "channel": 0}, {"type": "note_off", "time": 9236, "note": 67, "velocity": 106, "channel": 0}, {"type": "note_on", "time": 4398, "note": 65, "velocity": 108, "channel": 0}, {"type": "note_off", "time": 9236, "note": 65, "velocity": 108, "channel": 0}, {"type": "note_on", "time": 0, "note": 63, "velocity": 107, "channel": 0}, {"type": "note_off", "time": 9236, "note": 63, "velocity": 107, "channel": 0}, {"type": "note_on", "time": 0, "note": 60, "velocity": 90, "channel": 0}, {"type": "note_off", "time": 10555, "note": 60, "velocity": 90, "channel": 0}, {"type": "note_on", "time": 439, "note": 63, "velocity": 115, "channel": 0}, {"type": "note_off", "time": 5717, "note": 63, "velocity": 115, "channel": 0}, {"type": "note_on", "time": 0, "note": 60, "velocity": 84, "channel": 0}, {"type": "note_off", "time": 12755, "note": 60, "velocity": 84, "channel": 0}, {"type": "note_on", "time": 36506, "note": 70, "velocity": 111, "channel": 0}, {"type": "note_off", "time": 8576, "note": 70, "velocity": 111, "channel": 0}, {"type": "note_on", "time": 879, "note": 68, "velocity": 117, "channel": 0}, {"type": "note_off", "time": 5277, "note": 68, "velocity": 117, "channel": 0}, {"type": "note_on", "time": 439, "note": 66, "velocity": 111, "channel": 0}, {"type": "note_off", "time": 8796, "note": 66, "velocity": 111, "channel": 0}, {"type": "note_on", "time": 219, "note": 63, "velocity": 102, "channel": 0}, {"type": "note_off", "time": 4398, "note": 63, "velocity": 102, "channel": 0}, {"type": "note_on", "time": 1319, "note": 60, "velocity": 98, "channel": 0}, {"type": "note_off", "time": 7697, "note": 60, "velocity": 98, "channel": 0}, {"type": "note_on", "time": 439, "note": 58, "velocity": 81, "channel": 0}, {"type": "note_off", "time": 5277, "note": 58, "velocity": 81, "channel": 0}, {"type": "note_on", "time": 845, "note": 63, "velocity": 105, "channel": 0}, {"type": "note_off", "time": 10050, "note": 63, "velocity": 105, "channel": 0}, {"type": "note_on", "time": 2958, "note": 63, "velocity": 99, "channel": 0}, {"type": "note_off", "time": 10555, "note": 63, "velocity": 99, "channel": 0}, {"type": "note_on", "time": 30568, "note": 68, "velocity": 118, "channel": 0}, {"type": "note_off", "time": 7477, "note": 68, "velocity": 118, "channel": 0}, {"type": "note_on", "time": 659, "note": 68, "velocity": 111, "channel": 0}, {"type": "note_off", "time": 5277, "note": 68, "velocity": 111, "channel": 0}, {"type": "note_on", "time": 951, "note": 67, "velocity": 115, "channel": 0}, {"type": "note_off", "time": 6494, "note": 67, "velocity": 115, "channel": 0}, {"type": "note_on", "time": 773, "note": 68, "velocity": 113, "channel": 0}, {"type": "note_off", "time": 5721, "note": 68, "velocity": 113, "channel": 0}, {"type": "note_on", "time": 1013, "note": 71, "velocity": 112, "channel": 0}, {"type": "note_off", "time": 5937, "note": 71, "velocity": 112, "channel": 0}, {"type": "note_on", "time": 0, "note": 74, "velocity": 120, "channel": 0}, {"type": "note_off", "time": 5717, "note": 74, "velocity": 120, "channel": 0}, {"type": "note_on", "time": 659, "note": 72, "velocity": 117, "channel": 0}, {"type": "note_off", "time": 8356, "note": 72, "velocity": 117, "channel": 0}, {"type": "note_on", "time": 0, "note": 67, "velocity": 94, "channel": 0}, {"type": "note_off", "time": 6157, "note": 67, "velocity": 94, "channel": 0}, {"type": "note_on", "time": 439, "note": 72, "velocity": 109, "channel": 0}, {"type": "note_off", "time": 6597, "note": 72, "velocity": 109, "channel": 0}, {"type": "note_on", "time": 0, "note": 75, "velocity": 98, "channel": 0}, {"type": "note_off", "time": 5058, "note": 75, "velocity": 98, "channel": 0}, {"type": "note_on", "time": 0, "note": 79, "velocity": 112, "channel": 0}, {"type": "note_off", "time": 7477, "note": 79, "velocity": 112, "channel": 0}, {"type": "note_on", "time": 879, "note": 79, "velocity": 111, "channel": 0}, {"type": "note_off", "time": 10116, "note": 79, "velocity": 111, "channel": 0}, {"type": "note_on", "time": 52120, "note": 72, "velocity": 101, "channel": 0}, {"type": "note_off", "time": 3958, "note": 72, "velocity": 101, "channel": 0}, {"type": "note_on", "time": 219, "note": 75, "velocity": 93, "channel": 0}, {"type": "note_off", "time": 4178, "note": 75, "velocity": 93, "channel": 0}, {"type": "note_on", "time": 439, "note": 79, "velocity": 105, "channel": 0}, {"type": "note_off", "time": 3518, "note": 79, "velocity": 105, "channel": 0}, {"type": "note_on", "time": 1319, "note": 82, "velocity": 95, "channel": 0}, {"type": "note_off", "time": 10116, "note": 82, "velocity": 95, "channel": 0}, {"type": "note_on", "time": 2858, "note": 80, "velocity": 96, "channel": 0}, {"type": "note_off", "time": 10116, "note": 80, "velocity": 96, "channel": 0}, {"type": "note_on", "time": 3958, "note": 79, "velocity": 101, "channel": 0}, {"type": "note_off", "time": 9236, "note": 79, "velocity": 101, "channel": 0}, {"type": "note_on", "time": 879, "note": 75, "velocity": 83, "channel": 0}, {"type": "note_off", "time": 3958, "note": 75, "velocity": 83, "channel": 0}, {"type": "note_on", "time": 219, "note": 78, "velocity": 104, "channel": 0}, {"type": "note_off", "time": 9236, "note": 78, "velocity": 104, "channel": 0}, {"type": "note_on", "time": 4838, "note": 77, "velocity": 106, "channel": 0}, {"type": "note_off", "time": 9236, "note": 77, "velocity": 106, "channel": 0}, {"type": "note_on", "time": 0, "note": 74, "velocity": 102, "channel": 0}, {"type": "note_off", "time": 3958, "note": 74, "velocity": 102, "channel": 0}, {"type": "note_on", "time": 1099, "note": 71, "velocity": 102, "channel": 0}, {"type": "note_off", "time": 9016, "note": 71, "velocity": 102, "channel": 0}, {"type": "note_on", "time": 219, "note": 67, "velocity": 94, "channel": 0}, {"type": "note_off", "time": 3958, "note": 67, "velocity": 94, "channel": 0}, {"type": "note_on", "time": 219, "note": 65, "velocity": 92, "channel": 0}, {"type": "note_off", "time": 10555, "note": 65, "velocity": 92, "channel": 0}, {"type": "note_on", "time": 2419, "note": 72, "velocity": 106, "channel": 0}, {"type": "note_off", "time": 9016, "note": 72, "velocity": 106, "channel": 0}, {"type": "note_on", "time": 0, "note": 67, "velocity": 100, "channel": 0}, {"type": "note_on", "time": 5277, "note": 72, "velocity": 111, "channel": 0}, {"type": "note_off", "time": 0, "note": 67, "velocity": 100, "channel": 0}, {"type": "note_off", "time": 11215, "note": 72, "velocity": 111, "channel": 0}, {"type": "note_on", "time": 0, "note": 67, "velocity": 108, "channel": 0}, {"type": "note_off", "time": 4618, "note": 67, "velocity": 108, "channel": 0}, {"type": "note_on", "time": 0, "note": 63, "velocity": 95, "channel": 0}, {"type": "note_off", "time": 7477, "note": 63, "velocity": 95, "channel": 0}, {"type": "note_on", "time": 0, "note": 60, "velocity": 91, "channel": 0}, {"type": "note_off", "time": 3738, "note": 60, "velocity": 91, "channel": 0}, {"type": "note_on", "time": 659, "note": 60, "velocity": 99, "channel": 0}, {"type": "note_off", "time": 10555, "note": 60, "velocity": 99, "channel": 0}, {"type": "note_on", "time": 5058, "note": 59, "velocity": 9, "channel": 0}, {"type": "note_off", "time": 4838, "note": 59, "velocity": 9, "channel": 0}, {"type": "note_on", "time": 879, "note": 63, "velocity": 81, "channel": 0}, {"type": "note_off", "time": 2858, "note": 63, "velocity": 81, "channel": 0}, {"type": "note_on", "time": 0, "note": 67, "velocity": 92, "channel": 0}, {"type": "note_off", "time": 4082, "note": 67, "velocity": 92, "channel": 0}, {"type": "note_on", "time": 0, "note": 71, "velocity": 103, "channel": 0}, {"type": "note_off", "time": 13194, "note": 71, "velocity": 103, "channel": 0}, {"type": "note_on", "time": 1415, "note": 60, "velocity": 104, "channel": 0}, {"type": "note_off", "time": 3958, "note": 60, "velocity": 104, "channel": 0}, {"type": "note_on", "time": 219, "note": 63, "velocity": 94, "channel": 0}, {"type": "note_on", "time": 3738, "note": 67, "velocity": 95, "channel": 0}, {"type": "note_off", "time": 0, "note": 63, "velocity": 94, "channel": 0}, {"type": "note_off", "time": 4686, "note": 67, "velocity": 95, "channel": 0}, {"type": "note_on", "time": 0, "note": 70, "velocity": 110, "channel": 0}, {"type": "note_off", "time": 12315, "note": 70, "velocity": 110, "channel": 0}, {"type": "note_on", "time": 3889, "note": 70, "velocity": 100, "channel": 0}, {"type": "note_off", "time": 10116, "note": 70, "velocity": 100, "channel": 0}, {"type": "note_on", "time": 1759, "note": 69, "velocity": 104, "channel": 0}, {"type": "note_off", "time": 12315, "note": 69, "velocity": 104, "channel": 0}, {"type": "note_on", "time": 71252, "note": 78, "velocity": 102, "channel": 0}, {"type": "note_off", "time": 12755, "note": 78, "velocity": 102, "channel": 0}, {"type": "note_on", "time": 1319, "note": 79, "velocity": 113, "channel": 0}, {"type": "note_off", "time": 11875, "note": 79, "velocity": 113, "channel": 0}, {"type": "note_on", "time": 3422, "note": 84, "velocity": 111, "channel": 0}, {"type": "note_off", "time": 8659, "note": 84, "velocity": 111, "channel": 0}, {"type": "note_on", "time": 1992, "note": 79, "velocity": 108, "channel": 0}, {"type": "note_off", "time": 3518, "note": 79, "velocity": 108, "channel": 0}, {"type": "note_on", "time": 0, "note": 84, "velocity": 112, "channel": 0}, {"type": "note_off", "time": 9676, "note": 84, "velocity": 112, "channel": 0}, {"type": "note_on", "time": 0, "note": 79, "velocity": 99, "channel": 0}, {"type": "note_off", "time": 3518, "note": 79, "velocity": 99, "channel": 0}, {"type": "note_on", "time": 1099, "note": 75, "velocity": 99, "channel": 0}, {"type": "note_on", "time": 8136, "note": 72, "velocity": 90, "channel": 0}, {"type": "note_off", "time": 0, "note": 75, "velocity": 99, "channel": 0}, {"type": "note_off", "time": 11875, "note": 72, "velocity": 90, "channel": 0}, {"type": "note_on", "time": 7477, "note": 71, "velocity": 116, "channel": 0}, {"type": "note_off", "time": 9236, "note": 71, "velocity": 116, "channel": 0}, {"type": "note_on", "time": 0, "note": 75, "velocity": 102, "channel": 0}, {"type": "note_on", "time": 4178, "note": 79, "velocity": 108, "channel": 0}, {"type": "note_off", "time": 0, "note": 75, "velocity": 102, "channel": 0}, {"type": "note_off", "time": 11435, "note": 79, "velocity": 108, "channel": 0}, {"type": "note_on", "time": 1759, "note": 83, "velocity": 102, "channel": 0}, {"type": "note_off", "time": 14514, "note": 83, "velocity": 102, "channel": 0}, {"type": "note_on", "time": 29688, "note": 89, "velocity": 108, "channel": 0}, {"type": "note_off", "time": 7477, "note": 89, "velocity": 108, "channel": 0}, {"type": "note_on", "time": 1054, "note": 87, "velocity": 86, "channel": 0}, {"type": "note_off", "time": 4793, "note": 87, "velocity": 86, "channel": 0}, {"type": "note_on", "time": 309, "note": 84, "velocity": 97, "channel": 0}, {"type": "note_off", "time": 9236, "note": 84, "velocity": 97, "channel": 0}, {"type": "note_on", "time": 439, "note": 79, "velocity": 57, "channel": 0}, {"type": "note_off", "time": 4838, "note": 79, "velocity": 57, "channel": 0}, {"type": "note_on", "time": 219, "note": 77, "velocity": 106, "channel": 0}, {"type": "note_off", "time": 7477, "note": 77, "velocity": 106, "channel": 0}, {"type": "note_on", "time": 219, "note": 75, "velocity": 96, "channel": 0}, {"type": "note_on", "time": 4398, "note": 79, "velocity": 114, "channel": 0}, {"type": "note_off", "time": 0, "note": 75, "velocity": 96, "channel": 0}, {"type": "note_off", "time": 9456, "note": 79, "velocity": 114, "channel": 0}, {"type": "note_on", "time": 1099, "note": 75, "velocity": 93, "channel": 0}, {"type": "note_off", "time": 5497, "note": 75, "velocity": 93, "channel": 0}, {"type": "note_on", "time": 219, "note": 72, "velocity": 94, "channel": 0}, {"type": "note_off", "time": 7697, "note": 72, "velocity": 94, "channel": 0}, {"type": "note_on", "time": 1099, "note": 69, "velocity": 90, "channel": 0}, {"type": "note_off", "time": 5717, "note": 69, "velocity": 90, "channel": 0}, {"type": "note_on", "time": 0, "note": 67, "velocity": 99, "channel": 0}, {"type": "note_off", "time": 6817, "note": 67, "velocity": 99, "channel": 0}, {"type": "note_on", "time": 0, "note": 63, "velocity": 89, "channel": 0}, {"type": "note_off", "time": 5277, "note": 63, "velocity": 89, "channel": 0}, {"type": "note_on", "time": 0, "note": 72, "velocity": 116, "channel": 0}, {"type": "note_off", "time": 7916, "note": 72, "velocity": 116, "channel": 0}, {"type": "note_on", "time": 219, "note": 74, "velocity": 117, "channel": 0}, {"type": "note_off", "time": 6157, "note": 74, "velocity": 117, "channel": 0}, {"type": "note_on", "time": 219, "note": 75, "velocity": 103, "channel": 0}, {"type": "note_off", "time": 8356, "note": 75, "velocity": 103, "channel": 0}, {"type": "note_on", "time": 965, "note": 72, "velocity": 99, "channel": 0}, {"type": "note_off", "time": 3556, "note": 72, "velocity": 99, "channel": 0}, {"type": "note_on", "time": 309, "note": 68, "velocity": 102, "channel": 0}, {"type": "note_off", "time": 7267, "note": 68, "velocity": 102, "channel": 0}, {"type": "note_on", "time": 1755, "note": 65, "velocity": 95, "channel": 0}, {"type": "note_off", "time": 4398, "note": 65, "velocity": 95, "channel": 0}, {"type": "note_on", "time": 0, "note": 70, "velocity": 98, "channel": 0}, {"type": "note_off", "time": 7477, "note": 70, "velocity": 98, "channel": 0}, {"type": "note_on", "time": 879, "note": 71, "velocity": 104, "channel": 0}, {"type": "note_off", "time": 5277, "note": 71, "velocity": 104, "channel": 0}, {"type": "note_on", "time": 879, "note": 72, "velocity": 114, "channel": 0}, {"type": "note_off", "time": 7477, "note": 72, "velocity": 114, "channel": 0}, {"type": "note_on", "time": 0, "note": 65, "velocity": 106, "channel": 0}, {"type": "note_off", "time": 5937, "note": 65, "velocity": 106, "channel": 0}, {"type": "note_on", "time": 0, "note": 67, "velocity": 106, "channel": 0}, {"type": "note_on", "time": 6597, "note": 68, "velocity": 110, "channel": 0}, {"type": "note_off", "time": 0, "note": 67, "velocity": 106, "channel": 0}, {"type": "note_off", "time": 4838, "note": 68, "velocity": 110, "channel": 0}, {"type": "note_on", "time": 1539, "note": 60, "velocity": 105, "channel": 0}, {"type": "note_off", "time": 7916, "note": 60, "velocity": 105, "channel": 0}, {"type": "note_on", "time": 0, "note": 61, "velocity": 89, "channel": 0}, {"type": "note_off", "time": 4398, "note": 61, "velocity": 89, "channel": 0}, {"type": "note_on", "time": 0, "note": 62, "velocity": 114, "channel": 0}, {"type": "note_off", "time": 8136, "note": 62, "velocity": 114, "channel": 0}, {"type": "note_on", "time": 61, "note": 70, "velocity": 109, "channel": 0}, {"type": "note_off", "time": 6315, "note": 70, "velocity": 109, "channel": 0}, {"type": "note_on", "time": 0, "note": 67, "velocity": 107, "channel": 0}, {"type": "note_on", "time": 6518, "note": 60, "velocity": 107, "channel": 0}, {"type": "note_off", "time": 0, "note": 67, "velocity": 107, "channel": 0}, {"type": "note_off", "time": 6494, "note": 60, "velocity": 107, "channel": 0}, {"type": "note_on", "time": 618, "note": 61, "velocity": 97, "channel": 0}, {"type": "note_off", "time": 5102, "note": 61, "velocity": 97, "channel": 0}, {"type": "note_on", "time": 618, "note": 62, "velocity": 110, "channel": 0}, {"type": "note_off", "time": 5058, "note": 62, "velocity": 110, "channel": 0}, {"type": "note_on", "time": 1127, "note": 68, "velocity": 119, "channel": 0}, {"type": "note_off", "time": 9016, "note": 68, "velocity": 119, "channel": 0}, {"type": "note_on", "time": 106, "note": 60, "velocity": 105, "channel": 0}, {"type": "note_off", "time": 4329, "note": 60, "velocity": 105, "channel": 0}, {"type": "note_on", "time": 814, "note": 61, "velocity": 91, "channel": 0}, {"type": "note_off", "time": 6157, "note": 61, "velocity": 91, "channel": 0}, {"type": "note_on", "time": 0, "note": 62, "velocity": 107, "channel": 0}, {"type": "note_off", "time": 6597, "note": 62, "velocity": 107, "channel": 0}, {"type": "note_on", "time": 0, "note": 67, "velocity": 110, "channel": 0}, {"type": "note_off", "time": 7477, "note": 67, "velocity": 110, "channel": 0}, {"type": "note_on", "time": 446, "note": 60, "velocity": 103, "channel": 0}, {"type": "note_off", "time": 5102, "note": 60, "velocity": 103, "channel": 0}, {"type": "note_on", "time": 168, "note": 61, "velocity": 89, "channel": 0}, {"type": "note_on", "time": 6597, "note": 62, "velocity": 107, "channel": 0}, {"type": "note_off", "time": 0, "note": 61, "velocity": 89, "channel": 0}, {"type": "note_off", "time": 5497, "note": 62, "velocity": 107, "channel": 0}, {"type": "note_on", "time": 0, "note": 66, "velocity": 118, "channel": 0}, {"type": "note_off", "time": 8356, "note": 66, "velocity": 118, "channel": 0}, {"type": "note_on", "time": 659, "note": 62, "velocity": 114, "channel": 0}, {"type": "note_off", "time": 5277, "note": 62, "velocity": 114, "channel": 0}, {"type": "note_on", "time": 0, "note": 58, "velocity": 106, "channel": 0}, {"type": "note_off", "time": 7697, "note": 58, "velocity": 106, "channel": 0}, {"type": "note_on", "time": 0, "note": 54, "velocity": 95, "channel": 0}, {"type": "note_off", "time": 5497, "note": 54, "velocity": 95, "channel": 0}, {"type": "note_on", "time": 0, "note": 58, "velocity": 102, "channel": 0}, {"type": "note_off", "time": 8356, "note": 58, "velocity": 102, "channel": 0}, {"type": "note_on", "time": 5497, "note": 60, "velocity": 113, "channel": 0}, {"type": "note_on", "time": 3958, "note": 58, "velocity": 102, "channel": 0}, {"type": "note_off", "time": 0, "note": 60, "velocity": 113, "channel": 0}, {"type": "note_off", "time": 5717, "note": 58, "velocity": 102, "channel": 0}, {"type": "note_on", "time": 659, "note": 65, "velocity": 103, "channel": 0}, {"type": "note_off", "time": 5277, "note": 65, "velocity": 103, "channel": 0}, {"type": "note_on", "time": 0, "note": 63, "velocity": 104, "channel": 0}, {"type": "note_off", "time": 3738, "note": 63, "velocity": 104, "channel": 0}, {"type": "note_on", "time": 0, "note": 72, "velocity": 106, "channel": 0}, {"type": "note_off", "time": 4398, "note": 72, "velocity": 106, "channel": 0}, {"type": "note_on", "time": 439, "note": 70, "velocity": 98, "channel": 0}, {"type": "note_off", "time": 4618, "note": 70, "velocity": 98, "channel": 0}, {"type": "note_on", "time": 0, "note": 77, "velocity": 99, "channel": 0}, {"type": "note_off", "time": 13194, "note": 77, "velocity": 99, "channel": 0}, {"type": "note_on", "time": 99622, "note": 87, "velocity": 105, "channel": 0}, {"type": "note_off", "time": 7257, "note": 87, "velocity": 105, "channel": 0}, {"type": "note_on", "time": 7697, "note": 87, "velocity": 103, "channel": 0}, {"type": "note_off", "time": 7037, "note": 87, "velocity": 103, "channel": 0}, {"type": "note_on", "time": 6377, "note": 87, "velocity": 105, "channel": 0}, {"type": "note_off", "time": 7257, "note": 87, "velocity": 105, "channel": 0}, {"type": "note_on", "time": 6597, "note": 84, "velocity": 105, "channel": 0}, {"type": "note_off", "time": 8356, "note": 84, "velocity": 105, "channel": 0}, {"type": "note_on", "time": 1099, "note": 78, "velocity": 101, "channel": 0}, {"type": "note_off", "time": 8136, "note": 78, "velocity": 101, "channel": 0}, {"type": "note_on", "time": 6377, "note": 75, "velocity": 91, "channel": 0}, {"type": "note_off", "time": 5497, "note": 75, "velocity": 91, "channel": 0}, {"type": "note_on", "time": 659, "note": 72, "velocity": 106, "channel": 0}, {"type": "note_off", "time": 8136, "note": 72, "velocity": 106, "channel": 0}, {"type": "note_on", "time": 3298, "note": 75, "velocity": 100, "channel": 0}, {"type": "note_off", "time": 9456, "note": 75, "velocity": 100, "channel": 0}, {"type": "note_on", "time": 1319, "note": 75, "velocity": 93, "channel": 0}, {"type": "note_off", "time": 3518, "note": 75, "velocity": 93, "channel": 0}, {"type": "note_on", "time": 1099, "note": 75, "velocity": 99, "channel": 0}, {"type": "note_off", "time": 7916, "note": 75, "velocity": 99, "channel": 0}, {"type": "note_on", "time": 219, "note": 72, "velocity": 96, "channel": 0}, {"type": "note_off", "time": 5058, "note": 72, "velocity": 96, "channel": 0}, {"type": "note_on", "time": 0, "note": 75, "velocity": 109, "channel": 0}, {"type": "note_off", "time": 6817, "note": 75, "velocity": 109, "channel": 0}, {"type": "note_on", "time": 0, "note": 79, "velocity": 104, "channel": 0}, {"type": "note_off", "time": 12315, "note": 79, "velocity": 104, "channel": 0}, {"type": "note_on", "time": 6377, "note": 75, "velocity": 92, "channel": 0}, {"type": "note_off", "time": 12975, "note": 75, "velocity": 92, "channel": 0}, {"type": "note_on", "time": 1979, "note": 75, "velocity": 90, "channel": 0}, {"type": "note_off", "time": 9016, "note": 75, "velocity": 90, "channel": 0}, {"type": "note_on", "time": 439, "note": 72, "velocity": 76, "channel": 0}, {"type": "note_off", "time": 3298, "note": 72, "velocity": 76, "channel": 0}, {"type": "note_on", "time": 879, "note": 75, "velocity": 93, "channel": 0}, {"type": "note_off", "time": 6817, "note": 75, "velocity": 93, "channel": 0}, {"type": "note_on", "time": 1099, "note": 79, "velocity": 110, "channel": 0}, {"type": "note_off", "time": 10995, "note": 79, "velocity": 110, "channel": 0}, {"type": "note_on", "time": 3298, "note": 75, "velocity": 89, "channel": 0}, {"type": "note_on", "time": 3518, "note": 79, "velocity": 112, "channel": 0}, {"type": "note_off", "time": 0, "note": 75, "velocity": 89, "channel": 0}, {"type": "note_off", "time": 10555, "note": 79, "velocity": 112, "channel": 0}, {"type": "note_on", "time": 879, "note": 75, "velocity": 90, "channel": 0}, {"type": "note_off", "time": 5277, "note": 75, "velocity": 90, "channel": 0}, {"type": "note_on", "time": 659, "note": 72, "velocity": 102, "channel": 0}, {"type": "note_off", "time": 6817, "note": 72, "velocity": 102, "channel": 0}, {"type": "note_on", "time": 219, "note": 69, "velocity": 107, "channel": 0}, {"type": "note_off", "time": 5058, "note": 69, "velocity": 107, "channel": 0}, {"type": "note_on", "time": 0, "note": 67, "velocity": 103, "channel": 0}, {"type": "note_off", "time": 8136, "note": 67, "velocity": 103, "channel": 0}, {"type": "note_on", "time": 0, "note": 63, "velocity": 95, "channel": 0}, {"type": "note_off", "time": 6157, "note": 63, "velocity": 95, "channel": 0}, {"type": "note_on", "time": 659, "note": 75, "velocity": 103, "channel": 0}, {"type": "note_off", "time": 7916, "note": 75, "velocity": 103, "channel": 0}, {"type": "note_on", "time": 5277, "note": 75, "velocity": 95, "channel": 0}, {"type": "note_off", "time": 2199, "note": 75, "velocity": 95, "channel": 0}, {"type": "note_on", "time": 0, "note": 72, "velocity": 107, "channel": 0}, {"type": "note_off", "time": 3518, "note": 72, "velocity": 107, "channel": 0}, {"type": "note_on", "time": 0, "note": 68, "velocity": 108, "channel": 0}, {"type": "note_off", "time": 2638, "note": 68, "velocity": 108, "channel": 0}, {"type": "note_on", "time": 0, "note": 65, "velocity": 108, "channel": 0}, {"type": "note_off", "time": 2199, "note": 65, "velocity": 108, "channel": 0}, {"type": "note_on", "time": 0, "note": 68, "velocity": 103, "channel": 0}, {"type": "note_on", "time": 3078, "note": 65, "velocity": 103, "channel": 0}, {"type": "note_off", "time": 0, "note": 68, "velocity": 103, "channel": 0}, {"type": "note_off", "time": 2199, "note": 65, "velocity": 103, "channel": 0}, {"type": "note_on", "time": 0, "note": 63, "velocity": 105, "channel": 0}, {"type": "note_off", "time": 3078, "note": 63, "velocity": 105, "channel": 0}, {"type": "note_on", "time": 0, "note": 60, "velocity": 105, "channel": 0}, {"type": "note_off", "time": 3518, "note": 60, "velocity": 105, "channel": 0}, {"type": "note_on", "time": 0, "note": 63, "velocity": 116, "channel": 0}, {"type": "note_off", "time": 2638, "note": 63, "velocity": 116, "channel": 0}, {"type": "note_on", "time": 0, "note": 59, "velocity": 109, "channel": 0}, {"type": "note_off", "time": 2199, "note": 59, "velocity": 109, "channel": 0}, {"type": "note_on", "time": 0, "note": 56, "velocity": 114, "channel": 0}, {"type": "note_off", "time": 2638, "note": 56, "velocity": 114, "channel": 0}, {"type": "note_on", "time": 0, "note": 53, "velocity": 111, "channel": 0}, {"type": "note_off", "time": 3518, "note": 53, "velocity": 111, "channel": 0}, {"type": "note_on", "time": 0, "note": 56, "velocity": 112, "channel": 0}, {"type": "note_off", "time": 2638, "note": 56, "velocity": 112, "channel": 0}, {"type": "note_on", "time": 0, "note": 53, "velocity": 108, "channel": 0}, {"type": "note_off", "time": 2638, "note": 53, "velocity": 108, "channel": 0}, {"type": "note_on", "time": 0, "note": 56, "velocity": 108, "channel": 0}, {"type": "note_off", "time": 3518, "note": 56, "velocity": 108, "channel": 0}, {"type": "note_on", "time": 0, "note": 53, "velocity": 94, "channel": 0}, {"type": "note_off", "time": 7037, "note": 53, "velocity": 94, "channel": 0}, {"type": "note_on", "time": 6597, "note": 58, "velocity": 102, "channel": 0}, {"type": "note_off", "time": 8796, "note": 58, "velocity": 102, "channel": 0}, {"type": "note_on", "time": 0, "note": 63, "velocity": 113, "channel": 0}, {"type": "note_off", "time": 5277, "note": 63, "velocity": 113, "channel": 0}, {"type": "note_on", "time": 0, "note": 67, "velocity": 108, "channel": 0}, {"type": "note_off", "time": 13634, "note": 67, "velocity": 108, "channel": 0}, {"type": "note_on", "time": 219, "note": 70, "velocity": 110, "channel": 0}, {"type": "note_off", "time": 12755, "note": 70, "velocity": 110, "channel": 0}, {"type": "note_on", "time": 3154, "note": 72, "velocity": 120, "channel": 0}, {"type": "note_off", "time": 7477, "note": 72, "velocity": 120, "channel": 0}, {"type": "note_on", "time": 584, "note": 67, "velocity": 96, "channel": 0}, {"type": "note_off", "time": 18912, "note": 67, "velocity": 96, "channel": 0}, {"type": "note_on", "time": 54539, "note": 62, "velocity": 127, "channel": 0}, {"type": "note_off", "time": 6817, "note": 62, "velocity": 127, "channel": 0}, {"type": "note_on", "time": 0, "note": 63, "velocity": 118, "channel": 0}, {"type": "note_off", "time": 5717, "note": 63, "velocity": 118, "channel": 0}, {"type": "note_on", "time": 0, "note": 67, "velocity": 118, "channel": 0}, {"type": "note_off", "time": 6817, "note": 67, "velocity": 118, "channel": 0}, {"type": "note_on", "time": 0, "note": 70, "velocity": 111, "channel": 0}, {"type": "note_off", "time": 6597, "note": 70, "velocity": 111, "channel": 0}, {"type": "note_on", "time": 659, "note": 74, "velocity": 122, "channel": 0}, {"type": "note_off", "time": 6817, "note": 74, "velocity": 122, "channel": 0}, {"type": "note_on", "time": 0, "note": 75, "velocity": 109, "channel": 0}, {"type": "note_off", "time": 5937, "note": 75, "velocity": 109, "channel": 0}, {"type": "note_on", "time": 0, "note": 79, "velocity": 104, "channel": 0}, {"type": "note_off", "time": 8136, "note": 79, "velocity": 104, "channel": 0}, {"type": "note_on", "time": 0, "note": 82, "velocity": 103, "channel": 0}, {"type": "note_off", "time": 7477, "note": 82, "velocity": 103, "channel": 0}, {"type": "note_on", "time": 0, "note": 86, "velocity": 118, "channel": 0}, {"type": "note_off", "time": 9896, "note": 86, "velocity": 118, "channel": 0}, {"type": "note_on", "time": 1979, "note": 84, "velocity": 109, "channel": 0}, {"type": "note_off", "time": 9896, "note": 84, "velocity": 109, "channel": 0}, {"type": "note_on", "time": 5277, "note": 84, "velocity": 108, "channel": 0}, {"type": "note_off", "time": 7257, "note": 84, "velocity": 108, "channel": 0}, {"type": "note_on", "time": 439, "note": 86, "velocity": 121, "channel": 0}, {"type": "note_off", "time": 5937, "note": 86, "velocity": 121, "channel": 0}, {"type": "note_on", "time": 2419, "note": 87, "velocity": 114, "channel": 0}, {"type": "note_off", "time": 3078, "note": 87, "velocity": 114, "channel": 0}, {"type": "note_on", "time": 0, "note": 84, "velocity": 105, "channel": 0}, {"type": "note_off", "time": 2638, "note": 84, "velocity": 105, "channel": 0}, {"type": "note_on", "time": 0, "note": 87, "velocity": 94, "channel": 0}, {"type": "note_off", "time": 3958, "note": 87, "velocity": 94, "channel": 0}, {"type": "note_on", "time": 0, "note": 84, "velocity": 93, "channel": 0}, {"type": "note_off", "time": 1759, "note": 84, "velocity": 93, "channel": 0}, {"type": "note_on", "time": 0, "note": 80, "velocity": 86, "channel": 0}, {"type": "note_off", "time": 2638, "note": 80, "velocity": 86, "channel": 0}, {"type": "note_on", "time": 0, "note": 77, "velocity": 91, "channel": 0}, {"type": "note_on", "time": 3078, "note": 80, "velocity": 91, "channel": 0}, {"type": "note_off", "time": 0, "note": 77, "velocity": 91, "channel": 0}, {"type": "note_off", "time": 3078, "note": 80, "velocity": 91, "channel": 0}, {"type": "note_on", "time": 0, "note": 77, "velocity": 92, "channel": 0}, {"type": "note_off", "time": 3958, "note": 77, "velocity": 92, "channel": 0}, {"type": "note_on", "time": 0, "note": 72, "velocity": 105, "channel": 0}, {"type": "note_off", "time": 2638, "note": 72, "velocity": 105, "channel": 0}, {"type": "note_on", "time": 0, "note": 68, "velocity": 103, "channel": 0}, {"type": "note_off", "time": 3078, "note": 68, "velocity": 103, "channel": 0}, {"type": "note_on", "time": 0, "note": 72, "velocity": 96, "channel": 0}, {"type": "note_off", "time": 2638, "note": 72, "velocity": 96, "channel": 0}, {"type": "note_on", "time": 439, "note": 68, "velocity": 100, "channel": 0}, {"type": "note_off", "time": 3078, "note": 68, "velocity": 100, "channel": 0}, {"type": "note_on", "time": 5277, "note": 72, "velocity": 103, "channel": 0}, {"type": "note_off", "time": 7257, "note": 72, "velocity": 103, "channel": 0}, {"type": "note_on", "time": 0, "note": 73, "velocity": 106, "channel": 0}, {"type": "note_off", "time": 5497, "note": 73, "velocity": 106, "channel": 0}, {"type": "note_on", "time": 219, "note": 74, "velocity": 106, "channel": 0}, {"type": "note_off", "time": 13634, "note": 74, "velocity": 106, "channel": 0}, {"type": "note_on", "time": 659, "note": 82, "velocity": 105, "channel": 0}, {"type": "note_off", "time": 11875, "note": 82, "velocity": 105, "channel": 0}, {"type": "note_on", "time": 1759, "note": 79, "velocity": 99, "channel": 0}, {"type": "note_off", "time": 14514, "note": 79, "velocity": 99, "channel": 0}, {"type": "note_on", "time": 439, "note": 79, "velocity": 110, "channel": 0}, {"type": "note_off", "time": 3518, "note": 79, "velocity": 110, "channel": 0}, {"type": "note_on", "time": 0, "note": 79, "velocity": 109, "channel": 0}, {"type": "note_off", "time": 5717, "note": 79, "velocity": 109, "channel": 0}, {"type": "note_on", "time": 0, "note": 79, "velocity": 111, "channel": 0}, {"type": "note_off", "time": 4178, "note": 79, "velocity": 111, "channel": 0}, {"type": "note_on", "time": 0, "note": 84, "velocity": 105, "channel": 0}, {"type": "note_off", "time": 9676, "note": 84, "velocity": 105, "channel": 0}, {"type": "note_on", "time": 5058, "note": 72, "velocity": 94, "channel": 0}, {"type": "note_on", "time": 3518, "note": 72, "velocity": 98, "channel": 0}, {"type": "note_off", "time": 0, "note": 72, "velocity": 94, "channel": 0}, {"type": "note_off", "time": 4398, "note": 72, "velocity": 98, "channel": 0}, {"type": "note_on", "time": 0, "note": 72, "velocity": 98, "channel": 0}, {"type": "note_off", "time": 4838, "note": 72, "velocity": 98, "channel": 0}, {"type": "note_on", "time": 879, "note": 79, "velocity": 112, "channel": 0}, {"type": "note_off", "time": 9676, "note": 79, "velocity": 112, "channel": 0}, {"type": "note_on", "time": 4838, "note": 67, "velocity": 98, "channel": 0}, {"type": "note_off", "time": 3298, "note": 67, "velocity": 98, "channel": 0}, {"type": "note_on", "time": 0, "note": 67, "velocity": 100, "channel": 0}, {"type": "note_off", "time": 5058, "note": 67, "velocity": 100, "channel": 0}, {"type": "note_on", "time": 0, "note": 67, "velocity": 100, "channel": 0}, {"type": "note_off", "time": 3518, "note": 67, "velocity": 100, "channel": 0}, {"type": "note_on", "time": 879, "note": 72, "velocity": 114, "channel": 0}, {"type": "note_off", "time": 8796, "note": 72, "velocity": 114, "channel": 0}, {"type": "note_on", "time": 7257, "note": 60, "velocity": 96, "channel": 0}, {"type": "note_off", "time": 6597, "note": 60, "velocity": 96, "channel": 0}, {"type": "note_on", "time": 0, "note": 63, "velocity": 100, "channel": 0}, {"type": "note_off", "time": 15614, "note": 63, "velocity": 100, "channel": 0}, {"type": "end_of_track", "time": 0}]]}