{"ticks_per_beat": 192, "tracks": [[{"type": "track_name", "name": "Melody", "time": 0}, {"type": "set_tempo", "tempo": 244897, "time": 0}, {"type": "key_signature", "key": "Eb", "time": 0}, {"type": "time_signature", "numerator": 4, "denominator": 4, "clocks_per_click": 24, "notated_32nd_notes_per_beat": 8, "time": 0}, {"type": "note_on", "time": 3518, "note": 70, "velocity": 98, "channel": 0}, {"type": "note_off", "time": 76, "note": 70, "velocity": 98, "channel": 0}, {"type": "note_on", "time": 6, "note": 72, "velocity": 93, "channel": 0}, {"type": "note_off", "time": 42, "note": 72, "velocity": 93, "channel": 0}, {"type": "note_on", "time": 12, "note": 70, "velocity": 103, "channel": 0}, {"type": "note_off", "time": 39, "note": 70, "velocity": 103, "channel": 0}, {"type": "note_on", "time": 19, "note": 67, "velocity": 97, "channel": 0}, {"type": "note_off", "time": 75, "note": 67, "velocity": 97, "channel": 0}, {"type": "note_on", "time": 11, "note": 70, "velocity": 96, "channel": 0}, {"type": "note_off", "time": 75, "note": 70, "velocity": 96, "channel": 0}, {"type": "note_on", "time": 3, "note": 75, "velocity": 105, "channel": 0}, {"type": "note_off", "time": 182, "note": 75, "velocity": 105, "channel": 0}, {"type": "note_on", "time": 15, "note": 70, "velocity": 105, "channel": 0}, {"type": "note_off", "time": 96, "note": 70, "velocity": 105, "channel": 0}, {"type": "note_on", "time": 6, "note": 75, "velocity": 97, "channel": 0}, {"type": "note_off", "time": 67, "note": 75, "velocity": 97, "channel": 0}, {"type": "note_on", "time": 21, "note": 79, "velocity": 96, "channel": 0}, {"type": "note_off", "time": 91, "note": 79, "velocity": 96, "channel": 0}, {"type": "note_on", "time": 12, "note": 77, "velocity": 87, "channel": 0}, {"type": "note_off", "time": 80, "note": 77, "velocity": 87, "channel": 0}, {"type": "note_on", "time": 6, "note": 75, "velocity": 100, "channel": 0}, {"type": "note_off", "time": 92, "note": 75, "velocity": 100, "channel": 0}, {"type": "note_on", "time": 17, "note": 74, "velocity": 88, "channel": 0}, {"type": "note_off", "time": 83, "note": 74, "velocity": 88, "channel": 0}, {"type": "note_on", "time": 110, "note": 75, "velocity": 97, "channel": 0}, {"type": "note_off", "time": 76, "note": 75, "velocity": 97, "channel": 0}, {"type": "note_on", "time": 6, "note": 74, "velocity": 99, "channel": 0}, {"type": "note_off", "time": 102, "note": 74, "velocity": 99, "channel": 0}, {"type": "note_on", "time": 5, "note": 75, "velocity": 98, "channel": 0}, {"type": "note_off", "time": 73, "note": 75, "velocity": 98, "channel": 0}, {"type": "note_on", "time": 14, "note": 77, "velocity": 95, "channel": 0}, {"type": "note_off", "time": 91, "note": 77, "velocity": 95, "channel": 0}, {"type": "note_on", "time": 16, "note": 75, "velocity": 89, "channel": 0}, {"type": "note_off", "time": 76, "note": 75, "velocity": 89, "channel": 0}, {"type": "note_on", "time": 9, "note": 74, "velocity": 93, "channel": 0}, {"type": "note_off", "time": 80, "note": 74, "velocity": 93, "channel": 0}, {"type": "note_on", "time": 18, "note": 75, "velocity": 95, "channel": 0}, {"type": "note_off", "time": 67, "note": 75, "velocity": 95, "channel": 0}, {"type": "note_on", "time": 13, "note": 77, "velocity": 99, "channel": 0}, {"type": "note_off", "time": 104, "note": 77, "velocity": 99, "channel": 0}, {"type": "note_on", "time": 13, "note": 75, "velocity": 89, "channel": 0}, {"type": "note_off", "time": 83, "note": 75, "velocity": 89, "channel": 0}, {"type": "note_on", "time": 6, "note": 74, "velocity": 90, "channel": 0}, {"type": "note_off", "time": 92, "note": 74, "velocity": 90, "channel": 0}, {"type": "note_on", "time": 6, "note": 75, "velocity": 90, "channel": 0}, {"type": "note_off", "time": 83, "note": 75, "velocity": 90, "channel": 0}, {"type": "note_on", "time": 3, "note": 77, "velocity": 101, "channel": 0}, {"type": "note_off", "time": 102, "note": 77, "velocity": 101, "channel": 0}, {"type": "note_on", "time": 10, "note": 75, "velocity": 77, "channel": 0}, {"type": "note_off", "time": 80, "note": 75, "velocity": 77, "channel": 0}, {"type": "note_on", "time": 0, "note": 71, "velocity": 95, "channel": 0}, {"type": "note_off", "time": 70, "note": 71, "velocity": 95, "channel": 0}, {"type": "note_on", "time": 10, "note": 68, "velocity": 75, "channel": 0}, {"type": "note_off", "time": 86, "note": 68, "velocity": 75, "channel": 0}, {"type": "note_on", "time": 14, "note": 65, "velocity": 92, "channel": 0}, {"type": "note_off", "time": 79, "note": 65, "velocity": 92, "channel": 0}, {"type": "note_on", "time": 32, "note": 63, "velocity": 85, "channel": 0}, {"type": "note_off", "time": 72, "note": 63, "velocity": 85, "channel": 0}, {"type": "note_on", "time": 14, "note": 70, "velocity": 104, "channel": 0}, {"type": "note_off", "time": 105, "note": 70, "velocity": 104, "channel": 0}, {"type": "note_on", "time": 1, "note": 68, "velocity": 92, "channel": 0}, {"type": "note_off", "time": 78, "note": 68, "velocity": 92, "channel": 0}, {"type": "note_on", "time": 9, "note": 70, "velocity": 100, "channel": 0}, {"type": "note_off", "time": 99, "note": 70, "velocity": 100, "channel": 0}, {"type": "note_on", "time": 7, "note": 68, "velocity": 78, "channel": 0}, {"type": "note_off", "time": 56, "note": 68, "velocity": 78, "channel": 0}, {"type": "note_on", "time": 18, "note": 63, "velocity": 97, "channel": 0}, {"type": "note_off", "time": 98, "note": 63, "velocity": 97, "channel": 0}, {"type": "note_on", "time": 75, "note": 60, "velocity": 81, "channel": 0}, {"type": "note_off", "time": 170, "note": 60, "velocity": 81, "channel": 0}, {"type": "note_on", "time": 408, "note": 70, "velocity": 104, "channel": 0}, {"type": "note_off", "time": 126, "note": 70, "velocity": 104, "channel": 0}, {"type": "note_on", "time": 10, "note": 68, "velocity": 104, "channel": 0}, {"type": "note_off", "time": 54, "note": 68, "velocity": 104, "channel": 0}, {"type": "note_on", "time": 27, "note": 59, "velocity": 91, "channel": 0}, {"type": "note_off", "time": 166, "note": 59, "velocity": 91, "channel": 0}, {"type": "note_on", "time": 22, "note": 67, "velocity": 88, "channel": 0}, {"type": "note_off", "time": 145, "note": 67, "velocity": 88, "channel": 0}, {"type": "note_on", "time": 38, "note": 63, "velocity": 94, "channel": 0}, {"type": "note_off", "time": 213, "note": 63, "velocity": 94, "channel": 0}, {"type": "note_on", "time": 98, "note": 58, "velocity": 85, "channel": 0}, {"type": "note_off", "time": 242, "note": 58, "velocity": 85, "channel": 0}, {"type": "note_on", "time": 913, "note": 87, "velocity": 105, "channel": 0}, {"type": "note_off", "time": 56, "note": 87, "velocity": 105, "channel": 0}, {"type": "note_on", "time": 7, "note": 84, "velocity": 111, "channel": 0}, {"type": "note_off", "time": 87, "note": 84, "velocity": 111, "channel": 0}, {"type": "note_on", "time": 24, "note": 84, "velocity": 113, "channel": 0}, {"type": "note_off", "time": 77, "note": 84, "velocity": 113, "channel": 0}, {"type": "note_on", "time": 5, "note": 80, "velocity": 101, "channel": 0}, {"type": "note_off", "time": 81, "note": 80, "velocity": 101, "channel": 0}, {"type": "note_on", "time": 30, "note": 84, "velocity": 97, "channel": 0}, {"type": "note_off", "time": 71, "note": 84, "velocity": 97, "channel": 0}, {"type": "note_on", "time": 17, "note": 80, "velocity": 85, "channel": 0}, {"type": "note_off", "time": 72, "note": 80, "velocity": 85, "channel": 0}, {"type": "note_on", "time": 29, "note": 80, "velocity": 76, "channel": 0}, {"type": "note_off", "time": 75, "note": 80, "velocity": 76, "channel": 0}, {"type": "note_on", "time": 1, "note": 77, "velocity": 85, "channel": 0}, {"type": "note_off", "time": 86, "note": 77, "velocity": 85, "channel": 0}, {"type": "note_on", "time": 28, "note": 80, "velocity": 99, "channel": 0}, {"type": "note_off", "time": 71, "note": 80, "velocity": 99, "channel": 0}, {"type": "note_on", "time": 17, "note": 77, "velocity": 77, "channel": 0}, {"type": "note_off", "time": 76, "note": 77, "velocity": 77, "channel": 0}, {"type": "note_on", "time": 26, "note": 77, "velocity": 88, "channel": 0}, {"type": "note_off", "time": 77, "note": 77, "velocity": 88, "channel": 0}, {"type": "note_on", "time": 9, "note": 75, "velocity": 107, "channel": 0}, {"type": "note_off", "time": 67, "note": 75, "velocity": 107, "channel": 0}, {"type": "note_on", "time": 28, "note": 80, "velocity": 92, "channel": 0}, {"type": "note_off", "time": 75, "note": 80, "velocity": 92, "channel": 0}, {"type": "note_on", "time": 18, "note": 77, "velocity": 88, "channel": 0}, {"type": "note_off", "time": 79, "note": 77, "velocity": 88, "channel": 0}, {"type": "note_on", "time": 25, "note": 77, "velocity": 97, "channel": 0}, {"type": "note_off", "time": 60, "note": 77, "velocity": 97, "channel": 0}, {"type": "note_on", "time": 13, "note": 75, "velocity": 87, "channel": 0}, {"type": "note_off", "time": 84, "note": 75, "velocity": 87, "channel": 0}, {"type": "note_on", "time": 37, "note": 79, "velocity": 92, "channel": 0}, {"type": "note_off", "time": 69, "note": 79, "velocity": 92, "channel": 0}, {"type": "note_on", "time": 19, "note": 75, "velocity": 92, "channel": 0}, {"type": "note_off", "time": 68, "note": 75, "velocity": 92, "channel": 0}, {"type": "note_on", "time": 28, "note": 75, "velocity": 97, "channel": 0}, {"type": "note_off", "time": 63, "note": 75, "velocity": 97, "channel": 0}, {"type": "note_on", "time": 0, "note": 70, "velocity": 99, "channel": 0}, {"type": "note_off", "time": 78, "note": 70, "velocity": 99, "channel": 0}, {"type": "note_on", "time": 15, "note": 67, "velocity": 85, "channel": 0}, {"type": "note_off", "time": 88, "note": 67, "velocity": 85, "channel": 0}, {"type": "note_on", "time": 2, "note": 63, "velocity": 106, "channel": 0}, {"type": "note_off", "time": 75, "note": 63, "velocity": 106, "channel": 0}, {"type": "note_on", "time": 36, "note": 60, "velocity": 83, "channel": 0}, {"type": "note_off", "time": 77, "note": 60, "velocity": 83, "channel": 0}, {"type": "note_on", "time": 3, "note": 58, "velocity": 102, "channel": 0}, {"type": "note_off", "time": 73, "note": 58, "velocity": 102, "channel": 0}, {"type": "note_on", "time": 44, "note": 55, "velocity": 83, "channel": 0}, {"type": "note_off", "time": 78, "note": 55, "velocity": 83, "channel": 0}, {"type": "note_on", "time": 11, "note": 58, "velocity": 98, "channel": 0}, {"type": "note_off", "time": 88, "note": 58, "velocity": 98, "channel": 0}, {"type": "note_on", "time": 4, "note": 60, "velocity": 85, "channel": 0}, {"type": "note_off", "time": 75, "note": 60, "velocity": 85, "channel": 0}, {"type": "note_on", "time": 10, "note": 63, "velocity": 112, "channel": 0}, {"type": "note_off", "time": 105, "note": 63, "velocity": 112, "channel": 0}, {"type": "note_on", "time": 6, "note": 60, "velocity": 96, "channel": 0}, {"type": "note_off", "time": 61, "note": 60, "velocity": 96, "channel": 0}, {"type": "note_on", "time": 21, "note": 63, "velocity": 100, "channel": 0}, {"type": "note_off", "time": 98, "note": 63, "velocity": 100, "channel": 0}, {"type": "note_on", "time": 25, "note": 60, "velocity": 108, "channel": 0}, {"type": "note_off", "time": 70, "note": 60, "velocity": 108, "channel": 0}, {"type": "note_on", "time": 13, "note": 63, "velocity": 112, "channel": 0}, {"type": "note_off", "time": 96, "note": 63, "velocity": 112, "channel": 0}, {"type": "note_on", "time": 16, "note": 60, "velocity": 93, "channel": 0}, {"type": "note_off", "time": 60, "note": 60, "velocity": 93, "channel": 0}, {"type": "note_on", "time": 21, "note": 60, "velocity": 105, "channel": 0}, {"type": "note_off", "time": 79, "note": 60, "velocity": 105, "channel": 0}, {"type": "note_on", "time": 7, "note": 57, "velocity": 92, "channel": 0}, {"type": "note_off", "time": 67, "note": 57, "velocity": 92, "channel": 0}, {"type": "note_on", "time": 8, "note": 60, "velocity": 104, "channel": 0}, {"type": "note_off", "time": 102, "note": 60, "velocity": 104, "channel": 0}, {"type": "note_on", "time": 16, "note": 63, "velocity": 80, "channel": 0}, {"type": "note_off", "time": 73, "note": 63, "velocity": 80, "channel": 0}, {"type": "note_on", "time": 12, "note": 67, "velocity": 90, "channel": 0}, {"type": "note_off", "time": 169, "note": 67, "velocity": 90, "channel": 0}, {"type": "note_on", "time": 326, "note": 63, "velocity": 98, "channel": 0}, {"type": "note_off", "time": 62, "note": 63, "velocity": 98, "channel": 0}, {"type": "note_on", "time": 4, "note": 67, "velocity": 99, "channel": 0}, {"type": "note_off", "time": 120, "note": 67, "velocity": 99, "channel": 0}, {"type": "note_on", "time": 12, "note": 69, "velocity": 102, "channel": 0}, {"type": "note_off", "time": 48, "note": 69, "velocity": 102, "channel": 0}, {"type": "note_on", "time": 13, "note": 74, "velocity": 106, "channel": 0}, {"type": "note_off", "time": 142, "note": 74, "velocity": 106, "channel": 0}, {"type": "note_on", "time": 48, "note": 72, "velocity": 101, "channel": 0}, {"type": "note_off", "time": 168, "note": 72, "velocity": 101, "channel": 0}, {"type": "note_on", "time": 1547, "note": 77, "velocity": 95, "channel": 0}, {"type": "note_off", "time": 163, "note": 77, "velocity": 95, "channel": 0}, {"type": "note_on", "time": 29, "note": 78, "velocity": 118, "channel": 0}, {"type": "note_off", "time": 161, "note": 78, "velocity": 118, "channel": 0}, {"type": "note_on", "time": 54, "note": 77, "velocity": 113, "channel": 0}, {"type": "note_off", "time": 131, "note": 77, "velocity": 113, "channel": 0}, {"type": "note_on", "time": 31, "note": 78, "velocity": 110, "channel": 0}, {"type": "note_off", "time": 157, "note": 78, "velocity": 110, "channel": 0}, {"type": "note_on", "time": 52, "note": 77, "velocity": 97, "channel": 0}, {"type": "note_off", "time": 141, "note": 77, "velocity": 97, "channel": 0}, {"type": "note_on", "time": 20, "note": 78, "velocity": 118, "channel": 0}, {"type": "note_off", "time": 131, "note": 78, "velocity": 118, "channel": 0}, {"type": "note_on", "time": 9, "note": 77, "velocity": 111, "channel": 0}, {"type": "note_off", "time": 166, "note": 77, "velocity": 111, "channel": 0}, {"type": "note_on", "time": 9, "note": 78, "velocity": 112, "channel": 0}, {"type": "note_off", "time": 132, "note": 78, "velocity": 112, "channel": 0}, {"type": "note_on", "time": 73, "note": 75, "velocity": 91, "channel": 0}, {"type": "note_off", "time": 52, "note": 75, "velocity": 91, "channel": 0}, {"type": "note_on", "time": 9, "note": 77, "velocity": 98, "channel": 0}, {"type": "note_off", "time": 154, "note": 77, "velocity": 98, "channel": 0}, {"type": "note_on", "time": 28, "note": 78, "velocity": 112, "channel": 0}, {"type": "note_off", "time": 131, "note": 78, "velocity": 112, "channel": 0}, {"type": "note_on", "time": 16, "note": 75, "velocity": 103, "channel": 0}, {"type": "note_off", "time": 41, "note": 75, "velocity": 103, "channel": 0}, {"type": "note_on", "time": 9, "note": 77, "velocity": 107, "channel": 0}, {"type": "note_off", "time": 99, "note": 77, "velocity": 107, "channel": 0}, {"type": "note_on", "time": 24, "note": 75, "velocity": 95, "channel": 0}, {"type": "note_off", "time": 67, "note": 75, "velocity": 95, "channel": 0}, {"type": "note_on", "time": 0, "note": 80, "velocity": 107, "channel": 0}, {"type": "note_off", "time": 115, "note": 80, "velocity": 107, "channel": 0}, {"type": "note_on", "time": 20, "note": 77, "velocity": 96, "channel": 0}, {"type": "note_off", "time": 57, "note": 77, "velocity": 96, "channel": 0}, {"type": "note_on", "time": 11, "note": 75, "velocity": 111, "channel": 0}, {"type": "note_off", "time": 100, "note": 75, "velocity": 111, "channel": 0}, {"type": "note_on", "time": 5, "note": 72, "velocity": 85, "channel": 0}, {"type": "note_off", "time": 56, "note": 72, "velocity": 85, "channel": 0}, {"type": "note_on", "time": 13, "note": 68, "velocity": 100, "channel": 0}, {"type": "note_off", "time": 122, "note": 68, "velocity": 100, "channel": 0}, {"type": "note_on", "time": 0, "note": 30, "velocity": 80, "channel": 0}, {"type": "note_off", "time": 0, "note": 30, "velocity": 80, "channel": 0}, {"type": "note_on", "time": 71, "note": 70, "velocity": 102, "channel": 0}, {"type": "note_off", "time": 157, "note": 70, "velocity": 102, "channel": 0}, {"type": "note_on", "time": 35, "note": 68, "velocity": 110, "channel": 0}, {"type": "note_off", "time": 117, "note": 68, "velocity": 110, "channel": 0}, {"type": "note_on", "time": 11, "note": 67, "velocity": 97, "channel": 0}, {"type": "note_off", "time": 50, "note": 67, "velocity": 97, "channel": 0}, {"type": "note_on", "time": 7, "note": 66, "velocity": 117, "channel": 0}, {"type": "note_off", "time": 98, "note": 66, "velocity": 117, "channel": 0}, {"type": "note_on", "time": 23, "note": 67, "velocity": 104, "channel": 0}, {"type": "note_off", "time": 47, "note": 67, "velocity": 104, "channel": 0}, {"type": "note_on", "time": 14, "note": 63, "velocity": 90, "channel": 0}, {"type": "note_off", "time": 96, "note": 63, "velocity": 90, "channel": 0}, {"type": "note_on", "time": 25, "note": 60, "velocity": 90, "channel": 0}, {"type": "note_off", "time": 63, "note": 60, "velocity": 90, "channel": 0}, {"type": "note_on", "time": 0, "note": 58, "velocity": 92, "channel": 0}, {"type": "note_off", "time": 121, "note": 58, "velocity": 92, "channel": 0}, {"type": "note_on", "time": 9, "note": 58, "velocity": 82, "channel": 0}, {"type": "note_off", "time": 56, "note": 58, "velocity": 82, "channel": 0}, {"type": "note_on", "time": 5, "note": 63, "velocity": 105, "channel": 0}, {"type": "note_off", "time": 159, "note": 63, "velocity": 105, "channel": 0}, {"type": "note_on", "time": 32, "note": 59, "velocity": 96, "channel": 0}, {"type": "note_off", "time": 23, "note": 59, "velocity": 96, "channel": 0}, {"type": "note_on", "time": 0, "note": 27, "velocity": 80, "channel": 0}, {"type": "note_off", "time": 0, "note": 27, "velocity": 80, "channel": 0}, {"type": "note_on", "time": 67, "note": 63, "velocity": 100, "channel": 0}, {"type": "note_off", "time": 84, "note": 63, "velocity": 100, "channel": 0}, {"type": "note_on", "time": 39, "note": 65, "velocity": 86, "channel": 0}, {"type": "note_off", "time": 125, "note": 65, "velocity": 86, "channel": 0}, {"type": "note_on", "time": 45, "note": 70, "velocity": 107, "channel": 0}, {"type": "note_off", "time": 174, "note": 70, "velocity": 107, "channel": 0}, {"type": "note_on", "time": 25, "note": 68, "velocity": 117, "channel": 0}, {"type": "note_off", "time": 111, "note": 68, "velocity": 117, "channel": 0}, {"type": "note_on", "time": 0, "note": 55, "velocity": 80, "channel": 0}, {"type": "note_off", "time": 0, "note": 55, "velocity": 80, "channel": 0}, {"type": "note_on", "time": 20, "note": 67, "velocity": 103, "channel": 0}, {"type": "note_off", "time": 62, "note": 67, "velocity": 103, "channel": 0}, {"type": "note_on", "time": 6, "note": 63, "velocity": 91, "channel": 0}, {"type": "note_off", "time": 116, "note": 63, "velocity": 91, "channel": 0}, {"type": "note_on", "time": 4, "note": 67, "velocity": 96, "channel": 0}, {"type": "note_off", "time": 60, "note": 67, "velocity": 96, "channel": 0}, {"type": "note_on", "time": 3, "note": 70, "velocity": 105, "channel": 0}, {"type": "note_off", "time": 158, "note": 70, "velocity": 105, "channel": 0}, {"type": "note_on", "time": 33, "note": 77, "velocity": 101, "channel": 0}, {"type": "note_off", "time": 260, "note": 77, "velocity": 101, "channel": 0}, {"type": "note_on", "time": 53, "note": 73, "velocity": 101, "channel": 0}, {"type": "note_off", "time": 72, "note": 73, "velocity": 101, "channel": 0}, {"type": "note_on", "time": 9, "note": 77, "velocity": 103, "channel": 0}, {"type": "note_off", "time": 93, "note": 77, "velocity": 103, "channel": 0}, {"type": "note_on", "time": 0, "note": 73, "velocity": 103, "channel": 0}, {"type": "note_off", "time": 93, "note": 73, "velocity": 103, "channel": 0}, {"type": "note_on", "time": 14, "note": 70, "velocity": 99, "channel": 0}, {"type": "note_off", "time": 132, "note": 70, "velocity": 99, "channel": 0}, {"type": "note_on", "time": 0, "note": 46, "velocity": 80, "channel": 0}, {"type": "note_off", "time": 0, "note": 46, "velocity": 80, "channel": 0}, {"type": "note_on", "time": 153, "note": 63, "velocity": 106, "channel": 0}, {"type": "note_off", "time": 83, "note": 63, "velocity": 106, "channel": 0}, {"type": "note_on", "time": 4, "note": 75, "velocity": 115, "channel": 0}, {"type": "note_off", "time": 110, "note": 75, "velocity": 115, "channel": 0}, {"type": "note_on", "time": 3, "note": 72, "velocity": 104, "channel": 0}, {"type": "note_off", "time": 79, "note": 72, "velocity": 104, "channel": 0}, {"type": "note_on", "time": 2, "note": 75, "velocity": 108, "channel": 0}, {"type": "note_off", "time": 147, "note": 75, "velocity": 108, "channel": 0}, {"type": "note_on", "time": 43, "note": 70, "velocity": 98, "channel": 0}, {"type": "note_off", "time": 97, "note": 70, "velocity": 98, "channel": 0}, {"type": "note_on", "time": 11, "note": 68, "velocity": 94, "channel": 0}, {"type": "note_off", "time": 68, "note": 68, "velocity": 94, "channel": 0}, {"type": "note_on", "time": 16, "note": 63, "velocity": 112, "channel": 0}, {"type": "note_off", "time": 91, "note": 63, "velocity": 112, "channel": 0}, {"type": "note_on", "time": 17, "note": 60, "velocity": 86, "channel": 0}, {"type": "note_off", "time": 75, "note": 60, "velocity": 86, "channel": 0}, {"type": "note_on", "time": 17, "note": 56, "velocity": 100, "channel": 0}, {"type": "note_off", "time": 123, "note": 56, "velocity": 100, "channel": 0}, {"type": "note_on", "time": 223, "note": 78, "velocity": 117, "channel": 0}, {"type": "note_off", "time": 142, "note": 78, "velocity": 117, "channel": 0}, {"type": "note_on", "time": 10, "note": 75, "velocity": 87, "channel": 0}, {"type": "note_off", "time": 70, "note": 75, "velocity": 87, "channel": 0}, {"type": "note_on", "time": 2, "note": 72, "velocity": 90, "channel": 0}, {"type": "note_off", "time": 81, "note": 72, "velocity": 90, "channel": 0}, {"type": "note_on", "time": 9, "note": 69, "velocity": 86, "channel": 0}, {"type": "note_off", "time": 91, "note": 69, "velocity": 86, "channel": 0}, {"type": "note_on", "time": 10, "note": 66, "velocity": 108, "channel": 0}, {"type": "note_off", "time": 183, "note": 66, "velocity": 108, "channel": 0}, {"type": "note_on", "time": 15, "note": 67, "velocity": 95, "channel": 0}, {"type": "note_off", "time": 133, "note": 67, "velocity": 95, "channel": 0}, {"type": "note_on", "time": 5, "note": 63, "velocity": 93, "channel": 0}, {"type": "note_off", "time": 47, "note": 63, "velocity": 93, "channel": 0}, {"type": "note_on", "time": 2, "note": 67, "velocity": 99, "channel": 0}, {"type": "note_off", "time": 102, "note": 67, "velocity": 99, "channel": 0}, {"type": "note_on", "time": 11, "note": 70, "velocity": 100, "channel": 0}, {"type": "note_off", "time": 52, "note": 70, "velocity": 100, "channel": 0}, {"type": "note_on", "time": 12, "note": 75, "velocity": 115, "channel": 0}, {"type": "note_off", "time": 125, "note": 75, "velocity": 115, "channel": 0}, {"type": "note_on", "time": 7, "note": 75, "velocity": 104, "channel": 0}, {"type": "note_off", "time": 60, "note": 75, "velocity": 104, "channel": 0}, {"type": "note_on", "time": 9, "note": 74, "velocity": 106, "channel": 0}, {"type": "note_off", "time": 91, "note": 74, "velocity": 106, "channel": 0}, {"type": "note_on", "time": 19, "note": 70, "velocity": 103, "channel": 0}, {"type": "note_off", "time": 72, "note": 70, "velocity": 103, "channel": 0}, {"type": "note_on", "time": 11, "note": 67, "velocity": 98, "channel": 0}, {"type": "note_off", "time": 100, "note": 67, "velocity": 98, "channel": 0}, {"type": "note_on", "time": 16, "note": 64, "velocity": 92, "channel": 0}, {"type": "note_off", "time": 68, "note": 64, "velocity": 92, "channel": 0}, {"type": "note_on", "time": 8, "note": 67, "velocity": 102, "channel": 0}, {"type": "note_off", "time": 108, "note": 67, "velocity": 102, "channel": 0}, {"type": "note_on", "time": 7, "note": 64, "velocity": 84, "channel": 0}, {"type": "note_off", "time": 65, "note": 64, "velocity": 84, "channel": 0}, {"type": "note_on", "time": 20, "note": 67, "velocity": 94, "channel": 0}, {"type": "note_off", "time": 115, "note": 67, "velocity": 94, "channel": 0}, {"type": "note_on", "time": 60, "note": 55, "velocity": 101, "channel": 0}, {"type": "note_off", "time": 33, "note": 55, "velocity": 101, "channel": 0}, {"type": "note_on", "time": 11, "note": 62, "velocity": 108, "channel": 0}, {"type": "note_off", "time": 36, "note": 62, "velocity": 108, "channel": 0}, {"type": "note_on", "time": 3, "note": 67, "velocity": 90, "channel": 0}, {"type": "note_off", "time": 47, "note": 67, "velocity": 90, "channel": 0}, {"type": "note_on", "time": 0, "note": 69, "velocity": 105, "channel": 0}, {"type": "note_off", "time": 70, "note": 69, "velocity": 105, "channel": 0}, {"type": "note_on", "time": 6, "note": 74, "velocity": 94, "channel": 0}, {"type": "note_off", "time": 266, "note": 74, "velocity": 94, "channel": 0}, {"type": "note_on", "time": 38, "note": 72, "velocity": 95, "channel": 0}, {"type": "note_off", "time": 356, "note": 72, "velocity": 95, "channel": 0}, {"type": "note_on", "time": 314, "note": 78, "velocity": 104, "channel": 0}, {"type": "note_off", "time": 183, "note": 78, "velocity": 104, "channel": 0}, {"type": "note_on", "time": 7, "note": 79, "velocity": 105, "channel": 0}, {"type": "note_off", "time": 96, "note": 79, "velocity": 105, "channel": 0}, {"type": "note_on", "time": 25, "note": 70, "velocity": 98, "channel": 0}, {"type": "note_off", "time": 67, "note": 70, "velocity": 98, "channel": 0}, {"type": "note_on", "time": 3, "note": 69, "velocity": 102, "channel": 0}, {"type": "note_off", "time": 96, "note": 69, "velocity": 102, "channel": 0}, {"type": "note_on", "time": 11, "note": 67, "velocity": 98, "channel": 0}, {"type": "note_off", "time": 61, "note": 67, "velocity": 98, "channel": 0}, {"type": "note_on", "time": 6, "note": 70, "velocity": 103, "channel": 0}, {"type": "note_off", "time": 101, "note": 70, "velocity": 103, "channel": 0}, {"type": "note_on", "time": 9, "note": 67, "velocity": 94, "channel": 0}, {"type": "note_off", "time": 61, "note": 67, "velocity": 94, "channel": 0}, {"type": "note_on", "time": 13, "note": 70, "velocity": 111, "channel": 0}, {"type": "note_off", "time": 102, "note": 70, "velocity": 111, "channel": 0}, {"type": "note_on", "time": 39, "note": 72, "velocity": 92, "channel": 0}, {"type": "note_off", "time": 63, "note": 72, "velocity": 92, "channel": 0}, {"type": "note_on", "time": 3, "note": 75, "velocity": 106, "channel": 0}, {"type": "note_off", "time": 320, "note": 75, "velocity": 106, "channel": 0}, {"type": "end_of_track", "time": 0}]]}