{"ticks_per_beat": 192, "tracks": [[{"type": "track_name", "name": "Melody", "time": 0}, {"type": "set_tempo", "tempo": 327868, "time": 0}, {"type": "key_signature", "key": "Ab", "time": 0}, {"type": "time_signature", "numerator": 4, "denominator": 4, "clocks_per_click": 24, "notated_32nd_notes_per_beat": 8, "time": 0}, {"type": "note_on", "time": 1240, "note": 71, "velocity": 114, "channel": 0}, {"type": "note_off", "time": 121, "note": 71, "velocity": 114, "channel": 0}, {"type": "note_on", "time": 20, "note": 72, "velocity": 120, "channel": 0}, {"type": "note_off", "time": 113, "note": 72, "velocity": 120, "channel": 0}, {"type": "note_on", "time": 41, "note": 71, "velocity": 118, "channel": 0}, {"type": "note_off", "time": 78, "note": 71, "velocity": 118, "channel": 0}, {"type": "note_on", "time": 4, "note": 72, "velocity": 123, "channel": 0}, {"type": "note_off", "time": 89, "note": 72, "velocity": 123, "channel": 0}, {"type": "note_on", "time": 90, "note": 72, "velocity": 125, "channel": 0}, {"type": "note_off", "time": 112, "note": 72, "velocity": 125, "channel": 0}, {"type": "note_on", "time": 95, "note": 72, "velocity": 125, "channel": 0}, {"type": "note_off", "time": 111, "note": 72, "velocity": 125, "channel": 0}, {"type": "note_on", "time": 76, "note": 72, "velocity": 107, "channel": 0}, {"type": "note_off", "time": 179, "note": 72, "velocity": 107, "channel": 0}, {"type": "note_on", "time": 223, "note": 72, "velocity": 124, "channel": 0}, {"type": "note_off", "time": 108, "note": 72, "velocity": 124, "channel": 0}, {"type": "note_on", "time": 25, "note": 75, "velocity": 125, "channel": 0}, {"type": "note_off", "time": 77, "note": 75, "velocity": 125, "channel": 0}, {"type": "note_on", "time": 83, "note": 72, "velocity": 118, "channel": 0}, {"type": "note_off", "time": 60, "note": 72, "velocity": 118, "channel": 0}, {"type": "note_on", "time": 7, "note": 75, "velocity": 123, "channel": 0}, {"type": "note_off", "time": 94, "note": 75, "velocity": 123, "channel": 0}, {"type": "note_on", "time": 39, "note": 80, "velocity": 98, "channel": 0}, {"type": "note_off", "time": 140, "note": 80, "velocity": 98, "channel": 0}, {"type": "note_on", "time": 61, "note": 75, "velocity": 126, "channel": 0}, {"type": "note_off", "time": 70, "note": 75, "velocity": 126, "channel": 0}, {"type": "note_on", "time": 110, "note": 75, "velocity": 127, "channel": 0}, {"type": "note_off", "time": 67, "note": 75, "velocity": 127, "channel": 0}, {"type": "note_on", "time": 17, "note": 72, "velocity": 126, "channel": 0}, {"type": "note_off", "time": 99, "note": 72, "velocity": 126, "channel": 0}, {"type": "note_on", "time": 69, "note": 70, "velocity": 123, "channel": 0}, {"type": "note_off", "time": 102, "note": 70, "velocity": 123, "channel": 0}, {"type": "note_on", "time": 11, "note": 68, "velocity": 123, "channel": 0}, {"type": "note_off", "time": 87, "note": 68, "velocity": 123, "channel": 0}, {"type": "note_on", "time": 13, "note": 67, "velocity": 120, "channel": 0}, {"type": "note_off", "time": 96, "note": 67, "velocity": 120, "channel": 0}, {"type": "note_on", "time": 19, "note": 65, "velocity": 107, "channel": 0}, {"type": "note_off", "time": 61, "note": 65, "velocity": 107, "channel": 0}, {"type": "note_on", "time": 6, "note": 70, "velocity": 109, "channel": 0}, {"type": "note_off", "time": 195, "note": 70, "velocity": 109, "channel": 0}, {"type": "note_on", "time": 107, "note": 68, "velocity": 122, "channel": 0}, {"type": "note_off", "time": 70, "note": 68, "velocity": 122, "channel": 0}, {"type": "note_on", "time": 11, "note": 67, "velocity": 121, "channel": 0}, {"type": "note_off", "time": 107, "note": 67, "velocity": 121, "channel": 0}, {"type": "note_on", "time": 69, "note": 65, "velocity": 120, "channel": 0}, {"type": "note_off", "time": 106, "note": 65, "velocity": 120, "channel": 0}, {"type": "note_on", "time": 39, "note": 73, "velocity": 122, "channel": 0}, {"type": "note_off", "time": 105, "note": 73, "velocity": 122, "channel": 0}, {"type": "note_on", "time": 57, "note": 70, "velocity": 117, "channel": 0}, {"type": "note_off", "time": 73, "note": 70, "velocity": 117, "channel": 0}, {"type": "note_on", "time": 24, "note": 73, "velocity": 120, "channel": 0}, {"type": "note_off", "time": 86, "note": 73, "velocity": 120, "channel": 0}, {"type": "note_on", "time": 81, "note": 70, "velocity": 107, "channel": 0}, {"type": "note_off", "time": 159, "note": 70, "velocity": 107, "channel": 0}, {"type": "note_on", "time": 345, "note": 71, "velocity": 119, "channel": 0}, {"type": "note_off", "time": 74, "note": 71, "velocity": 119, "channel": 0}, {"type": "note_on", "time": 11, "note": 72, "velocity": 125, "channel": 0}, {"type": "note_off", "time": 83, "note": 72, "velocity": 125, "channel": 0}, {"type": "note_on", "time": 10, "note": 75, "velocity": 118, "channel": 0}, {"type": "note_off", "time": 66, "note": 75, "velocity": 118, "channel": 0}, {"type": "note_on", "time": 14, "note": 72, "velocity": 123, "channel": 0}, {"type": "note_off", "time": 87, "note": 72, "velocity": 123, "channel": 0}, {"type": "note_on", "time": 40, "note": 67, "velocity": 123, "channel": 0}, {"type": "note_off", "time": 82, "note": 67, "velocity": 123, "channel": 0}, {"type": "note_on", "time": 100, "note": 70, "velocity": 122, "channel": 0}, {"type": "note_off", "time": 62, "note": 70, "velocity": 122, "channel": 0}, {"type": "note_on", "time": 10, "note": 68, "velocity": 120, "channel": 0}, {"type": "note_off", "time": 88, "note": 68, "velocity": 120, "channel": 0}, {"type": "note_on", "time": 14, "note": 68, "velocity": 115, "channel": 0}, {"type": "note_off", "time": 171, "note": 68, "velocity": 115, "channel": 0}, {"type": "note_on", "time": 20, "note": 72, "velocity": 102, "channel": 0}, {"type": "note_off", "time": 29, "note": 72, "velocity": 102, "channel": 0}, {"type": "note_on", "time": 4, "note": 68, "velocity": 107, "channel": 0}, {"type": "note_off", "time": 47, "note": 68, "velocity": 107, "channel": 0}, {"type": "note_on", "time": 13, "note": 65, "velocity": 115, "channel": 0}, {"type": "note_off", "time": 43, "note": 65, "velocity": 115, "channel": 0}, {"type": "note_on", "time": 15, "note": 60, "velocity": 101, "channel": 0}, {"type": "note_off", "time": 148, "note": 60, "velocity": 101, "channel": 0}, {"type": "note_on", "time": 279, "note": 79, "velocity": 111, "channel": 0}, {"type": "note_off", "time": 709, "note": 79, "velocity": 111, "channel": 0}, {"type": "note_on", "time": 34, "note": 75, "velocity": 120, "channel": 0}, {"type": "note_off", "time": 62, "note": 75, "velocity": 120, "channel": 0}, {"type": "note_on", "time": 46, "note": 63, "velocity": 115, "channel": 0}, {"type": "note_off", "time": 64, "note": 63, "velocity": 115, "channel": 0}, {"type": "note_on", "time": 16, "note": 65, "velocity": 117, "channel": 0}, {"type": "note_off", "time": 66, "note": 65, "velocity": 117, "channel": 0}, {"type": "note_on", "time": 23, "note": 68, "velocity": 111, "channel": 0}, {"type": "note_off", "time": 90, "note": 68, "velocity": 111, "channel": 0}, {"type": "note_on", "time": 27, "note": 72, "velocity": 122, "channel": 0}, {"type": "note_off", "time": 56, "note": 72, "velocity": 122, "channel": 0}, {"type": "note_on", "time": 14, "note": 65, "velocity": 110, "channel": 0}, {"type": "note_off", "time": 73, "note": 65, "velocity": 110, "channel": 0}, {"type": "note_on", "time": 45, "note": 68, "velocity": 115, "channel": 0}, {"type": "note_off", "time": 71, "note": 68, "velocity": 115, "channel": 0}, {"type": "note_on", "time": 121, "note": 68, "velocity": 117, "channel": 0}, {"type": "note_off", "time": 73, "note": 68, "velocity": 117, "channel": 0}, {"type": "note_on", "time": 96, "note": 68, "velocity": 115, "channel": 0}, {"type": "note_off", "time": 63, "note": 68, "velocity": 115, "channel": 0}, {"type": "note_on", "time": 30, "note": 61, "velocity": 106, "channel": 0}, {"type": "note_off", "time": 72, "note": 61, "velocity": 106, "channel": 0}, {"type": "note_on", "time": 28, "note": 61, "velocity": 102, "channel": 0}, {"type": "note_off", "time": 53, "note": 61, "velocity": 102, "channel": 0}, {"type": "note_on", "time": 21, "note": 67, "velocity": 121, "channel": 0}, {"type": "note_off", "time": 73, "note": 67, "velocity": 121, "channel": 0}, {"type": "note_on", "time": 28, "note": 67, "velocity": 117, "channel": 0}, {"type": "note_off", "time": 73, "note": 67, "velocity": 117, "channel": 0}, {"type": "note_on", "time": 32, "note": 65, "velocity": 108, "channel": 0}, {"type": "note_off", "time": 158, "note": 65, "velocity": 108, "channel": 0}, {"type": "note_on", "time": 42, "note": 63, "velocity": 116, "channel": 0}, {"type": "note_off", "time": 83, "note": 63, "velocity": 116, "channel": 0}, {"type": "note_on", "time": 81, "note": 72, "velocity": 110, "channel": 0}, {"type": "note_off", "time": 173, "note": 72, "velocity": 110, "channel": 0}, {"type": "note_on", "time": 219, "note": 71, "velocity": 118, "channel": 0}, {"type": "note_off", "time": 93, "note": 71, "velocity": 118, "channel": 0}, {"type": "note_on", "time": 33, "note": 72, "velocity": 122, "channel": 0}, {"type": "note_off", "time": 107, "note": 72, "velocity": 122, "channel": 0}, {"type": "note_on", "time": 65, "note": 70, "velocity": 123, "channel": 0}, {"type": "note_off", "time": 60, "note": 70, "velocity": 123, "channel": 0}, {"type": "note_on", "time": 13, "note": 68, "velocity": 114, "channel": 0}, {"type": "note_off", "time": 144, "note": 68, "velocity": 114, "channel": 0}, {"type": "note_on", "time": 24, "note": 65, "velocity": 117, "channel": 0}, {"type": "note_off", "time": 106, "note": 65, "velocity": 117, "channel": 0}, {"type": "note_on", "time": 47, "note": 68, "velocity": 118, "channel": 0}, {"type": "note_off", "time": 90, "note": 68, "velocity": 118, "channel": 0}, {"type": "note_on", "time": 86, "note": 70, "velocity": 121, "channel": 0}, {"type": "note_off", "time": 53, "note": 70, "velocity": 121, "channel": 0}, {"type": "note_on", "time": 19, "note": 68, "velocity": 118, "channel": 0}, {"type": "note_off", "time": 109, "note": 68, "velocity": 118, "channel": 0}, {"type": "note_on", "time": 15, "note": 65, "velocity": 99, "channel": 0}, {"type": "note_off", "time": 52, "note": 65, "velocity": 99, "channel": 0}, {"type": "note_on", "time": 11, "note": 68, "velocity": 109, "channel": 0}, {"type": "note_off", "time": 186, "note": 68, "velocity": 109, "channel": 0}, {"type": "note_on", "time": 23, "note": 65, "velocity": 120, "channel": 0}, {"type": "note_off", "time": 87, "note": 65, "velocity": 120, "channel": 0}, {"type": "note_on", "time": 94, "note": 63, "velocity": 116, "channel": 0}, {"type": "note_off", "time": 81, "note": 63, "velocity": 116, "channel": 0}, {"type": "note_on", "time": 312, "note": 79, "velocity": 125, "channel": 0}, {"type": "note_off", "time": 93, "note": 79, "velocity": 125, "channel": 0}, {"type": "note_on", "time": 29, "note": 77, "velocity": 124, "channel": 0}, {"type": "note_off", "time": 45, "note": 77, "velocity": 124, "channel": 0}, {"type": "note_on", "time": 30, "note": 73, "velocity": 116, "channel": 0}, {"type": "note_off", "time": 89, "note": 73, "velocity": 116, "channel": 0}, {"type": "note_on", "time": 11, "note": 72, "velocity": 119, "channel": 0}, {"type": "note_off", "time": 163, "note": 72, "velocity": 119, "channel": 0}, {"type": "note_on", "time": 96, "note": 65, "velocity": 121, "channel": 0}, {"type": "note_off", "time": 87, "note": 65, "velocity": 121, "channel": 0}, {"type": "note_on", "time": 32, "note": 66, "velocity": 108, "channel": 0}, {"type": "note_off", "time": 73, "note": 66, "velocity": 108, "channel": 0}, {"type": "note_on", "time": 18, "note": 67, "velocity": 118, "channel": 0}, {"type": "note_off", "time": 97, "note": 67, "velocity": 118, "channel": 0}, {"type": "note_on", "time": 25, "note": 72, "velocity": 117, "channel": 0}, {"type": "note_off", "time": 152, "note": 72, "velocity": 117, "channel": 0}, {"type": "note_on", "time": 103, "note": 68, "velocity": 117, "channel": 0}, {"type": "note_off", "time": 96, "note": 68, "velocity": 117, "channel": 0}, {"type": "note_on", "time": 19, "note": 60, "velocity": 94, "channel": 0}, {"type": "note_off", "time": 57, "note": 60, "velocity": 94, "channel": 0}, {"type": "note_on", "time": 3, "note": 61, "velocity": 106, "channel": 0}, {"type": "note_off", "time": 101, "note": 61, "velocity": 106, "channel": 0}, {"type": "note_on", "time": 16, "note": 67, "velocity": 103, "channel": 0}, {"type": "note_off", "time": 250, "note": 67, "velocity": 103, "channel": 0}, {"type": "note_on", "time": 19, "note": 65, "velocity": 111, "channel": 0}, {"type": "note_off", "time": 102, "note": 65, "velocity": 111, "channel": 0}, {"type": "end_of_track", "time": 0}]]}