{"ticks_per_beat": 192, "tracks": [[{"type": "track_name", "name": "Melody", "time": 0}, {"type": "set_tempo", "tempo": 303030, "time": 0}, {"type": "key_signature", "key": "F", "time": 0}, {"type": "time_signature", "numerator": 4, "denominator": 4, "clocks_per_click": 24, "notated_32nd_notes_per_beat": 8, "time": 0}, {"type": "note_on", "time": 3040, "note": 76, "velocity": 121, "channel": 0}, {"type": "note_off", "time": 65, "note": 76, "velocity": 121, "channel": 0}, {"type": "note_on", "time": 61, "note": 79, "velocity": 124, "channel": 0}, {"type": "note_off", "time": 72, "note": 79, "velocity": 124, "channel": 0}, {"type": "note_on", "time": 121, "note": 72, "velocity": 105, "channel": 0}, {"type": "note_off", "time": 46, "note": 72, "velocity": 105, "channel": 0}, {"type": "note_on", "time": 9, "note": 76, "velocity": 119, "channel": 0}, {"type": "note_off", "time": 73, "note": 76, "velocity": 119, "channel": 0}, {"type": "note_on", "time": 64, "note": 67, "velocity": 93, "channel": 0}, {"type": "note_off", "time": 34, "note": 67, "velocity": 93, "channel": 0}, {"type": "note_on", "time": 13, "note": 72, "velocity": 116, "channel": 0}, {"type": "note_off", "time": 60, "note": 72, "velocity": 116, "channel": 0}, {"type": "note_on", "time": 66, "note": 64, "velocity": 97, "channel": 0}, {"type": "note_off", "time": 53, "note": 64, "velocity": 97, "channel": 0}, {"type": "note_on", "time": 11, "note": 67, "velocity": 98, "channel": 0}, {"type": "note_off", "time": 102, "note": 67, "velocity": 98, "channel": 0}, {"type": "note_on", "time": 11, "note": 72, "velocity": 91, "channel": 0}, {"type": "note_off", "time": 55, "note": 72, "velocity": 91, "channel": 0}, {"type": "note_on", "time": 0, "note": 76, "velocity": 122, "channel": 0}, {"type": "note_off", "time": 95, "note": 76, "velocity": 122, "channel": 0}, {"type": "note_on", "time": 121, "note": 76, "velocity": 119, "channel": 0}, {"type": "note_off", "time": 62, "note": 76, "velocity": 119, "channel": 0}, {"type": "note_on", "time": 240, "note": 79, "velocity": 115, "channel": 0}, {"type": "note_off", "time": 25, "note": 79, "velocity": 115, "channel": 0}, {"type": "note_on", "time": 7, "note": 80, "velocity": 89, "channel": 0}, {"type": "note_off", "time": 214, "note": 80, "velocity": 89, "channel": 0}, {"type": "note_on", "time": 36, "note": 78, "velocity": 124, "channel": 0}, {"type": "note_off", "time": 69, "note": 78, "velocity": 124, "channel": 0}, {"type": "note_on", "time": 23, "note": 74, "velocity": 115, "channel": 0}, {"type": "note_off", "time": 80, "note": 74, "velocity": 115, "channel": 0}, {"type": "note_on", "time": 9, "note": 71, "velocity": 111, "channel": 0}, {"type": "note_off", "time": 81, "note": 71, "velocity": 111, "channel": 0}, {"type": "note_on", "time": 16, "note": 67, "velocity": 104, "channel": 0}, {"type": "note_off", "time": 40, "note": 67, "velocity": 104, "channel": 0}, {"type": "note_on", "time": 12, "note": 68, "velocity": 111, "channel": 0}, {"type": "note_off", "time": 43, "note": 68, "velocity": 111, "channel": 0}, {"type": "note_on", "time": 80, "note": 64, "velocity": 112, "channel": 0}, {"type": "note_off", "time": 87, "note": 64, "velocity": 112, "channel": 0}, {"type": "note_on", "time": 2, "note": 62, "velocity": 107, "channel": 0}, {"type": "note_off", "time": 80, "note": 62, "velocity": 107, "channel": 0}, {"type": "note_on", "time": 12, "note": 60, "velocity": 87, "channel": 0}, {"type": "note_off", "time": 74, "note": 60, "velocity": 87, "channel": 0}, {"type": "note_on", "time": 7, "note": 59, "velocity": 82, "channel": 0}, {"type": "note_off", "time": 248, "note": 59, "velocity": 82, "channel": 0}, {"type": "note_on", "time": 147, "note": 76, "velocity": 123, "channel": 0}, {"type": "note_off", "time": 50, "note": 76, "velocity": 123, "channel": 0}, {"type": "note_on", "time": 68, "note": 81, "velocity": 112, "channel": 0}, {"type": "note_off", "time": 100, "note": 81, "velocity": 112, "channel": 0}, {"type": "note_on", "time": 72, "note": 76, "velocity": 92, "channel": 0}, {"type": "note_off", "time": 72, "note": 76, "velocity": 92, "channel": 0}, {"type": "note_on", "time": 2, "note": 81, "velocity": 113, "channel": 0}, {"type": "note_off", "time": 157, "note": 81, "velocity": 113, "channel": 0}, {"type": "note_on", "time": 170, "note": 76, "velocity": 111, "channel": 0}, {"type": "note_off", "time": 56, "note": 76, "velocity": 111, "channel": 0}, {"type": "note_on", "time": 15, "note": 81, "velocity": 99, "channel": 0}, {"type": "note_off", "time": 98, "note": 81, "velocity": 99, "channel": 0}, {"type": "note_on", "time": 19, "note": 76, "velocity": 96, "channel": 0}, {"type": "note_off", "time": 45, "note": 76, "velocity": 96, "channel": 0}, {"type": "note_on", "time": 10, "note": 81, "velocity": 115, "channel": 0}, {"type": "note_off", "time": 90, "note": 81, "velocity": 115, "channel": 0}, {"type": "note_on", "time": 100, "note": 81, "velocity": 112, "channel": 0}, {"type": "note_off", "time": 106, "note": 81, "velocity": 112, "channel": 0}, {"type": "note_on", "time": 98, "note": 81, "velocity": 114, "channel": 0}, {"type": "note_off", "time": 98, "note": 81, "velocity": 114, "channel": 0}, {"type": "note_on", "time": 85, "note": 81, "velocity": 115, "channel": 0}, {"type": "note_off", "time": 106, "note": 81, "velocity": 115, "channel": 0}, {"type": "note_on", "time": 31, "note": 80, "velocity": 102, "channel": 0}, {"type": "note_off", "time": 69, "note": 80, "velocity": 102, "channel": 0}, {"type": "note_on", "time": 5, "note": 79, "velocity": 110, "channel": 0}, {"type": "note_off", "time": 90, "note": 79, "velocity": 110, "channel": 0}, {"type": "note_on", "time": 24, "note": 68, "velocity": 114, "channel": 0}, {"type": "note_off", "time": 39, "note": 68, "velocity": 114, "channel": 0}, {"type": "note_on", "time": 3, "note": 69, "velocity": 108, "channel": 0}, {"type": "note_off", "time": 61, "note": 69, "velocity": 108, "channel": 0}, {"type": "note_on", "time": 54, "note": 68, "velocity": 105, "channel": 0}, {"type": "note_off", "time": 93, "note": 68, "velocity": 105, "channel": 0}, {"type": "note_on", "time": 5, "note": 67, "velocity": 104, "channel": 0}, {"type": "note_off", "time": 95, "note": 67, "velocity": 104, "channel": 0}, {"type": "note_on", "time": 25, "note": 81, "velocity": 106, "channel": 0}, {"type": "note_off", "time": 110, "note": 81, "velocity": 106, "channel": 0}, {"type": "note_on", "time": 58, "note": 80, "velocity": 120, "channel": 0}, {"type": "note_off", "time": 90, "note": 80, "velocity": 120, "channel": 0}, {"type": "note_on", "time": 5, "note": 79, "velocity": 106, "channel": 0}, {"type": "note_off", "time": 103, "note": 79, "velocity": 106, "channel": 0}, {"type": "note_on", "time": 77, "note": 79, "velocity": 104, "channel": 0}, {"type": "note_off", "time": 52, "note": 79, "velocity": 104, "channel": 0}, {"type": "note_on", "time": 4, "note": 80, "velocity": 91, "channel": 0}, {"type": "note_off", "time": 120, "note": 80, "velocity": 91, "channel": 0}, {"type": "note_on", "time": 10, "note": 76, "velocity": 115, "channel": 0}, {"type": "note_off", "time": 89, "note": 76, "velocity": 115, "channel": 0}, {"type": "note_on", "time": 132, "note": 77, "velocity": 97, "channel": 0}, {"type": "note_off", "time": 95, "note": 77, "velocity": 97, "channel": 0}, {"type": "note_on", "time": 9, "note": 75, "velocity": 116, "channel": 0}, {"type": "note_off", "time": 59, "note": 75, "velocity": 116, "channel": 0}, {"type": "note_on", "time": 4, "note": 76, "velocity": 119, "channel": 0}, {"type": "note_off", "time": 85, "note": 76, "velocity": 119, "channel": 0}, {"type": "note_on", "time": 94, "note": 74, "velocity": 112, "channel": 0}, {"type": "note_off", "time": 108, "note": 74, "velocity": 112, "channel": 0}, {"type": "note_on", "time": 7, "note": 72, "velocity": 115, "channel": 0}, {"type": "note_off", "time": 77, "note": 72, "velocity": 115, "channel": 0}, {"type": "note_on", "time": 2, "note": 69, "velocity": 122, "channel": 0}, {"type": "note_off", "time": 77, "note": 69, "velocity": 122, "channel": 0}, {"type": "note_on", "time": 111, "note": 74, "velocity": 118, "channel": 0}, {"type": "note_off", "time": 95, "note": 74, "velocity": 118, "channel": 0}, {"type": "note_on", "time": 0, "note": 72, "velocity": 119, "channel": 0}, {"type": "note_off", "time": 80, "note": 72, "velocity": 119, "channel": 0}, {"type": "note_on", "time": 18, "note": 68, "velocity": 114, "channel": 0}, {"type": "note_off", "time": 98, "note": 68, "velocity": 114, "channel": 0}, {"type": "note_on", "time": 14, "note": 63, "velocity": 101, "channel": 0}, {"type": "note_off", "time": 34, "note": 63, "velocity": 101, "channel": 0}, {"type": "note_on", "time": 6, "note": 65, "velocity": 110, "channel": 0}, {"type": "note_off", "time": 81, "note": 65, "velocity": 110, "channel": 0}, {"type": "note_on", "time": 62, "note": 64, "velocity": 114, "channel": 0}, {"type": "note_off", "time": 83, "note": 64, "velocity": 114, "channel": 0}, {"type": "note_on", "time": 10, "note": 63, "velocity": 112, "channel": 0}, {"type": "note_off", "time": 90, "note": 63, "velocity": 112, "channel": 0}, {"type": "note_on", "time": 13, "note": 64, "velocity": 107, "channel": 0}, {"type": "note_off", "time": 67, "note": 64, "velocity": 107, "channel": 0}, {"type": "note_on", "time": 10, "note": 67, "velocity": 114, "channel": 0}, {"type": "note_off", "time": 100, "note": 67, "velocity": 114, "channel": 0}, {"type": "note_on", "time": 0, "note": 60, "velocity": 98, "channel": 0}, {"type": "note_off", "time": 82, "note": 60, "velocity": 98, "channel": 0}, {"type": "note_on", "time": 19, "note": 64, "velocity": 110, "channel": 0}, {"type": "note_off", "time": 79, "note": 64, "velocity": 110, "channel": 0}, {"type": "note_on", "time": 27, "note": 67, "velocity": 98, "channel": 0}, {"type": "note_off", "time": 43, "note": 67, "velocity": 98, "channel": 0}, {"type": "note_on", "time": 20, "note": 72, "velocity": 117, "channel": 0}, {"type": "note_off", "time": 126, "note": 72, "velocity": 117, "channel": 0}, {"type": "note_on", "time": 2, "note": 71, "velocity": 101, "channel": 0}, {"type": "note_off", "time": 33, "note": 71, "velocity": 101, "channel": 0}, {"type": "note_on", "time": 10, "note": 74, "velocity": 116, "channel": 0}, {"type": "note_off", "time": 113, "note": 74, "velocity": 116, "channel": 0}, {"type": "note_on", "time": 10, "note": 72, "velocity": 103, "channel": 0}, {"type": "note_off", "time": 67, "note": 72, "velocity": 103, "channel": 0}, {"type": "note_on", "time": 5, "note": 76, "velocity": 120, "channel": 0}, {"type": "note_off", "time": 100, "note": 76, "velocity": 120, "channel": 0}, {"type": "note_on", "time": 102, "note": 76, "velocity": 122, "channel": 0}, {"type": "note_off", "time": 100, "note": 76, "velocity": 122, "channel": 0}, {"type": "note_on", "time": 67, "note": 76, "velocity": 112, "channel": 0}, {"type": "note_off", "time": 166, "note": 76, "velocity": 112, "channel": 0}, {"type": "note_on", "time": 254, "note": 66, "velocity": 111, "channel": 0}, {"type": "note_off", "time": 77, "note": 66, "velocity": 111, "channel": 0}, {"type": "note_on", "time": 32, "note": 76, "velocity": 119, "channel": 0}, {"type": "note_off", "time": 111, "note": 76, "velocity": 119, "channel": 0}, {"type": "note_on", "time": 90, "note": 72, "velocity": 79, "channel": 0}, {"type": "note_off", "time": 49, "note": 72, "velocity": 79, "channel": 0}, {"type": "note_on", "time": 7, "note": 76, "velocity": 126, "channel": 0}, {"type": "note_off", "time": 87, "note": 76, "velocity": 126, "channel": 0}, {"type": "note_on", "time": 28, "note": 74, "velocity": 120, "channel": 0}, {"type": "note_off", "time": 67, "note": 74, "velocity": 120, "channel": 0}, {"type": "note_on", "time": 12, "note": 72, "velocity": 121, "channel": 0}, {"type": "note_off", "time": 49, "note": 72, "velocity": 121, "channel": 0}, {"type": "note_on", "time": 90, "note": 69, "velocity": 91, "channel": 0}, {"type": "note_off", "time": 49, "note": 69, "velocity": 91, "channel": 0}, {"type": "note_on", "time": 7, "note": 72, "velocity": 127, "channel": 0}, {"type": "note_off", "time": 82, "note": 72, "velocity": 127, "channel": 0}, {"type": "note_on", "time": 106, "note": 72, "velocity": 124, "channel": 0}, {"type": "note_off", "time": 77, "note": 72, "velocity": 124, "channel": 0}, {"type": "note_on", "time": 122, "note": 72, "velocity": 117, "channel": 0}, {"type": "note_off", "time": 137, "note": 72, "velocity": 117, "channel": 0}, {"type": "note_on", "time": 218, "note": 77, "velocity": 118, "channel": 0}, {"type": "note_off", "time": 86, "note": 77, "velocity": 118, "channel": 0}, {"type": "note_on", "time": 7, "note": 73, "velocity": 108, "channel": 0}, {"type": "note_off", "time": 38, "note": 73, "velocity": 108, "channel": 0}, {"type": "note_on", "time": 1, "note": 76, "velocity": 110, "channel": 0}, {"type": "note_off", "time": 86, "note": 76, "velocity": 110, "channel": 0}, {"type": "note_on", "time": 1, "note": 74, "velocity": 117, "channel": 0}, {"type": "note_off", "time": 74, "note": 74, "velocity": 117, "channel": 0}, {"type": "note_on", "time": 5, "note": 68, "velocity": 96, "channel": 0}, {"type": "note_off", "time": 18, "note": 68, "velocity": 96, "channel": 0}, {"type": "note_on", "time": 5, "note": 70, "velocity": 93, "channel": 0}, {"type": "note_off", "time": 33, "note": 70, "velocity": 93, "channel": 0}, {"type": "note_on", "time": 3, "note": 72, "velocity": 112, "channel": 0}, {"type": "note_off", "time": 34, "note": 72, "velocity": 112, "channel": 0}, {"type": "note_on", "time": 6, "note": 72, "velocity": 115, "channel": 0}, {"type": "note_off", "time": 71, "note": 72, "velocity": 115, "channel": 0}, {"type": "note_on", "time": 11, "note": 72, "velocity": 113, "channel": 0}, {"type": "note_off", "time": 49, "note": 72, "velocity": 113, "channel": 0}, {"type": "note_on", "time": 6, "note": 73, "velocity": 120, "channel": 0}, {"type": "note_off", "time": 28, "note": 73, "velocity": 120, "channel": 0}, {"type": "note_on", "time": 4, "note": 74, "velocity": 121, "channel": 0}, {"type": "note_off", "time": 26, "note": 74, "velocity": 121, "channel": 0}, {"type": "note_on", "time": 10, "note": 73, "velocity": 116, "channel": 0}, {"type": "note_off", "time": 47, "note": 73, "velocity": 116, "channel": 0}, {"type": "note_on", "time": 13, "note": 70, "velocity": 84, "channel": 0}, {"type": "note_off", "time": 30, "note": 70, "velocity": 84, "channel": 0}, {"type": "note_on", "time": 0, "note": 66, "velocity": 97, "channel": 0}, {"type": "note_off", "time": 90, "note": 66, "velocity": 97, "channel": 0}, {"type": "note_on", "time": 7, "note": 65, "velocity": 102, "channel": 0}, {"type": "note_off", "time": 82, "note": 65, "velocity": 102, "channel": 0}, {"type": "note_on", "time": 7, "note": 65, "velocity": 106, "channel": 0}, {"type": "note_off", "time": 167, "note": 65, "velocity": 106, "channel": 0}, {"type": "note_on", "time": 12, "note": 64, "velocity": 97, "channel": 0}, {"type": "note_off", "time": 71, "note": 64, "velocity": 97, "channel": 0}, {"type": "note_on", "time": 1, "note": 69, "velocity": 113, "channel": 0}, {"type": "note_off", "time": 106, "note": 69, "velocity": 113, "channel": 0}, {"type": "note_on", "time": 14, "note": 69, "velocity": 116, "channel": 0}, {"type": "note_off", "time": 42, "note": 69, "velocity": 116, "channel": 0}, {"type": "note_on", "time": 16, "note": 69, "velocity": 118, "channel": 0}, {"type": "note_off", "time": 93, "note": 69, "velocity": 118, "channel": 0}, {"type": "note_on", "time": 23, "note": 69, "velocity": 116, "channel": 0}, {"type": "note_off", "time": 49, "note": 69, "velocity": 116, "channel": 0}, {"type": "note_on", "time": 33, "note": 67, "velocity": 111, "channel": 0}, {"type": "note_off", "time": 66, "note": 67, "velocity": 111, "channel": 0}, {"type": "note_on", "time": 112, "note": 66, "velocity": 109, "channel": 0}, {"type": "note_on", "time": 20, "note": 67, "velocity": 109, "channel": 0}, {"type": "note_off", "time": 0, "note": 66, "velocity": 109, "channel": 0}, {"type": "note_off", "time": 97, "note": 67, "velocity": 109, "channel": 0}, {"type": "note_on", "time": 71, "note": 66, "velocity": 113, "channel": 0}, {"type": "note_on", "time": 14, "note": 67, "velocity": 110, "channel": 0}, {"type": "note_off", "time": 0, "note": 66, "velocity": 113, "channel": 0}, {"type": "note_off", "time": 161, "note": 67, "velocity": 110, "channel": 0}, {"type": "note_on", "time": 366, "note": 79, "velocity": 124, "channel": 0}, {"type": "note_off", "time": 82, "note": 79, "velocity": 124, "channel": 0}, {"type": "note_on", "time": 82, "note": 76, "velocity": 112, "channel": 0}, {"type": "note_off", "time": 77, "note": 76, "velocity": 112, "channel": 0}, {"type": "note_on", "time": 10, "note": 79, "velocity": 124, "channel": 0}, {"type": "note_off", "time": 98, "note": 79, "velocity": 124, "channel": 0}, {"type": "note_on", "time": 80, "note": 77, "velocity": 125, "channel": 0}, {"type": "note_off", "time": 93, "note": 77, "velocity": 125, "channel": 0}, {"type": "note_on", "time": 38, "note": 80, "velocity": 120, "channel": 0}, {"type": "note_off", "time": 106, "note": 80, "velocity": 120, "channel": 0}, {"type": "note_on", "time": 74, "note": 80, "velocity": 123, "channel": 0}, {"type": "note_off", "time": 64, "note": 80, "velocity": 123, "channel": 0}, {"type": "note_on", "time": 16, "note": 76, "velocity": 118, "channel": 0}, {"type": "note_off", "time": 93, "note": 76, "velocity": 118, "channel": 0}, {"type": "note_on", "time": 94, "note": 74, "velocity": 102, "channel": 0}, {"type": "note_off", "time": 320, "note": 74, "velocity": 102, "channel": 0}, {"type": "note_on", "time": 2, "note": 71, "velocity": 118, "channel": 0}, {"type": "note_off", "time": 72, "note": 71, "velocity": 118, "channel": 0}, {"type": "note_on", "time": 12, "note": 68, "velocity": 113, "channel": 0}, {"type": "note_off", "time": 87, "note": 68, "velocity": 113, "channel": 0}, {"type": "note_on", "time": 3, "note": 64, "velocity": 112, "channel": 0}, {"type": "note_off", "time": 72, "note": 64, "velocity": 112, "channel": 0}, {"type": "note_on", "time": 11, "note": 62, "velocity": 105, "channel": 0}, {"type": "note_off", "time": 95, "note": 62, "velocity": 105, "channel": 0}, {"type": "note_on", "time": 95, "note": 62, "velocity": 92, "channel": 0}, {"type": "note_off", "time": 204, "note": 62, "velocity": 92, "channel": 0}, {"type": "note_on", "time": 183, "note": 76, "velocity": 116, "channel": 0}, {"type": "note_off", "time": 113, "note": 76, "velocity": 116, "channel": 0}, {"type": "note_on", "time": 12, "note": 81, "velocity": 116, "channel": 0}, {"type": "note_off", "time": 129, "note": 81, "velocity": 116, "channel": 0}, {"type": "note_on", "time": 49, "note": 76, "velocity": 114, "channel": 0}, {"type": "note_off", "time": 72, "note": 76, "velocity": 114, "channel": 0}, {"type": "note_on", "time": 5, "note": 81, "velocity": 112, "channel": 0}, {"type": "note_off", "time": 191, "note": 81, "velocity": 112, "channel": 0}, {"type": "note_on", "time": 111, "note": 76, "velocity": 106, "channel": 0}, {"type": "note_off", "time": 59, "note": 76, "velocity": 106, "channel": 0}, {"type": "note_on", "time": 15, "note": 81, "velocity": 115, "channel": 0}, {"type": "note_off", "time": 103, "note": 81, "velocity": 115, "channel": 0}, {"type": "note_on", "time": 14, "note": 75, "velocity": 110, "channel": 0}, {"type": "note_off", "time": 66, "note": 75, "velocity": 110, "channel": 0}, {"type": "note_on", "time": 7, "note": 76, "velocity": 120, "channel": 0}, {"type": "note_off", "time": 122, "note": 76, "velocity": 120, "channel": 0}, {"type": "note_on", "time": 6, "note": 74, "velocity": 113, "channel": 0}, {"type": "note_off", "time": 82, "note": 74, "velocity": 113, "channel": 0}, {"type": "note_on", "time": 80, "note": 72, "velocity": 120, "channel": 0}, {"type": "note_off", "time": 81, "note": 72, "velocity": 120, "channel": 0}, {"type": "note_on", "time": 4, "note": 73, "velocity": 123, "channel": 0}, {"type": "note_off", "time": 91, "note": 73, "velocity": 123, "channel": 0}, {"type": "note_on", "time": 6, "note": 74, "velocity": 114, "channel": 0}, {"type": "note_off", "time": 74, "note": 74, "velocity": 114, "channel": 0}, {"type": "note_on", "time": 128, "note": 69, "velocity": 114, "channel": 0}, {"type": "note_off", "time": 80, "note": 69, "velocity": 114, "channel": 0}, {"type": "note_on", "time": 8, "note": 70, "velocity": 115, "channel": 0}, {"type": "note_off", "time": 104, "note": 70, "velocity": 115, "channel": 0}, {"type": "note_on", "time": 9, "note": 66, "velocity": 103, "channel": 0}, {"type": "note_off", "time": 72, "note": 66, "velocity": 103, "channel": 0}, {"type": "note_on", "time": 0, "note": 69, "velocity": 119, "channel": 0}, {"type": "note_off", "time": 111, "note": 69, "velocity": 119, "channel": 0}, {"type": "note_on", "time": 9, "note": 67, "velocity": 108, "channel": 0}, {"type": "note_off", "time": 48, "note": 67, "velocity": 108, "channel": 0}, {"type": "note_on", "time": 73, "note": 62, "velocity": 81, "channel": 0}, {"type": "note_off", "time": 56, "note": 62, "velocity": 81, "channel": 0}, {"type": "note_on", "time": 2, "note": 63, "velocity": 97, "channel": 0}, {"type": "note_off", "time": 74, "note": 63, "velocity": 97, "channel": 0}, {"type": "note_on", "time": 2, "note": 64, "velocity": 110, "channel": 0}, {"type": "note_off", "time": 85, "note": 64, "velocity": 110, "channel": 0}, {"type": "note_on", "time": 277, "note": 72, "velocity": 93, "channel": 0}, {"type": "note_off", "time": 32, "note": 72, "velocity": 93, "channel": 0}, {"type": "note_on", "time": 7, "note": 76, "velocity": 120, "channel": 0}, {"type": "note_off", "time": 297, "note": 76, "velocity": 120, "channel": 0}, {"type": "note_on", "time": 3, "note": 73, "velocity": 113, "channel": 0}, {"type": "note_off", "time": 76, "note": 73, "velocity": 113, "channel": 0}, {"type": "note_on", "time": 6, "note": 72, "velocity": 124, "channel": 0}, {"type": "note_off", "time": 66, "note": 72, "velocity": 124, "channel": 0}, {"type": "note_on", "time": 51, "note": 72, "velocity": 118, "channel": 0}, {"type": "note_off", "time": 69, "note": 72, "velocity": 118, "channel": 0}, {"type": "note_on", "time": 1, "note": 69, "velocity": 118, "channel": 0}, {"type": "note_off", "time": 84, "note": 69, "velocity": 118, "channel": 0}, {"type": "note_on", "time": 99, "note": 69, "velocity": 119, "channel": 0}, {"type": "note_off", "time": 93, "note": 69, "velocity": 119, "channel": 0}, {"type": "note_on", "time": 91, "note": 71, "velocity": 80, "channel": 0}, {"type": "note_off", "time": 27, "note": 71, "velocity": 80, "channel": 0}, {"type": "note_on", "time": 5, "note": 72, "velocity": 116, "channel": 0}, {"type": "note_off", "time": 90, "note": 72, "velocity": 116, "channel": 0}, {"type": "note_on", "time": 84, "note": 67, "velocity": 118, "channel": 0}, {"type": "note_off", "time": 102, "note": 67, "velocity": 118, "channel": 0}, {"type": "note_on", "time": 215, "note": 68, "velocity": 109, "channel": 0}, {"type": "note_off", "time": 53, "note": 68, "velocity": 109, "channel": 0}, {"type": "note_on", "time": 36, "note": 76, "velocity": 112, "channel": 0}, {"type": "note_off", "time": 301, "note": 76, "velocity": 112, "channel": 0}, {"type": "note_on", "time": 3, "note": 73, "velocity": 121, "channel": 0}, {"type": "note_off", "time": 68, "note": 73, "velocity": 121, "channel": 0}, {"type": "note_on", "time": 3, "note": 71, "velocity": 111, "channel": 0}, {"type": "note_off", "time": 75, "note": 71, "velocity": 111, "channel": 0}, {"type": "note_on", "time": 0, "note": 73, "velocity": 114, "channel": 0}, {"type": "note_off", "time": 53, "note": 73, "velocity": 114, "channel": 0}, {"type": "note_on", "time": 9, "note": 71, "velocity": 113, "channel": 0}, {"type": "note_off", "time": 42, "note": 71, "velocity": 113, "channel": 0}, {"type": "note_on", "time": 137, "note": 72, "velocity": 118, "channel": 0}, {"type": "note_off", "time": 86, "note": 72, "velocity": 118, "channel": 0}, {"type": "note_on", "time": 99, "note": 72, "velocity": 113, "channel": 0}, {"type": "note_off", "time": 68, "note": 72, "velocity": 113, "channel": 0}, {"type": "note_on", "time": 3, "note": 67, "velocity": 107, "channel": 0}, {"type": "note_off", "time": 77, "note": 67, "velocity": 107, "channel": 0}, {"type": "note_on", "time": 121, "note": 64, "velocity": 110, "channel": 0}, {"type": "note_off", "time": 69, "note": 64, "velocity": 110, "channel": 0}, {"type": "note_on", "time": 226, "note": 74, "velocity": 119, "channel": 0}, {"type": "note_off", "time": 77, "note": 74, "velocity": 119, "channel": 0}, {"type": "note_on", "time": 145, "note": 74, "velocity": 118, "channel": 0}, {"type": "note_off", "time": 97, "note": 74, "velocity": 118, "channel": 0}, {"type": "note_on", "time": 75, "note": 72, "velocity": 117, "channel": 0}, {"type": "note_off", "time": 77, "note": 72, "velocity": 117, "channel": 0}, {"type": "note_on", "time": 16, "note": 74, "velocity": 120, "channel": 0}, {"type": "note_off", "time": 64, "note": 74, "velocity": 120, "channel": 0}, {"type": "note_on", "time": 44, "note": 72, "velocity": 115, "channel": 0}, {"type": "note_off", "time": 58, "note": 72, "velocity": 115, "channel": 0}, {"type": "note_on", "time": 12, "note": 74, "velocity": 116, "channel": 0}, {"type": "note_off", "time": 121, "note": 74, "velocity": 116, "channel": 0}, {"type": "note_on", "time": 88, "note": 74, "velocity": 119, "channel": 0}, {"type": "note_off", "time": 88, "note": 74, "velocity": 119, "channel": 0}, {"type": "note_on", "time": 84, "note": 71, "velocity": 122, "channel": 0}, {"type": "note_off", "time": 95, "note": 71, "velocity": 122, "channel": 0}, {"type": "note_on", "time": 117, "note": 72, "velocity": 108, "channel": 0}, {"type": "note_off", "time": 172, "note": 72, "velocity": 108, "channel": 0}, {"type": "note_on", "time": 150, "note": 74, "velocity": 120, "channel": 0}, {"type": "note_off", "time": 88, "note": 74, "velocity": 120, "channel": 0}, {"type": "note_on", "time": 115, "note": 74, "velocity": 112, "channel": 0}, {"type": "note_off", "time": 101, "note": 74, "velocity": 112, "channel": 0}, {"type": "note_on", "time": 82, "note": 72, "velocity": 115, "channel": 0}, {"type": "note_off", "time": 62, "note": 72, "velocity": 115, "channel": 0}, {"type": "note_on", "time": 7, "note": 74, "velocity": 113, "channel": 0}, {"type": "note_off", "time": 93, "note": 74, "velocity": 113, "channel": 0}, {"type": "note_on", "time": 29, "note": 72, "velocity": 115, "channel": 0}, {"type": "note_off", "time": 86, "note": 72, "velocity": 115, "channel": 0}, {"type": "note_on", "time": 3, "note": 69, "velocity": 109, "channel": 0}, {"type": "note_off", "time": 84, "note": 69, "velocity": 109, "channel": 0}, {"type": "note_on", "time": 47, "note": 74, "velocity": 118, "channel": 0}, {"type": "note_off", "time": 88, "note": 74, "velocity": 118, "channel": 0}, {"type": "note_on", "time": 86, "note": 72, "velocity": 119, "channel": 0}, {"type": "note_off", "time": 66, "note": 72, "velocity": 119, "channel": 0}, {"type": "note_on", "time": 14, "note": 69, "velocity": 114, "channel": 0}, {"type": "note_off", "time": 71, "note": 69, "velocity": 114, "channel": 0}, {"type": "note_on", "time": 60, "note": 72, "velocity": 117, "channel": 0}, {"type": "note_off", "time": 97, "note": 72, "velocity": 117, "channel": 0}, {"type": "note_on", "time": 66, "note": 72, "velocity": 120, "channel": 0}, {"type": "note_off", "time": 75, "note": 72, "velocity": 120, "channel": 0}, {"type": "note_on", "time": 7, "note": 75, "velocity": 104, "channel": 0}, {"type": "note_off", "time": 53, "note": 75, "velocity": 104, "channel": 0}, {"type": "note_on", "time": 158, "note": 76, "velocity": 115, "channel": 0}, {"type": "note_off", "time": 84, "note": 76, "velocity": 115, "channel": 0}, {"type": "note_on", "time": 20, "note": 74, "velocity": 118, "channel": 0}, {"type": "note_off", "time": 108, "note": 74, "velocity": 118, "channel": 0}, {"type": "note_on", "time": 93, "note": 72, "velocity": 108, "channel": 0}, {"type": "note_off", "time": 49, "note": 72, "velocity": 108, "channel": 0}, {"type": "note_on", "time": 22, "note": 76, "velocity": 115, "channel": 0}, {"type": "note_off", "time": 66, "note": 76, "velocity": 115, "channel": 0}, {"type": "note_on", "time": 45, "note": 72, "velocity": 120, "channel": 0}, {"type": "note_off", "time": 62, "note": 72, "velocity": 120, "channel": 0}, {"type": "note_on", "time": 18, "note": 69, "velocity": 117, "channel": 0}, {"type": "note_off", "time": 95, "note": 69, "velocity": 117, "channel": 0}, {"type": "note_on", "time": 42, "note": 74, "velocity": 119, "channel": 0}, {"type": "note_off", "time": 95, "note": 74, "velocity": 119, "channel": 0}, {"type": "note_on", "time": 55, "note": 72, "velocity": 120, "channel": 0}, {"type": "note_off", "time": 91, "note": 72, "velocity": 120, "channel": 0}, {"type": "note_on", "time": 9, "note": 76, "velocity": 117, "channel": 0}, {"type": "note_off", "time": 82, "note": 76, "velocity": 117, "channel": 0}, {"type": "note_on", "time": 77, "note": 72, "velocity": 122, "channel": 0}, {"type": "note_off", "time": 66, "note": 72, "velocity": 122, "channel": 0}, {"type": "note_on", "time": 80, "note": 72, "velocity": 104, "channel": 0}, {"type": "note_off", "time": 262, "note": 72, "velocity": 104, "channel": 0}, {"type": "note_on", "time": 3, "note": 69, "velocity": 112, "channel": 0}, {"type": "note_off", "time": 88, "note": 69, "velocity": 112, "channel": 0}, {"type": "note_on", "time": 12, "note": 67, "velocity": 90, "channel": 0}, {"type": "note_off", "time": 75, "note": 67, "velocity": 90, "channel": 0}, {"type": "end_of_track", "time": 0}]]}