{"ticks_per_beat": 192, "tracks": [[{"type": "track_name", "name": "Melody", "time": 0}, {"type": "set_tempo", "tempo": 422535, "time": 0}, {"type": "key_signature", "key": "F", "time": 0}, {"type": "time_signature", "numerator": 4, "denominator": 4, "clocks_per_click": 24, "notated_32nd_notes_per_beat": 8, "time": 0}, {"type": "note_on", "time": 2076, "note": 67, "velocity": 108, "channel": 0}, {"type": "note_off", "time": 66, "note": 67, "velocity": 108, "channel": 0}, {"type": "note_on", "time": 0, "note": 69, "velocity": 117, "channel": 0}, {"type": "note_off", "time": 64, "note": 69, "velocity": 117, "channel": 0}, {"type": "note_on", "time": 127, "note": 69, "velocity": 111, "channel": 0}, {"type": "note_off", "time": 87, "note": 69, "velocity": 111, "channel": 0}, {"type": "note_on", "time": 94, "note": 69, "velocity": 91, "channel": 0}, {"type": "note_off", "time": 178, "note": 69, "velocity": 91, "channel": 0}, {"type": "note_on", "time": 280, "note": 72, "velocity": 115, "channel": 0}, {"type": "note_off", "time": 59, "note": 72, "velocity": 115, "channel": 0}, {"type": "note_on", "time": 12, "note": 74, "velocity": 116, "channel": 0}, {"type": "note_off", "time": 69, "note": 74, "velocity": 116, "channel": 0}, {"type": "note_on", "time": 41, "note": 76, "velocity": 114, "channel": 0}, {"type": "note_off", "time": 70, "note": 76, "velocity": 114, "channel": 0}, {"type": "note_on", "time": 3, "note": 74, "velocity": 114, "channel": 0}, {"type": "note_off", "time": 53, "note": 74, "velocity": 114, "channel": 0}, {"type": "note_on", "time": 44, "note": 72, "velocity": 118, "channel": 0}, {"type": "note_off", "time": 63, "note": 72, "velocity": 118, "channel": 0}, {"type": "note_on", "time": 0, "note": 67, "velocity": 104, "channel": 0}, {"type": "note_off", "time": 68, "note": 67, "velocity": 104, "channel": 0}, {"type": "note_on", "time": 53, "note": 68, "velocity": 115, "channel": 0}, {"type": "note_off", "time": 65, "note": 68, "velocity": 115, "channel": 0}, {"type": "note_on", "time": 6, "note": 69, "velocity": 117, "channel": 0}, {"type": "note_off", "time": 50, "note": 69, "velocity": 117, "channel": 0}, {"type": "note_on", "time": 2, "note": 72, "velocity": 109, "channel": 0}, {"type": "note_off", "time": 55, "note": 72, "velocity": 109, "channel": 0}, {"type": "note_on", "time": 5, "note": 69, "velocity": 95, "channel": 0}, {"type": "note_off", "time": 48, "note": 69, "velocity": 95, "channel": 0}, {"type": "note_on", "time": 2, "note": 72, "velocity": 116, "channel": 0}, {"type": "note_off", "time": 63, "note": 72, "velocity": 116, "channel": 0}, {"type": "note_on", "time": 57, "note": 69, "velocity": 90, "channel": 0}, {"type": "note_off", "time": 239, "note": 69, "velocity": 90, "channel": 0}, {"type": "note_on", "time": 290, "note": 76, "velocity": 102, "channel": 0}, {"type": "note_off", "time": 204, "note": 76, "velocity": 102, "channel": 0}, {"type": "note_on", "time": 26, "note": 74, "velocity": 114, "channel": 0}, {"type": "note_off", "time": 43, "note": 74, "velocity": 114, "channel": 0}, {"type": "note_on", "time": 71, "note": 72, "velocity": 112, "channel": 0}, {"type": "note_off", "time": 75, "note": 72, "velocity": 112, "channel": 0}, {"type": "note_on", "time": 5, "note": 67, "velocity": 109, "channel": 0}, {"type": "note_off", "time": 63, "note": 67, "velocity": 109, "channel": 0}, {"type": "note_on", "time": 51, "note": 68, "velocity": 114, "channel": 0}, {"type": "note_off", "time": 53, "note": 68, "velocity": 114, "channel": 0}, {"type": "note_on", "time": 1, "note": 69, "velocity": 109, "channel": 0}, {"type": "note_off", "time": 133, "note": 69, "velocity": 109, "channel": 0}, {"type": "note_on", "time": 43, "note": 64, "velocity": 112, "channel": 0}, {"type": "note_off", "time": 65, "note": 64, "velocity": 112, "channel": 0}, {"type": "note_on", "time": 55, "note": 67, "velocity": 111, "channel": 0}, {"type": "note_off", "time": 57, "note": 67, "velocity": 111, "channel": 0}, {"type": "note_on", "time": 6, "note": 64, "velocity": 112, "channel": 0}, {"type": "note_off", "time": 55, "note": 64, "velocity": 112, "channel": 0}, {"type": "note_on", "time": 7, "note": 57, "velocity": 83, "channel": 0}, {"type": "note_off", "time": 43, "note": 57, "velocity": 83, "channel": 0}, {"type": "note_on", "time": 28, "note": 62, "velocity": 103, "channel": 0}, {"type": "note_off", "time": 58, "note": 62, "velocity": 103, "channel": 0}, {"type": "note_on", "time": 88, "note": 61, "velocity": 100, "channel": 0}, {"type": "note_off", "time": 58, "note": 61, "velocity": 100, "channel": 0}, {"type": "note_on", "time": 14, "note": 60, "velocity": 88, "channel": 0}, {"type": "note_off", "time": 163, "note": 60, "velocity": 88, "channel": 0}, {"type": "note_on", "time": 216, "note": 69, "velocity": 119, "channel": 0}, {"type": "note_off", "time": 61, "note": 69, "velocity": 119, "channel": 0}, {"type": "note_on", "time": 38, "note": 70, "velocity": 120, "channel": 0}, {"type": "note_off", "time": 66, "note": 70, "velocity": 120, "channel": 0}, {"type": "note_on", "time": 3, "note": 69, "velocity": 116, "channel": 0}, {"type": "note_off", "time": 78, "note": 69, "velocity": 116, "channel": 0}, {"type": "note_on", "time": 28, "note": 76, "velocity": 117, "channel": 0}, {"type": "note_off", "time": 70, "note": 76, "velocity": 117, "channel": 0}, {"type": "note_on", "time": 2, "note": 74, "velocity": 115, "channel": 0}, {"type": "note_off", "time": 67, "note": 74, "velocity": 115, "channel": 0}, {"type": "note_on", "time": 0, "note": 71, "velocity": 114, "channel": 0}, {"type": "note_off", "time": 59, "note": 71, "velocity": 114, "channel": 0}, {"type": "note_on", "time": 3, "note": 67, "velocity": 114, "channel": 0}, {"type": "note_off", "time": 44, "note": 67, "velocity": 114, "channel": 0}, {"type": "note_on", "time": 4, "note": 65, "velocity": 109, "channel": 0}, {"type": "note_off", "time": 77, "note": 65, "velocity": 109, "channel": 0}, {"type": "note_on", "time": 1, "note": 62, "velocity": 106, "channel": 0}, {"type": "note_off", "time": 38, "note": 62, "velocity": 106, "channel": 0}, {"type": "note_on", "time": 3, "note": 65, "velocity": 113, "channel": 0}, {"type": "note_off", "time": 61, "note": 65, "velocity": 113, "channel": 0}, {"type": "note_on", "time": 3, "note": 62, "velocity": 105, "channel": 0}, {"type": "note_off", "time": 52, "note": 62, "velocity": 105, "channel": 0}, {"type": "note_on", "time": 2, "note": 59, "velocity": 92, "channel": 0}, {"type": "note_off", "time": 72, "note": 59, "velocity": 92, "channel": 0}, {"type": "note_on", "time": 1, "note": 62, "velocity": 104, "channel": 0}, {"type": "note_off", "time": 46, "note": 62, "velocity": 104, "channel": 0}, {"type": "note_on", "time": 6, "note": 65, "velocity": 113, "channel": 0}, {"type": "note_off", "time": 71, "note": 65, "velocity": 113, "channel": 0}, {"type": "note_on", "time": 40, "note": 71, "velocity": 117, "channel": 0}, {"type": "note_off", "time": 64, "note": 71, "velocity": 117, "channel": 0}, {"type": "note_on", "time": 1, "note": 70, "velocity": 95, "channel": 0}, {"type": "note_off", "time": 179, "note": 70, "velocity": 95, "channel": 0}, {"type": "note_on", "time": 28, "note": 62, "velocity": 104, "channel": 0}, {"type": "note_off", "time": 67, "note": 62, "velocity": 104, "channel": 0}, {"type": "note_on", "time": 27, "note": 63, "velocity": 109, "channel": 0}, {"type": "note_off", "time": 56, "note": 63, "velocity": 109, "channel": 0}, {"type": "note_on", "time": 5, "note": 64, "velocity": 108, "channel": 0}, {"type": "note_off", "time": 53, "note": 64, "velocity": 108, "channel": 0}, {"type": "note_on", "time": 0, "note": 72, "velocity": 110, "channel": 0}, {"type": "note_off", "time": 95, "note": 72, "velocity": 110, "channel": 0}, {"type": "note_on", "time": 226, "note": 69, "velocity": 120, "channel": 0}, {"type": "note_off", "time": 48, "note": 69, "velocity": 120, "channel": 0}, {"type": "note_on", "time": 66, "note": 69, "velocity": 116, "channel": 0}, {"type": "note_off", "time": 65, "note": 69, "velocity": 116, "channel": 0}, {"type": "note_on", "time": 115, "note": 65, "velocity": 112, "channel": 0}, {"type": "note_off", "time": 58, "note": 65, "velocity": 112, "channel": 0}, {"type": "note_on", "time": 6, "note": 60, "velocity": 103, "channel": 0}, {"type": "note_off", "time": 64, "note": 60, "velocity": 103, "channel": 0}, {"type": "note_on", "time": 3, "note": 57, "velocity": 92, "channel": 0}, {"type": "note_off", "time": 91, "note": 57, "velocity": 92, "channel": 0}, {"type": "note_on", "time": 323, "note": 72, "velocity": 119, "channel": 0}, {"type": "note_off", "time": 67, "note": 72, "velocity": 119, "channel": 0}, {"type": "note_on", "time": 75, "note": 71, "velocity": 113, "channel": 0}, {"type": "note_off", "time": 52, "note": 71, "velocity": 113, "channel": 0}, {"type": "note_on", "time": 3, "note": 72, "velocity": 102, "channel": 0}, {"type": "note_off", "time": 47, "note": 72, "velocity": 102, "channel": 0}, {"type": "note_on", "time": 8, "note": 73, "velocity": 120, "channel": 0}, {"type": "note_off", "time": 70, "note": 73, "velocity": 120, "channel": 0}, {"type": "note_on", "time": 31, "note": 74, "velocity": 117, "channel": 0}, {"type": "note_off", "time": 67, "note": 74, "velocity": 117, "channel": 0}, {"type": "note_on", "time": 4, "note": 75, "velocity": 119, "channel": 0}, {"type": "note_off", "time": 80, "note": 75, "velocity": 119, "channel": 0}, {"type": "note_on", "time": 35, "note": 76, "velocity": 121, "channel": 0}, {"type": "note_off", "time": 69, "note": 76, "velocity": 121, "channel": 0}, {"type": "note_on", "time": 2, "note": 77, "velocity": 123, "channel": 0}, {"type": "note_off", "time": 50, "note": 77, "velocity": 123, "channel": 0}, {"type": "note_on", "time": 126, "note": 77, "velocity": 122, "channel": 0}, {"type": "note_off", "time": 63, "note": 77, "velocity": 122, "channel": 0}, {"type": "note_on", "time": 131, "note": 77, "velocity": 117, "channel": 0}, {"type": "note_off", "time": 195, "note": 77, "velocity": 117, "channel": 0}, {"type": "note_on", "time": 296, "note": 81, "velocity": 110, "channel": 0}, {"type": "note_off", "time": 250, "note": 81, "velocity": 110, "channel": 0}, {"type": "note_on", "time": 10, "note": 79, "velocity": 125, "channel": 0}, {"type": "note_off", "time": 81, "note": 79, "velocity": 125, "channel": 0}, {"type": "note_on", "time": 29, "note": 77, "velocity": 123, "channel": 0}, {"type": "note_off", "time": 56, "note": 77, "velocity": 123, "channel": 0}, {"type": "note_on", "time": 12, "note": 74, "velocity": 113, "channel": 0}, {"type": "note_off", "time": 62, "note": 74, "velocity": 113, "channel": 0}, {"type": "note_on", "time": 60, "note": 69, "velocity": 108, "channel": 0}, {"type": "note_off", "time": 60, "note": 69, "velocity": 108, "channel": 0}, {"type": "note_on", "time": 1, "note": 72, "velocity": 109, "channel": 0}, {"type": "note_off", "time": 54, "note": 72, "velocity": 109, "channel": 0}, {"type": "note_on", "time": 125, "note": 72, "velocity": 118, "channel": 0}, {"type": "note_off", "time": 61, "note": 72, "velocity": 118, "channel": 0}, {"type": "note_on", "time": 57, "note": 72, "velocity": 88, "channel": 0}, {"type": "note_off", "time": 278, "note": 72, "velocity": 88, "channel": 0}, {"type": "note_on", "time": 293, "note": 74, "velocity": 102, "channel": 0}, {"type": "note_off", "time": 52, "note": 74, "velocity": 102, "channel": 0}, {"type": "note_on", "time": 11, "note": 74, "velocity": 117, "channel": 0}, {"type": "note_off", "time": 67, "note": 74, "velocity": 117, "channel": 0}, {"type": "note_on", "time": 120, "note": 74, "velocity": 98, "channel": 0}, {"type": "note_off", "time": 210, "note": 74, "velocity": 98, "channel": 0}, {"type": "note_on", "time": 151, "note": 72, "velocity": 114, "channel": 0}, {"type": "note_off", "time": 69, "note": 72, "velocity": 114, "channel": 0}, {"type": "note_on", "time": 3, "note": 77, "velocity": 112, "channel": 0}, {"type": "note_off", "time": 77, "note": 77, "velocity": 112, "channel": 0}, {"type": "note_on", "time": 52, "note": 77, "velocity": 117, "channel": 0}, {"type": "note_off", "time": 89, "note": 77, "velocity": 117, "channel": 0}, {"type": "note_on", "time": 58, "note": 72, "velocity": 80, "channel": 0}, {"type": "note_off", "time": 39, "note": 72, "velocity": 80, "channel": 0}, {"type": "note_on", "time": 11, "note": 77, "velocity": 118, "channel": 0}, {"type": "note_off", "time": 46, "note": 77, "velocity": 118, "channel": 0}, {"type": "note_on", "time": 10, "note": 77, "velocity": 113, "channel": 0}, {"type": "note_off", "time": 39, "note": 77, "velocity": 113, "channel": 0}, {"type": "note_on", "time": 9, "note": 77, "velocity": 119, "channel": 0}, {"type": "note_off", "time": 43, "note": 77, "velocity": 119, "channel": 0}, {"type": "note_on", "time": 30, "note": 77, "velocity": 115, "channel": 0}, {"type": "note_off", "time": 68, "note": 77, "velocity": 115, "channel": 0}, {"type": "note_on", "time": 15, "note": 74, "velocity": 97, "channel": 0}, {"type": "note_off", "time": 36, "note": 74, "velocity": 97, "channel": 0}, {"type": "note_on", "time": 3, "note": 80, "velocity": 115, "channel": 0}, {"type": "note_off", "time": 75, "note": 80, "velocity": 115, "channel": 0}, {"type": "note_on", "time": 3, "note": 79, "velocity": 126, "channel": 0}, {"type": "note_off", "time": 68, "note": 79, "velocity": 126, "channel": 0}, {"type": "note_on", "time": 2, "note": 77, "velocity": 121, "channel": 0}, {"type": "note_off", "time": 65, "note": 77, "velocity": 121, "channel": 0}, {"type": "note_on", "time": 1, "note": 74, "velocity": 116, "channel": 0}, {"type": "note_off", "time": 69, "note": 74, "velocity": 116, "channel": 0}, {"type": "note_on", "time": 1, "note": 72, "velocity": 119, "channel": 0}, {"type": "note_off", "time": 66, "note": 72, "velocity": 119, "channel": 0}, {"type": "note_on", "time": 42, "note": 71, "velocity": 115, "channel": 0}, {"type": "note_off", "time": 74, "note": 71, "velocity": 115, "channel": 0}, {"type": "note_on", "time": 3, "note": 70, "velocity": 113, "channel": 0}, {"type": "note_off", "time": 76, "note": 70, "velocity": 113, "channel": 0}, {"type": "note_on", "time": 30, "note": 74, "velocity": 101, "channel": 0}, {"type": "note_off", "time": 24, "note": 74, "velocity": 101, "channel": 0}, {"type": "note_on", "time": 0, "note": 77, "velocity": 118, "channel": 0}, {"type": "note_off", "time": 81, "note": 77, "velocity": 118, "channel": 0}, {"type": "note_on", "time": 90, "note": 70, "velocity": 118, "channel": 0}, {"type": "note_off", "time": 85, "note": 70, "velocity": 118, "channel": 0}, {"type": "note_on", "time": 0, "note": 69, "velocity": 121, "channel": 0}, {"type": "note_off", "time": 46, "note": 69, "velocity": 121, "channel": 0}, {"type": "note_on", "time": 73, "note": 72, "velocity": 116, "channel": 0}, {"type": "note_off", "time": 67, "note": 72, "velocity": 116, "channel": 0}, {"type": "note_on", "time": 11, "note": 65, "velocity": 102, "channel": 0}, {"type": "note_off", "time": 195, "note": 65, "velocity": 102, "channel": 0}, {"type": "note_on", "time": 5, "note": 69, "velocity": 120, "channel": 0}, {"type": "note_off", "time": 69, "note": 69, "velocity": 120, "channel": 0}, {"type": "note_on", "time": 108, "note": 62, "velocity": 106, "channel": 0}, {"type": "note_off", "time": 105, "note": 62, "velocity": 106, "channel": 0}, {"type": "note_on", "time": 98, "note": 62, "velocity": 88, "channel": 0}, {"type": "note_off", "time": 137, "note": 62, "velocity": 88, "channel": 0}, {"type": "note_on", "time": 212, "note": 77, "velocity": 115, "channel": 0}, {"type": "note_off", "time": 34, "note": 77, "velocity": 115, "channel": 0}, {"type": "note_on", "time": 0, "note": 76, "velocity": 122, "channel": 0}, {"type": "note_off", "time": 50, "note": 76, "velocity": 122, "channel": 0}, {"type": "note_on", "time": 79, "note": 74, "velocity": 114, "channel": 0}, {"type": "note_off", "time": 89, "note": 74, "velocity": 114, "channel": 0}, {"type": "note_on", "time": 3, "note": 72, "velocity": 122, "channel": 0}, {"type": "note_off", "time": 77, "note": 72, "velocity": 122, "channel": 0}, {"type": "note_on", "time": 48, "note": 73, "velocity": 120, "channel": 0}, {"type": "note_off", "time": 56, "note": 73, "velocity": 120, "channel": 0}, {"type": "note_on", "time": 1, "note": 74, "velocity": 117, "channel": 0}, {"type": "note_off", "time": 74, "note": 74, "velocity": 117, "channel": 0}, {"type": "note_on", "time": 3, "note": 68, "velocity": 99, "channel": 0}, {"type": "note_off", "time": 45, "note": 68, "velocity": 99, "channel": 0}, {"type": "note_on", "time": 0, "note": 69, "velocity": 120, "channel": 0}, {"type": "note_off", "time": 64, "note": 69, "velocity": 120, "channel": 0}, {"type": "note_on", "time": 4, "note": 65, "velocity": 112, "channel": 0}, {"type": "note_off", "time": 44, "note": 65, "velocity": 112, "channel": 0}, {"type": "note_on", "time": 2, "note": 66, "velocity": 112, "channel": 0}, {"type": "note_off", "time": 71, "note": 66, "velocity": 112, "channel": 0}, {"type": "note_on", "time": 21, "note": 62, "velocity": 105, "channel": 0}, {"type": "note_off", "time": 94, "note": 62, "velocity": 105, "channel": 0}, {"type": "note_on", "time": 79, "note": 61, "velocity": 104, "channel": 0}, {"type": "note_off", "time": 83, "note": 61, "velocity": 104, "channel": 0}, {"type": "note_on", "time": 2, "note": 60, "velocity": 109, "channel": 0}, {"type": "note_off", "time": 48, "note": 60, "velocity": 109, "channel": 0}, {"type": "note_on", "time": 163, "note": 59, "velocity": 92, "channel": 0}, {"type": "note_off", "time": 137, "note": 59, "velocity": 92, "channel": 0}, {"type": "note_on", "time": 43, "note": 65, "velocity": 114, "channel": 0}, {"type": "note_off", "time": 130, "note": 65, "velocity": 114, "channel": 0}, {"type": "note_on", "time": 5, "note": 63, "velocity": 94, "channel": 0}, {"type": "note_off", "time": 48, "note": 63, "velocity": 94, "channel": 0}, {"type": "note_on", "time": 1, "note": 64, "velocity": 85, "channel": 0}, {"type": "note_off", "time": 154, "note": 64, "velocity": 85, "channel": 0}, {"type": "note_on", "time": 176, "note": 72, "velocity": 115, "channel": 0}, {"type": "note_off", "time": 64, "note": 72, "velocity": 115, "channel": 0}, {"type": "note_on", "time": 0, "note": 74, "velocity": 115, "channel": 0}, {"type": "note_off", "time": 119, "note": 74, "velocity": 115, "channel": 0}, {"type": "note_on", "time": 1, "note": 68, "velocity": 93, "channel": 0}, {"type": "note_off", "time": 65, "note": 68, "velocity": 93, "channel": 0}, {"type": "note_on", "time": 3, "note": 69, "velocity": 117, "channel": 0}, {"type": "note_off", "time": 105, "note": 69, "velocity": 117, "channel": 0}, {"type": "note_on", "time": 84, "note": 65, "velocity": 93, "channel": 0}, {"type": "note_off", "time": 161, "note": 65, "velocity": 93, "channel": 0}, {"type": "note_on", "time": 179, "note": 77, "velocity": 122, "channel": 0}, {"type": "note_off", "time": 79, "note": 77, "velocity": 122, "channel": 0}, {"type": "note_on", "time": 89, "note": 77, "velocity": 112, "channel": 0}, {"type": "note_off", "time": 205, "note": 77, "velocity": 112, "channel": 0}, {"type": "note_on", "time": 75, "note": 74, "velocity": 115, "channel": 0}, {"type": "note_off", "time": 66, "note": 74, "velocity": 115, "channel": 0}, {"type": "note_on", "time": 54, "note": 69, "velocity": 119, "channel": 0}, {"type": "note_off", "time": 72, "note": 69, "velocity": 119, "channel": 0}, {"type": "note_on", "time": 0, "note": 70, "velocity": 115, "channel": 0}, {"type": "note_off", "time": 65, "note": 70, "velocity": 115, "channel": 0}, {"type": "note_on", "time": 67, "note": 69, "velocity": 121, "channel": 0}, {"type": "note_off", "time": 66, "note": 69, "velocity": 121, "channel": 0}, {"type": "note_on", "time": 7, "note": 59, "velocity": 86, "channel": 0}, {"type": "note_off", "time": 237, "note": 59, "velocity": 86, "channel": 0}, {"type": "note_on", "time": 4, "note": 62, "velocity": 110, "channel": 0}, {"type": "note_off", "time": 80, "note": 62, "velocity": 110, "channel": 0}, {"type": "note_on", "time": 19, "note": 65, "velocity": 111, "channel": 0}, {"type": "note_off", "time": 54, "note": 65, "velocity": 111, "channel": 0}, {"type": "note_on", "time": 2, "note": 69, "velocity": 120, "channel": 0}, {"type": "note_off", "time": 69, "note": 69, "velocity": 120, "channel": 0}, {"type": "note_on", "time": 50, "note": 69, "velocity": 122, "channel": 0}, {"type": "note_off", "time": 57, "note": 69, "velocity": 122, "channel": 0}, {"type": "note_on", "time": 6, "note": 69, "velocity": 102, "channel": 0}, {"type": "note_off", "time": 175, "note": 69, "velocity": 102, "channel": 0}, {"type": "note_on", "time": 208, "note": 57, "velocity": 103, "channel": 0}, {"type": "note_off", "time": 42, "note": 57, "velocity": 103, "channel": 0}, {"type": "note_on", "time": 5, "note": 60, "velocity": 101, "channel": 0}, {"type": "note_off", "time": 100, "note": 60, "velocity": 101, "channel": 0}, {"type": "note_on", "time": 4, "note": 64, "velocity": 108, "channel": 0}, {"type": "note_off", "time": 63, "note": 64, "velocity": 108, "channel": 0}, {"type": "note_on", "time": 6, "note": 69, "velocity": 119, "channel": 0}, {"type": "note_off", "time": 80, "note": 69, "velocity": 119, "channel": 0}, {"type": "note_on", "time": 37, "note": 69, "velocity": 119, "channel": 0}, {"type": "note_off", "time": 75, "note": 69, "velocity": 119, "channel": 0}, {"type": "note_on", "time": 6, "note": 69, "velocity": 105, "channel": 0}, {"type": "note_off", "time": 176, "note": 69, "velocity": 105, "channel": 0}, {"type": "note_on", "time": 11, "note": 65, "velocity": 110, "channel": 0}, {"type": "note_off", "time": 73, "note": 65, "velocity": 110, "channel": 0}, {"type": "note_on", "time": 68, "note": 65, "velocity": 110, "channel": 0}, {"type": "note_off", "time": 57, "note": 65, "velocity": 110, "channel": 0}, {"type": "note_on", "time": 163, "note": 67, "velocity": 88, "channel": 0}, {"type": "note_off", "time": 29, "note": 67, "velocity": 88, "channel": 0}, {"type": "note_on", "time": 1, "note": 69, "velocity": 118, "channel": 0}, {"type": "note_off", "time": 60, "note": 69, "velocity": 118, "channel": 0}, {"type": "note_on", "time": 60, "note": 76, "velocity": 127, "channel": 0}, {"type": "note_off", "time": 58, "note": 76, "velocity": 127, "channel": 0}, {"type": "note_on", "time": 11, "note": 74, "velocity": 116, "channel": 0}, {"type": "note_off", "time": 79, "note": 74, "velocity": 116, "channel": 0}, {"type": "note_on", "time": 54, "note": 62, "velocity": 87, "channel": 0}, {"type": "note_off", "time": 236, "note": 62, "velocity": 87, "channel": 0}, {"type": "note_on", "time": 218, "note": 72, "velocity": 118, "channel": 0}, {"type": "note_off", "time": 91, "note": 72, "velocity": 118, "channel": 0}, {"type": "note_on", "time": 41, "note": 74, "velocity": 107, "channel": 0}, {"type": "note_off", "time": 143, "note": 74, "velocity": 107, "channel": 0}, {"type": "note_on", "time": 48, "note": 72, "velocity": 118, "channel": 0}, {"type": "note_off", "time": 56, "note": 72, "velocity": 118, "channel": 0}, {"type": "note_on", "time": 15, "note": 77, "velocity": 122, "channel": 0}, {"type": "note_off", "time": 104, "note": 77, "velocity": 122, "channel": 0}, {"type": "note_on", "time": 112, "note": 77, "velocity": 124, "channel": 0}, {"type": "note_off", "time": 100, "note": 77, "velocity": 124, "channel": 0}, {"type": "note_on", "time": 79, "note": 77, "velocity": 100, "channel": 0}, {"type": "note_off", "time": 176, "note": 77, "velocity": 100, "channel": 0}, {"type": "note_on", "time": 370, "note": 81, "velocity": 111, "channel": 0}, {"type": "note_off", "time": 563, "note": 81, "velocity": 111, "channel": 0}, {"type": "note_on", "time": 15, "note": 79, "velocity": 122, "channel": 0}, {"type": "note_off", "time": 62, "note": 79, "velocity": 122, "channel": 0}, {"type": "note_on", "time": 8, "note": 77, "velocity": 124, "channel": 0}, {"type": "note_off", "time": 71, "note": 77, "velocity": 124, "channel": 0}, {"type": "note_on", "time": 52, "note": 74, "velocity": 120, "channel": 0}, {"type": "note_off", "time": 57, "note": 74, "velocity": 120, "channel": 0}, {"type": "note_on", "time": 15, "note": 68, "velocity": 117, "channel": 0}, {"type": "note_off", "time": 97, "note": 68, "velocity": 117, "channel": 0}, {"type": "note_on", "time": 40, "note": 69, "velocity": 113, "channel": 0}, {"type": "note_off", "time": 60, "note": 69, "velocity": 113, "channel": 0}, {"type": "note_on", "time": 8, "note": 76, "velocity": 125, "channel": 0}, {"type": "note_off", "time": 91, "note": 76, "velocity": 125, "channel": 0}, {"type": "note_on", "time": 100, "note": 74, "velocity": 119, "channel": 0}, {"type": "note_off", "time": 84, "note": 74, "velocity": 119, "channel": 0}, {"type": "note_on", "time": 45, "note": 62, "velocity": 98, "channel": 0}, {"type": "note_off", "time": 178, "note": 62, "velocity": 98, "channel": 0}, {"type": "note_on", "time": 109, "note": 68, "velocity": 121, "channel": 0}, {"type": "note_off", "time": 71, "note": 68, "velocity": 121, "channel": 0}, {"type": "note_on", "time": 43, "note": 69, "velocity": 123, "channel": 0}, {"type": "note_off", "time": 60, "note": 69, "velocity": 123, "channel": 0}, {"type": "note_on", "time": 3, "note": 72, "velocity": 123, "channel": 0}, {"type": "note_off", "time": 70, "note": 72, "velocity": 123, "channel": 0}, {"type": "note_on", "time": 2, "note": 69, "velocity": 109, "channel": 0}, {"type": "note_off", "time": 142, "note": 69, "velocity": 109, "channel": 0}, {"type": "note_on", "time": 334, "note": 79, "velocity": 88, "channel": 0}, {"type": "note_off", "time": 42, "note": 79, "velocity": 88, "channel": 0}, {"type": "note_on", "time": 27, "note": 81, "velocity": 93, "channel": 0}, {"type": "note_off", "time": 100, "note": 81, "velocity": 93, "channel": 0}, {"type": "note_on", "time": 2, "note": 79, "velocity": 122, "channel": 0}, {"type": "note_off", "time": 55, "note": 79, "velocity": 122, "channel": 0}, {"type": "note_on", "time": 125, "note": 77, "velocity": 120, "channel": 0}, {"type": "note_off", "time": 91, "note": 77, "velocity": 120, "channel": 0}, {"type": "note_on", "time": 0, "note": 74, "velocity": 119, "channel": 0}, {"type": "note_off", "time": 59, "note": 74, "velocity": 119, "channel": 0}, {"type": "note_on", "time": 137, "note": 77, "velocity": 108, "channel": 0}, {"type": "note_off", "time": 163, "note": 77, "velocity": 108, "channel": 0}, {"type": "note_on", "time": 39, "note": 73, "velocity": 121, "channel": 0}, {"type": "note_off", "time": 60, "note": 73, "velocity": 121, "channel": 0}, {"type": "note_on", "time": 68, "note": 74, "velocity": 115, "channel": 0}, {"type": "note_off", "time": 74, "note": 74, "velocity": 115, "channel": 0}, {"type": "note_on", "time": 0, "note": 72, "velocity": 113, "channel": 0}, {"type": "note_off", "time": 58, "note": 72, "velocity": 113, "channel": 0}, {"type": "note_on", "time": 53, "note": 70, "velocity": 120, "channel": 0}, {"type": "note_off", "time": 77, "note": 70, "velocity": 120, "channel": 0}, {"type": "note_on", "time": 1, "note": 67, "velocity": 108, "channel": 0}, {"type": "note_off", "time": 49, "note": 67, "velocity": 108, "channel": 0}, {"type": "note_on", "time": 146, "note": 68, "velocity": 105, "channel": 0}, {"type": "note_off", "time": 36, "note": 68, "velocity": 105, "channel": 0}, {"type": "note_on", "time": 0, "note": 70, "velocity": 119, "channel": 0}, {"type": "note_off", "time": 38, "note": 70, "velocity": 119, "channel": 0}, {"type": "note_on", "time": 166, "note": 58, "velocity": 92, "channel": 0}, {"type": "note_off", "time": 89, "note": 58, "velocity": 92, "channel": 0}, {"type": "note_on", "time": 6, "note": 62, "velocity": 110, "channel": 0}, {"type": "note_off", "time": 75, "note": 62, "velocity": 110, "channel": 0}, {"type": "note_on", "time": 1, "note": 65, "velocity": 114, "channel": 0}, {"type": "note_off", "time": 63, "note": 65, "velocity": 114, "channel": 0}, {"type": "note_on", "time": 79, "note": 58, "velocity": 82, "channel": 0}, {"type": "note_off", "time": 55, "note": 58, "velocity": 82, "channel": 0}, {"type": "note_on", "time": 4, "note": 62, "velocity": 99, "channel": 0}, {"type": "note_off", "time": 54, "note": 62, "velocity": 99, "channel": 0}, {"type": "note_on", "time": 64, "note": 65, "velocity": 104, "channel": 0}, {"type": "note_off", "time": 84, "note": 65, "velocity": 104, "channel": 0}, {"type": "note_on", "time": 0, "note": 70, "velocity": 118, "channel": 0}, {"type": "note_off", "time": 81, "note": 70, "velocity": 118, "channel": 0}, {"type": "note_on", "time": 3, "note": 66, "velocity": 95, "channel": 0}, {"type": "note_off", "time": 54, "note": 66, "velocity": 95, "channel": 0}, {"type": "note_on", "time": 0, "note": 70, "velocity": 118, "channel": 0}, {"type": "note_off", "time": 74, "note": 70, "velocity": 118, "channel": 0}, {"type": "note_on", "time": 0, "note": 66, "velocity": 98, "channel": 0}, {"type": "note_off", "time": 55, "note": 66, "velocity": 98, "channel": 0}, {"type": "note_on", "time": 3, "note": 70, "velocity": 114, "channel": 0}, {"type": "note_off", "time": 72, "note": 70, "velocity": 114, "channel": 0}, {"type": "note_on", "time": 0, "note": 66, "velocity": 97, "channel": 0}, {"type": "note_off", "time": 47, "note": 66, "velocity": 97, "channel": 0}, {"type": "note_on", "time": 1, "note": 70, "velocity": 10, "channel": 0}, {"type": "note_off", "time": 263, "note": 70, "velocity": 10, "channel": 0}, {"type": "end_of_track", "time": 0}]]}