{"ticks_per_beat": 192, "tracks": [[{"type": "track_name", "name": "Melody", "time": 0}, {"type": "set_tempo", "tempo": 303030, "time": 0}, {"type": "key_signature", "key": "G", "time": 0}, {"type": "time_signature", "numerator": 4, "denominator": 4, "clocks_per_click": 24, "notated_32nd_notes_per_beat": 8, "time": 0}, {"type": "note_on", "time": 2061, "note": 61, "velocity": 101, "channel": 0}, {"type": "note_off", "time": 30, "note": 61, "velocity": 101, "channel": 0}, {"type": "note_on", "time": 9, "note": 62, "velocity": 113, "channel": 0}, {"type": "note_off", "time": 53, "note": 62, "velocity": 113, "channel": 0}, {"type": "note_on", "time": 40, "note": 64, "velocity": 121, "channel": 0}, {"type": "note_off", "time": 91, "note": 64, "velocity": 121, "channel": 0}, {"type": "note_on", "time": 57, "note": 67, "velocity": 118, "channel": 0}, {"type": "note_off", "time": 69, "note": 67, "velocity": 118, "channel": 0}, {"type": "note_on", "time": 11, "note": 71, "velocity": 123, "channel": 0}, {"type": "note_off", "time": 117, "note": 71, "velocity": 123, "channel": 0}, {"type": "note_on", "time": 66, "note": 71, "velocity": 127, "channel": 0}, {"type": "note_off", "time": 110, "note": 71, "velocity": 127, "channel": 0}, {"type": "note_on", "time": 78, "note": 71, "velocity": 104, "channel": 0}, {"type": "note_off", "time": 238, "note": 71, "velocity": 104, "channel": 0}, {"type": "note_on", "time": 566, "note": 62, "velocity": 115, "channel": 0}, {"type": "note_off", "time": 80, "note": 62, "velocity": 115, "channel": 0}, {"type": "note_on", "time": 14, "note": 64, "velocity": 124, "channel": 0}, {"type": "note_off", "time": 84, "note": 64, "velocity": 124, "channel": 0}, {"type": "note_on", "time": 3, "note": 67, "velocity": 122, "channel": 0}, {"type": "note_off", "time": 102, "note": 67, "velocity": 122, "channel": 0}, {"type": "note_on", "time": 22, "note": 71, "velocity": 124, "channel": 0}, {"type": "note_off", "time": 95, "note": 71, "velocity": 124, "channel": 0}, {"type": "note_on", "time": 73, "note": 71, "velocity": 107, "channel": 0}, {"type": "note_off", "time": 176, "note": 71, "velocity": 107, "channel": 0}, {"type": "note_on", "time": 84, "note": 71, "velocity": 126, "channel": 0}, {"type": "note_off", "time": 99, "note": 71, "velocity": 126, "channel": 0}, {"type": "note_on", "time": 684, "note": 63, "velocity": 118, "channel": 0}, {"type": "note_off", "time": 125, "note": 63, "velocity": 118, "channel": 0}, {"type": "note_on", "time": 22, "note": 64, "velocity": 125, "channel": 0}, {"type": "note_off", "time": 88, "note": 64, "velocity": 125, "channel": 0}, {"type": "note_on", "time": 70, "note": 67, "velocity": 123, "channel": 0}, {"type": "note_off", "time": 66, "note": 67, "velocity": 123, "channel": 0}, {"type": "note_on", "time": 28, "note": 71, "velocity": 124, "channel": 0}, {"type": "note_off", "time": 88, "note": 71, "velocity": 124, "channel": 0}, {"type": "note_on", "time": 36, "note": 71, "velocity": 125, "channel": 0}, {"type": "note_off", "time": 69, "note": 71, "velocity": 125, "channel": 0}, {"type": "note_on", "time": 95, "note": 71, "velocity": 102, "channel": 0}, {"type": "note_off", "time": 220, "note": 71, "velocity": 102, "channel": 0}, {"type": "note_on", "time": 337, "note": 71, "velocity": 101, "channel": 0}, {"type": "note_off", "time": 36, "note": 71, "velocity": 101, "channel": 0}, {"type": "note_on", "time": 4, "note": 79, "velocity": 110, "channel": 0}, {"type": "note_off", "time": 212, "note": 79, "velocity": 110, "channel": 0}, {"type": "note_on", "time": 31, "note": 74, "velocity": 120, "channel": 0}, {"type": "note_off", "time": 100, "note": 74, "velocity": 120, "channel": 0}, {"type": "note_on", "time": 33, "note": 71, "velocity": 125, "channel": 0}, {"type": "note_off", "time": 85, "note": 71, "velocity": 125, "channel": 0}, {"type": "note_on", "time": 74, "note": 66, "velocity": 120, "channel": 0}, {"type": "note_off", "time": 74, "note": 66, "velocity": 120, "channel": 0}, {"type": "note_on", "time": 12, "note": 69, "velocity": 125, "channel": 0}, {"type": "note_off", "time": 100, "note": 69, "velocity": 125, "channel": 0}, {"type": "note_on", "time": 12, "note": 67, "velocity": 122, "channel": 0}, {"type": "note_off", "time": 49, "note": 67, "velocity": 122, "channel": 0}, {"type": "note_on", "time": 25, "note": 67, "velocity": 121, "channel": 0}, {"type": "note_off", "time": 108, "note": 67, "velocity": 121, "channel": 0}, {"type": "note_on", "time": 84, "note": 67, "velocity": 113, "channel": 0}, {"type": "note_off", "time": 170, "note": 67, "velocity": 113, "channel": 0}, {"type": "note_on", "time": 19, "note": 62, "velocity": 114, "channel": 0}, {"type": "note_off", "time": 131, "note": 62, "velocity": 114, "channel": 0}, {"type": "note_on", "time": 2, "note": 59, "velocity": 96, "channel": 0}, {"type": "note_off", "time": 56, "note": 59, "velocity": 96, "channel": 0}, {"type": "note_on", "time": 385, "note": 65, "velocity": 113, "channel": 0}, {"type": "note_off", "time": 36, "note": 65, "velocity": 113, "channel": 0}, {"type": "note_on", "time": 2, "note": 66, "velocity": 116, "channel": 0}, {"type": "note_off", "time": 59, "note": 66, "velocity": 116, "channel": 0}, {"type": "note_on", "time": 18, "note": 67, "velocity": 117, "channel": 0}, {"type": "note_off", "time": 59, "note": 67, "velocity": 117, "channel": 0}, {"type": "note_on", "time": 10, "note": 71, "velocity": 118, "channel": 0}, {"type": "note_off", "time": 106, "note": 71, "velocity": 118, "channel": 0}, {"type": "note_on", "time": 5, "note": 74, "velocity": 123, "channel": 0}, {"type": "note_off", "time": 72, "note": 74, "velocity": 123, "channel": 0}, {"type": "note_on", "time": 12, "note": 78, "velocity": 121, "channel": 0}, {"type": "note_off", "time": 116, "note": 78, "velocity": 121, "channel": 0}, {"type": "note_on", "time": 15, "note": 76, "velocity": 118, "channel": 0}, {"type": "note_off", "time": 222, "note": 76, "velocity": 118, "channel": 0}, {"type": "note_on", "time": 20, "note": 74, "velocity": 121, "channel": 0}, {"type": "note_off", "time": 77, "note": 74, "velocity": 121, "channel": 0}, {"type": "note_on", "time": 5, "note": 73, "velocity": 114, "channel": 0}, {"type": "note_off", "time": 59, "note": 73, "velocity": 114, "channel": 0}, {"type": "note_on", "time": 10, "note": 72, "velocity": 121, "channel": 0}, {"type": "note_off", "time": 49, "note": 72, "velocity": 121, "channel": 0}, {"type": "note_on", "time": 15, "note": 71, "velocity": 119, "channel": 0}, {"type": "note_off", "time": 103, "note": 71, "velocity": 119, "channel": 0}, {"type": "note_on", "time": 18, "note": 66, "velocity": 112, "channel": 0}, {"type": "note_off", "time": 49, "note": 66, "velocity": 112, "channel": 0}, {"type": "note_on", "time": 7, "note": 69, "velocity": 102, "channel": 0}, {"type": "note_off", "time": 318, "note": 69, "velocity": 102, "channel": 0}, {"type": "note_on", "time": 0, "note": 67, "velocity": 116, "channel": 0}, {"type": "note_off", "time": 49, "note": 67, "velocity": 116, "channel": 0}, {"type": "note_on", "time": 18, "note": 66, "velocity": 119, "channel": 0}, {"type": "note_off", "time": 77, "note": 66, "velocity": 119, "channel": 0}, {"type": "note_on", "time": 100, "note": 64, "velocity": 123, "channel": 0}, {"type": "note_off", "time": 124, "note": 64, "velocity": 123, "channel": 0}, {"type": "note_on", "time": 32, "note": 66, "velocity": 119, "channel": 0}, {"type": "note_off", "time": 36, "note": 66, "velocity": 119, "channel": 0}, {"type": "note_on", "time": 6, "note": 67, "velocity": 121, "channel": 0}, {"type": "note_off", "time": 59, "note": 67, "velocity": 121, "channel": 0}, {"type": "note_on", "time": 64, "note": 67, "velocity": 120, "channel": 0}, {"type": "note_off", "time": 80, "note": 67, "velocity": 120, "channel": 0}, {"type": "note_on", "time": 98, "note": 64, "velocity": 118, "channel": 0}, {"type": "note_off", "time": 74, "note": 64, "velocity": 118, "channel": 0}, {"type": "note_on", "time": 2, "note": 60, "velocity": 113, "channel": 0}, {"type": "note_off", "time": 85, "note": 60, "velocity": 113, "channel": 0}, {"type": "note_on", "time": 47, "note": 57, "velocity": 109, "channel": 0}, {"type": "note_off", "time": 49, "note": 57, "velocity": 109, "channel": 0}, {"type": "note_on", "time": 3, "note": 60, "velocity": 110, "channel": 0}, {"type": "note_off", "time": 93, "note": 60, "velocity": 110, "channel": 0}, {"type": "note_on", "time": 15, "note": 57, "velocity": 101, "channel": 0}, {"type": "note_off", "time": 284, "note": 57, "velocity": 101, "channel": 0}, {"type": "note_on", "time": 354, "note": 65, "velocity": 118, "channel": 0}, {"type": "note_off", "time": 126, "note": 65, "velocity": 118, "channel": 0}, {"type": "note_on", "time": 10, "note": 66, "velocity": 119, "channel": 0}, {"type": "note_off", "time": 82, "note": 66, "velocity": 119, "channel": 0}, {"type": "note_on", "time": 9, "note": 71, "velocity": 120, "channel": 0}, {"type": "note_off", "time": 94, "note": 71, "velocity": 120, "channel": 0}, {"type": "note_on", "time": 17, "note": 71, "velocity": 111, "channel": 0}, {"type": "note_off", "time": 296, "note": 71, "velocity": 111, "channel": 0}, {"type": "note_on", "time": 177, "note": 69, "velocity": 122, "channel": 0}, {"type": "note_off", "time": 87, "note": 69, "velocity": 122, "channel": 0}, {"type": "note_on", "time": 18, "note": 68, "velocity": 115, "channel": 0}, {"type": "note_off", "time": 64, "note": 68, "velocity": 115, "channel": 0}, {"type": "note_on", "time": 12, "note": 71, "velocity": 122, "channel": 0}, {"type": "note_off", "time": 85, "note": 71, "velocity": 122, "channel": 0}, {"type": "note_on", "time": 18, "note": 74, "velocity": 118, "channel": 0}, {"type": "note_off", "time": 67, "note": 74, "velocity": 118, "channel": 0}, {"type": "note_on", "time": 23, "note": 71, "velocity": 120, "channel": 0}, {"type": "note_off", "time": 103, "note": 71, "velocity": 120, "channel": 0}, {"type": "note_on", "time": 77, "note": 70, "velocity": 119, "channel": 0}, {"type": "note_off", "time": 113, "note": 70, "velocity": 119, "channel": 0}, {"type": "note_on", "time": 20, "note": 71, "velocity": 120, "channel": 0}, {"type": "note_off", "time": 87, "note": 71, "velocity": 120, "channel": 0}, {"type": "note_on", "time": 82, "note": 66, "velocity": 118, "channel": 0}, {"type": "note_off", "time": 69, "note": 66, "velocity": 118, "channel": 0}, {"type": "note_on", "time": 15, "note": 69, "velocity": 121, "channel": 0}, {"type": "note_off", "time": 103, "note": 69, "velocity": 121, "channel": 0}, {"type": "note_on", "time": 7, "note": 67, "velocity": 112, "channel": 0}, {"type": "note_off", "time": 256, "note": 67, "velocity": 112, "channel": 0}, {"type": "note_on", "time": 12, "note": 64, "velocity": 118, "channel": 0}, {"type": "note_off", "time": 103, "note": 64, "velocity": 118, "channel": 0}, {"type": "note_on", "time": 31, "note": 58, "velocity": 101, "channel": 0}, {"type": "note_off", "time": 41, "note": 58, "velocity": 101, "channel": 0}, {"type": "note_on", "time": 2, "note": 59, "velocity": 106, "channel": 0}, {"type": "note_off", "time": 103, "note": 59, "velocity": 106, "channel": 0}, {"type": "note_on", "time": 24, "note": 62, "velocity": 111, "channel": 0}, {"type": "note_off", "time": 83, "note": 62, "velocity": 111, "channel": 0}, {"type": "note_on", "time": 343, "note": 69, "velocity": 99, "channel": 0}, {"type": "note_off", "time": 48, "note": 69, "velocity": 99, "channel": 0}, {"type": "note_on", "time": 7, "note": 74, "velocity": 122, "channel": 0}, {"type": "note_off", "time": 61, "note": 74, "velocity": 122, "channel": 0}, {"type": "note_on", "time": 15, "note": 74, "velocity": 118, "channel": 0}, {"type": "note_off", "time": 18, "note": 74, "velocity": 118, "channel": 0}, {"type": "note_on", "time": 17, "note": 74, "velocity": 121, "channel": 0}, {"type": "note_off", "time": 53, "note": 74, "velocity": 121, "channel": 0}, {"type": "note_on", "time": 20, "note": 74, "velocity": 123, "channel": 0}, {"type": "note_off", "time": 30, "note": 74, "velocity": 123, "channel": 0}, {"type": "note_on", "time": 22, "note": 74, "velocity": 122, "channel": 0}, {"type": "note_off", "time": 38, "note": 74, "velocity": 122, "channel": 0}, {"type": "note_on", "time": 25, "note": 74, "velocity": 122, "channel": 0}, {"type": "note_off", "time": 29, "note": 74, "velocity": 122, "channel": 0}, {"type": "note_on", "time": 24, "note": 74, "velocity": 121, "channel": 0}, {"type": "note_off", "time": 67, "note": 74, "velocity": 121, "channel": 0}, {"type": "note_on", "time": 64, "note": 74, "velocity": 120, "channel": 0}, {"type": "note_off", "time": 79, "note": 74, "velocity": 120, "channel": 0}, {"type": "note_on", "time": 62, "note": 74, "velocity": 121, "channel": 0}, {"type": "note_off", "time": 90, "note": 74, "velocity": 121, "channel": 0}, {"type": "note_on", "time": 31, "note": 74, "velocity": 119, "channel": 0}, {"type": "note_off", "time": 85, "note": 74, "velocity": 119, "channel": 0}, {"type": "note_on", "time": 93, "note": 74, "velocity": 125, "channel": 0}, {"type": "note_off", "time": 67, "note": 74, "velocity": 125, "channel": 0}, {"type": "note_on", "time": 56, "note": 74, "velocity": 119, "channel": 0}, {"type": "note_off", "time": 67, "note": 74, "velocity": 119, "channel": 0}, {"type": "note_on", "time": 28, "note": 74, "velocity": 123, "channel": 0}, {"type": "note_off", "time": 87, "note": 74, "velocity": 123, "channel": 0}, {"type": "note_on", "time": 20, "note": 76, "velocity": 124, "channel": 0}, {"type": "note_off", "time": 147, "note": 76, "velocity": 124, "channel": 0}, {"type": "note_on", "time": 28, "note": 79, "velocity": 106, "channel": 0}, {"type": "note_off", "time": 33, "note": 79, "velocity": 106, "channel": 0}, {"type": "note_on", "time": 5, "note": 73, "velocity": 103, "channel": 0}, {"type": "note_off", "time": 36, "note": 73, "velocity": 103, "channel": 0}, {"type": "note_on", "time": 204, "note": 69, "velocity": 118, "channel": 0}, {"type": "note_off", "time": 28, "note": 69, "velocity": 118, "channel": 0}, {"type": "note_on", "time": 5, "note": 70, "velocity": 119, "channel": 0}, {"type": "note_off", "time": 67, "note": 70, "velocity": 119, "channel": 0}, {"type": "note_on", "time": 15, "note": 71, "velocity": 123, "channel": 0}, {"type": "note_off", "time": 74, "note": 71, "velocity": 123, "channel": 0}, {"type": "note_on", "time": 5, "note": 74, "velocity": 122, "channel": 0}, {"type": "note_off", "time": 106, "note": 74, "velocity": 122, "channel": 0}, {"type": "note_on", "time": 5, "note": 72, "velocity": 110, "channel": 0}, {"type": "note_off", "time": 258, "note": 72, "velocity": 110, "channel": 0}, {"type": "note_on", "time": 2, "note": 66, "velocity": 91, "channel": 0}, {"type": "note_off", "time": 12, "note": 66, "velocity": 91, "channel": 0}, {"type": "note_on", "time": 5, "note": 67, "velocity": 117, "channel": 0}, {"type": "note_off", "time": 87, "note": 67, "velocity": 117, "channel": 0}, {"type": "note_on", "time": 18, "note": 63, "velocity": 103, "channel": 0}, {"type": "note_off", "time": 20, "note": 63, "velocity": 103, "channel": 0}, {"type": "note_on", "time": 10, "note": 64, "velocity": 122, "channel": 0}, {"type": "note_off", "time": 77, "note": 64, "velocity": 122, "channel": 0}, {"type": "note_on", "time": 64, "note": 61, "velocity": 95, "channel": 0}, {"type": "note_off", "time": 25, "note": 61, "velocity": 95, "channel": 0}, {"type": "note_on", "time": 7, "note": 62, "velocity": 90, "channel": 0}, {"type": "note_off", "time": 33, "note": 62, "velocity": 90, "channel": 0}, {"type": "note_on", "time": 395, "note": 74, "velocity": 118, "channel": 0}, {"type": "note_off", "time": 111, "note": 74, "velocity": 118, "channel": 0}, {"type": "note_on", "time": 47, "note": 74, "velocity": 118, "channel": 0}, {"type": "note_off", "time": 88, "note": 74, "velocity": 118, "channel": 0}, {"type": "note_on", "time": 62, "note": 74, "velocity": 120, "channel": 0}, {"type": "note_off", "time": 80, "note": 74, "velocity": 120, "channel": 0}, {"type": "note_on", "time": 25, "note": 74, "velocity": 121, "channel": 0}, {"type": "note_off", "time": 93, "note": 74, "velocity": 121, "channel": 0}, {"type": "note_on", "time": 25, "note": 74, "velocity": 121, "channel": 0}, {"type": "note_off", "time": 74, "note": 74, "velocity": 121, "channel": 0}, {"type": "note_on", "time": 90, "note": 74, "velocity": 122, "channel": 0}, {"type": "note_off", "time": 69, "note": 74, "velocity": 122, "channel": 0}, {"type": "note_on", "time": 23, "note": 73, "velocity": 120, "channel": 0}, {"type": "note_off", "time": 98, "note": 73, "velocity": 120, "channel": 0}, {"type": "note_on", "time": 46, "note": 73, "velocity": 119, "channel": 0}, {"type": "note_off", "time": 87, "note": 73, "velocity": 119, "channel": 0}, {"type": "note_on", "time": 67, "note": 73, "velocity": 120, "channel": 0}, {"type": "note_off", "time": 85, "note": 73, "velocity": 120, "channel": 0}, {"type": "note_on", "time": 20, "note": 72, "velocity": 123, "channel": 0}, {"type": "note_off", "time": 90, "note": 72, "velocity": 123, "channel": 0}, {"type": "note_on", "time": 31, "note": 72, "velocity": 123, "channel": 0}, {"type": "note_off", "time": 87, "note": 72, "velocity": 123, "channel": 0}, {"type": "note_on", "time": 80, "note": 72, "velocity": 123, "channel": 0}, {"type": "note_off", "time": 85, "note": 72, "velocity": 123, "channel": 0}, {"type": "note_on", "time": 20, "note": 68, "velocity": 118, "channel": 0}, {"type": "note_off", "time": 108, "note": 68, "velocity": 118, "channel": 0}, {"type": "note_on", "time": 43, "note": 68, "velocity": 117, "channel": 0}, {"type": "note_off", "time": 137, "note": 68, "velocity": 117, "channel": 0}, {"type": "note_on", "time": 15, "note": 71, "velocity": 123, "channel": 0}, {"type": "note_off", "time": 77, "note": 71, "velocity": 123, "channel": 0}, {"type": "note_on", "time": 95, "note": 71, "velocity": 119, "channel": 0}, {"type": "note_off", "time": 160, "note": 71, "velocity": 119, "channel": 0}, {"type": "note_on", "time": 111, "note": 71, "velocity": 120, "channel": 0}, {"type": "note_off", "time": 90, "note": 71, "velocity": 120, "channel": 0}, {"type": "note_on", "time": 292, "note": 71, "velocity": 122, "channel": 0}, {"type": "note_off", "time": 103, "note": 71, "velocity": 122, "channel": 0}, {"type": "note_on", "time": 36, "note": 69, "velocity": 105, "channel": 0}, {"type": "note_off", "time": 43, "note": 69, "velocity": 105, "channel": 0}, {"type": "note_on", "time": 18, "note": 78, "velocity": 120, "channel": 0}, {"type": "note_off", "time": 118, "note": 78, "velocity": 120, "channel": 0}, {"type": "note_on", "time": 45, "note": 72, "velocity": 101, "channel": 0}, {"type": "note_off", "time": 22, "note": 72, "velocity": 101, "channel": 0}, {"type": "note_on", "time": 2, "note": 71, "velocity": 117, "channel": 0}, {"type": "note_off", "time": 118, "note": 71, "velocity": 117, "channel": 0}, {"type": "note_on", "time": 23, "note": 69, "velocity": 95, "channel": 0}, {"type": "note_off", "time": 38, "note": 69, "velocity": 95, "channel": 0}, {"type": "note_on", "time": 7, "note": 74, "velocity": 118, "channel": 0}, {"type": "note_off", "time": 126, "note": 74, "velocity": 118, "channel": 0}, {"type": "note_on", "time": 12, "note": 70, "velocity": 106, "channel": 0}, {"type": "note_off", "time": 51, "note": 70, "velocity": 106, "channel": 0}, {"type": "note_on", "time": 15, "note": 71, "velocity": 123, "channel": 0}, {"type": "note_off", "time": 118, "note": 71, "velocity": 123, "channel": 0}, {"type": "note_on", "time": 74, "note": 66, "velocity": 121, "channel": 0}, {"type": "note_off", "time": 103, "note": 66, "velocity": 121, "channel": 0}, {"type": "note_on", "time": 10, "note": 69, "velocity": 126, "channel": 0}, {"type": "note_off", "time": 59, "note": 69, "velocity": 126, "channel": 0}, {"type": "note_on", "time": 7, "note": 67, "velocity": 120, "channel": 0}, {"type": "note_off", "time": 93, "note": 67, "velocity": 120, "channel": 0}, {"type": "note_on", "time": 51, "note": 59, "velocity": 100, "channel": 0}, {"type": "note_off", "time": 29, "note": 59, "velocity": 100, "channel": 0}, {"type": "note_on", "time": 1, "note": 61, "velocity": 102, "channel": 0}, {"type": "note_off", "time": 33, "note": 61, "velocity": 102, "channel": 0}, {"type": "note_on", "time": 2, "note": 64, "velocity": 124, "channel": 0}, {"type": "note_off", "time": 98, "note": 64, "velocity": 124, "channel": 0}, {"type": "note_on", "time": 2, "note": 62, "velocity": 97, "channel": 0}, {"type": "note_off", "time": 222, "note": 62, "velocity": 97, "channel": 0}, {"type": "note_on", "time": 279, "note": 71, "velocity": 120, "channel": 0}, {"type": "note_off", "time": 87, "note": 71, "velocity": 120, "channel": 0}, {"type": "note_on", "time": 36, "note": 72, "velocity": 122, "channel": 0}, {"type": "note_off", "time": 100, "note": 72, "velocity": 122, "channel": 0}, {"type": "note_on", "time": 49, "note": 71, "velocity": 121, "channel": 0}, {"type": "note_off", "time": 87, "note": 71, "velocity": 121, "channel": 0}, {"type": "note_on", "time": 10, "note": 76, "velocity": 125, "channel": 0}, {"type": "note_off", "time": 108, "note": 76, "velocity": 125, "channel": 0}, {"type": "note_on", "time": 12, "note": 67, "velocity": 110, "channel": 0}, {"type": "note_off", "time": 74, "note": 67, "velocity": 110, "channel": 0}, {"type": "note_on", "time": 47, "note": 64, "velocity": 113, "channel": 0}, {"type": "note_off", "time": 72, "note": 64, "velocity": 113, "channel": 0}, {"type": "note_on", "time": 19, "note": 64, "velocity": 111, "channel": 0}, {"type": "note_off", "time": 52, "note": 64, "velocity": 111, "channel": 0}, {"type": "note_on", "time": 6, "note": 71, "velocity": 121, "channel": 0}, {"type": "note_off", "time": 292, "note": 71, "velocity": 121, "channel": 0}, {"type": "note_on", "time": 5, "note": 67, "velocity": 105, "channel": 0}, {"type": "note_off", "time": 13, "note": 67, "velocity": 105, "channel": 0}, {"type": "note_on", "time": 4, "note": 64, "velocity": 115, "channel": 0}, {"type": "note_off", "time": 62, "note": 64, "velocity": 115, "channel": 0}, {"type": "note_on", "time": 12, "note": 67, "velocity": 110, "channel": 0}, {"type": "note_off", "time": 155, "note": 67, "velocity": 110, "channel": 0}, {"type": "note_on", "time": 369, "note": 69, "velocity": 124, "channel": 0}, {"type": "note_off", "time": 80, "note": 69, "velocity": 124, "channel": 0}, {"type": "note_on", "time": 85, "note": 71, "velocity": 124, "channel": 0}, {"type": "note_off", "time": 62, "note": 71, "velocity": 124, "channel": 0}, {"type": "note_on", "time": 18, "note": 72, "velocity": 124, "channel": 0}, {"type": "note_off", "time": 90, "note": 72, "velocity": 124, "channel": 0}, {"type": "note_on", "time": 23, "note": 72, "velocity": 123, "channel": 0}, {"type": "note_off", "time": 54, "note": 72, "velocity": 123, "channel": 0}, {"type": "note_on", "time": 18, "note": 71, "velocity": 122, "channel": 0}, {"type": "note_off", "time": 85, "note": 71, "velocity": 122, "channel": 0}, {"type": "note_on", "time": 100, "note": 72, "velocity": 121, "channel": 0}, {"type": "note_off", "time": 91, "note": 72, "velocity": 121, "channel": 0}, {"type": "note_on", "time": 10, "note": 73, "velocity": 115, "channel": 0}, {"type": "note_off", "time": 53, "note": 73, "velocity": 115, "channel": 0}, {"type": "note_on", "time": 3, "note": 69, "velocity": 100, "channel": 0}, {"type": "note_off", "time": 43, "note": 69, "velocity": 100, "channel": 0}, {"type": "note_on", "time": 147, "note": 73, "velocity": 113, "channel": 0}, {"type": "note_off", "time": 59, "note": 73, "velocity": 113, "channel": 0}, {"type": "note_on", "time": 5, "note": 74, "velocity": 121, "channel": 0}, {"type": "note_off", "time": 85, "note": 74, "velocity": 121, "channel": 0}, {"type": "note_on", "time": 109, "note": 72, "velocity": 117, "channel": 0}, {"type": "note_off", "time": 49, "note": 72, "velocity": 117, "channel": 0}, {"type": "note_on", "time": 5, "note": 73, "velocity": 113, "channel": 0}, {"type": "note_off", "time": 34, "note": 73, "velocity": 113, "channel": 0}, {"type": "note_on", "time": 51, "note": 74, "velocity": 109, "channel": 0}, {"type": "note_off", "time": 69, "note": 74, "velocity": 109, "channel": 0}, {"type": "note_on", "time": 95, "note": 74, "velocity": 110, "channel": 0}, {"type": "note_off", "time": 93, "note": 74, "velocity": 110, "channel": 0}, {"type": "note_on", "time": 5, "note": 71, "velocity": 113, "channel": 0}, {"type": "note_off", "time": 77, "note": 71, "velocity": 113, "channel": 0}, {"type": "note_on", "time": 307, "note": 71, "velocity": 111, "channel": 0}, {"type": "note_off", "time": 64, "note": 71, "velocity": 111, "channel": 0}, {"type": "note_on", "time": 51, "note": 71, "velocity": 102, "channel": 0}, {"type": "note_off", "time": 64, "note": 71, "velocity": 102, "channel": 0}, {"type": "note_on", "time": 7, "note": 74, "velocity": 114, "channel": 0}, {"type": "note_off", "time": 67, "note": 74, "velocity": 114, "channel": 0}, {"type": "note_on", "time": 54, "note": 74, "velocity": 115, "channel": 0}, {"type": "note_off", "time": 77, "note": 74, "velocity": 115, "channel": 0}, {"type": "note_on", "time": 5, "note": 73, "velocity": 112, "channel": 0}, {"type": "note_off", "time": 87, "note": 73, "velocity": 112, "channel": 0}, {"type": "note_on", "time": 93, "note": 72, "velocity": 119, "channel": 0}, {"type": "note_off", "time": 103, "note": 72, "velocity": 119, "channel": 0}, {"type": "note_on", "time": 18, "note": 76, "velocity": 113, "channel": 0}, {"type": "note_off", "time": 67, "note": 76, "velocity": 113, "channel": 0}, {"type": "note_on", "time": 5, "note": 69, "velocity": 96, "channel": 0}, {"type": "note_off", "time": 26, "note": 69, "velocity": 96, "channel": 0}, {"type": "note_on", "time": 9, "note": 64, "velocity": 116, "channel": 0}, {"type": "note_off", "time": 82, "note": 64, "velocity": 116, "channel": 0}, {"type": "note_on", "time": 5, "note": 67, "velocity": 114, "channel": 0}, {"type": "note_off", "time": 72, "note": 67, "velocity": 114, "channel": 0}, {"type": "note_on", "time": 1, "note": 71, "velocity": 120, "channel": 0}, {"type": "note_off", "time": 97, "note": 71, "velocity": 120, "channel": 0}, {"type": "note_on", "time": 90, "note": 70, "velocity": 115, "channel": 0}, {"type": "note_off", "time": 90, "note": 70, "velocity": 115, "channel": 0}, {"type": "note_on", "time": 90, "note": 71, "velocity": 108, "channel": 0}, {"type": "note_off", "time": 77, "note": 71, "velocity": 108, "channel": 0}, {"type": "note_on", "time": 123, "note": 74, "velocity": 102, "channel": 0}, {"type": "note_off", "time": 115, "note": 74, "velocity": 102, "channel": 0}, {"type": "end_of_track", "time": 0}]]}