{"ticks_per_beat": 192, "tracks": [[{"type": "track_name", "name": "Melody", "time": 0}, {"type": "set_tempo", "tempo": 410958, "time": 0}, {"type": "key_signature", "key": "C", "time": 0}, {"type": "time_signature", "numerator": 4, "denominator": 4, "clocks_per_click": 24, "notated_32nd_notes_per_beat": 8, "time": 0}, {"type": "note_on", "time": 1214, "note": 72, "velocity": 117, "channel": 0}, {"type": "note_off", "time": 84, "note": 72, "velocity": 117, "channel": 0}, {"type": "note_on", "time": 71, "note": 72, "velocity": 117, "channel": 0}, {"type": "note_off", "time": 86, "note": 72, "velocity": 117, "channel": 0}, {"type": "note_on", "time": 83, "note": 72, "velocity": 116, "channel": 0}, {"type": "note_off", "time": 111, "note": 72, "velocity": 116, "channel": 0}, {"type": "note_on", "time": 114, "note": 62, "velocity": 110, "channel": 0}, {"type": "note_off", "time": 37, "note": 62, "velocity": 110, "channel": 0}, {"type": "note_on", "time": 2, "note": 64, "velocity": 123, "channel": 0}, {"type": "note_off", "time": 108, "note": 64, "velocity": 123, "channel": 0}, {"type": "note_on", "time": 37, "note": 67, "velocity": 113, "channel": 0}, {"type": "note_off", "time": 43, "note": 67, "velocity": 113, "channel": 0}, {"type": "note_on", "time": 13, "note": 69, "velocity": 127, "channel": 0}, {"type": "note_off", "time": 100, "note": 69, "velocity": 127, "channel": 0}, {"type": "note_on", "time": 80, "note": 72, "velocity": 109, "channel": 0}, {"type": "note_off", "time": 157, "note": 72, "velocity": 109, "channel": 0}, {"type": "note_on", "time": 233, "note": 75, "velocity": 115, "channel": 0}, {"type": "note_off", "time": 97, "note": 75, "velocity": 115, "channel": 0}, {"type": "note_on", "time": 43, "note": 75, "velocity": 118, "channel": 0}, {"type": "note_off", "time": 97, "note": 75, "velocity": 118, "channel": 0}, {"type": "note_on", "time": 78, "note": 75, "velocity": 117, "channel": 0}, {"type": "note_off", "time": 105, "note": 75, "velocity": 117, "channel": 0}, {"type": "note_on", "time": 70, "note": 74, "velocity": 114, "channel": 0}, {"type": "note_on", "time": 70, "note": 72, "velocity": 118, "channel": 0}, {"type": "note_off", "time": 0, "note": 74, "velocity": 114, "channel": 0}, {"type": "note_off", "time": 78, "note": 72, "velocity": 118, "channel": 0}, {"type": "note_on", "time": 43, "note": 72, "velocity": 111, "channel": 0}, {"type": "note_off", "time": 143, "note": 72, "velocity": 111, "channel": 0}, {"type": "note_on", "time": 1185, "note": 75, "velocity": 119, "channel": 0}, {"type": "note_off", "time": 103, "note": 75, "velocity": 119, "channel": 0}, {"type": "note_on", "time": 65, "note": 72, "velocity": 106, "channel": 0}, {"type": "note_off", "time": 81, "note": 72, "velocity": 106, "channel": 0}, {"type": "note_on", "time": 2, "note": 75, "velocity": 116, "channel": 0}, {"type": "note_off", "time": 160, "note": 75, "velocity": 116, "channel": 0}, {"type": "note_on", "time": 43, "note": 74, "velocity": 113, "channel": 0}, {"type": "note_off", "time": 119, "note": 74, "velocity": 113, "channel": 0}, {"type": "note_on", "time": 78, "note": 72, "velocity": 122, "channel": 0}, {"type": "note_off", "time": 75, "note": 72, "velocity": 122, "channel": 0}, {"type": "note_on", "time": 37, "note": 69, "velocity": 120, "channel": 0}, {"type": "note_off", "time": 62, "note": 69, "velocity": 120, "channel": 0}, {"type": "note_on", "time": 206, "note": 75, "velocity": 117, "channel": 0}, {"type": "note_off", "time": 119, "note": 75, "velocity": 117, "channel": 0}, {"type": "note_on", "time": 27, "note": 75, "velocity": 120, "channel": 0}, {"type": "note_off", "time": 86, "note": 75, "velocity": 120, "channel": 0}, {"type": "note_on", "time": 67, "note": 74, "velocity": 116, "channel": 0}, {"type": "note_off", "time": 62, "note": 74, "velocity": 116, "channel": 0}, {"type": "note_on", "time": 14, "note": 72, "velocity": 116, "channel": 0}, {"type": "note_off", "time": 183, "note": 72, "velocity": 116, "channel": 0}, {"type": "note_on", "time": 5, "note": 69, "velocity": 125, "channel": 0}, {"type": "note_off", "time": 129, "note": 69, "velocity": 125, "channel": 0}, {"type": "note_on", "time": 1, "note": 63, "velocity": 115, "channel": 0}, {"type": "note_off", "time": 225, "note": 63, "velocity": 115, "channel": 0}, {"type": "note_on", "time": 1146, "note": 75, "velocity": 116, "channel": 0}, {"type": "note_off", "time": 86, "note": 75, "velocity": 116, "channel": 0}, {"type": "note_on", "time": 65, "note": 72, "velocity": 122, "channel": 0}, {"type": "note_off", "time": 105, "note": 72, "velocity": 122, "channel": 0}, {"type": "note_on", "time": 54, "note": 72, "velocity": 122, "channel": 0}, {"type": "note_off", "time": 73, "note": 72, "velocity": 122, "channel": 0}, {"type": "note_on", "time": 21, "note": 74, "velocity": 117, "channel": 0}, {"type": "note_off", "time": 100, "note": 74, "velocity": 117, "channel": 0}, {"type": "note_on", "time": 73, "note": 72, "velocity": 119, "channel": 0}, {"type": "note_off", "time": 103, "note": 72, "velocity": 119, "channel": 0}, {"type": "note_on", "time": 18, "note": 69, "velocity": 121, "channel": 0}, {"type": "note_off", "time": 78, "note": 69, "velocity": 121, "channel": 0}, {"type": "note_on", "time": 192, "note": 75, "velocity": 114, "channel": 0}, {"type": "note_off", "time": 81, "note": 75, "velocity": 114, "channel": 0}, {"type": "note_on", "time": 73, "note": 75, "velocity": 115, "channel": 0}, {"type": "note_off", "time": 84, "note": 75, "velocity": 115, "channel": 0}, {"type": "note_on", "time": 56, "note": 75, "velocity": 116, "channel": 0}, {"type": "note_off", "time": 251, "note": 75, "velocity": 116, "channel": 0}, {"type": "note_on", "time": 50, "note": 72, "velocity": 113, "channel": 0}, {"type": "note_off", "time": 75, "note": 72, "velocity": 113, "channel": 0}, {"type": "note_on", "time": 37, "note": 72, "velocity": 103, "channel": 0}, {"type": "note_off", "time": 162, "note": 72, "velocity": 103, "channel": 0}, {"type": "note_on", "time": 92, "note": 67, "velocity": 119, "channel": 0}, {"type": "note_off", "time": 105, "note": 67, "velocity": 119, "channel": 0}, {"type": "note_on", "time": 10, "note": 68, "velocity": 116, "channel": 0}, {"type": "note_off", "time": 51, "note": 68, "velocity": 116, "channel": 0}, {"type": "note_on", "time": 13, "note": 69, "velocity": 119, "channel": 0}, {"type": "note_off", "time": 86, "note": 69, "velocity": 119, "channel": 0}, {"type": "note_on", "time": 29, "note": 77, "velocity": 115, "channel": 0}, {"type": "note_off", "time": 75, "note": 77, "velocity": 115, "channel": 0}, {"type": "note_on", "time": 2, "note": 75, "velocity": 113, "channel": 0}, {"type": "note_off", "time": 94, "note": 75, "velocity": 113, "channel": 0}, {"type": "note_on", "time": 15, "note": 76, "velocity": 110, "channel": 0}, {"type": "note_off", "time": 62, "note": 76, "velocity": 110, "channel": 0}, {"type": "note_on", "time": 28, "note": 72, "velocity": 111, "channel": 0}, {"type": "note_off", "time": 69, "note": 72, "velocity": 111, "channel": 0}, {"type": "note_on", "time": 87, "note": 65, "velocity": 92, "channel": 0}, {"type": "note_off", "time": 21, "note": 65, "velocity": 92, "channel": 0}, {"type": "note_on", "time": 7, "note": 67, "velocity": 119, "channel": 0}, {"type": "note_off", "time": 40, "note": 67, "velocity": 119, "channel": 0}, {"type": "note_on", "time": 98, "note": 67, "velocity": 121, "channel": 0}, {"type": "note_off", "time": 89, "note": 67, "velocity": 121, "channel": 0}, {"type": "note_on", "time": 94, "note": 72, "velocity": 102, "channel": 0}, {"type": "note_off", "time": 157, "note": 72, "velocity": 102, "channel": 0}, {"type": "end_of_track", "time": 0}]]}