{"ticks_per_beat": 192, "tracks": [[{"type": "track_name", "name": "Melody", "time": 0}, {"type": "set_tempo", "tempo": 461538, "time": 0}, {"type": "key_signature", "key": "G", "time": 0}, {"type": "time_signature", "numerator": 4, "denominator": 4, "clocks_per_click": 24, "notated_32nd_notes_per_beat": 8, "time": 0}, {"type": "note_on", "time": 2380, "note": 74, "velocity": 117, "channel": 0}, {"type": "note_off", "time": 59, "note": 74, "velocity": 117, "channel": 0}, {"type": "note_on", "time": 79, "note": 74, "velocity": 111, "channel": 0}, {"type": "note_off", "time": 59, "note": 74, "velocity": 111, "channel": 0}, {"type": "note_on", "time": 70, "note": 70, "velocity": 113, "channel": 0}, {"type": "note_off", "time": 56, "note": 70, "velocity": 113, "channel": 0}, {"type": "note_on", "time": 8, "note": 71, "velocity": 107, "channel": 0}, {"type": "note_off", "time": 47, "note": 71, "velocity": 107, "channel": 0}, {"type": "note_on", "time": 34, "note": 67, "velocity": 100, "channel": 0}, {"type": "note_off", "time": 50, "note": 67, "velocity": 100, "channel": 0}, {"type": "note_on", "time": 55, "note": 62, "velocity": 93, "channel": 0}, {"type": "note_off", "time": 116, "note": 62, "velocity": 93, "channel": 0}, {"type": "note_on", "time": 429, "note": 72, "velocity": 115, "channel": 0}, {"type": "note_off", "time": 41, "note": 72, "velocity": 115, "channel": 0}, {"type": "note_on", "time": 46, "note": 76, "velocity": 122, "channel": 0}, {"type": "note_off", "time": 48, "note": 76, "velocity": 122, "channel": 0}, {"type": "note_on", "time": 46, "note": 64, "velocity": 108, "channel": 0}, {"type": "note_off", "time": 48, "note": 64, "velocity": 108, "channel": 0}, {"type": "note_on", "time": 34, "note": 67, "velocity": 114, "channel": 0}, {"type": "note_off", "time": 47, "note": 67, "velocity": 114, "channel": 0}, {"type": "note_on", "time": 29, "note": 71, "velocity": 111, "channel": 0}, {"type": "note_off", "time": 68, "note": 71, "velocity": 111, "channel": 0}, {"type": "note_on", "time": 81, "note": 71, "velocity": 111, "channel": 0}, {"type": "note_off", "time": 48, "note": 71, "velocity": 111, "channel": 0}, {"type": "note_on", "time": 53, "note": 67, "velocity": 108, "channel": 0}, {"type": "note_off", "time": 46, "note": 67, "velocity": 108, "channel": 0}, {"type": "note_on", "time": 4, "note": 69, "velocity": 105, "channel": 0}, {"type": "note_off", "time": 49, "note": 69, "velocity": 105, "channel": 0}, {"type": "note_on", "time": 4, "note": 67, "velocity": 94, "channel": 0}, {"type": "note_off", "time": 240, "note": 67, "velocity": 94, "channel": 0}, {"type": "note_on", "time": 5, "note": 65, "velocity": 112, "channel": 0}, {"type": "note_off", "time": 65, "note": 65, "velocity": 112, "channel": 0}, {"type": "note_on", "time": 25, "note": 62, "velocity": 103, "channel": 0}, {"type": "note_off", "time": 50, "note": 62, "velocity": 103, "channel": 0}, {"type": "note_on", "time": 9, "note": 59, "velocity": 94, "channel": 0}, {"type": "note_off", "time": 44, "note": 59, "velocity": 94, "channel": 0}, {"type": "note_on", "time": 13, "note": 57, "velocity": 81, "channel": 0}, {"type": "note_off", "time": 230, "note": 57, "velocity": 81, "channel": 0}, {"type": "note_on", "time": 607, "note": 69, "velocity": 108, "channel": 0}, {"type": "note_off", "time": 34, "note": 69, "velocity": 108, "channel": 0}, {"type": "note_on", "time": 2, "note": 70, "velocity": 113, "channel": 0}, {"type": "note_off", "time": 40, "note": 70, "velocity": 113, "channel": 0}, {"type": "note_on", "time": 39, "note": 71, "velocity": 112, "channel": 0}, {"type": "note_off", "time": 44, "note": 71, "velocity": 112, "channel": 0}, {"type": "note_on", "time": 60, "note": 76, "velocity": 117, "channel": 0}, {"type": "note_off", "time": 63, "note": 76, "velocity": 117, "channel": 0}, {"type": "note_on", "time": 24, "note": 74, "velocity": 111, "channel": 0}, {"type": "note_off", "time": 55, "note": 74, "velocity": 111, "channel": 0}, {"type": "note_on", "time": 27, "note": 72, "velocity": 106, "channel": 0}, {"type": "note_off", "time": 45, "note": 72, "velocity": 106, "channel": 0}, {"type": "note_on", "time": 55, "note": 63, "velocity": 103, "channel": 0}, {"type": "note_off", "time": 55, "note": 63, "velocity": 103, "channel": 0}, {"type": "note_on", "time": 9, "note": 64, "velocity": 105, "channel": 0}, {"type": "note_off", "time": 47, "note": 64, "velocity": 105, "channel": 0}, {"type": "note_on", "time": 19, "note": 71, "velocity": 102, "channel": 0}, {"type": "note_off", "time": 51, "note": 71, "velocity": 102, "channel": 0}, {"type": "note_on", "time": 15, "note": 69, "velocity": 100, "channel": 0}, {"type": "note_off", "time": 45, "note": 69, "velocity": 100, "channel": 0}, {"type": "note_on", "time": 12, "note": 67, "velocity": 98, "channel": 0}, {"type": "note_off", "time": 41, "note": 67, "velocity": 98, "channel": 0}, {"type": "note_on", "time": 22, "note": 64, "velocity": 101, "channel": 0}, {"type": "note_off", "time": 56, "note": 64, "velocity": 101, "channel": 0}, {"type": "note_on", "time": 14, "note": 60, "velocity": 95, "channel": 0}, {"type": "note_off", "time": 45, "note": 60, "velocity": 95, "channel": 0}, {"type": "note_on", "time": 7, "note": 57, "velocity": 91, "channel": 0}, {"type": "note_off", "time": 183, "note": 57, "velocity": 91, "channel": 0}, {"type": "note_on", "time": 218, "note": 61, "velocity": 104, "channel": 0}, {"type": "note_off", "time": 28, "note": 61, "velocity": 104, "channel": 0}, {"type": "note_on", "time": 4, "note": 62, "velocity": 107, "channel": 0}, {"type": "note_off", "time": 70, "note": 62, "velocity": 107, "channel": 0}, {"type": "note_on", "time": 60, "note": 61, "velocity": 97, "channel": 0}, {"type": "note_off", "time": 8, "note": 61, "velocity": 97, "channel": 0}, {"type": "note_on", "time": 1, "note": 62, "velocity": 110, "channel": 0}, {"type": "note_off", "time": 66, "note": 62, "velocity": 110, "channel": 0}, {"type": "note_on", "time": 58, "note": 54, "velocity": 95, "channel": 0}, {"type": "note_off", "time": 18, "note": 54, "velocity": 95, "channel": 0}, {"type": "note_on", "time": 4, "note": 55, "velocity": 100, "channel": 0}, {"type": "note_off", "time": 57, "note": 55, "velocity": 100, "channel": 0}, {"type": "note_on", "time": 15, "note": 59, "velocity": 100, "channel": 0}, {"type": "note_off", "time": 65, "note": 59, "velocity": 100, "channel": 0}, {"type": "note_on", "time": 12, "note": 62, "velocity": 104, "channel": 0}, {"type": "note_off", "time": 52, "note": 62, "velocity": 104, "channel": 0}, {"type": "note_on", "time": 31, "note": 59, "velocity": 97, "channel": 0}, {"type": "note_off", "time": 34, "note": 59, "velocity": 97, "channel": 0}, {"type": "note_on", "time": 5, "note": 62, "velocity": 97, "channel": 0}, {"type": "note_off", "time": 158, "note": 62, "velocity": 97, "channel": 0}, {"type": "note_on", "time": 479, "note": 72, "velocity": 88, "channel": 0}, {"type": "note_off", "time": 51, "note": 72, "velocity": 88, "channel": 0}, {"type": "note_on", "time": 2, "note": 74, "velocity": 115, "channel": 0}, {"type": "note_off", "time": 60, "note": 74, "velocity": 115, "channel": 0}, {"type": "note_on", "time": 45, "note": 71, "velocity": 116, "channel": 0}, {"type": "note_off", "time": 59, "note": 71, "velocity": 116, "channel": 0}, {"type": "note_on", "time": 5, "note": 69, "velocity": 98, "channel": 0}, {"type": "note_off", "time": 200, "note": 69, "velocity": 98, "channel": 0}, {"type": "note_on", "time": 25, "note": 67, "velocity": 111, "channel": 0}, {"type": "note_off", "time": 73, "note": 67, "velocity": 111, "channel": 0}, {"type": "note_on", "time": 3, "note": 66, "velocity": 108, "channel": 0}, {"type": "note_off", "time": 56, "note": 66, "velocity": 108, "channel": 0}, {"type": "note_on", "time": 16, "note": 64, "velocity": 114, "channel": 0}, {"type": "note_off", "time": 66, "note": 64, "velocity": 114, "channel": 0}, {"type": "note_on", "time": 16, "note": 66, "velocity": 113, "channel": 0}, {"type": "note_off", "time": 38, "note": 66, "velocity": 113, "channel": 0}, {"type": "note_on", "time": 3, "note": 67, "velocity": 114, "channel": 0}, {"type": "note_off", "time": 68, "note": 67, "velocity": 114, "channel": 0}, {"type": "note_on", "time": 4, "note": 64, "velocity": 112, "channel": 0}, {"type": "note_off", "time": 69, "note": 64, "velocity": 112, "channel": 0}, {"type": "note_on", "time": 7, "note": 67, "velocity": 106, "channel": 0}, {"type": "note_off", "time": 53, "note": 67, "velocity": 106, "channel": 0}, {"type": "note_on", "time": 8, "note": 64, "velocity": 98, "channel": 0}, {"type": "note_off", "time": 239, "note": 64, "velocity": 98, "channel": 0}, {"type": "note_on", "time": 302, "note": 72, "velocity": 115, "channel": 0}, {"type": "note_off", "time": 54, "note": 72, "velocity": 115, "channel": 0}, {"type": "note_on", "time": 18, "note": 68, "velocity": 94, "channel": 0}, {"type": "note_off", "time": 33, "note": 68, "velocity": 94, "channel": 0}, {"type": "note_on", "time": 14, "note": 76, "velocity": 120, "channel": 0}, {"type": "note_off", "time": 47, "note": 76, "velocity": 120, "channel": 0}, {"type": "note_on", "time": 48, "note": 64, "velocity": 117, "channel": 0}, {"type": "note_off", "time": 42, "note": 64, "velocity": 117, "channel": 0}, {"type": "note_on", "time": 61, "note": 67, "velocity": 115, "channel": 0}, {"type": "note_off", "time": 29, "note": 67, "velocity": 115, "channel": 0}, {"type": "note_on", "time": 19, "note": 71, "velocity": 116, "channel": 0}, {"type": "note_off", "time": 61, "note": 71, "velocity": 116, "channel": 0}, {"type": "note_on", "time": 64, "note": 71, "velocity": 113, "channel": 0}, {"type": "note_off", "time": 51, "note": 71, "velocity": 113, "channel": 0}, {"type": "note_on", "time": 97, "note": 67, "velocity": 112, "channel": 0}, {"type": "note_off", "time": 41, "note": 67, "velocity": 112, "channel": 0}, {"type": "note_on", "time": 107, "note": 62, "velocity": 107, "channel": 0}, {"type": "note_off", "time": 40, "note": 62, "velocity": 107, "channel": 0}, {"type": "note_on", "time": 6, "note": 61, "velocity": 99, "channel": 0}, {"type": "note_off", "time": 35, "note": 61, "velocity": 99, "channel": 0}, {"type": "note_on", "time": 4, "note": 62, "velocity": 97, "channel": 0}, {"type": "note_off", "time": 33, "note": 62, "velocity": 97, "channel": 0}, {"type": "note_on", "time": 35, "note": 64, "velocity": 112, "channel": 0}, {"type": "note_off", "time": 60, "note": 64, "velocity": 112, "channel": 0}, {"type": "note_on", "time": 42, "note": 67, "velocity": 109, "channel": 0}, {"type": "note_off", "time": 62, "note": 67, "velocity": 109, "channel": 0}, {"type": "note_on", "time": 17, "note": 74, "velocity": 115, "channel": 0}, {"type": "note_off", "time": 75, "note": 74, "velocity": 115, "channel": 0}, {"type": "note_on", "time": 47, "note": 72, "velocity": 110, "channel": 0}, {"type": "note_off", "time": 54, "note": 72, "velocity": 110, "channel": 0}, {"type": "note_on", "time": 6, "note": 64, "velocity": 103, "channel": 0}, {"type": "note_off", "time": 91, "note": 64, "velocity": 103, "channel": 0}, {"type": "note_on", "time": 45, "note": 71, "velocity": 104, "channel": 0}, {"type": "note_off", "time": 41, "note": 71, "velocity": 104, "channel": 0}, {"type": "note_on", "time": 29, "note": 71, "velocity": 99, "channel": 0}, {"type": "note_off", "time": 44, "note": 71, "velocity": 99, "channel": 0}, {"type": "note_on", "time": 548, "note": 74, "velocity": 120, "channel": 0}, {"type": "note_off", "time": 60, "note": 74, "velocity": 120, "channel": 0}, {"type": "note_on", "time": 48, "note": 76, "velocity": 121, "channel": 0}, {"type": "note_off", "time": 78, "note": 76, "velocity": 121, "channel": 0}, {"type": "note_on", "time": 39, "note": 79, "velocity": 118, "channel": 0}, {"type": "note_off", "time": 60, "note": 79, "velocity": 118, "channel": 0}, {"type": "note_on", "time": 24, "note": 76, "velocity": 124, "channel": 0}, {"type": "note_off", "time": 40, "note": 76, "velocity": 124, "channel": 0}, {"type": "note_on", "time": 40, "note": 79, "velocity": 120, "channel": 0}, {"type": "note_off", "time": 68, "note": 79, "velocity": 120, "channel": 0}, {"type": "note_on", "time": 19, "note": 76, "velocity": 122, "channel": 0}, {"type": "note_off", "time": 50, "note": 76, "velocity": 122, "channel": 0}, {"type": "note_on", "time": 17, "note": 74, "velocity": 119, "channel": 0}, {"type": "note_off", "time": 64, "note": 74, "velocity": 119, "channel": 0}, {"type": "note_on", "time": 22, "note": 71, "velocity": 112, "channel": 0}, {"type": "note_off", "time": 49, "note": 71, "velocity": 112, "channel": 0}, {"type": "note_on", "time": 11, "note": 74, "velocity": 125, "channel": 0}, {"type": "note_off", "time": 59, "note": 74, "velocity": 125, "channel": 0}, {"type": "note_on", "time": 22, "note": 71, "velocity": 121, "channel": 0}, {"type": "note_off", "time": 46, "note": 71, "velocity": 121, "channel": 0}, {"type": "note_on", "time": 21, "note": 69, "velocity": 115, "channel": 0}, {"type": "note_off", "time": 62, "note": 69, "velocity": 115, "channel": 0}, {"type": "note_on", "time": 9, "note": 67, "velocity": 113, "channel": 0}, {"type": "note_off", "time": 57, "note": 67, "velocity": 113, "channel": 0}, {"type": "note_on", "time": 10, "note": 64, "velocity": 113, "channel": 0}, {"type": "note_off", "time": 72, "note": 64, "velocity": 113, "channel": 0}, {"type": "note_on", "time": 8, "note": 67, "velocity": 112, "channel": 0}, {"type": "note_off", "time": 60, "note": 67, "velocity": 112, "channel": 0}, {"type": "note_on", "time": 6, "note": 64, "velocity": 114, "channel": 0}, {"type": "note_off", "time": 83, "note": 64, "velocity": 114, "channel": 0}, {"type": "note_on", "time": 5, "note": 69, "velocity": 116, "channel": 0}, {"type": "note_off", "time": 102, "note": 69, "velocity": 116, "channel": 0}, {"type": "note_on", "time": 7, "note": 67, "velocity": 104, "channel": 0}, {"type": "note_off", "time": 68, "note": 67, "velocity": 104, "channel": 0}, {"type": "note_on", "time": 4, "note": 64, "velocity": 109, "channel": 0}, {"type": "note_off", "time": 73, "note": 64, "velocity": 109, "channel": 0}, {"type": "note_on", "time": 3, "note": 69, "velocity": 114, "channel": 0}, {"type": "note_off", "time": 96, "note": 69, "velocity": 114, "channel": 0}, {"type": "note_on", "time": 36, "note": 67, "velocity": 114, "channel": 0}, {"type": "note_off", "time": 66, "note": 67, "velocity": 114, "channel": 0}, {"type": "note_on", "time": 2, "note": 64, "velocity": 107, "channel": 0}, {"type": "note_off", "time": 73, "note": 64, "velocity": 107, "channel": 0}, {"type": "note_on", "time": 6, "note": 67, "velocity": 110, "channel": 0}, {"type": "note_off", "time": 77, "note": 67, "velocity": 110, "channel": 0}, {"type": "note_on", "time": 45, "note": 67, "velocity": 104, "channel": 0}, {"type": "note_off", "time": 218, "note": 67, "velocity": 104, "channel": 0}, {"type": "note_on", "time": 8, "note": 64, "velocity": 101, "channel": 0}, {"type": "note_off", "time": 56, "note": 64, "velocity": 101, "channel": 0}, {"type": "note_on", "time": 7, "note": 62, "velocity": 100, "channel": 0}, {"type": "note_off", "time": 47, "note": 62, "velocity": 100, "channel": 0}, {"type": "note_on", "time": 381, "note": 81, "velocity": 99, "channel": 0}, {"type": "note_off", "time": 573, "note": 81, "velocity": 99, "channel": 0}, {"type": "note_on", "time": 25, "note": 79, "velocity": 114, "channel": 0}, {"type": "note_off", "time": 64, "note": 79, "velocity": 114, "channel": 0}, {"type": "note_on", "time": 33, "note": 81, "velocity": 111, "channel": 0}, {"type": "note_off", "time": 73, "note": 81, "velocity": 111, "channel": 0}, {"type": "note_on", "time": 17, "note": 79, "velocity": 118, "channel": 0}, {"type": "note_off", "time": 73, "note": 79, "velocity": 118, "channel": 0}, {"type": "note_on", "time": 21, "note": 81, "velocity": 116, "channel": 0}, {"type": "note_off", "time": 66, "note": 81, "velocity": 116, "channel": 0}, {"type": "note_on", "time": 5, "note": 79, "velocity": 114, "channel": 0}, {"type": "note_off", "time": 74, "note": 79, "velocity": 114, "channel": 0}, {"type": "note_on", "time": 2, "note": 76, "velocity": 119, "channel": 0}, {"type": "note_off", "time": 83, "note": 76, "velocity": 119, "channel": 0}, {"type": "note_on", "time": 13, "note": 74, "velocity": 120, "channel": 0}, {"type": "note_off", "time": 65, "note": 74, "velocity": 120, "channel": 0}, {"type": "note_on", "time": 2, "note": 72, "velocity": 108, "channel": 0}, {"type": "note_off", "time": 69, "note": 72, "velocity": 108, "channel": 0}, {"type": "note_on", "time": 30, "note": 63, "velocity": 114, "channel": 0}, {"type": "note_off", "time": 56, "note": 63, "velocity": 114, "channel": 0}, {"type": "note_on", "time": 7, "note": 64, "velocity": 116, "channel": 0}, {"type": "note_off", "time": 75, "note": 64, "velocity": 116, "channel": 0}, {"type": "note_on", "time": 0, "note": 67, "velocity": 105, "channel": 0}, {"type": "note_off", "time": 50, "note": 67, "velocity": 105, "channel": 0}, {"type": "note_on", "time": 4, "note": 71, "velocity": 113, "channel": 0}, {"type": "note_off", "time": 113, "note": 71, "velocity": 113, "channel": 0}, {"type": "note_on", "time": 24, "note": 69, "velocity": 122, "channel": 0}, {"type": "note_off", "time": 49, "note": 69, "velocity": 122, "channel": 0}, {"type": "note_on", "time": 2, "note": 67, "velocity": 120, "channel": 0}, {"type": "note_off", "time": 58, "note": 67, "velocity": 120, "channel": 0}, {"type": "note_on", "time": 9, "note": 64, "velocity": 115, "channel": 0}, {"type": "note_off", "time": 81, "note": 64, "velocity": 115, "channel": 0}, {"type": "note_on", "time": 2, "note": 60, "velocity": 98, "channel": 0}, {"type": "note_off", "time": 83, "note": 60, "velocity": 98, "channel": 0}, {"type": "note_on", "time": 4, "note": 57, "velocity": 98, "channel": 0}, {"type": "note_off", "time": 77, "note": 57, "velocity": 98, "channel": 0}, {"type": "note_on", "time": 26, "note": 62, "velocity": 105, "channel": 0}, {"type": "note_off", "time": 101, "note": 62, "velocity": 105, "channel": 0}, {"type": "note_on", "time": 51, "note": 62, "velocity": 105, "channel": 0}, {"type": "note_off", "time": 80, "note": 62, "velocity": 105, "channel": 0}, {"type": "note_on", "time": 0, "note": 55, "velocity": 97, "channel": 0}, {"type": "note_off", "time": 77, "note": 55, "velocity": 97, "channel": 0}, {"type": "note_on", "time": 5, "note": 59, "velocity": 95, "channel": 0}, {"type": "note_off", "time": 202, "note": 59, "velocity": 95, "channel": 0}, {"type": "note_on", "time": 402, "note": 79, "velocity": 113, "channel": 0}, {"type": "note_off", "time": 18, "note": 79, "velocity": 113, "channel": 0}, {"type": "note_on", "time": 2, "note": 81, "velocity": 113, "channel": 0}, {"type": "note_off", "time": 39, "note": 81, "velocity": 113, "channel": 0}, {"type": "note_on", "time": 54, "note": 80, "velocity": 118, "channel": 0}, {"type": "note_off", "time": 50, "note": 80, "velocity": 118, "channel": 0}, {"type": "note_on", "time": 6, "note": 79, "velocity": 108, "channel": 0}, {"type": "note_off", "time": 36, "note": 79, "velocity": 108, "channel": 0}, {"type": "note_on", "time": 68, "note": 69, "velocity": 112, "channel": 0}, {"type": "note_off", "time": 44, "note": 69, "velocity": 112, "channel": 0}, {"type": "note_on", "time": 43, "note": 68, "velocity": 114, "channel": 0}, {"type": "note_off", "time": 43, "note": 68, "velocity": 114, "channel": 0}, {"type": "note_on", "time": 4, "note": 67, "velocity": 112, "channel": 0}, {"type": "note_off", "time": 60, "note": 67, "velocity": 112, "channel": 0}, {"type": "note_on", "time": 24, "note": 71, "velocity": 117, "channel": 0}, {"type": "note_off", "time": 57, "note": 71, "velocity": 117, "channel": 0}, {"type": "note_on", "time": 3, "note": 74, "velocity": 117, "channel": 0}, {"type": "note_off", "time": 67, "note": 74, "velocity": 117, "channel": 0}, {"type": "note_on", "time": 6, "note": 78, "velocity": 120, "channel": 0}, {"type": "note_off", "time": 58, "note": 78, "velocity": 120, "channel": 0}, {"type": "note_on", "time": 24, "note": 75, "velocity": 115, "channel": 0}, {"type": "note_off", "time": 33, "note": 75, "velocity": 115, "channel": 0}, {"type": "note_on", "time": 3, "note": 76, "velocity": 125, "channel": 0}, {"type": "note_off", "time": 52, "note": 76, "velocity": 125, "channel": 0}, {"type": "note_on", "time": 14, "note": 78, "velocity": 113, "channel": 0}, {"type": "note_off", "time": 45, "note": 78, "velocity": 113, "channel": 0}, {"type": "note_on", "time": 4, "note": 79, "velocity": 121, "channel": 0}, {"type": "note_off", "time": 64, "note": 79, "velocity": 121, "channel": 0}, {"type": "note_on", "time": 34, "note": 76, "velocity": 127, "channel": 0}, {"type": "note_off", "time": 57, "note": 76, "velocity": 127, "channel": 0}, {"type": "note_on", "time": 37, "note": 72, "velocity": 121, "channel": 0}, {"type": "note_off", "time": 64, "note": 72, "velocity": 121, "channel": 0}, {"type": "note_on", "time": 14, "note": 62, "velocity": 101, "channel": 0}, {"type": "note_off", "time": 28, "note": 62, "velocity": 101, "channel": 0}, {"type": "note_on", "time": 1, "note": 63, "velocity": 111, "channel": 0}, {"type": "note_off", "time": 67, "note": 63, "velocity": 111, "channel": 0}, {"type": "note_on", "time": 8, "note": 64, "velocity": 117, "channel": 0}, {"type": "note_off", "time": 60, "note": 64, "velocity": 117, "channel": 0}, {"type": "note_on", "time": 5, "note": 67, "velocity": 118, "channel": 0}, {"type": "note_off", "time": 30, "note": 67, "velocity": 118, "channel": 0}, {"type": "note_on", "time": 5, "note": 68, "velocity": 115, "channel": 0}, {"type": "note_off", "time": 40, "note": 68, "velocity": 115, "channel": 0}, {"type": "note_on", "time": 7, "note": 71, "velocity": 114, "channel": 0}, {"type": "note_off", "time": 58, "note": 71, "velocity": 114, "channel": 0}, {"type": "note_on", "time": 21, "note": 73, "velocity": 109, "channel": 0}, {"type": "note_off", "time": 30, "note": 73, "velocity": 109, "channel": 0}, {"type": "note_on", "time": 2, "note": 74, "velocity": 121, "channel": 0}, {"type": "note_off", "time": 69, "note": 74, "velocity": 121, "channel": 0}, {"type": "note_on", "time": 16, "note": 71, "velocity": 113, "channel": 0}, {"type": "note_off", "time": 48, "note": 71, "velocity": 113, "channel": 0}, {"type": "note_on", "time": 3, "note": 74, "velocity": 118, "channel": 0}, {"type": "note_off", "time": 51, "note": 74, "velocity": 118, "channel": 0}, {"type": "note_on", "time": 3, "note": 71, "velocity": 93, "channel": 0}, {"type": "note_off", "time": 353, "note": 71, "velocity": 93, "channel": 0}, {"type": "note_on", "time": 254, "note": 67, "velocity": 119, "channel": 0}, {"type": "note_off", "time": 84, "note": 67, "velocity": 119, "channel": 0}, {"type": "note_on", "time": 8, "note": 65, "velocity": 124, "channel": 0}, {"type": "note_off", "time": 86, "note": 65, "velocity": 124, "channel": 0}, {"type": "note_on", "time": 5, "note": 67, "velocity": 123, "channel": 0}, {"type": "note_off", "time": 94, "note": 67, "velocity": 123, "channel": 0}, {"type": "note_on", "time": 3, "note": 66, "velocity": 107, "channel": 0}, {"type": "note_off", "time": 18, "note": 66, "velocity": 107, "channel": 0}, {"type": "note_on", "time": 1, "note": 63, "velocity": 121, "channel": 0}, {"type": "note_off", "time": 76, "note": 63, "velocity": 121, "channel": 0}, {"type": "note_on", "time": 9, "note": 64, "velocity": 122, "channel": 0}, {"type": "note_off", "time": 77, "note": 64, "velocity": 122, "channel": 0}, {"type": "note_on", "time": 37, "note": 74, "velocity": 122, "channel": 0}, {"type": "note_off", "time": 73, "note": 74, "velocity": 122, "channel": 0}, {"type": "note_on", "time": 11, "note": 72, "velocity": 118, "channel": 0}, {"type": "note_off", "time": 63, "note": 72, "velocity": 118, "channel": 0}, {"type": "note_on", "time": 50, "note": 67, "velocity": 113, "channel": 0}, {"type": "note_off", "time": 84, "note": 67, "velocity": 113, "channel": 0}, {"type": "note_on", "time": 4, "note": 71, "velocity": 88, "channel": 0}, {"type": "note_off", "time": 295, "note": 71, "velocity": 88, "channel": 0}, {"type": "note_on", "time": 28, "note": 62, "velocity": 105, "channel": 0}, {"type": "note_off", "time": 73, "note": 62, "velocity": 105, "channel": 0}, {"type": "note_on", "time": 6, "note": 67, "velocity": 103, "channel": 0}, {"type": "note_off", "time": 56, "note": 67, "velocity": 103, "channel": 0}, {"type": "end_of_track", "time": 0}]]}