{"ticks_per_beat": 192, "tracks": [[{"type": "track_name", "name": "Melody", "time": 0}, {"type": "set_tempo", "tempo": 245901, "time": 0}, {"type": "key_signature", "key": "Bb", "time": 0}, {"type": "time_signature", "numerator": 4, "denominator": 4, "clocks_per_click": 24, "notated_32nd_notes_per_beat": 8, "time": 0}, {"type": "note_on", "time": 3258, "note": 69, "velocity": 112, "channel": 0}, {"type": "note_off", "time": 101, "note": 69, "velocity": 112, "channel": 0}, {"type": "note_on", "time": 86, "note": 69, "velocity": 115, "channel": 0}, {"type": "note_off", "time": 654, "note": 69, "velocity": 115, "channel": 0}, {"type": "note_on", "time": 36, "note": 62, "velocity": 115, "channel": 0}, {"type": "note_off", "time": 541, "note": 62, "velocity": 115, "channel": 0}, {"type": "note_on", "time": 22, "note": 64, "velocity": 119, "channel": 0}, {"type": "note_off", "time": 95, "note": 64, "velocity": 119, "channel": 0}, {"type": "note_on", "time": 22, "note": 65, "velocity": 111, "channel": 0}, {"type": "note_off", "time": 74, "note": 65, "velocity": 111, "channel": 0}, {"type": "note_on", "time": 14, "note": 67, "velocity": 110, "channel": 0}, {"type": "note_off", "time": 122, "note": 67, "velocity": 110, "channel": 0}, {"type": "note_on", "time": 204, "note": 58, "velocity": 98, "channel": 0}, {"type": "note_off", "time": 66, "note": 58, "velocity": 98, "channel": 0}, {"type": "note_on", "time": 3, "note": 60, "velocity": 111, "channel": 0}, {"type": "note_off", "time": 171, "note": 60, "velocity": 111, "channel": 0}, {"type": "note_on", "time": 9, "note": 62, "velocity": 120, "channel": 0}, {"type": "note_off", "time": 181, "note": 62, "velocity": 120, "channel": 0}, {"type": "note_on", "time": 14, "note": 64, "velocity": 122, "channel": 0}, {"type": "note_off", "time": 269, "note": 64, "velocity": 122, "channel": 0}, {"type": "note_on", "time": 23, "note": 60, "velocity": 105, "channel": 0}, {"type": "note_off", "time": 277, "note": 60, "velocity": 105, "channel": 0}, {"type": "note_on", "time": 967, "note": 65, "velocity": 113, "channel": 0}, {"type": "note_off", "time": 130, "note": 65, "velocity": 113, "channel": 0}, {"type": "note_on", "time": 1, "note": 64, "velocity": 120, "channel": 0}, {"type": "note_off", "time": 253, "note": 64, "velocity": 120, "channel": 0}, {"type": "note_on", "time": 6, "note": 60, "velocity": 110, "channel": 0}, {"type": "note_off", "time": 422, "note": 60, "velocity": 110, "channel": 0}, {"type": "note_on", "time": 1450, "note": 67, "velocity": 117, "channel": 0}, {"type": "note_off", "time": 111, "note": 67, "velocity": 117, "channel": 0}, {"type": "note_on", "time": 7, "note": 66, "velocity": 115, "channel": 0}, {"type": "note_off", "time": 250, "note": 66, "velocity": 115, "channel": 0}, {"type": "note_on", "time": 26, "note": 60, "velocity": 117, "channel": 0}, {"type": "note_off", "time": 295, "note": 60, "velocity": 117, "channel": 0}, {"type": "note_on", "time": 116, "note": 65, "velocity": 110, "channel": 0}, {"type": "note_off", "time": 41, "note": 65, "velocity": 110, "channel": 0}, {"type": "note_on", "time": 12, "note": 67, "velocity": 113, "channel": 0}, {"type": "note_off", "time": 63, "note": 67, "velocity": 113, "channel": 0}, {"type": "note_on", "time": 4, "note": 66, "velocity": 113, "channel": 0}, {"type": "note_off", "time": 532, "note": 66, "velocity": 113, "channel": 0}, {"type": "note_on", "time": 14, "note": 64, "velocity": 121, "channel": 0}, {"type": "note_off", "time": 86, "note": 64, "velocity": 121, "channel": 0}, {"type": "note_on", "time": 0, "note": 62, "velocity": 117, "channel": 0}, {"type": "note_off", "time": 105, "note": 62, "velocity": 117, "channel": 0}, {"type": "note_on", "time": 23, "note": 60, "velocity": 111, "channel": 0}, {"type": "note_off", "time": 237, "note": 60, "velocity": 111, "channel": 0}, {"type": "note_on", "time": 7, "note": 62, "velocity": 116, "channel": 0}, {"type": "note_off", "time": 70, "note": 62, "velocity": 116, "channel": 0}, {"type": "note_on", "time": 20, "note": 64, "velocity": 119, "channel": 0}, {"type": "note_off", "time": 87, "note": 64, "velocity": 119, "channel": 0}, {"type": "note_on", "time": 20, "note": 66, "velocity": 112, "channel": 0}, {"type": "note_off", "time": 611, "note": 66, "velocity": 112, "channel": 0}, {"type": "note_on", "time": 37, "note": 62, "velocity": 109, "channel": 0}, {"type": "note_off", "time": 267, "note": 62, "velocity": 109, "channel": 0}, {"type": "note_on", "time": 15, "note": 60, "velocity": 103, "channel": 0}, {"type": "note_off", "time": 838, "note": 60, "velocity": 103, "channel": 0}, {"type": "note_on", "time": 38, "note": 55, "velocity": 100, "channel": 0}, {"type": "note_off", "time": 111, "note": 55, "velocity": 100, "channel": 0}, {"type": "note_on", "time": 62, "note": 60, "velocity": 105, "channel": 0}, {"type": "note_off", "time": 260, "note": 60, "velocity": 105, "channel": 0}, {"type": "note_on", "time": 16, "note": 57, "velocity": 97, "channel": 0}, {"type": "note_off", "time": 135, "note": 57, "velocity": 97, "channel": 0}, {"type": "note_on", "time": 23, "note": 60, "velocity": 104, "channel": 0}, {"type": "note_off", "time": 300, "note": 60, "velocity": 104, "channel": 0}, {"type": "note_on", "time": 1522, "note": 61, "velocity": 118, "channel": 0}, {"type": "note_off", "time": 151, "note": 61, "velocity": 118, "channel": 0}, {"type": "note_on", "time": 11, "note": 60, "velocity": 118, "channel": 0}, {"type": "note_off", "time": 133, "note": 60, "velocity": 118, "channel": 0}, {"type": "note_on", "time": 9, "note": 61, "velocity": 119, "channel": 0}, {"type": "note_off", "time": 629, "note": 61, "velocity": 119, "channel": 0}, {"type": "note_on", "time": 374, "note": 60, "velocity": 117, "channel": 0}, {"type": "note_off", "time": 369, "note": 60, "velocity": 117, "channel": 0}, {"type": "note_on", "time": 23, "note": 59, "velocity": 104, "channel": 0}, {"type": "note_off", "time": 89, "note": 59, "velocity": 104, "channel": 0}, {"type": "note_on", "time": 25, "note": 56, "velocity": 107, "channel": 0}, {"type": "note_off", "time": 106, "note": 56, "velocity": 107, "channel": 0}, {"type": "note_on", "time": 54, "note": 56, "velocity": 103, "channel": 0}, {"type": "note_off", "time": 108, "note": 56, "velocity": 103, "channel": 0}, {"type": "note_on", "time": 15, "note": 53, "velocity": 97, "channel": 0}, {"type": "note_off", "time": 172, "note": 53, "velocity": 97, "channel": 0}, {"type": "note_on", "time": 755, "note": 58, "velocity": 100, "channel": 0}, {"type": "note_off", "time": 52, "note": 58, "velocity": 100, "channel": 0}, {"type": "note_on", "time": 13, "note": 56, "velocity": 100, "channel": 0}, {"type": "note_off", "time": 86, "note": 56, "velocity": 100, "channel": 0}, {"type": "note_on", "time": 11, "note": 59, "velocity": 104, "channel": 0}, {"type": "note_off", "time": 58, "note": 59, "velocity": 104, "channel": 0}, {"type": "note_on", "time": 12, "note": 63, "velocity": 124, "channel": 0}, {"type": "note_off", "time": 107, "note": 63, "velocity": 124, "channel": 0}, {"type": "note_on", "time": 7, "note": 65, "velocity": 120, "channel": 0}, {"type": "note_off", "time": 81, "note": 65, "velocity": 120, "channel": 0}, {"type": "note_on", "time": 16, "note": 68, "velocity": 120, "channel": 0}, {"type": "note_off", "time": 89, "note": 68, "velocity": 120, "channel": 0}, {"type": "note_on", "time": 7, "note": 70, "velocity": 120, "channel": 0}, {"type": "note_off", "time": 83, "note": 70, "velocity": 120, "channel": 0}, {"type": "note_on", "time": 9, "note": 71, "velocity": 117, "channel": 0}, {"type": "note_off", "time": 117, "note": 71, "velocity": 117, "channel": 0}, {"type": "note_on", "time": 13, "note": 68, "velocity": 100, "channel": 0}, {"type": "note_off", "time": 53, "note": 68, "velocity": 100, "channel": 0}, {"type": "note_on", "time": 18, "note": 70, "velocity": 121, "channel": 0}, {"type": "note_on", "time": 86, "note": 68, "velocity": 115, "channel": 0}, {"type": "note_off", "time": 0, "note": 70, "velocity": 121, "channel": 0}, {"type": "note_off", "time": 87, "note": 68, "velocity": 115, "channel": 0}, {"type": "note_on", "time": 16, "note": 63, "velocity": 120, "channel": 0}, {"type": "note_off", "time": 89, "note": 63, "velocity": 120, "channel": 0}, {"type": "note_on", "time": 0, "note": 68, "velocity": 117, "channel": 0}, {"type": "note_off", "time": 302, "note": 68, "velocity": 117, "channel": 0}, {"type": "note_on", "time": 3, "note": 67, "velocity": 113, "channel": 0}, {"type": "note_off", "time": 87, "note": 67, "velocity": 113, "channel": 0}, {"type": "note_on", "time": 14, "note": 66, "velocity": 112, "channel": 0}, {"type": "note_off", "time": 98, "note": 66, "velocity": 112, "channel": 0}, {"type": "note_on", "time": 7, "note": 65, "velocity": 108, "channel": 0}, {"type": "note_off", "time": 95, "note": 65, "velocity": 108, "channel": 0}, {"type": "note_on", "time": 6, "note": 64, "velocity": 108, "channel": 0}, {"type": "note_off", "time": 90, "note": 64, "velocity": 108, "channel": 0}, {"type": "note_on", "time": 9, "note": 62, "velocity": 116, "channel": 0}, {"type": "note_off", "time": 98, "note": 62, "velocity": 116, "channel": 0}, {"type": "note_on", "time": 13, "note": 61, "velocity": 113, "channel": 0}, {"type": "note_off", "time": 74, "note": 61, "velocity": 113, "channel": 0}, {"type": "note_on", "time": 2, "note": 60, "velocity": 104, "channel": 0}, {"type": "note_off", "time": 115, "note": 60, "velocity": 104, "channel": 0}, {"type": "note_on", "time": 1, "note": 59, "velocity": 98, "channel": 0}, {"type": "note_off", "time": 91, "note": 59, "velocity": 98, "channel": 0}, {"type": "note_on", "time": 0, "note": 58, "velocity": 97, "channel": 0}, {"type": "note_off", "time": 65, "note": 58, "velocity": 97, "channel": 0}, {"type": "note_on", "time": 10, "note": 60, "velocity": 105, "channel": 0}, {"type": "note_off", "time": 114, "note": 60, "velocity": 105, "channel": 0}, {"type": "note_on", "time": 6, "note": 57, "velocity": 94, "channel": 0}, {"type": "note_off", "time": 213, "note": 57, "velocity": 94, "channel": 0}, {"type": "note_on", "time": 35, "note": 58, "velocity": 95, "channel": 0}, {"type": "note_off", "time": 58, "note": 58, "velocity": 95, "channel": 0}, {"type": "note_on", "time": 9, "note": 60, "velocity": 99, "channel": 0}, {"type": "note_off", "time": 58, "note": 60, "velocity": 99, "channel": 0}, {"type": "note_on", "time": 3, "note": 62, "velocity": 114, "channel": 0}, {"type": "note_off", "time": 245, "note": 62, "velocity": 114, "channel": 0}, {"type": "note_on", "time": 0, "note": 64, "velocity": 114, "channel": 0}, {"type": "note_off", "time": 57, "note": 64, "velocity": 114, "channel": 0}, {"type": "note_on", "time": 9, "note": 66, "velocity": 110, "channel": 0}, {"type": "note_off", "time": 40, "note": 66, "velocity": 110, "channel": 0}, {"type": "note_on", "time": 0, "note": 67, "velocity": 118, "channel": 0}, {"type": "note_off", "time": 264, "note": 67, "velocity": 118, "channel": 0}, {"type": "note_on", "time": 3, "note": 69, "velocity": 114, "channel": 0}, {"type": "note_off", "time": 50, "note": 69, "velocity": 114, "channel": 0}, {"type": "note_on", "time": 4, "note": 70, "velocity": 114, "channel": 0}, {"type": "note_off", "time": 73, "note": 70, "velocity": 114, "channel": 0}, {"type": "note_on", "time": 3, "note": 72, "velocity": 117, "channel": 0}, {"type": "note_off", "time": 269, "note": 72, "velocity": 117, "channel": 0}, {"type": "note_on", "time": 7, "note": 74, "velocity": 108, "channel": 0}, {"type": "note_off", "time": 36, "note": 74, "velocity": 108, "channel": 0}, {"type": "note_on", "time": 6, "note": 72, "velocity": 106, "channel": 0}, {"type": "note_off", "time": 23, "note": 72, "velocity": 106, "channel": 0}, {"type": "note_on", "time": 19, "note": 70, "velocity": 111, "channel": 0}, {"type": "note_off", "time": 54, "note": 70, "velocity": 111, "channel": 0}, {"type": "note_on", "time": 12, "note": 69, "velocity": 112, "channel": 0}, {"type": "note_off", "time": 606, "note": 69, "velocity": 112, "channel": 0}, {"type": "note_on", "time": 4, "note": 67, "velocity": 110, "channel": 0}, {"type": "note_off", "time": 39, "note": 67, "velocity": 110, "channel": 0}, {"type": "note_on", "time": 9, "note": 65, "velocity": 110, "channel": 0}, {"type": "note_off", "time": 43, "note": 65, "velocity": 110, "channel": 0}, {"type": "note_on", "time": 4, "note": 64, "velocity": 112, "channel": 0}, {"type": "note_off", "time": 235, "note": 64, "velocity": 112, "channel": 0}, {"type": "note_on", "time": 1353, "note": 67, "velocity": 119, "channel": 0}, {"type": "note_off", "time": 85, "note": 67, "velocity": 119, "channel": 0}, {"type": "note_on", "time": 15, "note": 63, "velocity": 105, "channel": 0}, {"type": "note_off", "time": 89, "note": 63, "velocity": 105, "channel": 0}, {"type": "note_on", "time": 7, "note": 68, "velocity": 121, "channel": 0}, {"type": "note_off", "time": 69, "note": 68, "velocity": 121, "channel": 0}, {"type": "note_on", "time": 8, "note": 71, "velocity": 114, "channel": 0}, {"type": "note_off", "time": 92, "note": 71, "velocity": 114, "channel": 0}, {"type": "note_on", "time": 8, "note": 69, "velocity": 118, "channel": 0}, {"type": "note_off", "time": 82, "note": 69, "velocity": 118, "channel": 0}, {"type": "note_on", "time": 38, "note": 65, "velocity": 114, "channel": 0}, {"type": "note_off", "time": 160, "note": 65, "velocity": 114, "channel": 0}, {"type": "note_on", "time": 3, "note": 64, "velocity": 119, "channel": 0}, {"type": "note_off", "time": 90, "note": 64, "velocity": 119, "channel": 0}, {"type": "note_on", "time": 10, "note": 63, "velocity": 117, "channel": 0}, {"type": "note_off", "time": 110, "note": 63, "velocity": 117, "channel": 0}, {"type": "note_on", "time": 11, "note": 65, "velocity": 103, "channel": 0}, {"type": "note_off", "time": 38, "note": 65, "velocity": 103, "channel": 0}, {"type": "note_on", "time": 3, "note": 67, "velocity": 113, "channel": 0}, {"type": "note_off", "time": 109, "note": 67, "velocity": 113, "channel": 0}, {"type": "note_on", "time": 2, "note": 70, "velocity": 113, "channel": 0}, {"type": "note_off", "time": 78, "note": 70, "velocity": 113, "channel": 0}, {"type": "note_on", "time": 10, "note": 65, "velocity": 113, "channel": 0}, {"type": "note_off", "time": 102, "note": 65, "velocity": 113, "channel": 0}, {"type": "note_on", "time": 5, "note": 61, "velocity": 109, "channel": 0}, {"type": "note_off", "time": 66, "note": 61, "velocity": 109, "channel": 0}, {"type": "note_on", "time": 15, "note": 56, "velocity": 109, "channel": 0}, {"type": "note_off", "time": 151, "note": 56, "velocity": 109, "channel": 0}, {"type": "note_on", "time": 32, "note": 56, "velocity": 107, "channel": 0}, {"type": "note_off", "time": 105, "note": 56, "velocity": 107, "channel": 0}, {"type": "note_on", "time": 11, "note": 59, "velocity": 109, "channel": 0}, {"type": "note_off", "time": 70, "note": 59, "velocity": 109, "channel": 0}, {"type": "note_on", "time": 6, "note": 58, "velocity": 110, "channel": 0}, {"type": "note_off", "time": 95, "note": 58, "velocity": 110, "channel": 0}, {"type": "note_on", "time": 0, "note": 63, "velocity": 119, "channel": 0}, {"type": "note_off", "time": 287, "note": 63, "velocity": 119, "channel": 0}, {"type": "note_on", "time": 2, "note": 62, "velocity": 117, "channel": 0}, {"type": "note_off", "time": 108, "note": 62, "velocity": 117, "channel": 0}, {"type": "note_on", "time": 4, "note": 61, "velocity": 112, "channel": 0}, {"type": "note_off", "time": 87, "note": 61, "velocity": 112, "channel": 0}, {"type": "note_on", "time": 3, "note": 60, "velocity": 110, "channel": 0}, {"type": "note_off", "time": 92, "note": 60, "velocity": 110, "channel": 0}, {"type": "note_on", "time": 7, "note": 59, "velocity": 100, "channel": 0}, {"type": "note_off", "time": 79, "note": 59, "velocity": 100, "channel": 0}, {"type": "note_on", "time": 7, "note": 58, "velocity": 100, "channel": 0}, {"type": "note_off", "time": 96, "note": 58, "velocity": 100, "channel": 0}, {"type": "note_on", "time": 7, "note": 60, "velocity": 114, "channel": 0}, {"type": "note_off", "time": 97, "note": 60, "velocity": 114, "channel": 0}, {"type": "note_on", "time": 5, "note": 57, "velocity": 99, "channel": 0}, {"type": "note_on", "time": 112, "note": 54, "velocity": 97, "channel": 0}, {"type": "note_off", "time": 0, "note": 57, "velocity": 99, "channel": 0}, {"type": "note_off", "time": 44, "note": 54, "velocity": 97, "channel": 0}, {"type": "note_on", "time": 1, "note": 55, "velocity": 106, "channel": 0}, {"type": "note_off", "time": 127, "note": 55, "velocity": 106, "channel": 0}, {"type": "note_on", "time": 3, "note": 60, "velocity": 108, "channel": 0}, {"type": "note_off", "time": 100, "note": 60, "velocity": 108, "channel": 0}, {"type": "note_on", "time": 9, "note": 57, "velocity": 109, "channel": 0}, {"type": "note_off", "time": 75, "note": 57, "velocity": 109, "channel": 0}, {"type": "note_on", "time": 0, "note": 58, "velocity": 105, "channel": 0}, {"type": "note_off", "time": 84, "note": 58, "velocity": 105, "channel": 0}, {"type": "note_on", "time": 23, "note": 62, "velocity": 117, "channel": 0}, {"type": "note_off", "time": 99, "note": 62, "velocity": 117, "channel": 0}, {"type": "note_on", "time": 26, "note": 65, "velocity": 100, "channel": 0}, {"type": "note_off", "time": 78, "note": 65, "velocity": 100, "channel": 0}, {"type": "note_on", "time": 0, "note": 69, "velocity": 116, "channel": 0}, {"type": "note_off", "time": 109, "note": 69, "velocity": 116, "channel": 0}, {"type": "note_on", "time": 6, "note": 66, "velocity": 96, "channel": 0}, {"type": "note_off", "time": 43, "note": 66, "velocity": 96, "channel": 0}, {"type": "note_on", "time": 0, "note": 67, "velocity": 108, "channel": 0}, {"type": "note_off", "time": 97, "note": 67, "velocity": 108, "channel": 0}, {"type": "note_on", "time": 7, "note": 69, "velocity": 115, "channel": 0}, {"type": "note_off", "time": 85, "note": 69, "velocity": 115, "channel": 0}, {"type": "note_on", "time": 3, "note": 70, "velocity": 111, "channel": 0}, {"type": "note_off", "time": 60, "note": 70, "velocity": 111, "channel": 0}, {"type": "note_on", "time": 74, "note": 62, "velocity": 116, "channel": 0}, {"type": "note_off", "time": 69, "note": 62, "velocity": 116, "channel": 0}, {"type": "note_on", "time": 9, "note": 63, "velocity": 101, "channel": 0}, {"type": "note_off", "time": 77, "note": 63, "velocity": 101, "channel": 0}, {"type": "note_on", "time": 117, "note": 69, "velocity": 116, "channel": 0}, {"type": "note_off", "time": 181, "note": 69, "velocity": 116, "channel": 0}, {"type": "note_on", "time": 8, "note": 67, "velocity": 111, "channel": 0}, {"type": "note_off", "time": 92, "note": 67, "velocity": 111, "channel": 0}, {"type": "note_on", "time": 9, "note": 65, "velocity": 110, "channel": 0}, {"type": "note_off", "time": 95, "note": 65, "velocity": 110, "channel": 0}, {"type": "note_on", "time": 1, "note": 64, "velocity": 120, "channel": 0}, {"type": "note_off", "time": 250, "note": 64, "velocity": 120, "channel": 0}, {"type": "note_on", "time": 50, "note": 62, "velocity": 117, "channel": 0}, {"type": "note_off", "time": 250, "note": 62, "velocity": 117, "channel": 0}, {"type": "note_on", "time": 12, "note": 60, "velocity": 109, "channel": 0}, {"type": "note_off", "time": 86, "note": 60, "velocity": 109, "channel": 0}, {"type": "note_on", "time": 15, "note": 58, "velocity": 97, "channel": 0}, {"type": "note_off", "time": 101, "note": 58, "velocity": 97, "channel": 0}, {"type": "note_on", "time": 3, "note": 57, "velocity": 102, "channel": 0}, {"type": "note_off", "time": 210, "note": 57, "velocity": 102, "channel": 0}, {"type": "note_on", "time": 69, "note": 57, "velocity": 101, "channel": 0}, {"type": "note_off", "time": 304, "note": 57, "velocity": 101, "channel": 0}, {"type": "note_on", "time": 15, "note": 58, "velocity": 101, "channel": 0}, {"type": "note_off", "time": 60, "note": 58, "velocity": 101, "channel": 0}, {"type": "note_on", "time": 0, "note": 60, "velocity": 110, "channel": 0}, {"type": "note_off", "time": 50, "note": 60, "velocity": 110, "channel": 0}, {"type": "note_on", "time": 5, "note": 62, "velocity": 109, "channel": 0}, {"type": "note_off", "time": 26, "note": 62, "velocity": 109, "channel": 0}, {"type": "note_on", "time": 8, "note": 64, "velocity": 118, "channel": 0}, {"type": "note_off", "time": 58, "note": 64, "velocity": 118, "channel": 0}, {"type": "note_on", "time": 4, "note": 65, "velocity": 110, "channel": 0}, {"type": "note_off", "time": 21, "note": 65, "velocity": 110, "channel": 0}, {"type": "note_on", "time": 17, "note": 69, "velocity": 114, "channel": 0}, {"type": "note_off", "time": 39, "note": 69, "velocity": 114, "channel": 0}, {"type": "note_on", "time": 3, "note": 67, "velocity": 113, "channel": 0}, {"type": "note_off", "time": 31, "note": 67, "velocity": 113, "channel": 0}, {"type": "note_on", "time": 0, "note": 66, "velocity": 115, "channel": 0}, {"type": "note_off", "time": 83, "note": 66, "velocity": 115, "channel": 0}, {"type": "note_on", "time": 0, "note": 64, "velocity": 116, "channel": 0}, {"type": "note_off", "time": 36, "note": 64, "velocity": 116, "channel": 0}, {"type": "note_on", "time": 8, "note": 62, "velocity": 113, "channel": 0}, {"type": "note_off", "time": 30, "note": 62, "velocity": 113, "channel": 0}, {"type": "note_on", "time": 9, "note": 60, "velocity": 107, "channel": 0}, {"type": "note_off", "time": 47, "note": 60, "velocity": 107, "channel": 0}, {"type": "note_on", "time": 0, "note": 58, "velocity": 102, "channel": 0}, {"type": "note_off", "time": 54, "note": 58, "velocity": 102, "channel": 0}, {"type": "note_on", "time": 6, "note": 57, "velocity": 95, "channel": 0}, {"type": "note_off", "time": 106, "note": 57, "velocity": 95, "channel": 0}, {"type": "note_on", "time": 990, "note": 46, "velocity": 115, "channel": 0}, {"type": "note_off", "time": 103, "note": 46, "velocity": 115, "channel": 0}, {"type": "note_on", "time": 5, "note": 49, "velocity": 109, "channel": 0}, {"type": "note_off", "time": 70, "note": 49, "velocity": 109, "channel": 0}, {"type": "note_on", "time": 6, "note": 53, "velocity": 110, "channel": 0}, {"type": "note_off", "time": 86, "note": 53, "velocity": 110, "channel": 0}, {"type": "note_on", "time": 18, "note": 60, "velocity": 122, "channel": 0}, {"type": "note_off", "time": 63, "note": 60, "velocity": 122, "channel": 0}, {"type": "note_on", "time": 2, "note": 61, "velocity": 112, "channel": 0}, {"type": "note_off", "time": 106, "note": 61, "velocity": 112, "channel": 0}, {"type": "note_on", "time": 0, "note": 63, "velocity": 124, "channel": 0}, {"type": "note_off", "time": 98, "note": 63, "velocity": 124, "channel": 0}, {"type": "note_on", "time": 3, "note": 65, "velocity": 119, "channel": 0}, {"type": "note_off", "time": 91, "note": 65, "velocity": 119, "channel": 0}, {"type": "note_on", "time": 1, "note": 67, "velocity": 118, "channel": 0}, {"type": "note_off", "time": 86, "note": 67, "velocity": 118, "channel": 0}, {"type": "note_on", "time": 3, "note": 68, "velocity": 118, "channel": 0}, {"type": "note_off", "time": 89, "note": 68, "velocity": 118, "channel": 0}, {"type": "note_on", "time": 10, "note": 70, "velocity": 120, "channel": 0}, {"type": "note_off", "time": 91, "note": 70, "velocity": 120, "channel": 0}, {"type": "note_on", "time": 3, "note": 72, "velocity": 114, "channel": 0}, {"type": "note_off", "time": 86, "note": 72, "velocity": 114, "channel": 0}, {"type": "note_on", "time": 23, "note": 73, "velocity": 111, "channel": 0}, {"type": "note_off", "time": 77, "note": 73, "velocity": 111, "channel": 0}, {"type": "note_on", "time": 11, "note": 75, "velocity": 113, "channel": 0}, {"type": "note_off", "time": 82, "note": 75, "velocity": 113, "channel": 0}, {"type": "note_on", "time": 20, "note": 72, "velocity": 98, "channel": 0}, {"type": "note_off", "time": 70, "note": 72, "velocity": 98, "channel": 0}, {"type": "note_on", "time": 4, "note": 73, "velocity": 113, "channel": 0}, {"type": "note_off", "time": 97, "note": 73, "velocity": 113, "channel": 0}, {"type": "note_on", "time": 5, "note": 73, "velocity": 114, "channel": 0}, {"type": "note_off", "time": 136, "note": 73, "velocity": 114, "channel": 0}, {"type": "note_on", "time": 0, "note": 72, "velocity": 114, "channel": 0}, {"type": "note_off", "time": 53, "note": 72, "velocity": 114, "channel": 0}, {"type": "note_on", "time": 8, "note": 70, "velocity": 119, "channel": 0}, {"type": "note_off", "time": 80, "note": 70, "velocity": 119, "channel": 0}, {"type": "note_on", "time": 11, "note": 69, "velocity": 118, "channel": 0}, {"type": "note_off", "time": 97, "note": 69, "velocity": 118, "channel": 0}, {"type": "note_on", "time": 0, "note": 72, "velocity": 113, "channel": 0}, {"type": "note_off", "time": 78, "note": 72, "velocity": 113, "channel": 0}, {"type": "note_on", "time": 7, "note": 70, "velocity": 119, "channel": 0}, {"type": "note_off", "time": 103, "note": 70, "velocity": 119, "channel": 0}, {"type": "note_on", "time": 0, "note": 68, "velocity": 119, "channel": 0}, {"type": "note_off", "time": 93, "note": 68, "velocity": 119, "channel": 0}, {"type": "note_on", "time": 7, "note": 67, "velocity": 115, "channel": 0}, {"type": "note_off", "time": 73, "note": 67, "velocity": 115, "channel": 0}, {"type": "note_on", "time": 3, "note": 67, "velocity": 111, "channel": 0}, {"type": "note_off", "time": 57, "note": 67, "velocity": 111, "channel": 0}, {"type": "note_on", "time": 7, "note": 66, "velocity": 111, "channel": 0}, {"type": "note_off", "time": 115, "note": 66, "velocity": 111, "channel": 0}, {"type": "note_on", "time": 15, "note": 66, "velocity": 115, "channel": 0}, {"type": "note_off", "time": 87, "note": 66, "velocity": 115, "channel": 0}, {"type": "note_on", "time": 6, "note": 65, "velocity": 114, "channel": 0}, {"type": "note_off", "time": 78, "note": 65, "velocity": 114, "channel": 0}, {"type": "note_on", "time": 5, "note": 65, "velocity": 112, "channel": 0}, {"type": "note_off", "time": 54, "note": 65, "velocity": 112, "channel": 0}, {"type": "note_on", "time": 0, "note": 64, "velocity": 112, "channel": 0}, {"type": "note_off", "time": 26, "note": 64, "velocity": 112, "channel": 0}, {"type": "note_on", "time": 6, "note": 63, "velocity": 117, "channel": 0}, {"type": "note_off", "time": 59, "note": 63, "velocity": 117, "channel": 0}, {"type": "note_on", "time": 10, "note": 62, "velocity": 112, "channel": 0}, {"type": "note_off", "time": 64, "note": 62, "velocity": 112, "channel": 0}, {"type": "note_on", "time": 10, "note": 62, "velocity": 120, "channel": 0}, {"type": "note_off", "time": 74, "note": 62, "velocity": 120, "channel": 0}, {"type": "note_on", "time": 3, "note": 61, "velocity": 114, "channel": 0}, {"type": "note_off", "time": 96, "note": 61, "velocity": 114, "channel": 0}, {"type": "note_on", "time": 8, "note": 60, "velocity": 113, "channel": 0}, {"type": "note_off", "time": 99, "note": 60, "velocity": 113, "channel": 0}, {"type": "note_on", "time": 0, "note": 59, "velocity": 106, "channel": 0}, {"type": "note_off", "time": 81, "note": 59, "velocity": 106, "channel": 0}, {"type": "note_on", "time": 13, "note": 57, "velocity": 96, "channel": 0}, {"type": "note_off", "time": 81, "note": 57, "velocity": 96, "channel": 0}, {"type": "note_on", "time": 6, "note": 58, "velocity": 109, "channel": 0}, {"type": "note_off", "time": 88, "note": 58, "velocity": 109, "channel": 0}, {"type": "note_on", "time": 20, "note": 56, "velocity": 107, "channel": 0}, {"type": "note_off", "time": 80, "note": 56, "velocity": 107, "channel": 0}, {"type": "note_on", "time": 3, "note": 57, "velocity": 111, "channel": 0}, {"type": "note_off", "time": 87, "note": 57, "velocity": 111, "channel": 0}, {"type": "note_on", "time": 7, "note": 55, "velocity": 107, "channel": 0}, {"type": "note_off", "time": 80, "note": 55, "velocity": 107, "channel": 0}, {"type": "note_on", "time": 7, "note": 54, "velocity": 115, "channel": 0}, {"type": "note_off", "time": 93, "note": 54, "velocity": 115, "channel": 0}, {"type": "note_on", "time": 86, "note": 55, "velocity": 107, "channel": 0}, {"type": "note_off", "time": 94, "note": 55, "velocity": 107, "channel": 0}, {"type": "note_on", "time": 15, "note": 57, "velocity": 108, "channel": 0}, {"type": "note_off", "time": 90, "note": 57, "velocity": 108, "channel": 0}, {"type": "note_on", "time": 2, "note": 58, "velocity": 109, "channel": 0}, {"type": "note_off", "time": 178, "note": 58, "velocity": 109, "channel": 0}, {"type": "note_on", "time": 18, "note": 60, "velocity": 113, "channel": 0}, {"type": "note_off", "time": 78, "note": 60, "velocity": 113, "channel": 0}, {"type": "note_on", "time": 8, "note": 62, "velocity": 120, "channel": 0}, {"type": "note_off", "time": 86, "note": 62, "velocity": 120, "channel": 0}, {"type": "note_on", "time": 7, "note": 64, "velocity": 121, "channel": 0}, {"type": "note_off", "time": 198, "note": 64, "velocity": 121, "channel": 0}, {"type": "note_on", "time": 6, "note": 66, "velocity": 114, "channel": 0}, {"type": "note_off", "time": 94, "note": 66, "velocity": 114, "channel": 0}, {"type": "note_on", "time": 11, "note": 67, "velocity": 112, "channel": 0}, {"type": "note_off", "time": 90, "note": 67, "velocity": 112, "channel": 0}, {"type": "note_on", "time": 24, "note": 69, "velocity": 118, "channel": 0}, {"type": "note_off", "time": 168, "note": 69, "velocity": 118, "channel": 0}, {"type": "note_on", "time": 5, "note": 70, "velocity": 112, "channel": 0}, {"type": "note_off", "time": 120, "note": 70, "velocity": 112, "channel": 0}, {"type": "note_on", "time": 0, "note": 72, "velocity": 112, "channel": 0}, {"type": "note_off", "time": 176, "note": 72, "velocity": 112, "channel": 0}, {"type": "note_on", "time": 3, "note": 69, "velocity": 112, "channel": 0}, {"type": "note_off", "time": 107, "note": 69, "velocity": 112, "channel": 0}, {"type": "note_on", "time": 23, "note": 67, "velocity": 108, "channel": 0}, {"type": "note_off", "time": 145, "note": 67, "velocity": 108, "channel": 0}, {"type": "note_on", "time": 17, "note": 62, "velocity": 98, "channel": 0}, {"type": "note_off", "time": 95, "note": 62, "velocity": 98, "channel": 0}, {"type": "note_on", "time": 5, "note": 60, "velocity": 98, "channel": 0}, {"type": "note_off", "time": 108, "note": 60, "velocity": 98, "channel": 0}, {"type": "note_on", "time": 747, "note": 67, "velocity": 121, "channel": 0}, {"type": "note_off", "time": 54, "note": 67, "velocity": 121, "channel": 0}, {"type": "note_on", "time": 3, "note": 68, "velocity": 127, "channel": 0}, {"type": "note_off", "time": 55, "note": 68, "velocity": 127, "channel": 0}, {"type": "note_on", "time": 7, "note": 69, "velocity": 118, "channel": 0}, {"type": "note_off", "time": 994, "note": 69, "velocity": 118, "channel": 0}, {"type": "note_on", "time": 35, "note": 73, "velocity": 113, "channel": 0}, {"type": "note_off", "time": 101, "note": 73, "velocity": 113, "channel": 0}, {"type": "note_on", "time": 32, "note": 66, "velocity": 96, "channel": 0}, {"type": "note_off", "time": 40, "note": 66, "velocity": 96, "channel": 0}, {"type": "note_on", "time": 12, "note": 69, "velocity": 119, "channel": 0}, {"type": "note_off", "time": 81, "note": 69, "velocity": 119, "channel": 0}, {"type": "note_on", "time": 23, "note": 72, "velocity": 109, "channel": 0}, {"type": "note_off", "time": 97, "note": 72, "velocity": 109, "channel": 0}, {"type": "note_on", "time": 2, "note": 70, "velocity": 116, "channel": 0}, {"type": "note_off", "time": 234, "note": 70, "velocity": 116, "channel": 0}, {"type": "note_on", "time": 5, "note": 73, "velocity": 99, "channel": 0}, {"type": "note_off", "time": 54, "note": 73, "velocity": 99, "channel": 0}, {"type": "note_on", "time": 22, "note": 72, "velocity": 113, "channel": 0}, {"type": "note_off", "time": 133, "note": 72, "velocity": 113, "channel": 0}, {"type": "note_on", "time": 52, "note": 65, "velocity": 96, "channel": 0}, {"type": "note_off", "time": 43, "note": 65, "velocity": 96, "channel": 0}, {"type": "note_on", "time": 3, "note": 71, "velocity": 112, "channel": 0}, {"type": "note_off", "time": 111, "note": 71, "velocity": 112, "channel": 0}, {"type": "note_on", "time": 57, "note": 70, "velocity": 118, "channel": 0}, {"type": "note_off", "time": 129, "note": 70, "velocity": 118, "channel": 0}, {"type": "note_on", "time": 49, "note": 65, "velocity": 115, "channel": 0}, {"type": "note_off", "time": 132, "note": 65, "velocity": 115, "channel": 0}, {"type": "note_on", "time": 19, "note": 70, "velocity": 113, "channel": 0}, {"type": "note_off", "time": 65, "note": 70, "velocity": 113, "channel": 0}, {"type": "note_on", "time": 14, "note": 69, "velocity": 118, "channel": 0}, {"type": "note_off", "time": 101, "note": 69, "velocity": 118, "channel": 0}, {"type": "note_on", "time": 15, "note": 69, "velocity": 106, "channel": 0}, {"type": "note_off", "time": 183, "note": 69, "velocity": 106, "channel": 0}, {"type": "note_on", "time": 11, "note": 72, "velocity": 110, "channel": 0}, {"type": "note_off", "time": 63, "note": 72, "velocity": 110, "channel": 0}, {"type": "note_on", "time": 12, "note": 67, "velocity": 113, "channel": 0}, {"type": "note_off", "time": 126, "note": 67, "velocity": 113, "channel": 0}, {"type": "note_on", "time": 3, "note": 68, "velocity": 114, "channel": 0}, {"type": "note_off", "time": 91, "note": 68, "velocity": 114, "channel": 0}, {"type": "note_on", "time": 11, "note": 67, "velocity": 110, "channel": 0}, {"type": "note_off", "time": 38, "note": 67, "velocity": 110, "channel": 0}, {"type": "note_on", "time": 9, "note": 66, "velocity": 112, "channel": 0}, {"type": "note_off", "time": 46, "note": 66, "velocity": 112, "channel": 0}, {"type": "note_on", "time": 0, "note": 71, "velocity": 114, "channel": 0}, {"type": "note_off", "time": 60, "note": 71, "velocity": 114, "channel": 0}, {"type": "note_on", "time": 3, "note": 69, "velocity": 117, "channel": 0}, {"type": "note_off", "time": 108, "note": 69, "velocity": 117, "channel": 0}, {"type": "note_on", "time": 2, "note": 66, "velocity": 111, "channel": 0}, {"type": "note_off", "time": 140, "note": 66, "velocity": 111, "channel": 0}, {"type": "note_on", "time": 19, "note": 64, "velocity": 124, "channel": 0}, {"type": "note_off", "time": 89, "note": 64, "velocity": 124, "channel": 0}, {"type": "note_on", "time": 11, "note": 63, "velocity": 119, "channel": 0}, {"type": "note_off", "time": 112, "note": 63, "velocity": 119, "channel": 0}, {"type": "note_on", "time": 82, "note": 69, "velocity": 117, "channel": 0}, {"type": "note_off", "time": 94, "note": 69, "velocity": 117, "channel": 0}, {"type": "note_on", "time": 21, "note": 71, "velocity": 103, "channel": 0}, {"type": "note_off", "time": 57, "note": 71, "velocity": 103, "channel": 0}, {"type": "note_on", "time": 19, "note": 70, "velocity": 110, "channel": 0}, {"type": "note_off", "time": 104, "note": 70, "velocity": 110, "channel": 0}, {"type": "note_on", "time": 5, "note": 62, "velocity": 122, "channel": 0}, {"type": "note_off", "time": 63, "note": 62, "velocity": 122, "channel": 0}, {"type": "note_on", "time": 9, "note": 61, "velocity": 121, "channel": 0}, {"type": "note_off", "time": 84, "note": 61, "velocity": 121, "channel": 0}, {"type": "note_on", "time": 18, "note": 68, "velocity": 120, "channel": 0}, {"type": "note_off", "time": 78, "note": 68, "velocity": 120, "channel": 0}, {"type": "note_on", "time": 19, "note": 63, "velocity": 122, "channel": 0}, {"type": "note_off", "time": 89, "note": 63, "velocity": 122, "channel": 0}, {"type": "note_on", "time": 11, "note": 61, "velocity": 116, "channel": 0}, {"type": "note_off", "time": 66, "note": 61, "velocity": 116, "channel": 0}, {"type": "note_on", "time": 26, "note": 56, "velocity": 117, "channel": 0}, {"type": "note_off", "time": 123, "note": 56, "velocity": 117, "channel": 0}, {"type": "note_on", "time": 61, "note": 58, "velocity": 111, "channel": 0}, {"type": "note_off", "time": 84, "note": 58, "velocity": 111, "channel": 0}, {"type": "note_on", "time": 92, "note": 56, "velocity": 109, "channel": 0}, {"type": "note_off", "time": 95, "note": 56, "velocity": 109, "channel": 0}, {"type": "note_on", "time": 15, "note": 58, "velocity": 108, "channel": 0}, {"type": "note_off", "time": 66, "note": 58, "velocity": 108, "channel": 0}, {"type": "note_on", "time": 35, "note": 59, "velocity": 102, "channel": 0}, {"type": "note_off", "time": 81, "note": 59, "velocity": 102, "channel": 0}, {"type": "note_on", "time": 5, "note": 61, "velocity": 116, "channel": 0}, {"type": "note_off", "time": 87, "note": 61, "velocity": 116, "channel": 0}, {"type": "note_on", "time": 0, "note": 63, "velocity": 114, "channel": 0}, {"type": "note_off", "time": 87, "note": 63, "velocity": 114, "channel": 0}, {"type": "note_on", "time": 30, "note": 65, "velocity": 115, "channel": 0}, {"type": "note_off", "time": 50, "note": 65, "velocity": 115, "channel": 0}, {"type": "note_on", "time": 37, "note": 66, "velocity": 109, "channel": 0}, {"type": "note_off", "time": 83, "note": 66, "velocity": 109, "channel": 0}, {"type": "note_on", "time": 21, "note": 70, "velocity": 110, "channel": 0}, {"type": "note_off", "time": 64, "note": 70, "velocity": 110, "channel": 0}, {"type": "note_on", "time": 10, "note": 75, "velocity": 106, "channel": 0}, {"type": "note_off", "time": 210, "note": 75, "velocity": 106, "channel": 0}, {"type": "note_on", "time": 7, "note": 68, "velocity": 113, "channel": 0}, {"type": "note_off", "time": 156, "note": 68, "velocity": 113, "channel": 0}, {"type": "note_on", "time": 1, "note": 73, "velocity": 109, "channel": 0}, {"type": "note_off", "time": 131, "note": 73, "velocity": 109, "channel": 0}, {"type": "note_on", "time": 737, "note": 73, "velocity": 119, "channel": 0}, {"type": "note_off", "time": 55, "note": 73, "velocity": 119, "channel": 0}, {"type": "note_on", "time": 4, "note": 74, "velocity": 10, "channel": 0}, {"type": "note_off", "time": 247, "note": 74, "velocity": 10, "channel": 0}, {"type": "note_on", "time": 0, "note": 72, "velocity": 118, "channel": 0}, {"type": "note_off", "time": 47, "note": 72, "velocity": 118, "channel": 0}, {"type": "note_on", "time": 13, "note": 70, "velocity": 122, "channel": 0}, {"type": "note_off", "time": 57, "note": 70, "velocity": 122, "channel": 0}, {"type": "note_on", "time": 10, "note": 69, "velocity": 117, "channel": 0}, {"type": "note_off", "time": 786, "note": 69, "velocity": 117, "channel": 0}, {"type": "note_on", "time": 36, "note": 67, "velocity": 116, "channel": 0}, {"type": "note_off", "time": 96, "note": 67, "velocity": 116, "channel": 0}, {"type": "note_on", "time": 16, "note": 67, "velocity": 110, "channel": 0}, {"type": "note_off", "time": 55, "note": 67, "velocity": 110, "channel": 0}, {"type": "note_on", "time": 15, "note": 69, "velocity": 119, "channel": 0}, {"type": "note_off", "time": 121, "note": 69, "velocity": 119, "channel": 0}, {"type": "note_on", "time": 14, "note": 69, "velocity": 114, "channel": 0}, {"type": "note_off", "time": 60, "note": 69, "velocity": 114, "channel": 0}, {"type": "note_on", "time": 6, "note": 70, "velocity": 114, "channel": 0}, {"type": "note_off", "time": 70, "note": 70, "velocity": 114, "channel": 0}, {"type": "note_on", "time": 20, "note": 70, "velocity": 119, "channel": 0}, {"type": "note_off", "time": 90, "note": 70, "velocity": 119, "channel": 0}, {"type": "note_on", "time": 6, "note": 72, "velocity": 116, "channel": 0}, {"type": "note_off", "time": 106, "note": 72, "velocity": 116, "channel": 0}, {"type": "note_on", "time": 24, "note": 72, "velocity": 107, "channel": 0}, {"type": "note_off", "time": 66, "note": 72, "velocity": 107, "channel": 0}, {"type": "note_on", "time": 16, "note": 72, "velocity": 120, "channel": 0}, {"type": "note_off", "time": 92, "note": 72, "velocity": 120, "channel": 0}, {"type": "note_on", "time": 11, "note": 71, "velocity": 112, "channel": 0}, {"type": "note_off", "time": 63, "note": 71, "velocity": 112, "channel": 0}, {"type": "note_on", "time": 18, "note": 71, "velocity": 110, "channel": 0}, {"type": "note_off", "time": 71, "note": 71, "velocity": 110, "channel": 0}, {"type": "note_on", "time": 9, "note": 72, "velocity": 116, "channel": 0}, {"type": "note_off", "time": 92, "note": 72, "velocity": 116, "channel": 0}, {"type": "note_on", "time": 16, "note": 71, "velocity": 104, "channel": 0}, {"type": "note_off", "time": 69, "note": 71, "velocity": 104, "channel": 0}, {"type": "note_on", "time": 12, "note": 71, "velocity": 110, "channel": 0}, {"type": "note_off", "time": 73, "note": 71, "velocity": 110, "channel": 0}, {"type": "note_on", "time": 9, "note": 70, "velocity": 106, "channel": 0}, {"type": "note_off", "time": 75, "note": 70, "velocity": 106, "channel": 0}, {"type": "note_on", "time": 6, "note": 71, "velocity": 108, "channel": 0}, {"type": "note_off", "time": 87, "note": 71, "velocity": 108, "channel": 0}, {"type": "note_on", "time": 13, "note": 70, "velocity": 110, "channel": 0}, {"type": "note_off", "time": 67, "note": 70, "velocity": 110, "channel": 0}, {"type": "note_on", "time": 35, "note": 70, "velocity": 108, "channel": 0}, {"type": "note_off", "time": 95, "note": 70, "velocity": 108, "channel": 0}, {"type": "note_on", "time": 5, "note": 72, "velocity": 116, "channel": 0}, {"type": "note_off", "time": 100, "note": 72, "velocity": 116, "channel": 0}, {"type": "note_on", "time": 4, "note": 70, "velocity": 114, "channel": 0}, {"type": "note_off", "time": 82, "note": 70, "velocity": 114, "channel": 0}, {"type": "note_on", "time": 19, "note": 69, "velocity": 115, "channel": 0}, {"type": "note_off", "time": 69, "note": 69, "velocity": 115, "channel": 0}, {"type": "note_on", "time": 13, "note": 68, "velocity": 117, "channel": 0}, {"type": "note_off", "time": 99, "note": 68, "velocity": 117, "channel": 0}, {"type": "note_on", "time": 3, "note": 67, "velocity": 113, "channel": 0}, {"type": "note_off", "time": 57, "note": 67, "velocity": 113, "channel": 0}, {"type": "note_on", "time": 28, "note": 71, "velocity": 108, "channel": 0}, {"type": "note_off", "time": 96, "note": 71, "velocity": 108, "channel": 0}, {"type": "note_on", "time": 16, "note": 70, "velocity": 113, "channel": 0}, {"type": "note_off", "time": 94, "note": 70, "velocity": 113, "channel": 0}, {"type": "note_on", "time": 0, "note": 66, "velocity": 115, "channel": 0}, {"type": "note_off", "time": 77, "note": 66, "velocity": 115, "channel": 0}, {"type": "note_on", "time": 15, "note": 65, "velocity": 112, "channel": 0}, {"type": "note_off", "time": 84, "note": 65, "velocity": 112, "channel": 0}, {"type": "note_on", "time": 0, "note": 64, "velocity": 125, "channel": 0}, {"type": "note_off", "time": 81, "note": 64, "velocity": 125, "channel": 0}, {"type": "note_on", "time": 4, "note": 63, "velocity": 118, "channel": 0}, {"type": "note_off", "time": 124, "note": 63, "velocity": 118, "channel": 0}, {"type": "note_on", "time": 0, "note": 66, "velocity": 111, "channel": 0}, {"type": "note_off", "time": 69, "note": 66, "velocity": 111, "channel": 0}, {"type": "note_on", "time": 31, "note": 69, "velocity": 108, "channel": 0}, {"type": "note_off", "time": 77, "note": 69, "velocity": 108, "channel": 0}, {"type": "note_on", "time": 7, "note": 71, "velocity": 100, "channel": 0}, {"type": "note_off", "time": 55, "note": 71, "velocity": 100, "channel": 0}, {"type": "note_on", "time": 13, "note": 70, "velocity": 106, "channel": 0}, {"type": "note_off", "time": 77, "note": 70, "velocity": 106, "channel": 0}, {"type": "note_on", "time": 16, "note": 69, "velocity": 114, "channel": 0}, {"type": "note_off", "time": 78, "note": 69, "velocity": 114, "channel": 0}, {"type": "note_on", "time": 22, "note": 68, "velocity": 114, "channel": 0}, {"type": "note_off", "time": 109, "note": 68, "velocity": 114, "channel": 0}, {"type": "note_on", "time": 10, "note": 67, "velocity": 110, "channel": 0}, {"type": "note_off", "time": 88, "note": 67, "velocity": 110, "channel": 0}, {"type": "note_on", "time": 5, "note": 62, "velocity": 119, "channel": 0}, {"type": "note_off", "time": 99, "note": 62, "velocity": 119, "channel": 0}, {"type": "note_on", "time": 11, "note": 60, "velocity": 113, "channel": 0}, {"type": "note_off", "time": 83, "note": 60, "velocity": 113, "channel": 0}, {"type": "note_on", "time": 20, "note": 57, "velocity": 107, "channel": 0}, {"type": "note_off", "time": 95, "note": 57, "velocity": 107, "channel": 0}, {"type": "note_on", "time": 27, "note": 53, "velocity": 103, "channel": 0}, {"type": "note_off", "time": 58, "note": 53, "velocity": 103, "channel": 0}, {"type": "note_on", "time": 3, "note": 55, "velocity": 109, "channel": 0}, {"type": "note_off", "time": 80, "note": 55, "velocity": 109, "channel": 0}, {"type": "note_on", "time": 11, "note": 50, "velocity": 108, "channel": 0}, {"type": "note_on", "time": 66, "note": 48, "velocity": 110, "channel": 0}, {"type": "note_off", "time": 0, "note": 50, "velocity": 108, "channel": 0}, {"type": "note_off", "time": 109, "note": 48, "velocity": 110, "channel": 0}, {"type": "note_on", "time": 18, "note": 53, "velocity": 116, "channel": 0}, {"type": "note_off", "time": 82, "note": 53, "velocity": 116, "channel": 0}, {"type": "note_on", "time": 7, "note": 46, "velocity": 113, "channel": 0}, {"type": "note_off", "time": 196, "note": 46, "velocity": 113, "channel": 0}, {"type": "note_on", "time": 0, "note": 51, "velocity": 110, "channel": 0}, {"type": "note_off", "time": 96, "note": 51, "velocity": 110, "channel": 0}, {"type": "note_on", "time": 4, "note": 44, "velocity": 120, "channel": 0}, {"type": "note_off", "time": 154, "note": 44, "velocity": 120, "channel": 0}, {"type": "note_on", "time": 846, "note": 47, "velocity": 120, "channel": 0}, {"type": "note_off", "time": 77, "note": 47, "velocity": 120, "channel": 0}, {"type": "note_on", "time": 5, "note": 51, "velocity": 115, "channel": 0}, {"type": "note_off", "time": 111, "note": 51, "velocity": 115, "channel": 0}, {"type": "note_on", "time": 14, "note": 54, "velocity": 114, "channel": 0}, {"type": "note_off", "time": 73, "note": 54, "velocity": 114, "channel": 0}, {"type": "note_on", "time": 0, "note": 58, "velocity": 117, "channel": 0}, {"type": "note_off", "time": 89, "note": 58, "velocity": 117, "channel": 0}, {"type": "note_on", "time": 5, "note": 60, "velocity": 118, "channel": 0}, {"type": "note_off", "time": 81, "note": 60, "velocity": 118, "channel": 0}, {"type": "note_on", "time": 0, "note": 63, "velocity": 124, "channel": 0}, {"type": "note_off", "time": 99, "note": 63, "velocity": 124, "channel": 0}, {"type": "note_on", "time": 1, "note": 65, "velocity": 119, "channel": 0}, {"type": "note_off", "time": 71, "note": 65, "velocity": 119, "channel": 0}, {"type": "note_on", "time": 1, "note": 66, "velocity": 118, "channel": 0}, {"type": "note_off", "time": 95, "note": 66, "velocity": 118, "channel": 0}, {"type": "note_on", "time": 27, "note": 68, "velocity": 105, "channel": 0}, {"type": "note_off", "time": 55, "note": 68, "velocity": 105, "channel": 0}, {"type": "note_on", "time": 15, "note": 70, "velocity": 119, "channel": 0}, {"type": "note_off", "time": 96, "note": 70, "velocity": 119, "channel": 0}, {"type": "note_on", "time": 7, "note": 72, "velocity": 108, "channel": 0}, {"type": "note_off", "time": 78, "note": 72, "velocity": 108, "channel": 0}, {"type": "note_on", "time": 21, "note": 73, "velocity": 112, "channel": 0}, {"type": "note_off", "time": 66, "note": 73, "velocity": 112, "channel": 0}, {"type": "note_on", "time": 29, "note": 74, "velocity": 114, "channel": 0}, {"type": "note_off", "time": 105, "note": 74, "velocity": 114, "channel": 0}, {"type": "note_on", "time": 3, "note": 72, "velocity": 109, "channel": 0}, {"type": "note_off", "time": 52, "note": 72, "velocity": 109, "channel": 0}, {"type": "note_on", "time": 12, "note": 73, "velocity": 106, "channel": 0}, {"type": "note_off", "time": 111, "note": 73, "velocity": 106, "channel": 0}, {"type": "note_on", "time": 2, "note": 70, "velocity": 115, "channel": 0}, {"type": "note_off", "time": 116, "note": 70, "velocity": 115, "channel": 0}, {"type": "note_on", "time": 5, "note": 66, "velocity": 115, "channel": 0}, {"type": "note_off", "time": 69, "note": 66, "velocity": 115, "channel": 0}, {"type": "note_on", "time": 7, "note": 65, "velocity": 116, "channel": 0}, {"type": "note_off", "time": 124, "note": 65, "velocity": 116, "channel": 0}, {"type": "note_on", "time": 0, "note": 64, "velocity": 124, "channel": 0}, {"type": "note_off", "time": 83, "note": 64, "velocity": 124, "channel": 0}, {"type": "note_on", "time": 1, "note": 63, "velocity": 123, "channel": 0}, {"type": "note_off", "time": 103, "note": 63, "velocity": 123, "channel": 0}, {"type": "note_on", "time": 6, "note": 61, "velocity": 106, "channel": 0}, {"type": "note_off", "time": 71, "note": 61, "velocity": 106, "channel": 0}, {"type": "note_on", "time": 4, "note": 62, "velocity": 120, "channel": 0}, {"type": "note_off", "time": 95, "note": 62, "velocity": 120, "channel": 0}, {"type": "note_on", "time": 5, "note": 60, "velocity": 115, "channel": 0}, {"type": "note_off", "time": 100, "note": 60, "velocity": 115, "channel": 0}, {"type": "note_on", "time": 3, "note": 58, "velocity": 111, "channel": 0}, {"type": "note_off", "time": 82, "note": 58, "velocity": 111, "channel": 0}, {"type": "note_on", "time": 4, "note": 60, "velocity": 117, "channel": 0}, {"type": "note_off", "time": 57, "note": 60, "velocity": 117, "channel": 0}, {"type": "note_on", "time": 20, "note": 62, "velocity": 113, "channel": 0}, {"type": "note_off", "time": 81, "note": 62, "velocity": 113, "channel": 0}, {"type": "note_on", "time": 39, "note": 67, "velocity": 117, "channel": 0}, {"type": "note_off", "time": 86, "note": 67, "velocity": 117, "channel": 0}, {"type": "note_on", "time": 10, "note": 68, "velocity": 121, "channel": 0}, {"type": "note_off", "time": 98, "note": 68, "velocity": 121, "channel": 0}, {"type": "note_on", "time": 0, "note": 69, "velocity": 117, "channel": 0}, {"type": "note_off", "time": 90, "note": 69, "velocity": 117, "channel": 0}, {"type": "note_on", "time": 5, "note": 70, "velocity": 116, "channel": 0}, {"type": "note_off", "time": 118, "note": 70, "velocity": 116, "channel": 0}, {"type": "note_on", "time": 11, "note": 68, "velocity": 102, "channel": 0}, {"type": "note_off", "time": 49, "note": 68, "velocity": 102, "channel": 0}, {"type": "note_on", "time": 0, "note": 69, "velocity": 112, "channel": 0}, {"type": "note_off", "time": 109, "note": 69, "velocity": 112, "channel": 0}, {"type": "note_on", "time": 10, "note": 67, "velocity": 115, "channel": 0}, {"type": "note_off", "time": 87, "note": 67, "velocity": 115, "channel": 0}, {"type": "note_on", "time": 1, "note": 66, "velocity": 111, "channel": 0}, {"type": "note_off", "time": 95, "note": 66, "velocity": 111, "channel": 0}, {"type": "note_on", "time": 10, "note": 69, "velocity": 115, "channel": 0}, {"type": "note_off", "time": 81, "note": 69, "velocity": 115, "channel": 0}, {"type": "note_on", "time": 22, "note": 67, "velocity": 116, "channel": 0}, {"type": "note_off", "time": 77, "note": 67, "velocity": 116, "channel": 0}, {"type": "note_on", "time": 16, "note": 65, "velocity": 116, "channel": 0}, {"type": "note_off", "time": 84, "note": 65, "velocity": 116, "channel": 0}, {"type": "note_on", "time": 1, "note": 64, "velocity": 122, "channel": 0}, {"type": "note_off", "time": 101, "note": 64, "velocity": 122, "channel": 0}, {"type": "note_on", "time": 0, "note": 68, "velocity": 117, "channel": 0}, {"type": "note_off", "time": 84, "note": 68, "velocity": 117, "channel": 0}, {"type": "note_on", "time": 10, "note": 66, "velocity": 113, "channel": 0}, {"type": "note_off", "time": 91, "note": 66, "velocity": 113, "channel": 0}, {"type": "note_on", "time": 1, "note": 64, "velocity": 119, "channel": 0}, {"type": "note_off", "time": 96, "note": 64, "velocity": 119, "channel": 0}, {"type": "note_on", "time": 2, "note": 63, "velocity": 120, "channel": 0}, {"type": "note_off", "time": 95, "note": 63, "velocity": 120, "channel": 0}, {"type": "note_on", "time": 2, "note": 67, "velocity": 115, "channel": 0}, {"type": "note_off", "time": 67, "note": 67, "velocity": 115, "channel": 0}, {"type": "note_on", "time": 39, "note": 65, "velocity": 118, "channel": 0}, {"type": "note_off", "time": 91, "note": 65, "velocity": 118, "channel": 0}, {"type": "note_on", "time": 0, "note": 63, "velocity": 119, "channel": 0}, {"type": "note_on", "time": 99, "note": 62, "velocity": 119, "channel": 0}, {"type": "note_off", "time": 0, "note": 63, "velocity": 119, "channel": 0}, {"type": "note_off", "time": 111, "note": 62, "velocity": 119, "channel": 0}, {"type": "note_on", "time": 5, "note": 66, "velocity": 115, "channel": 0}, {"type": "note_off", "time": 67, "note": 66, "velocity": 115, "channel": 0}, {"type": "note_on", "time": 4, "note": 64, "velocity": 120, "channel": 0}, {"type": "note_off", "time": 89, "note": 64, "velocity": 120, "channel": 0}, {"type": "note_on", "time": 6, "note": 62, "velocity": 118, "channel": 0}, {"type": "note_off", "time": 56, "note": 62, "velocity": 118, "channel": 0}, {"type": "note_on", "time": 14, "note": 61, "velocity": 115, "channel": 0}, {"type": "note_off", "time": 106, "note": 61, "velocity": 115, "channel": 0}, {"type": "note_on", "time": 0, "note": 65, "velocity": 110, "channel": 0}, {"type": "note_off", "time": 75, "note": 65, "velocity": 110, "channel": 0}, {"type": "note_on", "time": 10, "note": 64, "velocity": 121, "channel": 0}, {"type": "note_off", "time": 270, "note": 64, "velocity": 121, "channel": 0}, {"type": "note_on", "time": 5, "note": 62, "velocity": 117, "channel": 0}, {"type": "note_off", "time": 44, "note": 62, "velocity": 117, "channel": 0}, {"type": "note_on", "time": 20, "note": 60, "velocity": 114, "channel": 0}, {"type": "note_off", "time": 49, "note": 60, "velocity": 114, "channel": 0}, {"type": "note_on", "time": 14, "note": 58, "velocity": 110, "channel": 0}, {"type": "note_off", "time": 220, "note": 58, "velocity": 110, "channel": 0}, {"type": "note_on", "time": 4, "note": 60, "velocity": 114, "channel": 0}, {"type": "note_off", "time": 53, "note": 60, "velocity": 114, "channel": 0}, {"type": "note_on", "time": 11, "note": 62, "velocity": 116, "channel": 0}, {"type": "note_off", "time": 49, "note": 62, "velocity": 116, "channel": 0}, {"type": "note_on", "time": 6, "note": 64, "velocity": 119, "channel": 0}, {"type": "note_off", "time": 63, "note": 64, "velocity": 119, "channel": 0}, {"type": "note_on", "time": 10, "note": 62, "velocity": 120, "channel": 0}, {"type": "note_off", "time": 48, "note": 62, "velocity": 120, "channel": 0}, {"type": "note_on", "time": 24, "note": 60, "velocity": 114, "channel": 0}, {"type": "note_off", "time": 49, "note": 60, "velocity": 114, "channel": 0}, {"type": "note_on", "time": 1, "note": 58, "velocity": 107, "channel": 0}, {"type": "note_off", "time": 82, "note": 58, "velocity": 107, "channel": 0}, {"type": "note_on", "time": 4, "note": 60, "velocity": 117, "channel": 0}, {"type": "note_off", "time": 73, "note": 60, "velocity": 117, "channel": 0}, {"type": "note_on", "time": 12, "note": 62, "velocity": 120, "channel": 0}, {"type": "note_off", "time": 46, "note": 62, "velocity": 120, "channel": 0}, {"type": "note_on", "time": 9, "note": 64, "velocity": 121, "channel": 0}, {"type": "note_off", "time": 44, "note": 64, "velocity": 121, "channel": 0}, {"type": "note_on", "time": 7, "note": 66, "velocity": 116, "channel": 0}, {"type": "note_off", "time": 72, "note": 66, "velocity": 116, "channel": 0}, {"type": "note_on", "time": 2, "note": 67, "velocity": 118, "channel": 0}, {"type": "note_off", "time": 47, "note": 67, "velocity": 118, "channel": 0}, {"type": "note_on", "time": 4, "note": 69, "velocity": 118, "channel": 0}, {"type": "note_off", "time": 78, "note": 69, "velocity": 118, "channel": 0}, {"type": "note_on", "time": 0, "note": 70, "velocity": 116, "channel": 0}, {"type": "note_off", "time": 52, "note": 70, "velocity": 116, "channel": 0}, {"type": "note_on", "time": 1, "note": 72, "velocity": 110, "channel": 0}, {"type": "note_off", "time": 1074, "note": 72, "velocity": 110, "channel": 0}, {"type": "note_on", "time": 392, "note": 62, "velocity": 119, "channel": 0}, {"type": "note_on", "time": 103, "note": 67, "velocity": 119, "channel": 0}, {"type": "note_off", "time": 0, "note": 62, "velocity": 119, "channel": 0}, {"type": "note_off", "time": 89, "note": 67, "velocity": 119, "channel": 0}, {"type": "note_on", "time": 7, "note": 72, "velocity": 113, "channel": 0}, {"type": "note_off", "time": 98, "note": 72, "velocity": 113, "channel": 0}, {"type": "note_on", "time": 0, "note": 69, "velocity": 116, "channel": 0}, {"type": "note_off", "time": 114, "note": 69, "velocity": 116, "channel": 0}, {"type": "note_on", "time": 35, "note": 64, "velocity": 108, "channel": 0}, {"type": "note_off", "time": 50, "note": 64, "velocity": 108, "channel": 0}, {"type": "note_on", "time": 6, "note": 67, "velocity": 119, "channel": 0}, {"type": "note_off", "time": 116, "note": 67, "velocity": 119, "channel": 0}, {"type": "note_on", "time": 7, "note": 62, "velocity": 124, "channel": 0}, {"type": "note_off", "time": 57, "note": 62, "velocity": 124, "channel": 0}, {"type": "note_on", "time": 19, "note": 60, "velocity": 118, "channel": 0}, {"type": "note_off", "time": 94, "note": 60, "velocity": 118, "channel": 0}, {"type": "note_on", "time": 1, "note": 67, "velocity": 116, "channel": 0}, {"type": "note_off", "time": 87, "note": 67, "velocity": 116, "channel": 0}, {"type": "note_on", "time": 7, "note": 63, "velocity": 124, "channel": 0}, {"type": "note_off", "time": 84, "note": 63, "velocity": 124, "channel": 0}, {"type": "note_on", "time": 12, "note": 61, "velocity": 114, "channel": 0}, {"type": "note_off", "time": 94, "note": 61, "velocity": 114, "channel": 0}, {"type": "note_on", "time": 15, "note": 56, "velocity": 112, "channel": 0}, {"type": "note_off", "time": 109, "note": 56, "velocity": 112, "channel": 0}, {"type": "note_on", "time": 19, "note": 53, "velocity": 102, "channel": 0}, {"type": "note_off", "time": 46, "note": 53, "velocity": 102, "channel": 0}, {"type": "note_on", "time": 0, "note": 58, "velocity": 111, "channel": 0}, {"type": "note_off", "time": 106, "note": 58, "velocity": 111, "channel": 0}, {"type": "note_on", "time": 11, "note": 55, "velocity": 111, "channel": 0}, {"type": "note_off", "time": 76, "note": 55, "velocity": 111, "channel": 0}, {"type": "note_on", "time": 0, "note": 56, "velocity": 110, "channel": 0}, {"type": "note_off", "time": 65, "note": 56, "velocity": 110, "channel": 0}, {"type": "note_on", "time": 17, "note": 58, "velocity": 107, "channel": 0}, {"type": "note_off", "time": 92, "note": 58, "velocity": 107, "channel": 0}, {"type": "note_on", "time": 1, "note": 59, "velocity": 104, "channel": 0}, {"type": "note_off", "time": 55, "note": 59, "velocity": 104, "channel": 0}, {"type": "note_on", "time": 4, "note": 61, "velocity": 113, "channel": 0}, {"type": "note_off", "time": 114, "note": 61, "velocity": 113, "channel": 0}, {"type": "note_on", "time": 4, "note": 63, "velocity": 110, "channel": 0}, {"type": "note_off", "time": 87, "note": 63, "velocity": 110, "channel": 0}, {"type": "note_on", "time": 23, "note": 70, "velocity": 102, "channel": 0}, {"type": "note_off", "time": 86, "note": 70, "velocity": 102, "channel": 0}, {"type": "note_on", "time": 20, "note": 73, "velocity": 112, "channel": 0}, {"type": "note_off", "time": 73, "note": 73, "velocity": 112, "channel": 0}, {"type": "note_on", "time": 25, "note": 72, "velocity": 107, "channel": 0}, {"type": "note_off", "time": 63, "note": 72, "velocity": 107, "channel": 0}, {"type": "note_on", "time": 15, "note": 71, "velocity": 115, "channel": 0}, {"type": "note_off", "time": 82, "note": 71, "velocity": 115, "channel": 0}, {"type": "note_on", "time": 25, "note": 70, "velocity": 119, "channel": 0}, {"type": "note_off", "time": 82, "note": 70, "velocity": 119, "channel": 0}, {"type": "note_on", "time": 14, "note": 68, "velocity": 119, "channel": 0}, {"type": "note_off", "time": 89, "note": 68, "velocity": 119, "channel": 0}, {"type": "note_on", "time": 43, "note": 70, "velocity": 104, "channel": 0}, {"type": "note_off", "time": 56, "note": 70, "velocity": 104, "channel": 0}, {"type": "note_on", "time": 12, "note": 71, "velocity": 114, "channel": 0}, {"type": "note_off", "time": 55, "note": 71, "velocity": 114, "channel": 0}, {"type": "note_on", "time": 30, "note": 73, "velocity": 109, "channel": 0}, {"type": "note_off", "time": 73, "note": 73, "velocity": 109, "channel": 0}, {"type": "note_on", "time": 5, "note": 70, "velocity": 111, "channel": 0}, {"type": "note_off", "time": 100, "note": 70, "velocity": 111, "channel": 0}, {"type": "note_on", "time": 6, "note": 69, "velocity": 113, "channel": 0}, {"type": "note_off", "time": 75, "note": 69, "velocity": 113, "channel": 0}, {"type": "note_on", "time": 21, "note": 68, "velocity": 118, "channel": 0}, {"type": "note_off", "time": 95, "note": 68, "velocity": 118, "channel": 0}, {"type": "note_on", "time": 21, "note": 66, "velocity": 99, "channel": 0}, {"type": "note_off", "time": 64, "note": 66, "velocity": 99, "channel": 0}, {"type": "note_on", "time": 14, "note": 67, "velocity": 113, "channel": 0}, {"type": "note_off", "time": 72, "note": 67, "velocity": 113, "channel": 0}, {"type": "note_on", "time": 21, "note": 69, "velocity": 113, "channel": 0}, {"type": "note_off", "time": 92, "note": 69, "velocity": 113, "channel": 0}, {"type": "note_on", "time": 12, "note": 70, "velocity": 112, "channel": 0}, {"type": "note_off", "time": 73, "note": 70, "velocity": 112, "channel": 0}, {"type": "note_on", "time": 21, "note": 72, "velocity": 98, "channel": 0}, {"type": "note_off", "time": 84, "note": 72, "velocity": 98, "channel": 0}, {"type": "note_on", "time": 2, "note": 73, "velocity": 105, "channel": 0}, {"type": "note_off", "time": 70, "note": 73, "velocity": 105, "channel": 0}, {"type": "note_on", "time": 31, "note": 74, "velocity": 106, "channel": 0}, {"type": "note_off", "time": 75, "note": 74, "velocity": 106, "channel": 0}, {"type": "note_on", "time": 10, "note": 70, "velocity": 109, "channel": 0}, {"type": "note_off", "time": 103, "note": 70, "velocity": 109, "channel": 0}, {"type": "note_on", "time": 21, "note": 67, "velocity": 88, "channel": 0}, {"type": "note_off", "time": 63, "note": 67, "velocity": 88, "channel": 0}, {"type": "note_on", "time": 14, "note": 71, "velocity": 112, "channel": 0}, {"type": "note_off", "time": 69, "note": 71, "velocity": 112, "channel": 0}, {"type": "note_on", "time": 14, "note": 72, "velocity": 101, "channel": 0}, {"type": "note_off", "time": 73, "note": 72, "velocity": 101, "channel": 0}, {"type": "note_on", "time": 19, "note": 69, "velocity": 106, "channel": 0}, {"type": "note_off", "time": 54, "note": 69, "velocity": 106, "channel": 0}, {"type": "note_on", "time": 78, "note": 65, "velocity": 96, "channel": 0}, {"type": "note_off", "time": 54, "note": 65, "velocity": 96, "channel": 0}, {"type": "note_on", "time": 19, "note": 69, "velocity": 115, "channel": 0}, {"type": "note_off", "time": 92, "note": 69, "velocity": 115, "channel": 0}, {"type": "note_on", "time": 2, "note": 70, "velocity": 111, "channel": 0}, {"type": "note_off", "time": 80, "note": 70, "velocity": 111, "channel": 0}, {"type": "note_on", "time": 4, "note": 67, "velocity": 110, "channel": 0}, {"type": "note_off", "time": 89, "note": 67, "velocity": 110, "channel": 0}, {"type": "note_on", "time": 24, "note": 62, "velocity": 93, "channel": 0}, {"type": "note_off", "time": 62, "note": 62, "velocity": 93, "channel": 0}, {"type": "note_on", "time": 19, "note": 68, "velocity": 117, "channel": 0}, {"type": "note_off", "time": 74, "note": 68, "velocity": 117, "channel": 0}, {"type": "note_on", "time": 16, "note": 69, "velocity": 110, "channel": 0}, {"type": "note_off", "time": 63, "note": 69, "velocity": 110, "channel": 0}, {"type": "note_on", "time": 36, "note": 65, "velocity": 110, "channel": 0}, {"type": "note_off", "time": 87, "note": 65, "velocity": 110, "channel": 0}, {"type": "note_on", "time": 25, "note": 62, "velocity": 103, "channel": 0}, {"type": "note_off", "time": 53, "note": 62, "velocity": 103, "channel": 0}, {"type": "note_on", "time": 23, "note": 68, "velocity": 115, "channel": 0}, {"type": "note_off", "time": 82, "note": 68, "velocity": 115, "channel": 0}, {"type": "note_on", "time": 11, "note": 69, "velocity": 110, "channel": 0}, {"type": "note_off", "time": 73, "note": 69, "velocity": 110, "channel": 0}, {"type": "note_on", "time": 12, "note": 65, "velocity": 109, "channel": 0}, {"type": "note_off", "time": 108, "note": 65, "velocity": 109, "channel": 0}, {"type": "note_on", "time": 10, "note": 62, "velocity": 110, "channel": 0}, {"type": "note_off", "time": 71, "note": 62, "velocity": 110, "channel": 0}, {"type": "note_on", "time": 7, "note": 66, "velocity": 107, "channel": 0}, {"type": "note_off", "time": 106, "note": 66, "velocity": 107, "channel": 0}, {"type": "note_on", "time": 2, "note": 67, "velocity": 109, "channel": 0}, {"type": "note_off", "time": 75, "note": 67, "velocity": 109, "channel": 0}, {"type": "note_on", "time": 0, "note": 64, "velocity": 113, "channel": 0}, {"type": "note_off", "time": 66, "note": 64, "velocity": 113, "channel": 0}, {"type": "note_on", "time": 73, "note": 60, "velocity": 93, "channel": 0}, {"type": "note_off", "time": 70, "note": 60, "velocity": 93, "channel": 0}, {"type": "note_on", "time": 6, "note": 65, "velocity": 114, "channel": 0}, {"type": "note_off", "time": 71, "note": 65, "velocity": 114, "channel": 0}, {"type": "note_on", "time": 12, "note": 66, "velocity": 106, "channel": 0}, {"type": "note_off", "time": 82, "note": 66, "velocity": 106, "channel": 0}, {"type": "note_on", "time": 18, "note": 63, "velocity": 114, "channel": 0}, {"type": "note_off", "time": 94, "note": 63, "velocity": 114, "channel": 0}, {"type": "note_on", "time": 99, "note": 64, "velocity": 120, "channel": 0}, {"type": "note_off", "time": 68, "note": 64, "velocity": 120, "channel": 0}, {"type": "note_on", "time": 5, "note": 65, "velocity": 112, "channel": 0}, {"type": "note_off", "time": 98, "note": 65, "velocity": 112, "channel": 0}, {"type": "note_on", "time": 34, "note": 62, "velocity": 115, "channel": 0}, {"type": "note_off", "time": 84, "note": 62, "velocity": 115, "channel": 0}, {"type": "note_on", "time": 0, "note": 56, "velocity": 97, "channel": 0}, {"type": "note_off", "time": 72, "note": 56, "velocity": 97, "channel": 0}, {"type": "note_on", "time": 31, "note": 63, "velocity": 118, "channel": 0}, {"type": "note_off", "time": 74, "note": 63, "velocity": 118, "channel": 0}, {"type": "note_on", "time": 10, "note": 64, "velocity": 116, "channel": 0}, {"type": "note_on", "time": 89, "note": 61, "velocity": 106, "channel": 0}, {"type": "note_off", "time": 0, "note": 64, "velocity": 116, "channel": 0}, {"type": "note_off", "time": 90, "note": 61, "velocity": 106, "channel": 0}, {"type": "note_on", "time": 480, "note": 61, "velocity": 121, "channel": 0}, {"type": "note_off", "time": 90, "note": 61, "velocity": 121, "channel": 0}, {"type": "note_on", "time": 8, "note": 62, "velocity": 126, "channel": 0}, {"type": "note_off", "time": 89, "note": 62, "velocity": 126, "channel": 0}, {"type": "note_on", "time": 11, "note": 58, "velocity": 104, "channel": 0}, {"type": "note_off", "time": 90, "note": 58, "velocity": 104, "channel": 0}, {"type": "note_on", "time": 19, "note": 55, "velocity": 103, "channel": 0}, {"type": "note_off", "time": 65, "note": 55, "velocity": 103, "channel": 0}, {"type": "note_on", "time": 9, "note": 60, "velocity": 121, "channel": 0}, {"type": "note_off", "time": 90, "note": 60, "velocity": 121, "channel": 0}, {"type": "note_on", "time": 6, "note": 57, "velocity": 118, "channel": 0}, {"type": "note_off", "time": 99, "note": 57, "velocity": 118, "channel": 0}, {"type": "note_on", "time": 7, "note": 54, "velocity": 115, "channel": 0}, {"type": "note_off", "time": 97, "note": 54, "velocity": 115, "channel": 0}, {"type": "note_on", "time": 20, "note": 53, "velocity": 101, "channel": 0}, {"type": "note_off", "time": 49, "note": 53, "velocity": 101, "channel": 0}, {"type": "note_on", "time": 7, "note": 55, "velocity": 112, "channel": 0}, {"type": "note_off", "time": 113, "note": 55, "velocity": 112, "channel": 0}, {"type": "note_on", "time": 5, "note": 54, "velocity": 106, "channel": 0}, {"type": "note_off", "time": 47, "note": 54, "velocity": 106, "channel": 0}, {"type": "note_on", "time": 11, "note": 55, "velocity": 110, "channel": 0}, {"type": "note_off", "time": 90, "note": 55, "velocity": 110, "channel": 0}, {"type": "note_on", "time": 35, "note": 60, "velocity": 119, "channel": 0}, {"type": "note_off", "time": 75, "note": 60, "velocity": 119, "channel": 0}, {"type": "note_on", "time": 7, "note": 57, "velocity": 111, "channel": 0}, {"type": "note_off", "time": 97, "note": 57, "velocity": 111, "channel": 0}, {"type": "note_on", "time": 10, "note": 58, "velocity": 109, "channel": 0}, {"type": "note_off", "time": 59, "note": 58, "velocity": 109, "channel": 0}, {"type": "note_on", "time": 19, "note": 62, "velocity": 118, "channel": 0}, {"type": "note_off", "time": 90, "note": 62, "velocity": 118, "channel": 0}, {"type": "note_on", "time": 36, "note": 65, "velocity": 115, "channel": 0}, {"type": "note_off", "time": 67, "note": 65, "velocity": 115, "channel": 0}, {"type": "note_on", "time": 26, "note": 68, "velocity": 117, "channel": 0}, {"type": "note_off", "time": 100, "note": 68, "velocity": 117, "channel": 0}, {"type": "note_on", "time": 17, "note": 70, "velocity": 109, "channel": 0}, {"type": "note_off", "time": 72, "note": 70, "velocity": 109, "channel": 0}, {"type": "note_on", "time": 6, "note": 72, "velocity": 103, "channel": 0}, {"type": "note_off", "time": 94, "note": 72, "velocity": 103, "channel": 0}, {"type": "note_on", "time": 10, "note": 73, "velocity": 104, "channel": 0}, {"type": "note_off", "time": 78, "note": 73, "velocity": 104, "channel": 0}, {"type": "note_on", "time": 19, "note": 75, "velocity": 105, "channel": 0}, {"type": "note_off", "time": 109, "note": 75, "velocity": 105, "channel": 0}, {"type": "note_on", "time": 4, "note": 72, "velocity": 108, "channel": 0}, {"type": "note_off", "time": 67, "note": 72, "velocity": 108, "channel": 0}, {"type": "note_on", "time": 1, "note": 68, "velocity": 118, "channel": 0}, {"type": "note_off", "time": 98, "note": 68, "velocity": 118, "channel": 0}, {"type": "note_on", "time": 15, "note": 65, "velocity": 97, "channel": 0}, {"type": "note_off", "time": 62, "note": 65, "velocity": 97, "channel": 0}, {"type": "note_on", "time": 5, "note": 67, "velocity": 109, "channel": 0}, {"type": "note_off", "time": 111, "note": 67, "velocity": 109, "channel": 0}, {"type": "note_on", "time": 31, "note": 61, "velocity": 114, "channel": 0}, {"type": "note_off", "time": 97, "note": 61, "velocity": 114, "channel": 0}, {"type": "note_on", "time": 17, "note": 58, "velocity": 94, "channel": 0}, {"type": "note_off", "time": 82, "note": 58, "velocity": 94, "channel": 0}, {"type": "note_on", "time": 70, "note": 65, "velocity": 106, "channel": 0}, {"type": "note_off", "time": 90, "note": 65, "velocity": 106, "channel": 0}, {"type": "note_on", "time": 19, "note": 61, "velocity": 112, "channel": 0}, {"type": "note_off", "time": 66, "note": 61, "velocity": 112, "channel": 0}, {"type": "note_on", "time": 19, "note": 56, "velocity": 107, "channel": 0}, {"type": "note_off", "time": 94, "note": 56, "velocity": 107, "channel": 0}, {"type": "note_on", "time": 13, "note": 53, "velocity": 100, "channel": 0}, {"type": "note_off", "time": 65, "note": 53, "velocity": 100, "channel": 0}, {"type": "note_on", "time": 0, "note": 55, "velocity": 114, "channel": 0}, {"type": "note_off", "time": 114, "note": 55, "velocity": 114, "channel": 0}, {"type": "note_on", "time": 411, "note": 51, "velocity": 113, "channel": 0}, {"type": "note_off", "time": 60, "note": 51, "velocity": 113, "channel": 0}, {"type": "note_on", "time": 14, "note": 53, "velocity": 115, "channel": 0}, {"type": "note_off", "time": 31, "note": 53, "velocity": 115, "channel": 0}, {"type": "note_on", "time": 12, "note": 54, "velocity": 114, "channel": 0}, {"type": "note_off", "time": 39, "note": 54, "velocity": 114, "channel": 0}, {"type": "note_on", "time": 3, "note": 56, "velocity": 111, "channel": 0}, {"type": "note_off", "time": 53, "note": 56, "velocity": 111, "channel": 0}, {"type": "note_on", "time": 18, "note": 58, "velocity": 117, "channel": 0}, {"type": "note_off", "time": 47, "note": 58, "velocity": 117, "channel": 0}, {"type": "note_on", "time": 0, "note": 60, "velocity": 119, "channel": 0}, {"type": "note_off", "time": 51, "note": 60, "velocity": 119, "channel": 0}, {"type": "note_on", "time": 11, "note": 61, "velocity": 118, "channel": 0}, {"type": "note_off", "time": 50, "note": 61, "velocity": 118, "channel": 0}, {"type": "note_on", "time": 2, "note": 63, "velocity": 122, "channel": 0}, {"type": "note_off", "time": 50, "note": 63, "velocity": 122, "channel": 0}, {"type": "note_on", "time": 7, "note": 65, "velocity": 119, "channel": 0}, {"type": "note_off", "time": 58, "note": 65, "velocity": 119, "channel": 0}, {"type": "note_on", "time": 3, "note": 66, "velocity": 115, "channel": 0}, {"type": "note_off", "time": 39, "note": 66, "velocity": 115, "channel": 0}, {"type": "note_on", "time": 13, "note": 68, "velocity": 114, "channel": 0}, {"type": "note_off", "time": 52, "note": 68, "velocity": 114, "channel": 0}, {"type": "note_on", "time": 13, "note": 70, "velocity": 115, "channel": 0}, {"type": "note_off", "time": 47, "note": 70, "velocity": 115, "channel": 0}, {"type": "note_on", "time": 5, "note": 72, "velocity": 110, "channel": 0}, {"type": "note_off", "time": 58, "note": 72, "velocity": 110, "channel": 0}, {"type": "note_on", "time": 11, "note": 72, "velocity": 119, "channel": 0}, {"type": "note_off", "time": 69, "note": 72, "velocity": 119, "channel": 0}, {"type": "note_on", "time": 11, "note": 68, "velocity": 117, "channel": 0}, {"type": "note_off", "time": 63, "note": 68, "velocity": 117, "channel": 0}, {"type": "note_on", "time": 4, "note": 70, "velocity": 115, "channel": 0}, {"type": "note_off", "time": 91, "note": 70, "velocity": 115, "channel": 0}, {"type": "note_on", "time": 5, "note": 72, "velocity": 113, "channel": 0}, {"type": "note_off", "time": 41, "note": 72, "velocity": 113, "channel": 0}, {"type": "note_on", "time": 3, "note": 72, "velocity": 118, "channel": 0}, {"type": "note_off", "time": 79, "note": 72, "velocity": 118, "channel": 0}, {"type": "note_on", "time": 1, "note": 68, "velocity": 111, "channel": 0}, {"type": "note_off", "time": 67, "note": 68, "velocity": 111, "channel": 0}, {"type": "note_on", "time": 1, "note": 70, "velocity": 111, "channel": 0}, {"type": "note_off", "time": 66, "note": 70, "velocity": 111, "channel": 0}, {"type": "note_on", "time": 0, "note": 72, "velocity": 107, "channel": 0}, {"type": "note_off", "time": 47, "note": 72, "velocity": 107, "channel": 0}, {"type": "note_on", "time": 39, "note": 72, "velocity": 115, "channel": 0}, {"type": "note_off", "time": 58, "note": 72, "velocity": 115, "channel": 0}, {"type": "note_on", "time": 8, "note": 69, "velocity": 116, "channel": 0}, {"type": "note_off", "time": 66, "note": 69, "velocity": 116, "channel": 0}, {"type": "note_on", "time": 2, "note": 70, "velocity": 113, "channel": 0}, {"type": "note_off", "time": 58, "note": 70, "velocity": 113, "channel": 0}, {"type": "note_on", "time": 0, "note": 72, "velocity": 110, "channel": 0}, {"type": "note_off", "time": 43, "note": 72, "velocity": 110, "channel": 0}, {"type": "note_on", "time": 15, "note": 72, "velocity": 111, "channel": 0}, {"type": "note_off", "time": 72, "note": 72, "velocity": 111, "channel": 0}, {"type": "note_on", "time": 7, "note": 69, "velocity": 115, "channel": 0}, {"type": "note_off", "time": 76, "note": 69, "velocity": 115, "channel": 0}, {"type": "note_on", "time": 6, "note": 70, "velocity": 112, "channel": 0}, {"type": "note_off", "time": 67, "note": 70, "velocity": 112, "channel": 0}, {"type": "note_on", "time": 7, "note": 72, "velocity": 104, "channel": 0}, {"type": "note_off", "time": 49, "note": 72, "velocity": 104, "channel": 0}, {"type": "note_on", "time": 11, "note": 72, "velocity": 115, "channel": 0}, {"type": "note_off", "time": 64, "note": 72, "velocity": 115, "channel": 0}, {"type": "note_on", "time": 6, "note": 69, "velocity": 114, "channel": 0}, {"type": "note_off", "time": 65, "note": 69, "velocity": 114, "channel": 0}, {"type": "note_on", "time": 9, "note": 70, "velocity": 113, "channel": 0}, {"type": "note_off", "time": 62, "note": 70, "velocity": 113, "channel": 0}, {"type": "note_on", "time": 7, "note": 72, "velocity": 104, "channel": 0}, {"type": "note_off", "time": 39, "note": 72, "velocity": 104, "channel": 0}, {"type": "note_on", "time": 24, "note": 72, "velocity": 119, "channel": 0}, {"type": "note_off", "time": 69, "note": 72, "velocity": 119, "channel": 0}, {"type": "note_on", "time": 16, "note": 69, "velocity": 117, "channel": 0}, {"type": "note_off", "time": 63, "note": 69, "velocity": 117, "channel": 0}, {"type": "note_on", "time": 7, "note": 70, "velocity": 111, "channel": 0}, {"type": "note_on", "time": 65, "note": 72, "velocity": 103, "channel": 0}, {"type": "note_off", "time": 0, "note": 70, "velocity": 111, "channel": 0}, {"type": "note_off", "time": 52, "note": 72, "velocity": 103, "channel": 0}, {"type": "note_on", "time": 17, "note": 72, "velocity": 116, "channel": 0}, {"type": "note_off", "time": 56, "note": 72, "velocity": 116, "channel": 0}, {"type": "note_on", "time": 6, "note": 69, "velocity": 116, "channel": 0}, {"type": "note_off", "time": 68, "note": 69, "velocity": 116, "channel": 0}, {"type": "note_on", "time": 11, "note": 70, "velocity": 111, "channel": 0}, {"type": "note_off", "time": 66, "note": 70, "velocity": 111, "channel": 0}, {"type": "note_on", "time": 1, "note": 72, "velocity": 99, "channel": 0}, {"type": "note_off", "time": 37, "note": 72, "velocity": 99, "channel": 0}, {"type": "note_on", "time": 24, "note": 72, "velocity": 116, "channel": 0}, {"type": "note_off", "time": 51, "note": 72, "velocity": 116, "channel": 0}, {"type": "note_on", "time": 23, "note": 69, "velocity": 116, "channel": 0}, {"type": "note_off", "time": 64, "note": 69, "velocity": 116, "channel": 0}, {"type": "note_on", "time": 0, "note": 70, "velocity": 108, "channel": 0}, {"type": "note_off", "time": 64, "note": 70, "velocity": 108, "channel": 0}, {"type": "note_on", "time": 0, "note": 72, "velocity": 103, "channel": 0}, {"type": "note_off", "time": 53, "note": 72, "velocity": 103, "channel": 0}, {"type": "note_on", "time": 10, "note": 72, "velocity": 116, "channel": 0}, {"type": "note_off", "time": 63, "note": 72, "velocity": 116, "channel": 0}, {"type": "note_on", "time": 3, "note": 69, "velocity": 115, "channel": 0}, {"type": "note_off", "time": 67, "note": 69, "velocity": 115, "channel": 0}, {"type": "note_on", "time": 6, "note": 70, "velocity": 108, "channel": 0}, {"type": "note_off", "time": 68, "note": 70, "velocity": 108, "channel": 0}, {"type": "note_on", "time": 23, "note": 73, "velocity": 99, "channel": 0}, {"type": "note_off", "time": 31, "note": 73, "velocity": 99, "channel": 0}, {"type": "note_on", "time": 0, "note": 72, "velocity": 114, "channel": 0}, {"type": "note_off", "time": 83, "note": 72, "velocity": 114, "channel": 0}, {"type": "note_on", "time": 8, "note": 69, "velocity": 116, "channel": 0}, {"type": "note_off", "time": 67, "note": 69, "velocity": 116, "channel": 0}, {"type": "note_on", "time": 9, "note": 70, "velocity": 110, "channel": 0}, {"type": "note_off", "time": 70, "note": 70, "velocity": 110, "channel": 0}, {"type": "note_on", "time": 5, "note": 72, "velocity": 103, "channel": 0}, {"type": "note_off", "time": 50, "note": 72, "velocity": 103, "channel": 0}, {"type": "note_on", "time": 3, "note": 72, "velocity": 117, "channel": 0}, {"type": "note_off", "time": 62, "note": 72, "velocity": 117, "channel": 0}, {"type": "note_on", "time": 15, "note": 69, "velocity": 113, "channel": 0}, {"type": "note_off", "time": 54, "note": 69, "velocity": 113, "channel": 0}, {"type": "note_on", "time": 18, "note": 70, "velocity": 109, "channel": 0}, {"type": "note_off", "time": 70, "note": 70, "velocity": 109, "channel": 0}, {"type": "note_on", "time": 22, "note": 72, "velocity": 106, "channel": 0}, {"type": "note_off", "time": 37, "note": 72, "velocity": 106, "channel": 0}, {"type": "note_on", "time": 11, "note": 72, "velocity": 112, "channel": 0}, {"type": "note_off", "time": 62, "note": 72, "velocity": 112, "channel": 0}, {"type": "note_on", "time": 0, "note": 69, "velocity": 112, "channel": 0}, {"type": "note_off", "time": 70, "note": 69, "velocity": 112, "channel": 0}, {"type": "note_on", "time": 3, "note": 70, "velocity": 112, "channel": 0}, {"type": "note_off", "time": 74, "note": 70, "velocity": 112, "channel": 0}, {"type": "note_on", "time": 7, "note": 72, "velocity": 105, "channel": 0}, {"type": "note_off", "time": 50, "note": 72, "velocity": 105, "channel": 0}, {"type": "note_on", "time": 7, "note": 72, "velocity": 107, "channel": 0}, {"type": "note_off", "time": 91, "note": 72, "velocity": 107, "channel": 0}, {"type": "note_on", "time": 0, "note": 69, "velocity": 111, "channel": 0}, {"type": "note_off", "time": 72, "note": 69, "velocity": 111, "channel": 0}, {"type": "note_on", "time": 19, "note": 72, "velocity": 110, "channel": 0}, {"type": "note_off", "time": 438, "note": 72, "velocity": 110, "channel": 0}, {"type": "note_on", "time": 15, "note": 74, "velocity": 108, "channel": 0}, {"type": "note_off", "time": 268, "note": 74, "velocity": 108, "channel": 0}, {"type": "note_on", "time": 6, "note": 72, "velocity": 109, "channel": 0}, {"type": "note_off", "time": 230, "note": 72, "velocity": 109, "channel": 0}, {"type": "note_on", "time": 43, "note": 67, "velocity": 114, "channel": 0}, {"type": "note_off", "time": 82, "note": 67, "velocity": 114, "channel": 0}, {"type": "note_on", "time": 19, "note": 62, "velocity": 122, "channel": 0}, {"type": "note_off", "time": 92, "note": 62, "velocity": 122, "channel": 0}, {"type": "note_on", "time": 2, "note": 59, "velocity": 119, "channel": 0}, {"type": "note_off", "time": 62, "note": 59, "velocity": 119, "channel": 0}, {"type": "note_on", "time": 0, "note": 60, "velocity": 116, "channel": 0}, {"type": "note_on", "time": 111, "note": 65, "velocity": 113, "channel": 0}, {"type": "note_off", "time": 0, "note": 60, "velocity": 116, "channel": 0}, {"type": "note_off", "time": 99, "note": 65, "velocity": 113, "channel": 0}, {"type": "note_on", "time": 501, "note": 70, "velocity": 117, "channel": 0}, {"type": "note_off", "time": 35, "note": 70, "velocity": 117, "channel": 0}, {"type": "note_on", "time": 22, "note": 72, "velocity": 118, "channel": 0}, {"type": "note_off", "time": 604, "note": 72, "velocity": 118, "channel": 0}, {"type": "note_on", "time": 7, "note": 72, "velocity": 114, "channel": 0}, {"type": "note_off", "time": 61, "note": 72, "velocity": 114, "channel": 0}, {"type": "note_on", "time": 14, "note": 69, "velocity": 120, "channel": 0}, {"type": "note_off", "time": 111, "note": 69, "velocity": 120, "channel": 0}, {"type": "note_on", "time": 1, "note": 65, "velocity": 115, "channel": 0}, {"type": "note_off", "time": 83, "note": 65, "velocity": 115, "channel": 0}, {"type": "note_on", "time": 10, "note": 72, "velocity": 117, "channel": 0}, {"type": "note_off", "time": 81, "note": 72, "velocity": 117, "channel": 0}, {"type": "note_on", "time": 7, "note": 72, "velocity": 115, "channel": 0}, {"type": "note_off", "time": 53, "note": 72, "velocity": 115, "channel": 0}, {"type": "note_on", "time": 12, "note": 71, "velocity": 117, "channel": 0}, {"type": "note_off", "time": 94, "note": 71, "velocity": 117, "channel": 0}, {"type": "note_on", "time": 1, "note": 71, "velocity": 118, "channel": 0}, {"type": "note_off", "time": 86, "note": 71, "velocity": 118, "channel": 0}, {"type": "note_on", "time": 0, "note": 70, "velocity": 117, "channel": 0}, {"type": "note_off", "time": 91, "note": 70, "velocity": 117, "channel": 0}, {"type": "note_on", "time": 15, "note": 70, "velocity": 114, "channel": 0}, {"type": "note_off", "time": 73, "note": 70, "velocity": 114, "channel": 0}, {"type": "note_on", "time": 0, "note": 69, "velocity": 113, "channel": 0}, {"type": "note_off", "time": 115, "note": 69, "velocity": 113, "channel": 0}, {"type": "note_on", "time": 52, "note": 69, "velocity": 114, "channel": 0}, {"type": "note_off", "time": 118, "note": 69, "velocity": 114, "channel": 0}, {"type": "note_on", "time": 8, "note": 72, "velocity": 110, "channel": 0}, {"type": "note_off", "time": 52, "note": 72, "velocity": 110, "channel": 0}, {"type": "note_on", "time": 28, "note": 67, "velocity": 111, "channel": 0}, {"type": "note_off", "time": 123, "note": 67, "velocity": 111, "channel": 0}, {"type": "note_on", "time": 13, "note": 67, "velocity": 113, "channel": 0}, {"type": "note_off", "time": 69, "note": 67, "velocity": 113, "channel": 0}, {"type": "note_on", "time": 13, "note": 67, "velocity": 110, "channel": 0}, {"type": "note_off", "time": 78, "note": 67, "velocity": 110, "channel": 0}, {"type": "note_on", "time": 13, "note": 70, "velocity": 111, "channel": 0}, {"type": "note_off", "time": 89, "note": 70, "velocity": 111, "channel": 0}, {"type": "note_on", "time": 1, "note": 69, "velocity": 116, "channel": 0}, {"type": "note_off", "time": 90, "note": 69, "velocity": 116, "channel": 0}, {"type": "note_on", "time": 3, "note": 68, "velocity": 114, "channel": 0}, {"type": "note_off", "time": 103, "note": 68, "velocity": 114, "channel": 0}, {"type": "note_on", "time": 5, "note": 67, "velocity": 113, "channel": 0}, {"type": "note_off", "time": 81, "note": 67, "velocity": 113, "channel": 0}, {"type": "note_on", "time": 1, "note": 71, "velocity": 113, "channel": 0}, {"type": "note_on", "time": 84, "note": 70, "velocity": 115, "channel": 0}, {"type": "note_off", "time": 0, "note": 71, "velocity": 113, "channel": 0}, {"type": "note_off", "time": 99, "note": 70, "velocity": 115, "channel": 0}, {"type": "note_on", "time": 8, "note": 66, "velocity": 115, "channel": 0}, {"type": "note_off", "time": 83, "note": 66, "velocity": 115, "channel": 0}, {"type": "note_on", "time": 1, "note": 65, "velocity": 116, "channel": 0}, {"type": "note_on", "time": 73, "note": 64, "velocity": 120, "channel": 0}, {"type": "note_off", "time": 0, "note": 65, "velocity": 116, "channel": 0}, {"type": "note_off", "time": 82, "note": 64, "velocity": 120, "channel": 0}, {"type": "note_on", "time": 3, "note": 63, "velocity": 119, "channel": 0}, {"type": "note_off", "time": 98, "note": 63, "velocity": 119, "channel": 0}, {"type": "note_on", "time": 15, "note": 65, "velocity": 111, "channel": 0}, {"type": "note_off", "time": 88, "note": 65, "velocity": 111, "channel": 0}, {"type": "note_on", "time": 80, "note": 71, "velocity": 81, "channel": 0}, {"type": "note_off", "time": 49, "note": 71, "velocity": 81, "channel": 0}, {"type": "note_on", "time": 61, "note": 75, "velocity": 114, "channel": 0}, {"type": "note_off", "time": 107, "note": 75, "velocity": 114, "channel": 0}, {"type": "note_on", "time": 7, "note": 76, "velocity": 112, "channel": 0}, {"type": "note_off", "time": 95, "note": 76, "velocity": 112, "channel": 0}, {"type": "note_on", "time": 7, "note": 77, "velocity": 111, "channel": 0}, {"type": "note_off", "time": 81, "note": 77, "velocity": 111, "channel": 0}, {"type": "note_on", "time": 9, "note": 76, "velocity": 118, "channel": 0}, {"type": "note_off", "time": 84, "note": 76, "velocity": 118, "channel": 0}, {"type": "note_on", "time": 2, "note": 75, "velocity": 113, "channel": 0}, {"type": "note_off", "time": 79, "note": 75, "velocity": 113, "channel": 0}, {"type": "note_on", "time": 33, "note": 73, "velocity": 108, "channel": 0}, {"type": "note_off", "time": 65, "note": 73, "velocity": 108, "channel": 0}, {"type": "note_on", "time": 7, "note": 72, "velocity": 105, "channel": 0}, {"type": "note_off", "time": 84, "note": 72, "velocity": 105, "channel": 0}, {"type": "note_on", "time": 26, "note": 71, "velocity": 100, "channel": 0}, {"type": "note_off", "time": 83, "note": 71, "velocity": 100, "channel": 0}, {"type": "note_on", "time": 5, "note": 69, "velocity": 106, "channel": 0}, {"type": "note_off", "time": 70, "note": 69, "velocity": 106, "channel": 0}, {"type": "note_on", "time": 23, "note": 69, "velocity": 105, "channel": 0}, {"type": "note_off", "time": 90, "note": 69, "velocity": 105, "channel": 0}, {"type": "note_on", "time": 7, "note": 68, "velocity": 113, "channel": 0}, {"type": "note_off", "time": 67, "note": 68, "velocity": 113, "channel": 0}, {"type": "note_on", "time": 40, "note": 66, "velocity": 105, "channel": 0}, {"type": "note_off", "time": 61, "note": 66, "velocity": 105, "channel": 0}, {"type": "note_on", "time": 0, "note": 67, "velocity": 108, "channel": 0}, {"type": "note_off", "time": 106, "note": 67, "velocity": 108, "channel": 0}, {"type": "note_on", "time": 8, "note": 65, "velocity": 111, "channel": 0}, {"type": "note_on", "time": 73, "note": 66, "velocity": 111, "channel": 0}, {"type": "note_off", "time": 0, "note": 65, "velocity": 111, "channel": 0}, {"type": "note_off", "time": 109, "note": 66, "velocity": 111, "channel": 0}, {"type": "note_on", "time": 9, "note": 64, "velocity": 103, "channel": 0}, {"type": "note_off", "time": 54, "note": 64, "velocity": 103, "channel": 0}, {"type": "note_on", "time": 7, "note": 65, "velocity": 111, "channel": 0}, {"type": "note_off", "time": 90, "note": 65, "velocity": 111, "channel": 0}, {"type": "note_on", "time": 9, "note": 64, "velocity": 115, "channel": 0}, {"type": "note_off", "time": 77, "note": 64, "velocity": 115, "channel": 0}, {"type": "note_on", "time": 2, "note": 63, "velocity": 114, "channel": 0}, {"type": "note_off", "time": 81, "note": 63, "velocity": 114, "channel": 0}, {"type": "note_on", "time": 5, "note": 67, "velocity": 109, "channel": 0}, {"type": "note_off", "time": 99, "note": 67, "velocity": 109, "channel": 0}, {"type": "note_on", "time": 0, "note": 64, "velocity": 113, "channel": 0}, {"type": "note_off", "time": 98, "note": 64, "velocity": 113, "channel": 0}, {"type": "note_on", "time": 5, "note": 62, "velocity": 117, "channel": 0}, {"type": "note_off", "time": 99, "note": 62, "velocity": 117, "channel": 0}, {"type": "note_on", "time": 3, "note": 58, "velocity": 103, "channel": 0}, {"type": "note_off", "time": 87, "note": 58, "velocity": 103, "channel": 0}, {"type": "note_on", "time": 17, "note": 55, "velocity": 99, "channel": 0}, {"type": "note_off", "time": 73, "note": 55, "velocity": 99, "channel": 0}, {"type": "note_on", "time": 3, "note": 60, "velocity": 112, "channel": 0}, {"type": "note_off", "time": 175, "note": 60, "velocity": 112, "channel": 0}, {"type": "note_on", "time": 0, "note": 62, "velocity": 105, "channel": 0}, {"type": "note_off", "time": 134, "note": 62, "velocity": 105, "channel": 0}, {"type": "note_on", "time": 603, "note": 55, "velocity": 119, "channel": 0}, {"type": "note_off", "time": 71, "note": 55, "velocity": 119, "channel": 0}, {"type": "note_on", "time": 0, "note": 57, "velocity": 113, "channel": 0}, {"type": "note_off", "time": 47, "note": 57, "velocity": 113, "channel": 0}, {"type": "note_on", "time": 0, "note": 58, "velocity": 115, "channel": 0}, {"type": "note_off", "time": 62, "note": 58, "velocity": 115, "channel": 0}, {"type": "note_on", "time": 0, "note": 60, "velocity": 117, "channel": 0}, {"type": "note_off", "time": 42, "note": 60, "velocity": 117, "channel": 0}, {"type": "note_on", "time": 0, "note": 62, "velocity": 122, "channel": 0}, {"type": "note_off", "time": 75, "note": 62, "velocity": 122, "channel": 0}, {"type": "note_on", "time": 10, "note": 64, "velocity": 122, "channel": 0}, {"type": "note_off", "time": 48, "note": 64, "velocity": 122, "channel": 0}, {"type": "note_on", "time": 0, "note": 65, "velocity": 118, "channel": 0}, {"type": "note_off", "time": 68, "note": 65, "velocity": 118, "channel": 0}, {"type": "note_on", "time": 6, "note": 69, "velocity": 117, "channel": 0}, {"type": "note_off", "time": 65, "note": 69, "velocity": 117, "channel": 0}, {"type": "note_on", "time": 9, "note": 70, "velocity": 114, "channel": 0}, {"type": "note_off", "time": 81, "note": 70, "velocity": 114, "channel": 0}, {"type": "note_on", "time": 1, "note": 72, "velocity": 114, "channel": 0}, {"type": "note_off", "time": 850, "note": 72, "velocity": 114, "channel": 0}, {"type": "note_on", "time": 8, "note": 69, "velocity": 109, "channel": 0}, {"type": "note_on", "time": 20, "note": 64, "velocity": 116, "channel": 0}, {"type": "note_off", "time": 0, "note": 69, "velocity": 109, "channel": 0}, {"type": "note_off", "time": 50, "note": 64, "velocity": 116, "channel": 0}, {"type": "note_on", "time": 2, "note": 62, "velocity": 116, "channel": 0}, {"type": "note_off", "time": 62, "note": 62, "velocity": 116, "channel": 0}, {"type": "note_on", "time": 1, "note": 60, "velocity": 112, "channel": 0}, {"type": "note_off", "time": 40, "note": 60, "velocity": 112, "channel": 0}, {"type": "note_on", "time": 0, "note": 62, "velocity": 115, "channel": 0}, {"type": "note_off", "time": 64, "note": 62, "velocity": 115, "channel": 0}, {"type": "note_on", "time": 3, "note": 64, "velocity": 119, "channel": 0}, {"type": "note_off", "time": 76, "note": 64, "velocity": 119, "channel": 0}, {"type": "note_on", "time": 1, "note": 69, "velocity": 113, "channel": 0}, {"type": "note_off", "time": 52, "note": 69, "velocity": 113, "channel": 0}, {"type": "note_on", "time": 0, "note": 72, "velocity": 114, "channel": 0}, {"type": "note_off", "time": 228, "note": 72, "velocity": 114, "channel": 0}, {"type": "note_on", "time": 4, "note": 70, "velocity": 110, "channel": 0}, {"type": "note_off", "time": 65, "note": 70, "velocity": 110, "channel": 0}, {"type": "note_on", "time": 0, "note": 72, "velocity": 113, "channel": 0}, {"type": "note_off", "time": 298, "note": 72, "velocity": 113, "channel": 0}, {"type": "note_on", "time": 1, "note": 69, "velocity": 112, "channel": 0}, {"type": "note_off", "time": 63, "note": 69, "velocity": 112, "channel": 0}, {"type": "note_on", "time": 1, "note": 68, "velocity": 114, "channel": 0}, {"type": "note_off", "time": 40, "note": 68, "velocity": 114, "channel": 0}, {"type": "note_on", "time": 3, "note": 65, "velocity": 115, "channel": 0}, {"type": "note_off", "time": 49, "note": 65, "velocity": 115, "channel": 0}, {"type": "note_on", "time": 2, "note": 62, "velocity": 117, "channel": 0}, {"type": "note_off", "time": 145, "note": 62, "velocity": 117, "channel": 0}, {"type": "note_on", "time": 620, "note": 47, "velocity": 117, "channel": 0}, {"type": "note_off", "time": 54, "note": 47, "velocity": 117, "channel": 0}, {"type": "note_on", "time": 0, "note": 50, "velocity": 116, "channel": 0}, {"type": "note_off", "time": 51, "note": 50, "velocity": 116, "channel": 0}, {"type": "note_on", "time": 5, "note": 52, "velocity": 112, "channel": 0}, {"type": "note_off", "time": 39, "note": 52, "velocity": 112, "channel": 0}, {"type": "note_on", "time": 2, "note": 56, "velocity": 113, "channel": 0}, {"type": "note_off", "time": 68, "note": 56, "velocity": 113, "channel": 0}, {"type": "note_on", "time": 4, "note": 58, "velocity": 119, "channel": 0}, {"type": "note_off", "time": 33, "note": 58, "velocity": 119, "channel": 0}, {"type": "note_on", "time": 4, "note": 61, "velocity": 119, "channel": 0}, {"type": "note_off", "time": 44, "note": 61, "velocity": 119, "channel": 0}, {"type": "note_on", "time": 3, "note": 63, "velocity": 121, "channel": 0}, {"type": "note_off", "time": 46, "note": 63, "velocity": 121, "channel": 0}, {"type": "note_on", "time": 3, "note": 65, "velocity": 119, "channel": 0}, {"type": "note_off", "time": 56, "note": 65, "velocity": 119, "channel": 0}, {"type": "note_on", "time": 0, "note": 67, "velocity": 114, "channel": 0}, {"type": "note_off", "time": 52, "note": 67, "velocity": 114, "channel": 0}, {"type": "note_on", "time": 8, "note": 70, "velocity": 108, "channel": 0}, {"type": "note_off", "time": 53, "note": 70, "velocity": 108, "channel": 0}, {"type": "note_on", "time": 30, "note": 75, "velocity": 116, "channel": 0}, {"type": "note_off", "time": 60, "note": 75, "velocity": 116, "channel": 0}, {"type": "note_on", "time": 6, "note": 79, "velocity": 122, "channel": 0}, {"type": "note_off", "time": 41, "note": 79, "velocity": 122, "channel": 0}, {"type": "note_on", "time": 3, "note": 80, "velocity": 121, "channel": 0}, {"type": "note_off", "time": 48, "note": 80, "velocity": 121, "channel": 0}, {"type": "note_on", "time": 0, "note": 79, "velocity": 114, "channel": 0}, {"type": "note_off", "time": 273, "note": 79, "velocity": 114, "channel": 0}, {"type": "note_on", "time": 3, "note": 75, "velocity": 117, "channel": 0}, {"type": "note_off", "time": 86, "note": 75, "velocity": 117, "channel": 0}, {"type": "note_on", "time": 18, "note": 70, "velocity": 116, "channel": 0}, {"type": "note_off", "time": 134, "note": 70, "velocity": 116, "channel": 0}, {"type": "note_on", "time": 19, "note": 67, "velocity": 114, "channel": 0}, {"type": "note_off", "time": 91, "note": 67, "velocity": 114, "channel": 0}, {"type": "note_on", "time": 4, "note": 63, "velocity": 121, "channel": 0}, {"type": "note_off", "time": 149, "note": 63, "velocity": 121, "channel": 0}, {"type": "note_on", "time": 382, "note": 44, "velocity": 120, "channel": 0}, {"type": "note_off", "time": 179, "note": 44, "velocity": 120, "channel": 0}, {"type": "note_on", "time": 23, "note": 51, "velocity": 116, "channel": 0}, {"type": "note_off", "time": 84, "note": 51, "velocity": 116, "channel": 0}, {"type": "note_on", "time": 7, "note": 49, "velocity": 118, "channel": 0}, {"type": "note_off", "time": 101, "note": 49, "velocity": 118, "channel": 0}, {"type": "note_on", "time": 22, "note": 51, "velocity": 115, "channel": 0}, {"type": "note_off", "time": 48, "note": 51, "velocity": 115, "channel": 0}, {"type": "note_on", "time": 24, "note": 54, "velocity": 111, "channel": 0}, {"type": "note_off", "time": 64, "note": 54, "velocity": 111, "channel": 0}, {"type": "note_on", "time": 34, "note": 55, "velocity": 110, "channel": 0}, {"type": "note_off", "time": 45, "note": 55, "velocity": 110, "channel": 0}, {"type": "note_on", "time": 10, "note": 58, "velocity": 109, "channel": 0}, {"type": "note_off", "time": 52, "note": 58, "velocity": 109, "channel": 0}, {"type": "note_on", "time": 1, "note": 60, "velocity": 118, "channel": 0}, {"type": "note_off", "time": 58, "note": 60, "velocity": 118, "channel": 0}, {"type": "note_on", "time": 8, "note": 63, "velocity": 119, "channel": 0}, {"type": "note_off", "time": 50, "note": 63, "velocity": 119, "channel": 0}, {"type": "note_on", "time": 0, "note": 65, "velocity": 115, "channel": 0}, {"type": "note_off", "time": 54, "note": 65, "velocity": 115, "channel": 0}, {"type": "note_on", "time": 4, "note": 67, "velocity": 109, "channel": 0}, {"type": "note_off", "time": 38, "note": 67, "velocity": 109, "channel": 0}, {"type": "note_on", "time": 0, "note": 70, "velocity": 108, "channel": 0}, {"type": "note_off", "time": 43, "note": 70, "velocity": 108, "channel": 0}, {"type": "note_on", "time": 15, "note": 72, "velocity": 109, "channel": 0}, {"type": "note_off", "time": 77, "note": 72, "velocity": 109, "channel": 0}, {"type": "note_on", "time": 0, "note": 75, "velocity": 119, "channel": 0}, {"type": "note_off", "time": 78, "note": 75, "velocity": 119, "channel": 0}, {"type": "note_on", "time": 0, "note": 76, "velocity": 106, "channel": 0}, {"type": "note_off", "time": 39, "note": 76, "velocity": 106, "channel": 0}, {"type": "note_on", "time": 5, "note": 77, "velocity": 107, "channel": 0}, {"type": "note_off", "time": 509, "note": 77, "velocity": 107, "channel": 0}, {"type": "note_on", "time": 110, "note": 74, "velocity": 107, "channel": 0}, {"type": "note_off", "time": 58, "note": 74, "velocity": 107, "channel": 0}, {"type": "note_on", "time": 0, "note": 72, "velocity": 107, "channel": 0}, {"type": "note_off", "time": 39, "note": 72, "velocity": 107, "channel": 0}, {"type": "note_on", "time": 7, "note": 70, "velocity": 115, "channel": 0}, {"type": "note_off", "time": 65, "note": 70, "velocity": 115, "channel": 0}, {"type": "note_on", "time": 19, "note": 69, "velocity": 119, "channel": 0}, {"type": "note_off", "time": 90, "note": 69, "velocity": 119, "channel": 0}, {"type": "note_on", "time": 3, "note": 67, "velocity": 122, "channel": 0}, {"type": "note_off", "time": 83, "note": 67, "velocity": 122, "channel": 0}, {"type": "note_on", "time": 11, "note": 65, "velocity": 118, "channel": 0}, {"type": "note_off", "time": 91, "note": 65, "velocity": 118, "channel": 0}, {"type": "note_on", "time": 0, "note": 64, "velocity": 122, "channel": 0}, {"type": "note_off", "time": 74, "note": 64, "velocity": 122, "channel": 0}, {"type": "note_on", "time": 2, "note": 62, "velocity": 119, "channel": 0}, {"type": "note_off", "time": 360, "note": 62, "velocity": 119, "channel": 0}, {"type": "note_on", "time": 132, "note": 60, "velocity": 117, "channel": 0}, {"type": "note_off", "time": 85, "note": 60, "velocity": 117, "channel": 0}, {"type": "note_on", "time": 23, "note": 58, "velocity": 109, "channel": 0}, {"type": "note_off", "time": 77, "note": 58, "velocity": 109, "channel": 0}, {"type": "note_on", "time": 0, "note": 57, "velocity": 116, "channel": 0}, {"type": "note_off", "time": 109, "note": 57, "velocity": 116, "channel": 0}, {"type": "note_on", "time": 4, "note": 55, "velocity": 10, "channel": 0}, {"type": "note_off", "time": 222, "note": 55, "velocity": 10, "channel": 0}, {"type": "note_on", "time": 228, "note": 53, "velocity": 117, "channel": 0}, {"type": "note_off", "time": 76, "note": 53, "velocity": 117, "channel": 0}, {"type": "note_on", "time": 0, "note": 52, "velocity": 113, "channel": 0}, {"type": "note_off", "time": 121, "note": 52, "velocity": 113, "channel": 0}, {"type": "note_on", "time": 0, "note": 50, "velocity": 123, "channel": 0}, {"type": "note_on", "time": 61, "note": 48, "velocity": 109, "channel": 0}, {"type": "note_off", "time": 0, "note": 50, "velocity": 123, "channel": 0}, {"type": "note_off", "time": 367, "note": 48, "velocity": 109, "channel": 0}, {"type": "note_on", "time": 28, "note": 50, "velocity": 108, "channel": 0}, {"type": "note_off", "time": 108, "note": 50, "velocity": 108, "channel": 0}, {"type": "note_on", "time": 10, "note": 52, "velocity": 112, "channel": 0}, {"type": "note_off", "time": 105, "note": 52, "velocity": 112, "channel": 0}, {"type": "note_on", "time": 0, "note": 50, "velocity": 97, "channel": 0}, {"type": "note_off", "time": 976, "note": 50, "velocity": 97, "channel": 0}, {"type": "end_of_track", "time": 0}]]}