{"ticks_per_beat": 192, "tracks": [[{"type": "track_name", "name": "Melody", "time": 0}, {"type": "set_tempo", "tempo": 287081, "time": 0}, {"type": "key_signature", "key": "F", "time": 0}, {"type": "time_signature", "numerator": 4, "denominator": 4, "clocks_per_click": 24, "notated_32nd_notes_per_beat": 8, "time": 0}, {"type": "note_on", "time": 1688, "note": 58, "velocity": 110, "channel": 0}, {"type": "note_off", "time": 117, "note": 58, "velocity": 110, "channel": 0}, {"type": "note_on", "time": 8, "note": 60, "velocity": 113, "channel": 0}, {"type": "note_off", "time": 83, "note": 60, "velocity": 113, "channel": 0}, {"type": "note_on", "time": 10, "note": 62, "velocity": 118, "channel": 0}, {"type": "note_off", "time": 99, "note": 62, "velocity": 118, "channel": 0}, {"type": "note_on", "time": 16, "note": 64, "velocity": 118, "channel": 0}, {"type": "note_off", "time": 87, "note": 64, "velocity": 118, "channel": 0}, {"type": "note_on", "time": 6, "note": 65, "velocity": 111, "channel": 0}, {"type": "note_off", "time": 117, "note": 65, "velocity": 111, "channel": 0}, {"type": "note_on", "time": 56, "note": 60, "velocity": 93, "channel": 0}, {"type": "note_off", "time": 278, "note": 60, "velocity": 93, "channel": 0}, {"type": "note_on", "time": 256, "note": 64, "velocity": 116, "channel": 0}, {"type": "note_off", "time": 111, "note": 64, "velocity": 116, "channel": 0}, {"type": "note_on", "time": 9, "note": 61, "velocity": 115, "channel": 0}, {"type": "note_off", "time": 98, "note": 61, "velocity": 115, "channel": 0}, {"type": "note_on", "time": 8, "note": 57, "velocity": 97, "channel": 0}, {"type": "note_off", "time": 83, "note": 57, "velocity": 97, "channel": 0}, {"type": "note_on", "time": 12, "note": 58, "velocity": 100, "channel": 0}, {"type": "note_off", "time": 81, "note": 58, "velocity": 100, "channel": 0}, {"type": "note_on", "time": 11, "note": 60, "velocity": 111, "channel": 0}, {"type": "note_off", "time": 81, "note": 60, "velocity": 111, "channel": 0}, {"type": "note_on", "time": 8, "note": 61, "velocity": 113, "channel": 0}, {"type": "note_off", "time": 78, "note": 61, "velocity": 113, "channel": 0}, {"type": "note_on", "time": 9, "note": 65, "velocity": 109, "channel": 0}, {"type": "note_off", "time": 99, "note": 65, "velocity": 109, "channel": 0}, {"type": "note_on", "time": 20, "note": 67, "velocity": 110, "channel": 0}, {"type": "note_off", "time": 95, "note": 67, "velocity": 110, "channel": 0}, {"type": "note_on", "time": 1, "note": 72, "velocity": 114, "channel": 0}, {"type": "note_off", "time": 82, "note": 72, "velocity": 114, "channel": 0}, {"type": "note_on", "time": 7, "note": 69, "velocity": 112, "channel": 0}, {"type": "note_off", "time": 182, "note": 69, "velocity": 112, "channel": 0}, {"type": "note_on", "time": 8, "note": 67, "velocity": 109, "channel": 0}, {"type": "note_off", "time": 116, "note": 67, "velocity": 109, "channel": 0}, {"type": "note_on", "time": 8, "note": 65, "velocity": 102, "channel": 0}, {"type": "note_off", "time": 197, "note": 65, "velocity": 102, "channel": 0}, {"type": "note_on", "time": 212, "note": 69, "velocity": 113, "channel": 0}, {"type": "note_off", "time": 98, "note": 69, "velocity": 113, "channel": 0}, {"type": "note_on", "time": 10, "note": 67, "velocity": 111, "channel": 0}, {"type": "note_off", "time": 160, "note": 67, "velocity": 111, "channel": 0}, {"type": "note_on", "time": 14, "note": 65, "velocity": 110, "channel": 0}, {"type": "note_off", "time": 112, "note": 65, "velocity": 110, "channel": 0}, {"type": "note_on", "time": 6, "note": 63, "velocity": 106, "channel": 0}, {"type": "note_off", "time": 200, "note": 63, "velocity": 106, "channel": 0}, {"type": "note_on", "time": 190, "note": 67, "velocity": 110, "channel": 0}, {"type": "note_off", "time": 87, "note": 67, "velocity": 110, "channel": 0}, {"type": "note_on", "time": 10, "note": 64, "velocity": 110, "channel": 0}, {"type": "note_off", "time": 101, "note": 64, "velocity": 110, "channel": 0}, {"type": "note_on", "time": 36, "note": 65, "velocity": 92, "channel": 0}, {"type": "note_off", "time": 46, "note": 65, "velocity": 92, "channel": 0}, {"type": "note_on", "time": 18, "note": 69, "velocity": 113, "channel": 0}, {"type": "note_off", "time": 90, "note": 69, "velocity": 113, "channel": 0}, {"type": "note_on", "time": 2, "note": 67, "velocity": 110, "channel": 0}, {"type": "note_off", "time": 95, "note": 67, "velocity": 110, "channel": 0}, {"type": "note_on", "time": 10, "note": 65, "velocity": 108, "channel": 0}, {"type": "note_off", "time": 95, "note": 65, "velocity": 108, "channel": 0}, {"type": "note_on", "time": 8, "note": 62, "velocity": 109, "channel": 0}, {"type": "note_off", "time": 95, "note": 62, "velocity": 109, "channel": 0}, {"type": "note_on", "time": 5, "note": 60, "velocity": 104, "channel": 0}, {"type": "note_off", "time": 85, "note": 60, "velocity": 104, "channel": 0}, {"type": "note_on", "time": 8, "note": 58, "velocity": 102, "channel": 0}, {"type": "note_off", "time": 95, "note": 58, "velocity": 102, "channel": 0}, {"type": "note_on", "time": 13, "note": 57, "velocity": 102, "channel": 0}, {"type": "note_off", "time": 70, "note": 57, "velocity": 102, "channel": 0}, {"type": "note_on", "time": 109, "note": 66, "velocity": 106, "channel": 0}, {"type": "note_off", "time": 187, "note": 66, "velocity": 106, "channel": 0}, {"type": "note_on", "time": 11, "note": 63, "velocity": 113, "channel": 0}, {"type": "note_off", "time": 151, "note": 63, "velocity": 113, "channel": 0}, {"type": "note_on", "time": 69, "note": 57, "velocity": 95, "channel": 0}, {"type": "note_off", "time": 148, "note": 57, "velocity": 95, "channel": 0}, {"type": "note_on", "time": 455, "note": 59, "velocity": 105, "channel": 0}, {"type": "note_off", "time": 87, "note": 59, "velocity": 105, "channel": 0}, {"type": "note_on", "time": 102, "note": 69, "velocity": 113, "channel": 0}, {"type": "note_off", "time": 120, "note": 69, "velocity": 113, "channel": 0}, {"type": "note_on", "time": 58, "note": 58, "velocity": 107, "channel": 0}, {"type": "note_off", "time": 122, "note": 58, "velocity": 107, "channel": 0}, {"type": "note_on", "time": 87, "note": 68, "velocity": 109, "channel": 0}, {"type": "note_off", "time": 177, "note": 68, "velocity": 109, "channel": 0}, {"type": "note_on", "time": 19, "note": 64, "velocity": 110, "channel": 0}, {"type": "note_off", "time": 83, "note": 64, "velocity": 110, "channel": 0}, {"type": "note_on", "time": 43, "note": 60, "velocity": 108, "channel": 0}, {"type": "note_off", "time": 72, "note": 60, "velocity": 108, "channel": 0}, {"type": "note_on", "time": 12, "note": 58, "velocity": 103, "channel": 0}, {"type": "note_off", "time": 92, "note": 58, "velocity": 103, "channel": 0}, {"type": "note_on", "time": 49, "note": 53, "velocity": 99, "channel": 0}, {"type": "note_off", "time": 35, "note": 53, "velocity": 99, "channel": 0}, {"type": "note_on", "time": 31, "note": 57, "velocity": 104, "channel": 0}, {"type": "note_off", "time": 84, "note": 57, "velocity": 104, "channel": 0}, {"type": "note_on", "time": 8, "note": 65, "velocity": 100, "channel": 0}, {"type": "note_off", "time": 267, "note": 65, "velocity": 100, "channel": 0}, {"type": "note_on", "time": 308, "note": 64, "velocity": 110, "channel": 0}, {"type": "note_off", "time": 89, "note": 64, "velocity": 110, "channel": 0}, {"type": "note_on", "time": 29, "note": 72, "velocity": 113, "channel": 0}, {"type": "note_off", "time": 84, "note": 72, "velocity": 113, "channel": 0}, {"type": "note_on", "time": 12, "note": 70, "velocity": 110, "channel": 0}, {"type": "note_off", "time": 81, "note": 70, "velocity": 110, "channel": 0}, {"type": "note_on", "time": 19, "note": 65, "velocity": 104, "channel": 0}, {"type": "note_off", "time": 84, "note": 65, "velocity": 104, "channel": 0}, {"type": "note_on", "time": 14, "note": 61, "velocity": 107, "channel": 0}, {"type": "note_off", "time": 96, "note": 61, "velocity": 107, "channel": 0}, {"type": "note_on", "time": 6, "note": 60, "velocity": 104, "channel": 0}, {"type": "note_off", "time": 66, "note": 60, "velocity": 104, "channel": 0}, {"type": "note_on", "time": 51, "note": 59, "velocity": 99, "channel": 0}, {"type": "note_off", "time": 74, "note": 59, "velocity": 99, "channel": 0}, {"type": "note_on", "time": 8, "note": 58, "velocity": 103, "channel": 0}, {"type": "note_off", "time": 107, "note": 58, "velocity": 103, "channel": 0}, {"type": "note_on", "time": 21, "note": 57, "velocity": 104, "channel": 0}, {"type": "note_off", "time": 132, "note": 57, "velocity": 104, "channel": 0}, {"type": "note_on", "time": 15, "note": 59, "velocity": 105, "channel": 0}, {"type": "note_off", "time": 90, "note": 59, "velocity": 105, "channel": 0}, {"type": "note_on", "time": 7, "note": 61, "velocity": 113, "channel": 0}, {"type": "note_off", "time": 89, "note": 61, "velocity": 113, "channel": 0}, {"type": "note_on", "time": 10, "note": 64, "velocity": 113, "channel": 0}, {"type": "note_off", "time": 79, "note": 64, "velocity": 113, "channel": 0}, {"type": "note_on", "time": 14, "note": 62, "velocity": 112, "channel": 0}, {"type": "note_off", "time": 85, "note": 62, "velocity": 112, "channel": 0}, {"type": "note_on", "time": 14, "note": 64, "velocity": 113, "channel": 0}, {"type": "note_off", "time": 85, "note": 64, "velocity": 113, "channel": 0}, {"type": "note_on", "time": 6, "note": 65, "velocity": 108, "channel": 0}, {"type": "note_off", "time": 96, "note": 65, "velocity": 108, "channel": 0}, {"type": "note_on", "time": 12, "note": 67, "velocity": 106, "channel": 0}, {"type": "note_off", "time": 72, "note": 67, "velocity": 106, "channel": 0}, {"type": "note_on", "time": 6, "note": 63, "velocity": 112, "channel": 0}, {"type": "note_off", "time": 88, "note": 63, "velocity": 112, "channel": 0}, {"type": "note_on", "time": 24, "note": 69, "velocity": 108, "channel": 0}, {"type": "note_off", "time": 106, "note": 69, "velocity": 108, "channel": 0}, {"type": "note_on", "time": 6, "note": 73, "velocity": 105, "channel": 0}, {"type": "note_off", "time": 85, "note": 73, "velocity": 105, "channel": 0}, {"type": "note_on", "time": 12, "note": 71, "velocity": 111, "channel": 0}, {"type": "note_off", "time": 85, "note": 71, "velocity": 111, "channel": 0}, {"type": "note_on", "time": 14, "note": 69, "velocity": 107, "channel": 0}, {"type": "note_off", "time": 87, "note": 69, "velocity": 107, "channel": 0}, {"type": "note_on", "time": 39, "note": 67, "velocity": 104, "channel": 0}, {"type": "note_off", "time": 68, "note": 67, "velocity": 104, "channel": 0}, {"type": "note_on", "time": 5, "note": 68, "velocity": 106, "channel": 0}, {"type": "note_off", "time": 83, "note": 68, "velocity": 106, "channel": 0}, {"type": "note_on", "time": 40, "note": 66, "velocity": 103, "channel": 0}, {"type": "note_off", "time": 68, "note": 66, "velocity": 103, "channel": 0}, {"type": "note_on", "time": 21, "note": 67, "velocity": 102, "channel": 0}, {"type": "note_off", "time": 78, "note": 67, "velocity": 102, "channel": 0}, {"type": "note_on", "time": 27, "note": 65, "velocity": 98, "channel": 0}, {"type": "note_off", "time": 64, "note": 65, "velocity": 98, "channel": 0}, {"type": "note_on", "time": 8, "note": 66, "velocity": 104, "channel": 0}, {"type": "note_off", "time": 85, "note": 66, "velocity": 104, "channel": 0}, {"type": "note_on", "time": 56, "note": 64, "velocity": 89, "channel": 0}, {"type": "note_off", "time": 41, "note": 64, "velocity": 89, "channel": 0}, {"type": "note_on", "time": 14, "note": 65, "velocity": 106, "channel": 0}, {"type": "note_off", "time": 92, "note": 65, "velocity": 106, "channel": 0}, {"type": "note_on", "time": 8, "note": 62, "velocity": 109, "channel": 0}, {"type": "note_off", "time": 75, "note": 62, "velocity": 109, "channel": 0}, {"type": "note_on", "time": 52, "note": 58, "velocity": 103, "channel": 0}, {"type": "note_off", "time": 66, "note": 58, "velocity": 103, "channel": 0}, {"type": "note_on", "time": 8, "note": 55, "velocity": 90, "channel": 0}, {"type": "note_off", "time": 55, "note": 55, "velocity": 90, "channel": 0}, {"type": "note_on", "time": 14, "note": 63, "velocity": 113, "channel": 0}, {"type": "note_off", "time": 96, "note": 63, "velocity": 113, "channel": 0}, {"type": "note_on", "time": 7, "note": 62, "velocity": 106, "channel": 0}, {"type": "note_off", "time": 37, "note": 62, "velocity": 106, "channel": 0}, {"type": "note_on", "time": 6, "note": 61, "velocity": 106, "channel": 0}, {"type": "note_off", "time": 39, "note": 61, "velocity": 106, "channel": 0}, {"type": "note_on", "time": 5, "note": 60, "velocity": 107, "channel": 0}, {"type": "note_off", "time": 127, "note": 60, "velocity": 107, "channel": 0}, {"type": "note_on", "time": 10, "note": 58, "velocity": 103, "channel": 0}, {"type": "note_off", "time": 84, "note": 58, "velocity": 103, "channel": 0}, {"type": "note_on", "time": 9, "note": 57, "velocity": 102, "channel": 0}, {"type": "note_off", "time": 75, "note": 57, "velocity": 102, "channel": 0}, {"type": "note_on", "time": 54, "note": 55, "velocity": 99, "channel": 0}, {"type": "note_off", "time": 56, "note": 55, "velocity": 99, "channel": 0}, {"type": "note_on", "time": 16, "note": 54, "velocity": 98, "channel": 0}, {"type": "note_off", "time": 48, "note": 54, "velocity": 98, "channel": 0}, {"type": "note_on", "time": 37, "note": 63, "velocity": 110, "channel": 0}, {"type": "note_off", "time": 114, "note": 63, "velocity": 110, "channel": 0}, {"type": "note_on", "time": 9, "note": 59, "velocity": 97, "channel": 0}, {"type": "note_off", "time": 55, "note": 59, "velocity": 97, "channel": 0}, {"type": "note_on", "time": 315, "note": 58, "velocity": 104, "channel": 0}, {"type": "note_off", "time": 110, "note": 58, "velocity": 104, "channel": 0}, {"type": "note_on", "time": 199, "note": 57, "velocity": 99, "channel": 0}, {"type": "note_off", "time": 252, "note": 57, "velocity": 99, "channel": 0}, {"type": "note_on", "time": 320, "note": 61, "velocity": 115, "channel": 0}, {"type": "note_off", "time": 81, "note": 61, "velocity": 115, "channel": 0}, {"type": "note_on", "time": 11, "note": 62, "velocity": 114, "channel": 0}, {"type": "note_off", "time": 93, "note": 62, "velocity": 114, "channel": 0}, {"type": "note_on", "time": 28, "note": 65, "velocity": 112, "channel": 0}, {"type": "note_off", "time": 57, "note": 65, "velocity": 112, "channel": 0}, {"type": "note_on", "time": 35, "note": 62, "velocity": 115, "channel": 0}, {"type": "note_off", "time": 79, "note": 62, "velocity": 115, "channel": 0}, {"type": "note_on", "time": 10, "note": 63, "velocity": 113, "channel": 0}, {"type": "note_off", "time": 88, "note": 63, "velocity": 113, "channel": 0}, {"type": "note_on", "time": 23, "note": 67, "velocity": 109, "channel": 0}, {"type": "note_off", "time": 94, "note": 67, "velocity": 109, "channel": 0}, {"type": "note_on", "time": 29, "note": 70, "velocity": 109, "channel": 0}, {"type": "note_off", "time": 68, "note": 70, "velocity": 109, "channel": 0}, {"type": "note_on", "time": 8, "note": 74, "velocity": 105, "channel": 0}, {"type": "note_off", "time": 301, "note": 74, "velocity": 105, "channel": 0}, {"type": "note_on", "time": 18, "note": 72, "velocity": 111, "channel": 0}, {"type": "note_off", "time": 59, "note": 72, "velocity": 111, "channel": 0}, {"type": "note_on", "time": 17, "note": 71, "velocity": 110, "channel": 0}, {"type": "note_off", "time": 289, "note": 71, "velocity": 110, "channel": 0}, {"type": "note_on", "time": 15, "note": 69, "velocity": 109, "channel": 0}, {"type": "note_off", "time": 111, "note": 69, "velocity": 109, "channel": 0}, {"type": "note_on", "time": 10, "note": 68, "velocity": 109, "channel": 0}, {"type": "note_off", "time": 157, "note": 68, "velocity": 109, "channel": 0}, {"type": "note_on", "time": 20, "note": 64, "velocity": 111, "channel": 0}, {"type": "note_off", "time": 102, "note": 64, "velocity": 111, "channel": 0}, {"type": "note_on", "time": 8, "note": 67, "velocity": 107, "channel": 0}, {"type": "note_off", "time": 96, "note": 67, "velocity": 107, "channel": 0}, {"type": "note_on", "time": 10, "note": 65, "velocity": 104, "channel": 0}, {"type": "note_off", "time": 247, "note": 65, "velocity": 104, "channel": 0}, {"type": "note_on", "time": 10, "note": 62, "velocity": 108, "channel": 0}, {"type": "note_off", "time": 108, "note": 62, "velocity": 108, "channel": 0}, {"type": "note_on", "time": 10, "note": 60, "velocity": 106, "channel": 0}, {"type": "note_off", "time": 175, "note": 60, "velocity": 106, "channel": 0}, {"type": "note_on", "time": 5, "note": 65, "velocity": 104, "channel": 0}, {"type": "note_off", "time": 101, "note": 65, "velocity": 104, "channel": 0}, {"type": "note_on", "time": 47, "note": 62, "velocity": 98, "channel": 0}, {"type": "note_off", "time": 244, "note": 62, "velocity": 98, "channel": 0}, {"type": "note_on", "time": 310, "note": 63, "velocity": 113, "channel": 0}, {"type": "note_off", "time": 71, "note": 63, "velocity": 113, "channel": 0}, {"type": "note_on", "time": 11, "note": 66, "velocity": 109, "channel": 0}, {"type": "note_off", "time": 98, "note": 66, "velocity": 109, "channel": 0}, {"type": "note_on", "time": 20, "note": 70, "velocity": 112, "channel": 0}, {"type": "note_off", "time": 58, "note": 70, "velocity": 112, "channel": 0}, {"type": "note_on", "time": 43, "note": 73, "velocity": 105, "channel": 0}, {"type": "note_off", "time": 181, "note": 73, "velocity": 105, "channel": 0}, {"type": "note_on", "time": 11, "note": 70, "velocity": 111, "channel": 0}, {"type": "note_off", "time": 85, "note": 70, "velocity": 111, "channel": 0}, {"type": "note_on", "time": 22, "note": 66, "velocity": 105, "channel": 0}, {"type": "note_off", "time": 94, "note": 66, "velocity": 105, "channel": 0}, {"type": "note_on", "time": 17, "note": 65, "velocity": 106, "channel": 0}, {"type": "note_off", "time": 77, "note": 65, "velocity": 106, "channel": 0}, {"type": "note_on", "time": 10, "note": 63, "velocity": 100, "channel": 0}, {"type": "note_off", "time": 68, "note": 63, "velocity": 100, "channel": 0}, {"type": "note_on", "time": 6, "note": 64, "velocity": 114, "channel": 0}, {"type": "note_off", "time": 98, "note": 64, "velocity": 114, "channel": 0}, {"type": "note_on", "time": 33, "note": 60, "velocity": 107, "channel": 0}, {"type": "note_off", "time": 55, "note": 60, "velocity": 107, "channel": 0}, {"type": "note_on", "time": 10, "note": 59, "velocity": 99, "channel": 0}, {"type": "note_off", "time": 91, "note": 59, "velocity": 99, "channel": 0}, {"type": "note_on", "time": 32, "note": 58, "velocity": 103, "channel": 0}, {"type": "note_off", "time": 75, "note": 58, "velocity": 103, "channel": 0}, {"type": "note_on", "time": 11, "note": 57, "velocity": 103, "channel": 0}, {"type": "note_off", "time": 109, "note": 57, "velocity": 103, "channel": 0}, {"type": "note_on", "time": 55, "note": 53, "velocity": 103, "channel": 0}, {"type": "note_off", "time": 23, "note": 53, "velocity": 103, "channel": 0}, {"type": "note_on", "time": 8, "note": 56, "velocity": 100, "channel": 0}, {"type": "note_off", "time": 77, "note": 56, "velocity": 100, "channel": 0}, {"type": "note_on", "time": 29, "note": 68, "velocity": 104, "channel": 0}, {"type": "note_off", "time": 89, "note": 68, "velocity": 104, "channel": 0}, {"type": "note_on", "time": 15, "note": 65, "velocity": 102, "channel": 0}, {"type": "note_off", "time": 108, "note": 65, "velocity": 102, "channel": 0}, {"type": "note_on", "time": 11, "note": 64, "velocity": 109, "channel": 0}, {"type": "note_off", "time": 101, "note": 64, "velocity": 109, "channel": 0}, {"type": "note_on", "time": 13, "note": 63, "velocity": 105, "channel": 0}, {"type": "note_off", "time": 237, "note": 63, "velocity": 105, "channel": 0}, {"type": "note_on", "time": 10, "note": 62, "velocity": 102, "channel": 0}, {"type": "note_off", "time": 39, "note": 62, "velocity": 102, "channel": 0}, {"type": "note_on", "time": 4, "note": 61, "velocity": 105, "channel": 0}, {"type": "note_off", "time": 58, "note": 61, "velocity": 105, "channel": 0}, {"type": "note_on", "time": 14, "note": 60, "velocity": 103, "channel": 0}, {"type": "note_off", "time": 92, "note": 60, "velocity": 103, "channel": 0}, {"type": "note_on", "time": 9, "note": 61, "velocity": 107, "channel": 0}, {"type": "note_off", "time": 71, "note": 61, "velocity": 107, "channel": 0}, {"type": "note_on", "time": 106, "note": 69, "velocity": 82, "channel": 0}, {"type": "note_off", "time": 38, "note": 69, "velocity": 82, "channel": 0}, {"type": "note_on", "time": 10, "note": 72, "velocity": 104, "channel": 0}, {"type": "note_off", "time": 92, "note": 72, "velocity": 104, "channel": 0}, {"type": "note_on", "time": 24, "note": 70, "velocity": 110, "channel": 0}, {"type": "note_off", "time": 38, "note": 70, "velocity": 110, "channel": 0}, {"type": "note_on", "time": 287, "note": 69, "velocity": 110, "channel": 0}, {"type": "note_off", "time": 94, "note": 69, "velocity": 110, "channel": 0}, {"type": "note_on", "time": 21, "note": 68, "velocity": 109, "channel": 0}, {"type": "note_off", "time": 70, "note": 68, "velocity": 109, "channel": 0}, {"type": "note_on", "time": 17, "note": 64, "velocity": 112, "channel": 0}, {"type": "note_off", "time": 135, "note": 64, "velocity": 112, "channel": 0}, {"type": "note_on", "time": 56, "note": 65, "velocity": 106, "channel": 0}, {"type": "note_off", "time": 128, "note": 65, "velocity": 106, "channel": 0}, {"type": "note_on", "time": 68, "note": 69, "velocity": 108, "channel": 0}, {"type": "note_off", "time": 272, "note": 69, "velocity": 108, "channel": 0}, {"type": "note_on", "time": 242, "note": 64, "velocity": 113, "channel": 0}, {"type": "note_off", "time": 82, "note": 64, "velocity": 113, "channel": 0}, {"type": "note_on", "time": 8, "note": 65, "velocity": 110, "channel": 0}, {"type": "note_off", "time": 64, "note": 65, "velocity": 110, "channel": 0}, {"type": "note_on", "time": 44, "note": 63, "velocity": 99, "channel": 0}, {"type": "note_off", "time": 49, "note": 63, "velocity": 99, "channel": 0}, {"type": "note_on", "time": 13, "note": 64, "velocity": 112, "channel": 0}, {"type": "note_off", "time": 102, "note": 64, "velocity": 112, "channel": 0}, {"type": "note_on", "time": 10, "note": 62, "velocity": 106, "channel": 0}, {"type": "note_off", "time": 96, "note": 62, "velocity": 106, "channel": 0}, {"type": "note_on", "time": 10, "note": 61, "velocity": 106, "channel": 0}, {"type": "note_off", "time": 75, "note": 61, "velocity": 106, "channel": 0}, {"type": "note_on", "time": 8, "note": 58, "velocity": 103, "channel": 0}, {"type": "note_off", "time": 87, "note": 58, "velocity": 103, "channel": 0}, {"type": "note_on", "time": 22, "note": 57, "velocity": 103, "channel": 0}, {"type": "note_off", "time": 90, "note": 57, "velocity": 103, "channel": 0}, {"type": "note_on", "time": 20, "note": 55, "velocity": 98, "channel": 0}, {"type": "note_off", "time": 56, "note": 55, "velocity": 98, "channel": 0}, {"type": "note_on", "time": 20, "note": 53, "velocity": 96, "channel": 0}, {"type": "note_off", "time": 130, "note": 53, "velocity": 96, "channel": 0}, {"type": "note_on", "time": 87, "note": 61, "velocity": 80, "channel": 0}, {"type": "note_off", "time": 33, "note": 61, "velocity": 80, "channel": 0}, {"type": "note_on", "time": 12, "note": 64, "velocity": 111, "channel": 0}, {"type": "note_off", "time": 98, "note": 64, "velocity": 111, "channel": 0}, {"type": "note_on", "time": 10, "note": 62, "velocity": 112, "channel": 0}, {"type": "note_off", "time": 80, "note": 62, "velocity": 112, "channel": 0}, {"type": "note_on", "time": 8, "note": 64, "velocity": 113, "channel": 0}, {"type": "note_off", "time": 75, "note": 64, "velocity": 113, "channel": 0}, {"type": "note_on", "time": 23, "note": 65, "velocity": 108, "channel": 0}, {"type": "note_off", "time": 77, "note": 65, "velocity": 108, "channel": 0}, {"type": "note_on", "time": 37, "note": 67, "velocity": 107, "channel": 0}, {"type": "note_off", "time": 67, "note": 67, "velocity": 107, "channel": 0}, {"type": "note_on", "time": 20, "note": 63, "velocity": 111, "channel": 0}, {"type": "note_off", "time": 152, "note": 63, "velocity": 111, "channel": 0}, {"type": "note_on", "time": 11, "note": 62, "velocity": 105, "channel": 0}, {"type": "note_off", "time": 90, "note": 62, "velocity": 105, "channel": 0}, {"type": "note_on", "time": 61, "note": 60, "velocity": 106, "channel": 0}, {"type": "note_off", "time": 113, "note": 60, "velocity": 106, "channel": 0}, {"type": "note_on", "time": 392, "note": 71, "velocity": 85, "channel": 0}, {"type": "note_off", "time": 34, "note": 71, "velocity": 85, "channel": 0}, {"type": "note_on", "time": 27, "note": 67, "velocity": 111, "channel": 0}, {"type": "note_off", "time": 45, "note": 67, "velocity": 111, "channel": 0}, {"type": "note_on", "time": 13, "note": 66, "velocity": 111, "channel": 0}, {"type": "note_off", "time": 93, "note": 66, "velocity": 111, "channel": 0}, {"type": "note_on", "time": 11, "note": 64, "velocity": 95, "channel": 0}, {"type": "note_off", "time": 58, "note": 64, "velocity": 95, "channel": 0}, {"type": "note_on", "time": 14, "note": 65, "velocity": 111, "channel": 0}, {"type": "note_off", "time": 96, "note": 65, "velocity": 111, "channel": 0}, {"type": "note_on", "time": 13, "note": 62, "velocity": 112, "channel": 0}, {"type": "note_off", "time": 67, "note": 62, "velocity": 112, "channel": 0}, {"type": "note_on", "time": 10, "note": 58, "velocity": 106, "channel": 0}, {"type": "note_off", "time": 113, "note": 58, "velocity": 106, "channel": 0}, {"type": "note_on", "time": 70, "note": 63, "velocity": 117, "channel": 0}, {"type": "note_off", "time": 43, "note": 63, "velocity": 117, "channel": 0}, {"type": "note_on", "time": 1, "note": 64, "velocity": 111, "channel": 0}, {"type": "note_off", "time": 22, "note": 64, "velocity": 111, "channel": 0}, {"type": "note_on", "time": 4, "note": 63, "velocity": 115, "channel": 0}, {"type": "note_off", "time": 39, "note": 63, "velocity": 115, "channel": 0}, {"type": "note_on", "time": 5, "note": 62, "velocity": 108, "channel": 0}, {"type": "note_off", "time": 28, "note": 62, "velocity": 108, "channel": 0}, {"type": "note_on", "time": 8, "note": 61, "velocity": 109, "channel": 0}, {"type": "note_off", "time": 34, "note": 61, "velocity": 109, "channel": 0}, {"type": "note_on", "time": 11, "note": 60, "velocity": 108, "channel": 0}, {"type": "note_off", "time": 114, "note": 60, "velocity": 108, "channel": 0}, {"type": "note_on", "time": 31, "note": 58, "velocity": 104, "channel": 0}, {"type": "note_off", "time": 66, "note": 58, "velocity": 104, "channel": 0}, {"type": "note_on", "time": 14, "note": 57, "velocity": 104, "channel": 0}, {"type": "note_off", "time": 91, "note": 57, "velocity": 104, "channel": 0}, {"type": "note_on", "time": 20, "note": 55, "velocity": 104, "channel": 0}, {"type": "note_off", "time": 56, "note": 55, "velocity": 104, "channel": 0}, {"type": "note_on", "time": 47, "note": 54, "velocity": 102, "channel": 0}, {"type": "note_off", "time": 101, "note": 54, "velocity": 102, "channel": 0}, {"type": "note_on", "time": 17, "note": 50, "velocity": 94, "channel": 0}, {"type": "note_off", "time": 58, "note": 50, "velocity": 94, "channel": 0}, {"type": "note_on", "time": 24, "note": 55, "velocity": 105, "channel": 0}, {"type": "note_off", "time": 79, "note": 55, "velocity": 105, "channel": 0}, {"type": "note_on", "time": 25, "note": 57, "velocity": 108, "channel": 0}, {"type": "note_off", "time": 78, "note": 57, "velocity": 108, "channel": 0}, {"type": "note_on", "time": 14, "note": 58, "velocity": 106, "channel": 0}, {"type": "note_off", "time": 76, "note": 58, "velocity": 106, "channel": 0}, {"type": "note_on", "time": 27, "note": 60, "velocity": 112, "channel": 0}, {"type": "note_off", "time": 86, "note": 60, "velocity": 112, "channel": 0}, {"type": "note_on", "time": 13, "note": 57, "velocity": 101, "channel": 0}, {"type": "note_off", "time": 114, "note": 57, "velocity": 101, "channel": 0}, {"type": "note_on", "time": 42, "note": 57, "velocity": 106, "channel": 0}, {"type": "note_off", "time": 102, "note": 57, "velocity": 106, "channel": 0}, {"type": "note_on", "time": 38, "note": 53, "velocity": 96, "channel": 0}, {"type": "note_off", "time": 232, "note": 53, "velocity": 96, "channel": 0}, {"type": "note_on", "time": 383, "note": 60, "velocity": 119, "channel": 0}, {"type": "note_off", "time": 50, "note": 60, "velocity": 119, "channel": 0}, {"type": "note_on", "time": 19, "note": 65, "velocity": 101, "channel": 0}, {"type": "note_off", "time": 21, "note": 65, "velocity": 101, "channel": 0}, {"type": "note_on", "time": 42, "note": 69, "velocity": 116, "channel": 0}, {"type": "note_off", "time": 66, "note": 69, "velocity": 116, "channel": 0}, {"type": "note_on", "time": 25, "note": 74, "velocity": 112, "channel": 0}, {"type": "note_off", "time": 169, "note": 74, "velocity": 112, "channel": 0}, {"type": "note_on", "time": 10, "note": 69, "velocity": 117, "channel": 0}, {"type": "note_off", "time": 85, "note": 69, "velocity": 117, "channel": 0}, {"type": "note_on", "time": 25, "note": 72, "velocity": 115, "channel": 0}, {"type": "note_off", "time": 438, "note": 72, "velocity": 115, "channel": 0}, {"type": "note_on", "time": 128, "note": 69, "velocity": 114, "channel": 0}, {"type": "note_off", "time": 53, "note": 69, "velocity": 114, "channel": 0}, {"type": "note_on", "time": 3, "note": 68, "velocity": 110, "channel": 0}, {"type": "note_off", "time": 33, "note": 68, "velocity": 110, "channel": 0}, {"type": "note_on", "time": 7, "note": 67, "velocity": 114, "channel": 0}, {"type": "note_off", "time": 51, "note": 67, "velocity": 114, "channel": 0}, {"type": "note_on", "time": 11, "note": 66, "velocity": 114, "channel": 0}, {"type": "note_off", "time": 42, "note": 66, "velocity": 114, "channel": 0}, {"type": "note_on", "time": 2, "note": 64, "velocity": 117, "channel": 0}, {"type": "note_off", "time": 41, "note": 64, "velocity": 117, "channel": 0}, {"type": "note_on", "time": 4, "note": 62, "velocity": 115, "channel": 0}, {"type": "note_off", "time": 33, "note": 62, "velocity": 115, "channel": 0}, {"type": "note_on", "time": 5, "note": 61, "velocity": 112, "channel": 0}, {"type": "note_off", "time": 52, "note": 61, "velocity": 112, "channel": 0}, {"type": "note_on", "time": 6, "note": 64, "velocity": 113, "channel": 0}, {"type": "note_off", "time": 34, "note": 64, "velocity": 113, "channel": 0}, {"type": "note_on", "time": 2, "note": 67, "velocity": 109, "channel": 0}, {"type": "note_off", "time": 22, "note": 67, "velocity": 109, "channel": 0}, {"type": "note_on", "time": 1, "note": 70, "velocity": 114, "channel": 0}, {"type": "note_off", "time": 41, "note": 70, "velocity": 114, "channel": 0}, {"type": "note_on", "time": 11, "note": 69, "velocity": 114, "channel": 0}, {"type": "note_off", "time": 62, "note": 69, "velocity": 114, "channel": 0}, {"type": "note_on", "time": 282, "note": 57, "velocity": 111, "channel": 0}, {"type": "note_off", "time": 43, "note": 57, "velocity": 111, "channel": 0}, {"type": "note_on", "time": 10, "note": 59, "velocity": 109, "channel": 0}, {"type": "note_off", "time": 32, "note": 59, "velocity": 109, "channel": 0}, {"type": "note_on", "time": 3, "note": 61, "velocity": 113, "channel": 0}, {"type": "note_off", "time": 55, "note": 61, "velocity": 113, "channel": 0}, {"type": "note_on", "time": 4, "note": 64, "velocity": 117, "channel": 0}, {"type": "note_off", "time": 39, "note": 64, "velocity": 117, "channel": 0}, {"type": "note_on", "time": 3, "note": 62, "velocity": 115, "channel": 0}, {"type": "note_off", "time": 41, "note": 62, "velocity": 115, "channel": 0}, {"type": "note_on", "time": 6, "note": 64, "velocity": 117, "channel": 0}, {"type": "note_off", "time": 49, "note": 64, "velocity": 117, "channel": 0}, {"type": "note_on", "time": 23, "note": 67, "velocity": 102, "channel": 0}, {"type": "note_off", "time": 55, "note": 67, "velocity": 102, "channel": 0}, {"type": "note_on", "time": 10, "note": 69, "velocity": 114, "channel": 0}, {"type": "note_off", "time": 50, "note": 69, "velocity": 114, "channel": 0}, {"type": "note_on", "time": 4, "note": 65, "velocity": 110, "channel": 0}, {"type": "note_off", "time": 35, "note": 65, "velocity": 110, "channel": 0}, {"type": "note_on", "time": 6, "note": 64, "velocity": 112, "channel": 0}, {"type": "note_off", "time": 48, "note": 64, "velocity": 112, "channel": 0}, {"type": "note_on", "time": 4, "note": 62, "velocity": 109, "channel": 0}, {"type": "note_off", "time": 30, "note": 62, "velocity": 109, "channel": 0}, {"type": "note_on", "time": 9, "note": 67, "velocity": 113, "channel": 0}, {"type": "note_off", "time": 44, "note": 67, "velocity": 113, "channel": 0}, {"type": "note_on", "time": 5, "note": 66, "velocity": 108, "channel": 0}, {"type": "note_off", "time": 55, "note": 66, "velocity": 108, "channel": 0}, {"type": "note_on", "time": 4, "note": 65, "velocity": 111, "channel": 0}, {"type": "note_off", "time": 29, "note": 65, "velocity": 111, "channel": 0}, {"type": "note_on", "time": 4, "note": 64, "velocity": 120, "channel": 0}, {"type": "note_off", "time": 57, "note": 64, "velocity": 120, "channel": 0}, {"type": "note_on", "time": 5, "note": 62, "velocity": 108, "channel": 0}, {"type": "note_off", "time": 30, "note": 62, "velocity": 108, "channel": 0}, {"type": "note_on", "time": 5, "note": 54, "velocity": 106, "channel": 0}, {"type": "note_off", "time": 67, "note": 54, "velocity": 106, "channel": 0}, {"type": "note_on", "time": 4, "note": 55, "velocity": 108, "channel": 0}, {"type": "note_off", "time": 58, "note": 55, "velocity": 108, "channel": 0}, {"type": "note_on", "time": 4, "note": 62, "velocity": 116, "channel": 0}, {"type": "note_off", "time": 56, "note": 62, "velocity": 116, "channel": 0}, {"type": "note_on", "time": 5, "note": 61, "velocity": 104, "channel": 0}, {"type": "note_off", "time": 21, "note": 61, "velocity": 104, "channel": 0}, {"type": "note_on", "time": 5, "note": 58, "velocity": 106, "channel": 0}, {"type": "note_off", "time": 60, "note": 58, "velocity": 106, "channel": 0}, {"type": "note_on", "time": 29, "note": 57, "velocity": 109, "channel": 0}, {"type": "note_off", "time": 35, "note": 57, "velocity": 109, "channel": 0}, {"type": "note_on", "time": 9, "note": 60, "velocity": 106, "channel": 0}, {"type": "note_off", "time": 36, "note": 60, "velocity": 106, "channel": 0}, {"type": "note_on", "time": 7, "note": 63, "velocity": 117, "channel": 0}, {"type": "note_off", "time": 45, "note": 63, "velocity": 117, "channel": 0}, {"type": "note_on", "time": 5, "note": 67, "velocity": 111, "channel": 0}, {"type": "note_off", "time": 35, "note": 67, "velocity": 111, "channel": 0}, {"type": "note_on", "time": 4, "note": 65, "velocity": 110, "channel": 0}, {"type": "note_off", "time": 45, "note": 65, "velocity": 110, "channel": 0}, {"type": "note_on", "time": 6, "note": 63, "velocity": 116, "channel": 0}, {"type": "note_off", "time": 37, "note": 63, "velocity": 116, "channel": 0}, {"type": "note_on", "time": 6, "note": 62, "velocity": 108, "channel": 0}, {"type": "note_off", "time": 39, "note": 62, "velocity": 108, "channel": 0}, {"type": "note_on", "time": 3, "note": 60, "velocity": 106, "channel": 0}, {"type": "note_off", "time": 25, "note": 60, "velocity": 106, "channel": 0}, {"type": "note_on", "time": 7, "note": 58, "velocity": 108, "channel": 0}, {"type": "note_off", "time": 23, "note": 58, "velocity": 108, "channel": 0}, {"type": "note_on", "time": 40, "note": 60, "velocity": 108, "channel": 0}, {"type": "note_off", "time": 27, "note": 60, "velocity": 108, "channel": 0}, {"type": "note_on", "time": 15, "note": 62, "velocity": 109, "channel": 0}, {"type": "note_off", "time": 40, "note": 62, "velocity": 109, "channel": 0}, {"type": "note_on", "time": 9, "note": 65, "velocity": 104, "channel": 0}, {"type": "note_off", "time": 41, "note": 65, "velocity": 104, "channel": 0}, {"type": "note_on", "time": 8, "note": 70, "velocity": 113, "channel": 0}, {"type": "note_off", "time": 47, "note": 70, "velocity": 113, "channel": 0}, {"type": "note_on", "time": 8, "note": 69, "velocity": 111, "channel": 0}, {"type": "note_off", "time": 35, "note": 69, "velocity": 111, "channel": 0}, {"type": "note_on", "time": 11, "note": 67, "velocity": 111, "channel": 0}, {"type": "note_off", "time": 58, "note": 67, "velocity": 111, "channel": 0}, {"type": "note_on", "time": 8, "note": 66, "velocity": 110, "channel": 0}, {"type": "note_off", "time": 33, "note": 66, "velocity": 110, "channel": 0}, {"type": "note_on", "time": 5, "note": 65, "velocity": 109, "channel": 0}, {"type": "note_off", "time": 20, "note": 65, "velocity": 109, "channel": 0}, {"type": "note_on", "time": 5, "note": 63, "velocity": 117, "channel": 0}, {"type": "note_off", "time": 45, "note": 63, "velocity": 117, "channel": 0}, {"type": "note_on", "time": 4, "note": 62, "velocity": 112, "channel": 0}, {"type": "note_off", "time": 23, "note": 62, "velocity": 112, "channel": 0}, {"type": "note_on", "time": 2, "note": 60, "velocity": 109, "channel": 0}, {"type": "note_off", "time": 25, "note": 60, "velocity": 109, "channel": 0}, {"type": "note_on", "time": 3, "note": 58, "velocity": 107, "channel": 0}, {"type": "note_off", "time": 16, "note": 58, "velocity": 107, "channel": 0}, {"type": "note_on", "time": 7, "note": 56, "velocity": 104, "channel": 0}, {"type": "note_off", "time": 30, "note": 56, "velocity": 104, "channel": 0}, {"type": "note_on", "time": 9, "note": 55, "velocity": 104, "channel": 0}, {"type": "note_off", "time": 33, "note": 55, "velocity": 104, "channel": 0}, {"type": "note_on", "time": 7, "note": 54, "velocity": 106, "channel": 0}, {"type": "note_off", "time": 52, "note": 54, "velocity": 106, "channel": 0}, {"type": "note_on", "time": 5, "note": 53, "velocity": 106, "channel": 0}, {"type": "note_off", "time": 33, "note": 53, "velocity": 106, "channel": 0}, {"type": "note_on", "time": 5, "note": 51, "velocity": 109, "channel": 0}, {"type": "note_off", "time": 38, "note": 51, "velocity": 109, "channel": 0}, {"type": "note_on", "time": 4, "note": 50, "velocity": 106, "channel": 0}, {"type": "note_off", "time": 47, "note": 50, "velocity": 106, "channel": 0}, {"type": "note_on", "time": 5, "note": 48, "velocity": 107, "channel": 0}, {"type": "note_off", "time": 49, "note": 48, "velocity": 107, "channel": 0}, {"type": "note_on", "time": 6, "note": 46, "velocity": 109, "channel": 0}, {"type": "note_off", "time": 69, "note": 46, "velocity": 109, "channel": 0}, {"type": "note_on", "time": 7, "note": 45, "velocity": 108, "channel": 0}, {"type": "note_off", "time": 110, "note": 45, "velocity": 108, "channel": 0}, {"type": "note_on", "time": 394, "note": 54, "velocity": 95, "channel": 0}, {"type": "note_off", "time": 44, "note": 54, "velocity": 95, "channel": 0}, {"type": "note_on", "time": 8, "note": 55, "velocity": 103, "channel": 0}, {"type": "note_off", "time": 86, "note": 55, "velocity": 103, "channel": 0}, {"type": "note_on", "time": 17, "note": 57, "velocity": 110, "channel": 0}, {"type": "note_off", "time": 79, "note": 57, "velocity": 110, "channel": 0}, {"type": "note_on", "time": 19, "note": 58, "velocity": 111, "channel": 0}, {"type": "note_off", "time": 83, "note": 58, "velocity": 111, "channel": 0}, {"type": "note_on", "time": 12, "note": 60, "velocity": 116, "channel": 0}, {"type": "note_off", "time": 98, "note": 60, "velocity": 116, "channel": 0}, {"type": "note_on", "time": 20, "note": 61, "velocity": 118, "channel": 0}, {"type": "note_off", "time": 71, "note": 61, "velocity": 118, "channel": 0}, {"type": "note_on", "time": 36, "note": 63, "velocity": 118, "channel": 0}, {"type": "note_off", "time": 79, "note": 63, "velocity": 118, "channel": 0}, {"type": "note_on", "time": 12, "note": 64, "velocity": 117, "channel": 0}, {"type": "note_off", "time": 88, "note": 64, "velocity": 117, "channel": 0}, {"type": "note_on", "time": 10, "note": 66, "velocity": 112, "channel": 0}, {"type": "note_off", "time": 73, "note": 66, "velocity": 112, "channel": 0}, {"type": "note_on", "time": 12, "note": 68, "velocity": 113, "channel": 0}, {"type": "note_off", "time": 66, "note": 68, "velocity": 113, "channel": 0}, {"type": "note_on", "time": 26, "note": 67, "velocity": 105, "channel": 0}, {"type": "note_off", "time": 24, "note": 67, "velocity": 105, "channel": 0}, {"type": "note_on", "time": 10, "note": 70, "velocity": 113, "channel": 0}, {"type": "note_off", "time": 57, "note": 70, "velocity": 113, "channel": 0}, {"type": "note_on", "time": 12, "note": 72, "velocity": 113, "channel": 0}, {"type": "note_off", "time": 68, "note": 72, "velocity": 113, "channel": 0}, {"type": "note_on", "time": 12, "note": 73, "velocity": 113, "channel": 0}, {"type": "note_off", "time": 66, "note": 73, "velocity": 113, "channel": 0}, {"type": "note_on", "time": 11, "note": 75, "velocity": 108, "channel": 0}, {"type": "note_off", "time": 109, "note": 75, "velocity": 108, "channel": 0}, {"type": "note_on", "time": 47, "note": 72, "velocity": 101, "channel": 0}, {"type": "note_off", "time": 46, "note": 72, "velocity": 101, "channel": 0}, {"type": "note_on", "time": 16, "note": 73, "velocity": 113, "channel": 0}, {"type": "note_off", "time": 73, "note": 73, "velocity": 113, "channel": 0}, {"type": "note_on", "time": 19, "note": 72, "velocity": 112, "channel": 0}, {"type": "note_off", "time": 73, "note": 72, "velocity": 112, "channel": 0}, {"type": "note_on", "time": 17, "note": 70, "velocity": 115, "channel": 0}, {"type": "note_off", "time": 96, "note": 70, "velocity": 115, "channel": 0}, {"type": "note_on", "time": 13, "note": 68, "velocity": 97, "channel": 0}, {"type": "note_off", "time": 36, "note": 68, "velocity": 97, "channel": 0}, {"type": "note_on", "time": 4, "note": 69, "velocity": 110, "channel": 0}, {"type": "note_off", "time": 116, "note": 69, "velocity": 110, "channel": 0}, {"type": "note_on", "time": 41, "note": 67, "velocity": 111, "channel": 0}, {"type": "note_off", "time": 60, "note": 67, "velocity": 111, "channel": 0}, {"type": "note_on", "time": 26, "note": 65, "velocity": 110, "channel": 0}, {"type": "note_off", "time": 62, "note": 65, "velocity": 110, "channel": 0}, {"type": "note_on", "time": 50, "note": 63, "velocity": 118, "channel": 0}, {"type": "note_off", "time": 64, "note": 63, "velocity": 118, "channel": 0}, {"type": "note_on", "time": 14, "note": 64, "velocity": 116, "channel": 0}, {"type": "note_off", "time": 81, "note": 64, "velocity": 116, "channel": 0}, {"type": "note_on", "time": 34, "note": 62, "velocity": 109, "channel": 0}, {"type": "note_off", "time": 88, "note": 62, "velocity": 109, "channel": 0}, {"type": "note_on", "time": 10, "note": 61, "velocity": 108, "channel": 0}, {"type": "note_off", "time": 71, "note": 61, "velocity": 108, "channel": 0}, {"type": "note_on", "time": 35, "note": 64, "velocity": 106, "channel": 0}, {"type": "note_off", "time": 59, "note": 64, "velocity": 106, "channel": 0}, {"type": "note_on", "time": 21, "note": 67, "velocity": 102, "channel": 0}, {"type": "note_off", "time": 75, "note": 67, "velocity": 102, "channel": 0}, {"type": "note_on", "time": 12, "note": 70, "velocity": 115, "channel": 0}, {"type": "note_off", "time": 75, "note": 70, "velocity": 115, "channel": 0}, {"type": "note_on", "time": 12, "note": 69, "velocity": 113, "channel": 0}, {"type": "note_off", "time": 91, "note": 69, "velocity": 113, "channel": 0}, {"type": "note_on", "time": 20, "note": 67, "velocity": 109, "channel": 0}, {"type": "note_off", "time": 86, "note": 67, "velocity": 109, "channel": 0}, {"type": "note_on", "time": 24, "note": 65, "velocity": 107, "channel": 0}, {"type": "note_off", "time": 138, "note": 65, "velocity": 107, "channel": 0}, {"type": "note_on", "time": 51, "note": 62, "velocity": 98, "channel": 0}, {"type": "note_off", "time": 220, "note": 62, "velocity": 98, "channel": 0}, {"type": "note_on", "time": 440, "note": 73, "velocity": 114, "channel": 0}, {"type": "note_off", "time": 51, "note": 73, "velocity": 114, "channel": 0}, {"type": "note_on", "time": 15, "note": 72, "velocity": 118, "channel": 0}, {"type": "note_off", "time": 45, "note": 72, "velocity": 118, "channel": 0}, {"type": "note_on", "time": 15, "note": 71, "velocity": 118, "channel": 0}, {"type": "note_off", "time": 59, "note": 71, "velocity": 118, "channel": 0}, {"type": "note_on", "time": 16, "note": 69, "velocity": 113, "channel": 0}, {"type": "note_off", "time": 90, "note": 69, "velocity": 113, "channel": 0}, {"type": "note_on", "time": 11, "note": 68, "velocity": 114, "channel": 0}, {"type": "note_off", "time": 79, "note": 68, "velocity": 114, "channel": 0}, {"type": "note_on", "time": 19, "note": 67, "velocity": 112, "channel": 0}, {"type": "note_off", "time": 86, "note": 67, "velocity": 112, "channel": 0}, {"type": "note_on", "time": 15, "note": 66, "velocity": 113, "channel": 0}, {"type": "note_off", "time": 92, "note": 66, "velocity": 113, "channel": 0}, {"type": "note_on", "time": 9, "note": 64, "velocity": 98, "channel": 0}, {"type": "note_off", "time": 59, "note": 64, "velocity": 98, "channel": 0}, {"type": "note_on", "time": 17, "note": 65, "velocity": 111, "channel": 0}, {"type": "note_off", "time": 79, "note": 65, "velocity": 111, "channel": 0}, {"type": "note_on", "time": 15, "note": 53, "velocity": 101, "channel": 0}, {"type": "note_off", "time": 69, "note": 53, "velocity": 101, "channel": 0}, {"type": "note_on", "time": 17, "note": 58, "velocity": 103, "channel": 0}, {"type": "note_off", "time": 53, "note": 58, "velocity": 103, "channel": 0}, {"type": "note_on", "time": 10, "note": 62, "velocity": 92, "channel": 0}, {"type": "note_off", "time": 34, "note": 62, "velocity": 92, "channel": 0}, {"type": "note_on", "time": 15, "note": 63, "velocity": 118, "channel": 0}, {"type": "note_off", "time": 70, "note": 63, "velocity": 118, "channel": 0}, {"type": "note_on", "time": 13, "note": 62, "velocity": 113, "channel": 0}, {"type": "note_off", "time": 92, "note": 62, "velocity": 113, "channel": 0}, {"type": "note_on", "time": 11, "note": 60, "velocity": 109, "channel": 0}, {"type": "note_off", "time": 80, "note": 60, "velocity": 109, "channel": 0}, {"type": "note_on", "time": 10, "note": 58, "velocity": 103, "channel": 0}, {"type": "note_off", "time": 87, "note": 58, "velocity": 103, "channel": 0}, {"type": "note_on", "time": 23, "note": 57, "velocity": 104, "channel": 0}, {"type": "note_off", "time": 87, "note": 57, "velocity": 104, "channel": 0}, {"type": "note_on", "time": 13, "note": 55, "velocity": 101, "channel": 0}, {"type": "note_off", "time": 77, "note": 55, "velocity": 101, "channel": 0}, {"type": "note_on", "time": 10, "note": 53, "velocity": 104, "channel": 0}, {"type": "note_off", "time": 83, "note": 53, "velocity": 104, "channel": 0}, {"type": "note_on", "time": 19, "note": 54, "velocity": 105, "channel": 0}, {"type": "note_off", "time": 80, "note": 54, "velocity": 105, "channel": 0}, {"type": "note_on", "time": 12, "note": 57, "velocity": 112, "channel": 0}, {"type": "note_off", "time": 79, "note": 57, "velocity": 112, "channel": 0}, {"type": "note_on", "time": 11, "note": 60, "velocity": 111, "channel": 0}, {"type": "note_off", "time": 67, "note": 60, "velocity": 111, "channel": 0}, {"type": "note_on", "time": 9, "note": 63, "velocity": 118, "channel": 0}, {"type": "note_off", "time": 63, "note": 63, "velocity": 118, "channel": 0}, {"type": "note_on", "time": 10, "note": 62, "velocity": 110, "channel": 0}, {"type": "note_off", "time": 27, "note": 62, "velocity": 110, "channel": 0}, {"type": "note_on", "time": 13, "note": 63, "velocity": 109, "channel": 0}, {"type": "note_off", "time": 41, "note": 63, "velocity": 109, "channel": 0}, {"type": "note_on", "time": 8, "note": 62, "velocity": 107, "channel": 0}, {"type": "note_off", "time": 39, "note": 62, "velocity": 107, "channel": 0}, {"type": "note_on", "time": 20, "note": 60, "velocity": 109, "channel": 0}, {"type": "note_off", "time": 50, "note": 60, "velocity": 109, "channel": 0}, {"type": "note_on", "time": 11, "note": 58, "velocity": 107, "channel": 0}, {"type": "note_off", "time": 92, "note": 58, "velocity": 107, "channel": 0}, {"type": "note_on", "time": 32, "note": 60, "velocity": 109, "channel": 0}, {"type": "note_off", "time": 95, "note": 60, "velocity": 109, "channel": 0}, {"type": "note_on", "time": 17, "note": 62, "velocity": 98, "channel": 0}, {"type": "note_off", "time": 66, "note": 62, "velocity": 98, "channel": 0}, {"type": "note_on", "time": 25, "note": 65, "velocity": 90, "channel": 0}, {"type": "note_off", "time": 53, "note": 65, "velocity": 90, "channel": 0}, {"type": "note_on", "time": 9, "note": 69, "velocity": 115, "channel": 0}, {"type": "note_off", "time": 50, "note": 69, "velocity": 115, "channel": 0}, {"type": "note_on", "time": 92, "note": 60, "velocity": 107, "channel": 0}, {"type": "note_off", "time": 63, "note": 60, "velocity": 107, "channel": 0}, {"type": "note_on", "time": 12, "note": 62, "velocity": 103, "channel": 0}, {"type": "note_off", "time": 76, "note": 62, "velocity": 103, "channel": 0}, {"type": "note_on", "time": 11, "note": 65, "velocity": 94, "channel": 0}, {"type": "note_off", "time": 323, "note": 65, "velocity": 94, "channel": 0}, {"type": "note_on", "time": 239, "note": 61, "velocity": 115, "channel": 0}, {"type": "note_off", "time": 78, "note": 61, "velocity": 115, "channel": 0}, {"type": "note_on", "time": 6, "note": 62, "velocity": 116, "channel": 0}, {"type": "note_off", "time": 88, "note": 62, "velocity": 116, "channel": 0}, {"type": "note_on", "time": 18, "note": 65, "velocity": 112, "channel": 0}, {"type": "note_off", "time": 94, "note": 65, "velocity": 112, "channel": 0}, {"type": "note_on", "time": 14, "note": 62, "velocity": 115, "channel": 0}, {"type": "note_off", "time": 74, "note": 62, "velocity": 115, "channel": 0}, {"type": "note_on", "time": 7, "note": 63, "velocity": 109, "channel": 0}, {"type": "note_off", "time": 78, "note": 63, "velocity": 109, "channel": 0}, {"type": "note_on", "time": 18, "note": 67, "velocity": 111, "channel": 0}, {"type": "note_off", "time": 90, "note": 67, "velocity": 111, "channel": 0}, {"type": "note_on", "time": 19, "note": 70, "velocity": 115, "channel": 0}, {"type": "note_off", "time": 70, "note": 70, "velocity": 115, "channel": 0}, {"type": "note_on", "time": 39, "note": 73, "velocity": 116, "channel": 0}, {"type": "note_off", "time": 83, "note": 73, "velocity": 116, "channel": 0}, {"type": "note_on", "time": 27, "note": 74, "velocity": 112, "channel": 0}, {"type": "note_off", "time": 77, "note": 74, "velocity": 112, "channel": 0}, {"type": "note_on", "time": 10, "note": 76, "velocity": 113, "channel": 0}, {"type": "note_off", "time": 69, "note": 76, "velocity": 113, "channel": 0}, {"type": "note_on", "time": 32, "note": 76, "velocity": 120, "channel": 0}, {"type": "note_off", "time": 68, "note": 76, "velocity": 120, "channel": 0}, {"type": "note_on", "time": 6, "note": 75, "velocity": 50, "channel": 0}, {"type": "note_off", "time": 79, "note": 75, "velocity": 50, "channel": 0}, {"type": "note_on", "time": 17, "note": 74, "velocity": 102, "channel": 0}, {"type": "note_off", "time": 79, "note": 74, "velocity": 102, "channel": 0}, {"type": "note_on", "time": 30, "note": 73, "velocity": 107, "channel": 0}, {"type": "note_off", "time": 81, "note": 73, "velocity": 107, "channel": 0}, {"type": "note_on", "time": 25, "note": 69, "velocity": 104, "channel": 0}, {"type": "note_off", "time": 74, "note": 69, "velocity": 104, "channel": 0}, {"type": "note_on", "time": 12, "note": 68, "velocity": 105, "channel": 0}, {"type": "note_off", "time": 91, "note": 68, "velocity": 105, "channel": 0}, {"type": "note_on", "time": 19, "note": 67, "velocity": 101, "channel": 0}, {"type": "note_off", "time": 61, "note": 67, "velocity": 101, "channel": 0}, {"type": "note_on", "time": 19, "note": 66, "velocity": 101, "channel": 0}, {"type": "note_off", "time": 103, "note": 66, "velocity": 101, "channel": 0}, {"type": "note_on", "time": 10, "note": 64, "velocity": 87, "channel": 0}, {"type": "note_off", "time": 49, "note": 64, "velocity": 87, "channel": 0}, {"type": "note_on", "time": 15, "note": 65, "velocity": 104, "channel": 0}, {"type": "note_off", "time": 99, "note": 65, "velocity": 104, "channel": 0}, {"type": "note_on", "time": 10, "note": 67, "velocity": 104, "channel": 0}, {"type": "note_off", "time": 79, "note": 67, "velocity": 104, "channel": 0}, {"type": "note_on", "time": 12, "note": 69, "velocity": 106, "channel": 0}, {"type": "note_off", "time": 84, "note": 69, "velocity": 106, "channel": 0}, {"type": "note_on", "time": 15, "note": 70, "velocity": 107, "channel": 0}, {"type": "note_off", "time": 91, "note": 70, "velocity": 107, "channel": 0}, {"type": "note_on", "time": 8, "note": 71, "velocity": 106, "channel": 0}, {"type": "note_off", "time": 92, "note": 71, "velocity": 106, "channel": 0}, {"type": "note_on", "time": 9, "note": 72, "velocity": 98, "channel": 0}, {"type": "note_off", "time": 73, "note": 72, "velocity": 98, "channel": 0}, {"type": "note_on", "time": 36, "note": 69, "velocity": 104, "channel": 0}, {"type": "note_off", "time": 77, "note": 69, "velocity": 104, "channel": 0}, {"type": "note_on", "time": 11, "note": 65, "velocity": 92, "channel": 0}, {"type": "note_off", "time": 78, "note": 65, "velocity": 92, "channel": 0}, {"type": "note_on", "time": 15, "note": 69, "velocity": 108, "channel": 0}, {"type": "note_off", "time": 86, "note": 69, "velocity": 108, "channel": 0}, {"type": "note_on", "time": 29, "note": 70, "velocity": 107, "channel": 0}, {"type": "note_off", "time": 60, "note": 70, "velocity": 107, "channel": 0}, {"type": "note_on", "time": 17, "note": 67, "velocity": 101, "channel": 0}, {"type": "note_off", "time": 90, "note": 67, "velocity": 101, "channel": 0}, {"type": "note_on", "time": 32, "note": 65, "velocity": 101, "channel": 0}, {"type": "note_off", "time": 78, "note": 65, "velocity": 101, "channel": 0}, {"type": "note_on", "time": 8, "note": 64, "velocity": 107, "channel": 0}, {"type": "note_off", "time": 83, "note": 64, "velocity": 107, "channel": 0}, {"type": "note_on", "time": 50, "note": 62, "velocity": 95, "channel": 0}, {"type": "note_off", "time": 45, "note": 62, "velocity": 95, "channel": 0}, {"type": "note_on", "time": 12, "note": 63, "velocity": 108, "channel": 0}, {"type": "note_off", "time": 77, "note": 63, "velocity": 108, "channel": 0}, {"type": "note_on", "time": 18, "note": 65, "velocity": 104, "channel": 0}, {"type": "note_off", "time": 90, "note": 65, "velocity": 104, "channel": 0}, {"type": "note_on", "time": 17, "note": 66, "velocity": 105, "channel": 0}, {"type": "note_off", "time": 83, "note": 66, "velocity": 105, "channel": 0}, {"type": "note_on", "time": 10, "note": 68, "velocity": 104, "channel": 0}, {"type": "note_off", "time": 79, "note": 68, "velocity": 104, "channel": 0}, {"type": "note_on", "time": 0, "note": 70, "velocity": 106, "channel": 0}, {"type": "note_off", "time": 83, "note": 70, "velocity": 106, "channel": 0}, {"type": "note_on", "time": 18, "note": 73, "velocity": 102, "channel": 0}, {"type": "note_off", "time": 75, "note": 73, "velocity": 102, "channel": 0}, {"type": "note_on", "time": 29, "note": 80, "velocity": 93, "channel": 0}, {"type": "note_off", "time": 131, "note": 80, "velocity": 93, "channel": 0}, {"type": "note_on", "time": 13, "note": 76, "velocity": 94, "channel": 0}, {"type": "note_off", "time": 36, "note": 76, "velocity": 94, "channel": 0}, {"type": "note_on", "time": 37, "note": 73, "velocity": 104, "channel": 0}, {"type": "note_off", "time": 95, "note": 73, "velocity": 104, "channel": 0}, {"type": "note_on", "time": 12, "note": 71, "velocity": 105, "channel": 0}, {"type": "note_off", "time": 70, "note": 71, "velocity": 105, "channel": 0}, {"type": "note_on", "time": 16, "note": 69, "velocity": 103, "channel": 0}, {"type": "note_off", "time": 92, "note": 69, "velocity": 103, "channel": 0}, {"type": "note_on", "time": 27, "note": 67, "velocity": 98, "channel": 0}, {"type": "note_off", "time": 65, "note": 67, "velocity": 98, "channel": 0}, {"type": "note_on", "time": 12, "note": 69, "velocity": 92, "channel": 0}, {"type": "note_off", "time": 32, "note": 69, "velocity": 92, "channel": 0}, {"type": "note_on", "time": 3, "note": 71, "velocity": 91, "channel": 0}, {"type": "note_off", "time": 65, "note": 71, "velocity": 91, "channel": 0}, {"type": "note_on", "time": 18, "note": 66, "velocity": 101, "channel": 0}, {"type": "note_off", "time": 48, "note": 66, "velocity": 101, "channel": 0}, {"type": "note_on", "time": 11, "note": 65, "velocity": 100, "channel": 0}, {"type": "note_off", "time": 98, "note": 65, "velocity": 100, "channel": 0}, {"type": "note_on", "time": 196, "note": 63, "velocity": 110, "channel": 0}, {"type": "note_off", "time": 97, "note": 63, "velocity": 110, "channel": 0}, {"type": "note_on", "time": 16, "note": 62, "velocity": 105, "channel": 0}, {"type": "note_off", "time": 106, "note": 62, "velocity": 105, "channel": 0}, {"type": "note_on", "time": 14, "note": 65, "velocity": 81, "channel": 0}, {"type": "note_off", "time": 43, "note": 65, "velocity": 81, "channel": 0}, {"type": "note_on", "time": 15, "note": 67, "velocity": 104, "channel": 0}, {"type": "note_off", "time": 80, "note": 67, "velocity": 104, "channel": 0}, {"type": "note_on", "time": 23, "note": 69, "velocity": 107, "channel": 0}, {"type": "note_off", "time": 73, "note": 69, "velocity": 107, "channel": 0}, {"type": "note_on", "time": 20, "note": 72, "velocity": 103, "channel": 0}, {"type": "note_off", "time": 79, "note": 72, "velocity": 103, "channel": 0}, {"type": "note_on", "time": 23, "note": 71, "velocity": 106, "channel": 0}, {"type": "note_off", "time": 65, "note": 71, "velocity": 106, "channel": 0}, {"type": "note_on", "time": 44, "note": 70, "velocity": 103, "channel": 0}, {"type": "note_off", "time": 60, "note": 70, "velocity": 103, "channel": 0}, {"type": "note_on", "time": 20, "note": 69, "velocity": 97, "channel": 0}, {"type": "note_off", "time": 88, "note": 69, "velocity": 97, "channel": 0}, {"type": "note_on", "time": 15, "note": 67, "velocity": 99, "channel": 0}, {"type": "note_off", "time": 81, "note": 67, "velocity": 99, "channel": 0}, {"type": "note_on", "time": 13, "note": 65, "velocity": 98, "channel": 0}, {"type": "note_off", "time": 41, "note": 65, "velocity": 98, "channel": 0}, {"type": "note_on", "time": 24, "note": 66, "velocity": 98, "channel": 0}, {"type": "note_off", "time": 109, "note": 66, "velocity": 98, "channel": 0}, {"type": "note_on", "time": 427, "note": 69, "velocity": 107, "channel": 0}, {"type": "note_off", "time": 72, "note": 69, "velocity": 107, "channel": 0}, {"type": "note_on", "time": 349, "note": 72, "velocity": 108, "channel": 0}, {"type": "note_off", "time": 102, "note": 72, "velocity": 108, "channel": 0}, {"type": "note_on", "time": 267, "note": 64, "velocity": 107, "channel": 0}, {"type": "note_off", "time": 106, "note": 64, "velocity": 107, "channel": 0}, {"type": "note_on", "time": 283, "note": 57, "velocity": 105, "channel": 0}, {"type": "note_off", "time": 87, "note": 57, "velocity": 105, "channel": 0}, {"type": "note_on", "time": 12, "note": 61, "velocity": 111, "channel": 0}, {"type": "note_off", "time": 78, "note": 61, "velocity": 111, "channel": 0}, {"type": "note_on", "time": 30, "note": 62, "velocity": 111, "channel": 0}, {"type": "note_off", "time": 61, "note": 62, "velocity": 111, "channel": 0}, {"type": "note_on", "time": 17, "note": 64, "velocity": 110, "channel": 0}, {"type": "note_off", "time": 88, "note": 64, "velocity": 110, "channel": 0}, {"type": "note_on", "time": 38, "note": 65, "velocity": 107, "channel": 0}, {"type": "note_off", "time": 74, "note": 65, "velocity": 107, "channel": 0}, {"type": "note_on", "time": 20, "note": 62, "velocity": 107, "channel": 0}, {"type": "note_off", "time": 79, "note": 62, "velocity": 107, "channel": 0}, {"type": "note_on", "time": 496, "note": 55, "velocity": 102, "channel": 0}, {"type": "note_off", "time": 47, "note": 55, "velocity": 102, "channel": 0}, {"type": "note_on", "time": 11, "note": 58, "velocity": 103, "channel": 0}, {"type": "note_off", "time": 43, "note": 58, "velocity": 103, "channel": 0}, {"type": "note_on", "time": 13, "note": 55, "velocity": 98, "channel": 0}, {"type": "note_off", "time": 31, "note": 55, "velocity": 98, "channel": 0}, {"type": "note_on", "time": 4, "note": 57, "velocity": 102, "channel": 0}, {"type": "note_off", "time": 44, "note": 57, "velocity": 102, "channel": 0}, {"type": "note_on", "time": 5, "note": 60, "velocity": 100, "channel": 0}, {"type": "note_off", "time": 46, "note": 60, "velocity": 100, "channel": 0}, {"type": "note_on", "time": 8, "note": 63, "velocity": 109, "channel": 0}, {"type": "note_off", "time": 44, "note": 63, "velocity": 109, "channel": 0}, {"type": "note_on", "time": 9, "note": 67, "velocity": 99, "channel": 0}, {"type": "note_off", "time": 42, "note": 67, "velocity": 99, "channel": 0}, {"type": "note_on", "time": 17, "note": 60, "velocity": 102, "channel": 0}, {"type": "note_off", "time": 33, "note": 60, "velocity": 102, "channel": 0}, {"type": "note_on", "time": 9, "note": 62, "velocity": 97, "channel": 0}, {"type": "note_off", "time": 37, "note": 62, "velocity": 97, "channel": 0}, {"type": "note_on", "time": 8, "note": 65, "velocity": 104, "channel": 0}, {"type": "note_off", "time": 45, "note": 65, "velocity": 104, "channel": 0}, {"type": "note_on", "time": 16, "note": 62, "velocity": 104, "channel": 0}, {"type": "note_off", "time": 25, "note": 62, "velocity": 104, "channel": 0}, {"type": "note_on", "time": 6, "note": 63, "velocity": 108, "channel": 0}, {"type": "note_off", "time": 40, "note": 63, "velocity": 108, "channel": 0}, {"type": "note_on", "time": 8, "note": 62, "velocity": 106, "channel": 0}, {"type": "note_off", "time": 45, "note": 62, "velocity": 106, "channel": 0}, {"type": "note_on", "time": 8, "note": 61, "velocity": 102, "channel": 0}, {"type": "note_off", "time": 34, "note": 61, "velocity": 102, "channel": 0}, {"type": "note_on", "time": 8, "note": 57, "velocity": 99, "channel": 0}, {"type": "note_off", "time": 30, "note": 57, "velocity": 99, "channel": 0}, {"type": "note_on", "time": 7, "note": 54, "velocity": 99, "channel": 0}, {"type": "note_off", "time": 46, "note": 54, "velocity": 99, "channel": 0}, {"type": "note_on", "time": 13, "note": 52, "velocity": 95, "channel": 0}, {"type": "note_off", "time": 60, "note": 52, "velocity": 95, "channel": 0}, {"type": "note_on", "time": 7, "note": 51, "velocity": 96, "channel": 0}, {"type": "note_off", "time": 39, "note": 51, "velocity": 96, "channel": 0}, {"type": "note_on", "time": 9, "note": 50, "velocity": 94, "channel": 0}, {"type": "note_off", "time": 36, "note": 50, "velocity": 94, "channel": 0}, {"type": "note_on", "time": 7, "note": 53, "velocity": 96, "channel": 0}, {"type": "note_off", "time": 28, "note": 53, "velocity": 96, "channel": 0}, {"type": "note_on", "time": 8, "note": 57, "velocity": 99, "channel": 0}, {"type": "note_off", "time": 32, "note": 57, "velocity": 99, "channel": 0}, {"type": "note_on", "time": 7, "note": 60, "velocity": 104, "channel": 0}, {"type": "note_off", "time": 57, "note": 60, "velocity": 104, "channel": 0}, {"type": "note_on", "time": 3, "note": 58, "velocity": 102, "channel": 0}, {"type": "note_off", "time": 54, "note": 58, "velocity": 102, "channel": 0}, {"type": "note_on", "time": 1, "note": 60, "velocity": 103, "channel": 0}, {"type": "note_off", "time": 20, "note": 60, "velocity": 103, "channel": 0}, {"type": "note_on", "time": 7, "note": 62, "velocity": 104, "channel": 0}, {"type": "note_off", "time": 49, "note": 62, "velocity": 104, "channel": 0}, {"type": "note_on", "time": 2, "note": 65, "velocity": 99, "channel": 0}, {"type": "note_off", "time": 49, "note": 65, "velocity": 99, "channel": 0}, {"type": "note_on", "time": 7, "note": 70, "velocity": 108, "channel": 0}, {"type": "note_off", "time": 79, "note": 70, "velocity": 108, "channel": 0}, {"type": "note_on", "time": 235, "note": 72, "velocity": 101, "channel": 0}, {"type": "note_off", "time": 150, "note": 72, "velocity": 101, "channel": 0}, {"type": "note_on", "time": 32, "note": 72, "velocity": 86, "channel": 0}, {"type": "note_off", "time": 77, "note": 72, "velocity": 86, "channel": 0}, {"type": "note_on", "time": 58, "note": 69, "velocity": 108, "channel": 0}, {"type": "note_off", "time": 71, "note": 69, "velocity": 108, "channel": 0}, {"type": "note_on", "time": 19, "note": 67, "velocity": 106, "channel": 0}, {"type": "note_off", "time": 66, "note": 67, "velocity": 106, "channel": 0}, {"type": "note_on", "time": 45, "note": 66, "velocity": 107, "channel": 0}, {"type": "note_off", "time": 75, "note": 66, "velocity": 107, "channel": 0}, {"type": "note_on", "time": 35, "note": 63, "velocity": 111, "channel": 0}, {"type": "note_off", "time": 56, "note": 63, "velocity": 111, "channel": 0}, {"type": "note_on", "time": 17, "note": 62, "velocity": 106, "channel": 0}, {"type": "note_off", "time": 87, "note": 62, "velocity": 106, "channel": 0}, {"type": "note_on", "time": 32, "note": 60, "velocity": 104, "channel": 0}, {"type": "note_off", "time": 63, "note": 60, "velocity": 104, "channel": 0}, {"type": "note_on", "time": 12, "note": 58, "velocity": 101, "channel": 0}, {"type": "note_off", "time": 82, "note": 58, "velocity": 101, "channel": 0}, {"type": "note_on", "time": 84, "note": 62, "velocity": 106, "channel": 0}, {"type": "note_off", "time": 101, "note": 62, "velocity": 106, "channel": 0}, {"type": "note_on", "time": 49, "note": 65, "velocity": 104, "channel": 0}, {"type": "note_off", "time": 61, "note": 65, "velocity": 104, "channel": 0}, {"type": "note_on", "time": 11, "note": 68, "velocity": 107, "channel": 0}, {"type": "note_off", "time": 71, "note": 68, "velocity": 107, "channel": 0}, {"type": "note_on", "time": 17, "note": 69, "velocity": 101, "channel": 0}, {"type": "note_off", "time": 80, "note": 69, "velocity": 101, "channel": 0}, {"type": "note_on", "time": 24, "note": 65, "velocity": 101, "channel": 0}, {"type": "note_off", "time": 66, "note": 65, "velocity": 101, "channel": 0}, {"type": "note_on", "time": 33, "note": 60, "velocity": 89, "channel": 0}, {"type": "note_off", "time": 48, "note": 60, "velocity": 89, "channel": 0}, {"type": "note_on", "time": 38, "note": 64, "velocity": 107, "channel": 0}, {"type": "note_off", "time": 70, "note": 64, "velocity": 107, "channel": 0}, {"type": "note_on", "time": 35, "note": 65, "velocity": 102, "channel": 0}, {"type": "note_off", "time": 35, "note": 65, "velocity": 102, "channel": 0}, {"type": "note_on", "time": 9, "note": 66, "velocity": 104, "channel": 0}, {"type": "note_off", "time": 37, "note": 66, "velocity": 104, "channel": 0}, {"type": "note_on", "time": 18, "note": 67, "velocity": 105, "channel": 0}, {"type": "note_off", "time": 59, "note": 67, "velocity": 105, "channel": 0}, {"type": "note_on", "time": 47, "note": 66, "velocity": 102, "channel": 0}, {"type": "note_off", "time": 60, "note": 66, "velocity": 102, "channel": 0}, {"type": "note_on", "time": 17, "note": 65, "velocity": 103, "channel": 0}, {"type": "note_off", "time": 68, "note": 65, "velocity": 103, "channel": 0}, {"type": "note_on", "time": 37, "note": 64, "velocity": 107, "channel": 0}, {"type": "note_off", "time": 71, "note": 64, "velocity": 107, "channel": 0}, {"type": "note_on", "time": 10, "note": 62, "velocity": 105, "channel": 0}, {"type": "note_off", "time": 80, "note": 62, "velocity": 105, "channel": 0}, {"type": "note_on", "time": 33, "note": 61, "velocity": 106, "channel": 0}, {"type": "note_off", "time": 66, "note": 61, "velocity": 106, "channel": 0}, {"type": "note_on", "time": 20, "note": 60, "velocity": 100, "channel": 0}, {"type": "note_off", "time": 61, "note": 60, "velocity": 100, "channel": 0}, {"type": "note_on", "time": 21, "note": 57, "velocity": 100, "channel": 0}, {"type": "note_off", "time": 79, "note": 57, "velocity": 100, "channel": 0}, {"type": "note_on", "time": 18, "note": 53, "velocity": 95, "channel": 0}, {"type": "note_off", "time": 85, "note": 53, "velocity": 95, "channel": 0}, {"type": "note_on", "time": 671, "note": 49, "velocity": 106, "channel": 0}, {"type": "note_off", "time": 31, "note": 49, "velocity": 106, "channel": 0}, {"type": "note_on", "time": 2, "note": 51, "velocity": 104, "channel": 0}, {"type": "note_off", "time": 32, "note": 51, "velocity": 104, "channel": 0}, {"type": "note_on", "time": 3, "note": 54, "velocity": 101, "channel": 0}, {"type": "note_off", "time": 26, "note": 54, "velocity": 101, "channel": 0}, {"type": "note_on", "time": 6, "note": 58, "velocity": 105, "channel": 0}, {"type": "note_off", "time": 38, "note": 58, "velocity": 105, "channel": 0}, {"type": "note_on", "time": 10, "note": 61, "velocity": 111, "channel": 0}, {"type": "note_off", "time": 41, "note": 61, "velocity": 111, "channel": 0}, {"type": "note_on", "time": 10, "note": 64, "velocity": 111, "channel": 0}, {"type": "note_off", "time": 56, "note": 64, "velocity": 111, "channel": 0}, {"type": "note_on", "time": 10, "note": 67, "velocity": 105, "channel": 0}, {"type": "note_off", "time": 30, "note": 67, "velocity": 105, "channel": 0}, {"type": "note_on", "time": 7, "note": 70, "velocity": 113, "channel": 0}, {"type": "note_off", "time": 41, "note": 70, "velocity": 113, "channel": 0}, {"type": "note_on", "time": 10, "note": 72, "velocity": 112, "channel": 0}, {"type": "note_off", "time": 67, "note": 72, "velocity": 112, "channel": 0}, {"type": "note_on", "time": 10, "note": 70, "velocity": 111, "channel": 0}, {"type": "note_off", "time": 47, "note": 70, "velocity": 111, "channel": 0}, {"type": "note_on", "time": 20, "note": 69, "velocity": 104, "channel": 0}, {"type": "note_off", "time": 337, "note": 69, "velocity": 104, "channel": 0}, {"type": "note_on", "time": 32, "note": 67, "velocity": 108, "channel": 0}, {"type": "note_off", "time": 85, "note": 67, "velocity": 108, "channel": 0}, {"type": "note_on", "time": 9, "note": 65, "velocity": 109, "channel": 0}, {"type": "note_off", "time": 99, "note": 65, "velocity": 109, "channel": 0}, {"type": "note_on", "time": 22, "note": 64, "velocity": 110, "channel": 0}, {"type": "note_off", "time": 157, "note": 64, "velocity": 110, "channel": 0}, {"type": "note_on", "time": 22, "note": 62, "velocity": 97, "channel": 0}, {"type": "note_off", "time": 45, "note": 62, "velocity": 97, "channel": 0}, {"type": "note_on", "time": 38, "note": 63, "velocity": 117, "channel": 0}, {"type": "note_off", "time": 86, "note": 63, "velocity": 117, "channel": 0}, {"type": "note_on", "time": 21, "note": 65, "velocity": 111, "channel": 0}, {"type": "note_off", "time": 74, "note": 65, "velocity": 111, "channel": 0}, {"type": "note_on", "time": 19, "note": 67, "velocity": 110, "channel": 0}, {"type": "note_off", "time": 70, "note": 67, "velocity": 110, "channel": 0}, {"type": "note_on", "time": 37, "note": 70, "velocity": 114, "channel": 0}, {"type": "note_off", "time": 56, "note": 70, "velocity": 114, "channel": 0}, {"type": "note_on", "time": 14, "note": 72, "velocity": 112, "channel": 0}, {"type": "note_off", "time": 88, "note": 72, "velocity": 112, "channel": 0}, {"type": "note_on", "time": 36, "note": 72, "velocity": 112, "channel": 0}, {"type": "note_off", "time": 58, "note": 72, "velocity": 112, "channel": 0}, {"type": "note_on", "time": 34, "note": 69, "velocity": 111, "channel": 0}, {"type": "note_off", "time": 86, "note": 69, "velocity": 111, "channel": 0}, {"type": "note_on", "time": 15, "note": 65, "velocity": 94, "channel": 0}, {"type": "note_off", "time": 100, "note": 65, "velocity": 94, "channel": 0}, {"type": "note_on", "time": 6, "note": 72, "velocity": 109, "channel": 0}, {"type": "note_off", "time": 171, "note": 72, "velocity": 109, "channel": 0}, {"type": "note_on", "time": 16, "note": 69, "velocity": 113, "channel": 0}, {"type": "note_off", "time": 78, "note": 69, "velocity": 113, "channel": 0}, {"type": "note_on", "time": 12, "note": 67, "velocity": 107, "channel": 0}, {"type": "note_off", "time": 93, "note": 67, "velocity": 107, "channel": 0}, {"type": "note_on", "time": 15, "note": 65, "velocity": 109, "channel": 0}, {"type": "note_off", "time": 86, "note": 65, "velocity": 109, "channel": 0}, {"type": "note_on", "time": 15, "note": 64, "velocity": 112, "channel": 0}, {"type": "note_off", "time": 81, "note": 64, "velocity": 112, "channel": 0}, {"type": "note_on", "time": 16, "note": 62, "velocity": 109, "channel": 0}, {"type": "note_off", "time": 94, "note": 62, "velocity": 109, "channel": 0}, {"type": "note_on", "time": 426, "note": 55, "velocity": 107, "channel": 0}, {"type": "note_off", "time": 70, "note": 55, "velocity": 107, "channel": 0}, {"type": "note_on", "time": 17, "note": 54, "velocity": 108, "channel": 0}, {"type": "note_off", "time": 76, "note": 54, "velocity": 108, "channel": 0}, {"type": "note_on", "time": 27, "note": 63, "velocity": 118, "channel": 0}, {"type": "note_off", "time": 82, "note": 63, "velocity": 118, "channel": 0}, {"type": "note_on", "time": 11, "note": 62, "velocity": 114, "channel": 0}, {"type": "note_off", "time": 82, "note": 62, "velocity": 114, "channel": 0}, {"type": "note_on", "time": 22, "note": 60, "velocity": 111, "channel": 0}, {"type": "note_off", "time": 72, "note": 60, "velocity": 111, "channel": 0}, {"type": "note_on", "time": 18, "note": 59, "velocity": 105, "channel": 0}, {"type": "note_off", "time": 99, "note": 59, "velocity": 105, "channel": 0}, {"type": "note_on", "time": 182, "note": 69, "velocity": 111, "channel": 0}, {"type": "note_off", "time": 109, "note": 69, "velocity": 111, "channel": 0}, {"type": "note_on", "time": 170, "note": 58, "velocity": 112, "channel": 0}, {"type": "note_off", "time": 126, "note": 58, "velocity": 112, "channel": 0}, {"type": "note_on", "time": 195, "note": 68, "velocity": 105, "channel": 0}, {"type": "note_off", "time": 238, "note": 68, "velocity": 105, "channel": 0}, {"type": "note_on", "time": 57, "note": 64, "velocity": 111, "channel": 0}, {"type": "note_off", "time": 94, "note": 64, "velocity": 111, "channel": 0}, {"type": "note_on", "time": 9, "note": 62, "velocity": 95, "channel": 0}, {"type": "note_off", "time": 54, "note": 62, "velocity": 95, "channel": 0}, {"type": "note_on", "time": 11, "note": 63, "velocity": 118, "channel": 0}, {"type": "note_off", "time": 77, "note": 63, "velocity": 118, "channel": 0}, {"type": "note_on", "time": 11, "note": 62, "velocity": 112, "channel": 0}, {"type": "note_off", "time": 54, "note": 62, "velocity": 112, "channel": 0}, {"type": "note_on", "time": 5, "note": 61, "velocity": 113, "channel": 0}, {"type": "note_off", "time": 58, "note": 61, "velocity": 113, "channel": 0}, {"type": "note_on", "time": 4, "note": 60, "velocity": 112, "channel": 0}, {"type": "note_off", "time": 111, "note": 60, "velocity": 112, "channel": 0}, {"type": "note_on", "time": 54, "note": 72, "velocity": 108, "channel": 0}, {"type": "note_off", "time": 114, "note": 72, "velocity": 108, "channel": 0}, {"type": "note_on", "time": 177, "note": 60, "velocity": 111, "channel": 0}, {"type": "note_off", "time": 131, "note": 60, "velocity": 111, "channel": 0}, {"type": "note_on", "time": 144, "note": 61, "velocity": 118, "channel": 0}, {"type": "note_off", "time": 120, "note": 61, "velocity": 118, "channel": 0}, {"type": "note_on", "time": 192, "note": 73, "velocity": 111, "channel": 0}, {"type": "note_off", "time": 126, "note": 73, "velocity": 111, "channel": 0}, {"type": "note_on", "time": 151, "note": 62, "velocity": 117, "channel": 0}, {"type": "note_off", "time": 111, "note": 62, "velocity": 117, "channel": 0}, {"type": "note_on", "time": 225, "note": 74, "velocity": 113, "channel": 0}, {"type": "note_off", "time": 225, "note": 74, "velocity": 113, "channel": 0}, {"type": "note_on", "time": 13, "note": 72, "velocity": 111, "channel": 0}, {"type": "note_off", "time": 104, "note": 72, "velocity": 111, "channel": 0}, {"type": "note_on", "time": 10, "note": 70, "velocity": 116, "channel": 0}, {"type": "note_off", "time": 90, "note": 70, "velocity": 116, "channel": 0}, {"type": "note_on", "time": 8, "note": 69, "velocity": 114, "channel": 0}, {"type": "note_off", "time": 76, "note": 69, "velocity": 114, "channel": 0}, {"type": "note_on", "time": 16, "note": 67, "velocity": 111, "channel": 0}, {"type": "note_off", "time": 84, "note": 67, "velocity": 111, "channel": 0}, {"type": "note_on", "time": 12, "note": 65, "velocity": 111, "channel": 0}, {"type": "note_off", "time": 83, "note": 65, "velocity": 111, "channel": 0}, {"type": "note_on", "time": 67, "note": 63, "velocity": 116, "channel": 0}, {"type": "note_off", "time": 114, "note": 63, "velocity": 116, "channel": 0}, {"type": "note_on", "time": 7, "note": 65, "velocity": 110, "channel": 0}, {"type": "note_off", "time": 85, "note": 65, "velocity": 110, "channel": 0}, {"type": "note_on", "time": 33, "note": 66, "velocity": 109, "channel": 0}, {"type": "note_off", "time": 81, "note": 66, "velocity": 109, "channel": 0}, {"type": "note_on", "time": 15, "note": 64, "velocity": 117, "channel": 0}, {"type": "note_off", "time": 79, "note": 64, "velocity": 117, "channel": 0}, {"type": "note_on", "time": 8, "note": 65, "velocity": 108, "channel": 0}, {"type": "note_off", "time": 94, "note": 65, "velocity": 108, "channel": 0}, {"type": "note_on", "time": 15, "note": 63, "velocity": 116, "channel": 0}, {"type": "note_off", "time": 83, "note": 63, "velocity": 116, "channel": 0}, {"type": "note_on", "time": 10, "note": 62, "velocity": 108, "channel": 0}, {"type": "note_off", "time": 84, "note": 62, "velocity": 108, "channel": 0}, {"type": "note_on", "time": 36, "note": 53, "velocity": 101, "channel": 0}, {"type": "note_off", "time": 161, "note": 53, "velocity": 101, "channel": 0}, {"type": "note_on", "time": 25, "note": 58, "velocity": 106, "channel": 0}, {"type": "note_off", "time": 159, "note": 58, "velocity": 106, "channel": 0}, {"type": "note_on", "time": 30, "note": 62, "velocity": 112, "channel": 0}, {"type": "note_off", "time": 162, "note": 62, "velocity": 112, "channel": 0}, {"type": "note_on", "time": 28, "note": 57, "velocity": 102, "channel": 0}, {"type": "note_off", "time": 169, "note": 57, "velocity": 102, "channel": 0}, {"type": "note_on", "time": 30, "note": 55, "velocity": 102, "channel": 0}, {"type": "note_off", "time": 159, "note": 55, "velocity": 102, "channel": 0}, {"type": "note_on", "time": 27, "note": 54, "velocity": 106, "channel": 0}, {"type": "note_off", "time": 66, "note": 54, "velocity": 106, "channel": 0}, {"type": "note_on", "time": 19, "note": 63, "velocity": 116, "channel": 0}, {"type": "note_off", "time": 104, "note": 63, "velocity": 116, "channel": 0}, {"type": "note_on", "time": 18, "note": 62, "velocity": 112, "channel": 0}, {"type": "note_off", "time": 80, "note": 62, "velocity": 112, "channel": 0}, {"type": "note_on", "time": 13, "note": 60, "velocity": 108, "channel": 0}, {"type": "note_off", "time": 64, "note": 60, "velocity": 108, "channel": 0}, {"type": "note_on", "time": 36, "note": 59, "velocity": 103, "channel": 0}, {"type": "note_off", "time": 69, "note": 59, "velocity": 103, "channel": 0}, {"type": "note_on", "time": 17, "note": 58, "velocity": 106, "channel": 0}, {"type": "note_off", "time": 85, "note": 58, "velocity": 106, "channel": 0}, {"type": "note_on", "time": 46, "note": 60, "velocity": 96, "channel": 0}, {"type": "note_off", "time": 51, "note": 60, "velocity": 96, "channel": 0}, {"type": "note_on", "time": 7, "note": 62, "velocity": 113, "channel": 0}, {"type": "note_off", "time": 81, "note": 62, "velocity": 113, "channel": 0}, {"type": "note_on", "time": 44, "note": 65, "velocity": 95, "channel": 0}, {"type": "note_off", "time": 41, "note": 65, "velocity": 95, "channel": 0}, {"type": "note_on", "time": 10, "note": 69, "velocity": 113, "channel": 0}, {"type": "note_off", "time": 98, "note": 69, "velocity": 113, "channel": 0}, {"type": "note_on", "time": 25, "note": 60, "velocity": 87, "channel": 0}, {"type": "note_off", "time": 44, "note": 60, "velocity": 87, "channel": 0}, {"type": "note_on", "time": 0, "note": 62, "velocity": 108, "channel": 0}, {"type": "note_off", "time": 132, "note": 62, "velocity": 108, "channel": 0}, {"type": "note_on", "time": 17, "note": 65, "velocity": 107, "channel": 0}, {"type": "note_off", "time": 142, "note": 65, "velocity": 107, "channel": 0}, {"type": "note_on", "time": 417, "note": 61, "velocity": 120, "channel": 0}, {"type": "note_off", "time": 58, "note": 61, "velocity": 120, "channel": 0}, {"type": "note_on", "time": 27, "note": 62, "velocity": 115, "channel": 0}, {"type": "note_off", "time": 80, "note": 62, "velocity": 115, "channel": 0}, {"type": "note_on", "time": 8, "note": 65, "velocity": 113, "channel": 0}, {"type": "note_off", "time": 88, "note": 65, "velocity": 113, "channel": 0}, {"type": "note_on", "time": 15, "note": 62, "velocity": 116, "channel": 0}, {"type": "note_off", "time": 91, "note": 62, "velocity": 116, "channel": 0}, {"type": "note_on", "time": 80, "note": 67, "velocity": 111, "channel": 0}, {"type": "note_off", "time": 124, "note": 67, "velocity": 111, "channel": 0}, {"type": "note_on", "time": 12, "note": 70, "velocity": 107, "channel": 0}, {"type": "note_off", "time": 55, "note": 70, "velocity": 107, "channel": 0}, {"type": "note_on", "time": 17, "note": 74, "velocity": 107, "channel": 0}, {"type": "note_off", "time": 125, "note": 74, "velocity": 107, "channel": 0}, {"type": "note_on", "time": 8, "note": 77, "velocity": 110, "channel": 0}, {"type": "note_off", "time": 240, "note": 77, "velocity": 110, "channel": 0}, {"type": "note_on", "time": 35, "note": 74, "velocity": 106, "channel": 0}, {"type": "note_off", "time": 94, "note": 74, "velocity": 106, "channel": 0}, {"type": "note_on", "time": 121, "note": 77, "velocity": 105, "channel": 0}, {"type": "note_off", "time": 85, "note": 77, "velocity": 105, "channel": 0}, {"type": "note_on", "time": 19, "note": 73, "velocity": 109, "channel": 0}, {"type": "note_off", "time": 144, "note": 73, "velocity": 109, "channel": 0}, {"type": "note_on", "time": 10, "note": 71, "velocity": 111, "channel": 0}, {"type": "note_off", "time": 46, "note": 71, "velocity": 111, "channel": 0}, {"type": "note_on", "time": 9, "note": 69, "velocity": 112, "channel": 0}, {"type": "note_off", "time": 31, "note": 69, "velocity": 112, "channel": 0}, {"type": "note_on", "time": 5, "note": 66, "velocity": 111, "channel": 0}, {"type": "note_off", "time": 43, "note": 66, "velocity": 111, "channel": 0}, {"type": "note_on", "time": 7, "note": 63, "velocity": 116, "channel": 0}, {"type": "note_off", "time": 94, "note": 63, "velocity": 116, "channel": 0}, {"type": "note_on", "time": 188, "note": 62, "velocity": 117, "channel": 0}, {"type": "note_off", "time": 103, "note": 62, "velocity": 117, "channel": 0}, {"type": "note_on", "time": 20, "note": 65, "velocity": 93, "channel": 0}, {"type": "note_off", "time": 32, "note": 65, "velocity": 93, "channel": 0}, {"type": "note_on", "time": 5, "note": 69, "velocity": 94, "channel": 0}, {"type": "note_off", "time": 51, "note": 69, "velocity": 94, "channel": 0}, {"type": "note_on", "time": 5, "note": 72, "velocity": 114, "channel": 0}, {"type": "note_off", "time": 74, "note": 72, "velocity": 114, "channel": 0}, {"type": "note_on", "time": 9, "note": 70, "velocity": 115, "channel": 0}, {"type": "note_off", "time": 85, "note": 70, "velocity": 115, "channel": 0}, {"type": "note_on", "time": 14, "note": 69, "velocity": 114, "channel": 0}, {"type": "note_off", "time": 82, "note": 69, "velocity": 114, "channel": 0}, {"type": "note_on", "time": 10, "note": 67, "velocity": 112, "channel": 0}, {"type": "note_off", "time": 83, "note": 67, "velocity": 112, "channel": 0}, {"type": "note_on", "time": 12, "note": 66, "velocity": 112, "channel": 0}, {"type": "note_off", "time": 84, "note": 66, "velocity": 112, "channel": 0}, {"type": "note_on", "time": 14, "note": 65, "velocity": 113, "channel": 0}, {"type": "note_off", "time": 66, "note": 65, "velocity": 113, "channel": 0}, {"type": "note_on", "time": 16, "note": 63, "velocity": 115, "channel": 0}, {"type": "note_off", "time": 87, "note": 63, "velocity": 115, "channel": 0}, {"type": "note_on", "time": 9, "note": 62, "velocity": 113, "channel": 0}, {"type": "note_off", "time": 106, "note": 62, "velocity": 113, "channel": 0}, {"type": "note_on", "time": 9, "note": 60, "velocity": 106, "channel": 0}, {"type": "note_off", "time": 46, "note": 60, "velocity": 106, "channel": 0}, {"type": "note_on", "time": 8, "note": 58, "velocity": 107, "channel": 0}, {"type": "note_off", "time": 91, "note": 58, "velocity": 107, "channel": 0}, {"type": "note_on", "time": 11, "note": 60, "velocity": 100, "channel": 0}, {"type": "note_off", "time": 59, "note": 60, "velocity": 100, "channel": 0}, {"type": "note_on", "time": 15, "note": 62, "velocity": 110, "channel": 0}, {"type": "note_off", "time": 104, "note": 62, "velocity": 110, "channel": 0}, {"type": "note_on", "time": 26, "note": 65, "velocity": 110, "channel": 0}, {"type": "note_off", "time": 73, "note": 65, "velocity": 110, "channel": 0}, {"type": "note_on", "time": 11, "note": 63, "velocity": 111, "channel": 0}, {"type": "note_off", "time": 98, "note": 63, "velocity": 111, "channel": 0}, {"type": "note_on", "time": 60, "note": 54, "velocity": 99, "channel": 0}, {"type": "note_off", "time": 45, "note": 54, "velocity": 99, "channel": 0}, {"type": "note_on", "time": 14, "note": 58, "velocity": 102, "channel": 0}, {"type": "note_off", "time": 82, "note": 58, "velocity": 102, "channel": 0}, {"type": "note_on", "time": 15, "note": 63, "velocity": 112, "channel": 0}, {"type": "note_off", "time": 76, "note": 63, "velocity": 112, "channel": 0}, {"type": "note_on", "time": 18, "note": 65, "velocity": 108, "channel": 0}, {"type": "note_off", "time": 107, "note": 65, "velocity": 108, "channel": 0}, {"type": "note_on", "time": 18, "note": 62, "velocity": 87, "channel": 0}, {"type": "note_off", "time": 58, "note": 62, "velocity": 87, "channel": 0}, {"type": "note_on", "time": 6, "note": 63, "velocity": 115, "channel": 0}, {"type": "note_off", "time": 89, "note": 63, "velocity": 115, "channel": 0}, {"type": "note_on", "time": 8, "note": 65, "velocity": 107, "channel": 0}, {"type": "note_off", "time": 83, "note": 65, "velocity": 107, "channel": 0}, {"type": "note_on", "time": 15, "note": 66, "velocity": 107, "channel": 0}, {"type": "note_off", "time": 92, "note": 66, "velocity": 107, "channel": 0}, {"type": "note_on", "time": 15, "note": 69, "velocity": 107, "channel": 0}, {"type": "note_off", "time": 86, "note": 69, "velocity": 107, "channel": 0}, {"type": "note_on", "time": 16, "note": 68, "velocity": 106, "channel": 0}, {"type": "note_off", "time": 75, "note": 68, "velocity": 106, "channel": 0}, {"type": "note_on", "time": 22, "note": 67, "velocity": 105, "channel": 0}, {"type": "note_off", "time": 73, "note": 67, "velocity": 105, "channel": 0}, {"type": "note_on", "time": 21, "note": 66, "velocity": 107, "channel": 0}, {"type": "note_off", "time": 99, "note": 66, "velocity": 107, "channel": 0}, {"type": "note_on", "time": 11, "note": 64, "velocity": 90, "channel": 0}, {"type": "note_off", "time": 61, "note": 64, "velocity": 90, "channel": 0}, {"type": "note_on", "time": 16, "note": 65, "velocity": 108, "channel": 0}, {"type": "note_off", "time": 91, "note": 65, "velocity": 108, "channel": 0}, {"type": "note_on", "time": 40, "note": 60, "velocity": 93, "channel": 0}, {"type": "note_off", "time": 32, "note": 60, "velocity": 93, "channel": 0}, {"type": "note_on", "time": 5, "note": 63, "velocity": 110, "channel": 0}, {"type": "note_off", "time": 38, "note": 63, "velocity": 110, "channel": 0}, {"type": "note_on", "time": 6, "note": 65, "velocity": 102, "channel": 0}, {"type": "note_off", "time": 20, "note": 65, "velocity": 102, "channel": 0}, {"type": "note_on", "time": 10, "note": 63, "velocity": 108, "channel": 0}, {"type": "note_off", "time": 44, "note": 63, "velocity": 108, "channel": 0}, {"type": "note_on", "time": 6, "note": 61, "velocity": 109, "channel": 0}, {"type": "note_off", "time": 57, "note": 61, "velocity": 109, "channel": 0}, {"type": "note_on", "time": 17, "note": 60, "velocity": 107, "channel": 0}, {"type": "note_off", "time": 85, "note": 60, "velocity": 107, "channel": 0}, {"type": "note_on", "time": 8, "note": 61, "velocity": 108, "channel": 0}, {"type": "note_off", "time": 92, "note": 61, "velocity": 108, "channel": 0}, {"type": "note_on", "time": 12, "note": 65, "velocity": 107, "channel": 0}, {"type": "note_off", "time": 92, "note": 65, "velocity": 107, "channel": 0}, {"type": "note_on", "time": 3, "note": 68, "velocity": 106, "channel": 0}, {"type": "note_off", "time": 73, "note": 68, "velocity": 106, "channel": 0}, {"type": "note_on", "time": 16, "note": 72, "velocity": 95, "channel": 0}, {"type": "note_off", "time": 110, "note": 72, "velocity": 95, "channel": 0}, {"type": "note_on", "time": 13, "note": 75, "velocity": 99, "channel": 0}, {"type": "note_off", "time": 74, "note": 75, "velocity": 99, "channel": 0}, {"type": "note_on", "time": 21, "note": 72, "velocity": 107, "channel": 0}, {"type": "note_off", "time": 65, "note": 72, "velocity": 107, "channel": 0}, {"type": "note_on", "time": 30, "note": 70, "velocity": 106, "channel": 0}, {"type": "note_off", "time": 75, "note": 70, "velocity": 106, "channel": 0}, {"type": "note_on", "time": 17, "note": 68, "velocity": 104, "channel": 0}, {"type": "note_off", "time": 82, "note": 68, "velocity": 104, "channel": 0}, {"type": "note_on", "time": 12, "note": 66, "velocity": 102, "channel": 0}, {"type": "note_off", "time": 83, "note": 66, "velocity": 102, "channel": 0}, {"type": "note_on", "time": 22, "note": 64, "velocity": 107, "channel": 0}, {"type": "note_off", "time": 109, "note": 64, "velocity": 107, "channel": 0}, {"type": "note_on", "time": 27, "note": 63, "velocity": 105, "channel": 0}, {"type": "note_off", "time": 74, "note": 63, "velocity": 105, "channel": 0}, {"type": "note_on", "time": 10, "note": 65, "velocity": 101, "channel": 0}, {"type": "note_off", "time": 30, "note": 65, "velocity": 101, "channel": 0}, {"type": "note_on", "time": 18, "note": 63, "velocity": 106, "channel": 0}, {"type": "note_off", "time": 43, "note": 63, "velocity": 106, "channel": 0}, {"type": "note_on", "time": 16, "note": 61, "velocity": 110, "channel": 0}, {"type": "note_off", "time": 35, "note": 61, "velocity": 110, "channel": 0}, {"type": "note_on", "time": 23, "note": 60, "velocity": 107, "channel": 0}, {"type": "note_off", "time": 68, "note": 60, "velocity": 107, "channel": 0}, {"type": "note_on", "time": 32, "note": 69, "velocity": 111, "channel": 0}, {"type": "note_off", "time": 78, "note": 69, "velocity": 111, "channel": 0}, {"type": "note_on", "time": 494, "note": 69, "velocity": 114, "channel": 0}, {"type": "note_off", "time": 75, "note": 69, "velocity": 114, "channel": 0}, {"type": "note_on", "time": 8, "note": 68, "velocity": 111, "channel": 0}, {"type": "note_off", "time": 50, "note": 68, "velocity": 111, "channel": 0}, {"type": "note_on", "time": 12, "note": 69, "velocity": 111, "channel": 0}, {"type": "note_off", "time": 33, "note": 69, "velocity": 111, "channel": 0}, {"type": "note_on", "time": 10, "note": 69, "velocity": 115, "channel": 0}, {"type": "note_off", "time": 40, "note": 69, "velocity": 115, "channel": 0}, {"type": "note_on", "time": 32, "note": 69, "velocity": 114, "channel": 0}, {"type": "note_off", "time": 92, "note": 69, "velocity": 114, "channel": 0}, {"type": "note_on", "time": 309, "note": 69, "velocity": 107, "channel": 0}, {"type": "note_off", "time": 94, "note": 69, "velocity": 107, "channel": 0}, {"type": "note_on", "time": 21, "note": 69, "velocity": 113, "channel": 0}, {"type": "note_off", "time": 72, "note": 69, "velocity": 113, "channel": 0}, {"type": "note_on", "time": 16, "note": 69, "velocity": 113, "channel": 0}, {"type": "note_off", "time": 87, "note": 69, "velocity": 113, "channel": 0}, {"type": "note_on", "time": 307, "note": 69, "velocity": 113, "channel": 0}, {"type": "note_off", "time": 69, "note": 69, "velocity": 113, "channel": 0}, {"type": "note_on", "time": 34, "note": 69, "velocity": 115, "channel": 0}, {"type": "note_off", "time": 60, "note": 69, "velocity": 115, "channel": 0}, {"type": "note_on", "time": 16, "note": 70, "velocity": 113, "channel": 0}, {"type": "note_off", "time": 82, "note": 70, "velocity": 113, "channel": 0}, {"type": "note_on", "time": 223, "note": 69, "velocity": 108, "channel": 0}, {"type": "note_off", "time": 64, "note": 69, "velocity": 108, "channel": 0}, {"type": "note_on", "time": 210, "note": 67, "velocity": 112, "channel": 0}, {"type": "note_off", "time": 75, "note": 67, "velocity": 112, "channel": 0}, {"type": "note_on", "time": 215, "note": 65, "velocity": 110, "channel": 0}, {"type": "note_off", "time": 70, "note": 65, "velocity": 110, "channel": 0}, {"type": "note_on", "time": 209, "note": 62, "velocity": 108, "channel": 0}, {"type": "note_off", "time": 102, "note": 62, "velocity": 108, "channel": 0}, {"type": "note_on", "time": 207, "note": 72, "velocity": 108, "channel": 0}, {"type": "note_off", "time": 86, "note": 72, "velocity": 108, "channel": 0}, {"type": "note_on", "time": 176, "note": 69, "velocity": 110, "channel": 0}, {"type": "note_off", "time": 104, "note": 69, "velocity": 110, "channel": 0}, {"type": "note_on", "time": 223, "note": 67, "velocity": 112, "channel": 0}, {"type": "note_off", "time": 78, "note": 67, "velocity": 112, "channel": 0}, {"type": "note_on", "time": 8, "note": 66, "velocity": 111, "channel": 0}, {"type": "note_off", "time": 94, "note": 66, "velocity": 111, "channel": 0}, {"type": "note_on", "time": 30, "note": 63, "velocity": 114, "channel": 0}, {"type": "note_off", "time": 70, "note": 63, "velocity": 114, "channel": 0}, {"type": "note_on", "time": 15, "note": 62, "velocity": 112, "channel": 0}, {"type": "note_off", "time": 91, "note": 62, "velocity": 112, "channel": 0}, {"type": "note_on", "time": 13, "note": 60, "velocity": 99, "channel": 0}, {"type": "note_off", "time": 63, "note": 60, "velocity": 99, "channel": 0}, {"type": "note_on", "time": 13, "note": 58, "velocity": 107, "channel": 0}, {"type": "note_off", "time": 131, "note": 58, "velocity": 107, "channel": 0}, {"type": "note_on", "time": 17, "note": 62, "velocity": 114, "channel": 0}, {"type": "note_off", "time": 134, "note": 62, "velocity": 114, "channel": 0}, {"type": "note_on", "time": 7, "note": 65, "velocity": 95, "channel": 0}, {"type": "note_off", "time": 82, "note": 65, "velocity": 95, "channel": 0}, {"type": "note_on", "time": 3, "note": 68, "velocity": 113, "channel": 0}, {"type": "note_off", "time": 77, "note": 68, "velocity": 113, "channel": 0}, {"type": "note_on", "time": 12, "note": 69, "velocity": 111, "channel": 0}, {"type": "note_off", "time": 84, "note": 69, "velocity": 111, "channel": 0}, {"type": "note_on", "time": 17, "note": 70, "velocity": 112, "channel": 0}, {"type": "note_off", "time": 75, "note": 70, "velocity": 112, "channel": 0}, {"type": "note_on", "time": 11, "note": 67, "velocity": 112, "channel": 0}, {"type": "note_off", "time": 65, "note": 67, "velocity": 112, "channel": 0}, {"type": "note_on", "time": 12, "note": 69, "velocity": 107, "channel": 0}, {"type": "note_off", "time": 68, "note": 69, "velocity": 107, "channel": 0}, {"type": "note_on", "time": 10, "note": 65, "velocity": 100, "channel": 0}, {"type": "note_off", "time": 32, "note": 65, "velocity": 100, "channel": 0}, {"type": "note_on", "time": 8, "note": 62, "velocity": 110, "channel": 0}, {"type": "note_off", "time": 28, "note": 62, "velocity": 110, "channel": 0}, {"type": "note_on", "time": 6, "note": 60, "velocity": 106, "channel": 0}, {"type": "note_off", "time": 40, "note": 60, "velocity": 106, "channel": 0}, {"type": "note_on", "time": 6, "note": 59, "velocity": 103, "channel": 0}, {"type": "note_off", "time": 104, "note": 59, "velocity": 103, "channel": 0}, {"type": "note_on", "time": 11, "note": 57, "velocity": 99, "channel": 0}, {"type": "note_off", "time": 58, "note": 57, "velocity": 99, "channel": 0}, {"type": "note_on", "time": 9, "note": 58, "velocity": 107, "channel": 0}, {"type": "note_off", "time": 90, "note": 58, "velocity": 107, "channel": 0}, {"type": "note_on", "time": 24, "note": 60, "velocity": 113, "channel": 0}, {"type": "note_off", "time": 62, "note": 60, "velocity": 113, "channel": 0}, {"type": "note_on", "time": 20, "note": 62, "velocity": 115, "channel": 0}, {"type": "note_off", "time": 79, "note": 62, "velocity": 115, "channel": 0}, {"type": "note_on", "time": 24, "note": 64, "velocity": 114, "channel": 0}, {"type": "note_off", "time": 73, "note": 64, "velocity": 114, "channel": 0}, {"type": "note_on", "time": 35, "note": 65, "velocity": 111, "channel": 0}, {"type": "note_off", "time": 80, "note": 65, "velocity": 111, "channel": 0}, {"type": "note_on", "time": 81, "note": 65, "velocity": 109, "channel": 0}, {"type": "note_off", "time": 104, "note": 65, "velocity": 109, "channel": 0}, {"type": "note_on", "time": 15, "note": 69, "velocity": 111, "channel": 0}, {"type": "note_off", "time": 99, "note": 69, "velocity": 111, "channel": 0}, {"type": "note_on", "time": 16, "note": 74, "velocity": 106, "channel": 0}, {"type": "note_off", "time": 166, "note": 74, "velocity": 106, "channel": 0}, {"type": "note_on", "time": 14, "note": 72, "velocity": 111, "channel": 0}, {"type": "note_off", "time": 82, "note": 72, "velocity": 111, "channel": 0}, {"type": "note_on", "time": 34, "note": 70, "velocity": 112, "channel": 0}, {"type": "note_off", "time": 71, "note": 70, "velocity": 112, "channel": 0}, {"type": "note_on", "time": 21, "note": 69, "velocity": 109, "channel": 0}, {"type": "note_off", "time": 78, "note": 69, "velocity": 109, "channel": 0}, {"type": "note_on", "time": 13, "note": 68, "velocity": 109, "channel": 0}, {"type": "note_off", "time": 85, "note": 68, "velocity": 109, "channel": 0}, {"type": "note_on", "time": 8, "note": 67, "velocity": 108, "channel": 0}, {"type": "note_off", "time": 64, "note": 67, "velocity": 108, "channel": 0}, {"type": "note_on", "time": 43, "note": 66, "velocity": 108, "channel": 0}, {"type": "note_off", "time": 76, "note": 66, "velocity": 108, "channel": 0}, {"type": "note_on", "time": 17, "note": 65, "velocity": 106, "channel": 0}, {"type": "note_off", "time": 83, "note": 65, "velocity": 106, "channel": 0}, {"type": "note_on", "time": 15, "note": 61, "velocity": 110, "channel": 0}, {"type": "note_off", "time": 79, "note": 61, "velocity": 110, "channel": 0}, {"type": "note_on", "time": 7, "note": 60, "velocity": 105, "channel": 0}, {"type": "note_off", "time": 69, "note": 60, "velocity": 105, "channel": 0}, {"type": "note_on", "time": 18, "note": 58, "velocity": 101, "channel": 0}, {"type": "note_off", "time": 75, "note": 58, "velocity": 101, "channel": 0}, {"type": "note_on", "time": 42, "note": 57, "velocity": 102, "channel": 0}, {"type": "note_off", "time": 131, "note": 57, "velocity": 102, "channel": 0}, {"type": "note_on", "time": 34, "note": 61, "velocity": 111, "channel": 0}, {"type": "note_off", "time": 99, "note": 61, "velocity": 111, "channel": 0}, {"type": "note_on", "time": 12, "note": 64, "velocity": 115, "channel": 0}, {"type": "note_off", "time": 84, "note": 64, "velocity": 115, "channel": 0}, {"type": "note_on", "time": 38, "note": 62, "velocity": 113, "channel": 0}, {"type": "note_off", "time": 70, "note": 62, "velocity": 113, "channel": 0}, {"type": "note_on", "time": 16, "note": 64, "velocity": 112, "channel": 0}, {"type": "note_off", "time": 77, "note": 64, "velocity": 112, "channel": 0}, {"type": "note_on", "time": 19, "note": 65, "velocity": 109, "channel": 0}, {"type": "note_off", "time": 88, "note": 65, "velocity": 109, "channel": 0}, {"type": "note_on", "time": 15, "note": 67, "velocity": 107, "channel": 0}, {"type": "note_off", "time": 67, "note": 67, "velocity": 107, "channel": 0}, {"type": "note_on", "time": 42, "note": 63, "velocity": 115, "channel": 0}, {"type": "note_off", "time": 66, "note": 63, "velocity": 115, "channel": 0}, {"type": "note_on", "time": 10, "note": 64, "velocity": 112, "channel": 0}, {"type": "note_off", "time": 112, "note": 64, "velocity": 112, "channel": 0}, {"type": "note_on", "time": 19, "note": 61, "velocity": 108, "channel": 0}, {"type": "note_off", "time": 64, "note": 61, "velocity": 108, "channel": 0}, {"type": "note_on", "time": 90, "note": 63, "velocity": 90, "channel": 0}, {"type": "note_off", "time": 19, "note": 63, "velocity": 90, "channel": 0}, {"type": "note_on", "time": 5, "note": 65, "velocity": 106, "channel": 0}, {"type": "note_off", "time": 36, "note": 65, "velocity": 106, "channel": 0}, {"type": "note_on", "time": 8, "note": 63, "velocity": 110, "channel": 0}, {"type": "note_off", "time": 32, "note": 63, "velocity": 110, "channel": 0}, {"type": "note_on", "time": 17, "note": 59, "velocity": 103, "channel": 0}, {"type": "note_off", "time": 55, "note": 59, "velocity": 103, "channel": 0}, {"type": "note_on", "time": 6, "note": 54, "velocity": 101, "channel": 0}, {"type": "note_off", "time": 145, "note": 54, "velocity": 101, "channel": 0}, {"type": "note_on", "time": 27, "note": 53, "velocity": 102, "channel": 0}, {"type": "note_off", "time": 133, "note": 53, "velocity": 102, "channel": 0}, {"type": "note_on", "time": 461, "note": 57, "velocity": 108, "channel": 0}, {"type": "note_off", "time": 42, "note": 57, "velocity": 108, "channel": 0}, {"type": "note_on", "time": 7, "note": 56, "velocity": 103, "channel": 0}, {"type": "note_off", "time": 39, "note": 56, "velocity": 103, "channel": 0}, {"type": "note_on", "time": 7, "note": 57, "velocity": 108, "channel": 0}, {"type": "note_off", "time": 48, "note": 57, "velocity": 108, "channel": 0}, {"type": "note_on", "time": 8, "note": 59, "velocity": 106, "channel": 0}, {"type": "note_off", "time": 28, "note": 59, "velocity": 106, "channel": 0}, {"type": "note_on", "time": 8, "note": 60, "velocity": 110, "channel": 0}, {"type": "note_off", "time": 42, "note": 60, "velocity": 110, "channel": 0}, {"type": "note_on", "time": 9, "note": 62, "velocity": 104, "channel": 0}, {"type": "note_off", "time": 37, "note": 62, "velocity": 104, "channel": 0}, {"type": "note_on", "time": 9, "note": 65, "velocity": 111, "channel": 0}, {"type": "note_off", "time": 39, "note": 65, "velocity": 111, "channel": 0}, {"type": "note_on", "time": 6, "note": 62, "velocity": 113, "channel": 0}, {"type": "note_off", "time": 39, "note": 62, "velocity": 113, "channel": 0}, {"type": "note_on", "time": 5, "note": 63, "velocity": 113, "channel": 0}, {"type": "note_off", "time": 35, "note": 63, "velocity": 113, "channel": 0}, {"type": "note_on", "time": 7, "note": 65, "velocity": 109, "channel": 0}, {"type": "note_off", "time": 46, "note": 65, "velocity": 109, "channel": 0}, {"type": "note_on", "time": 8, "note": 66, "velocity": 105, "channel": 0}, {"type": "note_off", "time": 39, "note": 66, "velocity": 105, "channel": 0}, {"type": "note_on", "time": 13, "note": 68, "velocity": 100, "channel": 0}, {"type": "note_off", "time": 29, "note": 68, "velocity": 100, "channel": 0}, {"type": "note_on", "time": 4, "note": 70, "velocity": 107, "channel": 0}, {"type": "note_off", "time": 45, "note": 70, "velocity": 107, "channel": 0}, {"type": "note_on", "time": 10, "note": 66, "velocity": 109, "channel": 0}, {"type": "note_off", "time": 35, "note": 66, "velocity": 109, "channel": 0}, {"type": "note_on", "time": 9, "note": 65, "velocity": 107, "channel": 0}, {"type": "note_off", "time": 30, "note": 65, "velocity": 107, "channel": 0}, {"type": "note_on", "time": 8, "note": 63, "velocity": 113, "channel": 0}, {"type": "note_off", "time": 46, "note": 63, "velocity": 113, "channel": 0}, {"type": "note_on", "time": 8, "note": 62, "velocity": 109, "channel": 0}, {"type": "note_off", "time": 42, "note": 62, "velocity": 109, "channel": 0}, {"type": "note_on", "time": 5, "note": 61, "velocity": 105, "channel": 0}, {"type": "note_off", "time": 27, "note": 61, "velocity": 105, "channel": 0}, {"type": "note_on", "time": 7, "note": 59, "velocity": 104, "channel": 0}, {"type": "note_off", "time": 36, "note": 59, "velocity": 104, "channel": 0}, {"type": "note_on", "time": 10, "note": 57, "velocity": 104, "channel": 0}, {"type": "note_off", "time": 33, "note": 57, "velocity": 104, "channel": 0}, {"type": "note_on", "time": 3, "note": 58, "velocity": 105, "channel": 0}, {"type": "note_off", "time": 49, "note": 58, "velocity": 105, "channel": 0}, {"type": "note_on", "time": 9, "note": 60, "velocity": 106, "channel": 0}, {"type": "note_off", "time": 36, "note": 60, "velocity": 106, "channel": 0}, {"type": "note_on", "time": 8, "note": 62, "velocity": 103, "channel": 0}, {"type": "note_off", "time": 45, "note": 62, "velocity": 103, "channel": 0}, {"type": "note_on", "time": 7, "note": 65, "velocity": 99, "channel": 0}, {"type": "note_off", "time": 32, "note": 65, "velocity": 99, "channel": 0}, {"type": "note_on", "time": 6, "note": 69, "velocity": 108, "channel": 0}, {"type": "note_off", "time": 39, "note": 69, "velocity": 108, "channel": 0}, {"type": "note_on", "time": 11, "note": 66, "velocity": 105, "channel": 0}, {"type": "note_off", "time": 43, "note": 66, "velocity": 105, "channel": 0}, {"type": "note_on", "time": 6, "note": 67, "velocity": 102, "channel": 0}, {"type": "note_off", "time": 26, "note": 67, "velocity": 102, "channel": 0}, {"type": "note_on", "time": 8, "note": 69, "velocity": 102, "channel": 0}, {"type": "note_off", "time": 81, "note": 69, "velocity": 102, "channel": 0}, {"type": "note_on", "time": 30, "note": 62, "velocity": 100, "channel": 0}, {"type": "note_off", "time": 40, "note": 62, "velocity": 100, "channel": 0}, {"type": "note_on", "time": 14, "note": 64, "velocity": 95, "channel": 0}, {"type": "note_off", "time": 39, "note": 64, "velocity": 95, "channel": 0}, {"type": "note_on", "time": 5, "note": 65, "velocity": 97, "channel": 0}, {"type": "note_off", "time": 29, "note": 65, "velocity": 97, "channel": 0}, {"type": "note_on", "time": 8, "note": 69, "velocity": 109, "channel": 0}, {"type": "note_off", "time": 36, "note": 69, "velocity": 109, "channel": 0}, {"type": "note_on", "time": 11, "note": 67, "velocity": 106, "channel": 0}, {"type": "note_off", "time": 33, "note": 67, "velocity": 106, "channel": 0}, {"type": "note_on", "time": 10, "note": 65, "velocity": 104, "channel": 0}, {"type": "note_off", "time": 23, "note": 65, "velocity": 104, "channel": 0}, {"type": "note_on", "time": 7, "note": 62, "velocity": 107, "channel": 0}, {"type": "note_off", "time": 29, "note": 62, "velocity": 107, "channel": 0}, {"type": "note_on", "time": 11, "note": 64, "velocity": 114, "channel": 0}, {"type": "note_off", "time": 58, "note": 64, "velocity": 114, "channel": 0}, {"type": "note_on", "time": 12, "note": 60, "velocity": 102, "channel": 0}, {"type": "note_off", "time": 46, "note": 60, "velocity": 102, "channel": 0}, {"type": "note_on", "time": 9, "note": 62, "velocity": 103, "channel": 0}, {"type": "note_off", "time": 38, "note": 62, "velocity": 103, "channel": 0}, {"type": "note_on", "time": 5, "note": 65, "velocity": 104, "channel": 0}, {"type": "note_off", "time": 40, "note": 65, "velocity": 104, "channel": 0}, {"type": "note_on", "time": 11, "note": 62, "velocity": 105, "channel": 0}, {"type": "note_off", "time": 40, "note": 62, "velocity": 105, "channel": 0}, {"type": "note_on", "time": 7, "note": 66, "velocity": 103, "channel": 0}, {"type": "note_off", "time": 36, "note": 66, "velocity": 103, "channel": 0}, {"type": "note_on", "time": 8, "note": 62, "velocity": 100, "channel": 0}, {"type": "note_off", "time": 38, "note": 62, "velocity": 100, "channel": 0}, {"type": "note_on", "time": 9, "note": 67, "velocity": 105, "channel": 0}, {"type": "note_off", "time": 44, "note": 67, "velocity": 105, "channel": 0}, {"type": "note_on", "time": 11, "note": 64, "velocity": 108, "channel": 0}, {"type": "note_off", "time": 38, "note": 64, "velocity": 108, "channel": 0}, {"type": "note_on", "time": 4, "note": 62, "velocity": 105, "channel": 0}, {"type": "note_off", "time": 25, "note": 62, "velocity": 105, "channel": 0}, {"type": "note_on", "time": 9, "note": 60, "velocity": 106, "channel": 0}, {"type": "note_off", "time": 45, "note": 60, "velocity": 106, "channel": 0}, {"type": "note_on", "time": 6, "note": 58, "velocity": 106, "channel": 0}, {"type": "note_off", "time": 42, "note": 58, "velocity": 106, "channel": 0}, {"type": "note_on", "time": 6, "note": 60, "velocity": 103, "channel": 0}, {"type": "note_off", "time": 43, "note": 60, "velocity": 103, "channel": 0}, {"type": "note_on", "time": 9, "note": 62, "velocity": 102, "channel": 0}, {"type": "note_off", "time": 31, "note": 62, "velocity": 102, "channel": 0}, {"type": "note_on", "time": 11, "note": 64, "velocity": 102, "channel": 0}, {"type": "note_off", "time": 29, "note": 64, "velocity": 102, "channel": 0}, {"type": "note_on", "time": 10, "note": 69, "velocity": 106, "channel": 0}, {"type": "note_off", "time": 33, "note": 69, "velocity": 106, "channel": 0}, {"type": "note_on", "time": 3, "note": 67, "velocity": 102, "channel": 0}, {"type": "note_off", "time": 34, "note": 67, "velocity": 102, "channel": 0}, {"type": "note_on", "time": 9, "note": 64, "velocity": 102, "channel": 0}, {"type": "note_off", "time": 26, "note": 64, "velocity": 102, "channel": 0}, {"type": "note_on", "time": 5, "note": 61, "velocity": 96, "channel": 0}, {"type": "note_off", "time": 36, "note": 61, "velocity": 96, "channel": 0}, {"type": "note_on", "time": 11, "note": 67, "velocity": 94, "channel": 0}, {"type": "note_off", "time": 65, "note": 67, "velocity": 94, "channel": 0}, {"type": "note_on", "time": 18, "note": 64, "velocity": 97, "channel": 0}, {"type": "note_off", "time": 42, "note": 64, "velocity": 97, "channel": 0}, {"type": "note_on", "time": 5, "note": 67, "velocity": 101, "channel": 0}, {"type": "note_off", "time": 34, "note": 67, "velocity": 101, "channel": 0}, {"type": "note_on", "time": 6, "note": 65, "velocity": 100, "channel": 0}, {"type": "note_off", "time": 41, "note": 65, "velocity": 100, "channel": 0}, {"type": "note_on", "time": 5, "note": 67, "velocity": 98, "channel": 0}, {"type": "note_off", "time": 35, "note": 67, "velocity": 98, "channel": 0}, {"type": "note_on", "time": 9, "note": 69, "velocity": 99, "channel": 0}, {"type": "note_off", "time": 40, "note": 69, "velocity": 99, "channel": 0}, {"type": "note_on", "time": 25, "note": 70, "velocity": 99, "channel": 0}, {"type": "note_off", "time": 36, "note": 70, "velocity": 99, "channel": 0}, {"type": "note_on", "time": 10, "note": 73, "velocity": 98, "channel": 0}, {"type": "note_off", "time": 341, "note": 73, "velocity": 98, "channel": 0}, {"type": "note_on", "time": 168, "note": 69, "velocity": 105, "channel": 0}, {"type": "note_off", "time": 46, "note": 69, "velocity": 105, "channel": 0}, {"type": "note_on", "time": 13, "note": 65, "velocity": 106, "channel": 0}, {"type": "note_off", "time": 101, "note": 65, "velocity": 106, "channel": 0}, {"type": "note_on", "time": 14, "note": 61, "velocity": 107, "channel": 0}, {"type": "note_off", "time": 106, "note": 61, "velocity": 107, "channel": 0}, {"type": "note_on", "time": 225, "note": 57, "velocity": 101, "channel": 0}, {"type": "note_off", "time": 101, "note": 57, "velocity": 101, "channel": 0}, {"type": "note_on", "time": 13, "note": 59, "velocity": 93, "channel": 0}, {"type": "note_off", "time": 33, "note": 59, "velocity": 93, "channel": 0}, {"type": "note_on", "time": 10, "note": 61, "velocity": 92, "channel": 0}, {"type": "note_off", "time": 58, "note": 61, "velocity": 92, "channel": 0}, {"type": "note_on", "time": 13, "note": 64, "velocity": 112, "channel": 0}, {"type": "note_off", "time": 80, "note": 64, "velocity": 112, "channel": 0}, {"type": "note_on", "time": 12, "note": 62, "velocity": 110, "channel": 0}, {"type": "note_off", "time": 80, "note": 62, "velocity": 110, "channel": 0}, {"type": "note_on", "time": 12, "note": 64, "velocity": 109, "channel": 0}, {"type": "note_off", "time": 79, "note": 64, "velocity": 109, "channel": 0}, {"type": "note_on", "time": 5, "note": 65, "velocity": 105, "channel": 0}, {"type": "note_off", "time": 129, "note": 65, "velocity": 105, "channel": 0}, {"type": "note_on", "time": 16, "note": 67, "velocity": 102, "channel": 0}, {"type": "note_off", "time": 54, "note": 67, "velocity": 102, "channel": 0}, {"type": "note_on", "time": 15, "note": 66, "velocity": 105, "channel": 0}, {"type": "note_off", "time": 84, "note": 66, "velocity": 105, "channel": 0}, {"type": "note_on", "time": 24, "note": 67, "velocity": 103, "channel": 0}, {"type": "note_off", "time": 71, "note": 67, "velocity": 103, "channel": 0}, {"type": "note_on", "time": 19, "note": 68, "velocity": 101, "channel": 0}, {"type": "note_off", "time": 75, "note": 68, "velocity": 101, "channel": 0}, {"type": "note_on", "time": 25, "note": 69, "velocity": 104, "channel": 0}, {"type": "note_off", "time": 70, "note": 69, "velocity": 104, "channel": 0}, {"type": "note_on", "time": 24, "note": 70, "velocity": 105, "channel": 0}, {"type": "note_off", "time": 75, "note": 70, "velocity": 105, "channel": 0}, {"type": "note_on", "time": 19, "note": 67, "velocity": 100, "channel": 0}, {"type": "note_off", "time": 68, "note": 67, "velocity": 100, "channel": 0}, {"type": "note_on", "time": 17, "note": 63, "velocity": 106, "channel": 0}, {"type": "note_off", "time": 97, "note": 63, "velocity": 106, "channel": 0}, {"type": "note_on", "time": 13, "note": 60, "velocity": 88, "channel": 0}, {"type": "note_off", "time": 50, "note": 60, "velocity": 88, "channel": 0}, {"type": "note_on", "time": 8, "note": 65, "velocity": 106, "channel": 0}, {"type": "note_off", "time": 92, "note": 65, "velocity": 106, "channel": 0}, {"type": "note_on", "time": 8, "note": 63, "velocity": 111, "channel": 0}, {"type": "note_off", "time": 82, "note": 63, "velocity": 111, "channel": 0}, {"type": "note_on", "time": 12, "note": 62, "velocity": 105, "channel": 0}, {"type": "note_off", "time": 83, "note": 62, "velocity": 105, "channel": 0}, {"type": "note_on", "time": 34, "note": 60, "velocity": 105, "channel": 0}, {"type": "note_off", "time": 63, "note": 60, "velocity": 105, "channel": 0}, {"type": "note_on", "time": 13, "note": 58, "velocity": 102, "channel": 0}, {"type": "note_off", "time": 69, "note": 58, "velocity": 102, "channel": 0}, {"type": "note_on", "time": 37, "note": 60, "velocity": 97, "channel": 0}, {"type": "note_off", "time": 58, "note": 60, "velocity": 97, "channel": 0}, {"type": "note_on", "time": 6, "note": 62, "velocity": 98, "channel": 0}, {"type": "note_off", "time": 85, "note": 62, "velocity": 98, "channel": 0}, {"type": "note_on", "time": 18, "note": 65, "velocity": 93, "channel": 0}, {"type": "note_off", "time": 66, "note": 65, "velocity": 93, "channel": 0}, {"type": "note_on", "time": 21, "note": 70, "velocity": 106, "channel": 0}, {"type": "note_off", "time": 99, "note": 70, "velocity": 106, "channel": 0}, {"type": "note_on", "time": 8, "note": 72, "velocity": 106, "channel": 0}, {"type": "note_off", "time": 66, "note": 72, "velocity": 106, "channel": 0}, {"type": "note_on", "time": 18, "note": 69, "velocity": 105, "channel": 0}, {"type": "note_off", "time": 79, "note": 69, "velocity": 105, "channel": 0}, {"type": "note_on", "time": 23, "note": 67, "velocity": 104, "channel": 0}, {"type": "note_off", "time": 68, "note": 67, "velocity": 104, "channel": 0}, {"type": "note_on", "time": 18, "note": 66, "velocity": 105, "channel": 0}, {"type": "note_off", "time": 79, "note": 66, "velocity": 105, "channel": 0}, {"type": "note_on", "time": 20, "note": 63, "velocity": 110, "channel": 0}, {"type": "note_off", "time": 82, "note": 63, "velocity": 110, "channel": 0}, {"type": "note_on", "time": 15, "note": 62, "velocity": 105, "channel": 0}, {"type": "note_off", "time": 76, "note": 62, "velocity": 105, "channel": 0}, {"type": "note_on", "time": 10, "note": 60, "velocity": 102, "channel": 0}, {"type": "note_off", "time": 67, "note": 60, "velocity": 102, "channel": 0}, {"type": "note_on", "time": 21, "note": 57, "velocity": 97, "channel": 0}, {"type": "note_off", "time": 83, "note": 57, "velocity": 97, "channel": 0}, {"type": "note_on", "time": 44, "note": 58, "velocity": 100, "channel": 0}, {"type": "note_off", "time": 64, "note": 58, "velocity": 100, "channel": 0}, {"type": "note_on", "time": 13, "note": 62, "velocity": 99, "channel": 0}, {"type": "note_off", "time": 85, "note": 62, "velocity": 99, "channel": 0}, {"type": "note_on", "time": 27, "note": 65, "velocity": 92, "channel": 0}, {"type": "note_off", "time": 54, "note": 65, "velocity": 92, "channel": 0}, {"type": "note_on", "time": 14, "note": 69, "velocity": 106, "channel": 0}, {"type": "note_off", "time": 76, "note": 69, "velocity": 106, "channel": 0}, {"type": "note_on", "time": 64, "note": 60, "velocity": 102, "channel": 0}, {"type": "note_off", "time": 23, "note": 60, "velocity": 102, "channel": 0}, {"type": "note_on", "time": 16, "note": 62, "velocity": 105, "channel": 0}, {"type": "note_off", "time": 81, "note": 62, "velocity": 105, "channel": 0}, {"type": "note_on", "time": 19, "note": 65, "velocity": 99, "channel": 0}, {"type": "note_off", "time": 147, "note": 65, "velocity": 99, "channel": 0}, {"type": "note_on", "time": 485, "note": 53, "velocity": 107, "channel": 0}, {"type": "note_off", "time": 23, "note": 53, "velocity": 107, "channel": 0}, {"type": "note_on", "time": 6, "note": 55, "velocity": 109, "channel": 0}, {"type": "note_off", "time": 38, "note": 55, "velocity": 109, "channel": 0}, {"type": "note_on", "time": 9, "note": 58, "velocity": 97, "channel": 0}, {"type": "note_off", "time": 30, "note": 58, "velocity": 97, "channel": 0}, {"type": "note_on", "time": 10, "note": 60, "velocity": 103, "channel": 0}, {"type": "note_off", "time": 17, "note": 60, "velocity": 103, "channel": 0}, {"type": "note_on", "time": 10, "note": 55, "velocity": 116, "channel": 0}, {"type": "note_off", "time": 35, "note": 55, "velocity": 116, "channel": 0}, {"type": "note_on", "time": 7, "note": 52, "velocity": 109, "channel": 0}, {"type": "note_off", "time": 28, "note": 52, "velocity": 109, "channel": 0}, {"type": "note_on", "time": 12, "note": 54, "velocity": 113, "channel": 0}, {"type": "note_off", "time": 40, "note": 54, "velocity": 113, "channel": 0}, {"type": "note_on", "time": 20, "note": 57, "velocity": 99, "channel": 0}, {"type": "note_off", "time": 25, "note": 57, "velocity": 99, "channel": 0}, {"type": "note_on", "time": 11, "note": 60, "velocity": 110, "channel": 0}, {"type": "note_off", "time": 46, "note": 60, "velocity": 110, "channel": 0}, {"type": "note_on", "time": 4, "note": 64, "velocity": 107, "channel": 0}, {"type": "note_off", "time": 31, "note": 64, "velocity": 107, "channel": 0}, {"type": "note_on", "time": 4, "note": 61, "velocity": 106, "channel": 0}, {"type": "note_off", "time": 44, "note": 61, "velocity": 106, "channel": 0}, {"type": "note_on", "time": 8, "note": 56, "velocity": 99, "channel": 0}, {"type": "note_off", "time": 41, "note": 56, "velocity": 99, "channel": 0}, {"type": "note_on", "time": 8, "note": 54, "velocity": 98, "channel": 0}, {"type": "note_off", "time": 85, "note": 54, "velocity": 98, "channel": 0}, {"type": "note_on", "time": 12, "note": 57, "velocity": 97, "channel": 0}, {"type": "note_off", "time": 57, "note": 57, "velocity": 97, "channel": 0}, {"type": "note_on", "time": 10, "note": 59, "velocity": 97, "channel": 0}, {"type": "note_off", "time": 33, "note": 59, "velocity": 97, "channel": 0}, {"type": "note_on", "time": 4, "note": 61, "velocity": 108, "channel": 0}, {"type": "note_off", "time": 60, "note": 61, "velocity": 108, "channel": 0}, {"type": "note_on", "time": 10, "note": 63, "velocity": 107, "channel": 0}, {"type": "note_off", "time": 55, "note": 63, "velocity": 107, "channel": 0}, {"type": "note_on", "time": 46, "note": 73, "velocity": 106, "channel": 0}, {"type": "note_off", "time": 272, "note": 73, "velocity": 106, "channel": 0}, {"type": "note_on", "time": 11, "note": 71, "velocity": 108, "channel": 0}, {"type": "note_off", "time": 39, "note": 71, "velocity": 108, "channel": 0}, {"type": "note_on", "time": 5, "note": 69, "velocity": 103, "channel": 0}, {"type": "note_off", "time": 37, "note": 69, "velocity": 103, "channel": 0}, {"type": "note_on", "time": 5, "note": 68, "velocity": 104, "channel": 0}, {"type": "note_off", "time": 39, "note": 68, "velocity": 104, "channel": 0}, {"type": "note_on", "time": 8, "note": 66, "velocity": 102, "channel": 0}, {"type": "note_off", "time": 70, "note": 66, "velocity": 102, "channel": 0}, {"type": "note_on", "time": 10, "note": 65, "velocity": 100, "channel": 0}, {"type": "note_off", "time": 61, "note": 65, "velocity": 100, "channel": 0}, {"type": "note_on", "time": 305, "note": 64, "velocity": 109, "channel": 0}, {"type": "note_off", "time": 77, "note": 64, "velocity": 109, "channel": 0}, {"type": "note_on", "time": 12, "note": 69, "velocity": 106, "channel": 0}, {"type": "note_off", "time": 49, "note": 69, "velocity": 106, "channel": 0}, {"type": "note_on", "time": 4, "note": 67, "velocity": 101, "channel": 0}, {"type": "note_off", "time": 43, "note": 67, "velocity": 101, "channel": 0}, {"type": "note_on", "time": 7, "note": 65, "velocity": 102, "channel": 0}, {"type": "note_off", "time": 43, "note": 65, "velocity": 102, "channel": 0}, {"type": "note_on", "time": 10, "note": 64, "velocity": 106, "channel": 0}, {"type": "note_off", "time": 83, "note": 64, "velocity": 106, "channel": 0}, {"type": "note_on", "time": 10, "note": 63, "velocity": 103, "channel": 0}, {"type": "note_off", "time": 35, "note": 63, "velocity": 103, "channel": 0}, {"type": "note_on", "time": 286, "note": 61, "velocity": 108, "channel": 0}, {"type": "note_off", "time": 51, "note": 61, "velocity": 108, "channel": 0}, {"type": "note_on", "time": 7, "note": 62, "velocity": 106, "channel": 0}, {"type": "note_off", "time": 41, "note": 62, "velocity": 106, "channel": 0}, {"type": "note_on", "time": 5, "note": 65, "velocity": 105, "channel": 0}, {"type": "note_off", "time": 42, "note": 65, "velocity": 105, "channel": 0}, {"type": "note_on", "time": 6, "note": 64, "velocity": 108, "channel": 0}, {"type": "note_off", "time": 49, "note": 64, "velocity": 108, "channel": 0}, {"type": "note_on", "time": 13, "note": 63, "velocity": 106, "channel": 0}, {"type": "note_off", "time": 31, "note": 63, "velocity": 106, "channel": 0}, {"type": "note_on", "time": 4, "note": 65, "velocity": 102, "channel": 0}, {"type": "note_off", "time": 39, "note": 65, "velocity": 102, "channel": 0}, {"type": "note_on", "time": 12, "note": 62, "velocity": 105, "channel": 0}, {"type": "note_off", "time": 38, "note": 62, "velocity": 105, "channel": 0}, {"type": "note_on", "time": 7, "note": 60, "velocity": 102, "channel": 0}, {"type": "note_off", "time": 46, "note": 60, "velocity": 102, "channel": 0}, {"type": "note_on", "time": 18, "note": 58, "velocity": 100, "channel": 0}, {"type": "note_off", "time": 29, "note": 58, "velocity": 100, "channel": 0}, {"type": "note_on", "time": 10, "note": 60, "velocity": 104, "channel": 0}, {"type": "note_off", "time": 42, "note": 60, "velocity": 104, "channel": 0}, {"type": "note_on", "time": 10, "note": 62, "velocity": 102, "channel": 0}, {"type": "note_off", "time": 37, "note": 62, "velocity": 102, "channel": 0}, {"type": "note_on", "time": 9, "note": 65, "velocity": 94, "channel": 0}, {"type": "note_off", "time": 29, "note": 65, "velocity": 94, "channel": 0}, {"type": "note_on", "time": 13, "note": 70, "velocity": 111, "channel": 0}, {"type": "note_off", "time": 30, "note": 70, "velocity": 111, "channel": 0}, {"type": "note_on", "time": 10, "note": 69, "velocity": 107, "channel": 0}, {"type": "note_off", "time": 39, "note": 69, "velocity": 107, "channel": 0}, {"type": "note_on", "time": 8, "note": 67, "velocity": 104, "channel": 0}, {"type": "note_off", "time": 41, "note": 67, "velocity": 104, "channel": 0}, {"type": "note_on", "time": 6, "note": 66, "velocity": 104, "channel": 0}, {"type": "note_off", "time": 47, "note": 66, "velocity": 104, "channel": 0}, {"type": "note_on", "time": 4, "note": 65, "velocity": 103, "channel": 0}, {"type": "note_off", "time": 31, "note": 65, "velocity": 103, "channel": 0}, {"type": "note_on", "time": 6, "note": 64, "velocity": 109, "channel": 0}, {"type": "note_off", "time": 46, "note": 64, "velocity": 109, "channel": 0}, {"type": "note_on", "time": 4, "note": 63, "velocity": 111, "channel": 0}, {"type": "note_off", "time": 47, "note": 63, "velocity": 111, "channel": 0}, {"type": "note_on", "time": 6, "note": 65, "velocity": 103, "channel": 0}, {"type": "note_off", "time": 38, "note": 65, "velocity": 103, "channel": 0}, {"type": "note_on", "time": 8, "note": 66, "velocity": 103, "channel": 0}, {"type": "note_off", "time": 42, "note": 66, "velocity": 103, "channel": 0}, {"type": "note_on", "time": 27, "note": 70, "velocity": 103, "channel": 0}, {"type": "note_off", "time": 43, "note": 70, "velocity": 103, "channel": 0}, {"type": "note_on", "time": 4, "note": 73, "velocity": 104, "channel": 0}, {"type": "note_off", "time": 52, "note": 73, "velocity": 104, "channel": 0}, {"type": "note_on", "time": 27, "note": 77, "velocity": 105, "channel": 0}, {"type": "note_off", "time": 223, "note": 77, "velocity": 105, "channel": 0}, {"type": "note_on", "time": 9, "note": 75, "velocity": 99, "channel": 0}, {"type": "note_off", "time": 36, "note": 75, "velocity": 99, "channel": 0}, {"type": "note_on", "time": 8, "note": 73, "velocity": 104, "channel": 0}, {"type": "note_off", "time": 56, "note": 73, "velocity": 104, "channel": 0}, {"type": "note_on", "time": 11, "note": 72, "velocity": 108, "channel": 0}, {"type": "note_off", "time": 39, "note": 72, "velocity": 108, "channel": 0}, {"type": "note_on", "time": 10, "note": 71, "velocity": 109, "channel": 0}, {"type": "note_off", "time": 56, "note": 71, "velocity": 109, "channel": 0}, {"type": "note_on", "time": 33, "note": 70, "velocity": 107, "channel": 0}, {"type": "note_off", "time": 71, "note": 70, "velocity": 107, "channel": 0}, {"type": "note_on", "time": 13, "note": 69, "velocity": 104, "channel": 0}, {"type": "note_off", "time": 74, "note": 69, "velocity": 104, "channel": 0}, {"type": "note_on", "time": 22, "note": 66, "velocity": 106, "channel": 0}, {"type": "note_off", "time": 73, "note": 66, "velocity": 106, "channel": 0}, {"type": "note_on", "time": 15, "note": 64, "velocity": 109, "channel": 0}, {"type": "note_off", "time": 92, "note": 64, "velocity": 109, "channel": 0}, {"type": "note_on", "time": 6, "note": 60, "velocity": 105, "channel": 0}, {"type": "note_off", "time": 73, "note": 60, "velocity": 105, "channel": 0}, {"type": "note_on", "time": 11, "note": 59, "velocity": 99, "channel": 0}, {"type": "note_off", "time": 81, "note": 59, "velocity": 99, "channel": 0}, {"type": "note_on", "time": 29, "note": 57, "velocity": 102, "channel": 0}, {"type": "note_off", "time": 68, "note": 57, "velocity": 102, "channel": 0}, {"type": "note_on", "time": 11, "note": 56, "velocity": 95, "channel": 0}, {"type": "note_off", "time": 97, "note": 56, "velocity": 95, "channel": 0}, {"type": "note_on", "time": 7, "note": 58, "velocity": 102, "channel": 0}, {"type": "note_off", "time": 81, "note": 58, "velocity": 102, "channel": 0}, {"type": "note_on", "time": 6, "note": 60, "velocity": 107, "channel": 0}, {"type": "note_off", "time": 71, "note": 60, "velocity": 107, "channel": 0}, {"type": "note_on", "time": 8, "note": 63, "velocity": 106, "channel": 0}, {"type": "note_off", "time": 108, "note": 63, "velocity": 106, "channel": 0}, {"type": "note_on", "time": 23, "note": 60, "velocity": 107, "channel": 0}, {"type": "note_off", "time": 89, "note": 60, "velocity": 107, "channel": 0}, {"type": "note_on", "time": 18, "note": 61, "velocity": 109, "channel": 0}, {"type": "note_off", "time": 79, "note": 61, "velocity": 109, "channel": 0}, {"type": "note_on", "time": 48, "note": 66, "velocity": 71, "channel": 0}, {"type": "note_off", "time": 33, "note": 66, "velocity": 71, "channel": 0}, {"type": "note_on", "time": 23, "note": 72, "velocity": 106, "channel": 0}, {"type": "note_off", "time": 70, "note": 72, "velocity": 106, "channel": 0}, {"type": "note_on", "time": 26, "note": 75, "velocity": 103, "channel": 0}, {"type": "note_off", "time": 71, "note": 75, "velocity": 103, "channel": 0}, {"type": "note_on", "time": 19, "note": 73, "velocity": 105, "channel": 0}, {"type": "note_off", "time": 55, "note": 73, "velocity": 105, "channel": 0}, {"type": "note_on", "time": 22, "note": 72, "velocity": 101, "channel": 0}, {"type": "note_off", "time": 94, "note": 72, "velocity": 101, "channel": 0}, {"type": "note_on", "time": 15, "note": 70, "velocity": 106, "channel": 0}, {"type": "note_off", "time": 68, "note": 70, "velocity": 106, "channel": 0}, {"type": "note_on", "time": 27, "note": 68, "velocity": 106, "channel": 0}, {"type": "note_off", "time": 71, "note": 68, "velocity": 106, "channel": 0}, {"type": "note_on", "time": 29, "note": 64, "velocity": 111, "channel": 0}, {"type": "note_off", "time": 75, "note": 64, "velocity": 111, "channel": 0}, {"type": "note_on", "time": 12, "note": 63, "velocity": 111, "channel": 0}, {"type": "note_off", "time": 84, "note": 63, "velocity": 111, "channel": 0}, {"type": "note_on", "time": 31, "note": 61, "velocity": 106, "channel": 0}, {"type": "note_off", "time": 56, "note": 61, "velocity": 106, "channel": 0}, {"type": "note_on", "time": 12, "note": 60, "velocity": 103, "channel": 0}, {"type": "note_off", "time": 71, "note": 60, "velocity": 103, "channel": 0}, {"type": "note_on", "time": 35, "note": 72, "velocity": 100, "channel": 0}, {"type": "note_off", "time": 157, "note": 72, "velocity": 100, "channel": 0}, {"type": "note_on", "time": 345, "note": 52, "velocity": 105, "channel": 0}, {"type": "note_off", "time": 43, "note": 52, "velocity": 105, "channel": 0}, {"type": "note_on", "time": 7, "note": 55, "velocity": 103, "channel": 0}, {"type": "note_off", "time": 33, "note": 55, "velocity": 103, "channel": 0}, {"type": "note_on", "time": 9, "note": 57, "velocity": 104, "channel": 0}, {"type": "note_off", "time": 35, "note": 57, "velocity": 104, "channel": 0}, {"type": "note_on", "time": 11, "note": 58, "velocity": 105, "channel": 0}, {"type": "note_off", "time": 34, "note": 58, "velocity": 105, "channel": 0}, {"type": "note_on", "time": 5, "note": 61, "velocity": 107, "channel": 0}, {"type": "note_off", "time": 57, "note": 61, "velocity": 107, "channel": 0}, {"type": "note_on", "time": 12, "note": 63, "velocity": 109, "channel": 0}, {"type": "note_off", "time": 45, "note": 63, "velocity": 109, "channel": 0}, {"type": "note_on", "time": 13, "note": 67, "velocity": 97, "channel": 0}, {"type": "note_off", "time": 37, "note": 67, "velocity": 97, "channel": 0}, {"type": "note_on", "time": 15, "note": 70, "velocity": 103, "channel": 0}, {"type": "note_off", "time": 25, "note": 70, "velocity": 103, "channel": 0}, {"type": "note_on", "time": 6, "note": 72, "velocity": 102, "channel": 0}, {"type": "note_off", "time": 17, "note": 72, "velocity": 102, "channel": 0}, {"type": "note_on", "time": 7, "note": 76, "velocity": 104, "channel": 0}, {"type": "note_off", "time": 43, "note": 76, "velocity": 104, "channel": 0}, {"type": "note_on", "time": 17, "note": 81, "velocity": 102, "channel": 0}, {"type": "note_off", "time": 356, "note": 81, "velocity": 102, "channel": 0}, {"type": "note_on", "time": 354, "note": 81, "velocity": 105, "channel": 0}, {"type": "note_off", "time": 175, "note": 81, "velocity": 105, "channel": 0}, {"type": "note_on", "time": 35, "note": 79, "velocity": 109, "channel": 0}, {"type": "note_off", "time": 77, "note": 79, "velocity": 109, "channel": 0}, {"type": "note_on", "time": 8, "note": 77, "velocity": 110, "channel": 0}, {"type": "note_off", "time": 79, "note": 77, "velocity": 110, "channel": 0}, {"type": "note_on", "time": 17, "note": 76, "velocity": 117, "channel": 0}, {"type": "note_off", "time": 80, "note": 76, "velocity": 117, "channel": 0}, {"type": "note_on", "time": 30, "note": 75, "velocity": 106, "channel": 0}, {"type": "note_off", "time": 49, "note": 75, "velocity": 106, "channel": 0}, {"type": "note_on", "time": 19, "note": 74, "velocity": 105, "channel": 0}, {"type": "note_off", "time": 65, "note": 74, "velocity": 105, "channel": 0}, {"type": "note_on", "time": 10, "note": 72, "velocity": 107, "channel": 0}, {"type": "note_off", "time": 53, "note": 72, "velocity": 107, "channel": 0}, {"type": "note_on", "time": 20, "note": 71, "velocity": 109, "channel": 0}, {"type": "note_off", "time": 66, "note": 71, "velocity": 109, "channel": 0}, {"type": "note_on", "time": 24, "note": 69, "velocity": 107, "channel": 0}, {"type": "note_off", "time": 77, "note": 69, "velocity": 107, "channel": 0}, {"type": "note_on", "time": 9, "note": 68, "velocity": 108, "channel": 0}, {"type": "note_off", "time": 82, "note": 68, "velocity": 108, "channel": 0}, {"type": "note_on", "time": 10, "note": 67, "velocity": 105, "channel": 0}, {"type": "note_off", "time": 74, "note": 67, "velocity": 105, "channel": 0}, {"type": "note_on", "time": 10, "note": 66, "velocity": 107, "channel": 0}, {"type": "note_off", "time": 115, "note": 66, "velocity": 107, "channel": 0}, {"type": "note_on", "time": 18, "note": 64, "velocity": 89, "channel": 0}, {"type": "note_off", "time": 64, "note": 64, "velocity": 89, "channel": 0}, {"type": "note_on", "time": 16, "note": 65, "velocity": 109, "channel": 0}, {"type": "note_off", "time": 80, "note": 65, "velocity": 109, "channel": 0}, {"type": "note_on", "time": 9, "note": 67, "velocity": 109, "channel": 0}, {"type": "note_off", "time": 78, "note": 67, "velocity": 109, "channel": 0}, {"type": "note_on", "time": 14, "note": 69, "velocity": 111, "channel": 0}, {"type": "note_off", "time": 78, "note": 69, "velocity": 111, "channel": 0}, {"type": "note_on", "time": 27, "note": 70, "velocity": 108, "channel": 0}, {"type": "note_off", "time": 65, "note": 70, "velocity": 108, "channel": 0}, {"type": "note_on", "time": 46, "note": 72, "velocity": 109, "channel": 0}, {"type": "note_off", "time": 153, "note": 72, "velocity": 109, "channel": 0}, {"type": "note_on", "time": 13, "note": 69, "velocity": 110, "channel": 0}, {"type": "note_off", "time": 90, "note": 69, "velocity": 110, "channel": 0}, {"type": "note_on", "time": 30, "note": 67, "velocity": 106, "channel": 0}, {"type": "note_off", "time": 76, "note": 67, "velocity": 106, "channel": 0}, {"type": "note_on", "time": 7, "note": 66, "velocity": 106, "channel": 0}, {"type": "note_off", "time": 89, "note": 66, "velocity": 106, "channel": 0}, {"type": "note_on", "time": 8, "note": 57, "velocity": 105, "channel": 0}, {"type": "note_off", "time": 64, "note": 57, "velocity": 105, "channel": 0}, {"type": "note_on", "time": 42, "note": 60, "velocity": 110, "channel": 0}, {"type": "note_off", "time": 70, "note": 60, "velocity": 110, "channel": 0}, {"type": "note_on", "time": 11, "note": 62, "velocity": 113, "channel": 0}, {"type": "note_off", "time": 52, "note": 62, "velocity": 113, "channel": 0}, {"type": "note_on", "time": 6, "note": 63, "velocity": 111, "channel": 0}, {"type": "note_off", "time": 43, "note": 63, "velocity": 111, "channel": 0}, {"type": "note_on", "time": 13, "note": 63, "velocity": 114, "channel": 0}, {"type": "note_off", "time": 73, "note": 63, "velocity": 114, "channel": 0}, {"type": "note_on", "time": 47, "note": 62, "velocity": 110, "channel": 0}, {"type": "note_off", "time": 135, "note": 62, "velocity": 110, "channel": 0}, {"type": "note_on", "time": 11, "note": 60, "velocity": 105, "channel": 0}, {"type": "note_off", "time": 65, "note": 60, "velocity": 105, "channel": 0}, {"type": "note_on", "time": 10, "note": 58, "velocity": 101, "channel": 0}, {"type": "note_off", "time": 98, "note": 58, "velocity": 101, "channel": 0}, {"type": "note_on", "time": 16, "note": 60, "velocity": 111, "channel": 0}, {"type": "note_off", "time": 82, "note": 60, "velocity": 111, "channel": 0}, {"type": "note_on", "time": 10, "note": 62, "velocity": 108, "channel": 0}, {"type": "note_off", "time": 99, "note": 62, "velocity": 108, "channel": 0}, {"type": "note_on", "time": 38, "note": 65, "velocity": 91, "channel": 0}, {"type": "note_off", "time": 38, "note": 65, "velocity": 91, "channel": 0}, {"type": "note_on", "time": 12, "note": 69, "velocity": 110, "channel": 0}, {"type": "note_off", "time": 82, "note": 69, "velocity": 110, "channel": 0}, {"type": "note_on", "time": 24, "note": 60, "velocity": 104, "channel": 0}, {"type": "note_off", "time": 72, "note": 60, "velocity": 104, "channel": 0}, {"type": "note_on", "time": 4, "note": 62, "velocity": 94, "channel": 0}, {"type": "note_off", "time": 70, "note": 62, "velocity": 94, "channel": 0}, {"type": "note_on", "time": 4, "note": 64, "velocity": 92, "channel": 0}, {"type": "note_off", "time": 37, "note": 64, "velocity": 92, "channel": 0}, {"type": "note_on", "time": 7, "note": 67, "velocity": 110, "channel": 0}, {"type": "note_off", "time": 75, "note": 67, "velocity": 110, "channel": 0}, {"type": "note_on", "time": 13, "note": 64, "velocity": 114, "channel": 0}, {"type": "note_off", "time": 85, "note": 64, "velocity": 114, "channel": 0}, {"type": "note_on", "time": 22, "note": 65, "velocity": 109, "channel": 0}, {"type": "note_off", "time": 58, "note": 65, "velocity": 109, "channel": 0}, {"type": "note_on", "time": 27, "note": 69, "velocity": 108, "channel": 0}, {"type": "note_off", "time": 69, "note": 69, "velocity": 108, "channel": 0}, {"type": "note_on", "time": 48, "note": 72, "velocity": 107, "channel": 0}, {"type": "note_off", "time": 60, "note": 72, "velocity": 107, "channel": 0}, {"type": "note_on", "time": 23, "note": 77, "velocity": 108, "channel": 0}, {"type": "note_off", "time": 510, "note": 77, "velocity": 108, "channel": 0}, {"type": "note_on", "time": 230, "note": 77, "velocity": 112, "channel": 0}, {"type": "note_off", "time": 239, "note": 77, "velocity": 112, "channel": 0}, {"type": "note_on", "time": 10, "note": 75, "velocity": 103, "channel": 0}, {"type": "note_off", "time": 38, "note": 75, "velocity": 103, "channel": 0}, {"type": "note_on", "time": 11, "note": 73, "velocity": 108, "channel": 0}, {"type": "note_off", "time": 40, "note": 73, "velocity": 108, "channel": 0}, {"type": "note_on", "time": 20, "note": 72, "velocity": 109, "channel": 0}, {"type": "note_off", "time": 218, "note": 72, "velocity": 109, "channel": 0}, {"type": "note_on", "time": 45, "note": 70, "velocity": 109, "channel": 0}, {"type": "note_off", "time": 94, "note": 70, "velocity": 109, "channel": 0}, {"type": "note_on", "time": 31, "note": 69, "velocity": 108, "channel": 0}, {"type": "note_off", "time": 186, "note": 69, "velocity": 108, "channel": 0}, {"type": "note_on", "time": 312, "note": 77, "velocity": 111, "channel": 0}, {"type": "note_off", "time": 178, "note": 77, "velocity": 111, "channel": 0}, {"type": "note_on", "time": 13, "note": 75, "velocity": 108, "channel": 0}, {"type": "note_off", "time": 32, "note": 75, "velocity": 108, "channel": 0}, {"type": "note_on", "time": 6, "note": 74, "velocity": 108, "channel": 0}, {"type": "note_off", "time": 48, "note": 74, "velocity": 108, "channel": 0}, {"type": "note_on", "time": 8, "note": 72, "velocity": 111, "channel": 0}, {"type": "note_off", "time": 116, "note": 72, "velocity": 111, "channel": 0}, {"type": "note_on", "time": 179, "note": 77, "velocity": 102, "channel": 0}, {"type": "note_off", "time": 146, "note": 77, "velocity": 102, "channel": 0}, {"type": "note_on", "time": 4, "note": 76, "velocity": 115, "channel": 0}, {"type": "note_off", "time": 47, "note": 76, "velocity": 115, "channel": 0}, {"type": "note_on", "time": 8, "note": 74, "velocity": 105, "channel": 0}, {"type": "note_off", "time": 46, "note": 74, "velocity": 105, "channel": 0}, {"type": "note_on", "time": 4, "note": 72, "velocity": 109, "channel": 0}, {"type": "note_off", "time": 36, "note": 72, "velocity": 109, "channel": 0}, {"type": "note_on", "time": 8, "note": 71, "velocity": 111, "channel": 0}, {"type": "note_off", "time": 79, "note": 71, "velocity": 111, "channel": 0}, {"type": "note_on", "time": 14, "note": 69, "velocity": 110, "channel": 0}, {"type": "note_off", "time": 59, "note": 69, "velocity": 110, "channel": 0}, {"type": "note_on", "time": 47, "note": 68, "velocity": 109, "channel": 0}, {"type": "note_off", "time": 78, "note": 68, "velocity": 109, "channel": 0}, {"type": "note_on", "time": 10, "note": 66, "velocity": 110, "channel": 0}, {"type": "note_off", "time": 74, "note": 66, "velocity": 110, "channel": 0}, {"type": "note_on", "time": 19, "note": 65, "velocity": 107, "channel": 0}, {"type": "note_off", "time": 99, "note": 65, "velocity": 107, "channel": 0}, {"type": "note_on", "time": 178, "note": 77, "velocity": 110, "channel": 0}, {"type": "note_off", "time": 226, "note": 77, "velocity": 110, "channel": 0}, {"type": "note_on", "time": 49, "note": 74, "velocity": 108, "channel": 0}, {"type": "note_off", "time": 93, "note": 74, "velocity": 108, "channel": 0}, {"type": "note_on", "time": 18, "note": 72, "velocity": 107, "channel": 0}, {"type": "note_off", "time": 71, "note": 72, "velocity": 107, "channel": 0}, {"type": "note_on", "time": 17, "note": 70, "velocity": 107, "channel": 0}, {"type": "note_off", "time": 76, "note": 70, "velocity": 107, "channel": 0}, {"type": "note_on", "time": 19, "note": 77, "velocity": 109, "channel": 0}, {"type": "note_off", "time": 267, "note": 77, "velocity": 109, "channel": 0}, {"type": "note_on", "time": 6, "note": 75, "velocity": 108, "channel": 0}, {"type": "note_off", "time": 54, "note": 75, "velocity": 108, "channel": 0}, {"type": "note_on", "time": 13, "note": 73, "velocity": 105, "channel": 0}, {"type": "note_off", "time": 73, "note": 73, "velocity": 105, "channel": 0}, {"type": "note_on", "time": 15, "note": 72, "velocity": 110, "channel": 0}, {"type": "note_off", "time": 110, "note": 72, "velocity": 110, "channel": 0}, {"type": "note_on", "time": 404, "note": 66, "velocity": 112, "channel": 0}, {"type": "note_off", "time": 83, "note": 66, "velocity": 112, "channel": 0}, {"type": "note_on", "time": 8, "note": 67, "velocity": 111, "channel": 0}, {"type": "note_off", "time": 77, "note": 67, "velocity": 111, "channel": 0}, {"type": "note_on", "time": 13, "note": 69, "velocity": 111, "channel": 0}, {"type": "note_off", "time": 82, "note": 69, "velocity": 111, "channel": 0}, {"type": "note_on", "time": 19, "note": 70, "velocity": 111, "channel": 0}, {"type": "note_off", "time": 88, "note": 70, "velocity": 111, "channel": 0}, {"type": "note_on", "time": 13, "note": 72, "velocity": 109, "channel": 0}, {"type": "note_off", "time": 73, "note": 72, "velocity": 109, "channel": 0}, {"type": "note_on", "time": 19, "note": 73, "velocity": 110, "channel": 0}, {"type": "note_off", "time": 92, "note": 73, "velocity": 110, "channel": 0}, {"type": "note_on", "time": 11, "note": 75, "velocity": 106, "channel": 0}, {"type": "note_off", "time": 77, "note": 75, "velocity": 106, "channel": 0}, {"type": "note_on", "time": 10, "note": 76, "velocity": 118, "channel": 0}, {"type": "note_off", "time": 85, "note": 76, "velocity": 118, "channel": 0}, {"type": "note_on", "time": 13, "note": 77, "velocity": 107, "channel": 0}, {"type": "note_off", "time": 85, "note": 77, "velocity": 107, "channel": 0}, {"type": "note_on", "time": 17, "note": 78, "velocity": 106, "channel": 0}, {"type": "note_off", "time": 174, "note": 78, "velocity": 106, "channel": 0}, {"type": "note_on", "time": 11, "note": 76, "velocity": 110, "channel": 0}, {"type": "note_off", "time": 72, "note": 76, "velocity": 110, "channel": 0}, {"type": "note_on", "time": 7, "note": 75, "velocity": 102, "channel": 0}, {"type": "note_off", "time": 210, "note": 75, "velocity": 102, "channel": 0}, {"type": "note_on", "time": 23, "note": 73, "velocity": 104, "channel": 0}, {"type": "note_off", "time": 95, "note": 73, "velocity": 104, "channel": 0}, {"type": "note_on", "time": 10, "note": 72, "velocity": 104, "channel": 0}, {"type": "note_off", "time": 289, "note": 72, "velocity": 104, "channel": 0}, {"type": "note_on", "time": 15, "note": 69, "velocity": 108, "channel": 0}, {"type": "note_off", "time": 100, "note": 69, "velocity": 108, "channel": 0}, {"type": "note_on", "time": 12, "note": 67, "velocity": 108, "channel": 0}, {"type": "note_off", "time": 104, "note": 67, "velocity": 108, "channel": 0}, {"type": "note_on", "time": 13, "note": 65, "velocity": 106, "channel": 0}, {"type": "note_off", "time": 112, "note": 65, "velocity": 106, "channel": 0}, {"type": "note_on", "time": 22, "note": 64, "velocity": 103, "channel": 0}, {"type": "note_off", "time": 229, "note": 64, "velocity": 103, "channel": 0}, {"type": "note_on", "time": 131, "note": 62, "velocity": 113, "channel": 0}, {"type": "note_off", "time": 100, "note": 62, "velocity": 113, "channel": 0}, {"type": "note_on", "time": 6, "note": 61, "velocity": 111, "channel": 0}, {"type": "note_off", "time": 74, "note": 61, "velocity": 111, "channel": 0}, {"type": "note_on", "time": 17, "note": 57, "velocity": 101, "channel": 0}, {"type": "note_off", "time": 62, "note": 57, "velocity": 101, "channel": 0}, {"type": "note_on", "time": 12, "note": 59, "velocity": 97, "channel": 0}, {"type": "note_off", "time": 49, "note": 59, "velocity": 97, "channel": 0}, {"type": "note_on", "time": 9, "note": 61, "velocity": 94, "channel": 0}, {"type": "note_off", "time": 52, "note": 61, "velocity": 94, "channel": 0}, {"type": "note_on", "time": 6, "note": 64, "velocity": 113, "channel": 0}, {"type": "note_off", "time": 78, "note": 64, "velocity": 113, "channel": 0}, {"type": "note_on", "time": 9, "note": 62, "velocity": 112, "channel": 0}, {"type": "note_off", "time": 83, "note": 62, "velocity": 112, "channel": 0}, {"type": "note_on", "time": 15, "note": 64, "velocity": 111, "channel": 0}, {"type": "note_off", "time": 75, "note": 64, "velocity": 111, "channel": 0}, {"type": "note_on", "time": 11, "note": 65, "velocity": 109, "channel": 0}, {"type": "note_off", "time": 88, "note": 65, "velocity": 109, "channel": 0}, {"type": "note_on", "time": 30, "note": 67, "velocity": 108, "channel": 0}, {"type": "note_off", "time": 70, "note": 67, "velocity": 108, "channel": 0}, {"type": "note_on", "time": 9, "note": 69, "velocity": 109, "channel": 0}, {"type": "note_off", "time": 90, "note": 69, "velocity": 109, "channel": 0}, {"type": "note_on", "time": 21, "note": 70, "velocity": 110, "channel": 0}, {"type": "note_off", "time": 75, "note": 70, "velocity": 110, "channel": 0}, {"type": "note_on", "time": 13, "note": 72, "velocity": 106, "channel": 0}, {"type": "note_off", "time": 80, "note": 72, "velocity": 106, "channel": 0}, {"type": "note_on", "time": 16, "note": 73, "velocity": 104, "channel": 0}, {"type": "note_off", "time": 56, "note": 73, "velocity": 104, "channel": 0}, {"type": "note_on", "time": 6, "note": 71, "velocity": 108, "channel": 0}, {"type": "note_off", "time": 91, "note": 71, "velocity": 108, "channel": 0}, {"type": "note_on", "time": 12, "note": 69, "velocity": 107, "channel": 0}, {"type": "note_off", "time": 88, "note": 69, "velocity": 107, "channel": 0}, {"type": "note_on", "time": 13, "note": 68, "velocity": 108, "channel": 0}, {"type": "note_off", "time": 86, "note": 68, "velocity": 108, "channel": 0}, {"type": "note_on", "time": 14, "note": 67, "velocity": 107, "channel": 0}, {"type": "note_off", "time": 77, "note": 67, "velocity": 107, "channel": 0}, {"type": "note_on", "time": 12, "note": 66, "velocity": 108, "channel": 0}, {"type": "note_off", "time": 82, "note": 66, "velocity": 108, "channel": 0}, {"type": "note_on", "time": 47, "note": 64, "velocity": 94, "channel": 0}, {"type": "note_off", "time": 49, "note": 64, "velocity": 94, "channel": 0}, {"type": "note_on", "time": 8, "note": 65, "velocity": 108, "channel": 0}, {"type": "note_off", "time": 85, "note": 65, "velocity": 108, "channel": 0}, {"type": "note_on", "time": 11, "note": 63, "velocity": 112, "channel": 0}, {"type": "note_off", "time": 90, "note": 63, "velocity": 112, "channel": 0}, {"type": "note_on", "time": 16, "note": 62, "velocity": 111, "channel": 0}, {"type": "note_off", "time": 75, "note": 62, "velocity": 111, "channel": 0}, {"type": "note_on", "time": 14, "note": 65, "velocity": 107, "channel": 0}, {"type": "note_off", "time": 75, "note": 65, "velocity": 107, "channel": 0}, {"type": "note_on", "time": 12, "note": 67, "velocity": 106, "channel": 0}, {"type": "note_off", "time": 104, "note": 67, "velocity": 106, "channel": 0}, {"type": "note_on", "time": 10, "note": 69, "velocity": 95, "channel": 0}, {"type": "note_off", "time": 51, "note": 69, "velocity": 95, "channel": 0}, {"type": "note_on", "time": 36, "note": 72, "velocity": 110, "channel": 0}, {"type": "note_off", "time": 74, "note": 72, "velocity": 110, "channel": 0}, {"type": "note_on", "time": 23, "note": 70, "velocity": 110, "channel": 0}, {"type": "note_off", "time": 55, "note": 70, "velocity": 110, "channel": 0}, {"type": "note_on", "time": 311, "note": 69, "velocity": 104, "channel": 0}, {"type": "note_off", "time": 26, "note": 69, "velocity": 104, "channel": 0}, {"type": "note_on", "time": 4, "note": 67, "velocity": 111, "channel": 0}, {"type": "note_off", "time": 53, "note": 67, "velocity": 111, "channel": 0}, {"type": "note_on", "time": 11, "note": 66, "velocity": 110, "channel": 0}, {"type": "note_off", "time": 80, "note": 66, "velocity": 110, "channel": 0}, {"type": "note_on", "time": 14, "note": 57, "velocity": 103, "channel": 0}, {"type": "note_off", "time": 72, "note": 57, "velocity": 103, "channel": 0}, {"type": "note_on", "time": 13, "note": 58, "velocity": 105, "channel": 0}, {"type": "note_off", "time": 90, "note": 58, "velocity": 105, "channel": 0}, {"type": "note_on", "time": 41, "note": 60, "velocity": 109, "channel": 0}, {"type": "note_off", "time": 82, "note": 60, "velocity": 109, "channel": 0}, {"type": "note_on", "time": 7, "note": 62, "velocity": 109, "channel": 0}, {"type": "note_off", "time": 75, "note": 62, "velocity": 109, "channel": 0}, {"type": "note_on", "time": 12, "note": 63, "velocity": 111, "channel": 0}, {"type": "note_off", "time": 69, "note": 63, "velocity": 111, "channel": 0}, {"type": "note_on", "time": 16, "note": 62, "velocity": 105, "channel": 0}, {"type": "note_off", "time": 257, "note": 62, "velocity": 105, "channel": 0}, {"type": "note_on", "time": 9, "note": 60, "velocity": 104, "channel": 0}, {"type": "note_off", "time": 64, "note": 60, "velocity": 104, "channel": 0}, {"type": "note_on", "time": 6, "note": 58, "velocity": 100, "channel": 0}, {"type": "note_off", "time": 42, "note": 58, "velocity": 100, "channel": 0}, {"type": "note_on", "time": 6, "note": 60, "velocity": 104, "channel": 0}, {"type": "note_off", "time": 39, "note": 60, "velocity": 104, "channel": 0}, {"type": "note_on", "time": 6, "note": 62, "velocity": 104, "channel": 0}, {"type": "note_off", "time": 66, "note": 62, "velocity": 104, "channel": 0}, {"type": "note_on", "time": 11, "note": 69, "velocity": 109, "channel": 0}, {"type": "note_off", "time": 56, "note": 69, "velocity": 109, "channel": 0}, {"type": "note_on", "time": 5, "note": 67, "velocity": 105, "channel": 0}, {"type": "note_off", "time": 41, "note": 67, "velocity": 105, "channel": 0}, {"type": "note_on", "time": 6, "note": 64, "velocity": 110, "channel": 0}, {"type": "note_off", "time": 49, "note": 64, "velocity": 110, "channel": 0}, {"type": "note_on", "time": 6, "note": 60, "velocity": 110, "channel": 0}, {"type": "note_off", "time": 44, "note": 60, "velocity": 110, "channel": 0}, {"type": "note_on", "time": 2, "note": 65, "velocity": 104, "channel": 0}, {"type": "note_off", "time": 169, "note": 65, "velocity": 104, "channel": 0}, {"type": "note_on", "time": 383, "note": 49, "velocity": 127, "channel": 0}, {"type": "note_off", "time": 28, "note": 49, "velocity": 127, "channel": 0}, {"type": "note_on", "time": 5, "note": 50, "velocity": 121, "channel": 0}, {"type": "note_off", "time": 29, "note": 50, "velocity": 121, "channel": 0}, {"type": "note_on", "time": 2, "note": 53, "velocity": 112, "channel": 0}, {"type": "note_off", "time": 45, "note": 53, "velocity": 112, "channel": 0}, {"type": "note_on", "time": 15, "note": 52, "velocity": 111, "channel": 0}, {"type": "note_off", "time": 43, "note": 52, "velocity": 111, "channel": 0}, {"type": "note_on", "time": 18, "note": 51, "velocity": 110, "channel": 0}, {"type": "note_off", "time": 42, "note": 51, "velocity": 110, "channel": 0}, {"type": "note_on", "time": 4, "note": 53, "velocity": 101, "channel": 0}, {"type": "note_off", "time": 32, "note": 53, "velocity": 101, "channel": 0}, {"type": "note_on", "time": 4, "note": 55, "velocity": 101, "channel": 0}, {"type": "note_off", "time": 49, "note": 55, "velocity": 101, "channel": 0}, {"type": "note_on", "time": 6, "note": 58, "velocity": 104, "channel": 0}, {"type": "note_off", "time": 37, "note": 58, "velocity": 104, "channel": 0}, {"type": "note_on", "time": 4, "note": 62, "velocity": 111, "channel": 0}, {"type": "note_off", "time": 37, "note": 62, "velocity": 111, "channel": 0}, {"type": "note_on", "time": 2, "note": 60, "velocity": 107, "channel": 0}, {"type": "note_off", "time": 34, "note": 60, "velocity": 107, "channel": 0}, {"type": "note_on", "time": 4, "note": 58, "velocity": 106, "channel": 0}, {"type": "note_off", "time": 39, "note": 58, "velocity": 106, "channel": 0}, {"type": "note_on", "time": 6, "note": 55, "velocity": 106, "channel": 0}, {"type": "note_off", "time": 37, "note": 55, "velocity": 106, "channel": 0}, {"type": "note_on", "time": 8, "note": 57, "velocity": 106, "channel": 0}, {"type": "note_off", "time": 38, "note": 57, "velocity": 106, "channel": 0}, {"type": "note_on", "time": 10, "note": 60, "velocity": 106, "channel": 0}, {"type": "note_off", "time": 41, "note": 60, "velocity": 106, "channel": 0}, {"type": "note_on", "time": 8, "note": 63, "velocity": 110, "channel": 0}, {"type": "note_off", "time": 46, "note": 63, "velocity": 110, "channel": 0}, {"type": "note_on", "time": 11, "note": 60, "velocity": 102, "channel": 0}, {"type": "note_off", "time": 30, "note": 60, "velocity": 102, "channel": 0}, {"type": "note_on", "time": 14, "note": 67, "velocity": 109, "channel": 0}, {"type": "note_off", "time": 47, "note": 67, "velocity": 109, "channel": 0}, {"type": "note_on", "time": 14, "note": 63, "velocity": 109, "channel": 0}, {"type": "note_off", "time": 28, "note": 63, "velocity": 109, "channel": 0}, {"type": "note_on", "time": 15, "note": 62, "velocity": 106, "channel": 0}, {"type": "note_off", "time": 26, "note": 62, "velocity": 106, "channel": 0}, {"type": "note_on", "time": 3, "note": 60, "velocity": 97, "channel": 0}, {"type": "note_off", "time": 23, "note": 60, "velocity": 97, "channel": 0}, {"type": "note_on", "time": 3, "note": 65, "velocity": 107, "channel": 0}, {"type": "note_off", "time": 47, "note": 65, "velocity": 107, "channel": 0}, {"type": "note_on", "time": 7, "note": 62, "velocity": 104, "channel": 0}, {"type": "note_off", "time": 35, "note": 62, "velocity": 104, "channel": 0}, {"type": "note_on", "time": 7, "note": 64, "velocity": 111, "channel": 0}, {"type": "note_off", "time": 55, "note": 64, "velocity": 111, "channel": 0}, {"type": "note_on", "time": 3, "note": 61, "velocity": 103, "channel": 0}, {"type": "note_off", "time": 46, "note": 61, "velocity": 103, "channel": 0}, {"type": "note_on", "time": 7, "note": 57, "velocity": 102, "channel": 0}, {"type": "note_off", "time": 36, "note": 57, "velocity": 102, "channel": 0}, {"type": "note_on", "time": 0, "note": 54, "velocity": 98, "channel": 0}, {"type": "note_off", "time": 38, "note": 54, "velocity": 98, "channel": 0}, {"type": "note_on", "time": 2, "note": 63, "velocity": 111, "channel": 0}, {"type": "note_off", "time": 51, "note": 63, "velocity": 111, "channel": 0}, {"type": "note_on", "time": 8, "note": 61, "velocity": 101, "channel": 0}, {"type": "note_off", "time": 32, "note": 61, "velocity": 101, "channel": 0}, {"type": "note_on", "time": 4, "note": 59, "velocity": 103, "channel": 0}, {"type": "note_off", "time": 33, "note": 59, "velocity": 103, "channel": 0}, {"type": "note_on", "time": 8, "note": 58, "velocity": 105, "channel": 0}, {"type": "note_off", "time": 34, "note": 58, "velocity": 105, "channel": 0}, {"type": "note_on", "time": 15, "note": 57, "velocity": 104, "channel": 0}, {"type": "note_off", "time": 31, "note": 57, "velocity": 104, "channel": 0}, {"type": "note_on", "time": 11, "note": 59, "velocity": 104, "channel": 0}, {"type": "note_off", "time": 32, "note": 59, "velocity": 104, "channel": 0}, {"type": "note_on", "time": 8, "note": 61, "velocity": 109, "channel": 0}, {"type": "note_off", "time": 63, "note": 61, "velocity": 109, "channel": 0}, {"type": "note_on", "time": 8, "note": 63, "velocity": 106, "channel": 0}, {"type": "note_off", "time": 41, "note": 63, "velocity": 106, "channel": 0}, {"type": "note_on", "time": 9, "note": 66, "velocity": 100, "channel": 0}, {"type": "note_off", "time": 36, "note": 66, "velocity": 100, "channel": 0}, {"type": "note_on", "time": 11, "note": 69, "velocity": 100, "channel": 0}, {"type": "note_off", "time": 31, "note": 69, "velocity": 100, "channel": 0}, {"type": "note_on", "time": 6, "note": 73, "velocity": 110, "channel": 0}, {"type": "note_off", "time": 260, "note": 73, "velocity": 110, "channel": 0}, {"type": "note_on", "time": 4, "note": 71, "velocity": 108, "channel": 0}, {"type": "note_off", "time": 29, "note": 71, "velocity": 108, "channel": 0}, {"type": "note_on", "time": 4, "note": 69, "velocity": 106, "channel": 0}, {"type": "note_off", "time": 29, "note": 69, "velocity": 106, "channel": 0}, {"type": "note_on", "time": 4, "note": 68, "velocity": 108, "channel": 0}, {"type": "note_off", "time": 56, "note": 68, "velocity": 108, "channel": 0}, {"type": "note_on", "time": 0, "note": 66, "velocity": 104, "channel": 0}, {"type": "note_off", "time": 57, "note": 66, "velocity": 104, "channel": 0}, {"type": "note_on", "time": 6, "note": 65, "velocity": 105, "channel": 0}, {"type": "note_off", "time": 32, "note": 65, "velocity": 105, "channel": 0}, {"type": "note_on", "time": 3, "note": 64, "velocity": 103, "channel": 0}, {"type": "note_off", "time": 48, "note": 64, "velocity": 103, "channel": 0}, {"type": "note_on", "time": 4, "note": 63, "velocity": 107, "channel": 0}, {"type": "note_off", "time": 29, "note": 63, "velocity": 107, "channel": 0}, {"type": "note_on", "time": 5, "note": 65, "velocity": 102, "channel": 0}, {"type": "note_off", "time": 41, "note": 65, "velocity": 102, "channel": 0}, {"type": "note_on", "time": 10, "note": 60, "velocity": 105, "channel": 0}, {"type": "note_off", "time": 38, "note": 60, "velocity": 105, "channel": 0}, {"type": "note_on", "time": 5, "note": 63, "velocity": 111, "channel": 0}, {"type": "note_off", "time": 47, "note": 63, "velocity": 111, "channel": 0}, {"type": "note_on", "time": 3, "note": 62, "velocity": 107, "channel": 0}, {"type": "note_off", "time": 36, "note": 62, "velocity": 107, "channel": 0}, {"type": "note_on", "time": 5, "note": 60, "velocity": 104, "channel": 0}, {"type": "note_off", "time": 42, "note": 60, "velocity": 104, "channel": 0}, {"type": "note_on", "time": 3, "note": 58, "velocity": 103, "channel": 0}, {"type": "note_off", "time": 43, "note": 58, "velocity": 103, "channel": 0}, {"type": "note_on", "time": 5, "note": 60, "velocity": 102, "channel": 0}, {"type": "note_off", "time": 29, "note": 60, "velocity": 102, "channel": 0}, {"type": "note_on", "time": 6, "note": 62, "velocity": 103, "channel": 0}, {"type": "note_off", "time": 33, "note": 62, "velocity": 103, "channel": 0}, {"type": "note_on", "time": 8, "note": 65, "velocity": 99, "channel": 0}, {"type": "note_off", "time": 24, "note": 65, "velocity": 99, "channel": 0}, {"type": "note_on", "time": 6, "note": 70, "velocity": 110, "channel": 0}, {"type": "note_off", "time": 55, "note": 70, "velocity": 110, "channel": 0}, {"type": "note_on", "time": 6, "note": 69, "velocity": 108, "channel": 0}, {"type": "note_off", "time": 33, "note": 69, "velocity": 108, "channel": 0}, {"type": "note_on", "time": 3, "note": 67, "velocity": 107, "channel": 0}, {"type": "note_off", "time": 39, "note": 67, "velocity": 107, "channel": 0}, {"type": "note_on", "time": 9, "note": 66, "velocity": 108, "channel": 0}, {"type": "note_off", "time": 37, "note": 66, "velocity": 108, "channel": 0}, {"type": "note_on", "time": 8, "note": 65, "velocity": 106, "channel": 0}, {"type": "note_off", "time": 30, "note": 65, "velocity": 106, "channel": 0}, {"type": "note_on", "time": 3, "note": 63, "velocity": 113, "channel": 0}, {"type": "note_off", "time": 40, "note": 63, "velocity": 113, "channel": 0}, {"type": "note_on", "time": 6, "note": 62, "velocity": 110, "channel": 0}, {"type": "note_off", "time": 34, "note": 62, "velocity": 110, "channel": 0}, {"type": "note_on", "time": 1, "note": 60, "velocity": 107, "channel": 0}, {"type": "note_off", "time": 23, "note": 60, "velocity": 107, "channel": 0}, {"type": "note_on", "time": 1, "note": 58, "velocity": 105, "channel": 0}, {"type": "note_off", "time": 31, "note": 58, "velocity": 105, "channel": 0}, {"type": "note_on", "time": 6, "note": 57, "velocity": 103, "channel": 0}, {"type": "note_off", "time": 20, "note": 57, "velocity": 103, "channel": 0}, {"type": "note_on", "time": 9, "note": 55, "velocity": 105, "channel": 0}, {"type": "note_off", "time": 31, "note": 55, "velocity": 105, "channel": 0}, {"type": "note_on", "time": 8, "note": 54, "velocity": 102, "channel": 0}, {"type": "note_off", "time": 34, "note": 54, "velocity": 102, "channel": 0}, {"type": "note_on", "time": 9, "note": 53, "velocity": 103, "channel": 0}, {"type": "note_off", "time": 38, "note": 53, "velocity": 103, "channel": 0}, {"type": "note_on", "time": 7, "note": 51, "velocity": 102, "channel": 0}, {"type": "note_off", "time": 37, "note": 51, "velocity": 102, "channel": 0}, {"type": "note_on", "time": 6, "note": 50, "velocity": 103, "channel": 0}, {"type": "note_off", "time": 38, "note": 50, "velocity": 103, "channel": 0}, {"type": "note_on", "time": 5, "note": 49, "velocity": 102, "channel": 0}, {"type": "note_off", "time": 35, "note": 49, "velocity": 102, "channel": 0}, {"type": "note_on", "time": 1, "note": 48, "velocity": 104, "channel": 0}, {"type": "note_off", "time": 31, "note": 48, "velocity": 104, "channel": 0}, {"type": "note_on", "time": 7, "note": 47, "velocity": 107, "channel": 0}, {"type": "note_off", "time": 38, "note": 47, "velocity": 107, "channel": 0}, {"type": "note_on", "time": 6, "note": 46, "velocity": 105, "channel": 0}, {"type": "note_off", "time": 41, "note": 46, "velocity": 105, "channel": 0}, {"type": "note_on", "time": 9, "note": 45, "velocity": 107, "channel": 0}, {"type": "note_off", "time": 52, "note": 45, "velocity": 107, "channel": 0}, {"type": "note_on", "time": 8, "note": 44, "velocity": 112, "channel": 0}, {"type": "note_off", "time": 143, "note": 44, "velocity": 112, "channel": 0}, {"type": "note_on", "time": 384, "note": 69, "velocity": 112, "channel": 0}, {"type": "note_off", "time": 75, "note": 69, "velocity": 112, "channel": 0}, {"type": "note_on", "time": 7, "note": 73, "velocity": 108, "channel": 0}, {"type": "note_off", "time": 128, "note": 73, "velocity": 108, "channel": 0}, {"type": "note_on", "time": 11, "note": 71, "velocity": 111, "channel": 0}, {"type": "note_off", "time": 32, "note": 71, "velocity": 111, "channel": 0}, {"type": "note_on", "time": 8, "note": 69, "velocity": 108, "channel": 0}, {"type": "note_off", "time": 29, "note": 69, "velocity": 108, "channel": 0}, {"type": "note_on", "time": 5, "note": 68, "velocity": 110, "channel": 0}, {"type": "note_off", "time": 220, "note": 68, "velocity": 110, "channel": 0}, {"type": "note_on", "time": 10, "note": 66, "velocity": 109, "channel": 0}, {"type": "note_off", "time": 98, "note": 66, "velocity": 109, "channel": 0}, {"type": "note_on", "time": 19, "note": 65, "velocity": 108, "channel": 0}, {"type": "note_off", "time": 84, "note": 65, "velocity": 108, "channel": 0}, {"type": "note_on", "time": 8, "note": 60, "velocity": 107, "channel": 0}, {"type": "note_off", "time": 60, "note": 60, "velocity": 107, "channel": 0}, {"type": "note_on", "time": 6, "note": 63, "velocity": 111, "channel": 0}, {"type": "note_off", "time": 107, "note": 63, "velocity": 111, "channel": 0}, {"type": "note_on", "time": 11, "note": 62, "velocity": 110, "channel": 0}, {"type": "note_off", "time": 68, "note": 62, "velocity": 110, "channel": 0}, {"type": "note_on", "time": 19, "note": 61, "velocity": 110, "channel": 0}, {"type": "note_off", "time": 90, "note": 61, "velocity": 110, "channel": 0}, {"type": "note_on", "time": 12, "note": 63, "velocity": 99, "channel": 0}, {"type": "note_off", "time": 80, "note": 63, "velocity": 99, "channel": 0}, {"type": "note_on", "time": 2, "note": 65, "velocity": 110, "channel": 0}, {"type": "note_off", "time": 88, "note": 65, "velocity": 110, "channel": 0}, {"type": "note_on", "time": 12, "note": 68, "velocity": 109, "channel": 0}, {"type": "note_off", "time": 83, "note": 68, "velocity": 109, "channel": 0}, {"type": "note_on", "time": 10, "note": 72, "velocity": 110, "channel": 0}, {"type": "note_off", "time": 92, "note": 72, "velocity": 110, "channel": 0}, {"type": "note_on", "time": 12, "note": 71, "velocity": 111, "channel": 0}, {"type": "note_off", "time": 70, "note": 71, "velocity": 111, "channel": 0}, {"type": "note_on", "time": 35, "note": 70, "velocity": 111, "channel": 0}, {"type": "note_off", "time": 77, "note": 70, "velocity": 111, "channel": 0}, {"type": "note_on", "time": 8, "note": 69, "velocity": 108, "channel": 0}, {"type": "note_off", "time": 86, "note": 69, "velocity": 108, "channel": 0}, {"type": "note_on", "time": 13, "note": 68, "velocity": 108, "channel": 0}, {"type": "note_off", "time": 82, "note": 68, "velocity": 108, "channel": 0}, {"type": "note_on", "time": 9, "note": 64, "velocity": 110, "channel": 0}, {"type": "note_off", "time": 83, "note": 64, "velocity": 110, "channel": 0}, {"type": "note_on", "time": 31, "note": 61, "velocity": 110, "channel": 0}, {"type": "note_off", "time": 86, "note": 61, "velocity": 110, "channel": 0}, {"type": "note_on", "time": 3, "note": 59, "velocity": 86, "channel": 0}, {"type": "note_off", "time": 54, "note": 59, "velocity": 86, "channel": 0}, {"type": "note_on", "time": 16, "note": 60, "velocity": 106, "channel": 0}, {"type": "note_off", "time": 141, "note": 60, "velocity": 106, "channel": 0}, {"type": "note_on", "time": 197, "note": 65, "velocity": 108, "channel": 0}, {"type": "note_off", "time": 155, "note": 65, "velocity": 108, "channel": 0}, {"type": "note_on", "time": 240, "note": 61, "velocity": 113, "channel": 0}, {"type": "note_off", "time": 150, "note": 61, "velocity": 113, "channel": 0}, {"type": "note_on", "time": 233, "note": 57, "velocity": 111, "channel": 0}, {"type": "note_off", "time": 74, "note": 57, "velocity": 111, "channel": 0}, {"type": "note_on", "time": 142, "note": 69, "velocity": 114, "channel": 0}, {"type": "note_off", "time": 83, "note": 69, "velocity": 114, "channel": 0}, {"type": "note_on", "time": 116, "note": 67, "velocity": 114, "channel": 0}, {"type": "note_off", "time": 64, "note": 67, "velocity": 114, "channel": 0}, {"type": "note_on", "time": 7, "note": 65, "velocity": 114, "channel": 0}, {"type": "note_off", "time": 55, "note": 65, "velocity": 114, "channel": 0}, {"type": "note_on", "time": 290, "note": 57, "velocity": 111, "channel": 0}, {"type": "note_off", "time": 56, "note": 57, "velocity": 111, "channel": 0}, {"type": "note_on", "time": 9, "note": 62, "velocity": 113, "channel": 0}, {"type": "note_off", "time": 127, "note": 62, "velocity": 113, "channel": 0}, {"type": "note_on", "time": 180, "note": 65, "velocity": 115, "channel": 0}, {"type": "note_off", "time": 88, "note": 65, "velocity": 115, "channel": 0}, {"type": "note_on", "time": 13, "note": 63, "velocity": 118, "channel": 0}, {"type": "note_off", "time": 75, "note": 63, "velocity": 118, "channel": 0}, {"type": "note_on", "time": 20, "note": 54, "velocity": 106, "channel": 0}, {"type": "note_off", "time": 100, "note": 54, "velocity": 106, "channel": 0}, {"type": "note_on", "time": 87, "note": 62, "velocity": 102, "channel": 0}, {"type": "note_off", "time": 69, "note": 62, "velocity": 102, "channel": 0}, {"type": "note_on", "time": 56, "note": 65, "velocity": 111, "channel": 0}, {"type": "note_off", "time": 242, "note": 65, "velocity": 111, "channel": 0}, {"type": "note_on", "time": 18, "note": 63, "velocity": 117, "channel": 0}, {"type": "note_off", "time": 85, "note": 63, "velocity": 117, "channel": 0}, {"type": "note_on", "time": 16, "note": 62, "velocity": 114, "channel": 0}, {"type": "note_off", "time": 69, "note": 62, "velocity": 114, "channel": 0}, {"type": "note_on", "time": 19, "note": 53, "velocity": 89, "channel": 0}, {"type": "note_off", "time": 34, "note": 53, "velocity": 89, "channel": 0}, {"type": "note_on", "time": 7, "note": 54, "velocity": 98, "channel": 0}, {"type": "note_off", "time": 42, "note": 54, "velocity": 98, "channel": 0}, {"type": "note_on", "time": 10, "note": 55, "velocity": 99, "channel": 0}, {"type": "note_off", "time": 86, "note": 55, "velocity": 99, "channel": 0}, {"type": "note_on", "time": 6, "note": 57, "velocity": 112, "channel": 0}, {"type": "note_off", "time": 105, "note": 57, "velocity": 112, "channel": 0}, {"type": "note_on", "time": 16, "note": 58, "velocity": 114, "channel": 0}, {"type": "note_off", "time": 53, "note": 58, "velocity": 114, "channel": 0}, {"type": "note_on", "time": 48, "note": 60, "velocity": 114, "channel": 0}, {"type": "note_off", "time": 75, "note": 60, "velocity": 114, "channel": 0}, {"type": "note_on", "time": 27, "note": 62, "velocity": 116, "channel": 0}, {"type": "note_off", "time": 85, "note": 62, "velocity": 116, "channel": 0}, {"type": "note_on", "time": 16, "note": 65, "velocity": 113, "channel": 0}, {"type": "note_off", "time": 89, "note": 65, "velocity": 113, "channel": 0}, {"type": "note_on", "time": 7, "note": 67, "velocity": 111, "channel": 0}, {"type": "note_off", "time": 80, "note": 67, "velocity": 111, "channel": 0}, {"type": "note_on", "time": 20, "note": 69, "velocity": 114, "channel": 0}, {"type": "note_off", "time": 80, "note": 69, "velocity": 114, "channel": 0}, {"type": "note_on", "time": 18, "note": 70, "velocity": 115, "channel": 0}, {"type": "note_off", "time": 88, "note": 70, "velocity": 115, "channel": 0}, {"type": "note_on", "time": 7, "note": 72, "velocity": 111, "channel": 0}, {"type": "note_off", "time": 72, "note": 72, "velocity": 111, "channel": 0}, {"type": "note_on", "time": 37, "note": 69, "velocity": 113, "channel": 0}, {"type": "note_off", "time": 78, "note": 69, "velocity": 113, "channel": 0}, {"type": "note_on", "time": 13, "note": 67, "velocity": 109, "channel": 0}, {"type": "note_off", "time": 88, "note": 67, "velocity": 109, "channel": 0}, {"type": "note_on", "time": 9, "note": 66, "velocity": 110, "channel": 0}, {"type": "note_off", "time": 99, "note": 66, "velocity": 110, "channel": 0}, {"type": "note_on", "time": 24, "note": 62, "velocity": 97, "channel": 0}, {"type": "note_off", "time": 65, "note": 62, "velocity": 97, "channel": 0}, {"type": "note_on", "time": 21, "note": 65, "velocity": 112, "channel": 0}, {"type": "note_off", "time": 107, "note": 65, "velocity": 112, "channel": 0}, {"type": "note_on", "time": 8, "note": 62, "velocity": 94, "channel": 0}, {"type": "note_off", "time": 40, "note": 62, "velocity": 94, "channel": 0}, {"type": "note_on", "time": 15, "note": 65, "velocity": 112, "channel": 0}, {"type": "note_off", "time": 118, "note": 65, "velocity": 112, "channel": 0}, {"type": "note_on", "time": 72, "note": 64, "velocity": 118, "channel": 0}, {"type": "note_off", "time": 113, "note": 64, "velocity": 118, "channel": 0}, {"type": "note_on", "time": 24, "note": 60, "velocity": 98, "channel": 0}, {"type": "note_off", "time": 49, "note": 60, "velocity": 98, "channel": 0}, {"type": "note_on", "time": 28, "note": 62, "velocity": 115, "channel": 0}, {"type": "note_off", "time": 84, "note": 62, "velocity": 115, "channel": 0}, {"type": "note_on", "time": 34, "note": 65, "velocity": 105, "channel": 0}, {"type": "note_off", "time": 176, "note": 65, "velocity": 105, "channel": 0}, {"type": "note_on", "time": 421, "note": 69, "velocity": 113, "channel": 0}, {"type": "note_off", "time": 42, "note": 69, "velocity": 113, "channel": 0}, {"type": "note_on", "time": 8, "note": 72, "velocity": 115, "channel": 0}, {"type": "note_off", "time": 72, "note": 72, "velocity": 115, "channel": 0}, {"type": "note_on", "time": 4, "note": 74, "velocity": 110, "channel": 0}, {"type": "note_off", "time": 60, "note": 74, "velocity": 110, "channel": 0}, {"type": "note_on", "time": 24, "note": 77, "velocity": 113, "channel": 0}, {"type": "note_off", "time": 531, "note": 77, "velocity": 113, "channel": 0}, {"type": "note_on", "time": 180, "note": 76, "velocity": 122, "channel": 0}, {"type": "note_off", "time": 106, "note": 76, "velocity": 122, "channel": 0}, {"type": "note_on", "time": 90, "note": 69, "velocity": 112, "channel": 0}, {"type": "note_off", "time": 70, "note": 69, "velocity": 112, "channel": 0}, {"type": "note_on", "time": 10, "note": 70, "velocity": 114, "channel": 0}, {"type": "note_off", "time": 85, "note": 70, "velocity": 114, "channel": 0}, {"type": "note_on", "time": 16, "note": 72, "velocity": 112, "channel": 0}, {"type": "note_off", "time": 75, "note": 72, "velocity": 112, "channel": 0}, {"type": "note_on", "time": 23, "note": 73, "velocity": 111, "channel": 0}, {"type": "note_off", "time": 74, "note": 73, "velocity": 111, "channel": 0}, {"type": "note_on", "time": 22, "note": 75, "velocity": 112, "channel": 0}, {"type": "note_off", "time": 64, "note": 75, "velocity": 112, "channel": 0}, {"type": "note_on", "time": 15, "note": 72, "velocity": 110, "channel": 0}, {"type": "note_off", "time": 91, "note": 72, "velocity": 110, "channel": 0}, {"type": "note_on", "time": 19, "note": 70, "velocity": 114, "channel": 0}, {"type": "note_off", "time": 65, "note": 70, "velocity": 114, "channel": 0}, {"type": "note_on", "time": 55, "note": 69, "velocity": 114, "channel": 0}, {"type": "note_off", "time": 68, "note": 69, "velocity": 114, "channel": 0}, {"type": "note_on", "time": 14, "note": 69, "velocity": 104, "channel": 0}, {"type": "note_off", "time": 69, "note": 69, "velocity": 104, "channel": 0}, {"type": "note_on", "time": 38, "note": 64, "velocity": 100, "channel": 0}, {"type": "note_off", "time": 59, "note": 64, "velocity": 100, "channel": 0}, {"type": "note_on", "time": 6, "note": 67, "velocity": 109, "channel": 0}, {"type": "note_off", "time": 88, "note": 67, "velocity": 109, "channel": 0}, {"type": "note_on", "time": 17, "note": 66, "velocity": 112, "channel": 0}, {"type": "note_off", "time": 103, "note": 66, "velocity": 112, "channel": 0}, {"type": "note_on", "time": 23, "note": 64, "velocity": 98, "channel": 0}, {"type": "note_off", "time": 42, "note": 64, "velocity": 98, "channel": 0}, {"type": "note_on", "time": 11, "note": 65, "velocity": 113, "channel": 0}, {"type": "note_off", "time": 100, "note": 65, "velocity": 113, "channel": 0}, {"type": "note_on", "time": 11, "note": 64, "velocity": 117, "channel": 0}, {"type": "note_off", "time": 70, "note": 64, "velocity": 117, "channel": 0}, {"type": "note_on", "time": 17, "note": 63, "velocity": 119, "channel": 0}, {"type": "note_off", "time": 82, "note": 63, "velocity": 119, "channel": 0}, {"type": "note_on", "time": 17, "note": 65, "velocity": 110, "channel": 0}, {"type": "note_off", "time": 58, "note": 65, "velocity": 110, "channel": 0}, {"type": "note_on", "time": 25, "note": 67, "velocity": 111, "channel": 0}, {"type": "note_off", "time": 94, "note": 67, "velocity": 111, "channel": 0}, {"type": "note_on", "time": 18, "note": 70, "velocity": 115, "channel": 0}, {"type": "note_off", "time": 66, "note": 70, "velocity": 115, "channel": 0}, {"type": "note_on", "time": 21, "note": 73, "velocity": 109, "channel": 0}, {"type": "note_off", "time": 101, "note": 73, "velocity": 109, "channel": 0}, {"type": "note_on", "time": 18, "note": 73, "velocity": 110, "channel": 0}, {"type": "note_off", "time": 75, "note": 73, "velocity": 110, "channel": 0}, {"type": "note_on", "time": 13, "note": 69, "velocity": 111, "channel": 0}, {"type": "note_off", "time": 77, "note": 69, "velocity": 111, "channel": 0}, {"type": "note_on", "time": 20, "note": 65, "velocity": 85, "channel": 0}, {"type": "note_off", "time": 60, "note": 65, "velocity": 85, "channel": 0}, {"type": "note_on", "time": 11, "note": 70, "velocity": 114, "channel": 0}, {"type": "note_off", "time": 100, "note": 70, "velocity": 114, "channel": 0}, {"type": "note_on", "time": 19, "note": 72, "velocity": 114, "channel": 0}, {"type": "note_off", "time": 69, "note": 72, "velocity": 114, "channel": 0}, {"type": "note_on", "time": 9, "note": 74, "velocity": 107, "channel": 0}, {"type": "note_off", "time": 268, "note": 74, "velocity": 107, "channel": 0}, {"type": "note_on", "time": 305, "note": 74, "velocity": 111, "channel": 0}, {"type": "note_off", "time": 59, "note": 74, "velocity": 111, "channel": 0}, {"type": "note_on", "time": 15, "note": 75, "velocity": 112, "channel": 0}, {"type": "note_off", "time": 47, "note": 75, "velocity": 112, "channel": 0}, {"type": "note_on", "time": 10, "note": 74, "velocity": 112, "channel": 0}, {"type": "note_off", "time": 38, "note": 74, "velocity": 112, "channel": 0}, {"type": "note_on", "time": 25, "note": 72, "velocity": 117, "channel": 0}, {"type": "note_off", "time": 70, "note": 72, "velocity": 117, "channel": 0}, {"type": "note_on", "time": 44, "note": 70, "velocity": 117, "channel": 0}, {"type": "note_off", "time": 61, "note": 70, "velocity": 117, "channel": 0}, {"type": "note_on", "time": 9, "note": 69, "velocity": 113, "channel": 0}, {"type": "note_off", "time": 82, "note": 69, "velocity": 113, "channel": 0}, {"type": "note_on", "time": 39, "note": 67, "velocity": 113, "channel": 0}, {"type": "note_off", "time": 70, "note": 67, "velocity": 113, "channel": 0}, {"type": "note_on", "time": 14, "note": 66, "velocity": 113, "channel": 0}, {"type": "note_off", "time": 75, "note": 66, "velocity": 113, "channel": 0}, {"type": "note_on", "time": 31, "note": 63, "velocity": 117, "channel": 0}, {"type": "note_off", "time": 65, "note": 63, "velocity": 117, "channel": 0}, {"type": "note_on", "time": 16, "note": 62, "velocity": 112, "channel": 0}, {"type": "note_off", "time": 89, "note": 62, "velocity": 112, "channel": 0}, {"type": "note_on", "time": 9, "note": 60, "velocity": 109, "channel": 0}, {"type": "note_off", "time": 65, "note": 60, "velocity": 109, "channel": 0}, {"type": "note_on", "time": 13, "note": 59, "velocity": 106, "channel": 0}, {"type": "note_off", "time": 101, "note": 59, "velocity": 106, "channel": 0}, {"type": "note_on", "time": 26, "note": 57, "velocity": 94, "channel": 0}, {"type": "note_off", "time": 65, "note": 57, "velocity": 94, "channel": 0}, {"type": "note_on", "time": 24, "note": 58, "velocity": 110, "channel": 0}, {"type": "note_off", "time": 66, "note": 58, "velocity": 110, "channel": 0}, {"type": "note_on", "time": 18, "note": 60, "velocity": 115, "channel": 0}, {"type": "note_off", "time": 65, "note": 60, "velocity": 115, "channel": 0}, {"type": "note_on", "time": 12, "note": 62, "velocity": 106, "channel": 0}, {"type": "note_off", "time": 56, "note": 62, "velocity": 106, "channel": 0}, {"type": "note_on", "time": 37, "note": 69, "velocity": 94, "channel": 0}, {"type": "note_off", "time": 30, "note": 69, "velocity": 94, "channel": 0}, {"type": "note_on", "time": 24, "note": 72, "velocity": 110, "channel": 0}, {"type": "note_off", "time": 53, "note": 72, "velocity": 110, "channel": 0}, {"type": "note_on", "time": 19, "note": 75, "velocity": 109, "channel": 0}, {"type": "note_off", "time": 84, "note": 75, "velocity": 109, "channel": 0}, {"type": "note_on", "time": 8, "note": 73, "velocity": 111, "channel": 0}, {"type": "note_off", "time": 80, "note": 73, "velocity": 111, "channel": 0}, {"type": "note_on", "time": 9, "note": 72, "velocity": 109, "channel": 0}, {"type": "note_off", "time": 68, "note": 72, "velocity": 109, "channel": 0}, {"type": "note_on", "time": 18, "note": 70, "velocity": 111, "channel": 0}, {"type": "note_off", "time": 75, "note": 70, "velocity": 111, "channel": 0}, {"type": "note_on", "time": 15, "note": 68, "velocity": 113, "channel": 0}, {"type": "note_off", "time": 74, "note": 68, "velocity": 113, "channel": 0}, {"type": "note_on", "time": 49, "note": 64, "velocity": 118, "channel": 0}, {"type": "note_off", "time": 60, "note": 64, "velocity": 118, "channel": 0}, {"type": "note_on", "time": 15, "note": 64, "velocity": 109, "channel": 0}, {"type": "note_off", "time": 27, "note": 64, "velocity": 109, "channel": 0}, {"type": "note_on", "time": 14, "note": 61, "velocity": 110, "channel": 0}, {"type": "note_off", "time": 71, "note": 61, "velocity": 110, "channel": 0}, {"type": "note_on", "time": 30, "note": 58, "velocity": 96, "channel": 0}, {"type": "note_off", "time": 51, "note": 58, "velocity": 96, "channel": 0}, {"type": "note_on", "time": 17, "note": 60, "velocity": 112, "channel": 0}, {"type": "note_off", "time": 115, "note": 60, "velocity": 112, "channel": 0}, {"type": "note_on", "time": 186, "note": 69, "velocity": 115, "channel": 0}, {"type": "note_off", "time": 112, "note": 69, "velocity": 115, "channel": 0}, {"type": "note_on", "time": 339, "note": 52, "velocity": 110, "channel": 0}, {"type": "note_off", "time": 52, "note": 52, "velocity": 110, "channel": 0}, {"type": "note_on", "time": 6, "note": 55, "velocity": 106, "channel": 0}, {"type": "note_off", "time": 44, "note": 55, "velocity": 106, "channel": 0}, {"type": "note_on", "time": 22, "note": 58, "velocity": 112, "channel": 0}, {"type": "note_off", "time": 45, "note": 58, "velocity": 112, "channel": 0}, {"type": "note_on", "time": 16, "note": 61, "velocity": 116, "channel": 0}, {"type": "note_off", "time": 60, "note": 61, "velocity": 116, "channel": 0}, {"type": "note_on", "time": 9, "note": 63, "velocity": 118, "channel": 0}, {"type": "note_off", "time": 35, "note": 63, "velocity": 118, "channel": 0}, {"type": "note_on", "time": 3, "note": 65, "velocity": 111, "channel": 0}, {"type": "note_off", "time": 23, "note": 65, "velocity": 111, "channel": 0}, {"type": "note_on", "time": 5, "note": 67, "velocity": 112, "channel": 0}, {"type": "note_off", "time": 24, "note": 67, "velocity": 112, "channel": 0}, {"type": "note_on", "time": 8, "note": 69, "velocity": 114, "channel": 0}, {"type": "note_off", "time": 31, "note": 69, "velocity": 114, "channel": 0}, {"type": "note_on", "time": 11, "note": 70, "velocity": 114, "channel": 0}, {"type": "note_off", "time": 25, "note": 70, "velocity": 114, "channel": 0}, {"type": "note_on", "time": 12, "note": 72, "velocity": 115, "channel": 0}, {"type": "note_off", "time": 35, "note": 72, "velocity": 115, "channel": 0}, {"type": "note_on", "time": 8, "note": 69, "velocity": 112, "channel": 0}, {"type": "note_off", "time": 308, "note": 69, "velocity": 112, "channel": 0}, {"type": "note_on", "time": 164, "note": 68, "velocity": 115, "channel": 0}, {"type": "note_off", "time": 43, "note": 68, "velocity": 115, "channel": 0}, {"type": "note_on", "time": 6, "note": 67, "velocity": 111, "channel": 0}, {"type": "note_off", "time": 48, "note": 67, "velocity": 111, "channel": 0}, {"type": "note_on", "time": 10, "note": 71, "velocity": 114, "channel": 0}, {"type": "note_off", "time": 51, "note": 71, "velocity": 114, "channel": 0}, {"type": "note_on", "time": 4, "note": 69, "velocity": 117, "channel": 0}, {"type": "note_off", "time": 37, "note": 69, "velocity": 117, "channel": 0}, {"type": "note_on", "time": 20, "note": 66, "velocity": 112, "channel": 0}, {"type": "note_off", "time": 50, "note": 66, "velocity": 112, "channel": 0}, {"type": "note_on", "time": 5, "note": 65, "velocity": 111, "channel": 0}, {"type": "note_off", "time": 39, "note": 65, "velocity": 111, "channel": 0}, {"type": "note_on", "time": 6, "note": 64, "velocity": 120, "channel": 0}, {"type": "note_off", "time": 45, "note": 64, "velocity": 120, "channel": 0}, {"type": "note_on", "time": 5, "note": 63, "velocity": 117, "channel": 0}, {"type": "note_off", "time": 55, "note": 63, "velocity": 117, "channel": 0}, {"type": "note_on", "time": 5, "note": 65, "velocity": 110, "channel": 0}, {"type": "note_off", "time": 35, "note": 65, "velocity": 110, "channel": 0}, {"type": "note_on", "time": 5, "note": 67, "velocity": 109, "channel": 0}, {"type": "note_off", "time": 26, "note": 67, "velocity": 109, "channel": 0}, {"type": "note_on", "time": 16, "note": 70, "velocity": 112, "channel": 0}, {"type": "note_off", "time": 31, "note": 70, "velocity": 112, "channel": 0}, {"type": "note_on", "time": 31, "note": 64, "velocity": 108, "channel": 0}, {"type": "note_off", "time": 27, "note": 64, "velocity": 108, "channel": 0}, {"type": "note_on", "time": 6, "note": 61, "velocity": 111, "channel": 0}, {"type": "note_off", "time": 40, "note": 61, "velocity": 111, "channel": 0}, {"type": "note_on", "time": 8, "note": 57, "velocity": 107, "channel": 0}, {"type": "note_off", "time": 33, "note": 57, "velocity": 107, "channel": 0}, {"type": "note_on", "time": 3, "note": 54, "velocity": 102, "channel": 0}, {"type": "note_off", "time": 34, "note": 54, "velocity": 102, "channel": 0}, {"type": "note_on", "time": 4, "note": 63, "velocity": 120, "channel": 0}, {"type": "note_off", "time": 51, "note": 63, "velocity": 120, "channel": 0}, {"type": "note_on", "time": 11, "note": 61, "velocity": 108, "channel": 0}, {"type": "note_off", "time": 30, "note": 61, "velocity": 108, "channel": 0}, {"type": "note_on", "time": 5, "note": 59, "velocity": 107, "channel": 0}, {"type": "note_off", "time": 48, "note": 59, "velocity": 107, "channel": 0}, {"type": "note_on", "time": 14, "note": 57, "velocity": 109, "channel": 0}, {"type": "note_off", "time": 62, "note": 57, "velocity": 109, "channel": 0}, {"type": "note_on", "time": 4, "note": 59, "velocity": 106, "channel": 0}, {"type": "note_off", "time": 40, "note": 59, "velocity": 106, "channel": 0}, {"type": "note_on", "time": 3, "note": 61, "velocity": 109, "channel": 0}, {"type": "note_off", "time": 51, "note": 61, "velocity": 109, "channel": 0}, {"type": "note_on", "time": 28, "note": 68, "velocity": 112, "channel": 0}, {"type": "note_off", "time": 59, "note": 68, "velocity": 112, "channel": 0}, {"type": "note_on", "time": 3, "note": 67, "velocity": 106, "channel": 0}, {"type": "note_off", "time": 31, "note": 67, "velocity": 106, "channel": 0}, {"type": "note_on", "time": 9, "note": 66, "velocity": 108, "channel": 0}, {"type": "note_off", "time": 33, "note": 66, "velocity": 108, "channel": 0}, {"type": "note_on", "time": 13, "note": 61, "velocity": 106, "channel": 0}, {"type": "note_off", "time": 35, "note": 61, "velocity": 106, "channel": 0}, {"type": "note_on", "time": 6, "note": 65, "velocity": 108, "channel": 0}, {"type": "note_off", "time": 44, "note": 65, "velocity": 108, "channel": 0}, {"type": "note_on", "time": 5, "note": 64, "velocity": 114, "channel": 0}, {"type": "note_off", "time": 31, "note": 64, "velocity": 114, "channel": 0}, {"type": "note_on", "time": 2, "note": 63, "velocity": 113, "channel": 0}, {"type": "note_off", "time": 34, "note": 63, "velocity": 113, "channel": 0}, {"type": "note_on", "time": 9, "note": 65, "velocity": 107, "channel": 0}, {"type": "note_off", "time": 48, "note": 65, "velocity": 107, "channel": 0}, {"type": "note_on", "time": 17, "note": 60, "velocity": 108, "channel": 0}, {"type": "note_off", "time": 24, "note": 60, "velocity": 108, "channel": 0}, {"type": "note_on", "time": 6, "note": 63, "velocity": 114, "channel": 0}, {"type": "note_off", "time": 42, "note": 63, "velocity": 114, "channel": 0}, {"type": "note_on", "time": 8, "note": 62, "velocity": 113, "channel": 0}, {"type": "note_off", "time": 38, "note": 62, "velocity": 113, "channel": 0}, {"type": "note_on", "time": 13, "note": 60, "velocity": 108, "channel": 0}, {"type": "note_off", "time": 37, "note": 60, "velocity": 108, "channel": 0}, {"type": "note_on", "time": 12, "note": 58, "velocity": 111, "channel": 0}, {"type": "note_off", "time": 48, "note": 58, "velocity": 111, "channel": 0}, {"type": "note_on", "time": 8, "note": 60, "velocity": 109, "channel": 0}, {"type": "note_off", "time": 33, "note": 60, "velocity": 109, "channel": 0}, {"type": "note_on", "time": 9, "note": 62, "velocity": 107, "channel": 0}, {"type": "note_off", "time": 40, "note": 62, "velocity": 107, "channel": 0}, {"type": "note_on", "time": 17, "note": 65, "velocity": 100, "channel": 0}, {"type": "note_off", "time": 26, "note": 65, "velocity": 100, "channel": 0}, {"type": "note_on", "time": 9, "note": 70, "velocity": 113, "channel": 0}, {"type": "note_off", "time": 40, "note": 70, "velocity": 113, "channel": 0}, {"type": "note_on", "time": 7, "note": 69, "velocity": 111, "channel": 0}, {"type": "note_off", "time": 40, "note": 69, "velocity": 111, "channel": 0}, {"type": "note_on", "time": 8, "note": 68, "velocity": 108, "channel": 0}, {"type": "note_off", "time": 44, "note": 68, "velocity": 108, "channel": 0}, {"type": "note_on", "time": 8, "note": 67, "velocity": 111, "channel": 0}, {"type": "note_off", "time": 34, "note": 67, "velocity": 111, "channel": 0}, {"type": "note_on", "time": 8, "note": 66, "velocity": 109, "channel": 0}, {"type": "note_off", "time": 95, "note": 66, "velocity": 109, "channel": 0}, {"type": "note_on", "time": 16, "note": 65, "velocity": 102, "channel": 0}, {"type": "note_off", "time": 39, "note": 65, "velocity": 102, "channel": 0}, {"type": "note_on", "time": 399, "note": 63, "velocity": 120, "channel": 0}, {"type": "note_off", "time": 62, "note": 63, "velocity": 120, "channel": 0}, {"type": "note_on", "time": 1, "note": 62, "velocity": 117, "channel": 0}, {"type": "note_off", "time": 36, "note": 62, "velocity": 117, "channel": 0}, {"type": "note_on", "time": 4, "note": 61, "velocity": 110, "channel": 0}, {"type": "note_off", "time": 32, "note": 61, "velocity": 110, "channel": 0}, {"type": "note_on", "time": 7, "note": 59, "velocity": 107, "channel": 0}, {"type": "note_off", "time": 38, "note": 59, "velocity": 107, "channel": 0}, {"type": "note_on", "time": 16, "note": 58, "velocity": 112, "channel": 0}, {"type": "note_off", "time": 38, "note": 58, "velocity": 112, "channel": 0}, {"type": "note_on", "time": 13, "note": 60, "velocity": 108, "channel": 0}, {"type": "note_off", "time": 29, "note": 60, "velocity": 108, "channel": 0}, {"type": "note_on", "time": 6, "note": 62, "velocity": 110, "channel": 0}, {"type": "note_off", "time": 43, "note": 62, "velocity": 110, "channel": 0}, {"type": "note_on", "time": 24, "note": 69, "velocity": 109, "channel": 0}, {"type": "note_off", "time": 49, "note": 69, "velocity": 109, "channel": 0}, {"type": "note_on", "time": 12, "note": 67, "velocity": 111, "channel": 0}, {"type": "note_off", "time": 37, "note": 67, "velocity": 111, "channel": 0}, {"type": "note_on", "time": 12, "note": 65, "velocity": 110, "channel": 0}, {"type": "note_off", "time": 23, "note": 65, "velocity": 110, "channel": 0}, {"type": "note_on", "time": 9, "note": 62, "velocity": 111, "channel": 0}, {"type": "note_off", "time": 28, "note": 62, "velocity": 111, "channel": 0}, {"type": "note_on", "time": 7, "note": 64, "velocity": 115, "channel": 0}, {"type": "note_off", "time": 43, "note": 64, "velocity": 115, "channel": 0}, {"type": "note_on", "time": 11, "note": 60, "velocity": 106, "channel": 0}, {"type": "note_off", "time": 38, "note": 60, "velocity": 106, "channel": 0}, {"type": "note_on", "time": 8, "note": 62, "velocity": 104, "channel": 0}, {"type": "note_off", "time": 37, "note": 62, "velocity": 104, "channel": 0}, {"type": "note_on", "time": 4, "note": 64, "velocity": 108, "channel": 0}, {"type": "note_off", "time": 33, "note": 64, "velocity": 108, "channel": 0}, {"type": "note_on", "time": 10, "note": 65, "velocity": 109, "channel": 0}, {"type": "note_off", "time": 52, "note": 65, "velocity": 109, "channel": 0}, {"type": "note_on", "time": 5, "note": 66, "velocity": 109, "channel": 0}, {"type": "note_off", "time": 23, "note": 66, "velocity": 109, "channel": 0}, {"type": "note_on", "time": 8, "note": 67, "velocity": 111, "channel": 0}, {"type": "note_off", "time": 46, "note": 67, "velocity": 111, "channel": 0}, {"type": "note_on", "time": 13, "note": 66, "velocity": 111, "channel": 0}, {"type": "note_off", "time": 39, "note": 66, "velocity": 111, "channel": 0}, {"type": "note_on", "time": 9, "note": 65, "velocity": 111, "channel": 0}, {"type": "note_off", "time": 46, "note": 65, "velocity": 111, "channel": 0}, {"type": "note_on", "time": 10, "note": 64, "velocity": 118, "channel": 0}, {"type": "note_off", "time": 41, "note": 64, "velocity": 118, "channel": 0}, {"type": "note_on", "time": 8, "note": 62, "velocity": 111, "channel": 0}, {"type": "note_off", "time": 25, "note": 62, "velocity": 111, "channel": 0}, {"type": "note_on", "time": 4, "note": 61, "velocity": 111, "channel": 0}, {"type": "note_off", "time": 16, "note": 61, "velocity": 111, "channel": 0}, {"type": "note_on", "time": 7, "note": 60, "velocity": 114, "channel": 0}, {"type": "note_off", "time": 27, "note": 60, "velocity": 114, "channel": 0}, {"type": "note_on", "time": 9, "note": 58, "velocity": 111, "channel": 0}, {"type": "note_off", "time": 34, "note": 58, "velocity": 111, "channel": 0}, {"type": "note_on", "time": 4, "note": 57, "velocity": 111, "channel": 0}, {"type": "note_off", "time": 17, "note": 57, "velocity": 111, "channel": 0}, {"type": "note_on", "time": 8, "note": 55, "velocity": 106, "channel": 0}, {"type": "note_off", "time": 22, "note": 55, "velocity": 106, "channel": 0}, {"type": "note_on", "time": 2, "note": 53, "velocity": 114, "channel": 0}, {"type": "note_off", "time": 42, "note": 53, "velocity": 114, "channel": 0}, {"type": "note_on", "time": 5, "note": 52, "velocity": 112, "channel": 0}, {"type": "note_off", "time": 49, "note": 52, "velocity": 112, "channel": 0}, {"type": "note_on", "time": 14, "note": 51, "velocity": 110, "channel": 0}, {"type": "note_off", "time": 32, "note": 51, "velocity": 110, "channel": 0}, {"type": "note_on", "time": 6, "note": 50, "velocity": 110, "channel": 0}, {"type": "note_off", "time": 68, "note": 50, "velocity": 110, "channel": 0}, {"type": "note_on", "time": 8, "note": 49, "velocity": 107, "channel": 0}, {"type": "note_off", "time": 38, "note": 49, "velocity": 107, "channel": 0}, {"type": "note_on", "time": 11, "note": 48, "velocity": 109, "channel": 0}, {"type": "note_off", "time": 40, "note": 48, "velocity": 109, "channel": 0}, {"type": "note_on", "time": 10, "note": 47, "velocity": 109, "channel": 0}, {"type": "note_off", "time": 90, "note": 47, "velocity": 109, "channel": 0}, {"type": "note_on", "time": 14, "note": 46, "velocity": 113, "channel": 0}, {"type": "note_off", "time": 47, "note": 46, "velocity": 113, "channel": 0}, {"type": "note_on", "time": 4, "note": 45, "velocity": 108, "channel": 0}, {"type": "note_off", "time": 139, "note": 45, "velocity": 108, "channel": 0}, {"type": "note_on", "time": 277, "note": 70, "velocity": 117, "channel": 0}, {"type": "note_off", "time": 103, "note": 70, "velocity": 117, "channel": 0}, {"type": "note_on", "time": 6, "note": 69, "velocity": 114, "channel": 0}, {"type": "note_off", "time": 81, "note": 69, "velocity": 114, "channel": 0}, {"type": "note_on", "time": 9, "note": 67, "velocity": 115, "channel": 0}, {"type": "note_off", "time": 90, "note": 67, "velocity": 115, "channel": 0}, {"type": "note_on", "time": 10, "note": 68, "velocity": 113, "channel": 0}, {"type": "note_off", "time": 81, "note": 68, "velocity": 113, "channel": 0}, {"type": "note_on", "time": 9, "note": 67, "velocity": 112, "channel": 0}, {"type": "note_off", "time": 75, "note": 67, "velocity": 112, "channel": 0}, {"type": "note_on", "time": 22, "note": 66, "velocity": 113, "channel": 0}, {"type": "note_off", "time": 92, "note": 66, "velocity": 113, "channel": 0}, {"type": "note_on", "time": 16, "note": 64, "velocity": 105, "channel": 0}, {"type": "note_off", "time": 49, "note": 64, "velocity": 105, "channel": 0}, {"type": "note_on", "time": 17, "note": 65, "velocity": 114, "channel": 0}, {"type": "note_off", "time": 96, "note": 65, "velocity": 114, "channel": 0}, {"type": "note_on", "time": 11, "note": 63, "velocity": 108, "channel": 0}, {"type": "note_off", "time": 51, "note": 63, "velocity": 108, "channel": 0}, {"type": "note_on", "time": 9, "note": 64, "velocity": 117, "channel": 0}, {"type": "note_off", "time": 102, "note": 64, "velocity": 117, "channel": 0}, {"type": "note_on", "time": 22, "note": 61, "velocity": 114, "channel": 0}, {"type": "note_off", "time": 71, "note": 61, "velocity": 114, "channel": 0}, {"type": "note_on", "time": 13, "note": 57, "velocity": 106, "channel": 0}, {"type": "note_off", "time": 81, "note": 57, "velocity": 106, "channel": 0}, {"type": "note_on", "time": 8, "note": 54, "velocity": 108, "channel": 0}, {"type": "note_off", "time": 70, "note": 54, "velocity": 108, "channel": 0}, {"type": "note_on", "time": 24, "note": 63, "velocity": 115, "channel": 0}, {"type": "note_off", "time": 28, "note": 63, "velocity": 115, "channel": 0}, {"type": "note_on", "time": 8, "note": 66, "velocity": 108, "channel": 0}, {"type": "note_off", "time": 31, "note": 66, "velocity": 108, "channel": 0}, {"type": "note_on", "time": 1, "note": 63, "velocity": 111, "channel": 0}, {"type": "note_off", "time": 38, "note": 63, "velocity": 111, "channel": 0}, {"type": "note_on", "time": 6, "note": 59, "velocity": 104, "channel": 0}, {"type": "note_off", "time": 49, "note": 59, "velocity": 104, "channel": 0}, {"type": "note_on", "time": 5, "note": 54, "velocity": 107, "channel": 0}, {"type": "note_off", "time": 118, "note": 54, "velocity": 107, "channel": 0}, {"type": "note_on", "time": 30, "note": 52, "velocity": 97, "channel": 0}, {"type": "note_off", "time": 42, "note": 52, "velocity": 97, "channel": 0}, {"type": "note_on", "time": 5, "note": 53, "velocity": 109, "channel": 0}, {"type": "note_off", "time": 94, "note": 53, "velocity": 109, "channel": 0}, {"type": "note_on", "time": 12, "note": 51, "velocity": 102, "channel": 0}, {"type": "note_off", "time": 73, "note": 51, "velocity": 102, "channel": 0}, {"type": "note_on", "time": 18, "note": 50, "velocity": 102, "channel": 0}, {"type": "note_off", "time": 76, "note": 50, "velocity": 102, "channel": 0}, {"type": "note_on", "time": 40, "note": 53, "velocity": 106, "channel": 0}, {"type": "note_off", "time": 44, "note": 53, "velocity": 106, "channel": 0}, {"type": "note_on", "time": 7, "note": 55, "velocity": 104, "channel": 0}, {"type": "note_off", "time": 38, "note": 55, "velocity": 104, "channel": 0}, {"type": "note_on", "time": 16, "note": 57, "velocity": 104, "channel": 0}, {"type": "note_off", "time": 40, "note": 57, "velocity": 104, "channel": 0}, {"type": "note_on", "time": 18, "note": 60, "velocity": 110, "channel": 0}, {"type": "note_off", "time": 61, "note": 60, "velocity": 110, "channel": 0}, {"type": "note_on", "time": 10, "note": 68, "velocity": 98, "channel": 0}, {"type": "note_off", "time": 32, "note": 68, "velocity": 98, "channel": 0}, {"type": "note_on", "time": 13, "note": 58, "velocity": 104, "channel": 0}, {"type": "note_off", "time": 49, "note": 58, "velocity": 104, "channel": 0}, {"type": "note_on", "time": 32, "note": 60, "velocity": 114, "channel": 0}, {"type": "note_off", "time": 53, "note": 60, "velocity": 114, "channel": 0}, {"type": "note_on", "time": 24, "note": 61, "velocity": 116, "channel": 0}, {"type": "note_off", "time": 68, "note": 61, "velocity": 116, "channel": 0}, {"type": "note_on", "time": 34, "note": 62, "velocity": 116, "channel": 0}, {"type": "note_off", "time": 59, "note": 62, "velocity": 116, "channel": 0}, {"type": "note_on", "time": 16, "note": 65, "velocity": 114, "channel": 0}, {"type": "note_off", "time": 90, "note": 65, "velocity": 114, "channel": 0}, {"type": "note_on", "time": 47, "note": 62, "velocity": 97, "channel": 0}, {"type": "note_off", "time": 35, "note": 62, "velocity": 97, "channel": 0}, {"type": "note_on", "time": 14, "note": 63, "velocity": 118, "channel": 0}, {"type": "note_off", "time": 73, "note": 63, "velocity": 118, "channel": 0}, {"type": "note_on", "time": 8, "note": 65, "velocity": 112, "channel": 0}, {"type": "note_off", "time": 85, "note": 65, "velocity": 112, "channel": 0}, {"type": "note_on", "time": 23, "note": 66, "velocity": 112, "channel": 0}, {"type": "note_off", "time": 77, "note": 66, "velocity": 112, "channel": 0}, {"type": "note_on", "time": 15, "note": 68, "velocity": 110, "channel": 0}, {"type": "note_off", "time": 76, "note": 68, "velocity": 110, "channel": 0}, {"type": "note_on", "time": 15, "note": 69, "velocity": 113, "channel": 0}, {"type": "note_off", "time": 80, "note": 69, "velocity": 113, "channel": 0}, {"type": "note_on", "time": 16, "note": 70, "velocity": 110, "channel": 0}, {"type": "note_off", "time": 80, "note": 70, "velocity": 110, "channel": 0}, {"type": "note_on", "time": 13, "note": 71, "velocity": 115, "channel": 0}, {"type": "note_off", "time": 85, "note": 71, "velocity": 115, "channel": 0}, {"type": "note_on", "time": 18, "note": 69, "velocity": 98, "channel": 0}, {"type": "note_off", "time": 62, "note": 69, "velocity": 98, "channel": 0}, {"type": "note_on", "time": 13, "note": 70, "velocity": 114, "channel": 0}, {"type": "note_off", "time": 82, "note": 70, "velocity": 114, "channel": 0}, {"type": "note_on", "time": 16, "note": 66, "velocity": 109, "channel": 0}, {"type": "note_off", "time": 88, "note": 66, "velocity": 109, "channel": 0}, {"type": "note_on", "time": 18, "note": 65, "velocity": 107, "channel": 0}, {"type": "note_off", "time": 31, "note": 65, "velocity": 107, "channel": 0}, {"type": "note_on", "time": 9, "note": 64, "velocity": 109, "channel": 0}, {"type": "note_off", "time": 62, "note": 64, "velocity": 109, "channel": 0}, {"type": "note_on", "time": 11, "note": 63, "velocity": 113, "channel": 0}, {"type": "note_off", "time": 62, "note": 63, "velocity": 113, "channel": 0}, {"type": "note_on", "time": 10, "note": 62, "velocity": 109, "channel": 0}, {"type": "note_off", "time": 103, "note": 62, "velocity": 109, "channel": 0}, {"type": "note_on", "time": 336, "note": 69, "velocity": 112, "channel": 0}, {"type": "note_off", "time": 102, "note": 69, "velocity": 112, "channel": 0}, {"type": "note_on", "time": 285, "note": 70, "velocity": 117, "channel": 0}, {"type": "note_off", "time": 64, "note": 70, "velocity": 117, "channel": 0}, {"type": "note_on", "time": 7, "note": 72, "velocity": 115, "channel": 0}, {"type": "note_off", "time": 93, "note": 72, "velocity": 115, "channel": 0}, {"type": "note_on", "time": 5, "note": 69, "velocity": 100, "channel": 0}, {"type": "note_off", "time": 66, "note": 69, "velocity": 100, "channel": 0}, {"type": "note_on", "time": 12, "note": 70, "velocity": 116, "channel": 0}, {"type": "note_off", "time": 70, "note": 70, "velocity": 116, "channel": 0}, {"type": "note_on", "time": 42, "note": 69, "velocity": 113, "channel": 0}, {"type": "note_off", "time": 64, "note": 69, "velocity": 113, "channel": 0}, {"type": "note_on", "time": 16, "note": 68, "velocity": 113, "channel": 0}, {"type": "note_off", "time": 62, "note": 68, "velocity": 113, "channel": 0}, {"type": "note_on", "time": 48, "note": 64, "velocity": 116, "channel": 0}, {"type": "note_off", "time": 70, "note": 64, "velocity": 116, "channel": 0}, {"type": "note_on", "time": 10, "note": 61, "velocity": 114, "channel": 0}, {"type": "note_off", "time": 63, "note": 61, "velocity": 114, "channel": 0}, {"type": "note_on", "time": 45, "note": 59, "velocity": 96, "channel": 0}, {"type": "note_off", "time": 50, "note": 59, "velocity": 96, "channel": 0}, {"type": "note_on", "time": 20, "note": 60, "velocity": 115, "channel": 0}, {"type": "note_off", "time": 88, "note": 60, "velocity": 115, "channel": 0}, {"type": "note_on", "time": 14, "note": 69, "velocity": 106, "channel": 0}, {"type": "note_off", "time": 101, "note": 69, "velocity": 106, "channel": 0}, {"type": "note_on", "time": 661, "note": 69, "velocity": 111, "channel": 0}, {"type": "note_off", "time": 92, "note": 69, "velocity": 111, "channel": 0}, {"type": "note_on", "time": 287, "note": 69, "velocity": 108, "channel": 0}, {"type": "note_off", "time": 91, "note": 69, "velocity": 108, "channel": 0}, {"type": "note_on", "time": 303, "note": 69, "velocity": 112, "channel": 0}, {"type": "note_off", "time": 81, "note": 69, "velocity": 112, "channel": 0}, {"type": "note_on", "time": 210, "note": 69, "velocity": 113, "channel": 0}, {"type": "note_off", "time": 58, "note": 69, "velocity": 113, "channel": 0}, {"type": "note_on", "time": 26, "note": 69, "velocity": 117, "channel": 0}, {"type": "note_off", "time": 54, "note": 69, "velocity": 117, "channel": 0}, {"type": "note_on", "time": 29, "note": 69, "velocity": 116, "channel": 0}, {"type": "note_off", "time": 52, "note": 69, "velocity": 116, "channel": 0}, {"type": "note_on", "time": 221, "note": 69, "velocity": 105, "channel": 0}, {"type": "note_off", "time": 69, "note": 69, "velocity": 105, "channel": 0}, {"type": "note_on", "time": 208, "note": 69, "velocity": 115, "channel": 0}, {"type": "note_off", "time": 73, "note": 69, "velocity": 115, "channel": 0}, {"type": "note_on", "time": 17, "note": 69, "velocity": 115, "channel": 0}, {"type": "note_off", "time": 70, "note": 69, "velocity": 115, "channel": 0}, {"type": "note_on", "time": 199, "note": 70, "velocity": 118, "channel": 0}, {"type": "note_off", "time": 98, "note": 70, "velocity": 118, "channel": 0}, {"type": "note_on", "time": 23, "note": 70, "velocity": 116, "channel": 0}, {"type": "note_off", "time": 50, "note": 70, "velocity": 116, "channel": 0}, {"type": "note_on", "time": 19, "note": 70, "velocity": 119, "channel": 0}, {"type": "note_off", "time": 76, "note": 70, "velocity": 119, "channel": 0}, {"type": "note_on", "time": 19, "note": 70, "velocity": 112, "channel": 0}, {"type": "note_off", "time": 73, "note": 70, "velocity": 112, "channel": 0}, {"type": "note_on", "time": 230, "note": 70, "velocity": 116, "channel": 0}, {"type": "note_off", "time": 94, "note": 70, "velocity": 116, "channel": 0}, {"type": "note_on", "time": 8, "note": 69, "velocity": 115, "channel": 0}, {"type": "note_off", "time": 79, "note": 69, "velocity": 115, "channel": 0}, {"type": "note_on", "time": 12, "note": 71, "velocity": 118, "channel": 0}, {"type": "note_off", "time": 75, "note": 71, "velocity": 118, "channel": 0}, {"type": "note_on", "time": 24, "note": 71, "velocity": 117, "channel": 0}, {"type": "note_off", "time": 62, "note": 71, "velocity": 117, "channel": 0}, {"type": "note_on", "time": 14, "note": 71, "velocity": 116, "channel": 0}, {"type": "note_off", "time": 38, "note": 71, "velocity": 116, "channel": 0}, {"type": "note_on", "time": 21, "note": 71, "velocity": 104, "channel": 0}, {"type": "note_off", "time": 92, "note": 71, "velocity": 104, "channel": 0}, {"type": "note_on", "time": 36, "note": 71, "velocity": 117, "channel": 0}, {"type": "note_off", "time": 75, "note": 71, "velocity": 117, "channel": 0}, {"type": "note_on", "time": 25, "note": 71, "velocity": 112, "channel": 0}, {"type": "note_off", "time": 39, "note": 71, "velocity": 112, "channel": 0}, {"type": "note_on", "time": 36, "note": 72, "velocity": 114, "channel": 0}, {"type": "note_off", "time": 78, "note": 72, "velocity": 114, "channel": 0}, {"type": "note_on", "time": 14, "note": 71, "velocity": 117, "channel": 0}, {"type": "note_off", "time": 79, "note": 71, "velocity": 117, "channel": 0}, {"type": "note_on", "time": 9, "note": 70, "velocity": 114, "channel": 0}, {"type": "note_off", "time": 75, "note": 70, "velocity": 114, "channel": 0}, {"type": "note_on", "time": 21, "note": 69, "velocity": 113, "channel": 0}, {"type": "note_off", "time": 82, "note": 69, "velocity": 113, "channel": 0}, {"type": "note_on", "time": 24, "note": 67, "velocity": 112, "channel": 0}, {"type": "note_off", "time": 77, "note": 67, "velocity": 112, "channel": 0}, {"type": "note_on", "time": 18, "note": 65, "velocity": 112, "channel": 0}, {"type": "note_off", "time": 74, "note": 65, "velocity": 112, "channel": 0}, {"type": "note_on", "time": 24, "note": 64, "velocity": 117, "channel": 0}, {"type": "note_off", "time": 86, "note": 64, "velocity": 117, "channel": 0}, {"type": "note_on", "time": 73, "note": 62, "velocity": 114, "channel": 0}, {"type": "note_off", "time": 88, "note": 62, "velocity": 114, "channel": 0}, {"type": "note_on", "time": 10, "note": 64, "velocity": 117, "channel": 0}, {"type": "note_off", "time": 82, "note": 64, "velocity": 117, "channel": 0}, {"type": "note_on", "time": 17, "note": 65, "velocity": 114, "channel": 0}, {"type": "note_off", "time": 75, "note": 65, "velocity": 114, "channel": 0}, {"type": "note_on", "time": 24, "note": 67, "velocity": 110, "channel": 0}, {"type": "note_off", "time": 72, "note": 67, "velocity": 110, "channel": 0}, {"type": "note_on", "time": 19, "note": 69, "velocity": 113, "channel": 0}, {"type": "note_off", "time": 79, "note": 69, "velocity": 113, "channel": 0}, {"type": "note_on", "time": 8, "note": 70, "velocity": 115, "channel": 0}, {"type": "note_off", "time": 58, "note": 70, "velocity": 115, "channel": 0}, {"type": "note_on", "time": 25, "note": 72, "velocity": 114, "channel": 0}, {"type": "note_off", "time": 101, "note": 72, "velocity": 114, "channel": 0}, {"type": "note_on", "time": 43, "note": 70, "velocity": 114, "channel": 0}, {"type": "note_off", "time": 41, "note": 70, "velocity": 114, "channel": 0}, {"type": "note_on", "time": 30, "note": 69, "velocity": 112, "channel": 0}, {"type": "note_off", "time": 67, "note": 69, "velocity": 112, "channel": 0}, {"type": "note_on", "time": 34, "note": 70, "velocity": 116, "channel": 0}, {"type": "note_off", "time": 76, "note": 70, "velocity": 116, "channel": 0}, {"type": "note_on", "time": 14, "note": 69, "velocity": 109, "channel": 0}, {"type": "note_off", "time": 43, "note": 69, "velocity": 109, "channel": 0}, {"type": "note_on", "time": 10, "note": 68, "velocity": 107, "channel": 0}, {"type": "note_off", "time": 38, "note": 68, "velocity": 107, "channel": 0}, {"type": "note_on", "time": 7, "note": 67, "velocity": 107, "channel": 0}, {"type": "note_off", "time": 22, "note": 67, "velocity": 107, "channel": 0}, {"type": "note_on", "time": 54, "note": 69, "velocity": 113, "channel": 0}, {"type": "note_off", "time": 110, "note": 69, "velocity": 113, "channel": 0}, {"type": "note_on", "time": 23, "note": 67, "velocity": 107, "channel": 0}, {"type": "note_off", "time": 49, "note": 67, "velocity": 107, "channel": 0}, {"type": "note_on", "time": 16, "note": 66, "velocity": 107, "channel": 0}, {"type": "note_off", "time": 48, "note": 66, "velocity": 107, "channel": 0}, {"type": "note_on", "time": 10, "note": 65, "velocity": 103, "channel": 0}, {"type": "note_off", "time": 58, "note": 65, "velocity": 103, "channel": 0}, {"type": "note_on", "time": 33, "note": 67, "velocity": 114, "channel": 0}, {"type": "note_off", "time": 79, "note": 67, "velocity": 114, "channel": 0}, {"type": "note_on", "time": 7, "note": 66, "velocity": 110, "channel": 0}, {"type": "note_off", "time": 42, "note": 66, "velocity": 110, "channel": 0}, {"type": "note_on", "time": 9, "note": 65, "velocity": 108, "channel": 0}, {"type": "note_off", "time": 53, "note": 65, "velocity": 108, "channel": 0}, {"type": "note_on", "time": 11, "note": 64, "velocity": 117, "channel": 0}, {"type": "note_off", "time": 146, "note": 64, "velocity": 117, "channel": 0}, {"type": "note_on", "time": 247, "note": 61, "velocity": 118, "channel": 0}, {"type": "note_off", "time": 94, "note": 61, "velocity": 118, "channel": 0}, {"type": "note_on", "time": 42, "note": 58, "velocity": 112, "channel": 0}, {"type": "note_off", "time": 46, "note": 58, "velocity": 112, "channel": 0}, {"type": "note_on", "time": 16, "note": 61, "velocity": 116, "channel": 0}, {"type": "note_off", "time": 63, "note": 61, "velocity": 116, "channel": 0}, {"type": "note_on", "time": 26, "note": 64, "velocity": 119, "channel": 0}, {"type": "note_off", "time": 73, "note": 64, "velocity": 119, "channel": 0}, {"type": "note_on", "time": 27, "note": 62, "velocity": 116, "channel": 0}, {"type": "note_off", "time": 105, "note": 62, "velocity": 116, "channel": 0}, {"type": "note_on", "time": 250, "note": 62, "velocity": 116, "channel": 0}, {"type": "note_off", "time": 70, "note": 62, "velocity": 116, "channel": 0}, {"type": "note_on", "time": 2, "note": 64, "velocity": 117, "channel": 0}, {"type": "note_off", "time": 67, "note": 64, "velocity": 117, "channel": 0}, {"type": "note_on", "time": 9, "note": 67, "velocity": 104, "channel": 0}, {"type": "note_off", "time": 36, "note": 67, "velocity": 104, "channel": 0}, {"type": "note_on", "time": 12, "note": 69, "velocity": 114, "channel": 0}, {"type": "note_off", "time": 65, "note": 69, "velocity": 114, "channel": 0}, {"type": "note_on", "time": 300, "note": 62, "velocity": 116, "channel": 0}, {"type": "note_off", "time": 106, "note": 62, "velocity": 116, "channel": 0}, {"type": "note_on", "time": 18, "note": 62, "velocity": 114, "channel": 0}, {"type": "note_off", "time": 97, "note": 62, "velocity": 114, "channel": 0}, {"type": "note_on", "time": 331, "note": 65, "velocity": 114, "channel": 0}, {"type": "note_off", "time": 61, "note": 65, "velocity": 114, "channel": 0}, {"type": "note_on", "time": 7, "note": 64, "velocity": 117, "channel": 0}, {"type": "note_off", "time": 43, "note": 64, "velocity": 117, "channel": 0}, {"type": "note_on", "time": 6, "note": 63, "velocity": 116, "channel": 0}, {"type": "note_off", "time": 31, "note": 63, "velocity": 116, "channel": 0}, {"type": "note_on", "time": 4, "note": 65, "velocity": 112, "channel": 0}, {"type": "note_off", "time": 34, "note": 65, "velocity": 112, "channel": 0}, {"type": "note_on", "time": 20, "note": 60, "velocity": 115, "channel": 0}, {"type": "note_off", "time": 36, "note": 60, "velocity": 115, "channel": 0}, {"type": "note_on", "time": 12, "note": 62, "velocity": 112, "channel": 0}, {"type": "note_off", "time": 79, "note": 62, "velocity": 112, "channel": 0}, {"type": "note_on", "time": 6, "note": 60, "velocity": 110, "channel": 0}, {"type": "note_off", "time": 76, "note": 60, "velocity": 110, "channel": 0}, {"type": "note_on", "time": 510, "note": 57, "velocity": 112, "channel": 0}, {"type": "note_off", "time": 35, "note": 57, "velocity": 112, "channel": 0}, {"type": "note_on", "time": 7, "note": 56, "velocity": 109, "channel": 0}, {"type": "note_off", "time": 33, "note": 56, "velocity": 109, "channel": 0}, {"type": "note_on", "time": 5, "note": 57, "velocity": 113, "channel": 0}, {"type": "note_off", "time": 44, "note": 57, "velocity": 113, "channel": 0}, {"type": "note_on", "time": 10, "note": 59, "velocity": 110, "channel": 0}, {"type": "note_off", "time": 36, "note": 59, "velocity": 110, "channel": 0}, {"type": "note_on", "time": 3, "note": 61, "velocity": 107, "channel": 0}, {"type": "note_off", "time": 28, "note": 61, "velocity": 107, "channel": 0}, {"type": "note_on", "time": 3, "note": 62, "velocity": 106, "channel": 0}, {"type": "note_off", "time": 31, "note": 62, "velocity": 106, "channel": 0}, {"type": "note_on", "time": 6, "note": 65, "velocity": 112, "channel": 0}, {"type": "note_off", "time": 43, "note": 65, "velocity": 112, "channel": 0}, {"type": "note_on", "time": 7, "note": 62, "velocity": 115, "channel": 0}, {"type": "note_off", "time": 34, "note": 62, "velocity": 115, "channel": 0}, {"type": "note_on", "time": 5, "note": 63, "velocity": 116, "channel": 0}, {"type": "note_off", "time": 38, "note": 63, "velocity": 116, "channel": 0}, {"type": "note_on", "time": 10, "note": 62, "velocity": 109, "channel": 0}, {"type": "note_off", "time": 45, "note": 62, "velocity": 109, "channel": 0}, {"type": "note_on", "time": 285, "note": 59, "velocity": 110, "channel": 0}, {"type": "note_off", "time": 39, "note": 59, "velocity": 110, "channel": 0}, {"type": "note_on", "time": 6, "note": 62, "velocity": 105, "channel": 0}, {"type": "note_off", "time": 24, "note": 62, "velocity": 105, "channel": 0}, {"type": "note_on", "time": 21, "note": 65, "velocity": 110, "channel": 0}, {"type": "note_off", "time": 33, "note": 65, "velocity": 110, "channel": 0}, {"type": "note_on", "time": 6, "note": 62, "velocity": 103, "channel": 0}, {"type": "note_off", "time": 42, "note": 62, "velocity": 103, "channel": 0}, {"type": "note_on", "time": 11, "note": 69, "velocity": 113, "channel": 0}, {"type": "note_off", "time": 39, "note": 69, "velocity": 113, "channel": 0}, {"type": "note_on", "time": 6, "note": 65, "velocity": 106, "channel": 0}, {"type": "note_off", "time": 28, "note": 65, "velocity": 106, "channel": 0}, {"type": "note_on", "time": 5, "note": 64, "velocity": 115, "channel": 0}, {"type": "note_off", "time": 42, "note": 64, "velocity": 115, "channel": 0}, {"type": "note_on", "time": 7, "note": 62, "velocity": 109, "channel": 0}, {"type": "note_off", "time": 32, "note": 62, "velocity": 109, "channel": 0}, {"type": "note_on", "time": 9, "note": 67, "velocity": 111, "channel": 0}, {"type": "note_off", "time": 41, "note": 67, "velocity": 111, "channel": 0}, {"type": "note_on", "time": 12, "note": 66, "velocity": 111, "channel": 0}, {"type": "note_off", "time": 44, "note": 66, "velocity": 111, "channel": 0}, {"type": "note_on", "time": 11, "note": 65, "velocity": 105, "channel": 0}, {"type": "note_off", "time": 20, "note": 65, "velocity": 105, "channel": 0}, {"type": "note_on", "time": 1, "note": 63, "velocity": 107, "channel": 0}, {"type": "note_off", "time": 31, "note": 63, "velocity": 107, "channel": 0}, {"type": "note_on", "time": 9, "note": 64, "velocity": 118, "channel": 0}, {"type": "note_off", "time": 52, "note": 64, "velocity": 118, "channel": 0}, {"type": "note_on", "time": 10, "note": 62, "velocity": 114, "channel": 0}, {"type": "note_off", "time": 33, "note": 62, "velocity": 114, "channel": 0}, {"type": "note_on", "time": 7, "note": 60, "velocity": 106, "channel": 0}, {"type": "note_off", "time": 28, "note": 60, "velocity": 106, "channel": 0}, {"type": "note_on", "time": 7, "note": 59, "velocity": 107, "channel": 0}, {"type": "note_off", "time": 28, "note": 59, "velocity": 107, "channel": 0}, {"type": "note_on", "time": 10, "note": 58, "velocity": 111, "channel": 0}, {"type": "note_off", "time": 43, "note": 58, "velocity": 111, "channel": 0}, {"type": "note_on", "time": 5, "note": 60, "velocity": 105, "channel": 0}, {"type": "note_off", "time": 42, "note": 60, "velocity": 105, "channel": 0}, {"type": "note_on", "time": 7, "note": 62, "velocity": 105, "channel": 0}, {"type": "note_off", "time": 38, "note": 62, "velocity": 105, "channel": 0}, {"type": "note_on", "time": 5, "note": 65, "velocity": 107, "channel": 0}, {"type": "note_off", "time": 34, "note": 65, "velocity": 107, "channel": 0}, {"type": "note_on", "time": 8, "note": 69, "velocity": 107, "channel": 0}, {"type": "note_off", "time": 40, "note": 69, "velocity": 107, "channel": 0}, {"type": "note_on", "time": 3, "note": 67, "velocity": 111, "channel": 0}, {"type": "note_off", "time": 33, "note": 67, "velocity": 111, "channel": 0}, {"type": "note_on", "time": 4, "note": 65, "velocity": 107, "channel": 0}, {"type": "note_off", "time": 21, "note": 65, "velocity": 107, "channel": 0}, {"type": "note_on", "time": 4, "note": 62, "velocity": 106, "channel": 0}, {"type": "note_off", "time": 27, "note": 62, "velocity": 106, "channel": 0}, {"type": "note_on", "time": 4, "note": 64, "velocity": 113, "channel": 0}, {"type": "note_off", "time": 51, "note": 64, "velocity": 113, "channel": 0}, {"type": "note_on", "time": 6, "note": 60, "velocity": 110, "channel": 0}, {"type": "note_off", "time": 42, "note": 60, "velocity": 110, "channel": 0}, {"type": "note_on", "time": 3, "note": 62, "velocity": 110, "channel": 0}, {"type": "note_off", "time": 34, "note": 62, "velocity": 110, "channel": 0}, {"type": "note_on", "time": 6, "note": 64, "velocity": 109, "channel": 0}, {"type": "note_off", "time": 48, "note": 64, "velocity": 109, "channel": 0}, {"type": "note_on", "time": 11, "note": 65, "velocity": 110, "channel": 0}, {"type": "note_off", "time": 22, "note": 65, "velocity": 110, "channel": 0}, {"type": "note_on", "time": 7, "note": 67, "velocity": 108, "channel": 0}, {"type": "note_off", "time": 29, "note": 67, "velocity": 108, "channel": 0}, {"type": "note_on", "time": 5, "note": 69, "velocity": 114, "channel": 0}, {"type": "note_off", "time": 37, "note": 69, "velocity": 114, "channel": 0}, {"type": "note_on", "time": 10, "note": 70, "velocity": 114, "channel": 0}, {"type": "note_off", "time": 32, "note": 70, "velocity": 114, "channel": 0}, {"type": "note_on", "time": 6, "note": 72, "velocity": 111, "channel": 0}, {"type": "note_off", "time": 311, "note": 72, "velocity": 111, "channel": 0}, {"type": "note_on", "time": 227, "note": 69, "velocity": 114, "channel": 0}, {"type": "note_off", "time": 87, "note": 69, "velocity": 114, "channel": 0}, {"type": "note_on", "time": 20, "note": 70, "velocity": 117, "channel": 0}, {"type": "note_off", "time": 117, "note": 70, "velocity": 117, "channel": 0}, {"type": "note_on", "time": 9, "note": 68, "velocity": 101, "channel": 0}, {"type": "note_off", "time": 36, "note": 68, "velocity": 101, "channel": 0}, {"type": "note_on", "time": 12, "note": 69, "velocity": 114, "channel": 0}, {"type": "note_off", "time": 83, "note": 69, "velocity": 114, "channel": 0}, {"type": "note_on", "time": 25, "note": 63, "velocity": 119, "channel": 0}, {"type": "note_off", "time": 250, "note": 63, "velocity": 119, "channel": 0}, {"type": "note_on", "time": 11, "note": 64, "velocity": 118, "channel": 0}, {"type": "note_off", "time": 106, "note": 64, "velocity": 118, "channel": 0}, {"type": "note_on", "time": 21, "note": 67, "velocity": 112, "channel": 0}, {"type": "note_off", "time": 242, "note": 67, "velocity": 112, "channel": 0}, {"type": "note_on", "time": 14, "note": 65, "velocity": 112, "channel": 0}, {"type": "note_off", "time": 117, "note": 65, "velocity": 112, "channel": 0}, {"type": "note_on", "time": 97, "note": 61, "velocity": 112, "channel": 0}, {"type": "note_off", "time": 130, "note": 61, "velocity": 112, "channel": 0}, {"type": "note_on", "time": 17, "note": 62, "velocity": 113, "channel": 0}, {"type": "note_off", "time": 123, "note": 62, "velocity": 113, "channel": 0}, {"type": "note_on", "time": 24, "note": 65, "velocity": 111, "channel": 0}, {"type": "note_off", "time": 120, "note": 65, "velocity": 111, "channel": 0}, {"type": "note_on", "time": 24, "note": 62, "velocity": 113, "channel": 0}, {"type": "note_off", "time": 74, "note": 62, "velocity": 113, "channel": 0}, {"type": "note_on", "time": 142, "note": 70, "velocity": 112, "channel": 0}, {"type": "note_off", "time": 83, "note": 70, "velocity": 112, "channel": 0}, {"type": "note_on", "time": 25, "note": 73, "velocity": 113, "channel": 0}, {"type": "note_off", "time": 90, "note": 73, "velocity": 113, "channel": 0}, {"type": "note_on", "time": 19, "note": 73, "velocity": 110, "channel": 0}, {"type": "note_off", "time": 72, "note": 73, "velocity": 110, "channel": 0}, {"type": "note_on", "time": 15, "note": 69, "velocity": 113, "channel": 0}, {"type": "note_off", "time": 85, "note": 69, "velocity": 113, "channel": 0}, {"type": "note_on", "time": 45, "note": 65, "velocity": 90, "channel": 0}, {"type": "note_off", "time": 47, "note": 65, "velocity": 90, "channel": 0}, {"type": "note_on", "time": 15, "note": 70, "velocity": 114, "channel": 0}, {"type": "note_off", "time": 83, "note": 70, "velocity": 114, "channel": 0}, {"type": "note_on", "time": 8, "note": 72, "velocity": 110, "channel": 0}, {"type": "note_off", "time": 74, "note": 72, "velocity": 110, "channel": 0}, {"type": "note_on", "time": 17, "note": 74, "velocity": 111, "channel": 0}, {"type": "note_off", "time": 78, "note": 74, "velocity": 111, "channel": 0}, {"type": "note_on", "time": 21, "note": 72, "velocity": 109, "channel": 0}, {"type": "note_off", "time": 79, "note": 72, "velocity": 109, "channel": 0}, {"type": "note_on", "time": 4, "note": 70, "velocity": 112, "channel": 0}, {"type": "note_off", "time": 99, "note": 70, "velocity": 112, "channel": 0}, {"type": "note_on", "time": 34, "note": 68, "velocity": 94, "channel": 0}, {"type": "note_off", "time": 48, "note": 68, "velocity": 94, "channel": 0}, {"type": "note_on", "time": 27, "note": 69, "velocity": 115, "channel": 0}, {"type": "note_off", "time": 77, "note": 69, "velocity": 115, "channel": 0}, {"type": "note_on", "time": 8, "note": 67, "velocity": 110, "channel": 0}, {"type": "note_off", "time": 88, "note": 67, "velocity": 110, "channel": 0}, {"type": "note_on", "time": 9, "note": 66, "velocity": 111, "channel": 0}, {"type": "note_off", "time": 70, "note": 66, "velocity": 111, "channel": 0}, {"type": "note_on", "time": 55, "note": 57, "velocity": 107, "channel": 0}, {"type": "note_off", "time": 55, "note": 57, "velocity": 107, "channel": 0}, {"type": "note_on", "time": 13, "note": 60, "velocity": 111, "channel": 0}, {"type": "note_off", "time": 81, "note": 60, "velocity": 111, "channel": 0}, {"type": "note_on", "time": 12, "note": 62, "velocity": 115, "channel": 0}, {"type": "note_off", "time": 75, "note": 62, "velocity": 115, "channel": 0}, {"type": "note_on", "time": 12, "note": 63, "velocity": 116, "channel": 0}, {"type": "note_off", "time": 98, "note": 63, "velocity": 116, "channel": 0}, {"type": "note_on", "time": 17, "note": 61, "velocity": 111, "channel": 0}, {"type": "note_off", "time": 64, "note": 61, "velocity": 111, "channel": 0}, {"type": "note_on", "time": 15, "note": 60, "velocity": 105, "channel": 0}, {"type": "note_off", "time": 86, "note": 60, "velocity": 105, "channel": 0}, {"type": "note_on", "time": 24, "note": 58, "velocity": 101, "channel": 0}, {"type": "note_off", "time": 73, "note": 58, "velocity": 101, "channel": 0}, {"type": "note_on", "time": 10, "note": 59, "velocity": 100, "channel": 0}, {"type": "note_off", "time": 81, "note": 59, "velocity": 100, "channel": 0}, {"type": "note_on", "time": 15, "note": 57, "velocity": 95, "channel": 0}, {"type": "note_off", "time": 52, "note": 57, "velocity": 95, "channel": 0}, {"type": "note_on", "time": 40, "note": 58, "velocity": 101, "channel": 0}, {"type": "note_off", "time": 85, "note": 58, "velocity": 101, "channel": 0}, {"type": "note_on", "time": 12, "note": 60, "velocity": 105, "channel": 0}, {"type": "note_off", "time": 73, "note": 60, "velocity": 105, "channel": 0}, {"type": "note_on", "time": 8, "note": 62, "velocity": 104, "channel": 0}, {"type": "note_off", "time": 70, "note": 62, "velocity": 104, "channel": 0}, {"type": "note_on", "time": 40, "note": 65, "velocity": 99, "channel": 0}, {"type": "note_off", "time": 25, "note": 65, "velocity": 99, "channel": 0}, {"type": "note_on", "time": 55, "note": 69, "velocity": 110, "channel": 0}, {"type": "note_off", "time": 75, "note": 69, "velocity": 110, "channel": 0}, {"type": "note_on", "time": 20, "note": 64, "velocity": 99, "channel": 0}, {"type": "note_off", "time": 58, "note": 64, "velocity": 99, "channel": 0}, {"type": "note_on", "time": 19, "note": 67, "velocity": 108, "channel": 0}, {"type": "note_off", "time": 87, "note": 67, "velocity": 108, "channel": 0}, {"type": "note_on", "time": 12, "note": 65, "velocity": 103, "channel": 0}, {"type": "note_off", "time": 99, "note": 65, "velocity": 103, "channel": 0}, {"type": "note_on", "time": 12, "note": 64, "velocity": 102, "channel": 0}, {"type": "note_off", "time": 75, "note": 64, "velocity": 102, "channel": 0}, {"type": "note_on", "time": 17, "note": 65, "velocity": 96, "channel": 0}, {"type": "note_off", "time": 180, "note": 65, "velocity": 96, "channel": 0}, {"type": "note_on", "time": 373, "note": 60, "velocity": 111, "channel": 0}, {"type": "note_off", "time": 72, "note": 60, "velocity": 111, "channel": 0}, {"type": "note_on", "time": 8, "note": 62, "velocity": 99, "channel": 0}, {"type": "note_off", "time": 64, "note": 62, "velocity": 99, "channel": 0}, {"type": "note_on", "time": 73, "note": 70, "velocity": 113, "channel": 0}, {"type": "note_off", "time": 72, "note": 70, "velocity": 113, "channel": 0}, {"type": "note_on", "time": 15, "note": 73, "velocity": 114, "channel": 0}, {"type": "note_off", "time": 82, "note": 73, "velocity": 114, "channel": 0}, {"type": "note_on", "time": 16, "note": 74, "velocity": 112, "channel": 0}, {"type": "note_off", "time": 73, "note": 74, "velocity": 112, "channel": 0}, {"type": "note_on", "time": 13, "note": 77, "velocity": 114, "channel": 0}, {"type": "note_off", "time": 86, "note": 77, "velocity": 114, "channel": 0}, {"type": "note_on", "time": 10, "note": 76, "velocity": 119, "channel": 0}, {"type": "note_off", "time": 86, "note": 76, "velocity": 119, "channel": 0}, {"type": "note_on", "time": 13, "note": 75, "velocity": 109, "channel": 0}, {"type": "note_off", "time": 83, "note": 75, "velocity": 109, "channel": 0}, {"type": "note_on", "time": 6, "note": 74, "velocity": 108, "channel": 0}, {"type": "note_off", "time": 83, "note": 74, "velocity": 108, "channel": 0}, {"type": "note_on", "time": 8, "note": 73, "velocity": 112, "channel": 0}, {"type": "note_off", "time": 90, "note": 73, "velocity": 112, "channel": 0}, {"type": "note_on", "time": 30, "note": 69, "velocity": 110, "channel": 0}, {"type": "note_off", "time": 47, "note": 69, "velocity": 110, "channel": 0}, {"type": "note_on", "time": 35, "note": 68, "velocity": 109, "channel": 0}, {"type": "note_off", "time": 73, "note": 68, "velocity": 109, "channel": 0}, {"type": "note_on", "time": 16, "note": 67, "velocity": 105, "channel": 0}, {"type": "note_off", "time": 70, "note": 67, "velocity": 105, "channel": 0}, {"type": "note_on", "time": 22, "note": 66, "velocity": 108, "channel": 0}, {"type": "note_off", "time": 85, "note": 66, "velocity": 108, "channel": 0}, {"type": "note_on", "time": 32, "note": 64, "velocity": 98, "channel": 0}, {"type": "note_off", "time": 37, "note": 64, "velocity": 98, "channel": 0}, {"type": "note_on", "time": 16, "note": 65, "velocity": 110, "channel": 0}, {"type": "note_off", "time": 90, "note": 65, "velocity": 110, "channel": 0}, {"type": "note_on", "time": 20, "note": 65, "velocity": 111, "channel": 0}, {"type": "note_off", "time": 76, "note": 65, "velocity": 111, "channel": 0}, {"type": "note_on", "time": 17, "note": 67, "velocity": 108, "channel": 0}, {"type": "note_off", "time": 83, "note": 67, "velocity": 108, "channel": 0}, {"type": "note_on", "time": 15, "note": 69, "velocity": 109, "channel": 0}, {"type": "note_off", "time": 78, "note": 69, "velocity": 109, "channel": 0}, {"type": "note_on", "time": 11, "note": 70, "velocity": 111, "channel": 0}, {"type": "note_off", "time": 88, "note": 70, "velocity": 111, "channel": 0}, {"type": "note_on", "time": 15, "note": 70, "velocity": 110, "channel": 0}, {"type": "note_off", "time": 75, "note": 70, "velocity": 110, "channel": 0}, {"type": "note_on", "time": 13, "note": 69, "velocity": 109, "channel": 0}, {"type": "note_off", "time": 80, "note": 69, "velocity": 109, "channel": 0}, {"type": "note_on", "time": 15, "note": 67, "velocity": 105, "channel": 0}, {"type": "note_off", "time": 77, "note": 67, "velocity": 105, "channel": 0}, {"type": "note_on", "time": 29, "note": 65, "velocity": 108, "channel": 0}, {"type": "note_off", "time": 66, "note": 65, "velocity": 108, "channel": 0}, {"type": "note_on", "time": 25, "note": 63, "velocity": 114, "channel": 0}, {"type": "note_off", "time": 78, "note": 63, "velocity": 114, "channel": 0}, {"type": "note_on", "time": 12, "note": 62, "velocity": 108, "channel": 0}, {"type": "note_off", "time": 71, "note": 62, "velocity": 108, "channel": 0}, {"type": "note_on", "time": 19, "note": 60, "velocity": 100, "channel": 0}, {"type": "note_off", "time": 74, "note": 60, "velocity": 100, "channel": 0}, {"type": "note_on", "time": 13, "note": 58, "velocity": 107, "channel": 0}, {"type": "note_off", "time": 74, "note": 58, "velocity": 107, "channel": 0}, {"type": "note_on", "time": 38, "note": 60, "velocity": 102, "channel": 0}, {"type": "note_off", "time": 47, "note": 60, "velocity": 102, "channel": 0}, {"type": "note_on", "time": 10, "note": 62, "velocity": 94, "channel": 0}, {"type": "note_off", "time": 58, "note": 62, "velocity": 94, "channel": 0}, {"type": "note_on", "time": 10, "note": 63, "velocity": 92, "channel": 0}, {"type": "note_off", "time": 42, "note": 63, "velocity": 92, "channel": 0}, {"type": "note_on", "time": 15, "note": 65, "velocity": 110, "channel": 0}, {"type": "note_off", "time": 60, "note": 65, "velocity": 110, "channel": 0}, {"type": "note_on", "time": 6, "note": 62, "velocity": 112, "channel": 0}, {"type": "note_off", "time": 77, "note": 62, "velocity": 112, "channel": 0}, {"type": "note_on", "time": 4, "note": 63, "velocity": 111, "channel": 0}, {"type": "note_off", "time": 23, "note": 63, "velocity": 111, "channel": 0}, {"type": "note_on", "time": 19, "note": 63, "velocity": 108, "channel": 0}, {"type": "note_off", "time": 75, "note": 63, "velocity": 108, "channel": 0}, {"type": "note_on", "time": 133, "note": 73, "velocity": 81, "channel": 0}, {"type": "note_off", "time": 47, "note": 73, "velocity": 81, "channel": 0}, {"type": "note_on", "time": 29, "note": 73, "velocity": 101, "channel": 0}, {"type": "note_off", "time": 72, "note": 73, "velocity": 101, "channel": 0}, {"type": "note_on", "time": 32, "note": 75, "velocity": 106, "channel": 0}, {"type": "note_off", "time": 59, "note": 75, "velocity": 106, "channel": 0}, {"type": "note_on", "time": 11, "note": 75, "velocity": 97, "channel": 0}, {"type": "note_off", "time": 37, "note": 75, "velocity": 97, "channel": 0}, {"type": "note_on", "time": 12, "note": 77, "velocity": 104, "channel": 0}, {"type": "note_off", "time": 99, "note": 77, "velocity": 104, "channel": 0}, {"type": "note_on", "time": 290, "note": 73, "velocity": 109, "channel": 0}, {"type": "note_off", "time": 105, "note": 73, "velocity": 109, "channel": 0}, {"type": "note_on", "time": 8, "note": 71, "velocity": 114, "channel": 0}, {"type": "note_off", "time": 75, "note": 71, "velocity": 114, "channel": 0}, {"type": "note_on", "time": 12, "note": 70, "velocity": 114, "channel": 0}, {"type": "note_off", "time": 80, "note": 70, "velocity": 114, "channel": 0}, {"type": "note_on", "time": 12, "note": 69, "velocity": 113, "channel": 0}, {"type": "note_off", "time": 101, "note": 69, "velocity": 113, "channel": 0}, {"type": "note_on", "time": 14, "note": 67, "velocity": 87, "channel": 0}, {"type": "note_off", "time": 50, "note": 67, "velocity": 87, "channel": 0}, {"type": "note_on", "time": 2, "note": 68, "velocity": 113, "channel": 0}, {"type": "note_off", "time": 110, "note": 68, "velocity": 113, "channel": 0}, {"type": "note_on", "time": 6, "note": 65, "velocity": 110, "channel": 0}, {"type": "note_off", "time": 76, "note": 65, "velocity": 110, "channel": 0}, {"type": "note_on", "time": 33, "note": 63, "velocity": 116, "channel": 0}, {"type": "note_off", "time": 87, "note": 63, "velocity": 116, "channel": 0}, {"type": "note_on", "time": 19, "note": 61, "velocity": 110, "channel": 0}, {"type": "note_off", "time": 59, "note": 61, "velocity": 110, "channel": 0}, {"type": "note_on", "time": 14, "note": 60, "velocity": 109, "channel": 0}, {"type": "note_off", "time": 68, "note": 60, "velocity": 109, "channel": 0}, {"type": "note_on", "time": 23, "note": 61, "velocity": 103, "channel": 0}, {"type": "note_off", "time": 77, "note": 61, "velocity": 103, "channel": 0}, {"type": "note_on", "time": 101, "note": 72, "velocity": 105, "channel": 0}, {"type": "note_off", "time": 58, "note": 72, "velocity": 105, "channel": 0}, {"type": "note_on", "time": 51, "note": 75, "velocity": 105, "channel": 0}, {"type": "note_off", "time": 52, "note": 75, "velocity": 105, "channel": 0}, {"type": "note_on", "time": 17, "note": 75, "velocity": 105, "channel": 0}, {"type": "note_off", "time": 63, "note": 75, "velocity": 105, "channel": 0}, {"type": "note_on", "time": 27, "note": 76, "velocity": 118, "channel": 0}, {"type": "note_off", "time": 90, "note": 76, "velocity": 118, "channel": 0}, {"type": "note_on", "time": 11, "note": 75, "velocity": 103, "channel": 0}, {"type": "note_off", "time": 263, "note": 75, "velocity": 103, "channel": 0}, {"type": "note_on", "time": 124, "note": 73, "velocity": 108, "channel": 0}, {"type": "note_off", "time": 96, "note": 73, "velocity": 108, "channel": 0}, {"type": "note_on", "time": 5, "note": 72, "velocity": 113, "channel": 0}, {"type": "note_off", "time": 64, "note": 72, "velocity": 113, "channel": 0}, {"type": "note_on", "time": 50, "note": 69, "velocity": 108, "channel": 0}, {"type": "note_off", "time": 34, "note": 69, "velocity": 108, "channel": 0}, {"type": "note_on", "time": 12, "note": 70, "velocity": 113, "channel": 0}, {"type": "note_off", "time": 80, "note": 70, "velocity": 113, "channel": 0}, {"type": "note_on", "time": 29, "note": 70, "velocity": 110, "channel": 0}, {"type": "note_off", "time": 57, "note": 70, "velocity": 110, "channel": 0}, {"type": "note_on", "time": 12, "note": 69, "velocity": 111, "channel": 0}, {"type": "note_off", "time": 94, "note": 69, "velocity": 111, "channel": 0}, {"type": "note_on", "time": 11, "note": 65, "velocity": 104, "channel": 0}, {"type": "note_off", "time": 98, "note": 65, "velocity": 104, "channel": 0}, {"type": "note_on", "time": 160, "note": 64, "velocity": 114, "channel": 0}, {"type": "note_off", "time": 122, "note": 64, "velocity": 114, "channel": 0}, {"type": "note_on", "time": 186, "note": 57, "velocity": 107, "channel": 0}, {"type": "note_off", "time": 86, "note": 57, "velocity": 107, "channel": 0}, {"type": "note_on", "time": 4, "note": 61, "velocity": 110, "channel": 0}, {"type": "note_off", "time": 92, "note": 61, "velocity": 110, "channel": 0}, {"type": "note_on", "time": 3, "note": 62, "velocity": 93, "channel": 0}, {"type": "note_off", "time": 72, "note": 62, "velocity": 93, "channel": 0}, {"type": "note_on", "time": 11, "note": 64, "velocity": 113, "channel": 0}, {"type": "note_off", "time": 101, "note": 64, "velocity": 113, "channel": 0}, {"type": "note_on", "time": 2, "note": 65, "velocity": 110, "channel": 0}, {"type": "note_off", "time": 76, "note": 65, "velocity": 110, "channel": 0}, {"type": "note_on", "time": 11, "note": 62, "velocity": 113, "channel": 0}, {"type": "note_off", "time": 107, "note": 62, "velocity": 113, "channel": 0}, {"type": "note_on", "time": 646, "note": 61, "velocity": 114, "channel": 0}, {"type": "note_off", "time": 53, "note": 61, "velocity": 114, "channel": 0}, {"type": "note_on", "time": 1, "note": 62, "velocity": 112, "channel": 0}, {"type": "note_off", "time": 38, "note": 62, "velocity": 112, "channel": 0}, {"type": "note_on", "time": 7, "note": 65, "velocity": 110, "channel": 0}, {"type": "note_off", "time": 46, "note": 65, "velocity": 110, "channel": 0}, {"type": "note_on", "time": 5, "note": 64, "velocity": 117, "channel": 0}, {"type": "note_off", "time": 46, "note": 64, "velocity": 117, "channel": 0}, {"type": "note_on", "time": 9, "note": 63, "velocity": 113, "channel": 0}, {"type": "note_off", "time": 55, "note": 63, "velocity": 113, "channel": 0}, {"type": "note_on", "time": 5, "note": 67, "velocity": 102, "channel": 0}, {"type": "note_off", "time": 71, "note": 67, "velocity": 102, "channel": 0}, {"type": "note_on", "time": 7, "note": 70, "velocity": 103, "channel": 0}, {"type": "note_off", "time": 34, "note": 70, "velocity": 103, "channel": 0}, {"type": "note_on", "time": 3, "note": 74, "velocity": 112, "channel": 0}, {"type": "note_off", "time": 41, "note": 74, "velocity": 112, "channel": 0}, {"type": "note_on", "time": 11, "note": 72, "velocity": 108, "channel": 0}, {"type": "note_off", "time": 21, "note": 72, "velocity": 108, "channel": 0}, {"type": "note_on", "time": 4, "note": 70, "velocity": 109, "channel": 0}, {"type": "note_off", "time": 44, "note": 70, "velocity": 109, "channel": 0}, {"type": "note_on", "time": 3, "note": 67, "velocity": 99, "channel": 0}, {"type": "note_off", "time": 28, "note": 67, "velocity": 99, "channel": 0}, {"type": "note_on", "time": 12, "note": 69, "velocity": 110, "channel": 0}, {"type": "note_off", "time": 47, "note": 69, "velocity": 110, "channel": 0}, {"type": "note_on", "time": 10, "note": 72, "velocity": 109, "channel": 0}, {"type": "note_off", "time": 41, "note": 72, "velocity": 109, "channel": 0}, {"type": "note_on", "time": 3, "note": 71, "velocity": 112, "channel": 0}, {"type": "note_off", "time": 41, "note": 71, "velocity": 112, "channel": 0}, {"type": "note_on", "time": 10, "note": 69, "velocity": 104, "channel": 0}, {"type": "note_off", "time": 30, "note": 69, "velocity": 104, "channel": 0}, {"type": "note_on", "time": 18, "note": 69, "velocity": 111, "channel": 0}, {"type": "note_off", "time": 45, "note": 69, "velocity": 111, "channel": 0}, {"type": "note_on", "time": 9, "note": 66, "velocity": 107, "channel": 0}, {"type": "note_off", "time": 44, "note": 66, "velocity": 107, "channel": 0}, {"type": "note_on", "time": 5, "note": 65, "velocity": 107, "channel": 0}, {"type": "note_off", "time": 25, "note": 65, "velocity": 107, "channel": 0}, {"type": "note_on", "time": 5, "note": 64, "velocity": 113, "channel": 0}, {"type": "note_off", "time": 53, "note": 64, "velocity": 113, "channel": 0}, {"type": "note_on", "time": 9, "note": 63, "velocity": 110, "channel": 0}, {"type": "note_off", "time": 29, "note": 63, "velocity": 110, "channel": 0}, {"type": "note_on", "time": 2, "note": 65, "velocity": 106, "channel": 0}, {"type": "note_off", "time": 40, "note": 65, "velocity": 106, "channel": 0}, {"type": "note_on", "time": 7, "note": 60, "velocity": 105, "channel": 0}, {"type": "note_off", "time": 39, "note": 60, "velocity": 105, "channel": 0}, {"type": "note_on", "time": 5, "note": 63, "velocity": 114, "channel": 0}, {"type": "note_off", "time": 39, "note": 63, "velocity": 114, "channel": 0}, {"type": "note_on", "time": 4, "note": 62, "velocity": 110, "channel": 0}, {"type": "note_off", "time": 52, "note": 62, "velocity": 110, "channel": 0}, {"type": "note_on", "time": 11, "note": 60, "velocity": 103, "channel": 0}, {"type": "note_off", "time": 31, "note": 60, "velocity": 103, "channel": 0}, {"type": "note_on", "time": 11, "note": 58, "velocity": 109, "channel": 0}, {"type": "note_off", "time": 19, "note": 58, "velocity": 109, "channel": 0}, {"type": "note_on", "time": 6, "note": 57, "velocity": 104, "channel": 0}, {"type": "note_off", "time": 48, "note": 57, "velocity": 104, "channel": 0}, {"type": "note_on", "time": 4, "note": 58, "velocity": 104, "channel": 0}, {"type": "note_off", "time": 103, "note": 58, "velocity": 104, "channel": 0}, {"type": "note_on", "time": 380, "note": 69, "velocity": 112, "channel": 0}, {"type": "note_off", "time": 41, "note": 69, "velocity": 112, "channel": 0}, {"type": "note_on", "time": 3, "note": 67, "velocity": 111, "channel": 0}, {"type": "note_off", "time": 36, "note": 67, "velocity": 111, "channel": 0}, {"type": "note_on", "time": 8, "note": 66, "velocity": 110, "channel": 0}, {"type": "note_off", "time": 65, "note": 66, "velocity": 110, "channel": 0}, {"type": "note_on", "time": 37, "note": 63, "velocity": 113, "channel": 0}, {"type": "note_off", "time": 75, "note": 63, "velocity": 113, "channel": 0}, {"type": "note_on", "time": 7, "note": 62, "velocity": 113, "channel": 0}, {"type": "note_off", "time": 110, "note": 62, "velocity": 113, "channel": 0}, {"type": "note_on", "time": 6, "note": 60, "velocity": 107, "channel": 0}, {"type": "note_off", "time": 46, "note": 60, "velocity": 107, "channel": 0}, {"type": "note_on", "time": 2, "note": 58, "velocity": 107, "channel": 0}, {"type": "note_off", "time": 95, "note": 58, "velocity": 107, "channel": 0}, {"type": "note_on", "time": 52, "note": 62, "velocity": 112, "channel": 0}, {"type": "note_off", "time": 118, "note": 62, "velocity": 112, "channel": 0}, {"type": "note_on", "time": 13, "note": 65, "velocity": 109, "channel": 0}, {"type": "note_off", "time": 90, "note": 65, "velocity": 109, "channel": 0}, {"type": "note_on", "time": 8, "note": 64, "velocity": 116, "channel": 0}, {"type": "note_off", "time": 108, "note": 64, "velocity": 116, "channel": 0}, {"type": "note_on", "time": 62, "note": 62, "velocity": 112, "channel": 0}, {"type": "note_off", "time": 106, "note": 62, "velocity": 112, "channel": 0}, {"type": "note_on", "time": 9, "note": 64, "velocity": 117, "channel": 0}, {"type": "note_off", "time": 76, "note": 64, "velocity": 117, "channel": 0}, {"type": "note_on", "time": 13, "note": 65, "velocity": 112, "channel": 0}, {"type": "note_off", "time": 85, "note": 65, "velocity": 112, "channel": 0}, {"type": "note_on", "time": 14, "note": 67, "velocity": 110, "channel": 0}, {"type": "note_off", "time": 71, "note": 67, "velocity": 110, "channel": 0}, {"type": "note_on", "time": 23, "note": 69, "velocity": 113, "channel": 0}, {"type": "note_off", "time": 74, "note": 69, "velocity": 113, "channel": 0}, {"type": "note_on", "time": 16, "note": 70, "velocity": 110, "channel": 0}, {"type": "note_off", "time": 75, "note": 70, "velocity": 110, "channel": 0}, {"type": "note_on", "time": 16, "note": 72, "velocity": 108, "channel": 0}, {"type": "note_off", "time": 125, "note": 72, "velocity": 108, "channel": 0}, {"type": "note_on", "time": 16, "note": 70, "velocity": 111, "channel": 0}, {"type": "note_off", "time": 61, "note": 70, "velocity": 111, "channel": 0}, {"type": "note_on", "time": 10, "note": 69, "velocity": 112, "channel": 0}, {"type": "note_off", "time": 57, "note": 69, "velocity": 112, "channel": 0}, {"type": "note_on", "time": 45, "note": 70, "velocity": 112, "channel": 0}, {"type": "note_off", "time": 74, "note": 70, "velocity": 112, "channel": 0}, {"type": "note_on", "time": 10, "note": 69, "velocity": 110, "channel": 0}, {"type": "note_off", "time": 107, "note": 69, "velocity": 110, "channel": 0}, {"type": "note_on", "time": 75, "note": 65, "velocity": 108, "channel": 0}, {"type": "note_off", "time": 112, "note": 65, "velocity": 108, "channel": 0}, {"type": "note_on", "time": 9, "note": 62, "velocity": 93, "channel": 0}, {"type": "note_off", "time": 41, "note": 62, "velocity": 93, "channel": 0}, {"type": "note_on", "time": 10, "note": 65, "velocity": 103, "channel": 0}, {"type": "note_off", "time": 198, "note": 65, "velocity": 103, "channel": 0}, {"type": "note_on", "time": 203, "note": 64, "velocity": 117, "channel": 0}, {"type": "note_off", "time": 65, "note": 64, "velocity": 117, "channel": 0}, {"type": "note_on", "time": 9, "note": 65, "velocity": 102, "channel": 0}, {"type": "note_off", "time": 33, "note": 65, "velocity": 102, "channel": 0}, {"type": "note_on", "time": 9, "note": 64, "velocity": 104, "channel": 0}, {"type": "note_off", "time": 65, "note": 64, "velocity": 104, "channel": 0}, {"type": "note_on", "time": 21, "note": 63, "velocity": 113, "channel": 0}, {"type": "note_off", "time": 75, "note": 63, "velocity": 113, "channel": 0}, {"type": "note_on", "time": 13, "note": 64, "velocity": 112, "channel": 0}, {"type": "note_off", "time": 80, "note": 64, "velocity": 112, "channel": 0}, {"type": "note_on", "time": 15, "note": 65, "velocity": 109, "channel": 0}, {"type": "note_off", "time": 86, "note": 65, "velocity": 109, "channel": 0}, {"type": "note_on", "time": 16, "note": 64, "velocity": 116, "channel": 0}, {"type": "note_off", "time": 66, "note": 64, "velocity": 116, "channel": 0}, {"type": "note_on", "time": 6, "note": 61, "velocity": 106, "channel": 0}, {"type": "note_off", "time": 93, "note": 61, "velocity": 106, "channel": 0}, {"type": "note_on", "time": 46, "note": 57, "velocity": 95, "channel": 0}, {"type": "note_off", "time": 40, "note": 57, "velocity": 95, "channel": 0}, {"type": "note_on", "time": 15, "note": 62, "velocity": 112, "channel": 0}, {"type": "note_off", "time": 86, "note": 62, "velocity": 112, "channel": 0}, {"type": "note_on", "time": 14, "note": 64, "velocity": 113, "channel": 0}, {"type": "note_off", "time": 86, "note": 64, "velocity": 113, "channel": 0}, {"type": "note_on", "time": 22, "note": 65, "velocity": 111, "channel": 0}, {"type": "note_off", "time": 84, "note": 65, "velocity": 111, "channel": 0}, {"type": "note_on", "time": 13, "note": 67, "velocity": 86, "channel": 0}, {"type": "note_off", "time": 52, "note": 67, "velocity": 86, "channel": 0}, {"type": "note_on", "time": 11, "note": 69, "velocity": 111, "channel": 0}, {"type": "note_off", "time": 93, "note": 69, "velocity": 111, "channel": 0}, {"type": "note_on", "time": 25, "note": 67, "velocity": 108, "channel": 0}, {"type": "note_off", "time": 72, "note": 67, "velocity": 108, "channel": 0}, {"type": "note_on", "time": 8, "note": 68, "velocity": 108, "channel": 0}, {"type": "note_off", "time": 87, "note": 68, "velocity": 108, "channel": 0}, {"type": "note_on", "time": 9, "note": 71, "velocity": 109, "channel": 0}, {"type": "note_off", "time": 92, "note": 71, "velocity": 109, "channel": 0}, {"type": "note_on", "time": 11, "note": 69, "velocity": 109, "channel": 0}, {"type": "note_off", "time": 70, "note": 69, "velocity": 109, "channel": 0}, {"type": "note_on", "time": 44, "note": 67, "velocity": 105, "channel": 0}, {"type": "note_off", "time": 68, "note": 67, "velocity": 105, "channel": 0}, {"type": "note_on", "time": 6, "note": 68, "velocity": 104, "channel": 0}, {"type": "note_off", "time": 89, "note": 68, "velocity": 104, "channel": 0}, {"type": "note_on", "time": 1, "note": 67, "velocity": 104, "channel": 0}, {"type": "note_off", "time": 77, "note": 67, "velocity": 104, "channel": 0}, {"type": "note_on", "time": 27, "note": 66, "velocity": 104, "channel": 0}, {"type": "note_off", "time": 96, "note": 66, "velocity": 104, "channel": 0}, {"type": "note_on", "time": 9, "note": 64, "velocity": 96, "channel": 0}, {"type": "note_off", "time": 49, "note": 64, "velocity": 96, "channel": 0}, {"type": "note_on", "time": 12, "note": 65, "velocity": 106, "channel": 0}, {"type": "note_off", "time": 90, "note": 65, "velocity": 106, "channel": 0}, {"type": "note_on", "time": 8, "note": 63, "velocity": 108, "channel": 0}, {"type": "note_off", "time": 88, "note": 63, "velocity": 108, "channel": 0}, {"type": "note_on", "time": 19, "note": 62, "velocity": 106, "channel": 0}, {"type": "note_off", "time": 83, "note": 62, "velocity": 106, "channel": 0}, {"type": "note_on", "time": 4, "note": 58, "velocity": 98, "channel": 0}, {"type": "note_off", "time": 75, "note": 58, "velocity": 98, "channel": 0}, {"type": "end_of_track", "time": 0}]]}