{"ticks_per_beat": 192, "tracks": [[{"type": "track_name", "name": "Melody", "time": 0}, {"type": "set_tempo", "tempo": 188679, "time": 0}, {"type": "time_signature", "numerator": 4, "denominator": 4, "clocks_per_click": 24, "notated_32nd_notes_per_beat": 8, "time": 0}, {"type": "note_on", "time": 1162, "note": 53, "velocity": 107, "channel": 0}, {"type": "note_off", "time": 67, "note": 53, "velocity": 107, "channel": 0}, {"type": "note_on", "time": 11, "note": 58, "velocity": 106, "channel": 0}, {"type": "note_off", "time": 103, "note": 58, "velocity": 106, "channel": 0}, {"type": "note_on", "time": 0, "note": 60, "velocity": 113, "channel": 0}, {"type": "note_off", "time": 70, "note": 60, "velocity": 113, "channel": 0}, {"type": "note_on", "time": 5, "note": 61, "velocity": 114, "channel": 0}, {"type": "note_off", "time": 112, "note": 61, "velocity": 114, "channel": 0}, {"type": "note_on", "time": 2, "note": 63, "velocity": 121, "channel": 0}, {"type": "note_off", "time": 100, "note": 63, "velocity": 121, "channel": 0}, {"type": "note_on", "time": 1, "note": 65, "velocity": 113, "channel": 0}, {"type": "note_off", "time": 64, "note": 65, "velocity": 113, "channel": 0}, {"type": "note_on", "time": 2, "note": 67, "velocity": 113, "channel": 0}, {"type": "note_off", "time": 59, "note": 67, "velocity": 113, "channel": 0}, {"type": "note_on", "time": 5, "note": 68, "velocity": 119, "channel": 0}, {"type": "note_off", "time": 50, "note": 68, "velocity": 119, "channel": 0}, {"type": "note_on", "time": 4, "note": 67, "velocity": 111, "channel": 0}, {"type": "note_off", "time": 103, "note": 67, "velocity": 111, "channel": 0}, {"type": "note_on", "time": 490, "note": 66, "velocity": 105, "channel": 0}, {"type": "note_off", "time": 29, "note": 66, "velocity": 105, "channel": 0}, {"type": "note_on", "time": 4, "note": 65, "velocity": 116, "channel": 0}, {"type": "note_off", "time": 70, "note": 65, "velocity": 116, "channel": 0}, {"type": "note_on", "time": 1, "note": 67, "velocity": 107, "channel": 0}, {"type": "note_off", "time": 45, "note": 67, "velocity": 107, "channel": 0}, {"type": "note_on", "time": 1, "note": 65, "velocity": 105, "channel": 0}, {"type": "note_off", "time": 90, "note": 65, "velocity": 105, "channel": 0}, {"type": "note_on", "time": 417, "note": 64, "velocity": 85, "channel": 0}, {"type": "note_off", "time": 43, "note": 64, "velocity": 85, "channel": 0}, {"type": "note_on", "time": 1, "note": 65, "velocity": 116, "channel": 0}, {"type": "note_off", "time": 50, "note": 65, "velocity": 116, "channel": 0}, {"type": "note_on", "time": 1, "note": 63, "velocity": 110, "channel": 0}, {"type": "note_off", "time": 169, "note": 63, "velocity": 110, "channel": 0}, {"type": "note_on", "time": 425, "note": 62, "velocity": 121, "channel": 0}, {"type": "note_off", "time": 40, "note": 62, "velocity": 121, "channel": 0}, {"type": "note_on", "time": 0, "note": 63, "velocity": 118, "channel": 0}, {"type": "note_off", "time": 51, "note": 63, "velocity": 118, "channel": 0}, {"type": "note_on", "time": 2, "note": 62, "velocity": 108, "channel": 0}, {"type": "note_off", "time": 109, "note": 62, "velocity": 108, "channel": 0}, {"type": "note_on", "time": 352, "note": 60, "velocity": 111, "channel": 0}, {"type": "note_off", "time": 211, "note": 60, "velocity": 111, "channel": 0}, {"type": "note_on", "time": 16, "note": 55, "velocity": 105, "channel": 0}, {"type": "note_off", "time": 184, "note": 55, "velocity": 105, "channel": 0}, {"type": "note_on", "time": 10, "note": 53, "velocity": 106, "channel": 0}, {"type": "note_off", "time": 205, "note": 53, "velocity": 106, "channel": 0}, {"type": "note_on", "time": 8, "note": 54, "velocity": 108, "channel": 0}, {"type": "note_off", "time": 141, "note": 54, "velocity": 108, "channel": 0}, {"type": "note_on", "time": 43, "note": 62, "velocity": 114, "channel": 0}, {"type": "note_off", "time": 519, "note": 62, "velocity": 114, "channel": 0}, {"type": "note_on", "time": 6, "note": 63, "velocity": 119, "channel": 0}, {"type": "note_off", "time": 94, "note": 63, "velocity": 119, "channel": 0}, {"type": "note_on", "time": 4, "note": 62, "velocity": 113, "channel": 0}, {"type": "note_off", "time": 115, "note": 62, "velocity": 113, "channel": 0}, {"type": "note_on", "time": 5, "note": 60, "velocity": 106, "channel": 0}, {"type": "note_off", "time": 75, "note": 60, "velocity": 106, "channel": 0}, {"type": "note_on", "time": 7, "note": 59, "velocity": 102, "channel": 0}, {"type": "note_off", "time": 85, "note": 59, "velocity": 102, "channel": 0}, {"type": "note_on", "time": 4, "note": 56, "velocity": 104, "channel": 0}, {"type": "note_off", "time": 66, "note": 56, "velocity": 104, "channel": 0}, {"type": "note_on", "time": 7, "note": 55, "velocity": 101, "channel": 0}, {"type": "note_off", "time": 95, "note": 55, "velocity": 101, "channel": 0}, {"type": "note_on", "time": 16, "note": 54, "velocity": 103, "channel": 0}, {"type": "note_off", "time": 90, "note": 54, "velocity": 103, "channel": 0}, {"type": "note_on", "time": 13, "note": 53, "velocity": 103, "channel": 0}, {"type": "note_off", "time": 88, "note": 53, "velocity": 103, "channel": 0}, {"type": "note_on", "time": 16, "note": 52, "velocity": 104, "channel": 0}, {"type": "note_off", "time": 63, "note": 52, "velocity": 104, "channel": 0}, {"type": "note_on", "time": 5, "note": 51, "velocity": 110, "channel": 0}, {"type": "note_off", "time": 95, "note": 51, "velocity": 110, "channel": 0}, {"type": "note_on", "time": 5, "note": 48, "velocity": 107, "channel": 0}, {"type": "note_off", "time": 137, "note": 48, "velocity": 107, "channel": 0}, {"type": "note_on", "time": 2, "note": 46, "velocity": 109, "channel": 0}, {"type": "note_off", "time": 150, "note": 46, "velocity": 109, "channel": 0}, {"type": "note_on", "time": 4, "note": 45, "velocity": 108, "channel": 0}, {"type": "note_off", "time": 302, "note": 45, "velocity": 108, "channel": 0}, {"type": "note_on", "time": 1401, "note": 55, "velocity": 105, "channel": 0}, {"type": "note_off", "time": 73, "note": 55, "velocity": 105, "channel": 0}, {"type": "note_on", "time": 8, "note": 60, "velocity": 102, "channel": 0}, {"type": "note_off", "time": 100, "note": 60, "velocity": 102, "channel": 0}, {"type": "note_on", "time": 7, "note": 63, "velocity": 104, "channel": 0}, {"type": "note_off", "time": 62, "note": 63, "velocity": 104, "channel": 0}, {"type": "note_on", "time": 4, "note": 64, "velocity": 114, "channel": 0}, {"type": "note_on", "time": 41, "note": 67, "velocity": 112, "channel": 0}, {"type": "note_off", "time": 0, "note": 64, "velocity": 114, "channel": 0}, {"type": "note_off", "time": 107, "note": 67, "velocity": 112, "channel": 0}, {"type": "note_on", "time": 367, "note": 67, "velocity": 108, "channel": 0}, {"type": "note_off", "time": 57, "note": 67, "velocity": 108, "channel": 0}, {"type": "note_on", "time": 5, "note": 64, "velocity": 115, "channel": 0}, {"type": "note_off", "time": 75, "note": 64, "velocity": 115, "channel": 0}, {"type": "note_on", "time": 4, "note": 60, "velocity": 107, "channel": 0}, {"type": "note_off", "time": 91, "note": 60, "velocity": 107, "channel": 0}, {"type": "note_on", "time": 2, "note": 56, "velocity": 105, "channel": 0}, {"type": "note_off", "time": 62, "note": 56, "velocity": 105, "channel": 0}, {"type": "note_on", "time": 4, "note": 55, "velocity": 112, "channel": 0}, {"type": "note_off", "time": 95, "note": 55, "velocity": 112, "channel": 0}, {"type": "note_on", "time": 411, "note": 55, "velocity": 105, "channel": 0}, {"type": "note_off", "time": 67, "note": 55, "velocity": 105, "channel": 0}, {"type": "note_on", "time": 2, "note": 56, "velocity": 108, "channel": 0}, {"type": "note_off", "time": 86, "note": 56, "velocity": 108, "channel": 0}, {"type": "note_on", "time": 9, "note": 59, "velocity": 99, "channel": 0}, {"type": "note_off", "time": 61, "note": 59, "velocity": 99, "channel": 0}, {"type": "note_on", "time": 4, "note": 62, "velocity": 108, "channel": 0}, {"type": "note_off", "time": 40, "note": 62, "velocity": 108, "channel": 0}, {"type": "note_on", "time": 2, "note": 63, "velocity": 108, "channel": 0}, {"type": "note_off", "time": 35, "note": 63, "velocity": 108, "channel": 0}, {"type": "note_on", "time": 5, "note": 67, "velocity": 113, "channel": 0}, {"type": "note_off", "time": 273, "note": 67, "velocity": 113, "channel": 0}, {"type": "note_on", "time": 2, "note": 65, "velocity": 111, "channel": 0}, {"type": "note_off", "time": 45, "note": 65, "velocity": 111, "channel": 0}, {"type": "note_on", "time": 3, "note": 63, "velocity": 115, "channel": 0}, {"type": "note_off", "time": 45, "note": 63, "velocity": 115, "channel": 0}, {"type": "note_on", "time": 4, "note": 62, "velocity": 115, "channel": 0}, {"type": "note_off", "time": 49, "note": 62, "velocity": 115, "channel": 0}, {"type": "note_on", "time": 8, "note": 60, "velocity": 108, "channel": 0}, {"type": "note_off", "time": 54, "note": 60, "velocity": 108, "channel": 0}, {"type": "note_on", "time": 21, "note": 59, "velocity": 104, "channel": 0}, {"type": "note_off", "time": 41, "note": 59, "velocity": 104, "channel": 0}, {"type": "note_on", "time": 30, "note": 56, "velocity": 104, "channel": 0}, {"type": "note_off", "time": 36, "note": 56, "velocity": 104, "channel": 0}, {"type": "note_on", "time": 3, "note": 55, "velocity": 104, "channel": 0}, {"type": "note_off", "time": 50, "note": 55, "velocity": 104, "channel": 0}, {"type": "note_on", "time": 8, "note": 53, "velocity": 104, "channel": 0}, {"type": "note_off", "time": 37, "note": 53, "velocity": 104, "channel": 0}, {"type": "note_on", "time": 8, "note": 51, "velocity": 108, "channel": 0}, {"type": "note_off", "time": 29, "note": 51, "velocity": 108, "channel": 0}, {"type": "note_on", "time": 5, "note": 48, "velocity": 110, "channel": 0}, {"type": "note_off", "time": 74, "note": 48, "velocity": 110, "channel": 0}, {"type": "note_on", "time": 1056, "note": 68, "velocity": 111, "channel": 0}, {"type": "note_off", "time": 118, "note": 68, "velocity": 111, "channel": 0}, {"type": "note_on", "time": 6, "note": 67, "velocity": 107, "channel": 0}, {"type": "note_off", "time": 74, "note": 67, "velocity": 107, "channel": 0}, {"type": "note_on", "time": 6, "note": 66, "velocity": 112, "channel": 0}, {"type": "note_off", "time": 87, "note": 66, "velocity": 112, "channel": 0}, {"type": "note_on", "time": 8, "note": 65, "velocity": 109, "channel": 0}, {"type": "note_off", "time": 80, "note": 65, "velocity": 109, "channel": 0}, {"type": "note_on", "time": 10, "note": 64, "velocity": 119, "channel": 0}, {"type": "note_off", "time": 83, "note": 64, "velocity": 119, "channel": 0}, {"type": "note_on", "time": 6, "note": 63, "velocity": 115, "channel": 0}, {"type": "note_off", "time": 91, "note": 63, "velocity": 115, "channel": 0}, {"type": "note_on", "time": 8, "note": 65, "velocity": 114, "channel": 0}, {"type": "note_off", "time": 87, "note": 65, "velocity": 114, "channel": 0}, {"type": "note_on", "time": 10, "note": 62, "velocity": 116, "channel": 0}, {"type": "note_off", "time": 97, "note": 62, "velocity": 116, "channel": 0}, {"type": "note_on", "time": 4, "note": 60, "velocity": 115, "channel": 0}, {"type": "note_off", "time": 76, "note": 60, "velocity": 115, "channel": 0}, {"type": "note_on", "time": 8, "note": 59, "velocity": 106, "channel": 0}, {"type": "note_off", "time": 91, "note": 59, "velocity": 106, "channel": 0}, {"type": "note_on", "time": 6, "note": 55, "velocity": 104, "channel": 0}, {"type": "note_off", "time": 60, "note": 55, "velocity": 104, "channel": 0}, {"type": "note_on", "time": 16, "note": 57, "velocity": 109, "channel": 0}, {"type": "note_off", "time": 72, "note": 57, "velocity": 109, "channel": 0}, {"type": "note_on", "time": 5, "note": 62, "velocity": 112, "channel": 0}, {"type": "note_off", "time": 96, "note": 62, "velocity": 112, "channel": 0}, {"type": "note_on", "time": 9, "note": 59, "velocity": 106, "channel": 0}, {"type": "note_off", "time": 100, "note": 59, "velocity": 106, "channel": 0}, {"type": "note_on", "time": 6, "note": 60, "velocity": 110, "channel": 0}, {"type": "note_off", "time": 124, "note": 60, "velocity": 110, "channel": 0}, {"type": "note_on", "time": 6, "note": 63, "velocity": 104, "channel": 0}, {"type": "note_off", "time": 78, "note": 63, "velocity": 104, "channel": 0}, {"type": "note_on", "time": 6, "note": 67, "velocity": 93, "channel": 0}, {"type": "note_off", "time": 77, "note": 67, "velocity": 93, "channel": 0}, {"type": "note_on", "time": 3, "note": 72, "velocity": 104, "channel": 0}, {"type": "note_off", "time": 111, "note": 72, "velocity": 104, "channel": 0}, {"type": "note_on", "time": 9, "note": 60, "velocity": 111, "channel": 0}, {"type": "note_off", "time": 96, "note": 60, "velocity": 111, "channel": 0}, {"type": "note_on", "time": 393, "note": 65, "velocity": 113, "channel": 0}, {"type": "note_off", "time": 110, "note": 65, "velocity": 113, "channel": 0}, {"type": "note_on", "time": 496, "note": 71, "velocity": 118, "channel": 0}, {"type": "note_off", "time": 137, "note": 71, "velocity": 118, "channel": 0}, {"type": "note_on", "time": 454, "note": 67, "velocity": 115, "channel": 0}, {"type": "note_off", "time": 114, "note": 67, "velocity": 115, "channel": 0}, {"type": "note_on", "time": 481, "note": 72, "velocity": 116, "channel": 0}, {"type": "note_off", "time": 118, "note": 72, "velocity": 116, "channel": 0}, {"type": "note_on", "time": 226, "note": 70, "velocity": 118, "channel": 0}, {"type": "note_off", "time": 110, "note": 70, "velocity": 118, "channel": 0}, {"type": "note_on", "time": 14, "note": 68, "velocity": 117, "channel": 0}, {"type": "note_off", "time": 87, "note": 68, "velocity": 117, "channel": 0}, {"type": "note_on", "time": 184, "note": 67, "velocity": 117, "channel": 0}, {"type": "note_off", "time": 99, "note": 67, "velocity": 117, "channel": 0}, {"type": "note_on", "time": 8, "note": 65, "velocity": 111, "channel": 0}, {"type": "note_off", "time": 101, "note": 65, "velocity": 111, "channel": 0}, {"type": "note_on", "time": 587, "note": 45, "velocity": 121, "channel": 0}, {"type": "note_off", "time": 512, "note": 45, "velocity": 121, "channel": 0}, {"type": "note_on", "time": 315, "note": 65, "velocity": 115, "channel": 0}, {"type": "note_off", "time": 251, "note": 65, "velocity": 115, "channel": 0}, {"type": "note_on", "time": 512, "note": 46, "velocity": 113, "channel": 0}, {"type": "note_off", "time": 284, "note": 46, "velocity": 113, "channel": 0}, {"type": "note_on", "time": 164, "note": 63, "velocity": 126, "channel": 0}, {"type": "note_off", "time": 261, "note": 63, "velocity": 126, "channel": 0}, {"type": "note_on", "time": 2, "note": 61, "velocity": 114, "channel": 0}, {"type": "note_off", "time": 76, "note": 61, "velocity": 114, "channel": 0}, {"type": "note_on", "time": 4, "note": 58, "velocity": 110, "channel": 0}, {"type": "note_off", "time": 103, "note": 58, "velocity": 110, "channel": 0}, {"type": "note_on", "time": 6, "note": 56, "velocity": 106, "channel": 0}, {"type": "note_off", "time": 70, "note": 56, "velocity": 106, "channel": 0}, {"type": "note_on", "time": 12, "note": 53, "velocity": 106, "channel": 0}, {"type": "note_off", "time": 141, "note": 53, "velocity": 106, "channel": 0}, {"type": "note_on", "time": 265, "note": 57, "velocity": 100, "channel": 0}, {"type": "note_off", "time": 359, "note": 57, "velocity": 100, "channel": 0}, {"type": "note_on", "time": 24, "note": 60, "velocity": 113, "channel": 0}, {"type": "note_off", "time": 118, "note": 60, "velocity": 113, "channel": 0}, {"type": "note_on", "time": 18, "note": 62, "velocity": 115, "channel": 0}, {"type": "note_off", "time": 83, "note": 62, "velocity": 115, "channel": 0}, {"type": "note_on", "time": 6, "note": 63, "velocity": 114, "channel": 0}, {"type": "note_off", "time": 101, "note": 63, "velocity": 114, "channel": 0}, {"type": "note_on", "time": 12, "note": 65, "velocity": 117, "channel": 0}, {"type": "note_off", "time": 62, "note": 65, "velocity": 117, "channel": 0}, {"type": "note_on", "time": 16, "note": 67, "velocity": 100, "channel": 0}, {"type": "note_off", "time": 76, "note": 67, "velocity": 100, "channel": 0}, {"type": "note_on", "time": 0, "note": 69, "velocity": 99, "channel": 0}, {"type": "note_off", "time": 85, "note": 69, "velocity": 99, "channel": 0}, {"type": "note_on", "time": 4, "note": 71, "velocity": 119, "channel": 0}, {"type": "note_off", "time": 168, "note": 71, "velocity": 119, "channel": 0}, {"type": "note_on", "time": 4, "note": 67, "velocity": 115, "channel": 0}, {"type": "note_off", "time": 126, "note": 67, "velocity": 115, "channel": 0}, {"type": "note_on", "time": 888, "note": 73, "velocity": 116, "channel": 0}, {"type": "note_off", "time": 195, "note": 73, "velocity": 116, "channel": 0}, {"type": "note_on", "time": 8, "note": 72, "velocity": 120, "channel": 0}, {"type": "note_off", "time": 76, "note": 72, "velocity": 120, "channel": 0}, {"type": "note_on", "time": 6, "note": 70, "velocity": 119, "channel": 0}, {"type": "note_off", "time": 70, "note": 70, "velocity": 119, "channel": 0}, {"type": "note_on", "time": 0, "note": 69, "velocity": 116, "channel": 0}, {"type": "note_off", "time": 128, "note": 69, "velocity": 116, "channel": 0}, {"type": "note_on", "time": 801, "note": 67, "velocity": 118, "channel": 0}, {"type": "note_off", "time": 627, "note": 67, "velocity": 118, "channel": 0}, {"type": "note_on", "time": 5, "note": 65, "velocity": 119, "channel": 0}, {"type": "note_off", "time": 73, "note": 65, "velocity": 119, "channel": 0}, {"type": "note_on", "time": 14, "note": 63, "velocity": 118, "channel": 0}, {"type": "note_off", "time": 67, "note": 63, "velocity": 118, "channel": 0}, {"type": "note_on", "time": 17, "note": 61, "velocity": 110, "channel": 0}, {"type": "note_off", "time": 73, "note": 61, "velocity": 110, "channel": 0}, {"type": "note_on", "time": 12, "note": 60, "velocity": 109, "channel": 0}, {"type": "note_off", "time": 3098, "note": 60, "velocity": 109, "channel": 0}, {"type": "note_on", "time": 4, "note": 61, "velocity": 117, "channel": 0}, {"type": "note_off", "time": 261, "note": 61, "velocity": 117, "channel": 0}, {"type": "note_on", "time": 1555, "note": 53, "velocity": 103, "channel": 0}, {"type": "note_off", "time": 88, "note": 53, "velocity": 103, "channel": 0}, {"type": "note_on", "time": 11, "note": 58, "velocity": 104, "channel": 0}, {"type": "note_off", "time": 103, "note": 58, "velocity": 104, "channel": 0}, {"type": "note_on", "time": 2, "note": 60, "velocity": 110, "channel": 0}, {"type": "note_off", "time": 67, "note": 60, "velocity": 110, "channel": 0}, {"type": "note_on", "time": 5, "note": 61, "velocity": 113, "channel": 0}, {"type": "note_off", "time": 82, "note": 61, "velocity": 113, "channel": 0}, {"type": "note_on", "time": 5, "note": 63, "velocity": 121, "channel": 0}, {"type": "note_off", "time": 89, "note": 63, "velocity": 121, "channel": 0}, {"type": "note_on", "time": 11, "note": 64, "velocity": 117, "channel": 0}, {"type": "note_off", "time": 99, "note": 64, "velocity": 117, "channel": 0}, {"type": "note_on", "time": 5, "note": 66, "velocity": 115, "channel": 0}, {"type": "note_off", "time": 76, "note": 66, "velocity": 115, "channel": 0}, {"type": "note_on", "time": 5, "note": 67, "velocity": 117, "channel": 0}, {"type": "note_off", "time": 93, "note": 67, "velocity": 117, "channel": 0}, {"type": "note_on", "time": 2, "note": 69, "velocity": 108, "channel": 0}, {"type": "note_off", "time": 67, "note": 69, "velocity": 108, "channel": 0}, {"type": "note_on", "time": 0, "note": 71, "velocity": 115, "channel": 0}, {"type": "note_off", "time": 124, "note": 71, "velocity": 115, "channel": 0}, {"type": "note_on", "time": 0, "note": 73, "velocity": 115, "channel": 0}, {"type": "note_off", "time": 89, "note": 73, "velocity": 115, "channel": 0}, {"type": "note_on", "time": 9, "note": 74, "velocity": 112, "channel": 0}, {"type": "note_off", "time": 83, "note": 74, "velocity": 112, "channel": 0}, {"type": "note_on", "time": 4, "note": 71, "velocity": 108, "channel": 0}, {"type": "note_off", "time": 112, "note": 71, "velocity": 108, "channel": 0}, {"type": "note_on", "time": 13, "note": 67, "velocity": 106, "channel": 0}, {"type": "note_off", "time": 70, "note": 67, "velocity": 106, "channel": 0}, {"type": "note_on", "time": 12, "note": 64, "velocity": 103, "channel": 0}, {"type": "note_off", "time": 87, "note": 64, "velocity": 103, "channel": 0}, {"type": "note_on", "time": 3, "note": 69, "velocity": 107, "channel": 0}, {"type": "note_off", "time": 101, "note": 69, "velocity": 107, "channel": 0}, {"type": "note_on", "time": 5, "note": 68, "velocity": 111, "channel": 0}, {"type": "note_off", "time": 95, "note": 68, "velocity": 111, "channel": 0}, {"type": "note_on", "time": 7, "note": 67, "velocity": 111, "channel": 0}, {"type": "note_off", "time": 60, "note": 67, "velocity": 111, "channel": 0}, {"type": "note_on", "time": 0, "note": 71, "velocity": 108, "channel": 0}, {"type": "note_off", "time": 93, "note": 71, "velocity": 108, "channel": 0}, {"type": "note_on", "time": 4, "note": 69, "velocity": 114, "channel": 0}, {"type": "note_off", "time": 82, "note": 69, "velocity": 114, "channel": 0}, {"type": "note_on", "time": 2, "note": 67, "velocity": 108, "channel": 0}, {"type": "note_off", "time": 95, "note": 67, "velocity": 108, "channel": 0}, {"type": "note_on", "time": 19, "note": 66, "velocity": 113, "channel": 0}, {"type": "note_off", "time": 78, "note": 66, "velocity": 113, "channel": 0}, {"type": "note_on", "time": 10, "note": 64, "velocity": 119, "channel": 0}, {"type": "note_off", "time": 91, "note": 64, "velocity": 119, "channel": 0}, {"type": "note_on", "time": 2, "note": 62, "velocity": 117, "channel": 0}, {"type": "note_off", "time": 178, "note": 62, "velocity": 117, "channel": 0}, {"type": "note_on", "time": 5, "note": 66, "velocity": 113, "channel": 0}, {"type": "note_off", "time": 165, "note": 66, "velocity": 113, "channel": 0}, {"type": "note_on", "time": 25, "note": 57, "velocity": 103, "channel": 0}, {"type": "note_off", "time": 190, "note": 57, "velocity": 103, "channel": 0}, {"type": "note_on", "time": 7, "note": 62, "velocity": 116, "channel": 0}, {"type": "note_off", "time": 186, "note": 62, "velocity": 116, "channel": 0}, {"type": "note_on", "time": 54, "note": 54, "velocity": 104, "channel": 0}, {"type": "note_off", "time": 141, "note": 54, "velocity": 104, "channel": 0}, {"type": "note_on", "time": 1, "note": 57, "velocity": 107, "channel": 0}, {"type": "note_off", "time": 180, "note": 57, "velocity": 107, "channel": 0}, {"type": "note_on", "time": 8, "note": 50, "velocity": 111, "channel": 0}, {"type": "note_off", "time": 196, "note": 50, "velocity": 111, "channel": 0}, {"type": "note_on", "time": 7, "note": 54, "velocity": 109, "channel": 0}, {"type": "note_off", "time": 205, "note": 54, "velocity": 109, "channel": 0}, {"type": "note_on", "time": 16, "note": 52, "velocity": 116, "channel": 0}, {"type": "note_off", "time": 279, "note": 52, "velocity": 116, "channel": 0}, {"type": "note_on", "time": 10, "note": 48, "velocity": 108, "channel": 0}, {"type": "note_off", "time": 160, "note": 48, "velocity": 108, "channel": 0}, {"type": "note_on", "time": 7, "note": 45, "velocity": 113, "channel": 0}, {"type": "note_off", "time": 546, "note": 45, "velocity": 113, "channel": 0}, {"type": "note_on", "time": 607, "note": 45, "velocity": 116, "channel": 0}, {"type": "note_off", "time": 87, "note": 45, "velocity": 116, "channel": 0}, {"type": "note_on", "time": 0, "note": 52, "velocity": 110, "channel": 0}, {"type": "note_off", "time": 87, "note": 52, "velocity": 110, "channel": 0}, {"type": "note_on", "time": 6, "note": 50, "velocity": 106, "channel": 0}, {"type": "note_off", "time": 110, "note": 50, "velocity": 106, "channel": 0}, {"type": "note_on", "time": 394, "note": 50, "velocity": 111, "channel": 0}, {"type": "note_off", "time": 70, "note": 50, "velocity": 111, "channel": 0}, {"type": "note_on", "time": 8, "note": 55, "velocity": 109, "channel": 0}, {"type": "note_off", "time": 101, "note": 55, "velocity": 109, "channel": 0}, {"type": "note_on", "time": 4, "note": 52, "velocity": 110, "channel": 0}, {"type": "note_off", "time": 107, "note": 52, "velocity": 110, "channel": 0}, {"type": "note_on", "time": 670, "note": 53, "velocity": 110, "channel": 0}, {"type": "note_off", "time": 87, "note": 53, "velocity": 110, "channel": 0}, {"type": "note_on", "time": 2, "note": 56, "velocity": 107, "channel": 0}, {"type": "note_off", "time": 72, "note": 56, "velocity": 107, "channel": 0}, {"type": "note_on", "time": 2, "note": 60, "velocity": 112, "channel": 0}, {"type": "note_off", "time": 80, "note": 60, "velocity": 112, "channel": 0}, {"type": "note_on", "time": 0, "note": 64, "velocity": 120, "channel": 0}, {"type": "note_off", "time": 93, "note": 64, "velocity": 120, "channel": 0}, {"type": "note_on", "time": 14, "note": 62, "velocity": 118, "channel": 0}, {"type": "note_off", "time": 105, "note": 62, "velocity": 118, "channel": 0}, {"type": "note_on", "time": 2, "note": 64, "velocity": 118, "channel": 0}, {"type": "note_off", "time": 103, "note": 64, "velocity": 118, "channel": 0}, {"type": "note_on", "time": 6, "note": 65, "velocity": 109, "channel": 0}, {"type": "note_off", "time": 103, "note": 65, "velocity": 109, "channel": 0}, {"type": "note_on", "time": 2, "note": 62, "velocity": 111, "channel": 0}, {"type": "note_off", "time": 60, "note": 62, "velocity": 111, "channel": 0}, {"type": "note_on", "time": 2, "note": 63, "velocity": 120, "channel": 0}, {"type": "note_off", "time": 85, "note": 63, "velocity": 120, "channel": 0}, {"type": "note_on", "time": 4, "note": 62, "velocity": 118, "channel": 0}, {"type": "note_off", "time": 116, "note": 62, "velocity": 118, "channel": 0}, {"type": "note_on", "time": 8, "note": 61, "velocity": 104, "channel": 0}, {"type": "note_off", "time": 47, "note": 61, "velocity": 104, "channel": 0}, {"type": "note_on", "time": 6, "note": 65, "velocity": 116, "channel": 0}, {"type": "note_off", "time": 83, "note": 65, "velocity": 116, "channel": 0}, {"type": "note_on", "time": 4, "note": 63, "velocity": 121, "channel": 0}, {"type": "note_off", "time": 101, "note": 63, "velocity": 121, "channel": 0}, {"type": "note_on", "time": 6, "note": 60, "velocity": 110, "channel": 0}, {"type": "note_off", "time": 74, "note": 60, "velocity": 110, "channel": 0}, {"type": "note_on", "time": 26, "note": 55, "velocity": 115, "channel": 0}, {"type": "note_off", "time": 72, "note": 55, "velocity": 115, "channel": 0}, {"type": "note_on", "time": 20, "note": 53, "velocity": 102, "channel": 0}, {"type": "note_off", "time": 91, "note": 53, "velocity": 102, "channel": 0}, {"type": "note_on", "time": 6, "note": 58, "velocity": 113, "channel": 0}, {"type": "note_off", "time": 101, "note": 58, "velocity": 113, "channel": 0}, {"type": "note_on", "time": 0, "note": 63, "velocity": 124, "channel": 0}, {"type": "note_off", "time": 93, "note": 63, "velocity": 124, "channel": 0}, {"type": "note_on", "time": 10, "note": 65, "velocity": 115, "channel": 0}, {"type": "note_off", "time": 87, "note": 65, "velocity": 115, "channel": 0}, {"type": "note_on", "time": 4, "note": 67, "velocity": 114, "channel": 0}, {"type": "note_off", "time": 89, "note": 67, "velocity": 114, "channel": 0}, {"type": "note_on", "time": 2, "note": 68, "velocity": 119, "channel": 0}, {"type": "note_off", "time": 74, "note": 68, "velocity": 119, "channel": 0}, {"type": "note_on", "time": 6, "note": 70, "velocity": 116, "channel": 0}, {"type": "note_off", "time": 101, "note": 70, "velocity": 116, "channel": 0}, {"type": "note_on", "time": 18, "note": 68, "velocity": 113, "channel": 0}, {"type": "note_off", "time": 1349, "note": 68, "velocity": 113, "channel": 0}, {"type": "note_on", "time": 4, "note": 65, "velocity": 114, "channel": 0}, {"type": "note_off", "time": 78, "note": 65, "velocity": 114, "channel": 0}, {"type": "note_on", "time": 10, "note": 63, "velocity": 111, "channel": 0}, {"type": "note_off", "time": 83, "note": 63, "velocity": 111, "channel": 0}, {"type": "note_on", "time": 8, "note": 61, "velocity": 114, "channel": 0}, {"type": "note_off", "time": 78, "note": 61, "velocity": 114, "channel": 0}, {"type": "note_on", "time": 10, "note": 58, "velocity": 109, "channel": 0}, {"type": "note_off", "time": 83, "note": 58, "velocity": 109, "channel": 0}, {"type": "note_on", "time": 12, "note": 56, "velocity": 107, "channel": 0}, {"type": "note_off", "time": 74, "note": 56, "velocity": 107, "channel": 0}, {"type": "note_on", "time": 6, "note": 53, "velocity": 113, "channel": 0}, {"type": "note_off", "time": 72, "note": 53, "velocity": 113, "channel": 0}, {"type": "note_on", "time": 8, "note": 51, "velocity": 114, "channel": 0}, {"type": "note_off", "time": 47, "note": 51, "velocity": 114, "channel": 0}, {"type": "note_on", "time": 4, "note": 49, "velocity": 111, "channel": 0}, {"type": "note_off", "time": 97, "note": 49, "velocity": 111, "channel": 0}, {"type": "note_on", "time": 4, "note": 46, "velocity": 106, "channel": 0}, {"type": "note_off", "time": 211, "note": 46, "velocity": 106, "channel": 0}, {"type": "note_on", "time": 1036, "note": 55, "velocity": 107, "channel": 0}, {"type": "note_off", "time": 74, "note": 55, "velocity": 107, "channel": 0}, {"type": "note_on", "time": 8, "note": 56, "velocity": 106, "channel": 0}, {"type": "note_off", "time": 80, "note": 56, "velocity": 106, "channel": 0}, {"type": "note_on", "time": 8, "note": 59, "velocity": 109, "channel": 0}, {"type": "note_off", "time": 62, "note": 59, "velocity": 109, "channel": 0}, {"type": "note_on", "time": 8, "note": 62, "velocity": 117, "channel": 0}, {"type": "note_off", "time": 101, "note": 62, "velocity": 117, "channel": 0}, {"type": "note_on", "time": 4, "note": 63, "velocity": 122, "channel": 0}, {"type": "note_on", "time": 105, "note": 65, "velocity": 115, "channel": 0}, {"type": "note_off", "time": 0, "note": 63, "velocity": 122, "channel": 0}, {"type": "note_off", "time": 74, "note": 65, "velocity": 115, "channel": 0}, {"type": "note_on", "time": 10, "note": 67, "velocity": 116, "channel": 0}, {"type": "note_off", "time": 103, "note": 67, "velocity": 116, "channel": 0}, {"type": "note_on", "time": 4, "note": 68, "velocity": 119, "channel": 0}, {"type": "note_off", "time": 56, "note": 68, "velocity": 119, "channel": 0}, {"type": "note_on", "time": 4, "note": 70, "velocity": 106, "channel": 0}, {"type": "note_off", "time": 101, "note": 70, "velocity": 106, "channel": 0}, {"type": "note_on", "time": 6, "note": 71, "velocity": 118, "channel": 0}, {"type": "note_off", "time": 66, "note": 71, "velocity": 118, "channel": 0}, {"type": "note_on", "time": 6, "note": 73, "velocity": 112, "channel": 0}, {"type": "note_off", "time": 85, "note": 73, "velocity": 112, "channel": 0}, {"type": "note_on", "time": 4, "note": 75, "velocity": 112, "channel": 0}, {"type": "note_off", "time": 213, "note": 75, "velocity": 112, "channel": 0}, {"type": "note_on", "time": 8, "note": 71, "velocity": 114, "channel": 0}, {"type": "note_off", "time": 97, "note": 71, "velocity": 114, "channel": 0}, {"type": "note_on", "time": 702, "note": 67, "velocity": 114, "channel": 0}, {"type": "note_off", "time": 113, "note": 67, "velocity": 114, "channel": 0}, {"type": "note_on", "time": 2, "note": 68, "velocity": 114, "channel": 0}, {"type": "note_off", "time": 75, "note": 68, "velocity": 114, "channel": 0}, {"type": "note_on", "time": 4, "note": 67, "velocity": 115, "channel": 0}, {"type": "note_off", "time": 85, "note": 67, "velocity": 115, "channel": 0}, {"type": "note_on", "time": 1, "note": 66, "velocity": 114, "channel": 0}, {"type": "note_off", "time": 98, "note": 66, "velocity": 114, "channel": 0}, {"type": "note_on", "time": 11, "note": 65, "velocity": 113, "channel": 0}, {"type": "note_off", "time": 75, "note": 65, "velocity": 113, "channel": 0}, {"type": "note_on", "time": 5, "note": 64, "velocity": 118, "channel": 0}, {"type": "note_off", "time": 98, "note": 64, "velocity": 118, "channel": 0}, {"type": "note_on", "time": 4, "note": 63, "velocity": 118, "channel": 0}, {"type": "note_off", "time": 103, "note": 63, "velocity": 118, "channel": 0}, {"type": "note_on", "time": 11, "note": 67, "velocity": 106, "channel": 0}, {"type": "note_off", "time": 95, "note": 67, "velocity": 106, "channel": 0}, {"type": "note_on", "time": 0, "note": 69, "velocity": 106, "channel": 0}, {"type": "note_off", "time": 69, "note": 69, "velocity": 106, "channel": 0}, {"type": "note_on", "time": 1, "note": 71, "velocity": 110, "channel": 0}, {"type": "note_off", "time": 98, "note": 71, "velocity": 110, "channel": 0}, {"type": "note_on", "time": 17, "note": 76, "velocity": 118, "channel": 0}, {"type": "note_off", "time": 73, "note": 76, "velocity": 118, "channel": 0}, {"type": "note_on", "time": 2, "note": 79, "velocity": 117, "channel": 0}, {"type": "note_off", "time": 523, "note": 79, "velocity": 117, "channel": 0}, {"type": "note_on", "time": 51, "note": 76, "velocity": 120, "channel": 0}, {"type": "note_off", "time": 87, "note": 76, "velocity": 120, "channel": 0}, {"type": "note_on", "time": 7, "note": 72, "velocity": 111, "channel": 0}, {"type": "note_off", "time": 156, "note": 72, "velocity": 111, "channel": 0}, {"type": "note_on", "time": 5, "note": 68, "velocity": 117, "channel": 0}, {"type": "note_off", "time": 184, "note": 68, "velocity": 117, "channel": 0}, {"type": "note_on", "time": 13, "note": 67, "velocity": 116, "channel": 0}, {"type": "note_off", "time": 199, "note": 67, "velocity": 116, "channel": 0}, {"type": "note_on", "time": 4, "note": 65, "velocity": 117, "channel": 0}, {"type": "note_off", "time": 186, "note": 65, "velocity": 117, "channel": 0}, {"type": "note_on", "time": 28, "note": 62, "velocity": 111, "channel": 0}, {"type": "note_off", "time": 93, "note": 62, "velocity": 111, "channel": 0}, {"type": "note_on", "time": 2, "note": 63, "velocity": 122, "channel": 0}, {"type": "note_off", "time": 415, "note": 63, "velocity": 122, "channel": 0}, {"type": "note_on", "time": 706, "note": 55, "velocity": 109, "channel": 0}, {"type": "note_off", "time": 73, "note": 55, "velocity": 109, "channel": 0}, {"type": "note_on", "time": 2, "note": 57, "velocity": 110, "channel": 0}, {"type": "note_off", "time": 70, "note": 57, "velocity": 110, "channel": 0}, {"type": "note_on", "time": 2, "note": 59, "velocity": 109, "channel": 0}, {"type": "note_off", "time": 84, "note": 59, "velocity": 109, "channel": 0}, {"type": "note_on", "time": 8, "note": 62, "velocity": 117, "channel": 0}, {"type": "note_off", "time": 72, "note": 62, "velocity": 117, "channel": 0}, {"type": "note_on", "time": 2, "note": 63, "velocity": 118, "channel": 0}, {"type": "note_off", "time": 103, "note": 63, "velocity": 118, "channel": 0}, {"type": "note_on", "time": 4, "note": 59, "velocity": 108, "channel": 0}, {"type": "note_off", "time": 98, "note": 59, "velocity": 108, "channel": 0}, {"type": "note_on", "time": 7, "note": 56, "velocity": 108, "channel": 0}, {"type": "note_off", "time": 72, "note": 56, "velocity": 108, "channel": 0}, {"type": "note_on", "time": 7, "note": 61, "velocity": 110, "channel": 0}, {"type": "note_off", "time": 93, "note": 61, "velocity": 110, "channel": 0}, {"type": "note_on", "time": 2, "note": 58, "velocity": 112, "channel": 0}, {"type": "note_off", "time": 106, "note": 58, "velocity": 112, "channel": 0}, {"type": "note_on", "time": 4, "note": 61, "velocity": 113, "channel": 0}, {"type": "note_off", "time": 93, "note": 61, "velocity": 113, "channel": 0}, {"type": "note_on", "time": 8, "note": 66, "velocity": 105, "channel": 0}, {"type": "note_off", "time": 106, "note": 66, "velocity": 105, "channel": 0}, {"type": "note_on", "time": 44, "note": 70, "velocity": 106, "channel": 0}, {"type": "note_off", "time": 36, "note": 70, "velocity": 106, "channel": 0}, {"type": "note_on", "time": 5, "note": 73, "velocity": 112, "channel": 0}, {"type": "note_off", "time": 85, "note": 73, "velocity": 112, "channel": 0}, {"type": "note_on", "time": 22, "note": 73, "velocity": 109, "channel": 0}, {"type": "note_off", "time": 79, "note": 73, "velocity": 109, "channel": 0}, {"type": "note_on", "time": 10, "note": 70, "velocity": 113, "channel": 0}, {"type": "note_off", "time": 69, "note": 70, "velocity": 113, "channel": 0}, {"type": "note_on", "time": 26, "note": 73, "velocity": 111, "channel": 0}, {"type": "note_off", "time": 81, "note": 73, "velocity": 111, "channel": 0}, {"type": "note_on", "time": 0, "note": 71, "velocity": 111, "channel": 0}, {"type": "note_off", "time": 97, "note": 71, "velocity": 111, "channel": 0}, {"type": "note_on", "time": 16, "note": 69, "velocity": 113, "channel": 0}, {"type": "note_off", "time": 81, "note": 69, "velocity": 113, "channel": 0}, {"type": "note_on", "time": 10, "note": 68, "velocity": 115, "channel": 0}, {"type": "note_off", "time": 82, "note": 68, "velocity": 115, "channel": 0}, {"type": "note_on", "time": 5, "note": 66, "velocity": 111, "channel": 0}, {"type": "note_off", "time": 132, "note": 66, "velocity": 111, "channel": 0}, {"type": "note_on", "time": 2, "note": 65, "velocity": 116, "channel": 0}, {"type": "note_off", "time": 73, "note": 65, "velocity": 116, "channel": 0}, {"type": "note_on", "time": 16, "note": 64, "velocity": 122, "channel": 0}, {"type": "note_off", "time": 79, "note": 64, "velocity": 122, "channel": 0}, {"type": "note_on", "time": 5, "note": 63, "velocity": 121, "channel": 0}, {"type": "note_off", "time": 82, "note": 63, "velocity": 121, "channel": 0}, {"type": "note_on", "time": 13, "note": 65, "velocity": 119, "channel": 0}, {"type": "note_off", "time": 131, "note": 65, "velocity": 119, "channel": 0}, {"type": "note_on", "time": 2, "note": 62, "velocity": 121, "channel": 0}, {"type": "note_off", "time": 69, "note": 62, "velocity": 121, "channel": 0}, {"type": "note_on", "time": 4, "note": 60, "velocity": 111, "channel": 0}, {"type": "note_off", "time": 88, "note": 60, "velocity": 111, "channel": 0}, {"type": "note_on", "time": 1, "note": 59, "velocity": 108, "channel": 0}, {"type": "note_off", "time": 69, "note": 59, "velocity": 108, "channel": 0}, {"type": "note_on", "time": 7, "note": 58, "velocity": 100, "channel": 0}, {"type": "note_off", "time": 85, "note": 58, "velocity": 100, "channel": 0}, {"type": "note_on", "time": 4, "note": 60, "velocity": 116, "channel": 0}, {"type": "note_off", "time": 103, "note": 60, "velocity": 116, "channel": 0}, {"type": "note_on", "time": 11, "note": 62, "velocity": 118, "channel": 0}, {"type": "note_off", "time": 70, "note": 62, "velocity": 118, "channel": 0}, {"type": "note_on", "time": 1, "note": 63, "velocity": 114, "channel": 0}, {"type": "note_on", "time": 115, "note": 65, "velocity": 103, "channel": 0}, {"type": "note_off", "time": 0, "note": 63, "velocity": 114, "channel": 0}, {"type": "note_off", "time": 90, "note": 65, "velocity": 103, "channel": 0}, {"type": "note_on", "time": 7, "note": 67, "velocity": 114, "channel": 0}, {"type": "note_off", "time": 124, "note": 67, "velocity": 114, "channel": 0}, {"type": "note_on", "time": 4, "note": 72, "velocity": 113, "channel": 0}, {"type": "note_off", "time": 143, "note": 72, "velocity": 113, "channel": 0}, {"type": "note_on", "time": 1075, "note": 71, "velocity": 110, "channel": 0}, {"type": "note_off", "time": 128, "note": 71, "velocity": 110, "channel": 0}, {"type": "note_on", "time": 4, "note": 67, "velocity": 114, "channel": 0}, {"type": "note_off", "time": 59, "note": 67, "velocity": 114, "channel": 0}, {"type": "note_on", "time": 0, "note": 69, "velocity": 117, "channel": 0}, {"type": "note_off", "time": 50, "note": 69, "velocity": 117, "channel": 0}, {"type": "note_on", "time": 4, "note": 71, "velocity": 110, "channel": 0}, {"type": "note_off", "time": 104, "note": 71, "velocity": 110, "channel": 0}, {"type": "note_on", "time": 5, "note": 70, "velocity": 114, "channel": 0}, {"type": "note_off", "time": 79, "note": 70, "velocity": 114, "channel": 0}, {"type": "note_on", "time": 1, "note": 69, "velocity": 110, "channel": 0}, {"type": "note_off", "time": 98, "note": 69, "velocity": 110, "channel": 0}, {"type": "note_on", "time": 4, "note": 68, "velocity": 113, "channel": 0}, {"type": "note_off", "time": 107, "note": 68, "velocity": 113, "channel": 0}, {"type": "note_on", "time": 5, "note": 67, "velocity": 110, "channel": 0}, {"type": "note_off", "time": 69, "note": 67, "velocity": 110, "channel": 0}, {"type": "note_on", "time": 2, "note": 65, "velocity": 114, "channel": 0}, {"type": "note_off", "time": 122, "note": 65, "velocity": 114, "channel": 0}, {"type": "note_on", "time": 1, "note": 67, "velocity": 108, "channel": 0}, {"type": "note_off", "time": 72, "note": 67, "velocity": 108, "channel": 0}, {"type": "note_on", "time": 5, "note": 68, "velocity": 114, "channel": 0}, {"type": "note_off", "time": 112, "note": 68, "velocity": 114, "channel": 0}, {"type": "note_on", "time": 16, "note": 70, "velocity": 115, "channel": 0}, {"type": "note_off", "time": 70, "note": 70, "velocity": 115, "channel": 0}, {"type": "note_on", "time": 5, "note": 67, "velocity": 114, "channel": 0}, {"type": "note_off", "time": 103, "note": 67, "velocity": 114, "channel": 0}, {"type": "note_on", "time": 2, "note": 66, "velocity": 110, "channel": 0}, {"type": "note_off", "time": 100, "note": 66, "velocity": 110, "channel": 0}, {"type": "note_on", "time": 4, "note": 65, "velocity": 113, "channel": 0}, {"type": "note_off", "time": 88, "note": 65, "velocity": 113, "channel": 0}, {"type": "note_on", "time": 2, "note": 64, "velocity": 125, "channel": 0}, {"type": "note_off", "time": 93, "note": 64, "velocity": 125, "channel": 0}, {"type": "note_on", "time": 4, "note": 63, "velocity": 124, "channel": 0}, {"type": "note_off", "time": 88, "note": 63, "velocity": 124, "channel": 0}, {"type": "note_on", "time": 13, "note": 65, "velocity": 108, "channel": 0}, {"type": "note_off", "time": 75, "note": 65, "velocity": 108, "channel": 0}, {"type": "note_on", "time": 2, "note": 67, "velocity": 113, "channel": 0}, {"type": "note_off", "time": 85, "note": 67, "velocity": 113, "channel": 0}, {"type": "note_on", "time": 5, "note": 70, "velocity": 106, "channel": 0}, {"type": "note_off", "time": 93, "note": 70, "velocity": 106, "channel": 0}, {"type": "note_on", "time": 5, "note": 65, "velocity": 115, "channel": 0}, {"type": "note_off", "time": 76, "note": 65, "velocity": 115, "channel": 0}, {"type": "note_on", "time": 8, "note": 64, "velocity": 114, "channel": 0}, {"type": "note_off", "time": 98, "note": 64, "velocity": 114, "channel": 0}, {"type": "note_on", "time": 1, "note": 63, "velocity": 119, "channel": 0}, {"type": "note_off", "time": 88, "note": 63, "velocity": 119, "channel": 0}, {"type": "note_on", "time": 10, "note": 65, "velocity": 114, "channel": 0}, {"type": "note_off", "time": 85, "note": 65, "velocity": 114, "channel": 0}, {"type": "note_on", "time": 8, "note": 62, "velocity": 118, "channel": 0}, {"type": "note_off", "time": 109, "note": 62, "velocity": 118, "channel": 0}, {"type": "note_on", "time": 3, "note": 61, "velocity": 112, "channel": 0}, {"type": "note_off", "time": 63, "note": 61, "velocity": 112, "channel": 0}, {"type": "note_on", "time": 5, "note": 60, "velocity": 112, "channel": 0}, {"type": "note_off", "time": 96, "note": 60, "velocity": 112, "channel": 0}, {"type": "note_on", "time": 9, "note": 59, "velocity": 108, "channel": 0}, {"type": "note_off", "time": 76, "note": 59, "velocity": 108, "channel": 0}, {"type": "note_on", "time": 6, "note": 58, "velocity": 115, "channel": 0}, {"type": "note_off", "time": 103, "note": 58, "velocity": 115, "channel": 0}, {"type": "note_on", "time": 9, "note": 55, "velocity": 109, "channel": 0}, {"type": "note_off", "time": 88, "note": 55, "velocity": 109, "channel": 0}, {"type": "note_on", "time": 10, "note": 51, "velocity": 109, "channel": 0}, {"type": "note_off", "time": 104, "note": 51, "velocity": 109, "channel": 0}, {"type": "note_on", "time": 8, "note": 48, "velocity": 109, "channel": 0}, {"type": "note_off", "time": 65, "note": 48, "velocity": 109, "channel": 0}, {"type": "note_on", "time": 10, "note": 53, "velocity": 118, "channel": 0}, {"type": "note_off", "time": 61, "note": 53, "velocity": 118, "channel": 0}, {"type": "note_on", "time": 2, "note": 52, "velocity": 111, "channel": 0}, {"type": "note_off", "time": 104, "note": 52, "velocity": 111, "channel": 0}, {"type": "note_on", "time": 3, "note": 51, "velocity": 113, "channel": 0}, {"type": "note_off", "time": 86, "note": 51, "velocity": 113, "channel": 0}, {"type": "note_on", "time": 3, "note": 53, "velocity": 111, "channel": 0}, {"type": "note_off", "time": 50, "note": 53, "velocity": 111, "channel": 0}, {"type": "note_on", "time": 1, "note": 55, "velocity": 111, "channel": 0}, {"type": "note_off", "time": 32, "note": 55, "velocity": 111, "channel": 0}, {"type": "note_on", "time": 8, "note": 58, "velocity": 111, "channel": 0}, {"type": "note_off", "time": 79, "note": 58, "velocity": 111, "channel": 0}, {"type": "note_on", "time": 29, "note": 62, "velocity": 102, "channel": 0}, {"type": "note_off", "time": 64, "note": 62, "velocity": 102, "channel": 0}, {"type": "note_on", "time": 12, "note": 65, "velocity": 120, "channel": 0}, {"type": "note_off", "time": 104, "note": 65, "velocity": 120, "channel": 0}, {"type": "note_on", "time": 11, "note": 61, "velocity": 119, "channel": 0}, {"type": "note_off", "time": 78, "note": 61, "velocity": 119, "channel": 0}, {"type": "note_on", "time": 8, "note": 57, "velocity": 111, "channel": 0}, {"type": "note_off", "time": 98, "note": 57, "velocity": 111, "channel": 0}, {"type": "note_on", "time": 12, "note": 53, "velocity": 108, "channel": 0}, {"type": "note_off", "time": 61, "note": 53, "velocity": 108, "channel": 0}, {"type": "note_on", "time": 14, "note": 59, "velocity": 109, "channel": 0}, {"type": "note_off", "time": 145, "note": 59, "velocity": 109, "channel": 0}, {"type": "note_on", "time": 7, "note": 58, "velocity": 107, "channel": 0}, {"type": "note_off", "time": 69, "note": 58, "velocity": 107, "channel": 0}, {"type": "note_on", "time": 18, "note": 57, "velocity": 107, "channel": 0}, {"type": "note_off", "time": 68, "note": 57, "velocity": 107, "channel": 0}, {"type": "note_on", "time": 2, "note": 59, "velocity": 108, "channel": 0}, {"type": "note_off", "time": 73, "note": 59, "velocity": 108, "channel": 0}, {"type": "note_on", "time": 20, "note": 56, "velocity": 108, "channel": 0}, {"type": "note_off", "time": 87, "note": 56, "velocity": 108, "channel": 0}, {"type": "note_on", "time": 7, "note": 53, "velocity": 94, "channel": 0}, {"type": "note_off", "time": 74, "note": 53, "velocity": 94, "channel": 0}, {"type": "note_on", "time": 4, "note": 56, "velocity": 114, "channel": 0}, {"type": "note_off", "time": 99, "note": 56, "velocity": 114, "channel": 0}, {"type": "note_on", "time": 8, "note": 59, "velocity": 106, "channel": 0}, {"type": "note_off", "time": 103, "note": 59, "velocity": 106, "channel": 0}, {"type": "note_on", "time": 4, "note": 58, "velocity": 106, "channel": 0}, {"type": "note_off", "time": 74, "note": 58, "velocity": 106, "channel": 0}, {"type": "note_on", "time": 3, "note": 56, "velocity": 107, "channel": 0}, {"type": "note_off", "time": 119, "note": 56, "velocity": 107, "channel": 0}, {"type": "note_on", "time": 8, "note": 55, "velocity": 104, "channel": 0}, {"type": "note_off", "time": 75, "note": 55, "velocity": 104, "channel": 0}, {"type": "note_on", "time": 8, "note": 54, "velocity": 108, "channel": 0}, {"type": "note_off", "time": 70, "note": 54, "velocity": 108, "channel": 0}, {"type": "note_on", "time": 9, "note": 53, "velocity": 117, "channel": 0}, {"type": "note_off", "time": 94, "note": 53, "velocity": 117, "channel": 0}, {"type": "note_on", "time": 3, "note": 52, "velocity": 109, "channel": 0}, {"type": "note_off", "time": 95, "note": 52, "velocity": 109, "channel": 0}, {"type": "note_on", "time": 7, "note": 51, "velocity": 111, "channel": 0}, {"type": "note_off", "time": 90, "note": 51, "velocity": 111, "channel": 0}, {"type": "note_on", "time": 5, "note": 53, "velocity": 111, "channel": 0}, {"type": "note_off", "time": 65, "note": 53, "velocity": 111, "channel": 0}, {"type": "note_on", "time": 3, "note": 55, "velocity": 113, "channel": 0}, {"type": "note_off", "time": 112, "note": 55, "velocity": 113, "channel": 0}, {"type": "note_on", "time": 6, "note": 57, "velocity": 108, "channel": 0}, {"type": "note_off", "time": 57, "note": 57, "velocity": 108, "channel": 0}, {"type": "note_on", "time": 24, "note": 59, "velocity": 106, "channel": 0}, {"type": "note_off", "time": 107, "note": 59, "velocity": 106, "channel": 0}, {"type": "note_on", "time": 6, "note": 60, "velocity": 114, "channel": 0}, {"type": "note_off", "time": 88, "note": 60, "velocity": 114, "channel": 0}, {"type": "note_on", "time": 3, "note": 62, "velocity": 115, "channel": 0}, {"type": "note_off", "time": 75, "note": 62, "velocity": 115, "channel": 0}, {"type": "note_on", "time": 8, "note": 63, "velocity": 113, "channel": 0}, {"type": "note_off", "time": 92, "note": 63, "velocity": 113, "channel": 0}, {"type": "note_on", "time": 3, "note": 65, "velocity": 114, "channel": 0}, {"type": "note_off", "time": 90, "note": 65, "velocity": 114, "channel": 0}, {"type": "note_on", "time": 24, "note": 67, "velocity": 104, "channel": 0}, {"type": "note_off", "time": 70, "note": 67, "velocity": 104, "channel": 0}, {"type": "note_on", "time": 4, "note": 69, "velocity": 111, "channel": 0}, {"type": "note_off", "time": 85, "note": 69, "velocity": 111, "channel": 0}, {"type": "note_on", "time": 6, "note": 71, "velocity": 115, "channel": 0}, {"type": "note_off", "time": 107, "note": 71, "velocity": 115, "channel": 0}, {"type": "note_on", "time": 4, "note": 72, "velocity": 106, "channel": 0}, {"type": "note_off", "time": 94, "note": 72, "velocity": 106, "channel": 0}, {"type": "note_on", "time": 5, "note": 73, "velocity": 108, "channel": 0}, {"type": "note_off", "time": 87, "note": 73, "velocity": 108, "channel": 0}, {"type": "note_on", "time": 3, "note": 72, "velocity": 117, "channel": 0}, {"type": "note_off", "time": 149, "note": 72, "velocity": 117, "channel": 0}, {"type": "note_on", "time": 424, "note": 70, "velocity": 119, "channel": 0}, {"type": "note_off", "time": 116, "note": 70, "velocity": 119, "channel": 0}, {"type": "note_on", "time": 2, "note": 72, "velocity": 110, "channel": 0}, {"type": "note_off", "time": 68, "note": 72, "velocity": 110, "channel": 0}, {"type": "note_on", "time": 3, "note": 70, "velocity": 120, "channel": 0}, {"type": "note_off", "time": 170, "note": 70, "velocity": 120, "channel": 0}, {"type": "note_on", "time": 210, "note": 69, "velocity": 116, "channel": 0}, {"type": "note_off", "time": 106, "note": 69, "velocity": 116, "channel": 0}, {"type": "note_on", "time": 2, "note": 70, "velocity": 104, "channel": 0}, {"type": "note_off", "time": 101, "note": 70, "velocity": 104, "channel": 0}, {"type": "note_on", "time": 4, "note": 69, "velocity": 118, "channel": 0}, {"type": "note_off", "time": 196, "note": 69, "velocity": 118, "channel": 0}, {"type": "note_on", "time": 13, "note": 65, "velocity": 10, "channel": 0}, {"type": "note_off", "time": 197, "note": 65, "velocity": 10, "channel": 0}, {"type": "note_on", "time": 14, "note": 60, "velocity": 106, "channel": 0}, {"type": "note_off", "time": 127, "note": 60, "velocity": 106, "channel": 0}, {"type": "note_on", "time": 7, "note": 57, "velocity": 102, "channel": 0}, {"type": "note_off", "time": 158, "note": 57, "velocity": 102, "channel": 0}, {"type": "note_on", "time": 17, "note": 53, "velocity": 108, "channel": 0}, {"type": "note_off", "time": 156, "note": 53, "velocity": 108, "channel": 0}, {"type": "note_on", "time": 16, "note": 46, "velocity": 111, "channel": 0}, {"type": "note_off", "time": 259, "note": 46, "velocity": 111, "channel": 0}, {"type": "note_on", "time": 2, "note": 45, "velocity": 113, "channel": 0}, {"type": "note_off", "time": 153, "note": 45, "velocity": 113, "channel": 0}, {"type": "note_on", "time": 1107, "note": 53, "velocity": 104, "channel": 0}, {"type": "note_off", "time": 110, "note": 53, "velocity": 104, "channel": 0}, {"type": "note_on", "time": 1, "note": 58, "velocity": 104, "channel": 0}, {"type": "note_off", "time": 69, "note": 58, "velocity": 104, "channel": 0}, {"type": "note_on", "time": 1, "note": 61, "velocity": 105, "channel": 0}, {"type": "note_off", "time": 70, "note": 61, "velocity": 105, "channel": 0}, {"type": "note_on", "time": 4, "note": 60, "velocity": 109, "channel": 0}, {"type": "note_off", "time": 112, "note": 60, "velocity": 109, "channel": 0}, {"type": "note_on", "time": 4, "note": 58, "velocity": 104, "channel": 0}, {"type": "note_off", "time": 66, "note": 58, "velocity": 104, "channel": 0}, {"type": "note_on", "time": 8, "note": 57, "velocity": 104, "channel": 0}, {"type": "note_off", "time": 97, "note": 57, "velocity": 104, "channel": 0}, {"type": "note_on", "time": 25, "note": 53, "velocity": 102, "channel": 0}, {"type": "note_off", "time": 98, "note": 53, "velocity": 102, "channel": 0}, {"type": "note_on", "time": 0, "note": 55, "velocity": 102, "channel": 0}, {"type": "note_off", "time": 62, "note": 55, "velocity": 102, "channel": 0}, {"type": "note_on", "time": 10, "note": 57, "velocity": 101, "channel": 0}, {"type": "note_off", "time": 69, "note": 57, "velocity": 101, "channel": 0}, {"type": "note_on", "time": 8, "note": 58, "velocity": 105, "channel": 0}, {"type": "note_off", "time": 135, "note": 58, "velocity": 105, "channel": 0}, {"type": "note_on", "time": 2, "note": 60, "velocity": 106, "channel": 0}, {"type": "note_off", "time": 51, "note": 60, "velocity": 106, "channel": 0}, {"type": "note_on", "time": 1, "note": 61, "velocity": 104, "channel": 0}, {"type": "note_off", "time": 94, "note": 61, "velocity": 104, "channel": 0}, {"type": "note_on", "time": 11, "note": 63, "velocity": 112, "channel": 0}, {"type": "note_off", "time": 101, "note": 63, "velocity": 112, "channel": 0}, {"type": "note_on", "time": 5, "note": 64, "velocity": 110, "channel": 0}, {"type": "note_off", "time": 113, "note": 64, "velocity": 110, "channel": 0}, {"type": "note_on", "time": 4, "note": 65, "velocity": 108, "channel": 0}, {"type": "note_off", "time": 62, "note": 65, "velocity": 108, "channel": 0}, {"type": "note_on", "time": 2, "note": 66, "velocity": 107, "channel": 0}, {"type": "note_off", "time": 70, "note": 66, "velocity": 107, "channel": 0}, {"type": "note_on", "time": 11, "note": 64, "velocity": 103, "channel": 0}, {"type": "note_off", "time": 104, "note": 64, "velocity": 103, "channel": 0}, {"type": "note_on", "time": 4, "note": 65, "velocity": 108, "channel": 0}, {"type": "note_off", "time": 87, "note": 65, "velocity": 108, "channel": 0}, {"type": "note_on", "time": 8, "note": 61, "velocity": 109, "channel": 0}, {"type": "note_off", "time": 75, "note": 61, "velocity": 109, "channel": 0}, {"type": "note_on", "time": 0, "note": 58, "velocity": 106, "channel": 0}, {"type": "note_off", "time": 106, "note": 58, "velocity": 106, "channel": 0}, {"type": "note_on", "time": 5, "note": 53, "velocity": 93, "channel": 0}, {"type": "note_off", "time": 91, "note": 53, "velocity": 93, "channel": 0}, {"type": "note_on", "time": 2, "note": 58, "velocity": 102, "channel": 0}, {"type": "note_off", "time": 88, "note": 58, "velocity": 102, "channel": 0}, {"type": "note_on", "time": 1, "note": 65, "velocity": 105, "channel": 0}, {"type": "note_off", "time": 78, "note": 65, "velocity": 105, "channel": 0}, {"type": "note_on", "time": 7, "note": 61, "velocity": 105, "channel": 0}, {"type": "note_off", "time": 88, "note": 61, "velocity": 105, "channel": 0}, {"type": "note_on", "time": 10, "note": 58, "velocity": 97, "channel": 0}, {"type": "note_off", "time": 94, "note": 58, "velocity": 97, "channel": 0}, {"type": "note_on", "time": 10, "note": 62, "velocity": 112, "channel": 0}, {"type": "note_off", "time": 98, "note": 62, "velocity": 112, "channel": 0}, {"type": "note_on", "time": 17, "note": 59, "velocity": 94, "channel": 0}, {"type": "note_off", "time": 98, "note": 59, "velocity": 94, "channel": 0}, {"type": "note_on", "time": 5, "note": 58, "velocity": 83, "channel": 0}, {"type": "note_off", "time": 100, "note": 58, "velocity": 83, "channel": 0}, {"type": "note_on", "time": 5, "note": 59, "velocity": 116, "channel": 0}, {"type": "note_off", "time": 78, "note": 59, "velocity": 116, "channel": 0}, {"type": "note_on", "time": 7, "note": 57, "velocity": 101, "channel": 0}, {"type": "note_off", "time": 73, "note": 57, "velocity": 101, "channel": 0}, {"type": "note_on", "time": 1, "note": 56, "velocity": 97, "channel": 0}, {"type": "note_off", "time": 94, "note": 56, "velocity": 97, "channel": 0}, {"type": "note_on", "time": 7, "note": 55, "velocity": 98, "channel": 0}, {"type": "note_off", "time": 79, "note": 55, "velocity": 98, "channel": 0}, {"type": "note_on", "time": 13, "note": 59, "velocity": 100, "channel": 0}, {"type": "note_off", "time": 67, "note": 59, "velocity": 100, "channel": 0}, {"type": "note_on", "time": 10, "note": 57, "velocity": 103, "channel": 0}, {"type": "note_off", "time": 56, "note": 57, "velocity": 103, "channel": 0}, {"type": "note_on", "time": 4, "note": 55, "velocity": 100, "channel": 0}, {"type": "note_off", "time": 90, "note": 55, "velocity": 100, "channel": 0}, {"type": "note_on", "time": 11, "note": 54, "velocity": 99, "channel": 0}, {"type": "note_off", "time": 91, "note": 54, "velocity": 99, "channel": 0}, {"type": "note_on", "time": 13, "note": 57, "velocity": 101, "channel": 0}, {"type": "note_off", "time": 87, "note": 57, "velocity": 101, "channel": 0}, {"type": "note_on", "time": 14, "note": 53, "velocity": 102, "channel": 0}, {"type": "note_off", "time": 63, "note": 53, "velocity": 102, "channel": 0}, {"type": "note_on", "time": 10, "note": 52, "velocity": 105, "channel": 0}, {"type": "note_off", "time": 91, "note": 52, "velocity": 105, "channel": 0}, {"type": "note_on", "time": 5, "note": 51, "velocity": 105, "channel": 0}, {"type": "note_off", "time": 67, "note": 51, "velocity": 105, "channel": 0}, {"type": "note_on", "time": 19, "note": 53, "velocity": 106, "channel": 0}, {"type": "note_off", "time": 94, "note": 53, "velocity": 106, "channel": 0}, {"type": "note_on", "time": 11, "note": 50, "velocity": 106, "channel": 0}, {"type": "note_off", "time": 91, "note": 50, "velocity": 106, "channel": 0}, {"type": "note_on", "time": 7, "note": 53, "velocity": 99, "channel": 0}, {"type": "note_off", "time": 67, "note": 53, "velocity": 99, "channel": 0}, {"type": "note_on", "time": 14, "note": 58, "velocity": 109, "channel": 0}, {"type": "note_off", "time": 98, "note": 58, "velocity": 109, "channel": 0}, {"type": "note_on", "time": 7, "note": 62, "velocity": 113, "channel": 0}, {"type": "note_off", "time": 78, "note": 62, "velocity": 113, "channel": 0}, {"type": "note_on", "time": 11, "note": 63, "velocity": 118, "channel": 0}, {"type": "note_off", "time": 54, "note": 63, "velocity": 118, "channel": 0}, {"type": "note_on", "time": 0, "note": 59, "velocity": 103, "channel": 0}, {"type": "note_off", "time": 101, "note": 59, "velocity": 103, "channel": 0}, {"type": "note_on", "time": 2, "note": 56, "velocity": 101, "channel": 0}, {"type": "note_off", "time": 87, "note": 56, "velocity": 101, "channel": 0}, {"type": "note_on", "time": 8, "note": 61, "velocity": 108, "channel": 0}, {"type": "note_off", "time": 60, "note": 61, "velocity": 108, "channel": 0}, {"type": "note_on", "time": 4, "note": 58, "velocity": 104, "channel": 0}, {"type": "note_off", "time": 107, "note": 58, "velocity": 104, "channel": 0}, {"type": "note_on", "time": 8, "note": 61, "velocity": 104, "channel": 0}, {"type": "note_off", "time": 100, "note": 61, "velocity": 104, "channel": 0}, {"type": "note_on", "time": 13, "note": 66, "velocity": 103, "channel": 0}, {"type": "note_off", "time": 88, "note": 66, "velocity": 103, "channel": 0}, {"type": "note_on", "time": 4, "note": 70, "velocity": 97, "channel": 0}, {"type": "note_off", "time": 81, "note": 70, "velocity": 97, "channel": 0}, {"type": "note_on", "time": 5, "note": 73, "velocity": 102, "channel": 0}, {"type": "note_off", "time": 94, "note": 73, "velocity": 102, "channel": 0}, {"type": "note_on", "time": 7, "note": 73, "velocity": 101, "channel": 0}, {"type": "note_off", "time": 75, "note": 73, "velocity": 101, "channel": 0}, {"type": "note_on", "time": 23, "note": 70, "velocity": 98, "channel": 0}, {"type": "note_off", "time": 63, "note": 70, "velocity": 98, "channel": 0}, {"type": "note_on", "time": 10, "note": 73, "velocity": 103, "channel": 0}, {"type": "note_off", "time": 87, "note": 73, "velocity": 103, "channel": 0}, {"type": "note_on", "time": 5, "note": 71, "velocity": 107, "channel": 0}, {"type": "note_off", "time": 91, "note": 71, "velocity": 107, "channel": 0}, {"type": "note_on", "time": 29, "note": 64, "velocity": 107, "channel": 0}, {"type": "note_off", "time": 75, "note": 64, "velocity": 107, "channel": 0}, {"type": "note_on", "time": 8, "note": 66, "velocity": 105, "channel": 0}, {"type": "note_off", "time": 82, "note": 66, "velocity": 105, "channel": 0}, {"type": "note_on", "time": 5, "note": 71, "velocity": 105, "channel": 0}, {"type": "note_off", "time": 84, "note": 71, "velocity": 105, "channel": 0}, {"type": "note_on", "time": 7, "note": 69, "velocity": 108, "channel": 0}, {"type": "note_off", "time": 82, "note": 69, "velocity": 108, "channel": 0}, {"type": "note_on", "time": 17, "note": 62, "velocity": 99, "channel": 0}, {"type": "note_off", "time": 75, "note": 62, "velocity": 99, "channel": 0}, {"type": "note_on", "time": 4, "note": 64, "velocity": 111, "channel": 0}, {"type": "note_off", "time": 94, "note": 64, "velocity": 111, "channel": 0}, {"type": "note_on", "time": 2, "note": 69, "velocity": 111, "channel": 0}, {"type": "note_off", "time": 87, "note": 69, "velocity": 111, "channel": 0}, {"type": "note_on", "time": 8, "note": 67, "velocity": 104, "channel": 0}, {"type": "note_off", "time": 81, "note": 67, "velocity": 104, "channel": 0}, {"type": "note_on", "time": 70, "note": 60, "velocity": 104, "channel": 0}, {"type": "note_off", "time": 54, "note": 60, "velocity": 104, "channel": 0}, {"type": "note_on", "time": 5, "note": 62, "velocity": 110, "channel": 0}, {"type": "note_off", "time": 81, "note": 62, "velocity": 110, "channel": 0}, {"type": "note_on", "time": 7, "note": 67, "velocity": 105, "channel": 0}, {"type": "note_off", "time": 82, "note": 67, "velocity": 105, "channel": 0}, {"type": "note_on", "time": 10, "note": 65, "velocity": 104, "channel": 0}, {"type": "note_off", "time": 54, "note": 65, "velocity": 104, "channel": 0}, {"type": "note_on", "time": 4, "note": 64, "velocity": 99, "channel": 0}, {"type": "note_off", "time": 25, "note": 64, "velocity": 99, "channel": 0}, {"type": "note_on", "time": 8, "note": 58, "velocity": 100, "channel": 0}, {"type": "note_off", "time": 73, "note": 58, "velocity": 100, "channel": 0}, {"type": "note_on", "time": 8, "note": 60, "velocity": 102, "channel": 0}, {"type": "note_off", "time": 101, "note": 60, "velocity": 102, "channel": 0}, {"type": "note_on", "time": 1, "note": 65, "velocity": 105, "channel": 0}, {"type": "note_off", "time": 73, "note": 65, "velocity": 105, "channel": 0}, {"type": "note_on", "time": 5, "note": 63, "velocity": 114, "channel": 0}, {"type": "note_off", "time": 81, "note": 63, "velocity": 114, "channel": 0}, {"type": "note_on", "time": 19, "note": 56, "velocity": 99, "channel": 0}, {"type": "note_off", "time": 116, "note": 56, "velocity": 99, "channel": 0}, {"type": "note_on", "time": 2, "note": 58, "velocity": 97, "channel": 0}, {"type": "note_off", "time": 97, "note": 58, "velocity": 97, "channel": 0}, {"type": "note_on", "time": 17, "note": 63, "velocity": 112, "channel": 0}, {"type": "note_off", "time": 72, "note": 63, "velocity": 112, "channel": 0}, {"type": "note_on", "time": 4, "note": 61, "velocity": 106, "channel": 0}, {"type": "note_off", "time": 23, "note": 61, "velocity": 106, "channel": 0}, {"type": "note_on", "time": 4, "note": 60, "velocity": 97, "channel": 0}, {"type": "note_off", "time": 73, "note": 60, "velocity": 97, "channel": 0}, {"type": "note_on", "time": 16, "note": 53, "velocity": 101, "channel": 0}, {"type": "note_off", "time": 72, "note": 53, "velocity": 101, "channel": 0}, {"type": "note_on", "time": 4, "note": 56, "velocity": 112, "channel": 0}, {"type": "note_off", "time": 78, "note": 56, "velocity": 112, "channel": 0}, {"type": "note_on", "time": 14, "note": 61, "velocity": 107, "channel": 0}, {"type": "note_off", "time": 63, "note": 61, "velocity": 107, "channel": 0}, {"type": "note_on", "time": 16, "note": 59, "velocity": 107, "channel": 0}, {"type": "note_off", "time": 78, "note": 59, "velocity": 107, "channel": 0}, {"type": "note_on", "time": 17, "note": 52, "velocity": 101, "channel": 0}, {"type": "note_off", "time": 70, "note": 52, "velocity": 101, "channel": 0}, {"type": "note_on", "time": 1, "note": 55, "velocity": 105, "channel": 0}, {"type": "note_off", "time": 70, "note": 55, "velocity": 105, "channel": 0}, {"type": "note_on", "time": 8, "note": 59, "velocity": 101, "channel": 0}, {"type": "note_off", "time": 76, "note": 59, "velocity": 101, "channel": 0}, {"type": "note_on", "time": 8, "note": 57, "velocity": 103, "channel": 0}, {"type": "note_off", "time": 103, "note": 57, "velocity": 103, "channel": 0}, {"type": "note_on", "time": 11, "note": 51, "velocity": 98, "channel": 0}, {"type": "note_off", "time": 66, "note": 51, "velocity": 98, "channel": 0}, {"type": "note_on", "time": 4, "note": 64, "velocity": 110, "channel": 0}, {"type": "note_off", "time": 69, "note": 64, "velocity": 110, "channel": 0}, {"type": "note_on", "time": 2, "note": 69, "velocity": 105, "channel": 0}, {"type": "note_off", "time": 98, "note": 69, "velocity": 105, "channel": 0}, {"type": "note_on", "time": 1, "note": 67, "velocity": 106, "channel": 0}, {"type": "note_off", "time": 125, "note": 67, "velocity": 106, "channel": 0}, {"type": "note_on", "time": 614, "note": 45, "velocity": 110, "channel": 0}, {"type": "note_off", "time": 62, "note": 45, "velocity": 110, "channel": 0}, {"type": "note_on", "time": 4, "note": 51, "velocity": 106, "channel": 0}, {"type": "note_off", "time": 83, "note": 51, "velocity": 106, "channel": 0}, {"type": "note_on", "time": 14, "note": 55, "velocity": 104, "channel": 0}, {"type": "note_off", "time": 114, "note": 55, "velocity": 104, "channel": 0}, {"type": "note_on", "time": 4, "note": 51, "velocity": 106, "channel": 0}, {"type": "note_off", "time": 80, "note": 51, "velocity": 106, "channel": 0}, {"type": "note_on", "time": 6, "note": 48, "velocity": 111, "channel": 0}, {"type": "note_off", "time": 101, "note": 48, "velocity": 111, "channel": 0}, {"type": "note_on", "time": 6, "note": 53, "velocity": 103, "channel": 0}, {"type": "note_off", "time": 74, "note": 53, "velocity": 103, "channel": 0}, {"type": "note_on", "time": 8, "note": 58, "velocity": 109, "channel": 0}, {"type": "note_off", "time": 107, "note": 58, "velocity": 109, "channel": 0}, {"type": "note_on", "time": 4, "note": 60, "velocity": 101, "channel": 0}, {"type": "note_off", "time": 89, "note": 60, "velocity": 101, "channel": 0}, {"type": "note_on", "time": 10, "note": 63, "velocity": 114, "channel": 0}, {"type": "note_off", "time": 101, "note": 63, "velocity": 114, "channel": 0}, {"type": "note_on", "time": 8, "note": 60, "velocity": 105, "channel": 0}, {"type": "note_off", "time": 49, "note": 60, "velocity": 105, "channel": 0}, {"type": "note_on", "time": 8, "note": 66, "velocity": 100, "channel": 0}, {"type": "note_off", "time": 85, "note": 66, "velocity": 100, "channel": 0}, {"type": "note_on", "time": 8, "note": 61, "velocity": 98, "channel": 0}, {"type": "note_off", "time": 78, "note": 61, "velocity": 98, "channel": 0}, {"type": "note_on", "time": 10, "note": 58, "velocity": 108, "channel": 0}, {"type": "note_off", "time": 97, "note": 58, "velocity": 108, "channel": 0}, {"type": "note_on", "time": 33, "note": 55, "velocity": 107, "channel": 0}, {"type": "note_off", "time": 97, "note": 55, "velocity": 107, "channel": 0}, {"type": "note_on", "time": 4, "note": 56, "velocity": 100, "channel": 0}, {"type": "note_off", "time": 74, "note": 56, "velocity": 100, "channel": 0}, {"type": "note_on", "time": 8, "note": 58, "velocity": 112, "channel": 0}, {"type": "note_off", "time": 95, "note": 58, "velocity": 112, "channel": 0}, {"type": "note_on", "time": 6, "note": 59, "velocity": 111, "channel": 0}, {"type": "note_off", "time": 83, "note": 59, "velocity": 111, "channel": 0}, {"type": "note_on", "time": 11, "note": 61, "velocity": 106, "channel": 0}, {"type": "note_off", "time": 64, "note": 61, "velocity": 106, "channel": 0}, {"type": "note_on", "time": 8, "note": 63, "velocity": 111, "channel": 0}, {"type": "note_off", "time": 112, "note": 63, "velocity": 111, "channel": 0}, {"type": "note_on", "time": 8, "note": 66, "velocity": 107, "channel": 0}, {"type": "note_off", "time": 115, "note": 66, "velocity": 107, "channel": 0}, {"type": "note_on", "time": 0, "note": 65, "velocity": 109, "channel": 0}, {"type": "note_off", "time": 67, "note": 65, "velocity": 109, "channel": 0}, {"type": "note_on", "time": 8, "note": 64, "velocity": 115, "channel": 0}, {"type": "note_off", "time": 70, "note": 64, "velocity": 115, "channel": 0}, {"type": "note_on", "time": 20, "note": 63, "velocity": 113, "channel": 0}, {"type": "note_off", "time": 79, "note": 63, "velocity": 113, "channel": 0}, {"type": "note_on", "time": 29, "note": 66, "velocity": 107, "channel": 0}, {"type": "note_off", "time": 76, "note": 66, "velocity": 107, "channel": 0}, {"type": "note_on", "time": 8, "note": 64, "velocity": 115, "channel": 0}, {"type": "note_off", "time": 59, "note": 64, "velocity": 115, "channel": 0}, {"type": "note_on", "time": 32, "note": 61, "velocity": 102, "channel": 0}, {"type": "note_off", "time": 62, "note": 61, "velocity": 102, "channel": 0}, {"type": "note_on", "time": 11, "note": 59, "velocity": 103, "channel": 0}, {"type": "note_off", "time": 97, "note": 59, "velocity": 103, "channel": 0}, {"type": "note_on", "time": 4, "note": 54, "velocity": 89, "channel": 0}, {"type": "note_off", "time": 71, "note": 54, "velocity": 89, "channel": 0}, {"type": "note_on", "time": 38, "note": 57, "velocity": 108, "channel": 0}, {"type": "note_off", "time": 64, "note": 57, "velocity": 108, "channel": 0}, {"type": "note_on", "time": 11, "note": 62, "velocity": 107, "channel": 0}, {"type": "note_off", "time": 87, "note": 62, "velocity": 107, "channel": 0}, {"type": "note_on", "time": 8, "note": 59, "velocity": 95, "channel": 0}, {"type": "note_off", "time": 80, "note": 59, "velocity": 95, "channel": 0}, {"type": "note_on", "time": 114, "note": 60, "velocity": 109, "channel": 0}, {"type": "note_off", "time": 80, "note": 60, "velocity": 109, "channel": 0}, {"type": "note_on", "time": 6, "note": 61, "velocity": 100, "channel": 0}, {"type": "note_off", "time": 53, "note": 61, "velocity": 100, "channel": 0}, {"type": "note_on", "time": 12, "note": 63, "velocity": 114, "channel": 0}, {"type": "note_off", "time": 64, "note": 63, "velocity": 114, "channel": 0}, {"type": "note_on", "time": 8, "note": 62, "velocity": 113, "channel": 0}, {"type": "note_off", "time": 85, "note": 62, "velocity": 113, "channel": 0}, {"type": "note_on", "time": 8, "note": 61, "velocity": 105, "channel": 0}, {"type": "note_off", "time": 62, "note": 61, "velocity": 105, "channel": 0}, {"type": "note_on", "time": 14, "note": 62, "velocity": 109, "channel": 0}, {"type": "note_off", "time": 80, "note": 62, "velocity": 109, "channel": 0}, {"type": "note_on", "time": 26, "note": 67, "velocity": 105, "channel": 0}, {"type": "note_off", "time": 43, "note": 67, "velocity": 105, "channel": 0}, {"type": "note_on", "time": 0, "note": 69, "velocity": 110, "channel": 0}, {"type": "note_off", "time": 72, "note": 69, "velocity": 110, "channel": 0}, {"type": "note_on", "time": 4, "note": 70, "velocity": 105, "channel": 0}, {"type": "note_off", "time": 68, "note": 70, "velocity": 105, "channel": 0}, {"type": "note_on", "time": 6, "note": 72, "velocity": 109, "channel": 0}, {"type": "note_off", "time": 58, "note": 72, "velocity": 109, "channel": 0}, {"type": "note_on", "time": 4, "note": 74, "velocity": 107, "channel": 0}, {"type": "note_off", "time": 49, "note": 74, "velocity": 107, "channel": 0}, {"type": "note_on", "time": 0, "note": 73, "velocity": 113, "channel": 0}, {"type": "note_off", "time": 97, "note": 73, "velocity": 113, "channel": 0}, {"type": "note_on", "time": 442, "note": 70, "velocity": 114, "channel": 0}, {"type": "note_off", "time": 124, "note": 70, "velocity": 114, "channel": 0}, {"type": "note_on", "time": 407, "note": 65, "velocity": 115, "channel": 0}, {"type": "note_off", "time": 112, "note": 65, "velocity": 115, "channel": 0}, {"type": "note_on", "time": 6, "note": 70, "velocity": 110, "channel": 0}, {"type": "note_off", "time": 89, "note": 70, "velocity": 110, "channel": 0}, {"type": "note_on", "time": 373, "note": 67, "velocity": 110, "channel": 0}, {"type": "note_off", "time": 95, "note": 67, "velocity": 110, "channel": 0}, {"type": "note_on", "time": 10, "note": 62, "velocity": 113, "channel": 0}, {"type": "note_off", "time": 120, "note": 62, "velocity": 113, "channel": 0}, {"type": "note_on", "time": 240, "note": 67, "velocity": 107, "channel": 0}, {"type": "note_off", "time": 107, "note": 67, "velocity": 107, "channel": 0}, {"type": "note_on", "time": 4, "note": 64, "velocity": 111, "channel": 0}, {"type": "note_off", "time": 80, "note": 64, "velocity": 111, "channel": 0}, {"type": "note_on", "time": 8, "note": 62, "velocity": 113, "channel": 0}, {"type": "note_off", "time": 74, "note": 62, "velocity": 113, "channel": 0}, {"type": "note_on", "time": 4, "note": 59, "velocity": 103, "channel": 0}, {"type": "note_off", "time": 76, "note": 59, "velocity": 103, "channel": 0}, {"type": "note_on", "time": 2, "note": 56, "velocity": 106, "channel": 0}, {"type": "note_off", "time": 74, "note": 56, "velocity": 106, "channel": 0}, {"type": "note_on", "time": 12, "note": 53, "velocity": 104, "channel": 0}, {"type": "note_off", "time": 112, "note": 53, "velocity": 104, "channel": 0}, {"type": "note_on", "time": 0, "note": 56, "velocity": 100, "channel": 0}, {"type": "note_off", "time": 76, "note": 56, "velocity": 100, "channel": 0}, {"type": "note_on", "time": 6, "note": 59, "velocity": 105, "channel": 0}, {"type": "note_off", "time": 78, "note": 59, "velocity": 105, "channel": 0}, {"type": "note_on", "time": 8, "note": 62, "velocity": 111, "channel": 0}, {"type": "note_off", "time": 93, "note": 62, "velocity": 111, "channel": 0}, {"type": "note_on", "time": 22, "note": 57, "velocity": 106, "channel": 0}, {"type": "note_off", "time": 56, "note": 57, "velocity": 106, "channel": 0}, {"type": "note_on", "time": 4, "note": 55, "velocity": 99, "channel": 0}, {"type": "note_off", "time": 95, "note": 55, "velocity": 99, "channel": 0}, {"type": "note_on", "time": 8, "note": 56, "velocity": 100, "channel": 0}, {"type": "note_off", "time": 93, "note": 56, "velocity": 100, "channel": 0}, {"type": "note_on", "time": 10, "note": 58, "velocity": 103, "channel": 0}, {"type": "note_off", "time": 70, "note": 58, "velocity": 103, "channel": 0}, {"type": "note_on", "time": 8, "note": 59, "velocity": 106, "channel": 0}, {"type": "note_off", "time": 85, "note": 59, "velocity": 106, "channel": 0}, {"type": "note_on", "time": 10, "note": 61, "velocity": 106, "channel": 0}, {"type": "note_off", "time": 76, "note": 61, "velocity": 106, "channel": 0}, {"type": "note_on", "time": 0, "note": 63, "velocity": 108, "channel": 0}, {"type": "note_on", "time": 118, "note": 66, "velocity": 93, "channel": 0}, {"type": "note_off", "time": 0, "note": 63, "velocity": 108, "channel": 0}, {"type": "note_off", "time": 60, "note": 66, "velocity": 93, "channel": 0}, {"type": "note_on", "time": 6, "note": 67, "velocity": 108, "channel": 0}, {"type": "note_off", "time": 112, "note": 67, "velocity": 108, "channel": 0}, {"type": "note_on", "time": 16, "note": 66, "velocity": 105, "channel": 0}, {"type": "note_off", "time": 70, "note": 66, "velocity": 105, "channel": 0}, {"type": "note_on", "time": 6, "note": 63, "velocity": 110, "channel": 0}, {"type": "note_off", "time": 80, "note": 63, "velocity": 110, "channel": 0}, {"type": "note_on", "time": 10, "note": 59, "velocity": 85, "channel": 0}, {"type": "note_off", "time": 70, "note": 59, "velocity": 85, "channel": 0}, {"type": "note_on", "time": 18, "note": 69, "velocity": 97, "channel": 0}, {"type": "note_off", "time": 93, "note": 69, "velocity": 97, "channel": 0}, {"type": "note_on", "time": 2, "note": 68, "velocity": 110, "channel": 0}, {"type": "note_off", "time": 60, "note": 68, "velocity": 110, "channel": 0}, {"type": "note_on", "time": 10, "note": 67, "velocity": 103, "channel": 0}, {"type": "note_off", "time": 53, "note": 67, "velocity": 103, "channel": 0}, {"type": "note_on", "time": 4, "note": 65, "velocity": 96, "channel": 0}, {"type": "note_off", "time": 62, "note": 65, "velocity": 96, "channel": 0}, {"type": "note_on", "time": 10, "note": 62, "velocity": 93, "channel": 0}, {"type": "note_off", "time": 56, "note": 62, "velocity": 93, "channel": 0}, {"type": "note_on", "time": 12, "note": 71, "velocity": 96, "channel": 0}, {"type": "note_off", "time": 97, "note": 71, "velocity": 96, "channel": 0}, {"type": "note_on", "time": 14, "note": 69, "velocity": 93, "channel": 0}, {"type": "note_off", "time": 60, "note": 69, "velocity": 93, "channel": 0}, {"type": "note_on", "time": 4, "note": 70, "velocity": 108, "channel": 0}, {"type": "note_off", "time": 118, "note": 70, "velocity": 108, "channel": 0}, {"type": "note_on", "time": 12, "note": 67, "velocity": 105, "channel": 0}, {"type": "note_off", "time": 89, "note": 67, "velocity": 105, "channel": 0}, {"type": "note_on", "time": 4, "note": 69, "velocity": 99, "channel": 0}, {"type": "note_off", "time": 91, "note": 69, "velocity": 99, "channel": 0}, {"type": "note_on", "time": 10, "note": 67, "velocity": 101, "channel": 0}, {"type": "note_off", "time": 83, "note": 67, "velocity": 101, "channel": 0}, {"type": "note_on", "time": 0, "note": 68, "velocity": 104, "channel": 0}, {"type": "note_off", "time": 80, "note": 68, "velocity": 104, "channel": 0}, {"type": "note_on", "time": 6, "note": 70, "velocity": 102, "channel": 0}, {"type": "note_off", "time": 72, "note": 70, "velocity": 102, "channel": 0}, {"type": "note_on", "time": 10, "note": 71, "velocity": 103, "channel": 0}, {"type": "note_off", "time": 72, "note": 71, "velocity": 103, "channel": 0}, {"type": "note_on", "time": 0, "note": 69, "velocity": 92, "channel": 0}, {"type": "note_off", "time": 76, "note": 69, "velocity": 92, "channel": 0}, {"type": "note_on", "time": 6, "note": 70, "velocity": 103, "channel": 0}, {"type": "note_off", "time": 359, "note": 70, "velocity": 103, "channel": 0}, {"type": "note_on", "time": 35, "note": 68, "velocity": 109, "channel": 0}, {"type": "note_off", "time": 97, "note": 68, "velocity": 109, "channel": 0}, {"type": "note_on", "time": 2, "note": 67, "velocity": 105, "channel": 0}, {"type": "note_off", "time": 295, "note": 67, "velocity": 105, "channel": 0}, {"type": "note_on", "time": 9, "note": 66, "velocity": 104, "channel": 0}, {"type": "note_off", "time": 97, "note": 66, "velocity": 104, "channel": 0}, {"type": "note_on", "time": 14, "note": 65, "velocity": 107, "channel": 0}, {"type": "note_off", "time": 130, "note": 65, "velocity": 107, "channel": 0}, {"type": "note_on", "time": 14, "note": 64, "velocity": 112, "channel": 0}, {"type": "note_off", "time": 64, "note": 64, "velocity": 112, "channel": 0}, {"type": "note_on", "time": 16, "note": 63, "velocity": 114, "channel": 0}, {"type": "note_off", "time": 97, "note": 63, "velocity": 114, "channel": 0}, {"type": "note_on", "time": 2, "note": 67, "velocity": 106, "channel": 0}, {"type": "note_off", "time": 74, "note": 67, "velocity": 106, "channel": 0}, {"type": "note_on", "time": 2, "note": 65, "velocity": 106, "channel": 0}, {"type": "note_off", "time": 87, "note": 65, "velocity": 106, "channel": 0}, {"type": "note_on", "time": 8, "note": 62, "velocity": 109, "channel": 0}, {"type": "note_off", "time": 83, "note": 62, "velocity": 109, "channel": 0}, {"type": "note_on", "time": 10, "note": 58, "velocity": 105, "channel": 0}, {"type": "note_off", "time": 64, "note": 58, "velocity": 105, "channel": 0}, {"type": "note_on", "time": 16, "note": 55, "velocity": 94, "channel": 0}, {"type": "note_off", "time": 80, "note": 55, "velocity": 94, "channel": 0}, {"type": "note_on", "time": 37, "note": 62, "velocity": 118, "channel": 0}, {"type": "note_off", "time": 99, "note": 62, "velocity": 118, "channel": 0}, {"type": "note_on", "time": 6, "note": 60, "velocity": 108, "channel": 0}, {"type": "note_off", "time": 78, "note": 60, "velocity": 108, "channel": 0}, {"type": "note_on", "time": 4, "note": 58, "velocity": 106, "channel": 0}, {"type": "note_off", "time": 74, "note": 58, "velocity": 106, "channel": 0}, {"type": "note_on", "time": 37, "note": 55, "velocity": 101, "channel": 0}, {"type": "note_off", "time": 70, "note": 55, "velocity": 101, "channel": 0}, {"type": "note_on", "time": 10, "note": 57, "velocity": 107, "channel": 0}, {"type": "note_off", "time": 83, "note": 57, "velocity": 107, "channel": 0}, {"type": "note_on", "time": 6, "note": 55, "velocity": 105, "channel": 0}, {"type": "note_off", "time": 66, "note": 55, "velocity": 105, "channel": 0}, {"type": "note_on", "time": 18, "note": 53, "velocity": 113, "channel": 0}, {"type": "note_off", "time": 87, "note": 53, "velocity": 113, "channel": 0}, {"type": "note_on", "time": 2, "note": 51, "velocity": 102, "channel": 0}, {"type": "note_off", "time": 89, "note": 51, "velocity": 102, "channel": 0}, {"type": "note_on", "time": 12, "note": 45, "velocity": 115, "channel": 0}, {"type": "note_off", "time": 159, "note": 45, "velocity": 115, "channel": 0}, {"type": "note_on", "time": 39, "note": 51, "velocity": 115, "channel": 0}, {"type": "note_off", "time": 93, "note": 51, "velocity": 115, "channel": 0}, {"type": "note_on", "time": 16, "note": 45, "velocity": 119, "channel": 0}, {"type": "note_off", "time": 166, "note": 45, "velocity": 119, "channel": 0}, {"type": "note_on", "time": 724, "note": 45, "velocity": 115, "channel": 0}, {"type": "note_off", "time": 97, "note": 45, "velocity": 115, "channel": 0}, {"type": "note_on", "time": 10, "note": 51, "velocity": 113, "channel": 0}, {"type": "note_off", "time": 95, "note": 51, "velocity": 113, "channel": 0}, {"type": "note_on", "time": 2, "note": 57, "velocity": 105, "channel": 0}, {"type": "note_off", "time": 91, "note": 57, "velocity": 105, "channel": 0}, {"type": "note_on", "time": 4, "note": 47, "velocity": 108, "channel": 0}, {"type": "note_off", "time": 89, "note": 47, "velocity": 108, "channel": 0}, {"type": "note_on", "time": 12, "note": 51, "velocity": 107, "channel": 0}, {"type": "note_off", "time": 97, "note": 51, "velocity": 107, "channel": 0}, {"type": "note_on", "time": 12, "note": 55, "velocity": 103, "channel": 0}, {"type": "note_off", "time": 60, "note": 55, "velocity": 103, "channel": 0}, {"type": "note_on", "time": 8, "note": 59, "velocity": 107, "channel": 0}, {"type": "note_off", "time": 74, "note": 59, "velocity": 107, "channel": 0}, {"type": "note_on", "time": 10, "note": 54, "velocity": 110, "channel": 0}, {"type": "note_off", "time": 76, "note": 54, "velocity": 110, "channel": 0}, {"type": "note_on", "time": 47, "note": 50, "velocity": 95, "channel": 0}, {"type": "note_off", "time": 68, "note": 50, "velocity": 95, "channel": 0}, {"type": "note_on", "time": 16, "note": 53, "velocity": 108, "channel": 0}, {"type": "note_off", "time": 85, "note": 53, "velocity": 108, "channel": 0}, {"type": "note_on", "time": 2, "note": 52, "velocity": 111, "channel": 0}, {"type": "note_off", "time": 89, "note": 52, "velocity": 111, "channel": 0}, {"type": "note_on", "time": 4, "note": 51, "velocity": 105, "channel": 0}, {"type": "note_off", "time": 72, "note": 51, "velocity": 105, "channel": 0}, {"type": "note_on", "time": 33, "note": 55, "velocity": 106, "channel": 0}, {"type": "note_off", "time": 60, "note": 55, "velocity": 106, "channel": 0}, {"type": "note_on", "time": 8, "note": 59, "velocity": 112, "channel": 0}, {"type": "note_off", "time": 74, "note": 59, "velocity": 112, "channel": 0}, {"type": "note_on", "time": 20, "note": 62, "velocity": 108, "channel": 0}, {"type": "note_off", "time": 78, "note": 62, "velocity": 108, "channel": 0}, {"type": "note_on", "time": 24, "note": 66, "velocity": 111, "channel": 0}, {"type": "note_off", "time": 74, "note": 66, "velocity": 111, "channel": 0}, {"type": "note_on", "time": 8, "note": 62, "velocity": 106, "channel": 0}, {"type": "note_off", "time": 56, "note": 62, "velocity": 106, "channel": 0}, {"type": "note_on", "time": 6, "note": 59, "velocity": 106, "channel": 0}, {"type": "note_off", "time": 80, "note": 59, "velocity": 106, "channel": 0}, {"type": "note_on", "time": 37, "note": 55, "velocity": 95, "channel": 0}, {"type": "note_off", "time": 56, "note": 55, "velocity": 95, "channel": 0}, {"type": "note_on", "time": 33, "note": 65, "velocity": 112, "channel": 0}, {"type": "note_off", "time": 76, "note": 65, "velocity": 112, "channel": 0}, {"type": "note_on", "time": 8, "note": 62, "velocity": 113, "channel": 0}, {"type": "note_off", "time": 80, "note": 62, "velocity": 113, "channel": 0}, {"type": "note_on", "time": 10, "note": 59, "velocity": 107, "channel": 0}, {"type": "note_off", "time": 91, "note": 59, "velocity": 107, "channel": 0}, {"type": "note_on", "time": 10, "note": 57, "velocity": 97, "channel": 0}, {"type": "note_off", "time": 68, "note": 57, "velocity": 97, "channel": 0}, {"type": "note_on", "time": 6, "note": 58, "velocity": 108, "channel": 0}, {"type": "note_off", "time": 95, "note": 58, "velocity": 108, "channel": 0}, {"type": "note_on", "time": 24, "note": 54, "velocity": 102, "channel": 0}, {"type": "note_off", "time": 95, "note": 54, "velocity": 102, "channel": 0}, {"type": "note_on", "time": 4, "note": 50, "velocity": 104, "channel": 0}, {"type": "note_off", "time": 80, "note": 50, "velocity": 104, "channel": 0}, {"type": "note_on", "time": 12, "note": 46, "velocity": 112, "channel": 0}, {"type": "note_off", "time": 110, "note": 46, "velocity": 112, "channel": 0}, {"type": "note_on", "time": 432, "note": 46, "velocity": 116, "channel": 0}, {"type": "note_off", "time": 76, "note": 46, "velocity": 116, "channel": 0}, {"type": "note_on", "time": 0, "note": 50, "velocity": 105, "channel": 0}, {"type": "note_off", "time": 53, "note": 50, "velocity": 105, "channel": 0}, {"type": "note_on", "time": 8, "note": 53, "velocity": 97, "channel": 0}, {"type": "note_off", "time": 35, "note": 53, "velocity": 97, "channel": 0}, {"type": "note_on", "time": 5, "note": 58, "velocity": 105, "channel": 0}, {"type": "note_off", "time": 94, "note": 58, "velocity": 105, "channel": 0}, {"type": "note_on", "time": 2, "note": 53, "velocity": 109, "channel": 0}, {"type": "note_off", "time": 103, "note": 53, "velocity": 109, "channel": 0}, {"type": "note_on", "time": 2, "note": 52, "velocity": 104, "channel": 0}, {"type": "note_off", "time": 76, "note": 52, "velocity": 104, "channel": 0}, {"type": "note_on", "time": 8, "note": 51, "velocity": 103, "channel": 0}, {"type": "note_off", "time": 73, "note": 51, "velocity": 103, "channel": 0}, {"type": "note_on", "time": 5, "note": 53, "velocity": 104, "channel": 0}, {"type": "note_off", "time": 103, "note": 53, "velocity": 104, "channel": 0}, {"type": "note_on", "time": 11, "note": 50, "velocity": 103, "channel": 0}, {"type": "note_off", "time": 100, "note": 50, "velocity": 103, "channel": 0}, {"type": "note_on", "time": 5, "note": 55, "velocity": 95, "channel": 0}, {"type": "note_off", "time": 41, "note": 55, "velocity": 95, "channel": 0}, {"type": "note_on", "time": 11, "note": 58, "velocity": 106, "channel": 0}, {"type": "note_off", "time": 97, "note": 58, "velocity": 106, "channel": 0}, {"type": "note_on", "time": 2, "note": 62, "velocity": 105, "channel": 0}, {"type": "note_off", "time": 88, "note": 62, "velocity": 105, "channel": 0}, {"type": "note_on", "time": 14, "note": 57, "velocity": 114, "channel": 0}, {"type": "note_off", "time": 91, "note": 57, "velocity": 114, "channel": 0}, {"type": "note_on", "time": 2, "note": 55, "velocity": 105, "channel": 0}, {"type": "note_off", "time": 106, "note": 55, "velocity": 105, "channel": 0}, {"type": "note_on", "time": 5, "note": 56, "velocity": 102, "channel": 0}, {"type": "note_off", "time": 70, "note": 56, "velocity": 102, "channel": 0}, {"type": "note_on", "time": 2, "note": 58, "velocity": 105, "channel": 0}, {"type": "note_off", "time": 82, "note": 58, "velocity": 105, "channel": 0}, {"type": "note_on", "time": 8, "note": 59, "velocity": 103, "channel": 0}, {"type": "note_off", "time": 109, "note": 59, "velocity": 103, "channel": 0}, {"type": "note_on", "time": 2, "note": 57, "velocity": 98, "channel": 0}, {"type": "note_off", "time": 59, "note": 57, "velocity": 98, "channel": 0}, {"type": "note_on", "time": 11, "note": 58, "velocity": 104, "channel": 0}, {"type": "note_off", "time": 115, "note": 58, "velocity": 104, "channel": 0}, {"type": "note_on", "time": 5, "note": 57, "velocity": 105, "channel": 0}, {"type": "note_off", "time": 64, "note": 57, "velocity": 105, "channel": 0}, {"type": "note_on", "time": 5, "note": 56, "velocity": 104, "channel": 0}, {"type": "note_off", "time": 85, "note": 56, "velocity": 104, "channel": 0}, {"type": "note_on", "time": 8, "note": 55, "velocity": 103, "channel": 0}, {"type": "note_off", "time": 100, "note": 55, "velocity": 103, "channel": 0}, {"type": "note_on", "time": 11, "note": 54, "velocity": 104, "channel": 0}, {"type": "note_off", "time": 91, "note": 54, "velocity": 104, "channel": 0}, {"type": "note_on", "time": 6, "note": 50, "velocity": 103, "channel": 0}, {"type": "note_off", "time": 74, "note": 50, "velocity": 103, "channel": 0}, {"type": "note_on", "time": 26, "note": 53, "velocity": 107, "channel": 0}, {"type": "note_off", "time": 178, "note": 53, "velocity": 107, "channel": 0}, {"type": "note_on", "time": 12, "note": 50, "velocity": 107, "channel": 0}, {"type": "note_off", "time": 159, "note": 50, "velocity": 107, "channel": 0}, {"type": "note_on", "time": 2, "note": 52, "velocity": 112, "channel": 0}, {"type": "note_off", "time": 180, "note": 52, "velocity": 112, "channel": 0}, {"type": "note_on", "time": 10, "note": 46, "velocity": 110, "channel": 0}, {"type": "note_off", "time": 145, "note": 46, "velocity": 110, "channel": 0}, {"type": "note_on", "time": 436, "note": 45, "velocity": 105, "channel": 0}, {"type": "note_off", "time": 112, "note": 45, "velocity": 105, "channel": 0}, {"type": "note_on", "time": 10, "note": 51, "velocity": 114, "channel": 0}, {"type": "note_off", "time": 67, "note": 51, "velocity": 114, "channel": 0}, {"type": "note_on", "time": 7, "note": 55, "velocity": 116, "channel": 0}, {"type": "note_off", "time": 84, "note": 55, "velocity": 116, "channel": 0}, {"type": "note_on", "time": 262, "note": 47, "velocity": 105, "channel": 0}, {"type": "note_off", "time": 78, "note": 47, "velocity": 105, "channel": 0}, {"type": "note_on", "time": 0, "note": 51, "velocity": 105, "channel": 0}, {"type": "note_off", "time": 85, "note": 51, "velocity": 105, "channel": 0}, {"type": "note_on", "time": 5, "note": 55, "velocity": 105, "channel": 0}, {"type": "note_off", "time": 121, "note": 55, "velocity": 105, "channel": 0}, {"type": "note_on", "time": 280, "note": 44, "velocity": 123, "channel": 0}, {"type": "note_off", "time": 66, "note": 44, "velocity": 123, "channel": 0}, {"type": "note_on", "time": 1, "note": 46, "velocity": 115, "channel": 0}, {"type": "note_off", "time": 53, "note": 46, "velocity": 115, "channel": 0}, {"type": "note_on", "time": 4, "note": 48, "velocity": 103, "channel": 0}, {"type": "note_off", "time": 47, "note": 48, "velocity": 103, "channel": 0}, {"type": "note_on", "time": 16, "note": 52, "velocity": 110, "channel": 0}, {"type": "note_off", "time": 94, "note": 52, "velocity": 110, "channel": 0}, {"type": "note_on", "time": 265, "note": 46, "velocity": 113, "channel": 0}, {"type": "note_off", "time": 87, "note": 46, "velocity": 113, "channel": 0}, {"type": "note_on", "time": 7, "note": 50, "velocity": 106, "channel": 0}, {"type": "note_off", "time": 87, "note": 50, "velocity": 106, "channel": 0}, {"type": "note_on", "time": 5, "note": 54, "velocity": 104, "channel": 0}, {"type": "note_off", "time": 97, "note": 54, "velocity": 104, "channel": 0}, {"type": "note_on", "time": 285, "note": 46, "velocity": 118, "channel": 0}, {"type": "note_off", "time": 84, "note": 46, "velocity": 118, "channel": 0}, {"type": "note_on", "time": 5, "note": 50, "velocity": 108, "channel": 0}, {"type": "note_off", "time": 91, "note": 50, "velocity": 108, "channel": 0}, {"type": "note_on", "time": 8, "note": 54, "velocity": 106, "channel": 0}, {"type": "note_off", "time": 66, "note": 54, "velocity": 106, "channel": 0}, {"type": "note_on", "time": 11, "note": 58, "velocity": 108, "channel": 0}, {"type": "note_off", "time": 94, "note": 58, "velocity": 108, "channel": 0}, {"type": "note_on", "time": 13, "note": 53, "velocity": 113, "channel": 0}, {"type": "note_off", "time": 93, "note": 53, "velocity": 113, "channel": 0}, {"type": "note_on", "time": 5, "note": 51, "velocity": 100, "channel": 0}, {"type": "note_off", "time": 93, "note": 51, "velocity": 100, "channel": 0}, {"type": "note_on", "time": 8, "note": 52, "velocity": 108, "channel": 0}, {"type": "note_off", "time": 72, "note": 52, "velocity": 108, "channel": 0}, {"type": "note_on", "time": 10, "note": 51, "velocity": 113, "channel": 0}, {"type": "note_off", "time": 79, "note": 51, "velocity": 113, "channel": 0}, {"type": "note_on", "time": 8, "note": 50, "velocity": 103, "channel": 0}, {"type": "note_off", "time": 78, "note": 50, "velocity": 103, "channel": 0}, {"type": "note_on", "time": 321, "note": 47, "velocity": 107, "channel": 0}, {"type": "note_off", "time": 73, "note": 47, "velocity": 107, "channel": 0}, {"type": "note_on", "time": 7, "note": 51, "velocity": 118, "channel": 0}, {"type": "note_off", "time": 70, "note": 51, "velocity": 118, "channel": 0}, {"type": "note_on", "time": 5, "note": 55, "velocity": 105, "channel": 0}, {"type": "note_off", "time": 67, "note": 55, "velocity": 105, "channel": 0}, {"type": "note_on", "time": 4, "note": 59, "velocity": 108, "channel": 0}, {"type": "note_off", "time": 85, "note": 59, "velocity": 108, "channel": 0}, {"type": "note_on", "time": 8, "note": 54, "velocity": 110, "channel": 0}, {"type": "note_off", "time": 82, "note": 54, "velocity": 110, "channel": 0}, {"type": "note_on", "time": 5, "note": 51, "velocity": 101, "channel": 0}, {"type": "note_off", "time": 101, "note": 51, "velocity": 101, "channel": 0}, {"type": "note_on", "time": 13, "note": 53, "velocity": 110, "channel": 0}, {"type": "note_off", "time": 76, "note": 53, "velocity": 110, "channel": 0}, {"type": "note_on", "time": 4, "note": 52, "velocity": 110, "channel": 0}, {"type": "note_off", "time": 69, "note": 52, "velocity": 110, "channel": 0}, {"type": "note_on", "time": 14, "note": 51, "velocity": 106, "channel": 0}, {"type": "note_off", "time": 95, "note": 51, "velocity": 106, "channel": 0}, {"type": "note_on", "time": 311, "note": 46, "velocity": 112, "channel": 0}, {"type": "note_off", "time": 63, "note": 46, "velocity": 112, "channel": 0}, {"type": "note_on", "time": 8, "note": 50, "velocity": 109, "channel": 0}, {"type": "note_off", "time": 81, "note": 50, "velocity": 109, "channel": 0}, {"type": "note_on", "time": 8, "note": 54, "velocity": 108, "channel": 0}, {"type": "note_off", "time": 110, "note": 54, "velocity": 108, "channel": 0}, {"type": "note_on", "time": 279, "note": 50, "velocity": 107, "channel": 0}, {"type": "note_off", "time": 90, "note": 50, "velocity": 107, "channel": 0}, {"type": "note_on", "time": 10, "note": 54, "velocity": 108, "channel": 0}, {"type": "note_off", "time": 69, "note": 54, "velocity": 108, "channel": 0}, {"type": "note_on", "time": 6, "note": 58, "velocity": 110, "channel": 0}, {"type": "note_off", "time": 106, "note": 58, "velocity": 110, "channel": 0}, {"type": "note_on", "time": 6, "note": 62, "velocity": 118, "channel": 0}, {"type": "note_off", "time": 91, "note": 62, "velocity": 118, "channel": 0}, {"type": "note_on", "time": 11, "note": 63, "velocity": 119, "channel": 0}, {"type": "note_off", "time": 88, "note": 63, "velocity": 119, "channel": 0}, {"type": "note_on", "time": 6, "note": 62, "velocity": 119, "channel": 0}, {"type": "note_off", "time": 106, "note": 62, "velocity": 119, "channel": 0}, {"type": "note_on", "time": 6, "note": 61, "velocity": 115, "channel": 0}, {"type": "note_off", "time": 66, "note": 61, "velocity": 115, "channel": 0}, {"type": "note_on", "time": 4, "note": 60, "velocity": 107, "channel": 0}, {"type": "note_off", "time": 70, "note": 60, "velocity": 107, "channel": 0}, {"type": "note_on", "time": 18, "note": 59, "velocity": 110, "channel": 0}, {"type": "note_off", "time": 84, "note": 59, "velocity": 110, "channel": 0}, {"type": "note_on", "time": 11, "note": 57, "velocity": 105, "channel": 0}, {"type": "note_off", "time": 90, "note": 57, "velocity": 105, "channel": 0}, {"type": "note_on", "time": 13, "note": 58, "velocity": 110, "channel": 0}, {"type": "note_off", "time": 91, "note": 58, "velocity": 110, "channel": 0}, {"type": "note_on", "time": 17, "note": 55, "velocity": 106, "channel": 0}, {"type": "note_off", "time": 91, "note": 55, "velocity": 106, "channel": 0}, {"type": "note_on", "time": 3, "note": 56, "velocity": 107, "channel": 0}, {"type": "note_off", "time": 63, "note": 56, "velocity": 107, "channel": 0}, {"type": "note_on", "time": 7, "note": 58, "velocity": 110, "channel": 0}, {"type": "note_off", "time": 90, "note": 58, "velocity": 110, "channel": 0}, {"type": "note_on", "time": 3, "note": 59, "velocity": 109, "channel": 0}, {"type": "note_off", "time": 78, "note": 59, "velocity": 109, "channel": 0}, {"type": "note_on", "time": 11, "note": 61, "velocity": 112, "channel": 0}, {"type": "note_off", "time": 82, "note": 61, "velocity": 112, "channel": 0}, {"type": "note_on", "time": 5, "note": 63, "velocity": 117, "channel": 0}, {"type": "note_off", "time": 104, "note": 63, "velocity": 117, "channel": 0}, {"type": "note_on", "time": 4, "note": 66, "velocity": 112, "channel": 0}, {"type": "note_off", "time": 81, "note": 66, "velocity": 112, "channel": 0}, {"type": "note_on", "time": 4, "note": 65, "velocity": 112, "channel": 0}, {"type": "note_off", "time": 88, "note": 65, "velocity": 112, "channel": 0}, {"type": "note_on", "time": 14, "note": 64, "velocity": 114, "channel": 0}, {"type": "note_off", "time": 75, "note": 64, "velocity": 114, "channel": 0}, {"type": "note_on", "time": 7, "note": 63, "velocity": 116, "channel": 0}, {"type": "note_off", "time": 85, "note": 63, "velocity": 116, "channel": 0}, {"type": "note_on", "time": 1, "note": 65, "velocity": 113, "channel": 0}, {"type": "note_off", "time": 103, "note": 65, "velocity": 113, "channel": 0}, {"type": "note_on", "time": 8, "note": 62, "velocity": 110, "channel": 0}, {"type": "note_off", "time": 75, "note": 62, "velocity": 110, "channel": 0}, {"type": "note_on", "time": 8, "note": 60, "velocity": 107, "channel": 0}, {"type": "note_off", "time": 82, "note": 60, "velocity": 107, "channel": 0}, {"type": "note_on", "time": 10, "note": 59, "velocity": 103, "channel": 0}, {"type": "note_off", "time": 76, "note": 59, "velocity": 103, "channel": 0}, {"type": "note_on", "time": 21, "note": 55, "velocity": 105, "channel": 0}, {"type": "note_off", "time": 63, "note": 55, "velocity": 105, "channel": 0}, {"type": "note_on", "time": 7, "note": 60, "velocity": 113, "channel": 0}, {"type": "note_off", "time": 94, "note": 60, "velocity": 113, "channel": 0}, {"type": "note_on", "time": 3, "note": 63, "velocity": 118, "channel": 0}, {"type": "note_off", "time": 104, "note": 63, "velocity": 118, "channel": 0}, {"type": "note_on", "time": 6, "note": 62, "velocity": 115, "channel": 0}, {"type": "note_off", "time": 66, "note": 62, "velocity": 115, "channel": 0}, {"type": "note_on", "time": 7, "note": 60, "velocity": 104, "channel": 0}, {"type": "note_off", "time": 78, "note": 60, "velocity": 104, "channel": 0}, {"type": "note_on", "time": 5, "note": 59, "velocity": 106, "channel": 0}, {"type": "note_off", "time": 78, "note": 59, "velocity": 106, "channel": 0}, {"type": "note_on", "time": 14, "note": 55, "velocity": 101, "channel": 0}, {"type": "note_off", "time": 97, "note": 55, "velocity": 101, "channel": 0}, {"type": "note_on", "time": 6, "note": 57, "velocity": 105, "channel": 0}, {"type": "note_off", "time": 93, "note": 57, "velocity": 105, "channel": 0}, {"type": "note_on", "time": 8, "note": 62, "velocity": 114, "channel": 0}, {"type": "note_off", "time": 93, "note": 62, "velocity": 114, "channel": 0}, {"type": "note_on", "time": 15, "note": 59, "velocity": 105, "channel": 0}, {"type": "note_off", "time": 82, "note": 59, "velocity": 105, "channel": 0}, {"type": "note_on", "time": 5, "note": 60, "velocity": 108, "channel": 0}, {"type": "note_off", "time": 90, "note": 60, "velocity": 108, "channel": 0}, {"type": "note_on", "time": 4, "note": 63, "velocity": 108, "channel": 0}, {"type": "note_off", "time": 97, "note": 63, "velocity": 108, "channel": 0}, {"type": "note_on", "time": 48, "note": 70, "velocity": 115, "channel": 0}, {"type": "note_off", "time": 107, "note": 70, "velocity": 115, "channel": 0}, {"type": "note_on", "time": 7, "note": 67, "velocity": 109, "channel": 0}, {"type": "note_off", "time": 103, "note": 67, "velocity": 109, "channel": 0}, {"type": "note_on", "time": 4, "note": 68, "velocity": 112, "channel": 0}, {"type": "note_off", "time": 63, "note": 68, "velocity": 112, "channel": 0}, {"type": "note_on", "time": 10, "note": 71, "velocity": 105, "channel": 0}, {"type": "note_off", "time": 69, "note": 71, "velocity": 105, "channel": 0}, {"type": "note_on", "time": 20, "note": 75, "velocity": 115, "channel": 0}, {"type": "note_off", "time": 59, "note": 75, "velocity": 115, "channel": 0}, {"type": "note_on", "time": 25, "note": 79, "velocity": 116, "channel": 0}, {"type": "note_off", "time": 51, "note": 79, "velocity": 116, "channel": 0}, {"type": "note_on", "time": 0, "note": 80, "velocity": 115, "channel": 0}, {"type": "note_off", "time": 800, "note": 80, "velocity": 115, "channel": 0}, {"type": "note_on", "time": 989, "note": 45, "velocity": 116, "channel": 0}, {"type": "note_off", "time": 82, "note": 45, "velocity": 116, "channel": 0}, {"type": "note_on", "time": 7, "note": 51, "velocity": 110, "channel": 0}, {"type": "note_off", "time": 94, "note": 51, "velocity": 110, "channel": 0}, {"type": "note_on", "time": 13, "note": 55, "velocity": 107, "channel": 0}, {"type": "note_off", "time": 76, "note": 55, "velocity": 107, "channel": 0}, {"type": "note_on", "time": 11, "note": 50, "velocity": 113, "channel": 0}, {"type": "note_off", "time": 119, "note": 50, "velocity": 113, "channel": 0}, {"type": "note_on", "time": 2, "note": 51, "velocity": 111, "channel": 0}, {"type": "note_off", "time": 62, "note": 51, "velocity": 111, "channel": 0}, {"type": "note_on", "time": 1, "note": 55, "velocity": 106, "channel": 0}, {"type": "note_off", "time": 98, "note": 55, "velocity": 106, "channel": 0}, {"type": "note_on", "time": 10, "note": 59, "velocity": 109, "channel": 0}, {"type": "note_off", "time": 88, "note": 59, "velocity": 109, "channel": 0}, {"type": "note_on", "time": 2, "note": 63, "velocity": 116, "channel": 0}, {"type": "note_off", "time": 100, "note": 63, "velocity": 116, "channel": 0}, {"type": "note_on", "time": 4, "note": 62, "velocity": 116, "channel": 0}, {"type": "note_off", "time": 66, "note": 62, "velocity": 116, "channel": 0}, {"type": "note_on", "time": 14, "note": 59, "velocity": 105, "channel": 0}, {"type": "note_off", "time": 97, "note": 59, "velocity": 105, "channel": 0}, {"type": "note_on", "time": 16, "note": 55, "velocity": 94, "channel": 0}, {"type": "note_off", "time": 54, "note": 55, "velocity": 94, "channel": 0}, {"type": "note_on", "time": 1, "note": 60, "velocity": 114, "channel": 0}, {"type": "note_off", "time": 113, "note": 60, "velocity": 114, "channel": 0}, {"type": "note_on", "time": 7, "note": 62, "velocity": 117, "channel": 0}, {"type": "note_off", "time": 60, "note": 62, "velocity": 117, "channel": 0}, {"type": "note_on", "time": 8, "note": 63, "velocity": 121, "channel": 0}, {"type": "note_off", "time": 106, "note": 63, "velocity": 121, "channel": 0}, {"type": "note_on", "time": 14, "note": 65, "velocity": 107, "channel": 0}, {"type": "note_off", "time": 75, "note": 65, "velocity": 107, "channel": 0}, {"type": "note_on", "time": 4, "note": 67, "velocity": 113, "channel": 0}, {"type": "note_off", "time": 53, "note": 67, "velocity": 113, "channel": 0}, {"type": "note_on", "time": 7, "note": 70, "velocity": 111, "channel": 0}, {"type": "note_off", "time": 88, "note": 70, "velocity": 111, "channel": 0}, {"type": "note_on", "time": 5, "note": 67, "velocity": 112, "channel": 0}, {"type": "note_off", "time": 101, "note": 67, "velocity": 112, "channel": 0}, {"type": "note_on", "time": 10, "note": 68, "velocity": 115, "channel": 0}, {"type": "note_off", "time": 73, "note": 68, "velocity": 115, "channel": 0}, {"type": "note_on", "time": 0, "note": 71, "velocity": 105, "channel": 0}, {"type": "note_off", "time": 51, "note": 71, "velocity": 105, "channel": 0}, {"type": "note_on", "time": 0, "note": 73, "velocity": 103, "channel": 0}, {"type": "note_off", "time": 32, "note": 73, "velocity": 103, "channel": 0}, {"type": "note_on", "time": 2, "note": 75, "velocity": 115, "channel": 0}, {"type": "note_off", "time": 76, "note": 75, "velocity": 115, "channel": 0}, {"type": "note_on", "time": 4, "note": 79, "velocity": 117, "channel": 0}, {"type": "note_off", "time": 100, "note": 79, "velocity": 117, "channel": 0}, {"type": "note_on", "time": 2, "note": 80, "velocity": 117, "channel": 0}, {"type": "note_off", "time": 98, "note": 80, "velocity": 117, "channel": 0}, {"type": "note_on", "time": 1, "note": 79, "velocity": 120, "channel": 0}, {"type": "note_off", "time": 326, "note": 79, "velocity": 120, "channel": 0}, {"type": "note_on", "time": 5, "note": 75, "velocity": 100, "channel": 0}, {"type": "note_off", "time": 32, "note": 75, "velocity": 100, "channel": 0}, {"type": "note_on", "time": 2, "note": 76, "velocity": 121, "channel": 0}, {"type": "note_off", "time": 82, "note": 76, "velocity": 121, "channel": 0}, {"type": "note_on", "time": 10, "note": 72, "velocity": 109, "channel": 0}, {"type": "note_off", "time": 119, "note": 72, "velocity": 109, "channel": 0}, {"type": "note_on", "time": 13, "note": 68, "velocity": 114, "channel": 0}, {"type": "note_off", "time": 90, "note": 68, "velocity": 114, "channel": 0}, {"type": "note_on", "time": 435, "note": 45, "velocity": 122, "channel": 0}, {"type": "note_off", "time": 88, "note": 45, "velocity": 122, "channel": 0}, {"type": "note_on", "time": 5, "note": 51, "velocity": 115, "channel": 0}, {"type": "note_off", "time": 85, "note": 51, "velocity": 115, "channel": 0}, {"type": "note_on", "time": 5, "note": 55, "velocity": 109, "channel": 0}, {"type": "note_off", "time": 82, "note": 55, "velocity": 109, "channel": 0}, {"type": "note_on", "time": 11, "note": 51, "velocity": 116, "channel": 0}, {"type": "note_off", "time": 76, "note": 51, "velocity": 116, "channel": 0}, {"type": "note_on", "time": 5, "note": 48, "velocity": 111, "channel": 0}, {"type": "note_off", "time": 73, "note": 48, "velocity": 111, "channel": 0}, {"type": "note_on", "time": 2, "note": 50, "velocity": 97, "channel": 0}, {"type": "note_off", "time": 62, "note": 50, "velocity": 97, "channel": 0}, {"type": "note_on", "time": 11, "note": 53, "velocity": 112, "channel": 0}, {"type": "note_off", "time": 97, "note": 53, "velocity": 112, "channel": 0}, {"type": "note_on", "time": 4, "note": 52, "velocity": 108, "channel": 0}, {"type": "note_off", "time": 66, "note": 52, "velocity": 108, "channel": 0}, {"type": "note_on", "time": 4, "note": 51, "velocity": 108, "channel": 0}, {"type": "note_off", "time": 82, "note": 51, "velocity": 108, "channel": 0}, {"type": "note_on", "time": 11, "note": 53, "velocity": 104, "channel": 0}, {"type": "note_off", "time": 73, "note": 53, "velocity": 104, "channel": 0}, {"type": "note_on", "time": 10, "note": 58, "velocity": 106, "channel": 0}, {"type": "note_off", "time": 110, "note": 58, "velocity": 106, "channel": 0}, {"type": "note_on", "time": 11, "note": 62, "velocity": 107, "channel": 0}, {"type": "note_off", "time": 87, "note": 62, "velocity": 107, "channel": 0}, {"type": "note_on", "time": 1, "note": 65, "velocity": 113, "channel": 0}, {"type": "note_off", "time": 84, "note": 65, "velocity": 113, "channel": 0}, {"type": "note_on", "time": 8, "note": 62, "velocity": 115, "channel": 0}, {"type": "note_off", "time": 82, "note": 62, "velocity": 115, "channel": 0}, {"type": "note_on", "time": 4, "note": 58, "velocity": 104, "channel": 0}, {"type": "note_off", "time": 95, "note": 58, "velocity": 104, "channel": 0}, {"type": "note_on", "time": 4, "note": 55, "velocity": 95, "channel": 0}, {"type": "note_off", "time": 64, "note": 55, "velocity": 95, "channel": 0}, {"type": "note_on", "time": 7, "note": 60, "velocity": 115, "channel": 0}, {"type": "note_off", "time": 87, "note": 60, "velocity": 115, "channel": 0}, {"type": "note_on", "time": 4, "note": 63, "velocity": 117, "channel": 0}, {"type": "note_off", "time": 93, "note": 63, "velocity": 117, "channel": 0}, {"type": "note_on", "time": 4, "note": 62, "velocity": 116, "channel": 0}, {"type": "note_off", "time": 94, "note": 62, "velocity": 116, "channel": 0}, {"type": "note_on", "time": 4, "note": 60, "velocity": 106, "channel": 0}, {"type": "note_off", "time": 72, "note": 60, "velocity": 106, "channel": 0}, {"type": "note_on", "time": 2, "note": 59, "velocity": 104, "channel": 0}, {"type": "note_off", "time": 63, "note": 59, "velocity": 104, "channel": 0}, {"type": "note_on", "time": 2, "note": 58, "velocity": 103, "channel": 0}, {"type": "note_off", "time": 36, "note": 58, "velocity": 103, "channel": 0}, {"type": "note_on", "time": 5, "note": 55, "velocity": 106, "channel": 0}, {"type": "note_off", "time": 56, "note": 55, "velocity": 106, "channel": 0}, {"type": "note_on", "time": 11, "note": 57, "velocity": 106, "channel": 0}, {"type": "note_off", "time": 79, "note": 57, "velocity": 106, "channel": 0}, {"type": "note_on", "time": 7, "note": 59, "velocity": 102, "channel": 0}, {"type": "note_off", "time": 81, "note": 59, "velocity": 102, "channel": 0}, {"type": "note_on", "time": 7, "note": 60, "velocity": 109, "channel": 0}, {"type": "note_off", "time": 103, "note": 60, "velocity": 109, "channel": 0}, {"type": "note_on", "time": 10, "note": 62, "velocity": 116, "channel": 0}, {"type": "note_off", "time": 97, "note": 62, "velocity": 116, "channel": 0}, {"type": "note_on", "time": 4, "note": 63, "velocity": 119, "channel": 0}, {"type": "note_off", "time": 84, "note": 63, "velocity": 119, "channel": 0}, {"type": "note_on", "time": 7, "note": 65, "velocity": 117, "channel": 0}, {"type": "note_off", "time": 90, "note": 65, "velocity": 117, "channel": 0}, {"type": "note_on", "time": 11, "note": 66, "velocity": 110, "channel": 0}, {"type": "note_off", "time": 106, "note": 66, "velocity": 110, "channel": 0}, {"type": "note_on", "time": 8, "note": 67, "velocity": 98, "channel": 0}, {"type": "note_off", "time": 56, "note": 67, "velocity": 98, "channel": 0}, {"type": "note_on", "time": 5, "note": 68, "velocity": 117, "channel": 0}, {"type": "note_off", "time": 100, "note": 68, "velocity": 117, "channel": 0}, {"type": "note_on", "time": 4, "note": 66, "velocity": 101, "channel": 0}, {"type": "note_off", "time": 59, "note": 66, "velocity": 101, "channel": 0}, {"type": "note_on", "time": 5, "note": 67, "velocity": 109, "channel": 0}, {"type": "note_off", "time": 93, "note": 67, "velocity": 109, "channel": 0}, {"type": "note_on", "time": 7, "note": 66, "velocity": 109, "channel": 0}, {"type": "note_off", "time": 95, "note": 66, "velocity": 109, "channel": 0}, {"type": "note_on", "time": 14, "note": 65, "velocity": 111, "channel": 0}, {"type": "note_off", "time": 73, "note": 65, "velocity": 111, "channel": 0}, {"type": "note_on", "time": 7, "note": 64, "velocity": 117, "channel": 0}, {"type": "note_off", "time": 90, "note": 64, "velocity": 117, "channel": 0}, {"type": "note_on", "time": 5, "note": 63, "velocity": 115, "channel": 0}, {"type": "note_off", "time": 100, "note": 63, "velocity": 115, "channel": 0}, {"type": "note_on", "time": 11, "note": 65, "velocity": 112, "channel": 0}, {"type": "note_off", "time": 70, "note": 65, "velocity": 112, "channel": 0}, {"type": "note_on", "time": 4, "note": 67, "velocity": 106, "channel": 0}, {"type": "note_off", "time": 72, "note": 67, "velocity": 106, "channel": 0}, {"type": "note_on", "time": 22, "note": 70, "velocity": 102, "channel": 0}, {"type": "note_off", "time": 78, "note": 70, "velocity": 102, "channel": 0}, {"type": "note_on", "time": 7, "note": 73, "velocity": 105, "channel": 0}, {"type": "note_off", "time": 90, "note": 73, "velocity": 105, "channel": 0}, {"type": "note_on", "time": 4, "note": 74, "velocity": 106, "channel": 0}, {"type": "note_off", "time": 97, "note": 74, "velocity": 106, "channel": 0}, {"type": "note_on", "time": 4, "note": 70, "velocity": 102, "channel": 0}, {"type": "note_off", "time": 87, "note": 70, "velocity": 102, "channel": 0}, {"type": "note_on", "time": 45, "note": 67, "velocity": 98, "channel": 0}, {"type": "note_off", "time": 60, "note": 67, "velocity": 98, "channel": 0}, {"type": "note_on", "time": 3, "note": 71, "velocity": 109, "channel": 0}, {"type": "note_off", "time": 54, "note": 71, "velocity": 109, "channel": 0}, {"type": "note_on", "time": 4, "note": 72, "velocity": 105, "channel": 0}, {"type": "note_off", "time": 127, "note": 72, "velocity": 105, "channel": 0}, {"type": "note_on", "time": 4, "note": 71, "velocity": 102, "channel": 0}, {"type": "note_off", "time": 53, "note": 71, "velocity": 102, "channel": 0}, {"type": "note_on", "time": 4, "note": 69, "velocity": 107, "channel": 0}, {"type": "note_off", "time": 56, "note": 69, "velocity": 107, "channel": 0}, {"type": "note_on", "time": 4, "note": 67, "velocity": 106, "channel": 0}, {"type": "note_off", "time": 131, "note": 67, "velocity": 106, "channel": 0}, {"type": "note_on", "time": 62, "note": 67, "velocity": 100, "channel": 0}, {"type": "note_off", "time": 32, "note": 67, "velocity": 100, "channel": 0}, {"type": "note_on", "time": 5, "note": 69, "velocity": 112, "channel": 0}, {"type": "note_off", "time": 88, "note": 69, "velocity": 112, "channel": 0}, {"type": "note_on", "time": 16, "note": 72, "velocity": 104, "channel": 0}, {"type": "note_off", "time": 84, "note": 72, "velocity": 104, "channel": 0}, {"type": "note_on", "time": 5, "note": 71, "velocity": 109, "channel": 0}, {"type": "note_off", "time": 76, "note": 71, "velocity": 109, "channel": 0}, {"type": "note_on", "time": 4, "note": 69, "velocity": 90, "channel": 0}, {"type": "note_off", "time": 57, "note": 69, "velocity": 90, "channel": 0}, {"type": "note_on", "time": 22, "note": 70, "velocity": 110, "channel": 0}, {"type": "note_off", "time": 100, "note": 70, "velocity": 110, "channel": 0}, {"type": "note_on", "time": 13, "note": 67, "velocity": 105, "channel": 0}, {"type": "note_off", "time": 93, "note": 67, "velocity": 105, "channel": 0}, {"type": "note_on", "time": 4, "note": 68, "velocity": 109, "channel": 0}, {"type": "note_off", "time": 81, "note": 68, "velocity": 109, "channel": 0}, {"type": "note_on", "time": 4, "note": 72, "velocity": 91, "channel": 0}, {"type": "note_off", "time": 85, "note": 72, "velocity": 91, "channel": 0}, {"type": "note_on", "time": 1, "note": 75, "velocity": 108, "channel": 0}, {"type": "note_off", "time": 93, "note": 75, "velocity": 108, "channel": 0}, {"type": "note_on", "time": 4, "note": 79, "velocity": 114, "channel": 0}, {"type": "note_off", "time": 116, "note": 79, "velocity": 114, "channel": 0}, {"type": "note_on", "time": 13, "note": 81, "velocity": 93, "channel": 0}, {"type": "note_off", "time": 1070, "note": 81, "velocity": 93, "channel": 0}, {"type": "note_on", "time": 305, "note": 78, "velocity": 119, "channel": 0}, {"type": "note_off", "time": 82, "note": 78, "velocity": 119, "channel": 0}, {"type": "note_on", "time": 2, "note": 80, "velocity": 118, "channel": 0}, {"type": "note_off", "time": 76, "note": 80, "velocity": 118, "channel": 0}, {"type": "note_on", "time": 2, "note": 79, "velocity": 112, "channel": 0}, {"type": "note_off", "time": 189, "note": 79, "velocity": 112, "channel": 0}, {"type": "note_on", "time": 38, "note": 75, "velocity": 109, "channel": 0}, {"type": "note_off", "time": 165, "note": 75, "velocity": 109, "channel": 0}, {"type": "note_on", "time": 16, "note": 72, "velocity": 112, "channel": 0}, {"type": "note_off", "time": 158, "note": 72, "velocity": 112, "channel": 0}, {"type": "note_on", "time": 17, "note": 67, "velocity": 110, "channel": 0}, {"type": "note_off", "time": 87, "note": 67, "velocity": 110, "channel": 0}, {"type": "note_on", "time": 10, "note": 68, "velocity": 111, "channel": 0}, {"type": "note_off", "time": 93, "note": 68, "velocity": 111, "channel": 0}, {"type": "note_on", "time": 8, "note": 67, "velocity": 110, "channel": 0}, {"type": "note_off", "time": 296, "note": 67, "velocity": 110, "channel": 0}, {"type": "note_on", "time": 19, "note": 63, "velocity": 116, "channel": 0}, {"type": "note_off", "time": 379, "note": 63, "velocity": 116, "channel": 0}, {"type": "note_on", "time": 713, "note": 67, "velocity": 114, "channel": 0}, {"type": "note_off", "time": 94, "note": 67, "velocity": 114, "channel": 0}, {"type": "note_on", "time": 9, "note": 69, "velocity": 106, "channel": 0}, {"type": "note_off", "time": 75, "note": 69, "velocity": 106, "channel": 0}, {"type": "note_on", "time": 3, "note": 71, "velocity": 113, "channel": 0}, {"type": "note_off", "time": 90, "note": 71, "velocity": 113, "channel": 0}, {"type": "note_on", "time": 5, "note": 72, "velocity": 109, "channel": 0}, {"type": "note_off", "time": 94, "note": 72, "velocity": 109, "channel": 0}, {"type": "note_on", "time": 3, "note": 71, "velocity": 111, "channel": 0}, {"type": "note_off", "time": 98, "note": 71, "velocity": 111, "channel": 0}, {"type": "note_on", "time": 4, "note": 69, "velocity": 112, "channel": 0}, {"type": "note_off", "time": 106, "note": 69, "velocity": 112, "channel": 0}, {"type": "note_on", "time": 7, "note": 67, "velocity": 108, "channel": 0}, {"type": "note_off", "time": 78, "note": 67, "velocity": 108, "channel": 0}, {"type": "note_on", "time": 4, "note": 69, "velocity": 103, "channel": 0}, {"type": "note_off", "time": 81, "note": 69, "velocity": 103, "channel": 0}, {"type": "note_on", "time": 8, "note": 71, "velocity": 110, "channel": 0}, {"type": "note_off", "time": 115, "note": 71, "velocity": 110, "channel": 0}, {"type": "note_on", "time": 5, "note": 67, "velocity": 102, "channel": 0}, {"type": "note_off", "time": 42, "note": 67, "velocity": 102, "channel": 0}, {"type": "note_on", "time": 2, "note": 70, "velocity": 114, "channel": 0}, {"type": "note_off", "time": 93, "note": 70, "velocity": 114, "channel": 0}, {"type": "note_on", "time": 12, "note": 66, "velocity": 109, "channel": 0}, {"type": "note_off", "time": 94, "note": 66, "velocity": 109, "channel": 0}, {"type": "note_on", "time": 5, "note": 65, "velocity": 109, "channel": 0}, {"type": "note_off", "time": 95, "note": 65, "velocity": 109, "channel": 0}, {"type": "note_on", "time": 7, "note": 64, "velocity": 120, "channel": 0}, {"type": "note_off", "time": 84, "note": 64, "velocity": 120, "channel": 0}, {"type": "note_on", "time": 7, "note": 63, "velocity": 117, "channel": 0}, {"type": "note_off", "time": 85, "note": 63, "velocity": 117, "channel": 0}, {"type": "note_on", "time": 5, "note": 65, "velocity": 111, "channel": 0}, {"type": "note_off", "time": 100, "note": 65, "velocity": 111, "channel": 0}, {"type": "note_on", "time": 13, "note": 62, "velocity": 107, "channel": 0}, {"type": "note_off", "time": 97, "note": 62, "velocity": 107, "channel": 0}, {"type": "note_on", "time": 2, "note": 60, "velocity": 102, "channel": 0}, {"type": "note_off", "time": 79, "note": 60, "velocity": 102, "channel": 0}, {"type": "note_on", "time": 25, "note": 59, "velocity": 104, "channel": 0}, {"type": "note_off", "time": 145, "note": 59, "velocity": 104, "channel": 0}, {"type": "note_on", "time": 10, "note": 57, "velocity": 107, "channel": 0}, {"type": "note_off", "time": 78, "note": 57, "velocity": 107, "channel": 0}, {"type": "note_on", "time": 2, "note": 62, "velocity": 105, "channel": 0}, {"type": "note_off", "time": 83, "note": 62, "velocity": 105, "channel": 0}, {"type": "note_on", "time": 6, "note": 58, "velocity": 108, "channel": 0}, {"type": "note_off", "time": 116, "note": 58, "velocity": 108, "channel": 0}, {"type": "note_on", "time": 8, "note": 60, "velocity": 109, "channel": 0}, {"type": "note_off", "time": 120, "note": 60, "velocity": 109, "channel": 0}, {"type": "note_on", "time": 4, "note": 63, "velocity": 110, "channel": 0}, {"type": "note_off", "time": 110, "note": 63, "velocity": 110, "channel": 0}, {"type": "note_on", "time": 2, "note": 67, "velocity": 101, "channel": 0}, {"type": "note_off", "time": 62, "note": 67, "velocity": 101, "channel": 0}, {"type": "note_on", "time": 4, "note": 70, "velocity": 115, "channel": 0}, {"type": "note_off", "time": 93, "note": 70, "velocity": 115, "channel": 0}, {"type": "note_on", "time": 8, "note": 67, "velocity": 107, "channel": 0}, {"type": "note_off", "time": 83, "note": 67, "velocity": 107, "channel": 0}, {"type": "note_on", "time": 6, "note": 68, "velocity": 104, "channel": 0}, {"type": "note_off", "time": 53, "note": 68, "velocity": 104, "channel": 0}, {"type": "note_on", "time": 6, "note": 72, "velocity": 99, "channel": 0}, {"type": "note_off", "time": 62, "note": 72, "velocity": 99, "channel": 0}, {"type": "note_on", "time": 2, "note": 75, "velocity": 110, "channel": 0}, {"type": "note_off", "time": 64, "note": 75, "velocity": 110, "channel": 0}, {"type": "note_on", "time": 2, "note": 79, "velocity": 115, "channel": 0}, {"type": "note_off", "time": 72, "note": 79, "velocity": 115, "channel": 0}, {"type": "note_on", "time": 2, "note": 80, "velocity": 112, "channel": 0}, {"type": "note_off", "time": 151, "note": 80, "velocity": 112, "channel": 0}, {"type": "note_on", "time": 4, "note": 79, "velocity": 114, "channel": 0}, {"type": "note_off", "time": 134, "note": 79, "velocity": 114, "channel": 0}, {"type": "note_on", "time": 4, "note": 80, "velocity": 114, "channel": 0}, {"type": "note_off", "time": 83, "note": 80, "velocity": 114, "channel": 0}, {"type": "note_on", "time": 2, "note": 81, "velocity": 106, "channel": 0}, {"type": "note_off", "time": 548, "note": 81, "velocity": 106, "channel": 0}, {"type": "note_on", "time": 6, "note": 82, "velocity": 88, "channel": 0}, {"type": "note_off", "time": 357, "note": 82, "velocity": 88, "channel": 0}, {"type": "note_on", "time": 806, "note": 67, "velocity": 112, "channel": 0}, {"type": "note_off", "time": 87, "note": 67, "velocity": 112, "channel": 0}, {"type": "note_on", "time": 2, "note": 69, "velocity": 112, "channel": 0}, {"type": "note_off", "time": 82, "note": 69, "velocity": 112, "channel": 0}, {"type": "note_on", "time": 2, "note": 70, "velocity": 110, "channel": 0}, {"type": "note_off", "time": 87, "note": 70, "velocity": 110, "channel": 0}, {"type": "note_on", "time": 16, "note": 72, "velocity": 108, "channel": 0}, {"type": "note_off", "time": 95, "note": 72, "velocity": 108, "channel": 0}, {"type": "note_on", "time": 2, "note": 69, "velocity": 106, "channel": 0}, {"type": "note_off", "time": 88, "note": 69, "velocity": 106, "channel": 0}, {"type": "note_on", "time": 8, "note": 67, "velocity": 107, "channel": 0}, {"type": "note_off", "time": 81, "note": 67, "velocity": 107, "channel": 0}, {"type": "note_on", "time": 11, "note": 65, "velocity": 111, "channel": 0}, {"type": "note_off", "time": 72, "note": 65, "velocity": 111, "channel": 0}, {"type": "note_on", "time": 16, "note": 64, "velocity": 116, "channel": 0}, {"type": "note_off", "time": 69, "note": 64, "velocity": 116, "channel": 0}, {"type": "note_on", "time": 7, "note": 63, "velocity": 118, "channel": 0}, {"type": "note_off", "time": 95, "note": 63, "velocity": 118, "channel": 0}, {"type": "note_on", "time": 5, "note": 65, "velocity": 111, "channel": 0}, {"type": "note_off", "time": 91, "note": 65, "velocity": 111, "channel": 0}, {"type": "note_on", "time": 4, "note": 61, "velocity": 108, "channel": 0}, {"type": "note_off", "time": 84, "note": 61, "velocity": 108, "channel": 0}, {"type": "note_on", "time": 2, "note": 62, "velocity": 102, "channel": 0}, {"type": "note_off", "time": 94, "note": 62, "velocity": 102, "channel": 0}, {"type": "note_on", "time": 4, "note": 65, "velocity": 113, "channel": 0}, {"type": "note_off", "time": 94, "note": 65, "velocity": 113, "channel": 0}, {"type": "note_on", "time": 8, "note": 64, "velocity": 113, "channel": 0}, {"type": "note_off", "time": 87, "note": 64, "velocity": 113, "channel": 0}, {"type": "note_on", "time": 13, "note": 63, "velocity": 116, "channel": 0}, {"type": "note_off", "time": 64, "note": 63, "velocity": 116, "channel": 0}, {"type": "note_on", "time": 2, "note": 65, "velocity": 111, "channel": 0}, {"type": "note_off", "time": 116, "note": 65, "velocity": 111, "channel": 0}, {"type": "note_on", "time": 7, "note": 62, "velocity": 111, "channel": 0}, {"type": "note_off", "time": 82, "note": 62, "velocity": 111, "channel": 0}, {"type": "note_on", "time": 5, "note": 60, "velocity": 109, "channel": 0}, {"type": "note_off", "time": 72, "note": 60, "velocity": 109, "channel": 0}, {"type": "note_on", "time": 5, "note": 59, "velocity": 101, "channel": 0}, {"type": "note_off", "time": 88, "note": 59, "velocity": 101, "channel": 0}, {"type": "note_on", "time": 11, "note": 62, "velocity": 112, "channel": 0}, {"type": "note_off", "time": 95, "note": 62, "velocity": 112, "channel": 0}, {"type": "note_on", "time": 5, "note": 65, "velocity": 104, "channel": 0}, {"type": "note_off", "time": 94, "note": 65, "velocity": 104, "channel": 0}, {"type": "note_on", "time": 14, "note": 67, "velocity": 98, "channel": 0}, {"type": "note_off", "time": 57, "note": 67, "velocity": 98, "channel": 0}, {"type": "note_on", "time": 4, "note": 68, "velocity": 117, "channel": 0}, {"type": "note_off", "time": 107, "note": 68, "velocity": 117, "channel": 0}, {"type": "note_on", "time": 4, "note": 67, "velocity": 104, "channel": 0}, {"type": "note_off", "time": 70, "note": 67, "velocity": 104, "channel": 0}, {"type": "note_on", "time": 25, "note": 66, "velocity": 47, "channel": 0}, {"type": "note_off", "time": 113, "note": 66, "velocity": 47, "channel": 0}, {"type": "note_on", "time": 1, "note": 67, "velocity": 97, "channel": 0}, {"type": "note_off", "time": 56, "note": 67, "velocity": 97, "channel": 0}, {"type": "note_on", "time": 5, "note": 70, "velocity": 118, "channel": 0}, {"type": "note_off", "time": 98, "note": 70, "velocity": 118, "channel": 0}, {"type": "note_on", "time": 7, "note": 68, "velocity": 115, "channel": 0}, {"type": "note_off", "time": 63, "note": 68, "velocity": 115, "channel": 0}, {"type": "note_on", "time": 8, "note": 63, "velocity": 112, "channel": 0}, {"type": "note_off", "time": 109, "note": 63, "velocity": 112, "channel": 0}, {"type": "note_on", "time": 11, "note": 60, "velocity": 97, "channel": 0}, {"type": "note_off", "time": 57, "note": 60, "velocity": 97, "channel": 0}, {"type": "note_on", "time": 1, "note": 67, "velocity": 110, "channel": 0}, {"type": "note_off", "time": 109, "note": 67, "velocity": 110, "channel": 0}, {"type": "note_on", "time": 2, "note": 65, "velocity": 114, "channel": 0}, {"type": "note_off", "time": 98, "note": 65, "velocity": 114, "channel": 0}, {"type": "note_on", "time": 10, "note": 61, "velocity": 111, "channel": 0}, {"type": "note_off", "time": 72, "note": 61, "velocity": 111, "channel": 0}, {"type": "note_on", "time": 17, "note": 56, "velocity": 104, "channel": 0}, {"type": "note_off", "time": 82, "note": 56, "velocity": 104, "channel": 0}, {"type": "note_on", "time": 31, "note": 64, "velocity": 114, "channel": 0}, {"type": "note_off", "time": 78, "note": 64, "velocity": 114, "channel": 0}, {"type": "note_on", "time": 4, "note": 62, "velocity": 117, "channel": 0}, {"type": "note_off", "time": 70, "note": 62, "velocity": 117, "channel": 0}, {"type": "note_on", "time": 10, "note": 58, "velocity": 112, "channel": 0}, {"type": "note_off", "time": 66, "note": 58, "velocity": 112, "channel": 0}, {"type": "note_on", "time": 23, "note": 52, "velocity": 102, "channel": 0}, {"type": "note_off", "time": 73, "note": 52, "velocity": 102, "channel": 0}, {"type": "note_on", "time": 10, "note": 61, "velocity": 113, "channel": 0}, {"type": "note_off", "time": 124, "note": 61, "velocity": 113, "channel": 0}, {"type": "note_on", "time": 14, "note": 60, "velocity": 108, "channel": 0}, {"type": "note_off", "time": 22, "note": 60, "velocity": 108, "channel": 0}, {"type": "note_on", "time": 13, "note": 59, "velocity": 110, "channel": 0}, {"type": "note_off", "time": 76, "note": 59, "velocity": 110, "channel": 0}, {"type": "note_on", "time": 11, "note": 57, "velocity": 110, "channel": 0}, {"type": "note_off", "time": 79, "note": 57, "velocity": 110, "channel": 0}, {"type": "note_on", "time": 17, "note": 58, "velocity": 110, "channel": 0}, {"type": "note_off", "time": 87, "note": 58, "velocity": 110, "channel": 0}, {"type": "note_on", "time": 0, "note": 56, "velocity": 110, "channel": 0}, {"type": "note_off", "time": 97, "note": 56, "velocity": 110, "channel": 0}, {"type": "note_on", "time": 14, "note": 55, "velocity": 110, "channel": 0}, {"type": "note_off", "time": 91, "note": 55, "velocity": 110, "channel": 0}, {"type": "note_on", "time": 17, "note": 53, "velocity": 117, "channel": 0}, {"type": "note_off", "time": 115, "note": 53, "velocity": 117, "channel": 0}, {"type": "note_on", "time": 4, "note": 51, "velocity": 114, "channel": 0}, {"type": "note_off", "time": 67, "note": 51, "velocity": 114, "channel": 0}, {"type": "note_on", "time": 103, "note": 63, "velocity": 117, "channel": 0}, {"type": "note_off", "time": 118, "note": 63, "velocity": 117, "channel": 0}, {"type": "note_on", "time": 117, "note": 69, "velocity": 112, "channel": 0}, {"type": "note_off", "time": 110, "note": 69, "velocity": 112, "channel": 0}, {"type": "note_on", "time": 2, "note": 71, "velocity": 120, "channel": 0}, {"type": "note_off", "time": 423, "note": 71, "velocity": 120, "channel": 0}, {"type": "note_on", "time": 599, "note": 70, "velocity": 115, "channel": 0}, {"type": "note_off", "time": 76, "note": 70, "velocity": 115, "channel": 0}, {"type": "note_on", "time": 2, "note": 72, "velocity": 119, "channel": 0}, {"type": "note_off", "time": 467, "note": 72, "velocity": 119, "channel": 0}, {"type": "note_on", "time": 583, "note": 70, "velocity": 118, "channel": 0}, {"type": "note_off", "time": 182, "note": 70, "velocity": 118, "channel": 0}, {"type": "note_on", "time": 12, "note": 67, "velocity": 117, "channel": 0}, {"type": "note_off", "time": 197, "note": 67, "velocity": 117, "channel": 0}, {"type": "note_on", "time": 122, "note": 70, "velocity": 110, "channel": 0}, {"type": "note_off", "time": 66, "note": 70, "velocity": 110, "channel": 0}, {"type": "note_on", "time": 4, "note": 73, "velocity": 121, "channel": 0}, {"type": "note_off", "time": 373, "note": 73, "velocity": 121, "channel": 0}, {"type": "note_on", "time": 6, "note": 72, "velocity": 121, "channel": 0}, {"type": "note_off", "time": 78, "note": 72, "velocity": 121, "channel": 0}, {"type": "note_on", "time": 8, "note": 70, "velocity": 116, "channel": 0}, {"type": "note_off", "time": 83, "note": 70, "velocity": 116, "channel": 0}, {"type": "note_on", "time": 0, "note": 69, "velocity": 117, "channel": 0}, {"type": "note_off", "time": 577, "note": 69, "velocity": 117, "channel": 0}, {"type": "note_on", "time": 43, "note": 67, "velocity": 115, "channel": 0}, {"type": "note_off", "time": 157, "note": 67, "velocity": 115, "channel": 0}, {"type": "note_on", "time": 74, "note": 65, "velocity": 115, "channel": 0}, {"type": "note_off", "time": 137, "note": 65, "velocity": 115, "channel": 0}, {"type": "note_on", "time": 6, "note": 67, "velocity": 113, "channel": 0}, {"type": "note_off", "time": 161, "note": 67, "velocity": 113, "channel": 0}, {"type": "note_on", "time": 0, "note": 68, "velocity": 113, "channel": 0}, {"type": "note_off", "time": 78, "note": 68, "velocity": 113, "channel": 0}, {"type": "note_on", "time": 10, "note": 67, "velocity": 112, "channel": 0}, {"type": "note_off", "time": 120, "note": 67, "velocity": 112, "channel": 0}, {"type": "note_on", "time": 13, "note": 65, "velocity": 110, "channel": 0}, {"type": "note_off", "time": 561, "note": 65, "velocity": 110, "channel": 0}, {"type": "note_on", "time": 878, "note": 67, "velocity": 116, "channel": 0}, {"type": "note_off", "time": 91, "note": 67, "velocity": 116, "channel": 0}, {"type": "note_on", "time": 6, "note": 69, "velocity": 109, "channel": 0}, {"type": "note_off", "time": 51, "note": 69, "velocity": 109, "channel": 0}, {"type": "note_on", "time": 4, "note": 71, "velocity": 110, "channel": 0}, {"type": "note_off", "time": 74, "note": 71, "velocity": 110, "channel": 0}, {"type": "note_on", "time": 26, "note": 75, "velocity": 112, "channel": 0}, {"type": "note_off", "time": 53, "note": 75, "velocity": 112, "channel": 0}, {"type": "note_on", "time": 4, "note": 78, "velocity": 120, "channel": 0}, {"type": "note_off", "time": 51, "note": 78, "velocity": 120, "channel": 0}, {"type": "note_on", "time": 4, "note": 79, "velocity": 118, "channel": 0}, {"type": "note_off", "time": 259, "note": 79, "velocity": 118, "channel": 0}, {"type": "note_on", "time": 6, "note": 75, "velocity": 108, "channel": 0}, {"type": "note_off", "time": 97, "note": 75, "velocity": 108, "channel": 0}, {"type": "note_on", "time": 24, "note": 71, "velocity": 107, "channel": 0}, {"type": "note_off", "time": 72, "note": 71, "velocity": 107, "channel": 0}, {"type": "note_on", "time": 60, "note": 70, "velocity": 110, "channel": 0}, {"type": "note_off", "time": 112, "note": 70, "velocity": 110, "channel": 0}, {"type": "note_on", "time": 8, "note": 75, "velocity": 111, "channel": 0}, {"type": "note_off", "time": 93, "note": 75, "velocity": 111, "channel": 0}, {"type": "note_on", "time": 8, "note": 73, "velocity": 107, "channel": 0}, {"type": "note_off", "time": 80, "note": 73, "velocity": 107, "channel": 0}, {"type": "note_on", "time": 4, "note": 71, "velocity": 110, "channel": 0}, {"type": "note_off", "time": 60, "note": 71, "velocity": 110, "channel": 0}, {"type": "note_on", "time": 12, "note": 70, "velocity": 113, "channel": 0}, {"type": "note_off", "time": 99, "note": 70, "velocity": 113, "channel": 0}, {"type": "note_on", "time": 6, "note": 68, "velocity": 113, "channel": 0}, {"type": "note_off", "time": 103, "note": 68, "velocity": 113, "channel": 0}, {"type": "note_on", "time": 6, "note": 67, "velocity": 114, "channel": 0}, {"type": "note_off", "time": 68, "note": 67, "velocity": 114, "channel": 0}, {"type": "note_on", "time": 8, "note": 66, "velocity": 110, "channel": 0}, {"type": "note_off", "time": 114, "note": 66, "velocity": 110, "channel": 0}, {"type": "note_on", "time": 4, "note": 65, "velocity": 109, "channel": 0}, {"type": "note_off", "time": 95, "note": 65, "velocity": 109, "channel": 0}, {"type": "note_on", "time": 6, "note": 64, "velocity": 121, "channel": 0}, {"type": "note_off", "time": 83, "note": 64, "velocity": 121, "channel": 0}, {"type": "note_on", "time": 6, "note": 63, "velocity": 117, "channel": 0}, {"type": "note_off", "time": 103, "note": 63, "velocity": 117, "channel": 0}, {"type": "note_on", "time": 8, "note": 65, "velocity": 96, "channel": 0}, {"type": "note_off", "time": 70, "note": 65, "velocity": 96, "channel": 0}, {"type": "note_on", "time": 4, "note": 67, "velocity": 115, "channel": 0}, {"type": "note_off", "time": 87, "note": 67, "velocity": 115, "channel": 0}, {"type": "note_on", "time": 2, "note": 63, "velocity": 105, "channel": 0}, {"type": "note_off", "time": 101, "note": 63, "velocity": 105, "channel": 0}, {"type": "note_on", "time": 12, "note": 65, "velocity": 106, "channel": 0}, {"type": "note_off", "time": 89, "note": 65, "velocity": 106, "channel": 0}, {"type": "note_on", "time": 2, "note": 61, "velocity": 110, "channel": 0}, {"type": "note_off", "time": 80, "note": 61, "velocity": 110, "channel": 0}, {"type": "note_on", "time": 4, "note": 58, "velocity": 111, "channel": 0}, {"type": "note_off", "time": 78, "note": 58, "velocity": 111, "channel": 0}, {"type": "note_on", "time": 16, "note": 53, "velocity": 108, "channel": 0}, {"type": "note_off", "time": 72, "note": 53, "velocity": 108, "channel": 0}, {"type": "note_on", "time": 8, "note": 58, "velocity": 113, "channel": 0}, {"type": "note_off", "time": 70, "note": 58, "velocity": 113, "channel": 0}, {"type": "note_on", "time": 4, "note": 65, "velocity": 108, "channel": 0}, {"type": "note_off", "time": 99, "note": 65, "velocity": 108, "channel": 0}, {"type": "note_on", "time": 20, "note": 62, "velocity": 114, "channel": 0}, {"type": "note_off", "time": 70, "note": 62, "velocity": 114, "channel": 0}, {"type": "note_on", "time": 12, "note": 60, "velocity": 107, "channel": 0}, {"type": "note_off", "time": 89, "note": 60, "velocity": 107, "channel": 0}, {"type": "note_on", "time": 6, "note": 62, "velocity": 120, "channel": 0}, {"type": "note_off", "time": 91, "note": 62, "velocity": 120, "channel": 0}, {"type": "note_on", "time": 8, "note": 60, "velocity": 111, "channel": 0}, {"type": "note_off", "time": 91, "note": 60, "velocity": 111, "channel": 0}, {"type": "note_on", "time": 2, "note": 57, "velocity": 115, "channel": 0}, {"type": "note_off", "time": 91, "note": 57, "velocity": 115, "channel": 0}, {"type": "note_on", "time": 10, "note": 53, "velocity": 116, "channel": 0}, {"type": "note_off", "time": 60, "note": 53, "velocity": 116, "channel": 0}, {"type": "note_on", "time": 6, "note": 55, "velocity": 111, "channel": 0}, {"type": "note_off", "time": 97, "note": 55, "velocity": 111, "channel": 0}, {"type": "note_on", "time": 16, "note": 51, "velocity": 117, "channel": 0}, {"type": "note_off", "time": 91, "note": 51, "velocity": 117, "channel": 0}, {"type": "note_on", "time": 3, "note": 48, "velocity": 112, "channel": 0}, {"type": "note_off", "time": 98, "note": 48, "velocity": 112, "channel": 0}, {"type": "note_on", "time": 0, "note": 53, "velocity": 107, "channel": 0}, {"type": "note_off", "time": 151, "note": 53, "velocity": 107, "channel": 0}, {"type": "note_on", "time": 58, "note": 56, "velocity": 112, "channel": 0}, {"type": "note_off", "time": 66, "note": 56, "velocity": 112, "channel": 0}, {"type": "note_on", "time": 10, "note": 58, "velocity": 109, "channel": 0}, {"type": "note_off", "time": 99, "note": 58, "velocity": 109, "channel": 0}, {"type": "note_on", "time": 2, "note": 62, "velocity": 112, "channel": 0}, {"type": "note_off", "time": 64, "note": 62, "velocity": 112, "channel": 0}, {"type": "note_on", "time": 2, "note": 65, "velocity": 112, "channel": 0}, {"type": "note_off", "time": 105, "note": 65, "velocity": 112, "channel": 0}, {"type": "note_on", "time": 4, "note": 61, "velocity": 113, "channel": 0}, {"type": "note_off", "time": 70, "note": 61, "velocity": 113, "channel": 0}, {"type": "note_on", "time": 7, "note": 57, "velocity": 109, "channel": 0}, {"type": "note_off", "time": 70, "note": 57, "velocity": 109, "channel": 0}, {"type": "note_on", "time": 9, "note": 55, "velocity": 103, "channel": 0}, {"type": "note_off", "time": 93, "note": 55, "velocity": 103, "channel": 0}, {"type": "note_on", "time": 6, "note": 58, "velocity": 107, "channel": 0}, {"type": "note_off", "time": 76, "note": 58, "velocity": 107, "channel": 0}, {"type": "note_on", "time": 4, "note": 60, "velocity": 109, "channel": 0}, {"type": "note_off", "time": 107, "note": 60, "velocity": 109, "channel": 0}, {"type": "note_on", "time": 2, "note": 61, "velocity": 111, "channel": 0}, {"type": "note_off", "time": 66, "note": 61, "velocity": 111, "channel": 0}, {"type": "note_on", "time": 10, "note": 63, "velocity": 117, "channel": 0}, {"type": "note_off", "time": 114, "note": 63, "velocity": 117, "channel": 0}, {"type": "note_on", "time": 8, "note": 65, "velocity": 108, "channel": 0}, {"type": "note_off", "time": 76, "note": 65, "velocity": 108, "channel": 0}, {"type": "note_on", "time": 14, "note": 67, "velocity": 111, "channel": 0}, {"type": "note_off", "time": 105, "note": 67, "velocity": 111, "channel": 0}, {"type": "note_on", "time": 8, "note": 68, "velocity": 113, "channel": 0}, {"type": "note_off", "time": 53, "note": 68, "velocity": 113, "channel": 0}, {"type": "note_on", "time": 4, "note": 70, "velocity": 97, "channel": 0}, {"type": "note_off", "time": 64, "note": 70, "velocity": 97, "channel": 0}, {"type": "note_on", "time": 6, "note": 72, "velocity": 115, "channel": 0}, {"type": "note_off", "time": 182, "note": 72, "velocity": 115, "channel": 0}, {"type": "note_on", "time": 10, "note": 70, "velocity": 108, "channel": 0}, {"type": "note_off", "time": 110, "note": 70, "velocity": 108, "channel": 0}, {"type": "note_on", "time": 14, "note": 68, "velocity": 102, "channel": 0}, {"type": "note_off", "time": 58, "note": 68, "velocity": 102, "channel": 0}, {"type": "note_on", "time": 4, "note": 70, "velocity": 115, "channel": 0}, {"type": "note_off", "time": 149, "note": 70, "velocity": 115, "channel": 0}, {"type": "note_on", "time": 392, "note": 68, "velocity": 123, "channel": 0}, {"type": "note_off", "time": 103, "note": 68, "velocity": 123, "channel": 0}, {"type": "note_on", "time": 2, "note": 67, "velocity": 118, "channel": 0}, {"type": "note_off", "time": 116, "note": 67, "velocity": 118, "channel": 0}, {"type": "note_on", "time": 53, "note": 68, "velocity": 120, "channel": 0}, {"type": "note_off", "time": 228, "note": 68, "velocity": 120, "channel": 0}, {"type": "note_on", "time": 292, "note": 67, "velocity": 118, "channel": 0}, {"type": "note_off", "time": 83, "note": 67, "velocity": 118, "channel": 0}, {"type": "note_on", "time": 6, "note": 65, "velocity": 118, "channel": 0}, {"type": "note_off", "time": 110, "note": 65, "velocity": 118, "channel": 0}, {"type": "note_on", "time": 89, "note": 67, "velocity": 117, "channel": 0}, {"type": "note_off", "time": 272, "note": 67, "velocity": 117, "channel": 0}, {"type": "note_on", "time": 371, "note": 65, "velocity": 119, "channel": 0}, {"type": "note_off", "time": 107, "note": 65, "velocity": 119, "channel": 0}, {"type": "note_on", "time": 2, "note": 63, "velocity": 122, "channel": 0}, {"type": "note_off", "time": 134, "note": 63, "velocity": 122, "channel": 0}, {"type": "note_on", "time": 29, "note": 65, "velocity": 122, "channel": 0}, {"type": "note_off", "time": 317, "note": 65, "velocity": 122, "channel": 0}, {"type": "note_on", "time": 380, "note": 63, "velocity": 127, "channel": 0}, {"type": "note_off", "time": 213, "note": 63, "velocity": 127, "channel": 0}, {"type": "note_on", "time": 4, "note": 61, "velocity": 109, "channel": 0}, {"type": "note_off", "time": 357, "note": 61, "velocity": 109, "channel": 0}, {"type": "note_on", "time": 3, "note": 63, "velocity": 123, "channel": 0}, {"type": "note_off", "time": 234, "note": 63, "velocity": 123, "channel": 0}, {"type": "note_on", "time": 7, "note": 61, "velocity": 108, "channel": 0}, {"type": "note_off", "time": 238, "note": 61, "velocity": 108, "channel": 0}, {"type": "note_on", "time": 0, "note": 63, "velocity": 125, "channel": 0}, {"type": "note_off", "time": 296, "note": 63, "velocity": 125, "channel": 0}, {"type": "note_on", "time": 1, "note": 61, "velocity": 109, "channel": 0}, {"type": "note_off", "time": 134, "note": 61, "velocity": 109, "channel": 0}, {"type": "note_on", "time": 711, "note": 53, "velocity": 111, "channel": 0}, {"type": "note_off", "time": 80, "note": 53, "velocity": 111, "channel": 0}, {"type": "note_on", "time": 1, "note": 55, "velocity": 109, "channel": 0}, {"type": "note_off", "time": 33, "note": 55, "velocity": 109, "channel": 0}, {"type": "note_on", "time": 2, "note": 56, "velocity": 119, "channel": 0}, {"type": "note_off", "time": 57, "note": 56, "velocity": 119, "channel": 0}, {"type": "note_on", "time": 2, "note": 58, "velocity": 115, "channel": 0}, {"type": "note_off", "time": 75, "note": 58, "velocity": 115, "channel": 0}, {"type": "note_on", "time": 5, "note": 61, "velocity": 115, "channel": 0}, {"type": "note_off", "time": 73, "note": 61, "velocity": 115, "channel": 0}, {"type": "note_on", "time": 11, "note": 63, "velocity": 121, "channel": 0}, {"type": "note_off", "time": 70, "note": 63, "velocity": 121, "channel": 0}, {"type": "note_on", "time": 8, "note": 65, "velocity": 113, "channel": 0}, {"type": "note_off", "time": 45, "note": 65, "velocity": 113, "channel": 0}, {"type": "note_on", "time": 17, "note": 67, "velocity": 110, "channel": 0}, {"type": "note_off", "time": 42, "note": 67, "velocity": 110, "channel": 0}, {"type": "note_on", "time": 1, "note": 68, "velocity": 109, "channel": 0}, {"type": "note_off", "time": 28, "note": 68, "velocity": 109, "channel": 0}, {"type": "note_on", "time": 2, "note": 70, "velocity": 116, "channel": 0}, {"type": "note_off", "time": 31, "note": 70, "velocity": 116, "channel": 0}, {"type": "note_on", "time": 10, "note": 71, "velocity": 118, "channel": 0}, {"type": "note_off", "time": 48, "note": 71, "velocity": 118, "channel": 0}, {"type": "note_on", "time": 6, "note": 72, "velocity": 118, "channel": 0}, {"type": "note_off", "time": 247, "note": 72, "velocity": 118, "channel": 0}, {"type": "note_on", "time": 14, "note": 70, "velocity": 116, "channel": 0}, {"type": "note_off", "time": 234, "note": 70, "velocity": 116, "channel": 0}, {"type": "note_on", "time": 20, "note": 72, "velocity": 114, "channel": 0}, {"type": "note_off", "time": 176, "note": 72, "velocity": 114, "channel": 0}, {"type": "note_on", "time": 10, "note": 68, "velocity": 114, "channel": 0}, {"type": "note_off", "time": 691, "note": 68, "velocity": 114, "channel": 0}, {"type": "note_on", "time": 18, "note": 72, "velocity": 110, "channel": 0}, {"type": "note_off", "time": 205, "note": 72, "velocity": 110, "channel": 0}, {"type": "note_on", "time": 8, "note": 70, "velocity": 114, "channel": 0}, {"type": "note_off", "time": 199, "note": 70, "velocity": 114, "channel": 0}, {"type": "note_on", "time": 1, "note": 72, "velocity": 108, "channel": 0}, {"type": "note_off", "time": 165, "note": 72, "velocity": 108, "channel": 0}, {"type": "note_on", "time": 7, "note": 67, "velocity": 112, "channel": 0}, {"type": "note_off", "time": 51, "note": 67, "velocity": 112, "channel": 0}, {"type": "note_on", "time": 1, "note": 68, "velocity": 118, "channel": 0}, {"type": "note_off", "time": 149, "note": 68, "velocity": 118, "channel": 0}, {"type": "note_on", "time": 5, "note": 72, "velocity": 105, "channel": 0}, {"type": "note_off", "time": 60, "note": 72, "velocity": 105, "channel": 0}, {"type": "note_on", "time": 11, "note": 67, "velocity": 111, "channel": 0}, {"type": "note_off", "time": 352, "note": 67, "velocity": 111, "channel": 0}, {"type": "note_on", "time": 533, "note": 72, "velocity": 117, "channel": 0}, {"type": "note_off", "time": 112, "note": 72, "velocity": 117, "channel": 0}, {"type": "note_on", "time": 4, "note": 73, "velocity": 109, "channel": 0}, {"type": "note_off", "time": 107, "note": 73, "velocity": 109, "channel": 0}, {"type": "note_on", "time": 4, "note": 72, "velocity": 116, "channel": 0}, {"type": "note_off", "time": 66, "note": 72, "velocity": 116, "channel": 0}, {"type": "note_on", "time": 2, "note": 70, "velocity": 117, "channel": 0}, {"type": "note_off", "time": 81, "note": 70, "velocity": 117, "channel": 0}, {"type": "note_on", "time": 5, "note": 69, "velocity": 106, "channel": 0}, {"type": "note_off", "time": 64, "note": 69, "velocity": 106, "channel": 0}, {"type": "note_on", "time": 4, "note": 72, "velocity": 114, "channel": 0}, {"type": "note_off", "time": 100, "note": 72, "velocity": 114, "channel": 0}, {"type": "note_on", "time": 13, "note": 70, "velocity": 110, "channel": 0}, {"type": "note_off", "time": 106, "note": 70, "velocity": 110, "channel": 0}, {"type": "note_on", "time": 7, "note": 68, "velocity": 117, "channel": 0}, {"type": "note_off", "time": 97, "note": 68, "velocity": 117, "channel": 0}, {"type": "note_on", "time": 7, "note": 67, "velocity": 113, "channel": 0}, {"type": "note_off", "time": 57, "note": 67, "velocity": 113, "channel": 0}, {"type": "note_on", "time": 4, "note": 71, "velocity": 111, "channel": 0}, {"type": "note_off", "time": 91, "note": 71, "velocity": 111, "channel": 0}, {"type": "note_on", "time": 2, "note": 69, "velocity": 111, "channel": 0}, {"type": "note_off", "time": 87, "note": 69, "velocity": 111, "channel": 0}, {"type": "note_on", "time": 13, "note": 68, "velocity": 116, "channel": 0}, {"type": "note_off", "time": 81, "note": 68, "velocity": 116, "channel": 0}, {"type": "note_on", "time": 10, "note": 67, "velocity": 113, "channel": 0}, {"type": "note_off", "time": 98, "note": 67, "velocity": 113, "channel": 0}, {"type": "note_on", "time": 5, "note": 71, "velocity": 104, "channel": 0}, {"type": "note_off", "time": 88, "note": 71, "velocity": 104, "channel": 0}, {"type": "note_on", "time": 14, "note": 69, "velocity": 116, "channel": 0}, {"type": "note_off", "time": 69, "note": 69, "velocity": 116, "channel": 0}, {"type": "note_on", "time": 8, "note": 67, "velocity": 112, "channel": 0}, {"type": "note_off", "time": 84, "note": 67, "velocity": 112, "channel": 0}, {"type": "note_on", "time": 11, "note": 66, "velocity": 111, "channel": 0}, {"type": "note_off", "time": 72, "note": 66, "velocity": 111, "channel": 0}, {"type": "note_on", "time": 4, "note": 69, "velocity": 114, "channel": 0}, {"type": "note_off", "time": 95, "note": 69, "velocity": 114, "channel": 0}, {"type": "note_on", "time": 11, "note": 65, "velocity": 116, "channel": 0}, {"type": "note_off", "time": 84, "note": 65, "velocity": 116, "channel": 0}, {"type": "note_on", "time": 5, "note": 64, "velocity": 124, "channel": 0}, {"type": "note_off", "time": 91, "note": 64, "velocity": 124, "channel": 0}, {"type": "note_on", "time": 4, "note": 63, "velocity": 117, "channel": 0}, {"type": "note_off", "time": 94, "note": 63, "velocity": 117, "channel": 0}, {"type": "note_on", "time": 19, "note": 65, "velocity": 106, "channel": 0}, {"type": "note_off", "time": 54, "note": 65, "velocity": 106, "channel": 0}, {"type": "note_on", "time": 5, "note": 67, "velocity": 111, "channel": 0}, {"type": "note_off", "time": 84, "note": 67, "velocity": 111, "channel": 0}, {"type": "note_on", "time": 8, "note": 70, "velocity": 106, "channel": 0}, {"type": "note_off", "time": 79, "note": 70, "velocity": 106, "channel": 0}, {"type": "note_on", "time": 25, "note": 65, "velocity": 111, "channel": 0}, {"type": "note_off", "time": 94, "note": 65, "velocity": 111, "channel": 0}, {"type": "note_on", "time": 10, "note": 64, "velocity": 122, "channel": 0}, {"type": "note_off", "time": 66, "note": 64, "velocity": 122, "channel": 0}, {"type": "note_on", "time": 2, "note": 63, "velocity": 121, "channel": 0}, {"type": "note_off", "time": 90, "note": 63, "velocity": 121, "channel": 0}, {"type": "note_on", "time": 5, "note": 62, "velocity": 116, "channel": 0}, {"type": "note_off", "time": 98, "note": 62, "velocity": 116, "channel": 0}, {"type": "note_on", "time": 7, "note": 61, "velocity": 116, "channel": 0}, {"type": "note_off", "time": 75, "note": 61, "velocity": 116, "channel": 0}, {"type": "note_on", "time": 11, "note": 65, "velocity": 116, "channel": 0}, {"type": "note_off", "time": 90, "note": 65, "velocity": 116, "channel": 0}, {"type": "note_on", "time": 11, "note": 63, "velocity": 123, "channel": 0}, {"type": "note_off", "time": 69, "note": 63, "velocity": 123, "channel": 0}, {"type": "note_on", "time": 7, "note": 61, "velocity": 115, "channel": 0}, {"type": "note_off", "time": 85, "note": 61, "velocity": 115, "channel": 0}, {"type": "note_on", "time": 5, "note": 60, "velocity": 115, "channel": 0}, {"type": "note_off", "time": 73, "note": 60, "velocity": 115, "channel": 0}, {"type": "note_on", "time": 7, "note": 59, "velocity": 105, "channel": 0}, {"type": "note_off", "time": 79, "note": 59, "velocity": 105, "channel": 0}, {"type": "note_on", "time": 2, "note": 58, "velocity": 106, "channel": 0}, {"type": "note_off", "time": 57, "note": 58, "velocity": 106, "channel": 0}, {"type": "note_on", "time": 19, "note": 57, "velocity": 118, "channel": 0}, {"type": "note_off", "time": 41, "note": 57, "velocity": 118, "channel": 0}, {"type": "note_on", "time": 2, "note": 56, "velocity": 102, "channel": 0}, {"type": "note_off", "time": 84, "note": 56, "velocity": 102, "channel": 0}, {"type": "note_on", "time": 1, "note": 55, "velocity": 102, "channel": 0}, {"type": "note_off", "time": 76, "note": 55, "velocity": 102, "channel": 0}, {"type": "note_on", "time": 11, "note": 54, "velocity": 108, "channel": 0}, {"type": "note_off", "time": 107, "note": 54, "velocity": 108, "channel": 0}, {"type": "note_on", "time": 10, "note": 53, "velocity": 106, "channel": 0}, {"type": "note_off", "time": 76, "note": 53, "velocity": 106, "channel": 0}, {"type": "note_on", "time": 13, "note": 52, "velocity": 99, "channel": 0}, {"type": "note_off", "time": 91, "note": 52, "velocity": 99, "channel": 0}, {"type": "note_on", "time": 10, "note": 51, "velocity": 98, "channel": 0}, {"type": "note_off", "time": 95, "note": 51, "velocity": 98, "channel": 0}, {"type": "note_on", "time": 35, "note": 53, "velocity": 96, "channel": 0}, {"type": "note_off", "time": 93, "note": 53, "velocity": 96, "channel": 0}, {"type": "note_on", "time": 10, "note": 50, "velocity": 94, "channel": 0}, {"type": "note_off", "time": 202, "note": 50, "velocity": 94, "channel": 0}, {"type": "end_of_track", "time": 0}]]}