{"ticks_per_beat": 192, "tracks": [[{"type": "track_name", "name": "Melody", "time": 0}, {"type": "set_tempo", "tempo": 368098, "time": 0}, {"type": "key_signature", "key": "Bb", "time": 0}, {"type": "time_signature", "numerator": 4, "denominator": 4, "clocks_per_click": 24, "notated_32nd_notes_per_beat": 8, "time": 0}, {"type": "note_on", "time": 4469, "note": 74, "velocity": 104, "channel": 0}, {"type": "note_off", "time": 112, "note": 74, "velocity": 104, "channel": 0}, {"type": "note_on", "time": 105, "note": 70, "velocity": 113, "channel": 0}, {"type": "note_off", "time": 738, "note": 70, "velocity": 113, "channel": 0}, {"type": "note_on", "time": 57, "note": 68, "velocity": 100, "channel": 0}, {"type": "note_off", "time": 84, "note": 68, "velocity": 100, "channel": 0}, {"type": "note_on", "time": 78, "note": 69, "velocity": 106, "channel": 0}, {"type": "note_off", "time": 139, "note": 69, "velocity": 106, "channel": 0}, {"type": "note_on", "time": 9, "note": 70, "velocity": 108, "channel": 0}, {"type": "note_off", "time": 112, "note": 70, "velocity": 108, "channel": 0}, {"type": "note_on", "time": 93, "note": 70, "velocity": 102, "channel": 0}, {"type": "note_off", "time": 205, "note": 70, "velocity": 102, "channel": 0}, {"type": "note_on", "time": 1211, "note": 73, "velocity": 107, "channel": 0}, {"type": "note_off", "time": 36, "note": 73, "velocity": 107, "channel": 0}, {"type": "note_on", "time": 3, "note": 75, "velocity": 111, "channel": 0}, {"type": "note_off", "time": 620, "note": 75, "velocity": 111, "channel": 0}, {"type": "note_on", "time": 90, "note": 73, "velocity": 111, "channel": 0}, {"type": "note_off", "time": 105, "note": 73, "velocity": 111, "channel": 0}, {"type": "note_on", "time": 60, "note": 70, "velocity": 109, "channel": 0}, {"type": "note_off", "time": 133, "note": 70, "velocity": 109, "channel": 0}, {"type": "note_on", "time": 27, "note": 68, "velocity": 104, "channel": 0}, {"type": "note_off", "time": 208, "note": 68, "velocity": 104, "channel": 0}, {"type": "note_on", "time": 5, "note": 64, "velocity": 90, "channel": 0}, {"type": "note_off", "time": 35, "note": 64, "velocity": 90, "channel": 0}, {"type": "note_on", "time": 31, "note": 69, "velocity": 117, "channel": 0}, {"type": "note_off", "time": 109, "note": 69, "velocity": 117, "channel": 0}, {"type": "note_on", "time": 57, "note": 70, "velocity": 102, "channel": 0}, {"type": "note_off", "time": 320, "note": 70, "velocity": 102, "channel": 0}, {"type": "note_on", "time": 18, "note": 70, "velocity": 118, "channel": 0}, {"type": "note_off", "time": 72, "note": 70, "velocity": 118, "channel": 0}, {"type": "note_on", "time": 663, "note": 72, "velocity": 124, "channel": 0}, {"type": "note_off", "time": 90, "note": 72, "velocity": 124, "channel": 0}, {"type": "note_on", "time": 6, "note": 74, "velocity": 117, "channel": 0}, {"type": "note_on", "time": 172, "note": 72, "velocity": 113, "channel": 0}, {"type": "note_off", "time": 0, "note": 74, "velocity": 117, "channel": 0}, {"type": "note_off", "time": 102, "note": 72, "velocity": 113, "channel": 0}, {"type": "note_on", "time": 69, "note": 70, "velocity": 114, "channel": 0}, {"type": "note_off", "time": 142, "note": 70, "velocity": 114, "channel": 0}, {"type": "note_on", "time": 12, "note": 65, "velocity": 88, "channel": 0}, {"type": "note_off", "time": 218, "note": 65, "velocity": 88, "channel": 0}, {"type": "note_on", "time": 532, "note": 67, "velocity": 100, "channel": 0}, {"type": "note_off", "time": 51, "note": 67, "velocity": 100, "channel": 0}, {"type": "note_on", "time": 9, "note": 70, "velocity": 117, "channel": 0}, {"type": "note_off", "time": 127, "note": 70, "velocity": 117, "channel": 0}, {"type": "note_on", "time": 1, "note": 72, "velocity": 119, "channel": 0}, {"type": "note_off", "time": 66, "note": 72, "velocity": 119, "channel": 0}, {"type": "note_on", "time": 16, "note": 74, "velocity": 115, "channel": 0}, {"type": "note_off", "time": 121, "note": 74, "velocity": 115, "channel": 0}, {"type": "note_on", "time": 6, "note": 72, "velocity": 82, "channel": 0}, {"type": "note_off", "time": 48, "note": 72, "velocity": 82, "channel": 0}, {"type": "note_on", "time": 6, "note": 74, "velocity": 117, "channel": 0}, {"type": "note_off", "time": 105, "note": 74, "velocity": 117, "channel": 0}, {"type": "note_on", "time": 90, "note": 70, "velocity": 118, "channel": 0}, {"type": "note_off", "time": 124, "note": 70, "velocity": 118, "channel": 0}, {"type": "note_on", "time": 63, "note": 68, "velocity": 98, "channel": 0}, {"type": "note_off", "time": 157, "note": 68, "velocity": 98, "channel": 0}, {"type": "note_on", "time": 4, "note": 65, "velocity": 107, "channel": 0}, {"type": "note_off", "time": 142, "note": 65, "velocity": 107, "channel": 0}, {"type": "note_on", "time": 14, "note": 65, "velocity": 104, "channel": 0}, {"type": "note_off", "time": 80, "note": 65, "velocity": 104, "channel": 0}, {"type": "note_on", "time": 728, "note": 73, "velocity": 116, "channel": 0}, {"type": "note_off", "time": 114, "note": 73, "velocity": 116, "channel": 0}, {"type": "note_on", "time": 68, "note": 73, "velocity": 115, "channel": 0}, {"type": "note_off", "time": 129, "note": 73, "velocity": 115, "channel": 0}, {"type": "note_on", "time": 14, "note": 73, "velocity": 112, "channel": 0}, {"type": "note_off", "time": 65, "note": 73, "velocity": 112, "channel": 0}, {"type": "note_on", "time": 368, "note": 73, "velocity": 110, "channel": 0}, {"type": "note_off", "time": 110, "note": 73, "velocity": 110, "channel": 0}, {"type": "note_on", "time": 63, "note": 70, "velocity": 108, "channel": 0}, {"type": "note_off", "time": 136, "note": 70, "velocity": 108, "channel": 0}, {"type": "note_on", "time": 14, "note": 68, "velocity": 105, "channel": 0}, {"type": "note_off", "time": 76, "note": 68, "velocity": 105, "channel": 0}, {"type": "note_on", "time": 361, "note": 73, "velocity": 110, "channel": 0}, {"type": "note_off", "time": 93, "note": 73, "velocity": 110, "channel": 0}, {"type": "note_on", "time": 72, "note": 73, "velocity": 113, "channel": 0}, {"type": "note_off", "time": 144, "note": 73, "velocity": 113, "channel": 0}, {"type": "note_on", "time": 27, "note": 73, "velocity": 112, "channel": 0}, {"type": "note_off", "time": 65, "note": 73, "velocity": 112, "channel": 0}, {"type": "note_on", "time": 368, "note": 73, "velocity": 114, "channel": 0}, {"type": "note_off", "time": 121, "note": 73, "velocity": 114, "channel": 0}, {"type": "note_on", "time": 59, "note": 70, "velocity": 109, "channel": 0}, {"type": "note_off", "time": 131, "note": 70, "velocity": 109, "channel": 0}, {"type": "note_on", "time": 8, "note": 68, "velocity": 107, "channel": 0}, {"type": "note_off", "time": 70, "note": 68, "velocity": 107, "channel": 0}, {"type": "note_on", "time": 389, "note": 68, "velocity": 108, "channel": 0}, {"type": "note_off", "time": 93, "note": 68, "velocity": 108, "channel": 0}, {"type": "note_on", "time": 23, "note": 63, "velocity": 96, "channel": 0}, {"type": "note_off", "time": 40, "note": 63, "velocity": 96, "channel": 0}, {"type": "note_on", "time": 6, "note": 68, "velocity": 110, "channel": 0}, {"type": "note_off", "time": 117, "note": 68, "velocity": 110, "channel": 0}, {"type": "note_on", "time": 14, "note": 70, "velocity": 116, "channel": 0}, {"type": "note_off", "time": 61, "note": 70, "velocity": 116, "channel": 0}, {"type": "note_on", "time": 368, "note": 75, "velocity": 113, "channel": 0}, {"type": "note_off", "time": 389, "note": 75, "velocity": 113, "channel": 0}, {"type": "note_on", "time": 25, "note": 73, "velocity": 105, "channel": 0}, {"type": "note_off", "time": 104, "note": 73, "velocity": 105, "channel": 0}, {"type": "note_on", "time": 10, "note": 70, "velocity": 106, "channel": 0}, {"type": "note_off", "time": 83, "note": 70, "velocity": 106, "channel": 0}, {"type": "note_on", "time": 155, "note": 73, "velocity": 112, "channel": 0}, {"type": "note_off", "time": 127, "note": 73, "velocity": 112, "channel": 0}, {"type": "note_on", "time": 68, "note": 73, "velocity": 109, "channel": 0}, {"type": "note_off", "time": 136, "note": 73, "velocity": 109, "channel": 0}, {"type": "note_on", "time": 24, "note": 73, "velocity": 109, "channel": 0}, {"type": "note_off", "time": 51, "note": 73, "velocity": 109, "channel": 0}, {"type": "note_on", "time": 352, "note": 73, "velocity": 109, "channel": 0}, {"type": "note_off", "time": 127, "note": 73, "velocity": 109, "channel": 0}, {"type": "note_on", "time": 68, "note": 70, "velocity": 110, "channel": 0}, {"type": "note_off", "time": 134, "note": 70, "velocity": 110, "channel": 0}, {"type": "note_on", "time": 7, "note": 68, "velocity": 106, "channel": 0}, {"type": "note_off", "time": 72, "note": 68, "velocity": 106, "channel": 0}, {"type": "note_on", "time": 346, "note": 70, "velocity": 105, "channel": 0}, {"type": "note_off", "time": 104, "note": 70, "velocity": 105, "channel": 0}, {"type": "note_on", "time": 19, "note": 70, "velocity": 104, "channel": 0}, {"type": "note_off", "time": 283, "note": 70, "velocity": 104, "channel": 0}, {"type": "note_on", "time": 393, "note": 72, "velocity": 99, "channel": 0}, {"type": "note_off", "time": 42, "note": 72, "velocity": 99, "channel": 0}, {"type": "note_on", "time": 8, "note": 74, "velocity": 110, "channel": 0}, {"type": "note_off", "time": 408, "note": 74, "velocity": 110, "channel": 0}, {"type": "note_on", "time": 76, "note": 70, "velocity": 113, "channel": 0}, {"type": "note_off", "time": 121, "note": 70, "velocity": 113, "channel": 0}, {"type": "note_on", "time": 6, "note": 65, "velocity": 104, "channel": 0}, {"type": "note_off", "time": 57, "note": 65, "velocity": 104, "channel": 0}, {"type": "note_on", "time": 6, "note": 63, "velocity": 97, "channel": 0}, {"type": "note_off", "time": 112, "note": 63, "velocity": 97, "channel": 0}, {"type": "note_on", "time": 12, "note": 65, "velocity": 101, "channel": 0}, {"type": "note_off", "time": 80, "note": 65, "velocity": 101, "channel": 0}, {"type": "note_on", "time": 6, "note": 62, "velocity": 90, "channel": 0}, {"type": "note_off", "time": 85, "note": 62, "velocity": 90, "channel": 0}, {"type": "note_on", "time": 78, "note": 69, "velocity": 110, "channel": 0}, {"type": "note_on", "time": 138, "note": 65, "velocity": 90, "channel": 0}, {"type": "note_off", "time": 0, "note": 69, "velocity": 110, "channel": 0}, {"type": "note_off", "time": 46, "note": 65, "velocity": 90, "channel": 0}, {"type": "note_on", "time": 0, "note": 70, "velocity": 108, "channel": 0}, {"type": "note_off", "time": 131, "note": 70, "velocity": 108, "channel": 0}, {"type": "note_on", "time": 8, "note": 74, "velocity": 110, "channel": 0}, {"type": "note_off", "time": 61, "note": 74, "velocity": 110, "channel": 0}, {"type": "note_on", "time": 949, "note": 79, "velocity": 77, "channel": 0}, {"type": "note_off", "time": 29, "note": 79, "velocity": 77, "channel": 0}, {"type": "note_on", "time": 10, "note": 81, "velocity": 124, "channel": 0}, {"type": "note_off", "time": 266, "note": 81, "velocity": 124, "channel": 0}, {"type": "note_on", "time": 72, "note": 77, "velocity": 113, "channel": 0}, {"type": "note_off", "time": 368, "note": 77, "velocity": 113, "channel": 0}, {"type": "note_on", "time": 42, "note": 74, "velocity": 110, "channel": 0}, {"type": "note_off", "time": 104, "note": 74, "velocity": 110, "channel": 0}, {"type": "note_on", "time": 89, "note": 74, "velocity": 115, "channel": 0}, {"type": "note_off", "time": 123, "note": 74, "velocity": 115, "channel": 0}, {"type": "note_on", "time": 8, "note": 70, "velocity": 101, "channel": 0}, {"type": "note_off", "time": 246, "note": 70, "velocity": 101, "channel": 0}, {"type": "note_on", "time": 376, "note": 77, "velocity": 116, "channel": 0}, {"type": "note_off", "time": 138, "note": 77, "velocity": 116, "channel": 0}, {"type": "note_on", "time": 59, "note": 74, "velocity": 108, "channel": 0}, {"type": "note_off", "time": 336, "note": 74, "velocity": 108, "channel": 0}, {"type": "note_on", "time": 29, "note": 65, "velocity": 94, "channel": 0}, {"type": "note_off", "time": 14, "note": 65, "velocity": 94, "channel": 0}, {"type": "note_on", "time": 10, "note": 70, "velocity": 110, "channel": 0}, {"type": "note_off", "time": 123, "note": 70, "velocity": 110, "channel": 0}, {"type": "note_on", "time": 10, "note": 68, "velocity": 98, "channel": 0}, {"type": "note_off", "time": 68, "note": 68, "velocity": 98, "channel": 0}, {"type": "note_on", "time": 679, "note": 69, "velocity": 108, "channel": 0}, {"type": "note_off", "time": 53, "note": 69, "velocity": 108, "channel": 0}, {"type": "note_on", "time": 44, "note": 70, "velocity": 100, "channel": 0}, {"type": "note_off", "time": 59, "note": 70, "velocity": 100, "channel": 0}, {"type": "note_on", "time": 23, "note": 72, "velocity": 112, "channel": 0}, {"type": "note_off", "time": 85, "note": 72, "velocity": 112, "channel": 0}, {"type": "note_on", "time": 2, "note": 73, "velocity": 110, "channel": 0}, {"type": "note_off", "time": 63, "note": 73, "velocity": 110, "channel": 0}, {"type": "note_on", "time": 40, "note": 75, "velocity": 111, "channel": 0}, {"type": "note_off", "time": 76, "note": 75, "velocity": 111, "channel": 0}, {"type": "note_on", "time": 14, "note": 76, "velocity": 113, "channel": 0}, {"type": "note_off", "time": 104, "note": 76, "velocity": 113, "channel": 0}, {"type": "note_on", "time": 14, "note": 79, "velocity": 115, "channel": 0}, {"type": "note_off", "time": 121, "note": 79, "velocity": 115, "channel": 0}, {"type": "note_on", "time": 119, "note": 79, "velocity": 100, "channel": 0}, {"type": "note_off", "time": 48, "note": 79, "velocity": 100, "channel": 0}, {"type": "note_on", "time": 10, "note": 81, "velocity": 114, "channel": 0}, {"type": "note_off", "time": 427, "note": 81, "velocity": 114, "channel": 0}, {"type": "note_on", "time": 19, "note": 79, "velocity": 112, "channel": 0}, {"type": "note_off", "time": 91, "note": 79, "velocity": 112, "channel": 0}, {"type": "note_on", "time": 38, "note": 77, "velocity": 111, "channel": 0}, {"type": "note_off", "time": 83, "note": 77, "velocity": 111, "channel": 0}, {"type": "note_on", "time": 40, "note": 84, "velocity": 116, "channel": 0}, {"type": "note_off", "time": 208, "note": 84, "velocity": 116, "channel": 0}, {"type": "note_on", "time": 21, "note": 80, "velocity": 116, "channel": 0}, {"type": "note_on", "time": 34, "note": 81, "velocity": 113, "channel": 0}, {"type": "note_off", "time": 0, "note": 80, "velocity": 116, "channel": 0}, {"type": "note_off", "time": 153, "note": 81, "velocity": 113, "channel": 0}, {"type": "note_on", "time": 10, "note": 79, "velocity": 118, "channel": 0}, {"type": "note_off", "time": 72, "note": 79, "velocity": 118, "channel": 0}, {"type": "note_on", "time": 10, "note": 77, "velocity": 112, "channel": 0}, {"type": "note_off", "time": 95, "note": 77, "velocity": 112, "channel": 0}, {"type": "note_on", "time": 383, "note": 73, "velocity": 109, "channel": 0}, {"type": "note_off", "time": 57, "note": 73, "velocity": 109, "channel": 0}, {"type": "note_on", "time": 8, "note": 75, "velocity": 113, "channel": 0}, {"type": "note_off", "time": 93, "note": 75, "velocity": 113, "channel": 0}, {"type": "note_on", "time": 6, "note": 74, "velocity": 115, "channel": 0}, {"type": "note_off", "time": 80, "note": 74, "velocity": 115, "channel": 0}, {"type": "note_on", "time": 21, "note": 70, "velocity": 108, "channel": 0}, {"type": "note_off", "time": 100, "note": 70, "velocity": 108, "channel": 0}, {"type": "note_on", "time": 14, "note": 65, "velocity": 96, "channel": 0}, {"type": "note_off", "time": 100, "note": 65, "velocity": 96, "channel": 0}, {"type": "note_on", "time": 2, "note": 63, "velocity": 88, "channel": 0}, {"type": "note_off", "time": 212, "note": 63, "velocity": 88, "channel": 0}, {"type": "note_on", "time": 568, "note": 67, "velocity": 79, "channel": 0}, {"type": "note_off", "time": 39, "note": 67, "velocity": 79, "channel": 0}, {"type": "note_on", "time": 13, "note": 70, "velocity": 121, "channel": 0}, {"type": "note_off", "time": 93, "note": 70, "velocity": 121, "channel": 0}, {"type": "note_on", "time": 19, "note": 73, "velocity": 107, "channel": 0}, {"type": "note_off", "time": 40, "note": 73, "velocity": 107, "channel": 0}, {"type": "note_on", "time": 4, "note": 74, "velocity": 118, "channel": 0}, {"type": "note_off", "time": 149, "note": 74, "velocity": 118, "channel": 0}, {"type": "note_on", "time": 8, "note": 73, "velocity": 114, "channel": 0}, {"type": "note_off", "time": 38, "note": 73, "velocity": 114, "channel": 0}, {"type": "note_on", "time": 14, "note": 74, "velocity": 118, "channel": 0}, {"type": "note_off", "time": 117, "note": 74, "velocity": 118, "channel": 0}, {"type": "note_on", "time": 48, "note": 70, "velocity": 115, "channel": 0}, {"type": "note_off", "time": 138, "note": 70, "velocity": 115, "channel": 0}, {"type": "note_on", "time": 4, "note": 67, "velocity": 77, "channel": 0}, {"type": "note_off", "time": 37, "note": 67, "velocity": 77, "channel": 0}, {"type": "note_on", "time": 16, "note": 68, "velocity": 105, "channel": 0}, {"type": "note_off", "time": 178, "note": 68, "velocity": 105, "channel": 0}, {"type": "note_on", "time": 8, "note": 65, "velocity": 100, "channel": 0}, {"type": "note_off", "time": 129, "note": 65, "velocity": 100, "channel": 0}, {"type": "note_on", "time": 4, "note": 70, "velocity": 118, "channel": 0}, {"type": "note_off", "time": 78, "note": 70, "velocity": 118, "channel": 0}, {"type": "note_on", "time": 1053, "note": 65, "velocity": 85, "channel": 0}, {"type": "note_off", "time": 36, "note": 65, "velocity": 85, "channel": 0}, {"type": "note_on", "time": 6, "note": 70, "velocity": 103, "channel": 0}, {"type": "note_off", "time": 108, "note": 70, "velocity": 103, "channel": 0}, {"type": "note_on", "time": 19, "note": 74, "velocity": 103, "channel": 0}, {"type": "note_off", "time": 83, "note": 74, "velocity": 103, "channel": 0}, {"type": "note_on", "time": 17, "note": 77, "velocity": 99, "channel": 0}, {"type": "note_off", "time": 95, "note": 77, "velocity": 99, "channel": 0}, {"type": "note_on", "time": 65, "note": 77, "velocity": 112, "channel": 0}, {"type": "note_off", "time": 185, "note": 77, "velocity": 112, "channel": 0}, {"type": "note_on", "time": 29, "note": 75, "velocity": 104, "channel": 0}, {"type": "note_off", "time": 80, "note": 75, "velocity": 104, "channel": 0}, {"type": "note_on", "time": 87, "note": 75, "velocity": 112, "channel": 0}, {"type": "note_off", "time": 178, "note": 75, "velocity": 112, "channel": 0}, {"type": "note_on", "time": 12, "note": 76, "velocity": 100, "channel": 0}, {"type": "note_off", "time": 85, "note": 76, "velocity": 100, "channel": 0}, {"type": "note_on", "time": 78, "note": 79, "velocity": 115, "channel": 0}, {"type": "note_off", "time": 136, "note": 79, "velocity": 115, "channel": 0}, {"type": "note_on", "time": 8, "note": 77, "velocity": 109, "channel": 0}, {"type": "note_off", "time": 87, "note": 77, "velocity": 109, "channel": 0}, {"type": "note_on", "time": 89, "note": 82, "velocity": 116, "channel": 0}, {"type": "note_off", "time": 74, "note": 82, "velocity": 116, "channel": 0}, {"type": "note_on", "time": 591, "note": 82, "velocity": 102, "channel": 0}, {"type": "note_off", "time": 43, "note": 82, "velocity": 102, "channel": 0}, {"type": "note_on", "time": 8, "note": 84, "velocity": 113, "channel": 0}, {"type": "note_off", "time": 232, "note": 84, "velocity": 113, "channel": 0}, {"type": "note_on", "time": 12, "note": 82, "velocity": 110, "channel": 0}, {"type": "note_off", "time": 34, "note": 82, "velocity": 110, "channel": 0}, {"type": "note_on", "time": 6, "note": 80, "velocity": 110, "channel": 0}, {"type": "note_off", "time": 34, "note": 80, "velocity": 110, "channel": 0}, {"type": "note_on", "time": 6, "note": 79, "velocity": 110, "channel": 0}, {"type": "note_off", "time": 112, "note": 79, "velocity": 110, "channel": 0}, {"type": "note_on", "time": 23, "note": 77, "velocity": 107, "channel": 0}, {"type": "note_off", "time": 61, "note": 77, "velocity": 107, "channel": 0}, {"type": "note_on", "time": 19, "note": 75, "velocity": 105, "channel": 0}, {"type": "note_off", "time": 68, "note": 75, "velocity": 105, "channel": 0}, {"type": "note_on", "time": 21, "note": 73, "velocity": 106, "channel": 0}, {"type": "note_off", "time": 72, "note": 73, "velocity": 106, "channel": 0}, {"type": "note_on", "time": 1130, "note": 75, "velocity": 107, "channel": 0}, {"type": "note_off", "time": 121, "note": 75, "velocity": 107, "channel": 0}, {"type": "note_on", "time": 10, "note": 73, "velocity": 106, "channel": 0}, {"type": "note_off", "time": 55, "note": 73, "velocity": 106, "channel": 0}, {"type": "note_on", "time": 12, "note": 70, "velocity": 103, "channel": 0}, {"type": "note_off", "time": 85, "note": 70, "velocity": 103, "channel": 0}, {"type": "note_on", "time": 46, "note": 68, "velocity": 93, "channel": 0}, {"type": "note_off", "time": 65, "note": 68, "velocity": 93, "channel": 0}, {"type": "note_on", "time": 72, "note": 65, "velocity": 96, "channel": 0}, {"type": "note_off", "time": 51, "note": 65, "velocity": 96, "channel": 0}, {"type": "note_on", "time": 48, "note": 65, "velocity": 84, "channel": 0}, {"type": "note_off", "time": 197, "note": 65, "velocity": 84, "channel": 0}, {"type": "note_on", "time": 1008, "note": 74, "velocity": 99, "channel": 0}, {"type": "note_off", "time": 51, "note": 74, "velocity": 99, "channel": 0}, {"type": "note_on", "time": 21, "note": 74, "velocity": 107, "channel": 0}, {"type": "note_off", "time": 48, "note": 74, "velocity": 107, "channel": 0}, {"type": "note_on", "time": 6, "note": 74, "velocity": 107, "channel": 0}, {"type": "note_off", "time": 66, "note": 74, "velocity": 107, "channel": 0}, {"type": "note_on", "time": 21, "note": 74, "velocity": 97, "channel": 0}, {"type": "note_off", "time": 51, "note": 74, "velocity": 97, "channel": 0}, {"type": "note_on", "time": 5, "note": 74, "velocity": 107, "channel": 0}, {"type": "note_off", "time": 46, "note": 74, "velocity": 107, "channel": 0}, {"type": "note_on", "time": 6, "note": 74, "velocity": 106, "channel": 0}, {"type": "note_off", "time": 34, "note": 74, "velocity": 106, "channel": 0}, {"type": "note_on", "time": 7, "note": 74, "velocity": 106, "channel": 0}, {"type": "note_off", "time": 28, "note": 74, "velocity": 106, "channel": 0}, {"type": "note_on", "time": 120, "note": 74, "velocity": 102, "channel": 0}, {"type": "note_off", "time": 80, "note": 74, "velocity": 102, "channel": 0}, {"type": "note_on", "time": 104, "note": 74, "velocity": 105, "channel": 0}, {"type": "note_off", "time": 185, "note": 74, "velocity": 105, "channel": 0}, {"type": "note_on", "time": 21, "note": 74, "velocity": 104, "channel": 0}, {"type": "note_off", "time": 180, "note": 74, "velocity": 104, "channel": 0}, {"type": "note_on", "time": 23, "note": 74, "velocity": 102, "channel": 0}, {"type": "note_off", "time": 74, "note": 74, "velocity": 102, "channel": 0}, {"type": "note_on", "time": 70, "note": 74, "velocity": 105, "channel": 0}, {"type": "note_off", "time": 65, "note": 74, "velocity": 105, "channel": 0}, {"type": "note_on", "time": 121, "note": 74, "velocity": 103, "channel": 0}, {"type": "note_off", "time": 93, "note": 74, "velocity": 103, "channel": 0}, {"type": "note_on", "time": 93, "note": 74, "velocity": 105, "channel": 0}, {"type": "note_off", "time": 325, "note": 74, "velocity": 105, "channel": 0}, {"type": "note_on", "time": 14, "note": 70, "velocity": 87, "channel": 0}, {"type": "note_off", "time": 38, "note": 70, "velocity": 87, "channel": 0}, {"type": "note_on", "time": 44, "note": 74, "velocity": 112, "channel": 0}, {"type": "note_off", "time": 131, "note": 74, "velocity": 112, "channel": 0}, {"type": "note_on", "time": 8, "note": 74, "velocity": 112, "channel": 0}, {"type": "note_off", "time": 61, "note": 74, "velocity": 112, "channel": 0}, {"type": "note_on", "time": 591, "note": 74, "velocity": 104, "channel": 0}, {"type": "note_off", "time": 63, "note": 74, "velocity": 104, "channel": 0}, {"type": "note_on", "time": 46, "note": 75, "velocity": 106, "channel": 0}, {"type": "note_off", "time": 68, "note": 75, "velocity": 106, "channel": 0}, {"type": "note_on", "time": 8, "note": 74, "velocity": 110, "channel": 0}, {"type": "note_off", "time": 72, "note": 74, "velocity": 110, "channel": 0}, {"type": "note_on", "time": 85, "note": 70, "velocity": 105, "channel": 0}, {"type": "note_off", "time": 208, "note": 70, "velocity": 105, "channel": 0}, {"type": "note_on", "time": 698, "note": 78, "velocity": 116, "channel": 0}, {"type": "note_off", "time": 51, "note": 78, "velocity": 116, "channel": 0}, {"type": "note_on", "time": 6, "note": 76, "velocity": 104, "channel": 0}, {"type": "note_off", "time": 29, "note": 76, "velocity": 104, "channel": 0}, {"type": "note_on", "time": 4, "note": 75, "velocity": 109, "channel": 0}, {"type": "note_off", "time": 97, "note": 75, "velocity": 109, "channel": 0}, {"type": "note_on", "time": 8, "note": 73, "velocity": 99, "channel": 0}, {"type": "note_off", "time": 223, "note": 73, "velocity": 99, "channel": 0}, {"type": "note_on", "time": 17, "note": 70, "velocity": 97, "channel": 0}, {"type": "note_off", "time": 76, "note": 70, "velocity": 97, "channel": 0}, {"type": "note_on", "time": 117, "note": 73, "velocity": 110, "channel": 0}, {"type": "note_off", "time": 100, "note": 73, "velocity": 110, "channel": 0}, {"type": "note_on", "time": 806, "note": 65, "velocity": 84, "channel": 0}, {"type": "note_off", "time": 46, "note": 65, "velocity": 84, "channel": 0}, {"type": "note_on", "time": 23, "note": 68, "velocity": 104, "channel": 0}, {"type": "note_off", "time": 91, "note": 68, "velocity": 104, "channel": 0}, {"type": "note_on", "time": 23, "note": 70, "velocity": 115, "channel": 0}, {"type": "note_off", "time": 80, "note": 70, "velocity": 115, "channel": 0}, {"type": "note_on", "time": 4, "note": 71, "velocity": 116, "channel": 0}, {"type": "note_off", "time": 91, "note": 71, "velocity": 116, "channel": 0}, {"type": "note_on", "time": 21, "note": 73, "velocity": 118, "channel": 0}, {"type": "note_off", "time": 65, "note": 73, "velocity": 118, "channel": 0}, {"type": "note_on", "time": 6, "note": 74, "velocity": 117, "channel": 0}, {"type": "note_off", "time": 93, "note": 74, "velocity": 117, "channel": 0}, {"type": "note_on", "time": 19, "note": 76, "velocity": 119, "channel": 0}, {"type": "note_off", "time": 68, "note": 76, "velocity": 119, "channel": 0}, {"type": "note_on", "time": 4, "note": 77, "velocity": 119, "channel": 0}, {"type": "note_off", "time": 89, "note": 77, "velocity": 119, "channel": 0}, {"type": "note_on", "time": 12, "note": 79, "velocity": 120, "channel": 0}, {"type": "note_off", "time": 80, "note": 79, "velocity": 120, "channel": 0}, {"type": "note_on", "time": 10, "note": 80, "velocity": 121, "channel": 0}, {"type": "note_off", "time": 123, "note": 80, "velocity": 121, "channel": 0}, {"type": "note_on", "time": 623, "note": 76, "velocity": 103, "channel": 0}, {"type": "note_off", "time": 117, "note": 76, "velocity": 103, "channel": 0}, {"type": "note_on", "time": 10, "note": 75, "velocity": 107, "channel": 0}, {"type": "note_off", "time": 63, "note": 75, "velocity": 107, "channel": 0}, {"type": "note_on", "time": 36, "note": 73, "velocity": 102, "channel": 0}, {"type": "note_off", "time": 78, "note": 73, "velocity": 102, "channel": 0}, {"type": "note_on", "time": 23, "note": 70, "velocity": 107, "channel": 0}, {"type": "note_off", "time": 63, "note": 70, "velocity": 107, "channel": 0}, {"type": "note_on", "time": 187, "note": 73, "velocity": 108, "channel": 0}, {"type": "note_off", "time": 117, "note": 73, "velocity": 108, "channel": 0}, {"type": "note_on", "time": 55, "note": 73, "velocity": 107, "channel": 0}, {"type": "note_off", "time": 183, "note": 73, "velocity": 107, "channel": 0}, {"type": "note_on", "time": 517, "note": 73, "velocity": 115, "channel": 0}, {"type": "note_off", "time": 61, "note": 73, "velocity": 115, "channel": 0}, {"type": "note_on", "time": 17, "note": 74, "velocity": 110, "channel": 0}, {"type": "note_off", "time": 134, "note": 74, "velocity": 110, "channel": 0}, {"type": "note_on", "time": 8, "note": 73, "velocity": 101, "channel": 0}, {"type": "note_off", "time": 29, "note": 73, "velocity": 101, "channel": 0}, {"type": "note_on", "time": 2, "note": 74, "velocity": 103, "channel": 0}, {"type": "note_off", "time": 180, "note": 74, "velocity": 103, "channel": 0}, {"type": "note_on", "time": 17, "note": 72, "velocity": 106, "channel": 0}, {"type": "note_off", "time": 100, "note": 72, "velocity": 106, "channel": 0}, {"type": "note_on", "time": 4, "note": 70, "velocity": 106, "channel": 0}, {"type": "note_off", "time": 95, "note": 70, "velocity": 106, "channel": 0}, {"type": "note_on", "time": 36, "note": 65, "velocity": 98, "channel": 0}, {"type": "note_off", "time": 112, "note": 65, "velocity": 98, "channel": 0}, {"type": "note_on", "time": 19, "note": 63, "velocity": 89, "channel": 0}, {"type": "note_off", "time": 180, "note": 63, "velocity": 89, "channel": 0}, {"type": "note_on", "time": 428, "note": 63, "velocity": 85, "channel": 0}, {"type": "note_off", "time": 44, "note": 63, "velocity": 85, "channel": 0}, {"type": "note_on", "time": 37, "note": 65, "velocity": 102, "channel": 0}, {"type": "note_off", "time": 65, "note": 65, "velocity": 102, "channel": 0}, {"type": "note_on", "time": 23, "note": 67, "velocity": 105, "channel": 0}, {"type": "note_off", "time": 83, "note": 67, "velocity": 105, "channel": 0}, {"type": "note_on", "time": 12, "note": 69, "velocity": 107, "channel": 0}, {"type": "note_off", "time": 72, "note": 69, "velocity": 107, "channel": 0}, {"type": "note_on", "time": 8, "note": 70, "velocity": 114, "channel": 0}, {"type": "note_off", "time": 102, "note": 70, "velocity": 114, "channel": 0}, {"type": "note_on", "time": 8, "note": 72, "velocity": 106, "channel": 0}, {"type": "note_off", "time": 44, "note": 72, "velocity": 106, "channel": 0}, {"type": "note_on", "time": 10, "note": 73, "velocity": 112, "channel": 0}, {"type": "note_off", "time": 55, "note": 73, "velocity": 112, "channel": 0}, {"type": "note_on", "time": 12, "note": 74, "velocity": 112, "channel": 0}, {"type": "note_off", "time": 65, "note": 74, "velocity": 112, "channel": 0}, {"type": "note_on", "time": 61, "note": 70, "velocity": 103, "channel": 0}, {"type": "note_off", "time": 338, "note": 70, "velocity": 103, "channel": 0}, {"type": "note_on", "time": 44, "note": 70, "velocity": 106, "channel": 0}, {"type": "note_off", "time": 129, "note": 70, "velocity": 106, "channel": 0}, {"type": "note_on", "time": 14, "note": 70, "velocity": 113, "channel": 0}, {"type": "note_off", "time": 57, "note": 70, "velocity": 113, "channel": 0}, {"type": "note_on", "time": 455, "note": 73, "velocity": 113, "channel": 0}, {"type": "note_off", "time": 85, "note": 73, "velocity": 113, "channel": 0}, {"type": "note_on", "time": 2, "note": 74, "velocity": 111, "channel": 0}, {"type": "note_off", "time": 108, "note": 74, "velocity": 111, "channel": 0}, {"type": "note_on", "time": 12, "note": 77, "velocity": 115, "channel": 0}, {"type": "note_off", "time": 55, "note": 77, "velocity": 115, "channel": 0}, {"type": "note_on", "time": 6, "note": 79, "velocity": 120, "channel": 0}, {"type": "note_off", "time": 110, "note": 79, "velocity": 120, "channel": 0}, {"type": "note_on", "time": 65, "note": 80, "velocity": 116, "channel": 0}, {"type": "note_off", "time": 108, "note": 80, "velocity": 116, "channel": 0}, {"type": "note_on", "time": 689, "note": 79, "velocity": 109, "channel": 0}, {"type": "note_off", "time": 95, "note": 79, "velocity": 109, "channel": 0}, {"type": "note_on", "time": 23, "note": 77, "velocity": 119, "channel": 0}, {"type": "note_off", "time": 68, "note": 77, "velocity": 119, "channel": 0}, {"type": "note_on", "time": 0, "note": 76, "velocity": 118, "channel": 0}, {"type": "note_off", "time": 117, "note": 76, "velocity": 118, "channel": 0}, {"type": "note_on", "time": 2, "note": 74, "velocity": 119, "channel": 0}, {"type": "note_off", "time": 70, "note": 74, "velocity": 119, "channel": 0}, {"type": "note_on", "time": 6, "note": 75, "velocity": 116, "channel": 0}, {"type": "note_off", "time": 161, "note": 75, "velocity": 116, "channel": 0}, {"type": "note_on", "time": 14, "note": 73, "velocity": 115, "channel": 0}, {"type": "note_off", "time": 95, "note": 73, "velocity": 115, "channel": 0}, {"type": "note_on", "time": 89, "note": 80, "velocity": 127, "channel": 0}, {"type": "note_off", "time": 114, "note": 80, "velocity": 127, "channel": 0}, {"type": "note_on", "time": 659, "note": 80, "velocity": 109, "channel": 0}, {"type": "note_off", "time": 110, "note": 80, "velocity": 109, "channel": 0}, {"type": "note_on", "time": 8, "note": 77, "velocity": 118, "channel": 0}, {"type": "note_off", "time": 65, "note": 77, "velocity": 118, "channel": 0}, {"type": "note_on", "time": 2, "note": 76, "velocity": 115, "channel": 0}, {"type": "note_off", "time": 131, "note": 76, "velocity": 115, "channel": 0}, {"type": "note_on", "time": 2, "note": 74, "velocity": 105, "channel": 0}, {"type": "note_off", "time": 42, "note": 74, "velocity": 105, "channel": 0}, {"type": "note_on", "time": 10, "note": 75, "velocity": 113, "channel": 0}, {"type": "note_off", "time": 180, "note": 75, "velocity": 113, "channel": 0}, {"type": "note_on", "time": 4, "note": 73, "velocity": 114, "channel": 0}, {"type": "note_off", "time": 78, "note": 73, "velocity": 114, "channel": 0}, {"type": "note_on", "time": 106, "note": 73, "velocity": 110, "channel": 0}, {"type": "note_off", "time": 163, "note": 73, "velocity": 110, "channel": 0}, {"type": "note_on", "time": 632, "note": 79, "velocity": 118, "channel": 0}, {"type": "note_off", "time": 106, "note": 79, "velocity": 118, "channel": 0}, {"type": "note_on", "time": 35, "note": 77, "velocity": 117, "channel": 0}, {"type": "note_off", "time": 104, "note": 77, "velocity": 117, "channel": 0}, {"type": "note_on", "time": 36, "note": 76, "velocity": 116, "channel": 0}, {"type": "note_off", "time": 91, "note": 76, "velocity": 116, "channel": 0}, {"type": "note_on", "time": 8, "note": 75, "velocity": 110, "channel": 0}, {"type": "note_off", "time": 144, "note": 75, "velocity": 110, "channel": 0}, {"type": "note_on", "time": 29, "note": 73, "velocity": 112, "channel": 0}, {"type": "note_off", "time": 123, "note": 73, "velocity": 112, "channel": 0}, {"type": "note_on", "time": 4, "note": 70, "velocity": 90, "channel": 0}, {"type": "note_off", "time": 44, "note": 70, "velocity": 90, "channel": 0}, {"type": "note_on", "time": 12, "note": 73, "velocity": 107, "channel": 0}, {"type": "note_off", "time": 163, "note": 73, "velocity": 107, "channel": 0}, {"type": "note_on", "time": 12, "note": 70, "velocity": 110, "channel": 0}, {"type": "note_off", "time": 125, "note": 70, "velocity": 110, "channel": 0}, {"type": "note_on", "time": 29, "note": 68, "velocity": 87, "channel": 0}, {"type": "note_off", "time": 225, "note": 68, "velocity": 87, "channel": 0}, {"type": "note_on", "time": 1008, "note": 60, "velocity": 79, "channel": 0}, {"type": "note_off", "time": 34, "note": 60, "velocity": 79, "channel": 0}, {"type": "note_on", "time": 38, "note": 63, "velocity": 98, "channel": 0}, {"type": "note_off", "time": 72, "note": 63, "velocity": 98, "channel": 0}, {"type": "note_on", "time": 23, "note": 67, "velocity": 107, "channel": 0}, {"type": "note_off", "time": 48, "note": 67, "velocity": 107, "channel": 0}, {"type": "note_on", "time": 48, "note": 70, "velocity": 117, "channel": 0}, {"type": "note_off", "time": 74, "note": 70, "velocity": 117, "channel": 0}, {"type": "note_on", "time": 10, "note": 69, "velocity": 115, "channel": 0}, {"type": "note_off", "time": 63, "note": 69, "velocity": 115, "channel": 0}, {"type": "note_on", "time": 27, "note": 70, "velocity": 118, "channel": 0}, {"type": "note_off", "time": 68, "note": 70, "velocity": 118, "channel": 0}, {"type": "note_on", "time": 23, "note": 72, "velocity": 117, "channel": 0}, {"type": "note_off", "time": 76, "note": 72, "velocity": 117, "channel": 0}, {"type": "note_on", "time": 27, "note": 74, "velocity": 114, "channel": 0}, {"type": "note_off", "time": 78, "note": 74, "velocity": 114, "channel": 0}, {"type": "note_on", "time": 17, "note": 75, "velocity": 115, "channel": 0}, {"type": "note_off", "time": 72, "note": 75, "velocity": 115, "channel": 0}, {"type": "note_on", "time": 21, "note": 77, "velocity": 116, "channel": 0}, {"type": "note_off", "time": 68, "note": 77, "velocity": 116, "channel": 0}, {"type": "note_on", "time": 10, "note": 79, "velocity": 118, "channel": 0}, {"type": "note_off", "time": 78, "note": 79, "velocity": 118, "channel": 0}, {"type": "note_on", "time": 23, "note": 82, "velocity": 117, "channel": 0}, {"type": "note_off", "time": 83, "note": 82, "velocity": 117, "channel": 0}, {"type": "note_on", "time": 86, "note": 84, "velocity": 81, "channel": 0}, {"type": "note_off", "time": 37, "note": 84, "velocity": 81, "channel": 0}, {"type": "note_on", "time": 3, "note": 86, "velocity": 96, "channel": 0}, {"type": "note_off", "time": 40, "note": 86, "velocity": 96, "channel": 0}, {"type": "note_on", "time": 19, "note": 88, "velocity": 107, "channel": 0}, {"type": "note_off", "time": 38, "note": 88, "velocity": 107, "channel": 0}, {"type": "note_on", "time": 10, "note": 87, "velocity": 121, "channel": 0}, {"type": "note_off", "time": 44, "note": 87, "velocity": 121, "channel": 0}, {"type": "note_on", "time": 2, "note": 86, "velocity": 115, "channel": 0}, {"type": "note_off", "time": 38, "note": 86, "velocity": 115, "channel": 0}, {"type": "note_on", "time": 4, "note": 84, "velocity": 121, "channel": 0}, {"type": "note_off", "time": 91, "note": 84, "velocity": 121, "channel": 0}, {"type": "note_on", "time": 6, "note": 83, "velocity": 116, "channel": 0}, {"type": "note_off", "time": 61, "note": 83, "velocity": 116, "channel": 0}, {"type": "note_on", "time": 14, "note": 80, "velocity": 118, "channel": 0}, {"type": "note_off", "time": 76, "note": 80, "velocity": 118, "channel": 0}, {"type": "note_on", "time": 2, "note": 79, "velocity": 119, "channel": 0}, {"type": "note_off", "time": 85, "note": 79, "velocity": 119, "channel": 0}, {"type": "note_on", "time": 25, "note": 78, "velocity": 112, "channel": 0}, {"type": "note_off", "time": 70, "note": 78, "velocity": 112, "channel": 0}, {"type": "note_on", "time": 10, "note": 77, "velocity": 112, "channel": 0}, {"type": "note_off", "time": 80, "note": 77, "velocity": 112, "channel": 0}, {"type": "note_on", "time": 10, "note": 76, "velocity": 111, "channel": 0}, {"type": "note_off", "time": 93, "note": 76, "velocity": 111, "channel": 0}, {"type": "note_on", "time": 10, "note": 75, "velocity": 113, "channel": 0}, {"type": "note_off", "time": 76, "note": 75, "velocity": 113, "channel": 0}, {"type": "note_on", "time": 0, "note": 72, "velocity": 114, "channel": 0}, {"type": "note_off", "time": 27, "note": 72, "velocity": 114, "channel": 0}, {"type": "note_on", "time": 4, "note": 74, "velocity": 109, "channel": 0}, {"type": "note_off", "time": 61, "note": 74, "velocity": 109, "channel": 0}, {"type": "note_on", "time": 21, "note": 70, "velocity": 115, "channel": 0}, {"type": "note_off", "time": 95, "note": 70, "velocity": 115, "channel": 0}, {"type": "note_on", "time": 68, "note": 70, "velocity": 112, "channel": 0}, {"type": "note_off", "time": 102, "note": 70, "velocity": 112, "channel": 0}, {"type": "note_on", "time": 1, "note": 72, "velocity": 104, "channel": 0}, {"type": "note_off", "time": 42, "note": 72, "velocity": 104, "channel": 0}, {"type": "note_on", "time": 2, "note": 74, "velocity": 111, "channel": 0}, {"type": "note_off", "time": 48, "note": 74, "velocity": 111, "channel": 0}, {"type": "note_on", "time": 5, "note": 70, "velocity": 113, "channel": 0}, {"type": "note_off", "time": 84, "note": 70, "velocity": 113, "channel": 0}, {"type": "note_on", "time": 84, "note": 70, "velocity": 115, "channel": 0}, {"type": "note_off", "time": 133, "note": 70, "velocity": 115, "channel": 0}, {"type": "note_on", "time": 57, "note": 70, "velocity": 107, "channel": 0}, {"type": "note_off", "time": 245, "note": 70, "velocity": 107, "channel": 0}, {"type": "note_on", "time": 78, "note": 70, "velocity": 113, "channel": 0}, {"type": "note_off", "time": 108, "note": 70, "velocity": 113, "channel": 0}, {"type": "end_of_track", "time": 0}]]}