{"ticks_per_beat": 2520, "tracks": [[{"type": "track_name", "name": "Melody", "time": 0}, {"type": "set_tempo", "tempo": 508474, "time": 0}, {"type": "key_signature", "key": "F", "time": 0}, {"type": "time_signature", "numerator": 4, "denominator": 4, "clocks_per_click": 24, "notated_32nd_notes_per_beat": 8, "time": 0}, {"type": "note_on", "time": 50864, "note": 68, "velocity": 124, "channel": 0}, {"type": "note_off", "time": 855, "note": 68, "velocity": 124, "channel": 0}, {"type": "note_on", "time": 4, "note": 67, "velocity": 124, "channel": 0}, {"type": "note_off", "time": 661, "note": 67, "velocity": 124, "channel": 0}, {"type": "note_on", "time": 118, "note": 68, "velocity": 125, "channel": 0}, {"type": "note_off", "time": 863, "note": 68, "velocity": 125, "channel": 0}, {"type": "note_on", "time": 35, "note": 69, "velocity": 112, "channel": 0}, {"type": "note_off", "time": 8050, "note": 69, "velocity": 112, "channel": 0}, {"type": "note_on", "time": 80, "note": 68, "velocity": 120, "channel": 0}, {"type": "note_off", "time": 2386, "note": 68, "velocity": 120, "channel": 0}, {"type": "note_on", "time": 202, "note": 69, "velocity": 115, "channel": 0}, {"type": "note_off", "time": 2386, "note": 69, "velocity": 115, "channel": 0}, {"type": "note_on", "time": 40, "note": 68, "velocity": 119, "channel": 0}, {"type": "note_off", "time": 1861, "note": 68, "velocity": 119, "channel": 0}, {"type": "note_on", "time": 161, "note": 69, "velocity": 113, "channel": 0}, {"type": "note_off", "time": 4005, "note": 69, "velocity": 113, "channel": 0}, {"type": "note_on", "time": 202, "note": 67, "velocity": 117, "channel": 0}, {"type": "note_off", "time": 1132, "note": 67, "velocity": 117, "channel": 0}, {"type": "note_on", "time": 1416, "note": 65, "velocity": 117, "channel": 0}, {"type": "note_off", "time": 849, "note": 65, "velocity": 117, "channel": 0}, {"type": "note_on", "time": 1496, "note": 60, "velocity": 111, "channel": 0}, {"type": "note_off", "time": 1335, "note": 60, "velocity": 111, "channel": 0}, {"type": "note_on", "time": 16732, "note": 56, "velocity": 114, "channel": 0}, {"type": "note_off", "time": 1537, "note": 56, "velocity": 114, "channel": 0}, {"type": "note_on", "time": 44, "note": 56, "velocity": 117, "channel": 0}, {"type": "note_off", "time": 575, "note": 56, "velocity": 117, "channel": 0}, {"type": "note_on", "time": 9235, "note": 56, "velocity": 118, "channel": 0}, {"type": "note_off", "time": 1467, "note": 56, "velocity": 118, "channel": 0}, {"type": "note_on", "time": 0, "note": 57, "velocity": 116, "channel": 0}, {"type": "note_off", "time": 5379, "note": 57, "velocity": 116, "channel": 0}, {"type": "note_on", "time": 35, "note": 53, "velocity": 108, "channel": 0}, {"type": "note_off", "time": 801, "note": 53, "velocity": 108, "channel": 0}, {"type": "note_on", "time": 57, "note": 53, "velocity": 111, "channel": 0}, {"type": "note_off", "time": 2517, "note": 53, "velocity": 111, "channel": 0}, {"type": "note_on", "time": 10195, "note": 63, "velocity": 110, "channel": 0}, {"type": "note_off", "time": 1179, "note": 63, "velocity": 110, "channel": 0}, {"type": "note_on", "time": 143, "note": 65, "velocity": 103, "channel": 0}, {"type": "note_off", "time": 805, "note": 65, "velocity": 103, "channel": 0}, {"type": "note_on", "time": 23619, "note": 79, "velocity": 119, "channel": 0}, {"type": "note_off", "time": 1064, "note": 79, "velocity": 119, "channel": 0}, {"type": "note_on", "time": 143, "note": 80, "velocity": 123, "channel": 0}, {"type": "note_off", "time": 575, "note": 80, "velocity": 123, "channel": 0}, {"type": "note_on", "time": 201, "note": 84, "velocity": 98, "channel": 0}, {"type": "note_off", "time": 805, "note": 84, "velocity": 98, "channel": 0}, {"type": "note_on", "time": 13808, "note": 79, "velocity": 90, "channel": 0}, {"type": "note_off", "time": 283, "note": 79, "velocity": 90, "channel": 0}, {"type": "note_on", "time": 581, "note": 77, "velocity": 119, "channel": 0}, {"type": "note_off", "time": 2531, "note": 77, "velocity": 119, "channel": 0}, {"type": "note_on", "time": 115, "note": 72, "velocity": 117, "channel": 0}, {"type": "note_off", "time": 1409, "note": 72, "velocity": 117, "channel": 0}, {"type": "note_on", "time": 0, "note": 69, "velocity": 117, "channel": 0}, {"type": "note_off", "time": 575, "note": 69, "velocity": 117, "channel": 0}, {"type": "note_on", "time": 28, "note": 68, "velocity": 117, "channel": 0}, {"type": "note_off", "time": 345, "note": 68, "velocity": 117, "channel": 0}, {"type": "note_on", "time": 28, "note": 69, "velocity": 112, "channel": 0}, {"type": "note_off", "time": 690, "note": 69, "velocity": 112, "channel": 0}, {"type": "note_on", "time": 6963, "note": 68, "velocity": 117, "channel": 0}, {"type": "note_off", "time": 1294, "note": 68, "velocity": 117, "channel": 0}, {"type": "note_on", "time": 141, "note": 68, "velocity": 111, "channel": 0}, {"type": "note_off", "time": 1011, "note": 68, "velocity": 111, "channel": 0}, {"type": "note_on", "time": 222, "note": 68, "velocity": 117, "channel": 0}, {"type": "note_off", "time": 1213, "note": 68, "velocity": 117, "channel": 0}, {"type": "note_on", "time": 80, "note": 67, "velocity": 106, "channel": 0}, {"type": "note_off", "time": 849, "note": 67, "velocity": 106, "channel": 0}, {"type": "note_on", "time": 303, "note": 65, "velocity": 100, "channel": 0}, {"type": "note_off", "time": 1254, "note": 65, "velocity": 100, "channel": 0}, {"type": "note_on", "time": 161, "note": 65, "velocity": 92, "channel": 0}, {"type": "note_off", "time": 3398, "note": 65, "velocity": 92, "channel": 0}, {"type": "note_on", "time": 15434, "note": 65, "velocity": 112, "channel": 0}, {"type": "note_off", "time": 1153, "note": 65, "velocity": 112, "channel": 0}, {"type": "note_on", "time": 222, "note": 65, "velocity": 101, "channel": 0}, {"type": "note_off", "time": 2670, "note": 65, "velocity": 101, "channel": 0}, {"type": "note_on", "time": 141, "note": 65, "velocity": 105, "channel": 0}, {"type": "note_off", "time": 1517, "note": 65, "velocity": 105, "channel": 0}, {"type": "note_on", "time": 262, "note": 64, "velocity": 85, "channel": 0}, {"type": "note_off", "time": 1537, "note": 64, "velocity": 85, "channel": 0}, {"type": "note_on", "time": 17780, "note": 70, "velocity": 117, "channel": 0}, {"type": "note_off", "time": 1051, "note": 70, "velocity": 117, "channel": 0}, {"type": "note_on", "time": 141, "note": 71, "velocity": 118, "channel": 0}, {"type": "note_off", "time": 970, "note": 71, "velocity": 118, "channel": 0}, {"type": "note_on", "time": 4548, "note": 71, "velocity": 117, "channel": 0}, {"type": "note_off", "time": 863, "note": 71, "velocity": 117, "channel": 0}, {"type": "note_on", "time": 2922, "note": 68, "velocity": 118, "channel": 0}, {"type": "note_off", "time": 1051, "note": 68, "velocity": 118, "channel": 0}, {"type": "note_on", "time": 182, "note": 65, "velocity": 111, "channel": 0}, {"type": "note_off", "time": 1031, "note": 65, "velocity": 111, "channel": 0}, {"type": "note_on", "time": 141, "note": 60, "velocity": 94, "channel": 0}, {"type": "note_off", "time": 1132, "note": 60, "velocity": 94, "channel": 0}, {"type": "note_on", "time": 303, "note": 58, "velocity": 105, "channel": 0}, {"type": "note_off", "time": 23626, "note": 58, "velocity": 105, "channel": 0}, {"type": "note_on", "time": 303, "note": 63, "velocity": 102, "channel": 0}, {"type": "note_off", "time": 489, "note": 63, "velocity": 102, "channel": 0}, {"type": "note_on", "time": 0, "note": 62, "velocity": 101, "channel": 0}, {"type": "note_off", "time": 575, "note": 62, "velocity": 101, "channel": 0}, {"type": "note_on", "time": 57, "note": 63, "velocity": 105, "channel": 0}, {"type": "note_off", "time": 5696, "note": 63, "velocity": 105, "channel": 0}, {"type": "note_on", "time": 10874, "note": 63, "velocity": 106, "channel": 0}, {"type": "note_off", "time": 604, "note": 63, "velocity": 106, "channel": 0}, {"type": "note_on", "time": 29, "note": 62, "velocity": 96, "channel": 0}, {"type": "note_off", "time": 586, "note": 62, "velocity": 96, "channel": 0}, {"type": "note_on", "time": 101, "note": 63, "velocity": 108, "channel": 0}, {"type": "note_off", "time": 708, "note": 63, "velocity": 108, "channel": 0}, {"type": "note_on", "time": 40, "note": 62, "velocity": 104, "channel": 0}, {"type": "note_off", "time": 586, "note": 62, "velocity": 104, "channel": 0}, {"type": "note_on", "time": 19, "note": 63, "velocity": 108, "channel": 0}, {"type": "note_off", "time": 1006, "note": 63, "velocity": 108, "channel": 0}, {"type": "note_on", "time": 57, "note": 62, "velocity": 87, "channel": 0}, {"type": "note_off", "time": 1323, "note": 62, "velocity": 87, "channel": 0}, {"type": "note_on", "time": 18124, "note": 79, "velocity": 118, "channel": 0}, {"type": "note_off", "time": 1409, "note": 79, "velocity": 118, "channel": 0}, {"type": "note_on", "time": 115, "note": 81, "velocity": 117, "channel": 0}, {"type": "note_off", "time": 12601, "note": 81, "velocity": 117, "channel": 0}, {"type": "note_on", "time": 86, "note": 82, "velocity": 112, "channel": 0}, {"type": "note_off", "time": 1064, "note": 82, "velocity": 112, "channel": 0}, {"type": "note_on", "time": 115, "note": 81, "velocity": 120, "channel": 0}, {"type": "note_off", "time": 2042, "note": 81, "velocity": 120, "channel": 0}, {"type": "note_on", "time": 57, "note": 79, "velocity": 114, "channel": 0}, {"type": "note_off", "time": 1467, "note": 79, "velocity": 114, "channel": 0}, {"type": "note_on", "time": 86, "note": 77, "velocity": 118, "channel": 0}, {"type": "note_off", "time": 2100, "note": 77, "velocity": 118, "channel": 0}, {"type": "note_on", "time": 57, "note": 72, "velocity": 119, "channel": 0}, {"type": "note_off", "time": 1870, "note": 72, "velocity": 119, "channel": 0}, {"type": "note_on", "time": 0, "note": 67, "velocity": 118, "channel": 0}, {"type": "note_off", "time": 1035, "note": 67, "velocity": 118, "channel": 0}, {"type": "note_on", "time": 258, "note": 69, "velocity": 114, "channel": 0}, {"type": "note_off", "time": 949, "note": 69, "velocity": 114, "channel": 0}, {"type": "note_on", "time": 28, "note": 66, "velocity": 110, "channel": 0}, {"type": "note_off", "time": 374, "note": 66, "velocity": 110, "channel": 0}, {"type": "note_on", "time": 172, "note": 68, "velocity": 117, "channel": 0}, {"type": "note_off", "time": 6012, "note": 68, "velocity": 117, "channel": 0}, {"type": "note_on", "time": 172, "note": 67, "velocity": 119, "channel": 0}, {"type": "note_off", "time": 776, "note": 67, "velocity": 119, "channel": 0}, {"type": "note_on", "time": 115, "note": 68, "velocity": 117, "channel": 0}, {"type": "note_off", "time": 2128, "note": 68, "velocity": 117, "channel": 0}, {"type": "note_on", "time": 57, "note": 65, "velocity": 118, "channel": 0}, {"type": "note_off", "time": 1380, "note": 65, "velocity": 118, "channel": 0}, {"type": "note_on", "time": 28, "note": 63, "velocity": 116, "channel": 0}, {"type": "note_off", "time": 1006, "note": 63, "velocity": 116, "channel": 0}, {"type": "note_on", "time": 86, "note": 60, "velocity": 101, "channel": 0}, {"type": "note_off", "time": 1208, "note": 60, "velocity": 101, "channel": 0}, {"type": "note_on", "time": 258, "note": 60, "velocity": 114, "channel": 0}, {"type": "note_off", "time": 863, "note": 60, "velocity": 114, "channel": 0}, {"type": "note_on", "time": 201, "note": 60, "velocity": 113, "channel": 0}, {"type": "note_off", "time": 2359, "note": 60, "velocity": 113, "channel": 0}, {"type": "note_on", "time": 143, "note": 63, "velocity": 101, "channel": 0}, {"type": "note_off", "time": 201, "note": 63, "velocity": 101, "channel": 0}, {"type": "note_on", "time": 122, "note": 65, "velocity": 110, "channel": 0}, {"type": "note_off", "time": 2790, "note": 65, "velocity": 110, "channel": 0}, {"type": "note_on", "time": 222, "note": 64, "velocity": 102, "channel": 0}, {"type": "note_off", "time": 1373, "note": 64, "velocity": 102, "channel": 0}, {"type": "note_on", "time": 7774, "note": 67, "velocity": 86, "channel": 0}, {"type": "note_off", "time": 604, "note": 67, "velocity": 86, "channel": 0}, {"type": "note_on", "time": 604, "note": 72, "velocity": 97, "channel": 0}, {"type": "note_off", "time": 690, "note": 72, "velocity": 97, "channel": 0}, {"type": "note_on", "time": 546, "note": 74, "velocity": 118, "channel": 0}, {"type": "note_off", "time": 1380, "note": 74, "velocity": 118, "channel": 0}, {"type": "note_on", "time": 0, "note": 72, "velocity": 115, "channel": 0}, {"type": "note_off", "time": 402, "note": 72, "velocity": 115, "channel": 0}, {"type": "note_on", "time": 776, "note": 67, "velocity": 116, "channel": 0}, {"type": "note_off", "time": 1122, "note": 67, "velocity": 116, "channel": 0}, {"type": "note_on", "time": 1496, "note": 67, "velocity": 119, "channel": 0}, {"type": "note_off", "time": 1179, "note": 67, "velocity": 119, "channel": 0}, {"type": "note_on", "time": 86, "note": 69, "velocity": 93, "channel": 0}, {"type": "note_off", "time": 690, "note": 69, "velocity": 93, "channel": 0}, {"type": "note_on", "time": 10732, "note": 77, "velocity": 117, "channel": 0}, {"type": "note_off", "time": 323, "note": 77, "velocity": 117, "channel": 0}, {"type": "note_on", "time": 60, "note": 81, "velocity": 115, "channel": 0}, {"type": "note_off", "time": 647, "note": 81, "velocity": 115, "channel": 0}, {"type": "note_on", "time": 1355, "note": 77, "velocity": 116, "channel": 0}, {"type": "note_off", "time": 1355, "note": 77, "velocity": 116, "channel": 0}, {"type": "note_on", "time": 60, "note": 75, "velocity": 117, "channel": 0}, {"type": "note_off", "time": 627, "note": 75, "velocity": 117, "channel": 0}, {"type": "note_on", "time": 20774, "note": 84, "velocity": 117, "channel": 0}, {"type": "note_off", "time": 404, "note": 84, "velocity": 117, "channel": 0}, {"type": "note_on", "time": 101, "note": 87, "velocity": 115, "channel": 0}, {"type": "note_off", "time": 809, "note": 87, "velocity": 115, "channel": 0}, {"type": "note_on", "time": 18, "note": 89, "velocity": 113, "channel": 0}, {"type": "note_off", "time": 348, "note": 89, "velocity": 113, "channel": 0}, {"type": "note_on", "time": 115, "note": 88, "velocity": 113, "channel": 0}, {"type": "note_off", "time": 510, "note": 88, "velocity": 113, "channel": 0}, {"type": "note_on", "time": 38, "note": 89, "velocity": 115, "channel": 0}, {"type": "note_off", "time": 2589, "note": 89, "velocity": 115, "channel": 0}, {"type": "note_on", "time": 80, "note": 90, "velocity": 120, "channel": 0}, {"type": "note_off", "time": 2184, "note": 90, "velocity": 120, "channel": 0}, {"type": "note_on", "time": 40, "note": 89, "velocity": 112, "channel": 0}, {"type": "note_off", "time": 849, "note": 89, "velocity": 112, "channel": 0}, {"type": "note_on", "time": 1577, "note": 87, "velocity": 120, "channel": 0}, {"type": "note_off", "time": 3762, "note": 87, "velocity": 120, "channel": 0}, {"type": "note_on", "time": 121, "note": 86, "velocity": 120, "channel": 0}, {"type": "note_off", "time": 2710, "note": 86, "velocity": 120, "channel": 0}, {"type": "note_on", "time": 970, "note": 82, "velocity": 106, "channel": 0}, {"type": "note_off", "time": 1112, "note": 82, "velocity": 106, "channel": 0}, {"type": "note_on", "time": 517, "note": 81, "velocity": 123, "channel": 0}, {"type": "note_off", "time": 550, "note": 81, "velocity": 123, "channel": 0}, {"type": "note_on", "time": 61, "note": 80, "velocity": 122, "channel": 0}, {"type": "note_off", "time": 237, "note": 80, "velocity": 122, "channel": 0}, {"type": "note_on", "time": 28, "note": 81, "velocity": 116, "channel": 0}, {"type": "note_off", "time": 345, "note": 81, "velocity": 116, "channel": 0}, {"type": "note_on", "time": 57, "note": 84, "velocity": 87, "channel": 0}, {"type": "note_off", "time": 435, "note": 84, "velocity": 87, "channel": 0}, {"type": "note_on", "time": 498, "note": 79, "velocity": 117, "channel": 0}, {"type": "note_on", "time": 222, "note": 77, "velocity": 119, "channel": 0}, {"type": "note_off", "time": 0, "note": 79, "velocity": 117, "channel": 0}, {"type": "note_off", "time": 1132, "note": 77, "velocity": 119, "channel": 0}, {"type": "note_on", "time": 242, "note": 72, "velocity": 123, "channel": 0}, {"type": "note_off", "time": 1213, "note": 72, "velocity": 123, "channel": 0}, {"type": "note_on", "time": 40, "note": 68, "velocity": 116, "channel": 0}, {"type": "note_off", "time": 1031, "note": 68, "velocity": 116, "channel": 0}, {"type": "note_on", "time": 111, "note": 69, "velocity": 120, "channel": 0}, {"type": "note_off", "time": 733, "note": 69, "velocity": 120, "channel": 0}, {"type": "note_on", "time": 136, "note": 70, "velocity": 121, "channel": 0}, {"type": "note_off", "time": 1522, "note": 70, "velocity": 121, "channel": 0}, {"type": "note_on", "time": 187, "note": 69, "velocity": 114, "channel": 0}, {"type": "note_off", "time": 1092, "note": 69, "velocity": 114, "channel": 0}, {"type": "note_on", "time": 121, "note": 65, "velocity": 121, "channel": 0}, {"type": "note_off", "time": 950, "note": 65, "velocity": 121, "channel": 0}, {"type": "note_on", "time": 60, "note": 60, "velocity": 114, "channel": 0}, {"type": "note_off", "time": 2184, "note": 60, "velocity": 114, "channel": 0}, {"type": "note_on", "time": 364, "note": 58, "velocity": 117, "channel": 0}, {"type": "note_off", "time": 1153, "note": 58, "velocity": 117, "channel": 0}, {"type": "note_on", "time": 335, "note": 56, "velocity": 111, "channel": 0}, {"type": "note_off", "time": 2609, "note": 56, "velocity": 111, "channel": 0}, {"type": "note_on", "time": 170, "note": 53, "velocity": 108, "channel": 0}, {"type": "note_off", "time": 788, "note": 53, "velocity": 108, "channel": 0}, {"type": "note_on", "time": 40, "note": 57, "velocity": 112, "channel": 0}, {"type": "note_off", "time": 3641, "note": 57, "velocity": 112, "channel": 0}, {"type": "note_on", "time": 121, "note": 53, "velocity": 107, "channel": 0}, {"type": "note_off", "time": 4713, "note": 53, "velocity": 107, "channel": 0}, {"type": "note_on", "time": 10134, "note": 65, "velocity": 106, "channel": 0}, {"type": "note_off", "time": 303, "note": 65, "velocity": 106, "channel": 0}, {"type": "note_on", "time": 991, "note": 68, "velocity": 121, "channel": 0}, {"type": "note_off", "time": 566, "note": 68, "velocity": 121, "channel": 0}, {"type": "note_on", "time": 80, "note": 70, "velocity": 119, "channel": 0}, {"type": "note_off", "time": 4551, "note": 70, "velocity": 119, "channel": 0}, {"type": "note_on", "time": 101, "note": 72, "velocity": 94, "channel": 0}, {"type": "note_off", "time": 546, "note": 72, "velocity": 94, "channel": 0}, {"type": "note_on", "time": 525, "note": 72, "velocity": 97, "channel": 0}, {"type": "note_off", "time": 546, "note": 72, "velocity": 97, "channel": 0}, {"type": "note_on", "time": 728, "note": 68, "velocity": 120, "channel": 0}, {"type": "note_off", "time": 1294, "note": 68, "velocity": 120, "channel": 0}, {"type": "note_on", "time": 60, "note": 65, "velocity": 94, "channel": 0}, {"type": "note_off", "time": 343, "note": 65, "velocity": 94, "channel": 0}, {"type": "note_on", "time": 728, "note": 65, "velocity": 110, "channel": 0}, {"type": "note_off", "time": 1173, "note": 65, "velocity": 110, "channel": 0}, {"type": "note_on", "time": 141, "note": 65, "velocity": 102, "channel": 0}, {"type": "note_off", "time": 2386, "note": 65, "velocity": 102, "channel": 0}, {"type": "note_on", "time": 9234, "note": 65, "velocity": 115, "channel": 0}, {"type": "note_off", "time": 6837, "note": 65, "velocity": 115, "channel": 0}, {"type": "note_on", "time": 10417, "note": 65, "velocity": 104, "channel": 0}, {"type": "note_off", "time": 556, "note": 65, "velocity": 104, "channel": 0}, {"type": "note_on", "time": 108, "note": 67, "velocity": 109, "channel": 0}, {"type": "note_off", "time": 287, "note": 67, "velocity": 109, "channel": 0}, {"type": "note_on", "time": 14, "note": 69, "velocity": 120, "channel": 0}, {"type": "note_off", "time": 460, "note": 69, "velocity": 120, "channel": 0}, {"type": "note_on", "time": 43, "note": 68, "velocity": 123, "channel": 0}, {"type": "note_off", "time": 431, "note": 68, "velocity": 123, "channel": 0}, {"type": "note_on", "time": 28, "note": 72, "velocity": 123, "channel": 0}, {"type": "note_off", "time": 431, "note": 72, "velocity": 123, "channel": 0}, {"type": "note_on", "time": 86, "note": 75, "velocity": 123, "channel": 0}, {"type": "note_off", "time": 489, "note": 75, "velocity": 123, "channel": 0}, {"type": "note_on", "time": 57, "note": 78, "velocity": 122, "channel": 0}, {"type": "note_off", "time": 431, "note": 78, "velocity": 122, "channel": 0}, {"type": "note_on", "time": 71, "note": 80, "velocity": 123, "channel": 0}, {"type": "note_off", "time": 388, "note": 80, "velocity": 123, "channel": 0}, {"type": "note_on", "time": 0, "note": 84, "velocity": 118, "channel": 0}, {"type": "note_off", "time": 258, "note": 84, "velocity": 118, "channel": 0}, {"type": "note_on", "time": 172, "note": 85, "velocity": 125, "channel": 0}, {"type": "note_off", "time": 489, "note": 85, "velocity": 125, "channel": 0}, {"type": "note_on", "time": 43, "note": 84, "velocity": 123, "channel": 0}, {"type": "note_off", "time": 460, "note": 84, "velocity": 123, "channel": 0}, {"type": "note_on", "time": 28, "note": 84, "velocity": 123, "channel": 0}, {"type": "note_off", "time": 561, "note": 84, "velocity": 123, "channel": 0}, {"type": "note_on", "time": 5943, "note": 65, "velocity": 112, "channel": 0}, {"type": "note_off", "time": 485, "note": 65, "velocity": 112, "channel": 0}, {"type": "note_on", "time": 121, "note": 65, "velocity": 119, "channel": 0}, {"type": "note_off", "time": 283, "note": 65, "velocity": 119, "channel": 0}, {"type": "note_on", "time": 161, "note": 65, "velocity": 116, "channel": 0}, {"type": "note_off", "time": 343, "note": 65, "velocity": 116, "channel": 0}, {"type": "note_on", "time": 182, "note": 65, "velocity": 117, "channel": 0}, {"type": "note_off", "time": 364, "note": 65, "velocity": 117, "channel": 0}, {"type": "note_on", "time": 202, "note": 65, "velocity": 119, "channel": 0}, {"type": "note_off", "time": 303, "note": 65, "velocity": 119, "channel": 0}, {"type": "note_on", "time": 141, "note": 65, "velocity": 112, "channel": 0}, {"type": "note_off", "time": 323, "note": 65, "velocity": 112, "channel": 0}, {"type": "note_on", "time": 101, "note": 66, "velocity": 116, "channel": 0}, {"type": "note_off", "time": 445, "note": 66, "velocity": 116, "channel": 0}, {"type": "note_on", "time": 80, "note": 66, "velocity": 111, "channel": 0}, {"type": "note_off", "time": 303, "note": 66, "velocity": 111, "channel": 0}, {"type": "note_on", "time": 141, "note": 66, "velocity": 119, "channel": 0}, {"type": "note_off", "time": 303, "note": 66, "velocity": 119, "channel": 0}, {"type": "note_on", "time": 80, "note": 66, "velocity": 117, "channel": 0}, {"type": "note_off", "time": 242, "note": 66, "velocity": 117, "channel": 0}, {"type": "note_on", "time": 121, "note": 66, "velocity": 119, "channel": 0}, {"type": "note_off", "time": 364, "note": 66, "velocity": 119, "channel": 0}, {"type": "note_on", "time": 202, "note": 66, "velocity": 117, "channel": 0}, {"type": "note_off", "time": 465, "note": 66, "velocity": 117, "channel": 0}, {"type": "note_on", "time": 101, "note": 66, "velocity": 119, "channel": 0}, {"type": "note_off", "time": 141, "note": 66, "velocity": 119, "channel": 0}, {"type": "note_on", "time": 141, "note": 66, "velocity": 120, "channel": 0}, {"type": "note_off", "time": 323, "note": 66, "velocity": 120, "channel": 0}, {"type": "note_on", "time": 161, "note": 66, "velocity": 120, "channel": 0}, {"type": "note_off", "time": 283, "note": 66, "velocity": 120, "channel": 0}, {"type": "note_on", "time": 101, "note": 66, "velocity": 121, "channel": 0}, {"type": "note_off", "time": 303, "note": 66, "velocity": 121, "channel": 0}, {"type": "note_on", "time": 141, "note": 66, "velocity": 119, "channel": 0}, {"type": "note_off", "time": 364, "note": 66, "velocity": 119, "channel": 0}, {"type": "note_on", "time": 101, "note": 66, "velocity": 120, "channel": 0}, {"type": "note_off", "time": 283, "note": 66, "velocity": 120, "channel": 0}, {"type": "note_on", "time": 121, "note": 66, "velocity": 121, "channel": 0}, {"type": "note_off", "time": 343, "note": 66, "velocity": 121, "channel": 0}, {"type": "note_on", "time": 141, "note": 66, "velocity": 121, "channel": 0}, {"type": "note_off", "time": 323, "note": 66, "velocity": 121, "channel": 0}, {"type": "note_on", "time": 101, "note": 66, "velocity": 120, "channel": 0}, {"type": "note_off", "time": 343, "note": 66, "velocity": 120, "channel": 0}, {"type": "note_on", "time": 60, "note": 66, "velocity": 121, "channel": 0}, {"type": "note_off", "time": 242, "note": 66, "velocity": 121, "channel": 0}, {"type": "note_on", "time": 222, "note": 66, "velocity": 117, "channel": 0}, {"type": "note_off", "time": 303, "note": 66, "velocity": 117, "channel": 0}, {"type": "note_on", "time": 60, "note": 66, "velocity": 115, "channel": 0}, {"type": "note_off", "time": 262, "note": 66, "velocity": 115, "channel": 0}, {"type": "note_on", "time": 161, "note": 67, "velocity": 116, "channel": 0}, {"type": "note_off", "time": 323, "note": 67, "velocity": 116, "channel": 0}, {"type": "note_on", "time": 121, "note": 67, "velocity": 115, "channel": 0}, {"type": "note_off", "time": 262, "note": 67, "velocity": 115, "channel": 0}, {"type": "note_on", "time": 161, "note": 67, "velocity": 106, "channel": 0}, {"type": "note_off", "time": 323, "note": 67, "velocity": 106, "channel": 0}, {"type": "note_on", "time": 60, "note": 67, "velocity": 117, "channel": 0}, {"type": "note_off", "time": 303, "note": 67, "velocity": 117, "channel": 0}, {"type": "note_on", "time": 80, "note": 67, "velocity": 104, "channel": 0}, {"type": "note_off", "time": 182, "note": 67, "velocity": 104, "channel": 0}, {"type": "note_on", "time": 121, "note": 68, "velocity": 122, "channel": 0}, {"type": "note_off", "time": 384, "note": 68, "velocity": 122, "channel": 0}, {"type": "note_on", "time": 161, "note": 68, "velocity": 121, "channel": 0}, {"type": "note_off", "time": 364, "note": 68, "velocity": 121, "channel": 0}, {"type": "note_on", "time": 202, "note": 68, "velocity": 113, "channel": 0}, {"type": "note_off", "time": 303, "note": 68, "velocity": 113, "channel": 0}, {"type": "note_on", "time": 141, "note": 68, "velocity": 114, "channel": 0}, {"type": "note_off", "time": 222, "note": 68, "velocity": 114, "channel": 0}, {"type": "note_on", "time": 141, "note": 68, "velocity": 121, "channel": 0}, {"type": "note_off", "time": 404, "note": 68, "velocity": 121, "channel": 0}, {"type": "note_on", "time": 222, "note": 68, "velocity": 123, "channel": 0}, {"type": "note_off", "time": 303, "note": 68, "velocity": 123, "channel": 0}, {"type": "note_on", "time": 121, "note": 69, "velocity": 120, "channel": 0}, {"type": "note_off", "time": 141, "note": 69, "velocity": 120, "channel": 0}, {"type": "note_on", "time": 40, "note": 68, "velocity": 122, "channel": 0}, {"type": "note_off", "time": 262, "note": 68, "velocity": 122, "channel": 0}, {"type": "note_on", "time": 101, "note": 69, "velocity": 117, "channel": 0}, {"type": "note_off", "time": 202, "note": 69, "velocity": 117, "channel": 0}, {"type": "note_on", "time": 161, "note": 68, "velocity": 120, "channel": 0}, {"type": "note_off", "time": 202, "note": 68, "velocity": 120, "channel": 0}, {"type": "note_on", "time": 0, "note": 71, "velocity": 114, "channel": 0}, {"type": "note_off", "time": 262, "note": 71, "velocity": 114, "channel": 0}, {"type": "note_on", "time": 20, "note": 70, "velocity": 113, "channel": 0}, {"type": "note_off", "time": 202, "note": 70, "velocity": 113, "channel": 0}, {"type": "note_on", "time": 121, "note": 71, "velocity": 118, "channel": 0}, {"type": "note_off", "time": 262, "note": 71, "velocity": 118, "channel": 0}, {"type": "note_on", "time": 101, "note": 70, "velocity": 115, "channel": 0}, {"type": "note_off", "time": 323, "note": 70, "velocity": 115, "channel": 0}, {"type": "note_on", "time": 161, "note": 72, "velocity": 120, "channel": 0}, {"type": "note_off", "time": 242, "note": 72, "velocity": 120, "channel": 0}, {"type": "note_on", "time": 80, "note": 71, "velocity": 119, "channel": 0}, {"type": "note_off", "time": 303, "note": 71, "velocity": 119, "channel": 0}, {"type": "note_on", "time": 121, "note": 73, "velocity": 121, "channel": 0}, {"type": "note_off", "time": 182, "note": 73, "velocity": 121, "channel": 0}, {"type": "note_on", "time": 60, "note": 71, "velocity": 119, "channel": 0}, {"type": "note_off", "time": 202, "note": 71, "velocity": 119, "channel": 0}, {"type": "note_on", "time": 40, "note": 73, "velocity": 122, "channel": 0}, {"type": "note_off", "time": 202, "note": 73, "velocity": 122, "channel": 0}, {"type": "note_on", "time": 101, "note": 72, "velocity": 122, "channel": 0}, {"type": "note_off", "time": 343, "note": 72, "velocity": 122, "channel": 0}, {"type": "note_on", "time": 60, "note": 73, "velocity": 119, "channel": 0}, {"type": "note_off", "time": 283, "note": 73, "velocity": 119, "channel": 0}, {"type": "note_on", "time": 60, "note": 72, "velocity": 121, "channel": 0}, {"type": "note_off", "time": 283, "note": 72, "velocity": 121, "channel": 0}, {"type": "note_on", "time": 40, "note": 73, "velocity": 122, "channel": 0}, {"type": "note_off", "time": 283, "note": 73, "velocity": 122, "channel": 0}, {"type": "note_on", "time": 20, "note": 72, "velocity": 114, "channel": 0}, {"type": "note_off", "time": 222, "note": 72, "velocity": 114, "channel": 0}, {"type": "note_on", "time": 80, "note": 73, "velocity": 111, "channel": 0}, {"type": "note_off", "time": 202, "note": 73, "velocity": 111, "channel": 0}, {"type": "note_on", "time": 161, "note": 71, "velocity": 114, "channel": 0}, {"type": "note_off", "time": 424, "note": 71, "velocity": 114, "channel": 0}, {"type": "note_on", "time": 20, "note": 72, "velocity": 102, "channel": 0}, {"type": "note_off", "time": 222, "note": 72, "velocity": 102, "channel": 0}, {"type": "note_on", "time": 60, "note": 70, "velocity": 114, "channel": 0}, {"type": "note_off", "time": 242, "note": 70, "velocity": 114, "channel": 0}, {"type": "note_on", "time": 80, "note": 69, "velocity": 108, "channel": 0}, {"type": "note_off", "time": 222, "note": 69, "velocity": 108, "channel": 0}, {"type": "note_on", "time": 121, "note": 68, "velocity": 115, "channel": 0}, {"type": "note_off", "time": 222, "note": 68, "velocity": 115, "channel": 0}, {"type": "note_on", "time": 101, "note": 69, "velocity": 106, "channel": 0}, {"type": "note_off", "time": 242, "note": 69, "velocity": 106, "channel": 0}, {"type": "note_on", "time": 161, "note": 68, "velocity": 112, "channel": 0}, {"type": "note_off", "time": 283, "note": 68, "velocity": 112, "channel": 0}, {"type": "note_on", "time": 40, "note": 69, "velocity": 109, "channel": 0}, {"type": "note_off", "time": 242, "note": 69, "velocity": 109, "channel": 0}, {"type": "note_on", "time": 40, "note": 68, "velocity": 105, "channel": 0}, {"type": "note_off", "time": 161, "note": 68, "velocity": 105, "channel": 0}, {"type": "note_on", "time": 101, "note": 69, "velocity": 109, "channel": 0}, {"type": "note_off", "time": 242, "note": 69, "velocity": 109, "channel": 0}, {"type": "note_on", "time": 60, "note": 68, "velocity": 109, "channel": 0}, {"type": "note_off", "time": 303, "note": 68, "velocity": 109, "channel": 0}, {"type": "note_on", "time": 121, "note": 70, "velocity": 105, "channel": 0}, {"type": "note_off", "time": 283, "note": 70, "velocity": 105, "channel": 0}, {"type": "note_on", "time": 60, "note": 69, "velocity": 109, "channel": 0}, {"type": "note_off", "time": 283, "note": 69, "velocity": 109, "channel": 0}, {"type": "note_on", "time": 141, "note": 70, "velocity": 109, "channel": 0}, {"type": "note_off", "time": 283, "note": 70, "velocity": 109, "channel": 0}, {"type": "note_on", "time": 40, "note": 69, "velocity": 111, "channel": 0}, {"type": "note_off", "time": 343, "note": 69, "velocity": 111, "channel": 0}, {"type": "note_on", "time": 121, "note": 70, "velocity": 112, "channel": 0}, {"type": "note_off", "time": 242, "note": 70, "velocity": 112, "channel": 0}, {"type": "note_on", "time": 60, "note": 67, "velocity": 102, "channel": 0}, {"type": "note_off", "time": 242, "note": 67, "velocity": 102, "channel": 0}, {"type": "note_on", "time": 40, "note": 69, "velocity": 107, "channel": 0}, {"type": "note_off", "time": 262, "note": 69, "velocity": 107, "channel": 0}, {"type": "note_on", "time": 40, "note": 67, "velocity": 104, "channel": 0}, {"type": "note_off", "time": 283, "note": 67, "velocity": 104, "channel": 0}, {"type": "note_on", "time": 101, "note": 69, "velocity": 101, "channel": 0}, {"type": "note_off", "time": 323, "note": 69, "velocity": 101, "channel": 0}, {"type": "note_on", "time": 20, "note": 67, "velocity": 102, "channel": 0}, {"type": "note_off", "time": 323, "note": 67, "velocity": 102, "channel": 0}, {"type": "note_on", "time": 60, "note": 69, "velocity": 103, "channel": 0}, {"type": "note_off", "time": 161, "note": 69, "velocity": 103, "channel": 0}, {"type": "note_on", "time": 80, "note": 67, "velocity": 102, "channel": 0}, {"type": "note_off", "time": 323, "note": 67, "velocity": 102, "channel": 0}, {"type": "note_on", "time": 101, "note": 65, "velocity": 111, "channel": 0}, {"type": "note_off", "time": 283, "note": 65, "velocity": 111, "channel": 0}, {"type": "note_on", "time": 60, "note": 66, "velocity": 105, "channel": 0}, {"type": "note_off", "time": 283, "note": 66, "velocity": 105, "channel": 0}, {"type": "note_on", "time": 40, "note": 65, "velocity": 102, "channel": 0}, {"type": "note_off", "time": 404, "note": 65, "velocity": 102, "channel": 0}, {"type": "note_on", "time": 40, "note": 64, "velocity": 97, "channel": 0}, {"type": "note_off", "time": 161, "note": 64, "velocity": 97, "channel": 0}, {"type": "note_on", "time": 80, "note": 65, "velocity": 90, "channel": 0}, {"type": "note_off", "time": 161, "note": 65, "velocity": 90, "channel": 0}, {"type": "note_on", "time": 60, "note": 64, "velocity": 102, "channel": 0}, {"type": "note_off", "time": 303, "note": 64, "velocity": 102, "channel": 0}, {"type": "note_on", "time": 80, "note": 65, "velocity": 101, "channel": 0}, {"type": "note_off", "time": 262, "note": 65, "velocity": 101, "channel": 0}, {"type": "note_on", "time": 80, "note": 64, "velocity": 97, "channel": 0}, {"type": "note_off", "time": 283, "note": 64, "velocity": 97, "channel": 0}, {"type": "note_on", "time": 60, "note": 65, "velocity": 105, "channel": 0}, {"type": "note_off", "time": 323, "note": 65, "velocity": 105, "channel": 0}, {"type": "note_on", "time": 60, "note": 64, "velocity": 102, "channel": 0}, {"type": "note_off", "time": 303, "note": 64, "velocity": 102, "channel": 0}, {"type": "note_on", "time": 40, "note": 65, "velocity": 104, "channel": 0}, {"type": "note_off", "time": 323, "note": 65, "velocity": 104, "channel": 0}, {"type": "note_on", "time": 101, "note": 64, "velocity": 103, "channel": 0}, {"type": "note_off", "time": 222, "note": 64, "velocity": 103, "channel": 0}, {"type": "note_on", "time": 60, "note": 65, "velocity": 103, "channel": 0}, {"type": "note_off", "time": 364, "note": 65, "velocity": 103, "channel": 0}, {"type": "note_on", "time": 80, "note": 64, "velocity": 102, "channel": 0}, {"type": "note_off", "time": 242, "note": 64, "velocity": 102, "channel": 0}, {"type": "note_on", "time": 20, "note": 65, "velocity": 99, "channel": 0}, {"type": "note_off", "time": 283, "note": 65, "velocity": 99, "channel": 0}, {"type": "note_on", "time": 20, "note": 64, "velocity": 96, "channel": 0}, {"type": "note_off", "time": 283, "note": 64, "velocity": 96, "channel": 0}, {"type": "note_on", "time": 10097, "note": 81, "velocity": 121, "channel": 0}, {"type": "note_off", "time": 992, "note": 81, "velocity": 121, "channel": 0}, {"type": "note_on", "time": 1208, "note": 82, "velocity": 118, "channel": 0}, {"type": "note_off", "time": 1467, "note": 82, "velocity": 118, "channel": 0}, {"type": "note_on", "time": 43, "note": 81, "velocity": 121, "channel": 0}, {"type": "note_off", "time": 1021, "note": 81, "velocity": 121, "channel": 0}, {"type": "note_on", "time": 14, "note": 77, "velocity": 121, "channel": 0}, {"type": "note_off", "time": 1323, "note": 77, "velocity": 121, "channel": 0}, {"type": "note_on", "time": 43, "note": 72, "velocity": 113, "channel": 0}, {"type": "note_off", "time": 575, "note": 72, "velocity": 113, "channel": 0}, {"type": "note_on", "time": 13248, "note": 77, "velocity": 119, "channel": 0}, {"type": "note_off", "time": 2618, "note": 77, "velocity": 119, "channel": 0}, {"type": "note_on", "time": 43, "note": 79, "velocity": 117, "channel": 0}, {"type": "note_off", "time": 503, "note": 79, "velocity": 117, "channel": 0}, {"type": "note_on", "time": 1021, "note": 77, "velocity": 9, "channel": 0}, {"type": "note_off", "time": 2157, "note": 77, "velocity": 9, "channel": 0}, {"type": "note_on", "time": 230, "note": 77, "velocity": 105, "channel": 0}, {"type": "note_off", "time": 632, "note": 77, "velocity": 105, "channel": 0}, {"type": "note_on", "time": 690, "note": 77, "velocity": 118, "channel": 0}, {"type": "note_off", "time": 3466, "note": 77, "velocity": 118, "channel": 0}, {"type": "note_on", "time": 13924, "note": 83, "velocity": 114, "channel": 0}, {"type": "note_off", "time": 359, "note": 83, "velocity": 114, "channel": 0}, {"type": "note_on", "time": 86, "note": 90, "velocity": 119, "channel": 0}, {"type": "note_off", "time": 1726, "note": 90, "velocity": 119, "channel": 0}, {"type": "note_on", "time": 28, "note": 89, "velocity": 117, "channel": 0}, {"type": "note_off", "time": 1884, "note": 89, "velocity": 117, "channel": 0}, {"type": "note_on", "time": 57, "note": 88, "velocity": 105, "channel": 0}, {"type": "note_off", "time": 561, "note": 88, "velocity": 105, "channel": 0}, {"type": "note_on", "time": 460, "note": 85, "velocity": 100, "channel": 0}, {"type": "note_off", "time": 647, "note": 85, "velocity": 100, "channel": 0}, {"type": "note_on", "time": 43, "note": 83, "velocity": 115, "channel": 0}, {"type": "note_off", "time": 647, "note": 83, "velocity": 115, "channel": 0}, {"type": "note_on", "time": 71, "note": 82, "velocity": 112, "channel": 0}, {"type": "note_off", "time": 561, "note": 82, "velocity": 112, "channel": 0}, {"type": "note_on", "time": 43, "note": 80, "velocity": 114, "channel": 0}, {"type": "note_off", "time": 489, "note": 80, "velocity": 114, "channel": 0}, {"type": "note_on", "time": 258, "note": 77, "velocity": 119, "channel": 0}, {"type": "note_off", "time": 546, "note": 77, "velocity": 119, "channel": 0}, {"type": "note_on", "time": 100, "note": 77, "velocity": 118, "channel": 0}, {"type": "note_off", "time": 589, "note": 77, "velocity": 118, "channel": 0}, {"type": "note_on", "time": 57, "note": 76, "velocity": 119, "channel": 0}, {"type": "note_off", "time": 546, "note": 76, "velocity": 119, "channel": 0}, {"type": "note_on", "time": 28, "note": 75, "velocity": 119, "channel": 0}, {"type": "note_off", "time": 575, "note": 75, "velocity": 119, "channel": 0}, {"type": "note_on", "time": 28, "note": 74, "velocity": 118, "channel": 0}, {"type": "note_off", "time": 676, "note": 74, "velocity": 118, "channel": 0}, {"type": "note_on", "time": 28, "note": 72, "velocity": 121, "channel": 0}, {"type": "note_off", "time": 431, "note": 72, "velocity": 121, "channel": 0}, {"type": "note_on", "time": 14, "note": 71, "velocity": 117, "channel": 0}, {"type": "note_off", "time": 431, "note": 71, "velocity": 117, "channel": 0}, {"type": "note_on", "time": 43, "note": 70, "velocity": 112, "channel": 0}, {"type": "note_off", "time": 561, "note": 70, "velocity": 112, "channel": 0}, {"type": "note_on", "time": 43, "note": 69, "velocity": 117, "channel": 0}, {"type": "note_off", "time": 632, "note": 69, "velocity": 117, "channel": 0}, {"type": "note_on", "time": 43, "note": 68, "velocity": 116, "channel": 0}, {"type": "note_off", "time": 546, "note": 68, "velocity": 116, "channel": 0}, {"type": "note_on", "time": 86, "note": 67, "velocity": 115, "channel": 0}, {"type": "note_off", "time": 618, "note": 67, "velocity": 115, "channel": 0}, {"type": "note_on", "time": 43, "note": 68, "velocity": 102, "channel": 0}, {"type": "note_off", "time": 474, "note": 68, "velocity": 102, "channel": 0}, {"type": "note_on", "time": 115, "note": 65, "velocity": 118, "channel": 0}, {"type": "note_off", "time": 517, "note": 65, "velocity": 118, "channel": 0}, {"type": "note_on", "time": 57, "note": 64, "velocity": 110, "channel": 0}, {"type": "note_off", "time": 604, "note": 64, "velocity": 110, "channel": 0}, {"type": "note_on", "time": 71, "note": 65, "velocity": 116, "channel": 0}, {"type": "note_off", "time": 532, "note": 65, "velocity": 116, "channel": 0}, {"type": "note_on", "time": 43, "note": 66, "velocity": 113, "channel": 0}, {"type": "note_off", "time": 719, "note": 66, "velocity": 113, "channel": 0}, {"type": "note_on", "time": 14, "note": 65, "velocity": 113, "channel": 0}, {"type": "note_off", "time": 445, "note": 65, "velocity": 113, "channel": 0}, {"type": "note_on", "time": 71, "note": 66, "velocity": 109, "channel": 0}, {"type": "note_off", "time": 834, "note": 66, "velocity": 109, "channel": 0}, {"type": "note_on", "time": 28, "note": 65, "velocity": 110, "channel": 0}, {"type": "note_off", "time": 374, "note": 65, "velocity": 110, "channel": 0}, {"type": "note_on", "time": 14, "note": 66, "velocity": 112, "channel": 0}, {"type": "note_off", "time": 863, "note": 66, "velocity": 112, "channel": 0}, {"type": "note_on", "time": 57, "note": 65, "velocity": 113, "channel": 0}, {"type": "note_off", "time": 374, "note": 65, "velocity": 113, "channel": 0}, {"type": "note_on", "time": 71, "note": 66, "velocity": 116, "channel": 0}, {"type": "note_off", "time": 704, "note": 66, "velocity": 116, "channel": 0}, {"type": "note_on", "time": 28, "note": 65, "velocity": 114, "channel": 0}, {"type": "note_off", "time": 431, "note": 65, "velocity": 114, "channel": 0}, {"type": "note_on", "time": 71, "note": 66, "velocity": 113, "channel": 0}, {"type": "note_off", "time": 546, "note": 66, "velocity": 113, "channel": 0}, {"type": "note_on", "time": 14, "note": 68, "velocity": 117, "channel": 0}, {"type": "note_off", "time": 676, "note": 68, "velocity": 117, "channel": 0}, {"type": "note_on", "time": 57, "note": 70, "velocity": 114, "channel": 0}, {"type": "note_off", "time": 618, "note": 70, "velocity": 114, "channel": 0}, {"type": "note_on", "time": 43, "note": 67, "velocity": 104, "channel": 0}, {"type": "note_off", "time": 517, "note": 67, "velocity": 104, "channel": 0}, {"type": "note_on", "time": 43, "note": 68, "velocity": 114, "channel": 0}, {"type": "note_off", "time": 891, "note": 68, "velocity": 114, "channel": 0}, {"type": "note_on", "time": 43, "note": 66, "velocity": 98, "channel": 0}, {"type": "note_off", "time": 244, "note": 66, "velocity": 98, "channel": 0}, {"type": "note_on", "time": 43, "note": 68, "velocity": 107, "channel": 0}, {"type": "note_off", "time": 848, "note": 68, "velocity": 107, "channel": 0}, {"type": "note_on", "time": 43, "note": 66, "velocity": 97, "channel": 0}, {"type": "note_off", "time": 258, "note": 66, "velocity": 97, "channel": 0}, {"type": "note_on", "time": 28, "note": 68, "velocity": 113, "channel": 0}, {"type": "note_off", "time": 676, "note": 68, "velocity": 113, "channel": 0}, {"type": "note_on", "time": 14, "note": 70, "velocity": 116, "channel": 0}, {"type": "note_off", "time": 489, "note": 70, "velocity": 116, "channel": 0}, {"type": "note_on", "time": 28, "note": 71, "velocity": 116, "channel": 0}, {"type": "note_off", "time": 618, "note": 71, "velocity": 116, "channel": 0}, {"type": "note_on", "time": 57, "note": 71, "velocity": 117, "channel": 0}, {"type": "note_off", "time": 661, "note": 71, "velocity": 117, "channel": 0}, {"type": "note_on", "time": 71, "note": 71, "velocity": 118, "channel": 0}, {"type": "note_off", "time": 647, "note": 71, "velocity": 118, "channel": 0}, {"type": "note_on", "time": 158, "note": 71, "velocity": 102, "channel": 0}, {"type": "note_off", "time": 374, "note": 71, "velocity": 102, "channel": 0}, {"type": "note_on", "time": 57, "note": 72, "velocity": 120, "channel": 0}, {"type": "note_off", "time": 589, "note": 72, "velocity": 120, "channel": 0}, {"type": "note_on", "time": 43, "note": 71, "velocity": 111, "channel": 0}, {"type": "note_off", "time": 532, "note": 71, "velocity": 111, "channel": 0}, {"type": "note_on", "time": 100, "note": 72, "velocity": 117, "channel": 0}, {"type": "note_off", "time": 604, "note": 72, "velocity": 117, "channel": 0}, {"type": "note_on", "time": 43, "note": 71, "velocity": 120, "channel": 0}, {"type": "note_off", "time": 431, "note": 71, "velocity": 120, "channel": 0}, {"type": "note_on", "time": 100, "note": 72, "velocity": 121, "channel": 0}, {"type": "note_off", "time": 561, "note": 72, "velocity": 121, "channel": 0}, {"type": "note_on", "time": 71, "note": 71, "velocity": 118, "channel": 0}, {"type": "note_off", "time": 575, "note": 71, "velocity": 118, "channel": 0}, {"type": "note_on", "time": 57, "note": 70, "velocity": 118, "channel": 0}, {"type": "note_off", "time": 503, "note": 70, "velocity": 118, "channel": 0}, {"type": "note_on", "time": 14, "note": 69, "velocity": 111, "channel": 0}, {"type": "note_off", "time": 632, "note": 69, "velocity": 111, "channel": 0}, {"type": "note_on", "time": 28, "note": 68, "velocity": 108, "channel": 0}, {"type": "note_off", "time": 517, "note": 68, "velocity": 108, "channel": 0}, {"type": "note_on", "time": 57, "note": 70, "velocity": 114, "channel": 0}, {"type": "note_off", "time": 460, "note": 70, "velocity": 114, "channel": 0}, {"type": "note_on", "time": 86, "note": 71, "velocity": 116, "channel": 0}, {"type": "note_off", "time": 661, "note": 71, "velocity": 116, "channel": 0}, {"type": "note_on", "time": 57, "note": 70, "velocity": 112, "channel": 0}, {"type": "note_off", "time": 417, "note": 70, "velocity": 112, "channel": 0}, {"type": "note_on", "time": 43, "note": 71, "velocity": 119, "channel": 0}, {"type": "note_off", "time": 704, "note": 71, "velocity": 119, "channel": 0}, {"type": "note_on", "time": 28, "note": 70, "velocity": 106, "channel": 0}, {"type": "note_off", "time": 460, "note": 70, "velocity": 106, "channel": 0}, {"type": "note_on", "time": 43, "note": 71, "velocity": 114, "channel": 0}, {"type": "note_off", "time": 791, "note": 71, "velocity": 114, "channel": 0}, {"type": "note_on", "time": 71, "note": 69, "velocity": 94, "channel": 0}, {"type": "note_off", "time": 474, "note": 69, "velocity": 94, "channel": 0}, {"type": "note_on", "time": 0, "note": 72, "velocity": 113, "channel": 0}, {"type": "note_off", "time": 690, "note": 72, "velocity": 113, "channel": 0}, {"type": "note_on", "time": 28, "note": 69, "velocity": 96, "channel": 0}, {"type": "note_off", "time": 388, "note": 69, "velocity": 96, "channel": 0}, {"type": "note_on", "time": 100, "note": 72, "velocity": 113, "channel": 0}, {"type": "note_off", "time": 604, "note": 72, "velocity": 113, "channel": 0}, {"type": "note_on", "time": 100, "note": 69, "velocity": 101, "channel": 0}, {"type": "note_off", "time": 460, "note": 69, "velocity": 101, "channel": 0}, {"type": "note_on", "time": 388, "note": 74, "velocity": 109, "channel": 0}, {"type": "note_off", "time": 402, "note": 74, "velocity": 109, "channel": 0}, {"type": "note_on", "time": 57, "note": 75, "velocity": 116, "channel": 0}, {"type": "note_off", "time": 575, "note": 75, "velocity": 116, "channel": 0}, {"type": "note_on", "time": 57, "note": 76, "velocity": 119, "channel": 0}, {"type": "note_off", "time": 791, "note": 76, "velocity": 119, "channel": 0}, {"type": "note_on", "time": 100, "note": 77, "velocity": 117, "channel": 0}, {"type": "note_off", "time": 230, "note": 77, "velocity": 117, "channel": 0}, {"type": "note_on", "time": 71, "note": 78, "velocity": 117, "channel": 0}, {"type": "note_off", "time": 2301, "note": 78, "velocity": 117, "channel": 0}, {"type": "note_on", "time": 0, "note": 77, "velocity": 117, "channel": 0}, {"type": "note_off", "time": 230, "note": 77, "velocity": 117, "channel": 0}, {"type": "note_on", "time": 43, "note": 76, "velocity": 120, "channel": 0}, {"type": "note_off", "time": 517, "note": 76, "velocity": 120, "channel": 0}, {"type": "note_on", "time": 28, "note": 75, "velocity": 108, "channel": 0}, {"type": "note_off", "time": 287, "note": 75, "velocity": 108, "channel": 0}, {"type": "note_on", "time": 43, "note": 74, "velocity": 118, "channel": 0}, {"type": "note_off", "time": 402, "note": 74, "velocity": 118, "channel": 0}, {"type": "note_on", "time": 43, "note": 72, "velocity": 118, "channel": 0}, {"type": "note_off", "time": 374, "note": 72, "velocity": 118, "channel": 0}, {"type": "note_on", "time": 28, "note": 71, "velocity": 114, "channel": 0}, {"type": "note_off", "time": 158, "note": 71, "velocity": 114, "channel": 0}, {"type": "note_on", "time": 57, "note": 70, "velocity": 111, "channel": 0}, {"type": "note_off", "time": 431, "note": 70, "velocity": 111, "channel": 0}, {"type": "note_on", "time": 71, "note": 71, "velocity": 106, "channel": 0}, {"type": "note_off", "time": 388, "note": 71, "velocity": 106, "channel": 0}, {"type": "note_on", "time": 57, "note": 68, "velocity": 115, "channel": 0}, {"type": "note_off", "time": 589, "note": 68, "velocity": 115, "channel": 0}, {"type": "note_on", "time": 43, "note": 67, "velocity": 113, "channel": 0}, {"type": "note_off", "time": 273, "note": 67, "velocity": 113, "channel": 0}, {"type": "note_on", "time": 28, "note": 68, "velocity": 113, "channel": 0}, {"type": "note_off", "time": 661, "note": 68, "velocity": 113, "channel": 0}, {"type": "note_on", "time": 0, "note": 67, "velocity": 104, "channel": 0}, {"type": "note_off", "time": 273, "note": 67, "velocity": 104, "channel": 0}, {"type": "note_on", "time": 132, "note": 68, "velocity": 106, "channel": 0}, {"type": "note_off", "time": 748, "note": 68, "velocity": 106, "channel": 0}, {"type": "note_on", "time": 859, "note": 70, "velocity": 116, "channel": 0}, {"type": "note_off", "time": 877, "note": 70, "velocity": 116, "channel": 0}, {"type": "note_on", "time": 129, "note": 71, "velocity": 115, "channel": 0}, {"type": "note_off", "time": 1107, "note": 71, "velocity": 115, "channel": 0}, {"type": "note_on", "time": 57, "note": 71, "velocity": 114, "channel": 0}, {"type": "note_off", "time": 1179, "note": 71, "velocity": 114, "channel": 0}, {"type": "note_on", "time": 158, "note": 68, "velocity": 117, "channel": 0}, {"type": "note_off", "time": 345, "note": 68, "velocity": 117, "channel": 0}, {"type": "note_on", "time": 43, "note": 69, "velocity": 101, "channel": 0}, {"type": "note_on", "time": 762, "note": 65, "velocity": 107, "channel": 0}, {"type": "note_off", "time": 0, "note": 69, "velocity": 101, "channel": 0}, {"type": "note_off", "time": 1150, "note": 65, "velocity": 107, "channel": 0}, {"type": "note_on", "time": 201, "note": 65, "velocity": 100, "channel": 0}, {"type": "note_off", "time": 1136, "note": 65, "velocity": 100, "channel": 0}, {"type": "note_on", "time": 115, "note": 65, "velocity": 108, "channel": 0}, {"type": "note_off", "time": 863, "note": 65, "velocity": 108, "channel": 0}, {"type": "note_on", "time": 4157, "note": 77, "velocity": 116, "channel": 0}, {"type": "note_off", "time": 1323, "note": 77, "velocity": 116, "channel": 0}, {"type": "note_on", "time": 43, "note": 79, "velocity": 116, "channel": 0}, {"type": "note_off", "time": 589, "note": 79, "velocity": 116, "channel": 0}, {"type": "note_on", "time": 129, "note": 81, "velocity": 105, "channel": 0}, {"type": "note_off", "time": 834, "note": 81, "velocity": 105, "channel": 0}, {"type": "note_on", "time": 4703, "note": 75, "velocity": 114, "channel": 0}, {"type": "note_off", "time": 273, "note": 75, "velocity": 114, "channel": 0}, {"type": "note_on", "time": 43, "note": 77, "velocity": 115, "channel": 0}, {"type": "note_off", "time": 330, "note": 77, "velocity": 115, "channel": 0}, {"type": "note_on", "time": 28, "note": 75, "velocity": 113, "channel": 0}, {"type": "note_off", "time": 287, "note": 75, "velocity": 113, "channel": 0}, {"type": "note_on", "time": 28, "note": 77, "velocity": 113, "channel": 0}, {"type": "note_off", "time": 316, "note": 77, "velocity": 113, "channel": 0}, {"type": "note_on", "time": 5034, "note": 70, "velocity": 107, "channel": 0}, {"type": "note_off", "time": 374, "note": 70, "velocity": 107, "channel": 0}, {"type": "note_on", "time": 1826, "note": 71, "velocity": 113, "channel": 0}, {"type": "note_off", "time": 805, "note": 71, "velocity": 113, "channel": 0}, {"type": "note_on", "time": 57, "note": 70, "velocity": 115, "channel": 0}, {"type": "note_off", "time": 4056, "note": 70, "velocity": 115, "channel": 0}, {"type": "note_on", "time": 28, "note": 71, "velocity": 116, "channel": 0}, {"type": "note_off", "time": 1467, "note": 71, "velocity": 116, "channel": 0}, {"type": "note_on", "time": 28, "note": 70, "velocity": 117, "channel": 0}, {"type": "note_off", "time": 4430, "note": 70, "velocity": 117, "channel": 0}, {"type": "note_on", "time": 0, "note": 71, "velocity": 116, "channel": 0}, {"type": "note_off", "time": 690, "note": 71, "velocity": 116, "channel": 0}, {"type": "note_on", "time": 86, "note": 65, "velocity": 115, "channel": 0}, {"type": "note_off", "time": 3624, "note": 65, "velocity": 115, "channel": 0}, {"type": "note_on", "time": 316, "note": 65, "velocity": 112, "channel": 0}, {"type": "note_off", "time": 3366, "note": 65, "velocity": 112, "channel": 0}, {"type": "note_on", "time": 377, "note": 65, "velocity": 108, "channel": 0}, {"type": "note_off", "time": 10963, "note": 65, "velocity": 108, "channel": 0}, {"type": "note_on", "time": 7934, "note": 65, "velocity": 101, "channel": 0}, {"type": "note_off", "time": 374, "note": 65, "velocity": 101, "channel": 0}, {"type": "note_on", "time": 115, "note": 66, "velocity": 108, "channel": 0}, {"type": "note_off", "time": 546, "note": 66, "velocity": 108, "channel": 0}, {"type": "note_on", "time": 0, "note": 68, "velocity": 116, "channel": 0}, {"type": "note_off", "time": 632, "note": 68, "velocity": 116, "channel": 0}, {"type": "note_on", "time": 86, "note": 70, "velocity": 125, "channel": 0}, {"type": "note_off", "time": 632, "note": 70, "velocity": 125, "channel": 0}, {"type": "note_on", "time": 0, "note": 71, "velocity": 122, "channel": 0}, {"type": "note_off", "time": 546, "note": 71, "velocity": 122, "channel": 0}, {"type": "note_on", "time": 86, "note": 73, "velocity": 121, "channel": 0}, {"type": "note_off", "time": 546, "note": 73, "velocity": 121, "channel": 0}, {"type": "note_on", "time": 57, "note": 71, "velocity": 121, "channel": 0}, {"type": "note_off", "time": 1754, "note": 71, "velocity": 121, "channel": 0}, {"type": "note_on", "time": 115, "note": 68, "velocity": 117, "channel": 0}, {"type": "note_off", "time": 1754, "note": 68, "velocity": 117, "channel": 0}, {"type": "note_on", "time": 6415, "note": 72, "velocity": 105, "channel": 0}, {"type": "note_off", "time": 258, "note": 72, "velocity": 105, "channel": 0}, {"type": "note_on", "time": 28, "note": 75, "velocity": 120, "channel": 0}, {"type": "note_off", "time": 1150, "note": 75, "velocity": 120, "channel": 0}, {"type": "note_on", "time": 1064, "note": 79, "velocity": 122, "channel": 0}, {"type": "note_off", "time": 1524, "note": 79, "velocity": 122, "channel": 0}, {"type": "note_on", "time": 86, "note": 80, "velocity": 121, "channel": 0}, {"type": "note_off", "time": 978, "note": 80, "velocity": 121, "channel": 0}, {"type": "note_on", "time": 57, "note": 79, "velocity": 121, "channel": 0}, {"type": "note_off", "time": 1237, "note": 79, "velocity": 121, "channel": 0}, {"type": "note_on", "time": 57, "note": 75, "velocity": 118, "channel": 0}, {"type": "note_off", "time": 805, "note": 75, "velocity": 118, "channel": 0}, {"type": "note_on", "time": 10615, "note": 79, "velocity": 121, "channel": 0}, {"type": "note_off", "time": 26065, "note": 79, "velocity": 121, "channel": 0}, {"type": "note_on", "time": 345, "note": 75, "velocity": 114, "channel": 0}, {"type": "note_off", "time": 15247, "note": 75, "velocity": 114, "channel": 0}, {"type": "note_on", "time": 5656, "note": 79, "velocity": 124, "channel": 0}, {"type": "note_off", "time": 1496, "note": 79, "velocity": 124, "channel": 0}, {"type": "note_on", "time": 525, "note": 84, "velocity": 89, "channel": 0}, {"type": "note_off", "time": 647, "note": 84, "velocity": 89, "channel": 0}, {"type": "note_on", "time": 15954, "note": 79, "velocity": 97, "channel": 0}, {"type": "note_off", "time": 517, "note": 79, "velocity": 97, "channel": 0}, {"type": "note_on", "time": 575, "note": 78, "velocity": 122, "channel": 0}, {"type": "note_off", "time": 517, "note": 78, "velocity": 122, "channel": 0}, {"type": "note_on", "time": 172, "note": 77, "velocity": 124, "channel": 0}, {"type": "note_off", "time": 3337, "note": 77, "velocity": 124, "channel": 0}, {"type": "note_on", "time": 230, "note": 77, "velocity": 127, "channel": 0}, {"type": "note_off", "time": 3337, "note": 77, "velocity": 127, "channel": 0}, {"type": "note_on", "time": 172, "note": 77, "velocity": 125, "channel": 0}, {"type": "note_off", "time": 3452, "note": 77, "velocity": 125, "channel": 0}, {"type": "note_on", "time": 115, "note": 76, "velocity": 122, "channel": 0}, {"type": "note_off", "time": 3682, "note": 76, "velocity": 122, "channel": 0}, {"type": "note_on", "time": 57, "note": 77, "velocity": 120, "channel": 0}, {"type": "note_off", "time": 1051, "note": 77, "velocity": 120, "channel": 0}, {"type": "note_on", "time": 41, "note": 76, "velocity": 117, "channel": 0}, {"type": "note_off", "time": 978, "note": 76, "velocity": 117, "channel": 0}, {"type": "note_on", "time": 230, "note": 77, "velocity": 120, "channel": 0}, {"type": "note_off", "time": 575, "note": 77, "velocity": 120, "channel": 0}, {"type": "note_on", "time": 8026, "note": 75, "velocity": 106, "channel": 0}, {"type": "note_off", "time": 517, "note": 75, "velocity": 106, "channel": 0}, {"type": "note_on", "time": 776, "note": 71, "velocity": 104, "channel": 0}, {"type": "note_off", "time": 172, "note": 71, "velocity": 104, "channel": 0}, {"type": "note_on", "time": 57, "note": 72, "velocity": 123, "channel": 0}, {"type": "note_off", "time": 1150, "note": 72, "velocity": 123, "channel": 0}, {"type": "note_on", "time": 86, "note": 68, "velocity": 100, "channel": 0}, {"type": "note_off", "time": 258, "note": 68, "velocity": 100, "channel": 0}, {"type": "note_on", "time": 86, "note": 69, "velocity": 115, "channel": 0}, {"type": "note_off", "time": 690, "note": 69, "velocity": 115, "channel": 0}, {"type": "note_on", "time": 5178, "note": 70, "velocity": 105, "channel": 0}, {"type": "note_off", "time": 517, "note": 70, "velocity": 105, "channel": 0}, {"type": "note_on", "time": 517, "note": 71, "velocity": 105, "channel": 0}, {"type": "note_off", "time": 489, "note": 71, "velocity": 105, "channel": 0}, {"type": "note_on", "time": 575, "note": 72, "velocity": 126, "channel": 0}, {"type": "note_off", "time": 1352, "note": 72, "velocity": 126, "channel": 0}, {"type": "note_on", "time": 28, "note": 69, "velocity": 123, "channel": 0}, {"type": "note_off", "time": 891, "note": 69, "velocity": 123, "channel": 0}, {"type": "note_on", "time": 316, "note": 65, "velocity": 119, "channel": 0}, {"type": "note_off", "time": 1064, "note": 65, "velocity": 119, "channel": 0}, {"type": "note_on", "time": 143, "note": 65, "velocity": 113, "channel": 0}, {"type": "note_off", "time": 1093, "note": 65, "velocity": 113, "channel": 0}, {"type": "note_on", "time": 172, "note": 65, "velocity": 116, "channel": 0}, {"type": "note_off", "time": 1323, "note": 65, "velocity": 116, "channel": 0}, {"type": "note_on", "time": 143, "note": 63, "velocity": 106, "channel": 0}, {"type": "note_off", "time": 1812, "note": 63, "velocity": 106, "channel": 0}, {"type": "note_on", "time": 13996, "note": 83, "velocity": 86, "channel": 0}, {"type": "note_off", "time": 834, "note": 83, "velocity": 86, "channel": 0}, {"type": "note_on", "time": 129, "note": 89, "velocity": 108, "channel": 0}, {"type": "note_off", "time": 661, "note": 89, "velocity": 108, "channel": 0}, {"type": "note_on", "time": 4977, "note": 79, "velocity": 118, "channel": 0}, {"type": "note_off", "time": 748, "note": 79, "velocity": 118, "channel": 0}, {"type": "note_on", "time": 115, "note": 84, "velocity": 78, "channel": 0}, {"type": "note_off", "time": 431, "note": 84, "velocity": 78, "channel": 0}, {"type": "note_on", "time": 6847, "note": 77, "velocity": 105, "channel": 0}, {"type": "note_off", "time": 604, "note": 77, "velocity": 105, "channel": 0}, {"type": "note_on", "time": 661, "note": 74, "velocity": 110, "channel": 0}, {"type": "note_off", "time": 489, "note": 74, "velocity": 110, "channel": 0}, {"type": "note_on", "time": 690, "note": 72, "velocity": 118, "channel": 0}, {"type": "note_off", "time": 1352, "note": 72, "velocity": 118, "channel": 0}, {"type": "note_on", "time": 57, "note": 68, "velocity": 113, "channel": 0}, {"type": "note_off", "time": 1179, "note": 68, "velocity": 113, "channel": 0}, {"type": "note_on", "time": 86, "note": 65, "velocity": 115, "channel": 0}, {"type": "note_off", "time": 1093, "note": 65, "velocity": 115, "channel": 0}, {"type": "note_on", "time": 287, "note": 65, "velocity": 113, "channel": 0}, {"type": "note_off", "time": 891, "note": 65, "velocity": 113, "channel": 0}, {"type": "note_on", "time": 201, "note": 65, "velocity": 111, "channel": 0}, {"type": "note_off", "time": 3481, "note": 65, "velocity": 111, "channel": 0}, {"type": "note_on", "time": 13626, "note": 68, "velocity": 115, "channel": 0}, {"type": "note_off", "time": 546, "note": 68, "velocity": 115, "channel": 0}, {"type": "note_on", "time": 97, "note": 67, "velocity": 104, "channel": 0}, {"type": "note_off", "time": 431, "note": 67, "velocity": 104, "channel": 0}, {"type": "note_on", "time": 37, "note": 68, "velocity": 118, "channel": 0}, {"type": "note_off", "time": 970, "note": 68, "velocity": 118, "channel": 0}, {"type": "note_on", "time": 55, "note": 67, "velocity": 113, "channel": 0}, {"type": "note_off", "time": 445, "note": 67, "velocity": 113, "channel": 0}, {"type": "note_on", "time": 24, "note": 68, "velocity": 116, "channel": 0}, {"type": "note_off", "time": 627, "note": 68, "velocity": 116, "channel": 0}, {"type": "note_on", "time": 39, "note": 67, "velocity": 106, "channel": 0}, {"type": "note_off", "time": 460, "note": 67, "velocity": 106, "channel": 0}, {"type": "note_on", "time": 57, "note": 68, "velocity": 116, "channel": 0}, {"type": "note_off", "time": 589, "note": 68, "velocity": 116, "channel": 0}, {"type": "note_on", "time": 14, "note": 70, "velocity": 114, "channel": 0}, {"type": "note_off", "time": 546, "note": 70, "velocity": 114, "channel": 0}, {"type": "note_on", "time": 43, "note": 71, "velocity": 115, "channel": 0}, {"type": "note_off", "time": 546, "note": 71, "velocity": 115, "channel": 0}, {"type": "note_on", "time": 28, "note": 72, "velocity": 118, "channel": 0}, {"type": "note_off", "time": 647, "note": 72, "velocity": 118, "channel": 0}, {"type": "note_on", "time": 28, "note": 71, "velocity": 118, "channel": 0}, {"type": "note_off", "time": 474, "note": 71, "velocity": 118, "channel": 0}, {"type": "note_on", "time": 43, "note": 72, "velocity": 120, "channel": 0}, {"type": "note_off", "time": 661, "note": 72, "velocity": 120, "channel": 0}, {"type": "note_on", "time": 14, "note": 71, "velocity": 116, "channel": 0}, {"type": "note_off", "time": 503, "note": 71, "velocity": 116, "channel": 0}, {"type": "note_on", "time": 57, "note": 72, "velocity": 120, "channel": 0}, {"type": "note_off", "time": 604, "note": 72, "velocity": 120, "channel": 0}, {"type": "note_on", "time": 0, "note": 73, "velocity": 118, "channel": 0}, {"type": "note_off", "time": 719, "note": 73, "velocity": 118, "channel": 0}, {"type": "note_on", "time": 28, "note": 71, "velocity": 120, "channel": 0}, {"type": "note_off", "time": 604, "note": 71, "velocity": 120, "channel": 0}, {"type": "note_on", "time": 43, "note": 72, "velocity": 119, "channel": 0}, {"type": "note_off", "time": 546, "note": 72, "velocity": 119, "channel": 0}, {"type": "note_on", "time": 14, "note": 71, "velocity": 119, "channel": 0}, {"type": "note_off", "time": 532, "note": 71, "velocity": 119, "channel": 0}, {"type": "note_on", "time": 43, "note": 70, "velocity": 116, "channel": 0}, {"type": "note_off", "time": 618, "note": 70, "velocity": 116, "channel": 0}, {"type": "note_on", "time": 14, "note": 69, "velocity": 118, "channel": 0}, {"type": "note_off", "time": 561, "note": 69, "velocity": 118, "channel": 0}, {"type": "note_on", "time": 14, "note": 68, "velocity": 114, "channel": 0}, {"type": "note_off", "time": 604, "note": 68, "velocity": 114, "channel": 0}, {"type": "note_on", "time": 28, "note": 67, "velocity": 110, "channel": 0}, {"type": "note_off", "time": 258, "note": 67, "velocity": 110, "channel": 0}, {"type": "note_on", "time": 43, "note": 68, "velocity": 96, "channel": 0}, {"type": "note_off", "time": 647, "note": 68, "velocity": 96, "channel": 0}, {"type": "note_on", "time": 86, "note": 66, "velocity": 109, "channel": 0}, {"type": "note_off", "time": 431, "note": 66, "velocity": 109, "channel": 0}, {"type": "note_on", "time": 43, "note": 65, "velocity": 108, "channel": 0}, {"type": "note_off", "time": 517, "note": 65, "velocity": 108, "channel": 0}, {"type": "note_on", "time": 28, "note": 66, "velocity": 113, "channel": 0}, {"type": "note_off", "time": 575, "note": 66, "velocity": 113, "channel": 0}, {"type": "note_on", "time": 28, "note": 65, "velocity": 114, "channel": 0}, {"type": "note_off", "time": 517, "note": 65, "velocity": 114, "channel": 0}, {"type": "note_on", "time": 71, "note": 67, "velocity": 115, "channel": 0}, {"type": "note_off", "time": 719, "note": 67, "velocity": 115, "channel": 0}, {"type": "note_on", "time": 129, "note": 64, "velocity": 96, "channel": 0}, {"type": "note_off", "time": 316, "note": 64, "velocity": 96, "channel": 0}, {"type": "note_on", "time": 43, "note": 68, "velocity": 116, "channel": 0}, {"type": "note_off", "time": 661, "note": 68, "velocity": 116, "channel": 0}, {"type": "note_on", "time": 57, "note": 65, "velocity": 99, "channel": 0}, {"type": "note_off", "time": 546, "note": 65, "velocity": 99, "channel": 0}, {"type": "note_on", "time": 115, "note": 69, "velocity": 115, "channel": 0}, {"type": "note_on", "time": 704, "note": 70, "velocity": 112, "channel": 0}, {"type": "note_off", "time": 0, "note": 69, "velocity": 115, "channel": 0}, {"type": "note_off", "time": 460, "note": 70, "velocity": 112, "channel": 0}, {"type": "note_on", "time": 28, "note": 71, "velocity": 113, "channel": 0}, {"type": "note_off", "time": 561, "note": 71, "velocity": 113, "channel": 0}, {"type": "note_on", "time": 86, "note": 72, "velocity": 116, "channel": 0}, {"type": "note_off", "time": 546, "note": 72, "velocity": 116, "channel": 0}, {"type": "note_on", "time": 187, "note": 73, "velocity": 107, "channel": 0}, {"type": "note_off", "time": 273, "note": 73, "velocity": 107, "channel": 0}, {"type": "note_on", "time": 57, "note": 74, "velocity": 118, "channel": 0}, {"type": "note_off", "time": 503, "note": 74, "velocity": 118, "channel": 0}, {"type": "note_on", "time": 43, "note": 75, "velocity": 116, "channel": 0}, {"type": "note_off", "time": 676, "note": 75, "velocity": 116, "channel": 0}, {"type": "note_on", "time": 57, "note": 76, "velocity": 121, "channel": 0}, {"type": "note_off", "time": 402, "note": 76, "velocity": 121, "channel": 0}, {"type": "note_on", "time": 71, "note": 77, "velocity": 119, "channel": 0}, {"type": "note_off", "time": 604, "note": 77, "velocity": 119, "channel": 0}, {"type": "note_on", "time": 86, "note": 78, "velocity": 121, "channel": 0}, {"type": "note_off", "time": 604, "note": 78, "velocity": 121, "channel": 0}, {"type": "note_on", "time": 28, "note": 77, "velocity": 120, "channel": 0}, {"type": "note_off", "time": 575, "note": 77, "velocity": 120, "channel": 0}, {"type": "note_on", "time": 57, "note": 76, "velocity": 117, "channel": 0}, {"type": "note_off", "time": 575, "note": 76, "velocity": 117, "channel": 0}, {"type": "note_on", "time": 43, "note": 75, "velocity": 117, "channel": 0}, {"type": "note_off", "time": 618, "note": 75, "velocity": 117, "channel": 0}, {"type": "note_on", "time": 14, "note": 73, "velocity": 117, "channel": 0}, {"type": "note_off", "time": 589, "note": 73, "velocity": 117, "channel": 0}, {"type": "note_on", "time": 28, "note": 72, "velocity": 117, "channel": 0}, {"type": "note_off", "time": 489, "note": 72, "velocity": 117, "channel": 0}, {"type": "note_on", "time": 86, "note": 71, "velocity": 115, "channel": 0}, {"type": "note_off", "time": 647, "note": 71, "velocity": 115, "channel": 0}, {"type": "note_on", "time": 28, "note": 70, "velocity": 114, "channel": 0}, {"type": "note_off", "time": 489, "note": 70, "velocity": 114, "channel": 0}, {"type": "note_on", "time": 43, "note": 69, "velocity": 116, "channel": 0}, {"type": "note_off", "time": 618, "note": 69, "velocity": 116, "channel": 0}, {"type": "note_on", "time": 28, "note": 68, "velocity": 114, "channel": 0}, {"type": "note_off", "time": 589, "note": 68, "velocity": 114, "channel": 0}, {"type": "note_on", "time": 43, "note": 67, "velocity": 113, "channel": 0}, {"type": "note_off", "time": 532, "note": 67, "velocity": 113, "channel": 0}, {"type": "note_on", "time": 28, "note": 65, "velocity": 114, "channel": 0}, {"type": "note_off", "time": 690, "note": 65, "velocity": 114, "channel": 0}, {"type": "note_on", "time": 28, "note": 64, "velocity": 111, "channel": 0}, {"type": "note_off", "time": 517, "note": 64, "velocity": 111, "channel": 0}, {"type": "note_on", "time": 71, "note": 63, "velocity": 99, "channel": 0}, {"type": "note_off", "time": 517, "note": 63, "velocity": 99, "channel": 0}, {"type": "note_on", "time": 115, "note": 61, "velocity": 107, "channel": 0}, {"type": "note_off", "time": 575, "note": 61, "velocity": 107, "channel": 0}, {"type": "note_on", "time": 43, "note": 60, "velocity": 100, "channel": 0}, {"type": "note_off", "time": 532, "note": 60, "velocity": 100, "channel": 0}, {"type": "note_on", "time": 187, "note": 57, "velocity": 100, "channel": 0}, {"type": "note_off", "time": 172, "note": 57, "velocity": 100, "channel": 0}, {"type": "note_on", "time": 86, "note": 57, "velocity": 112, "channel": 0}, {"type": "note_off", "time": 287, "note": 57, "velocity": 112, "channel": 0}, {"type": "note_on", "time": 28, "note": 58, "velocity": 107, "channel": 0}, {"type": "note_off", "time": 561, "note": 58, "velocity": 107, "channel": 0}, {"type": "note_on", "time": 129, "note": 55, "velocity": 109, "channel": 0}, {"type": "note_off", "time": 187, "note": 55, "velocity": 109, "channel": 0}, {"type": "note_on", "time": 57, "note": 55, "velocity": 108, "channel": 0}, {"type": "note_off", "time": 287, "note": 55, "velocity": 108, "channel": 0}, {"type": "note_on", "time": 57, "note": 56, "velocity": 107, "channel": 0}, {"type": "note_off", "time": 661, "note": 56, "velocity": 107, "channel": 0}, {"type": "note_on", "time": 1165, "note": 64, "velocity": 108, "channel": 0}, {"type": "note_off", "time": 676, "note": 64, "velocity": 108, "channel": 0}, {"type": "note_on", "time": 57, "note": 65, "velocity": 104, "channel": 0}, {"type": "note_off", "time": 3581, "note": 65, "velocity": 104, "channel": 0}, {"type": "note_on", "time": 5264, "note": 76, "velocity": 118, "channel": 0}, {"type": "note_off", "time": 1438, "note": 76, "velocity": 118, "channel": 0}, {"type": "note_on", "time": 43, "note": 77, "velocity": 115, "channel": 0}, {"type": "note_off", "time": 3279, "note": 77, "velocity": 115, "channel": 0}, {"type": "note_on", "time": 2805, "note": 75, "velocity": 115, "channel": 0}, {"type": "note_off", "time": 1409, "note": 75, "velocity": 115, "channel": 0}, {"type": "note_on", "time": 14, "note": 72, "velocity": 116, "channel": 0}, {"type": "note_off", "time": 2373, "note": 72, "velocity": 116, "channel": 0}, {"type": "note_on", "time": 1289, "note": 67, "velocity": 111, "channel": 0}, {"type": "note_off", "time": 1335, "note": 67, "velocity": 111, "channel": 0}, {"type": "note_on", "time": 65, "note": 68, "velocity": 118, "channel": 0}, {"type": "note_off", "time": 1611, "note": 68, "velocity": 118, "channel": 0}, {"type": "note_on", "time": 14, "note": 69, "velocity": 107, "channel": 0}, {"type": "note_off", "time": 2948, "note": 69, "velocity": 107, "channel": 0}, {"type": "note_on", "time": 3955, "note": 69, "velocity": 112, "channel": 0}, {"type": "note_off", "time": 1280, "note": 69, "velocity": 112, "channel": 0}, {"type": "note_on", "time": 43, "note": 70, "velocity": 119, "channel": 0}, {"type": "note_off", "time": 1467, "note": 70, "velocity": 119, "channel": 0}, {"type": "note_on", "time": 86, "note": 71, "velocity": 111, "channel": 0}, {"type": "note_off", "time": 2114, "note": 71, "velocity": 111, "channel": 0}, {"type": "note_on", "time": 431, "note": 68, "velocity": 112, "channel": 0}, {"type": "note_off", "time": 819, "note": 68, "velocity": 112, "channel": 0}, {"type": "note_on", "time": 115, "note": 68, "velocity": 119, "channel": 0}, {"type": "note_off", "time": 733, "note": 68, "velocity": 119, "channel": 0}, {"type": "note_on", "time": 86, "note": 69, "velocity": 115, "channel": 0}, {"type": "note_off", "time": 2819, "note": 69, "velocity": 115, "channel": 0}, {"type": "note_on", "time": 280, "note": 65, "velocity": 112, "channel": 0}, {"type": "note_off", "time": 5866, "note": 65, "velocity": 112, "channel": 0}, {"type": "note_on", "time": 4167, "note": 76, "velocity": 119, "channel": 0}, {"type": "note_off", "time": 1132, "note": 76, "velocity": 119, "channel": 0}, {"type": "note_on", "time": 101, "note": 77, "velocity": 124, "channel": 0}, {"type": "note_off", "time": 1132, "note": 77, "velocity": 124, "channel": 0}, {"type": "note_on", "time": 141, "note": 75, "velocity": 119, "channel": 0}, {"type": "note_off", "time": 364, "note": 75, "velocity": 119, "channel": 0}, {"type": "note_on", "time": 40, "note": 74, "velocity": 119, "channel": 0}, {"type": "note_off", "time": 222, "note": 74, "velocity": 119, "channel": 0}, {"type": "note_on", "time": 121, "note": 75, "velocity": 118, "channel": 0}, {"type": "note_off", "time": 1618, "note": 75, "velocity": 118, "channel": 0}, {"type": "note_on", "time": 60, "note": 71, "velocity": 121, "channel": 0}, {"type": "note_off", "time": 1254, "note": 71, "velocity": 121, "channel": 0}, {"type": "note_on", "time": 80, "note": 72, "velocity": 121, "channel": 0}, {"type": "note_off", "time": 4065, "note": 72, "velocity": 121, "channel": 0}, {"type": "note_on", "time": 101, "note": 70, "velocity": 119, "channel": 0}, {"type": "note_off", "time": 1051, "note": 70, "velocity": 119, "channel": 0}, {"type": "note_on", "time": 202, "note": 71, "velocity": 112, "channel": 0}, {"type": "note_off", "time": 4551, "note": 71, "velocity": 112, "channel": 0}, {"type": "note_on", "time": 4086, "note": 72, "velocity": 108, "channel": 0}, {"type": "note_off", "time": 343, "note": 72, "velocity": 108, "channel": 0}, {"type": "note_on", "time": 829, "note": 73, "velocity": 97, "channel": 0}, {"type": "note_off", "time": 586, "note": 73, "velocity": 97, "channel": 0}, {"type": "note_on", "time": 606, "note": 74, "velocity": 123, "channel": 0}, {"type": "note_off", "time": 1355, "note": 74, "velocity": 123, "channel": 0}, {"type": "note_on", "time": 60, "note": 75, "velocity": 124, "channel": 0}, {"type": "note_off", "time": 1031, "note": 75, "velocity": 124, "channel": 0}, {"type": "note_on", "time": 60, "note": 76, "velocity": 121, "channel": 0}, {"type": "note_off", "time": 1254, "note": 76, "velocity": 121, "channel": 0}, {"type": "note_on", "time": 202, "note": 77, "velocity": 124, "channel": 0}, {"type": "note_off", "time": 525, "note": 77, "velocity": 124, "channel": 0}, {"type": "note_on", "time": 566, "note": 81, "velocity": 124, "channel": 0}, {"type": "note_off", "time": 1294, "note": 81, "velocity": 124, "channel": 0}, {"type": "note_on", "time": 40, "note": 79, "velocity": 119, "channel": 0}, {"type": "note_off", "time": 364, "note": 79, "velocity": 119, "channel": 0}, {"type": "note_on", "time": 9871, "note": 77, "velocity": 88, "channel": 0}, {"type": "note_off", "time": 525, "note": 77, "velocity": 88, "channel": 0}, {"type": "note_on", "time": 505, "note": 77, "velocity": 121, "channel": 0}, {"type": "note_off", "time": 2569, "note": 77, "velocity": 121, "channel": 0}, {"type": "note_on", "time": 20, "note": 75, "velocity": 113, "channel": 0}, {"type": "note_off", "time": 647, "note": 75, "velocity": 113, "channel": 0}, {"type": "note_on", "time": 728, "note": 72, "velocity": 115, "channel": 0}, {"type": "note_off", "time": 465, "note": 72, "velocity": 115, "channel": 0}, {"type": "note_on", "time": 627, "note": 67, "velocity": 116, "channel": 0}, {"type": "note_off", "time": 364, "note": 67, "velocity": 116, "channel": 0}, {"type": "note_on", "time": 121, "note": 68, "velocity": 117, "channel": 0}, {"type": "note_off", "time": 2022, "note": 68, "velocity": 117, "channel": 0}, {"type": "note_on", "time": 80, "note": 65, "velocity": 105, "channel": 0}, {"type": "note_off", "time": 505, "note": 65, "velocity": 105, "channel": 0}, {"type": "note_on", "time": 788, "note": 68, "velocity": 120, "channel": 0}, {"type": "note_off", "time": 910, "note": 68, "velocity": 120, "channel": 0}, {"type": "note_on", "time": 161, "note": 69, "velocity": 110, "channel": 0}, {"type": "note_off", "time": 1719, "note": 69, "velocity": 110, "channel": 0}, {"type": "note_on", "time": 60, "note": 68, "velocity": 111, "channel": 0}, {"type": "note_off", "time": 687, "note": 68, "velocity": 111, "channel": 0}, {"type": "note_on", "time": 141, "note": 69, "velocity": 120, "channel": 0}, {"type": "note_off", "time": 2204, "note": 69, "velocity": 120, "channel": 0}, {"type": "note_on", "time": 80, "note": 68, "velocity": 108, "channel": 0}, {"type": "note_off", "time": 1416, "note": 68, "velocity": 108, "channel": 0}, {"type": "note_on", "time": 141, "note": 69, "velocity": 117, "channel": 0}, {"type": "note_off", "time": 505, "note": 69, "velocity": 117, "channel": 0}, {"type": "note_on", "time": 60, "note": 68, "velocity": 121, "channel": 0}, {"type": "note_off", "time": 1294, "note": 68, "velocity": 121, "channel": 0}, {"type": "note_on", "time": 80, "note": 69, "velocity": 121, "channel": 0}, {"type": "note_off", "time": 566, "note": 69, "velocity": 121, "channel": 0}, {"type": "note_on", "time": 60, "note": 68, "velocity": 102, "channel": 0}, {"type": "note_off", "time": 869, "note": 68, "velocity": 102, "channel": 0}, {"type": "note_on", "time": 182, "note": 69, "velocity": 121, "channel": 0}, {"type": "note_off", "time": 1011, "note": 69, "velocity": 121, "channel": 0}, {"type": "note_on", "time": 40, "note": 68, "velocity": 118, "channel": 0}, {"type": "note_off", "time": 1193, "note": 68, "velocity": 118, "channel": 0}, {"type": "note_on", "time": 121, "note": 68, "velocity": 98, "channel": 0}, {"type": "note_off", "time": 1193, "note": 68, "velocity": 98, "channel": 0}, {"type": "note_on", "time": 141, "note": 69, "velocity": 120, "channel": 0}, {"type": "note_off", "time": 445, "note": 69, "velocity": 120, "channel": 0}, {"type": "note_on", "time": 60, "note": 68, "velocity": 111, "channel": 0}, {"type": "note_off", "time": 546, "note": 68, "velocity": 111, "channel": 0}, {"type": "note_on", "time": 121, "note": 69, "velocity": 111, "channel": 0}, {"type": "note_off", "time": 1314, "note": 69, "velocity": 111, "channel": 0}, {"type": "note_on", "time": 101, "note": 68, "velocity": 102, "channel": 0}, {"type": "note_off", "time": 1153, "note": 68, "velocity": 102, "channel": 0}, {"type": "note_on", "time": 101, "note": 69, "velocity": 111, "channel": 0}, {"type": "note_off", "time": 1941, "note": 69, "velocity": 111, "channel": 0}, {"type": "note_on", "time": 80, "note": 68, "velocity": 101, "channel": 0}, {"type": "note_off", "time": 1537, "note": 68, "velocity": 101, "channel": 0}, {"type": "note_on", "time": 80, "note": 69, "velocity": 112, "channel": 0}, {"type": "note_off", "time": 2285, "note": 69, "velocity": 112, "channel": 0}, {"type": "note_on", "time": 202, "note": 68, "velocity": 100, "channel": 0}, {"type": "note_off", "time": 1011, "note": 68, "velocity": 100, "channel": 0}, {"type": "note_on", "time": 161, "note": 69, "velocity": 116, "channel": 0}, {"type": "note_off", "time": 525, "note": 69, "velocity": 116, "channel": 0}, {"type": "note_on", "time": 20, "note": 68, "velocity": 114, "channel": 0}, {"type": "note_off", "time": 849, "note": 68, "velocity": 114, "channel": 0}, {"type": "note_on", "time": 80, "note": 69, "velocity": 113, "channel": 0}, {"type": "note_off", "time": 829, "note": 69, "velocity": 113, "channel": 0}, {"type": "note_on", "time": 121, "note": 68, "velocity": 97, "channel": 0}, {"type": "note_off", "time": 1213, "note": 68, "velocity": 97, "channel": 0}, {"type": "note_on", "time": 242, "note": 69, "velocity": 113, "channel": 0}, {"type": "note_off", "time": 991, "note": 69, "velocity": 113, "channel": 0}, {"type": "note_on", "time": 40, "note": 69, "velocity": 100, "channel": 0}, {"type": "note_off", "time": 647, "note": 69, "velocity": 100, "channel": 0}, {"type": "end_of_track", "time": 0}]]}