{"ticks_per_beat": 192, "tracks": [[{"type": "track_name", "name": "Melody", "time": 0}, {"type": "set_tempo", "tempo": 212765, "time": 0}, {"type": "key_signature", "key": "D", "time": 0}, {"type": "time_signature", "numerator": 4, "denominator": 4, "clocks_per_click": 24, "notated_32nd_notes_per_beat": 8, "time": 0}, {"type": "note_on", "time": 5152, "note": 73, "velocity": 102, "channel": 0}, {"type": "note_off", "time": 125, "note": 73, "velocity": 102, "channel": 0}, {"type": "note_on", "time": 5, "note": 71, "velocity": 104, "channel": 0}, {"type": "note_off", "time": 79, "note": 71, "velocity": 104, "channel": 0}, {"type": "note_on", "time": 7, "note": 73, "velocity": 107, "channel": 0}, {"type": "note_off", "time": 95, "note": 73, "velocity": 107, "channel": 0}, {"type": "note_on", "time": 34, "note": 71, "velocity": 103, "channel": 0}, {"type": "note_off", "time": 68, "note": 71, "velocity": 103, "channel": 0}, {"type": "note_on", "time": 4, "note": 69, "velocity": 114, "channel": 0}, {"type": "note_off", "time": 362, "note": 69, "velocity": 114, "channel": 0}, {"type": "note_on", "time": 2, "note": 66, "velocity": 87, "channel": 0}, {"type": "note_off", "time": 379, "note": 66, "velocity": 87, "channel": 0}, {"type": "note_on", "time": 423, "note": 64, "velocity": 102, "channel": 0}, {"type": "note_off", "time": 83, "note": 64, "velocity": 102, "channel": 0}, {"type": "note_on", "time": 2, "note": 66, "velocity": 100, "channel": 0}, {"type": "note_off", "time": 295, "note": 66, "velocity": 100, "channel": 0}, {"type": "note_on", "time": 2, "note": 61, "velocity": 86, "channel": 0}, {"type": "note_off", "time": 395, "note": 61, "velocity": 86, "channel": 0}, {"type": "note_on", "time": 959, "note": 64, "velocity": 106, "channel": 0}, {"type": "note_off", "time": 121, "note": 64, "velocity": 106, "channel": 0}, {"type": "note_on", "time": 5, "note": 63, "velocity": 104, "channel": 0}, {"type": "note_off", "time": 98, "note": 63, "velocity": 104, "channel": 0}, {"type": "note_on", "time": 2, "note": 65, "velocity": 95, "channel": 0}, {"type": "note_off", "time": 120, "note": 65, "velocity": 95, "channel": 0}, {"type": "note_on", "time": 7, "note": 67, "velocity": 107, "channel": 0}, {"type": "note_off", "time": 119, "note": 67, "velocity": 107, "channel": 0}, {"type": "note_on", "time": 2, "note": 69, "velocity": 104, "channel": 0}, {"type": "note_off", "time": 104, "note": 69, "velocity": 104, "channel": 0}, {"type": "note_on", "time": 910, "note": 67, "velocity": 106, "channel": 0}, {"type": "note_off", "time": 87, "note": 67, "velocity": 106, "channel": 0}, {"type": "note_on", "time": 5, "note": 65, "velocity": 109, "channel": 0}, {"type": "note_off", "time": 91, "note": 65, "velocity": 109, "channel": 0}, {"type": "note_on", "time": 13, "note": 64, "velocity": 93, "channel": 0}, {"type": "note_off", "time": 79, "note": 64, "velocity": 93, "channel": 0}, {"type": "note_on", "time": 0, "note": 67, "velocity": 85, "channel": 0}, {"type": "note_off", "time": 84, "note": 67, "velocity": 85, "channel": 0}, {"type": "note_on", "time": 34, "note": 69, "velocity": 100, "channel": 0}, {"type": "note_off", "time": 71, "note": 69, "velocity": 100, "channel": 0}, {"type": "note_on", "time": 33, "note": 71, "velocity": 99, "channel": 0}, {"type": "note_off", "time": 81, "note": 71, "velocity": 99, "channel": 0}, {"type": "note_on", "time": 18, "note": 74, "velocity": 103, "channel": 0}, {"type": "note_off", "time": 92, "note": 74, "velocity": 103, "channel": 0}, {"type": "note_on", "time": 7, "note": 71, "velocity": 113, "channel": 0}, {"type": "note_off", "time": 111, "note": 71, "velocity": 113, "channel": 0}, {"type": "note_on", "time": 6, "note": 72, "velocity": 95, "channel": 0}, {"type": "note_off", "time": 34, "note": 72, "velocity": 95, "channel": 0}, {"type": "note_on", "time": 2, "note": 74, "velocity": 113, "channel": 0}, {"type": "note_off", "time": 103, "note": 74, "velocity": 113, "channel": 0}, {"type": "note_on", "time": 6, "note": 76, "velocity": 110, "channel": 0}, {"type": "note_off", "time": 103, "note": 76, "velocity": 110, "channel": 0}, {"type": "note_on", "time": 927, "note": 74, "velocity": 110, "channel": 0}, {"type": "note_off", "time": 98, "note": 74, "velocity": 110, "channel": 0}, {"type": "note_on", "time": 7, "note": 75, "velocity": 107, "channel": 0}, {"type": "note_off", "time": 92, "note": 75, "velocity": 107, "channel": 0}, {"type": "note_on", "time": 75, "note": 71, "velocity": 104, "channel": 0}, {"type": "note_off", "time": 99, "note": 71, "velocity": 104, "channel": 0}, {"type": "note_on", "time": 15, "note": 74, "velocity": 117, "channel": 0}, {"type": "note_off", "time": 96, "note": 74, "velocity": 117, "channel": 0}, {"type": "note_on", "time": 2, "note": 72, "velocity": 111, "channel": 0}, {"type": "note_off", "time": 86, "note": 72, "velocity": 111, "channel": 0}, {"type": "note_on", "time": 3, "note": 70, "velocity": 110, "channel": 0}, {"type": "note_off", "time": 72, "note": 70, "velocity": 110, "channel": 0}, {"type": "note_on", "time": 2, "note": 67, "velocity": 98, "channel": 0}, {"type": "note_off", "time": 72, "note": 67, "velocity": 98, "channel": 0}, {"type": "note_on", "time": 2, "note": 68, "velocity": 92, "channel": 0}, {"type": "note_off", "time": 91, "note": 68, "velocity": 92, "channel": 0}, {"type": "note_on", "time": 11, "note": 69, "velocity": 101, "channel": 0}, {"type": "note_off", "time": 96, "note": 69, "velocity": 101, "channel": 0}, {"type": "note_on", "time": 9, "note": 67, "velocity": 106, "channel": 0}, {"type": "note_off", "time": 90, "note": 67, "velocity": 106, "channel": 0}, {"type": "note_on", "time": 6, "note": 63, "velocity": 97, "channel": 0}, {"type": "note_off", "time": 95, "note": 63, "velocity": 97, "channel": 0}, {"type": "note_on", "time": 838, "note": 65, "velocity": 96, "channel": 0}, {"type": "note_off", "time": 89, "note": 65, "velocity": 96, "channel": 0}, {"type": "note_on", "time": 10, "note": 67, "velocity": 105, "channel": 0}, {"type": "note_off", "time": 83, "note": 67, "velocity": 105, "channel": 0}, {"type": "note_on", "time": 7, "note": 69, "velocity": 104, "channel": 0}, {"type": "note_off", "time": 98, "note": 69, "velocity": 104, "channel": 0}, {"type": "note_on", "time": 2, "note": 70, "velocity": 106, "channel": 0}, {"type": "note_off", "time": 67, "note": 70, "velocity": 106, "channel": 0}, {"type": "note_on", "time": 20, "note": 72, "velocity": 120, "channel": 0}, {"type": "note_off", "time": 234, "note": 72, "velocity": 120, "channel": 0}, {"type": "note_on", "time": 14, "note": 70, "velocity": 113, "channel": 0}, {"type": "note_off", "time": 132, "note": 70, "velocity": 113, "channel": 0}, {"type": "note_on", "time": 19, "note": 69, "velocity": 115, "channel": 0}, {"type": "note_off", "time": 265, "note": 69, "velocity": 115, "channel": 0}, {"type": "note_on", "time": 14, "note": 69, "velocity": 108, "channel": 0}, {"type": "note_off", "time": 332, "note": 69, "velocity": 108, "channel": 0}, {"type": "note_on", "time": 295, "note": 60, "velocity": 80, "channel": 0}, {"type": "note_off", "time": 62, "note": 60, "velocity": 80, "channel": 0}, {"type": "note_on", "time": 7, "note": 63, "velocity": 85, "channel": 0}, {"type": "note_off", "time": 73, "note": 63, "velocity": 85, "channel": 0}, {"type": "note_on", "time": 6, "note": 65, "velocity": 97, "channel": 0}, {"type": "note_off", "time": 104, "note": 65, "velocity": 97, "channel": 0}, {"type": "note_on", "time": 1, "note": 67, "velocity": 108, "channel": 0}, {"type": "note_off", "time": 103, "note": 67, "velocity": 108, "channel": 0}, {"type": "note_on", "time": 9, "note": 69, "velocity": 91, "channel": 0}, {"type": "note_off", "time": 56, "note": 69, "velocity": 91, "channel": 0}, {"type": "note_on", "time": 36, "note": 70, "velocity": 101, "channel": 0}, {"type": "note_off", "time": 61, "note": 70, "velocity": 101, "channel": 0}, {"type": "note_on", "time": 26, "note": 72, "velocity": 120, "channel": 0}, {"type": "note_off", "time": 100, "note": 72, "velocity": 120, "channel": 0}, {"type": "note_on", "time": 10, "note": 70, "velocity": 97, "channel": 0}, {"type": "note_off", "time": 66, "note": 70, "velocity": 97, "channel": 0}, {"type": "note_on", "time": 5, "note": 72, "velocity": 109, "channel": 0}, {"type": "note_off", "time": 113, "note": 72, "velocity": 109, "channel": 0}, {"type": "note_on", "time": 1, "note": 70, "velocity": 120, "channel": 0}, {"type": "note_off", "time": 79, "note": 70, "velocity": 120, "channel": 0}, {"type": "note_on", "time": 7, "note": 69, "velocity": 111, "channel": 0}, {"type": "note_off", "time": 96, "note": 69, "velocity": 111, "channel": 0}, {"type": "note_on", "time": 1, "note": 65, "velocity": 108, "channel": 0}, {"type": "note_off", "time": 99, "note": 65, "velocity": 108, "channel": 0}, {"type": "note_on", "time": 1118, "note": 73, "velocity": 115, "channel": 0}, {"type": "note_off", "time": 110, "note": 73, "velocity": 115, "channel": 0}, {"type": "note_on", "time": 8, "note": 71, "velocity": 112, "channel": 0}, {"type": "note_off", "time": 92, "note": 71, "velocity": 112, "channel": 0}, {"type": "note_on", "time": 3, "note": 73, "velocity": 127, "channel": 0}, {"type": "note_off", "time": 250, "note": 73, "velocity": 127, "channel": 0}, {"type": "note_on", "time": 5, "note": 71, "velocity": 119, "channel": 0}, {"type": "note_off", "time": 119, "note": 71, "velocity": 119, "channel": 0}, {"type": "note_on", "time": 4, "note": 69, "velocity": 116, "channel": 0}, {"type": "note_off", "time": 353, "note": 69, "velocity": 116, "channel": 0}, {"type": "note_on", "time": 15, "note": 66, "velocity": 102, "channel": 0}, {"type": "note_off", "time": 314, "note": 66, "velocity": 102, "channel": 0}, {"type": "note_on", "time": 38, "note": 64, "velocity": 102, "channel": 0}, {"type": "note_off", "time": 464, "note": 64, "velocity": 102, "channel": 0}, {"type": "note_on", "time": 3, "note": 66, "velocity": 104, "channel": 0}, {"type": "note_off", "time": 125, "note": 66, "velocity": 104, "channel": 0}, {"type": "note_on", "time": 802, "note": 62, "velocity": 103, "channel": 0}, {"type": "note_off", "time": 92, "note": 62, "velocity": 103, "channel": 0}, {"type": "note_on", "time": 6, "note": 61, "velocity": 100, "channel": 0}, {"type": "note_off", "time": 77, "note": 61, "velocity": 100, "channel": 0}, {"type": "note_on", "time": 0, "note": 62, "velocity": 98, "channel": 0}, {"type": "note_off", "time": 115, "note": 62, "velocity": 98, "channel": 0}, {"type": "note_on", "time": 1, "note": 64, "velocity": 111, "channel": 0}, {"type": "note_off", "time": 81, "note": 64, "velocity": 111, "channel": 0}, {"type": "note_on", "time": 5, "note": 65, "velocity": 112, "channel": 0}, {"type": "note_off", "time": 339, "note": 65, "velocity": 112, "channel": 0}, {"type": "note_on", "time": 3, "note": 67, "velocity": 119, "channel": 0}, {"type": "note_off", "time": 217, "note": 67, "velocity": 119, "channel": 0}, {"type": "note_on", "time": 2, "note": 69, "velocity": 124, "channel": 0}, {"type": "note_off", "time": 218, "note": 69, "velocity": 124, "channel": 0}, {"type": "note_on", "time": 44, "note": 71, "velocity": 119, "channel": 0}, {"type": "note_off", "time": 98, "note": 71, "velocity": 119, "channel": 0}, {"type": "note_on", "time": 5, "note": 72, "velocity": 125, "channel": 0}, {"type": "note_off", "time": 98, "note": 72, "velocity": 125, "channel": 0}, {"type": "note_on", "time": 6, "note": 73, "velocity": 122, "channel": 0}, {"type": "note_off", "time": 70, "note": 73, "velocity": 122, "channel": 0}, {"type": "note_on", "time": 6, "note": 74, "velocity": 121, "channel": 0}, {"type": "note_off", "time": 81, "note": 74, "velocity": 121, "channel": 0}, {"type": "note_on", "time": 1, "note": 76, "velocity": 117, "channel": 0}, {"type": "note_off", "time": 96, "note": 76, "velocity": 117, "channel": 0}, {"type": "note_on", "time": 5, "note": 74, "velocity": 117, "channel": 0}, {"type": "note_off", "time": 103, "note": 74, "velocity": 117, "channel": 0}, {"type": "note_on", "time": 1, "note": 72, "velocity": 119, "channel": 0}, {"type": "note_off", "time": 117, "note": 72, "velocity": 119, "channel": 0}, {"type": "note_on", "time": 3, "note": 71, "velocity": 102, "channel": 0}, {"type": "note_off", "time": 51, "note": 71, "velocity": 102, "channel": 0}, {"type": "note_on", "time": 5, "note": 69, "velocity": 110, "channel": 0}, {"type": "note_off", "time": 82, "note": 69, "velocity": 110, "channel": 0}, {"type": "note_on", "time": 1, "note": 67, "velocity": 107, "channel": 0}, {"type": "note_off", "time": 108, "note": 67, "velocity": 107, "channel": 0}, {"type": "note_on", "time": 17, "note": 66, "velocity": 99, "channel": 0}, {"type": "note_off", "time": 102, "note": 66, "velocity": 99, "channel": 0}, {"type": "note_on", "time": 11, "note": 65, "velocity": 99, "channel": 0}, {"type": "note_off", "time": 92, "note": 65, "velocity": 99, "channel": 0}, {"type": "note_on", "time": 14, "note": 64, "velocity": 103, "channel": 0}, {"type": "note_off", "time": 85, "note": 64, "velocity": 103, "channel": 0}, {"type": "note_on", "time": 654, "note": 64, "velocity": 107, "channel": 0}, {"type": "note_off", "time": 69, "note": 64, "velocity": 107, "channel": 0}, {"type": "note_on", "time": 3, "note": 63, "velocity": 100, "channel": 0}, {"type": "note_off", "time": 77, "note": 63, "velocity": 100, "channel": 0}, {"type": "note_on", "time": 5, "note": 65, "velocity": 101, "channel": 0}, {"type": "note_off", "time": 84, "note": 65, "velocity": 101, "channel": 0}, {"type": "note_on", "time": 7, "note": 67, "velocity": 91, "channel": 0}, {"type": "note_off", "time": 89, "note": 67, "velocity": 91, "channel": 0}, {"type": "note_on", "time": 8, "note": 70, "velocity": 95, "channel": 0}, {"type": "note_off", "time": 41, "note": 70, "velocity": 95, "channel": 0}, {"type": "note_on", "time": 41, "note": 74, "velocity": 100, "channel": 0}, {"type": "note_off", "time": 104, "note": 74, "velocity": 100, "channel": 0}, {"type": "note_on", "time": 7, "note": 75, "velocity": 120, "channel": 0}, {"type": "note_off", "time": 82, "note": 75, "velocity": 120, "channel": 0}, {"type": "note_on", "time": 2, "note": 74, "velocity": 123, "channel": 0}, {"type": "note_off", "time": 95, "note": 74, "velocity": 123, "channel": 0}, {"type": "note_on", "time": 2, "note": 72, "velocity": 123, "channel": 0}, {"type": "note_off", "time": 80, "note": 72, "velocity": 123, "channel": 0}, {"type": "note_on", "time": 7, "note": 71, "velocity": 113, "channel": 0}, {"type": "note_off", "time": 83, "note": 71, "velocity": 113, "channel": 0}, {"type": "note_on", "time": 6, "note": 74, "velocity": 119, "channel": 0}, {"type": "note_off", "time": 94, "note": 74, "velocity": 119, "channel": 0}, {"type": "note_on", "time": 8, "note": 72, "velocity": 119, "channel": 0}, {"type": "note_off", "time": 93, "note": 72, "velocity": 119, "channel": 0}, {"type": "note_on", "time": 8, "note": 70, "velocity": 120, "channel": 0}, {"type": "note_off", "time": 84, "note": 70, "velocity": 120, "channel": 0}, {"type": "note_on", "time": 4, "note": 69, "velocity": 120, "channel": 0}, {"type": "note_off", "time": 92, "note": 69, "velocity": 120, "channel": 0}, {"type": "note_on", "time": 3, "note": 67, "velocity": 119, "channel": 0}, {"type": "note_off", "time": 112, "note": 67, "velocity": 119, "channel": 0}, {"type": "note_on", "time": 8, "note": 66, "velocity": 100, "channel": 0}, {"type": "note_off", "time": 77, "note": 66, "velocity": 100, "channel": 0}, {"type": "note_on", "time": 0, "note": 64, "velocity": 99, "channel": 0}, {"type": "note_off", "time": 85, "note": 64, "velocity": 99, "channel": 0}, {"type": "note_on", "time": 7, "note": 65, "velocity": 104, "channel": 0}, {"type": "note_off", "time": 107, "note": 65, "velocity": 104, "channel": 0}, {"type": "note_on", "time": 10, "note": 60, "velocity": 90, "channel": 0}, {"type": "note_off", "time": 89, "note": 60, "velocity": 90, "channel": 0}, {"type": "note_on", "time": 24, "note": 62, "velocity": 88, "channel": 0}, {"type": "note_off", "time": 57, "note": 62, "velocity": 88, "channel": 0}, {"type": "note_on", "time": 18, "note": 60, "velocity": 75, "channel": 0}, {"type": "note_off", "time": 58, "note": 60, "velocity": 75, "channel": 0}, {"type": "note_on", "time": 5, "note": 65, "velocity": 104, "channel": 0}, {"type": "note_off", "time": 104, "note": 65, "velocity": 104, "channel": 0}, {"type": "note_on", "time": 1, "note": 67, "velocity": 113, "channel": 0}, {"type": "note_off", "time": 104, "note": 67, "velocity": 113, "channel": 0}, {"type": "note_on", "time": 5, "note": 69, "velocity": 96, "channel": 0}, {"type": "note_off", "time": 66, "note": 69, "velocity": 96, "channel": 0}, {"type": "note_on", "time": 7, "note": 70, "velocity": 112, "channel": 0}, {"type": "note_off", "time": 106, "note": 70, "velocity": 112, "channel": 0}, {"type": "note_on", "time": 5, "note": 72, "velocity": 123, "channel": 0}, {"type": "note_off", "time": 268, "note": 72, "velocity": 123, "channel": 0}, {"type": "note_on", "time": 44, "note": 73, "velocity": 106, "channel": 0}, {"type": "note_off", "time": 64, "note": 73, "velocity": 106, "channel": 0}, {"type": "note_on", "time": 5, "note": 72, "velocity": 120, "channel": 0}, {"type": "note_off", "time": 97, "note": 72, "velocity": 120, "channel": 0}, {"type": "note_on", "time": 7, "note": 70, "velocity": 117, "channel": 0}, {"type": "note_off", "time": 114, "note": 70, "velocity": 117, "channel": 0}, {"type": "note_on", "time": 145, "note": 69, "velocity": 125, "channel": 0}, {"type": "note_off", "time": 123, "note": 69, "velocity": 125, "channel": 0}, {"type": "note_on", "time": 23, "note": 69, "velocity": 122, "channel": 0}, {"type": "note_off", "time": 108, "note": 69, "velocity": 122, "channel": 0}, {"type": "note_on", "time": 731, "note": 61, "velocity": 88, "channel": 0}, {"type": "note_off", "time": 97, "note": 61, "velocity": 88, "channel": 0}, {"type": "note_on", "time": 0, "note": 63, "velocity": 86, "channel": 0}, {"type": "note_off", "time": 82, "note": 63, "velocity": 86, "channel": 0}, {"type": "note_on", "time": 5, "note": 65, "velocity": 95, "channel": 0}, {"type": "note_off", "time": 84, "note": 65, "velocity": 95, "channel": 0}, {"type": "note_on", "time": 5, "note": 67, "velocity": 111, "channel": 0}, {"type": "note_off", "time": 112, "note": 67, "velocity": 111, "channel": 0}, {"type": "note_on", "time": 1, "note": 69, "velocity": 100, "channel": 0}, {"type": "note_off", "time": 83, "note": 69, "velocity": 100, "channel": 0}, {"type": "note_on", "time": 9, "note": 70, "velocity": 109, "channel": 0}, {"type": "note_off", "time": 88, "note": 70, "velocity": 109, "channel": 0}, {"type": "note_on", "time": 2, "note": 72, "velocity": 101, "channel": 0}, {"type": "note_off", "time": 106, "note": 72, "velocity": 101, "channel": 0}, {"type": "note_on", "time": 3, "note": 70, "velocity": 92, "channel": 0}, {"type": "note_off", "time": 46, "note": 70, "velocity": 92, "channel": 0}, {"type": "note_on", "time": 5, "note": 72, "velocity": 109, "channel": 0}, {"type": "note_off", "time": 108, "note": 72, "velocity": 109, "channel": 0}, {"type": "note_on", "time": 1, "note": 70, "velocity": 120, "channel": 0}, {"type": "note_off", "time": 94, "note": 70, "velocity": 120, "channel": 0}, {"type": "note_on", "time": 2, "note": 69, "velocity": 119, "channel": 0}, {"type": "note_off", "time": 178, "note": 69, "velocity": 119, "channel": 0}, {"type": "note_on", "time": 1350, "note": 73, "velocity": 118, "channel": 0}, {"type": "note_off", "time": 104, "note": 73, "velocity": 118, "channel": 0}, {"type": "note_on", "time": 0, "note": 76, "velocity": 124, "channel": 0}, {"type": "note_off", "time": 235, "note": 76, "velocity": 124, "channel": 0}, {"type": "note_on", "time": 5, "note": 73, "velocity": 116, "channel": 0}, {"type": "note_off", "time": 398, "note": 73, "velocity": 116, "channel": 0}, {"type": "note_on", "time": 6, "note": 71, "velocity": 109, "channel": 0}, {"type": "note_off", "time": 350, "note": 71, "velocity": 109, "channel": 0}, {"type": "note_on", "time": 5, "note": 69, "velocity": 113, "channel": 0}, {"type": "note_off", "time": 149, "note": 69, "velocity": 113, "channel": 0}, {"type": "note_on", "time": 2, "note": 65, "velocity": 99, "channel": 0}, {"type": "note_off", "time": 585, "note": 65, "velocity": 99, "channel": 0}, {"type": "note_on", "time": 9, "note": 66, "velocity": 106, "channel": 0}, {"type": "note_off", "time": 173, "note": 66, "velocity": 106, "channel": 0}, {"type": "note_on", "time": 973, "note": 62, "velocity": 101, "channel": 0}, {"type": "note_off", "time": 99, "note": 62, "velocity": 101, "channel": 0}, {"type": "note_on", "time": 6, "note": 64, "velocity": 102, "channel": 0}, {"type": "note_off", "time": 60, "note": 64, "velocity": 102, "channel": 0}, {"type": "note_on", "time": 4, "note": 65, "velocity": 105, "channel": 0}, {"type": "note_off", "time": 99, "note": 65, "velocity": 105, "channel": 0}, {"type": "note_on", "time": 3, "note": 67, "velocity": 108, "channel": 0}, {"type": "note_off", "time": 90, "note": 67, "velocity": 108, "channel": 0}, {"type": "note_on", "time": 7, "note": 64, "velocity": 107, "channel": 0}, {"type": "note_off", "time": 111, "note": 64, "velocity": 107, "channel": 0}, {"type": "note_on", "time": 2, "note": 65, "velocity": 98, "channel": 0}, {"type": "note_off", "time": 61, "note": 65, "velocity": 98, "channel": 0}, {"type": "note_on", "time": 6, "note": 62, "velocity": 91, "channel": 0}, {"type": "note_off", "time": 79, "note": 62, "velocity": 91, "channel": 0}, {"type": "note_on", "time": 15, "note": 60, "velocity": 92, "channel": 0}, {"type": "note_off", "time": 92, "note": 60, "velocity": 92, "channel": 0}, {"type": "note_on", "time": 3, "note": 59, "velocity": 91, "channel": 0}, {"type": "note_off", "time": 92, "note": 59, "velocity": 91, "channel": 0}, {"type": "note_on", "time": 19, "note": 63, "velocity": 77, "channel": 0}, {"type": "note_off", "time": 77, "note": 63, "velocity": 77, "channel": 0}, {"type": "note_on", "time": 9, "note": 65, "velocity": 93, "channel": 0}, {"type": "note_off", "time": 87, "note": 65, "velocity": 93, "channel": 0}, {"type": "note_on", "time": 2, "note": 69, "velocity": 119, "channel": 0}, {"type": "note_off", "time": 98, "note": 69, "velocity": 119, "channel": 0}, {"type": "note_on", "time": 5, "note": 67, "velocity": 114, "channel": 0}, {"type": "note_off", "time": 85, "note": 67, "velocity": 114, "channel": 0}, {"type": "note_on", "time": 9, "note": 65, "velocity": 107, "channel": 0}, {"type": "note_off", "time": 104, "note": 65, "velocity": 107, "channel": 0}, {"type": "note_on", "time": 5, "note": 62, "velocity": 85, "channel": 0}, {"type": "note_off", "time": 79, "note": 62, "velocity": 85, "channel": 0}, {"type": "note_on", "time": 5, "note": 63, "velocity": 77, "channel": 0}, {"type": "note_off", "time": 70, "note": 63, "velocity": 77, "channel": 0}, {"type": "note_on", "time": 3, "note": 64, "velocity": 90, "channel": 0}, {"type": "note_off", "time": 77, "note": 64, "velocity": 90, "channel": 0}, {"type": "note_on", "time": 24, "note": 65, "velocity": 92, "channel": 0}, {"type": "note_off", "time": 82, "note": 65, "velocity": 92, "channel": 0}, {"type": "note_on", "time": 5, "note": 67, "velocity": 94, "channel": 0}, {"type": "note_off", "time": 90, "note": 67, "velocity": 94, "channel": 0}, {"type": "note_on", "time": 10, "note": 69, "velocity": 106, "channel": 0}, {"type": "note_off", "time": 98, "note": 69, "velocity": 106, "channel": 0}, {"type": "note_on", "time": 1, "note": 71, "velocity": 93, "channel": 0}, {"type": "note_off", "time": 104, "note": 71, "velocity": 93, "channel": 0}, {"type": "note_on", "time": 3, "note": 72, "velocity": 96, "channel": 0}, {"type": "note_off", "time": 70, "note": 72, "velocity": 96, "channel": 0}, {"type": "note_on", "time": 5, "note": 74, "velocity": 113, "channel": 0}, {"type": "note_off", "time": 106, "note": 74, "velocity": 113, "channel": 0}, {"type": "note_on", "time": 10, "note": 71, "velocity": 100, "channel": 0}, {"type": "note_off", "time": 99, "note": 71, "velocity": 100, "channel": 0}, {"type": "note_on", "time": 1, "note": 72, "velocity": 105, "channel": 0}, {"type": "note_off", "time": 61, "note": 72, "velocity": 105, "channel": 0}, {"type": "note_on", "time": 6, "note": 74, "velocity": 110, "channel": 0}, {"type": "note_off", "time": 58, "note": 74, "velocity": 110, "channel": 0}, {"type": "note_on", "time": 1, "note": 76, "velocity": 116, "channel": 0}, {"type": "note_off", "time": 127, "note": 76, "velocity": 116, "channel": 0}, {"type": "note_on", "time": 136, "note": 75, "velocity": 117, "channel": 0}, {"type": "note_off", "time": 357, "note": 75, "velocity": 117, "channel": 0}, {"type": "note_on", "time": 3, "note": 74, "velocity": 112, "channel": 0}, {"type": "note_off", "time": 259, "note": 74, "velocity": 112, "channel": 0}, {"type": "note_on", "time": 41, "note": 72, "velocity": 117, "channel": 0}, {"type": "note_off", "time": 87, "note": 72, "velocity": 117, "channel": 0}, {"type": "note_on", "time": 1, "note": 71, "velocity": 109, "channel": 0}, {"type": "note_off", "time": 90, "note": 71, "velocity": 109, "channel": 0}, {"type": "note_on", "time": 3, "note": 74, "velocity": 116, "channel": 0}, {"type": "note_off", "time": 98, "note": 74, "velocity": 116, "channel": 0}, {"type": "note_on", "time": 0, "note": 72, "velocity": 112, "channel": 0}, {"type": "note_off", "time": 98, "note": 72, "velocity": 112, "channel": 0}, {"type": "note_on", "time": 3, "note": 70, "velocity": 119, "channel": 0}, {"type": "note_off", "time": 90, "note": 70, "velocity": 119, "channel": 0}, {"type": "note_on", "time": 9, "note": 69, "velocity": 112, "channel": 0}, {"type": "note_off", "time": 87, "note": 69, "velocity": 112, "channel": 0}, {"type": "note_on", "time": 3, "note": 67, "velocity": 105, "channel": 0}, {"type": "note_off", "time": 99, "note": 67, "velocity": 105, "channel": 0}, {"type": "note_on", "time": 1, "note": 63, "velocity": 91, "channel": 0}, {"type": "note_off", "time": 86, "note": 63, "velocity": 91, "channel": 0}, {"type": "note_on", "time": 7, "note": 64, "velocity": 94, "channel": 0}, {"type": "note_off", "time": 77, "note": 64, "velocity": 94, "channel": 0}, {"type": "note_on", "time": 13, "note": 65, "velocity": 108, "channel": 0}, {"type": "note_off", "time": 110, "note": 65, "velocity": 108, "channel": 0}, {"type": "note_on", "time": 295, "note": 62, "velocity": 94, "channel": 0}, {"type": "note_off", "time": 60, "note": 62, "velocity": 94, "channel": 0}, {"type": "note_on", "time": 9, "note": 63, "velocity": 92, "channel": 0}, {"type": "note_off", "time": 83, "note": 63, "velocity": 92, "channel": 0}, {"type": "note_on", "time": 2, "note": 65, "velocity": 102, "channel": 0}, {"type": "note_off", "time": 100, "note": 65, "velocity": 102, "channel": 0}, {"type": "note_on", "time": 3, "note": 67, "velocity": 110, "channel": 0}, {"type": "note_off", "time": 100, "note": 67, "velocity": 110, "channel": 0}, {"type": "note_on", "time": 5, "note": 69, "velocity": 100, "channel": 0}, {"type": "note_off", "time": 74, "note": 69, "velocity": 100, "channel": 0}, {"type": "note_on", "time": 17, "note": 70, "velocity": 102, "channel": 0}, {"type": "note_off", "time": 108, "note": 70, "velocity": 102, "channel": 0}, {"type": "note_on", "time": 3, "note": 72, "velocity": 109, "channel": 0}, {"type": "note_off", "time": 81, "note": 72, "velocity": 109, "channel": 0}, {"type": "note_on", "time": 2, "note": 70, "velocity": 108, "channel": 0}, {"type": "note_off", "time": 88, "note": 70, "velocity": 108, "channel": 0}, {"type": "note_on", "time": 6, "note": 72, "velocity": 109, "channel": 0}, {"type": "note_off", "time": 112, "note": 72, "velocity": 109, "channel": 0}, {"type": "note_on", "time": 1, "note": 70, "velocity": 119, "channel": 0}, {"type": "note_off", "time": 228, "note": 70, "velocity": 119, "channel": 0}, {"type": "note_on", "time": 7, "note": 69, "velocity": 114, "channel": 0}, {"type": "note_off", "time": 231, "note": 69, "velocity": 114, "channel": 0}, {"type": "note_on", "time": 2, "note": 69, "velocity": 115, "channel": 0}, {"type": "note_off", "time": 162, "note": 69, "velocity": 115, "channel": 0}, {"type": "note_on", "time": 18, "note": 69, "velocity": 115, "channel": 0}, {"type": "note_off", "time": 132, "note": 69, "velocity": 115, "channel": 0}, {"type": "note_on", "time": 627, "note": 69, "velocity": 112, "channel": 0}, {"type": "note_off", "time": 84, "note": 69, "velocity": 112, "channel": 0}, {"type": "note_on", "time": 6, "note": 70, "velocity": 116, "channel": 0}, {"type": "note_off", "time": 82, "note": 70, "velocity": 116, "channel": 0}, {"type": "note_on", "time": 2, "note": 72, "velocity": 107, "channel": 0}, {"type": "note_off", "time": 102, "note": 72, "velocity": 107, "channel": 0}, {"type": "note_on", "time": 3, "note": 70, "velocity": 114, "channel": 0}, {"type": "note_off", "time": 73, "note": 70, "velocity": 114, "channel": 0}, {"type": "note_on", "time": 2, "note": 69, "velocity": 119, "channel": 0}, {"type": "note_off", "time": 107, "note": 69, "velocity": 119, "channel": 0}, {"type": "note_on", "time": 2, "note": 67, "velocity": 102, "channel": 0}, {"type": "note_off", "time": 116, "note": 67, "velocity": 102, "channel": 0}, {"type": "note_on", "time": 5, "note": 66, "velocity": 96, "channel": 0}, {"type": "note_off", "time": 55, "note": 66, "velocity": 96, "channel": 0}, {"type": "note_on", "time": 8, "note": 64, "velocity": 96, "channel": 0}, {"type": "note_off", "time": 112, "note": 64, "velocity": 96, "channel": 0}, {"type": "note_on", "time": 3, "note": 65, "velocity": 111, "channel": 0}, {"type": "note_off", "time": 93, "note": 65, "velocity": 111, "channel": 0}, {"type": "note_on", "time": 9, "note": 62, "velocity": 101, "channel": 0}, {"type": "note_off", "time": 119, "note": 62, "velocity": 101, "channel": 0}, {"type": "note_on", "time": 694, "note": 57, "velocity": 95, "channel": 0}, {"type": "note_off", "time": 69, "note": 57, "velocity": 95, "channel": 0}, {"type": "note_on", "time": 11, "note": 58, "velocity": 101, "channel": 0}, {"type": "note_off", "time": 65, "note": 58, "velocity": 101, "channel": 0}, {"type": "note_on", "time": 20, "note": 61, "velocity": 102, "channel": 0}, {"type": "note_off", "time": 74, "note": 61, "velocity": 102, "channel": 0}, {"type": "note_on", "time": 31, "note": 62, "velocity": 104, "channel": 0}, {"type": "note_off", "time": 77, "note": 62, "velocity": 104, "channel": 0}, {"type": "note_on", "time": 7, "note": 64, "velocity": 112, "channel": 0}, {"type": "note_off", "time": 92, "note": 64, "velocity": 112, "channel": 0}, {"type": "note_on", "time": 7, "note": 65, "velocity": 112, "channel": 0}, {"type": "note_off", "time": 107, "note": 65, "velocity": 112, "channel": 0}, {"type": "note_on", "time": 8, "note": 67, "velocity": 111, "channel": 0}, {"type": "note_off", "time": 80, "note": 67, "velocity": 111, "channel": 0}, {"type": "note_on", "time": 8, "note": 68, "velocity": 116, "channel": 0}, {"type": "note_off", "time": 71, "note": 68, "velocity": 116, "channel": 0}, {"type": "note_on", "time": 6, "note": 69, "velocity": 122, "channel": 0}, {"type": "note_off", "time": 146, "note": 69, "velocity": 122, "channel": 0}, {"type": "note_on", "time": 2, "note": 71, "velocity": 124, "channel": 0}, {"type": "note_off", "time": 238, "note": 71, "velocity": 124, "channel": 0}, {"type": "note_on", "time": 3, "note": 73, "velocity": 117, "channel": 0}, {"type": "note_off", "time": 380, "note": 73, "velocity": 117, "channel": 0}, {"type": "note_on", "time": 5, "note": 71, "velocity": 115, "channel": 0}, {"type": "note_off", "time": 105, "note": 71, "velocity": 115, "channel": 0}, {"type": "note_on", "time": 7, "note": 73, "velocity": 117, "channel": 0}, {"type": "note_off", "time": 110, "note": 73, "velocity": 117, "channel": 0}, {"type": "note_on", "time": 2, "note": 69, "velocity": 121, "channel": 0}, {"type": "note_off", "time": 134, "note": 69, "velocity": 121, "channel": 0}, {"type": "note_on", "time": 0, "note": 66, "velocity": 99, "channel": 0}, {"type": "note_off", "time": 274, "note": 66, "velocity": 99, "channel": 0}, {"type": "note_on", "time": 4, "note": 64, "velocity": 105, "channel": 0}, {"type": "note_off", "time": 355, "note": 64, "velocity": 105, "channel": 0}, {"type": "note_on", "time": 14, "note": 66, "velocity": 106, "channel": 0}, {"type": "note_off", "time": 112, "note": 66, "velocity": 106, "channel": 0}, {"type": "note_on", "time": 948, "note": 73, "velocity": 122, "channel": 0}, {"type": "note_off", "time": 82, "note": 73, "velocity": 122, "channel": 0}, {"type": "note_on", "time": 7, "note": 74, "velocity": 114, "channel": 0}, {"type": "note_off", "time": 88, "note": 74, "velocity": 114, "channel": 0}, {"type": "note_on", "time": 5, "note": 76, "velocity": 110, "channel": 0}, {"type": "note_off", "time": 90, "note": 76, "velocity": 110, "channel": 0}, {"type": "note_on", "time": 1, "note": 74, "velocity": 120, "channel": 0}, {"type": "note_off", "time": 97, "note": 74, "velocity": 120, "channel": 0}, {"type": "note_on", "time": 18, "note": 72, "velocity": 125, "channel": 0}, {"type": "note_off", "time": 95, "note": 72, "velocity": 125, "channel": 0}, {"type": "note_on", "time": 11, "note": 71, "velocity": 105, "channel": 0}, {"type": "note_off", "time": 55, "note": 71, "velocity": 105, "channel": 0}, {"type": "note_on", "time": 3, "note": 69, "velocity": 114, "channel": 0}, {"type": "note_off", "time": 84, "note": 69, "velocity": 114, "channel": 0}, {"type": "note_on", "time": 3, "note": 67, "velocity": 113, "channel": 0}, {"type": "note_off", "time": 95, "note": 67, "velocity": 113, "channel": 0}, {"type": "note_on", "time": 5, "note": 65, "velocity": 113, "channel": 0}, {"type": "note_off", "time": 84, "note": 65, "velocity": 113, "channel": 0}, {"type": "note_on", "time": 12, "note": 64, "velocity": 104, "channel": 0}, {"type": "note_off", "time": 75, "note": 64, "velocity": 104, "channel": 0}, {"type": "note_on", "time": 5, "note": 67, "velocity": 96, "channel": 0}, {"type": "note_off", "time": 81, "note": 67, "velocity": 96, "channel": 0}, {"type": "note_on", "time": 5, "note": 69, "velocity": 101, "channel": 0}, {"type": "note_off", "time": 95, "note": 69, "velocity": 101, "channel": 0}, {"type": "note_on", "time": 3, "note": 71, "velocity": 106, "channel": 0}, {"type": "note_off", "time": 99, "note": 71, "velocity": 106, "channel": 0}, {"type": "note_on", "time": 0, "note": 74, "velocity": 119, "channel": 0}, {"type": "note_off", "time": 112, "note": 74, "velocity": 119, "channel": 0}, {"type": "note_on", "time": 7, "note": 71, "velocity": 117, "channel": 0}, {"type": "note_off", "time": 97, "note": 71, "velocity": 117, "channel": 0}, {"type": "note_on", "time": 1, "note": 72, "velocity": 103, "channel": 0}, {"type": "note_off", "time": 64, "note": 72, "velocity": 103, "channel": 0}, {"type": "note_on", "time": 1, "note": 74, "velocity": 114, "channel": 0}, {"type": "note_off", "time": 93, "note": 74, "velocity": 114, "channel": 0}, {"type": "note_on", "time": 3, "note": 76, "velocity": 115, "channel": 0}, {"type": "note_off", "time": 85, "note": 76, "velocity": 115, "channel": 0}, {"type": "note_on", "time": 0, "note": 79, "velocity": 108, "channel": 0}, {"type": "note_off", "time": 48, "note": 79, "velocity": 108, "channel": 0}, {"type": "note_on", "time": 3, "note": 77, "velocity": 106, "channel": 0}, {"type": "note_off", "time": 55, "note": 77, "velocity": 106, "channel": 0}, {"type": "note_on", "time": 7, "note": 77, "velocity": 114, "channel": 0}, {"type": "note_off", "time": 133, "note": 77, "velocity": 114, "channel": 0}, {"type": "note_on", "time": 738, "note": 78, "velocity": 112, "channel": 0}, {"type": "note_off", "time": 47, "note": 78, "velocity": 112, "channel": 0}, {"type": "note_on", "time": 1, "note": 76, "velocity": 116, "channel": 0}, {"type": "note_off", "time": 53, "note": 76, "velocity": 116, "channel": 0}, {"type": "note_on", "time": 6, "note": 75, "velocity": 120, "channel": 0}, {"type": "note_off", "time": 128, "note": 75, "velocity": 120, "channel": 0}, {"type": "note_on", "time": 159, "note": 74, "velocity": 119, "channel": 0}, {"type": "note_off", "time": 79, "note": 74, "velocity": 119, "channel": 0}, {"type": "note_on", "time": 1, "note": 72, "velocity": 118, "channel": 0}, {"type": "note_off", "time": 129, "note": 72, "velocity": 118, "channel": 0}, {"type": "note_on", "time": 260, "note": 71, "velocity": 113, "channel": 0}, {"type": "note_off", "time": 92, "note": 71, "velocity": 113, "channel": 0}, {"type": "note_on", "time": 5, "note": 74, "velocity": 117, "channel": 0}, {"type": "note_off", "time": 83, "note": 74, "velocity": 117, "channel": 0}, {"type": "note_on", "time": 5, "note": 72, "velocity": 108, "channel": 0}, {"type": "note_off", "time": 89, "note": 72, "velocity": 108, "channel": 0}, {"type": "note_on", "time": 4, "note": 70, "velocity": 121, "channel": 0}, {"type": "note_off", "time": 83, "note": 70, "velocity": 121, "channel": 0}, {"type": "note_on", "time": 5, "note": 69, "velocity": 112, "channel": 0}, {"type": "note_off", "time": 85, "note": 69, "velocity": 112, "channel": 0}, {"type": "note_on", "time": 9, "note": 67, "velocity": 112, "channel": 0}, {"type": "note_off", "time": 86, "note": 67, "velocity": 112, "channel": 0}, {"type": "note_on", "time": 6, "note": 67, "velocity": 96, "channel": 0}, {"type": "note_off", "time": 99, "note": 67, "velocity": 96, "channel": 0}, {"type": "note_on", "time": 3, "note": 63, "velocity": 84, "channel": 0}, {"type": "note_off", "time": 114, "note": 63, "velocity": 84, "channel": 0}, {"type": "note_on", "time": 2, "note": 65, "velocity": 110, "channel": 0}, {"type": "note_off", "time": 100, "note": 65, "velocity": 110, "channel": 0}, {"type": "note_on", "time": 277, "note": 62, "velocity": 94, "channel": 0}, {"type": "note_off", "time": 99, "note": 62, "velocity": 94, "channel": 0}, {"type": "note_on", "time": 11, "note": 63, "velocity": 96, "channel": 0}, {"type": "note_off", "time": 60, "note": 63, "velocity": 96, "channel": 0}, {"type": "note_on", "time": 5, "note": 65, "velocity": 105, "channel": 0}, {"type": "note_off", "time": 94, "note": 65, "velocity": 105, "channel": 0}, {"type": "note_on", "time": 7, "note": 67, "velocity": 111, "channel": 0}, {"type": "note_off", "time": 95, "note": 67, "velocity": 111, "channel": 0}, {"type": "note_on", "time": 0, "note": 69, "velocity": 92, "channel": 0}, {"type": "note_off", "time": 73, "note": 69, "velocity": 92, "channel": 0}, {"type": "note_on", "time": 12, "note": 70, "velocity": 110, "channel": 0}, {"type": "note_off", "time": 104, "note": 70, "velocity": 110, "channel": 0}, {"type": "note_on", "time": 2, "note": 72, "velocity": 103, "channel": 0}, {"type": "note_off", "time": 107, "note": 72, "velocity": 103, "channel": 0}, {"type": "note_on", "time": 9, "note": 70, "velocity": 113, "channel": 0}, {"type": "note_off", "time": 72, "note": 70, "velocity": 113, "channel": 0}, {"type": "note_on", "time": 0, "note": 72, "velocity": 110, "channel": 0}, {"type": "note_off", "time": 100, "note": 72, "velocity": 110, "channel": 0}, {"type": "note_on", "time": 5, "note": 74, "velocity": 101, "channel": 0}, {"type": "note_off", "time": 91, "note": 74, "velocity": 101, "channel": 0}, {"type": "note_on", "time": 1, "note": 72, "velocity": 92, "channel": 0}, {"type": "note_off", "time": 100, "note": 72, "velocity": 92, "channel": 0}, {"type": "note_on", "time": 10, "note": 70, "velocity": 116, "channel": 0}, {"type": "note_off", "time": 74, "note": 70, "velocity": 116, "channel": 0}, {"type": "note_on", "time": 3, "note": 69, "velocity": 116, "channel": 0}, {"type": "note_off", "time": 139, "note": 69, "velocity": 116, "channel": 0}, {"type": "note_on", "time": 5, "note": 69, "velocity": 115, "channel": 0}, {"type": "note_off", "time": 123, "note": 69, "velocity": 115, "channel": 0}, {"type": "note_on", "time": 167, "note": 69, "velocity": 109, "channel": 0}, {"type": "note_off", "time": 381, "note": 69, "velocity": 109, "channel": 0}, {"type": "note_on", "time": 1657, "note": 72, "velocity": 120, "channel": 0}, {"type": "note_off", "time": 79, "note": 72, "velocity": 120, "channel": 0}, {"type": "note_on", "time": 5, "note": 74, "velocity": 124, "channel": 0}, {"type": "note_off", "time": 526, "note": 74, "velocity": 124, "channel": 0}, {"type": "note_on", "time": 5, "note": 74, "velocity": 9, "channel": 0}, {"type": "note_off", "time": 130, "note": 74, "velocity": 9, "channel": 0}, {"type": "note_on", "time": 260, "note": 74, "velocity": 122, "channel": 0}, {"type": "note_off", "time": 377, "note": 74, "velocity": 122, "channel": 0}, {"type": "note_on", "time": 6, "note": 74, "velocity": 117, "channel": 0}, {"type": "note_off", "time": 384, "note": 74, "velocity": 117, "channel": 0}, {"type": "note_on", "time": 6, "note": 73, "velocity": 117, "channel": 0}, {"type": "note_off", "time": 276, "note": 73, "velocity": 117, "channel": 0}, {"type": "note_on", "time": 39, "note": 71, "velocity": 114, "channel": 0}, {"type": "note_off", "time": 101, "note": 71, "velocity": 114, "channel": 0}, {"type": "note_on", "time": 12, "note": 69, "velocity": 116, "channel": 0}, {"type": "note_off", "time": 109, "note": 69, "velocity": 116, "channel": 0}, {"type": "note_on", "time": 4, "note": 66, "velocity": 100, "channel": 0}, {"type": "note_off", "time": 281, "note": 66, "velocity": 100, "channel": 0}, {"type": "note_on", "time": 4, "note": 64, "velocity": 101, "channel": 0}, {"type": "note_off", "time": 351, "note": 64, "velocity": 101, "channel": 0}, {"type": "note_on", "time": 32, "note": 66, "velocity": 105, "channel": 0}, {"type": "note_off", "time": 117, "note": 66, "velocity": 105, "channel": 0}, {"type": "note_on", "time": 950, "note": 73, "velocity": 117, "channel": 0}, {"type": "note_off", "time": 73, "note": 73, "velocity": 117, "channel": 0}, {"type": "note_on", "time": 5, "note": 74, "velocity": 115, "channel": 0}, {"type": "note_off", "time": 96, "note": 74, "velocity": 115, "channel": 0}, {"type": "note_on", "time": 7, "note": 76, "velocity": 114, "channel": 0}, {"type": "note_off", "time": 90, "note": 76, "velocity": 114, "channel": 0}, {"type": "note_on", "time": 2, "note": 74, "velocity": 118, "channel": 0}, {"type": "note_off", "time": 107, "note": 74, "velocity": 118, "channel": 0}, {"type": "note_on", "time": 5, "note": 72, "velocity": 120, "channel": 0}, {"type": "note_off", "time": 98, "note": 72, "velocity": 120, "channel": 0}, {"type": "note_on", "time": 6, "note": 71, "velocity": 109, "channel": 0}, {"type": "note_off", "time": 82, "note": 71, "velocity": 109, "channel": 0}, {"type": "note_on", "time": 5, "note": 69, "velocity": 105, "channel": 0}, {"type": "note_off", "time": 72, "note": 69, "velocity": 105, "channel": 0}, {"type": "note_on", "time": 6, "note": 67, "velocity": 107, "channel": 0}, {"type": "note_off", "time": 103, "note": 67, "velocity": 107, "channel": 0}, {"type": "note_on", "time": 6, "note": 65, "velocity": 103, "channel": 0}, {"type": "note_off", "time": 58, "note": 65, "velocity": 103, "channel": 0}, {"type": "note_on", "time": 5, "note": 64, "velocity": 95, "channel": 0}, {"type": "note_off", "time": 81, "note": 64, "velocity": 95, "channel": 0}, {"type": "note_on", "time": 14, "note": 67, "velocity": 92, "channel": 0}, {"type": "note_off", "time": 86, "note": 67, "velocity": 92, "channel": 0}, {"type": "note_on", "time": 16, "note": 69, "velocity": 94, "channel": 0}, {"type": "note_off", "time": 86, "note": 69, "velocity": 94, "channel": 0}, {"type": "note_on", "time": 9, "note": 71, "velocity": 107, "channel": 0}, {"type": "note_off", "time": 92, "note": 71, "velocity": 107, "channel": 0}, {"type": "note_on", "time": 5, "note": 74, "velocity": 110, "channel": 0}, {"type": "note_off", "time": 104, "note": 74, "velocity": 110, "channel": 0}, {"type": "note_on", "time": 3, "note": 71, "velocity": 114, "channel": 0}, {"type": "note_off", "time": 99, "note": 71, "velocity": 114, "channel": 0}, {"type": "note_on", "time": 9, "note": 72, "velocity": 98, "channel": 0}, {"type": "note_off", "time": 64, "note": 72, "velocity": 98, "channel": 0}, {"type": "note_on", "time": 11, "note": 74, "velocity": 106, "channel": 0}, {"type": "note_off", "time": 82, "note": 74, "velocity": 106, "channel": 0}, {"type": "note_on", "time": 16, "note": 76, "velocity": 107, "channel": 0}, {"type": "note_off", "time": 108, "note": 76, "velocity": 107, "channel": 0}, {"type": "note_on", "time": 11, "note": 79, "velocity": 122, "channel": 0}, {"type": "note_off", "time": 225, "note": 79, "velocity": 122, "channel": 0}, {"type": "note_on", "time": 64, "note": 77, "velocity": 124, "channel": 0}, {"type": "note_off", "time": 252, "note": 77, "velocity": 124, "channel": 0}, {"type": "note_on", "time": 5, "note": 76, "velocity": 119, "channel": 0}, {"type": "note_off", "time": 285, "note": 76, "velocity": 119, "channel": 0}, {"type": "note_on", "time": 0, "note": 75, "velocity": 113, "channel": 0}, {"type": "note_off", "time": 623, "note": 75, "velocity": 113, "channel": 0}, {"type": "note_on", "time": 14, "note": 74, "velocity": 116, "channel": 0}, {"type": "note_off", "time": 280, "note": 74, "velocity": 116, "channel": 0}, {"type": "note_on", "time": 5, "note": 72, "velocity": 114, "channel": 0}, {"type": "note_off", "time": 105, "note": 72, "velocity": 114, "channel": 0}, {"type": "note_on", "time": 6, "note": 71, "velocity": 101, "channel": 0}, {"type": "note_off", "time": 91, "note": 71, "velocity": 101, "channel": 0}, {"type": "note_on", "time": 1, "note": 74, "velocity": 107, "channel": 0}, {"type": "note_off", "time": 67, "note": 74, "velocity": 107, "channel": 0}, {"type": "note_on", "time": 4, "note": 72, "velocity": 110, "channel": 0}, {"type": "note_off", "time": 108, "note": 72, "velocity": 110, "channel": 0}, {"type": "note_on", "time": 4, "note": 70, "velocity": 116, "channel": 0}, {"type": "note_off", "time": 72, "note": 70, "velocity": 116, "channel": 0}, {"type": "note_on", "time": 2, "note": 69, "velocity": 109, "channel": 0}, {"type": "note_off", "time": 85, "note": 69, "velocity": 109, "channel": 0}, {"type": "note_on", "time": 19, "note": 67, "velocity": 90, "channel": 0}, {"type": "note_off", "time": 81, "note": 67, "velocity": 90, "channel": 0}, {"type": "note_on", "time": 13, "note": 66, "velocity": 96, "channel": 0}, {"type": "note_off", "time": 70, "note": 66, "velocity": 96, "channel": 0}, {"type": "note_on", "time": 13, "note": 64, "velocity": 86, "channel": 0}, {"type": "note_off", "time": 96, "note": 64, "velocity": 86, "channel": 0}, {"type": "note_on", "time": 32, "note": 65, "velocity": 102, "channel": 0}, {"type": "note_off", "time": 121, "note": 65, "velocity": 102, "channel": 0}, {"type": "note_on", "time": 112, "note": 62, "velocity": 89, "channel": 0}, {"type": "note_off", "time": 77, "note": 62, "velocity": 89, "channel": 0}, {"type": "note_on", "time": 8, "note": 63, "velocity": 91, "channel": 0}, {"type": "note_off", "time": 58, "note": 63, "velocity": 91, "channel": 0}, {"type": "note_on", "time": 13, "note": 65, "velocity": 103, "channel": 0}, {"type": "note_off", "time": 77, "note": 65, "velocity": 103, "channel": 0}, {"type": "note_on", "time": 10, "note": 67, "velocity": 106, "channel": 0}, {"type": "note_off", "time": 107, "note": 67, "velocity": 106, "channel": 0}, {"type": "note_on", "time": 5, "note": 69, "velocity": 95, "channel": 0}, {"type": "note_off", "time": 55, "note": 69, "velocity": 95, "channel": 0}, {"type": "note_on", "time": 6, "note": 70, "velocity": 96, "channel": 0}, {"type": "note_off", "time": 107, "note": 70, "velocity": 96, "channel": 0}, {"type": "note_on", "time": 10, "note": 72, "velocity": 107, "channel": 0}, {"type": "note_off", "time": 128, "note": 72, "velocity": 107, "channel": 0}, {"type": "note_on", "time": 277, "note": 72, "velocity": 107, "channel": 0}, {"type": "note_off", "time": 94, "note": 72, "velocity": 107, "channel": 0}, {"type": "note_on", "time": 3, "note": 70, "velocity": 101, "channel": 0}, {"type": "note_off", "time": 65, "note": 70, "velocity": 101, "channel": 0}, {"type": "note_on", "time": 3, "note": 72, "velocity": 104, "channel": 0}, {"type": "note_off", "time": 81, "note": 72, "velocity": 104, "channel": 0}, {"type": "note_on", "time": 6, "note": 70, "velocity": 119, "channel": 0}, {"type": "note_off", "time": 90, "note": 70, "velocity": 119, "channel": 0}, {"type": "note_on", "time": 9, "note": 69, "velocity": 116, "channel": 0}, {"type": "note_off", "time": 108, "note": 69, "velocity": 116, "channel": 0}, {"type": "note_on", "time": 15, "note": 69, "velocity": 112, "channel": 0}, {"type": "note_off", "time": 107, "note": 69, "velocity": 112, "channel": 0}, {"type": "note_on", "time": 434, "note": 61, "velocity": 78, "channel": 0}, {"type": "note_off", "time": 60, "note": 61, "velocity": 78, "channel": 0}, {"type": "note_on", "time": 7, "note": 63, "velocity": 93, "channel": 0}, {"type": "note_off", "time": 62, "note": 63, "velocity": 93, "channel": 0}, {"type": "note_on", "time": 10, "note": 65, "velocity": 98, "channel": 0}, {"type": "note_off", "time": 91, "note": 65, "velocity": 98, "channel": 0}, {"type": "note_on", "time": 11, "note": 67, "velocity": 100, "channel": 0}, {"type": "note_off", "time": 90, "note": 67, "velocity": 100, "channel": 0}, {"type": "note_on", "time": 5, "note": 69, "velocity": 97, "channel": 0}, {"type": "note_off", "time": 68, "note": 69, "velocity": 97, "channel": 0}, {"type": "note_on", "time": 11, "note": 70, "velocity": 107, "channel": 0}, {"type": "note_off", "time": 102, "note": 70, "velocity": 107, "channel": 0}, {"type": "note_on", "time": 6, "note": 72, "velocity": 113, "channel": 0}, {"type": "note_off", "time": 94, "note": 72, "velocity": 113, "channel": 0}, {"type": "note_on", "time": 5, "note": 70, "velocity": 107, "channel": 0}, {"type": "note_off", "time": 72, "note": 70, "velocity": 107, "channel": 0}, {"type": "note_on", "time": 1, "note": 72, "velocity": 110, "channel": 0}, {"type": "note_off", "time": 102, "note": 72, "velocity": 110, "channel": 0}, {"type": "note_on", "time": 7, "note": 70, "velocity": 121, "channel": 0}, {"type": "note_off", "time": 72, "note": 70, "velocity": 121, "channel": 0}, {"type": "note_on", "time": 11, "note": 69, "velocity": 116, "channel": 0}, {"type": "note_off", "time": 104, "note": 69, "velocity": 116, "channel": 0}, {"type": "note_on", "time": 6, "note": 65, "velocity": 99, "channel": 0}, {"type": "note_off", "time": 82, "note": 65, "velocity": 99, "channel": 0}, {"type": "note_on", "time": 2, "note": 67, "velocity": 108, "channel": 0}, {"type": "note_off", "time": 87, "note": 67, "velocity": 108, "channel": 0}, {"type": "note_on", "time": 6, "note": 69, "velocity": 112, "channel": 0}, {"type": "note_off", "time": 83, "note": 69, "velocity": 112, "channel": 0}, {"type": "note_on", "time": 5, "note": 65, "velocity": 106, "channel": 0}, {"type": "note_off", "time": 131, "note": 65, "velocity": 106, "channel": 0}, {"type": "note_on", "time": 2, "note": 62, "velocity": 100, "channel": 0}, {"type": "note_off", "time": 197, "note": 62, "velocity": 100, "channel": 0}, {"type": "note_on", "time": 1070, "note": 67, "velocity": 115, "channel": 0}, {"type": "note_off", "time": 75, "note": 67, "velocity": 115, "channel": 0}, {"type": "note_on", "time": 0, "note": 69, "velocity": 119, "channel": 0}, {"type": "note_off", "time": 278, "note": 69, "velocity": 119, "channel": 0}, {"type": "note_on", "time": 7, "note": 68, "velocity": 118, "channel": 0}, {"type": "note_off", "time": 112, "note": 68, "velocity": 118, "channel": 0}, {"type": "note_on", "time": 7, "note": 69, "velocity": 117, "channel": 0}, {"type": "note_off", "time": 260, "note": 69, "velocity": 117, "channel": 0}, {"type": "note_on", "time": 2, "note": 68, "velocity": 114, "channel": 0}, {"type": "note_off", "time": 115, "note": 68, "velocity": 114, "channel": 0}, {"type": "note_on", "time": 1, "note": 69, "velocity": 117, "channel": 0}, {"type": "note_off", "time": 248, "note": 69, "velocity": 117, "channel": 0}, {"type": "note_on", "time": 6, "note": 68, "velocity": 111, "channel": 0}, {"type": "note_off", "time": 95, "note": 68, "velocity": 111, "channel": 0}, {"type": "note_on", "time": 2, "note": 69, "velocity": 114, "channel": 0}, {"type": "note_off", "time": 269, "note": 69, "velocity": 114, "channel": 0}, {"type": "note_on", "time": 1, "note": 65, "velocity": 110, "channel": 0}, {"type": "note_off", "time": 117, "note": 65, "velocity": 110, "channel": 0}, {"type": "note_on", "time": 3, "note": 66, "velocity": 103, "channel": 0}, {"type": "note_off", "time": 265, "note": 66, "velocity": 103, "channel": 0}, {"type": "note_on", "time": 7, "note": 65, "velocity": 105, "channel": 0}, {"type": "note_off", "time": 121, "note": 65, "velocity": 105, "channel": 0}, {"type": "note_on", "time": 3, "note": 66, "velocity": 100, "channel": 0}, {"type": "note_off", "time": 268, "note": 66, "velocity": 100, "channel": 0}, {"type": "note_on", "time": 36, "note": 65, "velocity": 91, "channel": 0}, {"type": "note_off", "time": 130, "note": 65, "velocity": 91, "channel": 0}, {"type": "note_on", "time": 3, "note": 66, "velocity": 107, "channel": 0}, {"type": "note_off", "time": 176, "note": 66, "velocity": 107, "channel": 0}, {"type": "note_on", "time": 476, "note": 64, "velocity": 108, "channel": 0}, {"type": "note_off", "time": 68, "note": 64, "velocity": 108, "channel": 0}, {"type": "note_on", "time": 6, "note": 65, "velocity": 106, "channel": 0}, {"type": "note_off", "time": 94, "note": 65, "velocity": 106, "channel": 0}, {"type": "note_on", "time": 5, "note": 61, "velocity": 95, "channel": 0}, {"type": "note_off", "time": 65, "note": 61, "velocity": 95, "channel": 0}, {"type": "note_on", "time": 250, "note": 64, "velocity": 110, "channel": 0}, {"type": "note_off", "time": 77, "note": 64, "velocity": 110, "channel": 0}, {"type": "note_on", "time": 5, "note": 62, "velocity": 88, "channel": 0}, {"type": "note_off", "time": 90, "note": 62, "velocity": 88, "channel": 0}, {"type": "note_on", "time": 20, "note": 64, "velocity": 102, "channel": 0}, {"type": "note_off", "time": 73, "note": 64, "velocity": 102, "channel": 0}, {"type": "note_on", "time": 2, "note": 65, "velocity": 93, "channel": 0}, {"type": "note_off", "time": 74, "note": 65, "velocity": 93, "channel": 0}, {"type": "note_on", "time": 6, "note": 67, "velocity": 112, "channel": 0}, {"type": "note_off", "time": 90, "note": 67, "velocity": 112, "channel": 0}, {"type": "note_on", "time": 7, "note": 69, "velocity": 119, "channel": 0}, {"type": "note_off", "time": 151, "note": 69, "velocity": 119, "channel": 0}, {"type": "note_on", "time": 552, "note": 76, "velocity": 99, "channel": 0}, {"type": "note_off", "time": 28, "note": 76, "velocity": 99, "channel": 0}, {"type": "note_on", "time": 2, "note": 75, "velocity": 119, "channel": 0}, {"type": "note_off", "time": 77, "note": 75, "velocity": 119, "channel": 0}, {"type": "note_on", "time": 3, "note": 74, "velocity": 115, "channel": 0}, {"type": "note_off", "time": 85, "note": 74, "velocity": 115, "channel": 0}, {"type": "note_on", "time": 3, "note": 72, "velocity": 116, "channel": 0}, {"type": "note_off", "time": 108, "note": 72, "velocity": 116, "channel": 0}, {"type": "note_on", "time": 9, "note": 71, "velocity": 107, "channel": 0}, {"type": "note_off", "time": 95, "note": 71, "velocity": 107, "channel": 0}, {"type": "note_on", "time": 2, "note": 69, "velocity": 120, "channel": 0}, {"type": "note_off", "time": 87, "note": 69, "velocity": 120, "channel": 0}, {"type": "note_on", "time": 2, "note": 67, "velocity": 107, "channel": 0}, {"type": "note_off", "time": 81, "note": 67, "velocity": 107, "channel": 0}, {"type": "note_on", "time": 3, "note": 65, "velocity": 110, "channel": 0}, {"type": "note_off", "time": 96, "note": 65, "velocity": 110, "channel": 0}, {"type": "note_on", "time": 22, "note": 62, "velocity": 94, "channel": 0}, {"type": "note_off", "time": 81, "note": 62, "velocity": 94, "channel": 0}, {"type": "note_on", "time": 6, "note": 63, "velocity": 86, "channel": 0}, {"type": "note_off", "time": 74, "note": 63, "velocity": 86, "channel": 0}, {"type": "note_on", "time": 3, "note": 64, "velocity": 99, "channel": 0}, {"type": "note_off", "time": 95, "note": 64, "velocity": 99, "channel": 0}, {"type": "note_on", "time": 351, "note": 73, "velocity": 125, "channel": 0}, {"type": "note_off", "time": 78, "note": 73, "velocity": 125, "channel": 0}, {"type": "note_on", "time": 4, "note": 74, "velocity": 118, "channel": 0}, {"type": "note_off", "time": 173, "note": 74, "velocity": 118, "channel": 0}, {"type": "note_on", "time": 117, "note": 72, "velocity": 118, "channel": 0}, {"type": "note_off", "time": 267, "note": 72, "velocity": 118, "channel": 0}, {"type": "note_on", "time": 12, "note": 70, "velocity": 123, "channel": 0}, {"type": "note_off", "time": 77, "note": 70, "velocity": 123, "channel": 0}, {"type": "note_on", "time": 9, "note": 69, "velocity": 115, "channel": 0}, {"type": "note_off", "time": 96, "note": 69, "velocity": 115, "channel": 0}, {"type": "note_on", "time": 5, "note": 67, "velocity": 105, "channel": 0}, {"type": "note_off", "time": 103, "note": 67, "velocity": 105, "channel": 0}, {"type": "note_on", "time": 6, "note": 67, "velocity": 100, "channel": 0}, {"type": "note_off", "time": 48, "note": 67, "velocity": 100, "channel": 0}, {"type": "note_on", "time": 9, "note": 64, "velocity": 99, "channel": 0}, {"type": "note_off", "time": 124, "note": 64, "velocity": 99, "channel": 0}, {"type": "note_on", "time": 18, "note": 65, "velocity": 99, "channel": 0}, {"type": "note_off", "time": 78, "note": 65, "velocity": 99, "channel": 0}, {"type": "note_on", "time": 394, "note": 58, "velocity": 95, "channel": 0}, {"type": "note_off", "time": 82, "note": 58, "velocity": 95, "channel": 0}, {"type": "note_on", "time": 13, "note": 62, "velocity": 95, "channel": 0}, {"type": "note_off", "time": 104, "note": 62, "velocity": 95, "channel": 0}, {"type": "note_on", "time": 2, "note": 65, "velocity": 107, "channel": 0}, {"type": "note_off", "time": 79, "note": 65, "velocity": 107, "channel": 0}, {"type": "note_on", "time": 11, "note": 63, "velocity": 98, "channel": 0}, {"type": "note_off", "time": 66, "note": 63, "velocity": 98, "channel": 0}, {"type": "note_on", "time": 5, "note": 65, "velocity": 105, "channel": 0}, {"type": "note_off", "time": 103, "note": 65, "velocity": 105, "channel": 0}, {"type": "note_on", "time": 3, "note": 67, "velocity": 109, "channel": 0}, {"type": "note_off", "time": 103, "note": 67, "velocity": 109, "channel": 0}, {"type": "note_on", "time": 5, "note": 69, "velocity": 105, "channel": 0}, {"type": "note_off", "time": 90, "note": 69, "velocity": 105, "channel": 0}, {"type": "note_on", "time": 9, "note": 70, "velocity": 116, "channel": 0}, {"type": "note_off", "time": 60, "note": 70, "velocity": 116, "channel": 0}, {"type": "note_on", "time": 6, "note": 68, "velocity": 116, "channel": 0}, {"type": "note_off", "time": 98, "note": 68, "velocity": 116, "channel": 0}, {"type": "note_on", "time": 3, "note": 69, "velocity": 108, "channel": 0}, {"type": "note_off", "time": 89, "note": 69, "velocity": 108, "channel": 0}, {"type": "note_on", "time": 18, "note": 72, "velocity": 85, "channel": 0}, {"type": "note_off", "time": 78, "note": 72, "velocity": 85, "channel": 0}, {"type": "note_on", "time": 2, "note": 75, "velocity": 109, "channel": 0}, {"type": "note_off", "time": 117, "note": 75, "velocity": 109, "channel": 0}, {"type": "note_on", "time": 3, "note": 77, "velocity": 118, "channel": 0}, {"type": "note_off", "time": 92, "note": 77, "velocity": 118, "channel": 0}, {"type": "note_on", "time": 13, "note": 77, "velocity": 113, "channel": 0}, {"type": "note_off", "time": 70, "note": 77, "velocity": 113, "channel": 0}, {"type": "note_on", "time": 3, "note": 75, "velocity": 113, "channel": 0}, {"type": "note_off", "time": 106, "note": 75, "velocity": 113, "channel": 0}, {"type": "note_on", "time": 9, "note": 74, "velocity": 114, "channel": 0}, {"type": "note_off", "time": 94, "note": 74, "velocity": 114, "channel": 0}, {"type": "note_on", "time": 6, "note": 72, "velocity": 119, "channel": 0}, {"type": "note_off", "time": 103, "note": 72, "velocity": 119, "channel": 0}, {"type": "note_on", "time": 3, "note": 71, "velocity": 110, "channel": 0}, {"type": "note_off", "time": 87, "note": 71, "velocity": 110, "channel": 0}, {"type": "note_on", "time": 15, "note": 69, "velocity": 111, "channel": 0}, {"type": "note_off", "time": 82, "note": 69, "velocity": 111, "channel": 0}, {"type": "note_on", "time": 9, "note": 70, "velocity": 116, "channel": 0}, {"type": "note_off", "time": 81, "note": 70, "velocity": 116, "channel": 0}, {"type": "note_on", "time": 9, "note": 69, "velocity": 113, "channel": 0}, {"type": "note_off", "time": 86, "note": 69, "velocity": 113, "channel": 0}, {"type": "note_on", "time": 3, "note": 67, "velocity": 104, "channel": 0}, {"type": "note_off", "time": 85, "note": 67, "velocity": 104, "channel": 0}, {"type": "note_on", "time": 40, "note": 63, "velocity": 80, "channel": 0}, {"type": "note_off", "time": 58, "note": 63, "velocity": 80, "channel": 0}, {"type": "note_on", "time": 7, "note": 69, "velocity": 109, "channel": 0}, {"type": "note_off", "time": 260, "note": 69, "velocity": 109, "channel": 0}, {"type": "note_on", "time": 14, "note": 69, "velocity": 109, "channel": 0}, {"type": "note_off", "time": 106, "note": 69, "velocity": 109, "channel": 0}, {"type": "note_on", "time": 53, "note": 73, "velocity": 113, "channel": 0}, {"type": "note_off", "time": 320, "note": 73, "velocity": 113, "channel": 0}, {"type": "note_on", "time": 68, "note": 66, "velocity": 90, "channel": 0}, {"type": "note_off", "time": 559, "note": 66, "velocity": 90, "channel": 0}, {"type": "note_on", "time": 18, "note": 69, "velocity": 122, "channel": 0}, {"type": "note_off", "time": 141, "note": 69, "velocity": 122, "channel": 0}, {"type": "note_on", "time": 411, "note": 66, "velocity": 109, "channel": 0}, {"type": "note_off", "time": 87, "note": 66, "velocity": 109, "channel": 0}, {"type": "note_on", "time": 6, "note": 64, "velocity": 101, "channel": 0}, {"type": "note_off", "time": 273, "note": 64, "velocity": 101, "channel": 0}, {"type": "note_on", "time": 5, "note": 61, "velocity": 85, "channel": 0}, {"type": "note_off", "time": 408, "note": 61, "velocity": 85, "channel": 0}, {"type": "end_of_track", "time": 0}]]}