{"ticks_per_beat": 192, "tracks": [[{"type": "track_name", "name": "Melody", "time": 0}, {"type": "set_tempo", "tempo": 218181, "time": 0}, {"type": "time_signature", "numerator": 4, "denominator": 4, "clocks_per_click": 24, "notated_32nd_notes_per_beat": 8, "time": 0}, {"type": "note_on", "time": 3897, "note": 74, "velocity": 98, "channel": 0}, {"type": "note_off", "time": 97, "note": 74, "velocity": 98, "channel": 0}, {"type": "note_on", "time": 76, "note": 76, "velocity": 96, "channel": 0}, {"type": "note_off", "time": 117, "note": 76, "velocity": 96, "channel": 0}, {"type": "note_on", "time": 76, "note": 77, "velocity": 125, "channel": 0}, {"type": "note_off", "time": 168, "note": 77, "velocity": 125, "channel": 0}, {"type": "note_on", "time": 8, "note": 80, "velocity": 110, "channel": 0}, {"type": "note_off", "time": 29, "note": 80, "velocity": 110, "channel": 0}, {"type": "note_on", "time": 10, "note": 81, "velocity": 119, "channel": 0}, {"type": "note_off", "time": 88, "note": 81, "velocity": 119, "channel": 0}, {"type": "note_on", "time": 12, "note": 81, "velocity": 125, "channel": 0}, {"type": "note_off", "time": 114, "note": 81, "velocity": 125, "channel": 0}, {"type": "note_on", "time": 323, "note": 81, "velocity": 116, "channel": 0}, {"type": "note_off", "time": 111, "note": 81, "velocity": 116, "channel": 0}, {"type": "note_on", "time": 513, "note": 71, "velocity": 121, "channel": 0}, {"type": "note_off", "time": 86, "note": 71, "velocity": 121, "channel": 0}, {"type": "note_on", "time": 7, "note": 72, "velocity": 121, "channel": 0}, {"type": "note_off", "time": 43, "note": 72, "velocity": 121, "channel": 0}, {"type": "note_on", "time": 7, "note": 71, "velocity": 114, "channel": 0}, {"type": "note_off", "time": 75, "note": 71, "velocity": 114, "channel": 0}, {"type": "note_on", "time": 17, "note": 68, "velocity": 107, "channel": 0}, {"type": "note_off", "time": 93, "note": 68, "velocity": 107, "channel": 0}, {"type": "note_on", "time": 14, "note": 67, "velocity": 111, "channel": 0}, {"type": "note_off", "time": 82, "note": 67, "velocity": 111, "channel": 0}, {"type": "note_on", "time": 21, "note": 66, "velocity": 117, "channel": 0}, {"type": "note_off", "time": 71, "note": 66, "velocity": 117, "channel": 0}, {"type": "note_on", "time": 14, "note": 65, "velocity": 113, "channel": 0}, {"type": "note_off", "time": 107, "note": 65, "velocity": 113, "channel": 0}, {"type": "note_on", "time": 21, "note": 64, "velocity": 110, "channel": 0}, {"type": "note_off", "time": 53, "note": 64, "velocity": 110, "channel": 0}, {"type": "note_on", "time": 7, "note": 63, "velocity": 106, "channel": 0}, {"type": "note_off", "time": 93, "note": 63, "velocity": 106, "channel": 0}, {"type": "note_on", "time": 21, "note": 65, "velocity": 121, "channel": 0}, {"type": "note_off", "time": 93, "note": 65, "velocity": 121, "channel": 0}, {"type": "note_on", "time": 10, "note": 62, "velocity": 90, "channel": 0}, {"type": "note_off", "time": 75, "note": 62, "velocity": 90, "channel": 0}, {"type": "note_on", "time": 0, "note": 65, "velocity": 115, "channel": 0}, {"type": "note_off", "time": 82, "note": 65, "velocity": 115, "channel": 0}, {"type": "note_on", "time": 10, "note": 64, "velocity": 116, "channel": 0}, {"type": "note_off", "time": 89, "note": 64, "velocity": 116, "channel": 0}, {"type": "note_on", "time": 14, "note": 62, "velocity": 94, "channel": 0}, {"type": "note_off", "time": 100, "note": 62, "velocity": 94, "channel": 0}, {"type": "note_on", "time": 10, "note": 63, "velocity": 114, "channel": 0}, {"type": "note_off", "time": 82, "note": 63, "velocity": 114, "channel": 0}, {"type": "note_on", "time": 7, "note": 65, "velocity": 115, "channel": 0}, {"type": "note_off", "time": 93, "note": 65, "velocity": 115, "channel": 0}, {"type": "note_on", "time": 3, "note": 67, "velocity": 115, "channel": 0}, {"type": "note_off", "time": 75, "note": 67, "velocity": 115, "channel": 0}, {"type": "note_on", "time": 35, "note": 64, "velocity": 97, "channel": 0}, {"type": "note_off", "time": 61, "note": 64, "velocity": 97, "channel": 0}, {"type": "note_on", "time": 0, "note": 69, "velocity": 121, "channel": 0}, {"type": "note_off", "time": 118, "note": 69, "velocity": 121, "channel": 0}, {"type": "note_on", "time": 35, "note": 63, "velocity": 103, "channel": 0}, {"type": "note_off", "time": 46, "note": 63, "velocity": 103, "channel": 0}, {"type": "note_on", "time": 7, "note": 71, "velocity": 122, "channel": 0}, {"type": "note_off", "time": 100, "note": 71, "velocity": 122, "channel": 0}, {"type": "note_on", "time": 7, "note": 67, "velocity": 105, "channel": 0}, {"type": "note_off", "time": 68, "note": 67, "velocity": 105, "channel": 0}, {"type": "note_on", "time": 25, "note": 72, "velocity": 123, "channel": 0}, {"type": "note_off", "time": 75, "note": 72, "velocity": 123, "channel": 0}, {"type": "note_on", "time": 14, "note": 68, "velocity": 99, "channel": 0}, {"type": "note_off", "time": 71, "note": 68, "velocity": 99, "channel": 0}, {"type": "note_on", "time": 14, "note": 73, "velocity": 114, "channel": 0}, {"type": "note_off", "time": 96, "note": 73, "velocity": 114, "channel": 0}, {"type": "note_on", "time": 0, "note": 74, "velocity": 110, "channel": 0}, {"type": "note_off", "time": 111, "note": 74, "velocity": 110, "channel": 0}, {"type": "note_on", "time": 79, "note": 75, "velocity": 108, "channel": 0}, {"type": "note_off", "time": 107, "note": 75, "velocity": 108, "channel": 0}, {"type": "note_on", "time": 0, "note": 77, "velocity": 111, "channel": 0}, {"type": "note_off", "time": 89, "note": 77, "velocity": 111, "channel": 0}, {"type": "note_on", "time": 7, "note": 79, "velocity": 121, "channel": 0}, {"type": "note_off", "time": 79, "note": 79, "velocity": 121, "channel": 0}, {"type": "note_on", "time": 3, "note": 80, "velocity": 123, "channel": 0}, {"type": "note_off", "time": 262, "note": 80, "velocity": 123, "channel": 0}, {"type": "note_on", "time": 10, "note": 76, "velocity": 100, "channel": 0}, {"type": "note_off", "time": 100, "note": 76, "velocity": 100, "channel": 0}, {"type": "note_on", "time": 10, "note": 79, "velocity": 120, "channel": 0}, {"type": "note_on", "time": 122, "note": 76, "velocity": 121, "channel": 0}, {"type": "note_off", "time": 0, "note": 79, "velocity": 120, "channel": 0}, {"type": "note_off", "time": 71, "note": 76, "velocity": 121, "channel": 0}, {"type": "note_on", "time": 0, "note": 77, "velocity": 114, "channel": 0}, {"type": "note_off", "time": 100, "note": 77, "velocity": 114, "channel": 0}, {"type": "note_on", "time": 3, "note": 76, "velocity": 123, "channel": 0}, {"type": "note_off", "time": 86, "note": 76, "velocity": 123, "channel": 0}, {"type": "note_on", "time": 3, "note": 75, "velocity": 121, "channel": 0}, {"type": "note_off", "time": 68, "note": 75, "velocity": 121, "channel": 0}, {"type": "note_on", "time": 10, "note": 72, "velocity": 117, "channel": 0}, {"type": "note_off", "time": 86, "note": 72, "velocity": 117, "channel": 0}, {"type": "note_on", "time": 3, "note": 73, "velocity": 122, "channel": 0}, {"type": "note_off", "time": 107, "note": 73, "velocity": 122, "channel": 0}, {"type": "note_on", "time": 39, "note": 68, "velocity": 105, "channel": 0}, {"type": "note_off", "time": 54, "note": 68, "velocity": 105, "channel": 0}, {"type": "note_on", "time": 25, "note": 72, "velocity": 109, "channel": 0}, {"type": "note_off", "time": 75, "note": 72, "velocity": 109, "channel": 0}, {"type": "note_on", "time": 68, "note": 77, "velocity": 122, "channel": 0}, {"type": "note_off", "time": 197, "note": 77, "velocity": 122, "channel": 0}, {"type": "note_on", "time": 10, "note": 75, "velocity": 123, "channel": 0}, {"type": "note_off", "time": 172, "note": 75, "velocity": 123, "channel": 0}, {"type": "note_on", "time": 9, "note": 73, "velocity": 121, "channel": 0}, {"type": "note_off", "time": 100, "note": 73, "velocity": 121, "channel": 0}, {"type": "note_on", "time": 12, "note": 72, "velocity": 124, "channel": 0}, {"type": "note_off", "time": 104, "note": 72, "velocity": 124, "channel": 0}, {"type": "note_on", "time": 2, "note": 71, "velocity": 119, "channel": 0}, {"type": "note_off", "time": 114, "note": 71, "velocity": 119, "channel": 0}, {"type": "note_on", "time": 86, "note": 69, "velocity": 113, "channel": 0}, {"type": "note_off", "time": 43, "note": 69, "velocity": 113, "channel": 0}, {"type": "note_on", "time": 8, "note": 70, "velocity": 109, "channel": 0}, {"type": "note_off", "time": 45, "note": 70, "velocity": 109, "channel": 0}, {"type": "note_on", "time": 17, "note": 70, "velocity": 123, "channel": 0}, {"type": "note_off", "time": 97, "note": 70, "velocity": 123, "channel": 0}, {"type": "note_on", "time": 352, "note": 69, "velocity": 116, "channel": 0}, {"type": "note_off", "time": 107, "note": 69, "velocity": 116, "channel": 0}, {"type": "note_on", "time": 431, "note": 67, "velocity": 106, "channel": 0}, {"type": "note_off", "time": 79, "note": 67, "velocity": 106, "channel": 0}, {"type": "note_on", "time": 43, "note": 69, "velocity": 104, "channel": 0}, {"type": "note_off", "time": 82, "note": 69, "velocity": 104, "channel": 0}, {"type": "note_on", "time": 10, "note": 70, "velocity": 123, "channel": 0}, {"type": "note_off", "time": 89, "note": 70, "velocity": 123, "channel": 0}, {"type": "note_on", "time": 0, "note": 69, "velocity": 108, "channel": 0}, {"type": "note_off", "time": 53, "note": 69, "velocity": 108, "channel": 0}, {"type": "note_on", "time": 3, "note": 72, "velocity": 110, "channel": 0}, {"type": "note_off", "time": 147, "note": 72, "velocity": 110, "channel": 0}, {"type": "note_on", "time": 0, "note": 71, "velocity": 109, "channel": 0}, {"type": "note_off", "time": 93, "note": 71, "velocity": 109, "channel": 0}, {"type": "note_on", "time": 3, "note": 72, "velocity": 120, "channel": 0}, {"type": "note_off", "time": 89, "note": 72, "velocity": 120, "channel": 0}, {"type": "note_on", "time": 3, "note": 71, "velocity": 119, "channel": 0}, {"type": "note_off", "time": 71, "note": 71, "velocity": 119, "channel": 0}, {"type": "note_on", "time": 3, "note": 70, "velocity": 113, "channel": 0}, {"type": "note_off", "time": 96, "note": 70, "velocity": 113, "channel": 0}, {"type": "note_on", "time": 7, "note": 69, "velocity": 120, "channel": 0}, {"type": "note_off", "time": 86, "note": 69, "velocity": 120, "channel": 0}, {"type": "note_on", "time": 7, "note": 68, "velocity": 107, "channel": 0}, {"type": "note_off", "time": 82, "note": 68, "velocity": 107, "channel": 0}, {"type": "note_on", "time": 20, "note": 58, "velocity": 115, "channel": 0}, {"type": "note_off", "time": 89, "note": 58, "velocity": 115, "channel": 0}, {"type": "note_on", "time": 12, "note": 62, "velocity": 93, "channel": 0}, {"type": "note_off", "time": 74, "note": 62, "velocity": 93, "channel": 0}, {"type": "note_on", "time": 27, "note": 65, "velocity": 115, "channel": 0}, {"type": "note_off", "time": 44, "note": 65, "velocity": 115, "channel": 0}, {"type": "note_on", "time": 6, "note": 64, "velocity": 117, "channel": 0}, {"type": "note_off", "time": 117, "note": 64, "velocity": 117, "channel": 0}, {"type": "note_on", "time": 12, "note": 62, "velocity": 103, "channel": 0}, {"type": "note_off", "time": 89, "note": 62, "velocity": 103, "channel": 0}, {"type": "note_on", "time": 0, "note": 63, "velocity": 114, "channel": 0}, {"type": "note_off", "time": 96, "note": 63, "velocity": 114, "channel": 0}, {"type": "note_on", "time": 3, "note": 66, "velocity": 118, "channel": 0}, {"type": "note_off", "time": 82, "note": 66, "velocity": 118, "channel": 0}, {"type": "note_on", "time": 3, "note": 67, "velocity": 112, "channel": 0}, {"type": "note_off", "time": 96, "note": 67, "velocity": 112, "channel": 0}, {"type": "note_on", "time": 10, "note": 68, "velocity": 102, "channel": 0}, {"type": "note_off", "time": 68, "note": 68, "velocity": 102, "channel": 0}, {"type": "note_on", "time": 3, "note": 70, "velocity": 121, "channel": 0}, {"type": "note_off", "time": 100, "note": 70, "velocity": 121, "channel": 0}, {"type": "note_on", "time": 49, "note": 64, "velocity": 101, "channel": 0}, {"type": "note_off", "time": 53, "note": 64, "velocity": 101, "channel": 0}, {"type": "note_on", "time": 5, "note": 69, "velocity": 118, "channel": 0}, {"type": "note_off", "time": 107, "note": 69, "velocity": 118, "channel": 0}, {"type": "note_on", "time": 29, "note": 67, "velocity": 96, "channel": 0}, {"type": "note_off", "time": 41, "note": 67, "velocity": 96, "channel": 0}, {"type": "note_on", "time": 4, "note": 71, "velocity": 123, "channel": 0}, {"type": "note_off", "time": 104, "note": 71, "velocity": 123, "channel": 0}, {"type": "note_on", "time": 13, "note": 69, "velocity": 95, "channel": 0}, {"type": "note_off", "time": 68, "note": 69, "velocity": 95, "channel": 0}, {"type": "note_on", "time": 7, "note": 73, "velocity": 123, "channel": 0}, {"type": "note_off", "time": 125, "note": 73, "velocity": 123, "channel": 0}, {"type": "note_on", "time": 7, "note": 69, "velocity": 99, "channel": 0}, {"type": "note_off", "time": 61, "note": 69, "velocity": 99, "channel": 0}, {"type": "note_on", "time": 0, "note": 74, "velocity": 120, "channel": 0}, {"type": "note_off", "time": 107, "note": 74, "velocity": 120, "channel": 0}, {"type": "note_on", "time": 91, "note": 75, "velocity": 121, "channel": 0}, {"type": "note_off", "time": 293, "note": 75, "velocity": 121, "channel": 0}, {"type": "note_on", "time": 7, "note": 72, "velocity": 123, "channel": 0}, {"type": "note_off", "time": 143, "note": 72, "velocity": 123, "channel": 0}, {"type": "note_on", "time": 58, "note": 72, "velocity": 122, "channel": 0}, {"type": "note_off", "time": 99, "note": 72, "velocity": 122, "channel": 0}, {"type": "note_on", "time": 5, "note": 71, "velocity": 117, "channel": 0}, {"type": "note_off", "time": 71, "note": 71, "velocity": 117, "channel": 0}, {"type": "note_on", "time": 2, "note": 70, "velocity": 89, "channel": 0}, {"type": "note_off", "time": 71, "note": 70, "velocity": 89, "channel": 0}, {"type": "note_on", "time": 30, "note": 72, "velocity": 117, "channel": 0}, {"type": "note_off", "time": 102, "note": 72, "velocity": 117, "channel": 0}, {"type": "note_on", "time": 104, "note": 65, "velocity": 107, "channel": 0}, {"type": "note_off", "time": 309, "note": 65, "velocity": 107, "channel": 0}, {"type": "note_on", "time": 429, "note": 67, "velocity": 116, "channel": 0}, {"type": "note_off", "time": 102, "note": 67, "velocity": 116, "channel": 0}, {"type": "note_on", "time": 30, "note": 64, "velocity": 111, "channel": 0}, {"type": "note_off", "time": 61, "note": 64, "velocity": 111, "channel": 0}, {"type": "note_on", "time": 2, "note": 65, "velocity": 120, "channel": 0}, {"type": "note_off", "time": 107, "note": 65, "velocity": 120, "channel": 0}, {"type": "note_on", "time": 15, "note": 63, "velocity": 99, "channel": 0}, {"type": "note_off", "time": 53, "note": 63, "velocity": 99, "channel": 0}, {"type": "note_on", "time": 0, "note": 64, "velocity": 115, "channel": 0}, {"type": "note_off", "time": 125, "note": 64, "velocity": 115, "channel": 0}, {"type": "note_on", "time": 22, "note": 62, "velocity": 103, "channel": 0}, {"type": "note_off", "time": 63, "note": 62, "velocity": 103, "channel": 0}, {"type": "note_on", "time": 0, "note": 63, "velocity": 110, "channel": 0}, {"type": "note_off", "time": 58, "note": 63, "velocity": 110, "channel": 0}, {"type": "note_on", "time": 15, "note": 65, "velocity": 108, "channel": 0}, {"type": "note_off", "time": 112, "note": 65, "velocity": 108, "channel": 0}, {"type": "note_on", "time": 0, "note": 62, "velocity": 97, "channel": 0}, {"type": "note_off", "time": 71, "note": 62, "velocity": 97, "channel": 0}, {"type": "note_on", "time": 7, "note": 65, "velocity": 115, "channel": 0}, {"type": "note_off", "time": 114, "note": 65, "velocity": 115, "channel": 0}, {"type": "note_on", "time": 2, "note": 64, "velocity": 114, "channel": 0}, {"type": "note_off", "time": 89, "note": 64, "velocity": 114, "channel": 0}, {"type": "note_on", "time": 20, "note": 62, "velocity": 96, "channel": 0}, {"type": "note_off", "time": 74, "note": 62, "velocity": 96, "channel": 0}, {"type": "note_on", "time": 2, "note": 63, "velocity": 113, "channel": 0}, {"type": "note_off", "time": 63, "note": 63, "velocity": 113, "channel": 0}, {"type": "note_on", "time": 45, "note": 66, "velocity": 115, "channel": 0}, {"type": "note_off", "time": 80, "note": 66, "velocity": 115, "channel": 0}, {"type": "note_on", "time": 7, "note": 67, "velocity": 111, "channel": 0}, {"type": "note_off", "time": 77, "note": 67, "velocity": 111, "channel": 0}, {"type": "note_on", "time": 5, "note": 70, "velocity": 120, "channel": 0}, {"type": "note_off", "time": 91, "note": 70, "velocity": 120, "channel": 0}, {"type": "note_on", "time": 0, "note": 69, "velocity": 120, "channel": 0}, {"type": "note_off", "time": 104, "note": 69, "velocity": 120, "channel": 0}, {"type": "note_on", "time": 12, "note": 67, "velocity": 108, "channel": 0}, {"type": "note_off", "time": 84, "note": 67, "velocity": 108, "channel": 0}, {"type": "note_on", "time": 12, "note": 68, "velocity": 113, "channel": 0}, {"type": "note_off", "time": 84, "note": 68, "velocity": 113, "channel": 0}, {"type": "note_on", "time": 0, "note": 70, "velocity": 121, "channel": 0}, {"type": "note_off", "time": 76, "note": 70, "velocity": 121, "channel": 0}, {"type": "note_on", "time": 0, "note": 72, "velocity": 113, "channel": 0}, {"type": "note_off", "time": 91, "note": 72, "velocity": 113, "channel": 0}, {"type": "note_on", "time": 2, "note": 74, "velocity": 120, "channel": 0}, {"type": "note_off", "time": 107, "note": 74, "velocity": 120, "channel": 0}, {"type": "note_on", "time": 5, "note": 75, "velocity": 124, "channel": 0}, {"type": "note_off", "time": 102, "note": 75, "velocity": 124, "channel": 0}, {"type": "note_on", "time": 0, "note": 77, "velocity": 115, "channel": 0}, {"type": "note_off", "time": 86, "note": 77, "velocity": 115, "channel": 0}, {"type": "note_on", "time": 0, "note": 79, "velocity": 125, "channel": 0}, {"type": "note_off", "time": 104, "note": 79, "velocity": 125, "channel": 0}, {"type": "note_on", "time": 2, "note": 80, "velocity": 123, "channel": 0}, {"type": "note_off", "time": 74, "note": 80, "velocity": 123, "channel": 0}, {"type": "note_on", "time": 10, "note": 79, "velocity": 125, "channel": 0}, {"type": "note_off", "time": 94, "note": 79, "velocity": 125, "channel": 0}, {"type": "note_on", "time": 5, "note": 78, "velocity": 114, "channel": 0}, {"type": "note_off", "time": 61, "note": 78, "velocity": 114, "channel": 0}, {"type": "note_on", "time": 5, "note": 76, "velocity": 118, "channel": 0}, {"type": "note_off", "time": 47, "note": 76, "velocity": 118, "channel": 0}, {"type": "note_on", "time": 4, "note": 77, "velocity": 119, "channel": 0}, {"type": "note_off", "time": 58, "note": 77, "velocity": 119, "channel": 0}, {"type": "note_on", "time": 4, "note": 76, "velocity": 119, "channel": 0}, {"type": "note_off", "time": 114, "note": 76, "velocity": 119, "channel": 0}, {"type": "note_on", "time": 5, "note": 75, "velocity": 93, "channel": 0}, {"type": "note_off", "time": 61, "note": 75, "velocity": 93, "channel": 0}, {"type": "note_on", "time": 2, "note": 74, "velocity": 115, "channel": 0}, {"type": "note_off", "time": 102, "note": 74, "velocity": 115, "channel": 0}, {"type": "note_on", "time": 2, "note": 72, "velocity": 115, "channel": 0}, {"type": "note_off", "time": 61, "note": 72, "velocity": 115, "channel": 0}, {"type": "note_on", "time": 7, "note": 71, "velocity": 119, "channel": 0}, {"type": "note_off", "time": 89, "note": 71, "velocity": 119, "channel": 0}, {"type": "note_on", "time": 12, "note": 70, "velocity": 117, "channel": 0}, {"type": "note_off", "time": 107, "note": 70, "velocity": 117, "channel": 0}, {"type": "note_on", "time": 2, "note": 69, "velocity": 119, "channel": 0}, {"type": "note_off", "time": 76, "note": 69, "velocity": 119, "channel": 0}, {"type": "note_on", "time": 7, "note": 68, "velocity": 106, "channel": 0}, {"type": "note_off", "time": 94, "note": 68, "velocity": 106, "channel": 0}, {"type": "note_on", "time": 2, "note": 66, "velocity": 110, "channel": 0}, {"type": "note_off", "time": 79, "note": 66, "velocity": 110, "channel": 0}, {"type": "note_on", "time": 132, "note": 66, "velocity": 118, "channel": 0}, {"type": "note_off", "time": 81, "note": 66, "velocity": 118, "channel": 0}, {"type": "note_on", "time": 0, "note": 64, "velocity": 111, "channel": 0}, {"type": "note_off", "time": 104, "note": 64, "velocity": 111, "channel": 0}, {"type": "note_on", "time": 10, "note": 62, "velocity": 95, "channel": 0}, {"type": "note_off", "time": 79, "note": 62, "velocity": 95, "channel": 0}, {"type": "note_on", "time": 10, "note": 63, "velocity": 101, "channel": 0}, {"type": "note_off", "time": 89, "note": 63, "velocity": 101, "channel": 0}, {"type": "note_on", "time": 7, "note": 66, "velocity": 111, "channel": 0}, {"type": "note_off", "time": 79, "note": 66, "velocity": 111, "channel": 0}, {"type": "note_on", "time": 2, "note": 67, "velocity": 111, "channel": 0}, {"type": "note_off", "time": 89, "note": 67, "velocity": 111, "channel": 0}, {"type": "note_on", "time": 2, "note": 70, "velocity": 117, "channel": 0}, {"type": "note_off", "time": 94, "note": 70, "velocity": 117, "channel": 0}, {"type": "note_on", "time": 5, "note": 68, "velocity": 110, "channel": 0}, {"type": "note_off", "time": 148, "note": 68, "velocity": 110, "channel": 0}, {"type": "note_on", "time": 33, "note": 71, "velocity": 108, "channel": 0}, {"type": "note_off", "time": 143, "note": 71, "velocity": 108, "channel": 0}, {"type": "note_on", "time": 12, "note": 69, "velocity": 90, "channel": 0}, {"type": "note_off", "time": 53, "note": 69, "velocity": 90, "channel": 0}, {"type": "note_on", "time": 5, "note": 73, "velocity": 113, "channel": 0}, {"type": "note_off", "time": 114, "note": 73, "velocity": 113, "channel": 0}, {"type": "note_on", "time": 5, "note": 69, "velocity": 99, "channel": 0}, {"type": "note_off", "time": 43, "note": 69, "velocity": 99, "channel": 0}, {"type": "note_on", "time": 22, "note": 75, "velocity": 118, "channel": 0}, {"type": "note_off", "time": 104, "note": 75, "velocity": 118, "channel": 0}, {"type": "note_on", "time": 2, "note": 77, "velocity": 117, "channel": 0}, {"type": "note_off", "time": 117, "note": 77, "velocity": 117, "channel": 0}, {"type": "note_on", "time": 367, "note": 79, "velocity": 124, "channel": 0}, {"type": "note_off", "time": 286, "note": 79, "velocity": 124, "channel": 0}, {"type": "note_on", "time": 12, "note": 79, "velocity": 116, "channel": 0}, {"type": "note_off", "time": 214, "note": 79, "velocity": 116, "channel": 0}, {"type": "note_on", "time": 615, "note": 77, "velocity": 121, "channel": 0}, {"type": "note_off", "time": 329, "note": 77, "velocity": 121, "channel": 0}, {"type": "note_on", "time": 5, "note": 79, "velocity": 125, "channel": 0}, {"type": "note_off", "time": 309, "note": 79, "velocity": 125, "channel": 0}, {"type": "note_on", "time": 25, "note": 79, "velocity": 123, "channel": 0}, {"type": "note_off", "time": 145, "note": 79, "velocity": 123, "channel": 0}, {"type": "note_on", "time": 357, "note": 74, "velocity": 103, "channel": 0}, {"type": "note_off", "time": 94, "note": 74, "velocity": 103, "channel": 0}, {"type": "note_on", "time": 79, "note": 79, "velocity": 125, "channel": 0}, {"type": "note_off", "time": 186, "note": 79, "velocity": 125, "channel": 0}, {"type": "note_on", "time": 20, "note": 81, "velocity": 112, "channel": 0}, {"type": "note_off", "time": 270, "note": 81, "velocity": 112, "channel": 0}, {"type": "note_on", "time": 12, "note": 79, "velocity": 123, "channel": 0}, {"type": "note_off", "time": 342, "note": 79, "velocity": 123, "channel": 0}, {"type": "note_on", "time": 51, "note": 79, "velocity": 115, "channel": 0}, {"type": "note_off", "time": 132, "note": 79, "velocity": 115, "channel": 0}, {"type": "note_on", "time": 351, "note": 80, "velocity": 124, "channel": 0}, {"type": "note_off", "time": 352, "note": 80, "velocity": 124, "channel": 0}, {"type": "note_on", "time": 2, "note": 79, "velocity": 125, "channel": 0}, {"type": "note_off", "time": 263, "note": 79, "velocity": 125, "channel": 0}, {"type": "note_on", "time": 7, "note": 78, "velocity": 113, "channel": 0}, {"type": "note_off", "time": 89, "note": 78, "velocity": 113, "channel": 0}, {"type": "note_on", "time": 2, "note": 77, "velocity": 117, "channel": 0}, {"type": "note_off", "time": 97, "note": 77, "velocity": 117, "channel": 0}, {"type": "note_on", "time": 15, "note": 76, "velocity": 120, "channel": 0}, {"type": "note_off", "time": 91, "note": 76, "velocity": 120, "channel": 0}, {"type": "note_on", "time": 5, "note": 75, "velocity": 119, "channel": 0}, {"type": "note_off", "time": 79, "note": 75, "velocity": 119, "channel": 0}, {"type": "note_on", "time": 7, "note": 72, "velocity": 122, "channel": 0}, {"type": "note_off", "time": 86, "note": 72, "velocity": 122, "channel": 0}, {"type": "note_on", "time": 2, "note": 73, "velocity": 113, "channel": 0}, {"type": "note_off", "time": 109, "note": 73, "velocity": 113, "channel": 0}, {"type": "note_on", "time": 7, "note": 71, "velocity": 103, "channel": 0}, {"type": "note_off", "time": 79, "note": 71, "velocity": 103, "channel": 0}, {"type": "note_on", "time": 5, "note": 72, "velocity": 116, "channel": 0}, {"type": "note_off", "time": 94, "note": 72, "velocity": 116, "channel": 0}, {"type": "note_on", "time": 22, "note": 71, "velocity": 118, "channel": 0}, {"type": "note_off", "time": 76, "note": 71, "velocity": 118, "channel": 0}, {"type": "note_on", "time": 7, "note": 70, "velocity": 106, "channel": 0}, {"type": "note_off", "time": 76, "note": 70, "velocity": 106, "channel": 0}, {"type": "note_on", "time": 2, "note": 69, "velocity": 115, "channel": 0}, {"type": "note_off", "time": 86, "note": 69, "velocity": 115, "channel": 0}, {"type": "note_on", "time": 5, "note": 68, "velocity": 104, "channel": 0}, {"type": "note_off", "time": 97, "note": 68, "velocity": 104, "channel": 0}, {"type": "note_on", "time": 5, "note": 63, "velocity": 108, "channel": 0}, {"type": "note_off", "time": 91, "note": 63, "velocity": 108, "channel": 0}, {"type": "note_on", "time": 40, "note": 59, "velocity": 91, "channel": 0}, {"type": "note_off", "time": 40, "note": 59, "velocity": 91, "channel": 0}, {"type": "note_on", "time": 6, "note": 58, "velocity": 91, "channel": 0}, {"type": "note_off", "time": 39, "note": 58, "velocity": 91, "channel": 0}, {"type": "note_on", "time": 10, "note": 57, "velocity": 110, "channel": 0}, {"type": "note_off", "time": 47, "note": 57, "velocity": 110, "channel": 0}, {"type": "note_on", "time": 6, "note": 56, "velocity": 107, "channel": 0}, {"type": "note_off", "time": 97, "note": 56, "velocity": 107, "channel": 0}, {"type": "note_on", "time": 165, "note": 58, "velocity": 110, "channel": 0}, {"type": "note_off", "time": 61, "note": 58, "velocity": 110, "channel": 0}, {"type": "note_on", "time": 8, "note": 55, "velocity": 103, "channel": 0}, {"type": "note_off", "time": 94, "note": 55, "velocity": 103, "channel": 0}, {"type": "note_on", "time": 10, "note": 56, "velocity": 105, "channel": 0}, {"type": "note_off", "time": 45, "note": 56, "velocity": 105, "channel": 0}, {"type": "note_on", "time": 29, "note": 65, "velocity": 96, "channel": 0}, {"type": "note_off", "time": 58, "note": 65, "velocity": 96, "channel": 0}, {"type": "note_on", "time": 33, "note": 69, "velocity": 121, "channel": 0}, {"type": "note_off", "time": 260, "note": 69, "velocity": 121, "channel": 0}, {"type": "note_on", "time": 7, "note": 68, "velocity": 114, "channel": 0}, {"type": "note_off", "time": 104, "note": 68, "velocity": 114, "channel": 0}, {"type": "note_on", "time": 5, "note": 67, "velocity": 107, "channel": 0}, {"type": "note_off", "time": 86, "note": 67, "velocity": 107, "channel": 0}, {"type": "note_on", "time": 5, "note": 68, "velocity": 91, "channel": 0}, {"type": "note_off", "time": 99, "note": 68, "velocity": 91, "channel": 0}, {"type": "note_on", "time": 0, "note": 67, "velocity": 87, "channel": 0}, {"type": "note_off", "time": 140, "note": 67, "velocity": 87, "channel": 0}, {"type": "note_on", "time": 5, "note": 69, "velocity": 110, "channel": 0}, {"type": "note_off", "time": 107, "note": 69, "velocity": 110, "channel": 0}, {"type": "note_on", "time": 63, "note": 70, "velocity": 114, "channel": 0}, {"type": "note_off", "time": 68, "note": 70, "velocity": 114, "channel": 0}, {"type": "note_on", "time": 7, "note": 72, "velocity": 120, "channel": 0}, {"type": "note_off", "time": 84, "note": 72, "velocity": 120, "channel": 0}, {"type": "note_on", "time": 5, "note": 74, "velocity": 121, "channel": 0}, {"type": "note_off", "time": 89, "note": 74, "velocity": 121, "channel": 0}, {"type": "note_on", "time": 12, "note": 72, "velocity": 117, "channel": 0}, {"type": "note_off", "time": 178, "note": 72, "velocity": 117, "channel": 0}, {"type": "note_on", "time": 20, "note": 70, "velocity": 108, "channel": 0}, {"type": "note_off", "time": 222, "note": 70, "velocity": 108, "channel": 0}, {"type": "note_on", "time": 2, "note": 69, "velocity": 106, "channel": 0}, {"type": "note_off", "time": 117, "note": 69, "velocity": 106, "channel": 0}, {"type": "note_on", "time": 479, "note": 67, "velocity": 88, "channel": 0}, {"type": "note_off", "time": 62, "note": 67, "velocity": 88, "channel": 0}, {"type": "note_on", "time": 14, "note": 69, "velocity": 89, "channel": 0}, {"type": "note_off", "time": 61, "note": 69, "velocity": 89, "channel": 0}, {"type": "note_on", "time": 0, "note": 70, "velocity": 106, "channel": 0}, {"type": "note_off", "time": 94, "note": 70, "velocity": 106, "channel": 0}, {"type": "note_on", "time": 0, "note": 72, "velocity": 118, "channel": 0}, {"type": "note_off", "time": 84, "note": 72, "velocity": 118, "channel": 0}, {"type": "note_on", "time": 0, "note": 74, "velocity": 118, "channel": 0}, {"type": "note_off", "time": 84, "note": 74, "velocity": 118, "channel": 0}, {"type": "note_on", "time": 5, "note": 75, "velocity": 125, "channel": 0}, {"type": "note_off", "time": 291, "note": 75, "velocity": 125, "channel": 0}, {"type": "note_on", "time": 0, "note": 77, "velocity": 123, "channel": 0}, {"type": "note_off", "time": 199, "note": 77, "velocity": 123, "channel": 0}, {"type": "note_on", "time": 13, "note": 79, "velocity": 125, "channel": 0}, {"type": "note_off", "time": 322, "note": 79, "velocity": 125, "channel": 0}, {"type": "note_on", "time": 4, "note": 80, "velocity": 118, "channel": 0}, {"type": "note_off", "time": 52, "note": 80, "velocity": 118, "channel": 0}, {"type": "note_on", "time": 3, "note": 77, "velocity": 114, "channel": 0}, {"type": "note_off", "time": 37, "note": 77, "velocity": 114, "channel": 0}, {"type": "note_on", "time": 16, "note": 75, "velocity": 124, "channel": 0}, {"type": "note_off", "time": 227, "note": 75, "velocity": 124, "channel": 0}, {"type": "note_on", "time": 25, "note": 72, "velocity": 113, "channel": 0}, {"type": "note_off", "time": 125, "note": 72, "velocity": 113, "channel": 0}, {"type": "note_on", "time": 135, "note": 68, "velocity": 105, "channel": 0}, {"type": "note_off", "time": 104, "note": 68, "velocity": 105, "channel": 0}, {"type": "note_on", "time": 15, "note": 70, "velocity": 118, "channel": 0}, {"type": "note_off", "time": 86, "note": 70, "velocity": 118, "channel": 0}, {"type": "note_on", "time": 10, "note": 72, "velocity": 118, "channel": 0}, {"type": "note_off", "time": 86, "note": 72, "velocity": 118, "channel": 0}, {"type": "note_on", "time": 107, "note": 68, "velocity": 111, "channel": 0}, {"type": "note_off", "time": 74, "note": 68, "velocity": 111, "channel": 0}, {"type": "note_on", "time": 7, "note": 69, "velocity": 111, "channel": 0}, {"type": "note_on", "time": 68, "note": 73, "velocity": 117, "channel": 0}, {"type": "note_off", "time": 0, "note": 69, "velocity": 111, "channel": 0}, {"type": "note_off", "time": 132, "note": 73, "velocity": 117, "channel": 0}, {"type": "note_on", "time": 510, "note": 70, "velocity": 119, "channel": 0}, {"type": "note_off", "time": 97, "note": 70, "velocity": 119, "channel": 0}, {"type": "note_on", "time": 2, "note": 68, "velocity": 97, "channel": 0}, {"type": "note_off", "time": 71, "note": 68, "velocity": 97, "channel": 0}, {"type": "note_on", "time": 0, "note": 69, "velocity": 114, "channel": 0}, {"type": "note_off", "time": 99, "note": 69, "velocity": 114, "channel": 0}, {"type": "note_on", "time": 7, "note": 67, "velocity": 104, "channel": 0}, {"type": "note_off", "time": 61, "note": 67, "velocity": 104, "channel": 0}, {"type": "note_on", "time": 35, "note": 68, "velocity": 101, "channel": 0}, {"type": "note_off", "time": 79, "note": 68, "velocity": 101, "channel": 0}, {"type": "note_on", "time": 10, "note": 67, "velocity": 111, "channel": 0}, {"type": "note_off", "time": 71, "note": 67, "velocity": 111, "channel": 0}, {"type": "note_on", "time": 22, "note": 65, "velocity": 83, "channel": 0}, {"type": "note_off", "time": 76, "note": 65, "velocity": 83, "channel": 0}, {"type": "note_on", "time": 7, "note": 64, "velocity": 85, "channel": 0}, {"type": "note_off", "time": 38, "note": 64, "velocity": 85, "channel": 0}, {"type": "note_on", "time": 5, "note": 65, "velocity": 103, "channel": 0}, {"type": "note_off", "time": 61, "note": 65, "velocity": 103, "channel": 0}, {"type": "note_on", "time": 18, "note": 63, "velocity": 101, "channel": 0}, {"type": "note_off", "time": 66, "note": 63, "velocity": 101, "channel": 0}, {"type": "note_on", "time": 34, "note": 65, "velocity": 109, "channel": 0}, {"type": "note_off", "time": 79, "note": 65, "velocity": 109, "channel": 0}, {"type": "note_on", "time": 21, "note": 67, "velocity": 97, "channel": 0}, {"type": "note_off", "time": 145, "note": 67, "velocity": 97, "channel": 0}, {"type": "note_on", "time": 20, "note": 70, "velocity": 119, "channel": 0}, {"type": "note_off", "time": 102, "note": 70, "velocity": 119, "channel": 0}, {"type": "note_on", "time": 12, "note": 68, "velocity": 93, "channel": 0}, {"type": "note_off", "time": 84, "note": 68, "velocity": 93, "channel": 0}, {"type": "note_on", "time": 10, "note": 69, "velocity": 113, "channel": 0}, {"type": "note_off", "time": 107, "note": 69, "velocity": 113, "channel": 0}, {"type": "note_on", "time": 0, "note": 70, "velocity": 91, "channel": 0}, {"type": "note_off", "time": 56, "note": 70, "velocity": 91, "channel": 0}, {"type": "note_on", "time": 7, "note": 68, "velocity": 113, "channel": 0}, {"type": "note_off", "time": 89, "note": 68, "velocity": 113, "channel": 0}, {"type": "note_on", "time": 20, "note": 70, "velocity": 115, "channel": 0}, {"type": "note_off", "time": 79, "note": 70, "velocity": 115, "channel": 0}, {"type": "note_on", "time": 7, "note": 72, "velocity": 101, "channel": 0}, {"type": "note_off", "time": 79, "note": 72, "velocity": 101, "channel": 0}, {"type": "note_on", "time": 2, "note": 74, "velocity": 110, "channel": 0}, {"type": "note_off", "time": 91, "note": 74, "velocity": 110, "channel": 0}, {"type": "note_on", "time": 10, "note": 77, "velocity": 121, "channel": 0}, {"type": "note_off", "time": 109, "note": 77, "velocity": 121, "channel": 0}, {"type": "note_on", "time": 10, "note": 78, "velocity": 123, "channel": 0}, {"type": "note_off", "time": 56, "note": 78, "velocity": 123, "channel": 0}, {"type": "note_on", "time": 2, "note": 79, "velocity": 117, "channel": 0}, {"type": "note_off", "time": 112, "note": 79, "velocity": 117, "channel": 0}, {"type": "note_on", "time": 10, "note": 78, "velocity": 119, "channel": 0}, {"type": "note_off", "time": 74, "note": 78, "velocity": 119, "channel": 0}, {"type": "note_on", "time": 2, "note": 77, "velocity": 113, "channel": 0}, {"type": "note_off", "time": 86, "note": 77, "velocity": 113, "channel": 0}, {"type": "note_on", "time": 2, "note": 76, "velocity": 119, "channel": 0}, {"type": "note_off", "time": 109, "note": 76, "velocity": 119, "channel": 0}, {"type": "note_on", "time": 5, "note": 75, "velocity": 107, "channel": 0}, {"type": "note_off", "time": 79, "note": 75, "velocity": 107, "channel": 0}, {"type": "note_on", "time": 5, "note": 73, "velocity": 122, "channel": 0}, {"type": "note_off", "time": 102, "note": 73, "velocity": 122, "channel": 0}, {"type": "note_on", "time": 2, "note": 71, "velocity": 99, "channel": 0}, {"type": "note_off", "time": 112, "note": 71, "velocity": 99, "channel": 0}, {"type": "note_on", "time": 469, "note": 70, "velocity": 112, "channel": 0}, {"type": "note_off", "time": 89, "note": 70, "velocity": 112, "channel": 0}, {"type": "note_on", "time": 17, "note": 68, "velocity": 105, "channel": 0}, {"type": "note_off", "time": 91, "note": 68, "velocity": 105, "channel": 0}, {"type": "note_on", "time": 5, "note": 69, "velocity": 121, "channel": 0}, {"type": "note_off", "time": 94, "note": 69, "velocity": 121, "channel": 0}, {"type": "note_on", "time": 0, "note": 65, "velocity": 119, "channel": 0}, {"type": "note_off", "time": 76, "note": 65, "velocity": 119, "channel": 0}, {"type": "note_on", "time": 58, "note": 61, "velocity": 88, "channel": 0}, {"type": "note_off", "time": 76, "note": 61, "velocity": 88, "channel": 0}, {"type": "note_on", "time": 459, "note": 66, "velocity": 113, "channel": 0}, {"type": "note_off", "time": 99, "note": 66, "velocity": 113, "channel": 0}, {"type": "note_on", "time": 28, "note": 62, "velocity": 97, "channel": 0}, {"type": "note_off", "time": 91, "note": 62, "velocity": 97, "channel": 0}, {"type": "note_on", "time": 53, "note": 65, "velocity": 117, "channel": 0}, {"type": "note_off", "time": 94, "note": 65, "velocity": 117, "channel": 0}, {"type": "note_on", "time": 28, "note": 62, "velocity": 93, "channel": 0}, {"type": "note_off", "time": 66, "note": 62, "velocity": 93, "channel": 0}, {"type": "note_on", "time": 7, "note": 64, "velocity": 110, "channel": 0}, {"type": "note_off", "time": 51, "note": 64, "velocity": 110, "channel": 0}, {"type": "note_on", "time": 35, "note": 56, "velocity": 112, "channel": 0}, {"type": "note_off", "time": 125, "note": 56, "velocity": 112, "channel": 0}, {"type": "note_on", "time": 38, "note": 54, "velocity": 100, "channel": 0}, {"type": "note_off", "time": 38, "note": 54, "velocity": 100, "channel": 0}, {"type": "note_on", "time": 7, "note": 56, "velocity": 102, "channel": 0}, {"type": "note_off", "time": 102, "note": 56, "velocity": 102, "channel": 0}, {"type": "note_on", "time": 0, "note": 57, "velocity": 106, "channel": 0}, {"type": "note_off", "time": 48, "note": 57, "velocity": 106, "channel": 0}, {"type": "note_on", "time": 33, "note": 62, "velocity": 106, "channel": 0}, {"type": "note_off", "time": 86, "note": 62, "velocity": 106, "channel": 0}, {"type": "note_on", "time": 20, "note": 64, "velocity": 109, "channel": 0}, {"type": "note_off", "time": 79, "note": 64, "velocity": 109, "channel": 0}, {"type": "note_on", "time": 0, "note": 65, "velocity": 120, "channel": 0}, {"type": "note_off", "time": 94, "note": 65, "velocity": 120, "channel": 0}, {"type": "note_on", "time": 0, "note": 64, "velocity": 116, "channel": 0}, {"type": "note_off", "time": 76, "note": 64, "velocity": 116, "channel": 0}, {"type": "note_on", "time": 7, "note": 63, "velocity": 98, "channel": 0}, {"type": "note_off", "time": 89, "note": 63, "velocity": 98, "channel": 0}, {"type": "note_on", "time": 43, "note": 65, "velocity": 99, "channel": 0}, {"type": "note_off", "time": 89, "note": 65, "velocity": 99, "channel": 0}, {"type": "note_on", "time": 81, "note": 60, "velocity": 96, "channel": 0}, {"type": "note_off", "time": 53, "note": 60, "velocity": 96, "channel": 0}, {"type": "note_on", "time": 20, "note": 62, "velocity": 101, "channel": 0}, {"type": "note_off", "time": 66, "note": 62, "velocity": 101, "channel": 0}, {"type": "note_on", "time": 2, "note": 63, "velocity": 105, "channel": 0}, {"type": "note_off", "time": 58, "note": 63, "velocity": 105, "channel": 0}, {"type": "note_on", "time": 2, "note": 65, "velocity": 113, "channel": 0}, {"type": "note_off", "time": 94, "note": 65, "velocity": 113, "channel": 0}, {"type": "note_on", "time": 5, "note": 67, "velocity": 112, "channel": 0}, {"type": "note_off", "time": 104, "note": 67, "velocity": 112, "channel": 0}, {"type": "note_on", "time": 12, "note": 68, "velocity": 101, "channel": 0}, {"type": "note_off", "time": 61, "note": 68, "velocity": 101, "channel": 0}, {"type": "note_on", "time": 12, "note": 70, "velocity": 121, "channel": 0}, {"type": "note_off", "time": 81, "note": 70, "velocity": 121, "channel": 0}, {"type": "note_on", "time": 11, "note": 69, "velocity": 117, "channel": 0}, {"type": "note_off", "time": 71, "note": 69, "velocity": 117, "channel": 0}, {"type": "note_on", "time": 8, "note": 68, "velocity": 106, "channel": 0}, {"type": "note_off", "time": 81, "note": 68, "velocity": 106, "channel": 0}, {"type": "note_on", "time": 23, "note": 69, "velocity": 116, "channel": 0}, {"type": "note_off", "time": 81, "note": 69, "velocity": 116, "channel": 0}, {"type": "note_on", "time": 53, "note": 71, "velocity": 102, "channel": 0}, {"type": "note_off", "time": 40, "note": 71, "velocity": 102, "channel": 0}, {"type": "note_on", "time": 10, "note": 73, "velocity": 104, "channel": 0}, {"type": "note_off", "time": 63, "note": 73, "velocity": 104, "channel": 0}, {"type": "note_on", "time": 34, "note": 72, "velocity": 114, "channel": 0}, {"type": "note_off", "time": 189, "note": 72, "velocity": 114, "channel": 0}, {"type": "note_on", "time": 12, "note": 74, "velocity": 123, "channel": 0}, {"type": "note_off", "time": 156, "note": 74, "velocity": 123, "channel": 0}, {"type": "note_on", "time": 4, "note": 73, "velocity": 118, "channel": 0}, {"type": "note_off", "time": 50, "note": 73, "velocity": 118, "channel": 0}, {"type": "note_on", "time": 884, "note": 78, "velocity": 127, "channel": 0}, {"type": "note_off", "time": 444, "note": 78, "velocity": 127, "channel": 0}, {"type": "note_on", "time": 17, "note": 75, "velocity": 99, "channel": 0}, {"type": "note_off", "time": 76, "note": 75, "velocity": 99, "channel": 0}, {"type": "note_on", "time": 117, "note": 74, "velocity": 116, "channel": 0}, {"type": "note_off", "time": 140, "note": 74, "velocity": 116, "channel": 0}, {"type": "note_on", "time": 761, "note": 74, "velocity": 120, "channel": 0}, {"type": "note_off", "time": 86, "note": 74, "velocity": 120, "channel": 0}, {"type": "note_on", "time": 7, "note": 75, "velocity": 126, "channel": 0}, {"type": "note_off", "time": 237, "note": 75, "velocity": 126, "channel": 0}, {"type": "note_on", "time": 5, "note": 76, "velocity": 122, "channel": 0}, {"type": "note_off", "time": 420, "note": 76, "velocity": 122, "channel": 0}, {"type": "note_on", "time": 88, "note": 75, "velocity": 125, "channel": 0}, {"type": "note_off", "time": 260, "note": 75, "velocity": 125, "channel": 0}, {"type": "note_on", "time": 5, "note": 74, "velocity": 120, "channel": 0}, {"type": "note_off", "time": 475, "note": 74, "velocity": 120, "channel": 0}, {"type": "note_on", "time": 35, "note": 73, "velocity": 121, "channel": 0}, {"type": "note_off", "time": 104, "note": 73, "velocity": 121, "channel": 0}, {"type": "note_on", "time": 22, "note": 71, "velocity": 111, "channel": 0}, {"type": "note_off", "time": 71, "note": 71, "velocity": 111, "channel": 0}, {"type": "note_on", "time": 20, "note": 72, "velocity": 121, "channel": 0}, {"type": "note_off", "time": 63, "note": 72, "velocity": 121, "channel": 0}, {"type": "note_on", "time": 28, "note": 70, "velocity": 119, "channel": 0}, {"type": "note_off", "time": 68, "note": 70, "velocity": 119, "channel": 0}, {"type": "note_on", "time": 0, "note": 67, "velocity": 106, "channel": 0}, {"type": "note_off", "time": 112, "note": 67, "velocity": 106, "channel": 0}, {"type": "note_on", "time": 28, "note": 69, "velocity": 116, "channel": 0}, {"type": "note_off", "time": 63, "note": 69, "velocity": 116, "channel": 0}, {"type": "note_on", "time": 7, "note": 70, "velocity": 121, "channel": 0}, {"type": "note_off", "time": 81, "note": 70, "velocity": 121, "channel": 0}, {"type": "note_on", "time": 5, "note": 69, "velocity": 118, "channel": 0}, {"type": "note_off", "time": 91, "note": 69, "velocity": 118, "channel": 0}, {"type": "note_on", "time": 5, "note": 68, "velocity": 101, "channel": 0}, {"type": "note_off", "time": 86, "note": 68, "velocity": 101, "channel": 0}, {"type": "note_on", "time": 12, "note": 63, "velocity": 111, "channel": 0}, {"type": "note_off", "time": 91, "note": 63, "velocity": 111, "channel": 0}, {"type": "note_on", "time": 20, "note": 59, "velocity": 94, "channel": 0}, {"type": "note_off", "time": 61, "note": 59, "velocity": 94, "channel": 0}, {"type": "note_on", "time": 34, "note": 56, "velocity": 106, "channel": 0}, {"type": "note_off", "time": 61, "note": 56, "velocity": 106, "channel": 0}, {"type": "note_on", "time": 9, "note": 54, "velocity": 108, "channel": 0}, {"type": "note_off", "time": 78, "note": 54, "velocity": 108, "channel": 0}, {"type": "note_on", "time": 0, "note": 55, "velocity": 109, "channel": 0}, {"type": "note_off", "time": 81, "note": 55, "velocity": 109, "channel": 0}, {"type": "note_on", "time": 20, "note": 56, "velocity": 111, "channel": 0}, {"type": "note_off", "time": 183, "note": 56, "velocity": 111, "channel": 0}, {"type": "note_on", "time": 224, "note": 58, "velocity": 110, "channel": 0}, {"type": "note_off", "time": 100, "note": 58, "velocity": 110, "channel": 0}, {"type": "note_on", "time": 11, "note": 56, "velocity": 102, "channel": 0}, {"type": "note_off", "time": 71, "note": 56, "velocity": 102, "channel": 0}, {"type": "note_on", "time": 26, "note": 57, "velocity": 95, "channel": 0}, {"type": "note_off", "time": 56, "note": 57, "velocity": 95, "channel": 0}, {"type": "note_on", "time": 8, "note": 58, "velocity": 111, "channel": 0}, {"type": "note_off", "time": 89, "note": 58, "velocity": 111, "channel": 0}, {"type": "note_on", "time": 3, "note": 60, "velocity": 81, "channel": 0}, {"type": "note_off", "time": 76, "note": 60, "velocity": 81, "channel": 0}, {"type": "note_on", "time": 43, "note": 69, "velocity": 118, "channel": 0}, {"type": "note_off", "time": 245, "note": 69, "velocity": 118, "channel": 0}, {"type": "note_on", "time": 10, "note": 68, "velocity": 113, "channel": 0}, {"type": "note_off", "time": 81, "note": 68, "velocity": 113, "channel": 0}, {"type": "note_on", "time": 17, "note": 67, "velocity": 94, "channel": 0}, {"type": "note_off", "time": 56, "note": 67, "velocity": 94, "channel": 0}, {"type": "note_on", "time": 45, "note": 69, "velocity": 114, "channel": 0}, {"type": "note_off", "time": 109, "note": 69, "velocity": 114, "channel": 0}, {"type": "note_on", "time": 99, "note": 70, "velocity": 120, "channel": 0}, {"type": "note_off", "time": 89, "note": 70, "velocity": 120, "channel": 0}, {"type": "note_on", "time": 114, "note": 72, "velocity": 125, "channel": 0}, {"type": "note_off", "time": 79, "note": 72, "velocity": 125, "channel": 0}, {"type": "note_on", "time": 2, "note": 74, "velocity": 118, "channel": 0}, {"type": "note_off", "time": 245, "note": 74, "velocity": 118, "channel": 0}, {"type": "note_on", "time": 5, "note": 72, "velocity": 108, "channel": 0}, {"type": "note_off", "time": 365, "note": 72, "velocity": 108, "channel": 0}, {"type": "note_on", "time": 357, "note": 70, "velocity": 111, "channel": 0}, {"type": "note_off", "time": 66, "note": 70, "velocity": 111, "channel": 0}, {"type": "note_on", "time": 17, "note": 69, "velocity": 123, "channel": 0}, {"type": "note_off", "time": 104, "note": 69, "velocity": 123, "channel": 0}, {"type": "note_on", "time": 0, "note": 67, "velocity": 110, "channel": 0}, {"type": "note_off", "time": 255, "note": 67, "velocity": 110, "channel": 0}, {"type": "note_on", "time": 28, "note": 65, "velocity": 116, "channel": 0}, {"type": "note_off", "time": 178, "note": 65, "velocity": 116, "channel": 0}, {"type": "note_on", "time": 48, "note": 63, "velocity": 109, "channel": 0}, {"type": "note_off", "time": 71, "note": 63, "velocity": 109, "channel": 0}, {"type": "note_on", "time": 0, "note": 65, "velocity": 110, "channel": 0}, {"type": "note_off", "time": 130, "note": 65, "velocity": 110, "channel": 0}, {"type": "note_on", "time": 342, "note": 65, "velocity": 116, "channel": 0}, {"type": "note_off", "time": 89, "note": 65, "velocity": 116, "channel": 0}, {"type": "note_on", "time": 38, "note": 62, "velocity": 100, "channel": 0}, {"type": "note_off", "time": 68, "note": 62, "velocity": 100, "channel": 0}, {"type": "note_on", "time": 15, "note": 63, "velocity": 101, "channel": 0}, {"type": "note_off", "time": 38, "note": 63, "velocity": 101, "channel": 0}, {"type": "note_on", "time": 5, "note": 66, "velocity": 117, "channel": 0}, {"type": "note_off", "time": 117, "note": 66, "velocity": 117, "channel": 0}, {"type": "note_on", "time": 2, "note": 67, "velocity": 116, "channel": 0}, {"type": "note_off", "time": 91, "note": 67, "velocity": 116, "channel": 0}, {"type": "note_on", "time": 2, "note": 69, "velocity": 121, "channel": 0}, {"type": "note_off", "time": 117, "note": 69, "velocity": 121, "channel": 0}, {"type": "note_on", "time": 2, "note": 70, "velocity": 123, "channel": 0}, {"type": "note_off", "time": 79, "note": 70, "velocity": 123, "channel": 0}, {"type": "note_on", "time": 2, "note": 69, "velocity": 114, "channel": 0}, {"type": "note_off", "time": 74, "note": 69, "velocity": 114, "channel": 0}, {"type": "note_on", "time": 10, "note": 68, "velocity": 87, "channel": 0}, {"type": "note_off", "time": 76, "note": 68, "velocity": 87, "channel": 0}, {"type": "note_on", "time": 28, "note": 70, "velocity": 119, "channel": 0}, {"type": "note_off", "time": 66, "note": 70, "velocity": 119, "channel": 0}, {"type": "note_on", "time": 25, "note": 71, "velocity": 121, "channel": 0}, {"type": "note_off", "time": 97, "note": 71, "velocity": 121, "channel": 0}, {"type": "note_on", "time": 12, "note": 72, "velocity": 118, "channel": 0}, {"type": "note_off", "time": 298, "note": 72, "velocity": 118, "channel": 0}, {"type": "note_on", "time": 945, "note": 74, "velocity": 10, "channel": 0}, {"type": "note_off", "time": 91, "note": 74, "velocity": 10, "channel": 0}, {"type": "note_on", "time": 62, "note": 73, "velocity": 123, "channel": 0}, {"type": "note_off", "time": 109, "note": 73, "velocity": 123, "channel": 0}, {"type": "note_on", "time": 14, "note": 71, "velocity": 113, "channel": 0}, {"type": "note_off", "time": 109, "note": 71, "velocity": 113, "channel": 0}, {"type": "note_on", "time": 0, "note": 72, "velocity": 121, "channel": 0}, {"type": "note_off", "time": 58, "note": 72, "velocity": 121, "channel": 0}, {"type": "note_on", "time": 12, "note": 70, "velocity": 121, "channel": 0}, {"type": "note_off", "time": 74, "note": 70, "velocity": 121, "channel": 0}, {"type": "note_on", "time": 10, "note": 68, "velocity": 103, "channel": 0}, {"type": "note_off", "time": 99, "note": 68, "velocity": 103, "channel": 0}, {"type": "note_on", "time": 7, "note": 69, "velocity": 119, "channel": 0}, {"type": "note_off", "time": 84, "note": 69, "velocity": 119, "channel": 0}, {"type": "note_on", "time": 2, "note": 70, "velocity": 115, "channel": 0}, {"type": "note_off", "time": 79, "note": 70, "velocity": 115, "channel": 0}, {"type": "note_on", "time": 12, "note": 69, "velocity": 119, "channel": 0}, {"type": "note_off", "time": 99, "note": 69, "velocity": 119, "channel": 0}, {"type": "note_on", "time": 0, "note": 68, "velocity": 110, "channel": 0}, {"type": "note_off", "time": 107, "note": 68, "velocity": 110, "channel": 0}, {"type": "note_on", "time": 12, "note": 63, "velocity": 112, "channel": 0}, {"type": "note_off", "time": 81, "note": 63, "velocity": 112, "channel": 0}, {"type": "note_on", "time": 7, "note": 64, "velocity": 86, "channel": 0}, {"type": "note_off", "time": 68, "note": 64, "velocity": 86, "channel": 0}, {"type": "note_on", "time": 58, "note": 58, "velocity": 108, "channel": 0}, {"type": "note_off", "time": 56, "note": 58, "velocity": 108, "channel": 0}, {"type": "note_on", "time": 22, "note": 56, "velocity": 104, "channel": 0}, {"type": "note_off", "time": 84, "note": 56, "velocity": 104, "channel": 0}, {"type": "note_on", "time": 0, "note": 58, "velocity": 109, "channel": 0}, {"type": "note_off", "time": 79, "note": 58, "velocity": 109, "channel": 0}, {"type": "note_on", "time": 22, "note": 62, "velocity": 103, "channel": 0}, {"type": "note_off", "time": 71, "note": 62, "velocity": 103, "channel": 0}, {"type": "note_on", "time": 25, "note": 63, "velocity": 91, "channel": 0}, {"type": "note_off", "time": 71, "note": 63, "velocity": 91, "channel": 0}, {"type": "note_on", "time": 25, "note": 65, "velocity": 124, "channel": 0}, {"type": "note_off", "time": 104, "note": 65, "velocity": 124, "channel": 0}, {"type": "note_on", "time": 20, "note": 63, "velocity": 106, "channel": 0}, {"type": "note_off", "time": 38, "note": 63, "velocity": 106, "channel": 0}, {"type": "note_on", "time": 35, "note": 64, "velocity": 117, "channel": 0}, {"type": "note_off", "time": 81, "note": 64, "velocity": 117, "channel": 0}, {"type": "note_on", "time": 12, "note": 65, "velocity": 84, "channel": 0}, {"type": "note_off", "time": 86, "note": 65, "velocity": 84, "channel": 0}, {"type": "note_on", "time": 9, "note": 63, "velocity": 110, "channel": 0}, {"type": "note_off", "time": 71, "note": 63, "velocity": 110, "channel": 0}, {"type": "note_on", "time": 122, "note": 64, "velocity": 121, "channel": 0}, {"type": "note_off", "time": 86, "note": 64, "velocity": 121, "channel": 0}, {"type": "note_on", "time": 15, "note": 65, "velocity": 120, "channel": 0}, {"type": "note_off", "time": 109, "note": 65, "velocity": 120, "channel": 0}, {"type": "note_on", "time": 74, "note": 66, "velocity": 118, "channel": 0}, {"type": "note_off", "time": 89, "note": 66, "velocity": 118, "channel": 0}, {"type": "note_on", "time": 84, "note": 67, "velocity": 120, "channel": 0}, {"type": "note_off", "time": 84, "note": 67, "velocity": 120, "channel": 0}, {"type": "note_on", "time": 5, "note": 69, "velocity": 123, "channel": 0}, {"type": "note_off", "time": 97, "note": 69, "velocity": 123, "channel": 0}, {"type": "note_on", "time": 109, "note": 71, "velocity": 125, "channel": 0}, {"type": "note_off", "time": 68, "note": 71, "velocity": 125, "channel": 0}, {"type": "note_on", "time": 12, "note": 70, "velocity": 123, "channel": 0}, {"type": "note_off", "time": 45, "note": 70, "velocity": 123, "channel": 0}, {"type": "note_on", "time": 0, "note": 69, "velocity": 119, "channel": 0}, {"type": "note_off", "time": 58, "note": 69, "velocity": 119, "channel": 0}, {"type": "note_on", "time": 17, "note": 67, "velocity": 115, "channel": 0}, {"type": "note_off", "time": 107, "note": 67, "velocity": 115, "channel": 0}, {"type": "note_on", "time": 81, "note": 68, "velocity": 125, "channel": 0}, {"type": "note_off", "time": 150, "note": 68, "velocity": 125, "channel": 0}, {"type": "note_on", "time": 51, "note": 69, "velocity": 124, "channel": 0}, {"type": "note_off", "time": 99, "note": 69, "velocity": 124, "channel": 0}, {"type": "note_on", "time": 35, "note": 70, "velocity": 123, "channel": 0}, {"type": "note_off", "time": 102, "note": 70, "velocity": 123, "channel": 0}, {"type": "note_on", "time": 28, "note": 71, "velocity": 121, "channel": 0}, {"type": "note_off", "time": 94, "note": 71, "velocity": 121, "channel": 0}, {"type": "note_on", "time": 10, "note": 72, "velocity": 124, "channel": 0}, {"type": "note_off", "time": 86, "note": 72, "velocity": 124, "channel": 0}, {"type": "note_on", "time": 5, "note": 74, "velocity": 122, "channel": 0}, {"type": "note_off", "time": 81, "note": 74, "velocity": 122, "channel": 0}, {"type": "note_on", "time": 7, "note": 75, "velocity": 123, "channel": 0}, {"type": "note_off", "time": 79, "note": 75, "velocity": 123, "channel": 0}, {"type": "note_on", "time": 99, "note": 77, "velocity": 120, "channel": 0}, {"type": "note_off", "time": 194, "note": 77, "velocity": 120, "channel": 0}, {"type": "note_on", "time": 2, "note": 79, "velocity": 118, "channel": 0}, {"type": "note_off", "time": 191, "note": 79, "velocity": 118, "channel": 0}, {"type": "note_on", "time": 2, "note": 77, "velocity": 121, "channel": 0}, {"type": "note_off", "time": 122, "note": 77, "velocity": 121, "channel": 0}, {"type": "note_on", "time": 1818, "note": 77, "velocity": 125, "channel": 0}, {"type": "note_off", "time": 199, "note": 77, "velocity": 125, "channel": 0}, {"type": "note_on", "time": 22, "note": 77, "velocity": 124, "channel": 0}, {"type": "note_on", "time": 280, "note": 79, "velocity": 124, "channel": 0}, {"type": "note_off", "time": 0, "note": 77, "velocity": 124, "channel": 0}, {"type": "note_off", "time": 349, "note": 79, "velocity": 124, "channel": 0}, {"type": "note_on", "time": 132, "note": 77, "velocity": 121, "channel": 0}, {"type": "note_off", "time": 84, "note": 77, "velocity": 121, "channel": 0}, {"type": "note_on", "time": 84, "note": 75, "velocity": 123, "channel": 0}, {"type": "note_off", "time": 104, "note": 75, "velocity": 123, "channel": 0}, {"type": "note_on", "time": 477, "note": 77, "velocity": 124, "channel": 0}, {"type": "note_off", "time": 91, "note": 77, "velocity": 124, "channel": 0}, {"type": "note_on", "time": 2, "note": 79, "velocity": 119, "channel": 0}, {"type": "note_off", "time": 94, "note": 79, "velocity": 119, "channel": 0}, {"type": "note_on", "time": 81, "note": 77, "velocity": 122, "channel": 0}, {"type": "note_off", "time": 337, "note": 77, "velocity": 122, "channel": 0}, {"type": "note_on", "time": 7, "note": 74, "velocity": 108, "channel": 0}, {"type": "note_off", "time": 112, "note": 74, "velocity": 108, "channel": 0}, {"type": "note_on", "time": 43, "note": 71, "velocity": 118, "channel": 0}, {"type": "note_off", "time": 99, "note": 71, "velocity": 118, "channel": 0}, {"type": "note_on", "time": 97, "note": 67, "velocity": 119, "channel": 0}, {"type": "note_off", "time": 89, "note": 67, "velocity": 119, "channel": 0}, {"type": "note_on", "time": 485, "note": 70, "velocity": 118, "channel": 0}, {"type": "note_off", "time": 81, "note": 70, "velocity": 118, "channel": 0}, {"type": "note_on", "time": 15, "note": 67, "velocity": 109, "channel": 0}, {"type": "note_off", "time": 66, "note": 67, "velocity": 109, "channel": 0}, {"type": "note_on", "time": 20, "note": 68, "velocity": 111, "channel": 0}, {"type": "note_off", "time": 74, "note": 68, "velocity": 111, "channel": 0}, {"type": "note_on", "time": 33, "note": 70, "velocity": 119, "channel": 0}, {"type": "note_off", "time": 87, "note": 70, "velocity": 119, "channel": 0}, {"type": "note_on", "time": 14, "note": 72, "velocity": 110, "channel": 0}, {"type": "note_off", "time": 66, "note": 72, "velocity": 110, "channel": 0}, {"type": "note_on", "time": 5, "note": 74, "velocity": 110, "channel": 0}, {"type": "note_off", "time": 84, "note": 74, "velocity": 110, "channel": 0}, {"type": "note_on", "time": 15, "note": 77, "velocity": 119, "channel": 0}, {"type": "note_off", "time": 81, "note": 77, "velocity": 119, "channel": 0}, {"type": "note_on", "time": 17, "note": 78, "velocity": 124, "channel": 0}, {"type": "note_off", "time": 91, "note": 78, "velocity": 124, "channel": 0}, {"type": "note_on", "time": 7, "note": 79, "velocity": 117, "channel": 0}, {"type": "note_off", "time": 97, "note": 79, "velocity": 117, "channel": 0}, {"type": "note_on", "time": 22, "note": 78, "velocity": 122, "channel": 0}, {"type": "note_off", "time": 67, "note": 78, "velocity": 122, "channel": 0}, {"type": "note_on", "time": 9, "note": 77, "velocity": 117, "channel": 0}, {"type": "note_off", "time": 82, "note": 77, "velocity": 117, "channel": 0}, {"type": "note_on", "time": 19, "note": 76, "velocity": 122, "channel": 0}, {"type": "note_off", "time": 86, "note": 76, "velocity": 122, "channel": 0}, {"type": "note_on", "time": 10, "note": 75, "velocity": 121, "channel": 0}, {"type": "note_off", "time": 58, "note": 75, "velocity": 121, "channel": 0}, {"type": "note_on", "time": 15, "note": 73, "velocity": 119, "channel": 0}, {"type": "note_off", "time": 89, "note": 73, "velocity": 119, "channel": 0}, {"type": "note_on", "time": 5, "note": 71, "velocity": 115, "channel": 0}, {"type": "note_off", "time": 66, "note": 71, "velocity": 115, "channel": 0}, {"type": "note_on", "time": 30, "note": 68, "velocity": 101, "channel": 0}, {"type": "note_off", "time": 91, "note": 68, "velocity": 101, "channel": 0}, {"type": "note_on", "time": 5, "note": 70, "velocity": 122, "channel": 0}, {"type": "note_off", "time": 89, "note": 70, "velocity": 122, "channel": 0}, {"type": "note_on", "time": 5, "note": 69, "velocity": 122, "channel": 0}, {"type": "note_off", "time": 86, "note": 69, "velocity": 122, "channel": 0}, {"type": "note_on", "time": 5, "note": 68, "velocity": 117, "channel": 0}, {"type": "note_off", "time": 76, "note": 68, "velocity": 117, "channel": 0}, {"type": "note_on", "time": 33, "note": 63, "velocity": 108, "channel": 0}, {"type": "note_off", "time": 107, "note": 63, "velocity": 108, "channel": 0}, {"type": "note_on", "time": 961, "note": 70, "velocity": 112, "channel": 0}, {"type": "note_off", "time": 45, "note": 70, "velocity": 112, "channel": 0}, {"type": "note_on", "time": 33, "note": 72, "velocity": 101, "channel": 0}, {"type": "note_off", "time": 83, "note": 72, "velocity": 101, "channel": 0}, {"type": "note_on", "time": 4, "note": 74, "velocity": 92, "channel": 0}, {"type": "note_off", "time": 79, "note": 74, "velocity": 92, "channel": 0}, {"type": "note_on", "time": 11, "note": 77, "velocity": 115, "channel": 0}, {"type": "note_off", "time": 72, "note": 77, "velocity": 115, "channel": 0}, {"type": "note_on", "time": 28, "note": 76, "velocity": 108, "channel": 0}, {"type": "note_off", "time": 89, "note": 76, "velocity": 108, "channel": 0}, {"type": "note_on", "time": 7, "note": 77, "velocity": 123, "channel": 0}, {"type": "note_off", "time": 107, "note": 77, "velocity": 123, "channel": 0}, {"type": "note_on", "time": 2, "note": 79, "velocity": 120, "channel": 0}, {"type": "note_off", "time": 74, "note": 79, "velocity": 120, "channel": 0}, {"type": "note_on", "time": 14, "note": 79, "velocity": 114, "channel": 0}, {"type": "note_off", "time": 87, "note": 79, "velocity": 114, "channel": 0}, {"type": "note_on", "time": 12, "note": 71, "velocity": 111, "channel": 0}, {"type": "note_off", "time": 122, "note": 71, "velocity": 111, "channel": 0}, {"type": "note_on", "time": 490, "note": 70, "velocity": 121, "channel": 0}, {"type": "note_off", "time": 84, "note": 70, "velocity": 121, "channel": 0}, {"type": "note_on", "time": 15, "note": 67, "velocity": 108, "channel": 0}, {"type": "note_off", "time": 94, "note": 67, "velocity": 108, "channel": 0}, {"type": "note_on", "time": 7, "note": 68, "velocity": 105, "channel": 0}, {"type": "note_off", "time": 38, "note": 68, "velocity": 105, "channel": 0}, {"type": "note_on", "time": 30, "note": 70, "velocity": 117, "channel": 0}, {"type": "note_off", "time": 91, "note": 70, "velocity": 117, "channel": 0}, {"type": "note_on", "time": 7, "note": 65, "velocity": 85, "channel": 0}, {"type": "note_off", "time": 89, "note": 65, "velocity": 85, "channel": 0}, {"type": "note_on", "time": 5, "note": 70, "velocity": 112, "channel": 0}, {"type": "note_off", "time": 89, "note": 70, "velocity": 112, "channel": 0}, {"type": "note_on", "time": 5, "note": 67, "velocity": 97, "channel": 0}, {"type": "note_off", "time": 84, "note": 67, "velocity": 97, "channel": 0}, {"type": "note_on", "time": 0, "note": 69, "velocity": 106, "channel": 0}, {"type": "note_off", "time": 102, "note": 69, "velocity": 106, "channel": 0}, {"type": "note_on", "time": 10, "note": 66, "velocity": 99, "channel": 0}, {"type": "note_off", "time": 148, "note": 66, "velocity": 99, "channel": 0}, {"type": "note_on", "time": 53, "note": 65, "velocity": 119, "channel": 0}, {"type": "note_off", "time": 99, "note": 65, "velocity": 119, "channel": 0}, {"type": "note_on", "time": 7, "note": 63, "velocity": 98, "channel": 0}, {"type": "note_off", "time": 56, "note": 63, "velocity": 98, "channel": 0}, {"type": "note_on", "time": 10, "note": 64, "velocity": 106, "channel": 0}, {"type": "note_off", "time": 86, "note": 64, "velocity": 106, "channel": 0}, {"type": "note_on", "time": 2, "note": 62, "velocity": 89, "channel": 0}, {"type": "note_off", "time": 63, "note": 62, "velocity": 89, "channel": 0}, {"type": "note_on", "time": 38, "note": 63, "velocity": 100, "channel": 0}, {"type": "note_off", "time": 76, "note": 63, "velocity": 100, "channel": 0}, {"type": "note_on", "time": 10, "note": 65, "velocity": 113, "channel": 0}, {"type": "note_off", "time": 89, "note": 65, "velocity": 113, "channel": 0}, {"type": "note_on", "time": 114, "note": 65, "velocity": 117, "channel": 0}, {"type": "note_off", "time": 74, "note": 65, "velocity": 117, "channel": 0}, {"type": "note_on", "time": 234, "note": 62, "velocity": 102, "channel": 0}, {"type": "note_off", "time": 109, "note": 62, "velocity": 102, "channel": 0}, {"type": "note_on", "time": 242, "note": 65, "velocity": 108, "channel": 0}, {"type": "note_off", "time": 125, "note": 65, "velocity": 108, "channel": 0}, {"type": "note_on", "time": 206, "note": 67, "velocity": 113, "channel": 0}, {"type": "note_off", "time": 104, "note": 67, "velocity": 113, "channel": 0}, {"type": "note_on", "time": 326, "note": 69, "velocity": 105, "channel": 0}, {"type": "note_off", "time": 104, "note": 69, "velocity": 105, "channel": 0}, {"type": "note_on", "time": 291, "note": 70, "velocity": 120, "channel": 0}, {"type": "note_off", "time": 265, "note": 70, "velocity": 120, "channel": 0}, {"type": "note_on", "time": 5, "note": 71, "velocity": 123, "channel": 0}, {"type": "note_off", "time": 117, "note": 71, "velocity": 123, "channel": 0}, {"type": "note_on", "time": 25, "note": 70, "velocity": 118, "channel": 0}, {"type": "note_off", "time": 229, "note": 70, "velocity": 118, "channel": 0}, {"type": "note_on", "time": 12, "note": 69, "velocity": 106, "channel": 0}, {"type": "note_off", "time": 97, "note": 69, "velocity": 106, "channel": 0}, {"type": "note_on", "time": 12, "note": 70, "velocity": 119, "channel": 0}, {"type": "note_off", "time": 97, "note": 70, "velocity": 119, "channel": 0}, {"type": "note_on", "time": 5, "note": 68, "velocity": 107, "channel": 0}, {"type": "note_off", "time": 79, "note": 68, "velocity": 107, "channel": 0}, {"type": "note_on", "time": 7, "note": 69, "velocity": 120, "channel": 0}, {"type": "note_off", "time": 76, "note": 69, "velocity": 120, "channel": 0}, {"type": "note_on", "time": 17, "note": 67, "velocity": 103, "channel": 0}, {"type": "note_off", "time": 79, "note": 67, "velocity": 103, "channel": 0}, {"type": "note_on", "time": 5, "note": 68, "velocity": 117, "channel": 0}, {"type": "note_off", "time": 120, "note": 68, "velocity": 117, "channel": 0}, {"type": "note_on", "time": 91, "note": 64, "velocity": 114, "channel": 0}, {"type": "note_off", "time": 107, "note": 64, "velocity": 114, "channel": 0}, {"type": "note_on", "time": 7, "note": 62, "velocity": 107, "channel": 0}, {"type": "note_off", "time": 84, "note": 62, "velocity": 107, "channel": 0}, {"type": "note_on", "time": 2, "note": 63, "velocity": 112, "channel": 0}, {"type": "note_off", "time": 66, "note": 63, "velocity": 112, "channel": 0}, {"type": "note_on", "time": 7, "note": 65, "velocity": 116, "channel": 0}, {"type": "note_off", "time": 91, "note": 65, "velocity": 116, "channel": 0}, {"type": "note_on", "time": 0, "note": 67, "velocity": 112, "channel": 0}, {"type": "note_off", "time": 125, "note": 67, "velocity": 112, "channel": 0}, {"type": "note_on", "time": 17, "note": 69, "velocity": 117, "channel": 0}, {"type": "note_off", "time": 63, "note": 69, "velocity": 117, "channel": 0}, {"type": "note_on", "time": 10, "note": 70, "velocity": 123, "channel": 0}, {"type": "note_off", "time": 79, "note": 70, "velocity": 123, "channel": 0}, {"type": "note_on", "time": 0, "note": 69, "velocity": 120, "channel": 0}, {"type": "note_off", "time": 81, "note": 69, "velocity": 120, "channel": 0}, {"type": "note_on", "time": 12, "note": 70, "velocity": 101, "channel": 0}, {"type": "note_off", "time": 33, "note": 70, "velocity": 101, "channel": 0}, {"type": "note_on", "time": 7, "note": 71, "velocity": 110, "channel": 0}, {"type": "note_off", "time": 36, "note": 71, "velocity": 110, "channel": 0}, {"type": "note_on", "time": 12, "note": 70, "velocity": 123, "channel": 0}, {"type": "note_off", "time": 89, "note": 70, "velocity": 123, "channel": 0}, {"type": "note_on", "time": 15, "note": 71, "velocity": 110, "channel": 0}, {"type": "note_off", "time": 74, "note": 71, "velocity": 110, "channel": 0}, {"type": "note_on", "time": 12, "note": 73, "velocity": 123, "channel": 0}, {"type": "note_off", "time": 81, "note": 73, "velocity": 123, "channel": 0}, {"type": "note_on", "time": 2, "note": 75, "velocity": 114, "channel": 0}, {"type": "note_off", "time": 76, "note": 75, "velocity": 114, "channel": 0}, {"type": "note_on", "time": 22, "note": 77, "velocity": 120, "channel": 0}, {"type": "note_off", "time": 84, "note": 77, "velocity": 120, "channel": 0}, {"type": "note_on", "time": 79, "note": 79, "velocity": 126, "channel": 0}, {"type": "note_off", "time": 183, "note": 79, "velocity": 126, "channel": 0}, {"type": "note_on", "time": 7, "note": 77, "velocity": 119, "channel": 0}, {"type": "note_off", "time": 79, "note": 77, "velocity": 119, "channel": 0}, {"type": "note_on", "time": 10, "note": 76, "velocity": 122, "channel": 0}, {"type": "note_off", "time": 43, "note": 76, "velocity": 122, "channel": 0}, {"type": "note_on", "time": 7, "note": 75, "velocity": 124, "channel": 0}, {"type": "note_off", "time": 224, "note": 75, "velocity": 124, "channel": 0}, {"type": "note_on", "time": 35, "note": 73, "velocity": 112, "channel": 0}, {"type": "note_off", "time": 81, "note": 73, "velocity": 112, "channel": 0}, {"type": "note_on", "time": 22, "note": 71, "velocity": 98, "channel": 0}, {"type": "note_off", "time": 143, "note": 71, "velocity": 98, "channel": 0}, {"type": "note_on", "time": 114, "note": 70, "velocity": 99, "channel": 0}, {"type": "note_off", "time": 63, "note": 70, "velocity": 99, "channel": 0}, {"type": "note_on", "time": 25, "note": 69, "velocity": 93, "channel": 0}, {"type": "note_off", "time": 56, "note": 69, "velocity": 93, "channel": 0}, {"type": "note_on", "time": 40, "note": 68, "velocity": 89, "channel": 0}, {"type": "note_off", "time": 40, "note": 68, "velocity": 89, "channel": 0}, {"type": "note_on", "time": 17, "note": 67, "velocity": 87, "channel": 0}, {"type": "note_off", "time": 51, "note": 67, "velocity": 87, "channel": 0}, {"type": "note_on", "time": 35, "note": 62, "velocity": 82, "channel": 0}, {"type": "note_off", "time": 117, "note": 62, "velocity": 82, "channel": 0}, {"type": "note_on", "time": 5, "note": 58, "velocity": 93, "channel": 0}, {"type": "note_off", "time": 86, "note": 58, "velocity": 93, "channel": 0}, {"type": "note_on", "time": 0, "note": 56, "velocity": 91, "channel": 0}, {"type": "note_off", "time": 45, "note": 56, "velocity": 91, "channel": 0}, {"type": "end_of_track", "time": 0}]]}