{"ticks_per_beat": 840, "tracks": [[{"type": "track_name", "name": "Melody", "time": 0}, {"type": "set_tempo", "tempo": 472440, "time": 0}, {"type": "key_signature", "key": "F", "time": 0}, {"type": "time_signature", "numerator": 4, "denominator": 4, "clocks_per_click": 24, "notated_32nd_notes_per_beat": 8, "time": 0}, {"type": "note_on", "time": 9475, "note": 73, "velocity": 86, "channel": 0}, {"type": "note_off", "time": 210, "note": 73, "velocity": 86, "channel": 0}, {"type": "note_on", "time": 21, "note": 74, "velocity": 91, "channel": 0}, {"type": "note_off", "time": 174, "note": 74, "velocity": 91, "channel": 0}, {"type": "note_on", "time": 94, "note": 72, "velocity": 82, "channel": 0}, {"type": "note_off", "time": 297, "note": 72, "velocity": 82, "channel": 0}, {"type": "note_on", "time": 131, "note": 69, "velocity": 74, "channel": 0}, {"type": "note_off", "time": 399, "note": 69, "velocity": 74, "channel": 0}, {"type": "note_on", "time": 44, "note": 65, "velocity": 84, "channel": 0}, {"type": "note_off", "time": 210, "note": 65, "velocity": 84, "channel": 0}, {"type": "note_on", "time": 252, "note": 70, "velocity": 102, "channel": 0}, {"type": "note_off", "time": 341, "note": 70, "velocity": 102, "channel": 0}, {"type": "note_on", "time": 87, "note": 69, "velocity": 98, "channel": 0}, {"type": "note_off", "time": 290, "note": 69, "velocity": 98, "channel": 0}, {"type": "note_on", "time": 449, "note": 65, "velocity": 90, "channel": 0}, {"type": "note_off", "time": 1959, "note": 65, "velocity": 90, "channel": 0}, {"type": "note_on", "time": 1864, "note": 65, "velocity": 80, "channel": 0}, {"type": "note_off", "time": 221, "note": 65, "velocity": 80, "channel": 0}, {"type": "note_on", "time": 261, "note": 65, "velocity": 91, "channel": 0}, {"type": "note_off", "time": 899, "note": 65, "velocity": 91, "channel": 0}, {"type": "note_on", "time": 242, "note": 69, "velocity": 89, "channel": 0}, {"type": "note_off", "time": 170, "note": 69, "velocity": 89, "channel": 0}, {"type": "note_on", "time": 5, "note": 70, "velocity": 103, "channel": 0}, {"type": "note_off", "time": 170, "note": 70, "velocity": 103, "channel": 0}, {"type": "note_on", "time": 10, "note": 69, "velocity": 96, "channel": 0}, {"type": "note_off", "time": 566, "note": 69, "velocity": 96, "channel": 0}, {"type": "note_on", "time": 47, "note": 65, "velocity": 88, "channel": 0}, {"type": "note_off", "time": 772, "note": 65, "velocity": 88, "channel": 0}, {"type": "note_on", "time": 72, "note": 65, "velocity": 91, "channel": 0}, {"type": "note_off", "time": 197, "note": 65, "velocity": 91, "channel": 0}, {"type": "note_on", "time": 87, "note": 63, "velocity": 79, "channel": 0}, {"type": "note_off", "time": 1357, "note": 63, "velocity": 79, "channel": 0}, {"type": "note_on", "time": 3807, "note": 60, "velocity": 73, "channel": 0}, {"type": "note_off", "time": 174, "note": 60, "velocity": 73, "channel": 0}, {"type": "note_on", "time": 291, "note": 65, "velocity": 96, "channel": 0}, {"type": "note_off", "time": 283, "note": 65, "velocity": 96, "channel": 0}, {"type": "note_on", "time": 165, "note": 68, "velocity": 98, "channel": 0}, {"type": "note_off", "time": 312, "note": 68, "velocity": 98, "channel": 0}, {"type": "note_on", "time": 79, "note": 71, "velocity": 110, "channel": 0}, {"type": "note_off", "time": 341, "note": 71, "velocity": 110, "channel": 0}, {"type": "note_on", "time": 170, "note": 74, "velocity": 106, "channel": 0}, {"type": "note_off", "time": 438, "note": 74, "velocity": 106, "channel": 0}, {"type": "note_on", "time": 204, "note": 77, "velocity": 111, "channel": 0}, {"type": "note_off", "time": 290, "note": 77, "velocity": 111, "channel": 0}, {"type": "note_on", "time": 899, "note": 76, "velocity": 94, "channel": 0}, {"type": "note_off", "time": 381, "note": 76, "velocity": 94, "channel": 0}, {"type": "note_on", "time": 47, "note": 72, "velocity": 99, "channel": 0}, {"type": "note_off", "time": 326, "note": 72, "velocity": 99, "channel": 0}, {"type": "note_on", "time": 486, "note": 68, "velocity": 93, "channel": 0}, {"type": "note_off", "time": 711, "note": 68, "velocity": 93, "channel": 0}, {"type": "note_on", "time": 79, "note": 65, "velocity": 89, "channel": 0}, {"type": "note_off", "time": 319, "note": 65, "velocity": 89, "channel": 0}, {"type": "note_on", "time": 333, "note": 69, "velocity": 82, "channel": 0}, {"type": "note_off", "time": 558, "note": 69, "velocity": 82, "channel": 0}, {"type": "note_on", "time": 21, "note": 70, "velocity": 99, "channel": 0}, {"type": "note_off", "time": 333, "note": 70, "velocity": 99, "channel": 0}, {"type": "note_on", "time": 137, "note": 69, "velocity": 93, "channel": 0}, {"type": "note_off", "time": 319, "note": 69, "velocity": 93, "channel": 0}, {"type": "note_on", "time": 169, "note": 65, "velocity": 91, "channel": 0}, {"type": "note_off", "time": 319, "note": 65, "velocity": 91, "channel": 0}, {"type": "note_on", "time": 36, "note": 60, "velocity": 70, "channel": 0}, {"type": "note_off", "time": 701, "note": 60, "velocity": 70, "channel": 0}, {"type": "note_on", "time": 25, "note": 62, "velocity": 78, "channel": 0}, {"type": "note_off", "time": 98, "note": 62, "velocity": 78, "channel": 0}, {"type": "note_on", "time": 41, "note": 64, "velocity": 83, "channel": 0}, {"type": "note_off", "time": 423, "note": 64, "velocity": 83, "channel": 0}, {"type": "note_on", "time": 41, "note": 67, "velocity": 100, "channel": 0}, {"type": "note_off", "time": 273, "note": 67, "velocity": 100, "channel": 0}, {"type": "note_on", "time": 2193, "note": 75, "velocity": 106, "channel": 0}, {"type": "note_off", "time": 350, "note": 75, "velocity": 106, "channel": 0}, {"type": "note_on", "time": 30, "note": 74, "velocity": 103, "channel": 0}, {"type": "note_off", "time": 304, "note": 74, "velocity": 103, "channel": 0}, {"type": "note_on", "time": 159, "note": 72, "velocity": 105, "channel": 0}, {"type": "note_off", "time": 428, "note": 72, "velocity": 105, "channel": 0}, {"type": "note_on", "time": 20, "note": 70, "velocity": 89, "channel": 0}, {"type": "note_off", "time": 784, "note": 70, "velocity": 89, "channel": 0}, {"type": "note_on", "time": 295, "note": 69, "velocity": 99, "channel": 0}, {"type": "note_off", "time": 195, "note": 69, "velocity": 99, "channel": 0}, {"type": "note_on", "time": 29, "note": 70, "velocity": 104, "channel": 0}, {"type": "note_off", "time": 247, "note": 70, "velocity": 104, "channel": 0}, {"type": "note_on", "time": 82, "note": 66, "velocity": 97, "channel": 0}, {"type": "note_off", "time": 216, "note": 66, "velocity": 97, "channel": 0}, {"type": "note_on", "time": 1527, "note": 71, "velocity": 83, "channel": 0}, {"type": "note_off", "time": 170, "note": 71, "velocity": 83, "channel": 0}, {"type": "note_on", "time": 216, "note": 69, "velocity": 103, "channel": 0}, {"type": "note_off", "time": 268, "note": 69, "velocity": 103, "channel": 0}, {"type": "note_on", "time": 118, "note": 70, "velocity": 105, "channel": 0}, {"type": "note_off", "time": 278, "note": 70, "velocity": 105, "channel": 0}, {"type": "note_on", "time": 190, "note": 72, "velocity": 110, "channel": 0}, {"type": "note_off", "time": 361, "note": 72, "velocity": 110, "channel": 0}, {"type": "note_on", "time": 30, "note": 73, "velocity": 106, "channel": 0}, {"type": "note_off", "time": 258, "note": 73, "velocity": 106, "channel": 0}, {"type": "note_on", "time": 20, "note": 74, "velocity": 104, "channel": 0}, {"type": "note_off", "time": 165, "note": 74, "velocity": 104, "channel": 0}, {"type": "note_on", "time": 20, "note": 73, "velocity": 106, "channel": 0}, {"type": "note_off", "time": 239, "note": 73, "velocity": 106, "channel": 0}, {"type": "note_on", "time": 40, "note": 72, "velocity": 96, "channel": 0}, {"type": "note_off", "time": 326, "note": 72, "velocity": 96, "channel": 0}, {"type": "note_on", "time": 146, "note": 70, "velocity": 104, "channel": 0}, {"type": "note_off", "time": 263, "note": 70, "velocity": 104, "channel": 0}, {"type": "note_on", "time": 149, "note": 69, "velocity": 101, "channel": 0}, {"type": "note_off", "time": 340, "note": 69, "velocity": 101, "channel": 0}, {"type": "note_on", "time": 6, "note": 65, "velocity": 95, "channel": 0}, {"type": "note_off", "time": 254, "note": 65, "velocity": 95, "channel": 0}, {"type": "note_on", "time": 28, "note": 60, "velocity": 84, "channel": 0}, {"type": "note_off", "time": 340, "note": 60, "velocity": 84, "channel": 0}, {"type": "note_on", "time": 552, "note": 63, "velocity": 91, "channel": 0}, {"type": "note_off", "time": 254, "note": 63, "velocity": 91, "channel": 0}, {"type": "note_on", "time": 29, "note": 65, "velocity": 91, "channel": 0}, {"type": "note_off", "time": 820, "note": 65, "velocity": 91, "channel": 0}, {"type": "note_on", "time": 26, "note": 65, "velocity": 91, "channel": 0}, {"type": "note_off", "time": 185, "note": 65, "velocity": 91, "channel": 0}, {"type": "note_on", "time": 51, "note": 65, "velocity": 104, "channel": 0}, {"type": "note_off", "time": 206, "note": 65, "velocity": 104, "channel": 0}, {"type": "note_on", "time": 4254, "note": 65, "velocity": 78, "channel": 0}, {"type": "note_off", "time": 145, "note": 65, "velocity": 78, "channel": 0}, {"type": "note_on", "time": 36, "note": 67, "velocity": 79, "channel": 0}, {"type": "note_off", "time": 203, "note": 67, "velocity": 79, "channel": 0}, {"type": "note_on", "time": 36, "note": 69, "velocity": 100, "channel": 0}, {"type": "note_off", "time": 239, "note": 69, "velocity": 100, "channel": 0}, {"type": "note_on", "time": 34, "note": 70, "velocity": 104, "channel": 0}, {"type": "note_off", "time": 159, "note": 70, "velocity": 104, "channel": 0}, {"type": "note_on", "time": 183, "note": 72, "velocity": 99, "channel": 0}, {"type": "note_off", "time": 210, "note": 72, "velocity": 99, "channel": 0}, {"type": "note_on", "time": 43, "note": 73, "velocity": 103, "channel": 0}, {"type": "note_off", "time": 254, "note": 73, "velocity": 103, "channel": 0}, {"type": "note_on", "time": 645, "note": 77, "velocity": 81, "channel": 0}, {"type": "note_off", "time": 217, "note": 77, "velocity": 81, "channel": 0}, {"type": "note_on", "time": 631, "note": 77, "velocity": 110, "channel": 0}, {"type": "note_off", "time": 297, "note": 77, "velocity": 110, "channel": 0}, {"type": "note_on", "time": 558, "note": 76, "velocity": 103, "channel": 0}, {"type": "note_off", "time": 275, "note": 76, "velocity": 103, "channel": 0}, {"type": "note_on", "time": 43, "note": 74, "velocity": 92, "channel": 0}, {"type": "note_off", "time": 355, "note": 74, "velocity": 92, "channel": 0}, {"type": "note_on", "time": 420, "note": 76, "velocity": 107, "channel": 0}, {"type": "note_off", "time": 297, "note": 76, "velocity": 107, "channel": 0}, {"type": "note_on", "time": 602, "note": 72, "velocity": 82, "channel": 0}, {"type": "note_off", "time": 507, "note": 72, "velocity": 82, "channel": 0}, {"type": "note_on", "time": 29, "note": 72, "velocity": 97, "channel": 0}, {"type": "note_off", "time": 174, "note": 72, "velocity": 97, "channel": 0}, {"type": "note_on", "time": 108, "note": 69, "velocity": 86, "channel": 0}, {"type": "note_off", "time": 580, "note": 69, "velocity": 86, "channel": 0}, {"type": "note_on", "time": 17, "note": 65, "velocity": 67, "channel": 0}, {"type": "note_off", "time": 130, "note": 65, "velocity": 67, "channel": 0}, {"type": "note_on", "time": 11, "note": 67, "velocity": 75, "channel": 0}, {"type": "note_off", "time": 638, "note": 67, "velocity": 75, "channel": 0}, {"type": "note_on", "time": 7, "note": 69, "velocity": 107, "channel": 0}, {"type": "note_off", "time": 217, "note": 69, "velocity": 107, "channel": 0}, {"type": "note_on", "time": 3731, "note": 75, "velocity": 79, "channel": 0}, {"type": "note_off", "time": 72, "note": 75, "velocity": 79, "channel": 0}, {"type": "note_on", "time": 13, "note": 74, "velocity": 111, "channel": 0}, {"type": "note_off", "time": 217, "note": 74, "velocity": 111, "channel": 0}, {"type": "note_on", "time": 29, "note": 72, "velocity": 93, "channel": 0}, {"type": "note_off", "time": 428, "note": 72, "velocity": 93, "channel": 0}, {"type": "note_on", "time": 101, "note": 68, "velocity": 99, "channel": 0}, {"type": "note_off", "time": 246, "note": 68, "velocity": 99, "channel": 0}, {"type": "note_on", "time": 945, "note": 68, "velocity": 93, "channel": 0}, {"type": "note_off", "time": 521, "note": 68, "velocity": 93, "channel": 0}, {"type": "note_on", "time": 41, "note": 64, "velocity": 95, "channel": 0}, {"type": "note_off", "time": 154, "note": 64, "velocity": 95, "channel": 0}, {"type": "note_on", "time": 815, "note": 64, "velocity": 85, "channel": 0}, {"type": "note_off", "time": 557, "note": 64, "velocity": 85, "channel": 0}, {"type": "note_on", "time": 5, "note": 60, "velocity": 84, "channel": 0}, {"type": "note_off", "time": 261, "note": 60, "velocity": 84, "channel": 0}, {"type": "note_on", "time": 775, "note": 60, "velocity": 82, "channel": 0}, {"type": "note_off", "time": 521, "note": 60, "velocity": 82, "channel": 0}, {"type": "note_on", "time": 123, "note": 56, "velocity": 95, "channel": 0}, {"type": "note_off", "time": 278, "note": 56, "velocity": 95, "channel": 0}, {"type": "note_on", "time": 2317, "note": 60, "velocity": 79, "channel": 0}, {"type": "note_off", "time": 134, "note": 60, "velocity": 79, "channel": 0}, {"type": "note_on", "time": 254, "note": 65, "velocity": 97, "channel": 0}, {"type": "note_off", "time": 254, "note": 65, "velocity": 97, "channel": 0}, {"type": "note_on", "time": 87, "note": 67, "velocity": 100, "channel": 0}, {"type": "note_off", "time": 261, "note": 67, "velocity": 100, "channel": 0}, {"type": "note_on", "time": 137, "note": 69, "velocity": 107, "channel": 0}, {"type": "note_off", "time": 312, "note": 69, "velocity": 107, "channel": 0}, {"type": "note_on", "time": 71, "note": 70, "velocity": 106, "channel": 0}, {"type": "note_off", "time": 350, "note": 70, "velocity": 106, "channel": 0}, {"type": "note_on", "time": 71, "note": 72, "velocity": 108, "channel": 0}, {"type": "note_off", "time": 312, "note": 72, "velocity": 108, "channel": 0}, {"type": "note_on", "time": 130, "note": 74, "velocity": 113, "channel": 0}, {"type": "note_off", "time": 406, "note": 74, "velocity": 113, "channel": 0}, {"type": "note_on", "time": 7, "note": 75, "velocity": 110, "channel": 0}, {"type": "note_off", "time": 406, "note": 75, "velocity": 110, "channel": 0}, {"type": "note_on", "time": 0, "note": 74, "velocity": 98, "channel": 0}, {"type": "note_off", "time": 2685, "note": 74, "velocity": 98, "channel": 0}, {"type": "note_on", "time": 5, "note": 73, "velocity": 102, "channel": 0}, {"type": "note_off", "time": 242, "note": 73, "velocity": 102, "channel": 0}, {"type": "note_on", "time": 304, "note": 72, "velocity": 105, "channel": 0}, {"type": "note_off", "time": 335, "note": 72, "velocity": 105, "channel": 0}, {"type": "note_on", "time": 165, "note": 70, "velocity": 98, "channel": 0}, {"type": "note_off", "time": 263, "note": 70, "velocity": 98, "channel": 0}, {"type": "note_on", "time": 77, "note": 65, "velocity": 88, "channel": 0}, {"type": "note_off", "time": 237, "note": 65, "velocity": 88, "channel": 0}, {"type": "note_on", "time": 131, "note": 61, "velocity": 83, "channel": 0}, {"type": "note_off", "time": 355, "note": 61, "velocity": 83, "channel": 0}, {"type": "note_on", "time": 21, "note": 62, "velocity": 85, "channel": 0}, {"type": "note_off", "time": 283, "note": 62, "velocity": 85, "channel": 0}, {"type": "note_on", "time": 203, "note": 60, "velocity": 76, "channel": 0}, {"type": "note_off", "time": 326, "note": 60, "velocity": 76, "channel": 0}, {"type": "note_on", "time": 478, "note": 65, "velocity": 96, "channel": 0}, {"type": "note_off", "time": 275, "note": 65, "velocity": 96, "channel": 0}, {"type": "note_on", "time": 224, "note": 69, "velocity": 91, "channel": 0}, {"type": "note_off", "time": 449, "note": 69, "velocity": 91, "channel": 0}, {"type": "note_on", "time": 34, "note": 70, "velocity": 109, "channel": 0}, {"type": "note_off", "time": 283, "note": 70, "velocity": 109, "channel": 0}, {"type": "note_on", "time": 10, "note": 69, "velocity": 102, "channel": 0}, {"type": "note_off", "time": 247, "note": 69, "velocity": 102, "channel": 0}, {"type": "note_on", "time": 10, "note": 65, "velocity": 87, "channel": 0}, {"type": "note_off", "time": 449, "note": 65, "velocity": 87, "channel": 0}, {"type": "note_on", "time": 349, "note": 59, "velocity": 74, "channel": 0}, {"type": "note_off", "time": 108, "note": 59, "velocity": 74, "channel": 0}, {"type": "note_on", "time": 36, "note": 64, "velocity": 88, "channel": 0}, {"type": "note_off", "time": 629, "note": 64, "velocity": 88, "channel": 0}, {"type": "note_on", "time": 15, "note": 65, "velocity": 86, "channel": 0}, {"type": "note_off", "time": 1219, "note": 65, "velocity": 86, "channel": 0}, {"type": "note_on", "time": 4663, "note": 76, "velocity": 110, "channel": 0}, {"type": "note_off", "time": 247, "note": 76, "velocity": 110, "channel": 0}, {"type": "note_on", "time": 10, "note": 77, "velocity": 113, "channel": 0}, {"type": "note_off", "time": 314, "note": 77, "velocity": 113, "channel": 0}, {"type": "note_on", "time": 252, "note": 76, "velocity": 104, "channel": 0}, {"type": "note_off", "time": 175, "note": 76, "velocity": 104, "channel": 0}, {"type": "note_on", "time": 314, "note": 74, "velocity": 97, "channel": 0}, {"type": "note_off", "time": 288, "note": 74, "velocity": 97, "channel": 0}, {"type": "note_on", "time": 20, "note": 72, "velocity": 93, "channel": 0}, {"type": "note_off", "time": 211, "note": 72, "velocity": 93, "channel": 0}, {"type": "note_on", "time": 41, "note": 73, "velocity": 105, "channel": 0}, {"type": "note_off", "time": 206, "note": 73, "velocity": 105, "channel": 0}, {"type": "note_on", "time": 22, "note": 74, "velocity": 105, "channel": 0}, {"type": "note_off", "time": 290, "note": 74, "velocity": 105, "channel": 0}, {"type": "note_on", "time": 32, "note": 70, "velocity": 106, "channel": 0}, {"type": "note_off", "time": 239, "note": 70, "velocity": 106, "channel": 0}, {"type": "note_on", "time": 85, "note": 67, "velocity": 99, "channel": 0}, {"type": "note_off", "time": 216, "note": 67, "velocity": 99, "channel": 0}, {"type": "note_on", "time": 63, "note": 65, "velocity": 93, "channel": 0}, {"type": "note_off", "time": 224, "note": 65, "velocity": 93, "channel": 0}, {"type": "note_on", "time": 108, "note": 64, "velocity": 83, "channel": 0}, {"type": "note_off", "time": 145, "note": 64, "velocity": 83, "channel": 0}, {"type": "note_on", "time": 72, "note": 67, "velocity": 84, "channel": 0}, {"type": "note_off", "time": 174, "note": 67, "velocity": 84, "channel": 0}, {"type": "note_on", "time": 94, "note": 70, "velocity": 102, "channel": 0}, {"type": "note_off", "time": 268, "note": 70, "velocity": 102, "channel": 0}, {"type": "note_on", "time": 24, "note": 72, "velocity": 104, "channel": 0}, {"type": "note_off", "time": 216, "note": 72, "velocity": 104, "channel": 0}, {"type": "note_on", "time": 61, "note": 73, "velocity": 106, "channel": 0}, {"type": "note_off", "time": 288, "note": 73, "velocity": 106, "channel": 0}, {"type": "note_on", "time": 56, "note": 71, "velocity": 96, "channel": 0}, {"type": "note_off", "time": 221, "note": 71, "velocity": 96, "channel": 0}, {"type": "note_on", "time": 5, "note": 72, "velocity": 105, "channel": 0}, {"type": "note_off", "time": 216, "note": 72, "velocity": 105, "channel": 0}, {"type": "note_on", "time": 82, "note": 63, "velocity": 80, "channel": 0}, {"type": "note_off", "time": 210, "note": 63, "velocity": 80, "channel": 0}, {"type": "note_on", "time": 15, "note": 70, "velocity": 104, "channel": 0}, {"type": "note_off", "time": 239, "note": 70, "velocity": 104, "channel": 0}, {"type": "note_on", "time": 92, "note": 69, "velocity": 97, "channel": 0}, {"type": "note_off", "time": 201, "note": 69, "velocity": 97, "channel": 0}, {"type": "note_on", "time": 123, "note": 67, "velocity": 101, "channel": 0}, {"type": "note_off", "time": 185, "note": 67, "velocity": 101, "channel": 0}, {"type": "note_on", "time": 51, "note": 65, "velocity": 91, "channel": 0}, {"type": "note_off", "time": 227, "note": 65, "velocity": 91, "channel": 0}, {"type": "note_on", "time": 98, "note": 67, "velocity": 99, "channel": 0}, {"type": "note_off", "time": 227, "note": 67, "velocity": 99, "channel": 0}, {"type": "note_on", "time": 118, "note": 64, "velocity": 72, "channel": 0}, {"type": "note_off", "time": 190, "note": 64, "velocity": 72, "channel": 0}, {"type": "note_on", "time": 72, "note": 65, "velocity": 88, "channel": 0}, {"type": "note_off", "time": 159, "note": 65, "velocity": 88, "channel": 0}, {"type": "note_on", "time": 118, "note": 69, "velocity": 104, "channel": 0}, {"type": "note_off", "time": 180, "note": 69, "velocity": 104, "channel": 0}, {"type": "note_on", "time": 98, "note": 72, "velocity": 103, "channel": 0}, {"type": "note_off", "time": 190, "note": 72, "velocity": 103, "channel": 0}, {"type": "note_on", "time": 20, "note": 74, "velocity": 109, "channel": 0}, {"type": "note_off", "time": 273, "note": 74, "velocity": 109, "channel": 0}, {"type": "note_on", "time": 39, "note": 77, "velocity": 103, "channel": 0}, {"type": "note_off", "time": 319, "note": 77, "velocity": 103, "channel": 0}, {"type": "note_on", "time": 580, "note": 77, "velocity": 91, "channel": 0}, {"type": "note_off", "time": 355, "note": 77, "velocity": 91, "channel": 0}, {"type": "note_on", "time": 98, "note": 77, "velocity": 114, "channel": 0}, {"type": "note_off", "time": 384, "note": 77, "velocity": 114, "channel": 0}, {"type": "note_on", "time": 17, "note": 75, "velocity": 104, "channel": 0}, {"type": "note_off", "time": 449, "note": 75, "velocity": 104, "channel": 0}, {"type": "note_on", "time": 50, "note": 72, "velocity": 101, "channel": 0}, {"type": "note_off", "time": 361, "note": 72, "velocity": 101, "channel": 0}, {"type": "note_on", "time": 30, "note": 71, "velocity": 93, "channel": 0}, {"type": "note_off", "time": 350, "note": 71, "velocity": 93, "channel": 0}, {"type": "note_on", "time": 129, "note": 70, "velocity": 100, "channel": 0}, {"type": "note_off", "time": 314, "note": 70, "velocity": 100, "channel": 0}, {"type": "note_on", "time": 30, "note": 68, "velocity": 99, "channel": 0}, {"type": "note_off", "time": 412, "note": 68, "velocity": 99, "channel": 0}, {"type": "note_on", "time": 541, "note": 69, "velocity": 99, "channel": 0}, {"type": "note_off", "time": 154, "note": 69, "velocity": 99, "channel": 0}, {"type": "note_on", "time": 41, "note": 70, "velocity": 93, "channel": 0}, {"type": "note_off", "time": 1269, "note": 70, "velocity": 93, "channel": 0}, {"type": "note_on", "time": 19, "note": 68, "velocity": 89, "channel": 0}, {"type": "note_off", "time": 522, "note": 68, "velocity": 89, "channel": 0}, {"type": "note_on", "time": 29, "note": 65, "velocity": 93, "channel": 0}, {"type": "note_off", "time": 275, "note": 65, "velocity": 93, "channel": 0}, {"type": "note_on", "time": 175, "note": 60, "velocity": 64, "channel": 0}, {"type": "note_off", "time": 588, "note": 60, "velocity": 64, "channel": 0}, {"type": "note_on", "time": 154, "note": 65, "velocity": 104, "channel": 0}, {"type": "note_off", "time": 309, "note": 65, "velocity": 104, "channel": 0}, {"type": "note_on", "time": 3875, "note": 65, "velocity": 88, "channel": 0}, {"type": "note_off", "time": 190, "note": 65, "velocity": 88, "channel": 0}, {"type": "note_on", "time": 46, "note": 67, "velocity": 88, "channel": 0}, {"type": "note_off", "time": 185, "note": 67, "velocity": 88, "channel": 0}, {"type": "note_on", "time": 25, "note": 69, "velocity": 92, "channel": 0}, {"type": "note_off", "time": 188, "note": 69, "velocity": 92, "channel": 0}, {"type": "note_on", "time": 64, "note": 70, "velocity": 91, "channel": 0}, {"type": "note_off", "time": 216, "note": 70, "velocity": 91, "channel": 0}, {"type": "note_on", "time": 56, "note": 71, "velocity": 100, "channel": 0}, {"type": "note_off", "time": 273, "note": 71, "velocity": 100, "channel": 0}, {"type": "note_on", "time": 11, "note": 72, "velocity": 106, "channel": 0}, {"type": "note_off", "time": 188, "note": 72, "velocity": 106, "channel": 0}, {"type": "note_on", "time": 94, "note": 69, "velocity": 95, "channel": 0}, {"type": "note_off", "time": 239, "note": 69, "velocity": 95, "channel": 0}, {"type": "note_on", "time": 100, "note": 70, "velocity": 106, "channel": 0}, {"type": "note_off", "time": 309, "note": 70, "velocity": 106, "channel": 0}, {"type": "note_on", "time": 3, "note": 69, "velocity": 97, "channel": 0}, {"type": "note_off", "time": 602, "note": 69, "velocity": 97, "channel": 0}, {"type": "note_on", "time": 44, "note": 70, "velocity": 102, "channel": 0}, {"type": "note_off", "time": 299, "note": 70, "velocity": 102, "channel": 0}, {"type": "note_on", "time": 15, "note": 69, "velocity": 93, "channel": 0}, {"type": "note_off", "time": 500, "note": 69, "velocity": 93, "channel": 0}, {"type": "note_on", "time": 20, "note": 70, "velocity": 108, "channel": 0}, {"type": "note_off", "time": 346, "note": 70, "velocity": 108, "channel": 0}, {"type": "note_on", "time": 0, "note": 69, "velocity": 95, "channel": 0}, {"type": "note_off", "time": 449, "note": 69, "velocity": 95, "channel": 0}, {"type": "note_on", "time": 14, "note": 70, "velocity": 104, "channel": 0}, {"type": "note_off", "time": 333, "note": 70, "velocity": 104, "channel": 0}, {"type": "note_on", "time": 21, "note": 69, "velocity": 93, "channel": 0}, {"type": "note_off", "time": 232, "note": 69, "velocity": 93, "channel": 0}, {"type": "note_on", "time": 50, "note": 67, "velocity": 93, "channel": 0}, {"type": "note_off", "time": 203, "note": 67, "velocity": 93, "channel": 0}, {"type": "note_on", "time": 7, "note": 66, "velocity": 87, "channel": 0}, {"type": "note_off", "time": 326, "note": 66, "velocity": 87, "channel": 0}, {"type": "note_on", "time": 10, "note": 69, "velocity": 101, "channel": 0}, {"type": "note_off", "time": 232, "note": 69, "velocity": 101, "channel": 0}, {"type": "note_on", "time": 54, "note": 72, "velocity": 100, "channel": 0}, {"type": "note_off", "time": 246, "note": 72, "velocity": 100, "channel": 0}, {"type": "note_on", "time": 29, "note": 75, "velocity": 109, "channel": 0}, {"type": "note_off", "time": 239, "note": 75, "velocity": 109, "channel": 0}, {"type": "note_on", "time": 0, "note": 72, "velocity": 89, "channel": 0}, {"type": "note_off", "time": 275, "note": 72, "velocity": 89, "channel": 0}, {"type": "note_on", "time": 21, "note": 73, "velocity": 106, "channel": 0}, {"type": "note_off", "time": 232, "note": 73, "velocity": 106, "channel": 0}, {"type": "note_on", "time": 25, "note": 74, "velocity": 105, "channel": 0}, {"type": "note_off", "time": 206, "note": 74, "velocity": 105, "channel": 0}, {"type": "note_on", "time": 123, "note": 70, "velocity": 105, "channel": 0}, {"type": "note_off", "time": 227, "note": 70, "velocity": 105, "channel": 0}, {"type": "note_on", "time": 41, "note": 67, "velocity": 88, "channel": 0}, {"type": "note_off", "time": 196, "note": 67, "velocity": 88, "channel": 0}, {"type": "note_on", "time": 14, "note": 65, "velocity": 90, "channel": 0}, {"type": "note_off", "time": 217, "note": 65, "velocity": 90, "channel": 0}, {"type": "note_on", "time": 137, "note": 64, "velocity": 86, "channel": 0}, {"type": "note_off", "time": 188, "note": 64, "velocity": 86, "channel": 0}, {"type": "note_on", "time": 0, "note": 67, "velocity": 80, "channel": 0}, {"type": "note_off", "time": 145, "note": 67, "velocity": 80, "channel": 0}, {"type": "note_on", "time": 65, "note": 70, "velocity": 102, "channel": 0}, {"type": "note_off", "time": 181, "note": 70, "velocity": 102, "channel": 0}, {"type": "note_on", "time": 58, "note": 72, "velocity": 103, "channel": 0}, {"type": "note_off", "time": 254, "note": 72, "velocity": 103, "channel": 0}, {"type": "note_on", "time": 14, "note": 73, "velocity": 108, "channel": 0}, {"type": "note_off", "time": 317, "note": 73, "velocity": 108, "channel": 0}, {"type": "note_on", "time": 0, "note": 71, "velocity": 105, "channel": 0}, {"type": "note_off", "time": 252, "note": 71, "velocity": 105, "channel": 0}, {"type": "note_on", "time": 10, "note": 72, "velocity": 103, "channel": 0}, {"type": "note_off", "time": 170, "note": 72, "velocity": 103, "channel": 0}, {"type": "note_on", "time": 90, "note": 63, "velocity": 79, "channel": 0}, {"type": "note_off", "time": 166, "note": 63, "velocity": 79, "channel": 0}, {"type": "note_on", "time": 116, "note": 70, "velocity": 98, "channel": 0}, {"type": "note_off", "time": 210, "note": 70, "velocity": 98, "channel": 0}, {"type": "note_on", "time": 29, "note": 69, "velocity": 85, "channel": 0}, {"type": "note_off", "time": 268, "note": 69, "velocity": 85, "channel": 0}, {"type": "note_on", "time": 145, "note": 67, "velocity": 90, "channel": 0}, {"type": "note_off", "time": 239, "note": 67, "velocity": 90, "channel": 0}, {"type": "note_on", "time": 245, "note": 65, "velocity": 69, "channel": 0}, {"type": "note_off", "time": 139, "note": 65, "velocity": 69, "channel": 0}, {"type": "note_on", "time": 41, "note": 66, "velocity": 74, "channel": 0}, {"type": "note_off", "time": 190, "note": 66, "velocity": 74, "channel": 0}, {"type": "note_on", "time": 258, "note": 69, "velocity": 106, "channel": 0}, {"type": "note_off", "time": 239, "note": 69, "velocity": 106, "channel": 0}, {"type": "note_on", "time": 85, "note": 67, "velocity": 95, "channel": 0}, {"type": "note_off", "time": 175, "note": 67, "velocity": 95, "channel": 0}, {"type": "note_on", "time": 330, "note": 65, "velocity": 97, "channel": 0}, {"type": "note_off", "time": 224, "note": 65, "velocity": 97, "channel": 0}, {"type": "note_on", "time": 115, "note": 64, "velocity": 89, "channel": 0}, {"type": "note_off", "time": 181, "note": 64, "velocity": 89, "channel": 0}, {"type": "note_on", "time": 275, "note": 62, "velocity": 90, "channel": 0}, {"type": "note_off", "time": 88, "note": 62, "velocity": 90, "channel": 0}, {"type": "note_on", "time": 295, "note": 64, "velocity": 97, "channel": 0}, {"type": "note_off", "time": 206, "note": 64, "velocity": 97, "channel": 0}, {"type": "note_on", "time": 33, "note": 65, "velocity": 95, "channel": 0}, {"type": "note_off", "time": 210, "note": 65, "velocity": 95, "channel": 0}, {"type": "note_on", "time": 21, "note": 67, "velocity": 100, "channel": 0}, {"type": "note_off", "time": 188, "note": 67, "velocity": 100, "channel": 0}, {"type": "note_on", "time": 159, "note": 64, "velocity": 81, "channel": 0}, {"type": "note_off", "time": 815, "note": 64, "velocity": 81, "channel": 0}, {"type": "note_on", "time": 19, "note": 65, "velocity": 106, "channel": 0}, {"type": "note_off", "time": 384, "note": 65, "velocity": 106, "channel": 0}, {"type": "note_on", "time": 3802, "note": 76, "velocity": 112, "channel": 0}, {"type": "note_off", "time": 201, "note": 76, "velocity": 112, "channel": 0}, {"type": "note_on", "time": 67, "note": 77, "velocity": 114, "channel": 0}, {"type": "note_off", "time": 370, "note": 77, "velocity": 114, "channel": 0}, {"type": "note_on", "time": 114, "note": 76, "velocity": 112, "channel": 0}, {"type": "note_off", "time": 361, "note": 76, "velocity": 112, "channel": 0}, {"type": "note_on", "time": 423, "note": 72, "velocity": 92, "channel": 0}, {"type": "note_off", "time": 815, "note": 72, "velocity": 92, "channel": 0}, {"type": "note_on", "time": 975, "note": 74, "velocity": 99, "channel": 0}, {"type": "note_off", "time": 508, "note": 74, "velocity": 99, "channel": 0}, {"type": "note_on", "time": 8, "note": 70, "velocity": 103, "channel": 0}, {"type": "note_off", "time": 239, "note": 70, "velocity": 103, "channel": 0}, {"type": "note_on", "time": 16, "note": 67, "velocity": 80, "channel": 0}, {"type": "note_off", "time": 406, "note": 67, "velocity": 80, "channel": 0}, {"type": "note_on", "time": 168, "note": 64, "velocity": 90, "channel": 0}, {"type": "note_off", "time": 221, "note": 64, "velocity": 90, "channel": 0}, {"type": "note_on", "time": 999, "note": 70, "velocity": 83, "channel": 0}, {"type": "note_off", "time": 254, "note": 70, "velocity": 83, "channel": 0}, {"type": "note_on", "time": 62, "note": 74, "velocity": 93, "channel": 0}, {"type": "note_off", "time": 438, "note": 74, "velocity": 93, "channel": 0}, {"type": "note_on", "time": 46, "note": 72, "velocity": 96, "channel": 0}, {"type": "note_off", "time": 217, "note": 72, "velocity": 96, "channel": 0}, {"type": "note_on", "time": 417, "note": 65, "velocity": 78, "channel": 0}, {"type": "note_off", "time": 341, "note": 65, "velocity": 78, "channel": 0}, {"type": "note_on", "time": 278, "note": 70, "velocity": 103, "channel": 0}, {"type": "note_off", "time": 340, "note": 70, "velocity": 103, "channel": 0}, {"type": "note_on", "time": 190, "note": 69, "velocity": 96, "channel": 0}, {"type": "note_off", "time": 227, "note": 69, "velocity": 96, "channel": 0}, {"type": "note_on", "time": 180, "note": 65, "velocity": 92, "channel": 0}, {"type": "note_off", "time": 201, "note": 65, "velocity": 92, "channel": 0}, {"type": "note_on", "time": 225, "note": 62, "velocity": 78, "channel": 0}, {"type": "note_off", "time": 210, "note": 62, "velocity": 78, "channel": 0}, {"type": "note_on", "time": 198, "note": 65, "velocity": 93, "channel": 0}, {"type": "note_off", "time": 254, "note": 65, "velocity": 93, "channel": 0}, {"type": "note_on", "time": 179, "note": 63, "velocity": 76, "channel": 0}, {"type": "note_off", "time": 190, "note": 63, "velocity": 76, "channel": 0}, {"type": "note_on", "time": 227, "note": 70, "velocity": 102, "channel": 0}, {"type": "note_off", "time": 201, "note": 70, "velocity": 102, "channel": 0}, {"type": "note_on", "time": 144, "note": 74, "velocity": 106, "channel": 0}, {"type": "note_off", "time": 471, "note": 74, "velocity": 106, "channel": 0}, {"type": "note_on", "time": 116, "note": 73, "velocity": 105, "channel": 0}, {"type": "note_off", "time": 227, "note": 73, "velocity": 105, "channel": 0}, {"type": "note_on", "time": 510, "note": 68, "velocity": 90, "channel": 0}, {"type": "note_off", "time": 159, "note": 68, "velocity": 90, "channel": 0}, {"type": "note_on", "time": 50, "note": 65, "velocity": 80, "channel": 0}, {"type": "note_off", "time": 493, "note": 65, "velocity": 80, "channel": 0}, {"type": "note_on", "time": 96, "note": 72, "velocity": 107, "channel": 0}, {"type": "note_off", "time": 211, "note": 72, "velocity": 107, "channel": 0}, {"type": "note_on", "time": 1408, "note": 70, "velocity": 105, "channel": 0}, {"type": "note_off", "time": 268, "note": 70, "velocity": 105, "channel": 0}, {"type": "note_on", "time": 25, "note": 68, "velocity": 93, "channel": 0}, {"type": "note_off", "time": 490, "note": 68, "velocity": 93, "channel": 0}, {"type": "note_on", "time": 25, "note": 64, "velocity": 91, "channel": 0}, {"type": "note_off", "time": 221, "note": 64, "velocity": 91, "channel": 0}, {"type": "note_on", "time": 3546, "note": 65, "velocity": 86, "channel": 0}, {"type": "note_off", "time": 130, "note": 65, "velocity": 86, "channel": 0}, {"type": "note_on", "time": 65, "note": 67, "velocity": 87, "channel": 0}, {"type": "note_off", "time": 126, "note": 67, "velocity": 87, "channel": 0}, {"type": "note_on", "time": 25, "note": 68, "velocity": 91, "channel": 0}, {"type": "note_off", "time": 163, "note": 68, "velocity": 91, "channel": 0}, {"type": "note_on", "time": 58, "note": 70, "velocity": 104, "channel": 0}, {"type": "note_off", "time": 137, "note": 70, "velocity": 104, "channel": 0}, {"type": "note_on", "time": 32, "note": 72, "velocity": 104, "channel": 0}, {"type": "note_off", "time": 239, "note": 72, "velocity": 104, "channel": 0}, {"type": "note_on", "time": 32, "note": 70, "velocity": 108, "channel": 0}, {"type": "note_off", "time": 203, "note": 70, "velocity": 108, "channel": 0}, {"type": "note_on", "time": 10, "note": 67, "velocity": 82, "channel": 0}, {"type": "note_off", "time": 127, "note": 67, "velocity": 82, "channel": 0}, {"type": "note_on", "time": 21, "note": 68, "velocity": 84, "channel": 0}, {"type": "note_off", "time": 126, "note": 68, "velocity": 84, "channel": 0}, {"type": "note_on", "time": 101, "note": 69, "velocity": 93, "channel": 0}, {"type": "note_off", "time": 152, "note": 69, "velocity": 93, "channel": 0}, {"type": "note_on", "time": 47, "note": 70, "velocity": 100, "channel": 0}, {"type": "note_off", "time": 159, "note": 70, "velocity": 100, "channel": 0}, {"type": "note_on", "time": 21, "note": 72, "velocity": 85, "channel": 0}, {"type": "note_on", "time": 145, "note": 74, "velocity": 100, "channel": 0}, {"type": "note_off", "time": 0, "note": 72, "velocity": 85, "channel": 0}, {"type": "note_off", "time": 203, "note": 74, "velocity": 100, "channel": 0}, {"type": "note_on", "time": 18, "note": 76, "velocity": 105, "channel": 0}, {"type": "note_off", "time": 188, "note": 76, "velocity": 105, "channel": 0}, {"type": "note_on", "time": 94, "note": 72, "velocity": 104, "channel": 0}, {"type": "note_off", "time": 174, "note": 72, "velocity": 104, "channel": 0}, {"type": "note_on", "time": 2077, "note": 76, "velocity": 102, "channel": 0}, {"type": "note_off", "time": 201, "note": 76, "velocity": 102, "channel": 0}, {"type": "note_on", "time": 25, "note": 74, "velocity": 88, "channel": 0}, {"type": "note_off", "time": 170, "note": 74, "velocity": 88, "channel": 0}, {"type": "note_on", "time": 103, "note": 69, "velocity": 85, "channel": 0}, {"type": "note_off", "time": 110, "note": 69, "velocity": 85, "channel": 0}, {"type": "note_on", "time": 0, "note": 71, "velocity": 107, "channel": 0}, {"type": "note_off", "time": 224, "note": 71, "velocity": 107, "channel": 0}, {"type": "note_on", "time": 7, "note": 70, "velocity": 90, "channel": 0}, {"type": "note_on", "time": 188, "note": 69, "velocity": 96, "channel": 0}, {"type": "note_off", "time": 0, "note": 70, "velocity": 90, "channel": 0}, {"type": "note_off", "time": 174, "note": 69, "velocity": 96, "channel": 0}, {"type": "note_on", "time": 11, "note": 67, "velocity": 91, "channel": 0}, {"type": "note_off", "time": 137, "note": 67, "velocity": 91, "channel": 0}, {"type": "note_on", "time": 28, "note": 65, "velocity": 91, "channel": 0}, {"type": "note_off", "time": 148, "note": 65, "velocity": 91, "channel": 0}, {"type": "note_on", "time": 103, "note": 69, "velocity": 108, "channel": 0}, {"type": "note_off", "time": 175, "note": 69, "velocity": 108, "channel": 0}, {"type": "note_on", "time": 11, "note": 70, "velocity": 87, "channel": 0}, {"type": "note_off", "time": 195, "note": 70, "velocity": 87, "channel": 0}, {"type": "note_on", "time": 29, "note": 66, "velocity": 83, "channel": 0}, {"type": "note_off", "time": 154, "note": 66, "velocity": 83, "channel": 0}, {"type": "note_on", "time": 20, "note": 69, "velocity": 98, "channel": 0}, {"type": "note_off", "time": 185, "note": 69, "velocity": 98, "channel": 0}, {"type": "note_on", "time": 20, "note": 67, "velocity": 104, "channel": 0}, {"type": "note_off", "time": 165, "note": 67, "velocity": 104, "channel": 0}, {"type": "note_on", "time": 330, "note": 68, "velocity": 85, "channel": 0}, {"type": "note_off", "time": 123, "note": 68, "velocity": 85, "channel": 0}, {"type": "note_on", "time": 58, "note": 69, "velocity": 99, "channel": 0}, {"type": "note_off", "time": 152, "note": 69, "velocity": 99, "channel": 0}, {"type": "note_on", "time": 37, "note": 70, "velocity": 106, "channel": 0}, {"type": "note_off", "time": 170, "note": 70, "velocity": 106, "channel": 0}, {"type": "note_on", "time": 46, "note": 69, "velocity": 108, "channel": 0}, {"type": "note_off", "time": 174, "note": 69, "velocity": 108, "channel": 0}, {"type": "note_on", "time": 43, "note": 67, "velocity": 99, "channel": 0}, {"type": "note_off", "time": 174, "note": 67, "velocity": 99, "channel": 0}, {"type": "note_on", "time": 31, "note": 65, "velocity": 91, "channel": 0}, {"type": "note_off", "time": 144, "note": 65, "velocity": 91, "channel": 0}, {"type": "note_on", "time": 30, "note": 64, "velocity": 84, "channel": 0}, {"type": "note_off", "time": 175, "note": 64, "velocity": 84, "channel": 0}, {"type": "note_on", "time": 10, "note": 65, "velocity": 72, "channel": 0}, {"type": "note_off", "time": 139, "note": 65, "velocity": 72, "channel": 0}, {"type": "note_on", "time": 87, "note": 70, "velocity": 96, "channel": 0}, {"type": "note_off", "time": 188, "note": 70, "velocity": 96, "channel": 0}, {"type": "note_on", "time": 38, "note": 72, "velocity": 90, "channel": 0}, {"type": "note_off", "time": 175, "note": 72, "velocity": 90, "channel": 0}, {"type": "note_on", "time": 15, "note": 73, "velocity": 109, "channel": 0}, {"type": "note_off", "time": 206, "note": 73, "velocity": 109, "channel": 0}, {"type": "note_on", "time": 20, "note": 71, "velocity": 94, "channel": 0}, {"type": "note_off", "time": 185, "note": 71, "velocity": 94, "channel": 0}, {"type": "note_on", "time": 30, "note": 72, "velocity": 107, "channel": 0}, {"type": "note_off", "time": 123, "note": 72, "velocity": 107, "channel": 0}, {"type": "note_on", "time": 30, "note": 71, "velocity": 103, "channel": 0}, {"type": "note_off", "time": 232, "note": 71, "velocity": 103, "channel": 0}, {"type": "note_on", "time": 10, "note": 70, "velocity": 94, "channel": 0}, {"type": "note_off", "time": 170, "note": 70, "velocity": 94, "channel": 0}, {"type": "note_on", "time": 61, "note": 69, "velocity": 99, "channel": 0}, {"type": "note_off", "time": 154, "note": 69, "velocity": 99, "channel": 0}, {"type": "note_on", "time": 5, "note": 67, "velocity": 95, "channel": 0}, {"type": "note_off", "time": 210, "note": 67, "velocity": 95, "channel": 0}, {"type": "note_on", "time": 21, "note": 65, "velocity": 76, "channel": 0}, {"type": "note_off", "time": 130, "note": 65, "velocity": 76, "channel": 0}, {"type": "note_on", "time": 0, "note": 69, "velocity": 96, "channel": 0}, {"type": "note_off", "time": 195, "note": 69, "velocity": 96, "channel": 0}, {"type": "note_on", "time": 21, "note": 70, "velocity": 87, "channel": 0}, {"type": "note_off", "time": 224, "note": 70, "velocity": 87, "channel": 0}, {"type": "note_on", "time": 36, "note": 66, "velocity": 92, "channel": 0}, {"type": "note_off", "time": 145, "note": 66, "velocity": 92, "channel": 0}, {"type": "note_on", "time": 18, "note": 69, "velocity": 98, "channel": 0}, {"type": "note_off", "time": 227, "note": 69, "velocity": 98, "channel": 0}, {"type": "note_on", "time": 16, "note": 67, "velocity": 91, "channel": 0}, {"type": "note_off", "time": 224, "note": 67, "velocity": 91, "channel": 0}, {"type": "note_on", "time": 33, "note": 69, "velocity": 78, "channel": 0}, {"type": "note_off", "time": 149, "note": 69, "velocity": 78, "channel": 0}, {"type": "note_on", "time": 27, "note": 70, "velocity": 94, "channel": 0}, {"type": "note_off", "time": 159, "note": 70, "velocity": 94, "channel": 0}, {"type": "note_on", "time": 65, "note": 72, "velocity": 96, "channel": 0}, {"type": "note_off", "time": 123, "note": 72, "velocity": 96, "channel": 0}, {"type": "note_on", "time": 14, "note": 73, "velocity": 95, "channel": 0}, {"type": "note_off", "time": 232, "note": 73, "velocity": 95, "channel": 0}, {"type": "note_on", "time": 22, "note": 71, "velocity": 101, "channel": 0}, {"type": "note_off", "time": 185, "note": 71, "velocity": 101, "channel": 0}, {"type": "note_on", "time": 15, "note": 72, "velocity": 104, "channel": 0}, {"type": "note_off", "time": 159, "note": 72, "velocity": 104, "channel": 0}, {"type": "note_on", "time": 118, "note": 70, "velocity": 88, "channel": 0}, {"type": "note_off", "time": 101, "note": 70, "velocity": 88, "channel": 0}, {"type": "note_on", "time": 11, "note": 71, "velocity": 85, "channel": 0}, {"type": "note_off", "time": 170, "note": 71, "velocity": 85, "channel": 0}, {"type": "note_on", "time": 1986, "note": 72, "velocity": 101, "channel": 0}, {"type": "note_off", "time": 149, "note": 72, "velocity": 101, "channel": 0}, {"type": "note_on", "time": 10, "note": 73, "velocity": 105, "channel": 0}, {"type": "note_off", "time": 144, "note": 73, "velocity": 105, "channel": 0}, {"type": "note_on", "time": 57, "note": 72, "velocity": 92, "channel": 0}, {"type": "note_off", "time": 384, "note": 72, "velocity": 92, "channel": 0}, {"type": "note_on", "time": 101, "note": 70, "velocity": 107, "channel": 0}, {"type": "note_off", "time": 232, "note": 70, "velocity": 107, "channel": 0}, {"type": "note_on", "time": 60, "note": 69, "velocity": 88, "channel": 0}, {"type": "note_off", "time": 459, "note": 69, "velocity": 88, "channel": 0}, {"type": "note_on", "time": 82, "note": 65, "velocity": 99, "channel": 0}, {"type": "note_off", "time": 216, "note": 65, "velocity": 99, "channel": 0}, {"type": "note_on", "time": 1016, "note": 69, "velocity": 78, "channel": 0}, {"type": "note_off", "time": 366, "note": 69, "velocity": 78, "channel": 0}, {"type": "note_on", "time": 36, "note": 72, "velocity": 108, "channel": 0}, {"type": "note_off", "time": 268, "note": 72, "velocity": 108, "channel": 0}, {"type": "note_on", "time": 62, "note": 74, "velocity": 108, "channel": 0}, {"type": "note_off", "time": 333, "note": 74, "velocity": 108, "channel": 0}, {"type": "note_on", "time": 563, "note": 65, "velocity": 86, "channel": 0}, {"type": "note_off", "time": 1212, "note": 65, "velocity": 86, "channel": 0}, {"type": "note_on", "time": 125, "note": 69, "velocity": 109, "channel": 0}, {"type": "note_off", "time": 344, "note": 69, "velocity": 109, "channel": 0}, {"type": "note_on", "time": 1698, "note": 70, "velocity": 99, "channel": 0}, {"type": "note_off", "time": 522, "note": 70, "velocity": 99, "channel": 0}, {"type": "note_on", "time": 13, "note": 71, "velocity": 110, "channel": 0}, {"type": "note_off", "time": 232, "note": 71, "velocity": 110, "channel": 0}, {"type": "note_on", "time": 2675, "note": 73, "velocity": 102, "channel": 0}, {"type": "note_off", "time": 224, "note": 73, "velocity": 102, "channel": 0}, {"type": "note_on", "time": 58, "note": 74, "velocity": 110, "channel": 0}, {"type": "note_off", "time": 341, "note": 74, "velocity": 110, "channel": 0}, {"type": "note_on", "time": 159, "note": 72, "velocity": 102, "channel": 0}, {"type": "note_off", "time": 319, "note": 72, "velocity": 102, "channel": 0}, {"type": "note_on", "time": 128, "note": 70, "velocity": 100, "channel": 0}, {"type": "note_off", "time": 371, "note": 70, "velocity": 100, "channel": 0}, {"type": "note_on", "time": 98, "note": 69, "velocity": 102, "channel": 0}, {"type": "note_off", "time": 185, "note": 69, "velocity": 102, "channel": 0}, {"type": "note_on", "time": 216, "note": 67, "velocity": 98, "channel": 0}, {"type": "note_off", "time": 335, "note": 67, "velocity": 98, "channel": 0}, {"type": "note_on", "time": 50, "note": 65, "velocity": 93, "channel": 0}, {"type": "note_off", "time": 341, "note": 65, "velocity": 93, "channel": 0}, {"type": "note_on", "time": 104, "note": 64, "velocity": 90, "channel": 0}, {"type": "note_off", "time": 196, "note": 64, "velocity": 90, "channel": 0}, {"type": "note_on", "time": 206, "note": 63, "velocity": 80, "channel": 0}, {"type": "note_off", "time": 356, "note": 63, "velocity": 80, "channel": 0}, {"type": "note_on", "time": 174, "note": 67, "velocity": 76, "channel": 0}, {"type": "note_off", "time": 254, "note": 67, "velocity": 76, "channel": 0}, {"type": "note_on", "time": 43, "note": 70, "velocity": 108, "channel": 0}, {"type": "note_off", "time": 348, "note": 70, "velocity": 108, "channel": 0}, {"type": "note_on", "time": 58, "note": 73, "velocity": 102, "channel": 0}, {"type": "note_off", "time": 348, "note": 73, "velocity": 102, "channel": 0}, {"type": "note_on", "time": 0, "note": 74, "velocity": 102, "channel": 0}, {"type": "note_off", "time": 754, "note": 74, "velocity": 102, "channel": 0}, {"type": "note_on", "time": 145, "note": 72, "velocity": 83, "channel": 0}, {"type": "note_off", "time": 391, "note": 72, "velocity": 83, "channel": 0}, {"type": "note_on", "time": 345, "note": 70, "velocity": 87, "channel": 0}, {"type": "note_off", "time": 1563, "note": 70, "velocity": 87, "channel": 0}, {"type": "note_on", "time": 10, "note": 68, "velocity": 85, "channel": 0}, {"type": "note_off", "time": 717, "note": 68, "velocity": 85, "channel": 0}, {"type": "note_on", "time": 25, "note": 64, "velocity": 69, "channel": 0}, {"type": "note_off", "time": 139, "note": 64, "velocity": 69, "channel": 0}, {"type": "note_on", "time": 41, "note": 68, "velocity": 86, "channel": 0}, {"type": "note_off", "time": 547, "note": 68, "velocity": 86, "channel": 0}, {"type": "note_on", "time": 108, "note": 70, "velocity": 102, "channel": 0}, {"type": "note_off", "time": 165, "note": 70, "velocity": 102, "channel": 0}, {"type": "note_on", "time": 5950, "note": 76, "velocity": 100, "channel": 0}, {"type": "note_off", "time": 443, "note": 76, "velocity": 100, "channel": 0}, {"type": "note_on", "time": 41, "note": 74, "velocity": 108, "channel": 0}, {"type": "note_off", "time": 304, "note": 74, "velocity": 108, "channel": 0}, {"type": "note_on", "time": 123, "note": 72, "velocity": 100, "channel": 0}, {"type": "note_off", "time": 350, "note": 72, "velocity": 100, "channel": 0}, {"type": "note_on", "time": 61, "note": 69, "velocity": 100, "channel": 0}, {"type": "note_off", "time": 325, "note": 69, "velocity": 100, "channel": 0}, {"type": "note_on", "time": 118, "note": 67, "velocity": 96, "channel": 0}, {"type": "note_off", "time": 355, "note": 67, "velocity": 96, "channel": 0}, {"type": "note_on", "time": 21, "note": 65, "velocity": 97, "channel": 0}, {"type": "note_off", "time": 330, "note": 65, "velocity": 97, "channel": 0}, {"type": "note_on", "time": 77, "note": 66, "velocity": 83, "channel": 0}, {"type": "note_off", "time": 319, "note": 66, "velocity": 83, "channel": 0}, {"type": "note_on", "time": 82, "note": 74, "velocity": 83, "channel": 0}, {"type": "note_off", "time": 77, "note": 74, "velocity": 83, "channel": 0}, {"type": "note_on", "time": 30, "note": 75, "velocity": 101, "channel": 0}, {"type": "note_off", "time": 402, "note": 75, "velocity": 101, "channel": 0}, {"type": "note_on", "time": 20, "note": 74, "velocity": 102, "channel": 0}, {"type": "note_off", "time": 1274, "note": 74, "velocity": 102, "channel": 0}, {"type": "note_on", "time": 0, "note": 74, "velocity": 80, "channel": 0}, {"type": "note_off", "time": 0, "note": 74, "velocity": 80, "channel": 0}, {"type": "note_on", "time": 72, "note": 73, "velocity": 90, "channel": 0}, {"type": "note_off", "time": 159, "note": 73, "velocity": 90, "channel": 0}, {"type": "note_on", "time": 87, "note": 74, "velocity": 93, "channel": 0}, {"type": "note_off", "time": 190, "note": 74, "velocity": 93, "channel": 0}, {"type": "note_on", "time": 25, "note": 70, "velocity": 90, "channel": 0}, {"type": "note_off", "time": 923, "note": 70, "velocity": 90, "channel": 0}, {"type": "note_on", "time": 1826, "note": 69, "velocity": 96, "channel": 0}, {"type": "note_off", "time": 201, "note": 69, "velocity": 96, "channel": 0}, {"type": "note_on", "time": 139, "note": 70, "velocity": 99, "channel": 0}, {"type": "note_off", "time": 254, "note": 70, "velocity": 99, "channel": 0}, {"type": "note_on", "time": 138, "note": 72, "velocity": 104, "channel": 0}, {"type": "note_off", "time": 304, "note": 72, "velocity": 104, "channel": 0}, {"type": "note_on", "time": 138, "note": 73, "velocity": 106, "channel": 0}, {"type": "note_off", "time": 283, "note": 73, "velocity": 106, "channel": 0}, {"type": "note_on", "time": 136, "note": 71, "velocity": 99, "channel": 0}, {"type": "note_off", "time": 278, "note": 71, "velocity": 99, "channel": 0}, {"type": "note_on", "time": 93, "note": 72, "velocity": 92, "channel": 0}, {"type": "note_off", "time": 312, "note": 72, "velocity": 92, "channel": 0}, {"type": "note_on", "time": 108, "note": 70, "velocity": 100, "channel": 0}, {"type": "note_off", "time": 312, "note": 70, "velocity": 100, "channel": 0}, {"type": "note_on", "time": 128, "note": 69, "velocity": 94, "channel": 0}, {"type": "note_off", "time": 288, "note": 69, "velocity": 94, "channel": 0}, {"type": "note_on", "time": 129, "note": 65, "velocity": 92, "channel": 0}, {"type": "note_off", "time": 206, "note": 65, "velocity": 92, "channel": 0}, {"type": "note_on", "time": 0, "note": 60, "velocity": 85, "channel": 0}, {"type": "note_off", "time": 552, "note": 60, "velocity": 85, "channel": 0}, {"type": "note_on", "time": 387, "note": 65, "velocity": 88, "channel": 0}, {"type": "note_off", "time": 691, "note": 65, "velocity": 88, "channel": 0}, {"type": "note_on", "time": 3524, "note": 69, "velocity": 94, "channel": 0}, {"type": "note_off", "time": 273, "note": 69, "velocity": 94, "channel": 0}, {"type": "note_on", "time": 5, "note": 72, "velocity": 105, "channel": 0}, {"type": "note_off", "time": 159, "note": 72, "velocity": 105, "channel": 0}, {"type": "note_on", "time": 17, "note": 74, "velocity": 108, "channel": 0}, {"type": "note_off", "time": 283, "note": 74, "velocity": 108, "channel": 0}, {"type": "note_on", "time": 812, "note": 65, "velocity": 93, "channel": 0}, {"type": "note_off", "time": 776, "note": 65, "velocity": 93, "channel": 0}, {"type": "note_on", "time": 36, "note": 65, "velocity": 91, "channel": 0}, {"type": "note_off", "time": 798, "note": 65, "velocity": 91, "channel": 0}, {"type": "note_on", "time": 2801, "note": 69, "velocity": 83, "channel": 0}, {"type": "note_off", "time": 348, "note": 69, "velocity": 83, "channel": 0}, {"type": "note_on", "time": 164, "note": 72, "velocity": 108, "channel": 0}, {"type": "note_off", "time": 283, "note": 72, "velocity": 108, "channel": 0}, {"type": "note_on", "time": 41, "note": 74, "velocity": 109, "channel": 0}, {"type": "note_off", "time": 319, "note": 74, "velocity": 109, "channel": 0}, {"type": "note_on", "time": 510, "note": 65, "velocity": 76, "channel": 0}, {"type": "note_off", "time": 1295, "note": 65, "velocity": 76, "channel": 0}, {"type": "note_on", "time": 98, "note": 65, "velocity": 93, "channel": 0}, {"type": "note_off", "time": 301, "note": 65, "velocity": 93, "channel": 0}, {"type": "note_on", "time": 2594, "note": 65, "velocity": 80, "channel": 0}, {"type": "note_off", "time": 319, "note": 65, "velocity": 80, "channel": 0}, {"type": "note_on", "time": 242, "note": 67, "velocity": 100, "channel": 0}, {"type": "note_off", "time": 227, "note": 67, "velocity": 100, "channel": 0}, {"type": "note_on", "time": 104, "note": 69, "velocity": 95, "channel": 0}, {"type": "note_off", "time": 268, "note": 69, "velocity": 95, "channel": 0}, {"type": "note_on", "time": 94, "note": 72, "velocity": 109, "channel": 0}, {"type": "note_off", "time": 304, "note": 72, "velocity": 109, "channel": 0}, {"type": "note_on", "time": 94, "note": 74, "velocity": 105, "channel": 0}, {"type": "note_off", "time": 391, "note": 74, "velocity": 105, "channel": 0}, {"type": "note_on", "time": 465, "note": 65, "velocity": 85, "channel": 0}, {"type": "note_off", "time": 1315, "note": 65, "velocity": 85, "channel": 0}, {"type": "note_on", "time": 61, "note": 68, "velocity": 106, "channel": 0}, {"type": "note_off", "time": 247, "note": 68, "velocity": 106, "channel": 0}, {"type": "note_on", "time": 903, "note": 70, "velocity": 103, "channel": 0}, {"type": "note_off", "time": 1795, "note": 70, "velocity": 103, "channel": 0}, {"type": "note_on", "time": 57, "note": 71, "velocity": 107, "channel": 0}, {"type": "note_off", "time": 283, "note": 71, "velocity": 107, "channel": 0}, {"type": "note_on", "time": 36, "note": 70, "velocity": 104, "channel": 0}, {"type": "note_off", "time": 312, "note": 70, "velocity": 104, "channel": 0}, {"type": "note_on", "time": 116, "note": 68, "velocity": 96, "channel": 0}, {"type": "note_off", "time": 348, "note": 68, "velocity": 96, "channel": 0}, {"type": "note_on", "time": 121, "note": 65, "velocity": 94, "channel": 0}, {"type": "note_off", "time": 211, "note": 65, "velocity": 94, "channel": 0}, {"type": "note_on", "time": 102, "note": 60, "velocity": 79, "channel": 0}, {"type": "note_off", "time": 348, "note": 60, "velocity": 79, "channel": 0}, {"type": "note_on", "time": 399, "note": 65, "velocity": 85, "channel": 0}, {"type": "note_off", "time": 1255, "note": 65, "velocity": 85, "channel": 0}, {"type": "note_on", "time": 217, "note": 69, "velocity": 108, "channel": 0}, {"type": "note_off", "time": 464, "note": 69, "velocity": 108, "channel": 0}, {"type": "note_on", "time": 4245, "note": 65, "velocity": 91, "channel": 0}, {"type": "note_off", "time": 195, "note": 65, "velocity": 91, "channel": 0}, {"type": "note_on", "time": 73, "note": 69, "velocity": 104, "channel": 0}, {"type": "note_off", "time": 258, "note": 69, "velocity": 104, "channel": 0}, {"type": "note_on", "time": 67, "note": 70, "velocity": 109, "channel": 0}, {"type": "note_off", "time": 217, "note": 70, "velocity": 109, "channel": 0}, {"type": "note_on", "time": 44, "note": 69, "velocity": 84, "channel": 0}, {"type": "note_off", "time": 232, "note": 69, "velocity": 84, "channel": 0}, {"type": "note_on", "time": 51, "note": 70, "velocity": 97, "channel": 0}, {"type": "note_off", "time": 201, "note": 70, "velocity": 97, "channel": 0}, {"type": "note_on", "time": 61, "note": 69, "velocity": 87, "channel": 0}, {"type": "note_off", "time": 196, "note": 69, "velocity": 87, "channel": 0}, {"type": "note_on", "time": 56, "note": 70, "velocity": 108, "channel": 0}, {"type": "note_off", "time": 216, "note": 70, "velocity": 108, "channel": 0}, {"type": "note_on", "time": 27, "note": 69, "velocity": 86, "channel": 0}, {"type": "note_off", "time": 181, "note": 69, "velocity": 86, "channel": 0}, {"type": "note_on", "time": 111, "note": 70, "velocity": 105, "channel": 0}, {"type": "note_off", "time": 242, "note": 70, "velocity": 105, "channel": 0}, {"type": "note_on", "time": 45, "note": 69, "velocity": 92, "channel": 0}, {"type": "note_off", "time": 188, "note": 69, "velocity": 92, "channel": 0}, {"type": "note_on", "time": 39, "note": 70, "velocity": 101, "channel": 0}, {"type": "note_off", "time": 247, "note": 70, "velocity": 101, "channel": 0}, {"type": "note_on", "time": 32, "note": 69, "velocity": 88, "channel": 0}, {"type": "note_off", "time": 232, "note": 69, "velocity": 88, "channel": 0}, {"type": "note_on", "time": 43, "note": 70, "velocity": 98, "channel": 0}, {"type": "note_off", "time": 283, "note": 70, "velocity": 98, "channel": 0}, {"type": "note_on", "time": 38, "note": 69, "velocity": 88, "channel": 0}, {"type": "note_off", "time": 139, "note": 69, "velocity": 88, "channel": 0}, {"type": "note_on", "time": 20, "note": 70, "velocity": 100, "channel": 0}, {"type": "note_off", "time": 299, "note": 70, "velocity": 100, "channel": 0}, {"type": "note_on", "time": 41, "note": 69, "velocity": 88, "channel": 0}, {"type": "note_off", "time": 165, "note": 69, "velocity": 88, "channel": 0}, {"type": "note_on", "time": 25, "note": 70, "velocity": 98, "channel": 0}, {"type": "note_off", "time": 356, "note": 70, "velocity": 98, "channel": 0}, {"type": "note_on", "time": 38, "note": 69, "velocity": 84, "channel": 0}, {"type": "note_off", "time": 217, "note": 69, "velocity": 84, "channel": 0}, {"type": "note_on", "time": 37, "note": 70, "velocity": 87, "channel": 0}, {"type": "note_off", "time": 227, "note": 70, "velocity": 87, "channel": 0}, {"type": "note_on", "time": 30, "note": 69, "velocity": 83, "channel": 0}, {"type": "note_off", "time": 201, "note": 69, "velocity": 83, "channel": 0}, {"type": "note_on", "time": 118, "note": 69, "velocity": 101, "channel": 0}, {"type": "note_off", "time": 216, "note": 69, "velocity": 101, "channel": 0}, {"type": "note_on", "time": 15, "note": 70, "velocity": 99, "channel": 0}, {"type": "note_off", "time": 263, "note": 70, "velocity": 99, "channel": 0}, {"type": "note_on", "time": 6, "note": 69, "velocity": 99, "channel": 0}, {"type": "note_off", "time": 275, "note": 69, "velocity": 99, "channel": 0}, {"type": "note_on", "time": 151, "note": 65, "velocity": 90, "channel": 0}, {"type": "note_off", "time": 129, "note": 65, "velocity": 90, "channel": 0}, {"type": "note_on", "time": 46, "note": 60, "velocity": 67, "channel": 0}, {"type": "note_off", "time": 210, "note": 60, "velocity": 67, "channel": 0}, {"type": "note_on", "time": 94, "note": 64, "velocity": 92, "channel": 0}, {"type": "note_off", "time": 242, "note": 64, "velocity": 92, "channel": 0}, {"type": "note_on", "time": 54, "note": 65, "velocity": 94, "channel": 0}, {"type": "note_off", "time": 762, "note": 65, "velocity": 94, "channel": 0}, {"type": "note_on", "time": 130, "note": 63, "velocity": 83, "channel": 0}, {"type": "note_off", "time": 159, "note": 63, "velocity": 83, "channel": 0}, {"type": "note_on", "time": 33, "note": 62, "velocity": 78, "channel": 0}, {"type": "note_off", "time": 273, "note": 62, "velocity": 78, "channel": 0}, {"type": "note_on", "time": 36, "note": 63, "velocity": 107, "channel": 0}, {"type": "note_off", "time": 175, "note": 63, "velocity": 107, "channel": 0}, {"type": "note_on", "time": 15, "note": 62, "velocity": 81, "channel": 0}, {"type": "note_off", "time": 557, "note": 62, "velocity": 81, "channel": 0}, {"type": "note_on", "time": 46, "note": 62, "velocity": 102, "channel": 0}, {"type": "note_off", "time": 278, "note": 62, "velocity": 102, "channel": 0}, {"type": "note_on", "time": 118, "note": 61, "velocity": 82, "channel": 0}, {"type": "note_off", "time": 397, "note": 61, "velocity": 82, "channel": 0}, {"type": "note_on", "time": 36, "note": 61, "velocity": 103, "channel": 0}, {"type": "note_off", "time": 319, "note": 61, "velocity": 103, "channel": 0}, {"type": "note_on", "time": 82, "note": 60, "velocity": 96, "channel": 0}, {"type": "note_off", "time": 278, "note": 60, "velocity": 96, "channel": 0}, {"type": "note_on", "time": 1399, "note": 69, "velocity": 79, "channel": 0}, {"type": "note_off", "time": 315, "note": 69, "velocity": 79, "channel": 0}, {"type": "note_on", "time": 80, "note": 72, "velocity": 114, "channel": 0}, {"type": "note_off", "time": 304, "note": 72, "velocity": 114, "channel": 0}, {"type": "note_on", "time": 51, "note": 74, "velocity": 114, "channel": 0}, {"type": "note_off", "time": 325, "note": 74, "velocity": 114, "channel": 0}, {"type": "note_on", "time": 1403, "note": 81, "velocity": 103, "channel": 0}, {"type": "note_off", "time": 418, "note": 81, "velocity": 103, "channel": 0}, {"type": "note_on", "time": 25, "note": 77, "velocity": 110, "channel": 0}, {"type": "note_off", "time": 242, "note": 77, "velocity": 110, "channel": 0}, {"type": "note_on", "time": 0, "note": 77, "velocity": 80, "channel": 0}, {"type": "note_off", "time": 0, "note": 77, "velocity": 80, "channel": 0}, {"type": "note_on", "time": 872, "note": 77, "velocity": 90, "channel": 0}, {"type": "note_off", "time": 211, "note": 77, "velocity": 90, "channel": 0}, {"type": "note_on", "time": 5, "note": 76, "velocity": 101, "channel": 0}, {"type": "note_off", "time": 614, "note": 76, "velocity": 101, "channel": 0}, {"type": "note_on", "time": 46, "note": 72, "velocity": 79, "channel": 0}, {"type": "note_off", "time": 866, "note": 72, "velocity": 79, "channel": 0}, {"type": "note_on", "time": 1259, "note": 74, "velocity": 84, "channel": 0}, {"type": "note_off", "time": 159, "note": 74, "velocity": 84, "channel": 0}, {"type": "note_on", "time": 15, "note": 70, "velocity": 103, "channel": 0}, {"type": "note_off", "time": 252, "note": 70, "velocity": 103, "channel": 0}, {"type": "note_on", "time": 118, "note": 67, "velocity": 87, "channel": 0}, {"type": "note_off", "time": 278, "note": 67, "velocity": 87, "channel": 0}, {"type": "note_on", "time": 1155, "note": 74, "velocity": 82, "channel": 0}, {"type": "note_off", "time": 201, "note": 74, "velocity": 82, "channel": 0}, {"type": "note_on", "time": 20, "note": 72, "velocity": 102, "channel": 0}, {"type": "note_off", "time": 288, "note": 72, "velocity": 102, "channel": 0}, {"type": "note_on", "time": 252, "note": 64, "velocity": 91, "channel": 0}, {"type": "note_off", "time": 154, "note": 64, "velocity": 91, "channel": 0}, {"type": "note_on", "time": 10, "note": 65, "velocity": 91, "channel": 0}, {"type": "note_off", "time": 273, "note": 65, "velocity": 91, "channel": 0}, {"type": "note_on", "time": 345, "note": 70, "velocity": 105, "channel": 0}, {"type": "note_off", "time": 232, "note": 70, "velocity": 105, "channel": 0}, {"type": "note_on", "time": 211, "note": 69, "velocity": 101, "channel": 0}, {"type": "note_off", "time": 247, "note": 69, "velocity": 101, "channel": 0}, {"type": "note_on", "time": 165, "note": 65, "velocity": 97, "channel": 0}, {"type": "note_off", "time": 333, "note": 65, "velocity": 97, "channel": 0}, {"type": "note_on", "time": 108, "note": 63, "velocity": 81, "channel": 0}, {"type": "note_off", "time": 391, "note": 63, "velocity": 81, "channel": 0}, {"type": "note_on", "time": 78, "note": 63, "velocity": 75, "channel": 0}, {"type": "note_off", "time": 743, "note": 63, "velocity": 75, "channel": 0}, {"type": "note_on", "time": 1785, "note": 65, "velocity": 86, "channel": 0}, {"type": "note_off", "time": 159, "note": 65, "velocity": 86, "channel": 0}, {"type": "note_on", "time": 78, "note": 68, "velocity": 98, "channel": 0}, {"type": "note_off", "time": 738, "note": 68, "velocity": 98, "channel": 0}, {"type": "note_on", "time": 38, "note": 68, "velocity": 98, "channel": 0}, {"type": "note_off", "time": 667, "note": 68, "velocity": 98, "channel": 0}, {"type": "note_on", "time": 54, "note": 65, "velocity": 77, "channel": 0}, {"type": "note_off", "time": 159, "note": 65, "velocity": 77, "channel": 0}, {"type": "note_on", "time": 44, "note": 68, "velocity": 93, "channel": 0}, {"type": "note_off", "time": 557, "note": 68, "velocity": 93, "channel": 0}, {"type": "note_on", "time": 10, "note": 70, "velocity": 107, "channel": 0}, {"type": "note_off", "time": 221, "note": 70, "velocity": 107, "channel": 0}, {"type": "note_on", "time": 875, "note": 70, "velocity": 98, "channel": 0}, {"type": "note_off", "time": 420, "note": 70, "velocity": 98, "channel": 0}, {"type": "note_on", "time": 138, "note": 71, "velocity": 112, "channel": 0}, {"type": "note_off", "time": 216, "note": 71, "velocity": 112, "channel": 0}, {"type": "note_on", "time": 863, "note": 70, "velocity": 101, "channel": 0}, {"type": "note_off", "time": 493, "note": 70, "velocity": 101, "channel": 0}, {"type": "note_on", "time": 65, "note": 68, "velocity": 100, "channel": 0}, {"type": "note_off", "time": 210, "note": 68, "velocity": 100, "channel": 0}, {"type": "note_on", "time": 50, "note": 65, "velocity": 86, "channel": 0}, {"type": "note_off", "time": 537, "note": 65, "velocity": 86, "channel": 0}, {"type": "note_on", "time": 283, "note": 65, "velocity": 83, "channel": 0}, {"type": "note_off", "time": 725, "note": 65, "velocity": 83, "channel": 0}, {"type": "note_on", "time": 696, "note": 69, "velocity": 95, "channel": 0}, {"type": "note_off", "time": 239, "note": 69, "velocity": 95, "channel": 0}, {"type": "note_on", "time": 136, "note": 69, "velocity": 103, "channel": 0}, {"type": "note_off", "time": 175, "note": 69, "velocity": 103, "channel": 0}, {"type": "note_on", "time": 27, "note": 70, "velocity": 104, "channel": 0}, {"type": "note_off", "time": 162, "note": 70, "velocity": 104, "channel": 0}, {"type": "note_on", "time": 28, "note": 69, "velocity": 99, "channel": 0}, {"type": "note_off", "time": 1011, "note": 69, "velocity": 99, "channel": 0}, {"type": "note_on", "time": 2668, "note": 70, "velocity": 110, "channel": 0}, {"type": "note_off", "time": 490, "note": 70, "velocity": 110, "channel": 0}, {"type": "note_on", "time": 24, "note": 69, "velocity": 107, "channel": 0}, {"type": "note_off", "time": 283, "note": 69, "velocity": 107, "channel": 0}, {"type": "note_on", "time": 0, "note": 65, "velocity": 90, "channel": 0}, {"type": "note_off", "time": 471, "note": 65, "velocity": 90, "channel": 0}, {"type": "note_on", "time": 58, "note": 60, "velocity": 75, "channel": 0}, {"type": "note_off", "time": 986, "note": 60, "velocity": 75, "channel": 0}, {"type": "note_on", "time": 94, "note": 58, "velocity": 94, "channel": 0}, {"type": "note_off", "time": 428, "note": 58, "velocity": 94, "channel": 0}, {"type": "note_on", "time": 1538, "note": 69, "velocity": 82, "channel": 0}, {"type": "note_off", "time": 268, "note": 69, "velocity": 82, "channel": 0}, {"type": "note_on", "time": 88, "note": 70, "velocity": 108, "channel": 0}, {"type": "note_off", "time": 381, "note": 70, "velocity": 108, "channel": 0}, {"type": "note_on", "time": 51, "note": 69, "velocity": 104, "channel": 0}, {"type": "note_off", "time": 258, "note": 69, "velocity": 104, "channel": 0}, {"type": "note_on", "time": 201, "note": 65, "velocity": 92, "channel": 0}, {"type": "note_off", "time": 247, "note": 65, "velocity": 92, "channel": 0}, {"type": "note_on", "time": 87, "note": 58, "velocity": 82, "channel": 0}, {"type": "note_off", "time": 67, "note": 58, "velocity": 82, "channel": 0}, {"type": "note_on", "time": 2, "note": 60, "velocity": 75, "channel": 0}, {"type": "note_off", "time": 377, "note": 60, "velocity": 75, "channel": 0}, {"type": "note_on", "time": 435, "note": 64, "velocity": 87, "channel": 0}, {"type": "note_off", "time": 384, "note": 64, "velocity": 87, "channel": 0}, {"type": "note_on", "time": 58, "note": 65, "velocity": 79, "channel": 0}, {"type": "note_off", "time": 1306, "note": 65, "velocity": 79, "channel": 0}, {"type": "note_on", "time": 578, "note": 69, "velocity": 92, "channel": 0}, {"type": "note_off", "time": 505, "note": 69, "velocity": 92, "channel": 0}, {"type": "note_on", "time": 76, "note": 65, "velocity": 94, "channel": 0}, {"type": "note_off", "time": 344, "note": 65, "velocity": 94, "channel": 0}, {"type": "note_on", "time": 2081, "note": 68, "velocity": 96, "channel": 0}, {"type": "note_off", "time": 196, "note": 68, "velocity": 96, "channel": 0}, {"type": "note_on", "time": 11, "note": 70, "velocity": 102, "channel": 0}, {"type": "note_off", "time": 264, "note": 70, "velocity": 102, "channel": 0}, {"type": "note_on", "time": 27, "note": 69, "velocity": 94, "channel": 0}, {"type": "note_off", "time": 634, "note": 69, "velocity": 94, "channel": 0}, {"type": "note_on", "time": 132, "note": 65, "velocity": 89, "channel": 0}, {"type": "note_off", "time": 391, "note": 65, "velocity": 89, "channel": 0}, {"type": "note_on", "time": 167, "note": 60, "velocity": 82, "channel": 0}, {"type": "note_off", "time": 949, "note": 60, "velocity": 82, "channel": 0}, {"type": "end_of_track", "time": 0}]]}