{"ticks_per_beat": 192, "tracks": [[{"type": "track_name", "name": "Melody", "time": 0}, {"type": "set_tempo", "tempo": 220588, "time": 0}, {"type": "key_signature", "key": "Bb", "time": 0}, {"type": "time_signature", "numerator": 4, "denominator": 4, "clocks_per_click": 24, "notated_32nd_notes_per_beat": 8, "time": 0}, {"type": "note_on", "time": 3350, "note": 74, "velocity": 112, "channel": 0}, {"type": "note_off", "time": 85, "note": 74, "velocity": 112, "channel": 0}, {"type": "note_on", "time": 24, "note": 72, "velocity": 102, "channel": 0}, {"type": "note_off", "time": 88, "note": 72, "velocity": 102, "channel": 0}, {"type": "note_on", "time": 7, "note": 69, "velocity": 102, "channel": 0}, {"type": "note_off", "time": 131, "note": 69, "velocity": 102, "channel": 0}, {"type": "note_on", "time": 10, "note": 65, "velocity": 105, "channel": 0}, {"type": "note_off", "time": 156, "note": 65, "velocity": 105, "channel": 0}, {"type": "note_on", "time": 21, "note": 63, "velocity": 110, "channel": 0}, {"type": "note_off", "time": 113, "note": 63, "velocity": 110, "channel": 0}, {"type": "note_on", "time": 0, "note": 62, "velocity": 103, "channel": 0}, {"type": "note_off", "time": 632, "note": 62, "velocity": 103, "channel": 0}, {"type": "note_on", "time": 170, "note": 68, "velocity": 111, "channel": 0}, {"type": "note_off", "time": 31, "note": 68, "velocity": 111, "channel": 0}, {"type": "note_on", "time": 14, "note": 70, "velocity": 113, "channel": 0}, {"type": "note_off", "time": 73, "note": 70, "velocity": 113, "channel": 0}, {"type": "note_on", "time": 0, "note": 67, "velocity": 104, "channel": 0}, {"type": "note_off", "time": 426, "note": 67, "velocity": 104, "channel": 0}, {"type": "note_on", "time": 195, "note": 62, "velocity": 124, "channel": 0}, {"type": "note_off", "time": 113, "note": 62, "velocity": 124, "channel": 0}, {"type": "note_on", "time": 10, "note": 60, "velocity": 108, "channel": 0}, {"type": "note_off", "time": 579, "note": 60, "velocity": 108, "channel": 0}, {"type": "note_on", "time": 132, "note": 62, "velocity": 112, "channel": 0}, {"type": "note_off", "time": 86, "note": 62, "velocity": 112, "channel": 0}, {"type": "note_on", "time": 8, "note": 63, "velocity": 115, "channel": 0}, {"type": "note_off", "time": 110, "note": 63, "velocity": 115, "channel": 0}, {"type": "note_on", "time": 6, "note": 65, "velocity": 119, "channel": 0}, {"type": "note_off", "time": 93, "note": 65, "velocity": 119, "channel": 0}, {"type": "note_on", "time": 14, "note": 67, "velocity": 111, "channel": 0}, {"type": "note_off", "time": 88, "note": 67, "velocity": 111, "channel": 0}, {"type": "note_on", "time": 3, "note": 70, "velocity": 107, "channel": 0}, {"type": "note_off", "time": 78, "note": 70, "velocity": 107, "channel": 0}, {"type": "note_on", "time": 3, "note": 69, "velocity": 112, "channel": 0}, {"type": "note_off", "time": 124, "note": 69, "velocity": 112, "channel": 0}, {"type": "note_on", "time": 10, "note": 65, "velocity": 110, "channel": 0}, {"type": "note_off", "time": 46, "note": 65, "velocity": 110, "channel": 0}, {"type": "note_on", "time": 3, "note": 67, "velocity": 107, "channel": 0}, {"type": "note_off", "time": 156, "note": 67, "velocity": 107, "channel": 0}, {"type": "note_on", "time": 74, "note": 65, "velocity": 97, "channel": 0}, {"type": "note_off", "time": 273, "note": 65, "velocity": 97, "channel": 0}, {"type": "note_on", "time": 1090, "note": 69, "velocity": 116, "channel": 0}, {"type": "note_off", "time": 106, "note": 69, "velocity": 116, "channel": 0}, {"type": "note_on", "time": 0, "note": 70, "velocity": 110, "channel": 0}, {"type": "note_off", "time": 113, "note": 70, "velocity": 110, "channel": 0}, {"type": "note_on", "time": 3, "note": 67, "velocity": 105, "channel": 0}, {"type": "note_off", "time": 149, "note": 67, "velocity": 105, "channel": 0}, {"type": "note_on", "time": 63, "note": 63, "velocity": 105, "channel": 0}, {"type": "note_off", "time": 440, "note": 63, "velocity": 105, "channel": 0}, {"type": "note_on", "time": 665, "note": 74, "velocity": 117, "channel": 0}, {"type": "note_off", "time": 88, "note": 74, "velocity": 117, "channel": 0}, {"type": "note_on", "time": 2, "note": 72, "velocity": 98, "channel": 0}, {"type": "note_off", "time": 152, "note": 72, "velocity": 98, "channel": 0}, {"type": "note_on", "time": 39, "note": 69, "velocity": 116, "channel": 0}, {"type": "note_off", "time": 195, "note": 69, "velocity": 116, "channel": 0}, {"type": "note_on", "time": 65, "note": 65, "velocity": 114, "channel": 0}, {"type": "note_off", "time": 419, "note": 65, "velocity": 114, "channel": 0}, {"type": "note_on", "time": 1007, "note": 61, "velocity": 96, "channel": 0}, {"type": "note_off", "time": 92, "note": 61, "velocity": 96, "channel": 0}, {"type": "note_on", "time": 17, "note": 62, "velocity": 106, "channel": 0}, {"type": "note_off", "time": 63, "note": 62, "velocity": 106, "channel": 0}, {"type": "note_on", "time": 31, "note": 64, "velocity": 124, "channel": 0}, {"type": "note_off", "time": 78, "note": 64, "velocity": 124, "channel": 0}, {"type": "note_on", "time": 10, "note": 65, "velocity": 126, "channel": 0}, {"type": "note_off", "time": 95, "note": 65, "velocity": 126, "channel": 0}, {"type": "note_on", "time": 0, "note": 67, "velocity": 121, "channel": 0}, {"type": "note_off", "time": 95, "note": 67, "velocity": 121, "channel": 0}, {"type": "note_on", "time": 21, "note": 69, "velocity": 109, "channel": 0}, {"type": "note_off", "time": 81, "note": 69, "velocity": 109, "channel": 0}, {"type": "note_on", "time": 17, "note": 70, "velocity": 120, "channel": 0}, {"type": "note_off", "time": 61, "note": 70, "velocity": 120, "channel": 0}, {"type": "note_on", "time": 13, "note": 73, "velocity": 112, "channel": 0}, {"type": "note_off", "time": 81, "note": 73, "velocity": 112, "channel": 0}, {"type": "note_on", "time": 3, "note": 74, "velocity": 118, "channel": 0}, {"type": "note_off", "time": 370, "note": 74, "velocity": 118, "channel": 0}, {"type": "note_on", "time": 22, "note": 72, "velocity": 107, "channel": 0}, {"type": "note_off", "time": 275, "note": 72, "velocity": 107, "channel": 0}, {"type": "note_on", "time": 17, "note": 73, "velocity": 110, "channel": 0}, {"type": "note_off", "time": 71, "note": 73, "velocity": 110, "channel": 0}, {"type": "note_on", "time": 14, "note": 74, "velocity": 113, "channel": 0}, {"type": "note_off", "time": 380, "note": 74, "velocity": 113, "channel": 0}, {"type": "note_on", "time": 10, "note": 77, "velocity": 117, "channel": 0}, {"type": "note_off", "time": 88, "note": 77, "velocity": 117, "channel": 0}, {"type": "note_on", "time": 81, "note": 75, "velocity": 119, "channel": 0}, {"type": "note_off", "time": 110, "note": 75, "velocity": 119, "channel": 0}, {"type": "note_on", "time": 12, "note": 74, "velocity": 105, "channel": 0}, {"type": "note_off", "time": 518, "note": 74, "velocity": 105, "channel": 0}, {"type": "note_on", "time": 605, "note": 75, "velocity": 107, "channel": 0}, {"type": "note_off", "time": 117, "note": 75, "velocity": 107, "channel": 0}, {"type": "note_on", "time": 6, "note": 74, "velocity": 119, "channel": 0}, {"type": "note_off", "time": 73, "note": 74, "velocity": 119, "channel": 0}, {"type": "note_on", "time": 11, "note": 72, "velocity": 116, "channel": 0}, {"type": "note_off", "time": 78, "note": 72, "velocity": 116, "channel": 0}, {"type": "note_on", "time": 10, "note": 71, "velocity": 109, "channel": 0}, {"type": "note_off", "time": 99, "note": 71, "velocity": 109, "channel": 0}, {"type": "note_on", "time": 10, "note": 69, "velocity": 117, "channel": 0}, {"type": "note_off", "time": 88, "note": 69, "velocity": 117, "channel": 0}, {"type": "note_on", "time": 21, "note": 67, "velocity": 104, "channel": 0}, {"type": "note_off", "time": 113, "note": 67, "velocity": 104, "channel": 0}, {"type": "note_on", "time": 49, "note": 67, "velocity": 102, "channel": 0}, {"type": "note_off", "time": 145, "note": 67, "velocity": 102, "channel": 0}, {"type": "note_on", "time": 28, "note": 67, "velocity": 108, "channel": 0}, {"type": "note_off", "time": 273, "note": 67, "velocity": 108, "channel": 0}, {"type": "note_on", "time": 1005, "note": 64, "velocity": 108, "channel": 0}, {"type": "note_off", "time": 64, "note": 64, "velocity": 108, "channel": 0}, {"type": "note_on", "time": 23, "note": 69, "velocity": 102, "channel": 0}, {"type": "note_off", "time": 42, "note": 69, "velocity": 102, "channel": 0}, {"type": "note_on", "time": 0, "note": 72, "velocity": 94, "channel": 0}, {"type": "note_off", "time": 45, "note": 72, "velocity": 94, "channel": 0}, {"type": "note_on", "time": 26, "note": 72, "velocity": 119, "channel": 0}, {"type": "note_off", "time": 56, "note": 72, "velocity": 119, "channel": 0}, {"type": "note_on", "time": 35, "note": 74, "velocity": 116, "channel": 0}, {"type": "note_off", "time": 55, "note": 74, "velocity": 116, "channel": 0}, {"type": "note_on", "time": 28, "note": 74, "velocity": 117, "channel": 0}, {"type": "note_off", "time": 72, "note": 74, "velocity": 117, "channel": 0}, {"type": "note_on", "time": 13, "note": 72, "velocity": 99, "channel": 0}, {"type": "note_off", "time": 106, "note": 72, "velocity": 99, "channel": 0}, {"type": "note_on", "time": 88, "note": 74, "velocity": 98, "channel": 0}, {"type": "note_off", "time": 81, "note": 74, "velocity": 98, "channel": 0}, {"type": "note_on", "time": 30, "note": 74, "velocity": 120, "channel": 0}, {"type": "note_off", "time": 62, "note": 74, "velocity": 120, "channel": 0}, {"type": "note_on", "time": 26, "note": 72, "velocity": 106, "channel": 0}, {"type": "note_off", "time": 71, "note": 72, "velocity": 106, "channel": 0}, {"type": "note_on", "time": 111, "note": 74, "velocity": 104, "channel": 0}, {"type": "note_off", "time": 71, "note": 74, "velocity": 104, "channel": 0}, {"type": "note_on", "time": 24, "note": 74, "velocity": 113, "channel": 0}, {"type": "note_off", "time": 88, "note": 74, "velocity": 113, "channel": 0}, {"type": "note_on", "time": 3, "note": 72, "velocity": 103, "channel": 0}, {"type": "note_off", "time": 99, "note": 72, "velocity": 103, "channel": 0}, {"type": "note_on", "time": 35, "note": 69, "velocity": 104, "channel": 0}, {"type": "note_off", "time": 259, "note": 69, "velocity": 104, "channel": 0}, {"type": "note_on", "time": 0, "note": 65, "velocity": 114, "channel": 0}, {"type": "note_off", "time": 131, "note": 65, "velocity": 114, "channel": 0}, {"type": "note_on", "time": 3, "note": 62, "velocity": 110, "channel": 0}, {"type": "note_off", "time": 81, "note": 62, "velocity": 110, "channel": 0}, {"type": "note_on", "time": 18, "note": 63, "velocity": 114, "channel": 0}, {"type": "note_off", "time": 142, "note": 63, "velocity": 114, "channel": 0}, {"type": "note_on", "time": 1200, "note": 70, "velocity": 107, "channel": 0}, {"type": "note_off", "time": 88, "note": 70, "velocity": 107, "channel": 0}, {"type": "note_on", "time": 0, "note": 74, "velocity": 110, "channel": 0}, {"type": "note_off", "time": 71, "note": 74, "velocity": 110, "channel": 0}, {"type": "note_on", "time": 42, "note": 77, "velocity": 124, "channel": 0}, {"type": "note_off", "time": 163, "note": 77, "velocity": 124, "channel": 0}, {"type": "note_on", "time": 17, "note": 74, "velocity": 107, "channel": 0}, {"type": "note_off", "time": 138, "note": 74, "velocity": 107, "channel": 0}, {"type": "note_on", "time": 63, "note": 75, "velocity": 96, "channel": 0}, {"type": "note_off", "time": 127, "note": 75, "velocity": 96, "channel": 0}, {"type": "note_on", "time": 195, "note": 77, "velocity": 121, "channel": 0}, {"type": "note_off", "time": 170, "note": 77, "velocity": 121, "channel": 0}, {"type": "note_on", "time": 136, "note": 79, "velocity": 101, "channel": 0}, {"type": "note_off", "time": 88, "note": 79, "velocity": 101, "channel": 0}, {"type": "note_on", "time": 23, "note": 81, "velocity": 110, "channel": 0}, {"type": "note_off", "time": 877, "note": 81, "velocity": 110, "channel": 0}, {"type": "note_on", "time": 85, "note": 77, "velocity": 112, "channel": 0}, {"type": "note_off", "time": 85, "note": 77, "velocity": 112, "channel": 0}, {"type": "note_on", "time": 106, "note": 77, "velocity": 113, "channel": 0}, {"type": "note_off", "time": 582, "note": 77, "velocity": 113, "channel": 0}, {"type": "note_on", "time": 60, "note": 74, "velocity": 88, "channel": 0}, {"type": "note_off", "time": 113, "note": 74, "velocity": 88, "channel": 0}, {"type": "note_on", "time": 60, "note": 74, "velocity": 103, "channel": 0}, {"type": "note_off", "time": 490, "note": 74, "velocity": 103, "channel": 0}, {"type": "note_on", "time": 28, "note": 70, "velocity": 96, "channel": 0}, {"type": "note_off", "time": 525, "note": 70, "velocity": 96, "channel": 0}, {"type": "note_on", "time": 1481, "note": 69, "velocity": 113, "channel": 0}, {"type": "note_off", "time": 92, "note": 69, "velocity": 113, "channel": 0}, {"type": "note_on", "time": 0, "note": 70, "velocity": 105, "channel": 0}, {"type": "note_off", "time": 95, "note": 70, "velocity": 105, "channel": 0}, {"type": "note_on", "time": 17, "note": 64, "velocity": 90, "channel": 0}, {"type": "note_off", "time": 63, "note": 64, "velocity": 90, "channel": 0}, {"type": "note_on", "time": 3, "note": 65, "velocity": 116, "channel": 0}, {"type": "note_off", "time": 88, "note": 65, "velocity": 116, "channel": 0}, {"type": "note_on", "time": 10, "note": 67, "velocity": 117, "channel": 0}, {"type": "note_off", "time": 71, "note": 67, "velocity": 117, "channel": 0}, {"type": "note_on", "time": 21, "note": 68, "velocity": 112, "channel": 0}, {"type": "note_off", "time": 103, "note": 68, "velocity": 112, "channel": 0}, {"type": "note_on", "time": 10, "note": 66, "velocity": 112, "channel": 0}, {"type": "note_off", "time": 53, "note": 66, "velocity": 112, "channel": 0}, {"type": "note_on", "time": 21, "note": 64, "velocity": 118, "channel": 0}, {"type": "note_off", "time": 88, "note": 64, "velocity": 118, "channel": 0}, {"type": "note_on", "time": 17, "note": 62, "velocity": 114, "channel": 0}, {"type": "note_off", "time": 92, "note": 62, "velocity": 114, "channel": 0}, {"type": "note_on", "time": 3, "note": 63, "velocity": 115, "channel": 0}, {"type": "note_off", "time": 85, "note": 63, "velocity": 115, "channel": 0}, {"type": "note_on", "time": 7, "note": 65, "velocity": 118, "channel": 0}, {"type": "note_off", "time": 99, "note": 65, "velocity": 118, "channel": 0}, {"type": "note_on", "time": 7, "note": 67, "velocity": 117, "channel": 0}, {"type": "note_off", "time": 78, "note": 67, "velocity": 117, "channel": 0}, {"type": "note_on", "time": 0, "note": 70, "velocity": 100, "channel": 0}, {"type": "note_off", "time": 78, "note": 70, "velocity": 100, "channel": 0}, {"type": "note_on", "time": 9, "note": 68, "velocity": 108, "channel": 0}, {"type": "note_off", "time": 95, "note": 68, "velocity": 108, "channel": 0}, {"type": "note_on", "time": 11, "note": 65, "velocity": 118, "channel": 0}, {"type": "note_off", "time": 85, "note": 65, "velocity": 118, "channel": 0}, {"type": "note_on", "time": 7, "note": 66, "velocity": 104, "channel": 0}, {"type": "note_off", "time": 63, "note": 66, "velocity": 104, "channel": 0}, {"type": "note_on", "time": 0, "note": 63, "velocity": 103, "channel": 0}, {"type": "note_off", "time": 53, "note": 63, "velocity": 103, "channel": 0}, {"type": "note_on", "time": 3, "note": 64, "velocity": 114, "channel": 0}, {"type": "note_off", "time": 53, "note": 64, "velocity": 114, "channel": 0}, {"type": "note_on", "time": 10, "note": 65, "velocity": 116, "channel": 0}, {"type": "note_off", "time": 53, "note": 65, "velocity": 116, "channel": 0}, {"type": "note_on", "time": 0, "note": 58, "velocity": 122, "channel": 0}, {"type": "note_off", "time": 88, "note": 58, "velocity": 122, "channel": 0}, {"type": "note_on", "time": 28, "note": 61, "velocity": 97, "channel": 0}, {"type": "note_off", "time": 92, "note": 61, "velocity": 97, "channel": 0}, {"type": "note_on", "time": 28, "note": 65, "velocity": 116, "channel": 0}, {"type": "note_off", "time": 74, "note": 65, "velocity": 116, "channel": 0}, {"type": "note_on", "time": 24, "note": 64, "velocity": 116, "channel": 0}, {"type": "note_off", "time": 85, "note": 64, "velocity": 116, "channel": 0}, {"type": "note_on", "time": 0, "note": 61, "velocity": 112, "channel": 0}, {"type": "note_off", "time": 106, "note": 61, "velocity": 112, "channel": 0}, {"type": "note_on", "time": 7, "note": 63, "velocity": 117, "channel": 0}, {"type": "note_off", "time": 71, "note": 63, "velocity": 117, "channel": 0}, {"type": "note_on", "time": 24, "note": 65, "velocity": 116, "channel": 0}, {"type": "note_off", "time": 74, "note": 65, "velocity": 116, "channel": 0}, {"type": "note_on", "time": 24, "note": 67, "velocity": 102, "channel": 0}, {"type": "note_off", "time": 85, "note": 67, "velocity": 102, "channel": 0}, {"type": "note_on", "time": 17, "note": 69, "velocity": 108, "channel": 0}, {"type": "note_off", "time": 60, "note": 69, "velocity": 108, "channel": 0}, {"type": "note_on", "time": 10, "note": 70, "velocity": 108, "channel": 0}, {"type": "note_off", "time": 78, "note": 70, "velocity": 108, "channel": 0}, {"type": "note_on", "time": 33, "note": 73, "velocity": 106, "channel": 0}, {"type": "note_off", "time": 68, "note": 73, "velocity": 106, "channel": 0}, {"type": "note_on", "time": 11, "note": 74, "velocity": 120, "channel": 0}, {"type": "note_off", "time": 110, "note": 74, "velocity": 120, "channel": 0}, {"type": "note_on", "time": 2, "note": 72, "velocity": 97, "channel": 0}, {"type": "note_off", "time": 54, "note": 72, "velocity": 97, "channel": 0}, {"type": "note_on", "time": 13, "note": 73, "velocity": 119, "channel": 0}, {"type": "note_off", "time": 96, "note": 73, "velocity": 119, "channel": 0}, {"type": "note_on", "time": 9, "note": 70, "velocity": 102, "channel": 0}, {"type": "note_off", "time": 95, "note": 70, "velocity": 102, "channel": 0}, {"type": "note_on", "time": 3, "note": 72, "velocity": 116, "channel": 0}, {"type": "note_off", "time": 81, "note": 72, "velocity": 116, "channel": 0}, {"type": "note_on", "time": 6, "note": 70, "velocity": 120, "channel": 0}, {"type": "note_off", "time": 75, "note": 70, "velocity": 120, "channel": 0}, {"type": "note_on", "time": 0, "note": 71, "velocity": 116, "channel": 0}, {"type": "note_off", "time": 106, "note": 71, "velocity": 116, "channel": 0}, {"type": "note_on", "time": 17, "note": 69, "velocity": 117, "channel": 0}, {"type": "note_off", "time": 95, "note": 69, "velocity": 117, "channel": 0}, {"type": "note_on", "time": 0, "note": 70, "velocity": 122, "channel": 0}, {"type": "note_on", "time": 88, "note": 68, "velocity": 110, "channel": 0}, {"type": "note_off", "time": 0, "note": 70, "velocity": 122, "channel": 0}, {"type": "note_off", "time": 67, "note": 68, "velocity": 110, "channel": 0}, {"type": "note_on", "time": 21, "note": 69, "velocity": 116, "channel": 0}, {"type": "note_off", "time": 99, "note": 69, "velocity": 116, "channel": 0}, {"type": "note_on", "time": 0, "note": 67, "velocity": 105, "channel": 0}, {"type": "note_off", "time": 92, "note": 67, "velocity": 105, "channel": 0}, {"type": "note_on", "time": 18, "note": 68, "velocity": 114, "channel": 0}, {"type": "note_off", "time": 81, "note": 68, "velocity": 114, "channel": 0}, {"type": "note_on", "time": 5, "note": 65, "velocity": 125, "channel": 0}, {"type": "note_off", "time": 81, "note": 65, "velocity": 125, "channel": 0}, {"type": "note_on", "time": 10, "note": 66, "velocity": 111, "channel": 0}, {"type": "note_off", "time": 49, "note": 66, "velocity": 111, "channel": 0}, {"type": "note_on", "time": 24, "note": 65, "velocity": 105, "channel": 0}, {"type": "note_off", "time": 46, "note": 65, "velocity": 105, "channel": 0}, {"type": "note_on", "time": 10, "note": 64, "velocity": 118, "channel": 0}, {"type": "note_off", "time": 67, "note": 64, "velocity": 118, "channel": 0}, {"type": "note_on", "time": 17, "note": 65, "velocity": 127, "channel": 0}, {"type": "note_off", "time": 74, "note": 65, "velocity": 127, "channel": 0}, {"type": "note_on", "time": 14, "note": 63, "velocity": 112, "channel": 0}, {"type": "note_off", "time": 81, "note": 63, "velocity": 112, "channel": 0}, {"type": "note_on", "time": 10, "note": 64, "velocity": 120, "channel": 0}, {"type": "note_off", "time": 103, "note": 64, "velocity": 120, "channel": 0}, {"type": "note_on", "time": 0, "note": 62, "velocity": 113, "channel": 0}, {"type": "note_off", "time": 88, "note": 62, "velocity": 113, "channel": 0}, {"type": "note_on", "time": 10, "note": 63, "velocity": 108, "channel": 0}, {"type": "note_off", "time": 163, "note": 63, "velocity": 108, "channel": 0}, {"type": "note_on", "time": 1531, "note": 63, "velocity": 94, "channel": 0}, {"type": "note_off", "time": 117, "note": 63, "velocity": 94, "channel": 0}, {"type": "note_on", "time": 14, "note": 65, "velocity": 110, "channel": 0}, {"type": "note_off", "time": 99, "note": 65, "velocity": 110, "channel": 0}, {"type": "note_on", "time": 10, "note": 67, "velocity": 112, "channel": 0}, {"type": "note_off", "time": 99, "note": 67, "velocity": 112, "channel": 0}, {"type": "note_on", "time": 0, "note": 69, "velocity": 106, "channel": 0}, {"type": "note_off", "time": 85, "note": 69, "velocity": 106, "channel": 0}, {"type": "note_on", "time": 3, "note": 70, "velocity": 111, "channel": 0}, {"type": "note_off", "time": 92, "note": 70, "velocity": 111, "channel": 0}, {"type": "note_on", "time": 0, "note": 73, "velocity": 110, "channel": 0}, {"type": "note_off", "time": 92, "note": 73, "velocity": 110, "channel": 0}, {"type": "note_on", "time": 0, "note": 74, "velocity": 119, "channel": 0}, {"type": "note_off", "time": 220, "note": 74, "velocity": 119, "channel": 0}, {"type": "note_on", "time": 85, "note": 74, "velocity": 117, "channel": 0}, {"type": "note_off", "time": 362, "note": 74, "velocity": 117, "channel": 0}, {"type": "note_on", "time": 21, "note": 73, "velocity": 107, "channel": 0}, {"type": "note_off", "time": 117, "note": 73, "velocity": 107, "channel": 0}, {"type": "note_on", "time": 17, "note": 72, "velocity": 113, "channel": 0}, {"type": "note_off", "time": 390, "note": 72, "velocity": 113, "channel": 0}, {"type": "note_on", "time": 65, "note": 73, "velocity": 110, "channel": 0}, {"type": "note_off", "time": 60, "note": 73, "velocity": 110, "channel": 0}, {"type": "note_on", "time": 12, "note": 74, "velocity": 112, "channel": 0}, {"type": "note_off", "time": 152, "note": 74, "velocity": 112, "channel": 0}, {"type": "note_on", "time": 81, "note": 74, "velocity": 107, "channel": 0}, {"type": "note_off", "time": 468, "note": 74, "velocity": 107, "channel": 0}, {"type": "note_on", "time": 0, "note": 73, "velocity": 111, "channel": 0}, {"type": "note_off", "time": 120, "note": 73, "velocity": 111, "channel": 0}, {"type": "note_on", "time": 31, "note": 72, "velocity": 101, "channel": 0}, {"type": "note_off", "time": 458, "note": 72, "velocity": 101, "channel": 0}, {"type": "note_on", "time": 785, "note": 74, "velocity": 118, "channel": 0}, {"type": "note_off", "time": 95, "note": 74, "velocity": 118, "channel": 0}, {"type": "note_on", "time": 7, "note": 72, "velocity": 105, "channel": 0}, {"type": "note_off", "time": 53, "note": 72, "velocity": 105, "channel": 0}, {"type": "note_on", "time": 5, "note": 68, "velocity": 106, "channel": 0}, {"type": "note_off", "time": 41, "note": 68, "velocity": 106, "channel": 0}, {"type": "note_on", "time": 10, "note": 69, "velocity": 113, "channel": 0}, {"type": "note_off", "time": 88, "note": 69, "velocity": 113, "channel": 0}, {"type": "note_on", "time": 17, "note": 67, "velocity": 97, "channel": 0}, {"type": "note_off", "time": 461, "note": 67, "velocity": 97, "channel": 0}, {"type": "note_on", "time": 21, "note": 67, "velocity": 110, "channel": 0}, {"type": "note_off", "time": 128, "note": 67, "velocity": 110, "channel": 0}, {"type": "note_on", "time": 952, "note": 67, "velocity": 111, "channel": 0}, {"type": "note_off", "time": 74, "note": 67, "velocity": 111, "channel": 0}, {"type": "note_on", "time": 14, "note": 68, "velocity": 107, "channel": 0}, {"type": "note_off", "time": 95, "note": 68, "velocity": 107, "channel": 0}, {"type": "note_on", "time": 21, "note": 70, "velocity": 109, "channel": 0}, {"type": "note_off", "time": 103, "note": 70, "velocity": 109, "channel": 0}, {"type": "note_on", "time": 0, "note": 74, "velocity": 112, "channel": 0}, {"type": "note_off", "time": 78, "note": 74, "velocity": 112, "channel": 0}, {"type": "note_on", "time": 7, "note": 76, "velocity": 111, "channel": 0}, {"type": "note_off", "time": 106, "note": 76, "velocity": 111, "channel": 0}, {"type": "note_on", "time": 7, "note": 73, "velocity": 106, "channel": 0}, {"type": "note_off", "time": 78, "note": 73, "velocity": 106, "channel": 0}, {"type": "note_on", "time": 21, "note": 74, "velocity": 114, "channel": 0}, {"type": "note_off", "time": 71, "note": 74, "velocity": 114, "channel": 0}, {"type": "note_on", "time": 3, "note": 72, "velocity": 116, "channel": 0}, {"type": "note_off", "time": 120, "note": 72, "velocity": 116, "channel": 0}, {"type": "note_on", "time": 7, "note": 71, "velocity": 116, "channel": 0}, {"type": "note_off", "time": 177, "note": 71, "velocity": 116, "channel": 0}, {"type": "note_on", "time": 17, "note": 69, "velocity": 114, "channel": 0}, {"type": "note_off", "time": 103, "note": 69, "velocity": 114, "channel": 0}, {"type": "note_on", "time": 81, "note": 71, "velocity": 115, "channel": 0}, {"type": "note_off", "time": 195, "note": 71, "velocity": 115, "channel": 0}, {"type": "note_on", "time": 0, "note": 69, "velocity": 117, "channel": 0}, {"type": "note_off", "time": 206, "note": 69, "velocity": 117, "channel": 0}, {"type": "note_on", "time": 17, "note": 67, "velocity": 114, "channel": 0}, {"type": "note_off", "time": 106, "note": 67, "velocity": 114, "channel": 0}, {"type": "note_on", "time": 7, "note": 65, "velocity": 105, "channel": 0}, {"type": "note_off", "time": 71, "note": 65, "velocity": 105, "channel": 0}, {"type": "note_on", "time": 4, "note": 67, "velocity": 111, "channel": 0}, {"type": "note_off", "time": 341, "note": 67, "velocity": 111, "channel": 0}, {"type": "note_on", "time": 1266, "note": 65, "velocity": 105, "channel": 0}, {"type": "note_off", "time": 117, "note": 65, "velocity": 105, "channel": 0}, {"type": "note_on", "time": 24, "note": 70, "velocity": 115, "channel": 0}, {"type": "note_off", "time": 81, "note": 70, "velocity": 115, "channel": 0}, {"type": "note_on", "time": 0, "note": 73, "velocity": 107, "channel": 0}, {"type": "note_off", "time": 99, "note": 73, "velocity": 107, "channel": 0}, {"type": "note_on", "time": 3, "note": 74, "velocity": 118, "channel": 0}, {"type": "note_off", "time": 230, "note": 74, "velocity": 118, "channel": 0}, {"type": "note_on", "time": 3, "note": 72, "velocity": 113, "channel": 0}, {"type": "note_off", "time": 127, "note": 72, "velocity": 113, "channel": 0}, {"type": "note_on", "time": 17, "note": 73, "velocity": 112, "channel": 0}, {"type": "note_off", "time": 49, "note": 73, "velocity": 112, "channel": 0}, {"type": "note_on", "time": 17, "note": 74, "velocity": 124, "channel": 0}, {"type": "note_off", "time": 166, "note": 74, "velocity": 124, "channel": 0}, {"type": "note_on", "time": 3, "note": 72, "velocity": 114, "channel": 0}, {"type": "note_off", "time": 149, "note": 72, "velocity": 114, "channel": 0}, {"type": "note_on", "time": 0, "note": 74, "velocity": 110, "channel": 0}, {"type": "note_off", "time": 124, "note": 74, "velocity": 110, "channel": 0}, {"type": "note_on", "time": 17, "note": 65, "velocity": 115, "channel": 0}, {"type": "note_off", "time": 365, "note": 65, "velocity": 115, "channel": 0}, {"type": "note_on", "time": 3, "note": 62, "velocity": 108, "channel": 0}, {"type": "note_off", "time": 88, "note": 62, "velocity": 108, "channel": 0}, {"type": "note_on", "time": 0, "note": 63, "velocity": 118, "channel": 0}, {"type": "note_off", "time": 142, "note": 63, "velocity": 118, "channel": 0}, {"type": "note_on", "time": 1154, "note": 74, "velocity": 112, "channel": 0}, {"type": "note_off", "time": 163, "note": 74, "velocity": 112, "channel": 0}, {"type": "note_on", "time": 25, "note": 71, "velocity": 105, "channel": 0}, {"type": "note_off", "time": 91, "note": 71, "velocity": 105, "channel": 0}, {"type": "note_on", "time": 0, "note": 77, "velocity": 124, "channel": 0}, {"type": "note_off", "time": 195, "note": 77, "velocity": 124, "channel": 0}, {"type": "note_on", "time": 17, "note": 74, "velocity": 117, "channel": 0}, {"type": "note_off", "time": 198, "note": 74, "velocity": 117, "channel": 0}, {"type": "note_on", "time": 10, "note": 75, "velocity": 122, "channel": 0}, {"type": "note_off", "time": 166, "note": 75, "velocity": 122, "channel": 0}, {"type": "note_on", "time": 28, "note": 72, "velocity": 104, "channel": 0}, {"type": "note_off", "time": 110, "note": 72, "velocity": 104, "channel": 0}, {"type": "note_on", "time": 103, "note": 82, "velocity": 114, "channel": 0}, {"type": "note_off", "time": 270, "note": 82, "velocity": 114, "channel": 0}, {"type": "note_on", "time": 21, "note": 79, "velocity": 100, "channel": 0}, {"type": "note_off", "time": 95, "note": 79, "velocity": 100, "channel": 0}, {"type": "note_on", "time": 24, "note": 77, "velocity": 116, "channel": 0}, {"type": "note_off", "time": 262, "note": 77, "velocity": 116, "channel": 0}, {"type": "note_on", "time": 35, "note": 74, "velocity": 85, "channel": 0}, {"type": "note_off", "time": 81, "note": 74, "velocity": 85, "channel": 0}, {"type": "note_on", "time": 7, "note": 77, "velocity": 118, "channel": 0}, {"type": "note_off", "time": 287, "note": 77, "velocity": 118, "channel": 0}, {"type": "note_on", "time": 3, "note": 74, "velocity": 101, "channel": 0}, {"type": "note_off", "time": 92, "note": 74, "velocity": 101, "channel": 0}, {"type": "note_on", "time": 0, "note": 75, "velocity": 115, "channel": 0}, {"type": "note_off", "time": 191, "note": 75, "velocity": 115, "channel": 0}, {"type": "note_on", "time": 14, "note": 72, "velocity": 107, "channel": 0}, {"type": "note_off", "time": 103, "note": 72, "velocity": 107, "channel": 0}, {"type": "note_on", "time": 74, "note": 73, "velocity": 102, "channel": 0}, {"type": "note_off", "time": 74, "note": 73, "velocity": 102, "channel": 0}, {"type": "note_on", "time": 5, "note": 74, "velocity": 113, "channel": 0}, {"type": "note_off", "time": 114, "note": 74, "velocity": 113, "channel": 0}, {"type": "note_on", "time": 18, "note": 72, "velocity": 112, "channel": 0}, {"type": "note_off", "time": 117, "note": 72, "velocity": 112, "channel": 0}, {"type": "note_on", "time": 198, "note": 70, "velocity": 106, "channel": 0}, {"type": "note_off", "time": 113, "note": 70, "velocity": 106, "channel": 0}, {"type": "note_on", "time": 163, "note": 74, "velocity": 107, "channel": 0}, {"type": "note_off", "time": 305, "note": 74, "velocity": 107, "channel": 0}, {"type": "note_on", "time": 6, "note": 70, "velocity": 106, "channel": 0}, {"type": "note_off", "time": 49, "note": 70, "velocity": 106, "channel": 0}, {"type": "note_on", "time": 36, "note": 72, "velocity": 92, "channel": 0}, {"type": "note_off", "time": 127, "note": 72, "velocity": 92, "channel": 0}, {"type": "note_on", "time": 63, "note": 72, "velocity": 99, "channel": 0}, {"type": "note_off", "time": 145, "note": 72, "velocity": 99, "channel": 0}, {"type": "note_on", "time": 46, "note": 74, "velocity": 104, "channel": 0}, {"type": "note_off", "time": 166, "note": 74, "velocity": 104, "channel": 0}, {"type": "note_on", "time": 60, "note": 74, "velocity": 109, "channel": 0}, {"type": "note_off", "time": 145, "note": 74, "velocity": 109, "channel": 0}, {"type": "note_on", "time": 39, "note": 72, "velocity": 103, "channel": 0}, {"type": "note_off", "time": 88, "note": 72, "velocity": 103, "channel": 0}, {"type": "note_on", "time": 7, "note": 74, "velocity": 108, "channel": 0}, {"type": "note_off", "time": 78, "note": 74, "velocity": 108, "channel": 0}, {"type": "note_on", "time": 10, "note": 72, "velocity": 106, "channel": 0}, {"type": "note_off", "time": 95, "note": 72, "velocity": 106, "channel": 0}, {"type": "note_on", "time": 10, "note": 70, "velocity": 110, "channel": 0}, {"type": "note_off", "time": 63, "note": 70, "velocity": 110, "channel": 0}, {"type": "note_on", "time": 7, "note": 69, "velocity": 105, "channel": 0}, {"type": "note_off", "time": 110, "note": 69, "velocity": 105, "channel": 0}, {"type": "note_on", "time": 0, "note": 67, "velocity": 112, "channel": 0}, {"type": "note_off", "time": 81, "note": 67, "velocity": 112, "channel": 0}, {"type": "note_on", "time": 3, "note": 66, "velocity": 103, "channel": 0}, {"type": "note_on", "time": 85, "note": 64, "velocity": 104, "channel": 0}, {"type": "note_off", "time": 0, "note": 66, "velocity": 103, "channel": 0}, {"type": "note_off", "time": 103, "note": 64, "velocity": 104, "channel": 0}, {"type": "note_on", "time": 0, "note": 65, "velocity": 116, "channel": 0}, {"type": "note_off", "time": 81, "note": 65, "velocity": 116, "channel": 0}, {"type": "note_on", "time": 0, "note": 62, "velocity": 103, "channel": 0}, {"type": "note_off", "time": 95, "note": 62, "velocity": 103, "channel": 0}, {"type": "note_on", "time": 28, "note": 63, "velocity": 110, "channel": 0}, {"type": "note_off", "time": 71, "note": 63, "velocity": 110, "channel": 0}, {"type": "note_on", "time": 0, "note": 65, "velocity": 115, "channel": 0}, {"type": "note_off", "time": 110, "note": 65, "velocity": 115, "channel": 0}, {"type": "note_on", "time": 0, "note": 67, "velocity": 107, "channel": 0}, {"type": "note_off", "time": 74, "note": 67, "velocity": 107, "channel": 0}, {"type": "note_on", "time": 0, "note": 69, "velocity": 104, "channel": 0}, {"type": "note_off", "time": 99, "note": 69, "velocity": 104, "channel": 0}, {"type": "note_on", "time": 17, "note": 70, "velocity": 105, "channel": 0}, {"type": "note_off", "time": 92, "note": 70, "velocity": 105, "channel": 0}, {"type": "note_on", "time": 7, "note": 73, "velocity": 98, "channel": 0}, {"type": "note_off", "time": 71, "note": 73, "velocity": 98, "channel": 0}, {"type": "note_on", "time": 0, "note": 74, "velocity": 88, "channel": 0}, {"type": "note_off", "time": 85, "note": 74, "velocity": 88, "channel": 0}, {"type": "note_on", "time": 120, "note": 70, "velocity": 102, "channel": 0}, {"type": "note_off", "time": 166, "note": 70, "velocity": 102, "channel": 0}, {"type": "note_on", "time": 3, "note": 65, "velocity": 10, "channel": 0}, {"type": "note_off", "time": 440, "note": 65, "velocity": 10, "channel": 0}, {"type": "end_of_track", "time": 0}]]}