{"ticks_per_beat": 192, "tracks": [[{"type": "track_name", "name": "Melody", "time": 0}, {"type": "set_tempo", "tempo": 600000, "time": 0}, {"type": "key_signature", "key": "C", "time": 0}, {"type": "time_signature", "numerator": 4, "denominator": 4, "clocks_per_click": 24, "notated_32nd_notes_per_beat": 8, "time": 0}, {"type": "note_on", "time": 4086, "note": 67, "velocity": 100, "channel": 0}, {"type": "note_off", "time": 46, "note": 67, "velocity": 100, "channel": 0}, {"type": "note_on", "time": 59, "note": 72, "velocity": 114, "channel": 0}, {"type": "note_off", "time": 176, "note": 72, "velocity": 114, "channel": 0}, {"type": "note_on", "time": 11, "note": 70, "velocity": 118, "channel": 0}, {"type": "note_off", "time": 284, "note": 70, "velocity": 118, "channel": 0}, {"type": "note_on", "time": 1040, "note": 76, "velocity": 101, "channel": 0}, {"type": "note_off", "time": 31, "note": 76, "velocity": 101, "channel": 0}, {"type": "note_on", "time": 39, "note": 78, "velocity": 124, "channel": 0}, {"type": "note_off", "time": 157, "note": 78, "velocity": 124, "channel": 0}, {"type": "note_on", "time": 0, "note": 75, "velocity": 120, "channel": 0}, {"type": "note_off", "time": 330, "note": 75, "velocity": 120, "channel": 0}, {"type": "note_on", "time": 939, "note": 66, "velocity": 96, "channel": 0}, {"type": "note_off", "time": 31, "note": 66, "velocity": 96, "channel": 0}, {"type": "note_on", "time": 2, "note": 70, "velocity": 116, "channel": 0}, {"type": "note_off", "time": 52, "note": 70, "velocity": 116, "channel": 0}, {"type": "note_on", "time": 1, "note": 68, "velocity": 115, "channel": 0}, {"type": "note_off", "time": 40, "note": 68, "velocity": 115, "channel": 0}, {"type": "note_on", "time": 16, "note": 70, "velocity": 110, "channel": 0}, {"type": "note_off", "time": 37, "note": 70, "velocity": 110, "channel": 0}, {"type": "note_on", "time": 3, "note": 71, "velocity": 124, "channel": 0}, {"type": "note_off", "time": 50, "note": 71, "velocity": 124, "channel": 0}, {"type": "note_on", "time": 7, "note": 73, "velocity": 122, "channel": 0}, {"type": "note_off", "time": 40, "note": 73, "velocity": 122, "channel": 0}, {"type": "note_on", "time": 0, "note": 75, "velocity": 123, "channel": 0}, {"type": "note_off", "time": 44, "note": 75, "velocity": 123, "channel": 0}, {"type": "note_on", "time": 1, "note": 76, "velocity": 123, "channel": 0}, {"type": "note_off", "time": 46, "note": 76, "velocity": 123, "channel": 0}, {"type": "note_on", "time": 3, "note": 77, "velocity": 127, "channel": 0}, {"type": "note_off", "time": 44, "note": 77, "velocity": 127, "channel": 0}, {"type": "note_on", "time": 1, "note": 78, "velocity": 124, "channel": 0}, {"type": "note_off", "time": 42, "note": 78, "velocity": 124, "channel": 0}, {"type": "note_on", "time": 3, "note": 77, "velocity": 124, "channel": 0}, {"type": "note_off", "time": 53, "note": 77, "velocity": 124, "channel": 0}, {"type": "note_on", "time": 5, "note": 76, "velocity": 123, "channel": 0}, {"type": "note_off", "time": 42, "note": 76, "velocity": 123, "channel": 0}, {"type": "note_on", "time": 3, "note": 75, "velocity": 120, "channel": 0}, {"type": "note_off", "time": 53, "note": 75, "velocity": 120, "channel": 0}, {"type": "note_on", "time": 33, "note": 72, "velocity": 111, "channel": 0}, {"type": "note_off", "time": 169, "note": 72, "velocity": 111, "channel": 0}, {"type": "note_on", "time": 18, "note": 66, "velocity": 112, "channel": 0}, {"type": "note_off", "time": 107, "note": 66, "velocity": 112, "channel": 0}, {"type": "note_on", "time": 1, "note": 64, "velocity": 116, "channel": 0}, {"type": "note_off", "time": 172, "note": 64, "velocity": 116, "channel": 0}, {"type": "note_on", "time": 16, "note": 63, "velocity": 115, "channel": 0}, {"type": "note_off", "time": 360, "note": 63, "velocity": 115, "channel": 0}, {"type": "note_on", "time": 1408, "note": 67, "velocity": 106, "channel": 0}, {"type": "note_off", "time": 39, "note": 67, "velocity": 106, "channel": 0}, {"type": "note_on", "time": 18, "note": 72, "velocity": 122, "channel": 0}, {"type": "note_off", "time": 117, "note": 72, "velocity": 122, "channel": 0}, {"type": "note_on", "time": 9, "note": 75, "velocity": 123, "channel": 0}, {"type": "note_off", "time": 183, "note": 75, "velocity": 123, "channel": 0}, {"type": "note_on", "time": 52, "note": 84, "velocity": 90, "channel": 0}, {"type": "note_off", "time": 33, "note": 84, "velocity": 90, "channel": 0}, {"type": "note_on", "time": 547, "note": 72, "velocity": 119, "channel": 0}, {"type": "note_off", "time": 96, "note": 72, "velocity": 119, "channel": 0}, {"type": "note_on", "time": 18, "note": 69, "velocity": 124, "channel": 0}, {"type": "note_off", "time": 100, "note": 69, "velocity": 124, "channel": 0}, {"type": "note_on", "time": 1, "note": 66, "velocity": 120, "channel": 0}, {"type": "note_off", "time": 141, "note": 66, "velocity": 120, "channel": 0}, {"type": "note_on", "time": 12, "note": 63, "velocity": 123, "channel": 0}, {"type": "note_off", "time": 137, "note": 63, "velocity": 123, "channel": 0}, {"type": "note_on", "time": 8, "note": 63, "velocity": 121, "channel": 0}, {"type": "note_off", "time": 27, "note": 63, "velocity": 121, "channel": 0}, {"type": "note_on", "time": 13, "note": 64, "velocity": 120, "channel": 0}, {"type": "note_off", "time": 332, "note": 64, "velocity": 120, "channel": 0}, {"type": "note_on", "time": 10, "note": 63, "velocity": 121, "channel": 0}, {"type": "note_off", "time": 561, "note": 63, "velocity": 121, "channel": 0}, {"type": "note_on", "time": 750, "note": 75, "velocity": 96, "channel": 0}, {"type": "note_off", "time": 35, "note": 75, "velocity": 96, "channel": 0}, {"type": "note_on", "time": 50, "note": 75, "velocity": 118, "channel": 0}, {"type": "note_off", "time": 207, "note": 75, "velocity": 118, "channel": 0}, {"type": "note_on", "time": 6, "note": 82, "velocity": 89, "channel": 0}, {"type": "note_off", "time": 42, "note": 82, "velocity": 89, "channel": 0}, {"type": "note_on", "time": 702, "note": 76, "velocity": 122, "channel": 0}, {"type": "note_off", "time": 91, "note": 76, "velocity": 122, "channel": 0}, {"type": "note_on", "time": 7, "note": 75, "velocity": 124, "channel": 0}, {"type": "note_off", "time": 83, "note": 75, "velocity": 124, "channel": 0}, {"type": "note_on", "time": 3, "note": 72, "velocity": 120, "channel": 0}, {"type": "note_off", "time": 96, "note": 72, "velocity": 120, "channel": 0}, {"type": "note_on", "time": 3, "note": 68, "velocity": 122, "channel": 0}, {"type": "note_off", "time": 87, "note": 68, "velocity": 122, "channel": 0}, {"type": "note_on", "time": 7, "note": 67, "velocity": 120, "channel": 0}, {"type": "note_off", "time": 40, "note": 67, "velocity": 120, "channel": 0}, {"type": "note_on", "time": 16, "note": 69, "velocity": 123, "channel": 0}, {"type": "note_off", "time": 144, "note": 69, "velocity": 123, "channel": 0}, {"type": "note_on", "time": 2, "note": 68, "velocity": 124, "channel": 0}, {"type": "note_off", "time": 103, "note": 68, "velocity": 124, "channel": 0}, {"type": "note_on", "time": 4, "note": 67, "velocity": 122, "channel": 0}, {"type": "note_off", "time": 221, "note": 67, "velocity": 122, "channel": 0}, {"type": "note_on", "time": 925, "note": 70, "velocity": 101, "channel": 0}, {"type": "note_off", "time": 33, "note": 70, "velocity": 101, "channel": 0}, {"type": "note_on", "time": 46, "note": 73, "velocity": 117, "channel": 0}, {"type": "note_off", "time": 42, "note": 73, "velocity": 117, "channel": 0}, {"type": "note_on", "time": 1, "note": 75, "velocity": 120, "channel": 0}, {"type": "note_off", "time": 152, "note": 75, "velocity": 120, "channel": 0}, {"type": "note_on", "time": 25, "note": 78, "velocity": 114, "channel": 0}, {"type": "note_off", "time": 20, "note": 78, "velocity": 114, "channel": 0}, {"type": "note_on", "time": 0, "note": 80, "velocity": 122, "channel": 0}, {"type": "note_off", "time": 31, "note": 80, "velocity": 122, "channel": 0}, {"type": "note_on", "time": 880, "note": 86, "velocity": 115, "channel": 0}, {"type": "note_off", "time": 35, "note": 86, "velocity": 115, "channel": 0}, {"type": "note_on", "time": 5, "note": 87, "velocity": 115, "channel": 0}, {"type": "note_off", "time": 154, "note": 87, "velocity": 115, "channel": 0}, {"type": "note_on", "time": 11, "note": 86, "velocity": 120, "channel": 0}, {"type": "note_off", "time": 57, "note": 86, "velocity": 120, "channel": 0}, {"type": "note_on", "time": 7, "note": 85, "velocity": 117, "channel": 0}, {"type": "note_off", "time": 74, "note": 85, "velocity": 117, "channel": 0}, {"type": "note_on", "time": 1, "note": 84, "velocity": 116, "channel": 0}, {"type": "note_off", "time": 48, "note": 84, "velocity": 116, "channel": 0}, {"type": "note_on", "time": 0, "note": 82, "velocity": 120, "channel": 0}, {"type": "note_off", "time": 52, "note": 82, "velocity": 120, "channel": 0}, {"type": "note_on", "time": 7, "note": 82, "velocity": 117, "channel": 0}, {"type": "note_off", "time": 74, "note": 82, "velocity": 117, "channel": 0}, {"type": "note_on", "time": 22, "note": 79, "velocity": 118, "channel": 0}, {"type": "note_off", "time": 35, "note": 79, "velocity": 118, "channel": 0}, {"type": "note_on", "time": 5, "note": 80, "velocity": 120, "channel": 0}, {"type": "note_off", "time": 52, "note": 80, "velocity": 120, "channel": 0}, {"type": "note_on", "time": 1, "note": 79, "velocity": 118, "channel": 0}, {"type": "note_off", "time": 59, "note": 79, "velocity": 118, "channel": 0}, {"type": "note_on", "time": 5, "note": 78, "velocity": 115, "channel": 0}, {"type": "note_off", "time": 135, "note": 78, "velocity": 115, "channel": 0}, {"type": "note_on", "time": 1, "note": 77, "velocity": 125, "channel": 0}, {"type": "note_off", "time": 19, "note": 77, "velocity": 125, "channel": 0}, {"type": "note_on", "time": 2, "note": 76, "velocity": 120, "channel": 0}, {"type": "note_off", "time": 28, "note": 76, "velocity": 120, "channel": 0}, {"type": "note_on", "time": 2, "note": 75, "velocity": 120, "channel": 0}, {"type": "note_off", "time": 44, "note": 75, "velocity": 120, "channel": 0}, {"type": "note_on", "time": 0, "note": 74, "velocity": 115, "channel": 0}, {"type": "note_off", "time": 39, "note": 74, "velocity": 115, "channel": 0}, {"type": "note_on", "time": 10, "note": 72, "velocity": 119, "channel": 0}, {"type": "note_off", "time": 36, "note": 72, "velocity": 119, "channel": 0}, {"type": "note_on", "time": 9, "note": 71, "velocity": 121, "channel": 0}, {"type": "note_off", "time": 37, "note": 71, "velocity": 121, "channel": 0}, {"type": "note_on", "time": 2, "note": 70, "velocity": 120, "channel": 0}, {"type": "note_off", "time": 48, "note": 70, "velocity": 120, "channel": 0}, {"type": "note_on", "time": 5, "note": 69, "velocity": 121, "channel": 0}, {"type": "note_off", "time": 43, "note": 69, "velocity": 121, "channel": 0}, {"type": "note_on", "time": 5, "note": 68, "velocity": 119, "channel": 0}, {"type": "note_off", "time": 44, "note": 68, "velocity": 119, "channel": 0}, {"type": "note_on", "time": 5, "note": 67, "velocity": 117, "channel": 0}, {"type": "note_off", "time": 40, "note": 67, "velocity": 117, "channel": 0}, {"type": "note_on", "time": 6, "note": 66, "velocity": 116, "channel": 0}, {"type": "note_off", "time": 73, "note": 66, "velocity": 116, "channel": 0}, {"type": "note_on", "time": 10, "note": 64, "velocity": 110, "channel": 0}, {"type": "note_off", "time": 151, "note": 64, "velocity": 110, "channel": 0}, {"type": "note_on", "time": 40, "note": 63, "velocity": 9, "channel": 0}, {"type": "note_off", "time": 214, "note": 63, "velocity": 9, "channel": 0}, {"type": "note_on", "time": 78, "note": 71, "velocity": 85, "channel": 0}, {"type": "note_off", "time": 40, "note": 71, "velocity": 85, "channel": 0}, {"type": "note_on", "time": 44, "note": 74, "velocity": 114, "channel": 0}, {"type": "note_off", "time": 74, "note": 74, "velocity": 114, "channel": 0}, {"type": "note_on", "time": 3, "note": 75, "velocity": 111, "channel": 0}, {"type": "note_off", "time": 86, "note": 75, "velocity": 111, "channel": 0}, {"type": "note_on", "time": 5, "note": 76, "velocity": 108, "channel": 0}, {"type": "note_off", "time": 214, "note": 76, "velocity": 108, "channel": 0}, {"type": "note_on", "time": 5, "note": 75, "velocity": 108, "channel": 0}, {"type": "note_off", "time": 197, "note": 75, "velocity": 108, "channel": 0}, {"type": "note_on", "time": 2, "note": 72, "velocity": 106, "channel": 0}, {"type": "note_off", "time": 92, "note": 72, "velocity": 106, "channel": 0}, {"type": "note_on", "time": 1, "note": 66, "velocity": 99, "channel": 0}, {"type": "note_off", "time": 317, "note": 66, "velocity": 99, "channel": 0}, {"type": "note_on", "time": 351, "note": 72, "velocity": 112, "channel": 0}, {"type": "note_off", "time": 196, "note": 72, "velocity": 112, "channel": 0}, {"type": "note_on", "time": 3, "note": 72, "velocity": 106, "channel": 0}, {"type": "note_off", "time": 293, "note": 72, "velocity": 106, "channel": 0}, {"type": "note_on", "time": 9, "note": 75, "velocity": 110, "channel": 0}, {"type": "note_off", "time": 89, "note": 75, "velocity": 110, "channel": 0}, {"type": "note_on", "time": 9, "note": 77, "velocity": 101, "channel": 0}, {"type": "note_off", "time": 41, "note": 77, "velocity": 101, "channel": 0}, {"type": "note_on", "time": 1016, "note": 67, "velocity": 99, "channel": 0}, {"type": "note_off", "time": 40, "note": 67, "velocity": 99, "channel": 0}, {"type": "note_on", "time": 53, "note": 72, "velocity": 122, "channel": 0}, {"type": "note_off", "time": 191, "note": 72, "velocity": 122, "channel": 0}, {"type": "note_on", "time": 14, "note": 74, "velocity": 112, "channel": 0}, {"type": "note_off", "time": 26, "note": 74, "velocity": 112, "channel": 0}, {"type": "note_on", "time": 7, "note": 75, "velocity": 111, "channel": 0}, {"type": "note_off", "time": 209, "note": 75, "velocity": 111, "channel": 0}, {"type": "note_on", "time": 7, "note": 76, "velocity": 113, "channel": 0}, {"type": "note_off", "time": 232, "note": 76, "velocity": 113, "channel": 0}, {"type": "note_on", "time": 7, "note": 75, "velocity": 117, "channel": 0}, {"type": "note_off", "time": 81, "note": 75, "velocity": 117, "channel": 0}, {"type": "note_on", "time": 39, "note": 68, "velocity": 116, "channel": 0}, {"type": "note_off", "time": 213, "note": 68, "velocity": 116, "channel": 0}, {"type": "note_on", "time": 26, "note": 68, "velocity": 118, "channel": 0}, {"type": "note_off", "time": 37, "note": 68, "velocity": 118, "channel": 0}, {"type": "note_on", "time": 7, "note": 69, "velocity": 114, "channel": 0}, {"type": "note_off", "time": 128, "note": 69, "velocity": 114, "channel": 0}, {"type": "note_on", "time": 11, "note": 68, "velocity": 111, "channel": 0}, {"type": "note_off", "time": 89, "note": 68, "velocity": 111, "channel": 0}, {"type": "note_on", "time": 7, "note": 66, "velocity": 106, "channel": 0}, {"type": "note_off", "time": 96, "note": 66, "velocity": 106, "channel": 0}, {"type": "note_on", "time": 16, "note": 64, "velocity": 109, "channel": 0}, {"type": "note_off", "time": 96, "note": 64, "velocity": 109, "channel": 0}, {"type": "note_on", "time": 9, "note": 63, "velocity": 98, "channel": 0}, {"type": "note_off", "time": 315, "note": 63, "velocity": 98, "channel": 0}, {"type": "note_on", "time": 1292, "note": 75, "velocity": 104, "channel": 0}, {"type": "note_off", "time": 33, "note": 75, "velocity": 104, "channel": 0}, {"type": "note_on", "time": 74, "note": 75, "velocity": 120, "channel": 0}, {"type": "note_off", "time": 37, "note": 75, "velocity": 120, "channel": 0}, {"type": "note_on", "time": 57, "note": 75, "velocity": 120, "channel": 0}, {"type": "note_off", "time": 29, "note": 75, "velocity": 120, "channel": 0}, {"type": "note_on", "time": 66, "note": 75, "velocity": 113, "channel": 0}, {"type": "note_off", "time": 29, "note": 75, "velocity": 113, "channel": 0}, {"type": "note_on", "time": 68, "note": 75, "velocity": 118, "channel": 0}, {"type": "note_off", "time": 33, "note": 75, "velocity": 118, "channel": 0}, {"type": "note_on", "time": 61, "note": 75, "velocity": 121, "channel": 0}, {"type": "note_off", "time": 39, "note": 75, "velocity": 121, "channel": 0}, {"type": "note_on", "time": 68, "note": 75, "velocity": 122, "channel": 0}, {"type": "note_off", "time": 33, "note": 75, "velocity": 122, "channel": 0}, {"type": "note_on", "time": 66, "note": 76, "velocity": 118, "channel": 0}, {"type": "note_off", "time": 26, "note": 76, "velocity": 118, "channel": 0}, {"type": "note_on", "time": 5, "note": 75, "velocity": 120, "channel": 0}, {"type": "note_off", "time": 91, "note": 75, "velocity": 120, "channel": 0}, {"type": "note_on", "time": 1, "note": 76, "velocity": 119, "channel": 0}, {"type": "note_off", "time": 148, "note": 76, "velocity": 119, "channel": 0}, {"type": "note_on", "time": 9, "note": 75, "velocity": 122, "channel": 0}, {"type": "note_off", "time": 200, "note": 75, "velocity": 122, "channel": 0}, {"type": "note_on", "time": 7, "note": 72, "velocity": 121, "channel": 0}, {"type": "note_off", "time": 85, "note": 72, "velocity": 121, "channel": 0}, {"type": "note_on", "time": 11, "note": 69, "velocity": 118, "channel": 0}, {"type": "note_off", "time": 85, "note": 69, "velocity": 118, "channel": 0}, {"type": "note_on", "time": 7, "note": 68, "velocity": 117, "channel": 0}, {"type": "note_off", "time": 92, "note": 68, "velocity": 117, "channel": 0}, {"type": "note_on", "time": 0, "note": 66, "velocity": 116, "channel": 0}, {"type": "note_off", "time": 180, "note": 66, "velocity": 116, "channel": 0}, {"type": "note_on", "time": 9, "note": 64, "velocity": 112, "channel": 0}, {"type": "note_off", "time": 282, "note": 64, "velocity": 112, "channel": 0}, {"type": "note_on", "time": 18, "note": 63, "velocity": 114, "channel": 0}, {"type": "note_off", "time": 245, "note": 63, "velocity": 114, "channel": 0}, {"type": "note_on", "time": 821, "note": 66, "velocity": 112, "channel": 0}, {"type": "note_off", "time": 35, "note": 66, "velocity": 112, "channel": 0}, {"type": "note_on", "time": 1, "note": 67, "velocity": 120, "channel": 0}, {"type": "note_off", "time": 273, "note": 67, "velocity": 120, "channel": 0}, {"type": "note_on", "time": 16, "note": 66, "velocity": 118, "channel": 0}, {"type": "note_off", "time": 432, "note": 66, "velocity": 118, "channel": 0}, {"type": "note_on", "time": 50, "note": 63, "velocity": 115, "channel": 0}, {"type": "note_off", "time": 27, "note": 63, "velocity": 115, "channel": 0}, {"type": "note_on", "time": 5, "note": 64, "velocity": 115, "channel": 0}, {"type": "note_off", "time": 115, "note": 64, "velocity": 115, "channel": 0}, {"type": "note_on", "time": 13, "note": 62, "velocity": 110, "channel": 0}, {"type": "note_on", "time": 31, "note": 63, "velocity": 115, "channel": 0}, {"type": "note_off", "time": 0, "note": 62, "velocity": 110, "channel": 0}, {"type": "note_off", "time": 102, "note": 63, "velocity": 115, "channel": 0}, {"type": "note_on", "time": 35, "note": 56, "velocity": 112, "channel": 0}, {"type": "note_off", "time": 332, "note": 56, "velocity": 112, "channel": 0}, {"type": "note_on", "time": 0, "note": 55, "velocity": 111, "channel": 0}, {"type": "note_off", "time": 65, "note": 55, "velocity": 111, "channel": 0}, {"type": "note_on", "time": 7, "note": 60, "velocity": 109, "channel": 0}, {"type": "note_off", "time": 163, "note": 60, "velocity": 109, "channel": 0}, {"type": "note_on", "time": 1426, "note": 61, "velocity": 106, "channel": 0}, {"type": "note_off", "time": 42, "note": 61, "velocity": 106, "channel": 0}, {"type": "note_on", "time": 1, "note": 63, "velocity": 116, "channel": 0}, {"type": "note_off", "time": 42, "note": 63, "velocity": 116, "channel": 0}, {"type": "note_on", "time": 7, "note": 65, "velocity": 120, "channel": 0}, {"type": "note_off", "time": 48, "note": 65, "velocity": 120, "channel": 0}, {"type": "note_on", "time": 3, "note": 66, "velocity": 112, "channel": 0}, {"type": "note_off", "time": 44, "note": 66, "velocity": 112, "channel": 0}, {"type": "note_on", "time": 1, "note": 68, "velocity": 116, "channel": 0}, {"type": "note_off", "time": 33, "note": 68, "velocity": 116, "channel": 0}, {"type": "note_on", "time": 5, "note": 69, "velocity": 114, "channel": 0}, {"type": "note_off", "time": 40, "note": 69, "velocity": 114, "channel": 0}, {"type": "note_on", "time": 11, "note": 71, "velocity": 117, "channel": 0}, {"type": "note_off", "time": 52, "note": 71, "velocity": 117, "channel": 0}, {"type": "note_on", "time": 5, "note": 73, "velocity": 116, "channel": 0}, {"type": "note_off", "time": 42, "note": 73, "velocity": 116, "channel": 0}, {"type": "note_on", "time": 5, "note": 75, "velocity": 117, "channel": 0}, {"type": "note_off", "time": 39, "note": 75, "velocity": 117, "channel": 0}, {"type": "note_on", "time": 3, "note": 76, "velocity": 115, "channel": 0}, {"type": "note_off", "time": 49, "note": 76, "velocity": 115, "channel": 0}, {"type": "note_on", "time": 1, "note": 77, "velocity": 116, "channel": 0}, {"type": "note_off", "time": 39, "note": 77, "velocity": 116, "channel": 0}, {"type": "note_on", "time": 1, "note": 78, "velocity": 116, "channel": 0}, {"type": "note_off", "time": 230, "note": 78, "velocity": 116, "channel": 0}, {"type": "note_on", "time": 0, "note": 76, "velocity": 113, "channel": 0}, {"type": "note_off", "time": 152, "note": 76, "velocity": 113, "channel": 0}, {"type": "note_on", "time": 6, "note": 75, "velocity": 117, "channel": 0}, {"type": "note_off", "time": 178, "note": 75, "velocity": 117, "channel": 0}, {"type": "note_on", "time": 12, "note": 72, "velocity": 112, "channel": 0}, {"type": "note_off", "time": 182, "note": 72, "velocity": 112, "channel": 0}, {"type": "note_on", "time": 14, "note": 68, "velocity": 100, "channel": 0}, {"type": "note_off", "time": 323, "note": 68, "velocity": 100, "channel": 0}, {"type": "note_on", "time": 1412, "note": 75, "velocity": 111, "channel": 0}, {"type": "note_off", "time": 27, "note": 75, "velocity": 111, "channel": 0}, {"type": "note_on", "time": 2, "note": 77, "velocity": 103, "channel": 0}, {"type": "note_off", "time": 33, "note": 77, "velocity": 103, "channel": 0}, {"type": "note_on", "time": 108, "note": 79, "velocity": 109, "channel": 0}, {"type": "note_off", "time": 37, "note": 79, "velocity": 109, "channel": 0}, {"type": "note_on", "time": 9, "note": 82, "velocity": 106, "channel": 0}, {"type": "note_off", "time": 35, "note": 82, "velocity": 106, "channel": 0}, {"type": "note_on", "time": 124, "note": 81, "velocity": 112, "channel": 0}, {"type": "note_off", "time": 17, "note": 81, "velocity": 112, "channel": 0}, {"type": "note_on", "time": 6, "note": 80, "velocity": 98, "channel": 0}, {"type": "note_off", "time": 15, "note": 80, "velocity": 98, "channel": 0}, {"type": "note_on", "time": 7, "note": 77, "velocity": 102, "channel": 0}, {"type": "note_off", "time": 38, "note": 77, "velocity": 102, "channel": 0}, {"type": "note_on", "time": 108, "note": 75, "velocity": 112, "channel": 0}, {"type": "note_off", "time": 39, "note": 75, "velocity": 112, "channel": 0}, {"type": "note_on", "time": 0, "note": 77, "velocity": 109, "channel": 0}, {"type": "note_off", "time": 38, "note": 77, "velocity": 109, "channel": 0}, {"type": "note_on", "time": 61, "note": 75, "velocity": 109, "channel": 0}, {"type": "note_off", "time": 39, "note": 75, "velocity": 109, "channel": 0}, {"type": "note_on", "time": 201, "note": 72, "velocity": 117, "channel": 0}, {"type": "note_off", "time": 34, "note": 72, "velocity": 117, "channel": 0}, {"type": "note_on", "time": 4, "note": 73, "velocity": 111, "channel": 0}, {"type": "note_off", "time": 26, "note": 73, "velocity": 111, "channel": 0}, {"type": "note_on", "time": 13, "note": 75, "velocity": 115, "channel": 0}, {"type": "note_off", "time": 28, "note": 75, "velocity": 115, "channel": 0}, {"type": "note_on", "time": 85, "note": 77, "velocity": 118, "channel": 0}, {"type": "note_off", "time": 44, "note": 77, "velocity": 118, "channel": 0}, {"type": "note_on", "time": 2, "note": 80, "velocity": 113, "channel": 0}, {"type": "note_off", "time": 39, "note": 80, "velocity": 113, "channel": 0}, {"type": "note_on", "time": 104, "note": 76, "velocity": 112, "channel": 0}, {"type": "note_off", "time": 52, "note": 76, "velocity": 112, "channel": 0}, {"type": "note_on", "time": 154, "note": 75, "velocity": 113, "channel": 0}, {"type": "note_off", "time": 27, "note": 75, "velocity": 113, "channel": 0}, {"type": "note_on", "time": 5, "note": 77, "velocity": 106, "channel": 0}, {"type": "note_off", "time": 31, "note": 77, "velocity": 106, "channel": 0}, {"type": "note_on", "time": 109, "note": 79, "velocity": 111, "channel": 0}, {"type": "note_off", "time": 36, "note": 79, "velocity": 111, "channel": 0}, {"type": "note_on", "time": 8, "note": 82, "velocity": 105, "channel": 0}, {"type": "note_off", "time": 36, "note": 82, "velocity": 105, "channel": 0}, {"type": "note_on", "time": 123, "note": 81, "velocity": 110, "channel": 0}, {"type": "note_on", "time": 14, "note": 80, "velocity": 104, "channel": 0}, {"type": "note_off", "time": 0, "note": 81, "velocity": 110, "channel": 0}, {"type": "note_off", "time": 17, "note": 80, "velocity": 104, "channel": 0}, {"type": "note_on", "time": 7, "note": 77, "velocity": 108, "channel": 0}, {"type": "note_off", "time": 39, "note": 77, "velocity": 108, "channel": 0}, {"type": "note_on", "time": 116, "note": 75, "velocity": 114, "channel": 0}, {"type": "note_off", "time": 35, "note": 75, "velocity": 114, "channel": 0}, {"type": "note_on", "time": 0, "note": 77, "velocity": 114, "channel": 0}, {"type": "note_off", "time": 34, "note": 77, "velocity": 114, "channel": 0}, {"type": "note_on", "time": 68, "note": 75, "velocity": 112, "channel": 0}, {"type": "note_off", "time": 29, "note": 75, "velocity": 112, "channel": 0}, {"type": "note_on", "time": 206, "note": 72, "velocity": 117, "channel": 0}, {"type": "note_off", "time": 35, "note": 72, "velocity": 117, "channel": 0}, {"type": "note_on", "time": 11, "note": 73, "velocity": 113, "channel": 0}, {"type": "note_off", "time": 27, "note": 73, "velocity": 113, "channel": 0}, {"type": "note_on", "time": 3, "note": 75, "velocity": 111, "channel": 0}, {"type": "note_off", "time": 37, "note": 75, "velocity": 111, "channel": 0}, {"type": "note_on", "time": 79, "note": 77, "velocity": 118, "channel": 0}, {"type": "note_off", "time": 44, "note": 77, "velocity": 118, "channel": 0}, {"type": "note_on", "time": 3, "note": 80, "velocity": 115, "channel": 0}, {"type": "note_off", "time": 39, "note": 80, "velocity": 115, "channel": 0}, {"type": "note_on", "time": 102, "note": 76, "velocity": 116, "channel": 0}, {"type": "note_off", "time": 48, "note": 76, "velocity": 116, "channel": 0}, {"type": "note_on", "time": 144, "note": 78, "velocity": 115, "channel": 0}, {"type": "note_off", "time": 182, "note": 78, "velocity": 115, "channel": 0}, {"type": "note_on", "time": 18, "note": 79, "velocity": 108, "channel": 0}, {"type": "note_off", "time": 48, "note": 79, "velocity": 108, "channel": 0}, {"type": "note_on", "time": 7, "note": 82, "velocity": 107, "channel": 0}, {"type": "note_off", "time": 42, "note": 82, "velocity": 107, "channel": 0}, {"type": "note_on", "time": 42, "note": 80, "velocity": 115, "channel": 0}, {"type": "note_off", "time": 39, "note": 80, "velocity": 115, "channel": 0}, {"type": "note_on", "time": 5, "note": 79, "velocity": 109, "channel": 0}, {"type": "note_off", "time": 39, "note": 79, "velocity": 109, "channel": 0}, {"type": "note_on", "time": 159, "note": 75, "velocity": 121, "channel": 0}, {"type": "note_off", "time": 26, "note": 75, "velocity": 121, "channel": 0}, {"type": "note_on", "time": 5, "note": 77, "velocity": 102, "channel": 0}, {"type": "note_off", "time": 37, "note": 77, "velocity": 102, "channel": 0}, {"type": "note_on", "time": 109, "note": 79, "velocity": 116, "channel": 0}, {"type": "note_off", "time": 35, "note": 79, "velocity": 116, "channel": 0}, {"type": "note_on", "time": 9, "note": 82, "velocity": 109, "channel": 0}, {"type": "note_off", "time": 37, "note": 82, "velocity": 109, "channel": 0}, {"type": "note_on", "time": 118, "note": 81, "velocity": 115, "channel": 0}, {"type": "note_off", "time": 17, "note": 81, "velocity": 115, "channel": 0}, {"type": "note_on", "time": 1, "note": 80, "velocity": 104, "channel": 0}, {"type": "note_off", "time": 20, "note": 80, "velocity": 104, "channel": 0}, {"type": "note_on", "time": 6, "note": 77, "velocity": 109, "channel": 0}, {"type": "note_off", "time": 40, "note": 77, "velocity": 109, "channel": 0}, {"type": "note_on", "time": 115, "note": 75, "velocity": 119, "channel": 0}, {"type": "note_off", "time": 24, "note": 75, "velocity": 119, "channel": 0}, {"type": "note_on", "time": 13, "note": 77, "velocity": 116, "channel": 0}, {"type": "note_off", "time": 37, "note": 77, "velocity": 116, "channel": 0}, {"type": "note_on", "time": 61, "note": 75, "velocity": 117, "channel": 0}, {"type": "note_off", "time": 35, "note": 75, "velocity": 117, "channel": 0}, {"type": "note_on", "time": 200, "note": 72, "velocity": 123, "channel": 0}, {"type": "note_off", "time": 27, "note": 72, "velocity": 123, "channel": 0}, {"type": "note_on", "time": 13, "note": 73, "velocity": 113, "channel": 0}, {"type": "note_off", "time": 31, "note": 73, "velocity": 113, "channel": 0}, {"type": "note_on", "time": 13, "note": 75, "velocity": 119, "channel": 0}, {"type": "note_off", "time": 35, "note": 75, "velocity": 119, "channel": 0}, {"type": "note_on", "time": 72, "note": 77, "velocity": 124, "channel": 0}, {"type": "note_off", "time": 40, "note": 77, "velocity": 124, "channel": 0}, {"type": "note_on", "time": 1, "note": 80, "velocity": 120, "channel": 0}, {"type": "note_off", "time": 46, "note": 80, "velocity": 120, "channel": 0}, {"type": "note_on", "time": 100, "note": 76, "velocity": 121, "channel": 0}, {"type": "note_off", "time": 46, "note": 76, "velocity": 121, "channel": 0}, {"type": "note_on", "time": 143, "note": 78, "velocity": 119, "channel": 0}, {"type": "note_off", "time": 180, "note": 78, "velocity": 119, "channel": 0}, {"type": "note_on", "time": 27, "note": 79, "velocity": 112, "channel": 0}, {"type": "note_off", "time": 33, "note": 79, "velocity": 112, "channel": 0}, {"type": "note_on", "time": 20, "note": 82, "velocity": 111, "channel": 0}, {"type": "note_off", "time": 42, "note": 82, "velocity": 111, "channel": 0}, {"type": "note_on", "time": 47, "note": 80, "velocity": 122, "channel": 0}, {"type": "note_off", "time": 31, "note": 80, "velocity": 122, "channel": 0}, {"type": "note_on", "time": 0, "note": 79, "velocity": 114, "channel": 0}, {"type": "note_off", "time": 37, "note": 79, "velocity": 114, "channel": 0}, {"type": "note_on", "time": 159, "note": 78, "velocity": 123, "channel": 0}, {"type": "note_off", "time": 52, "note": 78, "velocity": 123, "channel": 0}, {"type": "note_on", "time": 3, "note": 76, "velocity": 115, "channel": 0}, {"type": "note_off", "time": 33, "note": 76, "velocity": 115, "channel": 0}, {"type": "note_on", "time": 56, "note": 75, "velocity": 116, "channel": 0}, {"type": "note_off", "time": 37, "note": 75, "velocity": 116, "channel": 0}, {"type": "note_on", "time": 191, "note": 75, "velocity": 118, "channel": 0}, {"type": "note_off", "time": 44, "note": 75, "velocity": 118, "channel": 0}, {"type": "note_on", "time": 7, "note": 76, "velocity": 118, "channel": 0}, {"type": "note_off", "time": 35, "note": 76, "velocity": 118, "channel": 0}, {"type": "note_on", "time": 3, "note": 77, "velocity": 120, "channel": 0}, {"type": "note_off", "time": 43, "note": 77, "velocity": 120, "channel": 0}, {"type": "note_on", "time": 5, "note": 78, "velocity": 118, "channel": 0}, {"type": "note_off", "time": 54, "note": 78, "velocity": 118, "channel": 0}, {"type": "note_on", "time": 20, "note": 77, "velocity": 119, "channel": 0}, {"type": "note_off", "time": 121, "note": 77, "velocity": 119, "channel": 0}, {"type": "note_on", "time": 0, "note": 76, "velocity": 120, "channel": 0}, {"type": "note_off", "time": 47, "note": 76, "velocity": 120, "channel": 0}, {"type": "note_on", "time": 3, "note": 75, "velocity": 121, "channel": 0}, {"type": "note_off", "time": 43, "note": 75, "velocity": 121, "channel": 0}, {"type": "note_on", "time": 0, "note": 72, "velocity": 121, "channel": 0}, {"type": "note_off", "time": 39, "note": 72, "velocity": 121, "channel": 0}, {"type": "note_on", "time": 6, "note": 71, "velocity": 114, "channel": 0}, {"type": "note_off", "time": 60, "note": 71, "velocity": 114, "channel": 0}, {"type": "note_on", "time": 45, "note": 79, "velocity": 118, "channel": 0}, {"type": "note_off", "time": 31, "note": 79, "velocity": 118, "channel": 0}, {"type": "note_on", "time": 5, "note": 82, "velocity": 113, "channel": 0}, {"type": "note_off", "time": 31, "note": 82, "velocity": 113, "channel": 0}, {"type": "note_on", "time": 128, "note": 81, "velocity": 117, "channel": 0}, {"type": "note_off", "time": 15, "note": 81, "velocity": 117, "channel": 0}, {"type": "note_on", "time": 1, "note": 80, "velocity": 110, "channel": 0}, {"type": "note_off", "time": 16, "note": 80, "velocity": 110, "channel": 0}, {"type": "note_on", "time": 7, "note": 77, "velocity": 118, "channel": 0}, {"type": "note_off", "time": 28, "note": 77, "velocity": 118, "channel": 0}, {"type": "note_on", "time": 131, "note": 75, "velocity": 120, "channel": 0}, {"type": "note_off", "time": 28, "note": 75, "velocity": 120, "channel": 0}, {"type": "note_on", "time": 6, "note": 77, "velocity": 117, "channel": 0}, {"type": "note_off", "time": 33, "note": 77, "velocity": 117, "channel": 0}, {"type": "note_on", "time": 62, "note": 75, "velocity": 114, "channel": 0}, {"type": "note_off", "time": 39, "note": 75, "velocity": 114, "channel": 0}, {"type": "note_on", "time": 203, "note": 72, "velocity": 122, "channel": 0}, {"type": "note_off", "time": 27, "note": 72, "velocity": 122, "channel": 0}, {"type": "note_on", "time": 10, "note": 73, "velocity": 117, "channel": 0}, {"type": "note_off", "time": 23, "note": 73, "velocity": 117, "channel": 0}, {"type": "note_on", "time": 18, "note": 75, "velocity": 121, "channel": 0}, {"type": "note_off", "time": 27, "note": 75, "velocity": 121, "channel": 0}, {"type": "note_on", "time": 77, "note": 77, "velocity": 123, "channel": 0}, {"type": "note_off", "time": 47, "note": 77, "velocity": 123, "channel": 0}, {"type": "note_on", "time": 7, "note": 80, "velocity": 120, "channel": 0}, {"type": "note_off", "time": 35, "note": 80, "velocity": 120, "channel": 0}, {"type": "note_on", "time": 101, "note": 78, "velocity": 116, "channel": 0}, {"type": "note_off", "time": 195, "note": 78, "velocity": 116, "channel": 0}, {"type": "note_on", "time": 14, "note": 79, "velocity": 112, "channel": 0}, {"type": "note_off", "time": 41, "note": 79, "velocity": 112, "channel": 0}, {"type": "note_on", "time": 13, "note": 82, "velocity": 115, "channel": 0}, {"type": "note_off", "time": 36, "note": 82, "velocity": 115, "channel": 0}, {"type": "note_on", "time": 52, "note": 80, "velocity": 119, "channel": 0}, {"type": "note_off", "time": 39, "note": 80, "velocity": 119, "channel": 0}, {"type": "note_on", "time": 0, "note": 79, "velocity": 113, "channel": 0}, {"type": "note_off", "time": 36, "note": 79, "velocity": 113, "channel": 0}, {"type": "note_on", "time": 146, "note": 78, "velocity": 119, "channel": 0}, {"type": "note_off", "time": 71, "note": 78, "velocity": 119, "channel": 0}, {"type": "note_on", "time": 1, "note": 76, "velocity": 115, "channel": 0}, {"type": "note_off", "time": 37, "note": 76, "velocity": 115, "channel": 0}, {"type": "note_on", "time": 39, "note": 75, "velocity": 116, "channel": 0}, {"type": "note_off", "time": 39, "note": 75, "velocity": 116, "channel": 0}, {"type": "note_on", "time": 197, "note": 75, "velocity": 117, "channel": 0}, {"type": "note_off", "time": 48, "note": 75, "velocity": 117, "channel": 0}, {"type": "note_on", "time": 2, "note": 76, "velocity": 116, "channel": 0}, {"type": "note_off", "time": 40, "note": 76, "velocity": 116, "channel": 0}, {"type": "note_on", "time": 5, "note": 77, "velocity": 121, "channel": 0}, {"type": "note_off", "time": 35, "note": 77, "velocity": 121, "channel": 0}, {"type": "note_on", "time": 5, "note": 78, "velocity": 119, "channel": 0}, {"type": "note_off", "time": 48, "note": 78, "velocity": 119, "channel": 0}, {"type": "note_on", "time": 3, "note": 76, "velocity": 115, "channel": 0}, {"type": "note_off", "time": 16, "note": 76, "velocity": 115, "channel": 0}, {"type": "note_on", "time": 0, "note": 77, "velocity": 116, "channel": 0}, {"type": "note_off", "time": 124, "note": 77, "velocity": 116, "channel": 0}, {"type": "note_on", "time": 3, "note": 76, "velocity": 119, "channel": 0}, {"type": "note_off", "time": 43, "note": 76, "velocity": 119, "channel": 0}, {"type": "note_on", "time": 1, "note": 75, "velocity": 119, "channel": 0}, {"type": "note_off", "time": 47, "note": 75, "velocity": 119, "channel": 0}, {"type": "note_on", "time": 9, "note": 72, "velocity": 118, "channel": 0}, {"type": "note_off", "time": 40, "note": 72, "velocity": 118, "channel": 0}, {"type": "note_on", "time": 6, "note": 71, "velocity": 113, "channel": 0}, {"type": "note_off", "time": 52, "note": 71, "velocity": 113, "channel": 0}, {"type": "note_on", "time": 254, "note": 75, "velocity": 120, "channel": 0}, {"type": "note_off", "time": 33, "note": 75, "velocity": 120, "channel": 0}, {"type": "note_on", "time": 2, "note": 76, "velocity": 115, "channel": 0}, {"type": "note_off", "time": 40, "note": 76, "velocity": 115, "channel": 0}, {"type": "note_on", "time": 100, "note": 77, "velocity": 118, "channel": 0}, {"type": "note_off", "time": 35, "note": 77, "velocity": 118, "channel": 0}, {"type": "note_on", "time": 5, "note": 78, "velocity": 116, "channel": 0}, {"type": "note_off", "time": 33, "note": 78, "velocity": 116, "channel": 0}, {"type": "note_on", "time": 103, "note": 79, "velocity": 110, "channel": 0}, {"type": "note_off", "time": 44, "note": 79, "velocity": 110, "channel": 0}, {"type": "note_on", "time": 5, "note": 80, "velocity": 122, "channel": 0}, {"type": "note_off", "time": 49, "note": 80, "velocity": 122, "channel": 0}, {"type": "note_on", "time": 100, "note": 80, "velocity": 118, "channel": 0}, {"type": "note_off", "time": 56, "note": 80, "velocity": 118, "channel": 0}, {"type": "note_on", "time": 128, "note": 79, "velocity": 118, "channel": 0}, {"type": "note_off", "time": 53, "note": 79, "velocity": 118, "channel": 0}, {"type": "note_on", "time": 6, "note": 80, "velocity": 119, "channel": 0}, {"type": "note_off", "time": 40, "note": 80, "velocity": 119, "channel": 0}, {"type": "note_on", "time": 47, "note": 79, "velocity": 116, "channel": 0}, {"type": "note_off", "time": 107, "note": 79, "velocity": 116, "channel": 0}, {"type": "note_on", "time": 0, "note": 78, "velocity": 115, "channel": 0}, {"type": "note_off", "time": 45, "note": 78, "velocity": 115, "channel": 0}, {"type": "note_on", "time": 5, "note": 77, "velocity": 122, "channel": 0}, {"type": "note_off", "time": 44, "note": 77, "velocity": 122, "channel": 0}, {"type": "note_on", "time": 5, "note": 76, "velocity": 121, "channel": 0}, {"type": "note_off", "time": 43, "note": 76, "velocity": 121, "channel": 0}, {"type": "note_on", "time": 2, "note": 75, "velocity": 119, "channel": 0}, {"type": "note_off", "time": 43, "note": 75, "velocity": 119, "channel": 0}, {"type": "note_on", "time": 138, "note": 76, "velocity": 118, "channel": 0}, {"type": "note_off", "time": 75, "note": 76, "velocity": 118, "channel": 0}, {"type": "note_on", "time": 2, "note": 75, "velocity": 118, "channel": 0}, {"type": "note_off", "time": 64, "note": 75, "velocity": 118, "channel": 0}, {"type": "note_on", "time": 1, "note": 76, "velocity": 118, "channel": 0}, {"type": "note_off", "time": 139, "note": 76, "velocity": 118, "channel": 0}, {"type": "note_on", "time": 24, "note": 75, "velocity": 119, "channel": 0}, {"type": "note_off", "time": 169, "note": 75, "velocity": 119, "channel": 0}, {"type": "note_on", "time": 5, "note": 74, "velocity": 118, "channel": 0}, {"type": "note_off", "time": 35, "note": 74, "velocity": 118, "channel": 0}, {"type": "note_on", "time": 0, "note": 72, "velocity": 115, "channel": 0}, {"type": "note_off", "time": 48, "note": 72, "velocity": 115, "channel": 0}, {"type": "note_on", "time": 15, "note": 65, "velocity": 120, "channel": 0}, {"type": "note_off", "time": 57, "note": 65, "velocity": 120, "channel": 0}, {"type": "note_on", "time": 1, "note": 66, "velocity": 113, "channel": 0}, {"type": "note_off", "time": 96, "note": 66, "velocity": 113, "channel": 0}, {"type": "note_on", "time": 18, "note": 63, "velocity": 107, "channel": 0}, {"type": "note_off", "time": 142, "note": 63, "velocity": 107, "channel": 0}, {"type": "note_on", "time": 643, "note": 87, "velocity": 114, "channel": 0}, {"type": "note_off", "time": 35, "note": 87, "velocity": 114, "channel": 0}, {"type": "note_on", "time": 5, "note": 88, "velocity": 122, "channel": 0}, {"type": "note_off", "time": 43, "note": 88, "velocity": 122, "channel": 0}, {"type": "note_on", "time": 2, "note": 87, "velocity": 121, "channel": 0}, {"type": "note_off", "time": 66, "note": 87, "velocity": 121, "channel": 0}, {"type": "note_on", "time": 11, "note": 90, "velocity": 120, "channel": 0}, {"type": "note_off", "time": 122, "note": 90, "velocity": 120, "channel": 0}, {"type": "note_on", "time": 112, "note": 86, "velocity": 124, "channel": 0}, {"type": "note_off", "time": 37, "note": 86, "velocity": 124, "channel": 0}, {"type": "note_on", "time": 5, "note": 87, "velocity": 122, "channel": 0}, {"type": "note_off", "time": 231, "note": 87, "velocity": 122, "channel": 0}, {"type": "note_on", "time": 2, "note": 86, "velocity": 119, "channel": 0}, {"type": "note_off", "time": 105, "note": 86, "velocity": 119, "channel": 0}, {"type": "note_on", "time": 47, "note": 84, "velocity": 118, "channel": 0}, {"type": "note_off", "time": 49, "note": 84, "velocity": 118, "channel": 0}, {"type": "note_on", "time": 13, "note": 82, "velocity": 120, "channel": 0}, {"type": "note_off", "time": 48, "note": 82, "velocity": 120, "channel": 0}, {"type": "note_on", "time": 4, "note": 80, "velocity": 123, "channel": 0}, {"type": "note_off", "time": 47, "note": 80, "velocity": 123, "channel": 0}, {"type": "note_on", "time": 3, "note": 79, "velocity": 121, "channel": 0}, {"type": "note_off", "time": 37, "note": 79, "velocity": 121, "channel": 0}, {"type": "note_on", "time": 0, "note": 80, "velocity": 122, "channel": 0}, {"type": "note_off", "time": 117, "note": 80, "velocity": 122, "channel": 0}, {"type": "note_on", "time": 492, "note": 81, "velocity": 120, "channel": 0}, {"type": "note_off", "time": 173, "note": 81, "velocity": 120, "channel": 0}, {"type": "note_on", "time": 1, "note": 80, "velocity": 117, "channel": 0}, {"type": "note_off", "time": 99, "note": 80, "velocity": 117, "channel": 0}, {"type": "note_on", "time": 2, "note": 79, "velocity": 118, "channel": 0}, {"type": "note_off", "time": 94, "note": 79, "velocity": 118, "channel": 0}, {"type": "note_on", "time": 0, "note": 78, "velocity": 122, "channel": 0}, {"type": "note_off", "time": 104, "note": 78, "velocity": 122, "channel": 0}, {"type": "note_on", "time": 1, "note": 77, "velocity": 122, "channel": 0}, {"type": "note_off", "time": 20, "note": 77, "velocity": 122, "channel": 0}, {"type": "note_on", "time": 1, "note": 76, "velocity": 122, "channel": 0}, {"type": "note_off", "time": 33, "note": 76, "velocity": 122, "channel": 0}, {"type": "note_on", "time": 3, "note": 75, "velocity": 121, "channel": 0}, {"type": "note_off", "time": 27, "note": 75, "velocity": 121, "channel": 0}, {"type": "note_on", "time": 203, "note": 72, "velocity": 121, "channel": 0}, {"type": "note_off", "time": 64, "note": 72, "velocity": 121, "channel": 0}, {"type": "note_on", "time": 2, "note": 71, "velocity": 117, "channel": 0}, {"type": "note_off", "time": 56, "note": 71, "velocity": 117, "channel": 0}, {"type": "note_on", "time": 61, "note": 66, "velocity": 116, "channel": 0}, {"type": "note_off", "time": 111, "note": 66, "velocity": 116, "channel": 0}, {"type": "note_on", "time": 6, "note": 64, "velocity": 112, "channel": 0}, {"type": "note_off", "time": 171, "note": 64, "velocity": 112, "channel": 0}, {"type": "note_on", "time": 9, "note": 63, "velocity": 116, "channel": 0}, {"type": "note_off", "time": 105, "note": 63, "velocity": 116, "channel": 0}, {"type": "note_on", "time": 171, "note": 72, "velocity": 113, "channel": 0}, {"type": "note_off", "time": 24, "note": 72, "velocity": 113, "channel": 0}, {"type": "note_on", "time": 69, "note": 75, "velocity": 124, "channel": 0}, {"type": "note_off", "time": 43, "note": 75, "velocity": 124, "channel": 0}, {"type": "note_on", "time": 2, "note": 74, "velocity": 118, "channel": 0}, {"type": "note_off", "time": 88, "note": 74, "velocity": 118, "channel": 0}, {"type": "note_on", "time": 5, "note": 75, "velocity": 121, "channel": 0}, {"type": "note_off", "time": 112, "note": 75, "velocity": 121, "channel": 0}, {"type": "note_on", "time": 713, "note": 75, "velocity": 123, "channel": 0}, {"type": "note_off", "time": 90, "note": 75, "velocity": 123, "channel": 0}, {"type": "note_on", "time": 1, "note": 76, "velocity": 121, "channel": 0}, {"type": "note_off", "time": 97, "note": 76, "velocity": 121, "channel": 0}, {"type": "note_on", "time": 1, "note": 75, "velocity": 123, "channel": 0}, {"type": "note_off", "time": 93, "note": 75, "velocity": 123, "channel": 0}, {"type": "note_on", "time": 1, "note": 72, "velocity": 123, "channel": 0}, {"type": "note_off", "time": 94, "note": 72, "velocity": 123, "channel": 0}, {"type": "note_on", "time": 5, "note": 65, "velocity": 122, "channel": 0}, {"type": "note_off", "time": 39, "note": 65, "velocity": 122, "channel": 0}, {"type": "note_on", "time": 0, "note": 66, "velocity": 122, "channel": 0}, {"type": "note_off", "time": 63, "note": 66, "velocity": 122, "channel": 0}, {"type": "note_on", "time": 1, "note": 64, "velocity": 115, "channel": 0}, {"type": "note_off", "time": 97, "note": 64, "velocity": 115, "channel": 0}, {"type": "note_on", "time": 5, "note": 63, "velocity": 107, "channel": 0}, {"type": "note_off", "time": 475, "note": 63, "velocity": 107, "channel": 0}, {"type": "note_on", "time": 15, "note": 63, "velocity": 117, "channel": 0}, {"type": "note_off", "time": 38, "note": 63, "velocity": 117, "channel": 0}, {"type": "note_on", "time": 3, "note": 64, "velocity": 117, "channel": 0}, {"type": "note_off", "time": 213, "note": 64, "velocity": 117, "channel": 0}, {"type": "end_of_track", "time": 0}]]}