{"ticks_per_beat": 192, "tracks": [[{"type": "track_name", "name": "Melody", "time": 0}, {"type": "set_tempo", "tempo": 431654, "time": 0}, {"type": "key_signature", "key": "D", "time": 0}, {"type": "time_signature", "numerator": 4, "denominator": 4, "clocks_per_click": 24, "notated_32nd_notes_per_beat": 8, "time": 0}, {"type": "note_on", "time": 1396, "note": 74, "velocity": 115, "channel": 0}, {"type": "note_off", "time": 276, "note": 74, "velocity": 115, "channel": 0}, {"type": "note_on", "time": 10, "note": 72, "velocity": 89, "channel": 0}, {"type": "note_off", "time": 95, "note": 72, "velocity": 89, "channel": 0}, {"type": "note_on", "time": 0, "note": 62, "velocity": 88, "channel": 0}, {"type": "note_off", "time": 255, "note": 62, "velocity": 88, "channel": 0}, {"type": "note_on", "time": 626, "note": 62, "velocity": 66, "channel": 0}, {"type": "note_off", "time": 59, "note": 62, "velocity": 66, "channel": 0}, {"type": "note_on", "time": 150, "note": 69, "velocity": 105, "channel": 0}, {"type": "note_off", "time": 80, "note": 69, "velocity": 105, "channel": 0}, {"type": "note_on", "time": 20, "note": 67, "velocity": 94, "channel": 0}, {"type": "note_off", "time": 245, "note": 67, "velocity": 94, "channel": 0}, {"type": "note_on", "time": 30, "note": 69, "velocity": 101, "channel": 0}, {"type": "note_off", "time": 49, "note": 69, "velocity": 101, "channel": 0}, {"type": "note_on", "time": 32, "note": 62, "velocity": 87, "channel": 0}, {"type": "note_off", "time": 84, "note": 62, "velocity": 87, "channel": 0}, {"type": "note_on", "time": 39, "note": 62, "velocity": 80, "channel": 0}, {"type": "note_off", "time": 57, "note": 62, "velocity": 80, "channel": 0}, {"type": "note_on", "time": 672, "note": 62, "velocity": 79, "channel": 0}, {"type": "note_off", "time": 93, "note": 62, "velocity": 79, "channel": 0}, {"type": "note_on", "time": 1, "note": 65, "velocity": 91, "channel": 0}, {"type": "note_off", "time": 90, "note": 65, "velocity": 91, "channel": 0}, {"type": "note_on", "time": 35, "note": 69, "velocity": 112, "channel": 0}, {"type": "note_off", "time": 90, "note": 69, "velocity": 112, "channel": 0}, {"type": "note_on", "time": 7, "note": 67, "velocity": 107, "channel": 0}, {"type": "note_off", "time": 129, "note": 67, "velocity": 107, "channel": 0}, {"type": "note_on", "time": 37, "note": 69, "velocity": 114, "channel": 0}, {"type": "note_off", "time": 105, "note": 69, "velocity": 114, "channel": 0}, {"type": "note_on", "time": 50, "note": 62, "velocity": 96, "channel": 0}, {"type": "note_off", "time": 79, "note": 62, "velocity": 96, "channel": 0}, {"type": "note_on", "time": 39, "note": 62, "velocity": 88, "channel": 0}, {"type": "note_off", "time": 28, "note": 62, "velocity": 88, "channel": 0}, {"type": "note_on", "time": 84, "note": 65, "velocity": 102, "channel": 0}, {"type": "note_off", "time": 90, "note": 65, "velocity": 102, "channel": 0}, {"type": "note_on", "time": 29, "note": 69, "velocity": 114, "channel": 0}, {"type": "note_off", "time": 98, "note": 69, "velocity": 114, "channel": 0}, {"type": "note_on", "time": 3, "note": 67, "velocity": 106, "channel": 0}, {"type": "note_off", "time": 147, "note": 67, "velocity": 106, "channel": 0}, {"type": "note_on", "time": 41, "note": 69, "velocity": 106, "channel": 0}, {"type": "note_off", "time": 85, "note": 69, "velocity": 106, "channel": 0}, {"type": "note_on", "time": 129, "note": 72, "velocity": 106, "channel": 0}, {"type": "note_off", "time": 237, "note": 72, "velocity": 106, "channel": 0}, {"type": "note_on", "time": 12, "note": 71, "velocity": 88, "channel": 0}, {"type": "note_off", "time": 103, "note": 71, "velocity": 88, "channel": 0}, {"type": "note_on", "time": 31, "note": 72, "velocity": 105, "channel": 0}, {"type": "note_off", "time": 108, "note": 72, "velocity": 105, "channel": 0}, {"type": "note_on", "time": 32, "note": 71, "velocity": 97, "channel": 0}, {"type": "note_off", "time": 69, "note": 71, "velocity": 97, "channel": 0}, {"type": "note_on", "time": 64, "note": 69, "velocity": 107, "channel": 0}, {"type": "note_off", "time": 219, "note": 69, "velocity": 107, "channel": 0}, {"type": "note_on", "time": 41, "note": 65, "velocity": 95, "channel": 0}, {"type": "note_off", "time": 98, "note": 65, "velocity": 95, "channel": 0}, {"type": "note_on", "time": 18, "note": 69, "velocity": 106, "channel": 0}, {"type": "note_off", "time": 67, "note": 69, "velocity": 106, "channel": 0}, {"type": "note_on", "time": 1, "note": 67, "velocity": 97, "channel": 0}, {"type": "note_off", "time": 111, "note": 67, "velocity": 97, "channel": 0}, {"type": "note_on", "time": 5, "note": 69, "velocity": 107, "channel": 0}, {"type": "note_off", "time": 46, "note": 69, "velocity": 107, "channel": 0}, {"type": "note_on", "time": 44, "note": 62, "velocity": 87, "channel": 0}, {"type": "note_off", "time": 57, "note": 62, "velocity": 87, "channel": 0}, {"type": "note_on", "time": 40, "note": 62, "velocity": 86, "channel": 0}, {"type": "note_off", "time": 70, "note": 62, "velocity": 86, "channel": 0}, {"type": "note_on", "time": 364, "note": 74, "velocity": 117, "channel": 0}, {"type": "note_off", "time": 123, "note": 74, "velocity": 117, "channel": 0}, {"type": "note_on", "time": 12, "note": 74, "velocity": 114, "channel": 0}, {"type": "note_off", "time": 64, "note": 74, "velocity": 114, "channel": 0}, {"type": "note_on", "time": 32, "note": 74, "velocity": 107, "channel": 0}, {"type": "note_off", "time": 90, "note": 74, "velocity": 107, "channel": 0}, {"type": "note_on", "time": 0, "note": 74, "velocity": 108, "channel": 0}, {"type": "note_off", "time": 148, "note": 74, "velocity": 108, "channel": 0}, {"type": "note_on", "time": 879, "note": 74, "velocity": 111, "channel": 0}, {"type": "note_off", "time": 134, "note": 74, "velocity": 111, "channel": 0}, {"type": "note_on", "time": 69, "note": 77, "velocity": 119, "channel": 0}, {"type": "note_off", "time": 317, "note": 77, "velocity": 119, "channel": 0}, {"type": "note_on", "time": 11, "note": 74, "velocity": 117, "channel": 0}, {"type": "note_off", "time": 100, "note": 74, "velocity": 117, "channel": 0}, {"type": "note_on", "time": 44, "note": 69, "velocity": 91, "channel": 0}, {"type": "note_off", "time": 76, "note": 69, "velocity": 91, "channel": 0}, {"type": "note_on", "time": 47, "note": 67, "velocity": 107, "channel": 0}, {"type": "note_off", "time": 116, "note": 67, "velocity": 107, "channel": 0}, {"type": "note_on", "time": 83, "note": 65, "velocity": 82, "channel": 0}, {"type": "note_off", "time": 67, "note": 65, "velocity": 82, "channel": 0}, {"type": "note_on", "time": 53, "note": 65, "velocity": 81, "channel": 0}, {"type": "note_off", "time": 127, "note": 65, "velocity": 81, "channel": 0}, {"type": "note_on", "time": 1200, "note": 64, "velocity": 103, "channel": 0}, {"type": "note_off", "time": 98, "note": 64, "velocity": 103, "channel": 0}, {"type": "note_on", "time": 0, "note": 65, "velocity": 105, "channel": 0}, {"type": "note_off", "time": 87, "note": 65, "velocity": 105, "channel": 0}, {"type": "note_on", "time": 17, "note": 67, "velocity": 116, "channel": 0}, {"type": "note_off", "time": 69, "note": 67, "velocity": 116, "channel": 0}, {"type": "note_on", "time": 10, "note": 69, "velocity": 105, "channel": 0}, {"type": "note_off", "time": 95, "note": 69, "velocity": 105, "channel": 0}, {"type": "note_on", "time": 2, "note": 73, "velocity": 119, "channel": 0}, {"type": "note_off", "time": 100, "note": 73, "velocity": 119, "channel": 0}, {"type": "note_on", "time": 15, "note": 74, "velocity": 121, "channel": 0}, {"type": "note_off", "time": 136, "note": 74, "velocity": 121, "channel": 0}, {"type": "note_on", "time": 8, "note": 76, "velocity": 109, "channel": 0}, {"type": "note_off", "time": 144, "note": 76, "velocity": 109, "channel": 0}, {"type": "note_on", "time": 0, "note": 79, "velocity": 115, "channel": 0}, {"type": "note_off", "time": 90, "note": 79, "velocity": 115, "channel": 0}, {"type": "note_on", "time": 0, "note": 76, "velocity": 120, "channel": 0}, {"type": "note_off", "time": 260, "note": 76, "velocity": 120, "channel": 0}, {"type": "note_on", "time": 17, "note": 74, "velocity": 110, "channel": 0}, {"type": "note_off", "time": 77, "note": 74, "velocity": 110, "channel": 0}, {"type": "note_on", "time": 32, "note": 72, "velocity": 88, "channel": 0}, {"type": "note_off", "time": 65, "note": 72, "velocity": 88, "channel": 0}, {"type": "note_on", "time": 25, "note": 69, "velocity": 100, "channel": 0}, {"type": "note_off", "time": 61, "note": 69, "velocity": 100, "channel": 0}, {"type": "note_on", "time": 10, "note": 67, "velocity": 106, "channel": 0}, {"type": "note_off", "time": 98, "note": 67, "velocity": 106, "channel": 0}, {"type": "note_on", "time": 90, "note": 62, "velocity": 88, "channel": 0}, {"type": "note_off", "time": 78, "note": 62, "velocity": 88, "channel": 0}, {"type": "note_on", "time": 40, "note": 62, "velocity": 92, "channel": 0}, {"type": "note_off", "time": 64, "note": 62, "velocity": 92, "channel": 0}, {"type": "note_on", "time": 1150, "note": 56, "velocity": 92, "channel": 0}, {"type": "note_off", "time": 139, "note": 56, "velocity": 92, "channel": 0}, {"type": "note_on", "time": 83, "note": 63, "velocity": 85, "channel": 0}, {"type": "note_off", "time": 74, "note": 63, "velocity": 85, "channel": 0}, {"type": "note_on", "time": 19, "note": 61, "velocity": 79, "channel": 0}, {"type": "note_off", "time": 58, "note": 61, "velocity": 79, "channel": 0}, {"type": "note_on", "time": 11, "note": 65, "velocity": 95, "channel": 0}, {"type": "note_off", "time": 82, "note": 65, "velocity": 95, "channel": 0}, {"type": "note_on", "time": 33, "note": 68, "velocity": 112, "channel": 0}, {"type": "note_off", "time": 85, "note": 68, "velocity": 112, "channel": 0}, {"type": "note_on", "time": 23, "note": 66, "velocity": 92, "channel": 0}, {"type": "note_off", "time": 94, "note": 66, "velocity": 92, "channel": 0}, {"type": "note_on", "time": 0, "note": 70, "velocity": 104, "channel": 0}, {"type": "note_off", "time": 87, "note": 70, "velocity": 104, "channel": 0}, {"type": "note_on", "time": 2, "note": 72, "velocity": 99, "channel": 0}, {"type": "note_off", "time": 95, "note": 72, "velocity": 99, "channel": 0}, {"type": "note_on", "time": 9, "note": 73, "velocity": 110, "channel": 0}, {"type": "note_off", "time": 72, "note": 73, "velocity": 110, "channel": 0}, {"type": "note_on", "time": 0, "note": 75, "velocity": 111, "channel": 0}, {"type": "note_off", "time": 157, "note": 75, "velocity": 111, "channel": 0}, {"type": "note_on", "time": 16, "note": 72, "velocity": 97, "channel": 0}, {"type": "note_off", "time": 111, "note": 72, "velocity": 97, "channel": 0}, {"type": "note_on", "time": 20, "note": 70, "velocity": 98, "channel": 0}, {"type": "note_off", "time": 423, "note": 70, "velocity": 98, "channel": 0}, {"type": "note_on", "time": 29, "note": 70, "velocity": 107, "channel": 0}, {"type": "note_off", "time": 144, "note": 70, "velocity": 107, "channel": 0}, {"type": "note_on", "time": 47, "note": 68, "velocity": 94, "channel": 0}, {"type": "note_off", "time": 157, "note": 68, "velocity": 94, "channel": 0}, {"type": "note_on", "time": 249, "note": 66, "velocity": 97, "channel": 0}, {"type": "note_off", "time": 131, "note": 66, "velocity": 97, "channel": 0}, {"type": "note_on", "time": 57, "note": 65, "velocity": 88, "channel": 0}, {"type": "note_off", "time": 108, "note": 65, "velocity": 88, "channel": 0}, {"type": "note_on", "time": 15, "note": 68, "velocity": 110, "channel": 0}, {"type": "note_off", "time": 98, "note": 68, "velocity": 110, "channel": 0}, {"type": "note_on", "time": 185, "note": 63, "velocity": 90, "channel": 0}, {"type": "note_off", "time": 108, "note": 63, "velocity": 90, "channel": 0}, {"type": "note_on", "time": 0, "note": 63, "velocity": 82, "channel": 0}, {"type": "note_off", "time": 147, "note": 63, "velocity": 82, "channel": 0}, {"type": "note_on", "time": 622, "note": 56, "velocity": 90, "channel": 0}, {"type": "note_off", "time": 61, "note": 56, "velocity": 90, "channel": 0}, {"type": "note_on", "time": 29, "note": 58, "velocity": 109, "channel": 0}, {"type": "note_off", "time": 82, "note": 58, "velocity": 109, "channel": 0}, {"type": "note_on", "time": 23, "note": 61, "velocity": 105, "channel": 0}, {"type": "note_off", "time": 80, "note": 61, "velocity": 105, "channel": 0}, {"type": "note_on", "time": 7, "note": 63, "velocity": 106, "channel": 0}, {"type": "note_off", "time": 90, "note": 63, "velocity": 106, "channel": 0}, {"type": "note_on", "time": 20, "note": 65, "velocity": 116, "channel": 0}, {"type": "note_off", "time": 59, "note": 65, "velocity": 116, "channel": 0}, {"type": "note_on", "time": 15, "note": 66, "velocity": 113, "channel": 0}, {"type": "note_off", "time": 82, "note": 66, "velocity": 113, "channel": 0}, {"type": "note_on", "time": 15, "note": 68, "velocity": 117, "channel": 0}, {"type": "note_off", "time": 98, "note": 68, "velocity": 117, "channel": 0}, {"type": "note_on", "time": 0, "note": 70, "velocity": 115, "channel": 0}, {"type": "note_off", "time": 87, "note": 70, "velocity": 115, "channel": 0}, {"type": "note_on", "time": 15, "note": 73, "velocity": 112, "channel": 0}, {"type": "note_off", "time": 74, "note": 73, "velocity": 112, "channel": 0}, {"type": "note_on", "time": 5, "note": 74, "velocity": 113, "channel": 0}, {"type": "note_off", "time": 98, "note": 74, "velocity": 113, "channel": 0}, {"type": "note_on", "time": 98, "note": 80, "velocity": 121, "channel": 0}, {"type": "note_off", "time": 185, "note": 80, "velocity": 121, "channel": 0}, {"type": "note_on", "time": 45, "note": 74, "velocity": 91, "channel": 0}, {"type": "note_off", "time": 98, "note": 74, "velocity": 91, "channel": 0}, {"type": "note_on", "time": 6, "note": 73, "velocity": 109, "channel": 0}, {"type": "note_off", "time": 51, "note": 73, "velocity": 109, "channel": 0}, {"type": "note_on", "time": 43, "note": 72, "velocity": 113, "channel": 0}, {"type": "note_off", "time": 111, "note": 72, "velocity": 113, "channel": 0}, {"type": "note_on", "time": 20, "note": 70, "velocity": 116, "channel": 0}, {"type": "note_off", "time": 116, "note": 70, "velocity": 116, "channel": 0}, {"type": "note_on", "time": 2, "note": 68, "velocity": 113, "channel": 0}, {"type": "note_off", "time": 54, "note": 68, "velocity": 113, "channel": 0}, {"type": "note_on", "time": 14, "note": 67, "velocity": 112, "channel": 0}, {"type": "note_off", "time": 105, "note": 67, "velocity": 112, "channel": 0}, {"type": "note_on", "time": 8, "note": 69, "velocity": 111, "channel": 0}, {"type": "note_off", "time": 82, "note": 69, "velocity": 111, "channel": 0}, {"type": "note_on", "time": 2, "note": 73, "velocity": 117, "channel": 0}, {"type": "note_off", "time": 113, "note": 73, "velocity": 117, "channel": 0}, {"type": "note_on", "time": 0, "note": 74, "velocity": 120, "channel": 0}, {"type": "note_off", "time": 82, "note": 74, "velocity": 120, "channel": 0}, {"type": "note_on", "time": 12, "note": 69, "velocity": 102, "channel": 0}, {"type": "note_off", "time": 105, "note": 69, "velocity": 102, "channel": 0}, {"type": "note_on", "time": 70, "note": 69, "velocity": 91, "channel": 0}, {"type": "note_off", "time": 188, "note": 69, "velocity": 91, "channel": 0}, {"type": "note_on", "time": 820, "note": 74, "velocity": 118, "channel": 0}, {"type": "note_off", "time": 92, "note": 74, "velocity": 118, "channel": 0}, {"type": "note_on", "time": 18, "note": 69, "velocity": 105, "channel": 0}, {"type": "note_off", "time": 67, "note": 69, "velocity": 105, "channel": 0}, {"type": "note_on", "time": 18, "note": 62, "velocity": 86, "channel": 0}, {"type": "note_off", "time": 105, "note": 62, "velocity": 86, "channel": 0}, {"type": "note_on", "time": 23, "note": 65, "velocity": 89, "channel": 0}, {"type": "note_off", "time": 196, "note": 65, "velocity": 89, "channel": 0}, {"type": "note_on", "time": 52, "note": 69, "velocity": 104, "channel": 0}, {"type": "note_off", "time": 126, "note": 69, "velocity": 104, "channel": 0}, {"type": "note_on", "time": 988, "note": 74, "velocity": 115, "channel": 0}, {"type": "note_off", "time": 87, "note": 74, "velocity": 115, "channel": 0}, {"type": "note_on", "time": 61, "note": 74, "velocity": 105, "channel": 0}, {"type": "note_off", "time": 344, "note": 74, "velocity": 105, "channel": 0}, {"type": "note_on", "time": 530, "note": 74, "velocity": 125, "channel": 0}, {"type": "note_off", "time": 10, "note": 74, "velocity": 125, "channel": 0}, {"type": "note_on", "time": 2, "note": 74, "velocity": 121, "channel": 0}, {"type": "note_off", "time": 111, "note": 74, "velocity": 121, "channel": 0}, {"type": "note_on", "time": 57, "note": 77, "velocity": 119, "channel": 0}, {"type": "note_off", "time": 315, "note": 77, "velocity": 119, "channel": 0}, {"type": "note_on", "time": 80, "note": 76, "velocity": 109, "channel": 0}, {"type": "note_off", "time": 121, "note": 76, "velocity": 109, "channel": 0}, {"type": "note_on", "time": 9, "note": 74, "velocity": 116, "channel": 0}, {"type": "note_off", "time": 77, "note": 74, "velocity": 116, "channel": 0}, {"type": "note_on", "time": 38, "note": 69, "velocity": 103, "channel": 0}, {"type": "note_off", "time": 72, "note": 69, "velocity": 103, "channel": 0}, {"type": "note_on", "time": 76, "note": 69, "velocity": 93, "channel": 0}, {"type": "note_off", "time": 219, "note": 69, "velocity": 93, "channel": 0}, {"type": "note_on", "time": 728, "note": 79, "velocity": 127, "channel": 0}, {"type": "note_off", "time": 18, "note": 79, "velocity": 127, "channel": 0}, {"type": "note_on", "time": 2, "note": 79, "velocity": 114, "channel": 0}, {"type": "note_off", "time": 296, "note": 79, "velocity": 114, "channel": 0}, {"type": "note_on", "time": 10, "note": 76, "velocity": 10, "channel": 0}, {"type": "note_off", "time": 1030, "note": 76, "velocity": 10, "channel": 0}, {"type": "note_on", "time": 0, "note": 76, "velocity": 108, "channel": 0}, {"type": "note_off", "time": 111, "note": 76, "velocity": 108, "channel": 0}, {"type": "note_on", "time": 19, "note": 72, "velocity": 98, "channel": 0}, {"type": "note_off", "time": 79, "note": 72, "velocity": 98, "channel": 0}, {"type": "note_on", "time": 14, "note": 76, "velocity": 113, "channel": 0}, {"type": "note_off", "time": 134, "note": 76, "velocity": 113, "channel": 0}, {"type": "note_on", "time": 43, "note": 79, "velocity": 106, "channel": 0}, {"type": "note_off", "time": 121, "note": 79, "velocity": 106, "channel": 0}, {"type": "note_on", "time": 64, "note": 76, "velocity": 109, "channel": 0}, {"type": "note_off", "time": 304, "note": 76, "velocity": 109, "channel": 0}, {"type": "note_on", "time": 10, "note": 72, "velocity": 105, "channel": 0}, {"type": "note_off", "time": 95, "note": 72, "velocity": 105, "channel": 0}, {"type": "note_on", "time": 51, "note": 72, "velocity": 100, "channel": 0}, {"type": "note_off", "time": 691, "note": 72, "velocity": 100, "channel": 0}, {"type": "note_on", "time": 0, "note": 67, "velocity": 99, "channel": 0}, {"type": "note_off", "time": 309, "note": 67, "velocity": 99, "channel": 0}, {"type": "note_on", "time": 12, "note": 64, "velocity": 90, "channel": 0}, {"type": "note_off", "time": 406, "note": 64, "velocity": 90, "channel": 0}, {"type": "note_on", "time": 621, "note": 72, "velocity": 107, "channel": 0}, {"type": "note_off", "time": 129, "note": 72, "velocity": 107, "channel": 0}, {"type": "note_on", "time": 54, "note": 76, "velocity": 121, "channel": 0}, {"type": "note_off", "time": 302, "note": 76, "velocity": 121, "channel": 0}, {"type": "note_on", "time": 18, "note": 72, "velocity": 103, "channel": 0}, {"type": "note_off", "time": 68, "note": 72, "velocity": 103, "channel": 0}, {"type": "note_on", "time": 30, "note": 76, "velocity": 125, "channel": 0}, {"type": "note_off", "time": 105, "note": 76, "velocity": 125, "channel": 0}, {"type": "note_on", "time": 8, "note": 79, "velocity": 114, "channel": 0}, {"type": "note_off", "time": 58, "note": 79, "velocity": 114, "channel": 0}, {"type": "note_on", "time": 5, "note": 76, "velocity": 118, "channel": 0}, {"type": "note_off", "time": 116, "note": 76, "velocity": 118, "channel": 0}, {"type": "note_on", "time": 12, "note": 72, "velocity": 99, "channel": 0}, {"type": "note_off", "time": 247, "note": 72, "velocity": 99, "channel": 0}, {"type": "note_on", "time": 20, "note": 69, "velocity": 105, "channel": 0}, {"type": "note_off", "time": 224, "note": 69, "velocity": 105, "channel": 0}, {"type": "note_on", "time": 129, "note": 65, "velocity": 98, "channel": 0}, {"type": "note_off", "time": 105, "note": 65, "velocity": 98, "channel": 0}, {"type": "note_on", "time": 36, "note": 69, "velocity": 112, "channel": 0}, {"type": "note_off", "time": 348, "note": 69, "velocity": 112, "channel": 0}, {"type": "note_on", "time": 92, "note": 74, "velocity": 109, "channel": 0}, {"type": "note_off", "time": 92, "note": 74, "velocity": 109, "channel": 0}, {"type": "note_on", "time": 36, "note": 68, "velocity": 102, "channel": 0}, {"type": "note_off", "time": 108, "note": 68, "velocity": 102, "channel": 0}, {"type": "note_on", "time": 0, "note": 67, "velocity": 99, "channel": 0}, {"type": "note_off", "time": 80, "note": 67, "velocity": 99, "channel": 0}, {"type": "note_on", "time": 88, "note": 65, "velocity": 91, "channel": 0}, {"type": "note_off", "time": 119, "note": 65, "velocity": 91, "channel": 0}, {"type": "note_on", "time": 58, "note": 65, "velocity": 86, "channel": 0}, {"type": "note_off", "time": 116, "note": 65, "velocity": 86, "channel": 0}, {"type": "note_on", "time": 638, "note": 62, "velocity": 79, "channel": 0}, {"type": "note_off", "time": 44, "note": 62, "velocity": 79, "channel": 0}, {"type": "note_on", "time": 3, "note": 65, "velocity": 96, "channel": 0}, {"type": "note_off", "time": 67, "note": 65, "velocity": 96, "channel": 0}, {"type": "note_on", "time": 36, "note": 69, "velocity": 110, "channel": 0}, {"type": "note_off", "time": 59, "note": 69, "velocity": 110, "channel": 0}, {"type": "note_on", "time": 64, "note": 73, "velocity": 104, "channel": 0}, {"type": "note_off", "time": 10, "note": 73, "velocity": 104, "channel": 0}, {"type": "note_on", "time": 18, "note": 74, "velocity": 117, "channel": 0}, {"type": "note_off", "time": 51, "note": 74, "velocity": 117, "channel": 0}, {"type": "note_on", "time": 54, "note": 69, "velocity": 97, "channel": 0}, {"type": "note_off", "time": 100, "note": 69, "velocity": 97, "channel": 0}, {"type": "note_on", "time": 77, "note": 67, "velocity": 99, "channel": 0}, {"type": "note_off", "time": 133, "note": 67, "velocity": 99, "channel": 0}, {"type": "note_on", "time": 0, "note": 67, "velocity": 99, "channel": 0}, {"type": "note_off", "time": 113, "note": 67, "velocity": 99, "channel": 0}, {"type": "note_on", "time": 1159, "note": 62, "velocity": 88, "channel": 0}, {"type": "note_off", "time": 49, "note": 62, "velocity": 88, "channel": 0}, {"type": "note_on", "time": 43, "note": 69, "velocity": 117, "channel": 0}, {"type": "note_off", "time": 80, "note": 69, "velocity": 117, "channel": 0}, {"type": "note_on", "time": 25, "note": 67, "velocity": 102, "channel": 0}, {"type": "note_off", "time": 77, "note": 67, "velocity": 102, "channel": 0}, {"type": "note_on", "time": 61, "note": 69, "velocity": 110, "channel": 0}, {"type": "note_off", "time": 105, "note": 69, "velocity": 110, "channel": 0}, {"type": "note_on", "time": 64, "note": 62, "velocity": 89, "channel": 0}, {"type": "note_off", "time": 80, "note": 62, "velocity": 89, "channel": 0}, {"type": "note_on", "time": 52, "note": 62, "velocity": 90, "channel": 0}, {"type": "note_off", "time": 34, "note": 62, "velocity": 90, "channel": 0}, {"type": "note_on", "time": 62, "note": 65, "velocity": 101, "channel": 0}, {"type": "note_off", "time": 82, "note": 65, "velocity": 101, "channel": 0}, {"type": "note_on", "time": 30, "note": 69, "velocity": 122, "channel": 0}, {"type": "note_off", "time": 69, "note": 69, "velocity": 122, "channel": 0}, {"type": "note_on", "time": 15, "note": 67, "velocity": 109, "channel": 0}, {"type": "note_off", "time": 95, "note": 67, "velocity": 109, "channel": 0}, {"type": "note_on", "time": 0, "note": 68, "velocity": 100, "channel": 0}, {"type": "note_off", "time": 18, "note": 68, "velocity": 100, "channel": 0}, {"type": "note_on", "time": 2, "note": 69, "velocity": 119, "channel": 0}, {"type": "note_off", "time": 180, "note": 69, "velocity": 119, "channel": 0}, {"type": "note_on", "time": 4, "note": 62, "velocity": 88, "channel": 0}, {"type": "note_off", "time": 47, "note": 62, "velocity": 88, "channel": 0}, {"type": "note_on", "time": 36, "note": 72, "velocity": 119, "channel": 0}, {"type": "note_off", "time": 121, "note": 72, "velocity": 119, "channel": 0}, {"type": "note_on", "time": 2, "note": 71, "velocity": 107, "channel": 0}, {"type": "note_off", "time": 28, "note": 71, "velocity": 107, "channel": 0}, {"type": "note_on", "time": 7, "note": 72, "velocity": 108, "channel": 0}, {"type": "note_off", "time": 152, "note": 72, "velocity": 108, "channel": 0}, {"type": "note_on", "time": 0, "note": 71, "velocity": 107, "channel": 0}, {"type": "note_off", "time": 90, "note": 71, "velocity": 107, "channel": 0}, {"type": "note_on", "time": 5, "note": 69, "velocity": 106, "channel": 0}, {"type": "note_off", "time": 98, "note": 69, "velocity": 106, "channel": 0}, {"type": "note_on", "time": 1, "note": 69, "velocity": 104, "channel": 0}, {"type": "note_off", "time": 232, "note": 69, "velocity": 104, "channel": 0}, {"type": "note_on", "time": 576, "note": 80, "velocity": 118, "channel": 0}, {"type": "note_off", "time": 495, "note": 80, "velocity": 118, "channel": 0}, {"type": "note_on", "time": 12, "note": 77, "velocity": 116, "channel": 0}, {"type": "note_off", "time": 72, "note": 77, "velocity": 116, "channel": 0}, {"type": "note_on", "time": 31, "note": 73, "velocity": 117, "channel": 0}, {"type": "note_off", "time": 624, "note": 73, "velocity": 117, "channel": 0}, {"type": "note_on", "time": 61, "note": 70, "velocity": 108, "channel": 0}, {"type": "note_off", "time": 54, "note": 70, "velocity": 108, "channel": 0}, {"type": "note_on", "time": 41, "note": 68, "velocity": 106, "channel": 0}, {"type": "note_off", "time": 103, "note": 68, "velocity": 106, "channel": 0}, {"type": "note_on", "time": 56, "note": 66, "velocity": 91, "channel": 0}, {"type": "note_off", "time": 85, "note": 66, "velocity": 91, "channel": 0}, {"type": "note_on", "time": 74, "note": 65, "velocity": 93, "channel": 0}, {"type": "note_off", "time": 111, "note": 65, "velocity": 93, "channel": 0}, {"type": "note_on", "time": 108, "note": 63, "velocity": 81, "channel": 0}, {"type": "note_off", "time": 136, "note": 63, "velocity": 81, "channel": 0}, {"type": "note_on", "time": 8, "note": 63, "velocity": 83, "channel": 0}, {"type": "note_off", "time": 202, "note": 63, "velocity": 83, "channel": 0}, {"type": "note_on", "time": 12, "note": 61, "velocity": 82, "channel": 0}, {"type": "note_off", "time": 54, "note": 61, "velocity": 82, "channel": 0}, {"type": "note_on", "time": 854, "note": 65, "velocity": 106, "channel": 0}, {"type": "note_off", "time": 61, "note": 65, "velocity": 106, "channel": 0}, {"type": "note_on", "time": 12, "note": 63, "velocity": 93, "channel": 0}, {"type": "note_off", "time": 51, "note": 63, "velocity": 93, "channel": 0}, {"type": "note_on", "time": 51, "note": 66, "velocity": 111, "channel": 0}, {"type": "note_off", "time": 64, "note": 66, "velocity": 111, "channel": 0}, {"type": "note_on", "time": 20, "note": 65, "velocity": 85, "channel": 0}, {"type": "note_off", "time": 49, "note": 65, "velocity": 85, "channel": 0}, {"type": "note_on", "time": 64, "note": 68, "velocity": 116, "channel": 0}, {"type": "note_off", "time": 98, "note": 68, "velocity": 116, "channel": 0}, {"type": "note_on", "time": 2, "note": 66, "velocity": 105, "channel": 0}, {"type": "note_off", "time": 237, "note": 66, "velocity": 105, "channel": 0}, {"type": "note_on", "time": 56, "note": 70, "velocity": 112, "channel": 0}, {"type": "note_off", "time": 49, "note": 70, "velocity": 112, "channel": 0}, {"type": "note_on", "time": 20, "note": 68, "velocity": 104, "channel": 0}, {"type": "note_off", "time": 41, "note": 68, "velocity": 104, "channel": 0}, {"type": "note_on", "time": 18, "note": 72, "velocity": 109, "channel": 0}, {"type": "note_off", "time": 30, "note": 72, "velocity": 109, "channel": 0}, {"type": "note_on", "time": 30, "note": 70, "velocity": 100, "channel": 0}, {"type": "note_off", "time": 273, "note": 70, "velocity": 100, "channel": 0}, {"type": "note_on", "time": 107, "note": 73, "velocity": 107, "channel": 0}, {"type": "note_off", "time": 82, "note": 73, "velocity": 107, "channel": 0}, {"type": "note_on", "time": 117, "note": 75, "velocity": 117, "channel": 0}, {"type": "note_off", "time": 46, "note": 75, "velocity": 117, "channel": 0}, {"type": "note_on", "time": 35, "note": 72, "velocity": 98, "channel": 0}, {"type": "note_off", "time": 154, "note": 72, "velocity": 98, "channel": 0}, {"type": "note_on", "time": 10, "note": 68, "velocity": 81, "channel": 0}, {"type": "note_off", "time": 111, "note": 68, "velocity": 81, "channel": 0}, {"type": "note_on", "time": 867, "note": 74, "velocity": 120, "channel": 0}, {"type": "note_off", "time": 82, "note": 74, "velocity": 120, "channel": 0}, {"type": "note_on", "time": 18, "note": 76, "velocity": 118, "channel": 0}, {"type": "note_off", "time": 77, "note": 76, "velocity": 118, "channel": 0}, {"type": "note_on", "time": 20, "note": 77, "velocity": 112, "channel": 0}, {"type": "note_off", "time": 72, "note": 77, "velocity": 112, "channel": 0}, {"type": "note_on", "time": 23, "note": 79, "velocity": 115, "channel": 0}, {"type": "note_off", "time": 449, "note": 79, "velocity": 115, "channel": 0}, {"type": "note_on", "time": 2, "note": 76, "velocity": 122, "channel": 0}, {"type": "note_off", "time": 772, "note": 76, "velocity": 122, "channel": 0}, {"type": "note_on", "time": 30, "note": 72, "velocity": 111, "channel": 0}, {"type": "note_off", "time": 304, "note": 72, "velocity": 111, "channel": 0}, {"type": "note_on", "time": 6, "note": 69, "velocity": 99, "channel": 0}, {"type": "note_off", "time": 64, "note": 69, "velocity": 99, "channel": 0}, {"type": "note_on", "time": 29, "note": 72, "velocity": 110, "channel": 0}, {"type": "note_off", "time": 64, "note": 72, "velocity": 110, "channel": 0}, {"type": "note_on", "time": 26, "note": 76, "velocity": 113, "channel": 0}, {"type": "note_off", "time": 72, "note": 76, "velocity": 113, "channel": 0}, {"type": "note_on", "time": 5, "note": 79, "velocity": 101, "channel": 0}, {"type": "note_off", "time": 103, "note": 79, "velocity": 101, "channel": 0}, {"type": "note_on", "time": 47, "note": 76, "velocity": 117, "channel": 0}, {"type": "note_off", "time": 379, "note": 76, "velocity": 117, "channel": 0}, {"type": "note_on", "time": 51, "note": 72, "velocity": 101, "channel": 0}, {"type": "note_off", "time": 136, "note": 72, "velocity": 101, "channel": 0}, {"type": "note_on", "time": 51, "note": 74, "velocity": 116, "channel": 0}, {"type": "note_off", "time": 121, "note": 74, "velocity": 116, "channel": 0}, {"type": "note_on", "time": 5, "note": 72, "velocity": 103, "channel": 0}, {"type": "note_off", "time": 175, "note": 72, "velocity": 103, "channel": 0}, {"type": "note_on", "time": 13, "note": 71, "velocity": 95, "channel": 0}, {"type": "note_off", "time": 43, "note": 71, "velocity": 95, "channel": 0}, {"type": "note_on", "time": 27, "note": 69, "velocity": 97, "channel": 0}, {"type": "note_off", "time": 92, "note": 69, "velocity": 97, "channel": 0}, {"type": "note_on", "time": 78, "note": 69, "velocity": 77, "channel": 0}, {"type": "note_off", "time": 232, "note": 69, "velocity": 77, "channel": 0}, {"type": "note_on", "time": 661, "note": 62, "velocity": 90, "channel": 0}, {"type": "note_off", "time": 46, "note": 62, "velocity": 90, "channel": 0}, {"type": "note_on", "time": 48, "note": 65, "velocity": 96, "channel": 0}, {"type": "note_off", "time": 85, "note": 65, "velocity": 96, "channel": 0}, {"type": "note_on", "time": 5, "note": 69, "velocity": 116, "channel": 0}, {"type": "note_off", "time": 82, "note": 69, "velocity": 116, "channel": 0}, {"type": "note_on", "time": 20, "note": 67, "velocity": 110, "channel": 0}, {"type": "note_off", "time": 72, "note": 67, "velocity": 110, "channel": 0}, {"type": "note_on", "time": 20, "note": 69, "velocity": 110, "channel": 0}, {"type": "note_off", "time": 64, "note": 69, "velocity": 110, "channel": 0}, {"type": "note_on", "time": 19, "note": 73, "velocity": 121, "channel": 0}, {"type": "note_off", "time": 98, "note": 73, "velocity": 121, "channel": 0}, {"type": "note_on", "time": 22, "note": 74, "velocity": 121, "channel": 0}, {"type": "note_off", "time": 85, "note": 74, "velocity": 121, "channel": 0}, {"type": "note_on", "time": 11, "note": 76, "velocity": 114, "channel": 0}, {"type": "note_off", "time": 322, "note": 76, "velocity": 114, "channel": 0}, {"type": "note_on", "time": 23, "note": 72, "velocity": 98, "channel": 0}, {"type": "note_off", "time": 242, "note": 72, "velocity": 98, "channel": 0}, {"type": "note_on", "time": 64, "note": 69, "velocity": 106, "channel": 0}, {"type": "note_off", "time": 172, "note": 69, "velocity": 106, "channel": 0}, {"type": "note_on", "time": 85, "note": 65, "velocity": 85, "channel": 0}, {"type": "note_off", "time": 59, "note": 65, "velocity": 85, "channel": 0}, {"type": "note_on", "time": 61, "note": 68, "velocity": 106, "channel": 0}, {"type": "note_off", "time": 77, "note": 68, "velocity": 106, "channel": 0}, {"type": "note_on", "time": 14, "note": 69, "velocity": 106, "channel": 0}, {"type": "note_off", "time": 154, "note": 69, "velocity": 106, "channel": 0}, {"type": "note_on", "time": 16, "note": 62, "velocity": 85, "channel": 0}, {"type": "note_off", "time": 142, "note": 62, "velocity": 85, "channel": 0}, {"type": "note_on", "time": 25, "note": 62, "velocity": 83, "channel": 0}, {"type": "note_off", "time": 139, "note": 62, "velocity": 83, "channel": 0}, {"type": "end_of_track", "time": 0}]]}